,hand,channel,note,velocity,start_beat,duration,note_value,chord
0,Left,1,37,80,0.0,0.489583,Eighth,C#2
1,Right,0,44,80,0.25,0.489583,Eighth,G#2
3,Right,0,49,80,0.5,0.489583,Eighth,C#3
2,Left,1,44,80,0.5,0.489583,Eighth,G#2
4,Right,0,52,80,0.75,0.489583,Eighth,E3
6,Right,0,56,80,1.0,0.489583,Eighth,G#3
5,Left,1,37,80,1.0,0.489583,Eighth,C#2
7,Right,0,49,80,1.25,0.489583,Eighth,C#3
8,Right,0,52,80,1.5,0.489583,Eighth,E3
9,Left,1,44,80,1.5,0.489583,Eighth,G#2
10,Right,0,56,80,1.75,0.489583,Eighth,G#3
11,Right,0,61,80,2.0,0.489583,Eighth,C#4
12,Left,1,37,80,2.0,0.489583,Eighth,C#2
13,Right,0,52,80,2.25,0.489583,Eighth,E3
15,Right,0,56,80,2.5,0.489583,Eighth,G#3
14,Left,1,44,80,2.5,0.489583,Eighth,G#2
16,Right,0,61,80,2.75,0.489583,Eighth,C#4
18,Right,0,64,80,3.0,0.489583,Eighth,E4
17,Left,1,37,80,3.0,0.489583,Eighth,C#2
19,Right,0,56,80,3.25,0.489583,Eighth,G#3
20,Right,0,61,80,3.5,0.489583,Eighth,C#4
21,Left,1,44,80,3.5,0.489583,Eighth,G#2
22,Right,0,64,80,3.75,0.489583,Eighth,E4
23,Left,1,37,80,4.0,0.489583,Eighth,C#2
24,Right,0,68,80,4.0,0.489583,Eighth,G#4
25,Right,0,61,80,4.25,0.489583,Eighth,C#4
27,Left,1,44,80,4.5,0.489583,Eighth,G#2
26,Right,0,64,80,4.5,0.489583,Eighth,E4
28,Right,0,68,80,4.75,0.489583,Eighth,G#4
30,Left,1,37,80,5.0,0.489583,Eighth,C#2
29,Right,0,73,80,5.0,0.489583,Eighth,C#5
31,Right,0,64,80,5.25,0.489583,Eighth,E4
32,Left,1,44,80,5.5,0.489583,Eighth,G#2
33,Right,0,68,80,5.5,0.489583,Eighth,G#4
34,Right,0,73,80,5.75,0.489583,Eighth,C#5
36,Right,0,76,80,6.0,0.489583,Eighth,E5
35,Left,1,37,80,6.0,0.489583,Eighth,C#2
37,Right,0,68,80,6.25,0.489583,Eighth,G#4
39,Left,1,44,80,6.5,0.489583,Eighth,G#2
38,Right,0,73,80,6.5,0.489583,Eighth,C#5
40,Right,0,76,80,6.75,0.239583,Sixteenth,E5
43,Right,0,80,110,7.0,0.489583,Eighth,G#5_G#4_E5_C#5
41,Left,1,37,100,7.0,0.989583,Quarter,C#3_C#2
48,Right,0,76,100,7.5,0.489583,Eighth,G#5_G#4_E5_C#5
47,Left,1,44,100,7.5,0.489583,Eighth,G#2
52,Left,1,36,80,8.0,0.489583,Eighth,C2
53,Right,0,44,80,8.25,0.489583,Eighth,G#2
54,Right,0,48,80,8.5,0.489583,Eighth,C3
55,Left,1,44,80,8.5,0.489583,Eighth,G#2
56,Right,0,51,80,8.75,0.489583,Eighth,D#3
58,Left,1,36,80,9.0,0.489583,Eighth,C2
57,Right,0,56,80,9.0,0.489583,Eighth,G#3
59,Right,0,48,80,9.25,0.489583,Eighth,C3
61,Left,1,44,80,9.5,0.489583,Eighth,G#2
60,Right,0,51,80,9.5,0.489583,Eighth,D#3
62,Right,0,56,80,9.75,0.489583,Eighth,G#3
63,Right,0,60,80,10.0,0.489583,Eighth,C4
64,Left,1,36,80,10.0,0.489583,Eighth,C2
65,Right,0,51,80,10.25,0.489583,Eighth,D#3
67,Left,1,44,80,10.5,0.489583,Eighth,G#2
66,Right,0,56,80,10.5,0.489583,Eighth,G#3
68,Right,0,60,80,10.75,0.489583,Eighth,C4
70,Right,0,63,80,11.0,0.489583,Eighth,D#4
69,Left,1,36,80,11.0,0.489583,Eighth,C2
71,Right,0,56,80,11.25,0.489583,Eighth,G#3
72,Right,0,60,80,11.5,0.489583,Eighth,C4
73,Left,1,44,80,11.5,0.489583,Eighth,G#2
74,Right,0,63,80,11.75,0.489583,Eighth,D#4
75,Left,1,36,80,12.0,0.489583,Eighth,C2
76,Right,0,68,80,12.0,0.489583,Eighth,G#4
77,Right,0,60,80,12.25,0.489583,Eighth,C4
78,Left,1,44,80,12.5,0.489583,Eighth,G#2
79,Right,0,63,80,12.5,0.489583,Eighth,D#4
80,Right,0,68,80,12.75,0.489583,Eighth,G#4
82,Right,0,72,80,13.0,0.489583,Eighth,C5
81,Left,1,36,80,13.0,0.489583,Eighth,C2
83,Right,0,63,80,13.25,0.489583,Eighth,D#4
84,Left,1,44,80,13.5,0.489583,Eighth,G#2
85,Right,0,68,80,13.5,0.489583,Eighth,G#4
86,Right,0,72,80,13.75,0.489583,Eighth,C5
88,Left,1,36,80,14.0,0.489583,Eighth,C2
87,Right,0,75,80,14.0,0.489583,Eighth,D#5
89,Right,0,68,80,14.25,0.489583,Eighth,G#4
91,Left,1,44,80,14.5,0.489583,Eighth,G#2
90,Right,0,72,80,14.5,0.489583,Eighth,C5
92,Right,0,75,80,14.75,0.239583,Sixteenth,D#5
93,Right,0,68,110,15.0,0.489583,Eighth,G#5_G#4_D#5_C5
97,Left,1,36,110,15.0,0.989583,Quarter,C3_C2
102,Left,1,44,100,15.5,0.489583,Eighth,G#2
99,Right,0,80,100,15.5,0.489583,Eighth,G#5_G#4_D#5_C5
104,Left,1,35,80,16.0,0.489583,Eighth,B1
105,Right,0,49,80,16.25,0.489583,Eighth,C#3
106,Left,1,44,80,16.5,0.489583,Eighth,G#2
107,Right,0,53,80,16.5,0.489583,Eighth,F3
108,Right,0,56,80,16.75,0.489583,Eighth,G#3
110,Right,0,61,80,17.0,0.489583,Eighth,C#4
109,Left,1,35,80,17.0,0.489583,Eighth,B1
111,Right,0,53,80,17.25,0.489583,Eighth,F3
113,Left,1,44,80,17.5,0.489583,Eighth,G#2
112,Right,0,56,80,17.5,0.489583,Eighth,G#3
114,Right,0,61,80,17.75,0.489583,Eighth,C#4
115,Left,1,35,80,18.0,0.489583,Eighth,B1
116,Right,0,65,80,18.0,0.489583,Eighth,F4
117,Right,0,56,80,18.25,0.489583,Eighth,G#3
118,Left,1,44,80,18.5,0.489583,Eighth,G#2
119,Right,0,61,80,18.5,0.489583,Eighth,C#4
120,Right,0,65,80,18.75,0.489583,Eighth,F4
121,Left,1,35,80,19.0,0.489583,Eighth,B1
122,Right,0,68,80,19.0,0.489583,Eighth,G#4
123,Right,0,61,80,19.25,0.489583,Eighth,C#4
125,Left,1,44,80,19.5,0.489583,Eighth,G#2
124,Right,0,65,80,19.5,0.489583,Eighth,F4
126,Right,0,68,80,19.75,0.489583,Eighth,G#4
128,Right,0,73,80,20.0,0.489583,Eighth,C#5
127,Left,1,35,80,20.0,0.489583,Eighth,B1
129,Right,0,65,80,20.25,0.489583,Eighth,F4
130,Right,0,68,80,20.5,0.489583,Eighth,G#4
131,Left,1,44,80,20.5,0.489583,Eighth,G#2
132,Right,0,73,80,20.75,0.489583,Eighth,C#5
133,Right,0,77,80,21.0,0.489583,Eighth,F5
134,Left,1,35,80,21.0,0.489583,Eighth,B1
135,Right,0,68,80,21.25,0.489583,Eighth,G#4
136,Left,1,44,80,21.5,0.489583,Eighth,G#2
137,Right,0,73,80,21.5,0.489583,Eighth,C#5
138,Right,0,77,80,21.75,0.489583,Eighth,F5
140,Right,0,80,80,22.0,0.489583,Eighth,G#5
139,Left,1,35,80,22.0,0.489583,Eighth,B1
141,Right,0,73,80,22.25,0.489583,Eighth,C#5
142,Right,0,77,80,22.5,0.489583,Eighth,F5
143,Left,1,44,80,22.5,0.489583,Eighth,G#2
144,Right,0,80,80,22.75,0.239583,Sixteenth,G#5
147,Right,0,77,110,23.0,0.489583,Eighth,G#5_F5_C#6_C#5
145,Left,1,47,110,23.0,0.989583,Quarter,B2_B1
151,Left,1,44,100,23.5,0.489583,Eighth,G#2
152,Right,0,85,100,23.5,0.489583,Eighth,G#5_F5_C#6_C#5
156,Left,1,33,90,24.0,0.489583,Eighth,A1
157,Right,0,49,90,24.25,0.489583,Eighth,C#3
158,Right,0,54,90,24.5,0.489583,Eighth,F#3
159,Left,1,44,90,24.5,0.489583,Eighth,G#2
160,Right,0,57,90,24.75,0.489583,Eighth,A3
161,Right,0,61,90,25.0,0.239583,Sixteenth,C#4
162,Left,1,33,90,25.0,0.489583,Eighth,A1
163,Right,0,61,90,25.25,0.489583,Eighth,C#4
164,Right,0,66,90,25.5,0.489583,Eighth,F#4
165,Left,1,44,90,25.5,0.489583,Eighth,G#2
166,Right,0,69,90,25.75,0.489583,Eighth,A4
168,Left,1,33,90,26.0,0.489583,Eighth,A1
167,Right,0,73,90,26.0,0.239583,Sixteenth,C#5
169,Right,0,73,90,26.25,0.489583,Eighth,C#5
171,Left,1,44,90,26.5,0.489583,Eighth,G#2
170,Right,0,78,90,26.5,0.489583,Eighth,F#5
172,Right,0,81,90,26.75,0.489583,Eighth,A5
174,Right,0,73,110,27.0,0.489583,Eighth,F#5_C#6_C#5
173,Left,1,33,110,27.0,0.989583,Quarter,A1
178,Left,1,44,100,27.5,0.489583,Eighth,G#2
177,Right,0,85,100,27.5,0.489583,Eighth,F#5_C#6_C#5
181,Left,1,33,90,28.0,0.489583,Eighth,A1
182,Right,0,49,90,28.25,0.489583,Eighth,C#3
183,Left,1,45,90,28.5,0.489583,Eighth,A2
184,Right,0,52,90,28.5,0.489583,Eighth,E3
185,Right,0,55,90,28.75,0.489583,Eighth,G3
187,Left,1,33,90,29.0,0.489583,Eighth,A1
186,Right,0,61,90,29.0,0.239583,Sixteenth,C#4
188,Right,0,61,90,29.25,0.489583,Eighth,C#4
189,Right,0,64,90,29.5,0.489583,Eighth,E4
190,Left,1,45,90,29.5,0.489583,Eighth,A2
191,Right,0,67,90,29.75,0.489583,Eighth,G4
192,Left,1,33,90,30.0,0.489583,Eighth,A1
193,Right,0,73,90,30.0,0.239583,Sixteenth,C#5
194,Right,0,73,90,30.25,0.489583,Eighth,C#5
196,Right,0,76,90,30.5,0.489583,Eighth,E5
195,Left,1,45,90,30.5,0.489583,Eighth,A2
197,Right,0,79,90,30.75,0.239583,Sixteenth,G5
201,Left,1,33,110,31.0,0.989583,Quarter,A1
198,Right,0,85,110,31.0,0.489583,Eighth,G5_C#6_C#5
203,Right,0,85,100,31.5,0.489583,Eighth,G5_C#6_C#5
202,Left,1,45,100,31.5,0.489583,Eighth,A2
206,Right,0,80,110,32.0,0.489583,Eighth,G#5_C6_C5
209,Left,1,32,110,32.0,0.989583,Quarter,G#2_G#1
213,Right,0,68,110,32.5,0.489583,Eighth,G#4
211,Left,1,60,110,32.5,7.489583,Eighth,G#3_C4
214,Right,0,80,110,32.75,0.489583,Eighth,G#5
216,Right,0,68,110,33.0,0.489583,Eighth,G#4
215,Left,1,60,110,33.0,0.489583,Eighth,C4
217,Right,0,80,110,33.25,0.489583,Eighth,G#5
218,Right,0,70,110,33.5,0.489583,Eighth,A#4
219,Left,1,61,110,33.5,0.489583,Eighth,C#4
220,Right,0,80,110,33.75,0.489583,Eighth,G#5
222,Right,0,72,110,34.0,0.489583,Eighth,C5
221,Left,1,63,110,34.0,0.489583,Eighth,D#4
223,Right,0,80,110,34.25,0.489583,Eighth,G#5
224,Right,0,73,110,34.5,0.489583,Eighth,C#5
225,Left,1,64,110,34.5,0.489583,Eighth,E4
226,Right,0,80,110,34.75,0.489583,Eighth,G#5
228,Left,1,66,110,35.0,0.489583,Eighth,F#4
227,Right,0,75,110,35.0,0.489583,Eighth,D#5
229,Right,0,80,110,35.25,0.489583,Eighth,G#5
231,Left,1,64,110,35.5,0.489583,Eighth,E4
230,Right,0,72,110,35.5,0.489583,Eighth,C5
232,Right,0,80,110,35.75,0.489583,Eighth,G#5
234,Right,0,75,110,36.0,0.489583,Eighth,D#5
233,Left,1,66,110,36.0,0.489583,Eighth,F#4
235,Right,0,80,110,36.25,0.489583,Eighth,G#5
236,Left,1,64,110,36.5,0.489583,Eighth,E4
237,Right,0,73,110,36.5,0.489583,Eighth,C#5
238,Right,0,80,110,36.75,0.489583,Eighth,G#5
239,Right,0,78,110,37.0,0.489583,Eighth,F#5
240,Left,1,69,110,37.0,0.489583,Eighth,A4
241,Right,0,80,110,37.25,0.489583,Eighth,G#5
242,Right,0,76,110,37.5,0.489583,Eighth,E5
243,Left,1,68,110,37.5,0.489583,Eighth,G#4
244,Right,0,80,110,37.75,0.489583,Eighth,G#5
246,Right,0,75,110,38.0,0.489583,Eighth,D#5
245,Left,1,66,110,38.0,0.489583,Eighth,F#4
247,Right,0,80,110,38.25,0.489583,Eighth,G#5
249,Right,0,73,110,38.5,0.489583,Eighth,C#5
248,Left,1,64,110,38.5,0.489583,Eighth,E4
250,Right,0,80,110,38.75,0.489583,Eighth,G#5
252,Left,1,63,110,39.0,0.489583,Eighth,D#4
251,Right,0,72,110,39.0,0.489583,Eighth,C5
253,Right,0,80,110,39.25,0.489583,Eighth,G#5
255,Right,0,69,110,39.5,0.489583,Eighth,A4
254,Left,1,61,110,39.5,0.489583,Eighth,C#4
256,Right,0,79,110,39.75,0.239583,Sixteenth,G5
257,Right,0,68,110,40.0,0.489583,Eighth,G#4
258,Left,1,56,110,40.0,7.989583,Unknown,G#3_C4
260,Right,0,80,110,40.25,0.489583,Eighth,G#5
262,Left,1,60,110,40.5,0.489583,Eighth,C4
261,Right,0,68,110,40.5,0.489583,Eighth,G#4
263,Right,0,80,110,40.75,0.489583,Eighth,G#5
264,Left,1,60,110,41.0,0.489583,Eighth,C4
265,Right,0,68,110,41.0,0.489583,Eighth,G#4
266,Right,0,80,110,41.25,0.489583,Eighth,G#5
267,Left,1,61,110,41.5,0.489583,Eighth,C#4
268,Right,0,70,110,41.5,0.489583,Eighth,A#4
269,Right,0,80,110,41.75,0.489583,Eighth,G#5
270,Left,1,63,110,42.0,0.489583,Eighth,D#4
271,Right,0,72,110,42.0,0.489583,Eighth,C5
272,Right,0,80,110,42.25,0.489583,Eighth,G#5
273,Left,1,64,110,42.5,0.489583,Eighth,E4
274,Right,0,73,110,42.5,0.489583,Eighth,C#5
275,Right,0,80,110,42.75,0.489583,Eighth,G#5
277,Left,1,66,110,43.0,0.489583,Eighth,F#4
276,Right,0,75,110,43.0,0.489583,Eighth,D#5
278,Right,0,80,110,43.25,0.489583,Eighth,G#5
280,Right,0,72,110,43.5,0.489583,Eighth,C5
279,Left,1,64,110,43.5,0.489583,Eighth,E4
281,Right,0,80,110,43.75,0.489583,Eighth,G#5
282,Right,0,75,110,44.0,0.489583,Eighth,D#5
283,Left,1,66,110,44.0,0.489583,Eighth,F#4
284,Right,0,80,110,44.25,0.489583,Eighth,G#5
286,Left,1,64,110,44.5,0.489583,Eighth,E4
285,Right,0,73,110,44.5,0.489583,Eighth,C#5
287,Right,0,80,110,44.75,0.489583,Eighth,G#5
288,Right,0,78,110,45.0,0.489583,Eighth,F#5
289,Left,1,69,110,45.0,0.489583,Eighth,A4
290,Right,0,80,110,45.25,0.489583,Eighth,G#5
291,Right,0,76,110,45.5,0.489583,Eighth,E5
292,Left,1,68,110,45.5,0.489583,Eighth,G#4
293,Right,0,80,110,45.75,0.489583,Eighth,G#5
294,Right,0,75,110,46.0,0.489583,Eighth,D#5
295,Left,1,66,110,46.0,0.489583,Eighth,F#4
296,Right,0,80,110,46.25,0.489583,Eighth,G#5
298,Left,1,64,110,46.5,0.489583,Eighth,E4
297,Right,0,73,110,46.5,0.489583,Eighth,C#5
299,Right,0,80,110,46.75,0.489583,Eighth,G#5
300,Left,1,63,110,47.0,0.489583,Eighth,D#4
301,Right,0,72,110,47.0,0.489583,Eighth,C5
302,Right,0,80,110,47.25,0.489583,Eighth,G#5
303,Left,1,61,110,47.5,0.489583,Eighth,C#4
304,Right,0,69,110,47.5,0.489583,Eighth,A4
305,Right,0,79,110,47.75,0.239583,Sixteenth,G5
306,Left,1,60,110,48.0,0.489583,Eighth,G#3_C4
307,Right,0,68,110,48.0,0.489583,Eighth,G#4
309,Right,0,80,110,48.25,0.489583,Eighth,G#5
311,Left,1,61,110,48.5,0.489583,Eighth,G#3_C#4
310,Right,0,69,110,48.5,0.489583,Eighth,A4
313,Right,0,79,110,48.75,0.489583,Eighth,G5
314,Right,0,68,110,49.0,0.489583,Eighth,G#4
315,Left,1,56,110,49.0,0.489583,Eighth,G#3_C4
317,Right,0,80,110,49.25,0.489583,Eighth,G#5
318,Left,1,56,110,49.5,0.489583,Eighth,G#3_C#4
319,Right,0,69,110,49.5,0.489583,Eighth,A4
321,Right,0,79,110,49.75,0.489583,Eighth,G5
324,Right,0,68,110,50.0,0.489583,Eighth,G#4
322,Left,1,60,110,50.0,0.489583,Eighth,G#3_C4
325,Right,0,80,110,50.25,0.489583,Eighth,G#5
328,Right,0,69,110,50.5,0.489583,Eighth,A4
326,Left,1,61,110,50.5,0.489583,Eighth,G#3_C#4
329,Right,0,79,110,50.75,0.489583,Eighth,G5
332,Right,0,68,110,51.0,0.489583,Eighth,G#4
330,Left,1,60,110,51.0,0.489583,Eighth,G#3_C4
333,Right,0,80,110,51.25,0.489583,Eighth,G#5
334,Left,1,56,110,51.5,0.489583,Eighth,G#3_C#4
335,Right,0,69,110,51.5,0.489583,Eighth,A4
337,Right,0,79,110,51.75,0.239583,Sixteenth,G5
338,Left,1,56,110,52.0,0.989583,Quarter,G#3_C4
339,Right,0,80,110,52.0,0.989583,Quarter,G#5_G#4
342,Right,0,56,110,53.0,6.989583,Unknown,G#3
343,Left,1,32,110,53.0,6.989583,Unknown,G#2_G#1
345,Left,1,37,80,60.0,0.489583,Eighth,C#2
346,Right,0,44,80,60.25,0.489583,Eighth,G#2
347,Left,1,44,80,60.5,0.489583,Eighth,G#2
348,Right,0,49,80,60.5,0.489583,Eighth,C#3
349,Right,0,52,80,60.75,0.489583,Eighth,E3
351,Left,1,37,80,61.0,0.489583,Eighth,C#2
350,Right,0,56,80,61.0,0.489583,Eighth,G#3
352,Right,0,49,80,61.25,0.489583,Eighth,C#3
353,Right,0,52,80,61.5,0.489583,Eighth,E3
354,Left,1,44,80,61.5,0.489583,Eighth,G#2
355,Right,0,56,80,61.75,0.489583,Eighth,G#3
356,Right,0,61,80,62.0,0.489583,Eighth,C#4
357,Left,1,37,80,62.0,0.489583,Eighth,C#2
358,Right,0,52,80,62.25,0.489583,Eighth,E3
360,Left,1,44,80,62.5,0.489583,Eighth,G#2
359,Right,0,56,80,62.5,0.489583,Eighth,G#3
361,Right,0,61,80,62.75,0.489583,Eighth,C#4
363,Left,1,37,80,63.0,0.489583,Eighth,C#2
362,Right,0,64,80,63.0,0.489583,Eighth,E4
364,Right,0,56,80,63.25,0.489583,Eighth,G#3
365,Left,1,44,80,63.5,0.489583,Eighth,G#2
366,Right,0,61,80,63.5,0.489583,Eighth,C#4
367,Right,0,64,80,63.75,0.489583,Eighth,E4
369,Right,0,68,80,64.0,0.489583,Eighth,G#4
368,Left,1,37,80,64.0,0.489583,Eighth,C#2
370,Right,0,61,80,64.25,0.489583,Eighth,C#4
372,Left,1,44,80,64.5,0.489583,Eighth,G#2
371,Right,0,64,80,64.5,0.489583,Eighth,E4
373,Right,0,68,80,64.75,0.489583,Eighth,G#4
374,Left,1,37,80,65.0,0.489583,Eighth,C#2
375,Right,0,73,80,65.0,0.489583,Eighth,C#5
376,Right,0,64,80,65.25,0.489583,Eighth,E4
378,Right,0,68,80,65.5,0.489583,Eighth,G#4
377,Left,1,44,80,65.5,0.489583,Eighth,G#2
379,Right,0,73,80,65.75,0.489583,Eighth,C#5
381,Left,1,37,80,66.0,0.489583,Eighth,C#2
380,Right,0,76,80,66.0,0.239583,Sixteenth,E5
382,Right,0,76,80,66.25,0.489583,Eighth,E5
384,Right,0,80,80,66.5,0.489583,Eighth,G#5
383,Left,1,44,80,66.5,0.489583,Eighth,G#2
385,Right,0,85,80,66.75,0.489583,Eighth,C#6
386,Right,0,88,110,67.0,0.489583,Eighth,E6_E5
387,Left,1,37,110,67.0,0.989583,Quarter,C#3_C#2
390,Left,1,44,100,67.5,0.489583,Eighth,G#2
391,Right,0,88,100,67.5,0.489583,Eighth,E6_E5
393,Left,1,34,80,68.0,0.489583,Eighth,A#1
394,Right,0,52,80,68.25,0.489583,Eighth,E3
395,Left,1,49,80,68.5,0.489583,Eighth,C#3
396,Right,0,55,80,68.5,0.489583,Eighth,G3
397,Right,0,61,80,68.75,0.489583,Eighth,C#4
398,Left,1,46,80,69.0,0.489583,Eighth,A#2
399,Right,0,64,80,69.0,0.489583,Eighth,E4
400,Right,0,55,80,69.25,0.489583,Eighth,G3
401,Right,0,61,80,69.5,0.489583,Eighth,C#4
402,Left,1,49,80,69.5,0.489583,Eighth,C#3
403,Right,0,64,80,69.75,0.489583,Eighth,E4
405,Left,1,46,80,70.0,0.489583,Eighth,A#2
404,Right,0,67,80,70.0,0.489583,Eighth,G4
406,Right,0,61,80,70.25,0.489583,Eighth,C#4
408,Right,0,64,80,70.5,0.489583,Eighth,E4
407,Left,1,49,80,70.5,0.489583,Eighth,C#3
409,Right,0,67,80,70.75,0.489583,Eighth,G4
410,Right,0,73,80,71.0,0.489583,Eighth,C#5
411,Left,1,46,80,71.0,0.489583,Eighth,A#2
412,Right,0,64,80,71.25,0.489583,Eighth,E4
413,Left,1,49,80,71.5,0.489583,Eighth,C#3
414,Right,0,67,80,71.5,0.489583,Eighth,G4
415,Right,0,73,80,71.75,0.489583,Eighth,C#5
417,Left,1,46,80,72.0,0.489583,Eighth,A#2
416,Right,0,76,80,72.0,0.489583,Eighth,E5
418,Right,0,67,80,72.25,0.489583,Eighth,G4
419,Right,0,73,80,72.5,0.489583,Eighth,C#5
420,Left,1,49,80,72.5,0.489583,Eighth,C#3
421,Right,0,76,80,72.75,0.489583,Eighth,E5
422,Right,0,79,80,73.0,0.489583,Eighth,G5
423,Left,1,46,80,73.0,0.489583,Eighth,A#2
424,Right,0,73,80,73.25,0.489583,Eighth,C#5
426,Left,1,49,80,73.5,0.489583,Eighth,C#3
425,Right,0,76,80,73.5,0.489583,Eighth,E5
427,Right,0,79,80,73.75,0.489583,Eighth,G5
429,Left,1,46,80,74.0,0.489583,Eighth,A#2
428,Right,0,85,80,74.0,0.489583,Eighth,C#6
430,Right,0,76,80,74.25,0.489583,Eighth,E5
432,Left,1,49,80,74.5,0.489583,Eighth,C#3
431,Right,0,79,80,74.5,0.489583,Eighth,G5
433,Right,0,85,80,74.75,0.489583,Eighth,C#6
434,Right,0,76,110,75.0,0.489583,Eighth,E6_E5
436,Left,1,34,110,75.0,0.989583,Quarter,A#2_A#1
440,Left,1,49,100,75.5,0.489583,Eighth,C#3
438,Right,0,76,100,75.5,0.489583,Eighth,E6_E5
441,Left,1,31,90,76.0,0.489583,Eighth,G1
442,Right,0,51,90,76.25,0.489583,Eighth,D#3
444,Left,1,51,91,76.5,0.489583,Eighth,D#3
443,Right,0,58,91,76.5,0.489583,Eighth,A#3
445,Right,0,61,91,76.75,0.489583,Eighth,C#4
447,Left,1,43,92,77.0,0.489583,Eighth,G2
446,Right,0,63,92,77.0,0.489583,Eighth,D#4
448,Right,0,58,93,77.25,0.489583,Eighth,A#3
450,Left,1,51,93,77.5,0.489583,Eighth,D#3
449,Right,0,61,93,77.5,0.489583,Eighth,C#4
451,Right,0,63,94,77.75,0.489583,Eighth,D#4
453,Right,0,70,95,78.0,0.489583,Eighth,A#4
452,Left,1,43,95,78.0,0.489583,Eighth,G2
454,Right,0,61,95,78.25,0.489583,Eighth,C#4
456,Right,0,63,96,78.5,0.489583,Eighth,D#4
455,Left,1,51,96,78.5,0.489583,Eighth,D#3
457,Right,0,70,97,78.75,0.489583,Eighth,A#4
458,Left,1,43,97,79.0,0.489583,Eighth,G2
459,Right,0,73,97,79.0,0.489583,Eighth,C#5
460,Right,0,63,98,79.25,0.489583,Eighth,D#4
462,Left,1,51,99,79.5,0.489583,Eighth,D#3
461,Right,0,70,99,79.5,0.489583,Eighth,A#4
463,Right,0,73,99,79.75,0.489583,Eighth,C#5
465,Right,0,75,100,80.0,0.489583,Eighth,D#5
464,Left,1,43,100,80.0,0.489583,Eighth,G2
466,Right,0,70,100,80.25,0.489583,Eighth,A#4
467,Left,1,51,101,80.5,0.489583,Eighth,D#3
468,Right,0,73,101,80.5,0.489583,Eighth,C#5
469,Right,0,75,102,80.75,0.489583,Eighth,D#5
471,Left,1,43,102,81.0,0.489583,Eighth,G2
470,Right,0,82,102,81.0,0.489583,Eighth,A#5
472,Right,0,73,103,81.25,0.489583,Eighth,C#5
473,Left,1,51,104,81.5,0.489583,Eighth,D#3
474,Right,0,75,104,81.5,0.489583,Eighth,D#5
475,Right,0,82,104,81.75,0.489583,Eighth,A#5
477,Left,1,43,105,82.0,0.489583,Eighth,G2
476,Right,0,85,105,82.0,0.489583,Eighth,C#6
478,Right,0,82,106,82.25,0.489583,Eighth,A#5
480,Left,1,51,106,82.5,0.489583,Eighth,D#3
479,Right,0,75,106,82.5,0.489583,Eighth,D#5
481,Right,0,73,107,82.75,0.489583,Eighth,C#5
482,Right,0,82,108,83.0,0.489583,Eighth,A#5
483,Left,1,43,108,83.0,0.989583,Quarter,G2
484,Right,0,75,108,83.25,0.489583,Eighth,D#5
486,Right,0,73,109,83.5,0.489583,Eighth,C#5
485,Left,1,51,109,83.5,0.489583,Eighth,D#3
487,Right,0,70,109,83.75,0.239583,Sixteenth,A#4
489,Right,0,71,90,84.0,0.989583,Quarter,B4
488,Left,1,44,80,84.0,0.489583,Eighth,G#2
490,Left,1,51,80,84.25,0.489583,Eighth,D#3
491,Left,1,47,80,84.5,0.489583,Eighth,B2
492,Left,1,51,80,84.75,0.489583,Eighth,D#3
494,Left,1,44,80,85.0,0.489583,Eighth,G#2
493,Right,0,75,90,85.0,1.989583,Half,D#5
495,Left,1,51,80,85.25,0.489583,Eighth,D#3
496,Left,1,47,80,85.5,0.489583,Eighth,B2
497,Left,1,51,80,85.75,0.489583,Eighth,D#3
498,Left,1,44,80,86.0,0.489583,Eighth,G#2
499,Left,1,51,80,86.25,0.489583,Eighth,D#3
500,Left,1,47,80,86.5,0.489583,Eighth,B2
501,Left,1,51,80,86.75,0.489583,Eighth,D#3
502,Right,0,71,90,87.0,0.989583,Quarter,B4
503,Left,1,44,80,87.0,0.489583,Eighth,G#2
504,Left,1,51,80,87.25,0.489583,Eighth,D#3
505,Left,1,47,80,87.5,0.489583,Eighth,B2
507,Left,1,51,80,87.75,0.489583,Eighth,D#3
506,Right,0,68,90,87.75,0.239583,Sixteenth,G#4
508,Left,1,46,80,88.0,0.489583,Eighth,A#2
509,Right,0,67,90,88.0,0.239583,Sixteenth,G4
510,Right,0,68,90,88.125,0.239583,Sixteenth,G#4
512,Right,0,70,90,88.25,0.239583,Sixteenth,A#4
511,Left,1,51,80,88.25,0.489583,Eighth,D#3
513,Right,0,68,90,88.375,0.989583,Quarter,G#4
514,Left,1,49,80,88.5,0.489583,Eighth,C#3
515,Left,1,51,80,88.75,0.489583,Eighth,D#3
516,Left,1,46,80,89.0,0.489583,Eighth,A#2
517,Right,0,67,90,89.0,1.489583,DottedQuarter,G4
518,Left,1,51,80,89.25,0.489583,Eighth,D#3
519,Left,1,49,80,89.5,0.489583,Eighth,C#3
520,Left,1,51,80,89.75,0.489583,Eighth,D#3
521,Left,1,46,80,90.0,0.489583,Eighth,A#2
522,Left,1,51,80,90.25,0.489583,Eighth,D#3
523,Right,0,67,90,90.5,0.489583,Eighth,G4
524,Left,1,49,80,90.5,0.489583,Eighth,C#3
525,Left,1,51,80,90.75,0.489583,Eighth,D#3
527,Right,0,75,90,91.0,0.989583,Quarter,D#5
526,Left,1,46,80,91.0,0.489583,Eighth,A#2
528,Left,1,51,80,91.25,0.489583,Eighth,D#3
529,Left,1,49,80,91.5,0.489583,Eighth,C#3
530,Left,1,51,80,91.75,0.489583,Eighth,D#3
531,Right,0,67,90,91.75,0.489583,Eighth,G4
532,Left,1,47,80,92.0,0.489583,Eighth,B2
533,Right,0,70,90,92.0,0.989583,Quarter,A#4
534,Left,1,51,80,92.25,0.489583,Eighth,D#3
535,Left,1,47,80,92.5,0.489583,Eighth,B2
536,Left,1,51,80,92.75,0.489583,Eighth,D#3
537,Left,1,47,80,93.0,0.489583,Eighth,B2
538,Right,0,68,90,93.0,1.489583,DottedQuarter,G#4
539,Left,1,51,80,93.25,0.489583,Eighth,D#3
540,Left,1,47,80,93.5,0.489583,Eighth,B2
541,Left,1,51,80,93.75,0.489583,Eighth,D#3
542,Left,1,47,80,94.0,0.489583,Eighth,B2
543,Left,1,51,80,94.25,0.489583,Eighth,D#3
545,Right,0,68,90,94.5,0.489583,Eighth,G#4
544,Left,1,47,80,94.5,0.489583,Eighth,B2
546,Left,1,51,80,94.75,0.489583,Eighth,D#3
547,Right,0,75,90,95.0,0.989583,Quarter,D#5
548,Left,1,47,80,95.0,0.489583,Eighth,B2
549,Left,1,51,80,95.25,0.489583,Eighth,D#3
550,Left,1,47,80,95.5,0.489583,Eighth,B2
552,Left,1,51,80,95.75,0.489583,Eighth,D#3
551,Right,0,68,90,95.75,0.489583,Eighth,G#4
553,Right,0,71,90,96.0,0.989583,Quarter,B4
554,Left,1,43,80,96.0,0.489583,Eighth,G2
555,Left,1,51,80,96.25,0.489583,Eighth,D#3
556,Left,1,43,80,96.5,0.489583,Eighth,G2
557,Left,1,51,80,96.75,0.489583,Eighth,D#3
558,Left,1,43,80,97.0,0.489583,Eighth,G2
559,Right,0,70,90,97.0,1.489583,DottedQuarter,A#4
560,Left,1,51,80,97.25,0.489583,Eighth,D#3
561,Left,1,43,80,97.5,0.489583,Eighth,G2
562,Left,1,51,80,97.75,0.489583,Eighth,D#3
563,Left,1,43,80,98.0,0.489583,Eighth,G2
564,Left,1,51,80,98.25,0.489583,Eighth,D#3
566,Right,0,70,90,98.5,0.489583,Eighth,A#4
565,Left,1,43,80,98.5,0.489583,Eighth,G2
567,Left,1,51,80,98.75,0.489583,Eighth,D#3
568,Left,1,43,80,99.0,0.489583,Eighth,G2
569,Right,0,75,90,99.0,0.989583,Quarter,D#5
570,Left,1,51,80,99.25,0.489583,Eighth,D#3
571,Left,1,43,80,99.5,0.489583,Eighth,G2
573,Left,1,51,80,99.75,0.489583,Eighth,D#3
572,Right,0,70,90,99.75,0.489583,Eighth,A#4
575,Left,1,44,80,100.0,0.489583,Eighth,G#2
574,Right,0,71,90,100.0,0.489583,Eighth,B4
576,Left,1,51,80,100.25,0.489583,Eighth,D#3
577,Left,1,47,80,100.5,0.489583,Eighth,B2
578,Right,0,87,90,100.5,0.989583,Quarter,D#6_D#5
580,Left,1,51,81,100.75,0.489583,Eighth,D#3
581,Left,1,44,81,101.0,0.489583,Eighth,G#2
582,Left,1,51,82,101.25,0.489583,Eighth,D#3
584,Right,0,75,92,101.5,0.989583,Quarter,D#6_D#5
583,Left,1,47,82,101.5,0.489583,Eighth,B2
586,Left,1,51,82,101.75,0.489583,Eighth,D#3
587,Left,1,44,83,102.0,0.489583,Eighth,G#2
588,Left,1,51,83,102.25,0.489583,Eighth,D#3
591,Left,1,47,84,102.5,0.489583,Eighth,B2
589,Right,0,75,94,102.5,0.489583,Eighth,D#6_D#5
592,Left,1,51,84,102.75,0.489583,Eighth,D#3
595,Left,1,44,84,103.0,0.489583,Eighth,G#2
593,Right,0,71,94,103.0,0.489583,Eighth,B5_B4
596,Left,1,51,85,103.25,0.489583,Eighth,D#3
599,Left,1,47,85,103.5,0.489583,Eighth,B2
597,Right,0,80,95,103.5,0.489583,Eighth,G#5_G#4
600,Left,1,51,86,103.75,0.489583,Eighth,D#3
603,Left,1,46,86,104.0,0.489583,Eighth,A#2
601,Right,0,80,96,104.0,0.489583,Eighth,G#5_G#4
604,Left,1,51,86,104.25,0.489583,Eighth,D#3
605,Right,0,67,97,104.5,0.989583,Quarter,G5_G4
607,Left,1,49,87,104.5,0.489583,Eighth,C#3
608,Left,1,51,87,104.75,0.489583,Eighth,D#3
609,Left,1,46,88,105.0,0.489583,Eighth,A#2
610,Left,1,51,88,105.25,0.489583,Eighth,D#3
613,Left,1,49,88,105.5,0.489583,Eighth,C#3
611,Right,0,67,98,105.5,0.989583,Quarter,G5_G4
614,Left,1,51,89,105.75,0.489583,Eighth,D#3
615,Left,1,46,89,106.0,0.489583,Eighth,A#2
616,Left,1,51,90,106.25,0.489583,Eighth,D#3
619,Left,1,49,90,106.5,0.489583,Eighth,C#3
617,Right,0,79,100,106.5,0.489583,Eighth,G5_G4
620,Left,1,51,90,106.75,0.489583,Eighth,D#3
621,Left,1,46,91,107.0,0.489583,Eighth,A#2
622,Right,0,75,101,107.0,0.489583,Eighth,D#6_D#5
624,Left,1,51,91,107.25,0.489583,Eighth,D#3
625,Left,1,49,92,107.5,0.489583,Eighth,C#3
626,Right,0,67,102,107.5,0.489583,Eighth,G5_G4
628,Left,1,51,92,107.75,0.489583,Eighth,D#3
630,Right,0,70,102,108.0,0.489583,Eighth,A#5_A#4
629,Left,1,47,92,108.0,0.489583,Eighth,B2
632,Left,1,51,93,108.25,0.489583,Eighth,D#3
633,Right,0,80,103,108.5,0.989583,Quarter,G#5_G#4
635,Left,1,47,93,108.5,0.489583,Eighth,B2
636,Left,1,51,94,108.75,0.489583,Eighth,D#3
637,Left,1,47,94,109.0,0.489583,Eighth,B2
638,Left,1,51,94,109.25,0.489583,Eighth,D#3
640,Right,0,80,105,109.5,0.989583,Quarter,G#5_G#4
639,Left,1,47,95,109.5,0.489583,Eighth,B2
642,Left,1,51,95,109.75,0.489583,Eighth,D#3
643,Left,1,47,96,110.0,0.489583,Eighth,B2
644,Left,1,51,96,110.25,0.489583,Eighth,D#3
646,Right,0,80,106,110.5,0.489583,Eighth,G#5_G#4
645,Left,1,47,96,110.5,0.489583,Eighth,B2
648,Left,1,51,97,110.75,0.489583,Eighth,D#3
649,Left,1,47,97,111.0,0.489583,Eighth,B2
650,Right,0,75,107,111.0,0.489583,Eighth,D#6_D#5
652,Left,1,51,98,111.25,0.489583,Eighth,D#3
653,Right,0,80,108,111.5,0.489583,Eighth,G#5_G#4
654,Left,1,47,98,111.5,0.489583,Eighth,B2
656,Left,1,51,98,111.75,0.489583,Eighth,D#3
659,Left,1,43,99,112.0,0.489583,Eighth,G2
657,Right,0,71,109,112.0,0.489583,Eighth,B5_B4
660,Left,1,51,99,112.25,0.489583,Eighth,D#3
662,Right,0,82,110,112.5,0.989583,Quarter,A#5_A#4
661,Left,1,43,100,112.5,0.489583,Eighth,G2
664,Left,1,51,100,112.75,0.489583,Eighth,D#3
665,Left,1,43,100,113.0,0.489583,Eighth,G2
666,Left,1,51,101,113.25,0.489583,Eighth,D#3
667,Left,1,43,101,113.5,0.489583,Eighth,G2
668,Right,0,70,111,113.5,0.989583,Quarter,A#5_A#4
670,Left,1,51,102,113.75,0.489583,Eighth,D#3
671,Left,1,43,102,114.0,0.489583,Eighth,G2
672,Left,1,51,102,114.25,0.489583,Eighth,D#3
674,Right,0,70,113,114.5,0.489583,Eighth,A#5_A#4
673,Left,1,43,103,114.5,0.489583,Eighth,G2
676,Left,1,51,103,114.75,0.489583,Eighth,D#3
677,Right,0,87,114,115.0,0.489583,Eighth,D#6_D#5
678,Left,1,43,104,115.0,0.489583,Eighth,G2
680,Left,1,51,104,115.25,0.489583,Eighth,D#3
683,Left,1,43,104,115.5,0.489583,Eighth,G2
681,Right,0,70,114,115.5,0.489583,Eighth,A#5_A#4
684,Left,1,51,80,115.75,0.489583,Eighth,D#3
685,Left,1,42,100,116.0,0.489583,Eighth,F#2
686,Right,0,72,110,116.0,1.989583,Half,C6_C5
688,Left,1,51,100,116.25,0.489583,Eighth,D#3
689,Left,1,44,100,116.5,0.489583,Eighth,G#2
690,Left,1,51,100,116.75,0.489583,Eighth,D#3
691,Left,1,42,100,117.0,0.489583,Eighth,F#2
692,Left,1,51,100,117.25,0.489583,Eighth,D#3
693,Left,1,44,100,117.5,0.489583,Eighth,G#2
694,Left,1,51,100,117.75,0.489583,Eighth,D#3
695,Right,0,73,110,118.0,1.989583,Half,C#6_C#5
697,Left,1,40,100,118.0,0.489583,Eighth,E2
698,Left,1,49,100,118.25,0.489583,Eighth,C#3
699,Left,1,44,100,118.5,0.489583,Eighth,G#2
700,Left,1,49,100,118.75,0.489583,Eighth,C#3
701,Left,1,40,100,119.0,0.489583,Eighth,E2
702,Left,1,49,100,119.25,0.489583,Eighth,C#3
703,Left,1,44,100,119.5,0.489583,Eighth,G#2
704,Left,1,49,100,119.75,0.489583,Eighth,C#3
706,Left,1,40,100,120.0,0.489583,Eighth,E2
705,Right,0,70,110,120.0,0.989583,Quarter,B5_A#4
708,Right,0,82,110,120.166667,0.322917,Triplet,A#5
709,Left,1,49,100,120.25,0.489583,Eighth,C#3
710,Right,0,83,110,120.333333,0.322917,Triplet,B5
712,Right,0,82,110,120.5,0.322917,Triplet,A#5
711,Left,1,42,100,120.5,0.489583,Eighth,F#2
713,Right,0,80,110,120.666667,0.322917,Triplet,G#5
714,Left,1,49,100,120.75,0.489583,Eighth,C#3
715,Right,0,82,110,120.833333,0.322917,Triplet,A#5
716,Left,1,39,100,121.0,0.489583,Eighth,D#2
717,Right,0,83,121,121.0,2.989583,DottedHalf,B5_B4
719,Left,1,47,100,121.25,0.489583,Eighth,B2
720,Left,1,42,100,121.5,0.489583,Eighth,F#2
721,Left,1,47,100,121.75,0.489583,Eighth,B2
722,Left,1,39,100,122.0,0.489583,Eighth,D#2
723,Left,1,47,100,122.25,0.489583,Eighth,B2
724,Left,1,42,100,122.5,0.489583,Eighth,F#2
725,Left,1,47,100,122.75,0.489583,Eighth,B2
726,Left,1,39,100,123.0,0.489583,Eighth,D#2
727,Left,1,47,100,123.25,0.489583,Eighth,B2
728,Left,1,42,100,123.5,0.489583,Eighth,F#2
729,Left,1,47,100,123.75,0.489583,Eighth,B2
730,Left,1,38,100,124.0,0.489583,Eighth,D2
731,Right,0,68,110,124.0,1.989583,Half,G#5_G#4
733,Left,1,47,100,124.25,0.489583,Eighth,B2
734,Left,1,40,100,124.5,0.489583,Eighth,E2
735,Left,1,47,100,124.75,0.489583,Eighth,B2
736,Left,1,38,100,125.0,0.489583,Eighth,D2
737,Left,1,47,100,125.25,0.489583,Eighth,B2
738,Left,1,40,100,125.5,0.489583,Eighth,E2
739,Left,1,47,100,125.75,0.489583,Eighth,B2
740,Right,0,69,110,126.0,1.989583,Half,A5_A4
741,Left,1,37,100,126.0,0.489583,Eighth,C#2
743,Left,1,45,100,126.25,0.489583,Eighth,A2
744,Left,1,40,100,126.5,0.489583,Eighth,E2
745,Left,1,45,100,126.75,0.489583,Eighth,A2
746,Left,1,37,100,127.0,0.489583,Eighth,C#2
747,Left,1,45,100,127.25,0.489583,Eighth,A2
748,Left,1,40,100,127.5,0.489583,Eighth,E2
749,Left,1,45,100,127.75,0.489583,Eighth,A2
750,Left,1,37,100,128.0,0.489583,Eighth,C#2
751,Right,0,67,110,128.0,0.989583,Quarter,G4_G#5
753,Right,0,79,110,128.166667,0.322917,Triplet,G5
754,Left,1,46,100,128.25,0.489583,Eighth,A#2
755,Right,0,80,110,128.333333,0.322917,Triplet,G#5
756,Right,0,79,110,128.5,0.322917,Triplet,G5
757,Left,1,39,100,128.5,0.489583,Eighth,D#2
758,Right,0,77,110,128.666667,0.322917,Triplet,F5
759,Left,1,46,100,128.75,0.489583,Eighth,A#2
760,Right,0,79,110,128.833333,0.322917,Triplet,G5
761,Right,0,68,120,129.0,2.989583,DottedHalf,G#5_G#4
763,Left,1,35,100,129.0,0.489583,Eighth,B1
764,Left,1,44,100,129.25,0.489583,Eighth,G#2
765,Left,1,39,100,129.5,0.489583,Eighth,D#2
766,Left,1,44,100,129.75,0.489583,Eighth,G#2
767,Left,1,35,100,130.0,0.489583,Eighth,B1
768,Left,1,44,100,130.25,0.489583,Eighth,G#2
769,Left,1,39,100,130.5,0.489583,Eighth,D#2
770,Left,1,44,100,130.75,0.489583,Eighth,G#2
771,Left,1,35,100,131.0,0.489583,Eighth,B1
772,Left,1,44,100,131.25,0.489583,Eighth,G#2
773,Left,1,39,100,131.5,0.489583,Eighth,D#2
774,Left,1,44,100,131.75,0.239583,Sixteenth,G#2
777,Right,0,76,120,132.0,2.989583,DottedHalf,E5_C#5_A5_A4
775,Left,1,40,120,132.0,2.989583,DottedHalf,E2_C#3_C#2_A2
783,Right,0,76,80,134.25,0.489583,Eighth,E5
784,Right,0,78,80,134.5,0.489583,Eighth,F#5
785,Right,0,80,80,134.75,0.489583,Eighth,G#5
786,Right,0,81,80,135.0,0.489583,Eighth,A5
787,Right,0,83,80,135.25,0.489583,Eighth,B5
788,Right,0,85,80,135.5,0.489583,Eighth,C#6
789,Right,0,83,80,135.75,0.489583,Eighth,B5
790,Left,1,69,80,136.0,0.989583,Quarter,E4_C#4_A4
791,Right,0,81,80,136.0,0.489583,Eighth,A5
794,Right,0,76,80,136.25,0.489583,Eighth,E5
795,Right,0,78,80,136.5,0.489583,Eighth,F#5
796,Right,0,80,80,136.75,0.489583,Eighth,G#5
797,Right,0,81,80,137.0,0.489583,Eighth,A5
798,Right,0,83,80,137.25,0.489583,Eighth,B5
799,Right,0,85,80,137.5,0.489583,Eighth,C#6
800,Right,0,83,80,137.75,0.489583,Eighth,B5
802,Right,0,81,80,138.0,0.489583,Eighth,A5
801,Left,1,64,80,138.0,0.989583,Quarter,E4_C#4_A4
805,Right,0,76,80,138.25,0.489583,Eighth,E5
806,Right,0,78,80,138.5,0.489583,Eighth,F#5
807,Right,0,80,80,138.75,0.489583,Eighth,G#5
808,Right,0,81,80,139.0,0.489583,Eighth,A5
809,Right,0,83,80,139.25,0.489583,Eighth,B5
810,Right,0,85,80,139.5,0.489583,Eighth,C#6
811,Right,0,83,80,139.75,0.489583,Eighth,B5
814,Right,0,81,80,140.0,0.489583,Eighth,A5
812,Left,1,64,80,140.0,0.989583,Quarter,E4_C#4_A4
816,Right,0,76,81,140.25,0.489583,Eighth,E5
817,Right,0,78,82,140.5,0.489583,Eighth,F#5
818,Right,0,80,83,140.75,0.489583,Eighth,G#5
819,Right,0,81,84,141.0,0.489583,Eighth,A5
820,Left,1,61,84,141.0,0.989583,Quarter,E4_C#4_A4
823,Right,0,83,86,141.25,0.489583,Eighth,B5
824,Right,0,85,87,141.5,0.489583,Eighth,C#6
825,Right,0,86,88,141.75,0.489583,Eighth,D6
826,Right,0,88,89,142.0,0.489583,Eighth,E6
827,Left,1,69,89,142.0,0.989583,Quarter,E4_C#4_A4
830,Right,0,87,91,142.25,0.489583,Eighth,D#6
831,Right,0,88,92,142.5,0.489583,Eighth,E6
832,Right,0,87,93,142.75,0.489583,Eighth,D#6
833,Left,1,61,94,143.0,0.989583,Quarter,E4_C#4_A4
836,Right,0,88,94,143.0,0.489583,Eighth,E6
837,Right,0,85,96,143.25,0.489583,Eighth,C#6
838,Right,0,83,97,143.5,0.489583,Eighth,B5
839,Right,0,81,98,143.75,0.489583,Eighth,A5
841,Left,1,63,80,144.0,0.489583,Eighth,D#4
840,Right,0,80,80,144.0,1.989583,Half,G#5
842,Left,1,71,80,144.25,0.489583,Eighth,B4
843,Left,1,68,80,144.5,0.489583,Eighth,G#4
844,Left,1,71,80,144.75,0.489583,Eighth,B4
845,Left,1,63,80,145.0,0.489583,Eighth,D#4
846,Left,1,71,80,145.25,0.489583,Eighth,B4
847,Left,1,68,80,145.5,0.489583,Eighth,G#4
848,Left,1,71,80,145.75,0.489583,Eighth,B4
849,Right,0,83,80,146.0,0.322917,Triplet,B5
850,Left,1,63,80,146.0,0.489583,Eighth,D#4
851,Right,0,82,80,146.166667,0.322917,Triplet,A#5
852,Left,1,73,80,146.25,0.489583,Eighth,C#5
853,Right,0,83,80,146.333333,0.322917,Triplet,B5
854,Right,0,82,80,146.5,0.322917,Triplet,A#5
855,Left,1,67,80,146.5,0.489583,Eighth,G4
856,Right,0,83,80,146.666667,0.322917,Triplet,B5
857,Left,1,73,80,146.75,0.489583,Eighth,C#5
858,Right,0,82,80,146.833333,0.322917,Triplet,A#5
859,Right,0,83,80,147.0,0.322917,Triplet,B5
860,Left,1,63,80,147.0,0.489583,Eighth,D#4
861,Right,0,82,80,147.166667,0.322917,Triplet,A#5
862,Left,1,73,80,147.25,0.489583,Eighth,C#5
863,Right,0,83,80,147.333333,0.322917,Triplet,B5
865,Right,0,82,80,147.5,0.322917,Triplet,A#5
864,Left,1,67,80,147.5,0.489583,Eighth,G4
866,Right,0,80,80,147.666667,0.322917,Triplet,G#5
867,Left,1,73,80,147.75,0.239583,Sixteenth,C#5
868,Right,0,82,80,147.833333,0.322917,Triplet,A#5
870,Left,1,71,80,148.0,0.989583,Quarter,G#4_E4_B4
869,Right,0,80,80,148.0,0.989583,Quarter,G#5
877,Left,1,45,120,149.0,1.989583,Half,E2_C#3_C#2_A2
873,Right,0,69,120,149.0,1.989583,Half,E4_C#4_A4_A3
881,Right,0,64,80,150.25,0.489583,Eighth,E4
882,Right,0,66,80,150.5,0.489583,Eighth,F#4
883,Right,0,68,80,150.75,0.489583,Eighth,G#4
884,Right,0,69,80,151.0,0.489583,Eighth,A4
885,Right,0,71,80,151.25,0.489583,Eighth,B4
886,Right,0,73,80,151.5,0.489583,Eighth,C#5
887,Right,0,71,80,151.75,0.489583,Eighth,B4
888,Right,0,69,80,152.0,0.489583,Eighth,A4
889,Right,0,64,80,152.25,0.489583,Eighth,E4
890,Right,0,66,80,152.5,0.489583,Eighth,F#4
891,Right,0,68,80,152.75,0.489583,Eighth,G#4
892,Left,1,49,80,153.0,0.989583,Quarter,E3_C#3_A3
894,Right,0,69,80,153.0,0.489583,Eighth,A4
896,Right,0,71,80,153.25,0.489583,Eighth,B4
897,Right,0,73,80,153.5,0.489583,Eighth,C#5
898,Right,0,71,80,153.75,0.489583,Eighth,B4
899,Right,0,69,80,154.0,0.489583,Eighth,A4
900,Right,0,64,80,154.25,0.489583,Eighth,E4
901,Right,0,66,80,154.5,0.489583,Eighth,F#4
902,Right,0,68,80,154.75,0.489583,Eighth,G#4
903,Left,1,52,80,155.0,0.989583,Quarter,E3_C#3_A3
905,Right,0,69,80,155.0,0.489583,Eighth,A4
907,Right,0,71,80,155.25,0.489583,Eighth,B4
908,Right,0,73,80,155.5,0.489583,Eighth,C#5
909,Right,0,71,80,155.75,0.489583,Eighth,B4
910,Right,0,69,80,156.0,0.489583,Eighth,A4
911,Right,0,64,80,156.25,0.489583,Eighth,E4
913,Left,1,57,81,156.5,0.739583,DottedEighth,E3_C#3_A3
912,Right,0,66,81,156.5,0.489583,Eighth,F#4
916,Right,0,68,82,156.75,0.489583,Eighth,G#4
917,Right,0,69,83,157.0,0.489583,Eighth,A4
918,Right,0,71,84,157.25,0.489583,Eighth,B4
919,Right,0,73,85,157.5,0.489583,Eighth,C#5
920,Left,1,57,85,157.5,0.739583,DottedEighth,E3_C#3_A3
923,Right,0,71,86,157.75,0.489583,Eighth,B4
924,Right,0,69,87,158.0,0.489583,Eighth,A4
925,Right,0,64,88,158.25,0.489583,Eighth,E4
927,Left,1,52,89,158.5,0.739583,DottedEighth,E3_C#3_A3
926,Right,0,66,89,158.5,0.489583,Eighth,F#4
930,Right,0,68,90,158.75,0.489583,Eighth,G#4
931,Right,0,69,91,159.0,0.489583,Eighth,A4
932,Right,0,71,92,159.25,0.489583,Eighth,B4
935,Right,0,73,93,159.5,0.489583,Eighth,C#5
933,Left,1,52,93,159.5,0.489583,Eighth,E3_C#3_A3
937,Right,0,71,94,159.75,0.489583,Eighth,B4
941,Right,0,69,94,160.0,0.489583,Eighth,A4
938,Left,1,49,94,160.0,1.489583,DottedQuarter,E3_C#3_A3
942,Right,0,64,95,160.25,0.489583,Eighth,E4
943,Right,0,66,96,160.5,0.489583,Eighth,F#4
944,Right,0,68,97,160.75,0.489583,Eighth,G#4
945,Right,0,69,98,161.0,0.489583,Eighth,A4
946,Right,0,71,99,161.25,0.489583,Eighth,B4
947,Right,0,73,100,161.5,0.489583,Eighth,C#5
948,Right,0,75,101,161.75,0.489583,Eighth,D#5
949,Right,0,76,102,162.0,0.489583,Eighth,E5
950,Right,0,78,103,162.25,0.489583,Eighth,F#5
951,Right,0,80,104,162.5,0.489583,Eighth,G#5
952,Right,0,81,105,162.75,0.489583,Eighth,A5
953,Right,0,83,106,163.0,0.489583,Eighth,B5
954,Right,0,85,107,163.25,0.489583,Eighth,C#6
955,Right,0,86,108,163.5,0.489583,Eighth,D6
956,Right,0,87,109,163.75,0.489583,Eighth,D#6
958,Right,0,88,110,164.0,1.989583,Half,E6_E5
957,Left,1,49,110,164.0,0.489583,Eighth,C#3
960,Left,1,57,110,164.25,0.489583,Eighth,A3
961,Left,1,52,110,164.5,0.489583,Eighth,E3
962,Left,1,57,110,164.75,0.489583,Eighth,A3
963,Left,1,49,110,165.0,0.489583,Eighth,C#3
964,Left,1,57,110,165.25,0.489583,Eighth,A3
965,Left,1,52,110,165.5,0.489583,Eighth,E3
966,Left,1,57,110,165.75,0.489583,Eighth,A3
967,Right,0,68,110,166.0,1.989583,Half,G#5_G#4
968,Left,1,50,110,166.0,0.489583,Eighth,D3
970,Left,1,59,110,166.25,0.489583,Eighth,B3
971,Left,1,53,110,166.5,0.489583,Eighth,F3
972,Left,1,59,110,166.75,0.489583,Eighth,B3
973,Left,1,50,110,167.0,0.489583,Eighth,D3
974,Left,1,59,110,167.25,0.489583,Eighth,B3
975,Left,1,53,110,167.5,0.489583,Eighth,F3
976,Left,1,59,110,167.75,0.489583,Eighth,B3
977,Right,0,83,110,168.0,1.989583,Half,B5_B4
978,Left,1,51,110,168.0,0.489583,Eighth,D#3
980,Left,1,59,110,168.25,0.489583,Eighth,B3
981,Left,1,56,110,168.5,0.489583,Eighth,G#3
982,Left,1,59,110,168.75,0.489583,Eighth,B3
983,Left,1,51,110,169.0,0.489583,Eighth,D#3
984,Left,1,59,110,169.25,0.489583,Eighth,B3
985,Left,1,56,110,169.5,0.489583,Eighth,G#3
986,Left,1,59,110,169.75,0.489583,Eighth,B3
987,Left,1,39,110,170.0,0.489583,Eighth,D#2
988,Right,0,55,110,170.0,1.989583,Half,G4_G3_C#4
991,Left,1,51,110,170.25,0.489583,Eighth,D#3
992,Left,1,50,110,170.5,0.489583,Eighth,D3
993,Left,1,51,110,170.75,0.489583,Eighth,D#3
994,Left,1,50,110,171.0,0.489583,Eighth,D3
995,Left,1,51,110,171.25,0.489583,Eighth,D#3
996,Left,1,50,110,171.5,0.489583,Eighth,D3
997,Left,1,51,110,171.75,0.489583,Eighth,D#3
998,Left,1,44,110,172.0,0.989583,Quarter,G#2
999,Right,0,56,110,172.0,0.989583,Quarter,G#4_G#3_B3
1003,Right,0,63,80,172.5,0.489583,Eighth,D#4_B4
1002,Left,1,56,80,172.5,0.489583,Eighth,G#3
1005,Left,1,56,80,173.0,0.489583,Eighth,G#3
1006,Right,0,71,80,173.0,0.489583,Eighth,D#4_B4
1008,Left,1,56,80,173.5,0.489583,Eighth,G#3
1009,Right,0,71,80,173.5,0.489583,Eighth,D#4_B4
1013,Left,1,56,80,174.0,0.489583,Eighth,G#3
1011,Right,0,63,80,174.0,0.489583,Eighth,D#4_B4
1014,Left,1,56,80,174.5,0.489583,Eighth,G#3
1015,Right,0,71,80,174.5,0.489583,Eighth,D#4_B4
1018,Right,0,70,80,175.0,0.489583,Eighth,D#4_A#4
1017,Left,1,58,80,175.0,0.489583,Eighth,A#3
1020,Right,0,68,80,175.5,0.489583,Eighth,G#4_D#4
1022,Left,1,59,80,175.5,0.489583,Eighth,B3
1025,Right,0,67,80,176.0,0.489583,Eighth,G4_D#4
1023,Left,1,51,80,176.0,0.489583,Eighth,D#3_C#4
1027,Left,1,63,80,176.5,0.489583,Eighth,D#4_C#4
1028,Right,0,75,80,176.5,0.489583,Eighth,G4_D#5
1031,Right,0,67,80,177.0,0.489583,Eighth,G4_D#5
1032,Left,1,61,80,177.0,0.489583,Eighth,D#4_C#4
1037,Left,1,61,80,177.5,0.489583,Eighth,D#4_C#4
1035,Right,0,67,80,177.5,0.489583,Eighth,G4_D#5
1039,Right,0,75,80,178.0,0.489583,Eighth,G4_D#5
1040,Left,1,61,80,178.0,0.489583,Eighth,D#4_C#4
1045,Right,0,75,80,178.5,0.489583,Eighth,G4_D#5
1043,Left,1,63,80,178.5,0.489583,Eighth,D#4_C#4
1047,Left,1,63,80,179.0,0.489583,Eighth,D#4_C#4_B3
1050,Right,0,75,80,179.0,0.489583,Eighth,G#4_D#5
1052,Left,1,63,80,179.5,0.489583,Eighth,D#4_A#3
1053,Right,0,75,80,179.5,0.489583,Eighth,D#5_A#4
1056,Left,1,56,80,180.0,0.489583,Eighth,G#3_G#2
1058,Right,0,71,80,180.0,0.489583,Eighth,D#5_B4
1061,Right,0,63,80,180.5,0.489583,Eighth,D#4_B4
1060,Left,1,56,80,180.5,0.489583,Eighth,G#3
1064,Right,0,63,80,181.0,0.489583,Eighth,D#4_B4
1063,Left,1,56,80,181.0,0.489583,Eighth,G#3
1066,Left,1,56,80,181.5,0.489583,Eighth,G#3
1067,Right,0,63,80,181.5,0.489583,Eighth,D#4_B4
1071,Left,1,56,80,182.0,0.489583,Eighth,G#3
1069,Right,0,63,80,182.0,0.489583,Eighth,D#4_B4
1074,Left,1,56,80,182.5,0.489583,Eighth,G#3
1072,Right,0,63,80,182.5,0.489583,Eighth,D#4_B4
1075,Right,0,63,80,183.0,0.489583,Eighth,D#4_A#4
1077,Left,1,58,80,183.0,0.489583,Eighth,A#3
1078,Right,0,68,80,183.5,0.489583,Eighth,G#4_D#4
1079,Left,1,59,80,183.5,0.489583,Eighth,B3
1083,Right,0,67,80,184.0,0.489583,Eighth,G4_D#4
1081,Left,1,61,80,184.0,0.489583,Eighth,D#3_C#4
1087,Right,0,75,80,184.5,0.489583,Eighth,G4_D#5
1085,Left,1,61,80,184.5,0.489583,Eighth,D#4_C#4
1091,Right,0,75,80,185.0,0.489583,Eighth,G4_D#5
1089,Left,1,61,80,185.0,0.489583,Eighth,D#4_C#4
1093,Right,0,67,80,185.5,0.489583,Eighth,G4_D#5
1094,Left,1,63,80,185.5,0.489583,Eighth,D#4_C#4
1098,Right,0,75,80,186.0,0.489583,Eighth,G4_D#5
1097,Left,1,61,80,186.0,0.489583,Eighth,D#4_C#4
1101,Right,0,67,80,186.5,0.489583,Eighth,G4_D#5
1103,Left,1,63,80,186.5,0.489583,Eighth,D#4_C#4
1107,Left,1,61,80,187.0,0.489583,Eighth,D#4_C#4_B3
1105,Right,0,68,80,187.0,0.489583,Eighth,G#4_D#5
1110,Right,0,70,80,187.5,0.489583,Eighth,D#5_A#4
1112,Left,1,58,80,187.5,0.489583,Eighth,D#4_A#3
1114,Right,0,71,80,188.0,0.489583,Eighth,D#5_B4
1116,Left,1,44,80,188.0,0.489583,Eighth,G#2
1119,Left,1,59,80,188.5,0.489583,Eighth,G#3_B3
1117,Right,0,75,80,188.5,0.489583,Eighth,D#5_B4
1122,Right,0,71,80,189.0,0.489583,Eighth,D#5_B4
1121,Left,1,56,80,189.0,0.489583,Eighth,G#3_B3
1127,Left,1,59,80,189.5,0.489583,Eighth,D#4_B3
1125,Right,0,71,80,189.5,0.489583,Eighth,G#4_B4
1129,Left,1,49,80,190.0,0.489583,Eighth,C#3
1131,Left,1,61,80,190.5,0.489583,Eighth,G#3_C#4
1130,Right,0,76,80,190.5,0.489583,Eighth,E5_C#5
1135,Right,0,73,80,191.0,0.489583,Eighth,E5_C#5
1134,Left,1,61,80,191.0,0.489583,Eighth,G#3_C#4
1139,Left,1,61,80,191.5,0.489583,Eighth,E4_C#4
1138,Right,0,73,80,191.5,0.489583,Eighth,G#4_C#5
1142,Left,1,51,80,192.0,0.489583,Eighth,D#3
1144,Left,1,56,80,192.5,0.489583,Eighth,G#3_B3
1143,Right,0,71,80,192.5,0.489583,Eighth,D#5_B4
1147,Left,1,59,80,193.0,0.489583,Eighth,G#3_B3
1148,Right,0,75,80,193.0,0.489583,Eighth,D#5_B4
1152,Left,1,63,80,193.5,0.489583,Eighth,D#4_B3
1151,Right,0,68,80,193.5,0.489583,Eighth,G#4_B4
1155,Left,1,51,80,194.0,0.489583,Eighth,D#3
1157,Right,0,75,80,194.5,0.489583,Eighth,D#5_A#4
1156,Left,1,58,80,194.5,0.489583,Eighth,G3_A#3
1162,Left,1,55,80,195.0,0.489583,Eighth,G3_A#3
1160,Right,0,70,80,195.0,0.489583,Eighth,D#5_A#4
1166,Left,1,58,80,195.5,0.489583,Eighth,D#4_A#3
1164,Right,0,70,80,195.5,0.489583,Eighth,G4_A#4
1168,Left,1,44,80,196.0,0.489583,Eighth,G#2_G#1
1169,Right,0,71,80,196.0,0.489583,Eighth,G#4_B4
1173,Right,0,75,80,196.5,0.489583,Eighth,D#5_B5_B4
1172,Left,1,51,80,196.5,0.489583,Eighth,G#2_D#3
1178,Left,1,51,82,197.0,0.489583,Eighth,G#2_D#3
1177,Right,0,71,82,197.0,0.489583,Eighth,D#5_B5_B4
1183,Right,0,83,85,197.5,0.489583,Eighth,D#5_B5_B4
1182,Left,1,51,85,197.5,0.489583,Eighth,G#2_D#3
1189,Right,0,83,88,198.0,0.489583,Eighth,D#5_B5_B4
1187,Left,1,51,88,198.0,0.489583,Eighth,G#2_D#3
1192,Left,1,51,91,198.5,0.489583,Eighth,G#2_D#3
1194,Right,0,83,91,198.5,0.489583,Eighth,D#5_B5_B4
1197,Left,1,51,94,199.0,0.489583,Eighth,D#3_A#2
1199,Right,0,82,94,199.0,0.489583,Eighth,C#5_A#5_A#4
1205,Left,1,47,97,199.5,0.489583,Eighth,D#3_B2
1202,Right,0,80,97,199.5,0.489583,Eighth,G#5_G#4_B4
1210,Right,0,70,99,200.0,0.489583,Eighth,G5_G4_A#4
1207,Left,1,51,99,200.0,0.489583,Eighth,D#3_D#2_C#3
1213,Right,0,79,110,200.5,0.489583,Eighth,G5_E6_E5
1216,Left,1,61,110,200.5,0.489583,Eighth,D#3_C#4
1218,Right,0,79,110,201.0,0.489583,Eighth,G5_E6_E5
1220,Left,1,61,110,201.0,0.489583,Eighth,D#3_C#4
1225,Right,0,88,110,201.5,0.489583,Eighth,G5_E6_E5
1223,Left,1,61,110,201.5,0.489583,Eighth,D#3_C#4
1230,Left,1,61,110,202.0,0.489583,Eighth,D#3_C#4
1228,Right,0,76,110,202.0,0.489583,Eighth,G5_E6_E5
1233,Right,0,79,110,202.5,0.489583,Eighth,G5_E6_E5
1234,Left,1,61,110,202.5,0.489583,Eighth,D#3_C#4
1239,Right,0,75,110,203.0,0.489583,Eighth,G5_D#6_D#5
1238,Left,1,59,110,203.0,0.489583,Eighth,D#3_B3
1245,Right,0,85,110,203.5,0.489583,Eighth,G5_C#6_C#5
1243,Left,1,58,110,203.5,0.489583,Eighth,D#3_A#3
1250,Right,0,80,110,204.0,0.489583,Eighth,G#5_B5_B4
1248,Left,1,44,110,204.0,0.489583,Eighth,G#2_G#1
1253,Left,1,44,80,204.5,0.489583,Eighth,G#2_D#3
1255,Right,0,83,80,204.5,0.489583,Eighth,D#5_B5_B4
1258,Right,0,83,82,205.0,0.489583,Eighth,D#5_B5_B4
1260,Left,1,44,82,205.0,0.489583,Eighth,G#2_D#3
1263,Right,0,71,85,205.5,0.489583,Eighth,D#5_B5_B4
1266,Left,1,44,85,205.5,0.489583,Eighth,G#2_D#3
1270,Right,0,71,88,206.0,0.489583,Eighth,D#5_B5_B4
1268,Left,1,51,88,206.0,0.489583,Eighth,G#2_D#3
1276,Left,1,51,91,206.5,0.489583,Eighth,G#2_D#3
1273,Right,0,83,91,206.5,0.489583,Eighth,D#5_B5_B4
1279,Left,1,46,94,207.0,0.489583,Eighth,D#3_A#2
1278,Right,0,73,94,207.0,0.489583,Eighth,C#5_A#5_A#4
1283,Right,0,80,97,207.5,0.489583,Eighth,G#5_G#4_B4
1286,Left,1,51,97,207.5,0.489583,Eighth,D#3_B2
1288,Right,0,79,99,208.0,0.489583,Eighth,G5_G4_A#4
1291,Left,1,39,99,208.0,0.489583,Eighth,D#3_D#2_C#3
1294,Left,1,51,110,208.5,0.489583,Eighth,D#3_C#4
1296,Right,0,76,110,208.5,0.489583,Eighth,G5_E6_E5
1300,Left,1,51,110,209.0,0.489583,Eighth,D#3_C#4
1299,Right,0,79,110,209.0,0.489583,Eighth,G5_E6_E5
1305,Left,1,51,110,209.5,0.489583,Eighth,D#3_C#4
1304,Right,0,76,110,209.5,0.489583,Eighth,G5_E6_E5
1309,Left,1,61,110,210.0,0.489583,Eighth,D#3_C#4
1310,Right,0,88,110,210.0,0.489583,Eighth,G5_E6_E5
1314,Right,0,76,110,210.5,0.489583,Eighth,G5_E6_E5
1317,Left,1,61,110,210.5,0.489583,Eighth,D#3_C#4
1322,Left,1,51,110,211.0,0.489583,Eighth,D#3_B3
1319,Right,0,75,110,211.0,0.489583,Eighth,G5_D#6_D#5
1324,Left,1,51,110,211.5,0.489583,Eighth,D#3_A#3
1326,Right,0,73,110,211.5,0.489583,Eighth,G5_C#6_C#5
1329,Right,0,71,110,212.0,0.489583,Eighth,G#5_B5_B4
1330,Left,1,44,110,212.0,0.489583,Eighth,G#3_G#2
1335,Left,1,63,80,212.5,0.489583,Eighth,D#4_B3
1334,Right,0,83,80,212.5,0.489583,Eighth,G#5_B5
1340,Left,1,63,80,213.0,0.489583,Eighth,D#4_B3
1338,Right,0,80,80,213.0,0.489583,Eighth,G#5_B5
1342,Left,1,56,80,213.5,0.489583,Eighth,G#3_B3
1344,Right,0,87,80,213.5,0.489583,Eighth,D#6_B5
1346,Left,1,49,80,214.0,0.489583,Eighth,C#3
1349,Left,1,64,80,214.5,0.489583,Eighth,E4_C#4
1347,Right,0,85,80,214.5,0.489583,Eighth,G#5_C#6
1352,Right,0,85,80,215.0,0.489583,Eighth,G#5_C#6
1351,Left,1,61,80,215.0,0.489583,Eighth,E4_C#4
1357,Left,1,61,80,215.5,0.489583,Eighth,G#3_C#4
1355,Right,0,88,80,215.5,0.489583,Eighth,E6_C#6
1359,Left,1,51,80,216.0,0.489583,Eighth,D#3
1361,Left,1,63,80,216.5,0.489583,Eighth,D#4_B3
1360,Right,0,80,80,216.5,0.489583,Eighth,G#5_B5
1364,Left,1,63,80,217.0,0.489583,Eighth,D#4_B3
1366,Right,0,80,80,217.0,0.489583,Eighth,G#5_B5
1370,Left,1,56,80,217.5,0.489583,Eighth,G#3_B3
1368,Right,0,87,80,217.5,0.489583,Eighth,D#6_B5
1372,Left,1,49,80,218.0,0.489583,Eighth,C#3
1373,Left,1,63,80,218.5,0.489583,Eighth,D#4_A#3
1375,Right,0,82,80,218.5,0.489583,Eighth,G5_A#5
1377,Left,1,58,80,219.0,0.489583,Eighth,D#4_A#3
1378,Right,0,82,80,219.0,0.489583,Eighth,G5_A#5
1382,Left,1,58,80,219.5,0.489583,Eighth,G3_A#3
1381,Right,0,87,80,219.5,0.489583,Eighth,D#6_A#5
1385,Left,1,47,80,220.0,0.489583,Eighth,B2
1386,Right,0,75,82,220.5,0.489583,Eighth,D#5_B5
1388,Left,1,63,82,220.5,0.489583,Eighth,G#4_D#4
1390,Left,1,63,85,221.0,0.489583,Eighth,G#4_D#4
1392,Right,0,83,85,221.0,0.489583,Eighth,D#5_B5
1394,Left,1,59,88,221.5,0.489583,Eighth,D#4_B3
1395,Right,0,87,88,221.5,0.489583,Eighth,G#5_D#6
1398,Left,1,49,91,222.0,0.489583,Eighth,C#3
1401,Left,1,69,94,222.5,0.489583,Eighth,E4_A4
1399,Right,0,81,94,222.5,0.489583,Eighth,C#5_A5
1405,Left,1,64,97,223.0,0.489583,Eighth,E4_A4
1403,Right,0,81,97,223.0,0.489583,Eighth,C#5_A5
1407,Left,1,61,99,223.5,0.489583,Eighth,E4_C#4
1408,Right,0,85,99,223.5,0.489583,Eighth,E5_C#6
1411,Left,1,51,100,224.0,0.489583,Eighth,D#3
1413,Left,1,63,100,224.5,0.489583,Eighth,G#4_D#4
1412,Right,0,71,100,224.5,0.489583,Eighth,G#5_B4
1416,Right,0,80,100,225.0,0.489583,Eighth,G#5_B4
1418,Left,1,63,100,225.0,0.489583,Eighth,G#4_D#4
1420,Left,1,59,100,225.5,0.489583,Eighth,D#4_B3
1421,Right,0,83,100,225.5,0.489583,Eighth,D#5_B5
1424,Left,1,51,90,226.0,0.489583,Eighth,D#3
1425,Left,1,61,87,226.5,0.489583,Eighth,G4_C#4
1427,Right,0,79,87,226.5,0.489583,Eighth,G5_A#4
1429,Left,1,61,84,227.0,0.489583,Eighth,G4_C#4
1431,Right,0,79,84,227.0,0.489583,Eighth,G5_A#4
1433,Right,0,82,81,227.5,0.489583,Eighth,C#5_A#5
1435,Left,1,58,81,227.5,0.489583,Eighth,C#4_A#3
1437,Right,0,71,80,228.0,0.989583,Quarter,G#5_B4
1439,Left,1,44,70,228.0,0.489583,Eighth,G#2
1440,Left,1,56,70,228.25,0.489583,Eighth,G#3
1441,Left,1,51,70,228.5,0.489583,Eighth,D#3
1442,Left,1,56,70,228.75,0.489583,Eighth,G#3
1443,Left,1,44,70,229.0,0.489583,Eighth,G#2
1444,Left,1,56,70,229.25,0.489583,Eighth,G#3
1445,Left,1,51,70,229.5,0.489583,Eighth,D#3
1446,Left,1,56,70,229.75,0.489583,Eighth,G#3
1447,Left,1,44,70,230.0,0.489583,Eighth,G#2
1448,Left,1,56,70,230.25,0.489583,Eighth,G#3
1449,Left,1,51,70,230.5,0.489583,Eighth,D#3
1450,Left,1,56,70,230.75,0.489583,Eighth,G#3
1451,Right,0,71,80,231.0,0.989583,Quarter,B4
1452,Left,1,44,70,231.0,0.489583,Eighth,G#2
1453,Left,1,56,70,231.25,0.489583,Eighth,G#3
1454,Left,1,51,70,231.5,0.489583,Eighth,D#3
1456,Right,0,68,80,231.75,0.489583,Eighth,G#4
1455,Left,1,56,70,231.75,0.489583,Eighth,G#3
1458,Right,0,67,80,232.0,0.989583,Quarter,G4
1457,Left,1,44,70,232.0,0.489583,Eighth,G#2
1459,Left,1,58,70,232.25,0.489583,Eighth,A#3
1460,Left,1,51,70,232.5,0.489583,Eighth,D#3
1461,Left,1,58,70,232.75,0.489583,Eighth,A#3
1465,Left,1,44,70,233.0,0.489583,Eighth,G#2
1462,Right,0,75,80,233.0,0.989583,Quarter,G4_D#5_C#4
1466,Left,1,58,70,233.25,0.489583,Eighth,A#3
1467,Left,1,51,70,233.5,0.489583,Eighth,D#3
1468,Left,1,58,70,233.75,0.489583,Eighth,A#3
1471,Left,1,44,70,234.0,0.489583,Eighth,G#2
1469,Right,0,67,80,234.0,0.989583,Quarter,G4_D#5_C#4
1473,Left,1,58,70,234.25,0.489583,Eighth,A#3
1474,Left,1,51,70,234.5,0.489583,Eighth,D#3
1475,Left,1,58,70,234.75,0.489583,Eighth,A#3
1476,Left,1,44,70,235.0,0.489583,Eighth,G#2
1477,Right,0,67,80,235.0,0.989583,Quarter,G4_D#5_C#4
1480,Left,1,58,70,235.25,0.489583,Eighth,A#3
1481,Left,1,51,70,235.5,0.489583,Eighth,D#3
1482,Left,1,58,70,235.75,0.489583,Eighth,A#3
1484,Right,0,59,80,236.0,0.989583,Quarter,B3
1483,Left,1,44,70,236.0,0.489583,Eighth,G#2
1485,Right,0,68,80,236.083333,0.90625,Quarter,G#4
1486,Right,0,75,80,236.166667,2.822917,DottedHalf,D#5
1487,Left,1,56,70,236.25,0.489583,Eighth,G#3
1488,Left,1,51,70,236.5,0.489583,Eighth,D#3
1489,Left,1,56,70,236.75,0.489583,Eighth,G#3
1490,Left,1,44,70,237.0,0.489583,Eighth,G#2
1491,Left,1,56,70,237.25,0.489583,Eighth,G#3
1492,Left,1,51,70,237.5,0.489583,Eighth,D#3
1493,Left,1,56,70,237.75,0.489583,Eighth,G#3
1494,Left,1,44,70,238.0,0.489583,Eighth,G#2
1495,Left,1,56,70,238.25,0.489583,Eighth,G#3
1496,Left,1,51,70,238.5,0.489583,Eighth,D#3
1497,Left,1,56,70,238.75,0.489583,Eighth,G#3
1498,Left,1,44,70,239.0,0.489583,Eighth,G#2
1499,Right,0,83,80,239.0,0.989583,Quarter,B5
1500,Left,1,56,70,239.25,0.489583,Eighth,G#3
1501,Left,1,51,70,239.5,0.489583,Eighth,D#3
1503,Left,1,56,70,239.75,0.489583,Eighth,G#3
1502,Right,0,80,80,239.75,0.489583,Eighth,G#5
1504,Right,0,79,80,240.0,0.989583,Quarter,G5
1505,Left,1,44,70,240.0,0.489583,Eighth,G#2
1506,Left,1,58,70,240.25,0.489583,Eighth,A#3
1507,Left,1,51,70,240.5,0.489583,Eighth,D#3
1508,Left,1,58,70,240.75,0.489583,Eighth,A#3
1509,Right,0,79,80,241.0,0.989583,Quarter,G5_D#6_C#5
1512,Left,1,44,70,241.0,0.489583,Eighth,G#2
1513,Left,1,58,70,241.25,0.489583,Eighth,A#3
1514,Left,1,51,70,241.5,0.489583,Eighth,D#3
1515,Left,1,58,70,241.75,0.489583,Eighth,A#3
1517,Right,0,79,80,242.0,0.989583,Quarter,G5_D#6_C#5
1516,Left,1,44,70,242.0,0.489583,Eighth,G#2
1520,Left,1,58,70,242.25,0.489583,Eighth,A#3
1521,Left,1,51,70,242.5,0.489583,Eighth,D#3
1522,Left,1,58,70,242.75,0.489583,Eighth,A#3
1523,Left,1,44,70,243.0,0.489583,Eighth,G#2
1524,Right,0,73,80,243.0,0.989583,Quarter,G5_D#6_C#5
1527,Left,1,58,70,243.25,0.489583,Eighth,A#3
1528,Left,1,51,70,243.5,0.489583,Eighth,D#3
1529,Left,1,58,70,243.75,0.489583,Eighth,A#3
1531,Right,0,71,80,244.0,0.989583,Quarter,B4
1530,Left,1,44,70,244.0,0.489583,Eighth,G#2
1532,Right,0,80,80,244.083333,0.90625,Quarter,G#5
1533,Right,0,87,80,244.166667,1.822917,Half,D#6
1534,Left,1,56,70,244.25,0.489583,Eighth,G#3
1535,Left,1,51,70,244.5,0.489583,Eighth,D#3
1536,Left,1,56,70,244.75,0.489583,Eighth,G#3
1537,Left,1,44,70,245.0,0.489583,Eighth,G#2
1538,Left,1,56,70,245.25,0.489583,Eighth,G#3
1539,Left,1,51,70,245.5,0.489583,Eighth,D#3
1540,Left,1,56,70,245.75,0.489583,Eighth,G#3
1542,Right,0,73,80,246.0,0.989583,Quarter,C#5
1541,Left,1,44,70,246.0,0.489583,Eighth,G#2
1543,Right,0,79,80,246.083333,0.90625,Quarter,G5
1544,Right,0,87,80,246.166667,1.822917,Half,D#6
1545,Left,1,58,70,246.25,0.489583,Eighth,A#3
1546,Left,1,51,70,246.5,0.489583,Eighth,D#3
1547,Left,1,58,70,246.75,0.489583,Eighth,A#3
1548,Left,1,44,70,247.0,0.489583,Eighth,G#2
1549,Left,1,58,70,247.25,0.489583,Eighth,A#3
1550,Left,1,51,70,247.5,0.489583,Eighth,D#3
1551,Left,1,58,70,247.75,0.489583,Eighth,A#3
1552,Left,1,44,70,248.0,0.489583,Eighth,G#2
1553,Right,0,71,80,248.0,0.989583,Quarter,B4
1554,Right,0,80,80,248.083333,0.90625,Quarter,G#5
1555,Right,0,87,80,248.166667,1.822917,Half,D#6
1556,Left,1,56,70,248.25,0.489583,Eighth,G#3
1557,Left,1,51,70,248.5,0.489583,Eighth,D#3
1558,Left,1,56,70,248.75,0.489583,Eighth,G#3
1559,Left,1,44,70,249.0,0.489583,Eighth,G#2
1560,Left,1,56,70,249.25,0.489583,Eighth,G#3
1561,Left,1,51,70,249.5,0.489583,Eighth,D#3
1562,Left,1,56,70,249.75,0.489583,Eighth,G#3
1564,Right,0,73,80,250.0,0.989583,Quarter,C#5
1563,Left,1,44,70,250.0,0.489583,Eighth,G#2
1565,Right,0,79,80,250.083333,0.90625,Quarter,G5
1566,Right,0,87,80,250.166667,1.822917,Half,D#6
1567,Left,1,58,70,250.25,0.489583,Eighth,A#3
1568,Left,1,51,70,250.5,0.489583,Eighth,D#3
1569,Left,1,58,70,250.75,0.489583,Eighth,A#3
1570,Left,1,44,70,251.0,0.489583,Eighth,G#2
1571,Left,1,58,70,251.25,0.489583,Eighth,A#3
1572,Left,1,51,70,251.5,0.489583,Eighth,D#3
1573,Left,1,58,70,251.75,0.489583,Eighth,A#3
1574,Right,0,59,80,252.0,0.489583,Eighth,B3
1575,Left,1,44,80,252.0,0.489583,Eighth,G#2
1577,Right,0,68,80,252.25,0.489583,Eighth,G#4
1576,Left,1,56,80,252.25,0.489583,Eighth,G#3
1578,Right,0,63,81,252.5,0.489583,Eighth,D#4
1579,Left,1,51,81,252.5,0.489583,Eighth,D#3
1581,Right,0,68,82,252.75,0.489583,Eighth,G#4
1580,Left,1,56,82,252.75,0.489583,Eighth,G#3
1583,Right,0,59,83,253.0,0.489583,Eighth,B3
1582,Left,1,44,83,253.0,0.489583,Eighth,G#2
1585,Right,0,68,84,253.25,0.489583,Eighth,G#4
1584,Left,1,56,84,253.25,0.489583,Eighth,G#3
1587,Right,0,63,85,253.5,0.489583,Eighth,D#4
1586,Left,1,51,85,253.5,0.489583,Eighth,D#3
1588,Right,0,68,86,253.75,0.489583,Eighth,G#4
1589,Left,1,56,86,253.75,0.489583,Eighth,G#3
1591,Left,1,44,87,254.0,0.489583,Eighth,G#2
1590,Right,0,59,87,254.0,0.489583,Eighth,B3
1592,Right,0,68,88,254.25,0.489583,Eighth,G#4
1593,Left,1,56,88,254.25,0.489583,Eighth,G#3
1594,Right,0,63,89,254.5,0.489583,Eighth,D#4
1595,Left,1,51,89,254.5,0.489583,Eighth,D#3
1597,Right,0,68,90,254.75,0.489583,Eighth,G#4
1596,Left,1,56,90,254.75,0.489583,Eighth,G#3
1599,Right,0,59,91,255.0,0.489583,Eighth,B3
1598,Left,1,44,91,255.0,0.489583,Eighth,G#2
1601,Left,1,56,92,255.25,0.489583,Eighth,G#3
1600,Right,0,68,92,255.25,0.489583,Eighth,G#4
1603,Left,1,51,93,255.5,0.489583,Eighth,D#3
1602,Right,0,63,93,255.5,0.489583,Eighth,D#4
1605,Left,1,56,94,255.75,0.489583,Eighth,G#3
1604,Right,0,68,94,255.75,0.489583,Eighth,G#4
1607,Left,1,44,94,256.0,0.489583,Eighth,G#2
1606,Right,0,60,94,256.0,0.489583,Eighth,C4
1609,Right,0,66,95,256.25,0.489583,Eighth,F#4
1608,Left,1,51,95,256.25,0.489583,Eighth,D#3
1610,Right,0,63,96,256.5,0.489583,Eighth,D#4
1611,Left,1,47,96,256.5,0.489583,Eighth,B2
1612,Right,0,66,97,256.75,0.489583,Eighth,F#4
1613,Left,1,51,97,256.75,0.489583,Eighth,D#3
1615,Left,1,44,98,257.0,0.489583,Eighth,G#2
1614,Right,0,60,98,257.0,0.489583,Eighth,C4
1617,Right,0,66,99,257.25,0.489583,Eighth,F#4
1616,Left,1,51,99,257.25,0.489583,Eighth,D#3
1619,Right,0,63,100,257.5,0.489583,Eighth,D#4
1618,Left,1,47,100,257.5,0.489583,Eighth,B2
1621,Right,0,66,101,257.75,0.489583,Eighth,F#4
1620,Left,1,51,101,257.75,0.489583,Eighth,D#3
1623,Right,0,60,102,258.0,0.489583,Eighth,C4
1622,Left,1,44,102,258.0,0.489583,Eighth,G#2
1625,Right,0,66,103,258.25,0.489583,Eighth,F#4
1624,Left,1,51,103,258.25,0.489583,Eighth,D#3
1626,Right,0,63,104,258.5,0.489583,Eighth,D#4
1627,Left,1,47,104,258.5,0.489583,Eighth,B2
1629,Right,0,66,105,258.75,0.489583,Eighth,F#4
1628,Left,1,51,105,258.75,0.489583,Eighth,D#3
1630,Left,1,44,106,259.0,0.489583,Eighth,G#2
1631,Right,0,60,106,259.0,0.489583,Eighth,C4
1633,Left,1,51,107,259.25,0.489583,Eighth,D#3
1632,Right,0,66,107,259.25,0.489583,Eighth,F#4
1634,Left,1,47,108,259.5,0.489583,Eighth,B2
1635,Right,0,63,108,259.5,0.489583,Eighth,D#4
1637,Right,0,66,109,259.75,0.489583,Eighth,F#4
1636,Left,1,51,109,259.75,0.489583,Eighth,D#3
1642,Left,1,37,80,260.0,0.489583,Eighth,C#2
1638,Right,0,61,100,260.0,0.989583,Quarter,G#3_E4_E3_C#4
1643,Right,0,44,80,260.25,0.489583,Eighth,G#2
1645,Left,1,44,80,260.5,0.489583,Eighth,G#2
1644,Right,0,49,80,260.5,0.489583,Eighth,C#3
1646,Right,0,52,80,260.75,0.489583,Eighth,E3
1648,Left,1,37,80,261.0,0.489583,Eighth,C#2
1647,Right,0,56,80,261.0,0.489583,Eighth,G#3
1649,Right,0,49,80,261.25,0.489583,Eighth,C#3
1650,Left,1,44,80,261.5,0.489583,Eighth,G#2
1651,Right,0,52,80,261.5,0.489583,Eighth,E3
1652,Right,0,56,80,261.75,0.489583,Eighth,G#3
1653,Right,0,61,80,262.0,0.489583,Eighth,C#4
1654,Left,1,37,80,262.0,0.489583,Eighth,C#2
1655,Right,0,52,80,262.25,0.489583,Eighth,E3
1656,Left,1,44,80,262.5,0.489583,Eighth,G#2
1657,Right,0,56,80,262.5,0.489583,Eighth,G#3
1658,Right,0,61,80,262.75,0.489583,Eighth,C#4
1659,Left,1,37,80,263.0,0.489583,Eighth,C#2
1660,Right,0,64,80,263.0,0.489583,Eighth,E4
1661,Right,0,56,80,263.25,0.489583,Eighth,G#3
1662,Left,1,44,80,263.5,0.489583,Eighth,G#2
1663,Right,0,61,80,263.5,0.489583,Eighth,C#4
1664,Right,0,64,80,263.75,0.489583,Eighth,E4
1665,Left,1,37,80,264.0,0.489583,Eighth,C#2
1666,Right,0,68,80,264.0,0.489583,Eighth,G#4
1667,Right,0,61,80,264.25,0.489583,Eighth,C#4
1669,Left,1,44,80,264.5,0.489583,Eighth,G#2
1668,Right,0,64,80,264.5,0.489583,Eighth,E4
1670,Right,0,68,80,264.75,0.489583,Eighth,G#4
1671,Left,1,37,80,265.0,0.489583,Eighth,C#2
1672,Right,0,73,80,265.0,0.489583,Eighth,C#5
1673,Right,0,64,80,265.25,0.489583,Eighth,E4
1675,Left,1,44,80,265.5,0.489583,Eighth,G#2
1674,Right,0,68,80,265.5,0.489583,Eighth,G#4
1676,Right,0,73,80,265.75,0.489583,Eighth,C#5
1678,Left,1,37,80,266.0,0.489583,Eighth,C#2
1677,Right,0,76,80,266.0,0.489583,Eighth,E5
1679,Right,0,68,80,266.25,0.489583,Eighth,G#4
1680,Left,1,44,80,266.5,0.489583,Eighth,G#2
1681,Right,0,73,80,266.5,0.489583,Eighth,C#5
1682,Right,0,76,80,266.75,0.239583,Sixteenth,E5
1684,Left,1,49,100,267.0,0.989583,Quarter,C#3_C#2
1683,Right,0,76,110,267.0,0.489583,Eighth,G#5_G#4_E5_C#5
1692,Left,1,44,100,267.5,0.489583,Eighth,G#2
1689,Right,0,80,110,267.5,0.489583,Eighth,G#5_G#4_E5_C#5
1694,Left,1,36,80,268.0,0.489583,Eighth,C2
1695,Right,0,44,80,268.25,0.489583,Eighth,G#2
1697,Right,0,48,80,268.5,0.489583,Eighth,C3
1696,Left,1,44,80,268.5,0.489583,Eighth,G#2
1698,Right,0,51,80,268.75,0.489583,Eighth,D#3
1699,Right,0,56,80,269.0,0.489583,Eighth,G#3
1700,Left,1,36,80,269.0,0.489583,Eighth,C2
1701,Right,0,48,80,269.25,0.489583,Eighth,C3
1702,Right,0,51,80,269.5,0.489583,Eighth,D#3
1703,Left,1,44,80,269.5,0.489583,Eighth,G#2
1704,Right,0,56,80,269.75,0.489583,Eighth,G#3
1706,Right,0,60,80,270.0,0.489583,Eighth,C4
1705,Left,1,36,80,270.0,0.489583,Eighth,C2
1707,Right,0,51,80,270.25,0.489583,Eighth,D#3
1708,Left,1,44,80,270.5,0.489583,Eighth,G#2
1709,Right,0,56,80,270.5,0.489583,Eighth,G#3
1710,Right,0,60,80,270.75,0.489583,Eighth,C4
1711,Right,0,63,80,271.0,0.489583,Eighth,D#4
1712,Left,1,36,80,271.0,0.489583,Eighth,C2
1713,Right,0,56,80,271.25,0.489583,Eighth,G#3
1714,Right,0,60,80,271.5,0.489583,Eighth,C4
1715,Left,1,44,80,271.5,0.489583,Eighth,G#2
1716,Right,0,63,80,271.75,0.489583,Eighth,D#4
1717,Right,0,68,80,272.0,0.489583,Eighth,G#4
1718,Left,1,36,80,272.0,0.489583,Eighth,C2
1719,Right,0,60,80,272.25,0.489583,Eighth,C4
1720,Right,0,63,80,272.5,0.489583,Eighth,D#4
1721,Left,1,44,80,272.5,0.489583,Eighth,G#2
1722,Right,0,68,80,272.75,0.489583,Eighth,G#4
1723,Right,0,72,80,273.0,0.489583,Eighth,C5
1724,Left,1,36,80,273.0,0.489583,Eighth,C2
1725,Right,0,63,80,273.25,0.489583,Eighth,D#4
1727,Right,0,68,80,273.5,0.489583,Eighth,G#4
1726,Left,1,44,80,273.5,0.489583,Eighth,G#2
1728,Right,0,72,80,273.75,0.489583,Eighth,C5
1729,Right,0,75,80,274.0,0.489583,Eighth,D#5
1730,Left,1,36,80,274.0,0.489583,Eighth,C2
1731,Right,0,68,80,274.25,0.489583,Eighth,G#4
1733,Right,0,72,80,274.5,0.489583,Eighth,C5
1732,Left,1,44,80,274.5,0.489583,Eighth,G#2
1734,Right,0,75,80,274.75,0.239583,Sixteenth,D#5
1735,Right,0,80,110,275.0,0.489583,Eighth,G#5_G#4_D#5_C5
1739,Left,1,48,110,275.0,0.989583,Quarter,C3_C2
1742,Right,0,80,110,275.5,0.489583,Eighth,G#5_G#4_D#5_C5
1741,Left,1,44,110,275.5,0.489583,Eighth,G#2
1746,Left,1,35,80,276.0,0.489583,Eighth,B1
1747,Right,0,49,80,276.25,0.489583,Eighth,C#3
1748,Left,1,44,80,276.5,0.489583,Eighth,G#2
1749,Right,0,53,80,276.5,0.489583,Eighth,F3
1750,Right,0,56,80,276.75,0.489583,Eighth,G#3
1752,Left,1,35,80,277.0,0.489583,Eighth,B1
1751,Right,0,61,80,277.0,0.489583,Eighth,C#4
1753,Right,0,53,80,277.25,0.489583,Eighth,F3
1755,Left,1,44,80,277.5,0.489583,Eighth,G#2
1754,Right,0,56,80,277.5,0.489583,Eighth,G#3
1756,Right,0,61,80,277.75,0.489583,Eighth,C#4
1758,Left,1,35,80,278.0,0.489583,Eighth,B1
1757,Right,0,65,80,278.0,0.489583,Eighth,F4
1759,Right,0,56,80,278.25,0.489583,Eighth,G#3
1761,Left,1,44,80,278.5,0.489583,Eighth,G#2
1760,Right,0,61,80,278.5,0.489583,Eighth,C#4
1762,Right,0,65,80,278.75,0.489583,Eighth,F4
1764,Right,0,68,80,279.0,0.489583,Eighth,G#4
1763,Left,1,35,80,279.0,0.489583,Eighth,B1
1765,Right,0,61,80,279.25,0.489583,Eighth,C#4
1767,Right,0,65,80,279.5,0.489583,Eighth,F4
1766,Left,1,44,80,279.5,0.489583,Eighth,G#2
1768,Right,0,68,80,279.75,0.489583,Eighth,G#4
1770,Left,1,35,80,280.0,0.489583,Eighth,B1
1769,Right,0,73,80,280.0,0.489583,Eighth,C#5
1771,Right,0,65,80,280.25,0.489583,Eighth,F4
1773,Right,0,68,80,280.5,0.489583,Eighth,G#4
1772,Left,1,44,80,280.5,0.489583,Eighth,G#2
1774,Right,0,73,80,280.75,0.489583,Eighth,C#5
1775,Left,1,35,80,281.0,0.489583,Eighth,B1
1776,Right,0,77,80,281.0,0.489583,Eighth,F5
1777,Right,0,68,80,281.25,0.489583,Eighth,G#4
1778,Right,0,73,80,281.5,0.489583,Eighth,C#5
1779,Left,1,44,80,281.5,0.489583,Eighth,G#2
1780,Right,0,77,80,281.75,0.489583,Eighth,F5
1782,Left,1,35,80,282.0,0.489583,Eighth,B1
1781,Right,0,80,80,282.0,0.489583,Eighth,G#5
1783,Right,0,73,80,282.25,0.489583,Eighth,C#5
1785,Left,1,44,80,282.5,0.489583,Eighth,G#2
1784,Right,0,77,80,282.5,0.489583,Eighth,F5
1786,Right,0,80,80,282.75,0.239583,Sixteenth,G#5
1787,Right,0,77,110,283.0,0.489583,Eighth,G#5_F5_C#6_C#5
1788,Left,1,35,110,283.0,0.989583,Quarter,B2_B1
1793,Left,1,44,110,283.5,0.489583,Eighth,G#2
1794,Right,0,85,110,283.5,0.489583,Eighth,G#5_F5_C#6_C#5
1798,Left,1,33,90,284.0,0.489583,Eighth,A1
1799,Right,0,49,90,284.25,0.489583,Eighth,C#3
1801,Right,0,54,90,284.5,0.489583,Eighth,F#3
1800,Left,1,44,90,284.5,0.489583,Eighth,G#2
1802,Right,0,57,90,284.75,0.489583,Eighth,A3
1804,Left,1,33,90,285.0,0.489583,Eighth,A1
1803,Right,0,61,90,285.0,0.239583,Sixteenth,C#4
1805,Right,0,61,90,285.25,0.489583,Eighth,C#4
1806,Left,1,44,90,285.5,0.489583,Eighth,G#2
1807,Right,0,66,90,285.5,0.489583,Eighth,F#4
1808,Right,0,69,90,285.75,0.489583,Eighth,A4
1809,Left,1,33,90,286.0,0.489583,Eighth,A1
1810,Right,0,73,90,286.0,0.239583,Sixteenth,C#5
1811,Right,0,73,90,286.25,0.489583,Eighth,C#5
1812,Right,0,78,90,286.5,0.489583,Eighth,F#5
1813,Left,1,44,90,286.5,0.489583,Eighth,G#2
1814,Right,0,81,90,286.75,0.489583,Eighth,A5
1816,Left,1,33,110,287.0,0.989583,Quarter,A1
1815,Right,0,85,110,287.0,0.489583,Eighth,F#5_C#6_C#5
1822,Left,1,44,110,287.5,0.489583,Eighth,G#2
1819,Right,0,78,110,287.5,0.489583,Eighth,F#5_C#6_C#5
1823,Left,1,33,90,288.0,0.489583,Eighth,A1
1824,Right,0,49,90,288.25,0.489583,Eighth,C#3
1825,Right,0,52,90,288.5,0.489583,Eighth,E3
1826,Left,1,45,90,288.5,0.489583,Eighth,A2
1827,Right,0,55,90,288.75,0.489583,Eighth,G3
1829,Right,0,61,90,289.0,0.239583,Sixteenth,C#4
1828,Left,1,33,90,289.0,0.489583,Eighth,A1
1830,Right,0,61,90,289.25,0.489583,Eighth,C#4
1832,Right,0,64,90,289.5,0.489583,Eighth,E4
1831,Left,1,45,90,289.5,0.489583,Eighth,A2
1833,Right,0,67,90,289.75,0.489583,Eighth,G4
1835,Right,0,73,90,290.0,0.239583,Sixteenth,C#5
1834,Left,1,33,90,290.0,0.489583,Eighth,A1
1836,Right,0,73,90,290.25,0.489583,Eighth,C#5
1838,Right,0,76,90,290.5,0.489583,Eighth,E5
1837,Left,1,45,90,290.5,0.489583,Eighth,A2
1839,Right,0,79,90,290.75,0.239583,Sixteenth,G5
1840,Right,0,85,110,291.0,0.489583,Eighth,G5_C#6_C#5
1842,Left,1,33,110,291.0,0.989583,Quarter,A1
1844,Left,1,45,110,291.5,0.489583,Eighth,A2
1845,Right,0,73,110,291.5,0.489583,Eighth,G5_C#6_C#5
1848,Left,1,44,110,292.0,0.989583,Quarter,G#2_G#1
1849,Right,0,72,110,292.0,0.489583,Eighth,G#5_C6_C5
1853,Left,1,56,110,292.5,7.489583,Unknown,G#3_C4
1855,Right,0,68,110,292.5,0.489583,Eighth,G#4
1856,Right,0,80,110,292.75,0.489583,Eighth,G#5
1857,Right,0,68,110,293.0,0.489583,Eighth,G#4
1858,Left,1,60,110,293.0,0.489583,Eighth,C4
1859,Right,0,80,110,293.25,0.489583,Eighth,G#5
1861,Left,1,61,110,293.5,0.489583,Eighth,C#4
1860,Right,0,70,110,293.5,0.489583,Eighth,A#4
1862,Right,0,80,110,293.75,0.489583,Eighth,G#5
1864,Left,1,63,110,294.0,0.489583,Eighth,D#4
1863,Right,0,72,110,294.0,0.489583,Eighth,C5
1865,Right,0,80,110,294.25,0.489583,Eighth,G#5
1866,Right,0,73,110,294.5,0.489583,Eighth,C#5
1867,Left,1,64,110,294.5,0.489583,Eighth,E4
1868,Right,0,80,110,294.75,0.489583,Eighth,G#5
1870,Right,0,75,110,295.0,0.489583,Eighth,D#5
1869,Left,1,66,110,295.0,0.489583,Eighth,F#4
1871,Right,0,80,110,295.25,0.489583,Eighth,G#5
1873,Right,0,72,110,295.5,0.489583,Eighth,C5
1872,Left,1,64,110,295.5,0.489583,Eighth,E4
1874,Right,0,80,110,295.75,0.489583,Eighth,G#5
1876,Left,1,66,110,296.0,0.489583,Eighth,F#4
1875,Right,0,75,110,296.0,0.489583,Eighth,D#5
1877,Right,0,80,110,296.25,0.489583,Eighth,G#5
1878,Right,0,73,110,296.5,0.489583,Eighth,C#5
1879,Left,1,64,110,296.5,0.489583,Eighth,E4
1880,Right,0,80,110,296.75,0.489583,Eighth,G#5
1881,Right,0,78,110,297.0,0.489583,Eighth,F#5
1882,Left,1,69,110,297.0,0.489583,Eighth,A4
1883,Right,0,80,110,297.25,0.489583,Eighth,G#5
1884,Right,0,76,110,297.5,0.489583,Eighth,E5
1885,Left,1,68,110,297.5,0.489583,Eighth,G#4
1886,Right,0,80,110,297.75,0.489583,Eighth,G#5
1888,Left,1,66,110,298.0,0.489583,Eighth,F#4
1887,Right,0,75,110,298.0,0.489583,Eighth,D#5
1889,Right,0,80,110,298.25,0.489583,Eighth,G#5
1890,Left,1,64,110,298.5,0.489583,Eighth,E4
1891,Right,0,73,110,298.5,0.489583,Eighth,C#5
1892,Right,0,80,110,298.75,0.489583,Eighth,G#5
1894,Right,0,72,110,299.0,0.489583,Eighth,C5
1893,Left,1,63,110,299.0,0.489583,Eighth,D#4
1895,Right,0,80,110,299.25,0.489583,Eighth,G#5
1897,Left,1,61,110,299.5,0.489583,Eighth,C#4
1896,Right,0,69,110,299.5,0.489583,Eighth,A4
1898,Right,0,79,110,299.75,0.239583,Sixteenth,G5
1899,Right,0,68,110,300.0,0.489583,Eighth,G#4
1900,Left,1,60,110,300.0,7.989583,Eighth,G#3_C4
1902,Right,0,80,110,300.25,0.489583,Eighth,G#5
1904,Left,1,60,110,300.5,0.489583,Eighth,C4
1903,Right,0,68,110,300.5,0.489583,Eighth,G#4
1905,Right,0,80,110,300.75,0.489583,Eighth,G#5
1907,Left,1,60,110,301.0,0.489583,Eighth,C4
1906,Right,0,68,110,301.0,0.489583,Eighth,G#4
1908,Right,0,80,110,301.25,0.489583,Eighth,G#5
1910,Left,1,61,110,301.5,0.489583,Eighth,C#4
1909,Right,0,70,110,301.5,0.489583,Eighth,A#4
1911,Right,0,80,110,301.75,0.489583,Eighth,G#5
1912,Left,1,63,110,302.0,0.489583,Eighth,D#4
1913,Right,0,72,110,302.0,0.489583,Eighth,C5
1914,Right,0,80,110,302.25,0.489583,Eighth,G#5
1916,Left,1,64,110,302.5,0.489583,Eighth,E4
1915,Right,0,73,110,302.5,0.489583,Eighth,C#5
1917,Right,0,80,110,302.75,0.489583,Eighth,G#5
1918,Right,0,75,110,303.0,0.489583,Eighth,D#5
1919,Left,1,66,110,303.0,0.489583,Eighth,F#4
1920,Right,0,80,110,303.25,0.489583,Eighth,G#5
1921,Left,1,64,110,303.5,0.489583,Eighth,E4
1922,Right,0,72,110,303.5,0.489583,Eighth,C5
1923,Right,0,80,110,303.75,0.489583,Eighth,G#5
1925,Left,1,66,110,304.0,0.489583,Eighth,F#4
1924,Right,0,75,110,304.0,0.489583,Eighth,D#5
1926,Right,0,80,110,304.25,0.489583,Eighth,G#5
1927,Right,0,73,110,304.5,0.489583,Eighth,C#5
1928,Left,1,64,110,304.5,0.489583,Eighth,E4
1929,Right,0,80,110,304.75,0.489583,Eighth,G#5
1930,Right,0,78,110,305.0,0.489583,Eighth,F#5
1931,Left,1,69,110,305.0,0.489583,Eighth,A4
1932,Right,0,80,110,305.25,0.489583,Eighth,G#5
1934,Left,1,68,110,305.5,0.489583,Eighth,G#4
1933,Right,0,76,110,305.5,0.489583,Eighth,E5
1935,Right,0,80,110,305.75,0.489583,Eighth,G#5
1937,Left,1,66,110,306.0,0.489583,Eighth,F#4
1936,Right,0,75,110,306.0,0.489583,Eighth,D#5
1938,Right,0,80,110,306.25,0.489583,Eighth,G#5
1939,Left,1,64,110,306.5,0.489583,Eighth,E4
1940,Right,0,73,110,306.5,0.489583,Eighth,C#5
1941,Right,0,80,110,306.75,0.489583,Eighth,G#5
1943,Right,0,72,110,307.0,0.489583,Eighth,C5
1942,Left,1,63,110,307.0,0.489583,Eighth,D#4
1944,Right,0,80,110,307.25,0.489583,Eighth,G#5
1945,Right,0,69,110,307.5,0.489583,Eighth,A4
1946,Left,1,61,110,307.5,0.489583,Eighth,C#4
1947,Right,0,79,110,307.75,0.239583,Sixteenth,G5
1948,Right,0,68,110,308.0,0.489583,Eighth,G#4
1949,Left,1,60,110,308.0,0.489583,Eighth,G#3_C4
1951,Right,0,80,110,308.25,0.489583,Eighth,G#5
1952,Right,0,69,110,308.5,0.489583,Eighth,A4
1953,Left,1,61,110,308.5,0.489583,Eighth,G#3_C#4
1955,Right,0,79,110,308.75,0.489583,Eighth,G5
1956,Right,0,68,110,309.0,0.489583,Eighth,G#4
1957,Left,1,56,110,309.0,0.489583,Eighth,G#3_C4
1959,Right,0,80,110,309.25,0.489583,Eighth,G#5
1962,Right,0,69,110,309.5,0.489583,Eighth,A4
1960,Left,1,56,110,309.5,0.489583,Eighth,G#3_C#4
1963,Right,0,79,110,309.75,0.489583,Eighth,G5
1964,Left,1,60,110,310.0,0.489583,Eighth,G#3_C4
1966,Right,0,68,110,310.0,0.489583,Eighth,G#4
1967,Right,0,80,110,310.25,0.489583,Eighth,G#5
1969,Left,1,61,110,310.5,0.489583,Eighth,G#3_C#4
1968,Right,0,69,110,310.5,0.489583,Eighth,A4
1971,Right,0,79,110,310.75,0.489583,Eighth,G5
1972,Left,1,56,110,311.0,0.489583,Eighth,G#3_C4
1973,Right,0,68,110,311.0,0.489583,Eighth,G#4
1975,Right,0,80,110,311.25,0.489583,Eighth,G#5
1977,Left,1,56,110,311.5,0.489583,Eighth,G#3_C#4
1976,Right,0,69,110,311.5,0.489583,Eighth,A4
1979,Right,0,79,110,311.75,0.239583,Sixteenth,G5
1981,Left,1,60,110,312.0,0.989583,Quarter,G#3_C4
1980,Right,0,68,110,312.0,0.989583,Quarter,G#5_G#4
1984,Left,1,32,110,313.0,6.989583,Unknown,G#2_G#1
1986,Right,0,56,110,313.0,6.989583,Unknown,G#3
1987,Left,1,37,80,320.0,0.489583,Eighth,C#2
1988,Right,0,44,80,320.25,0.489583,Eighth,G#2
1990,Right,0,49,80,320.5,0.489583,Eighth,C#3
1989,Left,1,44,80,320.5,0.489583,Eighth,G#2
1991,Right,0,52,80,320.75,0.489583,Eighth,E3
1993,Right,0,56,80,321.0,0.489583,Eighth,G#3
1992,Left,1,37,80,321.0,0.489583,Eighth,C#2
1994,Right,0,49,80,321.25,0.489583,Eighth,C#3
1996,Right,0,52,80,321.5,0.489583,Eighth,E3
1995,Left,1,44,80,321.5,0.489583,Eighth,G#2
1997,Right,0,56,80,321.75,0.489583,Eighth,G#3
1999,Right,0,61,80,322.0,0.489583,Eighth,C#4
1998,Left,1,37,80,322.0,0.489583,Eighth,C#2
2000,Right,0,52,80,322.25,0.489583,Eighth,E3
2001,Left,1,44,80,322.5,0.489583,Eighth,G#2
2002,Right,0,56,80,322.5,0.489583,Eighth,G#3
2003,Right,0,61,80,322.75,0.489583,Eighth,C#4
2005,Left,1,37,80,323.0,0.489583,Eighth,C#2
2004,Right,0,64,80,323.0,0.489583,Eighth,E4
2006,Right,0,56,80,323.25,0.489583,Eighth,G#3
2007,Left,1,44,80,323.5,0.489583,Eighth,G#2
2008,Right,0,61,80,323.5,0.489583,Eighth,C#4
2009,Right,0,64,80,323.75,0.489583,Eighth,E4
2011,Right,0,68,80,324.0,0.489583,Eighth,G#4
2010,Left,1,37,80,324.0,0.489583,Eighth,C#2
2012,Right,0,61,80,324.25,0.489583,Eighth,C#4
2014,Right,0,64,80,324.5,0.489583,Eighth,E4
2013,Left,1,44,80,324.5,0.489583,Eighth,G#2
2015,Right,0,68,80,324.75,0.489583,Eighth,G#4
2016,Right,0,73,80,325.0,0.489583,Eighth,C#5
2017,Left,1,37,80,325.0,0.489583,Eighth,C#2
2018,Right,0,64,80,325.25,0.489583,Eighth,E4
2019,Right,0,68,80,325.5,0.489583,Eighth,G#4
2020,Left,1,44,80,325.5,0.489583,Eighth,G#2
2021,Right,0,73,80,325.75,0.489583,Eighth,C#5
2023,Right,0,76,80,326.0,0.239583,Sixteenth,E5
2022,Left,1,37,80,326.0,0.489583,Eighth,C#2
2024,Right,0,76,80,326.25,0.489583,Eighth,E5
2026,Right,0,80,80,326.5,0.489583,Eighth,G#5
2025,Left,1,44,80,326.5,0.489583,Eighth,G#2
2027,Right,0,85,80,326.75,0.489583,Eighth,C#6
2028,Right,0,88,110,327.0,0.489583,Eighth,E6_E5
2030,Left,1,49,110,327.0,0.989583,Quarter,C#3_C#2
2034,Left,1,44,100,327.5,0.489583,Eighth,G#2
2032,Right,0,76,100,327.5,0.489583,Eighth,E6_E5
2035,Left,1,34,80,328.0,0.489583,Eighth,A#1
2036,Right,0,52,80,328.25,0.489583,Eighth,E3
2037,Left,1,49,80,328.5,0.489583,Eighth,C#3
2038,Right,0,55,80,328.5,0.489583,Eighth,G3
2039,Right,0,61,80,328.75,0.489583,Eighth,C#4
2040,Left,1,46,80,329.0,0.489583,Eighth,A#2
2041,Right,0,64,80,329.0,0.489583,Eighth,E4
2042,Right,0,55,80,329.25,0.489583,Eighth,G3
2043,Left,1,49,80,329.5,0.489583,Eighth,C#3
2044,Right,0,61,80,329.5,0.489583,Eighth,C#4
2045,Right,0,64,80,329.75,0.489583,Eighth,E4
2046,Left,1,46,80,330.0,0.489583,Eighth,A#2
2047,Right,0,67,80,330.0,0.489583,Eighth,G4
2048,Right,0,61,80,330.25,0.489583,Eighth,C#4
2049,Right,0,64,80,330.5,0.489583,Eighth,E4
2050,Left,1,49,80,330.5,0.489583,Eighth,C#3
2051,Right,0,67,80,330.75,0.489583,Eighth,G4
2053,Right,0,73,80,331.0,0.489583,Eighth,C#5
2052,Left,1,46,80,331.0,0.489583,Eighth,A#2
2054,Right,0,64,80,331.25,0.489583,Eighth,E4
2056,Left,1,49,80,331.5,0.489583,Eighth,C#3
2055,Right,0,67,80,331.5,0.489583,Eighth,G4
2057,Right,0,73,80,331.75,0.489583,Eighth,C#5
2058,Right,0,76,80,332.0,0.489583,Eighth,E5
2059,Left,1,46,80,332.0,0.489583,Eighth,A#2
2060,Right,0,67,80,332.25,0.489583,Eighth,G4
2061,Right,0,73,80,332.5,0.489583,Eighth,C#5
2062,Left,1,49,80,332.5,0.489583,Eighth,C#3
2063,Right,0,76,80,332.75,0.489583,Eighth,E5
2064,Right,0,79,80,333.0,0.489583,Eighth,G5
2065,Left,1,46,80,333.0,0.489583,Eighth,A#2
2066,Right,0,73,80,333.25,0.489583,Eighth,C#5
2067,Right,0,76,80,333.5,0.489583,Eighth,E5
2068,Left,1,49,80,333.5,0.489583,Eighth,C#3
2069,Right,0,79,80,333.75,0.489583,Eighth,G5
2071,Left,1,46,80,334.0,0.489583,Eighth,A#2
2070,Right,0,85,80,334.0,0.489583,Eighth,C#6
2072,Right,0,76,80,334.25,0.489583,Eighth,E5
2073,Right,0,79,80,334.5,0.489583,Eighth,G5
2074,Left,1,49,80,334.5,0.489583,Eighth,C#3
2075,Right,0,85,80,334.75,0.489583,Eighth,C#6
2076,Right,0,88,110,335.0,0.489583,Eighth,E6_E5
2078,Left,1,34,110,335.0,0.989583,Quarter,A#2_A#1
2080,Right,0,88,100,335.5,0.489583,Eighth,E6_E5
2082,Left,1,49,100,335.5,0.489583,Eighth,C#3
2083,Left,1,31,90,336.0,0.489583,Eighth,G1
2084,Right,0,51,90,336.25,0.489583,Eighth,D#3
2085,Right,0,58,91,336.5,0.489583,Eighth,A#3
2086,Left,1,51,91,336.5,0.489583,Eighth,D#3
2087,Right,0,61,91,336.75,0.489583,Eighth,C#4
2088,Left,1,43,92,337.0,0.489583,Eighth,G2
2089,Right,0,63,92,337.0,0.489583,Eighth,D#4
2090,Right,0,58,93,337.25,0.489583,Eighth,A#3
2091,Right,0,61,93,337.5,0.489583,Eighth,C#4
2092,Left,1,51,93,337.5,0.489583,Eighth,D#3
2093,Right,0,63,94,337.75,0.489583,Eighth,D#4
2095,Left,1,43,95,338.0,0.489583,Eighth,G2
2094,Right,0,70,95,338.0,0.489583,Eighth,A#4
2096,Right,0,61,95,338.25,0.489583,Eighth,C#4
2097,Left,1,51,96,338.5,0.489583,Eighth,D#3
2098,Right,0,63,96,338.5,0.489583,Eighth,D#4
2099,Right,0,70,97,338.75,0.489583,Eighth,A#4
2100,Right,0,73,97,339.0,0.489583,Eighth,C#5
2101,Left,1,43,97,339.0,0.489583,Eighth,G2
2102,Right,0,63,98,339.25,0.489583,Eighth,D#4
2104,Right,0,70,99,339.5,0.489583,Eighth,A#4
2103,Left,1,51,99,339.5,0.489583,Eighth,D#3
2105,Right,0,73,99,339.75,0.489583,Eighth,C#5
2106,Left,1,43,100,340.0,0.489583,Eighth,G2
2107,Right,0,75,100,340.0,0.489583,Eighth,D#5
2108,Right,0,70,100,340.25,0.489583,Eighth,A#4
2110,Right,0,73,101,340.5,0.489583,Eighth,C#5
2109,Left,1,51,101,340.5,0.489583,Eighth,D#3
2111,Right,0,75,102,340.75,0.489583,Eighth,D#5
2113,Right,0,82,102,341.0,0.489583,Eighth,A#5
2112,Left,1,43,102,341.0,0.489583,Eighth,G2
2114,Right,0,73,103,341.25,0.489583,Eighth,C#5
2115,Left,1,51,104,341.5,0.489583,Eighth,D#3
2116,Right,0,75,104,341.5,0.489583,Eighth,D#5
2117,Right,0,82,104,341.75,0.489583,Eighth,A#5
2118,Right,0,85,105,342.0,0.489583,Eighth,C#6
2119,Left,1,43,105,342.0,0.489583,Eighth,G2
2120,Right,0,82,106,342.25,0.489583,Eighth,A#5
2122,Right,0,75,106,342.5,0.489583,Eighth,D#5
2121,Left,1,51,106,342.5,0.489583,Eighth,D#3
2123,Right,0,73,107,342.75,0.489583,Eighth,C#5
2124,Right,0,82,108,343.0,0.489583,Eighth,A#5
2125,Left,1,43,108,343.0,0.989583,Quarter,G2
2126,Right,0,75,108,343.25,0.489583,Eighth,D#5
2128,Left,1,51,109,343.5,0.489583,Eighth,D#3
2127,Right,0,73,109,343.5,0.489583,Eighth,C#5
2129,Right,0,70,109,343.75,0.239583,Sixteenth,A#4
2131,Right,0,71,90,344.0,0.989583,Quarter,B4
2130,Left,1,44,80,344.0,0.489583,Eighth,G#2
2132,Left,1,51,80,344.25,0.489583,Eighth,D#3
2133,Left,1,47,80,344.5,0.489583,Eighth,B2
2134,Left,1,51,80,344.75,0.489583,Eighth,D#3
2136,Left,1,44,80,345.0,0.489583,Eighth,G#2
2135,Right,0,75,90,345.0,1.989583,Half,D#5
2137,Left,1,51,80,345.25,0.489583,Eighth,D#3
2138,Left,1,47,80,345.5,0.489583,Eighth,B2
2139,Left,1,51,80,345.75,0.489583,Eighth,D#3
2140,Left,1,44,80,346.0,0.489583,Eighth,G#2
2141,Left,1,51,80,346.25,0.489583,Eighth,D#3
2142,Left,1,47,80,346.5,0.489583,Eighth,B2
2143,Left,1,51,80,346.75,0.489583,Eighth,D#3
2145,Left,1,44,80,347.0,0.489583,Eighth,G#2
2144,Right,0,71,90,347.0,0.989583,Quarter,B4
2146,Left,1,51,80,347.25,0.489583,Eighth,D#3
2147,Left,1,47,80,347.5,0.489583,Eighth,B2
2149,Right,0,68,90,347.75,0.239583,Sixteenth,G#4
2148,Left,1,51,80,347.75,0.489583,Eighth,D#3
2150,Right,0,67,90,348.0,0.239583,Sixteenth,G4
2151,Left,1,46,80,348.0,0.489583,Eighth,A#2
2152,Right,0,68,90,348.125,0.239583,Sixteenth,G#4
2153,Right,0,70,90,348.25,0.239583,Sixteenth,A#4
2154,Left,1,51,80,348.25,0.489583,Eighth,D#3
2155,Right,0,68,90,348.375,0.989583,Quarter,G#4
2156,Left,1,49,80,348.5,0.489583,Eighth,C#3
2157,Left,1,51,80,348.75,0.489583,Eighth,D#3
2159,Right,0,67,90,349.0,1.489583,DottedQuarter,G4
2158,Left,1,46,80,349.0,0.489583,Eighth,A#2
2160,Left,1,51,80,349.25,0.489583,Eighth,D#3
2161,Left,1,49,80,349.5,0.489583,Eighth,C#3
2162,Left,1,51,80,349.75,0.489583,Eighth,D#3
2163,Left,1,46,80,350.0,0.489583,Eighth,A#2
2164,Left,1,51,80,350.25,0.489583,Eighth,D#3
2165,Right,0,67,90,350.5,0.489583,Eighth,G4
2166,Left,1,49,80,350.5,0.489583,Eighth,C#3
2167,Left,1,51,80,350.75,0.489583,Eighth,D#3
2169,Left,1,46,80,351.0,0.489583,Eighth,A#2
2168,Right,0,75,90,351.0,0.989583,Quarter,D#5
2170,Left,1,51,80,351.25,0.489583,Eighth,D#3
2171,Left,1,49,80,351.5,0.489583,Eighth,C#3
2172,Left,1,51,80,351.75,0.489583,Eighth,D#3
2173,Right,0,67,90,351.75,0.489583,Eighth,G4
2174,Right,0,70,90,352.0,0.989583,Quarter,A#4
2175,Left,1,47,80,352.0,0.489583,Eighth,B2
2176,Left,1,51,80,352.25,0.489583,Eighth,D#3
2177,Left,1,47,80,352.5,0.489583,Eighth,B2
2178,Left,1,51,80,352.75,0.489583,Eighth,D#3
2179,Left,1,47,80,353.0,0.489583,Eighth,B2
2180,Right,0,68,90,353.0,1.489583,DottedQuarter,G#4
2181,Left,1,51,80,353.25,0.489583,Eighth,D#3
2182,Left,1,47,80,353.5,0.489583,Eighth,B2
2183,Left,1,51,80,353.75,0.489583,Eighth,D#3
2184,Left,1,47,80,354.0,0.489583,Eighth,B2
2185,Left,1,51,80,354.25,0.489583,Eighth,D#3
2187,Right,0,68,90,354.5,0.489583,Eighth,G#4
2186,Left,1,47,80,354.5,0.489583,Eighth,B2
2188,Left,1,51,80,354.75,0.489583,Eighth,D#3
2190,Right,0,75,90,355.0,0.989583,Quarter,D#5
2189,Left,1,47,80,355.0,0.489583,Eighth,B2
2191,Left,1,51,80,355.25,0.489583,Eighth,D#3
2192,Left,1,47,80,355.5,0.489583,Eighth,B2
2194,Right,0,68,90,355.75,0.489583,Eighth,G#4
2193,Left,1,51,80,355.75,0.489583,Eighth,D#3
2195,Left,1,43,80,356.0,0.489583,Eighth,G2
2196,Right,0,71,90,356.0,0.989583,Quarter,B4
2197,Left,1,51,80,356.25,0.489583,Eighth,D#3
2198,Left,1,43,80,356.5,0.489583,Eighth,G2
2199,Left,1,51,80,356.75,0.489583,Eighth,D#3
2201,Right,0,70,90,357.0,1.489583,DottedQuarter,A#4
2200,Left,1,43,80,357.0,0.489583,Eighth,G2
2202,Left,1,51,80,357.25,0.489583,Eighth,D#3
2203,Left,1,43,80,357.5,0.489583,Eighth,G2
2204,Left,1,51,80,357.75,0.489583,Eighth,D#3
2205,Left,1,43,80,358.0,0.489583,Eighth,G2
2206,Left,1,51,80,358.25,0.489583,Eighth,D#3
2207,Right,0,70,90,358.5,0.489583,Eighth,A#4
2208,Left,1,43,80,358.5,0.489583,Eighth,G2
2209,Left,1,51,80,358.75,0.489583,Eighth,D#3
2210,Left,1,43,80,359.0,0.489583,Eighth,G2
2211,Right,0,75,90,359.0,0.989583,Quarter,D#5
2212,Left,1,51,80,359.25,0.489583,Eighth,D#3
2213,Left,1,43,80,359.5,0.489583,Eighth,G2
2215,Left,1,51,80,359.75,0.489583,Eighth,D#3
2214,Right,0,70,90,359.75,0.489583,Eighth,A#4
2216,Right,0,71,90,360.0,0.489583,Eighth,B4
2217,Left,1,44,80,360.0,0.489583,Eighth,G#2
2218,Left,1,51,80,360.25,0.489583,Eighth,D#3
2220,Right,0,75,90,360.5,0.989583,Quarter,D#6_D#5
2219,Left,1,47,80,360.5,0.489583,Eighth,B2
2222,Left,1,51,81,360.75,0.489583,Eighth,D#3
2223,Left,1,44,81,361.0,0.489583,Eighth,G#2
2224,Left,1,51,82,361.25,0.489583,Eighth,D#3
2225,Right,0,75,92,361.5,0.989583,Quarter,D#6_D#5
2226,Left,1,47,82,361.5,0.489583,Eighth,B2
2228,Left,1,51,82,361.75,0.489583,Eighth,D#3
2229,Left,1,44,83,362.0,0.489583,Eighth,G#2
2230,Left,1,51,83,362.25,0.489583,Eighth,D#3
2231,Right,0,87,94,362.5,0.489583,Eighth,D#6_D#5
2233,Left,1,47,84,362.5,0.489583,Eighth,B2
2234,Left,1,51,84,362.75,0.489583,Eighth,D#3
2235,Left,1,44,84,363.0,0.489583,Eighth,G#2
2236,Right,0,83,94,363.0,0.489583,Eighth,B5_B4
2238,Left,1,51,85,363.25,0.489583,Eighth,D#3
2239,Right,0,68,95,363.5,0.489583,Eighth,G#5_G#4
2241,Left,1,47,85,363.5,0.489583,Eighth,B2
2242,Left,1,51,86,363.75,0.489583,Eighth,D#3
2245,Left,1,46,86,364.0,0.489583,Eighth,A#2
2243,Right,0,68,96,364.0,0.489583,Eighth,G#5_G#4
2246,Left,1,51,86,364.25,0.489583,Eighth,D#3
2248,Right,0,67,97,364.5,0.989583,Quarter,G5_G4
2247,Left,1,49,87,364.5,0.489583,Eighth,C#3
2250,Left,1,51,87,364.75,0.489583,Eighth,D#3
2251,Left,1,46,88,365.0,0.489583,Eighth,A#2
2252,Left,1,51,88,365.25,0.489583,Eighth,D#3
2253,Left,1,49,88,365.5,0.489583,Eighth,C#3
2254,Right,0,79,98,365.5,0.989583,Quarter,G5_G4
2256,Left,1,51,89,365.75,0.489583,Eighth,D#3
2257,Left,1,46,89,366.0,0.489583,Eighth,A#2
2258,Left,1,51,90,366.25,0.489583,Eighth,D#3
2261,Left,1,49,90,366.5,0.489583,Eighth,C#3
2259,Right,0,67,100,366.5,0.489583,Eighth,G5_G4
2262,Left,1,51,90,366.75,0.489583,Eighth,D#3
2263,Left,1,46,91,367.0,0.489583,Eighth,A#2
2264,Right,0,75,101,367.0,0.489583,Eighth,D#6_D#5
2266,Left,1,51,91,367.25,0.489583,Eighth,D#3
2268,Right,0,67,102,367.5,0.489583,Eighth,G5_G4
2267,Left,1,49,92,367.5,0.489583,Eighth,C#3
2270,Left,1,51,92,367.75,0.489583,Eighth,D#3
2273,Left,1,47,92,368.0,0.489583,Eighth,B2
2271,Right,0,70,102,368.0,0.489583,Eighth,A#5_A#4
2274,Left,1,51,93,368.25,0.489583,Eighth,D#3
2277,Left,1,47,93,368.5,0.489583,Eighth,B2
2275,Right,0,80,103,368.5,0.989583,Quarter,G#5_G#4
2278,Left,1,51,94,368.75,0.489583,Eighth,D#3
2279,Left,1,47,94,369.0,0.489583,Eighth,B2
2280,Left,1,51,94,369.25,0.489583,Eighth,D#3
2283,Left,1,47,95,369.5,0.489583,Eighth,B2
2281,Right,0,80,105,369.5,0.989583,Quarter,G#5_G#4
2284,Left,1,51,95,369.75,0.489583,Eighth,D#3
2285,Left,1,47,96,370.0,0.489583,Eighth,B2
2286,Left,1,51,96,370.25,0.489583,Eighth,D#3
2289,Left,1,47,96,370.5,0.489583,Eighth,B2
2287,Right,0,68,106,370.5,0.489583,Eighth,G#5_G#4
2290,Left,1,51,97,370.75,0.489583,Eighth,D#3
2291,Left,1,47,97,371.0,0.489583,Eighth,B2
2292,Right,0,87,107,371.0,0.489583,Eighth,D#6_D#5
2294,Left,1,51,98,371.25,0.489583,Eighth,D#3
2295,Right,0,68,108,371.5,0.489583,Eighth,G#5_G#4
2296,Left,1,47,98,371.5,0.489583,Eighth,B2
2298,Left,1,51,98,371.75,0.489583,Eighth,D#3
2299,Right,0,83,109,372.0,0.489583,Eighth,B5_B4
2301,Left,1,43,99,372.0,0.489583,Eighth,G2
2302,Left,1,51,99,372.25,0.489583,Eighth,D#3
2304,Left,1,43,100,372.5,0.489583,Eighth,G2
2303,Right,0,82,110,372.5,0.989583,Quarter,A#5_A#4
2306,Left,1,51,100,372.75,0.489583,Eighth,D#3
2307,Left,1,43,100,373.0,0.489583,Eighth,G2
2308,Left,1,51,101,373.25,0.489583,Eighth,D#3
2309,Right,0,70,111,373.5,0.989583,Quarter,A#5_A#4
2310,Left,1,43,101,373.5,0.489583,Eighth,G2
2312,Left,1,51,102,373.75,0.489583,Eighth,D#3
2313,Left,1,43,102,374.0,0.489583,Eighth,G2
2314,Left,1,51,102,374.25,0.489583,Eighth,D#3
2315,Left,1,43,103,374.5,0.489583,Eighth,G2
2316,Right,0,82,113,374.5,0.489583,Eighth,A#5_A#4
2318,Left,1,51,103,374.75,0.489583,Eighth,D#3
2321,Left,1,43,104,375.0,0.489583,Eighth,G2
2319,Right,0,75,114,375.0,0.489583,Eighth,D#6_D#5
2322,Left,1,51,104,375.25,0.489583,Eighth,D#3
2323,Right,0,70,114,375.5,0.489583,Eighth,A#5_A#4
2325,Left,1,43,104,375.5,0.489583,Eighth,G2
2326,Left,1,51,80,375.75,0.489583,Eighth,D#3
2328,Left,1,42,100,376.0,0.489583,Eighth,F#2
2327,Right,0,84,110,376.0,1.989583,Half,C6_C5
2330,Left,1,51,100,376.25,0.489583,Eighth,D#3
2331,Left,1,44,100,376.5,0.489583,Eighth,G#2
2332,Left,1,51,100,376.75,0.489583,Eighth,D#3
2333,Left,1,42,100,377.0,0.489583,Eighth,F#2
2334,Left,1,51,100,377.25,0.489583,Eighth,D#3
2335,Left,1,44,100,377.5,0.489583,Eighth,G#2
2336,Left,1,51,100,377.75,0.489583,Eighth,D#3
2338,Right,0,73,110,378.0,1.989583,Half,C#6_C#5
2337,Left,1,40,100,378.0,0.489583,Eighth,E2
2340,Left,1,49,100,378.25,0.489583,Eighth,C#3
2341,Left,1,44,100,378.5,0.489583,Eighth,G#2
2342,Left,1,49,100,378.75,0.489583,Eighth,C#3
2343,Left,1,40,100,379.0,0.489583,Eighth,E2
2344,Left,1,49,100,379.25,0.489583,Eighth,C#3
2345,Left,1,44,100,379.5,0.489583,Eighth,G#2
2346,Left,1,49,100,379.75,0.489583,Eighth,C#3
2347,Right,0,83,110,380.0,0.989583,Triplet,B5_A#4
2349,Left,1,40,100,380.0,0.489583,Eighth,E2
2350,Right,0,82,110,380.166667,0.322917,Triplet,A#5
2351,Left,1,49,100,380.25,0.489583,Eighth,C#3
2352,Right,0,83,110,380.333333,0.322917,Triplet,B5
2354,Left,1,42,100,380.5,0.489583,Eighth,F#2
2353,Right,0,82,110,380.5,0.322917,Triplet,A#5
2355,Right,0,80,110,380.666667,0.322917,Triplet,G#5
2356,Left,1,49,100,380.75,0.489583,Eighth,C#3
2357,Right,0,82,110,380.833333,0.322917,Triplet,A#5
2358,Left,1,39,100,381.0,0.489583,Eighth,D#2
2359,Right,0,83,110,381.0,2.989583,DottedHalf,B5_B4
2361,Left,1,47,100,381.25,0.489583,Eighth,B2
2362,Left,1,42,100,381.5,0.489583,Eighth,F#2
2363,Left,1,47,100,381.75,0.489583,Eighth,B2
2364,Left,1,39,100,382.0,0.489583,Eighth,D#2
2365,Left,1,47,100,382.25,0.489583,Eighth,B2
2366,Left,1,42,100,382.5,0.489583,Eighth,F#2
2367,Left,1,47,100,382.75,0.489583,Eighth,B2
2368,Left,1,39,100,383.0,0.489583,Eighth,D#2
2369,Left,1,47,100,383.25,0.489583,Eighth,B2
2370,Left,1,42,100,383.5,0.489583,Eighth,F#2
2371,Left,1,47,100,383.75,0.489583,Eighth,B2
2372,Left,1,38,100,384.0,0.489583,Eighth,D2
2373,Right,0,80,110,384.0,1.989583,Half,G#5_G#4
2375,Left,1,47,100,384.25,0.489583,Eighth,B2
2376,Left,1,40,100,384.5,0.489583,Eighth,E2
2377,Left,1,47,100,384.75,0.489583,Eighth,B2
2378,Left,1,38,100,385.0,0.489583,Eighth,D2
2379,Left,1,47,100,385.25,0.489583,Eighth,B2
2380,Left,1,40,100,385.5,0.489583,Eighth,E2
2381,Left,1,47,100,385.75,0.489583,Eighth,B2
2382,Left,1,37,100,386.0,0.489583,Eighth,C#2
2383,Right,0,69,110,386.0,1.989583,Half,A5_A4
2385,Left,1,45,100,386.25,0.489583,Eighth,A2
2386,Left,1,40,100,386.5,0.489583,Eighth,E2
2387,Left,1,45,100,386.75,0.489583,Eighth,A2
2388,Left,1,37,100,387.0,0.489583,Eighth,C#2
2389,Left,1,45,100,387.25,0.489583,Eighth,A2
2390,Left,1,40,100,387.5,0.489583,Eighth,E2
2391,Left,1,45,100,387.75,0.489583,Eighth,A2
2392,Left,1,37,100,388.0,0.489583,Eighth,C#2
2393,Right,0,67,110,388.0,0.989583,Quarter,G4_G#5
2395,Right,0,79,110,388.166667,0.322917,Triplet,G5
2396,Left,1,46,100,388.25,0.489583,Eighth,A#2
2397,Right,0,80,110,388.333333,0.322917,Triplet,G#5
2398,Left,1,39,100,388.5,0.489583,Eighth,D#2
2399,Right,0,79,110,388.5,0.322917,Triplet,G5
2400,Right,0,77,110,388.666667,0.322917,Triplet,F5
2401,Left,1,46,100,388.75,0.489583,Eighth,A#2
2402,Right,0,79,110,388.833333,0.322917,Triplet,G5
2405,Left,1,35,100,389.0,0.489583,Eighth,B1
2403,Right,0,68,110,389.0,2.989583,DottedHalf,G#5_G#4
2406,Left,1,44,100,389.25,0.489583,Eighth,G#2
2407,Left,1,39,100,389.5,0.489583,Eighth,D#2
2408,Left,1,44,100,389.75,0.489583,Eighth,G#2
2409,Left,1,35,100,390.0,0.489583,Eighth,B1
2410,Left,1,44,100,390.25,0.489583,Eighth,G#2
2411,Left,1,39,100,390.5,0.489583,Eighth,D#2
2412,Left,1,44,100,390.75,0.489583,Eighth,G#2
2413,Left,1,35,100,391.0,0.489583,Eighth,B1
2414,Left,1,44,100,391.25,0.489583,Eighth,G#2
2415,Left,1,39,100,391.5,0.489583,Eighth,D#2
2416,Left,1,44,100,391.75,0.239583,Sixteenth,G#2
2418,Left,1,45,120,392.0,2.989583,DottedHalf,E2_C#3_C#2_A2
2417,Right,0,76,120,392.0,2.989583,DottedHalf,E5_C#5_A5_A4
2425,Right,0,76,80,394.25,0.489583,Eighth,E5
2426,Right,0,78,80,394.5,0.489583,Eighth,F#5
2427,Right,0,80,80,394.75,0.489583,Eighth,G#5
2428,Right,0,81,80,395.0,0.489583,Eighth,A5
2429,Right,0,83,80,395.25,0.489583,Eighth,B5
2430,Right,0,85,80,395.5,0.489583,Eighth,C#6
2431,Right,0,83,80,395.75,0.489583,Eighth,B5
2435,Right,0,81,80,396.0,0.489583,Eighth,A5
2432,Left,1,69,80,396.0,0.989583,Quarter,E4_C#4_A4
2436,Right,0,76,80,396.25,0.489583,Eighth,E5
2437,Right,0,78,80,396.5,0.489583,Eighth,F#5
2438,Right,0,80,80,396.75,0.489583,Eighth,G#5
2439,Right,0,81,80,397.0,0.489583,Eighth,A5
2440,Right,0,83,80,397.25,0.489583,Eighth,B5
2441,Right,0,85,80,397.5,0.489583,Eighth,C#6
2442,Right,0,83,80,397.75,0.489583,Eighth,B5
2444,Left,1,61,80,398.0,0.989583,Quarter,E4_C#4_A4
2443,Right,0,81,80,398.0,0.489583,Eighth,A5
2447,Right,0,76,80,398.25,0.489583,Eighth,E5
2448,Right,0,78,80,398.5,0.489583,Eighth,F#5
2449,Right,0,80,80,398.75,0.489583,Eighth,G#5
2450,Right,0,81,80,399.0,0.489583,Eighth,A5
2451,Right,0,83,80,399.25,0.489583,Eighth,B5
2452,Right,0,85,80,399.5,0.489583,Eighth,C#6
2453,Right,0,83,80,399.75,0.489583,Eighth,B5
2455,Right,0,81,80,400.0,0.489583,Eighth,A5
2454,Left,1,61,80,400.0,0.989583,Quarter,E4_C#4_A4
2458,Right,0,76,81,400.25,0.489583,Eighth,E5
2459,Right,0,78,82,400.5,0.489583,Eighth,F#5
2460,Right,0,80,83,400.75,0.489583,Eighth,G#5
2461,Left,1,64,84,401.0,0.989583,Quarter,E4_C#4_A4
2463,Right,0,81,84,401.0,0.489583,Eighth,A5
2465,Right,0,83,86,401.25,0.489583,Eighth,B5
2466,Right,0,85,87,401.5,0.489583,Eighth,C#6
2467,Right,0,86,88,401.75,0.489583,Eighth,D6
2469,Left,1,64,89,402.0,0.989583,Quarter,E4_C#4_A4
2468,Right,0,88,89,402.0,0.489583,Eighth,E6
2472,Right,0,87,91,402.25,0.489583,Eighth,D#6
2473,Right,0,88,92,402.5,0.489583,Eighth,E6
2474,Right,0,87,93,402.75,0.489583,Eighth,D#6
2475,Left,1,61,94,403.0,0.989583,Quarter,E4_C#4_A4
2478,Right,0,88,94,403.0,0.489583,Eighth,E6
2479,Right,0,85,96,403.25,0.489583,Eighth,C#6
2480,Right,0,83,97,403.5,0.489583,Eighth,B5
2481,Right,0,81,98,403.75,0.489583,Eighth,A5
2483,Right,0,80,80,404.0,1.989583,Half,G#5
2482,Left,1,63,80,404.0,0.489583,Eighth,D#4
2484,Left,1,71,80,404.25,0.489583,Eighth,B4
2485,Left,1,68,80,404.5,0.489583,Eighth,G#4
2486,Left,1,71,80,404.75,0.489583,Eighth,B4
2487,Left,1,63,80,405.0,0.489583,Eighth,D#4
2488,Left,1,71,80,405.25,0.489583,Eighth,B4
2489,Left,1,68,80,405.5,0.489583,Eighth,G#4
2490,Left,1,71,80,405.75,0.489583,Eighth,B4
2491,Right,0,83,80,406.0,0.322917,Triplet,B5
2492,Left,1,63,80,406.0,0.489583,Eighth,D#4
2493,Right,0,82,80,406.166667,0.322917,Triplet,A#5
2494,Left,1,73,80,406.25,0.489583,Eighth,C#5
2495,Right,0,83,80,406.333333,0.322917,Triplet,B5
2497,Left,1,67,80,406.5,0.489583,Eighth,G4
2496,Right,0,82,80,406.5,0.322917,Triplet,A#5
2498,Right,0,83,80,406.666667,0.322917,Triplet,B5
2499,Left,1,73,80,406.75,0.489583,Eighth,C#5
2500,Right,0,82,80,406.833333,0.322917,Triplet,A#5
2501,Right,0,83,80,407.0,0.322917,Triplet,B5
2502,Left,1,63,80,407.0,0.489583,Eighth,D#4
2503,Right,0,82,80,407.166667,0.322917,Triplet,A#5
2504,Left,1,73,80,407.25,0.489583,Eighth,C#5
2505,Right,0,83,80,407.333333,0.322917,Triplet,B5
2507,Right,0,82,80,407.5,0.322917,Triplet,A#5
2506,Left,1,67,80,407.5,0.489583,Eighth,G4
2508,Right,0,80,80,407.666667,0.322917,Triplet,G#5
2509,Left,1,73,80,407.75,0.239583,Sixteenth,C#5
2510,Right,0,82,80,407.833333,0.322917,Triplet,A#5
2514,Right,0,80,80,408.0,0.989583,Quarter,G#5
2511,Left,1,71,80,408.0,0.989583,Quarter,G#4_E4_B4
2519,Left,1,37,120,409.0,1.989583,Half,E2_C#3_C#2_A2
2515,Right,0,61,120,409.0,1.989583,Half,E4_C#4_A4_A3
2523,Right,0,64,80,410.25,0.489583,Eighth,E4
2524,Right,0,66,80,410.5,0.489583,Eighth,F#4
2525,Right,0,68,80,410.75,0.489583,Eighth,G#4
2526,Right,0,69,80,411.0,0.489583,Eighth,A4
2527,Right,0,71,80,411.25,0.489583,Eighth,B4
2528,Right,0,73,80,411.5,0.489583,Eighth,C#5
2529,Right,0,71,80,411.75,0.489583,Eighth,B4
2530,Right,0,69,80,412.0,0.489583,Eighth,A4
2531,Right,0,64,80,412.25,0.489583,Eighth,E4
2532,Right,0,66,80,412.5,0.489583,Eighth,F#4
2533,Right,0,68,80,412.75,0.489583,Eighth,G#4
2534,Right,0,69,80,413.0,0.489583,Eighth,A4
2535,Left,1,49,80,413.0,0.989583,Quarter,E3_C#3_A3
2538,Right,0,71,80,413.25,0.489583,Eighth,B4
2539,Right,0,73,80,413.5,0.489583,Eighth,C#5
2540,Right,0,71,80,413.75,0.489583,Eighth,B4
2541,Right,0,69,80,414.0,0.489583,Eighth,A4
2542,Right,0,64,80,414.25,0.489583,Eighth,E4
2543,Right,0,66,80,414.5,0.489583,Eighth,F#4
2544,Right,0,68,80,414.75,0.489583,Eighth,G#4
2548,Right,0,69,80,415.0,0.489583,Eighth,A4
2545,Left,1,57,80,415.0,0.989583,Quarter,E3_C#3_A3
2549,Right,0,71,80,415.25,0.489583,Eighth,B4
2550,Right,0,73,80,415.5,0.489583,Eighth,C#5
2551,Right,0,71,80,415.75,0.489583,Eighth,B4
2552,Right,0,69,80,416.0,0.489583,Eighth,A4
2553,Right,0,64,80,416.25,0.489583,Eighth,E4
2554,Left,1,49,81,416.5,0.739583,DottedEighth,E3_C#3_A3
2557,Right,0,66,81,416.5,0.489583,Eighth,F#4
2558,Right,0,68,82,416.75,0.489583,Eighth,G#4
2559,Right,0,69,83,417.0,0.489583,Eighth,A4
2560,Right,0,71,84,417.25,0.489583,Eighth,B4
2564,Right,0,73,85,417.5,0.489583,Eighth,C#5
2561,Left,1,49,85,417.5,0.739583,DottedEighth,E3_C#3_A3
2565,Right,0,71,86,417.75,0.489583,Eighth,B4
2566,Right,0,69,87,418.0,0.489583,Eighth,A4
2567,Right,0,64,88,418.25,0.489583,Eighth,E4
2569,Right,0,66,89,418.5,0.489583,Eighth,F#4
2568,Left,1,49,89,418.5,0.739583,DottedEighth,E3_C#3_A3
2572,Right,0,68,90,418.75,0.489583,Eighth,G#4
2573,Right,0,69,91,419.0,0.489583,Eighth,A4
2574,Right,0,71,92,419.25,0.489583,Eighth,B4
2577,Right,0,73,93,419.5,0.489583,Eighth,C#5
2575,Left,1,49,93,419.5,0.489583,Eighth,E3_C#3_A3
2579,Right,0,71,94,419.75,0.489583,Eighth,B4
2580,Left,1,49,94,420.0,1.489583,DottedQuarter,E3_C#3_A3
2583,Right,0,69,94,420.0,0.489583,Eighth,A4
2584,Right,0,64,95,420.25,0.489583,Eighth,E4
2585,Right,0,66,96,420.5,0.489583,Eighth,F#4
2586,Right,0,68,97,420.75,0.489583,Eighth,G#4
2587,Right,0,69,98,421.0,0.489583,Eighth,A4
2588,Right,0,71,99,421.25,0.489583,Eighth,B4
2589,Right,0,73,100,421.5,0.489583,Eighth,C#5
2590,Right,0,75,101,421.75,0.489583,Eighth,D#5
2591,Right,0,76,102,422.0,0.489583,Eighth,E5
2592,Right,0,78,103,422.25,0.489583,Eighth,F#5
2593,Right,0,80,104,422.5,0.489583,Eighth,G#5
2594,Right,0,81,105,422.75,0.489583,Eighth,A5
2595,Right,0,83,106,423.0,0.489583,Eighth,B5
2596,Right,0,85,107,423.25,0.489583,Eighth,C#6
2597,Right,0,86,108,423.5,0.489583,Eighth,D6
2598,Right,0,87,109,423.75,0.489583,Eighth,D#6
2600,Right,0,88,110,424.0,1.989583,Half,E6_E5
2599,Left,1,49,110,424.0,0.489583,Eighth,C#3
2602,Left,1,57,110,424.25,0.489583,Eighth,A3
2603,Left,1,52,110,424.5,0.489583,Eighth,E3
2604,Left,1,57,110,424.75,0.489583,Eighth,A3
2605,Left,1,49,110,425.0,0.489583,Eighth,C#3
2606,Left,1,57,110,425.25,0.489583,Eighth,A3
2607,Left,1,52,110,425.5,0.489583,Eighth,E3
2608,Left,1,57,110,425.75,0.489583,Eighth,A3
2610,Right,0,80,110,426.0,1.989583,Half,G#5_G#4
2609,Left,1,50,110,426.0,0.489583,Eighth,D3
2612,Left,1,59,110,426.25,0.489583,Eighth,B3
2613,Left,1,53,110,426.5,0.489583,Eighth,F3
2614,Left,1,59,110,426.75,0.489583,Eighth,B3
2615,Left,1,50,110,427.0,0.489583,Eighth,D3
2616,Left,1,59,110,427.25,0.489583,Eighth,B3
2617,Left,1,53,110,427.5,0.489583,Eighth,F3
2618,Left,1,59,110,427.75,0.489583,Eighth,B3
2619,Left,1,51,110,428.0,0.489583,Eighth,D#3
2620,Right,0,83,110,428.0,1.989583,Half,B5_B4
2622,Left,1,59,110,428.25,0.489583,Eighth,B3
2623,Left,1,56,110,428.5,0.489583,Eighth,G#3
2624,Left,1,59,110,428.75,0.489583,Eighth,B3
2625,Left,1,51,110,429.0,0.489583,Eighth,D#3
2626,Left,1,59,110,429.25,0.489583,Eighth,B3
2627,Left,1,56,110,429.5,0.489583,Eighth,G#3
2628,Left,1,59,110,429.75,0.489583,Eighth,B3
2631,Left,1,39,110,430.0,0.489583,Eighth,D#2
2629,Right,0,55,110,430.0,1.989583,Half,G4_G3_C#4
2633,Left,1,51,110,430.25,0.489583,Eighth,D#3
2634,Left,1,50,110,430.5,0.489583,Eighth,D3
2635,Left,1,51,110,430.75,0.489583,Eighth,D#3
2636,Left,1,50,110,431.0,0.489583,Eighth,D3
2637,Left,1,51,110,431.25,0.489583,Eighth,D#3
2638,Left,1,50,110,431.5,0.489583,Eighth,D3
2639,Left,1,51,110,431.75,0.489583,Eighth,D#3
2641,Right,0,68,110,432.0,0.989583,Quarter,G#4_G#3_B3
2640,Left,1,44,110,432.0,0.989583,Quarter,G#2
2644,Right,0,71,80,432.5,0.489583,Eighth,D#4_B4
2645,Left,1,56,80,432.5,0.489583,Eighth,G#3
2648,Right,0,71,80,433.0,0.489583,Eighth,D#4_B4
2647,Left,1,56,80,433.0,0.489583,Eighth,G#3
2651,Right,0,71,80,433.5,0.489583,Eighth,D#4_B4
2650,Left,1,56,80,433.5,0.489583,Eighth,G#3
2654,Right,0,63,80,434.0,0.489583,Eighth,D#4_B4
2653,Left,1,56,80,434.0,0.489583,Eighth,G#3
2656,Right,0,63,80,434.5,0.489583,Eighth,D#4_B4
2658,Left,1,56,80,434.5,0.489583,Eighth,G#3
2659,Right,0,63,80,435.0,0.489583,Eighth,D#4_A#4
2661,Left,1,58,80,435.0,0.489583,Eighth,A#3
2662,Right,0,63,80,435.5,0.489583,Eighth,G#4_D#4
2664,Left,1,59,80,435.5,0.489583,Eighth,B3
2666,Left,1,51,80,436.0,0.489583,Eighth,D#3_C#4
2665,Right,0,63,80,436.0,0.489583,Eighth,G4_D#4
2671,Right,0,67,80,436.5,0.489583,Eighth,G4_D#5
2669,Left,1,63,80,436.5,0.489583,Eighth,D#4_C#4
2675,Left,1,63,80,437.0,0.489583,Eighth,D#4_C#4
2673,Right,0,67,80,437.0,0.489583,Eighth,G4_D#5
2679,Left,1,61,80,437.5,0.489583,Eighth,D#4_C#4
2677,Right,0,67,80,437.5,0.489583,Eighth,G4_D#5
2682,Left,1,63,80,438.0,0.489583,Eighth,D#4_C#4
2681,Right,0,67,80,438.0,0.489583,Eighth,G4_D#5
2687,Left,1,63,80,438.5,0.489583,Eighth,D#4_C#4
2685,Right,0,75,80,438.5,0.489583,Eighth,G4_D#5
2689,Left,1,63,80,439.0,0.489583,Eighth,D#4_C#4_B3
2690,Right,0,75,80,439.0,0.489583,Eighth,G#4_D#5
2694,Left,1,58,80,439.5,0.489583,Eighth,D#4_A#3
2696,Right,0,70,80,439.5,0.489583,Eighth,D#5_A#4
2699,Left,1,44,80,440.0,0.489583,Eighth,G#3_G#2
2698,Right,0,71,80,440.0,0.489583,Eighth,D#5_B4
2702,Right,0,71,80,440.5,0.489583,Eighth,D#4_B4
2704,Left,1,56,80,440.5,0.489583,Eighth,G#3
2706,Right,0,63,80,441.0,0.489583,Eighth,D#4_B4
2705,Left,1,56,80,441.0,0.489583,Eighth,G#3
2708,Left,1,56,80,441.5,0.489583,Eighth,G#3
2709,Right,0,63,80,441.5,0.489583,Eighth,D#4_B4
2713,Left,1,56,80,442.0,0.489583,Eighth,G#3
2711,Right,0,63,80,442.0,0.489583,Eighth,D#4_B4
2715,Right,0,63,80,442.5,0.489583,Eighth,D#4_B4
2714,Left,1,56,80,442.5,0.489583,Eighth,G#3
2717,Right,0,70,80,443.0,0.489583,Eighth,D#4_A#4
2718,Left,1,58,80,443.0,0.489583,Eighth,A#3
2721,Left,1,59,80,443.5,0.489583,Eighth,B3
2720,Right,0,63,80,443.5,0.489583,Eighth,G#4_D#4
2723,Right,0,67,80,444.0,0.489583,Eighth,G4_D#4
2724,Left,1,51,80,444.0,0.489583,Eighth,D#3_C#4
2727,Right,0,67,80,444.5,0.489583,Eighth,G4_D#5
2729,Left,1,63,80,444.5,0.489583,Eighth,D#4_C#4
2733,Right,0,75,80,445.0,0.489583,Eighth,G4_D#5
2731,Left,1,63,80,445.0,0.489583,Eighth,D#4_C#4
2737,Left,1,61,80,445.5,0.489583,Eighth,D#4_C#4
2735,Right,0,67,80,445.5,0.489583,Eighth,G4_D#5
2739,Right,0,67,80,446.0,0.489583,Eighth,G4_D#5
2741,Left,1,61,80,446.0,0.489583,Eighth,D#4_C#4
2744,Right,0,67,80,446.5,0.489583,Eighth,G4_D#5
2743,Left,1,61,80,446.5,0.489583,Eighth,D#4_C#4
2747,Left,1,61,80,447.0,0.489583,Eighth,D#4_C#4_B3
2750,Right,0,68,80,447.0,0.489583,Eighth,G#4_D#5
2752,Left,1,63,80,447.5,0.489583,Eighth,D#4_A#3
2753,Right,0,70,80,447.5,0.489583,Eighth,D#5_A#4
2758,Left,1,44,80,448.0,0.489583,Eighth,G#2
2756,Right,0,71,80,448.0,0.489583,Eighth,D#5_B4
2760,Left,1,56,80,448.5,0.489583,Eighth,G#3_B3
2759,Right,0,75,80,448.5,0.489583,Eighth,D#5_B4
2765,Right,0,71,80,449.0,0.489583,Eighth,D#5_B4
2763,Left,1,59,80,449.0,0.489583,Eighth,G#3_B3
2767,Right,0,71,80,449.5,0.489583,Eighth,G#4_B4
2769,Left,1,63,80,449.5,0.489583,Eighth,D#4_B3
2771,Left,1,49,80,450.0,0.489583,Eighth,C#3
2772,Right,0,76,80,450.5,0.489583,Eighth,E5_C#5
2774,Left,1,56,80,450.5,0.489583,Eighth,G#3_C#4
2776,Left,1,56,80,451.0,0.489583,Eighth,G#3_C#4
2777,Right,0,73,80,451.0,0.489583,Eighth,E5_C#5
2782,Right,0,68,80,451.5,0.489583,Eighth,G#4_C#5
2780,Left,1,64,80,451.5,0.489583,Eighth,E4_C#4
2784,Left,1,51,80,452.0,0.489583,Eighth,D#3
2785,Right,0,71,80,452.5,0.489583,Eighth,D#5_B4
2787,Left,1,56,80,452.5,0.489583,Eighth,G#3_B3
2791,Right,0,71,80,453.0,0.489583,Eighth,D#5_B4
2789,Left,1,56,80,453.0,0.489583,Eighth,G#3_B3
2793,Left,1,63,80,453.5,0.489583,Eighth,D#4_B3
2795,Right,0,68,80,453.5,0.489583,Eighth,G#4_B4
2797,Left,1,51,80,454.0,0.489583,Eighth,D#3
2798,Left,1,55,80,454.5,0.489583,Eighth,G3_A#3
2799,Right,0,70,80,454.5,0.489583,Eighth,D#5_A#4
2804,Right,0,70,80,455.0,0.489583,Eighth,D#5_A#4
2802,Left,1,58,80,455.0,0.489583,Eighth,G3_A#3
2806,Left,1,63,80,455.5,0.489583,Eighth,D#4_A#3
2808,Right,0,70,80,455.5,0.489583,Eighth,G4_A#4
2810,Right,0,71,80,456.0,0.489583,Eighth,G#4_B4
2811,Left,1,44,80,456.0,0.489583,Eighth,G#2_G#1
2816,Left,1,44,80,456.5,0.489583,Eighth,G#2_D#3
2814,Right,0,71,80,456.5,0.489583,Eighth,D#5_B5_B4
2819,Left,1,51,82,457.0,0.489583,Eighth,G#2_D#3
2820,Right,0,83,82,457.0,0.489583,Eighth,D#5_B5_B4
2824,Left,1,51,85,457.5,0.489583,Eighth,G#2_D#3
2826,Right,0,75,85,457.5,0.489583,Eighth,D#5_B5_B4
2829,Left,1,51,88,458.0,0.489583,Eighth,G#2_D#3
2831,Right,0,83,88,458.0,0.489583,Eighth,D#5_B5_B4
2834,Left,1,51,91,458.5,0.489583,Eighth,G#2_D#3
2835,Right,0,83,91,458.5,0.489583,Eighth,D#5_B5_B4
2839,Left,1,51,94,459.0,0.489583,Eighth,D#3_A#2
2840,Right,0,70,94,459.0,0.489583,Eighth,C#5_A#5_A#4
2846,Right,0,68,97,459.5,0.489583,Eighth,G#5_G#4_B4
2844,Left,1,51,97,459.5,0.489583,Eighth,D#3_B2
2849,Left,1,49,99,460.0,0.489583,Eighth,D#3_D#2_C#3
2851,Right,0,67,99,460.0,0.489583,Eighth,G5_G4_A#4
2856,Right,0,88,110,460.5,0.489583,Eighth,G5_E6_E5
2855,Left,1,61,110,460.5,0.489583,Eighth,D#3_C#4
2862,Left,1,61,110,461.0,0.489583,Eighth,D#3_C#4
2860,Right,0,88,110,461.0,0.489583,Eighth,G5_E6_E5
2865,Right,0,76,110,461.5,0.489583,Eighth,G5_E6_E5
2868,Left,1,51,110,461.5,0.489583,Eighth,D#3_C#4
2872,Right,0,79,110,462.0,0.489583,Eighth,G5_E6_E5
2870,Left,1,61,110,462.0,0.489583,Eighth,D#3_C#4
2877,Right,0,79,110,462.5,0.489583,Eighth,G5_E6_E5
2875,Left,1,51,110,462.5,0.489583,Eighth,D#3_C#4
2880,Right,0,79,110,463.0,0.489583,Eighth,G5_D#6_D#5
2881,Left,1,51,110,463.0,0.489583,Eighth,D#3_B3
2886,Left,1,51,110,463.5,0.489583,Eighth,D#3_A#3
2885,Right,0,73,110,463.5,0.489583,Eighth,G5_C#6_C#5
2890,Left,1,44,110,464.0,0.489583,Eighth,G#2_G#1
2892,Right,0,80,110,464.0,0.489583,Eighth,G#5_B5_B4
2895,Right,0,75,80,464.5,0.489583,Eighth,D#5_B5_B4
2898,Left,1,51,80,464.5,0.489583,Eighth,G#2_D#3
2903,Left,1,51,82,465.0,0.489583,Eighth,G#2_D#3
2900,Right,0,83,82,465.0,0.489583,Eighth,D#5_B5_B4
2906,Left,1,44,85,465.5,0.489583,Eighth,G#2_D#3
2905,Right,0,71,85,465.5,0.489583,Eighth,D#5_B5_B4
2910,Right,0,83,88,466.0,0.489583,Eighth,D#5_B5_B4
2913,Left,1,44,88,466.0,0.489583,Eighth,G#2_D#3
2917,Right,0,71,91,466.5,0.489583,Eighth,D#5_B5_B4
2915,Left,1,44,91,466.5,0.489583,Eighth,G#2_D#3
2920,Right,0,82,94,467.0,0.489583,Eighth,C#5_A#5_A#4
2921,Left,1,46,94,467.0,0.489583,Eighth,D#3_A#2
2925,Left,1,47,97,467.5,0.489583,Eighth,D#3_B2
2926,Right,0,71,97,467.5,0.489583,Eighth,G#5_G#4_B4
2930,Right,0,70,99,468.0,0.489583,Eighth,G5_G4_A#4
2931,Left,1,49,99,468.0,0.489583,Eighth,D#3_D#2_C#3
2937,Right,0,79,110,468.5,0.489583,Eighth,G5_E6_E5
2936,Left,1,61,110,468.5,0.489583,Eighth,D#3_C#4
2943,Left,1,61,110,469.0,0.489583,Eighth,D#3_C#4
2941,Right,0,76,110,469.0,0.489583,Eighth,G5_E6_E5
2946,Right,0,79,110,469.5,0.489583,Eighth,G5_E6_E5
2949,Left,1,61,110,469.5,0.489583,Eighth,D#3_C#4
2954,Left,1,61,110,470.0,0.489583,Eighth,D#3_C#4
2951,Right,0,79,110,470.0,0.489583,Eighth,G5_E6_E5
2956,Right,0,88,110,470.5,0.489583,Eighth,G5_E6_E5
2958,Left,1,61,110,470.5,0.489583,Eighth,D#3_C#4
2962,Right,0,79,110,471.0,0.489583,Eighth,G5_D#6_D#5
2961,Left,1,51,110,471.0,0.489583,Eighth,D#3_B3
2966,Left,1,58,110,471.5,0.489583,Eighth,D#3_A#3
2968,Right,0,79,110,471.5,0.489583,Eighth,G5_C#6_C#5
2973,Left,1,44,110,472.0,0.489583,Eighth,G#3_G#2
2971,Right,0,80,110,472.0,0.489583,Eighth,G#5_B5_B4
2976,Right,0,80,80,472.5,0.489583,Eighth,G#5_B5
2977,Left,1,59,80,472.5,0.489583,Eighth,D#4_B3
2980,Left,1,59,80,473.0,0.489583,Eighth,D#4_B3
2982,Right,0,83,80,473.0,0.489583,Eighth,G#5_B5
2986,Right,0,83,80,473.5,0.489583,Eighth,D#6_B5
2984,Left,1,59,80,473.5,0.489583,Eighth,G#3_B3
2988,Left,1,49,80,474.0,0.489583,Eighth,C#3
2990,Right,0,80,80,474.5,0.489583,Eighth,G#5_C#6
2989,Left,1,61,80,474.5,0.489583,Eighth,E4_C#4
2993,Right,0,85,80,475.0,0.489583,Eighth,G#5_C#6
2995,Left,1,64,80,475.0,0.489583,Eighth,E4_C#4
2997,Left,1,56,80,475.5,0.489583,Eighth,G#3_C#4
2999,Right,0,85,80,475.5,0.489583,Eighth,E6_C#6
3001,Left,1,51,80,476.0,0.489583,Eighth,D#3
3002,Left,1,59,80,476.5,0.489583,Eighth,D#4_B3
3003,Right,0,80,80,476.5,0.489583,Eighth,G#5_B5
3008,Right,0,80,80,477.0,0.489583,Eighth,G#5_B5
3006,Left,1,63,80,477.0,0.489583,Eighth,D#4_B3
3010,Left,1,56,80,477.5,0.489583,Eighth,G#3_B3
3011,Right,0,87,80,477.5,0.489583,Eighth,D#6_B5
3014,Left,1,49,80,478.0,0.489583,Eighth,C#3
3017,Right,0,82,80,478.5,0.489583,Eighth,G5_A#5
3015,Left,1,63,80,478.5,0.489583,Eighth,D#4_A#3
3019,Left,1,58,80,479.0,0.489583,Eighth,D#4_A#3
3020,Right,0,82,80,479.0,0.489583,Eighth,G5_A#5
3025,Left,1,55,80,479.5,0.489583,Eighth,G3_A#3
3023,Right,0,87,80,479.5,0.489583,Eighth,D#6_A#5
3027,Left,1,47,80,480.0,0.489583,Eighth,B2
3028,Left,1,63,82,480.5,0.489583,Eighth,G#4_D#4
3030,Right,0,83,82,480.5,0.489583,Eighth,D#5_B5
3034,Right,0,83,85,481.0,0.489583,Eighth,D#5_B5
3032,Left,1,63,85,481.0,0.489583,Eighth,G#4_D#4
3037,Left,1,59,88,481.5,0.489583,Eighth,D#4_B3
3036,Right,0,87,88,481.5,0.489583,Eighth,G#5_D#6
3040,Left,1,49,91,482.0,0.489583,Eighth,C#3
3041,Right,0,81,94,482.5,0.489583,Eighth,C#5_A5
3042,Left,1,64,94,482.5,0.489583,Eighth,E4_A4
3047,Right,0,73,97,483.0,0.489583,Eighth,C#5_A5
3045,Left,1,64,97,483.0,0.489583,Eighth,E4_A4
3049,Left,1,64,99,483.5,0.489583,Eighth,E4_C#4
3050,Right,0,76,99,483.5,0.489583,Eighth,E5_C#6
3053,Left,1,51,100,484.0,0.489583,Eighth,D#3
3054,Right,0,80,100,484.5,0.489583,Eighth,G#5_B4
3056,Left,1,68,100,484.5,0.489583,Eighth,G#4_D#4
3058,Right,0,80,100,485.0,0.489583,Eighth,G#5_B4
3059,Left,1,68,100,485.0,0.489583,Eighth,G#4_D#4
3062,Right,0,83,100,485.5,0.489583,Eighth,D#5_B5
3063,Left,1,63,100,485.5,0.489583,Eighth,D#4_B3
3066,Left,1,51,90,486.0,0.489583,Eighth,D#3
3068,Right,0,70,87,486.5,0.489583,Eighth,G5_A#4
3067,Left,1,67,87,486.5,0.489583,Eighth,G4_C#4
3071,Right,0,79,84,487.0,0.489583,Eighth,G5_A#4
3073,Left,1,61,84,487.0,0.489583,Eighth,G4_C#4
3075,Left,1,58,81,487.5,0.489583,Eighth,C#4_A#3
3077,Right,0,82,81,487.5,0.489583,Eighth,C#5_A#5
3079,Right,0,80,80,488.0,0.989583,Quarter,G#5_B4
3081,Left,1,44,70,488.0,0.489583,Eighth,G#2
3082,Left,1,56,70,488.25,0.489583,Eighth,G#3
3083,Left,1,51,70,488.5,0.489583,Eighth,D#3
3084,Left,1,56,70,488.75,0.489583,Eighth,G#3
3085,Left,1,44,70,489.0,0.489583,Eighth,G#2
3086,Left,1,56,70,489.25,0.489583,Eighth,G#3
3087,Left,1,51,70,489.5,0.489583,Eighth,D#3
3088,Left,1,56,70,489.75,0.489583,Eighth,G#3
3089,Left,1,44,70,490.0,0.489583,Eighth,G#2
3090,Left,1,56,70,490.25,0.489583,Eighth,G#3
3091,Left,1,51,70,490.5,0.489583,Eighth,D#3
3092,Left,1,56,70,490.75,0.489583,Eighth,G#3
3094,Right,0,71,80,491.0,0.989583,Quarter,B4
3093,Left,1,44,70,491.0,0.489583,Eighth,G#2
3095,Left,1,56,70,491.25,0.489583,Eighth,G#3
3096,Left,1,51,70,491.5,0.489583,Eighth,D#3
3098,Right,0,68,80,491.75,0.489583,Eighth,G#4
3097,Left,1,56,70,491.75,0.489583,Eighth,G#3
3099,Right,0,67,80,492.0,0.989583,Quarter,G4
3100,Left,1,44,70,492.0,0.489583,Eighth,G#2
3101,Left,1,58,70,492.25,0.489583,Eighth,A#3
3102,Left,1,51,70,492.5,0.489583,Eighth,D#3
3103,Left,1,58,70,492.75,0.489583,Eighth,A#3
3105,Right,0,67,80,493.0,0.989583,Quarter,G4_D#5_C#4
3104,Left,1,44,70,493.0,0.489583,Eighth,G#2
3108,Left,1,58,70,493.25,0.489583,Eighth,A#3
3109,Left,1,51,70,493.5,0.489583,Eighth,D#3
3110,Left,1,58,70,493.75,0.489583,Eighth,A#3
3114,Left,1,44,70,494.0,0.489583,Eighth,G#2
3111,Right,0,75,80,494.0,0.989583,Quarter,G4_D#5_C#4
3115,Left,1,58,70,494.25,0.489583,Eighth,A#3
3116,Left,1,51,70,494.5,0.489583,Eighth,D#3
3117,Left,1,58,70,494.75,0.489583,Eighth,A#3
3118,Left,1,44,70,495.0,0.489583,Eighth,G#2
3119,Right,0,67,80,495.0,0.989583,Quarter,G4_D#5_C#4
3122,Left,1,58,70,495.25,0.489583,Eighth,A#3
3123,Left,1,51,70,495.5,0.489583,Eighth,D#3
3124,Left,1,58,70,495.75,0.489583,Eighth,A#3
3125,Right,0,59,80,496.0,0.989583,Quarter,B3
3126,Left,1,44,70,496.0,0.489583,Eighth,G#2
3127,Right,0,68,80,496.083333,0.90625,Quarter,G#4
3128,Right,0,75,80,496.166667,2.822917,DottedHalf,D#5
3129,Left,1,56,70,496.25,0.489583,Eighth,G#3
3130,Left,1,51,70,496.5,0.489583,Eighth,D#3
3131,Left,1,56,70,496.75,0.489583,Eighth,G#3
3132,Left,1,44,70,497.0,0.489583,Eighth,G#2
3133,Left,1,56,70,497.25,0.489583,Eighth,G#3
3134,Left,1,51,70,497.5,0.489583,Eighth,D#3
3135,Left,1,56,70,497.75,0.489583,Eighth,G#3
3136,Left,1,44,70,498.0,0.489583,Eighth,G#2
3137,Left,1,56,70,498.25,0.489583,Eighth,G#3
3138,Left,1,51,70,498.5,0.489583,Eighth,D#3
3139,Left,1,56,70,498.75,0.489583,Eighth,G#3
3141,Right,0,83,80,499.0,0.989583,Quarter,B5
3140,Left,1,44,70,499.0,0.489583,Eighth,G#2
3142,Left,1,56,70,499.25,0.489583,Eighth,G#3
3143,Left,1,51,70,499.5,0.489583,Eighth,D#3
3145,Right,0,80,80,499.75,0.489583,Eighth,G#5
3144,Left,1,56,70,499.75,0.489583,Eighth,G#3
3147,Right,0,79,80,500.0,0.989583,Quarter,G5
3146,Left,1,44,70,500.0,0.489583,Eighth,G#2
3148,Left,1,58,70,500.25,0.489583,Eighth,A#3
3149,Left,1,51,70,500.5,0.489583,Eighth,D#3
3150,Left,1,58,70,500.75,0.489583,Eighth,A#3
3152,Right,0,79,80,501.0,0.989583,Quarter,G5_D#6_C#5
3151,Left,1,44,70,501.0,0.489583,Eighth,G#2
3155,Left,1,58,70,501.25,0.489583,Eighth,A#3
3156,Left,1,51,70,501.5,0.489583,Eighth,D#3
3157,Left,1,58,70,501.75,0.489583,Eighth,A#3
3159,Left,1,44,70,502.0,0.489583,Eighth,G#2
3158,Right,0,79,80,502.0,0.989583,Quarter,G5_D#6_C#5
3162,Left,1,58,70,502.25,0.489583,Eighth,A#3
3163,Left,1,51,70,502.5,0.489583,Eighth,D#3
3164,Left,1,58,70,502.75,0.489583,Eighth,A#3
3166,Left,1,44,70,503.0,0.489583,Eighth,G#2
3165,Right,0,79,80,503.0,0.989583,Quarter,G5_D#6_C#5
3169,Left,1,58,70,503.25,0.489583,Eighth,A#3
3170,Left,1,51,70,503.5,0.489583,Eighth,D#3
3171,Left,1,58,70,503.75,0.489583,Eighth,A#3
3173,Left,1,44,70,504.0,0.489583,Eighth,G#2
3172,Right,0,71,80,504.0,0.989583,Quarter,B4
3174,Right,0,80,80,504.083333,0.90625,Quarter,G#5
3175,Right,0,87,80,504.166667,1.822917,Half,D#6
3176,Left,1,56,70,504.25,0.489583,Eighth,G#3
3177,Left,1,51,70,504.5,0.489583,Eighth,D#3
3178,Left,1,56,70,504.75,0.489583,Eighth,G#3
3179,Left,1,44,70,505.0,0.489583,Eighth,G#2
3180,Left,1,56,70,505.25,0.489583,Eighth,G#3
3181,Left,1,51,70,505.5,0.489583,Eighth,D#3
3182,Left,1,56,70,505.75,0.489583,Eighth,G#3
3184,Right,0,73,80,506.0,0.989583,Quarter,C#5
3183,Left,1,44,70,506.0,0.489583,Eighth,G#2
3185,Right,0,79,80,506.083333,0.90625,Quarter,G5
3186,Right,0,87,80,506.166667,1.822917,Half,D#6
3187,Left,1,58,70,506.25,0.489583,Eighth,A#3
3188,Left,1,51,70,506.5,0.489583,Eighth,D#3
3189,Left,1,58,70,506.75,0.489583,Eighth,A#3
3190,Left,1,44,70,507.0,0.489583,Eighth,G#2
3191,Left,1,58,70,507.25,0.489583,Eighth,A#3
3192,Left,1,51,70,507.5,0.489583,Eighth,D#3
3193,Left,1,58,70,507.75,0.489583,Eighth,A#3
3195,Right,0,71,80,508.0,0.989583,Quarter,B4
3194,Left,1,44,70,508.0,0.489583,Eighth,G#2
3196,Right,0,80,80,508.083333,0.90625,Quarter,G#5
3197,Right,0,87,80,508.166667,1.822917,Half,D#6
3198,Left,1,56,70,508.25,0.489583,Eighth,G#3
3199,Left,1,51,70,508.5,0.489583,Eighth,D#3
3200,Left,1,56,70,508.75,0.489583,Eighth,G#3
3201,Left,1,44,70,509.0,0.489583,Eighth,G#2
3202,Left,1,56,70,509.25,0.489583,Eighth,G#3
3203,Left,1,51,70,509.5,0.489583,Eighth,D#3
3204,Left,1,56,70,509.75,0.489583,Eighth,G#3
3206,Left,1,44,70,510.0,0.489583,Eighth,G#2
3205,Right,0,73,80,510.0,0.989583,Quarter,C#5
3207,Right,0,79,80,510.083333,0.90625,Quarter,G5
3208,Right,0,87,80,510.166667,1.822917,Half,D#6
3209,Left,1,58,70,510.25,0.489583,Eighth,A#3
3210,Left,1,51,70,510.5,0.489583,Eighth,D#3
3211,Left,1,58,70,510.75,0.489583,Eighth,A#3
3212,Left,1,44,70,511.0,0.489583,Eighth,G#2
3213,Left,1,58,70,511.25,0.489583,Eighth,A#3
3214,Left,1,51,70,511.5,0.489583,Eighth,D#3
3215,Left,1,58,70,511.75,0.489583,Eighth,A#3
3216,Left,1,44,80,512.0,0.489583,Eighth,G#2
3217,Right,0,59,80,512.0,0.489583,Eighth,B3
3219,Left,1,56,80,512.25,0.489583,Eighth,G#3
3218,Right,0,68,80,512.25,0.489583,Eighth,G#4
3221,Right,0,63,81,512.5,0.489583,Eighth,D#4
3220,Left,1,51,81,512.5,0.489583,Eighth,D#3
3222,Right,0,68,82,512.75,0.489583,Eighth,G#4
3223,Left,1,56,82,512.75,0.489583,Eighth,G#3
3225,Left,1,44,83,513.0,0.489583,Eighth,G#2
3224,Right,0,59,83,513.0,0.489583,Eighth,B3
3226,Right,0,68,84,513.25,0.489583,Eighth,G#4
3227,Left,1,56,84,513.25,0.489583,Eighth,G#3
3229,Right,0,63,85,513.5,0.489583,Eighth,D#4
3228,Left,1,51,85,513.5,0.489583,Eighth,D#3
3230,Left,1,56,86,513.75,0.489583,Eighth,G#3
3231,Right,0,68,86,513.75,0.489583,Eighth,G#4
3232,Left,1,44,87,514.0,0.489583,Eighth,G#2
3233,Right,0,59,87,514.0,0.489583,Eighth,B3
3234,Right,0,68,88,514.25,0.489583,Eighth,G#4
3235,Left,1,56,88,514.25,0.489583,Eighth,G#3
3237,Right,0,63,89,514.5,0.489583,Eighth,D#4
3236,Left,1,51,89,514.5,0.489583,Eighth,D#3
3238,Right,0,68,90,514.75,0.489583,Eighth,G#4
3239,Left,1,56,90,514.75,0.489583,Eighth,G#3
3241,Right,0,59,91,515.0,0.489583,Eighth,B3
3240,Left,1,44,91,515.0,0.489583,Eighth,G#2
3243,Right,0,68,92,515.25,0.489583,Eighth,G#4
3242,Left,1,56,92,515.25,0.489583,Eighth,G#3
3245,Right,0,63,93,515.5,0.489583,Eighth,D#4
3244,Left,1,51,93,515.5,0.489583,Eighth,D#3
3247,Right,0,68,94,515.75,0.489583,Eighth,G#4
3246,Left,1,56,94,515.75,0.489583,Eighth,G#3
3249,Right,0,60,94,516.0,0.489583,Eighth,C4
3248,Left,1,44,94,516.0,0.489583,Eighth,G#2
3250,Left,1,51,95,516.25,0.489583,Eighth,D#3
3251,Right,0,66,95,516.25,0.489583,Eighth,F#4
3252,Left,1,47,96,516.5,0.489583,Eighth,B2
3253,Right,0,63,96,516.5,0.489583,Eighth,D#4
3255,Right,0,66,97,516.75,0.489583,Eighth,F#4
3254,Left,1,51,97,516.75,0.489583,Eighth,D#3
3256,Left,1,44,98,517.0,0.489583,Eighth,G#2
3257,Right,0,60,98,517.0,0.489583,Eighth,C4
3259,Right,0,66,99,517.25,0.489583,Eighth,F#4
3258,Left,1,51,99,517.25,0.489583,Eighth,D#3
3260,Right,0,63,100,517.5,0.489583,Eighth,D#4
3261,Left,1,47,100,517.5,0.489583,Eighth,B2
3263,Left,1,51,101,517.75,0.489583,Eighth,D#3
3262,Right,0,66,101,517.75,0.489583,Eighth,F#4
3264,Right,0,60,102,518.0,0.489583,Eighth,C4
3265,Left,1,44,102,518.0,0.489583,Eighth,G#2
3266,Right,0,66,103,518.25,0.489583,Eighth,F#4
3267,Left,1,51,103,518.25,0.489583,Eighth,D#3
3268,Right,0,63,104,518.5,0.489583,Eighth,D#4
3269,Left,1,47,104,518.5,0.489583,Eighth,B2
3270,Right,0,66,105,518.75,0.489583,Eighth,F#4
3271,Left,1,51,105,518.75,0.489583,Eighth,D#3
3273,Left,1,44,106,519.0,0.489583,Eighth,G#2
3272,Right,0,60,106,519.0,0.489583,Eighth,C4
3275,Right,0,66,107,519.25,0.489583,Eighth,F#4
3274,Left,1,51,107,519.25,0.489583,Eighth,D#3
3277,Right,0,63,108,519.5,0.489583,Eighth,D#4
3276,Left,1,47,108,519.5,0.489583,Eighth,B2
3278,Right,0,66,109,519.75,0.489583,Eighth,F#4
3279,Left,1,51,109,519.75,0.489583,Eighth,D#3
3280,Left,1,37,110,520.0,0.489583,Eighth,C#2
3281,Right,0,61,110,520.0,0.989583,Quarter,G#3_F4_F3_C#4
3285,Right,0,49,80,520.25,0.489583,Eighth,C#3
3286,Right,0,53,80,520.5,0.489583,Eighth,F3
3287,Left,1,44,80,520.5,0.489583,Eighth,G#2
3288,Right,0,56,80,520.75,0.489583,Eighth,G#3
3289,Right,0,61,80,521.0,0.489583,Eighth,C#4
3290,Left,1,37,80,521.0,0.489583,Eighth,C#2
3291,Right,0,53,80,521.25,0.489583,Eighth,F3
3292,Left,1,44,80,521.5,0.489583,Eighth,G#2
3293,Right,0,56,80,521.5,0.489583,Eighth,G#3
3294,Right,0,61,80,521.75,0.489583,Eighth,C#4
3296,Left,1,37,80,522.0,0.489583,Eighth,C#2
3295,Right,0,65,80,522.0,0.489583,Eighth,F4
3297,Right,0,56,80,522.25,0.489583,Eighth,G#3
3298,Left,1,44,80,522.5,0.489583,Eighth,G#2
3299,Right,0,61,80,522.5,0.489583,Eighth,C#4
3300,Right,0,65,80,522.75,0.489583,Eighth,F4
3302,Left,1,37,80,523.0,0.489583,Eighth,C#2
3301,Right,0,68,80,523.0,0.489583,Eighth,G#4
3303,Right,0,61,80,523.25,0.489583,Eighth,C#4
3305,Right,0,65,80,523.5,0.489583,Eighth,F4
3304,Left,1,44,80,523.5,0.489583,Eighth,G#2
3306,Right,0,68,80,523.75,0.489583,Eighth,G#4
3307,Right,0,73,80,524.0,0.489583,Eighth,C#5
3308,Left,1,37,80,524.0,0.489583,Eighth,C#2
3309,Right,0,65,80,524.25,0.489583,Eighth,F4
3310,Right,0,68,80,524.5,0.489583,Eighth,G#4
3311,Left,1,44,80,524.5,0.489583,Eighth,G#2
3312,Right,0,73,80,524.75,0.489583,Eighth,C#5
3313,Right,0,77,80,525.0,0.489583,Eighth,F5
3314,Left,1,37,80,525.0,0.489583,Eighth,C#2
3315,Right,0,68,80,525.25,0.489583,Eighth,G#4
3317,Right,0,73,80,525.5,0.489583,Eighth,C#5
3316,Left,1,44,80,525.5,0.489583,Eighth,G#2
3318,Right,0,77,80,525.75,0.489583,Eighth,F5
3320,Right,0,80,80,526.0,0.489583,Eighth,G#5
3319,Left,1,37,80,526.0,0.489583,Eighth,C#2
3321,Right,0,73,80,526.25,0.489583,Eighth,C#5
3323,Right,0,77,80,526.5,0.489583,Eighth,F5
3322,Left,1,44,80,526.5,0.489583,Eighth,G#2
3324,Right,0,80,80,526.75,0.239583,Sixteenth,G#5
3327,Right,0,85,110,527.0,0.489583,Eighth,G#5_F5_C#6_C#5
3325,Left,1,49,110,527.0,0.989583,Quarter,C#3_C#2
3331,Right,0,73,110,527.5,0.489583,Eighth,G#5_F5_C#6_C#5
3333,Left,1,44,110,527.5,0.489583,Eighth,G#2
3336,Left,1,35,100,528.0,0.489583,Eighth,B1
3337,Right,0,49,80,528.25,0.489583,Eighth,C#3
3339,Left,1,44,80,528.5,0.489583,Eighth,G#2
3338,Right,0,53,80,528.5,0.489583,Eighth,F3
3340,Right,0,56,80,528.75,0.489583,Eighth,G#3
3341,Right,0,61,80,529.0,0.489583,Eighth,C#4
3342,Left,1,35,80,529.0,0.489583,Eighth,B1
3343,Right,0,53,80,529.25,0.489583,Eighth,F3
3344,Left,1,44,80,529.5,0.489583,Eighth,G#2
3345,Right,0,56,80,529.5,0.489583,Eighth,G#3
3346,Right,0,61,80,529.75,0.489583,Eighth,C#4
3347,Left,1,35,80,530.0,0.489583,Eighth,B1
3348,Right,0,65,80,530.0,0.489583,Eighth,F4
3349,Right,0,56,80,530.25,0.489583,Eighth,G#3
3350,Left,1,44,80,530.5,0.489583,Eighth,G#2
3351,Right,0,61,80,530.5,0.489583,Eighth,C#4
3352,Right,0,65,80,530.75,0.489583,Eighth,F4
3353,Right,0,68,80,531.0,0.489583,Eighth,G#4
3354,Left,1,35,80,531.0,0.489583,Eighth,B1
3355,Right,0,61,80,531.25,0.489583,Eighth,C#4
3356,Right,0,65,80,531.5,0.489583,Eighth,F4
3357,Left,1,44,80,531.5,0.489583,Eighth,G#2
3358,Right,0,68,80,531.75,0.489583,Eighth,G#4
3359,Left,1,35,80,532.0,0.489583,Eighth,B1
3360,Right,0,73,80,532.0,0.489583,Eighth,C#5
3361,Right,0,65,80,532.25,0.489583,Eighth,F4
3363,Left,1,44,80,532.5,0.489583,Eighth,G#2
3362,Right,0,68,80,532.5,0.489583,Eighth,G#4
3364,Right,0,73,80,532.75,0.489583,Eighth,C#5
3365,Right,0,77,80,533.0,0.489583,Eighth,F5
3366,Left,1,35,80,533.0,0.489583,Eighth,B1
3367,Right,0,68,80,533.25,0.489583,Eighth,G#4
3369,Left,1,44,80,533.5,0.489583,Eighth,G#2
3368,Right,0,73,80,533.5,0.489583,Eighth,C#5
3370,Right,0,77,80,533.75,0.489583,Eighth,F5
3371,Right,0,80,80,534.0,0.489583,Eighth,G#5
3372,Left,1,35,80,534.0,0.489583,Eighth,B1
3373,Right,0,73,80,534.25,0.489583,Eighth,C#5
3375,Right,0,77,80,534.5,0.489583,Eighth,F5
3374,Left,1,44,80,534.5,0.489583,Eighth,G#2
3376,Right,0,80,80,534.75,0.239583,Sixteenth,G#5
3381,Left,1,35,110,535.0,0.989583,Quarter,C#3_B1
3377,Right,0,85,110,535.0,0.489583,Eighth,G#5_F5_C#6_C#5
3384,Right,0,80,110,535.5,0.489583,Eighth,G#5_F5_C#6_C#5
3383,Left,1,44,110,535.5,0.489583,Eighth,G#2
3388,Left,1,33,80,536.0,0.489583,Eighth,A1
3389,Right,0,49,80,536.25,0.489583,Eighth,C#3
3391,Left,1,45,80,536.5,0.489583,Eighth,A2
3390,Right,0,54,80,536.5,0.489583,Eighth,F#3
3392,Right,0,57,80,536.75,0.489583,Eighth,A3
3394,Right,0,61,80,537.0,0.239583,Sixteenth,C#4
3393,Left,1,33,80,537.0,0.489583,Eighth,A1
3395,Right,0,61,80,537.25,0.489583,Eighth,C#4
3397,Left,1,45,80,537.5,0.489583,Eighth,A2
3396,Right,0,66,80,537.5,0.489583,Eighth,F#4
3398,Right,0,69,80,537.75,0.489583,Eighth,A4
3399,Left,1,33,80,538.0,0.489583,Eighth,A1
3400,Right,0,73,80,538.0,0.239583,Sixteenth,C#5
3401,Right,0,73,80,538.25,0.489583,Eighth,C#5
3402,Right,0,78,80,538.5,0.489583,Eighth,F#5
3403,Left,1,45,80,538.5,0.489583,Eighth,A2
3404,Right,0,81,80,538.75,0.239583,Sixteenth,A5
3405,Right,0,81,110,539.0,0.489583,Eighth,F#5_C#6_C#5_A5
3409,Left,1,33,110,539.0,0.989583,Quarter,A1
3411,Right,0,73,110,539.5,0.489583,Eighth,F#5_C#6_C#5_A5
3410,Left,1,45,110,539.5,0.489583,Eighth,A2
3415,Left,1,29,80,540.0,0.489583,Eighth,F1
3416,Right,0,49,80,540.25,0.489583,Eighth,C#3
3418,Left,1,41,80,540.5,0.489583,Eighth,F2
3417,Right,0,56,80,540.5,0.489583,Eighth,G#3
3419,Right,0,59,80,540.75,0.489583,Eighth,B3
3421,Left,1,29,80,541.0,0.489583,Eighth,F1
3420,Right,0,61,80,541.0,0.239583,Sixteenth,C#4
3422,Right,0,61,80,541.25,0.489583,Eighth,C#4
3423,Right,0,68,80,541.5,0.489583,Eighth,G#4
3424,Left,1,41,80,541.5,0.489583,Eighth,F2
3425,Right,0,71,80,541.75,0.489583,Eighth,B4
3426,Right,0,73,80,542.0,0.239583,Sixteenth,C#5
3427,Left,1,29,80,542.0,0.489583,Eighth,F1
3428,Right,0,73,80,542.25,0.489583,Eighth,C#5
3429,Right,0,80,80,542.5,0.489583,Eighth,G#5
3430,Left,1,41,80,542.5,0.489583,Eighth,F2
3431,Right,0,83,80,542.75,0.239583,Sixteenth,B5
3433,Right,0,73,110,543.0,0.489583,Eighth,G#5_C#6_C#5_B5
3432,Left,1,29,110,543.0,0.989583,Quarter,F1
3440,Left,1,41,110,543.5,0.489583,Eighth,F2
3437,Right,0,80,110,543.5,0.489583,Eighth,G#5_C#6_C#5_B5
3442,Right,0,78,100,544.0,0.989583,Quarter,F#5_C#6_C#5_A5
3446,Left,1,42,110,544.0,0.989583,Quarter,F#2_F#1
3448,Left,1,61,100,544.25,0.489583,Eighth,C#4
3449,Left,1,57,90,544.5,0.489583,Eighth,A3
3450,Left,1,61,80,544.75,0.489583,Eighth,C#4
3451,Left,1,54,70,545.0,0.489583,Eighth,F#3
3452,Right,0,73,80,545.0,1.989583,Half,C#5
3453,Left,1,61,70,545.25,0.489583,Eighth,C#4
3454,Left,1,57,70,545.5,0.489583,Eighth,A3
3455,Left,1,61,70,545.75,0.489583,Eighth,C#4
3456,Left,1,54,70,546.0,0.489583,Eighth,F#3
3457,Left,1,61,70,546.25,0.489583,Eighth,C#4
3458,Left,1,57,70,546.5,0.489583,Eighth,A3
3459,Left,1,61,70,546.75,0.489583,Eighth,C#4
3460,Right,0,69,80,547.0,0.989583,Quarter,A4
3461,Left,1,54,70,547.0,0.489583,Eighth,F#3
3462,Left,1,61,70,547.25,0.489583,Eighth,C#4
3463,Left,1,57,70,547.5,0.489583,Eighth,A3
3464,Left,1,61,70,547.75,0.489583,Eighth,C#4
3465,Right,0,66,100,547.75,0.239583,Sixteenth,F#4
3466,Left,1,56,70,548.0,0.489583,Eighth,G#3
3467,Right,0,65,80,548.0,0.489583,Eighth,F4
3468,Right,0,66,80,548.083333,0.15625,TripletSixteenth,F#4
3469,Right,0,68,80,548.166667,0.489583,Eighth,G#4
3471,Right,0,66,80,548.25,0.739583,DottedEighth,F#4
3470,Left,1,61,70,548.25,0.489583,Eighth,C#4
3472,Left,1,59,70,548.5,0.489583,Eighth,B3
3473,Left,1,61,70,548.75,0.489583,Eighth,C#4
3474,Left,1,56,70,549.0,0.489583,Eighth,G#3
3475,Right,0,65,80,549.0,1.489583,DottedQuarter,F4
3476,Left,1,61,70,549.25,0.489583,Eighth,C#4
3477,Left,1,59,70,549.5,0.489583,Eighth,B3
3478,Left,1,61,70,549.75,0.489583,Eighth,C#4
3479,Left,1,56,70,550.0,0.489583,Eighth,G#3
3480,Left,1,61,70,550.25,0.489583,Eighth,C#4
3481,Left,1,59,70,550.5,0.489583,Eighth,B3
3482,Right,0,65,80,550.5,0.489583,Eighth,F4
3483,Left,1,61,70,550.75,0.489583,Eighth,C#4
3485,Right,0,73,93,551.0,0.989583,Quarter,C#5
3484,Left,1,56,70,551.0,0.489583,Eighth,G#3
3486,Left,1,61,70,551.25,0.489583,Eighth,C#4
3487,Left,1,59,70,551.5,0.489583,Eighth,B3
3488,Left,1,61,70,551.75,0.489583,Eighth,C#4
3489,Right,0,65,80,551.75,0.489583,Eighth,F4
3491,Left,1,57,70,552.0,0.489583,Eighth,A3
3490,Right,0,68,80,552.0,0.989583,Quarter,G#4
3492,Left,1,61,70,552.25,0.489583,Eighth,C#4
3493,Left,1,57,70,552.5,0.489583,Eighth,A3
3494,Left,1,61,70,552.75,0.489583,Eighth,C#4
3495,Left,1,57,70,553.0,0.489583,Eighth,A3
3496,Right,0,66,80,553.0,1.489583,DottedQuarter,F#4
3497,Left,1,61,70,553.25,0.489583,Eighth,C#4
3498,Left,1,57,70,553.5,0.489583,Eighth,A3
3499,Left,1,61,70,553.75,0.489583,Eighth,C#4
3500,Left,1,57,70,554.0,0.489583,Eighth,A3
3501,Left,1,61,70,554.25,0.489583,Eighth,C#4
3503,Right,0,66,80,554.5,0.489583,Eighth,F#4
3502,Left,1,57,70,554.5,0.489583,Eighth,A3
3504,Left,1,61,70,554.75,0.489583,Eighth,C#4
3505,Right,0,73,90,555.0,0.989583,Quarter,C#5
3506,Left,1,57,70,555.0,0.489583,Eighth,A3
3507,Left,1,61,70,555.25,0.489583,Eighth,C#4
3508,Left,1,57,70,555.5,0.489583,Eighth,A3
3510,Left,1,61,70,555.75,0.489583,Eighth,C#4
3509,Right,0,66,80,555.75,0.489583,Eighth,F#4
3512,Left,1,53,70,556.0,0.489583,Eighth,F3
3511,Right,0,69,80,556.0,0.989583,Quarter,A4
3513,Left,1,61,70,556.25,0.489583,Eighth,C#4
3514,Left,1,53,70,556.5,0.489583,Eighth,F3
3515,Left,1,61,70,556.75,0.489583,Eighth,C#4
3517,Left,1,53,70,557.0,0.489583,Eighth,F3
3516,Right,0,68,80,557.0,1.489583,DottedQuarter,G#4
3518,Left,1,61,70,557.25,0.489583,Eighth,C#4
3519,Left,1,53,70,557.5,0.489583,Eighth,F3
3520,Left,1,61,70,557.75,0.489583,Eighth,C#4
3521,Left,1,53,70,558.0,0.489583,Eighth,F3
3522,Left,1,61,70,558.25,0.489583,Eighth,C#4
3523,Left,1,53,70,558.5,0.489583,Eighth,F3
3524,Right,0,68,80,558.5,0.489583,Eighth,G#4
3525,Left,1,61,70,558.75,0.489583,Eighth,C#4
3526,Right,0,73,91,559.0,0.989583,Quarter,C#5
3527,Left,1,53,70,559.0,0.489583,Eighth,F3
3528,Left,1,61,70,559.25,0.489583,Eighth,C#4
3529,Left,1,53,70,559.5,0.489583,Eighth,F3
3530,Left,1,61,70,559.75,0.489583,Eighth,C#4
3531,Right,0,68,80,559.75,0.489583,Eighth,G#4
3532,Left,1,54,90,560.0,0.989583,Quarter,F#3
3533,Right,0,66,80,560.0,0.489583,Eighth,F#4
3534,Right,0,73,80,560.25,0.489583,Eighth,C#5
3535,Right,0,69,80,560.5,0.489583,Eighth,A4
3536,Right,0,73,80,560.75,0.489583,Eighth,C#5
3538,Left,1,61,90,561.0,1.989583,Half,C#4
3537,Right,0,66,80,561.0,0.489583,Eighth,F#4
3539,Right,0,73,80,561.25,0.489583,Eighth,C#5
3540,Right,0,69,80,561.5,0.489583,Eighth,A4
3541,Right,0,73,80,561.75,0.489583,Eighth,C#5
3542,Right,0,66,80,562.0,0.489583,Eighth,F#4
3543,Right,0,73,80,562.25,0.489583,Eighth,C#5
3544,Right,0,69,80,562.5,0.489583,Eighth,A4
3545,Right,0,73,80,562.75,0.489583,Eighth,C#5
3547,Right,0,66,80,563.0,0.489583,Eighth,F#4
3546,Left,1,57,90,563.0,0.989583,Quarter,A3
3548,Right,0,73,80,563.25,0.489583,Eighth,C#5
3549,Right,0,69,80,563.5,0.489583,Eighth,A4
3551,Right,0,73,80,563.75,0.489583,Eighth,C#5
3550,Left,1,54,90,563.75,0.239583,Sixteenth,F#3
3553,Right,0,68,80,564.0,0.489583,Eighth,G#4
3552,Left,1,54,90,564.0,0.989583,Quarter,F#3
3554,Right,0,73,80,564.25,0.489583,Eighth,C#5
3555,Right,0,71,80,564.5,0.489583,Eighth,B4
3556,Right,0,73,80,564.75,0.489583,Eighth,C#5
3557,Right,0,68,80,565.0,0.489583,Eighth,G#4
3558,Left,1,53,90,565.0,1.489583,DottedQuarter,F3
3559,Right,0,73,80,565.25,0.489583,Eighth,C#5
3560,Right,0,71,80,565.5,0.489583,Eighth,B4
3561,Right,0,73,80,565.75,0.489583,Eighth,C#5
3562,Right,0,68,80,566.0,0.489583,Eighth,G#4
3563,Right,0,73,80,566.25,0.489583,Eighth,C#5
3565,Left,1,53,90,566.5,0.489583,Eighth,F3
3564,Right,0,71,80,566.5,0.489583,Eighth,B4
3566,Right,0,73,80,566.75,0.489583,Eighth,C#5
3568,Left,1,61,90,567.0,0.989583,Quarter,C#4
3567,Right,0,68,80,567.0,0.489583,Eighth,G#4
3569,Right,0,73,80,567.25,0.489583,Eighth,C#5
3570,Right,0,71,80,567.5,0.489583,Eighth,B4
3572,Left,1,53,90,567.75,0.489583,Eighth,F3
3571,Right,0,73,80,567.75,0.489583,Eighth,C#5
3574,Left,1,56,90,568.0,0.989583,Quarter,G#3
3573,Right,0,66,80,568.0,0.489583,Eighth,F#4
3575,Right,0,73,80,568.25,0.489583,Eighth,C#5
3576,Right,0,69,80,568.5,0.489583,Eighth,A4
3577,Right,0,73,80,568.75,0.489583,Eighth,C#5
3579,Left,1,54,90,569.0,1.489583,DottedQuarter,F#3
3578,Right,0,66,80,569.0,0.489583,Eighth,F#4
3580,Right,0,73,80,569.25,0.489583,Eighth,C#5
3581,Right,0,69,80,569.5,0.489583,Eighth,A4
3582,Right,0,73,80,569.75,0.489583,Eighth,C#5
3583,Right,0,66,80,570.0,0.489583,Eighth,F#4
3584,Right,0,73,80,570.25,0.489583,Eighth,C#5
3586,Left,1,54,90,570.5,0.489583,Eighth,F#3
3585,Right,0,69,80,570.5,0.489583,Eighth,A4
3587,Right,0,73,80,570.75,0.489583,Eighth,C#5
3589,Left,1,61,90,571.0,0.989583,Quarter,C#4
3588,Right,0,66,80,571.0,0.489583,Eighth,F#4
3590,Right,0,73,80,571.25,0.489583,Eighth,C#5
3591,Right,0,69,80,571.5,0.489583,Eighth,A4
3593,Left,1,54,90,571.75,0.239583,Sixteenth,F#3
3592,Right,0,73,80,571.75,0.489583,Eighth,C#5
3595,Left,1,54,90,572.0,0.489583,Eighth,F#3
3594,Right,0,66,80,572.0,0.489583,Eighth,F#4
3596,Right,0,74,81,572.25,0.489583,Eighth,D5
3598,Right,0,69,82,572.5,0.489583,Eighth,A4
3597,Left,1,54,92,572.5,0.489583,Eighth,F#3
3599,Right,0,74,83,572.75,0.489583,Eighth,D5
3600,Left,1,62,94,573.0,0.989583,Quarter,D4
3601,Right,0,66,84,573.0,0.489583,Eighth,F#4
3602,Right,0,74,86,573.25,0.489583,Eighth,D5
3603,Right,0,69,87,573.5,0.489583,Eighth,A4
3604,Left,1,54,98,573.75,0.239583,Sixteenth,F#3
3605,Right,0,74,88,573.75,0.489583,Eighth,D5
3606,Left,1,54,99,574.0,0.489583,Eighth,F#3
3607,Right,0,69,89,574.0,0.489583,Eighth,A4
3608,Right,0,74,91,574.25,0.489583,Eighth,D5
3610,Right,0,72,92,574.5,0.489583,Eighth,C5
3609,Left,1,54,102,574.5,0.489583,Eighth,F#3
3611,Right,0,74,93,574.75,0.489583,Eighth,D5
3612,Right,0,69,94,575.0,0.489583,Eighth,A4
3613,Left,1,62,104,575.0,0.989583,Quarter,D4
3614,Right,0,74,96,575.25,0.489583,Eighth,D5
3615,Right,0,72,97,575.5,0.489583,Eighth,C5
3617,Right,0,74,98,575.75,0.489583,Eighth,D5
3616,Left,1,54,108,575.75,0.239583,Sixteenth,F#3
3618,Right,0,67,100,576.0,0.489583,Eighth,G4
3619,Left,1,55,110,576.0,0.989583,Quarter,G3
3620,Right,0,74,80,576.25,0.489583,Eighth,D5
3621,Right,0,71,80,576.5,0.489583,Eighth,B4
3622,Right,0,74,80,576.75,0.489583,Eighth,D5
3623,Right,0,67,80,577.0,0.489583,Eighth,G4
3624,Left,1,50,90,577.0,1.989583,Half,D3
3625,Right,0,74,80,577.25,0.489583,Eighth,D5
3626,Right,0,71,80,577.5,0.489583,Eighth,B4
3627,Right,0,74,80,577.75,0.489583,Eighth,D5
3628,Right,0,67,80,578.0,0.489583,Eighth,G4
3629,Right,0,74,80,578.25,0.489583,Eighth,D5
3630,Right,0,71,80,578.5,0.489583,Eighth,B4
3631,Right,0,74,80,578.75,0.489583,Eighth,D5
3632,Left,1,47,90,579.0,0.989583,Quarter,B2
3633,Right,0,67,80,579.0,0.489583,Eighth,G4
3634,Right,0,74,80,579.25,0.489583,Eighth,D5
3635,Right,0,71,80,579.5,0.489583,Eighth,B4
3636,Right,0,74,80,579.75,0.489583,Eighth,D5
3637,Left,1,43,90,579.75,0.239583,Sixteenth,G2
3639,Left,1,43,90,580.0,0.989583,Quarter,G2
3638,Right,0,69,80,580.0,0.489583,Eighth,A4
3640,Right,0,74,80,580.25,0.489583,Eighth,D5
3641,Right,0,72,80,580.5,0.489583,Eighth,C5
3642,Right,0,74,80,580.75,0.489583,Eighth,D5
3643,Right,0,69,80,581.0,0.489583,Eighth,A4
3644,Left,1,42,90,581.0,1.489583,DottedQuarter,F#2
3645,Right,0,74,80,581.25,0.489583,Eighth,D5
3646,Right,0,72,80,581.5,0.489583,Eighth,C5
3647,Right,0,74,80,581.75,0.489583,Eighth,D5
3648,Right,0,69,80,582.0,0.489583,Eighth,A4
3649,Right,0,74,80,582.25,0.489583,Eighth,D5
3651,Right,0,72,80,582.5,0.489583,Eighth,C5
3650,Left,1,42,90,582.5,0.489583,Eighth,F#2
3652,Right,0,74,80,582.75,0.489583,Eighth,D5
3654,Left,1,50,101,583.0,0.989583,Quarter,D3
3653,Right,0,69,80,583.0,0.489583,Eighth,A4
3655,Right,0,74,80,583.25,0.489583,Eighth,D5
3656,Right,0,72,80,583.5,0.489583,Eighth,C5
3658,Left,1,42,90,583.75,0.489583,Eighth,F#2
3657,Right,0,74,80,583.75,0.489583,Eighth,D5
3659,Right,0,67,80,584.0,0.489583,Eighth,G4
3660,Left,1,45,90,584.0,0.989583,Quarter,A2
3661,Right,0,74,80,584.25,0.489583,Eighth,D5
3662,Right,0,71,80,584.5,0.489583,Eighth,B4
3663,Right,0,74,80,584.75,0.489583,Eighth,D5
3664,Left,1,43,90,585.0,1.489583,DottedQuarter,G2
3665,Right,0,67,80,585.0,0.489583,Eighth,G4
3666,Right,0,74,80,585.25,0.489583,Eighth,D5
3667,Right,0,71,80,585.5,0.489583,Eighth,B4
3668,Right,0,74,80,585.75,0.489583,Eighth,D5
3669,Right,0,67,80,586.0,0.489583,Eighth,G4
3670,Right,0,74,80,586.25,0.489583,Eighth,D5
3672,Right,0,71,80,586.5,0.489583,Eighth,B4
3671,Left,1,43,90,586.5,0.489583,Eighth,G2
3673,Right,0,74,80,586.75,0.489583,Eighth,D5
3674,Right,0,67,80,587.0,0.489583,Eighth,G4
3675,Left,1,50,100,587.0,0.989583,Quarter,D3
3676,Right,0,74,80,587.25,0.489583,Eighth,D5
3677,Right,0,71,80,587.5,0.489583,Eighth,B4
3679,Left,1,42,90,587.75,0.239583,Sixteenth,F#2
3678,Right,0,74,80,587.75,0.489583,Eighth,D5
3680,Right,0,68,80,588.0,0.489583,Eighth,G#4
3681,Left,1,42,90,588.0,0.989583,Quarter,F#2
3682,Right,0,74,80,588.25,0.489583,Eighth,D5
3683,Right,0,71,80,588.5,0.489583,Eighth,B4
3684,Right,0,74,80,588.75,0.489583,Eighth,D5
3686,Right,0,68,80,589.0,0.489583,Eighth,G#4
3685,Left,1,41,90,589.0,1.489583,DottedQuarter,F2
3687,Right,0,73,80,589.25,0.489583,Eighth,C#5
3688,Right,0,71,80,589.5,0.489583,Eighth,B4
3689,Right,0,73,80,589.75,0.489583,Eighth,C#5
3690,Right,0,68,80,590.0,0.489583,Eighth,G#4
3691,Right,0,73,80,590.25,0.489583,Eighth,C#5
3693,Right,0,71,80,590.5,0.489583,Eighth,B4
3692,Left,1,41,90,590.5,0.489583,Eighth,F2
3694,Right,0,73,80,590.75,0.489583,Eighth,C#5
3695,Left,1,49,100,591.0,0.989583,Quarter,C#3
3696,Right,0,68,80,591.0,0.489583,Eighth,G#4
3697,Right,0,73,80,591.25,0.489583,Eighth,C#5
3698,Right,0,71,80,591.5,0.489583,Eighth,B4
3699,Right,0,73,80,591.75,0.489583,Eighth,C#5
3700,Left,1,41,90,591.75,0.489583,Eighth,F2
3702,Left,1,42,90,592.0,0.489583,Eighth,F#2
3701,Right,0,66,80,592.0,0.489583,Eighth,F#4
3703,Right,0,73,80,592.25,0.489583,Eighth,C#5
3705,Left,1,42,91,592.5,0.489583,Eighth,F#2
3704,Right,0,69,81,592.5,0.489583,Eighth,A4
3706,Right,0,73,81,592.75,0.489583,Eighth,C#5
3708,Right,0,66,82,593.0,0.489583,Eighth,F#4
3707,Left,1,45,92,593.0,0.489583,Eighth,A2
3709,Right,0,73,83,593.25,0.489583,Eighth,C#5
3710,Left,1,42,93,593.5,0.489583,Eighth,F#2
3711,Right,0,69,83,593.5,0.489583,Eighth,A4
3712,Right,0,73,84,593.75,0.489583,Eighth,C#5
3714,Left,1,38,94,594.0,0.489583,Eighth,D2
3713,Right,0,66,84,594.0,0.489583,Eighth,F#4
3715,Right,0,78,85,594.25,0.489583,Eighth,F#5
3716,Left,1,38,96,594.5,0.489583,Eighth,D2
3717,Right,0,69,86,594.5,0.489583,Eighth,A4
3718,Right,0,78,86,594.75,0.489583,Eighth,F#5
3719,Left,1,42,97,595.0,0.489583,Eighth,F#2
3720,Right,0,66,87,595.0,0.489583,Eighth,F#4
3721,Right,0,78,88,595.25,0.489583,Eighth,F#5
3723,Right,0,69,88,595.5,0.489583,Eighth,A4
3722,Left,1,38,98,595.5,0.489583,Eighth,D2
3724,Right,0,78,89,595.75,0.489583,Eighth,F#5
3725,Right,0,66,89,596.0,0.489583,Eighth,F#4
3726,Left,1,36,99,596.0,2.489583,Half,C2
3727,Right,0,78,90,596.25,0.489583,Eighth,F#5
3728,Right,0,75,91,596.5,0.489583,Eighth,G#4_D#5
3730,Right,0,78,91,596.75,0.489583,Eighth,F#5
3731,Right,0,66,92,597.0,0.489583,Eighth,F#4
3732,Right,0,78,93,597.25,0.489583,Eighth,F#5
3733,Right,0,75,93,597.5,0.489583,Eighth,G#4_D#5
3735,Right,0,78,94,597.75,0.489583,Eighth,F#5
3736,Right,0,66,94,598.0,0.489583,Eighth,F#4
3737,Right,0,78,95,598.25,0.489583,Eighth,F#5
3738,Left,1,36,106,598.5,0.489583,Eighth,C2
3739,Right,0,75,96,598.5,0.489583,Eighth,G#4_D#5
3741,Right,0,78,96,598.75,0.489583,Eighth,F#5
3743,Right,0,66,97,599.0,0.489583,Eighth,F#4
3742,Left,1,39,107,599.0,0.489583,Eighth,D#2
3744,Right,0,78,98,599.25,0.489583,Eighth,F#5
3747,Left,1,36,108,599.5,0.489583,Eighth,C2
3745,Right,0,75,98,599.5,0.489583,Eighth,G#4_D#5
3748,Right,0,78,99,599.75,0.489583,Eighth,F#5
3749,Right,0,64,100,600.0,0.489583,Eighth,E4
3750,Left,1,37,110,600.0,0.489583,Eighth,C#2
3751,Right,0,76,100,600.25,0.489583,Eighth,E5
3753,Right,0,73,100,600.5,0.489583,Eighth,C#5
3752,Left,1,37,110,600.5,0.489583,Eighth,C#2
3754,Right,0,76,100,600.75,0.489583,Eighth,E5
3756,Right,0,64,100,601.0,0.489583,Eighth,E4
3755,Left,1,40,110,601.0,0.489583,Eighth,E2
3757,Right,0,76,100,601.25,0.489583,Eighth,E5
3759,Right,0,73,100,601.5,0.489583,Eighth,C#5
3758,Left,1,37,110,601.5,0.489583,Eighth,C#2
3760,Right,0,76,100,601.75,0.489583,Eighth,E5
3761,Left,1,33,110,602.0,0.489583,Eighth,A1
3762,Right,0,64,100,602.0,0.489583,Eighth,E4
3763,Right,0,76,100,602.25,0.489583,Eighth,E5
3764,Right,0,73,100,602.5,0.489583,Eighth,C#5
3765,Left,1,33,110,602.5,0.489583,Eighth,A1
3766,Right,0,76,100,602.75,0.489583,Eighth,E5
3768,Left,1,37,110,603.0,0.489583,Eighth,C#2
3767,Right,0,64,100,603.0,0.489583,Eighth,E4
3769,Right,0,76,100,603.25,0.489583,Eighth,E5
3770,Right,0,73,100,603.5,0.489583,Eighth,C#5
3771,Left,1,33,110,603.5,0.489583,Eighth,A1
3772,Right,0,76,100,603.75,0.489583,Eighth,E5
3774,Right,0,63,100,604.0,0.489583,Eighth,D#4
3773,Left,1,30,110,604.0,0.489583,Eighth,F#1
3775,Right,0,75,99,604.25,0.489583,Eighth,D#5
3776,Right,0,73,98,604.5,0.489583,Eighth,C#5
3777,Left,1,30,108,604.5,0.489583,Eighth,F#1
3778,Right,0,75,97,604.75,0.489583,Eighth,D#5
3780,Right,0,63,96,605.0,0.489583,Eighth,D#4
3779,Left,1,33,106,605.0,0.489583,Eighth,A1
3781,Right,0,75,94,605.25,0.489583,Eighth,D#5
3783,Left,1,30,103,605.5,0.489583,Eighth,F#1
3782,Right,0,73,93,605.5,0.489583,Eighth,C#5
3784,Right,0,75,92,605.75,0.489583,Eighth,D#5
3786,Right,0,63,91,606.0,0.489583,Eighth,D#4
3785,Left,1,31,101,606.0,0.489583,Eighth,G1
3787,Right,0,75,89,606.25,0.489583,Eighth,D#5
3788,Right,0,73,88,606.5,0.489583,Eighth,C#5
3789,Left,1,31,98,606.5,0.489583,Eighth,G1
3790,Right,0,75,87,606.75,0.489583,Eighth,D#5
3791,Right,0,63,86,607.0,0.489583,Eighth,D#4
3792,Left,1,34,96,607.0,0.489583,Eighth,A#1
3793,Right,0,75,84,607.25,0.489583,Eighth,D#5
3795,Left,1,31,93,607.5,0.489583,Eighth,G1
3794,Right,0,73,83,607.5,0.489583,Eighth,C#5
3796,Right,0,63,100,608.0,0.989583,Quarter,D#5_D#4_C5
3798,Left,1,32,100,608.0,0.489583,Eighth,G#1
3800,Left,1,44,70,608.25,0.489583,Eighth,G#2
3801,Left,1,32,70,608.5,0.489583,Eighth,G#1
3802,Left,1,44,70,608.75,0.489583,Eighth,G#2
3803,Right,0,68,80,609.0,1.989583,Half,G#4
3804,Left,1,32,70,609.0,0.489583,Eighth,G#1
3805,Left,1,44,70,609.25,0.489583,Eighth,G#2
3806,Left,1,32,70,609.5,0.489583,Eighth,G#1
3807,Left,1,44,70,609.75,0.489583,Eighth,G#2
3808,Left,1,32,70,610.0,0.489583,Eighth,G#1
3809,Left,1,44,70,610.25,0.489583,Eighth,G#2
3810,Left,1,32,70,610.5,0.489583,Eighth,G#1
3811,Left,1,44,70,610.75,0.489583,Eighth,G#2
3812,Right,0,69,80,611.0,0.489583,Eighth,A4
3813,Left,1,32,70,611.0,0.489583,Eighth,G#1
3814,Left,1,44,70,611.25,0.489583,Eighth,G#2
3816,Left,1,32,70,611.5,0.489583,Eighth,G#1
3815,Right,0,68,80,611.5,0.489583,Eighth,G#4
3817,Left,1,44,70,611.75,0.489583,Eighth,G#2
3818,Right,0,61,80,612.0,1.989583,Half,F#4_C#4_A3
3821,Left,1,32,70,612.0,0.489583,Eighth,G#1
3822,Left,1,44,70,612.25,0.489583,Eighth,G#2
3823,Left,1,32,70,612.5,0.489583,Eighth,G#1
3824,Left,1,44,70,612.75,0.489583,Eighth,G#2
3826,Right,0,68,80,613.0,0.489583,Eighth,G#4
3825,Left,1,32,70,613.0,0.489583,Eighth,G#1
3827,Left,1,44,70,613.25,0.489583,Eighth,G#2
3828,Right,0,66,80,613.5,0.489583,Eighth,F#4
3829,Left,1,32,70,613.5,0.489583,Eighth,G#1
3830,Left,1,44,70,613.75,0.489583,Eighth,G#2
3831,Right,0,64,80,614.0,1.989583,Half,G#3_E4_B3
3834,Left,1,32,70,614.0,0.489583,Eighth,G#1
3835,Left,1,44,70,614.25,0.489583,Eighth,G#2
3836,Left,1,32,70,614.5,0.489583,Eighth,G#1
3837,Left,1,44,70,614.75,0.489583,Eighth,G#2
3838,Right,0,66,80,615.0,0.489583,Eighth,F#4
3839,Left,1,32,70,615.0,0.489583,Eighth,G#1
3840,Left,1,44,70,615.25,0.489583,Eighth,G#2
3842,Right,0,64,80,615.5,0.489583,Eighth,E4
3841,Left,1,32,70,615.5,0.489583,Eighth,G#1
3843,Left,1,44,70,615.75,0.489583,Eighth,G#2
3846,Left,1,32,70,616.0,0.489583,Eighth,G#1
3844,Right,0,54,80,616.0,1.989583,Half,F#3_D#4_A3
3848,Left,1,44,70,616.25,0.489583,Eighth,G#2
3849,Left,1,32,70,616.5,0.489583,Eighth,G#1
3850,Left,1,44,70,616.75,0.489583,Eighth,G#2
3851,Right,0,64,80,617.0,0.489583,Eighth,E4
3852,Left,1,32,70,617.0,0.489583,Eighth,G#1
3853,Left,1,44,70,617.25,0.489583,Eighth,G#2
3854,Left,1,32,70,617.5,0.489583,Eighth,G#1
3855,Right,0,63,80,617.5,0.489583,Eighth,D#4
3856,Left,1,44,70,617.75,0.489583,Eighth,G#2
3860,Left,1,32,70,618.0,0.489583,Eighth,G#1
3857,Right,0,56,80,618.0,1.989583,Half,G#3_E3_C#4
3861,Left,1,44,70,618.25,0.489583,Eighth,G#2
3862,Left,1,32,70,618.5,0.489583,Eighth,G#1
3863,Left,1,44,70,618.75,0.489583,Eighth,G#2
3865,Left,1,32,70,619.0,0.489583,Eighth,G#1
3864,Right,0,63,80,619.0,0.489583,Eighth,D#4
3866,Left,1,44,70,619.25,0.489583,Eighth,G#2
3867,Left,1,32,70,619.5,0.489583,Eighth,G#1
3868,Right,0,61,80,619.5,0.489583,Eighth,C#4
3869,Left,1,44,70,619.75,0.489583,Eighth,G#2
3871,Left,1,32,70,620.0,0.489583,Eighth,G#1
3870,Right,0,51,80,620.0,1.989583,Half,F#3_D#3_C4
3874,Left,1,44,70,620.25,0.489583,Eighth,G#2
3875,Left,1,32,70,620.5,0.489583,Eighth,G#1
3876,Left,1,44,70,620.75,0.489583,Eighth,G#2
3877,Left,1,32,70,621.0,0.489583,Eighth,G#1
3878,Left,1,44,70,621.25,0.489583,Eighth,G#2
3879,Left,1,32,70,621.5,0.489583,Eighth,G#1
3880,Left,1,44,70,621.75,0.489583,Eighth,G#2
3881,Right,0,49,80,622.0,1.989583,Half,E3_C#4_C#3
3883,Left,1,32,70,622.0,0.489583,Eighth,G#1
3885,Left,1,44,70,622.25,0.489583,Eighth,G#2
3886,Left,1,32,70,622.5,0.489583,Eighth,G#1
3887,Left,1,44,70,622.75,0.489583,Eighth,G#2
3888,Left,1,32,70,623.0,0.489583,Eighth,G#1
3889,Left,1,44,70,623.25,0.489583,Eighth,G#2
3890,Left,1,32,70,623.5,0.489583,Eighth,G#1
3891,Left,1,44,70,623.75,0.489583,Eighth,G#2
3892,Right,0,48,80,623.75,1.489583,DottedQuarter,C3
3893,Right,0,56,80,623.90625,1.489583,DottedQuarter,G#3
3894,Left,1,32,70,624.0,0.489583,Eighth,G#1
3895,Right,0,63,81,624.0,0.989583,Quarter,D#4
3896,Left,1,44,70,624.25,0.489583,Eighth,G#2
3897,Left,1,32,70,624.5,0.489583,Eighth,G#1
3898,Left,1,44,70,624.75,0.489583,Eighth,G#2
3899,Right,0,80,86,625.0,1.489583,DottedQuarter,G#5
3900,Left,1,32,70,625.0,0.489583,Eighth,G#1
3901,Left,1,44,70,625.25,0.489583,Eighth,G#2
3902,Left,1,32,70,625.5,0.489583,Eighth,G#1
3903,Left,1,44,70,625.75,0.489583,Eighth,G#2
3904,Left,1,32,70,626.0,0.489583,Eighth,G#1
3905,Left,1,44,70,626.25,0.489583,Eighth,G#2
3907,Left,1,32,70,626.5,0.489583,Eighth,G#1
3906,Right,0,80,94,626.5,0.489583,Eighth,G#5
3908,Left,1,44,70,626.75,0.489583,Eighth,G#2
3909,Left,1,32,70,627.0,0.489583,Eighth,G#1
3910,Right,0,81,97,627.0,0.489583,Eighth,A5
3911,Left,1,44,70,627.25,0.489583,Eighth,G#2
3913,Right,0,80,99,627.5,0.489583,Eighth,G#5
3912,Left,1,32,70,627.5,0.489583,Eighth,G#1
3914,Left,1,44,70,627.75,0.489583,Eighth,G#2
3915,Left,1,32,70,628.0,0.489583,Eighth,G#1
3916,Right,0,78,100,628.0,0.489583,Eighth,F#5
3917,Left,1,44,70,628.25,0.489583,Eighth,G#2
3921,Left,1,32,70,628.5,0.489583,Eighth,G#1
3918,Right,0,73,100,628.5,0.489583,Eighth,F#5_C#5_A4
3922,Left,1,44,70,628.75,0.489583,Eighth,G#2
3924,Right,0,71,100,629.0,0.489583,Eighth,G#5_D#5_B4
3923,Left,1,32,70,629.0,0.489583,Eighth,G#1
3927,Left,1,44,70,629.25,0.489583,Eighth,G#2
3930,Left,1,32,70,629.5,0.489583,Eighth,G#1
3928,Right,0,73,100,629.5,0.489583,Eighth,F#5_C#5_A4
3932,Left,1,44,70,629.75,0.489583,Eighth,G#2
3933,Left,1,32,70,630.0,0.489583,Eighth,G#1
3934,Right,0,68,100,630.0,0.489583,Eighth,G#4_E5_B4
3937,Left,1,44,70,630.25,0.489583,Eighth,G#2
3939,Left,1,32,70,630.5,0.489583,Eighth,G#1
3938,Right,0,68,100,630.5,0.489583,Eighth,G#4_E5_B4
3942,Left,1,44,70,630.75,0.489583,Eighth,G#2
3946,Left,1,32,70,631.0,0.489583,Eighth,G#1
3943,Right,0,78,100,631.0,0.489583,Eighth,F#5_C#5_A4
3947,Left,1,44,70,631.25,0.489583,Eighth,G#2
3948,Right,0,76,100,631.5,0.489583,Eighth,G#4_E5_B4
3951,Left,1,32,70,631.5,0.489583,Eighth,G#1
3952,Left,1,44,70,631.75,0.489583,Eighth,G#2
3953,Right,0,66,100,632.0,0.489583,Eighth,F#4_D#5_A4
3954,Left,1,32,70,632.0,0.489583,Eighth,G#1
3957,Left,1,44,70,632.25,0.489583,Eighth,G#2
3958,Right,0,69,100,632.5,0.489583,Eighth,F#4_D#5_A4
3961,Left,1,32,70,632.5,0.489583,Eighth,G#1
3962,Left,1,44,70,632.75,0.489583,Eighth,G#2
3963,Right,0,68,100,633.0,0.489583,Eighth,G#4_E5_B4
3966,Left,1,32,70,633.0,0.489583,Eighth,G#1
3967,Left,1,44,70,633.25,0.489583,Eighth,G#2
3968,Right,0,66,100,633.5,0.489583,Eighth,F#4_D#5_A4
3971,Left,1,32,70,633.5,0.489583,Eighth,G#1
3972,Left,1,44,70,633.75,0.489583,Eighth,G#2
3975,Left,1,32,70,634.0,0.489583,Eighth,G#1
3973,Right,0,64,100,634.0,0.489583,Eighth,G#4_E4_C#5
3977,Left,1,44,70,634.25,0.489583,Eighth,G#2
3978,Right,0,64,100,634.5,0.489583,Eighth,G#4_E4_C#5
3980,Left,1,32,70,634.5,0.489583,Eighth,G#1
3982,Left,1,44,70,634.75,0.489583,Eighth,G#2
3983,Left,1,32,70,635.0,0.489583,Eighth,G#1
3984,Right,0,75,100,635.0,0.489583,Eighth,F#4_D#5_A4
3987,Left,1,44,70,635.25,0.489583,Eighth,G#2
3989,Right,0,73,100,635.5,0.489583,Eighth,G#4_E4_C#5
3988,Left,1,32,70,635.5,0.489583,Eighth,G#1
3992,Left,1,44,70,635.75,0.489583,Eighth,G#2
3993,Right,0,63,100,636.0,1.989583,Half,F#4_D#4_C5
3996,Left,1,32,70,636.0,0.489583,Eighth,G#1
3997,Left,1,44,70,636.25,0.489583,Eighth,G#2
3998,Left,1,32,70,636.5,0.489583,Eighth,G#1
3999,Left,1,44,70,636.75,0.489583,Eighth,G#2
4000,Left,1,32,70,637.0,0.489583,Eighth,G#1
4001,Left,1,44,70,637.25,0.489583,Eighth,G#2
4002,Left,1,32,70,637.5,0.489583,Eighth,G#1
4003,Left,1,44,70,637.75,0.489583,Eighth,G#2
4005,Right,0,73,109,638.0,1.989583,Half,E4_C#5_C#4
4004,Left,1,32,70,638.0,0.489583,Eighth,G#1
4008,Left,1,44,70,638.25,0.489583,Eighth,G#2
4009,Left,1,32,70,638.5,0.489583,Eighth,G#1
4010,Left,1,44,70,638.75,0.489583,Eighth,G#2
4011,Left,1,32,70,639.0,0.489583,Eighth,G#1
4012,Left,1,44,70,639.25,0.489583,Eighth,G#2
4013,Left,1,32,70,639.5,0.489583,Eighth,G#1
4014,Left,1,44,70,639.75,0.489583,Eighth,G#2
4016,Right,0,60,100,640.0,2.989583,DottedHalf,C4
4015,Left,1,32,70,640.0,0.489583,Eighth,G#1
4017,Right,0,66,100,640.125,2.864583,DottedHalf,F#4
4019,Left,1,44,70,640.25,0.489583,Eighth,G#2
4018,Right,0,75,99,640.25,2.739583,DottedHalf,D#5
4020,Left,1,32,70,640.5,0.489583,Eighth,G#1
4021,Left,1,44,70,640.75,0.489583,Eighth,G#2
4022,Left,1,32,70,641.0,0.489583,Eighth,G#1
4023,Left,1,44,70,641.25,0.489583,Eighth,G#2
4024,Left,1,32,70,641.5,0.489583,Eighth,G#1
4025,Left,1,44,70,641.75,0.489583,Eighth,G#2
4026,Left,1,32,70,642.0,0.489583,Eighth,G#1
4027,Left,1,44,70,642.25,0.489583,Eighth,G#2
4028,Left,1,32,70,642.5,0.489583,Eighth,G#1
4029,Left,1,44,70,642.75,0.489583,Eighth,G#2
4032,Left,1,32,70,643.0,0.489583,Eighth,G#1
4030,Right,0,64,81,643.0,0.989583,Quarter,E4_C#5_C#4
4034,Left,1,44,70,643.25,0.489583,Eighth,G#2
4035,Left,1,32,70,643.5,0.489583,Eighth,G#1
4036,Left,1,44,70,643.75,0.489583,Eighth,G#2
4040,Left,1,32,70,644.0,0.489583,Eighth,G#1
4037,Right,0,66,80,644.0,0.989583,Quarter,F#4_D#4_C5
4041,Left,1,44,70,644.25,0.489583,Eighth,G#2
4042,Left,1,32,70,644.5,0.489583,Eighth,G#1
4043,Left,1,44,70,644.75,0.489583,Eighth,G#2
4045,Left,1,32,70,645.0,0.489583,Eighth,G#1
4044,Right,0,66,86,645.0,0.989583,Quarter,F#4_D#4_C5
4048,Left,1,44,70,645.25,0.489583,Eighth,G#2
4049,Left,1,32,70,645.5,0.489583,Eighth,G#1
4050,Left,1,44,70,645.75,0.489583,Eighth,G#2
4051,Right,0,64,93,646.0,0.989583,Quarter,E4_C#5_C#4
4052,Left,1,32,70,646.0,0.489583,Eighth,G#1
4055,Left,1,44,70,646.25,0.489583,Eighth,G#2
4056,Left,1,32,70,646.5,0.489583,Eighth,G#1
4057,Left,1,44,70,646.75,0.489583,Eighth,G#2
4058,Right,0,61,99,647.0,0.989583,Quarter,E4_C#5_C#4
4061,Left,1,32,70,647.0,0.489583,Eighth,G#1
4062,Left,1,44,70,647.25,0.489583,Eighth,G#2
4063,Left,1,32,70,647.5,0.489583,Eighth,G#1
4064,Left,1,44,70,647.75,0.489583,Eighth,G#2
4066,Right,0,60,100,648.0,2.989583,DottedHalf,C4
4065,Left,1,32,70,648.0,0.489583,Eighth,G#1
4067,Right,0,66,100,648.125,2.864583,DottedHalf,F#4
4069,Right,0,75,99,648.25,2.739583,DottedHalf,D#5
4068,Left,1,44,70,648.25,0.489583,Eighth,G#2
4070,Left,1,32,70,648.5,0.489583,Eighth,G#1
4071,Left,1,44,70,648.75,0.489583,Eighth,G#2
4072,Left,1,32,70,649.0,0.489583,Eighth,G#1
4073,Left,1,44,70,649.25,0.489583,Eighth,G#2
4074,Left,1,32,70,649.5,0.489583,Eighth,G#1
4075,Left,1,44,70,649.75,0.489583,Eighth,G#2
4076,Left,1,32,70,650.0,0.489583,Eighth,G#1
4077,Left,1,44,70,650.25,0.489583,Eighth,G#2
4078,Left,1,32,70,650.5,0.489583,Eighth,G#1
4079,Left,1,44,70,650.75,0.489583,Eighth,G#2
4081,Right,0,61,86,651.0,0.989583,Quarter,E4_C#4
4080,Left,1,32,70,651.0,0.489583,Eighth,G#1
4083,Left,1,44,70,651.25,0.489583,Eighth,G#2
4084,Left,1,32,70,651.5,0.489583,Eighth,G#1
4085,Right,0,73,83,651.5,0.989583,Quarter,C#5
4086,Left,1,44,70,651.75,0.489583,Eighth,G#2
4088,Right,0,66,80,652.0,0.989583,Quarter,F#4_D#4
4087,Left,1,32,70,652.0,0.489583,Eighth,G#1
4090,Left,1,44,70,652.25,0.489583,Eighth,G#2
4091,Right,0,72,81,652.5,0.989583,Quarter,C5
4092,Left,1,32,70,652.5,0.489583,Eighth,G#1
4093,Left,1,44,70,652.75,0.489583,Eighth,G#2
4094,Right,0,66,82,653.0,0.989583,Quarter,F#4_D#4
4095,Left,1,32,70,653.0,0.489583,Eighth,G#1
4097,Left,1,44,70,653.25,0.489583,Eighth,G#2
4098,Left,1,32,70,653.5,0.489583,Eighth,G#1
4099,Right,0,72,83,653.5,0.989583,Quarter,C5
4100,Left,1,44,70,653.75,0.489583,Eighth,G#2
4101,Right,0,61,84,654.0,0.989583,Quarter,E4_C#4
4103,Left,1,32,70,654.0,0.489583,Eighth,G#1
4104,Left,1,44,70,654.25,0.489583,Eighth,G#2
4106,Left,1,32,70,654.5,0.489583,Eighth,G#1
4105,Right,0,73,86,654.5,0.989583,Quarter,C#5
4107,Left,1,44,70,654.75,0.489583,Eighth,G#2
4110,Left,1,32,70,655.0,0.489583,Eighth,G#1
4108,Right,0,64,87,655.0,0.989583,Quarter,E4_C#4
4111,Left,1,44,70,655.25,0.489583,Eighth,G#2
4112,Right,0,73,88,655.5,0.989583,Quarter,C#5
4113,Left,1,32,70,655.5,0.489583,Eighth,G#1
4114,Left,1,44,70,655.75,0.489583,Eighth,G#2
4115,Right,0,66,80,656.0,0.989583,Quarter,F#4_C4
4117,Left,1,32,70,656.0,0.489583,Eighth,G#1
4118,Left,1,44,70,656.25,0.489583,Eighth,G#2
4120,Right,0,75,79,656.5,0.989583,Quarter,D#5
4119,Left,1,32,70,656.5,0.489583,Eighth,G#1
4121,Left,1,44,70,656.75,0.489583,Eighth,G#2
4122,Left,1,32,70,657.0,0.489583,Eighth,G#1
4123,Right,0,60,78,657.0,0.989583,Quarter,F#4_C4
4125,Left,1,44,70,657.25,0.489583,Eighth,G#2
4126,Left,1,32,70,657.5,0.489583,Eighth,G#1
4127,Right,0,75,76,657.5,0.989583,Quarter,D#5
4128,Left,1,44,70,657.75,0.489583,Eighth,G#2
4129,Left,1,33,70,658.0,0.489583,Eighth,A1
4130,Right,0,64,75,658.0,0.989583,Quarter,E4_C#4
4132,Left,1,45,70,658.25,0.489583,Eighth,A2
4134,Left,1,33,70,658.5,0.489583,Eighth,A1
4133,Right,0,73,73,658.5,0.989583,Quarter,C#5
4135,Left,1,45,70,658.75,0.489583,Eighth,A2
4136,Left,1,33,70,659.0,0.489583,Eighth,A1
4137,Right,0,61,72,659.0,0.989583,Quarter,E4_C#4
4139,Left,1,45,70,659.25,0.489583,Eighth,A2
4141,Left,1,33,70,659.5,0.489583,Eighth,A1
4140,Right,0,73,71,659.5,0.489583,Eighth,C#5
4142,Left,1,45,70,659.75,0.489583,Eighth,A2
4145,Right,0,69,80,660.0,3.989583,Whole,D#4_C#4_A4_A3
4143,Left,1,42,80,660.0,3.989583,Whole,F#2_F#1
4149,Left,1,44,70,664.0,7.989583,Unknown,G#2_G#1
4151,Right,0,68,70,664.0,7.989583,Unknown,G#4_G#3_D#4_C4
4155,Left,1,37,80,672.0,0.489583,Eighth,C#2
4156,Right,0,44,80,672.25,0.489583,Eighth,G#2
4158,Right,0,49,80,672.5,0.489583,Eighth,C#3
4157,Left,1,44,80,672.5,0.489583,Eighth,G#2
4159,Right,0,52,80,672.75,0.489583,Eighth,E3
4160,Left,1,37,80,673.0,0.489583,Eighth,C#2
4161,Right,0,56,80,673.0,0.489583,Eighth,G#3
4162,Right,0,49,80,673.25,0.489583,Eighth,C#3
4163,Left,1,44,80,673.5,0.489583,Eighth,G#2
4164,Right,0,52,80,673.5,0.489583,Eighth,E3
4165,Right,0,56,80,673.75,0.489583,Eighth,G#3
4166,Right,0,61,80,674.0,0.489583,Eighth,C#4
4167,Left,1,37,80,674.0,0.489583,Eighth,C#2
4168,Right,0,52,80,674.25,0.489583,Eighth,E3
4170,Left,1,44,80,674.5,0.489583,Eighth,G#2
4169,Right,0,56,80,674.5,0.489583,Eighth,G#3
4171,Right,0,61,80,674.75,0.489583,Eighth,C#4
4173,Right,0,64,80,675.0,0.489583,Eighth,E4
4172,Left,1,37,80,675.0,0.489583,Eighth,C#2
4174,Right,0,56,80,675.25,0.489583,Eighth,G#3
4175,Right,0,61,80,675.5,0.489583,Eighth,C#4
4176,Left,1,44,80,675.5,0.489583,Eighth,G#2
4177,Right,0,64,80,675.75,0.489583,Eighth,E4
4179,Left,1,37,80,676.0,0.489583,Eighth,C#2
4178,Right,0,68,80,676.0,0.489583,Eighth,G#4
4180,Right,0,61,80,676.25,0.489583,Eighth,C#4
4182,Left,1,44,80,676.5,0.489583,Eighth,G#2
4181,Right,0,64,80,676.5,0.489583,Eighth,E4
4183,Right,0,68,80,676.75,0.489583,Eighth,G#4
4185,Left,1,37,80,677.0,0.489583,Eighth,C#2
4184,Right,0,73,80,677.0,0.489583,Eighth,C#5
4186,Right,0,64,80,677.25,0.489583,Eighth,E4
4187,Left,1,44,80,677.5,0.489583,Eighth,G#2
4188,Right,0,68,80,677.5,0.489583,Eighth,G#4
4189,Right,0,73,80,677.75,0.489583,Eighth,C#5
4190,Left,1,37,80,678.0,0.489583,Eighth,C#2
4191,Right,0,76,80,678.0,0.489583,Eighth,E5
4192,Right,0,68,80,678.25,0.489583,Eighth,G#4
4193,Left,1,44,80,678.5,0.489583,Eighth,G#2
4194,Right,0,73,80,678.5,0.489583,Eighth,C#5
4195,Right,0,76,80,678.75,0.239583,Sixteenth,E5
4197,Right,0,68,110,679.0,0.489583,Eighth,G#5_G#4_E5_C#5
4196,Left,1,37,100,679.0,0.989583,Quarter,C#3_C#2
4202,Left,1,44,100,679.5,0.489583,Eighth,G#2
4203,Right,0,80,110,679.5,0.489583,Eighth,G#5_G#4_E5_C#5
4207,Left,1,36,80,680.0,0.489583,Eighth,C2
4208,Right,0,44,80,680.25,0.489583,Eighth,G#2
4209,Right,0,48,80,680.5,0.489583,Eighth,C3
4210,Left,1,44,80,680.5,0.489583,Eighth,G#2
4211,Right,0,51,80,680.75,0.489583,Eighth,D#3
4213,Right,0,56,80,681.0,0.489583,Eighth,G#3
4212,Left,1,36,80,681.0,0.489583,Eighth,C2
4214,Right,0,48,80,681.25,0.489583,Eighth,C3
4215,Right,0,51,80,681.5,0.489583,Eighth,D#3
4216,Left,1,44,80,681.5,0.489583,Eighth,G#2
4217,Right,0,56,80,681.75,0.489583,Eighth,G#3
4218,Right,0,60,80,682.0,0.489583,Eighth,C4
4219,Left,1,36,80,682.0,0.489583,Eighth,C2
4220,Right,0,51,80,682.25,0.489583,Eighth,D#3
4221,Right,0,56,80,682.5,0.489583,Eighth,G#3
4222,Left,1,44,80,682.5,0.489583,Eighth,G#2
4223,Right,0,60,80,682.75,0.489583,Eighth,C4
4224,Right,0,63,80,683.0,0.489583,Eighth,D#4
4225,Left,1,36,80,683.0,0.489583,Eighth,C2
4226,Right,0,56,80,683.25,0.489583,Eighth,G#3
4228,Left,1,44,80,683.5,0.489583,Eighth,G#2
4227,Right,0,60,80,683.5,0.489583,Eighth,C4
4229,Right,0,63,80,683.75,0.489583,Eighth,D#4
4230,Right,0,68,80,684.0,0.489583,Eighth,G#4
4231,Left,1,36,80,684.0,0.489583,Eighth,C2
4232,Right,0,60,80,684.25,0.489583,Eighth,C4
4234,Left,1,44,80,684.5,0.489583,Eighth,G#2
4233,Right,0,63,80,684.5,0.489583,Eighth,D#4
4235,Right,0,68,80,684.75,0.489583,Eighth,G#4
4237,Left,1,36,80,685.0,0.489583,Eighth,C2
4236,Right,0,72,80,685.0,0.489583,Eighth,C5
4238,Right,0,63,80,685.25,0.489583,Eighth,D#4
4239,Right,0,68,80,685.5,0.489583,Eighth,G#4
4240,Left,1,44,80,685.5,0.489583,Eighth,G#2
4241,Right,0,72,80,685.75,0.489583,Eighth,C5
4243,Left,1,36,80,686.0,0.489583,Eighth,C2
4242,Right,0,75,80,686.0,0.489583,Eighth,D#5
4244,Right,0,68,80,686.25,0.489583,Eighth,G#4
4246,Right,0,72,80,686.5,0.489583,Eighth,C5
4245,Left,1,44,80,686.5,0.489583,Eighth,G#2
4247,Right,0,75,80,686.75,0.239583,Sixteenth,D#5
4252,Left,1,36,110,687.0,0.989583,Quarter,C3_C2
4248,Right,0,68,110,687.0,0.489583,Eighth,G#5_G#4_D#5_C5
4257,Left,1,44,110,687.5,0.489583,Eighth,G#2
4254,Right,0,80,110,687.5,0.489583,Eighth,G#5_G#4_D#5_C5
4259,Left,1,35,80,688.0,0.489583,Eighth,B1
4260,Right,0,49,80,688.25,0.489583,Eighth,C#3
4261,Left,1,44,80,688.5,0.489583,Eighth,G#2
4262,Right,0,53,80,688.5,0.489583,Eighth,F3
4263,Right,0,56,80,688.75,0.489583,Eighth,G#3
4264,Left,1,35,80,689.0,0.489583,Eighth,B1
4265,Right,0,61,80,689.0,0.489583,Eighth,C#4
4266,Right,0,53,80,689.25,0.489583,Eighth,F3
4268,Left,1,44,80,689.5,0.489583,Eighth,G#2
4267,Right,0,56,80,689.5,0.489583,Eighth,G#3
4269,Right,0,61,80,689.75,0.489583,Eighth,C#4
4271,Right,0,65,80,690.0,0.489583,Eighth,F4
4270,Left,1,35,80,690.0,0.489583,Eighth,B1
4272,Right,0,56,80,690.25,0.489583,Eighth,G#3
4273,Right,0,61,80,690.5,0.489583,Eighth,C#4
4274,Left,1,44,80,690.5,0.489583,Eighth,G#2
4275,Right,0,65,80,690.75,0.489583,Eighth,F4
4277,Left,1,35,80,691.0,0.489583,Eighth,B1
4276,Right,0,68,80,691.0,0.489583,Eighth,G#4
4278,Right,0,61,80,691.25,0.489583,Eighth,C#4
4280,Left,1,44,80,691.5,0.489583,Eighth,G#2
4279,Right,0,65,80,691.5,0.489583,Eighth,F4
4281,Right,0,68,80,691.75,0.489583,Eighth,G#4
4282,Right,0,73,80,692.0,0.489583,Eighth,C#5
4283,Left,1,35,80,692.0,0.489583,Eighth,B1
4284,Right,0,65,80,692.25,0.489583,Eighth,F4
4286,Left,1,44,80,692.5,0.489583,Eighth,G#2
4285,Right,0,68,80,692.5,0.489583,Eighth,G#4
4287,Right,0,73,80,692.75,0.489583,Eighth,C#5
4288,Left,1,35,80,693.0,0.489583,Eighth,B1
4289,Right,0,77,80,693.0,0.489583,Eighth,F5
4290,Right,0,68,80,693.25,0.489583,Eighth,G#4
4292,Right,0,73,80,693.5,0.489583,Eighth,C#5
4291,Left,1,44,80,693.5,0.489583,Eighth,G#2
4293,Right,0,77,80,693.75,0.489583,Eighth,F5
4295,Right,0,80,80,694.0,0.489583,Eighth,G#5
4294,Left,1,35,80,694.0,0.489583,Eighth,B1
4296,Right,0,73,80,694.25,0.489583,Eighth,C#5
4298,Right,0,77,80,694.5,0.489583,Eighth,F5
4297,Left,1,44,80,694.5,0.489583,Eighth,G#2
4299,Right,0,80,80,694.75,0.239583,Sixteenth,G#5
4300,Left,1,47,110,695.0,0.989583,Quarter,B2_B1
4301,Right,0,85,110,695.0,0.489583,Eighth,G#5_F5_C#6_C#5
4306,Right,0,85,110,695.5,0.489583,Eighth,G#5_F5_C#6_C#5
4310,Left,1,44,110,695.5,0.489583,Eighth,G#2
4311,Left,1,33,90,696.0,0.489583,Eighth,A1
4312,Right,0,49,90,696.25,0.489583,Eighth,C#3
4314,Left,1,44,90,696.5,0.489583,Eighth,G#2
4313,Right,0,54,90,696.5,0.489583,Eighth,F#3
4315,Right,0,57,90,696.75,0.489583,Eighth,A3
4316,Right,0,61,90,697.0,0.239583,Sixteenth,C#4
4317,Left,1,33,90,697.0,0.489583,Eighth,A1
4318,Right,0,61,90,697.25,0.489583,Eighth,C#4
4319,Right,0,66,90,697.5,0.489583,Eighth,F#4
4320,Left,1,44,90,697.5,0.489583,Eighth,G#2
4321,Right,0,69,90,697.75,0.489583,Eighth,A4
4323,Right,0,73,90,698.0,0.239583,Sixteenth,C#5
4322,Left,1,33,90,698.0,0.489583,Eighth,A1
4324,Right,0,73,90,698.25,0.489583,Eighth,C#5
4326,Left,1,44,90,698.5,0.489583,Eighth,G#2
4325,Right,0,78,90,698.5,0.489583,Eighth,F#5
4327,Right,0,81,90,698.75,0.489583,Eighth,A5
4331,Left,1,33,110,699.0,0.989583,Quarter,A1
4328,Right,0,85,110,699.0,0.489583,Eighth,F#5_C#6_C#5
4335,Left,1,44,110,699.5,0.489583,Eighth,G#2
4332,Right,0,78,110,699.5,0.489583,Eighth,F#5_C#6_C#5
4336,Left,1,33,90,700.0,0.489583,Eighth,A1
4337,Right,0,49,90,700.25,0.489583,Eighth,C#3
4338,Left,1,45,90,700.5,0.489583,Eighth,A2
4339,Right,0,52,90,700.5,0.489583,Eighth,E3
4340,Right,0,55,90,700.75,0.489583,Eighth,G3
4342,Right,0,61,90,701.0,0.239583,Sixteenth,C#4
4341,Left,1,33,90,701.0,0.489583,Eighth,A1
4343,Right,0,61,90,701.25,0.489583,Eighth,C#4
4345,Left,1,45,90,701.5,0.489583,Eighth,A2
4344,Right,0,64,90,701.5,0.489583,Eighth,E4
4346,Right,0,67,90,701.75,0.489583,Eighth,G4
4348,Left,1,33,90,702.0,0.489583,Eighth,A1
4347,Right,0,73,90,702.0,0.239583,Sixteenth,C#5
4349,Right,0,73,90,702.25,0.489583,Eighth,C#5
4351,Left,1,45,90,702.5,0.489583,Eighth,A2
4350,Right,0,76,90,702.5,0.489583,Eighth,E5
4352,Right,0,79,90,702.75,0.239583,Sixteenth,G5
4354,Right,0,73,110,703.0,0.489583,Eighth,G5_C#6_C#5
4353,Left,1,33,110,703.0,0.989583,Quarter,A1
4357,Right,0,79,110,703.5,0.489583,Eighth,G5_C#6_C#5
4360,Left,1,45,110,703.5,0.489583,Eighth,A2
4363,Right,0,72,110,704.0,0.489583,Eighth,G#5_C6_C5
4361,Left,1,44,110,704.0,0.989583,Quarter,G#2_G#1
4367,Right,0,68,110,704.5,0.489583,Eighth,G#4
4366,Left,1,60,110,704.5,7.489583,Eighth,G#3_C4
4369,Right,0,80,110,704.75,0.489583,Eighth,G#5
4371,Left,1,60,110,705.0,0.489583,Eighth,C4
4370,Right,0,68,110,705.0,0.489583,Eighth,G#4
4372,Right,0,80,110,705.25,0.489583,Eighth,G#5
4374,Left,1,61,110,705.5,0.489583,Eighth,C#4
4373,Right,0,70,110,705.5,0.489583,Eighth,A#4
4375,Right,0,80,110,705.75,0.489583,Eighth,G#5
4376,Right,0,72,110,706.0,0.489583,Eighth,C5
4377,Left,1,63,110,706.0,0.489583,Eighth,D#4
4378,Right,0,80,110,706.25,0.489583,Eighth,G#5
4379,Right,0,73,110,706.5,0.489583,Eighth,C#5
4380,Left,1,64,110,706.5,0.489583,Eighth,E4
4381,Right,0,80,110,706.75,0.489583,Eighth,G#5
4382,Right,0,75,110,707.0,0.489583,Eighth,D#5
4383,Left,1,66,110,707.0,0.489583,Eighth,F#4
4384,Right,0,80,110,707.25,0.489583,Eighth,G#5
4386,Right,0,72,110,707.5,0.489583,Eighth,C5
4385,Left,1,64,110,707.5,0.489583,Eighth,E4
4387,Right,0,80,110,707.75,0.489583,Eighth,G#5
4389,Right,0,75,110,708.0,0.489583,Eighth,D#5
4388,Left,1,66,110,708.0,0.489583,Eighth,F#4
4390,Right,0,80,110,708.25,0.489583,Eighth,G#5
4392,Right,0,73,110,708.5,0.489583,Eighth,C#5
4391,Left,1,64,110,708.5,0.489583,Eighth,E4
4393,Right,0,80,110,708.75,0.489583,Eighth,G#5
4395,Left,1,69,110,709.0,0.489583,Eighth,A4
4394,Right,0,78,110,709.0,0.489583,Eighth,F#5
4396,Right,0,80,110,709.25,0.489583,Eighth,G#5
4397,Right,0,76,110,709.5,0.489583,Eighth,E5
4398,Left,1,68,110,709.5,0.489583,Eighth,G#4
4399,Right,0,80,110,709.75,0.489583,Eighth,G#5
4400,Right,0,75,110,710.0,0.489583,Eighth,D#5
4401,Left,1,66,110,710.0,0.489583,Eighth,F#4
4402,Right,0,80,110,710.25,0.489583,Eighth,G#5
4403,Right,0,73,110,710.5,0.489583,Eighth,C#5
4404,Left,1,64,110,710.5,0.489583,Eighth,E4
4405,Right,0,80,110,710.75,0.489583,Eighth,G#5
4407,Left,1,63,110,711.0,0.489583,Eighth,D#4
4406,Right,0,72,110,711.0,0.489583,Eighth,C5
4408,Right,0,80,110,711.25,0.489583,Eighth,G#5
4409,Left,1,61,110,711.5,0.489583,Eighth,C#4
4410,Right,0,69,110,711.5,0.489583,Eighth,A4
4411,Right,0,79,110,711.75,0.239583,Sixteenth,G5
4412,Left,1,56,110,712.0,7.989583,Unknown,G#3_C4
4413,Right,0,68,110,712.0,0.489583,Eighth,G#4
4415,Right,0,80,110,712.25,0.489583,Eighth,G#5
4416,Left,1,60,110,712.5,0.489583,Eighth,C4
4417,Right,0,68,110,712.5,0.489583,Eighth,G#4
4418,Right,0,80,110,712.75,0.489583,Eighth,G#5
4420,Right,0,68,110,713.0,0.489583,Eighth,G#4
4419,Left,1,60,110,713.0,0.489583,Eighth,C4
4421,Right,0,80,110,713.25,0.489583,Eighth,G#5
4422,Left,1,61,110,713.5,0.489583,Eighth,C#4
4423,Right,0,70,110,713.5,0.489583,Eighth,A#4
4424,Right,0,80,110,713.75,0.489583,Eighth,G#5
4425,Left,1,63,110,714.0,0.489583,Eighth,D#4
4426,Right,0,72,110,714.0,0.489583,Eighth,C5
4427,Right,0,80,110,714.25,0.489583,Eighth,G#5
4429,Right,0,73,110,714.5,0.489583,Eighth,C#5
4428,Left,1,64,110,714.5,0.489583,Eighth,E4
4430,Right,0,80,110,714.75,0.489583,Eighth,G#5
4432,Left,1,66,110,715.0,0.489583,Eighth,F#4
4431,Right,0,75,110,715.0,0.489583,Eighth,D#5
4433,Right,0,80,110,715.25,0.489583,Eighth,G#5
4435,Right,0,72,110,715.5,0.489583,Eighth,C5
4434,Left,1,64,110,715.5,0.489583,Eighth,E4
4436,Right,0,80,110,715.75,0.489583,Eighth,G#5
4437,Left,1,66,110,716.0,0.489583,Eighth,F#4
4438,Right,0,75,110,716.0,0.489583,Eighth,D#5
4439,Right,0,80,110,716.25,0.489583,Eighth,G#5
4440,Right,0,73,110,716.5,0.489583,Eighth,C#5
4441,Left,1,64,110,716.5,0.489583,Eighth,E4
4442,Right,0,80,110,716.75,0.489583,Eighth,G#5
4444,Left,1,69,110,717.0,0.489583,Eighth,A4
4443,Right,0,78,110,717.0,0.489583,Eighth,F#5
4445,Right,0,80,110,717.25,0.489583,Eighth,G#5
4447,Left,1,68,110,717.5,0.489583,Eighth,G#4
4446,Right,0,76,110,717.5,0.489583,Eighth,E5
4448,Right,0,80,110,717.75,0.489583,Eighth,G#5
4449,Left,1,66,110,718.0,0.489583,Eighth,F#4
4450,Right,0,75,110,718.0,0.489583,Eighth,D#5
4451,Right,0,80,110,718.25,0.489583,Eighth,G#5
4452,Right,0,73,110,718.5,0.489583,Eighth,C#5
4453,Left,1,64,110,718.5,0.489583,Eighth,E4
4454,Right,0,80,110,718.75,0.489583,Eighth,G#5
4455,Right,0,72,110,719.0,0.489583,Eighth,C5
4456,Left,1,63,110,719.0,0.489583,Eighth,D#4
4457,Right,0,80,110,719.25,0.489583,Eighth,G#5
4458,Right,0,69,110,719.5,0.489583,Eighth,A4
4459,Left,1,61,110,719.5,0.489583,Eighth,C#4
4460,Right,0,79,110,719.75,0.239583,Sixteenth,G5
4461,Left,1,60,110,720.0,0.489583,Eighth,G#3_C4
4462,Right,0,68,110,720.0,0.489583,Eighth,G#4
4464,Right,0,80,110,720.25,0.489583,Eighth,G#5
4466,Right,0,69,110,720.5,0.489583,Eighth,A4
4465,Left,1,56,110,720.5,0.489583,Eighth,G#3_C#4
4468,Right,0,79,110,720.75,0.489583,Eighth,G5
4470,Left,1,60,110,721.0,0.489583,Eighth,G#3_C4
4469,Right,0,68,110,721.0,0.489583,Eighth,G#4
4472,Right,0,80,110,721.25,0.489583,Eighth,G#5
4475,Right,0,69,110,721.5,0.489583,Eighth,A4
4473,Left,1,56,110,721.5,0.489583,Eighth,G#3_C#4
4476,Right,0,79,110,721.75,0.489583,Eighth,G5
4477,Left,1,60,110,722.0,0.489583,Eighth,G#3_C4
4479,Right,0,68,110,722.0,0.489583,Eighth,G#4
4480,Right,0,80,110,722.25,0.489583,Eighth,G#5
4481,Right,0,69,110,722.5,0.489583,Eighth,A4
4482,Left,1,61,110,722.5,0.489583,Eighth,G#3_C#4
4484,Right,0,79,110,722.75,0.489583,Eighth,G5
4486,Left,1,56,110,723.0,0.489583,Eighth,G#3_C4
4485,Right,0,68,110,723.0,0.489583,Eighth,G#4
4488,Right,0,80,110,723.25,0.489583,Eighth,G#5
4489,Left,1,56,110,723.5,0.489583,Eighth,G#3_C#4
4491,Right,0,69,110,723.5,0.489583,Eighth,A4
4492,Right,0,79,110,723.75,0.239583,Sixteenth,G5
4495,Right,0,68,110,724.0,0.989583,Quarter,G#5_G#4
4493,Left,1,60,110,724.0,0.989583,Quarter,G#3_C4
4498,Left,1,32,110,725.0,6.989583,Unknown,G#2_G#1
4497,Right,0,56,110,725.0,6.989583,Unknown,G#3
4500,Left,1,49,70,732.0,0.489583,Eighth,C#3
4501,Left,1,56,70,732.25,0.489583,Eighth,G#3
4502,Left,1,52,70,732.5,0.489583,Eighth,E3
4503,Left,1,56,70,732.75,0.489583,Eighth,G#3
4505,Right,0,68,80,733.0,1.989583,Half,G#4
4504,Left,1,49,70,733.0,0.489583,Eighth,C#3
4506,Left,1,56,70,733.25,0.489583,Eighth,G#3
4507,Left,1,52,70,733.5,0.489583,Eighth,E3
4508,Left,1,56,70,733.75,0.489583,Eighth,G#3
4509,Left,1,49,70,734.0,0.489583,Eighth,C#3
4510,Left,1,56,70,734.25,0.489583,Eighth,G#3
4511,Left,1,52,70,734.5,0.489583,Eighth,E3
4512,Left,1,56,70,734.75,0.489583,Eighth,G#3
4514,Right,0,64,80,735.0,0.989583,Quarter,E4
4513,Left,1,49,70,735.0,0.489583,Eighth,C#3
4515,Left,1,56,70,735.25,0.489583,Eighth,G#3
4516,Left,1,52,70,735.5,0.489583,Eighth,E3
4517,Left,1,56,70,735.75,0.489583,Eighth,G#3
4518,Right,0,60,80,736.0,0.989583,Quarter,C4
4519,Left,1,51,70,736.0,0.489583,Eighth,D#3
4520,Right,0,61,80,736.083333,0.15625,TripletSixteenth,C#4
4521,Right,0,63,80,736.166667,0.989583,Quarter,D#4
4523,Left,1,56,70,736.25,0.489583,Eighth,G#3
4522,Right,0,61,80,736.25,0.739583,DottedEighth,C#4
4524,Left,1,54,70,736.5,0.489583,Eighth,F#3
4525,Left,1,56,70,736.75,0.489583,Eighth,G#3
4527,Right,0,60,80,737.0,1.489583,DottedQuarter,C4
4526,Left,1,51,70,737.0,0.489583,Eighth,D#3
4528,Left,1,56,70,737.25,0.489583,Eighth,G#3
4529,Left,1,54,70,737.5,0.489583,Eighth,F#3
4530,Left,1,56,70,737.75,0.489583,Eighth,G#3
4531,Left,1,51,70,738.0,0.489583,Eighth,D#3
4532,Left,1,56,70,738.25,0.489583,Eighth,G#3
4533,Right,0,60,80,738.5,0.489583,Eighth,C4
4534,Left,1,54,70,738.5,0.489583,Eighth,F#3
4535,Left,1,56,70,738.75,0.489583,Eighth,G#3
4537,Right,0,68,93,739.0,0.989583,Quarter,G#4
4536,Left,1,51,70,739.0,0.489583,Eighth,D#3
4538,Left,1,56,70,739.25,0.489583,Eighth,G#3
4539,Left,1,54,70,739.5,0.489583,Eighth,F#3
4540,Right,0,60,80,739.75,0.489583,Eighth,C4
4541,Left,1,56,70,739.75,0.489583,Eighth,G#3
4543,Left,1,52,70,740.0,0.489583,Eighth,E3
4542,Right,0,63,80,740.0,0.989583,Quarter,D#4
4544,Left,1,56,70,740.25,0.489583,Eighth,G#3
4545,Left,1,52,70,740.5,0.489583,Eighth,E3
4546,Left,1,56,70,740.75,0.489583,Eighth,G#3
4548,Right,0,61,80,741.0,1.489583,DottedQuarter,C#4
4547,Left,1,52,70,741.0,0.489583,Eighth,E3
4549,Left,1,56,70,741.25,0.489583,Eighth,G#3
4550,Left,1,52,70,741.5,0.489583,Eighth,E3
4551,Left,1,56,70,741.75,0.489583,Eighth,G#3
4552,Left,1,52,70,742.0,0.489583,Eighth,E3
4553,Left,1,56,70,742.25,0.489583,Eighth,G#3
4555,Right,0,61,80,742.5,0.489583,Eighth,C#4
4554,Left,1,52,70,742.5,0.489583,Eighth,E3
4556,Left,1,56,70,742.75,0.489583,Eighth,G#3
4557,Right,0,68,93,743.0,0.989583,Quarter,G#4
4558,Left,1,52,70,743.0,0.489583,Eighth,E3
4559,Left,1,56,70,743.25,0.489583,Eighth,G#3
4560,Left,1,52,70,743.5,0.489583,Eighth,E3
4562,Right,0,61,80,743.75,0.489583,Eighth,C#4
4561,Left,1,56,70,743.75,0.489583,Eighth,G#3
4564,Right,0,64,80,744.0,0.989583,Quarter,E4
4563,Left,1,48,70,744.0,0.489583,Eighth,C3
4565,Left,1,56,70,744.25,0.489583,Eighth,G#3
4566,Left,1,48,70,744.5,0.489583,Eighth,C3
4567,Left,1,56,70,744.75,0.489583,Eighth,G#3
4568,Right,0,63,80,745.0,1.489583,DottedQuarter,D#4
4569,Left,1,48,70,745.0,0.489583,Eighth,C3
4570,Left,1,56,70,745.25,0.489583,Eighth,G#3
4571,Left,1,48,70,745.5,0.489583,Eighth,C3
4572,Left,1,56,70,745.75,0.489583,Eighth,G#3
4573,Left,1,48,70,746.0,0.489583,Eighth,C3
4574,Left,1,56,70,746.25,0.489583,Eighth,G#3
4575,Right,0,63,80,746.5,0.489583,Eighth,D#4
4576,Left,1,48,70,746.5,0.489583,Eighth,C3
4577,Left,1,56,70,746.75,0.489583,Eighth,G#3
4579,Left,1,48,70,747.0,0.489583,Eighth,C3
4578,Right,0,68,91,747.0,0.989583,Quarter,G#4
4580,Left,1,56,70,747.25,0.489583,Eighth,G#3
4581,Left,1,48,70,747.5,0.489583,Eighth,C3
4583,Right,0,63,80,747.75,0.489583,Eighth,D#4
4582,Left,1,56,70,747.75,0.489583,Eighth,G#3
4585,Left,1,49,70,748.0,0.489583,Eighth,C#3
4584,Right,0,64,80,748.0,0.489583,Eighth,E4
4586,Left,1,56,70,748.25,0.489583,Eighth,G#3
4588,Right,0,80,80,748.5,0.989583,Quarter,G#5_G#4
4587,Left,1,52,70,748.5,0.489583,Eighth,E3
4590,Left,1,56,71,748.75,0.489583,Eighth,G#3
4591,Left,1,49,71,749.0,0.489583,Eighth,C#3
4592,Left,1,56,72,749.25,0.489583,Eighth,G#3
4594,Right,0,68,82,749.5,0.989583,Quarter,G#5_G#4
4593,Left,1,52,72,749.5,0.489583,Eighth,E3
4596,Left,1,56,73,749.75,0.489583,Eighth,G#3
4597,Left,1,49,73,750.0,0.489583,Eighth,C#3
4598,Left,1,56,74,750.25,0.489583,Eighth,G#3
4601,Left,1,52,74,750.5,0.489583,Eighth,E3
4599,Right,0,68,84,750.5,0.489583,Eighth,G#5_G#4
4602,Left,1,56,75,750.75,0.489583,Eighth,G#3
4603,Left,1,49,75,751.0,0.489583,Eighth,C#3
4604,Right,0,64,85,751.0,0.489583,Eighth,E5_E4
4606,Left,1,56,76,751.25,0.489583,Eighth,G#3
4607,Right,0,61,86,751.5,0.489583,Eighth,C#5_C#4
4608,Left,1,52,76,751.5,0.489583,Eighth,E3
4610,Left,1,56,77,751.75,0.489583,Eighth,G#3
4611,Right,0,73,87,752.0,0.489583,Eighth,C#5_C#4
4613,Left,1,51,77,752.0,0.489583,Eighth,D#3
4614,Left,1,56,77,752.25,0.489583,Eighth,G#3
4615,Right,0,72,88,752.5,0.989583,Quarter,C5_C4
4616,Left,1,54,78,752.5,0.489583,Eighth,F#3
4618,Left,1,56,78,752.75,0.489583,Eighth,G#3
4619,Left,1,51,79,753.0,0.489583,Eighth,D#3
4620,Left,1,56,79,753.25,0.489583,Eighth,G#3
4621,Right,0,72,90,753.5,0.989583,Quarter,C5_C4
4623,Left,1,54,80,753.5,0.489583,Eighth,F#3
4624,Left,1,56,80,753.75,0.489583,Eighth,G#3
4625,Left,1,51,81,754.0,0.489583,Eighth,D#3
4626,Left,1,56,81,754.25,0.489583,Eighth,G#3
4628,Right,0,60,92,754.5,0.489583,Eighth,C5_C4
4627,Left,1,54,82,754.5,0.489583,Eighth,F#3
4630,Left,1,56,82,754.75,0.489583,Eighth,G#3
4632,Left,1,51,83,755.0,0.489583,Eighth,D#3
4631,Right,0,80,93,755.0,0.489583,Eighth,G#5_G#4
4634,Left,1,56,83,755.25,0.489583,Eighth,G#3
4636,Left,1,54,84,755.5,0.489583,Eighth,F#3
4635,Right,0,72,94,755.5,0.489583,Eighth,C5_C4
4638,Left,1,56,84,755.75,0.489583,Eighth,G#3
4639,Right,0,63,94,756.0,0.489583,Eighth,D#5_D#4
4641,Left,1,52,84,756.0,0.489583,Eighth,E3
4642,Left,1,56,85,756.25,0.489583,Eighth,G#3
4644,Right,0,73,95,756.5,0.989583,Quarter,C#5_C#4
4643,Left,1,52,85,756.5,0.489583,Eighth,E3
4646,Left,1,56,86,756.75,0.489583,Eighth,G#3
4647,Left,1,52,86,757.0,0.489583,Eighth,E3
4648,Left,1,56,87,757.25,0.489583,Eighth,G#3
4649,Right,0,61,97,757.5,0.989583,Quarter,C#5_C#4
4651,Left,1,52,87,757.5,0.489583,Eighth,E3
4652,Left,1,56,88,757.75,0.489583,Eighth,G#3
4653,Left,1,52,88,758.0,0.489583,Eighth,E3
4654,Left,1,56,89,758.25,0.489583,Eighth,G#3
4655,Left,1,52,89,758.5,0.489583,Eighth,E3
4656,Right,0,61,99,758.5,0.489583,Eighth,C#5_C#4
4658,Left,1,56,90,758.75,0.489583,Eighth,G#3
4659,Left,1,52,90,759.0,0.489583,Eighth,E3
4660,Right,0,80,100,759.0,0.489583,Eighth,G#5_G#4
4662,Left,1,56,91,759.25,0.489583,Eighth,G#3
4665,Left,1,52,91,759.5,0.489583,Eighth,E3
4663,Right,0,73,101,759.5,0.489583,Eighth,C#5_C#4
4666,Left,1,56,92,759.75,0.489583,Eighth,G#3
4668,Right,0,76,102,760.0,0.489583,Eighth,E5_E4
4667,Left,1,48,92,760.0,0.489583,Eighth,C3
4670,Left,1,56,92,760.25,0.489583,Eighth,G#3
4671,Right,0,75,103,760.5,0.989583,Quarter,D#5_D#4
4672,Left,1,48,93,760.5,0.489583,Eighth,C3
4674,Left,1,56,93,760.75,0.489583,Eighth,G#3
4675,Left,1,48,94,761.0,0.489583,Eighth,C3
4676,Left,1,56,94,761.25,0.489583,Eighth,G#3
4677,Right,0,63,105,761.5,0.989583,Quarter,D#5_D#4
4678,Left,1,48,95,761.5,0.489583,Eighth,C3
4680,Left,1,56,95,761.75,0.489583,Eighth,G#3
4681,Left,1,48,96,762.0,0.489583,Eighth,C3
4682,Left,1,56,96,762.25,0.489583,Eighth,G#3
4684,Right,0,75,107,762.5,0.489583,Eighth,D#5_D#4
4683,Left,1,48,97,762.5,0.489583,Eighth,C3
4686,Left,1,56,97,762.75,0.489583,Eighth,G#3
4687,Right,0,68,108,763.0,0.489583,Eighth,G#5_G#4
4688,Left,1,48,98,763.0,0.489583,Eighth,C3
4690,Left,1,56,98,763.25,0.489583,Eighth,G#3
4691,Right,0,75,109,763.5,0.489583,Eighth,D#5_D#4
4692,Left,1,48,99,763.5,0.489583,Eighth,C3
4694,Left,1,56,99,763.75,0.489583,Eighth,G#3
4696,Left,1,47,100,764.0,0.489583,Eighth,B2
4695,Right,0,65,110,764.0,1.989583,Half,F5_F4
4698,Left,1,56,100,764.25,0.489583,Eighth,G#3
4699,Left,1,49,100,764.5,0.489583,Eighth,C#3
4700,Left,1,56,100,764.75,0.489583,Eighth,G#3
4701,Left,1,47,100,765.0,0.489583,Eighth,B2
4702,Left,1,56,100,765.25,0.489583,Eighth,G#3
4703,Left,1,49,100,765.5,0.489583,Eighth,C#3
4704,Left,1,56,100,765.75,0.489583,Eighth,G#3
4705,Right,0,66,110,766.0,1.989583,Half,F#5_F#4
4707,Left,1,45,100,766.0,0.489583,Eighth,A2
4708,Left,1,54,100,766.25,0.489583,Eighth,F#3
4709,Left,1,47,100,766.5,0.489583,Eighth,B2
4710,Left,1,54,100,766.75,0.489583,Eighth,F#3
4711,Left,1,45,100,767.0,0.489583,Eighth,A2
4712,Left,1,54,100,767.25,0.489583,Eighth,F#3
4713,Left,1,47,100,767.5,0.489583,Eighth,B2
4714,Left,1,54,100,767.75,0.489583,Eighth,F#3
4717,Left,1,45,100,768.0,0.489583,Eighth,A2
4715,Right,0,63,110,768.0,0.989583,Quarter,E5_D#4
4718,Right,0,75,110,768.166667,0.322917,Triplet,D#5
4719,Left,1,54,100,768.25,0.489583,Eighth,F#3
4720,Right,0,76,110,768.333333,0.322917,Triplet,E5
4721,Left,1,47,100,768.5,0.489583,Eighth,B2
4722,Right,0,75,110,768.5,0.322917,Triplet,D#5
4723,Right,0,73,110,768.666667,0.322917,Triplet,C#5
4724,Left,1,54,100,768.75,0.489583,Eighth,F#3
4725,Right,0,75,110,768.833333,0.322917,Triplet,D#5
4726,Left,1,44,100,769.0,0.489583,Eighth,G#2
4727,Right,0,76,110,769.0,2.989583,DottedHalf,E5_E4
4729,Left,1,52,100,769.25,0.489583,Eighth,E3
4730,Left,1,47,100,769.5,0.489583,Eighth,B2
4731,Left,1,52,100,769.75,0.489583,Eighth,E3
4732,Left,1,44,100,770.0,0.489583,Eighth,G#2
4733,Left,1,52,100,770.25,0.489583,Eighth,E3
4734,Left,1,47,100,770.5,0.489583,Eighth,B2
4735,Left,1,52,100,770.75,0.489583,Eighth,E3
4736,Left,1,44,100,771.0,0.489583,Eighth,G#2
4737,Left,1,52,100,771.25,0.489583,Eighth,E3
4738,Left,1,47,100,771.5,0.489583,Eighth,B2
4739,Left,1,52,100,771.75,0.489583,Eighth,E3
4740,Left,1,43,100,772.0,0.489583,Eighth,G2
4741,Right,0,61,110,772.0,1.989583,Half,C#5_C#4
4743,Left,1,52,100,772.25,0.489583,Eighth,E3
4744,Left,1,45,100,772.5,0.489583,Eighth,A2
4745,Left,1,52,100,772.75,0.489583,Eighth,E3
4746,Left,1,43,100,773.0,0.489583,Eighth,G2
4747,Left,1,52,100,773.25,0.489583,Eighth,E3
4748,Left,1,45,100,773.5,0.489583,Eighth,A2
4749,Left,1,52,100,773.75,0.489583,Eighth,E3
4751,Right,0,74,110,774.0,1.989583,Half,D5_D4
4750,Left,1,42,100,774.0,0.489583,Eighth,F#2
4753,Left,1,50,100,774.25,0.489583,Eighth,D3
4754,Left,1,45,100,774.5,0.489583,Eighth,A2
4755,Left,1,50,100,774.75,0.489583,Eighth,D3
4756,Left,1,42,100,775.0,0.489583,Eighth,F#2
4757,Left,1,50,100,775.25,0.489583,Eighth,D3
4758,Left,1,45,100,775.5,0.489583,Eighth,A2
4759,Left,1,50,100,775.75,0.489583,Eighth,D3
4762,Left,1,42,100,776.0,0.489583,Eighth,F#2
4760,Right,0,73,110,776.0,0.989583,Triplet,C4_C#5
4763,Right,0,72,110,776.166667,0.322917,Triplet,C5
4764,Left,1,51,100,776.25,0.489583,Eighth,D#3
4765,Right,0,73,110,776.333333,0.322917,Triplet,C#5
4767,Left,1,42,100,776.5,0.489583,Eighth,F#2
4766,Right,0,72,110,776.5,0.322917,Triplet,C5
4768,Right,0,69,110,776.666667,0.322917,Triplet,A4
4769,Left,1,51,100,776.75,0.489583,Eighth,D#3
4770,Right,0,72,110,776.833333,0.322917,Triplet,C5
4773,Left,1,40,100,777.0,0.489583,Eighth,E2
4771,Right,0,61,110,777.0,2.989583,DottedHalf,C#5_C#4
4774,Left,1,49,100,777.25,0.489583,Eighth,C#3
4775,Left,1,44,100,777.5,0.489583,Eighth,G#2
4776,Left,1,49,100,777.75,0.489583,Eighth,C#3
4777,Left,1,40,100,778.0,0.489583,Eighth,E2
4778,Left,1,49,100,778.25,0.489583,Eighth,C#3
4779,Left,1,44,100,778.5,0.489583,Eighth,G#2
4780,Left,1,49,100,778.75,0.489583,Eighth,C#3
4781,Left,1,40,100,779.0,0.489583,Eighth,E2
4782,Left,1,49,100,779.25,0.489583,Eighth,C#3
4783,Left,1,44,100,779.5,0.489583,Eighth,G#2
4784,Left,1,49,100,779.75,0.489583,Eighth,C#3
4785,Left,1,42,120,780.0,2.989583,DottedHalf,F#3_F#2_D3_A2
4786,Right,0,74,120,780.0,2.989583,DottedHalf,F#4_D5_D4_A4
4793,Right,0,69,80,782.25,0.489583,Eighth,A4
4794,Right,0,71,80,782.5,0.489583,Eighth,B4
4795,Right,0,73,80,782.75,0.489583,Eighth,C#5
4796,Right,0,74,80,783.0,0.489583,Eighth,D5
4797,Right,0,76,80,783.25,0.489583,Eighth,E5
4798,Right,0,78,80,783.5,0.489583,Eighth,F#5
4799,Right,0,76,80,783.75,0.489583,Eighth,E5
4800,Left,1,57,80,784.0,0.989583,Quarter,F#3_D4_A3
4803,Right,0,74,80,784.0,0.489583,Eighth,D5
4804,Right,0,69,80,784.25,0.489583,Eighth,A4
4805,Right,0,71,80,784.5,0.489583,Eighth,B4
4806,Right,0,73,80,784.75,0.489583,Eighth,C#5
4807,Right,0,74,80,785.0,0.489583,Eighth,D5
4808,Right,0,76,80,785.25,0.489583,Eighth,E5
4809,Right,0,78,80,785.5,0.489583,Eighth,F#5
4810,Right,0,76,80,785.75,0.489583,Eighth,E5
4812,Left,1,62,80,786.0,0.989583,Quarter,F#3_D4_A3
4811,Right,0,74,80,786.0,0.489583,Eighth,D5
4815,Right,0,69,80,786.25,0.489583,Eighth,A4
4816,Right,0,71,80,786.5,0.489583,Eighth,B4
4817,Right,0,73,80,786.75,0.489583,Eighth,C#5
4818,Right,0,74,80,787.0,0.489583,Eighth,D5
4819,Right,0,76,80,787.25,0.489583,Eighth,E5
4820,Right,0,78,80,787.5,0.489583,Eighth,F#5
4821,Right,0,76,80,787.75,0.489583,Eighth,E5
4824,Right,0,74,80,788.0,0.489583,Eighth,D5
4822,Left,1,57,80,788.0,0.989583,Quarter,F#3_D4_A3
4826,Right,0,69,81,788.25,0.489583,Eighth,A4
4827,Right,0,71,82,788.5,0.489583,Eighth,B4
4828,Right,0,73,83,788.75,0.489583,Eighth,C#5
4831,Right,0,74,84,789.0,0.489583,Eighth,D5
4829,Left,1,57,84,789.0,0.989583,Quarter,F#3_D4_A3
4833,Right,0,76,86,789.25,0.489583,Eighth,E5
4834,Right,0,78,87,789.5,0.489583,Eighth,F#5
4835,Right,0,79,88,789.75,0.489583,Eighth,G5
4839,Right,0,81,89,790.0,0.489583,Eighth,A5
4836,Left,1,54,89,790.0,0.989583,Quarter,F#3_D4_A3
4840,Right,0,80,91,790.25,0.489583,Eighth,G#5
4841,Right,0,83,92,790.5,0.489583,Eighth,B5
4842,Right,0,81,93,790.75,0.489583,Eighth,A5
4843,Right,0,79,94,791.0,0.489583,Eighth,G5
4844,Left,1,54,94,791.0,0.989583,Quarter,F#3_D4_A3
4847,Right,0,78,96,791.25,0.489583,Eighth,F#5
4848,Right,0,76,97,791.5,0.489583,Eighth,E5
4849,Right,0,74,98,791.75,0.489583,Eighth,D5
4850,Right,0,73,80,792.0,1.989583,Half,C#5
4851,Left,1,56,70,792.0,0.489583,Eighth,G#3
4852,Left,1,64,71,792.25,0.489583,Eighth,E4
4853,Left,1,61,72,792.5,0.489583,Eighth,C#4
4854,Left,1,64,73,792.75,0.489583,Eighth,E4
4855,Left,1,56,74,793.0,0.489583,Eighth,G#3
4856,Left,1,64,76,793.25,0.489583,Eighth,E4
4857,Left,1,61,77,793.5,0.489583,Eighth,C#4
4858,Left,1,64,78,793.75,0.489583,Eighth,E4
4860,Left,1,56,79,794.0,0.489583,Eighth,G#3
4859,Right,0,76,89,794.0,0.322917,Triplet,E5
4861,Right,0,75,90,794.166667,0.322917,Triplet,D#5
4862,Left,1,66,81,794.25,0.489583,Eighth,F#4
4863,Right,0,76,91,794.333333,0.322917,Triplet,E5
4864,Right,0,75,92,794.5,0.322917,Triplet,D#5
4865,Left,1,60,82,794.5,0.489583,Eighth,C4
4866,Right,0,76,93,794.666667,0.322917,Triplet,E5
4867,Left,1,66,83,794.75,0.489583,Eighth,F#4
4868,Right,0,75,94,794.833333,0.322917,Triplet,D#5
4869,Right,0,76,94,795.0,0.322917,Triplet,E5
4870,Left,1,56,84,795.0,0.489583,Eighth,G#3
4871,Right,0,75,95,795.166667,0.322917,Triplet,D#5
4872,Left,1,66,86,795.25,0.489583,Eighth,F#4
4873,Right,0,76,96,795.333333,0.322917,Triplet,E5
4875,Right,0,75,97,795.5,0.322917,Triplet,D#5
4874,Left,1,60,87,795.5,0.489583,Eighth,C4
4876,Right,0,73,98,795.666667,0.322917,Triplet,C#5
4877,Left,1,66,88,795.75,0.489583,Eighth,F#4
4878,Right,0,75,99,795.833333,0.322917,Triplet,D#5
4879,Left,1,64,89,796.0,0.989583,Quarter,E4_C#4_A3
4882,Right,0,73,99,796.0,0.989583,Quarter,C#5
4883,Left,1,30,120,797.0,1.989583,Half,F#2_F#1_D2_A1
4885,Right,0,57,120,797.0,1.989583,Half,F#3_D4_D3_A3
4891,Right,0,57,90,798.25,0.489583,Eighth,A3
4892,Right,0,59,90,798.5,0.489583,Eighth,B3
4893,Right,0,61,90,798.75,0.489583,Eighth,C#4
4894,Right,0,62,90,799.0,0.489583,Eighth,D4
4895,Right,0,64,90,799.25,0.489583,Eighth,E4
4896,Right,0,66,90,799.5,0.489583,Eighth,F#4
4897,Right,0,64,90,799.75,0.489583,Eighth,E4
4898,Right,0,62,90,800.0,0.489583,Eighth,D4
4899,Right,0,57,90,800.25,0.489583,Eighth,A3
4900,Right,0,59,90,800.5,0.489583,Eighth,B3
4901,Right,0,61,90,800.75,0.489583,Eighth,C#4
4902,Left,1,50,90,801.0,0.989583,Quarter,F#2_D3_A2
4903,Right,0,62,90,801.0,0.489583,Eighth,D4
4906,Right,0,64,90,801.25,0.489583,Eighth,E4
4907,Right,0,66,90,801.5,0.489583,Eighth,F#4
4908,Right,0,64,90,801.75,0.489583,Eighth,E4
4909,Right,0,62,90,802.0,0.489583,Eighth,D4
4910,Right,0,57,90,802.25,0.489583,Eighth,A3
4911,Right,0,59,90,802.5,0.489583,Eighth,B3
4912,Right,0,61,90,802.75,0.489583,Eighth,C#4
4915,Right,0,62,90,803.0,0.489583,Eighth,D4
4913,Left,1,45,90,803.0,0.989583,Quarter,F#2_D3_A2
4917,Right,0,64,90,803.25,0.489583,Eighth,E4
4918,Right,0,66,90,803.5,0.489583,Eighth,F#4
4919,Right,0,64,90,803.75,0.489583,Eighth,E4
4920,Right,0,62,90,804.0,0.489583,Eighth,D4
4921,Right,0,57,90,804.25,0.489583,Eighth,A3
4922,Left,1,42,91,804.5,0.739583,DottedEighth,F#2_D3_A2
4925,Right,0,59,91,804.5,0.489583,Eighth,B3
4926,Right,0,61,91,804.75,0.489583,Eighth,C#4
4927,Right,0,62,92,805.0,0.489583,Eighth,D4
4928,Right,0,64,93,805.25,0.489583,Eighth,E4
4929,Left,1,42,93,805.5,0.739583,DottedEighth,F#2_D3_A2
4932,Right,0,66,93,805.5,0.489583,Eighth,F#4
4933,Right,0,64,94,805.75,0.489583,Eighth,E4
4934,Right,0,62,94,806.0,0.489583,Eighth,D4
4935,Right,0,57,95,806.25,0.489583,Eighth,A3
4936,Right,0,59,96,806.5,0.489583,Eighth,B3
4937,Left,1,42,96,806.5,0.739583,DottedEighth,F#2_D3_A2
4940,Right,0,61,96,806.75,0.489583,Eighth,C#4
4941,Right,0,62,97,807.0,0.489583,Eighth,D4
4942,Right,0,64,98,807.25,0.489583,Eighth,E4
4946,Right,0,66,98,807.5,0.489583,Eighth,F#4
4943,Left,1,50,98,807.5,0.489583,Eighth,F#2_D3_A2
4947,Right,0,64,99,807.75,0.489583,Eighth,E4
4951,Right,0,62,99,808.0,0.489583,Eighth,D4
4948,Left,1,50,99,808.0,0.989583,Quarter,F#2_D3_A2
4952,Right,0,57,100,808.25,0.489583,Eighth,A3
4953,Right,0,59,101,808.5,0.489583,Eighth,B3
4954,Right,0,61,101,808.75,0.489583,Eighth,C#4
4955,Right,0,62,102,809.0,0.489583,Eighth,D4
4956,Right,0,64,103,809.25,0.489583,Eighth,E4
4957,Right,0,66,103,809.5,0.489583,Eighth,F#4
4958,Right,0,67,104,809.75,0.489583,Eighth,G4
4959,Right,0,69,104,810.0,0.489583,Eighth,A4
4960,Right,0,71,105,810.25,0.489583,Eighth,B4
4961,Right,0,73,106,810.5,0.489583,Eighth,C#5
4962,Right,0,74,106,810.75,0.489583,Eighth,D5
4963,Right,0,76,107,811.0,0.489583,Eighth,E5
4964,Right,0,78,108,811.25,0.489583,Eighth,F#5
4965,Right,0,79,108,811.5,0.489583,Eighth,G5
4966,Right,0,80,109,811.75,0.489583,Eighth,G#5
4968,Right,0,81,120,812.0,1.989583,Half,A5_A4
4967,Left,1,42,110,812.0,0.489583,Eighth,F#2
4970,Left,1,50,110,812.25,0.489583,Eighth,D3
4971,Left,1,47,110,812.5,0.489583,Eighth,B2
4972,Left,1,50,110,812.75,0.489583,Eighth,D3
4973,Left,1,42,110,813.0,0.489583,Eighth,F#2
4974,Left,1,50,110,813.25,0.489583,Eighth,D3
4975,Left,1,47,110,813.5,0.489583,Eighth,B2
4976,Left,1,50,110,813.75,0.489583,Eighth,D3
4977,Right,0,73,120,814.0,1.989583,Half,C#5_C#4
4978,Left,1,43,110,814.0,0.489583,Eighth,G2
4980,Left,1,52,110,814.25,0.489583,Eighth,E3
4981,Left,1,46,110,814.5,0.489583,Eighth,A#2
4982,Left,1,52,110,814.75,0.489583,Eighth,E3
4983,Left,1,43,110,815.0,0.489583,Eighth,G2
4984,Left,1,52,110,815.25,0.489583,Eighth,E3
4985,Left,1,46,110,815.5,0.489583,Eighth,A#2
4986,Left,1,52,110,815.75,0.489583,Eighth,E3
4987,Right,0,64,120,816.0,1.989583,Half,E5_E4
4989,Left,1,44,110,816.0,0.489583,Eighth,G#2
4990,Left,1,52,110,816.25,0.489583,Eighth,E3
4991,Left,1,49,110,816.5,0.489583,Eighth,C#3
4992,Left,1,52,110,816.75,0.489583,Eighth,E3
4993,Left,1,44,110,817.0,0.489583,Eighth,G#2
4994,Left,1,52,110,817.25,0.489583,Eighth,E3
4995,Left,1,49,110,817.5,0.489583,Eighth,C#3
4996,Left,1,52,110,817.75,0.489583,Eighth,E3
4998,Right,0,60,120,818.0,1.989583,Half,F#3_C4_C3
4997,Left,1,32,110,818.0,0.489583,Eighth,G#1
5001,Left,1,44,110,818.25,0.489583,Eighth,G#2
5002,Left,1,43,110,818.5,0.489583,Eighth,G2
5003,Left,1,44,110,818.75,0.489583,Eighth,G#2
5004,Left,1,43,110,819.0,0.489583,Eighth,G2
5005,Left,1,44,110,819.25,0.489583,Eighth,G#2
5006,Left,1,43,110,819.5,0.489583,Eighth,G2
5007,Left,1,44,110,819.75,0.489583,Eighth,G#2
5008,Left,1,37,110,820.0,0.989583,Quarter,C#2
5009,Right,0,49,120,820.0,0.989583,Quarter,E3_C#4_C#3
5013,Right,0,64,80,820.5,0.489583,Eighth,G#3_E4
5012,Left,1,49,80,820.5,0.489583,Eighth,C#3
5016,Right,0,56,80,821.0,0.489583,Eighth,G#3_E4
5015,Left,1,49,80,821.0,0.489583,Eighth,C#3
5020,Left,1,49,80,821.5,0.489583,Eighth,C#3
5018,Right,0,56,80,821.5,0.489583,Eighth,G#3_E4
5021,Right,0,56,80,822.0,0.489583,Eighth,G#3_E4
5022,Left,1,49,80,822.0,0.489583,Eighth,C#3
5024,Right,0,56,80,822.5,0.489583,Eighth,G#3_E4
5026,Left,1,49,80,822.5,0.489583,Eighth,C#3
5028,Left,1,51,80,823.0,0.489583,Eighth,D#3
5027,Right,0,56,80,823.0,0.489583,Eighth,G#3_D#4
5030,Right,0,56,80,823.5,0.489583,Eighth,G#3_C#4
5031,Left,1,52,80,823.5,0.489583,Eighth,E3
5035,Left,1,44,80,824.0,0.489583,Eighth,G#2_F#3
5033,Right,0,60,80,824.0,0.489583,Eighth,G#3_C4
5038,Left,1,56,80,824.5,0.489583,Eighth,G#3_F#3
5037,Right,0,60,80,824.5,0.489583,Eighth,G#4_C4
5041,Left,1,56,80,825.0,0.489583,Eighth,G#3_F#3
5043,Right,0,60,80,825.0,0.489583,Eighth,G#4_C4
5045,Left,1,54,80,825.5,0.489583,Eighth,G#3_F#3
5047,Right,0,68,80,825.5,0.489583,Eighth,G#4_C4
5050,Right,0,60,80,826.0,0.489583,Eighth,G#4_C4
5049,Left,1,56,80,826.0,0.489583,Eighth,G#3_F#3
5053,Left,1,56,80,826.5,0.489583,Eighth,G#3_F#3
5054,Right,0,60,80,826.5,0.489583,Eighth,G#4_C4
5059,Right,0,68,80,827.0,0.489583,Eighth,G#4_C#4
5057,Left,1,52,80,827.0,0.489583,Eighth,G#3_E3
5061,Right,0,63,80,827.5,0.489583,Eighth,G#4_D#4
5063,Left,1,56,80,827.5,0.489583,Eighth,G#3_D#3
5065,Right,0,64,80,828.0,0.489583,Eighth,G#4_E4
5066,Left,1,37,80,828.0,0.489583,Eighth,C#3_C#2
5069,Right,0,64,80,828.5,0.489583,Eighth,G#3_E4
5071,Left,1,49,80,828.5,0.489583,Eighth,C#3
5072,Right,0,56,80,829.0,0.489583,Eighth,G#3_E4
5074,Left,1,49,80,829.0,0.489583,Eighth,C#3
5076,Right,0,56,80,829.5,0.489583,Eighth,G#3_E4
5075,Left,1,49,80,829.5,0.489583,Eighth,C#3
5079,Right,0,56,80,830.0,0.489583,Eighth,G#3_E4
5078,Left,1,49,80,830.0,0.489583,Eighth,C#3
5082,Left,1,49,80,830.5,0.489583,Eighth,C#3
5081,Right,0,64,80,830.5,0.489583,Eighth,G#3_E4
5086,Left,1,51,80,831.0,0.489583,Eighth,D#3
5084,Right,0,56,80,831.0,0.489583,Eighth,G#3_D#4
5089,Left,1,52,80,831.5,0.489583,Eighth,E3
5087,Right,0,61,80,831.5,0.489583,Eighth,G#3_C#4
5090,Left,1,44,80,832.0,0.489583,Eighth,G#2_F#3
5092,Right,0,56,80,832.0,0.489583,Eighth,G#3_C4
5095,Right,0,68,80,832.5,0.489583,Eighth,G#4_C4
5094,Left,1,56,80,832.5,0.489583,Eighth,G#3_F#3
5099,Left,1,56,80,833.0,0.489583,Eighth,G#3_F#3
5098,Right,0,60,80,833.0,0.489583,Eighth,G#4_C4
5102,Left,1,54,80,833.5,0.489583,Eighth,G#3_F#3
5103,Right,0,60,80,833.5,0.489583,Eighth,G#4_C4
5108,Right,0,68,80,834.0,0.489583,Eighth,G#4_C4
5106,Left,1,56,80,834.0,0.489583,Eighth,G#3_F#3
5112,Right,0,68,80,834.5,0.489583,Eighth,G#4_C4
5110,Left,1,56,80,834.5,0.489583,Eighth,G#3_F#3
5116,Right,0,68,80,835.0,0.489583,Eighth,G#4_C#4
5114,Left,1,56,80,835.0,0.489583,Eighth,G#3_E3
5118,Left,1,56,80,835.5,0.489583,Eighth,G#3_D#3
5119,Right,0,68,80,835.5,0.489583,Eighth,G#4_D#4
5122,Right,0,64,80,836.0,0.489583,Eighth,G#4_E4
5124,Left,1,49,80,836.0,0.489583,Eighth,C#3_C#2
5128,Left,1,49,80,836.5,0.489583,Eighth,E3_C#3
5126,Right,0,68,80,836.5,0.489583,Eighth,G#4_E4
5130,Left,1,52,80,837.0,0.489583,Eighth,E3_C#3
5131,Right,0,68,80,837.0,0.489583,Eighth,G#4_E4
5136,Left,1,56,80,837.5,0.489583,Eighth,G#3_E3
5134,Right,0,61,80,837.5,0.489583,Eighth,E4_C#4
5138,Left,1,42,80,838.0,0.489583,Eighth,F#2
5141,Left,1,54,80,838.5,0.489583,Eighth,F#3_C#3
5139,Right,0,66,80,838.5,0.489583,Eighth,F#4_A4
5145,Left,1,54,80,839.0,0.489583,Eighth,F#3_C#3
5143,Right,0,69,80,839.0,0.489583,Eighth,F#4_A4
5148,Left,1,54,80,839.5,0.489583,Eighth,F#3_A3
5147,Right,0,61,80,839.5,0.489583,Eighth,F#4_C#4
5151,Left,1,44,80,840.0,0.489583,Eighth,G#2
5152,Right,0,68,80,840.5,0.489583,Eighth,G#4_E4
5154,Left,1,52,80,840.5,0.489583,Eighth,E3_C#3
5156,Left,1,52,80,841.0,0.489583,Eighth,E3_C#3
5157,Right,0,64,80,841.0,0.489583,Eighth,G#4_E4
5160,Right,0,64,80,841.5,0.489583,Eighth,E4_C#4
5161,Left,1,56,80,841.5,0.489583,Eighth,G#3_E3
5164,Left,1,44,80,842.0,0.489583,Eighth,G#2
5165,Right,0,68,80,842.5,0.489583,Eighth,G#4_D#4
5167,Left,1,48,80,842.5,0.489583,Eighth,D#3_C3
5170,Left,1,48,80,843.0,0.489583,Eighth,D#3_C3
5169,Right,0,63,80,843.0,0.489583,Eighth,G#4_D#4
5173,Left,1,51,80,843.5,0.489583,Eighth,G#3_D#3
5174,Right,0,60,80,843.5,0.489583,Eighth,D#4_C4
5177,Left,1,37,80,844.0,0.489583,Eighth,C#3_C#2
5178,Right,0,61,80,844.0,0.489583,Eighth,E4_C#4
5183,Left,1,49,83,844.5,0.489583,Eighth,G#3_C#3
5181,Right,0,76,83,844.5,0.489583,Eighth,G#4_E5_E4
5186,Right,0,68,87,845.0,0.489583,Eighth,G#4_E5_E4
5187,Left,1,49,87,845.0,0.489583,Eighth,G#3_C#3
5192,Left,1,56,91,845.5,0.489583,Eighth,G#3_C#3
5191,Right,0,64,91,845.5,0.489583,Eighth,G#4_E5_E4
5197,Left,1,49,94,846.0,0.489583,Eighth,G#3_C#3
5196,Right,0,64,94,846.0,0.489583,Eighth,G#4_E5_E4
5201,Left,1,56,98,846.5,0.489583,Eighth,G#3_C#3
5202,Right,0,76,98,846.5,0.489583,Eighth,G#4_E5_E4
5206,Left,1,51,102,847.0,0.489583,Eighth,G#3_D#3
5208,Right,0,66,102,847.0,0.489583,Eighth,F#4_D#5_D#4
5212,Left,1,52,106,847.5,0.489583,Eighth,G#3_E3
5211,Right,0,61,106,847.5,0.489583,Eighth,E4_C#5_C#4
5216,Right,0,60,109,848.0,0.489583,Eighth,D#4_C5_C4
5219,Left,1,56,109,848.0,0.489583,Eighth,G#3_G#2_F#3
5222,Left,1,56,110,848.5,0.489583,Eighth,G#3_F#4
5223,Right,0,75,110,848.5,0.489583,Eighth,D#5_C6_C5
5227,Right,0,84,110,849.0,0.489583,Eighth,D#5_C6_C5
5229,Left,1,56,110,849.0,0.489583,Eighth,G#3_F#4
5233,Left,1,56,110,849.5,0.489583,Eighth,G#3_F#4
5232,Right,0,72,110,849.5,0.489583,Eighth,D#5_C6_C5
5237,Left,1,66,110,850.0,0.489583,Eighth,G#3_F#4
5239,Right,0,75,110,850.0,0.489583,Eighth,D#5_C6_C5
5242,Right,0,84,110,850.5,0.489583,Eighth,D#5_C6_C5
5243,Left,1,56,110,850.5,0.489583,Eighth,G#3_F#4
5249,Left,1,64,110,851.0,0.489583,Eighth,G#3_E4
5247,Right,0,73,110,851.0,0.489583,Eighth,E5_C#6_C#5
5255,Left,1,63,110,851.5,0.489583,Eighth,G#3_D#4
5252,Right,0,78,110,851.5,0.489583,Eighth,F#5_D#6_D#5
5257,Right,0,80,110,852.0,0.489583,Eighth,G#5_E6_E5
5258,Left,1,37,110,852.0,0.489583,Eighth,C#3_C#2
5262,Right,0,64,90,852.5,0.489583,Eighth,G#4_E5_E4
5265,Left,1,49,90,852.5,0.489583,Eighth,G#3_C#3
5267,Right,0,64,92,853.0,0.489583,Eighth,G#4_E5_E4
5270,Left,1,56,92,853.0,0.489583,Eighth,G#3_C#3
5275,Left,1,49,95,853.5,0.489583,Eighth,G#3_C#3
5272,Right,0,64,95,853.5,0.489583,Eighth,G#4_E5_E4
5277,Left,1,49,98,854.0,0.489583,Eighth,G#3_C#3
5279,Right,0,64,98,854.0,0.489583,Eighth,G#4_E5_E4
5282,Left,1,49,101,854.5,0.489583,Eighth,G#3_C#3
5284,Right,0,64,101,854.5,0.489583,Eighth,G#4_E5_E4
5287,Left,1,51,104,855.0,0.489583,Eighth,G#3_D#3
5289,Right,0,66,104,855.0,0.489583,Eighth,F#4_D#5_D#4
5293,Right,0,73,107,855.5,0.489583,Eighth,E4_C#5_C#4
5292,Left,1,52,107,855.5,0.489583,Eighth,G#3_E3
5300,Left,1,56,109,856.0,0.489583,Eighth,G#3_G#2_F#3
5297,Right,0,60,109,856.0,0.489583,Eighth,D#4_C5_C4
5303,Left,1,56,110,856.5,0.489583,Eighth,G#3_F#4
5305,Right,0,75,110,856.5,0.489583,Eighth,D#5_C6_C5
5310,Left,1,66,110,857.0,0.489583,Eighth,G#3_F#4
5308,Right,0,72,110,857.0,0.489583,Eighth,D#5_C6_C5
5313,Right,0,72,110,857.5,0.489583,Eighth,D#5_C6_C5
5314,Left,1,56,110,857.5,0.489583,Eighth,G#3_F#4
5318,Left,1,66,110,858.0,0.489583,Eighth,G#3_F#4
5320,Right,0,75,110,858.0,0.489583,Eighth,D#5_C6_C5
5323,Right,0,84,110,858.5,0.489583,Eighth,D#5_C6_C5
5324,Left,1,56,110,858.5,0.489583,Eighth,G#3_F#4
5328,Left,1,64,110,859.0,0.489583,Eighth,G#3_E4
5330,Right,0,76,110,859.0,0.489583,Eighth,E5_C#6_C#5
5333,Left,1,63,110,859.5,0.489583,Eighth,G#3_D#4
5335,Right,0,78,110,859.5,0.489583,Eighth,F#5_D#6_D#5
5338,Right,0,76,110,860.0,0.989583,Quarter,G#5_E6_E5
5341,Left,1,61,110,860.0,0.989583,Eighth,C#4_C#3
5343,Right,0,80,80,860.5,0.489583,Eighth,G#5_C#6
5344,Left,1,64,80,860.5,0.489583,Eighth,E4_C#4
5347,Right,0,85,80,861.0,0.489583,Eighth,G#5_C#6
5348,Left,1,61,80,861.0,0.489583,Eighth,E4_C#4
5352,Right,0,80,80,861.5,0.489583,Eighth,G#5_E5
5351,Left,1,68,80,861.5,0.489583,Eighth,G#4_E4
5355,Left,1,54,80,862.0,0.489583,Eighth,F#3
5357,Right,0,81,80,862.5,0.489583,Eighth,C#6_A5
5356,Left,1,66,80,862.5,0.489583,Eighth,F#4_C#4
5361,Right,0,81,80,863.0,0.489583,Eighth,C#6_A5
5360,Left,1,61,80,863.0,0.489583,Eighth,F#4_C#4
5364,Left,1,69,80,863.5,0.489583,Eighth,F#4_A4
5365,Right,0,81,80,863.5,0.489583,Eighth,F#5_A5
5368,Left,1,56,80,864.0,0.489583,Eighth,G#3
5369,Right,0,80,80,864.5,0.489583,Eighth,G#5_E5
5370,Left,1,64,80,864.5,0.489583,Eighth,E4_C#4
5375,Right,0,80,80,865.0,0.489583,Eighth,G#5_E5
5373,Left,1,64,80,865.0,0.489583,Eighth,E4_C#4
5377,Right,0,76,80,865.5,0.489583,Eighth,E5_C#5
5378,Left,1,64,80,865.5,0.489583,Eighth,G#4_E4
5381,Left,1,54,80,866.0,0.489583,Eighth,F#3
5382,Right,0,80,80,866.5,0.489583,Eighth,G#5_D#5
5383,Left,1,60,80,866.5,0.489583,Eighth,D#4_C4
5386,Left,1,63,80,867.0,0.489583,Eighth,D#4_C4
5387,Right,0,75,80,867.0,0.489583,Eighth,G#5_D#5
5391,Right,0,75,80,867.5,0.489583,Eighth,D#5_C5
5390,Left,1,63,80,867.5,0.489583,Eighth,G#4_D#4
5394,Left,1,52,80,868.0,0.489583,Eighth,E3
5395,Right,0,80,82,868.5,0.489583,Eighth,G#5_C#5
5397,Left,1,56,82,868.5,0.489583,Eighth,G#3_C#4
5399,Right,0,80,85,869.0,0.489583,Eighth,G#5_C#5
5400,Left,1,56,85,869.0,0.489583,Eighth,G#3_C#4
5405,Left,1,61,88,869.5,0.489583,Eighth,E4_C#4
5403,Right,0,68,88,869.5,0.489583,Eighth,G#4_E5
5407,Left,1,42,91,870.0,0.489583,Eighth,F#2
5410,Left,1,57,94,870.5,0.489583,Eighth,F#3_A3
5408,Right,0,69,94,870.5,0.489583,Eighth,F#5_A4
5412,Left,1,57,97,871.0,0.489583,Eighth,F#3_A3
5413,Right,0,78,97,871.0,0.489583,Eighth,F#5_A4
5417,Right,0,74,99,871.5,0.489583,Eighth,F#4_D5
5416,Left,1,62,99,871.5,0.489583,Eighth,D4_A3
5420,Left,1,44,100,872.0,0.489583,Eighth,G#2
5421,Left,1,52,100,872.5,0.489583,Eighth,G#3_E3
5423,Right,0,68,100,872.5,0.489583,Eighth,G#4_E5
5427,Left,1,56,100,873.0,0.489583,Eighth,G#3_E3
5425,Right,0,76,100,873.0,0.489583,Eighth,G#4_E5
5431,Left,1,61,100,873.5,0.489583,Eighth,G#3_C#4
5429,Right,0,73,100,873.5,0.489583,Eighth,E4_C#5
5433,Left,1,44,95,874.0,0.489583,Eighth,G#2
5434,Left,1,51,92,874.5,0.489583,Eighth,F#3_D#3
5436,Right,0,75,92,874.5,0.489583,Eighth,F#4_D#5
5440,Right,0,75,89,875.0,0.489583,Eighth,F#4_D#5
5438,Left,1,51,89,875.0,0.489583,Eighth,F#3_D#3
5444,Right,0,72,86,875.5,0.489583,Eighth,D#4_C5
5442,Left,1,54,86,875.5,0.489583,Eighth,F#3_C4
5447,Left,1,37,70,876.0,0.489583,Eighth,C#2
5446,Right,0,73,80,876.0,0.989583,Quarter,E4_C#5
5449,Left,1,49,70,876.25,0.489583,Eighth,C#3
5450,Left,1,44,70,876.5,0.489583,Eighth,G#2
5451,Left,1,49,70,876.75,0.489583,Eighth,C#3
5452,Left,1,37,70,877.0,0.489583,Eighth,C#2
5453,Left,1,49,70,877.25,0.489583,Eighth,C#3
5454,Left,1,44,70,877.5,0.489583,Eighth,G#2
5455,Left,1,49,70,877.75,0.489583,Eighth,C#3
5456,Left,1,37,70,878.0,0.489583,Eighth,C#2
5457,Left,1,49,70,878.25,0.489583,Eighth,C#3
5458,Left,1,44,70,878.5,0.489583,Eighth,G#2
5459,Left,1,49,70,878.75,0.489583,Eighth,C#3
5461,Right,0,64,80,879.0,0.989583,Quarter,E4
5460,Left,1,37,70,879.0,0.489583,Eighth,C#2
5462,Left,1,49,70,879.25,0.489583,Eighth,C#3
5463,Left,1,44,70,879.5,0.489583,Eighth,G#2
5464,Right,0,61,80,879.75,0.489583,Eighth,C#4
5465,Left,1,49,70,879.75,0.489583,Eighth,C#3
5467,Left,1,37,70,880.0,0.489583,Eighth,C#2
5466,Right,0,60,80,880.0,0.989583,Quarter,C4
5468,Left,1,51,70,880.25,0.489583,Eighth,D#3
5469,Left,1,44,70,880.5,0.489583,Eighth,G#2
5470,Left,1,51,70,880.75,0.489583,Eighth,D#3
5471,Right,0,60,80,881.0,0.989583,Quarter,G#4_F#3_C4
5472,Left,1,37,70,881.0,0.489583,Eighth,C#2
5475,Left,1,51,70,881.25,0.489583,Eighth,D#3
5476,Left,1,44,70,881.5,0.489583,Eighth,G#2
5477,Left,1,51,70,881.75,0.489583,Eighth,D#3
5480,Left,1,37,70,882.0,0.489583,Eighth,C#2
5478,Right,0,68,80,882.0,0.989583,Quarter,G#4_F#3_C4
5482,Left,1,51,70,882.25,0.489583,Eighth,D#3
5483,Left,1,44,70,882.5,0.489583,Eighth,G#2
5484,Left,1,51,70,882.75,0.489583,Eighth,D#3
5485,Left,1,37,70,883.0,0.489583,Eighth,C#2
5486,Right,0,68,80,883.0,0.989583,Quarter,G#4_F#3_C4
5489,Left,1,51,70,883.25,0.489583,Eighth,D#3
5490,Left,1,44,70,883.5,0.489583,Eighth,G#2
5491,Left,1,51,70,883.75,0.489583,Eighth,D#3
5493,Left,1,37,70,884.0,0.489583,Eighth,C#2
5492,Right,0,52,80,884.0,0.989583,Quarter,E3
5494,Right,0,61,80,884.125,0.864583,DottedEighth,C#4
5495,Left,1,49,70,884.25,0.489583,Eighth,C#3
5496,Right,0,68,80,884.25,2.739583,DottedHalf,G#4
5497,Left,1,44,70,884.5,0.489583,Eighth,G#2
5498,Left,1,49,70,884.75,0.489583,Eighth,C#3
5499,Left,1,37,70,885.0,0.489583,Eighth,C#2
5500,Left,1,49,70,885.25,0.489583,Eighth,C#3
5501,Left,1,44,70,885.5,0.489583,Eighth,G#2
5502,Left,1,49,70,885.75,0.489583,Eighth,C#3
5503,Left,1,37,70,886.0,0.489583,Eighth,C#2
5504,Left,1,49,70,886.25,0.489583,Eighth,C#3
5505,Left,1,44,70,886.5,0.489583,Eighth,G#2
5506,Left,1,49,70,886.75,0.489583,Eighth,C#3
5507,Right,0,76,80,887.0,0.989583,Quarter,E5
5508,Left,1,37,70,887.0,0.489583,Eighth,C#2
5509,Left,1,49,70,887.25,0.489583,Eighth,C#3
5510,Left,1,44,70,887.5,0.489583,Eighth,G#2
5511,Left,1,49,70,887.75,0.489583,Eighth,C#3
5512,Right,0,73,80,887.75,0.489583,Eighth,C#5
5513,Left,1,37,70,888.0,0.489583,Eighth,C#2
5514,Right,0,72,80,888.0,0.989583,Quarter,C5
5515,Left,1,51,70,888.25,0.489583,Eighth,D#3
5516,Left,1,44,70,888.5,0.489583,Eighth,G#2
5517,Left,1,51,70,888.75,0.489583,Eighth,D#3
5518,Right,0,80,80,889.0,0.989583,Quarter,G#5_F#4_C5
5520,Left,1,37,70,889.0,0.489583,Eighth,C#2
5522,Left,1,51,70,889.25,0.489583,Eighth,D#3
5523,Left,1,44,70,889.5,0.489583,Eighth,G#2
5524,Left,1,51,70,889.75,0.489583,Eighth,D#3
5526,Right,0,80,80,890.0,0.989583,Quarter,G#5_F#4_C5
5525,Left,1,37,70,890.0,0.489583,Eighth,C#2
5529,Left,1,51,70,890.25,0.489583,Eighth,D#3
5530,Left,1,44,70,890.5,0.489583,Eighth,G#2
5531,Left,1,51,70,890.75,0.489583,Eighth,D#3
5533,Right,0,72,80,891.0,0.989583,Quarter,G#5_F#4_C5
5532,Left,1,37,70,891.0,0.489583,Eighth,C#2
5536,Left,1,51,70,891.25,0.489583,Eighth,D#3
5537,Left,1,44,70,891.5,0.489583,Eighth,G#2
5538,Left,1,51,70,891.75,0.489583,Eighth,D#3
5540,Left,1,37,70,892.0,0.489583,Eighth,C#2
5539,Right,0,64,80,892.0,1.989583,Half,E4
5541,Right,0,73,80,892.125,1.864583,Half,C#5
5542,Left,1,49,70,892.25,0.489583,Eighth,C#3
5543,Right,0,80,80,892.25,1.739583,DottedQuarter,G#5
5544,Left,1,44,70,892.5,0.489583,Eighth,G#2
5545,Left,1,49,70,892.75,0.489583,Eighth,C#3
5546,Left,1,37,70,893.0,0.489583,Eighth,C#2
5547,Left,1,49,70,893.25,0.489583,Eighth,C#3
5548,Left,1,44,70,893.5,0.489583,Eighth,G#2
5549,Left,1,49,70,893.75,0.489583,Eighth,C#3
5550,Left,1,37,70,894.0,0.489583,Eighth,C#2
5551,Right,0,66,80,894.0,1.989583,Half,F#4
5552,Right,0,72,80,894.125,1.864583,Half,C5
5554,Left,1,51,70,894.25,0.489583,Eighth,D#3
5553,Right,0,80,80,894.25,1.739583,DottedQuarter,G#5
5555,Left,1,44,70,894.5,0.489583,Eighth,G#2
5556,Left,1,51,70,894.75,0.489583,Eighth,D#3
5557,Left,1,37,70,895.0,0.489583,Eighth,C#2
5558,Left,1,51,70,895.25,0.489583,Eighth,D#3
5559,Left,1,44,70,895.5,0.489583,Eighth,G#2
5560,Left,1,51,70,895.75,0.489583,Eighth,D#3
5562,Left,1,37,70,896.0,0.489583,Eighth,C#2
5561,Right,0,64,80,896.0,1.989583,Half,E4
5563,Right,0,73,80,896.125,1.864583,Half,C#5
5564,Left,1,49,70,896.25,0.489583,Eighth,C#3
5565,Right,0,80,80,896.25,1.739583,DottedQuarter,G#5
5566,Left,1,44,70,896.5,0.489583,Eighth,G#2
5567,Left,1,49,70,896.75,0.489583,Eighth,C#3
5568,Left,1,37,70,897.0,0.489583,Eighth,C#2
5569,Left,1,49,70,897.25,0.489583,Eighth,C#3
5570,Left,1,44,70,897.5,0.489583,Eighth,G#2
5571,Left,1,49,70,897.75,0.489583,Eighth,C#3
5573,Right,0,66,80,898.0,1.989583,Half,F#4
5572,Left,1,37,70,898.0,0.489583,Eighth,C#2
5574,Right,0,72,80,898.125,1.864583,Half,C5
5576,Right,0,80,80,898.25,1.739583,DottedQuarter,G#5
5575,Left,1,51,70,898.25,0.489583,Eighth,D#3
5577,Left,1,44,70,898.5,0.489583,Eighth,G#2
5578,Left,1,51,70,898.75,0.489583,Eighth,D#3
5579,Left,1,37,70,899.0,0.489583,Eighth,C#2
5580,Left,1,51,70,899.25,0.489583,Eighth,D#3
5581,Left,1,44,70,899.5,0.489583,Eighth,G#2
5582,Left,1,51,70,899.75,0.489583,Eighth,D#3
5584,Right,0,52,80,900.0,0.489583,Eighth,E3
5583,Left,1,37,80,900.0,0.489583,Eighth,C#2
5585,Left,1,49,80,900.25,0.489583,Eighth,C#3
5586,Right,0,61,80,900.25,0.489583,Eighth,C#4
5588,Left,1,44,81,900.5,0.489583,Eighth,G#2
5587,Right,0,56,81,900.5,0.489583,Eighth,G#3
5589,Right,0,61,82,900.75,0.489583,Eighth,C#4
5590,Left,1,49,82,900.75,0.489583,Eighth,C#3
5591,Right,0,52,83,901.0,0.489583,Eighth,E3
5592,Left,1,37,83,901.0,0.489583,Eighth,C#2
5594,Left,1,49,84,901.25,0.489583,Eighth,C#3
5593,Right,0,61,84,901.25,0.489583,Eighth,C#4
5596,Left,1,44,85,901.5,0.489583,Eighth,G#2
5595,Right,0,56,85,901.5,0.489583,Eighth,G#3
5598,Left,1,49,86,901.75,0.489583,Eighth,C#3
5597,Right,0,61,86,901.75,0.489583,Eighth,C#4
5599,Left,1,37,87,902.0,0.489583,Eighth,C#2
5600,Right,0,52,87,902.0,0.489583,Eighth,E3
5602,Left,1,49,88,902.25,0.489583,Eighth,C#3
5601,Right,0,61,88,902.25,0.489583,Eighth,C#4
5604,Right,0,56,89,902.5,0.489583,Eighth,G#3
5603,Left,1,44,89,902.5,0.489583,Eighth,G#2
5605,Right,0,61,90,902.75,0.489583,Eighth,C#4
5606,Left,1,49,90,902.75,0.489583,Eighth,C#3
5607,Left,1,37,91,903.0,0.489583,Eighth,C#2
5608,Right,0,52,91,903.0,0.489583,Eighth,E3
5609,Right,0,61,92,903.25,0.489583,Eighth,C#4
5610,Left,1,49,92,903.25,0.489583,Eighth,C#3
5612,Right,0,56,93,903.5,0.489583,Eighth,G#3
5611,Left,1,44,93,903.5,0.489583,Eighth,G#2
5614,Right,0,61,94,903.75,0.489583,Eighth,C#4
5613,Left,1,49,94,903.75,0.489583,Eighth,C#3
5615,Right,0,53,94,904.0,0.489583,Eighth,F3_C#3
5617,Left,1,35,94,904.0,0.489583,Eighth,B1
5618,Left,1,47,95,904.25,0.489583,Eighth,B2
5619,Right,0,61,95,904.25,0.489583,Eighth,C#4
5621,Left,1,37,96,904.5,0.489583,Eighth,C#2
5620,Right,0,56,96,904.5,0.489583,Eighth,G#3
5623,Right,0,61,97,904.75,0.489583,Eighth,C#4
5622,Left,1,47,97,904.75,0.489583,Eighth,B2
5624,Right,0,49,98,905.0,0.489583,Eighth,F3_C#3
5626,Left,1,35,98,905.0,0.489583,Eighth,B1
5627,Right,0,61,99,905.25,0.489583,Eighth,C#4
5628,Left,1,47,99,905.25,0.489583,Eighth,B2
5629,Right,0,56,100,905.5,0.489583,Eighth,G#3
5630,Left,1,37,100,905.5,0.489583,Eighth,C#2
5631,Right,0,61,101,905.75,0.489583,Eighth,C#4
5632,Left,1,47,101,905.75,0.489583,Eighth,B2
5634,Left,1,35,102,906.0,0.489583,Eighth,B1
5633,Right,0,53,102,906.0,0.489583,Eighth,F3_C#3
5637,Right,0,61,103,906.25,0.489583,Eighth,C#4
5636,Left,1,47,103,906.25,0.489583,Eighth,B2
5639,Right,0,56,104,906.5,0.489583,Eighth,G#3
5638,Left,1,37,104,906.5,0.489583,Eighth,C#2
5640,Right,0,61,105,906.75,0.489583,Eighth,C#4
5641,Left,1,47,105,906.75,0.489583,Eighth,B2
5643,Right,0,49,106,907.0,0.489583,Eighth,F3_C#3
5642,Left,1,35,106,907.0,0.489583,Eighth,B1
5645,Right,0,61,107,907.25,0.489583,Eighth,C#4
5646,Left,1,47,107,907.25,0.489583,Eighth,B2
5648,Right,0,56,108,907.5,0.489583,Eighth,G#3
5647,Left,1,37,108,907.5,0.489583,Eighth,C#2
5649,Right,0,61,109,907.75,0.239583,Sixteenth,C#4
5650,Left,1,47,109,907.75,0.489583,Eighth,B2
5651,Right,0,49,100,908.0,0.489583,Eighth,F#3_C#4_C#3_A3
5655,Left,1,33,100,908.0,0.989583,Quarter,A2_A1
5657,Right,0,49,90,908.25,0.489583,Eighth,C#3
5659,Right,0,54,90,908.5,0.489583,Eighth,F#3
5658,Left,1,42,90,908.5,0.489583,Eighth,F#2
5660,Right,0,57,90,908.75,0.489583,Eighth,A3
5662,Right,0,61,90,909.0,0.489583,Eighth,C#4
5661,Left,1,33,90,909.0,0.489583,Eighth,A1
5663,Right,0,54,90,909.25,0.489583,Eighth,F#3
5665,Left,1,42,90,909.5,0.489583,Eighth,F#2
5664,Right,0,57,90,909.5,0.489583,Eighth,A3
5666,Right,0,61,90,909.75,0.489583,Eighth,C#4
5668,Left,1,33,90,910.0,0.489583,Eighth,A1
5667,Right,0,66,90,910.0,0.489583,Eighth,F#4
5669,Right,0,57,90,910.25,0.489583,Eighth,A3
5670,Left,1,42,90,910.5,0.489583,Eighth,F#2
5671,Right,0,61,90,910.5,0.489583,Eighth,C#4
5672,Right,0,66,90,910.75,0.489583,Eighth,F#4
5673,Left,1,33,90,911.0,0.489583,Eighth,A1
5674,Right,0,69,90,911.0,0.489583,Eighth,A4
5675,Right,0,61,90,911.25,0.489583,Eighth,C#4
5676,Left,1,42,90,911.5,0.489583,Eighth,F#2
5677,Right,0,66,90,911.5,0.489583,Eighth,F#4
5678,Right,0,69,90,911.75,0.489583,Eighth,A4
5679,Right,0,73,90,912.0,0.489583,Eighth,C#5
5680,Left,1,33,90,912.0,0.489583,Eighth,A1
5681,Right,0,66,90,912.25,0.489583,Eighth,F#4
5682,Left,1,42,90,912.5,0.489583,Eighth,F#2
5683,Right,0,69,90,912.5,0.489583,Eighth,A4
5684,Right,0,73,90,912.75,0.489583,Eighth,C#5
5685,Left,1,33,90,913.0,0.489583,Eighth,A1
5686,Right,0,78,90,913.0,0.489583,Eighth,F#5
5687,Right,0,69,90,913.25,0.489583,Eighth,A4
5689,Left,1,42,90,913.5,0.489583,Eighth,F#2
5688,Right,0,73,90,913.5,0.489583,Eighth,C#5
5690,Right,0,78,90,913.75,0.489583,Eighth,F#5
5692,Left,1,33,90,914.0,0.489583,Eighth,A1
5691,Right,0,81,90,914.0,0.489583,Eighth,A5
5693,Right,0,73,90,914.25,0.489583,Eighth,C#5
5695,Left,1,42,90,914.5,0.489583,Eighth,F#2
5694,Right,0,78,90,914.5,0.489583,Eighth,F#5
5696,Right,0,81,90,914.75,0.239583,Sixteenth,A5
5697,Right,0,85,110,915.0,0.489583,Eighth,F#5_C#6_C#5_A5
5701,Left,1,45,110,915.0,0.989583,Quarter,A2_A1
5704,Left,1,42,100,915.5,0.489583,Eighth,F#2
5703,Right,0,81,100,915.5,0.489583,Eighth,F#5_C#6_C#5_A5
5708,Left,1,32,90,916.0,0.489583,Eighth,G#1
5709,Right,0,49,90,916.25,0.489583,Eighth,C#3
5711,Right,0,52,90,916.5,0.489583,Eighth,E3
5710,Left,1,40,90,916.5,0.489583,Eighth,E2
5712,Right,0,56,90,916.75,0.489583,Eighth,G#3
5713,Left,1,32,90,917.0,0.489583,Eighth,G#1
5714,Right,0,61,90,917.0,0.489583,Eighth,C#4
5715,Right,0,52,90,917.25,0.489583,Eighth,E3
5716,Left,1,40,90,917.5,0.489583,Eighth,E2
5717,Right,0,56,90,917.5,0.489583,Eighth,G#3
5718,Right,0,61,90,917.75,0.489583,Eighth,C#4
5719,Left,1,32,90,918.0,0.489583,Eighth,G#1
5720,Right,0,64,90,918.0,0.489583,Eighth,E4
5721,Right,0,56,90,918.25,0.489583,Eighth,G#3
5723,Left,1,40,90,918.5,0.489583,Eighth,E2
5722,Right,0,61,90,918.5,0.489583,Eighth,C#4
5724,Right,0,64,90,918.75,0.489583,Eighth,E4
5726,Left,1,32,90,919.0,0.489583,Eighth,G#1
5725,Right,0,68,90,919.0,0.489583,Eighth,G#4
5727,Right,0,61,90,919.25,0.489583,Eighth,C#4
5728,Left,1,40,90,919.5,0.489583,Eighth,E2
5729,Right,0,64,90,919.5,0.489583,Eighth,E4
5730,Right,0,68,90,919.75,0.489583,Eighth,G#4
5732,Right,0,73,90,920.0,0.489583,Eighth,C#5
5731,Left,1,32,90,920.0,0.489583,Eighth,G#1
5733,Right,0,64,90,920.25,0.489583,Eighth,E4
5735,Right,0,68,90,920.5,0.489583,Eighth,G#4
5734,Left,1,40,90,920.5,0.489583,Eighth,E2
5736,Right,0,73,90,920.75,0.489583,Eighth,C#5
5737,Right,0,76,90,921.0,0.489583,Eighth,E5
5738,Left,1,32,90,921.0,0.489583,Eighth,G#1
5739,Right,0,68,90,921.25,0.489583,Eighth,G#4
5741,Left,1,40,90,921.5,0.489583,Eighth,E2
5740,Right,0,73,90,921.5,0.489583,Eighth,C#5
5742,Right,0,76,90,921.75,0.489583,Eighth,E5
5744,Left,1,32,90,922.0,0.489583,Eighth,G#1
5743,Right,0,80,90,922.0,0.489583,Eighth,G#5
5745,Right,0,73,90,922.25,0.489583,Eighth,C#5
5746,Right,0,76,90,922.5,0.489583,Eighth,E5
5747,Left,1,40,90,922.5,0.489583,Eighth,E2
5748,Right,0,80,90,922.75,0.239583,Sixteenth,G#5
5749,Right,0,85,110,923.0,0.489583,Eighth,G#5_E5_C#6_C#5
5753,Left,1,32,110,923.0,0.989583,Quarter,G#2_G#1
5759,Left,1,40,100,923.5,0.489583,Eighth,E2
5755,Right,0,85,100,923.5,0.489583,Eighth,G#5_E5_C#6_C#5
5760,Left,1,30,90,924.0,1.489583,DottedQuarter,F#1
5761,Right,0,49,92,924.5,1.989583,Half,C#3
5762,Right,0,52,93,924.625,1.864583,Half,E3
5763,Right,0,55,94,924.75,1.739583,DottedQuarter,G3
5764,Right,0,58,95,924.875,1.614583,DottedQuarter,A#3
5765,Right,0,61,95,925.0,1.489583,DottedQuarter,C#4
5766,Left,1,30,98,925.5,1.989583,Half,F#1
5767,Left,1,34,99,925.625,1.864583,Half,A#1
5768,Left,1,37,100,925.75,1.739583,DottedQuarter,C#2
5769,Left,1,40,101,925.875,1.614583,DottedQuarter,E2
5770,Left,1,43,101,926.0,1.489583,DottedQuarter,G2
5771,Right,0,61,104,926.5,1.989583,Half,C#4
5772,Right,0,64,105,926.625,1.864583,Half,E4
5773,Right,0,67,106,926.75,1.739583,DottedQuarter,G4
5774,Right,0,70,107,926.875,1.614583,DottedQuarter,A#4
5775,Right,0,73,107,927.0,1.489583,DottedQuarter,C#5
5776,Left,1,42,110,927.5,1.489583,DottedQuarter,F#2
5777,Left,1,46,111,927.625,1.364583,TiedQuarter-Sixteenth,A#2
5778,Left,1,49,112,927.75,1.239583,TiedQuarter-Sixteenth,C#3
5779,Left,1,52,113,927.875,1.114583,TiedQuarter-ThirtySecond,E3
5780,Left,1,55,113,928.0,0.989583,Quarter,G3
5781,Right,0,73,116,928.5,1.989583,Half,C#5
5782,Right,0,76,117,928.625,1.864583,Half,E5
5783,Right,0,79,118,928.75,1.739583,DottedQuarter,G5
5784,Right,0,82,119,928.875,1.614583,DottedQuarter,A#5
5789,Right,0,85,119,929.0,2.989583,DottedHalf,C#6
5785,Left,1,55,119,929.0,2.989583,DottedHalf,G3_E4_C#4_A#3
5790,Left,1,30,90,932.0,1.489583,DottedQuarter,F#1
5791,Right,0,45,91,932.5,1.989583,Half,A2
5792,Right,0,48,92,932.625,1.864583,Half,C3
5793,Right,0,51,92,932.75,1.739583,DottedQuarter,D#3
5794,Right,0,54,93,932.875,1.614583,DottedQuarter,F#3
5795,Right,0,57,93,933.0,1.489583,DottedQuarter,A3
5796,Left,1,33,95,933.5,1.989583,Half,A1
5797,Left,1,36,96,933.625,1.864583,Half,C2
5798,Left,1,39,96,933.75,1.739583,DottedQuarter,D#2
5799,Left,1,42,97,933.875,1.614583,DottedQuarter,F#2
5800,Left,1,45,97,934.0,1.489583,DottedQuarter,A2
5801,Right,0,57,99,934.5,1.989583,Half,A3
5802,Right,0,60,99,934.625,1.864583,Half,C4
5803,Right,0,63,100,934.75,1.739583,DottedQuarter,D#4
5804,Right,0,66,100,934.875,1.614583,DottedQuarter,F#4
5805,Right,0,69,101,935.0,1.489583,DottedQuarter,A4
5806,Left,1,45,103,935.5,2.489583,Half,A2
5807,Left,1,48,103,935.625,2.364583,Half,C3
5808,Left,1,51,104,935.75,2.25,Half,D#3
5809,Left,1,54,104,935.875,2.125,Half,F#3
5810,Left,1,57,105,936.0,1.989583,Half,A3
5811,Right,0,69,106,936.5,7.479167,Unknown,A4
5812,Right,0,72,108,937.0,6.989583,Unknown,C5
5813,Right,0,75,110,937.5,6.479167,Unknown,D#5
5815,Left,1,54,120,938.0,5.989583,Unknown,F#3_D#4_C4_A3
5814,Right,0,81,125,938.0,5.989583,Unknown,A5
5820,Left,1,49,80,944.0,0.989583,Quarter,C#3
5819,Right,0,61,70,944.0,0.489583,Eighth,C#4
5821,Right,0,68,70,944.25,0.489583,Eighth,G#4
5822,Right,0,64,70,944.5,0.489583,Eighth,E4
5823,Right,0,68,70,944.75,0.489583,Eighth,G#4
5825,Right,0,61,70,945.0,0.489583,Eighth,C#4
5824,Left,1,56,80,945.0,1.989583,Half,G#3
5826,Right,0,68,70,945.25,0.489583,Eighth,G#4
5827,Right,0,64,70,945.5,0.489583,Eighth,E4
5828,Right,0,68,70,945.75,0.489583,Eighth,G#4
5829,Right,0,61,70,946.0,0.489583,Eighth,C#4
5830,Right,0,68,70,946.25,0.489583,Eighth,G#4
5831,Right,0,64,70,946.5,0.489583,Eighth,E4
5832,Right,0,68,70,946.75,0.489583,Eighth,G#4
5834,Right,0,61,70,947.0,0.489583,Eighth,C#4
5833,Left,1,52,80,947.0,0.989583,Quarter,E3
5835,Right,0,68,70,947.25,0.489583,Eighth,G#4
5836,Right,0,64,70,947.5,0.489583,Eighth,E4
5837,Right,0,68,70,947.75,0.489583,Eighth,G#4
5838,Left,1,49,80,947.75,0.239583,Sixteenth,C#3
5839,Right,0,63,70,948.0,0.489583,Eighth,D#4
5840,Left,1,49,80,948.0,0.989583,Quarter,C#3
5841,Right,0,68,70,948.25,0.489583,Eighth,G#4
5842,Right,0,66,70,948.5,0.489583,Eighth,F#4
5843,Right,0,68,70,948.75,0.489583,Eighth,G#4
5845,Right,0,63,70,949.0,0.489583,Eighth,D#4
5844,Left,1,48,80,949.0,1.489583,DottedQuarter,C3
5846,Right,0,68,70,949.25,0.489583,Eighth,G#4
5847,Right,0,66,70,949.5,0.489583,Eighth,F#4
5848,Right,0,68,70,949.75,0.489583,Eighth,G#4
5849,Right,0,63,70,950.0,0.489583,Eighth,D#4
5850,Right,0,68,70,950.25,0.489583,Eighth,G#4
5851,Left,1,48,80,950.5,0.489583,Eighth,C3
5852,Right,0,66,70,950.5,0.489583,Eighth,F#4
5853,Right,0,68,70,950.75,0.489583,Eighth,G#4
5855,Right,0,63,70,951.0,0.489583,Eighth,D#4
5854,Left,1,56,91,951.0,0.989583,Quarter,G#3
5856,Right,0,68,70,951.25,0.489583,Eighth,G#4
5857,Right,0,66,70,951.5,0.489583,Eighth,F#4
5858,Right,0,68,70,951.75,0.489583,Eighth,G#4
5859,Left,1,48,80,951.75,0.489583,Eighth,C3
5860,Left,1,51,80,952.0,0.989583,Quarter,D#3
5861,Right,0,61,70,952.0,0.489583,Eighth,C#4
5862,Right,0,68,70,952.25,0.489583,Eighth,G#4
5863,Right,0,64,70,952.5,0.489583,Eighth,E4
5864,Right,0,68,70,952.75,0.489583,Eighth,G#4
5866,Left,1,49,80,953.0,1.489583,DottedQuarter,C#3
5865,Right,0,61,70,953.0,0.489583,Eighth,C#4
5867,Right,0,68,70,953.25,0.489583,Eighth,G#4
5868,Right,0,64,70,953.5,0.489583,Eighth,E4
5869,Right,0,68,70,953.75,0.489583,Eighth,G#4
5870,Right,0,61,70,954.0,0.489583,Eighth,C#4
5871,Right,0,68,70,954.25,0.489583,Eighth,G#4
5872,Left,1,49,80,954.5,0.489583,Eighth,C#3
5873,Right,0,64,70,954.5,0.489583,Eighth,E4
5874,Right,0,68,70,954.75,0.489583,Eighth,G#4
5875,Left,1,56,95,955.0,0.989583,Quarter,G#3
5876,Right,0,61,70,955.0,0.489583,Eighth,C#4
5877,Right,0,68,70,955.25,0.489583,Eighth,G#4
5878,Right,0,64,70,955.5,0.489583,Eighth,E4
5880,Right,0,68,70,955.75,0.489583,Eighth,G#4
5879,Left,1,49,80,955.75,0.489583,Eighth,C#3
5882,Left,1,52,80,956.0,0.989583,Quarter,E3
5881,Right,0,60,70,956.0,0.489583,Eighth,C4
5883,Right,0,68,70,956.25,0.489583,Eighth,G#4
5884,Right,0,66,70,956.5,0.489583,Eighth,F#4
5885,Right,0,68,70,956.75,0.489583,Eighth,G#4
5886,Right,0,60,70,957.0,0.489583,Eighth,C4
5887,Left,1,51,80,957.0,1.489583,DottedQuarter,D#3
5888,Right,0,68,70,957.25,0.489583,Eighth,G#4
5889,Right,0,66,70,957.5,0.489583,Eighth,F#4
5890,Right,0,68,70,957.75,0.489583,Eighth,G#4
5891,Right,0,60,70,958.0,0.489583,Eighth,C4
5892,Right,0,68,70,958.25,0.489583,Eighth,G#4
5893,Right,0,66,70,958.5,0.489583,Eighth,F#4
5894,Left,1,51,80,958.5,0.489583,Eighth,D#3
5895,Right,0,68,70,958.75,0.489583,Eighth,G#4
5897,Left,1,56,92,959.0,0.989583,Quarter,G#3
5896,Right,0,60,70,959.0,0.489583,Eighth,C4
5898,Right,0,68,70,959.25,0.489583,Eighth,G#4
5899,Right,0,66,70,959.5,0.489583,Eighth,F#4
5900,Left,1,51,80,959.75,0.489583,Eighth,D#3
5904,Left,1,52,70,960.0,0.489583,Eighth,E3
5901,Right,0,64,80,960.0,0.989583,Quarter,G#4_E4_C#4
5905,Left,1,56,70,960.25,0.489583,Eighth,G#3
5906,Left,1,52,70,960.5,0.489583,Eighth,E3
5907,Left,1,56,70,960.75,0.489583,Eighth,G#3
5909,Right,0,80,80,961.0,1.989583,Half,G#5_G#4
5908,Left,1,52,70,961.0,0.489583,Eighth,E3
5911,Left,1,56,70,961.25,0.489583,Eighth,G#3
5912,Left,1,52,70,961.5,0.489583,Eighth,E3
5913,Left,1,56,70,961.75,0.489583,Eighth,G#3
5914,Left,1,52,70,962.0,0.489583,Eighth,E3
5915,Left,1,56,70,962.25,0.489583,Eighth,G#3
5916,Left,1,52,70,962.5,0.489583,Eighth,E3
5917,Left,1,56,70,962.75,0.489583,Eighth,G#3
5920,Left,1,52,70,963.0,0.489583,Eighth,E3
5918,Right,0,76,80,963.0,0.989583,Quarter,E5_E4
5921,Left,1,56,70,963.25,0.489583,Eighth,G#3
5922,Left,1,52,70,963.5,0.489583,Eighth,E3
5925,Left,1,56,70,963.75,0.489583,Eighth,G#3
5923,Right,0,73,80,963.75,0.239583,Sixteenth,C#5_C#4
5928,Left,1,54,70,964.0,0.489583,Eighth,F#3
5926,Right,0,73,80,964.0,0.989583,Quarter,C#5_C#4
5929,Left,1,56,70,964.25,0.489583,Eighth,G#3
5930,Left,1,54,70,964.5,0.489583,Eighth,F#3
5931,Left,1,56,70,964.75,0.489583,Eighth,G#3
5933,Left,1,54,70,965.0,0.489583,Eighth,F#3
5932,Right,0,60,80,965.0,1.489583,DottedQuarter,C5_C4
5935,Left,1,56,70,965.25,0.489583,Eighth,G#3
5936,Left,1,54,70,965.5,0.489583,Eighth,F#3
5937,Left,1,56,70,965.75,0.489583,Eighth,G#3
5938,Left,1,54,70,966.0,0.489583,Eighth,F#3
5939,Left,1,56,70,966.25,0.489583,Eighth,G#3
5941,Left,1,54,70,966.5,0.489583,Eighth,F#3
5940,Right,0,72,80,966.5,0.489583,Eighth,C5_C4
5943,Left,1,56,70,966.75,0.489583,Eighth,G#3
5944,Right,0,68,90,967.0,0.989583,Quarter,G#5_G#4
5945,Left,1,54,70,967.0,0.489583,Eighth,F#3
5947,Left,1,56,70,967.25,0.489583,Eighth,G#3
5948,Left,1,54,70,967.5,0.489583,Eighth,F#3
5949,Right,0,60,80,967.75,0.489583,Eighth,C5_C4
5950,Left,1,56,70,967.75,0.489583,Eighth,G#3
5953,Left,1,52,70,968.0,0.489583,Eighth,E3
5952,Right,0,63,80,968.0,0.989583,Quarter,D#5_D#4
5955,Left,1,56,70,968.25,0.489583,Eighth,G#3
5956,Left,1,52,70,968.5,0.489583,Eighth,E3
5957,Left,1,56,70,968.75,0.489583,Eighth,G#3
5958,Right,0,61,80,969.0,1.489583,DottedQuarter,C#5_C#4
5959,Left,1,52,70,969.0,0.489583,Eighth,E3
5961,Left,1,56,70,969.25,0.489583,Eighth,G#3
5962,Left,1,52,70,969.5,0.489583,Eighth,E3
5963,Left,1,56,70,969.75,0.489583,Eighth,G#3
5964,Left,1,52,70,970.0,0.489583,Eighth,E3
5965,Left,1,56,70,970.25,0.489583,Eighth,G#3
5966,Left,1,52,70,970.5,0.489583,Eighth,E3
5967,Right,0,61,80,970.5,0.489583,Eighth,C#5_C#4
5969,Left,1,56,70,970.75,0.489583,Eighth,G#3
5970,Right,0,68,90,971.0,0.989583,Quarter,G#5_G#4
5972,Left,1,52,70,971.0,0.489583,Eighth,E3
5973,Left,1,56,70,971.25,0.489583,Eighth,G#3
5974,Left,1,52,70,971.5,0.489583,Eighth,E3
5975,Right,0,61,80,971.75,0.489583,Eighth,C#5_C#4
5976,Left,1,56,70,971.75,0.489583,Eighth,G#3
5978,Left,1,48,70,972.0,0.489583,Eighth,C3
5979,Right,0,76,80,972.0,0.989583,Quarter,E5_E4
5981,Left,1,56,70,972.25,0.489583,Eighth,G#3
5982,Left,1,48,70,972.5,0.489583,Eighth,C3
5983,Left,1,56,70,972.75,0.489583,Eighth,G#3
5986,Left,1,48,70,973.0,0.489583,Eighth,C3
5984,Right,0,75,80,973.0,1.489583,DottedQuarter,D#5_D#4
5987,Left,1,56,70,973.25,0.489583,Eighth,G#3
5988,Left,1,48,70,973.5,0.489583,Eighth,C3
5989,Left,1,56,70,973.75,0.489583,Eighth,G#3
5990,Left,1,48,70,974.0,0.489583,Eighth,C3
5991,Left,1,56,70,974.25,0.489583,Eighth,G#3
5992,Right,0,63,80,974.5,0.489583,Eighth,D#5_D#4
5993,Left,1,48,70,974.5,0.489583,Eighth,C3
5995,Left,1,56,70,974.75,0.489583,Eighth,G#3
5997,Right,0,68,90,975.0,0.989583,Quarter,G#5_G#4
5996,Left,1,48,70,975.0,0.489583,Eighth,C3
5999,Left,1,56,70,975.25,0.489583,Eighth,G#3
6000,Left,1,48,70,975.5,0.489583,Eighth,C3
6002,Right,0,63,80,975.75,0.489583,Eighth,D#5_D#4
6001,Left,1,56,70,975.75,0.489583,Eighth,G#3
6005,Right,0,78,90,976.0,0.489583,Eighth,F#5_F#4
6004,Left,1,49,90,976.0,0.489583,Eighth,C#3
6007,Left,1,56,90,976.25,0.489583,Eighth,G#3
6009,Right,0,64,91,976.5,0.489583,Eighth,E5_E4
6008,Left,1,49,91,976.5,0.489583,Eighth,C#3
6011,Left,1,56,91,976.75,0.489583,Eighth,G#3
6012,Right,0,85,92,977.0,0.489583,Eighth,C#6_C#5
6014,Left,1,49,92,977.0,0.489583,Eighth,C#3
6015,Left,1,56,93,977.25,0.489583,Eighth,G#3
6018,Left,1,49,93,977.5,0.489583,Eighth,C#3
6016,Right,0,64,93,977.5,0.489583,Eighth,E5_E4
6019,Left,1,56,94,977.75,0.489583,Eighth,G#3
6021,Left,1,47,94,978.0,0.489583,Eighth,B2
6020,Right,0,66,94,978.0,0.489583,Eighth,F#5_F#4
6023,Left,1,49,95,978.25,0.489583,Eighth,C#3
6024,Left,1,47,96,978.5,0.489583,Eighth,B2
6025,Right,0,77,96,978.5,0.489583,Eighth,F5_F4
6027,Left,1,49,96,978.75,0.489583,Eighth,C#3
6028,Left,1,47,97,979.0,0.489583,Eighth,B2
6029,Right,0,73,97,979.0,0.489583,Eighth,C#6_C#5
6031,Left,1,49,98,979.25,0.489583,Eighth,C#3
6032,Right,0,77,98,979.5,0.489583,Eighth,F5_F4
6033,Left,1,47,98,979.5,0.489583,Eighth,B2
6035,Left,1,49,99,979.75,0.489583,Eighth,C#3
6036,Right,0,80,99,980.0,0.489583,Eighth,G#5_G#4
6037,Left,1,45,99,980.0,0.489583,Eighth,A2
6039,Left,1,49,100,980.25,0.489583,Eighth,C#3
6040,Right,0,66,101,980.5,0.489583,Eighth,F#5_F#4
6042,Left,1,45,101,980.5,0.489583,Eighth,A2
6043,Left,1,49,101,980.75,0.489583,Eighth,C#3
6044,Left,1,45,102,981.0,0.489583,Eighth,A2
6045,Right,0,73,102,981.0,0.489583,Eighth,C#6_C#5
6047,Left,1,49,103,981.25,0.489583,Eighth,C#3
6050,Left,1,45,103,981.5,0.489583,Eighth,A2
6048,Right,0,78,103,981.5,0.489583,Eighth,F#5_F#4
6051,Left,1,49,104,981.75,0.489583,Eighth,C#3
6052,Left,1,41,104,982.0,0.489583,Eighth,F2
6053,Right,0,81,104,982.0,0.489583,Eighth,A5_A4
6055,Left,1,49,105,982.25,0.489583,Eighth,C#3
6056,Right,0,80,106,982.5,0.489583,Eighth,G#5_G#4
6057,Left,1,41,106,982.5,0.489583,Eighth,F2
6059,Left,1,49,106,982.75,0.489583,Eighth,C#3
6060,Right,0,85,107,983.0,0.489583,Eighth,C#6_C#5
6062,Left,1,41,107,983.0,0.489583,Eighth,F2
6063,Left,1,49,108,983.25,0.489583,Eighth,C#3
6064,Left,1,41,108,983.5,0.489583,Eighth,F2
6065,Right,0,68,108,983.5,0.489583,Eighth,G#5_G#4
6067,Left,1,49,109,983.75,0.489583,Eighth,C#3
6068,Left,1,30,120,984.0,7.989583,Unknown,F#2_F#1_C#2
6070,Right,0,81,120,984.0,0.65625,DottedEighth,A5
6072,Right,0,78,120,984.333333,0.65625,DottedEighth,F#5
6073,Right,0,73,120,984.666667,0.65625,DottedEighth,C#5
6074,Right,0,69,120,985.0,0.65625,DottedEighth,A4
6075,Right,0,66,120,985.333333,0.65625,DottedEighth,F#4
6076,Right,0,61,120,985.666667,0.65625,DottedEighth,C#4
6077,Right,0,69,120,986.0,0.65625,DottedEighth,A4
6078,Right,0,66,120,986.333333,0.65625,DottedEighth,F#4
6079,Right,0,61,120,986.666667,0.65625,DottedEighth,C#4
6080,Right,0,57,120,987.0,0.65625,DottedEighth,A3
6081,Right,0,54,120,987.333333,0.65625,DottedEighth,F#3
6082,Right,0,49,120,987.666667,0.65625,DottedEighth,C#3
6083,Right,0,57,120,988.0,0.489583,Eighth,A3
6084,Right,0,54,120,988.25,0.489583,Eighth,F#3
6085,Right,0,49,120,988.5,0.489583,Eighth,C#3
6086,Right,0,45,120,988.75,0.489583,Eighth,A2
6087,Right,0,49,120,989.0,0.489583,Eighth,C#3
6088,Right,0,54,120,989.25,0.489583,Eighth,F#3
6089,Right,0,57,120,989.5,0.489583,Eighth,A3
6090,Right,0,61,120,989.75,0.489583,Eighth,C#4
6091,Right,0,66,120,990.0,0.489583,Eighth,F#4
6092,Right,0,69,120,990.25,0.489583,Eighth,A4
6093,Right,0,73,120,990.5,0.489583,Eighth,C#5
6094,Right,0,78,120,990.75,0.489583,Eighth,F#5
6095,Right,0,81,120,991.0,0.489583,Eighth,A5
6096,Right,0,78,120,991.25,0.489583,Eighth,F#5
6097,Right,0,73,120,991.5,0.489583,Eighth,C#5
6098,Right,0,69,120,991.75,0.239583,Sixteenth,A4
6101,Right,0,81,120,992.0,0.65625,DottedEighth,A5
6099,Left,1,38,120,992.0,7.989583,Unknown,F#2_F#1_D2
6103,Right,0,78,120,992.333333,0.65625,DottedEighth,F#5
6104,Right,0,74,120,992.666667,0.65625,DottedEighth,D5
6105,Right,0,69,120,993.0,0.65625,DottedEighth,A4
6106,Right,0,66,120,993.333333,0.65625,DottedEighth,F#4
6107,Right,0,62,120,993.666667,0.65625,DottedEighth,D4
6108,Right,0,69,120,994.0,0.65625,DottedEighth,A4
6109,Right,0,66,120,994.333333,0.65625,DottedEighth,F#4
6110,Right,0,62,120,994.666667,0.65625,DottedEighth,D4
6111,Right,0,57,120,995.0,0.65625,DottedEighth,A3
6112,Right,0,54,120,995.333333,0.65625,DottedEighth,F#3
6113,Right,0,50,120,995.666667,0.65625,DottedEighth,D3
6114,Right,0,57,120,996.0,0.489583,Eighth,A3
6115,Right,0,54,120,996.25,0.489583,Eighth,F#3
6116,Right,0,50,120,996.5,0.489583,Eighth,D3
6117,Right,0,45,120,996.75,0.489583,Eighth,A2
6118,Right,0,50,120,997.0,0.489583,Eighth,D3
6119,Right,0,54,120,997.25,0.489583,Eighth,F#3
6120,Right,0,57,120,997.5,0.489583,Eighth,A3
6121,Right,0,62,120,997.75,0.489583,Eighth,D4
6122,Right,0,66,120,998.0,0.489583,Eighth,F#4
6123,Right,0,69,120,998.25,0.489583,Eighth,A4
6124,Right,0,74,120,998.5,0.489583,Eighth,D5
6125,Right,0,78,120,998.75,0.489583,Eighth,F#5
6126,Right,0,81,120,999.0,0.489583,Eighth,A5
6127,Right,0,78,120,999.25,0.489583,Eighth,F#5
6128,Right,0,74,120,999.5,0.489583,Eighth,D5
6129,Right,0,69,120,999.75,0.239583,Sixteenth,A4
6133,Right,0,85,120,1000.0,0.65625,DottedEighth,C#6
6130,Left,1,37,120,1000.0,7.989583,Unknown,G2_G1_C#2
6134,Right,0,82,120,1000.333333,0.65625,DottedEighth,A#5
6135,Right,0,79,120,1000.666667,0.65625,DottedEighth,G5
6136,Right,0,76,120,1001.0,0.65625,DottedEighth,E5
6137,Right,0,73,120,1001.333333,0.65625,DottedEighth,C#5
6138,Right,0,70,120,1001.666667,0.65625,DottedEighth,A#4
6139,Right,0,76,120,1002.0,0.65625,DottedEighth,E5
6140,Right,0,73,120,1002.333333,0.65625,DottedEighth,C#5
6141,Right,0,70,120,1002.666667,0.65625,DottedEighth,A#4
6142,Right,0,67,120,1003.0,0.489583,Eighth,G4
6143,Right,0,64,120,1003.25,0.489583,Eighth,E4
6144,Right,0,61,120,1003.5,0.489583,Eighth,C#4
6145,Right,0,58,120,1003.75,0.489583,Eighth,A#3
6146,Right,0,64,120,1004.0,0.489583,Eighth,E4
6147,Right,0,61,120,1004.25,0.489583,Eighth,C#4
6148,Right,0,58,120,1004.5,0.489583,Eighth,A#3
6149,Right,0,55,120,1004.75,0.489583,Eighth,G3
6150,Right,0,52,120,1005.0,0.489583,Eighth,E3
6151,Right,0,49,120,1005.25,0.489583,Eighth,C#3
6152,Right,0,52,120,1005.5,0.489583,Eighth,E3
6153,Right,0,55,120,1005.75,0.489583,Eighth,G3
6154,Right,0,58,120,1006.0,0.322917,Triplet,A#3
6155,Right,0,61,120,1006.166667,0.322917,Triplet,C#4
6156,Right,0,64,120,1006.333333,0.322917,Triplet,E4
6157,Right,0,67,120,1006.5,0.322917,Triplet,G4
6158,Right,0,70,120,1006.666667,0.322917,Triplet,A#4
6159,Right,0,73,120,1006.833333,0.322917,Triplet,C#5
6160,Right,0,76,120,1007.0,0.322917,Triplet,E5
6161,Right,0,79,120,1007.166667,0.322917,Triplet,G5
6162,Right,0,82,120,1007.333333,0.322917,Triplet,A#5
6163,Right,0,85,120,1007.5,0.322917,Triplet,C#6
6164,Right,0,82,120,1007.666667,0.322917,Triplet,A#5
6165,Right,0,79,120,1007.833333,0.15625,TripletSixteenth,G5
6166,Left,1,37,120,1008.0,7.989583,Unknown,G#2_G#1_C#2
6168,Right,0,88,120,1008.0,0.65625,DottedEighth,E6
6170,Right,0,85,120,1008.333333,0.65625,DottedEighth,C#6
6171,Right,0,80,120,1008.666667,0.65625,DottedEighth,G#5
6172,Right,0,76,120,1009.0,0.65625,DottedEighth,E5
6173,Right,0,73,120,1009.333333,0.65625,DottedEighth,C#5
6174,Right,0,68,120,1009.666667,0.65625,DottedEighth,G#4
6175,Right,0,76,120,1010.0,0.65625,DottedEighth,E5
6176,Right,0,73,120,1010.333333,0.65625,DottedEighth,C#5
6177,Right,0,68,120,1010.666667,0.65625,DottedEighth,G#4
6178,Right,0,64,120,1011.0,0.489583,Eighth,E4
6179,Right,0,73,120,1011.25,0.489583,Eighth,C#5
6180,Right,0,68,120,1011.5,0.489583,Eighth,G#4
6181,Right,0,64,120,1011.75,0.489583,Eighth,E4
6182,Right,0,61,120,1012.0,0.489583,Eighth,C#4
6183,Right,0,68,120,1012.25,0.489583,Eighth,G#4
6184,Right,0,64,120,1012.5,0.489583,Eighth,E4
6185,Right,0,61,120,1012.75,0.489583,Eighth,C#4
6186,Right,0,56,120,1013.0,0.489583,Eighth,G#3
6187,Right,0,64,120,1013.25,0.489583,Eighth,E4
6188,Right,0,61,120,1013.5,0.489583,Eighth,C#4
6189,Right,0,56,120,1013.75,0.489583,Eighth,G#3
6190,Right,0,52,120,1014.0,0.489583,Eighth,E3
6191,Right,0,61,120,1014.25,0.489583,Eighth,C#4
6192,Right,0,56,120,1014.5,0.489583,Eighth,G#3
6193,Right,0,52,120,1014.75,0.489583,Eighth,E3
6194,Right,0,49,120,1015.0,0.489583,Eighth,C#3
6195,Right,0,56,120,1015.25,1.489583,DottedQuarter,G#3
6196,Right,0,52,120,1015.5,1.489583,DottedQuarter,E3
6197,Right,0,49,120,1015.75,1.239583,TiedQuarter-Sixteenth,C#3
6198,Left,1,44,110,1016.0,0.489583,Eighth,G#2
6199,Left,1,45,110,1016.25,0.489583,Eighth,A2
6200,Left,1,46,110,1016.5,0.489583,Eighth,A#2
6201,Left,1,47,110,1016.75,0.489583,Eighth,B2
6202,Right,0,48,110,1017.0,0.489583,Eighth,C3
6203,Right,0,49,110,1017.25,0.489583,Eighth,C#3
6204,Right,0,50,110,1017.5,0.489583,Eighth,D3
6205,Right,0,51,110,1017.75,0.489583,Eighth,D#3
6206,Right,0,52,110,1018.0,0.489583,Eighth,E3
6207,Right,0,53,110,1018.25,0.489583,Eighth,F3
6208,Right,0,54,110,1018.5,0.489583,Eighth,F#3
6209,Right,0,55,110,1018.75,0.489583,Eighth,G3
6210,Right,0,56,110,1019.0,0.489583,Eighth,G#3
6211,Right,0,57,110,1019.25,0.489583,Eighth,A3
6212,Right,0,58,110,1019.5,0.489583,Eighth,A#3
6213,Right,0,59,110,1019.75,0.489583,Eighth,B3
6214,Right,0,60,110,1020.0,0.489583,Eighth,C4
6215,Right,0,61,110,1020.25,0.489583,Eighth,C#4
6216,Right,0,62,110,1020.5,0.489583,Eighth,D4
6217,Right,0,63,110,1020.75,0.489583,Eighth,D#4
6218,Right,0,64,110,1021.0,0.489583,Eighth,E4
6219,Right,0,65,110,1021.1875,0.489583,Eighth,F4
6220,Right,0,66,110,1021.375,0.489583,Eighth,F#4
6221,Right,0,67,110,1021.572917,0.489583,Eighth,G4
6222,Right,0,68,110,1021.854167,0.489583,Eighth,G#4
6223,Right,0,69,110,1022.0,0.489583,Eighth,A4
6224,Right,0,70,110,1022.1875,0.489583,Eighth,A#4
6225,Right,0,71,110,1022.375,0.489583,Eighth,B4
6226,Right,0,72,110,1022.572917,0.489583,Eighth,C5
6227,Right,0,73,110,1022.854167,0.489583,Eighth,C#5
6228,Right,0,74,110,1023.0,0.322917,Triplet,D5
6229,Right,0,75,110,1023.166667,0.322917,Triplet,D#5
6230,Right,0,76,110,1023.333333,0.322917,Triplet,E5
6231,Right,0,77,110,1023.5,0.239583,Sixteenth,F5
6232,Right,0,78,110,1023.625,0.239583,Sixteenth,F#5
6233,Right,0,79,110,1023.75,0.239583,Sixteenth,G5
6234,Right,0,80,110,1023.875,0.114583,ThirtySecond,G#5
6238,Right,0,81,100,1024.0,0.322917,Triplet,A5
6235,Left,1,60,100,1024.0,3.989583,Whole,G#3_F#4_C4
6239,Right,0,83,100,1024.166667,0.322917,Triplet,B5
6240,Right,0,81,100,1024.333333,0.322917,Triplet,A5
6241,Right,0,83,100,1024.5,0.322917,Triplet,B5
6242,Right,0,81,100,1024.666667,0.322917,Triplet,A5
6243,Right,0,83,100,1024.833333,0.322917,Triplet,B5
6244,Right,0,81,100,1025.0,0.322917,Triplet,A5
6245,Right,0,83,100,1025.166667,0.322917,Triplet,B5
6246,Right,0,81,100,1025.333333,0.322917,Triplet,A5
6247,Right,0,83,100,1025.5,0.322917,Triplet,B5
6248,Right,0,81,100,1025.666667,0.322917,Triplet,A5
6249,Right,0,83,100,1025.833333,0.322917,Triplet,B5
6250,Right,0,81,100,1026.0,0.322917,Triplet,A5
6251,Right,0,83,100,1026.166667,0.322917,Triplet,B5
6252,Right,0,81,100,1026.333333,0.322917,Triplet,A5
6253,Right,0,83,100,1026.5,0.322917,Triplet,B5
6254,Right,0,81,100,1026.666667,0.322917,Triplet,A5
6255,Right,0,83,100,1026.833333,0.322917,Triplet,B5
6256,Right,0,81,100,1027.0,0.322917,Triplet,A5
6257,Right,0,83,100,1027.166667,0.322917,Triplet,B5
6258,Right,0,81,100,1027.333333,0.322917,Triplet,A5
6259,Right,0,83,100,1027.5,0.322917,Triplet,B5
6260,Right,0,81,100,1027.666667,1.322917,TiedQuarter-Sixteenth,A5
6261,Right,0,83,100,1027.833333,1.322917,TiedQuarter-Sixteenth,B5
6262,Right,0,80,100,1028.0,0.989583,Quarter,G#5
6263,Right,0,78,100,1028.25,0.739583,DottedEighth,F#5
6264,Right,0,76,99,1028.5,0.989583,Quarter,E5
6265,Right,0,75,98,1028.75,0.989583,Quarter,D#5
6266,Right,0,78,98,1029.0,0.989583,Quarter,F#5
6267,Right,0,73,97,1029.25,0.989583,Quarter,C#5
6268,Right,0,72,96,1029.5,0.989583,Quarter,C5
6269,Right,0,75,95,1029.75,0.989583,Quarter,D#5
6270,Right,0,69,95,1030.0,0.739583,DottedEighth,A4
6271,Right,0,68,94,1030.25,0.989583,Quarter,G#4
6272,Right,0,66,93,1030.5,0.989583,Quarter,F#4
6273,Right,0,69,92,1030.75,0.989583,Quarter,A4
6274,Right,0,64,92,1031.0,0.989583,Quarter,E4
6275,Right,0,63,91,1031.25,0.989583,Quarter,D#4
6276,Right,0,66,90,1031.5,0.989583,Quarter,F#4
6277,Right,0,61,89,1031.75,0.989583,Quarter,C#4
6278,Right,0,60,89,1032.0,0.989583,Quarter,C4
6279,Right,0,63,88,1032.25,0.989583,Quarter,D#4
6280,Right,0,57,87,1032.5,0.739583,DottedEighth,A3
6281,Right,0,56,86,1032.75,0.989583,Quarter,G#3
6282,Right,0,54,86,1033.0,0.989583,Quarter,F#3
6283,Right,0,57,85,1033.25,0.989583,Quarter,A3
6284,Right,0,52,84,1033.5,0.989583,Quarter,E3
6285,Right,0,51,83,1034.0,0.989583,Quarter,D#3
6286,Right,0,54,81,1034.5,0.989583,Quarter,F#3
6287,Right,0,49,80,1035.0,0.989583,Quarter,C#3
6288,Right,0,48,78,1035.5,1.989583,Half,C3
6289,Right,0,51,77,1036.0,3.989583,Whole,D#3
6290,Right,0,45,74,1037.0,2.989583,DottedHalf,A2
6291,Right,0,44,71,1038.0,2.989583,DottedHalf,G#2
6292,Left,1,31,70,1040.0,3.989583,Whole,G1
6293,Right,0,43,70,1040.0,3.989583,Whole,G2
6294,Left,1,32,70,1044.0,3.989583,Whole,G#1
6295,Right,0,44,70,1044.0,3.989583,Whole,G#2
6296,Left,1,37,70,1048.0,0.489583,Eighth,C#3_C#2
6298,Left,1,49,70,1048.25,0.489583,Eighth,C#3
6299,Left,1,44,70,1048.5,0.489583,Eighth,G#2
6300,Left,1,49,70,1048.75,0.489583,Eighth,C#3
6301,Left,1,37,70,1049.0,0.489583,Eighth,C#2
6302,Left,1,49,70,1049.25,0.489583,Eighth,C#3
6303,Left,1,44,70,1049.5,0.489583,Eighth,G#2
6304,Left,1,49,70,1049.75,0.489583,Eighth,C#3
6305,Left,1,37,70,1050.0,0.489583,Eighth,C#2
6306,Left,1,49,70,1050.25,0.489583,Eighth,C#3
6307,Left,1,44,70,1050.5,0.489583,Eighth,G#2
6308,Left,1,49,70,1050.75,0.489583,Eighth,C#3
6309,Left,1,37,70,1051.0,0.489583,Eighth,C#2
6310,Right,0,64,80,1051.0,0.989583,Quarter,E4
6311,Left,1,49,70,1051.25,0.489583,Eighth,C#3
6312,Left,1,44,70,1051.5,0.489583,Eighth,G#2
6314,Right,0,61,80,1051.75,0.489583,Eighth,C#4
6313,Left,1,49,70,1051.75,0.489583,Eighth,C#3
6315,Right,0,60,80,1052.0,0.989583,Quarter,C4
6316,Left,1,37,70,1052.0,0.489583,Eighth,C#2
6317,Left,1,51,70,1052.25,0.489583,Eighth,D#3
6318,Left,1,44,70,1052.5,0.489583,Eighth,G#2
6319,Left,1,51,70,1052.75,0.489583,Eighth,D#3
6322,Left,1,37,70,1053.0,0.489583,Eighth,C#2
6320,Right,0,60,80,1053.0,0.989583,Quarter,G#4_F#3_C4
6324,Left,1,51,70,1053.25,0.489583,Eighth,D#3
6325,Left,1,44,70,1053.5,0.489583,Eighth,G#2
6326,Left,1,51,70,1053.75,0.489583,Eighth,D#3
6327,Right,0,68,80,1054.0,0.989583,Quarter,G#4_F#3_C4
6330,Left,1,37,70,1054.0,0.489583,Eighth,C#2
6331,Left,1,51,70,1054.25,0.489583,Eighth,D#3
6332,Left,1,44,70,1054.5,0.489583,Eighth,G#2
6333,Left,1,51,70,1054.75,0.489583,Eighth,D#3
6334,Right,0,60,80,1055.0,0.989583,Quarter,G#4_F#3_C4
6337,Left,1,37,70,1055.0,0.489583,Eighth,C#2
6338,Left,1,51,70,1055.25,0.489583,Eighth,D#3
6339,Left,1,44,70,1055.5,0.489583,Eighth,G#2
6340,Left,1,51,70,1055.75,0.489583,Eighth,D#3
6341,Right,0,52,80,1056.0,0.989583,Quarter,E3
6342,Left,1,37,70,1056.0,0.489583,Eighth,C#2
6343,Right,0,61,80,1056.125,0.864583,DottedEighth,C#4
6344,Right,0,68,80,1056.25,2.739583,DottedHalf,G#4
6345,Left,1,49,70,1056.25,0.489583,Eighth,C#3
6346,Left,1,44,70,1056.5,0.489583,Eighth,G#2
6347,Left,1,49,70,1056.75,0.489583,Eighth,C#3
6348,Left,1,37,70,1057.0,0.489583,Eighth,C#2
6349,Left,1,49,70,1057.25,0.489583,Eighth,C#3
6350,Left,1,44,70,1057.5,0.489583,Eighth,G#2
6351,Left,1,49,70,1057.75,0.489583,Eighth,C#3
6352,Left,1,37,70,1058.0,0.489583,Eighth,C#2
6353,Left,1,49,70,1058.25,0.489583,Eighth,C#3
6354,Left,1,44,70,1058.5,0.489583,Eighth,G#2
6355,Left,1,49,70,1058.75,0.489583,Eighth,C#3
6356,Left,1,37,70,1059.0,0.489583,Eighth,C#2
6357,Right,0,76,80,1059.0,0.989583,Quarter,E5
6358,Left,1,49,70,1059.25,0.489583,Eighth,C#3
6359,Left,1,44,70,1059.5,0.489583,Eighth,G#2
6360,Left,1,49,70,1059.75,0.489583,Eighth,C#3
6361,Right,0,73,80,1059.75,0.489583,Eighth,C#5
6362,Left,1,37,70,1060.0,0.489583,Eighth,C#2
6363,Right,0,72,80,1060.0,0.989583,Quarter,C5
6364,Left,1,51,70,1060.25,0.489583,Eighth,D#3
6365,Left,1,44,70,1060.5,0.489583,Eighth,G#2
6366,Left,1,51,70,1060.75,0.489583,Eighth,D#3
6370,Left,1,37,70,1061.0,0.489583,Eighth,C#2
6367,Right,0,66,80,1061.0,0.989583,Quarter,G#5_F#4_C5
6371,Left,1,51,70,1061.25,0.489583,Eighth,D#3
6372,Left,1,44,70,1061.5,0.489583,Eighth,G#2
6373,Left,1,51,70,1061.75,0.489583,Eighth,D#3
6375,Left,1,37,70,1062.0,0.489583,Eighth,C#2
6374,Right,0,66,80,1062.0,0.989583,Quarter,G#5_F#4_C5
6378,Left,1,51,70,1062.25,0.489583,Eighth,D#3
6379,Left,1,44,70,1062.5,0.489583,Eighth,G#2
6380,Left,1,51,70,1062.75,0.489583,Eighth,D#3
6384,Left,1,37,70,1063.0,0.489583,Eighth,C#2
6381,Right,0,72,80,1063.0,0.989583,Quarter,G#5_F#4_C5
6385,Left,1,51,70,1063.25,0.489583,Eighth,D#3
6386,Left,1,44,70,1063.5,0.489583,Eighth,G#2
6387,Left,1,51,70,1063.75,0.489583,Eighth,D#3
6388,Right,0,64,80,1064.0,1.989583,Half,E4
6389,Left,1,37,70,1064.0,0.489583,Eighth,C#2
6390,Right,0,73,80,1064.125,1.864583,Half,C#5
6391,Right,0,80,80,1064.25,1.739583,DottedQuarter,G#5
6392,Left,1,49,70,1064.25,0.489583,Eighth,C#3
6393,Left,1,44,70,1064.5,0.489583,Eighth,G#2
6394,Left,1,49,70,1064.75,0.489583,Eighth,C#3
6395,Left,1,37,70,1065.0,0.489583,Eighth,C#2
6396,Left,1,49,70,1065.25,0.489583,Eighth,C#3
6397,Left,1,44,70,1065.5,0.489583,Eighth,G#2
6398,Left,1,49,70,1065.75,0.489583,Eighth,C#3
6399,Right,0,66,80,1066.0,1.989583,Half,F#4
6400,Left,1,37,70,1066.0,0.489583,Eighth,C#2
6401,Right,0,72,80,1066.125,1.864583,Half,C5
6403,Left,1,51,70,1066.25,0.489583,Eighth,D#3
6402,Right,0,80,80,1066.25,1.739583,DottedQuarter,G#5
6404,Left,1,44,70,1066.5,0.489583,Eighth,G#2
6405,Left,1,51,70,1066.75,0.489583,Eighth,D#3
6406,Left,1,37,70,1067.0,0.489583,Eighth,C#2
6407,Left,1,51,70,1067.25,0.489583,Eighth,D#3
6408,Left,1,44,70,1067.5,0.489583,Eighth,G#2
6409,Left,1,51,70,1067.75,0.489583,Eighth,D#3
6411,Right,0,64,80,1068.0,1.989583,Half,E4
6410,Left,1,37,70,1068.0,0.489583,Eighth,C#2
6412,Right,0,73,80,1068.125,1.864583,Half,C#5
6413,Left,1,49,70,1068.25,0.489583,Eighth,C#3
6414,Right,0,80,80,1068.25,1.739583,DottedQuarter,G#5
6415,Left,1,44,70,1068.5,0.489583,Eighth,G#2
6416,Left,1,49,70,1068.75,0.489583,Eighth,C#3
6417,Left,1,37,70,1069.0,0.489583,Eighth,C#2
6418,Left,1,49,70,1069.25,0.489583,Eighth,C#3
6419,Left,1,44,70,1069.5,0.489583,Eighth,G#2
6420,Left,1,49,70,1069.75,0.489583,Eighth,C#3
6421,Left,1,37,70,1070.0,0.489583,Eighth,C#2
6422,Right,0,66,80,1070.0,1.989583,Half,F#4
6423,Right,0,72,80,1070.125,1.864583,Half,C5
6424,Left,1,51,70,1070.25,0.489583,Eighth,D#3
6425,Right,0,80,80,1070.25,1.739583,DottedQuarter,G#5
6426,Left,1,44,70,1070.5,0.489583,Eighth,G#2
6427,Left,1,51,70,1070.75,0.489583,Eighth,D#3
6428,Left,1,37,70,1071.0,0.489583,Eighth,C#2
6429,Left,1,51,70,1071.25,0.489583,Eighth,D#3
6430,Left,1,44,70,1071.5,0.489583,Eighth,G#2
6431,Left,1,51,70,1071.75,0.489583,Eighth,D#3
6435,Right,0,64,110,1072.0,0.239583,Sixteenth,E4
6432,Left,1,44,110,1072.0,0.489583,Eighth,G#2_C#3_C#2
6436,Right,0,73,110,1072.0625,0.677083,DottedEighth,C#5
6437,Right,0,80,110,1072.125,1.864583,Half,G#5
6438,Right,0,64,110,1072.25,0.489583,Eighth,E4
6439,Left,1,52,110,1072.25,0.489583,Eighth,E3
6440,Right,0,68,110,1072.5,0.489583,Eighth,G#4
6441,Left,1,56,110,1072.5,0.489583,Eighth,G#3
6443,Left,1,61,110,1072.75,0.489583,Eighth,C#4
6442,Right,0,73,110,1072.75,0.489583,Eighth,C#5
6444,Left,1,64,110,1073.0,0.489583,Eighth,E4
6445,Right,0,76,110,1073.0,0.489583,Eighth,E5
6447,Right,0,68,110,1073.25,0.489583,Eighth,G#4
6446,Left,1,56,110,1073.25,0.489583,Eighth,G#3
6449,Left,1,61,110,1073.5,0.489583,Eighth,C#4
6448,Right,0,73,110,1073.5,0.489583,Eighth,C#5
6451,Left,1,64,110,1073.75,0.489583,Eighth,E4
6450,Right,0,76,110,1073.75,0.489583,Eighth,E5
6453,Left,1,68,110,1074.0,0.489583,Eighth,G#4
6452,Right,0,80,110,1074.0,0.489583,Eighth,G#5
6454,Right,0,73,110,1074.25,0.489583,Eighth,C#5
6455,Left,1,61,110,1074.25,0.489583,Eighth,C#4
6456,Right,0,76,110,1074.5,0.489583,Eighth,E5
6457,Left,1,64,110,1074.5,0.489583,Eighth,E4
6459,Left,1,68,110,1074.75,0.489583,Eighth,G#4
6458,Right,0,80,110,1074.75,0.489583,Eighth,G#5
6461,Left,1,73,110,1075.0,0.489583,Eighth,C#5
6460,Right,0,85,110,1075.0,0.489583,Eighth,C#6
6463,Left,1,64,110,1075.25,0.489583,Eighth,E4
6462,Right,0,76,110,1075.25,0.489583,Eighth,E5
6464,Right,0,80,110,1075.5,0.489583,Eighth,G#5
6465,Left,1,68,110,1075.5,0.489583,Eighth,G#4
6466,Right,0,85,110,1075.75,0.489583,Eighth,C#6
6467,Left,1,73,110,1075.75,0.489583,Eighth,C#5
6468,Right,0,88,110,1076.0,0.739583,DottedEighth,E6
6469,Left,1,76,110,1076.0,0.739583,DottedEighth,E5
6470,Right,0,85,110,1076.25,0.739583,DottedEighth,C#6
6471,Left,1,73,110,1076.25,0.739583,DottedEighth,C#5
6472,Right,0,80,110,1076.5,0.739583,DottedEighth,G#5
6473,Left,1,68,110,1076.5,0.739583,DottedEighth,G#4
6474,Right,0,76,110,1076.75,0.739583,DottedEighth,E5
6475,Left,1,64,110,1076.75,0.739583,DottedEighth,E4
6477,Right,0,85,110,1077.0,0.739583,DottedEighth,C#6
6476,Left,1,73,110,1077.0,0.739583,DottedEighth,C#5
6478,Left,1,68,110,1077.25,0.739583,DottedEighth,G#4
6479,Right,0,80,110,1077.25,0.739583,DottedEighth,G#5
6480,Left,1,64,110,1077.5,0.739583,DottedEighth,E4
6481,Right,0,76,110,1077.5,0.739583,DottedEighth,E5
6482,Left,1,61,110,1077.75,0.739583,DottedEighth,C#4
6483,Right,0,73,110,1077.75,0.739583,DottedEighth,C#5
6484,Left,1,68,110,1078.0,0.739583,DottedEighth,G#4
6485,Right,0,80,110,1078.0,0.739583,DottedEighth,G#5
6486,Right,0,76,110,1078.25,0.739583,DottedEighth,E5
6487,Left,1,64,110,1078.25,0.739583,DottedEighth,E4
6488,Right,0,73,110,1078.5,0.739583,DottedEighth,C#5
6489,Left,1,61,110,1078.5,0.739583,DottedEighth,C#4
6491,Left,1,56,110,1078.75,0.739583,DottedEighth,G#3
6490,Right,0,68,110,1078.75,0.739583,DottedEighth,G#4
6492,Left,1,64,110,1079.0,0.739583,DottedEighth,E4
6493,Right,0,76,110,1079.0,0.739583,DottedEighth,E5
6494,Right,0,73,110,1079.25,0.739583,DottedEighth,C#5
6495,Left,1,61,110,1079.25,0.739583,DottedEighth,C#4
6497,Right,0,68,110,1079.5,0.739583,DottedEighth,G#4
6496,Left,1,56,110,1079.5,0.739583,DottedEighth,G#3
6499,Left,1,52,110,1079.75,0.739583,DottedEighth,E3
6498,Right,0,64,110,1079.75,0.739583,DottedEighth,E4
6501,Right,0,73,110,1080.0,0.739583,DottedEighth,C#5
6500,Left,1,61,110,1080.0,0.739583,DottedEighth,C#4
6502,Left,1,56,110,1080.25,0.739583,DottedEighth,G#3
6503,Right,0,68,110,1080.25,0.739583,DottedEighth,G#4
6504,Left,1,52,110,1080.5,0.739583,DottedEighth,E3
6505,Right,0,64,110,1080.5,0.739583,DottedEighth,E4
6507,Left,1,49,110,1080.75,0.739583,DottedEighth,C#3
6506,Right,0,61,110,1080.75,0.739583,DottedEighth,C#4
6508,Right,0,68,110,1081.0,0.739583,DottedEighth,G#4
6509,Left,1,56,110,1081.0,0.739583,DottedEighth,G#3
6510,Left,1,52,110,1081.25,0.739583,DottedEighth,E3
6511,Right,0,64,110,1081.25,0.739583,DottedEighth,E4
6513,Right,0,61,110,1081.5,0.739583,DottedEighth,C#4
6512,Left,1,49,110,1081.5,0.739583,DottedEighth,C#3
6514,Right,0,56,110,1081.75,0.739583,DottedEighth,G#3
6515,Left,1,44,110,1081.75,0.739583,DottedEighth,G#2
6517,Right,0,64,110,1082.0,0.739583,DottedEighth,E4
6516,Left,1,52,110,1082.0,0.739583,DottedEighth,E3
6518,Left,1,49,110,1082.25,0.739583,DottedEighth,C#3
6519,Right,0,61,110,1082.25,0.739583,DottedEighth,C#4
6520,Left,1,44,110,1082.5,0.739583,DottedEighth,G#2
6521,Right,0,56,110,1082.5,0.739583,DottedEighth,G#3
6522,Left,1,40,110,1082.75,0.739583,DottedEighth,E2
6523,Right,0,52,110,1082.75,0.739583,DottedEighth,E3
6525,Right,0,61,110,1083.0,0.739583,DottedEighth,C#4
6524,Left,1,49,110,1083.0,0.739583,DottedEighth,C#3
6526,Right,0,52,110,1083.5,0.489583,Eighth,E3
6527,Left,1,40,110,1083.5,0.489583,Eighth,E2
6528,Left,1,44,110,1083.75,0.239583,Sixteenth,G#2
6529,Right,0,56,110,1083.75,0.239583,Sixteenth,G#3
6531,Right,0,49,120,1084.0,1.989583,Half,C#3
6530,Left,1,37,120,1084.0,1.989583,Half,C#2
6532,Left,1,40,120,1086.0,1.989583,Half,G#2_E2_C#3_C#2
6534,Right,0,85,120,1086.0,1.989583,Half,G#5_E5_C#6_C#5
6540,Left,1,44,120,1088.0,3.989583,Whole,G#2_E2_C#3_C#2
6542,Right,0,61,120,1088.0,3.989583,Whole,G#4_E4_C#5_C#4
