,hand,channel,note,velocity,start_beat,duration,note_value,chord
3,Left,1,38,80,0.0,0.239583,Sixteenth,D2
0,Right,0,62,80,0.0,0.989583,Quarter,F3_D4_A3
4,Left,1,50,80,0.25,0.239583,Sixteenth,D3
5,Left,1,45,80,0.5,0.239583,Sixteenth,A2
6,Left,1,50,80,0.75,0.239583,Sixteenth,D3
7,Right,0,57,80,1.0,0.989583,Quarter,E4_A4_A3
9,Left,1,37,80,1.0,0.239583,Sixteenth,C#2
11,Left,1,49,80,1.25,0.239583,Sixteenth,C#3
12,Left,1,45,80,1.5,0.239583,Sixteenth,A2
13,Left,1,49,80,1.75,0.239583,Sixteenth,C#3
16,Left,1,38,80,2.0,0.239583,Sixteenth,D2
14,Right,0,67,80,2.0,0.989583,Quarter,G4_D4_A3
18,Left,1,50,80,2.25,0.239583,Sixteenth,D3
20,Left,1,45,80,2.5,0.239583,Sixteenth,A2
19,Right,0,65,80,2.5,0.364583,DottedSixteenth,F4
21,Left,1,50,80,2.75,0.239583,Sixteenth,D3
22,Right,0,64,80,2.875,0.114583,ThirtySecond,E4
23,Left,1,38,80,3.0,0.239583,Sixteenth,D2
24,Right,0,62,80,3.0,0.489583,Eighth,D4
25,Left,1,50,80,3.25,0.239583,Sixteenth,D3
29,Left,1,41,80,3.5,0.239583,Sixteenth,F2
26,Right,0,69,80,3.5,0.489583,Eighth,D5_D4_A4
30,Left,1,53,80,3.75,0.239583,Sixteenth,F3
31,Right,0,74,80,4.0,0.489583,Eighth,G4_E4_D5
33,Left,1,46,80,4.0,0.239583,Sixteenth,A#2
35,Left,1,58,80,4.25,0.239583,Sixteenth,A#3
36,Left,1,45,80,4.5,0.239583,Sixteenth,A2
37,Right,0,74,80,4.5,0.489583,Eighth,F4_D5_A4
40,Left,1,57,80,4.75,0.239583,Sixteenth,A3
41,Left,1,43,80,5.0,0.239583,Sixteenth,G2
42,Right,0,74,80,5.0,0.489583,Eighth,E4_D5_A#4
45,Left,1,55,80,5.25,0.239583,Sixteenth,G3
49,Left,1,44,80,5.5,0.239583,Sixteenth,G#2
46,Right,0,65,80,5.5,0.489583,Eighth,F4_D5_B4
50,Left,1,56,80,5.75,0.239583,Sixteenth,G#3
52,Left,1,45,80,6.0,0.239583,Sixteenth,A2
51,Right,0,65,80,6.0,1.489583,Quarter,F4_D5_A4
55,Left,1,57,80,6.25,0.239583,Sixteenth,A3
56,Left,1,56,80,6.5,0.239583,Sixteenth,G#3
57,Left,1,57,80,6.75,0.239583,Sixteenth,A3
60,Left,1,45,80,7.0,0.239583,Sixteenth,A2
58,Right,0,64,80,7.0,0.489583,Eighth,E4_C#5
61,Left,1,57,80,7.25,0.239583,Sixteenth,A3
62,Left,1,43,80,7.5,0.239583,Sixteenth,G2
63,Left,1,55,80,7.75,0.239583,Sixteenth,G3
66,Left,1,41,80,8.0,0.239583,Sixteenth,F2
64,Right,0,60,80,8.0,0.989583,Quarter,F4_C4_A3
68,Left,1,53,80,8.25,0.239583,Sixteenth,F3
69,Left,1,48,80,8.5,0.239583,Sixteenth,C3
70,Left,1,53,80,8.75,0.239583,Sixteenth,F3
73,Left,1,40,80,9.0,0.239583,Sixteenth,E2
71,Right,0,67,80,9.0,0.989583,Quarter,G4_C5_C4
75,Left,1,52,80,9.25,0.239583,Sixteenth,E3
76,Left,1,48,80,9.5,0.239583,Sixteenth,C3
77,Left,1,52,80,9.75,0.239583,Sixteenth,E3
78,Left,1,41,80,10.0,0.239583,Sixteenth,F2
79,Right,0,70,80,10.0,1.489583,DottedQuarter,F4_C4_A#4
82,Left,1,53,80,10.25,0.239583,Sixteenth,F3
83,Right,0,69,80,10.5,0.364583,DottedSixteenth,A4
84,Left,1,48,80,10.5,0.239583,Sixteenth,C3
85,Left,1,53,80,10.75,0.239583,Sixteenth,F3
86,Right,0,68,80,10.875,0.114583,ThirtySecond,G#4
88,Right,0,69,80,11.0,0.489583,Eighth,A4
87,Left,1,41,80,11.0,0.239583,Sixteenth,F2
89,Left,1,53,80,11.25,0.239583,Sixteenth,F3
92,Left,1,38,80,11.5,0.239583,Sixteenth,D2
90,Right,0,71,80,11.5,0.489583,Eighth,F4_B4_A4
94,Left,1,50,80,11.75,0.239583,Sixteenth,D3
96,Right,0,72,80,12.0,0.989583,Quarter,E4_C5_A4
95,Left,1,40,80,12.0,0.239583,Sixteenth,E2
99,Left,1,52,80,12.25,0.239583,Sixteenth,E3
100,Left,1,45,80,12.5,0.239583,Sixteenth,A2
101,Left,1,52,80,12.75,0.239583,Sixteenth,E3
103,Right,0,68,80,13.0,0.989583,Quarter,G#4_E4_D4
102,Left,1,40,80,13.0,0.239583,Sixteenth,E2
106,Left,1,52,80,13.25,0.239583,Sixteenth,E3
107,Left,1,47,80,13.5,0.239583,Sixteenth,B2
108,Left,1,52,80,13.75,0.239583,Sixteenth,E3
109,Left,1,33,80,14.0,0.239583,Sixteenth,A1
110,Right,0,69,80,14.0,0.489583,Eighth,E4_C4_A4
113,Left,1,45,80,14.25,0.239583,Sixteenth,A2
114,Left,1,34,80,14.5,0.239583,Sixteenth,A#1
115,Right,0,58,80,14.5,0.489583,Eighth,A#3
116,Left,1,46,80,14.75,0.239583,Sixteenth,A#2
117,Left,1,33,80,15.0,0.239583,Sixteenth,A1
118,Right,0,57,80,15.0,0.489583,Eighth,A3
119,Left,1,45,80,15.25,0.239583,Sixteenth,A2
120,Right,0,61,80,15.5,0.489583,Eighth,C#4
121,Left,1,37,80,15.5,0.239583,Sixteenth,C#2
122,Left,1,49,80,15.75,0.239583,Sixteenth,C#3
124,Left,1,38,80,16.0,0.239583,Sixteenth,D2
123,Right,0,62,80,16.0,0.989583,Quarter,F3_D4_A3
127,Left,1,50,80,16.25,0.239583,Sixteenth,D3
128,Left,1,45,80,16.5,0.239583,Sixteenth,A2
129,Left,1,50,80,16.75,0.239583,Sixteenth,D3
131,Left,1,37,80,17.0,0.239583,Sixteenth,C#2
130,Right,0,64,80,17.0,0.989583,Quarter,E4_A4_A3
134,Left,1,49,80,17.25,0.239583,Sixteenth,C#3
135,Left,1,45,80,17.5,0.239583,Sixteenth,A2
136,Left,1,49,80,17.75,0.239583,Sixteenth,C#3
139,Left,1,38,80,18.0,0.239583,Sixteenth,D2
137,Right,0,57,80,18.0,0.989583,Quarter,G4_D4_A3
141,Left,1,50,80,18.25,0.239583,Sixteenth,D3
142,Right,0,65,80,18.5,0.364583,DottedSixteenth,F4
143,Left,1,45,80,18.5,0.239583,Sixteenth,A2
144,Left,1,50,80,18.75,0.239583,Sixteenth,D3
145,Right,0,64,80,18.875,0.114583,ThirtySecond,E4
146,Right,0,62,80,19.0,0.489583,Eighth,D4
147,Left,1,38,80,19.0,0.239583,Sixteenth,D2
148,Left,1,50,80,19.25,0.239583,Sixteenth,D3
149,Left,1,41,80,19.5,0.239583,Sixteenth,F2
150,Right,0,62,80,19.5,0.489583,Eighth,D5_D4_A4
153,Left,1,53,80,19.75,0.239583,Sixteenth,F3
154,Right,0,74,80,20.0,0.489583,Eighth,G4_E4_D5
157,Left,1,46,80,20.0,0.239583,Sixteenth,A#2
158,Left,1,58,82,20.25,0.239583,Sixteenth,A#3
159,Right,0,74,85,20.5,0.489583,Eighth,F4_D5_A4
160,Left,1,45,85,20.5,0.239583,Sixteenth,A2
163,Left,1,57,88,20.75,0.239583,Sixteenth,A3
164,Right,0,74,91,21.0,0.489583,Eighth,E4_D5_A#4
166,Left,1,43,91,21.0,0.239583,Sixteenth,G2
168,Left,1,55,94,21.25,0.239583,Sixteenth,G3
170,Right,0,74,97,21.5,0.489583,Eighth,F4_D5_B4
169,Left,1,44,97,21.5,0.239583,Sixteenth,G#2
173,Left,1,56,99,21.75,0.239583,Sixteenth,G#3
174,Left,1,45,80,22.0,0.239583,Sixteenth,A2
175,Right,0,74,80,22.0,1.489583,Quarter,F4_D5_A4
178,Left,1,57,80,22.25,0.239583,Sixteenth,A3
179,Left,1,56,80,22.5,0.239583,Sixteenth,G#3
180,Left,1,57,80,22.75,0.239583,Sixteenth,A3
181,Left,1,45,80,23.0,0.239583,Sixteenth,A2
182,Right,0,73,80,23.0,0.489583,Eighth,E4_C#5
184,Left,1,57,80,23.25,0.239583,Sixteenth,A3
185,Left,1,43,80,23.5,0.239583,Sixteenth,G2
186,Left,1,55,80,23.75,0.239583,Sixteenth,G3
187,Left,1,41,80,24.0,0.239583,Sixteenth,F2
188,Right,0,65,80,24.0,0.989583,Quarter,F4_C4_A3
191,Left,1,53,80,24.25,0.239583,Sixteenth,F3
192,Left,1,48,80,24.5,0.239583,Sixteenth,C3
193,Left,1,53,80,24.75,0.239583,Sixteenth,F3
196,Left,1,40,80,25.0,0.239583,Sixteenth,E2
194,Right,0,72,80,25.0,0.989583,Quarter,G4_C5_C4
198,Left,1,52,80,25.25,0.239583,Sixteenth,E3
199,Left,1,48,80,25.5,0.239583,Sixteenth,C3
200,Left,1,52,80,25.75,0.239583,Sixteenth,E3
201,Right,0,60,80,26.0,1.489583,DottedQuarter,F4_C4_A#4
202,Left,1,41,80,26.0,0.239583,Sixteenth,F2
205,Left,1,53,80,26.25,0.239583,Sixteenth,F3
206,Right,0,69,80,26.5,0.364583,DottedSixteenth,A4
207,Left,1,48,80,26.5,0.239583,Sixteenth,C3
208,Left,1,53,80,26.75,0.239583,Sixteenth,F3
209,Right,0,68,80,26.875,0.114583,ThirtySecond,G#4
211,Right,0,69,80,27.0,0.489583,Eighth,A4
210,Left,1,41,80,27.0,0.239583,Sixteenth,F2
212,Left,1,53,80,27.25,0.239583,Sixteenth,F3
214,Right,0,71,80,27.5,0.489583,Eighth,F4_B4_A4
213,Left,1,38,80,27.5,0.239583,Sixteenth,D2
217,Left,1,50,80,27.75,0.239583,Sixteenth,D3
219,Right,0,64,80,28.0,0.989583,Quarter,E4_C5_A4
218,Left,1,40,80,28.0,0.239583,Sixteenth,E2
222,Left,1,52,80,28.25,0.239583,Sixteenth,E3
223,Left,1,45,80,28.5,0.239583,Sixteenth,A2
224,Left,1,52,80,28.75,0.239583,Sixteenth,E3
226,Left,1,40,80,29.0,0.239583,Sixteenth,E2
225,Right,0,64,80,29.0,0.989583,Quarter,G#4_E4_D4
229,Left,1,52,80,29.25,0.239583,Sixteenth,E3
230,Left,1,47,80,29.5,0.239583,Sixteenth,B2
231,Left,1,52,80,29.75,0.239583,Sixteenth,E3
232,Right,0,64,80,30.0,0.489583,Eighth,E4_C4_A4
235,Left,1,33,80,30.0,0.239583,Sixteenth,A1
236,Left,1,45,80,30.25,0.239583,Sixteenth,A2
238,Left,1,34,80,30.5,0.239583,Sixteenth,A#1
237,Right,0,58,80,30.5,0.489583,Eighth,A#3
239,Left,1,46,80,30.75,0.239583,Sixteenth,A#2
240,Right,0,57,80,31.0,0.489583,Eighth,A3
241,Left,1,33,80,31.0,0.239583,Sixteenth,A1
242,Left,1,45,80,31.25,0.239583,Sixteenth,A2
244,Right,0,56,80,31.5,0.489583,Eighth,G#3
243,Left,1,32,80,31.5,0.239583,Sixteenth,G#1
245,Left,1,44,80,31.75,0.239583,Sixteenth,G#2
246,Left,1,33,80,32.0,0.239583,Sixteenth,A2_A1
248,Right,0,76,80,32.0,0.989583,Quarter,E5_C#5
250,Left,1,57,80,32.25,0.239583,Sixteenth,A3
251,Left,1,57,80,32.5,0.239583,Sixteenth,A3
252,Left,1,57,80,32.75,0.239583,Sixteenth,A3
253,Left,1,57,80,33.0,0.239583,Sixteenth,A3
254,Right,0,79,100,33.0,0.864583,DottedEighth,G5_E5
256,Left,1,57,80,33.25,0.239583,Sixteenth,A3
257,Left,1,57,80,33.5,0.239583,Sixteenth,A3
258,Left,1,57,80,33.75,0.239583,Sixteenth,A3
259,Right,0,74,80,33.875,0.114583,ThirtySecond,F5_D5
263,Left,1,57,80,34.0,0.239583,Sixteenth,A3
261,Right,0,77,80,34.0,0.489583,Eighth,F5_D5
264,Left,1,57,80,34.25,0.239583,Sixteenth,A3
267,Left,1,57,80,34.5,0.989583,Sixteenth,G4_A3
265,Right,0,73,80,34.5,0.989583,Quarter,E5_C#5_A#4
270,Left,1,57,80,34.75,0.239583,Sixteenth,A3
271,Left,1,57,80,35.0,0.239583,Sixteenth,A3
272,Left,1,57,80,35.25,0.239583,Sixteenth,A3
274,Left,1,57,80,35.5,0.489583,Sixteenth,G#4_A3
273,Right,0,77,80,35.5,0.489583,DottedSixteenth,F5_B4
277,Left,1,57,80,35.75,0.239583,Sixteenth,A3
278,Right,0,74,80,35.875,0.114583,ThirtySecond,D5
279,Left,1,57,80,36.0,0.239583,Sixteenth,A3
280,Right,0,69,80,36.0,1.239583,TiedQuarter-Sixteenth,C#5_A4
282,Left,1,57,80,36.25,0.239583,Sixteenth,A3
283,Left,1,57,80,36.5,0.239583,Sixteenth,A3
284,Left,1,57,80,36.75,0.239583,Sixteenth,A3
285,Left,1,57,80,37.0,0.239583,Sixteenth,A3
288,Left,1,57,80,37.25,0.239583,Sixteenth,A3
286,Right,0,76,80,37.25,0.239583,Sixteenth,E5_C#5
289,Right,0,79,80,37.5,0.364583,DottedSixteenth,G5_E5
291,Left,1,57,80,37.5,0.239583,Sixteenth,A3
292,Left,1,57,80,37.75,0.239583,Sixteenth,A3
293,Right,0,77,80,37.875,0.114583,ThirtySecond,F5_D5
295,Left,1,57,80,38.0,0.239583,Sixteenth,A3
296,Right,0,77,80,38.0,0.489583,Eighth,F5_D5
298,Left,1,57,80,38.25,0.239583,Sixteenth,A3
299,Right,0,76,100,38.5,0.989583,Quarter,E5_C#5_A#4
302,Left,1,57,80,38.5,0.989583,Sixteenth,G4_A3
304,Left,1,57,80,38.75,0.239583,Sixteenth,A3
305,Left,1,57,80,39.0,0.239583,Sixteenth,A3
306,Left,1,57,80,39.25,0.239583,Sixteenth,A3
309,Right,0,77,80,39.5,0.489583,DottedSixteenth,F5_B4
307,Left,1,68,80,39.5,0.489583,Eighth,G#4_A3
311,Left,1,57,80,39.75,0.239583,Sixteenth,A3
312,Right,0,74,80,39.875,0.114583,ThirtySecond,D5
313,Left,1,57,80,40.0,0.489583,Sixteenth,E4_A3
315,Right,0,69,80,40.0,0.489583,Eighth,C#5_A4
317,Left,1,57,80,40.25,0.239583,Sixteenth,A3
318,Left,1,57,80,40.5,0.989583,Sixteenth,G4_A3
320,Right,0,76,100,40.5,0.989583,Quarter,E5_C#5_A#4
323,Left,1,57,80,40.75,0.239583,Sixteenth,A3
324,Left,1,57,80,41.0,0.239583,Sixteenth,A3
325,Left,1,57,80,41.25,0.239583,Sixteenth,A3
326,Left,1,68,80,41.5,0.489583,Eighth,G#4_A3
328,Right,0,71,80,41.5,0.489583,Eighth,F5_B4
330,Left,1,57,80,41.75,0.239583,Sixteenth,A3
331,Right,0,74,80,41.875,0.114583,ThirtySecond,D5
333,Left,1,64,80,42.0,0.239583,Sixteenth,E4_A3
332,Right,0,73,80,42.0,0.364583,DottedSixteenth,C#5_A4
336,Left,1,57,80,42.25,0.239583,Sixteenth,A3
337,Right,0,76,80,42.375,0.114583,ThirtySecond,E5
340,Left,1,57,80,42.5,0.489583,Sixteenth,G#4_A3
338,Right,0,71,80,42.5,0.489583,Eighth,F5_B4
342,Left,1,57,80,42.75,0.239583,Sixteenth,A3
343,Right,0,74,80,42.875,0.114583,ThirtySecond,D5
346,Left,1,64,80,43.0,0.239583,Sixteenth,E4_A3
344,Right,0,69,80,43.0,0.364583,Sixteenth,C#5_A4
348,Left,1,57,80,43.25,0.239583,Sixteenth,A3
349,Right,0,76,80,43.375,0.114583,ThirtySecond,E5
352,Right,0,77,80,43.5,0.489583,DottedSixteenth,F5_B4
350,Left,1,68,80,43.5,0.489583,Eighth,G#4_A3
354,Left,1,57,80,43.75,0.239583,Sixteenth,A3
355,Right,0,74,80,43.875,0.114583,ThirtySecond,D5
357,Right,0,69,80,44.0,0.989583,Eighth,C#5_A4
356,Left,1,64,80,44.0,0.489583,Eighth,E4_A3
360,Right,0,76,80,45.0,0.989583,Quarter,E5
361,Right,0,79,80,46.0,1.489583,DottedQuarter,G5
362,Right,0,61,80,47.5,0.489583,Eighth,C#5_C#4
364,Right,0,62,80,48.0,0.989583,Quarter,D5_D4
366,Left,1,38,80,48.0,0.239583,Sixteenth,D2
367,Left,1,50,80,48.25,0.239583,Sixteenth,D3
368,Left,1,45,80,48.5,0.239583,Sixteenth,A2
369,Left,1,50,80,48.75,0.239583,Sixteenth,D3
370,Left,1,37,80,49.0,0.239583,Sixteenth,C#2
371,Right,0,81,80,49.0,0.989583,Quarter,A5_A4
373,Left,1,49,80,49.25,0.239583,Sixteenth,C#3
374,Left,1,45,80,49.5,0.239583,Sixteenth,A2
375,Left,1,49,80,49.75,0.239583,Sixteenth,C#3
378,Left,1,38,80,50.0,0.239583,Sixteenth,D2
376,Right,0,79,80,50.0,0.489583,Eighth,G5_G4
379,Left,1,50,80,50.25,0.239583,Sixteenth,D3
380,Right,0,77,80,50.5,0.364583,DottedSixteenth,F5_F4
382,Left,1,45,80,50.5,0.239583,Sixteenth,A2
383,Left,1,50,80,50.75,0.239583,Sixteenth,D3
384,Right,0,76,80,50.875,0.114583,ThirtySecond,E5_E4
388,Left,1,38,80,51.0,0.239583,Sixteenth,D2
386,Right,0,62,80,51.0,0.489583,Eighth,D5_D4
389,Left,1,50,80,51.25,0.239583,Sixteenth,D3
391,Right,0,67,100,51.5,0.489583,Eighth,G5_G4
390,Left,1,35,80,51.5,0.239583,Sixteenth,B1
393,Left,1,47,80,51.75,0.239583,Sixteenth,B2
394,Left,1,36,80,52.0,0.239583,Sixteenth,C2
395,Right,0,77,80,52.0,0.489583,Eighth,F5_F4
397,Left,1,48,80,52.25,0.239583,Sixteenth,C3
399,Right,0,76,80,52.5,0.364583,DottedSixteenth,E5_E4
398,Left,1,43,80,52.5,0.239583,Sixteenth,G2
401,Left,1,48,80,52.75,0.239583,Sixteenth,C3
402,Right,0,62,80,52.875,0.114583,ThirtySecond,D5_D4
405,Left,1,36,80,53.0,0.239583,Sixteenth,C2
404,Right,0,72,80,53.0,0.489583,Eighth,C5_C4
407,Left,1,48,80,53.25,0.239583,Sixteenth,C3
410,Left,1,37,80,53.5,0.239583,Sixteenth,C#2
408,Right,0,81,100,53.5,0.489583,Eighth,A5_A4
411,Left,1,49,80,53.75,0.239583,Sixteenth,C#3
414,Left,1,38,80,54.0,0.239583,Sixteenth,D2
412,Right,0,79,80,54.0,0.489583,Eighth,G5_G4
415,Left,1,50,80,54.25,0.239583,Sixteenth,D3
418,Left,1,45,80,54.5,0.239583,Sixteenth,A2
416,Right,0,77,80,54.5,0.364583,DottedSixteenth,F5_F4
419,Left,1,50,80,54.75,0.239583,Sixteenth,D3
420,Right,0,76,80,54.875,0.114583,ThirtySecond,E5_E4
423,Right,0,74,83,55.0,0.489583,Eighth,D5_D4
422,Left,1,38,83,55.0,0.239583,Sixteenth,D2
425,Left,1,50,91,55.25,0.239583,Sixteenth,D3
426,Right,0,74,98,55.5,0.364583,DottedSixteenth,D6_D5
428,Left,1,42,98,55.5,0.239583,Sixteenth,F#2
429,Left,1,54,105,55.75,0.239583,Sixteenth,F#3
430,Right,0,72,109,55.875,0.114583,ThirtySecond,C6_C5
432,Right,0,72,110,56.0,0.239583,Sixteenth,C6_C5
434,Left,1,43,110,56.0,0.239583,Sixteenth,G2
435,Right,0,82,110,56.25,0.239583,Sixteenth,A#5_A#4
437,Left,1,55,110,56.25,0.239583,Sixteenth,G3
440,Left,1,46,110,56.5,0.239583,Sixteenth,A#2
438,Right,0,81,110,56.5,0.239583,Sixteenth,A5_A4
441,Left,1,58,110,56.75,0.239583,Sixteenth,A#3
442,Right,0,80,110,56.75,0.239583,Sixteenth,G#5_G#4
444,Left,1,45,110,57.0,0.239583,Sixteenth,A2
445,Right,0,80,110,57.0,0.239583,Sixteenth,G#5_G#4
449,Left,1,57,110,57.25,0.239583,Sixteenth,A3
447,Right,0,69,110,57.25,0.489583,Eighth,A5_A4
450,Left,1,33,110,57.5,0.239583,Sixteenth,A1
452,Left,1,45,95,57.75,0.239583,Sixteenth,A2
451,Right,0,61,95,57.75,0.239583,Sixteenth,G3_C#4
454,Right,0,64,80,58.0,0.989583,Quarter,G3_E4_C#4
457,Left,1,38,80,58.0,0.239583,Sixteenth,D2
458,Left,1,50,80,58.25,0.239583,Sixteenth,D3
459,Left,1,45,80,58.5,0.239583,Sixteenth,A2
460,Left,1,50,80,58.75,0.239583,Sixteenth,D3
462,Right,0,57,80,59.0,0.489583,Eighth,F3_D4_A3
461,Left,1,38,80,59.0,0.239583,Sixteenth,D2
465,Left,1,57,80,59.25,0.239583,Sixteenth,A3
466,Left,1,53,80,59.5,0.239583,Sixteenth,F3
467,Left,1,50,80,59.75,0.239583,Sixteenth,D3
470,Right,0,73,80,60.0,0.989583,Quarter,E5_C#5
468,Left,1,45,80,60.0,0.239583,Sixteenth,A2_A1
472,Left,1,57,80,60.25,0.239583,Sixteenth,A3
473,Left,1,57,80,60.5,0.239583,Sixteenth,A3
474,Left,1,57,80,60.75,0.239583,Sixteenth,A3
475,Left,1,57,80,61.0,0.239583,Sixteenth,A3
476,Right,0,76,100,61.0,0.864583,DottedEighth,G5_E5
478,Left,1,57,80,61.25,0.239583,Sixteenth,A3
479,Left,1,57,80,61.5,0.239583,Sixteenth,A3
480,Left,1,57,80,61.75,0.239583,Sixteenth,A3
481,Right,0,77,80,61.875,0.114583,ThirtySecond,F5_D5
485,Left,1,57,80,62.0,0.239583,Sixteenth,A3
483,Right,0,77,80,62.0,0.489583,Eighth,F5_D5
486,Left,1,57,80,62.25,0.239583,Sixteenth,A3
488,Right,0,73,80,62.5,0.989583,Quarter,E5_C#5_A#4
487,Left,1,67,80,62.5,0.989583,Quarter,G4_A3
492,Left,1,57,80,62.75,0.239583,Sixteenth,A3
493,Left,1,57,80,63.0,0.239583,Sixteenth,A3
494,Left,1,57,80,63.25,0.239583,Sixteenth,A3
495,Left,1,68,80,63.5,0.489583,Eighth,G#4_A3
497,Right,0,77,80,63.5,0.489583,DottedSixteenth,F5_B4
499,Left,1,57,80,63.75,0.239583,Sixteenth,A3
500,Right,0,74,80,63.875,0.114583,ThirtySecond,D5
502,Left,1,57,80,64.0,0.239583,Sixteenth,A3
501,Right,0,73,80,64.0,1.239583,TiedQuarter-Sixteenth,C#5_A4
504,Left,1,57,80,64.25,0.239583,Sixteenth,A3
505,Left,1,57,80,64.5,0.239583,Sixteenth,A3
506,Left,1,57,80,64.75,0.239583,Sixteenth,A3
507,Left,1,57,80,65.0,0.239583,Sixteenth,A3
508,Right,0,76,80,65.25,0.239583,Sixteenth,E5_C#5
510,Left,1,57,80,65.25,0.239583,Sixteenth,A3
512,Left,1,57,80,65.5,0.239583,Sixteenth,A3
511,Right,0,79,80,65.5,0.364583,DottedSixteenth,G5_E5
514,Left,1,57,80,65.75,0.239583,Sixteenth,A3
515,Right,0,77,80,65.875,0.114583,ThirtySecond,F5_D5
517,Left,1,57,80,66.0,0.239583,Sixteenth,A3
518,Right,0,77,80,66.0,0.489583,Eighth,F5_D5
520,Left,1,57,80,66.25,0.239583,Sixteenth,A3
521,Right,0,76,100,66.5,0.989583,Quarter,E5_C#5_A#4
524,Left,1,57,80,66.5,0.989583,Sixteenth,G4_A3
526,Left,1,57,80,66.75,0.239583,Sixteenth,A3
527,Left,1,57,80,67.0,0.239583,Sixteenth,A3
528,Left,1,57,80,67.25,0.239583,Sixteenth,A3
531,Right,0,71,80,67.5,0.489583,Eighth,F5_B4
529,Left,1,57,80,67.5,0.489583,Sixteenth,G#4_A3
533,Left,1,57,80,67.75,0.239583,Sixteenth,A3
534,Right,0,74,80,67.875,0.114583,ThirtySecond,D5
536,Right,0,73,80,68.0,0.489583,Eighth,C#5_A4
535,Left,1,57,80,68.0,0.489583,Sixteenth,E4_A3
539,Left,1,57,80,68.25,0.239583,Sixteenth,A3
541,Right,0,73,100,68.5,0.989583,Quarter,E5_C#5_A#4
540,Left,1,57,80,68.5,0.989583,Sixteenth,G4_A3
545,Left,1,57,80,68.75,0.239583,Sixteenth,A3
546,Left,1,57,80,69.0,0.239583,Sixteenth,A3
547,Left,1,57,80,69.25,0.239583,Sixteenth,A3
548,Right,0,71,80,69.5,0.489583,Eighth,F5_B4
550,Left,1,68,80,69.5,0.489583,Eighth,G#4_A3
552,Left,1,57,80,69.75,0.239583,Sixteenth,A3
553,Right,0,74,80,69.875,0.114583,ThirtySecond,D5
555,Right,0,73,80,70.0,0.364583,DottedSixteenth,C#5_A4
554,Left,1,64,80,70.0,0.239583,Sixteenth,E4_A3
558,Left,1,57,80,70.25,0.239583,Sixteenth,A3
559,Right,0,76,80,70.375,0.114583,ThirtySecond,E5
562,Right,0,71,80,70.5,0.489583,Eighth,F5_B4
560,Left,1,57,80,70.5,0.489583,Sixteenth,G#4_A3
564,Left,1,57,80,70.75,0.239583,Sixteenth,A3
565,Right,0,74,80,70.875,0.114583,ThirtySecond,D5
566,Right,0,73,80,71.0,0.364583,DottedSixteenth,C#5_A4
568,Left,1,64,80,71.0,0.239583,Sixteenth,E4_A3
570,Left,1,57,80,71.25,0.239583,Sixteenth,A3
571,Right,0,76,80,71.375,0.114583,ThirtySecond,E5
572,Right,0,71,80,71.5,0.489583,Eighth,F5_B4
574,Left,1,57,80,71.5,0.489583,Sixteenth,G#4_A3
576,Left,1,57,80,71.75,0.239583,Sixteenth,A3
577,Right,0,74,80,71.875,0.114583,ThirtySecond,D5
578,Left,1,64,80,72.0,0.489583,Eighth,E4_A3
579,Right,0,69,80,72.0,0.989583,Eighth,C#5_A4
582,Right,0,76,80,73.0,0.989583,Quarter,E5
583,Right,0,79,80,74.0,1.489583,DottedQuarter,G5
584,Right,0,73,80,75.5,0.489583,Eighth,C#5_C#4
588,Left,1,38,80,76.0,0.239583,Sixteenth,D2
586,Right,0,74,80,76.0,0.989583,Quarter,D5_D4
589,Left,1,50,80,76.25,0.239583,Sixteenth,D3
590,Left,1,45,80,76.5,0.239583,Sixteenth,A2
591,Left,1,50,80,76.75,0.239583,Sixteenth,D3
594,Left,1,37,80,77.0,0.239583,Sixteenth,C#2
592,Right,0,69,80,77.0,0.989583,Quarter,A5_A4
595,Left,1,49,80,77.25,0.239583,Sixteenth,C#3
596,Left,1,45,80,77.5,0.239583,Sixteenth,A2
597,Left,1,49,80,77.75,0.239583,Sixteenth,C#3
598,Left,1,38,80,78.0,0.239583,Sixteenth,D2
599,Right,0,79,80,78.0,0.489583,Eighth,G5_G4
601,Left,1,50,80,78.25,0.239583,Sixteenth,D3
602,Right,0,65,80,78.5,0.364583,DottedSixteenth,F5_F4
604,Left,1,45,80,78.5,0.239583,Sixteenth,A2
605,Left,1,50,80,78.75,0.239583,Sixteenth,D3
606,Right,0,64,80,78.875,0.114583,ThirtySecond,E5_E4
610,Left,1,38,80,79.0,0.239583,Sixteenth,D2
608,Right,0,62,80,79.0,0.489583,Eighth,D5_D4
611,Left,1,50,80,79.25,0.239583,Sixteenth,D3
612,Right,0,79,80,79.5,0.489583,Eighth,G5_G4
614,Left,1,35,80,79.5,0.239583,Sixteenth,B1
615,Left,1,47,80,79.75,0.239583,Sixteenth,B2
616,Right,0,65,80,80.0,0.489583,Eighth,F5_F4
618,Left,1,36,80,80.0,0.239583,Sixteenth,C2
619,Left,1,48,80,80.25,0.239583,Sixteenth,C3
621,Right,0,76,80,80.5,0.364583,DottedSixteenth,E5_E4
620,Left,1,43,80,80.5,0.239583,Sixteenth,G2
623,Left,1,48,80,80.75,0.239583,Sixteenth,C3
624,Right,0,62,80,80.875,0.114583,ThirtySecond,D5_D4
626,Right,0,72,80,81.0,0.489583,Eighth,C5_C4
627,Left,1,36,80,81.0,0.239583,Sixteenth,C2
629,Left,1,48,80,81.25,0.239583,Sixteenth,C3
630,Left,1,37,80,81.5,0.239583,Sixteenth,C#2
631,Right,0,69,80,81.5,0.489583,Eighth,A5_A4
633,Left,1,49,80,81.75,0.239583,Sixteenth,C#3
634,Left,1,38,80,82.0,0.239583,Sixteenth,D2
635,Right,0,67,80,82.0,0.489583,Eighth,G5_G4
637,Left,1,50,80,82.25,0.239583,Sixteenth,D3
638,Right,0,65,80,82.5,0.364583,DottedSixteenth,F5_F4
640,Left,1,45,80,82.5,0.239583,Sixteenth,A2
641,Left,1,50,80,82.75,0.239583,Sixteenth,D3
642,Right,0,64,80,82.875,0.114583,ThirtySecond,E5_E4
645,Left,1,38,83,83.0,0.239583,Sixteenth,D2
644,Right,0,62,83,83.0,0.489583,Eighth,D5_D4
647,Left,1,50,91,83.25,0.239583,Sixteenth,D3
648,Right,0,74,98,83.5,0.364583,DottedSixteenth,D6_D5
650,Left,1,42,98,83.5,0.239583,Sixteenth,F#2
651,Left,1,54,105,83.75,0.239583,Sixteenth,F#3
652,Right,0,84,109,83.875,0.114583,ThirtySecond,C6_C5
656,Left,1,43,110,84.0,0.239583,Sixteenth,G2
654,Right,0,84,110,84.0,0.239583,Sixteenth,C6_C5
659,Left,1,55,110,84.25,0.239583,Sixteenth,G3
657,Right,0,70,110,84.25,0.239583,Sixteenth,A#5_A#4
660,Right,0,81,110,84.5,0.239583,Sixteenth,A5_A4
662,Left,1,46,110,84.5,0.239583,Sixteenth,A#2
665,Left,1,58,110,84.75,0.239583,Sixteenth,A#3
663,Right,0,80,110,84.75,0.239583,Sixteenth,G#5_G#4
668,Left,1,45,110,85.0,0.239583,Sixteenth,A2
666,Right,0,80,110,85.0,0.239583,Sixteenth,G#5_G#4
669,Right,0,81,110,85.25,0.489583,Eighth,A5_A4
671,Left,1,57,110,85.25,0.239583,Sixteenth,A3
672,Left,1,33,110,85.5,0.239583,Sixteenth,A1
673,Left,1,45,95,85.75,0.239583,Sixteenth,A2
674,Right,0,55,95,85.75,0.239583,Sixteenth,G3_C#4
676,Right,0,61,80,86.0,0.989583,Quarter,G3_E4_C#4
678,Left,1,38,80,86.0,0.239583,Sixteenth,D2
680,Left,1,50,80,86.25,0.239583,Sixteenth,D3
681,Left,1,45,80,86.5,0.239583,Sixteenth,A2
682,Left,1,50,80,86.75,0.239583,Sixteenth,D3
683,Left,1,38,80,87.0,0.489583,Eighth,D2
684,Right,0,62,80,87.0,0.489583,Eighth,F3_D4_A3
687,Right,0,57,80,87.75,0.239583,Sixteenth,A3
688,Left,1,50,80,88.0,0.364583,DottedSixteenth,D3_A3
690,Right,0,66,80,88.0,0.364583,DottedSixteenth,F#4_D4
692,Left,1,50,80,88.375,0.114583,ThirtySecond,D3_A3
694,Right,0,66,80,88.375,0.114583,ThirtySecond,F#4_D4
696,Left,1,50,80,88.5,0.489583,Eighth,D3_A3
697,Right,0,66,80,88.5,0.239583,Sixteenth,F#4_D4
700,Right,0,80,80,88.90625,0.072917,TripletThirtySecond,G#5
701,Right,0,81,80,89.0,0.15625,TripletSixteenth,A5
702,Right,0,78,80,89.166667,0.15625,TripletSixteenth,F#5
703,Right,0,74,80,89.333333,0.15625,TripletSixteenth,D5
704,Right,0,69,80,89.5,0.15625,TripletSixteenth,A4
705,Right,0,67,80,89.666667,0.15625,TripletSixteenth,G4
706,Right,0,66,80,89.833333,0.15625,TripletSixteenth,F#4
710,Left,1,43,80,90.0,0.364583,DottedSixteenth,G3_G2
707,Right,0,59,80,90.0,0.364583,DottedSixteenth,E4_D4_B3
713,Left,1,55,80,90.375,0.114583,ThirtySecond,G3_G2
712,Right,0,59,80,90.375,0.114583,ThirtySecond,E4_D4_B3
717,Left,1,55,80,90.5,0.489583,Eighth,G3_G2
719,Right,0,62,80,90.5,0.239583,Sixteenth,E4_D4_B3
722,Right,0,82,80,90.875,0.114583,ThirtySecond,A#5
723,Right,0,83,80,91.0,0.15625,TripletSixteenth,B5
724,Right,0,79,80,91.166667,0.15625,TripletSixteenth,G5
725,Right,0,76,80,91.333333,0.15625,TripletSixteenth,E5
726,Right,0,71,80,91.5,0.15625,TripletSixteenth,B4
727,Right,0,67,80,91.666667,0.15625,TripletSixteenth,G4
728,Right,0,64,80,91.833333,0.15625,TripletSixteenth,E4
731,Right,0,61,80,92.0,0.364583,DottedSixteenth,C#4
729,Left,1,55,80,92.0,0.364583,DottedSixteenth,G3_E3_A2
733,Left,1,52,80,92.375,0.114583,ThirtySecond,G3_E3_A2
735,Right,0,61,80,92.375,0.114583,ThirtySecond,C#4
737,Right,0,61,80,92.5,0.239583,Sixteenth,C#4
738,Left,1,45,80,92.5,0.489583,Eighth,G3_E3_A2
741,Right,0,78,80,92.875,0.114583,ThirtySecond,F#5
742,Right,0,79,80,93.0,0.15625,TripletSixteenth,G5
743,Right,0,76,80,93.166667,0.15625,TripletSixteenth,E5
744,Right,0,73,80,93.333333,0.15625,TripletSixteenth,C#5
745,Right,0,67,80,93.5,0.15625,TripletSixteenth,G4
746,Right,0,64,80,93.666667,0.15625,TripletSixteenth,E4
747,Right,0,61,80,93.833333,0.15625,TripletSixteenth,C#4
748,Left,1,50,80,94.0,0.489583,Eighth,D3_D2
750,Right,0,62,80,94.0,0.15625,TripletSixteenth,D4
751,Right,0,57,80,94.166667,0.15625,TripletSixteenth,A3
752,Right,0,66,80,94.333333,0.15625,TripletSixteenth,F#4
754,Left,1,33,80,94.5,0.489583,Eighth,A2_A1
753,Right,0,61,80,94.5,0.15625,TripletSixteenth,E4_C#4
757,Right,0,57,80,94.666667,0.15625,TripletSixteenth,A3
758,Right,0,67,80,94.833333,0.15625,TripletSixteenth,G4
759,Right,0,66,80,95.0,0.15625,TripletSixteenth,F#4_D4
760,Left,1,50,80,95.0,0.489583,Eighth,D3_D2
763,Right,0,74,80,95.166667,0.15625,TripletSixteenth,D5
764,Right,0,73,80,95.333333,0.15625,TripletSixteenth,C#5
765,Right,0,71,80,95.5,0.15625,TripletSixteenth,B4
766,Right,0,69,80,95.666667,0.15625,TripletSixteenth,A4
767,Right,0,67,80,95.833333,0.15625,TripletSixteenth,G4
769,Left,1,57,80,96.0,0.364583,DottedSixteenth,D3_A3
768,Right,0,66,80,96.0,0.364583,DottedSixteenth,F#4_D4
773,Left,1,57,80,96.375,0.114583,ThirtySecond,D3_A3
772,Right,0,62,80,96.375,0.114583,ThirtySecond,F#4_D4
776,Left,1,57,80,96.5,0.489583,Eighth,D3_A3
778,Right,0,62,80,96.5,0.239583,Sixteenth,F#4_D4
780,Right,0,80,80,96.90625,0.072917,TripletThirtySecond,G#5
781,Right,0,81,80,97.0,0.15625,TripletSixteenth,A5
782,Right,0,78,80,97.166667,0.15625,TripletSixteenth,F#5
783,Right,0,74,80,97.333333,0.15625,TripletSixteenth,D5
784,Right,0,69,80,97.5,0.15625,TripletSixteenth,A4
785,Right,0,67,80,97.666667,0.15625,TripletSixteenth,G4
786,Right,0,66,80,97.833333,0.15625,TripletSixteenth,F#4
787,Right,0,59,110,98.0,0.364583,DottedSixteenth,E4_D4_B3
788,Left,1,44,110,98.0,0.364583,DottedSixteenth,G#2_E3
794,Right,0,59,110,98.375,0.114583,ThirtySecond,E4_D4_B3
792,Left,1,44,110,98.375,0.114583,ThirtySecond,G#2_E3
800,Left,1,52,110,98.5,0.489583,Eighth,G#2_E3
797,Right,0,64,110,98.5,0.239583,Sixteenth,E4_D4_B3
802,Right,0,85,100,98.875,0.114583,ThirtySecond,C#6
803,Right,0,86,98,99.0,0.15625,TripletSixteenth,D6
804,Right,0,83,94,99.166667,0.15625,TripletSixteenth,B5
805,Right,0,80,91,99.333333,0.15625,TripletSixteenth,G#5
806,Right,0,76,88,99.5,0.15625,TripletSixteenth,E5
807,Right,0,74,84,99.666667,0.15625,TripletSixteenth,D5
808,Right,0,71,81,99.833333,0.15625,TripletSixteenth,B4
810,Left,1,64,80,100.0,0.489583,Eighth,E4_A3
809,Right,0,73,80,100.0,0.15625,TripletSixteenth,C#5
812,Right,0,81,80,100.166667,0.15625,TripletSixteenth,A5
813,Right,0,80,80,100.333333,0.15625,TripletSixteenth,G#5
814,Right,0,81,80,100.5,0.15625,TripletSixteenth,A5
815,Right,0,76,80,100.666667,0.15625,TripletSixteenth,E5
816,Right,0,73,80,100.833333,0.15625,TripletSixteenth,C#5
817,Left,1,62,80,101.0,0.489583,Eighth,E3_D4
819,Right,0,71,80,101.0,0.15625,TripletSixteenth,B4
820,Right,0,76,80,101.166667,0.15625,TripletSixteenth,E5
821,Right,0,75,80,101.333333,0.15625,TripletSixteenth,D#5
822,Right,0,76,80,101.5,0.15625,TripletSixteenth,E5
823,Right,0,74,80,101.666667,0.15625,TripletSixteenth,D5
824,Right,0,71,80,101.833333,0.15625,TripletSixteenth,B4
827,Right,0,69,80,102.0,0.15625,TripletSixteenth,A4
825,Left,1,57,80,102.0,0.489583,Eighth,C#4_A3
828,Right,0,64,80,102.166667,0.15625,TripletSixteenth,E4
829,Right,0,73,80,102.333333,0.15625,TripletSixteenth,C#5
830,Left,1,57,80,102.5,0.489583,Eighth,C#4_A3
832,Right,0,69,80,102.5,0.15625,TripletSixteenth,A4
833,Right,0,64,80,102.666667,0.15625,TripletSixteenth,E4
834,Right,0,73,80,102.833333,0.15625,TripletSixteenth,C#5
835,Right,0,69,80,103.0,0.15625,TripletSixteenth,A4
836,Left,1,61,80,103.0,0.489583,Eighth,C#4_A3
838,Right,0,76,80,103.166667,0.15625,TripletSixteenth,E5
839,Right,0,73,80,103.333333,0.15625,TripletSixteenth,C#5
840,Right,0,69,80,103.5,0.15625,TripletSixteenth,A4
841,Right,0,71,80,103.666667,0.15625,TripletSixteenth,B4
842,Right,0,67,80,103.833333,0.15625,TripletSixteenth,G4
843,Right,0,66,80,104.0,0.364583,DottedSixteenth,F#4_D4
845,Left,1,57,80,104.0,0.364583,DottedSixteenth,D3_A3
847,Right,0,66,80,104.375,0.114583,ThirtySecond,F#4_D4
849,Left,1,50,80,104.375,0.114583,ThirtySecond,D3_A3
853,Left,1,50,80,104.5,0.489583,Eighth,D3_A3
851,Right,0,66,80,104.5,0.239583,Sixteenth,F#4_D4
855,Right,0,80,80,104.90625,0.072917,TripletThirtySecond,G#5
856,Right,0,81,80,105.0,0.15625,TripletSixteenth,A5
857,Right,0,78,80,105.166667,0.15625,TripletSixteenth,F#5
858,Right,0,74,80,105.333333,0.15625,TripletSixteenth,D5
859,Right,0,69,80,105.5,0.15625,TripletSixteenth,A4
860,Right,0,67,80,105.666667,0.15625,TripletSixteenth,G4
861,Right,0,66,80,105.833333,0.15625,TripletSixteenth,F#4
864,Right,0,62,80,106.0,0.364583,DottedSixteenth,E4_D4_B3
862,Left,1,55,80,106.0,0.364583,DottedSixteenth,G3_G2
870,Left,1,55,80,106.375,0.114583,ThirtySecond,G3_G2
867,Right,0,64,80,106.375,0.114583,ThirtySecond,E4_D4_B3
874,Left,1,55,80,106.5,0.489583,Eighth,G3_G2
872,Right,0,59,80,106.5,0.239583,Sixteenth,E4_D4_B3
877,Right,0,82,80,106.875,0.114583,ThirtySecond,A#5
878,Right,0,83,80,107.0,0.15625,TripletSixteenth,B5
879,Right,0,79,80,107.166667,0.15625,TripletSixteenth,G5
880,Right,0,76,80,107.333333,0.15625,TripletSixteenth,E5
881,Right,0,71,80,107.5,0.15625,TripletSixteenth,B4
882,Right,0,67,80,107.666667,0.15625,TripletSixteenth,G4
883,Right,0,64,80,107.833333,0.15625,TripletSixteenth,E4
885,Left,1,55,80,108.0,0.364583,DottedSixteenth,G3_E3_A2
884,Right,0,61,80,108.0,0.364583,DottedSixteenth,C#4
888,Left,1,45,80,108.375,0.114583,ThirtySecond,G3_E3_A2
891,Right,0,61,80,108.375,0.114583,ThirtySecond,C#4
892,Left,1,55,80,108.5,0.489583,Eighth,G3_E3_A2
895,Right,0,61,80,108.5,0.239583,Sixteenth,C#4
896,Right,0,78,80,108.875,0.114583,ThirtySecond,F#5
897,Right,0,79,80,109.0,0.15625,TripletSixteenth,G5
898,Right,0,76,80,109.166667,0.15625,TripletSixteenth,E5
899,Right,0,73,80,109.333333,0.15625,TripletSixteenth,C#5
900,Right,0,67,80,109.5,0.15625,TripletSixteenth,G4
901,Right,0,64,80,109.666667,0.15625,TripletSixteenth,E4
902,Right,0,61,80,109.833333,0.15625,TripletSixteenth,C#4
905,Right,0,62,80,110.0,0.15625,TripletSixteenth,D4
903,Left,1,38,80,110.0,0.489583,Eighth,D3_D2
906,Right,0,57,80,110.166667,0.15625,TripletSixteenth,A3
907,Right,0,66,80,110.333333,0.15625,TripletSixteenth,F#4
908,Right,0,64,80,110.5,0.15625,TripletSixteenth,E4_C#4
910,Left,1,45,80,110.5,0.489583,Eighth,A2_A1
912,Right,0,57,80,110.666667,0.15625,TripletSixteenth,A3
913,Right,0,67,80,110.833333,0.15625,TripletSixteenth,G4
915,Left,1,38,80,111.0,0.489583,Eighth,D3_D2
914,Right,0,62,80,111.0,0.15625,TripletSixteenth,F#4_D4
918,Right,0,74,80,111.166667,0.15625,TripletSixteenth,D5
919,Right,0,73,80,111.333333,0.15625,TripletSixteenth,C#5
920,Right,0,71,80,111.5,0.15625,TripletSixteenth,B4
921,Right,0,69,80,111.666667,0.15625,TripletSixteenth,A4
922,Right,0,67,80,111.833333,0.15625,TripletSixteenth,G4
924,Left,1,50,80,112.0,0.364583,DottedSixteenth,D3_A3
923,Right,0,62,80,112.0,0.364583,DottedSixteenth,F#4_D4
927,Right,0,66,80,112.375,0.114583,ThirtySecond,F#4_D4
929,Left,1,50,80,112.375,0.114583,ThirtySecond,D3_A3
931,Left,1,50,80,112.5,0.489583,Eighth,D3_A3
933,Right,0,62,80,112.5,0.239583,Sixteenth,F#4_D4
935,Right,0,80,80,112.90625,0.072917,TripletThirtySecond,G#5
936,Right,0,81,80,113.0,0.15625,TripletSixteenth,A5
937,Right,0,78,80,113.166667,0.15625,TripletSixteenth,F#5
938,Right,0,74,80,113.333333,0.15625,TripletSixteenth,D5
939,Right,0,69,80,113.5,0.15625,TripletSixteenth,A4
940,Right,0,67,80,113.666667,0.15625,TripletSixteenth,G4
941,Right,0,66,80,113.833333,0.15625,TripletSixteenth,F#4
944,Left,1,52,110,114.0,0.364583,DottedSixteenth,G#2_E3
942,Right,0,62,110,114.0,0.364583,DottedSixteenth,E4_D4_B3
948,Left,1,44,110,114.375,0.114583,ThirtySecond,G#2_E3
947,Right,0,59,110,114.375,0.114583,ThirtySecond,E4_D4_B3
954,Right,0,64,110,114.5,0.239583,Sixteenth,E4_D4_B3
952,Left,1,44,110,114.5,0.489583,Eighth,G#2_E3
957,Right,0,85,80,114.875,0.114583,ThirtySecond,C#6
958,Right,0,86,80,115.0,0.15625,TripletSixteenth,D6
959,Right,0,83,80,115.166667,0.15625,TripletSixteenth,B5
960,Right,0,80,80,115.333333,0.15625,TripletSixteenth,G#5
961,Right,0,76,80,115.5,0.15625,TripletSixteenth,E5
962,Right,0,74,80,115.666667,0.15625,TripletSixteenth,D5
963,Right,0,71,80,115.833333,0.15625,TripletSixteenth,B4
966,Right,0,73,80,116.0,0.15625,TripletSixteenth,C#5
964,Left,1,57,80,116.0,0.489583,Eighth,E4_A3
967,Right,0,81,80,116.166667,0.15625,TripletSixteenth,A5
968,Right,0,80,80,116.333333,0.15625,TripletSixteenth,G#5
969,Right,0,81,80,116.5,0.15625,TripletSixteenth,A5
970,Right,0,76,80,116.666667,0.15625,TripletSixteenth,E5
971,Right,0,73,80,116.833333,0.15625,TripletSixteenth,C#5
973,Left,1,62,80,117.0,0.489583,Eighth,E3_D4
972,Right,0,71,80,117.0,0.15625,TripletSixteenth,B4
975,Right,0,76,80,117.166667,0.15625,TripletSixteenth,E5
976,Right,0,75,80,117.333333,0.15625,TripletSixteenth,D#5
977,Right,0,76,80,117.5,0.15625,TripletSixteenth,E5
978,Right,0,74,80,117.666667,0.15625,TripletSixteenth,D5
979,Right,0,71,80,117.833333,0.15625,TripletSixteenth,B4
982,Right,0,69,80,118.0,0.15625,TripletSixteenth,A4
980,Left,1,61,80,118.0,0.489583,Eighth,C#4_A3
983,Right,0,64,80,118.166667,0.15625,TripletSixteenth,E4
984,Right,0,73,80,118.333333,0.15625,TripletSixteenth,C#5
985,Left,1,57,80,118.5,0.489583,Eighth,C#4_A3
987,Right,0,69,80,118.5,0.15625,TripletSixteenth,A4
988,Right,0,64,80,118.666667,0.15625,TripletSixteenth,E4
989,Right,0,73,80,118.833333,0.15625,TripletSixteenth,C#5
990,Left,1,61,80,119.0,0.15625,TripletSixteenth,C#4_A3
992,Right,0,69,80,119.0,0.489583,Eighth,A4
993,Left,1,64,80,119.166667,0.15625,TripletSixteenth,E4
994,Left,1,61,80,119.333333,0.15625,TripletSixteenth,C#4
995,Left,1,57,80,119.5,0.15625,TripletSixteenth,A3
996,Left,1,59,80,119.666667,0.15625,TripletSixteenth,B3
997,Left,1,55,80,119.833333,0.15625,TripletSixteenth,G3
998,Right,0,57,110,120.0,0.364583,DottedSixteenth,D4_C4_A3
1000,Left,1,42,110,120.0,0.364583,DottedSixteenth,F#3_F#2_D3
1006,Left,1,54,110,120.375,0.114583,ThirtySecond,F#3_F#2_D3
1004,Right,0,62,110,120.375,0.114583,ThirtySecond,D4_C4_A3
1012,Left,1,42,110,120.5,0.489583,Eighth,F#3_F#2_D3
1010,Right,0,57,110,120.5,0.239583,Sixteenth,D4_C4_A3
1016,Right,0,83,80,120.875,0.114583,ThirtySecond,B5
1017,Right,0,84,80,121.0,0.15625,TripletSixteenth,C6
1018,Right,0,81,80,121.166667,0.15625,TripletSixteenth,A5
1019,Right,0,78,80,121.333333,0.15625,TripletSixteenth,F#5
1020,Right,0,74,80,121.5,0.15625,TripletSixteenth,D5
1021,Right,0,72,80,121.666667,0.15625,TripletSixteenth,C5
1022,Right,0,69,80,121.833333,0.15625,TripletSixteenth,A4
1023,Left,1,55,110,122.0,0.364583,DottedSixteenth,G3_G2_D3
1026,Right,0,62,110,122.0,0.364583,DottedSixteenth,D4_B3
1030,Left,1,43,110,122.375,0.114583,ThirtySecond,G3_G2_D3
1028,Right,0,59,110,122.375,0.114583,ThirtySecond,D4_B3
1033,Left,1,50,110,122.5,0.489583,Eighth,G3_G2_D3
1036,Right,0,59,110,122.5,0.239583,Sixteenth,D4_B3
1038,Right,0,85,80,122.875,0.114583,ThirtySecond,C#6
1039,Right,0,86,80,123.0,0.15625,TripletSixteenth,D6
1040,Right,0,83,80,123.166667,0.15625,TripletSixteenth,B5
1041,Right,0,79,80,123.333333,0.15625,TripletSixteenth,G5
1042,Left,1,66,80,123.5,0.489583,Eighth,F#4
1043,Right,0,86,80,123.5,0.15625,TripletSixteenth,D6
1044,Right,0,84,80,123.666667,0.15625,TripletSixteenth,C6
1045,Right,0,81,80,123.833333,0.15625,TripletSixteenth,A5
1047,Left,1,67,80,124.0,0.489583,Eighth,G4
1046,Right,0,84,80,124.0,0.15625,TripletSixteenth,C6
1048,Right,0,83,80,124.166667,0.15625,TripletSixteenth,B5
1049,Right,0,79,80,124.333333,0.15625,TripletSixteenth,G5
1050,Right,0,83,80,124.5,0.15625,TripletSixteenth,B5
1051,Left,1,63,80,124.5,0.489583,Eighth,D#4
1052,Right,0,81,80,124.666667,0.15625,TripletSixteenth,A5
1053,Right,0,78,80,124.833333,0.15625,TripletSixteenth,F#5
1054,Right,0,81,80,125.0,0.15625,TripletSixteenth,A5
1055,Left,1,64,80,125.0,0.489583,Eighth,E4
1056,Right,0,79,80,125.166667,0.15625,TripletSixteenth,G5
1057,Right,0,76,80,125.333333,0.15625,TripletSixteenth,E5
1058,Left,1,66,80,125.5,0.489583,Eighth,F#4
1059,Right,0,79,80,125.5,0.15625,TripletSixteenth,G5
1060,Right,0,78,80,125.666667,0.15625,TripletSixteenth,F#5
1061,Right,0,74,80,125.833333,0.15625,TripletSixteenth,D5
1063,Right,0,78,80,126.0,0.15625,TripletSixteenth,F#5
1062,Left,1,67,80,126.0,0.489583,Eighth,G4
1064,Right,0,76,80,126.166667,0.15625,TripletSixteenth,E5
1065,Right,0,71,80,126.333333,0.15625,TripletSixteenth,B4
1066,Left,1,68,80,126.5,0.489583,Eighth,G#4
1067,Right,0,76,80,126.5,0.15625,TripletSixteenth,E5
1068,Right,0,74,80,126.666667,0.15625,TripletSixteenth,D5
1069,Right,0,71,80,126.833333,0.15625,TripletSixteenth,B4
1071,Right,0,74,80,127.0,0.15625,TripletSixteenth,D5
1070,Left,1,69,80,127.0,0.489583,Eighth,A4
1072,Right,0,73,80,127.166667,0.15625,TripletSixteenth,C#5
1073,Right,0,71,80,127.333333,0.15625,TripletSixteenth,B4
1074,Right,0,69,80,127.5,0.15625,TripletSixteenth,A4
1075,Right,0,71,80,127.666667,0.15625,TripletSixteenth,B4
1076,Right,0,67,80,127.833333,0.15625,TripletSixteenth,G4
1079,Right,0,66,80,128.0,0.364583,DottedSixteenth,F#4_D4
1077,Left,1,50,80,128.0,0.364583,DottedSixteenth,D3_A3
1082,Right,0,62,80,128.375,0.114583,ThirtySecond,F#4_D4
1081,Left,1,50,80,128.375,0.114583,ThirtySecond,D3_A3
1086,Right,0,62,80,128.5,0.239583,Sixteenth,F#4_D4
1085,Left,1,57,80,128.5,0.489583,Eighth,D3_A3
1089,Right,0,80,80,128.875,0.114583,ThirtySecond,G#5
1090,Right,0,81,80,129.0,0.15625,TripletSixteenth,A5
1091,Right,0,78,80,129.166667,0.15625,TripletSixteenth,F#5
1092,Right,0,74,80,129.333333,0.15625,TripletSixteenth,D5
1093,Right,0,69,80,129.5,0.15625,TripletSixteenth,A4
1094,Right,0,67,80,129.666667,0.15625,TripletSixteenth,G4
1095,Right,0,66,80,129.833333,0.15625,TripletSixteenth,F#4
1096,Left,1,55,80,130.0,0.364583,DottedSixteenth,G3_G2
1098,Right,0,59,80,130.0,0.364583,DottedSixteenth,E4_D4_B3
1103,Left,1,55,80,130.375,0.114583,ThirtySecond,G3_G2
1101,Right,0,59,80,130.375,0.114583,ThirtySecond,E4_D4_B3
1106,Left,1,55,80,130.5,0.489583,Eighth,G3_G2
1107,Right,0,59,80,130.5,0.239583,Sixteenth,E4_D4_B3
1111,Right,0,85,80,130.875,0.114583,ThirtySecond,C#6
1112,Right,0,86,80,131.0,0.15625,TripletSixteenth,D6
1113,Right,0,83,80,131.166667,0.15625,TripletSixteenth,B5
1114,Right,0,81,80,131.333333,0.15625,TripletSixteenth,A5
1115,Right,0,79,80,131.5,0.15625,TripletSixteenth,G5
1116,Right,0,78,80,131.666667,0.15625,TripletSixteenth,F#5
1117,Right,0,76,80,131.833333,0.15625,TripletSixteenth,E5
1120,Right,0,74,80,132.0,0.15625,TripletSixteenth,D5
1118,Left,1,66,80,132.0,0.489583,Eighth,F#4_D4_A3
1122,Right,0,81,80,132.166667,0.15625,TripletSixteenth,A5
1123,Right,0,80,80,132.333333,0.15625,TripletSixteenth,G#5
1124,Right,0,81,80,132.5,0.15625,TripletSixteenth,A5
1125,Right,0,78,80,132.666667,0.15625,TripletSixteenth,F#5
1126,Right,0,74,80,132.833333,0.15625,TripletSixteenth,D5
1130,Right,0,73,80,133.0,0.15625,TripletSixteenth,C#5
1127,Left,1,57,80,133.0,0.489583,Eighth,G4_E4_A3
1131,Right,0,79,80,133.166667,0.15625,TripletSixteenth,G5
1132,Right,0,78,80,133.333333,0.15625,TripletSixteenth,F#5
1133,Right,0,79,80,133.5,0.15625,TripletSixteenth,G5
1134,Right,0,76,80,133.666667,0.15625,TripletSixteenth,E5
1135,Right,0,73,80,133.833333,0.15625,TripletSixteenth,C#5
1137,Right,0,74,80,134.0,0.15625,TripletSixteenth,D5
1136,Left,1,66,80,134.0,0.489583,Eighth,F#4_D4
1139,Right,0,69,80,134.166667,0.15625,TripletSixteenth,A4
1140,Right,0,78,80,134.333333,0.15625,TripletSixteenth,F#5
1141,Right,0,74,80,134.5,0.15625,TripletSixteenth,D5
1142,Left,1,66,80,134.5,0.489583,Eighth,F#4_D4
1144,Right,0,69,80,134.666667,0.15625,TripletSixteenth,A4
1145,Right,0,78,80,134.833333,0.15625,TripletSixteenth,F#5
1146,Left,1,62,80,135.0,0.15625,TripletSixteenth,F#4_D4
1148,Right,0,74,80,135.0,0.489583,Eighth,D5
1149,Left,1,50,80,135.166667,0.15625,TripletSixteenth,D3
1150,Left,1,48,80,135.333333,0.15625,TripletSixteenth,C3
1151,Left,1,47,80,135.5,0.15625,TripletSixteenth,B2
1152,Left,1,45,80,135.666667,0.15625,TripletSixteenth,A2
1153,Left,1,43,80,135.833333,0.15625,TripletSixteenth,G2
1154,Right,0,57,110,136.0,0.364583,DottedSixteenth,D4_C4_A3
1156,Left,1,54,110,136.0,0.364583,DottedSixteenth,F#3_F#2_D3
1160,Left,1,54,110,136.375,0.114583,ThirtySecond,F#3_F#2_D3
1163,Right,0,62,110,136.375,0.114583,ThirtySecond,D4_C4_A3
1168,Right,0,62,110,136.5,0.239583,Sixteenth,D4_C4_A3
1166,Left,1,50,110,136.5,0.489583,Eighth,F#3_F#2_D3
1172,Right,0,83,80,136.875,0.114583,ThirtySecond,B5
1173,Right,0,84,80,137.0,0.15625,TripletSixteenth,C6
1174,Right,0,81,80,137.166667,0.15625,TripletSixteenth,A5
1175,Right,0,78,80,137.333333,0.15625,TripletSixteenth,F#5
1176,Right,0,74,80,137.5,0.15625,TripletSixteenth,D5
1177,Right,0,72,80,137.666667,0.15625,TripletSixteenth,C5
1178,Right,0,69,80,137.833333,0.15625,TripletSixteenth,A4
1181,Left,1,55,110,138.0,0.364583,DottedSixteenth,G3_G2_D3
1179,Right,0,59,110,138.0,0.364583,DottedSixteenth,D4_B3
1184,Left,1,43,110,138.375,0.114583,ThirtySecond,G3_G2_D3
1187,Right,0,62,110,138.375,0.114583,ThirtySecond,D4_B3
1190,Right,0,62,110,138.5,0.239583,Sixteenth,D4_B3
1189,Left,1,43,110,138.5,0.489583,Eighth,G3_G2_D3
1194,Right,0,85,80,138.875,0.114583,ThirtySecond,C#6
1195,Right,0,86,80,139.0,0.15625,TripletSixteenth,D6
1196,Right,0,83,80,139.166667,0.15625,TripletSixteenth,B5
1197,Right,0,79,80,139.333333,0.15625,TripletSixteenth,G5
1199,Right,0,86,80,139.5,0.15625,TripletSixteenth,D6
1198,Left,1,66,80,139.5,0.489583,Eighth,F#4
1200,Right,0,84,80,139.666667,0.15625,TripletSixteenth,C6
1201,Right,0,81,80,139.833333,0.15625,TripletSixteenth,A5
1203,Right,0,84,80,140.0,0.15625,TripletSixteenth,C6
1202,Left,1,67,80,140.0,0.489583,Eighth,G4
1204,Right,0,83,80,140.166667,0.15625,TripletSixteenth,B5
1205,Right,0,79,80,140.333333,0.15625,TripletSixteenth,G5
1207,Left,1,63,80,140.5,0.489583,Eighth,D#4
1206,Right,0,83,80,140.5,0.15625,TripletSixteenth,B5
1208,Right,0,81,80,140.666667,0.15625,TripletSixteenth,A5
1209,Right,0,78,80,140.833333,0.15625,TripletSixteenth,F#5
1210,Left,1,64,80,141.0,0.489583,Eighth,E4
1211,Right,0,81,80,141.0,0.15625,TripletSixteenth,A5
1212,Right,0,79,80,141.166667,0.15625,TripletSixteenth,G5
1213,Right,0,76,80,141.333333,0.15625,TripletSixteenth,E5
1215,Right,0,79,80,141.5,0.15625,TripletSixteenth,G5
1214,Left,1,66,80,141.5,0.489583,Eighth,F#4
1216,Right,0,78,80,141.666667,0.15625,TripletSixteenth,F#5
1217,Right,0,74,80,141.833333,0.15625,TripletSixteenth,D5
1218,Left,1,67,80,142.0,0.489583,Eighth,G4
1219,Right,0,78,80,142.0,0.15625,TripletSixteenth,F#5
1220,Right,0,76,80,142.166667,0.15625,TripletSixteenth,E5
1221,Right,0,71,80,142.333333,0.15625,TripletSixteenth,B4
1223,Left,1,68,80,142.5,0.489583,Eighth,G#4
1222,Right,0,76,80,142.5,0.15625,TripletSixteenth,E5
1224,Right,0,74,80,142.666667,0.15625,TripletSixteenth,D5
1225,Right,0,71,80,142.833333,0.15625,TripletSixteenth,B4
1226,Left,1,69,80,143.0,0.489583,Eighth,A4
1227,Right,0,74,80,143.0,0.15625,TripletSixteenth,D5
1228,Right,0,73,80,143.166667,0.15625,TripletSixteenth,C#5
1229,Right,0,71,80,143.333333,0.15625,TripletSixteenth,B4
1230,Right,0,69,80,143.5,0.15625,TripletSixteenth,A4
1231,Right,0,71,80,143.666667,0.15625,TripletSixteenth,B4
1232,Right,0,67,80,143.833333,0.15625,TripletSixteenth,G4
1233,Right,0,66,80,144.0,0.364583,DottedSixteenth,F#4_D4
1235,Left,1,50,80,144.0,0.364583,DottedSixteenth,D3_A3
1237,Right,0,62,80,144.375,0.114583,ThirtySecond,F#4_D4
1239,Left,1,50,80,144.375,0.114583,ThirtySecond,D3_A3
1243,Left,1,50,80,144.5,0.489583,Eighth,D3_A3
1241,Right,0,66,80,144.5,0.239583,Sixteenth,F#4_D4
1245,Right,0,80,80,144.875,0.114583,ThirtySecond,G#5
1246,Right,0,81,80,145.0,0.15625,TripletSixteenth,A5
1247,Right,0,78,80,145.166667,0.15625,TripletSixteenth,F#5
1248,Right,0,74,80,145.333333,0.15625,TripletSixteenth,D5
1249,Right,0,69,80,145.5,0.15625,TripletSixteenth,A4
1250,Right,0,67,80,145.666667,0.15625,TripletSixteenth,G4
1251,Right,0,66,80,145.833333,0.15625,TripletSixteenth,F#4
1252,Right,0,62,80,146.0,0.364583,DottedSixteenth,E4_D4_B3
1254,Left,1,55,80,146.0,0.364583,DottedSixteenth,G3_G2
1258,Left,1,55,80,146.375,0.114583,ThirtySecond,G3_G2
1257,Right,0,59,80,146.375,0.114583,ThirtySecond,E4_D4_B3
1263,Right,0,64,80,146.5,0.239583,Sixteenth,E4_D4_B3
1262,Left,1,55,80,146.5,0.489583,Eighth,G3_G2
1267,Right,0,85,80,146.875,0.114583,ThirtySecond,C#6
1268,Right,0,86,80,147.0,0.15625,TripletSixteenth,D6
1269,Right,0,83,80,147.166667,0.15625,TripletSixteenth,B5
1270,Right,0,81,80,147.333333,0.15625,TripletSixteenth,A5
1271,Right,0,79,80,147.5,0.15625,TripletSixteenth,G5
1272,Right,0,78,80,147.666667,0.15625,TripletSixteenth,F#5
1273,Right,0,76,80,147.833333,0.15625,TripletSixteenth,E5
1274,Left,1,66,80,148.0,0.489583,Eighth,F#4_D4_A3
1277,Right,0,74,80,148.0,0.15625,TripletSixteenth,D5
1278,Right,0,81,80,148.166667,0.15625,TripletSixteenth,A5
1279,Right,0,80,80,148.333333,0.15625,TripletSixteenth,G#5
1280,Right,0,81,80,148.5,0.15625,TripletSixteenth,A5
1281,Right,0,78,80,148.666667,0.15625,TripletSixteenth,F#5
1282,Right,0,74,80,148.833333,0.15625,TripletSixteenth,D5
1283,Left,1,67,80,149.0,0.489583,Eighth,G4_E4_A3
1286,Right,0,73,80,149.0,0.15625,TripletSixteenth,C#5
1287,Right,0,79,80,149.166667,0.15625,TripletSixteenth,G5
1288,Right,0,78,80,149.333333,0.15625,TripletSixteenth,F#5
1289,Right,0,79,80,149.5,0.15625,TripletSixteenth,G5
1290,Right,0,76,80,149.666667,0.15625,TripletSixteenth,E5
1291,Right,0,73,80,149.833333,0.15625,TripletSixteenth,C#5
1292,Right,0,74,80,150.0,0.15625,TripletSixteenth,D5
1293,Left,1,62,80,150.0,0.489583,Eighth,F#4_D4
1295,Right,0,69,80,150.166667,0.15625,TripletSixteenth,A4
1296,Right,0,78,80,150.333333,0.15625,TripletSixteenth,F#5
1299,Right,0,74,80,150.5,0.15625,TripletSixteenth,D5
1297,Left,1,66,80,150.5,0.489583,Eighth,F#4_D4
1300,Right,0,69,80,150.666667,0.15625,TripletSixteenth,A4
1301,Right,0,78,80,150.833333,0.15625,TripletSixteenth,F#5
1303,Right,0,74,80,151.0,0.489583,Eighth,D5
1302,Left,1,62,80,151.0,0.489583,Eighth,F#4_D4
1305,Right,0,57,80,151.5,0.489583,Eighth,A3
1306,Right,0,62,80,152.0,0.989583,Quarter,F3_D4_A3
1309,Left,1,38,80,152.0,0.239583,Sixteenth,D2
1310,Left,1,50,80,152.25,0.239583,Sixteenth,D3
1311,Left,1,45,80,152.5,0.239583,Sixteenth,A2
1312,Left,1,50,80,152.75,0.239583,Sixteenth,D3
1313,Right,0,57,80,153.0,0.989583,Quarter,E4_A4_A3
1316,Left,1,37,80,153.0,0.239583,Sixteenth,C#2
1317,Left,1,49,80,153.25,0.239583,Sixteenth,C#3
1318,Left,1,45,80,153.5,0.239583,Sixteenth,A2
1319,Left,1,49,80,153.75,0.239583,Sixteenth,C#3
1321,Right,0,62,80,154.0,0.989583,Quarter,G4_D4_A3
1320,Left,1,38,80,154.0,0.239583,Sixteenth,D2
1324,Left,1,50,80,154.25,0.239583,Sixteenth,D3
1325,Right,0,65,80,154.5,0.364583,DottedSixteenth,F4
1326,Left,1,45,80,154.5,0.239583,Sixteenth,A2
1327,Left,1,50,80,154.75,0.239583,Sixteenth,D3
1328,Right,0,64,80,154.875,0.114583,ThirtySecond,E4
1330,Right,0,62,80,155.0,0.489583,Eighth,D4
1329,Left,1,38,80,155.0,0.239583,Sixteenth,D2
1331,Left,1,50,80,155.25,0.239583,Sixteenth,D3
1333,Left,1,41,80,155.5,0.239583,Sixteenth,F2
1332,Right,0,62,80,155.5,0.489583,Eighth,D5_D4_A4
1336,Left,1,53,80,155.75,0.239583,Sixteenth,F3
1340,Left,1,46,80,156.0,0.239583,Sixteenth,A#2
1337,Right,0,74,80,156.0,0.489583,Eighth,G4_E4_D5
1341,Left,1,58,84,156.25,0.239583,Sixteenth,A#3
1342,Left,1,45,88,156.5,0.239583,Sixteenth,A2
1343,Right,0,74,88,156.5,0.489583,Eighth,F4_D5_A4
1346,Left,1,57,92,156.75,0.239583,Sixteenth,A3
1347,Left,1,43,97,157.0,0.239583,Sixteenth,G2
1348,Right,0,64,97,157.0,0.489583,Eighth,E4_D5_A#4
1351,Left,1,55,101,157.25,0.239583,Sixteenth,G3
1355,Left,1,44,105,157.5,0.239583,Sixteenth,G#2
1352,Right,0,74,105,157.5,0.489583,Eighth,F4_D5_B4
1356,Left,1,56,109,157.75,0.239583,Sixteenth,G#3
1360,Left,1,45,80,158.0,0.239583,Sixteenth,A2
1357,Right,0,69,80,158.0,1.489583,Quarter,F4_D5_A4
1361,Left,1,57,80,158.25,0.239583,Sixteenth,A3
1362,Left,1,56,80,158.5,0.239583,Sixteenth,G#3
1363,Left,1,57,80,158.75,0.239583,Sixteenth,A3
1364,Right,0,73,80,159.0,0.489583,Eighth,E4_C#5
1366,Left,1,45,80,159.0,0.239583,Sixteenth,A2
1367,Left,1,57,80,159.25,0.239583,Sixteenth,A3
1368,Left,1,43,80,159.5,0.239583,Sixteenth,G2
1369,Left,1,55,80,159.75,0.239583,Sixteenth,G3
1372,Left,1,41,80,160.0,0.239583,Sixteenth,F2
1370,Right,0,60,80,160.0,0.989583,Quarter,F4_C4_A3
1374,Left,1,53,80,160.25,0.239583,Sixteenth,F3
1375,Left,1,48,80,160.5,0.239583,Sixteenth,C3
1376,Left,1,53,80,160.75,0.239583,Sixteenth,F3
1377,Right,0,72,80,161.0,0.989583,Quarter,G4_C5_C4
1380,Left,1,40,80,161.0,0.239583,Sixteenth,E2
1381,Left,1,52,80,161.25,0.239583,Sixteenth,E3
1382,Left,1,48,80,161.5,0.239583,Sixteenth,C3
1383,Left,1,52,80,161.75,0.239583,Sixteenth,E3
1384,Right,0,70,80,162.0,1.489583,DottedQuarter,F4_C4_A#4
1386,Left,1,41,80,162.0,0.239583,Sixteenth,F2
1388,Left,1,53,80,162.25,0.239583,Sixteenth,F3
1389,Left,1,48,80,162.5,0.239583,Sixteenth,C3
1390,Right,0,69,80,162.5,0.364583,DottedSixteenth,A4
1391,Left,1,53,80,162.75,0.239583,Sixteenth,F3
1392,Right,0,68,80,162.875,0.114583,ThirtySecond,G#4
1393,Left,1,41,80,163.0,0.239583,Sixteenth,F2
1394,Right,0,69,80,163.0,0.489583,Eighth,A4
1395,Left,1,53,80,163.25,0.239583,Sixteenth,F3
1396,Left,1,38,80,163.5,0.239583,Sixteenth,D2
1397,Right,0,71,80,163.5,0.489583,Eighth,F4_B4_A4
1400,Left,1,50,80,163.75,0.239583,Sixteenth,D3
1404,Left,1,40,80,164.0,0.239583,Sixteenth,E2
1401,Right,0,72,80,164.0,0.989583,Quarter,E4_C5_A4
1405,Left,1,52,84,164.25,0.239583,Sixteenth,E3
1406,Left,1,45,88,164.5,0.239583,Sixteenth,A2
1407,Left,1,52,92,164.75,0.239583,Sixteenth,E3
1409,Right,0,68,97,165.0,0.989583,Quarter,G#4_E4_D4
1408,Left,1,40,97,165.0,0.239583,Sixteenth,E2
1412,Left,1,52,101,165.25,0.239583,Sixteenth,E3
1413,Left,1,47,105,165.5,0.239583,Sixteenth,B2
1414,Left,1,52,109,165.75,0.239583,Sixteenth,E3
1415,Right,0,69,80,166.0,0.489583,Eighth,E4_C4_A4
1417,Left,1,33,80,166.0,0.239583,Sixteenth,A1
1419,Left,1,45,80,166.25,0.239583,Sixteenth,A2
1420,Right,0,58,80,166.5,0.489583,Eighth,A#3
1421,Left,1,34,80,166.5,0.239583,Sixteenth,A#1
1422,Left,1,46,80,166.75,0.239583,Sixteenth,A#2
1424,Right,0,57,80,167.0,0.489583,Eighth,A3
1423,Left,1,33,80,167.0,0.239583,Sixteenth,A1
1425,Left,1,45,80,167.25,0.239583,Sixteenth,A2
1427,Right,0,61,80,167.5,0.489583,Eighth,C#4
1426,Left,1,37,80,167.5,0.239583,Sixteenth,C#2
1428,Left,1,49,80,167.75,0.239583,Sixteenth,C#3
1429,Right,0,62,80,168.0,0.1875,TripletSixteenth,D4
1430,Left,1,38,80,168.0,0.239583,Sixteenth,D2
1431,Right,0,65,80,168.125,0.208333,Sixteenth,F4
1432,Left,1,50,80,168.25,0.239583,Sixteenth,D3
1433,Right,0,69,80,168.25,0.208333,Sixteenth,A4
1434,Right,0,73,80,168.375,0.208333,Sixteenth,C#5
1436,Left,1,45,80,168.5,0.239583,Sixteenth,A2
1435,Right,0,74,80,168.5,0.229167,Sixteenth,D5
1437,Right,0,76,80,168.625,0.21875,Sixteenth,E5
1439,Left,1,50,80,168.75,0.239583,Sixteenth,D3
1438,Right,0,77,80,168.75,0.21875,Sixteenth,F5
1440,Right,0,79,80,168.875,0.208333,Sixteenth,G5
1441,Left,1,37,80,169.0,0.239583,Sixteenth,C#2
1442,Right,0,80,80,169.0,0.21875,Sixteenth,G#5
1443,Right,0,81,80,169.125,0.197917,TripletSixteenth,A5
1444,Left,1,49,80,169.25,0.239583,Sixteenth,C#3
1445,Right,0,80,80,169.25,0.229167,Sixteenth,G#5
1446,Right,0,81,80,169.375,0.239583,Sixteenth,A5
1447,Right,0,80,80,169.5,0.197917,TripletSixteenth,G#5
1448,Left,1,45,80,169.5,0.239583,Sixteenth,A2
1449,Right,0,81,80,169.625,0.1875,TripletSixteenth,A5
1451,Left,1,49,80,169.75,0.239583,Sixteenth,C#3
1450,Right,0,82,80,169.75,0.208333,Sixteenth,A#5
1452,Right,0,81,80,169.875,0.21875,Sixteenth,A5
1454,Left,1,38,80,170.0,0.239583,Sixteenth,D2
1453,Right,0,79,80,170.0,0.239583,Sixteenth,G5
1455,Right,0,77,80,170.125,0.239583,Sixteenth,F5
1457,Left,1,50,80,170.25,0.239583,Sixteenth,D3
1456,Right,0,76,80,170.25,0.239583,Sixteenth,E5
1458,Right,0,74,80,170.375,0.239583,Sixteenth,D5
1460,Left,1,45,80,170.5,0.239583,Sixteenth,A2
1459,Right,0,73,80,170.5,0.239583,Sixteenth,C#5
1461,Right,0,74,80,170.625,0.239583,Sixteenth,D5
1463,Right,0,73,80,170.75,0.239583,Sixteenth,C#5
1462,Left,1,50,80,170.75,0.239583,Sixteenth,D3
1464,Right,0,74,80,170.875,0.239583,Sixteenth,D5
1466,Left,1,38,80,171.0,0.239583,Sixteenth,D2
1465,Right,0,73,80,171.0,0.239583,Sixteenth,C#5
1467,Right,0,74,80,171.125,0.239583,Sixteenth,D5
1469,Left,1,50,80,171.25,0.239583,Sixteenth,D3
1468,Right,0,76,80,171.25,0.239583,Sixteenth,E5
1470,Right,0,74,80,171.375,0.239583,Sixteenth,D5
1471,Right,0,69,80,171.5,0.489583,Eighth,A4
1472,Left,1,41,80,171.5,0.239583,Sixteenth,F2
1473,Right,0,74,80,171.625,0.239583,Sixteenth,D5
1474,Right,0,76,80,171.75,0.239583,Sixteenth,E5
1475,Left,1,53,80,171.75,0.239583,Sixteenth,F3
1476,Right,0,74,80,171.875,0.239583,Sixteenth,D5
1477,Left,1,46,81,172.0,0.239583,Sixteenth,A#2
1478,Right,0,67,81,172.0,0.489583,Sixteenth,G4_E4
1480,Right,0,74,83,172.125,0.239583,Sixteenth,D5
1482,Right,0,76,85,172.25,0.239583,Sixteenth,E5
1481,Left,1,58,85,172.25,0.239583,Sixteenth,A#3
1483,Right,0,74,87,172.375,0.239583,Sixteenth,D5
1484,Left,1,45,89,172.5,0.239583,Sixteenth,A2
1485,Right,0,65,89,172.5,0.489583,Eighth,F4_A4
1487,Right,0,74,91,172.625,0.239583,Sixteenth,D5
1488,Left,1,57,93,172.75,0.239583,Sixteenth,A3
1489,Right,0,76,93,172.75,0.239583,Sixteenth,E5
1490,Right,0,74,95,172.875,0.239583,Sixteenth,D5
1492,Right,0,64,97,173.0,0.489583,Eighth,E4_A#4
1491,Left,1,43,97,173.0,0.239583,Sixteenth,G2
1494,Right,0,74,99,173.125,0.239583,Sixteenth,D5
1496,Right,0,76,101,173.25,0.239583,Sixteenth,E5
1495,Left,1,55,101,173.25,0.239583,Sixteenth,G3
1497,Right,0,74,103,173.375,0.239583,Sixteenth,D5
1499,Right,0,65,105,173.5,0.489583,Eighth,F4_B4
1498,Left,1,44,105,173.5,0.239583,Sixteenth,G#2
1501,Right,0,74,107,173.625,0.239583,Sixteenth,D5
1503,Right,0,76,109,173.75,0.239583,Sixteenth,E5
1502,Left,1,56,109,173.75,0.239583,Sixteenth,G#3
1504,Right,0,74,80,173.875,0.239583,Sixteenth,D5
1507,Left,1,45,80,174.0,0.239583,Sixteenth,A2
1505,Right,0,65,80,174.0,0.989583,Quarter,F4_A4
1508,Right,0,73,80,174.125,0.239583,Sixteenth,C#5
1509,Right,0,74,80,174.25,0.239583,Sixteenth,D5
1510,Left,1,57,80,174.25,0.239583,Sixteenth,A3
1511,Right,0,73,80,174.375,0.239583,Sixteenth,C#5
1513,Right,0,74,80,174.5,0.239583,Sixteenth,D5
1512,Left,1,50,80,174.5,0.239583,Sixteenth,D3
1514,Right,0,77,80,174.625,0.239583,Sixteenth,F5
1515,Left,1,57,80,174.75,0.239583,Sixteenth,A3
1516,Right,0,76,80,174.75,0.239583,Sixteenth,E5
1517,Right,0,74,80,174.875,0.239583,Sixteenth,D5
1518,Left,1,45,80,175.0,0.239583,Sixteenth,A2
1519,Right,0,64,80,175.0,0.489583,Eighth,E4_C#5
1521,Right,0,72,80,175.125,0.239583,Sixteenth,C5
1522,Right,0,74,80,175.25,0.239583,Sixteenth,D5
1523,Left,1,57,80,175.25,0.239583,Sixteenth,A3
1524,Right,0,72,80,175.375,0.239583,Sixteenth,C5
1525,Left,1,43,80,175.5,0.239583,Sixteenth,G2
1526,Right,0,71,80,175.5,0.239583,Sixteenth,B4
1527,Right,0,72,80,175.625,0.239583,Sixteenth,C5
1529,Left,1,55,80,175.75,0.239583,Sixteenth,G3
1528,Right,0,74,80,175.75,0.239583,Sixteenth,D5
1530,Right,0,76,80,175.875,0.239583,Sixteenth,E5
1532,Left,1,41,80,176.0,0.239583,Sixteenth,F2
1531,Right,0,77,80,176.0,0.239583,Sixteenth,F5
1533,Right,0,65,80,176.125,0.239583,Sixteenth,F4
1534,Left,1,53,80,176.25,0.239583,Sixteenth,F3
1535,Right,0,69,80,176.25,0.239583,Sixteenth,A4
1536,Right,0,72,80,176.375,0.239583,Sixteenth,C5
1538,Left,1,48,80,176.5,0.239583,Sixteenth,C3
1537,Right,0,77,80,176.5,0.239583,Sixteenth,F5
1539,Right,0,79,80,176.625,0.239583,Sixteenth,G5
1541,Left,1,53,80,176.75,0.239583,Sixteenth,F3
1540,Right,0,81,80,176.75,0.239583,Sixteenth,A5
1542,Right,0,82,80,176.875,0.239583,Sixteenth,A#5
1543,Right,0,83,80,177.0,0.239583,Sixteenth,B5
1544,Left,1,40,80,177.0,0.239583,Sixteenth,E2
1545,Right,0,84,80,177.125,0.239583,Sixteenth,C6
1546,Right,0,83,80,177.25,0.239583,Sixteenth,B5
1547,Left,1,52,80,177.25,0.239583,Sixteenth,E3
1548,Right,0,84,80,177.375,0.239583,Sixteenth,C6
1549,Left,1,48,80,177.5,0.239583,Sixteenth,C3
1550,Right,0,83,80,177.5,0.239583,Sixteenth,B5
1551,Right,0,84,80,177.625,0.239583,Sixteenth,C6
1552,Right,0,86,80,177.75,0.239583,Sixteenth,D6
1553,Left,1,52,80,177.75,0.239583,Sixteenth,E3
1554,Right,0,84,80,177.875,0.239583,Sixteenth,C6
1556,Left,1,41,80,178.0,0.239583,Sixteenth,F2
1555,Right,0,82,80,178.0,0.239583,Sixteenth,A#5
1557,Right,0,81,80,178.125,0.239583,Sixteenth,A5
1558,Left,1,53,80,178.25,0.239583,Sixteenth,F3
1559,Right,0,80,80,178.25,0.239583,Sixteenth,G#5
1560,Right,0,81,80,178.375,0.239583,Sixteenth,A5
1562,Right,0,80,80,178.5,0.239583,Sixteenth,G#5
1561,Left,1,48,80,178.5,0.239583,Sixteenth,C3
1563,Right,0,81,80,178.625,0.239583,Sixteenth,A5
1565,Right,0,82,80,178.75,0.239583,Sixteenth,A#5
1564,Left,1,53,80,178.75,0.239583,Sixteenth,F3
1566,Right,0,81,80,178.875,0.239583,Sixteenth,A5
1567,Right,0,69,80,179.0,0.239583,Sixteenth,A4
1568,Left,1,41,80,179.0,0.239583,Sixteenth,F2
1569,Right,0,81,80,179.125,0.239583,Sixteenth,A5
1570,Left,1,53,80,179.25,0.239583,Sixteenth,F3
1571,Right,0,80,80,179.25,0.239583,Sixteenth,G#5
1572,Right,0,81,80,179.375,0.239583,Sixteenth,A5
1574,Right,0,71,80,179.5,0.239583,Sixteenth,B4
1573,Left,1,38,80,179.5,0.239583,Sixteenth,D2
1575,Right,0,83,80,179.625,0.239583,Sixteenth,B5
1576,Left,1,50,80,179.75,0.239583,Sixteenth,D3
1577,Right,0,81,80,179.75,0.239583,Sixteenth,A5
1578,Right,0,83,80,179.875,0.239583,Sixteenth,B5
1580,Right,0,72,81,180.0,0.239583,Sixteenth,C5
1579,Left,1,40,81,180.0,0.239583,Sixteenth,E2
1581,Right,0,84,83,180.125,0.239583,Sixteenth,C6
1583,Left,1,52,85,180.25,0.239583,Sixteenth,E3
1582,Right,0,83,85,180.25,0.239583,Sixteenth,B5
1584,Right,0,84,87,180.375,0.239583,Sixteenth,C6
1586,Right,0,88,89,180.5,0.239583,Sixteenth,E6
1585,Left,1,45,89,180.5,0.239583,Sixteenth,A2
1587,Right,0,84,91,180.625,0.239583,Sixteenth,C6
1589,Left,1,52,93,180.75,0.239583,Sixteenth,E3
1588,Right,0,83,93,180.75,0.239583,Sixteenth,B5
1590,Right,0,81,95,180.875,0.239583,Sixteenth,A5
1592,Left,1,40,97,181.0,0.239583,Sixteenth,E2
1591,Right,0,80,97,181.0,0.239583,Sixteenth,G#5
1593,Right,0,77,99,181.125,0.239583,Sixteenth,F5
1595,Right,0,76,101,181.25,0.239583,Sixteenth,E5
1594,Left,1,52,101,181.25,0.239583,Sixteenth,E3
1596,Right,0,74,103,181.375,0.239583,Sixteenth,D5
1597,Left,1,47,105,181.5,0.239583,Sixteenth,B2
1598,Right,0,72,105,181.5,0.239583,Sixteenth,C5
1599,Right,0,71,107,181.625,0.239583,Sixteenth,B4
1600,Left,1,52,109,181.75,0.239583,Sixteenth,E3
1601,Right,0,69,109,181.75,0.239583,Sixteenth,A4
1602,Right,0,68,110,181.875,0.239583,Sixteenth,G#4
1604,Left,1,33,110,182.0,0.239583,Sixteenth,A1
1603,Right,0,69,110,182.0,0.239583,Sixteenth,A4
1606,Right,0,57,110,182.25,0.239583,Sixteenth,A3
1605,Left,1,45,110,182.25,0.239583,Sixteenth,A2
1607,Left,1,34,110,182.5,0.239583,Sixteenth,A#1
1609,Left,1,46,110,182.75,0.239583,Sixteenth,A#2
1608,Right,0,58,110,182.75,0.239583,Sixteenth,A#3
1610,Left,1,33,110,183.0,0.239583,Sixteenth,A1
1612,Left,1,45,110,183.25,0.239583,Sixteenth,A2
1611,Right,0,57,110,183.25,0.239583,Sixteenth,A3
1613,Left,1,32,110,183.5,0.239583,Sixteenth,G#1
1615,Left,1,44,110,183.75,0.239583,Sixteenth,G#2
1614,Right,0,56,110,183.75,0.239583,Sixteenth,G#3
1616,Right,0,73,80,184.0,0.989583,Quarter,E5_C#5
1618,Left,1,33,80,184.0,0.239583,Sixteenth,A2_A1
1620,Left,1,57,80,184.25,0.239583,Sixteenth,A3
1621,Left,1,57,80,184.5,0.239583,Sixteenth,A3
1622,Left,1,57,80,184.75,0.239583,Sixteenth,A3
1625,Left,1,57,80,185.0,0.239583,Sixteenth,A3
1623,Right,0,76,80,185.0,0.864583,DottedEighth,G5_E5
1626,Left,1,57,80,185.25,0.239583,Sixteenth,A3
1627,Left,1,57,80,185.5,0.239583,Sixteenth,A3
1628,Left,1,57,80,185.75,0.239583,Sixteenth,A3
1629,Right,0,74,80,185.875,0.114583,ThirtySecond,F5_D5
1633,Left,1,57,80,186.0,0.239583,Sixteenth,A3
1631,Right,0,77,80,186.0,0.489583,Eighth,F5_D5
1634,Left,1,57,80,186.25,0.239583,Sixteenth,A3
1635,Right,0,70,100,186.5,0.989583,Quarter,E5_C#5_A#4
1638,Left,1,67,80,186.5,0.989583,Quarter,G4_A3
1640,Left,1,57,80,186.75,0.239583,Sixteenth,A3
1641,Left,1,57,80,187.0,0.239583,Sixteenth,A3
1642,Left,1,57,80,187.25,0.239583,Sixteenth,A3
1643,Right,0,71,80,187.5,0.489583,Eighth,F5_B4
1645,Left,1,57,80,187.5,0.489583,Sixteenth,G#4_A3
1647,Left,1,57,80,187.75,0.239583,Sixteenth,A3
1648,Right,0,74,80,187.875,0.114583,ThirtySecond,D5
1651,Left,1,57,80,188.0,0.239583,Sixteenth,A3
1649,Right,0,73,80,188.0,1.239583,TiedQuarter-Sixteenth,C#5_A4
1652,Left,1,57,80,188.25,0.239583,Sixteenth,A3
1653,Left,1,57,80,188.5,0.239583,Sixteenth,A3
1654,Left,1,57,80,188.75,0.239583,Sixteenth,A3
1655,Left,1,57,80,189.0,0.239583,Sixteenth,A3
1658,Left,1,57,80,189.25,0.239583,Sixteenth,A3
1656,Right,0,76,80,189.25,0.239583,Sixteenth,E5_C#5
1661,Left,1,57,80,189.5,0.239583,Sixteenth,A3
1659,Right,0,76,80,189.5,0.364583,DottedSixteenth,G5_E5
1662,Left,1,57,80,189.75,0.239583,Sixteenth,A3
1663,Right,0,74,80,189.875,0.114583,ThirtySecond,F5_D5
1667,Left,1,57,80,190.0,0.239583,Sixteenth,A3
1665,Right,0,77,80,190.0,0.489583,Eighth,F5_D5
1668,Left,1,57,80,190.25,0.239583,Sixteenth,A3
1672,Left,1,57,80,190.5,0.989583,Sixteenth,G4_A3
1669,Right,0,70,100,190.5,0.989583,Quarter,E5_C#5_A#4
1674,Left,1,57,80,190.75,0.239583,Sixteenth,A3
1675,Left,1,57,80,191.0,0.239583,Sixteenth,A3
1676,Left,1,57,80,191.25,0.239583,Sixteenth,A3
1677,Left,1,68,80,191.5,0.489583,Eighth,G#4_A3
1679,Right,0,77,80,191.5,0.489583,DottedSixteenth,F5_B4
1681,Left,1,57,80,191.75,0.239583,Sixteenth,A3
1682,Right,0,74,80,191.875,0.114583,ThirtySecond,D5
1683,Left,1,64,80,192.0,0.489583,Eighth,E4_A3
1685,Right,0,69,80,192.0,0.489583,Eighth,C#5_A4
1687,Left,1,57,80,192.25,0.239583,Sixteenth,A3
1691,Left,1,67,80,192.5,0.989583,Quarter,G4_A3
1688,Right,0,76,100,192.5,0.989583,Quarter,E5_C#5_A#4
1693,Left,1,57,80,192.75,0.239583,Sixteenth,A3
1694,Left,1,57,80,193.0,0.239583,Sixteenth,A3
1695,Left,1,57,80,193.25,0.239583,Sixteenth,A3
1696,Left,1,57,80,193.5,0.489583,Sixteenth,G#4_A3
1698,Right,0,71,80,193.5,0.489583,Eighth,F5_B4
1700,Left,1,57,80,193.75,0.239583,Sixteenth,A3
1701,Right,0,74,80,193.875,0.114583,ThirtySecond,D5
1703,Right,0,69,80,194.0,0.364583,Sixteenth,C#5_A4
1702,Left,1,57,80,194.0,0.239583,Sixteenth,E4_A3
1706,Left,1,57,80,194.25,0.239583,Sixteenth,A3
1707,Right,0,76,80,194.375,0.114583,ThirtySecond,E5
1709,Right,0,77,80,194.5,0.489583,DottedSixteenth,F5_B4
1708,Left,1,68,80,194.5,0.489583,Eighth,G#4_A3
1712,Left,1,57,80,194.75,0.239583,Sixteenth,A3
1713,Right,0,74,80,194.875,0.114583,ThirtySecond,D5
1716,Right,0,69,80,195.0,0.364583,Sixteenth,C#5_A4
1714,Left,1,64,80,195.0,0.239583,Sixteenth,E4_A3
1718,Left,1,57,80,195.25,0.239583,Sixteenth,A3
1719,Right,0,76,80,195.375,0.114583,ThirtySecond,E5
1722,Right,0,71,80,195.5,0.489583,Eighth,F5_B4
1720,Left,1,57,80,195.5,0.489583,Sixteenth,G#4_A3
1724,Left,1,57,80,195.75,0.239583,Sixteenth,A3
1725,Right,0,74,80,195.875,0.114583,ThirtySecond,D5
1726,Right,0,69,80,196.0,0.989583,Eighth,C#5_A4
1728,Left,1,64,80,196.0,0.489583,Eighth,E4_A3
1730,Right,0,76,80,197.0,0.989583,Quarter,E5
1731,Right,0,79,80,198.0,1.489583,DottedQuarter,G5
1732,Right,0,73,80,199.5,0.489583,Eighth,C#5_C#4
1734,Right,0,74,80,200.0,0.989583,Quarter,D5_D4
1735,Left,1,38,80,200.0,0.239583,Sixteenth,D2
1737,Left,1,50,80,200.25,0.239583,Sixteenth,D3
1738,Left,1,45,80,200.5,0.239583,Sixteenth,A2
1739,Left,1,50,80,200.75,0.239583,Sixteenth,D3
1740,Left,1,37,80,201.0,0.239583,Sixteenth,C#2
1741,Right,0,81,80,201.0,0.989583,Quarter,A5_A4
1743,Left,1,49,80,201.25,0.239583,Sixteenth,C#3
1744,Left,1,45,80,201.5,0.239583,Sixteenth,A2
1745,Left,1,49,80,201.75,0.239583,Sixteenth,C#3
1746,Left,1,38,80,202.0,0.239583,Sixteenth,D2
1747,Right,0,67,80,202.0,0.489583,Eighth,G5_G4
1749,Left,1,50,80,202.25,0.239583,Sixteenth,D3
1751,Left,1,45,80,202.5,0.239583,Sixteenth,A2
1750,Right,0,65,80,202.5,0.364583,DottedSixteenth,F5_F4
1753,Left,1,50,80,202.75,0.239583,Sixteenth,D3
1754,Right,0,64,80,202.875,0.114583,ThirtySecond,E5_E4
1757,Left,1,38,80,203.0,0.239583,Sixteenth,D2
1756,Right,0,62,80,203.0,0.489583,Eighth,D5_D4
1759,Left,1,50,80,203.25,0.239583,Sixteenth,D3
1760,Right,0,79,100,203.5,0.489583,Eighth,G5_G4
1762,Left,1,35,80,203.5,0.239583,Sixteenth,B1
1763,Left,1,47,80,203.75,0.239583,Sixteenth,B2
1765,Left,1,36,80,204.0,0.239583,Sixteenth,C2
1764,Right,0,77,80,204.0,0.489583,Eighth,F5_F4
1767,Left,1,48,80,204.25,0.239583,Sixteenth,C3
1769,Left,1,43,80,204.5,0.239583,Sixteenth,G2
1768,Right,0,64,80,204.5,0.364583,DottedSixteenth,E5_E4
1771,Left,1,48,80,204.75,0.239583,Sixteenth,C3
1772,Right,0,74,80,204.875,0.114583,ThirtySecond,D5_D4
1774,Left,1,36,80,205.0,0.239583,Sixteenth,C2
1775,Right,0,72,80,205.0,0.489583,Eighth,C5_C4
1777,Left,1,48,80,205.25,0.239583,Sixteenth,C3
1778,Left,1,37,80,205.5,0.239583,Sixteenth,C#2
1779,Right,0,81,100,205.5,0.489583,Eighth,A5_A4
1781,Left,1,49,80,205.75,0.239583,Sixteenth,C#3
1782,Right,0,79,80,206.0,0.489583,Eighth,G5_G4
1784,Left,1,38,80,206.0,0.239583,Sixteenth,D2
1785,Left,1,50,80,206.25,0.239583,Sixteenth,D3
1786,Right,0,65,80,206.5,0.364583,DottedSixteenth,F5_F4
1788,Left,1,45,80,206.5,0.239583,Sixteenth,A2
1789,Left,1,50,80,206.75,0.239583,Sixteenth,D3
1790,Right,0,64,80,206.875,0.114583,ThirtySecond,E5_E4
1794,Left,1,38,83,207.0,0.239583,Sixteenth,D2
1792,Right,0,74,83,207.0,0.489583,Eighth,D5_D4
1795,Left,1,50,91,207.25,0.239583,Sixteenth,D3
1797,Right,0,74,98,207.5,0.364583,DottedSixteenth,D6_D5
1796,Left,1,42,98,207.5,0.239583,Sixteenth,F#2
1799,Left,1,54,105,207.75,0.239583,Sixteenth,F#3
1800,Right,0,84,109,207.875,0.114583,ThirtySecond,C6_C5
1802,Right,0,72,110,208.0,0.239583,Sixteenth,C6_C5
1803,Left,1,43,110,208.0,0.239583,Sixteenth,G2
1806,Left,1,55,110,208.25,0.239583,Sixteenth,G3
1805,Right,0,70,110,208.25,0.239583,Sixteenth,A#5_A#4
1810,Left,1,46,110,208.5,0.239583,Sixteenth,A#2
1808,Right,0,81,110,208.5,0.239583,Sixteenth,A5_A4
1811,Right,0,80,110,208.75,0.239583,Sixteenth,G#5_G#4
1812,Left,1,58,110,208.75,0.239583,Sixteenth,A#3
1815,Right,0,68,110,209.0,0.239583,Sixteenth,G#5_G#4
1814,Left,1,45,110,209.0,0.239583,Sixteenth,A2
1817,Left,1,57,110,209.25,0.239583,Sixteenth,A3
1818,Right,0,69,110,209.25,0.489583,Eighth,A5_A4
1820,Left,1,33,110,209.5,0.239583,Sixteenth,A1
1821,Right,0,61,95,209.75,0.239583,Sixteenth,G3_C#4
1823,Left,1,45,95,209.75,0.239583,Sixteenth,A2
1825,Right,0,61,80,210.0,0.989583,Quarter,G3_E4_C#4
1824,Left,1,38,80,210.0,0.239583,Sixteenth,D2
1828,Left,1,50,80,210.25,0.239583,Sixteenth,D3
1829,Left,1,45,80,210.5,0.239583,Sixteenth,A2
1830,Left,1,50,80,210.75,0.239583,Sixteenth,D3
1831,Right,0,57,80,211.0,0.489583,Eighth,F3_D4_A3
1833,Left,1,38,80,211.0,0.239583,Sixteenth,D2
1835,Left,1,57,80,211.25,0.239583,Sixteenth,A3
1836,Left,1,53,80,211.5,0.239583,Sixteenth,F3
1837,Left,1,50,80,211.75,0.239583,Sixteenth,D3
1838,Left,1,45,80,212.0,0.239583,Sixteenth,A2_A1
1839,Right,0,73,80,212.0,0.989583,Quarter,E5_C#5
1842,Left,1,57,80,212.25,0.239583,Sixteenth,A3
1843,Left,1,57,80,212.5,0.239583,Sixteenth,A3
1844,Left,1,57,80,212.75,0.239583,Sixteenth,A3
1847,Left,1,57,80,213.0,0.239583,Sixteenth,A3
1845,Right,0,76,80,213.0,0.864583,DottedEighth,G5_E5
1848,Left,1,57,80,213.25,0.239583,Sixteenth,A3
1849,Left,1,57,80,213.5,0.239583,Sixteenth,A3
1850,Left,1,57,80,213.75,0.239583,Sixteenth,A3
1851,Right,0,74,80,213.875,0.114583,ThirtySecond,F5_D5
1853,Right,0,77,80,214.0,0.489583,Eighth,F5_D5
1855,Left,1,57,80,214.0,0.239583,Sixteenth,A3
1856,Left,1,57,80,214.25,0.239583,Sixteenth,A3
1859,Left,1,57,80,214.5,0.989583,Sixteenth,G4_A3
1857,Right,0,76,80,214.5,0.989583,Eighth,E5_C#5_A#4
1862,Left,1,57,80,214.75,0.239583,Sixteenth,A3
1863,Left,1,57,80,215.0,0.239583,Sixteenth,A3
1864,Right,0,76,80,215.125,0.239583,Sixteenth,E5
1866,Left,1,57,80,215.25,0.239583,Sixteenth,A3
1865,Right,0,77,80,215.25,0.239583,Sixteenth,F5
1867,Right,0,76,80,215.375,0.239583,Sixteenth,E5
1868,Left,1,68,80,215.5,0.489583,Eighth,G#4_A3
1869,Right,0,71,80,215.5,0.489583,Eighth,G5_B4
1872,Right,0,77,80,215.625,0.239583,Sixteenth,F5
1873,Right,0,76,80,215.75,0.239583,Sixteenth,E5
1874,Left,1,57,80,215.75,0.239583,Sixteenth,A3
1875,Right,0,74,80,215.875,0.239583,Sixteenth,D5
1876,Right,0,69,81,216.0,0.489583,Eighth,C#5_A4
1877,Left,1,57,81,216.0,0.239583,Sixteenth,A3
1880,Left,1,60,82,216.125,0.239583,Sixteenth,C4
1879,Right,0,75,82,216.125,0.239583,Sixteenth,D#5
1881,Right,0,76,83,216.25,0.239583,Sixteenth,E5
1882,Left,1,61,83,216.25,0.239583,Sixteenth,C#4
1883,Right,0,75,85,216.375,0.239583,Sixteenth,D#5
1884,Left,1,60,85,216.375,0.239583,Sixteenth,C4
1885,Right,0,76,86,216.5,0.239583,Sixteenth,E5
1886,Left,1,61,86,216.5,0.239583,Sixteenth,C#4
1887,Left,1,63,87,216.625,0.239583,Sixteenth,D#4
1888,Right,0,78,87,216.625,0.239583,Sixteenth,F#5
1889,Left,1,64,89,216.75,0.239583,Sixteenth,E4
1890,Right,0,79,89,216.75,0.239583,Sixteenth,G5
1892,Right,0,78,90,216.875,0.239583,Sixteenth,F#5
1891,Left,1,63,90,216.875,0.239583,Sixteenth,D#4
1893,Left,1,64,91,217.0,0.239583,Sixteenth,E4
1894,Right,0,79,91,217.0,0.239583,Sixteenth,G5
1895,Right,0,81,93,217.125,0.239583,Sixteenth,A5
1896,Left,1,66,93,217.125,0.239583,Sixteenth,F#4
1897,Right,0,82,94,217.25,0.239583,Sixteenth,A#5
1898,Left,1,67,94,217.25,0.239583,Sixteenth,G4
1899,Left,1,66,95,217.375,0.239583,Sixteenth,F#4
1900,Right,0,81,95,217.375,0.239583,Sixteenth,A5
1901,Left,1,67,97,217.5,0.239583,Sixteenth,G4
1902,Right,0,82,97,217.5,0.239583,Sixteenth,A#5
1903,Right,0,81,98,217.625,0.239583,Sixteenth,A5
1904,Left,1,65,98,217.625,0.239583,Sixteenth,F4
1906,Right,0,79,99,217.75,0.239583,Sixteenth,G5
1905,Left,1,64,99,217.75,0.239583,Sixteenth,E4
1907,Left,1,62,100,217.875,0.239583,Sixteenth,D4
1909,Right,0,70,100,218.0,0.489583,Eighth,F5_A#4
1908,Left,1,67,100,218.0,0.489583,Eighth,G4_A3
1912,Right,0,76,100,218.125,0.239583,Sixteenth,E5
1913,Right,0,75,100,218.25,0.239583,Sixteenth,D#5
1914,Left,1,57,100,218.25,0.239583,Sixteenth,A3
1915,Right,0,76,100,218.375,0.239583,Sixteenth,E5
1916,Right,0,75,100,218.5,0.989583,Sixteenth,D#5_A#4
1917,Left,1,57,100,218.5,0.989583,Sixteenth,G4_A3
1920,Right,0,76,100,218.625,0.239583,Sixteenth,E5
1921,Left,1,57,100,218.75,0.239583,Sixteenth,A3
1922,Right,0,75,100,218.75,0.239583,Sixteenth,D#5
1923,Right,0,76,100,218.875,0.239583,Sixteenth,E5
1925,Right,0,75,98,219.0,0.239583,Sixteenth,D#5
1924,Left,1,57,98,219.0,0.239583,Sixteenth,A3
1926,Right,0,76,95,219.125,0.239583,Sixteenth,E5
1928,Right,0,77,92,219.25,0.239583,Sixteenth,F5
1927,Left,1,57,92,219.25,0.239583,Sixteenth,A3
1929,Right,0,76,89,219.375,0.239583,Sixteenth,E5
1932,Right,0,71,86,219.5,0.489583,Eighth,G5_B4
1930,Left,1,57,86,219.5,0.489583,Sixteenth,G#4_A3
1934,Right,0,77,84,219.625,0.239583,Sixteenth,F5
1936,Left,1,57,81,219.75,0.239583,Sixteenth,A3
1935,Right,0,76,81,219.75,0.239583,Sixteenth,E5
1937,Right,0,74,80,219.875,0.239583,Sixteenth,D5
1939,Left,1,64,80,220.0,0.489583,Eighth,E4_A3
1938,Right,0,73,80,220.0,0.489583,Sixteenth,C#5_A4
1942,Right,0,76,80,220.125,0.239583,Sixteenth,E5
1943,Right,0,75,80,220.25,0.239583,Sixteenth,D#5
1944,Left,1,57,80,220.25,0.239583,Sixteenth,A3
1945,Right,0,76,80,220.375,0.239583,Sixteenth,E5
1946,Right,0,70,80,220.5,0.989583,Quarter,D#5_A#4
1947,Left,1,57,80,220.5,0.989583,Sixteenth,G4_A3
1950,Right,0,76,80,220.625,0.239583,Sixteenth,E5
1951,Right,0,75,80,220.75,0.239583,Sixteenth,D#5
1952,Left,1,57,80,220.75,0.239583,Sixteenth,A3
1953,Right,0,76,80,220.875,0.239583,Sixteenth,E5
1955,Left,1,57,80,221.0,0.239583,Sixteenth,A3
1954,Right,0,75,80,221.0,0.239583,Sixteenth,D#5
1956,Right,0,76,80,221.125,0.239583,Sixteenth,E5
1957,Left,1,57,80,221.25,0.239583,Sixteenth,A3
1958,Right,0,77,80,221.25,0.239583,Sixteenth,F5
1959,Right,0,76,80,221.375,0.239583,Sixteenth,E5
1960,Right,0,79,80,221.5,0.489583,Sixteenth,G5_B4
1961,Left,1,57,80,221.5,0.489583,Sixteenth,G#4_A3
1964,Right,0,77,80,221.625,0.239583,Sixteenth,F5
1966,Right,0,76,80,221.75,0.239583,Sixteenth,E5
1965,Left,1,57,80,221.75,0.239583,Sixteenth,A3
1967,Right,0,74,80,221.875,0.239583,Sixteenth,D5
1968,Right,0,69,80,222.0,0.489583,Eighth,C#5_A4
1969,Left,1,57,80,222.0,0.239583,Sixteenth,E4_A3
1972,Right,0,76,80,222.125,0.239583,Sixteenth,E5
1973,Left,1,57,80,222.25,0.239583,Sixteenth,A3
1974,Right,0,77,80,222.25,0.239583,Sixteenth,F5
1975,Right,0,76,80,222.375,0.239583,Sixteenth,E5
1976,Left,1,57,80,222.5,0.489583,Sixteenth,G#4_A3
1977,Right,0,71,80,222.5,0.489583,Eighth,G5_B4
1980,Right,0,77,80,222.625,0.239583,Sixteenth,F5
1981,Left,1,57,80,222.75,0.239583,Sixteenth,A3
1982,Right,0,76,80,222.75,0.239583,Sixteenth,E5
1983,Right,0,74,80,222.875,0.239583,Sixteenth,D5
1986,Left,1,57,80,223.0,0.239583,Sixteenth,E4_A3
1984,Right,0,73,80,223.0,0.489583,Sixteenth,C#5_A4
1988,Right,0,76,80,223.125,0.239583,Sixteenth,E5
1990,Left,1,57,80,223.25,0.239583,Sixteenth,A3
1989,Right,0,77,80,223.25,0.239583,Sixteenth,F5
1991,Right,0,76,80,223.375,0.239583,Sixteenth,E5
1994,Left,1,68,80,223.5,0.489583,Eighth,G#4_A3
1992,Right,0,71,80,223.5,0.489583,Eighth,G5_B4
1996,Right,0,77,80,223.625,0.239583,Sixteenth,F5
1997,Left,1,57,80,223.75,0.239583,Sixteenth,A3
1998,Right,0,76,80,223.75,0.239583,Sixteenth,E5
1999,Right,0,74,80,223.875,0.239583,Sixteenth,D5
2001,Left,1,57,80,224.0,0.489583,Eighth,E4_A3
2000,Right,0,73,80,224.0,0.489583,Sixteenth,C#5_A4
2004,Right,0,75,81,224.125,0.239583,Sixteenth,D#5
2005,Right,0,76,81,224.25,0.239583,Sixteenth,E5
2006,Right,0,75,82,224.375,0.239583,Sixteenth,D#5
2007,Right,0,76,83,224.5,0.239583,Sixteenth,E5
2008,Right,0,78,83,224.625,0.239583,Sixteenth,F#5
2009,Right,0,79,84,224.75,0.239583,Sixteenth,G5
2010,Right,0,78,85,224.875,0.239583,Sixteenth,F#5
2011,Right,0,79,85,225.0,0.239583,Sixteenth,G5
2012,Right,0,81,86,225.125,0.239583,Sixteenth,A5
2013,Right,0,82,87,225.25,0.239583,Sixteenth,A#5
2014,Right,0,81,87,225.375,0.239583,Sixteenth,A5
2015,Right,0,84,88,225.5,0.239583,Sixteenth,C6
2016,Right,0,82,89,225.625,0.239583,Sixteenth,A#5
2017,Right,0,81,89,225.75,0.239583,Sixteenth,A5
2018,Right,0,79,90,225.875,0.239583,Sixteenth,G5
2019,Right,0,77,90,226.0,0.239583,Sixteenth,F5
2020,Right,0,76,91,226.125,0.239583,Sixteenth,E5
2021,Right,0,74,92,226.25,0.239583,Sixteenth,D5
2022,Right,0,73,92,226.375,0.239583,Sixteenth,C#5
2023,Right,0,70,93,226.5,0.239583,Sixteenth,A#4
2024,Right,0,69,94,226.625,0.239583,Sixteenth,A4
2025,Right,0,67,94,226.75,0.239583,Sixteenth,G4
2026,Right,0,65,95,226.875,0.239583,Sixteenth,F4
2027,Right,0,64,96,227.0,0.239583,Sixteenth,E4
2028,Right,0,62,96,227.125,0.239583,Sixteenth,D4
2029,Right,0,61,97,227.25,0.239583,Sixteenth,C#4
2030,Right,0,58,98,227.375,0.239583,Sixteenth,A#3
2031,Right,0,57,98,227.5,0.239583,Sixteenth,A3
2032,Right,0,55,99,227.625,0.239583,Sixteenth,G3
2033,Right,0,53,99,227.75,0.239583,Sixteenth,F3
2034,Right,0,52,100,227.875,0.239583,Sixteenth,E3
2035,Right,0,50,100,228.0,0.239583,Sixteenth,D3
2036,Left,1,38,100,228.0,0.239583,Sixteenth,D2
2037,Right,0,62,100,228.125,0.239583,Sixteenth,D4
2039,Left,1,50,100,228.25,0.239583,Sixteenth,D3
2038,Right,0,65,100,228.25,0.239583,Sixteenth,F4
2040,Right,0,69,100,228.375,0.239583,Sixteenth,A4
2041,Right,0,74,100,228.5,0.239583,Sixteenth,D5
2042,Left,1,45,100,228.5,0.239583,Sixteenth,A2
2043,Right,0,76,100,228.625,0.239583,Sixteenth,E5
2044,Right,0,77,100,228.75,0.239583,Sixteenth,F5
2045,Left,1,50,100,228.75,0.239583,Sixteenth,D3
2046,Right,0,79,100,228.875,0.239583,Sixteenth,G5
2048,Right,0,80,100,229.0,0.239583,Sixteenth,G#5
2047,Left,1,37,100,229.0,0.239583,Sixteenth,C#2
2049,Right,0,81,100,229.125,0.239583,Sixteenth,A5
2050,Right,0,80,100,229.25,0.239583,Sixteenth,G#5
2051,Left,1,49,100,229.25,0.239583,Sixteenth,C#3
2052,Right,0,81,100,229.375,0.239583,Sixteenth,A5
2053,Right,0,80,100,229.5,0.239583,Sixteenth,G#5
2054,Left,1,45,100,229.5,0.239583,Sixteenth,A2
2055,Right,0,81,100,229.625,0.239583,Sixteenth,A5
2056,Left,1,49,100,229.75,0.239583,Sixteenth,C#3
2057,Right,0,82,100,229.75,0.239583,Sixteenth,A#5
2058,Right,0,81,100,229.875,0.239583,Sixteenth,A5
2059,Left,1,38,100,230.0,0.239583,Sixteenth,D2
2060,Right,0,79,100,230.0,0.239583,Sixteenth,G5
2061,Right,0,77,100,230.125,0.239583,Sixteenth,F5
2062,Left,1,50,100,230.25,0.239583,Sixteenth,D3
2063,Right,0,81,100,230.25,0.239583,Sixteenth,A5
2064,Right,0,79,100,230.375,0.239583,Sixteenth,G5
2065,Left,1,45,100,230.5,0.239583,Sixteenth,A2
2066,Right,0,77,100,230.5,0.239583,Sixteenth,F5
2067,Right,0,79,100,230.625,0.239583,Sixteenth,G5
2068,Right,0,76,100,230.75,0.239583,Sixteenth,E5
2069,Left,1,50,100,230.75,0.239583,Sixteenth,D3
2070,Right,0,77,100,230.875,0.239583,Sixteenth,F5
2072,Left,1,38,100,231.0,0.239583,Sixteenth,D2
2071,Right,0,74,100,231.0,0.239583,Sixteenth,D5
2073,Right,0,76,100,231.125,0.239583,Sixteenth,E5
2075,Left,1,50,100,231.25,0.239583,Sixteenth,D3
2074,Right,0,77,100,231.25,0.239583,Sixteenth,F5
2076,Right,0,78,100,231.375,0.239583,Sixteenth,F#5
2078,Left,1,35,100,231.5,0.239583,Sixteenth,B1
2077,Right,0,79,100,231.5,0.239583,Sixteenth,G5
2079,Right,0,78,100,231.625,0.239583,Sixteenth,F#5
2080,Left,1,47,100,231.75,0.239583,Sixteenth,B2
2081,Right,0,81,100,231.75,0.239583,Sixteenth,A5
2082,Right,0,79,100,231.875,0.239583,Sixteenth,G5
2083,Left,1,36,100,232.0,0.239583,Sixteenth,C2
2084,Right,0,77,100,232.0,0.239583,Sixteenth,F5
2085,Right,0,76,100,232.125,0.239583,Sixteenth,E5
2086,Right,0,79,100,232.25,0.239583,Sixteenth,G5
2087,Left,1,48,100,232.25,0.239583,Sixteenth,C3
2088,Right,0,77,100,232.375,0.239583,Sixteenth,F5
2090,Left,1,43,100,232.5,0.239583,Sixteenth,G2
2089,Right,0,76,100,232.5,0.239583,Sixteenth,E5
2091,Right,0,77,100,232.625,0.239583,Sixteenth,F5
2092,Right,0,74,100,232.75,0.239583,Sixteenth,D5
2093,Left,1,48,100,232.75,0.239583,Sixteenth,C3
2094,Right,0,76,100,232.875,0.239583,Sixteenth,E5
2096,Right,0,72,100,233.0,0.239583,Sixteenth,C5
2095,Left,1,36,100,233.0,0.239583,Sixteenth,C2
2097,Right,0,76,100,233.125,0.239583,Sixteenth,E5
2098,Right,0,77,100,233.25,0.239583,Sixteenth,F5
2099,Left,1,48,100,233.25,0.239583,Sixteenth,C3
2100,Right,0,79,100,233.375,0.239583,Sixteenth,G5
2101,Right,0,81,100,233.5,0.239583,Sixteenth,A5
2102,Left,1,37,100,233.5,0.239583,Sixteenth,C#2
2103,Right,0,80,100,233.625,0.239583,Sixteenth,G#5
2105,Left,1,49,100,233.75,0.239583,Sixteenth,C#3
2104,Right,0,82,100,233.75,0.239583,Sixteenth,A#5
2106,Right,0,81,100,233.875,0.239583,Sixteenth,A5
2107,Right,0,79,100,234.0,0.239583,Sixteenth,G5
2108,Left,1,38,100,234.0,0.239583,Sixteenth,D2
2109,Right,0,77,100,234.125,0.239583,Sixteenth,F5
2110,Left,1,50,100,234.25,0.239583,Sixteenth,D3
2111,Right,0,81,100,234.25,0.239583,Sixteenth,A5
2112,Right,0,79,100,234.375,0.239583,Sixteenth,G5
2113,Left,1,45,100,234.5,0.239583,Sixteenth,A2
2114,Right,0,77,100,234.5,0.239583,Sixteenth,F5
2115,Right,0,79,100,234.625,0.239583,Sixteenth,G5
2117,Left,1,50,100,234.75,0.239583,Sixteenth,D3
2116,Right,0,76,100,234.75,0.239583,Sixteenth,E5
2118,Right,0,77,100,234.875,0.239583,Sixteenth,F5
2119,Right,0,74,101,235.0,0.239583,Sixteenth,D5
2120,Left,1,38,101,235.0,0.239583,Sixteenth,D2
2121,Right,0,86,102,235.125,0.239583,Sixteenth,D6
2122,Left,1,50,104,235.25,0.239583,Sixteenth,D3
2123,Right,0,85,104,235.25,0.239583,Sixteenth,C#6
2124,Right,0,86,105,235.375,0.239583,Sixteenth,D6
2125,Left,1,41,107,235.5,0.239583,Sixteenth,F2
2126,Right,0,85,107,235.5,0.239583,Sixteenth,C#6
2127,Right,0,86,108,235.625,0.239583,Sixteenth,D6
2128,Left,1,53,109,235.75,0.239583,Sixteenth,F3
2129,Right,0,88,109,235.75,0.239583,Sixteenth,E6
2130,Right,0,86,110,235.875,0.239583,Sixteenth,D6
2131,Left,1,43,110,236.0,0.239583,Sixteenth,G2
2132,Right,0,84,110,236.0,0.239583,Sixteenth,C6
2133,Right,0,82,110,236.125,0.239583,Sixteenth,A#5
2135,Right,0,81,110,236.25,0.239583,Sixteenth,A5
2134,Left,1,55,110,236.25,0.239583,Sixteenth,G3
2136,Right,0,79,110,236.375,0.239583,Sixteenth,G5
2137,Right,0,77,110,236.5,0.239583,Sixteenth,F5
2138,Left,1,46,110,236.5,0.239583,Sixteenth,A#2
2139,Right,0,76,110,236.625,0.239583,Sixteenth,E5
2140,Right,0,77,110,236.75,0.239583,Sixteenth,F5
2141,Left,1,58,110,236.75,0.239583,Sixteenth,A#3
2142,Right,0,79,110,236.875,0.239583,Sixteenth,G5
2143,Left,1,45,110,237.0,0.239583,Sixteenth,A2
2144,Right,0,80,110,237.0,0.239583,Sixteenth,G#5
2145,Right,0,81,110,237.125,0.239583,Sixteenth,A5
2146,Left,1,57,110,237.25,0.239583,Sixteenth,F3_A3
2148,Right,0,74,110,237.375,0.114583,ThirtySecond,D5
2150,Right,0,80,110,237.5,0.239583,Sixteenth,G#5
2149,Left,1,45,110,237.5,0.239583,Sixteenth,A2
2151,Right,0,81,110,237.625,0.239583,Sixteenth,A5
2152,Left,1,52,110,237.75,0.239583,Sixteenth,G3_E3
2154,Right,0,73,110,237.875,0.114583,ThirtySecond,C#5
2155,Right,0,80,110,238.0,0.239583,Sixteenth,G#5
2156,Left,1,50,110,238.0,0.239583,Sixteenth,D3
2157,Right,0,81,110,238.125,0.239583,Sixteenth,A5
2159,Right,0,73,110,238.25,0.239583,Sixteenth,C#5
2158,Left,1,55,110,238.25,0.239583,Sixteenth,G3_E4
2161,Right,0,81,110,238.375,0.239583,Sixteenth,A5
2163,Left,1,50,110,238.5,0.239583,Sixteenth,D3
2162,Right,0,80,110,238.5,0.239583,Sixteenth,G#5
2164,Right,0,81,110,238.625,0.239583,Sixteenth,A5
2166,Left,1,55,110,238.75,0.239583,Sixteenth,G3_E4
2165,Right,0,73,110,238.75,0.239583,Sixteenth,C#5
2168,Right,0,81,110,238.875,0.239583,Sixteenth,A5
2169,Left,1,53,110,239.0,0.239583,Sixteenth,F3_D4_D3
2172,Right,0,74,110,239.0,0.239583,Sixteenth,D5
2173,Left,1,58,110,239.125,0.239583,Sixteenth,A#3
2174,Right,0,70,110,239.125,0.239583,Sixteenth,A#4
2175,Left,1,57,105,239.25,0.239583,Sixteenth,A3
2176,Right,0,69,105,239.25,0.239583,Sixteenth,A4
2177,Left,1,56,99,239.375,0.239583,Sixteenth,G#3
2178,Right,0,68,99,239.375,0.239583,Sixteenth,G#4
2179,Left,1,57,93,239.5,0.239583,Sixteenth,A3
2180,Right,0,69,93,239.5,0.239583,Sixteenth,A4
2181,Right,0,67,87,239.625,0.239583,Sixteenth,G4
2182,Left,1,55,87,239.625,0.239583,Sixteenth,G3
2184,Left,1,53,81,239.75,0.239583,Sixteenth,F3
2183,Right,0,65,81,239.75,0.239583,Sixteenth,F4
2186,Right,0,64,80,239.875,0.239583,Sixteenth,E4
2185,Left,1,52,80,239.875,0.239583,Sixteenth,E3
2187,Left,1,53,80,240.0,0.989583,Quarter,F3_D3
2188,Right,0,57,80,240.0,0.989583,Quarter,D4_A3
2193,Right,0,57,80,241.0,0.989583,Quarter,A4_A3
2191,Left,1,49,80,241.0,0.989583,Quarter,E3_C#3
2195,Right,0,67,80,242.0,1.489583,Eighth,G4_A3
2197,Left,1,53,80,242.0,1.489583,DottedQuarter,F3_D3
2199,Right,0,65,80,242.5,0.364583,DottedSixteenth,F4
2200,Right,0,64,80,242.875,0.114583,ThirtySecond,E4
2201,Right,0,62,80,243.0,0.489583,Eighth,D4
2202,Right,0,62,80,243.5,0.489583,Eighth,D4_A3
2204,Left,1,50,80,243.5,0.489583,Eighth,F2_D3
2206,Left,1,43,80,244.0,0.489583,Eighth,G2_D3
2208,Right,0,58,80,244.0,0.489583,Eighth,E4_D4_A#3
2211,Left,1,45,89,244.5,0.489583,Eighth,D3_A2
2213,Right,0,64,89,244.5,0.489583,Eighth,E4_D4_A3
2216,Right,0,64,99,245.0,0.489583,Eighth,G3_E4_D4
2219,Left,1,46,99,245.0,0.489583,Eighth,D3_A#2
2222,Right,0,64,109,245.5,0.489583,Eighth,E4_D4_A3
2221,Left,1,45,109,245.5,0.489583,Eighth,D3_A2
2228,Left,1,43,80,246.0,1.989583,Half,G2_D3
2226,Right,0,62,80,246.0,1.989583,Half,E4_D4_A#3
2231,Right,0,64,80,248.0,0.489583,Eighth,E4_D4_B3
2232,Left,1,50,80,248.0,0.489583,Eighth,G#2_D3
2236,Left,1,50,89,248.5,0.489583,Eighth,D3_A2
2237,Right,0,57,89,248.5,0.489583,Eighth,E4_D4_A3
2241,Right,0,56,99,249.0,0.489583,Eighth,G#3_E4_D4
2242,Left,1,47,99,249.0,0.489583,Eighth,D3_B2
2247,Right,0,64,109,249.5,0.489583,Eighth,E4_D4_A3
2246,Left,1,50,109,249.5,0.489583,Eighth,D3_A2
2251,Left,1,50,80,250.0,1.989583,Half,G#2_D3
2252,Right,0,62,80,250.0,1.989583,Half,E4_D4_B3
2257,Left,1,45,80,252.0,0.364583,DottedSixteenth,A2_A1
2256,Right,0,64,80,252.0,0.364583,DottedSixteenth,E4_C#4_A3
2261,Right,0,64,80,252.375,0.114583,ThirtySecond,E4_C#4_A3
2264,Left,1,45,80,252.375,0.114583,ThirtySecond,A2_A1
2266,Left,1,33,80,252.5,0.489583,Eighth,A2_A1
2267,Right,0,64,80,252.5,0.489583,Eighth,E4_C#4_A3
2271,Right,0,73,80,253.0,0.3125,Triplet,C#5
2272,Right,0,82,80,253.166667,0.322917,Triplet,A#5
2273,Right,0,81,80,253.333333,0.302083,Triplet,A5
2274,Right,0,82,80,253.5,0.302083,Triplet,A#5
2275,Right,0,79,80,253.666667,0.322917,Triplet,G5
2276,Right,0,76,80,253.833333,0.15625,TripletSixteenth,E5
2279,Right,0,62,80,254.0,0.364583,DottedSixteenth,F4_D4_A3
2277,Left,1,50,80,254.0,0.364583,DottedSixteenth,F3_D3_A2
2286,Right,0,65,86,254.375,0.114583,ThirtySecond,F4_D4_A3
2283,Left,1,53,86,254.375,0.114583,ThirtySecond,F3_D3_A2
2289,Right,0,57,88,254.5,0.489583,Eighth,F4_D4_A3
2290,Left,1,50,88,254.5,0.489583,Eighth,F3_D3_A2
2295,Right,0,77,96,255.0,0.302083,Triplet,F5
2296,Right,0,86,98,255.166667,0.270833,Sixteenth,D6
2297,Right,0,85,101,255.333333,0.3125,Triplet,C#6
2298,Right,0,86,104,255.5,0.322917,Triplet,D6
2299,Right,0,81,107,255.666667,0.322917,Triplet,A5
2300,Right,0,77,109,255.833333,0.15625,TripletSixteenth,F5
2305,Right,0,58,110,256.0,0.364583,DottedSixteenth,G4_E4_C#4_A#3
2301,Left,1,55,110,256.0,0.364583,DottedSixteenth,G3_E3_C#3_A2
2311,Left,1,52,110,256.375,0.114583,ThirtySecond,G3_E3_C#3_A2
2309,Right,0,64,110,256.375,0.114583,ThirtySecond,G4_E4_C#4_A#3
2317,Left,1,49,110,256.5,0.489583,Eighth,G3_E3_C#3_A2
2320,Right,0,64,110,256.5,0.489583,Eighth,G4_E4_C#4_A#3
2325,Right,0,79,100,257.0,0.291667,Triplet,G5
2326,Right,0,88,97,257.166667,0.302083,Triplet,E6
2327,Right,0,87,94,257.333333,0.3125,Triplet,D#6
2328,Right,0,88,91,257.5,0.302083,Triplet,E6
2329,Right,0,85,87,257.666667,0.302083,Triplet,C#6
2330,Right,0,82,84,257.833333,0.3125,Triplet,A#5
2331,Right,0,79,81,258.0,0.302083,Triplet,G5
2332,Right,0,88,80,258.166667,0.291667,Triplet,E6
2333,Right,0,87,80,258.333333,0.302083,Triplet,D#6
2334,Right,0,88,80,258.5,0.291667,Triplet,E6
2335,Right,0,85,80,258.666667,0.291667,Triplet,C#6
2336,Right,0,82,80,258.833333,0.291667,Triplet,A#5
2337,Right,0,79,80,259.0,0.3125,Triplet,G5
2338,Right,0,85,80,259.166667,0.291667,Triplet,C#6
2339,Right,0,84,80,259.333333,0.270833,Sixteenth,C6
2340,Right,0,85,80,259.5,0.302083,Triplet,C#6
2341,Right,0,82,80,259.666667,0.270833,Sixteenth,A#5
2342,Right,0,79,80,259.833333,0.322917,Triplet,G5
2343,Right,0,76,80,260.0,0.3125,Triplet,E5
2344,Right,0,73,81,260.166667,0.260417,Sixteenth,C#5
2345,Right,0,70,83,260.333333,0.322917,Triplet,A#4
2346,Right,0,67,85,260.5,0.270833,Sixteenth,G4
2347,Right,0,64,87,260.666667,0.270833,Sixteenth,E4
2348,Right,0,61,89,260.833333,0.291667,Triplet,C#4
2349,Left,1,58,91,261.0,0.239583,Sixteenth,A#3
2350,Left,1,55,94,261.25,0.239583,Sixteenth,G3
2351,Left,1,52,97,261.5,0.239583,Sixteenth,E3
2352,Left,1,49,99,261.75,0.239583,Sixteenth,C#3
2353,Left,1,46,101,262.0,1.989583,Half,A#2
2354,Left,1,43,101,262.5,1.114583,TiedQuarter-ThirtySecond,G2
2355,Left,1,41,80,263.625,0.114583,ThirtySecond,F2
2356,Left,1,39,80,263.75,0.114583,ThirtySecond,D#2
2357,Left,1,38,80,263.875,0.114583,ThirtySecond,D2
2358,Left,1,45,80,264.0,1.989583,Quarter,C#2_A2
2360,Left,1,55,80,265.0,0.989583,Quarter,G3
2361,Left,1,38,80,266.0,0.989583,Quarter,D2
2362,Left,1,53,80,266.5,0.239583,Sixteenth,F3
2363,Left,1,62,80,266.75,0.239583,Sixteenth,D4
2364,Left,1,31,80,267.0,0.989583,Quarter,G1
2365,Right,0,62,80,267.5,0.322917,Triplet,D4
2366,Right,0,70,79,267.75,0.25,Sixteenth,A#4
2367,Left,1,33,77,268.0,1.989583,Half,A1
2368,Right,0,65,73,268.5,0.239583,Sixteenth,F4
2369,Right,0,69,71,268.75,0.239583,Sixteenth,A4
2370,Left,1,45,70,269.0,0.989583,Quarter,A2
2371,Right,0,79,70,269.5,0.239583,Sixteenth,G5
2372,Right,0,85,70,269.75,0.239583,Sixteenth,C#6
2373,Left,1,38,85,270.0,1.989583,Half,D2_A2
2374,Right,0,85,85,270.0,1.989583,Quarter,G5_C#6
2377,Right,0,86,70,271.0,0.239583,Sixteenth,D6
2378,Right,0,85,70,271.125,0.239583,Sixteenth,C#6
2379,Right,0,83,70,271.25,0.239583,Sixteenth,B5
2380,Right,0,85,70,271.375,0.239583,Sixteenth,C#6
2381,Right,0,88,90,271.5,0.302083,Triplet,E6
2382,Right,0,86,70,271.802083,0.177083,TripletSixteenth,D6
2385,Left,1,45,70,272.0,1.989583,Half,D2_A2
2383,Right,0,77,70,272.0,1.989583,Half,F5_D6
