,hand,channel,note,velocity,start_beat,duration,note_value,chord
0,Left,1,45,80,0.0,0.979167,Eighth,A2
1,Left,1,38,80,1.0,1.979167,Quarter,D2
2,Left,1,45,80,3.0,0.979167,Eighth,A2
3,Left,1,38,80,4.0,1.979167,Quarter,D2
4,Left,1,47,80,6.0,0.979167,Eighth,B2
5,Left,1,38,80,7.0,1.979167,Quarter,D2
6,Left,1,49,80,9.0,0.979167,Eighth,C#3
7,Left,1,38,80,10.0,1.979167,Quarter,D2
9,Right,0,81,80,12.0,1.979167,Quarter,A5
8,Left,1,50,80,12.0,0.979167,Eighth,D3
11,Left,1,38,80,13.0,1.979167,Quarter,D2
10,Right,0,69,80,13.0,2.979167,DottedQuarter,A4
12,Right,0,79,80,14.0,0.979167,Eighth,G5
14,Left,1,42,80,15.0,0.979167,Eighth,F#2
13,Right,0,78,80,15.0,0.979167,Eighth,F#5
17,Left,1,38,80,16.0,1.979167,Quarter,D2
15,Right,0,76,80,16.0,2.979167,Eighth,E5_B4
18,Right,0,78,80,17.0,0.979167,Eighth,F#5
19,Right,0,74,80,18.0,0.979167,Eighth,D5
20,Left,1,43,80,18.0,0.979167,Eighth,G2
21,Right,0,71,80,19.0,1.979167,Eighth,G4_B4
23,Left,1,38,80,19.0,1.979167,Quarter,D2
24,Right,0,76,80,20.0,0.979167,Eighth,E5
25,Right,0,73,80,21.0,0.979167,Eighth,G4_C#5
27,Left,1,45,80,21.0,0.979167,Eighth,A2
28,Left,1,38,80,22.0,1.979167,Quarter,D2
29,Right,0,66,80,22.0,0.979167,Eighth,F#4_D5
31,Left,1,45,80,24.0,0.979167,Eighth,A2
32,Left,1,38,80,25.0,1.979167,Quarter,D2
33,Left,1,45,80,27.0,0.979167,Eighth,A2
34,Left,1,38,80,28.0,1.979167,Quarter,D2
35,Left,1,47,80,30.0,0.979167,Eighth,B2
36,Left,1,38,80,31.0,1.979167,Quarter,D2
37,Left,1,49,80,33.0,0.979167,Eighth,C#3
38,Left,1,38,80,34.0,1.979167,Quarter,D2
40,Right,0,81,80,36.0,1.979167,Quarter,A5
39,Left,1,50,80,36.0,0.979167,Eighth,D3
42,Left,1,38,80,37.0,1.979167,Quarter,D2
41,Right,0,69,80,37.0,2.979167,DottedQuarter,A4
43,Right,0,79,80,38.0,0.979167,Eighth,G5
44,Right,0,78,80,39.0,0.979167,Eighth,F#5
45,Left,1,42,80,39.0,0.979167,Eighth,F#2
46,Right,0,71,80,40.0,2.979167,DottedQuarter,E5_B4
48,Left,1,38,80,40.0,1.979167,Quarter,D2
49,Right,0,78,80,41.0,0.979167,Eighth,F#5
50,Right,0,74,80,42.0,0.979167,Eighth,D5
51,Left,1,43,80,42.0,0.979167,Eighth,G2
52,Right,0,67,80,43.0,1.979167,Quarter,G4_B4
53,Left,1,38,80,43.0,1.979167,Quarter,D2
55,Right,0,76,80,44.0,0.979167,Eighth,E5
56,Right,0,73,80,45.0,0.979167,Eighth,G4_C#5
58,Left,1,45,80,45.0,0.979167,Eighth,A2
59,Left,1,38,80,46.0,1.979167,Quarter,D2
60,Right,0,74,80,46.0,0.979167,Eighth,F#4_D5
62,Right,0,74,80,48.0,2.979167,DottedQuarter,F#4_D5
64,Left,1,50,80,48.0,0.979167,Eighth,D3
65,Right,0,67,80,49.0,3.979167,Half,G4
66,Left,1,38,80,49.0,1.979167,Quarter,D2
67,Right,0,73,80,51.0,0.979167,Eighth,C#5
68,Left,1,52,80,51.0,0.979167,Eighth,E3
70,Left,1,38,80,52.0,1.979167,Quarter,D2
69,Right,0,81,90,52.0,0.979167,Eighth,A5
71,Left,1,45,80,54.0,0.979167,Eighth,A2
72,Right,0,67,80,54.0,0.979167,Eighth,G4_C#5
75,Right,0,66,80,55.0,3.979167,Half,F#4_E5
74,Left,1,38,80,55.0,1.979167,Quarter,D2
78,Right,0,74,80,57.0,0.979167,Eighth,D5
77,Left,1,50,80,57.0,0.979167,Eighth,D3
80,Right,0,81,90,58.0,0.979167,Eighth,A5
79,Left,1,38,80,58.0,1.979167,Quarter,D2
83,Left,1,45,80,60.0,0.979167,Eighth,A2
81,Right,0,74,80,60.0,2.979167,DottedQuarter,F#4_D5
85,Left,1,38,80,61.0,1.979167,Quarter,D2
84,Right,0,67,80,61.0,3.979167,Half,G4
86,Left,1,52,80,63.0,0.979167,Eighth,E3
87,Right,0,73,80,63.0,0.979167,Eighth,C#5
88,Right,0,81,90,64.0,0.979167,Eighth,A5
89,Left,1,38,80,64.0,1.979167,Quarter,D2
92,Left,1,45,80,66.0,0.979167,Eighth,A2
90,Right,0,73,80,66.0,0.979167,Eighth,G4_C#5
94,Right,0,66,80,67.0,1.979167,Quarter,F#4_D5
93,Left,1,38,80,67.0,1.979167,Quarter,D2
96,Left,1,50,80,69.0,0.979167,Eighth,D3
97,Left,1,38,80,70.0,1.979167,Quarter,D2
98,Left,1,45,80,72.0,0.979167,Eighth,A2
99,Right,0,66,80,72.0,2.479167,Eighth,F#4_D5
101,Left,1,38,80,73.0,1.979167,Quarter,D2
102,Right,0,67,80,73.0,3.979167,Half,G4
103,Right,0,73,80,74.5,0.479167,Sixteenth,C#5
105,Right,0,71,80,75.0,0.479167,Sixteenth,B4
104,Left,1,52,80,75.0,0.979167,Eighth,E3
106,Right,0,73,80,75.5,0.479167,Sixteenth,C#5
108,Left,1,38,80,76.0,1.979167,Quarter,D2
107,Right,0,81,90,76.0,0.979167,Eighth,A5
109,Right,0,67,80,78.0,0.979167,Eighth,G4_C#5
110,Left,1,45,80,78.0,0.979167,Eighth,A2
113,Left,1,38,80,79.0,1.979167,Quarter,D2
112,Right,0,76,80,79.0,3.979167,DottedEighth,F#4_E5
115,Right,0,74,80,80.5,0.479167,Sixteenth,D5
117,Left,1,50,80,81.0,0.979167,Eighth,D3
116,Right,0,73,80,81.0,0.479167,Sixteenth,C#5
118,Right,0,74,80,81.5,0.479167,Sixteenth,D5
120,Left,1,38,80,82.0,1.979167,Quarter,D2
119,Right,0,81,90,82.0,0.979167,Eighth,A5
121,Right,0,74,80,84.0,2.479167,TiedQuarter-Sixteenth,F#4_D5
123,Left,1,45,80,84.0,0.979167,Eighth,A2
125,Right,0,67,80,85.0,3.979167,Half,G4
124,Left,1,38,80,85.0,1.979167,Quarter,D2
126,Right,0,73,80,86.5,0.479167,Sixteenth,C#5
127,Left,1,52,80,87.0,0.979167,Eighth,E3
128,Right,0,71,80,87.0,0.479167,Sixteenth,B4
129,Right,0,73,80,87.5,0.479167,Sixteenth,C#5
131,Left,1,38,80,88.0,1.979167,Quarter,D2
130,Right,0,81,90,88.0,0.979167,Eighth,A5
133,Left,1,45,80,90.0,0.979167,Eighth,A2
132,Right,0,67,80,90.0,0.979167,Eighth,G4_C#5
137,Left,1,38,80,91.0,1.979167,Quarter,D2
135,Right,0,74,80,91.0,1.979167,Quarter,F#4_D5
138,Left,1,50,80,93.0,0.979167,Eighth,D3
139,Left,1,45,80,94.0,1.979167,Quarter,A2
140,Right,0,62,80,96.0,0.479167,Sixteenth,D4
141,Left,1,42,80,96.0,0.979167,Eighth,F#2
142,Right,0,57,80,96.5,0.479167,Sixteenth,A3
143,Left,1,38,80,97.0,0.479167,Sixteenth,D2
144,Left,1,42,80,97.5,0.479167,Sixteenth,F#2
146,Left,1,45,80,98.0,0.479167,Sixteenth,A2
145,Right,0,54,80,98.0,0.479167,Sixteenth,F#3
147,Right,0,57,80,98.5,0.479167,Sixteenth,A3
148,Left,1,50,80,98.5,0.479167,Sixteenth,D3
149,Right,0,62,80,99.0,0.479167,Sixteenth,D4
150,Right,0,66,80,99.5,0.479167,Sixteenth,F#4
151,Left,1,49,80,100.0,0.479167,Sixteenth,C#3
152,Left,1,52,80,100.5,0.479167,Sixteenth,E3
154,Left,1,57,80,101.0,0.479167,Sixteenth,A3
153,Right,0,64,80,101.0,0.479167,Sixteenth,E4
156,Left,1,61,80,101.5,0.479167,Sixteenth,C#4
155,Right,0,69,80,101.5,0.479167,Sixteenth,A4
157,Right,0,73,80,102.0,0.479167,Sixteenth,C#5
158,Right,0,76,80,102.5,0.479167,Sixteenth,E5
159,Left,1,47,80,103.0,0.479167,Sixteenth,B2
160,Left,1,50,80,103.5,0.479167,Sixteenth,D3
161,Right,0,62,80,104.0,0.479167,Sixteenth,D4
162,Left,1,54,80,104.0,0.479167,Sixteenth,F#3
164,Right,0,66,80,104.5,0.479167,Sixteenth,F#4
163,Left,1,59,80,104.5,0.479167,Sixteenth,B3
165,Right,0,71,80,105.0,0.479167,Sixteenth,B4
166,Right,0,74,80,105.5,0.479167,Sixteenth,D5
167,Left,1,57,80,106.0,0.479167,Sixteenth,A3
168,Left,1,61,80,106.5,0.479167,Sixteenth,C#4
170,Right,0,73,80,107.0,0.479167,Sixteenth,C#5
169,Left,1,66,80,107.0,0.479167,Sixteenth,F#4
171,Left,1,69,80,107.5,0.479167,Sixteenth,A4
172,Right,0,78,80,107.5,0.479167,Sixteenth,F#5
173,Right,0,81,80,108.0,0.479167,Sixteenth,A5
174,Right,0,85,80,108.5,0.479167,Sixteenth,C#6
175,Left,1,43,80,109.0,0.479167,Sixteenth,G2
176,Left,1,47,80,109.5,0.479167,Sixteenth,B2
177,Left,1,50,80,110.0,0.479167,Sixteenth,D3
178,Right,0,59,80,110.0,0.479167,Sixteenth,B3
180,Right,0,62,80,110.5,0.479167,Sixteenth,D4
179,Left,1,55,80,110.5,0.479167,Sixteenth,G3
181,Right,0,67,80,111.0,0.479167,Sixteenth,G4
182,Right,0,71,80,111.5,0.479167,Sixteenth,B4
183,Left,1,54,80,112.0,0.479167,Sixteenth,F#3
184,Left,1,57,80,112.5,0.479167,Sixteenth,A3
185,Left,1,62,80,113.0,0.479167,Sixteenth,D4
186,Right,0,69,80,113.0,0.479167,Sixteenth,A4
188,Right,0,74,80,113.5,0.479167,Sixteenth,D5
187,Left,1,66,80,113.5,0.479167,Sixteenth,F#4
189,Right,0,78,80,114.0,0.479167,Sixteenth,F#5
190,Right,0,81,80,114.5,0.479167,Sixteenth,A5
193,Left,1,64,80,115.0,0.979167,Eighth,E4_E3
191,Right,0,73,80,115.0,0.479167,Sixteenth,G5_C#5
195,Right,0,69,80,115.5,0.479167,Sixteenth,A4
196,Left,1,52,80,116.0,0.979167,Eighth,E4_E3
198,Right,0,73,80,116.0,0.479167,Sixteenth,G5_C#5
200,Right,0,69,80,116.5,0.479167,Sixteenth,A4
203,Left,1,62,80,117.0,0.979167,Eighth,D4_D3
201,Right,0,78,80,117.0,0.479167,Sixteenth,F#5_D5
205,Right,0,69,80,117.5,0.479167,Sixteenth,A4
207,Right,0,73,80,118.0,0.479167,Sixteenth,E5_C#5
206,Left,1,57,80,118.0,1.979167,Quarter,A3_A2
210,Right,0,74,80,118.5,0.479167,Sixteenth,D5
211,Right,0,73,80,119.0,0.479167,Sixteenth,C#5
212,Right,0,71,80,119.5,0.479167,Sixteenth,B4
213,Right,0,69,80,120.0,0.479167,Sixteenth,A4
214,Right,0,67,80,120.5,0.479167,Sixteenth,G4
215,Left,1,38,80,121.0,0.479167,Sixteenth,D2
216,Left,1,42,80,121.5,0.479167,Sixteenth,F#2
218,Right,0,54,81,122.0,0.479167,Sixteenth,F#3
217,Left,1,45,81,122.0,0.479167,Sixteenth,A2
220,Left,1,50,81,122.5,0.479167,Sixteenth,D3
219,Right,0,57,81,122.5,0.479167,Sixteenth,A3
221,Right,0,62,82,123.0,0.479167,Sixteenth,D4
222,Right,0,66,82,123.5,0.479167,Sixteenth,F#4
223,Left,1,49,83,124.0,0.479167,Sixteenth,C#3
224,Left,1,52,83,124.5,0.479167,Sixteenth,E3
225,Right,0,64,84,125.0,0.479167,Sixteenth,E4
226,Left,1,57,84,125.0,0.479167,Sixteenth,A3
227,Left,1,61,84,125.5,0.479167,Sixteenth,C#4
228,Right,0,69,84,125.5,0.479167,Sixteenth,A4
229,Right,0,73,85,126.0,0.479167,Sixteenth,C#5
230,Right,0,76,85,126.5,0.479167,Sixteenth,E5
231,Left,1,47,86,127.0,0.479167,Sixteenth,B2
232,Left,1,50,86,127.5,0.479167,Sixteenth,D3
234,Left,1,54,87,128.0,0.479167,Sixteenth,F#3
233,Right,0,62,87,128.0,0.479167,Sixteenth,D4
235,Left,1,59,87,128.5,0.479167,Sixteenth,B3
236,Right,0,66,87,128.5,0.479167,Sixteenth,F#4
237,Right,0,71,88,129.0,0.479167,Sixteenth,B4
238,Right,0,74,88,129.5,0.479167,Sixteenth,D5
239,Left,1,57,89,130.0,0.479167,Sixteenth,A3
240,Left,1,61,89,130.5,0.479167,Sixteenth,C#4
242,Right,0,73,90,131.0,0.479167,Sixteenth,C#5
241,Left,1,66,90,131.0,0.479167,Sixteenth,F#4
244,Right,0,78,90,131.5,0.479167,Sixteenth,F#5
243,Left,1,69,90,131.5,0.479167,Sixteenth,A4
245,Right,0,81,91,132.0,0.479167,Sixteenth,A5
246,Right,0,85,91,132.5,0.479167,Sixteenth,C#6
247,Left,1,44,92,133.0,0.479167,Sixteenth,G#2
248,Left,1,47,92,133.5,0.479167,Sixteenth,B2
249,Right,0,59,93,134.0,0.479167,Sixteenth,B3
250,Left,1,50,93,134.0,0.479167,Sixteenth,D3
251,Right,0,62,93,134.5,0.479167,Sixteenth,D4
252,Left,1,56,93,134.5,0.479167,Sixteenth,G#3
253,Right,0,68,94,135.0,0.479167,Sixteenth,G#4
254,Right,0,71,94,135.5,0.479167,Sixteenth,B4
255,Left,1,54,95,136.0,0.479167,Sixteenth,F#3
256,Left,1,57,96,136.5,0.479167,Sixteenth,A3
257,Right,0,69,96,137.0,0.479167,Sixteenth,A4
258,Left,1,63,96,137.0,0.479167,Sixteenth,D#4
260,Left,1,66,97,137.5,0.479167,Sixteenth,F#4
259,Right,0,75,97,137.5,0.479167,Sixteenth,D#5
261,Right,0,78,97,138.0,0.479167,Sixteenth,F#5
262,Right,0,81,98,138.5,0.479167,Sixteenth,A5
263,Left,1,40,98,139.0,0.479167,Sixteenth,E2
264,Left,1,44,99,139.5,0.479167,Sixteenth,G#2
266,Left,1,47,99,140.0,0.479167,Sixteenth,B2
265,Right,0,56,99,140.0,0.479167,Sixteenth,G#3
268,Right,0,59,100,140.5,0.479167,Sixteenth,B3
267,Left,1,52,100,140.5,0.479167,Sixteenth,E3
269,Right,0,64,100,141.0,0.479167,Sixteenth,E4
270,Right,0,68,101,141.5,0.479167,Sixteenth,G#4
271,Left,1,57,101,142.0,0.479167,Sixteenth,A3
272,Left,1,61,102,142.5,0.479167,Sixteenth,C#4
273,Right,0,73,102,143.0,0.479167,Sixteenth,C#5
274,Left,1,64,102,143.0,0.479167,Sixteenth,E4
275,Left,1,69,103,143.5,0.479167,Sixteenth,A4
276,Right,0,76,103,143.5,0.479167,Sixteenth,E5
277,Right,0,81,103,144.0,0.479167,Sixteenth,A5
278,Right,0,85,104,144.5,0.479167,Sixteenth,C#6
279,Left,1,44,104,145.0,0.479167,Sixteenth,G#2
280,Left,1,47,105,145.5,0.479167,Sixteenth,B2
282,Left,1,50,105,146.0,0.479167,Sixteenth,D3
281,Right,0,59,105,146.0,0.479167,Sixteenth,B3
283,Left,1,56,106,146.5,0.479167,Sixteenth,G#3
284,Right,0,62,106,146.5,0.479167,Sixteenth,D4
285,Right,0,68,106,147.0,0.479167,Sixteenth,G#4
286,Right,0,71,107,147.5,0.479167,Sixteenth,B4
287,Left,1,54,107,148.0,0.479167,Sixteenth,F#3
288,Left,1,57,108,148.5,0.479167,Sixteenth,A3
290,Left,1,63,108,149.0,0.479167,Sixteenth,D#4
289,Right,0,69,108,149.0,0.479167,Sixteenth,A4
291,Right,0,75,109,149.5,0.479167,Sixteenth,D#5
292,Left,1,66,109,149.5,0.479167,Sixteenth,F#4
293,Right,0,78,109,150.0,0.479167,Sixteenth,F#5
294,Right,0,81,110,150.5,0.479167,Sixteenth,A5
295,Left,1,40,110,151.0,0.479167,Sixteenth,E2
296,Left,1,44,110,151.5,0.479167,Sixteenth,G#2
298,Left,1,47,110,152.0,0.479167,Sixteenth,B2
297,Right,0,68,110,152.0,0.479167,Sixteenth,G#4
300,Right,0,71,110,152.5,0.479167,Sixteenth,B4
299,Left,1,52,110,152.5,0.479167,Sixteenth,E3
301,Right,0,76,110,153.0,0.479167,Sixteenth,E5
302,Right,0,80,110,153.5,0.479167,Sixteenth,G#5
303,Left,1,40,110,154.0,0.479167,Sixteenth,E2
304,Left,1,44,110,154.5,0.479167,Sixteenth,G#2
305,Right,0,64,110,155.0,0.479167,Sixteenth,E4
306,Left,1,47,110,155.0,0.479167,Sixteenth,B2
308,Right,0,68,110,155.5,0.479167,Sixteenth,G#4
307,Left,1,52,110,155.5,0.479167,Sixteenth,E3
309,Right,0,71,110,156.0,0.479167,Sixteenth,B4
310,Right,0,76,110,156.5,0.479167,Sixteenth,E5
311,Left,1,40,110,157.0,0.479167,Sixteenth,E2
312,Left,1,44,110,157.5,0.479167,Sixteenth,G#2
313,Right,0,59,110,158.0,0.479167,Sixteenth,B3
314,Left,1,47,110,158.0,0.479167,Sixteenth,B2
315,Right,0,64,110,158.5,0.479167,Sixteenth,E4
316,Left,1,52,110,158.5,0.479167,Sixteenth,E3
317,Right,0,68,110,159.0,0.479167,Sixteenth,G#4
318,Right,0,71,110,159.5,0.479167,Sixteenth,B4
319,Left,1,40,110,160.0,0.479167,Sixteenth,E2
320,Left,1,44,110,160.5,0.479167,Sixteenth,G#2
321,Left,1,47,110,161.0,0.479167,Sixteenth,B2
322,Right,0,56,110,161.0,0.479167,Sixteenth,G#3
323,Left,1,52,110,161.5,0.479167,Sixteenth,E3
324,Right,0,59,110,161.5,0.479167,Sixteenth,B3
325,Right,0,64,110,162.0,0.479167,Sixteenth,E4
326,Right,0,68,110,162.5,0.479167,Sixteenth,G#4
327,Left,1,40,120,163.0,4.979167,Half,E2
328,Right,0,85,80,168.0,0.979167,Eighth,C#6
329,Right,0,81,80,169.0,1.979167,Quarter,A5
330,Right,0,88,80,171.0,0.979167,Eighth,E6
331,Right,0,85,80,172.0,1.979167,Quarter,C#6
332,Right,0,81,80,174.0,0.979167,Eighth,C#5_A5
334,Right,0,76,80,175.0,1.979167,Quarter,E5_A4
336,Right,0,76,80,177.0,0.979167,Eighth,E5_C#6
338,Right,0,81,80,178.0,1.979167,Quarter,C#5_A5
341,Left,1,61,80,180.0,0.979167,Eighth,C#4
340,Right,0,69,80,180.0,5.979167,Eighth,E5_A4
343,Left,1,57,80,181.0,1.979167,Quarter,A3
344,Right,0,73,80,181.0,1.979167,Quarter,C#5
345,Left,1,64,80,183.0,0.979167,Eighth,E4
346,Right,0,69,80,183.0,0.979167,Eighth,A4
348,Right,0,64,80,184.0,1.979167,Quarter,E4
347,Left,1,61,80,184.0,1.979167,Quarter,C#4
352,Left,1,57,80,186.0,0.979167,Eighth,A3
349,Right,0,73,80,186.0,4.979167,Eighth,E5_C#5_A4
355,Left,1,64,80,187.0,1.979167,Quarter,E4
353,Right,0,71,80,187.0,1.979167,Quarter,G#4_B4
356,Left,1,52,80,189.0,0.979167,Eighth,E3
357,Right,0,74,80,189.0,0.979167,Eighth,D5_B4
360,Right,0,73,80,190.0,0.979167,Eighth,C#5_A4
359,Left,1,57,80,190.0,1.979167,Quarter,A3
362,Right,0,85,80,191.5,0.479167,Sixteenth,C#6
363,Right,0,84,80,192.0,0.479167,Sixteenth,C6
364,Right,0,85,80,192.5,0.479167,Sixteenth,C#6
365,Right,0,81,80,193.0,0.979167,Eighth,A5
366,Right,0,88,80,194.5,0.479167,Sixteenth,E6
367,Right,0,87,80,195.0,0.479167,Sixteenth,D#6
368,Right,0,88,80,195.5,0.479167,Sixteenth,E6
369,Right,0,85,80,196.0,0.979167,Eighth,C#6
370,Right,0,73,80,197.5,0.479167,Sixteenth,C#5
371,Right,0,81,80,198.0,0.979167,Eighth,C5_A5
373,Right,0,73,80,198.5,0.479167,Sixteenth,C#5
374,Right,0,76,80,199.0,0.979167,Eighth,E5_A4
376,Right,0,76,80,200.5,0.479167,Sixteenth,E5
377,Right,0,85,80,201.0,0.979167,Eighth,D#5_C#6
379,Right,0,76,80,201.5,0.479167,Sixteenth,E5
380,Right,0,81,80,202.0,0.979167,Eighth,C#5_A5
382,Left,1,61,80,203.5,0.479167,Sixteenth,C#4
383,Left,1,60,80,204.0,0.479167,Sixteenth,C4
384,Right,0,76,80,204.0,0.979167,Eighth,E5_A4
386,Left,1,61,80,204.5,0.479167,Sixteenth,C#4
388,Right,0,76,80,205.0,4.979167,Half,E5
387,Left,1,57,80,205.0,0.979167,Eighth,A3
389,Left,1,64,80,206.5,0.479167,Sixteenth,E4
391,Right,0,69,80,207.0,0.979167,Eighth,A4
390,Left,1,63,80,207.0,0.479167,Sixteenth,D#4
392,Left,1,64,80,207.5,0.479167,Sixteenth,E4
393,Left,1,61,80,208.0,0.979167,Eighth,C#4
394,Right,0,64,80,208.0,1.979167,Quarter,E4
395,Right,0,73,80,210.0,5.979167,Eighth,E5_C#5_A4
396,Left,1,57,80,210.0,0.979167,Eighth,A3
399,Left,1,64,80,211.0,1.979167,Quarter,E4
400,Right,0,68,80,211.0,1.979167,Quarter,G#4_B4
404,Left,1,52,80,213.0,0.979167,Eighth,E3
402,Right,0,74,80,213.0,0.979167,Eighth,D5_B4
407,Left,1,57,80,214.0,1.979167,Quarter,A3
405,Right,0,69,80,214.0,1.979167,Quarter,C#5_A4
409,Right,0,76,90,216.0,0.979167,Eighth,E5_C#5_A5
408,Left,1,49,80,216.0,0.979167,Eighth,C#3
414,Left,1,52,80,217.0,1.979167,Quarter,E3
412,Right,0,80,80,217.0,1.979167,Quarter,G#5_E5_B4
416,Right,0,83,80,219.0,0.979167,Eighth,E5_D5_B5
419,Left,1,40,80,219.0,0.979167,Eighth,E2
420,Right,0,76,80,220.0,1.979167,Quarter,E5_C#5_A5
423,Left,1,45,80,220.0,1.979167,Quarter,A2
424,Right,0,73,80,222.0,5.979167,Eighth,E5_C#5_A4
427,Left,1,61,80,222.0,0.979167,Eighth,C#4
429,Left,1,64,80,223.0,1.979167,Quarter,E4
428,Right,0,71,80,223.0,1.979167,Quarter,G#4_B4
431,Right,0,71,80,225.0,0.979167,Eighth,D5_B4
433,Left,1,52,80,225.0,0.979167,Eighth,E3
434,Left,1,57,80,226.0,1.979167,Quarter,A3
435,Right,0,69,80,226.0,1.979167,Quarter,C#5_A4
438,Right,0,73,90,228.0,0.979167,Eighth,E5_C#5_A5
437,Left,1,49,80,228.0,0.979167,Eighth,C#3
442,Left,1,52,80,229.0,1.979167,Quarter,E3
441,Right,0,80,80,229.0,1.979167,Quarter,G#5_E5_B4
448,Left,1,40,85,231.0,0.979167,Eighth,E2
445,Right,0,83,85,231.0,0.979167,Eighth,E5_D5_B5
450,Left,1,45,88,232.0,1.979167,Quarter,A2
449,Right,0,81,88,232.0,1.979167,Quarter,E5_C#5_A5
453,Left,1,49,94,234.0,0.979167,Eighth,C#3
454,Right,0,73,94,234.0,0.979167,Eighth,E5_C#5_A5
460,Left,1,52,96,235.0,1.979167,Quarter,E3
457,Right,0,71,96,235.0,1.979167,Quarter,G#5_E5_B4
461,Left,1,40,102,237.0,0.979167,Eighth,E2
462,Right,0,74,102,237.0,0.979167,Eighth,E5_D5_B5
466,Right,0,73,105,238.0,1.979167,Quarter,E5_C#5_A5
465,Left,1,45,105,238.0,1.979167,Quarter,A2
472,Left,1,42,110,240.0,0.979167,Eighth,F#3_F#2
469,Right,0,73,110,240.0,0.979167,Eighth,E5_C#5_A#5
474,Left,1,38,110,241.0,5.979167,DottedHalf,D3_D2
475,Right,0,83,110,241.0,5.979167,DottedHalf,F#5_D5_B5
480,Left,1,40,110,247.0,5.979167,DottedHalf,E3_E2
479,Right,0,71,110,247.0,5.979167,DottedHalf,G#5_B4
483,Right,0,81,110,247.25,0.479167,Sixteenth,A5
484,Right,0,80,110,247.5,0.479167,Sixteenth,G#5
485,Right,0,81,110,247.75,0.479167,Sixteenth,A5
486,Right,0,80,110,248.0,0.479167,Sixteenth,G#5
487,Right,0,81,110,248.25,0.479167,Sixteenth,A5
488,Right,0,80,110,248.5,0.479167,Sixteenth,G#5
489,Right,0,81,110,248.75,0.479167,Sixteenth,A5
490,Right,0,80,110,249.0,0.479167,Sixteenth,G#5
491,Right,0,81,110,249.25,0.479167,Sixteenth,A5
492,Right,0,80,110,249.5,0.479167,Sixteenth,G#5
493,Right,0,81,110,249.75,0.479167,Sixteenth,A5
494,Right,0,80,110,250.0,0.479167,Sixteenth,G#5
495,Right,0,81,110,250.25,0.479167,Sixteenth,A5
496,Right,0,80,110,250.5,0.479167,Sixteenth,G#5
497,Right,0,81,110,250.75,0.479167,Sixteenth,A5
498,Right,0,80,110,251.0,0.479167,Sixteenth,G#5
499,Right,0,81,110,251.25,0.479167,Sixteenth,A5
500,Right,0,80,110,251.5,0.479167,Sixteenth,G#5
501,Right,0,81,110,251.75,0.479167,Sixteenth,A5
502,Right,0,80,110,252.0,0.479167,Sixteenth,G#5
503,Right,0,81,110,252.25,0.479167,Sixteenth,A5
504,Right,0,78,110,252.5,0.479167,Sixteenth,F#5
505,Right,0,80,110,252.75,0.479167,Sixteenth,G#5
506,Right,0,69,110,253.0,0.479167,Sixteenth,A4
507,Left,1,33,110,253.0,11.979167,DottedQuarter,A2_A1
509,Right,0,73,110,253.5,0.479167,Sixteenth,C#5
510,Right,0,76,110,254.0,0.479167,Sixteenth,E5
511,Right,0,81,110,254.5,0.479167,Sixteenth,A5
512,Right,0,69,110,255.0,0.8125,DottedSixteenth,A4
513,Right,0,81,110,255.5,0.84375,DottedSixteenth,A5
514,Left,1,44,110,256.0,0.979167,Eighth,G#2
515,Right,0,68,110,256.0,0.833333,DottedSixteenth,G#4
516,Right,0,80,110,256.5,0.875,Eighth,G#5
517,Right,0,66,110,257.0,0.916667,Eighth,F#4
518,Left,1,42,110,257.0,0.979167,Eighth,F#2
519,Right,0,78,110,257.5,0.895833,Eighth,F#5
521,Left,1,40,110,258.0,0.979167,Eighth,E2
520,Right,0,64,110,258.0,0.916667,Eighth,E4
522,Right,0,76,110,258.5,0.875,DottedSixteenth,E5
523,Left,1,42,110,259.0,0.979167,Eighth,F#2
524,Right,0,66,110,259.0,0.895833,Eighth,F#4
525,Right,0,78,110,259.5,0.979167,Eighth,F#5
526,Right,0,64,110,260.0,0.864583,DottedSixteenth,E4
527,Left,1,40,110,260.0,0.979167,Eighth,E2
528,Right,0,76,110,260.5,0.864583,DottedSixteenth,E5
530,Right,0,62,110,261.0,0.927083,Eighth,D4
529,Left,1,38,110,261.0,0.979167,Eighth,D2
531,Right,0,74,110,261.5,0.864583,DottedSixteenth,D5
533,Right,0,61,110,262.0,0.854167,DottedSixteenth,C#4
532,Left,1,37,110,262.0,0.979167,Eighth,C#2
534,Right,0,73,110,262.5,0.916667,Eighth,C#5
535,Right,0,62,110,263.0,0.875,DottedSixteenth,D4
536,Left,1,38,110,263.0,0.979167,Eighth,D2
537,Right,0,74,110,263.5,0.864583,DottedSixteenth,D5
538,Right,0,64,110,264.0,0.864583,DottedSixteenth,E4
539,Left,1,40,110,264.0,0.979167,Eighth,E2
540,Right,0,76,110,264.5,0.885417,Eighth,E5
541,Right,0,69,110,265.0,0.854167,DottedSixteenth,A4
542,Left,1,33,110,265.0,11.979167,DottedQuarter,A2_A1
544,Right,0,73,110,265.5,0.885417,Eighth,C#5
545,Right,0,76,110,266.0,0.864583,DottedSixteenth,E5
546,Right,0,81,110,266.5,0.895833,Eighth,A5
547,Right,0,69,110,267.0,0.864583,DottedSixteenth,A4
548,Right,0,81,110,267.5,0.885417,Eighth,A5
550,Right,0,68,110,268.0,0.927083,Eighth,G#4
549,Left,1,44,110,268.0,0.979167,Eighth,G#2
551,Right,0,80,110,268.5,0.885417,Eighth,G#5
553,Right,0,66,110,269.0,0.875,Eighth,F#4
552,Left,1,42,110,269.0,0.979167,Eighth,F#2
554,Right,0,78,110,269.5,0.864583,DottedSixteenth,F#5
555,Right,0,64,110,270.0,0.927083,Eighth,E4
556,Left,1,40,110,270.0,0.979167,Eighth,E2
557,Right,0,76,110,270.5,0.875,Eighth,E5
558,Right,0,66,110,271.0,0.885417,Eighth,F#4
559,Left,1,42,110,271.0,0.979167,Eighth,F#2
560,Right,0,78,110,271.5,0.875,Eighth,F#5
562,Right,0,64,110,272.0,0.90625,Eighth,E4
561,Left,1,40,110,272.0,0.979167,Eighth,E2
563,Right,0,76,110,272.5,0.84375,DottedSixteenth,E5
565,Right,0,62,110,273.0,0.895833,Eighth,D4
564,Left,1,38,110,273.0,0.979167,Eighth,D2
566,Right,0,74,110,273.5,0.833333,DottedSixteenth,D5
568,Right,0,61,110,274.0,0.875,Eighth,C#4
567,Left,1,37,110,274.0,0.979167,Eighth,C#2
569,Right,0,73,110,274.5,0.895833,Eighth,C#5
571,Right,0,62,110,275.0,0.854167,DottedSixteenth,D4
570,Left,1,38,110,275.0,0.979167,Eighth,D2
572,Right,0,74,110,275.5,0.885417,Eighth,D5
574,Right,0,64,110,276.0,0.895833,Eighth,E4
573,Left,1,40,110,276.0,0.979167,Eighth,E2
575,Right,0,76,110,276.5,0.875,DottedSixteenth,E5
576,Right,0,69,110,277.0,0.895833,Eighth,A4
577,Left,1,33,110,277.0,11.979167,DottedQuarter,A2_A1
579,Right,0,73,110,277.5,0.875,Eighth,C#5
580,Right,0,76,110,278.0,0.833333,DottedSixteenth,E5
581,Right,0,81,110,278.5,0.875,Eighth,A5
582,Right,0,69,110,279.0,0.927083,Eighth,A4
583,Right,0,81,110,279.5,0.854167,DottedSixteenth,A5
585,Left,1,43,110,280.0,0.979167,Eighth,G2
584,Right,0,67,110,280.0,0.875,Eighth,G4
586,Right,0,79,110,280.5,0.9375,Eighth,G5
588,Right,0,66,110,281.0,0.864583,DottedSixteenth,F#4
587,Left,1,42,110,281.0,0.979167,Eighth,F#2
589,Right,0,78,110,281.5,0.854167,DottedSixteenth,F#5
590,Right,0,64,110,282.0,0.885417,Eighth,E4
591,Left,1,40,110,282.0,0.979167,Eighth,E2
592,Right,0,76,110,282.5,0.885417,Eighth,E5
594,Left,1,38,110,283.0,0.979167,Eighth,D2
593,Right,0,62,110,283.0,0.90625,Eighth,D4
595,Right,0,74,110,283.5,0.854167,DottedSixteenth,D5
596,Right,0,61,110,284.0,0.895833,Eighth,C#4
597,Left,1,37,110,284.0,0.979167,Eighth,C#2
598,Right,0,73,110,284.5,0.854167,DottedSixteenth,C#5
599,Right,0,59,110,285.0,0.875,Eighth,B3
600,Left,1,35,110,285.0,0.979167,Eighth,B1
601,Right,0,71,110,285.5,0.895833,Eighth,B4
603,Left,1,33,110,286.0,0.979167,Eighth,A1
602,Right,0,57,110,286.0,0.84375,DottedSixteenth,A3
604,Right,0,69,110,286.5,0.875,DottedSixteenth,A4
607,Right,0,55,110,287.0,0.875,Eighth,G3
605,Left,1,43,110,287.0,0.979167,Eighth,G2_G1
608,Right,0,67,110,287.5,0.885417,Eighth,G4
610,Right,0,54,110,288.0,0.864583,DottedSixteenth,F#3
609,Left,1,42,110,288.0,0.979167,Eighth,F#2_F#1
612,Right,0,66,110,288.5,0.479167,Sixteenth,F#4
615,Right,0,67,110,289.0,1.979167,Quarter,G4_G3
613,Left,1,43,110,289.0,1.979167,Quarter,G2_G1
619,Left,1,32,110,295.0,1.979167,Quarter,G#2_G#1
617,Right,0,56,110,295.0,1.979167,Quarter,G#4_G#3
621,Left,1,45,80,306.0,0.979167,Eighth,A2
622,Left,1,38,80,307.0,1.979167,Quarter,D2
623,Left,1,45,80,309.0,0.979167,Eighth,A2
624,Left,1,38,80,310.0,1.979167,Quarter,D2
625,Left,1,47,80,312.0,0.979167,Eighth,B2
626,Left,1,38,80,313.0,1.979167,Quarter,D2
627,Left,1,49,80,315.0,0.979167,Eighth,C#3
628,Left,1,38,80,316.0,1.979167,Quarter,D2
630,Right,0,81,80,318.0,1.979167,Quarter,A5
629,Left,1,50,80,318.0,0.979167,Eighth,D3
632,Right,0,69,80,319.0,2.979167,DottedQuarter,A4
631,Left,1,38,80,319.0,1.979167,Quarter,D2
633,Right,0,79,80,320.0,0.979167,Eighth,G5
634,Left,1,42,80,321.0,0.979167,Eighth,F#2
635,Right,0,78,80,321.0,0.979167,Eighth,F#5
637,Left,1,38,80,322.0,1.979167,Quarter,D2
636,Right,0,71,80,322.0,2.979167,DottedQuarter,E5_B4
639,Right,0,78,80,323.0,0.979167,Eighth,F#5
640,Right,0,74,80,324.0,0.979167,Eighth,D5
641,Left,1,43,80,324.0,0.979167,Eighth,G2
642,Right,0,67,80,325.0,1.979167,Quarter,G4_B4
644,Left,1,38,80,325.0,1.979167,Quarter,D2
645,Right,0,76,80,326.0,0.979167,Eighth,E5
646,Right,0,67,80,327.0,0.979167,Eighth,G4_C#5
648,Left,1,45,80,327.0,0.979167,Eighth,A2
651,Left,1,38,80,328.0,1.979167,Quarter,D2
649,Right,0,74,80,328.0,0.979167,Eighth,F#4_D5
652,Left,1,45,80,330.0,0.979167,Eighth,A2
653,Left,1,38,80,331.0,1.979167,Quarter,D2
654,Right,0,74,80,332.5,0.479167,Sixteenth,D5
655,Right,0,78,80,333.0,0.479167,Sixteenth,F#5
656,Left,1,45,80,333.0,0.979167,Eighth,A2
657,Right,0,66,80,333.5,0.479167,Sixteenth,F#4
659,Left,1,38,80,334.0,1.979167,Quarter,D2
658,Right,0,69,80,334.0,1.979167,Quarter,A4
661,Left,1,47,80,336.0,0.979167,Eighth,B2
660,Right,0,67,80,336.0,0.979167,Eighth,G4
662,Left,1,38,80,337.0,1.979167,Quarter,D2
663,Right,0,87,80,338.5,0.479167,Sixteenth,D#6
664,Left,1,49,80,339.0,0.979167,Eighth,C#3
665,Right,0,88,80,339.0,0.479167,Sixteenth,E6
666,Right,0,76,80,339.5,0.479167,Sixteenth,E5
668,Right,0,79,80,340.0,1.979167,Quarter,G5
667,Left,1,38,80,340.0,1.979167,Quarter,D2
669,Right,0,78,80,342.0,0.979167,Eighth,F#5
670,Left,1,50,80,342.0,0.979167,Eighth,D3
671,Left,1,38,80,343.0,1.979167,Quarter,D2
672,Right,0,81,80,343.0,2.979167,Eighth,A5_A4
674,Right,0,79,80,344.0,0.979167,Eighth,G5
675,Left,1,42,80,345.0,0.979167,Eighth,F#2
676,Right,0,78,80,345.0,0.979167,Eighth,F#5
678,Left,1,38,80,346.0,1.979167,Quarter,D2
677,Right,0,76,80,346.0,2.979167,Eighth,E5_B4
680,Right,0,78,80,347.0,0.979167,Eighth,F#5
682,Left,1,43,80,348.0,0.979167,Eighth,G2
681,Right,0,74,80,348.0,0.979167,Eighth,D5
685,Left,1,38,80,349.0,1.979167,Quarter,D2
683,Right,0,71,80,349.0,1.979167,Eighth,G4_B4
686,Right,0,76,80,350.0,0.979167,Eighth,E5
688,Right,0,67,80,351.0,0.979167,Eighth,G4_C#5
687,Left,1,45,80,351.0,0.979167,Eighth,A2
691,Right,0,66,80,352.0,0.979167,Eighth,F#4_D5
690,Left,1,38,80,352.0,1.979167,Quarter,D2
693,Right,0,74,80,354.0,2.979167,DottedQuarter,F#4_D5
695,Left,1,50,80,354.0,0.979167,Eighth,D3
696,Left,1,38,80,355.0,1.979167,Quarter,D2
697,Right,0,67,80,355.0,3.979167,Half,G4
698,Left,1,52,80,357.0,0.979167,Eighth,E3
699,Right,0,73,80,357.0,0.979167,Eighth,C#5
700,Left,1,38,80,358.0,1.979167,Quarter,D2
701,Right,0,81,90,358.0,1.979167,Quarter,A5
702,Right,0,73,80,360.0,0.979167,Eighth,G4_C#5
704,Left,1,45,80,360.0,0.979167,Eighth,A2
705,Right,0,76,80,361.0,3.979167,Quarter,F#4_E5
707,Left,1,38,80,361.0,1.979167,Quarter,D2
708,Right,0,74,80,363.0,0.979167,Eighth,D5
709,Left,1,50,80,363.0,0.979167,Eighth,D3
710,Right,0,81,90,364.0,1.979167,Quarter,A5
711,Left,1,38,80,364.0,1.979167,Quarter,D2
712,Right,0,66,80,366.0,2.979167,Eighth,F#4_D5
714,Left,1,45,80,366.0,0.979167,Eighth,A2
716,Right,0,67,80,367.0,3.979167,Half,G4
715,Left,1,38,80,367.0,1.979167,Quarter,D2
717,Right,0,73,80,369.0,0.979167,Eighth,C#5
718,Left,1,52,80,369.0,0.979167,Eighth,E3
719,Left,1,38,80,370.0,1.979167,Quarter,D2
720,Right,0,81,90,370.0,1.979167,Quarter,A5
722,Left,1,45,80,372.0,0.979167,Eighth,A2
721,Right,0,67,80,372.0,0.979167,Eighth,G4_C#5
726,Left,1,38,80,373.0,1.979167,Quarter,D2
724,Right,0,66,80,373.0,1.979167,Quarter,F#4_D5
727,Left,1,50,80,375.0,0.979167,Eighth,D3
728,Left,1,38,80,376.0,1.979167,Quarter,D2
731,Left,1,49,80,378.0,0.979167,Eighth,C#3
729,Right,0,74,80,378.0,2.479167,TiedQuarter-Sixteenth,F#4_D5
733,Right,0,67,80,379.0,3.979167,Half,G4
732,Left,1,38,80,379.0,1.979167,Quarter,D2
734,Right,0,73,80,380.5,0.479167,Sixteenth,C#5
736,Right,0,72,80,381.0,0.479167,Sixteenth,C5
735,Left,1,52,80,381.0,0.979167,Eighth,E3
737,Right,0,73,80,381.5,0.479167,Sixteenth,C#5
738,Left,1,38,80,382.0,1.979167,Quarter,D2
739,Right,0,81,90,382.0,1.979167,Quarter,A5
740,Left,1,45,80,384.0,0.979167,Eighth,A2
741,Right,0,67,80,384.0,0.979167,Eighth,G4_C#5
745,Left,1,38,80,385.0,1.979167,Quarter,D2
743,Right,0,76,80,385.0,3.979167,DottedEighth,F#4_E5
746,Right,0,74,80,386.5,0.479167,Sixteenth,D5
748,Left,1,50,80,387.0,0.979167,Eighth,D3
747,Right,0,73,80,387.0,0.479167,Sixteenth,C#5
749,Right,0,74,80,387.5,0.479167,Sixteenth,D5
750,Left,1,38,80,388.0,1.979167,Quarter,D2
751,Right,0,81,90,388.0,1.979167,Quarter,A5
753,Right,0,66,80,390.0,2.479167,Eighth,F#4_D5
752,Left,1,45,80,390.0,0.979167,Eighth,A2
756,Left,1,38,80,391.0,1.979167,Quarter,D2
755,Right,0,67,80,391.0,3.979167,Half,G4
757,Right,0,73,80,392.5,0.479167,Sixteenth,C#5
758,Left,1,52,80,393.0,0.979167,Eighth,E3
759,Right,0,72,80,393.0,0.479167,Sixteenth,C5
760,Right,0,73,80,393.5,0.479167,Sixteenth,C#5
762,Left,1,38,80,394.0,1.979167,Quarter,D2
761,Right,0,81,90,394.0,1.979167,Quarter,A5
763,Left,1,45,80,396.0,0.979167,Eighth,A2
764,Right,0,67,80,396.0,0.979167,Eighth,G4_C#5
768,Left,1,38,80,397.0,1.979167,Quarter,D2
766,Right,0,74,80,397.0,0.979167,Eighth,F#4_D5
769,Right,0,74,80,399.0,0.979167,Eighth,D5
770,Right,0,69,80,400.0,1.979167,Quarter,A4
771,Right,0,66,80,402.0,0.979167,Eighth,F#4
772,Left,1,38,80,403.0,0.979167,Eighth,D2
773,Right,0,62,80,403.0,1.979167,Quarter,D4
774,Left,1,54,80,404.0,0.979167,Eighth,F#3
775,Right,0,74,80,405.0,0.979167,Eighth,D5
777,Right,0,62,80,406.0,1.979167,Quarter,D4
776,Left,1,40,80,406.0,0.979167,Eighth,E2
778,Left,1,55,80,407.0,0.979167,Eighth,G3
779,Right,0,73,80,408.0,0.979167,Eighth,C#5
781,Right,0,62,80,409.0,1.979167,Quarter,D4
780,Left,1,42,80,409.0,0.979167,Eighth,F#2
782,Left,1,57,80,410.0,0.979167,Eighth,A3
783,Right,0,72,80,411.0,0.979167,Eighth,C5
784,Left,1,45,80,412.0,0.979167,Eighth,A2
785,Right,0,62,80,412.0,1.979167,Quarter,D4
786,Left,1,59,80,413.0,0.979167,Eighth,B3
787,Right,0,71,80,414.0,0.979167,Eighth,B4
789,Right,0,64,80,415.0,1.979167,Quarter,E4
788,Left,1,48,80,415.0,0.979167,Eighth,C3
790,Left,1,60,80,416.0,0.979167,Eighth,C4
791,Right,0,69,80,417.0,0.979167,Eighth,A4
793,Left,1,49,80,418.0,0.979167,Eighth,C#3
792,Right,0,64,80,418.0,1.979167,Quarter,E4
794,Left,1,58,80,419.0,0.979167,Eighth,A#3
795,Right,0,67,80,420.0,0.979167,Eighth,G4
796,Right,0,62,80,421.0,1.979167,Quarter,D4
797,Left,1,50,80,421.0,0.979167,Eighth,D3
798,Left,1,57,80,422.0,0.979167,Eighth,A3
799,Right,0,66,80,423.0,0.979167,Eighth,F#4
800,Right,0,62,80,424.0,0.979167,Eighth,D4
801,Right,0,74,80,425.0,0.979167,Eighth,D5
802,Right,0,74,80,426.0,0.979167,Eighth,D5
804,Left,1,50,80,427.0,0.979167,Eighth,D3
803,Right,0,74,80,427.0,1.979167,Quarter,D5
805,Left,1,66,80,428.0,0.979167,Eighth,F#4
806,Right,0,86,80,429.0,0.979167,Eighth,D6
808,Left,1,52,80,430.0,0.979167,Eighth,E3
807,Right,0,74,80,430.0,1.979167,Quarter,D5
809,Left,1,67,80,431.0,0.979167,Eighth,G4
810,Right,0,85,80,432.0,0.979167,Eighth,C#6
812,Left,1,54,80,433.0,0.979167,Eighth,F#3
811,Right,0,74,80,433.0,1.979167,Quarter,D5
813,Left,1,69,80,434.0,0.979167,Eighth,A4
814,Right,0,84,80,435.0,0.979167,Eighth,C6
816,Right,0,74,80,436.0,1.979167,Quarter,D5
815,Left,1,55,80,436.0,0.979167,Eighth,G3
817,Left,1,71,80,437.0,0.979167,Eighth,B4
818,Right,0,83,80,438.0,0.979167,Eighth,B5
819,Left,1,48,80,439.0,0.979167,Eighth,C3
820,Right,0,76,80,439.0,1.979167,Quarter,E5
821,Left,1,72,80,440.0,0.979167,Eighth,C5
822,Right,0,81,80,441.0,0.979167,Eighth,A5
823,Right,0,72,80,442.0,1.979167,Quarter,C5
824,Left,1,50,80,442.0,0.979167,Eighth,D3
825,Left,1,69,80,443.0,0.979167,Eighth,A4
826,Right,0,78,80,444.0,0.979167,Eighth,F#5
828,Right,0,71,80,445.0,1.979167,Quarter,B4
827,Left,1,55,80,445.0,0.979167,Eighth,G3
829,Left,1,67,84,446.0,0.979167,Eighth,G4
830,Right,0,79,88,447.0,0.979167,Eighth,G5
831,Left,1,57,92,448.0,0.979167,Eighth,A3
832,Right,0,77,92,448.0,1.979167,Quarter,F5
833,Left,1,71,96,449.0,0.979167,Eighth,B4
834,Right,0,86,100,450.0,0.979167,Eighth,D6
836,Left,1,48,100,451.0,0.979167,Eighth,C3
835,Right,0,76,100,451.0,1.979167,Quarter,E5
837,Left,1,72,97,452.0,0.979167,Eighth,C5
838,Right,0,84,93,453.0,0.979167,Eighth,C6
839,Left,1,50,89,454.0,0.979167,Eighth,D3
840,Right,0,72,89,454.0,1.979167,Quarter,C5
841,Left,1,66,85,455.0,0.979167,Eighth,F#4
842,Right,0,81,81,456.0,0.979167,Eighth,A5
844,Left,1,55,80,457.0,0.979167,Eighth,G3
843,Right,0,71,80,457.0,1.979167,Quarter,B4
845,Left,1,67,84,458.0,0.979167,Eighth,G4
846,Right,0,79,88,459.0,0.979167,Eighth,G5
847,Right,0,77,92,460.0,1.979167,Quarter,F5
848,Left,1,57,92,460.0,0.979167,Eighth,A3
849,Left,1,71,96,461.0,0.979167,Eighth,B4
850,Right,0,86,100,462.0,0.979167,Eighth,D6
852,Left,1,48,100,463.0,0.979167,Eighth,C3
851,Right,0,76,100,463.0,1.979167,Quarter,E5
853,Left,1,72,97,464.0,0.979167,Eighth,C5
854,Right,0,84,93,465.0,0.979167,Eighth,C6
856,Left,1,50,89,466.0,0.979167,Eighth,D3
855,Right,0,72,89,466.0,1.979167,Quarter,C5
857,Left,1,66,85,467.0,0.979167,Eighth,F#4
858,Right,0,81,81,468.0,0.979167,Eighth,A5
859,Left,1,67,70,469.0,0.979167,Eighth,G4
860,Right,0,71,70,469.0,3.979167,Eighth,G5_B4
863,Left,1,69,70,470.0,0.979167,Eighth,A4
862,Right,0,72,70,470.0,0.979167,Eighth,C5
865,Left,1,71,70,471.0,0.979167,Eighth,B4
864,Right,0,74,70,471.0,0.979167,Eighth,D5
867,Left,1,72,70,472.0,3.979167,Half,C5
866,Right,0,76,70,472.0,3.979167,Half,E5
868,Right,0,78,70,473.0,0.979167,Eighth,F#5
869,Right,0,80,70,474.0,0.979167,Eighth,G#5
870,Right,0,81,70,475.0,3.979167,Half,A5
871,Right,0,74,70,476.0,0.979167,Eighth,D5
872,Left,1,71,70,476.0,0.979167,Eighth,B4
874,Right,0,76,70,477.0,0.979167,Eighth,E5
873,Left,1,73,70,477.0,0.979167,Eighth,C#5
875,Right,0,78,70,478.0,3.979167,Half,F#5
876,Left,1,74,70,478.0,3.979167,Half,D5
877,Right,0,80,70,479.0,0.979167,Eighth,G#5
878,Right,0,82,70,480.0,0.979167,Eighth,A#5
879,Right,0,83,70,481.0,3.979167,Half,B5
881,Right,0,76,70,482.0,0.979167,Eighth,E5
880,Left,1,73,70,482.0,0.979167,Eighth,C#5
882,Left,1,75,70,483.0,0.979167,Eighth,D#5
883,Right,0,78,70,483.0,0.979167,Eighth,F#5
884,Left,1,76,70,484.0,1.979167,Quarter,E5
885,Right,0,79,70,484.0,1.979167,Quarter,G5
886,Right,0,84,70,485.0,0.979167,Eighth,C6
887,Right,0,78,70,486.0,1.979167,Eighth,F#5_B5
889,Left,1,74,70,486.0,0.979167,Eighth,D5
890,Left,1,72,70,487.0,1.979167,Quarter,C5
891,Right,0,76,70,487.0,1.979167,Quarter,E5
892,Right,0,81,70,488.0,0.979167,Eighth,A5
893,Right,0,74,70,489.0,1.979167,Eighth,G#5_D5
895,Left,1,71,70,489.0,0.979167,Eighth,B4
897,Right,0,76,70,490.0,1.979167,Quarter,E5
896,Left,1,72,70,490.0,1.979167,Quarter,C5
898,Right,0,81,70,491.0,0.979167,Eighth,A5
899,Right,0,76,70,492.0,0.979167,Eighth,G5_E5
900,Left,1,73,70,492.0,0.979167,Eighth,C#5
903,Left,1,62,70,493.0,0.979167,Eighth,D4
902,Right,0,78,70,493.0,3.979167,Eighth,F#5_D5
905,Right,0,79,70,494.0,0.979167,Eighth,G5
906,Left,1,64,70,494.0,0.979167,Eighth,E4
907,Right,0,81,70,495.0,0.979167,Eighth,A5
908,Left,1,66,70,495.0,0.979167,Eighth,F#4
910,Left,1,67,70,496.0,3.979167,Half,G4
909,Right,0,83,70,496.0,3.979167,Half,B5
911,Right,0,73,70,497.0,0.979167,Eighth,C#5
912,Right,0,75,70,498.0,0.979167,Eighth,D#5
913,Right,0,76,70,499.0,3.979167,Half,E5
915,Left,1,66,70,500.0,0.979167,Eighth,F#4
914,Right,0,81,70,500.0,0.979167,Eighth,A5
916,Left,1,68,70,501.0,0.979167,Eighth,G#4
917,Right,0,83,70,501.0,0.979167,Eighth,B5
918,Right,0,85,70,502.0,3.979167,Half,C#6
919,Left,1,69,70,502.0,3.979167,Half,A4
920,Right,0,75,70,503.0,0.979167,Eighth,D#5
921,Right,0,77,70,504.0,0.979167,Eighth,F5
922,Right,0,78,70,505.0,3.979167,Half,F#5
924,Right,0,83,70,506.0,0.979167,Eighth,B5
923,Left,1,68,70,506.0,0.979167,Eighth,G#4
926,Right,0,85,70,507.0,0.979167,Eighth,C#6
925,Left,1,70,70,507.0,0.979167,Eighth,A#4
928,Right,0,86,70,508.0,1.979167,Quarter,D6
927,Left,1,71,70,508.0,1.979167,Quarter,B4
929,Right,0,77,70,509.0,1.979167,Quarter,F5
931,Right,0,86,70,510.0,1.979167,Quarter,D6
930,Left,1,69,70,510.0,0.979167,Eighth,A4
932,Right,0,76,70,511.0,1.979167,Quarter,E5
933,Left,1,68,70,511.0,0.979167,Eighth,G#4
935,Left,1,69,70,512.0,0.979167,Eighth,A4
934,Right,0,84,70,512.0,2.979167,DottedQuarter,C6
936,Left,1,67,70,513.0,0.979167,Eighth,G4
937,Right,0,75,70,513.0,0.979167,Eighth,D#5
938,Left,1,66,70,514.0,0.979167,Eighth,F#4
939,Right,0,74,70,514.0,0.979167,Eighth,D5
940,Left,1,62,70,515.0,0.979167,Eighth,D4
941,Right,0,78,70,515.0,0.979167,Eighth,F#5_D6
945,Left,1,72,70,516.0,0.979167,Eighth,C5
943,Right,0,78,70,516.0,0.979167,Eighth,F#5_A5
946,Left,1,55,70,517.0,3.979167,Half,G3
947,Right,0,83,70,517.0,0.979167,Eighth,G5_B5_B4
950,Right,0,65,70,518.0,0.979167,Eighth,F4
951,Right,0,63,70,519.0,0.979167,Eighth,D#4
952,Right,0,64,70,520.0,3.979167,Half,E4
954,Right,0,74,70,521.0,0.979167,Eighth,D5
953,Left,1,54,70,521.0,0.979167,Eighth,F#3
956,Right,0,71,70,522.0,0.979167,Eighth,B4
955,Left,1,56,70,522.0,0.979167,Eighth,G#3
958,Right,0,72,70,523.0,3.979167,Half,C5
957,Left,1,57,70,523.0,3.979167,Half,A3
959,Right,0,67,70,524.0,0.979167,Eighth,G4
960,Right,0,65,70,525.0,0.979167,Eighth,F4
961,Right,0,66,70,526.0,3.979167,Half,F#4
962,Left,1,56,70,527.0,0.979167,Eighth,G#3
963,Right,0,76,70,527.0,0.979167,Eighth,E5
964,Left,1,58,70,528.0,0.979167,Eighth,A#3
965,Right,0,73,70,528.0,0.979167,Eighth,C#5
966,Left,1,59,70,529.0,3.979167,Half,B3
967,Right,0,74,70,529.0,3.979167,Half,D5
968,Right,0,69,70,530.0,0.979167,Eighth,A4
969,Right,0,66,70,531.0,0.979167,Eighth,F#4
970,Right,0,67,70,532.0,3.979167,Half,G4
971,Right,0,77,70,533.0,0.979167,Eighth,F5
972,Left,1,57,70,533.0,0.979167,Eighth,A3
973,Right,0,75,70,534.0,0.979167,Eighth,D#5
974,Left,1,59,70,534.0,0.979167,Eighth,B3
976,Right,0,76,70,535.0,0.979167,Eighth,E5
975,Left,1,60,70,535.0,0.979167,Eighth,C4
978,Right,0,69,70,536.0,0.979167,Eighth,C5_A4
977,Left,1,59,70,536.0,0.979167,Eighth,B3
982,Left,1,60,70,537.0,0.979167,Eighth,C4
980,Right,0,71,70,537.0,0.979167,Eighth,G4_B4
983,Right,0,69,70,538.0,0.979167,Eighth,F#4_A4
985,Left,1,62,70,538.0,0.979167,Eighth,D4
986,Right,0,74,70,539.0,0.979167,Eighth,G4_D5
988,Left,1,64,70,539.0,0.979167,Eighth,E4
990,Left,1,66,70,540.0,0.979167,Eighth,F#4
989,Right,0,72,70,540.0,0.979167,Eighth,C5_A4
993,Right,0,70,70,541.0,3.979167,Half,G5_G4_A#4
992,Left,1,58,70,541.0,11.979167,Eighth,G3_A#3
997,Left,1,57,72,542.0,0.979167,Eighth,C4_A3
999,Left,1,62,74,543.0,0.979167,Eighth,D4_A#3
1001,Left,1,60,76,544.0,3.979167,Half,D#4_C4
1003,Right,0,78,78,545.0,0.979167,Eighth,F#5_F#4_A4
1006,Right,0,67,80,546.0,0.979167,Eighth,G5_G4_A#4
1009,Right,0,72,82,547.0,3.979167,Half,C5_A5_A4
1012,Left,1,59,84,548.0,0.979167,Eighth,D4_B3
1014,Left,1,60,86,549.0,0.979167,Eighth,D#4_C4
1016,Left,1,65,89,550.0,3.979167,Half,F4_D4
1018,Right,0,67,91,551.0,0.979167,Eighth,G5_G4_B4
1021,Right,0,81,93,552.0,0.979167,Eighth,C5_A5_A4
1024,Right,0,71,95,553.0,3.979167,Half,D5_B5_B4
1027,Left,1,60,97,554.0,0.979167,Eighth,D#4_C4
1029,Left,1,62,99,555.0,0.979167,Eighth,F4_D4
1031,Left,1,63,101,556.0,1.979167,Quarter,G4_D#4
1033,Right,0,84,103,557.0,0.979167,Eighth,D#5_C6_C5
1036,Left,1,62,106,558.0,0.979167,Eighth,F4_D4
1038,Right,0,74,106,558.0,1.979167,Eighth,D5_A#5_A#4
1041,Right,0,69,108,559.0,1.979167,Quarter,C#5_A4
1043,Left,1,57,108,559.0,4.979167,Quarter,E4_C#4_A3
1046,Right,0,81,110,560.0,0.979167,Eighth,A5
1049,Right,0,80,112,561.0,1.979167,Quarter,G#5
1047,Left,1,65,112,561.0,0.979167,Eighth,F4_D4
1050,Right,0,69,114,562.0,1.979167,Quarter,C#5_A4
1052,Left,1,61,114,562.0,1.979167,Quarter,E4_C#4
1054,Right,0,81,116,563.0,0.979167,Eighth,A5
1055,Left,1,33,118,564.0,0.979167,Eighth,A2_A1
1057,Right,0,73,118,564.0,0.979167,Eighth,G5_E5_C#5
1061,Left,1,50,120,565.0,3.979167,Half,D3_D2
1060,Right,0,74,120,565.0,0.979167,Eighth,F5_D5_A4
1065,Right,0,53,120,566.0,0.979167,Eighth,F3
1066,Right,0,57,120,567.0,0.979167,Eighth,A3
1067,Right,0,62,120,568.0,0.979167,Eighth,D4
1070,Right,0,77,120,569.0,0.979167,Eighth,F5
1068,Left,1,49,120,569.0,0.979167,Eighth,C#3_C#2
1071,Right,0,74,120,570.0,0.979167,Eighth,D5
1072,Left,1,38,120,570.0,0.979167,Eighth,D3_D2
1074,Left,1,40,120,571.0,3.979167,Half,E3_E2
1075,Right,0,73,120,571.0,0.979167,Eighth,C#5
1077,Right,0,61,120,572.0,0.979167,Eighth,C#4
1078,Right,0,64,120,573.0,0.979167,Eighth,E4
1079,Right,0,67,120,574.0,0.979167,Eighth,G4
1082,Right,0,79,120,575.0,0.979167,Eighth,G5
1080,Left,1,39,120,575.0,0.979167,Eighth,D#3_D#2
1084,Left,1,40,120,576.0,0.979167,Eighth,E3_E2
1083,Right,0,76,120,576.0,0.979167,Eighth,E5
1086,Left,1,53,120,577.0,3.979167,Half,F3_F2
1087,Right,0,74,120,577.0,0.979167,Eighth,D5
1089,Right,0,62,120,578.0,0.979167,Eighth,D4
1090,Right,0,65,120,579.0,0.979167,Eighth,F4
1091,Right,0,69,120,580.0,0.979167,Eighth,A4
1094,Right,0,81,120,581.0,0.979167,Eighth,A5
1092,Left,1,40,120,581.0,0.979167,Eighth,E3_E2
1095,Left,1,41,120,582.0,0.979167,Eighth,F3_F2
1097,Right,0,77,120,582.0,0.979167,Eighth,F5
1098,Left,1,43,120,583.0,3.979167,Half,G3_G2
1099,Right,0,75,120,583.0,0.979167,Eighth,D#5
1101,Right,0,63,120,584.0,0.979167,Eighth,D#4
1102,Right,0,67,120,585.0,0.979167,Eighth,G4
1103,Right,0,70,120,586.0,0.979167,Eighth,A#4
1105,Left,1,42,120,587.0,0.979167,Eighth,F#3_F#2
1104,Right,0,82,120,587.0,0.979167,Eighth,A#5
1108,Right,0,79,120,588.0,0.979167,Eighth,G5
1107,Left,1,43,120,588.0,0.979167,Eighth,G3_G2
1110,Left,1,45,120,589.0,3.979167,Half,A3_A2
1111,Right,0,78,120,589.0,0.979167,Eighth,F#5
1113,Right,0,66,120,590.0,0.979167,Eighth,F#4
1114,Right,0,69,120,591.0,0.979167,Eighth,A4
1115,Right,0,72,120,592.0,0.979167,Eighth,C5
1116,Left,1,56,120,593.0,0.979167,Eighth,G#3_G#2
1117,Right,0,84,120,593.0,0.979167,Eighth,C6
1121,Right,0,81,120,594.0,0.979167,Eighth,A5
1119,Left,1,57,120,594.0,0.979167,Eighth,A3_A2
1122,Right,0,79,120,595.0,0.979167,Eighth,G5
1123,Left,1,46,120,595.0,0.979167,Eighth,A#3_A#2
1125,Right,0,86,120,596.0,0.979167,Eighth,D6
1126,Left,1,57,120,596.0,0.979167,Eighth,A3_A2
1129,Left,1,58,120,597.0,0.979167,Eighth,A#3_A#2
1128,Right,0,79,120,597.0,0.979167,Eighth,G5
1132,Left,1,47,120,598.0,0.979167,Eighth,B3_B2
1131,Right,0,80,120,598.0,0.979167,Eighth,G#5
1134,Left,1,58,120,599.0,0.979167,Eighth,A#3_A#2
1135,Right,0,86,120,599.0,0.979167,Eighth,D6
1139,Right,0,80,120,600.0,0.979167,Eighth,G#5
1137,Left,1,59,120,600.0,0.979167,Eighth,B3_B2
1142,Right,0,73,120,601.0,1.479167,DottedEighth,C#5
1140,Left,1,57,120,601.0,11.979167,Unknown,A3_A2
1143,Right,0,76,120,601.5,1.479167,DottedEighth,E5
1144,Right,0,81,120,602.0,1.479167,DottedEighth,A5
1145,Right,0,85,120,602.5,1.479167,DottedEighth,C#6
1146,Right,0,69,120,603.0,1.479167,DottedEighth,A4
1147,Right,0,81,120,603.5,1.479167,DottedEighth,A5
1149,Left,1,47,120,604.0,0.979167,Eighth,B2
1148,Right,0,71,120,604.0,1.479167,DottedEighth,B4
1150,Right,0,83,120,604.5,1.479167,DottedEighth,B5
1151,Left,1,49,120,605.0,0.979167,Eighth,C#3
1152,Right,0,73,120,605.0,1.479167,DottedEighth,C#5
1153,Right,0,85,120,605.5,1.479167,DottedEighth,C#6
1154,Left,1,50,120,606.0,0.979167,Eighth,D3
1155,Right,0,74,120,606.0,1.479167,DottedEighth,D5
1156,Right,0,86,120,606.5,1.479167,DottedEighth,D6
1158,Right,0,76,120,607.0,1.479167,DottedEighth,E5
1157,Left,1,52,120,607.0,0.979167,Eighth,E3
1159,Right,0,88,120,607.5,1.479167,DottedEighth,E6
1161,Right,0,74,120,608.0,1.479167,DottedEighth,D5
1160,Left,1,50,120,608.0,0.979167,Eighth,D3
1162,Right,0,86,120,608.5,1.479167,DottedEighth,D6
1163,Right,0,73,120,609.0,1.479167,DottedEighth,C#5
1164,Left,1,49,120,609.0,0.979167,Eighth,C#3
1165,Right,0,85,120,609.5,1.479167,DottedEighth,C#6
1166,Left,1,53,120,610.0,0.979167,Eighth,F3
1167,Right,0,77,120,610.0,1.479167,DottedEighth,F5
1168,Right,0,89,120,610.5,1.479167,DottedEighth,F6
1170,Left,1,52,120,611.0,0.979167,Eighth,E3
1169,Right,0,76,120,611.0,1.479167,DottedEighth,E5
1171,Right,0,88,120,611.5,1.479167,DottedEighth,E6
1172,Left,1,50,120,612.0,0.979167,Eighth,D3
1173,Right,0,74,120,612.0,1.479167,DottedEighth,D5
1174,Right,0,86,120,612.5,1.479167,DottedEighth,D6
1175,Left,1,45,120,613.0,11.979167,Unknown,A3_A2
1177,Right,0,73,120,613.0,1.479167,DottedEighth,C#5
1178,Right,0,76,120,613.5,1.479167,DottedEighth,E5
1179,Right,0,81,120,614.0,1.479167,DottedEighth,A5
1180,Right,0,85,120,614.5,1.479167,DottedEighth,C#6
1181,Right,0,69,120,615.0,1.479167,DottedEighth,A4
1182,Right,0,81,120,615.5,1.479167,DottedEighth,A5
1184,Right,0,71,120,616.0,1.479167,DottedEighth,B4
1183,Left,1,47,120,616.0,0.979167,Eighth,B2
1185,Right,0,83,120,616.5,1.479167,DottedEighth,B5
1186,Right,0,73,120,617.0,1.479167,DottedEighth,C#5
1187,Left,1,49,120,617.0,0.979167,Eighth,C#3
1188,Right,0,85,120,617.5,1.479167,DottedEighth,C#6
1190,Right,0,74,120,618.0,1.479167,DottedEighth,D5
1189,Left,1,50,120,618.0,0.979167,Eighth,D3
1191,Right,0,86,120,618.5,1.479167,DottedEighth,D6
1192,Right,0,76,120,619.0,1.479167,DottedEighth,E5
1193,Left,1,52,120,619.0,0.979167,Eighth,E3
1194,Right,0,88,120,619.5,1.479167,DottedEighth,E6
1196,Left,1,50,120,620.0,0.979167,Eighth,D3
1195,Right,0,74,120,620.0,1.479167,DottedEighth,D5
1197,Right,0,86,120,620.5,1.479167,DottedEighth,D6
1198,Right,0,73,120,621.0,1.479167,DottedEighth,C#5
1199,Left,1,49,120,621.0,0.979167,Eighth,C#3
1200,Right,0,85,120,621.5,1.479167,DottedEighth,C#6
1202,Left,1,53,120,622.0,0.979167,Eighth,F3
1201,Right,0,77,120,622.0,1.479167,DottedEighth,F5
1203,Right,0,89,120,622.5,1.479167,DottedEighth,F6
1204,Right,0,76,120,623.0,1.479167,DottedEighth,E5
1205,Left,1,52,120,623.0,0.979167,Eighth,E3
1206,Right,0,88,120,623.5,1.479167,DottedEighth,E6
1207,Right,0,74,120,624.0,1.479167,DottedEighth,D5
1208,Left,1,50,120,624.0,0.979167,Eighth,D3
1209,Right,0,86,120,624.5,1.479167,DottedEighth,D6
1210,Left,1,33,120,625.0,11.979167,Unknown,A2_A1
1211,Right,0,73,120,625.0,1.479167,DottedEighth,C#5
1213,Right,0,76,120,625.5,1.479167,DottedEighth,E5
1214,Right,0,81,120,626.0,1.479167,DottedEighth,A5
1215,Right,0,85,120,626.5,1.479167,DottedEighth,C#6
1216,Right,0,69,120,627.0,1.479167,DottedEighth,A4
1217,Right,0,81,120,627.5,1.479167,DottedEighth,A5
1218,Left,1,35,120,628.0,0.979167,Eighth,B1
1219,Right,0,71,120,628.0,1.479167,DottedEighth,B4
1220,Right,0,83,120,628.5,1.479167,DottedEighth,B5
1221,Right,0,73,120,629.0,1.479167,DottedEighth,C#5
1222,Left,1,37,120,629.0,0.979167,Eighth,C#2
1223,Right,0,85,120,629.5,1.479167,DottedEighth,C#6
1224,Left,1,38,120,630.0,0.979167,Eighth,D2
1225,Right,0,74,120,630.0,1.479167,DottedEighth,D5
1226,Right,0,86,120,630.5,1.479167,DottedEighth,D6
1228,Left,1,40,120,631.0,0.979167,Eighth,E2
1227,Right,0,76,120,631.0,1.479167,DottedEighth,E5
1229,Right,0,88,120,631.5,1.479167,DottedEighth,E6
1230,Left,1,38,120,632.0,0.979167,Eighth,D2
1231,Right,0,74,120,632.0,1.479167,DottedEighth,D5
1232,Right,0,86,120,632.5,1.479167,DottedEighth,D6
1233,Left,1,37,120,633.0,0.979167,Eighth,C#2
1234,Right,0,73,120,633.0,1.479167,DottedEighth,C#5
1235,Right,0,85,120,633.5,1.479167,DottedEighth,C#6
1236,Left,1,41,120,634.0,0.979167,Eighth,F2
1237,Right,0,77,120,634.0,1.479167,DottedEighth,F5
1238,Right,0,89,120,634.5,1.479167,DottedEighth,F6
1240,Right,0,76,120,635.0,1.479167,DottedEighth,E5
1239,Left,1,40,120,635.0,0.979167,Eighth,E2
1241,Right,0,88,120,635.5,1.479167,DottedEighth,E6
1242,Left,1,38,120,636.0,0.979167,Eighth,D2
1243,Right,0,74,120,636.0,1.479167,DottedEighth,D5
1244,Right,0,86,120,636.5,1.479167,DottedEighth,D6
1245,Left,1,40,120,637.0,5.979167,DottedHalf,E2_A2_A1
1246,Right,0,76,120,637.0,1.479167,DottedEighth,E5
1249,Right,0,88,120,637.5,1.479167,DottedEighth,E6
1250,Right,0,74,120,638.0,1.479167,DottedEighth,D5
1251,Left,1,38,120,638.0,0.979167,Eighth,D2
1252,Right,0,86,120,638.5,1.479167,DottedEighth,D6
1253,Left,1,37,120,639.0,0.979167,Eighth,C#2
1254,Right,0,73,120,639.0,1.479167,DottedEighth,C#5
1255,Right,0,85,120,639.5,1.479167,DottedEighth,C#6
1256,Left,1,41,120,640.0,0.979167,Eighth,F2
1257,Right,0,77,120,640.0,1.479167,DottedEighth,F5
1258,Right,0,89,120,640.5,1.479167,DottedEighth,F6
1260,Right,0,76,120,641.0,1.479167,DottedEighth,E5
1259,Left,1,40,120,641.0,0.979167,Eighth,E2
1261,Right,0,88,120,641.5,1.479167,DottedEighth,E6
1263,Right,0,74,120,642.0,1.479167,DottedEighth,D5
1262,Left,1,38,120,642.0,0.979167,Eighth,D2
1264,Right,0,86,120,642.5,1.479167,DottedEighth,D6
1265,Right,0,76,120,643.0,1.479167,DottedEighth,E5
1266,Left,1,40,120,643.0,5.979167,DottedHalf,E2_A2_A1
1269,Right,0,88,120,643.5,1.479167,DottedEighth,E6
1271,Right,0,74,120,644.0,1.479167,DottedEighth,D5
1270,Left,1,38,120,644.0,0.979167,Eighth,D2
1272,Right,0,86,120,644.5,1.479167,DottedEighth,D6
1274,Right,0,73,120,645.0,1.479167,DottedEighth,C#5
1273,Left,1,37,120,645.0,0.979167,Eighth,C#2
1275,Right,0,85,120,645.5,1.479167,DottedEighth,C#6
1276,Left,1,41,120,646.0,0.979167,Eighth,F2
1277,Right,0,77,120,646.0,1.479167,DottedEighth,F5
1278,Right,0,89,120,646.5,1.479167,DottedEighth,F6
1279,Right,0,76,120,647.0,1.479167,DottedEighth,E5
1280,Left,1,40,120,647.0,0.979167,Eighth,E2
1281,Right,0,88,120,647.5,1.479167,DottedEighth,E6
1282,Left,1,38,120,648.0,0.979167,Eighth,D2
1283,Right,0,74,120,648.0,0.989583,Eighth,D5
1284,Right,0,86,120,648.5,0.479167,Sixteenth,D6
1286,Left,1,45,120,649.0,17.979167,Unknown,A2_A1
1285,Right,0,85,120,649.0,0.479167,Sixteenth,C#6
1288,Right,0,88,120,649.5,0.479167,Sixteenth,E6
1289,Right,0,86,120,650.0,0.479167,Sixteenth,D6
1290,Right,0,85,120,650.5,0.479167,Sixteenth,C#6
1291,Right,0,83,120,651.0,0.479167,Sixteenth,B5
1292,Right,0,81,120,651.5,0.479167,Sixteenth,A5
1293,Right,0,80,120,652.0,0.479167,Sixteenth,G#5
1294,Right,0,78,120,652.5,0.479167,Sixteenth,F#5
1295,Right,0,76,120,653.0,0.479167,Sixteenth,E5
1296,Right,0,74,120,653.5,0.479167,Sixteenth,D5
1297,Right,0,73,120,654.0,0.479167,Sixteenth,C#5
1298,Right,0,71,120,654.5,0.479167,Sixteenth,B4
1299,Right,0,69,120,655.0,0.479167,Sixteenth,A4
1300,Right,0,76,120,655.5,0.479167,Sixteenth,E5
1301,Right,0,74,120,656.0,0.479167,Sixteenth,D5
1302,Right,0,73,120,656.5,0.479167,Sixteenth,C#5
1303,Right,0,71,120,657.0,0.479167,Sixteenth,B4
1304,Right,0,69,120,657.5,0.479167,Sixteenth,A4
1305,Right,0,68,120,658.0,0.479167,Sixteenth,G#4
1306,Right,0,66,120,658.5,0.479167,Sixteenth,F#4
1307,Right,0,64,120,659.0,0.479167,Sixteenth,E4
1308,Right,0,62,120,659.5,0.479167,Sixteenth,D4
1309,Right,0,61,120,660.0,0.479167,Sixteenth,C#4
1310,Right,0,59,120,660.5,0.479167,Sixteenth,B3
1311,Right,0,57,120,661.0,0.479167,Sixteenth,A3
1312,Right,0,64,120,661.5,0.479167,Sixteenth,E4
1313,Right,0,62,120,662.0,0.479167,Sixteenth,D4
1314,Right,0,61,120,662.5,0.479167,Sixteenth,C#4
1315,Right,0,59,120,663.0,0.479167,Sixteenth,B3
1316,Right,0,57,120,663.5,0.479167,Sixteenth,A3
1317,Right,0,56,120,664.0,0.479167,Sixteenth,G#3
1318,Right,0,54,120,664.5,0.479167,Sixteenth,F#3
1319,Right,0,52,120,665.0,0.479167,Sixteenth,E3
1320,Right,0,50,120,665.5,0.479167,Sixteenth,D3
1321,Right,0,49,120,666.0,0.479167,Sixteenth,C#3
1322,Right,0,47,120,666.5,0.479167,Sixteenth,B2
1323,Left,1,45,120,667.0,0.479167,Sixteenth,A2
1324,Left,1,52,120,667.5,0.479167,Sixteenth,E3
1325,Left,1,50,120,668.0,0.479167,Sixteenth,D3
1326,Right,0,61,120,668.0,0.979167,Eighth,C#4
1327,Left,1,49,120,668.5,0.479167,Sixteenth,C#3
1328,Right,0,64,120,669.0,0.979167,Eighth,E4
1329,Left,1,47,120,669.0,0.479167,Sixteenth,B2
1330,Left,1,45,120,669.5,0.479167,Sixteenth,A2
1332,Left,1,44,120,670.0,0.479167,Sixteenth,G#2
1331,Right,0,69,120,670.0,0.979167,Eighth,A4_A3
1334,Left,1,42,120,670.5,0.479167,Sixteenth,F#2
1335,Left,1,40,120,671.0,0.479167,Sixteenth,E2
1336,Right,0,61,120,671.0,0.979167,Eighth,C#5_C#4
1338,Left,1,38,120,671.5,0.479167,Sixteenth,D2
1339,Left,1,37,120,672.0,0.479167,Sixteenth,C#2
1340,Right,0,76,120,672.0,0.979167,Eighth,E5_E4
1342,Left,1,35,120,672.5,0.479167,Sixteenth,B1
1343,Right,0,69,120,673.0,10.979167,Unknown,A5_A4
1345,Left,1,33,120,673.0,10.979167,Unknown,A1
1346,Left,1,45,80,684.0,0.979167,Eighth,A2
1347,Left,1,38,80,685.0,1.979167,Quarter,D2
1348,Left,1,45,80,687.0,0.979167,Eighth,A2
1349,Left,1,38,80,688.0,1.979167,Quarter,D2
1350,Left,1,47,80,690.0,0.979167,Eighth,B2
1351,Left,1,38,80,691.0,1.979167,Quarter,D2
1352,Left,1,49,80,693.0,0.979167,Eighth,C#3
1353,Left,1,38,80,694.0,1.979167,Quarter,D2
1354,Right,0,81,80,696.0,1.979167,Quarter,A5
1355,Left,1,50,80,696.0,0.979167,Eighth,D3
1356,Left,1,38,80,697.0,1.979167,Quarter,D2
1357,Right,0,69,80,697.0,2.979167,DottedQuarter,A4
1358,Right,0,79,80,698.0,0.979167,Eighth,G5
1359,Left,1,42,80,699.0,0.979167,Eighth,F#2
1360,Right,0,78,80,699.0,0.979167,Eighth,F#5
1361,Left,1,38,80,700.0,1.979167,Quarter,D2
1362,Right,0,71,80,700.0,2.979167,DottedQuarter,E5_B4
1364,Right,0,78,80,701.0,0.979167,Eighth,F#5
1365,Left,1,43,80,702.0,0.979167,Eighth,G2
1366,Right,0,74,80,702.0,0.979167,Eighth,D5
1367,Right,0,67,80,703.0,1.979167,Quarter,G4_B4
1368,Left,1,38,80,703.0,1.979167,Quarter,D2
1370,Right,0,76,80,704.0,0.979167,Eighth,E5
1371,Left,1,45,80,705.0,0.979167,Eighth,A2
1372,Right,0,67,80,705.0,0.979167,Eighth,G4_C#5
1374,Left,1,38,80,706.0,1.979167,Quarter,D2
1375,Right,0,66,80,706.0,0.979167,Eighth,F#4_D5
1377,Left,1,45,80,708.0,0.979167,Eighth,A2
1378,Left,1,38,80,709.0,1.979167,Quarter,D2
1379,Right,0,74,80,709.5,0.479167,Sixteenth,D5
1380,Right,0,78,80,710.0,0.479167,Sixteenth,F#5
1381,Right,0,74,80,710.5,0.479167,Sixteenth,D5
1382,Left,1,45,80,711.0,0.979167,Eighth,A2
1383,Right,0,69,80,711.0,0.479167,Sixteenth,A4
1384,Right,0,66,80,711.5,0.479167,Sixteenth,F#4
1385,Left,1,38,80,712.0,1.979167,Quarter,D2
1386,Right,0,69,80,712.0,1.989583,Quarter,A4
1388,Left,1,47,80,714.0,0.979167,Eighth,B2
1387,Right,0,67,80,714.0,0.979167,Eighth,G4
1389,Left,1,38,80,715.0,1.979167,Quarter,D2
1390,Right,0,87,80,715.5,0.479167,Sixteenth,D#6
1391,Right,0,88,80,716.0,0.479167,Sixteenth,E6
1392,Right,0,85,80,716.5,0.479167,Sixteenth,C#6
1393,Left,1,49,80,717.0,0.979167,Eighth,C#3
1394,Right,0,79,80,717.0,0.479167,Sixteenth,G5
1395,Right,0,76,80,717.5,0.479167,Sixteenth,E5
1396,Right,0,79,80,718.0,1.989583,Quarter,G5
1397,Left,1,38,80,718.0,1.979167,Quarter,D2
1398,Right,0,78,80,720.0,0.979167,Eighth,F#5
1399,Left,1,50,80,720.0,0.979167,Eighth,D3
1400,Right,0,81,80,721.0,2.979167,Eighth,A5_A4
1402,Left,1,38,80,721.0,1.979167,Quarter,D2
1403,Right,0,79,80,722.0,0.979167,Eighth,G5
1405,Right,0,78,80,723.0,0.979167,Eighth,F#5
1404,Left,1,42,80,723.0,0.979167,Eighth,F#2
1406,Left,1,38,80,724.0,1.979167,Quarter,D2
1407,Right,0,71,80,724.0,2.979167,DottedQuarter,E5_B4
1409,Right,0,78,80,725.0,0.979167,Eighth,F#5
1411,Left,1,43,80,726.0,0.979167,Eighth,G2
1410,Right,0,74,80,726.0,0.979167,Eighth,D5
1413,Left,1,38,80,727.0,1.979167,Quarter,D2
1412,Right,0,71,80,727.0,1.979167,Eighth,G4_B4
1415,Right,0,76,80,728.0,0.979167,Eighth,E5
1416,Right,0,73,80,729.0,0.979167,Eighth,G4_C#5
1418,Left,1,45,80,729.0,0.979167,Eighth,A2
1419,Right,0,66,80,730.0,0.979167,Eighth,F#4_D5
1421,Left,1,38,80,730.0,1.979167,Quarter,D2
1422,Right,0,66,80,732.0,2.979167,Eighth,F#4_D5
1424,Left,1,50,80,732.0,0.979167,Eighth,D3
1426,Left,1,38,80,733.0,1.979167,Quarter,D2
1425,Right,0,67,80,733.0,3.979167,Half,G4
1427,Left,1,52,80,735.0,0.979167,Eighth,E3
1428,Right,0,73,80,735.0,0.979167,Eighth,C#5
1429,Right,0,81,90,736.0,0.979167,Eighth,A5
1430,Left,1,38,80,736.0,1.979167,Quarter,D2
1432,Left,1,45,80,738.0,0.979167,Eighth,A2
1431,Right,0,73,80,738.0,0.979167,Eighth,G4_C#5
1436,Left,1,38,80,739.0,1.979167,Quarter,D2
1434,Right,0,76,80,739.0,3.979167,Quarter,F#4_E5
1438,Left,1,50,80,741.0,0.979167,Eighth,D3
1437,Right,0,74,80,741.0,0.979167,Eighth,D5
1440,Right,0,81,90,742.0,0.979167,Eighth,A5
1439,Left,1,38,80,742.0,1.979167,Quarter,D2
1442,Right,0,74,80,744.0,2.979167,DottedQuarter,F#4_D5
1441,Left,1,45,80,744.0,0.979167,Eighth,A2
1445,Right,0,67,80,745.0,3.979167,Half,G4
1444,Left,1,38,80,745.0,1.979167,Quarter,D2
1446,Left,1,52,80,747.0,0.979167,Eighth,E3
1447,Right,0,73,80,747.0,0.979167,Eighth,C#5
1449,Right,0,81,90,748.0,0.979167,Eighth,A5
1448,Left,1,38,80,748.0,1.979167,Quarter,D2
1452,Left,1,45,80,750.0,0.979167,Eighth,A2
1450,Right,0,67,80,750.0,0.979167,Eighth,G4_C#5
1453,Left,1,38,80,751.0,1.979167,Quarter,D2
1454,Right,0,66,80,751.0,1.979167,Quarter,F#4_D5
1456,Left,1,50,80,753.0,0.979167,Eighth,D3
1457,Left,1,38,80,754.0,1.979167,Quarter,D2
1458,Right,0,66,80,756.0,2.479167,Eighth,F#4_D5
1460,Left,1,45,80,756.0,0.979167,Eighth,A2
1462,Right,0,67,80,757.0,3.979167,Half,G4
1461,Left,1,38,80,757.0,1.979167,Quarter,D2
1463,Right,0,73,80,758.5,0.479167,Sixteenth,C#5
1464,Left,1,52,80,759.0,0.979167,Eighth,E3
1465,Right,0,71,80,759.0,0.479167,Sixteenth,B4
1466,Right,0,73,80,759.5,0.479167,Sixteenth,C#5
1467,Left,1,38,80,760.0,1.979167,Quarter,D2
1468,Right,0,81,90,760.0,0.979167,Eighth,A5
1470,Right,0,73,80,762.0,0.979167,Eighth,G4_C#5
1469,Left,1,45,80,762.0,0.979167,Eighth,A2
1473,Right,0,66,80,763.0,3.979167,Half,F#4_E5
1472,Left,1,38,80,763.0,1.979167,Quarter,D2
1475,Right,0,74,80,764.5,0.479167,Sixteenth,D5
1476,Right,0,73,80,765.0,0.479167,Sixteenth,C#5
1477,Left,1,50,80,765.0,0.979167,Eighth,D3
1478,Right,0,74,80,765.5,0.479167,Sixteenth,D5
1480,Left,1,38,80,766.0,1.979167,Quarter,D2
1479,Right,0,81,90,766.0,0.979167,Eighth,A5
1482,Left,1,45,80,768.0,0.979167,Eighth,A2
1481,Right,0,74,80,768.0,2.479167,TiedQuarter-Sixteenth,F#4_D5
1485,Right,0,67,80,769.0,3.979167,Half,G4
1484,Left,1,38,80,769.0,1.979167,Quarter,D2
1486,Right,0,73,80,770.5,0.479167,Sixteenth,C#5
1487,Left,1,52,80,771.0,0.979167,Eighth,E3
1488,Right,0,71,80,771.0,0.479167,Sixteenth,B4
1489,Right,0,73,80,771.5,0.479167,Sixteenth,C#5
1490,Right,0,81,90,772.0,0.979167,Eighth,A5
1491,Left,1,38,80,772.0,1.979167,Quarter,D2
1492,Right,0,67,80,774.0,0.979167,Eighth,G4_C#5
1494,Left,1,45,80,774.0,0.979167,Eighth,A2
1497,Left,1,38,80,775.0,1.979167,Quarter,D2
1495,Right,0,66,80,775.0,1.979167,Quarter,F#4_D5
1498,Left,1,50,80,777.0,0.979167,Eighth,D3
1499,Left,1,45,80,778.0,1.979167,Quarter,A2
1500,Right,0,62,80,780.0,0.479167,Sixteenth,D4
1501,Left,1,42,80,780.0,0.979167,Eighth,F#2
1502,Right,0,57,80,780.5,0.479167,Sixteenth,A3
1503,Left,1,38,80,781.0,0.479167,Sixteenth,D2
1504,Left,1,42,80,781.5,0.479167,Sixteenth,F#2
1505,Left,1,45,80,782.0,0.479167,Sixteenth,A2
1506,Right,0,54,80,782.0,0.479167,Sixteenth,F#3
1507,Left,1,50,80,782.5,0.479167,Sixteenth,D3
1508,Right,0,57,80,782.5,0.479167,Sixteenth,A3
1509,Right,0,62,80,783.0,0.479167,Sixteenth,D4
1510,Right,0,66,80,783.5,0.479167,Sixteenth,F#4
1511,Left,1,49,80,784.0,0.479167,Sixteenth,C#3
1512,Left,1,52,80,784.5,0.479167,Sixteenth,E3
1514,Left,1,57,80,785.0,0.479167,Sixteenth,A3
1513,Right,0,64,80,785.0,0.479167,Sixteenth,E4
1515,Left,1,61,80,785.5,0.479167,Sixteenth,C#4
1516,Right,0,69,80,785.5,0.479167,Sixteenth,A4
1517,Right,0,73,80,786.0,0.479167,Sixteenth,C#5
1518,Right,0,76,80,786.5,0.479167,Sixteenth,E5
1519,Left,1,47,80,787.0,0.479167,Sixteenth,B2
1520,Left,1,50,80,787.5,0.479167,Sixteenth,D3
1522,Right,0,62,80,788.0,0.479167,Sixteenth,D4
1521,Left,1,54,80,788.0,0.479167,Sixteenth,F#3
1524,Left,1,59,80,788.5,0.479167,Sixteenth,B3
1523,Right,0,66,80,788.5,0.479167,Sixteenth,F#4
1525,Right,0,71,80,789.0,0.479167,Sixteenth,B4
1526,Right,0,74,80,789.5,0.479167,Sixteenth,D5
1527,Left,1,57,80,790.0,0.479167,Sixteenth,A3
1528,Left,1,61,80,790.5,0.479167,Sixteenth,C#4
1530,Right,0,73,80,791.0,0.479167,Sixteenth,C#5
1529,Left,1,66,80,791.0,0.479167,Sixteenth,F#4
1532,Right,0,78,80,791.5,0.479167,Sixteenth,F#5
1531,Left,1,69,80,791.5,0.479167,Sixteenth,A4
1533,Right,0,81,80,792.0,0.479167,Sixteenth,A5
1534,Right,0,85,80,792.5,0.479167,Sixteenth,C#6
1535,Left,1,43,80,793.0,0.479167,Sixteenth,G2
1536,Left,1,47,80,793.5,0.479167,Sixteenth,B2
1537,Left,1,50,80,794.0,0.479167,Sixteenth,D3
1538,Right,0,59,80,794.0,0.479167,Sixteenth,B3
1540,Left,1,55,80,794.5,0.479167,Sixteenth,G3
1539,Right,0,62,80,794.5,0.479167,Sixteenth,D4
1541,Right,0,67,80,795.0,0.479167,Sixteenth,G4
1542,Right,0,71,80,795.5,0.479167,Sixteenth,B4
1543,Left,1,54,80,796.0,0.479167,Sixteenth,F#3
1544,Left,1,57,80,796.5,0.479167,Sixteenth,A3
1546,Left,1,62,80,797.0,0.479167,Sixteenth,D4
1545,Right,0,69,80,797.0,0.479167,Sixteenth,A4
1547,Left,1,66,80,797.5,0.479167,Sixteenth,F#4
1548,Right,0,74,80,797.5,0.479167,Sixteenth,D5
1549,Right,0,78,80,798.0,0.479167,Sixteenth,F#5
1550,Right,0,81,80,798.5,0.479167,Sixteenth,A5
1551,Right,0,79,80,799.0,0.479167,Sixteenth,G5_C#5
1553,Left,1,52,80,799.0,0.979167,Eighth,E4_E3
1555,Right,0,69,80,799.5,0.479167,Sixteenth,A4
1556,Right,0,79,80,800.0,0.479167,Sixteenth,G5_C#5
1558,Left,1,52,80,800.0,0.979167,Eighth,E4_E3
1560,Right,0,69,80,800.5,0.479167,Sixteenth,A4
1561,Right,0,78,80,801.0,0.479167,Sixteenth,F#5_D5
1563,Left,1,62,80,801.0,0.979167,Eighth,D4_D3
1565,Right,0,69,80,801.5,0.479167,Sixteenth,A4
1566,Right,0,73,80,802.0,0.479167,Sixteenth,E5_C#5
1567,Left,1,45,80,802.0,1.979167,Quarter,A3_A2
1570,Right,0,74,80,802.5,0.479167,Sixteenth,D5
1571,Right,0,73,80,803.0,0.479167,Sixteenth,C#5
1572,Right,0,71,80,803.5,0.479167,Sixteenth,B4
1573,Right,0,69,80,804.0,0.479167,Sixteenth,A4
1574,Right,0,67,80,804.5,0.479167,Sixteenth,G4
1575,Left,1,38,80,805.0,0.479167,Sixteenth,D2
1576,Left,1,42,80,805.5,0.479167,Sixteenth,F#2
1577,Left,1,45,80,806.0,0.479167,Sixteenth,A2
1578,Right,0,54,80,806.0,0.479167,Sixteenth,F#3
1579,Right,0,57,80,806.5,0.479167,Sixteenth,A3
1580,Left,1,50,80,806.5,0.479167,Sixteenth,D3
1581,Right,0,62,80,807.0,0.479167,Sixteenth,D4
1582,Right,0,66,80,807.5,0.479167,Sixteenth,F#4
1583,Left,1,49,80,808.0,0.479167,Sixteenth,C#3
1584,Left,1,52,80,808.5,0.479167,Sixteenth,E3
1585,Right,0,64,80,809.0,0.479167,Sixteenth,E4
1586,Left,1,58,80,809.0,0.479167,Sixteenth,A#3
1587,Right,0,70,80,809.5,0.479167,Sixteenth,A#4
1588,Left,1,61,80,809.5,0.479167,Sixteenth,C#4
1589,Right,0,73,81,810.0,0.479167,Sixteenth,C#5
1590,Right,0,76,82,810.5,0.479167,Sixteenth,E5
1591,Left,1,47,83,811.0,0.479167,Sixteenth,B2
1592,Left,1,50,83,811.5,0.479167,Sixteenth,D3
1594,Right,0,62,84,812.0,0.479167,Sixteenth,D4
1593,Left,1,54,84,812.0,0.479167,Sixteenth,F#3
1595,Right,0,66,85,812.5,0.479167,Sixteenth,F#4
1596,Left,1,59,85,812.5,0.479167,Sixteenth,B3
1597,Right,0,71,86,813.0,0.479167,Sixteenth,B4
1598,Right,0,74,86,813.5,0.479167,Sixteenth,D5
1599,Left,1,57,87,814.0,0.479167,Sixteenth,A3
1600,Left,1,60,88,814.5,0.479167,Sixteenth,C4
1602,Right,0,72,89,815.0,0.479167,Sixteenth,C5
1601,Left,1,66,89,815.0,0.479167,Sixteenth,F#4
1604,Right,0,78,89,815.5,0.479167,Sixteenth,F#5
1603,Left,1,69,89,815.5,0.479167,Sixteenth,A4
1605,Right,0,81,90,816.0,0.479167,Sixteenth,A5
1606,Right,0,84,91,816.5,0.479167,Sixteenth,C6
1607,Left,1,43,92,817.0,0.479167,Sixteenth,G2
1608,Left,1,47,92,817.5,0.479167,Sixteenth,B2
1610,Left,1,50,93,818.0,0.479167,Sixteenth,D3
1609,Right,0,59,93,818.0,0.479167,Sixteenth,B3
1612,Left,1,55,94,818.5,0.479167,Sixteenth,G3
1611,Right,0,62,94,818.5,0.479167,Sixteenth,D4
1613,Right,0,67,95,819.0,0.479167,Sixteenth,G4
1614,Right,0,71,95,819.5,0.479167,Sixteenth,B4
1615,Left,1,54,96,820.0,0.479167,Sixteenth,F#3
1616,Left,1,57,97,820.5,0.479167,Sixteenth,A3
1618,Left,1,63,98,821.0,0.479167,Sixteenth,D#4
1617,Right,0,75,98,821.0,0.479167,Sixteenth,D#5
1620,Left,1,66,98,821.5,0.479167,Sixteenth,F#4
1619,Right,0,81,98,821.5,0.479167,Sixteenth,A5
1621,Right,0,83,99,822.0,0.479167,Sixteenth,B5
1622,Right,0,87,100,822.5,0.479167,Sixteenth,D#6
1623,Left,1,43,101,823.0,0.479167,Sixteenth,G2
1624,Left,1,47,101,823.5,0.479167,Sixteenth,B2
1626,Right,0,64,102,824.0,0.479167,Sixteenth,E4
1625,Left,1,52,102,824.0,0.479167,Sixteenth,E3
1627,Right,0,67,103,824.5,0.479167,Sixteenth,G4
1628,Left,1,55,103,824.5,0.479167,Sixteenth,G3
1629,Right,0,71,104,825.0,0.479167,Sixteenth,B4
1630,Right,0,76,104,825.5,0.479167,Sixteenth,E5
1631,Left,1,56,105,826.0,0.479167,Sixteenth,G#3
1632,Left,1,59,106,826.5,0.479167,Sixteenth,B3
1634,Right,0,74,107,827.0,0.479167,Sixteenth,D5
1633,Left,1,64,107,827.0,0.479167,Sixteenth,E4
1635,Right,0,76,107,827.5,0.479167,Sixteenth,E5
1636,Left,1,68,107,827.5,0.479167,Sixteenth,G#4
1637,Right,0,83,108,828.0,0.479167,Sixteenth,B5
1638,Right,0,86,109,828.5,0.479167,Sixteenth,D6
1639,Left,1,45,110,829.0,0.479167,Sixteenth,A2
1640,Left,1,49,110,829.5,0.479167,Sixteenth,C#3
1641,Right,0,61,110,830.0,0.479167,Sixteenth,C#4
1642,Left,1,52,110,830.0,0.479167,Sixteenth,E3
1644,Left,1,57,110,830.5,0.479167,Sixteenth,A3
1643,Right,0,64,110,830.5,0.479167,Sixteenth,E4
1645,Right,0,69,110,831.0,0.479167,Sixteenth,A4
1646,Right,0,73,110,831.5,0.479167,Sixteenth,C#5
1647,Left,1,57,110,832.0,0.479167,Sixteenth,A3
1648,Left,1,61,110,832.5,0.479167,Sixteenth,C#4
1650,Right,0,73,110,833.0,0.479167,Sixteenth,C#5
1649,Left,1,64,110,833.0,0.479167,Sixteenth,E4
1652,Right,0,76,110,833.5,0.479167,Sixteenth,E5
1651,Left,1,69,110,833.5,0.479167,Sixteenth,A4
1653,Right,0,81,110,834.0,0.479167,Sixteenth,A5
1654,Right,0,85,110,834.5,0.479167,Sixteenth,C#6
1655,Left,1,45,110,835.0,0.479167,Sixteenth,A2
1656,Left,1,50,110,835.5,0.479167,Sixteenth,D3
1658,Left,1,54,110,836.0,0.479167,Sixteenth,F#3
1657,Right,0,62,110,836.0,0.479167,Sixteenth,D4
1659,Right,0,66,110,836.5,0.479167,Sixteenth,F#4
1660,Left,1,57,110,836.5,0.479167,Sixteenth,A3
1661,Right,0,69,110,837.0,0.479167,Sixteenth,A4
1662,Right,0,74,110,837.5,0.479167,Sixteenth,D5
1663,Left,1,57,110,838.0,0.479167,Sixteenth,A3
1664,Left,1,62,110,838.5,0.479167,Sixteenth,D4
1665,Left,1,65,110,839.0,0.479167,Sixteenth,F4
1666,Right,0,74,110,839.0,0.479167,Sixteenth,D5
1668,Left,1,69,110,839.5,0.479167,Sixteenth,A4
1667,Right,0,80,110,839.5,0.479167,Sixteenth,G#5
1669,Right,0,83,110,840.0,0.479167,Sixteenth,B5
1670,Right,0,86,110,840.5,0.479167,Sixteenth,D6
1671,Left,1,33,110,841.0,0.479167,Sixteenth,A1
1672,Left,1,37,110,841.5,0.479167,Sixteenth,C#2
1674,Left,1,40,110,842.0,0.479167,Sixteenth,E2
1673,Right,0,49,110,842.0,0.479167,Sixteenth,C#3
1675,Left,1,45,110,842.5,0.479167,Sixteenth,A2
1676,Right,0,52,110,842.5,0.479167,Sixteenth,E3
1677,Right,0,57,110,843.0,0.479167,Sixteenth,A3
1678,Right,0,61,110,843.5,0.479167,Sixteenth,C#4
1679,Left,1,45,110,844.0,0.479167,Sixteenth,A2
1680,Left,1,49,110,844.5,0.479167,Sixteenth,C#3
1681,Left,1,52,110,845.0,0.479167,Sixteenth,E3
1682,Right,0,61,110,845.0,0.479167,Sixteenth,C#4
1684,Left,1,57,110,845.5,0.479167,Sixteenth,A3
1683,Right,0,64,110,845.5,0.479167,Sixteenth,E4
1685,Right,0,69,110,846.0,0.479167,Sixteenth,A4
1686,Right,0,73,110,846.5,0.479167,Sixteenth,C#5
1687,Left,1,33,110,847.0,0.479167,Sixteenth,A1
1688,Left,1,38,110,847.5,0.479167,Sixteenth,D2
1689,Right,0,50,110,848.0,0.479167,Sixteenth,D3
1690,Left,1,42,110,848.0,0.479167,Sixteenth,F#2
1691,Right,0,54,110,848.5,0.479167,Sixteenth,F#3
1692,Left,1,45,110,848.5,0.479167,Sixteenth,A2
1693,Right,0,57,110,849.0,0.479167,Sixteenth,A3
1694,Right,0,62,110,849.5,0.479167,Sixteenth,D4
1695,Left,1,45,110,850.0,0.479167,Sixteenth,A2
1696,Left,1,50,110,850.5,0.479167,Sixteenth,D3
1697,Right,0,62,110,851.0,0.479167,Sixteenth,D4
1698,Left,1,53,110,851.0,0.479167,Sixteenth,F3
1699,Right,0,68,110,851.5,0.479167,Sixteenth,G#4
1700,Left,1,57,110,851.5,0.479167,Sixteenth,A3
1701,Right,0,71,110,852.0,0.479167,Sixteenth,B4
1702,Right,0,74,110,852.5,0.479167,Sixteenth,D5
1703,Left,1,33,110,853.0,0.479167,Sixteenth,A1
1704,Left,1,38,110,853.5,0.479167,Sixteenth,D2
1705,Right,0,61,110,854.0,0.479167,Sixteenth,C#4
1706,Left,1,42,110,854.0,0.479167,Sixteenth,F#2
1707,Right,0,64,110,854.5,0.479167,Sixteenth,E4
1708,Left,1,45,110,854.5,0.479167,Sixteenth,A2
1709,Right,0,69,110,855.0,0.479167,Sixteenth,A4
1710,Right,0,73,110,855.5,0.479167,Sixteenth,C#5
1711,Left,1,33,110,856.0,0.479167,Sixteenth,A1
1712,Left,1,38,110,856.5,0.479167,Sixteenth,D2
1713,Right,0,57,110,857.0,0.479167,Sixteenth,A3
1714,Left,1,42,110,857.0,0.479167,Sixteenth,F#2
1715,Right,0,61,110,857.5,0.479167,Sixteenth,C#4
1716,Left,1,45,110,857.5,0.479167,Sixteenth,A2
1717,Right,0,64,110,858.0,0.479167,Sixteenth,E4
1718,Right,0,69,110,858.5,0.479167,Sixteenth,A4
1719,Left,1,33,110,859.0,0.479167,Sixteenth,A1
1720,Left,1,38,110,859.5,0.479167,Sixteenth,D2
1722,Left,1,42,110,860.0,0.479167,Sixteenth,F#2
1721,Right,0,52,110,860.0,0.479167,Sixteenth,E3
1724,Right,0,57,110,860.5,0.479167,Sixteenth,A3
1723,Left,1,45,110,860.5,0.479167,Sixteenth,A2
1725,Right,0,61,110,861.0,0.479167,Sixteenth,C#4
1726,Right,0,64,110,861.5,0.479167,Sixteenth,E4
1727,Left,1,33,110,862.0,0.479167,Sixteenth,A1
1728,Left,1,38,110,862.5,0.479167,Sixteenth,D2
1729,Left,1,42,110,863.0,0.479167,Sixteenth,F#2
1730,Right,0,49,110,863.0,0.479167,Sixteenth,C#3
1732,Right,0,52,110,863.5,0.479167,Sixteenth,E3
1731,Left,1,45,110,863.5,0.479167,Sixteenth,A2
1733,Right,0,57,110,864.0,0.479167,Sixteenth,A3
1734,Right,0,61,110,864.5,0.479167,Sixteenth,C#4
1735,Left,1,33,120,865.0,4.979167,Half,A1
1736,Right,0,78,80,870.0,0.979167,Eighth,F#5
1737,Right,0,74,80,871.0,1.979167,Quarter,D5
1738,Right,0,81,80,873.0,0.979167,Eighth,A5
1739,Right,0,78,80,874.0,1.979167,Quarter,F#5
1740,Right,0,66,80,876.0,0.979167,Eighth,F#4_D5
1742,Right,0,69,80,877.0,1.979167,Quarter,D4_A4
1744,Right,0,69,80,879.0,0.979167,Eighth,F#5_A4
1746,Right,0,74,80,880.0,1.979167,Quarter,F#4_D5
1749,Right,0,69,80,882.0,5.979167,DottedHalf,D4_A4
1748,Left,1,54,80,882.0,0.979167,Eighth,F#3
1751,Left,1,50,80,883.0,1.979167,Quarter,D3
1752,Right,0,66,80,883.0,1.979167,Quarter,F#4
1753,Left,1,57,80,885.0,0.979167,Eighth,A3
1754,Right,0,62,80,885.0,0.979167,Eighth,D4
1756,Right,0,57,80,886.0,1.979167,Quarter,A3
1755,Left,1,54,80,886.0,1.979167,Quarter,F#3
1758,Left,1,50,80,888.0,0.979167,Eighth,D3
1757,Right,0,66,80,888.0,0.979167,Eighth,F#4_D4
1762,Left,1,57,80,889.0,1.979167,Quarter,A3
1760,Right,0,61,80,889.0,1.979167,Quarter,E4_C#4
1764,Right,0,67,80,891.0,0.979167,Eighth,G4_E4
1763,Left,1,45,80,891.0,0.979167,Eighth,A2
1767,Right,0,69,80,892.0,0.979167,Eighth,F#4_D4_A4
1766,Left,1,50,80,892.0,1.979167,Quarter,D3
1770,Right,0,78,80,893.5,0.479167,Sixteenth,F#5
1771,Right,0,77,80,894.0,0.479167,Sixteenth,F5
1772,Right,0,78,80,894.5,0.479167,Sixteenth,F#5
1773,Right,0,74,80,895.0,0.979167,Eighth,D5
1774,Right,0,81,80,896.5,0.479167,Sixteenth,A5
1775,Right,0,80,80,897.0,0.479167,Sixteenth,G#5
1776,Right,0,81,80,897.5,0.479167,Sixteenth,A5
1777,Right,0,78,80,898.0,0.979167,Eighth,F#5
1778,Right,0,66,80,899.5,0.479167,Sixteenth,F#4
1779,Right,0,65,80,900.0,0.979167,Sixteenth,F4_D5
1781,Right,0,66,80,900.5,0.479167,Sixteenth,F#4
1782,Right,0,62,80,901.0,0.979167,Eighth,D4_A4
1784,Right,0,69,80,902.5,0.479167,Sixteenth,A4
1785,Right,0,68,80,903.0,0.979167,Sixteenth,G#4_F#5
1787,Right,0,69,80,903.5,0.479167,Sixteenth,A4
1788,Right,0,74,80,904.0,0.979167,Eighth,F#4_D5
1790,Left,1,54,80,905.5,0.479167,Sixteenth,F#3
1792,Right,0,62,80,906.0,0.979167,Eighth,D4_A4
1791,Left,1,53,80,906.0,0.479167,Sixteenth,F3
1794,Left,1,54,80,906.5,0.479167,Sixteenth,F#3
1795,Right,0,69,80,907.0,4.979167,Half,A4
1796,Left,1,50,80,907.0,0.979167,Eighth,D3
1797,Left,1,57,80,908.5,0.479167,Sixteenth,A3
1798,Left,1,56,80,909.0,0.479167,Sixteenth,G#3
1799,Right,0,62,80,909.0,0.979167,Eighth,D4
1800,Left,1,57,80,909.5,0.479167,Sixteenth,A3
1801,Right,0,57,80,910.0,1.979167,Quarter,A3
1802,Left,1,54,80,910.0,0.979167,Eighth,F#3
1803,Right,0,66,80,912.0,5.979167,Eighth,F#4_D4_A4
1806,Left,1,50,80,912.0,0.979167,Eighth,D3
1807,Left,1,57,80,913.0,1.979167,Quarter,A3
1809,Left,1,45,80,915.0,0.979167,Eighth,A2
1808,Right,0,67,80,915.0,0.979167,Eighth,G4_E4
1811,Right,0,66,80,916.0,1.979167,Quarter,F#4_D4
1813,Left,1,50,80,916.0,1.979167,Quarter,D3
1814,Left,1,42,80,918.0,0.979167,Eighth,F#2
1815,Right,0,69,92,918.0,0.979167,Eighth,F#4_D5_A4
1818,Right,0,64,80,919.0,1.979167,Quarter,E4_C#5_A4
1821,Left,1,43,80,919.0,1.979167,Quarter,G2
1822,Right,0,69,80,921.0,0.979167,Eighth,G4_E5_A4
1824,Left,1,33,80,921.0,0.979167,Eighth,A1
1826,Right,0,66,80,922.0,1.979167,Quarter,F#4_D5_A4
1829,Left,1,38,80,922.0,1.979167,Quarter,D2
1833,Left,1,54,80,924.0,0.979167,Eighth,F#3
1830,Right,0,62,80,924.0,5.979167,Eighth,F#4_D4_A4
1834,Left,1,57,80,925.0,1.979167,Quarter,A3
1837,Left,1,45,80,927.0,0.979167,Eighth,A2
1835,Right,0,67,80,927.0,0.979167,Eighth,G4_E4
1839,Right,0,66,81,928.0,1.979167,Quarter,F#4_D4
1838,Left,1,50,81,928.0,1.979167,Quarter,D3
1842,Left,1,42,84,930.0,0.979167,Eighth,F#2
1841,Right,0,66,96,930.0,0.979167,Eighth,F#4_D5_A4
1845,Left,1,43,85,931.0,1.979167,Quarter,G2
1846,Right,0,69,85,931.0,1.979167,Quarter,E4_C#5_A4
1851,Left,1,33,88,933.0,0.979167,Eighth,A1
1849,Right,0,69,88,933.0,0.979167,Eighth,G4_E5_A4
1856,Left,1,38,89,934.0,1.979167,Quarter,D2
1853,Right,0,66,89,934.0,1.979167,Quarter,F#4_D5_A4
1857,Left,1,38,92,936.0,0.979167,Eighth,D2
1858,Right,0,78,104,936.0,0.979167,Eighth,F#5_D5_A4
1862,Right,0,76,94,937.0,1.979167,Quarter,E5_C#5_A4
1861,Left,1,45,94,937.0,1.979167,Quarter,A2
1868,Left,1,33,97,939.0,0.979167,Eighth,A1
1865,Right,0,76,97,939.0,0.979167,Eighth,G5_E5_A4
1869,Right,0,78,98,940.0,1.979167,Quarter,F#5_D5_A4
1872,Left,1,38,98,940.0,1.979167,Quarter,D2
1874,Right,0,86,110,942.0,0.979167,Eighth,F#5_D6_A5
1873,Left,1,38,101,942.0,0.979167,Eighth,D2
1877,Right,0,85,102,943.0,1.979167,Quarter,E5_C#6_A5
1880,Left,1,45,102,943.0,1.979167,Quarter,A2
1882,Right,0,81,105,945.0,0.979167,Eighth,G5_E6_A5
1881,Left,1,33,105,945.0,0.979167,Eighth,A1
1885,Left,1,38,107,946.0,1.979167,Quarter,D2
1886,Right,0,78,107,946.0,1.979167,Quarter,F#5_D6_A5
1889,Left,1,47,109,948.0,0.979167,Eighth,B2_B1
1891,Right,0,78,109,948.0,0.979167,Eighth,F#5_D#6_A5
1894,Right,0,79,110,949.0,5.979167,DottedHalf,G5_E6_B5
1897,Left,1,43,110,949.0,5.979167,DottedHalf,G2_G1
1899,Right,0,79,110,955.0,5.979167,DottedHalf,G5_C#6
1900,Left,1,33,110,955.0,5.979167,DottedHalf,A2_A1
1903,Right,0,86,110,955.25,0.479167,Sixteenth,D6
1904,Right,0,85,110,955.5,0.479167,Sixteenth,C#6
1905,Right,0,86,110,955.75,0.479167,Sixteenth,D6
1906,Right,0,85,110,956.0,0.479167,Sixteenth,C#6
1907,Right,0,86,110,956.25,0.479167,Sixteenth,D6
1908,Right,0,85,110,956.5,0.479167,Sixteenth,C#6
1909,Right,0,86,110,956.75,0.479167,Sixteenth,D6
1910,Right,0,85,110,957.0,0.479167,Sixteenth,C#6
1911,Right,0,86,110,957.25,0.479167,Sixteenth,D6
1912,Right,0,85,110,957.5,0.479167,Sixteenth,C#6
1913,Right,0,86,110,957.75,0.479167,Sixteenth,D6
1914,Right,0,85,110,958.0,0.479167,Sixteenth,C#6
1915,Right,0,86,110,958.25,0.479167,Sixteenth,D6
1916,Right,0,85,110,958.5,0.479167,Sixteenth,C#6
1917,Right,0,86,110,958.75,0.479167,Sixteenth,D6
1918,Right,0,85,110,959.0,0.479167,Sixteenth,C#6
1919,Right,0,86,110,959.25,0.479167,Sixteenth,D6
1920,Right,0,85,110,959.5,0.479167,Sixteenth,C#6
1921,Right,0,86,110,959.75,0.479167,Sixteenth,D6
1922,Right,0,85,110,960.0,0.479167,Sixteenth,C#6
1923,Right,0,86,110,960.25,0.479167,Sixteenth,D6
1924,Right,0,83,110,960.5,0.479167,Sixteenth,B5
1925,Right,0,85,110,960.75,1.479167,DottedEighth,C#6
1927,Left,1,38,110,961.0,11.979167,DottedQuarter,D3_D2
1926,Right,0,74,110,961.0,1.479167,DottedEighth,D5
1929,Right,0,78,110,961.5,1.479167,DottedEighth,F#5
1930,Right,0,81,110,962.0,1.479167,DottedEighth,A5
1931,Right,0,86,110,962.5,0.927083,Eighth,D6
1932,Right,0,74,110,963.0,1.479167,DottedEighth,D5
1933,Right,0,86,110,963.5,1.479167,DottedEighth,D6
1935,Left,1,49,110,964.0,0.979167,Eighth,C#3
1934,Right,0,73,110,964.0,1.479167,DottedEighth,C#5
1936,Right,0,85,110,964.5,1.479167,DottedEighth,C#6
1937,Left,1,47,110,965.0,0.979167,Eighth,B2
1938,Right,0,71,110,965.0,1.479167,DottedEighth,B4
1939,Right,0,83,110,965.5,1.479167,DottedEighth,B5
1940,Left,1,45,110,966.0,0.979167,Eighth,A2
1941,Right,0,69,110,966.0,1.479167,DottedEighth,A4
1942,Right,0,81,110,966.5,1.479167,DottedEighth,A5
1944,Right,0,71,110,967.0,1.479167,DottedEighth,B4
1943,Left,1,47,110,967.0,0.979167,Eighth,B2
1945,Right,0,83,110,967.5,1.479167,DottedEighth,B5
1947,Right,0,69,110,968.0,1.479167,DottedEighth,A4
1946,Left,1,45,110,968.0,0.979167,Eighth,A2
1948,Right,0,81,110,968.5,1.479167,DottedEighth,A5
1950,Left,1,43,110,969.0,0.979167,Eighth,G2
1949,Right,0,67,110,969.0,1.479167,DottedEighth,G4
1951,Right,0,79,110,969.5,1.479167,DottedEighth,G5
1953,Left,1,42,110,970.0,0.979167,Eighth,F#2
1952,Right,0,66,110,970.0,1.479167,DottedEighth,F#4
1954,Right,0,78,110,970.5,1.479167,DottedEighth,F#5
1956,Left,1,43,110,971.0,0.979167,Eighth,G2
1955,Right,0,67,110,971.0,1.479167,DottedEighth,G4
1957,Right,0,79,110,971.5,1.479167,DottedEighth,G5
1959,Right,0,69,110,972.0,1.479167,DottedEighth,A4
1958,Left,1,45,110,972.0,0.979167,Eighth,A2
1960,Right,0,81,110,972.5,1.479167,DottedEighth,A5
1961,Right,0,74,110,973.0,1.479167,DottedEighth,D5
1962,Left,1,50,110,973.0,11.979167,Unknown,D3_D2
1964,Right,0,78,110,973.5,1.479167,DottedEighth,F#5
1965,Right,0,81,110,974.0,1.479167,DottedEighth,A5
1966,Right,0,86,110,974.5,0.9375,Eighth,D6
1967,Right,0,74,110,975.0,1.479167,DottedEighth,D5
1968,Right,0,86,110,975.5,1.479167,DottedEighth,D6
1969,Right,0,73,110,976.0,1.479167,DottedEighth,C#5
1970,Left,1,49,110,976.0,0.979167,Eighth,C#3
1971,Right,0,85,110,976.5,1.479167,DottedEighth,C#6
1973,Left,1,47,110,977.0,0.979167,Eighth,B2
1972,Right,0,71,110,977.0,1.479167,DottedEighth,B4
1974,Right,0,83,110,977.5,1.479167,DottedEighth,B5
1975,Right,0,69,110,978.0,1.479167,DottedEighth,A4
1976,Left,1,45,110,978.0,0.979167,Eighth,A2
1977,Right,0,81,110,978.5,1.479167,DottedEighth,A5
1979,Left,1,47,110,979.0,0.979167,Eighth,B2
1978,Right,0,71,110,979.0,1.479167,DottedEighth,B4
1980,Right,0,83,110,979.5,1.479167,DottedEighth,B5
1981,Left,1,45,110,980.0,0.979167,Eighth,A2
1982,Right,0,69,110,980.0,1.479167,DottedEighth,A4
1983,Right,0,81,110,980.5,1.479167,DottedEighth,A5
1984,Left,1,43,110,981.0,0.979167,Eighth,G2
1985,Right,0,67,110,981.0,1.479167,DottedEighth,G4
1986,Right,0,79,110,981.5,1.479167,DottedEighth,G5
1987,Right,0,66,110,982.0,1.479167,DottedEighth,F#4
1988,Left,1,42,110,982.0,0.979167,Eighth,F#2
1989,Right,0,78,110,982.5,1.479167,DottedEighth,F#5
1991,Left,1,43,110,983.0,0.979167,Eighth,G2
1990,Right,0,67,110,983.0,1.479167,DottedEighth,G4
1992,Right,0,79,110,983.5,1.479167,DottedEighth,G5
1994,Left,1,45,110,984.0,0.979167,Eighth,A2
1993,Right,0,69,110,984.0,1.479167,DottedEighth,A4
1995,Right,0,81,110,984.5,1.479167,DottedEighth,A5
1997,Right,0,74,110,985.0,1.479167,DottedEighth,D5
1996,Left,1,38,110,985.0,11.979167,DottedQuarter,D3_D2
1999,Right,0,78,110,985.5,1.479167,DottedEighth,F#5
2000,Right,0,81,110,986.0,1.479167,DottedEighth,A5
2001,Right,0,86,110,986.5,0.96875,Eighth,D6
2002,Right,0,74,110,987.0,1.479167,DottedEighth,D5
2003,Right,0,86,110,987.5,1.479167,DottedEighth,D6
2005,Right,0,72,110,988.0,1.479167,DottedEighth,C5
2004,Left,1,48,110,988.0,0.979167,Eighth,C3
2006,Right,0,84,110,988.5,1.479167,DottedEighth,C6
2008,Left,1,47,110,989.0,0.979167,Eighth,B2
2007,Right,0,71,110,989.0,1.479167,DottedEighth,B4
2009,Right,0,83,110,989.5,1.479167,DottedEighth,B5
2010,Left,1,45,110,990.0,0.979167,Eighth,A2
2011,Right,0,69,110,990.0,1.479167,DottedEighth,A4
2012,Right,0,81,110,990.5,1.479167,DottedEighth,A5
2013,Left,1,43,110,991.0,0.979167,Eighth,G2
2014,Right,0,67,110,991.0,1.479167,DottedEighth,G4
2015,Right,0,79,110,991.5,1.479167,DottedEighth,G5
2016,Left,1,42,110,992.0,0.979167,Eighth,F#2
2017,Right,0,66,110,992.0,1.479167,DottedEighth,F#4
2018,Right,0,78,110,992.5,1.479167,DottedEighth,F#5
2019,Right,0,64,110,993.0,1.479167,DottedEighth,E4
2020,Left,1,40,110,993.0,0.979167,Eighth,E2
2021,Right,0,76,110,993.5,1.479167,DottedEighth,E5
2023,Right,0,62,110,994.0,1.479167,DottedEighth,D4
2022,Left,1,38,110,994.0,0.979167,Eighth,D2
2024,Right,0,74,110,994.5,1.479167,DottedEighth,D5
2027,Right,0,60,110,995.0,1.479167,DottedEighth,C4
2025,Left,1,36,110,995.0,0.979167,Eighth,C3_C2
2028,Right,0,72,110,995.5,1.479167,DottedEighth,C5
2029,Left,1,47,110,996.0,0.979167,Eighth,B2_B1
2031,Right,0,59,110,996.0,0.96875,Eighth,B3
2032,Right,0,71,110,996.5,0.479167,Sixteenth,B4
2035,Right,0,60,110,997.0,1.979167,Quarter,C5_C4
2033,Left,1,48,110,997.0,1.979167,Quarter,C3_C2
2037,Left,1,49,110,1003.0,1.979167,Quarter,C#3_C#2
2039,Right,0,61,110,1003.0,1.979167,Quarter,C#5_C#4
2041,Left,1,50,70,1014.0,0.979167,Eighth,D3
2042,Left,1,43,70,1015.0,1.979167,Quarter,G2
2043,Right,0,74,70,1016.0,1.979167,Quarter,D5_B4
2045,Left,1,50,70,1017.0,0.979167,Eighth,D3
2046,Left,1,43,70,1018.0,1.979167,Quarter,G2
2047,Right,0,71,70,1019.0,1.979167,Quarter,C5_B4
2049,Left,1,52,70,1020.0,0.979167,Eighth,E3
2050,Left,1,43,70,1021.0,1.979167,Quarter,G2
2051,Right,0,72,70,1022.0,1.979167,Quarter,C5_A4
2053,Left,1,54,70,1023.0,0.979167,Eighth,F#3
2054,Left,1,43,70,1024.0,1.979167,Quarter,G2
2055,Right,0,71,70,1025.0,1.979167,Quarter,G4_B4
2057,Left,1,55,70,1026.0,0.979167,Eighth,G3
2058,Left,1,43,70,1027.0,1.979167,Quarter,G2
2059,Right,0,83,70,1028.0,1.979167,Quarter,G5_B5
2061,Left,1,47,70,1029.0,0.979167,Eighth,B2
2062,Left,1,43,70,1030.0,1.979167,Quarter,G2
2063,Right,0,81,70,1031.0,1.979167,Quarter,G5_A5
2065,Left,1,48,70,1032.0,0.979167,Eighth,C3
2066,Left,1,43,70,1033.0,1.979167,Quarter,G2
2067,Right,0,78,70,1034.0,1.979167,Quarter,F#5_A5
2069,Left,1,50,70,1035.0,0.979167,Eighth,D3
2070,Left,1,43,70,1036.0,1.979167,Quarter,G2
2071,Right,0,79,70,1037.0,1.979167,Quarter,G5
2072,Left,1,55,70,1038.0,0.979167,Eighth,G3
2073,Left,1,43,70,1039.0,1.979167,Quarter,G2
2074,Right,0,71,70,1040.0,1.979167,Quarter,D5_B4
2076,Left,1,50,70,1041.0,0.979167,Eighth,D3
2077,Left,1,43,70,1042.0,1.979167,Quarter,G2
2078,Right,0,71,70,1043.0,1.979167,Quarter,C5_B4
2080,Left,1,52,70,1044.0,0.979167,Eighth,E3
2081,Left,1,43,70,1045.0,1.979167,Quarter,G2
2082,Right,0,69,70,1046.0,1.979167,Quarter,C5_A4
2084,Left,1,54,70,1047.0,0.979167,Eighth,F#3
2085,Left,1,43,70,1048.0,1.979167,Quarter,G2
2086,Right,0,71,70,1049.0,1.979167,Quarter,G4_B4
2088,Left,1,55,70,1050.0,0.979167,Eighth,G3
2089,Left,1,44,70,1051.0,1.979167,Quarter,G#2
2090,Right,0,71,70,1052.0,1.979167,Quarter,F4_D4_B4
2093,Left,1,56,71,1053.0,0.979167,Eighth,G#3
2094,Left,1,45,72,1054.0,1.979167,Quarter,A2
2095,Right,0,62,73,1055.0,1.979167,Quarter,F4_D4_A4
2098,Left,1,57,74,1056.0,0.979167,Eighth,A3
2099,Left,1,46,75,1057.0,1.979167,Quarter,A#2
2100,Right,0,65,76,1058.0,1.979167,Quarter,G#4_F4_D4
2103,Left,1,58,77,1059.0,0.979167,Eighth,A#3
2104,Left,1,47,78,1060.0,1.979167,Quarter,B2
2105,Right,0,68,79,1061.0,1.979167,Quarter,G#4_D4
2107,Left,1,59,79,1062.0,0.979167,Eighth,B3
2108,Left,1,45,80,1063.0,1.979167,Quarter,A2
2109,Right,0,69,80,1063.0,1.979167,Quarter,C#4_A4
2112,Right,0,69,81,1065.0,0.979167,Eighth,C#4_A4
2111,Left,1,57,81,1065.0,0.979167,Eighth,A3
2116,Left,1,45,82,1066.0,1.979167,Quarter,A2
2114,Right,0,66,82,1066.0,1.979167,Quarter,F#4_D4
2117,Right,0,63,84,1068.0,0.979167,Eighth,D#4_B4
2118,Left,1,57,84,1068.0,0.979167,Eighth,A3
2121,Left,1,45,85,1069.0,1.979167,Quarter,A2
2120,Right,0,64,85,1069.0,1.979167,Quarter,G4_E4
2125,Left,1,57,86,1071.0,0.979167,Eighth,A3
2123,Right,0,73,86,1071.0,0.979167,Eighth,F4_C#5
2126,Right,0,66,87,1072.0,1.979167,Quarter,F#4_A4
2128,Left,1,45,87,1072.0,1.979167,Quarter,A2
2129,Left,1,57,89,1074.0,0.979167,Eighth,A3
2130,Right,0,74,89,1074.0,0.979167,Eighth,F#4_D5
2132,Right,0,71,90,1075.0,1.979167,Quarter,G4_B4
2134,Left,1,45,90,1075.0,1.979167,Quarter,A2
2136,Right,0,76,91,1077.0,0.979167,Eighth,G#4_E5
2135,Left,1,57,91,1077.0,0.979167,Eighth,A3
2138,Right,0,73,92,1078.0,1.979167,Quarter,C#5_A4
2139,Left,1,45,92,1078.0,1.979167,Quarter,A2
2141,Left,1,57,94,1080.0,0.979167,Eighth,A3
2142,Right,0,78,94,1080.0,0.979167,Eighth,F#5_A#4
2145,Left,1,45,95,1081.0,1.979167,Quarter,A2
2144,Right,0,74,95,1081.0,1.979167,Quarter,D5_B4
2147,Right,0,79,97,1083.0,0.979167,Eighth,G5_B4
2149,Left,1,57,97,1083.0,0.979167,Eighth,A3
2150,Left,1,45,97,1084.0,1.979167,Quarter,A2
2151,Right,0,72,97,1084.0,1.979167,Quarter,E5_C5
2153,Left,1,57,99,1086.0,0.979167,Eighth,A3
2154,Right,0,73,99,1086.0,0.979167,Eighth,C#5_A5
2157,Left,1,45,100,1087.0,1.979167,Quarter,A2
2156,Right,0,74,100,1087.0,1.979167,Quarter,F#5_D5
2159,Left,1,57,102,1089.0,0.979167,Eighth,A3
2160,Right,0,71,102,1089.0,0.979167,Eighth,G5_B4
2163,Right,0,76,103,1090.0,1.979167,Quarter,E5_C5
2162,Left,1,45,103,1090.0,1.979167,Quarter,A2
2165,Right,0,81,104,1092.0,0.979167,Eighth,C#5_A5
2167,Left,1,57,104,1092.0,0.979167,Eighth,A3
2169,Left,1,45,105,1093.0,1.979167,Quarter,A2
2168,Right,0,78,105,1093.0,1.979167,Quarter,F#5_D5
2171,Left,1,57,107,1095.0,0.979167,Eighth,A3
2172,Right,0,71,107,1095.0,0.979167,Eighth,G5_B4
2174,Left,1,45,108,1096.0,1.979167,Quarter,A2
2175,Right,0,72,108,1096.0,1.979167,Quarter,E5_C5
2179,Left,1,57,109,1098.0,0.979167,Eighth,A3
2177,Right,0,73,109,1098.0,0.979167,Eighth,C#5_A5
2181,Left,1,45,110,1099.0,0.979167,Eighth,A2
2180,Right,0,78,110,1099.0,0.979167,Eighth,F#5_D5
2183,Right,0,79,110,1100.0,0.979167,Eighth,G5_B4
2184,Left,1,57,110,1100.0,0.979167,Eighth,A3
2186,Left,1,45,110,1101.0,0.979167,Eighth,A2
2187,Right,0,73,110,1101.0,0.979167,Eighth,E5_C#5
2189,Right,0,69,110,1102.0,0.979167,Eighth,F#5_A4
2190,Left,1,57,110,1102.0,0.979167,Eighth,A3
2192,Right,0,74,110,1103.0,0.979167,Eighth,D5_B4
2193,Left,1,45,110,1103.0,0.979167,Eighth,A2
2197,Left,1,57,110,1104.0,0.979167,Eighth,A3
2195,Right,0,76,110,1104.0,0.979167,Eighth,G4_E5
2200,Left,1,33,110,1105.0,0.979167,Eighth,A1
2198,Right,0,73,110,1105.0,0.979167,Eighth,C#5_A4
2202,Right,0,74,110,1106.0,0.979167,Eighth,F#4_D5
2201,Left,1,45,110,1106.0,0.979167,Eighth,A2
2205,Left,1,33,110,1107.0,0.979167,Eighth,A1
2204,Right,0,67,110,1107.0,0.979167,Eighth,G4_B4
2207,Right,0,64,110,1108.0,0.979167,Eighth,E4_C#5
2209,Left,1,45,110,1108.0,0.979167,Eighth,A2
2210,Right,0,69,110,1109.0,0.979167,Eighth,F#4_A4
2212,Left,1,33,110,1109.0,0.979167,Eighth,A1
2214,Left,1,45,110,1110.0,0.979167,Eighth,A2
2213,Right,0,71,110,1110.0,0.979167,Eighth,D4_B4
2217,Right,0,67,110,1111.0,0.979167,Eighth,G4_E4
2216,Left,1,33,110,1111.0,0.979167,Eighth,A1
2219,Right,0,69,110,1112.0,0.979167,Eighth,C#4_A4
2221,Left,1,45,110,1112.0,0.979167,Eighth,A2
2223,Right,0,66,110,1113.0,0.979167,Eighth,F#4_D4
2222,Left,1,33,110,1113.0,0.979167,Eighth,A1
2226,Right,0,59,110,1114.0,0.979167,Eighth,G4_B3
2225,Left,1,45,110,1114.0,0.979167,Eighth,A2
2229,Left,1,33,110,1115.0,0.979167,Eighth,A1
2228,Right,0,61,110,1115.0,0.979167,Eighth,E4_C#4
2232,Right,0,66,110,1116.0,0.979167,Eighth,F#4_A3
2231,Left,1,45,110,1116.0,0.979167,Eighth,A2
2234,Right,0,62,110,1117.0,0.979167,Eighth,D4_B3
2235,Left,1,33,110,1117.0,0.979167,Eighth,A1
2237,Left,1,45,110,1118.0,0.979167,Eighth,A2
2238,Right,0,55,110,1118.0,0.979167,Eighth,G3_E4
2242,Left,1,33,110,1119.0,0.979167,Eighth,A1
2240,Right,0,57,110,1119.0,0.979167,Eighth,C#4_A3
2245,Left,1,45,110,1120.0,0.979167,Eighth,A2
2243,Right,0,54,110,1120.0,0.979167,Eighth,F#3_D4
2248,Left,1,33,110,1121.0,0.979167,Eighth,A1
2246,Right,0,55,110,1121.0,0.979167,Eighth,G3_B3
2250,Right,0,52,110,1122.0,0.979167,Eighth,E3_C#4
2249,Left,1,45,110,1122.0,0.979167,Eighth,A2
2252,Left,1,33,120,1123.0,0.979167,Eighth,A1
2253,Left,1,37,120,1123.5,0.979167,Eighth,C#2
2254,Left,1,40,120,1124.0,0.979167,Eighth,E2
2256,Right,0,45,120,1124.5,0.979167,Eighth,A2
2255,Left,1,43,120,1124.5,0.979167,Eighth,G2
2257,Right,0,49,120,1125.0,0.979167,Eighth,C#3
2258,Right,0,52,120,1125.5,0.979167,Eighth,E3
2259,Right,0,55,120,1126.0,1.479167,DottedEighth,G3
2260,Left,1,45,120,1126.0,0.979167,Eighth,A2
2261,Left,1,49,120,1126.5,0.979167,Eighth,C#3
2262,Left,1,52,120,1127.0,0.979167,Eighth,E3
2263,Left,1,55,120,1127.5,0.979167,Eighth,G3
2264,Right,0,57,120,1127.5,0.979167,Eighth,A3
2265,Right,0,61,120,1128.0,0.979167,Eighth,C#4
2266,Right,0,64,120,1128.5,0.979167,Eighth,E4
2267,Right,0,67,120,1129.0,1.979167,Quarter,G4
2268,Left,1,45,80,1135.0,0.979167,Eighth,A2
2269,Left,1,49,80,1135.5,0.979167,Eighth,C#3
2270,Left,1,52,80,1136.0,0.979167,Eighth,E3
2271,Right,0,57,80,1136.5,0.979167,Eighth,A3
2272,Left,1,55,80,1136.5,0.979167,Eighth,G3
2273,Right,0,61,80,1137.0,0.979167,Eighth,C#4
2274,Right,0,64,80,1137.5,0.979167,Eighth,E4
2275,Right,0,67,80,1138.0,1.479167,DottedEighth,G4
2276,Left,1,57,80,1138.0,0.979167,Eighth,A3
2277,Left,1,61,80,1138.5,0.979167,Eighth,C#4
2278,Left,1,64,80,1139.0,0.979167,Eighth,E4
2280,Left,1,67,80,1139.5,0.979167,Eighth,G4
2279,Right,0,69,80,1139.5,0.979167,Eighth,A4
2281,Right,0,73,80,1140.0,0.979167,Eighth,C#5
2282,Right,0,76,80,1140.5,0.979167,Eighth,E5
2283,Right,0,79,80,1141.0,1.979167,Quarter,G5
2284,Left,1,57,80,1147.0,0.979167,Eighth,A3
2285,Left,1,61,80,1147.5,0.979167,Eighth,C#4
2286,Left,1,64,80,1148.0,0.979167,Eighth,E4
2287,Left,1,67,79,1148.5,0.979167,Eighth,G4
2288,Right,0,69,79,1148.5,0.979167,Eighth,A4
2289,Right,0,73,79,1149.0,0.979167,Eighth,C#5
2290,Right,0,76,78,1149.5,0.979167,Eighth,E5
2291,Right,0,79,78,1150.0,1.979167,Quarter,G5
2292,Left,1,57,76,1153.0,0.979167,Eighth,A3
2293,Left,1,61,75,1153.5,0.979167,Eighth,C#4
2294,Left,1,64,75,1154.0,0.979167,Eighth,E4
2296,Right,0,69,74,1154.5,0.979167,Eighth,A4
2295,Left,1,67,74,1154.5,0.979167,Eighth,G4
2297,Right,0,73,74,1155.0,0.979167,Eighth,C#5
2298,Right,0,76,73,1155.5,0.979167,Eighth,E5
2299,Right,0,79,73,1156.0,6.979167,DottedHalf,G5
2300,Left,1,57,80,1164.0,0.979167,Eighth,A3_A2
2302,Right,0,79,80,1164.0,0.979167,Eighth,G5
2303,Right,0,78,80,1164.5,0.979167,Eighth,F#5
2305,Left,1,50,80,1165.0,1.979167,Quarter,D3_D2
2304,Right,0,77,80,1165.0,0.979167,Eighth,F5
2307,Right,0,78,81,1165.5,0.979167,Eighth,F#5
2308,Right,0,79,81,1166.0,0.979167,Eighth,G5
2309,Right,0,78,82,1166.5,0.979167,Eighth,F#5
2310,Left,1,57,82,1167.0,0.979167,Eighth,A3_A2
2311,Right,0,86,82,1167.0,0.979167,Eighth,D6
2313,Right,0,78,82,1167.5,0.979167,Eighth,F#5
2316,Right,0,81,83,1168.0,0.979167,Eighth,A5
2314,Left,1,50,83,1168.0,1.979167,Quarter,D3_D2
2317,Right,0,79,83,1168.5,0.979167,Eighth,G5
2318,Right,0,78,84,1169.0,0.979167,Eighth,F#5
2319,Right,0,79,84,1169.5,0.979167,Eighth,G5
2321,Left,1,59,84,1170.0,0.979167,Eighth,B3_B2
2320,Right,0,86,84,1170.0,0.979167,Eighth,D6
2323,Right,0,79,85,1170.5,0.979167,Eighth,G5
2325,Right,0,81,85,1171.0,0.979167,Eighth,A5
2324,Left,1,50,85,1171.0,1.979167,Quarter,D3_D2
2327,Right,0,79,86,1171.5,0.979167,Eighth,G5
2328,Right,0,78,86,1172.0,0.979167,Eighth,F#5
2329,Right,0,79,86,1172.5,0.979167,Eighth,G5
2330,Right,0,88,87,1173.0,0.979167,Eighth,E6
2331,Left,1,61,87,1173.0,0.979167,Eighth,C#4_C#3
2333,Right,0,79,88,1174.0,0.479167,Sixteenth,G5
2334,Left,1,50,88,1174.0,1.979167,Quarter,D3_D2
2336,Right,0,78,88,1174.5,0.979167,Eighth,F#5
2337,Right,0,77,88,1175.0,0.979167,Eighth,F5
2338,Right,0,78,89,1175.5,0.979167,Eighth,F#5
2339,Right,0,86,89,1176.0,0.979167,Eighth,D6
2340,Left,1,50,89,1176.0,0.979167,Eighth,D4_D3
2342,Right,0,78,90,1176.5,0.979167,Eighth,F#5
2343,Left,1,38,90,1177.0,1.979167,Quarter,D3_D2
2345,Right,0,76,90,1177.0,0.979167,Eighth,E5
2346,Right,0,74,90,1177.5,0.979167,Eighth,D5
2347,Right,0,73,91,1178.0,0.979167,Eighth,C#5
2348,Right,0,74,91,1178.5,0.979167,Eighth,D5
2349,Left,1,54,92,1179.0,0.979167,Eighth,F#3_F#2
2351,Right,0,86,92,1179.0,0.979167,Eighth,D6
2352,Right,0,74,92,1179.5,0.979167,Eighth,D5
2353,Left,1,38,92,1180.0,1.979167,Quarter,D3_D2
2355,Right,0,73,92,1180.0,0.979167,Eighth,C#5
2356,Right,0,71,93,1180.5,0.979167,Eighth,B4
2357,Right,0,70,93,1181.0,0.979167,Eighth,A#4
2358,Right,0,71,94,1181.5,0.979167,Eighth,B4
2360,Left,1,55,94,1182.0,0.979167,Eighth,G3_G2
2359,Right,0,83,94,1182.0,0.979167,Eighth,B5
2362,Right,0,71,94,1182.5,0.979167,Eighth,B4
2363,Left,1,50,95,1183.0,1.979167,Quarter,D3_D2
2365,Right,0,69,95,1183.0,0.979167,Eighth,A4
2366,Right,0,67,95,1183.5,0.979167,Eighth,G4
2367,Right,0,66,96,1184.0,0.979167,Eighth,F#4
2368,Right,0,67,96,1184.5,0.979167,Eighth,G4
2371,Right,0,79,97,1185.0,0.979167,Eighth,G5
2369,Left,1,45,97,1185.0,0.979167,Eighth,A3_A2
2372,Right,0,67,97,1185.5,0.979167,Eighth,G4
2374,Left,1,50,97,1186.0,1.979167,Quarter,D3_D2
2373,Right,0,66,97,1186.0,0.979167,Eighth,F#4
2376,Right,0,69,98,1186.5,0.979167,Eighth,A4
2377,Right,0,74,98,1187.0,0.979167,Eighth,D5
2378,Right,0,78,99,1187.5,0.979167,Eighth,F#5
2379,Left,1,50,99,1188.0,0.979167,Eighth,D4_D3
2381,Right,0,81,99,1188.0,0.979167,Eighth,A5
2382,Left,1,38,100,1189.0,1.979167,Quarter,D3_D2
2384,Right,0,79,100,1189.0,0.479167,Sixteenth,G5
2385,Right,0,78,100,1189.5,0.979167,Eighth,F#5
2386,Right,0,77,101,1190.0,0.979167,Eighth,F5
2387,Right,0,78,101,1190.5,0.979167,Eighth,F#5
2388,Left,1,57,101,1191.0,0.979167,Eighth,A3_A2
2390,Right,0,86,101,1191.0,0.979167,Eighth,D6
2391,Right,0,78,102,1191.5,0.979167,Eighth,F#5
2392,Left,1,50,102,1192.0,1.979167,Quarter,D3_D2
2394,Right,0,81,102,1192.0,0.979167,Eighth,A5
2395,Right,0,79,103,1192.5,0.979167,Eighth,G5
2396,Right,0,78,103,1193.0,0.979167,Eighth,F#5
2397,Right,0,79,103,1193.5,0.979167,Eighth,G5
2398,Left,1,47,104,1194.0,0.979167,Eighth,B3_B2
2399,Right,0,86,104,1194.0,0.979167,Eighth,D6
2401,Right,0,79,104,1194.5,0.979167,Eighth,G5
2404,Right,0,81,105,1195.0,0.979167,Eighth,A5
2402,Left,1,50,105,1195.0,1.979167,Quarter,D3_D2
2405,Right,0,79,105,1195.5,0.979167,Eighth,G5
2406,Right,0,78,105,1196.0,0.979167,Eighth,F#5
2407,Right,0,79,106,1196.5,0.979167,Eighth,G5
2408,Right,0,88,106,1197.0,0.979167,Eighth,E6
2409,Left,1,49,106,1197.0,0.979167,Eighth,C#4_C#3
2411,Right,0,79,107,1198.0,0.479167,Sixteenth,G5
2412,Left,1,38,107,1198.0,1.979167,Quarter,D3_D2
2414,Right,0,78,107,1198.5,0.979167,Eighth,F#5
2415,Right,0,77,108,1199.0,0.979167,Eighth,F5
2416,Right,0,78,108,1199.5,0.979167,Eighth,F#5
2417,Left,1,50,109,1200.0,0.979167,Eighth,D4_D3
2419,Right,0,86,109,1200.0,0.979167,Eighth,D6
2420,Right,0,78,109,1200.5,0.979167,Eighth,F#5
2423,Right,0,76,110,1201.0,0.979167,Eighth,E5
2421,Left,1,38,110,1201.0,1.979167,Quarter,D3_D2
2424,Right,0,74,110,1201.5,0.979167,Eighth,D5
2425,Right,0,73,110,1202.0,0.979167,Eighth,C#5
2426,Right,0,74,110,1202.5,0.979167,Eighth,D5
2429,Right,0,86,110,1203.0,0.979167,Eighth,D6
2427,Left,1,54,110,1203.0,0.979167,Eighth,F#3_F#2
2430,Right,0,74,110,1203.5,0.979167,Eighth,D5
2431,Left,1,50,110,1204.0,1.979167,Quarter,D3_D2
2433,Right,0,73,110,1204.0,0.979167,Eighth,C#5
2434,Right,0,71,110,1204.5,0.979167,Eighth,B4
2435,Right,0,70,110,1205.0,0.979167,Eighth,A#4
2436,Right,0,71,110,1205.5,0.979167,Eighth,B4
2439,Right,0,83,110,1206.0,0.979167,Eighth,B5
2437,Left,1,43,110,1206.0,0.979167,Eighth,G3_G2
2440,Right,0,71,110,1206.5,0.979167,Eighth,B4
2441,Right,0,69,110,1207.0,0.979167,Eighth,A4
2442,Left,1,50,110,1207.0,1.979167,Quarter,D3_D2
2444,Right,0,67,110,1207.5,0.979167,Eighth,G4
2445,Right,0,66,110,1208.0,0.979167,Eighth,F#4
2446,Right,0,67,110,1208.5,0.979167,Eighth,G4
2447,Left,1,57,110,1209.0,0.979167,Eighth,A3_A2
2448,Right,0,79,110,1209.0,0.979167,Eighth,G5
2450,Right,0,67,110,1209.5,0.979167,Eighth,G4
2452,Right,0,66,110,1210.0,0.979167,Eighth,F#4
2451,Left,1,50,110,1210.0,1.979167,Quarter,D3_D2
2454,Right,0,69,110,1210.5,0.979167,Eighth,A4
2455,Right,0,74,110,1211.0,0.979167,Eighth,D5
2456,Right,0,78,110,1211.5,0.979167,Eighth,F#5
2457,Left,1,50,110,1212.0,0.979167,Eighth,D4_D3
2458,Right,0,81,110,1212.0,0.979167,Eighth,A5
2460,Right,0,79,110,1212.5,0.979167,Eighth,G5
2461,Right,0,76,110,1213.0,0.979167,Eighth,E5
2462,Left,1,38,110,1213.0,1.979167,Quarter,D3_D2
2464,Right,0,74,110,1213.5,0.979167,Eighth,D5
2465,Right,0,73,110,1214.0,0.979167,Eighth,C#5
2466,Right,0,74,110,1214.5,0.979167,Eighth,D5
2469,Right,0,86,110,1215.0,0.979167,Eighth,D6
2467,Left,1,42,110,1215.0,0.979167,Eighth,F#3_F#2
2470,Right,0,74,110,1215.5,0.979167,Eighth,D5
2471,Right,0,73,110,1216.0,0.979167,Eighth,C#5
2472,Left,1,50,110,1216.0,1.979167,Quarter,D3_D2
2474,Right,0,71,110,1216.5,0.979167,Eighth,B4
2475,Right,0,70,110,1217.0,0.979167,Eighth,A#4
2476,Right,0,71,110,1217.5,0.979167,Eighth,B4
2477,Left,1,55,110,1218.0,0.979167,Eighth,G3_G2
2479,Right,0,83,110,1218.0,0.979167,Eighth,B5
2480,Right,0,71,110,1218.5,0.979167,Eighth,B4
2481,Left,1,50,110,1219.0,1.979167,Quarter,D3_D2
2482,Right,0,69,110,1219.0,0.979167,Eighth,A4
2484,Right,0,67,110,1219.5,0.979167,Eighth,G4
2485,Right,0,66,110,1220.0,0.979167,Eighth,F#4
2486,Right,0,67,110,1220.5,0.979167,Eighth,G4
2487,Left,1,57,110,1221.0,0.979167,Eighth,A3_A2
2489,Right,0,79,110,1221.0,0.979167,Eighth,G5
2490,Right,0,67,110,1221.5,0.979167,Eighth,G4
2491,Right,0,66,110,1222.0,0.979167,Eighth,F#4
2492,Left,1,50,110,1222.0,1.979167,Quarter,D3_D2
2494,Right,0,69,110,1222.5,0.979167,Eighth,A4
2495,Right,0,74,110,1223.0,0.979167,Eighth,D5
2496,Right,0,78,110,1223.5,0.979167,Eighth,F#5
2497,Left,1,62,110,1224.0,0.979167,Eighth,D4_D3
2498,Right,0,81,110,1224.0,0.979167,Eighth,A5
2500,Right,0,79,110,1224.5,0.979167,Eighth,G5
2502,Right,0,76,110,1225.0,0.979167,Eighth,E5
2501,Left,1,38,110,1225.0,1.979167,Quarter,D3_D2
2504,Right,0,74,110,1225.5,0.979167,Eighth,D5
2505,Right,0,73,110,1226.0,0.979167,Eighth,C#5
2506,Right,0,74,110,1226.5,0.979167,Eighth,D5
2507,Left,1,42,110,1227.0,0.979167,Eighth,F#3_F#2
2508,Right,0,86,110,1227.0,0.979167,Eighth,D6
2510,Right,0,74,110,1227.5,0.979167,Eighth,D5
2513,Right,0,73,110,1228.0,0.979167,Eighth,C#5
2511,Left,1,50,110,1228.0,1.979167,Quarter,D3_D2
2514,Right,0,71,110,1228.5,0.979167,Eighth,B4
2515,Right,0,70,110,1229.0,0.979167,Eighth,A#4
2516,Right,0,71,110,1229.5,0.979167,Eighth,B4
2517,Right,0,83,110,1230.0,0.979167,Eighth,B5
2518,Left,1,55,110,1230.0,0.979167,Eighth,G3_G2
2520,Right,0,71,110,1230.5,0.979167,Eighth,B4
2521,Right,0,69,110,1231.0,0.979167,Eighth,A4
2522,Left,1,50,110,1231.0,1.979167,Quarter,D3_D2
2524,Right,0,67,110,1231.5,0.979167,Eighth,G4
2525,Right,0,66,110,1232.0,0.979167,Eighth,F#4
2526,Right,0,67,110,1232.5,0.979167,Eighth,G4
2527,Left,1,45,110,1233.0,0.979167,Eighth,A3_A2
2528,Right,0,79,110,1233.0,0.979167,Eighth,G5
2530,Right,0,67,110,1233.5,0.979167,Eighth,G4
2533,Right,0,66,110,1234.0,0.979167,Eighth,F#4
2531,Left,1,38,110,1234.0,1.979167,Quarter,D3_D2
2534,Right,0,69,110,1234.5,0.979167,Eighth,A4
2535,Right,0,74,110,1235.0,0.979167,Eighth,D5
2536,Right,0,78,110,1235.5,0.979167,Eighth,F#5
2537,Right,0,81,110,1236.0,0.979167,Eighth,A5
2538,Left,1,62,110,1236.0,0.979167,Eighth,D4_D3
2540,Right,0,66,110,1236.5,0.979167,Eighth,F#4
2541,Left,1,38,110,1237.0,1.979167,Quarter,D3_D2
2542,Right,0,69,110,1237.0,0.979167,Eighth,A4
2544,Right,0,67,110,1237.5,0.979167,Eighth,G4
2545,Right,0,66,110,1238.0,0.979167,Eighth,F#4
2546,Right,0,67,110,1238.5,0.979167,Eighth,G4
2549,Right,0,79,110,1239.0,0.979167,Eighth,G5
2547,Left,1,57,110,1239.0,0.979167,Eighth,A3_A2
2550,Right,0,67,110,1239.5,0.979167,Eighth,G4
2552,Left,1,38,110,1240.0,1.979167,Quarter,D3_D2
2551,Right,0,66,110,1240.0,0.979167,Eighth,F#4
2554,Right,0,69,110,1240.5,0.979167,Eighth,A4
2555,Right,0,74,110,1241.0,0.979167,Eighth,D5
2556,Right,0,78,110,1241.5,0.979167,Eighth,F#5
2559,Right,0,81,110,1242.0,0.979167,Eighth,A5
2557,Left,1,50,110,1242.0,0.979167,Eighth,D4_D3
2560,Right,0,66,110,1242.5,0.979167,Eighth,F#4
2562,Right,0,69,110,1243.0,0.979167,Eighth,A4
2561,Left,1,50,110,1243.0,1.979167,Quarter,D3_D2
2564,Right,0,67,110,1243.5,0.979167,Eighth,G4
2565,Right,0,73,111,1244.0,0.979167,Eighth,C#5
2566,Right,0,67,112,1244.5,0.979167,Eighth,G4
2567,Right,0,76,113,1245.0,0.979167,Eighth,E5
2568,Left,1,57,113,1245.0,0.979167,Eighth,A3_A2
2570,Right,0,73,114,1245.5,0.979167,Eighth,C#5
2573,Right,0,79,114,1246.0,0.979167,Eighth,G5
2571,Left,1,50,114,1246.0,1.979167,Quarter,D3_D2
2574,Right,0,76,115,1246.5,0.979167,Eighth,E5
2575,Right,0,85,116,1247.0,0.979167,Eighth,C#6
2576,Right,0,79,117,1247.5,0.979167,Eighth,G5
2579,Right,0,88,118,1248.0,0.979167,Eighth,E6
2577,Left,1,45,118,1248.0,0.979167,Eighth,A3_A2
2580,Right,0,85,119,1248.5,0.979167,Eighth,C#6
2583,Right,0,86,120,1249.0,0.979167,Eighth,D6
2581,Left,1,38,120,1249.0,1.979167,Quarter,D3_D2
2584,Right,0,81,120,1249.5,0.979167,Eighth,A5
2585,Right,0,78,120,1250.0,0.979167,Eighth,F#5
2586,Right,0,86,120,1250.5,0.979167,Eighth,D6
2587,Right,0,81,120,1251.0,0.979167,Eighth,A5
2588,Right,0,78,120,1251.5,0.979167,Eighth,F#5
2589,Right,0,74,120,1252.0,0.979167,Eighth,D5
2590,Left,1,62,120,1252.0,0.979167,Eighth,D4
2592,Left,1,69,120,1252.5,0.979167,Eighth,A4
2591,Right,0,81,120,1252.5,0.979167,Eighth,A5
2593,Right,0,78,120,1253.0,0.979167,Eighth,F#5
2594,Left,1,66,120,1253.0,0.979167,Eighth,F#4
2596,Left,1,62,120,1253.5,0.979167,Eighth,D4
2595,Right,0,74,120,1253.5,0.979167,Eighth,D5
2597,Right,0,69,120,1254.0,0.979167,Eighth,A4
2598,Left,1,57,120,1254.0,0.979167,Eighth,A3
2599,Right,0,78,120,1254.5,0.979167,Eighth,F#5
2600,Left,1,66,120,1254.5,0.979167,Eighth,F#4
2601,Right,0,74,120,1255.0,0.979167,Eighth,D5
2602,Left,1,62,120,1255.0,0.979167,Eighth,D4
2604,Right,0,69,120,1255.5,0.979167,Eighth,A4
2603,Left,1,57,120,1255.5,0.979167,Eighth,A3
2605,Left,1,54,120,1256.0,0.979167,Eighth,F#3
2606,Right,0,66,120,1256.0,0.979167,Eighth,F#4
2607,Right,0,74,120,1256.5,0.979167,Eighth,D5
2608,Left,1,62,120,1256.5,0.979167,Eighth,D4
2610,Left,1,57,120,1257.0,0.979167,Eighth,A3
2609,Right,0,69,120,1257.0,0.979167,Eighth,A4
2612,Right,0,66,120,1257.5,0.979167,Eighth,F#4
2611,Left,1,54,120,1257.5,0.979167,Eighth,F#3
2614,Right,0,62,120,1258.0,0.979167,Eighth,D4
2613,Left,1,50,120,1258.0,0.979167,Eighth,D3
2615,Left,1,57,120,1258.5,0.979167,Eighth,A3
2616,Right,0,69,120,1258.5,0.979167,Eighth,A4
2617,Left,1,54,120,1259.0,0.979167,Eighth,F#3
2618,Right,0,66,120,1259.0,0.979167,Eighth,F#4
2620,Left,1,50,120,1259.5,0.979167,Eighth,D3
2619,Right,0,62,120,1259.5,0.979167,Eighth,D4
2621,Left,1,45,120,1260.0,0.979167,Eighth,A2
2622,Right,0,57,120,1260.0,0.979167,Eighth,A3
2624,Right,0,54,120,1260.5,0.979167,Eighth,F#3
2623,Left,1,42,120,1260.5,0.979167,Eighth,F#2
2626,Left,1,38,120,1261.0,1.979167,Quarter,D2
2625,Right,0,50,120,1261.0,1.979167,Quarter,D3
2628,Right,0,79,120,1264.0,1.979167,Quarter,G5_G4_C#5
2627,Left,1,57,120,1264.0,1.979167,Quarter,E4_A3
2632,Right,0,66,120,1267.0,3.979167,Half,F#5_F#4_D5
2635,Left,1,62,120,1267.0,3.979167,Half,D4_D3
2637,Right,0,66,100,1275.0,0.979167,Eighth,F#4
