,hand,channel,note,velocity,start_beat,duration,note_value,chord
2,Left,1,52,80,0.0,1.489583,DottedQuarter,E3
0,Right,0,64,80,0.0,2.989583,DottedHalf,G3_E4_B3
5,Left,1,51,80,1.5,0.489583,Eighth,D#3
4,Right,0,63,80,1.5,0.489583,Eighth,D#4
7,Left,1,52,80,2.0,0.989583,Quarter,E3
6,Right,0,64,80,2.0,0.989583,Quarter,E4
11,Left,1,48,80,3.0,2.989583,DottedHalf,E3_C3
8,Right,0,64,80,3.0,2.989583,DottedHalf,G3_E4_C4
14,Left,1,51,94,4.5,0.489583,Eighth,D#3
13,Right,0,63,94,4.5,0.489583,Eighth,D#4
15,Left,1,52,99,5.0,0.989583,Quarter,E3
16,Right,0,64,99,5.0,0.989583,Quarter,E4
17,Left,1,46,100,6.0,3.989583,DottedHalf,G3_A#2
18,Right,0,67,100,6.0,3.989583,DottedHalf,G4_C#4_A#3
23,Left,1,45,80,9.0,2.989583,DottedHalf,A2
22,Right,0,57,80,9.0,2.989583,DottedHalf,C4_A3
25,Right,0,66,80,10.0,0.489583,Eighth,F#4
26,Left,1,54,80,10.0,0.489583,Eighth,F#3
28,Left,1,52,80,10.5,0.489583,Eighth,E3
27,Right,0,64,80,10.5,0.489583,Eighth,E4
29,Left,1,51,80,11.0,0.489583,Eighth,D#3
30,Right,0,63,80,11.0,0.489583,Eighth,D#4
31,Right,0,66,80,11.5,0.489583,Eighth,F#4
32,Left,1,54,80,11.5,0.489583,Eighth,F#3
33,Left,1,52,80,12.0,0.989583,Quarter,G2_E3
35,Right,0,59,80,12.0,0.989583,Quarter,E4_B3
37,Left,1,51,80,13.0,0.989583,Quarter,F#2_D#3
39,Right,0,66,80,13.0,0.989583,Quarter,F#4_B3
41,Right,0,67,80,14.0,0.989583,Quarter,G4_B3
42,Left,1,52,80,14.0,0.989583,Quarter,E3_E2
47,Right,0,71,80,15.0,1.989583,Quarter,F#4_B4
45,Left,1,47,80,15.0,1.989583,Half,D#2_B2
49,Right,0,69,80,16.0,0.989583,Quarter,A4
52,Left,1,47,80,17.0,0.989583,Quarter,E2_B2
50,Right,0,67,80,17.0,0.989583,Quarter,G4_E4
54,Right,0,66,80,18.0,1.989583,Half,F#4_D#4
56,Left,1,35,80,18.0,3.989583,Whole,B2_B1
58,Right,0,69,80,20.0,0.989583,Eighth,E4_A4
60,Left,1,46,80,20.0,0.989583,Quarter,A#2
61,Right,0,67,80,20.5,0.489583,Eighth,G4
63,Right,0,66,80,21.0,0.989583,Quarter,F#4_D#4
62,Left,1,47,80,21.0,0.989583,Quarter,B2
65,Right,0,71,80,23.0,0.989583,Quarter,B4
66,Right,0,67,80,24.0,2.989583,DottedHalf,G4_E5_B4
68,Left,1,64,80,24.0,1.489583,DottedQuarter,E4
70,Left,1,63,80,25.5,0.489583,Eighth,D#4
71,Right,0,75,80,25.5,0.489583,Eighth,D#5
73,Right,0,76,80,26.0,0.989583,Quarter,E5
72,Left,1,64,80,26.0,0.989583,Quarter,E4
74,Left,1,64,80,27.0,2.989583,DottedQuarter,E4_C4
76,Right,0,67,80,27.0,2.989583,DottedHalf,G4_E5_C5
80,Left,1,63,94,28.5,0.489583,Eighth,D#4
79,Right,0,75,94,28.5,0.489583,Eighth,D#5
81,Right,0,76,99,29.0,0.989583,Quarter,E5
82,Left,1,64,99,29.0,0.989583,Quarter,E4
83,Left,1,67,100,30.0,3.989583,Whole,G4_A#3
85,Right,0,73,100,30.0,3.989583,DottedHalf,G5_C#5_A#4
88,Right,0,72,80,33.0,2.989583,DottedHalf,C5_A4
90,Left,1,57,80,33.0,2.989583,DottedHalf,A3
91,Right,0,78,80,34.0,0.489583,Eighth,F#5
92,Left,1,66,80,34.0,0.489583,Eighth,F#4
94,Left,1,64,80,34.5,0.489583,Eighth,E4
93,Right,0,76,80,34.5,0.489583,Eighth,E5
95,Right,0,75,80,35.0,0.489583,Eighth,D#5
96,Left,1,63,80,35.0,0.489583,Eighth,D#4
97,Left,1,66,80,35.5,0.489583,Eighth,F#4
98,Right,0,78,80,35.5,0.489583,Eighth,F#5
100,Right,0,76,80,36.0,0.989583,Quarter,E5_B4
99,Left,1,55,80,36.0,0.989583,Quarter,G3_E4
103,Left,1,54,80,37.0,0.989583,Quarter,F#3_D#4
104,Right,0,71,80,37.0,0.989583,Quarter,F#5_B4
108,Left,1,52,80,38.0,0.989583,Quarter,E4_E3
107,Right,0,71,80,38.0,0.989583,Quarter,G5_B4
113,Left,1,59,80,39.0,1.989583,Half,D#3_B3
111,Right,0,83,80,39.0,1.989583,Quarter,F#5_B5
115,Right,0,81,80,40.0,0.989583,Quarter,A5
116,Right,0,76,80,41.0,0.989583,Quarter,G5_E5
117,Left,1,52,80,41.0,0.989583,Quarter,E3_B3
122,Right,0,79,80,42.0,1.989583,Half,G5_E5
120,Left,1,47,80,42.0,2.989583,DottedHalf,B3_B2
124,Right,0,75,80,44.0,0.989583,Quarter,F#5_D#5
126,Left,1,57,80,44.0,0.989583,Quarter,A3
128,Left,1,55,80,45.0,0.989583,Quarter,G3_E3
127,Right,0,76,80,45.0,0.989583,Quarter,E5
130,Right,0,64,80,48.0,2.989583,DottedHalf,G3_E4_C4
133,Left,1,48,80,48.0,2.989583,DottedHalf,E3_C3
135,Right,0,63,80,49.5,0.489583,Eighth,D#4
136,Right,0,64,80,50.0,0.989583,Quarter,E4
137,Right,0,62,100,51.0,2.989583,DottedHalf,G4_D4_B3
138,Left,1,55,100,51.0,2.989583,DottedHalf,G3_G2
142,Right,0,65,80,54.0,2.989583,DottedHalf,F4_D4_A3
144,Left,1,53,80,54.0,2.989583,DottedHalf,F3_D3
147,Right,0,64,80,55.5,0.489583,Eighth,E4
148,Right,0,65,80,56.0,0.989583,Quarter,F4
150,Right,0,67,100,57.0,2.989583,DottedHalf,G4_D4
149,Left,1,55,100,57.0,2.989583,DottedHalf,G3_B2
153,Left,1,48,80,60.0,2.989583,DottedHalf,E3_C3
155,Right,0,55,80,60.0,2.989583,DottedHalf,G3_E4_C4
158,Right,0,63,80,61.5,0.489583,Eighth,D#4
159,Right,0,64,80,62.0,0.989583,Quarter,E4
160,Right,0,62,80,63.0,2.989583,DottedHalf,G4_D4_B3
161,Left,1,50,80,63.0,2.989583,DottedHalf,G2_D3
165,Right,0,67,80,65.0,0.989583,Quarter,G4
168,Right,0,67,80,66.0,2.989583,DottedHalf,G4_D4_A3
166,Left,1,50,80,66.0,2.989583,DottedHalf,D3_D2
171,Right,0,66,80,68.0,0.989583,Quarter,F#4
172,Right,0,62,80,69.0,0.989583,Quarter,G4_D4_B3
174,Left,1,43,80,69.0,0.989583,Quarter,G2_G1
177,Right,0,76,80,72.0,2.989583,DottedHalf,G4_E5_C5
180,Left,1,60,80,72.0,2.989583,DottedHalf,E4_C4
183,Right,0,75,80,73.5,0.489583,Eighth,D#5
182,Left,1,63,80,73.5,0.489583,Eighth,D#4
184,Right,0,76,80,74.0,0.989583,Quarter,E5
185,Left,1,64,80,74.0,0.989583,Quarter,E4
188,Right,0,74,80,75.0,2.989583,DottedHalf,G5_D5_B4
186,Left,1,55,80,75.0,2.989583,DottedHalf,G4_G3
191,Right,0,69,80,78.0,2.989583,DottedHalf,F5_D5_A4
194,Left,1,65,80,78.0,2.989583,DottedQuarter,F4_D4
196,Right,0,76,80,79.5,0.489583,Eighth,E5
197,Left,1,64,80,79.5,0.489583,Eighth,E4
199,Left,1,65,80,80.0,0.989583,Quarter,F4
198,Right,0,77,80,80.0,0.989583,Quarter,F5
202,Left,1,59,80,81.0,2.989583,DottedHalf,G4_B3
200,Right,0,74,80,81.0,2.989583,DottedHalf,G5_D5
206,Right,0,76,80,84.0,2.989583,DottedHalf,G4_E5_C5
204,Left,1,64,80,84.0,2.989583,DottedQuarter,E4_C4
209,Left,1,63,80,85.5,0.489583,Eighth,D#4
210,Right,0,75,80,85.5,0.489583,Eighth,D#5
211,Left,1,64,80,86.0,0.989583,Quarter,E4
212,Right,0,76,80,86.0,0.989583,Quarter,E5
213,Right,0,64,80,87.0,1.989583,Half,E5_E4
215,Left,1,57,80,87.0,2.989583,DottedHalf,C3_A3
217,Right,0,64,80,89.0,0.989583,Quarter,E5_E4
220,Right,0,76,80,90.0,1.989583,Half,E5_E4
219,Left,1,47,80,90.0,7.989583,Unknown,B3_B2
223,Right,0,63,80,92.0,0.989583,Quarter,D#5_D#4
225,Right,0,78,80,93.0,4.989583,Unknown,F#5_F#4
227,Right,0,71,80,98.0,0.989583,Quarter,B4
228,Right,0,67,80,99.0,2.989583,DottedHalf,G4_E5_B4
231,Left,1,64,80,99.0,1.489583,DottedQuarter,E4
233,Left,1,63,80,100.5,0.489583,Eighth,D#4
232,Right,0,75,80,100.5,0.489583,Eighth,D#5
235,Right,0,76,80,101.0,0.989583,Quarter,E5
234,Left,1,64,80,101.0,0.989583,Quarter,E4
239,Left,1,60,80,102.0,2.989583,DottedHalf,E4_C4
236,Right,0,76,80,102.0,2.989583,DottedHalf,G4_E5_C5
242,Right,0,75,94,103.5,0.489583,Eighth,D#5
241,Left,1,63,94,103.5,0.489583,Eighth,D#4
243,Left,1,64,99,104.0,0.989583,Quarter,E4
244,Right,0,76,99,104.0,0.989583,Quarter,E5
245,Left,1,67,100,105.0,3.989583,Whole,G4_A#3
247,Right,0,73,100,105.0,3.989583,DottedHalf,G5_C#5_A#4
251,Left,1,57,80,108.0,2.989583,DottedHalf,A3
250,Right,0,72,80,108.0,2.989583,DottedHalf,C5_A4
253,Left,1,66,80,109.0,0.489583,Eighth,F#4
254,Right,0,78,80,109.0,0.489583,Eighth,F#5
255,Right,0,76,80,109.5,0.489583,Eighth,E5
256,Left,1,64,80,109.5,0.489583,Eighth,E4
258,Right,0,75,80,110.0,0.489583,Eighth,D#5
257,Left,1,63,80,110.0,0.489583,Eighth,D#4
260,Right,0,78,80,110.5,0.489583,Eighth,F#5
259,Left,1,66,80,110.5,0.489583,Eighth,F#4
261,Right,0,71,80,111.0,0.989583,Quarter,E5_B4
263,Left,1,64,80,111.0,0.989583,Quarter,G3_E4
265,Right,0,71,80,112.0,0.989583,Quarter,F#5_B4
267,Left,1,63,80,112.0,0.989583,Quarter,F#3_D#4
269,Right,0,71,80,113.0,0.989583,Quarter,G5_B4
270,Left,1,52,80,113.0,0.989583,Quarter,E4_E3
275,Right,0,78,80,114.0,1.989583,Half,F#5_B5
273,Left,1,59,80,114.0,1.989583,Half,D#3_B3
277,Right,0,81,80,115.0,0.989583,Quarter,A5
280,Right,0,76,80,116.0,0.989583,Quarter,G5_E5
278,Left,1,59,80,116.0,0.989583,Quarter,E3_B3
283,Right,0,75,80,117.0,1.989583,Half,F#5_D#5
282,Left,1,59,80,117.0,3.989583,Half,B3_B2
286,Right,0,76,80,119.0,0.989583,Quarter,E5_A5
287,Left,1,58,80,119.0,0.989583,Quarter,A#3
289,Right,0,79,80,119.5,0.489583,Eighth,G5
290,Right,0,78,80,120.0,0.989583,Quarter,F#5_D#5
292,Left,1,59,80,120.0,0.989583,Quarter,B3
293,Right,0,59,80,122.0,0.989583,Quarter,B3
295,Right,0,64,80,123.0,1.489583,DottedQuarter,E4
294,Left,1,52,80,123.0,1.489583,DottedQuarter,E3
296,Left,1,51,80,124.5,0.489583,Eighth,D#3
297,Right,0,63,80,124.5,0.489583,Eighth,D#4
298,Right,0,64,80,125.0,0.989583,Quarter,E4
299,Left,1,52,80,125.0,0.989583,Quarter,E3
302,Right,0,64,80,126.0,1.489583,DottedQuarter,E4
300,Left,1,48,80,126.0,2.989583,DottedHalf,E3_C3
303,Left,1,51,80,127.5,0.489583,Eighth,D#3
304,Right,0,63,80,127.5,0.489583,Eighth,D#4
306,Right,0,64,80,128.0,0.989583,Quarter,E4
305,Left,1,52,80,128.0,0.989583,Quarter,E3
307,Left,1,50,100,129.0,5.989583,Unknown,F3_D3_C4
309,Right,0,62,100,129.0,5.989583,Unknown,F4_D4_C5
313,Left,1,59,100,133.0,0.489583,Eighth,B3
314,Right,0,71,100,133.0,0.489583,Eighth,B4
315,Right,0,69,100,133.5,0.489583,Eighth,A4
316,Left,1,57,100,133.5,0.489583,Eighth,A3
317,Left,1,56,100,134.0,0.489583,Eighth,G#3
318,Right,0,68,100,134.0,0.489583,Eighth,G#4
320,Left,1,59,100,134.5,0.489583,Eighth,B3
319,Right,0,71,100,134.5,0.489583,Eighth,B4
321,Left,1,57,100,135.0,0.989583,Quarter,E3_C3_A3
324,Right,0,60,100,135.0,0.989583,Quarter,E4_C4_A4
327,Right,0,65,110,136.0,1.989583,Half,F4_D4_B4
330,Left,1,50,110,136.0,1.989583,Half,F3_D3_B3
333,Right,0,69,100,136.5,0.489583,Eighth,A4
334,Right,0,68,100,137.0,0.489583,Eighth,G#4
335,Right,0,71,100,137.5,0.489583,Eighth,B4
336,Left,1,57,100,138.0,0.989583,Quarter,E3_C3_A3
338,Right,0,69,100,138.0,0.989583,Quarter,E4_C4_A4
342,Right,0,71,110,139.0,1.989583,Half,F4_D4_B4
345,Left,1,59,110,139.0,1.989583,Half,F3_D3_B3
348,Right,0,69,100,139.5,0.489583,Eighth,A4
349,Right,0,68,100,140.0,0.489583,Eighth,G#4
350,Right,0,71,100,140.5,0.489583,Eighth,B4
351,Right,0,64,100,141.0,0.989583,Quarter,E4_C4_A4
354,Left,1,48,100,141.0,0.989583,Quarter,E3_C3_A3
357,Right,0,69,80,142.0,0.489583,Eighth,A4
358,Right,0,68,80,142.5,0.489583,Eighth,G#4
359,Right,0,69,80,143.0,0.489583,Eighth,A4
360,Right,0,71,80,143.5,0.489583,Eighth,B4
361,Right,0,72,80,144.0,0.489583,Eighth,C5
362,Right,0,74,80,144.5,0.489583,Eighth,D5
363,Right,0,76,80,145.0,0.489583,Eighth,E5
364,Right,0,75,80,145.5,0.489583,Eighth,D#5
365,Left,1,57,80,146.0,0.989583,Quarter,E4_A3
367,Right,0,76,80,146.0,0.489583,Eighth,E5
368,Right,0,72,80,146.5,0.489583,Eighth,C5
369,Right,0,71,80,147.0,0.989583,Quarter,B4
370,Left,1,59,80,147.0,0.989583,Quarter,E4_B3
372,Right,0,71,80,148.0,0.489583,Eighth,B4
373,Right,0,70,80,148.5,0.489583,Eighth,A#4
374,Right,0,71,80,149.0,0.489583,Eighth,B4
375,Right,0,67,80,149.5,0.489583,Eighth,G4
376,Right,0,63,80,150.0,0.989583,Quarter,F#4_D#4
378,Left,1,47,80,150.0,0.989583,Quarter,B2_B1
380,Right,0,71,80,151.0,0.489583,Eighth,B4
381,Right,0,70,80,151.5,0.489583,Eighth,A#4
382,Right,0,71,80,152.0,0.489583,Eighth,B4
383,Right,0,66,80,152.5,0.489583,Eighth,F#4
385,Right,0,64,80,153.0,2.989583,DottedHalf,E4
384,Left,1,40,80,153.0,5.989583,Unknown,E2
386,Right,0,56,80,155.0,0.989583,Quarter,G#3
387,Left,1,47,80,155.0,0.989583,Quarter,B2
388,Right,0,57,80,156.0,2.989583,Quarter,D#4_A3
390,Left,1,48,80,156.0,0.989583,Quarter,C3
392,Right,0,57,80,157.0,0.489583,Eighth,A3
391,Left,1,48,80,157.0,0.489583,Eighth,C3
393,Left,1,47,80,157.5,0.489583,Eighth,B2
394,Right,0,59,80,157.5,0.489583,Eighth,B3
396,Right,0,60,80,158.0,0.489583,Eighth,C4
395,Left,1,45,80,158.0,0.489583,Eighth,A2
398,Right,0,57,80,158.5,0.489583,Eighth,A3
397,Left,1,48,80,158.5,0.489583,Eighth,C3
399,Right,0,64,80,159.0,0.989583,Quarter,G#3_E4
401,Left,1,40,80,159.0,5.989583,Quarter,E3_E2
404,Left,1,59,80,161.0,0.989583,Quarter,B3
403,Right,0,68,80,161.0,0.989583,Quarter,G#4_E4
406,Right,0,63,80,162.0,2.989583,DottedHalf,D#4_A4
408,Left,1,60,80,162.0,0.989583,Quarter,C4
409,Left,1,60,80,163.0,0.489583,Eighth,C4
410,Right,0,69,80,163.0,0.489583,Eighth,A4
411,Left,1,59,80,163.5,0.489583,Eighth,B3
412,Right,0,71,80,163.5,0.489583,Eighth,B4
414,Left,1,57,80,164.0,0.489583,Eighth,A3
413,Right,0,72,80,164.0,0.489583,Eighth,C5
415,Left,1,60,80,164.5,0.489583,Eighth,C4
416,Right,0,69,80,164.5,0.489583,Eighth,A4
417,Left,1,59,80,165.0,5.989583,Quarter,E3_B3
418,Right,0,64,80,165.0,0.989583,Quarter,G#4_E4
422,Left,1,59,80,167.0,0.989583,Quarter,B3
421,Right,0,76,80,167.0,0.989583,Quarter,G#4_E5
424,Right,0,69,80,168.0,2.989583,Quarter,D#5_A4
425,Left,1,60,80,168.0,0.989583,Quarter,C4
427,Right,0,69,82,169.0,0.489583,Eighth,A4
428,Left,1,60,82,169.0,0.489583,Eighth,C4
429,Right,0,71,83,169.5,0.489583,Eighth,B4
430,Left,1,59,83,169.5,0.489583,Eighth,B3
432,Left,1,57,84,170.0,0.489583,Eighth,A3
431,Right,0,72,84,170.0,0.489583,Eighth,C5
434,Right,0,69,85,170.5,0.489583,Eighth,A4
433,Left,1,60,85,170.5,0.489583,Eighth,C4
435,Right,0,68,87,171.0,0.989583,Quarter,G#4_E5
436,Left,1,59,87,171.0,0.989583,Quarter,E3_B3
439,Left,1,60,89,172.0,1.989583,Eighth,E3_C4
441,Right,0,69,89,172.0,1.989583,Eighth,D#5_A4
443,Right,0,71,90,172.5,0.489583,Eighth,B4
444,Left,1,59,90,172.5,0.489583,Eighth,B3
445,Left,1,57,91,173.0,0.489583,Eighth,A3
446,Right,0,72,91,173.0,0.489583,Eighth,C5
448,Right,0,69,92,173.5,0.489583,Eighth,A4
447,Left,1,60,92,173.5,0.489583,Eighth,C4
449,Left,1,59,94,174.0,0.989583,Quarter,E3_B3
451,Right,0,76,94,174.0,0.989583,Quarter,G#4_E5
453,Left,1,60,96,175.0,1.989583,Eighth,E3_C4
455,Right,0,69,96,175.0,1.989583,Eighth,D#5_A4
458,Left,1,59,97,175.5,0.489583,Eighth,B3
457,Right,0,71,97,175.5,0.489583,Eighth,B4
459,Left,1,57,98,176.0,0.489583,Eighth,A3
460,Right,0,72,98,176.0,0.489583,Eighth,C5
462,Left,1,60,99,176.5,0.489583,Eighth,C4
461,Right,0,69,99,176.5,0.489583,Eighth,A4
465,Right,0,68,80,177.0,0.989583,Quarter,G#4_E5
463,Left,1,52,80,177.0,0.989583,Quarter,E3_B3
467,Left,1,52,80,180.0,0.989583,Quarter,E3_B3
469,Right,0,80,80,180.0,0.989583,Quarter,G#5_E5
474,Left,1,52,80,183.0,0.989583,Quarter,E3_E2_B2
471,Right,0,76,80,183.0,0.989583,Quarter,G#5_E6_E5
477,Right,0,88,80,186.0,2.489583,Half,E6
478,Right,0,64,80,188.5,0.489583,Eighth,E4
479,Left,1,48,80,189.0,5.989583,DottedHalf,C3_C2
481,Right,0,55,80,189.0,2.989583,DottedHalf,G3_E4
483,Left,1,47,80,192.0,1.989583,Half,B2
484,Right,0,53,80,192.0,2.989583,DottedHalf,F3_D4
486,Right,0,65,80,193.0,0.989583,Quarter,F4
487,Right,0,59,80,194.0,0.989583,Quarter,B3
488,Left,1,50,80,194.0,0.989583,Quarter,D3
490,Right,0,60,80,195.0,0.989583,Quarter,E3_C4
489,Left,1,48,80,195.0,0.989583,Quarter,C3_C2
493,Right,0,64,80,196.0,0.989583,Quarter,E4
494,Right,0,67,80,197.0,1.989583,Half,G4
495,Right,0,55,80,198.0,0.989583,Quarter,G3
496,Right,0,66,80,199.0,0.989583,Quarter,F#4_A3
498,Right,0,59,80,200.0,0.989583,Quarter,F4_B3
500,Right,0,60,80,201.0,2.989583,DottedHalf,G3_E4_C4
501,Left,1,36,80,201.0,5.989583,Unknown,C3_C2
505,Right,0,53,80,204.0,2.989583,DottedHalf,F3_D4
506,Left,1,47,80,204.0,1.989583,Half,B2
508,Right,0,65,80,205.0,0.989583,Quarter,F4
510,Right,0,59,80,206.0,0.989583,Quarter,B3
509,Left,1,50,80,206.0,0.989583,Quarter,D3
513,Right,0,60,80,207.0,0.989583,Quarter,E3_C4
511,Left,1,36,80,207.0,0.989583,Quarter,C3_C2
515,Right,0,64,80,208.0,0.989583,Quarter,E4
516,Right,0,67,80,209.0,0.989583,Quarter,G4
517,Right,0,72,80,210.0,0.989583,Quarter,C5
518,Right,0,74,80,211.0,0.989583,Quarter,D5
519,Right,0,75,80,212.0,0.989583,Quarter,D#5
520,Right,0,76,80,213.0,1.989583,Half,E5
521,Left,1,60,80,213.0,1.989583,Half,C4
522,Right,0,79,80,214.0,2.989583,DottedHalf,G5
524,Right,0,74,80,215.0,0.989583,Quarter,D5
523,Left,1,59,80,215.0,0.989583,Quarter,B3
525,Left,1,57,80,216.0,1.989583,Half,A3
526,Right,0,72,80,216.0,1.989583,Half,C5
527,Right,0,78,80,217.0,0.989583,Quarter,F#5
529,Left,1,55,80,218.0,0.989583,Quarter,G3
528,Right,0,79,80,218.0,0.989583,Quarter,G5_B4
531,Left,1,54,80,219.0,1.989583,Half,F#3
532,Right,0,69,80,219.0,1.989583,Half,A4
533,Right,0,72,80,220.0,2.989583,DottedHalf,C5
535,Left,1,52,80,221.0,0.989583,Quarter,E3
534,Right,0,67,80,221.0,0.989583,Quarter,G4
536,Left,1,51,80,222.0,1.989583,Half,D#3
537,Right,0,66,80,222.0,1.989583,Half,F#4
538,Right,0,71,80,223.0,2.989583,DottedHalf,B4
540,Left,1,52,80,224.0,0.989583,Quarter,E3
539,Right,0,67,80,224.0,0.989583,Quarter,G4
541,Right,0,64,80,225.0,1.989583,Half,E4
542,Left,1,48,80,225.0,2.989583,DottedHalf,C3
543,Right,0,68,80,226.0,0.989583,Quarter,G#4
544,Right,0,69,80,227.0,1.989583,Half,A4
546,Left,1,50,80,228.0,2.989583,DottedHalf,D3
545,Right,0,60,80,228.0,2.989583,DottedHalf,C4
547,Right,0,64,80,229.0,0.989583,Quarter,E4
548,Right,0,66,80,230.0,0.989583,Quarter,F#4
550,Right,0,59,80,231.0,0.989583,Quarter,G4_B3
549,Left,1,43,80,231.0,0.989583,Quarter,G2
552,Right,0,57,80,232.0,0.989583,Quarter,A3
553,Right,0,55,80,233.0,0.989583,Quarter,G3
554,Left,1,53,80,234.0,0.989583,Quarter,F3
555,Left,1,52,80,235.0,0.989583,Quarter,E3
556,Left,1,50,80,236.0,0.989583,Quarter,D3
557,Right,0,55,80,237.0,2.989583,DottedHalf,G3_E4
559,Left,1,48,80,237.0,5.989583,DottedHalf,C3_C2
561,Right,0,53,80,240.0,2.989583,DottedHalf,F3_D4
562,Left,1,47,80,240.0,1.989583,Half,B2
564,Right,0,65,80,241.0,0.989583,Quarter,F4
566,Right,0,59,80,242.0,0.989583,Quarter,B3
565,Left,1,50,80,242.0,0.989583,Quarter,D3
567,Right,0,60,80,243.0,0.989583,Quarter,E3_C4
569,Left,1,48,80,243.0,0.989583,Quarter,C3_C2
571,Right,0,64,80,244.0,0.989583,Quarter,E4
572,Right,0,67,80,245.0,1.989583,Half,G4
573,Right,0,55,80,246.0,0.989583,Quarter,G3
574,Right,0,66,80,247.0,0.989583,Quarter,F#4_A3
576,Right,0,59,80,248.0,0.989583,Quarter,F4_B3
578,Right,0,64,80,249.0,2.989583,DottedHalf,G3_E4_C4
581,Left,1,48,80,249.0,5.989583,DottedHalf,C3_C2
583,Right,0,62,80,252.0,2.989583,Quarter,F3_D4
585,Left,1,47,80,252.0,1.989583,Half,B2
586,Right,0,65,80,253.0,0.989583,Quarter,F4
587,Left,1,50,80,254.0,0.989583,Quarter,D3
588,Right,0,59,80,254.0,0.989583,Quarter,B3
591,Right,0,52,80,255.0,0.989583,Quarter,E3_C4
589,Left,1,48,80,255.0,0.989583,Quarter,C3_C2
593,Right,0,64,80,256.0,0.989583,Quarter,E4
594,Right,0,67,80,257.0,0.989583,Quarter,G4
595,Right,0,72,80,258.0,0.989583,Quarter,C5
596,Right,0,74,80,259.0,0.989583,Quarter,D5
597,Right,0,75,80,260.0,0.989583,Quarter,D#5
598,Right,0,76,80,261.0,1.989583,Half,E5
599,Left,1,60,80,261.0,1.989583,Half,C4
600,Right,0,79,80,262.0,2.989583,DottedHalf,G5
601,Left,1,59,80,263.0,0.989583,Quarter,B3
602,Right,0,74,80,263.0,0.989583,Quarter,D5
603,Left,1,57,80,264.0,1.989583,Half,A3
604,Right,0,72,80,264.0,1.989583,Half,C5
605,Right,0,78,80,265.0,0.989583,Quarter,F#5
606,Left,1,55,80,266.0,0.989583,Quarter,G3
607,Right,0,71,80,266.0,0.989583,Quarter,G5_B4
610,Left,1,54,80,267.0,1.989583,Half,F#3
609,Right,0,69,80,267.0,1.989583,Half,A4
611,Right,0,72,80,268.0,2.989583,DottedHalf,C5
612,Left,1,52,80,269.0,0.989583,Quarter,E3
613,Right,0,67,80,269.0,0.989583,Quarter,G4
615,Left,1,51,80,270.0,1.989583,Half,D#3
614,Right,0,66,80,270.0,1.989583,Half,F#4
616,Right,0,71,80,271.0,2.989583,DottedHalf,B4
617,Left,1,52,80,272.0,0.989583,Quarter,E3
618,Right,0,67,80,272.0,0.989583,Quarter,G4
619,Right,0,64,80,273.0,1.989583,Half,E4
620,Left,1,48,80,273.0,2.989583,DottedHalf,C3
621,Right,0,68,80,274.0,0.989583,Quarter,G#4
622,Right,0,69,80,275.0,1.989583,Half,A4
623,Right,0,60,80,276.0,2.989583,DottedHalf,C4
624,Left,1,50,80,276.0,2.989583,DottedHalf,D3
625,Right,0,64,80,277.0,0.989583,Quarter,E4
626,Right,0,66,80,278.0,0.989583,Quarter,F#4
629,Left,1,43,80,279.0,0.989583,Quarter,G2
627,Right,0,59,80,279.0,0.989583,Quarter,G4_B3
630,Right,0,57,80,280.0,0.989583,Quarter,A3
631,Right,0,55,80,281.0,0.989583,Quarter,G3
632,Left,1,53,80,282.0,0.989583,Quarter,F3
633,Left,1,52,80,283.0,0.989583,Quarter,E3
634,Left,1,50,80,284.0,0.989583,Quarter,D3
635,Left,1,43,80,285.0,5.989583,Unknown,G2_C#3
637,Right,0,57,80,286.0,4.989583,Unknown,A3
638,Right,0,67,80,287.0,0.989583,Quarter,G4
640,Left,1,50,80,288.0,0.989583,Quarter,D3
639,Right,0,65,80,288.0,0.989583,Quarter,F4
642,Left,1,52,80,289.0,0.989583,Quarter,E3
641,Right,0,64,80,289.0,0.989583,Quarter,E4
644,Left,1,53,80,290.0,0.989583,Quarter,F3
643,Right,0,62,80,290.0,0.989583,Quarter,D4
645,Left,1,47,80,291.0,5.989583,DottedHalf,G2_B2
647,Right,0,55,80,292.0,4.989583,Unknown,G3
648,Right,0,65,80,293.0,0.989583,Quarter,F4
649,Left,1,48,80,294.0,0.989583,Quarter,C3
650,Right,0,64,80,294.0,0.989583,Quarter,E4
651,Left,1,50,80,295.0,0.989583,Quarter,D3
652,Right,0,62,80,295.0,0.989583,Quarter,D4
653,Right,0,60,80,296.0,0.989583,Quarter,C4
654,Left,1,52,80,296.0,0.989583,Quarter,E3
655,Left,1,55,80,297.0,5.989583,Unknown,G3
656,Right,0,69,83,298.0,4.989583,Unknown,A4
657,Left,1,61,87,299.0,0.989583,Quarter,C#4
658,Right,0,79,87,299.0,0.989583,Quarter,G5
660,Left,1,62,91,300.0,0.989583,Quarter,D4
659,Right,0,77,91,300.0,0.989583,Quarter,F5
661,Right,0,76,95,301.0,0.989583,Quarter,E5
662,Left,1,64,95,301.0,0.989583,Quarter,E4
663,Left,1,65,99,302.0,0.989583,Quarter,F4
664,Right,0,74,99,302.0,0.989583,Quarter,D5
665,Left,1,55,100,303.0,5.989583,Unknown,G3
666,Right,0,67,100,304.0,4.989583,Unknown,G4
667,Left,1,59,100,305.0,0.989583,Quarter,B3
668,Right,0,77,100,305.0,0.989583,Quarter,F5
669,Left,1,60,100,306.0,0.989583,Quarter,C4
670,Right,0,76,100,306.0,0.989583,Quarter,E5
672,Right,0,74,100,307.0,0.989583,Quarter,D5
671,Left,1,62,100,307.0,0.989583,Quarter,D4
674,Right,0,72,100,308.0,0.989583,Quarter,C5
673,Left,1,64,100,308.0,0.989583,Quarter,E4
677,Right,0,71,100,309.0,0.989583,Quarter,B4
675,Left,1,55,100,309.0,0.989583,Quarter,G3_F4
678,Right,0,69,97,310.0,0.989583,Quarter,A4
679,Right,0,67,93,311.0,0.989583,Quarter,G4
680,Right,0,65,89,312.0,0.989583,Quarter,F4
681,Right,0,64,85,313.0,0.989583,Quarter,E4
682,Right,0,62,81,314.0,0.989583,Quarter,D4
683,Right,0,64,80,315.0,2.989583,DottedHalf,G3_E4
685,Left,1,36,80,315.0,5.989583,Unknown,C3_C2
689,Left,1,47,80,318.0,1.989583,Half,B2
687,Right,0,62,80,318.0,2.989583,Quarter,F3_D4
690,Right,0,65,80,319.0,0.989583,Quarter,F4
691,Right,0,59,80,320.0,0.989583,Quarter,B3
692,Left,1,50,80,320.0,0.989583,Quarter,D3
695,Left,1,48,80,321.0,0.989583,Quarter,C3_C2
693,Right,0,52,80,321.0,0.989583,Quarter,E3_C4
697,Right,0,64,80,322.0,0.989583,Quarter,E4
698,Right,0,67,80,323.0,0.989583,Quarter,G4
699,Right,0,72,80,324.0,0.989583,Quarter,C5
700,Right,0,74,80,325.0,0.989583,Quarter,D5
701,Right,0,75,80,326.0,0.989583,Quarter,D#5
703,Right,0,76,80,327.0,2.989583,DottedHalf,G4_E5_E4
702,Left,1,48,80,327.0,5.989583,Unknown,C4_C3
707,Left,1,59,80,330.0,1.989583,Half,B3
708,Right,0,65,80,330.0,2.989583,DottedHalf,F4_D5
710,Right,0,77,80,331.0,0.989583,Quarter,F5
712,Right,0,71,80,332.0,0.989583,Quarter,B4
711,Left,1,62,80,332.0,0.989583,Quarter,D4
713,Right,0,64,80,333.0,0.989583,Quarter,E4_C5
715,Left,1,60,80,333.0,0.989583,Quarter,C4_C3
717,Right,0,76,80,334.0,0.989583,Quarter,E5
718,Right,0,79,80,335.0,0.989583,Quarter,G5
719,Right,0,84,80,336.0,0.989583,Quarter,C6
720,Right,0,86,80,337.0,0.989583,Quarter,D6
721,Right,0,87,80,338.0,0.989583,Quarter,D#6
724,Left,1,52,80,339.0,5.989583,Unknown,G3_E3_C3
722,Right,0,76,80,339.0,5.989583,Unknown,E6_E5
727,Left,1,57,80,342.0,2.989583,DottedHalf,A3
731,Right,0,71,80,345.0,5.989583,Unknown,B5_B4
728,Left,1,47,80,345.0,5.989583,Unknown,G3_E3_B3_B2
734,Left,1,51,80,348.0,2.989583,DottedHalf,F#3_D#3
736,Left,1,52,80,351.0,1.489583,DottedQuarter,E3
737,Right,0,55,80,351.0,2.989583,DottedHalf,G3_E4_B3
740,Left,1,51,80,352.5,0.489583,Eighth,D#3
741,Right,0,63,80,352.5,0.489583,Eighth,D#4
743,Right,0,64,80,353.0,0.989583,Quarter,E4
742,Left,1,52,80,353.0,0.989583,Quarter,E3
746,Right,0,64,80,354.0,2.989583,DottedHalf,G3_E4_C4
744,Left,1,52,80,354.0,2.989583,DottedQuarter,E3_C3
750,Right,0,63,80,355.5,0.489583,Eighth,D#4
749,Left,1,51,80,355.5,0.489583,Eighth,D#3
752,Right,0,64,80,356.0,0.989583,Quarter,E4
751,Left,1,52,80,356.0,0.989583,Quarter,E3
753,Left,1,55,80,357.0,3.989583,Whole,G3_A#2
755,Right,0,58,80,357.0,3.989583,DottedHalf,G4_C#4_A#3
758,Left,1,45,80,360.0,2.989583,DottedHalf,A2
759,Right,0,60,80,360.0,2.989583,DottedHalf,C4_A3
761,Left,1,54,80,361.0,0.489583,Eighth,F#3
762,Right,0,66,80,361.0,0.489583,Eighth,F#4
764,Right,0,64,80,361.5,0.489583,Eighth,E4
763,Left,1,52,80,361.5,0.489583,Eighth,E3
765,Left,1,51,80,362.0,0.489583,Eighth,D#3
766,Right,0,63,80,362.0,0.489583,Eighth,D#4
767,Left,1,54,80,362.5,0.489583,Eighth,F#3
768,Right,0,66,80,362.5,0.489583,Eighth,F#4
769,Right,0,64,80,363.0,0.989583,Quarter,E4_B3
770,Left,1,43,80,363.0,0.989583,Quarter,G2_E3
775,Right,0,66,80,364.0,0.989583,Quarter,F#4_B3
773,Left,1,51,80,364.0,0.989583,Quarter,F#2_D#3
777,Left,1,52,80,365.0,0.989583,Quarter,E3_E2
779,Right,0,59,80,365.0,0.989583,Quarter,G4_B3
781,Left,1,39,80,366.0,1.989583,Half,D#2_B2
782,Right,0,66,80,366.0,1.989583,Half,F#4_B4
785,Right,0,69,80,367.0,0.989583,Quarter,A4
787,Right,0,64,80,368.0,0.989583,Quarter,G4_E4
786,Left,1,47,80,368.0,0.989583,Quarter,E2_B2
790,Left,1,47,80,369.0,3.989583,Half,B2_B1
792,Right,0,63,80,369.0,1.989583,Half,F#4_D#4
794,Right,0,64,80,371.0,0.989583,Quarter,E4_A4
796,Left,1,46,80,371.0,0.989583,Quarter,A#2
797,Right,0,67,80,371.5,0.489583,Eighth,G4
798,Right,0,63,80,372.0,0.989583,Quarter,F#4_D#4
800,Left,1,47,80,372.0,0.989583,Quarter,B2
801,Right,0,71,80,374.0,0.989583,Quarter,B4
802,Right,0,67,80,375.0,2.989583,DottedHalf,G4_E5_B4
805,Left,1,64,80,375.0,1.489583,DottedQuarter,E4
806,Right,0,75,80,376.5,0.489583,Eighth,D#5
807,Left,1,63,80,376.5,0.489583,Eighth,D#4
809,Left,1,64,80,377.0,0.989583,Quarter,E4
808,Right,0,76,80,377.0,0.989583,Quarter,E5
811,Left,1,64,80,378.0,2.989583,DottedQuarter,E4_C4
810,Right,0,67,80,378.0,2.989583,DottedHalf,G4_E5_C5
815,Left,1,63,94,379.5,0.489583,Eighth,D#4
816,Right,0,75,94,379.5,0.489583,Eighth,D#5
818,Left,1,64,99,380.0,0.989583,Quarter,E4
817,Right,0,76,99,380.0,0.989583,Quarter,E5
819,Right,0,79,100,381.0,3.989583,DottedHalf,G5_C#5_A#4
822,Left,1,58,100,381.0,3.989583,DottedHalf,G4_A#3
825,Left,1,57,80,384.0,2.989583,DottedHalf,A3
824,Right,0,69,80,384.0,2.989583,DottedHalf,C5_A4
827,Right,0,78,80,385.0,0.489583,Eighth,F#5
828,Left,1,66,80,385.0,0.489583,Eighth,F#4
829,Left,1,64,80,385.5,0.489583,Eighth,E4
830,Right,0,76,80,385.5,0.489583,Eighth,E5
831,Right,0,75,80,386.0,0.489583,Eighth,D#5
832,Left,1,63,80,386.0,0.489583,Eighth,D#4
833,Right,0,78,80,386.5,0.489583,Eighth,F#5
834,Left,1,66,80,386.5,0.489583,Eighth,F#4
836,Left,1,64,80,387.0,0.989583,Quarter,G3_E4
835,Right,0,76,80,387.0,0.989583,Quarter,E5_B4
840,Right,0,78,80,388.0,0.989583,Quarter,F#5_B4
839,Left,1,54,80,388.0,0.989583,Quarter,F#3_D#4
845,Right,0,71,80,389.0,0.989583,Quarter,G5_B4
843,Left,1,64,80,389.0,0.989583,Quarter,E4_E3
848,Left,1,59,80,390.0,1.989583,Half,D#3_B3
847,Right,0,83,80,390.0,1.989583,Quarter,F#5_B5
851,Right,0,81,80,391.0,0.989583,Quarter,A5
852,Right,0,76,80,392.0,0.989583,Quarter,G5_E5
854,Left,1,59,80,392.0,0.989583,Quarter,E3_B3
857,Right,0,76,80,393.0,1.989583,Half,G5_E5
856,Left,1,59,80,393.0,2.989583,Half,B3_B2
860,Right,0,75,80,395.0,0.989583,Quarter,F#5_D#5
862,Left,1,57,80,395.0,0.989583,Quarter,A3
865,Right,0,76,80,396.0,0.989583,Quarter,E5
863,Left,1,52,80,396.0,0.989583,Quarter,G3_E3
869,Left,1,48,80,399.0,2.989583,DottedHalf,E3_C3
866,Right,0,55,80,399.0,2.989583,DottedHalf,G3_E4_C4
871,Right,0,63,80,400.5,0.489583,Eighth,D#4
872,Right,0,64,80,401.0,0.989583,Quarter,E4
873,Right,0,59,100,402.0,2.989583,DottedHalf,G4_D4_B3
874,Left,1,43,100,402.0,2.989583,DottedHalf,G3_G2
878,Left,1,50,80,405.0,2.989583,DottedHalf,F3_D3
879,Right,0,57,80,405.0,2.989583,DottedHalf,F4_D4_A3
883,Right,0,64,80,406.5,0.489583,Eighth,E4
884,Right,0,65,80,407.0,0.989583,Quarter,F4
885,Left,1,47,100,408.0,2.989583,DottedHalf,G3_B2
887,Right,0,67,100,408.0,2.989583,DottedHalf,G4_D4
890,Left,1,48,80,411.0,2.989583,DottedHalf,E3_C3
889,Right,0,55,80,411.0,2.989583,DottedHalf,G3_E4_C4
894,Right,0,63,80,412.5,0.489583,Eighth,D#4
895,Right,0,64,80,413.0,0.989583,Quarter,E4
896,Left,1,50,80,414.0,2.989583,DottedHalf,G2_D3
897,Right,0,67,80,414.0,2.989583,DottedHalf,G4_D4_B3
901,Right,0,67,80,416.0,0.989583,Quarter,G4
902,Right,0,62,80,417.0,2.989583,DottedHalf,G4_D4_A3
905,Left,1,50,80,417.0,2.989583,DottedHalf,D3_D2
907,Right,0,66,80,419.0,0.989583,Quarter,F#4
908,Left,1,31,80,420.0,0.989583,Quarter,G2_G1
910,Right,0,62,80,420.0,0.989583,Quarter,G4_D4_B3
915,Right,0,76,80,423.0,2.989583,DottedHalf,G4_E5_C5
913,Left,1,64,80,423.0,2.989583,DottedQuarter,E4_C4
918,Right,0,75,80,424.5,0.489583,Eighth,D#5
919,Left,1,63,80,424.5,0.489583,Eighth,D#4
920,Right,0,76,80,425.0,0.989583,Quarter,E5
921,Left,1,64,80,425.0,0.989583,Quarter,E4
924,Left,1,55,100,426.0,2.989583,DottedHalf,G4_G3
922,Right,0,74,100,426.0,2.989583,DottedHalf,G5_D5_B4
927,Right,0,77,80,429.0,2.989583,DottedHalf,F5_D5_A4
930,Left,1,65,80,429.0,2.989583,DottedQuarter,F4_D4
933,Left,1,64,80,430.5,0.489583,Eighth,E4
932,Right,0,76,80,430.5,0.489583,Eighth,E5
934,Right,0,77,80,431.0,0.989583,Quarter,F5
935,Left,1,65,80,431.0,0.989583,Quarter,F4
936,Right,0,79,100,432.0,2.989583,DottedHalf,G5_D5
937,Left,1,67,100,432.0,2.989583,DottedHalf,G4_B3
942,Right,0,76,80,435.0,2.989583,DottedHalf,G4_E5_C5
940,Left,1,64,80,435.0,2.989583,DottedQuarter,E4_C4
945,Left,1,63,80,436.5,0.489583,Eighth,D#4
946,Right,0,75,80,436.5,0.489583,Eighth,D#5
947,Left,1,64,80,437.0,0.989583,Quarter,E4
948,Right,0,76,80,437.0,0.989583,Quarter,E5
949,Right,0,64,80,438.0,1.989583,Half,E5_E4
951,Left,1,57,80,438.0,2.989583,DottedHalf,C3_A3
953,Right,0,64,80,440.0,0.989583,Quarter,E5_E4
955,Right,0,64,80,441.0,1.989583,Half,E5_E4
957,Left,1,47,80,441.0,7.989583,Unknown,B3_B2
959,Right,0,75,80,443.0,0.989583,Quarter,D#5_D#4
961,Right,0,66,80,444.0,4.989583,Unknown,F#5_F#4
963,Right,0,71,80,449.0,0.989583,Quarter,B4
964,Right,0,76,80,450.0,2.989583,DottedHalf,G4_E5_B4
967,Left,1,64,80,450.0,1.489583,DottedQuarter,E4
968,Right,0,75,80,451.5,0.489583,Eighth,D#5
969,Left,1,63,80,451.5,0.489583,Eighth,D#4
971,Left,1,64,80,452.0,0.989583,Quarter,E4
970,Right,0,76,80,452.0,0.989583,Quarter,E5
972,Left,1,60,80,453.0,2.989583,DottedHalf,E4_C4
974,Right,0,76,80,453.0,2.989583,DottedHalf,G4_E5_C5
977,Right,0,75,94,454.5,0.489583,Eighth,D#5
978,Left,1,63,94,454.5,0.489583,Eighth,D#4
980,Right,0,76,99,455.0,0.989583,Quarter,E5
979,Left,1,64,99,455.0,0.989583,Quarter,E4
981,Right,0,73,100,456.0,3.989583,DottedHalf,G5_C#5_A#4
984,Left,1,58,100,456.0,3.989583,DottedHalf,G4_A#3
986,Right,0,69,80,459.0,2.989583,DottedHalf,C5_A4
987,Left,1,57,80,459.0,2.989583,DottedHalf,A3
990,Right,0,78,80,460.0,0.489583,Eighth,F#5
989,Left,1,66,80,460.0,0.489583,Eighth,F#4
991,Right,0,76,80,460.5,0.489583,Eighth,E5
992,Left,1,64,80,460.5,0.489583,Eighth,E4
994,Left,1,63,80,461.0,0.489583,Eighth,D#4
993,Right,0,75,80,461.0,0.489583,Eighth,D#5
995,Left,1,66,80,461.5,0.489583,Eighth,F#4
996,Right,0,78,80,461.5,0.489583,Eighth,F#5
997,Left,1,55,80,462.0,0.989583,Quarter,G3_E4
999,Right,0,76,80,462.0,0.989583,Quarter,E5_B4
1003,Left,1,54,80,463.0,0.989583,Quarter,F#3_D#4
1001,Right,0,78,80,463.0,0.989583,Quarter,F#5_B4
1005,Left,1,64,80,464.0,0.989583,Quarter,E4_E3
1006,Right,0,71,80,464.0,0.989583,Quarter,G5_B4
1010,Left,1,51,80,465.0,1.989583,Half,D#3_B3
1009,Right,0,78,80,465.0,1.989583,Half,F#5_B5
1013,Right,0,81,80,466.0,0.989583,Quarter,A5
1014,Left,1,59,80,467.0,0.989583,Quarter,E3_B3
1016,Right,0,76,80,467.0,0.989583,Quarter,G5_E5
1018,Left,1,59,80,468.0,3.989583,Half,B3_B2
1019,Right,0,78,80,468.0,1.989583,Half,F#5_D#5
1024,Left,1,58,80,470.0,0.989583,Quarter,A#3
1022,Right,0,76,80,470.0,0.989583,Quarter,E5_A5
1025,Right,0,79,80,470.5,0.489583,Eighth,G5
1027,Left,1,59,80,471.0,0.989583,Quarter,B3
1026,Right,0,75,80,471.0,0.989583,Quarter,F#5_D#5
1029,Right,0,59,80,473.0,0.989583,Quarter,B3
1031,Right,0,64,80,474.0,1.489583,DottedQuarter,E4
1030,Left,1,52,80,474.0,1.489583,DottedQuarter,E3
1033,Right,0,63,80,475.5,0.489583,Eighth,D#4
1032,Left,1,51,80,475.5,0.489583,Eighth,D#3
1034,Right,0,64,80,476.0,0.989583,Quarter,E4
1035,Left,1,52,80,476.0,0.989583,Quarter,E3
1036,Right,0,64,80,477.0,1.489583,DottedQuarter,E4
1037,Left,1,48,80,477.0,2.989583,DottedHalf,E3_C3
1039,Right,0,63,94,478.5,0.489583,Eighth,D#4
1040,Left,1,51,94,478.5,0.489583,Eighth,D#3
1041,Right,0,64,99,479.0,0.989583,Quarter,E4
1042,Left,1,52,99,479.0,0.989583,Quarter,E3
1043,Right,0,72,100,480.0,5.989583,Unknown,F4_D4_C5
1046,Left,1,50,100,480.0,5.989583,Unknown,F3_D3_C4
1050,Left,1,59,100,484.0,0.489583,Eighth,B3
1049,Right,0,71,100,484.0,0.489583,Eighth,B4
1051,Right,0,69,100,484.5,0.489583,Eighth,A4
1052,Left,1,57,100,484.5,0.489583,Eighth,A3
1054,Left,1,56,100,485.0,0.489583,Eighth,G#3
1053,Right,0,68,100,485.0,0.489583,Eighth,G#4
1055,Left,1,59,100,485.5,0.489583,Eighth,B3
1056,Right,0,71,100,485.5,0.489583,Eighth,B4
1057,Right,0,64,100,486.0,0.989583,Quarter,E4_C4_A4
1058,Left,1,48,100,486.0,0.989583,Quarter,E3_C3_A3
1065,Left,1,50,110,487.0,1.989583,Half,F3_D3_B3
1063,Right,0,62,110,487.0,1.989583,Half,F4_D4_B4
1069,Right,0,69,100,487.5,0.489583,Eighth,A4
1070,Right,0,68,100,488.0,0.489583,Eighth,G#4
1071,Right,0,71,100,488.5,0.489583,Eighth,B4
1072,Left,1,48,100,489.0,0.989583,Quarter,E3_C3_A3
1075,Right,0,60,100,489.0,0.989583,Quarter,E4_C4_A4
1078,Right,0,71,110,490.0,1.989583,Half,F4_D4_B4
1081,Left,1,59,110,490.0,1.989583,Half,F3_D3_B3
1084,Right,0,69,100,490.5,0.489583,Eighth,A4
1085,Right,0,68,100,491.0,0.489583,Eighth,G#4
1086,Right,0,71,100,491.5,0.489583,Eighth,B4
1087,Left,1,52,100,492.0,0.989583,Quarter,E3_C3_A3
1089,Right,0,69,100,492.0,0.989583,Quarter,E4_C4_A4
1093,Right,0,69,80,493.0,0.489583,Eighth,A4
1094,Right,0,68,82,493.5,0.489583,Eighth,G#4
1095,Right,0,69,84,494.0,0.489583,Eighth,A4
1096,Right,0,71,86,494.5,0.489583,Eighth,B4
1097,Right,0,72,88,495.0,0.489583,Eighth,C5
1098,Right,0,74,91,495.5,0.489583,Eighth,D5
1099,Right,0,76,93,496.0,0.489583,Eighth,E5
1100,Right,0,75,95,496.5,0.489583,Eighth,D#5
1103,Right,0,76,97,497.0,0.489583,Eighth,E5
1101,Left,1,57,97,497.0,0.989583,Quarter,E4_A3
1104,Right,0,72,99,497.5,0.489583,Eighth,C5
1105,Right,0,71,80,498.0,0.989583,Quarter,B4
1106,Left,1,64,80,498.0,0.989583,Quarter,E4_B3
1108,Right,0,71,80,499.0,0.489583,Eighth,B4
1109,Right,0,70,80,499.5,0.489583,Eighth,A#4
1110,Right,0,71,80,500.0,0.489583,Eighth,B4
1111,Right,0,67,80,500.5,0.489583,Eighth,G4
1112,Right,0,63,80,501.0,0.989583,Quarter,F#4_D#4
1114,Left,1,47,80,501.0,0.989583,Quarter,B2_B1
1116,Right,0,71,80,502.0,0.489583,Eighth,B4
1117,Right,0,70,80,502.5,0.489583,Eighth,A#4
1118,Right,0,71,80,503.0,0.489583,Eighth,B4
1119,Right,0,66,80,503.5,0.489583,Eighth,F#4
1120,Right,0,64,80,504.0,2.989583,DottedHalf,E4
1121,Left,1,40,80,504.0,5.989583,Unknown,E2
1122,Right,0,56,80,506.0,0.989583,Quarter,G#3
1123,Left,1,47,80,506.0,0.989583,Quarter,B2
1124,Right,0,63,81,507.0,2.989583,DottedHalf,D#4_A3
1126,Left,1,48,81,507.0,0.989583,Quarter,C3
1128,Right,0,57,83,508.0,0.489583,Eighth,A3
1127,Left,1,48,83,508.0,0.489583,Eighth,C3
1129,Right,0,59,84,508.5,0.489583,Eighth,B3
1130,Left,1,47,84,508.5,0.489583,Eighth,B2
1131,Right,0,60,85,509.0,0.489583,Eighth,C4
1132,Left,1,45,85,509.0,0.489583,Eighth,A2
1134,Right,0,57,86,509.5,0.489583,Eighth,A3
1133,Left,1,48,86,509.5,0.489583,Eighth,C3
1136,Right,0,56,87,510.0,0.989583,Quarter,G#3_E4
1135,Left,1,52,87,510.0,5.989583,Unknown,E3_E2
1141,Left,1,59,91,512.0,0.989583,Quarter,B3
1139,Right,0,68,91,512.0,0.989583,Quarter,G#4_E4
1143,Left,1,60,93,513.0,0.989583,Quarter,C4
1142,Right,0,69,93,513.0,2.989583,Quarter,D#4_A4
1146,Right,0,69,95,514.0,0.489583,Eighth,A4
1145,Left,1,60,95,514.0,0.489583,Eighth,C4
1148,Left,1,59,96,514.5,0.489583,Eighth,B3
1147,Right,0,71,96,514.5,0.489583,Eighth,B4
1150,Left,1,57,97,515.0,0.489583,Eighth,A3
1149,Right,0,72,97,515.0,0.489583,Eighth,C5
1151,Right,0,69,98,515.5,0.489583,Eighth,A4
1152,Left,1,60,98,515.5,0.489583,Eighth,C4
1155,Right,0,64,99,516.0,0.989583,Quarter,G#4_E4
1153,Left,1,52,99,516.0,5.989583,Unknown,E3_B3
1159,Left,1,59,100,518.0,0.989583,Quarter,B3
1157,Right,0,76,100,518.0,0.989583,Quarter,G#4_E5
1162,Left,1,60,110,519.0,0.989583,Quarter,C4
1160,Right,0,69,110,519.0,2.989583,Quarter,D#5_A4
1164,Left,1,60,100,520.0,0.489583,Eighth,C4
1163,Right,0,69,100,520.0,0.489583,Eighth,A4
1166,Left,1,59,100,520.5,0.489583,Eighth,B3
1165,Right,0,71,100,520.5,0.489583,Eighth,B4
1168,Right,0,72,100,521.0,0.489583,Eighth,C5
1167,Left,1,57,100,521.0,0.489583,Eighth,A3
1169,Right,0,69,100,521.5,0.489583,Eighth,A4
1170,Left,1,60,100,521.5,0.489583,Eighth,C4
1173,Right,0,76,110,522.0,0.989583,Quarter,G#4_E5
1171,Left,1,52,110,522.0,0.989583,Quarter,E3_B3
1177,Right,0,69,100,523.0,1.989583,Eighth,D#5_A4
1175,Left,1,52,100,523.0,1.989583,Half,E3_C4
1179,Right,0,71,100,523.5,0.489583,Eighth,B4
1180,Left,1,59,100,523.5,0.489583,Eighth,B3
1182,Right,0,72,100,524.0,0.489583,Eighth,C5
1181,Left,1,57,100,524.0,0.489583,Eighth,A3
1183,Right,0,69,100,524.5,0.489583,Eighth,A4
1184,Left,1,60,100,524.5,0.489583,Eighth,C4
1186,Right,0,68,110,525.0,0.989583,Quarter,G#4_E5
1185,Left,1,52,110,525.0,0.989583,Quarter,E3_B3
1189,Right,0,75,100,526.0,1.989583,Half,D#5_A4
1191,Left,1,52,100,526.0,1.989583,Half,E3_C4
1193,Left,1,59,100,526.5,0.489583,Eighth,B3
1194,Right,0,71,100,526.5,0.489583,Eighth,B4
1195,Left,1,57,100,527.0,0.489583,Eighth,A3
1196,Right,0,72,100,527.0,0.489583,Eighth,C5
1198,Left,1,60,100,527.5,0.489583,Eighth,C4
1197,Right,0,69,100,527.5,0.489583,Eighth,A4
1200,Left,1,52,80,528.0,0.989583,Quarter,E3_B3
1199,Right,0,76,80,528.0,0.989583,Quarter,G#4_E5
1203,Left,1,59,80,531.0,0.989583,Quarter,E3_B3
1204,Right,0,76,80,531.0,0.989583,Quarter,G#5_E5
1207,Left,1,40,80,534.0,0.989583,Quarter,E3_E2_B2
1209,Right,0,88,80,534.0,0.989583,Quarter,G#5_E6_E5
1213,Right,0,88,80,537.0,2.489583,Half,E6
1214,Right,0,64,80,539.5,0.489583,Eighth,E4
1216,Right,0,64,80,540.0,2.989583,DottedHalf,G3_E4
1215,Left,1,36,80,540.0,5.989583,Unknown,C3_C2
1219,Right,0,62,80,543.0,2.989583,Quarter,F3_D4
1221,Right,0,65,80,544.0,0.989583,Quarter,F4
1222,Right,0,59,80,545.0,0.989583,Quarter,B3
1223,Left,1,36,80,546.0,0.989583,Quarter,C3_C2
1224,Right,0,52,80,546.0,0.989583,Quarter,E3_C4
1227,Right,0,64,80,547.0,0.989583,Quarter,E4
1228,Right,0,67,80,548.0,0.989583,Quarter,G4
1229,Right,0,72,80,549.0,0.989583,Quarter,C5
1230,Right,0,74,80,550.0,0.989583,Quarter,D5
1231,Right,0,75,80,551.0,0.989583,Quarter,D#5
1234,Left,1,48,80,552.0,5.989583,Unknown,C4_C3
1232,Right,0,76,80,552.0,2.989583,DottedHalf,G4_E5
1237,Left,1,59,80,555.0,1.989583,Half,B3
1236,Right,0,65,80,555.0,2.989583,DottedHalf,F4_D5
1239,Right,0,77,80,556.0,0.989583,Quarter,F5
1241,Left,1,62,80,557.0,0.989583,Quarter,D4
1240,Right,0,71,80,557.0,0.989583,Quarter,B4
1244,Right,0,72,80,558.0,0.989583,Quarter,E4_C5
1242,Left,1,60,80,558.0,0.989583,Quarter,C4_C3
1246,Right,0,76,80,559.0,0.989583,Quarter,E5
1247,Right,0,79,80,560.0,0.989583,Quarter,G5
1248,Right,0,84,80,561.0,0.989583,Quarter,C6
1249,Right,0,86,80,562.0,0.989583,Quarter,D6
1250,Right,0,87,80,563.0,0.989583,Quarter,D#6
1254,Right,0,88,80,564.0,5.989583,Unknown,E6_E5
1251,Left,1,52,80,564.0,5.989583,Unknown,G3_E3_C3
1256,Left,1,57,80,567.0,2.989583,DottedHalf,A3
1259,Right,0,71,75,570.0,5.989583,Unknown,B5_B4
1257,Left,1,52,75,570.0,5.989583,DottedHalf,G3_E3_B3_B2
1263,Left,1,51,75,573.0,2.989583,DottedHalf,F#3_D#3
1267,Left,1,52,70,576.0,0.989583,Quarter,E3
1265,Right,0,64,70,576.0,0.989583,Quarter,E5_E4
1269,Left,1,52,70,579.0,0.989583,Quarter,E3_E2
1268,Right,0,64,70,579.0,0.989583,Quarter,E4
1272,Left,1,52,70,582.0,2.989583,DottedHalf,E3_E2
1271,Right,0,64,70,582.0,2.989583,DottedHalf,E4
