,hand,channel,note,velocity,start_beat,duration,note_value,chord
1,Left,1,56,80,0.0,0.322917,Triplet,G#3
0,Right,0,71,80,0.0,0.989583,Quarter,B4
2,Left,1,59,80,0.333333,0.322917,Triplet,B3
3,Left,1,64,80,0.666667,0.322917,Triplet,E4
4,Right,0,63,80,1.0,0.989583,Quarter,D#5_D#4
6,Left,1,54,80,1.0,0.322917,Triplet,F#3
7,Left,1,57,80,1.333333,0.322917,Triplet,A3
8,Left,1,59,80,1.666667,0.322917,Triplet,B3
10,Left,1,52,80,2.0,0.322917,Triplet,E3
9,Right,0,76,80,2.0,1.989583,Half,E5_E4
12,Left,1,56,80,2.333333,0.322917,Triplet,G#3
13,Left,1,59,80,2.666667,0.322917,Triplet,B3
14,Left,1,51,80,3.0,0.322917,Triplet,D#3
15,Left,1,54,80,3.333333,0.322917,Triplet,F#3
16,Left,1,59,80,3.666667,0.322917,Triplet,B3
18,Left,1,49,80,4.0,0.322917,Triplet,C#3
17,Right,0,76,80,4.0,0.989583,Quarter,E5_E4
20,Left,1,52,80,4.333333,0.322917,Triplet,E3
21,Left,1,57,80,4.666667,0.322917,Triplet,A3
24,Left,1,47,80,5.0,0.322917,Triplet,B2
22,Right,0,76,80,5.0,0.989583,Quarter,E5_E4
25,Left,1,51,80,5.333333,0.322917,Triplet,D#3
26,Left,1,56,80,5.666667,0.322917,Triplet,G#3
28,Right,0,66,80,6.0,1.489583,DottedQuarter,F#5_F#4
27,Left,1,45,80,6.0,0.322917,Triplet,A2
30,Left,1,49,80,6.333333,0.322917,Triplet,C#3
31,Left,1,54,80,6.666667,0.322917,Triplet,F#3
32,Left,1,44,80,7.0,0.322917,Triplet,G#2
33,Left,1,47,80,7.333333,0.322917,Triplet,B2
34,Right,0,80,80,7.5,0.489583,Eighth,G#5_G#4
36,Left,1,52,80,7.666667,0.322917,Triplet,E3
37,Right,0,81,80,8.0,0.989583,Quarter,A5_A4
38,Left,1,42,80,8.0,0.322917,Triplet,F#2
40,Left,1,45,80,8.333333,0.322917,Triplet,A2
41,Left,1,51,80,8.666667,0.322917,Triplet,D#3
42,Left,1,40,80,9.0,0.322917,Triplet,E2
43,Right,0,81,80,9.0,0.989583,Quarter,A5_A4
45,Left,1,44,80,9.333333,0.322917,Triplet,G#2
46,Left,1,49,80,9.666667,0.322917,Triplet,C#3
47,Left,1,39,80,10.0,0.322917,Triplet,D#2
48,Right,0,69,80,10.0,0.989583,Quarter,A5_A4
50,Left,1,42,80,10.333333,0.322917,Triplet,F#2
51,Left,1,47,80,10.666667,0.322917,Triplet,B2
53,Right,0,69,80,11.0,0.989583,Quarter,A5_A4
52,Left,1,40,80,11.0,0.322917,Triplet,E2
55,Left,1,44,80,11.333333,0.322917,Triplet,G#2
56,Left,1,49,80,11.666667,0.322917,Triplet,C#3
59,Left,1,39,80,12.0,0.322917,Triplet,D#2
57,Right,0,81,80,12.0,0.989583,Quarter,A5_A4
60,Left,1,42,80,12.333333,0.322917,Triplet,F#2
61,Left,1,47,80,12.666667,0.322917,Triplet,B2
62,Left,1,37,80,13.0,0.322917,Triplet,C#2
63,Right,0,81,80,13.0,0.989583,Quarter,A5_A4
65,Left,1,40,80,13.333333,0.322917,Triplet,E2
66,Left,1,47,80,13.666667,0.322917,Triplet,B2
68,Right,0,69,80,14.0,1.989583,Half,A5_A4
67,Left,1,35,80,14.0,1.989583,Half,D#2_B1
71,Left,1,47,80,15.0,0.989583,Quarter,B2
72,Right,0,81,80,16.0,0.239583,Sixteenth,A5
73,Right,0,80,80,16.25,0.239583,Sixteenth,G#5
74,Right,0,78,80,16.5,0.239583,Sixteenth,F#5
75,Right,0,76,80,16.75,0.239583,Sixteenth,E5
76,Right,0,75,80,17.0,0.239583,Sixteenth,D#5
77,Right,0,73,80,17.25,0.239583,Sixteenth,C#5
78,Right,0,71,80,17.5,0.239583,Sixteenth,B4
79,Right,0,69,80,17.75,0.239583,Sixteenth,A4
81,Right,0,68,80,18.0,1.989583,Half,G#4
80,Left,1,52,80,18.0,1.989583,Half,E3
82,Left,1,59,100,19.0,1.989583,Half,B3
83,Right,0,71,100,19.0,1.989583,Half,B4
84,Right,0,63,80,20.0,1.989583,Half,D#4
85,Left,1,47,80,20.0,1.989583,Half,B2
87,Left,1,57,80,21.0,0.989583,Quarter,A3
86,Right,0,66,80,21.0,0.739583,DottedEighth,F#4
88,Right,0,68,80,21.75,0.239583,Sixteenth,G#4
91,Right,0,64,80,22.0,0.989583,Quarter,E4
89,Left,1,52,80,22.0,1.989583,Half,G#3_E3
92,Left,1,59,80,23.0,0.989583,Quarter,B3
93,Right,0,69,80,24.0,0.239583,Sixteenth,A4
94,Right,0,68,80,24.25,0.239583,Sixteenth,G#4
95,Right,0,66,80,24.5,0.239583,Sixteenth,F#4
96,Right,0,64,80,24.75,0.239583,Sixteenth,E4
97,Right,0,63,80,25.0,0.239583,Sixteenth,D#4
98,Right,0,61,80,25.25,0.239583,Sixteenth,C#4
99,Right,0,59,80,25.5,0.239583,Sixteenth,B3
100,Right,0,57,80,25.75,0.239583,Sixteenth,A3
102,Left,1,40,80,26.0,1.989583,Half,E2
101,Right,0,56,80,26.0,1.989583,Half,G#3
103,Right,0,59,100,27.0,1.989583,Half,B3
104,Left,1,47,100,27.0,1.989583,Half,B2
105,Right,0,51,80,28.0,1.989583,Half,D#3
106,Left,1,35,80,28.0,1.989583,Half,B1
107,Left,1,45,80,29.0,0.989583,Quarter,A2
108,Right,0,54,80,29.0,0.739583,DottedEighth,F#3
109,Right,0,56,80,29.75,0.239583,Sixteenth,G#3
110,Right,0,52,80,30.0,0.989583,Quarter,E3
111,Left,1,44,80,30.0,0.989583,Quarter,G#2_B2
113,Right,0,52,80,31.0,0.989583,Quarter,E3
114,Right,0,71,80,32.0,0.989583,Quarter,B4
115,Left,1,56,80,32.0,0.322917,Triplet,G#3
116,Left,1,59,80,32.333333,0.322917,Triplet,B3
117,Left,1,64,80,32.666667,0.322917,Triplet,E4
119,Right,0,63,80,33.0,0.989583,Quarter,D#5_D#4
118,Left,1,54,80,33.0,0.322917,Triplet,F#3
121,Left,1,57,80,33.333333,0.322917,Triplet,A3
122,Left,1,59,80,33.666667,0.322917,Triplet,B3
125,Left,1,52,80,34.0,0.322917,Triplet,E3
123,Right,0,76,80,34.0,1.989583,Half,E5_E4
126,Left,1,56,80,34.333333,0.322917,Triplet,G#3
127,Left,1,59,80,34.666667,0.322917,Triplet,B3
128,Left,1,51,80,35.0,0.322917,Triplet,D#3
129,Left,1,54,80,35.333333,0.322917,Triplet,F#3
130,Left,1,59,80,35.666667,0.322917,Triplet,B3
131,Left,1,49,80,36.0,0.322917,Triplet,C#3
132,Right,0,76,80,36.0,0.989583,Quarter,E5_E4
134,Left,1,52,80,36.333333,0.322917,Triplet,E3
135,Left,1,57,80,36.666667,0.322917,Triplet,A3
136,Right,0,64,80,37.0,0.989583,Quarter,E5_E4
137,Left,1,47,80,37.0,0.322917,Triplet,B2
139,Left,1,51,80,37.333333,0.322917,Triplet,D#3
140,Left,1,56,80,37.666667,0.322917,Triplet,G#3
142,Right,0,78,80,38.0,1.489583,DottedQuarter,F#5_F#4
141,Left,1,45,80,38.0,0.322917,Triplet,A2
144,Left,1,49,80,38.333333,0.322917,Triplet,C#3
145,Left,1,54,80,38.666667,0.322917,Triplet,F#3
146,Left,1,44,80,39.0,0.322917,Triplet,G#2
147,Left,1,47,80,39.333333,0.322917,Triplet,B2
148,Right,0,80,80,39.5,0.489583,Eighth,G#5_G#4
150,Left,1,52,80,39.666667,0.322917,Triplet,E3
153,Left,1,42,80,40.0,0.322917,Triplet,F#2
151,Right,0,69,80,40.0,0.989583,Quarter,A5_A4
154,Left,1,45,80,40.333333,0.322917,Triplet,A2
155,Left,1,51,80,40.666667,0.322917,Triplet,D#3
156,Right,0,69,80,41.0,0.989583,Quarter,A5_A4
158,Left,1,40,80,41.0,0.322917,Triplet,E2
159,Left,1,44,80,41.333333,0.322917,Triplet,G#2
160,Left,1,49,80,41.666667,0.322917,Triplet,C#3
162,Left,1,39,80,42.0,0.322917,Triplet,D#2
161,Right,0,69,80,42.0,0.989583,Quarter,A5_A4
164,Left,1,42,80,42.333333,0.322917,Triplet,F#2
165,Left,1,47,80,42.666667,0.322917,Triplet,B2
167,Left,1,40,80,43.0,0.322917,Triplet,E2
166,Right,0,69,80,43.0,0.989583,Quarter,A5_A4
169,Left,1,44,80,43.333333,0.322917,Triplet,G#2
170,Left,1,49,80,43.666667,0.322917,Triplet,C#3
172,Left,1,39,80,44.0,0.322917,Triplet,D#2
171,Right,0,81,80,44.0,0.989583,Quarter,A5_A4
174,Left,1,42,80,44.333333,0.322917,Triplet,F#2
175,Left,1,47,80,44.666667,0.322917,Triplet,B2
176,Left,1,37,80,45.0,0.322917,Triplet,C#2
177,Right,0,69,80,45.0,0.989583,Quarter,A5_A4
179,Left,1,40,80,45.333333,0.322917,Triplet,E2
180,Left,1,47,80,45.666667,0.322917,Triplet,B2
181,Right,0,69,80,46.0,1.989583,Half,A5_A4
183,Left,1,35,80,46.0,1.989583,Half,D#2_B1
185,Left,1,47,80,47.0,0.989583,Quarter,B2
186,Right,0,81,80,48.0,0.239583,Sixteenth,A5
187,Right,0,80,80,48.25,0.239583,Sixteenth,G#5
188,Right,0,78,80,48.5,0.239583,Sixteenth,F#5
189,Right,0,76,80,48.75,0.239583,Sixteenth,E5
190,Right,0,75,80,49.0,0.239583,Sixteenth,D#5
191,Right,0,73,80,49.25,0.239583,Sixteenth,C#5
192,Right,0,71,80,49.5,0.239583,Sixteenth,B4
193,Right,0,69,80,49.75,0.239583,Sixteenth,A4
195,Right,0,68,80,50.0,1.989583,Half,G#4
194,Left,1,52,80,50.0,1.989583,Half,E3
197,Left,1,59,100,51.0,1.989583,Half,B3
196,Right,0,71,100,51.0,1.989583,Half,B4
199,Left,1,47,80,52.0,1.989583,Half,B2
198,Right,0,63,80,52.0,1.989583,Half,D#4
200,Left,1,57,80,53.0,0.989583,Quarter,A3
201,Right,0,66,80,53.0,0.739583,DottedEighth,F#4
202,Right,0,68,80,53.75,0.239583,Sixteenth,G#4
205,Right,0,64,80,54.0,0.989583,Quarter,E4
203,Left,1,52,80,54.0,0.989583,Quarter,G#3_E3
206,Left,1,64,80,56.0,0.239583,Sixteenth,E4
207,Left,1,63,80,56.25,0.239583,Sixteenth,D#4
208,Left,1,61,80,56.5,0.239583,Sixteenth,C#4
209,Left,1,59,80,56.75,0.239583,Sixteenth,B3
210,Left,1,58,80,57.0,0.239583,Sixteenth,A#3
211,Left,1,56,80,57.25,0.239583,Sixteenth,G#3
212,Left,1,54,80,57.5,0.239583,Sixteenth,F#3
213,Left,1,52,80,57.75,0.239583,Sixteenth,E3
214,Left,1,51,80,58.0,0.989583,Quarter,D#3
215,Left,1,54,80,59.0,0.989583,Quarter,F#3
217,Left,1,46,80,60.0,0.989583,Quarter,A#2
216,Right,0,76,80,60.0,0.239583,Sixteenth,E5
218,Right,0,75,80,60.25,0.239583,Sixteenth,D#5
219,Right,0,73,80,60.5,0.239583,Sixteenth,C#5
220,Right,0,71,80,60.75,0.239583,Sixteenth,B4
222,Left,1,54,80,61.0,0.989583,Quarter,F#3
221,Right,0,70,80,61.0,0.239583,Sixteenth,A#4
223,Right,0,68,80,61.25,0.239583,Sixteenth,G#4
224,Right,0,66,80,61.5,0.239583,Sixteenth,F#4
225,Right,0,64,80,61.75,0.239583,Sixteenth,E4
226,Right,0,63,80,62.0,0.989583,Quarter,D#4
227,Left,1,47,80,62.0,1.989583,Half,B2
228,Right,0,66,80,63.0,0.989583,Quarter,F#4
229,Right,0,58,80,64.0,0.989583,Quarter,A#3
230,Left,1,52,80,64.0,0.239583,Sixteenth,E3
231,Left,1,51,80,64.25,0.239583,Sixteenth,D#3
232,Left,1,49,80,64.5,0.239583,Sixteenth,C#3
233,Left,1,47,80,64.75,0.239583,Sixteenth,B2
234,Right,0,66,80,65.0,0.989583,Quarter,F#4
235,Left,1,46,80,65.0,0.239583,Sixteenth,A#2
236,Left,1,44,80,65.25,0.239583,Sixteenth,G#2
237,Left,1,42,80,65.5,0.239583,Sixteenth,F#2
238,Left,1,40,80,65.75,0.239583,Sixteenth,E2
239,Right,0,59,80,66.0,1.989583,Half,B3
240,Left,1,39,80,66.0,0.989583,Quarter,D#2
241,Left,1,42,80,67.0,0.989583,Quarter,F#2
242,Right,0,64,80,68.0,0.239583,Sixteenth,E4
243,Left,1,34,80,68.0,0.989583,Quarter,A#1
244,Right,0,63,80,68.25,0.239583,Sixteenth,D#4
245,Right,0,61,80,68.5,0.239583,Sixteenth,C#4
246,Right,0,59,80,68.75,0.239583,Sixteenth,B3
248,Left,1,42,80,69.0,0.989583,Quarter,F#2
247,Right,0,58,80,69.0,0.239583,Sixteenth,A#3
249,Right,0,56,80,69.25,0.239583,Sixteenth,G#3
250,Right,0,54,80,69.5,0.239583,Sixteenth,F#3
251,Right,0,52,80,69.75,0.239583,Sixteenth,E3
253,Left,1,35,80,70.0,1.989583,Half,B1
252,Right,0,51,80,70.0,0.239583,Sixteenth,D#3
254,Right,0,52,80,70.25,0.239583,Sixteenth,E3
255,Right,0,54,81,70.5,0.239583,Sixteenth,F#3
256,Right,0,56,82,70.75,0.239583,Sixteenth,G#3
257,Right,0,58,82,71.0,0.239583,Sixteenth,A#3
258,Left,1,47,82,71.0,0.989583,Quarter,B2
259,Right,0,59,83,71.25,0.239583,Sixteenth,B3
260,Right,0,61,84,71.5,0.239583,Sixteenth,C#4
261,Right,0,63,84,71.75,0.239583,Sixteenth,D#4
264,Right,0,64,85,72.0,1.989583,Half,E4
262,Left,1,37,85,72.0,1.989583,Half,C#3_C#2
265,Left,1,47,88,73.0,0.989583,Quarter,B2
266,Right,0,66,91,74.0,0.239583,Sixteenth,F#4
267,Left,1,39,91,74.0,1.989583,Half,D#3_D#2
269,Right,0,68,92,74.25,0.239583,Sixteenth,G#4
270,Right,0,70,92,74.5,0.239583,Sixteenth,A#4
271,Right,0,71,93,74.75,0.239583,Sixteenth,B4
273,Right,0,73,94,75.0,0.239583,Sixteenth,C#5
272,Left,1,47,94,75.0,0.989583,Quarter,B2
274,Right,0,75,94,75.25,0.239583,Sixteenth,D#5
275,Right,0,76,95,75.5,0.239583,Sixteenth,E5
276,Right,0,78,96,75.75,0.239583,Sixteenth,F#5
277,Left,1,40,97,76.0,1.989583,Half,E3_E2
279,Right,0,80,97,76.0,1.989583,Half,G#5
280,Left,1,47,99,77.0,0.989583,Quarter,B2
283,Right,0,82,100,78.0,0.239583,Sixteenth,A#5
281,Left,1,54,100,78.0,0.989583,Quarter,F#3_F#2
284,Right,0,83,100,78.125,0.239583,Sixteenth,B5
285,Right,0,82,100,78.25,0.239583,Sixteenth,A#5
286,Right,0,83,100,78.375,0.239583,Sixteenth,B5
287,Right,0,80,100,78.5,0.239583,Sixteenth,G#5
288,Right,0,82,100,78.75,0.239583,Sixteenth,A#5
291,Right,0,83,100,79.0,0.989583,Quarter,B5
289,Left,1,44,100,79.0,0.989583,Quarter,G#3_G#2
293,Left,1,40,100,80.0,0.989583,Quarter,E3_E2
292,Right,0,73,100,80.0,0.239583,Sixteenth,C#5
295,Right,0,75,100,80.125,0.239583,Sixteenth,D#5
296,Right,0,73,100,80.25,0.239583,Sixteenth,C#5
297,Right,0,75,100,80.375,0.239583,Sixteenth,D#5
298,Right,0,72,100,80.5,0.239583,Sixteenth,C5
299,Right,0,73,100,80.75,0.239583,Sixteenth,C#5
300,Right,0,78,100,81.0,0.989583,Quarter,F#5
301,Left,1,42,100,81.0,0.989583,Quarter,F#3_F#2
304,Left,1,35,100,82.0,0.989583,Quarter,B2_B1
303,Right,0,71,100,82.0,0.989583,Quarter,B4
306,Right,0,83,80,84.0,1.989583,Half,B5
307,Right,0,71,80,86.0,1.989583,Half,B4
308,Right,0,67,80,88.0,1.989583,Half,G4
309,Right,0,68,80,90.0,3.989583,Whole,G#4
310,Right,0,64,80,92.0,1.989583,Half,E4_C#5
312,Left,1,52,80,93.0,0.989583,Quarter,E3
313,Right,0,71,80,94.0,1.989583,Half,F#4_D#4_B4
316,Left,1,54,80,95.0,0.989583,Quarter,F#3
317,Right,0,71,80,96.0,1.989583,Half,E4_C#4_B4
320,Right,0,70,80,96.5,0.489583,Eighth,A#4
322,Left,1,42,80,97.0,0.989583,Quarter,F#2
321,Right,0,68,80,97.0,0.489583,Eighth,G#4
323,Right,0,70,80,97.5,0.489583,Eighth,A#4
324,Right,0,71,80,98.0,1.989583,Half,D#4_B4_B3
327,Left,1,35,80,99.0,0.989583,Quarter,B2_B1
329,Right,0,83,80,100.0,0.989583,Quarter,B5
330,Right,0,83,80,101.0,0.989583,Quarter,B5
331,Right,0,71,80,102.0,0.989583,Quarter,B4
332,Right,0,71,80,103.0,0.989583,Quarter,B4
333,Right,0,67,80,104.0,0.989583,Quarter,G4
334,Right,0,67,80,105.0,0.989583,Quarter,G4
335,Right,0,68,80,106.0,3.989583,Whole,G#4
336,Right,0,73,80,108.0,1.989583,Half,E4_C#5
338,Left,1,52,80,109.0,0.989583,Quarter,E3
339,Right,0,63,80,110.0,1.989583,Half,F#4_D#4_B4
342,Left,1,54,80,111.0,0.989583,Quarter,F#3
343,Right,0,61,80,112.0,1.989583,Half,E4_C#4_B4
346,Right,0,70,80,112.5,0.489583,Eighth,A#4
347,Left,1,42,80,113.0,0.989583,Quarter,F#2
348,Right,0,68,80,113.0,0.489583,Eighth,G#4
349,Right,0,70,80,113.5,0.489583,Eighth,A#4
350,Right,0,59,80,114.0,1.989583,Half,D#4_B4_B3
353,Left,1,47,79,115.0,0.989583,Quarter,B2
354,Right,0,71,77,116.0,1.989583,Half,E4_C#4_B4_B3
358,Left,1,46,75,117.0,0.989583,Quarter,A#3_A#2
360,Right,0,71,73,118.0,1.989583,Half,F#4_D#4_B4_B3
364,Left,1,57,71,119.0,0.989583,Quarter,A3_A2
367,Left,1,56,80,120.0,0.322917,Triplet,G#3
366,Right,0,71,80,120.0,0.989583,Quarter,B4
368,Left,1,59,80,120.333333,0.322917,Triplet,B3
369,Left,1,64,80,120.666667,0.322917,Triplet,E4
370,Left,1,54,80,121.0,0.322917,Triplet,F#3
371,Right,0,63,80,121.0,0.989583,Quarter,D#5_D#4
373,Left,1,57,80,121.333333,0.322917,Triplet,A3
374,Left,1,59,80,121.666667,0.322917,Triplet,B3
375,Right,0,64,80,122.0,1.989583,Half,E5_E4
376,Left,1,52,80,122.0,0.322917,Triplet,E3
378,Left,1,56,80,122.333333,0.322917,Triplet,G#3
379,Left,1,59,80,122.666667,0.322917,Triplet,B3
380,Left,1,51,80,123.0,0.322917,Triplet,D#3
381,Left,1,54,80,123.333333,0.322917,Triplet,F#3
382,Left,1,59,80,123.666667,0.322917,Triplet,B3
383,Right,0,76,80,124.0,0.989583,Quarter,E5_E4
385,Left,1,49,80,124.0,0.322917,Triplet,C#3
386,Left,1,52,80,124.333333,0.322917,Triplet,E3
387,Left,1,57,80,124.666667,0.322917,Triplet,A3
388,Right,0,76,80,125.0,0.989583,Quarter,E5_E4
389,Left,1,47,80,125.0,0.322917,Triplet,B2
391,Left,1,51,80,125.333333,0.322917,Triplet,D#3
392,Left,1,56,80,125.666667,0.322917,Triplet,G#3
393,Left,1,45,80,126.0,0.322917,Triplet,A2
394,Right,0,66,80,126.0,1.489583,DottedQuarter,F#5_F#4
396,Left,1,49,80,126.333333,0.322917,Triplet,C#3
397,Left,1,54,80,126.666667,0.322917,Triplet,F#3
398,Left,1,44,80,127.0,0.322917,Triplet,G#2
399,Left,1,47,80,127.333333,0.322917,Triplet,B2
400,Right,0,80,80,127.5,0.489583,Eighth,G#5_G#4
402,Left,1,52,80,127.666667,0.322917,Triplet,E3
404,Right,0,81,80,128.0,0.989583,Quarter,A5_A4
403,Left,1,42,80,128.0,0.322917,Triplet,F#2
406,Left,1,45,80,128.333333,0.322917,Triplet,A2
407,Left,1,51,80,128.666667,0.322917,Triplet,D#3
408,Right,0,69,80,129.0,0.989583,Quarter,A5_A4
409,Left,1,40,80,129.0,0.322917,Triplet,E2
411,Left,1,44,80,129.333333,0.322917,Triplet,G#2
412,Left,1,49,80,129.666667,0.322917,Triplet,C#3
413,Right,0,81,80,130.0,0.989583,Quarter,A5_A4
414,Left,1,39,80,130.0,0.322917,Triplet,D#2
416,Left,1,42,80,130.333333,0.322917,Triplet,F#2
417,Left,1,47,81,130.666667,0.322917,Triplet,B2
418,Right,0,69,82,131.0,0.989583,Quarter,A5_A4
420,Left,1,40,82,131.0,0.322917,Triplet,E2
421,Left,1,44,83,131.333333,0.322917,Triplet,G#2
422,Left,1,49,84,131.666667,0.322917,Triplet,C#3
424,Right,0,81,84,132.0,0.989583,Quarter,A5_A4
423,Left,1,39,84,132.0,0.322917,Triplet,D#2
426,Left,1,42,85,132.333333,0.322917,Triplet,F#2
427,Left,1,47,86,132.666667,0.322917,Triplet,B2
428,Right,0,69,87,133.0,0.989583,Quarter,A5_A4
429,Left,1,37,87,133.0,0.322917,Triplet,C#2
431,Left,1,40,88,133.333333,0.322917,Triplet,E2
432,Left,1,47,89,133.666667,0.322917,Triplet,B2
434,Left,1,35,89,134.0,1.989583,Half,D#2_B1
433,Right,0,81,89,134.0,1.989583,Half,A5_A4
437,Left,1,47,80,135.0,0.989583,Quarter,B2
438,Right,0,81,80,136.0,0.239583,Sixteenth,A5
439,Right,0,80,80,136.25,0.239583,Sixteenth,G#5
440,Right,0,78,80,136.5,0.239583,Sixteenth,F#5
441,Right,0,76,80,136.75,0.239583,Sixteenth,E5
442,Right,0,75,80,137.0,0.239583,Sixteenth,D#5
443,Right,0,73,80,137.25,0.239583,Sixteenth,C#5
444,Right,0,71,80,137.5,0.239583,Sixteenth,B4
445,Right,0,69,80,137.75,0.239583,Sixteenth,A4
446,Right,0,68,80,138.0,1.989583,Half,G#4
447,Left,1,52,80,138.0,1.989583,Half,E3
448,Right,0,71,80,139.0,1.989583,Half,B4
449,Left,1,59,80,139.0,1.989583,Half,B3
450,Right,0,63,80,140.0,1.989583,Half,D#4
451,Left,1,47,80,140.0,1.989583,Half,B2
453,Left,1,57,80,141.0,0.989583,Quarter,A3
452,Right,0,66,80,141.0,0.739583,DottedEighth,F#4
454,Right,0,68,80,141.75,0.239583,Sixteenth,G#4
455,Right,0,64,80,142.0,0.989583,Quarter,E4
456,Left,1,56,80,142.0,1.989583,Quarter,G#3_E3
458,Left,1,59,80,143.0,0.989583,Quarter,B3
459,Right,0,69,80,144.0,0.239583,Sixteenth,A4
460,Right,0,68,80,144.25,0.239583,Sixteenth,G#4
461,Right,0,66,80,144.5,0.239583,Sixteenth,F#4
462,Right,0,64,80,144.75,0.239583,Sixteenth,E4
463,Right,0,63,80,145.0,0.239583,Sixteenth,D#4
464,Right,0,61,80,145.25,0.239583,Sixteenth,C#4
465,Right,0,59,80,145.5,0.239583,Sixteenth,B3
466,Right,0,57,80,145.75,0.239583,Sixteenth,A3
467,Left,1,40,80,146.0,1.989583,Half,E2
468,Right,0,56,80,146.0,1.989583,Half,G#3
470,Left,1,47,80,147.0,1.989583,Half,B2
469,Right,0,59,80,147.0,1.989583,Half,B3
472,Left,1,35,80,148.0,1.989583,Half,B1
471,Right,0,51,80,148.0,1.989583,Half,D#3
474,Left,1,45,80,149.0,0.989583,Quarter,A2
473,Right,0,54,80,149.0,0.739583,DottedEighth,F#3
475,Right,0,56,80,149.75,0.239583,Sixteenth,G#3
476,Left,1,47,80,150.0,0.989583,Quarter,G#2_B2
478,Right,0,52,80,150.0,0.989583,Quarter,E3
479,Right,0,52,80,151.0,0.989583,Quarter,E3
480,Left,1,55,80,152.0,0.322917,Triplet,G3
481,Right,0,71,80,152.0,0.989583,Quarter,B4
482,Left,1,59,80,152.333333,0.322917,Triplet,B3
483,Left,1,64,80,152.666667,0.322917,Triplet,E4
485,Left,1,54,80,153.0,0.322917,Triplet,F#3
484,Right,0,63,80,153.0,0.989583,Quarter,D#5_D#4
487,Left,1,57,80,153.333333,0.322917,Triplet,A3
488,Left,1,59,80,153.666667,0.322917,Triplet,B3
491,Left,1,52,80,154.0,0.322917,Triplet,E3
489,Right,0,64,80,154.0,1.989583,Half,E5_E4
492,Left,1,55,80,154.333333,0.322917,Triplet,G3
493,Left,1,59,80,154.666667,0.322917,Triplet,B3
494,Left,1,50,80,155.0,0.322917,Triplet,D3
495,Left,1,54,80,155.333333,0.322917,Triplet,F#3
496,Left,1,59,80,155.666667,0.322917,Triplet,B3
499,Left,1,48,80,156.0,0.322917,Triplet,C3
497,Right,0,64,80,156.0,0.989583,Quarter,E5_E4
500,Left,1,52,80,156.333333,0.322917,Triplet,E3
501,Left,1,57,80,156.666667,0.322917,Triplet,A3
504,Left,1,47,80,157.0,0.322917,Triplet,B2
502,Right,0,76,80,157.0,0.989583,Quarter,E5_E4
505,Left,1,50,80,157.333333,0.322917,Triplet,D3
506,Left,1,55,80,157.666667,0.322917,Triplet,G3
507,Left,1,45,80,158.0,0.322917,Triplet,A2
508,Right,0,78,80,158.0,1.489583,DottedQuarter,F#5_F#4
510,Left,1,48,80,158.333333,0.322917,Triplet,C3
511,Left,1,54,81,158.666667,0.322917,Triplet,F#3
512,Left,1,43,82,159.0,0.322917,Triplet,G2
513,Left,1,47,83,159.333333,0.322917,Triplet,B2
514,Right,0,67,84,159.5,0.489583,Eighth,G5_G4
516,Left,1,52,84,159.666667,0.322917,Triplet,E3
519,Left,1,42,85,160.0,0.322917,Triplet,F#2
517,Right,0,81,85,160.0,0.989583,Quarter,A5_A4
520,Left,1,45,86,160.333333,0.322917,Triplet,A2
521,Left,1,50,87,160.666667,0.322917,Triplet,D3
522,Right,0,71,88,161.0,0.989583,Quarter,B5_B4
524,Left,1,40,88,161.0,0.322917,Triplet,E2
525,Left,1,43,89,161.333333,0.322917,Triplet,G2
526,Left,1,50,90,161.666667,0.322917,Triplet,D3
529,Left,1,38,91,162.0,0.322917,Triplet,D2
527,Right,0,84,91,162.0,0.989583,Quarter,C6_C5
530,Left,1,42,92,162.333333,0.322917,Triplet,F#2
531,Left,1,50,93,162.666667,0.322917,Triplet,D3
533,Right,0,84,94,163.0,0.989583,Quarter,C6_C5
532,Left,1,43,94,163.0,0.322917,Triplet,G2
535,Left,1,47,95,163.333333,0.322917,Triplet,B2
536,Left,1,50,96,163.666667,0.322917,Triplet,D3
537,Right,0,72,97,164.0,0.989583,Quarter,C6_C5
539,Left,1,42,97,164.0,0.322917,Triplet,F#2
540,Left,1,45,98,164.333333,0.322917,Triplet,A2
541,Left,1,50,99,164.666667,0.322917,Triplet,D3
542,Left,1,40,99,165.0,0.322917,Triplet,E2
543,Right,0,72,99,165.0,0.989583,Quarter,C6_C5
545,Left,1,43,80,165.333333,0.322917,Triplet,G2
546,Left,1,50,80,165.666667,0.322917,Triplet,D3
549,Left,1,42,110,166.0,3.989583,Quarter,F#2_D2
547,Right,0,72,110,166.0,1.989583,Half,C6_C5
551,Left,1,50,110,167.0,2.989583,DottedHalf,D3
552,Right,0,84,110,168.0,0.239583,Sixteenth,C6
553,Right,0,83,110,168.25,0.239583,Sixteenth,B5
554,Right,0,81,110,168.5,0.239583,Sixteenth,A5
555,Right,0,79,110,168.75,0.239583,Sixteenth,G5
556,Right,0,78,110,169.0,0.239583,Sixteenth,F#5
557,Right,0,76,110,169.25,0.239583,Sixteenth,E5
558,Right,0,74,110,169.5,0.239583,Sixteenth,D5
559,Right,0,72,110,169.75,0.239583,Sixteenth,C5
562,Left,1,38,110,170.0,3.989583,Whole,D2
560,Right,0,79,110,170.0,2.239583,Half,G5_B4
563,Left,1,50,110,171.0,2.989583,DottedHalf,D3
564,Right,0,73,110,172.0,0.989583,Quarter,C#5
565,Right,0,78,110,172.25,0.239583,Sixteenth,F#5
566,Right,0,76,110,172.5,0.239583,Sixteenth,E5
567,Right,0,74,110,172.75,0.239583,Sixteenth,D5
568,Right,0,73,110,173.0,0.239583,Sixteenth,C#5
569,Right,0,71,110,173.25,0.239583,Sixteenth,B4
570,Right,0,69,110,173.5,0.239583,Sixteenth,A4
571,Right,0,67,110,173.75,0.239583,Sixteenth,G4
572,Right,0,74,110,174.0,1.989583,Half,F#4_D5
574,Left,1,38,110,174.0,3.989583,Whole,D2
575,Left,1,50,110,175.0,2.989583,DottedHalf,D3
576,Right,0,72,110,176.0,0.239583,Sixteenth,C5
577,Right,0,71,110,176.25,0.239583,Sixteenth,B4
578,Right,0,69,110,176.5,0.239583,Sixteenth,A4
579,Right,0,67,110,176.75,0.239583,Sixteenth,G4
580,Right,0,66,110,177.0,0.239583,Sixteenth,F#4
581,Right,0,64,110,177.25,0.239583,Sixteenth,E4
582,Right,0,62,110,177.5,0.239583,Sixteenth,D4
583,Right,0,60,110,177.75,0.239583,Sixteenth,C4
585,Left,1,38,110,178.0,3.989583,Whole,D2
584,Right,0,67,110,178.0,2.239583,Half,G4_B3
587,Left,1,50,110,179.0,2.989583,DottedHalf,D3
588,Right,0,61,110,180.0,0.989583,Quarter,C#4
589,Right,0,66,110,180.25,0.239583,Sixteenth,F#4
590,Right,0,64,110,180.5,0.239583,Sixteenth,E4
591,Right,0,62,110,180.75,0.239583,Sixteenth,D4
592,Right,0,61,110,181.0,0.239583,Sixteenth,C#4
593,Right,0,59,110,181.25,0.239583,Sixteenth,B3
594,Right,0,57,110,181.5,0.239583,Sixteenth,A3
595,Right,0,55,110,181.75,0.239583,Sixteenth,G3
597,Left,1,38,110,182.0,0.989583,Quarter,D2
596,Right,0,54,110,182.0,0.239583,Sixteenth,F#3
598,Right,0,55,110,182.25,0.239583,Sixteenth,G3
599,Right,0,57,110,182.5,0.239583,Sixteenth,A3
600,Right,0,59,110,182.75,0.239583,Sixteenth,B3
601,Right,0,60,110,183.0,0.239583,Sixteenth,C4
602,Right,0,59,110,183.25,0.239583,Sixteenth,B3
603,Right,0,57,110,183.5,0.239583,Sixteenth,A3
604,Right,0,55,110,183.75,0.239583,Sixteenth,G3
605,Right,0,54,110,184.0,0.239583,Sixteenth,F#3
606,Right,0,55,110,184.25,0.239583,Sixteenth,G3
607,Right,0,54,110,184.5,0.239583,Sixteenth,F#3
608,Right,0,52,110,184.75,0.239583,Sixteenth,E3
609,Right,0,50,110,185.0,0.239583,Sixteenth,D3
610,Right,0,48,110,185.25,0.239583,Sixteenth,C3
611,Right,0,47,110,185.5,0.239583,Sixteenth,B2
612,Right,0,45,110,185.75,0.239583,Sixteenth,A2
613,Left,1,43,110,186.0,0.989583,Quarter,G2_G1
615,Right,0,47,110,186.333333,0.322917,Triplet,B2
616,Right,0,50,110,186.666667,0.322917,Triplet,D3
617,Right,0,55,110,187.0,0.322917,Triplet,G3
618,Right,0,50,110,187.333333,0.322917,Triplet,D3
619,Right,0,47,110,187.666667,0.322917,Triplet,B2
620,Right,0,59,110,188.0,0.322917,Triplet,B3
621,Right,0,50,110,188.333333,0.322917,Triplet,D3
622,Right,0,55,110,188.666667,0.322917,Triplet,G3
623,Right,0,59,110,189.0,0.322917,Triplet,B3
624,Right,0,55,110,189.333333,0.322917,Triplet,G3
625,Right,0,50,110,189.666667,0.322917,Triplet,D3
626,Right,0,62,110,190.0,0.322917,Triplet,D4
627,Right,0,55,110,190.333333,0.322917,Triplet,G3
628,Right,0,59,110,190.666667,0.322917,Triplet,B3
629,Right,0,62,110,191.0,0.322917,Triplet,D4
630,Right,0,59,110,191.333333,0.322917,Triplet,B3
631,Right,0,55,110,191.666667,0.322917,Triplet,G3
632,Right,0,67,110,192.0,0.322917,Triplet,G4
633,Right,0,62,110,192.333333,0.322917,Triplet,D4
634,Right,0,59,110,192.666667,0.322917,Triplet,B3
637,Right,0,66,110,193.0,0.322917,Triplet,F#4
635,Left,1,38,110,193.0,0.989583,Quarter,D3_D2
638,Right,0,60,110,193.333333,0.322917,Triplet,C4
639,Right,0,57,110,193.666667,0.322917,Triplet,A3
642,Right,0,67,110,194.0,0.322917,Triplet,G4
640,Left,1,43,110,194.0,0.989583,Quarter,G3_G2
643,Right,0,59,110,194.333333,0.322917,Triplet,B3
644,Right,0,62,110,194.666667,0.322917,Triplet,D4
645,Right,0,67,110,195.0,0.322917,Triplet,G4
646,Right,0,62,110,195.333333,0.322917,Triplet,D4
647,Right,0,59,110,195.666667,0.322917,Triplet,B3
648,Right,0,71,110,196.0,0.322917,Triplet,B4
649,Right,0,62,110,196.333333,0.322917,Triplet,D4
650,Right,0,67,110,196.666667,0.322917,Triplet,G4
651,Right,0,71,110,197.0,0.322917,Triplet,B4
652,Right,0,67,110,197.333333,0.322917,Triplet,G4
653,Right,0,62,110,197.666667,0.322917,Triplet,D4
654,Right,0,74,110,198.0,0.322917,Triplet,D5
655,Right,0,67,110,198.333333,0.322917,Triplet,G4
656,Right,0,71,110,198.666667,0.322917,Triplet,B4
657,Right,0,74,110,199.0,0.322917,Triplet,D5
658,Right,0,71,110,199.333333,0.322917,Triplet,B4
659,Right,0,67,110,199.666667,0.322917,Triplet,G4
660,Right,0,74,110,200.0,0.322917,Triplet,D5
661,Right,0,71,110,200.333333,0.322917,Triplet,B4
662,Right,0,68,110,200.666667,0.322917,Triplet,G#4
663,Left,1,40,110,201.0,0.989583,Quarter,E3_E2
664,Right,0,71,110,201.0,0.322917,Triplet,B4
666,Right,0,68,110,201.333333,0.322917,Triplet,G#4
667,Right,0,62,110,201.666667,0.322917,Triplet,D4
669,Right,0,69,110,202.0,0.322917,Triplet,A4
668,Left,1,45,110,202.0,0.989583,Quarter,A3_A2
671,Right,0,60,110,202.333333,0.322917,Triplet,C4
672,Right,0,64,110,202.666667,0.322917,Triplet,E4
673,Right,0,69,110,203.0,0.322917,Triplet,A4
674,Right,0,64,110,203.333333,0.322917,Triplet,E4
675,Right,0,60,110,203.666667,0.322917,Triplet,C4
676,Right,0,72,110,204.0,0.322917,Triplet,C5
677,Right,0,64,110,204.333333,0.322917,Triplet,E4
678,Right,0,69,110,204.666667,0.322917,Triplet,A4
679,Right,0,72,110,205.0,0.322917,Triplet,C5
680,Right,0,69,110,205.333333,0.322917,Triplet,A4
681,Right,0,64,110,205.666667,0.322917,Triplet,E4
682,Right,0,76,110,206.0,0.322917,Triplet,E5
683,Right,0,69,110,206.333333,0.322917,Triplet,A4
684,Right,0,72,110,206.666667,0.322917,Triplet,C5
685,Right,0,76,110,207.0,0.322917,Triplet,E5
686,Right,0,72,110,207.333333,0.322917,Triplet,C5
687,Right,0,69,110,207.666667,0.322917,Triplet,A4
688,Right,0,81,110,208.0,0.322917,Triplet,A5
689,Right,0,76,110,208.333333,0.322917,Triplet,E5
690,Right,0,72,110,208.666667,0.322917,Triplet,C5
691,Right,0,80,110,209.0,0.322917,Triplet,G#5
692,Left,1,52,110,209.0,0.989583,Quarter,E3_E2
694,Right,0,74,110,209.333333,0.322917,Triplet,D5
695,Right,0,71,110,209.666667,0.322917,Triplet,B4
698,Right,0,81,110,210.0,0.322917,Triplet,A5
696,Left,1,57,110,210.0,0.989583,Quarter,A3_A2
699,Right,0,72,110,210.333333,0.322917,Triplet,C5
700,Right,0,76,110,210.666667,0.322917,Triplet,E5
701,Right,0,81,110,211.0,0.322917,Triplet,A5
702,Right,0,76,110,211.333333,0.322917,Triplet,E5
703,Right,0,72,110,211.666667,0.322917,Triplet,C5
704,Right,0,84,110,212.0,0.322917,Triplet,C6
705,Right,0,76,110,212.333333,0.322917,Triplet,E5
706,Right,0,81,110,212.666667,0.322917,Triplet,A5
707,Right,0,84,110,213.0,0.322917,Triplet,C6
708,Right,0,81,110,213.333333,0.322917,Triplet,A5
709,Right,0,76,110,213.666667,0.322917,Triplet,E5
710,Right,0,88,110,214.0,0.322917,Triplet,E6
711,Right,0,81,110,214.333333,0.322917,Triplet,A5
712,Right,0,84,110,214.666667,0.322917,Triplet,C6
713,Right,0,88,110,215.0,0.322917,Triplet,E6
714,Right,0,84,110,215.333333,0.322917,Triplet,C6
715,Right,0,81,110,215.666667,0.322917,Triplet,A5
716,Right,0,88,110,216.0,0.322917,Triplet,E6
717,Right,0,85,110,216.333333,0.322917,Triplet,C#6
718,Right,0,82,110,216.666667,0.322917,Triplet,A#5
720,Right,0,85,80,217.0,0.322917,Triplet,C#6
719,Left,1,66,80,217.0,0.989583,Quarter,F#4_F#3
722,Right,0,82,80,217.333333,0.322917,Triplet,A#5
723,Right,0,76,80,217.666667,0.322917,Triplet,E5
725,Left,1,59,80,218.0,0.989583,Quarter,B4_B3
724,Right,0,83,80,218.0,0.322917,Triplet,B5
727,Right,0,78,80,218.333333,0.322917,Triplet,F#5
728,Right,0,74,80,218.666667,0.322917,Triplet,D5
729,Left,1,67,80,219.0,0.989583,Quarter,G4_G3
730,Right,0,83,80,219.0,0.322917,Triplet,B5
732,Right,0,79,80,219.333333,0.322917,Triplet,G5
733,Right,0,74,80,219.666667,0.322917,Triplet,D5
734,Left,1,64,80,220.0,0.989583,Quarter,E4_E3
735,Right,0,83,80,220.0,0.322917,Triplet,B5
737,Right,0,79,80,220.333333,0.322917,Triplet,G5
738,Right,0,73,80,220.666667,0.322917,Triplet,C#5
739,Right,0,82,80,221.0,0.322917,Triplet,A#5
740,Left,1,66,80,221.0,0.989583,Quarter,F#4_F#3
742,Right,0,78,80,221.333333,0.322917,Triplet,F#5
743,Right,0,73,80,221.666667,0.322917,Triplet,C#5
744,Right,0,83,80,222.0,0.322917,Triplet,B5
745,Left,1,47,80,222.0,0.989583,Quarter,B3_B2
747,Right,0,78,80,222.333333,0.322917,Triplet,F#5
748,Right,0,74,80,222.666667,0.322917,Triplet,D5
749,Right,0,78,80,223.0,0.322917,Triplet,F#5
750,Right,0,74,80,223.333333,0.322917,Triplet,D5
751,Right,0,71,80,223.666667,0.322917,Triplet,B4
752,Right,0,78,80,224.0,0.322917,Triplet,F#5
753,Right,0,74,80,224.333333,0.322917,Triplet,D5
754,Right,0,71,80,224.666667,0.322917,Triplet,B4
756,Right,0,78,80,225.0,0.322917,Triplet,F#5
755,Left,1,42,80,225.0,0.989583,Quarter,F#3_F#2
758,Right,0,73,80,225.333333,0.322917,Triplet,C#5
759,Right,0,70,80,225.666667,0.322917,Triplet,A#4
760,Left,1,59,80,226.0,0.989583,Quarter,B3_B2
762,Right,0,78,80,226.0,0.322917,Triplet,F#5
763,Right,0,74,80,226.333333,0.322917,Triplet,D5
764,Right,0,71,80,226.666667,0.322917,Triplet,B4
766,Left,1,43,80,227.0,0.989583,Quarter,G3_G2
765,Right,0,79,80,227.0,0.322917,Triplet,G5
768,Right,0,74,80,227.333333,0.322917,Triplet,D5
769,Right,0,71,80,227.666667,0.322917,Triplet,B4
771,Left,1,52,80,228.0,0.989583,Quarter,E3_E2
770,Right,0,79,80,228.0,0.322917,Triplet,G5
773,Right,0,73,80,228.333333,0.322917,Triplet,C#5
774,Right,0,71,80,228.666667,0.322917,Triplet,B4
776,Left,1,42,80,229.0,0.989583,Quarter,F#3_F#2
775,Right,0,78,80,229.0,0.322917,Triplet,F#5
778,Right,0,73,80,229.333333,0.322917,Triplet,C#5
779,Right,0,70,80,229.666667,0.322917,Triplet,A#4
780,Left,1,47,110,230.0,7.989583,Unknown,B2_B1
782,Right,0,78,110,231.0,0.322917,Triplet,F#5
783,Right,0,74,110,231.333333,0.322917,Triplet,D5
784,Right,0,71,110,231.666667,0.322917,Triplet,B4
785,Right,0,83,110,232.0,0.322917,Triplet,B5
786,Right,0,78,110,232.333333,0.322917,Triplet,F#5
787,Right,0,74,110,232.666667,0.322917,Triplet,D5
788,Right,0,71,110,233.0,0.322917,Triplet,B4
789,Right,0,66,110,233.333333,0.322917,Triplet,F#4
790,Right,0,62,110,233.666667,0.322917,Triplet,D4
791,Right,0,71,110,234.0,0.322917,Triplet,B4
792,Right,0,66,110,234.333333,0.322917,Triplet,F#4
793,Right,0,62,110,234.666667,0.322917,Triplet,D4
794,Right,0,59,110,235.0,0.322917,Triplet,B3
795,Right,0,54,110,235.333333,0.322917,Triplet,F#3
796,Right,0,50,110,235.666667,0.322917,Triplet,D3
797,Right,0,59,110,236.0,0.322917,Triplet,B3
798,Right,0,54,110,236.333333,0.322917,Triplet,F#3
799,Right,0,50,110,236.666667,0.322917,Triplet,D3
800,Right,0,47,110,237.0,0.322917,Triplet,B2
801,Right,0,50,110,237.333333,0.322917,Triplet,D3
802,Right,0,54,110,237.666667,0.322917,Triplet,F#3
803,Left,1,45,110,238.0,7.989583,Unknown,A2_A1
805,Right,0,78,110,239.0,0.322917,Triplet,F#5
806,Right,0,74,110,239.333333,0.322917,Triplet,D5
807,Right,0,72,110,239.666667,0.322917,Triplet,C5
808,Right,0,84,110,240.0,0.322917,Triplet,C6
809,Right,0,78,110,240.333333,0.322917,Triplet,F#5
810,Right,0,74,110,240.666667,0.322917,Triplet,D5
811,Right,0,72,110,241.0,0.322917,Triplet,C5
812,Right,0,66,110,241.333333,0.322917,Triplet,F#4
813,Right,0,62,110,241.666667,0.322917,Triplet,D4
814,Right,0,72,110,242.0,0.322917,Triplet,C5
815,Right,0,66,110,242.333333,0.322917,Triplet,F#4
816,Right,0,62,110,242.666667,0.322917,Triplet,D4
817,Right,0,60,110,243.0,0.322917,Triplet,C4
818,Right,0,54,110,243.333333,0.322917,Triplet,F#3
819,Right,0,50,110,243.666667,0.322917,Triplet,D3
820,Right,0,60,110,244.0,0.322917,Triplet,C4
821,Right,0,54,110,244.333333,0.322917,Triplet,F#3
822,Right,0,50,110,244.666667,0.322917,Triplet,D3
823,Right,0,48,110,245.0,0.322917,Triplet,C3
824,Right,0,50,110,245.333333,0.322917,Triplet,D3
825,Right,0,54,110,245.666667,0.322917,Triplet,F#3
826,Left,1,43,110,246.0,7.989583,Unknown,G2_G1
828,Right,0,79,110,247.0,0.322917,Triplet,G5
829,Right,0,74,110,247.333333,0.322917,Triplet,D5
830,Right,0,71,110,247.666667,0.322917,Triplet,B4
831,Right,0,83,110,248.0,0.322917,Triplet,B5
832,Right,0,79,110,248.333333,0.322917,Triplet,G5
833,Right,0,74,110,248.666667,0.322917,Triplet,D5
834,Right,0,71,110,249.0,0.322917,Triplet,B4
835,Right,0,67,110,249.333333,0.322917,Triplet,G4
836,Right,0,62,110,249.666667,0.322917,Triplet,D4
837,Right,0,71,110,250.0,0.322917,Triplet,B4
838,Right,0,67,110,250.333333,0.322917,Triplet,G4
839,Right,0,62,110,250.666667,0.322917,Triplet,D4
840,Right,0,59,110,251.0,0.322917,Triplet,B3
841,Right,0,55,110,251.333333,0.322917,Triplet,G3
842,Right,0,50,110,251.666667,0.322917,Triplet,D3
843,Right,0,59,110,252.0,0.322917,Triplet,B3
844,Right,0,55,110,252.333333,0.322917,Triplet,G3
845,Right,0,50,110,252.666667,0.322917,Triplet,D3
846,Right,0,47,110,253.0,0.322917,Triplet,B2
847,Right,0,50,110,253.333333,0.322917,Triplet,D3
848,Right,0,55,110,253.666667,0.322917,Triplet,G3
849,Left,1,30,110,254.0,7.989583,Unknown,F#2_F#1
851,Right,0,75,110,255.0,0.322917,Triplet,D#5
852,Right,0,71,110,255.333333,0.322917,Triplet,B4
853,Right,0,69,110,255.666667,0.322917,Triplet,A4
854,Right,0,81,110,256.0,0.322917,Triplet,A5
855,Right,0,75,110,256.333333,0.322917,Triplet,D#5
856,Right,0,71,110,256.666667,0.322917,Triplet,B4
857,Right,0,69,110,257.0,0.322917,Triplet,A4
858,Right,0,63,110,257.333333,0.322917,Triplet,D#4
859,Right,0,59,110,257.666667,0.322917,Triplet,B3
860,Right,0,69,110,258.0,0.322917,Triplet,A4
861,Right,0,63,110,258.333333,0.322917,Triplet,D#4
862,Right,0,59,110,258.666667,0.322917,Triplet,B3
863,Right,0,57,110,259.0,0.322917,Triplet,A3
864,Right,0,51,110,259.333333,0.322917,Triplet,D#3
865,Right,0,47,110,259.666667,0.322917,Triplet,B2
866,Right,0,57,110,260.0,0.322917,Triplet,A3
867,Right,0,51,110,260.333333,0.322917,Triplet,D#3
868,Right,0,47,110,260.666667,0.322917,Triplet,B2
869,Right,0,45,110,261.0,0.322917,Triplet,A2
870,Right,0,47,110,261.333333,0.322917,Triplet,B2
871,Right,0,51,110,261.666667,0.322917,Triplet,D#3
872,Left,1,28,80,262.0,0.989583,Quarter,E2_E1
874,Right,0,43,80,262.333333,0.322917,Triplet,G2
875,Right,0,47,80,262.666667,0.322917,Triplet,B2
876,Right,0,52,80,263.0,0.322917,Triplet,E3
877,Right,0,47,80,263.333333,0.322917,Triplet,B2
878,Right,0,43,80,263.666667,0.322917,Triplet,G2
879,Right,0,55,80,264.0,0.322917,Triplet,G3
880,Right,0,47,80,264.333333,0.322917,Triplet,B2
881,Right,0,52,80,264.666667,0.322917,Triplet,E3
882,Right,0,55,80,265.0,0.322917,Triplet,G3
883,Right,0,52,80,265.333333,0.322917,Triplet,E3
884,Right,0,47,80,265.666667,0.322917,Triplet,B2
885,Right,0,59,80,266.0,0.322917,Triplet,B3
886,Right,0,52,80,266.333333,0.322917,Triplet,E3
887,Right,0,55,80,266.666667,0.322917,Triplet,G3
888,Right,0,59,80,267.0,0.322917,Triplet,B3
889,Right,0,55,80,267.333333,0.322917,Triplet,G3
890,Right,0,52,80,267.666667,0.322917,Triplet,E3
891,Right,0,64,80,268.0,0.322917,Triplet,E4
892,Right,0,59,80,268.333333,0.322917,Triplet,B3
893,Right,0,55,80,268.666667,0.322917,Triplet,G3
896,Right,0,63,80,269.0,0.322917,Triplet,D#4
894,Left,1,47,80,269.0,0.989583,Quarter,B2_B1
897,Right,0,57,80,269.333333,0.322917,Triplet,A3
898,Right,0,54,80,269.666667,0.322917,Triplet,F#3
899,Left,1,40,80,270.0,0.989583,Quarter,E3_E2
901,Right,0,64,80,270.0,0.322917,Triplet,E4
902,Right,0,55,80,270.333333,0.322917,Triplet,G3
903,Right,0,59,80,270.666667,0.322917,Triplet,B3
904,Right,0,64,80,271.0,0.322917,Triplet,E4
905,Right,0,59,80,271.333333,0.322917,Triplet,B3
906,Right,0,55,80,271.666667,0.322917,Triplet,G3
907,Right,0,67,80,272.0,0.322917,Triplet,G4
908,Right,0,59,80,272.333333,0.322917,Triplet,B3
909,Right,0,64,80,272.666667,0.322917,Triplet,E4
910,Right,0,67,80,273.0,0.322917,Triplet,G4
911,Right,0,64,80,273.333333,0.322917,Triplet,E4
912,Right,0,59,80,273.666667,0.322917,Triplet,B3
913,Right,0,71,80,274.0,0.322917,Triplet,B4
914,Right,0,64,80,274.333333,0.322917,Triplet,E4
915,Right,0,67,80,274.666667,0.322917,Triplet,G4
916,Right,0,71,80,275.0,0.322917,Triplet,B4
917,Right,0,67,80,275.333333,0.322917,Triplet,G4
918,Right,0,64,80,275.666667,0.322917,Triplet,E4
919,Right,0,76,80,276.0,0.322917,Triplet,E5
920,Right,0,71,80,276.333333,0.322917,Triplet,B4
921,Right,0,67,80,276.666667,0.322917,Triplet,G4
922,Left,1,47,80,277.0,0.989583,Quarter,B3_B2
924,Right,0,75,80,277.0,0.322917,Triplet,D#5
925,Right,0,69,80,277.333333,0.322917,Triplet,A4
926,Right,0,66,80,277.666667,0.322917,Triplet,F#4
927,Left,1,48,80,278.0,0.989583,Quarter,C4_C3
929,Right,0,76,80,278.0,0.322917,Triplet,E5
930,Right,0,67,80,278.333333,0.322917,Triplet,G4
931,Right,0,64,80,278.666667,0.322917,Triplet,E4
932,Right,0,72,80,279.0,0.322917,Triplet,C5
933,Right,0,67,80,279.333333,0.322917,Triplet,G4
934,Right,0,64,80,279.666667,0.322917,Triplet,E4
935,Right,0,72,80,280.0,0.322917,Triplet,C5
936,Right,0,65,80,280.333333,0.322917,Triplet,F4
937,Right,0,62,80,280.666667,0.322917,Triplet,D4
939,Left,1,43,80,281.0,0.989583,Quarter,G3_G2
938,Right,0,71,80,281.0,0.322917,Triplet,B4
941,Right,0,65,80,281.333333,0.322917,Triplet,F4
942,Right,0,62,80,281.666667,0.322917,Triplet,D4
943,Right,0,72,80,282.0,0.322917,Triplet,C5
944,Left,1,45,80,282.0,0.989583,Quarter,A3_A2
946,Right,0,64,80,282.333333,0.322917,Triplet,E4
947,Right,0,60,80,282.666667,0.322917,Triplet,C4
948,Right,0,69,80,283.0,0.322917,Triplet,A4
949,Right,0,64,80,283.333333,0.322917,Triplet,E4
950,Right,0,60,80,283.666667,0.322917,Triplet,C4
951,Right,0,69,80,284.0,0.322917,Triplet,A4
952,Right,0,64,80,284.333333,0.322917,Triplet,E4
953,Right,0,60,80,284.666667,0.322917,Triplet,C4
954,Right,0,66,80,285.0,0.322917,Triplet,F#4
955,Left,1,45,80,285.0,0.989583,Quarter,A2_A1
957,Right,0,64,80,285.333333,0.322917,Triplet,E4
958,Right,0,60,80,285.666667,0.322917,Triplet,C4
959,Left,1,47,80,286.0,0.989583,Quarter,B2_B1
961,Right,0,59,80,286.333333,0.322917,Triplet,B3
962,Right,0,64,80,286.666667,0.322917,Triplet,E4
963,Right,0,67,80,287.0,0.322917,Triplet,G4
964,Right,0,64,80,287.333333,0.322917,Triplet,E4
965,Right,0,59,80,287.666667,0.322917,Triplet,B3
966,Left,1,35,80,288.0,0.989583,Quarter,B2_B1
968,Right,0,57,80,288.333333,0.322917,Triplet,A3
969,Right,0,63,80,288.666667,0.322917,Triplet,D#4
970,Right,0,66,80,289.0,0.322917,Triplet,F#4
971,Right,0,63,80,289.333333,0.322917,Triplet,D#4
972,Right,0,57,80,289.666667,0.322917,Triplet,A3
973,Left,1,48,80,290.0,0.989583,Quarter,C3_C2
975,Right,0,64,80,290.333333,0.322917,Triplet,E4
976,Right,0,67,80,290.666667,0.322917,Triplet,G4
977,Right,0,76,80,291.0,0.322917,Triplet,E5
978,Right,0,67,80,291.333333,0.322917,Triplet,G4
979,Right,0,64,80,291.666667,0.322917,Triplet,E4
980,Right,0,72,80,292.0,0.322917,Triplet,C5
981,Right,0,65,80,292.333333,0.322917,Triplet,F4
982,Right,0,62,80,292.666667,0.322917,Triplet,D4
985,Right,0,71,80,293.0,0.322917,Triplet,B4
983,Left,1,32,80,293.0,0.989583,Quarter,G#2_G#1
986,Right,0,65,80,293.333333,0.322917,Triplet,F4
987,Right,0,62,80,293.666667,0.322917,Triplet,D4
988,Left,1,33,80,294.0,0.989583,Quarter,A2_A1
990,Right,0,60,80,294.333333,0.322917,Triplet,C4
991,Right,0,64,80,294.666667,0.322917,Triplet,E4
992,Right,0,72,80,295.0,0.322917,Triplet,C5
993,Right,0,64,80,295.333333,0.322917,Triplet,E4
994,Right,0,60,80,295.666667,0.322917,Triplet,C4
995,Right,0,69,80,296.0,0.322917,Triplet,A4
996,Right,0,64,80,296.333333,0.322917,Triplet,E4
997,Right,0,60,80,296.666667,0.322917,Triplet,C4
998,Left,1,45,80,297.0,0.989583,Quarter,A2_A1
999,Right,0,66,80,297.0,0.322917,Triplet,F#4
1001,Right,0,64,80,297.333333,0.322917,Triplet,E4
1002,Right,0,60,80,297.666667,0.322917,Triplet,C4
1003,Left,1,46,80,298.0,0.989583,Quarter,A#2_A#1
1005,Right,0,61,80,298.333333,0.322917,Triplet,C#4
1006,Right,0,64,80,298.666667,0.322917,Triplet,E4
1007,Right,0,67,80,299.0,0.322917,Triplet,G4
1008,Right,0,64,80,299.333333,0.322917,Triplet,E4
1009,Right,0,61,80,299.666667,0.322917,Triplet,C#4
1010,Left,1,34,80,300.0,0.989583,Quarter,A#2_A#1
1012,Right,0,55,80,300.333333,0.322917,Triplet,G3
1013,Right,0,61,80,300.666667,0.322917,Triplet,C#4
1014,Right,0,64,80,301.0,0.322917,Triplet,E4
1015,Right,0,61,80,301.333333,0.322917,Triplet,C#4
1016,Right,0,55,80,301.666667,0.322917,Triplet,G3
1017,Left,1,35,80,302.0,3.989583,Whole,B2_B1
1019,Right,0,63,80,303.0,0.322917,Triplet,D#4
1020,Right,0,59,80,303.333333,0.322917,Triplet,B3
1021,Right,0,54,80,303.666667,0.322917,Triplet,F#3
1022,Right,0,66,80,304.0,0.322917,Triplet,F#4
1023,Right,0,63,80,304.333333,0.322917,Triplet,D#4
1024,Right,0,59,80,304.666667,0.322917,Triplet,B3
1025,Right,0,71,80,305.0,0.322917,Triplet,B4
1026,Right,0,66,80,305.333333,0.322917,Triplet,F#4
1027,Right,0,63,80,305.666667,0.322917,Triplet,D#4
1028,Left,1,35,80,306.0,3.989583,Whole,B2_B1
1030,Right,0,67,80,307.0,0.322917,Triplet,G4
1031,Right,0,64,80,307.333333,0.322917,Triplet,E4
1032,Right,0,59,80,307.666667,0.322917,Triplet,B3
1033,Right,0,64,80,308.0,0.322917,Triplet,E4
1034,Right,0,59,80,308.333333,0.322917,Triplet,B3
1035,Right,0,55,80,308.666667,0.322917,Triplet,G3
1036,Right,0,59,80,309.0,0.322917,Triplet,B3
1037,Right,0,55,80,309.333333,0.322917,Triplet,G3
1038,Right,0,52,80,309.666667,0.322917,Triplet,E3
1039,Left,1,35,80,310.0,3.989583,Whole,B2_B1
1041,Right,0,63,80,311.0,0.322917,Triplet,D#4
1042,Right,0,59,80,311.333333,0.322917,Triplet,B3
1043,Right,0,54,80,311.666667,0.322917,Triplet,F#3
1044,Right,0,66,80,312.0,0.322917,Triplet,F#4
1045,Right,0,63,80,312.333333,0.322917,Triplet,D#4
1046,Right,0,59,80,312.666667,0.322917,Triplet,B3
1047,Right,0,71,80,313.0,0.322917,Triplet,B4
1048,Right,0,66,80,313.333333,0.322917,Triplet,F#4
1049,Right,0,63,80,313.666667,0.322917,Triplet,D#4
1050,Left,1,35,80,314.0,3.989583,Whole,B2_B1
1052,Right,0,67,80,315.0,0.322917,Triplet,G4
1053,Right,0,64,80,315.333333,0.322917,Triplet,E4
1054,Right,0,59,80,315.666667,0.322917,Triplet,B3
1055,Right,0,64,80,316.0,0.322917,Triplet,E4
1056,Right,0,59,80,316.333333,0.322917,Triplet,B3
1057,Right,0,55,80,316.666667,0.322917,Triplet,G3
1058,Right,0,59,80,317.0,0.322917,Triplet,B3
1059,Right,0,55,80,317.333333,0.322917,Triplet,G3
1060,Right,0,52,80,317.666667,0.322917,Triplet,E3
1061,Left,1,35,80,318.0,17.989583,Unknown,B1
1062,Right,0,47,80,318.0,0.322917,Triplet,B2
1063,Right,0,48,80,318.333333,0.322917,Triplet,C3
1064,Right,0,49,81,318.666667,0.322917,Triplet,C#3
1065,Right,0,50,82,319.0,0.322917,Triplet,D3
1066,Right,0,51,83,319.333333,0.322917,Triplet,D#3
1067,Right,0,52,84,319.666667,0.322917,Triplet,E3
1068,Right,0,53,85,320.0,0.322917,Triplet,F3
1069,Right,0,54,86,320.333333,0.322917,Triplet,F#3
1070,Right,0,55,86,320.666667,0.322917,Triplet,G3
1071,Right,0,56,87,321.0,0.322917,Triplet,G#3
1072,Right,0,57,88,321.333333,0.322917,Triplet,A3
1073,Right,0,58,89,321.666667,0.322917,Triplet,A#3
1074,Right,0,59,90,322.0,0.322917,Triplet,B3
1075,Left,1,47,90,322.0,13.989583,Unknown,B2
1076,Right,0,60,91,322.333333,0.322917,Triplet,C4
1077,Right,0,61,92,322.666667,0.322917,Triplet,C#4
1078,Right,0,62,93,323.0,0.322917,Triplet,D4
1079,Right,0,63,93,323.333333,0.322917,Triplet,D#4
1080,Right,0,64,94,323.666667,0.322917,Triplet,E4
1081,Right,0,65,95,324.0,0.322917,Triplet,F4
1082,Right,0,66,96,324.333333,0.322917,Triplet,F#4
1083,Right,0,67,97,324.666667,0.322917,Triplet,G4
1084,Right,0,68,98,325.0,0.322917,Triplet,G#4
1085,Right,0,69,99,325.333333,0.322917,Triplet,A4
1086,Right,0,70,99,325.666667,0.322917,Triplet,A#4
1087,Right,0,71,100,326.0,0.322917,Triplet,B4
1088,Right,0,72,99,326.333333,0.322917,Triplet,C5
1089,Right,0,73,97,326.666667,0.322917,Triplet,C#5
1090,Right,0,74,95,327.0,0.322917,Triplet,D5
1091,Right,0,75,93,327.333333,0.322917,Triplet,D#5
1092,Right,0,76,91,327.666667,0.322917,Triplet,E5
1093,Right,0,77,90,328.0,0.322917,Triplet,F5
1094,Right,0,78,88,328.333333,0.322917,Triplet,F#5
1095,Right,0,79,86,328.666667,0.322917,Triplet,G5
1096,Right,0,80,84,329.0,0.322917,Triplet,G#5
1097,Right,0,81,82,329.333333,0.322917,Triplet,A5
1098,Right,0,82,81,329.666667,0.322917,Triplet,A#5
1099,Right,0,83,80,330.0,5.989583,Unknown,B5
1100,Left,1,56,80,336.0,0.322917,Triplet,G#3
1101,Right,0,71,80,336.0,0.989583,Quarter,B4
1102,Left,1,59,80,336.333333,0.322917,Triplet,B3
1103,Left,1,64,80,336.666667,0.322917,Triplet,E4
1104,Right,0,75,80,337.0,0.989583,Quarter,D#5_D#4
1106,Left,1,54,80,337.0,0.322917,Triplet,F#3
1107,Left,1,57,80,337.333333,0.322917,Triplet,A3
1108,Left,1,59,80,337.666667,0.322917,Triplet,B3
1109,Right,0,76,80,338.0,1.989583,Half,E5_E4
1111,Left,1,52,80,338.0,0.322917,Triplet,E3
1112,Left,1,56,80,338.333333,0.322917,Triplet,G#3
1113,Left,1,59,80,338.666667,0.322917,Triplet,B3
1114,Left,1,51,80,339.0,0.322917,Triplet,D#3
1115,Left,1,54,80,339.333333,0.322917,Triplet,F#3
1116,Left,1,59,80,339.666667,0.322917,Triplet,B3
1117,Right,0,64,80,340.0,0.989583,Quarter,E5_E4
1119,Left,1,49,80,340.0,0.322917,Triplet,C#3
1120,Left,1,52,80,340.333333,0.322917,Triplet,E3
1121,Left,1,57,80,340.666667,0.322917,Triplet,A3
1122,Left,1,47,80,341.0,0.322917,Triplet,B2
1123,Right,0,64,80,341.0,0.989583,Quarter,E5_E4
1125,Left,1,51,80,341.333333,0.322917,Triplet,D#3
1126,Left,1,56,80,341.666667,0.322917,Triplet,G#3
1128,Right,0,78,80,342.0,1.489583,DottedQuarter,F#5_F#4
1127,Left,1,45,80,342.0,0.322917,Triplet,A2
1130,Left,1,49,80,342.333333,0.322917,Triplet,C#3
1131,Left,1,54,80,342.666667,0.322917,Triplet,F#3
1132,Left,1,44,80,343.0,0.322917,Triplet,G#2
1133,Left,1,47,80,343.333333,0.322917,Triplet,B2
1134,Right,0,80,80,343.5,0.489583,Eighth,G#5_G#4
1136,Left,1,52,80,343.666667,0.322917,Triplet,E3
1139,Left,1,42,80,344.0,0.322917,Triplet,F#2
1137,Right,0,81,80,344.0,0.989583,Quarter,A5_A4
1140,Left,1,45,80,344.333333,0.322917,Triplet,A2
1141,Left,1,51,80,344.666667,0.322917,Triplet,D#3
1142,Right,0,69,80,345.0,0.989583,Quarter,A5_A4
1144,Left,1,40,80,345.0,0.322917,Triplet,E2
1145,Left,1,44,80,345.333333,0.322917,Triplet,G#2
1146,Left,1,49,80,345.666667,0.322917,Triplet,C#3
1149,Left,1,39,80,346.0,0.322917,Triplet,D#2
1147,Right,0,69,80,346.0,0.989583,Quarter,A5_A4
1150,Left,1,42,81,346.333333,0.322917,Triplet,F#2
1151,Left,1,47,82,346.666667,0.322917,Triplet,B2
1153,Left,1,40,83,347.0,0.322917,Triplet,E2
1152,Right,0,81,83,347.0,0.989583,Quarter,A5_A4
1155,Left,1,44,85,347.333333,0.322917,Triplet,G#2
1156,Left,1,49,86,347.666667,0.322917,Triplet,C#3
1159,Left,1,39,87,348.0,0.322917,Triplet,D#2
1157,Right,0,69,87,348.0,0.989583,Quarter,A5_A4
1160,Left,1,42,89,348.333333,0.322917,Triplet,F#2
1161,Left,1,47,90,348.666667,0.322917,Triplet,B2
1162,Right,0,69,91,349.0,0.989583,Quarter,A5_A4
1164,Left,1,37,91,349.0,0.322917,Triplet,C#2
1165,Left,1,40,93,349.333333,0.322917,Triplet,E2
1166,Left,1,47,94,349.666667,0.322917,Triplet,B2
1167,Right,0,69,95,350.0,1.989583,Half,A5_A4
1169,Left,1,35,95,350.0,1.989583,Half,D#2_B1
1171,Left,1,47,99,351.0,0.989583,Quarter,B2
1172,Right,0,81,80,352.0,0.239583,Sixteenth,A5
1173,Right,0,80,80,352.25,0.239583,Sixteenth,G#5
1174,Right,0,78,80,352.5,0.239583,Sixteenth,F#5
1175,Right,0,76,80,352.75,0.239583,Sixteenth,E5
1176,Right,0,75,80,353.0,0.239583,Sixteenth,D#5
1177,Right,0,73,80,353.25,0.239583,Sixteenth,C#5
1178,Right,0,71,80,353.5,0.239583,Sixteenth,B4
1179,Right,0,69,80,353.75,0.239583,Sixteenth,A4
1180,Left,1,52,80,354.0,1.989583,Half,E3
1181,Right,0,68,80,354.0,1.989583,Half,G#4
1182,Left,1,59,80,355.0,1.989583,Half,B3
1183,Right,0,71,80,355.0,1.989583,Half,B4
1185,Left,1,47,80,356.0,1.989583,Half,B2
1184,Right,0,63,80,356.0,1.989583,Half,D#4
1186,Left,1,57,80,357.0,0.989583,Quarter,A3
1187,Right,0,66,80,357.0,0.739583,DottedEighth,F#4
1188,Right,0,68,80,357.75,0.239583,Sixteenth,G#4
1189,Left,1,56,80,358.0,1.989583,Quarter,G#3_E3
1191,Right,0,64,80,358.0,0.989583,Quarter,E4
1192,Left,1,59,80,359.0,0.989583,Quarter,B3
1193,Right,0,69,80,360.0,0.239583,Sixteenth,A4
1194,Right,0,68,80,360.25,0.239583,Sixteenth,G#4
1195,Right,0,66,80,360.5,0.239583,Sixteenth,F#4
1196,Right,0,64,80,360.75,0.239583,Sixteenth,E4
1197,Right,0,63,80,361.0,0.239583,Sixteenth,D#4
1198,Right,0,61,80,361.25,0.239583,Sixteenth,C#4
1199,Right,0,59,80,361.5,0.239583,Sixteenth,B3
1200,Right,0,57,80,361.75,0.239583,Sixteenth,A3
1201,Left,1,40,80,362.0,1.989583,Half,E2
1202,Right,0,56,80,362.0,1.989583,Half,G#3
1203,Left,1,47,80,363.0,1.989583,Half,B2
1204,Right,0,59,80,363.0,1.989583,Half,B3
1206,Left,1,35,80,364.0,1.989583,Half,B1
1205,Right,0,51,80,364.0,1.989583,Half,D#3
1207,Right,0,54,80,365.0,0.739583,DottedEighth,F#3
1208,Left,1,45,80,365.0,0.989583,Quarter,A2
1209,Right,0,56,80,365.75,0.239583,Sixteenth,G#3
1212,Right,0,52,80,366.0,0.989583,Quarter,E3
1210,Left,1,44,80,366.0,0.989583,Quarter,G#2_E2
1213,Right,0,52,80,367.0,0.989583,Quarter,E3
1214,Left,1,62,80,368.0,0.239583,Sixteenth,D4
1215,Left,1,61,80,368.25,0.239583,Sixteenth,C#4
1216,Left,1,59,80,368.5,0.239583,Sixteenth,B3
1217,Left,1,57,80,368.75,0.239583,Sixteenth,A3
1218,Left,1,56,80,369.0,0.239583,Sixteenth,G#3
1219,Left,1,54,80,369.25,0.239583,Sixteenth,F#3
1220,Left,1,52,80,369.5,0.239583,Sixteenth,E3
1221,Left,1,50,80,369.75,0.239583,Sixteenth,D3
1222,Left,1,49,80,370.0,0.989583,Quarter,C#3
1223,Left,1,52,80,371.0,0.989583,Quarter,E3
1225,Left,1,44,80,372.0,0.989583,Quarter,G#2
1224,Right,0,86,80,372.0,0.239583,Sixteenth,D6
1226,Right,0,85,80,372.25,0.239583,Sixteenth,C#6
1227,Right,0,83,80,372.5,0.239583,Sixteenth,B5
1228,Right,0,81,80,372.75,0.239583,Sixteenth,A5
1229,Left,1,52,80,373.0,0.989583,Quarter,E3
1230,Right,0,80,80,373.0,0.239583,Sixteenth,G#5
1231,Right,0,78,80,373.25,0.239583,Sixteenth,F#5
1232,Right,0,76,80,373.5,0.239583,Sixteenth,E5
1233,Right,0,74,80,373.75,0.239583,Sixteenth,D5
1235,Right,0,73,80,374.0,0.989583,Quarter,C#5
1234,Left,1,45,80,374.0,1.989583,Half,A2
1236,Right,0,76,80,375.0,0.989583,Quarter,E5
1238,Right,0,68,80,376.0,0.989583,Quarter,G#4
1237,Left,1,50,80,376.0,0.239583,Sixteenth,D3
1239,Left,1,49,80,376.25,0.239583,Sixteenth,C#3
1240,Left,1,47,80,376.5,0.239583,Sixteenth,B2
1241,Left,1,45,80,376.75,0.239583,Sixteenth,A2
1243,Left,1,44,80,377.0,0.239583,Sixteenth,G#2
1242,Right,0,76,80,377.0,0.989583,Quarter,E5
1244,Left,1,42,80,377.25,0.239583,Sixteenth,F#2
1245,Left,1,40,80,377.5,0.239583,Sixteenth,E2
1246,Left,1,38,80,377.75,0.239583,Sixteenth,D2
1247,Left,1,37,80,378.0,0.989583,Quarter,C#2
1248,Right,0,69,80,378.0,1.989583,Half,A4
1249,Left,1,40,80,379.0,0.989583,Quarter,E2
1250,Right,0,62,80,380.0,0.239583,Sixteenth,D4
1251,Left,1,32,80,380.0,1.989583,Half,G#1
1252,Right,0,61,80,380.25,0.239583,Sixteenth,C#4
1253,Right,0,59,80,380.5,0.239583,Sixteenth,B3
1254,Right,0,57,80,380.75,0.239583,Sixteenth,A3
1255,Right,0,56,80,381.0,0.239583,Sixteenth,G#3
1256,Left,1,40,80,381.0,0.989583,Quarter,E2
1257,Right,0,54,80,381.25,0.239583,Sixteenth,F#3
1258,Right,0,52,80,381.5,0.239583,Sixteenth,E3
1259,Right,0,50,80,381.75,0.239583,Sixteenth,D3
1260,Right,0,49,80,382.0,0.239583,Sixteenth,C#3
1261,Left,1,33,80,382.0,1.989583,Half,A1
1262,Right,0,50,80,382.25,0.239583,Sixteenth,D3
1263,Right,0,52,80,382.5,0.239583,Sixteenth,E3
1264,Right,0,54,80,382.75,0.239583,Sixteenth,F#3
1265,Left,1,45,80,383.0,0.989583,Quarter,A2
1266,Right,0,56,80,383.0,0.239583,Sixteenth,G#3
1267,Right,0,57,80,383.25,0.239583,Sixteenth,A3
1268,Right,0,59,80,383.5,0.239583,Sixteenth,B3
1269,Right,0,61,80,383.75,0.239583,Sixteenth,C#4
1272,Right,0,62,80,384.0,1.989583,Half,D4
1270,Left,1,47,80,384.0,1.989583,Half,B2_B1
1273,Left,1,45,80,385.0,0.989583,Quarter,A2
1274,Left,1,49,80,386.0,1.989583,Half,C#3_C#2
1276,Right,0,64,80,386.0,0.239583,Sixteenth,E4
1277,Right,0,66,80,386.25,0.239583,Sixteenth,F#4
1278,Right,0,68,80,386.5,0.239583,Sixteenth,G#4
1279,Right,0,69,80,386.75,0.239583,Sixteenth,A4
1281,Right,0,71,80,387.0,0.239583,Sixteenth,B4
1280,Left,1,45,80,387.0,0.989583,Quarter,A2
1282,Right,0,73,80,387.25,0.239583,Sixteenth,C#5
1283,Right,0,74,80,387.5,0.239583,Sixteenth,D5
1284,Right,0,76,80,387.75,0.239583,Sixteenth,E5
1285,Right,0,78,80,388.0,1.989583,Half,F#5
1286,Left,1,38,80,388.0,1.989583,Half,D3_D2
1288,Left,1,45,80,389.0,0.989583,Quarter,A2
1290,Left,1,40,80,390.0,0.989583,Quarter,E3_E2
1289,Right,0,80,80,390.0,0.239583,Sixteenth,G#5
1292,Right,0,81,80,390.125,0.239583,Sixteenth,A5
1293,Right,0,80,80,390.25,0.239583,Sixteenth,G#5
1294,Right,0,81,80,390.375,0.239583,Sixteenth,A5
1295,Right,0,78,80,390.5,0.239583,Sixteenth,F#5
1296,Right,0,80,80,390.75,0.239583,Sixteenth,G#5
1299,Right,0,81,80,391.0,0.989583,Quarter,A5
1297,Left,1,42,80,391.0,0.989583,Quarter,F#3_F#2
1301,Left,1,50,80,392.0,0.989583,Quarter,D3_D2
1300,Right,0,71,80,392.0,0.239583,Sixteenth,B4
1303,Right,0,73,80,392.125,0.239583,Sixteenth,C#5
1304,Right,0,71,80,392.25,0.239583,Sixteenth,B4
1305,Right,0,73,80,392.375,0.239583,Sixteenth,C#5
1306,Right,0,70,80,392.5,0.239583,Sixteenth,A#4
1307,Right,0,71,80,392.75,0.239583,Sixteenth,B4
1310,Right,0,76,80,393.0,0.989583,Quarter,E5
1308,Left,1,40,80,393.0,0.989583,Quarter,E3_E2
1313,Right,0,69,80,394.0,0.989583,Quarter,A4
1311,Left,1,33,80,394.0,0.989583,Quarter,A2_A1
1314,Right,0,81,80,396.0,1.989583,Half,A5
1315,Right,0,69,80,398.0,1.989583,Half,A4
1316,Right,0,65,80,400.0,1.989583,Half,F4
1317,Right,0,66,80,402.0,3.989583,Whole,F#4
1318,Right,0,71,80,404.0,1.989583,Half,D4_B4
1320,Left,1,50,80,405.0,0.989583,Quarter,D3
1321,Right,0,69,80,406.0,1.989583,Half,E4_C#4_A4
1324,Left,1,52,80,407.0,0.989583,Quarter,E3
1325,Right,0,59,80,408.0,1.989583,Half,D4_B3_A4
1328,Right,0,68,80,408.5,0.489583,Eighth,G#4
1329,Right,0,66,80,409.0,0.489583,Eighth,F#4
1330,Left,1,40,80,409.0,0.989583,Quarter,E2
1331,Right,0,68,80,409.5,0.489583,Eighth,G#4
1332,Left,1,45,80,410.0,0.989583,Quarter,A2
1333,Right,0,69,80,410.0,0.989583,Quarter,C#4_A4_A3
1336,Left,1,57,80,411.0,0.989583,Quarter,A3
1337,Right,0,81,80,412.0,0.989583,Quarter,A5
1338,Right,0,81,80,413.0,0.989583,Quarter,A5
1339,Right,0,69,80,414.0,0.989583,Quarter,A4
1340,Right,0,69,80,415.0,0.989583,Quarter,A4
1341,Right,0,64,80,416.0,0.989583,Quarter,E4
1342,Right,0,64,80,417.0,0.989583,Quarter,E4
1343,Right,0,65,80,418.0,5.989583,Unknown,F4
1344,Right,0,70,80,420.0,1.989583,Half,D4_A#4
1346,Left,1,53,80,421.0,0.989583,Quarter,F3_F2
1348,Right,0,60,80,422.0,1.989583,Half,C4_A4
1350,Left,1,41,80,423.0,0.989583,Quarter,F3_F2
1352,Right,0,69,80,424.0,1.989583,Half,E4_A4_A#3
1355,Right,0,67,80,424.5,0.489583,Eighth,G4
1357,Left,1,41,80,425.0,0.989583,Quarter,F3_F2
1356,Right,0,65,80,425.0,0.489583,Eighth,F4
1359,Right,0,67,80,425.5,0.489583,Eighth,G4
1360,Right,0,60,80,426.0,1.989583,Half,F4_C4_A3
1363,Left,1,41,80,427.0,0.989583,Quarter,F3_F2
1365,Right,0,60,80,428.0,1.989583,Half,E4_C4_A3
1368,Left,1,53,80,429.0,0.989583,Quarter,F3_F2
1370,Right,0,57,80,430.0,1.989583,Half,D#4_C4_A3
1373,Left,1,42,80,431.0,0.989583,Quarter,F#3_F#2
1375,Right,0,57,80,432.0,7.989583,Unknown,D#4_B3_A3
1378,Left,1,54,80,433.0,0.989583,Quarter,F#3_F#2
1380,Left,1,56,80,440.0,0.322917,Triplet,G#3
1381,Left,1,59,80,440.333333,0.322917,Triplet,B3
1382,Right,0,71,80,440.5,0.989583,Quarter,B4
1383,Left,1,64,80,440.666667,0.322917,Triplet,E4
1384,Left,1,54,81,441.0,0.322917,Triplet,F#3
1385,Left,1,57,81,441.333333,0.322917,Triplet,A3
1386,Right,0,75,82,441.5,0.989583,Quarter,D#5_D#4
1388,Left,1,59,82,441.666667,0.322917,Triplet,B3
1389,Left,1,52,83,442.0,0.322917,Triplet,E3
1390,Left,1,56,84,442.333333,0.322917,Triplet,G#3
1391,Right,0,76,84,442.5,0.989583,Quarter,E5_E4
1393,Left,1,59,84,442.666667,0.322917,Triplet,B3
1394,Left,1,51,85,443.0,0.322917,Triplet,D#3
1395,Left,1,54,86,443.333333,0.322917,Triplet,F#3
1396,Right,0,64,86,443.5,0.989583,Quarter,E5_E4
1398,Left,1,59,87,443.666667,0.322917,Triplet,B3
1399,Left,1,49,88,444.0,0.322917,Triplet,C#3
1400,Left,1,52,88,444.333333,0.322917,Triplet,E3
1401,Right,0,64,89,444.5,0.989583,Quarter,E5_E4
1403,Left,1,57,89,444.666667,0.322917,Triplet,A3
1404,Left,1,47,90,445.0,0.322917,Triplet,B2
1405,Left,1,51,91,445.333333,0.322917,Triplet,D#3
1406,Right,0,64,91,445.5,0.989583,Quarter,E5_E4
1408,Left,1,56,91,445.666667,0.322917,Triplet,G#3
1409,Left,1,45,92,446.0,0.322917,Triplet,A2
1410,Left,1,49,93,446.333333,0.322917,Triplet,C#3
1411,Right,0,78,93,446.5,0.989583,Quarter,F#5_F#4
1413,Left,1,54,94,446.666667,0.322917,Triplet,F#3
1414,Left,1,44,94,447.0,0.322917,Triplet,G#2
1415,Left,1,47,95,447.333333,0.322917,Triplet,B2
1416,Right,0,68,96,447.5,0.989583,Quarter,G#5_G#4
1418,Left,1,52,96,447.666667,0.322917,Triplet,E3
1419,Left,1,42,97,448.0,0.322917,Triplet,F#2
1420,Left,1,45,98,448.333333,0.322917,Triplet,A2
1421,Right,0,81,98,448.5,0.989583,Quarter,A5_A4
1423,Left,1,51,98,448.666667,0.322917,Triplet,D#3
1424,Left,1,40,99,449.0,0.322917,Triplet,E2
1425,Left,1,44,100,449.333333,0.322917,Triplet,G#2
1426,Right,0,69,100,449.5,0.989583,Quarter,A5_A4
1428,Left,1,49,101,449.666667,0.322917,Triplet,C#3
1429,Left,1,39,101,450.0,0.322917,Triplet,D#2
1430,Left,1,42,102,450.333333,0.322917,Triplet,F#2
1431,Right,0,69,103,450.5,0.989583,Quarter,A5_A4
1433,Left,1,47,103,450.666667,0.322917,Triplet,B2
1434,Left,1,40,104,451.0,0.322917,Triplet,E2
1435,Left,1,44,104,451.333333,0.322917,Triplet,G#2
1436,Right,0,81,105,451.5,0.989583,Quarter,A5_A4
1438,Left,1,49,105,451.666667,0.322917,Triplet,C#3
1439,Left,1,39,106,452.0,0.322917,Triplet,D#2
1440,Left,1,42,107,452.333333,0.322917,Triplet,F#2
1441,Right,0,81,107,452.5,0.989583,Quarter,A5_A4
1443,Left,1,47,108,452.666667,0.322917,Triplet,B2
1444,Left,1,37,108,453.0,0.322917,Triplet,C#2
1445,Left,1,40,109,453.333333,0.322917,Triplet,E2
1446,Right,0,81,109,453.5,0.489583,Eighth,A5_A4
1448,Left,1,47,80,453.666667,0.322917,Triplet,B2
1449,Right,0,81,120,454.0,1.989583,Half,A5_A4
1451,Left,1,39,120,454.0,1.989583,Quarter,D#2_B1
1453,Left,1,47,120,455.0,0.989583,Quarter,B2
1454,Right,0,81,120,456.0,0.989583,Quarter,A5_A4
1456,Left,1,35,120,456.5,0.989583,Quarter,B2_B1
1458,Right,0,69,120,457.0,0.989583,Quarter,A5_A4
1460,Left,1,39,120,457.5,0.989583,Quarter,D#3_D#2
1462,Right,0,68,120,458.0,0.989583,Quarter,G#5_G#4
1464,Left,1,40,120,458.5,0.989583,Quarter,E3_E2
1466,Right,0,78,120,459.0,0.989583,Quarter,F#5_F#4
1468,Left,1,40,120,459.5,0.989583,Quarter,E3_E2
1470,Right,0,76,120,460.0,0.989583,Quarter,E5_E4
1472,Left,1,40,120,460.5,0.989583,Quarter,E3_E2
1474,Right,0,75,120,461.0,0.989583,Quarter,D#5_D#4
1476,Left,1,52,120,461.5,0.989583,Quarter,E3_E2
1478,Right,0,61,120,462.0,0.989583,Quarter,C#5_C#4
1480,Left,1,52,120,462.5,0.989583,Quarter,E3_E2
1482,Right,0,60,120,463.0,0.989583,Quarter,C5_C4
1484,Left,1,52,120,463.5,0.989583,Quarter,E3_E2
1486,Right,0,61,120,464.0,0.989583,Quarter,C#5_C#4
1488,Left,1,52,120,464.5,0.989583,Quarter,E3_E2
1490,Right,0,59,120,465.0,0.989583,Quarter,B4_B3
1492,Left,1,41,120,465.5,0.989583,Quarter,F3_F2
1494,Right,0,69,120,466.0,0.989583,Quarter,A4_A3
1496,Left,1,42,120,466.5,0.989583,Quarter,F#3_F#2
1498,Right,0,56,120,467.0,0.989583,Quarter,G#4_G#3
1500,Left,1,56,120,467.5,0.989583,Quarter,G#3_G#2
1502,Right,0,66,120,468.0,0.989583,Quarter,F#4
1503,Left,1,45,120,468.5,0.989583,Quarter,A3_A2
1505,Right,0,64,120,469.0,0.989583,Quarter,E4
1506,Left,1,57,120,469.5,0.989583,Quarter,A3_A2
1508,Right,0,63,120,470.0,0.989583,Quarter,D#4
1509,Left,1,57,120,470.5,0.989583,Quarter,A3_A2
1511,Right,0,66,120,471.0,0.989583,Quarter,F#4
1512,Left,1,57,120,471.5,0.989583,Quarter,A3_A2
1514,Right,0,69,120,472.0,0.989583,Quarter,A4
1515,Left,1,45,120,472.5,0.989583,Quarter,A3_A2
1517,Right,0,72,120,473.0,0.989583,Quarter,C5
1518,Left,1,57,120,473.5,0.489583,Eighth,A3_A2
1520,Left,1,45,120,474.0,1.989583,Half,A3_A2
1522,Right,0,63,120,474.0,0.239583,Sixteenth,D#4
1523,Right,0,66,120,474.25,0.239583,Sixteenth,F#4
1524,Right,0,72,120,474.5,0.239583,Sixteenth,C5
1525,Right,0,75,120,474.75,0.239583,Sixteenth,D#5
1526,Right,0,63,120,475.0,0.239583,Sixteenth,D#4
1527,Right,0,66,120,475.25,0.239583,Sixteenth,F#4
1528,Right,0,72,120,475.5,0.239583,Sixteenth,C5
1529,Right,0,75,120,475.75,0.239583,Sixteenth,D#5
1531,Right,0,63,120,476.0,0.239583,Sixteenth,D#4
1530,Left,1,48,120,476.0,0.989583,Quarter,C3_C2
1533,Right,0,66,120,476.25,0.239583,Sixteenth,F#4
1534,Right,0,69,120,476.5,0.239583,Sixteenth,A4
1535,Right,0,75,120,476.75,0.239583,Sixteenth,D#5
1536,Right,0,63,120,477.0,0.239583,Sixteenth,D#4
1537,Left,1,36,120,477.0,0.989583,Quarter,C3_C2
1539,Right,0,66,120,477.25,0.239583,Sixteenth,F#4
1540,Right,0,69,120,477.5,0.239583,Sixteenth,A4
1541,Right,0,75,120,477.75,0.239583,Sixteenth,D#5
1543,Right,0,63,120,478.0,0.239583,Sixteenth,D#4
1542,Left,1,36,120,478.0,1.989583,Half,C3_C2
1545,Right,0,66,120,478.25,0.239583,Sixteenth,F#4
1546,Right,0,69,120,478.5,0.239583,Sixteenth,A4
1547,Right,0,75,120,478.75,0.239583,Sixteenth,D#5
1548,Right,0,63,120,479.0,0.239583,Sixteenth,D#4
1549,Right,0,66,120,479.25,0.239583,Sixteenth,F#4
1550,Right,0,69,120,479.5,0.239583,Sixteenth,A4
1551,Right,0,75,120,479.75,0.239583,Sixteenth,D#5
1553,Left,1,51,120,480.0,0.989583,Quarter,D#3_D#2
1552,Right,0,60,120,480.0,0.239583,Sixteenth,C4
1555,Right,0,66,120,480.25,0.239583,Sixteenth,F#4
1556,Right,0,69,120,480.5,0.239583,Sixteenth,A4
1557,Right,0,72,120,480.75,0.239583,Sixteenth,C5
1559,Right,0,60,120,481.0,0.239583,Sixteenth,C4
1558,Left,1,51,120,481.0,0.989583,Quarter,D#3_D#2
1561,Right,0,66,120,481.25,0.239583,Sixteenth,F#4
1562,Right,0,69,120,481.5,0.239583,Sixteenth,A4
1563,Right,0,72,120,481.75,0.239583,Sixteenth,C5
1564,Left,1,39,120,482.0,1.989583,Half,D#3_D#2
1566,Right,0,60,120,482.0,0.239583,Sixteenth,C4
1567,Right,0,66,120,482.25,0.239583,Sixteenth,F#4
1568,Right,0,69,119,482.5,0.239583,Sixteenth,A4
1569,Right,0,72,118,482.75,0.239583,Sixteenth,C5
1570,Right,0,60,117,483.0,0.239583,Sixteenth,C4
1571,Right,0,66,116,483.25,0.239583,Sixteenth,F#4
1572,Right,0,69,115,483.5,0.239583,Sixteenth,A4
1573,Right,0,72,114,483.75,0.239583,Sixteenth,C5
1575,Left,1,42,113,484.0,0.989583,Quarter,F#3_F#2
1574,Right,0,59,113,484.0,0.239583,Sixteenth,B3
1577,Right,0,63,112,484.25,0.239583,Sixteenth,D#4
1578,Right,0,69,111,484.5,0.239583,Sixteenth,A4
1579,Right,0,71,110,484.75,0.239583,Sixteenth,B4
1580,Left,1,54,109,485.0,0.989583,Quarter,F#3_F#2
1581,Right,0,59,109,485.0,0.239583,Sixteenth,B3
1583,Right,0,63,108,485.25,0.239583,Sixteenth,D#4
1584,Right,0,69,107,485.5,0.239583,Sixteenth,A4
1585,Right,0,71,106,485.75,0.239583,Sixteenth,B4
1586,Left,1,42,105,486.0,0.989583,Quarter,F#3_F#2
1587,Right,0,59,105,486.0,0.239583,Sixteenth,B3
1589,Right,0,63,104,486.25,0.239583,Sixteenth,D#4
1590,Right,0,69,103,486.5,0.239583,Sixteenth,A4
1591,Right,0,71,102,486.75,0.239583,Sixteenth,B4
1592,Right,0,59,101,487.0,0.239583,Sixteenth,B3
1593,Left,1,54,101,487.0,0.989583,Quarter,F#3_F#2
1595,Right,0,63,100,487.25,0.239583,Sixteenth,D#4
1596,Right,0,69,99,487.5,0.239583,Sixteenth,A4
1597,Right,0,71,98,487.75,0.239583,Sixteenth,B4
1598,Right,0,59,97,488.0,0.239583,Sixteenth,B3
1599,Left,1,54,97,488.0,0.989583,Quarter,F#3_F#2
1601,Right,0,63,96,488.25,0.239583,Sixteenth,D#4
1602,Right,0,69,95,488.5,0.239583,Sixteenth,A4
1603,Right,0,71,94,488.75,0.239583,Sixteenth,B4
1604,Left,1,42,93,489.0,0.989583,Quarter,F#3_F#2
1605,Right,0,59,93,489.0,0.239583,Sixteenth,B3
1607,Right,0,63,92,489.25,0.239583,Sixteenth,D#4
1608,Right,0,69,92,489.5,0.239583,Sixteenth,A4
1609,Right,0,71,91,489.75,0.239583,Sixteenth,B4
1610,Right,0,69,80,490.0,5.989583,Unknown,D#4_B4_B3_A4
1614,Left,1,42,80,490.0,5.989583,Unknown,F#3_F#2
1617,Right,0,71,80,496.0,0.489583,Eighth,B4
1616,Left,1,56,80,496.0,0.322917,Triplet,G#3
1618,Left,1,59,80,496.333333,0.322917,Triplet,B3
1619,Right,0,73,80,496.5,0.489583,Eighth,C#5
1620,Left,1,64,80,496.666667,0.322917,Triplet,E4
1621,Left,1,54,80,497.0,0.322917,Triplet,F#3
1622,Right,0,74,80,497.0,0.489583,Eighth,D5
1623,Left,1,57,80,497.333333,0.322917,Triplet,A3
1624,Right,0,75,80,497.5,0.489583,Eighth,D#5
1625,Left,1,59,80,497.666667,0.322917,Triplet,B3
1627,Right,0,76,80,498.0,0.989583,Quarter,E5
1626,Left,1,52,80,498.0,0.322917,Triplet,E3
1628,Left,1,56,80,498.333333,0.322917,Triplet,G#3
1629,Left,1,59,80,498.666667,0.322917,Triplet,B3
1630,Left,1,51,80,499.0,0.322917,Triplet,D#3
1631,Left,1,54,80,499.333333,0.322917,Triplet,F#3
1632,Left,1,59,80,499.666667,0.322917,Triplet,B3
1633,Left,1,49,80,500.0,0.322917,Triplet,C#3
1634,Right,0,64,80,500.0,0.489583,Eighth,E4
1635,Left,1,52,80,500.333333,0.322917,Triplet,E3
1636,Right,0,66,80,500.5,0.489583,Eighth,F#4
1637,Left,1,57,80,500.666667,0.322917,Triplet,A3
1639,Right,0,67,80,501.0,0.489583,Eighth,G4
1638,Left,1,47,80,501.0,0.322917,Triplet,B2
1640,Left,1,51,80,501.333333,0.322917,Triplet,D#3
1641,Right,0,68,80,501.5,0.489583,Eighth,G#4
1642,Left,1,56,80,501.666667,0.322917,Triplet,G#3
1644,Left,1,45,80,502.0,0.322917,Triplet,A2
1643,Right,0,69,80,502.0,0.989583,Quarter,A4
1645,Left,1,49,80,502.333333,0.322917,Triplet,C#3
1646,Left,1,54,80,502.666667,0.322917,Triplet,F#3
1647,Left,1,44,80,503.0,0.322917,Triplet,G#2
1648,Left,1,47,80,503.333333,0.322917,Triplet,B2
1649,Left,1,52,80,503.666667,0.322917,Triplet,E3
1650,Left,1,42,80,504.0,0.322917,Triplet,F#2
1651,Right,0,76,80,504.0,0.489583,Eighth,E5
1652,Left,1,45,80,504.333333,0.322917,Triplet,A2
1653,Right,0,78,80,504.5,0.489583,Eighth,F#5
1654,Left,1,51,80,504.666667,0.322917,Triplet,D#3
1656,Right,0,79,80,505.0,0.489583,Eighth,G5
1655,Left,1,40,80,505.0,0.322917,Triplet,E2
1657,Left,1,44,80,505.333333,0.322917,Triplet,G#2
1658,Right,0,80,80,505.5,0.489583,Eighth,G#5
1659,Left,1,49,80,505.666667,0.322917,Triplet,C#3
1660,Right,0,81,80,506.0,0.989583,Quarter,A5
1661,Left,1,39,80,506.0,0.322917,Triplet,D#2
1662,Left,1,42,80,506.333333,0.322917,Triplet,F#2
1663,Left,1,47,80,506.666667,0.322917,Triplet,B2
1664,Left,1,40,80,507.0,0.322917,Triplet,E2
1665,Left,1,44,80,507.333333,0.322917,Triplet,G#2
1666,Left,1,49,80,507.666667,0.322917,Triplet,C#3
1667,Right,0,81,80,508.0,0.489583,Eighth,A5
1668,Left,1,39,80,508.0,0.322917,Triplet,D#2
1669,Left,1,42,80,508.333333,0.322917,Triplet,F#2
1670,Right,0,80,80,508.5,0.489583,Eighth,G#5
1671,Left,1,47,80,508.666667,0.322917,Triplet,B2
1672,Right,0,81,80,509.0,0.489583,Eighth,A5
1673,Left,1,37,80,509.0,0.322917,Triplet,C#2
1674,Left,1,40,80,509.333333,0.322917,Triplet,E2
1675,Right,0,80,80,509.5,0.489583,Eighth,G#5
1676,Left,1,47,80,509.666667,0.322917,Triplet,B2
1678,Left,1,35,80,510.0,0.989583,Quarter,D#2_B1
1677,Right,0,81,80,510.0,0.989583,Quarter,A5
1680,Left,1,47,80,511.0,0.989583,Quarter,B2
1681,Right,0,81,80,512.0,0.239583,Sixteenth,A5
1682,Right,0,80,80,512.25,0.239583,Sixteenth,G#5
1683,Right,0,78,80,512.5,0.239583,Sixteenth,F#5
1684,Right,0,76,80,512.75,0.239583,Sixteenth,E5
1685,Right,0,75,80,513.0,0.239583,Sixteenth,D#5
1686,Right,0,73,80,513.25,0.239583,Sixteenth,C#5
1687,Right,0,71,80,513.5,0.239583,Sixteenth,B4
1688,Right,0,69,80,513.75,0.239583,Sixteenth,A4
1689,Right,0,68,80,514.0,0.989583,Quarter,G#4
1690,Right,0,71,80,515.0,0.989583,Quarter,B4
1692,Left,1,57,80,516.0,0.239583,Sixteenth,A3
1691,Right,0,63,80,516.0,0.989583,Quarter,D#4
1693,Left,1,56,80,516.25,0.239583,Sixteenth,G#3
1694,Left,1,54,80,516.5,0.239583,Sixteenth,F#3
1695,Left,1,52,80,516.75,0.239583,Sixteenth,E3
1696,Right,0,71,80,517.0,0.989583,Quarter,B4
1697,Left,1,51,80,517.0,0.239583,Sixteenth,D#3
1698,Left,1,49,80,517.25,0.239583,Sixteenth,C#3
1699,Left,1,47,80,517.5,0.239583,Sixteenth,B2
1700,Left,1,45,80,517.75,0.239583,Sixteenth,A2
1702,Right,0,64,80,518.0,1.989583,Half,E4
1701,Left,1,44,80,518.0,0.989583,Quarter,G#2
1703,Left,1,47,80,519.0,0.989583,Quarter,B2
1705,Right,0,69,80,520.0,0.239583,Sixteenth,A4
1704,Left,1,39,80,520.0,0.989583,Quarter,D#2
1706,Right,0,68,80,520.25,0.239583,Sixteenth,G#4
1707,Right,0,66,80,520.5,0.239583,Sixteenth,F#4
1708,Right,0,64,80,520.75,0.239583,Sixteenth,E4
1709,Right,0,63,80,521.0,0.239583,Sixteenth,D#4
1710,Left,1,47,80,521.0,0.989583,Quarter,B2
1711,Right,0,61,80,521.25,0.239583,Sixteenth,C#4
1712,Right,0,59,80,521.5,0.239583,Sixteenth,B3
1713,Right,0,57,80,521.75,0.239583,Sixteenth,A3
1714,Right,0,56,80,522.0,0.239583,Sixteenth,G#3
1715,Left,1,40,80,522.0,1.989583,Half,E2
1716,Right,0,57,81,522.25,0.239583,Sixteenth,A3
1717,Right,0,59,82,522.5,0.239583,Sixteenth,B3
1718,Right,0,61,83,522.75,0.239583,Sixteenth,C#4
1719,Left,1,52,84,523.0,0.989583,Quarter,E3
1720,Right,0,63,84,523.0,0.239583,Sixteenth,D#4
1721,Right,0,64,85,523.25,0.239583,Sixteenth,E4
1722,Right,0,66,86,523.5,0.239583,Sixteenth,F#4
1723,Right,0,68,87,523.75,0.239583,Sixteenth,G#4
1726,Right,0,69,88,524.0,1.989583,Half,A4
1724,Left,1,54,88,524.0,1.989583,Half,F#3_F#2
1727,Left,1,52,92,525.0,0.989583,Quarter,E3
1729,Left,1,44,97,526.0,1.989583,Half,G#3_G#2
1728,Right,0,71,97,526.0,0.239583,Sixteenth,B4
1731,Right,0,73,98,526.25,0.239583,Sixteenth,C#5
1732,Right,0,75,99,526.5,0.239583,Sixteenth,D#5
1733,Right,0,76,100,526.75,0.239583,Sixteenth,E5
1735,Left,1,52,101,527.0,0.989583,Quarter,E3
1734,Right,0,78,101,527.0,0.239583,Sixteenth,F#5
1736,Right,0,80,102,527.25,0.239583,Sixteenth,G#5
1737,Right,0,81,103,527.5,0.239583,Sixteenth,A5
1738,Right,0,83,104,527.75,0.239583,Sixteenth,B5
1741,Right,0,85,105,528.0,1.989583,Half,C#6
1739,Left,1,45,105,528.0,1.989583,Half,A3_A2
1742,Left,1,52,109,529.0,0.989583,Quarter,E3
1743,Right,0,82,110,530.0,0.239583,Sixteenth,A#5
1744,Left,1,61,110,530.0,1.989583,Half,C#4_C#3
1746,Right,0,83,110,530.125,0.239583,Sixteenth,B5
1747,Right,0,82,110,530.25,0.239583,Sixteenth,A#5
1748,Right,0,83,110,530.375,0.239583,Sixteenth,B5
1749,Right,0,82,110,530.5,0.239583,Sixteenth,A#5
1750,Right,0,83,110,530.625,0.239583,Sixteenth,B5
1751,Right,0,82,110,530.75,0.239583,Sixteenth,A#5
1752,Right,0,83,110,530.875,0.239583,Sixteenth,B5
1753,Right,0,82,110,531.0,0.239583,Sixteenth,A#5
1754,Left,1,52,110,531.0,0.989583,Quarter,E3
1755,Right,0,83,110,531.125,0.239583,Sixteenth,B5
1756,Right,0,82,110,531.25,0.239583,Sixteenth,A#5
1757,Right,0,83,110,531.375,0.239583,Sixteenth,B5
1758,Right,0,81,110,531.5,0.239583,Sixteenth,A5
1759,Right,0,82,110,531.75,0.239583,Sixteenth,A#5
1760,Left,1,47,110,532.0,0.989583,Quarter,B3_B2
1762,Right,0,83,110,532.0,0.989583,Quarter,B5
1763,Left,1,59,110,533.0,0.989583,Quarter,B3_B2
1764,Right,0,83,110,533.0,0.989583,Quarter,B5_B4
1769,Left,1,52,110,534.0,1.989583,Half,E3_E2
1767,Right,0,64,110,534.0,1.989583,Half,E5_E4
