,hand,channel,note,velocity,start_beat,duration,note_value,chord
0,Right,0,62,80,0.5,0.489583,Eighth,D4
1,Right,0,70,80,1.0,0.489583,Eighth,A#4
2,Right,0,67,80,1.5,0.489583,Eighth,G4
3,Left,1,58,80,1.5,0.489583,Eighth,D4_A#3
6,Left,1,57,80,2.0,0.489583,Eighth,C4_A3
5,Right,0,66,80,2.0,0.489583,Eighth,F#4
8,Left,1,58,80,2.5,0.489583,Eighth,G3_A#3
10,Right,0,67,80,2.5,0.489583,Eighth,G4
13,Left,1,57,80,3.0,0.489583,Eighth,F#3_A3
11,Right,0,62,100,3.0,1.989583,Half,D4_C5
15,Left,1,54,80,3.5,0.489583,Eighth,F#3_D3
17,Left,1,55,80,4.0,0.489583,Eighth,G3_E3
19,Left,1,57,80,4.5,0.489583,Eighth,F#3_A3
22,Left,1,58,80,5.0,0.489583,Eighth,G3_A#3
21,Right,0,70,80,5.0,0.489583,Eighth,A#4
24,Left,1,62,80,5.5,0.489583,Eighth,D4_A#3
26,Right,0,67,80,5.5,0.489583,Eighth,G4
27,Right,0,66,80,6.0,0.489583,Eighth,F#4
28,Left,1,60,80,6.0,0.489583,Eighth,C4_A3
32,Right,0,67,80,6.5,0.489583,Eighth,G4
30,Left,1,58,80,6.5,0.489583,Eighth,G3_A#3
33,Right,0,75,100,7.0,1.989583,Half,D#5_D#4
35,Left,1,48,80,7.0,0.489583,Eighth,C3
36,Left,1,51,80,7.5,0.489583,Eighth,D#3
37,Left,1,55,80,8.0,0.489583,Eighth,G3
38,Left,1,60,80,8.5,0.489583,Eighth,C4
40,Right,0,74,80,9.0,0.489583,Eighth,D5
39,Left,1,58,80,9.0,0.989583,Quarter,A#3
41,Right,0,78,80,9.5,0.489583,Eighth,F#5
42,Right,0,79,80,10.0,0.489583,Eighth,G5
43,Right,0,74,80,10.5,0.489583,Eighth,D5
44,Left,1,62,80,10.5,0.489583,Eighth,D4_A#3
47,Right,0,72,80,11.0,0.489583,Eighth,C5
46,Left,1,62,80,11.0,0.989583,Quarter,F#3_D4
49,Right,0,80,80,11.5,0.489583,Eighth,G#5
50,Right,0,81,80,12.0,0.489583,Eighth,A5
51,Left,1,54,80,12.5,0.489583,Eighth,F#3_D4
53,Right,0,72,80,12.5,0.489583,Eighth,C5
55,Left,1,62,80,13.0,0.989583,Quarter,G3_D4
54,Right,0,70,80,13.0,0.489583,Eighth,A#4
57,Right,0,79,80,13.5,0.489583,Eighth,G5
58,Right,0,69,80,14.0,0.489583,Eighth,A4
59,Left,1,60,80,14.0,0.989583,Quarter,C4_C3
61,Right,0,75,80,14.5,0.489583,Eighth,D#5
64,Right,0,67,80,15.0,0.739583,DottedEighth,G4
62,Left,1,58,80,15.0,1.489583,Quarter,D3_A#3
65,Right,0,69,80,15.75,0.114583,ThirtySecond,A4
66,Right,0,67,80,15.875,0.114583,ThirtySecond,G4
67,Right,0,66,80,16.0,0.489583,Eighth,F#4
68,Left,1,57,80,16.0,0.489583,Eighth,A3
69,Right,0,62,80,16.5,0.489583,Eighth,D4
70,Right,0,70,80,17.0,0.489583,Eighth,A#4
71,Left,1,58,80,17.5,0.489583,Eighth,D4_A#3
72,Right,0,67,80,17.5,0.489583,Eighth,G4
76,Right,0,66,80,18.0,0.489583,Eighth,F#4
74,Left,1,60,80,18.0,0.489583,Eighth,C4_A3
77,Left,1,58,80,18.5,0.489583,Eighth,G3_A#3
79,Right,0,67,80,18.5,0.489583,Eighth,G4
80,Right,0,72,100,19.0,1.989583,Half,D4_C5
82,Left,1,57,80,19.0,0.489583,Eighth,F#3_A3
84,Left,1,50,80,19.5,0.489583,Eighth,F#3_D3
86,Left,1,55,80,20.0,0.489583,Eighth,G3_E3
88,Left,1,57,80,20.5,0.489583,Eighth,F#3_A3
91,Left,1,58,80,21.0,0.489583,Eighth,G3_A#3
90,Right,0,70,80,21.0,0.489583,Eighth,A#4
93,Right,0,67,80,21.5,0.489583,Eighth,G4
94,Left,1,62,80,21.5,0.489583,Eighth,D4_A#3
96,Left,1,60,80,22.0,0.489583,Eighth,C4_A3
97,Right,0,66,80,22.0,0.489583,Eighth,F#4
100,Left,1,58,80,22.5,0.489583,Eighth,G3_A#3
99,Right,0,67,80,22.5,0.489583,Eighth,G4
102,Left,1,48,80,23.0,1.489583,DottedQuarter,C3
103,Right,0,75,100,23.0,1.489583,DottedQuarter,D#5
104,Left,1,51,80,23.5,0.489583,Eighth,D#3
105,Left,1,55,80,24.0,0.489583,Eighth,G3
107,Left,1,57,80,24.5,0.489583,Eighth,C3_A3
106,Right,0,75,80,24.5,0.739583,DottedEighth,D#5
109,Left,1,50,80,25.0,0.989583,Quarter,D3_A#3
111,Right,0,74,80,25.25,0.239583,Sixteenth,D5
112,Right,0,77,80,25.5,0.239583,Sixteenth,F5
113,Right,0,76,80,25.75,0.239583,Sixteenth,E5
114,Right,0,79,80,26.0,0.239583,Sixteenth,G5
115,Right,0,77,80,26.25,0.239583,Sixteenth,F5
117,Left,1,53,80,26.5,0.489583,Eighth,F3_D3
116,Right,0,75,80,26.5,0.239583,Sixteenth,D#5
119,Right,0,74,80,26.75,0.239583,Sixteenth,D5
122,Right,0,72,80,27.0,0.125,ThirtySecond,C5
120,Left,1,55,80,27.0,0.989583,Eighth,G3_D#3
123,Right,0,74,80,27.083333,0.125,ThirtySecond,D5
124,Right,0,75,80,27.166667,0.125,ThirtySecond,D#5
125,Right,0,74,80,27.25,0.239583,Sixteenth,D5
126,Right,0,72,80,27.5,0.489583,Eighth,C5
127,Left,1,60,80,27.5,0.489583,Eighth,C4
128,Left,1,55,80,28.0,0.989583,Eighth,G3_E3
130,Right,0,71,80,28.0,0.145833,TripletSixteenth,B4
131,Right,0,72,80,28.083333,0.135417,ThirtySecond,C5
132,Right,0,74,80,28.166667,0.145833,TripletSixteenth,D5
133,Right,0,72,80,28.25,0.239583,Sixteenth,C5
134,Left,1,60,80,28.5,0.489583,Eighth,C4
135,Right,0,70,80,28.5,0.489583,Eighth,A#4
137,Right,0,69,80,29.0,0.104167,ThirtySecond,A4
136,Left,1,60,80,29.0,0.989583,Quarter,F3_C4
139,Right,0,70,80,29.0625,0.104167,ThirtySecond,A#4
140,Right,0,72,80,29.125,0.104167,ThirtySecond,C5
141,Right,0,70,80,29.1875,0.104167,ThirtySecond,A#4
142,Right,0,69,80,29.25,0.239583,Sixteenth,A4
143,Right,0,67,80,29.5,0.239583,Sixteenth,G4
144,Right,0,65,80,29.75,0.239583,Sixteenth,F4
145,Right,0,64,80,30.0,0.239583,Sixteenth,E4
146,Right,0,65,80,30.25,0.239583,Sixteenth,F4
147,Right,0,67,80,30.5,0.239583,Sixteenth,G4
148,Right,0,65,80,30.75,0.239583,Sixteenth,F4
149,Right,0,75,80,31.0,0.489583,Eighth,D#5
150,Left,1,57,80,31.0,0.239583,Sixteenth,A3
151,Left,1,65,80,31.25,0.239583,Sixteenth,F4
152,Right,0,69,80,31.5,0.489583,Eighth,A4
153,Left,1,60,80,31.5,0.239583,Sixteenth,C4
154,Left,1,65,80,31.75,0.239583,Sixteenth,F4
156,Left,1,63,80,32.0,0.239583,Sixteenth,D#4
155,Right,0,69,80,32.0,0.489583,Eighth,A4
157,Left,1,65,80,32.25,0.239583,Sixteenth,F4
159,Right,0,69,80,32.5,0.489583,Eighth,A4
158,Left,1,60,80,32.5,0.239583,Sixteenth,C4
160,Left,1,65,80,32.75,0.239583,Sixteenth,F4
161,Left,1,62,80,33.0,0.239583,Sixteenth,D4
162,Right,0,70,80,33.0,0.239583,Sixteenth,A#4
163,Left,1,65,80,33.25,0.239583,Sixteenth,F4
164,Right,0,72,80,33.25,0.072917,TripletThirtySecond,C5
165,Right,0,70,80,33.333333,0.072917,TripletThirtySecond,A#4
166,Right,0,69,80,33.416667,0.072917,TripletThirtySecond,A4
167,Right,0,70,80,33.5,0.239583,Sixteenth,A#4
168,Left,1,58,80,33.5,0.239583,Sixteenth,A#3
169,Left,1,65,80,33.75,0.239583,Sixteenth,F4
170,Right,0,74,80,33.75,0.239583,Sixteenth,D5
171,Left,1,62,80,34.0,0.239583,Sixteenth,D4
172,Right,0,77,80,34.0,0.489583,Eighth,F5
173,Left,1,65,80,34.25,0.239583,Sixteenth,F4
174,Right,0,77,80,34.5,0.489583,Eighth,F5
175,Left,1,58,80,34.5,0.239583,Sixteenth,A#3
176,Left,1,65,80,34.75,0.239583,Sixteenth,F4
177,Right,0,87,80,35.0,0.489583,Eighth,D#6
178,Left,1,57,80,35.0,0.239583,Sixteenth,A3
179,Left,1,65,80,35.25,0.239583,Sixteenth,F4
180,Right,0,81,80,35.5,0.489583,Eighth,A5
181,Left,1,60,80,35.5,0.239583,Sixteenth,C4
182,Left,1,65,80,35.75,0.239583,Sixteenth,F4
184,Left,1,63,80,36.0,0.239583,Sixteenth,D#4
183,Right,0,81,80,36.0,0.489583,Eighth,A5
185,Left,1,65,80,36.25,0.239583,Sixteenth,F4
186,Right,0,81,80,36.5,0.489583,Eighth,A5
187,Left,1,60,80,36.5,0.239583,Sixteenth,C4
188,Left,1,65,80,36.75,0.239583,Sixteenth,F4
190,Left,1,62,80,37.0,0.239583,Sixteenth,D4
189,Right,0,82,80,37.0,0.239583,Sixteenth,A#5
191,Right,0,84,80,37.25,0.072917,TripletThirtySecond,C6
192,Left,1,65,80,37.25,0.239583,Sixteenth,F4
193,Right,0,82,80,37.333333,0.072917,TripletThirtySecond,A#5
194,Right,0,81,80,37.416667,0.072917,TripletThirtySecond,A5
196,Left,1,58,80,37.5,0.239583,Sixteenth,A#3
195,Right,0,82,80,37.5,0.239583,Sixteenth,A#5
197,Right,0,86,80,37.75,0.239583,Sixteenth,D6
198,Left,1,65,80,37.75,0.239583,Sixteenth,F4
200,Right,0,89,80,38.0,0.489583,Eighth,F6
199,Left,1,62,80,38.0,0.239583,Sixteenth,D4
201,Left,1,65,80,38.25,0.239583,Sixteenth,F4
203,Right,0,65,80,38.5,0.489583,Eighth,F4
202,Left,1,58,80,38.5,0.239583,Sixteenth,A#3
204,Left,1,65,80,38.75,0.239583,Sixteenth,F4
205,Right,0,75,80,39.0,0.489583,Eighth,D#5
206,Left,1,57,80,39.0,0.239583,Sixteenth,A3
207,Left,1,65,80,39.25,0.239583,Sixteenth,F4
208,Left,1,60,80,39.5,0.239583,Sixteenth,C4
209,Right,0,69,80,39.5,0.489583,Eighth,A4
210,Left,1,65,80,39.75,0.239583,Sixteenth,F4
211,Right,0,69,80,40.0,0.489583,Eighth,A4
212,Left,1,63,80,40.0,0.239583,Sixteenth,D#4
213,Left,1,65,80,40.25,0.239583,Sixteenth,F4
214,Right,0,69,80,40.5,0.489583,Eighth,A4
215,Left,1,60,80,40.5,0.239583,Sixteenth,C4
216,Left,1,65,80,40.75,0.239583,Sixteenth,F4
218,Left,1,62,80,41.0,0.239583,Sixteenth,D4
217,Right,0,70,80,41.0,0.239583,Sixteenth,A#4
219,Left,1,65,80,41.25,0.239583,Sixteenth,F4
220,Right,0,72,80,41.25,0.072917,TripletThirtySecond,C5
221,Right,0,70,80,41.333333,0.072917,TripletThirtySecond,A#4
222,Right,0,69,80,41.416667,0.072917,TripletThirtySecond,A4
223,Left,1,58,80,41.5,0.239583,Sixteenth,A#3
224,Right,0,70,80,41.5,0.239583,Sixteenth,A#4
226,Left,1,65,80,41.75,0.239583,Sixteenth,F4
225,Right,0,72,80,41.75,0.239583,Sixteenth,C5
228,Left,1,56,80,42.0,0.239583,Sixteenth,G#3
227,Right,0,74,80,42.0,0.239583,Sixteenth,D5
230,Left,1,65,80,42.25,0.239583,Sixteenth,F4
229,Right,0,70,80,42.25,0.239583,Sixteenth,A#4
232,Right,0,72,80,42.5,0.239583,Sixteenth,C5
231,Left,1,58,80,42.5,0.239583,Sixteenth,A#3
234,Left,1,65,80,42.75,0.239583,Sixteenth,F4
233,Right,0,74,80,42.75,0.239583,Sixteenth,D5
235,Right,0,75,80,43.0,0.239583,Sixteenth,D#5
236,Left,1,55,80,43.0,0.239583,Sixteenth,G3
237,Right,0,77,80,43.25,0.072917,TripletThirtySecond,F5
238,Left,1,63,80,43.25,0.239583,Sixteenth,D#4
239,Right,0,75,80,43.333333,0.072917,TripletThirtySecond,D#5
240,Right,0,74,80,43.416667,0.072917,TripletThirtySecond,D5
242,Right,0,75,80,43.5,0.239583,Sixteenth,D#5
241,Left,1,58,80,43.5,0.239583,Sixteenth,A#3
243,Left,1,63,80,43.75,0.239583,Sixteenth,D#4
244,Right,0,77,80,43.75,0.239583,Sixteenth,F5
245,Left,1,51,80,44.0,0.239583,Sixteenth,D#3
246,Right,0,79,80,44.0,0.239583,Sixteenth,G5
248,Right,0,81,80,44.25,0.239583,Sixteenth,A5
247,Left,1,63,80,44.25,0.239583,Sixteenth,D#4
249,Left,1,58,80,44.5,0.239583,Sixteenth,A#3
250,Right,0,82,80,44.5,0.239583,Sixteenth,A#5
251,Left,1,63,80,44.75,0.239583,Sixteenth,D#4
252,Right,0,79,80,44.75,0.239583,Sixteenth,G5
253,Left,1,53,80,45.0,0.239583,Sixteenth,F3
254,Right,0,76,80,45.0,0.239583,Sixteenth,E5
256,Right,0,77,80,45.25,0.239583,Sixteenth,F5
255,Left,1,62,80,45.25,0.239583,Sixteenth,D4
257,Right,0,79,80,45.5,0.239583,Sixteenth,G5
258,Left,1,58,80,45.5,0.239583,Sixteenth,A#3
260,Left,1,62,80,45.75,0.239583,Sixteenth,D4
259,Right,0,77,80,45.75,0.239583,Sixteenth,F5
262,Left,1,53,80,46.0,0.239583,Sixteenth,F3
261,Right,0,77,80,46.0,0.239583,Sixteenth,F5
264,Left,1,63,80,46.25,0.239583,Sixteenth,D#4
263,Right,0,75,80,46.25,0.239583,Sixteenth,D#5
266,Left,1,57,80,46.5,0.239583,Sixteenth,A3
265,Right,0,74,80,46.5,0.239583,Sixteenth,D5
268,Left,1,63,80,46.75,0.239583,Sixteenth,D#4
267,Right,0,72,80,46.75,0.239583,Sixteenth,C5
269,Left,1,62,80,47.0,0.989583,Quarter,D4_A#3
270,Right,0,73,80,47.0,0.239583,Sixteenth,C#5
272,Right,0,74,80,47.25,0.239583,Sixteenth,D5
273,Right,0,75,80,47.5,0.239583,Sixteenth,D#5
274,Right,0,74,80,47.75,0.239583,Sixteenth,D5
275,Right,0,77,80,48.0,0.239583,Sixteenth,F5
276,Right,0,75,80,48.25,0.239583,Sixteenth,D#5
277,Right,0,74,80,48.5,0.239583,Sixteenth,D5
278,Right,0,72,80,48.75,0.239583,Sixteenth,C5
280,Left,1,62,80,49.0,0.239583,Sixteenth,D4
279,Right,0,70,80,49.0,0.239583,Sixteenth,A#4
282,Right,0,72,80,49.25,0.072917,TripletThirtySecond,C5
281,Left,1,65,80,49.25,0.239583,Sixteenth,F4
283,Right,0,70,80,49.333333,0.072917,TripletThirtySecond,A#4
284,Right,0,69,80,49.416667,0.072917,TripletThirtySecond,A4
285,Right,0,70,80,49.5,0.239583,Sixteenth,A#4
286,Left,1,58,80,49.5,0.239583,Sixteenth,A#3
288,Left,1,65,80,49.75,0.239583,Sixteenth,F4
287,Right,0,72,80,49.75,0.239583,Sixteenth,C5
289,Right,0,74,80,50.0,0.239583,Sixteenth,D5
290,Left,1,56,80,50.0,0.239583,Sixteenth,G#3
292,Left,1,65,80,50.25,0.239583,Sixteenth,F4
291,Right,0,70,80,50.25,0.239583,Sixteenth,A#4
293,Left,1,58,80,50.5,0.239583,Sixteenth,A#3
294,Right,0,72,80,50.5,0.239583,Sixteenth,C5
295,Right,0,74,80,50.75,0.239583,Sixteenth,D5
296,Left,1,65,80,50.75,0.239583,Sixteenth,F4
297,Right,0,75,80,51.0,0.239583,Sixteenth,D#5
298,Left,1,55,80,51.0,0.239583,Sixteenth,G3
300,Right,0,77,80,51.25,0.239583,Sixteenth,F5
299,Left,1,63,80,51.25,0.239583,Sixteenth,D#4
302,Right,0,79,80,51.5,0.239583,Sixteenth,G5
301,Left,1,58,80,51.5,0.239583,Sixteenth,A#3
304,Right,0,81,80,51.75,0.239583,Sixteenth,A5
303,Left,1,63,80,51.75,0.239583,Sixteenth,D#4
305,Left,1,51,80,52.0,0.239583,Sixteenth,D#3
306,Right,0,84,80,52.0,0.239583,Sixteenth,C6
307,Left,1,63,80,52.25,0.239583,Sixteenth,D#4
308,Right,0,82,80,52.25,0.239583,Sixteenth,A#5
309,Right,0,81,80,52.5,0.239583,Sixteenth,A5
310,Left,1,58,80,52.5,0.239583,Sixteenth,A#3
311,Left,1,63,80,52.75,0.239583,Sixteenth,D#4
312,Right,0,79,80,52.75,0.239583,Sixteenth,G5
313,Right,0,79,80,53.0,0.239583,Sixteenth,G5
314,Left,1,50,80,53.0,0.239583,Sixteenth,D3
316,Left,1,62,80,53.25,0.239583,Sixteenth,D4
315,Right,0,77,80,53.25,0.239583,Sixteenth,F5
318,Left,1,58,80,53.5,0.239583,Sixteenth,A#3
317,Right,0,76,80,53.5,0.239583,Sixteenth,E5
319,Left,1,62,80,53.75,0.239583,Sixteenth,D4
320,Right,0,77,80,53.75,0.239583,Sixteenth,F5
322,Left,1,48,80,54.0,0.239583,Sixteenth,C3
321,Right,0,81,80,54.0,0.239583,Sixteenth,A5
323,Left,1,60,80,54.25,0.239583,Sixteenth,C4
324,Right,0,79,80,54.25,0.239583,Sixteenth,G5
326,Left,1,55,80,54.5,0.239583,Sixteenth,G3
325,Right,0,77,80,54.5,0.239583,Sixteenth,F5
328,Left,1,60,80,54.75,0.239583,Sixteenth,C4
327,Right,0,75,80,54.75,0.239583,Sixteenth,D#5
329,Left,1,53,80,55.0,0.239583,Sixteenth,F3
330,Right,0,75,80,55.0,0.239583,Sixteenth,D#5
332,Right,0,74,80,55.25,0.239583,Sixteenth,D5
331,Left,1,62,80,55.25,0.239583,Sixteenth,D4
334,Right,0,73,80,55.5,0.239583,Sixteenth,C#5
333,Left,1,58,80,55.5,0.239583,Sixteenth,A#3
335,Left,1,62,80,55.75,0.239583,Sixteenth,D4
336,Right,0,74,80,55.75,0.239583,Sixteenth,D5
338,Left,1,53,80,56.0,0.239583,Sixteenth,F3
337,Right,0,77,80,56.0,0.239583,Sixteenth,F5
339,Left,1,63,80,56.25,0.239583,Sixteenth,D#4
340,Right,0,75,80,56.25,0.239583,Sixteenth,D#5
342,Left,1,57,80,56.5,0.239583,Sixteenth,A3
341,Right,0,74,80,56.5,0.239583,Sixteenth,D5
344,Left,1,63,80,56.75,0.239583,Sixteenth,D#4
343,Right,0,72,80,56.75,0.239583,Sixteenth,C5
345,Left,1,62,80,57.0,0.239583,Sixteenth,D4_A#3
347,Right,0,70,80,57.0,0.989583,Quarter,A#4
348,Left,1,65,80,57.25,0.239583,Sixteenth,F4
349,Left,1,64,80,57.5,0.239583,Sixteenth,E4
350,Left,1,65,80,57.75,0.239583,Sixteenth,F4
351,Left,1,67,80,58.0,0.239583,Sixteenth,G4
352,Left,1,65,80,58.25,0.239583,Sixteenth,F4
353,Right,0,72,80,58.5,0.239583,Sixteenth,C5
354,Left,1,63,80,58.5,0.239583,Sixteenth,D#4
355,Right,0,74,80,58.75,0.239583,Sixteenth,D5
356,Left,1,62,80,58.75,0.239583,Sixteenth,D4
357,Right,0,75,80,59.0,0.489583,Eighth,D#5
358,Left,1,60,80,59.0,0.239583,Sixteenth,C4
359,Left,1,65,80,59.25,0.239583,Sixteenth,F4
360,Right,0,69,80,59.5,0.489583,Eighth,A4
361,Left,1,63,80,59.5,0.239583,Sixteenth,D#4
362,Left,1,65,80,59.75,0.239583,Sixteenth,F4
363,Left,1,60,80,60.0,0.239583,Sixteenth,F3_C4
365,Right,0,69,80,60.0,0.489583,Eighth,A4
366,Left,1,65,80,60.25,0.239583,Sixteenth,F4
368,Left,1,63,80,60.5,0.239583,Sixteenth,D#4
367,Right,0,69,80,60.5,0.489583,Eighth,A4
369,Left,1,65,80,60.75,0.239583,Sixteenth,F4
370,Left,1,58,80,61.0,0.239583,Sixteenth,D4_A#3
371,Right,0,70,80,61.0,0.989583,Quarter,A#4
373,Left,1,65,80,61.25,0.239583,Sixteenth,F4
374,Left,1,64,80,61.5,0.239583,Sixteenth,E4
375,Left,1,65,80,61.75,0.239583,Sixteenth,F4
376,Left,1,67,80,62.0,0.239583,Sixteenth,G4
377,Left,1,65,80,62.25,0.239583,Sixteenth,F4
379,Right,0,72,80,62.5,0.239583,Sixteenth,C5
378,Left,1,63,80,62.5,0.239583,Sixteenth,D#4
381,Right,0,74,80,62.75,0.239583,Sixteenth,D5
380,Left,1,62,80,62.75,0.239583,Sixteenth,D4
383,Right,0,75,80,63.0,0.489583,Eighth,D#5
382,Left,1,60,80,63.0,0.239583,Sixteenth,C4
384,Left,1,65,80,63.25,0.239583,Sixteenth,F4
385,Right,0,69,80,63.5,0.489583,Eighth,A4
386,Left,1,63,80,63.5,0.239583,Sixteenth,D#4
387,Left,1,65,80,63.75,0.239583,Sixteenth,F4
389,Left,1,60,80,64.0,0.239583,Sixteenth,F3_C4
388,Right,0,69,80,64.0,0.489583,Eighth,A4
391,Left,1,65,80,64.25,0.239583,Sixteenth,F4
392,Right,0,69,80,64.5,0.489583,Eighth,A4
393,Left,1,63,80,64.5,0.239583,Sixteenth,D#4
394,Left,1,65,80,64.75,0.239583,Sixteenth,F4
395,Left,1,63,80,65.0,1.489583,Quarter,D#4_A#3
396,Right,0,69,80,65.0,0.989583,Quarter,C5_A4
400,Left,1,62,80,66.0,0.489583,Eighth,D4
399,Right,0,70,80,66.0,0.489583,Eighth,A#4
401,Right,0,62,80,66.5,0.489583,Eighth,D4
402,Right,0,70,80,67.0,0.489583,Eighth,A#4
405,Right,0,67,80,67.5,0.489583,Eighth,G4
403,Left,1,58,80,67.5,0.489583,Eighth,D4_A#3
406,Left,1,57,80,68.0,0.489583,Eighth,C4_A3
408,Right,0,66,80,68.0,0.489583,Eighth,F#4
409,Left,1,58,80,68.5,0.489583,Eighth,G3_A#3
410,Right,0,67,80,68.5,0.489583,Eighth,G4
412,Left,1,57,80,69.0,0.489583,Eighth,F#3_A3
413,Right,0,72,100,69.0,1.989583,Half,D4_C5
416,Left,1,54,80,69.5,0.489583,Eighth,F#3_D3
418,Left,1,55,80,70.0,0.489583,Eighth,G3_E3
420,Left,1,57,80,70.5,0.489583,Eighth,F#3_A3
422,Left,1,55,80,71.0,0.489583,Eighth,G3_A#3
424,Right,0,70,80,71.0,0.489583,Eighth,A#4
426,Right,0,67,80,71.5,0.489583,Eighth,G4
425,Left,1,62,80,71.5,0.489583,Eighth,D4_A#3
430,Right,0,66,80,72.0,0.489583,Eighth,F#4
428,Left,1,57,80,72.0,0.489583,Eighth,C4_A3
431,Right,0,67,80,72.5,0.489583,Eighth,G4
432,Left,1,55,80,72.5,0.489583,Eighth,G3_A#3
434,Right,0,75,100,73.0,1.989583,Half,D#5_D#4
436,Left,1,48,80,73.0,0.489583,Eighth,C3
437,Left,1,51,80,73.5,0.489583,Eighth,D#3
438,Left,1,55,80,74.0,0.489583,Eighth,G3
439,Left,1,60,80,74.5,0.489583,Eighth,C4
440,Left,1,58,80,75.0,0.989583,Quarter,A#3
441,Right,0,74,80,75.0,0.489583,Eighth,D5
442,Right,0,78,80,75.5,0.489583,Eighth,F#5
443,Right,0,79,80,76.0,0.489583,Eighth,G5
446,Right,0,74,80,76.5,0.489583,Eighth,D5
444,Left,1,58,80,76.5,0.489583,Eighth,D4_A#3
447,Right,0,72,80,77.0,0.489583,Eighth,C5
448,Left,1,54,80,77.0,0.989583,Quarter,F#3_D4
450,Right,0,80,80,77.5,0.489583,Eighth,G#5
451,Right,0,81,80,78.0,0.489583,Eighth,A5
454,Right,0,72,80,78.5,0.489583,Eighth,C5
452,Left,1,62,80,78.5,0.489583,Eighth,F#3_D4
455,Left,1,62,80,79.0,0.989583,Quarter,G3_D4
457,Right,0,70,80,79.0,0.489583,Eighth,A#4
458,Right,0,79,80,79.5,0.489583,Eighth,G5
460,Left,1,60,80,80.0,0.989583,Quarter,C4_C3
459,Right,0,69,80,80.0,0.489583,Eighth,A4
462,Right,0,75,80,80.5,0.489583,Eighth,D#5
463,Right,0,67,80,81.0,0.739583,DottedEighth,G4
464,Left,1,58,80,81.0,1.489583,Quarter,D3_A#3
466,Right,0,69,80,81.75,0.114583,ThirtySecond,A4
467,Right,0,67,80,81.875,0.114583,ThirtySecond,G4
468,Left,1,57,80,82.0,0.489583,Eighth,A3
469,Right,0,66,80,82.0,0.489583,Eighth,F#4
470,Right,0,62,80,82.5,0.489583,Eighth,D4
471,Right,0,70,80,83.0,0.489583,Eighth,A#4
472,Right,0,67,80,83.5,0.489583,Eighth,G4
473,Left,1,58,80,83.5,0.489583,Eighth,D4_A#3
475,Right,0,66,80,84.0,0.489583,Eighth,F#4
476,Left,1,57,80,84.0,0.489583,Eighth,C4_A3
479,Left,1,55,80,84.5,0.489583,Eighth,G3_A#3
478,Right,0,67,80,84.5,0.489583,Eighth,G4
481,Left,1,57,80,85.0,0.489583,Eighth,F#3_A3
483,Right,0,72,80,85.0,1.989583,Half,D4_C5
485,Left,1,50,80,85.5,0.489583,Eighth,F#3_D3
487,Left,1,52,80,86.0,0.489583,Eighth,G3_E3
489,Left,1,57,80,86.5,0.489583,Eighth,F#3_A3
493,Right,0,70,80,87.0,0.489583,Eighth,A#4
491,Left,1,58,80,87.0,0.489583,Eighth,G3_A#3
495,Left,1,62,80,87.5,0.489583,Eighth,D4_A#3
494,Right,0,67,80,87.5,0.489583,Eighth,G4
497,Left,1,60,80,88.0,0.489583,Eighth,C4_A3
499,Right,0,66,80,88.0,0.489583,Eighth,F#4
502,Right,0,67,80,88.5,0.489583,Eighth,G4
500,Left,1,58,80,88.5,0.489583,Eighth,G3_A#3
504,Left,1,48,80,89.0,1.489583,DottedQuarter,C3
503,Right,0,75,80,89.0,1.489583,DottedQuarter,D#5
505,Left,1,51,80,89.5,0.489583,Eighth,D#3
506,Left,1,55,80,90.0,0.489583,Eighth,G3
507,Right,0,75,80,90.5,0.739583,DottedEighth,D#5
508,Left,1,57,80,90.5,0.489583,Eighth,C3_A3
510,Left,1,50,80,91.0,0.989583,Quarter,D3_A#3
512,Right,0,74,80,91.25,0.239583,Sixteenth,D5
513,Right,0,77,80,91.5,0.239583,Sixteenth,F5
514,Right,0,76,80,91.75,0.239583,Sixteenth,E5
515,Right,0,79,80,92.0,0.239583,Sixteenth,G5
516,Right,0,77,80,92.25,0.239583,Sixteenth,F5
518,Right,0,75,80,92.5,0.239583,Sixteenth,D#5
517,Left,1,50,80,92.5,0.489583,Eighth,F3_D3
520,Right,0,74,80,92.75,0.239583,Sixteenth,D5
523,Right,0,72,80,93.0,0.125,ThirtySecond,C5
521,Left,1,55,80,93.0,0.989583,Eighth,G3_D#3
524,Right,0,74,80,93.083333,0.125,ThirtySecond,D5
525,Right,0,75,80,93.166667,0.125,ThirtySecond,D#5
526,Right,0,74,80,93.25,0.239583,Sixteenth,D5
527,Right,0,72,80,93.5,0.489583,Eighth,C5
528,Left,1,60,80,93.5,0.489583,Eighth,C4
529,Left,1,55,80,94.0,0.989583,Eighth,G3_E3
531,Right,0,71,80,94.0,0.145833,TripletSixteenth,B4
532,Right,0,72,80,94.083333,0.135417,ThirtySecond,C5
533,Right,0,74,80,94.166667,0.145833,TripletSixteenth,D5
534,Right,0,72,80,94.25,0.239583,Sixteenth,C5
536,Right,0,70,80,94.5,0.489583,Eighth,A#4
535,Left,1,60,80,94.5,0.489583,Eighth,C4
538,Right,0,69,80,95.0,0.104167,ThirtySecond,A4
537,Left,1,60,80,95.0,0.989583,Quarter,F3_C4
540,Right,0,70,80,95.0625,0.104167,ThirtySecond,A#4
541,Right,0,72,80,95.125,0.104167,ThirtySecond,C5
542,Right,0,70,80,95.1875,0.104167,ThirtySecond,A#4
543,Right,0,69,80,95.25,0.239583,Sixteenth,A4
544,Right,0,67,80,95.5,0.239583,Sixteenth,G4
545,Right,0,65,80,95.75,0.239583,Sixteenth,F4
546,Right,0,64,80,96.0,0.239583,Sixteenth,E4
547,Right,0,65,80,96.25,0.239583,Sixteenth,F4
548,Right,0,67,80,96.5,0.239583,Sixteenth,G4
549,Right,0,65,80,96.75,0.239583,Sixteenth,F4
550,Left,1,57,80,97.0,0.239583,Sixteenth,A3
551,Right,0,75,80,97.0,0.489583,Eighth,D#5
552,Left,1,65,80,97.25,0.239583,Sixteenth,F4
554,Right,0,69,80,97.5,0.489583,Eighth,A4
553,Left,1,60,80,97.5,0.239583,Sixteenth,C4
555,Left,1,65,80,97.75,0.239583,Sixteenth,F4
556,Left,1,63,80,98.0,0.239583,Sixteenth,D#4
557,Right,0,69,80,98.0,0.489583,Eighth,A4
558,Left,1,65,80,98.25,0.239583,Sixteenth,F4
559,Right,0,69,80,98.5,0.489583,Eighth,A4
560,Left,1,60,80,98.5,0.239583,Sixteenth,C4
561,Left,1,65,80,98.75,0.239583,Sixteenth,F4
562,Right,0,70,80,99.0,0.239583,Sixteenth,A#4
563,Left,1,62,80,99.0,0.239583,Sixteenth,D4
564,Right,0,72,80,99.25,0.072917,TripletThirtySecond,C5
565,Left,1,65,80,99.25,0.239583,Sixteenth,F4
566,Right,0,70,80,99.333333,0.072917,TripletThirtySecond,A#4
567,Right,0,69,80,99.416667,0.072917,TripletThirtySecond,A4
568,Right,0,70,80,99.5,0.239583,Sixteenth,A#4
569,Left,1,58,80,99.5,0.239583,Sixteenth,A#3
570,Right,0,74,80,99.75,0.239583,Sixteenth,D5
571,Left,1,65,80,99.75,0.239583,Sixteenth,F4
573,Left,1,62,80,100.0,0.239583,Sixteenth,D4
572,Right,0,77,80,100.0,0.489583,Eighth,F5
574,Left,1,65,80,100.25,0.239583,Sixteenth,F4
576,Left,1,58,80,100.5,0.239583,Sixteenth,A#3
575,Right,0,77,80,100.5,0.489583,Eighth,F5
577,Left,1,65,80,100.75,0.239583,Sixteenth,F4
579,Left,1,57,80,101.0,0.239583,Sixteenth,A3
578,Right,0,87,80,101.0,0.489583,Eighth,D#6
580,Left,1,65,80,101.25,0.239583,Sixteenth,F4
581,Right,0,81,80,101.5,0.489583,Eighth,A5
582,Left,1,60,80,101.5,0.239583,Sixteenth,C4
583,Left,1,65,80,101.75,0.239583,Sixteenth,F4
584,Left,1,63,80,102.0,0.239583,Sixteenth,D#4
585,Right,0,81,80,102.0,0.489583,Eighth,A5
586,Left,1,65,80,102.25,0.239583,Sixteenth,F4
588,Left,1,60,80,102.5,0.239583,Sixteenth,C4
587,Right,0,81,80,102.5,0.489583,Eighth,A5
589,Left,1,65,80,102.75,0.239583,Sixteenth,F4
590,Left,1,62,80,103.0,0.239583,Sixteenth,D4
591,Right,0,82,80,103.0,0.239583,Sixteenth,A#5
593,Right,0,84,80,103.25,0.072917,TripletThirtySecond,C6
592,Left,1,65,80,103.25,0.239583,Sixteenth,F4
594,Right,0,82,80,103.333333,0.072917,TripletThirtySecond,A#5
595,Right,0,81,80,103.416667,0.072917,TripletThirtySecond,A5
597,Left,1,58,80,103.5,0.239583,Sixteenth,A#3
596,Right,0,82,80,103.5,0.239583,Sixteenth,A#5
599,Left,1,65,80,103.75,0.239583,Sixteenth,F4
598,Right,0,86,80,103.75,0.239583,Sixteenth,D6
601,Left,1,62,80,104.0,0.239583,Sixteenth,D4
600,Right,0,89,80,104.0,0.489583,Eighth,F6
602,Left,1,65,80,104.25,0.239583,Sixteenth,F4
603,Right,0,65,80,104.5,0.489583,Eighth,F4
604,Left,1,58,80,104.5,0.239583,Sixteenth,A#3
605,Left,1,65,80,104.75,0.239583,Sixteenth,F4
606,Right,0,75,80,105.0,0.489583,Eighth,D#5
607,Left,1,57,80,105.0,0.239583,Sixteenth,A3
608,Left,1,65,80,105.25,0.239583,Sixteenth,F4
610,Right,0,69,80,105.5,0.489583,Eighth,A4
609,Left,1,60,80,105.5,0.239583,Sixteenth,C4
611,Left,1,65,80,105.75,0.239583,Sixteenth,F4
612,Left,1,63,80,106.0,0.239583,Sixteenth,D#4
613,Right,0,69,80,106.0,0.489583,Eighth,A4
614,Left,1,65,80,106.25,0.239583,Sixteenth,F4
616,Left,1,60,80,106.5,0.239583,Sixteenth,C4
615,Right,0,69,80,106.5,0.489583,Eighth,A4
617,Left,1,65,80,106.75,0.239583,Sixteenth,F4
618,Right,0,70,80,107.0,0.239583,Sixteenth,A#4
619,Left,1,62,80,107.0,0.239583,Sixteenth,D4
621,Left,1,65,80,107.25,0.239583,Sixteenth,F4
620,Right,0,72,80,107.25,0.072917,TripletThirtySecond,C5
622,Right,0,70,80,107.333333,0.072917,TripletThirtySecond,A#4
623,Right,0,69,80,107.416667,0.072917,TripletThirtySecond,A4
625,Left,1,58,80,107.5,0.239583,Sixteenth,A#3
624,Right,0,70,80,107.5,0.239583,Sixteenth,A#4
627,Left,1,65,80,107.75,0.239583,Sixteenth,F4
626,Right,0,72,80,107.75,0.239583,Sixteenth,C5
629,Left,1,56,80,108.0,0.239583,Sixteenth,G#3
628,Right,0,74,80,108.0,0.239583,Sixteenth,D5
631,Right,0,70,80,108.25,0.239583,Sixteenth,A#4
630,Left,1,65,80,108.25,0.239583,Sixteenth,F4
632,Right,0,72,80,108.5,0.239583,Sixteenth,C5
633,Left,1,58,80,108.5,0.239583,Sixteenth,A#3
634,Left,1,65,80,108.75,0.239583,Sixteenth,F4
635,Right,0,74,80,108.75,0.239583,Sixteenth,D5
637,Right,0,75,80,109.0,0.239583,Sixteenth,D#5
636,Left,1,55,80,109.0,0.239583,Sixteenth,G3
638,Left,1,63,80,109.25,0.239583,Sixteenth,D#4
639,Right,0,77,80,109.25,0.072917,TripletThirtySecond,F5
640,Right,0,75,80,109.333333,0.072917,TripletThirtySecond,D#5
641,Right,0,74,80,109.416667,0.072917,TripletThirtySecond,D5
642,Left,1,58,80,109.5,0.239583,Sixteenth,A#3
643,Right,0,75,80,109.5,0.239583,Sixteenth,D#5
645,Left,1,63,80,109.75,0.239583,Sixteenth,D#4
644,Right,0,77,80,109.75,0.239583,Sixteenth,F5
647,Left,1,51,80,110.0,0.239583,Sixteenth,D#3
646,Right,0,79,80,110.0,0.239583,Sixteenth,G5
648,Right,0,81,80,110.25,0.239583,Sixteenth,A5
649,Left,1,63,80,110.25,0.239583,Sixteenth,D#4
651,Right,0,82,80,110.5,0.239583,Sixteenth,A#5
650,Left,1,58,80,110.5,0.239583,Sixteenth,A#3
652,Right,0,79,80,110.75,0.239583,Sixteenth,G5
653,Left,1,63,80,110.75,0.239583,Sixteenth,D#4
654,Right,0,76,80,111.0,0.239583,Sixteenth,E5
655,Left,1,53,80,111.0,0.239583,Sixteenth,F3
656,Right,0,77,80,111.25,0.239583,Sixteenth,F5
657,Left,1,62,80,111.25,0.239583,Sixteenth,D4
659,Right,0,79,80,111.5,0.239583,Sixteenth,G5
658,Left,1,58,80,111.5,0.239583,Sixteenth,A#3
661,Right,0,77,80,111.75,0.239583,Sixteenth,F5
660,Left,1,62,80,111.75,0.239583,Sixteenth,D4
663,Right,0,77,80,112.0,0.239583,Sixteenth,F5
662,Left,1,53,80,112.0,0.239583,Sixteenth,F3
665,Right,0,75,80,112.25,0.239583,Sixteenth,D#5
664,Left,1,63,80,112.25,0.239583,Sixteenth,D#4
667,Right,0,74,80,112.5,0.239583,Sixteenth,D5
666,Left,1,57,80,112.5,0.239583,Sixteenth,A3
668,Right,0,72,80,112.75,0.239583,Sixteenth,C5
669,Left,1,63,80,112.75,0.239583,Sixteenth,D#4
670,Right,0,73,80,113.0,0.239583,Sixteenth,C#5
671,Left,1,62,80,113.0,0.989583,Quarter,D4_A#3
673,Right,0,74,80,113.25,0.239583,Sixteenth,D5
674,Right,0,75,80,113.5,0.239583,Sixteenth,D#5
675,Right,0,74,80,113.75,0.239583,Sixteenth,D5
676,Right,0,77,80,114.0,0.239583,Sixteenth,F5
677,Right,0,75,80,114.25,0.239583,Sixteenth,D#5
678,Right,0,74,80,114.5,0.239583,Sixteenth,D5
679,Right,0,72,80,114.75,0.239583,Sixteenth,C5
681,Right,0,70,80,115.0,0.239583,Sixteenth,A#4
680,Left,1,62,80,115.0,0.239583,Sixteenth,D4
682,Left,1,65,80,115.25,0.239583,Sixteenth,F4
683,Right,0,72,80,115.25,0.072917,TripletThirtySecond,C5
684,Right,0,70,80,115.333333,0.072917,TripletThirtySecond,A#4
685,Right,0,69,80,115.416667,0.072917,TripletThirtySecond,A4
686,Left,1,58,80,115.5,0.239583,Sixteenth,A#3
687,Right,0,70,80,115.5,0.239583,Sixteenth,A#4
689,Right,0,72,80,115.75,0.239583,Sixteenth,C5
688,Left,1,65,80,115.75,0.239583,Sixteenth,F4
691,Right,0,74,80,116.0,0.239583,Sixteenth,D5
690,Left,1,56,80,116.0,0.239583,Sixteenth,G#3
692,Left,1,65,80,116.25,0.239583,Sixteenth,F4
693,Right,0,70,80,116.25,0.239583,Sixteenth,A#4
695,Left,1,58,80,116.5,0.239583,Sixteenth,A#3
694,Right,0,72,80,116.5,0.239583,Sixteenth,C5
696,Left,1,65,80,116.75,0.239583,Sixteenth,F4
697,Right,0,74,80,116.75,0.239583,Sixteenth,D5
698,Left,1,55,80,117.0,0.239583,Sixteenth,G3
699,Right,0,75,80,117.0,0.239583,Sixteenth,D#5
701,Right,0,77,80,117.25,0.239583,Sixteenth,F5
700,Left,1,63,80,117.25,0.239583,Sixteenth,D#4
702,Left,1,58,80,117.5,0.239583,Sixteenth,A#3
703,Right,0,79,80,117.5,0.239583,Sixteenth,G5
704,Left,1,63,80,117.75,0.239583,Sixteenth,D#4
705,Right,0,81,80,117.75,0.239583,Sixteenth,A5
706,Left,1,51,80,118.0,0.239583,Sixteenth,D#3
707,Right,0,84,80,118.0,0.239583,Sixteenth,C6
708,Left,1,63,80,118.25,0.239583,Sixteenth,D#4
709,Right,0,82,80,118.25,0.239583,Sixteenth,A#5
710,Left,1,58,80,118.5,0.239583,Sixteenth,A#3
711,Right,0,81,80,118.5,0.239583,Sixteenth,A5
713,Right,0,79,80,118.75,0.239583,Sixteenth,G5
712,Left,1,63,80,118.75,0.239583,Sixteenth,D#4
714,Right,0,79,80,119.0,0.239583,Sixteenth,G5
715,Left,1,50,80,119.0,0.239583,Sixteenth,D3
716,Right,0,77,80,119.25,0.239583,Sixteenth,F5
717,Left,1,62,80,119.25,0.239583,Sixteenth,D4
718,Right,0,76,80,119.5,0.239583,Sixteenth,E5
719,Left,1,58,80,119.5,0.239583,Sixteenth,A#3
721,Right,0,77,80,119.75,0.239583,Sixteenth,F5
720,Left,1,62,80,119.75,0.239583,Sixteenth,D4
722,Left,1,48,80,120.0,0.239583,Sixteenth,C3
723,Right,0,81,80,120.0,0.239583,Sixteenth,A5
725,Right,0,79,80,120.25,0.239583,Sixteenth,G5
724,Left,1,60,80,120.25,0.239583,Sixteenth,C4
726,Right,0,77,80,120.5,0.239583,Sixteenth,F5
727,Left,1,55,80,120.5,0.239583,Sixteenth,G3
728,Left,1,60,80,120.75,0.239583,Sixteenth,C4
729,Right,0,75,80,120.75,0.239583,Sixteenth,D#5
730,Right,0,75,80,121.0,0.239583,Sixteenth,D#5
731,Left,1,53,80,121.0,0.239583,Sixteenth,F3
732,Right,0,74,80,121.25,0.239583,Sixteenth,D5
733,Left,1,62,80,121.25,0.239583,Sixteenth,D4
734,Right,0,73,80,121.5,0.239583,Sixteenth,C#5
735,Left,1,58,80,121.5,0.239583,Sixteenth,A#3
737,Left,1,62,80,121.75,0.239583,Sixteenth,D4
736,Right,0,74,80,121.75,0.239583,Sixteenth,D5
739,Right,0,77,80,122.0,0.239583,Sixteenth,F5
738,Left,1,53,80,122.0,0.239583,Sixteenth,F3
740,Right,0,75,80,122.25,0.239583,Sixteenth,D#5
741,Left,1,63,80,122.25,0.239583,Sixteenth,D#4
743,Left,1,57,80,122.5,0.239583,Sixteenth,A3
742,Right,0,74,80,122.5,0.239583,Sixteenth,D5
744,Left,1,63,80,122.75,0.239583,Sixteenth,D#4
745,Right,0,72,80,122.75,0.239583,Sixteenth,C5
746,Left,1,62,80,123.0,0.239583,Sixteenth,D4_A#3
748,Right,0,70,80,123.0,0.989583,Quarter,A#4
749,Left,1,65,80,123.25,0.239583,Sixteenth,F4
750,Left,1,64,80,123.5,0.239583,Sixteenth,E4
751,Left,1,65,80,123.75,0.239583,Sixteenth,F4
752,Left,1,67,80,124.0,0.239583,Sixteenth,G4
753,Left,1,65,80,124.25,0.239583,Sixteenth,F4
754,Right,0,72,80,124.5,0.239583,Sixteenth,C5
755,Left,1,63,80,124.5,0.239583,Sixteenth,D#4
756,Left,1,62,80,124.75,0.239583,Sixteenth,D4
757,Right,0,74,80,124.75,0.239583,Sixteenth,D5
759,Right,0,75,80,125.0,0.489583,Eighth,D#5
758,Left,1,60,80,125.0,0.239583,Sixteenth,C4
760,Left,1,65,80,125.25,0.239583,Sixteenth,F4
762,Right,0,69,80,125.5,0.489583,Eighth,A4
761,Left,1,63,80,125.5,0.239583,Sixteenth,D#4
763,Left,1,65,80,125.75,0.239583,Sixteenth,F4
766,Right,0,69,80,126.0,0.489583,Eighth,A4
764,Left,1,53,80,126.0,0.239583,Sixteenth,F3_C4
767,Left,1,65,80,126.25,0.239583,Sixteenth,F4
768,Left,1,63,80,126.5,0.239583,Sixteenth,D#4
769,Right,0,69,80,126.5,0.489583,Eighth,A4
770,Left,1,65,80,126.75,0.239583,Sixteenth,F4
771,Right,0,70,80,127.0,0.989583,Quarter,A#4
772,Left,1,58,80,127.0,0.239583,Sixteenth,D4_A#3
774,Left,1,65,80,127.25,0.239583,Sixteenth,F4
775,Left,1,64,80,127.5,0.239583,Sixteenth,E4
776,Left,1,65,80,127.75,0.239583,Sixteenth,F4
777,Left,1,67,80,128.0,0.239583,Sixteenth,G4
778,Left,1,65,80,128.25,0.239583,Sixteenth,F4
780,Left,1,63,80,128.5,0.239583,Sixteenth,D#4
779,Right,0,72,80,128.5,0.239583,Sixteenth,C5
781,Right,0,74,80,128.75,0.239583,Sixteenth,D5
782,Left,1,62,80,128.75,0.239583,Sixteenth,D4
783,Right,0,75,80,129.0,0.489583,Eighth,D#5
784,Left,1,60,80,129.0,0.239583,Sixteenth,C4
785,Left,1,65,80,129.25,0.239583,Sixteenth,F4
786,Right,0,69,80,129.5,0.489583,Eighth,A4
787,Left,1,63,80,129.5,0.239583,Sixteenth,D#4
788,Left,1,65,80,129.75,0.239583,Sixteenth,F4
790,Left,1,60,80,130.0,0.239583,Sixteenth,F3_C4
789,Right,0,69,80,130.0,0.489583,Eighth,A4
792,Left,1,65,80,130.25,0.239583,Sixteenth,F4
794,Right,0,69,80,130.5,0.489583,Eighth,A4
793,Left,1,63,80,130.5,0.239583,Sixteenth,D#4
795,Left,1,65,80,130.75,0.239583,Sixteenth,F4
798,Right,0,72,80,131.0,0.989583,Quarter,C5_A4
796,Left,1,58,80,131.0,1.489583,DottedQuarter,D#4_A#3
801,Right,0,70,80,132.0,0.489583,Eighth,A#4
800,Left,1,62,80,132.0,0.489583,Eighth,D4
802,Right,0,58,110,132.5,0.114583,ThirtySecond,A#3
803,Left,1,46,110,132.5,0.114583,ThirtySecond,A#2
805,Right,0,60,110,132.5625,0.104167,ThirtySecond,C4
804,Left,1,48,110,132.5625,0.104167,ThirtySecond,C3
807,Right,0,58,110,132.625,0.104167,ThirtySecond,A#3
806,Left,1,46,110,132.625,0.104167,ThirtySecond,A#2
809,Right,0,60,110,132.6875,0.104167,ThirtySecond,C4
808,Left,1,48,110,132.6875,0.104167,ThirtySecond,C3
811,Right,0,58,110,132.75,0.09375,TripletThirtySecond,A#3
810,Left,1,46,110,132.75,0.09375,TripletThirtySecond,A#2
812,Left,1,48,110,132.8125,0.104167,ThirtySecond,C3
813,Right,0,60,110,132.8125,0.104167,ThirtySecond,C4
814,Left,1,45,110,132.875,0.114583,ThirtySecond,A2
815,Right,0,57,110,132.875,0.114583,ThirtySecond,A3
816,Left,1,46,110,132.9375,0.052083,SixtyFourth,A#2
817,Right,0,58,110,132.9375,0.052083,SixtyFourth,A#3
819,Left,1,53,110,133.0,0.489583,Eighth,F3
818,Right,0,65,110,133.0,0.489583,Eighth,F4
820,Left,1,46,110,133.5,0.489583,Eighth,A#2
821,Right,0,58,110,133.5,0.489583,Eighth,A#3
823,Right,0,58,110,134.0,0.489583,Eighth,A#3
822,Left,1,46,110,134.0,0.489583,Eighth,A#2
824,Left,1,46,110,134.5,0.114583,ThirtySecond,A#2
825,Right,0,58,110,134.5,0.114583,ThirtySecond,A#3
826,Left,1,48,110,134.5625,0.104167,ThirtySecond,C3
827,Right,0,60,110,134.5625,0.104167,ThirtySecond,C4
829,Left,1,46,110,134.625,0.104167,ThirtySecond,A#2
828,Right,0,58,110,134.625,0.104167,ThirtySecond,A#3
830,Left,1,48,110,134.6875,0.104167,ThirtySecond,C3
831,Right,0,60,110,134.6875,0.104167,ThirtySecond,C4
832,Left,1,46,110,134.75,0.09375,TripletThirtySecond,A#2
833,Right,0,58,110,134.75,0.09375,TripletThirtySecond,A#3
835,Right,0,60,110,134.8125,0.104167,ThirtySecond,C4
834,Left,1,48,110,134.8125,0.104167,ThirtySecond,C3
836,Left,1,45,110,134.875,0.114583,ThirtySecond,A2
837,Right,0,57,110,134.875,0.114583,ThirtySecond,A3
839,Left,1,46,110,134.9375,0.052083,SixtyFourth,A#2
838,Right,0,58,110,134.9375,0.052083,SixtyFourth,A#3
840,Right,0,65,110,135.0,0.489583,Eighth,F4
841,Left,1,53,110,135.0,0.489583,Eighth,F3
842,Right,0,56,110,135.5,0.489583,Eighth,G#3
843,Left,1,44,110,135.5,0.489583,Eighth,G#2
845,Right,0,56,110,136.0,0.489583,Eighth,G#3
844,Left,1,44,110,136.0,0.489583,Eighth,G#2
846,Right,0,56,110,136.5,0.09375,TripletThirtySecond,G#3
847,Left,1,44,110,136.5,0.09375,TripletThirtySecond,G#2
848,Left,1,46,110,136.5625,0.114583,ThirtySecond,A#2
849,Right,0,58,110,136.5625,0.114583,ThirtySecond,A#3
851,Right,0,56,110,136.625,0.114583,ThirtySecond,G#3
850,Left,1,44,110,136.625,0.114583,ThirtySecond,G#2
853,Right,0,58,110,136.6875,0.114583,ThirtySecond,A#3
852,Left,1,46,110,136.6875,0.114583,ThirtySecond,A#2
855,Left,1,44,110,136.75,0.09375,TripletThirtySecond,G#2
854,Right,0,56,110,136.75,0.09375,TripletThirtySecond,G#3
857,Left,1,46,110,136.8125,0.09375,TripletThirtySecond,A#2
856,Right,0,58,110,136.8125,0.09375,TripletThirtySecond,A#3
859,Left,1,43,110,136.875,0.104167,ThirtySecond,G2
858,Right,0,55,110,136.875,0.104167,ThirtySecond,G3
861,Left,1,44,110,136.9375,0.052083,SixtyFourth,G#2
860,Right,0,56,110,136.9375,0.052083,SixtyFourth,G#3
863,Left,1,43,110,137.0,0.489583,Eighth,G2
862,Right,0,55,110,137.0,0.489583,Eighth,G3
865,Left,1,46,104,137.5,0.489583,Eighth,A#2
864,Right,0,58,104,137.5,0.489583,Eighth,A#3
866,Left,1,51,97,138.0,0.489583,Eighth,D#3
867,Right,0,63,97,138.0,0.489583,Eighth,D#4
869,Left,1,55,91,138.5,0.489583,Eighth,G3
868,Right,0,67,91,138.5,0.489583,Eighth,G4
872,Right,0,65,80,139.0,0.989583,Eighth,F4_C4
870,Left,1,44,80,139.0,0.989583,Quarter,G#3_G#2
875,Right,0,68,80,139.5,0.489583,Eighth,G#4
874,Left,1,53,80,139.5,0.489583,Eighth,F3
878,Left,1,53,80,140.0,0.989583,Eighth,F3_A#2
876,Right,0,62,80,140.0,0.989583,Eighth,G#3_D4
880,Left,1,50,80,140.5,0.489583,Eighth,D3
881,Right,0,58,80,140.5,0.489583,Eighth,A#3
882,Right,0,63,80,141.0,0.989583,Quarter,G3_D#4_A#3
885,Left,1,39,80,141.0,0.489583,Eighth,D#3_D#2
887,Left,1,63,80,141.5,0.489583,Eighth,G4_D#4
889,Left,1,67,80,142.0,0.489583,Eighth,G4_D#4
891,Right,0,79,80,142.25,0.239583,Sixteenth,G5
892,Right,0,77,80,142.5,0.239583,Sixteenth,F5
893,Right,0,75,80,142.75,0.239583,Sixteenth,D#5
894,Right,0,74,80,143.0,0.489583,Eighth,D5
895,Left,1,65,80,143.5,0.489583,Eighth,G#4_F4
897,Left,1,65,80,144.0,0.489583,Eighth,G#4_F4
899,Right,0,80,80,144.25,0.239583,Sixteenth,G#5
900,Right,0,79,80,144.5,0.239583,Sixteenth,G5
901,Right,0,77,80,144.75,0.239583,Sixteenth,F5
902,Right,0,75,80,145.0,0.489583,Eighth,D#5
903,Left,1,67,80,145.5,0.489583,Eighth,G4_A#4
905,Right,0,87,80,145.75,0.239583,Sixteenth,D#6
906,Left,1,70,80,146.0,0.489583,Eighth,G4_A#4
907,Right,0,86,80,146.0,0.239583,Sixteenth,D6
909,Right,0,87,80,146.25,0.239583,Sixteenth,D#6
911,Left,1,67,80,146.5,0.489583,Eighth,G4_A#4
910,Right,0,86,80,146.5,0.239583,Sixteenth,D6
913,Right,0,84,80,146.75,0.239583,Sixteenth,C6
915,Left,1,68,80,147.0,0.989583,Quarter,G#4_C5
914,Right,0,83,80,147.0,0.239583,Sixteenth,B5
917,Right,0,84,80,147.25,0.239583,Sixteenth,C6
918,Right,0,82,80,147.5,0.239583,Sixteenth,A#5
919,Right,0,80,80,147.75,0.239583,Sixteenth,G#5
921,Left,1,74,80,148.0,0.989583,Quarter,D5_A#4
920,Right,0,79,80,148.0,0.239583,Sixteenth,G5
923,Right,0,77,80,148.25,0.239583,Sixteenth,F5
924,Right,0,84,80,148.5,0.239583,Sixteenth,C6
925,Right,0,82,80,148.75,0.239583,Sixteenth,A#5
926,Right,0,80,80,149.0,0.489583,Eighth,G#5
927,Left,1,63,80,149.5,0.489583,Eighth,D#4_A#4
929,Right,0,79,80,149.5,0.489583,Eighth,G5
930,Left,1,67,80,150.0,0.489583,Eighth,G4_D#4
932,Right,0,79,80,150.25,0.114583,ThirtySecond,G5
933,Right,0,77,80,150.375,0.114583,ThirtySecond,F5
934,Right,0,80,80,150.5,0.114583,ThirtySecond,G#5
935,Right,0,79,80,150.625,0.114583,ThirtySecond,G5
936,Right,0,77,80,150.75,0.114583,ThirtySecond,F5
937,Right,0,75,80,150.875,0.114583,ThirtySecond,D#5
938,Right,0,77,80,151.0,0.083333,TripletThirtySecond,F5
939,Right,0,75,80,151.09375,0.145833,TripletSixteenth,D#5
940,Right,0,74,80,151.25,0.239583,Sixteenth,D5
941,Left,1,68,80,151.5,0.489583,Eighth,G#4_F4
943,Right,0,74,80,151.5,0.489583,Eighth,D5
944,Left,1,65,80,152.0,0.489583,Eighth,G#4_F4
946,Right,0,80,80,152.25,0.114583,ThirtySecond,G#5
947,Right,0,79,80,152.375,0.114583,ThirtySecond,G5
948,Right,0,82,80,152.5,0.114583,ThirtySecond,A#5
949,Right,0,80,80,152.625,0.114583,ThirtySecond,G#5
950,Right,0,79,80,152.75,0.114583,ThirtySecond,G5
951,Right,0,77,80,152.875,0.114583,ThirtySecond,F5
952,Right,0,79,80,153.0,0.083333,TripletThirtySecond,G5
953,Right,0,77,80,153.09375,0.145833,TripletSixteenth,F5
954,Right,0,75,80,153.25,0.239583,Sixteenth,D#5
955,Left,1,70,80,153.5,0.489583,Eighth,G4_A#4
957,Right,0,75,80,153.5,0.489583,Eighth,D#5
958,Left,1,67,80,154.0,0.489583,Eighth,G4_A#4
960,Right,0,87,80,154.25,0.114583,ThirtySecond,D#6
961,Right,0,86,80,154.375,0.114583,ThirtySecond,D6
962,Right,0,89,80,154.5,0.114583,ThirtySecond,F6
963,Left,1,67,80,154.5,0.489583,Eighth,G4_A#4
965,Right,0,87,80,154.625,0.114583,ThirtySecond,D#6
966,Right,0,86,80,154.75,0.114583,ThirtySecond,D6
967,Right,0,84,80,154.875,0.114583,ThirtySecond,C6
968,Left,1,72,80,155.0,0.989583,Quarter,G#4_C5
970,Right,0,83,80,155.0,0.239583,Sixteenth,B5
971,Right,0,84,80,155.25,0.239583,Sixteenth,C6
972,Right,0,82,80,155.5,0.239583,Sixteenth,A#5
973,Right,0,80,80,155.75,0.239583,Sixteenth,G#5
974,Left,1,58,80,156.0,0.989583,Quarter,G#4_F4_A#3
975,Right,0,79,80,156.0,0.239583,Sixteenth,G5
978,Right,0,77,80,156.25,0.239583,Sixteenth,F5
979,Right,0,80,80,156.5,0.239583,Sixteenth,G#5
980,Right,0,74,80,156.75,0.239583,Sixteenth,D5
981,Left,1,67,80,157.0,0.239583,Sixteenth,G4_D#4
983,Right,0,75,80,157.0,0.989583,Quarter,D#5
984,Left,1,70,80,157.25,0.239583,Sixteenth,A#4
985,Left,1,69,80,157.5,0.239583,Sixteenth,A4
986,Left,1,70,80,157.75,0.239583,Sixteenth,A#4
987,Left,1,72,80,158.0,0.239583,Sixteenth,C5
988,Left,1,70,80,158.25,0.239583,Sixteenth,A#4
989,Right,0,77,80,158.5,0.239583,Sixteenth,F5
990,Left,1,68,80,158.5,0.239583,Sixteenth,G#4
991,Right,0,79,80,158.75,0.239583,Sixteenth,G5
992,Left,1,67,80,158.75,0.239583,Sixteenth,G4
994,Left,1,65,80,159.0,0.239583,Sixteenth,F4
993,Right,0,80,80,159.0,0.489583,Eighth,G#5
995,Left,1,70,80,159.25,0.239583,Sixteenth,A#4
996,Right,0,74,80,159.5,0.489583,Eighth,D5
997,Left,1,68,80,159.5,0.239583,Sixteenth,G#4
998,Left,1,70,80,159.75,0.239583,Sixteenth,A#4
999,Right,0,74,80,160.0,0.489583,Eighth,D5
1000,Left,1,58,80,160.0,0.239583,Sixteenth,F4_A#3
1002,Left,1,70,80,160.25,0.239583,Sixteenth,A#4
1004,Left,1,68,80,160.5,0.239583,Sixteenth,G#4
1003,Right,0,74,80,160.5,0.489583,Eighth,D5
1005,Left,1,70,80,160.75,0.239583,Sixteenth,A#4
1006,Right,0,75,80,161.0,0.989583,Quarter,D#5
1007,Left,1,63,80,161.0,0.239583,Sixteenth,D#4
1008,Left,1,67,80,161.25,0.239583,Sixteenth,G4
1009,Left,1,66,80,161.5,0.239583,Sixteenth,F#4
1010,Left,1,67,80,161.75,0.239583,Sixteenth,G4
1011,Left,1,68,80,162.0,0.239583,Sixteenth,G#4
1012,Left,1,67,80,162.25,0.239583,Sixteenth,G4
1014,Left,1,65,80,162.5,0.239583,Sixteenth,F4
1013,Right,0,74,80,162.5,0.239583,Sixteenth,D5
1015,Left,1,63,80,162.75,0.239583,Sixteenth,D#4
1016,Right,0,75,80,162.75,0.239583,Sixteenth,D#5
1018,Left,1,62,80,163.0,0.239583,Sixteenth,D4
1017,Right,0,77,80,163.0,0.489583,Eighth,F5
1019,Left,1,67,80,163.25,0.239583,Sixteenth,G4
1021,Left,1,65,80,163.5,0.239583,Sixteenth,F4
1020,Right,0,71,80,163.5,0.489583,Eighth,B4
1022,Left,1,67,80,163.75,0.239583,Sixteenth,G4
1024,Left,1,55,80,164.0,0.239583,Sixteenth,G3_D4
1023,Right,0,71,80,164.0,0.489583,Eighth,B4
1026,Left,1,67,80,164.25,0.239583,Sixteenth,G4
1028,Right,0,71,80,164.5,0.489583,Eighth,B4
1027,Left,1,65,80,164.5,0.239583,Sixteenth,F4
1029,Left,1,67,80,164.75,0.239583,Sixteenth,G4
1031,Right,0,72,80,165.0,0.989583,Quarter,C5
1030,Left,1,60,80,165.0,0.239583,Sixteenth,C4
1032,Left,1,62,80,165.25,0.239583,Sixteenth,D4
1033,Left,1,63,80,165.5,0.239583,Sixteenth,D#4
1034,Left,1,62,80,165.75,0.239583,Sixteenth,D4
1035,Left,1,60,80,166.0,0.239583,Sixteenth,C4
1036,Left,1,58,80,166.25,0.239583,Sixteenth,A#3
1037,Right,0,81,80,166.5,0.239583,Sixteenth,A5_A4
1039,Left,1,57,80,166.5,0.239583,Sixteenth,A3
1040,Left,1,55,80,166.75,0.239583,Sixteenth,G3
1041,Right,0,70,80,166.75,0.239583,Sixteenth,A#5_A#4
1043,Left,1,54,80,167.0,0.239583,Sixteenth,F#3
1044,Right,0,84,80,167.0,0.489583,Eighth,C6_C5
1046,Left,1,62,80,167.25,0.239583,Sixteenth,D4
1048,Right,0,66,80,167.5,0.489583,Eighth,F#5_F#4
1047,Left,1,57,80,167.5,0.239583,Sixteenth,A3
1050,Left,1,62,80,167.75,0.239583,Sixteenth,D4
1052,Right,0,66,80,168.0,0.489583,Eighth,F#5_F#4
1051,Left,1,60,80,168.0,0.239583,Sixteenth,C4
1054,Left,1,62,80,168.25,0.239583,Sixteenth,D4
1056,Left,1,57,80,168.5,0.239583,Sixteenth,A3
1055,Right,0,66,80,168.5,0.489583,Eighth,F#5_F#4
1058,Left,1,62,80,168.75,0.239583,Sixteenth,D4
1059,Right,0,67,80,169.0,0.989583,Quarter,G5_G4
1061,Left,1,58,80,169.0,0.239583,Sixteenth,A#3
1062,Left,1,62,80,169.25,0.239583,Sixteenth,D4
1063,Left,1,55,80,169.5,0.239583,Sixteenth,G3
1064,Left,1,62,80,169.75,0.239583,Sixteenth,D4
1065,Left,1,54,80,170.0,0.239583,Sixteenth,F#3
1066,Right,0,81,80,170.0,0.989583,Quarter,A5_A4
1068,Left,1,62,80,170.25,0.239583,Sixteenth,D4
1069,Left,1,57,80,170.5,0.239583,Sixteenth,A3
1070,Left,1,62,80,170.75,0.239583,Sixteenth,D4
1071,Right,0,84,80,171.0,0.489583,Eighth,C6_C5
1072,Left,1,55,80,171.0,0.489583,Eighth,G3
1074,Left,1,62,80,171.25,0.489583,Eighth,D4
1075,Right,0,82,80,171.5,0.489583,Eighth,A#5_A#4
1076,Left,1,58,80,171.5,0.489583,Eighth,A#3
1078,Left,1,62,80,171.75,0.489583,Eighth,D4
1081,Left,1,51,80,172.0,0.489583,Eighth,D#3
1079,Right,0,69,80,172.0,0.489583,Eighth,A5_A4
1082,Left,1,61,80,172.25,0.489583,Eighth,C#4
1083,Left,1,55,80,172.5,0.489583,Eighth,G3
1084,Right,0,67,80,172.5,0.489583,Eighth,G5_G4
1086,Left,1,61,80,172.75,0.489583,Eighth,C#4
1087,Left,1,50,80,173.0,0.239583,Sixteenth,D3
1088,Right,0,78,80,173.0,0.989583,Quarter,F#5_F#4
1090,Left,1,62,80,173.25,0.239583,Sixteenth,D4
1091,Left,1,54,80,173.5,0.239583,Sixteenth,F#3
1092,Left,1,62,80,173.75,0.239583,Sixteenth,D4
1093,Left,1,57,80,174.0,0.239583,Sixteenth,A3
1094,Right,0,74,80,174.25,0.239583,Sixteenth,D5
1095,Left,1,62,80,174.25,0.239583,Sixteenth,D4
1096,Right,0,73,80,174.5,0.239583,Sixteenth,C#5
1097,Left,1,54,80,174.5,0.239583,Sixteenth,F#3
1099,Left,1,62,80,174.75,0.239583,Sixteenth,D4
1098,Right,0,74,80,174.75,0.239583,Sixteenth,D5
1102,Left,1,50,80,175.0,0.239583,Sixteenth,D3
1100,Right,0,79,80,175.0,0.489583,Eighth,G5_A#4
1103,Left,1,62,80,175.25,0.239583,Sixteenth,D4
1104,Left,1,55,80,175.5,0.239583,Sixteenth,G3
1105,Left,1,62,80,175.75,0.239583,Sixteenth,D4
1106,Left,1,58,80,176.0,0.239583,Sixteenth,A#3
1108,Right,0,74,80,176.25,0.239583,Sixteenth,D5
1107,Left,1,62,80,176.25,0.239583,Sixteenth,D4
1110,Left,1,55,80,176.5,0.239583,Sixteenth,G3
1109,Right,0,73,80,176.5,0.239583,Sixteenth,C#5
1111,Right,0,74,80,176.75,0.239583,Sixteenth,D5
1112,Left,1,62,80,176.75,0.239583,Sixteenth,D4
1113,Right,0,69,80,177.0,0.489583,Eighth,A4
1114,Left,1,50,80,177.0,0.239583,Sixteenth,D3
1115,Left,1,62,80,177.25,0.239583,Sixteenth,D4
1116,Left,1,54,80,177.5,0.239583,Sixteenth,F#3
1117,Left,1,62,80,177.75,0.239583,Sixteenth,D4
1118,Left,1,57,80,178.0,0.239583,Sixteenth,A3
1120,Left,1,62,80,178.25,0.239583,Sixteenth,D4
1119,Right,0,74,80,178.25,0.239583,Sixteenth,D5
1121,Left,1,54,80,178.5,0.239583,Sixteenth,F#3
1122,Right,0,73,80,178.5,0.239583,Sixteenth,C#5
1123,Right,0,74,80,178.75,0.239583,Sixteenth,D5
1124,Left,1,62,80,178.75,0.239583,Sixteenth,D4
1126,Right,0,70,80,179.0,0.489583,Eighth,G5_A#4
1125,Left,1,50,80,179.0,0.239583,Sixteenth,D3
1128,Left,1,62,80,179.25,0.239583,Sixteenth,D4
1129,Left,1,55,80,179.5,0.239583,Sixteenth,G3
1130,Left,1,62,80,179.75,0.239583,Sixteenth,D4
1131,Left,1,58,80,180.0,0.239583,Sixteenth,A#3
1133,Right,0,74,80,180.25,0.239583,Sixteenth,D5
1132,Left,1,62,80,180.25,0.239583,Sixteenth,D4
1134,Right,0,73,80,180.5,0.239583,Sixteenth,C#5
1135,Left,1,55,80,180.5,0.239583,Sixteenth,G3
1136,Left,1,62,80,180.75,0.239583,Sixteenth,D4
1137,Right,0,74,80,180.75,0.239583,Sixteenth,D5
1138,Left,1,50,80,181.0,0.239583,Sixteenth,D3
1139,Right,0,69,80,181.0,0.989583,Quarter,A4
1140,Left,1,62,80,181.25,0.239583,Sixteenth,D4
1141,Left,1,54,80,181.5,0.239583,Sixteenth,F#3
1142,Left,1,62,80,181.75,0.239583,Sixteenth,D4
1144,Right,0,71,80,182.0,0.989583,Quarter,B4
1143,Left,1,50,80,182.0,0.239583,Sixteenth,D3
1145,Left,1,62,80,182.25,0.239583,Sixteenth,D4
1146,Left,1,56,80,182.5,0.239583,Sixteenth,G#3
1147,Left,1,62,80,182.75,0.239583,Sixteenth,D4
1149,Left,1,50,80,183.0,0.239583,Sixteenth,D3
1148,Right,0,72,80,183.0,1.489583,DottedQuarter,C5
1150,Left,1,62,80,183.25,0.239583,Sixteenth,D4
1151,Left,1,56,80,183.5,0.239583,Sixteenth,G#3
1152,Left,1,62,80,183.75,0.239583,Sixteenth,D4
1153,Left,1,57,80,184.0,0.239583,Sixteenth,A3
1154,Left,1,62,80,184.25,0.239583,Sixteenth,D4
1155,Right,0,70,80,184.5,0.489583,Eighth,A#4
1156,Left,1,55,80,184.5,0.239583,Sixteenth,G3
1157,Left,1,62,80,184.75,0.239583,Sixteenth,D4
1159,Right,0,69,80,185.0,0.489583,Eighth,A4
1158,Left,1,50,80,185.0,0.239583,Sixteenth,D3
1160,Left,1,62,80,185.25,0.239583,Sixteenth,D4
1162,Right,0,81,80,185.5,0.489583,Eighth,A5
1161,Left,1,54,80,185.5,0.239583,Sixteenth,F#3
1163,Left,1,62,80,185.75,0.239583,Sixteenth,D4
1165,Right,0,71,80,186.0,0.489583,Eighth,B4
1164,Left,1,50,80,186.0,0.239583,Sixteenth,D3
1166,Left,1,62,80,186.25,0.239583,Sixteenth,D4
1168,Right,0,83,80,186.5,0.489583,Eighth,B5
1167,Left,1,56,80,186.5,0.239583,Sixteenth,G#3
1169,Left,1,62,80,186.75,0.239583,Sixteenth,D4
1171,Right,0,72,80,187.0,0.489583,Eighth,C5
1170,Left,1,50,80,187.0,0.239583,Sixteenth,D3
1172,Left,1,62,80,187.25,0.239583,Sixteenth,D4
1173,Right,0,84,80,187.5,0.989583,Quarter,C6
1174,Left,1,56,80,187.5,0.239583,Sixteenth,G#3
1175,Left,1,62,80,187.75,0.239583,Sixteenth,D4
1176,Left,1,57,80,188.0,0.239583,Sixteenth,A3
1177,Left,1,62,80,188.25,0.239583,Sixteenth,D4
1179,Left,1,55,80,188.5,0.239583,Sixteenth,G3
1178,Right,0,70,80,188.5,0.489583,Eighth,A#4
1180,Left,1,62,80,188.75,0.239583,Sixteenth,D4
1182,Right,0,69,80,189.0,0.489583,Eighth,A4
1181,Left,1,50,80,189.0,0.239583,Sixteenth,D3
1183,Left,1,62,80,189.25,0.239583,Sixteenth,D4
1184,Left,1,54,80,189.5,0.239583,Sixteenth,F#3
1185,Right,0,81,80,189.5,0.489583,Eighth,A5
1186,Left,1,62,80,189.75,0.239583,Sixteenth,D4
1187,Left,1,50,80,190.0,0.239583,Sixteenth,D3
1188,Right,0,71,80,190.0,0.489583,Eighth,B4
1189,Left,1,62,80,190.25,0.239583,Sixteenth,D4
1191,Left,1,56,80,190.5,0.239583,Sixteenth,G#3
1190,Right,0,83,80,190.5,0.489583,Eighth,B5
1192,Left,1,62,80,190.75,0.239583,Sixteenth,D4
1194,Left,1,50,80,191.0,1.989583,Half,D3
1193,Right,0,72,80,191.0,0.489583,Eighth,C5
1195,Left,1,57,80,191.125,1.864583,Half,A3
1196,Left,1,62,80,191.25,1.739583,DottedQuarter,D4
1197,Right,0,84,80,191.5,0.489583,Eighth,C6
1198,Right,0,73,80,192.0,0.489583,Eighth,C#5
1199,Right,0,85,80,192.5,0.489583,Eighth,C#6
1200,Right,0,74,80,193.0,0.489583,Eighth,D5
1203,Right,0,67,80,193.5,0.489583,Eighth,G4
1201,Left,1,58,80,193.5,0.489583,Eighth,D4_A#3
1205,Left,1,60,80,194.0,0.489583,Eighth,C4_A3
1204,Right,0,66,80,194.0,0.489583,Eighth,F#4
1207,Right,0,67,80,194.5,0.489583,Eighth,G4
1208,Left,1,58,80,194.5,0.489583,Eighth,G3_A#3
1211,Left,1,57,80,195.0,0.489583,Eighth,F#3_A3
1210,Right,0,72,80,195.0,1.989583,Half,D4_C5
1214,Left,1,54,80,195.5,0.489583,Eighth,F#3_D3
1216,Left,1,55,80,196.0,0.489583,Eighth,G3_E3
1218,Left,1,57,80,196.5,0.489583,Eighth,F#3_A3
1221,Left,1,58,80,197.0,0.489583,Eighth,G3_A#3
1220,Right,0,70,80,197.0,0.489583,Eighth,A#4
1225,Right,0,67,80,197.5,0.489583,Eighth,G4
1223,Left,1,62,80,197.5,0.489583,Eighth,D4_A#3
1226,Left,1,60,80,198.0,0.489583,Eighth,C4_A3
1227,Right,0,66,80,198.0,0.489583,Eighth,F#4
1229,Right,0,67,80,198.5,0.489583,Eighth,G4
1230,Left,1,55,80,198.5,0.489583,Eighth,G3_A#3
1234,Left,1,48,80,199.0,0.489583,Eighth,C3
1232,Right,0,75,80,199.0,1.989583,Half,D#5_D#4
1235,Left,1,51,80,199.5,0.489583,Eighth,D#3
1236,Left,1,55,80,200.0,0.489583,Eighth,G3
1237,Left,1,60,80,200.5,0.489583,Eighth,C4
1238,Left,1,58,80,201.0,0.989583,Quarter,A#3
1239,Right,0,74,80,201.0,0.489583,Eighth,D5
1240,Right,0,78,80,201.5,0.489583,Eighth,F#5
1241,Right,0,79,80,202.0,0.489583,Eighth,G5
1243,Left,1,58,80,202.5,0.489583,Eighth,D4_A#3
1242,Right,0,74,80,202.5,0.489583,Eighth,D5
1245,Right,0,72,80,203.0,0.489583,Eighth,C5
1246,Left,1,54,80,203.0,0.989583,Quarter,F#3_D4
1248,Right,0,80,80,203.5,0.489583,Eighth,G#5
1249,Right,0,81,80,204.0,0.489583,Eighth,A5
1250,Left,1,54,80,204.5,0.489583,Eighth,F#3_D4
1251,Right,0,72,80,204.5,0.489583,Eighth,C5
1253,Left,1,62,80,205.0,0.989583,Quarter,G3_D4
1254,Right,0,70,80,205.0,0.489583,Eighth,A#4
1256,Right,0,79,80,205.5,0.489583,Eighth,G5
1257,Left,1,48,80,206.0,0.989583,Quarter,C4_C3
1258,Right,0,69,80,206.0,0.489583,Eighth,A4
1260,Right,0,75,80,206.5,0.489583,Eighth,D#5
1261,Left,1,50,80,207.0,1.489583,DottedQuarter,D3_A#3
1263,Right,0,67,80,207.0,0.739583,DottedEighth,G4
1264,Right,0,69,80,207.75,0.114583,ThirtySecond,A4
1265,Right,0,67,80,207.875,0.114583,ThirtySecond,G4
1267,Right,0,66,80,208.0,0.489583,Eighth,F#4
1266,Left,1,57,80,208.0,0.489583,Eighth,A3
1268,Left,1,62,80,208.5,0.489583,Eighth,D4
1269,Left,1,70,80,209.0,0.489583,Eighth,A#4
1270,Right,0,74,80,209.25,0.239583,Sixteenth,D5
1271,Left,1,67,80,209.5,0.489583,Eighth,G4
1272,Right,0,82,80,209.5,0.239583,Sixteenth,A#5
1273,Right,0,74,80,209.75,0.239583,Sixteenth,D5
1275,Left,1,66,80,210.0,0.489583,Eighth,F#4
1274,Right,0,72,80,210.0,0.239583,Sixteenth,C5_A5
1277,Right,0,74,80,210.25,0.239583,Sixteenth,D5
1278,Right,0,79,80,210.5,0.239583,Sixteenth,G5_A#4
1279,Left,1,67,80,210.5,0.489583,Eighth,G4
1281,Right,0,74,80,210.75,0.239583,Sixteenth,D5
1284,Right,0,78,80,211.0,0.239583,Sixteenth,F#5
1282,Left,1,72,80,211.0,1.989583,Half,D4_C5
1285,Right,0,74,80,211.25,0.239583,Sixteenth,D5
1286,Right,0,73,80,211.5,0.239583,Sixteenth,C#5
1287,Right,0,74,80,211.75,0.239583,Sixteenth,D5
1288,Right,0,76,80,212.0,0.239583,Sixteenth,E5
1289,Right,0,78,80,212.25,0.239583,Sixteenth,F#5
1290,Right,0,79,80,212.5,0.239583,Sixteenth,G5
1291,Right,0,81,80,212.75,0.239583,Sixteenth,A5
1292,Right,0,82,80,213.0,0.239583,Sixteenth,A#5
1293,Left,1,70,80,213.0,0.489583,Eighth,A#4
1294,Right,0,74,80,213.25,0.239583,Sixteenth,D5
1296,Right,0,86,80,213.5,0.239583,Sixteenth,D6_A#5
1295,Left,1,67,80,213.5,0.489583,Eighth,G4
1298,Right,0,74,80,213.75,0.239583,Sixteenth,D5
1299,Right,0,81,80,214.0,0.239583,Sixteenth,C6_A5
1301,Left,1,66,80,214.0,0.489583,Eighth,F#4
1302,Right,0,74,80,214.25,0.239583,Sixteenth,D5
1303,Right,0,79,80,214.5,0.239583,Sixteenth,G5_A#5
1304,Left,1,67,80,214.5,0.489583,Eighth,G4
1306,Right,0,74,80,214.75,0.239583,Sixteenth,D5
1307,Left,1,65,80,215.0,1.989583,Half,F4_D#5
1308,Right,0,81,80,215.0,0.239583,Sixteenth,A5
1310,Right,0,77,80,215.25,0.239583,Sixteenth,F5
1311,Right,0,76,80,215.5,0.239583,Sixteenth,E5
1312,Right,0,77,80,215.75,0.239583,Sixteenth,F5
1313,Right,0,79,80,216.0,0.239583,Sixteenth,G5
1314,Right,0,81,80,216.25,0.239583,Sixteenth,A5
1315,Right,0,82,80,216.5,0.239583,Sixteenth,A#5
1316,Right,0,84,80,216.75,0.239583,Sixteenth,C6
1317,Right,0,86,80,217.0,0.239583,Sixteenth,D6
1318,Left,1,74,80,217.0,0.489583,Eighth,D5_A#4
1320,Right,0,77,81,217.25,0.239583,Sixteenth,F5
1321,Right,0,86,83,217.5,0.239583,Sixteenth,F6_D6
1323,Left,1,70,83,217.5,0.489583,Eighth,A#4
1324,Right,0,77,85,217.75,0.239583,Sixteenth,F5
1325,Right,0,87,87,218.0,0.239583,Sixteenth,D#6_C6
1327,Left,1,69,87,218.0,0.489583,Eighth,A4
1328,Right,0,77,89,218.25,0.239583,Sixteenth,F5
1331,Left,1,70,91,218.5,0.489583,Eighth,A#4
1329,Right,0,82,91,218.5,0.239583,Sixteenth,D6_A#5
1332,Right,0,77,93,218.75,0.239583,Sixteenth,F5
1333,Right,0,81,95,219.0,0.239583,Sixteenth,C6_A5
1335,Left,1,66,95,219.0,0.489583,Eighth,F#4
1336,Right,0,74,96,219.25,0.239583,Sixteenth,D5
1337,Right,0,79,98,219.5,0.239583,Sixteenth,G5_A#5
1339,Left,1,67,98,219.5,0.489583,Eighth,G4
1340,Right,0,74,100,219.75,0.239583,Sixteenth,D5
1342,Left,1,62,102,220.0,0.489583,Eighth,D4
1341,Right,0,81,102,220.0,0.239583,Sixteenth,F#5_A5
1344,Right,0,72,104,220.25,0.239583,Sixteenth,C5
1346,Right,0,79,106,220.5,0.239583,Sixteenth,G5
1345,Left,1,63,106,220.5,0.489583,Eighth,D#4
1347,Right,0,70,108,220.75,0.239583,Sixteenth,A#4
1348,Left,1,60,110,221.0,1.489583,DottedQuarter,C4
1349,Right,0,69,109,221.25,0.239583,Sixteenth,A4
1350,Right,0,75,107,221.5,0.239583,Sixteenth,D#5
1351,Right,0,74,105,221.75,0.239583,Sixteenth,D5
1352,Right,0,72,103,222.0,0.239583,Sixteenth,C5
1353,Right,0,70,101,222.25,0.239583,Sixteenth,A#4
1355,Left,1,61,99,222.5,0.489583,Eighth,C#4
1354,Right,0,69,99,222.5,0.239583,Sixteenth,A4
1356,Right,0,67,97,222.75,0.239583,Sixteenth,G4
1357,Left,1,62,80,223.0,0.489583,Eighth,D4
1358,Right,0,66,80,223.0,0.239583,Sixteenth,F#4
1359,Right,0,67,80,223.25,0.239583,Sixteenth,G4
1360,Right,0,69,80,223.5,0.239583,Sixteenth,A4
1361,Right,0,68,80,223.75,0.239583,Sixteenth,G#4
1362,Right,0,69,80,224.0,0.239583,Sixteenth,A4
1363,Right,0,71,80,224.25,0.239583,Sixteenth,B4
1364,Right,0,72,80,224.5,0.239583,Sixteenth,C5
1365,Right,0,71,80,224.75,0.239583,Sixteenth,B4
1366,Left,1,54,80,225.0,0.239583,Sixteenth,F#3
1367,Right,0,72,80,225.0,0.489583,Eighth,C5
1368,Left,1,62,80,225.25,0.239583,Sixteenth,D4
1369,Right,0,66,80,225.5,0.489583,Eighth,F#4
1370,Left,1,57,80,225.5,0.239583,Sixteenth,A3
1371,Left,1,62,80,225.75,0.239583,Sixteenth,D4
1372,Right,0,66,80,226.0,0.489583,Eighth,F#4
1373,Left,1,60,80,226.0,0.239583,Sixteenth,C4
1374,Left,1,62,80,226.25,0.239583,Sixteenth,D4
1376,Right,0,66,80,226.5,0.489583,Eighth,F#4
1375,Left,1,57,80,226.5,0.239583,Sixteenth,A3
1377,Left,1,62,80,226.75,0.239583,Sixteenth,D4
1378,Right,0,67,80,227.0,0.239583,Sixteenth,G4
1379,Left,1,58,80,227.0,0.239583,Sixteenth,A#3
1380,Left,1,62,80,227.25,0.239583,Sixteenth,D4
1381,Right,0,69,80,227.25,0.072917,TripletThirtySecond,A4
1382,Right,0,67,80,227.333333,0.072917,TripletThirtySecond,G4
1383,Right,0,66,80,227.416667,0.072917,TripletThirtySecond,F#4
1385,Left,1,55,80,227.5,0.239583,Sixteenth,G3
1384,Right,0,67,80,227.5,0.239583,Sixteenth,G4
1386,Right,0,70,80,227.75,0.239583,Sixteenth,A#4
1387,Left,1,62,80,227.75,0.239583,Sixteenth,D4
1389,Left,1,58,80,228.0,0.239583,Sixteenth,A#3
1388,Right,0,74,80,228.0,0.489583,Eighth,D5
1390,Left,1,62,80,228.25,0.239583,Sixteenth,D4
1391,Right,0,74,80,228.5,0.489583,Eighth,D5
1392,Left,1,55,80,228.5,0.239583,Sixteenth,G3
1393,Left,1,62,80,228.75,0.239583,Sixteenth,D4
1394,Right,0,84,80,229.0,0.489583,Eighth,C6
1395,Left,1,54,80,229.0,0.239583,Sixteenth,F#3
1396,Left,1,62,80,229.25,0.239583,Sixteenth,D4
1397,Right,0,78,80,229.5,0.489583,Eighth,F#5
1398,Left,1,57,80,229.5,0.239583,Sixteenth,A3
1399,Left,1,62,80,229.75,0.239583,Sixteenth,D4
1400,Left,1,60,80,230.0,0.239583,Sixteenth,C4
1401,Right,0,78,80,230.0,0.489583,Eighth,F#5
1402,Left,1,62,80,230.25,0.239583,Sixteenth,D4
1404,Left,1,57,80,230.5,0.239583,Sixteenth,A3
1403,Right,0,78,80,230.5,0.489583,Eighth,F#5
1405,Left,1,62,80,230.75,0.239583,Sixteenth,D4
1407,Left,1,58,80,231.0,0.239583,Sixteenth,A#3
1406,Right,0,79,80,231.0,0.239583,Sixteenth,G5
1408,Left,1,62,80,231.25,0.239583,Sixteenth,D4
1409,Right,0,81,80,231.25,0.072917,TripletThirtySecond,A5
1410,Right,0,79,80,231.333333,0.072917,TripletThirtySecond,G5
1411,Right,0,78,80,231.416667,0.072917,TripletThirtySecond,F#5
1412,Left,1,55,80,231.5,0.239583,Sixteenth,G3
1413,Right,0,79,80,231.5,0.239583,Sixteenth,G5
1415,Left,1,62,80,231.75,0.239583,Sixteenth,D4
1414,Right,0,82,80,231.75,0.239583,Sixteenth,A#5
1416,Left,1,58,80,232.0,0.239583,Sixteenth,A#3
1417,Right,0,86,80,232.0,0.489583,Eighth,D6
1418,Left,1,62,80,232.25,0.239583,Sixteenth,D4
1420,Left,1,55,80,232.5,0.239583,Sixteenth,G3
1419,Right,0,62,80,232.5,0.489583,Eighth,D4
1421,Left,1,62,80,232.75,0.239583,Sixteenth,D4
1422,Left,1,54,80,233.0,0.239583,Sixteenth,F#3
1423,Right,0,72,80,233.0,0.489583,Eighth,C5
1424,Left,1,62,80,233.25,0.239583,Sixteenth,D4
1426,Right,0,66,80,233.5,0.489583,Eighth,F#4
1425,Left,1,57,80,233.5,0.239583,Sixteenth,A3
1427,Left,1,62,80,233.75,0.239583,Sixteenth,D4
1429,Right,0,66,80,234.0,0.489583,Eighth,F#4
1428,Left,1,60,80,234.0,0.239583,Sixteenth,C4
1430,Left,1,62,80,234.25,0.239583,Sixteenth,D4
1432,Left,1,57,80,234.5,0.239583,Sixteenth,A3
1431,Right,0,66,80,234.5,0.489583,Eighth,F#4
1433,Left,1,62,80,234.75,0.239583,Sixteenth,D4
1434,Left,1,58,80,235.0,0.239583,Sixteenth,A#3
1435,Right,0,67,80,235.0,0.239583,Sixteenth,G4
1436,Left,1,62,80,235.25,0.239583,Sixteenth,D4
1437,Right,0,69,80,235.25,0.072917,TripletThirtySecond,A4
1438,Right,0,67,80,235.333333,0.072917,TripletThirtySecond,G4
1439,Right,0,66,80,235.416667,0.072917,TripletThirtySecond,F#4
1440,Left,1,55,80,235.5,0.239583,Sixteenth,G3
1441,Right,0,67,80,235.5,0.239583,Sixteenth,G4
1442,Right,0,69,80,235.75,0.239583,Sixteenth,A4
1443,Left,1,62,80,235.75,0.239583,Sixteenth,D4
1444,Right,0,71,80,236.0,0.239583,Sixteenth,B4
1445,Left,1,53,80,236.0,0.239583,Sixteenth,F3
1447,Right,0,67,80,236.25,0.239583,Sixteenth,G4
1446,Left,1,62,80,236.25,0.239583,Sixteenth,D4
1449,Right,0,69,80,236.5,0.239583,Sixteenth,A4
1448,Left,1,55,80,236.5,0.239583,Sixteenth,G3
1451,Right,0,71,80,236.75,0.239583,Sixteenth,B4
1450,Left,1,62,80,236.75,0.239583,Sixteenth,D4
1453,Right,0,72,80,237.0,0.239583,Sixteenth,C5
1452,Left,1,51,80,237.0,0.239583,Sixteenth,D#3
1455,Right,0,74,80,237.25,0.072917,TripletThirtySecond,D5
1454,Left,1,60,80,237.25,0.239583,Sixteenth,C4
1456,Right,0,72,80,237.333333,0.072917,TripletThirtySecond,C5
1457,Right,0,71,80,237.416667,0.072917,TripletThirtySecond,B4
1459,Right,0,72,80,237.5,0.239583,Sixteenth,C5
1458,Left,1,55,80,237.5,0.239583,Sixteenth,G3
1461,Right,0,74,80,237.75,0.239583,Sixteenth,D5
1460,Left,1,60,80,237.75,0.239583,Sixteenth,C4
1462,Right,0,75,80,238.0,0.239583,Sixteenth,D#5
1463,Left,1,48,80,238.0,0.239583,Sixteenth,C3
1465,Left,1,55,80,238.25,0.239583,Sixteenth,G3
1464,Right,0,77,80,238.25,0.239583,Sixteenth,F5
1466,Left,1,51,80,238.5,0.239583,Sixteenth,D#3
1467,Right,0,79,80,238.5,0.239583,Sixteenth,G5
1468,Right,0,75,80,238.75,0.239583,Sixteenth,D#5
1469,Left,1,55,80,238.75,0.239583,Sixteenth,G3
1471,Left,1,46,80,239.0,0.239583,Sixteenth,A#2
1470,Right,0,74,80,239.0,0.489583,Eighth,D5
1472,Left,1,55,80,239.25,0.239583,Sixteenth,G3
1474,Left,1,50,80,239.5,0.239583,Sixteenth,D3
1473,Right,0,75,80,239.5,0.239583,Sixteenth,D#5
1475,Right,0,74,80,239.75,0.239583,Sixteenth,D5
1476,Left,1,55,80,239.75,0.239583,Sixteenth,G3
1478,Left,1,48,80,240.0,0.239583,Sixteenth,C3
1477,Right,0,77,80,240.0,0.239583,Sixteenth,F5
1479,Right,0,75,80,240.25,0.239583,Sixteenth,D#5
1480,Left,1,57,80,240.25,0.239583,Sixteenth,A3
1482,Right,0,74,80,240.5,0.239583,Sixteenth,D5
1481,Left,1,51,80,240.5,0.239583,Sixteenth,D#3
1484,Left,1,57,80,240.75,0.239583,Sixteenth,A3
1483,Right,0,72,80,240.75,0.239583,Sixteenth,C5
1485,Right,0,70,80,241.0,0.739583,DottedEighth,A#4
1486,Left,1,50,80,241.0,0.239583,Sixteenth,D3
1487,Left,1,58,80,241.25,0.239583,Sixteenth,A#3
1488,Left,1,55,80,241.5,0.239583,Sixteenth,G3
1489,Right,0,72,80,241.75,0.09375,TripletThirtySecond,C5
1490,Left,1,58,80,241.75,0.239583,Sixteenth,A#3
1491,Right,0,70,80,241.8125,0.104167,ThirtySecond,A#4
1492,Right,0,69,80,241.875,0.104167,ThirtySecond,A4
1493,Right,0,70,80,241.9375,0.052083,SixtyFourth,A#4
1494,Left,1,50,80,242.0,0.239583,Sixteenth,D3
1495,Right,0,74,80,242.0,0.239583,Sixteenth,D5
1497,Left,1,60,80,242.25,0.239583,Sixteenth,C4
1496,Right,0,72,80,242.25,0.239583,Sixteenth,C5
1498,Left,1,54,80,242.5,0.239583,Sixteenth,F#3
1499,Right,0,70,80,242.5,0.239583,Sixteenth,A#4
1501,Left,1,60,80,242.75,0.239583,Sixteenth,C4
1500,Right,0,69,80,242.75,0.239583,Sixteenth,A4
1503,Left,1,58,80,243.0,0.239583,Sixteenth,A#3
1502,Right,0,67,80,243.0,0.239583,Sixteenth,G4
1505,Left,1,62,80,243.25,0.239583,Sixteenth,D4
1504,Right,0,69,80,243.25,0.072917,TripletThirtySecond,A4
1506,Right,0,67,80,243.333333,0.072917,TripletThirtySecond,G4
1507,Right,0,66,80,243.416667,0.072917,TripletThirtySecond,F#4
1508,Left,1,55,80,243.5,0.239583,Sixteenth,G3
1509,Right,0,67,80,243.5,0.239583,Sixteenth,G4
1510,Right,0,69,80,243.75,0.239583,Sixteenth,A4
1511,Left,1,62,80,243.75,0.239583,Sixteenth,D4
1512,Right,0,71,80,244.0,0.239583,Sixteenth,B4
1513,Left,1,53,80,244.0,0.239583,Sixteenth,F3
1515,Right,0,67,80,244.25,0.239583,Sixteenth,G4
1514,Left,1,62,80,244.25,0.239583,Sixteenth,D4
1517,Right,0,69,80,244.5,0.239583,Sixteenth,A4
1516,Left,1,55,80,244.5,0.239583,Sixteenth,G3
1519,Right,0,71,80,244.75,0.239583,Sixteenth,B4
1518,Left,1,62,80,244.75,0.239583,Sixteenth,D4
1520,Left,1,51,80,245.0,0.239583,Sixteenth,D#3
1521,Right,0,72,80,245.0,0.239583,Sixteenth,C5
1523,Left,1,60,83,245.25,0.239583,Sixteenth,C4
1522,Right,0,74,83,245.25,0.072917,TripletThirtySecond,D5
1524,Right,0,72,85,245.333333,0.072917,TripletThirtySecond,C5
1525,Right,0,71,86,245.416667,0.072917,TripletThirtySecond,B4
1526,Right,0,72,87,245.5,0.239583,Sixteenth,C5
1527,Left,1,55,87,245.5,0.239583,Sixteenth,G3
1529,Left,1,60,91,245.75,0.239583,Sixteenth,C4
1528,Right,0,74,91,245.75,0.239583,Sixteenth,D5
1530,Right,0,75,95,246.0,0.239583,Sixteenth,D#5
1531,Left,1,48,95,246.0,0.239583,Sixteenth,C3
1533,Left,1,55,98,246.25,0.239583,Sixteenth,G3
1532,Right,0,76,98,246.25,0.239583,Sixteenth,E5
1534,Right,0,77,102,246.5,0.239583,Sixteenth,F5
1535,Left,1,51,102,246.5,0.239583,Sixteenth,D#3
1536,Right,0,78,106,246.75,0.239583,Sixteenth,F#5
1537,Left,1,55,106,246.75,0.239583,Sixteenth,G3
1539,Left,1,49,110,247.0,0.239583,Sixteenth,C#3
1538,Right,0,79,110,247.0,1.239583,TiedQuarter-Sixteenth,G5
1540,Left,1,58,110,247.25,0.239583,Sixteenth,A#3
1541,Left,1,52,110,247.5,0.239583,Sixteenth,E3
1542,Left,1,58,110,247.75,0.239583,Sixteenth,A#3
1543,Left,1,55,110,248.0,0.239583,Sixteenth,G3
1544,Right,0,81,110,248.25,0.15625,TripletSixteenth,A5
1545,Left,1,58,110,248.25,0.239583,Sixteenth,A#3
1546,Right,0,79,110,248.333333,0.15625,TripletSixteenth,G5
1547,Right,0,78,110,248.416667,0.15625,TripletSixteenth,F#5
1549,Left,1,52,110,248.5,0.239583,Sixteenth,E3
1548,Right,0,79,110,248.5,0.239583,Sixteenth,G5
1551,Left,1,58,110,248.75,0.239583,Sixteenth,A#3
1550,Right,0,81,110,248.75,0.239583,Sixteenth,A5
1553,Right,0,82,120,249.0,0.989583,Quarter,A#5
1552,Left,1,49,110,249.0,0.239583,Sixteenth,C#3
1554,Left,1,58,110,249.25,0.239583,Sixteenth,A#3
1555,Left,1,52,110,249.5,0.239583,Sixteenth,E3
1556,Left,1,58,110,249.75,0.239583,Sixteenth,A#3
1558,Right,0,61,121,250.0,0.989583,Quarter,C#4
1557,Left,1,55,110,250.0,0.239583,Sixteenth,G3
1559,Left,1,58,110,250.25,0.239583,Sixteenth,A#3
1560,Left,1,49,110,250.5,0.239583,Sixteenth,C#3
1561,Left,1,58,110,250.75,0.239583,Sixteenth,A#3
1562,Right,0,62,110,251.0,0.489583,Eighth,D4
1563,Left,1,50,110,251.0,0.239583,Sixteenth,D3
1564,Left,1,62,110,251.25,0.239583,Sixteenth,D4
1566,Left,1,55,80,251.5,0.239583,Sixteenth,G3
1565,Right,0,74,80,251.5,0.989583,Quarter,D5
1567,Left,1,62,80,251.75,0.239583,Sixteenth,D4
1568,Left,1,58,80,252.0,0.239583,Sixteenth,A#3
1569,Left,1,62,80,252.25,0.239583,Sixteenth,D4
1570,Right,0,73,80,252.5,0.239583,Sixteenth,C#5
1571,Left,1,55,80,252.5,0.239583,Sixteenth,G3
1573,Right,0,74,80,252.75,0.239583,Sixteenth,D5
1572,Left,1,62,80,252.75,0.239583,Sixteenth,D4
1575,Right,0,75,80,253.0,0.239583,Sixteenth,D#5
1574,Left,1,50,80,253.0,0.239583,Sixteenth,D3
1576,Left,1,62,80,253.25,0.239583,Sixteenth,D4
1577,Right,0,74,80,253.25,0.239583,Sixteenth,D5
1578,Left,1,57,80,253.5,0.239583,Sixteenth,A3
1579,Right,0,72,80,253.5,0.239583,Sixteenth,C5
1581,Left,1,62,80,253.75,0.239583,Sixteenth,D4
1580,Right,0,70,80,253.75,0.239583,Sixteenth,A#4
1582,Right,0,69,80,254.0,0.239583,Sixteenth,A4
1583,Left,1,60,80,254.0,0.239583,Sixteenth,C4
1585,Right,0,70,80,254.25,0.239583,Sixteenth,A#4
1584,Left,1,62,80,254.25,0.239583,Sixteenth,D4
1587,Left,1,57,80,254.5,0.239583,Sixteenth,A3
1586,Right,0,72,80,254.5,0.239583,Sixteenth,C5
1589,Right,0,66,80,254.75,0.239583,Sixteenth,F#4
1588,Left,1,62,80,254.75,0.239583,Sixteenth,D4
1591,Right,0,67,80,255.0,0.489583,Eighth,G4
1590,Left,1,50,80,255.0,0.239583,Sixteenth,D3
1592,Left,1,62,80,255.25,0.239583,Sixteenth,D4
1593,Left,1,55,80,255.5,0.239583,Sixteenth,G3
1594,Right,0,79,80,255.5,0.989583,Quarter,G5
1595,Left,1,62,80,255.75,0.239583,Sixteenth,D4
1596,Left,1,58,80,256.0,0.239583,Sixteenth,A#3
1597,Left,1,62,80,256.25,0.239583,Sixteenth,D4
1599,Right,0,73,80,256.5,0.239583,Sixteenth,C#5
1598,Left,1,55,80,256.5,0.239583,Sixteenth,G3
1601,Right,0,74,80,256.75,0.239583,Sixteenth,D5
1600,Left,1,62,80,256.75,0.239583,Sixteenth,D4
1602,Right,0,75,80,257.0,0.239583,Sixteenth,D#5
1603,Left,1,50,80,257.0,0.239583,Sixteenth,D3
1604,Right,0,74,80,257.25,0.239583,Sixteenth,D5
1605,Left,1,62,80,257.25,0.239583,Sixteenth,D4
1606,Left,1,57,80,257.5,0.239583,Sixteenth,A3
1607,Right,0,72,80,257.5,0.239583,Sixteenth,C5
1608,Right,0,70,80,257.75,0.239583,Sixteenth,A#4
1609,Left,1,62,80,257.75,0.239583,Sixteenth,D4
1611,Left,1,60,80,258.0,0.239583,Sixteenth,C4
1610,Right,0,69,80,258.0,0.239583,Sixteenth,A4
1612,Right,0,70,80,258.25,0.239583,Sixteenth,A#4
1613,Left,1,62,80,258.25,0.239583,Sixteenth,D4
1614,Left,1,57,80,258.5,0.239583,Sixteenth,A3
1615,Right,0,72,80,258.5,0.239583,Sixteenth,C5
1617,Left,1,62,80,258.75,0.239583,Sixteenth,D4
1616,Right,0,66,80,258.75,0.239583,Sixteenth,F#4
1618,Left,1,55,70,259.0,0.989583,Quarter,G3
1619,Right,0,67,70,259.0,0.489583,Eighth,G4
1620,Right,0,58,70,259.5,0.489583,Eighth,G3_D4_A#3
1623,Right,0,55,70,260.0,0.489583,Eighth,G3_D4_A#3
1627,Left,1,38,70,260.5,0.489583,Eighth,D2
1626,Right,0,62,70,260.5,0.489583,Eighth,G3_D4_A#3
1631,Right,0,57,70,261.0,0.489583,Eighth,D4_C4_A3
1630,Left,1,48,90,261.0,0.489583,Eighth,C3
1634,Left,1,42,70,261.5,0.489583,Eighth,F#2
1635,Right,0,57,70,261.5,0.489583,Eighth,D4_C4_A3
1638,Right,0,57,70,262.0,0.489583,Eighth,D4_C4_A3
1640,Left,1,42,70,262.0,0.489583,Eighth,F#2
1642,Right,0,60,70,262.5,0.489583,Eighth,D4_C4_A3
1644,Left,1,42,70,262.5,0.489583,Eighth,F#2
1647,Right,0,67,70,263.0,0.489583,Eighth,G4
1646,Left,1,43,70,263.0,0.989583,Quarter,G2
1648,Right,0,58,70,263.5,0.489583,Eighth,G3_D4_A#3
1651,Right,0,62,70,264.0,0.489583,Eighth,G3_D4_A#3
1655,Right,0,55,70,264.5,0.489583,Eighth,G3_D4_A#3
1654,Left,1,38,70,264.5,0.489583,Eighth,D2
1659,Right,0,62,70,265.0,0.489583,Eighth,D4_C4_A3
1658,Left,1,48,90,265.0,0.489583,Eighth,C3
1662,Right,0,57,70,265.5,0.489583,Eighth,D4_C4_A3
1664,Left,1,42,70,265.5,0.489583,Eighth,F#2
1666,Right,0,60,70,266.0,0.489583,Eighth,D4_C4_A3
1669,Left,1,42,70,266.0,0.489583,Eighth,F#2
1670,Right,0,57,70,266.5,0.489583,Eighth,D4_C4_A3
1673,Left,1,42,70,266.5,0.489583,Eighth,F#2
1675,Right,0,67,70,267.0,0.489583,Eighth,G4
1674,Left,1,43,70,267.0,0.989583,Quarter,G2
1676,Right,0,62,70,267.5,0.489583,Eighth,G3_D4_A#3
1679,Right,0,55,70,268.0,0.489583,Eighth,G3_D4_A#3
1682,Left,1,38,70,268.5,0.489583,Eighth,D2
1683,Right,0,62,70,268.5,0.489583,Eighth,G3_D4_A#3
1686,Left,1,48,90,269.0,0.489583,Eighth,C3
1687,Right,0,62,70,269.0,0.489583,Eighth,D4_C4_A3
1690,Left,1,42,70,269.5,0.489583,Eighth,F#2
1691,Right,0,60,70,269.5,0.489583,Eighth,D4_C4_A3
1694,Right,0,60,70,270.0,0.489583,Eighth,D4_C4_A3
1697,Left,1,42,70,270.0,0.489583,Eighth,F#2
1699,Right,0,60,70,270.5,0.489583,Eighth,D4_C4_A3
1698,Left,1,42,70,270.5,0.489583,Eighth,F#2
1702,Right,0,62,70,271.0,0.489583,Eighth,D4_A#3
1704,Left,1,43,70,271.0,1.989583,Half,G2
1705,Right,0,55,70,271.5,0.489583,Eighth,G3
1706,Right,0,65,70,272.0,0.489583,Eighth,F4_B3
1708,Right,0,55,70,272.5,0.489583,Eighth,G3
1709,Right,0,60,70,273.0,0.489583,Eighth,D#4_C4
1711,Left,1,31,70,273.0,1.989583,Half,G1
1712,Right,0,55,70,273.5,0.489583,Eighth,G3
1713,Right,0,60,70,274.0,0.489583,Eighth,D#3_C4
1715,Right,0,54,70,274.5,0.489583,Eighth,F#3
1717,Left,1,43,70,275.0,1.989583,Half,G2
1716,Right,0,59,70,275.0,0.489583,Eighth,D3_B3
1719,Right,0,55,70,275.5,0.489583,Eighth,G3
1720,Right,0,53,70,276.0,0.489583,Eighth,F3_D4
1722,Right,0,55,70,276.5,0.489583,Eighth,G3
1723,Right,0,51,70,277.0,0.489583,Eighth,D#3_C4
1724,Left,1,31,70,277.0,1.989583,Half,G1
1726,Right,0,55,70,277.5,0.489583,Eighth,G3
1727,Right,0,54,70,278.0,0.489583,Eighth,F#3_C3
1729,Right,0,51,70,278.5,0.489583,Eighth,D#3
1732,Left,1,43,70,279.0,1.989583,Half,G2_G1
1730,Right,0,55,70,279.0,0.489583,Eighth,G3_B2
1734,Right,0,50,70,279.5,0.489583,Eighth,D3
1735,Right,0,54,70,280.0,0.489583,Eighth,F#3_C3
1737,Right,0,51,70,280.5,0.489583,Eighth,D#3
1740,Right,0,55,70,281.0,0.489583,Eighth,G3_B2
1738,Left,1,43,70,281.0,1.989583,Half,G2_G1
1742,Right,0,50,70,281.5,0.489583,Eighth,D3
1743,Right,0,54,70,282.0,0.489583,Eighth,F#3_C3
1745,Right,0,51,70,282.5,0.489583,Eighth,D#3
1746,Left,1,43,70,283.0,0.989583,Quarter,G2_G1
1748,Right,0,47,70,283.0,0.489583,Eighth,G3_B2
1750,Right,0,50,70,283.5,0.489583,Eighth,D3
1751,Right,0,47,70,284.0,0.489583,Eighth,G3_B2
1753,Left,1,31,70,284.0,0.989583,Quarter,G2_G1
1755,Right,0,50,70,284.5,0.489583,Eighth,D3
1756,Left,1,43,70,285.0,1.989583,Half,G2_G1
1757,Right,0,47,70,285.0,1.989583,Half,G3_B2
