,hand,channel,note,velocity,start_beat,duration,note_value,chord
0,Right,0,62,80,2.0,0.979167,Eighth,D4
1,Right,0,62,80,3.0,0.979167,Eighth,D4
4,Right,0,67,80,4.0,0.979167,Eighth,G4
2,Left,1,59,80,4.0,0.979167,Eighth,D4_B3
5,Left,1,60,80,5.0,0.979167,Eighth,C4_A3
6,Right,0,69,80,5.0,0.979167,Eighth,A4
8,Right,0,71,80,6.0,0.979167,Eighth,B4
9,Left,1,55,80,6.0,1.979167,Quarter,G3_B3
11,Right,0,67,80,7.0,0.979167,Eighth,G4
12,Right,0,64,80,8.0,0.979167,Eighth,E4
13,Right,0,64,80,9.0,0.979167,Eighth,E4
14,Left,1,64,80,10.0,0.979167,Eighth,E4_C4
16,Right,0,69,80,10.0,0.979167,Eighth,A4
18,Left,1,62,80,11.0,0.979167,Eighth,D4_B3
17,Right,0,71,80,11.0,0.979167,Eighth,B4
21,Left,1,60,80,12.0,1.979167,Quarter,C4_A3
20,Right,0,72,80,12.0,0.979167,Eighth,C5
23,Right,0,69,80,13.0,0.979167,Eighth,A4
24,Right,0,76,80,14.0,0.979167,Eighth,E5
25,Right,0,74,80,15.0,0.979167,Eighth,D5
26,Right,0,72,80,16.0,0.979167,Eighth,C5
27,Left,1,57,80,16.0,0.979167,Eighth,F#3_A3
29,Right,0,71,80,17.0,0.979167,Eighth,B4
30,Left,1,59,80,17.0,0.979167,Eighth,G3_B3
33,Left,1,60,80,18.0,0.979167,Eighth,C4_A3
32,Right,0,69,80,18.0,0.979167,Eighth,A4
37,Right,0,67,80,19.0,0.979167,Eighth,G4
35,Left,1,59,80,19.0,0.979167,Eighth,D4_B3
39,Right,0,69,80,20.0,0.979167,Eighth,A4
38,Left,1,64,80,20.0,0.979167,Eighth,E4_C4
43,Right,0,67,80,21.0,0.229167,ThirtySecond,G4
41,Left,1,64,80,21.0,2.979167,DottedQuarter,E4_C#4
44,Right,0,69,80,21.25,0.229167,ThirtySecond,A4
45,Right,0,70,94,21.5,0.479167,Sixteenth,A#4
46,Right,0,69,80,22.0,0.979167,Eighth,A4
47,Right,0,67,80,23.0,0.979167,Eighth,G4
48,Right,0,66,80,24.0,0.979167,Eighth,F#4
49,Left,1,62,80,24.0,1.979167,Quarter,D4
50,Right,0,62,80,25.0,0.979167,Eighth,D4
51,Right,0,62,80,26.0,0.979167,Eighth,D4
52,Right,0,62,80,27.0,0.979167,Eighth,D4
55,Right,0,67,80,28.0,0.979167,Eighth,G4
53,Left,1,62,80,28.0,0.979167,Eighth,D4_B3
57,Right,0,69,80,29.0,0.979167,Eighth,A4
56,Left,1,57,80,29.0,0.979167,Eighth,C4_A3
59,Right,0,71,80,30.0,0.979167,Eighth,B4
60,Left,1,59,80,30.0,1.979167,Quarter,G3_B3
62,Right,0,67,80,31.0,0.979167,Eighth,G4
63,Right,0,64,80,32.0,0.979167,Eighth,E4
64,Right,0,64,80,33.0,0.979167,Eighth,E4
65,Left,1,64,80,34.0,0.979167,Eighth,E4_C4
67,Right,0,69,80,34.0,0.979167,Eighth,A4
68,Left,1,59,80,35.0,0.979167,Eighth,D4_B3
70,Right,0,71,80,35.0,0.979167,Eighth,B4
73,Right,0,72,80,36.0,0.979167,Eighth,C5
71,Left,1,57,80,36.0,1.979167,Quarter,C4_A3
74,Right,0,69,80,37.0,0.979167,Eighth,A4
75,Right,0,76,80,38.0,0.979167,Eighth,E5
76,Right,0,74,80,39.0,0.979167,Eighth,D5
77,Right,0,72,80,40.0,0.979167,Eighth,C5
78,Left,1,54,80,40.0,0.979167,Eighth,F#3_A3
80,Right,0,71,80,41.0,0.979167,Eighth,B4
81,Left,1,59,80,41.0,0.979167,Eighth,G3_B3
83,Right,0,69,80,42.0,0.979167,Eighth,A4
84,Left,1,57,80,42.0,0.979167,Eighth,C4_A3
88,Right,0,67,80,43.0,0.979167,Eighth,G4
86,Left,1,59,80,43.0,0.979167,Eighth,D4_B3
89,Right,0,69,80,44.0,0.979167,Eighth,A4
90,Left,1,64,80,44.0,0.979167,Eighth,E4_C4
92,Left,1,50,80,45.0,1.979167,Quarter,D3_B3
94,Right,0,62,80,45.0,1.979167,Quarter,D4
95,Right,0,67,80,46.0,0.979167,Eighth,G4
97,Right,0,66,80,47.0,0.979167,Eighth,F#4_C4
96,Left,1,57,80,47.0,0.979167,Eighth,D3_A3
101,Right,0,59,80,48.0,1.979167,Quarter,G4_B3
100,Left,1,55,80,48.0,1.979167,Quarter,G3_G2
104,Right,0,62,80,50.0,0.979167,Eighth,D4
105,Right,0,67,80,51.0,0.979167,Eighth,G4
106,Right,0,71,80,52.0,0.979167,Eighth,B4
107,Right,0,74,80,53.0,0.979167,Eighth,D5
108,Right,0,74,80,54.0,0.979167,Eighth,D5
109,Left,1,54,80,55.0,0.979167,Eighth,F#3_D4
111,Right,0,69,80,55.0,0.979167,Eighth,C5_A4
114,Right,0,69,80,56.0,0.979167,Eighth,C5_A4
113,Left,1,62,80,56.0,0.979167,Eighth,F#3_D4
117,Right,0,74,80,57.0,0.979167,Eighth,D5
120,Left,1,55,80,58.0,0.979167,Eighth,G3_D4
118,Right,0,67,80,58.0,0.979167,Eighth,G4_B4
124,Right,0,71,80,59.0,0.979167,Eighth,G4_B4
122,Left,1,55,80,59.0,0.979167,Eighth,G3_D4
126,Right,0,74,80,60.0,0.979167,Eighth,D5
128,Right,0,69,80,61.0,0.979167,Eighth,C5_A4
127,Left,1,54,80,61.0,0.979167,Eighth,F#3_D4
131,Left,1,62,80,62.0,0.979167,Eighth,F#3_D4
132,Right,0,69,80,62.0,0.979167,Eighth,C5_A4
135,Right,0,74,80,63.0,0.979167,Eighth,D5
136,Right,0,67,82,64.0,0.979167,Eighth,G4_B4
137,Left,1,55,82,64.0,0.979167,Eighth,G3_D4
141,Right,0,67,84,65.0,0.979167,Eighth,G4_B4
140,Left,1,62,84,65.0,0.979167,Eighth,G3_D4
144,Right,0,74,87,66.0,0.979167,Eighth,D5
146,Left,1,62,89,67.0,0.979167,Eighth,F#3_D4
145,Right,0,69,89,67.0,0.979167,Eighth,C5_A4
149,Left,1,62,92,68.0,0.979167,Eighth,G3_D4
150,Right,0,67,92,68.0,0.979167,Eighth,G4_B4
153,Right,0,74,94,69.0,0.979167,Eighth,D5
154,Right,0,69,97,70.0,0.979167,Eighth,C5_A4
155,Left,1,62,97,70.0,0.979167,Eighth,F#3_D4
158,Right,0,71,99,71.0,0.979167,Eighth,G4_B4
160,Left,1,62,99,71.0,0.979167,Eighth,G3_D4
165,Left,1,62,100,72.0,7.979167,Whole,F#3_D4
162,Right,0,69,100,72.0,7.979167,Whole,D5_C5_A4
167,Right,0,74,80,80.0,0.979167,Eighth,D5
168,Right,0,74,80,81.0,0.979167,Eighth,D5
171,Right,0,79,80,82.0,0.979167,Eighth,G5
169,Left,1,71,80,82.0,0.979167,Eighth,D5_B4
172,Right,0,81,80,83.0,0.979167,Eighth,A5
173,Left,1,72,80,83.0,0.979167,Eighth,C5_A4
175,Right,0,83,80,84.0,0.979167,Eighth,B5
176,Left,1,71,80,84.0,1.979167,Quarter,G4_B4
178,Right,0,79,80,85.0,0.979167,Eighth,G5
179,Right,0,76,80,86.0,0.979167,Eighth,E5
180,Right,0,76,80,87.0,0.979167,Eighth,E5
183,Right,0,81,80,88.0,0.979167,Eighth,A5
181,Left,1,76,80,88.0,0.979167,Eighth,E5_C5
186,Right,0,83,80,89.0,0.979167,Eighth,B5
184,Left,1,74,80,89.0,0.979167,Eighth,D5_B4
187,Left,1,72,80,90.0,1.979167,Quarter,C5_A4
189,Right,0,84,80,90.0,0.979167,Eighth,C6
190,Right,0,81,80,91.0,0.979167,Eighth,A5
191,Right,0,88,80,92.0,0.979167,Eighth,E6
192,Right,0,86,80,93.0,0.979167,Eighth,D6
195,Right,0,84,80,94.0,0.979167,Eighth,C6
193,Left,1,66,80,94.0,0.979167,Eighth,F#4_A4
197,Left,1,67,80,95.0,0.979167,Eighth,G4_B4
196,Right,0,83,80,95.0,0.979167,Eighth,B5
199,Left,1,69,80,96.0,0.979167,Eighth,C5_A4
200,Right,0,83,80,96.0,0.229167,ThirtySecond,B5
202,Right,0,81,80,96.239583,0.739583,DottedSixteenth,A5
203,Left,1,71,80,97.0,0.979167,Eighth,D5_B4
205,Right,0,79,80,97.0,0.979167,Eighth,G5
208,Right,0,81,80,98.0,0.979167,Eighth,A5
206,Left,1,76,80,98.0,0.979167,Eighth,E5_C5
209,Left,1,62,80,99.0,1.979167,Quarter,D4_B4
210,Right,0,74,80,99.0,1.979167,Quarter,D5
212,Right,0,79,80,100.0,0.979167,Eighth,G5
215,Right,0,78,80,101.0,0.979167,Eighth,F#5_C5
213,Left,1,69,80,101.0,0.979167,Eighth,D4_A4
217,Right,0,79,80,102.0,1.979167,Quarter,G5_B4
218,Left,1,55,80,102.0,1.979167,Quarter,G4_G3
222,Right,0,74,110,104.0,0.979167,Eighth,D5
221,Left,1,62,110,104.0,0.979167,Eighth,D4
224,Right,0,75,110,105.0,0.229167,ThirtySecond,D#5
223,Left,1,63,110,105.0,0.229167,ThirtySecond,D#4
226,Left,1,62,110,105.239583,0.739583,DottedSixteenth,D4
225,Right,0,74,110,105.239583,0.739583,DottedSixteenth,D5
227,Left,1,61,110,106.0,0.979167,Eighth,C#4
228,Right,0,73,110,106.0,0.979167,Eighth,C#5
229,Left,1,62,110,107.0,0.979167,Eighth,D4
230,Right,0,74,110,107.0,0.979167,Eighth,D5
232,Right,0,75,110,108.0,1.979167,Quarter,D#5
231,Left,1,63,110,108.0,1.979167,Quarter,D#4
233,Left,1,62,110,110.0,0.979167,Eighth,D4
234,Right,0,74,110,110.0,0.979167,Eighth,D5
235,Left,1,60,110,111.0,0.979167,Eighth,C4
236,Right,0,72,110,111.0,0.979167,Eighth,C5
237,Left,1,58,110,112.0,0.979167,Eighth,A#3
238,Right,0,70,110,112.0,0.979167,Eighth,A#4
239,Right,0,69,110,113.0,0.979167,Eighth,A4
240,Left,1,57,110,113.0,0.979167,Eighth,A3
241,Right,0,74,110,114.0,1.979167,Quarter,D5
242,Left,1,62,110,114.0,1.979167,Quarter,D4
243,Left,1,60,110,116.0,0.979167,Eighth,C4
244,Right,0,72,110,116.0,0.979167,Eighth,C5
246,Right,0,70,110,117.0,0.979167,Eighth,A#4
245,Left,1,58,110,117.0,0.979167,Eighth,A#3
248,Right,0,69,110,118.0,0.979167,Eighth,A4
247,Left,1,57,110,118.0,0.979167,Eighth,A3
249,Right,0,67,110,119.0,0.979167,Eighth,G4
250,Left,1,55,110,119.0,0.979167,Eighth,G3
253,Right,0,63,110,120.0,0.979167,Eighth,D#4
251,Left,1,57,110,120.0,2.979167,DottedQuarter,C3_A3
254,Right,0,72,110,121.0,0.979167,Eighth,C5
255,Right,0,70,110,122.0,0.979167,Eighth,A#4
257,Right,0,69,110,123.0,0.979167,Eighth,A4
256,Left,1,50,110,123.0,2.979167,DottedQuarter,D3_C4
259,Right,0,67,110,124.0,0.979167,Eighth,G4
260,Right,0,66,110,125.0,0.979167,Eighth,F#4
261,Left,1,55,100,126.0,0.479167,Sixteenth,G3
262,Right,0,67,100,126.0,1.979167,Quarter,G4
263,Left,1,62,94,126.5,0.479167,Sixteenth,D4
264,Left,1,58,87,127.0,0.479167,Sixteenth,A#3
265,Left,1,62,81,127.5,0.479167,Sixteenth,D4
266,Left,1,58,80,128.0,0.479167,Sixteenth,A#3
267,Right,0,86,80,128.0,0.979167,Eighth,D6
268,Left,1,62,80,128.5,0.479167,Sixteenth,D4
269,Right,0,86,80,129.0,0.979167,Eighth,D6
270,Left,1,54,80,129.0,0.479167,Sixteenth,F#3
271,Left,1,62,80,129.5,0.479167,Sixteenth,D4
273,Left,1,57,80,130.0,0.479167,Sixteenth,A3
272,Right,0,85,80,130.0,0.979167,Eighth,C#6
274,Left,1,62,80,130.5,0.479167,Sixteenth,D4
276,Left,1,57,80,131.0,0.479167,Sixteenth,A3
275,Right,0,86,80,131.0,0.979167,Eighth,D6
277,Left,1,62,80,131.5,0.479167,Sixteenth,D4
278,Right,0,86,90,132.0,0.979167,Eighth,D6
279,Left,1,55,90,132.0,0.479167,Sixteenth,G3
280,Left,1,62,91,132.5,0.479167,Sixteenth,D4
282,Right,0,85,93,133.0,0.979167,Eighth,C#6
281,Left,1,58,93,133.0,0.479167,Sixteenth,A#3
283,Left,1,62,95,133.5,0.479167,Sixteenth,D4
285,Right,0,86,96,134.0,0.979167,Eighth,D6
284,Left,1,58,96,134.0,0.479167,Sixteenth,A#3
286,Left,1,62,98,134.5,0.479167,Sixteenth,D4
288,Right,0,86,100,135.0,0.979167,Eighth,D6
287,Left,1,54,100,135.0,0.479167,Sixteenth,F#3
289,Left,1,62,101,135.5,0.479167,Sixteenth,D4
290,Left,1,57,103,136.0,0.479167,Sixteenth,A3
291,Right,0,85,103,136.0,0.979167,Eighth,C#6
292,Left,1,62,105,136.5,0.479167,Sixteenth,D4
293,Right,0,86,106,137.0,0.979167,Eighth,D6
294,Left,1,57,106,137.0,0.479167,Sixteenth,A3
295,Left,1,62,108,137.5,0.479167,Sixteenth,D4
296,Left,1,55,110,138.0,0.479167,Sixteenth,G3
297,Right,0,86,110,138.0,0.979167,Eighth,D6
298,Left,1,62,110,138.5,0.479167,Sixteenth,D4
300,Right,0,84,110,139.0,0.979167,Eighth,C6
299,Left,1,58,110,139.0,0.479167,Sixteenth,A#3
301,Left,1,62,110,139.5,0.479167,Sixteenth,D4
302,Right,0,82,110,140.0,0.979167,Eighth,A#5
303,Left,1,58,110,140.0,0.479167,Sixteenth,A#3
304,Left,1,62,110,140.5,0.479167,Sixteenth,D4
306,Left,1,55,110,141.0,0.479167,Sixteenth,G3
305,Right,0,84,110,141.0,0.229167,ThirtySecond,C6
307,Right,0,82,110,141.239583,0.739583,DottedSixteenth,A#5
308,Left,1,62,110,141.5,0.479167,Sixteenth,D4
309,Left,1,58,110,142.0,0.479167,Sixteenth,A#3
310,Right,0,81,110,142.0,0.979167,Eighth,A5
311,Left,1,62,110,142.5,0.479167,Sixteenth,D4
312,Right,0,79,110,143.0,0.979167,Eighth,G5
313,Left,1,58,110,143.0,0.479167,Sixteenth,A#3
314,Left,1,62,110,143.5,0.479167,Sixteenth,D4
316,Right,0,77,110,144.0,0.979167,Eighth,F5
315,Left,1,57,110,144.0,0.479167,Sixteenth,A3
317,Left,1,62,110,144.5,0.479167,Sixteenth,D4
319,Right,0,79,110,145.0,0.979167,Eighth,G5
318,Left,1,57,110,145.0,0.479167,Sixteenth,A3
320,Left,1,62,110,145.5,0.479167,Sixteenth,D4
322,Left,1,57,110,146.0,0.479167,Sixteenth,A3
321,Right,0,76,110,146.0,0.979167,Eighth,E5
323,Left,1,61,110,146.5,0.479167,Sixteenth,C#4
325,Right,0,74,110,147.0,1.979167,Quarter,D5
324,Left,1,50,110,147.0,0.479167,Sixteenth,D3
326,Left,1,62,110,147.5,0.479167,Sixteenth,D4
327,Left,1,61,110,148.0,0.479167,Sixteenth,C#4
328,Left,1,62,110,148.5,0.479167,Sixteenth,D4
329,Left,1,60,110,149.0,0.479167,Sixteenth,C4
330,Right,0,74,110,149.0,0.979167,Eighth,D5
331,Left,1,57,110,149.5,0.479167,Sixteenth,A3
332,Left,1,55,80,150.0,0.479167,Sixteenth,G3
333,Right,0,87,80,150.0,0.229167,ThirtySecond,D#6
334,Right,0,86,80,150.239583,0.739583,DottedSixteenth,D6
335,Left,1,62,80,150.5,0.479167,Sixteenth,D4
337,Right,0,85,80,151.0,0.979167,Eighth,C#6
336,Left,1,58,80,151.0,0.479167,Sixteenth,A#3
338,Left,1,62,80,151.5,0.479167,Sixteenth,D4
339,Left,1,58,80,152.0,0.479167,Sixteenth,A#3
340,Right,0,86,80,152.0,0.979167,Eighth,D6
341,Left,1,62,80,152.5,0.479167,Sixteenth,D4
342,Right,0,87,80,153.0,0.229167,ThirtySecond,D#6
343,Left,1,54,80,153.0,0.479167,Sixteenth,F#3
344,Right,0,86,80,153.239583,0.739583,DottedSixteenth,D6
345,Left,1,62,80,153.5,0.479167,Sixteenth,D4
347,Right,0,85,80,154.0,0.979167,Eighth,C#6
346,Left,1,57,80,154.0,0.479167,Sixteenth,A3
348,Left,1,62,80,154.5,0.479167,Sixteenth,D4
349,Left,1,57,80,155.0,0.479167,Sixteenth,A3
350,Right,0,86,80,155.0,0.979167,Eighth,D6
351,Left,1,62,80,155.5,0.479167,Sixteenth,D4
353,Left,1,55,80,156.0,0.479167,Sixteenth,G3
352,Right,0,87,80,156.0,0.229167,ThirtySecond,D#6
354,Right,0,86,80,156.239583,0.739583,DottedSixteenth,D6
355,Left,1,62,80,156.5,0.479167,Sixteenth,D4
356,Left,1,58,80,157.0,0.479167,Sixteenth,A#3
357,Right,0,85,83,157.0,0.979167,Eighth,C#6
358,Left,1,62,80,157.5,0.479167,Sixteenth,D4
359,Right,0,86,87,158.0,0.979167,Eighth,D6
360,Left,1,58,80,158.0,0.479167,Sixteenth,A#3
361,Left,1,62,80,158.5,0.479167,Sixteenth,D4
363,Left,1,55,80,159.0,0.479167,Sixteenth,G3
362,Right,0,89,91,159.0,0.229167,ThirtySecond,F6
364,Right,0,87,92,159.239583,0.739583,DottedSixteenth,D#6
365,Left,1,63,80,159.5,0.479167,Sixteenth,D#4
366,Right,0,86,95,160.0,0.979167,Eighth,D6
367,Left,1,58,80,160.0,0.479167,Sixteenth,A#3
368,Left,1,63,80,160.5,0.479167,Sixteenth,D#4
369,Left,1,58,80,161.0,0.479167,Sixteenth,A#3
370,Right,0,87,99,161.0,0.979167,Eighth,D#6
371,Left,1,63,80,161.5,0.479167,Sixteenth,D#4
373,Right,0,77,110,162.0,0.229167,ThirtySecond,F5
372,Left,1,57,80,162.0,0.479167,Sixteenth,A3
374,Right,0,89,110,162.239583,3.729167,Half,F6
375,Left,1,65,80,162.5,0.479167,Sixteenth,F4
376,Left,1,60,80,163.0,0.479167,Sixteenth,C4
377,Left,1,65,80,163.5,0.479167,Sixteenth,F4
378,Left,1,60,80,164.0,0.479167,Sixteenth,C4
379,Left,1,65,80,164.5,0.479167,Sixteenth,F4
380,Left,1,58,80,165.0,0.479167,Sixteenth,A#3
381,Left,1,65,80,165.5,0.479167,Sixteenth,F4
382,Left,1,62,80,166.0,0.479167,Sixteenth,D4
383,Right,0,87,80,166.0,0.979167,Eighth,D#6
384,Left,1,65,80,166.5,0.479167,Sixteenth,F4
386,Right,0,86,80,167.0,0.979167,Eighth,D6
385,Left,1,62,80,167.0,0.479167,Sixteenth,D4
387,Left,1,65,80,167.5,0.479167,Sixteenth,F4
388,Right,0,84,80,168.0,0.979167,Eighth,D6_C6
390,Left,1,51,80,168.0,0.479167,Sixteenth,D#3
391,Left,1,60,80,168.5,0.479167,Sixteenth,C4
393,Right,0,83,80,169.0,0.979167,Eighth,B5
392,Left,1,55,80,169.0,0.479167,Sixteenth,G3
394,Left,1,60,80,169.5,0.479167,Sixteenth,C4
395,Left,1,55,80,170.0,0.479167,Sixteenth,G3
396,Right,0,84,80,170.0,0.979167,Eighth,C6
397,Left,1,60,80,170.5,0.479167,Sixteenth,C4
398,Left,1,53,80,171.0,0.479167,Sixteenth,F3
399,Right,0,87,80,171.0,0.979167,Eighth,D#6
400,Left,1,60,80,171.5,0.479167,Sixteenth,C4
402,Left,1,57,80,172.0,0.479167,Sixteenth,A3
401,Right,0,84,80,172.0,0.979167,Eighth,C6
403,Left,1,60,80,172.5,0.479167,Sixteenth,C4
405,Left,1,57,80,173.0,0.479167,Sixteenth,A3
404,Right,0,81,80,173.0,0.979167,Eighth,A5
406,Left,1,60,80,173.5,0.479167,Sixteenth,C4
407,Right,0,82,80,174.0,0.979167,Eighth,A#5
408,Left,1,50,80,174.0,0.479167,Sixteenth,D3
409,Left,1,62,80,174.5,0.479167,Sixteenth,D4
411,Left,1,58,80,175.0,0.479167,Sixteenth,A#3
410,Right,0,86,80,175.0,0.979167,Eighth,D6
412,Left,1,62,80,175.5,0.479167,Sixteenth,D4
413,Left,1,58,80,176.0,0.479167,Sixteenth,A#3
414,Right,0,89,110,176.0,1.979167,Quarter,F6
415,Left,1,62,80,176.5,0.479167,Sixteenth,D4
416,Left,1,53,80,177.0,0.479167,Sixteenth,F3
417,Left,1,62,80,177.5,0.479167,Sixteenth,D4
418,Left,1,58,80,178.0,0.479167,Sixteenth,A#3
419,Right,0,87,80,178.0,0.979167,Eighth,D#6
420,Left,1,62,80,178.5,0.479167,Sixteenth,D4
421,Left,1,58,80,179.0,0.479167,Sixteenth,A#3
422,Right,0,86,80,179.0,0.979167,Eighth,D6
423,Left,1,62,80,179.5,0.479167,Sixteenth,D4
426,Left,1,51,80,180.0,0.479167,Sixteenth,D#3
424,Right,0,86,80,180.0,0.979167,ThirtySecond,D6_C6
427,Left,1,60,80,180.5,0.479167,Sixteenth,C4
429,Left,1,55,80,181.0,0.479167,Sixteenth,G3
428,Right,0,83,80,181.0,0.979167,Eighth,B5
430,Left,1,60,80,181.5,0.479167,Sixteenth,C4
432,Left,1,55,80,182.0,0.479167,Sixteenth,G3
431,Right,0,84,80,182.0,0.979167,Eighth,C6
433,Left,1,60,80,182.5,0.479167,Sixteenth,C4
434,Left,1,53,80,183.0,0.479167,Sixteenth,F3
435,Right,0,87,80,183.0,0.979167,Eighth,D#6
436,Left,1,60,80,183.5,0.479167,Sixteenth,C4
437,Left,1,57,80,184.0,0.479167,Sixteenth,A3
438,Right,0,84,80,184.0,0.979167,Eighth,C6
439,Left,1,60,80,184.5,0.479167,Sixteenth,C4
440,Left,1,57,80,185.0,0.479167,Sixteenth,A3
441,Right,0,81,80,185.0,0.979167,Eighth,A5
442,Left,1,60,80,185.5,0.479167,Sixteenth,C4
443,Left,1,62,80,186.0,1.979167,Quarter,D4_A#3
445,Right,0,82,80,186.0,0.979167,Eighth,A#5
446,Right,0,86,80,187.0,0.979167,Eighth,D6
447,Right,0,84,80,188.0,0.979167,Eighth,C6
448,Right,0,82,80,189.0,0.979167,Eighth,A#5
449,Right,0,81,80,190.0,0.979167,Eighth,A5
450,Right,0,79,80,191.0,0.979167,Eighth,G5
451,Right,0,77,80,192.0,0.979167,Eighth,F5
452,Right,0,76,80,193.0,0.979167,Eighth,E5
453,Right,0,77,80,194.0,0.979167,Eighth,F5
454,Right,0,78,80,195.0,0.979167,Eighth,F#5
455,Right,0,79,80,196.0,0.979167,Eighth,G5
456,Right,0,75,80,197.0,0.979167,Eighth,D#5
457,Right,0,74,80,198.0,2.979167,DottedQuarter,D5
458,Left,1,65,80,199.0,0.979167,Eighth,F4
459,Left,1,65,80,200.0,0.979167,Eighth,F4
461,Right,0,75,80,201.0,0.229167,ThirtySecond,D#5
460,Left,1,58,80,201.0,0.979167,Eighth,A#3
462,Right,0,74,80,201.229167,0.739583,DottedSixteenth,D5
464,Right,0,72,80,202.0,0.979167,Eighth,C5
463,Left,1,65,80,202.0,0.979167,Eighth,F4
465,Left,1,65,80,203.0,0.979167,Eighth,F4
466,Right,0,74,80,203.0,0.979167,Eighth,D5
468,Left,1,60,80,204.0,0.979167,Eighth,C4
467,Right,0,75,80,204.0,2.979167,DottedQuarter,D#5
469,Left,1,65,80,205.0,0.979167,Eighth,F4
470,Left,1,65,80,206.0,0.979167,Eighth,F4
471,Left,1,63,80,207.0,0.979167,Eighth,D#4
472,Right,0,74,80,207.0,0.229167,ThirtySecond,D5
473,Right,0,72,80,207.239583,0.739583,DottedSixteenth,C5
475,Right,0,71,80,208.0,0.979167,Eighth,B4
474,Left,1,65,80,208.0,0.979167,Eighth,F4
477,Right,0,72,80,209.0,0.979167,Eighth,C5
476,Left,1,65,80,209.0,0.979167,Eighth,F4
479,Right,0,77,80,210.0,3.979167,Half,F5
478,Left,1,62,80,210.0,0.979167,Eighth,D4
480,Left,1,65,80,211.0,0.979167,Eighth,F4
481,Left,1,65,80,212.0,0.979167,Eighth,F4
482,Left,1,58,80,213.0,0.979167,Eighth,A#3
484,Right,0,75,80,214.0,0.979167,Eighth,D#5
483,Left,1,65,80,214.0,0.979167,Eighth,F4
486,Left,1,65,80,215.0,0.979167,Eighth,F4
485,Right,0,74,80,215.0,0.979167,Eighth,D5
488,Right,0,72,80,216.0,0.979167,Eighth,C5
487,Left,1,60,80,216.0,0.979167,Eighth,C4
490,Left,1,65,80,217.0,0.979167,Eighth,F4
489,Right,0,74,80,217.0,0.979167,Eighth,D5
492,Right,0,70,80,218.0,0.979167,Eighth,A#4
491,Left,1,65,80,218.0,0.979167,Eighth,F4
494,Right,0,69,80,219.0,0.979167,Eighth,A4
493,Left,1,60,80,219.0,0.979167,Eighth,C4
495,Right,0,70,80,220.0,0.979167,Eighth,A#4
496,Left,1,64,80,220.0,0.979167,Eighth,E4
497,Right,0,67,80,221.0,0.979167,Eighth,G4
498,Left,1,64,80,221.0,0.979167,Eighth,E4
499,Right,0,65,80,222.0,3.979167,Half,F4
500,Left,1,53,80,222.0,0.979167,Eighth,F3
501,Left,1,57,80,223.0,0.979167,Eighth,A3
502,Left,1,60,80,224.0,0.979167,Eighth,C4
503,Left,1,51,80,225.0,0.979167,Eighth,D#3
505,Left,1,57,80,226.0,0.979167,Eighth,A3
504,Right,0,67,80,226.0,0.979167,Eighth,G4
506,Left,1,60,80,227.0,0.979167,Eighth,C4
507,Right,0,69,80,227.0,0.979167,Eighth,A4
508,Right,0,72,80,228.0,0.229167,ThirtySecond,C5
509,Left,1,50,80,228.0,0.979167,Eighth,D3
510,Right,0,70,80,228.239583,0.739583,DottedSixteenth,A#4
511,Right,0,69,80,229.0,0.979167,Eighth,A4
512,Left,1,53,80,229.0,0.979167,Eighth,F3
513,Left,1,53,80,230.0,0.979167,Eighth,F3
514,Right,0,70,80,230.0,0.979167,Eighth,A#4
515,Left,1,46,80,231.0,0.979167,Eighth,A#2
516,Right,0,65,80,231.0,0.979167,Eighth,F4
517,Left,1,53,80,232.0,0.979167,Eighth,F3
518,Right,0,69,80,232.0,0.979167,Eighth,A4
519,Right,0,70,80,233.0,0.979167,Eighth,A#4
520,Left,1,53,80,233.0,0.979167,Eighth,F3
522,Left,1,45,80,234.0,0.979167,Eighth,A2
521,Right,0,74,80,234.0,0.229167,ThirtySecond,D5
523,Right,0,72,80,234.239583,0.739583,DottedSixteenth,C5
524,Left,1,53,80,235.0,0.979167,Eighth,F3
525,Right,0,71,80,235.0,0.979167,Eighth,B4
527,Left,1,53,80,236.0,0.979167,Eighth,F3
526,Right,0,72,80,236.0,0.979167,Eighth,C5
528,Left,1,41,80,237.0,0.979167,Eighth,F2
529,Right,0,65,80,237.0,0.979167,Eighth,F4
530,Left,1,53,80,238.0,0.979167,Eighth,F3
531,Right,0,70,80,238.0,0.979167,Eighth,A#4
532,Right,0,72,80,239.0,0.979167,Eighth,C5
533,Left,1,53,80,239.0,0.979167,Eighth,F3
534,Right,0,75,80,240.0,0.229167,ThirtySecond,D#5
535,Left,1,46,80,240.0,0.979167,Eighth,A#2
536,Right,0,74,80,240.239583,0.739583,DottedSixteenth,D5
538,Left,1,53,80,241.0,0.979167,Eighth,F3
537,Right,0,72,80,241.0,0.979167,Eighth,C5
539,Right,0,74,80,242.0,0.979167,Eighth,D5
540,Left,1,58,80,242.0,0.979167,Eighth,A#3
541,Right,0,75,80,243.0,0.979167,Eighth,D#5
542,Left,1,51,80,243.0,0.979167,Eighth,D#3
543,Left,1,55,80,244.0,0.979167,Eighth,G3
544,Right,0,77,80,244.0,0.979167,Eighth,F5
546,Left,1,60,80,245.0,0.979167,Eighth,C4
545,Right,0,79,80,245.0,0.979167,Eighth,G5
547,Right,0,72,80,246.0,2.979167,DottedQuarter,C5
548,Left,1,53,80,246.0,0.979167,Eighth,F3
549,Left,1,65,80,247.0,0.979167,Eighth,F4
550,Left,1,65,80,248.0,0.979167,Eighth,F4
552,Left,1,58,80,249.0,0.979167,Eighth,A#3
551,Right,0,75,80,249.0,0.229167,ThirtySecond,D#5
553,Right,0,74,80,249.229167,0.739583,DottedSixteenth,D5
555,Right,0,72,80,250.0,0.979167,Eighth,C5
554,Left,1,65,80,250.0,0.979167,Eighth,F4
556,Left,1,65,80,251.0,0.979167,Eighth,F4
557,Right,0,74,80,251.0,0.979167,Eighth,D5
558,Right,0,75,80,252.0,2.979167,DottedQuarter,D#5
559,Left,1,60,80,252.0,0.979167,Eighth,C4
560,Left,1,65,80,253.0,0.979167,Eighth,F4
561,Left,1,65,80,254.0,0.979167,Eighth,F4
562,Left,1,63,80,255.0,0.979167,Eighth,D#4
563,Right,0,74,80,255.0,0.229167,ThirtySecond,D5
564,Right,0,72,80,255.239583,0.739583,DottedSixteenth,C5
566,Left,1,65,80,256.0,0.979167,Eighth,F4
565,Right,0,71,80,256.0,0.979167,Eighth,B4
568,Left,1,65,80,257.0,0.979167,Eighth,F4
567,Right,0,72,80,257.0,0.979167,Eighth,C5
570,Left,1,62,80,258.0,0.979167,Eighth,D4
569,Right,0,77,80,258.0,3.979167,Half,F5
571,Left,1,65,80,259.0,0.979167,Eighth,F4
572,Left,1,65,80,260.0,0.979167,Eighth,F4
573,Left,1,58,80,261.0,0.979167,Eighth,A#3
574,Left,1,65,80,262.0,0.979167,Eighth,F4
575,Right,0,75,80,262.0,0.979167,Eighth,D#5
577,Left,1,65,80,263.0,0.979167,Eighth,F4
576,Right,0,74,80,263.0,0.979167,Eighth,D5
579,Right,0,72,80,264.0,0.979167,Eighth,C5
578,Left,1,60,80,264.0,0.979167,Eighth,C4
581,Left,1,65,80,265.0,0.979167,Eighth,F4
580,Right,0,74,80,265.0,0.979167,Eighth,D5
582,Right,0,70,80,266.0,0.979167,Eighth,A#4
583,Left,1,65,80,266.0,0.979167,Eighth,F4
585,Right,0,69,80,267.0,0.979167,Eighth,A4
584,Left,1,60,80,267.0,0.979167,Eighth,C4
587,Right,0,70,80,268.0,0.979167,Eighth,A#4
586,Left,1,64,80,268.0,0.979167,Eighth,E4
588,Right,0,67,80,269.0,0.979167,Eighth,G4
589,Left,1,64,80,269.0,0.979167,Eighth,E4
591,Right,0,65,80,270.0,3.979167,Half,F4
590,Left,1,53,80,270.0,0.979167,Eighth,F3
592,Left,1,57,80,271.0,0.979167,Eighth,A3
593,Left,1,60,80,272.0,0.979167,Eighth,C4
594,Left,1,51,80,273.0,0.979167,Eighth,D#3
595,Left,1,57,80,274.0,0.979167,Eighth,A3
596,Right,0,67,80,274.0,0.979167,Eighth,G4
598,Left,1,60,80,275.0,0.979167,Eighth,C4
597,Right,0,69,80,275.0,0.979167,Eighth,A4
599,Right,0,72,80,276.0,0.229167,ThirtySecond,C5
600,Left,1,50,80,276.0,0.979167,Eighth,D3
601,Right,0,70,80,276.239583,0.739583,DottedSixteenth,A#4
602,Right,0,69,80,277.0,0.979167,Eighth,A4
603,Left,1,53,80,277.0,0.979167,Eighth,F3
605,Left,1,53,80,278.0,0.979167,Eighth,F3
604,Right,0,70,80,278.0,0.979167,Eighth,A#4
607,Left,1,46,80,279.0,0.979167,Eighth,A#2
606,Right,0,65,80,279.0,0.979167,Eighth,F4
608,Right,0,69,80,280.0,0.979167,Eighth,A4
609,Left,1,53,80,280.0,0.979167,Eighth,F3
610,Right,0,70,80,281.0,0.979167,Eighth,A#4
611,Left,1,53,80,281.0,0.979167,Eighth,F3
612,Right,0,74,80,282.0,0.229167,ThirtySecond,D5
613,Left,1,45,80,282.0,0.979167,Eighth,A2
614,Right,0,72,80,282.239583,0.739583,DottedSixteenth,C5
616,Right,0,71,80,283.0,0.979167,Eighth,B4
615,Left,1,53,80,283.0,0.979167,Eighth,F3
617,Right,0,72,80,284.0,0.979167,Eighth,C5
618,Left,1,53,80,284.0,0.979167,Eighth,F3
619,Right,0,75,80,285.0,0.229167,ThirtySecond,D#5
620,Left,1,46,80,285.0,0.979167,Eighth,A#2
621,Right,0,74,80,285.239583,0.739583,DottedSixteenth,D5
622,Right,0,72,80,286.0,0.979167,Eighth,C5
623,Left,1,53,80,286.0,0.979167,Eighth,F3
625,Right,0,74,80,287.0,0.979167,Eighth,D5
624,Left,1,53,80,287.0,0.979167,Eighth,F3
627,Right,0,75,80,288.0,0.979167,Eighth,D#5
626,Left,1,51,80,288.0,0.979167,Eighth,D#3
628,Left,1,55,80,289.0,0.979167,Eighth,G3
629,Right,0,77,80,289.0,0.979167,Eighth,F5
630,Left,1,60,80,290.0,0.979167,Eighth,C4
631,Right,0,79,80,290.0,0.979167,Eighth,G5
633,Left,1,53,80,291.0,0.979167,Eighth,F3
632,Right,0,70,80,291.0,1.979167,Quarter,A#4
634,Left,1,62,80,292.0,0.979167,Eighth,D4
636,Left,1,63,80,293.0,0.979167,Eighth,D#4
635,Right,0,74,80,293.0,0.479167,Sixteenth,D5
637,Right,0,72,80,293.5,0.479167,Sixteenth,C5
639,Left,1,58,80,294.0,0.979167,Eighth,A#3
638,Right,0,70,80,294.0,1.979167,Quarter,A#4
640,Left,1,62,80,295.0,0.979167,Eighth,D4
641,Left,1,65,80,296.0,0.979167,Eighth,F4
642,Right,0,72,80,297.0,0.229167,ThirtySecond,C5
643,Right,0,70,80,297.239583,0.739583,DottedSixteenth,A#4
644,Right,0,69,80,298.0,0.979167,Eighth,A4
645,Right,0,70,80,299.0,0.979167,Eighth,A#4
648,Right,0,77,80,300.0,2.979167,Quarter,F5_A#4
646,Left,1,62,80,300.0,2.979167,DottedQuarter,F4_D4
650,Right,0,77,80,302.0,0.979167,Eighth,F5
653,Right,0,77,80,303.0,2.979167,Quarter,F5_B4
651,Left,1,61,80,303.0,2.979167,DottedQuarter,F4_C#4
655,Right,0,77,80,305.0,0.979167,Eighth,F5
656,Right,0,72,80,306.0,2.979167,DottedQuarter,F5_C5
658,Left,1,67,80,306.0,2.979167,DottedQuarter,G4_C4
660,Right,0,76,80,308.0,0.979167,Eighth,E5
661,Right,0,74,80,309.0,0.229167,ThirtySecond,D5
662,Right,0,72,80,309.239583,0.739583,DottedSixteenth,C5
663,Right,0,71,80,310.0,0.979167,Eighth,B4
664,Right,0,72,80,311.0,0.979167,Eighth,C5
665,Left,1,67,80,312.0,2.979167,DottedQuarter,G4_C4
667,Right,0,72,80,312.0,2.979167,DottedQuarter,D#5_C5
669,Right,0,75,80,314.0,0.979167,Eighth,D#5
670,Right,0,75,80,315.0,2.979167,Quarter,D#5_C5
672,Left,1,57,80,315.0,2.979167,DottedQuarter,F#4_A3
674,Right,0,75,80,317.0,0.979167,Eighth,D#5
675,Right,0,70,80,318.0,2.979167,DottedQuarter,D#5_A#4
676,Left,1,65,80,318.0,2.979167,DottedQuarter,F4_A#3
679,Right,0,74,80,320.0,0.979167,Eighth,D5
681,Left,1,58,80,321.0,0.979167,Eighth,A#3
680,Right,0,75,80,321.0,0.229167,ThirtySecond,D#5
682,Right,0,74,80,321.239583,0.739583,DottedSixteenth,D5
683,Right,0,72,80,322.0,0.979167,Eighth,C5
684,Left,1,65,80,322.0,0.979167,Eighth,F4
686,Right,0,74,80,323.0,0.979167,Eighth,D5
685,Left,1,65,80,323.0,0.979167,Eighth,F4
688,Right,0,75,80,324.0,2.979167,DottedQuarter,D#5
687,Left,1,60,80,324.0,0.979167,Eighth,C4
689,Left,1,65,80,325.0,0.979167,Eighth,F4
690,Left,1,65,80,326.0,0.979167,Eighth,F4
692,Right,0,74,80,327.0,0.229167,ThirtySecond,D5
691,Left,1,63,80,327.0,0.979167,Eighth,D#4
693,Right,0,72,80,327.239583,0.739583,DottedSixteenth,C5
694,Left,1,65,80,328.0,0.979167,Eighth,F4
695,Right,0,71,80,328.0,0.979167,Eighth,B4
697,Right,0,72,80,329.0,0.979167,Eighth,C5
696,Left,1,65,80,329.0,0.979167,Eighth,F4
698,Left,1,62,80,330.0,0.979167,Eighth,D4
699,Right,0,77,80,330.0,3.979167,Half,F5
700,Left,1,58,80,331.0,0.979167,Eighth,A#3
701,Left,1,58,80,332.0,0.979167,Eighth,A#3
702,Left,1,51,80,333.0,0.979167,Eighth,D#3
703,Right,0,78,80,334.0,0.979167,Eighth,F#5
704,Left,1,58,80,334.0,0.979167,Eighth,A#3
706,Right,0,79,80,335.0,0.979167,Eighth,G5
705,Left,1,58,80,335.0,0.979167,Eighth,A#3
708,Right,0,70,80,336.0,1.979167,Quarter,A#4
707,Left,1,53,80,336.0,0.979167,Eighth,F3
709,Left,1,58,80,337.0,0.979167,Eighth,A#3
711,Right,0,72,80,338.0,0.229167,ThirtySecond,C5
710,Left,1,58,80,338.0,0.979167,Eighth,A#3
712,Right,0,70,80,338.25,0.229167,ThirtySecond,A#4
713,Right,0,69,80,338.5,0.229167,ThirtySecond,A4
714,Right,0,70,80,338.75,0.229167,ThirtySecond,A#4
715,Left,1,53,80,339.0,0.979167,Eighth,F3
716,Right,0,74,80,339.0,1.979167,Quarter,D5
717,Left,1,57,80,340.0,0.979167,Eighth,A3
718,Left,1,57,80,341.0,0.979167,Eighth,A3
719,Right,0,72,80,341.0,0.979167,Eighth,C5
721,Left,1,46,80,342.0,0.979167,Eighth,A#2
720,Right,0,70,80,342.0,1.979167,Quarter,A#4
722,Left,1,58,80,343.0,0.979167,Eighth,A#3
723,Left,1,58,80,344.0,0.979167,Eighth,A#3
724,Right,0,72,80,345.0,0.229167,ThirtySecond,C5
725,Right,0,70,80,345.239583,0.739583,DottedSixteenth,A#4
726,Right,0,69,80,346.0,0.979167,Eighth,A4
727,Right,0,70,80,347.0,0.979167,Eighth,A#4
730,Left,1,62,80,348.0,0.979167,Eighth,D4
728,Right,0,77,80,348.0,2.979167,Quarter,F5_A#4
731,Left,1,65,80,349.0,0.979167,Eighth,F4
733,Right,0,77,80,350.0,0.979167,Eighth,F5
732,Left,1,65,80,350.0,0.979167,Eighth,F4
735,Left,1,61,80,351.0,0.979167,Eighth,C#4
734,Right,0,77,80,351.0,2.979167,Quarter,F5_B4
737,Left,1,65,80,352.0,0.979167,Eighth,F4
739,Left,1,65,80,353.0,0.979167,Eighth,F4
738,Right,0,77,80,353.0,0.979167,Eighth,F5
740,Left,1,60,80,354.0,0.979167,Eighth,C4
741,Right,0,72,80,354.0,2.979167,DottedQuarter,F5_C5
743,Left,1,67,80,355.0,0.979167,Eighth,G4
745,Right,0,76,80,356.0,0.979167,Eighth,E5
744,Left,1,67,80,356.0,0.979167,Eighth,G4
747,Right,0,74,80,357.0,0.229167,ThirtySecond,D5
746,Left,1,67,80,357.0,0.979167,Eighth,G4
748,Right,0,72,80,357.239583,0.739583,DottedSixteenth,C5
750,Right,0,71,80,358.0,0.979167,Eighth,B4
749,Left,1,67,80,358.0,0.979167,Eighth,G4
751,Right,0,72,80,359.0,0.979167,Eighth,C5
752,Left,1,67,80,359.0,0.979167,Eighth,G4
754,Left,1,60,80,360.0,0.979167,Eighth,C4
753,Right,0,75,80,360.0,2.979167,Quarter,D#5_C5
756,Left,1,67,80,361.0,0.979167,Eighth,G4
757,Right,0,75,80,362.0,0.979167,Eighth,D#5
758,Left,1,67,80,362.0,0.979167,Eighth,G4
760,Left,1,57,80,363.0,0.979167,Eighth,A3
759,Right,0,72,80,363.0,2.979167,DottedQuarter,D#5_C5
762,Left,1,66,80,364.0,0.979167,Eighth,F#4
764,Left,1,66,80,365.0,0.979167,Eighth,F#4
763,Right,0,75,80,365.0,0.979167,Eighth,D#5
766,Left,1,58,80,366.0,0.979167,Eighth,A#3
765,Right,0,75,80,366.0,2.979167,Quarter,D#5_A#4
768,Left,1,65,80,367.0,0.979167,Eighth,F4
770,Left,1,65,80,368.0,0.979167,Eighth,F4
769,Right,0,74,80,368.0,0.979167,Eighth,D5
771,Left,1,65,80,369.0,0.979167,Eighth,F4
772,Right,0,75,80,369.0,0.229167,ThirtySecond,D#5
773,Right,0,74,80,369.239583,0.739583,DottedSixteenth,D5
775,Left,1,65,80,370.0,0.979167,Eighth,F4
774,Right,0,72,80,370.0,0.979167,Eighth,C5
776,Right,0,74,80,371.0,0.979167,Eighth,D5
777,Left,1,65,80,371.0,0.979167,Eighth,F4
779,Left,1,60,80,372.0,0.979167,Eighth,C4
778,Right,0,75,80,372.0,2.979167,DottedQuarter,D#5
780,Left,1,65,80,373.0,0.979167,Eighth,F4
781,Left,1,65,80,374.0,0.979167,Eighth,F4
782,Left,1,63,80,375.0,0.979167,Eighth,D#4
783,Right,0,74,80,375.0,0.229167,ThirtySecond,D5
784,Right,0,72,80,375.239583,0.739583,DottedSixteenth,C5
785,Left,1,65,80,376.0,0.979167,Eighth,F4
786,Right,0,71,80,376.0,0.979167,Eighth,B4
787,Left,1,65,80,377.0,0.979167,Eighth,F4
788,Right,0,72,80,377.0,0.979167,Eighth,C5
790,Left,1,62,80,378.0,0.979167,Eighth,D4
789,Right,0,77,80,378.0,3.979167,Half,F5
791,Left,1,58,80,379.0,0.979167,Eighth,A#3
792,Left,1,58,80,380.0,0.979167,Eighth,A#3
793,Left,1,51,80,381.0,0.979167,Eighth,D#3
795,Right,0,78,80,382.0,0.979167,Eighth,F#5
794,Left,1,58,80,382.0,0.979167,Eighth,A#3
797,Left,1,63,80,383.0,0.979167,Eighth,D#4
796,Right,0,79,80,383.0,0.979167,Eighth,G5
798,Right,0,70,80,384.0,1.979167,Quarter,A#4
799,Left,1,53,80,384.0,0.979167,Eighth,F3
800,Left,1,58,80,385.0,0.979167,Eighth,A#3
801,Right,0,72,80,386.0,0.229167,ThirtySecond,C5
802,Left,1,62,80,386.0,0.979167,Eighth,D4
803,Right,0,70,80,386.25,0.229167,ThirtySecond,A#4
804,Right,0,69,80,386.5,0.229167,ThirtySecond,A4
805,Right,0,70,80,386.75,0.229167,ThirtySecond,A#4
806,Left,1,53,80,387.0,0.979167,Eighth,F3
807,Right,0,74,80,387.0,1.979167,Quarter,D5
808,Left,1,57,80,388.0,0.979167,Eighth,A3
809,Left,1,63,80,389.0,0.979167,Eighth,D#4
810,Right,0,72,80,389.0,0.979167,Eighth,C5
811,Left,1,58,80,390.0,1.979167,Quarter,D4_A#3
813,Right,0,70,80,390.0,1.979167,Quarter,A#4
815,Left,1,62,110,392.0,0.979167,Eighth,D4
814,Right,0,74,110,392.0,0.979167,Eighth,D5
816,Right,0,75,110,393.0,0.229167,ThirtySecond,D#5
817,Left,1,63,110,393.0,0.229167,ThirtySecond,D#4
819,Right,0,74,110,393.239583,0.739583,DottedSixteenth,D5
818,Left,1,62,110,393.239583,0.739583,DottedSixteenth,D4
821,Left,1,61,110,394.0,0.979167,Eighth,C#4
820,Right,0,73,110,394.0,0.979167,Eighth,C#5
823,Right,0,74,110,395.0,0.979167,Eighth,D5
822,Left,1,62,110,395.0,0.979167,Eighth,D4
824,Left,1,63,110,396.0,1.979167,Quarter,D#4
825,Right,0,75,110,396.0,1.979167,Quarter,D#5
826,Right,0,74,110,398.0,0.979167,Eighth,D5
827,Left,1,62,110,398.0,0.979167,Eighth,D4
828,Left,1,60,110,399.0,0.979167,Eighth,C4
829,Right,0,72,110,399.0,0.979167,Eighth,C5
830,Left,1,58,110,400.0,0.979167,Eighth,A#3
831,Right,0,70,110,400.0,0.979167,Eighth,A#4
833,Right,0,69,110,401.0,0.979167,Eighth,A4
832,Left,1,57,110,401.0,0.979167,Eighth,A3
835,Left,1,62,110,402.0,1.979167,Quarter,D4
834,Right,0,74,110,402.0,1.979167,Quarter,D5
836,Right,0,72,110,404.0,0.979167,Eighth,C5
837,Left,1,60,110,404.0,0.979167,Eighth,C4
838,Left,1,58,110,405.0,0.979167,Eighth,A#3
839,Right,0,70,110,405.0,0.979167,Eighth,A#4
840,Left,1,57,110,406.0,0.979167,Eighth,A3
841,Right,0,69,110,406.0,0.979167,Eighth,A4
843,Left,1,55,110,407.0,0.979167,Eighth,G3
842,Right,0,67,110,407.0,0.979167,Eighth,G4
845,Left,1,48,110,408.0,2.979167,DottedQuarter,C3_A3
844,Right,0,63,110,408.0,0.979167,Eighth,D#4
847,Right,0,72,110,409.0,0.979167,Eighth,C5
848,Right,0,70,110,410.0,0.979167,Eighth,A#4
849,Left,1,50,110,411.0,2.979167,DottedQuarter,D3_C4
851,Right,0,69,110,411.0,0.979167,Eighth,A4
852,Right,0,67,110,412.0,0.979167,Eighth,G4
853,Right,0,66,110,413.0,0.979167,Eighth,F#4
855,Right,0,67,110,414.0,1.979167,Quarter,G4
854,Left,1,55,110,414.0,0.479167,Sixteenth,G3
856,Left,1,62,110,414.5,0.479167,Sixteenth,D4
857,Left,1,58,110,415.0,0.479167,Sixteenth,A#3
858,Left,1,62,110,415.5,0.479167,Sixteenth,D4
860,Right,0,86,80,416.0,0.979167,Eighth,D6
859,Left,1,58,80,416.0,0.479167,Sixteenth,A#3
861,Left,1,62,81,416.5,0.479167,Sixteenth,D4
862,Right,0,86,82,417.0,0.979167,Eighth,D6
863,Left,1,54,82,417.0,0.479167,Sixteenth,F#3
864,Left,1,62,83,417.5,0.479167,Sixteenth,D4
865,Right,0,85,84,418.0,0.979167,Eighth,C#6
866,Left,1,57,84,418.0,0.479167,Sixteenth,A3
867,Left,1,62,85,418.5,0.479167,Sixteenth,D4
869,Right,0,86,86,419.0,0.979167,Eighth,D6
868,Left,1,57,86,419.0,0.479167,Sixteenth,A3
870,Left,1,62,87,419.5,0.479167,Sixteenth,D4
871,Left,1,55,88,420.0,0.479167,Sixteenth,G3
872,Right,0,86,88,420.0,0.979167,Eighth,D6
873,Left,1,62,89,420.5,0.479167,Sixteenth,D4
875,Right,0,85,90,421.0,0.979167,Eighth,C#6
874,Left,1,58,90,421.0,0.479167,Sixteenth,A#3
876,Left,1,62,91,421.5,0.479167,Sixteenth,D4
878,Right,0,86,92,422.0,0.979167,Eighth,D6
877,Left,1,58,92,422.0,0.479167,Sixteenth,A#3
879,Left,1,62,93,422.5,0.479167,Sixteenth,D4
880,Right,0,86,94,423.0,0.979167,Eighth,D6
881,Left,1,54,94,423.0,0.479167,Sixteenth,F#3
882,Left,1,62,95,423.5,0.479167,Sixteenth,D4
884,Right,0,85,96,424.0,0.979167,Eighth,C#6
883,Left,1,57,96,424.0,0.479167,Sixteenth,A3
885,Left,1,62,97,424.5,0.479167,Sixteenth,D4
887,Right,0,86,98,425.0,0.979167,Eighth,D6
886,Left,1,57,98,425.0,0.479167,Sixteenth,A3
888,Left,1,62,99,425.5,0.479167,Sixteenth,D4
889,Right,0,86,100,426.0,0.979167,Eighth,D6
890,Left,1,55,100,426.0,0.479167,Sixteenth,G3
891,Left,1,62,100,426.5,0.479167,Sixteenth,D4
892,Left,1,58,100,427.0,0.479167,Sixteenth,A#3
893,Right,0,84,100,427.0,0.979167,Eighth,C6
894,Left,1,62,100,427.5,0.479167,Sixteenth,D4
895,Right,0,82,100,428.0,0.979167,Eighth,A#5
896,Left,1,58,100,428.0,0.479167,Sixteenth,A#3
897,Left,1,62,100,428.5,0.479167,Sixteenth,D4
898,Left,1,55,100,429.0,0.479167,Sixteenth,G3
899,Right,0,84,100,429.0,0.229167,ThirtySecond,C6
900,Right,0,82,100,429.239583,0.739583,DottedSixteenth,A#5
901,Left,1,62,100,429.5,0.479167,Sixteenth,D4
903,Left,1,58,100,430.0,0.479167,Sixteenth,A#3
902,Right,0,81,100,430.0,0.979167,Eighth,A5
904,Left,1,62,100,430.5,0.479167,Sixteenth,D4
905,Left,1,58,100,431.0,0.479167,Sixteenth,A#3
906,Right,0,79,100,431.0,0.979167,Eighth,G5
907,Left,1,62,100,431.5,0.479167,Sixteenth,D4
909,Right,0,77,100,432.0,0.979167,Eighth,F5
908,Left,1,57,100,432.0,0.479167,Sixteenth,A3
910,Left,1,62,100,432.5,0.479167,Sixteenth,D4
911,Left,1,57,100,433.0,0.479167,Sixteenth,A3
912,Right,0,79,100,433.0,0.979167,Eighth,G5
913,Left,1,62,100,433.5,0.479167,Sixteenth,D4
915,Right,0,76,100,434.0,0.979167,Eighth,E5
914,Left,1,57,100,434.0,0.479167,Sixteenth,A3
916,Left,1,61,100,434.5,0.479167,Sixteenth,C#4
917,Right,0,74,100,435.0,1.979167,Quarter,D5
918,Left,1,50,100,435.0,0.479167,Sixteenth,D3
919,Left,1,62,100,435.5,0.479167,Sixteenth,D4
920,Left,1,61,100,436.0,0.479167,Sixteenth,C#4
921,Left,1,62,100,436.5,0.479167,Sixteenth,D4
923,Right,0,74,100,437.0,0.979167,Eighth,D5
922,Left,1,60,100,437.0,0.479167,Sixteenth,C4
924,Left,1,57,100,437.5,0.479167,Sixteenth,A3
926,Left,1,55,80,438.0,0.479167,Sixteenth,G3
925,Right,0,87,80,438.0,0.229167,ThirtySecond,D#6
927,Right,0,86,80,438.239583,0.739583,DottedSixteenth,D6
928,Left,1,62,80,438.5,0.479167,Sixteenth,D4
930,Left,1,58,80,439.0,0.479167,Sixteenth,A#3
929,Right,0,85,80,439.0,0.979167,Eighth,C#6
931,Left,1,62,80,439.5,0.479167,Sixteenth,D4
932,Left,1,58,80,440.0,0.479167,Sixteenth,A#3
933,Right,0,86,80,440.0,0.979167,Eighth,D6
934,Left,1,62,80,440.5,0.479167,Sixteenth,D4
935,Left,1,54,80,441.0,0.479167,Sixteenth,F#3
936,Right,0,87,80,441.0,0.229167,ThirtySecond,D#6
937,Right,0,86,80,441.239583,0.739583,DottedSixteenth,D6
938,Left,1,62,80,441.5,0.479167,Sixteenth,D4
940,Left,1,57,80,442.0,0.479167,Sixteenth,A3
939,Right,0,85,80,442.0,0.979167,Eighth,C#6
941,Left,1,62,80,442.5,0.479167,Sixteenth,D4
942,Right,0,86,80,443.0,0.979167,Eighth,D6
943,Left,1,57,80,443.0,0.479167,Sixteenth,A3
944,Left,1,62,80,443.5,0.479167,Sixteenth,D4
945,Right,0,87,80,444.0,0.229167,ThirtySecond,D#6
946,Left,1,55,80,444.0,0.479167,Sixteenth,G3
947,Right,0,86,80,444.239583,0.739583,DottedSixteenth,D6
948,Left,1,62,81,444.5,0.479167,Sixteenth,D4
950,Left,1,58,82,445.0,0.479167,Sixteenth,A#3
949,Right,0,85,82,445.0,0.979167,Eighth,C#6
951,Left,1,62,83,445.5,0.479167,Sixteenth,D4
953,Left,1,58,85,446.0,0.479167,Sixteenth,A#3
952,Right,0,86,85,446.0,0.979167,Eighth,D6
954,Left,1,62,86,446.5,0.479167,Sixteenth,D4
956,Right,0,89,87,447.0,0.229167,ThirtySecond,F6
955,Left,1,55,87,447.0,0.479167,Sixteenth,G3
957,Right,0,87,88,447.239583,0.739583,DottedSixteenth,D#6
958,Left,1,63,88,447.5,0.479167,Sixteenth,D#4
960,Right,0,86,90,448.0,0.979167,Eighth,D6
959,Left,1,58,90,448.0,0.479167,Sixteenth,A#3
961,Left,1,63,91,448.5,0.479167,Sixteenth,D#4
962,Left,1,58,92,449.0,0.479167,Sixteenth,A#3
963,Right,0,87,92,449.0,0.979167,Eighth,D#6
964,Left,1,63,93,449.5,0.479167,Sixteenth,D#4
966,Right,0,77,110,450.0,0.229167,ThirtySecond,F5
965,Left,1,57,80,450.0,0.479167,Sixteenth,A3
967,Right,0,89,110,450.239583,3.729167,Half,F6
968,Left,1,65,80,450.5,0.479167,Sixteenth,F4
969,Left,1,60,80,451.0,0.479167,Sixteenth,C4
970,Left,1,65,80,451.5,0.479167,Sixteenth,F4
971,Left,1,60,80,452.0,0.479167,Sixteenth,C4
972,Left,1,65,80,452.5,0.479167,Sixteenth,F4
973,Left,1,58,80,453.0,0.479167,Sixteenth,A#3
974,Left,1,65,80,453.5,0.479167,Sixteenth,F4
975,Left,1,62,80,454.0,0.479167,Sixteenth,D4
976,Right,0,87,80,454.0,0.979167,Eighth,D#6
977,Left,1,65,80,454.5,0.479167,Sixteenth,F4
979,Left,1,62,80,455.0,0.479167,Sixteenth,D4
978,Right,0,86,80,455.0,0.979167,Eighth,D6
980,Left,1,65,80,455.5,0.479167,Sixteenth,F4
981,Right,0,75,110,456.0,0.229167,ThirtySecond,D#5
982,Left,1,55,80,456.0,0.479167,Sixteenth,G3
983,Right,0,87,110,456.239583,3.739583,Half,D#6
984,Left,1,63,80,456.5,0.479167,Sixteenth,D#4
985,Left,1,58,80,457.0,0.479167,Sixteenth,A#3
986,Left,1,63,80,457.5,0.479167,Sixteenth,D#4
987,Left,1,58,80,458.0,0.479167,Sixteenth,A#3
988,Left,1,63,80,458.5,0.479167,Sixteenth,D#4
989,Left,1,57,80,459.0,0.479167,Sixteenth,A3
990,Left,1,63,80,459.5,0.479167,Sixteenth,D#4
991,Right,0,86,80,460.0,0.979167,Eighth,D6
992,Left,1,60,80,460.0,0.479167,Sixteenth,C4
993,Left,1,63,80,460.5,0.479167,Sixteenth,D#4
995,Right,0,84,80,461.0,0.979167,Eighth,C6
994,Left,1,60,80,461.0,0.479167,Sixteenth,C4
996,Left,1,63,80,461.5,0.479167,Sixteenth,D#4
997,Right,0,74,110,462.0,0.229167,ThirtySecond,D5
998,Left,1,54,80,462.0,0.479167,Sixteenth,F#3
999,Right,0,86,110,462.239583,3.739583,Half,D6
1000,Left,1,62,80,462.5,0.479167,Sixteenth,D4
1001,Left,1,57,80,463.0,0.479167,Sixteenth,A3
1002,Left,1,62,80,463.5,0.479167,Sixteenth,D4
1003,Left,1,57,80,464.0,0.479167,Sixteenth,A3
1004,Left,1,62,80,464.5,0.479167,Sixteenth,D4
1005,Left,1,55,80,465.0,0.479167,Sixteenth,G3
1006,Left,1,62,80,465.5,0.479167,Sixteenth,D4
1008,Left,1,58,80,466.0,0.479167,Sixteenth,A#3
1007,Right,0,84,80,466.0,0.979167,Eighth,C6
1009,Left,1,62,80,466.5,0.479167,Sixteenth,D4
1011,Left,1,58,80,467.0,0.479167,Sixteenth,A#3
1010,Right,0,82,80,467.0,0.979167,Eighth,A#5
1012,Left,1,62,80,467.5,0.479167,Sixteenth,D4
1014,Right,0,81,100,468.0,0.979167,Eighth,A5
1013,Left,1,48,100,468.0,0.479167,Sixteenth,C3
1015,Left,1,57,100,468.5,0.479167,Sixteenth,A3
1017,Right,0,82,100,469.0,0.979167,Eighth,A#5
1016,Left,1,51,100,469.0,0.479167,Sixteenth,D#3
1018,Left,1,57,100,469.5,0.479167,Sixteenth,A3
1020,Right,0,84,100,470.0,0.979167,Eighth,C6
1019,Left,1,51,100,470.0,0.479167,Sixteenth,D#3
1021,Left,1,57,100,470.5,0.479167,Sixteenth,A3
1022,Left,1,50,100,471.0,0.479167,Sixteenth,D3
1023,Right,0,78,100,471.0,0.979167,Eighth,F#5
1024,Left,1,57,100,471.5,0.479167,Sixteenth,A3
1026,Right,0,79,100,472.0,0.979167,Eighth,G5
1025,Left,1,54,100,472.0,0.479167,Sixteenth,F#3
1027,Left,1,57,100,472.5,0.479167,Sixteenth,A3
1029,Left,1,54,100,473.0,0.479167,Sixteenth,F#3
1028,Right,0,81,100,473.0,0.979167,Eighth,A5
1030,Left,1,57,100,473.5,0.479167,Sixteenth,A3
1031,Left,1,43,100,474.0,0.979167,Eighth,G2
1032,Right,0,79,100,474.0,1.979167,Quarter,G5
1033,Left,1,55,100,475.0,0.979167,Eighth,G3
1034,Right,0,62,70,476.0,0.979167,Eighth,D4
1035,Right,0,62,70,477.0,0.979167,Eighth,D4
1036,Right,0,67,70,478.0,0.979167,Eighth,G4
1037,Right,0,69,70,479.0,0.979167,Eighth,A4
1038,Right,0,70,70,480.0,0.979167,Eighth,A#4
1039,Right,0,67,70,481.0,0.979167,Eighth,G4
1040,Left,1,62,70,482.0,0.979167,Eighth,D4
1041,Right,0,62,70,483.0,0.979167,Eighth,D4
1042,Right,0,69,70,484.0,0.979167,Eighth,A4
1043,Right,0,70,70,485.0,0.979167,Eighth,A#4
1044,Right,0,72,70,486.0,0.979167,Eighth,C5
1045,Right,0,69,70,487.0,0.979167,Eighth,A4
1046,Left,1,62,70,488.0,0.979167,Eighth,D4
1047,Right,0,62,80,489.0,0.979167,Eighth,D4
1048,Left,1,59,80,490.0,0.979167,Eighth,D4_B3
1049,Right,0,67,80,490.0,0.979167,Eighth,G4
1052,Left,1,60,80,491.0,0.979167,Eighth,C4_A3
1051,Right,0,69,80,491.0,0.979167,Eighth,A4
1054,Right,0,71,80,492.0,0.979167,Eighth,B4
1055,Left,1,55,80,492.0,1.979167,Quarter,G3_B3
1057,Right,0,67,80,493.0,0.979167,Eighth,G4
1058,Right,0,64,80,494.0,0.979167,Eighth,E4
1059,Right,0,64,80,495.0,0.979167,Eighth,E4
1060,Left,1,60,80,496.0,0.979167,Eighth,E4_C4
1062,Right,0,69,80,496.0,0.979167,Eighth,A4
1065,Right,0,71,80,497.0,0.979167,Eighth,B4
1063,Left,1,59,80,497.0,0.979167,Eighth,D4_B3
1068,Right,0,72,80,498.0,0.979167,Eighth,C5
1066,Left,1,57,80,498.0,1.979167,Quarter,C4_A3
1069,Right,0,69,80,499.0,0.979167,Eighth,A4
1070,Right,0,76,80,500.0,0.979167,Eighth,E5
1071,Right,0,74,80,501.0,0.979167,Eighth,D5
1072,Left,1,57,80,502.0,0.979167,Eighth,F#3_A3
1074,Right,0,72,80,502.0,0.979167,Eighth,C5
1075,Right,0,71,80,503.0,0.979167,Eighth,B4
1076,Left,1,55,80,503.0,0.979167,Eighth,G3_B3
1079,Right,0,69,80,504.0,0.979167,Eighth,A4
1078,Left,1,57,80,504.0,0.979167,Eighth,C4_A3
1081,Right,0,67,80,505.0,0.979167,Eighth,G4
1082,Left,1,62,80,505.0,0.979167,Eighth,D4_B3
1084,Left,1,60,80,506.0,0.979167,Eighth,E4_C4
1086,Right,0,69,80,506.0,0.979167,Eighth,A4
1087,Right,0,67,80,507.0,0.229167,ThirtySecond,G4
1088,Left,1,64,80,507.0,2.979167,DottedQuarter,E4_C#4
1090,Right,0,69,100,507.25,0.229167,ThirtySecond,A4
1091,Right,0,70,100,507.5,0.479167,Sixteenth,A#4
1092,Right,0,69,80,508.0,0.979167,Eighth,A4
1093,Right,0,67,80,509.0,0.979167,Eighth,G4
1094,Left,1,62,80,510.0,1.979167,Quarter,D4
1095,Right,0,66,80,510.0,0.979167,Eighth,F#4
1096,Right,0,62,80,511.0,0.979167,Eighth,D4
1097,Right,0,62,80,512.0,0.979167,Eighth,D4
1098,Right,0,62,80,513.0,0.979167,Eighth,D4
1099,Left,1,59,80,514.0,0.979167,Eighth,D4_B3
1100,Right,0,67,80,514.0,0.979167,Eighth,G4
1102,Left,1,60,80,515.0,0.979167,Eighth,C4_A3
1104,Right,0,69,80,515.0,0.979167,Eighth,A4
1105,Left,1,55,80,516.0,1.979167,Quarter,G3_B3
1106,Right,0,71,80,516.0,0.979167,Eighth,B4
1108,Right,0,67,80,517.0,0.979167,Eighth,G4
1109,Right,0,64,80,518.0,0.979167,Eighth,E4
1110,Right,0,64,80,519.0,0.979167,Eighth,E4
1111,Right,0,69,80,520.0,0.979167,Eighth,A4
1112,Left,1,60,80,520.0,0.979167,Eighth,E4_C4
1114,Left,1,59,80,521.0,0.979167,Eighth,D4_B3
1116,Right,0,71,80,521.0,0.979167,Eighth,B4
1119,Right,0,72,80,522.0,0.979167,Eighth,C5
1117,Left,1,60,80,522.0,1.979167,Quarter,C4_A3
1120,Right,0,69,80,523.0,0.979167,Eighth,A4
1121,Right,0,76,80,524.0,0.979167,Eighth,E5
1122,Right,0,74,80,525.0,0.979167,Eighth,D5
1123,Left,1,57,80,526.0,0.979167,Eighth,F#3_A3
1124,Right,0,72,80,526.0,0.979167,Eighth,C5
1128,Right,0,71,80,527.0,0.979167,Eighth,B4
1126,Left,1,59,80,527.0,0.979167,Eighth,G3_B3
1130,Left,1,60,80,528.0,0.979167,Eighth,C4_A3
1129,Right,0,69,80,528.0,0.979167,Eighth,A4
1133,Left,1,62,80,529.0,0.979167,Eighth,D4_B3
1132,Right,0,67,80,529.0,0.979167,Eighth,G4
1135,Right,0,69,80,530.0,0.979167,Eighth,A4
1136,Left,1,64,80,530.0,0.979167,Eighth,E4_C4
1138,Left,1,59,80,531.0,1.979167,Quarter,D3_B3
1140,Right,0,62,80,531.0,1.979167,Quarter,D4
1141,Right,0,67,80,532.0,0.979167,Eighth,G4
1142,Left,1,57,80,533.0,0.979167,Eighth,D3_A3
1144,Right,0,60,80,533.0,0.979167,Eighth,F#4_C4
1146,Right,0,67,80,534.0,1.979167,Quarter,G4_B3
1148,Left,1,43,80,534.0,1.979167,Quarter,G3_G2
1150,Right,0,62,80,536.0,0.979167,Eighth,D4
1151,Right,0,67,80,537.0,0.979167,Eighth,G4
1152,Right,0,71,80,538.0,0.979167,Eighth,B4
1153,Right,0,74,80,539.0,0.979167,Eighth,D5
1154,Right,0,74,80,540.0,0.979167,Eighth,D5
1155,Right,0,72,80,541.0,0.979167,Eighth,C5_A4
1156,Left,1,54,80,541.0,0.979167,Eighth,F#3_D4
1159,Left,1,54,80,542.0,0.979167,Eighth,F#3_D4
1160,Right,0,72,80,542.0,0.979167,Eighth,C5_A4
1163,Right,0,74,80,543.0,0.979167,Eighth,D5
1166,Left,1,62,80,544.0,0.979167,Eighth,G3_D4
1164,Right,0,71,80,544.0,0.979167,Eighth,G4_B4
1168,Left,1,55,80,545.0,0.979167,Eighth,G3_D4
1169,Right,0,67,80,545.0,0.979167,Eighth,G4_B4
1172,Right,0,74,80,546.0,0.979167,Eighth,D5
1173,Right,0,72,80,547.0,0.979167,Eighth,C5_A4
1174,Left,1,54,80,547.0,0.979167,Eighth,F#3_D4
1177,Right,0,69,80,548.0,0.979167,Eighth,C5_A4
1179,Left,1,54,80,548.0,0.979167,Eighth,F#3_D4
1181,Right,0,74,80,549.0,0.979167,Eighth,D5
1183,Right,0,67,82,550.0,0.979167,Eighth,G4_B4
1182,Left,1,62,82,550.0,0.979167,Eighth,G3_D4
1186,Right,0,67,84,551.0,0.979167,Eighth,G4_B4
1188,Left,1,62,84,551.0,0.979167,Eighth,G3_D4
1190,Right,0,74,87,552.0,0.979167,Eighth,D5
1191,Left,1,54,89,553.0,0.979167,Eighth,F#3_D4
1193,Right,0,72,89,553.0,0.979167,Eighth,C5_A4
1195,Left,1,55,92,554.0,0.979167,Eighth,G3_D4
1197,Right,0,67,92,554.0,0.979167,Eighth,G4_B4
1199,Right,0,74,94,555.0,0.979167,Eighth,D5
1201,Right,0,72,97,556.0,0.979167,Eighth,C5_A4
1200,Left,1,54,97,556.0,0.979167,Eighth,F#3_D4
1204,Right,0,67,99,557.0,0.979167,Eighth,G4_B4
1206,Left,1,55,99,557.0,0.979167,Eighth,G3_D4
1208,Right,0,74,110,558.0,7.979167,Whole,D5_C5_A4
1211,Left,1,54,110,558.0,7.979167,Whole,F#3_D4
1213,Right,0,74,80,566.0,0.979167,Eighth,D5
1214,Right,0,74,80,567.0,0.979167,Eighth,D5
1217,Right,0,79,80,568.0,0.979167,Eighth,G5
1215,Left,1,71,80,568.0,0.979167,Eighth,D5_B4
1220,Right,0,81,80,569.0,0.979167,Eighth,A5
1218,Left,1,69,80,569.0,0.979167,Eighth,C5_A4
1222,Right,0,83,80,570.0,0.979167,Eighth,B5
1221,Left,1,71,80,570.0,1.979167,Quarter,G4_B4
1224,Right,0,79,80,571.0,0.979167,Eighth,G5
1225,Right,0,76,80,572.0,0.979167,Eighth,E5
1226,Right,0,76,80,573.0,0.979167,Eighth,E5
1227,Left,1,72,80,574.0,0.979167,Eighth,E5_C5
1229,Right,0,81,80,574.0,0.979167,Eighth,A5
1230,Left,1,71,80,575.0,0.979167,Eighth,D5_B4
1231,Right,0,83,80,575.0,0.979167,Eighth,B5
1233,Right,0,84,80,576.0,0.979167,Eighth,C6
1234,Left,1,69,80,576.0,1.979167,Quarter,C5_A4
1236,Right,0,81,80,577.0,0.979167,Eighth,A5
1237,Right,0,88,80,578.0,0.979167,Eighth,E6
1238,Right,0,86,80,579.0,0.979167,Eighth,D6
1241,Right,0,84,80,580.0,0.979167,Eighth,C6
1239,Left,1,69,80,580.0,0.979167,Eighth,F#4_A4
1242,Right,0,83,80,581.0,0.979167,Eighth,B5
1243,Left,1,67,80,581.0,0.979167,Eighth,G4_B4
1247,Right,0,83,80,582.0,0.229167,ThirtySecond,B5
1245,Left,1,72,80,582.0,0.979167,Eighth,C5_A4
1248,Right,0,81,80,582.239583,0.739583,DottedSixteenth,A5
1250,Right,0,79,80,583.0,0.979167,Eighth,G5
1249,Left,1,74,80,583.0,0.979167,Eighth,D5_B4
1253,Right,0,81,80,584.0,0.979167,Eighth,A5
1252,Left,1,72,80,584.0,0.979167,Eighth,E5_C5
1255,Right,0,74,80,585.0,1.979167,Quarter,D5
1256,Left,1,71,80,585.0,1.979167,Quarter,D4_B4
1258,Right,0,79,80,586.0,0.979167,Eighth,G5
1261,Right,0,78,80,587.0,0.979167,Eighth,F#5_C5
1259,Left,1,62,80,587.0,0.979167,Eighth,D4_A4
1264,Left,1,55,80,588.0,1.979167,Quarter,G4_G3
1263,Right,0,71,80,588.0,1.979167,Quarter,G5_B4
1267,Left,1,72,80,590.0,0.979167,Eighth,C5
1268,Left,1,71,80,591.0,0.979167,Eighth,B4
1269,Left,1,69,80,592.0,0.979167,Eighth,A4
1270,Right,0,84,80,592.0,0.979167,Eighth,C6
1272,Left,1,67,80,593.0,0.979167,Eighth,G4
1271,Right,0,83,80,593.0,0.979167,Eighth,B5
1273,Right,0,81,80,594.0,0.979167,Eighth,A5
1274,Left,1,66,80,594.0,0.979167,Eighth,F#4
1276,Right,0,79,80,595.0,0.979167,Eighth,G5
1275,Left,1,64,80,595.0,0.979167,Eighth,E4
1277,Left,1,66,80,596.0,0.979167,Eighth,F#4
1278,Right,0,78,80,596.0,0.979167,Eighth,F#5
1279,Left,1,67,80,597.0,2.979167,Quarter,G4_B3
1281,Right,0,71,80,597.0,1.979167,Quarter,B4
1282,Right,0,76,80,598.0,0.979167,Eighth,E5
1285,Left,1,66,80,599.0,0.979167,Eighth,F#4
1283,Right,0,75,80,599.0,0.979167,Eighth,D#5_A4
1287,Right,0,78,80,600.0,1.979167,Eighth,G4_F#5
1286,Left,1,64,80,600.0,1.979167,Quarter,E4
1289,Right,0,76,80,601.0,0.979167,Eighth,E5
1290,Right,0,81,80,602.0,0.979167,Eighth,A5
1291,Right,0,79,80,603.0,0.979167,Eighth,G5
1293,Right,0,77,80,604.0,0.979167,Eighth,F5
1292,Left,1,69,80,604.0,0.979167,Eighth,A4
1294,Right,0,76,80,605.0,0.979167,Eighth,E5
1295,Left,1,67,80,605.0,0.979167,Eighth,G4
1296,Right,0,74,80,606.0,0.979167,Eighth,D5
1297,Left,1,66,80,606.0,0.979167,Eighth,F#4
1299,Left,1,64,80,607.0,0.979167,Eighth,E4
1298,Right,0,72,80,607.0,0.979167,Eighth,C5
1301,Left,1,66,80,608.0,0.979167,Eighth,F#4
1300,Right,0,74,80,608.0,0.979167,Eighth,D5
1303,Left,1,55,80,609.0,2.979167,DottedQuarter,G3_E4
1302,Right,0,67,80,609.0,1.979167,Quarter,G4
1305,Right,0,72,80,610.0,0.979167,Eighth,C5
1308,Left,1,62,80,611.0,0.979167,Eighth,D4
1306,Right,0,65,80,611.0,0.979167,Eighth,F4_B4
1311,Right,0,64,80,612.0,1.979167,Quarter,E4_D5
1309,Left,1,60,80,612.0,1.979167,Quarter,C4_C3
1313,Right,0,72,80,613.0,0.979167,Eighth,C5
1314,Right,0,72,80,614.0,0.979167,Eighth,C5
1316,Left,1,60,80,615.0,2.979167,Quarter,E3_C4
1315,Right,0,64,80,615.0,1.979167,Quarter,E4
1318,Right,0,69,80,616.0,0.979167,Eighth,A4
1321,Left,1,59,80,617.0,0.979167,Eighth,B3
1319,Right,0,62,80,617.0,0.979167,Eighth,G#4_D4
1324,Left,1,45,80,618.0,1.979167,Quarter,A3_A2
1322,Right,0,60,80,618.0,1.979167,Quarter,C4_B4
1326,Right,0,69,80,619.0,0.979167,Eighth,A4
1327,Right,0,69,80,620.0,0.979167,Eighth,A4
1328,Right,0,62,80,621.0,1.979167,Quarter,D4
1329,Left,1,59,80,621.0,2.979167,Quarter,D3_B3
1331,Right,0,67,80,622.0,0.979167,Eighth,G4
1332,Right,0,60,80,623.0,0.979167,Eighth,F#4_C4
1333,Left,1,57,80,623.0,0.979167,Eighth,A3
1336,Right,0,59,80,624.0,2.979167,DottedQuarter,B3_A4
1335,Left,1,43,80,624.0,2.979167,DottedQuarter,G3_G2
1339,Right,0,67,80,625.0,0.979167,Eighth,G4
1340,Right,0,67,80,626.0,0.979167,Eighth,G4
1341,Right,0,62,80,627.0,2.979167,Eighth,G3_D4
1342,Left,1,52,80,627.0,2.979167,DottedQuarter,E3_A2
1345,Right,0,61,80,628.0,0.979167,Eighth,C#4
1346,Right,0,61,80,629.0,0.979167,Eighth,C#4
1347,Left,1,38,80,630.0,0.979167,Eighth,D2
1348,Right,0,62,80,630.0,1.979167,Quarter,F#3_D4
1350,Left,1,50,80,631.0,0.979167,Eighth,D3
1351,Left,1,50,80,632.0,0.979167,Eighth,D3
1352,Right,0,72,80,633.0,0.229167,ThirtySecond,C5
1353,Left,1,43,80,633.0,0.979167,Eighth,G2
1354,Right,0,71,80,633.239583,0.739583,DottedSixteenth,B4
1356,Left,1,50,80,634.0,0.979167,Eighth,D3
1355,Right,0,69,80,634.0,0.979167,Eighth,A4
1357,Left,1,50,80,635.0,0.979167,Eighth,D3
1358,Right,0,71,80,635.0,0.979167,Eighth,B4
1360,Right,0,72,80,636.0,2.979167,DottedQuarter,C5
1359,Left,1,45,80,636.0,0.979167,Eighth,A2
1361,Left,1,50,80,637.0,0.979167,Eighth,D3
1362,Left,1,50,80,638.0,0.979167,Eighth,D3
1363,Right,0,71,80,639.0,0.229167,ThirtySecond,B4
1364,Left,1,48,80,639.0,0.979167,Eighth,C3
1365,Right,0,69,80,639.239583,0.739583,DottedSixteenth,A4
1366,Left,1,50,80,640.0,0.979167,Eighth,D3
1367,Right,0,68,80,640.0,0.979167,Eighth,G#4
1368,Left,1,50,80,641.0,0.979167,Eighth,D3
1369,Right,0,69,80,641.0,0.979167,Eighth,A4
1370,Left,1,47,80,642.0,0.979167,Eighth,B2
1371,Right,0,74,80,642.0,3.979167,Half,D5
1372,Left,1,50,80,643.0,0.979167,Eighth,D3
1373,Left,1,50,80,644.0,0.979167,Eighth,D3
1374,Left,1,43,80,645.0,0.979167,Eighth,G2
1376,Left,1,50,80,646.0,0.979167,Eighth,D3
1375,Right,0,72,80,646.0,0.979167,Eighth,C5
1377,Left,1,50,80,647.0,0.979167,Eighth,D3
1378,Right,0,71,80,647.0,0.979167,Eighth,B4
1380,Left,1,45,80,648.0,0.979167,Eighth,A2
1379,Right,0,69,80,648.0,0.979167,Eighth,A4
1381,Right,0,71,80,649.0,0.979167,Eighth,B4
1382,Left,1,50,80,649.0,0.979167,Eighth,D3
1383,Right,0,67,80,650.0,0.979167,Eighth,G4
1384,Left,1,50,80,650.0,0.979167,Eighth,D3
1386,Left,1,45,80,651.0,0.979167,Eighth,A2
1385,Right,0,66,80,651.0,0.979167,Eighth,F#4
1387,Left,1,49,80,652.0,0.979167,Eighth,C#3
1388,Right,0,67,80,652.0,0.979167,Eighth,G4
1389,Left,1,49,80,653.0,0.979167,Eighth,C#3
1390,Right,0,64,80,653.0,0.979167,Eighth,E4
1391,Left,1,38,80,654.0,0.979167,Eighth,D2
1392,Right,0,62,80,654.0,3.979167,Half,D4
1393,Left,1,50,80,655.0,0.979167,Eighth,D3
1394,Left,1,50,80,656.0,0.979167,Eighth,D3
1395,Left,1,48,80,657.0,0.979167,Eighth,C3
1396,Right,0,64,80,658.0,0.979167,Eighth,E4
1397,Left,1,50,80,658.0,0.979167,Eighth,D3
1399,Right,0,66,80,659.0,0.979167,Eighth,F#4
1398,Left,1,50,80,659.0,0.979167,Eighth,D3
1400,Right,0,69,80,660.0,0.229167,ThirtySecond,A4
1401,Left,1,47,80,660.0,0.979167,Eighth,B2
1402,Right,0,67,80,660.239583,0.739583,DottedSixteenth,G4
1404,Right,0,66,80,661.0,0.979167,Eighth,F#4
1403,Left,1,50,80,661.0,0.979167,Eighth,D3
1405,Left,1,50,80,662.0,0.979167,Eighth,D3
1406,Right,0,67,80,662.0,0.979167,Eighth,G4
1408,Left,1,43,80,663.0,0.979167,Eighth,G2
1407,Right,0,62,80,663.0,0.979167,Eighth,D4
1409,Left,1,50,80,664.0,0.979167,Eighth,D3
1410,Right,0,66,80,664.0,0.979167,Eighth,F#4
1411,Left,1,50,80,665.0,0.979167,Eighth,D3
1412,Right,0,67,80,665.0,0.979167,Eighth,G4
1414,Left,1,42,80,666.0,0.979167,Eighth,F#2
1413,Right,0,71,80,666.0,0.229167,ThirtySecond,B4
1415,Right,0,69,80,666.239583,0.739583,DottedSixteenth,A4
1416,Left,1,50,80,667.0,0.979167,Eighth,D3
1417,Right,0,68,80,667.0,0.979167,Eighth,G#4
1419,Right,0,69,80,668.0,0.979167,Eighth,A4
1418,Left,1,50,80,668.0,0.979167,Eighth,D3
1421,Left,1,38,80,669.0,0.979167,Eighth,D2
1420,Right,0,62,80,669.0,0.979167,Eighth,D4
1423,Left,1,50,80,670.0,0.979167,Eighth,D3
1422,Right,0,67,80,670.0,0.979167,Eighth,G4
1425,Left,1,50,80,671.0,0.979167,Eighth,D3
1424,Right,0,69,80,671.0,0.979167,Eighth,A4
1426,Left,1,43,80,672.0,0.979167,Eighth,G2
1427,Right,0,72,80,672.0,0.229167,ThirtySecond,C5
1428,Right,0,71,80,672.239583,0.739583,DottedSixteenth,B4
1429,Left,1,50,80,673.0,0.979167,Eighth,D3
1430,Right,0,69,80,673.0,0.979167,Eighth,A4
1431,Right,0,71,80,674.0,0.979167,Eighth,B4
1432,Left,1,55,80,674.0,0.979167,Eighth,G3
1433,Right,0,72,80,675.0,0.979167,Eighth,C5
1434,Left,1,48,80,675.0,0.979167,Eighth,C3
1436,Right,0,74,80,676.0,0.979167,Eighth,D5
1435,Left,1,52,80,676.0,0.979167,Eighth,E3
1438,Right,0,76,80,677.0,0.979167,Eighth,E5
1437,Left,1,57,80,677.0,0.979167,Eighth,A3
1440,Left,1,50,80,678.0,0.979167,Eighth,D3
1439,Right,0,69,80,678.0,1.979167,Quarter,A4
1441,Left,1,62,80,679.0,0.979167,Eighth,D4
1442,Left,1,62,80,680.0,0.979167,Eighth,D4
1443,Left,1,55,80,681.0,0.979167,Eighth,G3
1444,Right,0,84,80,681.0,0.229167,ThirtySecond,C6
1445,Right,0,83,80,681.239583,0.739583,DottedSixteenth,B5
1446,Left,1,62,80,682.0,0.979167,Eighth,D4
1447,Right,0,81,80,682.0,0.979167,Eighth,A5
1448,Left,1,62,80,683.0,0.979167,Eighth,D4
1449,Right,0,83,80,683.0,0.979167,Eighth,B5
1450,Right,0,84,80,684.0,2.979167,DottedQuarter,C6
1451,Left,1,57,80,684.0,0.979167,Eighth,A3
1452,Left,1,62,80,685.0,0.979167,Eighth,D4
1453,Left,1,62,80,686.0,0.979167,Eighth,D4
1455,Left,1,60,80,687.0,0.979167,Eighth,C4
1454,Right,0,83,80,687.0,0.229167,ThirtySecond,B5
1456,Right,0,81,80,687.239583,0.739583,DottedSixteenth,A5
1458,Left,1,62,80,688.0,0.979167,Eighth,D4
1457,Right,0,80,80,688.0,0.979167,Eighth,G#5
1459,Right,0,81,80,689.0,0.979167,Eighth,A5
1460,Left,1,62,80,689.0,0.979167,Eighth,D4
1461,Right,0,86,80,690.0,3.979167,Half,D6
1462,Left,1,59,80,690.0,0.979167,Eighth,B3
1463,Left,1,62,80,691.0,0.979167,Eighth,D4
1464,Left,1,62,80,692.0,0.979167,Eighth,D4
1465,Left,1,55,80,693.0,0.979167,Eighth,G3
1467,Right,0,84,80,694.0,0.979167,Eighth,C6
1466,Left,1,62,80,694.0,0.979167,Eighth,D4
1469,Right,0,83,80,695.0,0.979167,Eighth,B5
1468,Left,1,62,80,695.0,0.979167,Eighth,D4
1470,Right,0,81,80,696.0,0.979167,Eighth,A5
1471,Left,1,57,80,696.0,0.979167,Eighth,A3
1472,Left,1,62,80,697.0,0.979167,Eighth,D4
1473,Right,0,83,80,697.0,0.979167,Eighth,B5
1475,Right,0,79,80,698.0,0.979167,Eighth,G5
1474,Left,1,62,80,698.0,0.979167,Eighth,D4
1476,Right,0,78,80,699.0,0.979167,Eighth,F#5
1477,Left,1,57,80,699.0,0.979167,Eighth,A3
1478,Right,0,79,80,700.0,0.979167,Eighth,G5
1479,Left,1,61,80,700.0,0.979167,Eighth,C#4
1480,Right,0,76,80,701.0,0.979167,Eighth,E5
1481,Left,1,61,80,701.0,0.979167,Eighth,C#4
1483,Right,0,74,80,702.0,3.979167,Half,D5
1482,Left,1,50,80,702.0,0.979167,Eighth,D3
1484,Left,1,62,80,703.0,0.979167,Eighth,D4
1485,Left,1,62,80,704.0,0.979167,Eighth,D4
1486,Left,1,60,80,705.0,0.979167,Eighth,C4
1488,Left,1,62,80,706.0,0.979167,Eighth,D4
1487,Right,0,76,80,706.0,0.979167,Eighth,E5
1490,Left,1,62,80,707.0,0.979167,Eighth,D4
1489,Right,0,78,80,707.0,0.979167,Eighth,F#5
1491,Right,0,81,80,708.0,0.229167,ThirtySecond,A5
1492,Left,1,59,80,708.0,0.979167,Eighth,B3
1493,Right,0,79,80,708.239583,0.739583,DottedSixteenth,G5
1494,Right,0,78,80,709.0,0.979167,Eighth,F#5
1495,Left,1,62,80,709.0,0.979167,Eighth,D4
1497,Right,0,79,80,710.0,0.979167,Eighth,G5
1496,Left,1,62,80,710.0,0.979167,Eighth,D4
1499,Right,0,74,80,711.0,0.979167,Eighth,D5
1498,Left,1,55,80,711.0,0.979167,Eighth,G3
1500,Left,1,62,80,712.0,0.979167,Eighth,D4
1501,Right,0,78,80,712.0,0.979167,Eighth,F#5
1502,Left,1,62,80,713.0,0.979167,Eighth,D4
1503,Right,0,79,80,713.0,0.979167,Eighth,G5
1504,Left,1,54,80,714.0,0.979167,Eighth,F#3
1505,Right,0,83,80,714.0,0.229167,ThirtySecond,B5
1506,Right,0,81,80,714.239583,0.739583,DottedSixteenth,A5
1508,Left,1,57,80,715.0,0.979167,Eighth,A3
1507,Right,0,80,80,715.0,0.979167,Eighth,G#5
1509,Right,0,81,80,716.0,0.979167,Eighth,A5
1510,Left,1,62,80,716.0,0.979167,Eighth,D4
1511,Right,0,84,80,717.0,0.229167,ThirtySecond,C6
1512,Left,1,55,80,717.0,0.979167,Eighth,G3
1513,Right,0,83,80,717.239583,0.739583,DottedSixteenth,B5
1514,Right,0,81,80,718.0,0.979167,Eighth,A5
1515,Left,1,59,80,718.0,0.979167,Eighth,B3
1516,Right,0,83,80,719.0,0.979167,Eighth,B5
1517,Left,1,62,80,719.0,0.979167,Eighth,D4
1518,Right,0,86,80,720.0,0.229167,ThirtySecond,D6
1519,Left,1,48,80,720.0,0.979167,Eighth,C3
1520,Right,0,84,80,720.239583,0.739583,DottedSixteenth,C6
1521,Left,1,52,80,721.0,0.979167,Eighth,E3
1522,Right,0,83,80,721.0,0.979167,Eighth,B5
1523,Right,0,84,80,722.0,0.979167,Eighth,C6
1524,Left,1,57,80,722.0,0.979167,Eighth,A3
1525,Left,1,54,80,723.0,0.979167,Eighth,F#3_D3
1526,Right,0,88,80,723.0,1.979167,Quarter,E6
1528,Left,1,57,80,724.0,0.979167,Eighth,A3
1530,Right,0,78,80,725.0,0.979167,Eighth,F#5
1529,Left,1,60,80,725.0,0.979167,Eighth,C4
1532,Right,0,79,80,726.0,1.979167,Quarter,G5
1531,Left,1,55,80,726.0,0.979167,Eighth,G3
1533,Left,1,59,80,727.0,0.979167,Eighth,B3
1534,Left,1,62,80,728.0,0.979167,Eighth,D4
1535,Right,0,69,80,729.0,0.229167,ThirtySecond,A4
1536,Right,0,67,80,729.239583,0.739583,DottedSixteenth,G4
1537,Right,0,66,80,730.0,0.979167,Eighth,F#4
1538,Right,0,67,80,731.0,0.979167,Eighth,G4
1541,Left,1,59,80,732.0,2.979167,DottedQuarter,D4_B3
1539,Right,0,67,80,732.0,2.979167,DottedQuarter,G4_D5
1543,Right,0,74,80,734.0,0.979167,Eighth,D5
1544,Right,0,74,80,735.0,2.979167,Quarter,G#4_D5
1545,Left,1,58,80,735.0,2.979167,DottedQuarter,D4_A#3
1548,Right,0,74,80,737.0,0.979167,Eighth,D5
1549,Right,0,69,80,738.0,2.979167,DottedQuarter,D5_A4
1551,Left,1,57,80,738.0,2.979167,DottedQuarter,E4_A3
1553,Right,0,73,80,740.0,0.979167,Eighth,C#5
1554,Right,0,71,80,741.0,0.229167,ThirtySecond,B4
1555,Right,0,69,80,741.239583,0.739583,DottedSixteenth,A4
1556,Right,0,68,80,742.0,0.979167,Eighth,G#4
1557,Right,0,69,80,743.0,0.979167,Eighth,A4
1560,Right,0,72,80,744.0,2.979167,Quarter,C5_A4
1558,Left,1,57,80,744.0,2.979167,DottedQuarter,E4_A3
1562,Right,0,72,80,746.0,0.979167,Eighth,C5
1565,Left,1,54,80,747.0,2.979167,DottedQuarter,F#3_D#4
1563,Right,0,72,80,747.0,2.979167,Quarter,C5_A4
1567,Right,0,72,80,749.0,0.979167,Eighth,C5
1568,Left,1,62,80,750.0,2.979167,DottedQuarter,G3_D4
1569,Right,0,72,80,750.0,2.979167,Quarter,G4_C5
1572,Right,0,71,80,752.0,0.979167,Eighth,B4
1573,Left,1,55,80,753.0,0.979167,Eighth,G3
1574,Right,0,72,80,753.0,0.104167,SixtyFourth,C5
1575,Right,0,71,80,753.239583,0.739583,DottedSixteenth,B4
1576,Right,0,69,80,754.0,0.979167,Eighth,A4
1577,Left,1,62,80,754.0,0.979167,Eighth,D4
1578,Right,0,71,80,755.0,0.979167,Eighth,B4
1579,Left,1,62,80,755.0,0.979167,Eighth,D4
1580,Left,1,57,80,756.0,0.979167,Eighth,A3
1581,Right,0,72,80,756.0,2.979167,DottedQuarter,C5
1582,Left,1,62,80,757.0,0.979167,Eighth,D4
1583,Left,1,62,80,758.0,0.979167,Eighth,D4
1585,Left,1,60,80,759.0,0.979167,Eighth,C4
1584,Right,0,71,80,759.0,0.104167,SixtyFourth,B4
1586,Right,0,69,80,759.239583,0.739583,DottedSixteenth,A4
1588,Right,0,68,80,760.0,0.979167,Eighth,G#4
1587,Left,1,62,80,760.0,0.979167,Eighth,D4
1589,Right,0,69,80,761.0,0.979167,Eighth,A4
1590,Left,1,62,80,761.0,0.979167,Eighth,D4
1592,Right,0,74,80,762.0,3.979167,Half,D5
1591,Left,1,59,80,762.0,0.979167,Eighth,B3
1593,Left,1,55,80,763.0,0.979167,Eighth,G3
1594,Left,1,55,80,764.0,0.979167,Eighth,G3
1595,Left,1,48,80,765.0,0.979167,Eighth,C3
1597,Right,0,75,80,766.0,0.979167,Eighth,D#5
1596,Left,1,55,80,766.0,0.979167,Eighth,G3
1598,Left,1,55,80,767.0,0.979167,Eighth,G3
1599,Right,0,76,80,767.0,0.979167,Eighth,E5
1601,Right,0,67,80,768.0,1.979167,Quarter,G4
1600,Left,1,50,80,768.0,0.979167,Eighth,D3
1602,Left,1,55,80,769.0,0.979167,Eighth,G3
1604,Right,0,69,80,770.0,0.458333,Sixteenth,A4
1603,Left,1,55,80,770.0,0.979167,Eighth,G3
1605,Right,0,67,80,770.25,0.447917,Sixteenth,G4
1606,Right,0,66,80,770.5,0.416667,Sixteenth,F#4
1607,Right,0,67,80,770.75,0.229167,ThirtySecond,G4
1609,Left,1,50,80,771.0,0.979167,Eighth,D3
1608,Right,0,71,80,771.0,1.979167,Quarter,B4
1610,Left,1,54,80,772.0,0.979167,Eighth,F#3
1612,Left,1,54,80,773.0,0.979167,Eighth,F#3
1611,Right,0,69,80,773.0,0.979167,Eighth,A4
1613,Right,0,67,80,774.0,1.979167,Quarter,G4
1614,Left,1,43,80,774.0,0.979167,Eighth,G2
1615,Left,1,55,80,775.0,0.979167,Eighth,G3
1616,Left,1,55,80,776.0,0.979167,Eighth,G3
1617,Right,0,69,80,777.0,0.229167,ThirtySecond,A4
1618,Right,0,67,80,777.239583,0.739583,DottedSixteenth,G4
1619,Right,0,66,80,778.0,0.979167,Eighth,F#4
1620,Right,0,67,80,779.0,0.979167,Eighth,G4
1622,Right,0,74,80,780.0,2.979167,Quarter,G4_D5
1621,Left,1,59,80,780.0,0.979167,Eighth,B3
1624,Left,1,62,80,781.0,0.979167,Eighth,D4
1625,Right,0,74,80,782.0,0.979167,Eighth,D5
1626,Left,1,62,80,782.0,0.979167,Eighth,D4
1627,Right,0,74,80,783.0,2.979167,Quarter,G#4_D5
1629,Left,1,58,80,783.0,0.979167,Eighth,A#3
1630,Left,1,62,80,784.0,0.979167,Eighth,D4
1632,Right,0,74,80,785.0,0.979167,Eighth,D5
1631,Left,1,62,80,785.0,0.979167,Eighth,D4
1635,Left,1,57,80,786.0,0.979167,Eighth,A3
1633,Right,0,69,80,786.0,2.979167,DottedQuarter,D5_A4
1636,Left,1,64,80,787.0,0.979167,Eighth,E4
1638,Left,1,64,80,788.0,0.979167,Eighth,E4
1637,Right,0,73,80,788.0,0.979167,Eighth,C#5
1639,Right,0,71,80,789.0,0.229167,ThirtySecond,B4
1640,Left,1,64,80,789.0,0.979167,Eighth,E4
1641,Right,0,69,80,789.239583,0.739583,DottedSixteenth,A4
1642,Right,0,68,80,790.0,0.979167,Eighth,G#4
1643,Left,1,64,80,790.0,0.979167,Eighth,E4
1645,Left,1,64,80,791.0,0.979167,Eighth,E4
1644,Right,0,69,80,791.0,0.979167,Eighth,A4
1647,Right,0,69,80,792.0,2.979167,DottedQuarter,C5_A4
1646,Left,1,57,80,792.0,0.979167,Eighth,A3
1649,Left,1,64,80,793.0,0.979167,Eighth,E4
1651,Left,1,64,80,794.0,0.979167,Eighth,E4
1650,Right,0,72,80,794.0,0.979167,Eighth,C5
1652,Left,1,54,80,795.0,0.979167,Eighth,F#3
1653,Right,0,72,80,795.0,2.979167,Quarter,C5_A4
1655,Left,1,63,80,796.0,0.979167,Eighth,D#4
1656,Right,0,72,80,797.0,0.979167,Eighth,C5
1657,Left,1,63,80,797.0,0.979167,Eighth,D#4
1659,Left,1,55,80,798.0,0.979167,Eighth,G3
1658,Right,0,72,80,798.0,2.979167,Quarter,G4_C5
1661,Left,1,62,80,799.0,0.979167,Eighth,D4
1663,Right,0,71,80,800.0,0.979167,Eighth,B4
1662,Left,1,62,80,800.0,0.979167,Eighth,D4
1664,Right,0,72,80,801.0,0.104167,SixtyFourth,C5
1665,Left,1,62,80,801.0,0.979167,Eighth,D4
1666,Right,0,71,80,801.239583,0.739583,DottedSixteenth,B4
1668,Right,0,69,80,802.0,0.979167,Eighth,A4
1667,Left,1,62,80,802.0,0.979167,Eighth,D4
1669,Left,1,62,80,803.0,0.979167,Eighth,D4
1670,Right,0,71,80,803.0,0.979167,Eighth,B4
1671,Left,1,57,80,804.0,0.979167,Eighth,A3
1672,Right,0,72,80,804.0,2.979167,DottedQuarter,C5
1673,Left,1,62,80,805.0,0.979167,Eighth,D4
1674,Left,1,62,80,806.0,0.979167,Eighth,D4
1675,Left,1,60,80,807.0,0.979167,Eighth,C4
1676,Right,0,71,80,807.0,0.104167,SixtyFourth,B4
1677,Right,0,69,80,807.239583,0.739583,DottedSixteenth,A4
1679,Left,1,62,80,808.0,0.979167,Eighth,D4
1678,Right,0,68,80,808.0,0.979167,Eighth,G#4
1681,Left,1,62,80,809.0,0.979167,Eighth,D4
1680,Right,0,69,80,809.0,0.979167,Eighth,A4
1683,Right,0,74,80,810.0,3.979167,Half,D5
1682,Left,1,59,80,810.0,0.979167,Eighth,B3
1684,Left,1,55,80,811.0,0.979167,Eighth,G3
1685,Left,1,55,80,812.0,0.979167,Eighth,G3
1686,Left,1,48,80,813.0,0.979167,Eighth,C3
1687,Left,1,55,80,814.0,0.979167,Eighth,G3
1688,Right,0,75,80,814.0,0.979167,Eighth,D#5
1689,Left,1,60,80,815.0,0.979167,Eighth,C4
1690,Right,0,76,80,815.0,0.979167,Eighth,E5
1692,Left,1,50,80,816.0,0.979167,Eighth,D3
1691,Right,0,67,80,816.0,1.979167,Quarter,G4
1693,Left,1,55,80,817.0,0.979167,Eighth,G3
1694,Left,1,59,80,818.0,0.979167,Eighth,B3
1695,Right,0,69,80,818.0,0.458333,Sixteenth,A4
1696,Right,0,67,80,818.25,0.447917,Sixteenth,G4
1697,Right,0,66,80,818.5,0.416667,Sixteenth,F#4
1698,Right,0,67,80,818.75,0.229167,ThirtySecond,G4
1699,Left,1,50,80,819.0,0.979167,Eighth,D3
1700,Right,0,71,80,819.0,1.979167,Quarter,B4
1701,Left,1,54,80,820.0,0.979167,Eighth,F#3
1702,Right,0,69,80,821.0,0.979167,Eighth,A4
1703,Left,1,60,80,821.0,0.979167,Eighth,C4
1705,Left,1,59,80,822.0,1.979167,Quarter,G3_B3
1704,Right,0,67,80,822.0,1.979167,Quarter,G4
1707,Right,0,62,80,824.0,0.979167,Eighth,D4
1708,Right,0,62,80,825.0,0.979167,Eighth,D4
1711,Right,0,67,80,826.0,0.979167,Eighth,G4
1709,Left,1,62,80,826.0,0.979167,Eighth,D4_B3
1713,Right,0,69,80,827.0,0.979167,Eighth,A4
1712,Left,1,57,80,827.0,0.979167,Eighth,C4_A3
1716,Left,1,59,80,828.0,1.979167,Quarter,G3_B3
1715,Right,0,71,80,828.0,0.979167,Eighth,B4
1718,Right,0,67,80,829.0,0.979167,Eighth,G4
1719,Right,0,62,80,830.0,0.979167,Eighth,D4
1720,Right,0,62,80,831.0,0.979167,Eighth,D4
1721,Left,1,60,80,832.0,0.979167,Eighth,C4_A3
1722,Right,0,69,80,832.0,0.979167,Eighth,A4
1724,Right,0,71,80,833.0,0.979167,Eighth,B4
1725,Left,1,59,80,833.0,0.979167,Eighth,G3_B3
1727,Right,0,72,80,834.0,0.979167,Eighth,C5
1728,Left,1,54,80,834.0,1.979167,Quarter,F#3_A3
1730,Right,0,69,80,835.0,0.979167,Eighth,A4
1731,Left,1,50,100,836.0,0.979167,Eighth,D3
1732,Left,1,50,100,837.0,0.979167,Eighth,D3
1735,Left,1,55,100,838.0,0.979167,Eighth,G3
1733,Right,0,71,100,838.0,0.979167,Eighth,D5_B4
1737,Right,0,72,100,839.0,0.979167,Eighth,C5_A4
1736,Left,1,57,100,839.0,0.979167,Eighth,A3
1739,Left,1,59,100,840.0,1.979167,Quarter,B3
1740,Right,0,71,100,840.0,0.979167,Eighth,G4_B4
1742,Right,0,62,100,841.0,0.979167,Eighth,D4
1743,Left,1,50,100,842.0,0.979167,Eighth,D3
1744,Left,1,50,100,843.0,0.979167,Eighth,D3
1746,Right,0,72,100,844.0,0.979167,Eighth,C5_A4
1745,Left,1,57,100,844.0,0.979167,Eighth,A3
1749,Right,0,67,100,845.0,0.979167,Eighth,G4_B4
1748,Left,1,59,100,845.0,0.979167,Eighth,B3
1751,Right,0,66,100,846.0,0.979167,Eighth,F#4_A4
1752,Left,1,60,100,846.0,1.979167,Quarter,C4
1754,Right,0,62,100,847.0,0.979167,Eighth,D4
1755,Right,0,62,80,848.0,0.979167,Eighth,D4
1756,Right,0,62,80,849.0,0.979167,Eighth,D4
1758,Left,1,62,80,850.0,0.979167,Eighth,D4_B3
1757,Right,0,67,80,850.0,0.979167,Eighth,G4
1760,Right,0,69,80,851.0,0.979167,Eighth,A4
1761,Left,1,57,80,851.0,0.979167,Eighth,C4_A3
1764,Left,1,59,80,852.0,1.979167,Quarter,G3_B3
1763,Right,0,71,80,852.0,0.979167,Eighth,B4
1766,Right,0,67,80,853.0,0.979167,Eighth,G4
1767,Right,0,64,80,854.0,0.979167,Eighth,E4
1768,Right,0,64,80,855.0,0.979167,Eighth,E4
1770,Right,0,69,80,856.0,0.979167,Eighth,A4
1769,Left,1,60,80,856.0,0.979167,Eighth,E4_C4
1774,Right,0,71,80,857.0,0.979167,Eighth,B4
1772,Left,1,59,80,857.0,0.979167,Eighth,D4_B3
1775,Left,1,60,80,858.0,1.979167,Quarter,C4_A3
1776,Right,0,72,80,858.0,0.979167,Eighth,C5
1778,Right,0,69,80,859.0,0.979167,Eighth,A4
1779,Right,0,76,80,860.0,0.979167,Eighth,E5
1780,Right,0,74,80,861.0,0.979167,Eighth,D5
1782,Left,1,57,80,862.0,0.979167,Eighth,F#3_A3
1781,Right,0,72,80,862.0,0.979167,Eighth,C5
1785,Left,1,59,80,863.0,0.979167,Eighth,G3_B3
1784,Right,0,71,80,863.0,0.979167,Eighth,B4
1789,Right,0,69,80,864.0,0.979167,Eighth,A4
1787,Left,1,57,80,864.0,0.979167,Eighth,C4_A3
1792,Right,0,67,80,865.0,0.979167,Eighth,G4
1790,Left,1,59,80,865.0,0.979167,Eighth,D4_B3
1793,Left,1,64,100,866.0,0.979167,Eighth,E4
1794,Left,1,62,100,867.0,0.979167,Eighth,D4
1796,Right,0,76,100,868.0,0.979167,Eighth,E5
1795,Left,1,60,100,868.0,0.979167,Eighth,C4
1798,Right,0,79,100,869.0,0.979167,Eighth,G5_D5
1797,Left,1,59,100,869.0,0.979167,Eighth,B3
1800,Left,1,57,100,870.0,0.979167,Eighth,A3
1801,Right,0,72,120,870.0,0.979167,Eighth,F#5_C5
1805,Left,1,55,100,871.0,0.979167,Eighth,G3
1803,Right,0,79,100,871.0,0.979167,Eighth,G5_B4
1806,Right,0,76,80,872.0,0.979167,Eighth,E5
1807,Right,0,74,80,873.0,0.979167,Eighth,D5
1810,Right,0,72,80,874.0,0.979167,Eighth,C5
1808,Left,1,54,80,874.0,0.979167,Eighth,F#3_A3
1812,Left,1,55,80,875.0,0.979167,Eighth,G3_B3
1811,Right,0,71,80,875.0,0.979167,Eighth,B4
1814,Left,1,60,80,876.0,0.979167,Eighth,C4_A3
1815,Right,0,69,80,876.0,0.979167,Eighth,A4
1818,Left,1,62,80,877.0,0.979167,Eighth,D4_B3
1817,Right,0,67,80,877.0,0.979167,Eighth,G4
1820,Left,1,64,100,878.0,0.979167,Eighth,E4
1821,Left,1,62,100,879.0,0.979167,Eighth,D4
1823,Left,1,60,100,880.0,0.979167,Eighth,C4
1822,Right,0,76,100,880.0,0.979167,Eighth,E5
1824,Left,1,59,100,881.0,0.979167,Eighth,B3
1825,Right,0,74,100,881.0,0.979167,Eighth,G5_D5
1828,Left,1,57,100,882.0,0.979167,Eighth,A3
1827,Right,0,78,120,882.0,0.979167,Eighth,F#5_C5
1832,Left,1,55,100,883.0,0.979167,Eighth,G3
1830,Right,0,71,100,883.0,0.979167,Eighth,G5_B4
1833,Left,1,62,100,884.0,0.979167,Eighth,D4
1834,Right,0,77,80,885.0,0.979167,Eighth,G#5_F5
1836,Right,0,78,80,886.0,0.979167,Eighth,F#5_A5
1838,Left,1,62,80,887.0,0.979167,Eighth,D4
1839,Right,0,78,80,888.0,0.979167,Eighth,F#5_A#5
1841,Right,0,79,83,889.0,0.979167,Eighth,G5_B5
1843,Left,1,62,87,890.0,0.979167,Eighth,D4
1844,Right,0,80,90,891.0,0.979167,Eighth,G#5_B5
1846,Right,0,84,94,892.0,0.979167,Eighth,C6_A5
1848,Left,1,62,98,893.0,0.979167,Eighth,D4
1849,Right,0,84,120,894.0,13.979167,Half,F#5_C6_C5_A5
1853,Left,1,50,120,894.0,13.979167,Unknown,F#3_D4_D3_A3
1857,Right,0,81,80,899.0,0.979167,Eighth,A5
1858,Right,0,78,80,900.0,7.979167,Whole,F#5
1859,Left,1,38,80,908.0,0.979167,Eighth,D2
1860,Left,1,38,80,909.0,0.979167,Eighth,D2
1861,Left,1,45,80,910.0,0.979167,Eighth,A2
1862,Left,1,47,80,911.0,0.979167,Eighth,B2
1863,Right,0,62,80,912.0,2.979167,DottedQuarter,F#3_D4
1865,Left,1,48,80,912.0,2.979167,DottedQuarter,C3
1866,Right,0,57,80,913.0,0.979167,Eighth,A3
1867,Right,0,54,80,914.0,0.979167,Eighth,F#3
1870,Left,1,47,80,915.0,2.979167,DottedQuarter,B2
1868,Right,0,62,80,915.0,2.979167,DottedQuarter,G3_D4
1871,Right,0,59,80,916.0,0.979167,Eighth,B3
1872,Right,0,55,80,917.0,0.979167,Eighth,G3
1874,Left,1,45,80,918.0,2.979167,DottedQuarter,A2
1873,Right,0,66,80,918.0,2.979167,DottedQuarter,F#4_C4
1876,Right,0,62,80,919.0,0.979167,Eighth,D4
1877,Right,0,60,80,920.0,0.979167,Eighth,C4
1878,Right,0,67,80,921.0,2.979167,DottedQuarter,G4_B3
1879,Left,1,43,80,921.0,2.979167,DottedQuarter,G2
1881,Right,0,62,80,922.0,0.979167,Eighth,D4
1882,Right,0,59,80,923.0,0.979167,Eighth,B3
1883,Left,1,48,80,924.0,5.979167,DottedHalf,C3
1884,Right,0,64,80,925.0,0.979167,Eighth,E4
1885,Right,0,68,80,926.0,0.979167,Eighth,G#4
1887,Left,1,60,80,927.0,2.979167,DottedQuarter,C4
1886,Right,0,69,80,927.0,0.979167,Eighth,A4
1888,Right,0,72,80,928.0,0.979167,Eighth,C5
1889,Right,0,69,80,929.0,0.979167,Eighth,A4
1890,Right,0,67,80,930.0,2.979167,Eighth,G4_D4
1892,Left,1,59,80,930.0,2.979167,DottedQuarter,D3_B3
1894,Right,0,71,80,931.0,0.979167,Eighth,B4
1895,Right,0,67,80,932.0,0.979167,Eighth,G4
1898,Left,1,57,80,933.0,2.979167,DottedQuarter,D3_A3
1896,Right,0,66,80,933.0,2.979167,Eighth,F#4_C4
1900,Right,0,69,80,934.0,0.979167,Eighth,A4
1901,Right,0,66,80,935.0,0.979167,Eighth,F#4
1904,Left,1,43,80,936.0,0.979167,Eighth,G2
1902,Right,0,59,80,936.0,1.979167,Quarter,G4_B3
1905,Left,1,50,80,937.0,0.979167,Eighth,D3
1906,Left,1,55,80,938.0,0.979167,Eighth,G3
1907,Right,0,62,80,938.0,0.979167,Eighth,D4
1909,Left,1,43,80,939.0,0.979167,Eighth,G2
1908,Right,0,62,80,939.0,0.979167,Eighth,D4
1911,Left,1,50,80,940.0,0.979167,Eighth,D3
1910,Right,0,69,80,940.0,0.979167,Eighth,A4
1913,Left,1,55,80,941.0,0.979167,Eighth,G3
1912,Right,0,71,80,941.0,0.979167,Eighth,B4
1915,Right,0,72,80,942.0,1.979167,Quarter,C5
1914,Left,1,43,80,942.0,0.979167,Eighth,G2
1916,Left,1,50,80,943.0,0.979167,Eighth,D3
1917,Right,0,74,80,944.0,0.979167,Eighth,D5
1918,Left,1,54,80,944.0,0.979167,Eighth,F#3
1919,Left,1,43,80,945.0,0.979167,Eighth,G2
1920,Right,0,74,80,945.0,0.979167,Eighth,D5
1921,Right,0,81,80,946.0,0.979167,Eighth,A5
1922,Left,1,50,80,946.0,0.979167,Eighth,D3
1923,Right,0,83,80,947.0,0.979167,Eighth,B5
1924,Left,1,54,80,947.0,0.979167,Eighth,F#3
1926,Right,0,84,80,948.0,1.979167,Quarter,C6
1925,Left,1,43,80,948.0,0.979167,Eighth,G2
1927,Left,1,50,80,949.0,0.979167,Eighth,D3
1929,Right,0,62,80,950.0,0.979167,Eighth,D4
1928,Left,1,54,80,950.0,0.979167,Eighth,F#3
1930,Right,0,62,80,951.0,0.979167,Eighth,D4
1931,Left,1,43,80,951.0,0.979167,Eighth,G2
1933,Left,1,50,80,952.0,0.979167,Eighth,D3
1932,Right,0,74,80,952.0,0.979167,Eighth,D5
1935,Left,1,54,80,953.0,0.979167,Eighth,F#3
1934,Right,0,72,80,953.0,0.979167,Eighth,C5
1937,Left,1,43,80,954.0,0.979167,Eighth,G2
1936,Right,0,71,80,954.0,1.979167,Quarter,B4
1938,Left,1,50,80,955.0,0.979167,Eighth,D3
1940,Left,1,55,80,956.0,0.979167,Eighth,G3
1939,Right,0,74,80,956.0,0.979167,Eighth,D5
1942,Left,1,43,80,957.0,0.979167,Eighth,G2
1941,Right,0,74,80,957.0,0.979167,Eighth,D5
1943,Left,1,50,80,958.0,0.979167,Eighth,D3
1944,Right,0,86,80,958.0,0.979167,Eighth,D6
1945,Right,0,84,80,959.0,0.979167,Eighth,C6
1946,Left,1,54,80,959.0,0.979167,Eighth,F#3
1948,Right,0,83,80,960.0,1.979167,Quarter,B5
1947,Left,1,43,80,960.0,0.979167,Eighth,G2
1949,Left,1,50,80,961.0,0.979167,Eighth,D3
1951,Left,1,55,80,962.0,0.979167,Eighth,G3
1950,Right,0,62,80,962.0,0.979167,Eighth,D4
1953,Right,0,62,80,963.0,0.979167,Eighth,D4
1952,Left,1,43,80,963.0,0.979167,Eighth,G2
1954,Left,1,50,80,964.0,0.979167,Eighth,D3
1955,Right,0,69,80,964.0,0.979167,Eighth,A4
1956,Left,1,55,80,965.0,0.979167,Eighth,G3
1957,Right,0,71,80,965.0,0.979167,Eighth,B4
1958,Left,1,43,80,966.0,0.979167,Eighth,G2
1959,Right,0,72,80,966.0,1.979167,Quarter,C5
1960,Left,1,50,80,967.0,0.979167,Eighth,D3
1962,Left,1,54,80,968.0,0.979167,Eighth,F#3
1961,Right,0,74,80,968.0,0.979167,Eighth,D5
1964,Right,0,74,80,969.0,0.979167,Eighth,D5
1963,Left,1,43,80,969.0,0.979167,Eighth,G2
1965,Right,0,81,80,970.0,0.979167,Eighth,A5
1966,Left,1,50,80,970.0,0.979167,Eighth,D3
1967,Right,0,83,80,971.0,0.979167,Eighth,B5
1968,Left,1,54,80,971.0,0.979167,Eighth,F#3
1970,Right,0,84,80,972.0,1.979167,Quarter,C6
1969,Left,1,43,80,972.0,0.979167,Eighth,G2
1971,Left,1,50,80,973.0,0.979167,Eighth,D3
1972,Right,0,62,80,974.0,0.979167,Eighth,D4
1973,Left,1,54,80,974.0,0.979167,Eighth,F#3
1975,Right,0,62,80,975.0,0.979167,Eighth,D4
1974,Left,1,43,80,975.0,0.979167,Eighth,G2
1976,Right,0,74,80,976.0,0.979167,Eighth,D5
1977,Left,1,50,80,976.0,0.979167,Eighth,D3
1979,Right,0,72,80,977.0,0.979167,Eighth,C5
1978,Left,1,54,80,977.0,0.979167,Eighth,F#3
1981,Left,1,43,80,978.0,0.979167,Eighth,G2
1980,Right,0,71,80,978.0,1.979167,Quarter,B4
1982,Left,1,50,80,979.0,0.979167,Eighth,D3
1983,Left,1,55,80,980.0,0.979167,Eighth,G3
1984,Left,1,43,80,981.0,0.979167,Eighth,G2
1985,Right,0,74,80,981.0,0.979167,Eighth,D5
1986,Left,1,50,80,982.0,0.979167,Eighth,D3
1987,Right,0,86,80,982.0,0.979167,Eighth,D6
1989,Left,1,54,80,983.0,0.979167,Eighth,F#3
1988,Right,0,84,80,983.0,0.979167,Eighth,C6
1991,Right,0,83,80,984.0,1.979167,Quarter,B5
1990,Left,1,43,80,984.0,0.979167,Eighth,G2
1992,Left,1,50,80,985.0,0.979167,Eighth,D3
1993,Left,1,55,80,986.0,0.979167,Eighth,G3
1995,Left,1,43,80,987.0,0.979167,Eighth,G2
1994,Right,0,62,80,987.0,0.979167,Eighth,D4
1996,Right,0,74,80,988.0,0.979167,Eighth,D5
1997,Left,1,50,80,988.0,0.979167,Eighth,D3
1999,Right,0,72,80,989.0,0.979167,Eighth,C5
1998,Left,1,54,80,989.0,0.979167,Eighth,F#3
2000,Right,0,71,80,990.0,1.979167,Quarter,B4
2001,Left,1,43,80,990.0,0.979167,Eighth,G2
2002,Left,1,50,80,991.0,0.979167,Eighth,D3
2003,Left,1,55,80,992.0,0.979167,Eighth,G3
2004,Right,0,74,80,993.0,0.979167,Eighth,D5
2005,Left,1,43,80,993.0,0.979167,Eighth,G2
2007,Left,1,50,80,994.0,0.979167,Eighth,D3
2006,Right,0,86,80,994.0,0.979167,Eighth,D6
2008,Left,1,54,80,995.0,0.979167,Eighth,F#3
2009,Right,0,84,80,995.0,0.979167,Eighth,C6
2010,Right,0,83,80,996.0,1.979167,Quarter,B5
2011,Left,1,43,80,996.0,0.979167,Eighth,G2
2012,Left,1,50,80,997.0,0.979167,Eighth,D3
2013,Left,1,55,80,998.0,0.979167,Eighth,G3
2014,Left,1,43,120,999.0,0.979167,Eighth,G2
2015,Right,0,83,120,999.0,1.979167,Quarter,G5_D5_B5_B4
2019,Left,1,50,120,1000.0,0.979167,Eighth,D3
2020,Left,1,55,120,1001.0,0.979167,Eighth,G3
2021,Left,1,43,120,1002.0,3.979167,Half,G2
2022,Right,0,74,120,1002.0,3.979167,Half,G5_G4_D5_B4
