,hand,channel,note,velocity,start_beat,duration,note_value,chord
0,Left,1,37,70,0.0,6.989583,Unknown,C#2
1,Left,1,40,70,0.0625,6.927083,Unknown,E2
2,Left,1,45,70,0.125,6.864583,Unknown,A2
3,Left,1,49,70,0.1875,1.802083,Half,C#3
4,Left,1,52,70,0.25,1.739583,DottedQuarter,E3
5,Left,1,57,70,0.3125,1.677083,DottedQuarter,A3
6,Right,0,61,70,2.0,4.989583,Unknown,C#4
7,Right,0,64,70,3.0,3.989583,Whole,E4
8,Right,0,69,70,4.0,2.989583,DottedHalf,A4
11,Right,0,69,80,7.0,0.489583,Eighth,A4
9,Left,1,57,80,7.0,0.989583,Quarter,C#3_A3
12,Right,0,67,80,7.5,0.489583,Eighth,G4
13,Left,1,57,80,8.0,0.989583,Quarter,D3_A3
15,Right,0,67,80,8.0,0.489583,Eighth,G4
16,Right,0,65,80,8.5,0.489583,Eighth,F4
19,Right,0,65,80,9.0,0.489583,Eighth,F4
17,Left,1,57,80,9.0,0.989583,Quarter,E3_A3
20,Right,0,64,80,9.5,0.489583,Eighth,E4
23,Right,0,64,80,10.0,0.489583,Eighth,E4
21,Left,1,57,80,10.0,0.989583,Quarter,F3_A3
24,Right,0,62,80,10.5,0.489583,Eighth,D4
27,Right,0,69,80,11.0,0.489583,Eighth,A4
25,Left,1,57,80,11.0,0.989583,Quarter,C#3_A3
28,Right,0,67,80,11.5,0.489583,Eighth,G4
31,Right,0,67,80,12.0,0.489583,Eighth,G4
29,Left,1,57,80,12.0,0.989583,Quarter,D3_A3
32,Right,0,65,80,12.5,0.489583,Eighth,F4
33,Left,1,57,80,13.0,0.989583,Quarter,E3_A3
35,Right,0,65,80,13.0,0.489583,Eighth,F4
36,Right,0,64,80,13.5,0.489583,Eighth,E4
37,Left,1,53,80,14.0,0.989583,Quarter,F3_A3
39,Right,0,64,80,14.0,0.489583,Eighth,E4
40,Right,0,62,80,14.5,0.489583,Eighth,D4
41,Right,0,74,80,15.0,0.489583,Eighth,D5
42,Left,1,54,80,15.0,0.989583,Quarter,F#3_D4
44,Right,0,72,83,15.5,0.489583,Eighth,C5
46,Left,1,62,86,16.0,0.989583,Quarter,G3_D4
45,Right,0,72,86,16.0,0.489583,Eighth,C5
48,Right,0,70,89,16.5,0.489583,Eighth,A#4
49,Left,1,62,92,17.0,0.989583,Quarter,D4_A3
50,Right,0,70,92,17.0,0.489583,Eighth,A#4
52,Right,0,69,95,17.5,0.489583,Eighth,A4
53,Left,1,58,98,18.0,0.989583,Quarter,D4_A#3
55,Right,0,69,98,18.0,0.489583,Eighth,A4
56,Right,0,67,101,18.5,0.489583,Eighth,G4
57,Right,0,67,104,19.0,0.489583,Eighth,G4
58,Left,1,62,104,19.0,0.989583,Quarter,D4_A#3
60,Right,0,68,107,19.5,0.489583,Eighth,G#4
63,Right,0,68,110,20.0,1.989583,Quarter,G#4_F4
61,Left,1,62,110,20.0,1.989583,Half,D4_A3
65,Right,0,69,80,21.0,0.239583,Sixteenth,A4
66,Right,0,68,80,21.125,0.239583,Sixteenth,G#4
67,Right,0,66,80,21.25,0.239583,Sixteenth,F#4
68,Right,0,68,80,21.375,0.239583,Sixteenth,G#4
69,Right,0,71,80,21.5,0.239583,Sixteenth,B4
70,Right,0,69,80,21.75,0.239583,Sixteenth,A4
71,Left,1,61,80,22.0,1.989583,Half,C#4_A3
73,Right,0,69,80,22.0,1.989583,Half,E4_A4
75,Left,1,40,70,24.0,6.989583,Unknown,E2
76,Left,1,43,70,24.0625,6.927083,Unknown,G2
77,Left,1,48,70,24.125,6.864583,Unknown,C3
78,Left,1,52,70,24.1875,1.802083,Half,E3
79,Left,1,55,70,24.25,1.739583,DottedQuarter,G3
80,Left,1,60,70,24.3125,1.677083,DottedQuarter,C4
81,Right,0,64,70,26.0,4.989583,Unknown,E4
82,Right,0,67,70,27.0,2.989583,DottedHalf,G4
83,Right,0,72,70,28.0,2.989583,DottedHalf,C5
85,Right,0,72,80,31.0,0.489583,Eighth,C5
84,Left,1,52,80,31.0,0.989583,Quarter,E3_C4
87,Right,0,70,80,31.5,0.489583,Eighth,A#4
88,Left,1,60,81,32.0,0.989583,Quarter,F3_C4
90,Right,0,70,81,32.0,0.489583,Eighth,A#4
91,Right,0,68,82,32.5,0.489583,Eighth,G#4
92,Right,0,68,83,33.0,0.489583,Eighth,G#4
93,Right,0,69,84,33.5,0.489583,Eighth,A4
94,Right,0,69,85,34.0,0.489583,Eighth,A4
95,Right,0,74,86,34.5,0.489583,Eighth,D5
98,Right,0,74,87,35.0,0.489583,Eighth,D5
96,Left,1,62,87,35.0,0.989583,Quarter,F#3_D4
99,Right,0,72,88,35.5,0.489583,Eighth,C5
101,Right,0,72,89,36.0,0.489583,Eighth,C5
100,Left,1,62,89,36.0,0.989583,Quarter,G3_D4
103,Right,0,69,90,36.5,0.489583,Eighth,A4
104,Right,0,69,91,37.0,0.489583,Eighth,A4
105,Right,0,70,92,37.5,0.489583,Eighth,A#4
106,Right,0,70,93,38.0,0.489583,Eighth,A#4
107,Right,0,75,94,38.5,0.489583,Eighth,D#5
108,Right,0,75,95,39.0,0.489583,Eighth,D#5
109,Left,1,55,95,39.0,0.989583,Quarter,G3_D#4_A#3
112,Right,0,74,95,39.5,0.489583,Eighth,D5
113,Right,0,74,96,40.0,0.489583,Eighth,D5
114,Right,0,73,97,40.5,0.489583,Eighth,C#5
115,Left,1,64,98,41.0,0.989583,Quarter,G3_E4_C#4_A#3
118,Right,0,73,98,41.0,0.489583,Eighth,C#5
120,Right,0,82,99,41.5,0.489583,Eighth,A#5
121,Right,0,82,100,42.0,0.489583,Eighth,A#5
122,Right,0,76,101,42.5,0.489583,Eighth,E5
123,Left,1,61,102,43.0,0.989583,Quarter,G3_E4_C#4_A#3
127,Right,0,76,102,43.0,0.489583,Eighth,E5
128,Right,0,85,103,43.5,0.489583,Eighth,C#6
129,Right,0,85,104,44.0,0.489583,Eighth,C#6
130,Right,0,77,105,44.5,0.489583,Eighth,F5
132,Left,1,62,106,45.0,0.989583,Quarter,G#3_F4_D4_B3
131,Right,0,77,106,45.0,0.489583,Eighth,F5
136,Right,0,86,107,45.5,0.489583,Eighth,D6
137,Right,0,86,108,46.0,0.489583,Eighth,D6
138,Right,0,77,109,46.5,0.489583,Eighth,F5
139,Right,0,77,110,47.0,0.489583,Eighth,F5
140,Left,1,65,110,47.0,0.989583,Quarter,G#3_F4_D4_B3
144,Right,0,89,110,47.5,0.489583,Eighth,F6
145,Left,1,62,110,48.0,0.989583,Quarter,F4_D4_A3
147,Right,0,89,110,48.0,0.489583,Eighth,F6
149,Right,0,85,110,48.5,0.489583,Eighth,C#6
150,Right,0,85,110,49.0,0.489583,Eighth,C#6
151,Right,0,86,110,49.5,0.489583,Eighth,D6
152,Right,0,86,110,50.0,0.489583,Eighth,D6
153,Right,0,80,110,50.5,0.489583,Eighth,G#5
154,Right,0,80,110,51.0,0.489583,Eighth,G#5
155,Right,0,81,110,51.5,0.489583,Eighth,A5
156,Right,0,81,110,52.0,0.489583,Eighth,A5
157,Right,0,76,110,52.5,0.489583,Eighth,E5
158,Right,0,76,110,53.0,0.489583,Eighth,E5
159,Right,0,77,110,53.5,0.489583,Eighth,F5
160,Right,0,77,110,54.0,0.489583,Eighth,F5
161,Right,0,73,110,54.5,0.489583,Eighth,C#5
162,Right,0,73,110,55.0,0.489583,Eighth,C#5
163,Right,0,74,110,55.5,0.489583,Eighth,D5
164,Right,0,74,110,56.0,0.489583,Eighth,D5
165,Right,0,68,110,56.5,0.489583,Eighth,G#4
166,Right,0,68,110,57.0,0.489583,Eighth,G#4
167,Right,0,69,110,57.5,0.489583,Eighth,A4
168,Right,0,69,110,58.0,0.489583,Eighth,A4
169,Right,0,64,110,58.5,0.489583,Eighth,E4
170,Right,0,64,110,59.0,0.489583,Eighth,E4
171,Right,0,65,110,59.5,0.489583,Eighth,F4
172,Right,0,65,110,60.0,0.489583,Eighth,F4
173,Right,0,61,110,60.5,0.489583,Eighth,C#4
174,Right,0,61,110,61.0,0.489583,Eighth,C#4
175,Right,0,62,110,61.5,0.489583,Eighth,D4
176,Right,0,62,110,62.0,0.489583,Eighth,D4
177,Right,0,58,110,62.5,0.489583,Eighth,A#3
178,Right,0,58,110,63.0,0.489583,Eighth,A#3
179,Left,1,46,110,63.0,0.489583,Eighth,A#2
181,Left,1,45,110,63.5,0.489583,Eighth,A2
180,Right,0,57,110,63.5,0.489583,Eighth,A3
182,Right,0,57,110,64.0,0.489583,Eighth,A3
183,Left,1,45,110,64.0,0.489583,Eighth,A2
184,Right,0,61,110,64.5,0.489583,Eighth,C#4
185,Left,1,49,110,64.5,0.489583,Eighth,C#3
187,Right,0,61,110,65.0,0.489583,Eighth,C#4
186,Left,1,49,110,65.0,0.489583,Eighth,C#3
189,Left,1,50,110,65.5,0.489583,Eighth,D3
188,Right,0,62,110,65.5,0.489583,Eighth,D4
190,Left,1,50,110,66.0,0.489583,Eighth,D3
191,Right,0,62,110,66.0,0.489583,Eighth,D4
192,Left,1,46,110,66.5,0.489583,Eighth,A#2
193,Right,0,58,110,66.5,0.489583,Eighth,A#3
194,Right,0,58,110,67.0,0.489583,Eighth,A#3
195,Left,1,46,110,67.0,0.489583,Eighth,A#2
197,Right,0,57,110,67.5,0.489583,Eighth,A3
196,Left,1,45,110,67.5,0.489583,Eighth,A2
198,Left,1,45,110,68.0,0.489583,Eighth,A2
199,Right,0,57,110,68.0,0.489583,Eighth,A3
200,Left,1,49,110,68.5,0.489583,Eighth,C#3
201,Right,0,61,110,68.5,0.489583,Eighth,C#4
202,Left,1,49,110,69.0,0.489583,Eighth,C#3
203,Right,0,61,110,69.0,0.489583,Eighth,C#4
205,Right,0,62,110,69.5,0.489583,Eighth,D4
204,Left,1,50,110,69.5,0.489583,Eighth,D3
207,Right,0,62,110,70.0,0.489583,Eighth,D4
206,Left,1,50,110,70.0,0.489583,Eighth,D3
209,Right,0,58,110,70.5,0.489583,Eighth,A#3
208,Left,1,46,110,70.5,0.489583,Eighth,A#2
211,Left,1,46,110,71.0,0.489583,Eighth,A#2
210,Right,0,58,110,71.0,0.489583,Eighth,A#3
212,Right,0,57,110,71.5,0.489583,Eighth,A3
213,Left,1,45,110,71.5,0.489583,Eighth,A2
215,Left,1,46,110,72.0,3.989583,Whole,A#2
214,Right,0,57,110,72.0,0.489583,Eighth,A3
216,Right,0,58,110,72.5,0.489583,Eighth,A#3
217,Left,1,50,110,73.0,2.989583,DottedHalf,F3_D3
218,Right,0,59,110,73.0,0.489583,Eighth,B3
220,Right,0,60,110,73.5,0.489583,Eighth,C4
221,Right,0,61,110,74.0,0.489583,Eighth,C#4
222,Right,0,62,110,74.5,0.489583,Eighth,D4
223,Right,0,63,110,75.0,0.489583,Eighth,D#4
224,Right,0,64,110,75.5,0.489583,Eighth,E4
225,Right,0,65,110,76.0,0.489583,Eighth,F4
226,Left,1,53,110,76.0,0.989583,Quarter,F3_D3_A2
229,Right,0,66,110,76.5,0.489583,Eighth,F#4
230,Right,0,67,110,77.0,0.489583,Eighth,G4
231,Left,1,50,110,77.0,0.989583,Quarter,F3_D3_A2
234,Right,0,68,110,77.5,0.489583,Eighth,G#4
235,Left,1,55,110,78.0,0.989583,Quarter,G3_E3_A2
237,Right,0,69,110,78.0,0.489583,Eighth,A4
239,Right,0,70,110,78.5,0.489583,Eighth,A#4
240,Left,1,45,110,79.0,0.989583,Quarter,G3_E3_A2
243,Right,0,61,110,79.0,0.489583,Eighth,C#4
244,Right,0,69,110,79.5,0.489583,Eighth,A4
246,Right,0,62,110,80.0,0.489583,Eighth,D4
245,Left,1,38,110,80.0,1.989583,Half,D2
247,Right,0,57,110,80.333333,0.510417,Eighth,A3
248,Right,0,53,110,80.666667,0.583333,Eighth,F3
249,Right,0,57,110,81.0,0.5625,Eighth,A3
250,Right,0,53,110,81.333333,0.5,Eighth,F3
251,Right,0,57,110,81.666667,0.5625,Eighth,A3
253,Left,1,41,110,82.0,0.989583,Quarter,F2
252,Right,0,53,110,82.0,0.552083,Eighth,F3
254,Right,0,57,110,82.333333,0.541667,Eighth,A3
255,Right,0,53,110,82.666667,0.541667,Eighth,F3
256,Left,1,45,110,83.0,0.989583,Quarter,A2
257,Right,0,57,110,83.0,0.520833,Eighth,A3
258,Right,0,53,110,83.333333,0.5,Eighth,F3
259,Right,0,57,110,83.666667,0.53125,Eighth,A3
261,Right,0,53,110,84.0,0.541667,Eighth,F3
260,Left,1,50,110,84.0,11.989583,Unknown,D3
262,Right,0,57,107,84.333333,0.541667,Eighth,A3
263,Right,0,53,103,84.666667,0.53125,Eighth,F3
264,Right,0,57,99,85.0,0.541667,Eighth,A3
265,Right,0,53,96,85.333333,0.541667,Eighth,F3
266,Right,0,57,92,85.666667,0.552083,Eighth,A3
267,Right,0,53,88,86.0,0.541667,Eighth,F3
268,Right,0,57,84,86.333333,0.479167,Eighth,A3
269,Right,0,53,81,86.666667,0.53125,Eighth,F3
270,Right,0,57,80,87.0,0.989583,Eighth,A4_A3
272,Right,0,53,80,87.333333,0.46875,Eighth,F3
273,Right,0,57,80,87.666667,0.5,Eighth,A3
274,Right,0,53,80,88.0,0.989583,Eighth,G#4_F3
276,Right,0,57,80,88.333333,0.53125,Eighth,A3
277,Right,0,53,80,88.666667,0.510417,Eighth,F3
278,Right,0,69,105,89.0,0.989583,Quarter,A4_A3
280,Right,0,53,80,89.333333,0.520833,Eighth,F3
281,Right,0,57,80,89.666667,0.510417,Eighth,A3
282,Right,0,70,101,90.0,0.989583,Quarter,F3_A#4
284,Right,0,57,80,90.333333,0.541667,Eighth,A3
285,Right,0,53,80,90.666667,0.479167,Eighth,F3
286,Right,0,57,80,91.0,0.989583,Eighth,A4_A3
288,Right,0,53,80,91.333333,0.635417,DottedEighth,F3
289,Right,0,57,80,91.666667,0.510417,Eighth,A3
290,Right,0,53,80,92.0,1.989583,Eighth,F3_A4
292,Right,0,57,80,92.333333,0.5,Eighth,A3
293,Right,0,53,80,92.666667,0.479167,Eighth,F3
294,Right,0,57,80,93.0,0.5625,Eighth,A3
295,Right,0,53,80,93.333333,0.541667,Eighth,F3
296,Right,0,57,80,93.666667,0.510417,Eighth,A3
297,Right,0,53,80,94.0,1.989583,Eighth,F3_A4
299,Right,0,57,80,94.333333,0.510417,Eighth,A3
300,Right,0,53,80,94.666667,0.5,Eighth,F3
301,Right,0,57,80,95.0,0.5625,Eighth,A3
302,Right,0,53,80,95.333333,0.5625,Eighth,F3
303,Right,0,57,80,95.666667,0.322917,Triplet,A3
304,Right,0,69,110,96.0,0.552083,Eighth,A4
305,Left,1,40,110,96.0,1.989583,Half,E2
306,Right,0,61,110,96.333333,0.625,Eighth,C#4
307,Right,0,55,110,96.666667,0.614583,Eighth,G3
308,Right,0,61,110,97.0,0.604167,Eighth,C#4
309,Right,0,55,110,97.333333,0.625,Eighth,G3
310,Right,0,61,110,97.666667,0.625,DottedEighth,C#4
312,Right,0,55,110,98.0,0.625,DottedEighth,G3
311,Left,1,43,110,98.0,0.989583,Quarter,G2
313,Right,0,61,110,98.333333,0.625,DottedEighth,C#4
314,Right,0,55,110,98.666667,0.572917,Eighth,G3
315,Right,0,61,110,99.0,0.635417,DottedEighth,C#4
316,Left,1,49,110,99.0,0.989583,Quarter,C#3
317,Right,0,55,110,99.333333,0.59375,Eighth,G3
318,Right,0,61,110,99.666667,0.635417,DottedEighth,C#4
319,Right,0,55,107,100.0,0.625,Eighth,G3
320,Left,1,52,107,100.0,11.989583,Unknown,E3
321,Right,0,61,104,100.333333,0.625,DottedEighth,C#4
322,Right,0,55,101,100.666667,0.572917,Eighth,G3
323,Right,0,61,97,101.0,0.635417,DottedEighth,C#4
324,Right,0,55,94,101.333333,0.59375,Eighth,G3
325,Right,0,61,91,101.666667,0.635417,DottedEighth,C#4
326,Right,0,55,87,102.0,0.625,Eighth,G3
327,Right,0,61,84,102.333333,0.625,DottedEighth,C#4
328,Right,0,55,81,102.666667,0.572917,Eighth,G3
329,Right,0,69,100,103.0,0.989583,Quarter,C#4_A4
331,Right,0,55,80,103.333333,0.59375,Eighth,G3
332,Right,0,61,80,103.666667,0.635417,DottedEighth,C#4
333,Right,0,55,80,104.0,0.989583,Eighth,G3_G#4
335,Right,0,61,80,104.333333,0.625,DottedEighth,C#4
336,Right,0,55,80,104.666667,0.572917,Eighth,G3
337,Right,0,61,80,105.0,0.989583,DottedEighth,C#4_A4
339,Right,0,55,80,105.333333,0.59375,Eighth,G3
340,Right,0,61,80,105.666667,0.635417,DottedEighth,C#4
341,Right,0,55,80,106.0,0.989583,Eighth,G3_A#4
343,Right,0,61,80,106.333333,0.625,DottedEighth,C#4
344,Right,0,55,80,106.666667,0.572917,Eighth,G3
345,Right,0,69,103,107.0,0.989583,Quarter,C#4_A4
347,Right,0,55,80,107.333333,0.59375,Eighth,G3
348,Right,0,61,80,107.666667,0.635417,DottedEighth,C#4
349,Right,0,55,80,108.0,1.989583,Eighth,G3_A4
351,Right,0,61,80,108.333333,0.625,DottedEighth,C#4
352,Right,0,55,80,108.666667,0.572917,Eighth,G3
353,Right,0,61,80,109.0,0.635417,DottedEighth,C#4
354,Right,0,55,80,109.333333,0.59375,Eighth,G3
355,Right,0,61,80,109.666667,0.635417,DottedEighth,C#4
356,Right,0,55,80,110.0,1.989583,Eighth,G3_A4
358,Right,0,61,80,110.333333,0.625,DottedEighth,C#4
359,Right,0,55,80,110.666667,0.572917,Eighth,G3
360,Right,0,61,80,111.0,0.635417,DottedEighth,C#4
361,Right,0,55,80,111.333333,0.59375,Eighth,G3
362,Right,0,61,80,111.666667,0.322917,Triplet,C#4
363,Right,0,69,110,112.0,0.635417,DottedEighth,A4
364,Left,1,41,110,112.0,1.989583,Half,F2
365,Right,0,62,110,112.333333,0.614583,Eighth,D4
366,Right,0,57,110,112.666667,0.635417,DottedEighth,A3
367,Right,0,62,110,113.0,0.604167,Eighth,D4
368,Right,0,57,110,113.333333,0.541667,Eighth,A3
369,Right,0,62,110,113.666667,0.5625,Eighth,D4
371,Left,1,45,110,114.0,0.989583,Quarter,A2
370,Right,0,57,110,114.0,0.635417,DottedEighth,A3
372,Right,0,62,110,114.333333,0.614583,Eighth,D4
373,Right,0,57,110,114.666667,0.635417,DottedEighth,A3
375,Right,0,62,110,115.0,0.604167,Eighth,D4
374,Left,1,50,110,115.0,0.989583,Quarter,D3
376,Right,0,57,110,115.333333,0.541667,Eighth,A3
377,Right,0,62,110,115.666667,0.5625,Eighth,D4
379,Right,0,57,110,116.0,0.635417,DottedEighth,A3
378,Left,1,53,110,116.0,3.989583,Whole,F3
380,Right,0,62,110,116.333333,0.614583,Eighth,D4
381,Right,0,57,110,116.666667,0.635417,DottedEighth,A3
382,Right,0,62,110,117.0,0.604167,Eighth,D4
383,Right,0,57,110,117.333333,0.541667,Eighth,A3
384,Right,0,62,110,117.666667,0.5625,Eighth,D4
385,Right,0,57,110,118.0,0.989583,DottedEighth,D5_A3
387,Right,0,62,110,118.333333,0.614583,Eighth,D4
388,Right,0,57,110,118.666667,0.635417,DottedEighth,A3
389,Right,0,62,110,119.0,0.604167,Eighth,D4
390,Right,0,57,110,119.333333,0.541667,Eighth,A3
391,Right,0,62,110,119.666667,0.322917,Triplet,D4
392,Right,0,64,110,120.0,0.53125,Eighth,E4
393,Left,1,44,110,120.0,1.989583,Half,G#2
394,Right,0,59,110,120.333333,0.552083,Eighth,B3
395,Right,0,64,110,120.666667,0.572917,Eighth,E4
396,Right,0,59,110,121.0,0.583333,Eighth,B3
397,Right,0,64,110,121.333333,0.541667,Eighth,E4
398,Right,0,59,110,121.666667,0.46875,Eighth,B3
400,Right,0,64,110,122.0,0.53125,Eighth,E4
399,Left,1,47,110,122.0,0.989583,Quarter,B2
401,Right,0,59,110,122.333333,0.552083,Eighth,B3
402,Right,0,64,110,122.666667,0.572917,Eighth,E4
404,Left,1,52,110,123.0,0.989583,Quarter,E3
403,Right,0,59,110,123.0,0.583333,Eighth,B3
405,Right,0,64,110,123.333333,0.541667,Eighth,E4
406,Right,0,59,110,123.666667,0.46875,Eighth,B3
408,Right,0,64,110,124.0,0.53125,Eighth,E4
407,Left,1,56,110,124.0,3.989583,Whole,G#3
409,Right,0,59,110,124.333333,0.552083,Eighth,B3
410,Right,0,64,110,124.666667,0.572917,Eighth,E4
411,Right,0,59,110,125.0,0.583333,Eighth,B3
412,Right,0,64,110,125.333333,0.541667,Eighth,E4
413,Right,0,59,110,125.666667,0.46875,Eighth,B3
414,Right,0,64,110,126.0,0.989583,Eighth,E5_E4
416,Right,0,59,110,126.333333,0.552083,Eighth,B3
417,Right,0,64,110,126.666667,0.572917,Eighth,E4
418,Right,0,59,110,127.0,0.583333,Eighth,B3
419,Right,0,64,110,127.333333,0.541667,Eighth,E4
420,Right,0,59,110,127.666667,0.322917,Triplet,B3
421,Right,0,65,110,128.0,0.552083,Eighth,F4
422,Left,1,45,110,128.0,1.989583,Half,A2
423,Right,0,60,110,128.333333,0.541667,Eighth,C4
424,Right,0,65,110,128.666667,0.583333,Eighth,F4
425,Right,0,60,110,129.0,0.625,Eighth,C4
426,Right,0,65,110,129.333333,0.572917,Eighth,F4
427,Right,0,60,110,129.666667,0.604167,Eighth,C4
429,Left,1,48,110,130.0,0.989583,Quarter,C3
428,Right,0,65,110,130.0,0.552083,Eighth,F4
430,Right,0,60,110,130.333333,0.541667,Eighth,C4
431,Right,0,65,110,130.666667,0.583333,Eighth,F4
433,Left,1,53,110,131.0,0.989583,Quarter,F3
432,Right,0,60,110,131.0,0.625,Eighth,C4
434,Right,0,65,110,131.333333,0.572917,Eighth,F4
435,Right,0,60,110,131.666667,0.604167,Eighth,C4
436,Left,1,57,110,132.0,3.989583,Whole,A3
437,Right,0,65,110,132.0,0.552083,Eighth,F4
438,Right,0,60,110,132.333333,0.541667,Eighth,C4
439,Right,0,65,110,132.666667,0.583333,Eighth,F4
440,Right,0,60,110,133.0,0.625,Eighth,C4
441,Right,0,65,110,133.333333,0.572917,Eighth,F4
442,Right,0,60,110,133.666667,0.604167,Eighth,C4
443,Right,0,77,121,134.0,0.989583,Quarter,F5_F4
445,Right,0,60,110,134.333333,0.541667,Eighth,C4
446,Right,0,65,110,134.666667,0.583333,Eighth,F4
447,Right,0,60,110,135.0,0.625,Eighth,C4
448,Right,0,65,110,135.333333,0.572917,Eighth,F4
449,Right,0,60,110,135.666667,0.322917,Triplet,C4
451,Left,1,47,110,136.0,1.989583,Half,B2
450,Right,0,68,110,136.0,0.583333,Eighth,G#4
452,Right,0,62,110,136.333333,0.583333,Eighth,D4
453,Right,0,68,110,136.666667,0.53125,Eighth,G#4
454,Right,0,62,110,137.0,0.572917,Eighth,D4
455,Right,0,68,110,137.333333,0.583333,Eighth,G#4
456,Right,0,62,110,137.666667,0.5625,Eighth,D4
458,Right,0,68,110,138.0,0.583333,Eighth,G#4
457,Left,1,50,110,138.0,0.989583,Quarter,D3
459,Right,0,62,110,138.333333,0.583333,Eighth,D4
460,Right,0,68,110,138.666667,0.53125,Eighth,G#4
462,Right,0,62,110,139.0,0.572917,Eighth,D4
461,Left,1,56,110,139.0,0.989583,Quarter,G#3
463,Right,0,68,110,139.333333,0.583333,Eighth,G#4
464,Right,0,62,110,139.666667,0.5625,Eighth,D4
465,Left,1,59,110,140.0,3.989583,Whole,B3
466,Right,0,68,110,140.0,0.583333,Eighth,G#4
467,Right,0,62,110,140.333333,0.583333,Eighth,D4
468,Right,0,68,110,140.666667,0.53125,Eighth,G#4
469,Right,0,62,110,141.0,0.572917,Eighth,D4
470,Right,0,68,110,141.333333,0.583333,Eighth,G#4
471,Right,0,62,110,141.666667,0.5625,Eighth,D4
472,Right,0,80,120,142.0,0.989583,Quarter,G#5_G#4
474,Right,0,62,110,142.333333,0.583333,Eighth,D4
475,Right,0,68,110,142.666667,0.53125,Eighth,G#4
476,Right,0,62,110,143.0,0.572917,Eighth,D4
477,Right,0,68,110,143.333333,0.583333,Eighth,G#4
478,Right,0,62,110,143.666667,0.322917,Triplet,D4
479,Left,1,48,110,144.0,1.989583,Half,C3
480,Right,0,69,110,144.0,0.5625,Eighth,A4
481,Right,0,64,110,144.333333,0.625,Eighth,E4
482,Right,0,69,110,144.666667,0.614583,Eighth,A4
483,Right,0,64,110,145.0,0.614583,Eighth,E4
484,Right,0,69,110,145.333333,0.635417,DottedEighth,A4
485,Right,0,64,110,145.666667,0.572917,Eighth,E4
487,Left,1,57,110,146.0,0.989583,Quarter,A3
486,Right,0,69,110,146.0,0.5625,Eighth,A4
488,Right,0,64,110,146.333333,0.625,Eighth,E4
489,Right,0,69,110,146.666667,0.614583,Eighth,A4
490,Right,0,64,110,147.0,0.614583,Eighth,E4
491,Left,1,60,110,147.0,0.989583,Quarter,C4
492,Right,0,69,110,147.333333,0.635417,DottedEighth,A4
493,Right,0,64,110,147.666667,0.322917,Triplet,E4
495,Left,1,66,110,148.0,3.989583,Whole,F#4_D#4
494,Right,0,69,110,148.0,0.53125,Eighth,A4
497,Right,0,72,110,148.333333,0.541667,Eighth,C5
498,Right,0,69,110,148.666667,0.541667,Eighth,A4
499,Right,0,72,110,149.0,0.572917,Eighth,C5
500,Right,0,69,110,149.333333,0.5625,Eighth,A4
501,Right,0,72,110,149.666667,0.541667,Eighth,C5
502,Right,0,81,120,150.0,0.989583,Quarter,A5_A4
504,Right,0,72,110,150.333333,0.541667,Eighth,C5
505,Right,0,69,110,150.666667,0.541667,Eighth,A4
506,Right,0,72,110,151.0,0.572917,Eighth,C5
507,Right,0,69,110,151.333333,0.5625,Eighth,A4
508,Right,0,72,110,151.666667,0.322917,Triplet,C5
510,Left,1,63,110,152.0,3.989583,Whole,F#4_D#4
509,Right,0,69,110,152.0,0.53125,Eighth,A4
512,Right,0,72,110,152.333333,0.541667,Eighth,C5
513,Right,0,69,110,152.666667,0.541667,Eighth,A4
514,Right,0,72,110,153.0,0.572917,Eighth,C5
515,Right,0,69,110,153.333333,0.5625,Eighth,A4
516,Right,0,72,110,153.666667,0.541667,Eighth,C5
517,Right,0,69,110,154.0,0.989583,Eighth,A5_A4
519,Right,0,72,110,154.333333,0.541667,Eighth,C5
520,Right,0,69,110,154.666667,0.541667,Eighth,A4
521,Right,0,72,110,155.0,0.572917,Eighth,C5
522,Right,0,69,110,155.333333,0.5625,Eighth,A4
523,Right,0,72,110,155.666667,0.322917,Triplet,C5
525,Left,1,63,110,156.0,3.989583,Whole,F#4_D#4
524,Right,0,69,110,156.0,0.53125,Eighth,A4
527,Right,0,72,110,156.333333,0.541667,Eighth,C5
528,Right,0,69,110,156.666667,0.541667,Eighth,A4
529,Right,0,72,110,157.0,0.572917,Eighth,C5
530,Right,0,69,110,157.333333,0.5625,Eighth,A4
531,Right,0,72,110,157.666667,0.541667,Eighth,C5
532,Right,0,69,110,158.0,0.989583,Eighth,A5_A4
534,Right,0,72,110,158.333333,0.541667,Eighth,C5
535,Right,0,69,110,158.666667,0.541667,Eighth,A4
536,Right,0,72,110,159.0,0.572917,Eighth,C5
537,Right,0,69,110,159.333333,0.5625,Eighth,A4
538,Right,0,72,110,159.666667,0.322917,Triplet,C5
539,Left,1,52,110,160.0,0.489583,Eighth,E3
540,Right,0,80,110,160.0,0.989583,Quarter,G#5_G#4_B4
543,Left,1,64,80,160.5,0.489583,Eighth,E4
544,Left,1,62,80,161.0,0.489583,Eighth,D4_B3
546,Left,1,64,80,161.5,0.489583,Eighth,E4
547,Left,1,65,80,162.0,0.489583,Eighth,F4
548,Left,1,64,80,162.5,0.489583,Eighth,E4
549,Left,1,59,80,163.0,0.489583,Eighth,D4_B3
550,Right,0,83,80,163.0,0.489583,Eighth,B5
553,Left,1,64,80,163.5,0.489583,Eighth,E4
552,Right,0,80,80,163.5,0.489583,Eighth,G#5
554,Right,0,76,80,164.0,0.489583,Eighth,E5
555,Left,1,52,80,164.0,0.489583,Eighth,E3
557,Right,0,77,80,164.5,0.489583,Eighth,F5
556,Left,1,64,80,164.5,0.489583,Eighth,E4
560,Right,0,77,80,165.0,0.489583,Eighth,F5
558,Left,1,62,80,165.0,0.489583,Eighth,D4_B3
562,Left,1,64,80,165.5,0.489583,Eighth,E4
561,Right,0,74,80,165.5,0.489583,Eighth,D5
563,Left,1,65,80,166.0,0.489583,Eighth,F4
564,Left,1,64,80,166.5,0.489583,Eighth,E4
566,Right,0,83,80,167.0,0.489583,Eighth,B5
565,Left,1,62,80,167.0,0.489583,Eighth,D4_B3
569,Left,1,64,80,167.5,0.489583,Eighth,E4
568,Right,0,80,80,167.5,0.489583,Eighth,G#5
570,Right,0,76,80,168.0,0.489583,Eighth,E5
571,Left,1,52,80,168.0,0.489583,Eighth,E3
573,Left,1,64,80,168.5,0.489583,Eighth,E4
572,Right,0,77,80,168.5,0.489583,Eighth,F5
574,Left,1,59,80,169.0,0.489583,Eighth,D4_B3
576,Right,0,77,80,169.0,0.489583,Eighth,F5
578,Left,1,64,80,169.5,0.489583,Eighth,E4
577,Right,0,74,80,169.5,0.489583,Eighth,D5
579,Left,1,65,80,170.0,0.489583,Eighth,F4
580,Left,1,64,80,170.5,0.489583,Eighth,E4
582,Left,1,62,80,171.0,0.489583,Eighth,D4_B3
581,Right,0,83,80,171.0,0.489583,Eighth,B5
585,Left,1,64,80,171.5,0.489583,Eighth,E4
584,Right,0,80,80,171.5,0.489583,Eighth,G#5
586,Right,0,76,80,172.0,0.489583,Eighth,E5
587,Left,1,52,80,172.0,0.489583,Eighth,E3
589,Right,0,77,80,172.5,0.489583,Eighth,F5
588,Left,1,64,80,172.5,0.489583,Eighth,E4
591,Right,0,77,80,173.0,0.489583,Eighth,F5
590,Left,1,62,80,173.0,0.489583,Eighth,D4_B3
594,Left,1,64,80,173.5,0.489583,Eighth,E4
593,Right,0,74,80,173.5,0.489583,Eighth,D5
596,Right,0,74,80,174.0,0.489583,Eighth,D5
595,Left,1,52,80,174.0,0.489583,Eighth,E3
597,Left,1,64,80,174.5,0.489583,Eighth,E4
598,Right,0,72,80,174.5,0.489583,Eighth,C5
600,Right,0,72,80,175.0,0.489583,Eighth,C5
599,Left,1,59,80,175.0,0.489583,Eighth,G#3_B3
602,Left,1,64,80,175.5,0.489583,Eighth,E4
603,Right,0,71,80,175.5,0.489583,Eighth,B4
604,Left,1,52,80,176.0,0.489583,Eighth,E3
605,Right,0,71,80,176.0,0.489583,Eighth,B4
607,Left,1,64,80,176.5,0.489583,Eighth,E4
606,Right,0,72,80,176.5,0.489583,Eighth,C5
609,Left,1,60,80,177.0,0.489583,Eighth,C4_A3
608,Right,0,69,80,177.0,0.989583,Quarter,A4
611,Left,1,64,80,177.5,0.489583,Eighth,E4
612,Left,1,65,80,178.0,0.489583,Eighth,F4
613,Left,1,64,80,178.5,0.489583,Eighth,E4
614,Right,0,84,80,179.0,0.489583,Eighth,C6
615,Left,1,60,80,179.0,0.489583,Eighth,C4_A3
617,Right,0,81,80,179.5,0.489583,Eighth,A5
618,Left,1,64,80,179.5,0.489583,Eighth,E4
620,Right,0,75,80,180.0,0.489583,Eighth,D#5
619,Left,1,52,80,180.0,0.489583,Eighth,E3
622,Left,1,64,80,180.5,0.489583,Eighth,E4
621,Right,0,76,80,180.5,0.489583,Eighth,E5
624,Left,1,60,80,181.0,0.489583,Eighth,C4_A3
623,Right,0,76,80,181.0,0.489583,Eighth,E5
626,Left,1,64,80,181.5,0.489583,Eighth,E4
627,Right,0,72,80,181.5,0.489583,Eighth,C5
628,Left,1,65,80,182.0,0.489583,Eighth,F4
629,Left,1,64,80,182.5,0.489583,Eighth,E4
631,Left,1,60,80,183.0,0.489583,Eighth,C4_A3
630,Right,0,84,80,183.0,0.489583,Eighth,C6
634,Left,1,64,80,183.5,0.489583,Eighth,E4
633,Right,0,81,80,183.5,0.489583,Eighth,A5
635,Right,0,75,80,184.0,0.489583,Eighth,D#5
636,Left,1,52,80,184.0,0.489583,Eighth,E3
637,Right,0,76,80,184.5,0.489583,Eighth,E5
638,Left,1,64,80,184.5,0.489583,Eighth,E4
641,Right,0,76,80,185.0,0.489583,Eighth,E5
639,Left,1,57,80,185.0,0.489583,Eighth,C4_A3
642,Left,1,64,80,185.5,0.489583,Eighth,E4
643,Right,0,72,80,185.5,0.489583,Eighth,C5
644,Left,1,65,80,186.0,0.489583,Eighth,F4
645,Left,1,64,80,186.5,0.489583,Eighth,E4
648,Right,0,84,80,187.0,0.489583,Eighth,C6
646,Left,1,57,80,187.0,0.489583,Eighth,C4_A3
649,Right,0,81,80,187.5,0.489583,Eighth,A5
650,Left,1,64,80,187.5,0.489583,Eighth,E4
652,Right,0,75,80,188.0,0.489583,Eighth,D#5
651,Left,1,52,80,188.0,0.489583,Eighth,E3
653,Left,1,64,80,188.5,0.489583,Eighth,E4
654,Right,0,76,80,188.5,0.489583,Eighth,E5
657,Right,0,76,80,189.0,0.489583,Eighth,E5
655,Left,1,60,80,189.0,0.489583,Eighth,C4_A3
658,Left,1,64,80,189.5,0.489583,Eighth,E4
659,Right,0,72,80,189.5,0.489583,Eighth,C5
660,Left,1,52,80,190.0,0.489583,Eighth,E3
661,Right,0,72,80,190.0,0.489583,Eighth,C5
662,Left,1,64,80,190.5,0.489583,Eighth,E4
663,Right,0,71,80,190.5,0.489583,Eighth,B4
664,Left,1,60,80,191.0,0.489583,Eighth,C4_A3
665,Right,0,71,80,191.0,0.489583,Eighth,B4
668,Left,1,64,80,191.5,0.489583,Eighth,E4
667,Right,0,69,80,191.5,0.489583,Eighth,A4
669,Left,1,52,80,192.0,0.489583,Eighth,E3
670,Right,0,69,80,192.0,0.489583,Eighth,A4
671,Left,1,64,80,192.5,0.489583,Eighth,E4
672,Right,0,68,80,192.5,0.489583,Eighth,G#4
675,Right,0,71,80,193.0,0.989583,Quarter,B4
673,Left,1,62,80,193.0,0.489583,Eighth,D4_B3
676,Left,1,64,80,193.5,0.489583,Eighth,E4
677,Left,1,65,80,194.0,0.489583,Eighth,F4
678,Left,1,64,80,194.5,0.489583,Eighth,E4
679,Right,0,89,90,195.0,0.489583,Eighth,F6
680,Left,1,59,80,195.0,0.489583,Eighth,D4_B3
682,Left,1,64,81,195.5,0.489583,Eighth,E4
683,Right,0,86,91,195.5,0.489583,Eighth,D6
685,Right,0,85,93,196.0,0.489583,Eighth,C#6
684,Left,1,52,83,196.0,0.489583,Eighth,E3
686,Right,0,86,95,196.5,0.489583,Eighth,D6
687,Left,1,64,85,196.5,0.489583,Eighth,E4
689,Right,0,83,97,197.0,0.989583,Quarter,B5
688,Left,1,62,87,197.0,0.489583,Eighth,D4_B3
691,Left,1,64,88,197.5,0.489583,Eighth,E4
692,Left,1,65,90,198.0,0.489583,Eighth,F4
693,Left,1,64,92,198.5,0.489583,Eighth,E4
695,Left,1,59,94,199.0,0.489583,Eighth,D4_B3
694,Right,0,89,104,199.0,0.489583,Eighth,F6
698,Left,1,64,95,199.5,0.489583,Eighth,E4
697,Right,0,86,105,199.5,0.489583,Eighth,D6
700,Left,1,52,97,200.0,0.489583,Eighth,E3
699,Right,0,85,107,200.0,0.489583,Eighth,C#6
702,Left,1,64,99,200.5,0.489583,Eighth,E4
701,Right,0,86,109,200.5,0.489583,Eighth,D6
703,Right,0,83,111,201.0,0.989583,Quarter,B5
704,Left,1,59,101,201.0,0.489583,Eighth,D4_B3
706,Left,1,64,102,201.5,0.489583,Eighth,E4
707,Left,1,65,104,202.0,0.489583,Eighth,F4
708,Left,1,64,106,202.5,0.489583,Eighth,E4
711,Right,0,89,118,203.0,0.489583,Eighth,F6
709,Left,1,62,108,203.0,0.489583,Eighth,D4_B3
712,Left,1,64,109,203.5,0.489583,Eighth,E4
713,Right,0,86,119,203.5,0.489583,Eighth,D6
714,Right,0,83,120,204.0,0.489583,Eighth,B5
715,Left,1,52,110,204.0,0.989583,Quarter,E3_D4_B3
718,Right,0,86,120,204.5,0.489583,Eighth,D6
719,Right,0,80,120,205.0,0.489583,Eighth,G#5
720,Right,0,83,120,205.5,0.489583,Eighth,B5
721,Right,0,77,120,206.0,0.489583,Eighth,F5
722,Right,0,80,120,206.5,0.489583,Eighth,G#5
723,Right,0,74,120,207.0,0.489583,Eighth,D5
724,Right,0,77,120,207.5,0.489583,Eighth,F5
725,Right,0,71,120,208.0,0.489583,Eighth,B4
726,Right,0,74,120,208.5,0.489583,Eighth,D5
727,Right,0,68,120,209.0,0.489583,Eighth,G#4
728,Right,0,71,120,209.5,0.489583,Eighth,B4
729,Right,0,65,120,210.0,0.489583,Eighth,F4
730,Right,0,68,120,210.5,0.489583,Eighth,G#4
731,Right,0,62,120,211.0,0.489583,Eighth,D4
732,Right,0,65,120,211.5,0.489583,Eighth,F4
733,Right,0,59,120,212.0,0.489583,Eighth,B3
734,Right,0,62,120,212.5,0.489583,Eighth,D4
735,Right,0,56,120,213.0,0.489583,Eighth,G#3
736,Left,1,44,110,213.0,0.489583,Eighth,G#2
738,Right,0,59,120,213.5,0.489583,Eighth,B3
737,Left,1,47,110,213.5,0.489583,Eighth,B2
740,Right,0,50,120,214.0,0.489583,Eighth,D3
739,Left,1,38,110,214.0,0.489583,Eighth,D2
742,Left,1,47,110,214.5,0.489583,Eighth,B2
741,Right,0,59,120,214.5,0.489583,Eighth,B3
744,Left,1,44,110,215.0,0.489583,Eighth,G#2
743,Right,0,56,120,215.0,0.489583,Eighth,G#3
745,Left,1,38,110,215.5,0.489583,Eighth,D2
746,Right,0,50,120,215.5,0.489583,Eighth,D3
748,Right,0,48,110,216.0,0.989583,Quarter,C3
747,Left,1,36,110,216.0,0.989583,Quarter,C2
752,Right,0,52,110,217.0,0.989583,Quarter,E3_C3_A3
749,Left,1,40,110,217.0,0.989583,Quarter,E2_C2_A2
756,Left,1,38,110,218.0,5.989583,Unknown,F2_D2_A#2
755,Right,0,50,110,218.0,5.989583,Unknown,F3_D3_A#3
762,Right,0,57,110,222.0,0.989583,Quarter,A3
761,Left,1,45,110,222.0,0.989583,Quarter,A2
763,Left,1,44,110,223.0,0.989583,Quarter,G#2
764,Right,0,56,110,223.0,0.989583,Quarter,G#3
768,Right,0,48,110,224.0,0.989583,Quarter,E3_C3_A3
765,Left,1,40,110,224.0,0.989583,Quarter,E2_C2_A2
774,Right,0,64,110,225.0,0.989583,Quarter,E4_C4_A4
771,Left,1,48,110,225.0,0.989583,Quarter,E3_C3_A3
777,Right,0,62,110,226.0,5.989583,Unknown,F4_D4_A#4
778,Left,1,53,110,226.0,5.989583,Unknown,F3_D3_A#3
784,Right,0,69,110,230.0,0.989583,Quarter,A4
783,Left,1,57,110,230.0,0.989583,Quarter,A3
786,Right,0,68,110,231.0,0.989583,Quarter,G#4
785,Left,1,56,110,231.0,0.989583,Quarter,G#3
787,Left,1,57,110,232.0,0.989583,Quarter,E3_C3_A3
788,Right,0,60,110,232.0,0.989583,Quarter,E4_C4_A4
793,Left,1,64,110,233.0,0.989583,Quarter,E4_C4
795,Right,0,81,110,233.0,0.989583,Quarter,A5_A4
797,Right,0,70,110,234.0,2.989583,DottedHalf,A#5_A#4
799,Left,1,62,110,234.0,2.989583,DottedHalf,F4_D4
801,Right,0,83,110,237.0,0.989583,Quarter,B5_B4
803,Left,1,66,110,237.0,0.989583,Quarter,F#4_D#4
806,Left,1,64,110,238.0,2.989583,DottedHalf,E4_A4
805,Right,0,84,110,238.0,2.989583,DottedHalf,C6_C5
809,Left,1,64,110,241.0,3.989583,Quarter,E4_A4
811,Right,0,85,110,241.0,0.989583,Quarter,C#6_C#5
814,Left,1,65,101,242.0,0.989583,Quarter,F4
813,Right,0,74,101,242.0,0.989583,Quarter,D6_D5
818,Left,1,61,91,243.0,0.989583,Quarter,C#4
816,Right,0,88,91,243.0,0.989583,Quarter,E6_E5
819,Right,0,89,81,244.0,0.989583,Quarter,F6_F5
821,Left,1,62,81,244.0,0.989583,Quarter,D4
825,Right,0,77,80,245.0,1.989583,Half,F5_F4
822,Left,1,50,80,245.0,0.989583,Quarter,D4_D3_A#3
827,Left,1,52,80,246.0,1.989583,Quarter,E3_C4_A3
830,Right,0,64,80,247.0,0.989583,Quarter,E5_E4
832,Left,1,59,80,247.0,0.989583,Quarter,G#3_B3
834,Right,0,69,110,248.0,0.989583,Quarter,A4
835,Left,1,57,110,248.0,0.989583,Quarter,A3_A2
837,Left,1,33,110,249.0,0.989583,Quarter,A1
838,Left,1,34,110,250.0,3.989583,Whole,A#1
839,Right,0,61,110,251.0,0.989583,Quarter,E4_C#4
841,Right,0,62,110,252.0,0.989583,Quarter,F4_D4
843,Right,0,65,110,253.0,1.989583,Half,F4_D5
845,Left,1,33,110,254.0,0.989583,Quarter,A1
848,Left,1,32,110,255.0,0.989583,Quarter,G#1
846,Right,0,74,110,255.0,0.989583,Quarter,F4_D5
851,Left,1,33,110,256.0,0.989583,Quarter,A1
849,Right,0,73,110,256.0,0.989583,Quarter,E4_C#5
852,Left,1,33,110,257.0,0.989583,Quarter,A1
853,Left,1,34,110,258.0,3.989583,Whole,A#1
854,Right,0,61,110,259.0,0.989583,Quarter,E4_C#4
856,Right,0,65,110,260.0,0.989583,Quarter,F4_D4
858,Right,0,74,110,261.0,1.989583,Half,F5_D5
860,Left,1,33,110,262.0,0.989583,Quarter,A1
861,Left,1,32,110,263.0,0.989583,Quarter,G#1
862,Right,0,74,110,263.0,0.989583,Quarter,F5_D5
864,Right,0,76,110,264.0,0.989583,Quarter,E5_C#5
865,Left,1,33,110,264.0,0.989583,Quarter,A1
867,Left,1,33,110,265.0,0.989583,Quarter,A1
868,Left,1,34,110,266.0,3.989583,Whole,A#1
869,Right,0,64,110,267.0,0.989583,Quarter,E4_C#4
871,Right,0,62,110,268.0,0.989583,Quarter,F4_D4
873,Right,0,77,110,269.0,1.989583,Half,F5_D5
875,Left,1,33,110,270.0,0.989583,Quarter,A1
878,Left,1,32,110,271.0,0.989583,Quarter,G#1
876,Right,0,89,110,271.0,1.989583,Half,F6_D6
879,Left,1,31,80,272.0,0.489583,Eighth,G1
880,Left,1,30,80,272.5,0.489583,Eighth,F#1
881,Left,1,31,80,273.0,0.489583,Eighth,G1
882,Left,1,33,80,273.5,0.489583,Eighth,A1
883,Left,1,35,80,274.0,0.489583,Eighth,B1
884,Left,1,31,80,274.5,0.489583,Eighth,G1
886,Right,0,74,80,275.0,0.989583,Quarter,F5_D5
885,Left,1,33,80,275.0,0.489583,Eighth,A1
888,Left,1,35,80,275.5,0.489583,Eighth,B1
891,Left,1,36,80,276.0,0.489583,Eighth,C2
889,Right,0,72,80,276.0,0.989583,Quarter,E5_C5
892,Left,1,35,80,276.5,0.489583,Eighth,B1
893,Left,1,36,80,277.0,0.489583,Eighth,C2
894,Left,1,38,80,277.5,0.489583,Eighth,D2
895,Left,1,40,80,278.0,0.489583,Eighth,E2
896,Left,1,39,80,278.5,0.489583,Eighth,D#2
898,Left,1,40,80,279.0,0.489583,Eighth,E2
897,Right,0,88,80,279.0,0.989583,Quarter,E6_C6
900,Left,1,39,80,279.5,0.489583,Eighth,D#2
903,Left,1,40,80,280.0,0.489583,Eighth,E2
901,Right,0,83,80,280.0,0.989583,Quarter,D6_B5
904,Left,1,39,80,280.5,0.489583,Eighth,D#2
905,Left,1,40,80,281.0,0.489583,Eighth,E2
906,Left,1,42,80,281.5,0.489583,Eighth,F#2
907,Left,1,44,80,282.0,0.489583,Eighth,G#2
908,Left,1,40,80,282.5,0.489583,Eighth,E2
910,Left,1,42,80,283.0,0.489583,Eighth,F#2
909,Right,0,71,80,283.0,0.989583,Quarter,D5_B4
912,Left,1,44,80,283.5,0.489583,Eighth,G#2
913,Left,1,45,80,284.0,0.489583,Eighth,A2
914,Right,0,72,80,284.0,0.989583,Quarter,C5_A4
916,Left,1,44,80,284.5,0.489583,Eighth,G#2
917,Left,1,45,80,285.0,0.489583,Eighth,A2
918,Left,1,47,80,285.5,0.489583,Eighth,B2
919,Left,1,48,80,286.0,0.489583,Eighth,C3
920,Left,1,45,81,286.5,0.489583,Eighth,A2
921,Right,0,84,80,287.0,1.989583,Quarter,C6_A5
923,Left,1,47,82,287.0,0.489583,Eighth,B2
924,Left,1,48,83,287.5,0.489583,Eighth,C3
925,Left,1,50,84,288.0,0.489583,Eighth,D3
926,Right,0,83,85,288.0,0.989583,Quarter,B5
927,Left,1,49,85,288.5,0.489583,Eighth,C#3
928,Left,1,50,86,289.0,0.489583,Eighth,D3
929,Left,1,52,87,289.5,0.489583,Eighth,E3
930,Left,1,53,88,290.0,0.489583,Eighth,F3
931,Left,1,50,89,290.5,0.489583,Eighth,D3
934,Left,1,52,90,291.0,0.489583,Eighth,E3
932,Right,0,69,103,291.0,1.989583,Quarter,B4_A4
935,Left,1,53,91,291.5,0.489583,Eighth,F3
937,Left,1,52,92,292.0,0.489583,Eighth,E3
936,Right,0,68,109,292.0,0.989583,Quarter,G#4
938,Left,1,63,93,292.5,0.489583,Eighth,D#4
939,Left,1,64,94,293.0,0.489583,Eighth,E4
940,Left,1,63,95,293.5,0.489583,Eighth,D#4
941,Left,1,64,96,294.0,0.489583,Eighth,E4
942,Left,1,63,97,294.5,0.489583,Eighth,D#4
944,Right,0,80,98,295.0,0.989583,Quarter,G#5_B4
943,Left,1,64,98,295.0,0.489583,Eighth,E4
946,Left,1,52,99,295.5,0.489583,Eighth,E3
950,Right,0,81,80,296.0,0.489583,Eighth,A5
947,Left,1,64,80,296.0,7.989583,Half,E4_E3_C4
951,Right,0,76,80,296.5,0.489583,Eighth,E5
952,Right,0,72,80,297.0,0.489583,Eighth,C5
953,Right,0,84,80,297.5,0.489583,Eighth,C6
954,Left,1,59,80,298.0,1.989583,Half,D4_B3
956,Right,0,83,80,298.0,0.489583,Eighth,B5
957,Right,0,80,80,298.5,0.489583,Eighth,G#5
958,Right,0,76,80,299.0,0.489583,Eighth,E5
959,Right,0,86,80,299.5,0.489583,Eighth,D6
960,Right,0,84,80,300.0,0.489583,Eighth,C6
961,Left,1,60,80,300.0,1.989583,Half,C4_A3
963,Right,0,81,80,300.5,0.489583,Eighth,A5
964,Right,0,76,80,301.0,0.489583,Eighth,E5
965,Right,0,88,80,301.5,0.489583,Eighth,E6
966,Right,0,87,80,302.0,0.489583,Eighth,D#6
967,Left,1,56,80,302.0,1.989583,Half,G#3_B3
969,Right,0,88,80,302.5,0.489583,Eighth,E6
970,Right,0,87,80,303.0,0.489583,Eighth,D#6
971,Right,0,88,80,303.5,0.489583,Eighth,E6
975,Left,1,57,80,304.0,0.489583,Eighth,A3
972,Right,0,84,80,304.0,1.989583,Half,E6_E5_C6
976,Left,1,52,80,304.5,0.489583,Eighth,E3
977,Left,1,48,80,305.0,0.489583,Eighth,C3
978,Left,1,60,80,305.5,0.489583,Eighth,C4
980,Right,0,74,80,306.0,1.989583,Half,D6_D5_B5
979,Left,1,59,80,306.0,0.489583,Eighth,B3
983,Left,1,56,80,306.5,0.489583,Eighth,G#3
984,Left,1,52,80,307.0,0.489583,Eighth,E3
985,Left,1,62,80,307.5,0.489583,Eighth,D4
989,Left,1,60,80,308.0,0.489583,Eighth,C4
986,Right,0,72,80,308.0,1.989583,Half,C6_C5_A5
990,Left,1,57,80,308.5,0.489583,Eighth,A3
991,Left,1,52,80,309.0,0.489583,Eighth,E3
992,Left,1,64,80,309.5,0.489583,Eighth,E4
993,Left,1,63,80,310.0,0.489583,Eighth,D#4
994,Right,0,83,80,310.0,1.989583,Half,G#5_B5_B4
997,Left,1,64,80,310.5,0.489583,Eighth,E4
998,Left,1,63,80,311.0,0.489583,Eighth,D#4
999,Left,1,64,80,311.5,0.489583,Eighth,E4
1000,Left,1,52,80,312.0,1.989583,Half,E3
1001,Right,0,81,80,312.0,0.489583,Eighth,A5
1002,Right,0,76,80,312.5,0.489583,Eighth,E5
1003,Right,0,72,80,313.0,0.489583,Eighth,C5
1004,Left,1,64,80,313.0,1.989583,Half,E4_C4
1006,Right,0,84,80,313.5,0.489583,Eighth,C6
1007,Right,0,83,80,314.0,0.489583,Eighth,B5
1008,Left,1,52,80,314.0,1.989583,Half,E3
1009,Right,0,80,80,314.5,0.489583,Eighth,G#5
1010,Right,0,76,80,315.0,0.489583,Eighth,E5
1011,Left,1,59,80,315.0,1.989583,Half,D4_B3
1013,Right,0,86,80,315.5,0.489583,Eighth,D6
1014,Right,0,84,80,316.0,0.489583,Eighth,C6
1015,Left,1,52,80,316.0,1.989583,Half,E3
1016,Right,0,81,80,316.5,0.489583,Eighth,A5
1017,Right,0,76,80,317.0,0.489583,Eighth,E5
1018,Left,1,60,80,317.0,1.989583,Half,C4_A3
1020,Right,0,88,80,317.5,0.489583,Eighth,E6
1021,Right,0,87,80,318.0,0.489583,Eighth,D#6
1022,Left,1,52,80,318.0,1.989583,Half,E3
1023,Right,0,88,80,318.5,0.489583,Eighth,E6
1026,Right,0,87,80,319.0,0.489583,Eighth,D#6
1024,Left,1,56,80,319.0,0.989583,Quarter,G#3_B3
1027,Right,0,88,80,319.5,0.489583,Eighth,E6
1029,Left,1,57,80,320.0,0.489583,Eighth,A3
1028,Right,0,76,80,320.0,2.989583,DottedHalf,E5
1030,Left,1,52,80,320.5,0.489583,Eighth,E3
1031,Right,0,88,80,321.0,1.989583,Half,E6_C6
1033,Left,1,48,80,321.0,0.489583,Eighth,C3
1034,Left,1,60,80,321.5,0.489583,Eighth,C4
1035,Left,1,59,80,322.0,0.489583,Eighth,B3
1036,Left,1,56,80,322.5,0.489583,Eighth,G#3
1037,Left,1,52,80,323.0,0.489583,Eighth,E3
1038,Right,0,86,80,323.0,1.989583,Half,D6_D5_B5
1041,Left,1,62,80,323.5,0.489583,Eighth,D4
1042,Left,1,60,80,324.0,0.489583,Eighth,C4
1043,Left,1,57,80,324.5,0.489583,Eighth,A3
1045,Right,0,84,80,325.0,1.989583,Half,C6_C5_A5
1044,Left,1,52,80,325.0,0.489583,Eighth,E3
1048,Left,1,64,80,325.5,0.489583,Eighth,E4
1049,Left,1,63,80,326.0,0.489583,Eighth,D#4
1050,Left,1,64,80,326.5,0.489583,Eighth,E4
1054,Left,1,63,80,327.0,0.489583,Eighth,D#4
1051,Right,0,83,80,327.0,0.989583,Quarter,G#5_B5_B4
1055,Left,1,64,80,327.5,0.489583,Eighth,E4
1057,Left,1,52,80,328.0,1.989583,Half,E3
1056,Right,0,81,80,328.0,0.489583,Eighth,A5
1058,Right,0,76,80,328.5,0.489583,Eighth,E5
1059,Right,0,72,80,329.0,0.489583,Eighth,C5
1060,Left,1,60,80,329.0,1.989583,Half,E4_C4
1062,Right,0,84,80,329.5,0.489583,Eighth,C6
1063,Left,1,52,80,330.0,1.989583,Half,E3
1064,Right,0,83,80,330.0,0.489583,Eighth,B5
1065,Right,0,80,80,330.5,0.489583,Eighth,G#5
1068,Right,0,76,80,331.0,0.489583,Eighth,E5
1066,Left,1,62,80,331.0,1.989583,Half,D4_B3
1069,Right,0,86,80,331.5,0.489583,Eighth,D6
1071,Left,1,52,80,332.0,1.989583,Half,E3
1070,Right,0,84,80,332.0,0.489583,Eighth,C6
1072,Right,0,81,80,332.5,0.489583,Eighth,A5
1073,Right,0,76,80,333.0,0.489583,Eighth,E5
1074,Left,1,60,80,333.0,1.989583,Half,C4_A3
1076,Right,0,88,80,333.5,0.489583,Eighth,E6
1077,Right,0,87,80,334.0,0.489583,Eighth,D#6
1078,Left,1,52,80,334.0,1.989583,Half,E3
1079,Right,0,88,80,334.5,0.489583,Eighth,E6
1080,Left,1,59,80,335.0,0.989583,Quarter,G#3_B3
1082,Right,0,87,80,335.0,0.489583,Eighth,D#6
1083,Right,0,88,80,335.5,0.489583,Eighth,E6
1084,Left,1,45,80,336.0,1.989583,Half,A2
1085,Right,0,84,80,336.0,0.489583,Eighth,C6
1086,Right,0,81,80,336.5,0.489583,Eighth,A5
1088,Left,1,57,80,337.0,0.989583,Quarter,A3
1087,Right,0,76,80,337.0,0.489583,Eighth,E5
1089,Right,0,88,80,337.5,0.489583,Eighth,E6
1091,Left,1,52,80,338.0,1.989583,Half,E3
1090,Right,0,87,80,338.0,0.489583,Eighth,D#6
1092,Right,0,88,80,338.5,0.489583,Eighth,E6
1094,Left,1,59,80,339.0,0.989583,Quarter,G#3_B3
1093,Right,0,87,80,339.0,0.489583,Eighth,D#6
1096,Right,0,88,80,339.5,0.489583,Eighth,E6
1098,Left,1,57,80,340.0,1.989583,Half,A3
1097,Right,0,84,80,340.0,0.489583,Eighth,C6
1099,Right,0,81,80,340.5,0.489583,Eighth,A5
1101,Left,1,60,80,341.0,0.989583,Quarter,C4
1100,Right,0,76,80,341.0,0.489583,Eighth,E5
1102,Right,0,88,80,341.5,0.489583,Eighth,E6
1104,Left,1,52,80,342.0,1.989583,Half,E3
1103,Right,0,87,80,342.0,0.489583,Eighth,D#6
1105,Right,0,88,80,342.5,0.489583,Eighth,E6
1106,Left,1,56,80,343.0,0.989583,Quarter,G#3_B3
1108,Right,0,87,80,343.0,0.489583,Eighth,D#6
1109,Right,0,88,80,343.5,0.489583,Eighth,E6
1110,Right,0,81,80,344.0,0.989583,Quarter,A5
1111,Left,1,57,80,344.0,0.989583,Quarter,A3_A2
1114,Left,1,45,80,346.0,1.989583,Half,A2_A1
1113,Right,0,57,80,346.0,1.989583,Half,A3
1117,Left,1,33,80,348.0,1.989583,Half,A2_A1
1116,Right,0,57,80,348.0,1.989583,Half,A3
1119,Left,1,33,80,350.0,1.989583,Half,A2_A1
1121,Right,0,57,80,350.0,1.989583,Half,A3
1123,Left,1,33,80,352.0,7.989583,Unknown,A2_A1
1122,Right,0,57,80,352.0,7.989583,Unknown,A3
1126,Left,1,43,80,360.0,1.989583,Half,G2_G1
1125,Right,0,55,80,360.0,1.989583,Half,G3
1129,Left,1,29,80,362.0,1.989583,Half,F2_F1
1128,Right,0,53,80,362.0,1.989583,Half,F3
1133,Right,0,52,80,364.0,1.989583,Half,E3
1131,Left,1,28,80,364.0,1.989583,Half,E2_E1
1134,Right,0,53,80,366.0,0.989583,Quarter,F3
1135,Left,1,41,80,366.0,0.989583,Quarter,F2
1136,Left,1,38,80,367.0,0.989583,Quarter,D2
1137,Right,0,50,80,367.0,0.989583,Quarter,D3
1138,Left,1,37,70,368.0,6.989583,Unknown,C#2
1139,Left,1,40,70,368.0625,6.927083,Unknown,E2
1140,Left,1,45,70,368.125,6.864583,Unknown,A2
1141,Left,1,49,70,368.1875,1.802083,Half,C#3
1142,Left,1,52,70,368.25,1.739583,DottedQuarter,E3
1143,Left,1,57,70,368.3125,1.677083,DottedQuarter,A3
1144,Right,0,61,70,370.0,4.989583,Unknown,C#4
1145,Right,0,64,70,371.0,3.989583,Whole,E4
1146,Right,0,69,70,372.0,2.989583,DottedHalf,A4
1148,Left,1,57,80,375.0,0.989583,Quarter,C#3_A3
1147,Right,0,69,80,375.0,0.489583,Eighth,A4
1150,Right,0,67,80,375.5,0.489583,Eighth,G4
1151,Right,0,67,80,376.0,0.489583,Eighth,G4
1152,Left,1,57,80,376.0,0.989583,Quarter,D3_A3
1154,Right,0,65,80,376.5,0.489583,Eighth,F4
1156,Right,0,65,80,377.0,0.489583,Eighth,F4
1155,Left,1,52,80,377.0,0.989583,Quarter,E3_A3
1158,Right,0,64,80,377.5,0.489583,Eighth,E4
1159,Left,1,57,80,378.0,0.989583,Quarter,F3_A3
1161,Right,0,64,80,378.0,0.489583,Eighth,E4
1162,Right,0,62,80,378.5,0.489583,Eighth,D4
1163,Left,1,57,80,379.0,0.989583,Quarter,C#3_A3
1165,Right,0,69,80,379.0,0.489583,Eighth,A4
1166,Right,0,67,80,379.5,0.489583,Eighth,G4
1168,Left,1,50,80,380.0,0.989583,Quarter,D3_A3
1167,Right,0,67,80,380.0,0.489583,Eighth,G4
1170,Right,0,65,80,380.5,0.489583,Eighth,F4
1172,Left,1,52,80,381.0,0.989583,Quarter,E3_A3
1171,Right,0,65,80,381.0,0.489583,Eighth,F4
1174,Right,0,64,80,381.5,0.489583,Eighth,E4
1175,Left,1,57,80,382.0,0.989583,Quarter,F3_A3
1176,Right,0,64,80,382.0,0.489583,Eighth,E4
1178,Right,0,62,80,382.5,0.489583,Eighth,D4
1179,Left,1,54,80,383.0,0.989583,Quarter,F#3_D4
1181,Right,0,74,80,383.0,0.489583,Eighth,D5
1182,Right,0,72,83,383.5,0.489583,Eighth,C5
1183,Left,1,55,86,384.0,0.989583,Quarter,G3_D4
1184,Right,0,72,86,384.0,0.489583,Eighth,C5
1186,Right,0,70,89,384.5,0.489583,Eighth,A#4
1188,Left,1,62,92,385.0,0.989583,Quarter,D4_A3
1187,Right,0,70,92,385.0,0.489583,Eighth,A#4
1190,Right,0,69,95,385.5,0.489583,Eighth,A4
1191,Right,0,69,98,386.0,0.489583,Eighth,A4
1192,Left,1,62,98,386.0,0.989583,Quarter,D4_A#3
1194,Right,0,67,101,386.5,0.489583,Eighth,G4
1197,Right,0,67,104,387.0,0.489583,Eighth,G4
1195,Left,1,62,104,387.0,0.989583,Quarter,D4_A#3
1198,Right,0,68,107,387.5,0.489583,Eighth,G#4
1199,Left,1,57,110,388.0,1.989583,Half,D4_A3
1200,Right,0,65,110,388.0,1.989583,Half,G#4_F4
1203,Right,0,69,80,389.0,0.239583,Sixteenth,A4
1204,Right,0,68,80,389.125,0.239583,Sixteenth,G#4
1205,Right,0,66,80,389.25,0.239583,Sixteenth,F#4
1206,Right,0,68,80,389.375,0.239583,Sixteenth,G#4
1207,Right,0,71,80,389.5,0.239583,Sixteenth,B4
1208,Right,0,69,80,389.75,0.239583,Sixteenth,A4
1209,Right,0,64,80,390.0,1.989583,Half,E4_A4
1210,Left,1,61,80,390.0,1.989583,Half,C#4_A3
1213,Left,1,40,70,392.0,6.989583,Unknown,E2
1214,Left,1,43,70,392.0625,6.927083,Unknown,G2
1215,Left,1,48,70,392.125,6.864583,Unknown,C3
1216,Left,1,52,70,392.1875,1.802083,Half,E3
1217,Left,1,55,70,392.25,1.739583,DottedQuarter,G3
1218,Left,1,60,70,392.3125,1.677083,DottedQuarter,C4
1219,Right,0,64,70,394.0,4.989583,Unknown,E4
1220,Right,0,67,70,395.0,2.989583,DottedHalf,G4
1221,Right,0,72,70,396.0,2.989583,DottedHalf,C5
1222,Right,0,72,80,399.0,0.489583,Eighth,C5
1223,Left,1,52,80,399.0,0.989583,Quarter,E3_C4
1225,Right,0,70,80,399.5,0.489583,Eighth,A#4
1227,Right,0,70,81,400.0,0.489583,Eighth,A#4
1226,Left,1,53,81,400.0,0.989583,Quarter,F3_C4
1229,Right,0,68,82,400.5,0.489583,Eighth,G#4
1230,Right,0,68,83,401.0,0.489583,Eighth,G#4
1231,Right,0,69,84,401.5,0.489583,Eighth,A4
1232,Right,0,69,85,402.0,0.489583,Eighth,A4
1233,Right,0,74,86,402.5,0.489583,Eighth,D5
1234,Left,1,54,87,403.0,0.989583,Quarter,F#3_D4
1235,Right,0,74,87,403.0,0.489583,Eighth,D5
1237,Right,0,72,88,403.5,0.489583,Eighth,C5
1238,Left,1,62,89,404.0,0.989583,Quarter,G3_D4
1240,Right,0,72,89,404.0,0.489583,Eighth,C5
1241,Right,0,69,90,404.5,0.489583,Eighth,A4
1242,Right,0,69,91,405.0,0.489583,Eighth,A4
1243,Right,0,70,92,405.5,0.489583,Eighth,A#4
1244,Right,0,70,93,406.0,0.489583,Eighth,A#4
1245,Right,0,75,94,406.5,0.489583,Eighth,D#5
1246,Left,1,55,95,407.0,0.989583,Quarter,G3_D#4_A#3
1249,Right,0,75,95,407.0,0.489583,Eighth,D#5
1250,Right,0,74,95,407.5,0.489583,Eighth,D5
1251,Right,0,74,96,408.0,0.489583,Eighth,D5
1252,Right,0,73,97,408.5,0.489583,Eighth,C#5
1253,Left,1,55,98,409.0,0.989583,Quarter,G3_E4_C#4_A#3
1257,Right,0,73,98,409.0,0.489583,Eighth,C#5
1258,Right,0,82,99,409.5,0.489583,Eighth,A#5
1259,Right,0,82,100,410.0,0.489583,Eighth,A#5
1260,Right,0,76,101,410.5,0.489583,Eighth,E5
1261,Right,0,76,102,411.0,0.489583,Eighth,E5
1262,Left,1,55,102,411.0,0.989583,Quarter,G3_E4_C#4_A#3
1266,Right,0,85,103,411.5,0.489583,Eighth,C#6
1267,Right,0,85,104,412.0,0.489583,Eighth,C#6
1268,Right,0,77,105,412.5,0.489583,Eighth,F5
1273,Right,0,77,106,413.0,0.489583,Eighth,F5
1269,Left,1,62,106,413.0,0.989583,Quarter,G#3_F4_D4_B3
1274,Right,0,86,107,413.5,0.489583,Eighth,D6
1275,Right,0,86,108,414.0,0.489583,Eighth,D6
1276,Right,0,77,109,414.5,0.489583,Eighth,F5
1277,Left,1,62,110,415.0,0.989583,Quarter,G#3_F4_D4_B3
1278,Right,0,77,110,415.0,0.489583,Eighth,F5
1282,Right,0,89,110,415.5,0.489583,Eighth,F6
1283,Left,1,62,110,416.0,0.989583,Quarter,F4_D4_A3
1285,Right,0,89,110,416.0,0.489583,Eighth,F6
1287,Right,0,85,110,416.5,0.489583,Eighth,C#6
1288,Right,0,85,110,417.0,0.489583,Eighth,C#6
1289,Right,0,86,110,417.5,0.489583,Eighth,D6
1290,Right,0,86,110,418.0,0.489583,Eighth,D6
1291,Right,0,80,110,418.5,0.489583,Eighth,G#5
1292,Right,0,80,110,419.0,0.489583,Eighth,G#5
1293,Right,0,81,110,419.5,0.489583,Eighth,A5
1294,Right,0,81,110,420.0,0.489583,Eighth,A5
1295,Right,0,76,110,420.5,0.489583,Eighth,E5
1296,Right,0,76,110,421.0,0.489583,Eighth,E5
1297,Right,0,77,110,421.5,0.489583,Eighth,F5
1298,Right,0,77,110,422.0,0.489583,Eighth,F5
1299,Right,0,73,110,422.5,0.489583,Eighth,C#5
1300,Right,0,73,110,423.0,0.489583,Eighth,C#5
1301,Right,0,74,110,423.5,0.489583,Eighth,D5
1302,Right,0,74,110,424.0,0.489583,Eighth,D5
1303,Right,0,68,110,424.5,0.489583,Eighth,G#4
1304,Right,0,68,110,425.0,0.489583,Eighth,G#4
1305,Right,0,69,110,425.5,0.489583,Eighth,A4
1306,Right,0,69,110,426.0,0.489583,Eighth,A4
1307,Right,0,64,110,426.5,0.489583,Eighth,E4
1308,Right,0,64,110,427.0,0.489583,Eighth,E4
1309,Right,0,65,110,427.5,0.489583,Eighth,F4
1310,Right,0,65,110,428.0,0.489583,Eighth,F4
1311,Right,0,61,110,428.5,0.489583,Eighth,C#4
1312,Right,0,61,110,429.0,0.489583,Eighth,C#4
1313,Right,0,62,110,429.5,0.489583,Eighth,D4
1314,Right,0,62,110,430.0,0.489583,Eighth,D4
1315,Right,0,58,110,430.5,0.489583,Eighth,A#3
1317,Right,0,58,110,431.0,0.489583,Eighth,A#3
1316,Left,1,46,110,431.0,0.489583,Eighth,A#2
1319,Right,0,57,110,431.5,0.489583,Eighth,A3
1318,Left,1,45,110,431.5,0.489583,Eighth,A2
1321,Right,0,57,110,432.0,0.489583,Eighth,A3
1320,Left,1,45,110,432.0,0.489583,Eighth,A2
1323,Left,1,49,110,432.5,0.489583,Eighth,C#3
1322,Right,0,61,110,432.5,0.489583,Eighth,C#4
1325,Left,1,49,110,433.0,0.489583,Eighth,C#3
1324,Right,0,61,110,433.0,0.489583,Eighth,C#4
1326,Left,1,50,110,433.5,0.489583,Eighth,D3
1327,Right,0,62,110,433.5,0.489583,Eighth,D4
1329,Left,1,50,110,434.0,0.489583,Eighth,D3
1328,Right,0,62,110,434.0,0.489583,Eighth,D4
1331,Right,0,58,110,434.5,0.489583,Eighth,A#3
1330,Left,1,46,110,434.5,0.489583,Eighth,A#2
1332,Right,0,58,110,435.0,0.489583,Eighth,A#3
1333,Left,1,46,110,435.0,0.489583,Eighth,A#2
1335,Right,0,57,110,435.5,0.489583,Eighth,A3
1334,Left,1,45,110,435.5,0.489583,Eighth,A2
1337,Right,0,57,110,436.0,0.489583,Eighth,A3
1336,Left,1,45,110,436.0,0.489583,Eighth,A2
1338,Right,0,61,110,436.5,0.489583,Eighth,C#4
1339,Left,1,49,110,436.5,0.489583,Eighth,C#3
1341,Right,0,61,110,437.0,0.489583,Eighth,C#4
1340,Left,1,49,110,437.0,0.489583,Eighth,C#3
1343,Right,0,62,110,437.5,0.489583,Eighth,D4
1342,Left,1,50,110,437.5,0.489583,Eighth,D3
1344,Left,1,50,110,438.0,0.489583,Eighth,D3
1345,Right,0,62,110,438.0,0.489583,Eighth,D4
1347,Left,1,46,110,438.5,0.489583,Eighth,A#2
1346,Right,0,58,110,438.5,0.489583,Eighth,A#3
1348,Right,0,58,110,439.0,0.489583,Eighth,A#3
1349,Left,1,46,110,439.0,0.489583,Eighth,A#2
1351,Left,1,45,110,439.5,0.489583,Eighth,A2
1350,Right,0,57,110,439.5,0.489583,Eighth,A3
1353,Right,0,57,110,440.0,0.489583,Eighth,A3
1352,Left,1,46,110,440.0,3.989583,Whole,A#2
1354,Right,0,58,110,440.5,0.489583,Eighth,A#3
1355,Left,1,53,110,441.0,2.989583,DottedHalf,F3_D3
1356,Right,0,59,110,441.0,0.489583,Eighth,B3
1358,Right,0,60,110,441.5,0.489583,Eighth,C4
1359,Right,0,61,110,442.0,0.489583,Eighth,C#4
1360,Right,0,62,110,442.5,0.489583,Eighth,D4
1361,Right,0,63,110,443.0,0.489583,Eighth,D#4
1362,Right,0,64,110,443.5,0.489583,Eighth,E4
1363,Right,0,65,110,444.0,0.489583,Eighth,F4
1364,Left,1,45,110,444.0,0.989583,Quarter,F3_D3_A2
1367,Right,0,66,110,444.5,0.489583,Eighth,F#4
1368,Right,0,67,110,445.0,0.489583,Eighth,G4
1369,Left,1,45,110,445.0,0.989583,Quarter,F3_D3_A2
1372,Right,0,68,110,445.5,0.489583,Eighth,G#4
1373,Right,0,69,110,446.0,0.489583,Eighth,A4
1374,Left,1,45,110,446.0,0.989583,Quarter,G3_E3_A2
1377,Right,0,70,110,446.5,0.489583,Eighth,A#4
1378,Left,1,55,110,447.0,0.989583,Quarter,G3_E3_A2
1381,Right,0,61,110,447.0,0.489583,Eighth,C#4
1382,Right,0,69,110,447.5,0.489583,Eighth,A4
1383,Left,1,38,110,448.0,1.989583,Half,D2
1384,Right,0,62,110,448.0,0.489583,Eighth,D4
1385,Right,0,57,110,448.333333,0.510417,Eighth,A3
1386,Right,0,53,110,448.666667,0.583333,Eighth,F3
1387,Right,0,57,110,449.0,0.5625,Eighth,A3
1388,Right,0,53,110,449.333333,0.5,Eighth,F3
1389,Right,0,57,110,449.666667,0.5625,Eighth,A3
1391,Right,0,53,110,450.0,0.552083,Eighth,F3
1390,Left,1,41,110,450.0,0.989583,Quarter,F2
1392,Right,0,57,110,450.333333,0.541667,Eighth,A3
1393,Right,0,53,110,450.666667,0.541667,Eighth,F3
1394,Right,0,57,110,451.0,0.520833,Eighth,A3
1395,Left,1,45,110,451.0,0.989583,Quarter,A2
1396,Right,0,53,110,451.333333,0.5,Eighth,F3
1397,Right,0,57,110,451.666667,0.53125,Eighth,A3
1399,Left,1,50,110,452.0,11.989583,Unknown,D3
1398,Right,0,53,110,452.0,0.541667,Eighth,F3
1400,Right,0,57,107,452.333333,0.541667,Eighth,A3
1401,Right,0,53,103,452.666667,0.53125,Eighth,F3
1402,Right,0,57,99,453.0,0.541667,Eighth,A3
1403,Right,0,53,96,453.333333,0.541667,Eighth,F3
1404,Right,0,57,92,453.666667,0.552083,Eighth,A3
1405,Right,0,53,88,454.0,0.541667,Eighth,F3
1406,Right,0,57,84,454.333333,0.479167,Eighth,A3
1407,Right,0,53,81,454.666667,0.53125,Eighth,F3
1408,Right,0,69,93,455.0,0.989583,Quarter,A4_A3
1410,Right,0,53,80,455.333333,0.46875,Eighth,F3
1411,Right,0,57,80,455.666667,0.5,Eighth,A3
1412,Right,0,53,80,456.0,0.989583,Eighth,G#4_F3
1414,Right,0,57,80,456.333333,0.53125,Eighth,A3
1415,Right,0,53,80,456.666667,0.510417,Eighth,F3
1416,Right,0,57,80,457.0,0.989583,Eighth,A4_A3
1418,Right,0,53,80,457.333333,0.520833,Eighth,F3
1419,Right,0,57,80,457.666667,0.510417,Eighth,A3
1420,Right,0,53,80,458.0,0.989583,Eighth,F3_A#4
1422,Right,0,57,80,458.333333,0.541667,Eighth,A3
1423,Right,0,53,80,458.666667,0.479167,Eighth,F3
1424,Right,0,69,100,459.0,0.989583,Quarter,A4_A3
1426,Right,0,53,80,459.333333,0.635417,DottedEighth,F3
1427,Right,0,57,80,459.666667,0.510417,Eighth,A3
1428,Right,0,53,80,460.0,1.989583,Eighth,F3_A4
1430,Right,0,57,80,460.333333,0.5,Eighth,A3
1431,Right,0,53,80,460.666667,0.479167,Eighth,F3
1432,Right,0,57,80,461.0,0.5625,Eighth,A3
1433,Right,0,53,80,461.333333,0.541667,Eighth,F3
1434,Right,0,57,80,461.666667,0.510417,Eighth,A3
1435,Right,0,53,80,462.0,1.989583,Eighth,F3_A4
1437,Right,0,57,80,462.333333,0.510417,Eighth,A3
1438,Right,0,53,80,462.666667,0.5,Eighth,F3
1439,Right,0,57,80,463.0,0.5625,Eighth,A3
1440,Right,0,53,80,463.333333,0.5625,Eighth,F3
1441,Right,0,57,80,463.666667,0.322917,Triplet,A3
1443,Left,1,40,110,464.0,1.989583,Half,E2
1442,Right,0,69,110,464.0,0.552083,Eighth,A4
1444,Right,0,61,110,464.333333,0.625,Eighth,C#4
1445,Right,0,55,110,464.666667,0.614583,Eighth,G3
1446,Right,0,61,110,465.0,0.604167,Eighth,C#4
1447,Right,0,55,110,465.333333,0.625,Eighth,G3
1448,Right,0,61,110,465.666667,0.625,DottedEighth,C#4
1449,Left,1,43,110,466.0,0.989583,Quarter,G2
1450,Right,0,55,110,466.0,0.625,DottedEighth,G3
1451,Right,0,61,110,466.333333,0.625,DottedEighth,C#4
1452,Right,0,55,110,466.666667,0.572917,Eighth,G3
1454,Left,1,49,110,467.0,0.989583,Quarter,C#3
1453,Right,0,61,110,467.0,0.635417,DottedEighth,C#4
1455,Right,0,55,110,467.333333,0.59375,Eighth,G3
1456,Right,0,61,110,467.666667,0.635417,DottedEighth,C#4
1458,Left,1,52,107,468.0,11.989583,Unknown,E3
1457,Right,0,55,107,468.0,0.625,Eighth,G3
1459,Right,0,61,104,468.333333,0.625,DottedEighth,C#4
1460,Right,0,55,101,468.666667,0.572917,Eighth,G3
1461,Right,0,61,97,469.0,0.635417,DottedEighth,C#4
1462,Right,0,55,94,469.333333,0.59375,Eighth,G3
1463,Right,0,61,91,469.666667,0.635417,DottedEighth,C#4
1464,Right,0,55,87,470.0,0.625,Eighth,G3
1465,Right,0,61,84,470.333333,0.625,DottedEighth,C#4
1466,Right,0,55,81,470.666667,0.572917,Eighth,G3
1467,Right,0,69,100,471.0,0.989583,Quarter,C#4_A4
1469,Right,0,55,80,471.333333,0.59375,Eighth,G3
1470,Right,0,61,80,471.666667,0.635417,DottedEighth,C#4
1471,Right,0,68,102,472.0,0.989583,Quarter,G3_G#4
1473,Right,0,61,80,472.333333,0.625,DottedEighth,C#4
1474,Right,0,55,80,472.666667,0.572917,Eighth,G3
1475,Right,0,61,80,473.0,0.989583,DottedEighth,C#4_A4
1477,Right,0,55,80,473.333333,0.59375,Eighth,G3
1478,Right,0,61,80,473.666667,0.635417,DottedEighth,C#4
1479,Right,0,55,80,474.0,0.989583,Eighth,G3_A#4
1481,Right,0,61,80,474.333333,0.625,DottedEighth,C#4
1482,Right,0,55,80,474.666667,0.572917,Eighth,G3
1483,Right,0,69,103,475.0,0.989583,Quarter,C#4_A4
1485,Right,0,55,80,475.333333,0.59375,Eighth,G3
1486,Right,0,61,80,475.666667,0.635417,DottedEighth,C#4
1487,Right,0,69,103,476.0,1.989583,Half,G3_A4
1489,Right,0,61,80,476.333333,0.625,DottedEighth,C#4
1490,Right,0,55,80,476.666667,0.572917,Eighth,G3
1491,Right,0,61,80,477.0,0.635417,DottedEighth,C#4
1492,Right,0,55,80,477.333333,0.59375,Eighth,G3
1493,Right,0,61,80,477.666667,0.635417,DottedEighth,C#4
1494,Right,0,69,100,478.0,1.989583,Half,G3_A4
1496,Right,0,61,80,478.333333,0.625,DottedEighth,C#4
1497,Right,0,55,80,478.666667,0.572917,Eighth,G3
1498,Right,0,61,80,479.0,0.635417,DottedEighth,C#4
1499,Right,0,55,80,479.333333,0.59375,Eighth,G3
1500,Right,0,61,80,479.666667,0.322917,Triplet,C#4
1501,Right,0,69,110,480.0,0.635417,DottedEighth,A4
1502,Left,1,41,110,480.0,1.989583,Half,F2
1503,Right,0,62,110,480.333333,0.614583,Eighth,D4
1504,Right,0,57,110,480.666667,0.635417,DottedEighth,A3
1505,Right,0,62,110,481.0,0.604167,Eighth,D4
1506,Right,0,57,110,481.333333,0.541667,Eighth,A3
1507,Right,0,62,110,481.666667,0.5625,Eighth,D4
1509,Left,1,45,110,482.0,0.989583,Quarter,A2
1508,Right,0,57,110,482.0,0.635417,DottedEighth,A3
1510,Right,0,62,110,482.333333,0.614583,Eighth,D4
1511,Right,0,57,110,482.666667,0.635417,DottedEighth,A3
1512,Right,0,62,110,483.0,0.604167,Eighth,D4
1513,Left,1,50,110,483.0,0.989583,Quarter,D3
1514,Right,0,57,110,483.333333,0.541667,Eighth,A3
1515,Right,0,62,110,483.666667,0.5625,Eighth,D4
1516,Left,1,53,110,484.0,3.989583,Whole,F3
1517,Right,0,57,110,484.0,0.635417,DottedEighth,A3
1518,Right,0,62,110,484.333333,0.614583,Eighth,D4
1519,Right,0,57,110,484.666667,0.635417,DottedEighth,A3
1520,Right,0,62,110,485.0,0.604167,Eighth,D4
1521,Right,0,57,110,485.333333,0.541667,Eighth,A3
1522,Right,0,62,110,485.666667,0.5625,Eighth,D4
1523,Right,0,57,110,486.0,0.989583,DottedEighth,D5_A3
1525,Right,0,62,110,486.333333,0.614583,Eighth,D4
1526,Right,0,57,110,486.666667,0.635417,DottedEighth,A3
1527,Right,0,62,110,487.0,0.604167,Eighth,D4
1528,Right,0,57,110,487.333333,0.541667,Eighth,A3
1529,Right,0,62,110,487.666667,0.322917,Triplet,D4
1530,Right,0,64,110,488.0,0.53125,Eighth,E4
1531,Left,1,44,110,488.0,1.989583,Half,G#2
1532,Right,0,59,110,488.333333,0.552083,Eighth,B3
1533,Right,0,64,110,488.666667,0.572917,Eighth,E4
1534,Right,0,59,110,489.0,0.583333,Eighth,B3
1535,Right,0,64,110,489.333333,0.541667,Eighth,E4
1536,Right,0,59,110,489.666667,0.46875,Eighth,B3
1538,Left,1,47,110,490.0,0.989583,Quarter,B2
1537,Right,0,64,110,490.0,0.53125,Eighth,E4
1539,Right,0,59,110,490.333333,0.552083,Eighth,B3
1540,Right,0,64,110,490.666667,0.572917,Eighth,E4
1542,Left,1,52,110,491.0,0.989583,Quarter,E3
1541,Right,0,59,110,491.0,0.583333,Eighth,B3
1543,Right,0,64,110,491.333333,0.541667,Eighth,E4
1544,Right,0,59,110,491.666667,0.46875,Eighth,B3
1545,Left,1,56,110,492.0,3.989583,Whole,G#3
1546,Right,0,64,110,492.0,0.53125,Eighth,E4
1547,Right,0,59,110,492.333333,0.552083,Eighth,B3
1548,Right,0,64,110,492.666667,0.572917,Eighth,E4
1549,Right,0,59,110,493.0,0.583333,Eighth,B3
1550,Right,0,64,110,493.333333,0.541667,Eighth,E4
1551,Right,0,59,110,493.666667,0.46875,Eighth,B3
1552,Right,0,76,120,494.0,0.989583,Quarter,E5_E4
1554,Right,0,59,110,494.333333,0.552083,Eighth,B3
1555,Right,0,64,110,494.666667,0.572917,Eighth,E4
1556,Right,0,59,110,495.0,0.583333,Eighth,B3
1557,Right,0,64,110,495.333333,0.541667,Eighth,E4
1558,Right,0,59,110,495.666667,0.322917,Triplet,B3
1559,Left,1,45,110,496.0,1.989583,Half,A2
1560,Right,0,65,110,496.0,0.552083,Eighth,F4
1561,Right,0,60,110,496.333333,0.541667,Eighth,C4
1562,Right,0,65,110,496.666667,0.583333,Eighth,F4
1563,Right,0,60,110,497.0,0.625,Eighth,C4
1564,Right,0,65,110,497.333333,0.572917,Eighth,F4
1565,Right,0,60,110,497.666667,0.604167,Eighth,C4
1567,Right,0,65,110,498.0,0.552083,Eighth,F4
1566,Left,1,48,110,498.0,0.989583,Quarter,C3
1568,Right,0,60,110,498.333333,0.541667,Eighth,C4
1569,Right,0,65,110,498.666667,0.583333,Eighth,F4
1570,Right,0,60,110,499.0,0.625,Eighth,C4
1571,Left,1,53,110,499.0,0.989583,Quarter,F3
1572,Right,0,65,110,499.333333,0.572917,Eighth,F4
1573,Right,0,60,110,499.666667,0.604167,Eighth,C4
1574,Left,1,57,110,500.0,3.989583,Whole,A3
1575,Right,0,65,110,500.0,0.552083,Eighth,F4
1576,Right,0,60,110,500.333333,0.541667,Eighth,C4
1577,Right,0,65,110,500.666667,0.583333,Eighth,F4
1578,Right,0,60,110,501.0,0.625,Eighth,C4
1579,Right,0,65,110,501.333333,0.572917,Eighth,F4
1580,Right,0,60,110,501.666667,0.604167,Eighth,C4
1581,Right,0,65,110,502.0,0.989583,Eighth,F5_F4
1583,Right,0,60,110,502.333333,0.541667,Eighth,C4
1584,Right,0,65,110,502.666667,0.583333,Eighth,F4
1585,Right,0,60,110,503.0,0.625,Eighth,C4
1586,Right,0,65,110,503.333333,0.572917,Eighth,F4
1587,Right,0,60,110,503.666667,0.322917,Triplet,C4
1588,Right,0,68,110,504.0,0.583333,Eighth,G#4
1589,Left,1,47,110,504.0,1.989583,Half,B2
1590,Right,0,62,110,504.333333,0.583333,Eighth,D4
1591,Right,0,68,110,504.666667,0.53125,Eighth,G#4
1592,Right,0,62,110,505.0,0.572917,Eighth,D4
1593,Right,0,68,110,505.333333,0.583333,Eighth,G#4
1594,Right,0,62,110,505.666667,0.5625,Eighth,D4
1595,Left,1,50,110,506.0,0.989583,Quarter,D3
1596,Right,0,68,110,506.0,0.583333,Eighth,G#4
1597,Right,0,62,110,506.333333,0.583333,Eighth,D4
1598,Right,0,68,110,506.666667,0.53125,Eighth,G#4
1600,Right,0,62,110,507.0,0.572917,Eighth,D4
1599,Left,1,56,110,507.0,0.989583,Quarter,G#3
1601,Right,0,68,110,507.333333,0.583333,Eighth,G#4
1602,Right,0,62,110,507.666667,0.5625,Eighth,D4
1604,Right,0,68,110,508.0,0.583333,Eighth,G#4
1603,Left,1,59,110,508.0,3.989583,Whole,B3
1605,Right,0,62,110,508.333333,0.583333,Eighth,D4
1606,Right,0,68,110,508.666667,0.53125,Eighth,G#4
1607,Right,0,62,110,509.0,0.572917,Eighth,D4
1608,Right,0,68,110,509.333333,0.583333,Eighth,G#4
1609,Right,0,62,110,509.666667,0.5625,Eighth,D4
1610,Right,0,68,110,510.0,0.989583,Eighth,G#5_G#4
1612,Right,0,62,110,510.333333,0.583333,Eighth,D4
1613,Right,0,68,110,510.666667,0.53125,Eighth,G#4
1614,Right,0,62,110,511.0,0.572917,Eighth,D4
1615,Right,0,68,110,511.333333,0.583333,Eighth,G#4
1616,Right,0,62,110,511.666667,0.322917,Triplet,D4
1617,Left,1,48,110,512.0,1.989583,Half,C3
1618,Right,0,69,110,512.0,0.5625,Eighth,A4
1619,Right,0,64,110,512.333333,0.625,Eighth,E4
1620,Right,0,69,110,512.666667,0.614583,Eighth,A4
1621,Right,0,64,110,513.0,0.614583,Eighth,E4
1622,Right,0,69,110,513.333333,0.635417,DottedEighth,A4
1623,Right,0,64,110,513.666667,0.572917,Eighth,E4
1625,Right,0,69,110,514.0,0.5625,Eighth,A4
1624,Left,1,57,110,514.0,0.989583,Quarter,A3
1626,Right,0,64,110,514.333333,0.625,Eighth,E4
1627,Right,0,69,110,514.666667,0.614583,Eighth,A4
1629,Right,0,64,110,515.0,0.614583,Eighth,E4
1628,Left,1,60,110,515.0,0.989583,Quarter,C4
1630,Right,0,69,110,515.333333,0.635417,DottedEighth,A4
1631,Right,0,64,110,515.666667,0.322917,Triplet,E4
1634,Right,0,69,110,516.0,0.53125,Eighth,A4
1632,Left,1,63,110,516.0,3.989583,Whole,F#4_D#4
1635,Right,0,72,110,516.333333,0.541667,Eighth,C5
1636,Right,0,69,110,516.666667,0.541667,Eighth,A4
1637,Right,0,72,110,517.0,0.572917,Eighth,C5
1638,Right,0,69,110,517.333333,0.5625,Eighth,A4
1639,Right,0,72,110,517.666667,0.541667,Eighth,C5
1640,Right,0,69,110,518.0,0.989583,Eighth,A5_A4
1642,Right,0,72,110,518.333333,0.541667,Eighth,C5
1643,Right,0,69,110,518.666667,0.541667,Eighth,A4
1644,Right,0,72,110,519.0,0.572917,Eighth,C5
1645,Right,0,69,110,519.333333,0.5625,Eighth,A4
1646,Right,0,72,110,519.666667,0.322917,Triplet,C5
1647,Left,1,63,110,520.0,3.989583,Whole,F#4_D#4
1649,Right,0,69,110,520.0,0.53125,Eighth,A4
1650,Right,0,72,110,520.333333,0.541667,Eighth,C5
1651,Right,0,69,110,520.666667,0.541667,Eighth,A4
1652,Right,0,72,110,521.0,0.572917,Eighth,C5
1653,Right,0,69,110,521.333333,0.5625,Eighth,A4
1654,Right,0,72,110,521.666667,0.541667,Eighth,C5
1655,Right,0,69,110,522.0,0.989583,Eighth,A5_A4
1657,Right,0,72,110,522.333333,0.541667,Eighth,C5
1658,Right,0,69,110,522.666667,0.541667,Eighth,A4
1659,Right,0,72,110,523.0,0.572917,Eighth,C5
1660,Right,0,69,110,523.333333,0.5625,Eighth,A4
1661,Right,0,72,110,523.666667,0.322917,Triplet,C5
1662,Left,1,63,110,524.0,3.989583,Whole,F#4_D#4
1664,Right,0,69,110,524.0,0.53125,Eighth,A4
1665,Right,0,72,110,524.333333,0.541667,Eighth,C5
1666,Right,0,69,110,524.666667,0.541667,Eighth,A4
1667,Right,0,72,110,525.0,0.572917,Eighth,C5
1668,Right,0,69,110,525.333333,0.5625,Eighth,A4
1669,Right,0,72,110,525.666667,0.541667,Eighth,C5
1670,Right,0,81,120,526.0,0.989583,Quarter,A5_A4
1672,Right,0,72,110,526.333333,0.541667,Eighth,C5
1673,Right,0,69,110,526.666667,0.541667,Eighth,A4
1674,Right,0,72,110,527.0,0.572917,Eighth,C5
1675,Right,0,69,110,527.333333,0.5625,Eighth,A4
1676,Right,0,72,110,527.666667,0.322917,Triplet,C5
1677,Right,0,80,110,528.0,0.989583,Quarter,G#5_G#4_B4
1679,Left,1,52,110,528.0,0.489583,Eighth,E3
1681,Left,1,64,80,528.5,0.489583,Eighth,E4
1682,Left,1,62,80,529.0,0.489583,Eighth,D4_B3
1684,Left,1,64,80,529.5,0.489583,Eighth,E4
1685,Left,1,65,80,530.0,0.489583,Eighth,F4
1686,Left,1,64,80,530.5,0.489583,Eighth,E4
1687,Left,1,62,80,531.0,0.489583,Eighth,D4_B3
1689,Right,0,83,80,531.0,0.489583,Eighth,B5
1691,Left,1,64,80,531.5,0.489583,Eighth,E4
1690,Right,0,80,80,531.5,0.489583,Eighth,G#5
1693,Right,0,76,80,532.0,0.489583,Eighth,E5
1692,Left,1,52,80,532.0,0.489583,Eighth,E3
1695,Right,0,77,80,532.5,0.489583,Eighth,F5
1694,Left,1,64,80,532.5,0.489583,Eighth,E4
1696,Right,0,77,80,533.0,0.489583,Eighth,F5
1697,Left,1,59,80,533.0,0.489583,Eighth,D4_B3
1699,Right,0,74,80,533.5,0.489583,Eighth,D5
1700,Left,1,64,80,533.5,0.489583,Eighth,E4
1701,Left,1,65,80,534.0,0.489583,Eighth,F4
1702,Left,1,64,80,534.5,0.489583,Eighth,E4
1704,Right,0,83,80,535.0,0.489583,Eighth,B5
1703,Left,1,62,80,535.0,0.489583,Eighth,D4_B3
1706,Right,0,80,80,535.5,0.489583,Eighth,G#5
1707,Left,1,64,80,535.5,0.489583,Eighth,E4
1709,Right,0,76,80,536.0,0.489583,Eighth,E5
1708,Left,1,52,80,536.0,0.489583,Eighth,E3
1710,Left,1,64,80,536.5,0.489583,Eighth,E4
1711,Right,0,77,80,536.5,0.489583,Eighth,F5
1713,Right,0,77,80,537.0,0.489583,Eighth,F5
1712,Left,1,62,80,537.0,0.489583,Eighth,D4_B3
1716,Left,1,64,80,537.5,0.489583,Eighth,E4
1715,Right,0,74,80,537.5,0.489583,Eighth,D5
1717,Left,1,65,80,538.0,0.489583,Eighth,F4
1718,Left,1,64,80,538.5,0.489583,Eighth,E4
1719,Left,1,62,80,539.0,0.489583,Eighth,D4_B3
1721,Right,0,83,80,539.0,0.489583,Eighth,B5
1722,Left,1,64,80,539.5,0.489583,Eighth,E4
1723,Right,0,80,80,539.5,0.489583,Eighth,G#5
1724,Left,1,52,80,540.0,0.489583,Eighth,E3
1725,Right,0,76,80,540.0,0.489583,Eighth,E5
1727,Right,0,77,80,540.5,0.489583,Eighth,F5
1726,Left,1,64,80,540.5,0.489583,Eighth,E4
1728,Left,1,62,80,541.0,0.489583,Eighth,D4_B3
1730,Right,0,77,80,541.0,0.489583,Eighth,F5
1731,Left,1,64,80,541.5,0.489583,Eighth,E4
1732,Right,0,74,80,541.5,0.489583,Eighth,D5
1734,Right,0,74,80,542.0,0.489583,Eighth,D5
1733,Left,1,52,80,542.0,0.489583,Eighth,E3
1735,Right,0,72,80,542.5,0.489583,Eighth,C5
1736,Left,1,64,80,542.5,0.489583,Eighth,E4
1737,Left,1,59,80,543.0,0.489583,Eighth,G#3_B3
1739,Right,0,72,80,543.0,0.489583,Eighth,C5
1740,Left,1,64,80,543.5,0.489583,Eighth,E4
1741,Right,0,71,80,543.5,0.489583,Eighth,B4
1742,Left,1,52,80,544.0,0.489583,Eighth,E3
1743,Right,0,71,80,544.0,0.489583,Eighth,B4
1745,Left,1,64,80,544.5,0.489583,Eighth,E4
1744,Right,0,72,80,544.5,0.489583,Eighth,C5
1747,Right,0,69,80,545.0,0.989583,Quarter,A4
1746,Left,1,57,80,545.0,0.489583,Eighth,C4_A3
1749,Left,1,64,80,545.5,0.489583,Eighth,E4
1750,Left,1,65,80,546.0,0.489583,Eighth,F4
1751,Left,1,64,80,546.5,0.489583,Eighth,E4
1753,Right,0,84,80,547.0,0.489583,Eighth,C6
1752,Left,1,57,80,547.0,0.489583,Eighth,C4_A3
1756,Left,1,64,80,547.5,0.489583,Eighth,E4
1755,Right,0,81,80,547.5,0.489583,Eighth,A5
1758,Left,1,52,80,548.0,0.489583,Eighth,E3
1757,Right,0,75,80,548.0,0.489583,Eighth,D#5
1760,Right,0,76,80,548.5,0.489583,Eighth,E5
1759,Left,1,64,80,548.5,0.489583,Eighth,E4
1761,Right,0,76,80,549.0,0.489583,Eighth,E5
1762,Left,1,60,80,549.0,0.489583,Eighth,C4_A3
1764,Left,1,64,80,549.5,0.489583,Eighth,E4
1765,Right,0,72,80,549.5,0.489583,Eighth,C5
1766,Left,1,65,80,550.0,0.489583,Eighth,F4
1767,Left,1,64,80,550.5,0.489583,Eighth,E4
1769,Left,1,60,80,551.0,0.489583,Eighth,C4_A3
1768,Right,0,84,80,551.0,0.489583,Eighth,C6
1771,Right,0,81,80,551.5,0.489583,Eighth,A5
1772,Left,1,64,80,551.5,0.489583,Eighth,E4
1773,Right,0,75,80,552.0,0.489583,Eighth,D#5
1774,Left,1,52,80,552.0,0.489583,Eighth,E3
1776,Left,1,64,80,552.5,0.489583,Eighth,E4
1775,Right,0,76,80,552.5,0.489583,Eighth,E5
1778,Left,1,60,80,553.0,0.489583,Eighth,C4_A3
1777,Right,0,76,80,553.0,0.489583,Eighth,E5
1781,Right,0,72,80,553.5,0.489583,Eighth,C5
1780,Left,1,64,80,553.5,0.489583,Eighth,E4
1782,Left,1,65,80,554.0,0.489583,Eighth,F4
1783,Left,1,64,80,554.5,0.489583,Eighth,E4
1784,Left,1,57,80,555.0,0.489583,Eighth,C4_A3
1786,Right,0,84,80,555.0,0.489583,Eighth,C6
1788,Right,0,81,80,555.5,0.489583,Eighth,A5
1787,Left,1,64,80,555.5,0.489583,Eighth,E4
1789,Right,0,75,80,556.0,0.489583,Eighth,D#5
1790,Left,1,52,80,556.0,0.489583,Eighth,E3
1791,Left,1,64,80,556.5,0.489583,Eighth,E4
1792,Right,0,76,80,556.5,0.489583,Eighth,E5
1793,Left,1,57,80,557.0,0.489583,Eighth,C4_A3
1794,Right,0,76,80,557.0,0.489583,Eighth,E5
1797,Left,1,64,80,557.5,0.489583,Eighth,E4
1796,Right,0,72,80,557.5,0.489583,Eighth,C5
1799,Left,1,52,80,558.0,0.489583,Eighth,E3
1798,Right,0,72,80,558.0,0.489583,Eighth,C5
1800,Left,1,64,80,558.5,0.489583,Eighth,E4
1801,Right,0,71,80,558.5,0.489583,Eighth,B4
1803,Left,1,57,80,559.0,0.489583,Eighth,C4_A3
1802,Right,0,71,80,559.0,0.489583,Eighth,B4
1806,Left,1,64,80,559.5,0.489583,Eighth,E4
1805,Right,0,69,80,559.5,0.489583,Eighth,A4
1808,Left,1,52,80,560.0,0.489583,Eighth,E3
1807,Right,0,69,80,560.0,0.489583,Eighth,A4
1809,Right,0,68,80,560.5,0.489583,Eighth,G#4
1810,Left,1,64,80,560.5,0.489583,Eighth,E4
1811,Right,0,71,80,561.0,0.989583,Quarter,B4
1812,Left,1,59,80,561.0,0.489583,Eighth,D4_B3
1814,Left,1,64,80,561.5,0.489583,Eighth,E4
1815,Left,1,65,80,562.0,0.489583,Eighth,F4
1816,Left,1,64,80,562.5,0.489583,Eighth,E4
1819,Right,0,89,90,563.0,0.489583,Eighth,F6
1817,Left,1,59,80,563.0,0.489583,Eighth,D4_B3
1820,Left,1,64,81,563.5,0.489583,Eighth,E4
1821,Right,0,86,91,563.5,0.489583,Eighth,D6
1822,Left,1,52,83,564.0,0.489583,Eighth,E3
1823,Right,0,85,93,564.0,0.489583,Eighth,C#6
1824,Left,1,64,85,564.5,0.489583,Eighth,E4
1825,Right,0,86,95,564.5,0.489583,Eighth,D6
1826,Left,1,59,87,565.0,0.489583,Eighth,D4_B3
1828,Right,0,83,97,565.0,0.989583,Quarter,B5
1829,Left,1,64,88,565.5,0.489583,Eighth,E4
1830,Left,1,65,90,566.0,0.489583,Eighth,F4
1831,Left,1,64,92,566.5,0.489583,Eighth,E4
1834,Right,0,89,104,567.0,0.489583,Eighth,F6
1832,Left,1,59,94,567.0,0.489583,Eighth,D4_B3
1836,Left,1,64,95,567.5,0.489583,Eighth,E4
1835,Right,0,86,105,567.5,0.489583,Eighth,D6
1838,Left,1,52,97,568.0,0.489583,Eighth,E3
1837,Right,0,85,107,568.0,0.489583,Eighth,C#6
1840,Left,1,64,99,568.5,0.489583,Eighth,E4
1839,Right,0,86,109,568.5,0.489583,Eighth,D6
1843,Right,0,83,111,569.0,0.989583,Quarter,B5
1841,Left,1,62,101,569.0,0.489583,Eighth,D4_B3
1844,Left,1,64,102,569.5,0.489583,Eighth,E4
1845,Left,1,65,104,570.0,0.489583,Eighth,F4
1846,Left,1,64,106,570.5,0.489583,Eighth,E4
1848,Left,1,59,108,571.0,0.489583,Eighth,D4_B3
1847,Right,0,89,118,571.0,0.489583,Eighth,F6
1851,Right,0,86,119,571.5,0.489583,Eighth,D6
1850,Left,1,64,109,571.5,0.489583,Eighth,E4
1853,Left,1,62,110,572.0,0.989583,Quarter,E3_D4_B3
1852,Right,0,83,120,572.0,0.489583,Eighth,B5
1856,Right,0,86,120,572.5,0.489583,Eighth,D6
1857,Right,0,80,120,573.0,0.489583,Eighth,G#5
1858,Right,0,83,120,573.5,0.489583,Eighth,B5
1859,Right,0,77,120,574.0,0.489583,Eighth,F5
1860,Right,0,80,120,574.5,0.489583,Eighth,G#5
1861,Right,0,74,120,575.0,0.489583,Eighth,D5
1862,Right,0,77,120,575.5,0.489583,Eighth,F5
1863,Right,0,71,120,576.0,0.489583,Eighth,B4
1864,Right,0,74,120,576.5,0.489583,Eighth,D5
1865,Right,0,68,120,577.0,0.489583,Eighth,G#4
1866,Right,0,71,120,577.5,0.489583,Eighth,B4
1867,Right,0,65,120,578.0,0.489583,Eighth,F4
1868,Right,0,68,120,578.5,0.489583,Eighth,G#4
1869,Right,0,62,120,579.0,0.489583,Eighth,D4
1870,Right,0,65,120,579.5,0.489583,Eighth,F4
1871,Right,0,59,120,580.0,0.489583,Eighth,B3
1872,Right,0,62,120,580.5,0.489583,Eighth,D4
1873,Right,0,56,120,581.0,0.489583,Eighth,G#3
1874,Left,1,44,110,581.0,0.489583,Eighth,G#2
1875,Right,0,59,120,581.5,0.489583,Eighth,B3
1876,Left,1,47,110,581.5,0.489583,Eighth,B2
1878,Right,0,50,120,582.0,0.489583,Eighth,D3
1877,Left,1,38,110,582.0,0.489583,Eighth,D2
1880,Right,0,59,120,582.5,0.489583,Eighth,B3
1879,Left,1,47,110,582.5,0.489583,Eighth,B2
1881,Right,0,56,120,583.0,0.489583,Eighth,G#3
1882,Left,1,44,110,583.0,0.489583,Eighth,G#2
1883,Right,0,50,120,583.5,0.489583,Eighth,D3
1884,Left,1,38,110,583.5,0.489583,Eighth,D2
1886,Left,1,36,110,584.0,0.989583,Quarter,C2
1885,Right,0,48,110,584.0,0.989583,Quarter,C3
1890,Right,0,52,110,585.0,0.989583,Quarter,E3_C3_A3
1887,Left,1,45,110,585.0,0.989583,Quarter,E2_C2_A2
1893,Left,1,41,110,586.0,5.989583,Unknown,F2_D2_A#2
1894,Right,0,50,110,586.0,5.989583,Unknown,F3_D3_A#3
1899,Right,0,57,110,590.0,0.989583,Quarter,A3
1900,Left,1,45,110,590.0,0.989583,Quarter,A2
1901,Left,1,44,110,591.0,0.989583,Quarter,G#2
1902,Right,0,56,110,591.0,0.989583,Quarter,G#3
1905,Left,1,45,110,592.0,0.989583,Quarter,E2_C2_A2
1903,Right,0,52,110,592.0,0.989583,Quarter,E3_C3_A3
1911,Right,0,69,110,593.0,0.989583,Quarter,E4_C4_A4
1909,Left,1,48,110,593.0,0.989583,Quarter,E3_C3_A3
1918,Right,0,65,110,594.0,5.989583,Unknown,F4_D4_A#4
1915,Left,1,58,110,594.0,5.989583,Unknown,F3_D3_A#3
1922,Right,0,69,110,598.0,0.989583,Quarter,A4
1921,Left,1,57,110,598.0,0.989583,Quarter,A3
1924,Left,1,56,110,599.0,0.989583,Quarter,G#3
1923,Right,0,68,110,599.0,0.989583,Quarter,G#4
1925,Left,1,48,110,600.0,0.989583,Quarter,E3_C3_A3
1927,Right,0,69,110,600.0,0.989583,Quarter,E4_C4_A4
1932,Right,0,81,110,601.0,0.989583,Quarter,A5_A4
1931,Left,1,64,110,601.0,0.989583,Quarter,E4_C4
1937,Right,0,70,110,602.0,2.989583,DottedHalf,A#5_A#4
1935,Left,1,62,110,602.0,2.989583,DottedHalf,F4_D4
1939,Right,0,71,110,605.0,0.989583,Quarter,B5_B4
1940,Left,1,63,110,605.0,0.989583,Quarter,F#4_D#4
1943,Right,0,72,110,606.0,2.989583,DottedHalf,C6_C5
1944,Left,1,64,110,606.0,2.989583,DottedHalf,E4_A4
1947,Left,1,64,110,609.0,3.989583,Quarter,E4_A4
1949,Right,0,73,110,609.0,0.989583,Quarter,C#6_C#5
1951,Right,0,74,101,610.0,0.989583,Quarter,D6_D5
1953,Left,1,65,101,610.0,0.989583,Quarter,F4
1955,Right,0,76,91,611.0,0.989583,Quarter,E6_E5
1954,Left,1,61,91,611.0,0.989583,Quarter,C#4
1958,Right,0,77,81,612.0,0.989583,Quarter,F6_F5
1957,Left,1,62,81,612.0,0.989583,Quarter,D4
1963,Right,0,77,80,613.0,1.989583,Half,F5_F4
1960,Left,1,50,80,613.0,0.989583,Quarter,D4_D3_A#3
1965,Left,1,60,80,614.0,1.989583,Quarter,E3_C4_A3
1970,Right,0,76,80,615.0,0.989583,Quarter,E5_E4
1968,Left,1,59,80,615.0,0.989583,Quarter,G#3_B3
1974,Right,0,69,110,616.0,0.989583,Quarter,A4
1972,Left,1,45,110,616.0,0.989583,Quarter,A3_A2
1975,Left,1,33,110,617.0,0.989583,Quarter,A1
1976,Left,1,34,110,618.0,3.989583,Whole,A#1
1977,Right,0,61,110,619.0,0.989583,Quarter,E4_C#4
1979,Right,0,65,110,620.0,0.989583,Quarter,F4_D4
1981,Right,0,74,110,621.0,1.989583,Half,F4_D5
1983,Left,1,33,110,622.0,0.989583,Quarter,A1
1984,Right,0,65,110,623.0,0.989583,Quarter,F4_D5
1985,Left,1,32,110,623.0,0.989583,Quarter,G#1
1988,Right,0,73,110,624.0,0.989583,Quarter,E4_C#5
1987,Left,1,33,110,624.0,0.989583,Quarter,A1
1990,Left,1,33,110,625.0,0.989583,Quarter,A1
1991,Left,1,34,110,626.0,3.989583,Whole,A#1
1992,Right,0,61,110,627.0,0.989583,Quarter,E4_C#4
1994,Right,0,65,110,628.0,0.989583,Quarter,F4_D4
1996,Right,0,77,110,629.0,1.989583,Half,F5_D5
1998,Left,1,33,110,630.0,0.989583,Quarter,A1
1999,Left,1,32,110,631.0,0.989583,Quarter,G#1
2000,Right,0,74,110,631.0,0.989583,Quarter,F5_D5
2002,Left,1,33,110,632.0,0.989583,Quarter,A1
2003,Right,0,73,110,632.0,0.989583,Quarter,E5_C#5
2005,Left,1,33,110,633.0,0.989583,Quarter,A1
2006,Left,1,34,110,634.0,3.989583,Whole,A#1
2007,Right,0,64,110,635.0,0.989583,Quarter,E4_C#4
2009,Right,0,65,110,636.0,0.989583,Quarter,F4_D4
2011,Right,0,77,110,637.0,1.989583,Half,F5_D5
2013,Left,1,33,110,638.0,0.989583,Quarter,A1
2015,Right,0,86,110,639.0,1.989583,Half,F6_D6
2014,Left,1,32,110,639.0,0.989583,Quarter,G#1
2017,Left,1,31,80,640.0,0.489583,Eighth,G1
2018,Left,1,30,80,640.5,0.489583,Eighth,F#1
2019,Left,1,31,80,641.0,0.489583,Eighth,G1
2020,Left,1,33,80,641.5,0.489583,Eighth,A1
2021,Left,1,35,80,642.0,0.489583,Eighth,B1
2022,Left,1,31,80,642.5,0.489583,Eighth,G1
2024,Right,0,74,80,643.0,0.989583,Quarter,F5_D5
2023,Left,1,33,80,643.0,0.489583,Eighth,A1
2026,Left,1,35,80,643.5,0.489583,Eighth,B1
2027,Left,1,36,80,644.0,0.489583,Eighth,C2
2028,Right,0,72,80,644.0,0.989583,Quarter,E5_C5
2030,Left,1,35,80,644.5,0.489583,Eighth,B1
2031,Left,1,36,80,645.0,0.489583,Eighth,C2
2032,Left,1,38,80,645.5,0.489583,Eighth,D2
2033,Left,1,40,80,646.0,0.489583,Eighth,E2
2034,Left,1,39,80,646.5,0.489583,Eighth,D#2
2036,Left,1,40,80,647.0,0.489583,Eighth,E2
2035,Right,0,84,80,647.0,0.989583,Quarter,E6_C6
2038,Left,1,39,80,647.5,0.489583,Eighth,D#2
2041,Left,1,40,80,648.0,0.489583,Eighth,E2
2039,Right,0,86,80,648.0,0.989583,Quarter,D6_B5
2042,Left,1,39,80,648.5,0.489583,Eighth,D#2
2043,Left,1,40,80,649.0,0.489583,Eighth,E2
2044,Left,1,42,80,649.5,0.489583,Eighth,F#2
2045,Left,1,44,80,650.0,0.489583,Eighth,G#2
2046,Left,1,40,80,650.5,0.489583,Eighth,E2
2047,Right,0,74,80,651.0,0.989583,Quarter,D5_B4
2049,Left,1,42,80,651.0,0.489583,Eighth,F#2
2050,Left,1,44,80,651.5,0.489583,Eighth,G#2
2052,Right,0,72,80,652.0,0.989583,Quarter,C5_A4
2051,Left,1,45,80,652.0,0.489583,Eighth,A2
2054,Left,1,44,80,652.5,0.489583,Eighth,G#2
2055,Left,1,45,80,653.0,0.489583,Eighth,A2
2056,Left,1,47,80,653.5,0.489583,Eighth,B2
2057,Left,1,48,80,654.0,0.489583,Eighth,C3
2058,Left,1,45,81,654.5,0.489583,Eighth,A2
2060,Right,0,84,80,655.0,1.989583,Quarter,C6_A5
2059,Left,1,47,82,655.0,0.489583,Eighth,B2
2062,Left,1,48,83,655.5,0.489583,Eighth,C3
2063,Right,0,83,85,656.0,0.989583,Quarter,B5
2064,Left,1,50,84,656.0,0.489583,Eighth,D3
2065,Left,1,49,85,656.5,0.489583,Eighth,C#3
2066,Left,1,50,86,657.0,0.489583,Eighth,D3
2067,Left,1,52,87,657.5,0.489583,Eighth,E3
2068,Left,1,53,88,658.0,0.489583,Eighth,F3
2069,Left,1,50,89,658.5,0.489583,Eighth,D3
2072,Left,1,52,90,659.0,0.489583,Eighth,E3
2070,Right,0,71,103,659.0,1.989583,Half,B4_A4
2073,Left,1,53,91,659.5,0.489583,Eighth,F3
2075,Left,1,52,92,660.0,0.489583,Eighth,E3
2074,Right,0,68,109,660.0,0.989583,Quarter,G#4
2076,Left,1,63,93,660.5,0.489583,Eighth,D#4
2077,Left,1,64,94,661.0,0.489583,Eighth,E4
2078,Left,1,63,95,661.5,0.489583,Eighth,D#4
2079,Left,1,64,96,662.0,0.489583,Eighth,E4
2080,Left,1,63,97,662.5,0.489583,Eighth,D#4
2082,Right,0,71,98,663.0,0.989583,Quarter,G#5_B4
2081,Left,1,64,98,663.0,0.489583,Eighth,E4
2084,Left,1,52,99,663.5,0.489583,Eighth,E3
2085,Left,1,64,80,664.0,7.989583,Half,E4_E3_C4
2087,Right,0,81,80,664.0,0.489583,Eighth,A5
2089,Right,0,76,80,664.5,0.489583,Eighth,E5
2090,Right,0,72,80,665.0,0.489583,Eighth,C5
2091,Right,0,84,80,665.5,0.489583,Eighth,C6
2093,Left,1,62,80,666.0,1.989583,Half,D4_B3
2092,Right,0,83,80,666.0,0.489583,Eighth,B5
2095,Right,0,80,80,666.5,0.489583,Eighth,G#5
2096,Right,0,76,80,667.0,0.489583,Eighth,E5
2097,Right,0,86,80,667.5,0.489583,Eighth,D6
2098,Right,0,84,80,668.0,0.489583,Eighth,C6
2099,Left,1,57,80,668.0,1.989583,Half,C4_A3
2101,Right,0,81,80,668.5,0.489583,Eighth,A5
2102,Right,0,76,80,669.0,0.489583,Eighth,E5
2103,Right,0,88,80,669.5,0.489583,Eighth,E6
2106,Right,0,87,80,670.0,0.489583,Eighth,D#6
2104,Left,1,56,80,670.0,1.989583,Half,G#3_B3
2107,Right,0,88,80,670.5,0.489583,Eighth,E6
2108,Right,0,87,80,671.0,0.489583,Eighth,D#6
2109,Right,0,88,80,671.5,0.489583,Eighth,E6
2110,Left,1,57,80,672.0,0.489583,Eighth,A3
2111,Right,0,84,80,672.0,1.989583,Half,E6_E5_C6
2114,Left,1,52,80,672.5,0.489583,Eighth,E3
2115,Left,1,48,80,673.0,0.489583,Eighth,C3
2116,Left,1,60,80,673.5,0.489583,Eighth,C4
2117,Left,1,59,80,674.0,0.489583,Eighth,B3
2118,Right,0,86,80,674.0,1.989583,Half,D6_D5_B5
2121,Left,1,56,80,674.5,0.489583,Eighth,G#3
2122,Left,1,52,80,675.0,0.489583,Eighth,E3
2123,Left,1,62,80,675.5,0.489583,Eighth,D4
2125,Right,0,72,80,676.0,1.989583,Half,C6_C5_A5
2124,Left,1,60,80,676.0,0.489583,Eighth,C4
2128,Left,1,57,80,676.5,0.489583,Eighth,A3
2129,Left,1,52,80,677.0,0.489583,Eighth,E3
2130,Left,1,64,80,677.5,0.489583,Eighth,E4
2131,Right,0,83,80,678.0,1.989583,Half,G#5_B5_B4
2133,Left,1,63,80,678.0,0.489583,Eighth,D#4
2135,Left,1,64,80,678.5,0.489583,Eighth,E4
2136,Left,1,63,80,679.0,0.489583,Eighth,D#4
2137,Left,1,64,80,679.5,0.489583,Eighth,E4
2139,Right,0,81,80,680.0,0.489583,Eighth,A5
2138,Left,1,52,80,680.0,1.989583,Half,E3
2140,Right,0,76,80,680.5,0.489583,Eighth,E5
2143,Right,0,72,80,681.0,0.489583,Eighth,C5
2141,Left,1,64,80,681.0,1.989583,Half,E4_C4
2144,Right,0,84,80,681.5,0.489583,Eighth,C6
2145,Right,0,83,80,682.0,0.489583,Eighth,B5
2146,Left,1,52,80,682.0,1.989583,Half,E3
2147,Right,0,80,80,682.5,0.489583,Eighth,G#5
2148,Right,0,76,80,683.0,0.489583,Eighth,E5
2149,Left,1,59,80,683.0,1.989583,Half,D4_B3
2151,Right,0,86,80,683.5,0.489583,Eighth,D6
2152,Right,0,84,80,684.0,0.489583,Eighth,C6
2153,Left,1,52,80,684.0,1.989583,Half,E3
2154,Right,0,81,80,684.5,0.489583,Eighth,A5
2155,Right,0,76,80,685.0,0.489583,Eighth,E5
2156,Left,1,60,80,685.0,1.989583,Half,C4_A3
2158,Right,0,88,80,685.5,0.489583,Eighth,E6
2159,Left,1,52,80,686.0,1.989583,Half,E3
2160,Right,0,87,80,686.0,0.489583,Eighth,D#6
2161,Right,0,88,80,686.5,0.489583,Eighth,E6
2162,Left,1,56,80,687.0,0.989583,Quarter,G#3_B3
2164,Right,0,87,80,687.0,0.489583,Eighth,D#6
2165,Right,0,88,80,687.5,0.489583,Eighth,E6
2167,Right,0,76,80,688.0,2.989583,DottedHalf,E5
2166,Left,1,57,80,688.0,0.489583,Eighth,A3
2168,Left,1,52,80,688.5,0.489583,Eighth,E3
2170,Left,1,48,80,689.0,0.489583,Eighth,C3
2169,Right,0,88,80,689.0,1.989583,Half,E6_C6
2172,Left,1,60,80,689.5,0.489583,Eighth,C4
2173,Left,1,59,80,690.0,0.489583,Eighth,B3
2174,Left,1,56,80,690.5,0.489583,Eighth,G#3
2178,Left,1,52,80,691.0,0.489583,Eighth,E3
2175,Right,0,83,80,691.0,1.989583,Half,D6_D5_B5
2179,Left,1,62,80,691.5,0.489583,Eighth,D4
2180,Left,1,60,80,692.0,0.489583,Eighth,C4
2181,Left,1,57,80,692.5,0.489583,Eighth,A3
2182,Right,0,81,80,693.0,1.989583,Half,C6_C5_A5
2184,Left,1,52,80,693.0,0.489583,Eighth,E3
2186,Left,1,64,80,693.5,0.489583,Eighth,E4
2187,Left,1,63,80,694.0,0.489583,Eighth,D#4
2188,Left,1,64,80,694.5,0.489583,Eighth,E4
2192,Left,1,63,80,695.0,0.489583,Eighth,D#4
2189,Right,0,83,80,695.0,0.989583,Quarter,G#5_B5_B4
2193,Left,1,64,80,695.5,0.489583,Eighth,E4
2194,Left,1,52,80,696.0,1.989583,Half,E3
2195,Right,0,81,80,696.0,0.489583,Eighth,A5
2196,Right,0,76,80,696.5,0.489583,Eighth,E5
2199,Right,0,72,80,697.0,0.489583,Eighth,C5
2197,Left,1,60,80,697.0,1.989583,Half,E4_C4
2200,Right,0,84,80,697.5,0.489583,Eighth,C6
2201,Right,0,83,80,698.0,0.489583,Eighth,B5
2202,Left,1,52,80,698.0,1.989583,Half,E3
2203,Right,0,80,80,698.5,0.489583,Eighth,G#5
2205,Left,1,62,80,699.0,1.989583,Half,D4_B3
2204,Right,0,76,80,699.0,0.489583,Eighth,E5
2207,Right,0,86,80,699.5,0.489583,Eighth,D6
2208,Left,1,52,80,700.0,1.989583,Half,E3
2209,Right,0,84,80,700.0,0.489583,Eighth,C6
2210,Right,0,81,80,700.5,0.489583,Eighth,A5
2211,Right,0,76,80,701.0,0.489583,Eighth,E5
2212,Left,1,60,80,701.0,1.989583,Half,C4_A3
2214,Right,0,88,80,701.5,0.489583,Eighth,E6
2216,Left,1,52,80,702.0,1.989583,Half,E3
2215,Right,0,87,80,702.0,0.489583,Eighth,D#6
2217,Right,0,88,80,702.5,0.489583,Eighth,E6
2219,Left,1,56,80,703.0,0.989583,Quarter,G#3_B3
2218,Right,0,87,80,703.0,0.489583,Eighth,D#6
2221,Right,0,88,80,703.5,0.489583,Eighth,E6
2223,Left,1,45,80,704.0,1.989583,Half,A2
2222,Right,0,84,80,704.0,0.489583,Eighth,C6
2224,Right,0,81,80,704.5,0.489583,Eighth,A5
2226,Left,1,57,80,705.0,0.989583,Quarter,A3
2225,Right,0,76,80,705.0,0.489583,Eighth,E5
2227,Right,0,88,80,705.5,0.489583,Eighth,E6
2229,Left,1,52,80,706.0,1.989583,Half,E3
2228,Right,0,87,80,706.0,0.489583,Eighth,D#6
2230,Right,0,88,80,706.5,0.489583,Eighth,E6
2231,Right,0,87,80,707.0,0.489583,Eighth,D#6
2232,Left,1,59,80,707.0,0.989583,Quarter,G#3_B3
2234,Right,0,88,80,707.5,0.489583,Eighth,E6
2236,Right,0,84,80,708.0,0.489583,Eighth,C6
2235,Left,1,57,80,708.0,1.989583,Half,A3
2237,Right,0,81,80,708.5,0.489583,Eighth,A5
2239,Right,0,76,80,709.0,0.489583,Eighth,E5
2238,Left,1,60,80,709.0,0.989583,Quarter,C4
2240,Right,0,88,80,709.5,0.489583,Eighth,E6
2242,Left,1,52,80,710.0,1.989583,Half,E3
2241,Right,0,87,80,710.0,0.489583,Eighth,D#6
2243,Right,0,88,80,710.5,0.489583,Eighth,E6
2244,Left,1,59,80,711.0,0.989583,Quarter,G#3_B3
2246,Right,0,87,80,711.0,0.489583,Eighth,D#6
2247,Right,0,88,80,711.5,0.489583,Eighth,E6
2249,Left,1,45,80,712.0,0.989583,Quarter,A3_A2
2248,Right,0,81,80,712.0,0.989583,Quarter,A5
2252,Left,1,45,80,714.0,1.989583,Half,A2_A1
2251,Right,0,57,80,714.0,1.989583,Half,A3
2255,Left,1,45,80,716.0,1.989583,Half,A2_A1
2254,Right,0,57,80,716.0,1.989583,Half,A3
2258,Left,1,45,80,718.0,1.989583,Half,A2_A1
2257,Right,0,57,80,718.0,1.989583,Half,A3
2260,Left,1,33,80,720.0,7.989583,Unknown,A2_A1
2262,Right,0,57,80,720.0,7.989583,Unknown,A3
2264,Left,1,31,80,728.0,7.989583,Unknown,G2_G1
2263,Right,0,55,80,728.0,7.989583,Unknown,G3
2266,Left,1,30,70,736.0,6.989583,Unknown,F#1
2267,Left,1,33,70,736.0625,6.927083,Unknown,A1
2268,Left,1,38,70,736.125,0.1875,TripletSixteenth,D2
2269,Left,1,42,70,736.1875,0.177083,TripletSixteenth,F#2
2270,Left,1,45,70,736.25,0.166667,TripletSixteenth,A2
2271,Left,1,50,70,736.3125,0.1875,TripletSixteenth,D3
2272,Left,1,54,70,736.375,0.177083,TripletSixteenth,F#3
2273,Left,1,57,70,736.4375,2.552083,DottedHalf,A3
2274,Right,0,62,70,736.5,2.489583,Half,D4
2275,Right,0,66,70,738.0,2.989583,DottedHalf,F#4
2276,Right,0,69,70,739.0,3.989583,Whole,A4
2277,Right,0,74,70,740.0,2.989583,DottedHalf,D5
2278,Left,1,36,70,744.0,6.989583,Unknown,C2
2279,Left,1,39,70,744.0625,6.927083,Unknown,D#2
2280,Left,1,42,70,744.125,0.135417,ThirtySecond,F#2
2281,Left,1,45,70,744.1875,0.15625,TripletSixteenth,A2
2282,Left,1,48,70,744.25,0.166667,TripletSixteenth,C3
2283,Left,1,51,70,744.3125,0.15625,TripletSixteenth,D#3
2284,Left,1,54,70,744.375,0.15625,TripletSixteenth,F#3
2285,Left,1,57,70,744.4375,0.166667,TripletSixteenth,A3
2286,Left,1,60,70,744.5,0.166667,TripletSixteenth,C4
2287,Left,1,63,70,744.5625,1.135417,TiedQuarter-ThirtySecond,D#4
2288,Right,0,66,70,744.625,6.364583,Unknown,F#4
2289,Right,0,69,70,746.0,4.989583,Unknown,A4
2290,Right,0,75,70,747.0,3.989583,Whole,D#5
2291,Right,0,78,70,748.0,2.989583,DottedHalf,F#5
2292,Left,1,37,70,752.0,7.989583,Unknown,C#2
2293,Left,1,42,70,752.0625,7.927083,Unknown,F#2
2294,Left,1,46,70,752.125,0.135417,ThirtySecond,A#2
2295,Left,1,49,70,752.1875,0.135417,ThirtySecond,C#3
2296,Left,1,54,70,752.25,0.15625,TripletSixteenth,F#3
2297,Left,1,58,70,752.3125,0.15625,TripletSixteenth,A#3
2298,Left,1,61,70,752.375,0.145833,TripletSixteenth,C#4
2299,Left,1,66,70,752.4375,1.052083,Quarter,F#4
2300,Right,0,70,70,752.5,7.489583,Unknown,A#4
2301,Right,0,73,70,754.0,5.989583,Unknown,C#5
2302,Right,0,78,70,755.0,4.989583,Unknown,F#5
2303,Right,0,82,70,756.0,3.989583,Whole,A#5
2304,Right,0,54,100,760.0,0.520833,Eighth,F#3_A3
2305,Left,1,30,120,760.0,1.989583,Half,F#1
2307,Right,0,61,100,760.333333,0.5625,Eighth,C#4
2308,Right,0,57,100,760.666667,0.5625,Eighth,F#3_A3
2310,Right,0,61,100,761.0,0.604167,Eighth,C#4
2311,Right,0,54,100,761.333333,0.59375,Eighth,F#3_A3
2313,Right,0,61,100,761.666667,0.583333,Eighth,C#4
2315,Right,0,54,100,762.0,0.520833,Eighth,F#3_A3
2314,Left,1,33,120,762.0,0.989583,Quarter,A1
2317,Right,0,61,100,762.333333,0.5625,Eighth,C#4
2318,Right,0,57,100,762.666667,0.5625,Eighth,F#3_A3
2321,Right,0,61,100,763.0,0.604167,Eighth,C#4
2320,Left,1,37,120,763.0,0.989583,Quarter,C#2
2322,Right,0,57,100,763.333333,0.59375,Eighth,F#3_A3
2324,Right,0,61,100,763.666667,0.583333,Eighth,C#4
2326,Right,0,57,98,764.0,0.520833,Eighth,F#3_A3
2325,Left,1,42,120,764.0,1.989583,Half,F#2
2328,Right,0,61,96,764.333333,0.5625,Eighth,C#4
2329,Right,0,57,93,764.666667,0.5625,Eighth,F#3_A3
2331,Right,0,61,91,765.0,0.604167,Eighth,C#4
2332,Right,0,57,88,765.333333,0.59375,Eighth,F#3_A3
2334,Right,0,61,86,765.666667,0.583333,Eighth,C#4
2335,Right,0,57,83,766.0,0.520833,Eighth,F#3_A3
2337,Right,0,61,80,766.333333,0.5625,Eighth,C#4
2338,Right,0,57,80,766.666667,0.5625,Eighth,F#3_A3
2340,Right,0,61,80,767.0,0.604167,Eighth,C#4
2341,Left,1,73,110,767.0,0.989583,Quarter,C#5
2342,Right,0,57,80,767.333333,0.59375,Eighth,F#3_A3
2344,Right,0,61,80,767.666667,0.583333,Eighth,C#4
2345,Right,0,54,80,768.0,0.520833,Eighth,F#3_A3
2347,Left,1,72,110,768.0,0.989583,Quarter,C5
2348,Right,0,61,80,768.333333,0.5625,Eighth,C#4
2349,Right,0,54,80,768.666667,0.5625,Eighth,F#3_A3
2351,Right,0,61,80,769.0,0.604167,Eighth,C#4
2352,Left,1,73,110,769.0,0.989583,Quarter,C#5
2353,Right,0,54,80,769.333333,0.59375,Eighth,F#3_A3
2355,Right,0,61,80,769.666667,0.583333,Eighth,C#4
2357,Left,1,74,110,770.0,0.989583,Quarter,D5
2356,Right,0,54,80,770.0,0.520833,Eighth,F#3_A3
2359,Right,0,61,80,770.333333,0.5625,Eighth,C#4
2360,Right,0,57,80,770.666667,0.5625,Eighth,F#3_A3
2362,Left,1,73,110,771.0,0.989583,Quarter,C#5
2363,Right,0,61,80,771.0,0.604167,Eighth,C#4
2364,Right,0,57,80,771.333333,0.59375,Eighth,F#3_A3
2366,Right,0,61,80,771.666667,0.583333,Eighth,C#4
2369,Left,1,73,110,772.0,1.989583,Half,C#5
2367,Right,0,57,80,772.0,0.520833,Eighth,F#3_A3
2370,Right,0,61,80,772.333333,0.5625,Eighth,C#4
2371,Right,0,54,80,772.666667,0.5625,Eighth,F#3_A3
2373,Right,0,61,80,773.0,0.604167,Eighth,C#4
2374,Right,0,54,80,773.333333,0.59375,Eighth,F#3_A3
2376,Right,0,61,80,773.666667,0.583333,Eighth,C#4
2379,Left,1,73,110,774.0,1.989583,Half,C#5
2377,Right,0,54,80,774.0,0.520833,Eighth,F#3_A3
2380,Right,0,61,80,774.333333,0.5625,Eighth,C#4
2381,Right,0,54,80,774.666667,0.5625,Eighth,F#3_A3
2383,Right,0,61,80,775.0,0.604167,Eighth,C#4
2384,Right,0,54,80,775.333333,0.59375,Eighth,F#3_A3
2386,Right,0,61,80,775.666667,0.322917,Triplet,C#4
2387,Right,0,53,100,776.0,0.552083,Eighth,F3_B3
2389,Left,1,32,120,776.0,1.989583,Half,G#1
2390,Right,0,61,100,776.333333,0.59375,Eighth,C#4
2391,Right,0,59,100,776.666667,0.614583,Eighth,F3_B3
2393,Right,0,61,100,777.0,0.614583,Eighth,C#4
2394,Right,0,53,100,777.333333,0.583333,Eighth,F3_B3
2396,Right,0,61,100,777.666667,0.541667,Eighth,C#4
2397,Left,1,35,120,778.0,0.989583,Quarter,B1
2398,Right,0,53,100,778.0,0.552083,Eighth,F3_B3
2400,Right,0,61,100,778.333333,0.59375,Eighth,C#4
2401,Right,0,53,100,778.666667,0.614583,Eighth,F3_B3
2403,Right,0,61,100,779.0,0.614583,Eighth,C#4
2404,Left,1,41,120,779.0,0.989583,Quarter,F2
2405,Right,0,59,100,779.333333,0.583333,Eighth,F3_B3
2407,Right,0,61,100,779.666667,0.541667,Eighth,C#4
2408,Left,1,44,120,780.0,1.989583,Half,G#2
2409,Right,0,59,100,780.0,0.552083,Eighth,F3_B3
2411,Right,0,61,97,780.333333,0.59375,Eighth,C#4
2412,Right,0,53,93,780.666667,0.614583,Eighth,F3_B3
2414,Right,0,61,89,781.0,0.614583,Eighth,C#4
2415,Right,0,59,85,781.333333,0.583333,Eighth,F3_B3
2417,Right,0,61,81,781.666667,0.541667,Eighth,C#4
2418,Right,0,59,80,782.0,0.552083,Eighth,F3_B3
2420,Right,0,61,80,782.333333,0.59375,Eighth,C#4
2421,Right,0,59,80,782.666667,0.614583,Eighth,F3_B3
2423,Right,0,61,80,783.0,0.614583,Eighth,C#4
2424,Left,1,73,110,783.0,0.989583,Quarter,C#5
2425,Right,0,53,80,783.333333,0.583333,Eighth,F3_B3
2427,Right,0,61,80,783.666667,0.541667,Eighth,C#4
2428,Left,1,72,110,784.0,0.989583,Quarter,C5
2429,Right,0,53,80,784.0,0.552083,Eighth,F3_B3
2431,Right,0,61,80,784.333333,0.59375,Eighth,C#4
2432,Right,0,59,80,784.666667,0.614583,Eighth,F3_B3
2434,Right,0,61,80,785.0,0.614583,Eighth,C#4
2435,Left,1,73,110,785.0,0.989583,Quarter,C#5
2436,Right,0,53,80,785.333333,0.583333,Eighth,F3_B3
2438,Right,0,61,80,785.666667,0.541667,Eighth,C#4
2439,Right,0,53,80,786.0,0.552083,Eighth,F3_B3
2440,Left,1,74,110,786.0,0.989583,Quarter,D5
2442,Right,0,61,80,786.333333,0.59375,Eighth,C#4
2443,Right,0,53,80,786.666667,0.614583,Eighth,F3_B3
2445,Left,1,73,110,787.0,0.989583,Quarter,C#5
2446,Right,0,61,80,787.0,0.614583,Eighth,C#4
2447,Right,0,53,80,787.333333,0.583333,Eighth,F3_B3
2449,Right,0,61,80,787.666667,0.541667,Eighth,C#4
2451,Left,1,73,110,788.0,1.989583,Half,C#5
2450,Right,0,53,80,788.0,0.552083,Eighth,F3_B3
2453,Right,0,61,80,788.333333,0.59375,Eighth,C#4
2454,Right,0,59,80,788.666667,0.614583,Eighth,F3_B3
2456,Right,0,61,80,789.0,0.614583,Eighth,C#4
2457,Right,0,53,80,789.333333,0.583333,Eighth,F3_B3
2459,Right,0,61,80,789.666667,0.541667,Eighth,C#4
2460,Left,1,73,110,790.0,1.989583,Half,C#5
2461,Right,0,53,80,790.0,0.552083,Eighth,F3_B3
2463,Right,0,61,80,790.333333,0.59375,Eighth,C#4
2464,Right,0,59,80,790.666667,0.614583,Eighth,F3_B3
2466,Right,0,61,80,791.0,0.614583,Eighth,C#4
2467,Right,0,53,80,791.333333,0.583333,Eighth,F3_B3
2469,Right,0,61,80,791.666667,0.322917,Triplet,C#4
2471,Right,0,54,100,792.0,0.53125,Eighth,F#3
2470,Left,1,33,120,792.0,1.989583,Half,A1
2472,Right,0,57,100,792.333333,0.635417,Eighth,C#4_A3
2474,Right,0,54,100,792.666667,0.541667,Eighth,F#3
2475,Right,0,57,100,793.0,0.583333,Eighth,C#4_A3
2477,Right,0,54,100,793.333333,0.583333,Eighth,F#3
2478,Right,0,61,100,793.666667,0.583333,Eighth,C#4_A3
2481,Left,1,37,120,794.0,0.989583,Quarter,C#2
2480,Right,0,54,100,794.0,0.53125,Eighth,F#3
2482,Right,0,57,100,794.333333,0.635417,Eighth,C#4_A3
2484,Right,0,54,100,794.666667,0.541667,Eighth,F#3
2486,Right,0,61,100,795.0,0.583333,Eighth,C#4_A3
2485,Left,1,42,120,795.0,0.989583,Quarter,F#2
2488,Right,0,54,100,795.333333,0.583333,Eighth,F#3
2489,Right,0,61,100,795.666667,0.583333,Eighth,C#4_A3
2491,Left,1,45,120,796.0,0.989583,Quarter,A2
2492,Right,0,54,100,796.0,0.53125,Eighth,F#3
2493,Right,0,57,100,796.333333,0.635417,Eighth,C#4_A3
2495,Right,0,54,100,796.666667,0.541667,Eighth,F#3
2496,Right,0,61,100,797.0,0.583333,Eighth,C#4_A3
2498,Right,0,54,100,797.333333,0.583333,Eighth,F#3
2499,Right,0,61,100,797.666667,0.583333,Eighth,C#4_A3
2502,Right,0,54,100,798.0,0.53125,Eighth,F#3
2501,Left,1,78,110,798.0,0.989583,Quarter,F#5
2503,Right,0,57,100,798.333333,0.635417,Eighth,C#4_A3
2505,Right,0,54,100,798.666667,0.541667,Eighth,F#3
2506,Right,0,61,100,799.0,0.583333,Eighth,C#4_A3
2508,Right,0,54,100,799.333333,0.583333,Eighth,F#3
2509,Right,0,57,100,799.666667,0.322917,Triplet,C#4_A3
2511,Left,1,35,120,800.0,1.989583,Half,B1
2512,Right,0,54,100,800.0,0.635417,DottedEighth,F#3
2513,Right,0,59,100,800.333333,0.59375,Eighth,D4_B3
2515,Right,0,54,100,800.666667,0.604167,Eighth,F#3
2516,Right,0,59,100,801.0,0.552083,Eighth,D4_B3
2518,Right,0,54,100,801.333333,0.604167,Eighth,F#3
2519,Right,0,59,100,801.666667,0.552083,Eighth,D4_B3
2521,Right,0,54,100,802.0,0.635417,DottedEighth,F#3
2522,Left,1,38,120,802.0,0.989583,Quarter,D2
2523,Right,0,59,100,802.333333,0.59375,Eighth,D4_B3
2525,Right,0,54,100,802.666667,0.604167,Eighth,F#3
2526,Left,1,42,120,803.0,0.989583,Quarter,F#2
2527,Right,0,59,100,803.0,0.552083,Eighth,D4_B3
2529,Right,0,54,100,803.333333,0.604167,Eighth,F#3
2530,Right,0,62,100,803.666667,0.552083,Eighth,D4_B3
2533,Left,1,47,120,804.0,0.989583,Quarter,B2
2532,Right,0,54,100,804.0,0.635417,DottedEighth,F#3
2534,Right,0,59,100,804.333333,0.59375,Eighth,D4_B3
2536,Right,0,54,100,804.666667,0.604167,Eighth,F#3
2537,Right,0,59,100,805.0,0.552083,Eighth,D4_B3
2539,Right,0,54,100,805.333333,0.604167,Eighth,F#3
2540,Right,0,62,100,805.666667,0.552083,Eighth,D4_B3
2542,Left,1,78,120,806.0,0.989583,Quarter,F#5
2543,Right,0,54,100,806.0,0.635417,DottedEighth,F#3
2544,Right,0,62,100,806.333333,0.59375,Eighth,D4_B3
2546,Right,0,54,100,806.666667,0.604167,Eighth,F#3
2547,Right,0,62,100,807.0,0.552083,Eighth,D4_B3
2549,Right,0,54,100,807.333333,0.604167,Eighth,F#3
2550,Right,0,62,100,807.666667,0.322917,Triplet,D4_B3
2552,Left,1,35,120,808.0,1.989583,Half,B1
2553,Right,0,55,100,808.0,0.583333,Eighth,G3
2554,Right,0,62,100,808.333333,0.552083,Eighth,D4_B3
2556,Right,0,55,100,808.666667,0.53125,Eighth,G3
2557,Right,0,62,100,809.0,0.604167,Eighth,D4_B3
2559,Right,0,55,100,809.333333,0.572917,Eighth,G3
2560,Right,0,59,100,809.666667,0.572917,Eighth,D4_B3
2562,Right,0,55,100,810.0,0.583333,Eighth,G3
2563,Left,1,38,120,810.0,0.989583,Quarter,D2
2564,Right,0,59,100,810.333333,0.552083,Eighth,D4_B3
2566,Right,0,55,100,810.666667,0.53125,Eighth,G3
2569,Left,1,43,120,811.0,0.989583,Quarter,G2
2567,Right,0,59,100,811.0,0.604167,Eighth,D4_B3
2570,Right,0,55,100,811.333333,0.572917,Eighth,G3
2571,Right,0,59,100,811.666667,0.572917,Eighth,D4_B3
2574,Left,1,47,120,812.0,1.989583,Half,B2
2573,Right,0,55,100,812.0,0.583333,Eighth,G3
2575,Right,0,62,100,812.333333,0.552083,Eighth,D4_B3
2577,Right,0,55,100,812.666667,0.53125,Eighth,G3
2578,Right,0,59,100,813.0,0.604167,Eighth,D4_B3
2580,Right,0,55,100,813.333333,0.572917,Eighth,G3
2581,Right,0,62,100,813.666667,0.572917,Eighth,D4_B3
2583,Left,1,79,120,814.0,0.989583,Quarter,G5
2584,Right,0,55,100,814.0,0.583333,Eighth,G3
2585,Right,0,59,100,814.333333,0.552083,Eighth,D4_B3
2587,Right,0,55,100,814.666667,0.53125,Eighth,G3
2588,Right,0,62,100,815.0,0.604167,Eighth,D4_B3
2590,Right,0,55,100,815.333333,0.572917,Eighth,G3
2591,Right,0,59,100,815.666667,0.322917,Triplet,D4_B3
2594,Right,0,55,100,816.0,0.552083,Eighth,G3
2593,Left,1,36,120,816.0,1.989583,Half,C2
2595,Right,0,64,100,816.333333,0.635417,Eighth,E4_C4
2597,Right,0,55,100,816.666667,0.552083,Eighth,G3
2598,Right,0,64,100,817.0,0.572917,Eighth,E4_C4
2600,Right,0,55,100,817.333333,0.625,Eighth,G3
2601,Right,0,60,100,817.666667,0.5625,Eighth,E4_C4
2603,Right,0,55,100,818.0,0.552083,Eighth,G3
2604,Left,1,40,120,818.0,0.989583,Quarter,E2
2605,Right,0,64,100,818.333333,0.635417,Eighth,E4_C4
2607,Right,0,55,100,818.666667,0.552083,Eighth,G3
2608,Left,1,43,120,819.0,0.989583,Quarter,G2
2609,Right,0,60,100,819.0,0.572917,Eighth,E4_C4
2611,Right,0,55,100,819.333333,0.625,Eighth,G3
2612,Right,0,60,100,819.666667,0.5625,Eighth,E4_C4
2615,Left,1,48,120,820.0,1.989583,Half,C3
2614,Right,0,55,100,820.0,0.552083,Eighth,G3
2616,Right,0,64,100,820.333333,0.635417,Eighth,E4_C4
2618,Right,0,55,100,820.666667,0.552083,Eighth,G3
2619,Right,0,64,100,821.0,0.572917,Eighth,E4_C4
2621,Right,0,55,100,821.333333,0.625,Eighth,G3
2622,Right,0,64,100,821.666667,0.5625,Eighth,E4_C4
2625,Left,1,79,120,822.0,0.989583,Quarter,G5
2624,Right,0,55,100,822.0,0.552083,Eighth,G3
2626,Right,0,64,100,822.333333,0.635417,Eighth,E4_C4
2628,Right,0,55,100,822.666667,0.552083,Eighth,G3
2629,Right,0,64,100,823.0,0.572917,Eighth,E4_C4
2631,Right,0,55,100,823.333333,0.625,Eighth,G3
2632,Right,0,64,100,823.666667,0.322917,Triplet,E4_C4
2634,Right,0,57,100,824.0,0.572917,Eighth,A3
2635,Left,1,37,120,824.0,1.989583,Half,C#2
2636,Right,0,61,100,824.333333,0.614583,Eighth,E4_C#4
2638,Right,0,57,100,824.666667,0.59375,Eighth,A3
2639,Right,0,64,100,825.0,0.59375,Eighth,E4_C#4
2641,Right,0,57,100,825.333333,0.625,Eighth,A3
2642,Right,0,61,100,825.666667,0.635417,DottedEighth,E4_C#4
2644,Left,1,40,120,826.0,0.989583,Quarter,E2
2645,Right,0,57,100,826.0,0.572917,Eighth,A3
2646,Right,0,64,100,826.333333,0.614583,Eighth,E4_C#4
2648,Right,0,57,100,826.666667,0.59375,Eighth,A3
2649,Left,1,45,120,827.0,0.989583,Quarter,A2
2650,Right,0,64,100,827.0,0.59375,Eighth,E4_C#4
2652,Right,0,57,100,827.333333,0.625,Eighth,A3
2653,Right,0,61,100,827.666667,0.635417,DottedEighth,E4_C#4
2655,Right,0,57,100,828.0,0.572917,Eighth,A3
2656,Left,1,49,120,828.0,1.989583,Half,C#3
2657,Right,0,61,100,828.333333,0.614583,Eighth,E4_C#4
2659,Right,0,57,100,828.666667,0.59375,Eighth,A3
2660,Right,0,61,100,829.0,0.59375,Eighth,E4_C#4
2662,Right,0,57,100,829.333333,0.625,Eighth,A3
2663,Right,0,64,100,829.666667,0.635417,Eighth,E4_C#4
2666,Left,1,81,120,830.0,0.989583,Quarter,A5
2665,Right,0,57,100,830.0,0.572917,Eighth,A3
2667,Right,0,61,100,830.333333,0.614583,Eighth,E4_C#4
2669,Right,0,57,100,830.666667,0.59375,Eighth,A3
2670,Right,0,61,100,831.0,0.59375,Eighth,E4_C#4
2672,Right,0,57,100,831.333333,0.625,Eighth,A3
2673,Right,0,64,100,831.666667,0.322917,Triplet,E4_C#4
2675,Right,0,57,100,832.0,0.552083,Eighth,A3
2676,Left,1,38,120,832.0,1.989583,Half,D2
2677,Right,0,62,100,832.333333,0.552083,Eighth,F4_D4
2679,Right,0,57,100,832.666667,0.572917,Eighth,A3
2680,Right,0,65,100,833.0,0.572917,Eighth,F4_D4
2682,Right,0,57,100,833.333333,0.572917,Eighth,A3
2683,Right,0,65,100,833.666667,0.604167,Eighth,F4_D4
2686,Right,0,57,100,834.0,0.552083,Eighth,A3
2685,Left,1,41,120,834.0,0.989583,Quarter,F2
2687,Right,0,62,100,834.333333,0.552083,Eighth,F4_D4
2689,Right,0,57,100,834.666667,0.572917,Eighth,A3
2691,Right,0,65,100,835.0,0.572917,Eighth,F4_D4
2690,Left,1,45,120,835.0,0.989583,Quarter,A2
2693,Right,0,57,100,835.333333,0.572917,Eighth,A3
2694,Right,0,62,100,835.666667,0.604167,Eighth,F4_D4
2697,Left,1,50,120,836.0,1.989583,Half,D3
2696,Right,0,57,100,836.0,0.552083,Eighth,A3
2698,Right,0,65,100,836.333333,0.552083,Eighth,F4_D4
2700,Right,0,57,100,836.666667,0.572917,Eighth,A3
2701,Right,0,62,100,837.0,0.572917,Eighth,F4_D4
2703,Right,0,57,100,837.333333,0.572917,Eighth,A3
2704,Right,0,65,100,837.666667,0.604167,Eighth,F4_D4
2706,Left,1,81,120,838.0,0.989583,Quarter,A5
2707,Right,0,57,100,838.0,0.552083,Eighth,A3
2708,Right,0,65,100,838.333333,0.552083,Eighth,F4_D4
2710,Right,0,57,100,838.666667,0.572917,Eighth,A3
2711,Right,0,62,100,839.0,0.572917,Eighth,F4_D4
2713,Right,0,57,100,839.333333,0.572917,Eighth,A3
2714,Right,0,62,100,839.666667,0.322917,Triplet,F4_D4
2716,Left,1,46,110,840.0,0.53125,Eighth,A#2
2717,Left,1,62,110,840.333333,0.572917,Eighth,D4
2718,Left,1,59,110,840.666667,0.635417,DottedEighth,B3
2719,Left,1,62,110,841.0,0.583333,Eighth,D4
2720,Left,1,59,110,841.333333,0.59375,Eighth,B3
2721,Left,1,62,110,841.666667,0.5625,Eighth,D4
2722,Left,1,59,110,842.0,0.53125,Eighth,B3
2723,Right,0,80,120,842.0,0.989583,Quarter,G#5_G#4
2725,Left,1,62,110,842.333333,0.572917,Eighth,D4
2726,Left,1,59,110,842.666667,0.635417,DottedEighth,B3
2727,Left,1,62,110,843.0,0.583333,Eighth,D4
2728,Left,1,59,110,843.333333,0.59375,Eighth,B3
2729,Left,1,62,110,843.666667,0.5625,Eighth,D4
2730,Left,1,46,110,844.0,0.53125,Eighth,A#2
2731,Left,1,62,110,844.333333,0.572917,Eighth,D4
2732,Left,1,58,110,844.666667,0.635417,DottedEighth,A#3
2733,Left,1,62,110,845.0,0.583333,Eighth,D4
2734,Left,1,58,110,845.333333,0.59375,Eighth,A#3
2735,Left,1,62,110,845.666667,0.5625,Eighth,D4
2736,Right,0,74,120,846.0,0.989583,Quarter,D6_D5
2738,Left,1,58,110,846.0,0.53125,Eighth,A#3
2739,Left,1,62,110,846.333333,0.572917,Eighth,D4
2740,Left,1,58,110,846.666667,0.635417,DottedEighth,A#3
2741,Left,1,62,110,847.0,0.583333,Eighth,D4
2742,Left,1,58,110,847.333333,0.59375,Eighth,A#3
2743,Left,1,62,110,847.666667,0.322917,Triplet,D4
2745,Right,0,73,110,848.0,0.489583,Eighth,C#6_C#5
2744,Left,1,45,110,848.0,0.489583,Eighth,A2
2748,Right,0,69,110,848.5,0.489583,Eighth,A4
2747,Left,1,57,110,848.5,0.489583,Eighth,A3
2750,Left,1,56,110,849.0,0.489583,Eighth,G#3
2749,Right,0,68,110,849.0,0.489583,Eighth,G#4
2752,Right,0,69,110,849.5,0.489583,Eighth,A4
2751,Left,1,57,110,849.5,0.489583,Eighth,A3
2754,Left,1,56,110,850.0,0.489583,Eighth,G#3
2753,Right,0,68,110,850.0,0.489583,Eighth,G#4
2755,Left,1,57,110,850.5,0.489583,Eighth,A3
2756,Right,0,69,110,850.5,0.489583,Eighth,A4
2758,Left,1,56,110,851.0,0.489583,Eighth,G#3
2757,Right,0,68,110,851.0,0.489583,Eighth,G#4
2760,Left,1,57,110,851.5,0.489583,Eighth,A3
2759,Right,0,69,110,851.5,0.489583,Eighth,A4
2762,Left,1,56,110,852.0,0.489583,Eighth,G#3
2761,Right,0,68,110,852.0,0.489583,Eighth,G#4
2763,Right,0,69,110,852.5,0.489583,Eighth,A4
2764,Left,1,57,110,852.5,0.489583,Eighth,A3
2765,Right,0,73,110,853.0,0.489583,Eighth,E5_C#5
2767,Left,1,61,110,853.0,0.489583,Eighth,E4_C#4
2770,Right,0,69,110,853.5,0.489583,Eighth,A4
2769,Left,1,57,110,853.5,0.489583,Eighth,A3
2773,Right,0,77,110,854.0,0.489583,Eighth,F5_D5
2771,Left,1,65,110,854.0,0.489583,Eighth,F4_D4
2776,Right,0,69,110,854.5,0.489583,Eighth,A4
2775,Left,1,57,110,854.5,0.489583,Eighth,A3
2778,Left,1,59,110,855.0,0.489583,Eighth,D4_B3
2777,Right,0,71,110,855.0,0.489583,Eighth,D5_B4
2781,Left,1,57,110,855.5,0.489583,Eighth,A3
2782,Right,0,69,110,855.5,0.489583,Eighth,A4
2785,Right,0,73,110,856.0,0.489583,Eighth,E5_C#5
2783,Left,1,64,110,856.0,0.489583,Eighth,E4_C#4
2788,Right,0,69,110,856.5,0.489583,Eighth,A4
2787,Left,1,57,110,856.5,0.489583,Eighth,A3
2790,Right,0,73,110,857.0,0.489583,Eighth,E5_C#5
2789,Left,1,64,110,857.0,0.489583,Eighth,E4_C#4
2794,Left,1,57,110,857.5,0.489583,Eighth,A3
2793,Right,0,69,110,857.5,0.489583,Eighth,A4
2795,Right,0,77,110,858.0,0.489583,Eighth,F5_D5
2797,Left,1,62,110,858.0,0.489583,Eighth,F4_D4
2799,Right,0,69,110,858.5,0.489583,Eighth,A4
2800,Left,1,57,110,858.5,0.489583,Eighth,A3
2803,Right,0,71,110,859.0,0.489583,Eighth,D5_B4
2801,Left,1,62,110,859.0,0.489583,Eighth,D4_B3
2805,Right,0,69,110,859.5,0.489583,Eighth,A4
2806,Left,1,57,110,859.5,0.489583,Eighth,A3
2807,Right,0,76,110,860.0,0.489583,Eighth,E5_C#5
2809,Left,1,64,110,860.0,0.489583,Eighth,E4_C#4
2811,Left,1,57,110,860.5,0.489583,Eighth,A3
2812,Right,0,69,110,860.5,0.489583,Eighth,A4
2814,Right,0,73,110,861.0,0.489583,Eighth,E5_C#5
2813,Left,1,61,110,861.0,0.489583,Eighth,E4_C#4
2817,Left,1,57,110,861.5,0.489583,Eighth,A3
2818,Right,0,69,110,861.5,0.489583,Eighth,A4
2820,Right,0,74,110,862.0,0.489583,Eighth,F5_D5
2819,Left,1,62,110,862.0,0.489583,Eighth,F4_D4
2823,Left,1,57,110,862.5,0.489583,Eighth,A3
2824,Right,0,69,110,862.5,0.489583,Eighth,A4
2827,Left,1,59,110,863.0,0.489583,Eighth,D4_B3
2825,Right,0,71,110,863.0,0.489583,Eighth,D5_B4
2829,Right,0,69,110,863.5,0.489583,Eighth,A4
2830,Left,1,57,110,863.5,0.489583,Eighth,A3
2833,Left,1,61,110,864.0,0.489583,Eighth,E4_C#4
2831,Right,0,76,110,864.0,0.489583,Eighth,E5_C#5
2836,Left,1,57,110,864.5,0.489583,Eighth,A3
2835,Right,0,69,110,864.5,0.489583,Eighth,A4
2837,Left,1,56,110,865.0,0.489583,Eighth,G#3
2838,Right,0,68,110,865.0,0.489583,Eighth,G#4
2840,Right,0,69,110,865.5,0.489583,Eighth,A4
2839,Left,1,57,110,865.5,0.489583,Eighth,A3
2841,Right,0,68,110,866.0,0.489583,Eighth,G#4
2842,Left,1,56,110,866.0,0.489583,Eighth,G#3
2843,Right,0,69,110,866.5,0.489583,Eighth,A4
2844,Left,1,57,110,866.5,0.489583,Eighth,A3
2846,Left,1,56,110,867.0,0.489583,Eighth,G#3
2845,Right,0,68,110,867.0,0.489583,Eighth,G#4
2848,Left,1,57,110,867.5,0.489583,Eighth,A3
2847,Right,0,69,110,867.5,0.489583,Eighth,A4
2850,Left,1,56,110,868.0,0.489583,Eighth,G#3
2849,Right,0,68,110,868.0,0.489583,Eighth,G#4
2851,Left,1,57,110,868.5,0.489583,Eighth,A3
2852,Right,0,69,110,868.5,0.489583,Eighth,A4
2853,Left,1,49,110,869.0,0.489583,Eighth,E3_C#3
2854,Right,0,64,110,869.0,0.489583,Eighth,E4_C#4
2857,Left,1,57,110,869.5,0.489583,Eighth,A3
2858,Right,0,69,110,869.5,0.489583,Eighth,A4
2860,Right,0,65,110,870.0,0.489583,Eighth,F4_D4
2859,Left,1,50,110,870.0,0.489583,Eighth,F3_D3
2863,Right,0,69,110,870.5,0.489583,Eighth,A4
2864,Left,1,57,110,870.5,0.489583,Eighth,A3
2867,Right,0,62,110,871.0,0.489583,Eighth,D4_B3
2865,Left,1,50,110,871.0,0.489583,Eighth,D3_B2
2870,Left,1,57,110,871.5,0.489583,Eighth,A3
2869,Right,0,69,110,871.5,0.489583,Eighth,A4
2872,Left,1,52,110,872.0,0.489583,Eighth,E3_C#3
2871,Right,0,61,110,872.0,0.489583,Eighth,E4_C#4
2875,Left,1,57,110,872.5,0.489583,Eighth,A3
2876,Right,0,69,110,872.5,0.489583,Eighth,A4
2877,Left,1,52,110,873.0,0.489583,Eighth,E3_C#3
2878,Right,0,64,110,873.0,0.489583,Eighth,E4_C#4
2882,Right,0,69,110,873.5,0.489583,Eighth,A4
2881,Left,1,57,110,873.5,0.489583,Eighth,A3
2883,Left,1,50,110,874.0,0.489583,Eighth,F3_D3
2885,Right,0,62,110,874.0,0.489583,Eighth,F4_D4
2887,Right,0,69,110,874.5,0.489583,Eighth,A4
2888,Left,1,57,110,874.5,0.489583,Eighth,A3
2890,Right,0,62,110,875.0,0.489583,Eighth,D4_B3
2889,Left,1,47,110,875.0,0.489583,Eighth,D3_B2
2894,Left,1,57,110,875.5,0.489583,Eighth,A3
2893,Right,0,69,110,875.5,0.489583,Eighth,A4
2897,Right,0,64,110,876.0,0.489583,Eighth,E4_C#4
2895,Left,1,52,110,876.0,0.489583,Eighth,E3_C#3
2899,Right,0,69,110,876.5,0.489583,Eighth,A4
2900,Left,1,57,110,876.5,0.489583,Eighth,A3
2902,Left,1,52,110,877.0,0.489583,Eighth,E3_C#3
2901,Right,0,64,110,877.0,0.489583,Eighth,E4_C#4
2905,Right,0,69,110,877.5,0.489583,Eighth,A4
2906,Left,1,57,110,877.5,0.489583,Eighth,A3
2907,Right,0,65,110,878.0,0.489583,Eighth,F4_D4
2909,Left,1,53,110,878.0,0.489583,Eighth,F3_D3
2911,Left,1,57,110,878.5,0.489583,Eighth,A3
2912,Right,0,69,110,878.5,0.489583,Eighth,A4
2913,Left,1,47,110,879.0,0.489583,Eighth,D3_B2
2914,Right,0,62,110,879.0,0.489583,Eighth,D4_B3
2918,Right,0,69,110,879.5,0.489583,Eighth,A4
2917,Left,1,57,110,879.5,0.489583,Eighth,A3
2920,Right,0,61,110,880.0,0.489583,Eighth,E4_C#4
2919,Left,1,49,110,880.0,0.489583,Eighth,E3_C#3
2923,Left,1,45,110,880.5,0.489583,Eighth,A2
2924,Right,0,57,110,880.5,0.489583,Eighth,A3
2926,Left,1,44,110,881.0,0.489583,Eighth,G#2
2925,Right,0,56,110,881.0,0.489583,Eighth,G#3
2928,Right,0,57,110,881.5,0.489583,Eighth,A3
2927,Left,1,45,110,881.5,0.489583,Eighth,A2
2930,Right,0,56,110,882.0,0.489583,Eighth,G#3
2929,Left,1,44,110,882.0,0.489583,Eighth,G#2
2931,Left,1,45,110,882.5,0.489583,Eighth,A2
2932,Right,0,57,110,882.5,0.489583,Eighth,A3
2934,Left,1,44,110,883.0,0.489583,Eighth,G#2
2933,Right,0,56,110,883.0,0.489583,Eighth,G#3
2935,Right,0,57,110,883.5,0.489583,Eighth,A3
2936,Left,1,45,110,883.5,0.489583,Eighth,A2
2937,Left,1,44,110,884.0,0.489583,Eighth,G#2
2938,Right,0,56,110,884.0,0.489583,Eighth,G#3
2939,Left,1,45,110,884.5,0.489583,Eighth,A2
2940,Right,0,57,110,884.5,0.489583,Eighth,A3
2941,Left,1,49,110,885.0,0.489583,Eighth,E3_C#3
2942,Right,0,64,110,885.0,0.489583,Eighth,E4_C#4
2946,Left,1,45,110,885.5,0.489583,Eighth,A2
2945,Right,0,57,110,885.5,0.489583,Eighth,A3
2949,Left,1,50,110,886.0,0.489583,Eighth,F3_D3
2947,Right,0,65,110,886.0,0.489583,Eighth,F4_D4
2951,Right,0,57,110,886.5,0.489583,Eighth,A3
2952,Left,1,45,110,886.5,0.489583,Eighth,A2
2953,Right,0,62,110,887.0,0.489583,Eighth,D4_B3
2955,Left,1,50,110,887.0,0.489583,Eighth,D3_B2
2957,Left,1,45,110,887.5,0.489583,Eighth,A2
2958,Right,0,57,110,887.5,0.489583,Eighth,A3
2959,Left,1,49,110,888.0,0.489583,Eighth,E3_C#3
2960,Right,0,61,110,888.0,0.489583,Eighth,E4_C#4
2963,Right,0,57,110,888.5,0.489583,Eighth,A3
2964,Left,1,45,110,888.5,0.489583,Eighth,A2
2965,Left,1,52,110,889.0,0.489583,Eighth,E3_C#3
2967,Right,0,61,110,889.0,0.489583,Eighth,E4_C#4
2969,Left,1,45,110,889.5,0.489583,Eighth,A2
2970,Right,0,57,110,889.5,0.489583,Eighth,A3
2972,Right,0,65,110,890.0,0.489583,Eighth,F4_D4
2971,Left,1,53,110,890.0,0.489583,Eighth,F3_D3
2976,Left,1,45,110,890.5,0.489583,Eighth,A2
2975,Right,0,57,110,890.5,0.489583,Eighth,A3
2979,Left,1,47,110,891.0,0.489583,Eighth,D3_B2
2977,Right,0,62,110,891.0,0.489583,Eighth,D4_B3
2981,Right,0,57,110,891.5,0.489583,Eighth,A3
2982,Left,1,45,110,891.5,0.489583,Eighth,A2
2984,Right,0,61,110,892.0,0.489583,Eighth,E4_C#4
2983,Left,1,52,110,892.0,0.489583,Eighth,E3_C#3
2988,Left,1,45,110,892.5,0.489583,Eighth,A2
2987,Right,0,57,110,892.5,0.489583,Eighth,A3
2991,Right,0,64,110,893.0,0.489583,Eighth,E4_C#4
2989,Left,1,52,110,893.0,0.489583,Eighth,E3_C#3
2994,Left,1,45,110,893.5,0.489583,Eighth,A2
2993,Right,0,57,110,893.5,0.489583,Eighth,A3
2995,Right,0,62,110,894.0,0.489583,Eighth,F4_D4
2996,Left,1,53,110,894.0,0.489583,Eighth,F3_D3
2999,Right,0,57,110,894.5,0.489583,Eighth,A3
3000,Left,1,45,110,894.5,0.489583,Eighth,A2
3001,Right,0,62,110,895.0,0.489583,Eighth,D4_B3
3003,Left,1,50,110,895.0,0.489583,Eighth,D3_B2
3006,Left,1,45,110,895.5,0.489583,Eighth,A2
3005,Right,0,57,110,895.5,0.489583,Eighth,A3
3007,Left,1,45,110,896.0,3.989583,Whole,E3_C#3_A2
3009,Right,0,57,110,896.0,3.989583,Whole,E4_C#4_A3
3014,Right,0,53,100,900.0,3.989583,Whole,F3_D4_A3
3013,Left,1,33,100,900.0,3.989583,Whole,A2_A1
3020,Right,0,61,90,904.0,3.989583,Whole,E3_C#4_A3
3018,Left,1,45,90,904.0,3.989583,Whole,A2_A1
3024,Right,0,58,80,908.0,3.989583,Whole,F3_D3_A#3
3023,Left,1,45,80,908.0,3.989583,Whole,A2_A1
3028,Right,0,48,80,912.0,1.489583,DottedQuarter,C3
3029,Right,0,52,80,912.5,1.489583,DottedQuarter,E3
3030,Left,1,45,80,913.0,6.989583,Unknown,A2_A1
3032,Right,0,57,80,913.0,6.989583,Unknown,A3
3033,Left,1,46,80,920.0,2.989583,DottedHalf,A#2
3034,Right,0,58,80,920.0,2.989583,DottedHalf,A#3
3035,Right,0,57,80,923.0,0.989583,Quarter,A3
3036,Left,1,45,80,923.0,0.989583,Quarter,A2
3037,Right,0,55,80,924.0,0.989583,Quarter,G3
3038,Left,1,43,80,924.0,0.989583,Quarter,G2
3040,Right,0,53,80,925.0,0.989583,Quarter,F3
3039,Left,1,41,80,925.0,0.989583,Quarter,F2
3041,Left,1,39,80,926.0,0.989583,Quarter,D#2
3042,Right,0,51,80,926.0,0.989583,Quarter,D#3
3044,Right,0,50,80,927.0,0.989583,Quarter,D3
3043,Left,1,38,80,927.0,0.989583,Quarter,D2
3045,Left,1,37,80,928.0,0.989583,Quarter,C#2
3046,Right,0,49,80,928.0,0.989583,Quarter,C#3
3047,Left,1,43,80,929.0,0.989583,Quarter,G2
3048,Right,0,55,80,929.0,0.989583,Quarter,G3
3049,Left,1,46,80,930.0,0.989583,Quarter,A#2
3050,Right,0,58,80,930.0,0.989583,Quarter,A#3
3052,Left,1,45,80,931.0,0.989583,Quarter,A2
3051,Right,0,57,80,931.0,0.989583,Quarter,A3
3053,Right,0,55,80,932.0,0.989583,Quarter,G3
3054,Left,1,43,80,932.0,0.989583,Quarter,G2
3055,Right,0,53,80,933.0,0.989583,Quarter,F3
3056,Left,1,41,80,933.0,0.989583,Quarter,F2
3058,Right,0,51,80,934.0,0.989583,Quarter,D#3
3057,Left,1,39,80,934.0,0.989583,Quarter,D#2
3060,Right,0,50,80,935.0,0.989583,Quarter,D3
3059,Left,1,38,80,935.0,0.989583,Quarter,D2
3061,Left,1,37,70,936.0,6.989583,Unknown,C#2
3062,Left,1,40,70,936.0625,6.927083,Unknown,E2
3063,Left,1,45,70,936.125,6.864583,Unknown,A2
3064,Left,1,49,70,936.1875,1.802083,Half,C#3
3065,Left,1,52,70,936.25,1.739583,DottedQuarter,E3
3066,Left,1,57,70,936.3125,1.677083,DottedQuarter,A3
3067,Right,0,61,70,938.0,4.989583,Unknown,C#4
3068,Right,0,64,70,939.0,3.989583,Whole,E4
3069,Right,0,69,70,942.5,0.489583,Eighth,A4
3070,Right,0,69,70,943.0,0.489583,Eighth,A4
3071,Right,0,70,70,943.5,0.489583,Eighth,A#4
3072,Right,0,69,70,944.0,1.989583,Half,A4
3073,Right,0,67,70,946.875,0.114583,ThirtySecond,G4
3074,Right,0,76,70,947.0,0.989583,Quarter,E5
3075,Right,0,74,70,947.875,0.114583,ThirtySecond,D5
3076,Right,0,74,70,948.0,1.989583,Half,D5
3077,Right,0,73,70,949.0,1.989583,Half,C#5
3078,Right,0,76,70,952.0,0.989583,Quarter,E5
3079,Right,0,67,70,953.5,0.989583,Quarter,G4
3080,Right,0,70,70,954.0,1.989583,Half,A#4
3081,Right,0,69,70,955.5,0.989583,Quarter,A4
3082,Right,0,67,70,956.0,1.989583,Half,G4
3083,Right,0,65,70,957.0,0.989583,Quarter,F4
3085,Right,0,69,80,959.0,0.489583,Eighth,A4
3084,Left,1,49,80,959.0,0.989583,Quarter,C#3_A3
3087,Right,0,67,80,959.5,0.489583,Eighth,G4
3090,Right,0,67,80,960.0,0.489583,Eighth,G4
3088,Left,1,57,80,960.0,0.989583,Quarter,D3_A3
3091,Right,0,65,80,960.5,0.489583,Eighth,F4
3092,Left,1,57,80,961.0,0.989583,Quarter,E3_A3
3093,Right,0,65,80,961.0,0.489583,Eighth,F4
3095,Right,0,64,80,961.5,0.489583,Eighth,E4
3098,Right,0,64,80,962.0,0.489583,Eighth,E4
3096,Left,1,57,80,962.0,0.989583,Quarter,F3_A3
3099,Right,0,62,80,962.5,0.489583,Eighth,D4
3102,Right,0,69,80,963.0,0.489583,Eighth,A4
3100,Left,1,49,80,963.0,0.989583,Quarter,C#3_A3
3103,Right,0,67,80,963.5,0.489583,Eighth,G4
3104,Left,1,50,80,964.0,0.989583,Quarter,D3_A3
3106,Right,0,67,80,964.0,0.489583,Eighth,G4
3107,Right,0,65,80,964.5,0.489583,Eighth,F4
3109,Right,0,65,80,965.0,0.489583,Eighth,F4
3108,Left,1,57,80,965.0,0.989583,Quarter,E3_A3
3111,Right,0,64,80,965.5,0.489583,Eighth,E4
3112,Right,0,64,80,966.0,0.489583,Eighth,E4
3113,Left,1,57,80,966.0,0.989583,Quarter,F3_A3
3115,Right,0,62,80,966.5,0.489583,Eighth,D4
3116,Left,1,62,80,967.0,0.989583,Quarter,F#3_D4
3117,Right,0,74,80,967.0,0.489583,Eighth,D5
3119,Right,0,72,83,967.5,0.489583,Eighth,C5
3122,Right,0,72,86,968.0,0.489583,Eighth,C5
3120,Left,1,62,86,968.0,0.989583,Quarter,G3_D4
3123,Right,0,70,89,968.5,0.489583,Eighth,A#4
3125,Right,0,70,92,969.0,0.489583,Eighth,A#4
3124,Left,1,62,92,969.0,0.989583,Quarter,D4_A3
3127,Right,0,69,95,969.5,0.489583,Eighth,A4
3130,Right,0,69,98,970.0,0.489583,Eighth,A4
3128,Left,1,58,98,970.0,0.989583,Quarter,D4_A#3
3131,Right,0,67,101,970.5,0.489583,Eighth,G4
3132,Left,1,62,104,971.0,0.989583,Quarter,D4_A#3
3134,Right,0,67,104,971.0,0.489583,Eighth,G4
3135,Right,0,68,107,971.5,0.489583,Eighth,G#4
3136,Left,1,62,110,972.0,1.989583,Half,D4_A3
3138,Right,0,65,110,972.0,1.989583,Half,G#4_F4
3140,Right,0,69,80,973.0,0.239583,Sixteenth,A4
3141,Right,0,68,80,973.125,0.239583,Sixteenth,G#4
3142,Right,0,66,80,973.25,0.239583,Sixteenth,F#4
3143,Right,0,68,80,973.375,0.239583,Sixteenth,G#4
3144,Right,0,71,80,973.5,0.239583,Sixteenth,B4
3145,Right,0,69,80,973.75,0.239583,Sixteenth,A4
3147,Right,0,64,80,974.0,1.989583,Half,E4_A4
3146,Left,1,61,80,974.0,1.989583,Half,C#4_A3
3150,Left,1,40,70,976.0,7.989583,Unknown,E2
3151,Left,1,43,70,976.0625,7.927083,Unknown,G2
3152,Left,1,48,70,976.125,7.864583,Unknown,C3
3153,Left,1,52,70,976.1875,1.802083,Half,E3
3154,Left,1,55,70,976.25,1.739583,DottedQuarter,G3
3155,Left,1,60,70,976.3125,1.677083,DottedQuarter,C4
3156,Right,0,64,70,978.0,5.989583,Unknown,E4
3157,Right,0,67,70,979.0,4.989583,Unknown,G4
3158,Right,0,72,70,980.0,3.989583,Whole,C5
3159,Right,0,73,70,984.0,2.989583,DottedHalf,C#5
3160,Right,0,61,70,987.729167,0.260417,Sixteenth,C#4
3161,Right,0,60,70,988.0,1.989583,Half,C4
3162,Right,0,58,70,989.0,1.989583,Half,A#3
3163,Right,0,67,70,991.0,0.489583,Eighth,G4
3164,Right,0,68,70,991.5,0.989583,Quarter,G#4
3165,Right,0,70,70,993.5,0.489583,Eighth,A#4
3166,Right,0,73,70,994.0,1.989583,Half,C#5
3167,Right,0,72,70,995.0,0.989583,Quarter,C5
3168,Right,0,67,70,995.5,0.989583,Quarter,G4
3169,Right,0,68,70,996.0,3.989583,Whole,G#4
3170,Right,0,68,70,1000.0,0.989583,Quarter,G#4_G#3_C#4
3172,Left,1,29,70,1000.0,0.989583,Quarter,F2_F1_C#2
3177,Left,1,29,70,1002.0,0.989583,Quarter,F2_F1_C#2
3176,Right,0,68,70,1002.0,0.989583,Quarter,G#4_G#3_C#4
3182,Left,1,29,70,1004.0,0.989583,Quarter,F2_F1_C#2
3185,Right,0,56,70,1004.0,0.989583,Quarter,G#4_G#3_C#4
3190,Left,1,41,70,1006.0,0.989583,Quarter,F2_F1_C#2
3188,Right,0,56,70,1006.0,0.989583,Quarter,G#4_G#3_C#4
3195,Left,1,42,80,1008.0,0.989583,Quarter,F#2_F#1_C#2
3194,Right,0,69,80,1008.0,0.59375,Eighth,A4
3198,Right,0,66,81,1008.333333,0.59375,Eighth,F#4
3199,Right,0,61,82,1008.666667,0.552083,Eighth,C#4
3200,Right,0,57,84,1009.0,0.541667,Eighth,A3
3201,Right,0,54,85,1009.333333,0.625,Eighth,F#3
3202,Right,0,49,87,1009.666667,0.583333,Eighth,C#3
3203,Right,0,57,88,1010.0,0.583333,Eighth,A3
3204,Right,0,54,89,1010.333333,0.614583,Eighth,F#3
3205,Right,0,49,91,1010.666667,0.604167,Eighth,C#3
3206,Left,1,45,92,1011.0,0.260417,Sixteenth,A2
3207,Left,1,49,93,1011.166667,0.322917,Triplet,C#3
3208,Left,1,54,94,1011.333333,0.302083,Triplet,F#3
3209,Left,1,57,94,1011.5,0.322917,Triplet,A3
3210,Left,1,61,95,1011.666667,0.322917,Triplet,C#4
3211,Left,1,66,96,1011.833333,0.322917,Triplet,F#4
3212,Right,0,69,97,1012.0,0.625,Eighth,A4
3213,Right,0,66,98,1012.333333,0.604167,Eighth,F#4
3214,Right,0,61,99,1012.666667,0.5625,Eighth,C#4
3215,Right,0,57,101,1013.0,0.625,Eighth,A3
3216,Right,0,61,102,1013.333333,0.604167,Eighth,C#4
3217,Right,0,66,104,1013.666667,0.65625,DottedEighth,F#4
3218,Right,0,69,105,1014.0,0.614583,Eighth,A4
3219,Right,0,73,107,1014.333333,0.583333,Eighth,C#5
3220,Right,0,81,109,1015.0,0.447917,Eighth,A5
3222,Right,0,73,97,1015.5,0.458333,Eighth,C#5
3223,Right,0,69,94,1015.75,0.239583,Sixteenth,A4
3224,Right,0,57,80,1016.0,0.989583,Quarter,D4_A4_A3
3227,Left,1,54,80,1016.0,0.989583,Quarter,F#3_F#2_D3
3230,Right,0,57,80,1018.0,0.989583,Quarter,D4_A4_A3
3233,Left,1,50,80,1018.0,0.989583,Quarter,F#3_F#2_D3
3236,Right,0,69,80,1020.0,0.989583,Quarter,D4_A4_A3
3239,Left,1,54,80,1020.0,0.989583,Quarter,F#3_F#2_D3
3242,Left,1,42,80,1022.0,0.989583,Quarter,F#3_F#2_D3
3245,Right,0,69,80,1022.0,0.989583,Quarter,D4_A4_A3
3248,Left,1,50,80,1024.0,0.989583,Quarter,G3_G2_D3
3251,Right,0,70,80,1024.0,0.572917,Eighth,A#4
3252,Right,0,67,81,1024.333333,0.645833,DottedEighth,G4
3253,Right,0,62,83,1024.666667,0.59375,Eighth,D4
3254,Left,1,58,85,1025.0,0.635417,DottedEighth,A#3
3255,Left,1,55,86,1025.333333,0.572917,Eighth,G3
3256,Left,1,50,88,1025.666667,0.614583,Eighth,D3
3257,Left,1,58,90,1026.0,0.583333,Eighth,A#3
3258,Left,1,55,91,1026.333333,0.65625,DottedEighth,G3
3259,Left,1,46,95,1027.0,0.322917,Triplet,A#2
3260,Left,1,50,95,1027.166667,0.083333,TripletThirtySecond,D3
3261,Left,1,55,96,1027.333333,0.3125,Triplet,G3
3262,Left,1,58,97,1027.5,0.322917,Triplet,A#3
3263,Left,1,62,98,1027.666667,0.322917,Triplet,D4
3264,Left,1,67,99,1027.833333,0.322917,Triplet,G4
3265,Right,0,70,100,1028.0,0.635417,DottedEighth,A#4
3266,Right,0,67,101,1028.333333,0.625,Eighth,G4
3267,Right,0,62,103,1028.666667,0.625,DottedEighth,D4
3268,Right,0,58,105,1029.0,0.635417,DottedEighth,A#3
3269,Right,0,62,106,1029.333333,0.635417,DottedEighth,D4
3270,Right,0,67,108,1029.666667,0.614583,Eighth,G4
3271,Right,0,70,110,1030.0,0.635417,DottedEighth,A#4
3272,Right,0,74,111,1030.333333,0.604167,Eighth,D5
3273,Right,0,82,115,1031.0,0.427083,DottedSixteenth,A#5
3274,Right,0,79,116,1031.25,0.020833,TripletSixtyFourth,G5
3275,Right,0,74,117,1031.5,0.4375,Eighth,D5
3276,Right,0,70,118,1031.75,0.239583,Sixteenth,A#4
3281,Left,1,55,120,1032.0,0.989583,Quarter,G3_E4_C#4_A#3
3277,Right,0,70,120,1032.0,0.989583,Quarter,G4_E5_C#5_A#4
3285,Left,1,64,120,1034.0,0.989583,Quarter,G3_E4_C#4_A#3
3288,Right,0,76,120,1034.0,0.989583,Quarter,G4_E5_C#5_A#4
3293,Left,1,64,120,1036.0,0.989583,Quarter,G3_E4_C#4_A#3
3297,Right,0,76,120,1036.0,0.989583,Quarter,G4_E5_C#5_A#4
3305,Right,0,73,120,1038.0,1.489583,DottedQuarter,G4_E5_C#5_A#4
3301,Left,1,55,120,1038.0,1.489583,DottedQuarter,G3_E4_C#4_A#3
3309,Left,1,56,120,1040.0,0.989583,Quarter,G#3_F4_D4_B3
3310,Right,0,77,120,1040.0,0.53125,Eighth,F5
3314,Right,0,74,120,1040.333333,0.583333,Eighth,D5
3315,Right,0,71,120,1040.666667,0.635417,DottedEighth,B4
3316,Right,0,68,120,1041.0,0.5625,Eighth,G#4
3317,Right,0,65,120,1041.333333,0.520833,Eighth,F4
3318,Right,0,74,120,1041.666667,0.5625,Eighth,D5
3319,Right,0,71,120,1042.0,0.5625,Eighth,B4
3320,Right,0,68,120,1042.333333,0.572917,Eighth,G#4
3321,Right,0,65,120,1042.666667,0.53125,Eighth,F4
3322,Right,0,62,120,1043.0,0.614583,Eighth,D4
3323,Right,0,65,120,1043.333333,0.5625,Eighth,F4
3324,Right,0,68,120,1043.666667,0.635417,DottedEighth,G#4
3325,Right,0,71,120,1044.0,0.614583,Eighth,B4
3326,Right,0,74,120,1044.333333,0.572917,Eighth,D5
3327,Right,0,77,120,1044.666667,0.625,Eighth,F5
3328,Right,0,80,120,1045.0,0.572917,Eighth,G#5
3329,Right,0,83,120,1045.333333,0.572917,Eighth,B5
3330,Right,0,86,120,1045.666667,0.645833,DottedEighth,D6
3331,Right,0,89,120,1046.0,1.989583,Half,F6
3332,Right,0,86,120,1047.0,0.989583,Quarter,D6
3333,Left,1,57,96,1048.0,0.489583,Eighth,A3
3334,Right,0,85,120,1048.0,0.989583,Quarter,C#6
3335,Left,1,69,80,1048.5,0.489583,Eighth,A4
3336,Left,1,67,80,1049.0,0.489583,Eighth,G4_E4
3338,Left,1,69,80,1049.5,0.489583,Eighth,A4
3339,Left,1,70,80,1050.0,0.489583,Eighth,A#4
3340,Left,1,69,80,1050.5,0.489583,Eighth,A4
3343,Right,0,88,80,1051.0,0.489583,Eighth,E6
3341,Left,1,64,80,1051.0,0.489583,Eighth,G4_E4
3345,Right,0,85,80,1051.5,0.489583,Eighth,C#6
3344,Left,1,69,80,1051.5,0.489583,Eighth,A4
3347,Right,0,81,80,1052.0,0.489583,Eighth,A5
3346,Left,1,57,80,1052.0,0.489583,Eighth,A3
3348,Right,0,82,80,1052.5,0.489583,Eighth,A#5
3349,Left,1,69,80,1052.5,0.489583,Eighth,A4
3351,Right,0,82,80,1053.0,0.489583,Eighth,A#5
3350,Left,1,67,80,1053.0,0.489583,Eighth,G4_E4
3354,Left,1,69,80,1053.5,0.489583,Eighth,A4
3353,Right,0,79,80,1053.5,0.489583,Eighth,G5
3355,Left,1,70,80,1054.0,0.489583,Eighth,A#4
3356,Left,1,69,80,1054.5,0.489583,Eighth,A4
3357,Right,0,88,80,1055.0,0.489583,Eighth,E6
3358,Left,1,67,80,1055.0,0.489583,Eighth,G4_E4
3361,Left,1,69,80,1055.5,0.489583,Eighth,A4
3360,Right,0,85,80,1055.5,0.489583,Eighth,C#6
3363,Right,0,81,80,1056.0,0.489583,Eighth,A5
3362,Left,1,57,80,1056.0,0.489583,Eighth,A3
3365,Right,0,82,80,1056.5,0.489583,Eighth,A#5
3364,Left,1,69,80,1056.5,0.489583,Eighth,A4
3367,Left,1,64,80,1057.0,0.489583,Eighth,G4_E4
3366,Right,0,82,80,1057.0,0.489583,Eighth,A#5
3370,Left,1,69,80,1057.5,0.489583,Eighth,A4
3369,Right,0,79,80,1057.5,0.489583,Eighth,G5
3371,Left,1,70,80,1058.0,0.489583,Eighth,A#4
3372,Left,1,69,80,1058.5,0.489583,Eighth,A4
3373,Left,1,67,80,1059.0,0.489583,Eighth,G4_E4
3374,Right,0,88,80,1059.0,0.489583,Eighth,E6
3377,Right,0,85,80,1059.5,0.489583,Eighth,C#6
3376,Left,1,69,80,1059.5,0.489583,Eighth,A4
3379,Right,0,81,80,1060.0,0.489583,Eighth,A5
3378,Left,1,57,80,1060.0,0.489583,Eighth,A3
3380,Left,1,69,80,1060.5,0.489583,Eighth,A4
3381,Right,0,82,80,1060.5,0.489583,Eighth,A#5
3382,Left,1,64,80,1061.0,0.489583,Eighth,G4_E4
3384,Right,0,82,80,1061.0,0.489583,Eighth,A#5
3385,Left,1,69,80,1061.5,0.489583,Eighth,A4
3386,Right,0,79,80,1061.5,0.489583,Eighth,G5
3387,Left,1,57,80,1062.0,0.489583,Eighth,A3
3388,Right,0,79,80,1062.0,0.489583,Eighth,G5
3390,Right,0,77,80,1062.5,0.489583,Eighth,F5
3389,Left,1,69,80,1062.5,0.489583,Eighth,A4
3391,Left,1,61,80,1063.0,0.489583,Eighth,E4_C#4
3393,Right,0,77,80,1063.0,0.489583,Eighth,F5
3394,Left,1,69,80,1063.5,0.489583,Eighth,A4
3395,Right,0,76,80,1063.5,0.489583,Eighth,E5
3397,Left,1,57,80,1064.0,0.489583,Eighth,A3
3396,Right,0,76,80,1064.0,0.489583,Eighth,E5
3398,Right,0,77,80,1064.5,0.489583,Eighth,F5
3399,Left,1,69,80,1064.5,0.489583,Eighth,A4
3400,Left,1,65,80,1065.0,0.489583,Eighth,F4_D4
3402,Right,0,74,80,1065.0,0.989583,Quarter,D5
3403,Left,1,69,80,1065.5,0.489583,Eighth,A4
3404,Left,1,70,80,1066.0,0.489583,Eighth,A#4
3405,Left,1,69,80,1066.5,0.489583,Eighth,A4
3406,Right,0,89,80,1067.0,0.489583,Eighth,F6
3407,Left,1,65,80,1067.0,0.489583,Eighth,F4_D4
3410,Right,0,86,80,1067.5,0.489583,Eighth,D6
3409,Left,1,69,80,1067.5,0.489583,Eighth,A4
3412,Right,0,80,80,1068.0,0.489583,Eighth,G#5
3411,Left,1,57,80,1068.0,0.489583,Eighth,A3
3413,Left,1,69,80,1068.5,0.489583,Eighth,A4
3414,Right,0,81,80,1068.5,0.489583,Eighth,A5
3415,Right,0,81,80,1069.0,0.489583,Eighth,A5
3416,Left,1,65,80,1069.0,0.489583,Eighth,F4_D4
3418,Left,1,69,80,1069.5,0.489583,Eighth,A4
3419,Right,0,77,80,1069.5,0.489583,Eighth,F5
3420,Left,1,70,80,1070.0,0.489583,Eighth,A#4
3421,Left,1,69,80,1070.5,0.489583,Eighth,A4
3422,Left,1,65,80,1071.0,0.489583,Eighth,F4_D4
3423,Right,0,89,80,1071.0,0.489583,Eighth,F6
3425,Left,1,69,80,1071.5,0.489583,Eighth,A4
3426,Right,0,86,80,1071.5,0.489583,Eighth,D6
3427,Right,0,80,80,1072.0,0.489583,Eighth,G#5
3428,Left,1,57,80,1072.0,0.489583,Eighth,A3
3430,Left,1,69,80,1072.5,0.489583,Eighth,A4
3429,Right,0,81,80,1072.5,0.489583,Eighth,A5
3431,Left,1,65,80,1073.0,0.489583,Eighth,F4_D4
3433,Right,0,81,80,1073.0,0.489583,Eighth,A5
3434,Left,1,69,80,1073.5,0.489583,Eighth,A4
3435,Right,0,77,80,1073.5,0.489583,Eighth,F5
3436,Left,1,70,80,1074.0,0.489583,Eighth,A#4
3437,Left,1,69,80,1074.5,0.489583,Eighth,A4
3438,Left,1,65,80,1075.0,0.489583,Eighth,F4_D4
3440,Right,0,89,80,1075.0,0.489583,Eighth,F6
3441,Left,1,69,80,1075.5,0.489583,Eighth,A4
3442,Right,0,86,80,1075.5,0.489583,Eighth,D6
3444,Right,0,80,80,1076.0,0.489583,Eighth,G#5
3443,Left,1,57,80,1076.0,0.489583,Eighth,A3
3446,Left,1,69,80,1076.5,0.489583,Eighth,A4
3445,Right,0,81,80,1076.5,0.489583,Eighth,A5
3449,Right,0,81,80,1077.0,0.489583,Eighth,A5
3447,Left,1,62,80,1077.0,0.489583,Eighth,F4_D4
3451,Right,0,77,80,1077.5,0.489583,Eighth,F5
3450,Left,1,69,80,1077.5,0.489583,Eighth,A4
3453,Right,0,77,80,1078.0,0.489583,Eighth,F5
3452,Left,1,57,80,1078.0,0.489583,Eighth,A3
3455,Left,1,69,80,1078.5,0.489583,Eighth,A4
3454,Right,0,76,80,1078.5,0.489583,Eighth,E5
3456,Right,0,76,80,1079.0,0.489583,Eighth,E5
3457,Left,1,62,80,1079.0,0.489583,Eighth,F4_D4
3460,Right,0,74,80,1079.5,0.489583,Eighth,D5
3459,Left,1,69,80,1079.5,0.489583,Eighth,A4
3461,Right,0,74,80,1080.0,0.489583,Eighth,D5
3462,Left,1,57,80,1080.0,0.489583,Eighth,A3
3464,Right,0,73,80,1080.5,0.489583,Eighth,C#5
3463,Left,1,69,80,1080.5,0.489583,Eighth,A4
3466,Left,1,64,80,1081.0,0.489583,Eighth,G4_E4
3465,Right,0,76,80,1081.0,0.989583,Quarter,E5
3468,Left,1,69,80,1081.5,0.489583,Eighth,A4
3469,Left,1,70,80,1082.0,0.489583,Eighth,A#4
3470,Left,1,69,80,1082.5,0.489583,Eighth,A4
3473,Right,0,82,80,1083.0,0.489583,Eighth,A#5
3471,Left,1,64,80,1083.0,0.489583,Eighth,G4_E4
3475,Left,1,69,81,1083.5,0.489583,Eighth,A4
3474,Right,0,79,81,1083.5,0.489583,Eighth,G5
3476,Left,1,57,83,1084.0,0.489583,Eighth,A3
3477,Right,0,75,83,1084.0,0.489583,Eighth,D#5
3478,Left,1,69,85,1084.5,0.489583,Eighth,A4
3479,Right,0,76,85,1084.5,0.489583,Eighth,E5
3481,Right,0,73,87,1085.0,0.989583,Quarter,C#5
3480,Left,1,67,87,1085.0,0.489583,Eighth,G4_E4
3483,Left,1,69,88,1085.5,0.489583,Eighth,A4
3484,Left,1,70,90,1086.0,0.489583,Eighth,A#4
3485,Left,1,69,92,1086.5,0.489583,Eighth,A4
3488,Right,0,82,94,1087.0,0.489583,Eighth,A#5
3486,Left,1,64,94,1087.0,0.489583,Eighth,G4_E4
3489,Left,1,69,95,1087.5,0.489583,Eighth,A4
3490,Right,0,79,95,1087.5,0.489583,Eighth,G5
3492,Left,1,57,97,1088.0,0.489583,Eighth,A3
3491,Right,0,75,97,1088.0,0.489583,Eighth,D#5
3493,Right,0,76,99,1088.5,0.489583,Eighth,E5
3494,Left,1,69,99,1088.5,0.489583,Eighth,A4
3497,Right,0,73,101,1089.0,0.989583,Quarter,C#5
3495,Left,1,67,101,1089.0,0.489583,Eighth,G4_E4
3498,Left,1,69,102,1089.5,0.489583,Eighth,A4
3499,Left,1,70,104,1090.0,0.489583,Eighth,A#4
3500,Left,1,69,106,1090.5,0.489583,Eighth,A4
3501,Left,1,67,108,1091.0,0.489583,Eighth,G4_E4
3503,Right,0,82,108,1091.0,0.489583,Eighth,A#5
3504,Left,1,69,109,1091.5,0.489583,Eighth,A4
3505,Right,0,79,109,1091.5,0.489583,Eighth,G5
3506,Left,1,57,110,1092.0,0.989583,Quarter,G4_E4_A3
3509,Right,0,76,110,1092.0,0.489583,Eighth,E5
3510,Right,0,79,110,1092.5,0.489583,Eighth,G5
3511,Right,0,73,110,1093.0,0.489583,Eighth,C#5
3512,Right,0,76,110,1093.5,0.489583,Eighth,E5
3513,Right,0,70,110,1094.0,0.489583,Eighth,A#4
3514,Right,0,73,110,1094.5,0.489583,Eighth,C#5
3515,Right,0,67,110,1095.0,0.489583,Eighth,G4
3516,Right,0,70,110,1095.5,0.489583,Eighth,A#4
3517,Right,0,64,110,1096.0,0.489583,Eighth,E4
3518,Right,0,67,110,1096.5,0.489583,Eighth,G4
3519,Right,0,61,110,1097.0,0.489583,Eighth,C#4
3520,Right,0,64,110,1097.5,0.489583,Eighth,E4
3521,Right,0,58,110,1098.0,0.489583,Eighth,A#3
3522,Right,0,61,110,1098.5,0.489583,Eighth,C#4
3523,Right,0,55,110,1099.0,0.489583,Eighth,G3
3524,Right,0,58,110,1099.5,0.489583,Eighth,A#3
3525,Right,0,52,110,1100.0,0.489583,Eighth,E3
3526,Right,0,55,110,1100.5,0.489583,Eighth,G3
3528,Left,1,37,110,1101.0,0.489583,Eighth,C#2
3527,Right,0,49,110,1101.0,0.489583,Eighth,C#3
3529,Right,0,52,110,1101.5,0.489583,Eighth,E3
3530,Left,1,40,110,1101.5,0.489583,Eighth,E2
3531,Right,0,43,110,1102.0,0.489583,Eighth,G2
3532,Left,1,31,110,1102.0,0.489583,Eighth,G1
3533,Right,0,52,110,1102.5,0.489583,Eighth,E3
3534,Left,1,40,110,1102.5,0.489583,Eighth,E2
3535,Right,0,49,110,1103.0,0.489583,Eighth,C#3
3536,Left,1,37,110,1103.0,0.489583,Eighth,C#2
3538,Left,1,31,110,1103.5,0.489583,Eighth,G1
3537,Right,0,43,110,1103.5,0.489583,Eighth,G2
3540,Left,1,29,110,1104.0,0.989583,Quarter,F1
3539,Right,0,41,110,1104.0,0.989583,Quarter,F2
3541,Right,0,53,110,1105.0,0.989583,Quarter,F3_D4_A3
3544,Left,1,41,110,1105.0,0.989583,Quarter,F2_D3_A2
3550,Left,1,43,110,1106.0,5.989583,Unknown,G2_D#3_A#2
3547,Right,0,63,110,1106.0,5.989583,Unknown,G3_D#4_A#3
3553,Left,1,50,110,1110.0,0.989583,Quarter,D3
3554,Right,0,62,110,1110.0,0.989583,Quarter,D4
3555,Right,0,61,110,1111.0,0.989583,Quarter,C#4
3556,Left,1,49,110,1111.0,0.989583,Quarter,C#3
3557,Left,1,45,110,1112.0,0.989583,Quarter,F2_D3_A2
3558,Right,0,57,110,1112.0,0.989583,Quarter,F3_D4_A3
3564,Right,0,74,110,1113.0,0.989583,Quarter,F4_D5_A4
3563,Left,1,62,110,1113.0,0.989583,Quarter,F3_D4_A3
3569,Right,0,75,110,1114.0,5.989583,Unknown,G4_D#5_A#4
3570,Left,1,58,110,1114.0,5.989583,Unknown,G3_D#4_A#3
3576,Left,1,62,110,1118.0,0.989583,Quarter,D4
3575,Right,0,74,110,1118.0,0.989583,Quarter,D5
3578,Left,1,61,110,1119.0,0.989583,Quarter,C#4
3577,Right,0,73,110,1119.0,0.989583,Quarter,C#5
3581,Left,1,62,110,1120.0,0.989583,Quarter,F3_D4_A3
3579,Right,0,74,110,1120.0,0.989583,Quarter,F4_D5_A4
3585,Right,0,86,110,1121.0,0.989583,Quarter,D6_D5
3587,Left,1,69,110,1121.0,0.989583,Quarter,F4_A4
3590,Left,1,70,110,1122.0,2.989583,DottedHalf,G4_A#4
3589,Right,0,86,110,1122.0,2.989583,DottedHalf,D6_D#5
3593,Left,1,71,110,1125.0,0.989583,Quarter,G#4_B4
3594,Right,0,86,110,1125.0,0.989583,Quarter,E5_D6
3597,Left,1,72,110,1126.0,2.989583,DottedHalf,C5_A4
3599,Right,0,77,110,1126.0,2.989583,DottedHalf,F5_D6
3601,Left,1,69,110,1129.0,0.989583,Quarter,C5_A4
3603,Right,0,78,110,1129.0,1.989583,Quarter,F#5_D6
3607,Right,0,79,110,1130.0,0.989583,Quarter,G5
3605,Left,1,74,110,1130.0,0.989583,Quarter,D5_A#4
3608,Right,0,81,110,1131.0,1.989583,Quarter,D6_A5
3609,Left,1,72,110,1131.0,0.989583,Quarter,F#4_C5
3612,Right,0,82,110,1132.0,0.989583,Quarter,A#5
3613,Left,1,67,110,1132.0,0.989583,Quarter,G4_A#4
3615,Left,1,55,96,1133.0,0.989583,Quarter,G4_G3_D#4
3616,Right,0,82,96,1133.0,1.989583,Half,A#5_A#4
3620,Left,1,65,81,1134.0,1.989583,Quarter,F4_D4_A3
3623,Left,1,61,80,1135.0,0.989583,Quarter,E4_C#4
3624,Right,0,81,80,1135.0,0.989583,Quarter,A5_A4
3628,Right,0,74,110,1136.0,0.989583,Quarter,D5
3627,Left,1,62,110,1136.0,0.989583,Quarter,D4_D3
3630,Left,1,38,110,1137.0,0.989583,Quarter,D2
3631,Left,1,39,110,1138.0,3.989583,Whole,D#2
3632,Right,0,54,110,1139.0,0.989583,Quarter,F#3_A3
3634,Right,0,58,110,1140.0,0.989583,Quarter,G3_A#3
3636,Right,0,67,110,1141.0,1.989583,Half,G4_A#3
3638,Left,1,38,110,1142.0,0.989583,Quarter,D2
3639,Right,0,58,110,1143.0,0.989583,Quarter,G4_A#3
3641,Left,1,37,110,1143.0,0.989583,Quarter,C#2
3644,Left,1,38,110,1144.0,0.989583,Quarter,D2
3642,Right,0,57,110,1144.0,0.989583,Quarter,F#4_A3
3645,Left,1,38,110,1145.0,0.989583,Quarter,D2
3646,Left,1,39,110,1146.0,3.989583,Whole,D#2
3647,Right,0,54,110,1147.0,0.989583,Quarter,F#3_A3
3649,Right,0,55,110,1148.0,0.989583,Quarter,G3_A#3
3651,Right,0,67,110,1149.0,1.989583,Half,G4_A#4
3653,Left,1,38,110,1150.0,0.989583,Quarter,D2
3654,Right,0,67,110,1151.0,0.989583,Quarter,G4_A#4
3656,Left,1,37,110,1151.0,0.989583,Quarter,C#2
3659,Left,1,38,110,1152.0,0.989583,Quarter,D2
3657,Right,0,66,110,1152.0,0.989583,Quarter,F#4_A4
3660,Left,1,38,110,1153.0,0.989583,Quarter,D2
3661,Left,1,39,110,1154.0,3.989583,Whole,D#2
3662,Right,0,57,110,1155.0,0.989583,Quarter,F#3_A3
3664,Right,0,58,110,1156.0,0.989583,Quarter,G3_A#3
3666,Right,0,70,110,1157.0,1.989583,Half,G4_A#4
3668,Left,1,38,110,1158.0,0.989583,Quarter,D2
3670,Right,0,79,110,1159.0,1.989583,Half,G5_A#5
3669,Left,1,37,80,1159.0,0.989583,Quarter,C#2
3672,Left,1,36,80,1160.0,0.489583,Eighth,C2
3673,Left,1,35,80,1160.5,0.489583,Eighth,B1
3674,Left,1,36,80,1161.0,0.489583,Eighth,C2
3675,Left,1,38,80,1161.5,0.489583,Eighth,D2
3676,Left,1,40,80,1162.0,0.489583,Eighth,E2
3677,Left,1,36,80,1162.5,0.489583,Eighth,C2
3678,Right,0,67,80,1163.0,0.989583,Quarter,G4_A#4
3680,Left,1,38,80,1163.0,0.489583,Eighth,D2
3681,Left,1,40,80,1163.5,0.489583,Eighth,E2
3684,Left,1,41,80,1164.0,0.489583,Eighth,F2
3682,Right,0,69,80,1164.0,0.989583,Quarter,F4_A4
3685,Left,1,40,80,1164.5,0.489583,Eighth,E2
3686,Left,1,41,80,1165.0,0.489583,Eighth,F2
3687,Left,1,43,80,1165.5,0.489583,Eighth,G2
3688,Left,1,45,80,1166.0,0.489583,Eighth,A2
3689,Left,1,44,80,1166.5,0.489583,Eighth,G#2
3692,Left,1,45,80,1167.0,0.489583,Eighth,A2
3690,Right,0,77,80,1167.0,0.989583,Quarter,F5_A5
3693,Left,1,44,80,1167.5,0.489583,Eighth,G#2
3694,Left,1,45,80,1168.0,0.489583,Eighth,A2
3695,Right,0,76,80,1168.0,0.989583,Quarter,G5_E5
3697,Left,1,44,80,1168.5,0.489583,Eighth,G#2
3698,Left,1,45,80,1169.0,0.489583,Eighth,A2
3699,Left,1,47,80,1169.5,0.489583,Eighth,B2
3700,Left,1,49,80,1170.0,0.489583,Eighth,C#3
3701,Left,1,45,80,1170.5,0.489583,Eighth,A2
3702,Right,0,64,80,1171.0,0.989583,Quarter,G4_E4
3704,Left,1,47,80,1171.0,0.489583,Eighth,B2
3705,Left,1,49,80,1171.5,0.489583,Eighth,C#3
3708,Left,1,50,80,1172.0,0.489583,Eighth,D3
3706,Right,0,62,80,1172.0,0.989583,Quarter,F4_D4
3709,Left,1,49,80,1172.5,0.489583,Eighth,C#3
3710,Left,1,50,80,1173.0,0.489583,Eighth,D3
3711,Left,1,52,80,1173.5,0.489583,Eighth,E3
3712,Left,1,53,80,1174.0,0.489583,Eighth,F3
3713,Left,1,50,80,1174.5,0.489583,Eighth,D3
3716,Left,1,52,80,1175.0,0.489583,Eighth,E3
3714,Right,0,74,80,1175.0,1.989583,Half,F5_D5
3717,Left,1,53,84,1175.5,0.489583,Eighth,F3
3719,Left,1,55,88,1176.0,0.489583,Eighth,G3
3718,Right,0,76,88,1176.0,0.989583,Quarter,E5
3720,Left,1,54,92,1176.5,0.489583,Eighth,F#3
3721,Left,1,55,97,1177.0,0.489583,Eighth,G3
3722,Left,1,57,101,1177.5,0.489583,Eighth,A3
3723,Left,1,58,105,1178.0,0.489583,Eighth,A#3
3724,Left,1,55,109,1178.5,0.489583,Eighth,G3
3727,Left,1,57,110,1179.0,0.489583,Eighth,A3
3725,Right,0,86,120,1179.0,1.989583,Quarter,E5_D6
3728,Left,1,58,108,1179.5,0.489583,Eighth,A#3
3730,Right,0,85,120,1180.0,0.989583,Quarter,C#6
3729,Left,1,57,106,1180.0,0.489583,Eighth,A3
3731,Left,1,56,104,1180.5,0.489583,Eighth,G#3
3732,Left,1,57,102,1181.0,0.489583,Eighth,A3
3733,Left,1,56,99,1181.5,0.489583,Eighth,G#3
3734,Left,1,57,97,1182.0,0.489583,Eighth,A3
3735,Left,1,56,95,1182.5,0.489583,Eighth,G#3
3737,Right,0,73,93,1183.0,0.989583,Quarter,E4_C#5
3736,Left,1,57,93,1183.0,0.489583,Eighth,A3
3739,Left,1,45,91,1183.5,0.489583,Eighth,A2
3741,Right,0,74,80,1184.0,0.489583,Eighth,D5
3740,Left,1,53,80,1184.0,7.989583,Half,F3_A3_A2
3744,Right,0,69,80,1184.5,0.489583,Eighth,A4
3745,Right,0,65,80,1185.0,0.489583,Eighth,F4
3746,Right,0,77,80,1185.5,0.489583,Eighth,F5
3747,Left,1,55,80,1186.0,1.989583,Half,G3_E3
3749,Right,0,76,80,1186.0,0.489583,Eighth,E5
3750,Right,0,73,80,1186.5,0.489583,Eighth,C#5
3751,Right,0,69,80,1187.0,0.489583,Eighth,A4
3752,Right,0,79,80,1187.5,0.489583,Eighth,G5
3753,Right,0,77,80,1188.0,0.489583,Eighth,F5
3754,Left,1,53,80,1188.0,1.989583,Half,F3_D3
3756,Right,0,74,80,1188.5,0.489583,Eighth,D5
3757,Right,0,69,80,1189.0,0.489583,Eighth,A4
3758,Right,0,81,80,1189.5,0.489583,Eighth,A5
3760,Left,1,49,80,1190.0,1.989583,Half,E3_C#3
3759,Right,0,80,80,1190.0,0.489583,Eighth,G#5
3762,Right,0,81,80,1190.5,0.489583,Eighth,A5
3763,Right,0,80,80,1191.0,0.489583,Eighth,G#5
3764,Right,0,81,80,1191.5,0.489583,Eighth,A5
3765,Right,0,69,80,1192.0,1.989583,Half,F5_A5_A4
3767,Left,1,50,80,1192.0,0.489583,Eighth,D3
3769,Left,1,45,80,1192.5,0.489583,Eighth,A2
3770,Left,1,41,80,1193.0,0.489583,Eighth,F2
3771,Left,1,53,80,1193.5,0.489583,Eighth,F3
3775,Left,1,52,80,1194.0,0.489583,Eighth,E3
3772,Right,0,67,80,1194.0,1.989583,Half,G5_G4_E5
3776,Left,1,49,80,1194.5,0.489583,Eighth,C#3
3777,Left,1,45,80,1195.0,0.489583,Eighth,A2
3778,Left,1,55,80,1195.5,0.489583,Eighth,G3
3779,Right,0,65,80,1196.0,1.989583,Half,F5_F4_D5
3782,Left,1,53,80,1196.0,0.489583,Eighth,F3
3783,Left,1,50,80,1196.5,0.489583,Eighth,D3
3784,Left,1,45,80,1197.0,0.489583,Eighth,A2
3785,Left,1,57,80,1197.5,0.489583,Eighth,A3
3787,Right,0,76,80,1198.0,1.989583,Half,E5_E4_C#5
3786,Left,1,56,80,1198.0,0.489583,Eighth,G#3
3790,Left,1,57,80,1198.5,0.489583,Eighth,A3
3791,Left,1,56,80,1199.0,0.489583,Eighth,G#3
3792,Left,1,57,80,1199.5,0.489583,Eighth,A3
3793,Left,1,45,80,1200.0,1.989583,Half,A2
3794,Right,0,74,80,1200.0,0.489583,Eighth,D5
3795,Right,0,69,80,1200.5,0.489583,Eighth,A4
3798,Right,0,65,80,1201.0,0.489583,Eighth,F4
3796,Left,1,53,80,1201.0,1.989583,Half,F3_A3
3799,Right,0,77,80,1201.5,0.489583,Eighth,F5
3800,Left,1,45,80,1202.0,1.989583,Half,A2
3801,Right,0,76,80,1202.0,0.489583,Eighth,E5
3802,Right,0,73,80,1202.5,0.489583,Eighth,C#5
3804,Left,1,52,80,1203.0,1.989583,Half,G3_E3
3803,Right,0,69,80,1203.0,0.489583,Eighth,A4
3806,Right,0,79,80,1203.5,0.489583,Eighth,G5
3808,Left,1,45,80,1204.0,1.989583,Half,A2
3807,Right,0,77,80,1204.0,0.489583,Eighth,F5
3809,Right,0,74,80,1204.5,0.489583,Eighth,D5
3810,Left,1,53,80,1205.0,1.989583,Half,F3_D3
3811,Right,0,69,80,1205.0,0.489583,Eighth,A4
3813,Right,0,81,80,1205.5,0.489583,Eighth,A5
3814,Left,1,45,80,1206.0,1.989583,Half,A2
3815,Right,0,80,80,1206.0,0.489583,Eighth,G#5
3816,Right,0,81,80,1206.5,0.489583,Eighth,A5
3817,Left,1,52,80,1207.0,0.989583,Quarter,E3_C#3
3819,Right,0,80,80,1207.0,0.489583,Eighth,G#5
3820,Right,0,81,80,1207.5,0.489583,Eighth,A5
3822,Left,1,50,80,1208.0,0.489583,Eighth,D3
3821,Right,0,69,80,1208.0,2.989583,DottedHalf,A4
3823,Left,1,45,80,1208.5,0.489583,Eighth,A2
3824,Left,1,41,80,1209.0,0.489583,Eighth,F2
3825,Right,0,81,80,1209.0,1.989583,Half,F5_A5
3827,Left,1,53,80,1209.5,0.489583,Eighth,F3
3828,Left,1,52,80,1210.0,0.489583,Eighth,E3
3829,Left,1,49,80,1210.5,0.489583,Eighth,C#3
3831,Right,0,67,80,1211.0,1.989583,Half,G5_G4_E5
3830,Left,1,45,80,1211.0,0.489583,Eighth,A2
3834,Left,1,55,80,1211.5,0.489583,Eighth,G3
3835,Left,1,53,80,1212.0,0.489583,Eighth,F3
3836,Left,1,50,80,1212.5,0.489583,Eighth,D3
3837,Left,1,45,80,1213.0,0.489583,Eighth,A2
3838,Right,0,74,80,1213.0,1.989583,Half,F5_F4_D5
3841,Left,1,57,80,1213.5,0.489583,Eighth,A3
3842,Left,1,56,80,1214.0,0.489583,Eighth,G#3
3843,Left,1,57,80,1214.5,0.489583,Eighth,A3
3845,Left,1,56,80,1215.0,0.489583,Eighth,G#3
3844,Right,0,76,80,1215.0,0.989583,Quarter,E5_E4_C#5
3848,Left,1,57,80,1215.5,0.489583,Eighth,A3
3849,Left,1,45,80,1216.0,1.989583,Half,A2
3850,Right,0,74,80,1216.0,0.489583,Eighth,D5
3851,Right,0,69,80,1216.5,0.489583,Eighth,A4
3852,Right,0,65,80,1217.0,0.489583,Eighth,F4
3853,Left,1,57,80,1217.0,1.989583,Half,F3_A3
3855,Right,0,77,80,1217.5,0.489583,Eighth,F5
3857,Left,1,45,80,1218.0,1.989583,Half,A2
3856,Right,0,76,80,1218.0,0.489583,Eighth,E5
3858,Right,0,73,80,1218.5,0.489583,Eighth,C#5
3861,Right,0,69,80,1219.0,0.489583,Eighth,A4
3859,Left,1,52,80,1219.0,1.989583,Half,G3_E3
3862,Right,0,79,80,1219.5,0.489583,Eighth,G5
3864,Right,0,77,80,1220.0,0.489583,Eighth,F5
3863,Left,1,45,80,1220.0,1.989583,Half,A2
3865,Right,0,74,80,1220.5,0.489583,Eighth,D5
3866,Left,1,50,80,1221.0,1.989583,Half,F3_D3
3867,Right,0,69,80,1221.0,0.489583,Eighth,A4
3869,Right,0,81,80,1221.5,0.489583,Eighth,A5
3871,Left,1,45,80,1222.0,1.989583,Half,A2
3870,Right,0,80,80,1222.0,0.489583,Eighth,G#5
3872,Right,0,81,80,1222.5,0.489583,Eighth,A5
3873,Left,1,52,80,1223.0,0.989583,Quarter,E3_C#3
3875,Right,0,80,80,1223.0,0.489583,Eighth,G#5
3876,Right,0,81,80,1223.5,0.489583,Eighth,A5
3878,Right,0,77,80,1224.0,0.489583,Eighth,F5
3877,Left,1,38,80,1224.0,1.989583,Half,D2
3879,Right,0,74,80,1224.5,0.489583,Eighth,D5
3880,Right,0,69,80,1225.0,0.489583,Eighth,A4
3881,Left,1,50,80,1225.0,0.989583,Quarter,D3
3882,Right,0,81,80,1225.5,0.489583,Eighth,A5
3884,Right,0,80,80,1226.0,0.489583,Eighth,G#5
3883,Left,1,45,80,1226.0,1.989583,Half,A2
3885,Right,0,81,80,1226.5,0.489583,Eighth,A5
3888,Right,0,80,80,1227.0,0.489583,Eighth,G#5
3886,Left,1,49,80,1227.0,0.989583,Quarter,E3_C#3
3889,Right,0,81,80,1227.5,0.489583,Eighth,A5
3890,Left,1,50,80,1228.0,1.989583,Half,D3
3891,Right,0,77,80,1228.0,0.489583,Eighth,F5
3892,Right,0,74,80,1228.5,0.489583,Eighth,D5
3893,Left,1,53,80,1229.0,0.989583,Quarter,F3
3894,Right,0,69,80,1229.0,0.489583,Eighth,A4
3895,Right,0,81,80,1229.5,0.489583,Eighth,A5
3896,Right,0,80,80,1230.0,0.489583,Eighth,G#5
3897,Left,1,45,80,1230.0,1.989583,Half,A2
3898,Right,0,81,80,1230.5,0.489583,Eighth,A5
3899,Left,1,52,80,1231.0,0.989583,Quarter,E3_C#3
3901,Right,0,80,80,1231.0,0.489583,Eighth,G#5
3902,Right,0,81,80,1231.5,0.489583,Eighth,A5
3903,Right,0,74,80,1232.0,0.989583,Quarter,D5
3904,Left,1,38,80,1232.0,0.989583,Quarter,D3_D2
3906,Left,1,38,80,1234.0,1.989583,Half,D3_D2
3908,Right,0,62,80,1234.0,1.989583,Half,D4
3909,Right,0,62,94,1236.0,1.989583,Half,D4
3910,Left,1,38,94,1236.0,1.989583,Half,D3_D2
3912,Right,0,62,109,1238.0,1.989583,Half,D4
3913,Left,1,38,109,1238.0,1.989583,Half,D3_D2
3915,Right,0,53,70,1240.0,27.989583,Unknown,F3_D4_A3
3918,Left,1,38,70,1240.0,1.489583,DottedQuarter,D2
3919,Left,1,33,70,1240.5,1.489583,DottedQuarter,A1
3920,Left,1,29,70,1241.0,1.489583,DottedQuarter,F1
3921,Left,1,41,70,1241.5,1.489583,DottedQuarter,F2
3922,Left,1,38,70,1242.0,1.489583,DottedQuarter,D2
3923,Left,1,33,70,1242.5,1.489583,DottedQuarter,A1
3924,Left,1,45,70,1243.0,1.489583,DottedQuarter,A2
3925,Left,1,41,70,1243.5,1.489583,DottedQuarter,F2
3926,Left,1,38,70,1244.0,1.489583,DottedQuarter,D2
3927,Left,1,33,70,1244.5,1.489583,DottedQuarter,A1
3928,Left,1,29,70,1245.0,1.489583,DottedQuarter,F1
3929,Left,1,41,70,1245.5,1.489583,DottedQuarter,F2
3930,Left,1,38,70,1246.0,1.489583,DottedQuarter,D2
3931,Left,1,33,70,1246.5,1.489583,DottedQuarter,A1
3932,Left,1,45,70,1247.0,1.489583,DottedQuarter,A2
3933,Left,1,41,70,1247.5,1.489583,DottedQuarter,F2
3934,Left,1,38,70,1248.0,1.489583,DottedQuarter,D2
3935,Left,1,33,70,1248.5,1.489583,DottedQuarter,A1
3936,Left,1,29,70,1249.0,1.489583,DottedQuarter,F1
3937,Left,1,41,70,1249.5,1.489583,DottedQuarter,F2
3938,Left,1,38,70,1250.0,1.489583,DottedQuarter,D2
3939,Left,1,33,70,1250.5,1.489583,DottedQuarter,A1
3940,Left,1,45,70,1251.0,1.489583,DottedQuarter,A2
3941,Left,1,41,70,1251.5,1.489583,DottedQuarter,F2
3942,Left,1,38,70,1252.0,1.489583,DottedQuarter,D2
3943,Left,1,33,70,1252.5,1.489583,DottedQuarter,A1
3944,Left,1,29,70,1253.0,1.489583,DottedQuarter,F1
3945,Left,1,41,70,1253.5,1.489583,DottedQuarter,F2
3946,Left,1,38,70,1254.0,1.489583,DottedQuarter,D2
3947,Left,1,33,70,1254.5,1.489583,DottedQuarter,A1
3948,Left,1,45,70,1255.0,1.489583,DottedQuarter,A2
3949,Left,1,41,70,1255.5,1.489583,DottedQuarter,F2
3950,Left,1,38,70,1256.0,1.489583,DottedQuarter,D2
3951,Left,1,33,70,1256.5,1.489583,DottedQuarter,A1
3952,Left,1,45,70,1257.0,1.489583,DottedQuarter,A2
3953,Left,1,41,70,1257.5,1.489583,DottedQuarter,F2
3954,Left,1,38,70,1258.0,1.489583,DottedQuarter,D2
3955,Left,1,33,70,1258.5,1.489583,DottedQuarter,A1
3956,Left,1,45,70,1259.0,1.489583,DottedQuarter,A2
3957,Left,1,41,70,1259.5,1.489583,DottedQuarter,F2
3958,Left,1,38,70,1260.0,1.489583,DottedQuarter,D2
3959,Left,1,33,70,1260.5,1.489583,DottedQuarter,A1
3960,Left,1,45,70,1261.0,1.489583,DottedQuarter,A2
3961,Left,1,41,70,1261.5,1.489583,DottedQuarter,F2
3962,Left,1,38,70,1262.0,1.489583,DottedQuarter,D2
3963,Left,1,33,70,1262.5,1.489583,DottedQuarter,A1
3964,Left,1,45,70,1263.0,0.989583,Quarter,A2
3965,Left,1,41,70,1263.5,0.489583,Eighth,F2
3966,Left,1,38,70,1264.0,3.989583,Whole,D2
3971,Left,1,45,70,1268.0,3.989583,Whole,D3_D2_A2
3967,Right,0,77,70,1268.0,3.989583,Whole,F5_F4_D5_A4
3974,Left,1,38,70,1272.0,7.989583,Unknown,D3_D2_A2
3975,Right,0,74,70,1272.0,7.989583,Unknown,F4_D5_D4_A4
