,hand,channel,note,velocity,start_beat,duration,note_value,chord
0,Left,1,34,80,0.0,2.989583,DottedHalf,A#1
1,Left,1,41,80,0.0625,2.927083,DottedHalf,F2
2,Left,1,46,80,0.125,2.864583,DottedHalf,A#2
3,Right,0,50,80,0.1875,2.802083,DottedHalf,D3
4,Right,0,53,80,0.25,2.739583,DottedHalf,F3
5,Right,0,58,80,0.3125,2.677083,DottedHalf,A#3
6,Right,0,74,80,3.0,0.989583,Quarter,D5
7,Right,0,75,80,3.875,0.114583,ThirtySecond,D#5
8,Right,0,77,80,4.0,0.989583,Quarter,F5
9,Left,1,46,80,5.0,0.989583,Quarter,F2_A#2_A#1
12,Right,0,58,80,5.0,0.989583,Quarter,F3_D3_A#3
17,Right,0,51,80,6.0,2.989583,DottedHalf,F3_D#3_A3
15,Left,1,36,80,6.0,2.989583,DottedHalf,F2_C3_C2
21,Right,0,81,80,9.0,0.989583,Quarter,A5
22,Right,0,82,80,9.875,0.114583,ThirtySecond,A#5
23,Right,0,84,80,10.0,0.989583,Quarter,C6
24,Right,0,63,80,11.0,0.989583,Quarter,D#4_C4
26,Left,1,45,80,11.0,0.989583,Quarter,F3_A2
30,Right,0,58,80,12.0,2.989583,DottedHalf,A#3
28,Left,1,46,80,12.0,2.989583,DottedHalf,F3_A#2
31,Right,0,62,80,14.375,0.104167,ThirtySecond,D4
32,Right,0,65,80,14.4375,0.114583,ThirtySecond,F4
33,Right,0,63,80,14.5,0.104167,ThirtySecond,D#4
34,Right,0,62,80,14.5625,0.114583,ThirtySecond,D4
35,Right,0,63,80,14.625,0.104167,ThirtySecond,D#4
36,Right,0,65,80,14.6875,0.104167,ThirtySecond,F4
37,Right,0,67,80,14.75,0.104167,ThirtySecond,G4
38,Right,0,69,80,14.8125,0.104167,ThirtySecond,A4
39,Right,0,70,80,14.875,0.104167,ThirtySecond,A#4
40,Right,0,72,80,14.9375,0.052083,SixtyFourth,C5
41,Right,0,74,80,15.0,0.989583,Quarter,D5
42,Right,0,75,80,15.875,0.114583,ThirtySecond,D#5
43,Right,0,77,80,16.0,0.989583,Quarter,F5
44,Left,1,50,100,17.0,0.989583,Quarter,D3_B3
46,Right,0,68,100,17.0,0.989583,Quarter,G#4_F5
49,Right,0,67,80,18.0,1.489583,DottedQuarter,G4_F5
48,Left,1,51,80,18.0,1.489583,DottedQuarter,D#3_B3
52,Left,1,60,80,19.0,0.489583,Eighth,C4
53,Right,0,75,80,19.0,0.489583,Eighth,D#5
54,Left,1,62,80,19.5,0.489583,Eighth,F3_D4
56,Right,0,70,80,19.5,0.489583,Eighth,D5_A#4
59,Left,1,55,80,20.0,0.489583,Eighth,G3_D#4
58,Right,0,70,80,20.0,0.489583,Eighth,C5_A#4
63,Right,0,72,80,20.5,0.489583,Eighth,C5_A#4
62,Left,1,55,80,20.5,0.489583,Eighth,G3_E4
66,Right,0,72,80,21.0,0.989583,TripletThirtySecond,C5_A#4
68,Left,1,53,80,21.0,1.489583,DottedQuarter,F3_E4
70,Right,0,74,80,21.0625,0.104167,ThirtySecond,D5
71,Right,0,72,80,21.125,0.09375,TripletThirtySecond,C5
72,Right,0,74,80,21.1875,0.09375,TripletThirtySecond,D5
73,Right,0,72,80,21.25,0.09375,TripletThirtySecond,C5
74,Right,0,74,80,21.3125,0.083333,TripletThirtySecond,D5
75,Right,0,71,80,21.375,0.104167,ThirtySecond,B4
76,Right,0,72,80,21.4375,0.052083,SixtyFourth,C5
77,Right,0,74,80,21.5,0.239583,Sixteenth,D5
78,Right,0,72,80,21.75,0.239583,Sixteenth,C5
81,Left,1,65,80,22.0,0.489583,Eighth,F4
79,Right,0,72,80,22.0,0.489583,Eighth,C5_A4
82,Right,0,53,80,23.25,0.239583,Sixteenth,F3
83,Right,0,55,80,23.5,0.239583,Sixteenth,G3_D#3
85,Right,0,57,80,23.75,0.239583,Sixteenth,C3_A3
87,Left,1,34,80,24.0,2.989583,DottedHalf,A#1
88,Right,0,50,80,24.0,2.989583,Quarter,D3_A#3_A#2
91,Right,0,51,80,24.875,0.114583,ThirtySecond,D#3_C3
93,Right,0,53,80,25.0,0.989583,Quarter,F3_D3
95,Right,0,53,80,26.0,0.989583,Quarter,F3_D3
97,Left,1,53,80,27.0,1.989583,Half,F3_D3_A#2
100,Right,0,74,80,27.0,0.614583,Eighth,D5
101,Right,0,75,80,27.625,0.0625,SixtyFourth,D#5
102,Right,0,74,80,27.666667,0.0625,SixtyFourth,D5
103,Right,0,72,80,27.708333,0.0625,SixtyFourth,C5
104,Right,0,74,80,27.75,0.197917,TripletSixteenth,D5
105,Right,0,75,80,27.875,0.114583,ThirtySecond,D#5
106,Right,0,77,80,28.0,0.989583,Quarter,F5
108,Right,0,50,80,29.0,0.989583,Quarter,F3_D3_A#3
107,Left,1,46,80,29.0,0.989583,Quarter,A#2_A#1
112,Right,0,51,80,30.0,2.989583,DottedEighth,D#3_C3_A3
114,Left,1,41,80,30.0,2.989583,DottedHalf,F2_F1
117,Right,0,53,80,30.875,0.114583,ThirtySecond,F3_D3
119,Right,0,51,80,31.0,0.989583,Quarter,F#3_D#3
121,Right,0,51,80,32.0,0.989583,Quarter,F#3_D#3
123,Left,1,41,80,33.0,0.989583,Quarter,F2_F#3_D#3
126,Right,0,84,80,33.0,0.614583,Eighth,C6
127,Right,0,86,80,33.625,0.0625,SixtyFourth,D6
128,Right,0,84,80,33.666667,0.0625,SixtyFourth,C6
129,Right,0,83,80,33.708333,0.0625,SixtyFourth,B5
130,Right,0,84,80,33.75,0.1875,TripletSixteenth,C6
131,Right,0,86,80,33.875,0.114583,ThirtySecond,D6
132,Right,0,87,80,34.0,0.989583,Quarter,D#6
133,Right,0,63,80,35.0,0.989583,Quarter,F#4_D#4
135,Left,1,60,80,35.0,0.989583,Quarter,C4_A#3
138,Left,1,57,80,36.0,0.989583,Quarter,C4_A3
137,Right,0,63,80,36.0,1.989583,Eighth,F4_D#4
141,Left,1,58,80,36.875,0.114583,ThirtySecond,D4_A#3
143,Left,1,63,80,37.0,0.989583,Quarter,D#4_C4
145,Left,1,63,80,38.0,0.989583,Quarter,D#4
147,Left,1,60,80,39.0,1.989583,Half,F3_D#4_C4
146,Right,0,84,80,39.0,0.614583,Eighth,C6
150,Right,0,86,80,39.625,0.0625,SixtyFourth,D6
151,Right,0,84,80,39.666667,0.0625,SixtyFourth,C6
152,Right,0,83,80,39.708333,0.0625,SixtyFourth,B5
153,Right,0,84,80,39.75,0.1875,TripletSixteenth,C6
154,Right,0,86,80,39.875,0.114583,ThirtySecond,D6
156,Right,0,87,80,40.0,0.989583,Quarter,D#6
155,Left,1,57,80,40.0,0.989583,Quarter,A3
157,Left,1,63,80,41.0,0.989583,Quarter,F3_D#4_C4
158,Right,0,69,80,41.0,0.989583,Quarter,D#5_A4
162,Left,1,55,80,42.0,0.489583,Eighth,G3_D4_A#3
165,Right,0,74,80,42.0,0.489583,Eighth,D5_A#4
167,Right,0,79,110,43.0,1.989583,Half,G5
168,Left,1,52,101,44.0,0.489583,Eighth,E3_C#4_A#3
170,Right,0,70,101,44.0,0.489583,Eighth,G4_C#5_A#4
174,Right,0,77,80,45.0,1.989583,Half,F5
175,Right,0,74,80,46.0,0.489583,Eighth,F4_D5_A#4
178,Left,1,62,80,46.0,0.489583,Eighth,F3_D4_A#3
181,Right,0,69,80,47.0,0.489583,Eighth,D#4_C4_A4
184,Left,1,53,80,47.0,0.489583,Eighth,F3_F2
187,Left,1,34,80,48.0,0.489583,Eighth,A#2_A#1
186,Right,0,62,80,48.0,0.489583,Eighth,D4_A#4_A#3
191,Left,1,46,80,48.75,0.114583,ThirtySecond,A#2
192,Left,1,34,80,48.833333,0.135417,ThirtySecond,A#1
193,Left,1,46,80,48.916667,0.114583,ThirtySecond,A#2
194,Left,1,34,80,49.0,0.489583,Eighth,A#1
195,Left,1,46,80,49.75,0.114583,ThirtySecond,A#2
196,Left,1,34,80,49.833333,0.114583,ThirtySecond,A#1
197,Left,1,46,80,49.916667,0.114583,ThirtySecond,A#2
198,Left,1,34,80,50.0,0.489583,Eighth,A#1
199,Left,1,46,80,50.75,0.114583,ThirtySecond,A#2
200,Left,1,34,80,50.833333,0.125,ThirtySecond,A#1
201,Left,1,46,80,50.916667,0.125,ThirtySecond,A#2
203,Left,1,34,80,51.0,0.489583,Eighth,A#1
202,Right,0,58,80,51.0,0.989583,Quarter,G3_D#4_A#3
206,Right,0,53,80,52.0,0.989583,Quarter,F3_D4_A#3
209,Right,0,52,80,53.0,0.989583,Quarter,E3_C#4_A#3
212,Right,0,61,80,54.0,0.989583,Quarter,E3_C#4_A#3
215,Left,1,46,80,54.75,0.114583,ThirtySecond,A#2
216,Left,1,34,80,54.833333,0.135417,ThirtySecond,A#1
217,Left,1,46,80,54.916667,0.114583,ThirtySecond,A#2
218,Right,0,58,80,55.0,0.489583,Eighth,F3_D4_A#3
220,Left,1,34,80,55.0,0.489583,Eighth,A#1
222,Left,1,46,80,55.75,0.114583,ThirtySecond,A#2
223,Left,1,34,80,55.833333,0.114583,ThirtySecond,A#1
224,Left,1,46,80,55.916667,0.114583,ThirtySecond,A#2
225,Left,1,34,80,56.0,0.489583,Eighth,A#1
226,Left,1,46,80,56.75,0.114583,ThirtySecond,A#2
227,Left,1,34,80,56.833333,0.125,ThirtySecond,A#1
228,Left,1,46,80,56.916667,0.083333,TripletThirtySecond,A#2
229,Right,0,60,80,57.0,1.989583,Half,G3_D#3_C4
232,Left,1,34,80,57.0,0.489583,Eighth,A#1
233,Right,0,62,80,57.625,0.1875,TripletSixteenth,D4
234,Right,0,60,80,57.75,0.1875,TripletSixteenth,C4
235,Right,0,59,80,57.875,0.1875,TripletSixteenth,B3
236,Right,0,60,80,58.0,0.489583,Eighth,C4
237,Right,0,63,80,58.5,0.489583,Eighth,D#4
238,Right,0,54,80,59.0,0.989583,Quarter,F#3_D#3_C4
241,Right,0,57,80,59.5,0.489583,Eighth,A3
242,Right,0,60,80,60.0,0.989583,Quarter,F#3_D#3_C4_A3
246,Left,1,46,80,60.75,0.114583,ThirtySecond,A#2
247,Left,1,34,80,60.833333,0.135417,ThirtySecond,A#1
248,Left,1,46,80,60.916667,0.114583,ThirtySecond,A#2
252,Left,1,34,80,61.0,0.489583,Eighth,A#1
249,Right,0,50,80,61.0,0.489583,Eighth,F3_D3_A#3
253,Left,1,46,80,61.75,0.114583,ThirtySecond,A#2
254,Left,1,34,80,61.833333,0.114583,ThirtySecond,A#1
255,Left,1,46,80,61.916667,0.114583,ThirtySecond,A#2
256,Left,1,34,80,62.0,0.489583,Eighth,A#1
257,Left,1,46,80,62.75,0.114583,ThirtySecond,A#2
258,Left,1,34,80,62.833333,0.125,ThirtySecond,A#1
259,Left,1,46,80,62.916667,0.083333,TripletThirtySecond,A#2
261,Right,0,62,80,63.0,0.989583,Quarter,D4_A#4
260,Left,1,34,80,63.0,0.489583,Eighth,A#1
263,Right,0,58,95,64.0,0.989583,Quarter,G4_D4_A#3
266,Right,0,57,110,65.0,0.989583,Quarter,F4_D4_A3
269,Right,0,60,80,66.0,1.489583,DottedQuarter,G3_E4_C4
272,Left,1,48,80,66.75,0.072917,TripletThirtySecond,C3
273,Left,1,36,80,66.833333,0.072917,TripletThirtySecond,C2
274,Left,1,48,80,66.916667,0.072917,TripletThirtySecond,C3
275,Left,1,36,80,67.0,0.489583,Eighth,C2
276,Right,0,55,80,67.5,0.489583,Eighth,G3_E4_C4
279,Left,1,84,80,67.75,0.072917,TripletThirtySecond,C6
280,Left,1,72,80,67.833333,0.072917,TripletThirtySecond,C5
281,Left,1,84,80,67.916667,0.072917,TripletThirtySecond,C6
282,Right,0,60,80,68.0,0.489583,Eighth,F4_C4_A3
284,Left,1,72,80,68.0,0.489583,Eighth,C5
286,Right,0,67,80,68.5,0.489583,Eighth,G4_C4_A#3
289,Right,0,67,80,69.0,0.739583,DottedEighth,G4_C4_A#3
293,Right,0,60,80,69.75,0.239583,Sixteenth,G#3_E4_C4
292,Left,1,48,80,69.75,0.072917,TripletThirtySecond,C3
296,Left,1,36,80,69.833333,0.072917,TripletThirtySecond,C2
297,Left,1,48,80,69.916667,0.072917,TripletThirtySecond,C3
298,Left,1,36,80,70.0,0.489583,Eighth,C2
299,Right,0,65,80,70.0,0.489583,Eighth,F4_C4_A3
302,Right,0,65,80,70.5,0.489583,Eighth,F4_C4_A3
305,Left,1,84,80,70.75,0.072917,TripletThirtySecond,C6
306,Left,1,72,80,70.833333,0.072917,TripletThirtySecond,C5
307,Left,1,84,80,70.916667,0.072917,TripletThirtySecond,C6
308,Left,1,72,80,71.0,0.489583,Eighth,C5
309,Right,0,64,80,71.0,0.489583,Eighth,G4_E4_C4
312,Right,0,60,82,71.5,0.489583,Eighth,F4_C4_A4
315,Right,0,69,85,72.0,0.989583,DottedEighth,F4_C4_A4
319,Left,1,48,89,72.75,0.072917,TripletThirtySecond,C3
318,Right,0,66,89,72.75,0.239583,Sixteenth,F#4_D#4
321,Left,1,36,89,72.833333,0.072917,TripletThirtySecond,C2
322,Left,1,48,89,72.916667,0.072917,TripletThirtySecond,C3
324,Left,1,36,90,73.0,0.489583,Eighth,C2
323,Right,0,67,90,73.0,0.489583,Eighth,G4_E4
326,Right,0,67,92,73.5,0.489583,Eighth,G4_E4_C4
329,Left,1,84,94,73.75,0.072917,TripletThirtySecond,C6
330,Left,1,72,94,73.833333,0.072917,TripletThirtySecond,C5
331,Left,1,84,95,73.916667,0.072917,TripletThirtySecond,C6
335,Left,1,72,95,74.0,0.489583,Eighth,C5
332,Right,0,65,95,74.0,0.489583,Eighth,F4_C4_A4
336,Right,0,70,98,74.5,0.489583,Eighth,G4_C4_A#4
339,Right,0,70,100,75.0,1.489583,DottedEighth,G4_C4_A#4
342,Right,0,68,104,75.75,0.239583,Sixteenth,G#4_E4
344,Left,1,48,104,75.75,0.072917,TripletThirtySecond,C3
345,Left,1,36,104,75.833333,0.072917,TripletThirtySecond,C2
346,Left,1,48,105,75.916667,0.072917,TripletThirtySecond,C3
348,Right,0,69,105,76.0,0.489583,Eighth,F4_A4
347,Left,1,36,105,76.0,0.489583,Eighth,C2
350,Right,0,69,108,76.5,0.489583,Eighth,F4_C4_A4
353,Left,1,84,109,76.75,0.072917,TripletThirtySecond,C6
354,Left,1,72,110,76.833333,0.072917,TripletThirtySecond,C5
355,Left,1,84,110,76.916667,0.072917,TripletThirtySecond,C6
357,Right,0,71,111,77.0,0.489583,Eighth,G#4_F4_D4_B4
356,Left,1,72,111,77.0,0.489583,Eighth,C5
361,Right,0,62,96,77.5,0.489583,Eighth,G#4_F4_D4_B4
365,Left,1,84,80,77.75,0.072917,TripletThirtySecond,C6
366,Left,1,72,80,77.833333,0.072917,TripletThirtySecond,C5
367,Left,1,84,80,77.916667,0.072917,TripletThirtySecond,C6
368,Right,0,64,80,78.0,0.489583,Eighth,G4_E4_C5
371,Right,0,67,80,78.5,0.989583,Quarter,G4_E4_C4
374,Left,1,48,80,78.75,0.114583,ThirtySecond,C3
375,Left,1,36,80,78.875,0.114583,ThirtySecond,C2
376,Left,1,48,80,79.0,0.489583,Eighth,C3
377,Right,0,67,80,79.5,0.489583,Eighth,G4_E4_C4
380,Left,1,84,80,79.75,0.114583,ThirtySecond,C6
381,Left,1,72,80,79.875,0.114583,ThirtySecond,C5
382,Right,0,62,80,80.0,0.489583,Eighth,F4_D4_B4
385,Left,1,84,80,80.0,0.489583,Eighth,C6
386,Right,0,62,80,80.5,0.489583,Eighth,G4_F4_D4
389,Right,0,67,80,81.0,0.489583,Eighth,G4_E4_C5
392,Right,0,64,80,81.5,0.989583,Quarter,G4_E4_C4
395,Left,1,48,80,81.75,0.114583,ThirtySecond,C3
396,Left,1,36,80,81.875,0.114583,ThirtySecond,C2
397,Left,1,48,80,82.0,0.489583,Eighth,C3
398,Right,0,64,80,82.5,0.489583,Eighth,G4_E4_C4
401,Left,1,84,80,82.75,0.114583,ThirtySecond,C6
402,Left,1,72,80,82.875,0.114583,ThirtySecond,C5
403,Right,0,71,80,83.0,0.489583,Eighth,F4_D4_B4
405,Left,1,84,80,83.0,0.489583,Eighth,C6
407,Right,0,67,80,83.5,0.489583,Eighth,G4_F4_D4
410,Right,0,72,80,84.0,0.489583,Eighth,G4_E4_C5
413,Right,0,64,80,84.5,0.989583,Quarter,G4_E4_C4
416,Left,1,48,80,84.75,0.114583,ThirtySecond,C3
417,Left,1,36,80,84.875,0.114583,ThirtySecond,C2
418,Left,1,48,80,85.0,0.489583,Eighth,C3
419,Right,0,64,80,85.5,0.989583,Quarter,G3_E4_C4
422,Left,1,48,80,85.75,0.114583,ThirtySecond,C3
423,Left,1,36,80,85.875,0.114583,ThirtySecond,C2
424,Left,1,48,80,86.0,0.489583,Eighth,C3
425,Right,0,60,80,86.5,0.989583,Quarter,G3_E3_C4
428,Left,1,48,80,86.75,0.114583,ThirtySecond,C3
429,Left,1,36,80,86.875,0.114583,ThirtySecond,C2
430,Left,1,48,80,87.0,0.489583,Eighth,C3
431,Left,1,60,80,87.5,0.489583,Eighth,C4
432,Left,1,59,80,88.0,0.489583,Eighth,B3
433,Left,1,60,80,88.5,0.989583,Quarter,C4_A#3
435,Left,1,57,80,89.0,0.489583,Eighth,A3
436,Right,0,62,80,89.25,0.114583,ThirtySecond,D4
437,Right,0,64,80,89.375,0.114583,ThirtySecond,E4
438,Right,0,65,80,89.5,0.114583,ThirtySecond,F4
439,Left,1,55,80,89.5,0.489583,Eighth,G3_A#3
441,Right,0,67,80,89.625,0.114583,ThirtySecond,G4
442,Right,0,69,80,89.75,0.114583,ThirtySecond,A4
443,Right,0,70,80,89.875,0.114583,ThirtySecond,A#4
445,Right,0,72,80,90.0,1.989583,Half,C5
444,Left,1,41,80,90.0,0.489583,Eighth,F2
446,Left,1,53,80,90.5,0.489583,Eighth,F3
449,Right,0,65,80,91.0,0.989583,Quarter,F4
447,Left,1,60,80,91.0,0.489583,Eighth,C4_A3
450,Left,1,53,80,91.5,0.489583,Eighth,F3
451,Right,0,69,80,91.875,0.114583,ThirtySecond,A4
452,Right,0,65,80,92.0,0.989583,Quarter,F5_F4
453,Left,1,58,80,92.0,0.489583,Eighth,D4_A#3
456,Left,1,53,80,92.5,0.489583,Eighth,F3
457,Right,0,74,80,92.875,0.114583,ThirtySecond,D5
459,Left,1,60,80,93.0,0.489583,Eighth,C4_A3
458,Right,0,72,80,93.0,1.989583,Half,C5
461,Left,1,53,80,93.5,0.489583,Eighth,F3
462,Left,1,60,80,94.0,0.489583,Eighth,C4_A3
464,Right,0,65,80,94.0,0.989583,Quarter,F4
465,Left,1,53,80,94.5,0.489583,Eighth,F3
466,Right,0,69,80,94.875,0.114583,ThirtySecond,A4
467,Right,0,70,80,95.0,0.989583,Quarter,F4_A#4
468,Left,1,50,80,95.0,0.489583,Eighth,D3
470,Left,1,46,80,95.5,0.489583,Eighth,A#2
471,Right,0,62,80,95.5,0.489583,Eighth,D4
472,Right,0,67,80,95.875,0.114583,ThirtySecond,G4
473,Right,0,65,80,96.0,1.989583,Half,F4
474,Left,1,36,80,96.0,0.489583,Eighth,C2
476,Left,1,48,80,96.5,0.489583,Eighth,C3
475,Right,0,57,80,96.5,0.489583,Eighth,A3
479,Right,0,60,80,97.0,0.989583,Quarter,C4
477,Left,1,57,80,97.0,0.489583,Eighth,F3_A3
480,Left,1,48,80,97.5,0.489583,Eighth,C3
482,Right,0,60,80,98.0,0.989583,Quarter,C4_A4
481,Left,1,55,80,98.0,0.489583,Eighth,G3_E3
485,Right,0,67,80,98.25,0.239583,Sixteenth,G4
487,Left,1,48,80,98.5,0.489583,Eighth,C3
486,Right,0,65,80,98.5,0.239583,Sixteenth,F4
488,Right,0,67,80,98.75,0.239583,Sixteenth,G4
491,Left,1,52,80,99.0,0.489583,Eighth,E3
489,Right,0,67,80,99.0,1.489583,Quarter,G4_C4
492,Left,1,48,80,99.5,0.489583,Eighth,C3
493,Right,0,68,80,99.875,0.114583,ThirtySecond,G#4
494,Left,1,53,80,100.0,0.489583,Eighth,F3
495,Right,0,69,80,100.0,0.489583,Eighth,A4
496,Left,1,45,80,100.5,0.489583,Eighth,A2
497,Left,1,46,80,101.0,0.489583,Eighth,A#2
498,Right,0,60,80,101.125,0.114583,ThirtySecond,C4
499,Right,0,62,80,101.25,0.114583,ThirtySecond,D4
500,Right,0,64,80,101.375,0.114583,ThirtySecond,E4
502,Right,0,65,80,101.5,0.114583,ThirtySecond,F4
501,Left,1,43,80,101.5,0.489583,Eighth,G2
503,Right,0,67,80,101.625,0.114583,ThirtySecond,G4
504,Right,0,69,80,101.75,0.114583,ThirtySecond,A4
505,Right,0,70,80,101.875,0.114583,ThirtySecond,A#4
506,Left,1,41,80,102.0,0.489583,Eighth,F2
507,Right,0,72,80,102.0,1.989583,Half,C5
508,Left,1,53,80,102.5,0.489583,Eighth,F3
509,Right,0,64,80,102.875,0.114583,ThirtySecond,E4
510,Left,1,60,80,103.0,0.489583,Eighth,C4_A3
512,Right,0,65,80,103.0,0.989583,Quarter,F4
513,Left,1,53,80,103.5,0.489583,Eighth,F3
514,Right,0,69,80,103.875,0.114583,ThirtySecond,A4
517,Right,0,65,80,104.0,0.989583,Quarter,F5_F4
515,Left,1,58,80,104.0,0.489583,Eighth,D4_A#3
519,Left,1,53,80,104.5,0.489583,Eighth,F3
520,Right,0,74,80,104.875,0.114583,ThirtySecond,D5
522,Left,1,60,80,105.0,0.489583,Eighth,C4_A3
521,Right,0,72,80,105.0,1.989583,Half,C5
524,Left,1,53,80,105.5,0.489583,Eighth,F3
525,Right,0,64,80,105.875,0.114583,ThirtySecond,E4
527,Left,1,57,80,106.0,0.489583,Eighth,C4_A3
526,Right,0,65,80,106.0,0.989583,Quarter,F4
529,Left,1,53,80,106.5,0.489583,Eighth,F3
530,Right,0,69,80,106.875,0.114583,ThirtySecond,A4
531,Left,1,50,80,107.0,0.489583,Eighth,D3
532,Right,0,65,80,107.0,0.989583,Eighth,F4_A#4
534,Left,1,46,80,107.5,0.489583,Eighth,A#2
535,Right,0,62,80,107.5,0.489583,Eighth,D4
536,Right,0,67,80,107.875,0.114583,ThirtySecond,G4
537,Right,0,57,80,108.0,1.989583,Eighth,F4_A3
539,Left,1,48,80,108.0,1.989583,Half,C3
540,Right,0,57,80,108.5,0.489583,Eighth,F3_A3
542,Right,0,60,80,109.0,0.489583,Eighth,C4_A3
544,Right,0,53,80,109.5,0.489583,Eighth,F3_A3
546,Right,0,55,80,110.0,0.989583,Eighth,G3_E3_C4
548,Left,1,36,80,110.0,0.989583,Quarter,C2
550,Right,0,52,80,110.5,0.489583,Eighth,E3_C3
552,Right,0,57,80,111.0,0.489583,Eighth,F3_C3_A3
554,Left,1,29,80,111.0,0.489583,Eighth,F2_F1
557,Left,1,41,80,111.75,0.114583,ThirtySecond,F2
558,Left,1,29,80,111.833333,0.114583,ThirtySecond,F1
559,Left,1,41,80,111.916667,0.114583,ThirtySecond,F2
560,Left,1,29,80,112.0,0.489583,Eighth,F1
561,Left,1,41,80,112.75,0.114583,ThirtySecond,F2
562,Left,1,29,80,112.833333,0.114583,ThirtySecond,F1
563,Left,1,41,80,112.916667,0.114583,ThirtySecond,F2
564,Left,1,29,80,113.0,0.489583,Eighth,F1
565,Right,0,65,80,113.5,0.489583,Eighth,F4
566,Right,0,65,80,114.0,0.989583,Quarter,F4
567,Left,1,41,80,114.75,0.114583,ThirtySecond,F2
568,Left,1,29,80,114.833333,0.114583,ThirtySecond,F1
569,Left,1,41,80,114.916667,0.114583,ThirtySecond,F2
574,Left,1,29,80,115.0,0.489583,Eighth,F1
570,Right,0,66,80,115.0,1.989583,Half,F#4_D#4_C4_A3
575,Left,1,41,80,115.75,0.114583,ThirtySecond,F2
576,Left,1,29,80,115.833333,0.114583,ThirtySecond,F1
577,Left,1,41,80,115.916667,0.114583,ThirtySecond,F2
578,Left,1,29,80,116.0,0.489583,Eighth,F1
579,Right,0,66,80,116.5,0.489583,Eighth,F#4
580,Right,0,66,80,117.0,0.989583,Quarter,F#4
581,Left,1,41,80,117.75,0.114583,ThirtySecond,F2
582,Left,1,29,80,117.833333,0.114583,ThirtySecond,F1
583,Left,1,41,80,117.916667,0.114583,ThirtySecond,F2
585,Right,0,69,80,118.0,1.989583,Half,F#4_D#4_C4_A4
584,Left,1,29,80,118.0,0.489583,Eighth,F1
589,Left,1,41,80,118.75,0.114583,ThirtySecond,F2
590,Left,1,29,80,118.833333,0.114583,ThirtySecond,F1
591,Left,1,41,80,118.916667,0.114583,ThirtySecond,F2
592,Left,1,29,80,119.0,0.489583,Eighth,F1
593,Right,0,69,80,119.5,0.489583,Eighth,A4
594,Right,0,69,80,120.0,0.989583,Quarter,A4
595,Left,1,41,80,120.75,0.114583,ThirtySecond,F2
596,Left,1,29,80,120.833333,0.114583,ThirtySecond,F1
597,Left,1,41,80,120.916667,0.114583,ThirtySecond,F2
598,Left,1,29,80,121.0,0.489583,Eighth,F1
599,Right,0,69,80,121.0,1.989583,Half,F#4_D#4_C5_A4
603,Left,1,41,80,121.75,0.114583,ThirtySecond,F2
604,Left,1,29,80,121.833333,0.114583,ThirtySecond,F1
605,Left,1,41,80,121.916667,0.114583,ThirtySecond,F2
606,Left,1,29,80,122.0,0.489583,Eighth,F1
607,Right,0,72,80,122.5,0.489583,Eighth,C5
608,Right,0,72,80,123.0,0.489583,Eighth,C5
609,Right,0,75,80,123.5,0.739583,DottedEighth,D#5
610,Left,1,60,80,123.75,0.072917,TripletThirtySecond,C4_A3
612,Left,1,53,80,123.833333,0.072917,TripletThirtySecond,F3
613,Left,1,60,80,123.916667,0.072917,TripletThirtySecond,C4_A3
615,Left,1,53,80,124.0,0.489583,Eighth,F3
616,Right,0,74,80,124.25,0.114583,ThirtySecond,D5
617,Right,0,72,80,124.375,0.114583,ThirtySecond,C5
618,Right,0,70,80,124.5,0.114583,ThirtySecond,A#4
619,Right,0,69,80,124.625,0.114583,ThirtySecond,A4
620,Right,0,67,80,124.75,0.114583,ThirtySecond,G4
621,Right,0,65,80,124.875,0.114583,ThirtySecond,F4
622,Right,0,64,80,125.0,0.114583,ThirtySecond,E4
623,Right,0,63,80,125.125,0.114583,ThirtySecond,D#4
624,Right,0,62,80,125.25,0.114583,ThirtySecond,D4
625,Right,0,60,80,125.375,0.114583,ThirtySecond,C4
626,Right,0,58,80,125.5,0.114583,ThirtySecond,A#3
627,Right,0,57,80,125.625,0.114583,ThirtySecond,A3
628,Right,0,63,80,125.75,0.114583,ThirtySecond,D#4
629,Right,0,57,80,125.875,0.114583,ThirtySecond,A3
631,Left,1,46,80,126.0,2.989583,DottedHalf,A#2_A#1
630,Right,0,50,80,126.0,2.989583,DottedHalf,D3_A#3
634,Right,0,51,80,126.875,0.114583,ThirtySecond,D#3
635,Right,0,53,80,127.0,0.989583,Quarter,F3
636,Right,0,53,80,128.0,0.989583,Quarter,F3
640,Right,0,74,80,129.0,0.614583,Eighth,D5
637,Left,1,46,80,129.0,1.989583,Half,F3_D3_A#2
641,Right,0,75,80,129.625,0.0625,SixtyFourth,D#5
642,Right,0,74,80,129.666667,0.0625,SixtyFourth,D5
643,Right,0,72,80,129.708333,0.0625,SixtyFourth,C5
644,Right,0,74,80,129.75,0.197917,TripletSixteenth,D5
645,Right,0,75,80,129.875,0.114583,ThirtySecond,D#5
646,Right,0,77,80,130.0,0.989583,Quarter,F5
649,Right,0,58,80,131.0,0.989583,Quarter,D3_A#3
647,Left,1,34,80,131.0,0.989583,Quarter,A#2_A#1
651,Left,1,41,80,132.0,2.989583,DottedHalf,F2_C3_C2
653,Right,0,51,80,132.0,2.989583,DottedHalf,D#3_A3
656,Right,0,53,80,132.875,0.114583,ThirtySecond,F3
657,Right,0,54,80,133.0,0.989583,Quarter,F#3
658,Right,0,54,80,134.0,0.989583,Quarter,F#3
661,Right,0,81,80,135.0,0.614583,Eighth,A5
659,Left,1,63,80,135.0,1.989583,Half,F#3_D#4_C4
663,Right,0,82,80,135.625,0.03125,TripletSixtyFourth,A#5
664,Right,0,81,80,135.666667,0.03125,TripletSixtyFourth,A5
665,Right,0,79,80,135.708333,0.03125,TripletSixtyFourth,G5
666,Right,0,81,80,135.75,0.114583,ThirtySecond,A5
667,Right,0,82,80,135.875,0.114583,ThirtySecond,A#5
668,Left,1,53,80,136.0,0.989583,Quarter,F3
669,Right,0,84,80,136.0,0.989583,Quarter,C6
670,Right,0,63,80,137.0,0.989583,Quarter,F3_D#4_C4
673,Left,1,45,80,137.0,0.989583,Quarter,A2
677,Left,1,34,80,138.0,2.989583,DottedHalf,A#2_A#1
674,Right,0,53,80,138.0,2.989583,DottedHalf,G#3_F3_D4
679,Right,0,58,80,138.875,0.114583,ThirtySecond,A#3
680,Right,0,59,80,139.0,0.989583,Quarter,B3
681,Right,0,59,80,140.0,0.989583,Quarter,B3
685,Right,0,74,80,141.0,0.614583,Eighth,D5
682,Left,1,68,80,141.0,1.989583,Half,G#4_F4_B3
686,Right,0,75,80,141.625,0.0625,SixtyFourth,D#5
687,Right,0,74,80,141.666667,0.0625,SixtyFourth,D5
688,Right,0,72,80,141.708333,0.0625,SixtyFourth,C5
689,Right,0,74,80,141.75,0.197917,TripletSixteenth,D5
690,Right,0,75,80,141.875,0.114583,ThirtySecond,D#5
691,Right,0,77,80,142.0,0.989583,Quarter,F5
692,Left,1,58,80,142.0,0.989583,Quarter,A#3
693,Left,1,58,80,143.0,0.989583,Quarter,D3_A#3
695,Right,0,77,80,143.0,0.989583,Quarter,G#4_F5
697,Left,1,58,80,144.0,1.489583,Eighth,D#3_A#3
699,Right,0,77,80,144.0,1.489583,Quarter,G4_F5
701,Left,1,59,80,144.5,0.489583,Eighth,B3
703,Right,0,75,80,145.0,0.489583,Eighth,D#5
702,Left,1,60,80,145.0,0.489583,Eighth,C4
704,Right,0,74,80,145.5,0.489583,Eighth,D5_A#4
706,Left,1,62,80,145.5,0.489583,Eighth,F3_D4
710,Right,0,72,80,146.0,0.489583,Eighth,C5_A#4
708,Left,1,63,80,146.0,0.489583,Eighth,G3_D#4
712,Left,1,64,80,146.5,0.489583,Eighth,G3_E4
714,Right,0,72,80,146.5,0.489583,Eighth,C5_A#4
716,Right,0,70,80,147.0,0.989583,Quarter,C5_A#4
717,Left,1,64,80,147.0,1.489583,Quarter,F3_E4
720,Right,0,74,80,147.0625,0.104167,ThirtySecond,D5
721,Right,0,72,80,147.125,0.09375,TripletThirtySecond,C5
722,Right,0,74,80,147.1875,0.09375,TripletThirtySecond,D5
723,Right,0,72,80,147.25,0.09375,TripletThirtySecond,C5
724,Right,0,74,80,147.3125,0.083333,TripletThirtySecond,D5
725,Right,0,71,80,147.375,0.104167,ThirtySecond,B4
726,Right,0,72,80,147.4375,0.052083,SixtyFourth,C5
727,Right,0,74,80,147.5,0.239583,Sixteenth,D5
728,Right,0,72,80,147.75,0.239583,Sixteenth,C5
731,Left,1,65,80,148.0,0.489583,Eighth,F4
729,Right,0,72,80,148.0,0.489583,Eighth,C5_A4
732,Right,0,53,80,149.125,0.114583,ThirtySecond,F3
733,Right,0,55,80,149.25,0.114583,ThirtySecond,G3
734,Right,0,53,80,149.375,0.114583,ThirtySecond,F3
735,Right,0,52,80,149.5,0.114583,ThirtySecond,E3
736,Right,0,53,80,149.625,0.114583,ThirtySecond,F3
737,Right,0,55,80,149.75,0.114583,ThirtySecond,G3_D#3
739,Right,0,48,80,149.875,0.114583,ThirtySecond,C3_A3
742,Right,0,58,80,150.0,2.989583,Quarter,D3_A#3_A#2
741,Left,1,34,80,150.0,0.489583,Eighth,A#1
745,Right,0,48,80,150.875,0.114583,ThirtySecond,D#3_C3
747,Right,0,50,80,151.0,0.989583,Quarter,F3_D3
749,Left,1,82,80,151.125,0.177083,TripletSixteenth,A#5
750,Left,1,86,80,151.25,0.166667,TripletSixteenth,D6
751,Left,1,82,80,151.375,0.177083,TripletSixteenth,A#5
752,Left,1,77,80,151.5,0.177083,TripletSixteenth,F5
753,Left,1,82,80,151.625,0.1875,TripletSixteenth,A#5
754,Left,1,74,80,151.75,0.177083,TripletSixteenth,D5
755,Left,1,77,80,151.875,0.177083,TripletSixteenth,F5
757,Right,0,53,80,152.0,0.989583,Quarter,F3_D3
756,Left,1,70,80,152.0,0.166667,TripletSixteenth,A#4
759,Left,1,74,80,152.125,0.1875,TripletSixteenth,D5
760,Left,1,65,80,152.25,0.166667,TripletSixteenth,F4
761,Left,1,70,80,152.375,0.166667,TripletSixteenth,A#4
762,Left,1,62,80,152.5,0.1875,TripletSixteenth,D4
763,Left,1,65,80,152.625,0.1875,TripletSixteenth,F4
764,Left,1,58,80,152.75,0.1875,TripletSixteenth,A#3
765,Left,1,62,80,152.875,0.114583,ThirtySecond,D4
767,Left,1,53,80,153.0,0.197917,TripletSixteenth,F3
766,Right,0,74,80,153.0,0.614583,Eighth,D5
768,Left,1,58,80,153.125,0.21875,Sixteenth,A#3
769,Left,1,50,80,153.25,0.197917,TripletSixteenth,D3
770,Left,1,53,80,153.375,0.1875,TripletSixteenth,F3
771,Left,1,46,80,153.5,0.177083,TripletSixteenth,A#2
772,Left,1,50,80,153.625,0.177083,TripletSixteenth,D3
773,Right,0,75,80,153.625,0.0625,SixtyFourth,D#5
774,Right,0,74,80,153.666667,0.0625,SixtyFourth,D5
775,Right,0,72,80,153.708333,0.0625,SixtyFourth,C5
776,Left,1,41,80,153.75,0.177083,TripletSixteenth,F2
777,Right,0,74,80,153.75,0.197917,TripletSixteenth,D5
778,Right,0,75,80,153.875,0.114583,ThirtySecond,D#5
779,Left,1,46,80,153.875,0.177083,TripletSixteenth,A#2
780,Right,0,77,80,154.0,0.989583,Quarter,F5
781,Left,1,38,80,154.0,0.166667,TripletSixteenth,D2
782,Left,1,34,80,154.125,0.1875,TripletSixteenth,A#1
783,Left,1,38,80,154.25,0.197917,TripletSixteenth,D2
784,Left,1,41,80,154.375,0.177083,TripletSixteenth,F2
785,Left,1,46,80,154.5,0.197917,TripletSixteenth,A#2
786,Left,1,38,80,154.625,0.1875,TripletSixteenth,D2
787,Left,1,41,80,154.75,0.1875,TripletSixteenth,F2
788,Left,1,46,80,154.875,0.197917,TripletSixteenth,A#2
789,Left,1,50,80,155.0,0.208333,Sixteenth,D3
790,Right,0,58,80,155.0,0.989583,Quarter,A#3
791,Left,1,46,80,155.125,0.21875,Sixteenth,A#2
792,Left,1,41,80,155.25,0.197917,TripletSixteenth,F2
793,Left,1,38,80,155.375,0.1875,TripletSixteenth,D2
794,Left,1,46,80,155.5,0.208333,Sixteenth,A#2
795,Left,1,41,80,155.625,0.1875,TripletSixteenth,F2
796,Left,1,38,80,155.75,0.208333,Sixteenth,D2
797,Left,1,34,80,155.875,0.114583,ThirtySecond,A#1
799,Right,0,51,80,156.0,2.989583,Quarter,D#3_C3_A3
798,Left,1,29,80,156.0,0.489583,Eighth,F1
802,Right,0,53,80,156.875,0.114583,ThirtySecond,F3_D3
804,Right,0,51,80,157.0,0.989583,Quarter,F#3_D#3
806,Left,1,84,80,157.125,0.21875,Sixteenth,C6
807,Left,1,87,80,157.25,0.1875,TripletSixteenth,D#6
808,Left,1,84,80,157.375,0.1875,TripletSixteenth,C6
809,Left,1,81,80,157.5,0.197917,TripletSixteenth,A5
810,Left,1,84,80,157.625,0.177083,TripletSixteenth,C6
811,Left,1,78,80,157.75,0.177083,TripletSixteenth,F#5
812,Left,1,81,80,157.875,0.177083,TripletSixteenth,A5
813,Right,0,51,80,158.0,0.989583,Quarter,F#3_D#3
814,Left,1,75,80,158.0,0.177083,TripletSixteenth,D#5
816,Left,1,78,80,158.125,0.1875,TripletSixteenth,F#5
817,Left,1,72,80,158.25,0.1875,TripletSixteenth,C5
818,Left,1,75,80,158.375,0.1875,TripletSixteenth,D#5
819,Left,1,69,80,158.5,0.197917,TripletSixteenth,A4
820,Left,1,72,80,158.625,0.197917,TripletSixteenth,C5
821,Left,1,66,80,158.75,0.197917,TripletSixteenth,F#4
822,Left,1,69,80,158.875,0.208333,Sixteenth,A4
823,Left,1,63,80,159.0,0.1875,TripletSixteenth,D#4
824,Right,0,84,80,159.0,0.614583,Eighth,C6
825,Left,1,66,80,159.125,0.1875,TripletSixteenth,F#4
826,Left,1,60,80,159.25,0.1875,TripletSixteenth,C4
827,Left,1,63,80,159.375,0.166667,TripletSixteenth,D#4
828,Left,1,57,80,159.5,0.208333,Sixteenth,A3
829,Left,1,60,80,159.625,0.1875,TripletSixteenth,C4
830,Right,0,86,80,159.625,0.0625,SixtyFourth,D6
831,Right,0,84,80,159.666667,0.0625,SixtyFourth,C6
832,Right,0,83,80,159.708333,0.0625,SixtyFourth,B5
833,Left,1,54,80,159.75,0.1875,TripletSixteenth,F#3
834,Right,0,84,80,159.75,0.1875,TripletSixteenth,C6
835,Left,1,57,80,159.875,0.21875,Sixteenth,A3
836,Right,0,86,80,159.875,0.114583,ThirtySecond,D6
837,Left,1,48,80,160.0,0.208333,Sixteenth,C3
838,Right,0,87,80,160.0,0.989583,Quarter,D#6
839,Left,1,54,80,160.125,0.197917,TripletSixteenth,F#3
840,Left,1,51,80,160.25,0.1875,TripletSixteenth,D#3
841,Left,1,57,80,160.375,0.1875,TripletSixteenth,A3
842,Left,1,54,80,160.5,0.197917,TripletSixteenth,F#3
843,Left,1,60,80,160.625,0.197917,TripletSixteenth,C4
844,Left,1,57,80,160.75,0.197917,TripletSixteenth,A3
845,Left,1,54,80,160.875,0.197917,TripletSixteenth,F#3
846,Right,0,63,100,161.0,0.989583,Quarter,F#4_D#4_C4
849,Left,1,51,80,161.125,0.197917,TripletSixteenth,D#3
850,Left,1,46,80,161.25,0.208333,Sixteenth,A#2
851,Left,1,54,80,161.375,0.197917,TripletSixteenth,F#3
852,Left,1,51,80,161.5,0.208333,Sixteenth,D#3
853,Left,1,58,80,161.625,0.197917,TripletSixteenth,A#3
854,Left,1,54,80,161.75,0.177083,TripletSixteenth,F#3
855,Left,1,51,80,161.875,0.114583,ThirtySecond,D#3
859,Left,1,45,80,162.0,0.489583,Eighth,A2
856,Right,0,65,80,162.0,2.489583,Eighth,F4_D#4_C4
860,Right,0,57,80,162.5,0.364583,DottedSixteenth,C4_A3
862,Right,0,59,80,162.875,0.114583,ThirtySecond,D4_B3
864,Right,0,60,80,163.0,0.989583,Quarter,D#4_C4
866,Left,1,84,80,163.125,0.21875,Sixteenth,C6
867,Left,1,87,80,163.25,0.197917,TripletSixteenth,D#6
868,Left,1,84,80,163.375,0.21875,Sixteenth,C6
869,Left,1,81,80,163.5,0.177083,TripletSixteenth,A5
870,Left,1,84,80,163.625,0.21875,Sixteenth,C6
871,Left,1,75,80,163.75,0.1875,TripletSixteenth,D#5
872,Left,1,81,80,163.875,0.1875,TripletSixteenth,A5
875,Left,1,72,80,164.0,0.21875,Sixteenth,C5
873,Right,0,63,80,164.0,0.489583,Eighth,D#4_C4
876,Left,1,75,80,164.125,0.197917,TripletSixteenth,D#5
877,Left,1,69,80,164.25,0.1875,TripletSixteenth,A4
878,Left,1,72,80,164.375,0.197917,TripletSixteenth,C5
879,Left,1,63,80,164.5,0.197917,TripletSixteenth,D#4
880,Left,1,69,80,164.625,0.197917,TripletSixteenth,A4
882,Right,0,84,80,164.75,0.239583,Sixteenth,C6
881,Left,1,60,80,164.75,0.1875,TripletSixteenth,C4
883,Left,1,63,80,164.875,0.21875,Sixteenth,D#4
884,Left,1,57,80,165.0,0.197917,TripletSixteenth,A3
885,Right,0,84,80,165.0,0.614583,Eighth,C6
886,Left,1,60,80,165.125,0.208333,Sixteenth,C4
887,Left,1,51,80,165.25,0.1875,TripletSixteenth,D#3
888,Left,1,57,80,165.375,0.1875,TripletSixteenth,A3
889,Left,1,48,80,165.5,0.208333,Sixteenth,C3
890,Left,1,51,80,165.625,0.197917,TripletSixteenth,D#3
891,Right,0,86,80,165.625,0.0625,SixtyFourth,D6
892,Right,0,84,80,165.666667,0.0625,SixtyFourth,C6
893,Right,0,83,80,165.708333,0.0625,SixtyFourth,B5
894,Right,0,84,80,165.75,0.1875,TripletSixteenth,C6
895,Left,1,45,80,165.75,0.177083,TripletSixteenth,A2
897,Right,0,86,80,165.875,0.114583,ThirtySecond,D6
896,Left,1,48,80,165.875,0.197917,TripletSixteenth,C3
898,Right,0,87,80,166.0,0.989583,Quarter,D#6
899,Left,1,41,80,166.0,0.21875,Sixteenth,F2
900,Left,1,45,80,166.125,0.177083,TripletSixteenth,A2
901,Left,1,36,80,166.25,0.177083,TripletSixteenth,C2
902,Left,1,41,80,166.375,0.166667,TripletSixteenth,F2
903,Left,1,33,80,166.5,0.15625,TripletSixteenth,A1
904,Left,1,36,80,166.625,0.177083,TripletSixteenth,C2
905,Left,1,29,80,166.75,0.177083,TripletSixteenth,F1
906,Left,1,33,80,166.875,0.177083,TripletSixteenth,A1
907,Right,0,69,80,167.0,0.989583,Quarter,D#5_C5_A4
910,Left,1,30,80,167.125,0.208333,Sixteenth,F#1
911,Left,1,33,80,167.25,0.197917,TripletSixteenth,A1
912,Left,1,36,80,167.375,0.208333,Sixteenth,C2
913,Left,1,42,80,167.5,0.197917,TripletSixteenth,F#2
914,Left,1,45,80,167.625,0.197917,TripletSixteenth,A2
915,Left,1,48,80,167.75,0.177083,TripletSixteenth,C3
916,Left,1,54,100,167.875,0.1875,TripletSixteenth,F#3
917,Right,0,74,100,168.0,0.489583,Eighth,D5_A#4
919,Left,1,31,100,168.125,0.208333,Sixteenth,G1
920,Left,1,34,100,168.25,0.21875,Sixteenth,A#1
921,Left,1,38,100,168.375,0.197917,TripletSixteenth,D2
922,Left,1,43,100,168.5,0.197917,TripletSixteenth,G2
923,Left,1,46,100,168.625,0.1875,TripletSixteenth,A#2
924,Left,1,50,100,168.75,0.177083,TripletSixteenth,D3
925,Left,1,55,100,168.875,0.1875,TripletSixteenth,G3
926,Right,0,79,100,169.0,1.989583,Half,G5
927,Left,1,40,100,169.125,0.1875,TripletSixteenth,E2
928,Left,1,43,100,169.25,0.1875,TripletSixteenth,G2
929,Left,1,46,100,169.375,0.1875,TripletSixteenth,A#2
930,Left,1,52,100,169.5,0.229167,Sixteenth,E3
931,Left,1,55,100,169.625,0.208333,Sixteenth,G3
932,Left,1,58,100,169.75,0.1875,TripletSixteenth,A#3
933,Left,1,57,100,169.875,0.1875,TripletSixteenth,A3
934,Right,0,73,100,170.0,0.489583,Eighth,G4_C#5_A#4
935,Left,1,61,100,170.0,0.197917,TripletSixteenth,C#4
938,Left,1,58,100,170.125,0.21875,Sixteenth,A#3
939,Left,1,55,100,170.25,0.197917,TripletSixteenth,G3
940,Left,1,52,100,170.375,0.1875,TripletSixteenth,E3
941,Left,1,49,100,170.5,0.197917,TripletSixteenth,C#3
942,Left,1,46,100,170.625,0.197917,TripletSixteenth,A#2
943,Left,1,43,100,170.75,0.1875,TripletSixteenth,G2
944,Left,1,40,100,170.875,0.21875,Sixteenth,E2
945,Right,0,77,100,171.0,1.989583,Half,F5
946,Left,1,41,100,171.125,0.1875,TripletSixteenth,F2
947,Left,1,46,100,171.25,0.1875,TripletSixteenth,A#2
948,Left,1,50,100,171.375,0.208333,Sixteenth,D3
949,Left,1,53,100,171.5,0.197917,TripletSixteenth,F3
950,Left,1,50,100,171.625,0.177083,TripletSixteenth,D3
951,Left,1,46,100,171.75,0.197917,TripletSixteenth,A#2
953,Right,0,65,100,172.0,0.489583,Eighth,F4_D5_A#4
952,Left,1,41,100,172.0,0.072917,TripletThirtySecond,F2
956,Left,1,41,100,172.125,0.1875,SixtyFourth,F2_A#2
958,Left,1,50,100,172.25,0.208333,Sixteenth,D3
959,Left,1,53,100,172.375,0.197917,TripletSixteenth,F3
960,Left,1,50,100,172.5,0.177083,TripletSixteenth,D3
961,Left,1,46,100,172.625,0.197917,TripletSixteenth,A#2
962,Left,1,41,100,172.75,0.197917,TripletSixteenth,F2
963,Right,0,69,100,173.0,0.489583,Eighth,F4_D#4_C4_A4
966,Left,1,51,100,173.0,0.1875,TripletSixteenth,D#3
968,Left,1,48,100,173.125,0.1875,TripletSixteenth,C3
969,Left,1,45,100,173.25,0.1875,TripletSixteenth,A2
970,Left,1,41,100,173.375,0.1875,TripletSixteenth,F2
971,Left,1,39,100,173.5,0.1875,TripletSixteenth,D#2
972,Left,1,36,100,173.625,0.177083,TripletSixteenth,C2
973,Left,1,33,100,173.75,0.1875,TripletSixteenth,A1
974,Left,1,29,100,173.875,0.114583,ThirtySecond,F1
975,Right,0,65,100,174.0,0.489583,Eighth,F4_D4_A#4_A#3
978,Left,1,34,100,174.0,0.489583,Eighth,A#1
980,Left,1,46,80,174.75,0.114583,ThirtySecond,A#2
981,Left,1,34,80,174.833333,0.135417,ThirtySecond,A#1
982,Left,1,46,80,174.916667,0.114583,ThirtySecond,A#2
983,Left,1,34,80,175.0,0.489583,Eighth,A#1
984,Left,1,46,80,175.75,0.114583,ThirtySecond,A#2
985,Left,1,34,80,175.833333,0.114583,ThirtySecond,A#1
986,Left,1,46,80,175.916667,0.114583,ThirtySecond,A#2
987,Left,1,34,80,176.0,0.489583,Eighth,A#1
988,Left,1,46,80,176.75,0.114583,ThirtySecond,A#2
989,Left,1,34,80,176.833333,0.125,ThirtySecond,A#1
990,Left,1,46,80,176.916667,0.125,ThirtySecond,A#2
992,Right,0,56,80,177.0,0.989583,Quarter,G#3_F4_A#3
991,Left,1,34,80,177.0,0.489583,Eighth,A#1
995,Right,0,55,80,178.0,0.989583,Quarter,G3_D#4_A#3
998,Right,0,54,80,179.0,0.989583,Quarter,F#3_D4_A#3
1001,Right,0,58,80,180.0,0.989583,Quarter,F#3_D4_A#3
1004,Left,1,46,80,180.75,0.114583,ThirtySecond,A#2
1005,Left,1,34,80,180.833333,0.135417,ThirtySecond,A#1
1006,Left,1,46,80,180.916667,0.114583,ThirtySecond,A#2
1007,Right,0,58,80,181.0,0.489583,Eighth,G3_D#4_A#3
1010,Left,1,34,80,181.0,0.489583,Eighth,A#1
1011,Left,1,46,80,181.75,0.114583,ThirtySecond,A#2
1012,Left,1,34,80,181.833333,0.114583,ThirtySecond,A#1
1013,Left,1,46,80,181.916667,0.114583,ThirtySecond,A#2
1014,Left,1,34,80,182.0,0.489583,Eighth,A#1
1015,Left,1,46,80,182.75,0.114583,ThirtySecond,A#2
1016,Left,1,34,80,182.833333,0.125,ThirtySecond,A#1
1017,Left,1,46,80,182.916667,0.125,ThirtySecond,A#2
1018,Left,1,34,80,183.0,0.489583,Eighth,A#1
1019,Right,0,68,80,183.0,0.989583,Quarter,G#4_F4_A#3
1022,Right,0,58,80,184.0,0.989583,Quarter,G4_D#4_A#3
1025,Right,0,62,80,185.0,0.989583,Quarter,F#4_D4_A#3
1028,Right,0,66,80,186.0,2.489583,Quarter,F#4_D4_A#3
1031,Left,1,51,80,186.75,0.125,ThirtySecond,D#3
1032,Left,1,39,80,186.833333,0.114583,ThirtySecond,D#2
1033,Left,1,51,80,186.916667,0.125,ThirtySecond,D#3
1036,Left,1,39,80,187.0,0.489583,Eighth,D#2
1034,Right,0,63,80,187.0,1.489583,DottedQuarter,G4_D#4
1037,Left,1,51,80,187.75,0.125,ThirtySecond,D#3
1038,Left,1,39,80,187.833333,0.114583,ThirtySecond,D#2
1039,Left,1,51,80,187.916667,0.125,ThirtySecond,D#3
1040,Left,1,39,80,188.0,0.489583,Eighth,D#2
1041,Right,0,67,80,188.5,0.489583,Eighth,G4
1042,Left,1,51,80,188.75,0.125,ThirtySecond,D#3
1043,Left,1,39,80,188.833333,0.114583,ThirtySecond,D#2
1044,Left,1,51,80,188.916667,0.125,ThirtySecond,D#3
1045,Left,1,39,80,189.0,0.489583,Eighth,D#2
1046,Right,0,67,80,189.0,0.989583,Quarter,G4_D#5
1048,Right,0,67,80,190.0,0.989583,Quarter,G4_D#4_C5
1051,Right,0,67,80,191.0,0.989583,Quarter,G4_D4_A#4
1054,Right,0,69,80,192.0,1.489583,DottedQuarter,F4_C4_A4
1057,Left,1,53,80,192.75,0.125,ThirtySecond,F3
1058,Left,1,41,80,192.833333,0.125,ThirtySecond,F2
1059,Left,1,53,80,192.916667,0.125,ThirtySecond,F3
1060,Left,1,41,80,193.0,0.489583,Eighth,F2
1061,Right,0,69,80,193.5,0.489583,Eighth,F4_C4_A4
1064,Left,1,89,80,193.75,0.125,ThirtySecond,F6
1065,Left,1,77,80,193.833333,0.125,ThirtySecond,F5
1066,Left,1,89,80,193.916667,0.125,ThirtySecond,F6
1069,Left,1,77,80,194.0,0.489583,Eighth,F5
1067,Right,0,65,80,194.0,0.489583,Eighth,F4_D4_A#4
1071,Right,0,65,80,194.5,0.489583,Eighth,F4_D#4_C5
1074,Right,0,72,80,195.0,0.989583,DottedEighth,F4_D#4_C5
1077,Right,0,69,80,195.75,0.239583,Sixteenth,C#4_A4
1079,Left,1,53,80,195.75,0.125,ThirtySecond,F3
1080,Left,1,41,80,195.833333,0.125,ThirtySecond,F2
1081,Left,1,53,80,195.916667,0.125,ThirtySecond,F3
1082,Right,0,62,80,196.0,0.489583,Eighth,D4_A#4
1083,Left,1,41,80,196.0,0.489583,Eighth,F2
1085,Right,0,70,80,196.5,0.489583,Eighth,F4_D4_A#4
1088,Left,1,89,81,196.75,0.125,ThirtySecond,F6
1089,Left,1,77,81,196.833333,0.125,ThirtySecond,F5
1090,Left,1,89,81,196.916667,0.125,ThirtySecond,F6
1094,Left,1,77,82,197.0,0.489583,Eighth,F5
1091,Right,0,72,82,197.0,0.489583,Eighth,F4_C5_A4
1095,Right,0,74,84,197.5,0.489583,Eighth,F4_D5_A#4
1098,Right,0,74,87,198.0,1.489583,DottedEighth,F4_D5_A#4
1103,Left,1,53,90,198.75,0.125,ThirtySecond,F3
1101,Right,0,71,90,198.75,0.239583,Sixteenth,G#4_B4
1104,Left,1,41,91,198.833333,0.125,ThirtySecond,F2
1105,Left,1,53,91,198.916667,0.125,ThirtySecond,F3
1106,Right,0,69,91,199.0,0.489583,Eighth,C5_A4
1107,Left,1,41,91,199.0,0.489583,Eighth,F2
1109,Right,0,69,94,199.5,0.489583,Eighth,F4_C5_A4
1112,Left,1,89,95,199.75,0.125,ThirtySecond,F6
1113,Left,1,77,95,199.833333,0.125,ThirtySecond,F5
1114,Left,1,89,96,199.916667,0.125,ThirtySecond,F6
1116,Right,0,65,96,200.0,0.489583,Eighth,F4_D5_A#4
1115,Left,1,77,96,200.0,0.489583,Eighth,F5
1119,Right,0,65,99,200.5,0.489583,Eighth,F4_D#5_C5
1122,Right,0,65,101,201.0,1.489583,DottedEighth,F4_D#5_C5
1125,Left,1,53,104,201.75,0.125,ThirtySecond,F3
1126,Right,0,69,104,201.75,0.239583,Sixteenth,C#5_A4
1128,Left,1,41,105,201.833333,0.125,ThirtySecond,F2
1129,Left,1,53,105,201.916667,0.125,ThirtySecond,F3
1131,Left,1,41,106,202.0,0.489583,Eighth,F2
1130,Right,0,70,106,202.0,0.489583,Eighth,D5_A#4
1133,Right,0,65,108,202.5,0.489583,Eighth,F4_D5_A#4
1136,Left,1,89,109,202.75,0.125,ThirtySecond,F6
1137,Left,1,77,110,202.833333,0.125,ThirtySecond,F5
1138,Left,1,89,110,202.916667,0.125,ThirtySecond,F6
1139,Right,0,67,110,203.0,0.489583,Eighth,G4_E5_C#5_A#4
1143,Left,1,77,110,203.0,0.489583,Eighth,F5
1144,Right,0,67,111,203.5,0.489583,Eighth,G4_E5_C#5_A#4
1148,Left,1,89,102,203.75,0.125,ThirtySecond,F6
1149,Left,1,77,99,203.833333,0.125,ThirtySecond,F5
1150,Left,1,89,96,203.916667,0.072917,TripletThirtySecond,F6
1151,Right,0,69,80,204.0,0.489583,Eighth,F5_C5_A4
1154,Right,0,72,80,204.5,0.989583,Quarter,F4_C5_A4
1157,Left,1,53,80,204.75,0.114583,ThirtySecond,F3
1158,Left,1,41,80,204.875,0.114583,ThirtySecond,F2
1159,Left,1,53,80,205.0,0.489583,Eighth,F3
1160,Right,0,72,80,205.5,0.489583,Eighth,F4_C5_A4
1163,Left,1,89,80,205.75,0.114583,ThirtySecond,F6
1164,Left,1,77,80,205.875,0.114583,ThirtySecond,F5
1168,Left,1,89,80,206.0,0.489583,Eighth,F6
1165,Right,0,76,80,206.0,0.489583,Eighth,G4_E5_A#4
1169,Right,0,67,80,206.5,0.489583,Eighth,G4_C5_A#4
1172,Right,0,69,80,207.0,0.489583,Eighth,F5_C5_A4
1175,Right,0,69,80,207.5,0.989583,Quarter,F4_C5_A4
1178,Left,1,53,80,207.75,0.114583,ThirtySecond,F3
1179,Left,1,41,80,207.875,0.114583,ThirtySecond,F2
1180,Left,1,53,80,208.0,0.489583,Eighth,F3
1181,Right,0,69,80,208.5,0.489583,Eighth,F4_C5_A4
1184,Left,1,89,80,208.75,0.114583,ThirtySecond,F6
1185,Left,1,77,80,208.875,0.114583,ThirtySecond,F5
1186,Right,0,67,80,209.0,0.489583,Eighth,G4_E5_A#4
1189,Left,1,89,80,209.0,0.489583,Eighth,F6
1190,Right,0,72,80,209.5,0.489583,Eighth,G4_C5_A#4
1193,Right,0,77,80,210.0,0.489583,Eighth,F5_C5_A4
1196,Right,0,69,80,210.5,0.989583,Quarter,F4_C5_A4
1199,Left,1,53,80,210.75,0.114583,ThirtySecond,F3
1200,Left,1,41,80,210.875,0.114583,ThirtySecond,F2
1201,Left,1,53,80,211.0,0.489583,Eighth,F3
1202,Right,0,69,80,211.5,0.989583,Quarter,F4_C4_A4
1205,Left,1,53,80,211.75,0.114583,ThirtySecond,F3
1206,Left,1,41,80,211.875,0.114583,ThirtySecond,F2
1207,Left,1,53,80,212.0,0.489583,Eighth,F3
1208,Right,0,57,80,212.5,0.989583,Quarter,F4_C4_A3
1211,Left,1,53,80,212.75,0.114583,ThirtySecond,F3
1212,Left,1,41,80,212.875,0.114583,ThirtySecond,F2
1213,Left,1,53,80,213.0,0.489583,Eighth,F3
1214,Left,1,65,80,213.5,0.489583,Eighth,F4
1215,Left,1,64,80,214.0,0.489583,Eighth,E4
1216,Left,1,65,80,214.5,0.989583,Quarter,F4_D#4
1218,Left,1,62,80,215.0,0.489583,Eighth,D4
1219,Right,0,67,80,215.25,0.114583,ThirtySecond,G4
1220,Right,0,69,80,215.375,0.114583,ThirtySecond,A4
1221,Left,1,60,80,215.5,0.489583,Eighth,D#4_C4
1223,Right,0,70,80,215.5,0.114583,ThirtySecond,A#4
1224,Right,0,72,80,215.625,0.114583,ThirtySecond,C5
1225,Right,0,74,80,215.75,0.114583,ThirtySecond,D5
1226,Right,0,75,80,215.875,0.114583,ThirtySecond,D#5
1227,Right,0,77,80,216.0,1.989583,Half,F5
1228,Left,1,46,80,216.0,0.489583,Eighth,A#2
1229,Left,1,58,80,216.5,0.489583,Eighth,A#3
1232,Right,0,70,80,217.0,0.989583,Quarter,A#4
1230,Left,1,65,80,217.0,0.489583,Eighth,F4_D4
1233,Left,1,58,80,217.5,0.489583,Eighth,A#3
1234,Right,0,74,80,217.875,0.114583,ThirtySecond,D5
1235,Left,1,67,80,218.0,0.489583,Eighth,G4_D#4
1237,Right,0,70,80,218.0,0.989583,Quarter,A#5_A#4
1239,Left,1,58,80,218.5,0.489583,Eighth,A#3
1240,Right,0,79,80,218.875,0.114583,ThirtySecond,G5
1241,Left,1,65,80,219.0,0.489583,Eighth,F4_D4
1243,Right,0,77,80,219.0,1.989583,Half,F5
1244,Left,1,58,80,219.5,0.489583,Eighth,A#3
1247,Right,0,70,80,220.0,0.989583,Quarter,A#4
1245,Left,1,62,80,220.0,0.489583,Eighth,F4_D4
1248,Left,1,58,80,220.5,0.489583,Eighth,A#3
1249,Right,0,74,80,220.875,0.114583,ThirtySecond,D5
1250,Right,0,70,80,221.0,0.989583,Eighth,D#5_A#4
1252,Left,1,55,80,221.0,0.489583,Eighth,G3
1253,Left,1,51,80,221.5,0.489583,Eighth,D#3
1254,Right,0,67,80,221.5,0.489583,Eighth,G4
1255,Right,0,72,80,221.875,0.114583,ThirtySecond,C5
1257,Left,1,41,80,222.0,0.489583,Eighth,F2
1256,Right,0,70,80,222.0,1.989583,Half,A#4
1259,Right,0,62,80,222.5,0.489583,Eighth,D4
1258,Left,1,53,80,222.5,0.489583,Eighth,F3
1261,Left,1,62,80,223.0,0.489583,Eighth,D4_A#3
1260,Right,0,65,80,223.0,0.989583,Quarter,F4
1263,Left,1,53,80,223.5,0.489583,Eighth,F3
1264,Left,1,57,80,224.0,0.489583,Eighth,C4_A3
1266,Right,0,74,80,224.0,0.989583,Sixteenth,F4_D5
1268,Right,0,72,80,224.25,0.239583,Sixteenth,C5
1269,Left,1,53,80,224.5,0.489583,Eighth,F3
1270,Right,0,70,80,224.5,0.239583,Sixteenth,A#4
1271,Right,0,72,80,224.75,0.239583,Sixteenth,C5
1273,Left,1,46,80,225.0,1.489583,DottedQuarter,A3_A#2
1272,Right,0,65,80,225.0,1.489583,DottedQuarter,F4_C5
1276,Left,1,53,80,225.5,0.489583,Eighth,F3
1277,Right,0,73,80,225.875,0.114583,ThirtySecond,C#5
1279,Right,0,74,80,226.0,0.489583,Eighth,D5
1278,Left,1,58,80,226.0,0.489583,Eighth,A#3
1280,Left,1,50,80,226.5,0.489583,Eighth,D3
1281,Left,1,51,80,227.0,0.489583,Eighth,D#3
1282,Right,0,65,80,227.125,0.114583,ThirtySecond,F4
1283,Right,0,67,80,227.25,0.114583,ThirtySecond,G4
1284,Right,0,69,80,227.375,0.114583,ThirtySecond,A4
1286,Right,0,70,80,227.5,0.114583,ThirtySecond,A#4
1285,Left,1,48,80,227.5,0.489583,Eighth,C3
1287,Right,0,72,80,227.625,0.114583,ThirtySecond,C5
1288,Right,0,74,80,227.75,0.114583,ThirtySecond,D5
1289,Right,0,75,80,227.875,0.114583,ThirtySecond,D#5
1290,Left,1,46,80,228.0,0.489583,Eighth,A#2
1291,Right,0,77,80,228.0,1.989583,Half,F5
1292,Left,1,58,80,228.5,0.489583,Eighth,A#3
1293,Right,0,69,80,228.75,0.239583,Sixteenth,A4
1296,Right,0,70,80,229.0,0.989583,Quarter,A#4
1294,Left,1,62,80,229.0,0.489583,Eighth,F4_D4
1297,Left,1,58,80,229.5,0.489583,Eighth,A#3
1298,Right,0,74,80,229.875,0.114583,ThirtySecond,D5
1300,Right,0,82,80,230.0,0.989583,Quarter,A#5_A#4
1299,Left,1,63,80,230.0,0.489583,Eighth,G4_D#4
1303,Left,1,58,80,230.5,0.489583,Eighth,A#3
1304,Right,0,79,80,230.875,0.114583,ThirtySecond,G5
1305,Left,1,62,80,231.0,0.489583,Eighth,F4_D4
1307,Right,0,77,80,231.0,1.989583,Half,F5
1308,Left,1,58,80,231.5,0.489583,Eighth,A#3
1309,Right,0,69,80,231.75,0.239583,Sixteenth,A4
1310,Left,1,65,80,232.0,0.489583,Eighth,F4_D4
1311,Right,0,70,80,232.0,0.989583,Quarter,A#4
1313,Left,1,58,80,232.5,0.489583,Eighth,A#3
1314,Right,0,74,80,232.875,0.114583,ThirtySecond,D5
1317,Left,1,55,80,233.0,0.489583,Eighth,G3
1315,Right,0,70,80,233.0,0.489583,Eighth,F5_A#4
1318,Right,0,75,80,233.25,0.489583,Eighth,D#5
1319,Left,1,51,80,233.5,0.489583,Eighth,D#3
1320,Right,0,67,80,233.5,0.489583,Eighth,G4
1321,Right,0,72,80,233.75,0.239583,Sixteenth,C5
1324,Left,1,53,80,234.0,1.989583,Half,F3
1322,Right,0,62,80,234.0,1.989583,Eighth,D4_A#4
1325,Right,0,62,80,234.5,0.489583,Eighth,D4_A#3
1327,Right,0,62,80,235.0,0.489583,Eighth,F4_D4
1329,Right,0,58,80,235.5,0.489583,Eighth,D4_A#3
1331,Right,0,60,80,236.0,0.989583,Eighth,F4_C4_A3
1334,Left,1,29,80,236.0,0.989583,Quarter,F2_F1
1336,Right,0,53,80,236.5,0.489583,Eighth,F3_A3
1338,Left,1,34,80,237.0,0.489583,Eighth,A#1
1339,Right,0,53,80,237.0,0.489583,Eighth,F3_D4_A#3
1342,Left,1,46,80,237.75,0.114583,ThirtySecond,A#2
1343,Left,1,34,80,237.833333,0.135417,ThirtySecond,A#1
1344,Left,1,46,80,237.916667,0.114583,ThirtySecond,A#2
1345,Left,1,34,80,238.0,0.489583,Eighth,A#1
1346,Left,1,46,80,238.75,0.114583,ThirtySecond,A#2
1347,Left,1,34,80,238.833333,0.114583,ThirtySecond,A#1
1348,Left,1,46,80,238.916667,0.114583,ThirtySecond,A#2
1349,Left,1,34,80,239.0,0.489583,Eighth,A#1
1350,Right,0,58,80,239.5,0.489583,Eighth,A#3
1351,Right,0,58,80,240.0,0.989583,Quarter,A#3
1352,Left,1,46,82,240.75,0.114583,ThirtySecond,A#2
1353,Left,1,34,82,240.833333,0.135417,ThirtySecond,A#1
1354,Left,1,46,83,240.916667,0.114583,ThirtySecond,A#2
1355,Right,0,53,83,241.0,1.989583,Half,G#3_F3_D3_B3
1358,Left,1,34,83,241.0,0.489583,Eighth,A#1
1360,Left,1,46,86,241.75,0.114583,ThirtySecond,A#2
1361,Left,1,34,86,241.833333,0.114583,ThirtySecond,A#1
1362,Left,1,46,86,241.916667,0.114583,ThirtySecond,A#2
1363,Left,1,34,87,242.0,0.489583,Eighth,A#1
1364,Right,0,59,88,242.5,0.489583,Eighth,B3
1365,Right,0,59,90,243.0,0.989583,Quarter,B3
1366,Left,1,46,93,243.75,0.114583,ThirtySecond,A#2
1367,Left,1,34,93,243.833333,0.135417,ThirtySecond,A#1
1368,Left,1,46,93,243.916667,0.114583,ThirtySecond,A#2
1369,Right,0,59,94,244.0,1.989583,Half,G#3_F3_D4_B3
1371,Left,1,34,94,244.0,0.489583,Eighth,A#1
1374,Left,1,46,96,244.75,0.114583,ThirtySecond,A#2
1375,Left,1,34,96,244.833333,0.114583,ThirtySecond,A#1
1376,Left,1,46,97,244.916667,0.114583,ThirtySecond,A#2
1377,Left,1,34,97,245.0,0.489583,Eighth,A#1
1378,Right,0,62,99,245.5,0.489583,Eighth,D4
1379,Right,0,62,101,246.0,0.989583,Quarter,D4
1380,Left,1,46,103,246.75,0.114583,ThirtySecond,A#2
1381,Left,1,34,103,246.833333,0.135417,ThirtySecond,A#1
1382,Left,1,46,104,246.916667,0.114583,ThirtySecond,A#2
1383,Left,1,34,104,247.0,0.489583,Eighth,A#1
1384,Right,0,65,104,247.0,0.989583,Quarter,G#3_F4_D4_B3
1388,Left,1,46,107,247.75,0.114583,ThirtySecond,A#2
1389,Left,1,34,107,247.833333,0.114583,ThirtySecond,A#1
1390,Left,1,46,107,247.916667,0.114583,ThirtySecond,A#2
1391,Right,0,68,108,248.0,0.989583,Quarter,G#4_F4_D4_B3
1395,Left,1,34,108,248.0,0.489583,Eighth,A#1
1396,Left,1,46,110,248.75,0.114583,ThirtySecond,A#2
1397,Left,1,34,110,248.833333,0.135417,ThirtySecond,A#1
1398,Left,1,46,110,248.916667,0.114583,ThirtySecond,A#2
1400,Right,0,71,110,249.0,1.989583,Half,B4
1399,Left,1,34,110,249.0,0.489583,Eighth,A#1
1401,Left,1,56,104,249.75,0.114583,ThirtySecond,G#3
1402,Left,1,46,103,249.833333,0.135417,ThirtySecond,A#2
1403,Left,1,56,103,249.916667,0.114583,ThirtySecond,G#3
1407,Left,1,46,102,250.0,0.489583,Eighth,A#2
1404,Right,0,62,102,250.0,0.989583,Quarter,G#4_F4_D4
1408,Left,1,56,96,250.75,0.114583,ThirtySecond,G#3
1409,Left,1,46,96,250.833333,0.114583,ThirtySecond,A#2
1410,Left,1,56,95,250.916667,0.114583,ThirtySecond,G#3
1411,Right,0,65,94,251.0,0.989583,Quarter,F4_D4_A#4
1413,Left,1,46,94,251.0,0.489583,Eighth,A#2
1415,Right,0,68,91,251.5,0.489583,Eighth,G#4
1416,Right,0,66,80,252.0,0.989583,Quarter,F#4
1417,Left,1,46,82,252.75,0.114583,ThirtySecond,A#2
1418,Left,1,34,83,252.833333,0.135417,ThirtySecond,A#1
1419,Left,1,46,83,252.916667,0.114583,ThirtySecond,A#2
1420,Right,0,67,83,253.0,1.989583,Half,G4_D#4_A#3
1423,Left,1,34,83,253.0,0.489583,Eighth,A#1
1424,Left,1,46,86,253.75,0.114583,ThirtySecond,A#2
1425,Left,1,34,86,253.833333,0.114583,ThirtySecond,A#1
1426,Left,1,46,86,253.916667,0.114583,ThirtySecond,A#2
1427,Left,1,34,87,254.0,0.489583,Eighth,A#1
1428,Right,0,70,89,254.5,0.489583,Eighth,A#4
1429,Right,0,75,90,255.0,1.989583,Half,D#5
1430,Left,1,58,93,255.75,0.114583,ThirtySecond,A#3
1431,Left,1,46,93,255.833333,0.135417,ThirtySecond,A#2
1432,Left,1,58,94,255.916667,0.114583,ThirtySecond,A#3
1433,Right,0,63,94,256.0,1.989583,Half,F#4_D#4_A4
1436,Left,1,46,94,256.0,0.489583,Eighth,A#2
1437,Left,1,58,97,256.75,0.114583,ThirtySecond,A#3
1438,Left,1,46,97,256.833333,0.114583,ThirtySecond,A#2
1439,Left,1,58,97,256.916667,0.114583,ThirtySecond,A#3
1441,Left,1,46,98,257.0,0.489583,Eighth,A#2
1440,Right,0,72,98,257.0,0.489583,Eighth,C5
1442,Right,0,69,100,257.5,0.489583,Eighth,A4
1443,Right,0,72,101,258.0,0.989583,Quarter,C5
1444,Left,1,46,104,258.75,0.114583,ThirtySecond,A#2
1445,Left,1,34,104,258.833333,0.135417,ThirtySecond,A#1
1446,Left,1,46,105,258.916667,0.114583,ThirtySecond,A#2
1447,Left,1,34,105,259.0,0.489583,Eighth,A#1
1448,Right,0,62,105,259.0,1.489583,Quarter,F4_D4_A#4
1451,Left,1,46,108,259.75,0.114583,ThirtySecond,A#2
1452,Left,1,34,108,259.833333,0.114583,ThirtySecond,A#1
1453,Left,1,46,108,259.916667,0.114583,ThirtySecond,A#2
1456,Left,1,34,109,260.0,0.489583,Eighth,A#1
1454,Right,0,68,109,260.0,0.989583,Quarter,G#4_F4
1457,Right,0,74,110,260.5,0.489583,Eighth,D5
1458,Right,0,77,111,261.0,0.489583,Eighth,F5
1459,Right,0,75,109,261.5,1.489583,DottedQuarter,D#5
1460,Left,1,58,108,261.75,0.114583,ThirtySecond,A#3
1461,Left,1,46,107,261.833333,0.135417,ThirtySecond,A#2
1462,Left,1,58,107,261.916667,0.114583,ThirtySecond,A#3
1465,Left,1,46,106,262.0,0.489583,Eighth,A#2
1463,Right,0,70,106,262.0,0.489583,Eighth,G4_A#4
1466,Right,0,66,104,262.5,0.989583,Quarter,F#4_A4
1468,Left,1,58,102,262.75,0.114583,ThirtySecond,A#3
1469,Left,1,46,102,262.833333,0.114583,ThirtySecond,A#2
1470,Left,1,58,101,262.916667,0.114583,ThirtySecond,A#3
1472,Left,1,46,101,263.0,0.489583,Eighth,A#2
1471,Right,0,63,101,263.0,0.489583,Eighth,D#4_C5
1474,Right,0,60,98,263.5,0.489583,Eighth,F#4_D#4_C4_A4
1478,Left,1,58,97,263.75,0.114583,ThirtySecond,A#3
1479,Left,1,46,97,263.833333,0.135417,ThirtySecond,A#2
1480,Left,1,58,96,263.916667,0.072917,TripletThirtySecond,A#3
1482,Left,1,50,96,264.0,2.989583,Quarter,D3_A#2
1481,Right,0,70,96,264.0,0.489583,Eighth,F4_D4_A#4
1486,Left,1,51,91,264.875,0.114583,ThirtySecond,D#3_C3
1488,Left,1,53,91,265.0,0.989583,Quarter,F3_D3
1490,Left,1,48,80,266.0,0.989583,Quarter,D#3_C3
1492,Right,0,65,80,266.125,0.114583,ThirtySecond,F4
1493,Right,0,64,80,266.25,0.114583,ThirtySecond,E4
1494,Right,0,65,80,266.375,0.114583,ThirtySecond,F4
1495,Right,0,67,80,266.5,0.114583,ThirtySecond,G4
1496,Right,0,69,80,266.625,0.114583,ThirtySecond,A4
1497,Right,0,70,80,266.75,0.114583,ThirtySecond,A#4
1498,Right,0,72,80,266.875,0.114583,ThirtySecond,C5
1501,Left,1,46,80,267.0,0.489583,Eighth,D3_A#2
1499,Right,0,70,80,267.0,1.989583,Quarter,F4_D5_A#4
1504,Right,0,75,80,267.875,0.114583,ThirtySecond,D#5_C5
1506,Right,0,77,80,268.0,0.989583,Quarter,F5_D5
1508,Right,0,75,80,269.0,0.989583,Quarter,F4_D#5_C5
1511,Left,1,53,80,269.125,0.114583,ThirtySecond,F3
1512,Left,1,52,80,269.25,0.114583,ThirtySecond,E3
1513,Left,1,53,80,269.375,0.114583,ThirtySecond,F3
1514,Left,1,55,80,269.5,0.114583,ThirtySecond,G3
1515,Left,1,57,80,269.625,0.114583,ThirtySecond,A3
1516,Left,1,58,80,269.75,0.114583,ThirtySecond,A#3
1517,Left,1,60,80,269.875,0.114583,ThirtySecond,C4
1521,Left,1,58,80,270.0,0.989583,Quarter,D4_A#3
1518,Right,0,70,80,270.0,0.489583,Eighth,F4_D5_A#4
1523,Left,1,60,80,270.875,0.114583,ThirtySecond,D#4_C4
1525,Left,1,65,80,271.0,0.989583,Quarter,F4_D4
1527,Left,1,34,80,272.0,0.989583,Quarter,A#1
1528,Left,1,33,80,273.0,2.989583,DottedHalf,A1
1529,Right,0,84,110,276.0,0.614583,Eighth,C6
1530,Right,0,86,110,276.625,0.0625,SixtyFourth,D6
1531,Right,0,84,110,276.666667,0.0625,SixtyFourth,C6
1532,Right,0,83,110,276.708333,0.0625,SixtyFourth,B5
1533,Right,0,84,110,276.75,0.1875,TripletSixteenth,C6
1534,Right,0,86,110,276.875,0.114583,ThirtySecond,D6
1535,Right,0,87,110,277.0,0.989583,Quarter,D#6
1539,Right,0,66,110,278.0,0.989583,Quarter,F#4
1536,Left,1,63,110,278.0,3.989583,Whole,D#4_C4_A#3
1540,Left,1,57,110,279.0,2.989583,DottedHalf,A3
1541,Right,0,67,110,281.125,0.104167,ThirtySecond,G4
1542,Right,0,65,110,281.1875,0.114583,ThirtySecond,F4
1543,Right,0,64,110,281.25,0.09375,TripletThirtySecond,E4
1544,Right,0,65,110,281.3125,0.09375,TripletThirtySecond,F4
1545,Right,0,67,110,281.375,0.09375,TripletThirtySecond,G4
1546,Right,0,69,110,281.4375,0.114583,ThirtySecond,A4
1547,Right,0,70,110,281.5,0.072917,TripletThirtySecond,A#4
1548,Right,0,72,110,281.5625,0.083333,TripletThirtySecond,C5
1549,Right,0,74,110,281.625,0.09375,TripletThirtySecond,D5
1550,Right,0,75,110,281.6875,0.114583,ThirtySecond,D#5
1551,Right,0,77,110,281.75,0.09375,TripletThirtySecond,F5
1552,Right,0,79,110,281.8125,0.072917,TripletThirtySecond,G5
1553,Right,0,81,110,281.875,0.083333,TripletThirtySecond,A5
1554,Right,0,82,110,281.9375,0.052083,SixtyFourth,A#5
1555,Right,0,84,110,282.0,0.614583,Eighth,C6
1556,Right,0,86,110,282.625,0.0625,SixtyFourth,D6
1557,Right,0,84,110,282.666667,0.0625,SixtyFourth,C6
1558,Right,0,83,110,282.708333,0.0625,SixtyFourth,B5
1559,Right,0,84,110,282.75,0.1875,TripletSixteenth,C6
1560,Right,0,86,110,282.875,0.114583,ThirtySecond,D6
1561,Right,0,87,110,283.0,0.989583,Quarter,D#6
1563,Left,1,63,110,284.0,0.989583,Quarter,F#3_D#4_C4
1562,Right,0,75,110,284.0,0.989583,Quarter,D#5_C5_A4
1569,Right,0,70,110,285.0,0.489583,Eighth,D5_A#4
1568,Left,1,55,110,285.0,0.489583,Eighth,G3_D4_A#3
1573,Right,0,79,110,286.0,1.989583,Half,G5
1574,Left,1,61,110,286.5,0.489583,Eighth,E3_C#4_A#3
1577,Right,0,73,110,287.0,0.489583,Eighth,G4_C#5_A#4
1580,Right,0,77,80,288.0,1.989583,Half,F5
1581,Left,1,62,80,288.5,0.489583,Eighth,F3_D4_A#3
1584,Right,0,74,80,289.0,0.489583,Eighth,F4_D5_A#4
1587,Left,1,41,80,289.5,0.489583,Eighth,F2_F1
1589,Right,0,63,80,290.0,0.489583,Eighth,D#4_C4_A4
1592,Left,1,41,80,290.5,0.489583,Eighth,F3_F2
1596,Right,0,70,80,291.0,0.489583,Eighth,D4_A#4_A#3
1594,Left,1,34,80,291.0,2.989583,DottedHalf,A#2_A#1
1599,Right,0,77,80,291.5,0.489583,Eighth,F5_F4
1601,Right,0,74,80,292.0,0.489583,Eighth,D5_D4
1603,Right,0,71,80,292.5,0.489583,Eighth,B4_B3
1605,Right,0,70,80,293.0,0.489583,Eighth,A#4_A#3
1607,Right,0,56,80,293.5,0.489583,Eighth,G#4_G#3
1610,Right,0,55,80,294.0,0.489583,Eighth,G4_G3
1609,Left,1,34,80,294.0,2.989583,DottedHalf,A#2_A#1
1613,Right,0,70,80,294.5,0.489583,Eighth,A#4_A#3
1615,Right,0,63,80,295.0,0.489583,Eighth,D#4_D#3
1617,Right,0,55,80,295.5,0.489583,Eighth,G4_G3
1619,Right,0,48,80,296.0,0.489583,Eighth,C4_C3
1621,Right,0,65,80,296.5,0.239583,Sixteenth,F4_F3
1623,Right,0,63,80,296.75,0.239583,Sixteenth,D#4_D#3
1626,Right,0,50,80,297.0,0.489583,Eighth,D4_D3
1625,Left,1,46,80,297.0,2.989583,DottedHalf,A#2
1628,Left,1,65,80,297.5,0.489583,Eighth,F4
1629,Left,1,62,80,298.0,0.489583,Eighth,D4
1631,Left,1,59,80,298.5,0.489583,Eighth,B3
1630,Right,0,74,80,298.5,0.989583,Quarter,D5
1632,Left,1,58,80,299.0,0.489583,Eighth,A#3
1634,Left,1,56,81,299.5,0.489583,Eighth,G#3
1633,Right,0,74,83,299.5,0.083333,TripletThirtySecond,D5
1635,Right,0,75,83,299.5625,0.114583,ThirtySecond,D#5
1636,Right,0,74,84,299.625,0.104167,ThirtySecond,D5
1637,Right,0,75,84,299.6875,0.104167,ThirtySecond,D#5
1638,Right,0,74,84,299.75,0.104167,ThirtySecond,D5
1639,Right,0,75,84,299.8125,0.09375,TripletThirtySecond,D#5
1640,Right,0,72,85,299.875,0.083333,TripletThirtySecond,C5
1641,Right,0,74,85,299.9375,0.052083,SixtyFourth,D5
1644,Right,0,77,85,300.0,0.489583,Eighth,F5
1642,Left,1,55,82,300.0,2.989583,Eighth,G3_A#2
1646,Right,0,75,87,300.5,0.489583,Eighth,D#5
1645,Left,1,58,84,300.5,0.489583,Eighth,A#3
1647,Left,1,51,85,301.0,0.489583,Eighth,D#3
1648,Left,1,55,87,301.5,0.489583,Eighth,G3
1649,Right,0,75,90,301.5,0.989583,Quarter,D#5
1650,Left,1,48,88,302.0,0.489583,Eighth,C3
1652,Right,0,69,94,302.5,0.104167,ThirtySecond,A4
1651,Left,1,53,89,302.5,0.239583,Sixteenth,F3
1653,Right,0,70,94,302.5625,0.09375,TripletThirtySecond,A#4
1654,Right,0,69,95,302.625,0.09375,TripletThirtySecond,A4
1655,Right,0,70,95,302.6875,0.104167,ThirtySecond,A#4
1657,Right,0,69,95,302.75,0.09375,TripletThirtySecond,A4
1656,Left,1,51,90,302.75,0.239583,Sixteenth,D#3
1658,Right,0,70,95,302.8125,0.104167,ThirtySecond,A#4
1659,Right,0,67,95,302.875,0.114583,ThirtySecond,G4
1660,Right,0,69,96,302.9375,0.052083,SixtyFourth,A4
1662,Right,0,70,96,303.0,0.489583,Eighth,A#4
1661,Left,1,50,91,303.0,0.989583,Eighth,D3_A#2
1664,Left,1,53,92,303.5,0.239583,Sixteenth,F3
1665,Right,0,69,99,303.75,0.239583,Sixteenth,A4
1666,Left,1,51,93,303.75,0.239583,Sixteenth,D#3
1667,Left,1,50,94,304.0,0.989583,Eighth,D3_A#2
1669,Right,0,70,100,304.0,0.489583,Eighth,A#4
1670,Left,1,53,95,304.5,0.239583,Sixteenth,F3
1671,Right,0,72,102,304.75,0.239583,Sixteenth,C5_A4
1673,Left,1,51,96,304.75,0.239583,Sixteenth,D#3
1676,Left,1,50,97,305.0,0.989583,Eighth,D3_A#2
1674,Right,0,70,103,305.0,0.489583,Eighth,D5_A#4
1678,Left,1,53,98,305.5,0.239583,Sixteenth,F3
1680,Right,0,81,106,305.75,0.239583,Sixteenth,C5_A5
1679,Left,1,51,99,305.75,0.239583,Sixteenth,D#3
1683,Right,0,82,107,306.0,0.489583,Eighth,D5_A#5
1682,Left,1,46,99,306.0,0.489583,Eighth,D3_A#2
1686,Right,0,86,109,306.5,0.364583,DottedSixteenth,D6
1687,Right,0,84,110,306.875,0.114583,ThirtySecond,C6
1688,Right,0,84,110,307.0,0.989583,Quarter,C6
1689,Right,0,82,80,308.0,0.489583,Eighth,A#5
1690,Left,1,34,80,308.5,0.489583,Eighth,A#1
