,hand,channel,note,velocity,start_beat,duration,note_value,chord
0,Right,0,69,80,1.5,0.979167,Eighth,A4
1,Right,0,77,80,2.0,0.979167,Eighth,F5
2,Right,0,76,80,2.5,0.979167,Eighth,E5
3,Right,0,74,80,3.0,0.979167,Eighth,D5
4,Left,1,50,80,3.0,0.979167,Eighth,D3
5,Left,1,57,80,3.5,2.479167,TiedQuarter-Sixteenth,A3
6,Left,1,62,80,4.0,0.979167,Eighth,D4
7,Right,0,69,80,4.5,0.979167,Eighth,A4
8,Left,1,65,80,4.5,0.979167,Eighth,F4
9,Right,0,77,80,5.0,0.979167,Eighth,F5
10,Right,0,76,80,5.5,0.979167,Eighth,E5
11,Left,1,50,80,6.0,0.979167,Eighth,D3
12,Right,0,74,80,6.0,0.979167,Eighth,D5
13,Left,1,57,80,6.5,2.479167,TiedQuarter-Sixteenth,A3
14,Left,1,62,80,7.0,0.979167,Eighth,D4
16,Right,0,69,80,7.5,0.979167,Eighth,A4
15,Left,1,65,80,7.5,0.979167,Eighth,F4
17,Right,0,77,80,8.0,0.979167,Eighth,F5
18,Right,0,76,80,8.5,0.979167,Eighth,E5
20,Right,0,74,80,9.0,0.979167,Eighth,D5
19,Left,1,50,80,9.0,0.979167,Eighth,D3
21,Left,1,57,80,9.5,2.479167,TiedQuarter-Sixteenth,A3
22,Left,1,62,80,10.0,0.979167,Eighth,D4
23,Left,1,65,80,10.5,0.979167,Eighth,F4
24,Right,0,69,80,10.5,0.979167,Eighth,A4
25,Right,0,77,80,11.0,0.979167,Eighth,F5
26,Right,0,74,80,11.5,0.979167,Eighth,D5
27,Right,0,76,80,12.0,0.979167,Eighth,E5
28,Left,1,45,80,12.0,0.979167,Eighth,A2
29,Left,1,57,80,12.5,2.479167,TiedQuarter-Sixteenth,A3
30,Left,1,61,80,13.0,0.979167,Eighth,C#4
32,Right,0,69,80,13.5,0.979167,Eighth,A4
31,Left,1,64,80,13.5,0.979167,Eighth,E4
33,Right,0,79,80,14.0,0.979167,Eighth,G5
34,Right,0,77,80,14.5,0.979167,Eighth,F5
36,Right,0,76,80,15.0,0.979167,Eighth,E5
35,Left,1,45,80,15.0,0.979167,Eighth,A2
37,Left,1,57,80,15.5,2.479167,TiedQuarter-Sixteenth,A3
38,Left,1,61,80,16.0,0.979167,Eighth,C#4
39,Right,0,69,80,16.5,0.979167,Eighth,A4
40,Left,1,64,80,16.5,0.979167,Eighth,E4
41,Right,0,79,80,17.0,0.979167,Eighth,G5
42,Right,0,77,80,17.5,0.979167,Eighth,F5
44,Left,1,45,80,18.0,0.979167,Eighth,A2
43,Right,0,76,80,18.0,0.979167,Eighth,E5
45,Left,1,57,80,18.5,2.479167,TiedQuarter-Sixteenth,A3
46,Left,1,61,80,19.0,0.979167,Eighth,C#4
48,Right,0,69,80,19.5,0.979167,Eighth,A4
47,Left,1,64,80,19.5,0.979167,Eighth,E4
49,Right,0,79,80,20.0,0.979167,Eighth,G5
50,Right,0,77,80,20.5,0.979167,Eighth,F5
51,Left,1,45,80,21.0,0.979167,Eighth,A2
52,Right,0,76,80,21.0,0.979167,Eighth,E5
53,Left,1,57,80,21.5,2.479167,TiedQuarter-Sixteenth,A3
54,Left,1,61,80,22.0,0.979167,Eighth,C#4
55,Left,1,64,80,22.5,0.979167,Eighth,E4
56,Right,0,69,80,22.5,0.979167,Eighth,A4
57,Right,0,79,80,23.0,0.979167,Eighth,G5
58,Right,0,76,80,23.5,0.979167,Eighth,E5
59,Right,0,77,80,24.0,0.979167,Eighth,F5
60,Left,1,50,80,24.0,0.979167,Eighth,D3
61,Left,1,57,81,24.5,2.479167,TiedQuarter-Sixteenth,A3
62,Left,1,62,82,25.0,0.979167,Eighth,D4
63,Right,0,74,83,25.5,0.979167,Eighth,D5
64,Left,1,65,83,25.5,0.979167,Eighth,F4
65,Right,0,81,84,26.0,0.979167,Eighth,A5
66,Right,0,86,85,26.5,0.979167,Eighth,D6
67,Right,0,82,86,27.0,0.979167,Eighth,A#5
68,Left,1,55,86,27.0,2.979167,DottedQuarter,G3
69,Left,1,62,87,27.5,2.479167,TiedQuarter-Sixteenth,D4
70,Left,1,67,88,28.0,1.979167,Quarter,G4
71,Right,0,70,89,28.5,0.979167,Eighth,A#4
72,Right,0,74,91,29.0,0.979167,Eighth,D5
73,Right,0,82,92,29.5,0.979167,Eighth,A#5
75,Left,1,51,93,30.0,2.979167,DottedQuarter,D#3
74,Right,0,79,93,30.0,0.979167,Eighth,G5
76,Left,1,58,94,30.5,2.479167,TiedQuarter-Sixteenth,A#3
77,Left,1,63,95,31.0,1.979167,Quarter,D#4
78,Right,0,67,96,31.5,0.979167,Eighth,G4
79,Right,0,70,97,32.0,0.979167,Eighth,A#4
80,Right,0,79,98,32.5,0.979167,Eighth,G5
82,Left,1,49,100,33.0,2.979167,DottedQuarter,C#3
81,Right,0,76,100,33.0,0.979167,Eighth,E5
83,Left,1,57,99,33.5,2.479167,TiedQuarter-Sixteenth,A3
84,Left,1,61,97,34.0,1.979167,Quarter,C#4
85,Right,0,64,96,34.5,0.979167,Eighth,E4
86,Right,0,69,94,35.0,0.979167,Eighth,A4
87,Right,0,76,92,35.5,0.979167,Eighth,E5
88,Right,0,77,91,36.0,0.979167,Eighth,F5
89,Left,1,50,91,36.0,2.979167,DottedQuarter,D3
90,Left,1,57,89,36.5,2.479167,TiedQuarter-Sixteenth,A3
91,Left,1,62,87,37.0,1.979167,Quarter,D4
92,Right,0,65,86,37.5,0.979167,Eighth,F4
93,Right,0,69,84,38.0,0.979167,Eighth,A4
94,Right,0,77,82,38.5,0.979167,Eighth,F5
96,Left,1,45,80,39.0,2.979167,DottedQuarter,A2
95,Right,0,74,80,39.0,0.979167,Eighth,D5
97,Left,1,53,82,39.5,2.479167,TiedQuarter-Sixteenth,F3
98,Left,1,57,84,40.0,1.979167,Quarter,A3
99,Right,0,62,87,40.5,0.979167,Eighth,D4
100,Right,0,69,89,41.0,0.979167,Eighth,A4
101,Right,0,74,92,41.5,0.979167,Eighth,D5
102,Right,0,73,94,42.0,0.979167,Eighth,C#5
103,Left,1,45,94,42.0,2.979167,DottedQuarter,A2
104,Left,1,52,97,42.5,2.479167,TiedQuarter-Sixteenth,E3
105,Left,1,55,99,43.0,1.979167,Quarter,G3
107,Left,1,57,102,43.5,1.479167,DottedEighth,A3
106,Right,0,61,102,43.5,0.979167,Eighth,C#4
108,Right,0,69,104,44.0,0.979167,Eighth,A4
109,Right,0,73,107,44.5,0.979167,Eighth,C#5
110,Left,1,38,110,45.0,0.979167,Eighth,D2
111,Right,0,74,110,45.0,0.979167,Eighth,D5
112,Left,1,50,110,45.5,0.979167,Eighth,D3
113,Left,1,53,110,46.0,0.979167,Eighth,F3
114,Left,1,57,110,46.5,0.979167,Eighth,A3
116,Left,1,62,110,47.0,0.979167,Eighth,D4
115,Right,0,65,110,47.0,0.979167,Eighth,F4
117,Right,0,69,110,47.5,0.979167,Eighth,A4
118,Right,0,74,110,48.0,0.979167,Eighth,D5
119,Right,0,77,110,48.5,0.979167,Eighth,F5
120,Right,0,81,110,49.0,0.979167,Eighth,A5
121,Right,0,77,110,49.5,0.979167,Eighth,F5
122,Right,0,86,110,50.0,0.979167,Eighth,D6
123,Right,0,81,110,50.5,0.979167,Eighth,A5
125,Right,0,82,86,51.0,0.979167,Eighth,A#5
124,Left,1,55,86,51.0,2.979167,DottedQuarter,G3
126,Left,1,62,87,51.5,2.479167,TiedQuarter-Sixteenth,D4
127,Left,1,67,88,52.0,1.979167,Quarter,G4
128,Right,0,70,89,52.5,0.979167,Eighth,A#4
129,Right,0,74,91,53.0,0.979167,Eighth,D5
130,Right,0,82,92,53.5,0.979167,Eighth,A#5
132,Right,0,79,93,54.0,0.979167,Eighth,G5
131,Left,1,51,93,54.0,2.979167,DottedQuarter,D#3
133,Left,1,58,94,54.5,2.479167,TiedQuarter-Sixteenth,A#3
134,Left,1,63,95,55.0,1.979167,Quarter,D#4
135,Right,0,67,96,55.5,0.979167,Eighth,G4
136,Right,0,70,97,56.0,0.979167,Eighth,A#4
137,Right,0,79,98,56.5,0.979167,Eighth,G5
139,Left,1,49,100,57.0,2.979167,DottedQuarter,C#3
138,Right,0,76,100,57.0,0.979167,Eighth,E5
140,Left,1,57,99,57.5,2.479167,TiedQuarter-Sixteenth,A3
141,Left,1,61,97,58.0,1.979167,Quarter,C#4
142,Right,0,64,96,58.5,0.979167,Eighth,E4
143,Right,0,69,94,59.0,0.979167,Eighth,A4
144,Right,0,76,92,59.5,0.979167,Eighth,E5
146,Right,0,77,91,60.0,0.979167,Eighth,F5
145,Left,1,50,91,60.0,2.979167,DottedQuarter,D3
147,Left,1,57,89,60.5,2.479167,TiedQuarter-Sixteenth,A3
148,Left,1,62,87,61.0,1.979167,Quarter,D4
149,Right,0,65,86,61.5,0.979167,Eighth,F4
150,Right,0,69,84,62.0,0.979167,Eighth,A4
151,Right,0,77,82,62.5,0.979167,Eighth,F5
153,Right,0,74,80,63.0,0.979167,Eighth,D5
152,Left,1,45,80,63.0,2.979167,DottedQuarter,A2
154,Left,1,53,82,63.5,2.479167,TiedQuarter-Sixteenth,F3
155,Left,1,57,84,64.0,1.979167,Quarter,A3
156,Right,0,62,87,64.5,0.979167,Eighth,D4
157,Right,0,69,89,65.0,0.979167,Eighth,A4
158,Right,0,74,92,65.5,0.979167,Eighth,D5
160,Left,1,45,94,66.0,2.979167,DottedQuarter,A2
159,Right,0,73,94,66.0,0.979167,Eighth,C#5
161,Left,1,52,97,66.5,2.479167,TiedQuarter-Sixteenth,E3
162,Left,1,55,99,67.0,1.979167,Quarter,G3
163,Left,1,57,102,67.5,1.479167,DottedEighth,A3
164,Right,0,61,102,67.5,0.979167,Eighth,C#4
165,Right,0,69,104,68.0,0.979167,Eighth,A4
166,Right,0,73,107,68.5,0.979167,Eighth,C#5
167,Right,0,74,110,69.0,0.979167,Eighth,D5
168,Left,1,38,110,69.0,0.979167,Eighth,D2
169,Left,1,53,109,69.5,0.979167,Eighth,F3
170,Right,0,69,108,69.75,0.479167,Sixteenth,A4
172,Right,0,81,107,70.0,1.979167,Quarter,A5
171,Left,1,57,107,70.0,0.979167,Eighth,A3
173,Left,1,62,106,70.5,0.979167,Eighth,D4
174,Right,0,80,101,72.0,0.729167,DottedSixteenth,G#5
175,Right,0,79,99,72.5,0.729167,DottedSixteenth,G5
176,Right,0,78,97,73.0,0.729167,DottedSixteenth,F#5
177,Right,0,77,96,73.5,0.729167,DottedSixteenth,F5
178,Right,0,76,94,74.0,0.729167,DottedSixteenth,E5
179,Right,0,75,92,74.5,0.729167,DottedSixteenth,D#5
181,Right,0,74,80,75.0,0.979167,Eighth,D5
180,Left,1,45,80,75.0,2.979167,DottedQuarter,A2
182,Left,1,53,82,75.5,2.479167,TiedQuarter-Sixteenth,F3
183,Left,1,57,84,76.0,1.979167,Quarter,A3
184,Right,0,62,87,76.5,0.979167,Eighth,D4
185,Right,0,69,89,77.0,0.979167,Eighth,A4
186,Right,0,74,92,77.5,0.979167,Eighth,D5
188,Right,0,73,94,78.0,0.979167,Eighth,C#5
187,Left,1,45,94,78.0,2.979167,DottedQuarter,A2
189,Left,1,52,97,78.5,2.479167,TiedQuarter-Sixteenth,E3
190,Left,1,55,99,79.0,1.979167,Quarter,G3
192,Right,0,61,102,79.5,0.979167,Eighth,C#4
191,Left,1,57,102,79.5,1.479167,DottedEighth,A3
193,Right,0,69,104,80.0,0.979167,Eighth,A4
194,Right,0,73,107,80.5,0.979167,Eighth,C#5
195,Left,1,38,110,81.0,0.979167,Eighth,D2
196,Left,1,53,110,81.5,0.979167,Eighth,F3
197,Right,0,74,110,81.75,0.229167,ThirtySecond,D5
198,Right,0,86,110,82.0,1.979167,Quarter,D6
199,Left,1,57,110,82.0,0.979167,Eighth,A3
200,Left,1,62,110,82.5,0.979167,Eighth,D4
201,Right,0,85,110,84.0,0.729167,DottedSixteenth,C#6
202,Right,0,84,107,84.5,0.729167,DottedSixteenth,C6
203,Right,0,83,104,85.0,0.729167,DottedSixteenth,B5
204,Right,0,82,101,85.5,0.729167,DottedSixteenth,A#5
205,Right,0,81,97,86.0,0.729167,DottedSixteenth,A5
206,Right,0,80,94,86.5,0.729167,DottedSixteenth,G#5
207,Right,0,81,80,87.0,0.979167,Eighth,A5
208,Left,1,45,80,87.0,2.979167,DottedQuarter,A2
209,Left,1,53,83,87.5,2.479167,TiedQuarter-Sixteenth,F3
210,Left,1,57,87,88.0,1.979167,Quarter,A3
211,Right,0,62,91,88.5,0.979167,Eighth,D4
212,Right,0,69,94,89.0,0.979167,Eighth,A4
213,Right,0,74,98,89.5,0.979167,Eighth,D5
214,Right,0,73,102,90.0,0.979167,Eighth,C#5
215,Left,1,45,102,90.0,0.979167,Eighth,A2
216,Left,1,52,106,90.5,0.979167,Eighth,E3
217,Left,1,55,109,91.0,0.979167,Eighth,G3
218,Left,1,33,110,91.5,0.979167,Eighth,A1
219,Right,0,73,110,91.5,0.979167,Eighth,C#5
221,Left,1,41,110,92.0,0.979167,Eighth,F2
220,Right,0,81,110,92.0,0.979167,Eighth,A5
222,Left,1,40,110,92.5,0.979167,Eighth,E2
223,Right,0,85,110,92.5,0.979167,Eighth,C#6
224,Left,1,38,110,93.0,0.979167,Eighth,D2
225,Right,0,86,110,93.0,0.979167,Eighth,D6
226,Right,0,50,110,93.5,0.979167,Eighth,D3
227,Right,0,53,110,94.0,0.979167,Eighth,F3
228,Left,1,33,110,94.5,0.979167,Eighth,A1
229,Right,0,57,110,94.5,0.979167,Eighth,A3
231,Left,1,41,110,95.0,0.979167,Eighth,F2
230,Right,0,62,110,95.0,0.979167,Eighth,D4
232,Left,1,40,110,95.5,0.979167,Eighth,E2
233,Left,1,38,110,96.0,0.979167,Eighth,D2
234,Right,0,50,110,96.5,0.979167,Eighth,D3
235,Right,0,53,110,97.0,0.979167,Eighth,F3
236,Left,1,33,110,97.5,0.979167,Eighth,A1
237,Right,0,57,110,97.5,0.979167,Eighth,A3
239,Right,0,62,110,98.0,0.979167,Eighth,D4
238,Left,1,41,110,98.0,0.979167,Eighth,F2
240,Left,1,40,110,98.5,0.979167,Eighth,E2
241,Left,1,38,110,99.0,0.979167,Eighth,D2
242,Right,0,50,110,99.5,0.979167,Eighth,D3
243,Right,0,53,110,100.0,0.979167,Eighth,F3
245,Left,1,33,110,100.5,0.979167,Eighth,A1
244,Right,0,57,110,100.5,0.979167,Eighth,A3
247,Left,1,41,110,101.0,0.979167,Eighth,F2
246,Right,0,62,110,101.0,0.979167,Eighth,D4
248,Left,1,38,110,101.5,0.979167,Eighth,D2
250,Left,1,43,110,102.0,2.979167,DottedQuarter,G2_G1
249,Right,0,50,110,102.0,0.979167,Eighth,D3
252,Right,0,53,110,102.5,0.979167,Eighth,F3
253,Right,0,59,110,103.0,0.979167,Eighth,B3
254,Right,0,62,110,103.5,0.979167,Eighth,D4
255,Right,0,65,110,104.0,0.979167,Eighth,F4
256,Right,0,71,110,104.5,0.979167,Eighth,B4
258,Left,1,36,110,105.0,1.979167,Quarter,C3_C2
257,Right,0,60,110,105.0,0.979167,Eighth,C4
260,Right,0,72,110,105.5,0.979167,Eighth,C5
261,Left,1,52,110,106.0,0.979167,Eighth,E3
262,Right,0,64,110,106.0,0.979167,Eighth,E4
263,Right,0,76,110,106.5,0.979167,Eighth,E5
265,Right,0,67,110,107.0,0.979167,Eighth,G4
264,Left,1,55,110,107.0,0.979167,Eighth,G3
266,Right,0,79,110,107.5,0.979167,Eighth,G5
268,Right,0,72,110,108.0,0.979167,Eighth,C5
267,Left,1,60,110,108.0,0.979167,Eighth,C4
269,Right,0,84,110,108.5,0.979167,Eighth,C6
270,Right,0,76,110,109.0,0.979167,Eighth,E5
271,Left,1,64,110,109.0,0.979167,Eighth,E4
272,Right,0,88,110,109.5,0.979167,Eighth,E6
274,Left,1,60,110,110.0,0.979167,Eighth,C4
273,Right,0,72,110,110.0,0.979167,Eighth,C5
275,Right,0,84,110,110.5,0.979167,Eighth,C6
277,Right,0,67,110,111.0,0.979167,Eighth,G4
276,Left,1,55,110,111.0,0.979167,Eighth,G3
278,Right,0,79,110,111.5,0.979167,Eighth,G5
279,Right,0,64,110,112.0,0.979167,Eighth,E4
280,Left,1,52,110,112.0,0.979167,Eighth,E3
281,Right,0,76,110,112.5,0.979167,Eighth,E5
282,Right,0,67,110,113.0,0.979167,Eighth,G4
283,Left,1,55,110,113.0,0.979167,Eighth,G3
284,Right,0,79,110,113.5,0.979167,Eighth,G5
286,Left,1,52,110,114.0,0.979167,Eighth,E3
285,Right,0,64,110,114.0,0.979167,Eighth,E4
287,Right,0,76,110,114.5,0.979167,Eighth,E5
289,Left,1,48,110,115.0,0.979167,Eighth,C3
288,Right,0,60,110,115.0,0.979167,Eighth,C4
291,Left,1,31,110,115.5,0.979167,Eighth,G1
290,Right,0,72,110,115.5,0.979167,Eighth,C5
292,Left,1,40,110,116.0,0.979167,Eighth,E2
293,Left,1,38,110,116.5,0.979167,Eighth,D2
294,Left,1,36,110,117.0,0.979167,Eighth,C2
295,Right,0,48,110,117.5,0.979167,Eighth,C3
296,Right,0,52,110,118.0,0.979167,Eighth,E3
298,Left,1,31,110,118.5,0.979167,Eighth,G1
297,Right,0,55,110,118.5,0.979167,Eighth,G3
300,Right,0,60,110,119.0,0.979167,Eighth,C4
299,Left,1,40,110,119.0,0.979167,Eighth,E2
301,Left,1,38,110,119.5,0.979167,Eighth,D2
302,Left,1,36,110,120.0,0.979167,Eighth,C2
303,Right,0,48,110,120.5,0.979167,Eighth,C3
304,Right,0,52,110,121.0,0.979167,Eighth,E3
305,Right,0,55,110,121.5,0.979167,Eighth,G3
306,Left,1,31,110,121.5,0.979167,Eighth,G1
308,Right,0,60,110,122.0,0.979167,Eighth,C4
307,Left,1,40,110,122.0,0.979167,Eighth,E2
309,Left,1,38,110,122.5,0.979167,Eighth,D2
310,Left,1,36,110,123.0,0.979167,Eighth,C2
311,Right,0,48,110,123.5,0.979167,Eighth,C3
312,Right,0,52,110,124.0,0.979167,Eighth,E3
313,Left,1,31,110,124.5,0.979167,Eighth,G1
314,Right,0,55,110,124.5,0.979167,Eighth,G3
315,Left,1,40,110,125.0,0.979167,Eighth,E2
316,Right,0,60,110,125.0,0.979167,Eighth,C4
317,Left,1,36,110,125.5,0.979167,Eighth,C2
320,Right,0,50,110,126.0,0.979167,Eighth,D3_A3
318,Left,1,29,110,126.0,2.979167,DottedQuarter,F2_F1
322,Right,0,62,110,126.5,0.979167,Eighth,D4
323,Right,0,50,110,127.0,0.979167,Eighth,D3_A3
325,Right,0,62,110,127.5,0.979167,Eighth,D4
326,Right,0,51,110,128.0,0.979167,Eighth,D#3_A3
328,Right,0,63,110,128.5,0.979167,Eighth,D#4
331,Right,0,52,110,129.0,0.979167,Eighth,G#3_E4_E3
329,Left,1,28,110,129.0,0.979167,Eighth,E2_E1
335,Right,0,77,110,130.0,0.479167,Sixteenth,F5
334,Left,1,59,110,130.0,0.979167,Eighth,D4_B3
337,Right,0,79,110,130.25,0.479167,Sixteenth,G5
338,Left,1,64,110,130.5,0.979167,Eighth,E4
339,Right,0,77,110,130.5,0.729167,DottedSixteenth,F5
341,Left,1,56,110,131.0,0.979167,Eighth,G#3
340,Right,0,76,110,131.0,0.979167,Eighth,E5
342,Left,1,64,110,131.5,0.979167,Eighth,E4
343,Right,0,77,110,132.0,0.479167,Sixteenth,F5
344,Left,1,62,110,132.0,0.979167,Eighth,D4_B3
346,Right,0,79,110,132.25,0.479167,Sixteenth,G5
348,Left,1,64,110,132.5,0.979167,Eighth,E4
347,Right,0,77,110,132.5,0.729167,DottedSixteenth,F5
350,Left,1,56,110,133.0,0.979167,Eighth,G#3
349,Right,0,76,110,133.0,0.979167,Eighth,E5
351,Left,1,64,110,133.5,0.979167,Eighth,E4
353,Left,1,59,110,134.0,0.979167,Eighth,D4_B3
352,Right,0,77,110,134.0,0.479167,Sixteenth,F5
355,Right,0,79,110,134.25,0.479167,Sixteenth,G5
356,Left,1,64,110,134.5,0.979167,Eighth,E4
357,Right,0,77,110,134.5,0.729167,DottedSixteenth,F5
359,Right,0,76,110,135.0,0.979167,Eighth,E5
358,Left,1,56,110,135.0,0.979167,Eighth,G#3
360,Left,1,64,110,135.5,0.979167,Eighth,E4
361,Left,1,62,110,136.0,0.979167,Eighth,D4_B3
363,Right,0,77,110,136.0,0.479167,Sixteenth,F5
364,Right,0,79,110,136.25,0.479167,Sixteenth,G5
366,Right,0,77,110,136.5,0.729167,DottedSixteenth,F5
365,Left,1,64,110,136.5,0.979167,Eighth,E4
368,Left,1,56,110,137.0,0.979167,Eighth,G#3
367,Right,0,76,110,137.0,0.979167,Eighth,E5
369,Left,1,64,110,137.5,0.979167,Eighth,E4
370,Left,1,59,110,138.0,0.979167,Eighth,D4_B3
372,Right,0,77,110,138.0,0.479167,Sixteenth,F5
373,Right,0,79,110,138.25,0.479167,Sixteenth,G5
374,Left,1,64,110,138.5,0.979167,Eighth,E4
375,Right,0,77,110,138.5,0.729167,DottedSixteenth,F5
376,Right,0,76,110,139.0,0.979167,Eighth,E5
377,Left,1,56,110,139.0,0.979167,Eighth,G#3
378,Left,1,64,110,139.5,0.979167,Eighth,E4
379,Right,0,77,110,140.0,0.479167,Sixteenth,F5
380,Left,1,62,110,140.0,0.979167,Eighth,D4_B3
382,Right,0,79,110,140.25,0.479167,Sixteenth,G5
383,Right,0,77,110,140.5,0.729167,DottedSixteenth,F5
384,Left,1,64,110,140.5,0.979167,Eighth,E4
386,Left,1,56,110,141.0,0.979167,Eighth,G#3
385,Right,0,76,110,141.0,0.979167,Eighth,E5
387,Left,1,64,110,141.5,0.979167,Eighth,E4
388,Left,1,59,110,142.0,0.979167,Eighth,D4_B3
390,Right,0,77,110,142.0,2.979167,DottedQuarter,F5
391,Left,1,64,110,142.5,0.979167,Eighth,E4
392,Left,1,56,110,143.0,0.979167,Eighth,G#3
393,Left,1,64,110,143.5,0.979167,Eighth,E4
394,Left,1,62,100,144.0,0.979167,Eighth,D4_B3
396,Left,1,64,99,144.5,0.979167,Eighth,E4
397,Right,0,76,97,145.0,0.979167,Eighth,E5
398,Left,1,56,97,145.0,0.979167,Eighth,G#3
399,Left,1,64,96,145.5,0.979167,Eighth,E4
402,Right,0,74,94,146.0,0.979167,Eighth,D5
400,Left,1,59,94,146.0,0.979167,Eighth,D4_B3
403,Left,1,64,92,146.5,0.979167,Eighth,E4
404,Left,1,57,80,147.0,0.979167,Eighth,A3
405,Right,0,72,80,147.0,0.479167,Sixteenth,C5
406,Right,0,74,80,147.25,0.479167,Sixteenth,D5
407,Right,0,72,80,147.5,0.729167,DottedSixteenth,C5
408,Left,1,64,80,147.5,0.979167,Eighth,E4
409,Right,0,71,80,148.0,0.979167,Eighth,B4
410,Left,1,60,80,148.0,0.979167,Eighth,C4
411,Left,1,64,80,148.5,0.979167,Eighth,E4
413,Right,0,69,80,149.0,0.979167,Eighth,A4
412,Left,1,57,80,149.0,0.979167,Eighth,A3
414,Left,1,64,80,149.5,0.979167,Eighth,E4
416,Right,0,68,80,150.0,0.979167,Eighth,G#4
415,Left,1,52,80,150.0,0.979167,Eighth,E3
417,Left,1,62,80,150.5,0.979167,Eighth,D4
418,Right,0,69,80,151.0,0.979167,Eighth,A4
419,Left,1,59,80,151.0,0.979167,Eighth,B3
420,Left,1,62,80,151.5,0.979167,Eighth,D4
422,Right,0,71,80,152.0,0.979167,Eighth,B4
421,Left,1,52,80,152.0,0.979167,Eighth,E3
423,Left,1,62,80,152.5,0.979167,Eighth,D4
425,Right,0,69,80,153.0,0.979167,Eighth,A4
424,Left,1,57,80,153.0,0.979167,Eighth,C4_A3
427,Left,1,64,80,153.5,0.979167,Eighth,E4
428,Left,1,62,110,154.0,0.979167,Eighth,D4_B3
429,Right,0,77,110,154.0,0.979167,Eighth,F5
432,Right,0,89,110,154.5,0.979167,Eighth,F6
431,Left,1,64,110,154.5,0.979167,Eighth,E4
433,Right,0,76,110,155.0,0.979167,Eighth,E5
434,Left,1,56,110,155.0,0.979167,Eighth,G#3
435,Right,0,88,110,155.5,0.979167,Eighth,E6
436,Left,1,64,110,155.5,0.979167,Eighth,E4
437,Right,0,77,110,156.0,0.979167,Eighth,F5
438,Left,1,59,110,156.0,0.979167,Eighth,D4_B3
441,Right,0,89,110,156.5,0.979167,Eighth,F6
440,Left,1,64,110,156.5,0.979167,Eighth,E4
443,Right,0,76,110,157.0,0.979167,Eighth,E5
442,Left,1,56,110,157.0,0.979167,Eighth,G#3
445,Right,0,88,110,157.5,0.979167,Eighth,E6
444,Left,1,64,110,157.5,0.979167,Eighth,E4
448,Right,0,77,110,158.0,0.979167,Eighth,F5
446,Left,1,59,110,158.0,0.979167,Eighth,D4_B3
449,Left,1,64,110,158.5,0.979167,Eighth,E4
450,Right,0,89,110,158.5,0.979167,Eighth,F6
452,Right,0,76,110,159.0,0.979167,Eighth,E5
451,Left,1,56,110,159.0,0.979167,Eighth,G#3
454,Left,1,64,110,159.5,0.979167,Eighth,E4
453,Right,0,88,110,159.5,0.979167,Eighth,E6
457,Right,0,77,110,160.0,0.979167,Eighth,F5
455,Left,1,59,110,160.0,0.979167,Eighth,D4_B3
459,Left,1,64,110,160.5,0.979167,Eighth,E4
458,Right,0,89,110,160.5,0.979167,Eighth,F6
461,Right,0,76,110,161.0,0.979167,Eighth,E5
460,Left,1,56,110,161.0,0.979167,Eighth,G#3
462,Left,1,64,110,161.5,0.979167,Eighth,E4
463,Right,0,88,110,161.5,0.979167,Eighth,E6
465,Left,1,59,110,162.0,0.979167,Eighth,D4_B3
464,Right,0,77,110,162.0,0.979167,Eighth,F5
467,Right,0,89,110,162.5,0.979167,Eighth,F6
468,Left,1,64,110,162.5,0.979167,Eighth,E4
470,Left,1,56,110,163.0,0.979167,Eighth,G#3
469,Right,0,76,110,163.0,0.979167,Eighth,E5
471,Left,1,64,110,163.5,0.979167,Eighth,E4
472,Right,0,88,110,163.5,0.979167,Eighth,E6
473,Right,0,77,110,164.0,0.979167,Eighth,F5
474,Left,1,62,110,164.0,0.979167,Eighth,D4_B3
477,Left,1,64,110,164.5,0.979167,Eighth,E4
476,Right,0,89,110,164.5,0.979167,Eighth,F6
480,Left,1,56,110,165.0,0.979167,Eighth,G#3
478,Right,0,88,110,165.0,0.979167,Eighth,E6_E5
481,Left,1,64,110,165.5,0.979167,Eighth,E4
482,Left,1,62,110,166.0,0.979167,Eighth,D4_B3
484,Right,0,89,110,166.0,2.979167,DottedQuarter,F6_F5
486,Left,1,64,100,166.5,0.979167,Eighth,E4
487,Left,1,56,99,167.0,0.979167,Eighth,G#3
488,Left,1,64,98,167.5,0.979167,Eighth,E4
489,Left,1,62,97,168.0,0.979167,Eighth,D4_B3
491,Left,1,64,96,168.5,0.979167,Eighth,E4
494,Left,1,56,95,169.0,0.979167,Eighth,G#3
492,Right,0,76,95,169.0,0.979167,Eighth,E6_E5
495,Left,1,64,94,169.5,0.979167,Eighth,E4
496,Left,1,59,93,170.0,0.979167,Eighth,D4_B3
497,Right,0,86,93,170.0,0.979167,Eighth,D6_D5
500,Left,1,64,92,170.5,0.979167,Eighth,E4
502,Left,1,57,80,171.0,0.979167,Eighth,A3
501,Right,0,72,80,171.0,0.979167,Eighth,C6_C5
504,Left,1,64,80,171.5,0.979167,Eighth,E4
505,Left,1,60,80,172.0,0.979167,Eighth,C4
506,Right,0,83,80,172.0,0.979167,Eighth,B5_B4
508,Left,1,64,80,172.5,0.979167,Eighth,E4
510,Left,1,57,80,173.0,0.979167,Eighth,A3
509,Right,0,69,80,173.0,0.979167,Eighth,A5_A4
512,Left,1,64,80,173.5,0.979167,Eighth,E4
515,Left,1,52,80,174.0,0.979167,Eighth,E3
513,Right,0,80,80,174.0,0.979167,Eighth,G#5_G#4
516,Left,1,62,80,174.5,0.979167,Eighth,D4
518,Right,0,69,80,175.0,0.979167,Eighth,A5_A4
517,Left,1,59,80,175.0,0.979167,Eighth,B3
520,Left,1,62,80,175.5,0.979167,Eighth,D4
521,Left,1,52,80,176.0,0.979167,Eighth,E3
522,Right,0,83,80,176.0,0.979167,Eighth,B5_B4
524,Left,1,62,80,176.5,0.979167,Eighth,D4
525,Left,1,53,80,177.0,0.979167,Eighth,F3
526,Right,0,81,80,177.0,0.979167,Eighth,A5_A4
528,Left,1,60,80,177.5,0.979167,Eighth,C4
529,Left,1,57,80,178.0,0.979167,Eighth,A3
530,Right,0,77,80,178.0,0.979167,Eighth,F6_F5
532,Left,1,60,81,178.5,0.979167,Eighth,C4
535,Left,1,53,82,179.0,0.979167,Eighth,F3
533,Right,0,77,82,179.0,0.979167,Eighth,F6_F5
536,Left,1,60,84,179.5,0.979167,Eighth,C4
537,Right,0,89,85,180.0,0.979167,Eighth,F6_F5
539,Left,1,50,85,180.0,0.979167,Eighth,D3
540,Left,1,58,86,180.5,0.979167,Eighth,A#3
542,Right,0,76,88,181.0,0.979167,Eighth,E6_E5
541,Left,1,53,88,181.0,0.979167,Eighth,F3
544,Left,1,58,89,181.5,0.979167,Eighth,A#3
546,Right,0,86,90,182.0,0.979167,Eighth,D6_D5
545,Left,1,50,90,182.0,0.979167,Eighth,D3
548,Left,1,58,92,182.5,0.979167,Eighth,A#3
550,Left,1,52,93,183.0,0.979167,Eighth,E3
549,Right,0,84,93,183.0,0.979167,Eighth,C6_C5
552,Left,1,60,94,183.5,0.979167,Eighth,C4
554,Right,0,71,96,184.0,0.979167,Eighth,B5_B4
553,Left,1,57,96,184.0,0.979167,Eighth,A3
556,Left,1,60,97,184.5,0.979167,Eighth,C4
557,Right,0,69,99,185.0,0.979167,Eighth,A5_A4
559,Left,1,52,99,185.0,0.979167,Eighth,E3
560,Left,1,60,100,185.5,0.979167,Eighth,C4
561,Right,0,68,101,186.0,0.979167,Eighth,G#5_G#4
563,Left,1,50,101,186.0,0.979167,Eighth,D3
564,Left,1,59,103,186.5,0.979167,Eighth,B3
566,Right,0,81,104,187.0,0.979167,Eighth,A5_A4
565,Left,1,52,104,187.0,0.979167,Eighth,E3
568,Left,1,59,105,187.5,0.979167,Eighth,B3
570,Right,0,83,107,188.0,0.979167,Eighth,B5_B4
569,Left,1,50,107,188.0,0.979167,Eighth,D3
572,Left,1,59,108,188.5,0.979167,Eighth,B3
574,Left,1,48,110,189.0,0.979167,Eighth,C3
573,Right,0,81,110,189.0,0.979167,Eighth,A5_A4
576,Left,1,57,110,189.5,0.979167,Eighth,A3
579,Left,1,47,110,190.0,0.979167,Eighth,B2
577,Right,0,77,110,190.0,0.979167,Eighth,F6_F5
580,Left,1,57,110,190.5,0.979167,Eighth,A3
581,Left,1,48,110,191.0,0.979167,Eighth,C3
582,Right,0,77,110,191.0,0.979167,Eighth,F6_F5
584,Left,1,57,110,191.5,0.979167,Eighth,A3
585,Left,1,50,110,192.0,0.979167,Eighth,D3
586,Right,0,89,110,192.0,0.979167,Eighth,F6_F5
588,Left,1,57,110,192.5,0.979167,Eighth,B3_A3
592,Left,1,48,110,193.0,0.979167,Eighth,C3
590,Right,0,88,110,193.0,0.979167,Eighth,E6_E5
593,Left,1,59,110,193.5,0.979167,Eighth,B3_A3
597,Left,1,50,110,194.0,0.979167,Eighth,D3
595,Right,0,74,110,194.0,0.979167,Eighth,D6_D5
598,Left,1,57,110,194.5,0.979167,Eighth,B3_A3
601,Right,0,72,110,195.0,0.979167,Eighth,C6_C5
600,Left,1,52,110,195.0,0.979167,Eighth,E3
603,Left,1,57,110,195.5,0.979167,Eighth,C4_A3
606,Right,0,71,110,196.0,0.979167,Eighth,B5_B4
605,Left,1,51,110,196.0,0.979167,Eighth,D#3
608,Left,1,60,110,196.5,0.979167,Eighth,C4_A3
610,Right,0,81,110,197.0,0.979167,Eighth,A5_A4
611,Left,1,52,110,197.0,0.979167,Eighth,E3
613,Left,1,57,110,197.5,0.979167,Eighth,C4_A3
615,Right,0,68,110,198.0,0.979167,Eighth,G#5_G#4
616,Left,1,52,110,198.0,0.979167,Eighth,E3
618,Left,1,59,110,198.5,0.979167,Eighth,D4_B3
622,Left,1,52,110,199.0,0.979167,Eighth,E3
620,Right,0,69,110,199.0,0.979167,Eighth,A5_A4
623,Left,1,60,110,199.5,0.979167,Eighth,C4_A3
626,Left,1,52,110,200.0,0.979167,Eighth,E3
625,Right,0,83,110,200.0,0.979167,Eighth,B5_B4
628,Left,1,56,110,200.5,0.979167,Eighth,G#3_B3
630,Left,1,45,80,201.0,0.979167,Eighth,A2
631,Right,0,69,80,201.0,0.979167,Eighth,A5_A4
633,Left,1,60,80,201.5,0.979167,Eighth,C4
634,Left,1,57,80,202.0,0.979167,Eighth,A3
635,Left,1,60,80,202.5,0.979167,Eighth,C4
636,Right,0,69,80,203.0,0.979167,Eighth,A4
637,Left,1,52,80,203.0,0.979167,Eighth,E3
639,Right,0,81,80,203.5,0.979167,Eighth,A5
638,Left,1,60,80,203.5,0.979167,Eighth,C4
641,Right,0,72,80,204.0,0.979167,Eighth,C5
640,Left,1,45,80,204.0,0.979167,Eighth,A2
642,Left,1,60,80,204.5,0.979167,Eighth,C4
643,Left,1,57,80,205.0,0.979167,Eighth,A3
644,Left,1,60,80,205.5,0.979167,Eighth,C4
646,Left,1,52,80,206.0,0.979167,Eighth,E3
645,Right,0,72,80,206.0,0.979167,Eighth,C5
647,Left,1,60,80,206.5,0.979167,Eighth,C4
648,Right,0,84,80,206.5,0.979167,Eighth,C6
650,Left,1,45,80,207.0,0.979167,Eighth,A2
649,Right,0,76,80,207.0,0.979167,Eighth,E5
651,Left,1,60,80,207.5,0.979167,Eighth,C4
652,Left,1,57,80,208.0,0.979167,Eighth,A3
653,Left,1,60,80,208.5,0.979167,Eighth,C4
655,Left,1,52,80,209.0,0.979167,Eighth,E3
654,Right,0,76,80,209.0,0.979167,Eighth,E5
657,Left,1,60,80,209.5,0.979167,Eighth,C4
656,Right,0,88,80,209.5,0.979167,Eighth,E6
658,Right,0,72,80,210.0,0.979167,Eighth,C5
659,Left,1,45,80,210.0,0.979167,Eighth,A2
660,Left,1,60,80,210.5,0.979167,Eighth,C4
661,Left,1,57,80,211.0,0.979167,Eighth,A3
662,Left,1,60,80,211.5,0.979167,Eighth,C4
664,Left,1,52,80,212.0,0.979167,Eighth,E3
663,Right,0,72,80,212.0,0.979167,Eighth,C5
666,Right,0,84,80,212.5,0.979167,Eighth,C6
665,Left,1,60,80,212.5,0.979167,Eighth,C4
668,Right,0,69,80,213.0,3.979167,Half,A4
667,Left,1,45,80,213.0,0.979167,Eighth,A2
669,Left,1,60,81,213.5,0.979167,Eighth,C4
670,Left,1,57,83,214.0,0.979167,Eighth,A3
671,Right,0,81,83,214.0,2.979167,DottedQuarter,A5
672,Left,1,60,84,214.5,0.979167,Eighth,C4
673,Left,1,52,86,215.0,0.979167,Eighth,E3
674,Left,1,60,88,215.5,0.979167,Eighth,C4
675,Left,1,40,89,216.0,0.979167,Eighth,E2
676,Left,1,62,91,216.5,0.979167,Eighth,D4
678,Right,0,71,93,217.0,0.979167,Eighth,B5_B4
677,Left,1,59,93,217.0,0.979167,Eighth,B3
680,Left,1,62,94,217.5,0.979167,Eighth,D4
681,Left,1,52,96,218.0,0.979167,Eighth,E3
682,Right,0,80,96,218.0,0.979167,Eighth,G#5_G#4
684,Left,1,62,98,218.5,0.979167,Eighth,D4
686,Right,0,81,99,219.0,0.979167,Eighth,A5_A4
685,Left,1,45,100,219.0,0.979167,Eighth,A2
688,Left,1,60,80,219.5,0.979167,Eighth,C4
689,Left,1,57,80,220.0,0.979167,Eighth,A3
690,Left,1,60,80,220.5,0.979167,Eighth,C4
691,Right,0,69,80,220.5,0.979167,Eighth,A4
693,Left,1,52,80,221.0,0.979167,Eighth,E3
692,Right,0,81,80,221.0,0.979167,Eighth,A5
695,Left,1,60,80,221.5,0.979167,Eighth,C4
694,Right,0,69,80,221.5,0.979167,Eighth,A4
696,Left,1,45,80,222.0,0.979167,Eighth,A2
697,Right,0,72,80,222.0,0.979167,Eighth,C5
698,Left,1,60,80,222.5,0.979167,Eighth,C4
699,Left,1,57,80,223.0,0.979167,Eighth,A3
701,Right,0,72,80,223.5,0.979167,Eighth,C5
700,Left,1,60,80,223.5,0.979167,Eighth,C4
702,Right,0,84,80,224.0,0.979167,Eighth,C6
703,Left,1,52,80,224.0,0.979167,Eighth,E3
704,Left,1,60,80,224.5,0.979167,Eighth,C4
705,Right,0,72,80,224.5,0.979167,Eighth,C5
707,Right,0,76,80,225.0,0.979167,Eighth,E5
706,Left,1,45,80,225.0,0.979167,Eighth,A2
708,Left,1,60,80,225.5,0.979167,Eighth,C4
709,Left,1,57,80,226.0,0.979167,Eighth,A3
710,Left,1,60,80,226.5,0.979167,Eighth,C4
711,Right,0,76,80,226.5,0.979167,Eighth,E5
713,Right,0,88,80,227.0,0.979167,Eighth,E6
712,Left,1,52,80,227.0,0.979167,Eighth,E3
714,Right,0,76,80,227.5,0.979167,Eighth,E5
715,Left,1,60,80,227.5,0.979167,Eighth,C4
716,Left,1,45,80,228.0,0.979167,Eighth,A2
717,Right,0,72,80,228.0,0.979167,Eighth,C5
718,Left,1,60,80,228.5,0.979167,Eighth,C4
719,Left,1,57,80,229.0,0.979167,Eighth,A3
721,Left,1,60,80,229.5,0.979167,Eighth,C4
720,Right,0,72,80,229.5,0.979167,Eighth,C5
723,Right,0,84,80,230.0,0.979167,Eighth,C6
722,Left,1,52,80,230.0,0.979167,Eighth,E3
724,Left,1,60,80,230.5,0.979167,Eighth,C4
725,Right,0,72,80,230.5,0.979167,Eighth,C5
727,Left,1,45,80,231.0,0.979167,Eighth,A2
726,Right,0,69,90,231.0,3.979167,Half,A4
728,Left,1,60,81,231.5,0.979167,Eighth,C4
729,Left,1,57,83,232.0,0.979167,Eighth,A3
730,Right,0,81,92,232.0,2.979167,DottedQuarter,A5
731,Left,1,60,84,232.5,0.979167,Eighth,C4
732,Left,1,52,86,233.0,0.979167,Eighth,E3
733,Left,1,60,88,233.5,0.979167,Eighth,C4
734,Left,1,40,89,234.0,0.979167,Eighth,E2
735,Left,1,62,91,234.5,0.979167,Eighth,D4
737,Left,1,59,93,235.0,0.979167,Eighth,B3
736,Right,0,71,93,235.0,0.979167,Eighth,B5_B4
739,Left,1,62,94,235.5,0.979167,Eighth,D4
742,Left,1,52,96,236.0,0.979167,Eighth,E3
740,Right,0,68,96,236.0,0.979167,Eighth,G#5_G#4
743,Left,1,62,98,236.5,0.979167,Eighth,D4
745,Right,0,69,100,237.0,0.979167,Eighth,A5_A4
744,Left,1,45,100,237.0,0.979167,Eighth,A2
747,Left,1,57,101,237.5,0.979167,Eighth,A3
750,Left,1,56,103,238.0,0.979167,Eighth,G#3
748,Right,0,71,103,238.0,0.979167,Eighth,B5_B4
751,Left,1,57,104,238.5,0.979167,Eighth,A3
754,Left,1,55,106,239.0,0.979167,Eighth,G3
752,Right,0,85,106,239.0,0.979167,Eighth,C#6_C#5
755,Left,1,57,108,239.5,0.979167,Eighth,A3
756,Left,1,53,110,240.0,0.979167,Eighth,F3
757,Right,0,74,110,240.0,0.979167,Eighth,D6_D5
759,Left,1,57,109,240.5,0.979167,Eighth,A3
761,Right,0,72,107,241.0,0.979167,Eighth,C6_C5
760,Left,1,52,107,241.0,0.979167,Eighth,E3
763,Left,1,57,106,241.5,0.979167,Eighth,A3
766,Left,1,51,104,242.0,0.979167,Eighth,D#3
764,Right,0,71,104,242.0,0.979167,Eighth,B5_B4
767,Left,1,57,102,242.5,0.979167,Eighth,A3
770,Left,1,52,101,243.0,0.979167,Eighth,E3
768,Right,0,72,101,243.0,0.979167,Eighth,C6_C5
771,Left,1,57,100,243.5,0.979167,Eighth,A3
774,Left,1,59,100,244.0,0.979167,Eighth,B3
772,Right,0,80,100,244.0,0.979167,Eighth,G#5_G#4
775,Left,1,52,100,244.5,0.979167,Eighth,E3
778,Left,1,60,100,245.0,0.979167,Eighth,C4
776,Right,0,81,100,245.0,0.979167,Eighth,A5_A4
779,Left,1,52,100,245.5,0.979167,Eighth,E3
780,Right,0,83,100,246.0,0.979167,Eighth,B5_B4
782,Left,1,62,100,246.0,0.979167,Eighth,D4
783,Left,1,52,100,246.5,0.979167,Eighth,E3
785,Right,0,66,100,247.0,0.979167,Eighth,F#5_F#4
784,Left,1,60,100,247.0,0.979167,Eighth,C4
787,Left,1,52,100,247.5,0.979167,Eighth,E3
788,Left,1,59,100,248.0,0.979167,Eighth,B3
789,Right,0,80,100,248.0,0.979167,Eighth,G#5_G#4
791,Left,1,52,100,248.5,0.979167,Eighth,E3
793,Left,1,45,100,249.0,0.979167,Eighth,A2
792,Right,0,69,100,249.0,0.979167,Eighth,A4
795,Right,0,81,101,249.5,0.979167,Eighth,A5
794,Left,1,57,101,249.5,0.979167,Eighth,A3
796,Right,0,71,103,250.0,0.979167,Eighth,B4
797,Left,1,56,103,250.0,0.979167,Eighth,G#3
798,Right,0,83,104,250.5,0.979167,Eighth,B5
799,Left,1,57,104,250.5,0.979167,Eighth,A3
800,Right,0,73,106,251.0,0.979167,Eighth,C#5
801,Left,1,55,106,251.0,0.979167,Eighth,G3
802,Right,0,85,108,251.5,0.979167,Eighth,C#6
803,Left,1,57,108,251.5,0.979167,Eighth,A3
804,Right,0,74,109,252.0,0.979167,Eighth,D5
805,Left,1,53,109,252.0,0.979167,Eighth,F3
806,Left,1,57,109,252.5,0.979167,Eighth,A3
807,Right,0,86,109,252.5,0.979167,Eighth,D6
808,Right,0,72,107,253.0,0.979167,Eighth,C5
809,Left,1,52,107,253.0,0.979167,Eighth,E3
811,Left,1,57,106,253.5,0.979167,Eighth,A3
810,Right,0,84,106,253.5,0.979167,Eighth,C6
812,Left,1,51,104,254.0,0.979167,Eighth,D#3
813,Right,0,71,104,254.0,0.979167,Eighth,B4
814,Left,1,57,102,254.5,0.979167,Eighth,A3
815,Right,0,83,102,254.5,0.979167,Eighth,B5
816,Right,0,72,101,255.0,0.979167,Eighth,C5
817,Left,1,52,101,255.0,0.979167,Eighth,E3
818,Left,1,57,100,255.5,0.979167,Eighth,A3
819,Right,0,84,100,255.5,0.979167,Eighth,C6
820,Right,0,68,100,256.0,0.979167,Eighth,G#4
821,Left,1,59,100,256.0,0.979167,Eighth,B3
823,Right,0,80,100,256.5,0.979167,Eighth,G#5
822,Left,1,52,100,256.5,0.979167,Eighth,E3
825,Left,1,60,100,257.0,0.979167,Eighth,C4
824,Right,0,69,100,257.0,0.979167,Eighth,A4
826,Left,1,52,100,257.5,0.979167,Eighth,E3
827,Right,0,81,100,257.5,0.979167,Eighth,A5
829,Right,0,71,100,258.0,0.979167,Eighth,B4
828,Left,1,62,100,258.0,0.979167,Eighth,D4
830,Right,0,83,100,258.5,0.979167,Eighth,B5
831,Left,1,52,100,258.5,0.979167,Eighth,E3
832,Right,0,66,100,259.0,0.979167,Eighth,F#4
833,Left,1,60,100,259.0,0.979167,Eighth,C4
835,Left,1,52,100,259.5,0.979167,Eighth,E3
834,Right,0,78,100,259.5,0.979167,Eighth,F#5
837,Right,0,68,100,260.0,0.979167,Eighth,G#4
836,Left,1,59,100,260.0,0.979167,Eighth,B3
839,Right,0,80,100,260.5,0.979167,Eighth,G#5
838,Left,1,52,100,260.5,0.979167,Eighth,E3
840,Right,0,69,112,261.0,0.979167,Eighth,A4
841,Left,1,45,112,261.0,0.979167,Eighth,A2
843,Right,0,81,100,261.5,0.979167,Eighth,A5
842,Left,1,57,100,261.5,0.979167,Eighth,A3
844,Left,1,56,100,262.0,0.979167,Eighth,G#3
845,Right,0,68,100,262.0,0.979167,Eighth,G#4
847,Right,0,69,100,262.5,0.979167,Eighth,A4
846,Left,1,57,100,262.5,0.979167,Eighth,A3
848,Right,0,81,100,263.0,0.979167,Eighth,A5
849,Left,1,45,100,263.0,0.979167,Eighth,A2
851,Right,0,69,100,263.5,0.979167,Eighth,A4
850,Left,1,57,100,263.5,0.979167,Eighth,A3
853,Left,1,56,120,264.0,0.979167,Eighth,G#3
852,Right,0,68,120,264.0,0.979167,Eighth,G#4
855,Right,0,69,100,264.5,0.979167,Eighth,A4
854,Left,1,57,100,264.5,0.979167,Eighth,A3
857,Right,0,81,100,265.0,0.979167,Eighth,A5
856,Left,1,45,100,265.0,0.979167,Eighth,A2
859,Right,0,69,100,265.5,0.979167,Eighth,A4
858,Left,1,57,100,265.5,0.979167,Eighth,A3
861,Left,1,56,100,266.0,0.979167,Eighth,G#3
860,Right,0,68,100,266.0,0.979167,Eighth,G#4
863,Left,1,57,100,266.5,0.979167,Eighth,A3
862,Right,0,69,100,266.5,0.979167,Eighth,A4
865,Left,1,45,112,267.0,0.979167,Eighth,A2
864,Right,0,81,112,267.0,0.979167,Eighth,A5
866,Left,1,57,100,267.5,0.979167,Eighth,A3
867,Right,0,69,100,267.5,0.979167,Eighth,A4
868,Right,0,68,100,268.0,0.979167,Eighth,G#4
869,Left,1,56,100,268.0,0.979167,Eighth,G#3
871,Left,1,57,100,268.5,0.979167,Eighth,A3
870,Right,0,69,100,268.5,0.979167,Eighth,A4
873,Right,0,81,100,269.0,0.979167,Eighth,A5
872,Left,1,45,100,269.0,0.979167,Eighth,A2
874,Left,1,57,100,269.5,0.979167,Eighth,A3
875,Right,0,69,100,269.5,0.979167,Eighth,A4
877,Left,1,56,120,270.0,0.979167,Eighth,G#3
876,Right,0,68,120,270.0,0.979167,Eighth,G#4
879,Left,1,57,100,270.5,0.979167,Eighth,A3
878,Right,0,69,100,270.5,0.979167,Eighth,A4
880,Left,1,45,100,271.0,0.979167,Eighth,A2
881,Right,0,81,100,271.0,0.979167,Eighth,A5
883,Right,0,69,100,271.5,0.979167,Eighth,A4
882,Left,1,57,100,271.5,0.979167,Eighth,A3
885,Right,0,68,100,272.0,0.979167,Eighth,G#4
884,Left,1,56,100,272.0,0.979167,Eighth,G#3
886,Right,0,69,100,272.5,0.979167,Eighth,A4
887,Left,1,57,100,272.5,0.979167,Eighth,A3
891,Right,0,70,100,273.0,0.979167,Eighth,A#4
888,Left,1,61,100,273.0,0.979167,Eighth,G4_E4_C#4
892,Right,0,69,80,273.5,0.979167,Eighth,A4
893,Right,0,70,80,274.0,0.979167,Eighth,A#4
894,Right,0,69,80,274.5,0.979167,Eighth,A4
895,Right,0,70,80,275.0,0.979167,Eighth,A#4
896,Right,0,69,80,275.5,0.979167,Eighth,A4
897,Right,0,70,80,276.0,0.979167,Eighth,A#4
898,Right,0,69,80,276.5,0.979167,Eighth,A4
899,Right,0,70,80,277.0,0.979167,Eighth,A#4
900,Right,0,69,80,277.5,0.979167,Eighth,A4
901,Right,0,70,80,278.0,0.979167,Eighth,A#4
902,Right,0,69,80,278.5,0.979167,Eighth,A4
903,Right,0,70,80,279.0,0.979167,Eighth,A#4
904,Right,0,69,80,279.5,0.979167,Eighth,A4
905,Right,0,70,80,280.0,0.979167,Eighth,A#4
906,Right,0,69,80,280.5,0.979167,Eighth,A4
907,Right,0,73,80,281.0,0.979167,Eighth,C#5
908,Right,0,69,80,281.5,0.979167,Eighth,A4
909,Right,0,74,80,282.0,0.979167,Eighth,D5
910,Right,0,69,80,282.5,0.979167,Eighth,A4
911,Right,0,76,80,283.0,0.979167,Eighth,E5
912,Right,0,69,80,283.5,0.979167,Eighth,A4
913,Right,0,77,80,284.0,0.979167,Eighth,F5
914,Right,0,76,80,284.5,0.979167,Eighth,E5
916,Left,1,50,80,285.0,0.979167,Eighth,D3
915,Right,0,74,80,285.0,0.979167,Eighth,D5
917,Left,1,57,80,285.5,2.479167,TiedQuarter-Sixteenth,A3
918,Left,1,62,80,286.0,0.979167,Eighth,D4
919,Left,1,65,80,286.5,0.979167,Eighth,F4
920,Right,0,69,80,286.5,0.979167,Eighth,A4
921,Right,0,77,80,287.0,0.979167,Eighth,F5
922,Right,0,76,80,287.5,0.979167,Eighth,E5
923,Left,1,50,80,288.0,0.979167,Eighth,D3
924,Right,0,74,80,288.0,0.979167,Eighth,D5
925,Left,1,57,80,288.5,2.479167,TiedQuarter-Sixteenth,A3
926,Left,1,62,80,289.0,0.979167,Eighth,D4
928,Left,1,65,80,289.5,0.979167,Eighth,F4
927,Right,0,69,80,289.5,0.979167,Eighth,A4
929,Right,0,77,80,290.0,0.979167,Eighth,F5
930,Right,0,76,80,290.5,0.979167,Eighth,E5
931,Left,1,50,80,291.0,0.979167,Eighth,D3
932,Right,0,74,80,291.0,0.979167,Eighth,D5
933,Left,1,57,80,291.5,2.479167,TiedQuarter-Sixteenth,A3
934,Left,1,62,80,292.0,0.979167,Eighth,D4
935,Right,0,69,80,292.5,0.979167,Eighth,A4
936,Left,1,65,80,292.5,0.979167,Eighth,F4
937,Right,0,77,80,293.0,0.979167,Eighth,F5
938,Right,0,74,80,293.5,0.979167,Eighth,D5
940,Right,0,76,80,294.0,0.979167,Eighth,E5
939,Left,1,45,80,294.0,0.979167,Eighth,A2
941,Left,1,57,80,294.5,2.479167,TiedQuarter-Sixteenth,A3
942,Left,1,61,80,295.0,0.979167,Eighth,C#4
943,Left,1,64,80,295.5,0.979167,Eighth,E4
944,Right,0,69,80,295.5,0.979167,Eighth,A4
945,Right,0,79,80,296.0,0.979167,Eighth,G5
946,Right,0,77,80,296.5,0.979167,Eighth,F5
947,Left,1,45,80,297.0,0.979167,Eighth,A2
948,Right,0,76,80,297.0,0.979167,Eighth,E5
949,Left,1,57,80,297.5,2.479167,TiedQuarter-Sixteenth,A3
950,Left,1,61,80,298.0,0.979167,Eighth,C#4
952,Left,1,64,80,298.5,0.979167,Eighth,E4
951,Right,0,69,80,298.5,0.979167,Eighth,A4
953,Right,0,79,80,299.0,0.979167,Eighth,G5
954,Right,0,77,80,299.5,0.979167,Eighth,F5
956,Right,0,76,80,300.0,0.979167,Eighth,E5
955,Left,1,45,80,300.0,0.979167,Eighth,A2
957,Left,1,57,80,300.5,2.479167,TiedQuarter-Sixteenth,A3
958,Left,1,61,80,301.0,0.979167,Eighth,C#4
960,Left,1,64,80,301.5,0.979167,Eighth,E4
959,Right,0,69,80,301.5,0.979167,Eighth,A4
961,Right,0,79,80,302.0,0.979167,Eighth,G5
962,Right,0,77,80,302.5,0.979167,Eighth,F5
963,Left,1,45,80,303.0,0.979167,Eighth,A2
964,Right,0,76,80,303.0,0.979167,Eighth,E5
965,Left,1,57,80,303.5,2.479167,TiedQuarter-Sixteenth,A3
966,Left,1,61,80,304.0,0.979167,Eighth,C#4
967,Right,0,69,80,304.5,0.979167,Eighth,A4
968,Left,1,64,80,304.5,0.979167,Eighth,E4
969,Right,0,79,80,305.0,0.979167,Eighth,G5
970,Right,0,76,80,305.5,0.979167,Eighth,E5
971,Right,0,77,80,306.0,0.979167,Eighth,F5
972,Left,1,50,80,306.0,0.979167,Eighth,D3
973,Left,1,57,81,306.5,2.479167,TiedQuarter-Sixteenth,A3
974,Left,1,62,82,307.0,0.979167,Eighth,D4
976,Left,1,65,83,307.5,0.979167,Eighth,F4
975,Right,0,74,83,307.5,0.979167,Eighth,D5
977,Right,0,81,84,308.0,0.979167,Eighth,A5
978,Right,0,86,85,308.5,0.979167,Eighth,D6
980,Left,1,55,86,309.0,2.979167,DottedQuarter,G3
979,Right,0,82,86,309.0,0.979167,Eighth,A#5
981,Left,1,62,87,309.5,2.479167,TiedQuarter-Sixteenth,D4
982,Left,1,67,88,310.0,1.979167,Quarter,G4
983,Right,0,70,89,310.5,0.979167,Eighth,A#4
984,Right,0,74,91,311.0,0.979167,Eighth,D5
985,Right,0,82,92,311.5,0.979167,Eighth,A#5
987,Left,1,51,93,312.0,2.979167,DottedQuarter,D#3
986,Right,0,79,93,312.0,0.979167,Eighth,G5
988,Left,1,58,94,312.5,2.479167,TiedQuarter-Sixteenth,A#3
989,Left,1,63,95,313.0,1.979167,Quarter,D#4
990,Right,0,67,96,313.5,0.979167,Eighth,G4
991,Right,0,70,97,314.0,0.979167,Eighth,A#4
992,Right,0,79,98,314.5,0.979167,Eighth,G5
994,Right,0,76,100,315.0,0.979167,Eighth,E5
993,Left,1,49,100,315.0,2.979167,DottedQuarter,C#3
995,Left,1,57,99,315.5,2.479167,TiedQuarter-Sixteenth,A3
996,Left,1,61,97,316.0,1.979167,Quarter,C#4
997,Right,0,64,96,316.5,0.979167,Eighth,E4
998,Right,0,69,94,317.0,0.979167,Eighth,A4
999,Right,0,76,92,317.5,0.979167,Eighth,E5
1001,Left,1,50,91,318.0,2.979167,DottedQuarter,D3
1000,Right,0,77,91,318.0,0.979167,Eighth,F5
1002,Left,1,57,89,318.5,2.479167,TiedQuarter-Sixteenth,A3
1003,Left,1,62,87,319.0,1.979167,Quarter,D4
1004,Right,0,65,86,319.5,0.979167,Eighth,F4
1005,Right,0,69,84,320.0,0.979167,Eighth,A4
1006,Right,0,77,82,320.5,0.979167,Eighth,F5
1008,Left,1,45,80,321.0,2.979167,DottedQuarter,A2
1007,Right,0,74,80,321.0,0.979167,Eighth,D5
1009,Left,1,53,82,321.5,2.479167,TiedQuarter-Sixteenth,F3
1010,Left,1,57,84,322.0,1.979167,Quarter,A3
1011,Right,0,62,87,322.5,0.979167,Eighth,D4
1012,Right,0,69,89,323.0,0.979167,Eighth,A4
1013,Right,0,74,92,323.5,0.979167,Eighth,D5
1015,Right,0,73,94,324.0,0.979167,Eighth,C#5
1014,Left,1,45,94,324.0,2.979167,DottedQuarter,A2
1016,Left,1,52,97,324.5,2.479167,TiedQuarter-Sixteenth,E3
1017,Left,1,55,99,325.0,1.979167,Quarter,G3
1018,Left,1,57,102,325.5,1.479167,DottedEighth,A3
1019,Right,0,61,102,325.5,0.979167,Eighth,C#4
1020,Right,0,69,104,326.0,0.979167,Eighth,A4
1021,Right,0,73,107,326.5,0.979167,Eighth,C#5
1022,Left,1,38,110,327.0,0.979167,Eighth,D2
1023,Right,0,74,110,327.0,0.979167,Eighth,D5
1024,Left,1,50,110,327.5,0.979167,Eighth,D3
1025,Left,1,53,110,328.0,0.979167,Eighth,F3
1026,Left,1,57,110,328.5,0.979167,Eighth,A3
1028,Right,0,65,110,329.0,0.979167,Eighth,F4
1027,Left,1,62,110,329.0,0.979167,Eighth,D4
1029,Right,0,69,110,329.5,0.979167,Eighth,A4
1030,Right,0,74,110,330.0,0.979167,Eighth,D5
1031,Right,0,77,110,330.5,0.979167,Eighth,F5
1032,Right,0,81,110,331.0,0.979167,Eighth,A5
1033,Right,0,77,110,331.5,0.979167,Eighth,F5
1034,Right,0,86,110,332.0,0.979167,Eighth,D6
1035,Right,0,81,110,332.5,0.979167,Eighth,A5
1036,Left,1,55,86,333.0,2.979167,DottedQuarter,G3
1037,Right,0,82,86,333.0,0.979167,Eighth,A#5
1038,Left,1,62,87,333.5,2.479167,TiedQuarter-Sixteenth,D4
1039,Left,1,67,88,334.0,1.979167,Quarter,G4
1040,Right,0,70,89,334.5,0.979167,Eighth,A#4
1041,Right,0,74,91,335.0,0.979167,Eighth,D5
1042,Right,0,82,92,335.5,0.979167,Eighth,A#5
1043,Right,0,79,93,336.0,0.979167,Eighth,G5
1044,Left,1,51,93,336.0,2.979167,DottedQuarter,D#3
1045,Left,1,58,94,336.5,2.479167,TiedQuarter-Sixteenth,A#3
1046,Left,1,63,95,337.0,1.979167,Quarter,D#4
1047,Right,0,67,96,337.5,0.979167,Eighth,G4
1048,Right,0,70,97,338.0,0.979167,Eighth,A#4
1049,Right,0,79,98,338.5,0.979167,Eighth,G5
1051,Left,1,49,100,339.0,2.979167,DottedQuarter,C#3
1050,Right,0,76,100,339.0,0.979167,Eighth,E5
1052,Left,1,57,99,339.5,2.479167,TiedQuarter-Sixteenth,A3
1053,Left,1,61,97,340.0,1.979167,Quarter,C#4
1054,Right,0,64,96,340.5,0.979167,Eighth,E4
1055,Right,0,69,94,341.0,0.979167,Eighth,A4
1056,Right,0,76,92,341.5,0.979167,Eighth,E5
1057,Left,1,50,91,342.0,2.979167,DottedQuarter,D3
1058,Right,0,77,91,342.0,0.979167,Eighth,F5
1059,Left,1,57,89,342.5,2.479167,TiedQuarter-Sixteenth,A3
1060,Left,1,62,87,343.0,1.979167,Quarter,D4
1061,Right,0,65,86,343.5,0.979167,Eighth,F4
1062,Right,0,69,84,344.0,0.979167,Eighth,A4
1063,Right,0,77,82,344.5,0.979167,Eighth,F5
1065,Left,1,45,80,345.0,2.979167,DottedQuarter,A2
1064,Right,0,74,80,345.0,0.979167,Eighth,D5
1066,Left,1,53,82,345.5,2.479167,TiedQuarter-Sixteenth,F3
1067,Left,1,57,84,346.0,1.979167,Quarter,A3
1068,Right,0,62,87,346.5,0.979167,Eighth,D4
1069,Right,0,69,89,347.0,0.979167,Eighth,A4
1070,Right,0,74,92,347.5,0.979167,Eighth,D5
1071,Left,1,45,94,348.0,2.979167,DottedQuarter,A2
1072,Right,0,73,94,348.0,0.979167,Eighth,C#5
1073,Left,1,52,97,348.5,2.479167,TiedQuarter-Sixteenth,E3
1074,Left,1,55,99,349.0,1.979167,Quarter,G3
1075,Right,0,61,102,349.5,0.979167,Eighth,C#4
1076,Left,1,57,102,349.5,1.479167,DottedEighth,A3
1077,Right,0,69,104,350.0,0.979167,Eighth,A4
1078,Right,0,73,107,350.5,0.979167,Eighth,C#5
1079,Right,0,74,110,351.0,0.979167,Eighth,D5
1080,Left,1,38,110,351.0,0.979167,Eighth,D2
1081,Left,1,53,109,351.5,0.979167,Eighth,F3
1082,Right,0,69,108,351.75,0.479167,Sixteenth,A4
1083,Right,0,81,107,352.0,1.979167,Quarter,A5
1084,Left,1,57,107,352.0,0.979167,Eighth,A3
1085,Left,1,62,106,352.5,0.979167,Eighth,D4
1086,Right,0,80,101,354.0,0.729167,DottedSixteenth,G#5
1087,Right,0,79,99,354.5,0.729167,DottedSixteenth,G5
1088,Right,0,78,97,355.0,0.729167,DottedSixteenth,F#5
1089,Right,0,77,96,355.5,0.729167,DottedSixteenth,F5
1090,Right,0,76,94,356.0,0.729167,DottedSixteenth,E5
1091,Right,0,75,92,356.5,0.729167,DottedSixteenth,D#5
1092,Left,1,45,80,357.0,2.979167,DottedQuarter,A2
1093,Right,0,74,80,357.0,0.979167,Eighth,D5
1094,Left,1,53,82,357.5,2.479167,TiedQuarter-Sixteenth,F3
1095,Left,1,57,84,358.0,1.979167,Quarter,A3
1096,Right,0,62,87,358.5,0.979167,Eighth,D4
1097,Right,0,69,89,359.0,0.979167,Eighth,A4
1098,Right,0,74,92,359.5,0.979167,Eighth,D5
1099,Right,0,73,94,360.0,0.979167,Eighth,C#5
1100,Left,1,45,94,360.0,2.979167,DottedQuarter,A2
1101,Left,1,52,97,360.5,2.479167,TiedQuarter-Sixteenth,E3
1102,Left,1,55,99,361.0,1.979167,Quarter,G3
1104,Left,1,57,102,361.5,1.479167,DottedEighth,A3
1103,Right,0,61,102,361.5,0.979167,Eighth,C#4
1105,Right,0,69,104,362.0,0.979167,Eighth,A4
1106,Right,0,73,107,362.5,0.979167,Eighth,C#5
1107,Left,1,38,110,363.0,0.979167,Eighth,D2
1108,Left,1,53,110,363.5,0.979167,Eighth,F3
1109,Right,0,74,110,363.75,0.229167,ThirtySecond,D5
1111,Right,0,86,110,364.0,1.979167,Quarter,D6
1110,Left,1,57,110,364.0,0.979167,Eighth,A3
1112,Left,1,62,110,364.5,0.979167,Eighth,D4
1113,Right,0,85,110,366.0,0.729167,DottedSixteenth,C#6
1114,Right,0,84,107,366.5,0.729167,DottedSixteenth,C6
1115,Right,0,83,104,367.0,0.729167,DottedSixteenth,B5
1116,Right,0,82,101,367.5,0.729167,DottedSixteenth,A#5
1117,Right,0,81,97,368.0,0.729167,DottedSixteenth,A5
1118,Right,0,80,94,368.5,0.729167,DottedSixteenth,G#5
1120,Left,1,45,80,369.0,2.979167,DottedQuarter,A2
1119,Right,0,81,80,369.0,0.979167,Eighth,A5
1121,Left,1,53,83,369.5,2.479167,TiedQuarter-Sixteenth,F3
1122,Left,1,57,87,370.0,1.979167,Quarter,A3
1123,Right,0,62,91,370.5,0.979167,Eighth,D4
1124,Right,0,69,94,371.0,0.979167,Eighth,A4
1125,Right,0,74,98,371.5,0.979167,Eighth,D5
1127,Left,1,45,102,372.0,0.979167,Eighth,A2
1126,Right,0,73,102,372.0,0.979167,Eighth,C#5
1128,Left,1,52,106,372.5,0.979167,Eighth,E3
1129,Left,1,55,109,373.0,0.979167,Eighth,G3
1130,Left,1,33,110,373.5,0.979167,Eighth,A1
1131,Right,0,73,110,373.5,0.979167,Eighth,C#5
1132,Right,0,81,110,374.0,0.979167,Eighth,A5
1133,Left,1,41,110,374.0,0.979167,Eighth,F2
1134,Right,0,85,110,374.5,0.979167,Eighth,C#6
1135,Left,1,40,110,374.5,0.979167,Eighth,E2
1136,Right,0,86,110,375.0,0.979167,Eighth,D6
1137,Left,1,38,110,375.0,0.979167,Eighth,D2
1138,Right,0,50,110,375.5,0.979167,Eighth,D3
1139,Right,0,53,110,376.0,0.979167,Eighth,F3
1140,Left,1,33,110,376.5,0.979167,Eighth,A1
1141,Right,0,57,110,376.5,0.979167,Eighth,A3
1143,Right,0,62,110,377.0,0.979167,Eighth,D4
1142,Left,1,41,110,377.0,0.979167,Eighth,F2
1144,Left,1,40,110,377.5,0.979167,Eighth,E2
1145,Left,1,38,110,378.0,0.979167,Eighth,D2
1146,Right,0,50,110,378.5,0.979167,Eighth,D3
1147,Right,0,53,110,379.0,0.979167,Eighth,F3
1149,Right,0,57,110,379.5,0.979167,Eighth,A3
1148,Left,1,33,110,379.5,0.979167,Eighth,A1
1151,Right,0,62,110,380.0,0.979167,Eighth,D4
1150,Left,1,41,110,380.0,0.979167,Eighth,F2
1152,Left,1,40,110,380.5,0.979167,Eighth,E2
1153,Left,1,38,110,381.0,0.979167,Eighth,D2
1154,Right,0,50,110,381.5,0.979167,Eighth,D3
1155,Right,0,53,110,382.0,0.979167,Eighth,F3
1156,Left,1,33,110,382.5,0.979167,Eighth,A1
1157,Right,0,57,110,382.5,0.979167,Eighth,A3
1159,Right,0,62,110,383.0,0.979167,Eighth,D4
1158,Left,1,41,110,383.0,0.979167,Eighth,F2
1160,Left,1,38,110,383.5,0.979167,Eighth,D2
1161,Left,1,43,110,384.0,2.979167,DottedQuarter,G2_G1
1162,Right,0,50,110,384.0,0.979167,Eighth,D3
1164,Right,0,53,110,384.5,0.979167,Eighth,F3
1165,Right,0,59,110,385.0,0.979167,Eighth,B3
1166,Right,0,62,110,385.5,0.979167,Eighth,D4
1167,Right,0,65,110,386.0,0.979167,Eighth,F4
1168,Right,0,71,110,386.5,0.979167,Eighth,B4
1169,Right,0,60,110,387.0,0.979167,Eighth,C4
1170,Left,1,36,110,387.0,1.979167,Quarter,C3_C2
1172,Right,0,72,110,387.5,0.979167,Eighth,C5
1174,Left,1,52,110,388.0,0.979167,Eighth,E3
1173,Right,0,64,110,388.0,0.979167,Eighth,E4
1175,Right,0,76,110,388.5,0.979167,Eighth,E5
1177,Left,1,55,110,389.0,0.979167,Eighth,G3
1176,Right,0,67,110,389.0,0.979167,Eighth,G4
1178,Right,0,79,110,389.5,0.979167,Eighth,G5
1180,Left,1,60,110,390.0,0.979167,Eighth,C4
1179,Right,0,72,110,390.0,0.979167,Eighth,C5
1181,Right,0,84,110,390.5,0.979167,Eighth,C6
1182,Right,0,76,110,391.0,0.979167,Eighth,E5
1183,Left,1,64,110,391.0,0.979167,Eighth,E4
1184,Right,0,88,110,391.5,0.979167,Eighth,E6
1186,Left,1,60,110,392.0,0.979167,Eighth,C4
1185,Right,0,72,110,392.0,0.979167,Eighth,C5
1187,Right,0,84,110,392.5,0.979167,Eighth,C6
1188,Right,0,67,110,393.0,0.979167,Eighth,G4
1189,Left,1,55,110,393.0,0.979167,Eighth,G3
1190,Right,0,79,110,393.5,0.979167,Eighth,G5
1191,Right,0,64,110,394.0,0.979167,Eighth,E4
1192,Left,1,52,110,394.0,0.979167,Eighth,E3
1193,Right,0,76,110,394.5,0.979167,Eighth,E5
1194,Right,0,67,110,395.0,0.979167,Eighth,G4
1195,Left,1,55,110,395.0,0.979167,Eighth,G3
1196,Right,0,79,110,395.5,0.979167,Eighth,G5
1197,Left,1,52,110,396.0,0.979167,Eighth,E3
1198,Right,0,64,110,396.0,0.979167,Eighth,E4
1199,Right,0,76,110,396.5,0.979167,Eighth,E5
1200,Left,1,48,110,397.0,0.979167,Eighth,C3
1201,Right,0,60,110,397.0,0.979167,Eighth,C4
1203,Left,1,31,110,397.5,0.979167,Eighth,G1
1202,Right,0,72,110,397.5,0.979167,Eighth,C5
1204,Left,1,40,110,398.0,0.979167,Eighth,E2
1205,Left,1,38,110,398.5,0.979167,Eighth,D2
1206,Left,1,36,110,399.0,0.979167,Eighth,C2
1207,Right,0,48,110,399.5,0.979167,Eighth,C3
1208,Right,0,52,110,400.0,0.979167,Eighth,E3
1210,Left,1,31,110,400.5,0.979167,Eighth,G1
1209,Right,0,55,110,400.5,0.979167,Eighth,G3
1212,Left,1,40,110,401.0,0.979167,Eighth,E2
1211,Right,0,60,110,401.0,0.979167,Eighth,C4
1213,Left,1,38,110,401.5,0.979167,Eighth,D2
1214,Left,1,36,110,402.0,0.979167,Eighth,C2
1215,Right,0,48,110,402.5,0.979167,Eighth,C3
1216,Right,0,52,110,403.0,0.979167,Eighth,E3
1218,Right,0,55,110,403.5,0.979167,Eighth,G3
1217,Left,1,31,110,403.5,0.979167,Eighth,G1
1220,Right,0,60,110,404.0,0.979167,Eighth,C4
1219,Left,1,40,110,404.0,0.979167,Eighth,E2
1221,Left,1,38,110,404.5,0.979167,Eighth,D2
1222,Left,1,36,110,405.0,0.979167,Eighth,C2
1223,Right,0,48,110,405.5,0.979167,Eighth,C3
1224,Right,0,52,110,406.0,0.979167,Eighth,E3
1226,Left,1,31,110,406.5,0.979167,Eighth,G1
1225,Right,0,55,110,406.5,0.979167,Eighth,G3
1228,Left,1,40,110,407.0,0.979167,Eighth,E2
1227,Right,0,60,110,407.0,0.979167,Eighth,C4
1229,Left,1,36,110,407.5,0.979167,Eighth,C2
1230,Left,1,29,110,408.0,2.979167,DottedQuarter,F2_F1
1232,Right,0,57,110,408.0,0.979167,Eighth,D3_A3
1234,Right,0,62,110,408.5,0.979167,Eighth,D4
1235,Right,0,57,110,409.0,0.979167,Eighth,D3_A3
1237,Right,0,62,110,409.5,0.979167,Eighth,D4
1238,Right,0,51,110,410.0,0.979167,Eighth,D#3_A3
1240,Right,0,63,110,410.5,0.979167,Eighth,D#4
1244,Left,1,40,110,411.0,0.979167,Eighth,E2_E1
1241,Right,0,64,110,411.0,0.979167,Eighth,G#3_E4_E3
1246,Right,0,77,110,412.0,0.479167,Sixteenth,F5
1247,Left,1,62,110,412.0,0.979167,Eighth,D4_B3
1249,Right,0,79,110,412.25,0.479167,Sixteenth,G5
1250,Left,1,64,110,412.5,0.979167,Eighth,E4
1251,Right,0,77,110,412.5,0.729167,DottedSixteenth,F5
1253,Right,0,76,110,413.0,0.979167,Eighth,E5
1252,Left,1,56,110,413.0,0.979167,Eighth,G#3
1254,Left,1,64,110,413.5,0.979167,Eighth,E4
1257,Right,0,77,110,414.0,0.479167,Sixteenth,F5
1255,Left,1,59,110,414.0,0.979167,Eighth,D4_B3
1258,Right,0,79,110,414.25,0.479167,Sixteenth,G5
1259,Right,0,77,110,414.5,0.729167,DottedSixteenth,F5
1260,Left,1,64,110,414.5,0.979167,Eighth,E4
1262,Left,1,56,110,415.0,0.979167,Eighth,G#3
1261,Right,0,76,110,415.0,0.979167,Eighth,E5
1263,Left,1,64,110,415.5,0.979167,Eighth,E4
1266,Right,0,77,110,416.0,0.479167,Sixteenth,F5
1264,Left,1,59,110,416.0,0.979167,Eighth,D4_B3
1267,Right,0,79,110,416.25,0.479167,Sixteenth,G5
1269,Right,0,77,110,416.5,0.729167,DottedSixteenth,F5
1268,Left,1,64,110,416.5,0.979167,Eighth,E4
1271,Right,0,76,110,417.0,0.979167,Eighth,E5
1270,Left,1,56,110,417.0,0.979167,Eighth,G#3
1272,Left,1,64,110,417.5,0.979167,Eighth,E4
1274,Right,0,77,110,418.0,0.479167,Sixteenth,F5
1273,Left,1,59,110,418.0,0.979167,Eighth,D4_B3
1276,Right,0,79,110,418.25,0.479167,Sixteenth,G5
1278,Right,0,77,110,418.5,0.729167,DottedSixteenth,F5
1277,Left,1,64,110,418.5,0.979167,Eighth,E4
1280,Right,0,76,110,419.0,0.979167,Eighth,E5
1279,Left,1,56,110,419.0,0.979167,Eighth,G#3
1281,Left,1,64,110,419.5,0.979167,Eighth,E4
1283,Right,0,77,110,420.0,0.479167,Sixteenth,F5
1282,Left,1,59,110,420.0,0.979167,Eighth,D4_B3
1285,Right,0,79,110,420.25,0.479167,Sixteenth,G5
1286,Left,1,64,110,420.5,0.979167,Eighth,E4
1287,Right,0,77,110,420.5,0.729167,DottedSixteenth,F5
1289,Left,1,56,110,421.0,0.979167,Eighth,G#3
1288,Right,0,76,110,421.0,0.979167,Eighth,E5
1290,Left,1,64,110,421.5,0.979167,Eighth,E4
1292,Left,1,62,110,422.0,0.979167,Eighth,D4_B3
1291,Right,0,77,110,422.0,0.479167,Sixteenth,F5
1294,Right,0,79,110,422.25,0.479167,Sixteenth,G5
1295,Left,1,64,110,422.5,0.979167,Eighth,E4
1296,Right,0,77,110,422.5,0.729167,DottedSixteenth,F5
1297,Right,0,76,110,423.0,0.979167,Eighth,E5
1298,Left,1,56,110,423.0,0.979167,Eighth,G#3
1299,Left,1,64,110,423.5,0.979167,Eighth,E4
1301,Right,0,77,110,424.0,2.979167,DottedQuarter,F5
1300,Left,1,59,110,424.0,0.979167,Eighth,D4_B3
1303,Left,1,64,110,424.5,0.979167,Eighth,E4
1304,Left,1,56,110,425.0,0.979167,Eighth,G#3
1305,Left,1,64,110,425.5,0.979167,Eighth,E4
1306,Left,1,62,100,426.0,0.979167,Eighth,D4_B3
1308,Left,1,64,99,426.5,0.979167,Eighth,E4
1309,Left,1,56,97,427.0,0.979167,Eighth,G#3
1310,Right,0,76,97,427.0,0.979167,Eighth,E5
1311,Left,1,64,96,427.5,0.979167,Eighth,E4
1312,Left,1,59,94,428.0,0.979167,Eighth,D4_B3
1314,Right,0,74,94,428.0,0.979167,Eighth,D5
1315,Left,1,64,92,428.5,0.979167,Eighth,E4
1316,Left,1,57,80,429.0,0.979167,Eighth,A3
1317,Right,0,72,80,429.0,0.479167,Sixteenth,C5
1318,Right,0,74,80,429.25,0.479167,Sixteenth,D5
1319,Left,1,64,80,429.5,0.979167,Eighth,E4
1320,Right,0,72,80,429.5,0.729167,DottedSixteenth,C5
1321,Left,1,60,80,430.0,0.979167,Eighth,C4
1322,Right,0,71,80,430.0,0.979167,Eighth,B4
1323,Left,1,64,80,430.5,0.979167,Eighth,E4
1324,Left,1,57,80,431.0,0.979167,Eighth,A3
1325,Right,0,69,80,431.0,0.979167,Eighth,A4
1326,Left,1,64,80,431.5,0.979167,Eighth,E4
1327,Left,1,52,80,432.0,0.979167,Eighth,E3
1328,Right,0,68,80,432.0,0.979167,Eighth,G#4
1329,Left,1,62,80,432.5,0.979167,Eighth,D4
1331,Right,0,69,80,433.0,0.979167,Eighth,A4
1330,Left,1,59,80,433.0,0.979167,Eighth,B3
1332,Left,1,62,80,433.5,0.979167,Eighth,D4
1333,Left,1,52,80,434.0,0.979167,Eighth,E3
1334,Right,0,71,80,434.0,0.979167,Eighth,B4
1335,Left,1,62,80,434.5,0.979167,Eighth,D4
1336,Left,1,57,80,435.0,0.979167,Eighth,C4_A3
1338,Right,0,69,80,435.0,0.979167,Eighth,A4
1339,Left,1,64,80,435.5,0.979167,Eighth,E4
1340,Left,1,62,110,436.0,0.979167,Eighth,D4_B3
1342,Right,0,77,110,436.0,0.979167,Eighth,F5
1343,Left,1,64,110,436.5,0.979167,Eighth,E4
1344,Right,0,89,110,436.5,0.979167,Eighth,F6
1346,Left,1,56,110,437.0,0.979167,Eighth,G#3
1345,Right,0,76,110,437.0,0.979167,Eighth,E5
1347,Left,1,64,110,437.5,0.979167,Eighth,E4
1348,Right,0,88,110,437.5,0.979167,Eighth,E6
1350,Left,1,62,110,438.0,0.979167,Eighth,D4_B3
1349,Right,0,77,110,438.0,0.979167,Eighth,F5
1352,Left,1,64,110,438.5,0.979167,Eighth,E4
1353,Right,0,89,110,438.5,0.979167,Eighth,F6
1354,Left,1,56,110,439.0,0.979167,Eighth,G#3
1355,Right,0,76,110,439.0,0.979167,Eighth,E5
1357,Left,1,64,110,439.5,0.979167,Eighth,E4
1356,Right,0,88,110,439.5,0.979167,Eighth,E6
1359,Left,1,59,110,440.0,0.979167,Eighth,D4_B3
1358,Right,0,77,110,440.0,0.979167,Eighth,F5
1362,Left,1,64,110,440.5,0.979167,Eighth,E4
1361,Right,0,89,110,440.5,0.979167,Eighth,F6
1364,Left,1,56,110,441.0,0.979167,Eighth,G#3
1363,Right,0,76,110,441.0,0.979167,Eighth,E5
1366,Left,1,64,110,441.5,0.979167,Eighth,E4
1365,Right,0,88,110,441.5,0.979167,Eighth,E6
1369,Right,0,77,110,442.0,0.979167,Eighth,F5
1367,Left,1,59,110,442.0,0.979167,Eighth,D4_B3
1370,Right,0,89,110,442.5,0.979167,Eighth,F6
1371,Left,1,64,110,442.5,0.979167,Eighth,E4
1372,Left,1,56,110,443.0,0.979167,Eighth,G#3
1373,Right,0,76,110,443.0,0.979167,Eighth,E5
1375,Left,1,64,110,443.5,0.979167,Eighth,E4
1374,Right,0,88,110,443.5,0.979167,Eighth,E6
1378,Right,0,77,110,444.0,0.979167,Eighth,F5
1376,Left,1,62,110,444.0,0.979167,Eighth,D4_B3
1380,Left,1,64,110,444.5,0.979167,Eighth,E4
1379,Right,0,89,110,444.5,0.979167,Eighth,F6
1382,Left,1,56,110,445.0,0.979167,Eighth,G#3
1381,Right,0,76,110,445.0,0.979167,Eighth,E5
1384,Left,1,64,110,445.5,0.979167,Eighth,E4
1383,Right,0,88,110,445.5,0.979167,Eighth,E6
1385,Right,0,77,110,446.0,0.979167,Eighth,F5
1386,Left,1,59,110,446.0,0.979167,Eighth,D4_B3
1388,Right,0,89,110,446.5,0.979167,Eighth,F6
1389,Left,1,64,110,446.5,0.979167,Eighth,E4
1391,Right,0,88,110,447.0,0.979167,Eighth,E6_E5
1390,Left,1,56,110,447.0,0.979167,Eighth,G#3
1393,Left,1,64,110,447.5,0.979167,Eighth,E4
1394,Right,0,77,110,448.0,2.979167,DottedQuarter,F6_F5
1396,Left,1,59,110,448.0,0.979167,Eighth,D4_B3
1398,Left,1,64,100,448.5,0.979167,Eighth,E4
1399,Left,1,56,99,449.0,0.979167,Eighth,G#3
1400,Left,1,64,98,449.5,0.979167,Eighth,E4
1401,Left,1,59,97,450.0,0.979167,Eighth,D4_B3
1403,Left,1,64,96,450.5,0.979167,Eighth,E4
1404,Right,0,88,95,451.0,0.979167,Eighth,E6_E5
1406,Left,1,56,95,451.0,0.979167,Eighth,G#3
1407,Left,1,64,94,451.5,0.979167,Eighth,E4
1410,Left,1,62,93,452.0,0.979167,Eighth,D4_B3
1408,Right,0,74,93,452.0,0.979167,Eighth,D6_D5
1412,Left,1,64,92,452.5,0.979167,Eighth,E4
1415,Left,1,57,80,453.0,0.979167,Eighth,A3
1413,Right,0,84,80,453.0,0.979167,Eighth,C6_C5
1416,Left,1,64,80,453.5,0.979167,Eighth,E4
1418,Left,1,60,80,454.0,0.979167,Eighth,C4
1417,Right,0,83,80,454.0,0.979167,Eighth,B5_B4
1420,Left,1,64,80,454.5,0.979167,Eighth,E4
1421,Left,1,57,80,455.0,0.979167,Eighth,A3
1422,Right,0,81,80,455.0,0.979167,Eighth,A5_A4
1424,Left,1,64,80,455.5,0.979167,Eighth,E4
1426,Right,0,68,80,456.0,0.979167,Eighth,G#5_G#4
1425,Left,1,52,80,456.0,0.979167,Eighth,E3
1428,Left,1,62,80,456.5,0.979167,Eighth,D4
1429,Left,1,59,80,457.0,0.979167,Eighth,B3
1430,Right,0,69,80,457.0,0.979167,Eighth,A5_A4
1432,Left,1,62,80,457.5,0.979167,Eighth,D4
1434,Left,1,52,80,458.0,0.979167,Eighth,E3
1433,Right,0,71,80,458.0,0.979167,Eighth,B5_B4
1436,Left,1,62,80,458.5,0.979167,Eighth,D4
1437,Right,0,81,80,459.0,0.979167,Eighth,A5_A4
1438,Left,1,53,80,459.0,0.979167,Eighth,F3
1440,Left,1,60,80,459.5,0.979167,Eighth,C4
1441,Right,0,89,80,460.0,0.979167,Eighth,F6_F5
1443,Left,1,57,80,460.0,0.979167,Eighth,A3
1444,Left,1,60,81,460.5,0.979167,Eighth,C4
1446,Left,1,53,82,461.0,0.979167,Eighth,F3
1445,Right,0,77,82,461.0,0.979167,Eighth,F6_F5
1448,Left,1,60,84,461.5,0.979167,Eighth,C4
1450,Right,0,77,85,462.0,0.979167,Eighth,F6_F5
1449,Left,1,50,85,462.0,0.979167,Eighth,D3
1452,Left,1,58,86,462.5,0.979167,Eighth,A#3
1453,Right,0,76,88,463.0,0.979167,Eighth,E6_E5
1455,Left,1,53,88,463.0,0.979167,Eighth,F3
1456,Left,1,58,89,463.5,0.979167,Eighth,A#3
1457,Right,0,74,90,464.0,0.979167,Eighth,D6_D5
1459,Left,1,50,90,464.0,0.979167,Eighth,D3
1460,Left,1,58,92,464.5,0.979167,Eighth,A#3
1462,Right,0,72,93,465.0,0.979167,Eighth,C6_C5
1461,Left,1,52,93,465.0,0.979167,Eighth,E3
1464,Left,1,60,94,465.5,0.979167,Eighth,C4
1466,Left,1,57,96,466.0,0.979167,Eighth,A3
1465,Right,0,83,96,466.0,0.979167,Eighth,B5_B4
1468,Left,1,60,97,466.5,0.979167,Eighth,C4
1470,Right,0,81,99,467.0,0.979167,Eighth,A5_A4
1469,Left,1,52,99,467.0,0.979167,Eighth,E3
1472,Left,1,60,100,467.5,0.979167,Eighth,C4
1474,Right,0,68,101,468.0,0.979167,Eighth,G#5_G#4
1473,Left,1,50,101,468.0,0.979167,Eighth,D3
1476,Left,1,59,103,468.5,0.979167,Eighth,B3
1477,Left,1,52,104,469.0,0.979167,Eighth,E3
1478,Right,0,69,104,469.0,0.979167,Eighth,A5_A4
1480,Left,1,59,105,469.5,0.979167,Eighth,B3
1483,Left,1,50,107,470.0,0.979167,Eighth,D3
1481,Right,0,83,107,470.0,0.979167,Eighth,B5_B4
1484,Left,1,59,108,470.5,0.979167,Eighth,B3
1485,Right,0,81,110,471.0,0.979167,Eighth,A5_A4
1487,Left,1,48,110,471.0,0.979167,Eighth,C3
1488,Left,1,57,110,471.5,0.979167,Eighth,A3
1491,Left,1,47,110,472.0,0.979167,Eighth,B2
1489,Right,0,89,110,472.0,0.979167,Eighth,F6_F5
1492,Left,1,57,110,472.5,0.979167,Eighth,A3
1494,Right,0,89,110,473.0,0.979167,Eighth,F6_F5
1493,Left,1,48,110,473.0,0.979167,Eighth,C3
1496,Left,1,57,110,473.5,0.979167,Eighth,A3
1499,Left,1,50,110,474.0,0.979167,Eighth,D3
1497,Right,0,89,110,474.0,0.979167,Eighth,F6_F5
1500,Left,1,59,110,474.5,0.979167,Eighth,B3_A3
1503,Left,1,48,110,475.0,0.979167,Eighth,C3
1502,Right,0,88,110,475.0,0.979167,Eighth,E6_E5
1505,Left,1,59,110,475.5,0.979167,Eighth,B3_A3
1508,Left,1,50,110,476.0,0.979167,Eighth,D3
1507,Right,0,86,110,476.0,0.979167,Eighth,D6_D5
1510,Left,1,57,110,476.5,0.979167,Eighth,B3_A3
1514,Left,1,52,110,477.0,0.979167,Eighth,E3
1512,Right,0,72,110,477.0,0.979167,Eighth,C6_C5
1515,Left,1,60,110,477.5,0.979167,Eighth,C4_A3
1517,Right,0,71,110,478.0,0.979167,Eighth,B5_B4
1519,Left,1,51,110,478.0,0.979167,Eighth,D#3
1520,Left,1,57,110,478.5,0.979167,Eighth,C4_A3
1522,Right,0,69,110,479.0,0.979167,Eighth,A5_A4
1524,Left,1,52,110,479.0,0.979167,Eighth,E3
1525,Left,1,57,110,479.5,0.979167,Eighth,C4_A3
1527,Left,1,52,110,480.0,0.979167,Eighth,E3
1528,Right,0,80,110,480.0,0.979167,Eighth,G#5_G#4
1530,Left,1,62,110,480.5,0.979167,Eighth,D4_B3
1532,Right,0,81,110,481.0,0.979167,Eighth,A5_A4
1534,Left,1,52,110,481.0,0.979167,Eighth,E3
1535,Left,1,57,110,481.5,0.979167,Eighth,C4_A3
1537,Right,0,83,110,482.0,0.979167,Eighth,B5_B4
1539,Left,1,52,110,482.0,0.979167,Eighth,E3
1540,Left,1,59,110,482.5,0.979167,Eighth,G#3_B3
1542,Right,0,69,80,483.0,0.979167,Eighth,A5_A4
1544,Left,1,45,80,483.0,0.979167,Eighth,A2
1545,Left,1,60,80,483.5,0.979167,Eighth,C4
1546,Left,1,57,80,484.0,0.979167,Eighth,A3
1547,Left,1,60,80,484.5,0.979167,Eighth,C4
1548,Right,0,69,80,485.0,0.979167,Eighth,A4
1549,Left,1,52,80,485.0,0.979167,Eighth,E3
1551,Right,0,81,80,485.5,0.979167,Eighth,A5
1550,Left,1,60,80,485.5,0.979167,Eighth,C4
1552,Left,1,45,80,486.0,0.979167,Eighth,A2
1553,Right,0,72,80,486.0,0.979167,Eighth,C5
1554,Left,1,60,80,486.5,0.979167,Eighth,C4
1555,Left,1,57,80,487.0,0.979167,Eighth,A3
1556,Left,1,60,80,487.5,0.979167,Eighth,C4
1557,Left,1,52,80,488.0,0.979167,Eighth,E3
1558,Right,0,72,80,488.0,0.979167,Eighth,C5
1560,Left,1,60,80,488.5,0.979167,Eighth,C4
1559,Right,0,84,80,488.5,0.979167,Eighth,C6
1562,Left,1,45,80,489.0,0.979167,Eighth,A2
1561,Right,0,76,80,489.0,0.979167,Eighth,E5
1563,Left,1,60,80,489.5,0.979167,Eighth,C4
1564,Left,1,57,80,490.0,0.979167,Eighth,A3
1565,Left,1,60,80,490.5,0.979167,Eighth,C4
1566,Right,0,76,80,491.0,0.979167,Eighth,E5
1567,Left,1,52,80,491.0,0.979167,Eighth,E3
1569,Right,0,88,80,491.5,0.979167,Eighth,E6
1568,Left,1,60,80,491.5,0.979167,Eighth,C4
1570,Right,0,72,80,492.0,0.979167,Eighth,C5
1571,Left,1,45,80,492.0,0.979167,Eighth,A2
1572,Left,1,60,80,492.5,0.979167,Eighth,C4
1573,Left,1,57,80,493.0,0.979167,Eighth,A3
1574,Left,1,60,80,493.5,0.979167,Eighth,C4
1576,Left,1,52,80,494.0,0.979167,Eighth,E3
1575,Right,0,72,80,494.0,0.979167,Eighth,C5
1578,Left,1,60,80,494.5,0.979167,Eighth,C4
1577,Right,0,84,80,494.5,0.979167,Eighth,C6
1579,Left,1,45,80,495.0,0.979167,Eighth,A2
1580,Right,0,69,80,495.0,3.979167,Half,A4
1581,Left,1,60,81,495.5,0.979167,Eighth,C4
1582,Right,0,81,83,496.0,2.979167,DottedQuarter,A5
1583,Left,1,57,83,496.0,0.979167,Eighth,A3
1584,Left,1,60,84,496.5,0.979167,Eighth,C4
1585,Left,1,52,86,497.0,0.979167,Eighth,E3
1586,Left,1,60,88,497.5,0.979167,Eighth,C4
1587,Left,1,40,89,498.0,0.979167,Eighth,E2
1588,Left,1,62,91,498.5,0.979167,Eighth,D4
1590,Left,1,59,93,499.0,0.979167,Eighth,B3
1589,Right,0,83,93,499.0,0.979167,Eighth,B5_B4
1592,Left,1,62,94,499.5,0.979167,Eighth,D4
1593,Left,1,52,96,500.0,0.979167,Eighth,E3
1594,Right,0,80,96,500.0,0.979167,Eighth,G#5_G#4
1596,Left,1,62,98,500.5,0.979167,Eighth,D4
1597,Left,1,45,100,501.0,0.979167,Eighth,A2
1598,Right,0,69,99,501.0,0.979167,Eighth,A5_A4
1600,Left,1,60,80,501.5,0.979167,Eighth,C4
1601,Left,1,57,80,502.0,0.979167,Eighth,A3
1602,Right,0,69,80,502.5,0.979167,Eighth,A4
1603,Left,1,60,80,502.5,0.979167,Eighth,C4
1605,Right,0,81,80,503.0,0.979167,Eighth,A5
1604,Left,1,52,80,503.0,0.979167,Eighth,E3
1607,Right,0,69,80,503.5,0.979167,Eighth,A4
1606,Left,1,60,80,503.5,0.979167,Eighth,C4
1609,Right,0,72,80,504.0,0.979167,Eighth,C5
1608,Left,1,45,80,504.0,0.979167,Eighth,A2
1610,Left,1,60,80,504.5,0.979167,Eighth,C4
1611,Left,1,57,80,505.0,0.979167,Eighth,A3
1613,Right,0,72,80,505.5,0.979167,Eighth,C5
1612,Left,1,60,80,505.5,0.979167,Eighth,C4
1615,Left,1,52,80,506.0,0.979167,Eighth,E3
1614,Right,0,84,80,506.0,0.979167,Eighth,C6
1616,Left,1,60,80,506.5,0.979167,Eighth,C4
1617,Right,0,72,80,506.5,0.979167,Eighth,C5
1619,Left,1,45,80,507.0,0.979167,Eighth,A2
1618,Right,0,76,80,507.0,0.979167,Eighth,E5
1620,Left,1,60,80,507.5,0.979167,Eighth,C4
1621,Left,1,57,80,508.0,0.979167,Eighth,A3
1623,Left,1,60,80,508.5,0.979167,Eighth,C4
1622,Right,0,76,80,508.5,0.979167,Eighth,E5
1625,Right,0,88,80,509.0,0.979167,Eighth,E6
1624,Left,1,52,80,509.0,0.979167,Eighth,E3
1627,Right,0,76,80,509.5,0.979167,Eighth,E5
1626,Left,1,60,80,509.5,0.979167,Eighth,C4
1629,Right,0,72,80,510.0,0.979167,Eighth,C5
1628,Left,1,45,80,510.0,0.979167,Eighth,A2
1630,Left,1,60,80,510.5,0.979167,Eighth,C4
1631,Left,1,57,80,511.0,0.979167,Eighth,A3
1633,Right,0,72,80,511.5,0.979167,Eighth,C5
1632,Left,1,60,80,511.5,0.979167,Eighth,C4
1634,Right,0,84,80,512.0,0.979167,Eighth,C6
1635,Left,1,52,80,512.0,0.979167,Eighth,E3
1637,Left,1,60,80,512.5,0.979167,Eighth,C4
1636,Right,0,72,80,512.5,0.979167,Eighth,C5
1639,Left,1,45,80,513.0,0.979167,Eighth,A2
1638,Right,0,69,90,513.0,3.979167,Half,A4
1640,Left,1,60,81,513.5,0.979167,Eighth,C4
1641,Left,1,57,83,514.0,0.979167,Eighth,A3
1642,Right,0,81,92,514.0,2.979167,DottedQuarter,A5
1643,Left,1,60,84,514.5,0.979167,Eighth,C4
1644,Left,1,52,86,515.0,0.979167,Eighth,E3
1645,Left,1,60,88,515.5,0.979167,Eighth,C4
1646,Left,1,40,89,516.0,0.979167,Eighth,E2
1647,Left,1,62,91,516.5,0.979167,Eighth,D4
1649,Right,0,71,93,517.0,0.979167,Eighth,B5_B4
1648,Left,1,59,93,517.0,0.979167,Eighth,B3
1651,Left,1,62,94,517.5,0.979167,Eighth,D4
1653,Right,0,68,96,518.0,0.979167,Eighth,G#5_G#4
1652,Left,1,52,96,518.0,0.979167,Eighth,E3
1655,Left,1,62,98,518.5,0.979167,Eighth,D4
1656,Right,0,69,100,519.0,0.979167,Eighth,A5_A4
1658,Left,1,45,100,519.0,0.979167,Eighth,A2
1659,Left,1,57,101,519.5,0.979167,Eighth,A3
1662,Left,1,56,103,520.0,0.979167,Eighth,G#3
1660,Right,0,71,103,520.0,0.979167,Eighth,B5_B4
1663,Left,1,57,104,520.5,0.979167,Eighth,A3
1664,Right,0,85,106,521.0,0.979167,Eighth,C#6_C#5
1665,Left,1,55,106,521.0,0.979167,Eighth,G3
1667,Left,1,57,108,521.5,0.979167,Eighth,A3
1669,Right,0,74,110,522.0,0.979167,Eighth,D6_D5
1668,Left,1,53,110,522.0,0.979167,Eighth,F3
1671,Left,1,57,109,522.5,0.979167,Eighth,A3
1672,Right,0,72,107,523.0,0.979167,Eighth,C6_C5
1674,Left,1,52,107,523.0,0.979167,Eighth,E3
1675,Left,1,57,106,523.5,0.979167,Eighth,A3
1676,Right,0,71,104,524.0,0.979167,Eighth,B5_B4
1678,Left,1,51,104,524.0,0.979167,Eighth,D#3
1679,Left,1,57,102,524.5,0.979167,Eighth,A3
1680,Left,1,52,101,525.0,0.979167,Eighth,E3
1681,Right,0,84,101,525.0,0.979167,Eighth,C6_C5
1683,Left,1,57,100,525.5,0.979167,Eighth,A3
1684,Left,1,59,100,526.0,0.979167,Eighth,B3
1685,Right,0,80,100,526.0,0.979167,Eighth,G#5_G#4
1687,Left,1,52,100,526.5,0.979167,Eighth,E3
1688,Left,1,60,100,527.0,0.979167,Eighth,C4
1689,Right,0,81,100,527.0,0.979167,Eighth,A5_A4
1691,Left,1,52,100,527.5,0.979167,Eighth,E3
1693,Left,1,62,100,528.0,0.979167,Eighth,D4
1692,Right,0,83,100,528.0,0.979167,Eighth,B5_B4
1695,Left,1,52,100,528.5,0.979167,Eighth,E3
1696,Left,1,60,100,529.0,0.979167,Eighth,C4
1697,Right,0,78,100,529.0,0.979167,Eighth,F#5_F#4
1699,Left,1,52,100,529.5,0.979167,Eighth,E3
1701,Right,0,68,100,530.0,0.979167,Eighth,G#5_G#4
1700,Left,1,59,100,530.0,0.979167,Eighth,B3
1703,Left,1,52,100,530.5,0.979167,Eighth,E3
1704,Right,0,69,100,531.0,0.979167,Eighth,A4
1705,Left,1,45,100,531.0,0.979167,Eighth,A2
1707,Left,1,57,101,531.5,0.979167,Eighth,A3
1706,Right,0,81,101,531.5,0.979167,Eighth,A5
1709,Left,1,56,103,532.0,0.979167,Eighth,G#3
1708,Right,0,71,103,532.0,0.979167,Eighth,B4
1710,Left,1,57,104,532.5,0.979167,Eighth,A3
1711,Right,0,83,104,532.5,0.979167,Eighth,B5
1712,Left,1,55,106,533.0,0.979167,Eighth,G3
1713,Right,0,73,106,533.0,0.979167,Eighth,C#5
1715,Left,1,57,108,533.5,0.979167,Eighth,A3
1714,Right,0,85,108,533.5,0.979167,Eighth,C#6
1716,Left,1,53,109,534.0,0.979167,Eighth,F3
1717,Right,0,74,109,534.0,0.979167,Eighth,D5
1718,Right,0,86,109,534.5,0.979167,Eighth,D6
1719,Left,1,57,109,534.5,0.979167,Eighth,A3
1721,Left,1,52,107,535.0,0.979167,Eighth,E3
1720,Right,0,72,107,535.0,0.979167,Eighth,C5
1722,Right,0,84,106,535.5,0.979167,Eighth,C6
1723,Left,1,57,106,535.5,0.979167,Eighth,A3
1724,Right,0,71,104,536.0,0.979167,Eighth,B4
1725,Left,1,51,104,536.0,0.979167,Eighth,D#3
1727,Right,0,83,102,536.5,0.979167,Eighth,B5
1726,Left,1,57,102,536.5,0.979167,Eighth,A3
1729,Right,0,72,101,537.0,0.979167,Eighth,C5
1728,Left,1,52,101,537.0,0.979167,Eighth,E3
1731,Right,0,84,100,537.5,0.979167,Eighth,C6
1730,Left,1,57,100,537.5,0.979167,Eighth,A3
1733,Left,1,59,100,538.0,0.979167,Eighth,B3
1732,Right,0,68,100,538.0,0.979167,Eighth,G#4
1735,Right,0,80,100,538.5,0.979167,Eighth,G#5
1734,Left,1,52,100,538.5,0.979167,Eighth,E3
1736,Left,1,60,100,539.0,0.979167,Eighth,C4
1737,Right,0,69,100,539.0,0.979167,Eighth,A4
1739,Left,1,52,100,539.5,0.979167,Eighth,E3
1738,Right,0,81,100,539.5,0.979167,Eighth,A5
1741,Left,1,62,100,540.0,0.979167,Eighth,D4
1740,Right,0,71,100,540.0,0.979167,Eighth,B4
1743,Right,0,83,100,540.5,0.979167,Eighth,B5
1742,Left,1,52,100,540.5,0.979167,Eighth,E3
1745,Left,1,60,100,541.0,0.979167,Eighth,C4
1744,Right,0,66,100,541.0,0.979167,Eighth,F#4
1746,Right,0,78,100,541.5,0.979167,Eighth,F#5
1747,Left,1,52,100,541.5,0.979167,Eighth,E3
1749,Left,1,59,100,542.0,0.979167,Eighth,B3
1748,Right,0,68,100,542.0,0.979167,Eighth,G#4
1750,Right,0,80,100,542.5,0.979167,Eighth,G#5
1751,Left,1,52,100,542.5,0.979167,Eighth,E3
1752,Left,1,45,112,543.0,0.979167,Eighth,A2
1753,Right,0,69,112,543.0,0.979167,Eighth,A4
1755,Left,1,57,100,543.5,0.979167,Eighth,A3
1754,Right,0,81,100,543.5,0.979167,Eighth,A5
1756,Right,0,68,100,544.0,0.979167,Eighth,G#4
1757,Left,1,56,100,544.0,0.979167,Eighth,G#3
1758,Right,0,69,100,544.5,0.979167,Eighth,A4
1759,Left,1,57,100,544.5,0.979167,Eighth,A3
1761,Right,0,81,100,545.0,0.979167,Eighth,A5
1760,Left,1,45,100,545.0,0.979167,Eighth,A2
1762,Left,1,57,100,545.5,0.979167,Eighth,A3
1763,Right,0,69,100,545.5,0.979167,Eighth,A4
1765,Right,0,68,120,546.0,0.979167,Eighth,G#4
1764,Left,1,56,120,546.0,0.979167,Eighth,G#3
1766,Left,1,57,100,546.5,0.979167,Eighth,A3
1767,Right,0,69,100,546.5,0.979167,Eighth,A4
1769,Right,0,81,100,547.0,0.979167,Eighth,A5
1768,Left,1,45,100,547.0,0.979167,Eighth,A2
1770,Left,1,57,100,547.5,0.979167,Eighth,A3
1771,Right,0,69,100,547.5,0.979167,Eighth,A4
1773,Right,0,68,100,548.0,0.979167,Eighth,G#4
1772,Left,1,56,100,548.0,0.979167,Eighth,G#3
1775,Left,1,57,100,548.5,0.979167,Eighth,A3
1774,Right,0,69,100,548.5,0.979167,Eighth,A4
1777,Left,1,45,112,549.0,0.979167,Eighth,A2
1776,Right,0,81,112,549.0,0.979167,Eighth,A5
1778,Left,1,57,100,549.5,0.979167,Eighth,A3
1779,Right,0,69,100,549.5,0.979167,Eighth,A4
1780,Left,1,56,100,550.0,0.979167,Eighth,G#3
1781,Right,0,68,100,550.0,0.979167,Eighth,G#4
1783,Left,1,57,100,550.5,0.979167,Eighth,A3
1782,Right,0,69,100,550.5,0.979167,Eighth,A4
1785,Left,1,45,100,551.0,0.979167,Eighth,A2
1784,Right,0,81,100,551.0,0.979167,Eighth,A5
1787,Left,1,57,100,551.5,0.979167,Eighth,A3
1786,Right,0,69,100,551.5,0.979167,Eighth,A4
1788,Right,0,68,120,552.0,0.979167,Eighth,G#4
1789,Left,1,56,120,552.0,0.979167,Eighth,G#3
1790,Left,1,57,100,552.5,0.979167,Eighth,A3
1791,Right,0,69,100,552.5,0.979167,Eighth,A4
1793,Left,1,45,100,553.0,0.979167,Eighth,A2
1792,Right,0,81,100,553.0,0.979167,Eighth,A5
1794,Left,1,57,100,553.5,0.979167,Eighth,A3
1795,Right,0,69,100,553.5,0.979167,Eighth,A4
1797,Left,1,56,100,554.0,0.979167,Eighth,G#3
1796,Right,0,68,100,554.0,0.979167,Eighth,G#4
1798,Left,1,57,100,554.5,0.979167,Eighth,A3
1799,Right,0,69,100,554.5,0.979167,Eighth,A4
1800,Left,1,64,100,555.0,0.979167,Eighth,G4_E4_C#4
1803,Right,0,70,100,555.0,0.979167,Eighth,A#4
1804,Right,0,69,80,555.5,0.979167,Eighth,A4
1805,Right,0,70,80,556.0,0.979167,Eighth,A#4
1806,Right,0,69,80,556.5,0.979167,Eighth,A4
1807,Right,0,70,80,557.0,0.979167,Eighth,A#4
1808,Right,0,69,80,557.5,0.979167,Eighth,A4
1809,Right,0,70,80,558.0,0.979167,Eighth,A#4
1810,Right,0,69,80,558.5,0.979167,Eighth,A4
1811,Right,0,70,80,559.0,0.979167,Eighth,A#4
1812,Right,0,69,80,559.5,0.979167,Eighth,A4
1813,Right,0,70,80,560.0,0.979167,Eighth,A#4
1814,Right,0,69,80,560.5,0.979167,Eighth,A4
1815,Right,0,70,80,561.0,0.979167,Eighth,A#4
1816,Right,0,69,80,561.5,0.979167,Eighth,A4
1817,Right,0,70,80,562.0,0.979167,Eighth,A#4
1818,Right,0,69,80,562.5,0.979167,Eighth,A4
1819,Right,0,73,80,563.0,0.979167,Eighth,C#5
1820,Right,0,69,80,563.5,0.979167,Eighth,A4
1821,Right,0,74,80,564.0,0.979167,Eighth,D5
1822,Right,0,69,80,564.5,0.979167,Eighth,A4
1823,Right,0,76,80,565.0,0.979167,Eighth,E5
1824,Right,0,69,80,565.5,0.979167,Eighth,A4
1825,Right,0,77,80,566.0,0.979167,Eighth,F5
1826,Right,0,76,80,566.5,0.979167,Eighth,E5
1828,Right,0,75,80,567.0,0.979167,Eighth,D#5
1827,Left,1,66,80,567.0,2.979167,DottedQuarter,F#4
1829,Left,1,69,80,567.5,1.479167,DottedEighth,A4
1830,Left,1,72,80,568.0,0.979167,Eighth,C5
1831,Right,0,75,80,568.5,0.979167,Eighth,D#5
1832,Right,0,81,80,569.0,0.979167,Eighth,A5
1833,Right,0,82,80,569.5,0.979167,Eighth,A#5
1834,Right,0,84,80,570.0,0.979167,Eighth,C6
1835,Left,1,66,80,570.0,2.979167,DottedQuarter,F#4
1836,Left,1,69,80,570.5,1.479167,DottedEighth,A4
1837,Left,1,72,80,571.0,0.979167,Eighth,C5
1838,Right,0,75,80,571.5,0.979167,Eighth,D#5
1839,Right,0,81,80,572.0,0.979167,Eighth,A5
1840,Right,0,82,80,572.5,0.979167,Eighth,A#5
1842,Left,1,66,80,573.0,2.979167,DottedQuarter,F#4
1841,Right,0,84,80,573.0,0.979167,Eighth,C6
1843,Left,1,69,80,573.5,1.479167,DottedEighth,A4
1844,Left,1,72,80,574.0,0.979167,Eighth,C5
1845,Right,0,75,80,574.5,0.979167,Eighth,D#5
1846,Right,0,81,80,575.0,0.979167,Eighth,A5
1847,Right,0,82,80,575.5,0.979167,Eighth,A#5
1848,Left,1,66,80,576.0,2.979167,DottedQuarter,F#4
1849,Right,0,84,80,576.0,0.979167,Eighth,C6
1850,Left,1,69,80,576.5,1.479167,DottedEighth,A4
1851,Left,1,72,80,577.0,0.979167,Eighth,C5
1852,Right,0,75,80,577.5,0.979167,Eighth,D#5
1853,Right,0,84,80,578.0,0.979167,Eighth,C6
1854,Right,0,81,80,578.5,0.979167,Eighth,A5
1856,Left,1,31,110,579.0,1.979167,Quarter,G1
1855,Right,0,82,110,579.0,0.989583,Eighth,A#5
1857,Left,1,34,110,579.5,1.979167,Quarter,A#1
1858,Left,1,38,110,580.0,1.979167,Quarter,D2
1860,Left,1,43,110,580.5,1.479167,DottedEighth,G2
1859,Right,0,46,110,580.5,0.989583,Eighth,A#2
1861,Right,0,50,110,581.0,0.989583,Eighth,D3
1862,Right,0,55,110,581.5,0.479167,Sixteenth,G3
1863,Right,0,58,110,582.0,0.979167,Eighth,A#3
1864,Left,1,43,110,582.0,1.979167,Quarter,G2
1865,Left,1,46,110,582.5,1.979167,Quarter,A#2
1866,Left,1,50,110,583.0,1.979167,Quarter,D3
1867,Left,1,55,110,583.5,1.479167,DottedEighth,G3
1868,Right,0,58,110,583.5,0.979167,Eighth,A#3
1869,Right,0,62,110,584.0,0.979167,Eighth,D4
1870,Right,0,67,110,584.5,0.479167,Sixteenth,G4
1872,Left,1,55,110,585.0,1.979167,Quarter,G3
1871,Right,0,70,110,585.0,0.979167,Eighth,A#4
1873,Left,1,58,110,585.5,1.979167,Quarter,A#3
1874,Left,1,62,110,586.0,1.979167,Quarter,D4
1875,Left,1,67,110,586.5,1.479167,DottedEighth,G4
1876,Right,0,70,110,586.5,0.979167,Eighth,A#4
1877,Right,0,74,110,587.0,0.979167,Eighth,D5
1878,Right,0,79,110,587.5,0.979167,Eighth,G5
1879,Left,1,67,110,588.0,0.979167,Eighth,G4
1880,Right,0,82,110,588.0,0.979167,Eighth,A#5
1881,Left,1,70,110,588.5,0.979167,Eighth,A#4
1882,Left,1,74,110,589.0,0.979167,Eighth,D5
1883,Left,1,72,110,589.5,0.979167,Eighth,C5
1884,Right,0,77,110,589.5,0.979167,Eighth,F5
1885,Right,0,83,110,590.0,0.979167,Eighth,B5
1886,Left,1,70,110,590.0,0.979167,Eighth,A#4
1887,Right,0,84,110,590.5,0.979167,Eighth,C6
1888,Left,1,69,110,590.5,0.979167,Eighth,A4
1890,Left,1,68,80,591.0,2.979167,DottedQuarter,G#4
1889,Right,0,86,80,591.0,0.979167,Eighth,D6
1891,Left,1,71,80,591.5,0.979167,Eighth,B4
1892,Left,1,74,80,592.0,0.979167,Eighth,D5
1893,Right,0,77,80,592.5,0.979167,Eighth,F5
1894,Right,0,83,80,593.0,0.979167,Eighth,B5
1895,Right,0,84,80,593.5,0.979167,Eighth,C6
1896,Right,0,86,80,594.0,0.979167,Eighth,D6
1897,Left,1,68,80,594.0,2.979167,DottedQuarter,G#4
1898,Left,1,71,80,594.5,0.979167,Eighth,B4
1899,Left,1,74,80,595.0,0.979167,Eighth,D5
1900,Right,0,77,80,595.5,0.979167,Eighth,F5
1901,Right,0,83,80,596.0,0.979167,Eighth,B5
1902,Right,0,84,80,596.5,0.979167,Eighth,C6
1903,Left,1,68,80,597.0,2.979167,DottedQuarter,G#4
1904,Right,0,86,80,597.0,0.979167,Eighth,D6
1905,Left,1,71,80,597.5,0.979167,Eighth,B4
1906,Left,1,74,80,598.0,0.979167,Eighth,D5
1907,Right,0,77,80,598.5,0.979167,Eighth,F5
1908,Right,0,83,80,599.0,0.979167,Eighth,B5
1909,Right,0,84,80,599.5,0.979167,Eighth,C6
1911,Left,1,68,80,600.0,2.979167,DottedQuarter,G#4
1910,Right,0,86,80,600.0,0.979167,Eighth,D6
1912,Left,1,71,80,600.5,0.979167,Eighth,B4
1913,Left,1,74,80,601.0,0.979167,Eighth,D5
1914,Right,0,77,80,601.5,0.979167,Eighth,F5
1915,Right,0,86,80,602.0,0.979167,Eighth,D6
1916,Right,0,83,80,602.5,0.979167,Eighth,B5
1917,Right,0,84,110,603.0,0.979167,Eighth,C6
1918,Left,1,33,110,603.0,1.979167,Quarter,A1
1919,Left,1,36,110,603.5,1.979167,Quarter,C2
1920,Left,1,40,110,604.0,1.979167,Quarter,E2
1922,Left,1,45,110,604.5,1.479167,DottedEighth,A2
1921,Right,0,48,110,604.5,0.979167,Eighth,C3
1923,Right,0,52,110,605.0,0.979167,Eighth,E3
1924,Right,0,57,110,605.5,0.479167,Sixteenth,A3
1926,Right,0,60,110,606.0,0.979167,Eighth,C4
1925,Left,1,45,110,606.0,1.979167,Quarter,A2
1927,Left,1,48,110,606.5,1.979167,Quarter,C3
1928,Left,1,52,110,607.0,1.979167,Quarter,E3
1930,Right,0,60,110,607.5,0.979167,Eighth,C4
1929,Left,1,57,110,607.5,1.479167,DottedEighth,A3
1931,Right,0,64,110,608.0,0.979167,Eighth,E4
1932,Right,0,69,110,608.5,0.479167,Sixteenth,A4
1933,Left,1,57,110,609.0,1.979167,Quarter,A3
1934,Right,0,72,110,609.0,0.979167,Eighth,C5
1935,Left,1,60,110,609.5,1.979167,Quarter,C4
1936,Left,1,64,110,610.0,1.979167,Quarter,E4
1938,Right,0,72,110,610.5,0.979167,Eighth,C5
1937,Left,1,69,110,610.5,1.479167,DottedEighth,A4
1939,Right,0,76,110,611.0,0.979167,Eighth,E5
1940,Right,0,81,110,611.5,0.979167,Eighth,A5
1941,Right,0,84,110,612.0,0.979167,Eighth,C6
1942,Left,1,45,110,612.5,0.979167,Eighth,A2
1943,Left,1,46,110,613.0,0.979167,Eighth,A#2
1944,Left,1,43,110,613.5,0.979167,Eighth,G2
1945,Left,1,52,110,614.0,0.979167,Eighth,E3
1946,Left,1,50,110,614.5,0.979167,Eighth,D3
1947,Left,1,49,100,615.0,0.979167,Eighth,C#3
1948,Right,0,58,100,615.5,0.979167,Eighth,A#3
1949,Right,0,64,100,616.0,0.979167,Eighth,E4
1950,Right,0,67,100,616.5,0.979167,Eighth,G4
1951,Left,1,49,100,616.5,0.979167,Eighth,C#3
1952,Left,1,55,100,617.0,0.979167,Eighth,G3
1953,Right,0,70,100,617.0,0.979167,Eighth,A#4
1954,Left,1,53,100,617.5,0.979167,Eighth,F3
1955,Left,1,52,100,618.0,0.979167,Eighth,E3
1956,Right,0,61,100,618.5,0.979167,Eighth,C#4
1957,Right,0,67,100,619.0,0.979167,Eighth,G4
1958,Left,1,52,100,619.5,0.979167,Eighth,E3
1959,Right,0,70,100,619.5,0.979167,Eighth,A#4
1961,Right,0,73,100,620.0,0.979167,Eighth,C#5
1960,Left,1,58,100,620.0,0.979167,Eighth,A#3
1962,Left,1,57,100,620.5,0.979167,Eighth,A3
1963,Left,1,55,100,621.0,0.979167,Eighth,G3
1964,Right,0,70,100,621.5,0.979167,Eighth,A#4
1965,Right,0,73,100,622.0,0.979167,Eighth,C#5
1967,Right,0,76,100,622.5,0.979167,Eighth,E5
1966,Left,1,55,100,622.5,0.979167,Eighth,G3
1969,Right,0,79,100,623.0,0.979167,Eighth,G5
1968,Left,1,64,100,623.0,0.979167,Eighth,E4
1970,Left,1,62,100,623.5,0.979167,Eighth,D4
1971,Left,1,61,100,624.0,0.979167,Eighth,C#4
1972,Right,0,76,100,624.5,0.979167,Eighth,E5
1973,Right,0,82,100,625.0,0.979167,Eighth,A#5
1975,Right,0,81,100,625.5,0.979167,Eighth,A5
1974,Left,1,41,100,625.5,0.979167,Eighth,F2
1976,Left,1,45,100,626.0,0.979167,Eighth,A2
1977,Left,1,43,100,626.5,0.979167,Eighth,G2
1978,Left,1,41,100,627.0,0.979167,Eighth,F2
1979,Right,0,62,100,627.5,0.979167,Eighth,D4
1980,Right,0,65,100,628.0,0.979167,Eighth,F4
1982,Left,1,41,100,628.5,0.979167,Eighth,F2
1981,Right,0,69,100,628.5,0.979167,Eighth,A4
1984,Left,1,53,100,629.0,0.979167,Eighth,F3
1983,Right,0,74,100,629.0,0.979167,Eighth,D5
1985,Left,1,52,100,629.5,0.979167,Eighth,E3
1986,Left,1,50,100,630.0,0.979167,Eighth,D3
1987,Right,0,65,100,630.5,0.979167,Eighth,F4
1988,Right,0,69,100,631.0,0.979167,Eighth,A4
1990,Right,0,74,100,631.5,0.979167,Eighth,D5
1989,Left,1,50,100,631.5,0.979167,Eighth,D3
1992,Left,1,57,100,632.0,0.979167,Eighth,A3
1991,Right,0,77,100,632.0,0.979167,Eighth,F5
1993,Left,1,55,100,632.5,0.979167,Eighth,G3
1994,Left,1,53,100,633.0,0.979167,Eighth,F3
1995,Right,0,69,100,633.5,0.979167,Eighth,A4
1996,Right,0,74,100,634.0,0.979167,Eighth,D5
1998,Right,0,77,100,634.5,0.979167,Eighth,F5
1997,Left,1,53,100,634.5,0.979167,Eighth,F3
2000,Left,1,65,100,635.0,0.979167,Eighth,F4
1999,Right,0,81,100,635.0,0.979167,Eighth,A5
2001,Left,1,64,100,635.5,0.979167,Eighth,E4
2002,Left,1,62,100,636.0,0.979167,Eighth,D4
2003,Left,1,65,100,636.5,0.979167,Eighth,F4
2004,Left,1,68,100,637.0,0.979167,Eighth,G#4
2005,Right,0,80,100,637.5,0.979167,Eighth,G#5
2006,Right,0,74,100,638.0,0.979167,Eighth,D5
2007,Right,0,75,100,638.5,0.979167,Eighth,D#5
2008,Right,0,77,100,639.0,0.979167,Eighth,F5
2009,Left,1,38,100,639.5,0.979167,Eighth,D2
2010,Left,1,41,100,640.0,0.979167,Eighth,F2
2012,Right,0,77,100,640.5,0.979167,Eighth,F5
2011,Left,1,44,100,640.5,0.979167,Eighth,G#2
2013,Left,1,47,100,641.0,0.979167,Eighth,B2
2014,Right,0,71,100,641.0,0.979167,Eighth,B4
2015,Right,0,72,100,641.5,0.979167,Eighth,C5
2016,Right,0,74,100,642.0,0.979167,Eighth,D5
2017,Left,1,41,100,642.5,0.979167,Eighth,F2
2018,Left,1,44,100,643.0,0.979167,Eighth,G#2
2019,Left,1,47,100,643.5,0.979167,Eighth,B2
2020,Right,0,74,100,643.5,0.979167,Eighth,D5
2022,Left,1,50,100,644.0,0.979167,Eighth,D3
2021,Right,0,65,100,644.0,0.979167,Eighth,F4
2023,Right,0,67,100,644.5,0.979167,Eighth,G4
2024,Right,0,68,100,645.0,0.979167,Eighth,G#4
2025,Left,1,47,100,645.5,0.979167,Eighth,B2
2026,Left,1,50,100,646.0,0.979167,Eighth,D3
2028,Left,1,53,100,646.5,0.979167,Eighth,F3
2027,Right,0,68,100,646.5,0.979167,Eighth,G#4
2029,Right,0,62,100,647.0,0.979167,Eighth,D4
2030,Left,1,56,100,647.0,0.979167,Eighth,G#3
2031,Right,0,63,100,647.5,0.979167,Eighth,D#4
2032,Right,0,65,100,648.0,0.979167,Eighth,F4
2033,Left,1,56,100,648.5,0.979167,Eighth,G#3
2034,Left,1,55,100,649.0,0.979167,Eighth,G3
2035,Right,0,79,100,649.5,0.979167,Eighth,G5
2036,Left,1,53,100,649.5,0.979167,Eighth,F3
2038,Left,1,51,100,650.0,0.979167,Eighth,D#3
2037,Right,0,72,100,650.0,0.979167,Eighth,C5
2040,Right,0,74,100,650.5,0.979167,Eighth,D5
2039,Left,1,50,100,650.5,0.979167,Eighth,D3
2041,Left,1,48,100,651.0,0.979167,Eighth,C3
2042,Right,0,75,100,651.0,0.979167,Eighth,D#5
2043,Left,1,39,100,651.5,0.979167,Eighth,D#2
2044,Left,1,43,100,652.0,0.979167,Eighth,G2
2045,Right,0,75,100,652.5,0.979167,Eighth,D#5
2046,Left,1,48,100,652.5,0.979167,Eighth,C3
2047,Right,0,67,100,653.0,0.979167,Eighth,G4
2048,Right,0,71,100,653.5,0.979167,Eighth,B4
2049,Right,0,72,100,654.0,0.979167,Eighth,C5
2050,Left,1,43,100,654.5,0.979167,Eighth,G2
2051,Left,1,48,100,655.0,0.979167,Eighth,C3
2052,Left,1,51,100,655.5,0.979167,Eighth,D#3
2053,Right,0,72,100,655.5,0.979167,Eighth,C5
2054,Right,0,63,100,656.0,0.979167,Eighth,D#4
2055,Right,0,65,100,656.5,0.979167,Eighth,F4
2056,Right,0,67,100,657.0,0.979167,Eighth,G4
2057,Left,1,48,100,657.5,0.979167,Eighth,C3
2058,Left,1,51,100,658.0,0.979167,Eighth,D#3
2059,Left,1,55,100,658.5,0.979167,Eighth,G3
2060,Right,0,67,100,658.5,0.979167,Eighth,G4
2061,Right,0,60,100,659.0,0.979167,Eighth,C4
2062,Right,0,62,100,659.5,0.979167,Eighth,D4
2063,Right,0,63,100,660.0,0.979167,Eighth,D#4
2064,Right,0,60,100,660.5,0.979167,Eighth,C4
2065,Right,0,55,100,661.0,0.979167,Eighth,G3
2066,Left,1,36,100,661.5,0.979167,Eighth,C2
2067,Left,1,48,100,662.0,0.979167,Eighth,C3
2068,Left,1,46,100,662.5,0.979167,Eighth,A#2
2069,Left,1,45,100,663.0,0.979167,Eighth,A2
2070,Right,0,54,100,663.5,0.979167,Eighth,F#3
2071,Right,0,60,100,664.0,0.979167,Eighth,C4
2073,Left,1,45,100,664.5,0.979167,Eighth,A2
2072,Right,0,63,100,664.5,0.979167,Eighth,D#4
2075,Right,0,66,100,665.0,0.979167,Eighth,F#4
2074,Left,1,51,100,665.0,0.979167,Eighth,D#3
2076,Left,1,49,100,665.5,0.979167,Eighth,C#3
2077,Left,1,48,100,666.0,0.979167,Eighth,C3
2078,Right,0,57,100,666.5,0.979167,Eighth,A3
2079,Right,0,63,100,667.0,0.979167,Eighth,D#4
2080,Right,0,66,100,667.5,0.979167,Eighth,F#4
2081,Left,1,48,100,667.5,0.979167,Eighth,C3
2082,Left,1,54,100,668.0,0.979167,Eighth,F#3
2083,Right,0,69,100,668.0,0.979167,Eighth,A4
2084,Left,1,53,100,668.5,0.979167,Eighth,F3
2085,Left,1,51,100,669.0,0.979167,Eighth,D#3
2086,Right,0,66,100,669.5,0.979167,Eighth,F#4
2087,Right,0,69,100,670.0,0.979167,Eighth,A4
2089,Left,1,51,100,670.5,0.979167,Eighth,D#3
2088,Right,0,70,100,670.5,0.979167,Eighth,A#4
2091,Left,1,60,100,671.0,0.979167,Eighth,C4
2090,Right,0,75,100,671.0,0.979167,Eighth,D#5
2092,Left,1,58,100,671.5,0.979167,Eighth,A#3
2093,Left,1,57,100,672.0,0.979167,Eighth,A3
2094,Right,0,72,100,672.5,0.979167,Eighth,C5
2095,Right,0,78,100,673.0,0.979167,Eighth,F#5
2096,Right,0,77,100,673.5,0.979167,Eighth,F5
2097,Left,1,37,100,673.5,0.979167,Eighth,C#2
2098,Left,1,49,100,674.0,0.979167,Eighth,C#3
2099,Left,1,48,100,674.5,0.979167,Eighth,C3
2100,Left,1,46,100,675.0,0.979167,Eighth,A#2
2101,Right,0,61,100,675.5,0.979167,Eighth,C#4
2102,Right,0,65,100,676.0,0.979167,Eighth,F4
2104,Right,0,70,100,676.5,0.979167,Eighth,A#4
2103,Left,1,46,100,676.5,0.979167,Eighth,A#2
2106,Right,0,73,100,677.0,0.979167,Eighth,C#5
2105,Left,1,53,100,677.0,0.979167,Eighth,F3
2107,Left,1,51,100,677.5,0.979167,Eighth,D#3
2108,Left,1,49,100,678.0,0.979167,Eighth,C#3
2109,Right,0,65,100,678.5,0.979167,Eighth,F4
2110,Right,0,70,100,679.0,0.979167,Eighth,A#4
2112,Left,1,49,100,679.5,0.979167,Eighth,C#3
2111,Right,0,73,100,679.5,0.979167,Eighth,C#5
2113,Left,1,61,100,680.0,0.979167,Eighth,C#4
2114,Right,0,77,100,680.0,0.979167,Eighth,F5
2115,Left,1,60,100,680.5,0.979167,Eighth,C4
2116,Left,1,58,100,681.0,0.979167,Eighth,A#3
2117,Right,0,70,100,681.5,0.979167,Eighth,A#4
2118,Right,0,73,100,682.0,0.979167,Eighth,C#5
2120,Left,1,58,100,682.5,0.979167,Eighth,A#3
2119,Right,0,77,100,682.5,0.979167,Eighth,F5
2121,Right,0,82,100,683.0,0.979167,Eighth,A#5
2122,Left,1,65,100,683.0,0.979167,Eighth,F4
2123,Left,1,63,100,683.5,0.979167,Eighth,D#4
2124,Left,1,61,100,684.0,0.979167,Eighth,C#4
2125,Left,1,65,100,684.5,0.979167,Eighth,F4
2126,Left,1,70,100,685.0,0.979167,Eighth,A#4
2127,Right,0,89,100,685.5,0.979167,Eighth,F6
2128,Right,0,82,100,686.0,0.979167,Eighth,A#5
2129,Right,0,84,100,686.5,0.979167,Eighth,C6
2130,Right,0,85,100,687.0,0.979167,Eighth,C#6
2131,Left,1,39,100,687.5,0.979167,Eighth,D#2
2132,Left,1,42,100,688.0,0.979167,Eighth,F#2
2134,Right,0,85,100,688.5,0.979167,Eighth,C#6
2133,Left,1,46,100,688.5,0.979167,Eighth,A#2
2135,Right,0,78,100,689.0,0.979167,Eighth,F#5
2136,Right,0,80,100,689.5,0.979167,Eighth,G#5
2137,Right,0,82,100,690.0,0.979167,Eighth,A#5
2138,Left,1,42,100,690.5,0.979167,Eighth,F#2
2139,Left,1,46,100,691.0,0.979167,Eighth,A#2
2141,Right,0,82,100,691.5,0.979167,Eighth,A#5
2140,Left,1,51,100,691.5,0.979167,Eighth,D#3
2142,Right,0,73,100,692.0,0.979167,Eighth,C#5
2143,Right,0,77,100,692.5,0.979167,Eighth,F5
2144,Right,0,78,100,693.0,0.979167,Eighth,F#5
2145,Left,1,46,100,693.5,0.979167,Eighth,A#2
2146,Left,1,51,100,694.0,0.979167,Eighth,D#3
2148,Left,1,54,100,694.5,0.979167,Eighth,F#3
2147,Right,0,78,100,694.5,0.979167,Eighth,F#5
2149,Right,0,70,100,695.0,0.979167,Eighth,A#4
2150,Right,0,72,100,695.5,0.979167,Eighth,C5
2151,Right,0,73,100,696.0,0.979167,Eighth,C#5
2152,Left,1,51,100,696.5,0.979167,Eighth,D#3
2153,Left,1,54,100,697.0,0.979167,Eighth,F#3
2155,Right,0,89,100,697.5,0.979167,Eighth,F6
2154,Left,1,58,100,697.5,0.979167,Eighth,A#3
2156,Right,0,82,100,698.0,0.979167,Eighth,A#5
2157,Right,0,84,100,698.5,0.979167,Eighth,C6
2158,Right,0,85,100,699.0,0.979167,Eighth,C#6
2159,Left,1,41,100,699.5,0.979167,Eighth,F2
2160,Left,1,46,100,700.0,0.979167,Eighth,A#2
2161,Left,1,49,100,700.5,0.979167,Eighth,C#3
2162,Right,0,85,100,700.5,0.979167,Eighth,C#6
2163,Right,0,77,100,701.0,0.979167,Eighth,F5
2164,Right,0,81,100,701.5,0.979167,Eighth,A5
2165,Right,0,82,100,702.0,0.979167,Eighth,A#5
2166,Left,1,46,100,702.5,0.979167,Eighth,A#2
2167,Left,1,49,100,703.0,0.979167,Eighth,C#3
2169,Left,1,53,100,703.5,0.979167,Eighth,F3
2168,Right,0,82,100,703.5,0.979167,Eighth,A#5
2170,Right,0,73,100,704.0,0.979167,Eighth,C#5
2171,Right,0,75,100,704.5,0.979167,Eighth,D#5
2172,Right,0,77,100,705.0,0.979167,Eighth,F5
2173,Left,1,49,100,705.5,0.979167,Eighth,C#3
2174,Left,1,53,100,706.0,0.979167,Eighth,F3
2176,Right,0,77,100,706.5,0.979167,Eighth,F5
2175,Left,1,58,100,706.5,0.979167,Eighth,A#3
2177,Right,0,70,100,707.0,0.979167,Eighth,A#4
2178,Right,0,72,100,707.5,0.979167,Eighth,C5
2179,Right,0,73,100,708.0,0.979167,Eighth,C#5
2180,Left,1,53,100,708.5,0.979167,Eighth,F3
2181,Left,1,58,100,709.0,0.979167,Eighth,A#3
2182,Right,0,85,100,709.5,0.979167,Eighth,C#6
2183,Left,1,61,100,709.5,0.979167,Eighth,C#4
2184,Right,0,82,100,710.0,0.979167,Eighth,A#5
2185,Right,0,84,100,710.5,0.979167,Eighth,C6
2186,Right,0,85,100,711.0,0.979167,Eighth,C#6
2187,Left,1,42,100,711.5,0.979167,Eighth,F#2
2188,Left,1,46,100,712.0,0.979167,Eighth,A#2
2190,Right,0,73,100,712.5,0.979167,Eighth,C#5
2189,Left,1,49,100,712.5,0.979167,Eighth,C#3
2191,Right,0,70,100,713.0,0.979167,Eighth,A#4
2192,Right,0,72,100,713.5,0.979167,Eighth,C5
2193,Right,0,73,100,714.0,0.979167,Eighth,C#5
2194,Left,1,54,100,714.5,0.979167,Eighth,F#3
2195,Left,1,58,100,715.0,0.979167,Eighth,A#3
2196,Left,1,61,100,715.5,0.979167,Eighth,C#4
2197,Right,0,85,100,715.5,0.979167,Eighth,C#6
2198,Right,0,82,100,716.0,0.979167,Eighth,A#5
2199,Right,0,84,100,716.5,0.979167,Eighth,C6
2200,Right,0,85,100,717.0,0.979167,Eighth,C#6
2201,Left,1,43,100,717.5,0.979167,Eighth,G2
2202,Left,1,46,100,718.0,0.979167,Eighth,A#2
2204,Right,0,73,100,718.5,0.979167,Eighth,C#5
2203,Left,1,49,100,718.5,0.979167,Eighth,C#3
2205,Right,0,70,100,719.0,0.979167,Eighth,A#4
2206,Right,0,72,100,719.5,0.979167,Eighth,C5
2207,Right,0,73,100,720.0,0.979167,Eighth,C#5
2208,Left,1,55,100,720.5,0.979167,Eighth,G3
2209,Left,1,58,100,721.0,0.979167,Eighth,A#3
2210,Right,0,84,100,721.5,0.979167,Eighth,C6
2211,Left,1,63,100,721.5,0.979167,Eighth,D#4
2212,Right,0,80,100,722.0,0.979167,Eighth,G#5
2213,Right,0,82,100,722.5,0.979167,Eighth,A#5
2214,Right,0,84,100,723.0,0.979167,Eighth,C6
2215,Left,1,44,101,723.5,0.979167,Eighth,G#2
2216,Left,1,48,102,724.0,0.979167,Eighth,C3
2217,Left,1,51,103,724.5,0.979167,Eighth,D#3
2218,Right,0,72,103,724.5,0.979167,Eighth,C5
2219,Right,0,68,104,725.0,0.979167,Eighth,G#4
2220,Right,0,70,106,725.5,0.979167,Eighth,A#4
2221,Right,0,72,107,726.0,0.979167,Eighth,C5
2222,Left,1,57,108,726.5,0.979167,Eighth,A3
2223,Left,1,60,109,727.0,0.979167,Eighth,C4
2224,Right,0,87,120,727.5,0.979167,Eighth,D#6
2225,Left,1,63,120,727.5,0.979167,Eighth,D#4
2226,Right,0,84,120,728.0,0.979167,Eighth,C6
2227,Right,0,85,120,728.5,0.979167,Eighth,C#6
2228,Right,0,87,120,729.0,0.979167,Eighth,D#6
2229,Left,1,45,120,729.5,0.979167,Eighth,A2
2230,Left,1,48,120,730.0,0.979167,Eighth,C3
2231,Left,1,53,120,730.5,0.979167,Eighth,F3
2232,Right,0,75,120,730.5,0.979167,Eighth,D#5
2233,Right,0,72,120,731.0,0.979167,Eighth,C5
2234,Right,0,73,120,731.5,0.979167,Eighth,C#5
2235,Right,0,75,120,732.0,0.979167,Eighth,D#5
2236,Left,1,57,107,732.5,0.979167,Eighth,A3
2237,Left,1,60,97,733.0,0.979167,Eighth,C4
2238,Right,0,65,80,733.5,0.979167,Eighth,F4
2239,Right,0,73,80,734.0,0.979167,Eighth,C#5
2240,Right,0,72,80,734.5,0.979167,Eighth,C5
2241,Left,1,46,80,735.0,0.979167,Eighth,A#2
2242,Right,0,70,80,735.0,0.979167,Eighth,A#4
2243,Left,1,53,80,735.5,2.479167,TiedQuarter-Sixteenth,F3
2244,Left,1,58,80,736.0,0.979167,Eighth,A#3
2245,Left,1,61,80,736.5,0.979167,Eighth,C#4
2246,Right,0,65,80,736.5,0.979167,Eighth,F4
2247,Right,0,73,80,737.0,0.979167,Eighth,C#5
2248,Right,0,72,80,737.5,0.979167,Eighth,C5
2249,Right,0,70,80,738.0,0.979167,Eighth,A#4
2250,Left,1,46,80,738.0,0.979167,Eighth,A#2
2251,Left,1,53,80,738.5,2.479167,TiedQuarter-Sixteenth,F3
2252,Left,1,58,80,739.0,0.979167,Eighth,A#3
2254,Right,0,65,80,739.5,0.979167,Eighth,F4
2253,Left,1,61,80,739.5,0.979167,Eighth,C#4
2255,Right,0,73,80,740.0,0.979167,Eighth,C#5
2256,Right,0,72,80,740.5,0.979167,Eighth,C5
2257,Left,1,46,80,741.0,0.979167,Eighth,A#2
2258,Right,0,70,80,741.0,0.979167,Eighth,A#4
2259,Left,1,53,80,741.5,2.479167,TiedQuarter-Sixteenth,F3
2260,Left,1,58,80,742.0,0.979167,Eighth,A#3
2261,Left,1,61,80,742.5,0.979167,Eighth,C#4
2262,Right,0,65,80,742.5,0.979167,Eighth,F4
2263,Right,0,73,80,743.0,0.979167,Eighth,C#5
2264,Right,0,70,80,743.5,0.979167,Eighth,A#4
2266,Right,0,72,80,744.0,0.979167,Eighth,C5
2265,Left,1,41,80,744.0,0.979167,Eighth,F2
2267,Left,1,53,80,744.5,2.479167,TiedQuarter-Sixteenth,F3
2268,Left,1,57,80,745.0,0.979167,Eighth,A3
2269,Right,0,65,80,745.5,0.979167,Eighth,F4
2270,Left,1,60,80,745.5,0.979167,Eighth,C4
2271,Right,0,75,80,746.0,0.979167,Eighth,D#5
2272,Right,0,73,80,746.5,0.979167,Eighth,C#5
2274,Left,1,41,80,747.0,0.979167,Eighth,F2
2273,Right,0,72,80,747.0,0.979167,Eighth,C5
2275,Left,1,53,80,747.5,2.479167,TiedQuarter-Sixteenth,F3
2276,Left,1,57,80,748.0,0.979167,Eighth,A3
2278,Right,0,65,80,748.5,0.979167,Eighth,F4
2277,Left,1,60,80,748.5,0.979167,Eighth,C4
2279,Right,0,75,80,749.0,0.979167,Eighth,D#5
2280,Right,0,73,80,749.5,0.979167,Eighth,C#5
2282,Right,0,72,80,750.0,0.979167,Eighth,C5
2281,Left,1,41,80,750.0,0.979167,Eighth,F2
2283,Left,1,53,80,750.5,2.479167,TiedQuarter-Sixteenth,F3
2284,Left,1,57,80,751.0,0.979167,Eighth,A3
2286,Right,0,65,80,751.5,0.979167,Eighth,F4
2285,Left,1,60,80,751.5,0.979167,Eighth,C4
2287,Right,0,75,80,752.0,0.979167,Eighth,D#5
2288,Right,0,73,80,752.5,0.979167,Eighth,C#5
2290,Right,0,72,80,753.0,0.979167,Eighth,C5
2289,Left,1,41,80,753.0,0.979167,Eighth,F2
2291,Left,1,53,80,753.5,2.479167,TiedQuarter-Sixteenth,F3
2292,Left,1,57,80,754.0,0.979167,Eighth,A3
2294,Right,0,65,80,754.5,0.979167,Eighth,F4
2293,Left,1,60,80,754.5,0.979167,Eighth,C4
2295,Right,0,75,80,755.0,0.979167,Eighth,D#5
2296,Right,0,72,80,755.5,0.979167,Eighth,C5
2298,Left,1,46,80,756.0,0.979167,Eighth,A#2
2297,Right,0,73,80,756.0,0.979167,Eighth,C#5
2299,Left,1,53,80,756.5,2.479167,TiedQuarter-Sixteenth,F3
2300,Left,1,58,80,757.0,0.979167,Eighth,A#3
2302,Left,1,61,80,757.5,0.979167,Eighth,C#4
2301,Right,0,65,80,757.5,0.979167,Eighth,F4
2303,Right,0,73,80,758.0,0.979167,Eighth,C#5
2304,Right,0,77,80,758.5,0.979167,Eighth,F5
2305,Left,1,46,80,759.0,0.979167,Eighth,A#2
2306,Left,1,53,80,759.5,2.479167,TiedQuarter-Sixteenth,F3
2307,Left,1,58,80,760.0,0.979167,Eighth,A#3
2308,Right,0,65,81,760.5,0.979167,Eighth,F4
2309,Left,1,61,81,760.5,0.979167,Eighth,C#4
2310,Right,0,73,81,761.0,0.979167,Eighth,C#5
2311,Right,0,77,82,761.5,0.979167,Eighth,F5
2312,Left,1,46,82,762.0,0.979167,Eighth,A#2
2313,Left,1,53,82,762.5,2.479167,TiedQuarter-Sixteenth,F3
2314,Left,1,58,83,763.0,0.979167,Eighth,A#3
2315,Right,0,65,83,763.5,0.979167,Eighth,F4
2316,Left,1,61,83,763.5,0.979167,Eighth,C#4
2317,Right,0,73,84,764.0,0.979167,Eighth,C#5
2318,Right,0,77,84,764.5,0.979167,Eighth,F5
2319,Left,1,46,84,765.0,0.979167,Eighth,A#2
2320,Left,1,54,85,765.5,1.479167,DottedEighth,F#3
2321,Left,1,58,85,766.0,0.979167,Eighth,A#3
2322,Left,1,61,86,766.5,0.979167,Eighth,C#4
2323,Right,0,66,86,766.5,0.979167,Eighth,F#4
2324,Right,0,73,86,767.0,0.979167,Eighth,C#5
2325,Right,0,78,87,767.5,0.979167,Eighth,F#5
2326,Left,1,46,87,768.0,0.979167,Eighth,A#2
2327,Left,1,54,87,768.5,1.479167,DottedEighth,F#3
2328,Left,1,58,88,769.0,0.979167,Eighth,A#3
2330,Right,0,66,88,769.5,0.979167,Eighth,F#4
2329,Left,1,61,88,769.5,0.979167,Eighth,C#4
2331,Right,0,73,89,770.0,0.979167,Eighth,C#5
2332,Right,0,78,89,770.5,0.979167,Eighth,F#5
2333,Left,1,46,89,771.0,0.979167,Eighth,A#2
2334,Left,1,55,90,771.5,1.479167,DottedEighth,G3
2335,Left,1,61,90,772.0,0.979167,Eighth,C#4
2336,Left,1,64,91,772.5,0.979167,Eighth,E4
2337,Right,0,67,91,772.5,0.979167,Eighth,G4
2338,Right,0,73,91,773.0,0.979167,Eighth,C#5
2339,Right,0,79,92,773.5,0.979167,Eighth,G5
2340,Left,1,46,92,774.0,0.979167,Eighth,A#2
2341,Left,1,55,92,774.5,1.479167,DottedEighth,G3
2342,Left,1,61,93,775.0,0.979167,Eighth,C#4
2343,Left,1,64,93,775.5,0.979167,Eighth,E4
2344,Right,0,67,93,775.5,0.979167,Eighth,G4
2345,Right,0,73,94,776.0,0.979167,Eighth,C#5
2346,Right,0,79,94,776.5,0.979167,Eighth,G5
2347,Left,1,46,94,777.0,0.979167,Eighth,A#2
2348,Left,1,56,95,777.5,2.479167,TiedQuarter-Sixteenth,G#3
2349,Left,1,62,95,778.0,0.979167,Eighth,D4
2351,Right,0,68,96,778.5,0.979167,Eighth,G#4
2350,Left,1,65,96,778.5,0.979167,Eighth,F4
2352,Right,0,74,96,779.0,0.979167,Eighth,D5
2353,Right,0,80,97,779.5,0.979167,Eighth,G#5
2354,Left,1,46,97,780.0,0.979167,Eighth,A#2
2355,Left,1,56,97,780.5,2.479167,TiedQuarter-Sixteenth,G#3
2356,Left,1,62,98,781.0,0.979167,Eighth,D4
2358,Right,0,68,98,781.5,0.979167,Eighth,G#4
2357,Left,1,65,98,781.5,0.979167,Eighth,F4
2359,Right,0,74,99,782.0,0.979167,Eighth,D5
2360,Right,0,80,99,782.5,0.979167,Eighth,G#5
2361,Left,1,46,99,783.0,0.979167,Eighth,A#2
2362,Left,1,56,100,783.5,2.479167,TiedQuarter-Sixteenth,G#3
2363,Left,1,62,100,784.0,0.979167,Eighth,D4
2364,Right,0,68,101,784.5,0.979167,Eighth,G#4
2365,Left,1,65,101,784.5,0.979167,Eighth,F4
2366,Right,0,74,101,785.0,0.979167,Eighth,D5
2367,Right,0,80,102,785.5,0.979167,Eighth,G#5
2368,Left,1,46,102,786.0,0.979167,Eighth,A#2
2369,Left,1,56,102,786.5,2.479167,TiedQuarter-Sixteenth,G#3
2370,Left,1,62,103,787.0,0.979167,Eighth,D4
2371,Right,0,68,103,787.5,0.979167,Eighth,G#4
2372,Left,1,65,103,787.5,0.979167,Eighth,F4
2373,Right,0,74,104,788.0,0.979167,Eighth,D5
2374,Right,0,80,104,788.5,0.979167,Eighth,G#5
2376,Right,0,81,110,789.0,0.979167,Eighth,A5
2375,Left,1,45,110,789.0,0.979167,Eighth,A2
2377,Left,1,57,110,789.5,1.479167,DottedEighth,A3
2378,Left,1,61,110,790.0,0.979167,Eighth,C#4
2380,Right,0,69,110,790.5,0.979167,Eighth,A4
2379,Left,1,64,110,790.5,0.979167,Eighth,E4
2381,Right,0,81,121,791.0,0.979167,Eighth,E5_A5
2383,Right,0,73,110,791.5,0.979167,Eighth,C#5
2384,Right,0,77,110,792.0,0.979167,Eighth,G#5_F5
2386,Left,1,50,110,792.0,0.979167,Eighth,D3
2387,Left,1,57,110,792.5,1.479167,DottedEighth,A3
2388,Left,1,62,110,793.0,0.979167,Eighth,D4
2389,Right,0,69,110,793.5,0.979167,Eighth,A4
2390,Left,1,65,110,793.5,0.979167,Eighth,F4
2391,Right,0,80,122,794.0,0.979167,Eighth,G#5_F5
2393,Right,0,74,110,794.5,0.979167,Eighth,D5
2394,Right,0,76,110,795.0,0.979167,Eighth,E5_A5
2395,Left,1,45,110,795.0,0.979167,Eighth,A2
2397,Left,1,57,110,795.5,1.479167,DottedEighth,A3
2398,Left,1,61,110,796.0,0.979167,Eighth,C#4
2399,Left,1,64,110,796.5,0.979167,Eighth,E4
2400,Right,0,69,110,796.5,0.979167,Eighth,A4
2401,Right,0,76,110,797.0,0.979167,Eighth,E5_A5
2403,Right,0,73,110,797.5,0.979167,Eighth,C#5
2405,Left,1,50,110,798.0,0.979167,Eighth,D3
2404,Right,0,80,110,798.0,0.979167,Eighth,G#5_F5
2407,Left,1,57,110,798.5,1.479167,DottedEighth,A3
2408,Left,1,62,110,799.0,0.979167,Eighth,D4
2410,Right,0,69,110,799.5,0.979167,Eighth,A4
2409,Left,1,65,110,799.5,0.979167,Eighth,F4
2411,Right,0,77,110,800.0,0.979167,Eighth,G#5_F5
2413,Right,0,74,110,800.5,0.979167,Eighth,D5
2416,Left,1,45,100,801.0,0.979167,Eighth,A2
2414,Right,0,81,100,801.0,0.979167,Eighth,E5_C#5_A5
2418,Left,1,57,96,801.5,2.479167,TiedQuarter-Sixteenth,A3
2419,Left,1,61,91,802.0,0.979167,Eighth,C#4
2420,Left,1,64,80,802.5,1.479167,DottedEighth,E4
2421,Right,0,73,80,802.5,0.979167,Eighth,C#5
2422,Right,0,76,80,803.0,0.979167,Eighth,E5
2423,Right,0,79,80,803.5,0.979167,Eighth,G5
2425,Right,0,70,80,804.0,0.979167,Eighth,A#4
2424,Left,1,55,80,804.0,2.979167,DottedQuarter,G3
2426,Left,1,57,80,804.5,1.479167,DottedEighth,A3
2427,Left,1,64,80,805.0,1.979167,Quarter,E4
2428,Right,0,70,80,805.5,0.979167,Eighth,A#4
2429,Right,0,73,80,806.0,0.979167,Eighth,C#5
2430,Right,0,76,80,806.5,0.979167,Eighth,E5
2431,Right,0,67,92,807.0,0.979167,Eighth,G4
2432,Left,1,49,80,807.0,2.979167,DottedQuarter,C#3
2433,Left,1,52,80,807.5,1.479167,DottedEighth,E3
2434,Left,1,57,80,808.0,1.979167,Quarter,A3
2435,Right,0,70,80,808.5,0.979167,Eighth,A#4
2436,Right,0,69,80,809.0,0.979167,Eighth,A4
2437,Right,0,67,80,809.5,0.979167,Eighth,G4
2438,Left,1,50,80,810.0,2.979167,DottedQuarter,D3
2439,Right,0,65,80,810.0,0.979167,Eighth,F4
2440,Left,1,53,80,810.5,1.479167,DottedEighth,F3
2441,Left,1,57,80,811.0,1.979167,Quarter,A3
2442,Right,0,65,80,811.5,0.979167,Eighth,F4
2443,Right,0,64,80,812.0,0.979167,Eighth,E4
2444,Right,0,62,80,812.5,0.979167,Eighth,D4
2445,Left,1,45,80,813.0,0.979167,Eighth,A2
2446,Right,0,61,80,813.0,0.979167,Eighth,C#4
2447,Left,1,57,80,813.5,2.479167,TiedQuarter-Sixteenth,A3
2448,Left,1,61,80,814.0,0.979167,Eighth,C#4
2449,Left,1,64,80,814.5,1.479167,DottedEighth,E4
2450,Right,0,73,80,814.5,0.979167,Eighth,C#5
2451,Right,0,76,80,815.0,0.979167,Eighth,E5
2452,Right,0,79,80,815.5,0.979167,Eighth,G5
2454,Left,1,55,80,816.0,2.979167,DottedQuarter,G3
2453,Right,0,70,80,816.0,0.979167,Eighth,A#4
2455,Left,1,57,80,816.5,1.479167,DottedEighth,A3
2456,Left,1,64,80,817.0,1.979167,Quarter,E4
2457,Right,0,70,80,817.5,0.979167,Eighth,A#4
2458,Right,0,73,80,818.0,0.979167,Eighth,C#5
2459,Right,0,76,80,818.5,0.979167,Eighth,E5
2461,Right,0,67,94,819.0,0.979167,Eighth,G4
2460,Left,1,49,80,819.0,2.979167,DottedQuarter,C#3
2462,Left,1,52,80,819.5,1.479167,DottedEighth,E3
2463,Left,1,57,80,820.0,1.979167,Quarter,A3
2464,Right,0,70,80,820.5,0.979167,Eighth,A#4
2465,Right,0,69,80,821.0,0.979167,Eighth,A4
2466,Right,0,67,80,821.5,0.979167,Eighth,G4
2468,Right,0,65,80,822.0,0.979167,Eighth,F4
2467,Left,1,50,80,822.0,2.979167,DottedQuarter,D3
2469,Left,1,53,80,822.5,1.479167,DottedEighth,F3
2470,Left,1,57,80,823.0,1.979167,Quarter,A3
2471,Right,0,65,80,823.5,0.979167,Eighth,F4
2472,Right,0,64,80,824.0,0.979167,Eighth,E4
2473,Right,0,62,80,824.5,0.979167,Eighth,D4
2475,Right,0,78,80,825.0,0.979167,Eighth,F#5
2474,Left,1,50,80,825.0,0.979167,Eighth,D3
2476,Left,1,62,80,825.5,2.479167,TiedQuarter-Sixteenth,D4
2477,Left,1,66,80,826.0,1.979167,Quarter,F#4
2478,Right,0,78,80,826.5,0.979167,Eighth,F#5
2479,Left,1,69,80,826.5,1.479167,DottedEighth,A4
2480,Right,0,81,80,827.0,0.979167,Eighth,A5
2481,Right,0,84,80,827.5,0.979167,Eighth,C6
2482,Right,0,75,80,828.0,0.979167,Eighth,D#5
2483,Left,1,60,80,828.0,2.979167,DottedQuarter,C4
2484,Left,1,62,80,828.5,1.479167,DottedEighth,D4
2485,Left,1,69,80,829.0,1.979167,Quarter,A4
2486,Right,0,75,80,829.5,0.979167,Eighth,D#5
2487,Right,0,78,80,830.0,0.979167,Eighth,F#5
2488,Right,0,81,80,830.5,0.979167,Eighth,A5
2490,Right,0,72,96,831.0,0.979167,Eighth,C5
2489,Left,1,54,80,831.0,2.979167,DottedQuarter,F#3
2491,Left,1,57,80,831.5,1.479167,DottedEighth,A3
2492,Left,1,63,80,832.0,1.979167,Quarter,D#4
2493,Right,0,75,80,832.5,0.979167,Eighth,D#5
2494,Right,0,74,80,833.0,0.979167,Eighth,D5
2495,Right,0,72,80,833.5,0.979167,Eighth,C5
2497,Left,1,55,80,834.0,2.979167,DottedQuarter,G3
2496,Right,0,70,80,834.0,0.979167,Eighth,A#4
2498,Left,1,58,80,834.5,1.479167,DottedEighth,A#3
2499,Left,1,62,80,835.0,1.979167,Quarter,D4
2500,Right,0,70,80,835.5,0.979167,Eighth,A#4
2501,Right,0,69,80,836.0,0.979167,Eighth,A4
2502,Right,0,67,80,836.5,0.979167,Eighth,G4
2504,Right,0,66,80,837.0,0.979167,Eighth,F#4
2503,Left,1,50,80,837.0,0.979167,Eighth,D3
2505,Left,1,62,80,837.5,2.479167,TiedQuarter-Sixteenth,D4
2506,Left,1,66,80,838.0,1.979167,Quarter,F#4
2507,Right,0,78,80,838.5,0.979167,Eighth,F#5
2508,Left,1,69,80,838.5,1.479167,DottedEighth,A4
2509,Right,0,81,80,839.0,0.979167,Eighth,A5
2510,Right,0,84,80,839.5,0.979167,Eighth,C6
2511,Right,0,75,80,840.0,0.979167,Eighth,D#5
2512,Left,1,60,80,840.0,2.979167,DottedQuarter,C4
2513,Left,1,62,80,840.5,2.479167,TiedQuarter-Sixteenth,D4
2514,Left,1,69,80,841.0,1.979167,Quarter,A4
2515,Right,0,75,80,841.5,0.979167,Eighth,D#5
2516,Right,0,78,80,842.0,0.979167,Eighth,F#5
2517,Right,0,81,80,842.5,0.979167,Eighth,A5
2519,Right,0,72,96,843.0,0.979167,Eighth,C5
2518,Left,1,54,80,843.0,2.979167,DottedQuarter,F#3
2520,Left,1,57,80,843.5,2.479167,TiedQuarter-Sixteenth,A3
2521,Left,1,63,80,844.0,1.979167,Quarter,D#4
2522,Right,0,75,80,844.5,0.979167,Eighth,D#5
2523,Right,0,74,80,845.0,0.979167,Eighth,D5
2524,Right,0,72,80,845.5,0.979167,Eighth,C5
2525,Left,1,55,80,846.0,2.979167,DottedQuarter,G3
2526,Right,0,70,80,846.0,0.979167,Eighth,A#4
2527,Left,1,58,80,846.5,2.479167,TiedQuarter-Sixteenth,A#3
2528,Left,1,62,80,847.0,1.979167,Quarter,D4
2529,Right,0,70,80,847.5,0.979167,Eighth,A#4
2530,Right,0,69,80,848.0,0.979167,Eighth,A4
2531,Right,0,67,80,848.5,0.979167,Eighth,G4
2533,Left,1,49,80,849.0,2.979167,DottedQuarter,C#3
2532,Right,0,82,80,849.0,0.979167,Eighth,A#5
2534,Left,1,52,80,849.5,2.479167,TiedQuarter-Sixteenth,E3
2535,Left,1,57,80,850.0,1.979167,Quarter,A3
2536,Right,0,82,80,850.5,0.979167,Eighth,A#5
2537,Right,0,81,80,851.0,0.979167,Eighth,A5
2538,Right,0,79,80,851.5,0.979167,Eighth,G5
2540,Right,0,77,80,852.0,0.979167,Eighth,F5
2539,Left,1,50,80,852.0,2.979167,DottedQuarter,D3
2541,Left,1,53,80,852.5,2.479167,TiedQuarter-Sixteenth,F3
2542,Left,1,57,80,853.0,1.979167,Quarter,A3
2543,Right,0,77,80,853.5,0.979167,Eighth,F5
2544,Right,0,76,80,854.0,0.979167,Eighth,E5
2545,Right,0,74,80,854.5,0.979167,Eighth,D5
2547,Right,0,75,91,855.0,0.979167,Eighth,D#5
2546,Left,1,54,80,855.0,2.979167,DottedQuarter,F#3
2548,Left,1,57,80,855.5,2.479167,TiedQuarter-Sixteenth,A3
2549,Left,1,63,80,856.0,1.979167,Quarter,D#4
2550,Right,0,75,80,856.5,0.979167,Eighth,D#5
2551,Right,0,74,80,857.0,0.979167,Eighth,D5
2552,Right,0,72,80,857.5,0.979167,Eighth,C5
2553,Left,1,55,80,858.0,2.979167,DottedQuarter,G3
2554,Right,0,70,80,858.0,0.979167,Eighth,A#4
2555,Left,1,58,80,858.5,2.479167,TiedQuarter-Sixteenth,A#3
2556,Left,1,62,80,859.0,1.979167,Quarter,D4
2557,Right,0,70,80,859.5,0.979167,Eighth,A#4
2558,Right,0,69,80,860.0,0.979167,Eighth,A4
2559,Right,0,67,80,860.5,0.979167,Eighth,G4
2561,Left,1,49,80,861.0,2.979167,DottedQuarter,C#3
2560,Right,0,82,80,861.0,0.979167,Eighth,A#5
2562,Left,1,52,80,861.5,2.479167,TiedQuarter-Sixteenth,E3
2563,Left,1,57,81,862.0,1.979167,Quarter,A3
2564,Right,0,82,82,862.5,0.979167,Eighth,A#5
2565,Right,0,81,83,863.0,0.979167,Eighth,A5
2566,Right,0,79,84,863.5,0.979167,Eighth,G5
2568,Left,1,50,84,864.0,2.979167,DottedQuarter,D3
2567,Right,0,77,84,864.0,0.979167,Eighth,F5
2569,Left,1,53,85,864.5,2.479167,TiedQuarter-Sixteenth,F3
2570,Left,1,57,86,865.0,1.979167,Quarter,A3
2571,Right,0,77,87,865.5,0.979167,Eighth,F5
2572,Right,0,76,88,866.0,0.979167,Eighth,E5
2573,Right,0,74,89,866.5,0.979167,Eighth,D5
2574,Right,0,82,103,867.0,0.979167,Eighth,A#5
2575,Left,1,49,89,867.0,2.979167,DottedQuarter,C#3
2576,Left,1,52,90,867.5,2.479167,TiedQuarter-Sixteenth,E3
2577,Left,1,57,91,868.0,1.979167,Quarter,A3
2578,Right,0,82,92,868.5,0.979167,Eighth,A#5
2579,Right,0,81,93,869.0,0.979167,Eighth,A5
2580,Right,0,79,94,869.5,0.979167,Eighth,G5
2582,Right,0,77,94,870.0,0.979167,Eighth,F5
2581,Left,1,50,94,870.0,2.979167,DottedQuarter,D3
2583,Left,1,53,95,870.5,2.479167,TiedQuarter-Sixteenth,F3
2584,Left,1,57,96,871.0,1.979167,Quarter,A3
2585,Right,0,77,97,871.5,0.979167,Eighth,F5
2586,Right,0,76,98,872.0,0.979167,Eighth,E5
2587,Right,0,74,99,872.5,0.979167,Eighth,D5
2589,Right,0,82,114,873.0,0.979167,Eighth,A#5
2588,Left,1,49,99,873.0,2.979167,DottedQuarter,C#3
2590,Left,1,52,100,873.5,2.479167,TiedQuarter-Sixteenth,E3
2591,Left,1,57,101,874.0,1.979167,Quarter,A3
2592,Right,0,82,102,874.5,0.979167,Eighth,A#5
2593,Right,0,81,103,875.0,0.979167,Eighth,A5
2594,Right,0,79,104,875.5,0.979167,Eighth,G5
2596,Left,1,50,104,876.0,2.979167,DottedQuarter,D3
2595,Right,0,77,104,876.0,0.979167,Eighth,F5
2597,Left,1,53,105,876.5,2.479167,TiedQuarter-Sixteenth,F3
2598,Left,1,57,106,877.0,1.979167,Quarter,A3
2599,Right,0,77,107,877.5,0.979167,Eighth,F5
2600,Right,0,76,108,878.0,0.979167,Eighth,E5
2601,Right,0,74,109,878.5,0.979167,Eighth,D5
2606,Right,0,82,110,879.0,0.979167,Eighth,A#5
2602,Left,1,45,110,879.0,0.979167,Eighth,G3_E3_C#3_A2
2607,Right,0,79,110,879.5,0.979167,Eighth,G5
2608,Right,0,78,110,880.0,0.979167,Eighth,F#5
2609,Right,0,79,109,880.5,0.979167,Eighth,G5
2610,Right,0,82,109,881.0,0.979167,Eighth,A#5
2611,Right,0,79,108,881.5,0.979167,Eighth,G5
2612,Right,0,78,108,882.0,0.979167,Eighth,F#5
2613,Right,0,79,108,882.5,0.979167,Eighth,G5
2614,Right,0,82,107,883.0,0.979167,Eighth,A#5
2615,Right,0,79,107,883.5,0.979167,Eighth,G5
2616,Right,0,78,106,884.0,0.979167,Eighth,F#5
2617,Right,0,79,106,884.5,0.979167,Eighth,G5
2618,Right,0,75,118,885.0,0.979167,Eighth,D#5
2619,Right,0,76,105,885.5,0.979167,Eighth,E5
2620,Right,0,79,105,886.0,0.979167,Eighth,G5
2621,Right,0,76,104,886.5,0.979167,Eighth,E5
2622,Right,0,75,104,887.0,0.979167,Eighth,D#5
2623,Right,0,76,103,887.5,0.979167,Eighth,E5
2624,Right,0,79,103,888.0,0.979167,Eighth,G5
2625,Right,0,76,103,888.5,0.979167,Eighth,E5
2626,Right,0,75,102,889.0,0.979167,Eighth,D#5
2627,Right,0,76,102,889.5,0.979167,Eighth,E5
2628,Right,0,79,101,890.0,0.979167,Eighth,G5
2629,Right,0,76,101,890.5,0.979167,Eighth,E5
2630,Right,0,72,114,891.0,0.979167,Eighth,C5
2631,Right,0,73,100,891.5,0.979167,Eighth,C#5
2632,Right,0,76,100,892.0,0.979167,Eighth,E5
2633,Right,0,73,99,892.5,0.979167,Eighth,C#5
2634,Right,0,72,99,893.0,0.979167,Eighth,C5
2635,Right,0,73,98,893.5,0.979167,Eighth,C#5
2636,Right,0,76,98,894.0,0.979167,Eighth,E5
2637,Right,0,73,98,894.5,0.979167,Eighth,C#5
2638,Right,0,72,97,895.0,0.979167,Eighth,C5
2639,Right,0,73,97,895.5,0.979167,Eighth,C#5
2640,Right,0,76,96,896.0,0.979167,Eighth,E5
2641,Right,0,73,96,896.5,0.979167,Eighth,C#5
2642,Right,0,69,110,897.0,0.979167,Eighth,A4
2643,Right,0,70,95,897.5,0.979167,Eighth,A#4
2644,Right,0,73,95,898.0,0.979167,Eighth,C#5
2645,Right,0,70,94,898.5,0.979167,Eighth,A#4
2646,Right,0,69,94,899.0,0.979167,Eighth,A4
2647,Right,0,70,93,899.5,0.979167,Eighth,A#4
2648,Right,0,73,93,900.0,0.979167,Eighth,C#5
2649,Right,0,70,93,900.5,0.979167,Eighth,A#4
2650,Right,0,69,92,901.0,0.979167,Eighth,A4
2651,Right,0,70,92,901.5,0.979167,Eighth,A#4
2652,Right,0,73,91,902.0,0.979167,Eighth,C#5
2653,Right,0,70,91,902.5,0.979167,Eighth,A#4
2654,Right,0,66,104,903.0,0.979167,Eighth,F#4
2655,Right,0,67,90,903.5,0.979167,Eighth,G4
2656,Right,0,70,90,904.0,0.979167,Eighth,A#4
2657,Right,0,67,89,904.5,0.979167,Eighth,G4
2658,Right,0,66,89,905.0,0.979167,Eighth,F#4
2659,Right,0,67,88,905.5,0.979167,Eighth,G4
2660,Right,0,70,88,906.0,0.979167,Eighth,A#4
2661,Right,0,67,88,906.5,0.979167,Eighth,G4
2662,Right,0,66,87,907.0,0.979167,Eighth,F#4
2663,Right,0,67,87,907.5,0.979167,Eighth,G4
2664,Right,0,70,86,908.0,0.979167,Eighth,A#4
2665,Right,0,67,86,908.5,0.979167,Eighth,G4
2666,Right,0,66,86,909.0,0.979167,Eighth,F#4
2667,Right,0,67,85,909.5,0.979167,Eighth,G4
2668,Right,0,70,85,910.0,0.979167,Eighth,A#4
2669,Right,0,67,84,910.5,0.979167,Eighth,G4
2670,Right,0,66,84,911.0,0.979167,Eighth,F#4
2671,Right,0,67,83,911.5,0.5,Sixteenth,G4
2672,Right,0,70,83,912.0,0.979167,Eighth,A#4
2673,Right,0,67,83,912.5,0.979167,Eighth,G4
2674,Right,0,66,82,913.0,0.979167,Eighth,F#4
2676,Right,0,70,81,914.0,0.979167,Eighth,A#4
2677,Right,0,67,81,914.5,0.979167,Eighth,G4
2678,Right,0,66,80,915.0,0.979167,Eighth,F#4
2679,Right,0,67,80,915.5,0.979167,Eighth,G4
2680,Right,0,70,80,916.0,0.979167,Eighth,A#4
2681,Right,0,67,80,916.5,0.979167,Eighth,G4
2682,Right,0,66,80,917.0,0.979167,Eighth,F#4
2683,Right,0,67,80,917.5,0.979167,Eighth,G4
2684,Right,0,70,80,918.0,0.979167,Eighth,A#4
2685,Right,0,73,79,918.5,0.979167,Eighth,C#5
2686,Right,0,70,77,919.0,0.979167,Eighth,A#4
2687,Right,0,67,76,919.5,0.979167,Eighth,G4
2688,Right,0,66,74,920.0,0.979167,Eighth,F#4
2689,Right,0,67,72,920.5,0.979167,Eighth,G4
2690,Right,0,70,70,921.0,0.979167,Eighth,A#4
2691,Right,0,73,70,921.5,0.979167,Eighth,C#5
2692,Right,0,76,70,922.0,0.979167,Eighth,E5
2693,Right,0,67,70,922.5,0.979167,Eighth,G4
2694,Right,0,66,70,923.0,0.979167,Eighth,F#4
2695,Right,0,67,70,923.5,0.979167,Eighth,G4
2696,Right,0,70,70,924.0,0.979167,Eighth,A#4
2697,Right,0,73,70,924.5,0.979167,Eighth,C#5
2698,Right,0,76,70,925.0,0.979167,Eighth,E5
2699,Right,0,69,73,925.5,0.979167,Eighth,A4
2700,Right,0,77,76,926.0,0.979167,Eighth,F5
2701,Right,0,76,77,926.5,0.979167,Eighth,E5
2702,Right,0,74,80,927.0,0.979167,Eighth,D5
2703,Left,1,50,80,927.0,0.979167,Eighth,D3
2704,Left,1,57,80,927.5,2.479167,TiedQuarter-Sixteenth,A3
2705,Left,1,62,80,928.0,0.979167,Eighth,D4
2707,Left,1,65,80,928.5,0.979167,Eighth,F4
2706,Right,0,69,80,928.5,0.979167,Eighth,A4
2708,Right,0,77,80,929.0,0.979167,Eighth,F5
2709,Right,0,76,80,929.5,0.979167,Eighth,E5
2711,Right,0,74,80,930.0,0.979167,Eighth,D5
2710,Left,1,50,80,930.0,0.979167,Eighth,D3
2712,Left,1,57,80,930.5,2.479167,TiedQuarter-Sixteenth,A3
2713,Left,1,62,80,931.0,0.979167,Eighth,D4
2715,Right,0,69,80,931.5,0.979167,Eighth,A4
2714,Left,1,65,80,931.5,0.979167,Eighth,F4
2716,Right,0,77,80,932.0,0.979167,Eighth,F5
2717,Right,0,76,80,932.5,0.979167,Eighth,E5
2719,Left,1,50,80,933.0,0.979167,Eighth,D3
2718,Right,0,74,80,933.0,0.979167,Eighth,D5
2720,Left,1,57,80,933.5,2.479167,TiedQuarter-Sixteenth,A3
2721,Left,1,62,80,934.0,0.979167,Eighth,D4
2722,Right,0,69,80,934.5,0.979167,Eighth,A4
2723,Left,1,65,80,934.5,0.979167,Eighth,F4
2724,Right,0,77,80,935.0,0.979167,Eighth,F5
2725,Right,0,74,80,935.5,0.979167,Eighth,D5
2727,Left,1,45,80,936.0,0.979167,Eighth,A2
2726,Right,0,76,80,936.0,0.979167,Eighth,E5
2728,Left,1,57,80,936.5,2.479167,TiedQuarter-Sixteenth,A3
2729,Left,1,61,80,937.0,0.979167,Eighth,C#4
2730,Left,1,64,80,937.5,0.979167,Eighth,E4
2731,Right,0,69,80,937.5,0.979167,Eighth,A4
2732,Right,0,79,80,938.0,0.979167,Eighth,G5
2733,Right,0,77,80,938.5,0.979167,Eighth,F5
2735,Right,0,76,80,939.0,0.979167,Eighth,E5
2734,Left,1,45,80,939.0,0.979167,Eighth,A2
2736,Left,1,57,80,939.5,2.479167,TiedQuarter-Sixteenth,A3
2737,Left,1,61,80,940.0,0.979167,Eighth,C#4
2739,Left,1,64,80,940.5,0.979167,Eighth,E4
2738,Right,0,69,80,940.5,0.979167,Eighth,A4
2740,Right,0,79,80,941.0,0.979167,Eighth,G5
2741,Right,0,77,80,941.5,0.979167,Eighth,F5
2743,Left,1,45,80,942.0,0.979167,Eighth,A2
2742,Right,0,76,80,942.0,0.979167,Eighth,E5
2744,Left,1,57,80,942.5,2.479167,TiedQuarter-Sixteenth,A3
2745,Left,1,61,80,943.0,0.979167,Eighth,C#4
2746,Right,0,69,80,943.5,0.979167,Eighth,A4
2747,Left,1,64,80,943.5,0.979167,Eighth,E4
2748,Right,0,79,80,944.0,0.979167,Eighth,G5
2749,Right,0,77,80,944.5,0.979167,Eighth,F5
2751,Right,0,76,80,945.0,0.979167,Eighth,E5
2750,Left,1,45,80,945.0,0.979167,Eighth,A2
2752,Left,1,57,80,945.5,2.479167,TiedQuarter-Sixteenth,A3
2753,Left,1,61,80,946.0,0.979167,Eighth,C#4
2755,Left,1,64,80,946.5,0.979167,Eighth,E4
2754,Right,0,69,80,946.5,0.979167,Eighth,A4
2756,Right,0,79,80,947.0,0.979167,Eighth,G5
2757,Right,0,76,80,947.5,0.979167,Eighth,E5
2758,Right,0,77,80,948.0,0.979167,Eighth,F5
2759,Left,1,50,80,948.0,0.979167,Eighth,D3
2760,Left,1,57,81,948.5,2.479167,TiedQuarter-Sixteenth,A3
2761,Left,1,62,82,949.0,0.979167,Eighth,D4
2763,Left,1,65,83,949.5,0.979167,Eighth,F4
2762,Right,0,74,83,949.5,0.979167,Eighth,D5
2764,Right,0,81,84,950.0,0.979167,Eighth,A5
2765,Right,0,86,85,950.5,0.979167,Eighth,D6
2767,Left,1,55,86,951.0,2.979167,DottedQuarter,G3
2766,Right,0,82,86,951.0,0.979167,Eighth,A#5
2768,Left,1,62,87,951.5,2.479167,TiedQuarter-Sixteenth,D4
2769,Left,1,67,88,952.0,1.979167,Quarter,G4
2770,Right,0,70,89,952.5,0.979167,Eighth,A#4
2771,Right,0,74,91,953.0,0.979167,Eighth,D5
2772,Right,0,82,92,953.5,0.979167,Eighth,A#5
2773,Left,1,51,93,954.0,2.979167,DottedQuarter,D#3
2774,Right,0,79,93,954.0,0.979167,Eighth,G5
2775,Left,1,58,94,954.5,2.479167,TiedQuarter-Sixteenth,A#3
2776,Left,1,63,95,955.0,1.979167,Quarter,D#4
2777,Right,0,67,96,955.5,0.979167,Eighth,G4
2778,Right,0,70,97,956.0,0.979167,Eighth,A#4
2779,Right,0,79,98,956.5,0.979167,Eighth,G5
2781,Right,0,76,100,957.0,0.979167,Eighth,E5
2780,Left,1,49,100,957.0,2.979167,DottedQuarter,C#3
2782,Left,1,57,99,957.5,2.479167,TiedQuarter-Sixteenth,A3
2783,Left,1,61,97,958.0,1.979167,Quarter,C#4
2784,Right,0,64,96,958.5,0.979167,Eighth,E4
2785,Right,0,69,94,959.0,0.979167,Eighth,A4
2786,Right,0,76,92,959.5,0.979167,Eighth,E5
2788,Right,0,77,91,960.0,0.979167,Eighth,F5
2787,Left,1,50,91,960.0,2.979167,DottedQuarter,D3
2789,Left,1,57,89,960.5,2.479167,TiedQuarter-Sixteenth,A3
2790,Left,1,62,87,961.0,1.979167,Quarter,D4
2791,Right,0,65,86,961.5,0.979167,Eighth,F4
2792,Right,0,69,84,962.0,0.979167,Eighth,A4
2793,Right,0,77,82,962.5,0.979167,Eighth,F5
2794,Left,1,45,80,963.0,2.979167,DottedQuarter,A2
2795,Right,0,74,80,963.0,0.979167,Eighth,D5
2796,Left,1,53,82,963.5,2.479167,TiedQuarter-Sixteenth,F3
2797,Left,1,57,84,964.0,1.979167,Quarter,A3
2798,Right,0,62,87,964.5,0.979167,Eighth,D4
2799,Right,0,69,89,965.0,0.979167,Eighth,A4
2800,Right,0,74,92,965.5,0.979167,Eighth,D5
2801,Right,0,73,94,966.0,0.979167,Eighth,C#5
2802,Left,1,45,94,966.0,2.979167,DottedQuarter,A2
2803,Left,1,52,97,966.5,2.479167,TiedQuarter-Sixteenth,E3
2804,Left,1,55,99,967.0,1.979167,Quarter,G3
2806,Left,1,57,102,967.5,1.479167,DottedEighth,A3
2805,Right,0,61,102,967.5,0.979167,Eighth,C#4
2807,Right,0,69,104,968.0,0.979167,Eighth,A4
2808,Right,0,73,107,968.5,0.979167,Eighth,C#5
2809,Right,0,74,110,969.0,0.979167,Eighth,D5
2810,Left,1,38,110,969.0,0.979167,Eighth,D2
2811,Left,1,50,110,969.5,0.979167,Eighth,D3
2812,Left,1,53,110,970.0,0.979167,Eighth,F3
2813,Left,1,57,110,970.5,0.979167,Eighth,A3
2814,Left,1,62,110,971.0,0.979167,Eighth,D4
2815,Right,0,65,110,971.0,0.979167,Eighth,F4
2816,Right,0,69,110,971.5,0.979167,Eighth,A4
2817,Right,0,74,110,972.0,0.979167,Eighth,D5
2818,Right,0,77,110,972.5,0.979167,Eighth,F5
2819,Right,0,81,110,973.0,0.979167,Eighth,A5
2820,Right,0,77,110,973.5,0.979167,Eighth,F5
2821,Right,0,86,110,974.0,0.979167,Eighth,D6
2822,Right,0,81,110,974.5,0.979167,Eighth,A5
2823,Right,0,82,86,975.0,0.979167,Eighth,A#5
2824,Left,1,55,86,975.0,2.979167,DottedQuarter,G3
2825,Left,1,62,87,975.5,2.479167,TiedQuarter-Sixteenth,D4
2826,Left,1,67,88,976.0,1.979167,Quarter,G4
2827,Right,0,70,89,976.5,0.979167,Eighth,A#4
2828,Right,0,74,91,977.0,0.979167,Eighth,D5
2829,Right,0,82,92,977.5,0.979167,Eighth,A#5
2830,Left,1,51,93,978.0,2.979167,DottedQuarter,D#3
2831,Right,0,79,93,978.0,0.979167,Eighth,G5
2832,Left,1,58,94,978.5,2.479167,TiedQuarter-Sixteenth,A#3
2833,Left,1,63,95,979.0,1.979167,Quarter,D#4
2834,Right,0,67,96,979.5,0.979167,Eighth,G4
2835,Right,0,70,97,980.0,0.979167,Eighth,A#4
2836,Right,0,79,98,980.5,0.979167,Eighth,G5
2838,Left,1,48,100,981.0,2.979167,DottedQuarter,C3
2837,Right,0,75,100,981.0,0.979167,Eighth,D#5
2839,Left,1,55,99,981.5,2.479167,TiedQuarter-Sixteenth,G3
2840,Left,1,60,97,982.0,1.979167,Quarter,C4
2841,Right,0,63,96,982.5,0.979167,Eighth,D#4
2842,Right,0,67,94,983.0,0.979167,Eighth,G4
2843,Right,0,75,92,983.5,0.979167,Eighth,D#5
2844,Left,1,45,91,984.0,2.979167,DottedQuarter,A2
2845,Right,0,72,91,984.0,0.979167,Eighth,C5
2846,Left,1,53,89,984.5,2.479167,TiedQuarter-Sixteenth,F3
2847,Left,1,57,87,985.0,1.979167,Quarter,A3
2848,Right,0,60,86,985.5,0.979167,Eighth,C4
2849,Right,0,65,84,986.0,0.979167,Eighth,F4
2850,Right,0,72,82,986.5,0.979167,Eighth,C5
2851,Right,0,74,80,987.0,0.979167,Eighth,D5
2852,Left,1,46,80,987.0,2.979167,DottedQuarter,A#2
2853,Left,1,53,81,987.5,2.479167,TiedQuarter-Sixteenth,F3
2854,Left,1,58,82,988.0,1.979167,Quarter,A#3
2855,Right,0,62,84,988.5,0.979167,Eighth,D4
2856,Right,0,65,85,989.0,0.979167,Eighth,F4
2857,Right,0,74,87,989.5,0.979167,Eighth,D5
2858,Right,0,75,88,990.0,0.979167,Eighth,D#5
2859,Left,1,39,88,990.0,2.979167,DottedQuarter,D#2
2860,Left,1,48,89,990.5,2.479167,TiedQuarter-Sixteenth,C3
2861,Left,1,51,91,991.0,1.979167,Quarter,D#3
2862,Right,0,63,92,991.5,0.979167,Eighth,D#4
2863,Right,0,67,94,992.0,0.979167,Eighth,G4
2864,Right,0,75,95,992.5,0.979167,Eighth,D#5
2865,Right,0,72,97,993.0,0.979167,Eighth,C5
2866,Left,1,41,97,993.0,2.979167,DottedQuarter,F2
2867,Left,1,48,98,993.5,2.479167,TiedQuarter-Sixteenth,C3
2868,Left,1,53,99,994.0,1.979167,Quarter,F3
2869,Right,0,60,110,994.5,0.979167,Eighth,C4
2870,Right,0,69,110,995.0,0.979167,Eighth,A4
2871,Right,0,72,110,995.5,0.979167,Eighth,C5
2872,Right,0,77,110,996.0,0.979167,Eighth,F5
2873,Left,1,38,110,996.0,2.979167,DottedQuarter,D2
2874,Left,1,46,106,996.5,2.479167,TiedQuarter-Sixteenth,A#2
2875,Left,1,50,102,997.0,1.979167,Quarter,D3
2876,Right,0,65,98,997.5,0.979167,Eighth,F4
2877,Right,0,70,94,998.0,0.979167,Eighth,A#4
2878,Right,0,77,90,998.5,0.979167,Eighth,F5
2879,Right,0,74,86,999.0,0.979167,Eighth,D5
2880,Left,1,43,86,999.0,2.979167,DottedQuarter,G2
2881,Left,1,46,80,999.5,2.479167,TiedQuarter-Sixteenth,A#2
2882,Left,1,55,81,1000.0,1.979167,Quarter,G3
2883,Right,0,62,83,1000.5,0.979167,Eighth,D4
2884,Right,0,70,85,1001.0,0.979167,Eighth,A#4
2885,Right,0,74,87,1001.5,0.979167,Eighth,D5
2887,Right,0,75,88,1002.0,0.979167,Eighth,D#5
2886,Left,1,39,88,1002.0,2.979167,DottedQuarter,D#2
2888,Left,1,48,90,1002.5,2.479167,TiedQuarter-Sixteenth,C3
2889,Left,1,51,92,1003.0,1.979167,Quarter,D#3
2890,Right,0,63,94,1003.5,0.979167,Eighth,D#4
2891,Right,0,67,95,1004.0,0.979167,Eighth,G4
2892,Right,0,75,97,1004.5,0.979167,Eighth,D#5
2894,Left,1,41,99,1005.0,2.979167,DottedQuarter,F2
2893,Right,0,72,99,1005.0,0.979167,Eighth,C5
2895,Left,1,48,101,1005.5,2.479167,TiedQuarter-Sixteenth,C3
2896,Left,1,53,102,1006.0,1.979167,Quarter,F3
2897,Right,0,60,104,1006.5,0.979167,Eighth,C4
2898,Right,0,69,106,1007.0,0.979167,Eighth,A4
2899,Right,0,72,108,1007.5,0.979167,Eighth,C5
2901,Right,0,70,110,1008.0,0.979167,Eighth,A#4
2900,Left,1,34,110,1008.0,0.979167,Eighth,A#1
2902,Left,1,41,110,1008.5,0.979167,Eighth,F2
2903,Left,1,46,110,1009.0,0.979167,Eighth,A#2
2904,Left,1,29,110,1009.5,0.979167,Eighth,F1
2905,Left,1,37,110,1010.0,0.979167,Eighth,C#2
2906,Left,1,36,110,1010.5,0.979167,Eighth,C2
2907,Left,1,34,110,1011.0,0.979167,Eighth,A#1
2908,Right,0,46,110,1011.5,0.979167,Eighth,A#2
2909,Right,0,49,110,1012.0,0.979167,Eighth,C#3
2910,Left,1,29,110,1012.5,0.979167,Eighth,F1
2911,Right,0,53,110,1012.5,0.979167,Eighth,F3
2912,Left,1,37,110,1013.0,0.979167,Eighth,C#2
2913,Right,0,58,110,1013.0,0.979167,Eighth,A#3
2914,Left,1,36,110,1013.5,0.979167,Eighth,C2
2915,Left,1,34,110,1014.0,0.979167,Eighth,A#1
2916,Right,0,46,110,1014.5,0.979167,Eighth,A#2
2917,Right,0,49,110,1015.0,0.979167,Eighth,C#3
2919,Right,0,53,110,1015.5,0.979167,Eighth,F3
2918,Left,1,29,110,1015.5,0.979167,Eighth,F1
2921,Right,0,58,110,1016.0,0.979167,Eighth,A#3
2920,Left,1,37,110,1016.0,0.979167,Eighth,C#2
2922,Left,1,36,110,1016.5,0.979167,Eighth,C2
2923,Left,1,34,110,1017.0,0.979167,Eighth,A#1
2924,Right,0,46,110,1017.5,0.979167,Eighth,A#2
2925,Right,0,49,110,1018.0,0.979167,Eighth,C#3
2927,Left,1,29,110,1018.5,0.979167,Eighth,F1
2926,Right,0,53,110,1018.5,0.979167,Eighth,F3
2929,Right,0,58,110,1019.0,0.979167,Eighth,A#3
2928,Left,1,37,110,1019.0,0.979167,Eighth,C#2
2930,Left,1,34,110,1019.5,0.979167,Eighth,A#1
2931,Left,1,36,120,1020.0,2.979167,DottedQuarter,C2_C1
2932,Right,0,43,120,1020.0,0.979167,Eighth,G2
2934,Right,0,46,110,1020.5,0.979167,Eighth,A#2
2935,Right,0,52,110,1021.0,0.979167,Eighth,E3
2936,Right,0,55,110,1021.5,0.979167,Eighth,G3
2937,Right,0,58,110,1022.0,0.979167,Eighth,A#3
2938,Right,0,64,110,1022.5,0.979167,Eighth,E4
2939,Left,1,41,110,1023.0,0.979167,Eighth,F2_F1
2940,Right,0,53,110,1023.0,0.979167,Eighth,F3
2942,Right,0,65,110,1023.5,0.979167,Eighth,F4
2943,Left,1,44,110,1024.0,0.979167,Eighth,G#2
2944,Right,0,56,110,1024.0,0.979167,Eighth,G#3
2945,Right,0,68,110,1024.5,0.979167,Eighth,G#4
2946,Left,1,48,110,1025.0,0.979167,Eighth,C3
2947,Right,0,60,110,1025.0,0.979167,Eighth,C4
2948,Right,0,72,110,1025.5,0.979167,Eighth,C5
2950,Left,1,53,110,1026.0,0.979167,Eighth,F3
2949,Right,0,65,110,1026.0,0.979167,Eighth,F4
2951,Right,0,77,110,1026.5,0.979167,Eighth,F5
2953,Right,0,68,110,1027.0,0.979167,Eighth,G#4
2952,Left,1,56,110,1027.0,0.979167,Eighth,G#3
2954,Right,0,80,110,1027.5,0.979167,Eighth,G#5
2956,Left,1,53,110,1028.0,0.979167,Eighth,F3
2955,Right,0,65,110,1028.0,0.979167,Eighth,F4
2957,Right,0,77,110,1028.5,0.979167,Eighth,F5
2959,Left,1,48,110,1029.0,0.979167,Eighth,C3
2958,Right,0,60,110,1029.0,0.979167,Eighth,C4
2960,Right,0,72,110,1029.5,0.979167,Eighth,C5
2962,Right,0,56,110,1030.0,0.979167,Eighth,G#3
2961,Left,1,44,110,1030.0,0.979167,Eighth,G#2
2963,Right,0,68,110,1030.5,0.979167,Eighth,G#4
2964,Left,1,48,110,1031.0,0.979167,Eighth,C3
2965,Right,0,60,110,1031.0,0.979167,Eighth,C4
2966,Right,0,72,110,1031.5,0.979167,Eighth,C5
2967,Left,1,44,110,1032.0,0.979167,Eighth,G#2
2968,Right,0,56,110,1032.0,0.979167,Eighth,G#3
2969,Right,0,68,110,1032.5,0.979167,Eighth,G#4
2971,Left,1,41,110,1033.0,0.979167,Eighth,F2
2970,Right,0,53,110,1033.0,0.979167,Eighth,F3
2973,Left,1,36,110,1033.5,0.979167,Eighth,C2
2972,Right,0,65,110,1033.5,0.979167,Eighth,F4
2974,Left,1,44,110,1034.0,0.979167,Eighth,G#2
2975,Left,1,43,110,1034.5,0.979167,Eighth,G2
2976,Left,1,41,110,1035.0,0.979167,Eighth,F2
2977,Right,0,53,110,1035.5,0.979167,Eighth,F3
2978,Right,0,56,110,1036.0,0.979167,Eighth,G#3
2980,Right,0,60,110,1036.5,0.979167,Eighth,C4
2979,Left,1,36,110,1036.5,0.979167,Eighth,C2
2982,Right,0,65,110,1037.0,0.979167,Eighth,F4
2981,Left,1,44,110,1037.0,0.979167,Eighth,G#2
2983,Left,1,43,110,1037.5,0.979167,Eighth,G2
2984,Left,1,41,110,1038.0,0.979167,Eighth,F2
2985,Right,0,53,110,1038.5,0.979167,Eighth,F3
2986,Right,0,56,110,1039.0,0.979167,Eighth,G#3
2987,Right,0,60,110,1039.5,0.979167,Eighth,C4
2988,Left,1,36,110,1039.5,0.979167,Eighth,C2
2990,Left,1,44,110,1040.0,0.979167,Eighth,G#2
2989,Right,0,65,110,1040.0,0.979167,Eighth,F4
2991,Left,1,43,110,1040.5,0.979167,Eighth,G2
2992,Left,1,41,110,1041.0,0.979167,Eighth,F2
2993,Right,0,53,110,1041.5,0.979167,Eighth,F3
2994,Right,0,56,110,1042.0,0.979167,Eighth,G#3
2996,Right,0,60,110,1042.5,0.979167,Eighth,C4
2995,Left,1,36,110,1042.5,0.979167,Eighth,C2
2997,Right,0,65,110,1043.0,0.979167,Eighth,F4
2998,Left,1,44,110,1043.0,0.979167,Eighth,G#2
2999,Left,1,41,110,1043.5,0.979167,Eighth,F2
3002,Right,0,50,120,1044.0,0.979167,Eighth,D3
3000,Left,1,31,120,1044.0,2.979167,DottedQuarter,G2_G1
3003,Right,0,53,110,1044.5,0.979167,Eighth,F3
3004,Right,0,59,110,1045.0,0.979167,Eighth,B3
3005,Right,0,62,110,1045.5,0.979167,Eighth,D4
3006,Right,0,65,110,1046.0,0.979167,Eighth,F4
3007,Right,0,71,110,1046.5,0.979167,Eighth,B4
3008,Left,1,48,110,1047.0,0.979167,Eighth,C3_C2
3009,Right,0,60,110,1047.0,0.979167,Eighth,C4
3011,Right,0,72,110,1047.5,0.979167,Eighth,C5
3012,Left,1,51,110,1048.0,0.979167,Eighth,D#3
3013,Right,0,63,110,1048.0,0.979167,Eighth,D#4
3014,Right,0,75,110,1048.5,0.979167,Eighth,D#5
3016,Left,1,55,110,1049.0,0.979167,Eighth,G3
3015,Right,0,67,110,1049.0,0.979167,Eighth,G4
3017,Right,0,79,110,1049.5,0.979167,Eighth,G5
3018,Left,1,60,110,1050.0,0.979167,Eighth,C4
3019,Right,0,72,110,1050.0,0.979167,Eighth,C5
3020,Right,0,84,110,1050.5,0.979167,Eighth,C6
3021,Left,1,63,110,1051.0,0.979167,Eighth,D#4
3022,Right,0,75,110,1051.0,0.979167,Eighth,D#5
3023,Right,0,87,110,1051.5,0.979167,Eighth,D#6
3025,Right,0,72,110,1052.0,0.979167,Eighth,C5
3024,Left,1,60,110,1052.0,0.979167,Eighth,C4
3026,Right,0,84,110,1052.5,0.979167,Eighth,C6
3027,Right,0,67,110,1053.0,0.979167,Eighth,G4
3028,Left,1,55,110,1053.0,0.979167,Eighth,G3
3029,Right,0,79,110,1053.5,0.979167,Eighth,G5
3030,Right,0,63,110,1054.0,0.979167,Eighth,D#4
3031,Left,1,51,110,1054.0,0.979167,Eighth,D#3
3032,Right,0,75,110,1054.5,0.979167,Eighth,D#5
3034,Right,0,67,110,1055.0,0.979167,Eighth,G4
3033,Left,1,55,110,1055.0,0.979167,Eighth,G3
3035,Right,0,79,110,1055.5,0.979167,Eighth,G5
3037,Right,0,63,110,1056.0,0.979167,Eighth,D#4
3036,Left,1,51,110,1056.0,0.979167,Eighth,D#3
3038,Right,0,75,110,1056.5,0.979167,Eighth,D#5
3040,Left,1,48,110,1057.0,0.979167,Eighth,C3
3039,Right,0,60,110,1057.0,0.979167,Eighth,C4
3041,Left,1,31,110,1057.5,0.979167,Eighth,G1
3042,Right,0,72,110,1057.5,0.979167,Eighth,C5
3043,Left,1,39,110,1058.0,0.979167,Eighth,D#2
3044,Left,1,38,110,1058.5,0.979167,Eighth,D2
3045,Left,1,36,110,1059.0,0.979167,Eighth,C2
3046,Right,0,48,110,1059.5,0.979167,Eighth,C3
3047,Right,0,51,110,1060.0,0.979167,Eighth,D#3
3048,Left,1,31,110,1060.5,0.979167,Eighth,G1
3049,Right,0,55,110,1060.5,0.979167,Eighth,G3
3050,Left,1,39,110,1061.0,0.979167,Eighth,D#2
3051,Right,0,60,110,1061.0,0.979167,Eighth,C4
3052,Left,1,38,110,1061.5,0.979167,Eighth,D2
3053,Left,1,36,110,1062.0,0.979167,Eighth,C2
3054,Right,0,48,110,1062.5,0.979167,Eighth,C3
3055,Right,0,51,110,1063.0,0.979167,Eighth,D#3
3056,Left,1,31,110,1063.5,0.979167,Eighth,G1
3057,Right,0,55,110,1063.5,0.979167,Eighth,G3
3059,Left,1,39,110,1064.0,0.979167,Eighth,D#2
3058,Right,0,60,110,1064.0,0.979167,Eighth,C4
3060,Left,1,38,110,1064.5,0.979167,Eighth,D2
3061,Left,1,36,110,1065.0,0.979167,Eighth,C2
3062,Right,0,48,110,1065.5,0.979167,Eighth,C3
3063,Right,0,51,110,1066.0,0.979167,Eighth,D#3
3064,Left,1,31,110,1066.5,0.979167,Eighth,G1
3065,Right,0,55,110,1066.5,0.979167,Eighth,G3
3067,Right,0,60,110,1067.0,0.979167,Eighth,C4
3066,Left,1,39,110,1067.0,0.979167,Eighth,D#2
3068,Left,1,36,110,1067.5,0.979167,Eighth,C2
3070,Left,1,26,123,1068.0,2.979167,DottedQuarter,D2_D1
3069,Right,0,45,120,1068.0,0.979167,Eighth,A2
3072,Right,0,48,110,1068.5,0.979167,Eighth,C3
3073,Right,0,54,110,1069.0,0.979167,Eighth,F#3
3074,Right,0,57,110,1069.5,0.979167,Eighth,A3
3075,Right,0,60,110,1070.0,0.979167,Eighth,C4
3076,Right,0,66,110,1070.5,0.979167,Eighth,F#4
3077,Left,1,31,110,1071.0,0.979167,Eighth,G2_G1
3078,Right,0,55,110,1071.0,0.979167,Eighth,G3
3080,Right,0,67,110,1071.5,0.979167,Eighth,G4
3081,Left,1,46,110,1072.0,0.979167,Eighth,A#2
3082,Right,0,58,110,1072.0,0.979167,Eighth,A#3
3083,Right,0,70,110,1072.5,0.979167,Eighth,A#4
3085,Right,0,62,110,1073.0,0.979167,Eighth,D4
3084,Left,1,50,110,1073.0,0.979167,Eighth,D3
3086,Right,0,74,110,1073.5,0.979167,Eighth,D5
3087,Left,1,55,110,1074.0,0.979167,Eighth,G3
3088,Right,0,67,110,1074.0,0.979167,Eighth,G4
3089,Right,0,79,110,1074.5,0.979167,Eighth,G5
3091,Left,1,58,110,1075.0,0.979167,Eighth,A#3
3090,Right,0,70,110,1075.0,0.979167,Eighth,A#4
3092,Right,0,82,110,1075.5,0.979167,Eighth,A#5
3094,Right,0,67,110,1076.0,0.979167,Eighth,G4
3093,Left,1,55,110,1076.0,0.979167,Eighth,G3
3095,Right,0,79,110,1076.5,0.979167,Eighth,G5
3096,Right,0,62,110,1077.0,0.979167,Eighth,D4
3097,Left,1,50,110,1077.0,0.979167,Eighth,D3
3098,Right,0,74,110,1077.5,0.979167,Eighth,D5
3100,Left,1,46,110,1078.0,0.979167,Eighth,A#2
3099,Right,0,58,110,1078.0,0.979167,Eighth,A#3
3101,Right,0,70,110,1078.5,0.979167,Eighth,A#4
3102,Right,0,62,110,1079.0,0.979167,Eighth,D4
3103,Left,1,50,110,1079.0,0.979167,Eighth,D3
3104,Right,0,74,110,1079.5,0.979167,Eighth,D5
3105,Right,0,58,110,1080.0,0.979167,Eighth,A#3
3106,Left,1,46,110,1080.0,0.979167,Eighth,A#2
3107,Right,0,70,110,1080.5,0.979167,Eighth,A#4
3109,Right,0,55,110,1081.0,0.979167,Eighth,G3
3108,Left,1,43,110,1081.0,0.979167,Eighth,G2
3110,Right,0,67,110,1081.5,0.979167,Eighth,G4
3111,Left,1,38,110,1081.5,0.979167,Eighth,D2
3112,Left,1,46,110,1082.0,0.979167,Eighth,A#2
3113,Left,1,45,110,1082.5,0.979167,Eighth,A2
3114,Left,1,43,110,1083.0,0.979167,Eighth,G2
3115,Right,0,50,110,1083.5,0.979167,Eighth,D3
3116,Right,0,55,110,1084.0,0.979167,Eighth,G3
3118,Right,0,58,110,1084.5,0.979167,Eighth,A#3
3117,Left,1,38,110,1084.5,0.979167,Eighth,D2
3119,Left,1,46,110,1085.0,0.979167,Eighth,A#2
3120,Right,0,62,110,1085.0,0.979167,Eighth,D4
3121,Left,1,45,110,1085.5,0.979167,Eighth,A2
3122,Left,1,43,110,1086.0,0.979167,Eighth,G2
3123,Right,0,50,110,1086.5,0.979167,Eighth,D3
3124,Right,0,55,110,1087.0,0.979167,Eighth,G3
3125,Left,1,38,110,1087.5,0.979167,Eighth,D2
3126,Right,0,58,110,1087.5,0.979167,Eighth,A#3
3128,Left,1,46,110,1088.0,0.979167,Eighth,A#2
3127,Right,0,62,110,1088.0,0.979167,Eighth,D4
3129,Left,1,45,110,1088.5,0.979167,Eighth,A2
3130,Left,1,43,110,1089.0,0.979167,Eighth,G2
3131,Right,0,50,110,1089.5,0.979167,Eighth,D3
3132,Right,0,55,110,1090.0,0.979167,Eighth,G3
3133,Right,0,58,110,1090.5,0.979167,Eighth,A#3
3134,Left,1,38,110,1090.5,0.979167,Eighth,D2
3136,Left,1,46,110,1091.0,0.979167,Eighth,A#2
3135,Right,0,62,110,1091.0,0.979167,Eighth,D4
3137,Left,1,43,110,1091.5,0.979167,Eighth,G2
3139,Left,1,34,120,1092.0,2.979167,DottedQuarter,A#2_A#1
3138,Right,0,56,120,1092.0,0.979167,Eighth,G#3_D3
3142,Right,0,62,110,1092.5,0.979167,Eighth,D4
3143,Right,0,50,110,1093.0,0.979167,Eighth,G#3_D3
3145,Right,0,62,110,1093.5,0.979167,Eighth,D4
3146,Right,0,56,110,1094.0,0.979167,Eighth,G#3_D3
3148,Right,0,62,110,1094.5,0.979167,Eighth,D4
3150,Right,0,61,110,1095.0,0.979167,Eighth,E3_C#4_A3
3149,Left,1,33,110,1095.0,0.979167,Eighth,A2_A1
3155,Right,0,70,110,1096.0,0.479167,Sixteenth,A#4
3154,Left,1,52,110,1096.0,0.979167,Eighth,G3_E3
3157,Right,0,72,110,1096.25,0.479167,Sixteenth,C5
3158,Right,0,70,110,1096.5,0.729167,DottedSixteenth,A#4
3159,Left,1,57,110,1096.5,0.979167,Eighth,A3
3160,Right,0,69,110,1097.0,0.979167,Eighth,A4
3161,Left,1,49,110,1097.0,0.979167,Eighth,C#3
3162,Left,1,57,110,1097.5,0.979167,Eighth,A3
3164,Left,1,52,110,1098.0,0.979167,Eighth,G3_E3
3163,Right,0,70,110,1098.0,0.479167,Sixteenth,A#4
3166,Right,0,72,110,1098.25,0.479167,Sixteenth,C5
3167,Right,0,70,110,1098.5,0.729167,DottedSixteenth,A#4
3168,Left,1,57,110,1098.5,0.979167,Eighth,A3
3170,Left,1,49,110,1099.0,0.979167,Eighth,C#3
3169,Right,0,69,110,1099.0,0.979167,Eighth,A4
3171,Left,1,57,110,1099.5,0.979167,Eighth,A3
3174,Right,0,70,110,1100.0,0.479167,Sixteenth,A#4
3172,Left,1,55,110,1100.0,0.979167,Eighth,G3_E3
3175,Right,0,72,110,1100.25,0.479167,Sixteenth,C5
3177,Right,0,70,110,1100.5,0.729167,DottedSixteenth,A#4
3176,Left,1,57,110,1100.5,0.979167,Eighth,A3
3179,Left,1,49,110,1101.0,0.979167,Eighth,C#3
3178,Right,0,69,110,1101.0,0.979167,Eighth,A4
3180,Left,1,57,110,1101.5,0.979167,Eighth,A3
3181,Left,1,52,110,1102.0,0.979167,Eighth,G3_E3
3183,Right,0,70,110,1102.0,0.479167,Sixteenth,A#4
3184,Right,0,72,110,1102.25,0.479167,Sixteenth,C5
3186,Left,1,57,110,1102.5,0.979167,Eighth,A3
3185,Right,0,70,110,1102.5,0.729167,DottedSixteenth,A#4
3187,Left,1,49,110,1103.0,0.979167,Eighth,C#3
3188,Right,0,69,110,1103.0,0.979167,Eighth,A4
3189,Left,1,57,110,1103.5,0.979167,Eighth,A3
3192,Right,0,70,110,1104.0,0.479167,Sixteenth,A#4
3190,Left,1,55,110,1104.0,0.979167,Eighth,G3_E3
3193,Right,0,72,110,1104.25,0.479167,Sixteenth,C5
3195,Right,0,70,110,1104.5,0.729167,DottedSixteenth,A#4
3194,Left,1,57,110,1104.5,0.979167,Eighth,A3
3196,Right,0,69,110,1105.0,0.979167,Eighth,A4
3197,Left,1,49,110,1105.0,0.979167,Eighth,C#3
3198,Left,1,57,110,1105.5,0.979167,Eighth,A3
3199,Left,1,55,110,1106.0,0.979167,Eighth,G3_E3
3201,Right,0,70,110,1106.0,0.479167,Sixteenth,A#4
3202,Right,0,72,110,1106.25,0.479167,Sixteenth,C5
3204,Right,0,70,110,1106.5,0.729167,DottedSixteenth,A#4
3203,Left,1,57,110,1106.5,0.979167,Eighth,A3
3205,Right,0,69,110,1107.0,0.979167,Eighth,A4
3206,Left,1,49,110,1107.0,0.979167,Eighth,C#3
3207,Left,1,57,110,1107.5,0.979167,Eighth,A3
3210,Right,0,70,110,1108.0,2.979167,DottedQuarter,A#4
3208,Left,1,55,110,1108.0,0.979167,Eighth,G3_E3
3211,Left,1,57,110,1108.5,0.979167,Eighth,A3
3212,Left,1,49,110,1109.0,0.979167,Eighth,C#3
3213,Left,1,57,110,1109.5,0.979167,Eighth,A3
3214,Left,1,55,110,1110.0,0.979167,Eighth,G3_E3
3216,Left,1,57,105,1110.5,0.979167,Eighth,A3
3217,Right,0,69,103,1111.0,0.979167,Eighth,A4
3218,Left,1,49,103,1111.0,0.979167,Eighth,C#3
3219,Left,1,57,100,1111.5,0.979167,Eighth,A3
3221,Right,0,67,97,1112.0,0.979167,Eighth,G4
3220,Left,1,52,93,1112.0,0.979167,Eighth,G3_E3
3223,Left,1,57,89,1112.5,0.979167,Eighth,A3
3225,Left,1,50,80,1113.0,0.979167,Eighth,D3
3224,Right,0,65,80,1113.0,0.479167,Sixteenth,F4
3226,Right,0,67,80,1113.25,0.479167,Sixteenth,G4
3228,Left,1,57,80,1113.5,0.979167,Eighth,A3
3227,Right,0,65,80,1113.5,0.729167,DottedSixteenth,F4
3229,Right,0,64,80,1114.0,0.979167,Eighth,E4
3230,Left,1,53,80,1114.0,0.979167,Eighth,F3
3231,Left,1,57,80,1114.5,0.979167,Eighth,A3
3232,Right,0,62,80,1115.0,0.979167,Eighth,D4
3233,Left,1,50,80,1115.0,0.979167,Eighth,D3
3234,Left,1,57,80,1115.5,0.979167,Eighth,A3
3236,Left,1,45,80,1116.0,0.979167,Eighth,A2
3235,Right,0,61,80,1116.0,0.979167,Eighth,C#4
3237,Left,1,55,80,1116.5,0.979167,Eighth,G3
3238,Right,0,62,80,1117.0,0.979167,Eighth,D4
3239,Left,1,52,80,1117.0,0.979167,Eighth,E3
3240,Left,1,55,80,1117.5,0.979167,Eighth,G3
3241,Right,0,64,80,1118.0,0.979167,Eighth,E4
3242,Left,1,45,80,1118.0,0.979167,Eighth,A2
3243,Left,1,55,80,1118.5,0.979167,Eighth,G3
3245,Left,1,50,80,1119.0,0.979167,Eighth,F3_D3
3244,Right,0,62,80,1119.0,0.979167,Eighth,D4
3247,Left,1,57,80,1119.5,0.979167,Eighth,A3
3249,Right,0,70,110,1120.0,0.979167,Eighth,A#4
3248,Left,1,55,110,1120.0,0.979167,Eighth,G3_E3
3251,Right,0,82,110,1120.5,0.979167,Eighth,A#5
3252,Left,1,57,110,1120.5,0.979167,Eighth,A3
3254,Left,1,49,110,1121.0,0.979167,Eighth,C#3
3253,Right,0,69,110,1121.0,0.979167,Eighth,A4
3256,Right,0,81,110,1121.5,0.979167,Eighth,A5
3255,Left,1,57,110,1121.5,0.979167,Eighth,A3
3257,Right,0,70,110,1122.0,0.979167,Eighth,A#4
3258,Left,1,55,110,1122.0,0.979167,Eighth,G3_E3
3261,Right,0,82,110,1122.5,0.979167,Eighth,A#5
3260,Left,1,57,110,1122.5,0.979167,Eighth,A3
3262,Right,0,69,110,1123.0,0.979167,Eighth,A4
3263,Left,1,49,110,1123.0,0.979167,Eighth,C#3
3265,Left,1,57,110,1123.5,0.979167,Eighth,A3
3264,Right,0,81,110,1123.5,0.979167,Eighth,A5
3266,Left,1,52,110,1124.0,0.979167,Eighth,G3_E3
3268,Right,0,70,110,1124.0,0.979167,Eighth,A#4
3269,Right,0,82,110,1124.5,0.979167,Eighth,A#5
3270,Left,1,57,110,1124.5,0.979167,Eighth,A3
3272,Left,1,49,110,1125.0,0.979167,Eighth,C#3
3271,Right,0,69,110,1125.0,0.979167,Eighth,A4
3273,Right,0,81,110,1125.5,0.979167,Eighth,A5
3274,Left,1,57,110,1125.5,0.979167,Eighth,A3
3275,Left,1,55,110,1126.0,0.979167,Eighth,G3_E3
3277,Right,0,70,110,1126.0,0.979167,Eighth,A#4
3278,Right,0,82,110,1126.5,0.979167,Eighth,A#5
3279,Left,1,57,110,1126.5,0.979167,Eighth,A3
3281,Right,0,69,110,1127.0,0.979167,Eighth,A4
3280,Left,1,49,110,1127.0,0.979167,Eighth,C#3
3283,Right,0,81,110,1127.5,0.979167,Eighth,A5
3282,Left,1,57,110,1127.5,0.979167,Eighth,A3
3286,Right,0,70,110,1128.0,0.979167,Eighth,A#4
3284,Left,1,55,110,1128.0,0.979167,Eighth,G3_E3
3288,Left,1,57,110,1128.5,0.979167,Eighth,A3
3287,Right,0,82,110,1128.5,0.979167,Eighth,A#5
3289,Right,0,69,110,1129.0,0.979167,Eighth,A4
3290,Left,1,49,110,1129.0,0.979167,Eighth,C#3
3292,Left,1,57,110,1129.5,0.979167,Eighth,A3
3291,Right,0,81,110,1129.5,0.979167,Eighth,A5
3293,Left,1,55,110,1130.0,0.979167,Eighth,G3_E3
3295,Right,0,70,110,1130.0,0.979167,Eighth,A#4
3297,Left,1,57,110,1130.5,0.979167,Eighth,A3
3296,Right,0,82,110,1130.5,0.979167,Eighth,A#5
3299,Right,0,81,110,1131.0,0.979167,Eighth,A5_A4
3298,Left,1,49,110,1131.0,0.979167,Eighth,C#3
3301,Left,1,57,110,1131.5,0.979167,Eighth,A3
3304,Right,0,70,110,1132.0,2.979167,DottedQuarter,A#5_A#4
3302,Left,1,55,110,1132.0,0.979167,Eighth,G3_E3
3306,Left,1,57,110,1132.5,0.979167,Eighth,A3
3307,Left,1,49,110,1133.0,0.979167,Eighth,C#3
3308,Left,1,57,110,1133.5,0.979167,Eighth,A3
3309,Left,1,55,110,1134.0,0.979167,Eighth,G3_E3
3311,Left,1,57,105,1134.5,0.979167,Eighth,A3
3313,Right,0,69,102,1135.0,0.979167,Eighth,A5_A4
3312,Left,1,49,102,1135.0,0.979167,Eighth,C#3
3315,Left,1,57,98,1135.5,0.979167,Eighth,A3
3316,Right,0,79,94,1136.0,0.979167,Eighth,G5_G4
3317,Left,1,52,94,1136.0,0.979167,Eighth,G3_E3
3320,Left,1,57,90,1136.5,0.979167,Eighth,A3
3321,Left,1,50,80,1137.0,0.979167,Eighth,D3
3322,Right,0,65,80,1137.0,0.979167,Eighth,F5_F4
3324,Left,1,57,80,1137.5,0.979167,Eighth,A3
3327,Left,1,53,80,1138.0,0.979167,Eighth,F3
3325,Right,0,64,80,1138.0,0.979167,Eighth,E5_E4
3328,Left,1,57,80,1138.5,0.979167,Eighth,A3
3331,Left,1,50,80,1139.0,0.979167,Eighth,D3
3329,Right,0,74,80,1139.0,0.979167,Eighth,D5_D4
3332,Left,1,57,80,1139.5,0.979167,Eighth,A3
3333,Left,1,45,80,1140.0,0.979167,Eighth,A2
3334,Right,0,73,80,1140.0,0.979167,Eighth,C#5_C#4
3336,Left,1,55,80,1140.5,0.979167,Eighth,G3
3337,Left,1,52,80,1141.0,0.979167,Eighth,E3
3338,Right,0,62,80,1141.0,0.979167,Eighth,D5_D4
3340,Left,1,55,80,1141.5,0.979167,Eighth,G3
3343,Left,1,45,80,1142.0,0.979167,Eighth,A2
3341,Right,0,76,80,1142.0,0.979167,Eighth,E5_E4
3344,Left,1,55,80,1142.5,0.979167,Eighth,G3
3345,Left,1,46,80,1143.0,0.979167,Eighth,A#2
3346,Right,0,74,80,1143.0,0.979167,Eighth,D5_D4
3348,Left,1,53,81,1143.5,0.979167,Eighth,F3
3350,Left,1,50,82,1144.0,0.979167,Eighth,D3
3349,Right,0,82,82,1144.0,0.979167,Eighth,A#5_A#4
3352,Left,1,53,83,1144.5,0.979167,Eighth,F3
3354,Right,0,82,84,1145.0,0.979167,Eighth,A#5_A#4
3353,Left,1,46,84,1145.0,0.979167,Eighth,A#2
3356,Left,1,53,85,1145.5,0.979167,Eighth,F3
3357,Right,0,82,87,1146.0,0.979167,Eighth,A#5_A#4
3358,Left,1,43,87,1146.0,0.979167,Eighth,G2
3360,Left,1,51,88,1146.5,0.979167,Eighth,D#3
3362,Left,1,46,89,1147.0,0.979167,Eighth,A#2
3361,Right,0,69,89,1147.0,0.979167,Eighth,A5_A4
3364,Left,1,51,90,1147.5,0.979167,Eighth,D#3
3365,Right,0,79,91,1148.0,0.979167,Eighth,G5_G4
3367,Left,1,43,91,1148.0,0.979167,Eighth,G2
3368,Left,1,51,93,1148.5,0.979167,Eighth,D#3
3370,Right,0,77,94,1149.0,0.979167,Eighth,F5_F4
3369,Left,1,45,94,1149.0,0.979167,Eighth,A2
3372,Left,1,53,95,1149.5,0.979167,Eighth,F3
3373,Left,1,50,96,1150.0,0.979167,Eighth,D3
3374,Right,0,64,96,1150.0,0.979167,Eighth,E5_E4
3376,Left,1,53,97,1150.5,0.979167,Eighth,F3
3378,Left,1,45,99,1151.0,0.979167,Eighth,A2
3377,Right,0,62,99,1151.0,0.979167,Eighth,D5_D4
3380,Left,1,53,100,1151.5,0.979167,Eighth,F3
3381,Left,1,43,101,1152.0,0.979167,Eighth,G2
3382,Right,0,61,101,1152.0,0.979167,Eighth,C#5_C#4
3384,Left,1,52,102,1152.5,0.979167,Eighth,E3
3385,Left,1,45,103,1153.0,0.979167,Eighth,A2
3386,Right,0,74,103,1153.0,0.979167,Eighth,D5_D4
3388,Left,1,52,105,1153.5,0.979167,Eighth,E3
3389,Left,1,43,106,1154.0,0.979167,Eighth,G2
3390,Right,0,76,106,1154.0,0.979167,Eighth,E5_E4
3392,Left,1,52,107,1154.5,0.979167,Eighth,E3
3395,Left,1,41,108,1155.0,0.979167,Eighth,F2
3393,Right,0,74,108,1155.0,0.979167,Eighth,D5_D4
3396,Left,1,50,109,1155.5,0.979167,Eighth,D3
3398,Left,1,40,110,1156.0,0.979167,Eighth,E2
3397,Right,0,70,110,1156.0,0.979167,Eighth,A#5_A#4
3400,Left,1,50,110,1156.5,0.979167,Eighth,D3
3401,Right,0,82,110,1157.0,0.979167,Eighth,A#5_A#4
3402,Left,1,41,110,1157.0,0.979167,Eighth,F2
3404,Left,1,50,110,1157.5,0.979167,Eighth,D3
3406,Left,1,43,110,1158.0,0.979167,Eighth,G2
3405,Right,0,82,110,1158.0,0.979167,Eighth,A#5_A#4
3408,Left,1,50,110,1158.5,0.979167,Eighth,E3_D3
3410,Left,1,41,110,1159.0,0.979167,Eighth,F2
3411,Right,0,81,110,1159.0,0.979167,Eighth,A5_A4
3413,Left,1,52,110,1159.5,0.979167,Eighth,E3_D3
3415,Right,0,79,110,1160.0,0.979167,Eighth,G5_G4
3417,Left,1,43,110,1160.0,0.979167,Eighth,G2
3418,Left,1,52,110,1160.5,0.979167,Eighth,E3_D3
3421,Left,1,45,110,1161.0,0.979167,Eighth,A2
3420,Right,0,77,110,1161.0,0.979167,Eighth,F5_F4
3423,Left,1,50,110,1161.5,0.979167,Eighth,F3_D3
3425,Left,1,44,110,1162.0,0.979167,Eighth,G#2
3426,Right,0,64,110,1162.0,0.979167,Eighth,E5_E4
3428,Left,1,53,110,1162.5,0.979167,Eighth,F3_D3
3432,Left,1,45,110,1163.0,0.979167,Eighth,A2
3430,Right,0,74,110,1163.0,0.979167,Eighth,D5_D4
3433,Left,1,50,110,1163.5,0.979167,Eighth,F3_D3
3435,Left,1,45,110,1164.0,0.979167,Eighth,A2
3436,Right,0,73,110,1164.0,0.979167,Eighth,C#5_C#4
3438,Left,1,55,110,1164.5,0.979167,Eighth,G3_E3
3440,Left,1,45,110,1165.0,0.979167,Eighth,A2
3441,Right,0,74,110,1165.0,0.979167,Eighth,D5_D4
3443,Left,1,50,110,1165.5,0.979167,Eighth,F3_D3
3446,Right,0,76,110,1166.0,0.979167,Eighth,E5_E4
3445,Left,1,45,110,1166.0,0.979167,Eighth,A2
3448,Left,1,52,110,1166.5,0.979167,Eighth,E3_C#3
3451,Left,1,38,105,1167.0,0.979167,Eighth,D2
3450,Right,0,62,105,1167.0,0.979167,Eighth,D5_D4
3453,Left,1,53,99,1167.5,0.979167,Eighth,F3
3454,Left,1,50,92,1168.0,0.979167,Eighth,D3
3455,Left,1,53,86,1168.5,0.979167,Eighth,F3
3456,Right,0,62,80,1169.0,0.979167,Eighth,D4
3457,Left,1,45,80,1169.0,0.979167,Eighth,A2
3459,Right,0,74,80,1169.5,0.979167,Eighth,D5
3458,Left,1,53,80,1169.5,0.5,Sixteenth,F3
3461,Left,1,38,80,1170.0,0.979167,Eighth,D2
3460,Right,0,65,80,1170.0,0.979167,Eighth,F4
3462,Left,1,53,80,1170.5,0.979167,Eighth,F3
3463,Left,1,50,80,1171.0,0.979167,Eighth,D3
3464,Left,1,53,80,1171.5,0.979167,Eighth,F3
3466,Right,0,65,80,1172.0,0.979167,Eighth,F4
3465,Left,1,45,80,1172.0,0.979167,Eighth,A2
3468,Left,1,53,80,1172.5,0.5,Sixteenth,F3
3467,Right,0,77,80,1172.5,0.979167,Eighth,F5
3470,Right,0,69,80,1173.0,0.979167,Eighth,A4
3469,Left,1,38,80,1173.0,0.979167,Eighth,D2
3471,Left,1,53,80,1173.5,0.979167,Eighth,F3
3472,Left,1,50,80,1174.0,0.979167,Eighth,D3
3473,Left,1,53,80,1174.5,0.979167,Eighth,F3
3475,Right,0,69,80,1175.0,0.979167,Eighth,A4
3474,Left,1,45,80,1175.0,0.979167,Eighth,A2
3477,Right,0,81,80,1175.5,0.979167,Eighth,A5
3476,Left,1,53,80,1175.5,0.5,Sixteenth,F3
3479,Right,0,65,80,1176.0,0.979167,Eighth,F4
3478,Left,1,38,80,1176.0,0.979167,Eighth,D2
3480,Left,1,53,80,1176.5,0.979167,Eighth,F3
3481,Left,1,50,80,1177.0,0.979167,Eighth,D3
3482,Left,1,53,80,1177.5,0.979167,Eighth,F3
3483,Left,1,45,80,1178.0,0.979167,Eighth,A2
3484,Right,0,65,80,1178.0,0.979167,Eighth,F4
3486,Left,1,53,80,1178.5,0.5,Sixteenth,F3
3485,Right,0,77,80,1178.5,0.979167,Eighth,F5
3488,Left,1,33,80,1179.0,0.979167,Eighth,A1
3487,Right,0,62,80,1179.0,3.979167,Half,D4
3489,Left,1,53,81,1179.5,0.979167,Eighth,F3
3491,Left,1,50,83,1180.0,0.979167,Eighth,D3
3490,Right,0,74,83,1180.0,2.979167,DottedQuarter,D5
3492,Left,1,53,84,1180.5,0.979167,Eighth,F3
3493,Left,1,45,86,1181.0,0.979167,Eighth,A2
3494,Left,1,53,88,1181.5,0.5,Sixteenth,F3
3495,Left,1,33,89,1182.0,0.979167,Eighth,A1
3496,Left,1,55,91,1182.5,0.979167,Eighth,G3
3497,Left,1,52,93,1183.0,0.979167,Eighth,E3
3498,Right,0,64,93,1183.0,0.979167,Eighth,E5_E4
3500,Left,1,55,94,1183.5,0.979167,Eighth,G3
3502,Right,0,61,96,1184.0,0.979167,Eighth,C#5_C#4
3501,Left,1,45,96,1184.0,0.979167,Eighth,A2
3504,Left,1,55,98,1184.5,0.979167,Eighth,G3
3505,Right,0,62,99,1185.0,0.979167,Eighth,D5_D4
3507,Left,1,38,99,1185.0,0.979167,Eighth,D2
3508,Left,1,53,99,1185.5,0.979167,Eighth,F3
3509,Left,1,50,92,1186.0,0.979167,Eighth,D3
3511,Right,0,62,80,1186.5,0.979167,Eighth,D4
3510,Left,1,53,80,1186.5,0.979167,Eighth,F3
3512,Left,1,45,80,1187.0,0.979167,Eighth,A2
3513,Right,0,74,80,1187.0,0.979167,Eighth,D5
3514,Left,1,53,80,1187.5,0.5,Sixteenth,F3
3515,Right,0,62,80,1187.5,0.979167,Eighth,D4
3517,Left,1,38,80,1188.0,0.979167,Eighth,D2
3516,Right,0,65,80,1188.0,0.979167,Eighth,F4
3518,Left,1,53,80,1188.5,0.979167,Eighth,F3
3519,Left,1,50,80,1189.0,0.979167,Eighth,D3
3521,Left,1,53,80,1189.5,0.979167,Eighth,F3
3520,Right,0,65,80,1189.5,0.979167,Eighth,F4
3523,Left,1,45,80,1190.0,0.979167,Eighth,A2
3522,Right,0,77,80,1190.0,0.979167,Eighth,F5
3524,Right,0,65,80,1190.5,0.979167,Eighth,F4
3525,Left,1,53,80,1190.5,0.5,Sixteenth,F3
3527,Left,1,38,80,1191.0,0.979167,Eighth,D2
3526,Right,0,69,80,1191.0,0.979167,Eighth,A4
3528,Left,1,53,80,1191.5,0.979167,Eighth,F3
3529,Left,1,50,80,1192.0,0.979167,Eighth,D3
3531,Right,0,69,80,1192.5,0.979167,Eighth,A4
3530,Left,1,53,80,1192.5,0.979167,Eighth,F3
3533,Left,1,45,80,1193.0,0.979167,Eighth,A2
3532,Right,0,81,80,1193.0,0.979167,Eighth,A5
3534,Right,0,69,80,1193.5,0.979167,Eighth,A4
3535,Left,1,53,80,1193.5,0.5,Sixteenth,F3
3537,Right,0,65,80,1194.0,0.979167,Eighth,F4
3536,Left,1,38,80,1194.0,0.979167,Eighth,D2
3538,Left,1,53,80,1194.5,0.979167,Eighth,F3
3539,Left,1,50,80,1195.0,0.979167,Eighth,D3
3541,Left,1,53,80,1195.5,0.979167,Eighth,F3
3540,Right,0,65,80,1195.5,0.979167,Eighth,F4
3543,Right,0,77,80,1196.0,0.979167,Eighth,F5
3542,Left,1,45,80,1196.0,0.979167,Eighth,A2
3545,Right,0,65,80,1196.5,0.979167,Eighth,F4
3544,Left,1,53,80,1196.5,0.5,Sixteenth,F3
3547,Left,1,33,80,1197.0,0.979167,Eighth,A1
3546,Right,0,62,80,1197.0,3.979167,Half,D4
3548,Left,1,53,81,1197.5,0.979167,Eighth,F3
3549,Left,1,50,83,1198.0,0.979167,Eighth,D3
3550,Right,0,74,83,1198.0,2.979167,DottedQuarter,D5
3551,Left,1,53,84,1198.5,0.979167,Eighth,F3
3552,Left,1,45,86,1199.0,0.979167,Eighth,A2
3553,Left,1,53,88,1199.5,0.5,Sixteenth,F3
3554,Left,1,33,89,1200.0,0.979167,Eighth,A1
3555,Left,1,55,91,1200.5,0.979167,Eighth,G3
3557,Right,0,64,93,1201.0,0.979167,Eighth,E5_E4
3556,Left,1,52,93,1201.0,0.979167,Eighth,E3
3559,Left,1,55,94,1201.5,0.979167,Eighth,G3
3560,Left,1,45,96,1202.0,0.979167,Eighth,A2
3561,Right,0,73,96,1202.0,0.979167,Eighth,C#5_C#4
3563,Left,1,55,98,1202.5,0.979167,Eighth,G3
3564,Right,0,74,80,1203.0,0.979167,Eighth,D5_D4
3566,Left,1,50,80,1203.0,0.979167,Eighth,D3
3567,Left,1,62,83,1203.5,0.979167,Eighth,D4
3569,Right,0,76,86,1204.0,0.979167,Eighth,E5
3568,Left,1,61,86,1204.0,0.979167,Eighth,C#4
3570,Left,1,62,89,1204.5,0.979167,Eighth,D4
3572,Right,0,78,93,1205.0,0.979167,Eighth,F#5
3571,Left,1,60,93,1205.0,0.979167,Eighth,C4
3573,Left,1,62,96,1205.5,0.979167,Eighth,D4
3574,Left,1,58,99,1206.0,0.979167,Eighth,A#3
3575,Right,0,79,99,1206.0,0.979167,Eighth,G5
3576,Left,1,62,100,1206.5,0.979167,Eighth,D4
3577,Right,0,86,100,1207.0,0.979167,Eighth,F5_D6
3579,Left,1,57,100,1207.0,0.979167,Eighth,A3
3580,Left,1,62,100,1207.5,0.979167,Eighth,D4
3581,Right,0,76,100,1208.0,0.979167,Eighth,E5_D6
3582,Left,1,56,100,1208.0,0.979167,Eighth,G#3
3584,Left,1,62,100,1208.5,0.979167,Eighth,D4
3587,Left,1,57,100,1209.0,0.979167,Eighth,A3
3585,Right,0,86,100,1209.0,0.979167,Eighth,F5_D6
3588,Left,1,62,100,1209.5,0.979167,Eighth,D4
3591,Left,1,64,100,1210.0,0.979167,Eighth,E4
3589,Right,0,73,100,1210.0,0.979167,Eighth,C#6_C#5
3592,Left,1,57,100,1210.5,0.979167,Eighth,A3
3593,Right,0,74,100,1211.0,0.979167,Eighth,D6_D5
3595,Left,1,65,100,1211.0,0.979167,Eighth,F4
3596,Left,1,57,100,1211.5,0.979167,Eighth,A3
3597,Left,1,67,100,1212.0,0.979167,Eighth,G4
3598,Right,0,88,100,1212.0,0.979167,Eighth,E6_E5
3600,Left,1,57,100,1212.5,0.979167,Eighth,A3
3601,Left,1,65,100,1213.0,0.979167,Eighth,F4
3602,Right,0,71,100,1213.0,0.979167,Eighth,B5_B4
3604,Left,1,57,100,1213.5,0.979167,Eighth,A3
3606,Right,0,73,100,1214.0,0.979167,Eighth,C#6_C#5
3605,Left,1,64,100,1214.0,0.979167,Eighth,E4
3608,Left,1,57,100,1214.5,0.979167,Eighth,A3
3609,Left,1,50,90,1215.0,0.979167,Eighth,D3
3610,Right,0,74,90,1215.0,0.979167,Eighth,D5
3611,Right,0,86,91,1215.5,0.979167,Eighth,D6
3612,Left,1,62,91,1215.5,0.979167,Eighth,D4
3613,Left,1,61,93,1216.0,0.979167,Eighth,C#4
3614,Right,0,76,93,1216.0,0.979167,Eighth,E5
3615,Left,1,62,94,1216.5,0.979167,Eighth,D4
3616,Right,0,86,94,1216.5,0.979167,Eighth,D6
3618,Left,1,60,96,1217.0,0.979167,Eighth,C4
3617,Right,0,78,96,1217.0,0.979167,Eighth,F#5
3619,Right,0,86,98,1217.5,0.979167,Eighth,D6
3620,Left,1,62,98,1217.5,0.979167,Eighth,D4
3622,Left,1,58,99,1218.0,0.979167,Eighth,A#3
3621,Right,0,79,99,1218.0,0.979167,Eighth,G5
3624,Left,1,62,100,1218.5,0.979167,Eighth,D4
3623,Right,0,86,100,1218.5,0.979167,Eighth,D6
3626,Left,1,57,100,1219.0,0.979167,Eighth,A3
3625,Right,0,77,100,1219.0,0.979167,Eighth,F5
3627,Right,0,86,100,1219.5,0.979167,Eighth,D6
3628,Left,1,62,100,1219.5,0.979167,Eighth,D4
3629,Left,1,56,100,1220.0,0.979167,Eighth,G#3
3630,Right,0,76,100,1220.0,0.979167,Eighth,E5
3631,Left,1,62,100,1220.5,0.979167,Eighth,D4
3632,Right,0,86,100,1220.5,0.979167,Eighth,D6
3633,Right,0,77,100,1221.0,0.979167,Eighth,F5
3634,Left,1,57,100,1221.0,0.979167,Eighth,A3
3635,Left,1,62,100,1221.5,0.979167,Eighth,D4
3636,Right,0,86,100,1221.5,0.979167,Eighth,D6
3637,Left,1,64,100,1222.0,0.979167,Eighth,E4
3638,Right,0,73,100,1222.0,0.979167,Eighth,C#5
3639,Left,1,57,100,1222.5,0.979167,Eighth,A3
3640,Right,0,85,100,1222.5,0.979167,Eighth,C#6
3641,Right,0,74,100,1223.0,0.979167,Eighth,D5
3642,Left,1,65,100,1223.0,0.979167,Eighth,F4
3644,Left,1,57,100,1223.5,0.979167,Eighth,A3
3643,Right,0,86,100,1223.5,0.979167,Eighth,D6
3646,Left,1,67,100,1224.0,0.979167,Eighth,G4
3645,Right,0,76,100,1224.0,0.979167,Eighth,E5
3648,Left,1,57,100,1224.5,0.979167,Eighth,A3
3647,Right,0,88,100,1224.5,0.979167,Eighth,E6
3650,Left,1,65,100,1225.0,0.979167,Eighth,F4
3649,Right,0,71,100,1225.0,0.979167,Eighth,B4
3651,Right,0,83,100,1225.5,0.979167,Eighth,B5
3652,Left,1,57,100,1225.5,0.979167,Eighth,A3
3654,Left,1,64,100,1226.0,0.979167,Eighth,E4
3653,Right,0,73,100,1226.0,0.979167,Eighth,C#5
3655,Left,1,57,100,1226.5,0.979167,Eighth,A3
3656,Right,0,85,100,1226.5,0.979167,Eighth,C#6
3658,Right,0,74,120,1227.0,0.979167,Eighth,D5
3657,Left,1,50,120,1227.0,0.979167,Eighth,D3
3660,Right,0,86,100,1227.5,0.979167,Eighth,D6
3659,Left,1,62,100,1227.5,0.979167,Eighth,D4
3662,Left,1,61,100,1228.0,0.979167,Eighth,C#4
3661,Right,0,73,100,1228.0,0.979167,Eighth,C#5
3663,Left,1,62,100,1228.5,0.979167,Eighth,D4
3664,Left,1,50,100,1229.0,0.979167,Eighth,D3
3665,Right,0,74,100,1229.0,0.479167,Sixteenth,D5
3666,Right,0,86,100,1229.5,0.979167,Eighth,D6
3667,Left,1,62,100,1229.5,0.979167,Eighth,D4
3668,Left,1,61,120,1230.0,0.979167,Eighth,C#4
3669,Right,0,73,120,1230.0,0.979167,Eighth,C#5
3670,Left,1,62,100,1230.5,0.979167,Eighth,D4
3672,Right,0,74,100,1231.0,0.479167,Sixteenth,D5
3671,Left,1,50,100,1231.0,0.979167,Eighth,D3
3673,Right,0,86,100,1231.5,0.979167,Eighth,D6
3674,Left,1,62,100,1231.5,0.979167,Eighth,D4
3676,Right,0,73,100,1232.0,0.979167,Eighth,C#5
3675,Left,1,61,100,1232.0,0.979167,Eighth,C#4
3677,Left,1,62,100,1232.5,0.979167,Eighth,D4
3678,Right,0,74,120,1233.0,0.479167,Sixteenth,D5
3679,Left,1,50,120,1233.0,0.979167,Eighth,D3
3681,Left,1,62,100,1233.5,0.979167,Eighth,D4
3680,Right,0,86,100,1233.5,0.979167,Eighth,D6
3682,Left,1,61,100,1234.0,0.979167,Eighth,C#4
3683,Right,0,73,100,1234.0,0.979167,Eighth,C#5
3684,Left,1,62,100,1234.5,0.979167,Eighth,D4
3686,Right,0,74,100,1235.0,0.479167,Sixteenth,D5
3685,Left,1,50,100,1235.0,0.979167,Eighth,D3
3688,Right,0,86,100,1235.5,0.979167,Eighth,D6
3687,Left,1,62,100,1235.5,0.979167,Eighth,D4
3690,Right,0,73,120,1236.0,0.979167,Eighth,C#5
3689,Left,1,61,120,1236.0,0.979167,Eighth,C#4
3691,Left,1,62,100,1236.5,0.979167,Eighth,D4
3692,Right,0,74,100,1237.0,0.479167,Sixteenth,D5
3693,Left,1,50,100,1237.0,0.979167,Eighth,D3
3694,Left,1,62,100,1237.5,0.979167,Eighth,D4
3695,Right,0,86,100,1237.5,0.979167,Eighth,D6
3697,Left,1,61,100,1238.0,0.979167,Eighth,C#4
3696,Right,0,73,100,1238.0,0.979167,Eighth,C#5
3698,Left,1,62,100,1238.5,0.979167,Eighth,D4
3699,Right,0,74,100,1238.5,0.979167,Eighth,D5
3701,Right,0,75,90,1239.0,0.979167,Eighth,D#5
3700,Left,1,72,90,1239.0,0.979167,Eighth,F#4_C5_A4
3704,Right,0,74,89,1239.5,0.979167,Eighth,D5
3705,Right,0,75,87,1240.0,0.979167,Eighth,D#5
3706,Right,0,74,86,1240.5,0.979167,Eighth,D5
3707,Right,0,75,84,1241.0,0.979167,Eighth,D#5
3708,Right,0,74,82,1241.5,0.979167,Eighth,D5
3709,Right,0,75,80,1242.0,0.979167,Eighth,D#5
3710,Right,0,74,80,1242.5,0.979167,Eighth,D5
3711,Right,0,75,80,1243.0,0.979167,Eighth,D#5
3712,Right,0,74,80,1243.5,0.979167,Eighth,D5
3713,Right,0,75,80,1244.0,0.979167,Eighth,D#5
3714,Right,0,74,80,1244.5,0.979167,Eighth,D5
3715,Right,0,75,80,1245.0,0.979167,Eighth,D#5
3716,Right,0,74,80,1245.5,0.979167,Eighth,D5
3717,Right,0,75,80,1246.0,0.979167,Eighth,D#5
3718,Right,0,74,80,1246.5,0.979167,Eighth,D5
3719,Right,0,75,80,1247.0,0.979167,Eighth,D#5
3720,Right,0,74,80,1247.5,0.979167,Eighth,D5
3721,Right,0,75,80,1248.0,0.979167,Eighth,D#5
3722,Right,0,74,80,1248.5,0.979167,Eighth,D5
3723,Right,0,75,80,1249.0,0.479167,Sixteenth,D#5
3724,Right,0,75,80,1249.5,0.979167,Eighth,D#5
3725,Right,0,81,80,1250.0,0.979167,Eighth,A5
3726,Right,0,82,80,1250.5,0.979167,Eighth,A#5
3727,Right,0,84,80,1251.0,0.979167,Eighth,C6
3728,Left,1,66,80,1251.0,2.979167,DottedQuarter,F#4
3729,Left,1,69,80,1251.5,0.979167,Eighth,A4
3730,Left,1,72,80,1252.0,0.979167,Eighth,C5
3731,Right,0,75,80,1252.5,0.979167,Eighth,D#5
3732,Right,0,81,80,1253.0,0.979167,Eighth,A5
3733,Right,0,82,80,1253.5,0.979167,Eighth,A#5
3734,Right,0,84,80,1254.0,0.979167,Eighth,C6
3735,Left,1,66,80,1254.0,2.979167,DottedQuarter,F#4
3736,Left,1,69,80,1254.5,0.979167,Eighth,A4
3737,Left,1,72,80,1255.0,0.979167,Eighth,C5
3738,Right,0,75,80,1255.5,0.979167,Eighth,D#5
3739,Right,0,81,80,1256.0,0.979167,Eighth,A5
3740,Right,0,82,80,1256.5,0.979167,Eighth,A#5
3741,Left,1,66,80,1257.0,2.979167,DottedQuarter,F#4
3742,Right,0,84,80,1257.0,0.979167,Eighth,C6
3743,Left,1,69,80,1257.5,0.979167,Eighth,A4
3744,Left,1,72,80,1258.0,0.979167,Eighth,C5
3745,Right,0,75,80,1258.5,0.979167,Eighth,D#5
3746,Right,0,81,80,1259.0,0.979167,Eighth,A5
3747,Right,0,82,80,1259.5,0.979167,Eighth,A#5
3749,Left,1,66,80,1260.0,2.979167,DottedQuarter,F#4
3748,Right,0,84,80,1260.0,0.979167,Eighth,C6
3750,Left,1,69,80,1260.5,0.979167,Eighth,A4
3751,Left,1,72,80,1261.0,0.979167,Eighth,C5
3752,Right,0,75,80,1261.5,0.979167,Eighth,D#5
3753,Right,0,84,80,1262.0,0.979167,Eighth,C6
3754,Right,0,81,80,1262.5,0.979167,Eighth,A5
3755,Right,0,82,80,1263.0,0.979167,Eighth,A#5
3756,Left,1,55,80,1263.0,2.979167,DottedQuarter,G3
3757,Left,1,58,80,1263.5,2.479167,TiedQuarter-Sixteenth,A#3
3758,Left,1,62,81,1264.0,1.979167,Quarter,D4
3759,Right,0,67,82,1264.5,0.979167,Eighth,G4
3760,Right,0,70,83,1265.0,0.979167,Eighth,A#4
3761,Right,0,74,84,1265.5,0.979167,Eighth,D5
3762,Left,1,55,84,1266.0,2.979167,DottedQuarter,G3
3763,Left,1,58,85,1266.5,2.479167,TiedQuarter-Sixteenth,A#3
3764,Left,1,61,86,1267.0,1.979167,Quarter,C#4
3765,Right,0,67,87,1267.5,0.979167,Eighth,G4
3766,Right,0,70,88,1268.0,0.979167,Eighth,A#4
3767,Right,0,73,89,1268.5,0.979167,Eighth,C#5
3768,Left,1,55,89,1269.0,2.979167,DottedQuarter,G3
3769,Left,1,58,90,1269.5,2.479167,TiedQuarter-Sixteenth,A#3
3770,Left,1,62,91,1270.0,1.979167,Quarter,D4
3771,Right,0,67,92,1270.5,0.979167,Eighth,G4
3772,Right,0,70,93,1271.0,0.979167,Eighth,A#4
3773,Right,0,74,94,1271.5,0.979167,Eighth,D5
3774,Left,1,55,94,1272.0,2.979167,DottedQuarter,G3
3775,Left,1,61,95,1272.5,2.479167,TiedQuarter-Sixteenth,C#4
3776,Left,1,64,96,1273.0,1.979167,Quarter,E4
3777,Right,0,67,97,1273.5,0.979167,Eighth,G4
3778,Right,0,70,98,1274.0,0.979167,Eighth,A#4
3779,Right,0,76,99,1274.5,0.979167,Eighth,E5
3780,Left,1,68,100,1275.0,2.979167,DottedQuarter,G#4
3781,Left,1,71,91,1275.5,0.979167,Eighth,B4
3782,Left,1,74,81,1276.0,0.979167,Eighth,D5
3783,Right,0,77,80,1276.5,0.979167,Eighth,F5
3784,Right,0,83,80,1277.0,0.979167,Eighth,B5
3785,Right,0,85,80,1277.5,0.979167,Eighth,C#6
3787,Right,0,86,80,1278.0,0.979167,Eighth,D6
3786,Left,1,68,80,1278.0,2.979167,DottedQuarter,G#4
3788,Left,1,71,80,1278.5,0.979167,Eighth,B4
3789,Left,1,74,80,1279.0,0.979167,Eighth,D5
3790,Right,0,77,80,1279.5,0.979167,Eighth,F5
3791,Right,0,83,80,1280.0,0.979167,Eighth,B5
3792,Right,0,85,80,1280.5,0.979167,Eighth,C#6
3794,Left,1,68,80,1281.0,2.979167,DottedQuarter,G#4
3793,Right,0,86,80,1281.0,0.979167,Eighth,D6
3795,Left,1,71,80,1281.5,0.979167,Eighth,B4
3796,Left,1,74,80,1282.0,0.979167,Eighth,D5
3797,Right,0,77,80,1282.5,0.979167,Eighth,F5
3798,Right,0,83,80,1283.0,0.979167,Eighth,B5
3799,Right,0,85,80,1283.5,0.979167,Eighth,C#6
3800,Right,0,86,80,1284.0,0.979167,Eighth,D6
3801,Left,1,68,80,1284.0,2.979167,DottedQuarter,G#4
3802,Left,1,71,80,1284.5,0.979167,Eighth,B4
3803,Left,1,74,80,1285.0,0.979167,Eighth,D5
3804,Right,0,77,80,1285.5,0.979167,Eighth,F5
3805,Right,0,86,80,1286.0,0.979167,Eighth,D6
3806,Right,0,83,80,1286.5,0.979167,Eighth,B5
3808,Right,0,85,80,1287.0,0.979167,Eighth,C#6
3807,Left,1,57,80,1287.0,2.979167,DottedQuarter,A3
3809,Left,1,61,80,1287.5,2.479167,TiedQuarter-Sixteenth,C#4
3810,Left,1,64,81,1288.0,1.979167,Quarter,E4
3811,Right,0,69,82,1288.5,0.979167,Eighth,A4
3812,Right,0,73,83,1289.0,0.979167,Eighth,C#5
3813,Right,0,76,84,1289.5,0.979167,Eighth,E5
3814,Left,1,57,84,1290.0,2.979167,DottedQuarter,A3
3815,Left,1,61,85,1290.5,2.479167,TiedQuarter-Sixteenth,C#4
3816,Left,1,63,86,1291.0,1.979167,Quarter,D#4
3817,Right,0,69,87,1291.5,0.979167,Eighth,A4
3818,Right,0,73,88,1292.0,0.979167,Eighth,C#5
3819,Right,0,75,89,1292.5,0.979167,Eighth,D#5
3820,Left,1,57,89,1293.0,2.979167,DottedQuarter,A3
3821,Left,1,61,90,1293.5,2.479167,TiedQuarter-Sixteenth,C#4
3822,Left,1,64,91,1294.0,1.979167,Quarter,E4
3823,Right,0,69,92,1294.5,0.979167,Eighth,A4
3824,Right,0,73,93,1295.0,0.979167,Eighth,C#5
3825,Right,0,76,94,1295.5,0.979167,Eighth,E5
3826,Left,1,57,94,1296.0,2.979167,DottedQuarter,A3
3827,Left,1,61,95,1296.5,2.479167,TiedQuarter-Sixteenth,C#4
3828,Left,1,66,96,1297.0,1.979167,Quarter,F#4
3829,Right,0,69,97,1297.5,0.979167,Eighth,A4
3830,Right,0,73,98,1298.0,0.979167,Eighth,C#5
3831,Right,0,78,99,1298.5,0.979167,Eighth,F#5
3832,Left,1,57,100,1299.0,2.979167,DottedQuarter,A3
3833,Left,1,61,100,1299.5,2.479167,TiedQuarter-Sixteenth,C#4
3834,Left,1,67,99,1300.0,1.979167,Quarter,G4
3835,Right,0,69,98,1300.5,0.979167,Eighth,A4
3836,Right,0,73,97,1301.0,0.979167,Eighth,C#5
3837,Right,0,79,96,1301.5,0.979167,Eighth,G5
3838,Left,1,57,96,1302.0,2.979167,DottedQuarter,A3
3839,Left,1,61,95,1302.5,2.479167,TiedQuarter-Sixteenth,C#4
3840,Left,1,66,94,1303.0,1.979167,Quarter,F#4
3841,Right,0,69,93,1303.5,0.979167,Eighth,A4
3842,Right,0,73,92,1304.0,0.979167,Eighth,C#5
3843,Right,0,78,91,1304.5,0.979167,Eighth,F#5
3844,Left,1,57,91,1305.0,2.979167,DottedQuarter,A3
3845,Left,1,61,90,1305.5,2.479167,TiedQuarter-Sixteenth,C#4
3846,Left,1,67,89,1306.0,1.979167,Quarter,G4
3847,Right,0,69,88,1306.5,0.979167,Eighth,A4
3848,Right,0,73,87,1307.0,0.979167,Eighth,C#5
3849,Right,0,79,86,1307.5,0.979167,Eighth,G5
3850,Left,1,57,86,1308.0,2.979167,DottedQuarter,A3
3851,Left,1,61,85,1308.5,2.479167,TiedQuarter-Sixteenth,C#4
3852,Left,1,65,84,1309.0,1.979167,Quarter,F4
3853,Right,0,69,83,1309.5,0.979167,Eighth,A4
3854,Right,0,73,82,1310.0,0.979167,Eighth,C#5
3855,Right,0,77,81,1310.5,0.979167,Eighth,F5
3856,Left,1,57,80,1311.0,2.979167,DottedQuarter,A3
3857,Left,1,61,80,1311.5,2.479167,TiedQuarter-Sixteenth,C#4
3858,Left,1,64,80,1312.0,1.979167,Quarter,E4
3859,Right,0,69,80,1312.5,0.979167,Eighth,A4
3860,Right,0,73,80,1313.0,0.979167,Eighth,C#5
3861,Right,0,76,81,1313.5,0.979167,Eighth,E5
3862,Left,1,57,82,1314.0,2.979167,DottedQuarter,A3
3863,Left,1,61,83,1314.5,2.479167,TiedQuarter-Sixteenth,C#4
3864,Left,1,63,84,1315.0,1.979167,Quarter,D#4
3865,Right,0,69,85,1315.5,0.979167,Eighth,A4
3866,Right,0,73,86,1316.0,0.979167,Eighth,C#5
3867,Right,0,75,87,1316.5,0.979167,Eighth,D#5
3868,Left,1,57,88,1317.0,2.979167,DottedQuarter,A3
3869,Left,1,61,89,1317.5,2.479167,TiedQuarter-Sixteenth,C#4
3870,Left,1,64,90,1318.0,1.979167,Quarter,E4
3871,Right,0,69,91,1318.5,0.979167,Eighth,A4
3872,Right,0,73,92,1319.0,0.979167,Eighth,C#5
3873,Right,0,76,93,1319.5,0.979167,Eighth,E5
3874,Left,1,57,94,1320.0,2.979167,DottedQuarter,A3
3875,Left,1,61,95,1320.5,2.479167,TiedQuarter-Sixteenth,C#4
3876,Left,1,66,96,1321.0,1.979167,Quarter,F#4
3877,Right,0,69,97,1321.5,0.979167,Eighth,A4
3878,Right,0,73,98,1322.0,0.979167,Eighth,C#5
3879,Right,0,78,99,1322.5,0.979167,Eighth,F#5
3880,Left,1,57,100,1323.0,2.979167,DottedQuarter,A3
3881,Left,1,61,99,1323.5,2.479167,TiedQuarter-Sixteenth,C#4
3882,Left,1,67,97,1324.0,1.979167,Quarter,G4
3883,Right,0,69,96,1324.5,0.979167,Eighth,A4
3884,Right,0,73,94,1325.0,0.979167,Eighth,C#5
3885,Right,0,79,92,1325.5,0.979167,Eighth,G5
3886,Left,1,57,91,1326.0,2.979167,DottedQuarter,A3
3887,Left,1,61,89,1326.5,2.479167,TiedQuarter-Sixteenth,C#4
3888,Left,1,67,87,1327.0,1.979167,Quarter,G4
3889,Right,0,69,86,1327.5,0.979167,Eighth,A4
3890,Right,0,73,84,1328.0,0.979167,Eighth,C#5
3891,Right,0,79,82,1328.5,0.979167,Eighth,G5
3892,Left,1,57,81,1329.0,2.979167,DottedQuarter,A3
3893,Left,1,61,79,1329.5,2.479167,TiedQuarter-Sixteenth,C#4
3894,Left,1,67,77,1330.0,1.979167,Quarter,G4
3895,Right,0,69,76,1330.5,0.979167,Eighth,A4
3896,Right,0,73,74,1331.0,0.979167,Eighth,C#5
3897,Right,0,79,72,1331.5,0.979167,Eighth,G5
3898,Left,1,57,80,1332.0,2.979167,DottedQuarter,A3
3899,Left,1,61,80,1332.5,0.979167,Eighth,C#4
3900,Left,1,64,80,1333.0,0.979167,Eighth,E4
3901,Right,0,69,120,1333.5,0.979167,Eighth,A4
3902,Right,0,77,120,1334.0,1.979167,Eighth,F5_A5
3904,Right,0,76,120,1334.5,0.979167,Eighth,E5
3905,Left,1,53,120,1335.0,0.979167,Eighth,F3
3906,Right,0,74,120,1335.0,0.979167,Eighth,D5
3907,Left,1,57,120,1335.5,2.479167,TiedQuarter-Sixteenth,A3
3908,Left,1,62,120,1336.0,0.979167,Eighth,D4
3909,Left,1,65,120,1336.5,0.979167,Eighth,F4
3910,Right,0,69,120,1336.5,0.979167,Eighth,A4
3911,Right,0,81,127,1337.0,1.979167,Quarter,F5_A5
3913,Right,0,76,120,1337.5,0.979167,Eighth,E5
3915,Left,1,53,120,1338.0,0.979167,Eighth,F3
3914,Right,0,74,120,1338.0,0.979167,Eighth,D5
3916,Left,1,57,120,1338.5,2.479167,TiedQuarter-Sixteenth,A3
3917,Left,1,62,120,1339.0,0.979167,Eighth,D4
3919,Right,0,69,120,1339.5,0.979167,Eighth,A4
3918,Left,1,65,120,1339.5,0.979167,Eighth,F4
3920,Right,0,77,120,1340.0,1.979167,Eighth,F5_A5
3922,Right,0,76,120,1340.5,0.979167,Eighth,E5
3924,Right,0,74,120,1341.0,0.979167,Eighth,D5
3923,Left,1,53,120,1341.0,0.979167,Eighth,F3
3925,Left,1,57,120,1341.5,2.479167,TiedQuarter-Sixteenth,A3
3926,Left,1,62,120,1342.0,0.979167,Eighth,D4
3928,Right,0,69,120,1342.5,0.979167,Eighth,A4
3927,Left,1,65,120,1342.5,0.979167,Eighth,F4
3929,Right,0,81,127,1343.0,1.979167,Quarter,F5_A5
3931,Right,0,74,120,1343.5,0.979167,Eighth,D5
3932,Left,1,45,120,1344.0,0.979167,Eighth,A2
3933,Right,0,76,120,1344.0,0.979167,Eighth,E5
3934,Left,1,57,120,1344.5,2.479167,TiedQuarter-Sixteenth,A3
3935,Left,1,61,120,1345.0,0.979167,Eighth,C#4
3937,Right,0,69,120,1345.5,0.979167,Eighth,A4
3936,Left,1,64,120,1345.5,0.979167,Eighth,E4
3938,Right,0,79,120,1346.0,1.979167,Eighth,G5_A5
3940,Right,0,77,120,1346.5,0.979167,Eighth,F5
3941,Left,1,45,120,1347.0,0.979167,Eighth,A2
3942,Right,0,76,120,1347.0,0.979167,Eighth,E5
3943,Left,1,57,120,1347.5,2.479167,TiedQuarter-Sixteenth,A3
3944,Left,1,61,120,1348.0,0.979167,Eighth,C#4
3945,Right,0,69,120,1348.5,0.979167,Eighth,A4
3946,Left,1,64,120,1348.5,0.979167,Eighth,E4
3947,Right,0,81,127,1349.0,1.979167,Quarter,G5_A5
3949,Right,0,77,120,1349.5,0.979167,Eighth,F5
3950,Left,1,45,120,1350.0,0.979167,Eighth,A2
3951,Right,0,76,120,1350.0,0.979167,Eighth,E5
3952,Left,1,57,120,1350.5,2.479167,TiedQuarter-Sixteenth,A3
3953,Left,1,61,120,1351.0,0.979167,Eighth,C#4
3955,Left,1,64,120,1351.5,0.979167,Eighth,E4
3954,Right,0,69,120,1351.5,0.979167,Eighth,A4
3956,Right,0,81,127,1352.0,1.979167,Quarter,G5_A5
3958,Right,0,77,120,1352.5,0.979167,Eighth,F5
3960,Left,1,45,120,1353.0,0.979167,Eighth,A2
3959,Right,0,76,120,1353.0,0.979167,Eighth,E5
3961,Left,1,57,120,1353.5,2.479167,TiedQuarter-Sixteenth,A3
3962,Left,1,61,120,1354.0,0.979167,Eighth,C#4
3964,Left,1,64,120,1354.5,0.979167,Eighth,E4
3963,Right,0,69,120,1354.5,0.979167,Eighth,A4
3965,Right,0,81,127,1355.0,1.979167,Quarter,G5_A5
3967,Right,0,76,120,1355.5,0.979167,Eighth,E5
3968,Right,0,77,110,1356.0,0.979167,Eighth,F5
3969,Left,1,50,110,1356.0,0.979167,Eighth,D3
3970,Left,1,57,104,1356.5,2.479167,TiedQuarter-Sixteenth,A3
3971,Left,1,62,97,1357.0,0.979167,Eighth,D4
3972,Left,1,65,88,1357.5,0.979167,Eighth,F4
3973,Right,0,74,88,1357.5,0.979167,Eighth,D5
3974,Right,0,81,88,1358.0,0.979167,Eighth,A5
3975,Right,0,86,88,1358.5,0.979167,Eighth,D6
3976,Left,1,55,88,1359.0,2.979167,DottedQuarter,G3
3977,Right,0,82,86,1359.0,0.979167,Eighth,A#5
3978,Left,1,62,87,1359.5,2.479167,TiedQuarter-Sixteenth,D4
3979,Left,1,67,88,1360.0,1.979167,Quarter,G4
3980,Right,0,70,89,1360.5,0.979167,Eighth,A#4
3981,Right,0,74,91,1361.0,0.979167,Eighth,D5
3982,Right,0,82,92,1361.5,0.979167,Eighth,A#5
3984,Left,1,51,93,1362.0,2.979167,DottedQuarter,D#3
3983,Right,0,79,93,1362.0,0.979167,Eighth,G5
3985,Left,1,58,94,1362.5,2.479167,TiedQuarter-Sixteenth,A#3
3986,Left,1,63,95,1363.0,1.979167,Quarter,D#4
3987,Right,0,67,96,1363.5,0.979167,Eighth,G4
3988,Right,0,70,97,1364.0,0.979167,Eighth,A#4
3989,Right,0,79,98,1364.5,0.979167,Eighth,G5
3990,Left,1,49,100,1365.0,2.979167,DottedQuarter,C#3
3991,Right,0,76,100,1365.0,0.979167,Eighth,E5
3992,Left,1,57,99,1365.5,2.479167,TiedQuarter-Sixteenth,A3
3993,Left,1,61,97,1366.0,1.979167,Quarter,C#4
3994,Right,0,64,96,1366.5,0.979167,Eighth,E4
3995,Right,0,69,94,1367.0,0.979167,Eighth,A4
3996,Right,0,76,92,1367.5,0.979167,Eighth,E5
3997,Left,1,50,91,1368.0,2.979167,DottedQuarter,D3
3998,Right,0,77,91,1368.0,0.979167,Eighth,F5
3999,Left,1,57,89,1368.5,2.479167,TiedQuarter-Sixteenth,A3
4000,Left,1,62,87,1369.0,1.979167,Quarter,D4
4001,Right,0,65,86,1369.5,0.979167,Eighth,F4
4002,Right,0,69,84,1370.0,0.979167,Eighth,A4
4003,Right,0,77,82,1370.5,0.979167,Eighth,F5
4005,Right,0,74,80,1371.0,0.979167,Eighth,D5
4004,Left,1,45,80,1371.0,2.979167,DottedQuarter,A2
4006,Left,1,53,82,1371.5,2.479167,TiedQuarter-Sixteenth,F3
4007,Left,1,57,84,1372.0,1.979167,Quarter,A3
4008,Right,0,62,87,1372.5,0.979167,Eighth,D4
4009,Right,0,69,89,1373.0,0.979167,Eighth,A4
4010,Right,0,74,92,1373.5,0.979167,Eighth,D5
4012,Right,0,73,94,1374.0,0.979167,Eighth,C#5
4011,Left,1,45,94,1374.0,2.979167,DottedQuarter,A2
4013,Left,1,52,97,1374.5,2.479167,TiedQuarter-Sixteenth,E3
4014,Left,1,55,99,1375.0,1.979167,Quarter,G3
4016,Right,0,61,102,1375.5,0.979167,Eighth,C#4
4015,Left,1,57,102,1375.5,1.479167,DottedEighth,A3
4017,Right,0,69,104,1376.0,0.979167,Eighth,A4
4018,Right,0,73,107,1376.5,0.979167,Eighth,C#5
4019,Right,0,74,110,1377.0,0.979167,Eighth,D5
4020,Left,1,38,110,1377.0,0.979167,Eighth,D2
4021,Left,1,50,110,1377.5,0.979167,Eighth,D3
4022,Left,1,53,110,1378.0,0.979167,Eighth,F3
4023,Left,1,57,110,1378.5,0.979167,Eighth,A3
4025,Left,1,62,110,1379.0,0.979167,Eighth,D4
4024,Right,0,65,110,1379.0,0.979167,Eighth,F4
4026,Right,0,69,110,1379.5,0.979167,Eighth,A4
4027,Right,0,74,110,1380.0,0.979167,Eighth,D5
4028,Right,0,77,110,1380.5,0.979167,Eighth,F5
4029,Right,0,81,110,1381.0,0.979167,Eighth,A5
4030,Right,0,77,110,1381.5,0.979167,Eighth,F5
4031,Right,0,86,110,1382.0,0.979167,Eighth,D6
4032,Right,0,81,110,1382.5,0.979167,Eighth,A5
4033,Right,0,82,86,1383.0,0.979167,Eighth,A#5
4034,Left,1,55,86,1383.0,2.979167,DottedQuarter,G3
4035,Left,1,62,87,1383.5,2.479167,TiedQuarter-Sixteenth,D4
4036,Left,1,67,88,1384.0,1.979167,Quarter,G4
4037,Right,0,70,89,1384.5,0.979167,Eighth,A#4
4038,Right,0,74,91,1385.0,0.979167,Eighth,D5
4039,Right,0,82,92,1385.5,0.979167,Eighth,A#5
4041,Right,0,79,93,1386.0,0.979167,Eighth,G5
4040,Left,1,51,93,1386.0,2.979167,DottedQuarter,D#3
4042,Left,1,58,94,1386.5,2.479167,TiedQuarter-Sixteenth,A#3
4043,Left,1,63,95,1387.0,1.979167,Quarter,D#4
4044,Right,0,67,96,1387.5,0.979167,Eighth,G4
4045,Right,0,70,97,1388.0,0.979167,Eighth,A#4
4046,Right,0,79,98,1388.5,0.979167,Eighth,G5
4048,Left,1,49,100,1389.0,2.979167,DottedQuarter,C#3
4047,Right,0,76,100,1389.0,0.979167,Eighth,E5
4049,Left,1,57,99,1389.5,2.479167,TiedQuarter-Sixteenth,A3
4050,Left,1,61,97,1390.0,1.979167,Quarter,C#4
4051,Right,0,64,96,1390.5,0.979167,Eighth,E4
4052,Right,0,69,94,1391.0,0.979167,Eighth,A4
4053,Right,0,76,92,1391.5,0.979167,Eighth,E5
4054,Left,1,50,91,1392.0,2.979167,DottedQuarter,D3
4055,Right,0,77,91,1392.0,0.979167,Eighth,F5
4056,Left,1,57,89,1392.5,2.479167,TiedQuarter-Sixteenth,A3
4057,Left,1,62,87,1393.0,1.979167,Quarter,D4
4058,Right,0,65,86,1393.5,0.979167,Eighth,F4
4059,Right,0,69,84,1394.0,0.979167,Eighth,A4
4060,Right,0,77,82,1394.5,0.979167,Eighth,F5
4061,Left,1,45,80,1395.0,2.979167,DottedQuarter,A2
4062,Right,0,74,80,1395.0,0.979167,Eighth,D5
4063,Left,1,53,82,1395.5,2.479167,TiedQuarter-Sixteenth,F3
4064,Left,1,57,84,1396.0,1.979167,Quarter,A3
4065,Right,0,62,87,1396.5,0.979167,Eighth,D4
4066,Right,0,69,89,1397.0,0.979167,Eighth,A4
4067,Right,0,74,92,1397.5,0.979167,Eighth,D5
4068,Right,0,73,94,1398.0,0.979167,Eighth,C#5
4069,Left,1,45,94,1398.0,2.979167,DottedQuarter,A2
4070,Left,1,52,97,1398.5,2.479167,TiedQuarter-Sixteenth,E3
4071,Left,1,55,99,1399.0,1.979167,Quarter,G3
4072,Right,0,61,102,1399.5,0.979167,Eighth,C#4
4073,Left,1,57,102,1399.5,1.479167,DottedEighth,A3
4074,Right,0,69,104,1400.0,0.979167,Eighth,A4
4075,Right,0,73,107,1400.5,0.979167,Eighth,C#5
4077,Left,1,38,110,1401.0,0.979167,Eighth,D2
4076,Right,0,74,110,1401.0,0.979167,Eighth,D5
4078,Left,1,53,109,1401.5,0.979167,Eighth,F3
4079,Right,0,69,108,1401.75,0.479167,Sixteenth,A4
4081,Right,0,81,107,1402.0,1.979167,Quarter,A5
4080,Left,1,57,107,1402.0,0.979167,Eighth,A3
4082,Left,1,62,106,1402.5,0.979167,Eighth,D4
4083,Right,0,80,101,1404.0,0.729167,DottedSixteenth,G#5
4084,Right,0,79,99,1404.5,0.729167,DottedSixteenth,G5
4085,Right,0,78,97,1405.0,0.729167,DottedSixteenth,F#5
4086,Right,0,77,96,1405.5,0.729167,DottedSixteenth,F5
4087,Right,0,76,94,1406.0,0.729167,DottedSixteenth,E5
4088,Right,0,75,92,1406.5,0.729167,DottedSixteenth,D#5
4089,Right,0,74,80,1407.0,0.979167,Eighth,D5
4090,Left,1,45,80,1407.0,2.979167,DottedQuarter,A2
4091,Left,1,53,82,1407.5,2.479167,TiedQuarter-Sixteenth,F3
4092,Left,1,57,84,1408.0,1.979167,Quarter,A3
4093,Right,0,62,87,1408.5,0.979167,Eighth,D4
4094,Right,0,69,89,1409.0,0.979167,Eighth,A4
4095,Right,0,74,92,1409.5,0.979167,Eighth,D5
4096,Right,0,73,94,1410.0,0.979167,Eighth,C#5
4097,Left,1,45,94,1410.0,2.979167,DottedQuarter,A2
4098,Left,1,52,97,1410.5,2.479167,TiedQuarter-Sixteenth,E3
4099,Left,1,55,99,1411.0,1.979167,Quarter,G3
4101,Right,0,61,102,1411.5,0.979167,Eighth,C#4
4100,Left,1,57,102,1411.5,1.479167,DottedEighth,A3
4102,Right,0,69,104,1412.0,0.979167,Eighth,A4
4103,Right,0,73,107,1412.5,0.979167,Eighth,C#5
4104,Left,1,38,110,1413.0,0.979167,Eighth,D2
4105,Left,1,53,110,1413.5,0.979167,Eighth,F3
4106,Right,0,74,110,1413.75,0.229167,ThirtySecond,D5
4108,Right,0,86,110,1414.0,1.979167,Quarter,D6
4107,Left,1,57,110,1414.0,0.979167,Eighth,A3
4109,Left,1,62,110,1414.5,0.979167,Eighth,D4
4110,Right,0,85,110,1416.0,0.729167,DottedSixteenth,C#6
4111,Right,0,84,107,1416.5,0.729167,DottedSixteenth,C6
4112,Right,0,83,104,1417.0,0.729167,DottedSixteenth,B5
4113,Right,0,82,101,1417.5,0.729167,DottedSixteenth,A#5
4114,Right,0,81,97,1418.0,0.729167,DottedSixteenth,A5
4115,Right,0,80,94,1418.5,0.729167,DottedSixteenth,G#5
4117,Right,0,81,80,1419.0,0.979167,Eighth,A5
4116,Left,1,45,80,1419.0,2.979167,DottedQuarter,A2
4118,Left,1,53,80,1419.5,2.479167,TiedQuarter-Sixteenth,F3
4119,Left,1,57,83,1420.0,1.979167,Quarter,A3
4120,Right,0,62,87,1420.5,0.979167,Eighth,D4
4121,Right,0,69,90,1421.0,0.979167,Eighth,A4
4122,Right,0,74,94,1421.5,0.979167,Eighth,D5
4124,Right,0,73,98,1422.0,0.979167,Eighth,C#5
4123,Left,1,45,98,1422.0,2.979167,DottedQuarter,A2
4125,Left,1,52,101,1422.5,1.479167,DottedEighth,E3
4126,Left,1,55,105,1423.0,1.979167,Quarter,G3
4127,Left,1,57,109,1423.5,1.479167,DottedEighth,A3
4128,Right,0,61,109,1423.5,0.979167,Eighth,C#4
4129,Right,0,69,112,1424.0,0.979167,Eighth,A4
4130,Right,0,73,116,1424.5,0.979167,Eighth,C#5
4131,Left,1,50,119,1425.0,0.979167,Eighth,D3
4132,Right,0,74,119,1425.0,0.729167,DottedSixteenth,D5
4133,Right,0,74,120,1425.75,0.479167,Sixteenth,D5
4134,Left,1,77,120,1426.0,2.979167,DottedQuarter,F5
4135,Right,0,89,120,1426.0,2.979167,DottedQuarter,F6
4137,Left,1,76,120,1428.5,0.979167,Eighth,E5
4136,Right,0,88,120,1428.5,0.979167,Eighth,E6
4139,Right,0,87,120,1429.0,0.979167,Eighth,D#6
4138,Left,1,75,120,1429.0,0.979167,Eighth,D#5
4141,Right,0,86,120,1429.5,0.979167,Eighth,D6
4140,Left,1,74,120,1429.5,0.979167,Eighth,D5
4142,Right,0,85,120,1430.0,0.979167,Eighth,C#6
4143,Left,1,73,120,1430.0,0.979167,Eighth,C#5
4145,Left,1,72,120,1430.5,0.979167,Eighth,C5
4144,Right,0,84,120,1430.5,0.979167,Eighth,C6
4147,Right,0,83,120,1431.0,0.645833,Triplet,B5
4146,Left,1,71,120,1431.0,0.645833,Triplet,B4
4148,Left,1,70,120,1431.333333,0.645833,Triplet,A#4
4149,Right,0,82,120,1431.333333,0.645833,Triplet,A#5
4150,Left,1,69,120,1431.666667,0.645833,Triplet,A4
4151,Right,0,81,120,1431.666667,0.645833,Triplet,A5
4153,Right,0,80,120,1432.0,0.645833,Triplet,G#5
4152,Left,1,68,120,1432.0,0.645833,Triplet,G#4
4155,Right,0,79,120,1432.333333,0.645833,Triplet,G5
4154,Left,1,67,120,1432.333333,0.645833,Triplet,G4
4156,Left,1,66,120,1432.666667,0.645833,Triplet,F#4
4157,Right,0,78,120,1432.666667,0.645833,Triplet,F#5
4159,Right,0,77,120,1433.0,0.479167,Sixteenth,F5
4158,Left,1,65,120,1433.0,0.479167,Sixteenth,F4
4160,Right,0,76,120,1433.25,0.479167,Sixteenth,E5
4161,Left,1,64,120,1433.25,0.479167,Sixteenth,E4
4163,Right,0,75,120,1433.5,0.479167,Sixteenth,D#5
4162,Left,1,63,120,1433.5,0.479167,Sixteenth,D#4
4164,Left,1,62,120,1433.75,0.479167,Sixteenth,D4
4165,Right,0,74,120,1433.75,0.479167,Sixteenth,D5
4166,Right,0,81,120,1434.0,0.979167,Eighth,A5
4167,Left,1,69,120,1434.0,0.979167,Eighth,A4
4169,Right,0,69,120,1436.0,0.979167,Eighth,A4
4168,Left,1,57,120,1436.0,0.979167,Eighth,A3
4171,Right,0,74,80,1437.0,0.979167,Eighth,D5
4170,Left,1,50,80,1437.0,0.979167,Eighth,D3
4172,Left,1,57,80,1437.5,2.479167,TiedQuarter-Sixteenth,A3
4173,Left,1,62,80,1438.0,0.979167,Eighth,D4
4175,Left,1,65,80,1438.5,0.979167,Eighth,F4
4174,Right,0,69,80,1438.5,0.979167,Eighth,A4
4176,Right,0,77,80,1439.0,0.979167,Eighth,F5
4177,Right,0,74,80,1439.5,0.979167,Eighth,D5
4178,Left,1,45,80,1440.0,0.979167,Eighth,A2
4179,Right,0,73,80,1440.0,0.979167,Eighth,C#5
4180,Left,1,57,80,1440.5,2.479167,TiedQuarter-Sixteenth,A3
4181,Left,1,61,80,1441.0,0.979167,Eighth,C#4
4183,Left,1,64,80,1441.5,0.979167,Eighth,E4
4182,Right,0,69,80,1441.5,0.979167,Eighth,A4
4184,Right,0,76,80,1442.0,0.979167,Eighth,E5
4185,Right,0,73,80,1442.5,0.979167,Eighth,C#5
4186,Right,0,74,80,1443.0,0.979167,Eighth,D5
4187,Left,1,50,80,1443.0,0.979167,Eighth,D3
4188,Left,1,57,80,1443.5,2.479167,TiedQuarter-Sixteenth,A3
4189,Left,1,62,80,1444.0,0.979167,Eighth,D4
4191,Left,1,65,80,1444.5,0.979167,Eighth,F4
4190,Right,0,81,80,1444.5,0.979167,Eighth,A5
4192,Right,0,89,80,1445.0,0.979167,Eighth,F6
4193,Right,0,86,80,1445.5,0.979167,Eighth,D6
4195,Left,1,45,80,1446.0,0.979167,Eighth,A2
4194,Right,0,85,80,1446.0,0.979167,Eighth,C#6
4196,Left,1,57,80,1446.5,2.479167,TiedQuarter-Sixteenth,A3
4197,Left,1,61,80,1447.0,0.979167,Eighth,C#4
4199,Left,1,64,80,1447.5,0.979167,Eighth,E4
4198,Right,0,81,80,1447.5,0.979167,Eighth,A5
4200,Right,0,88,80,1448.0,0.979167,Eighth,E6
4201,Right,0,85,80,1448.5,0.979167,Eighth,C#6
4203,Left,1,50,80,1449.0,0.979167,Eighth,D3
4202,Right,0,86,80,1449.0,0.979167,Eighth,D6
4204,Left,1,57,80,1449.5,2.479167,TiedQuarter-Sixteenth,A3
4205,Left,1,62,80,1450.0,0.979167,Eighth,D4
4206,Left,1,65,80,1450.5,0.979167,Eighth,F4
4207,Right,0,69,80,1450.5,0.979167,Eighth,A4
4208,Right,0,77,80,1451.0,0.979167,Eighth,F5
4209,Right,0,74,80,1451.5,0.979167,Eighth,D5
4211,Left,1,45,80,1452.0,0.979167,Eighth,A2
4210,Right,0,73,80,1452.0,0.979167,Eighth,C#5
4212,Left,1,57,80,1452.5,2.479167,TiedQuarter-Sixteenth,A3
4213,Left,1,61,80,1453.0,0.979167,Eighth,C#4
4215,Left,1,64,80,1453.5,0.979167,Eighth,E4
4214,Right,0,69,80,1453.5,0.979167,Eighth,A4
4216,Right,0,76,80,1454.0,0.979167,Eighth,E5
4217,Right,0,73,80,1454.5,0.979167,Eighth,C#5
4218,Right,0,74,80,1455.0,0.979167,Eighth,D5
4219,Left,1,50,80,1455.0,0.979167,Eighth,D3
4220,Left,1,57,80,1455.5,2.479167,TiedQuarter-Sixteenth,A3
4221,Left,1,62,80,1456.0,0.979167,Eighth,D4
4223,Right,0,81,80,1456.5,0.979167,Eighth,A5
4222,Left,1,65,80,1456.5,0.979167,Eighth,F4
4224,Right,0,89,80,1457.0,0.979167,Eighth,F6
4225,Right,0,86,80,1457.5,0.979167,Eighth,D6
4227,Right,0,85,80,1458.0,0.979167,Eighth,C#6
4226,Left,1,45,80,1458.0,0.979167,Eighth,A2
4228,Left,1,57,80,1458.5,2.479167,TiedQuarter-Sixteenth,A3
4229,Left,1,61,80,1459.0,0.979167,Eighth,C#4
4230,Left,1,64,80,1459.5,0.979167,Eighth,E4
4231,Right,0,81,80,1459.5,0.979167,Eighth,A5
4232,Right,0,88,80,1460.0,0.979167,Eighth,E6
4233,Right,0,85,80,1460.5,0.979167,Eighth,C#6
4234,Left,1,50,80,1461.0,0.979167,Eighth,D3
4235,Left,1,57,80,1461.5,2.479167,TiedQuarter-Sixteenth,A3
4236,Left,1,62,80,1462.0,0.979167,Eighth,D4
4238,Right,0,89,80,1462.5,0.979167,Eighth,F6
4237,Left,1,65,80,1462.5,0.979167,Eighth,F4
4239,Right,0,81,81,1463.0,0.979167,Eighth,A5
4240,Right,0,86,83,1463.5,0.979167,Eighth,D6
4242,Left,1,50,85,1464.0,0.979167,Eighth,D3
4241,Right,0,77,85,1464.0,0.979167,Eighth,F5
4243,Left,1,57,87,1464.5,2.479167,TiedQuarter-Sixteenth,A3
4244,Left,1,62,88,1465.0,0.979167,Eighth,D4
4246,Left,1,65,90,1465.5,0.979167,Eighth,F4
4245,Right,0,86,90,1465.5,0.979167,Eighth,D6
4247,Right,0,77,92,1466.0,0.979167,Eighth,F5
4248,Right,0,81,94,1466.5,0.979167,Eighth,A5
4250,Left,1,50,95,1467.0,0.979167,Eighth,D3
4249,Right,0,74,95,1467.0,0.979167,Eighth,D5
4251,Left,1,57,97,1467.5,2.479167,TiedQuarter-Sixteenth,A3
4252,Left,1,62,99,1468.0,0.979167,Eighth,D4
4254,Right,0,81,101,1468.5,0.979167,Eighth,A5
4253,Left,1,65,101,1468.5,0.979167,Eighth,F4
4255,Right,0,74,102,1469.0,0.979167,Eighth,D5
4256,Right,0,77,104,1469.5,0.979167,Eighth,F5
4257,Left,1,50,106,1470.0,0.979167,Eighth,D3
4258,Right,0,69,107,1470.0,0.979167,Eighth,A4
4259,Left,1,57,108,1470.5,2.479167,TiedQuarter-Sixteenth,A3
4260,Left,1,62,109,1471.0,0.979167,Eighth,D4
4261,Right,0,77,107,1471.5,0.979167,Eighth,F5
4262,Left,1,65,105,1471.5,0.979167,Eighth,F4
4263,Right,0,69,103,1472.0,0.979167,Eighth,A4
4264,Right,0,74,100,1472.5,0.979167,Eighth,D5
4265,Right,0,65,80,1473.0,0.979167,Eighth,F4
4266,Left,1,50,80,1473.0,0.979167,Eighth,D3
4267,Right,0,74,80,1473.5,0.979167,Eighth,D5
4268,Right,0,69,79,1474.0,0.979167,Eighth,A4
4269,Right,0,65,78,1474.5,0.979167,Eighth,F4
4270,Right,0,62,77,1475.0,0.979167,Eighth,D4
4271,Right,0,57,76,1475.5,0.979167,Eighth,A3
4272,Right,0,53,76,1476.0,0.979167,Eighth,F3
4273,Right,0,62,75,1476.5,0.979167,Eighth,D4
4274,Right,0,57,74,1477.0,0.979167,Eighth,A3
4275,Right,0,53,73,1477.5,0.979167,Eighth,F3
4276,Right,0,50,72,1478.0,0.979167,Eighth,D3
4277,Left,1,45,72,1478.333333,0.645833,Triplet,A2
4278,Left,1,41,71,1478.666667,0.645833,Triplet,F2
4279,Left,1,38,71,1479.0,2.979167,DottedQuarter,D2
