,hand,channel,note,velocity,start_beat,duration,note_value,chord
1,Left,1,51,80,0.0,1.489583,DottedQuarter,G#2_D#3
0,Right,0,72,80,0.0,1.489583,DottedQuarter,G#4_C5
6,Left,1,48,80,1.5,0.489583,Eighth,D#3_C3
4,Right,0,63,80,1.5,0.489583,Eighth,G#4_D#4
8,Right,0,63,80,2.0,0.739583,DottedEighth,G#4_D#4
10,Left,1,51,80,2.0,0.739583,DottedEighth,D#3_C3
14,Left,1,48,80,2.75,0.239583,Sixteenth,D#3_C3
12,Right,0,63,80,2.75,0.239583,Sixteenth,G#4_D#4
16,Right,0,73,80,3.0,0.989583,Quarter,G#4_C#5
17,Left,1,46,80,3.0,0.989583,Quarter,D#3_A#2
20,Right,0,67,80,4.0,1.989583,Half,G4_A#4
22,Left,1,51,80,4.0,1.989583,Half,D#3_C#3
24,Left,1,48,80,6.0,1.489583,DottedQuarter,D#3_C3
25,Right,0,68,80,6.0,1.489583,DottedQuarter,G#4_D#5
28,Left,1,56,80,6.5,0.489583,Eighth,G#3
29,Left,1,60,80,7.0,0.489583,Eighth,C4
30,Right,0,73,80,7.5,0.489583,Eighth,G#4_C#5
31,Left,1,53,80,7.5,0.489583,Eighth,F3_A#3
35,Right,0,68,80,8.0,0.489583,Eighth,G#4_D#5
34,Left,1,51,80,8.0,0.489583,Eighth,D#3_C4
38,Left,1,61,80,8.5,0.489583,Eighth,C#4_C#3
40,Right,0,68,80,8.5,0.489583,Eighth,G#4_F5
43,Right,0,67,80,9.0,0.989583,Quarter,G4_D#5
42,Left,1,51,80,9.0,0.989583,Quarter,D#3_A#3
46,Right,0,74,80,9.75,0.239583,Sixteenth,D5
48,Right,0,73,80,10.0,0.489583,Sixteenth,G4_C#5
47,Left,1,51,80,10.0,0.489583,Eighth,D#3_A#3
51,Right,0,75,80,10.125,0.239583,Sixteenth,D#5
52,Right,0,73,80,10.25,0.239583,Sixteenth,C#5
53,Right,0,75,80,10.375,0.229167,Sixteenth,D#5
54,Right,0,73,80,10.5,0.239583,Sixteenth,C#5
55,Right,0,72,80,10.625,0.239583,Sixteenth,C5
56,Right,0,73,80,10.75,0.239583,Sixteenth,C#5
57,Right,0,75,80,10.875,0.239583,Sixteenth,D#5
58,Right,0,73,80,11.0,0.239583,Sixteenth,C#5
59,Right,0,75,80,11.125,0.239583,Sixteenth,D#5
60,Right,0,77,80,11.25,0.239583,Sixteenth,F5
61,Right,0,75,80,11.5,0.239583,Sixteenth,D#5
62,Right,0,73,80,11.75,0.239583,Sixteenth,C#5
63,Right,0,72,80,12.0,1.489583,DottedQuarter,C5
64,Left,1,56,80,12.0,0.239583,Sixteenth,G#3
65,Left,1,63,80,12.25,0.239583,Sixteenth,D#4_C4
67,Left,1,63,80,12.5,0.239583,Sixteenth,D#4_C4
69,Left,1,63,80,12.75,0.239583,Sixteenth,D#4_C4
71,Left,1,56,80,13.0,0.239583,Sixteenth,G#3
72,Left,1,60,80,13.25,0.239583,Sixteenth,D#4_C4
74,Right,0,75,80,13.5,0.989583,Quarter,D#5
75,Left,1,63,80,13.5,0.239583,Sixteenth,D#4_C4
77,Left,1,63,80,13.75,0.239583,Sixteenth,D#4_C4
79,Left,1,56,80,14.0,0.239583,Sixteenth,G#3
80,Left,1,60,80,14.25,0.239583,Sixteenth,D#4_C4
82,Right,0,80,80,14.5,0.489583,Eighth,G#5
83,Left,1,60,80,14.5,0.239583,Sixteenth,D#4_C4
85,Left,1,63,80,14.75,0.239583,Sixteenth,D#4_C4
87,Right,0,80,80,15.0,0.989583,Quarter,G#5
88,Left,1,58,80,15.0,0.239583,Sixteenth,A#3
89,Left,1,61,80,15.25,0.239583,Sixteenth,D#4_C#4
91,Left,1,63,80,15.5,0.239583,Sixteenth,D#4_C#4
93,Left,1,61,80,15.75,0.239583,Sixteenth,D#4_C#4
96,Right,0,79,80,16.0,1.989583,Half,G5
95,Left,1,58,80,16.0,0.239583,Sixteenth,A#3
97,Left,1,63,80,16.25,0.239583,Sixteenth,D#4_C#4
99,Left,1,61,80,16.5,0.239583,Sixteenth,D#4_C#4
101,Left,1,63,80,16.75,0.239583,Sixteenth,D#4_C#4
103,Left,1,58,80,17.0,0.239583,Sixteenth,A#3
104,Left,1,61,80,17.25,0.239583,Sixteenth,D#4_C#4
106,Left,1,61,80,17.5,0.239583,Sixteenth,D#4_C#4
108,Left,1,61,80,17.75,0.239583,Sixteenth,D#4_C#4
110,Right,0,82,80,18.0,1.489583,DottedQuarter,A#5
111,Left,1,61,80,18.0,0.239583,Sixteenth,C#4
112,Left,1,63,80,18.25,0.239583,Sixteenth,G4_D#4_A#4
115,Left,1,70,80,18.5,0.239583,Sixteenth,G4_D#4_A#4
118,Left,1,63,80,18.75,0.239583,Sixteenth,G4_D#4_A#4
121,Left,1,61,80,19.0,0.239583,Sixteenth,C#4
122,Left,1,70,80,19.25,0.239583,Sixteenth,G4_D#4_A#4
126,Right,0,79,80,19.5,0.989583,Quarter,G5
125,Left,1,63,80,19.5,0.239583,Sixteenth,G4_D#4_A#4
129,Left,1,70,80,19.75,0.239583,Sixteenth,G4_D#4_A#4
132,Left,1,61,80,20.0,0.239583,Sixteenth,C#4
133,Left,1,70,80,20.25,0.239583,Sixteenth,G4_D#4_A#4
137,Left,1,67,80,20.5,0.239583,Sixteenth,G4_D#4_A#4
136,Right,0,75,80,20.5,0.489583,Eighth,D#5
140,Left,1,63,80,20.75,0.239583,Sixteenth,G4_D#4_A#4
143,Left,1,60,80,21.0,0.239583,Sixteenth,C4
144,Right,0,75,80,21.0,0.989583,Quarter,D#5
145,Left,1,68,80,21.25,0.239583,Sixteenth,G#4_D#4
147,Left,1,63,80,21.5,0.239583,Sixteenth,G#4_D#4
149,Left,1,63,80,21.75,0.239583,Sixteenth,G#4_D#4
152,Left,1,60,80,22.0,0.239583,Sixteenth,C4
151,Right,0,80,80,22.0,1.989583,Half,G#5
153,Left,1,63,80,22.25,0.239583,Sixteenth,G#4_D#4
155,Left,1,68,80,22.5,0.239583,Sixteenth,G#4_D#4
157,Left,1,63,80,22.75,0.239583,Sixteenth,G#4_D#4
159,Left,1,60,80,23.0,0.239583,Sixteenth,C4
160,Left,1,68,80,23.25,0.239583,Sixteenth,G#4_D#4
162,Left,1,63,80,23.5,0.239583,Sixteenth,G#4_D#4
164,Left,1,63,80,23.75,0.239583,Sixteenth,G#4_D#4
166,Left,1,66,80,24.0,0.239583,Sixteenth,F#4
167,Right,0,80,80,24.0,1.489583,DottedQuarter,G#5
168,Left,1,68,81,24.25,0.239583,Sixteenth,G#4_D#5_C5
171,Left,1,72,82,24.5,0.239583,Sixteenth,G#4_D#5_C5
174,Left,1,75,83,24.75,0.239583,Sixteenth,G#4_D#5_C5
177,Left,1,66,85,25.0,0.239583,Sixteenth,F#4
178,Left,1,68,86,25.25,0.239583,Sixteenth,G#4_D#5_C5
181,Right,0,84,87,25.5,0.989583,Quarter,C6
182,Left,1,72,87,25.5,0.239583,Sixteenth,G#4_D#5_C5
185,Left,1,72,89,25.75,0.239583,Sixteenth,G#4_D#5_C5
188,Left,1,66,90,26.0,0.239583,Sixteenth,F#4
189,Left,1,68,91,26.25,0.239583,Sixteenth,G#4_D#5_C5
192,Left,1,72,93,26.5,0.239583,Sixteenth,G#4_D#5_C5
195,Right,0,87,93,26.5,0.489583,Eighth,D#6
196,Left,1,68,94,26.75,0.239583,Sixteenth,G#4_D#5_C5
200,Right,0,87,95,27.0,1.489583,DottedQuarter,D#6
199,Left,1,65,95,27.0,0.239583,Sixteenth,F4
201,Left,1,73,96,27.25,0.239583,Sixteenth,G#4_C#5
203,Left,1,73,98,27.5,0.239583,Sixteenth,G#4_C#5
205,Left,1,73,99,27.75,0.239583,Sixteenth,G#4_C#5
207,Left,1,65,100,28.0,0.239583,Sixteenth,F4
208,Left,1,68,102,28.25,0.239583,Sixteenth,G#4_C#5
210,Left,1,73,103,28.5,0.239583,Sixteenth,G#4_C#5
211,Right,0,85,103,28.5,0.489583,Eighth,C#6
213,Left,1,68,104,28.75,0.239583,Sixteenth,G#4_C#5
216,Left,1,63,106,29.0,0.239583,Sixteenth,D#4
215,Right,0,87,106,29.0,0.489583,Eighth,D#6
217,Left,1,68,107,29.25,0.239583,Sixteenth,G#4_C5
219,Right,0,89,108,29.5,0.489583,Eighth,F6
220,Left,1,61,108,29.5,0.239583,Sixteenth,C#4
221,Left,1,68,109,29.75,0.239583,Sixteenth,G#4_A#4
224,Left,1,63,110,30.0,0.239583,Sixteenth,D#4
223,Right,0,89,110,30.0,0.489583,Eighth,F6
225,Left,1,72,109,30.25,0.239583,Sixteenth,G#4_C5
229,Right,0,87,107,30.5,0.989583,Quarter,D#6
227,Left,1,72,107,30.5,0.239583,Sixteenth,G#4_C5
230,Left,1,68,105,30.75,0.239583,Sixteenth,G#4_C5
232,Left,1,63,103,31.0,0.239583,Sixteenth,D#4
233,Left,1,68,101,31.25,0.239583,Sixteenth,G#4_C5
237,Right,0,85,100,31.5,0.239583,Sixteenth,C#6
235,Left,1,68,100,31.5,0.239583,Sixteenth,G#4_C5
238,Right,0,84,98,31.75,0.239583,Sixteenth,C6
239,Left,1,72,98,31.75,0.239583,Sixteenth,G#4_C5
241,Left,1,63,96,32.0,0.239583,Sixteenth,D#4
242,Right,0,87,96,32.0,0.239583,Sixteenth,D#6
245,Right,0,85,94,32.25,0.239583,Sixteenth,C#6
243,Left,1,73,94,32.25,0.239583,Sixteenth,C#5_A#4
248,Right,0,79,92,32.5,0.489583,Eighth,G5
246,Left,1,70,92,32.5,0.239583,Sixteenth,C#5_A#4
249,Left,1,70,91,32.75,0.239583,Sixteenth,C#5_A#4
251,Left,1,72,80,33.0,0.489583,Eighth,G#4_C5
252,Right,0,80,80,33.0,0.114583,ThirtySecond,G#5
254,Right,0,87,80,33.125,0.114583,ThirtySecond,D#6
255,Right,0,84,80,33.25,0.114583,ThirtySecond,C6
256,Right,0,87,80,33.375,0.114583,ThirtySecond,D#6
257,Right,0,92,80,33.5,0.114583,ThirtySecond,G#6
258,Right,0,87,80,33.625,0.114583,ThirtySecond,D#6
259,Right,0,84,80,33.75,0.114583,ThirtySecond,C6
260,Right,0,87,80,33.875,0.114583,ThirtySecond,D#6
261,Right,0,80,80,34.0,0.114583,ThirtySecond,G#5
262,Right,0,75,80,34.125,0.114583,ThirtySecond,D#5
263,Right,0,72,80,34.25,0.114583,ThirtySecond,C5
264,Right,0,75,80,34.375,0.114583,ThirtySecond,D#5
265,Right,0,68,80,34.5,0.114583,ThirtySecond,G#4
266,Right,0,63,80,34.625,0.114583,ThirtySecond,D#4
267,Right,0,60,80,34.75,0.114583,ThirtySecond,C4
268,Right,0,63,80,34.875,0.114583,ThirtySecond,D#4
269,Right,0,56,80,35.0,0.114583,ThirtySecond,G#3
270,Right,0,51,80,35.125,0.114583,ThirtySecond,D#3
271,Right,0,48,80,35.25,0.114583,ThirtySecond,C3
272,Right,0,51,80,35.375,0.114583,ThirtySecond,D#3
273,Right,0,44,80,35.5,0.114583,ThirtySecond,G#2
274,Right,0,51,80,35.625,0.114583,ThirtySecond,D#3
275,Right,0,48,80,35.75,0.114583,ThirtySecond,C3
276,Right,0,51,80,35.875,0.114583,ThirtySecond,D#3
277,Left,1,46,80,36.0,0.489583,Eighth,D#2_A#2_A#1
280,Right,0,43,80,36.0,0.114583,ThirtySecond,G2
281,Right,0,51,80,36.125,0.114583,ThirtySecond,D#3
282,Right,0,49,80,36.25,0.114583,ThirtySecond,C#3
283,Right,0,51,80,36.375,0.114583,ThirtySecond,D#3
284,Right,0,55,80,36.5,0.114583,ThirtySecond,G3
285,Right,0,51,80,36.625,0.114583,ThirtySecond,D#3
286,Right,0,49,80,36.75,0.114583,ThirtySecond,C#3
287,Right,0,51,80,36.875,0.114583,ThirtySecond,D#3
289,Left,1,39,80,37.0,0.489583,Eighth,D#2_A#2_A#1
288,Right,0,55,80,37.0,0.114583,ThirtySecond,G3
292,Right,0,63,80,37.125,0.114583,ThirtySecond,D#4
293,Right,0,61,80,37.25,0.114583,ThirtySecond,C#4
294,Right,0,63,80,37.375,0.114583,ThirtySecond,D#4
295,Right,0,67,80,37.5,0.114583,ThirtySecond,G4
296,Right,0,63,80,37.625,0.114583,ThirtySecond,D#4
297,Right,0,61,80,37.75,0.114583,ThirtySecond,C#4
298,Right,0,63,80,37.875,0.114583,ThirtySecond,D#4
302,Right,0,67,80,38.0,0.114583,ThirtySecond,G4
299,Left,1,34,80,38.0,0.489583,Eighth,D#2_A#2_A#1
303,Right,0,75,80,38.125,0.114583,ThirtySecond,D#5
304,Right,0,73,80,38.25,0.114583,ThirtySecond,C#5
305,Right,0,75,80,38.375,0.114583,ThirtySecond,D#5
306,Right,0,79,80,38.5,0.114583,ThirtySecond,G5
307,Right,0,75,80,38.625,0.114583,ThirtySecond,D#5
308,Right,0,73,80,38.75,0.114583,ThirtySecond,C#5
309,Right,0,75,80,38.875,0.114583,ThirtySecond,D#5
310,Left,1,36,80,39.0,0.489583,Eighth,D#2_C3_C2
311,Right,0,80,80,39.0,0.114583,ThirtySecond,G#5
314,Right,0,87,80,39.125,0.114583,ThirtySecond,D#6
315,Right,0,84,80,39.25,0.114583,ThirtySecond,C6
316,Right,0,87,80,39.375,0.114583,ThirtySecond,D#6
317,Right,0,92,80,39.5,0.114583,ThirtySecond,G#6
318,Right,0,87,80,39.625,0.114583,ThirtySecond,D#6
319,Right,0,84,80,39.75,0.114583,ThirtySecond,C6
320,Right,0,87,80,39.875,0.114583,ThirtySecond,D#6
321,Right,0,80,80,40.0,0.114583,ThirtySecond,G#5
322,Right,0,75,80,40.125,0.114583,ThirtySecond,D#5
323,Right,0,72,80,40.25,0.114583,ThirtySecond,C5
324,Right,0,75,80,40.375,0.114583,ThirtySecond,D#5
325,Right,0,68,80,40.5,0.114583,ThirtySecond,G#4
326,Right,0,63,80,40.625,0.114583,ThirtySecond,D#4
327,Right,0,60,80,40.75,0.114583,ThirtySecond,C4
328,Right,0,63,80,40.875,0.114583,ThirtySecond,D#4
329,Right,0,56,80,41.0,0.114583,ThirtySecond,G#3
330,Right,0,51,80,41.125,0.114583,ThirtySecond,D#3
331,Right,0,48,80,41.25,0.114583,ThirtySecond,C3
332,Right,0,51,80,41.375,0.114583,ThirtySecond,D#3
333,Right,0,44,80,41.5,0.114583,ThirtySecond,G#2
334,Right,0,51,80,41.625,0.114583,ThirtySecond,D#3
335,Right,0,48,80,41.75,0.114583,ThirtySecond,C3
336,Right,0,51,80,41.875,0.114583,ThirtySecond,D#3
337,Right,0,46,80,42.0,0.114583,ThirtySecond,A#2
338,Left,1,43,80,42.0,0.489583,Eighth,G2_G1_D#2
341,Right,0,51,80,42.125,0.114583,ThirtySecond,D#3
342,Right,0,49,80,42.25,0.114583,ThirtySecond,C#3
343,Right,0,51,80,42.375,0.114583,ThirtySecond,D#3
344,Right,0,55,81,42.5,0.114583,ThirtySecond,G3
345,Right,0,51,81,42.625,0.114583,ThirtySecond,D#3
346,Right,0,49,81,42.75,0.114583,ThirtySecond,C#3
347,Right,0,51,82,42.875,0.114583,ThirtySecond,D#3
349,Left,1,39,82,43.0,0.489583,Eighth,G2_G1_D#2
348,Right,0,58,82,43.0,0.114583,ThirtySecond,A#3
352,Right,0,63,82,43.125,0.114583,ThirtySecond,D#4
353,Right,0,61,83,43.25,0.114583,ThirtySecond,C#4
354,Right,0,63,83,43.375,0.114583,ThirtySecond,D#4
355,Right,0,67,83,43.5,0.114583,ThirtySecond,G4
356,Right,0,63,84,43.625,0.114583,ThirtySecond,D#4
357,Right,0,61,84,43.75,0.114583,ThirtySecond,C#4
358,Right,0,63,84,43.875,0.114583,ThirtySecond,D#4
359,Left,1,43,85,44.0,0.489583,Eighth,G2_G1_D#2
360,Right,0,70,85,44.0,0.114583,ThirtySecond,A#4
363,Right,0,75,85,44.125,0.114583,ThirtySecond,D#5
364,Right,0,73,85,44.25,0.114583,ThirtySecond,C#5
365,Right,0,75,86,44.375,0.114583,ThirtySecond,D#5
366,Right,0,79,86,44.5,0.114583,ThirtySecond,G5
367,Right,0,75,86,44.625,0.114583,ThirtySecond,D#5
368,Right,0,73,87,44.75,0.114583,ThirtySecond,C#5
369,Right,0,75,87,44.875,0.114583,ThirtySecond,D#5
370,Left,1,44,87,45.0,0.489583,Eighth,G#2_G#1_D#2
372,Right,0,72,87,45.0,0.114583,ThirtySecond,C5
374,Right,0,80,88,45.125,0.114583,ThirtySecond,G#5
375,Right,0,75,88,45.25,0.114583,ThirtySecond,D#5
376,Right,0,80,88,45.375,0.114583,ThirtySecond,G#5
377,Right,0,84,89,45.5,0.114583,ThirtySecond,C6
378,Right,0,80,89,45.625,0.114583,ThirtySecond,G#5
379,Right,0,75,89,45.75,0.114583,ThirtySecond,D#5
380,Right,0,80,90,45.875,0.114583,ThirtySecond,G#5
381,Right,0,72,90,46.0,0.114583,ThirtySecond,C5
382,Right,0,68,90,46.125,0.114583,ThirtySecond,G#4
383,Right,0,63,91,46.25,0.114583,ThirtySecond,D#4
384,Right,0,68,91,46.375,0.114583,ThirtySecond,G#4
385,Right,0,60,91,46.5,0.114583,ThirtySecond,C4
386,Right,0,56,92,46.625,0.114583,ThirtySecond,G#3
387,Right,0,51,92,46.75,0.114583,ThirtySecond,D#3
388,Right,0,56,92,46.875,0.114583,ThirtySecond,G#3
389,Right,0,48,93,47.0,0.114583,ThirtySecond,C3
390,Right,0,56,93,47.125,0.114583,ThirtySecond,G#3
391,Right,0,51,93,47.25,0.114583,ThirtySecond,D#3
392,Right,0,56,94,47.375,0.114583,ThirtySecond,G#3
393,Right,0,60,94,47.5,0.114583,ThirtySecond,C4
394,Right,0,56,94,47.625,0.114583,ThirtySecond,G#3
395,Right,0,51,94,47.75,0.114583,ThirtySecond,D#3
396,Right,0,56,95,47.875,0.114583,ThirtySecond,G#3
398,Left,1,29,95,48.0,0.489583,Eighth,F2_F1
397,Right,0,50,95,48.0,0.114583,ThirtySecond,D3
400,Right,0,58,95,48.125,0.114583,ThirtySecond,A#3
401,Right,0,56,96,48.25,0.114583,ThirtySecond,G#3
402,Right,0,58,96,48.375,0.114583,ThirtySecond,A#3
403,Right,0,62,96,48.5,0.114583,ThirtySecond,D4
404,Right,0,58,97,48.625,0.114583,ThirtySecond,A#3
405,Right,0,56,97,48.75,0.114583,ThirtySecond,G#3
406,Right,0,58,97,48.875,0.114583,ThirtySecond,A#3
407,Right,0,62,98,49.0,0.114583,ThirtySecond,D4
408,Left,1,41,98,49.0,0.489583,Eighth,F3_F2_A#2
411,Right,0,70,98,49.125,0.114583,ThirtySecond,A#4
412,Right,0,68,98,49.25,0.114583,ThirtySecond,G#4
413,Right,0,70,99,49.375,0.114583,ThirtySecond,A#4
414,Right,0,74,99,49.5,0.114583,ThirtySecond,D5
415,Right,0,70,99,49.625,0.114583,ThirtySecond,A#4
416,Right,0,68,100,49.75,0.114583,ThirtySecond,G#4
417,Right,0,70,100,49.875,0.114583,ThirtySecond,A#4
418,Right,0,75,100,50.0,0.114583,ThirtySecond,D#5
419,Left,1,51,100,50.0,0.489583,Eighth,D#3_D#2_A#2
422,Right,0,82,101,50.125,0.114583,ThirtySecond,A#5
423,Right,0,79,101,50.25,0.114583,ThirtySecond,G5
424,Right,0,82,101,50.375,0.114583,ThirtySecond,A#5
425,Right,0,87,102,50.5,0.114583,ThirtySecond,D#6
426,Right,0,82,102,50.625,0.114583,ThirtySecond,A#5
427,Right,0,79,102,50.75,0.114583,ThirtySecond,G5
428,Right,0,82,103,50.875,0.114583,ThirtySecond,A#5
430,Left,1,50,103,51.0,0.489583,Eighth,D3_D2_A#2
429,Right,0,77,103,51.0,0.114583,ThirtySecond,F5
433,Right,0,82,103,51.125,0.114583,ThirtySecond,A#5
434,Right,0,80,104,51.25,0.114583,ThirtySecond,G#5
435,Right,0,82,104,51.375,0.114583,ThirtySecond,A#5
436,Right,0,89,104,51.5,0.114583,ThirtySecond,F6
437,Right,0,82,105,51.625,0.114583,ThirtySecond,A#5
438,Right,0,80,105,51.75,0.114583,ThirtySecond,G#5
439,Right,0,82,105,51.875,0.114583,ThirtySecond,A#5
441,Left,1,62,106,52.0,0.489583,Eighth,D4_D3_A#3
440,Right,0,77,106,52.0,0.114583,ThirtySecond,F5
444,Right,0,82,106,52.125,0.114583,ThirtySecond,A#5
445,Right,0,80,106,52.25,0.114583,ThirtySecond,G#5
446,Right,0,82,107,52.375,0.114583,ThirtySecond,A#5
447,Right,0,89,107,52.5,0.114583,ThirtySecond,F6
448,Right,0,82,107,52.625,0.114583,ThirtySecond,A#5
449,Right,0,80,108,52.75,0.114583,ThirtySecond,G#5
450,Right,0,82,108,52.875,0.114583,ThirtySecond,A#5
454,Right,0,79,108,53.0,0.114583,ThirtySecond,G5
451,Left,1,49,108,53.0,0.489583,Eighth,D#3_C#4_C#3
455,Right,0,87,109,53.125,0.114583,ThirtySecond,D#6
456,Right,0,82,109,53.25,0.114583,ThirtySecond,A#5
457,Right,0,87,109,53.375,0.114583,ThirtySecond,D#6
458,Right,0,91,109,53.5,0.114583,ThirtySecond,G6
459,Right,0,87,110,53.625,0.114583,ThirtySecond,D#6
460,Right,0,82,110,53.75,0.114583,ThirtySecond,A#5
461,Right,0,87,110,53.875,0.114583,ThirtySecond,D#6
462,Right,0,80,110,54.0,0.114583,ThirtySecond,G#5
463,Left,1,51,110,54.0,0.489583,Eighth,D#3_C4_C3
466,Right,0,92,110,54.125,0.114583,ThirtySecond,G#6
467,Right,0,87,110,54.25,0.114583,ThirtySecond,D#6
468,Right,0,92,110,54.375,0.114583,ThirtySecond,G#6
469,Right,0,81,110,54.5,0.114583,ThirtySecond,A5
470,Left,1,59,110,54.5,0.489583,Eighth,D#3_B3_B2
473,Right,0,93,110,54.625,0.114583,ThirtySecond,A6
474,Right,0,87,110,54.75,0.114583,ThirtySecond,D#6
475,Right,0,93,110,54.875,0.114583,ThirtySecond,A6
479,Right,0,81,110,55.0,0.114583,ThirtySecond,A5
476,Left,1,59,110,55.0,0.489583,Eighth,D#4_B4_B3
480,Right,0,93,110,55.125,0.114583,ThirtySecond,A6
481,Right,0,87,110,55.25,0.114583,ThirtySecond,D#6
482,Right,0,93,110,55.375,0.114583,ThirtySecond,A6
486,Right,0,82,110,55.5,0.114583,ThirtySecond,A#5
483,Left,1,63,110,55.5,0.489583,Eighth,D#4_A#4_A#3
487,Right,0,94,110,55.625,0.114583,ThirtySecond,A#6
488,Right,0,87,110,55.75,0.114583,ThirtySecond,D#6
489,Right,0,94,110,55.875,0.114583,ThirtySecond,A#6
493,Right,0,82,110,56.0,0.114583,ThirtySecond,A#5
490,Left,1,68,110,56.0,0.489583,Eighth,G#4_G#3_D#4
494,Right,0,94,110,56.125,0.114583,ThirtySecond,A#6
495,Right,0,87,110,56.25,0.114583,ThirtySecond,D#6
496,Right,0,94,110,56.375,0.114583,ThirtySecond,A#6
497,Left,1,67,110,56.5,0.489583,Eighth,G4_G3_D#4
499,Right,0,83,110,56.5,0.114583,ThirtySecond,B5
501,Right,0,95,110,56.625,0.114583,ThirtySecond,B6
502,Right,0,87,110,56.75,0.114583,ThirtySecond,D#6
503,Right,0,95,110,56.875,0.114583,ThirtySecond,B6
504,Right,0,96,80,57.0,0.739583,DottedEighth,C7
505,Left,1,80,80,57.25,0.239583,Sixteenth,G#5
506,Left,1,68,80,57.5,0.739583,DottedEighth,G#4
507,Right,0,84,80,57.75,0.239583,Sixteenth,C6
508,Right,0,94,80,58.0,0.739583,DottedEighth,A#6
509,Left,1,79,80,58.25,0.239583,Sixteenth,G5
510,Left,1,67,80,58.5,0.739583,DottedEighth,G4
511,Right,0,82,80,58.75,0.239583,Sixteenth,A#5
512,Right,0,92,80,59.0,0.739583,DottedEighth,G#6
513,Left,1,77,80,59.25,0.239583,Sixteenth,F5
514,Left,1,65,80,59.5,0.739583,DottedEighth,F4
515,Right,0,93,80,59.75,0.239583,Sixteenth,A6
516,Right,0,94,80,60.0,0.739583,DottedEighth,A#6
517,Left,1,79,80,60.25,0.239583,Sixteenth,G5
518,Left,1,67,80,60.5,0.739583,DottedEighth,G4
519,Right,0,82,80,60.75,0.239583,Sixteenth,A#5
520,Right,0,92,80,61.0,0.739583,DottedEighth,G#6
521,Left,1,77,80,61.25,0.239583,Sixteenth,F5
522,Left,1,65,80,61.5,0.489583,Eighth,F4
523,Right,0,80,80,61.75,0.239583,Sixteenth,G#5
524,Right,0,91,80,62.0,0.239583,Sixteenth,G6
525,Left,1,75,80,62.0,0.239583,Sixteenth,D#5
527,Right,0,79,80,62.25,0.239583,Sixteenth,G5
526,Left,1,63,80,62.25,0.239583,Sixteenth,D#4
529,Right,0,80,80,62.5,0.239583,Sixteenth,G#5
528,Left,1,65,80,62.5,0.239583,Sixteenth,F4
531,Left,1,67,80,62.75,0.239583,Sixteenth,G4
530,Right,0,82,80,62.75,0.239583,Sixteenth,A#5
532,Right,0,86,80,63.0,0.239583,Sixteenth,D6
534,Left,1,70,80,63.25,0.239583,Sixteenth,A#4
533,Right,0,84,80,63.25,0.489583,Eighth,C6
535,Left,1,68,80,63.5,0.239583,Sixteenth,G#4
536,Left,1,56,80,63.75,0.239583,Sixteenth,G#3
537,Right,0,72,80,63.75,0.239583,Sixteenth,C5
538,Right,0,84,80,64.0,0.239583,Sixteenth,C6
539,Left,1,68,80,64.25,0.239583,Sixteenth,G#4
540,Right,0,82,80,64.25,0.489583,Eighth,A#5
541,Left,1,67,80,64.5,0.239583,Sixteenth,G4
542,Left,1,55,80,64.75,0.239583,Sixteenth,G3
543,Right,0,70,80,64.75,0.239583,Sixteenth,A#4
544,Right,0,82,80,65.0,0.239583,Sixteenth,A#5
546,Right,0,80,80,65.25,0.489583,Eighth,G#5
545,Left,1,67,80,65.25,0.239583,Sixteenth,G4
547,Left,1,65,80,65.5,0.239583,Sixteenth,F4
549,Right,0,81,80,65.75,0.239583,Sixteenth,A5
548,Left,1,66,80,65.75,0.239583,Sixteenth,F#4
550,Right,0,84,80,66.0,0.239583,Sixteenth,C6
552,Right,0,82,80,66.25,0.489583,Eighth,A#5
551,Left,1,68,80,66.25,0.239583,Sixteenth,G#4
553,Left,1,67,80,66.5,0.239583,Sixteenth,G4
555,Left,1,55,80,66.75,0.239583,Sixteenth,G3
554,Right,0,70,80,66.75,0.239583,Sixteenth,A#4
556,Right,0,82,80,67.0,0.239583,Sixteenth,A#5
558,Right,0,80,80,67.25,0.489583,Eighth,G#5
557,Left,1,67,80,67.25,0.239583,Sixteenth,G4
559,Left,1,65,80,67.5,0.239583,Sixteenth,F4
561,Left,1,53,80,67.75,0.239583,Sixteenth,F3
560,Right,0,68,80,67.75,0.239583,Sixteenth,G#4
562,Left,1,55,80,68.0,0.239583,Sixteenth,G3_D#4
564,Right,0,79,80,68.0,0.489583,Sixteenth,G5_A#4
567,Left,1,56,82,68.25,0.239583,Sixteenth,G#3_D4
566,Right,0,77,82,68.25,0.239583,Sixteenth,F5
569,Right,0,70,84,68.5,0.489583,Eighth,G5_A#4
571,Left,1,55,84,68.5,0.239583,Sixteenth,G3_D#4
573,Right,0,77,86,68.75,0.239583,Sixteenth,F5
574,Left,1,56,86,68.75,0.239583,Sixteenth,G#3_D4
576,Right,0,70,88,69.0,0.989583,Quarter,G5_A#4
578,Left,1,63,88,69.0,0.989583,Quarter,G3_D#4
582,Right,0,77,96,70.0,0.989583,Quarter,F5_A#4
580,Left,1,62,96,70.0,0.989583,Quarter,G#3_D4
584,Left,1,63,104,71.0,0.239583,Sixteenth,G3_D#4
585,Right,0,82,104,71.0,0.239583,Sixteenth,A#5_A#4
589,Left,1,53,106,71.25,0.239583,Sixteenth,F3_C4
588,Right,0,75,106,71.25,0.239583,Sixteenth,D#5_A5
593,Right,0,82,108,71.5,0.239583,Sixteenth,A#5_A#4
592,Left,1,63,108,71.5,0.239583,Sixteenth,G3_D#4
596,Right,0,75,110,71.75,0.239583,Sixteenth,D#5_A5
598,Left,1,53,110,71.75,0.239583,Sixteenth,F3_C4
603,Right,0,75,110,72.0,0.989583,Quarter,D#5_A#5_A#4
600,Left,1,55,110,72.0,0.989583,Quarter,G3_D#4_A#3
607,Right,0,68,80,73.0,0.114583,ThirtySecond,G#4
606,Left,1,53,80,73.0,0.239583,Sixteenth,F3
609,Left,1,55,80,73.125,0.239583,Sixteenth,G3
608,Right,0,75,80,73.125,0.114583,ThirtySecond,D#5
611,Left,1,53,80,73.25,0.239583,Sixteenth,F3
610,Right,0,84,80,73.25,1.239583,TiedQuarter-Sixteenth,C6
612,Left,1,55,81,73.375,0.239583,Sixteenth,G3
613,Left,1,53,81,73.5,0.239583,Sixteenth,F3
614,Left,1,55,82,73.625,0.239583,Sixteenth,G3
615,Left,1,53,82,73.75,0.239583,Sixteenth,F3
616,Left,1,55,83,73.875,0.239583,Sixteenth,G3
617,Left,1,51,83,74.0,0.239583,Sixteenth,D#3
618,Left,1,53,84,74.125,0.239583,Sixteenth,F3
619,Left,1,51,84,74.25,0.239583,Sixteenth,D#3
620,Left,1,53,85,74.375,0.239583,Sixteenth,F3
622,Left,1,51,85,74.5,0.239583,Sixteenth,D#3
621,Right,0,68,85,74.5,0.114583,ThirtySecond,G#4
623,Left,1,53,86,74.625,0.239583,Sixteenth,F3
624,Right,0,77,86,74.625,0.114583,ThirtySecond,F5
625,Right,0,84,86,74.75,0.239583,Sixteenth,C6
626,Left,1,51,86,74.75,0.239583,Sixteenth,D#3
627,Left,1,53,87,74.875,0.114583,ThirtySecond,F3
628,Left,1,50,87,75.0,0.15625,TripletSixteenth,D3
629,Left,1,51,88,75.083333,0.15625,TripletSixteenth,D#3
630,Left,1,50,88,75.166667,0.15625,TripletSixteenth,D3
631,Left,1,51,88,75.25,0.15625,TripletSixteenth,D#3
632,Left,1,50,89,75.333333,0.15625,TripletSixteenth,D3
633,Left,1,51,89,75.416667,0.15625,TripletSixteenth,D#3
634,Right,0,70,89,75.5,0.114583,ThirtySecond,A#4
635,Left,1,50,89,75.5,0.15625,TripletSixteenth,D3
636,Left,1,51,89,75.583333,0.15625,TripletSixteenth,D#3
637,Right,0,77,90,75.625,0.114583,ThirtySecond,F5
638,Left,1,50,90,75.666667,0.15625,TripletSixteenth,D3
640,Left,1,51,90,75.75,0.15625,TripletSixteenth,D#3
639,Right,0,86,90,75.75,0.239583,Sixteenth,D6
641,Left,1,50,90,75.833333,0.15625,TripletSixteenth,D3
642,Left,1,51,91,75.916667,0.15625,TripletSixteenth,D#3
643,Left,1,48,91,76.0,0.15625,TripletSixteenth,C3
644,Left,1,50,91,76.083333,0.15625,TripletSixteenth,D3
645,Left,1,48,92,76.166667,0.15625,TripletSixteenth,C3
646,Left,1,50,92,76.25,0.15625,TripletSixteenth,D3
647,Left,1,48,92,76.333333,0.15625,TripletSixteenth,C3
648,Left,1,50,93,76.416667,0.15625,TripletSixteenth,D3
649,Left,1,48,93,76.5,0.15625,TripletSixteenth,C3
650,Right,0,72,93,76.5,0.114583,ThirtySecond,C5
651,Left,1,50,93,76.583333,0.15625,TripletSixteenth,D3
652,Right,0,77,94,76.625,0.114583,ThirtySecond,F5
653,Left,1,48,94,76.666667,0.15625,TripletSixteenth,C3
654,Left,1,50,94,76.75,0.15625,TripletSixteenth,D3
655,Right,0,87,94,76.75,0.239583,Sixteenth,D#6
656,Left,1,48,94,76.833333,0.15625,TripletSixteenth,C3
657,Left,1,50,95,76.916667,0.15625,TripletSixteenth,D3
658,Left,1,46,95,77.0,0.15625,TripletSixteenth,A#2
659,Left,1,48,95,77.083333,0.15625,TripletSixteenth,C3
660,Left,1,46,96,77.166667,0.15625,TripletSixteenth,A#2
661,Left,1,48,96,77.25,0.15625,TripletSixteenth,C3
662,Left,1,46,96,77.333333,0.15625,TripletSixteenth,A#2
663,Left,1,48,97,77.416667,0.15625,TripletSixteenth,C3
665,Left,1,46,97,77.5,0.15625,TripletSixteenth,A#2
664,Right,0,73,97,77.5,0.114583,ThirtySecond,C#5
666,Left,1,48,97,77.583333,0.15625,TripletSixteenth,C3
667,Right,0,77,97,77.625,0.114583,ThirtySecond,F5
668,Left,1,46,98,77.666667,0.15625,TripletSixteenth,A#2
670,Right,0,89,98,77.75,0.739583,DottedEighth,F6
669,Left,1,48,98,77.75,0.15625,TripletSixteenth,C3
671,Left,1,46,98,77.833333,0.15625,TripletSixteenth,A#2
672,Left,1,48,99,77.916667,0.15625,TripletSixteenth,C3
673,Left,1,44,99,78.0,0.15625,TripletSixteenth,G#2
674,Left,1,46,99,78.083333,0.15625,TripletSixteenth,A#2
675,Left,1,44,99,78.166667,0.15625,TripletSixteenth,G#2
676,Left,1,46,100,78.25,0.15625,TripletSixteenth,A#2
677,Left,1,44,100,78.333333,0.15625,TripletSixteenth,G#2
678,Left,1,46,100,78.416667,0.15625,TripletSixteenth,A#2
679,Left,1,44,101,78.5,0.15625,TripletSixteenth,G#2
680,Right,0,91,111,78.5,0.489583,Eighth,G6
681,Left,1,46,101,78.583333,0.15625,TripletSixteenth,A#2
682,Left,1,44,101,78.666667,0.15625,TripletSixteenth,G#2
683,Left,1,46,102,78.75,0.15625,TripletSixteenth,A#2
684,Left,1,44,102,78.833333,0.15625,TripletSixteenth,G#2
685,Left,1,46,102,78.916667,0.15625,TripletSixteenth,A#2
687,Right,0,92,113,79.0,0.489583,Eighth,G#6
686,Left,1,44,103,79.0,0.15625,TripletSixteenth,G#2
688,Left,1,46,103,79.083333,0.15625,TripletSixteenth,A#2
689,Left,1,44,103,79.166667,0.15625,TripletSixteenth,G#2
690,Left,1,46,104,79.25,0.15625,TripletSixteenth,A#2
691,Left,1,44,104,79.333333,0.15625,TripletSixteenth,G#2
692,Left,1,46,104,79.416667,0.15625,TripletSixteenth,A#2
693,Left,1,44,105,79.5,0.15625,TripletSixteenth,G#2
694,Right,0,93,115,79.5,0.489583,Eighth,A6
695,Left,1,46,105,79.583333,0.15625,TripletSixteenth,A#2
696,Left,1,44,105,79.666667,0.15625,TripletSixteenth,G#2
697,Left,1,46,106,79.75,0.15625,TripletSixteenth,A#2
698,Left,1,44,106,79.833333,0.15625,TripletSixteenth,G#2
699,Left,1,46,106,79.916667,0.15625,TripletSixteenth,A#2
700,Left,1,44,107,80.0,0.15625,TripletSixteenth,G#2
701,Right,0,94,117,80.0,1.489583,DottedQuarter,A#6
702,Left,1,46,107,80.083333,0.15625,TripletSixteenth,A#2
703,Left,1,44,107,80.166667,0.15625,TripletSixteenth,G#2
704,Left,1,43,108,80.25,0.114583,ThirtySecond,G2
705,Left,1,44,108,80.375,0.114583,ThirtySecond,G#2
706,Left,1,46,109,80.5,0.114583,ThirtySecond,A#2
707,Left,1,44,109,80.625,0.114583,ThirtySecond,G#2
708,Left,1,43,109,80.75,0.114583,ThirtySecond,G2
709,Left,1,41,110,80.875,0.114583,ThirtySecond,F2
710,Left,1,39,100,81.0,0.239583,Sixteenth,D#2
711,Left,1,51,100,81.25,0.239583,Sixteenth,G3_D#3
714,Left,1,55,100,81.5,0.239583,Sixteenth,G3_D#3
713,Right,0,70,110,81.5,0.489583,Eighth,A#4
716,Left,1,55,100,81.75,0.239583,Sixteenth,G3_D3_D#3
719,Left,1,50,100,82.0,0.239583,Sixteenth,G3_D3_D#3
722,Left,1,48,100,82.25,0.239583,Sixteenth,G3_D#3_C3
725,Left,1,48,100,82.5,0.239583,Sixteenth,G3_D#3_C3
728,Left,1,46,100,82.75,0.239583,Sixteenth,G3_D#3_A#2
731,Right,0,67,110,82.75,0.239583,Sixteenth,G4
732,Left,1,46,100,83.0,0.239583,Sixteenth,G3_D#3_A#2
735,Right,0,68,110,83.0,0.239583,Sixteenth,G#4
736,Right,0,70,110,83.25,0.239583,Sixteenth,A#4
737,Left,1,55,100,83.25,0.239583,Sixteenth,G3_G#2_D#3
741,Left,1,55,100,83.5,0.239583,Sixteenth,G3_G2_D#3
740,Right,0,72,110,83.5,0.239583,Sixteenth,C5
744,Left,1,55,100,83.75,0.239583,Sixteenth,G3_G2_D#3
745,Right,0,74,110,83.75,0.239583,Sixteenth,D5
748,Left,1,43,100,84.0,0.239583,Sixteenth,G2
749,Right,0,75,110,84.0,0.489583,Eighth,D#5
750,Left,1,51,100,84.25,0.239583,Sixteenth,G3_D#3
753,Left,1,51,100,84.5,0.239583,Sixteenth,G3_D#3
752,Right,0,70,110,84.5,0.489583,Eighth,A#4
755,Left,1,55,100,84.75,0.239583,Sixteenth,G3_D3_D#3
758,Left,1,55,100,85.0,0.239583,Sixteenth,G3_D3_D#3
761,Left,1,48,100,85.25,0.239583,Sixteenth,G3_D#3_C3
764,Left,1,51,100,85.5,0.239583,Sixteenth,G3_D#3_C3
767,Right,0,74,110,85.75,0.239583,Sixteenth,D5
768,Left,1,55,100,85.75,0.239583,Sixteenth,G3_D#3_A#2
773,Right,0,75,110,86.0,0.239583,Sixteenth,D#5
771,Left,1,51,100,86.0,0.239583,Sixteenth,G3_D#3_A#2
778,Right,0,77,110,86.25,0.239583,Sixteenth,F5
775,Left,1,51,100,86.25,0.239583,Sixteenth,G3_G#2_D#3
779,Right,0,79,110,86.5,0.239583,Sixteenth,G5
780,Left,1,55,100,86.5,0.239583,Sixteenth,G3_G2_D#3
784,Left,1,55,100,86.75,0.239583,Sixteenth,G3_G2_D#3
783,Right,0,80,110,86.75,0.239583,Sixteenth,G#5
788,Left,1,43,100,87.0,0.239583,Sixteenth,G2
787,Right,0,82,110,87.0,0.489583,Eighth,A#5
789,Left,1,55,100,87.25,0.239583,Sixteenth,G3_D#3
793,Right,0,75,110,87.5,0.489583,Eighth,D#5
791,Left,1,51,100,87.5,0.239583,Sixteenth,G3_D#3
794,Left,1,55,100,87.75,0.239583,Sixteenth,G3_D3_D#3
797,Left,1,55,100,88.0,0.239583,Sixteenth,G3_D3_D#3
800,Left,1,51,100,88.25,0.239583,Sixteenth,G3_D#3_C3
803,Left,1,48,100,88.5,0.239583,Sixteenth,G3_D#3_C3
806,Right,0,87,120,88.75,0.239583,Sixteenth,D#6
807,Left,1,55,100,88.75,0.239583,Sixteenth,G3_D#3_A#2
810,Right,0,89,120,89.0,0.239583,Sixteenth,F6
811,Left,1,55,100,89.0,0.239583,Sixteenth,G3_D#3_A#2
817,Right,0,91,120,89.25,0.239583,Sixteenth,G6
814,Left,1,55,100,89.25,0.239583,Sixteenth,G3_D#3_A#2
818,Left,1,43,100,89.5,0.239583,Sixteenth,G3_G2_D#3
821,Right,0,92,120,89.5,0.239583,Sixteenth,G#6
825,Right,0,94,120,89.75,0.239583,Sixteenth,A#6
822,Left,1,43,100,89.75,0.239583,Sixteenth,G3_G2_D#3
827,Left,1,44,100,90.0,0.989583,Quarter,G#2_F3_D#3
826,Right,0,96,120,90.0,0.989583,Quarter,C7
830,Right,0,65,80,91.75,0.239583,Sixteenth,F4
831,Left,1,51,80,91.75,0.239583,Sixteenth,F3_D#3_A2
836,Left,1,53,80,92.0,0.489583,Eighth,F3_D3_A#2
834,Right,0,65,80,92.0,0.489583,Eighth,F4_A#4
839,Left,1,46,80,92.75,0.239583,Sixteenth,D3_A#2
841,Right,0,65,80,92.75,0.239583,Sixteenth,F4_A#4
843,Left,1,48,80,93.0,0.989583,Quarter,D#3_C3
845,Right,0,65,80,93.0,0.989583,Quarter,F4_A4
847,Right,0,65,80,94.0,0.989583,Quarter,G#4_F4
849,Left,1,59,80,94.0,0.989583,Quarter,D3_B3
853,Right,0,67,80,95.0,0.239583,Sixteenth,G4
851,Left,1,51,80,95.0,0.239583,Sixteenth,D#3_A#3
854,Left,1,67,80,95.25,0.239583,Sixteenth,G4_D#4
856,Right,0,87,80,95.25,0.239583,Sixteenth,D#6
859,Right,0,86,80,95.5,0.239583,Sixteenth,D6
857,Left,1,68,80,95.5,0.239583,Sixteenth,G#4_F4
861,Left,1,70,80,95.75,0.239583,Sixteenth,G4_A#4
860,Right,0,85,80,95.75,0.239583,Sixteenth,C#6
863,Left,1,72,80,96.0,0.489583,Eighth,G#4_C5
864,Right,0,84,80,96.0,0.114583,ThirtySecond,C6
866,Right,0,82,80,96.125,0.114583,ThirtySecond,A#5
867,Right,0,80,80,96.25,0.114583,ThirtySecond,G#5
868,Right,0,79,80,96.375,0.114583,ThirtySecond,G5
869,Right,0,78,80,96.5,0.114583,ThirtySecond,F#5
870,Right,0,77,80,96.625,0.114583,ThirtySecond,F5
871,Right,0,76,80,96.75,0.114583,ThirtySecond,E5
872,Right,0,75,80,96.875,0.114583,ThirtySecond,D#5
873,Right,0,74,80,97.0,0.114583,ThirtySecond,D5
874,Right,0,73,80,97.125,0.114583,ThirtySecond,C#5
875,Right,0,72,80,97.25,0.114583,ThirtySecond,C5
876,Right,0,71,80,97.375,0.114583,ThirtySecond,B4
877,Right,0,70,80,97.5,0.114583,ThirtySecond,A#4
878,Right,0,68,80,97.625,0.114583,ThirtySecond,G#4
879,Left,1,51,80,97.75,0.239583,Sixteenth,F3_D#3_A2
881,Right,0,67,80,97.75,0.114583,ThirtySecond,G4
883,Right,0,65,80,97.875,0.114583,ThirtySecond,F4
884,Right,0,70,80,98.0,0.489583,Eighth,D4_A#4
886,Left,1,53,80,98.0,0.489583,Eighth,F3_A#2
889,Left,1,46,80,98.75,0.239583,Sixteenth,G#3_A#2
888,Right,0,62,80,98.75,0.239583,Sixteenth,D4_A#4
892,Right,0,70,80,99.0,2.239583,Eighth,D#4_A#4
894,Left,1,55,80,99.0,1.239583,Eighth,G3_D#3
896,Right,0,72,80,99.5,0.239583,Sixteenth,C5
897,Left,1,56,80,99.5,0.239583,Sixteenth,G#3
899,Left,1,55,80,99.75,0.239583,Sixteenth,G3
898,Right,0,70,80,99.75,0.239583,Sixteenth,A#4
901,Right,0,68,80,100.0,0.239583,Sixteenth,G#4
900,Left,1,53,80,100.0,0.239583,Sixteenth,F3
903,Right,0,67,80,100.25,0.239583,Sixteenth,G4
902,Left,1,51,80,100.25,0.239583,Sixteenth,D#3
904,Right,0,65,80,100.5,0.239583,Sixteenth,F4
905,Left,1,50,80,100.5,0.239583,Sixteenth,D3
906,Right,0,67,80,100.75,0.239583,Sixteenth,G4
907,Left,1,51,80,100.75,0.239583,Sixteenth,D#3
908,Left,1,46,80,101.0,0.989583,Quarter,F3_A#2
910,Right,0,68,80,101.0,0.989583,Quarter,G#4
911,Right,0,60,80,101.25,0.239583,Sixteenth,C4
912,Right,0,63,80,101.5,0.239583,Sixteenth,D#4
913,Right,0,62,80,101.75,0.239583,Sixteenth,D4
914,Left,1,39,80,102.0,1.239583,TiedQuarter-Sixteenth,D#3_D#2
916,Right,0,67,80,102.0,0.239583,Sixteenth,G4_D#4
918,Right,0,58,80,102.25,0.239583,Sixteenth,A#3
919,Left,1,43,80,102.25,0.239583,Sixteenth,G2
921,Left,1,44,80,102.5,0.239583,Sixteenth,G#2
920,Right,0,60,80,102.5,0.239583,Sixteenth,C4
923,Left,1,43,80,102.75,0.239583,Sixteenth,G2
922,Right,0,58,80,102.75,0.239583,Sixteenth,A#3
924,Right,0,56,80,103.0,0.239583,Sixteenth,G#3
925,Left,1,41,80,103.0,0.239583,Sixteenth,F2
926,Right,0,55,80,103.25,0.239583,Sixteenth,G3
927,Left,1,39,80,103.25,0.239583,Sixteenth,D#2
928,Left,1,38,80,103.5,0.239583,Sixteenth,D2
929,Right,0,53,80,103.5,0.239583,Sixteenth,F3
931,Right,0,55,80,103.75,0.239583,Sixteenth,G3
930,Left,1,39,80,103.75,0.239583,Sixteenth,D#2
933,Left,1,34,80,104.0,0.989583,Quarter,F2_A#1
932,Right,0,63,80,104.0,0.989583,Sixteenth,G#3_D#4
936,Right,0,60,80,104.25,0.239583,Sixteenth,C4
937,Right,0,63,80,104.5,0.239583,Sixteenth,D#4
938,Right,0,62,80,104.75,0.239583,Sixteenth,D4
939,Left,1,43,80,105.0,0.989583,Quarter,G2_D#2
941,Right,0,55,80,105.0,0.989583,Quarter,G3_F4
943,Right,0,62,80,105.25,0.239583,Sixteenth,D4
944,Right,0,65,80,105.5,0.239583,Sixteenth,F4
945,Right,0,63,80,105.75,0.239583,Sixteenth,D#4
946,Right,0,68,80,106.0,0.239583,Sixteenth,G#4
947,Left,1,39,80,106.0,2.989583,DottedHalf,G2_D#3_D#2_A#2
951,Right,0,65,80,106.25,0.239583,Sixteenth,F4
952,Right,0,68,80,106.5,0.239583,Sixteenth,G#4
953,Right,0,67,80,106.75,0.239583,Sixteenth,G4
954,Right,0,72,80,107.0,0.239583,Sixteenth,C5
955,Right,0,69,80,107.25,0.239583,Sixteenth,A4
956,Right,0,72,80,107.5,0.239583,Sixteenth,C5
957,Right,0,70,80,107.75,0.239583,Sixteenth,A#4
958,Right,0,77,80,108.0,0.239583,Sixteenth,F5
959,Right,0,74,80,108.25,0.239583,Sixteenth,D5
960,Right,0,77,80,108.5,0.239583,Sixteenth,F5
961,Right,0,75,80,108.75,0.239583,Sixteenth,D#5
965,Right,0,80,80,109.0,0.239583,Sixteenth,G#5
962,Left,1,51,80,109.0,0.989583,Quarter,G3_D#4_D#3_A#3
967,Right,0,77,80,109.25,0.239583,Sixteenth,F5
968,Right,0,80,80,109.5,0.239583,Sixteenth,G#5
969,Right,0,79,80,109.75,0.239583,Sixteenth,G5
970,Right,0,84,80,110.0,0.239583,Sixteenth,C6
971,Left,1,51,80,110.0,0.989583,Quarter,G3_D#4_D#3_A#3
975,Right,0,81,80,110.25,0.239583,Sixteenth,A5
976,Right,0,84,80,110.5,0.239583,Sixteenth,C6
977,Right,0,82,80,110.75,0.239583,Sixteenth,A#5
978,Right,0,87,80,111.0,2.989583,DottedHalf,D#6
979,Left,1,63,80,111.0,0.989583,Quarter,G3_D#4_D#3_A#3
983,Left,1,39,80,112.0,1.989583,Half,D#2
984,Left,1,51,80,113.0,0.989583,Quarter,D#3
985,Right,0,75,80,113.0,0.989583,Quarter,D#5
987,Right,0,85,80,114.0,2.989583,DottedHalf,C#6
986,Left,1,37,80,114.0,2.989583,DottedHalf,C#2
988,Left,1,49,80,115.0,1.989583,Half,C#3
989,Right,0,73,80,116.0,0.989583,Quarter,C#5
992,Right,0,72,80,117.0,1.489583,DottedQuarter,C6_C5
990,Left,1,48,80,117.0,0.239583,Sixteenth,C3_C2
994,Left,1,53,80,117.25,0.239583,Sixteenth,G#3_F3
996,Left,1,56,81,117.5,0.239583,Sixteenth,G#3_F3
998,Left,1,56,81,117.75,0.239583,Sixteenth,G#3_F3
1000,Left,1,48,82,118.0,0.239583,Sixteenth,C3
1001,Left,1,56,83,118.25,0.239583,Sixteenth,G#3_F3
1003,Left,1,56,83,118.5,0.239583,Sixteenth,G#3_F3
1005,Right,0,80,83,118.5,0.489583,Eighth,G#5
1006,Left,1,56,84,118.75,0.239583,Sixteenth,G#3_F3
1009,Right,0,80,85,119.0,0.739583,DottedEighth,G#5
1008,Left,1,48,85,119.0,0.239583,Sixteenth,C3
1010,Left,1,53,85,119.25,0.239583,Sixteenth,G#3_F3
1012,Left,1,53,86,119.5,0.239583,Sixteenth,G#3_F3
1014,Right,0,80,87,119.75,0.239583,Sixteenth,G#5
1015,Left,1,53,87,119.75,0.239583,Sixteenth,G#3_F3
1017,Right,0,82,87,120.0,0.989583,Quarter,G5_E5_C#6_A#5
1021,Left,1,48,87,120.0,0.239583,Sixteenth,C3
1022,Left,1,55,88,120.25,0.239583,Sixteenth,G3_A#3
1024,Left,1,58,89,120.5,0.239583,Sixteenth,G3_A#3
1026,Left,1,55,89,120.75,0.239583,Sixteenth,G3_A#3
1031,Left,1,48,90,121.0,0.239583,Sixteenth,C3
1028,Right,0,76,90,121.0,1.989583,Half,G5_E5_A#5
1032,Left,1,55,91,121.25,0.239583,Sixteenth,G3_A#3
1034,Left,1,58,91,121.5,0.239583,Sixteenth,G3_A#3
1036,Left,1,58,92,121.75,0.239583,Sixteenth,G3_A#3
1038,Left,1,48,93,122.0,0.239583,Sixteenth,C3
1039,Left,1,58,93,122.25,0.239583,Sixteenth,G3_A#3
1041,Left,1,58,94,122.5,0.239583,Sixteenth,G3_A#3
1043,Left,1,58,95,122.75,0.239583,Sixteenth,G3_A#3
1048,Left,1,48,95,123.0,0.239583,Sixteenth,C3
1045,Right,0,82,95,123.0,1.489583,DottedQuarter,G5_E5_A#5
1049,Left,1,52,96,123.25,0.239583,Sixteenth,G3_E3
1051,Left,1,52,97,123.5,0.239583,Sixteenth,G3_E3
1053,Left,1,55,97,123.75,0.239583,Sixteenth,G3_E3
1055,Left,1,48,98,124.0,0.239583,Sixteenth,C3
1056,Left,1,52,99,124.25,0.239583,Sixteenth,G3_E3
1058,Left,1,55,99,124.5,0.239583,Sixteenth,G3_E3
1060,Right,0,79,99,124.5,0.489583,Eighth,G5
1061,Left,1,52,100,124.75,0.239583,Sixteenth,G3_E3
1064,Left,1,48,101,125.0,0.239583,Sixteenth,C3
1063,Right,0,79,101,125.0,0.739583,DottedEighth,G5
1065,Left,1,52,101,125.25,0.239583,Sixteenth,G3_E3
1067,Left,1,55,102,125.5,0.239583,Sixteenth,G3_E3
1069,Left,1,55,103,125.75,0.239583,Sixteenth,G3_E3
1071,Right,0,79,103,125.75,0.239583,Sixteenth,G5
1073,Right,0,84,103,126.0,0.989583,Quarter,G#5_F5_C6_C5
1072,Left,1,48,103,126.0,0.239583,Sixteenth,C3
1077,Left,1,56,104,126.25,0.239583,Sixteenth,G#3_F3
1079,Left,1,56,105,126.5,0.239583,Sixteenth,G#3_F3
1081,Left,1,56,105,126.75,0.239583,Sixteenth,G#3_F3
1086,Left,1,48,106,127.0,0.239583,Sixteenth,C3
1083,Right,0,80,106,127.0,1.989583,Half,G#5_F5_C5
1087,Left,1,56,107,127.25,0.239583,Sixteenth,G#3_F3
1089,Left,1,56,107,127.5,0.239583,Sixteenth,G#3_F3
1091,Left,1,56,108,127.75,0.239583,Sixteenth,G#3_F3
1093,Left,1,48,108,128.0,0.239583,Sixteenth,C3
1094,Left,1,56,109,128.25,0.239583,Sixteenth,G#3_F3
1096,Left,1,53,110,128.5,0.239583,Sixteenth,G#3_F3
1098,Left,1,56,110,128.75,0.239583,Sixteenth,G#3_F3
1103,Left,1,41,80,129.0,0.239583,Sixteenth,F2
1100,Right,0,77,80,129.0,2.989583,DottedQuarter,G#5_F5_C5
1104,Left,1,48,80,129.25,0.239583,Sixteenth,C3
1105,Left,1,50,80,129.5,0.239583,Sixteenth,D3
1106,Left,1,52,80,129.75,0.239583,Sixteenth,E3
1107,Left,1,53,80,130.0,0.239583,Sixteenth,F3
1108,Left,1,55,80,130.25,0.239583,Sixteenth,G3
1110,Left,1,56,80,130.5,0.239583,Sixteenth,G#3
1109,Right,0,77,80,130.5,0.489583,Eighth,F5
1111,Left,1,58,80,130.75,0.239583,Sixteenth,A#3
1112,Left,1,60,80,131.0,0.239583,Sixteenth,C4
1113,Right,0,77,80,131.0,0.739583,DottedEighth,F5
1114,Left,1,56,80,131.25,0.239583,Sixteenth,G#3
1115,Left,1,55,80,131.5,0.239583,Sixteenth,G3
1117,Right,0,77,80,131.75,0.239583,Sixteenth,F5
1116,Left,1,53,80,131.75,0.239583,Sixteenth,F3
1119,Right,0,82,80,132.0,0.989583,Quarter,G5_E5_C5_A#5
1118,Left,1,48,80,132.0,0.239583,Sixteenth,C3
1123,Left,1,35,80,132.25,0.239583,Sixteenth,B1
1124,Left,1,36,80,132.5,0.239583,Sixteenth,C2
1125,Left,1,35,80,132.75,0.239583,Sixteenth,B1
1127,Left,1,36,80,133.0,0.239583,Sixteenth,C2
1126,Right,0,76,80,133.0,1.989583,Half,G5_E5_C5
1130,Left,1,40,80,133.25,0.239583,Sixteenth,E2
1131,Left,1,43,80,133.5,0.239583,Sixteenth,G2
1132,Left,1,47,80,133.75,0.239583,Sixteenth,B2
1133,Left,1,48,80,134.0,0.239583,Sixteenth,C3
1134,Left,1,46,80,134.25,0.239583,Sixteenth,A#2
1135,Left,1,44,80,134.5,0.239583,Sixteenth,G#2
1136,Left,1,43,80,134.75,0.239583,Sixteenth,G2
1139,Left,1,41,80,135.0,0.239583,Sixteenth,F2
1137,Right,0,80,80,135.0,1.489583,DottedQuarter,G#5_F5
1140,Left,1,48,80,135.25,0.239583,Sixteenth,C3
1141,Left,1,50,80,135.5,0.239583,Sixteenth,D3
1142,Left,1,52,80,135.75,0.239583,Sixteenth,E3
1143,Left,1,53,80,136.0,0.239583,Sixteenth,F3
1144,Left,1,55,80,136.25,0.239583,Sixteenth,G3
1145,Right,0,77,80,136.5,0.489583,Eighth,F5
1146,Left,1,56,80,136.5,0.239583,Sixteenth,G#3
1147,Left,1,58,80,136.75,0.239583,Sixteenth,A#3
1148,Right,0,72,80,137.0,0.989583,Quarter,G#4_F5_C5
1151,Left,1,60,80,137.0,0.239583,Sixteenth,C4
1152,Left,1,56,80,137.25,0.239583,Sixteenth,G#3
1153,Left,1,55,80,137.5,0.239583,Sixteenth,G3
1155,Right,0,77,80,137.75,0.239583,Sixteenth,F5
1154,Left,1,53,80,137.75,0.239583,Sixteenth,F3
1156,Left,1,51,80,138.0,0.239583,Sixteenth,D#3
1157,Right,0,78,80,138.0,0.989583,Quarter,F#5_F#4_C#5
1160,Left,1,39,80,138.25,0.239583,Sixteenth,D#2
1161,Left,1,41,80,138.5,0.239583,Sixteenth,F2
1162,Left,1,42,80,138.75,0.239583,Sixteenth,F#2
1166,Left,1,44,80,139.0,0.239583,Sixteenth,G#2
1163,Right,0,66,80,139.0,1.989583,Half,F#4_D#5_C5
1167,Left,1,45,80,139.25,0.239583,Sixteenth,A2
1168,Left,1,46,80,139.5,0.239583,Sixteenth,A#2
1169,Left,1,44,80,139.75,0.239583,Sixteenth,G#2
1171,Left,1,42,80,140.0,0.239583,Sixteenth,F#2
1170,Right,0,68,80,140.0,0.489583,Eighth,G#4
1172,Left,1,41,80,140.25,0.239583,Sixteenth,F2
1173,Left,1,39,80,140.5,0.239583,Sixteenth,D#2
1174,Right,0,66,80,140.5,0.489583,Eighth,F#4
1175,Left,1,44,80,140.75,0.239583,Sixteenth,G#2
1179,Left,1,37,80,141.0,0.239583,Sixteenth,C#2
1176,Right,0,77,80,141.0,1.989583,DottedQuarter,F5_F4_C#5
1180,Left,1,49,80,141.25,0.239583,Sixteenth,C#3
1181,Left,1,51,80,141.5,0.239583,Sixteenth,D#3
1182,Left,1,53,80,141.75,0.239583,Sixteenth,F3
1183,Left,1,54,80,142.0,0.239583,Sixteenth,F#3
1184,Left,1,56,80,142.25,0.239583,Sixteenth,G#3
1186,Left,1,58,80,142.5,0.239583,Sixteenth,A#3
1185,Right,0,73,80,142.5,0.489583,Eighth,C#5
1187,Left,1,56,80,142.75,0.239583,Sixteenth,G#3
1188,Right,0,73,80,143.0,0.989583,Quarter,G#4_F4_C#5
1190,Left,1,54,80,143.0,0.239583,Sixteenth,F#3
1192,Left,1,53,80,143.25,0.239583,Sixteenth,F3
1193,Left,1,51,80,143.5,0.239583,Sixteenth,D#3
1194,Left,1,49,80,143.75,0.239583,Sixteenth,C#3
1195,Right,0,73,80,143.75,0.239583,Sixteenth,C#5
1197,Right,0,78,80,144.0,0.989583,Quarter,F#5_F#4_D#5_C5
1196,Left,1,44,80,144.0,0.239583,Sixteenth,G#2
1201,Left,1,31,80,144.25,0.239583,Sixteenth,G1
1202,Left,1,32,80,144.5,0.239583,Sixteenth,G#1
1203,Left,1,31,80,144.75,0.239583,Sixteenth,G1
1204,Right,0,75,80,145.0,1.989583,Half,F#4_D#5_C5
1205,Left,1,32,80,145.0,0.239583,Sixteenth,G#1
1208,Left,1,34,80,145.25,0.239583,Sixteenth,A#1
1209,Left,1,36,80,145.5,0.239583,Sixteenth,C2
1210,Left,1,37,80,145.75,0.239583,Sixteenth,C#2
1211,Left,1,39,80,146.0,0.239583,Sixteenth,D#2
1212,Left,1,41,80,146.25,0.239583,Sixteenth,F2
1213,Left,1,42,80,146.5,0.239583,Sixteenth,F#2
1214,Left,1,44,80,146.75,0.239583,Sixteenth,G#2
1216,Right,0,72,80,147.0,1.489583,Quarter,F5_F4_C5
1215,Left,1,37,80,147.0,0.239583,Sixteenth,C#2
1219,Left,1,45,80,147.25,0.239583,Sixteenth,A2
1220,Left,1,46,80,147.5,0.239583,Sixteenth,A#2
1221,Left,1,45,80,147.75,0.239583,Sixteenth,A2
1223,Right,0,65,80,148.0,1.989583,Half,F4_A#4
1222,Left,1,46,80,148.0,0.239583,Sixteenth,A#2
1225,Left,1,48,80,148.25,0.239583,Sixteenth,C3
1227,Right,0,73,80,148.5,0.489583,Eighth,C#5
1226,Left,1,49,80,148.5,0.239583,Sixteenth,C#3
1228,Left,1,51,80,148.75,0.239583,Sixteenth,D#3
1229,Right,0,73,80,149.0,0.739583,DottedEighth,C#5
1230,Left,1,53,80,149.0,0.239583,Sixteenth,F3
1231,Left,1,49,80,149.25,0.239583,Sixteenth,C#3
1232,Left,1,48,80,149.5,0.239583,Sixteenth,C3
1234,Right,0,73,80,149.75,0.239583,Sixteenth,C#5
1233,Left,1,46,80,149.75,0.239583,Sixteenth,A#2
1238,Left,1,48,80,150.0,0.239583,Sixteenth,C3
1235,Right,0,75,80,150.0,2.489583,Half,F4_D#5_A#4
1239,Left,1,36,80,150.25,0.239583,Sixteenth,C2
1240,Left,1,37,80,150.5,0.239583,Sixteenth,C#2
1241,Left,1,39,80,150.75,0.239583,Sixteenth,D#2
1242,Left,1,41,80,151.0,0.239583,Sixteenth,F2
1243,Right,0,72,80,151.0,1.989583,Half,C5
1244,Left,1,42,80,151.25,0.239583,Sixteenth,F#2
1245,Left,1,41,80,151.5,0.239583,Sixteenth,F2
1246,Left,1,40,80,151.75,0.239583,Sixteenth,E2
1248,Right,0,69,80,152.0,0.489583,Eighth,A4
1247,Left,1,41,80,152.0,0.239583,Sixteenth,F2
1249,Left,1,29,80,152.25,0.239583,Sixteenth,F1
1251,Left,1,31,80,152.5,0.239583,Sixteenth,G1
1250,Right,0,65,80,152.5,0.989583,Quarter,F4
1252,Left,1,33,80,152.75,0.239583,Sixteenth,A1
1254,Right,0,73,80,153.0,1.489583,DottedQuarter,C#5
1253,Left,1,34,80,153.0,0.239583,Sixteenth,A#1
1255,Left,1,41,80,153.25,0.239583,Sixteenth,F2
1256,Left,1,43,80,153.5,0.239583,Sixteenth,G2
1257,Right,0,65,80,153.5,2.489583,Half,F4
1258,Left,1,45,80,153.75,0.239583,Sixteenth,A2
1259,Left,1,46,80,154.0,0.239583,Sixteenth,A#2
1260,Left,1,48,80,154.25,0.239583,Sixteenth,C3
1262,Left,1,49,80,154.5,0.239583,Sixteenth,C#3
1261,Right,0,70,80,154.5,0.489583,Eighth,A#4
1263,Left,1,51,80,154.75,0.239583,Sixteenth,D#3
1264,Right,0,70,80,155.0,0.739583,DottedEighth,A#4
1265,Left,1,53,80,155.0,0.239583,Sixteenth,F3
1266,Left,1,49,80,155.25,0.239583,Sixteenth,C#3
1267,Left,1,48,80,155.5,0.239583,Sixteenth,C3
1269,Right,0,70,80,155.75,0.239583,Sixteenth,A#4
1268,Left,1,46,80,155.75,0.239583,Sixteenth,A#2
1270,Right,0,75,80,156.0,1.989583,Half,F4_D#5_A#4
1273,Left,1,44,80,156.0,0.239583,Sixteenth,G#2
1274,Left,1,29,80,156.25,0.239583,Sixteenth,F1
1275,Left,1,31,80,156.5,0.239583,Sixteenth,G1
1276,Left,1,33,80,156.75,0.239583,Sixteenth,A1
1277,Left,1,34,80,157.0,0.239583,Sixteenth,A#1
1278,Right,0,72,80,157.0,1.989583,Half,C5
1279,Left,1,36,80,157.25,0.239583,Sixteenth,C2
1280,Left,1,37,80,157.5,0.239583,Sixteenth,C#2
1281,Left,1,39,80,157.75,0.239583,Sixteenth,D#2
1283,Right,0,69,80,158.0,0.989583,Quarter,F4_A4
1282,Left,1,41,80,158.0,0.239583,Sixteenth,F2
1285,Left,1,39,80,158.25,0.239583,Sixteenth,D#2
1286,Left,1,37,80,158.5,0.239583,Sixteenth,C#2
1287,Left,1,36,80,158.75,0.239583,Sixteenth,C2
1288,Left,1,34,80,159.0,0.239583,Sixteenth,A#1
1289,Right,0,73,80,159.0,2.989583,DottedQuarter,F4_C#5_A#4
1292,Left,1,45,80,159.25,0.239583,Sixteenth,A2
1293,Left,1,46,80,159.5,0.239583,Sixteenth,A#2
1294,Left,1,48,80,159.75,0.239583,Sixteenth,C3
1295,Left,1,49,80,160.0,0.239583,Sixteenth,C#3
1296,Left,1,51,80,160.25,0.239583,Sixteenth,D#3
1297,Left,1,53,80,160.5,0.239583,Sixteenth,F3
1298,Right,0,70,80,160.5,0.489583,Eighth,A#4
1299,Left,1,51,80,160.75,0.239583,Sixteenth,D#3
1301,Left,1,49,80,161.0,0.239583,Sixteenth,C#3
1300,Right,0,70,80,161.0,0.739583,DottedEighth,A#4
1302,Left,1,48,80,161.25,0.239583,Sixteenth,C3
1303,Left,1,46,80,161.5,0.239583,Sixteenth,A#2
1304,Left,1,44,80,161.75,0.239583,Sixteenth,G#2
1305,Right,0,70,80,161.75,0.239583,Sixteenth,A#4
1309,Left,1,43,80,162.0,0.239583,Sixteenth,G2
1306,Right,0,73,80,162.0,0.989583,Quarter,D#4_C#5_A#4
1310,Left,1,38,80,162.25,0.239583,Sixteenth,D2
1311,Left,1,39,80,162.5,0.239583,Sixteenth,D#2
1312,Left,1,41,80,162.75,0.239583,Sixteenth,F2
1314,Right,0,70,80,163.0,0.15625,TripletSixteenth,A#4
1313,Left,1,43,80,163.0,0.239583,Sixteenth,G2
1315,Right,0,72,80,163.083333,0.15625,TripletSixteenth,C5
1316,Right,0,70,80,163.166667,0.15625,TripletSixteenth,A#4
1318,Right,0,72,81,163.25,0.15625,TripletSixteenth,C5
1317,Left,1,44,81,163.25,0.239583,Sixteenth,G#2
1319,Right,0,70,81,163.333333,0.15625,TripletSixteenth,A#4
1320,Right,0,72,82,163.416667,0.15625,TripletSixteenth,C5
1322,Right,0,70,82,163.5,0.15625,TripletSixteenth,A#4
1321,Left,1,46,82,163.5,0.239583,Sixteenth,A#2
1323,Right,0,72,83,163.583333,0.15625,TripletSixteenth,C5
1324,Right,0,70,83,163.666667,0.15625,TripletSixteenth,A#4
1325,Right,0,72,83,163.75,0.15625,TripletSixteenth,C5
1326,Left,1,44,83,163.75,0.239583,Sixteenth,G#2
1327,Right,0,70,84,163.833333,0.15625,TripletSixteenth,A#4
1328,Right,0,72,84,163.916667,0.15625,TripletSixteenth,C5
1330,Left,1,43,85,164.0,0.239583,Sixteenth,G2
1329,Right,0,70,85,164.0,0.15625,TripletSixteenth,A#4
1331,Right,0,72,85,164.083333,0.15625,TripletSixteenth,C5
1332,Right,0,70,86,164.166667,0.15625,TripletSixteenth,A#4
1333,Right,0,72,86,164.25,0.15625,TripletSixteenth,C5
1334,Left,1,41,86,164.25,0.239583,Sixteenth,F2
1335,Right,0,70,86,164.333333,0.15625,TripletSixteenth,A#4
1336,Right,0,72,87,164.416667,0.15625,TripletSixteenth,C5
1338,Right,0,71,87,164.5,0.15625,TripletSixteenth,B4
1337,Left,1,39,87,164.5,0.114583,ThirtySecond,D#2
1339,Right,0,72,88,164.583333,0.15625,TripletSixteenth,C5
1340,Left,1,37,88,164.625,0.114583,ThirtySecond,C#2
1341,Right,0,71,88,164.666667,0.15625,TripletSixteenth,B4
1343,Right,0,72,89,164.75,0.15625,TripletSixteenth,C5
1342,Left,1,36,89,164.75,0.114583,ThirtySecond,C2
1344,Right,0,71,89,164.833333,0.15625,TripletSixteenth,B4
1345,Left,1,34,89,164.875,0.114583,ThirtySecond,A#1
1346,Right,0,72,89,164.916667,0.072917,TripletThirtySecond,C5
1347,Right,0,60,80,165.0,1.489583,DottedQuarter,D#4_C5_C4
1350,Left,1,32,80,165.0,0.114583,ThirtySecond,G#1
1351,Left,1,39,80,165.125,0.114583,ThirtySecond,D#2
1352,Left,1,36,80,165.1875,0.114583,ThirtySecond,C2
1353,Left,1,39,80,165.375,0.114583,ThirtySecond,D#2
1354,Left,1,44,80,165.5,0.114583,ThirtySecond,G#2
1355,Left,1,51,80,165.625,0.114583,ThirtySecond,D#3
1356,Left,1,48,80,165.75,0.114583,ThirtySecond,C3
1357,Left,1,51,80,165.875,0.114583,ThirtySecond,D#3
1358,Left,1,44,80,166.0,0.114583,ThirtySecond,G#2
1359,Left,1,51,80,166.125,0.114583,ThirtySecond,D#3
1360,Left,1,48,80,166.25,0.114583,ThirtySecond,C3
1361,Left,1,51,80,166.375,0.114583,ThirtySecond,D#3
1363,Right,0,60,80,166.5,0.489583,Eighth,G#4_D#4_C4
1362,Left,1,56,80,166.5,0.114583,ThirtySecond,G#3
1366,Left,1,51,80,166.625,0.114583,ThirtySecond,D#3
1367,Left,1,48,80,166.75,0.114583,ThirtySecond,C3
1368,Left,1,51,80,166.875,0.114583,ThirtySecond,D#3
1371,Left,1,48,80,167.0,0.114583,ThirtySecond,C3
1369,Right,0,63,80,167.0,0.739583,Eighth,G#4_D#4_A#3
1373,Left,1,56,80,167.125,0.114583,ThirtySecond,G#3
1374,Left,1,51,80,167.25,0.114583,ThirtySecond,D#3
1375,Left,1,56,80,167.375,0.114583,ThirtySecond,G#3
1376,Left,1,60,80,167.5,0.114583,ThirtySecond,C4
1377,Left,1,56,80,167.625,0.114583,ThirtySecond,G#3
1378,Right,0,68,80,167.75,0.239583,Sixteenth,G#4
1379,Left,1,51,80,167.75,0.114583,ThirtySecond,D#3
1380,Left,1,56,80,167.875,0.114583,ThirtySecond,G#3
1381,Right,0,63,80,168.0,0.989583,Quarter,G4_D#4_C#5
1384,Left,1,46,80,168.0,0.114583,ThirtySecond,A#2
1385,Left,1,55,80,168.125,0.114583,ThirtySecond,G3
1386,Left,1,51,80,168.25,0.114583,ThirtySecond,D#3
1387,Left,1,55,80,168.375,0.114583,ThirtySecond,G3
1388,Left,1,58,80,168.5,0.114583,ThirtySecond,A#3
1389,Left,1,55,80,168.625,0.114583,ThirtySecond,G3
1390,Left,1,51,80,168.75,0.114583,ThirtySecond,D#3
1391,Left,1,55,80,168.875,0.114583,ThirtySecond,G3
1393,Right,0,67,80,169.0,1.989583,Half,G4_D#4_A#4
1392,Left,1,49,80,169.0,0.114583,ThirtySecond,C#3
1396,Left,1,55,80,169.125,0.114583,ThirtySecond,G3
1397,Left,1,51,80,169.25,0.114583,ThirtySecond,D#3
1398,Left,1,55,80,169.375,0.114583,ThirtySecond,G3
1399,Left,1,58,80,169.5,0.114583,ThirtySecond,A#3
1400,Left,1,55,80,169.625,0.114583,ThirtySecond,G3
1401,Left,1,51,80,169.75,0.114583,ThirtySecond,D#3
1402,Left,1,55,80,169.875,0.114583,ThirtySecond,G3
1403,Left,1,49,80,170.0,0.114583,ThirtySecond,C#3
1404,Left,1,55,80,170.125,0.114583,ThirtySecond,G3
1405,Left,1,51,80,170.25,0.114583,ThirtySecond,D#3
1406,Left,1,55,80,170.375,0.114583,ThirtySecond,G3
1407,Left,1,58,80,170.5,0.114583,ThirtySecond,A#3
1408,Left,1,55,80,170.625,0.114583,ThirtySecond,G3
1409,Left,1,51,80,170.75,0.114583,ThirtySecond,D#3
1410,Left,1,55,80,170.875,0.114583,ThirtySecond,G3
1411,Right,0,63,80,171.0,1.489583,DottedQuarter,G#4_D#5_D#4
1414,Left,1,48,80,171.0,0.114583,ThirtySecond,C3
1415,Left,1,56,80,171.125,0.114583,ThirtySecond,G#3
1416,Left,1,51,80,171.25,0.114583,ThirtySecond,D#3
1417,Left,1,56,80,171.375,0.114583,ThirtySecond,G#3
1418,Left,1,60,80,171.5,0.114583,ThirtySecond,C4
1419,Left,1,56,80,171.625,0.114583,ThirtySecond,G#3
1420,Left,1,51,80,171.75,0.114583,ThirtySecond,D#3
1421,Left,1,56,80,171.875,0.114583,ThirtySecond,G#3
1422,Left,1,48,80,172.0,0.114583,ThirtySecond,C3
1423,Left,1,60,80,172.125,0.114583,ThirtySecond,C4
1424,Left,1,56,80,172.25,0.114583,ThirtySecond,G#3
1425,Left,1,60,80,172.375,0.114583,ThirtySecond,C4
1427,Right,0,62,80,172.5,0.489583,Eighth,G#4_D5_D4
1426,Left,1,47,80,172.5,0.114583,ThirtySecond,B2
1430,Left,1,59,80,172.625,0.114583,ThirtySecond,B3
1431,Left,1,56,80,172.75,0.114583,ThirtySecond,G#3
1432,Left,1,59,80,172.875,0.114583,ThirtySecond,B3
1433,Left,1,48,80,173.0,0.114583,ThirtySecond,C3
1434,Right,0,68,80,173.0,0.489583,Eighth,G#4_D#5_D#4
1437,Left,1,60,80,173.125,0.114583,ThirtySecond,C4
1438,Left,1,56,80,173.25,0.114583,ThirtySecond,G#3
1439,Left,1,60,80,173.375,0.114583,ThirtySecond,C4
1440,Left,1,49,80,173.5,0.114583,ThirtySecond,C#3
1441,Right,0,77,80,173.5,0.489583,Eighth,G#4_F5_F4
1444,Left,1,61,80,173.625,0.114583,ThirtySecond,C#4
1445,Left,1,56,80,173.75,0.114583,ThirtySecond,G#3
1446,Left,1,61,80,173.875,0.114583,ThirtySecond,C#4
1447,Right,0,75,80,174.0,0.489583,Eighth,D#5
1448,Left,1,51,80,174.0,0.114583,ThirtySecond,D#3
1449,Left,1,63,80,174.125,0.114583,ThirtySecond,D#4
1450,Left,1,55,80,174.25,0.114583,ThirtySecond,G3
1451,Left,1,63,80,174.375,0.114583,ThirtySecond,D#4
1453,Left,1,53,80,174.5,0.114583,ThirtySecond,F3
1452,Right,0,74,80,174.5,0.489583,Eighth,D5
1454,Left,1,65,80,174.625,0.114583,ThirtySecond,F4
1455,Left,1,56,80,174.75,0.114583,ThirtySecond,G#3
1456,Left,1,65,80,174.875,0.114583,ThirtySecond,F4
1458,Right,0,73,80,175.0,0.114583,ThirtySecond,C#5
1457,Left,1,55,80,175.0,0.114583,ThirtySecond,G3
1459,Right,0,75,80,175.0625,0.114583,ThirtySecond,D#5
1460,Right,0,73,80,175.125,0.114583,ThirtySecond,C#5
1461,Left,1,67,80,175.125,0.114583,ThirtySecond,G4
1462,Right,0,75,80,175.1875,0.114583,ThirtySecond,D#5
1463,Right,0,73,80,175.25,0.114583,ThirtySecond,C#5
1464,Left,1,58,80,175.25,0.114583,ThirtySecond,A#3
1465,Right,0,75,80,175.3125,0.114583,ThirtySecond,D#5
1466,Right,0,73,80,175.375,0.114583,ThirtySecond,C#5
1467,Left,1,67,80,175.375,0.114583,ThirtySecond,G4
1468,Right,0,75,80,175.4375,0.114583,ThirtySecond,D#5
1469,Right,0,73,80,175.5,0.114583,ThirtySecond,C#5
1470,Left,1,51,80,175.5,0.114583,ThirtySecond,D#3
1471,Right,0,75,80,175.5625,0.114583,ThirtySecond,D#5
1473,Left,1,63,80,175.625,0.114583,ThirtySecond,D#4
1472,Right,0,73,80,175.625,0.114583,ThirtySecond,C#5
1474,Right,0,75,80,175.6875,0.114583,ThirtySecond,D#5
1475,Right,0,73,80,175.75,0.114583,ThirtySecond,C#5
1476,Left,1,55,80,175.75,0.114583,ThirtySecond,G3
1477,Right,0,75,80,175.8125,0.114583,ThirtySecond,D#5
1478,Right,0,73,80,175.875,0.114583,ThirtySecond,C#5
1479,Left,1,63,80,175.875,0.114583,ThirtySecond,D#4
1480,Right,0,75,80,175.9375,0.114583,ThirtySecond,D#5
1482,Right,0,73,80,176.0,0.114583,ThirtySecond,C#5
1481,Left,1,53,80,176.0,0.114583,ThirtySecond,F3
1483,Right,0,75,80,176.0625,0.114583,ThirtySecond,D#5
1485,Right,0,73,80,176.125,0.114583,ThirtySecond,C#5
1484,Left,1,65,80,176.125,0.114583,ThirtySecond,F4
1486,Right,0,75,80,176.1875,0.114583,ThirtySecond,D#5
1488,Right,0,73,80,176.25,0.114583,ThirtySecond,C#5
1487,Left,1,56,80,176.25,0.114583,ThirtySecond,G#3
1489,Right,0,75,80,176.3125,0.114583,ThirtySecond,D#5
1490,Left,1,65,80,176.375,0.114583,ThirtySecond,F4
1491,Right,0,73,80,176.375,0.114583,ThirtySecond,C#5
1492,Right,0,75,80,176.4375,0.114583,ThirtySecond,D#5
1494,Right,0,72,80,176.5,0.239583,Sixteenth,C5
1493,Left,1,55,80,176.5,0.114583,ThirtySecond,G3
1495,Left,1,67,80,176.625,0.114583,ThirtySecond,G4
1496,Right,0,70,80,176.75,0.239583,Sixteenth,A#4
1497,Left,1,58,80,176.75,0.114583,ThirtySecond,A#3
1498,Left,1,67,80,176.875,0.114583,ThirtySecond,G4
1500,Left,1,63,80,177.0,1.489583,DottedQuarter,D#4_C4
1499,Right,0,68,80,177.0,0.114583,ThirtySecond,G#4
1502,Right,0,75,80,177.125,0.114583,ThirtySecond,D#5
1503,Right,0,72,81,177.25,0.114583,ThirtySecond,C5
1504,Right,0,75,81,177.375,0.114583,ThirtySecond,D#5
1505,Right,0,80,82,177.5,0.114583,ThirtySecond,G#5
1506,Right,0,87,83,177.625,0.114583,ThirtySecond,D#6
1507,Right,0,84,83,177.75,0.114583,ThirtySecond,C6
1508,Right,0,87,84,177.875,0.114583,ThirtySecond,D#6
1509,Right,0,92,85,178.0,0.114583,ThirtySecond,G#6
1510,Right,0,80,85,178.125,0.114583,ThirtySecond,G#5
1511,Right,0,92,86,178.25,0.114583,ThirtySecond,G#6
1512,Right,0,80,87,178.375,0.114583,ThirtySecond,G#5
1514,Left,1,60,87,178.5,0.489583,Eighth,G#3_C4
1513,Right,0,92,87,178.5,0.114583,ThirtySecond,G#6
1516,Right,0,80,88,178.625,0.114583,ThirtySecond,G#5
1517,Right,0,92,89,178.75,0.114583,ThirtySecond,G#6
1518,Right,0,80,89,178.875,0.114583,ThirtySecond,G#5
1521,Right,0,92,90,179.0,0.114583,ThirtySecond,G#6
1519,Left,1,60,90,179.0,0.739583,DottedEighth,G#3_C4
1522,Right,0,80,91,179.125,0.114583,ThirtySecond,G#5
1523,Right,0,92,91,179.25,0.114583,ThirtySecond,G#6
1524,Right,0,80,92,179.375,0.114583,ThirtySecond,G#5
1525,Right,0,92,93,179.5,0.114583,ThirtySecond,G#6
1526,Right,0,80,93,179.625,0.114583,ThirtySecond,G#5
1528,Left,1,56,94,179.75,0.239583,Sixteenth,G#3_C4
1527,Right,0,92,94,179.75,0.114583,ThirtySecond,G#6
1530,Right,0,80,95,179.875,0.114583,ThirtySecond,G#5
1533,Right,0,92,95,180.0,0.114583,ThirtySecond,G#6
1531,Left,1,61,95,180.0,0.989583,Quarter,F4_C#4
1534,Right,0,80,96,180.125,0.114583,ThirtySecond,G#5
1535,Right,0,92,97,180.25,0.114583,ThirtySecond,G#6
1536,Right,0,80,97,180.375,0.114583,ThirtySecond,G#5
1537,Right,0,92,98,180.5,0.114583,ThirtySecond,G#6
1538,Right,0,80,99,180.625,0.114583,ThirtySecond,G#5
1539,Right,0,92,99,180.75,0.114583,ThirtySecond,G#6
1540,Right,0,80,100,180.875,0.114583,ThirtySecond,G#5
1541,Left,1,58,101,181.0,1.989583,Half,C#4_A#3
1543,Right,0,92,101,181.0,0.114583,ThirtySecond,G#6
1544,Right,0,80,101,181.125,0.114583,ThirtySecond,G#5
1545,Right,0,92,102,181.25,0.114583,ThirtySecond,G#6
1546,Right,0,80,103,181.375,0.114583,ThirtySecond,G#5
1547,Right,0,92,103,181.5,0.114583,ThirtySecond,G#6
1548,Right,0,80,104,181.625,0.114583,ThirtySecond,G#5
1549,Right,0,92,105,181.75,0.114583,ThirtySecond,G#6
1550,Right,0,80,105,181.875,0.114583,ThirtySecond,G#5
1551,Right,0,92,106,182.0,0.114583,ThirtySecond,G#6
1552,Right,0,80,106,182.125,0.114583,ThirtySecond,G#5
1553,Right,0,92,107,182.25,0.114583,ThirtySecond,G#6
1554,Right,0,80,108,182.375,0.114583,ThirtySecond,G#5
1555,Right,0,92,108,182.5,0.114583,ThirtySecond,G#6
1556,Right,0,80,109,182.625,0.114583,ThirtySecond,G#5
1557,Right,0,92,110,182.75,0.114583,ThirtySecond,G#6
1558,Right,0,80,110,182.875,0.114583,ThirtySecond,G#5
1559,Right,0,92,110,183.0,0.489583,Eighth,G#6
1560,Left,1,63,110,183.0,0.989583,Quarter,F#4_D#4
1562,Right,0,90,107,183.5,0.239583,Sixteenth,F#6
1563,Right,0,89,105,183.75,0.489583,Eighth,F6
1564,Left,1,60,104,184.0,1.989583,Half,D#4_C4
1566,Right,0,87,102,184.25,0.114583,ThirtySecond,D#6
1567,Right,0,86,101,184.375,0.114583,ThirtySecond,D6
1568,Right,0,87,100,184.5,0.114583,ThirtySecond,D#6
1569,Right,0,89,99,184.625,0.114583,ThirtySecond,F6
1570,Right,0,90,98,184.75,0.114583,ThirtySecond,F#6
1571,Right,0,89,98,184.875,0.114583,ThirtySecond,F6
1574,Right,0,87,97,185.0,0.114583,ThirtySecond,D#6
1572,Left,1,68,97,185.0,0.989583,Quarter,G#4_D#4
1575,Right,0,89,96,185.125,0.114583,ThirtySecond,F6
1576,Right,0,87,95,185.25,0.114583,ThirtySecond,D#6
1577,Right,0,85,94,185.375,0.114583,ThirtySecond,C#6
1578,Right,0,84,93,185.5,0.114583,ThirtySecond,C6
1579,Right,0,82,92,185.625,0.114583,ThirtySecond,A#5
1580,Right,0,80,91,185.75,0.114583,ThirtySecond,G#5
1581,Right,0,78,91,185.875,0.114583,ThirtySecond,F#5
1582,Left,1,61,80,186.0,0.239583,Sixteenth,C#4
1583,Right,0,77,80,186.0,1.489583,DottedQuarter,F5
1584,Left,1,65,80,186.25,0.239583,Sixteenth,G#4_F4
1586,Left,1,68,80,186.5,0.239583,Sixteenth,G#4_F4
1588,Left,1,68,80,186.75,0.239583,Sixteenth,G#4_F4
1590,Left,1,61,80,187.0,0.239583,Sixteenth,C#4
1591,Left,1,65,80,187.25,0.239583,Sixteenth,G#4_F4
1593,Left,1,65,80,187.5,0.239583,Sixteenth,G#4_F4
1595,Right,0,80,80,187.5,0.989583,Quarter,G#5
1596,Left,1,65,80,187.75,0.239583,Sixteenth,G#4_F4
1598,Left,1,61,80,188.0,0.239583,Sixteenth,C#4
1599,Left,1,65,80,188.25,0.239583,Sixteenth,G#4_F4
1603,Right,0,85,80,188.5,0.489583,Eighth,C#6
1601,Left,1,65,80,188.5,0.239583,Sixteenth,G#4_F4
1604,Left,1,68,80,188.75,0.239583,Sixteenth,G#4_F4
1606,Right,0,85,80,189.0,0.989583,Quarter,C#6
1607,Left,1,63,80,189.0,0.239583,Sixteenth,D#4
1608,Left,1,66,80,189.25,0.239583,Sixteenth,G#4_F#4
1610,Left,1,66,80,189.5,0.239583,Sixteenth,G#4_F#4
1612,Left,1,68,80,189.75,0.239583,Sixteenth,G#4_F#4
1614,Right,0,84,80,190.0,1.989583,Half,C6
1615,Left,1,63,80,190.0,0.239583,Sixteenth,D#4
1616,Left,1,68,80,190.25,0.239583,Sixteenth,G#4_F#4
1618,Left,1,66,80,190.5,0.239583,Sixteenth,G#4_F#4
1620,Left,1,66,80,190.75,0.239583,Sixteenth,G#4_F#4
1622,Left,1,63,80,191.0,0.239583,Sixteenth,D#4
1623,Left,1,66,80,191.25,0.239583,Sixteenth,G#4_F#4
1625,Left,1,66,80,191.5,0.239583,Sixteenth,G#4_F#4
1627,Left,1,66,80,191.75,0.239583,Sixteenth,G#4_F#4
1629,Left,1,66,80,192.0,0.239583,Sixteenth,F#4
1630,Right,0,87,80,192.0,1.489583,DottedQuarter,D#6
1631,Left,1,72,80,192.25,0.239583,Sixteenth,G#4_D#5_C5
1634,Left,1,68,80,192.5,0.239583,Sixteenth,G#4_D#5_C5
1637,Left,1,68,80,192.75,0.239583,Sixteenth,G#4_D#5_C5
1640,Left,1,66,80,193.0,0.239583,Sixteenth,F#4
1641,Left,1,68,80,193.25,0.239583,Sixteenth,G#4_D#5_C5
1645,Right,0,84,80,193.5,0.989583,Quarter,C6
1644,Left,1,72,80,193.5,0.239583,Sixteenth,G#4_D#5_C5
1648,Left,1,68,80,193.75,0.239583,Sixteenth,G#4_D#5_C5
1651,Left,1,66,80,194.0,0.239583,Sixteenth,F#4
1652,Left,1,75,81,194.25,0.239583,Sixteenth,G#4_D#5_C5
1655,Left,1,75,82,194.5,0.239583,Sixteenth,G#4_D#5_C5
1658,Right,0,80,82,194.5,0.489583,Eighth,G#5
1659,Left,1,72,84,194.75,0.239583,Sixteenth,G#4_D#5_C5
1663,Left,1,65,85,195.0,0.239583,Sixteenth,F4
1662,Right,0,80,85,195.0,0.989583,Quarter,G#5
1664,Left,1,68,86,195.25,0.239583,Sixteenth,G#4_C#5
1666,Left,1,68,88,195.5,0.239583,Sixteenth,G#4_C#5
1668,Left,1,68,89,195.75,0.239583,Sixteenth,G#4_C#5
1670,Left,1,65,91,196.0,0.239583,Sixteenth,F4
1671,Right,0,85,91,196.0,1.489583,DottedQuarter,C#6
1672,Left,1,68,92,196.25,0.239583,Sixteenth,G#4_C#5
1674,Left,1,68,93,196.5,0.239583,Sixteenth,G#4_C#5
1676,Left,1,68,95,196.75,0.239583,Sixteenth,G#4_C#5
1678,Left,1,65,96,197.0,0.239583,Sixteenth,F4
1679,Left,1,73,98,197.25,0.239583,Sixteenth,G#4_C#5
1681,Right,0,85,99,197.5,0.489583,Eighth,C#6
1682,Left,1,73,99,197.5,0.239583,Sixteenth,G#4_C#5
1684,Left,1,68,100,197.75,0.239583,Sixteenth,G#4_C#5
1687,Left,1,64,100,198.0,0.239583,Sixteenth,E4
1686,Right,0,85,100,198.0,0.989583,Quarter,C#6
1688,Left,1,68,99,198.25,0.239583,Sixteenth,G#4_C#5
1690,Left,1,68,98,198.5,0.239583,Sixteenth,G#4_C#5
1692,Left,1,68,97,198.75,0.239583,Sixteenth,G#4_C#5
1695,Left,1,64,96,199.0,0.239583,Sixteenth,E4
1694,Right,0,85,96,199.0,1.489583,DottedQuarter,C#6
1696,Left,1,68,95,199.25,0.239583,Sixteenth,G#4_C#5
1698,Left,1,68,94,199.5,0.239583,Sixteenth,G#4_C#5
1700,Left,1,68,93,199.75,0.239583,Sixteenth,G#4_C#5
1702,Left,1,64,92,200.0,0.239583,Sixteenth,E4
1703,Left,1,68,91,200.25,0.239583,Sixteenth,G#4_C#5
1707,Right,0,85,89,200.5,0.489583,Eighth,C#6
1705,Left,1,73,89,200.5,0.239583,Sixteenth,G#4_C#5
1708,Left,1,68,88,200.75,0.239583,Sixteenth,G#4_C#5
1711,Right,0,85,87,201.0,0.989583,Quarter,C#6
1710,Left,1,63,87,201.0,0.239583,Sixteenth,D#4
1712,Left,1,66,86,201.25,0.239583,Sixteenth,F#4_B4
1714,Left,1,66,85,201.5,0.239583,Sixteenth,F#4_B4
1716,Left,1,66,84,201.75,0.239583,Sixteenth,F#4_B4
1719,Left,1,63,83,202.0,0.239583,Sixteenth,D#4
1718,Right,0,83,83,202.0,1.489583,DottedQuarter,B5
1720,Left,1,66,82,202.25,0.239583,Sixteenth,F#4_B4
1722,Left,1,71,81,202.5,0.239583,Sixteenth,F#4_B4
1724,Left,1,71,79,202.75,0.239583,Sixteenth,F#4_B4
1726,Left,1,63,78,203.0,0.239583,Sixteenth,D#4
1727,Left,1,66,77,203.25,0.239583,Sixteenth,F#4_B4
1731,Right,0,83,76,203.5,0.489583,Eighth,B5
1729,Left,1,66,76,203.5,0.239583,Sixteenth,F#4_B4
1732,Left,1,66,75,203.75,0.239583,Sixteenth,F#4_B4
1734,Right,0,83,74,204.0,0.489583,Eighth,B5
1735,Left,1,63,74,204.0,0.239583,Sixteenth,D#4
1736,Left,1,66,73,204.25,0.239583,Sixteenth,F#4_B4
1739,Left,1,71,72,204.5,0.239583,Sixteenth,F#4_B4
1738,Right,0,81,72,204.5,0.614583,Eighth,A5
1741,Left,1,71,71,204.75,0.239583,Sixteenth,F#4_B4
1743,Left,1,63,70,205.0,0.239583,Sixteenth,D#4
1744,Right,0,83,70,205.125,0.239583,Sixteenth,B5
1745,Left,1,66,70,205.25,0.239583,Sixteenth,F#4_B4
1747,Right,0,81,70,205.25,0.229167,Sixteenth,A5
1748,Right,0,80,70,205.375,0.229167,Sixteenth,G#5
1749,Left,1,66,70,205.5,0.239583,Sixteenth,F#4_B4
1751,Right,0,81,70,205.5,0.239583,Sixteenth,A5
1752,Left,1,71,70,205.75,0.239583,Sixteenth,F#4_B4
1754,Right,0,83,70,205.75,0.239583,Sixteenth,B5
1755,Right,0,81,70,206.0,0.229167,Sixteenth,A5
1756,Left,1,63,70,206.0,0.239583,Sixteenth,D#4
1757,Right,0,83,70,206.125,0.239583,Sixteenth,B5
1758,Left,1,71,70,206.25,0.239583,Sixteenth,F#4_B4
1759,Right,0,85,70,206.25,0.239583,Sixteenth,C#6
1762,Left,1,66,70,206.5,0.239583,Sixteenth,F#4_B4
1761,Right,0,83,70,206.5,0.239583,Sixteenth,B5
1765,Left,1,66,70,206.75,0.239583,Sixteenth,F#4_B4
1764,Right,0,81,70,206.75,0.239583,Sixteenth,A5
1768,Left,1,71,80,207.0,0.333333,Triplet,G#4_E4_B4
1767,Right,0,80,80,207.0,0.229167,Sixteenth,G#5
1771,Right,0,88,80,207.125,0.208333,Sixteenth,E6
1772,Right,0,83,80,207.25,0.208333,Sixteenth,B5
1773,Right,0,88,80,207.375,0.197917,TripletSixteenth,E6
1774,Right,0,92,80,207.5,0.208333,Sixteenth,G#6
1775,Right,0,88,80,207.625,0.239583,Sixteenth,E6
1776,Right,0,83,80,207.75,0.229167,Sixteenth,B5
1777,Right,0,88,80,207.875,0.229167,Sixteenth,E6
1778,Left,1,80,80,208.0,0.21875,Sixteenth,G#5
1779,Left,1,76,80,208.125,0.229167,Sixteenth,E5
1780,Left,1,71,80,208.25,0.239583,Sixteenth,B4
1781,Left,1,76,80,208.375,0.1875,TripletSixteenth,E5
1782,Right,0,68,80,208.5,0.229167,Sixteenth,G#4
1783,Right,0,64,80,208.625,0.21875,Sixteenth,E4
1784,Right,0,59,80,208.75,0.208333,Sixteenth,B3
1785,Right,0,64,80,208.875,0.21875,Sixteenth,E4
1786,Left,1,56,80,209.0,0.239583,Sixteenth,G#3
1787,Left,1,52,80,209.125,0.21875,Sixteenth,E3
1788,Left,1,47,80,209.25,0.21875,Sixteenth,B2
1789,Left,1,52,80,209.375,0.229167,Sixteenth,E3
1790,Right,0,32,80,209.5,0.239583,Sixteenth,G#1
1791,Left,1,40,80,209.5625,0.333333,Triplet,E2
1792,Right,0,40,80,209.625,0.21875,Sixteenth,E2
1793,Right,0,35,80,209.75,0.21875,Sixteenth,B1
1794,Right,0,40,80,209.875,0.229167,Sixteenth,E2
1796,Right,0,39,80,210.0,0.197917,TripletSixteenth,D#2
1795,Left,1,30,80,210.0,0.489583,Eighth,F#2_F#1_B1
1799,Right,0,47,80,210.125,0.21875,Sixteenth,B2
1800,Right,0,45,80,210.25,0.21875,Sixteenth,A2
1801,Right,0,47,80,210.375,0.229167,Sixteenth,B2
1802,Right,0,51,80,210.5,0.239583,Sixteenth,D#3
1803,Right,0,47,80,210.625,0.239583,Sixteenth,B2
1804,Right,0,45,80,210.75,0.208333,Sixteenth,A2
1805,Right,0,47,80,210.875,0.21875,Sixteenth,B2
1807,Left,1,30,80,211.0,0.489583,Eighth,F#2_F#1_B1
1806,Right,0,51,80,211.0,0.21875,Sixteenth,D#3
1810,Right,0,59,80,211.125,0.21875,Sixteenth,B3
1811,Right,0,57,80,211.25,0.229167,Sixteenth,A3
1812,Right,0,59,80,211.375,0.229167,Sixteenth,B3
1813,Right,0,63,80,211.5,0.21875,Sixteenth,D#4
1814,Right,0,59,80,211.625,0.239583,Sixteenth,B3
1815,Right,0,57,80,211.75,0.239583,Sixteenth,A3
1816,Right,0,59,80,211.875,0.239583,Sixteenth,B3
1817,Left,1,42,80,212.0,0.489583,Eighth,F#2_F#1_B1
1818,Right,0,63,80,212.0,0.21875,Sixteenth,D#4
1821,Right,0,71,80,212.125,0.21875,Sixteenth,B4
1822,Right,0,69,80,212.25,0.21875,Sixteenth,A4
1823,Right,0,71,80,212.375,0.21875,Sixteenth,B4
1824,Right,0,75,80,212.5,0.239583,Sixteenth,D#5
1825,Right,0,71,80,212.625,0.239583,Sixteenth,B4
1826,Right,0,69,80,212.75,0.239583,Sixteenth,A4
1827,Right,0,71,80,212.875,0.208333,Sixteenth,B4
1830,Right,0,76,80,213.0,0.114583,ThirtySecond,E5
1828,Left,1,35,80,213.0,0.489583,Eighth,G#2_G#1_B1
1832,Right,0,83,80,213.125,0.114583,ThirtySecond,B5
1833,Right,0,80,80,213.25,0.114583,ThirtySecond,G#5
1834,Right,0,83,80,213.375,0.114583,ThirtySecond,B5
1835,Right,0,88,80,213.5,0.114583,ThirtySecond,E6
1836,Right,0,83,80,213.625,0.114583,ThirtySecond,B5
1837,Right,0,80,80,213.75,0.114583,ThirtySecond,G#5
1838,Right,0,83,80,213.875,0.114583,ThirtySecond,B5
1839,Right,0,76,80,214.0,0.114583,ThirtySecond,E5
1840,Right,0,71,80,214.125,0.114583,ThirtySecond,B4
1841,Right,0,68,80,214.25,0.114583,ThirtySecond,G#4
1842,Right,0,71,80,214.375,0.114583,ThirtySecond,B4
1843,Right,0,64,80,214.5,0.114583,ThirtySecond,E4
1844,Right,0,59,80,214.625,0.114583,ThirtySecond,B3
1845,Right,0,56,80,214.75,0.114583,ThirtySecond,G#3
1846,Right,0,59,80,214.875,0.114583,ThirtySecond,B3
1847,Right,0,52,80,215.0,0.114583,ThirtySecond,E3
1848,Right,0,59,80,215.125,0.114583,ThirtySecond,B3
1849,Right,0,56,80,215.25,0.114583,ThirtySecond,G#3
1850,Right,0,59,80,215.375,0.114583,ThirtySecond,B3
1851,Right,0,64,80,215.5,0.114583,ThirtySecond,E4
1852,Right,0,59,80,215.625,0.114583,ThirtySecond,B3
1853,Right,0,56,80,215.75,0.114583,ThirtySecond,G#3
1854,Right,0,59,80,215.875,0.114583,ThirtySecond,B3
1855,Left,1,39,80,216.0,0.489583,Eighth,D#3_D#2_B2
1858,Right,0,54,80,216.0,0.114583,ThirtySecond,F#3
1859,Right,0,59,80,216.125,0.114583,ThirtySecond,B3
1860,Right,0,57,80,216.25,0.114583,ThirtySecond,A3
1861,Right,0,59,80,216.375,0.114583,ThirtySecond,B3
1862,Right,0,66,80,216.5,0.114583,ThirtySecond,F#4
1863,Right,0,59,80,216.625,0.114583,ThirtySecond,B3
1864,Right,0,57,80,216.75,0.114583,ThirtySecond,A3
1865,Right,0,59,80,216.875,0.114583,ThirtySecond,B3
1868,Right,0,66,80,217.0,0.114583,ThirtySecond,F#4
1866,Left,1,39,80,217.0,0.489583,Eighth,D#3_D#2_B2
1870,Right,0,71,80,217.125,0.114583,ThirtySecond,B4
1871,Right,0,69,80,217.25,0.114583,ThirtySecond,A4
1872,Right,0,71,80,217.375,0.114583,ThirtySecond,B4
1873,Right,0,78,80,217.5,0.114583,ThirtySecond,F#5
1874,Right,0,71,80,217.625,0.114583,ThirtySecond,B4
1875,Right,0,69,80,217.75,0.114583,ThirtySecond,A4
1876,Right,0,71,80,217.875,0.114583,ThirtySecond,B4
1877,Left,1,39,80,218.0,0.489583,Eighth,D#3_D#2_B2
1880,Right,0,78,80,218.0,0.114583,ThirtySecond,F#5
1881,Right,0,83,80,218.125,0.114583,ThirtySecond,B5
1882,Right,0,81,80,218.25,0.114583,ThirtySecond,A5
1883,Right,0,83,80,218.375,0.114583,ThirtySecond,B5
1884,Right,0,90,80,218.5,0.114583,ThirtySecond,F#6
1885,Right,0,83,80,218.625,0.114583,ThirtySecond,B5
1886,Right,0,81,80,218.75,0.114583,ThirtySecond,A5
1887,Right,0,83,80,218.875,0.114583,ThirtySecond,B5
1889,Left,1,40,80,219.0,0.489583,Eighth,E3_E2_B2
1888,Right,0,80,80,219.0,0.114583,ThirtySecond,G#5
1892,Right,0,92,80,219.125,0.114583,ThirtySecond,G#6
1893,Right,0,83,80,219.25,0.114583,ThirtySecond,B5
1894,Right,0,92,80,219.375,0.114583,ThirtySecond,G#6
1895,Right,0,80,80,219.5,0.114583,ThirtySecond,G#5
1896,Left,1,52,80,219.5,0.489583,Eighth,E4_E3
1898,Right,0,92,80,219.625,0.114583,ThirtySecond,G#6
1899,Right,0,83,80,219.75,0.114583,ThirtySecond,B5
1900,Right,0,92,80,219.875,0.114583,ThirtySecond,G#6
1901,Right,0,80,80,219.9375,0.114583,ThirtySecond,G#5
1902,Left,1,64,80,220.0,0.489583,Eighth,E4_E3
1904,Right,0,92,80,220.0625,0.114583,ThirtySecond,G#6
1905,Right,0,83,80,220.1875,0.114583,ThirtySecond,B5
1906,Right,0,92,80,220.3125,0.114583,ThirtySecond,G#6
1907,Left,1,61,80,220.5,0.489583,Eighth,E3_C#4_C#3
1908,Right,0,81,80,220.5,0.114583,ThirtySecond,A5
1911,Right,0,93,80,220.625,0.114583,ThirtySecond,A6
1912,Right,0,88,80,220.75,0.114583,ThirtySecond,E6
1913,Right,0,93,80,220.875,0.114583,ThirtySecond,A6
1915,Right,0,81,80,221.0,0.114583,ThirtySecond,A5
1914,Left,1,52,80,221.0,0.489583,Eighth,E3_C#4_C#3
1918,Right,0,93,80,221.125,0.114583,ThirtySecond,A6
1919,Right,0,88,80,221.25,0.114583,ThirtySecond,E6
1920,Right,0,93,80,221.375,0.114583,ThirtySecond,A6
1921,Left,1,60,80,221.5,0.489583,Eighth,E3_C4_C3
1924,Right,0,82,80,221.5,0.114583,ThirtySecond,A#5
1925,Right,0,94,80,221.625,0.114583,ThirtySecond,A#6
1926,Right,0,88,80,221.75,0.114583,ThirtySecond,E6
1927,Right,0,94,80,221.875,0.114583,ThirtySecond,A#6
1929,Right,0,82,80,222.0,0.114583,ThirtySecond,A#5
1928,Left,1,52,80,222.0,0.489583,Eighth,E3_C4_C3
1932,Right,0,94,80,222.125,0.114583,ThirtySecond,A#6
1933,Right,0,88,80,222.25,0.114583,ThirtySecond,E6
1934,Right,0,94,80,222.375,0.114583,ThirtySecond,A#6
1935,Left,1,59,80,222.5,0.489583,Eighth,E3_B3_B2
1937,Right,0,83,80,222.5,0.114583,ThirtySecond,B5
1939,Right,0,95,80,222.625,0.114583,ThirtySecond,B6
1940,Right,0,88,80,222.75,0.114583,ThirtySecond,E6
1941,Right,0,95,80,222.875,0.114583,ThirtySecond,B6
1945,Right,0,83,80,223.0,0.114583,ThirtySecond,B5
1942,Left,1,57,80,223.0,0.489583,Eighth,E3_A3_A2
1946,Right,0,95,80,223.125,0.114583,ThirtySecond,B6
1947,Right,0,88,80,223.25,0.114583,ThirtySecond,E6
1948,Right,0,95,80,223.375,0.114583,ThirtySecond,B6
1949,Left,1,44,80,223.5,0.489583,Eighth,G#3_G#2_E3
1951,Right,0,84,80,223.5,0.114583,ThirtySecond,C6
1953,Right,0,96,80,223.625,0.114583,ThirtySecond,C7
1954,Right,0,88,80,223.75,0.114583,ThirtySecond,E6
1955,Right,0,96,80,223.875,0.114583,ThirtySecond,C7
1956,Right,0,72,80,224.0,0.114583,ThirtySecond,C5
1957,Left,1,68,80,224.0,0.489583,Eighth,G#4_G#3_E4
1960,Right,0,84,80,224.125,0.114583,ThirtySecond,C6
1961,Right,0,76,80,224.25,0.114583,ThirtySecond,E5
1962,Right,0,84,80,224.375,0.114583,ThirtySecond,C6
1964,Right,0,73,80,224.5,0.114583,ThirtySecond,C#5
1963,Left,1,57,80,224.5,0.489583,Eighth,E4_A4_A3
1967,Right,0,85,80,224.625,0.114583,ThirtySecond,C#6
1968,Right,0,76,80,224.75,0.114583,ThirtySecond,E5
1969,Right,0,85,80,224.875,0.114583,ThirtySecond,C#6
1970,Right,0,85,80,225.0,0.739583,DottedEighth,C#6
1971,Left,1,69,80,225.25,0.239583,Sixteenth,A4
1972,Left,1,57,80,225.5,0.739583,DottedEighth,A3
1973,Right,0,73,80,225.75,0.239583,Sixteenth,C#5
1974,Right,0,83,80,226.0,0.739583,DottedEighth,B5
1975,Left,1,68,80,226.25,0.239583,Sixteenth,G#4
1976,Left,1,56,80,226.5,0.739583,DottedEighth,G#3
1977,Right,0,71,80,226.75,0.239583,Sixteenth,B4
1978,Right,0,81,80,227.0625,0.739583,DottedEighth,A5
1979,Left,1,66,80,227.25,0.239583,Sixteenth,F#4
1980,Left,1,54,80,227.5,0.739583,DottedEighth,F#3
1981,Right,0,82,80,227.75,0.239583,Sixteenth,A#5
1982,Right,0,83,80,228.0,0.739583,DottedEighth,B5
1983,Left,1,68,80,228.25,0.239583,Sixteenth,G#4
1984,Left,1,56,80,228.5,0.739583,DottedEighth,G#3
1985,Right,0,71,80,228.75,0.239583,Sixteenth,B4
1986,Right,0,81,80,229.0,0.739583,DottedEighth,A5
1987,Left,1,66,80,229.25,0.239583,Sixteenth,F#4
1988,Left,1,54,80,229.5,0.489583,Eighth,F#3
1989,Right,0,69,80,229.75,0.239583,Sixteenth,A4
1991,Left,1,65,80,230.0,0.489583,Eighth,F4_F3
1990,Right,0,80,80,230.0,0.489583,Eighth,G#5_G#4
1994,Right,0,67,80,230.5,0.489583,Eighth,G5_G4
1995,Left,1,64,80,230.5,0.489583,Eighth,E4_E3
1998,Right,0,79,80,231.0,1.489583,DottedQuarter,G5_G4
2000,Left,1,51,80,231.0,1.489583,DottedQuarter,D#4_D#3
2004,Right,0,80,80,232.5,0.489583,Eighth,G#5_G#4
2002,Left,1,65,80,232.5,0.489583,Eighth,F4_F3
2006,Right,0,70,80,233.0,0.239583,Sixteenth,A#5_A#4
2007,Left,1,67,80,233.0,0.239583,Sixteenth,G4_G3
2011,Left,1,56,80,233.25,0.239583,Sixteenth,G#4_G#3
2010,Right,0,84,80,233.25,0.239583,Sixteenth,C6_C5
2015,Left,1,70,80,233.5,0.239583,Sixteenth,A#4_A#3
2014,Right,0,85,80,233.5,0.239583,Sixteenth,C#6_C#5
2020,Left,1,72,80,233.75,0.239583,Sixteenth,C5_C4
2018,Right,0,87,80,233.75,0.239583,Sixteenth,D#6_D#5
2022,Right,0,89,80,234.0,0.739583,DottedEighth,F6
2023,Left,1,73,80,234.25,0.239583,Sixteenth,C#5
2024,Left,1,61,80,234.5,0.739583,DottedEighth,C#4
2025,Right,0,77,80,234.75,0.239583,Sixteenth,F5
2026,Right,0,87,80,235.0,0.739583,DottedEighth,D#6
2027,Left,1,72,80,235.25,0.239583,Sixteenth,C5
2028,Left,1,60,80,235.5,0.739583,DottedEighth,C4
2029,Right,0,75,80,235.75,0.239583,Sixteenth,D#5
2030,Right,0,85,80,236.0,0.739583,DottedEighth,C#6
2031,Left,1,70,80,236.25,0.239583,Sixteenth,A#4
2032,Left,1,58,80,236.5,0.739583,DottedEighth,A#3
2033,Right,0,86,80,236.75,0.239583,Sixteenth,D6
2034,Right,0,87,80,237.0,0.739583,DottedEighth,D#6
2035,Left,1,72,80,237.25,0.239583,Sixteenth,C5
2036,Left,1,60,80,237.5,0.739583,DottedEighth,C4
2037,Right,0,75,80,237.75,0.239583,Sixteenth,D#5
2038,Right,0,85,80,238.0,0.739583,DottedEighth,C#6
2039,Left,1,70,80,238.25,0.239583,Sixteenth,A#4
2040,Left,1,58,80,238.5,0.489583,Eighth,A#3
2041,Right,0,73,80,238.75,0.239583,Sixteenth,C#5
2043,Right,0,84,80,239.0,0.239583,Sixteenth,C6
2042,Left,1,68,80,239.0,0.239583,Sixteenth,G#4
2044,Right,0,72,80,239.25,0.239583,Sixteenth,C5
2045,Left,1,56,80,239.25,0.239583,Sixteenth,G#3
2046,Left,1,58,80,239.5,0.239583,Sixteenth,A#3
2047,Right,0,73,80,239.5,0.239583,Sixteenth,C#5
2049,Right,0,75,80,239.75,0.239583,Sixteenth,D#5
2048,Left,1,60,80,239.75,0.239583,Sixteenth,C4
2050,Left,1,63,80,240.0,0.239583,Sixteenth,D#4
2051,Right,0,79,80,240.0,0.239583,Sixteenth,G5
2053,Right,0,76,80,240.25,0.239583,Sixteenth,E5
2052,Left,1,60,80,240.25,0.239583,Sixteenth,C4
2055,Right,0,77,80,240.5,0.239583,Sixteenth,F5
2054,Left,1,61,80,240.5,0.239583,Sixteenth,C#4
2056,Left,1,49,80,240.75,0.239583,Sixteenth,C#3
2057,Right,0,65,80,240.75,0.239583,Sixteenth,F4
2058,Left,1,61,80,241.0,0.239583,Sixteenth,C#4
2059,Right,0,77,80,241.0,0.239583,Sixteenth,F5
2061,Left,1,59,80,241.25,0.239583,Sixteenth,B3
2060,Right,0,74,80,241.25,0.239583,Sixteenth,D5
2063,Left,1,60,80,241.5,0.239583,Sixteenth,C4
2062,Right,0,75,80,241.5,0.239583,Sixteenth,D#5
2064,Left,1,48,80,241.75,0.239583,Sixteenth,C3
2065,Right,0,63,80,241.75,0.239583,Sixteenth,D#4
2067,Left,1,60,80,242.0,0.239583,Sixteenth,C4
2066,Right,0,75,80,242.0,0.239583,Sixteenth,D#5
2068,Left,1,57,80,242.25,0.239583,Sixteenth,A3
2069,Right,0,72,80,242.25,0.239583,Sixteenth,C5
2071,Left,1,58,80,242.5,0.239583,Sixteenth,A#3
2070,Right,0,73,80,242.5,0.239583,Sixteenth,C#5
2073,Left,1,46,80,242.75,0.239583,Sixteenth,A#2
2072,Right,0,61,80,242.75,0.239583,Sixteenth,C#4
2074,Left,1,61,80,243.0,0.239583,Sixteenth,C#4
2075,Right,0,77,80,243.0,0.239583,Sixteenth,F5
2077,Left,1,59,80,243.25,0.239583,Sixteenth,B3
2076,Right,0,74,80,243.25,0.239583,Sixteenth,D5
2078,Right,0,75,80,243.5,0.239583,Sixteenth,D#5
2079,Left,1,60,80,243.5,0.239583,Sixteenth,C4
2081,Left,1,48,80,243.75,0.239583,Sixteenth,C3
2080,Right,0,63,80,243.75,0.239583,Sixteenth,D#4
2083,Left,1,60,80,244.0,0.239583,Sixteenth,C4
2082,Right,0,75,80,244.0,0.239583,Sixteenth,D#5
2084,Right,0,72,80,244.25,0.239583,Sixteenth,C5
2085,Left,1,57,80,244.25,0.239583,Sixteenth,A3
2087,Left,1,58,80,244.5,0.239583,Sixteenth,A#3
2086,Right,0,73,80,244.5,0.239583,Sixteenth,C#5
2089,Right,0,61,80,244.75,0.239583,Sixteenth,C#4
2088,Left,1,46,80,244.75,0.239583,Sixteenth,A#2
2090,Left,1,56,80,245.0,0.239583,Sixteenth,G#3_C3
2092,Right,0,72,80,245.0,0.489583,Sixteenth,D#4_C5
2094,Left,1,55,81,245.25,0.239583,Sixteenth,G3_C#3
2095,Right,0,70,81,245.25,0.239583,Sixteenth,A#4
2099,Right,0,72,83,245.5,0.489583,Sixteenth,D#4_C5
2097,Left,1,56,83,245.5,0.239583,Sixteenth,G#3_C3
2101,Left,1,55,85,245.75,0.239583,Sixteenth,G3_C#3
2103,Right,0,70,85,245.75,0.239583,Sixteenth,A#4
2104,Right,0,63,87,246.0,0.989583,Quarter,D#4_C5
2105,Left,1,56,87,246.0,0.989583,Quarter,G#3_C3
2108,Right,0,63,95,247.0,0.989583,Quarter,D#4_A#4
2109,Left,1,55,95,247.0,0.989583,Quarter,G3_C#3
2112,Left,1,56,103,248.0,0.239583,Sixteenth,G#3_C3
2114,Right,0,63,103,248.0,0.239583,Sixteenth,D#5_D#4
2116,Right,0,68,105,248.25,0.239583,Sixteenth,G#4_D5
2118,Left,1,53,105,248.25,0.239583,Sixteenth,F3_A#2
2120,Right,0,75,107,248.5,0.239583,Sixteenth,D#5_D#4
2121,Left,1,56,107,248.5,0.239583,Sixteenth,G#3_C3
2125,Left,1,46,108,248.75,0.239583,Sixteenth,F3_A#2
2124,Right,0,74,108,248.75,0.239583,Sixteenth,G#4_D5
2129,Left,1,48,110,249.0,0.989583,Quarter,G#3_D#3_C3
2128,Right,0,75,110,249.0,0.989583,Quarter,G#4_D#5_D#4
2135,Right,0,62,80,250.0,0.114583,ThirtySecond,D4
2134,Left,1,46,70,250.0,0.15625,TripletSixteenth,A#2
2136,Left,1,48,70,250.083333,0.15625,TripletSixteenth,C3
2137,Right,0,68,80,250.125,0.114583,ThirtySecond,G#4
2138,Left,1,46,70,250.166667,0.15625,TripletSixteenth,A#2
2139,Left,1,48,70,250.25,0.15625,TripletSixteenth,C3
2140,Right,0,77,80,250.25,1.239583,TiedQuarter-Sixteenth,F5
2141,Left,1,46,71,250.333333,0.15625,TripletSixteenth,A#2
2142,Left,1,48,71,250.416667,0.15625,TripletSixteenth,C3
2143,Left,1,46,71,250.5,0.15625,TripletSixteenth,A#2
2144,Left,1,48,72,250.583333,0.15625,TripletSixteenth,C3
2145,Left,1,46,72,250.666667,0.15625,TripletSixteenth,A#2
2146,Left,1,48,72,250.75,0.15625,TripletSixteenth,C3
2147,Left,1,46,73,250.833333,0.15625,TripletSixteenth,A#2
2148,Left,1,48,73,250.916667,0.15625,TripletSixteenth,C3
2149,Left,1,44,73,251.0,0.15625,TripletSixteenth,G#2
2150,Left,1,46,74,251.083333,0.15625,TripletSixteenth,A#2
2151,Left,1,44,74,251.166667,0.15625,TripletSixteenth,G#2
2152,Left,1,46,74,251.25,0.15625,TripletSixteenth,A#2
2153,Left,1,44,75,251.333333,0.15625,TripletSixteenth,G#2
2154,Left,1,46,75,251.416667,0.15625,TripletSixteenth,A#2
2155,Right,0,63,85,251.5,0.114583,ThirtySecond,D#4
2156,Left,1,44,75,251.5,0.15625,TripletSixteenth,G#2
2157,Left,1,46,76,251.583333,0.15625,TripletSixteenth,A#2
2158,Right,0,70,86,251.625,0.114583,ThirtySecond,A#4
2159,Left,1,44,76,251.666667,0.15625,TripletSixteenth,G#2
2160,Right,0,77,86,251.75,0.739583,DottedEighth,F5
2161,Left,1,46,76,251.75,0.15625,TripletSixteenth,A#2
2162,Left,1,44,77,251.833333,0.15625,TripletSixteenth,G#2
2163,Left,1,46,77,251.916667,0.15625,TripletSixteenth,A#2
2164,Left,1,43,77,252.0,0.15625,TripletSixteenth,G2
2165,Left,1,44,78,252.083333,0.15625,TripletSixteenth,G#2
2166,Left,1,43,78,252.166667,0.15625,TripletSixteenth,G2
2167,Left,1,44,78,252.25,0.15625,TripletSixteenth,G#2
2168,Left,1,43,79,252.333333,0.15625,TripletSixteenth,G2
2169,Left,1,44,79,252.416667,0.15625,TripletSixteenth,G#2
2171,Right,0,63,89,252.5,0.114583,ThirtySecond,D#4
2170,Left,1,43,79,252.5,0.15625,TripletSixteenth,G2
2172,Left,1,44,80,252.583333,0.15625,TripletSixteenth,G#2
2173,Right,0,70,90,252.625,0.114583,ThirtySecond,A#4
2174,Left,1,43,80,252.666667,0.15625,TripletSixteenth,G2
2176,Right,0,79,90,252.75,0.739583,DottedEighth,G5
2175,Left,1,44,80,252.75,0.15625,TripletSixteenth,G#2
2177,Left,1,43,81,252.833333,0.15625,TripletSixteenth,G2
2178,Left,1,44,81,252.916667,0.15625,TripletSixteenth,G#2
2179,Left,1,41,81,253.0,0.15625,TripletSixteenth,F2
2180,Left,1,43,82,253.083333,0.15625,TripletSixteenth,G2
2181,Left,1,41,82,253.166667,0.15625,TripletSixteenth,F2
2182,Left,1,43,82,253.25,0.15625,TripletSixteenth,G2
2183,Left,1,41,83,253.333333,0.15625,TripletSixteenth,F2
2184,Left,1,43,83,253.416667,0.15625,TripletSixteenth,G2
2185,Left,1,41,83,253.5,0.15625,TripletSixteenth,F2
2186,Right,0,65,93,253.5,0.114583,ThirtySecond,F4
2187,Left,1,43,84,253.583333,0.15625,TripletSixteenth,G2
2188,Right,0,70,94,253.625,0.114583,ThirtySecond,A#4
2189,Left,1,41,84,253.666667,0.15625,TripletSixteenth,F2
2191,Right,0,80,94,253.75,0.739583,DottedEighth,G#5
2190,Left,1,43,84,253.75,0.15625,TripletSixteenth,G2
2192,Left,1,41,85,253.833333,0.15625,TripletSixteenth,F2
2193,Left,1,43,85,253.916667,0.15625,TripletSixteenth,G2
2194,Left,1,39,85,254.0,0.15625,TripletSixteenth,D#2
2195,Left,1,41,86,254.083333,0.15625,TripletSixteenth,F2
2196,Left,1,39,86,254.166667,0.15625,TripletSixteenth,D#2
2197,Left,1,41,86,254.25,0.15625,TripletSixteenth,F2
2198,Left,1,39,87,254.333333,0.15625,TripletSixteenth,D#2
2199,Left,1,41,87,254.416667,0.15625,TripletSixteenth,F2
2201,Right,0,67,97,254.5,0.114583,ThirtySecond,G4
2200,Left,1,39,87,254.5,0.15625,TripletSixteenth,D#2
2202,Left,1,41,88,254.583333,0.15625,TripletSixteenth,F2
2203,Right,0,70,98,254.625,0.114583,ThirtySecond,A#4
2204,Left,1,39,88,254.666667,0.15625,TripletSixteenth,D#2
2206,Left,1,41,88,254.75,0.15625,TripletSixteenth,F2
2205,Right,0,82,98,254.75,0.739583,DottedEighth,A#5
2207,Left,1,39,89,254.833333,0.15625,TripletSixteenth,D#2
2208,Left,1,41,89,254.916667,0.15625,TripletSixteenth,F2
2209,Left,1,37,89,255.0,0.15625,TripletSixteenth,C#2
2210,Left,1,39,89,255.083333,0.15625,TripletSixteenth,D#2
2211,Left,1,37,90,255.166667,0.15625,TripletSixteenth,C#2
2212,Left,1,39,90,255.25,0.15625,TripletSixteenth,D#2
2213,Left,1,37,90,255.333333,0.15625,TripletSixteenth,C#2
2214,Left,1,39,91,255.416667,0.15625,TripletSixteenth,D#2
2216,Left,1,37,91,255.5,0.15625,TripletSixteenth,C#2
2215,Right,0,84,101,255.5,0.489583,Eighth,C6
2217,Left,1,39,91,255.583333,0.15625,TripletSixteenth,D#2
2218,Left,1,37,92,255.666667,0.15625,TripletSixteenth,C#2
2219,Left,1,39,92,255.75,0.15625,TripletSixteenth,D#2
2220,Left,1,37,92,255.833333,0.15625,TripletSixteenth,C#2
2221,Left,1,39,93,255.916667,0.15625,TripletSixteenth,D#2
2222,Right,0,85,103,256.0,0.489583,Eighth,C#6
2223,Left,1,37,93,256.0,0.15625,TripletSixteenth,C#2
2224,Left,1,39,93,256.083333,0.15625,TripletSixteenth,D#2
2225,Left,1,37,94,256.166667,0.15625,TripletSixteenth,C#2
2226,Left,1,39,94,256.25,0.15625,TripletSixteenth,D#2
2227,Left,1,37,94,256.333333,0.15625,TripletSixteenth,C#2
2228,Left,1,39,95,256.416667,0.15625,TripletSixteenth,D#2
2230,Right,0,86,105,256.5,0.489583,Eighth,D6
2229,Left,1,37,95,256.5,0.15625,TripletSixteenth,C#2
2231,Left,1,39,95,256.583333,0.15625,TripletSixteenth,D#2
2232,Left,1,37,96,256.666667,0.15625,TripletSixteenth,C#2
2233,Left,1,39,96,256.75,0.15625,TripletSixteenth,D#2
2234,Left,1,37,96,256.833333,0.15625,TripletSixteenth,C#2
2235,Left,1,39,97,256.916667,0.15625,TripletSixteenth,D#2
2236,Left,1,37,97,257.0,0.15625,TripletSixteenth,C#2
2237,Right,0,87,107,257.0,1.489583,DottedQuarter,D#6
2238,Left,1,39,97,257.083333,0.15625,TripletSixteenth,D#2
2239,Left,1,37,98,257.166667,0.15625,TripletSixteenth,C#2
2240,Left,1,36,98,257.25,0.114583,ThirtySecond,C2
2241,Left,1,37,98,257.375,0.114583,ThirtySecond,C#2
2242,Left,1,39,99,257.5,0.114583,ThirtySecond,D#2
2243,Left,1,37,99,257.625,0.114583,ThirtySecond,C#2
2244,Left,1,36,100,257.75,0.114583,ThirtySecond,C2
2245,Left,1,34,100,257.875,0.114583,ThirtySecond,A#1
2246,Left,1,32,114,258.0,0.239583,Sixteenth,G#1
2247,Left,1,48,100,258.25,0.239583,Sixteenth,G#2_C3
2250,Left,1,48,100,258.5,0.239583,Sixteenth,G#2_C3
2249,Right,0,60,110,258.5,0.489583,Eighth,C4
2252,Left,1,48,100,258.75,0.239583,Sixteenth,G2_G#2_C3
2255,Left,1,43,100,259.0,0.239583,Sixteenth,G2_G#2_C3
2258,Left,1,48,100,259.25,0.239583,Sixteenth,G#2_F2_C3
2261,Left,1,48,100,259.5,0.239583,Sixteenth,G#2_F2_C3
2264,Left,1,39,100,259.75,0.239583,Sixteenth,G#2_D#2_C3
2265,Right,0,60,110,259.75,0.239583,Sixteenth,C4
2268,Right,0,61,110,260.0,0.239583,Sixteenth,C#4
2269,Left,1,48,100,260.0,0.239583,Sixteenth,G#2_D#2_C3
2275,Right,0,63,110,260.25,0.239583,Sixteenth,D#4
2272,Left,1,48,100,260.25,0.239583,Sixteenth,G#2_C3_C#2
2279,Right,0,65,110,260.5,0.239583,Sixteenth,F4
2276,Left,1,36,100,260.5,0.239583,Sixteenth,G#2_C3_C2
2283,Right,0,67,110,260.75,0.239583,Sixteenth,G4
2280,Left,1,44,100,260.75,0.239583,Sixteenth,G#2_C3_C2
2284,Left,1,36,100,261.0,0.239583,Sixteenth,C2
2285,Right,0,68,110,261.0,0.489583,Eighth,G#4
2286,Left,1,48,100,261.25,0.239583,Sixteenth,G#2_C3
2290,Right,0,63,110,261.5,0.489583,Eighth,D#4
2288,Left,1,48,100,261.5,0.239583,Sixteenth,G#2_C3
2291,Left,1,43,100,261.75,0.239583,Sixteenth,G2_G#2_C3
2294,Left,1,43,100,262.0,0.239583,Sixteenth,G2_G#2_C3
2297,Left,1,48,100,262.25,0.239583,Sixteenth,G#2_F2_C3
2300,Left,1,48,100,262.5,0.239583,Sixteenth,G#2_F2_C3
2304,Left,1,48,100,262.75,0.239583,Sixteenth,G#2_D#2_C3
2303,Right,0,67,110,262.75,0.239583,Sixteenth,G4
2307,Left,1,44,100,263.0,0.239583,Sixteenth,G#2_D#2_C3
2309,Right,0,68,110,263.0,0.239583,Sixteenth,G#4
2311,Right,0,70,110,263.25,0.239583,Sixteenth,A#4
2312,Left,1,48,100,263.25,0.239583,Sixteenth,G#2_C3_C#2
2315,Left,1,48,100,263.5,0.239583,Sixteenth,G#2_C3_C2
2316,Right,0,72,110,263.5,0.239583,Sixteenth,C5
2319,Left,1,36,100,263.75,0.239583,Sixteenth,G#2_C3_C2
2322,Right,0,73,110,263.75,0.239583,Sixteenth,C#5
2323,Right,0,75,110,264.0,0.489583,Eighth,D#5
2324,Left,1,36,100,264.0,0.239583,Sixteenth,C2
2325,Left,1,48,100,264.25,0.239583,Sixteenth,G#2_C3
2328,Left,1,48,100,264.5,0.239583,Sixteenth,G#2_C3
2327,Right,0,68,110,264.5,0.489583,Eighth,G#4
2330,Left,1,43,100,264.75,0.239583,Sixteenth,G2_G#2_C3
2333,Left,1,48,100,265.0,0.239583,Sixteenth,G2_G#2_C3
2336,Left,1,48,100,265.25,0.239583,Sixteenth,G#2_F2_C3
2339,Left,1,44,100,265.5,0.239583,Sixteenth,G#2_F2_C3
2342,Left,1,48,100,265.75,0.239583,Sixteenth,G#2_D#2_C3
2345,Right,0,80,120,265.75,0.239583,Sixteenth,G#5
2346,Left,1,48,100,266.0,0.239583,Sixteenth,G#2_D#2_C3
2347,Right,0,82,120,266.0,0.239583,Sixteenth,A#5
2352,Right,0,84,120,266.25,0.239583,Sixteenth,C6
2350,Left,1,48,100,266.25,0.239583,Sixteenth,G#2_C3_C#2
2355,Right,0,85,120,266.5,0.239583,Sixteenth,C#6
2354,Left,1,44,100,266.5,0.239583,Sixteenth,G#2_C3_C2
2360,Right,0,87,120,266.75,0.239583,Sixteenth,D#6
2358,Left,1,48,100,266.75,0.239583,Sixteenth,G#2_C3_C2
2362,Left,1,46,100,267.0,0.989583,Quarter,G#2_C#2_A#2
2363,Right,0,89,120,267.0,0.989583,Quarter,F6
2366,Right,0,65,80,268.75,0.239583,Sixteenth,F4_A#4
2367,Left,1,56,80,268.75,0.239583,Sixteenth,G#3_D3
2371,Left,1,55,80,269.0,0.489583,Eighth,G3_D#3
2370,Right,0,75,80,269.0,0.489583,Eighth,G4_D#5
2375,Left,1,58,80,269.75,0.239583,Sixteenth,D#3_A#3
2374,Right,0,75,80,269.75,0.239583,Sixteenth,G4_D#5
2378,Right,0,71,80,270.0,0.989583,Quarter,D5_B4
2379,Left,1,56,80,270.0,0.989583,Quarter,G#3_F3
2382,Left,1,58,80,271.0,0.989583,Quarter,G3_A#3
2383,Right,0,64,80,271.0,0.989583,Quarter,E4_C#5
2388,Left,1,56,80,272.0,0.239583,Sixteenth,G#3_C4
2386,Right,0,72,80,272.0,0.239583,Sixteenth,D#4_C5
2390,Left,1,60,80,272.25,0.239583,Sixteenth,G#3_C4
2392,Right,0,92,80,272.25,0.239583,Sixteenth,G#6
2393,Right,0,91,80,272.5,0.239583,Sixteenth,G6
2394,Left,1,61,80,272.5,0.239583,Sixteenth,C#4_A#3
2398,Right,0,90,80,272.75,0.239583,Sixteenth,F#6
2396,Left,1,63,80,272.75,0.239583,Sixteenth,D#4_C4
2400,Left,1,61,80,273.0,0.489583,Eighth,F4_C#4
2399,Right,0,89,80,273.0,0.114583,ThirtySecond,F6
2402,Right,0,87,80,273.125,0.114583,ThirtySecond,D#6
2403,Right,0,85,80,273.25,0.114583,ThirtySecond,C#6
2404,Right,0,84,80,273.375,0.114583,ThirtySecond,C6
2405,Right,0,83,80,273.5,0.114583,ThirtySecond,B5
2406,Right,0,82,80,273.625,0.114583,ThirtySecond,A#5
2407,Right,0,81,80,273.75,0.114583,ThirtySecond,A5
2408,Right,0,80,80,273.875,0.114583,ThirtySecond,G#5
2409,Right,0,79,80,274.0,0.114583,ThirtySecond,G5
2410,Right,0,78,80,274.125,0.114583,ThirtySecond,F#5
2411,Right,0,77,80,274.25,0.114583,ThirtySecond,F5
2412,Right,0,76,80,274.375,0.114583,ThirtySecond,E5
2415,Right,0,75,80,274.5,0.114583,ThirtySecond,D#5
2413,Left,1,49,80,274.5,0.239583,Sixteenth,G#3_F3_C#3
2417,Right,0,73,80,274.625,0.114583,ThirtySecond,C#5
2421,Right,0,72,80,274.75,0.114583,ThirtySecond,C5
2418,Left,1,56,80,274.75,0.239583,Sixteenth,G#3_F3_D3
2422,Right,0,70,80,274.875,0.114583,ThirtySecond,A#4
2425,Left,1,51,80,275.0,0.489583,Eighth,G3_D#3
2423,Right,0,75,80,275.0,0.489583,Eighth,D#5_A#4
2428,Left,1,51,80,275.75,0.239583,Sixteenth,D#3_A#3
2427,Right,0,75,80,275.75,0.239583,Sixteenth,G4_D#5
2431,Right,0,75,80,276.0,2.239583,Eighth,G#4_D#5
2432,Left,1,60,80,276.0,1.239583,Eighth,G#3_C4
2436,Right,0,77,80,276.5,0.239583,Sixteenth,F5
2435,Left,1,61,80,276.5,0.239583,Sixteenth,C#4
2437,Left,1,60,80,276.75,0.239583,Sixteenth,C4
2438,Right,0,75,80,276.75,0.239583,Sixteenth,D#5
2439,Left,1,58,80,277.0,0.239583,Sixteenth,A#3
2440,Right,0,73,80,277.0,0.239583,Sixteenth,C#5
2441,Left,1,56,80,277.25,0.239583,Sixteenth,G#3
2442,Right,0,72,80,277.25,0.239583,Sixteenth,C5
2444,Left,1,55,80,277.5,0.239583,Sixteenth,G3
2443,Right,0,70,80,277.5,0.239583,Sixteenth,A#4
2446,Left,1,56,80,277.75,0.239583,Sixteenth,G#3
2445,Right,0,72,80,277.75,0.239583,Sixteenth,C5
2447,Left,1,58,80,278.0,0.989583,Quarter,D#3_A#3
2448,Right,0,73,80,278.0,0.989583,Quarter,C#5
2450,Right,0,65,80,278.25,0.239583,Sixteenth,F4
2451,Right,0,68,80,278.5,0.239583,Sixteenth,G#4
2452,Right,0,67,80,278.75,0.239583,Sixteenth,G4
2453,Right,0,68,80,279.0,0.239583,Sixteenth,G#4_C5
2454,Left,1,44,80,279.0,1.239583,TiedQuarter-Sixteenth,G#3_G#2
2457,Left,1,48,80,279.25,0.239583,Sixteenth,C3
2458,Right,0,63,80,279.25,0.239583,Sixteenth,D#4
2460,Right,0,65,80,279.5,0.239583,Sixteenth,F4
2459,Left,1,49,80,279.5,0.239583,Sixteenth,C#3
2462,Right,0,63,80,279.75,0.239583,Sixteenth,D#4
2461,Left,1,48,80,279.75,0.239583,Sixteenth,C3
2464,Right,0,61,80,280.0,0.239583,Sixteenth,C#4
2463,Left,1,46,80,280.0,0.239583,Sixteenth,A#2
2465,Left,1,44,80,280.25,0.239583,Sixteenth,G#2
2466,Right,0,60,80,280.25,0.239583,Sixteenth,C4
2468,Left,1,43,80,280.5,0.239583,Sixteenth,G2
2467,Right,0,58,80,280.5,0.239583,Sixteenth,A#3
2469,Right,0,60,80,280.75,0.239583,Sixteenth,C4
2470,Left,1,44,80,280.75,0.239583,Sixteenth,G#2
2472,Right,0,68,80,281.0,0.989583,Sixteenth,G#4_C#4
2471,Left,1,46,80,281.0,0.989583,Quarter,D#2_A#2
2475,Right,0,65,80,281.25,0.239583,Sixteenth,F4
2476,Right,0,68,80,281.5,0.239583,Sixteenth,G#4
2477,Right,0,67,80,281.75,0.239583,Sixteenth,G4
2479,Left,1,32,80,282.0,0.989583,Quarter,G#2_G#1
2478,Right,0,70,80,282.0,0.239583,Sixteenth,A#4
2481,Right,0,67,80,282.25,0.239583,Sixteenth,G4
2482,Right,0,70,80,282.5,0.239583,Sixteenth,A#4
2483,Right,0,68,80,282.75,0.239583,Sixteenth,G#4
2484,Right,0,73,80,283.0,0.239583,Sixteenth,C#5
2485,Left,1,44,80,283.0,2.989583,DottedHalf,G#2_G#1_D#2_C2
2489,Right,0,71,80,283.25,0.239583,Sixteenth,B4
2490,Right,0,73,80,283.5,0.239583,Sixteenth,C#5
2491,Right,0,72,80,283.75,0.239583,Sixteenth,C5
2492,Right,0,77,80,284.0,0.239583,Sixteenth,F5
2493,Right,0,74,80,284.25,0.239583,Sixteenth,D5
2494,Right,0,77,80,284.5,0.239583,Sixteenth,F5
2495,Right,0,75,80,284.75,0.239583,Sixteenth,D#5
2496,Right,0,82,80,285.0,0.239583,Sixteenth,A#5
2497,Right,0,79,80,285.25,0.239583,Sixteenth,G5
2498,Right,0,82,80,285.5,0.239583,Sixteenth,A#5
2499,Right,0,80,80,285.75,0.239583,Sixteenth,G#5
2504,Right,0,85,80,286.0,0.239583,Sixteenth,C#6
2500,Left,1,56,80,286.0,0.989583,Quarter,G#3_G#2_D#3_C3
2505,Right,0,83,80,286.25,0.239583,Sixteenth,B5
2506,Right,0,85,80,286.5,0.239583,Sixteenth,C#6
2507,Right,0,84,80,286.75,0.239583,Sixteenth,C6
2508,Right,0,89,80,287.0,0.239583,Sixteenth,F6
2509,Left,1,63,80,287.0,0.989583,Quarter,G#3_D#4_C4
2512,Right,0,86,80,287.25,0.239583,Sixteenth,D6
2513,Right,0,89,80,287.5,0.239583,Sixteenth,F6
2514,Right,0,87,80,287.75,0.239583,Sixteenth,D#6
2519,Right,0,87,80,288.0,0.239583,Sixteenth,D#6
2515,Left,1,53,80,288.0,0.989583,Quarter,G#3_F3_D4_A#3
2520,Right,0,84,80,288.25,0.239583,Sixteenth,C6
2521,Right,0,87,81,288.5,0.239583,Sixteenth,D#6
2522,Right,0,86,82,288.75,0.239583,Sixteenth,D6
2523,Right,0,96,83,289.0,0.239583,Sixteenth,C7
2524,Left,1,56,83,289.0,1.989583,Half,G#3_F3_D4_A#3
2528,Right,0,93,84,289.25,0.239583,Sixteenth,A6
2529,Right,0,96,85,289.5,0.239583,Sixteenth,C7
2530,Right,0,94,86,289.75,0.239583,Sixteenth,A#6
2531,Right,0,87,87,290.0,0.239583,Sixteenth,D#6
2532,Right,0,84,87,290.25,0.239583,Sixteenth,C6
2533,Right,0,87,88,290.5,0.239583,Sixteenth,D#6
2534,Right,0,86,89,290.75,0.239583,Sixteenth,D6
2535,Left,1,58,90,291.0,0.989583,Quarter,G3_D#4_D#3_A#3
2538,Right,0,89,90,291.0,0.239583,Sixteenth,F6
2540,Right,0,86,91,291.25,0.239583,Sixteenth,D6
2541,Right,0,89,92,291.5,0.239583,Sixteenth,F6
2542,Right,0,87,93,291.75,0.239583,Sixteenth,D#6
2543,Right,0,96,94,292.0,0.239583,Sixteenth,C7
2544,Left,1,63,94,292.0,0.989583,Quarter,G3_D#4_D#3_A#3
2548,Right,0,93,95,292.25,0.239583,Sixteenth,A6
2549,Right,0,96,95,292.5,0.239583,Sixteenth,C7
2550,Right,0,94,96,292.75,0.239583,Sixteenth,A#6
2551,Left,1,55,97,293.0,0.989583,Quarter,G3_D#4_D#3_A#3
2554,Right,0,89,97,293.0,0.239583,Sixteenth,F6
2556,Right,0,86,98,293.25,0.239583,Sixteenth,D6
2557,Right,0,89,99,293.5,0.239583,Sixteenth,F6
2558,Right,0,87,100,293.75,0.239583,Sixteenth,D#6
2559,Left,1,62,101,294.0,0.989583,Quarter,G#3_F3_D4_A#3
2560,Right,0,87,101,294.0,0.239583,Sixteenth,D#6
2564,Right,0,84,102,294.25,0.239583,Sixteenth,C6
2565,Right,0,87,103,294.5,0.239583,Sixteenth,D#6
2566,Right,0,86,103,294.75,0.239583,Sixteenth,D6
2568,Left,1,53,104,295.0,1.989583,Half,G#3_F3_D4_A#3
2567,Right,0,96,104,295.0,0.239583,Sixteenth,C7
2572,Right,0,93,105,295.25,0.239583,Sixteenth,A6
2573,Right,0,96,106,295.5,0.239583,Sixteenth,C7
2574,Right,0,94,107,295.75,0.239583,Sixteenth,A#6
2575,Right,0,87,108,296.0,0.239583,Sixteenth,D#6
2576,Right,0,84,109,296.25,0.239583,Sixteenth,C6
2577,Right,0,87,110,296.5,0.239583,Sixteenth,D#6
2578,Right,0,86,110,296.75,0.239583,Sixteenth,D6
2583,Right,0,89,100,297.0,0.239583,Sixteenth,F6
2579,Left,1,63,100,297.0,0.989583,Quarter,G3_D#4_D#3_A#3
2584,Right,0,86,97,297.25,0.239583,Sixteenth,D6
2585,Right,0,89,94,297.5,0.239583,Sixteenth,F6
2586,Right,0,87,91,297.75,0.239583,Sixteenth,D#6
2587,Right,0,79,80,298.0,2.489583,Half,G5_F6
2589,Left,1,58,80,298.0,2.489583,Half,C#3_A#3
2591,Right,0,68,80,300.5,0.489583,Eighth,G#4_D#5
2592,Left,1,60,80,300.5,0.489583,Eighth,C4_C3
2595,Right,0,68,80,301.0,2.489583,Half,G#4_D#5
2597,Left,1,48,80,301.0,2.489583,Half,C4_C3
2601,Right,0,70,75,303.5,0.489583,Eighth,C#5_A#4
2599,Left,1,55,75,303.5,0.489583,Eighth,G3_E3
2603,Right,0,73,75,304.0,2.489583,Half,C#5_A#4
2605,Left,1,55,75,304.0,2.489583,Half,G3_E3
2609,Left,1,56,70,306.5,0.489583,Eighth,G#3_F3
2607,Right,0,68,70,306.5,0.489583,Eighth,G#4_C5
2611,Left,1,56,70,307.0,2.489583,Half,G#3_F3
2613,Right,0,68,70,307.0,2.489583,Half,G#4_C5
2616,Left,1,51,70,309.5,0.489583,Eighth,D#3_A#3
2615,Right,0,67,70,309.5,0.489583,Eighth,G4_D#5
2621,Right,0,67,70,310.0,1.989583,Half,G4_D#5
2619,Left,1,51,70,310.0,1.989583,Half,D#3_A#3
2624,Right,0,68,80,312.0,0.114583,ThirtySecond,G#4
2623,Left,1,56,80,312.0,0.489583,Eighth,G#3_C4
2626,Right,0,75,80,312.125,0.114583,ThirtySecond,D#5
2627,Right,0,72,80,312.25,0.114583,ThirtySecond,C5
2628,Right,0,75,80,312.375,0.114583,ThirtySecond,D#5
2629,Right,0,80,80,312.5,0.114583,ThirtySecond,G#5
2630,Right,0,75,80,312.625,0.114583,ThirtySecond,D#5
2631,Right,0,72,80,312.75,0.114583,ThirtySecond,C5
2632,Right,0,75,80,312.875,0.114583,ThirtySecond,D#5
2633,Right,0,68,80,313.0,0.114583,ThirtySecond,G#4
2634,Right,0,63,80,313.125,0.114583,ThirtySecond,D#4
2635,Right,0,60,80,313.25,0.114583,ThirtySecond,C4
2636,Right,0,63,80,313.375,0.114583,ThirtySecond,D#4
2637,Right,0,56,80,313.5,0.114583,ThirtySecond,G#3
2638,Right,0,51,80,313.625,0.114583,ThirtySecond,D#3
2639,Right,0,48,80,313.75,0.114583,ThirtySecond,C3
2640,Right,0,51,80,313.875,0.114583,ThirtySecond,D#3
2641,Right,0,44,80,314.0,0.114583,ThirtySecond,G#2
2642,Right,0,39,80,314.125,0.114583,ThirtySecond,D#2
2643,Right,0,36,80,314.25,0.114583,ThirtySecond,C2
2644,Right,0,39,80,314.375,0.114583,ThirtySecond,D#2
2645,Left,1,32,80,314.5,0.114583,ThirtySecond,G#1
2646,Left,1,36,80,314.625,0.114583,ThirtySecond,C2
2647,Left,1,39,80,314.75,0.114583,ThirtySecond,D#2
2648,Left,1,44,80,314.875,0.114583,ThirtySecond,G#2
2652,Right,0,43,80,315.0,0.114583,ThirtySecond,G2
2649,Left,1,46,80,315.0,0.489583,Eighth,D#2_A#2_A#1
2653,Right,0,51,80,315.125,0.114583,ThirtySecond,D#3
2654,Right,0,49,80,315.25,0.114583,ThirtySecond,C#3
2655,Right,0,51,80,315.375,0.114583,ThirtySecond,D#3
2656,Right,0,55,80,315.5,0.114583,ThirtySecond,G3
2657,Right,0,51,80,315.625,0.114583,ThirtySecond,D#3
2658,Right,0,49,80,315.75,0.114583,ThirtySecond,C#3
2659,Right,0,51,80,315.875,0.114583,ThirtySecond,D#3
2660,Left,1,34,80,316.0,0.489583,Eighth,D#2_A#2_A#1
2661,Right,0,55,80,316.0,0.114583,ThirtySecond,G3
2664,Right,0,63,80,316.125,0.114583,ThirtySecond,D#4
2665,Right,0,61,80,316.25,0.114583,ThirtySecond,C#4
2666,Right,0,63,80,316.375,0.114583,ThirtySecond,D#4
2667,Right,0,67,80,316.5,0.114583,ThirtySecond,G4
2668,Right,0,63,80,316.625,0.114583,ThirtySecond,D#4
2669,Right,0,61,80,316.75,0.114583,ThirtySecond,C#4
2670,Right,0,63,80,316.875,0.114583,ThirtySecond,D#4
2671,Left,1,39,80,317.0,0.489583,Eighth,D#2_A#2_A#1
2674,Right,0,67,80,317.0,0.114583,ThirtySecond,G4
2675,Right,0,75,80,317.125,0.114583,ThirtySecond,D#5
2676,Right,0,73,80,317.25,0.114583,ThirtySecond,C#5
2677,Right,0,75,80,317.375,0.114583,ThirtySecond,D#5
2678,Right,0,79,80,317.5,0.114583,ThirtySecond,G5
2679,Right,0,75,80,317.625,0.114583,ThirtySecond,D#5
2680,Right,0,73,80,317.75,0.114583,ThirtySecond,C#5
2681,Right,0,75,80,317.875,0.114583,ThirtySecond,D#5
2682,Right,0,80,80,318.0,0.114583,ThirtySecond,G#5
2683,Left,1,48,80,318.0,0.489583,Eighth,D#2_C3_C2
2686,Right,0,87,80,318.125,0.114583,ThirtySecond,D#6
2687,Right,0,84,80,318.25,0.114583,ThirtySecond,C6
2688,Right,0,87,80,318.375,0.114583,ThirtySecond,D#6
2689,Right,0,92,80,318.5,0.114583,ThirtySecond,G#6
2690,Right,0,87,80,318.625,0.114583,ThirtySecond,D#6
2691,Right,0,84,80,318.75,0.114583,ThirtySecond,C6
2692,Right,0,87,80,318.875,0.114583,ThirtySecond,D#6
2693,Right,0,80,80,319.0,0.114583,ThirtySecond,G#5
2694,Right,0,75,80,319.125,0.114583,ThirtySecond,D#5
2695,Right,0,72,80,319.25,0.114583,ThirtySecond,C5
2696,Right,0,75,80,319.375,0.114583,ThirtySecond,D#5
2697,Right,0,68,80,319.5,0.114583,ThirtySecond,G#4
2698,Right,0,63,80,319.625,0.114583,ThirtySecond,D#4
2699,Right,0,60,80,319.75,0.114583,ThirtySecond,C4
2700,Right,0,63,80,319.875,0.114583,ThirtySecond,D#4
2701,Right,0,56,80,319.9375,0.114583,ThirtySecond,G#3
2702,Right,0,51,80,320.0625,0.114583,ThirtySecond,D#3
2703,Right,0,48,80,320.1875,0.114583,ThirtySecond,C3
2704,Right,0,51,80,320.3125,0.114583,ThirtySecond,D#3
2705,Right,0,44,80,320.5,0.114583,ThirtySecond,G#2
2706,Right,0,51,80,320.625,0.114583,ThirtySecond,D#3
2707,Right,0,48,80,320.75,0.114583,ThirtySecond,C3
2708,Right,0,51,80,320.875,0.114583,ThirtySecond,D#3
2710,Right,0,46,80,321.0,0.114583,ThirtySecond,A#2
2709,Left,1,43,80,321.0,0.489583,Eighth,G2_G1_D#2
2713,Right,0,51,80,321.125,0.114583,ThirtySecond,D#3
2714,Right,0,49,80,321.25,0.114583,ThirtySecond,C#3
2715,Right,0,51,80,321.375,0.114583,ThirtySecond,D#3
2716,Right,0,58,80,321.5,0.114583,ThirtySecond,A#3
2717,Right,0,51,80,321.625,0.114583,ThirtySecond,D#3
2718,Right,0,49,80,321.75,0.114583,ThirtySecond,C#3
2719,Right,0,51,80,321.875,0.114583,ThirtySecond,D#3
2721,Left,1,51,80,322.0,0.489583,Eighth,G3_G2_D#3
2720,Right,0,58,80,322.0,0.114583,ThirtySecond,A#3
2724,Right,0,63,80,322.125,0.114583,ThirtySecond,D#4
2725,Right,0,61,80,322.25,0.114583,ThirtySecond,C#4
2726,Right,0,63,80,322.375,0.114583,ThirtySecond,D#4
2727,Right,0,70,80,322.5,0.114583,ThirtySecond,A#4
2728,Right,0,63,80,322.625,0.114583,ThirtySecond,D#4
2729,Right,0,61,80,322.75,0.114583,ThirtySecond,C#4
2730,Right,0,63,80,322.875,0.114583,ThirtySecond,D#4
2731,Left,1,51,80,323.0,0.489583,Eighth,G3_G2_D#3
2734,Right,0,70,80,323.0,0.114583,ThirtySecond,A#4
2735,Right,0,75,80,323.125,0.114583,ThirtySecond,D#5
2736,Right,0,73,80,323.25,0.114583,ThirtySecond,C#5
2737,Right,0,75,80,323.375,0.114583,ThirtySecond,D#5
2738,Right,0,82,80,323.5,0.114583,ThirtySecond,A#5
2739,Right,0,75,80,323.625,0.114583,ThirtySecond,D#5
2740,Right,0,73,80,323.75,0.114583,ThirtySecond,C#5
2741,Right,0,75,80,323.875,0.114583,ThirtySecond,D#5
2745,Right,0,72,80,324.0,0.114583,ThirtySecond,C5
2742,Left,1,44,80,324.0,0.489583,Eighth,G#3_G#2_D#3
2746,Right,0,75,80,324.125,0.114583,ThirtySecond,D#5
2747,Right,0,72,81,324.25,0.114583,ThirtySecond,C5
2748,Right,0,75,81,324.375,0.114583,ThirtySecond,D#5
2749,Right,0,84,82,324.5,0.114583,ThirtySecond,C6
2750,Right,0,75,83,324.625,0.114583,ThirtySecond,D#5
2751,Right,0,72,83,324.75,0.114583,ThirtySecond,C5
2752,Right,0,75,84,324.875,0.114583,ThirtySecond,D#5
2754,Left,1,53,85,325.0,0.489583,Eighth,G#3_F4_F3
2753,Right,0,73,85,325.0,0.114583,ThirtySecond,C#5
2757,Right,0,80,85,325.125,0.114583,ThirtySecond,G#5
2758,Right,0,73,86,325.25,0.114583,ThirtySecond,C#5
2759,Right,0,80,87,325.375,0.114583,ThirtySecond,G#5
2760,Right,0,85,87,325.5,0.114583,ThirtySecond,C#6
2761,Right,0,80,88,325.625,0.114583,ThirtySecond,G#5
2762,Right,0,77,89,325.75,0.114583,ThirtySecond,F5
2763,Right,0,80,89,325.875,0.114583,ThirtySecond,G#5
2764,Right,0,75,90,326.0,0.114583,ThirtySecond,D#5
2765,Left,1,56,90,326.0,0.489583,Eighth,G#3_C4_C3
2768,Right,0,87,91,326.125,0.114583,ThirtySecond,D#6
2769,Right,0,80,91,326.25,0.114583,ThirtySecond,G#5
2770,Right,0,87,92,326.375,0.114583,ThirtySecond,D#6
2771,Left,1,56,93,326.5,0.489583,Eighth,G#3_C4_C3
2772,Right,0,76,93,326.5,0.114583,ThirtySecond,E5
2775,Right,0,88,93,326.625,0.114583,ThirtySecond,E6
2776,Right,0,80,94,326.75,0.114583,ThirtySecond,G#5
2777,Right,0,88,95,326.875,0.114583,ThirtySecond,E6
2780,Right,0,77,95,327.0,0.114583,ThirtySecond,F5
2778,Left,1,56,95,327.0,0.489583,Eighth,G#3_C#4_C#3
2782,Right,0,89,96,327.125,0.114583,ThirtySecond,F6
2783,Right,0,77,97,327.25,0.114583,ThirtySecond,F5
2784,Right,0,80,97,327.375,0.114583,ThirtySecond,G#5
2785,Right,0,89,98,327.5,0.114583,ThirtySecond,F6
2786,Right,0,85,99,327.625,0.114583,ThirtySecond,C#6
2787,Right,0,80,99,327.75,0.114583,ThirtySecond,G#5
2788,Right,0,85,100,327.875,0.114583,ThirtySecond,C#6
2792,Right,0,79,101,328.0,0.114583,ThirtySecond,G5
2789,Left,1,58,101,328.0,0.489583,Eighth,D#3_A#3_A#2
2793,Right,0,87,101,328.125,0.114583,ThirtySecond,D#6
2794,Right,0,85,102,328.25,0.114583,ThirtySecond,C#6
2795,Right,0,87,103,328.375,0.114583,ThirtySecond,D#6
2796,Right,0,91,103,328.5,0.114583,ThirtySecond,G6
2797,Right,0,87,104,328.625,0.114583,ThirtySecond,D#6
2798,Right,0,85,105,328.75,0.114583,ThirtySecond,C#6
2799,Right,0,87,105,328.875,0.114583,ThirtySecond,D#6
2803,Right,0,79,106,329.0,0.114583,ThirtySecond,G5
2800,Left,1,60,106,329.0,0.489583,Eighth,D#3_C4_C3
2804,Right,0,91,106,329.125,0.114583,ThirtySecond,G6
2805,Right,0,87,107,329.25,0.114583,ThirtySecond,D#6
2806,Right,0,91,108,329.375,0.114583,ThirtySecond,G6
2807,Left,1,48,108,329.5,0.489583,Eighth,D#3_C4_C3
2810,Right,0,80,108,329.5,0.114583,ThirtySecond,G#5
2811,Right,0,92,109,329.625,0.114583,ThirtySecond,G#6
2812,Right,0,87,110,329.75,0.114583,ThirtySecond,D#6
2813,Right,0,92,110,329.875,0.114583,ThirtySecond,G#6
2814,Left,1,56,80,330.0,1.989583,Eighth,G#3_C#3
2816,Right,0,77,80,330.0,1.239583,TiedQuarter-Sixteenth,F5
2817,Left,1,57,80,330.5,0.489583,Eighth,A3
2818,Left,1,58,80,331.0,0.489583,Eighth,A#3
2819,Right,0,70,80,331.25,0.239583,Sixteenth,A#4
2820,Left,1,60,80,331.5,0.239583,Sixteenth,C4
2821,Right,0,72,80,331.5,0.239583,Sixteenth,C5
2822,Left,1,61,80,331.75,0.239583,Sixteenth,C#4
2823,Right,0,73,80,331.75,0.239583,Sixteenth,C#5
2825,Left,1,58,80,332.0,0.989583,Quarter,G3_D#3_A#3
2824,Right,0,67,80,332.0,0.489583,Eighth,G4
2828,Right,0,75,80,332.5,0.739583,DottedEighth,D#5
2829,Left,1,63,80,333.0,1.489583,DottedQuarter,D#4_C4
2831,Right,0,73,82,333.25,0.239583,Sixteenth,C#5
2832,Right,0,72,85,333.5,0.239583,Sixteenth,C5
2833,Right,0,84,88,333.75,0.239583,Sixteenth,C6
2834,Right,0,82,91,334.0,0.239583,Sixteenth,A#5
2835,Right,0,79,94,334.25,0.239583,Sixteenth,G5
2836,Left,1,56,96,334.5,0.489583,Eighth,G#3_C4
2837,Right,0,82,96,334.5,0.239583,Sixteenth,A#5
2839,Right,0,80,99,334.75,0.239583,Sixteenth,G#5
2842,Right,0,84,102,335.0,0.239583,Sixteenth,C6
2840,Left,1,60,102,335.0,0.739583,DottedEighth,G#3_C4
2843,Right,0,80,105,335.25,0.239583,Sixteenth,G#5
2844,Right,0,75,108,335.5,0.239583,Sixteenth,D#5
2845,Left,1,56,110,335.75,0.489583,Eighth,G#3_C4
2847,Right,0,76,110,335.75,0.239583,Sixteenth,E5
2848,Left,1,49,80,336.0,1.239583,TiedQuarter-Sixteenth,C#3
2849,Right,0,77,80,336.0,1.302083,TiedQuarter-Sixteenth,F5
2850,Left,1,56,80,336.25,0.239583,Sixteenth,G#3
2851,Left,1,58,80,336.5,0.239583,Sixteenth,A#3
2852,Left,1,60,80,336.75,0.239583,Sixteenth,C4
2853,Left,1,61,80,337.0,0.239583,Sixteenth,C#4
2855,Left,1,49,80,337.25,0.239583,Sixteenth,C#3
2854,Right,0,70,80,337.25,0.239583,Sixteenth,A#4
2856,Right,0,72,80,337.5,0.239583,Sixteenth,C5
2857,Left,1,51,80,337.5,0.239583,Sixteenth,D#3
2858,Right,0,73,80,337.75,0.239583,Sixteenth,C#5
2859,Left,1,53,80,337.75,0.239583,Sixteenth,F3
2861,Right,0,67,80,338.0,0.489583,Eighth,G4
2860,Left,1,51,80,338.0,0.239583,Sixteenth,D#3
2862,Left,1,39,80,338.25,0.239583,Sixteenth,D#2
2864,Right,0,75,80,338.5,0.489583,Eighth,D#5
2863,Left,1,41,80,338.5,0.239583,Sixteenth,F2
2865,Left,1,43,80,338.75,0.239583,Sixteenth,G2
2868,Left,1,32,80,339.0,2.489583,Half,G#2_G#1
2866,Right,0,72,80,339.0,0.989583,Quarter,G#4_D#4_C5
2872,Left,1,41,90,340.0,0.489583,Eighth,F2
2871,Right,0,68,90,340.0,1.489583,Eighth,G#4_C#5
2875,Left,1,37,95,340.5,0.489583,Eighth,C#2
2874,Right,0,65,95,340.5,0.489583,Eighth,F4
2877,Right,0,70,100,341.0,0.489583,Eighth,A#4
2876,Left,1,43,100,341.0,0.489583,Eighth,G2
2879,Right,0,73,105,341.5,0.489583,Eighth,G4_E4_C#5
2878,Left,1,32,105,341.5,0.489583,Eighth,G#1_A#2
2883,Right,0,64,110,342.0,1.989583,Half,G4_E4_C#5
2886,Left,1,32,110,342.0,1.989583,Half,G#1_A#2
2888,Right,0,63,103,343.0,0.989583,Quarter,D#4
2892,Left,1,44,80,344.0,0.489583,Eighth,G#2_G#1
2889,Right,0,72,80,344.0,0.489583,Eighth,G#4_D#4_C5
2895,Left,1,44,80,345.0,1.489583,DottedQuarter,G#2_G#1
2894,Right,0,63,80,345.0,1.489583,DottedQuarter,G#4_D#4_C5
