,hand,channel,note,velocity,start_beat,duration,note_value,chord
1,Left,1,53,80,0.0,0.989583,Quarter,F3_F2
0,Right,0,68,80,0.0,0.989583,Quarter,G#4_C5
5,Left,1,55,80,1.0,0.989583,Quarter,G3_G2
4,Right,0,64,80,1.0,0.989583,Quarter,E4_A#4
8,Left,1,56,80,2.0,0.989583,Quarter,G#3_G#2
10,Right,0,65,80,2.0,0.989583,Quarter,G#4_F4
13,Left,1,58,80,3.0,0.989583,Quarter,A#3_A#2
12,Right,0,67,80,3.0,0.989583,Quarter,G4_E4_C#4
17,Right,0,56,80,4.0,0.989583,Quarter,G#3_F4_D4
20,Left,1,59,80,4.0,0.989583,Quarter,B3_B2
24,Right,0,56,80,5.0,0.989583,Quarter,G#3_F4_D4
22,Left,1,59,80,5.0,0.989583,Quarter,B3_B2
29,Right,0,64,80,6.0,1.989583,Half,G3_E4
27,Left,1,48,80,6.0,1.989583,Half,C4_C3
31,Right,0,79,120,8.0,0.989583,Quarter,G5_E5_C5
34,Left,1,48,120,8.0,0.989583,Quarter,C3_C2
36,Left,1,52,120,9.0,0.989583,Quarter,E3_E2
38,Right,0,67,120,9.0,0.989583,Quarter,G4_E5_C5
41,Left,1,55,120,10.0,0.989583,Quarter,G3_G2
43,Right,0,64,120,10.0,0.989583,Quarter,G4_E4_C5
46,Left,1,60,120,11.0,0.989583,Quarter,C4_C3
48,Right,0,64,120,11.0,0.989583,Quarter,G4_E4_C5
51,Left,1,55,120,12.0,0.989583,Quarter,G3_G2
53,Right,0,64,120,12.0,0.989583,Quarter,G4_E4_C5
56,Right,0,74,120,13.0,0.989583,Quarter,G4_D5_B4
59,Left,1,43,120,13.0,0.989583,Quarter,G2_G1
62,Right,0,76,120,14.0,1.989583,Half,G4_E5_C5
61,Left,1,36,120,14.0,1.989583,Half,C3_C2
66,Left,1,53,80,16.0,0.989583,Quarter,F3_F2
68,Right,0,72,80,16.0,0.989583,Quarter,G#4_C5
70,Right,0,70,80,17.0,0.989583,Quarter,E4_A#4
71,Left,1,43,80,17.0,0.989583,Quarter,G3_G2
75,Right,0,65,80,18.0,0.989583,Quarter,G#4_F4
74,Left,1,44,80,18.0,0.989583,Quarter,G#3_G#2
78,Right,0,64,80,19.0,0.989583,Quarter,G4_E4_C#4
79,Left,1,58,80,19.0,0.989583,Quarter,A#3_A#2
83,Left,1,47,80,20.0,0.989583,Quarter,B3_B2
84,Right,0,56,80,20.0,0.989583,Quarter,G#3_F4_D4
88,Left,1,47,80,21.0,0.989583,Quarter,B3_B2
89,Right,0,65,80,21.0,0.989583,Quarter,G#3_F4_D4
95,Right,0,55,80,22.0,1.989583,Half,G3_E4
93,Left,1,48,80,22.0,1.989583,Half,C4_C3
99,Right,0,79,120,24.0,0.989583,Quarter,G5_E5_C5
97,Left,1,36,120,24.0,0.989583,Quarter,C3_C2
102,Right,0,76,120,25.0,0.989583,Quarter,G4_E5_C5
103,Left,1,52,120,25.0,0.989583,Quarter,E3_E2
109,Right,0,72,120,26.0,0.989583,Quarter,G4_E4_C5
107,Left,1,43,120,26.0,0.989583,Quarter,G3_G2
112,Left,1,60,120,27.0,0.989583,Quarter,C4_C3
114,Right,0,64,120,27.0,0.989583,Quarter,G4_E4_C5
119,Right,0,64,120,28.0,0.989583,Quarter,G4_E4_C5
117,Left,1,43,120,28.0,0.989583,Quarter,G3_G2
125,Left,1,43,120,29.0,0.989583,Quarter,G2_G1
122,Right,0,71,120,29.0,0.989583,Quarter,G4_D5_B4
130,Left,1,48,120,30.0,1.989583,Half,C3_C2
127,Right,0,76,120,30.0,1.989583,Half,G4_E5_C5
132,Left,1,48,120,32.0,0.989583,Quarter,C3_C2
134,Right,0,79,120,32.0,0.989583,Quarter,G5_E5
136,Right,0,74,120,33.0,0.989583,Quarter,G5_D5
138,Left,1,35,120,33.0,0.989583,Quarter,B2_B1
140,Right,0,79,120,34.0,2.989583,Quarter,G5_E5
142,Left,1,36,120,34.0,2.989583,DottedHalf,C3_C2
144,Right,0,80,120,35.0,0.989583,Quarter,G#5
145,Right,0,80,120,36.0,0.989583,Quarter,G#5
146,Right,0,80,120,37.0,1.989583,Quarter,G#5_F5
148,Left,1,37,120,37.0,1.989583,Half,C#3_C#2
150,Right,0,80,120,38.0,0.989583,Quarter,G#5
151,Left,1,38,120,39.0,1.989583,Half,D3_D2
153,Right,0,82,120,39.0,1.989583,Half,G#5_F5_A#5
156,Right,0,82,120,40.0,0.989583,Quarter,A#5
158,Right,0,75,120,41.0,2.989583,Quarter,G5_D#5_A#5
157,Left,1,39,120,41.0,1.989583,Half,D#3_D#2
162,Right,0,79,120,42.0,0.989583,Quarter,G5_A#5
166,Right,0,80,120,43.0,0.989583,Quarter,G#5_C6
164,Left,1,44,120,43.0,0.989583,Quarter,G#2_G#1
169,Right,0,85,120,44.0,0.989583,Quarter,F5_C#6_A#5
168,Left,1,37,120,44.0,0.989583,Quarter,C#3_C#2
173,Right,0,73,120,45.0,0.989583,Quarter,G5_C#5_A#5
174,Left,1,39,120,45.0,0.989583,Quarter,D#3_D#2
178,Right,0,72,120,46.0,1.989583,Half,G#5_C5
180,Left,1,44,120,46.0,1.989583,Half,G#3_G#2
182,Right,0,68,80,48.0,0.989583,Quarter,G#4
184,Left,1,56,80,49.0,0.989583,Quarter,G#3_C4
183,Right,0,68,80,49.0,0.989583,Quarter,G#4
187,Left,1,61,80,50.0,0.989583,Quarter,C#4_A#3
186,Right,0,67,80,50.0,0.489583,Eighth,G4
189,Right,0,65,80,50.5,0.489583,Eighth,F4
190,Right,0,63,80,51.0,0.989583,Quarter,D#4
191,Right,0,68,80,52.0,0.989583,Quarter,G#4_C5
193,Left,1,56,80,53.0,0.989583,Quarter,G#3_C4
194,Right,0,68,80,53.0,0.989583,Quarter,G#4_C5
198,Right,0,67,80,54.0,0.489583,Eighth,G4_A#4
197,Left,1,61,80,54.0,0.989583,Quarter,C#4_A#3
201,Right,0,65,80,54.5,0.489583,Eighth,G#4_F4
203,Right,0,63,80,55.0,0.989583,Quarter,G4_D#4
205,Right,0,72,80,56.0,0.989583,Quarter,D#5_C5
208,Right,0,72,80,57.0,0.989583,Quarter,D#5_C5
207,Left,1,44,80,57.0,0.989583,Quarter,G#2_G#1
211,Right,0,73,80,58.0,0.989583,Quarter,C#5_A#4
212,Left,1,34,80,58.0,0.989583,Quarter,A#2_A#1
217,Right,0,68,80,59.0,0.989583,Quarter,G#4_C5
215,Left,1,36,80,59.0,0.989583,Quarter,C3_C2
219,Right,0,67,80,60.0,0.989583,Quarter,G4_A#4
221,Left,1,37,80,60.0,0.989583,Quarter,C#3_C#2
225,Left,1,50,80,61.0,0.989583,Quarter,D3_D2
223,Right,0,72,80,61.0,0.989583,Quarter,G#4_C5
228,Left,1,39,80,62.0,0.989583,Quarter,D#3_D#2
227,Right,0,70,80,62.0,0.989583,Quarter,G4_A#4
231,Left,1,52,80,63.0,0.989583,Quarter,E3_E2
232,Right,0,72,80,63.0,0.989583,Quarter,G4_C5
235,Right,0,65,80,64.0,0.989583,Quarter,F4
236,Left,1,53,80,65.0,0.989583,Quarter,G#3_F3
238,Right,0,65,80,65.0,0.989583,Quarter,F4
241,Right,0,64,80,66.0,0.489583,Eighth,E4
239,Left,1,55,80,66.0,0.989583,Quarter,G3_A#3
242,Right,0,62,80,66.5,0.489583,Eighth,D4
243,Right,0,60,80,67.0,0.989583,Quarter,C4
244,Right,0,65,80,68.0,0.989583,Quarter,G#4_F4
246,Right,0,68,80,69.0,0.989583,Quarter,G#4_F4
248,Left,1,53,80,69.0,0.989583,Quarter,G#3_F3
250,Right,0,67,80,70.0,0.489583,Eighth,G4_E4
252,Left,1,55,80,70.0,0.989583,Quarter,G3_A#3
254,Right,0,65,80,70.5,0.489583,Eighth,F4_D4
256,Right,0,64,80,71.0,0.989583,Quarter,E4_C4
258,Right,0,72,80,72.0,0.989583,Quarter,G#4_C5
262,Left,1,53,80,73.0,0.989583,Quarter,F3_F2
260,Right,0,72,80,73.0,0.989583,Quarter,G#4_C5
265,Right,0,70,80,74.0,0.989583,Quarter,G4_A#4
264,Left,1,55,80,74.0,0.989583,Quarter,G3_G2
270,Left,1,56,80,75.0,0.989583,Quarter,G#3_G#2
268,Right,0,68,80,75.0,0.989583,Quarter,G#4_F4
273,Left,1,58,80,76.0,0.989583,Quarter,A#3_A#2
272,Right,0,67,80,76.0,0.989583,Quarter,G4_E4
277,Right,0,68,80,77.0,0.989583,Quarter,G#4_F4
276,Left,1,47,80,77.0,0.989583,Quarter,B3_B2
280,Right,0,67,80,78.0,1.989583,Half,G4_E4
281,Left,1,60,80,78.0,1.989583,Half,C4_C3
286,Left,1,56,80,80.0,1.989583,Half,G#3_G#2
284,Right,0,72,80,80.0,1.989583,Quarter,F4_C5
288,Right,0,72,80,81.0,0.989583,Quarter,C5
291,Right,0,74,80,82.0,0.989583,Quarter,D5
289,Left,1,43,80,82.0,1.989583,Half,G2_A#2
293,Left,1,58,80,83.0,0.989583,Quarter,A#3
292,Right,0,79,80,83.0,0.989583,Quarter,G5
294,Left,1,56,80,84.0,1.989583,Quarter,G#3_C3
295,Right,0,77,80,84.0,0.989583,Quarter,F5
298,Right,0,76,80,85.0,0.989583,Quarter,E5
297,Left,1,55,80,85.0,0.989583,Quarter,G3
300,Right,0,68,120,86.0,0.989583,Quarter,G#4_F5
299,Left,1,53,120,86.0,0.989583,Quarter,F3_C#3
303,Left,1,46,120,87.0,0.989583,Quarter,F3_A#2
304,Right,0,73,120,87.0,0.989583,Quarter,G5_C#5
307,Left,1,48,120,92.0,0.989583,Quarter,F3_C3
309,Right,0,72,120,92.0,0.989583,Quarter,G#5_F5_C5
314,Left,1,48,120,93.0,0.989583,Quarter,E3_C3
312,Right,0,84,120,93.0,0.989583,Quarter,G5_C6_C5
317,Left,1,41,120,94.0,0.989583,Quarter,F3_F2
318,Right,0,77,120,94.0,0.989583,Quarter,F5
321,Left,1,48,120,95.0,1.989583,Half,C3_C2
320,Right,0,79,120,95.0,1.989583,Half,G5_E5
325,Left,1,47,120,97.0,0.989583,Quarter,B2_B1
324,Right,0,74,120,97.0,0.989583,Quarter,G5_D5
330,Right,0,79,120,98.0,2.989583,Quarter,G5_E5
328,Left,1,36,120,98.0,2.989583,DottedHalf,C3_C2
332,Right,0,80,120,99.0,0.989583,Quarter,G#5
333,Right,0,80,120,100.0,0.989583,Quarter,G#5
336,Right,0,77,120,101.0,1.989583,Half,G#5_F5
334,Left,1,37,120,101.0,1.989583,Half,C#3_C#2
338,Right,0,80,120,102.0,0.989583,Quarter,G#5
340,Right,0,82,120,103.0,1.989583,Half,G#5_F5_A#5
339,Left,1,50,120,103.0,1.989583,Half,D3_D2
344,Right,0,82,120,104.0,0.989583,Quarter,A#5
345,Right,0,75,120,105.0,2.989583,Quarter,G5_D#5_A#5
346,Left,1,39,120,105.0,1.989583,Half,D#3_D#2
350,Right,0,82,120,106.0,0.989583,Quarter,G5_A#5
354,Right,0,80,120,107.0,0.989583,Quarter,G#5_C6
352,Left,1,32,120,107.0,0.989583,Quarter,G#2_G#1
358,Right,0,85,120,108.0,0.989583,Quarter,F5_C#6_A#5
356,Left,1,37,120,108.0,0.989583,Quarter,C#3_C#2
361,Right,0,79,120,109.0,0.989583,Quarter,G5_C#5_A#5
363,Left,1,39,120,109.0,0.989583,Quarter,D#3_D#2
366,Left,1,56,120,110.0,1.989583,Half,G#3_G#2
368,Right,0,80,120,110.0,1.989583,Half,G#5_C5
370,Right,0,68,80,112.0,0.989583,Quarter,G#4
372,Right,0,68,80,113.0,0.989583,Quarter,G#4
371,Left,1,56,80,113.0,0.989583,Quarter,G#3_C4
374,Left,1,61,80,114.0,0.989583,Quarter,C#4_A#3
375,Right,0,67,80,114.0,0.489583,Eighth,G4
377,Right,0,65,80,114.5,0.489583,Eighth,F4
378,Right,0,63,80,115.0,0.989583,Quarter,D#4
379,Right,0,68,80,116.0,0.989583,Quarter,G#4_C5
382,Left,1,60,80,117.0,0.989583,Quarter,G#3_C4
381,Right,0,68,80,117.0,0.989583,Quarter,G#4_C5
385,Left,1,61,80,118.0,0.989583,Quarter,C#4_A#3
387,Right,0,67,80,118.0,0.489583,Eighth,G4_A#4
389,Right,0,65,80,118.5,0.489583,Eighth,G#4_F4
391,Right,0,63,80,119.0,0.989583,Quarter,G4_D#4
393,Right,0,72,80,120.0,0.989583,Quarter,D#5_C5
395,Right,0,72,80,121.0,0.989583,Quarter,D#5_C5
397,Left,1,32,80,121.0,0.989583,Quarter,G#2_G#1
399,Right,0,73,80,122.0,0.989583,Quarter,C#5_A#4
401,Left,1,34,80,122.0,0.989583,Quarter,A#2_A#1
403,Left,1,36,80,123.0,0.989583,Quarter,C3_C2
405,Right,0,72,80,123.0,0.989583,Quarter,G#4_C5
407,Right,0,70,80,124.0,0.989583,Quarter,G4_A#4
409,Left,1,37,80,124.0,0.989583,Quarter,C#3_C#2
413,Left,1,50,80,125.0,0.989583,Quarter,D3_D2
411,Right,0,68,80,125.0,0.989583,Quarter,G#4_C5
417,Left,1,39,80,126.0,0.989583,Quarter,D#3_D#2
415,Right,0,70,80,126.0,0.989583,Quarter,G4_A#4
421,Left,1,52,80,127.0,0.989583,Quarter,E3_E2
419,Right,0,72,80,127.0,0.989583,Quarter,G4_C5
423,Right,0,65,80,128.0,0.989583,Quarter,F4
424,Left,1,53,80,129.0,0.989583,Quarter,G#3_F3
426,Right,0,65,80,129.0,0.989583,Quarter,F4
427,Left,1,55,80,130.0,0.989583,Quarter,G3_A#3
429,Right,0,64,80,130.0,0.489583,Eighth,E4
430,Right,0,62,80,130.5,0.489583,Eighth,D4
431,Right,0,60,80,131.0,0.989583,Quarter,C4
432,Right,0,68,80,132.0,0.989583,Quarter,G#4_F4
436,Left,1,56,80,133.0,0.989583,Quarter,G#3_F3
434,Right,0,68,80,133.0,0.989583,Quarter,G#4_F4
438,Right,0,64,80,134.0,0.489583,Eighth,G4_E4
440,Left,1,55,80,134.0,0.989583,Quarter,G3_A#3
442,Right,0,62,80,134.5,0.489583,Eighth,F4_D4
444,Right,0,64,80,135.0,0.989583,Quarter,E4_C4
446,Right,0,72,80,136.0,0.989583,Quarter,G#4_C5
449,Right,0,72,80,137.0,0.989583,Quarter,G#4_C5
448,Left,1,53,80,137.0,0.989583,Quarter,F3_F2
453,Right,0,70,80,138.0,0.989583,Quarter,G4_A#4
452,Left,1,43,80,138.0,0.989583,Quarter,G3_G2
457,Right,0,68,80,139.0,0.989583,Quarter,G#4_F4
456,Left,1,44,80,139.0,0.989583,Quarter,G#3_G#2
460,Right,0,64,80,140.0,0.989583,Quarter,G4_E4
462,Left,1,58,80,140.0,0.989583,Quarter,A#3_A#2
466,Left,1,59,80,141.0,0.989583,Quarter,B3_B2
464,Right,0,65,80,141.0,0.989583,Quarter,G#4_F4
469,Left,1,60,80,142.0,1.989583,Half,C4_C3
468,Right,0,67,80,142.0,1.989583,Half,G4_E4
472,Left,1,44,80,144.0,1.989583,Half,G#3_G#2
473,Right,0,65,80,144.0,1.989583,Half,F4_C5
476,Right,0,72,80,145.0,0.989583,Quarter,C5
478,Left,1,43,80,146.0,1.989583,Half,G2_A#2
477,Right,0,74,80,146.0,0.989583,Quarter,D5
481,Left,1,58,80,147.0,0.989583,Quarter,A#3
480,Right,0,79,80,147.0,0.989583,Quarter,G5
483,Right,0,77,80,148.0,0.989583,Quarter,F5
482,Left,1,56,80,148.0,1.989583,Quarter,G#3_C3
486,Left,1,55,80,149.0,0.989583,Quarter,G3
485,Right,0,76,80,149.0,0.989583,Quarter,E5
488,Right,0,77,120,150.0,0.989583,Quarter,G#4_F5
487,Left,1,53,120,150.0,0.989583,Quarter,F3_C#3
492,Left,1,53,120,151.0,0.989583,Quarter,F3_A#2
491,Right,0,73,120,151.0,0.989583,Quarter,G5_C#5
496,Right,0,77,120,156.0,0.989583,Quarter,G#5_F5_C5
495,Left,1,48,120,156.0,0.989583,Quarter,F3_C3
502,Right,0,72,120,157.0,0.989583,Quarter,G5_C6_C5
500,Left,1,52,120,157.0,0.989583,Quarter,E3_C3
506,Right,0,77,120,158.0,0.989583,Quarter,F5
505,Left,1,41,120,158.0,0.989583,Quarter,F3_F2
508,Right,0,89,120,159.0,2.989583,DottedHalf,F6
509,Left,1,37,120,160.0,1.989583,Half,C#2
510,Right,0,84,120,160.5,1.489583,DottedQuarter,C6
511,Left,1,53,120,161.0,0.989583,Quarter,F3
512,Right,0,87,120,161.0,0.989583,Quarter,D#6
513,Right,0,85,120,161.5,0.489583,Eighth,C#6
514,Right,0,80,110,162.0,0.489583,Eighth,G#5
515,Right,0,84,104,162.5,0.489583,Eighth,C6
516,Right,0,82,97,163.0,0.489583,Eighth,A#5
517,Left,1,56,97,163.0,0.989583,Quarter,G#3
518,Right,0,79,91,163.5,0.489583,Eighth,G5
519,Right,0,82,80,164.0,0.489583,Eighth,A#5
520,Right,0,77,80,164.5,0.489583,Eighth,F5
522,Right,0,80,80,165.0,0.489583,Eighth,G#5
521,Left,1,53,80,165.0,0.989583,Quarter,F3
523,Right,0,78,80,165.5,0.489583,Eighth,F#5
524,Right,0,75,80,166.0,0.489583,Eighth,D#5
525,Right,0,78,80,166.5,0.489583,Eighth,F#5
527,Right,0,77,80,167.0,0.489583,Eighth,F5
526,Left,1,56,80,167.0,0.989583,Quarter,G#3
528,Right,0,73,80,167.5,0.489583,Eighth,C#5
529,Right,0,78,80,168.0,0.489583,Eighth,F#5
530,Right,0,74,80,168.5,0.489583,Eighth,D5
532,Left,1,60,80,169.0,0.989583,Quarter,C4
531,Right,0,77,80,169.0,0.489583,Eighth,F5
533,Right,0,75,80,169.5,0.489583,Eighth,D#5
534,Right,0,71,80,170.0,0.489583,Eighth,B4
535,Right,0,73,80,170.5,0.489583,Eighth,C#5
536,Right,0,72,80,171.0,0.489583,Eighth,C5
537,Left,1,75,80,171.0,0.989583,Quarter,D#5
538,Right,0,68,80,171.5,0.489583,Eighth,G#4
539,Right,0,70,80,172.0,0.489583,Eighth,A#4
540,Right,0,66,80,172.5,0.489583,Eighth,F#4
541,Left,1,84,80,173.0,0.989583,Quarter,C6
542,Right,0,70,80,173.0,0.489583,Eighth,A#4
543,Right,0,68,80,173.5,0.489583,Eighth,G#4
544,Left,1,85,120,174.0,0.989583,Quarter,C#6
545,Right,0,65,120,174.0,0.989583,Quarter,F4
546,Right,0,89,120,175.0,2.989583,DottedHalf,F6
547,Left,1,37,120,176.0,1.989583,Half,C#2
548,Right,0,84,120,176.5,1.489583,DottedQuarter,C6
550,Right,0,87,120,177.0,0.989583,Quarter,D#6
549,Left,1,53,120,177.0,0.989583,Quarter,F3
551,Right,0,85,120,177.5,0.489583,Eighth,C#6
552,Right,0,80,110,178.0,0.489583,Eighth,G#5
553,Right,0,84,104,178.5,0.489583,Eighth,C6
555,Right,0,82,97,179.0,0.489583,Eighth,A#5
554,Left,1,56,97,179.0,0.989583,Quarter,G#3
556,Right,0,79,91,179.5,0.489583,Eighth,G5
557,Right,0,82,80,180.0,0.489583,Eighth,A#5
558,Right,0,77,80,180.5,0.489583,Eighth,F5
560,Left,1,53,80,181.0,0.989583,Quarter,F3
559,Right,0,80,80,181.0,0.489583,Eighth,G#5
561,Right,0,78,80,181.5,0.489583,Eighth,F#5
562,Right,0,75,80,182.0,0.489583,Eighth,D#5
563,Right,0,78,80,182.5,0.489583,Eighth,F#5
565,Left,1,56,80,183.0,0.989583,Quarter,G#3
564,Right,0,77,80,183.0,0.489583,Eighth,F5
566,Right,0,73,80,183.5,0.489583,Eighth,C#5
567,Right,0,77,80,184.0,0.489583,Eighth,F5
568,Right,0,72,80,184.5,0.489583,Eighth,C5
569,Left,1,65,80,185.0,0.989583,Quarter,F4
570,Right,0,75,80,185.0,0.489583,Eighth,D#5
571,Right,0,73,80,185.5,0.489583,Eighth,C#5
572,Right,0,68,80,186.0,0.489583,Eighth,G#4
573,Right,0,73,80,186.5,0.489583,Eighth,C#5
575,Left,1,77,80,187.0,0.989583,Quarter,F5
574,Right,0,71,80,187.0,0.489583,Eighth,B4
576,Right,0,68,80,187.5,0.489583,Eighth,G#4
577,Right,0,71,80,188.0,0.489583,Eighth,B4
578,Right,0,68,80,188.5,0.489583,Eighth,G#4
579,Right,0,71,80,189.0,0.489583,Eighth,B4
580,Left,1,89,80,189.0,0.989583,Quarter,F6
581,Right,0,69,80,189.5,0.489583,Eighth,A4
583,Right,0,70,120,190.0,0.989583,Quarter,A#4
582,Left,1,90,120,190.0,0.989583,Quarter,F#6
584,Right,0,94,120,191.0,3.489583,DottedHalf,A#6
585,Left,1,42,120,192.0,1.989583,Half,F#2
586,Right,0,89,120,192.5,1.989583,Half,F6
588,Right,0,92,120,193.0,1.489583,DottedQuarter,G#6
587,Left,1,58,120,193.0,0.989583,Quarter,A#3
589,Right,0,90,120,193.5,0.989583,Quarter,F#6
590,Right,0,85,110,194.0,0.489583,Eighth,C#6
591,Right,0,89,104,194.5,0.489583,Eighth,F6
592,Left,1,61,97,195.0,0.989583,Quarter,C#4
593,Right,0,87,97,195.0,0.489583,Eighth,D#6
594,Right,0,84,91,195.5,0.489583,Eighth,C6
595,Right,0,87,80,196.0,0.489583,Eighth,D#6
596,Right,0,82,80,196.5,0.489583,Eighth,A#5
597,Right,0,85,80,197.0,0.489583,Eighth,C#6
598,Left,1,58,80,197.0,0.989583,Quarter,A#3
599,Right,0,83,80,197.5,0.489583,Eighth,B5
600,Right,0,80,80,198.0,0.489583,Eighth,G#5
601,Right,0,83,80,198.5,0.489583,Eighth,B5
602,Left,1,61,80,199.0,0.989583,Quarter,C#4
603,Right,0,82,80,199.0,0.489583,Eighth,A#5
604,Right,0,78,80,199.5,0.489583,Eighth,F#5
605,Right,0,83,80,200.0,0.489583,Eighth,B5
606,Right,0,79,80,200.5,0.489583,Eighth,G5
608,Left,1,65,80,201.0,0.989583,Quarter,F4
607,Right,0,82,80,201.0,0.489583,Eighth,A#5
609,Right,0,80,80,201.5,0.489583,Eighth,G#5
610,Right,0,76,80,202.0,0.489583,Eighth,E5
611,Right,0,78,80,202.5,0.489583,Eighth,F#5
612,Right,0,77,80,203.0,0.489583,Eighth,F5
613,Left,1,80,80,203.0,0.989583,Quarter,G#5
614,Right,0,73,80,203.5,0.489583,Eighth,C#5
615,Right,0,75,80,204.0,0.489583,Eighth,D#5
616,Right,0,71,80,204.5,0.489583,Eighth,B4
618,Left,1,89,80,205.0,0.989583,Quarter,F6
617,Right,0,75,80,205.0,0.489583,Eighth,D#5
619,Right,0,73,80,205.5,0.489583,Eighth,C#5
621,Left,1,90,120,206.0,0.989583,Quarter,F#6
620,Right,0,70,120,206.0,0.989583,Quarter,A#4
622,Right,0,94,120,207.0,2.989583,DottedHalf,A#6
623,Left,1,42,120,208.0,1.989583,Half,F#2
624,Right,0,89,120,208.5,1.489583,DottedQuarter,F6
626,Left,1,58,120,209.0,0.989583,Quarter,A#3
625,Right,0,92,120,209.0,0.989583,Quarter,G#6
627,Right,0,90,120,209.5,0.489583,Eighth,F#6
628,Right,0,85,110,210.0,0.489583,Eighth,C#6
629,Right,0,89,104,210.5,0.489583,Eighth,F6
631,Right,0,87,97,211.0,0.489583,Eighth,D#6
630,Left,1,61,97,211.0,0.989583,Quarter,C#4
632,Right,0,84,91,211.5,0.489583,Eighth,C6
633,Right,0,87,80,212.0,0.489583,Eighth,D#6
634,Right,0,82,80,212.5,0.489583,Eighth,A#5
635,Right,0,85,80,213.0,0.489583,Eighth,C#6
636,Left,1,58,80,213.0,0.989583,Quarter,A#3
637,Right,0,83,80,213.5,0.489583,Eighth,B5
638,Right,0,80,80,214.0,0.489583,Eighth,G#5
639,Right,0,83,80,214.5,0.489583,Eighth,B5
640,Left,1,61,80,215.0,0.989583,Quarter,C#4
641,Right,0,82,80,215.0,0.489583,Eighth,A#5
642,Right,0,78,80,215.5,0.489583,Eighth,F#5
643,Right,0,82,80,216.0,0.489583,Eighth,A#5
644,Right,0,79,80,216.5,0.489583,Eighth,G5
647,Right,0,82,80,217.0,0.489583,Eighth,A#5
645,Left,1,53,80,217.0,0.989583,Quarter,F3_D4
648,Right,0,80,80,217.5,0.489583,Eighth,G#5
649,Right,0,77,80,218.0,0.489583,Eighth,F5
650,Right,0,80,80,218.5,0.489583,Eighth,G#5
652,Left,1,82,80,219.0,0.989583,Quarter,A#5
651,Right,0,78,80,219.0,0.489583,Eighth,F#5
653,Right,0,75,80,219.5,0.489583,Eighth,D#5
654,Right,0,74,80,220.0,0.489583,Eighth,D5
655,Right,0,68,80,220.5,0.489583,Eighth,G#4
657,Left,1,86,80,221.0,0.989583,Quarter,D6
656,Right,0,71,80,221.0,0.489583,Eighth,B4
658,Right,0,70,80,221.5,0.489583,Eighth,A#4
660,Right,0,66,120,222.0,0.989583,Quarter,F#4
659,Left,1,87,120,222.0,0.989583,Quarter,D#6
661,Right,0,90,120,223.0,2.989583,DottedHalf,F#6
662,Left,1,39,120,224.0,1.989583,Half,D#2
663,Right,0,85,120,224.5,1.489583,DottedQuarter,C#6
665,Right,0,89,120,225.0,0.989583,Quarter,F6
664,Left,1,54,120,225.0,0.989583,Quarter,F#3
666,Right,0,87,120,225.5,0.489583,Eighth,D#6
667,Right,0,78,120,226.0,0.989583,Quarter,F#5
668,Right,0,78,120,227.0,1.989583,Half,F#6_F#5_D#6
670,Left,1,48,120,227.0,1.989583,Quarter,G#2_C3_C2
674,Right,0,77,120,228.0,0.989583,Quarter,F5
675,Left,1,49,120,229.0,0.989583,Quarter,G#2_C#3_C#2
677,Right,0,89,120,229.0,3.489583,Quarter,F6_F5_C#6
681,Left,1,37,120,230.0,0.989583,Quarter,C#2
682,Right,0,84,120,230.5,1.989583,Half,C6
683,Left,1,53,120,231.0,0.989583,Quarter,F3
684,Right,0,87,120,231.0,1.489583,DottedQuarter,D#6
685,Right,0,85,120,231.5,0.989583,Quarter,C#6
686,Right,0,80,110,232.0,0.489583,Eighth,G#5
687,Right,0,84,104,232.5,0.489583,Eighth,C6
689,Right,0,82,97,233.0,0.489583,Eighth,A#5
688,Left,1,56,97,233.0,0.989583,Quarter,G#3
690,Right,0,79,91,233.5,0.489583,Eighth,G5
691,Right,0,82,80,234.0,0.489583,Eighth,A#5
692,Right,0,77,80,234.5,0.489583,Eighth,F5
694,Left,1,53,80,235.0,0.989583,Quarter,F3
693,Right,0,80,80,235.0,0.489583,Eighth,G#5
695,Right,0,78,80,235.5,0.489583,Eighth,F#5
696,Right,0,75,80,236.0,0.489583,Eighth,D#5
697,Right,0,78,80,236.5,0.489583,Eighth,F#5
699,Left,1,56,80,237.0,0.989583,Quarter,G#3
698,Right,0,77,80,237.0,0.489583,Eighth,F5
700,Right,0,73,80,237.5,0.489583,Eighth,C#5
701,Right,0,78,80,238.0,0.489583,Eighth,F#5
702,Right,0,74,80,238.5,0.489583,Eighth,D5
703,Left,1,60,80,239.0,0.989583,Quarter,C4
704,Right,0,77,80,239.0,0.489583,Eighth,F5
705,Right,0,75,80,239.5,0.489583,Eighth,D#5
706,Right,0,71,80,240.0,0.489583,Eighth,B4
707,Right,0,73,80,240.5,0.489583,Eighth,C#5
708,Right,0,72,80,241.0,0.489583,Eighth,C5
709,Left,1,75,80,241.0,0.989583,Quarter,D#5
710,Right,0,68,80,241.5,0.489583,Eighth,G#4
711,Right,0,70,80,242.0,0.489583,Eighth,A#4
712,Right,0,66,80,242.5,0.489583,Eighth,F#4
713,Right,0,70,80,243.0,0.489583,Eighth,A#4
714,Left,1,84,80,243.0,0.989583,Quarter,C6
715,Right,0,68,80,243.5,0.489583,Eighth,G#4
717,Left,1,85,80,244.0,0.989583,Quarter,C#6
716,Right,0,63,80,244.0,0.989583,Quarter,D#4
718,Right,0,77,80,245.0,2.989583,DottedHalf,F5
719,Left,1,37,80,246.0,1.989583,Half,C#2
720,Right,0,72,80,246.5,1.489583,DottedQuarter,C5
722,Left,1,53,80,247.0,0.989583,Quarter,F3
721,Right,0,75,80,247.0,0.989583,Quarter,D#5
723,Right,0,73,80,247.5,0.489583,Eighth,C#5
724,Right,0,68,80,248.0,0.489583,Eighth,G#4
725,Right,0,72,80,248.5,0.489583,Eighth,C5
727,Right,0,70,80,249.0,0.489583,Eighth,A#4
726,Left,1,56,80,249.0,0.989583,Quarter,G#3
728,Right,0,67,80,249.5,0.489583,Eighth,G4
729,Right,0,70,80,250.0,0.489583,Eighth,A#4
730,Right,0,65,80,250.5,0.489583,Eighth,F4
732,Left,1,53,80,251.0,0.989583,Quarter,F3
731,Right,0,68,80,251.0,0.489583,Eighth,G#4
733,Right,0,66,80,251.5,0.489583,Eighth,F#4
734,Right,0,63,80,252.0,0.489583,Eighth,D#4
735,Right,0,66,80,252.5,0.489583,Eighth,F#4
737,Left,1,56,79,253.0,0.989583,Quarter,G#3
736,Right,0,65,79,253.0,0.489583,Eighth,F4
738,Right,0,61,79,253.5,0.489583,Eighth,C#4
739,Right,0,66,78,254.0,0.489583,Eighth,F#4
740,Right,0,61,78,254.5,0.489583,Eighth,C#4
742,Left,1,60,77,255.0,0.989583,Quarter,C4
741,Right,0,65,77,255.0,0.489583,Eighth,F4
743,Right,0,63,77,255.5,0.489583,Eighth,D#4
744,Right,0,59,76,256.0,0.489583,Eighth,B3
745,Right,0,61,76,256.5,0.489583,Eighth,C#4
747,Left,1,75,75,257.0,0.989583,Quarter,D#5
746,Right,0,60,75,257.0,0.489583,Eighth,C4
748,Right,0,56,75,257.5,0.489583,Eighth,G#3
749,Right,0,58,74,258.0,0.489583,Eighth,A#3
750,Right,0,54,74,258.5,0.489583,Eighth,F#3
752,Right,0,58,73,259.0,0.489583,Eighth,A#3
751,Left,1,84,73,259.0,0.989583,Quarter,C6
753,Right,0,56,73,259.5,0.489583,Eighth,G#3
754,Right,0,51,72,260.0,0.489583,Eighth,D#3
755,Right,0,54,72,260.5,0.489583,Eighth,F#3
757,Right,0,53,71,261.0,0.489583,Eighth,F3
756,Left,1,85,71,261.0,0.989583,Quarter,C#6
758,Right,0,49,71,261.5,0.489583,Eighth,C#3
759,Left,1,53,70,262.0,0.489583,Eighth,F3
760,Left,1,48,70,262.5,0.489583,Eighth,C3
761,Left,1,51,70,263.0,0.489583,Eighth,D#3
762,Left,1,49,70,263.5,0.489583,Eighth,C#3
763,Right,0,65,70,264.0,0.489583,Eighth,F4
764,Right,0,60,70,264.5,0.489583,Eighth,C4
765,Right,0,63,70,265.0,0.489583,Eighth,D#4
766,Right,0,61,70,265.5,0.489583,Eighth,C#4
767,Left,1,65,70,266.0,0.489583,Eighth,F4
768,Left,1,60,70,266.5,0.489583,Eighth,C4
769,Left,1,63,70,267.0,0.489583,Eighth,D#4
770,Left,1,61,70,267.5,0.489583,Eighth,C#4
771,Right,0,77,70,268.0,0.489583,Eighth,F5
772,Right,0,72,70,268.5,0.489583,Eighth,C5
773,Right,0,75,70,269.0,0.489583,Eighth,D#5
774,Right,0,73,70,269.5,3.489583,DottedHalf,C#5
775,Right,0,72,80,274.0,0.989583,Quarter,G#4_C5
777,Left,1,41,80,274.0,0.989583,Quarter,F3_F2
779,Right,0,70,80,275.0,0.989583,Quarter,E4_A#4
780,Left,1,43,80,275.0,0.989583,Quarter,G3_G2
784,Right,0,65,80,276.0,0.989583,Quarter,G#4_F4
783,Left,1,44,80,276.0,0.989583,Quarter,G#3_G#2
787,Right,0,64,80,277.0,0.989583,Quarter,G4_E4_C#4
790,Left,1,46,80,277.0,0.989583,Quarter,A#3_A#2
794,Left,1,47,80,278.0,0.989583,Quarter,B3_B2
792,Right,0,65,80,278.0,0.989583,Quarter,G#3_F4_D4
797,Left,1,59,80,279.0,0.989583,Quarter,B3_B2
798,Right,0,65,80,279.0,0.989583,Quarter,G#3_F4_D4
802,Right,0,55,80,280.0,1.989583,Half,G3_E4
804,Left,1,60,80,280.0,1.989583,Half,C4_C3
806,Left,1,36,120,282.0,0.989583,Quarter,C3_C2
807,Right,0,79,120,282.0,0.989583,Quarter,G5_E5_C5
811,Left,1,40,120,283.0,0.989583,Quarter,E3_E2
812,Right,0,76,120,283.0,0.989583,Quarter,G4_E5_C5
816,Left,1,55,120,284.0,0.989583,Quarter,G3_G2
817,Right,0,72,120,284.0,0.989583,Quarter,G4_E4_C5
821,Right,0,64,120,285.0,0.989583,Quarter,G4_E4_C5
824,Left,1,60,120,285.0,0.989583,Quarter,C4_C3
826,Right,0,67,120,286.0,0.989583,Quarter,G4_E4_C5
828,Left,1,43,120,286.0,0.989583,Quarter,G3_G2
831,Right,0,67,120,287.0,0.989583,Quarter,G4_D5_B4
834,Left,1,31,120,287.0,0.989583,Quarter,G2_G1
836,Right,0,67,120,288.0,1.989583,Half,G4_E5_C5
839,Left,1,36,120,288.0,1.989583,Half,C3_C2
841,Right,0,68,80,290.0,0.989583,Quarter,G#4_C5
843,Left,1,53,80,290.0,0.989583,Quarter,F3_F2
845,Right,0,64,80,291.0,0.989583,Quarter,E4_A#4
847,Left,1,43,80,291.0,0.989583,Quarter,G3_G2
849,Right,0,68,80,292.0,0.989583,Quarter,G#4_F4
850,Left,1,56,80,292.0,0.989583,Quarter,G#3_G#2
853,Left,1,58,80,293.0,0.989583,Quarter,A#3_A#2
855,Right,0,61,80,293.0,0.989583,Quarter,G4_E4_C#4
861,Left,1,59,80,294.0,0.989583,Quarter,B3_B2
858,Right,0,56,80,294.0,0.989583,Quarter,G#3_F4_D4
863,Right,0,65,80,295.0,0.989583,Quarter,G#3_F4_D4
866,Left,1,47,80,295.0,0.989583,Quarter,B3_B2
870,Right,0,55,80,296.0,1.989583,Half,G3_E4
868,Left,1,48,80,296.0,1.989583,Half,C4_C3
873,Right,0,72,120,298.0,0.989583,Quarter,G5_E5_C5
872,Left,1,36,120,298.0,0.989583,Quarter,C3_C2
877,Right,0,76,120,299.0,0.989583,Quarter,G4_E5_C5
880,Left,1,40,120,299.0,0.989583,Quarter,E3_E2
884,Right,0,64,120,300.0,0.989583,Quarter,G4_E4_C5
882,Left,1,43,120,300.0,0.989583,Quarter,G3_G2
887,Right,0,67,120,301.0,0.989583,Quarter,G4_E4_C5
890,Left,1,60,120,301.0,0.989583,Quarter,C4_C3
894,Right,0,67,120,302.0,0.989583,Quarter,G4_E4_C5
892,Left,1,55,120,302.0,0.989583,Quarter,G3_G2
897,Right,0,71,120,303.0,0.989583,Quarter,G4_D5_B4
900,Left,1,31,120,303.0,0.989583,Quarter,G2_G1
903,Left,1,36,120,304.0,1.989583,Half,C3_C2
902,Right,0,76,120,304.0,1.989583,Half,G4_E5_C5
908,Right,0,79,120,306.0,0.989583,Quarter,G5_E5
907,Left,1,36,120,306.0,0.989583,Quarter,C3_C2
911,Right,0,74,120,307.0,0.989583,Quarter,G5_D5
913,Left,1,47,120,307.0,0.989583,Quarter,B2_B1
917,Left,1,48,120,308.0,2.989583,DottedHalf,C3_C2
915,Right,0,76,120,308.0,2.989583,DottedHalf,G5_E5
919,Right,0,80,120,309.0,0.989583,Quarter,G#5
920,Right,0,80,120,310.0,0.989583,Quarter,G#5
921,Left,1,49,120,311.0,1.989583,Half,C#3_C#2
922,Right,0,80,120,311.0,1.989583,Quarter,G#5_F5
925,Right,0,80,120,312.0,0.989583,Quarter,G#5
928,Left,1,50,120,313.0,1.989583,Half,D3_D2
926,Right,0,82,120,313.0,1.989583,Half,G#5_F5_A#5
931,Right,0,82,120,314.0,0.989583,Quarter,A#5
932,Right,0,79,120,315.0,2.989583,Quarter,G5_D#5_A#5
935,Left,1,39,120,315.0,1.989583,Half,D#3_D#2
937,Right,0,82,120,316.0,0.989583,Quarter,G5_A#5
939,Right,0,80,120,317.0,0.989583,Quarter,G#5_C6
941,Left,1,32,120,317.0,0.989583,Quarter,G#2_G#1
946,Left,1,37,120,318.0,0.989583,Quarter,C#3_C#2
943,Right,0,77,120,318.0,0.989583,Quarter,F5_C#6_A#5
948,Right,0,82,120,319.0,0.989583,Quarter,G5_C#5_A#5
950,Left,1,51,120,319.0,0.989583,Quarter,D#3_D#2
955,Right,0,80,120,320.0,1.989583,Half,G#5_C5
953,Left,1,44,120,320.0,1.989583,Half,G#3_G#2
957,Right,0,68,80,322.0,0.989583,Quarter,G#4
958,Right,0,68,80,323.0,0.989583,Quarter,G#4
959,Left,1,60,80,323.0,0.989583,Quarter,G#3_C4
962,Left,1,61,80,324.0,0.989583,Quarter,C#4_A#3
961,Right,0,67,80,324.0,0.489583,Eighth,G4
964,Right,0,65,80,324.5,0.489583,Eighth,F4
965,Right,0,63,80,325.0,0.989583,Quarter,D#4
966,Right,0,72,80,326.0,0.989583,Quarter,G#4_C5
968,Left,1,56,80,327.0,0.989583,Quarter,G#3_C4
970,Right,0,72,80,327.0,0.989583,Quarter,G#4_C5
974,Right,0,70,80,328.0,0.489583,Eighth,G4_A#4
972,Left,1,61,80,328.0,0.989583,Quarter,C#4_A#3
976,Right,0,68,80,328.5,0.489583,Eighth,G#4_F4
978,Right,0,63,80,329.0,0.989583,Quarter,G4_D#4
980,Right,0,72,80,330.0,0.989583,Quarter,D#5_C5
983,Left,1,32,80,331.0,0.989583,Quarter,G#2_G#1
982,Right,0,75,80,331.0,0.989583,Quarter,D#5_C5
988,Left,1,34,80,332.0,0.989583,Quarter,A#2_A#1
986,Right,0,70,80,332.0,0.989583,Quarter,C#5_A#4
990,Left,1,48,80,333.0,0.989583,Quarter,C3_C2
991,Right,0,68,80,333.0,0.989583,Quarter,G#4_C5
996,Left,1,37,80,334.0,0.989583,Quarter,C#3_C#2
994,Right,0,67,80,334.0,0.989583,Quarter,G4_A#4
1000,Left,1,38,80,335.0,0.989583,Quarter,D3_D2
998,Right,0,68,80,335.0,0.989583,Quarter,G#4_C5
1004,Left,1,39,80,336.0,0.989583,Quarter,D#3_D#2
1002,Right,0,67,80,336.0,0.989583,Quarter,G4_A#4
1008,Right,0,72,80,337.0,0.989583,Quarter,G4_C5
1006,Left,1,52,80,337.0,0.989583,Quarter,E3_E2
1010,Right,0,65,80,338.0,0.989583,Quarter,F4
1011,Left,1,56,80,339.0,0.989583,Quarter,G#3_F3
1013,Right,0,65,80,339.0,0.989583,Quarter,F4
1014,Left,1,55,80,340.0,0.989583,Quarter,G3_A#3
1016,Right,0,64,80,340.0,0.489583,Eighth,E4
1017,Right,0,62,80,340.5,0.489583,Eighth,D4
1018,Right,0,60,80,341.0,0.989583,Quarter,C4
1019,Right,0,68,80,342.0,0.989583,Quarter,G#4_F4
1022,Left,1,53,80,343.0,0.989583,Quarter,G#3_F3
1021,Right,0,68,80,343.0,0.989583,Quarter,G#4_F4
1027,Right,0,67,80,344.0,0.489583,Eighth,G4_E4
1025,Left,1,55,80,344.0,0.989583,Quarter,G3_A#3
1029,Right,0,65,80,344.5,0.489583,Eighth,F4_D4
1031,Right,0,64,80,345.0,0.989583,Quarter,E4_C4
1033,Right,0,72,80,346.0,0.989583,Quarter,G#4_C5
1037,Right,0,72,80,347.0,0.989583,Quarter,G#4_C5
1035,Left,1,53,80,347.0,0.989583,Quarter,F3_F2
1039,Right,0,70,80,348.0,0.989583,Quarter,G4_A#4
1041,Left,1,43,80,348.0,0.989583,Quarter,G3_G2
1043,Left,1,56,80,349.0,0.989583,Quarter,G#3_G#2
1045,Right,0,68,80,349.0,0.989583,Quarter,G#4_F4
1047,Right,0,67,80,350.0,0.989583,Quarter,G4_E4
1049,Left,1,58,80,350.0,0.989583,Quarter,A#3_A#2
1053,Right,0,65,80,351.0,0.989583,Quarter,G#4_F4
1051,Left,1,47,80,351.0,0.989583,Quarter,B3_B2
1055,Right,0,64,80,352.0,1.989583,Half,G4_E4
1056,Left,1,60,80,352.0,1.989583,Half,C4_C3
1059,Right,0,65,80,354.0,1.989583,Half,F4_C5
1060,Left,1,56,80,354.0,1.989583,Half,G#3_G#2
1063,Right,0,72,80,355.0,0.989583,Quarter,C5
1064,Left,1,46,80,356.0,1.989583,Quarter,G2_A#2
1066,Right,0,74,80,356.0,0.989583,Quarter,D5
1067,Right,0,79,80,357.0,0.989583,Quarter,G5
1068,Left,1,58,80,357.0,0.989583,Quarter,A#3
1070,Left,1,56,80,358.0,1.989583,Quarter,G#3_C3
1069,Right,0,77,80,358.0,0.989583,Quarter,F5
1072,Right,0,76,80,359.0,0.989583,Quarter,E5
1073,Left,1,55,80,359.0,0.989583,Quarter,G3
1075,Left,1,49,120,360.0,0.989583,Quarter,F3_C#3
1074,Right,0,68,120,360.0,0.989583,Quarter,G#4_F5
1079,Left,1,53,120,361.0,0.989583,Quarter,F3_A#2
1078,Right,0,73,120,361.0,0.989583,Quarter,G5_C#5
1082,Left,1,53,120,366.0,0.989583,Quarter,F3_C3
1083,Right,0,80,120,366.0,0.989583,Quarter,G#5_F5_C5
1087,Left,1,52,120,367.0,0.989583,Quarter,E3_C3
1088,Right,0,79,120,367.0,0.989583,Quarter,G5_C6_C5
1092,Left,1,41,120,368.0,0.989583,Quarter,F3_F2
1094,Right,0,77,120,368.0,0.989583,Quarter,F5
1097,Left,1,36,120,369.0,1.989583,Half,C3_C2
1095,Right,0,79,120,369.0,1.989583,Half,G5_E5
1100,Left,1,35,120,371.0,0.989583,Quarter,B2_B1
1099,Right,0,74,120,371.0,0.989583,Quarter,G5_D5
1103,Right,0,79,120,372.0,2.989583,Quarter,G5_E5
1104,Left,1,48,120,372.0,2.989583,DottedHalf,C3_C2
1107,Right,0,80,120,373.0,0.989583,Quarter,G#5
1108,Right,0,80,120,374.0,0.989583,Quarter,G#5
1109,Left,1,49,120,375.0,1.989583,Half,C#3_C#2
1110,Right,0,80,120,375.0,1.989583,Quarter,G#5_F5
1113,Right,0,80,120,376.0,0.989583,Quarter,G#5
1117,Left,1,38,120,377.0,1.989583,Half,D3_D2
1114,Right,0,82,120,377.0,1.989583,Half,G#5_F5_A#5
1119,Right,0,82,120,378.0,0.989583,Quarter,A#5
1121,Right,0,79,120,379.0,2.989583,Quarter,G5_D#5_A#5
1120,Left,1,51,120,379.0,1.989583,Half,D#3_D#2
1125,Right,0,79,120,380.0,0.989583,Quarter,G5_A#5
1127,Left,1,32,120,381.0,0.989583,Quarter,G#2_G#1
1129,Right,0,80,120,381.0,0.989583,Quarter,G#5_C6
1131,Left,1,37,120,382.0,0.989583,Quarter,C#3_C#2
1133,Right,0,82,120,382.0,0.989583,Quarter,F5_C#6_A#5
1137,Left,1,39,120,383.0,0.989583,Quarter,D#3_D#2
1136,Right,0,82,120,383.0,0.989583,Quarter,G5_C#5_A#5
1143,Right,0,80,120,384.0,1.989583,Half,G#5_C5
1141,Left,1,56,120,384.0,1.989583,Half,G#3_G#2
1145,Right,0,68,80,386.0,0.989583,Quarter,G#4
1148,Right,0,68,80,387.0,0.989583,Quarter,G#4
1146,Left,1,60,80,387.0,0.989583,Quarter,G#3_C4
1151,Right,0,67,80,388.0,0.489583,Eighth,G4
1149,Left,1,61,80,388.0,0.989583,Quarter,C#4_A#3
1152,Right,0,65,80,388.5,0.489583,Eighth,F4
1153,Right,0,63,80,389.0,0.989583,Quarter,D#4
1154,Right,0,68,80,390.0,0.989583,Quarter,G#4_C5
1157,Right,0,68,80,391.0,0.989583,Quarter,G#4_C5
1156,Left,1,60,80,391.0,0.989583,Quarter,G#3_C4
1160,Right,0,70,80,392.0,0.489583,Eighth,G4_A#4
1162,Left,1,58,80,392.0,0.989583,Quarter,C#4_A#3
1164,Right,0,65,80,392.5,0.489583,Eighth,G#4_F4
1166,Right,0,67,80,393.0,0.989583,Quarter,G4_D#4
1168,Right,0,72,80,394.0,0.989583,Quarter,D#5_C5
1171,Right,0,72,80,395.0,0.989583,Quarter,D#5_C5
1170,Left,1,44,80,395.0,0.989583,Quarter,G#2_G#1
1176,Right,0,70,80,396.0,0.989583,Quarter,C#5_A#4
1174,Left,1,34,80,396.0,0.989583,Quarter,A#2_A#1
1178,Left,1,36,80,397.0,0.989583,Quarter,C3_C2
1180,Right,0,72,80,397.0,0.989583,Quarter,G#4_C5
1182,Left,1,37,80,398.0,0.989583,Quarter,C#3_C#2
1184,Right,0,70,80,398.0,0.989583,Quarter,G4_A#4
1186,Right,0,68,80,399.0,0.989583,Quarter,G#4_C5
1188,Left,1,50,80,399.0,0.989583,Quarter,D3_D2
1192,Right,0,70,80,400.0,0.989583,Quarter,G4_A#4
1190,Left,1,51,80,400.0,0.989583,Quarter,D#3_D#2
1194,Right,0,67,80,401.0,0.989583,Quarter,G4_C5
1196,Left,1,40,80,401.0,0.989583,Quarter,E3_E2
1198,Right,0,65,80,402.0,0.989583,Quarter,F4
1201,Right,0,65,80,403.0,0.989583,Quarter,F4
1199,Left,1,56,80,403.0,0.989583,Quarter,G#3_F3
1202,Left,1,55,80,404.0,0.989583,Quarter,G3_A#3
1203,Right,0,64,80,404.0,0.489583,Eighth,E4
1205,Right,0,62,80,404.5,0.489583,Eighth,D4
1206,Right,0,60,80,405.0,0.989583,Quarter,C4
1207,Right,0,65,80,406.0,0.989583,Quarter,G#4_F4
1209,Left,1,56,80,407.0,0.989583,Quarter,G#3_F3
1210,Right,0,65,80,407.0,0.989583,Quarter,G#4_F4
1215,Right,0,64,80,408.0,0.489583,Eighth,G4_E4
1213,Left,1,55,80,408.0,0.989583,Quarter,G3_A#3
1217,Right,0,62,80,408.5,0.489583,Eighth,F4_D4
1219,Right,0,60,80,409.0,0.989583,Quarter,E4_C4
1221,Right,0,72,80,410.0,0.989583,Quarter,G#4_C5
1223,Left,1,53,80,411.0,0.989583,Quarter,F3_F2
1225,Right,0,68,80,411.0,0.989583,Quarter,G#4_C5
1228,Left,1,43,80,412.0,0.989583,Quarter,G3_G2
1227,Right,0,67,80,412.0,0.989583,Quarter,G4_A#4
1232,Left,1,44,80,413.0,0.989583,Quarter,G#3_G#2
1231,Right,0,65,80,413.0,0.989583,Quarter,G#4_F4
1235,Right,0,64,80,414.0,0.989583,Quarter,G4_E4
1236,Left,1,46,80,414.0,0.989583,Quarter,A#3_A#2
1239,Left,1,47,80,415.0,0.989583,Quarter,B3_B2
1241,Right,0,65,80,415.0,0.989583,Quarter,G#4_F4
1245,Right,0,67,80,416.0,1.989583,Half,G4_E4
1243,Left,1,48,80,416.0,1.989583,Half,C4_C3
1247,Right,0,72,80,418.0,1.989583,Quarter,F4_C5
1249,Left,1,56,80,418.0,1.989583,Half,G#3_G#2
1251,Right,0,72,80,419.0,0.989583,Quarter,C5
1252,Left,1,46,80,420.0,1.989583,Quarter,G2_A#2
1254,Right,0,74,80,420.0,0.989583,Quarter,D5
1255,Left,1,58,80,421.0,0.989583,Quarter,A#3
1256,Right,0,79,80,421.0,0.989583,Quarter,G5
1257,Left,1,56,80,422.0,1.989583,Quarter,G#3_C3
1259,Right,0,77,80,422.0,0.989583,Quarter,F5
1261,Left,1,55,80,423.0,0.989583,Quarter,G3
1260,Right,0,76,80,423.0,0.989583,Quarter,E5
1262,Left,1,53,120,424.0,0.989583,Quarter,F3_C#3
1263,Right,0,68,120,424.0,0.989583,Quarter,G#4_F5
1267,Right,0,73,120,425.0,0.989583,Quarter,G5_C#5
1266,Left,1,53,120,425.0,0.989583,Quarter,F3_A#2
1272,Right,0,72,120,430.0,0.989583,Quarter,G#5_F5_C5
1270,Left,1,48,120,430.0,0.989583,Quarter,F3_C3
1275,Right,0,72,120,431.0,0.989583,Quarter,G5_C6_C5
1278,Left,1,48,120,431.0,0.989583,Quarter,E3_C3
1280,Right,0,77,120,432.0,0.989583,Quarter,G#4_F5_C5
1283,Left,1,41,120,432.0,0.989583,Quarter,F3_F2
1285,Right,0,77,120,434.0,1.989583,Half,G#4_F5_C5
1288,Left,1,41,120,434.0,1.989583,Half,F3_F2_C3
1292,Right,0,72,120,438.0,1.989583,Half,G5_G4_C5
1291,Left,1,48,120,438.0,1.989583,Half,E3_E2_C3
1297,Left,1,53,120,442.0,1.989583,Half,F3_F2_C3
1300,Right,0,72,120,442.0,1.989583,Half,G#5_G#4_F5_C5
1305,Left,1,34,120,446.0,1.989583,Half,A#2_A#1
1304,Right,0,85,120,446.0,1.989583,Half,F5_C#6_C#5_A#5
1313,Left,1,36,110,450.0,1.989583,Half,C3_C2
1310,Right,0,72,100,450.0,1.989583,Half,G#5_F5_C6_C5
1320,Left,1,36,90,454.0,1.989583,Half,C3_C2
1316,Right,0,72,90,454.0,1.989583,Half,G5_E5_C6_C5
1323,Right,0,84,80,456.0,14.989583,Unknown,G#5_F5_C6_C5
1322,Left,1,29,80,456.0,1.395833,DottedQuarter,F1
1327,Left,1,36,80,456.5,1.395833,DottedQuarter,C2
1328,Left,1,33,80,457.0,1.395833,DottedQuarter,A1
1329,Left,1,41,80,457.5,1.395833,DottedQuarter,F2
1330,Left,1,36,80,458.0,1.395833,DottedQuarter,C2
1331,Left,1,45,80,458.5,1.395833,DottedQuarter,A2
1332,Left,1,41,80,459.0,1.395833,DottedQuarter,F2
1333,Left,1,48,80,459.5,1.489583,DottedQuarter,C3
1334,Left,1,45,80,460.0,1.489583,DottedQuarter,A2
1335,Left,1,53,80,460.5,1.489583,DottedQuarter,F3
1336,Left,1,48,80,461.0,1.489583,DottedQuarter,C3
1337,Left,1,57,80,461.5,1.489583,DottedQuarter,A3
1338,Left,1,53,80,462.0,1.489583,DottedQuarter,F3
1339,Left,1,60,80,462.5,1.489583,DottedQuarter,C4
1340,Left,1,57,80,463.0,1.489583,DottedQuarter,A3
1341,Left,1,65,80,463.5,7.489583,Unknown,F4
