,hand,channel,note,velocity,start_beat,duration,note_value,chord
0,Right,0,70,70,0.0,0.989583,Quarter,G4_A#4_A#3
3,Right,0,70,70,1.0,0.989583,Quarter,G4_A#4_A#3
6,Right,0,63,70,2.0,1.989583,Half,G4_D#4_A#3
9,Left,1,46,70,2.25,0.239583,Sixteenth,A#2
10,Left,1,48,70,2.5,0.239583,Sixteenth,C3
11,Left,1,50,70,2.75,0.239583,Sixteenth,D3
12,Left,1,51,70,3.0,0.239583,Sixteenth,D#3
13,Left,1,53,70,3.25,0.239583,Sixteenth,F3
14,Left,1,55,70,3.5,0.239583,Sixteenth,G3
15,Left,1,51,70,3.75,0.239583,Sixteenth,D#3
17,Left,1,56,70,4.0,0.489583,Eighth,G#3
16,Right,0,65,70,4.0,0.989583,Quarter,F4_D4_A#3
20,Right,0,58,70,5.0,0.989583,Quarter,F4_D4_A#3
23,Right,0,58,70,6.0,1.989583,Half,G#4_F4_A#4_A#3
25,Left,1,56,70,6.0,0.239583,Sixteenth,G#3
28,Left,1,55,70,6.25,0.239583,Sixteenth,G3
29,Left,1,53,70,6.5,0.239583,Sixteenth,F3
30,Left,1,51,70,6.75,0.239583,Sixteenth,D#3
31,Left,1,50,70,7.0,0.239583,Sixteenth,D3
32,Left,1,48,70,7.25,0.239583,Sixteenth,C3
33,Left,1,46,70,7.5,0.239583,Sixteenth,A#2
34,Left,1,50,70,7.75,0.239583,Sixteenth,D3
38,Left,1,51,70,8.0,0.489583,Eighth,D#3
35,Right,0,70,70,8.0,0.989583,Quarter,G4_A#4_A#3
39,Right,0,58,70,9.0,0.989583,Quarter,G4_A#4_A#3
42,Right,0,58,70,10.0,1.989583,Half,G4_D#4_A#3
45,Left,1,46,70,10.25,0.239583,Sixteenth,A#2
46,Left,1,48,70,10.5,0.239583,Sixteenth,C3
47,Left,1,50,70,10.75,0.239583,Sixteenth,D3
48,Left,1,51,70,11.0,0.239583,Sixteenth,D#3
49,Left,1,53,70,11.25,0.239583,Sixteenth,F3
50,Left,1,55,70,11.5,0.239583,Sixteenth,G3
51,Left,1,51,70,11.75,0.239583,Sixteenth,D#3
52,Left,1,56,70,12.0,0.239583,Sixteenth,G#3
53,Right,0,58,70,12.0,0.489583,Eighth,F4_D4_A#3
56,Left,1,53,70,12.25,0.239583,Sixteenth,F3
58,Right,0,70,70,12.5,0.989583,Quarter,A#4
57,Left,1,50,70,12.5,0.239583,Sixteenth,D3
59,Left,1,46,70,12.75,0.239583,Sixteenth,A#2
60,Left,1,44,70,13.0,0.239583,Sixteenth,G#2
61,Left,1,41,70,13.25,0.239583,Sixteenth,F2
64,Left,1,38,70,13.5,0.239583,Sixteenth,D2
62,Right,0,58,70,13.5,0.489583,Eighth,A#4_A#3
65,Left,1,34,70,13.75,0.239583,Sixteenth,A#1
67,Left,1,39,70,14.0,0.989583,Quarter,D#2
66,Right,0,63,70,14.0,0.989583,Quarter,G3_D#4
69,Left,1,51,70,15.0,0.489583,Eighth,D#3
70,Right,0,70,70,16.0,0.989583,Quarter,G4_A#4_A#3
73,Right,0,70,70,17.0,0.989583,Quarter,G4_A#4_A#3
76,Right,0,63,70,18.0,1.989583,Half,G4_D#4_A#3
79,Left,1,46,70,18.25,0.239583,Sixteenth,A#2
80,Left,1,48,70,18.5,0.239583,Sixteenth,C3
81,Left,1,50,70,18.75,0.239583,Sixteenth,D3
82,Left,1,51,70,19.0,0.239583,Sixteenth,D#3
83,Left,1,53,70,19.25,0.239583,Sixteenth,F3
84,Left,1,55,70,19.5,0.239583,Sixteenth,G3
85,Left,1,51,70,19.75,0.239583,Sixteenth,D#3
89,Left,1,56,70,20.0,0.489583,Eighth,G#3
86,Right,0,58,70,20.0,0.989583,Quarter,F4_D4_A#3
90,Right,0,65,70,21.0,0.989583,Quarter,F4_D4_A#3
93,Right,0,68,70,22.0,1.989583,Half,G#4_F4_A#4_A#3
97,Left,1,56,70,22.0,0.239583,Sixteenth,G#3
98,Left,1,55,70,22.25,0.239583,Sixteenth,G3
99,Left,1,53,70,22.5,0.239583,Sixteenth,F3
100,Left,1,51,70,22.75,0.239583,Sixteenth,D#3
101,Left,1,50,70,23.0,0.239583,Sixteenth,D3
102,Left,1,48,70,23.25,0.239583,Sixteenth,C3
103,Left,1,46,70,23.5,0.239583,Sixteenth,A#2
104,Left,1,50,70,23.75,0.239583,Sixteenth,D3
106,Right,0,70,70,24.0,0.989583,Quarter,G4_A#4_A#3
105,Left,1,51,70,24.0,0.489583,Eighth,D#3
109,Right,0,70,70,25.0,0.989583,Quarter,G4_A#4_A#3
112,Right,0,63,70,26.0,1.989583,Half,G4_D#4_A#3
115,Left,1,46,70,26.25,0.239583,Sixteenth,A#2
116,Left,1,48,70,26.5,0.239583,Sixteenth,C3
117,Left,1,50,70,26.75,0.239583,Sixteenth,D3
118,Left,1,51,70,27.0,0.239583,Sixteenth,D#3
119,Left,1,53,70,27.25,0.239583,Sixteenth,F3
120,Left,1,55,70,27.5,0.239583,Sixteenth,G3
121,Left,1,51,70,27.75,0.239583,Sixteenth,D#3
122,Right,0,62,70,28.0,0.489583,Eighth,F4_D4_A#3
124,Left,1,56,70,28.0,0.239583,Sixteenth,G#3
126,Left,1,53,70,28.25,0.239583,Sixteenth,F3
127,Left,1,50,70,28.5,0.239583,Sixteenth,D3
128,Right,0,70,70,28.5,0.989583,Quarter,A#4
129,Left,1,46,70,28.75,0.239583,Sixteenth,A#2
130,Left,1,44,70,29.0,0.239583,Sixteenth,G#2
131,Left,1,41,70,29.25,0.239583,Sixteenth,F2
132,Left,1,38,70,29.5,0.239583,Sixteenth,D2
133,Right,0,70,70,29.5,0.489583,Eighth,A#4_A#3
135,Left,1,34,70,29.75,0.239583,Sixteenth,A#1
137,Left,1,39,70,30.0,0.989583,Quarter,D#2
136,Right,0,55,70,30.0,0.989583,Quarter,G3_D#4
139,Left,1,51,70,31.0,0.489583,Eighth,D#3
140,Right,0,65,70,32.0,0.989583,Quarter,G#4_F4
142,Right,0,65,70,33.0,0.989583,Quarter,G#4_F4
144,Right,0,68,70,34.0,1.989583,Half,G#4_F4_D5
147,Left,1,34,70,34.25,0.239583,Sixteenth,A#1
148,Left,1,46,70,34.5,0.239583,Sixteenth,A#2
149,Left,1,48,70,34.75,0.239583,Sixteenth,C3
150,Left,1,50,70,35.0,0.239583,Sixteenth,D3
151,Left,1,51,70,35.25,0.239583,Sixteenth,D#3
152,Left,1,53,70,35.5,0.239583,Sixteenth,F3
153,Left,1,55,70,35.75,0.239583,Sixteenth,G3
154,Right,0,74,70,36.0,0.989583,Quarter,D5_D4
155,Left,1,57,70,36.0,0.489583,Eighth,A3
157,Left,1,58,73,36.5,1.739583,DottedQuarter,A#3
158,Right,0,74,76,37.0,0.989583,Quarter,D5_D4
160,Right,0,68,83,38.0,1.989583,Half,G#4_F5_F4_D5
164,Left,1,34,84,38.25,0.239583,Sixteenth,A#1
165,Left,1,46,86,38.5,0.239583,Sixteenth,A#2
166,Left,1,48,88,38.75,0.239583,Sixteenth,C3
167,Left,1,50,89,39.0,0.239583,Sixteenth,D3
168,Left,1,51,91,39.25,0.239583,Sixteenth,D#3
169,Left,1,53,93,39.5,0.239583,Sixteenth,F3
170,Left,1,55,94,39.75,0.239583,Sixteenth,G3
171,Right,0,65,96,40.0,0.989583,Quarter,F5_F4_D5
174,Left,1,57,96,40.0,0.489583,Eighth,A3
175,Left,1,58,99,40.5,1.989583,Half,A#3
176,Right,0,65,103,41.0,0.989583,Quarter,F5_F4_D5
179,Right,0,80,109,42.0,1.489583,Quarter,G#5_F5_D5
182,Left,1,59,110,42.5,0.489583,Eighth,B3
184,Left,1,60,110,43.0,0.489583,Eighth,C4
183,Right,0,75,110,43.0,0.489583,Eighth,D#5
185,Left,1,55,110,43.5,0.489583,Eighth,G3
186,Right,0,71,110,43.5,0.489583,Eighth,G5_B4
188,Left,1,56,100,44.0,0.489583,Eighth,G#3
189,Right,0,72,100,44.0,0.489583,Eighth,G5_C5
192,Right,0,72,97,44.5,0.489583,Eighth,F5_C5
191,Left,1,57,97,44.5,0.489583,Eighth,A3
195,Right,0,67,94,45.0,0.489583,Eighth,G4_D#5
194,Left,1,58,94,45.0,1.489583,DottedQuarter,A#3
197,Right,0,68,91,45.5,0.489583,Eighth,G#4_F4_D5
200,Left,1,46,91,45.5,0.489583,Eighth,A#2
202,Right,0,77,87,46.0,0.989583,Quarter,G#4_F5
201,Left,1,51,87,46.0,1.489583,DottedQuarter,D#3
204,Left,1,62,84,46.5,0.489583,Eighth,D4
206,Left,1,63,81,47.0,0.489583,Eighth,D#4
205,Right,0,75,81,47.0,0.489583,Eighth,G4_D#5
208,Right,0,65,70,48.0,0.989583,Quarter,G#4_F4
210,Right,0,68,70,49.0,0.989583,Quarter,G#4_F4
212,Right,0,74,70,50.0,1.989583,Half,G#4_F4_D5
215,Left,1,34,70,50.25,0.239583,Sixteenth,A#1
216,Left,1,46,70,50.5,0.239583,Sixteenth,A#2
217,Left,1,48,70,50.75,0.239583,Sixteenth,C3
218,Left,1,50,70,51.0,0.239583,Sixteenth,D3
219,Left,1,51,70,51.25,0.239583,Sixteenth,D#3
220,Left,1,53,70,51.5,0.239583,Sixteenth,F3
221,Left,1,55,70,51.75,0.239583,Sixteenth,G3
222,Right,0,74,70,52.0,0.989583,Quarter,D5_D4
224,Left,1,57,70,52.0,0.489583,Eighth,A3
225,Left,1,58,73,52.5,1.739583,DottedQuarter,A#3
226,Right,0,62,76,53.0,0.989583,Quarter,D5_D4
228,Right,0,65,83,54.0,1.989583,Half,G#4_F5_F4_D5
232,Left,1,34,84,54.25,0.239583,Sixteenth,A#1
233,Left,1,46,86,54.5,0.239583,Sixteenth,A#2
234,Left,1,48,88,54.75,0.239583,Sixteenth,C3
235,Left,1,50,89,55.0,0.239583,Sixteenth,D3
236,Left,1,51,91,55.25,0.239583,Sixteenth,D#3
237,Left,1,53,93,55.5,0.239583,Sixteenth,F3
238,Left,1,55,94,55.75,0.239583,Sixteenth,G3
241,Left,1,57,96,56.0,0.489583,Eighth,A3
239,Right,0,65,96,56.0,0.989583,Quarter,F5_F4_D5
243,Left,1,58,99,56.5,1.989583,Half,A#3
244,Right,0,65,103,57.0,0.989583,Quarter,F5_F4_D5
247,Right,0,77,109,58.0,1.489583,Quarter,G#5_F5_D5
250,Left,1,59,110,58.5,0.489583,Eighth,B3
252,Left,1,60,110,59.0,0.489583,Eighth,C4
251,Right,0,75,110,59.0,0.489583,Eighth,D#5
255,Left,1,55,110,59.5,0.489583,Eighth,G3
253,Right,0,79,110,59.5,0.489583,Eighth,G5_B4
257,Left,1,56,100,60.0,0.489583,Eighth,G#3
256,Right,0,79,100,60.0,0.489583,Eighth,G5_C5
259,Right,0,77,97,60.5,0.489583,Eighth,F5_C5
260,Left,1,57,97,60.5,0.489583,Eighth,A3
262,Left,1,58,94,61.0,1.489583,DottedQuarter,A#3
263,Right,0,67,94,61.0,0.489583,Eighth,G4_D#5
265,Right,0,68,91,61.5,0.489583,Eighth,G#4_F4_D5
268,Left,1,46,91,61.5,0.489583,Eighth,A#2
269,Right,0,77,87,62.0,0.989583,Quarter,G#4_F5
271,Left,1,51,87,62.0,1.489583,DottedQuarter,D#3
272,Left,1,62,84,62.5,0.489583,Eighth,D4
273,Right,0,67,81,63.0,0.489583,Eighth,G4_D#5
275,Left,1,63,81,63.0,0.489583,Eighth,D#4
276,Right,0,58,70,63.5,0.489583,Eighth,A#3
280,Left,1,51,70,64.0,0.489583,Eighth,D#3_D#2_A#2
277,Right,0,55,70,64.0,0.989583,Eighth,G4_G3_D#4_A#3
287,Left,1,39,70,64.5,0.489583,Eighth,D#3_D#2_A#2
284,Right,0,63,70,64.5,0.489583,Eighth,G3_D#4_A#3
290,Left,1,46,70,65.0,0.489583,Eighth,D#3_D#2_A#2
292,Right,0,55,70,65.0,0.989583,Eighth,G4_G3_D#4_A#3
300,Left,1,51,70,65.5,0.489583,Eighth,D#3_D#2_A#2
297,Right,0,58,70,65.5,0.489583,Eighth,G3_D#4_A#3
304,Left,1,51,70,66.0,0.489583,Eighth,D#3_D#2_A#2
303,Right,0,55,70,66.0,1.489583,Eighth,G4_G3_D#4_A#3
311,Right,0,58,70,66.5,0.489583,Eighth,G3_D#4_A#3
310,Left,1,51,70,66.5,0.489583,Eighth,D#3_D#2_A#2
316,Right,0,55,70,67.0,0.489583,Eighth,G3_D#4_A#3
318,Left,1,46,70,67.0,0.489583,Eighth,D#3_D#2_A#2
322,Right,0,63,70,67.5,0.489583,Eighth,G3_F4_D#4_A#3
325,Left,1,39,70,67.5,0.489583,Eighth,D#3_D#2_A#2
329,Right,0,63,91,68.0,0.489583,Eighth,G3_D#4
330,Left,1,46,70,68.0,0.489583,Eighth,D#3_D#2_A#2
334,Right,0,63,70,68.5,0.489583,Eighth,G3_F4_D#4
335,Left,1,39,70,68.5,0.489583,Eighth,D#3_D#2_A#2
340,Left,1,39,70,69.0,0.489583,Eighth,D#3_D#2_A#2
343,Right,0,63,70,69.0,0.489583,Eighth,G4_G3_D#4
348,Right,0,63,70,69.5,0.489583,Eighth,G3_G#4_D#4
346,Left,1,39,70,69.5,0.489583,Eighth,D#3_D#2_A#2
355,Left,1,51,70,70.0,0.489583,Eighth,D#3_D#2_A#2
352,Right,0,63,70,70.0,0.989583,Eighth,G3_D#4_A4
358,Left,1,51,70,70.5,0.489583,Eighth,D#3_D#2_A#2
360,Right,0,55,70,70.5,0.489583,Eighth,G3_D#4
363,Left,1,51,70,71.0,0.489583,Eighth,D#3_D#2_A#2
364,Right,0,70,92,71.0,0.489583,Eighth,G3_D#4_A#4
369,Left,1,39,70,71.5,0.489583,Eighth,D#3_D#2_A#2
372,Right,0,63,70,71.5,0.489583,Eighth,G3_D#4
374,Left,1,50,70,72.0,0.489583,Eighth,F2_D3_A#2
377,Right,0,70,90,72.0,0.989583,Eighth,G#3_D4_A#4
382,Right,0,56,70,72.5,0.489583,Eighth,G#3_D4
380,Left,1,50,70,72.5,0.489583,Eighth,F2_D3_A#2
385,Right,0,70,90,73.0,0.989583,Eighth,G#3_D4_A#4
386,Left,1,50,70,73.0,0.489583,Eighth,F2_D3_A#2
391,Left,1,50,70,73.5,0.489583,Eighth,F2_D3_A#2
394,Right,0,56,70,73.5,0.489583,Eighth,G#3_D4
398,Right,0,62,70,74.0,1.489583,Eighth,G#3_D4_A#4
396,Left,1,46,70,74.0,0.489583,Eighth,F2_D3_A#2
404,Left,1,41,70,74.5,0.489583,Eighth,F2_D3_A#2
402,Right,0,62,70,74.5,0.489583,Eighth,G#3_D4
407,Right,0,56,70,75.0,0.489583,Eighth,G#3_D4
409,Left,1,50,70,75.0,0.489583,Eighth,F2_D3_A#2
413,Left,1,50,70,75.5,0.489583,Eighth,F2_D3_A#2
412,Right,0,62,70,75.5,0.489583,Eighth,G#4_G#3_D4
420,Left,1,34,70,76.0,0.489583,Eighth,A#2_A#1
418,Right,0,62,70,76.0,0.489583,Eighth,G4_G#3_D4
425,Left,1,46,70,76.5,0.489583,Eighth,A#2_A#1
423,Right,0,62,70,76.5,0.489583,Eighth,G#3_F4_D4
431,Left,1,46,70,77.0,0.489583,Eighth,A#2_A#1
428,Right,0,62,70,77.0,0.489583,Eighth,G#4_G#3_D4
434,Left,1,34,70,77.5,0.489583,Eighth,A#2_A#1
433,Right,0,62,93,77.5,0.489583,Eighth,G#3_D4
439,Right,0,55,70,78.0,0.989583,Eighth,G3_F4
437,Left,1,46,70,78.0,0.489583,Eighth,D#2_A#2
441,Left,1,46,70,78.5,0.489583,Eighth,D#2_A#2
443,Right,0,55,70,78.5,0.489583,Eighth,G3
444,Left,1,46,70,79.0,0.489583,Eighth,D#2_A#2
446,Right,0,63,93,79.0,0.489583,Eighth,G3_D#4
448,Left,1,39,70,79.5,0.489583,Eighth,D#2_A#2
449,Right,0,58,70,79.5,0.489583,Eighth,G3_A#3
452,Left,1,39,70,80.0,0.489583,Eighth,D#3_D#2_A#2
453,Right,0,58,70,80.0,0.989583,Eighth,G4_G3_D#4_A#3
459,Left,1,51,70,80.5,0.489583,Eighth,D#3_D#2_A#2
461,Right,0,55,70,80.5,0.489583,Eighth,G3_D#4_A#3
465,Left,1,46,70,81.0,0.489583,Eighth,D#3_D#2_A#2
466,Right,0,63,70,81.0,0.989583,Eighth,G4_G3_D#4_A#3
472,Left,1,39,70,81.5,0.489583,Eighth,D#3_D#2_A#2
475,Right,0,55,70,81.5,0.489583,Eighth,G3_D#4_A#3
479,Left,1,39,70,82.0,0.489583,Eighth,D#3_D#2_A#2
478,Right,0,58,70,82.0,1.489583,Eighth,G4_G3_D#4_A#3
485,Left,1,39,70,82.5,0.489583,Eighth,D#3_D#2_A#2
488,Right,0,58,70,82.5,0.489583,Eighth,G3_D#4_A#3
491,Right,0,63,70,83.0,0.489583,Eighth,G3_D#4_A#3
492,Left,1,46,70,83.0,0.489583,Eighth,D#3_D#2_A#2
497,Right,0,65,93,83.5,0.489583,Eighth,G3_F4_D#4_A#3
498,Left,1,51,70,83.5,0.489583,Eighth,D#3_D#2_A#2
506,Left,1,39,70,84.0,0.489583,Eighth,D#3_D#2_A#2
504,Right,0,55,70,84.0,0.489583,Eighth,G3_D#4
510,Right,0,65,90,84.5,0.489583,Eighth,G3_F4_D#4
509,Left,1,51,70,84.5,0.489583,Eighth,D#3_D#2_A#2
517,Left,1,39,70,85.0,0.489583,Eighth,D#3_D#2_A#2
515,Right,0,67,93,85.0,0.489583,Eighth,G4_G3_D#4
522,Right,0,55,70,85.5,0.489583,Eighth,G3_G#4_D#4
521,Left,1,39,70,85.5,0.489583,Eighth,D#3_D#2_A#2
527,Left,1,39,70,86.0,0.489583,Eighth,D#3_D#2_A#2
528,Right,0,55,70,86.0,0.989583,Eighth,G3_D#4_A4
535,Right,0,63,70,86.5,0.489583,Eighth,G3_D#4
533,Left,1,46,70,86.5,0.489583,Eighth,D#3_D#2_A#2
538,Left,1,51,70,87.0,0.489583,Eighth,D#3_D#2_A#2
541,Right,0,70,92,87.0,0.489583,Eighth,G3_D#4_A#4
545,Left,1,51,70,87.5,0.489583,Eighth,D#3_D#2_A#2
544,Right,0,63,70,87.5,0.489583,Eighth,G3_D#4
550,Left,1,46,70,88.0,0.489583,Eighth,F2_D3_A#2
549,Right,0,62,70,88.0,0.989583,Eighth,G#3_D4_A#4
555,Left,1,46,70,88.5,0.489583,Eighth,F2_D3_A#2
556,Right,0,56,70,88.5,0.489583,Eighth,G#3_D4
560,Right,0,62,70,89.0,0.989583,Eighth,G#3_D4_A#4
563,Left,1,41,70,89.0,0.489583,Eighth,F2_D3_A#2
566,Right,0,62,70,89.5,0.489583,Eighth,G#3_D4
568,Left,1,41,70,89.5,0.489583,Eighth,F2_D3_A#2
573,Left,1,41,70,90.0,0.489583,Eighth,F2_D3_A#2
571,Right,0,62,70,90.0,1.489583,Eighth,G#3_D4_A#4
579,Left,1,46,70,90.5,0.489583,Eighth,F2_D3_A#2
577,Right,0,62,70,90.5,0.489583,Eighth,G#3_D4
583,Left,1,41,70,91.0,0.489583,Eighth,F2_D3_A#2
582,Right,0,62,70,91.0,0.489583,Eighth,G#3_D4
587,Left,1,41,70,91.5,0.489583,Eighth,F2_D3_A#2
590,Right,0,56,70,91.5,0.489583,Eighth,G#4_G#3_D4
594,Right,0,67,93,92.0,0.489583,Eighth,G4_G#3_D4
593,Left,1,46,70,92.0,0.489583,Eighth,A#2_A#1
598,Right,0,62,70,92.5,0.489583,Eighth,G#3_F4_D4
600,Left,1,46,70,92.5,0.489583,Eighth,A#2_A#1
603,Right,0,62,70,93.0,0.489583,Eighth,G#4_G#3_D4
606,Left,1,34,70,93.0,0.489583,Eighth,A#2_A#1
608,Right,0,62,93,93.5,0.489583,Eighth,G#3_D4
610,Left,1,34,70,93.5,0.489583,Eighth,A#2_A#1
614,Right,0,55,70,94.0,0.989583,Eighth,G3_F4
612,Left,1,46,70,94.0,0.489583,Eighth,D#2_A#2
618,Right,0,55,70,94.5,0.489583,Eighth,G3
616,Left,1,39,70,94.5,0.489583,Eighth,D#2_A#2
619,Right,0,63,93,95.0,0.489583,Eighth,G3_D#4
620,Left,1,39,70,95.0,0.489583,Eighth,D#2_A#2
623,Right,0,67,70,95.5,0.489583,Eighth,G4
624,Left,1,48,70,96.0,0.989583,Quarter,G3_E3_C4_C3
626,Right,0,67,70,96.0,0.989583,Quarter,G4_E5_E4_C5
632,Right,0,64,70,97.0,0.989583,Quarter,G4_E5_E4_C5
636,Left,1,60,70,97.0,0.989583,Quarter,G3_E3_C4_C3
640,Left,1,60,70,98.0,1.489583,DottedQuarter,G3_E3_C4_C3
641,Right,0,67,70,98.0,1.489583,DottedQuarter,G4_E5_E4_C5
648,Left,1,60,70,99.5,0.489583,Eighth,C4
649,Right,0,72,70,99.5,0.489583,Eighth,E4_C5
652,Right,0,74,78,100.0,0.489583,Eighth,F4_D5
651,Left,1,60,78,100.0,0.489583,Eighth,C4_B3
657,Right,0,72,87,100.5,0.489583,Eighth,G4_E5_C5
655,Left,1,60,87,100.5,0.489583,Eighth,C4_A#3
660,Left,1,60,96,101.0,0.489583,Eighth,G#3_C4
661,Right,0,77,96,101.0,0.489583,Eighth,G#4_F5_C5
665,Right,0,79,104,101.5,0.489583,Eighth,G5_C5_A#4
668,Left,1,52,104,101.5,0.489583,Eighth,E3_C4
670,Left,1,60,110,102.0,1.489583,DottedQuarter,F3_C4
672,Right,0,80,110,102.0,2.489583,Half,G#5_G#4_C5
675,Left,1,40,103,103.5,0.489583,Eighth,E2
676,Left,1,41,101,104.0,0.489583,Eighth,F2
677,Left,1,43,98,104.5,0.489583,Eighth,G2
678,Right,0,80,98,104.5,0.239583,Sixteenth,G#5
679,Right,0,79,97,104.75,0.239583,Sixteenth,G5
680,Left,1,44,96,105.0,0.489583,Eighth,G#2
681,Right,0,77,96,105.0,0.239583,Sixteenth,F5
682,Right,0,75,94,105.25,0.239583,Sixteenth,D#5
683,Left,1,45,93,105.5,0.489583,Eighth,A2
684,Right,0,74,93,105.5,0.239583,Sixteenth,D5
685,Right,0,72,92,105.75,0.239583,Sixteenth,C5
687,Left,1,46,91,106.0,1.989583,Half,A#2
686,Right,0,70,105,106.0,2.489583,Half,A#4
688,Right,0,68,88,106.5,0.239583,Sixteenth,G#4
689,Right,0,67,87,106.75,0.239583,Sixteenth,G4
690,Right,0,65,86,107.0,0.239583,Sixteenth,F4
691,Right,0,63,84,107.25,0.239583,Sixteenth,D#4
692,Right,0,62,83,107.5,0.239583,Sixteenth,D4
693,Right,0,60,82,107.75,0.239583,Sixteenth,C4
695,Left,1,46,81,108.0,0.989583,Quarter,A#2
694,Right,0,58,81,108.0,0.989583,Quarter,A#3
696,Left,1,48,70,108.25,0.239583,Sixteenth,C3
698,Left,1,50,70,108.5,0.239583,Sixteenth,D3
697,Right,0,69,70,108.5,0.489583,Eighth,A4
699,Left,1,51,70,108.75,0.239583,Sixteenth,D#3
701,Right,0,68,70,109.0,0.989583,Eighth,G#4_D4
700,Left,1,46,70,109.0,0.989583,Quarter,F3_A#2
704,Left,1,55,70,109.25,0.239583,Sixteenth,G3
706,Right,0,65,70,109.5,0.489583,Eighth,F4
705,Left,1,56,70,109.5,0.239583,Sixteenth,G#3
707,Left,1,53,70,109.75,0.239583,Sixteenth,F3
710,Right,0,63,70,110.0,0.989583,Quarter,D#4
708,Left,1,51,70,110.0,0.989583,Quarter,G3_D#3
711,Left,1,39,70,111.0,0.489583,Eighth,D#2
712,Right,0,67,70,111.5,0.489583,Eighth,G4
717,Right,0,64,70,112.0,0.989583,Quarter,G4_E5_E4_C5
713,Left,1,55,70,112.0,0.989583,Quarter,G3_E3_C4_C3
721,Left,1,55,70,113.0,0.989583,Quarter,G3_E3_C4_C3
724,Right,0,72,70,113.0,0.989583,Quarter,G4_E5_E4_C5
729,Left,1,60,70,114.0,1.489583,DottedQuarter,G3_E3_C4_C3
733,Right,0,67,70,114.0,1.489583,DottedQuarter,G4_E5_E4_C5
737,Right,0,72,70,115.5,0.083333,TripletThirtySecond,C5
738,Left,1,60,70,115.5,0.489583,Eighth,C4
739,Right,0,74,71,115.5625,0.072917,TripletThirtySecond,D5
740,Right,0,72,72,115.625,0.09375,TripletThirtySecond,C5
741,Right,0,74,73,115.6875,0.09375,TripletThirtySecond,D5
742,Right,0,72,74,115.75,0.104167,ThirtySecond,C5
743,Right,0,74,75,115.8125,0.09375,TripletThirtySecond,D5
744,Right,0,71,76,115.875,0.083333,TripletThirtySecond,B4
745,Right,0,72,77,115.9375,0.052083,SixtyFourth,C5
747,Right,0,74,78,116.0,0.489583,Eighth,D5
746,Left,1,59,78,116.0,0.489583,Eighth,C4_B3
749,Left,1,60,87,116.5,0.489583,Eighth,C4_A#3
751,Right,0,76,87,116.5,0.104167,ThirtySecond,E5
752,Right,0,77,88,116.5625,0.104167,ThirtySecond,F5
753,Right,0,76,89,116.625,0.104167,ThirtySecond,E5
754,Right,0,77,90,116.6875,0.114583,ThirtySecond,F5
755,Right,0,76,91,116.75,0.114583,ThirtySecond,E5
756,Right,0,77,92,116.8125,0.104167,ThirtySecond,F5
757,Right,0,74,93,116.875,0.083333,TripletThirtySecond,D5
758,Right,0,76,94,116.9375,0.052083,SixtyFourth,E5
759,Right,0,77,95,117.0,0.489583,Eighth,F5
760,Left,1,60,95,117.0,0.489583,Eighth,G#3_C4
762,Right,0,79,104,117.5,0.09375,TripletThirtySecond,G5
763,Left,1,52,104,117.5,0.489583,Eighth,E3_C4
765,Right,0,80,105,117.5625,0.104167,ThirtySecond,G#5
766,Right,0,79,106,117.625,0.104167,ThirtySecond,G5
767,Right,0,80,107,117.6875,0.104167,ThirtySecond,G#5
768,Right,0,79,108,117.75,0.114583,ThirtySecond,G5
769,Right,0,80,109,117.8125,0.104167,ThirtySecond,G#5
770,Right,0,77,110,117.875,0.104167,ThirtySecond,F5
771,Right,0,79,110,117.9375,0.052083,SixtyFourth,G5
772,Right,0,80,110,118.0,2.489583,Half,G#5
773,Left,1,60,110,118.0,1.489583,DottedQuarter,F3_C4
775,Left,1,40,100,119.5,0.489583,Eighth,E2
776,Left,1,41,97,120.0,0.489583,Eighth,F2
777,Right,0,80,93,120.5,0.239583,Sixteenth,G#5
778,Left,1,43,93,120.5,0.489583,Eighth,G2
779,Right,0,79,92,120.75,0.239583,Sixteenth,G5
780,Left,1,44,90,121.0,0.489583,Eighth,G#2
781,Right,0,77,90,121.0,0.239583,Sixteenth,F5
782,Right,0,75,88,121.25,0.239583,Sixteenth,D#5
783,Left,1,45,87,121.5,0.489583,Eighth,A2
784,Right,0,74,87,121.5,0.239583,Sixteenth,D5
785,Right,0,72,85,121.75,0.239583,Sixteenth,C5
787,Left,1,46,94,122.0,1.989583,Half,A#2
786,Right,0,70,101,122.0,2.489583,Half,A#4
788,Right,0,68,80,122.5,0.239583,Sixteenth,G#4
789,Right,0,67,79,122.75,0.239583,Sixteenth,G4
790,Right,0,65,77,123.0,0.239583,Sixteenth,F4
791,Right,0,63,75,123.25,0.239583,Sixteenth,D#4
792,Right,0,62,74,123.5,0.239583,Sixteenth,D4
793,Right,0,60,72,123.75,0.239583,Sixteenth,C4
794,Right,0,58,71,124.0,0.989583,Quarter,A#3
795,Left,1,46,71,124.0,0.989583,Quarter,A#2
796,Left,1,48,70,124.25,0.239583,Sixteenth,C3
798,Right,0,69,70,124.5,0.489583,Eighth,A4
797,Left,1,50,70,124.5,0.239583,Sixteenth,D3
799,Left,1,51,70,124.75,0.239583,Sixteenth,D#3
801,Left,1,46,70,125.0,0.989583,Quarter,F3_A#2
800,Right,0,68,70,125.0,0.989583,Eighth,G#4_D4
804,Left,1,55,70,125.25,0.239583,Sixteenth,G3
805,Left,1,56,70,125.5,0.239583,Sixteenth,G#3
806,Right,0,65,70,125.5,0.489583,Eighth,F4
807,Left,1,53,70,125.75,0.239583,Sixteenth,F3
808,Left,1,55,70,126.0,0.989583,Quarter,G3_D#3
810,Right,0,63,70,126.0,0.989583,Quarter,D#4
811,Left,1,39,70,127.0,0.489583,Eighth,D#2
812,Right,0,58,70,127.5,0.489583,Eighth,A#3
813,Right,0,67,70,128.0,0.989583,Quarter,G4_A#4_A#3
816,Right,0,67,70,129.0,0.989583,Quarter,G4_A#4_A#3
819,Right,0,67,70,130.0,1.989583,Half,G4_D#4_A#3
822,Left,1,46,70,130.25,0.239583,Sixteenth,A#2
823,Left,1,48,70,130.5,0.239583,Sixteenth,C3
824,Left,1,50,70,130.75,0.239583,Sixteenth,D3
825,Left,1,51,70,131.0,0.239583,Sixteenth,D#3
826,Left,1,53,70,131.25,0.239583,Sixteenth,F3
827,Left,1,55,70,131.5,0.239583,Sixteenth,G3
828,Left,1,51,70,131.75,0.239583,Sixteenth,D#3
832,Left,1,56,70,132.0,0.489583,Eighth,G#3
829,Right,0,58,70,132.0,0.989583,Quarter,F4_D4_A#3
833,Right,0,62,70,133.0,0.989583,Quarter,F4_D4_A#3
837,Right,0,58,70,134.0,1.989583,Half,G#4_F4_A#4_A#3
836,Left,1,56,70,134.0,0.239583,Sixteenth,G#3
841,Left,1,55,70,134.25,0.239583,Sixteenth,G3
842,Left,1,53,70,134.5,0.239583,Sixteenth,F3
843,Left,1,51,70,134.75,0.239583,Sixteenth,D#3
844,Left,1,50,70,135.0,0.239583,Sixteenth,D3
845,Left,1,48,70,135.25,0.239583,Sixteenth,C3
846,Left,1,46,70,135.5,0.239583,Sixteenth,A#2
847,Left,1,50,70,135.75,0.239583,Sixteenth,D3
851,Left,1,51,70,136.0,0.489583,Eighth,D#3
848,Right,0,67,70,136.0,0.989583,Quarter,G4_A#4_A#3
852,Right,0,58,70,137.0,0.989583,Quarter,G4_A#4_A#3
855,Right,0,67,70,138.0,1.989583,Half,G4_D#4_A#3
858,Left,1,46,70,138.25,0.239583,Sixteenth,A#2
859,Left,1,48,70,138.5,0.239583,Sixteenth,C3
860,Left,1,50,70,138.75,0.239583,Sixteenth,D3
861,Left,1,51,70,139.0,0.239583,Sixteenth,D#3
862,Left,1,53,70,139.25,0.239583,Sixteenth,F3
863,Left,1,55,70,139.5,0.239583,Sixteenth,G3
864,Left,1,51,70,139.75,0.239583,Sixteenth,D#3
865,Right,0,58,70,140.0,0.489583,Eighth,F4_D4_A#3
868,Left,1,56,70,140.0,0.239583,Sixteenth,G#3
869,Left,1,53,70,140.25,0.239583,Sixteenth,F3
871,Right,0,70,70,140.5,0.989583,Quarter,A#4
870,Left,1,50,70,140.5,0.239583,Sixteenth,D3
872,Left,1,46,70,140.75,0.239583,Sixteenth,A#2
873,Left,1,44,70,141.0,0.239583,Sixteenth,G#2
874,Left,1,41,70,141.25,0.239583,Sixteenth,F2
876,Left,1,38,70,141.5,0.239583,Sixteenth,D2
875,Right,0,58,70,141.5,0.489583,Eighth,A#4_A#3
878,Left,1,34,70,141.75,0.239583,Sixteenth,A#1
880,Left,1,39,70,142.0,0.989583,Quarter,D#2
879,Right,0,55,70,142.0,0.989583,Quarter,G3_D#4
882,Left,1,51,70,143.0,0.489583,Eighth,D#3
883,Right,0,58,70,143.5,0.489583,Eighth,A#3
884,Right,0,70,70,144.0,0.489583,Eighth,G4_A#4_A#3
887,Right,0,70,70,144.5,0.489583,Eighth,G4_A#4_A#3
890,Right,0,70,70,145.0,0.489583,Eighth,G4_A#4_A#3
893,Right,0,70,70,145.5,0.489583,Eighth,G4_A#4_A#3
896,Right,0,63,70,146.0,1.989583,Half,G4_D#4_A#3
899,Left,1,46,70,146.25,0.239583,Sixteenth,A#2
900,Left,1,48,70,146.5,0.239583,Sixteenth,C3
901,Left,1,50,70,146.75,0.239583,Sixteenth,D3
902,Left,1,51,70,147.0,0.239583,Sixteenth,D#3
903,Left,1,53,70,147.25,0.239583,Sixteenth,F3
904,Left,1,55,70,147.5,0.239583,Sixteenth,G3
905,Left,1,51,70,147.75,0.239583,Sixteenth,D#3
907,Right,0,58,70,148.0,0.489583,Eighth,F4_D4_A#3
906,Left,1,56,70,148.0,0.489583,Eighth,G#3
910,Right,0,58,70,148.5,0.489583,Eighth,F4_D4_A#3
913,Right,0,58,70,149.0,0.489583,Eighth,F4_D4_A#3
916,Right,0,58,70,149.5,0.489583,Eighth,F4_D4_A#3
919,Right,0,70,70,150.0,1.989583,Half,G#4_F4_A#4_A#3
920,Left,1,56,70,150.0,0.239583,Sixteenth,G#3
924,Left,1,55,70,150.25,0.239583,Sixteenth,G3
925,Left,1,53,70,150.5,0.239583,Sixteenth,F3
926,Left,1,51,70,150.75,0.239583,Sixteenth,D#3
927,Left,1,50,70,151.0,0.239583,Sixteenth,D3
928,Left,1,48,70,151.25,0.239583,Sixteenth,C3
929,Left,1,46,70,151.5,0.239583,Sixteenth,A#2
930,Left,1,50,70,151.75,0.239583,Sixteenth,D3
932,Right,0,70,70,152.0,0.489583,Eighth,G4_A#4_A#3
931,Left,1,51,70,152.0,0.489583,Eighth,D#3
935,Right,0,58,70,152.5,0.489583,Eighth,G4_A#4_A#3
938,Right,0,67,70,153.0,0.489583,Eighth,G4_A#4_A#3
941,Right,0,58,70,153.5,0.489583,Eighth,G4_A#4_A#3
944,Right,0,58,70,154.0,1.989583,Half,G4_D#4_A#3
947,Left,1,46,70,154.25,0.239583,Sixteenth,A#2
948,Left,1,48,70,154.5,0.239583,Sixteenth,C3
949,Left,1,50,70,154.75,0.239583,Sixteenth,D3
950,Left,1,51,70,155.0,0.239583,Sixteenth,D#3
951,Left,1,53,70,155.25,0.239583,Sixteenth,F3
952,Left,1,55,70,155.5,0.239583,Sixteenth,G3
953,Left,1,51,70,155.75,0.239583,Sixteenth,D#3
957,Left,1,56,70,156.0,0.239583,Sixteenth,G#3
954,Right,0,65,70,156.0,0.489583,Eighth,F4_D4_A#3
958,Left,1,53,70,156.25,0.239583,Sixteenth,F3
959,Right,0,70,70,156.5,0.989583,Quarter,A#4
960,Left,1,50,70,156.5,0.239583,Sixteenth,D3
961,Left,1,46,70,156.75,0.239583,Sixteenth,A#2
962,Left,1,44,70,157.0,0.239583,Sixteenth,G#2
963,Left,1,41,70,157.25,0.239583,Sixteenth,F2
966,Left,1,38,70,157.5,0.239583,Sixteenth,D2
964,Right,0,58,70,157.5,0.489583,Eighth,A#4_A#3
967,Left,1,34,70,157.75,0.239583,Sixteenth,A#1
970,Left,1,39,70,158.0,0.989583,Quarter,D#2
968,Right,0,55,70,158.0,0.989583,Quarter,G3_D#4
971,Left,1,51,70,159.0,0.489583,Eighth,D#3
972,Right,0,65,70,160.0,0.489583,Eighth,G#4_F4
974,Right,0,65,70,160.5,0.489583,Eighth,G#4_F4
976,Right,0,65,70,161.0,0.489583,Eighth,G#4_F4
978,Right,0,65,70,161.5,0.489583,Eighth,G#4_F4
980,Right,0,68,70,162.0,1.989583,Half,G#4_F4_D5
983,Left,1,34,70,162.25,0.239583,Sixteenth,A#1
984,Left,1,46,70,162.5,0.239583,Sixteenth,A#2
985,Left,1,48,70,162.75,0.239583,Sixteenth,C3
986,Left,1,50,70,163.0,0.239583,Sixteenth,D3
987,Left,1,51,70,163.25,0.239583,Sixteenth,D#3
988,Left,1,53,70,163.5,0.239583,Sixteenth,F3
989,Left,1,55,70,163.75,0.239583,Sixteenth,G3
990,Right,0,74,70,164.0,0.489583,Eighth,F4_D5
991,Left,1,57,70,164.0,0.489583,Eighth,A3
993,Right,0,65,73,164.5,0.489583,Eighth,F4_D5
994,Left,1,58,73,164.5,1.739583,DottedQuarter,A#3
996,Right,0,74,76,165.0,0.489583,Eighth,F4_D5
998,Right,0,74,79,165.5,0.489583,Eighth,F4_D5
1000,Right,0,77,83,166.0,1.989583,Half,G#4_F5_F4_D5
1004,Left,1,34,84,166.25,0.239583,Sixteenth,A#1
1005,Left,1,46,86,166.5,0.239583,Sixteenth,A#2
1006,Left,1,48,88,166.75,0.239583,Sixteenth,C3
1007,Left,1,50,89,167.0,0.239583,Sixteenth,D3
1008,Left,1,51,91,167.25,0.239583,Sixteenth,D#3
1009,Left,1,53,93,167.5,0.239583,Sixteenth,F3
1010,Left,1,55,94,167.75,0.239583,Sixteenth,G3
1011,Right,0,77,96,168.0,0.489583,Eighth,F5_F4_D5
1014,Left,1,57,96,168.0,0.489583,Eighth,A3
1016,Left,1,58,99,168.5,1.989583,Half,A#3
1015,Right,0,74,99,168.5,0.489583,Eighth,F5_F4_D5
1019,Right,0,65,103,169.0,0.489583,Eighth,F5_F4_D5
1022,Right,0,65,106,169.5,0.489583,Eighth,F5_F4_D5
1025,Right,0,80,109,170.0,1.489583,Quarter,G#5_F5_D5
1028,Left,1,59,110,170.5,0.489583,Eighth,B3
1030,Right,0,75,110,171.0,0.489583,Eighth,D#5
1029,Left,1,60,110,171.0,0.489583,Eighth,C4
1031,Left,1,55,110,171.5,0.489583,Eighth,G3
1032,Right,0,71,110,171.5,0.489583,Eighth,G5_B4
1036,Left,1,56,100,172.0,0.489583,Eighth,G#3
1034,Right,0,79,100,172.0,0.489583,Eighth,G5_C5
1039,Left,1,57,91,172.5,0.489583,Eighth,A3
1037,Right,0,77,91,172.5,0.489583,Eighth,F5_C5
1040,Left,1,58,81,173.0,1.489583,DottedQuarter,A#3
1041,Right,0,75,81,173.0,0.489583,Eighth,G4_D#5
1043,Right,0,74,71,173.5,0.489583,Eighth,G#4_F4_D5
1046,Left,1,46,71,173.5,0.489583,Eighth,A#2
1047,Left,1,51,70,174.0,1.489583,DottedQuarter,D#3
1048,Right,0,77,70,174.0,0.989583,Quarter,G#4_F5
1050,Left,1,62,70,174.5,0.489583,Eighth,D4
1052,Right,0,67,70,175.0,0.489583,Eighth,G4_D#5
1051,Left,1,63,70,175.0,0.489583,Eighth,D#4
1054,Right,0,67,70,176.0,0.239583,Sixteenth,G4
1055,Right,0,68,70,176.25,0.239583,Sixteenth,G#4
1056,Right,0,67,70,176.5,0.239583,Sixteenth,G4
1057,Right,0,68,70,176.75,0.239583,Sixteenth,G#4
1058,Right,0,67,70,177.0,0.239583,Sixteenth,G4
1059,Right,0,68,70,177.25,0.239583,Sixteenth,G#4
1060,Right,0,67,70,177.5,0.239583,Sixteenth,G4
1061,Right,0,68,70,177.75,0.239583,Sixteenth,G#4
1062,Right,0,65,70,178.0,1.989583,Half,G#4_F4_D5
1065,Left,1,34,70,178.25,0.239583,Sixteenth,A#1
1066,Left,1,46,70,178.5,0.239583,Sixteenth,A#2
1067,Left,1,48,70,178.75,0.239583,Sixteenth,C3
1068,Left,1,50,70,179.0,0.239583,Sixteenth,D3
1069,Left,1,51,70,179.25,0.239583,Sixteenth,D#3
1070,Left,1,53,70,179.5,0.239583,Sixteenth,F3
1071,Left,1,55,70,179.75,0.239583,Sixteenth,G3
1072,Left,1,57,70,180.0,0.489583,Eighth,A3
1073,Right,0,73,70,180.0,0.239583,Sixteenth,C#5
1074,Right,0,74,71,180.25,0.239583,Sixteenth,D5
1076,Left,1,58,73,180.5,1.739583,DottedQuarter,A#3
1075,Right,0,73,73,180.5,0.239583,Sixteenth,C#5
1077,Right,0,74,74,180.75,0.239583,Sixteenth,D5
1078,Right,0,73,76,181.0,0.239583,Sixteenth,C#5
1079,Right,0,74,78,181.25,0.239583,Sixteenth,D5
1080,Right,0,73,79,181.5,0.239583,Sixteenth,C#5
1081,Right,0,74,81,181.75,0.239583,Sixteenth,D5
1082,Right,0,77,83,182.0,2.239583,Half,G#4_F5_F4_D5
1086,Left,1,34,84,182.25,0.239583,Sixteenth,A#1
1087,Left,1,46,86,182.5,0.239583,Sixteenth,A#2
1088,Left,1,48,88,182.75,0.239583,Sixteenth,C3
1089,Left,1,50,89,183.0,0.239583,Sixteenth,D3
1090,Left,1,51,91,183.25,0.239583,Sixteenth,D#3
1091,Left,1,53,93,183.5,0.239583,Sixteenth,F3
1092,Left,1,55,94,183.75,0.239583,Sixteenth,G3
1093,Left,1,57,96,184.0,0.489583,Eighth,A3
1094,Right,0,77,98,184.25,0.239583,Sixteenth,F5_D5
1096,Right,0,76,110,184.5,0.239583,Sixteenth,E5_C#5
1098,Left,1,58,110,184.5,1.989583,Half,A#3
1099,Right,0,77,110,184.75,0.239583,Sixteenth,F5_D5
1101,Right,0,73,110,185.0,0.239583,Sixteenth,E5_C#5
1103,Right,0,77,110,185.25,0.239583,Sixteenth,F5_D5
1105,Right,0,76,110,185.5,0.239583,Sixteenth,E5_C#5
1107,Right,0,77,110,185.75,0.239583,Sixteenth,F5_D5
1109,Right,0,74,110,186.0,1.489583,Quarter,G#5_F5_D5
1112,Left,1,59,110,186.5,0.489583,Eighth,B3
1113,Left,1,60,110,187.0,0.489583,Eighth,C4
1114,Right,0,75,110,187.0,0.489583,Eighth,D#5
1115,Left,1,55,110,187.5,0.489583,Eighth,G3
1116,Right,0,71,110,187.5,0.489583,Eighth,G5_B4
1119,Right,0,72,100,188.0,0.489583,Eighth,G5_C5
1118,Left,1,56,100,188.0,0.489583,Eighth,G#3
1121,Right,0,72,91,188.5,0.489583,Eighth,F5_C5
1122,Left,1,57,91,188.5,0.489583,Eighth,A3
1124,Left,1,58,81,189.0,1.489583,DottedQuarter,A#3
1125,Right,0,75,81,189.0,0.489583,Eighth,G4_D#5
1130,Left,1,46,71,189.5,0.489583,Eighth,A#2
1127,Right,0,65,71,189.5,0.489583,Eighth,G#4_F4_D5
1131,Right,0,68,70,190.0,0.989583,Quarter,G#4_F5
1133,Left,1,51,70,190.0,1.489583,DottedQuarter,D#3
1134,Left,1,62,70,190.5,0.489583,Eighth,D4
1136,Left,1,63,70,191.0,0.489583,Eighth,D#4
1135,Right,0,75,70,191.0,0.489583,Eighth,G4_D#5
1138,Right,0,55,110,191.5,0.239583,Sixteenth,G3
1139,Right,0,53,110,191.75,0.239583,Sixteenth,F3
1140,Right,0,52,110,192.0,0.239583,Sixteenth,E3
1141,Left,1,36,110,192.0,0.989583,Quarter,G2_E2_D3_C2
1145,Right,0,55,110,192.25,0.239583,Sixteenth,G3
1146,Right,0,60,110,192.5,0.239583,Sixteenth,C4
1147,Right,0,55,110,192.75,0.239583,Sixteenth,G3
1148,Right,0,64,110,193.0,0.239583,Sixteenth,E4
1149,Right,0,60,110,193.25,0.239583,Sixteenth,C4
1150,Right,0,67,110,193.5,0.239583,Sixteenth,G4
1151,Right,0,64,110,193.75,0.239583,Sixteenth,E4
1152,Right,0,72,110,194.0,0.239583,Sixteenth,C5
1153,Right,0,67,110,194.25,0.239583,Sixteenth,G4
1154,Right,0,76,110,194.5,0.239583,Sixteenth,E5
1155,Right,0,72,110,194.75,0.239583,Sixteenth,C5
1156,Left,1,67,70,195.0,0.489583,Eighth,G4_E4_C4
1159,Right,0,79,70,195.0,0.489583,Eighth,G5
1161,Left,1,60,70,195.5,0.489583,Eighth,G4_E4_C4
1160,Right,0,76,70,195.5,0.489583,Eighth,E5
1164,Left,1,64,70,196.0,0.489583,Eighth,G4_E4_C4
1165,Right,0,72,70,196.0,0.489583,Eighth,C5
1169,Left,1,62,70,196.5,0.989583,Quarter,G4_F4_D4
1168,Right,0,71,70,196.5,0.989583,Quarter,B4
1172,Right,0,62,70,197.5,0.239583,Sixteenth,D4
1173,Right,0,60,70,197.75,0.239583,Sixteenth,C4
1174,Left,1,50,110,198.0,0.989583,Quarter,G3_G2_D3_B2
1176,Right,0,59,110,198.0,0.239583,Sixteenth,B3
1179,Right,0,62,110,198.25,0.239583,Sixteenth,D4
1180,Right,0,67,110,198.5,0.239583,Sixteenth,G4
1181,Right,0,62,110,198.75,0.239583,Sixteenth,D4
1182,Right,0,71,110,199.0,0.239583,Sixteenth,B4
1183,Right,0,67,110,199.25,0.239583,Sixteenth,G4
1184,Right,0,74,110,199.5,0.239583,Sixteenth,D5
1185,Right,0,71,110,199.75,0.239583,Sixteenth,B4
1186,Right,0,79,110,200.0,0.239583,Sixteenth,G5
1187,Right,0,74,110,200.25,0.239583,Sixteenth,D5
1188,Right,0,83,110,200.5,0.239583,Sixteenth,B5
1189,Right,0,79,110,200.75,0.239583,Sixteenth,G5
1190,Left,1,59,70,201.0,0.489583,Eighth,G4_D4_B3
1193,Right,0,86,70,201.0,0.489583,Eighth,D6
1194,Left,1,59,70,201.5,0.489583,Eighth,G4_D4_B3
1197,Right,0,83,70,201.5,0.489583,Eighth,B5
1198,Left,1,59,70,202.0,0.489583,Eighth,G4_D4_B3
1201,Right,0,77,70,202.0,0.489583,Eighth,F5
1202,Right,0,76,70,202.5,0.989583,Quarter,E5
1203,Left,1,60,70,202.5,0.989583,Quarter,G4_E4_C4
1206,Right,0,79,70,203.5,0.239583,Sixteenth,G5
1207,Right,0,77,70,203.75,0.239583,Sixteenth,F5
1208,Right,0,76,70,204.0,0.239583,Sixteenth,E5
1209,Right,0,79,70,204.25,0.239583,Sixteenth,G5
1211,Right,0,76,70,204.5,0.239583,Sixteenth,E5
1210,Left,1,67,70,204.5,0.239583,Sixteenth,G4
1212,Right,0,74,70,204.75,0.239583,Sixteenth,D5
1213,Left,1,65,70,204.75,0.239583,Sixteenth,F4
1214,Left,1,64,70,205.0,0.239583,Sixteenth,E4
1215,Right,0,72,70,205.0,0.239583,Sixteenth,C5
1216,Left,1,67,70,205.25,0.239583,Sixteenth,G4
1217,Right,0,76,70,205.25,0.239583,Sixteenth,E5
1219,Left,1,64,70,205.5,0.239583,Sixteenth,E4
1218,Right,0,72,70,205.5,0.239583,Sixteenth,C5
1221,Left,1,62,70,205.75,0.239583,Sixteenth,D4
1220,Right,0,71,70,205.75,0.239583,Sixteenth,B4
1223,Right,0,69,70,206.0,0.239583,Sixteenth,A4
1222,Left,1,60,70,206.0,0.239583,Sixteenth,C4
1225,Right,0,72,70,206.25,0.239583,Sixteenth,C5
1224,Left,1,64,70,206.25,0.239583,Sixteenth,E4
1227,Right,0,69,70,206.5,0.239583,Sixteenth,A4
1226,Left,1,60,70,206.5,0.239583,Sixteenth,C4
1228,Left,1,59,70,206.75,0.239583,Sixteenth,B3
1229,Right,0,67,70,206.75,0.239583,Sixteenth,G4
1230,Left,1,57,70,207.0,0.239583,Sixteenth,A3
1231,Right,0,65,70,207.0,0.239583,Sixteenth,F4
1232,Left,1,60,70,207.25,0.239583,Sixteenth,C4
1233,Right,0,69,70,207.25,0.239583,Sixteenth,A4
1235,Left,1,57,70,207.5,0.239583,Sixteenth,A3
1234,Right,0,65,70,207.5,0.239583,Sixteenth,F4
1236,Right,0,64,70,207.75,0.239583,Sixteenth,E4
1237,Left,1,55,70,207.75,0.239583,Sixteenth,G3
1238,Left,1,53,70,208.0,0.239583,Sixteenth,F3
1239,Right,0,62,70,208.0,0.239583,Sixteenth,D4
1241,Left,1,57,70,208.25,0.239583,Sixteenth,A3
1240,Right,0,65,70,208.25,0.239583,Sixteenth,F4
1242,Left,1,53,70,208.5,0.239583,Sixteenth,F3
1243,Right,0,62,70,208.5,0.239583,Sixteenth,D4
1244,Right,0,60,70,208.75,0.239583,Sixteenth,C4
1245,Left,1,52,70,208.75,0.239583,Sixteenth,E3
1246,Left,1,50,70,209.0,0.239583,Sixteenth,D3
1247,Right,0,59,70,209.0,0.239583,Sixteenth,B3
1248,Left,1,53,70,209.25,0.239583,Sixteenth,F3
1249,Right,0,62,70,209.25,0.239583,Sixteenth,D4
1250,Right,0,59,70,209.5,0.239583,Sixteenth,B3
1251,Left,1,50,70,209.5,0.239583,Sixteenth,D3
1252,Right,0,57,70,209.75,0.239583,Sixteenth,A3
1253,Left,1,48,70,209.75,0.239583,Sixteenth,C3
1255,Left,1,47,70,210.0,0.489583,Eighth,B2
1254,Right,0,56,70,210.0,0.239583,Sixteenth,G#3
1256,Right,0,59,70,210.25,0.239583,Sixteenth,B3
1257,Right,0,56,70,210.5,0.239583,Sixteenth,G#3
1259,Left,1,40,70,210.75,0.239583,Sixteenth,E2
1258,Right,0,53,70,210.75,0.239583,Sixteenth,F3
1260,Right,0,52,70,211.0,0.239583,Sixteenth,E3
1261,Left,1,42,70,211.0,0.239583,Sixteenth,F#2
1263,Right,0,50,70,211.25,0.239583,Sixteenth,D3
1262,Left,1,44,70,211.25,0.239583,Sixteenth,G#2
1264,Right,0,48,70,211.5,0.239583,Sixteenth,C3
1265,Left,1,45,70,211.5,0.489583,Eighth,A2
1266,Right,0,64,70,211.75,0.239583,Sixteenth,E4
1267,Right,0,60,70,212.0,0.239583,Sixteenth,C4
1269,Left,1,33,70,212.25,0.239583,Sixteenth,A1
1268,Right,0,59,70,212.25,0.239583,Sixteenth,B3
1271,Right,0,57,70,212.5,0.239583,Sixteenth,A3
1270,Left,1,35,70,212.5,0.239583,Sixteenth,B1
1272,Left,1,36,70,212.75,0.239583,Sixteenth,C2
1273,Right,0,55,70,212.75,0.239583,Sixteenth,G3
1274,Left,1,38,70,213.0,0.489583,Eighth,D2
1275,Right,0,54,70,213.0,0.239583,Sixteenth,F#3
1276,Right,0,52,70,213.25,0.239583,Sixteenth,E3
1277,Right,0,50,70,213.5,0.239583,Sixteenth,D3
1279,Left,1,38,70,213.75,0.239583,Sixteenth,D2
1278,Right,0,48,70,213.75,0.239583,Sixteenth,C3
1280,Right,0,47,70,214.0,0.239583,Sixteenth,B2
1281,Left,1,40,70,214.0,0.239583,Sixteenth,E2
1283,Left,1,42,70,214.25,0.239583,Sixteenth,F#2
1282,Right,0,45,70,214.25,0.239583,Sixteenth,A2
1284,Left,1,43,70,214.5,0.989583,Quarter,G2_G1
1286,Right,0,55,110,215.5,0.239583,Sixteenth,G3
1287,Right,0,53,110,215.75,0.239583,Sixteenth,F3
1288,Right,0,52,110,216.0,0.239583,Sixteenth,E3
1289,Left,1,50,110,216.0,0.989583,Quarter,G2_E2_D3_C2
1293,Right,0,55,110,216.25,0.239583,Sixteenth,G3
1294,Right,0,60,110,216.5,0.239583,Sixteenth,C4
1295,Right,0,55,110,216.75,0.239583,Sixteenth,G3
1296,Right,0,64,110,217.0,0.239583,Sixteenth,E4
1297,Right,0,60,110,217.25,0.239583,Sixteenth,C4
1298,Right,0,67,110,217.5,0.239583,Sixteenth,G4
1299,Right,0,64,110,217.75,0.239583,Sixteenth,E4
1300,Right,0,72,110,218.0,0.239583,Sixteenth,C5
1301,Right,0,67,110,218.25,0.239583,Sixteenth,G4
1302,Right,0,76,110,218.5,0.239583,Sixteenth,E5
1303,Right,0,72,110,218.75,0.239583,Sixteenth,C5
1304,Right,0,79,70,219.0,0.489583,Eighth,G5
1305,Left,1,67,70,219.0,0.489583,Eighth,G4_E4_C4
1308,Left,1,67,70,219.5,0.489583,Eighth,G4_E4_C4
1311,Right,0,76,70,219.5,0.489583,Eighth,E5
1313,Left,1,64,70,220.0,0.489583,Eighth,G4_E4_C4
1312,Right,0,72,70,220.0,0.489583,Eighth,C5
1316,Right,0,71,70,220.5,0.989583,Quarter,B4
1317,Left,1,67,70,220.5,0.989583,Quarter,G4_F4_D4
1320,Right,0,62,70,221.5,0.239583,Sixteenth,D4
1321,Right,0,60,70,221.75,0.239583,Sixteenth,C4
1322,Left,1,43,110,222.0,0.989583,Quarter,G3_G2_D3_B2
1326,Right,0,59,110,222.0,0.239583,Sixteenth,B3
1327,Right,0,62,110,222.25,0.239583,Sixteenth,D4
1328,Right,0,67,110,222.5,0.239583,Sixteenth,G4
1329,Right,0,62,110,222.75,0.239583,Sixteenth,D4
1330,Right,0,71,110,223.0,0.239583,Sixteenth,B4
1331,Right,0,67,110,223.25,0.239583,Sixteenth,G4
1332,Right,0,74,110,223.5,0.239583,Sixteenth,D5
1333,Right,0,71,110,223.75,0.239583,Sixteenth,B4
1334,Right,0,79,110,224.0,0.239583,Sixteenth,G5
1335,Right,0,74,110,224.25,0.239583,Sixteenth,D5
1336,Right,0,83,110,224.5,0.239583,Sixteenth,B5
1337,Right,0,79,110,224.75,0.239583,Sixteenth,G5
1341,Right,0,86,70,225.0,0.489583,Eighth,D6
1338,Left,1,67,70,225.0,0.489583,Eighth,G4_D4_B3
1342,Left,1,59,70,225.5,0.489583,Eighth,G4_D4_B3
1345,Right,0,83,70,225.5,0.489583,Eighth,B5
1347,Right,0,77,70,226.0,0.489583,Eighth,F5
1346,Left,1,67,70,226.0,0.489583,Eighth,G4_D4_B3
1353,Right,0,76,70,226.5,0.989583,Quarter,E5
1350,Left,1,67,70,226.5,0.989583,Quarter,G4_E4_C4
1354,Right,0,79,70,227.5,0.239583,Sixteenth,G5
1355,Right,0,77,70,227.75,0.239583,Sixteenth,F5
1356,Right,0,76,70,228.0,0.239583,Sixteenth,E5
1357,Right,0,79,70,228.25,0.239583,Sixteenth,G5
1358,Right,0,76,70,228.5,0.239583,Sixteenth,E5
1359,Left,1,67,70,228.5,0.239583,Sixteenth,G4
1360,Right,0,74,70,228.75,0.239583,Sixteenth,D5
1361,Left,1,65,70,228.75,0.239583,Sixteenth,F4
1362,Right,0,72,70,229.0,0.239583,Sixteenth,C5
1363,Left,1,64,70,229.0,0.239583,Sixteenth,E4
1364,Left,1,67,70,229.25,0.239583,Sixteenth,G4
1365,Right,0,76,70,229.25,0.239583,Sixteenth,E5
1367,Left,1,64,70,229.5,0.239583,Sixteenth,E4
1366,Right,0,72,70,229.5,0.239583,Sixteenth,C5
1368,Left,1,62,70,229.75,0.239583,Sixteenth,D4
1369,Right,0,71,70,229.75,0.239583,Sixteenth,B4
1371,Left,1,60,70,230.0,0.239583,Sixteenth,C4
1370,Right,0,69,70,230.0,0.239583,Sixteenth,A4
1373,Left,1,64,70,230.25,0.239583,Sixteenth,E4
1372,Right,0,72,70,230.25,0.239583,Sixteenth,C5
1374,Right,0,69,70,230.5,0.239583,Sixteenth,A4
1375,Left,1,60,70,230.5,0.239583,Sixteenth,C4
1377,Left,1,59,70,230.75,0.239583,Sixteenth,B3
1376,Right,0,67,70,230.75,0.239583,Sixteenth,G4
1378,Left,1,57,70,231.0,0.239583,Sixteenth,A3
1379,Right,0,65,70,231.0,0.239583,Sixteenth,F4
1380,Left,1,60,70,231.25,0.239583,Sixteenth,C4
1381,Right,0,69,70,231.25,0.239583,Sixteenth,A4
1383,Right,0,65,70,231.5,0.239583,Sixteenth,F4
1382,Left,1,57,70,231.5,0.239583,Sixteenth,A3
1385,Right,0,64,70,231.75,0.239583,Sixteenth,E4
1384,Left,1,55,70,231.75,0.239583,Sixteenth,G3
1387,Left,1,53,70,232.0,0.239583,Sixteenth,F3
1386,Right,0,62,70,232.0,0.239583,Sixteenth,D4
1388,Left,1,57,70,232.25,0.239583,Sixteenth,A3
1389,Right,0,65,70,232.25,0.239583,Sixteenth,F4
1390,Left,1,53,70,232.5,0.239583,Sixteenth,F3
1391,Right,0,62,70,232.5,0.239583,Sixteenth,D4
1393,Right,0,60,70,232.75,0.239583,Sixteenth,C4
1392,Left,1,52,70,232.75,0.239583,Sixteenth,E3
1394,Left,1,50,70,233.0,0.239583,Sixteenth,D3
1395,Right,0,59,70,233.0,0.239583,Sixteenth,B3
1397,Right,0,62,70,233.25,0.239583,Sixteenth,D4
1396,Left,1,53,70,233.25,0.239583,Sixteenth,F3
1398,Right,0,59,70,233.5,0.239583,Sixteenth,B3
1399,Left,1,50,70,233.5,0.239583,Sixteenth,D3
1400,Left,1,48,70,233.75,0.239583,Sixteenth,C3
1401,Right,0,57,70,233.75,0.239583,Sixteenth,A3
1403,Left,1,47,70,234.0,0.489583,Eighth,B2
1402,Right,0,56,70,234.0,0.239583,Sixteenth,G#3
1404,Right,0,59,70,234.25,0.239583,Sixteenth,B3
1405,Right,0,56,70,234.5,0.239583,Sixteenth,G#3
1407,Right,0,53,70,234.75,0.239583,Sixteenth,F3
1406,Left,1,40,70,234.75,0.239583,Sixteenth,E2
1408,Left,1,42,70,235.0,0.239583,Sixteenth,F#2
1409,Right,0,52,70,235.0,0.239583,Sixteenth,E3
1411,Right,0,50,70,235.25,0.239583,Sixteenth,D3
1410,Left,1,44,70,235.25,0.239583,Sixteenth,G#2
1413,Right,0,48,70,235.5,0.239583,Sixteenth,C3
1412,Left,1,45,70,235.5,0.489583,Eighth,A2
1414,Right,0,64,70,235.75,0.239583,Sixteenth,E4
1415,Right,0,60,70,236.0,0.239583,Sixteenth,C4
1416,Left,1,33,70,236.25,0.239583,Sixteenth,A1
1417,Right,0,59,70,236.25,0.239583,Sixteenth,B3
1418,Right,0,57,70,236.5,0.239583,Sixteenth,A3
1419,Left,1,35,70,236.5,0.239583,Sixteenth,B1
1420,Left,1,36,70,236.75,0.239583,Sixteenth,C2
1421,Right,0,55,70,236.75,0.239583,Sixteenth,G3
1422,Left,1,38,70,237.0,0.489583,Eighth,D2
1423,Right,0,54,70,237.0,0.239583,Sixteenth,F#3
1424,Right,0,52,70,237.25,0.239583,Sixteenth,E3
1425,Right,0,50,70,237.5,0.239583,Sixteenth,D3
1426,Right,0,48,70,237.75,0.239583,Sixteenth,C3
1427,Left,1,38,70,237.75,0.239583,Sixteenth,D2
1429,Left,1,40,70,238.0,0.239583,Sixteenth,E2
1428,Right,0,47,70,238.0,0.239583,Sixteenth,B2
1431,Left,1,42,70,238.25,0.239583,Sixteenth,F#2
1430,Right,0,45,70,238.25,0.239583,Sixteenth,A2
1432,Left,1,43,70,238.5,0.989583,Quarter,G2_G1
1434,Right,0,50,70,239.5,0.239583,Sixteenth,D3
1435,Right,0,48,70,239.75,0.239583,Sixteenth,C3
1436,Right,0,47,70,240.0,0.239583,Sixteenth,B2
1437,Right,0,50,70,240.25,0.239583,Sixteenth,D3
1438,Right,0,55,70,240.5,0.239583,Sixteenth,G3
1439,Right,0,50,70,240.75,0.239583,Sixteenth,D3
1440,Right,0,59,70,241.0,0.239583,Sixteenth,B3
1441,Right,0,55,70,241.25,0.239583,Sixteenth,G3
1442,Right,0,62,70,241.5,0.239583,Sixteenth,D4
1443,Right,0,59,70,241.75,0.239583,Sixteenth,B3
1444,Right,0,67,70,242.0,0.239583,Sixteenth,G4
1445,Right,0,62,70,242.25,0.239583,Sixteenth,D4
1446,Left,1,31,100,242.5,0.489583,Eighth,G2_G1_D2_B1
1450,Right,0,71,100,242.5,0.489583,Eighth,B4
1451,Right,0,50,70,243.0,0.239583,Sixteenth,D3
1452,Right,0,53,70,243.25,0.239583,Sixteenth,F3
1453,Right,0,59,70,243.5,0.239583,Sixteenth,B3
1454,Right,0,53,70,243.75,0.239583,Sixteenth,F3
1455,Right,0,62,70,244.0,0.239583,Sixteenth,D4
1456,Right,0,59,70,244.25,0.239583,Sixteenth,B3
1457,Right,0,65,70,244.5,0.239583,Sixteenth,F4
1458,Right,0,62,70,244.75,0.239583,Sixteenth,D4
1459,Right,0,71,70,245.0,0.239583,Sixteenth,B4
1460,Right,0,65,70,245.25,0.239583,Sixteenth,F4
1465,Right,0,74,100,245.5,0.489583,Eighth,D5
1461,Left,1,43,100,245.5,0.489583,Eighth,G2_G1_D2_B1
1466,Right,0,53,70,246.0,0.239583,Sixteenth,F3
1467,Right,0,59,70,246.25,0.239583,Sixteenth,B3
1468,Right,0,62,70,246.5,0.239583,Sixteenth,D4
1469,Right,0,59,70,246.75,0.239583,Sixteenth,B3
1470,Right,0,65,70,247.0,0.239583,Sixteenth,F4
1471,Right,0,62,70,247.25,0.239583,Sixteenth,D4
1472,Right,0,71,70,247.5,0.239583,Sixteenth,B4
1473,Right,0,65,70,247.75,0.239583,Sixteenth,F4
1474,Right,0,74,70,248.0,0.239583,Sixteenth,D5
1475,Right,0,71,70,248.25,0.239583,Sixteenth,B4
1476,Left,1,47,100,248.5,0.489583,Eighth,G3_G2_D3_B2
1480,Right,0,77,100,248.5,0.489583,Eighth,F5
1481,Right,0,71,70,249.0,0.239583,Sixteenth,B4
1482,Right,0,65,70,249.25,0.239583,Sixteenth,F4
1483,Right,0,74,70,249.5,0.239583,Sixteenth,D5
1484,Right,0,71,70,249.75,0.239583,Sixteenth,B4
1486,Left,1,43,100,250.0,0.489583,Eighth,G3_G2_D3_B2
1485,Right,0,77,100,250.0,0.489583,Eighth,F5
1490,Right,0,71,70,250.5,0.239583,Sixteenth,B4
1491,Right,0,65,70,250.75,0.239583,Sixteenth,F4
1492,Right,0,74,70,251.0,0.239583,Sixteenth,D5
1493,Right,0,71,70,251.25,0.239583,Sixteenth,B4
1494,Left,1,55,100,251.5,0.489583,Eighth,G3_G2_D3_B2
1498,Right,0,77,100,251.5,0.489583,Eighth,F5
1499,Right,0,76,80,252.0,0.239583,Sixteenth,E5
1500,Right,0,79,80,252.25,0.239583,Sixteenth,G5
1501,Left,1,67,81,252.5,0.239583,Sixteenth,G4
1502,Right,0,76,81,252.5,0.239583,Sixteenth,E5
1504,Right,0,74,82,252.75,0.239583,Sixteenth,D5
1503,Left,1,65,82,252.75,0.239583,Sixteenth,F4
1505,Left,1,64,83,253.0,0.239583,Sixteenth,E4
1506,Right,0,72,83,253.0,0.239583,Sixteenth,C5
1507,Left,1,67,84,253.25,0.239583,Sixteenth,G4
1508,Right,0,76,84,253.25,0.239583,Sixteenth,E5
1510,Right,0,72,85,253.5,0.239583,Sixteenth,C5
1509,Left,1,64,85,253.5,0.239583,Sixteenth,E4
1512,Right,0,71,86,253.75,0.239583,Sixteenth,B4
1511,Left,1,62,86,253.75,0.239583,Sixteenth,D4
1514,Right,0,69,86,254.0,0.239583,Sixteenth,A4
1513,Left,1,60,86,254.0,0.239583,Sixteenth,C4
1515,Left,1,64,87,254.25,0.239583,Sixteenth,E4
1516,Right,0,72,87,254.25,0.239583,Sixteenth,C5
1518,Left,1,60,88,254.5,0.239583,Sixteenth,C4
1517,Right,0,69,88,254.5,0.239583,Sixteenth,A4
1520,Left,1,59,89,254.75,0.239583,Sixteenth,B3
1519,Right,0,67,89,254.75,0.239583,Sixteenth,G4
1522,Right,0,65,90,255.0,0.239583,Sixteenth,F4
1521,Left,1,57,90,255.0,0.239583,Sixteenth,A3
1524,Right,0,69,91,255.25,0.239583,Sixteenth,A4
1523,Left,1,60,91,255.25,0.239583,Sixteenth,C4
1526,Right,0,65,92,255.5,0.239583,Sixteenth,F4
1525,Left,1,57,92,255.5,0.239583,Sixteenth,A3
1528,Right,0,64,93,255.75,0.239583,Sixteenth,E4
1527,Left,1,55,93,255.75,0.239583,Sixteenth,G3
1530,Right,0,62,93,256.0,0.239583,Sixteenth,D4
1529,Left,1,53,93,256.0,0.239583,Sixteenth,F3
1531,Right,0,65,94,256.25,0.239583,Sixteenth,F4
1532,Left,1,57,94,256.25,0.239583,Sixteenth,A3
1534,Left,1,53,95,256.5,0.239583,Sixteenth,F3
1533,Right,0,62,95,256.5,0.239583,Sixteenth,D4
1536,Left,1,52,96,256.75,0.239583,Sixteenth,E3
1535,Right,0,60,96,256.75,0.239583,Sixteenth,C4
1537,Left,1,50,97,257.0,0.239583,Sixteenth,D3
1538,Right,0,59,97,257.0,0.239583,Sixteenth,B3
1540,Right,0,57,98,257.25,0.239583,Sixteenth,A3
1539,Left,1,48,98,257.25,0.239583,Sixteenth,C3
1542,Left,1,47,99,257.5,0.239583,Sixteenth,B2
1541,Right,0,55,99,257.5,0.239583,Sixteenth,G3
1543,Left,1,50,99,257.75,0.239583,Sixteenth,D3
1544,Right,0,53,99,257.75,0.239583,Sixteenth,F3
1545,Left,1,48,80,258.0,0.489583,Eighth,C3
1546,Right,0,52,80,258.0,0.239583,Sixteenth,E3
1547,Right,0,67,80,258.25,0.239583,Sixteenth,G4
1548,Right,0,64,80,258.5,0.239583,Sixteenth,E4
1549,Left,1,36,80,258.75,0.239583,Sixteenth,C2
1550,Right,0,62,80,258.75,0.239583,Sixteenth,D4
1551,Left,1,38,80,259.0,0.239583,Sixteenth,D2
1552,Right,0,60,80,259.0,0.239583,Sixteenth,C4
1554,Left,1,40,80,259.25,0.239583,Sixteenth,E2
1553,Right,0,58,80,259.25,0.239583,Sixteenth,A#3
1555,Left,1,41,80,259.5,0.489583,Eighth,F2
1556,Right,0,57,80,259.5,0.239583,Sixteenth,A3
1557,Right,0,69,80,259.75,0.239583,Sixteenth,A4
1558,Right,0,65,80,260.0,0.239583,Sixteenth,F4
1559,Right,0,64,80,260.25,0.239583,Sixteenth,E4
1560,Left,1,38,80,260.25,0.239583,Sixteenth,D2
1562,Right,0,62,80,260.5,0.239583,Sixteenth,D4
1561,Left,1,40,80,260.5,0.239583,Sixteenth,E2
1564,Right,0,60,80,260.75,0.239583,Sixteenth,C4
1563,Left,1,41,80,260.75,0.239583,Sixteenth,F2
1566,Right,0,59,80,261.0,0.239583,Sixteenth,B3
1565,Left,1,43,80,261.0,0.489583,Eighth,G2
1567,Right,0,57,80,261.25,0.239583,Sixteenth,A3
1568,Right,0,55,80,261.5,0.239583,Sixteenth,G3
1570,Left,1,31,80,261.75,0.239583,Sixteenth,G1
1569,Right,0,53,80,261.75,0.239583,Sixteenth,F3
1571,Right,0,52,80,262.0,0.239583,Sixteenth,E3
1572,Left,1,33,80,262.0,0.239583,Sixteenth,A1
1574,Right,0,50,80,262.25,0.239583,Sixteenth,D3
1573,Left,1,35,80,262.25,0.239583,Sixteenth,B1
1575,Left,1,36,80,262.5,0.989583,Quarter,C2
1576,Right,0,48,80,262.5,0.989583,Quarter,C3
1577,Right,0,50,80,263.5,0.239583,Sixteenth,D3
1578,Right,0,48,80,263.75,0.239583,Sixteenth,C3
1579,Right,0,47,80,264.0,0.239583,Sixteenth,B2
1580,Right,0,50,80,264.25,0.239583,Sixteenth,D3
1581,Right,0,55,80,264.5,0.239583,Sixteenth,G3
1582,Right,0,50,80,264.75,0.239583,Sixteenth,D3
1583,Right,0,59,80,265.0,0.239583,Sixteenth,B3
1584,Right,0,55,80,265.25,0.239583,Sixteenth,G3
1585,Right,0,62,80,265.5,0.239583,Sixteenth,D4
1586,Right,0,59,80,265.75,0.239583,Sixteenth,B3
1587,Right,0,67,80,266.0,0.239583,Sixteenth,G4
1588,Right,0,62,80,266.25,0.239583,Sixteenth,D4
1592,Right,0,71,100,266.5,0.489583,Eighth,B4
1589,Left,1,43,100,266.5,0.489583,Eighth,G2_G1_D2_B1
1594,Right,0,50,80,267.0,0.239583,Sixteenth,D3
1595,Right,0,53,80,267.25,0.239583,Sixteenth,F3
1596,Right,0,59,80,267.5,0.239583,Sixteenth,B3
1597,Right,0,53,80,267.75,0.239583,Sixteenth,F3
1598,Right,0,62,80,268.0,0.239583,Sixteenth,D4
1599,Right,0,59,80,268.25,0.239583,Sixteenth,B3
1600,Right,0,65,80,268.5,0.239583,Sixteenth,F4
1601,Right,0,62,80,268.75,0.239583,Sixteenth,D4
1602,Right,0,71,80,269.0,0.239583,Sixteenth,B4
1603,Right,0,65,80,269.25,0.239583,Sixteenth,F4
1604,Left,1,43,100,269.5,0.489583,Eighth,G2_G1_D2_B1
1608,Right,0,74,100,269.5,0.489583,Eighth,D5
1609,Right,0,53,80,270.0,0.239583,Sixteenth,F3
1610,Right,0,59,80,270.25,0.239583,Sixteenth,B3
1611,Right,0,62,80,270.5,0.239583,Sixteenth,D4
1612,Right,0,59,80,270.75,0.239583,Sixteenth,B3
1613,Right,0,65,80,271.0,0.239583,Sixteenth,F4
1614,Right,0,62,80,271.25,0.239583,Sixteenth,D4
1615,Right,0,71,80,271.5,0.239583,Sixteenth,B4
1616,Right,0,65,80,271.75,0.239583,Sixteenth,F4
1617,Right,0,74,80,272.0,0.239583,Sixteenth,D5
1618,Right,0,71,80,272.25,0.239583,Sixteenth,B4
1623,Right,0,77,100,272.5,0.489583,Eighth,F5
1619,Left,1,55,100,272.5,0.489583,Eighth,G3_G2_D3_B2
1624,Right,0,71,80,273.0,0.239583,Sixteenth,B4
1625,Right,0,65,80,273.25,0.239583,Sixteenth,F4
1626,Right,0,74,80,273.5,0.239583,Sixteenth,D5
1627,Right,0,71,80,273.75,0.239583,Sixteenth,B4
1628,Left,1,43,100,274.0,0.489583,Eighth,G3_G2_D3_B2
1632,Right,0,77,100,274.0,0.489583,Eighth,F5
1633,Right,0,71,80,274.5,0.239583,Sixteenth,B4
1634,Right,0,65,80,274.75,0.239583,Sixteenth,F4
1635,Right,0,74,80,275.0,0.239583,Sixteenth,D5
1636,Right,0,71,80,275.25,0.239583,Sixteenth,B4
1637,Right,0,77,100,275.5,0.489583,Eighth,F5
1638,Left,1,55,100,275.5,0.489583,Eighth,G3_G2_D3_B2
1642,Right,0,75,80,276.0,0.239583,Sixteenth,D#5
1643,Right,0,79,80,276.25,0.239583,Sixteenth,G5
1645,Right,0,75,80,276.5,0.239583,Sixteenth,D#5
1644,Left,1,67,80,276.5,0.239583,Sixteenth,G4
1646,Right,0,74,80,276.75,0.239583,Sixteenth,D5
1647,Left,1,65,80,276.75,0.239583,Sixteenth,F4
1649,Right,0,72,80,277.0,0.239583,Sixteenth,C5
1648,Left,1,63,80,277.0,0.239583,Sixteenth,D#4
1651,Right,0,75,80,277.25,0.239583,Sixteenth,D#5
1650,Left,1,67,80,277.25,0.239583,Sixteenth,G4
1653,Right,0,72,80,277.5,0.239583,Sixteenth,C5
1652,Left,1,63,80,277.5,0.239583,Sixteenth,D#4
1654,Right,0,70,80,277.75,0.239583,Sixteenth,A#4
1655,Left,1,62,80,277.75,0.239583,Sixteenth,D4
1657,Right,0,68,80,278.0,0.239583,Sixteenth,G#4
1656,Left,1,60,80,278.0,0.239583,Sixteenth,C4
1659,Right,0,72,80,278.25,0.239583,Sixteenth,C5
1658,Left,1,63,80,278.25,0.239583,Sixteenth,D#4
1660,Left,1,60,80,278.5,0.239583,Sixteenth,C4
1661,Right,0,68,80,278.5,0.239583,Sixteenth,G#4
1663,Right,0,67,80,278.75,0.239583,Sixteenth,G4
1662,Left,1,58,80,278.75,0.239583,Sixteenth,A#3
1664,Left,1,56,80,279.0,0.239583,Sixteenth,G#3
1665,Right,0,65,80,279.0,0.239583,Sixteenth,F4
1667,Right,0,68,80,279.25,0.239583,Sixteenth,G#4
1666,Left,1,60,80,279.25,0.239583,Sixteenth,C4
1668,Right,0,65,80,279.5,0.239583,Sixteenth,F4
1669,Left,1,56,80,279.5,0.239583,Sixteenth,G#3
1670,Right,0,63,80,279.75,0.239583,Sixteenth,D#4
1671,Left,1,55,80,279.75,0.239583,Sixteenth,G3
1673,Left,1,53,80,280.0,0.239583,Sixteenth,F3
1672,Right,0,62,80,280.0,0.239583,Sixteenth,D4
1675,Left,1,56,80,280.25,0.239583,Sixteenth,G#3
1674,Right,0,65,80,280.25,0.239583,Sixteenth,F4
1677,Left,1,53,80,280.5,0.239583,Sixteenth,F3
1676,Right,0,62,80,280.5,0.239583,Sixteenth,D4
1679,Left,1,51,80,280.75,0.239583,Sixteenth,D#3
1678,Right,0,60,80,280.75,0.239583,Sixteenth,C4
1680,Right,0,58,80,281.0,0.239583,Sixteenth,A#3
1681,Left,1,50,80,281.0,0.239583,Sixteenth,D3
1682,Left,1,53,80,281.25,0.239583,Sixteenth,F3
1683,Right,0,68,80,281.25,0.239583,Sixteenth,G#4
1684,Left,1,50,80,281.5,0.239583,Sixteenth,D3
1685,Right,0,65,80,281.5,0.239583,Sixteenth,F4
1686,Left,1,48,80,281.75,0.239583,Sixteenth,C3
1687,Right,0,63,80,281.75,0.239583,Sixteenth,D#4
1689,Left,1,46,80,282.0,0.239583,Sixteenth,A#2
1688,Right,0,62,80,282.0,0.239583,Sixteenth,D4
1690,Left,1,56,81,282.25,0.239583,Sixteenth,G#3
1691,Right,0,65,81,282.25,0.239583,Sixteenth,F4
1693,Left,1,53,82,282.5,0.239583,Sixteenth,F3
1692,Right,0,62,82,282.5,0.239583,Sixteenth,D4
1694,Left,1,51,83,282.75,0.239583,Sixteenth,D#3
1695,Right,0,60,83,282.75,0.239583,Sixteenth,C4
1697,Left,1,50,85,283.0,0.239583,Sixteenth,D3
1696,Right,0,58,85,283.0,0.239583,Sixteenth,A#3
1698,Right,0,68,86,283.25,0.239583,Sixteenth,G#4
1699,Left,1,53,86,283.25,0.239583,Sixteenth,F3
1700,Right,0,65,87,283.5,0.239583,Sixteenth,F4
1701,Left,1,50,87,283.5,0.239583,Sixteenth,D3
1702,Left,1,48,89,283.75,0.239583,Sixteenth,C3
1703,Right,0,63,89,283.75,0.239583,Sixteenth,D#4
1705,Left,1,46,90,284.0,0.239583,Sixteenth,A#2
1704,Right,0,62,90,284.0,0.239583,Sixteenth,D4
1707,Left,1,53,91,284.25,0.239583,Sixteenth,F3
1706,Right,0,68,91,284.25,0.239583,Sixteenth,G#4
1708,Left,1,50,93,284.5,0.239583,Sixteenth,D3
1709,Right,0,65,93,284.5,0.239583,Sixteenth,F4
1711,Right,0,63,94,284.75,0.239583,Sixteenth,D#4
1710,Left,1,48,94,284.75,0.239583,Sixteenth,C3
1712,Right,0,62,95,285.0,0.239583,Sixteenth,D4
1713,Left,1,46,95,285.0,0.239583,Sixteenth,A#2
1714,Right,0,68,96,285.25,0.239583,Sixteenth,G#4
1715,Left,1,53,96,285.25,0.239583,Sixteenth,F3
1717,Left,1,50,98,285.5,0.239583,Sixteenth,D3
1716,Right,0,65,98,285.5,0.239583,Sixteenth,F4
1718,Right,0,64,99,285.75,0.239583,Sixteenth,E4
1719,Left,1,48,99,285.75,0.239583,Sixteenth,C3
1720,Right,0,62,100,286.0,0.239583,Sixteenth,D4
1721,Left,1,46,100,286.0,0.239583,Sixteenth,A#2
1723,Right,0,68,102,286.25,0.239583,Sixteenth,G#4
1722,Left,1,53,102,286.25,0.239583,Sixteenth,F3
1725,Left,1,50,103,286.5,0.239583,Sixteenth,D3
1724,Right,0,65,103,286.5,0.239583,Sixteenth,F4
1727,Right,0,63,104,286.75,0.239583,Sixteenth,D#4
1726,Left,1,48,104,286.75,0.239583,Sixteenth,C3
1728,Right,0,62,106,287.0,0.239583,Sixteenth,D4
1729,Left,1,46,106,287.0,0.239583,Sixteenth,A#2
1730,Right,0,68,107,287.25,0.239583,Sixteenth,G#4
1731,Left,1,53,107,287.25,0.239583,Sixteenth,F3
1732,Left,1,50,108,287.5,0.239583,Sixteenth,D3
1733,Right,0,65,108,287.5,0.239583,Sixteenth,F4
1735,Right,0,63,109,287.75,0.239583,Sixteenth,D#4
1734,Left,1,48,109,287.75,0.239583,Sixteenth,C3
1736,Right,0,62,110,288.0,0.239583,Sixteenth,D4
1737,Left,1,46,110,288.0,0.239583,Sixteenth,A#2
1738,Left,1,48,110,288.25,0.239583,Sixteenth,C3
1739,Right,0,63,110,288.25,0.239583,Sixteenth,D#4
1740,Left,1,50,110,288.5,0.239583,Sixteenth,D3
1741,Right,0,65,110,288.5,0.239583,Sixteenth,F4
1742,Left,1,51,110,288.75,0.239583,Sixteenth,D#3
1743,Right,0,67,110,288.75,0.239583,Sixteenth,G4
1744,Right,0,68,110,289.0,0.239583,Sixteenth,G#4
1745,Left,1,53,110,289.0,0.239583,Sixteenth,F3
1747,Left,1,55,110,289.25,0.239583,Sixteenth,G3
1746,Right,0,70,110,289.25,0.239583,Sixteenth,A#4
1749,Left,1,56,110,289.5,0.239583,Sixteenth,G#3
1748,Right,0,72,110,289.5,0.239583,Sixteenth,C5
1750,Left,1,58,110,289.75,0.239583,Sixteenth,A#3
1751,Right,0,74,110,289.75,0.239583,Sixteenth,D5
1752,Right,0,75,110,290.0,0.239583,Sixteenth,D#5
1753,Left,1,60,110,290.0,0.239583,Sixteenth,C4
1755,Left,1,61,110,290.25,0.239583,Sixteenth,C#4
1754,Right,0,76,110,290.25,0.239583,Sixteenth,E5
1756,Left,1,62,110,290.5,0.239583,Sixteenth,D4
1757,Right,0,77,110,290.5,0.239583,Sixteenth,F5
1759,Left,1,63,110,290.75,0.239583,Sixteenth,D#4
1758,Right,0,79,110,290.75,0.239583,Sixteenth,G5
1760,Right,0,80,110,291.0,2.989583,DottedHalf,G#5_D5
1762,Left,1,65,110,291.0,2.989583,DottedHalf,F4_A#3
1764,Right,0,67,70,294.0,0.989583,Quarter,G4_A#4_A#3
1767,Right,0,67,70,295.0,0.989583,Quarter,G4_A#4_A#3
1770,Right,0,67,70,296.0,1.989583,Half,G4_D#4_A#3
1773,Left,1,46,70,296.25,0.239583,Sixteenth,A#2
1774,Left,1,48,70,296.5,0.239583,Sixteenth,C3
1775,Left,1,50,70,296.75,0.239583,Sixteenth,D3
1776,Left,1,51,70,297.0,0.239583,Sixteenth,D#3
1777,Left,1,53,70,297.25,0.239583,Sixteenth,F3
1778,Left,1,55,70,297.5,0.239583,Sixteenth,G3
1779,Left,1,51,70,297.75,0.239583,Sixteenth,D#3
1783,Left,1,56,70,298.0,0.489583,Eighth,G#3
1780,Right,0,58,70,298.0,0.989583,Quarter,F4_D4_A#3
1784,Right,0,62,70,299.0,0.989583,Quarter,F4_D4_A#3
1787,Right,0,70,70,300.0,1.989583,Half,G#4_F4_A#4_A#3
1791,Left,1,56,70,300.0,0.239583,Sixteenth,G#3
1792,Left,1,55,70,300.25,0.239583,Sixteenth,G3
1793,Left,1,53,70,300.5,0.239583,Sixteenth,F3
1794,Left,1,51,70,300.75,0.239583,Sixteenth,D#3
1795,Left,1,50,70,301.0,0.239583,Sixteenth,D3
1796,Left,1,48,70,301.25,0.239583,Sixteenth,C3
1797,Left,1,46,70,301.5,0.239583,Sixteenth,A#2
1798,Left,1,50,70,301.75,0.239583,Sixteenth,D3
1800,Right,0,70,70,302.0,0.989583,Quarter,G4_A#4_A#3
1799,Left,1,51,70,302.0,0.489583,Eighth,D#3
1803,Right,0,67,70,303.0,0.989583,Quarter,G4_A#4_A#3
1806,Right,0,67,70,304.0,1.989583,Half,G4_D#4_A#3
1809,Left,1,46,70,304.25,0.239583,Sixteenth,A#2
1810,Left,1,48,70,304.5,0.239583,Sixteenth,C3
1811,Left,1,50,70,304.75,0.239583,Sixteenth,D3
1812,Left,1,51,70,305.0,0.239583,Sixteenth,D#3
1813,Left,1,53,70,305.25,0.239583,Sixteenth,F3
1814,Left,1,55,70,305.5,0.239583,Sixteenth,G3
1815,Left,1,51,70,305.75,0.239583,Sixteenth,D#3
1816,Left,1,56,70,306.0,0.239583,Sixteenth,G#3
1817,Right,0,65,70,306.0,0.489583,Eighth,F4_D4_A#3
1820,Left,1,53,70,306.25,0.239583,Sixteenth,F3
1821,Right,0,70,70,306.5,0.989583,Quarter,A#4
1822,Left,1,50,70,306.5,0.239583,Sixteenth,D3
1823,Left,1,46,70,306.75,0.239583,Sixteenth,A#2
1824,Left,1,44,70,307.0,0.239583,Sixteenth,G#2
1825,Left,1,41,70,307.25,0.239583,Sixteenth,F2
1827,Left,1,38,70,307.5,0.239583,Sixteenth,D2
1826,Right,0,70,70,307.5,0.489583,Eighth,A#4_A#3
1829,Left,1,34,70,307.75,0.239583,Sixteenth,A#1
1830,Left,1,39,70,308.0,0.989583,Quarter,D#2
1831,Right,0,55,70,308.0,0.989583,Quarter,G3_D#4
1833,Left,1,51,70,309.0,0.489583,Eighth,D#3
1834,Left,1,55,70,310.0,0.989583,Quarter,G3_A#3_A#2
1837,Left,1,46,70,311.0,0.989583,Quarter,G3_A#3_A#2
1840,Left,1,55,70,312.0,1.989583,Half,G3_D#3_A#2
1843,Right,0,70,70,312.25,0.239583,Sixteenth,A#4
1844,Right,0,72,70,312.5,0.239583,Sixteenth,C5
1845,Right,0,74,70,312.75,0.239583,Sixteenth,D5
1846,Right,0,75,70,313.0,0.239583,Sixteenth,D#5
1847,Right,0,77,70,313.25,0.239583,Sixteenth,F5
1848,Right,0,79,70,313.5,0.239583,Sixteenth,G5
1849,Right,0,75,70,313.75,0.239583,Sixteenth,D#5
1850,Right,0,80,70,314.0,0.489583,Eighth,G#5
1851,Left,1,46,70,314.0,0.989583,Quarter,F3_D3_A#2
1854,Left,1,50,70,315.0,0.989583,Quarter,F3_D3_A#2
1857,Left,1,58,70,316.0,1.989583,Half,G#3_F3_A#3_A#2
1861,Right,0,80,70,316.0,0.239583,Sixteenth,G#5
1862,Right,0,79,70,316.25,0.239583,Sixteenth,G5
1863,Right,0,77,70,316.5,0.239583,Sixteenth,F5
1864,Right,0,75,70,316.75,0.239583,Sixteenth,D#5
1865,Right,0,74,70,317.0,0.239583,Sixteenth,D5
1866,Right,0,72,70,317.25,0.239583,Sixteenth,C5
1867,Right,0,70,70,317.5,0.239583,Sixteenth,A#4
1868,Right,0,74,70,317.75,0.239583,Sixteenth,D5
1870,Left,1,55,70,318.0,0.989583,Quarter,G3_A#3_A#2
1869,Right,0,75,70,318.0,0.489583,Eighth,D#5
1873,Left,1,46,70,319.0,0.989583,Quarter,G3_A#3_A#2
1876,Left,1,46,70,320.0,1.989583,Half,G3_D#3_A#2
1879,Right,0,70,70,320.25,0.239583,Sixteenth,A#4
1880,Right,0,72,70,320.5,0.239583,Sixteenth,C5
1881,Right,0,74,70,320.75,0.239583,Sixteenth,D5
1882,Right,0,75,70,321.0,0.239583,Sixteenth,D#5
1883,Right,0,77,70,321.25,0.239583,Sixteenth,F5
1884,Right,0,79,70,321.5,0.239583,Sixteenth,G5
1885,Right,0,75,70,321.75,0.239583,Sixteenth,D#5
1887,Left,1,50,70,322.0,0.489583,Eighth,F3_D3_A#2
1886,Right,0,80,70,322.0,0.239583,Sixteenth,G#5
1890,Right,0,77,70,322.25,0.239583,Sixteenth,F5
1891,Left,1,58,70,322.5,0.989583,Quarter,A#3
1892,Right,0,74,70,322.5,0.239583,Sixteenth,D5
1893,Right,0,70,70,322.75,0.239583,Sixteenth,A#4
1894,Right,0,68,70,323.0,0.239583,Sixteenth,G#4
1895,Right,0,65,70,323.25,0.239583,Sixteenth,F4
1897,Right,0,62,70,323.5,0.239583,Sixteenth,D4
1896,Left,1,46,70,323.5,0.489583,Eighth,A#3_A#2
1899,Right,0,58,70,323.75,0.239583,Sixteenth,A#3
1902,Right,0,63,70,324.0,0.989583,Quarter,D#4
1900,Left,1,51,70,324.0,0.989583,Quarter,G2_D#3
1903,Right,0,68,70,326.0,0.989583,Quarter,G#4_F4
1905,Right,0,65,70,327.0,0.989583,Quarter,G#4_F4
1907,Right,0,65,70,328.0,1.989583,Half,G#4_F4_D5
1910,Left,1,34,70,328.25,0.239583,Sixteenth,A#1
1911,Left,1,46,70,328.5,0.239583,Sixteenth,A#2
1912,Left,1,48,70,328.75,0.239583,Sixteenth,C3
1913,Left,1,50,70,329.0,0.239583,Sixteenth,D3
1914,Left,1,51,70,329.25,0.239583,Sixteenth,D#3
1915,Left,1,53,70,329.5,0.239583,Sixteenth,F3
1916,Left,1,55,70,329.75,0.239583,Sixteenth,G3
1917,Left,1,57,70,330.0,0.489583,Eighth,A3
1918,Right,0,62,70,330.0,0.989583,Quarter,D5_D4
1920,Left,1,58,73,330.5,1.739583,DottedQuarter,A#3
1921,Right,0,74,76,331.0,0.989583,Quarter,D5_D4
1923,Right,0,65,83,332.0,1.989583,Half,G#4_F5_F4_D5
1927,Left,1,34,84,332.25,0.239583,Sixteenth,A#1
1928,Left,1,46,86,332.5,0.239583,Sixteenth,A#2
1929,Left,1,48,88,332.75,0.239583,Sixteenth,C3
1930,Left,1,50,89,333.0,0.239583,Sixteenth,D3
1931,Left,1,51,91,333.25,0.239583,Sixteenth,D#3
1932,Left,1,53,93,333.5,0.239583,Sixteenth,F3
1933,Left,1,55,94,333.75,0.239583,Sixteenth,G3
1934,Left,1,57,96,334.0,0.489583,Eighth,A3
1935,Right,0,65,96,334.0,0.989583,Quarter,F5_F4_D5
1938,Left,1,58,99,334.5,1.989583,Half,A#3
1939,Right,0,65,103,335.0,0.989583,Quarter,F5_F4_D5
1942,Right,0,80,110,336.0,1.489583,Quarter,G#5_F5_D5
1945,Left,1,59,110,336.5,0.489583,Eighth,B3
1946,Left,1,60,110,337.0,0.489583,Eighth,C4
1947,Right,0,75,110,337.0,0.489583,Eighth,D#5
1949,Left,1,55,110,337.5,0.489583,Eighth,G3
1948,Right,0,71,110,337.5,0.489583,Eighth,G5_B4
1951,Left,1,56,100,338.0,0.489583,Eighth,G#3
1952,Right,0,79,100,338.0,0.489583,Eighth,G5_C5
1954,Right,0,77,91,338.5,0.489583,Eighth,F5_C5
1956,Left,1,57,91,338.5,0.489583,Eighth,A3
1957,Right,0,67,81,339.0,0.489583,Eighth,G4_D#5
1959,Left,1,58,81,339.0,1.489583,DottedQuarter,A#3
1961,Left,1,46,71,339.5,0.489583,Eighth,A#2
1960,Right,0,68,71,339.5,0.489583,Eighth,G#4_F4_D5
1964,Right,0,77,70,340.0,0.989583,Quarter,G#4_F5
1965,Left,1,51,70,340.0,1.489583,DottedQuarter,D#3
1967,Left,1,62,70,340.5,0.489583,Eighth,D4
1968,Left,1,63,70,341.0,0.489583,Eighth,D#4
1969,Right,0,75,70,341.0,0.489583,Eighth,G4_D#5
1971,Left,1,53,70,342.0,0.989583,Quarter,G#3_F3
1973,Left,1,53,70,343.0,0.989583,Quarter,G#3_F3
1975,Left,1,53,70,344.0,1.989583,Half,G#3_F3_D4
1978,Right,0,70,70,344.5,0.239583,Sixteenth,A#4
1979,Right,0,72,70,344.75,0.239583,Sixteenth,C5
1980,Right,0,74,70,345.0,0.239583,Sixteenth,D5
1981,Right,0,75,70,345.25,0.239583,Sixteenth,D#5
1982,Right,0,77,70,345.5,0.239583,Sixteenth,F5
1983,Right,0,79,70,345.75,0.239583,Sixteenth,G5
1985,Right,0,81,70,346.0,0.489583,Eighth,A5
1984,Left,1,62,70,346.0,0.989583,Quarter,D4_D3
1987,Right,0,82,94,346.5,1.989583,Half,A#5
1988,Left,1,50,76,347.0,0.989583,Quarter,D4_D3
1990,Left,1,53,83,348.0,1.989583,Half,G#3_F4_F3_D4
1994,Right,0,70,86,348.5,0.239583,Sixteenth,A#4
1995,Right,0,72,88,348.75,0.239583,Sixteenth,C5
1996,Right,0,74,89,349.0,0.239583,Sixteenth,D5
1997,Right,0,75,91,349.25,0.239583,Sixteenth,D#5
1998,Right,0,77,93,349.5,0.239583,Sixteenth,F5
1999,Right,0,79,94,349.75,0.239583,Sixteenth,G5
2000,Left,1,53,96,350.0,0.989583,Quarter,F4_F3_D4
2002,Right,0,81,96,350.0,0.489583,Eighth,A5
2004,Right,0,82,110,350.5,1.989583,Half,A#5
2005,Left,1,62,110,351.0,0.989583,Quarter,F4_F3_D4
2008,Left,1,65,110,352.0,1.489583,Quarter,G#4_F4_D4
2011,Right,0,83,110,352.5,0.489583,Eighth,B5
2012,Left,1,63,110,353.0,0.489583,Eighth,D#4
2013,Right,0,84,110,353.0,0.489583,Eighth,C6
2014,Left,1,67,110,353.5,0.489583,Eighth,G4_B3
2016,Right,0,86,110,353.5,0.489583,Eighth,D6
2019,Right,0,87,100,354.0,0.489583,Eighth,D#6
2017,Left,1,67,100,354.0,0.489583,Eighth,G4_C4
2020,Left,1,65,91,354.5,0.489583,Eighth,F4_A3
2022,Right,0,84,91,354.5,0.489583,Eighth,C6
2023,Left,1,63,81,355.0,0.489583,Eighth,D#4_A#3
2025,Right,0,79,81,355.0,1.489583,DottedQuarter,G5
2028,Right,0,80,71,355.5,0.989583,Quarter,G#5
2026,Left,1,58,71,355.5,0.489583,Eighth,D4_A#3
2029,Left,1,58,70,356.0,0.989583,Quarter,F4_A#3
2031,Right,0,74,70,356.5,0.489583,Eighth,D5
2033,Right,0,75,70,357.0,0.489583,Eighth,D#5
2032,Left,1,63,70,357.0,0.489583,Eighth,D#4_D#3
2035,Right,0,73,70,358.0,0.989583,Quarter,G4_C#5_A#4
2038,Right,0,73,70,359.0,0.989583,Quarter,G4_C#5_A#4
2041,Left,1,51,70,360.0,0.989583,Quarter,D#3
2042,Left,1,39,70,361.0,0.989583,Quarter,D#2
2043,Right,0,72,70,362.0,0.989583,Quarter,G#4_D#4_C5
2046,Right,0,72,70,363.0,0.989583,Quarter,G#4_D#4_C5
2049,Left,1,51,70,364.0,0.989583,Quarter,D#3
2050,Left,1,39,70,365.0,0.989583,Quarter,D#2
2051,Right,0,68,70,366.0,0.989583,Quarter,G#4_F4_D4
2054,Right,0,62,70,367.0,0.989583,Quarter,G#4_F4_D4
2057,Left,1,51,70,368.0,0.989583,Quarter,D#3
2058,Left,1,39,70,369.0,0.989583,Quarter,D#2
2059,Right,0,67,70,370.0,0.989583,Quarter,G4_D#4_A#3
2062,Left,1,51,70,371.0,0.489583,Eighth,D#3
2063,Left,1,39,70,371.5,0.489583,Eighth,D#2
2064,Right,0,65,70,372.0,0.989583,Quarter,G#4_F4_D4
2067,Left,1,51,70,373.0,0.489583,Eighth,D#3
2068,Left,1,39,70,373.5,0.489583,Eighth,D#2
2069,Right,0,63,70,374.0,0.989583,Quarter,G4_D#4_A#3
2072,Left,1,51,70,375.0,0.489583,Eighth,D#3
2073,Left,1,39,70,375.5,0.489583,Eighth,D#2
2074,Right,0,62,70,376.0,0.989583,Quarter,G#4_F4_D4
2077,Left,1,51,70,377.0,0.489583,Eighth,D#3
2078,Left,1,39,70,377.5,0.489583,Eighth,D#2
2079,Right,0,58,70,378.0,0.989583,Quarter,G4_D#4_A#3
2082,Left,1,51,70,379.0,0.489583,Eighth,D#3
2083,Left,1,39,70,379.5,0.489583,Eighth,D#2
2084,Right,0,55,70,382.0,0.989583,Quarter,G4_G3_D#4_A#3
2088,Left,1,51,70,383.0,0.489583,Eighth,D#3
2089,Left,1,39,70,383.5,0.489583,Eighth,D#2
2090,Right,0,87,70,386.0,7.989583,Unknown,G5_D#6_A#5
2093,Left,1,39,70,388.0,5.989583,Unknown,D#2
