,hand,channel,note,velocity,start_beat,duration,note_value,chord
1,Left,1,36,80,0.0,1.989583,Half,C2
0,Right,0,48,80,0.0,2.989583,DottedHalf,C3
3,Left,1,43,80,1.0,1.989583,Half,G2
2,Right,0,51,80,1.0,2.989583,DottedHalf,D#3
5,Left,1,46,80,2.0,1.989583,Half,A#2
4,Right,0,55,80,2.0,2.989583,DottedHalf,G3
7,Left,1,48,80,3.0,1.989583,Half,C3
6,Right,0,60,80,3.0,2.989583,DottedHalf,C4
9,Left,1,51,80,4.0,1.989583,Half,D#3
8,Right,0,63,80,4.0,2.989583,DottedHalf,D#4
10,Left,1,55,80,5.0,1.989583,Half,G3
11,Right,0,67,80,5.0,2.989583,DottedHalf,G4
12,Right,0,79,80,6.0,2.989583,DottedHalf,G5
13,Left,1,60,80,6.0,1.989583,Half,C4
14,Left,1,63,80,7.0,1.989583,Half,D#4
15,Right,0,75,80,7.0,2.989583,DottedHalf,D#5
16,Left,1,67,80,8.0,1.989583,Half,G4
17,Right,0,72,80,8.0,2.989583,DottedHalf,C5
19,Right,0,79,80,9.0,2.989583,DottedHalf,G5
18,Left,1,59,80,9.0,1.989583,Half,B3
21,Right,0,74,80,10.0,2.989583,DottedHalf,D5
20,Left,1,62,80,10.0,1.989583,Half,D4
23,Right,0,71,80,11.0,2.989583,DottedHalf,B4
22,Left,1,67,80,11.0,1.989583,Half,G4
24,Right,0,67,80,12.0,2.989583,DottedHalf,G4
25,Left,1,47,80,12.0,1.989583,Half,B2
27,Right,0,62,80,13.0,2.989583,DottedHalf,D4
26,Left,1,50,80,13.0,1.989583,Half,D3
29,Right,0,59,80,14.0,2.989583,DottedHalf,B3
28,Left,1,55,80,14.0,1.989583,Half,G3
31,Right,0,67,80,15.0,2.989583,DottedHalf,G4
30,Left,1,46,80,15.0,1.989583,Half,A#2
33,Right,0,62,80,16.0,2.989583,DottedHalf,D4
32,Left,1,50,80,16.0,1.989583,Half,D3
34,Right,0,58,80,17.0,2.989583,DottedHalf,A#3
35,Left,1,55,80,17.0,1.989583,Half,G3
36,Right,0,79,80,18.0,2.989583,DottedHalf,G5
37,Left,1,58,80,18.0,1.989583,Half,A#3
39,Right,0,74,80,19.0,2.989583,DottedHalf,D5
38,Left,1,62,80,19.0,1.989583,Half,D4
41,Left,1,67,80,20.0,1.989583,Half,G4
40,Right,0,70,80,20.0,2.989583,DottedHalf,A#4
42,Right,0,77,80,21.0,2.989583,DottedHalf,F5
43,Left,1,57,80,21.0,1.989583,Half,A3
44,Right,0,72,80,22.0,1.989583,Half,C5
45,Left,1,60,80,22.0,0.989583,Quarter,C4
47,Left,1,65,80,23.0,0.989583,Quarter,F4
46,Right,0,69,80,23.0,1.989583,Half,A4
48,Right,0,65,80,24.0,1.989583,Half,F4
49,Left,1,45,80,24.0,0.989583,Quarter,A2
51,Right,0,60,80,25.0,1.989583,Half,C4
50,Left,1,48,80,25.0,0.989583,Quarter,C3
52,Left,1,53,80,26.0,0.989583,Quarter,F3
53,Right,0,57,80,26.0,1.989583,Half,A3
55,Right,0,65,80,27.0,1.989583,Half,F4
54,Left,1,44,80,27.0,0.989583,Quarter,G#2
56,Left,1,48,80,28.0,0.989583,Quarter,C3
57,Right,0,60,80,28.0,1.989583,Half,C4
59,Right,0,56,80,29.0,1.989583,Half,G#3
58,Left,1,53,80,29.0,0.989583,Quarter,F3
61,Left,1,56,80,30.0,0.989583,Quarter,G#3
60,Right,0,77,80,30.0,1.989583,Half,F5
63,Left,1,60,80,31.0,0.989583,Quarter,C4
62,Right,0,72,80,31.0,1.989583,Half,C5
64,Left,1,65,80,32.0,0.989583,Quarter,F4
65,Right,0,68,80,32.0,1.989583,Half,G#4
66,Right,0,75,80,33.0,1.989583,Half,D#5
67,Left,1,55,80,33.0,0.989583,Quarter,G3
69,Left,1,60,80,34.0,0.989583,Quarter,C4
68,Right,0,72,80,34.0,1.989583,Half,C5
71,Left,1,63,80,35.0,0.989583,Quarter,D#4
70,Right,0,67,80,35.0,1.989583,Half,G4
72,Left,1,48,110,36.0,1.989583,Half,C3_C2
73,Right,0,75,110,36.0,1.989583,Half,D#5_D#4
77,Left,1,43,110,37.0,1.989583,Half,G2
76,Right,0,68,110,37.0,1.989583,Half,G#4
79,Left,1,45,110,38.0,1.989583,Half,A2
78,Right,0,67,110,38.0,1.989583,Half,G4
81,Left,1,38,110,39.0,1.989583,Half,D3_D2
80,Right,0,62,110,39.0,1.989583,Half,D5_D4
85,Left,1,43,110,40.0,1.989583,Half,G2
84,Right,0,70,110,40.0,1.989583,Half,A#4
87,Left,1,46,110,41.0,1.989583,Half,A#2
86,Right,0,67,110,41.0,1.989583,Half,G4
88,Right,0,74,110,42.0,1.989583,Half,D5_D4
89,Left,1,38,110,42.0,1.989583,Half,D3_D2
93,Right,0,69,110,43.0,1.989583,Half,A4
92,Left,1,42,110,43.0,1.989583,Half,F#2
94,Right,0,66,110,44.0,1.989583,Half,F#4
95,Left,1,45,110,44.0,1.989583,Half,A2
97,Right,0,67,110,45.0,1.989583,Half,G4
96,Left,1,43,110,45.0,1.989583,Half,G2_G1
99,Left,1,39,80,46.0,0.989583,Quarter,D#2
100,Left,1,38,80,47.0,0.989583,Quarter,D2
102,Left,1,36,80,48.0,0.989583,Quarter,C2
101,Right,0,48,80,48.0,1.989583,Half,C3
104,Left,1,43,80,49.0,0.989583,Quarter,G2
103,Right,0,51,80,49.0,1.989583,Half,D#3
105,Right,0,55,80,50.0,1.989583,Half,G3
106,Left,1,46,80,50.0,0.989583,Quarter,A#2
107,Left,1,48,80,51.0,0.989583,Quarter,C3
108,Right,0,60,80,51.0,1.989583,Half,C4
109,Left,1,51,80,52.0,0.989583,Quarter,D#3
110,Right,0,63,80,52.0,1.989583,Half,D#4
111,Left,1,55,80,53.0,0.989583,Quarter,G3
112,Right,0,67,80,53.0,1.989583,Half,G4
113,Left,1,60,80,54.0,0.989583,Quarter,C4
114,Right,0,79,80,54.0,1.989583,Half,G5
115,Left,1,63,80,55.0,0.989583,Quarter,D#4
116,Right,0,75,80,55.0,1.989583,Half,D#5
117,Left,1,67,80,56.0,0.989583,Quarter,G4
118,Right,0,72,80,56.0,1.989583,Half,C5
119,Right,0,79,80,57.0,1.989583,Half,G5
120,Left,1,59,80,57.0,0.989583,Quarter,B3
121,Left,1,62,80,58.0,0.989583,Quarter,D4
122,Right,0,74,80,58.0,1.989583,Half,D5
123,Left,1,67,80,59.0,0.989583,Quarter,G4
124,Right,0,71,80,59.0,1.989583,Half,B4
126,Left,1,47,80,60.0,0.989583,Quarter,B2
125,Right,0,67,80,60.0,1.989583,Half,G4
127,Left,1,50,80,61.0,0.989583,Quarter,D3
128,Right,0,62,80,61.0,1.989583,Half,D4
130,Right,0,59,80,62.0,1.989583,Half,B3
129,Left,1,55,80,62.0,0.989583,Quarter,G3
132,Left,1,46,80,63.0,0.989583,Quarter,A#2
131,Right,0,67,80,63.0,1.989583,Half,G4
134,Left,1,50,80,64.0,0.989583,Quarter,D3
133,Right,0,62,80,64.0,1.989583,Half,D4
135,Right,0,58,80,65.0,1.989583,Half,A#3
136,Left,1,55,80,65.0,0.989583,Quarter,G3
138,Left,1,58,80,66.0,0.989583,Quarter,A#3
137,Right,0,79,80,66.0,1.989583,Half,G5
139,Left,1,62,80,67.0,0.989583,Quarter,D4
140,Right,0,74,80,67.0,1.989583,Half,D5
141,Left,1,67,80,68.0,0.989583,Quarter,G4
142,Right,0,70,80,68.0,1.989583,Half,A#4
143,Right,0,77,80,69.0,1.989583,Half,F5
144,Left,1,57,80,69.0,0.989583,Quarter,A3
146,Right,0,72,80,70.0,1.989583,Half,C5
145,Left,1,60,80,70.0,0.989583,Quarter,C4
147,Left,1,65,80,71.0,0.989583,Quarter,F4
148,Right,0,69,80,71.0,1.989583,Half,A4
150,Left,1,45,80,72.0,0.989583,Quarter,A2
149,Right,0,65,80,72.0,1.989583,Half,F4
152,Right,0,60,80,73.0,1.989583,Half,C4
151,Left,1,48,80,73.0,0.989583,Quarter,C3
153,Left,1,53,80,74.0,0.989583,Quarter,F3
154,Right,0,57,80,74.0,1.989583,Half,A3
156,Right,0,65,80,75.0,1.989583,Half,F4
155,Left,1,44,80,75.0,0.989583,Quarter,G#2
157,Right,0,60,80,76.0,1.989583,Half,C4
158,Left,1,48,80,76.0,0.989583,Quarter,C3
159,Right,0,56,80,77.0,1.989583,Half,G#3
160,Left,1,53,80,77.0,0.989583,Quarter,F3
161,Right,0,77,80,78.0,1.989583,Half,F5
162,Left,1,56,80,78.0,0.989583,Quarter,G#3
164,Left,1,60,80,79.0,0.989583,Quarter,C4
163,Right,0,72,80,79.0,1.989583,Half,C5
165,Right,0,68,80,80.0,1.989583,Half,G#4
166,Left,1,65,80,80.0,0.989583,Quarter,F4
168,Right,0,75,80,81.0,1.989583,Half,D#5
167,Left,1,55,80,81.0,0.989583,Quarter,G3
169,Left,1,60,80,82.0,0.989583,Quarter,C4
170,Right,0,72,80,82.0,1.989583,Half,C5
172,Right,0,67,80,83.0,1.989583,Half,G4
171,Left,1,63,80,83.0,0.989583,Quarter,D#4
173,Right,0,75,110,84.0,1.989583,Half,D#5_D#4
174,Left,1,36,110,84.0,1.989583,Half,C3_C2
178,Left,1,43,110,85.0,1.989583,Half,G2
177,Right,0,68,110,85.0,1.989583,Half,G#4
180,Right,0,67,110,86.0,1.989583,Half,G4
179,Left,1,45,110,86.0,1.989583,Half,A2
181,Left,1,38,110,87.0,1.989583,Half,D3_D2
183,Right,0,74,110,87.0,1.989583,Half,D5_D4
186,Left,1,43,110,88.0,1.989583,Half,G2
185,Right,0,70,110,88.0,1.989583,Half,A#4
187,Right,0,67,110,89.0,1.989583,Half,G4
188,Left,1,46,110,89.0,1.989583,Half,A#2
189,Right,0,62,110,90.0,1.989583,Half,D5_D4
190,Left,1,50,110,90.0,1.989583,Half,D3_D2
193,Left,1,42,110,91.0,1.989583,Half,F#2
194,Right,0,69,110,91.0,1.989583,Half,A4
196,Right,0,66,110,92.0,1.989583,Half,F#4
195,Left,1,45,110,92.0,1.989583,Half,A2
198,Right,0,67,110,93.0,1.989583,Half,G4
197,Left,1,43,110,93.0,0.989583,Quarter,G2_G1
200,Left,1,41,110,94.0,0.989583,Quarter,F2
201,Left,1,40,110,95.0,0.989583,Quarter,E2
203,Right,0,58,80,96.0,1.989583,Half,A#3
202,Left,1,37,80,96.0,0.989583,Quarter,C#2
204,Left,1,41,80,97.0,0.989583,Quarter,F2
205,Right,0,53,80,97.0,1.989583,Half,F3
206,Right,0,49,80,98.0,1.989583,Half,C#3
207,Left,1,46,80,98.0,0.989583,Quarter,A#2
209,Right,0,58,80,99.0,1.989583,Half,A#3
208,Left,1,36,80,99.0,0.989583,Quarter,C2
210,Left,1,40,80,100.0,0.989583,Quarter,E2
211,Right,0,52,80,100.0,1.989583,Half,E3
212,Left,1,46,80,101.0,0.989583,Quarter,A#2
213,Right,0,48,80,101.0,1.989583,Half,C3
214,Left,1,40,80,102.0,0.989583,Quarter,E2
215,Right,0,70,80,102.0,1.989583,Half,A#4
217,Left,1,43,80,103.0,0.989583,Quarter,G2
216,Right,0,67,80,103.0,1.989583,Half,G4
219,Right,0,60,80,104.0,1.989583,Half,C4
218,Left,1,48,80,104.0,0.989583,Quarter,C3
220,Right,0,68,80,105.0,1.989583,Half,G#4
221,Left,1,41,80,105.0,0.989583,Quarter,F2
223,Left,1,44,80,106.0,0.989583,Quarter,G#2
222,Right,0,65,80,106.0,1.989583,Half,F4
225,Right,0,60,80,107.0,1.989583,Half,C4
224,Left,1,48,80,107.0,0.989583,Quarter,C3
227,Right,0,56,80,108.0,1.989583,Half,G#3
226,Left,1,36,80,108.0,0.989583,Quarter,C2
228,Right,0,51,80,109.0,1.989583,Half,D#3
229,Left,1,39,80,109.0,0.989583,Quarter,D#2
230,Left,1,44,80,110.0,0.989583,Quarter,G#2
231,Right,0,48,80,110.0,1.989583,Half,C3
233,Left,1,35,80,111.0,0.989583,Quarter,B1
232,Right,0,55,80,111.0,1.989583,Half,G3
234,Right,0,50,80,112.0,1.989583,Half,D3
235,Left,1,38,80,112.0,0.989583,Quarter,D2
236,Right,0,46,80,113.0,1.989583,Half,A#2
237,Left,1,43,80,113.0,0.989583,Quarter,G2
238,Right,0,77,80,114.0,1.989583,Half,F5
239,Left,1,47,80,114.0,0.989583,Quarter,B2
241,Right,0,74,80,115.0,1.989583,Half,D5
240,Left,1,50,80,115.0,0.989583,Quarter,D3
243,Right,0,67,80,116.0,1.989583,Half,G4
242,Left,1,55,80,116.0,0.989583,Quarter,G3
244,Left,1,48,80,117.0,0.989583,Quarter,C3
245,Right,0,75,80,117.0,1.989583,Half,D#5
247,Left,1,51,80,118.0,0.989583,Quarter,D#3
246,Right,0,72,80,118.0,1.989583,Half,C5
249,Right,0,67,80,119.0,1.989583,Half,G4
248,Left,1,55,80,119.0,0.989583,Quarter,G3
250,Left,1,36,80,120.0,0.989583,Quarter,C2
251,Right,0,48,80,120.0,1.989583,Half,C3
252,Left,1,43,80,121.0,0.989583,Quarter,G2
253,Right,0,51,80,121.0,1.989583,Half,D#3
255,Left,1,46,80,122.0,0.989583,Quarter,A#2
254,Right,0,55,80,122.0,1.989583,Half,G3
256,Left,1,48,80,123.0,0.989583,Quarter,C3
257,Right,0,60,80,123.0,1.989583,Half,C4
259,Right,0,63,80,124.0,1.989583,Half,D#4
258,Left,1,51,80,124.0,0.989583,Quarter,D#3
260,Left,1,55,80,125.0,0.989583,Quarter,G3
261,Right,0,67,80,125.0,1.989583,Half,G4
263,Left,1,60,80,126.0,0.989583,Quarter,C4
262,Right,0,80,80,126.0,1.989583,Half,G#5
264,Right,0,75,82,127.0,1.989583,Half,D#5
265,Left,1,63,82,127.0,0.989583,Quarter,D#4
266,Right,0,72,85,128.0,1.989583,Half,C5
267,Left,1,68,85,128.0,0.989583,Quarter,G#4
268,Right,0,80,88,129.0,1.989583,Half,G#5
269,Left,1,59,88,129.0,0.989583,Quarter,B3
271,Right,0,74,91,130.0,1.989583,Half,D5
270,Left,1,62,91,130.0,0.989583,Quarter,D4
272,Right,0,71,94,131.0,1.989583,Half,B4
273,Left,1,68,94,131.0,0.989583,Quarter,G#4
275,Left,1,47,95,132.0,0.989583,Quarter,B2
274,Right,0,68,95,132.0,1.989583,Half,G#4
277,Left,1,50,95,133.0,0.989583,Quarter,D3
276,Right,0,62,95,133.0,1.989583,Half,D4
279,Left,1,56,95,134.0,0.989583,Quarter,G#3
278,Right,0,59,95,134.0,1.989583,Half,B3
281,Left,1,46,95,135.0,0.989583,Quarter,A#2
280,Right,0,67,95,135.0,1.989583,Half,G4
282,Right,0,62,95,136.0,1.989583,Half,D4
283,Left,1,50,95,136.0,0.989583,Quarter,D3
285,Left,1,55,95,137.0,0.989583,Quarter,G3
284,Right,0,58,95,137.0,1.989583,Half,A#3
287,Left,1,58,95,138.0,0.989583,Quarter,A#3
286,Right,0,79,95,138.0,1.989583,Half,G5
288,Left,1,62,95,139.0,0.989583,Quarter,D4
289,Right,0,74,95,139.0,1.989583,Half,D5
290,Right,0,70,95,140.0,1.989583,Half,A#4
291,Left,1,67,95,140.0,0.989583,Quarter,G4
292,Right,0,79,95,141.0,1.989583,Half,G5
293,Left,1,57,95,141.0,0.989583,Quarter,A3
295,Left,1,60,95,142.0,0.989583,Quarter,C4
294,Right,0,72,95,142.0,1.989583,Half,C5
296,Right,0,69,95,143.0,1.989583,Half,A4
297,Left,1,67,95,143.0,0.989583,Quarter,G4
299,Left,1,45,95,144.0,0.989583,Quarter,A2
298,Right,0,67,95,144.0,1.989583,Half,G4
301,Left,1,48,95,145.0,0.989583,Quarter,C3
300,Right,0,60,95,145.0,1.989583,Half,C4
303,Left,1,55,95,146.0,0.989583,Quarter,G3
302,Right,0,57,95,146.0,1.989583,Half,A3
305,Left,1,44,95,147.0,0.989583,Quarter,G#2
304,Right,0,65,95,147.0,1.989583,Half,F4
306,Right,0,60,95,148.0,1.989583,Half,C4
307,Left,1,48,95,148.0,0.989583,Quarter,C3
308,Left,1,53,95,149.0,0.989583,Quarter,F3
309,Right,0,56,95,149.0,1.989583,Half,G#3
310,Left,1,56,95,150.0,0.989583,Quarter,G#3
311,Right,0,77,95,150.0,1.989583,Half,F5
312,Left,1,60,95,151.0,0.989583,Quarter,C4
313,Right,0,72,95,151.0,1.989583,Half,C5
315,Left,1,65,95,152.0,0.989583,Quarter,F4
314,Right,0,68,95,152.0,1.989583,Half,G#4
316,Left,1,55,95,153.0,0.989583,Quarter,G3
317,Right,0,75,95,153.0,1.989583,Half,D#5
318,Right,0,72,95,154.0,1.989583,Half,C5
319,Left,1,60,95,154.0,0.989583,Quarter,C4
321,Right,0,67,95,155.0,1.989583,Half,G4
320,Left,1,63,95,155.0,0.989583,Quarter,D#4
324,Right,0,72,110,156.0,1.989583,Half,C5_C4
322,Left,1,54,110,156.0,1.989583,Half,F#3_F#2
326,Left,1,48,110,157.0,1.989583,Half,C3
327,Right,0,69,110,157.0,1.989583,Half,A4
328,Right,0,63,110,158.0,1.989583,Half,D#4
329,Left,1,51,110,158.0,1.989583,Half,D#3
330,Left,1,55,110,159.0,1.989583,Half,G3_G2
331,Right,0,60,110,159.0,1.989583,Half,C5_C4
335,Right,0,67,110,160.0,1.989583,Half,G4
334,Left,1,48,110,160.0,1.989583,Half,C3
336,Left,1,51,110,161.0,1.989583,Half,D#3
337,Right,0,63,110,161.0,1.989583,Half,D#4
339,Right,0,59,110,162.0,1.989583,Half,B4_B3
338,Left,1,55,110,162.0,1.989583,Half,G3_G2
342,Right,0,67,110,163.0,1.989583,Half,G4
343,Left,1,47,110,163.0,1.989583,Half,B2
344,Right,0,62,110,164.0,1.989583,Half,D4
345,Left,1,50,110,164.0,1.989583,Half,D3
346,Right,0,63,110,165.0,1.989583,Half,D#4_C5_C4
349,Left,1,48,110,165.0,1.989583,Half,C3_C2
351,Left,1,35,110,166.0,0.989583,Quarter,B1
352,Left,1,36,110,167.0,0.989583,Quarter,C2
354,Left,1,37,80,168.0,0.989583,Quarter,C#2
353,Right,0,58,80,168.0,1.989583,Half,A#3
355,Right,0,53,80,169.0,1.989583,Half,F3
356,Left,1,41,80,169.0,0.989583,Quarter,F2
357,Left,1,46,80,170.0,0.989583,Quarter,A#2
358,Right,0,49,80,170.0,1.989583,Half,C#3
359,Right,0,58,80,171.0,1.989583,Half,A#3
360,Left,1,36,80,171.0,0.989583,Quarter,C2
361,Left,1,40,80,172.0,0.989583,Quarter,E2
362,Right,0,52,80,172.0,1.989583,Half,E3
364,Right,0,48,80,173.0,1.989583,Half,C3
363,Left,1,46,80,173.0,0.989583,Quarter,A#2
366,Left,1,40,80,174.0,0.989583,Quarter,E2
365,Right,0,70,80,174.0,1.989583,Half,A#4
368,Left,1,43,80,175.0,0.989583,Quarter,G2
367,Right,0,67,80,175.0,1.989583,Half,G4
369,Left,1,48,80,176.0,0.989583,Quarter,C3
370,Right,0,60,80,176.0,1.989583,Half,C4
371,Left,1,41,80,177.0,0.989583,Quarter,F2
372,Right,0,68,80,177.0,1.989583,Half,G#4
374,Right,0,65,80,178.0,1.989583,Half,F4
373,Left,1,44,80,178.0,0.989583,Quarter,G#2
375,Right,0,60,80,179.0,1.989583,Half,C4
376,Left,1,48,80,179.0,0.989583,Quarter,C3
377,Left,1,36,80,180.0,0.989583,Quarter,C2
378,Right,0,56,80,180.0,1.989583,Half,G#3
380,Right,0,51,80,181.0,1.989583,Half,D#3
379,Left,1,39,80,181.0,0.989583,Quarter,D#2
382,Right,0,48,80,182.0,1.989583,Half,C3
381,Left,1,44,80,182.0,0.989583,Quarter,G#2
383,Right,0,55,80,183.0,1.989583,Half,G3
384,Left,1,35,80,183.0,0.989583,Quarter,B1
386,Right,0,50,80,184.0,1.989583,Half,D3
385,Left,1,38,80,184.0,0.989583,Quarter,D2
388,Right,0,46,80,185.0,1.989583,Half,A#2
387,Left,1,43,80,185.0,0.989583,Quarter,G2
389,Left,1,47,80,186.0,0.989583,Quarter,B2
390,Right,0,77,80,186.0,1.989583,Half,F5
392,Right,0,74,80,187.0,1.989583,Half,D5
391,Left,1,50,80,187.0,0.989583,Quarter,D3
393,Left,1,55,80,188.0,0.989583,Quarter,G3
394,Right,0,67,80,188.0,1.989583,Half,G4
396,Right,0,75,80,189.0,1.989583,Half,D#5
395,Left,1,48,80,189.0,0.989583,Quarter,C3
397,Left,1,51,80,190.0,0.989583,Quarter,D#3
398,Right,0,72,80,190.0,1.989583,Half,C5
400,Right,0,67,80,191.0,1.989583,Half,G4
399,Left,1,55,80,191.0,0.989583,Quarter,G3
401,Right,0,48,80,192.0,1.989583,Half,C3
402,Left,1,36,80,192.0,0.989583,Quarter,C2
403,Right,0,51,80,193.0,1.989583,Half,D#3
404,Left,1,43,80,193.0,0.989583,Quarter,G2
406,Right,0,55,80,194.0,1.989583,Half,G3
405,Left,1,46,80,194.0,0.989583,Quarter,A#2
407,Right,0,60,80,195.0,1.989583,Half,C4
408,Left,1,48,80,195.0,0.989583,Quarter,C3
410,Right,0,63,80,196.0,1.989583,Half,D#4
409,Left,1,51,80,196.0,0.989583,Quarter,D#3
412,Right,0,67,80,197.0,1.989583,Half,G4
411,Left,1,55,80,197.0,0.989583,Quarter,G3
414,Right,0,80,80,198.0,1.989583,Half,G#5
413,Left,1,60,80,198.0,0.989583,Quarter,C4
415,Left,1,63,82,199.0,0.989583,Quarter,D#4
416,Right,0,75,82,199.0,1.989583,Half,D#5
417,Left,1,68,85,200.0,0.989583,Quarter,G#4
418,Right,0,72,85,200.0,1.989583,Half,C5
420,Right,0,80,88,201.0,1.989583,Half,G#5
419,Left,1,59,88,201.0,0.989583,Quarter,B3
422,Left,1,62,91,202.0,0.989583,Quarter,D4
421,Right,0,74,91,202.0,1.989583,Half,D5
423,Right,0,71,94,203.0,1.989583,Half,B4
424,Left,1,68,94,203.0,0.989583,Quarter,G#4
425,Right,0,68,95,204.0,1.989583,Half,G#4
426,Left,1,47,95,204.0,0.989583,Quarter,B2
427,Left,1,50,95,205.0,0.989583,Quarter,D3
428,Right,0,62,95,205.0,1.989583,Half,D4
429,Right,0,59,95,206.0,1.989583,Half,B3
430,Left,1,56,95,206.0,0.989583,Quarter,G#3
432,Left,1,46,95,207.0,0.989583,Quarter,A#2
431,Right,0,67,95,207.0,1.989583,Half,G4
433,Right,0,62,95,208.0,1.989583,Half,D4
434,Left,1,50,95,208.0,0.989583,Quarter,D3
436,Right,0,58,95,209.0,1.989583,Half,A#3
435,Left,1,55,95,209.0,0.989583,Quarter,G3
438,Right,0,79,95,210.0,1.989583,Half,G5
437,Left,1,58,95,210.0,0.989583,Quarter,A#3
440,Right,0,74,95,211.0,1.989583,Half,D5
439,Left,1,62,95,211.0,0.989583,Quarter,D4
441,Right,0,70,95,212.0,1.989583,Half,A#4
442,Left,1,67,95,212.0,0.989583,Quarter,G4
444,Left,1,57,95,213.0,0.989583,Quarter,A3
443,Right,0,79,95,213.0,1.989583,Half,G5
445,Right,0,72,95,214.0,1.989583,Half,C5
446,Left,1,60,95,214.0,0.989583,Quarter,C4
448,Left,1,67,95,215.0,0.989583,Quarter,G4
447,Right,0,69,95,215.0,1.989583,Half,A4
449,Right,0,67,95,216.0,1.989583,Half,G4
450,Left,1,45,95,216.0,0.989583,Quarter,A2
452,Left,1,48,95,217.0,0.989583,Quarter,C3
451,Right,0,60,95,217.0,1.989583,Half,C4
454,Left,1,55,95,218.0,0.989583,Quarter,G3
453,Right,0,57,95,218.0,1.989583,Half,A3
455,Left,1,44,95,219.0,0.989583,Quarter,G#2
456,Right,0,65,95,219.0,1.989583,Half,F4
458,Right,0,60,95,220.0,1.989583,Half,C4
457,Left,1,48,95,220.0,0.989583,Quarter,C3
459,Right,0,56,95,221.0,1.989583,Half,G#3
460,Left,1,53,95,221.0,0.989583,Quarter,F3
461,Left,1,56,95,222.0,0.989583,Quarter,G#3
462,Right,0,77,95,222.0,1.989583,Half,F5
463,Right,0,72,95,223.0,1.989583,Half,C5
464,Left,1,60,95,223.0,0.989583,Quarter,C4
465,Right,0,68,95,224.0,1.989583,Half,G#4
466,Left,1,65,95,224.0,0.989583,Quarter,F4
467,Right,0,75,95,225.0,1.989583,Half,D#5
468,Left,1,55,95,225.0,0.989583,Quarter,G3
469,Right,0,72,95,226.0,1.989583,Half,C5
470,Left,1,60,95,226.0,0.989583,Quarter,C4
472,Left,1,63,95,227.0,0.989583,Quarter,D#4
471,Right,0,67,95,227.0,1.989583,Half,G4
474,Right,0,60,110,228.0,1.989583,Half,C5_C4
473,Left,1,54,110,228.0,1.989583,Half,F#3_F#2
477,Right,0,69,110,229.0,1.989583,Half,A4
478,Left,1,48,110,229.0,1.989583,Half,C3
479,Right,0,63,110,230.0,1.989583,Half,D#4
480,Left,1,51,110,230.0,1.989583,Half,D#3
483,Left,1,43,110,231.0,1.989583,Half,G3_G2
481,Right,0,72,110,231.0,1.989583,Half,C5_C4
485,Right,0,67,110,232.0,1.989583,Half,G4
486,Left,1,48,110,232.0,1.989583,Half,C3
487,Right,0,63,110,233.0,1.989583,Half,D#4
488,Left,1,51,110,233.0,1.989583,Half,D#3
489,Right,0,71,110,234.0,1.989583,Half,B4_B3
491,Left,1,55,110,234.0,1.989583,Half,G3_G2
494,Right,0,67,110,235.0,1.989583,Half,G4
493,Left,1,47,110,235.0,1.989583,Half,B2
495,Right,0,62,110,236.0,1.989583,Half,D4
496,Left,1,50,110,236.0,1.989583,Half,D3
498,Left,1,36,110,237.0,0.989583,Quarter,C3_C2
497,Right,0,60,110,237.0,1.989583,Half,C5_C4
502,Left,1,39,110,238.0,0.989583,Quarter,D#2
501,Right,0,67,110,238.0,1.989583,Half,G4
504,Right,0,63,110,239.0,1.989583,Half,D#4
503,Left,1,43,110,239.0,0.989583,Quarter,G2
505,Right,0,60,110,240.0,1.989583,Half,C4
506,Left,1,48,110,240.0,0.989583,Quarter,C3
507,Left,1,44,80,242.0,0.989583,Quarter,G#2_C3
509,Right,0,51,80,242.0,0.989583,Quarter,D#3
511,Left,1,44,80,243.0,0.989583,Quarter,G#2_C3
510,Right,0,51,80,243.0,0.989583,Quarter,D#3
515,Right,0,51,80,245.0,0.989583,Quarter,D#3
513,Left,1,44,80,245.0,0.989583,Quarter,G#2_C3
516,Left,1,48,80,246.0,0.989583,Quarter,G#2_C3
518,Right,0,51,80,246.0,0.989583,Quarter,D#3
520,Left,1,44,80,248.0,0.989583,Quarter,G#2_C3
519,Right,0,51,80,248.0,0.989583,Quarter,D#3
523,Left,1,44,80,249.0,0.989583,Quarter,G#2_C3
522,Right,0,51,80,249.0,0.989583,Quarter,D#3
525,Right,0,56,80,250.0,0.989583,Quarter,G#3
526,Left,1,44,80,251.0,0.989583,Quarter,G#2_D#3_C3
529,Left,1,44,81,252.0,0.989583,Quarter,G#2_D#3_C3
532,Right,0,60,83,253.0,0.989583,Quarter,C4
533,Left,1,44,85,254.0,0.989583,Quarter,G#2_D#3_C3
536,Left,1,44,87,255.0,0.989583,Quarter,G#2_D#3_C3
539,Right,0,63,89,256.0,0.989583,Quarter,D#4
540,Left,1,44,91,257.0,0.989583,Quarter,G#2_D#3_C3
543,Left,1,44,93,258.0,0.989583,Quarter,G#2_D#3_C3
546,Right,0,68,95,259.0,0.989583,Quarter,G#4
547,Left,1,44,97,260.0,0.989583,Quarter,G#2_D#3_C3
550,Left,1,44,99,261.0,0.989583,Quarter,G#2_D#3_C3
553,Right,0,72,101,262.0,0.989583,Quarter,C5
554,Left,1,51,103,263.0,0.989583,Quarter,G#2_D#3_C3
557,Left,1,51,105,264.0,0.989583,Quarter,G#2_D#3_C3
560,Right,0,75,107,265.0,0.989583,Quarter,D#5
561,Left,1,48,109,266.0,0.989583,Quarter,G#2_D#3_C3
564,Left,1,45,120,267.0,0.989583,Quarter,F#3_D#3_C3_A2
570,Right,0,78,120,268.0,0.010417,Unknown,F#5
574,Left,1,48,120,269.0,0.989583,Quarter,F#3_D#3_C3_A2
583,Left,1,45,120,270.0,0.989583,Quarter,F#3_D#3_C3_A2
588,Right,0,78,120,270.5,0.010417,Unknown,F#5
591,Right,0,80,120,271.25,0.010417,Unknown,G#5
594,Left,1,54,120,272.0,0.989583,Quarter,F#3_D#3_C3_A2
600,Right,0,77,120,272.5,0.510417,Eighth,F5
601,Right,0,78,120,272.75,0.239583,Sixteenth,F#5
603,Left,1,51,110,273.0,0.989583,Quarter,G3_D#3_A#2
602,Right,0,79,110,273.0,0.989583,Quarter,G5
606,Right,0,75,105,274.0,0.989583,Quarter,D#5
607,Left,1,46,99,275.0,0.989583,Quarter,G3_D#3_A#2
610,Right,0,70,99,275.0,1.989583,Half,A#4
611,Left,1,46,93,276.0,0.989583,Quarter,G#3_D3_A#2
614,Right,0,68,87,277.0,0.989583,Quarter,G#4
615,Right,0,65,81,278.0,0.989583,Quarter,F4
616,Left,1,56,81,278.0,0.989583,Quarter,G#3_D3_A#2
619,Right,0,55,80,279.0,0.989583,Quarter,G3_D#4
620,Left,1,51,80,279.0,0.989583,Quarter,D#3_D#2
623,Right,0,58,80,280.0,0.989583,Quarter,A#3
624,Right,0,55,80,281.0,0.989583,Quarter,G3
625,Left,1,51,80,282.0,0.989583,Quarter,D#3
626,Left,1,49,80,283.0,0.989583,Quarter,C#3
628,Left,1,46,80,284.0,0.989583,Quarter,A#2
627,Right,0,51,80,284.0,0.989583,Quarter,D#3
630,Left,1,48,80,285.0,0.989583,Quarter,G#2_C3
629,Right,0,51,80,285.0,0.989583,Quarter,D#3
632,Left,1,44,80,287.0,0.989583,Quarter,G#2_C3
633,Right,0,51,80,287.0,0.989583,Quarter,D#3
635,Left,1,44,80,288.0,0.989583,Quarter,G#2_C3
636,Right,0,51,80,288.0,0.989583,Quarter,D#3
640,Right,0,51,80,290.0,0.989583,Quarter,D#3
638,Left,1,48,80,290.0,0.989583,Quarter,G#2_C3
641,Left,1,44,80,291.0,0.989583,Quarter,G#2_C3
642,Right,0,51,80,291.0,0.989583,Quarter,D#3
644,Right,0,56,80,292.0,0.989583,Quarter,G#3
645,Left,1,44,80,293.0,0.989583,Quarter,G#2_D#3_C3
648,Left,1,48,81,294.0,0.989583,Quarter,G#2_D#3_C3
651,Right,0,60,83,295.0,0.989583,Quarter,C4
652,Left,1,48,85,296.0,0.989583,Quarter,G#2_D#3_C3
655,Left,1,44,87,297.0,0.989583,Quarter,G#2_D#3_C3
658,Right,0,63,89,298.0,0.989583,Quarter,D#4
659,Left,1,44,91,299.0,0.989583,Quarter,G#2_D#3_C3
662,Left,1,44,93,300.0,0.989583,Quarter,G#2_D#3_C3
665,Right,0,68,95,301.0,0.989583,Quarter,G#4
666,Left,1,44,97,302.0,0.989583,Quarter,G#2_D#3_C3
669,Left,1,44,99,303.0,0.989583,Quarter,G#2_D#3_C3
672,Right,0,72,101,304.0,0.989583,Quarter,C5
673,Left,1,44,103,305.0,0.989583,Quarter,G#2_D#3_C3
676,Left,1,44,105,306.0,0.989583,Quarter,G#2_D#3_C3
679,Right,0,75,107,307.0,0.989583,Quarter,D#5
680,Left,1,51,109,308.0,0.989583,Quarter,G#2_D#3_C3
683,Left,1,54,120,309.0,0.989583,Quarter,F#3_D#3_C3_A2
691,Right,0,78,120,310.5,0.010417,Unknown,F#5
693,Left,1,45,120,311.0,0.989583,Quarter,F#3_D#3_C3_A2
698,Right,0,80,120,311.25,0.010417,Unknown,G#5
705,Right,0,78,120,312.0,0.010417,Unknown,F#5
701,Left,1,51,120,312.0,0.989583,Quarter,F#3_D#3_C3_A2
712,Right,0,80,120,313.75,0.010417,Unknown,G#5
713,Left,1,45,120,314.0,0.989583,Quarter,F#3_D#3_C3_A2
719,Right,0,77,120,314.5,0.510417,Eighth,F5
720,Right,0,78,120,314.75,0.239583,Sixteenth,F#5
722,Left,1,55,120,315.0,0.989583,Quarter,G3_D#3_A#2
721,Right,0,79,120,315.0,0.989583,Quarter,G5
725,Right,0,75,110,316.0,0.989583,Quarter,D#5
726,Right,0,70,103,317.0,1.989583,Half,A#4
727,Left,1,51,103,317.0,0.989583,Quarter,G3_D#3_A#2
730,Left,1,56,96,318.0,0.989583,Quarter,G#3_D3_A#2
733,Right,0,68,88,319.0,0.989583,Quarter,G#4
734,Right,0,65,81,320.0,0.989583,Quarter,F4
735,Left,1,56,81,320.0,0.989583,Quarter,G#3_D3_A#2
738,Right,0,55,80,321.0,0.989583,Quarter,G3_D#4
740,Left,1,51,80,321.0,0.989583,Quarter,D#3_D#2
742,Right,0,58,80,322.0,0.989583,Quarter,A#3
743,Right,0,55,80,323.0,0.989583,Quarter,G3
744,Right,0,51,80,324.0,0.989583,Quarter,D#3
745,Left,1,58,80,326.0,0.989583,Quarter,D#3_C#4_A#3
748,Left,1,61,80,327.0,0.989583,Quarter,D#3_C#4_A#3
751,Left,1,61,80,329.0,0.989583,Quarter,D#3_C#4_A#3
754,Left,1,58,80,330.0,0.989583,Quarter,D#3_C#4_A#3
757,Left,1,61,80,332.0,0.989583,Quarter,D#3_C#4_A#3
760,Left,1,51,80,333.0,0.989583,Quarter,D#3_C#4_A#3
763,Right,0,77,80,334.0,0.989583,Quarter,F5
767,Right,0,75,80,335.0,0.989583,Quarter,D#5
764,Left,1,58,80,335.0,0.989583,Quarter,D#3_C#4_A#3
768,Left,1,51,80,336.0,0.989583,Quarter,D#3_C#4_A#3
771,Right,0,73,80,337.0,0.989583,Quarter,C#5
772,Right,0,72,80,338.0,0.989583,Quarter,C5
773,Left,1,58,80,338.0,0.989583,Quarter,D#3_C#4_A#3
776,Left,1,51,80,339.0,0.989583,Quarter,D#3_C#4_A#3
779,Right,0,70,80,340.0,0.989583,Quarter,A#4
780,Right,0,68,80,341.0,0.989583,Quarter,G#4
781,Left,1,51,80,341.0,0.989583,Quarter,D#3_C#4_A#3
784,Left,1,61,80,342.0,0.989583,Quarter,D#3_C#4_A#3
787,Right,0,67,80,343.0,0.989583,Quarter,G4
790,Right,0,68,80,344.0,0.989583,Quarter,G#4
788,Left,1,61,80,344.0,0.989583,Quarter,D#3_C#4_A#3
792,Left,1,61,80,345.0,0.989583,Quarter,D#3_C#4_A#3
795,Right,0,70,80,346.0,0.989583,Quarter,A#4
796,Right,0,72,80,347.0,0.989583,Quarter,C5
797,Left,1,61,80,347.0,0.989583,Quarter,D#3_C#4_A#3
800,Left,1,51,80,348.0,0.989583,Quarter,D#3_C#4_A#3
803,Right,0,73,80,349.0,0.989583,Quarter,C#5
804,Left,1,61,80,350.0,0.989583,Quarter,D#3_C#4_A#3
805,Right,0,75,80,350.0,0.989583,Quarter,D#5
808,Left,1,61,80,351.0,0.989583,Quarter,D#3_C#4_A#3
811,Right,0,77,80,352.0,0.989583,Quarter,F5
812,Left,1,51,80,353.0,0.989583,Quarter,D#3_C#4_A#3
813,Right,0,75,80,353.0,0.989583,Quarter,D#5
816,Left,1,61,80,354.0,0.989583,Quarter,D#3_C#4_A#3
819,Right,0,73,80,355.0,0.989583,Quarter,C#5
823,Right,0,72,80,356.0,0.989583,Quarter,C5
820,Left,1,61,80,356.0,0.989583,Quarter,D#3_C#4_A#3
824,Left,1,46,80,357.0,0.989583,Quarter,D#2_C#3_A#2
827,Right,0,70,81,358.0,0.989583,Quarter,A#4
829,Left,1,49,82,359.0,0.989583,Quarter,D#2_C#3_A#2
828,Right,0,68,82,359.0,0.989583,Quarter,G#4
832,Left,1,49,83,360.0,0.989583,Quarter,D#2_C#3_A#2
835,Right,0,67,84,361.0,0.989583,Quarter,G4
836,Left,1,49,85,362.0,0.989583,Quarter,D#2_C#3_A#2
838,Right,0,65,85,362.0,0.989583,Quarter,F4
840,Left,1,39,87,363.0,0.989583,Quarter,D#2_C#3_A#2
843,Right,0,63,88,364.0,0.989583,Quarter,D#4
845,Left,1,39,89,365.0,0.989583,Quarter,D#2_C#3_A#2
844,Right,0,61,89,365.0,0.989583,Quarter,C#4
848,Left,1,39,90,366.0,0.989583,Quarter,D#2_C#3_A#2
851,Right,0,60,91,367.0,0.989583,Quarter,C4
852,Right,0,59,92,368.0,0.989583,Quarter,B3
853,Left,1,39,92,368.0,0.989583,Quarter,D#2_C#3_A#2
856,Left,1,49,94,369.0,0.989583,Quarter,D#2_C#3_A#2
859,Right,0,58,95,370.0,0.989583,Quarter,A#3
860,Right,0,60,96,371.0,0.989583,Quarter,C4
861,Left,1,46,96,371.0,0.989583,Quarter,D#2_C#3_A#2
864,Left,1,39,97,372.0,0.989583,Quarter,D#2_C#3_A#2
867,Right,0,61,98,373.0,0.989583,Quarter,C#4
868,Right,0,55,99,374.0,0.989583,Quarter,G3
869,Left,1,46,99,374.0,0.989583,Quarter,D#2_C#3_A#2
872,Left,1,44,80,375.0,2.989583,DottedHalf,G#2_D#3_C#3
875,Right,0,58,80,375.0,2.989583,DottedHalf,G3_A#3
877,Left,1,48,80,378.0,0.989583,Quarter,G#2_D#3_C3
880,Right,0,56,80,378.0,0.989583,Quarter,G#3
881,Left,1,61,80,380.0,0.989583,Quarter,D#3_C#4_A#3
884,Left,1,61,80,381.0,0.989583,Quarter,D#3_C#4_A#3
887,Left,1,61,80,383.0,0.989583,Quarter,D#3_C#4_A#3
890,Left,1,58,80,384.0,0.989583,Quarter,D#3_C#4_A#3
893,Left,1,58,80,386.0,0.989583,Quarter,D#3_C#4_A#3
896,Left,1,61,80,387.0,0.989583,Quarter,D#3_C#4_A#3
899,Right,0,77,80,388.0,0.989583,Quarter,F5
900,Left,1,51,80,389.0,0.989583,Quarter,D#3_C#4_A#3
903,Right,0,75,80,389.0,0.989583,Quarter,D#5
904,Left,1,61,80,390.0,0.989583,Quarter,D#3_C#4_A#3
907,Right,0,73,80,391.0,0.989583,Quarter,C#5
911,Right,0,72,80,392.0,0.989583,Quarter,C5
908,Left,1,51,80,392.0,0.989583,Quarter,D#3_C#4_A#3
912,Left,1,51,80,393.0,0.989583,Quarter,D#3_C#4_A#3
915,Right,0,70,80,394.0,0.989583,Quarter,A#4
916,Right,0,68,80,395.0,0.989583,Quarter,G#4
917,Left,1,51,80,395.0,0.989583,Quarter,D#3_C#4_A#3
920,Left,1,51,80,396.0,0.989583,Quarter,D#3_C#4_A#3
923,Right,0,67,80,397.0,0.989583,Quarter,G4
924,Right,0,68,80,398.0,0.989583,Quarter,G#4
925,Left,1,61,80,398.0,0.989583,Quarter,D#3_C#4_A#3
928,Left,1,61,80,399.0,0.989583,Quarter,D#3_C#4_A#3
931,Right,0,70,80,400.0,0.989583,Quarter,A#4
933,Right,0,72,80,401.0,0.989583,Quarter,C5
932,Left,1,61,80,401.0,0.989583,Quarter,D#3_C#4_A#3
936,Left,1,51,80,402.0,0.989583,Quarter,D#3_C#4_A#3
939,Right,0,73,80,403.0,0.989583,Quarter,C#5
940,Right,0,75,80,404.0,0.989583,Quarter,D#5
941,Left,1,61,80,404.0,0.989583,Quarter,D#3_C#4_A#3
944,Left,1,61,80,405.0,0.989583,Quarter,D#3_C#4_A#3
947,Right,0,77,80,406.0,0.989583,Quarter,F5
949,Left,1,61,80,407.0,0.989583,Quarter,D#3_C#4_A#3
948,Right,0,75,80,407.0,0.989583,Quarter,D#5
952,Left,1,61,80,408.0,0.989583,Quarter,D#3_C#4_A#3
955,Right,0,73,80,409.0,0.989583,Quarter,C#5
956,Left,1,61,80,410.0,0.989583,Quarter,D#3_C#4_A#3
959,Right,0,72,80,410.0,0.989583,Quarter,C5
960,Left,1,49,80,411.0,0.989583,Quarter,D#2_C#3_A#2
963,Right,0,70,81,412.0,0.989583,Quarter,A#4
964,Left,1,49,82,413.0,0.989583,Quarter,D#2_C#3_A#2
967,Right,0,68,82,413.0,0.989583,Quarter,G#4
968,Left,1,39,83,414.0,0.989583,Quarter,D#2_C#3_A#2
971,Right,0,67,84,415.0,0.989583,Quarter,G4
974,Right,0,65,85,416.0,0.989583,Quarter,F4
972,Left,1,49,85,416.0,0.989583,Quarter,D#2_C#3_A#2
976,Left,1,39,87,417.0,0.989583,Quarter,D#2_C#3_A#2
979,Right,0,63,88,418.0,0.989583,Quarter,D#4
981,Left,1,39,89,419.0,0.989583,Quarter,D#2_C#3_A#2
980,Right,0,61,89,419.0,0.989583,Quarter,C#4
984,Left,1,39,90,420.0,0.989583,Quarter,D#2_C#3_A#2
987,Right,0,60,91,421.0,0.989583,Quarter,C4
990,Right,0,59,92,422.0,0.989583,Quarter,B3
988,Left,1,46,92,422.0,0.989583,Quarter,D#2_C#3_A#2
992,Left,1,39,94,423.0,0.989583,Quarter,D#2_C#3_A#2
995,Right,0,58,95,424.0,0.989583,Quarter,A#3
997,Left,1,49,96,425.0,0.989583,Quarter,D#2_C#3_A#2
996,Right,0,60,96,425.0,0.989583,Quarter,C4
1000,Left,1,46,97,426.0,0.989583,Quarter,D#2_C#3_A#2
1003,Right,0,61,98,427.0,0.989583,Quarter,C#4
1007,Right,0,55,99,428.0,0.989583,Quarter,G3
1004,Left,1,49,99,428.0,0.989583,Quarter,D#2_C#3_A#2
1010,Right,0,56,80,429.0,0.989583,Quarter,G#3
1008,Left,1,48,80,429.0,0.989583,Quarter,G#2_C3
1011,Left,1,42,80,430.0,0.989583,Quarter,F#2
1012,Right,0,54,80,430.0,0.989583,Quarter,F#3
1014,Left,1,43,80,431.0,0.989583,Quarter,G2
1013,Right,0,55,80,431.0,0.989583,Quarter,G3
1015,Left,1,36,80,432.0,1.989583,Half,C2
1016,Right,0,48,80,432.0,1.989583,Half,C3
1018,Right,0,51,80,433.0,1.989583,Half,D#3
1017,Left,1,43,80,433.0,1.989583,Half,G2
1020,Left,1,46,80,434.0,1.989583,Half,A#2
1019,Right,0,55,80,434.0,1.989583,Half,G3
1022,Left,1,48,80,435.0,1.989583,Half,C3
1021,Right,0,60,80,435.0,1.989583,Half,C4
1023,Left,1,51,80,436.0,1.989583,Half,D#3
1024,Right,0,63,80,436.0,1.989583,Half,D#4
1026,Left,1,55,80,437.0,1.989583,Half,G3
1025,Right,0,67,80,437.0,1.989583,Half,G4
1028,Left,1,60,80,438.0,0.989583,Quarter,C4
1027,Right,0,79,80,438.0,1.989583,Half,G5
1030,Right,0,75,80,439.0,1.989583,Half,D#5
1029,Left,1,63,80,439.0,0.989583,Quarter,D#4
1032,Left,1,67,80,440.0,0.989583,Quarter,G4
1031,Right,0,72,80,440.0,1.989583,Half,C5
1033,Right,0,79,80,441.0,1.989583,Half,G5
1034,Left,1,59,80,441.0,0.989583,Quarter,B3
1035,Right,0,74,80,442.0,1.989583,Half,D5
1036,Left,1,62,80,442.0,0.989583,Quarter,D4
1037,Right,0,71,80,443.0,1.989583,Half,B4
1038,Left,1,67,80,443.0,0.989583,Quarter,G4
1039,Right,0,67,80,444.0,1.989583,Half,G4
1040,Left,1,47,80,444.0,0.989583,Quarter,B2
1041,Left,1,50,80,445.0,0.989583,Quarter,D3
1042,Right,0,62,80,445.0,0.989583,Quarter,D4
1044,Left,1,55,80,446.0,0.989583,Quarter,G3
1043,Right,0,59,80,446.0,1.989583,Half,B3
1046,Left,1,46,80,447.0,0.989583,Quarter,A#2
1045,Right,0,67,80,447.0,1.989583,Half,G4
1048,Left,1,50,80,448.0,0.989583,Quarter,D3
1047,Right,0,62,80,448.0,1.989583,Half,D4
1049,Left,1,55,80,449.0,0.989583,Quarter,G3
1050,Right,0,58,80,449.0,1.989583,Half,A#3
1051,Left,1,58,80,450.0,0.989583,Quarter,A#3
1052,Right,0,79,80,450.0,1.989583,Half,G5
1054,Right,0,74,80,451.0,1.989583,Half,D5
1053,Left,1,62,80,451.0,0.989583,Quarter,D4
1056,Left,1,67,80,452.0,0.989583,Quarter,G4
1055,Right,0,70,80,452.0,1.989583,Half,A#4
1058,Left,1,57,80,453.0,0.989583,Quarter,A3
1057,Right,0,77,80,453.0,1.989583,Half,F5
1060,Left,1,60,80,454.0,0.989583,Quarter,C4
1059,Right,0,72,80,454.0,1.989583,Half,C5
1062,Right,0,69,80,455.0,1.989583,Half,A4
1061,Left,1,65,80,455.0,0.989583,Quarter,F4
1064,Right,0,65,80,456.0,1.989583,Half,F4
1063,Left,1,45,80,456.0,0.989583,Quarter,A2
1065,Right,0,60,80,457.0,1.989583,Half,C4
1066,Left,1,48,80,457.0,0.989583,Quarter,C3
1067,Left,1,53,80,458.0,0.989583,Quarter,F3
1068,Right,0,57,80,458.0,1.989583,Half,A3
1070,Right,0,65,80,459.0,1.989583,Half,F4
1069,Left,1,44,80,459.0,0.989583,Quarter,G#2
1072,Left,1,48,80,460.0,0.989583,Quarter,C3
1071,Right,0,60,80,460.0,1.989583,Half,C4
1074,Left,1,53,80,461.0,0.989583,Quarter,F3
1073,Right,0,56,80,461.0,1.989583,Half,G#3
1076,Left,1,56,80,462.0,0.989583,Quarter,G#3
1075,Right,0,77,80,462.0,1.989583,Half,F5
1077,Right,0,72,80,463.0,1.989583,Half,C5
1078,Left,1,60,80,463.0,0.989583,Quarter,C4
1080,Left,1,65,80,464.0,0.989583,Quarter,F4
1079,Right,0,68,80,464.0,1.989583,Half,G#4
1082,Left,1,55,80,465.0,0.989583,Quarter,G3
1081,Right,0,75,80,465.0,1.989583,Half,D#5
1083,Right,0,72,80,466.0,1.989583,Half,C5
1084,Left,1,60,80,466.0,0.989583,Quarter,C4
1085,Right,0,67,80,467.0,1.989583,Half,G4
1086,Left,1,63,80,467.0,0.989583,Quarter,D#4
1088,Left,1,48,110,468.0,1.989583,Half,C3_C2
1087,Right,0,75,110,468.0,1.989583,Half,D#5_D#4
1091,Left,1,43,110,469.0,1.989583,Half,G2
1092,Right,0,68,110,469.0,1.989583,Half,G#4
1093,Left,1,45,110,470.0,1.989583,Half,A2
1094,Right,0,67,110,470.0,1.989583,Half,G4
1097,Right,0,74,110,471.0,1.989583,Half,D5_D4
1095,Left,1,38,110,471.0,1.989583,Half,D3_D2
1099,Left,1,43,110,472.0,1.989583,Half,G2
1100,Right,0,70,110,472.0,1.989583,Half,A#4
1102,Right,0,67,110,473.0,1.989583,Half,G4
1101,Left,1,46,110,473.0,1.989583,Half,A#2
1105,Right,0,62,110,474.0,1.989583,Half,D5_D4
1103,Left,1,38,110,474.0,1.989583,Half,D3_D2
1108,Left,1,42,110,475.0,1.989583,Half,F#2
1107,Right,0,69,110,475.0,1.989583,Half,A4
1109,Right,0,66,110,476.0,1.989583,Half,F#4
1110,Left,1,45,110,476.0,1.989583,Half,A2
1111,Right,0,67,110,477.0,1.989583,Half,G4
1112,Left,1,43,110,477.0,1.989583,Half,G2_G1
1114,Left,1,39,110,478.0,0.989583,Quarter,D#2
1115,Left,1,38,110,479.0,0.989583,Quarter,D2
1116,Left,1,36,80,480.0,0.989583,Quarter,C2
1117,Right,0,48,80,480.5,1.989583,Half,C3
1118,Left,1,43,80,481.0,0.989583,Quarter,G2
1119,Right,0,51,80,481.5,1.989583,Half,D#3
1120,Left,1,46,80,482.0,0.989583,Quarter,A#2
1121,Right,0,55,80,482.5,1.989583,Half,G3
1122,Left,1,48,80,483.0,0.989583,Quarter,C3
1123,Right,0,60,80,483.5,1.989583,Half,C4
1124,Left,1,51,80,484.0,0.989583,Quarter,D#3
1125,Right,0,63,80,484.5,1.989583,Half,D#4
1126,Left,1,55,80,485.0,0.989583,Quarter,G3
1127,Right,0,67,80,485.5,1.989583,Half,G4
1128,Left,1,60,80,486.0,0.989583,Quarter,C4
1129,Right,0,79,80,486.5,1.989583,Half,G5
1130,Left,1,63,80,487.0,0.989583,Quarter,D#4
1131,Right,0,75,80,487.5,1.989583,Half,D#5
1132,Left,1,67,80,488.0,0.989583,Quarter,G4
1133,Right,0,72,80,488.5,1.989583,Half,C5
1134,Left,1,59,80,489.0,0.989583,Quarter,B3
1135,Right,0,79,80,489.5,1.989583,Half,G5
1136,Left,1,62,80,490.0,0.989583,Quarter,D4
1137,Right,0,74,80,490.5,1.989583,Half,D5
1138,Left,1,67,80,491.0,0.989583,Quarter,G4
1139,Right,0,71,80,491.5,1.989583,Half,B4
1140,Left,1,47,80,492.0,0.989583,Quarter,B2
1141,Right,0,67,80,492.5,1.989583,Half,G4
1142,Left,1,50,80,493.0,0.989583,Quarter,D3
1143,Right,0,62,80,493.5,1.989583,Half,D4
1144,Left,1,55,80,494.0,0.989583,Quarter,G3
1145,Right,0,59,80,494.5,1.989583,Half,B3
1146,Left,1,46,80,495.0,0.989583,Quarter,A#2
1147,Right,0,67,80,495.5,1.989583,Half,G4
1148,Left,1,50,80,496.0,0.989583,Quarter,D3
1149,Right,0,62,80,496.5,1.989583,Half,D4
1150,Left,1,55,80,497.0,0.989583,Quarter,G3
1151,Right,0,58,80,497.5,1.989583,Half,A#3
1152,Left,1,58,80,498.0,0.989583,Quarter,A#3
1153,Right,0,79,80,498.5,1.989583,Half,G5
1154,Left,1,62,80,499.0,0.989583,Quarter,D4
1155,Right,0,74,80,499.5,1.989583,Half,D5
1156,Left,1,67,80,500.0,0.989583,Quarter,G4
1157,Right,0,70,80,500.5,1.989583,Half,A#4
1158,Left,1,57,80,501.0,0.989583,Quarter,A3
1159,Right,0,77,80,501.5,1.989583,Half,F5
1160,Left,1,60,80,502.0,0.989583,Quarter,C4
1161,Right,0,72,80,502.5,1.989583,Half,C5
1162,Left,1,65,80,503.0,0.989583,Quarter,F4
1163,Right,0,69,80,503.5,1.989583,Half,A4
1164,Left,1,45,80,504.0,0.989583,Quarter,A2
1165,Right,0,65,80,504.5,1.989583,Half,F4
1166,Left,1,48,80,505.0,0.989583,Quarter,C3
1167,Right,0,60,80,505.5,1.989583,Half,C4
1168,Left,1,53,80,506.0,0.989583,Quarter,F3
1169,Right,0,57,80,506.5,1.989583,Half,A3
1170,Left,1,44,80,507.0,0.989583,Quarter,G#2
1171,Right,0,65,80,507.5,1.989583,Half,F4
1172,Left,1,48,80,508.0,0.989583,Quarter,C3
1173,Right,0,60,80,508.5,1.989583,Half,C4
1174,Left,1,53,80,509.0,0.989583,Quarter,F3
1175,Right,0,56,80,509.5,1.989583,Half,G#3
1176,Left,1,56,80,510.0,0.989583,Quarter,G#3
1177,Right,0,77,80,510.5,1.989583,Half,F5
1178,Left,1,60,80,511.0,0.989583,Quarter,C4
1179,Right,0,72,80,511.5,1.989583,Half,C5
1180,Left,1,65,80,512.0,0.989583,Quarter,F4
1181,Right,0,68,80,512.5,1.989583,Half,G#4
1182,Left,1,55,80,513.0,0.989583,Quarter,G3
1183,Right,0,75,80,513.5,1.989583,Half,D#5
1184,Left,1,60,80,514.0,0.989583,Quarter,C4
1185,Right,0,72,80,514.5,1.989583,Half,C5
1186,Left,1,63,80,515.0,0.989583,Quarter,D#4
1187,Right,0,67,80,515.5,1.989583,Half,G4
1188,Left,1,36,110,516.0,1.989583,Half,C3_C2
1190,Right,0,63,110,516.5,1.989583,Half,D#5_D#4
1192,Left,1,43,110,517.0,1.989583,Half,G2
1193,Right,0,68,110,517.5,1.989583,Half,G#4
1194,Left,1,45,110,518.0,1.989583,Half,A2
1195,Right,0,67,110,518.5,1.989583,Half,G4
1196,Left,1,50,110,519.0,1.989583,Half,D3_D2
1198,Right,0,62,110,519.5,1.989583,Half,D5_D4
1200,Left,1,43,110,520.0,1.989583,Half,G2
1201,Right,0,70,110,520.5,1.989583,Half,A#4
1202,Left,1,46,110,521.0,1.989583,Half,A#2
1203,Right,0,67,110,521.5,1.989583,Half,G4
1204,Left,1,38,110,522.0,1.989583,Half,D3_D2
1206,Right,0,74,110,522.5,1.989583,Half,D5_D4
1208,Left,1,42,110,523.0,1.989583,Half,F#2
1209,Right,0,69,110,523.5,1.989583,Half,A4
1210,Left,1,45,110,524.0,1.989583,Half,A2
1211,Right,0,66,110,524.5,1.989583,Half,F#4
1213,Right,0,67,110,525.0,1.989583,Half,G4
1212,Left,1,43,110,525.0,0.989583,Quarter,G2_G1
1215,Left,1,41,110,526.0,0.989583,Quarter,F2
1216,Left,1,40,110,527.0,0.989583,Quarter,E2
1217,Left,1,37,80,528.0,0.989583,Quarter,C#2
1218,Right,0,58,80,528.5,1.989583,Half,A#3
1219,Left,1,41,80,529.0,0.989583,Quarter,F2
1220,Right,0,53,80,529.5,1.989583,Half,F3
1221,Left,1,46,80,530.0,0.989583,Quarter,A#2
1222,Right,0,49,80,530.5,1.989583,Half,C#3
1223,Left,1,36,80,531.0,0.989583,Quarter,C2
1224,Right,0,58,80,531.5,1.989583,Half,A#3
1225,Left,1,40,80,532.0,0.989583,Quarter,E2
1226,Right,0,52,80,532.5,1.989583,Half,E3
1227,Left,1,46,80,533.0,0.989583,Quarter,A#2
1228,Right,0,48,80,533.5,1.989583,Half,C3
1229,Left,1,40,80,534.0,0.989583,Quarter,E2
1230,Right,0,70,80,534.5,1.989583,Half,A#4
1231,Left,1,43,80,535.0,0.989583,Quarter,G2
1232,Right,0,67,80,535.5,1.989583,Half,G4
1233,Left,1,48,80,536.0,0.989583,Quarter,C3
1234,Right,0,60,80,536.5,1.989583,Half,C4
1235,Left,1,41,80,537.0,0.989583,Quarter,F2
1236,Right,0,68,80,537.5,1.989583,Half,G#4
1237,Left,1,44,80,538.0,0.989583,Quarter,G#2
1238,Right,0,65,80,538.5,1.989583,Half,F4
1239,Left,1,48,80,539.0,0.989583,Quarter,C3
1240,Right,0,60,80,539.5,1.989583,Half,C4
1241,Left,1,36,80,540.0,0.989583,Quarter,C2
1242,Right,0,56,80,540.5,1.989583,Half,G#3
1243,Left,1,39,80,541.0,0.989583,Quarter,D#2
1244,Right,0,51,80,541.5,1.989583,Half,D#3
1245,Left,1,44,80,542.0,0.989583,Quarter,G#2
1246,Right,0,48,80,542.5,1.989583,Half,C3
1247,Left,1,35,80,543.0,0.989583,Quarter,B1
1248,Right,0,55,80,543.5,1.989583,Half,G3
1249,Left,1,38,80,544.0,0.989583,Quarter,D2
1250,Right,0,50,80,544.5,1.989583,Half,D3
1251,Left,1,43,80,545.0,0.989583,Quarter,G2
1252,Right,0,46,80,545.5,1.989583,Half,A#2
1253,Left,1,47,80,546.0,0.989583,Quarter,B2
1254,Right,0,77,80,546.5,1.989583,Half,F5
1255,Left,1,50,80,547.0,0.989583,Quarter,D3
1256,Right,0,74,80,547.5,1.989583,Half,D5
1257,Left,1,55,80,548.0,0.989583,Quarter,G3
1258,Right,0,67,80,548.5,1.989583,Half,G4
1259,Left,1,48,80,549.0,0.989583,Quarter,C3
1260,Right,0,75,80,549.5,1.989583,Half,D#5
1261,Left,1,51,80,550.0,0.989583,Quarter,D#3
1262,Right,0,72,80,550.5,1.989583,Half,C5
1263,Left,1,55,80,551.0,0.989583,Quarter,G3
1264,Right,0,67,80,551.5,1.989583,Half,G4
1265,Left,1,36,80,552.0,0.989583,Quarter,C2
1266,Right,0,48,80,552.5,1.989583,Half,C3
1267,Left,1,43,80,553.0,0.989583,Quarter,G2
1268,Right,0,51,80,553.5,1.989583,Half,D#3
1269,Left,1,46,80,554.0,0.989583,Quarter,A#2
1270,Right,0,55,80,554.5,1.989583,Half,G3
1271,Left,1,48,80,555.0,0.989583,Quarter,C3
1272,Right,0,60,80,555.5,1.989583,Half,C4
1273,Left,1,51,80,556.0,0.989583,Quarter,D#3
1274,Right,0,63,80,556.5,1.989583,Half,D#4
1275,Left,1,55,80,557.0,0.989583,Quarter,G3
1276,Right,0,67,80,557.5,1.989583,Half,G4
1277,Left,1,60,80,558.0,0.989583,Quarter,C4
1278,Right,0,80,80,558.5,1.989583,Half,G#5
1279,Left,1,63,80,559.0,0.989583,Quarter,D#4
1280,Right,0,75,81,559.5,1.989583,Half,D#5
1281,Left,1,68,81,560.0,0.989583,Quarter,G#4
1282,Right,0,72,81,560.5,1.989583,Half,C5
1283,Left,1,59,82,561.0,0.989583,Quarter,B3
1284,Right,0,80,82,561.5,1.989583,Half,G#5
1285,Left,1,62,82,562.0,0.989583,Quarter,D4
1286,Right,0,74,83,562.5,1.989583,Half,D5
1287,Left,1,68,83,563.0,0.989583,Quarter,G#4
1288,Right,0,71,83,563.5,1.989583,Half,B4
1289,Left,1,47,84,564.0,0.989583,Quarter,B2
1290,Right,0,68,84,564.5,1.989583,Half,G#4
1291,Left,1,50,84,565.0,0.989583,Quarter,D3
1292,Right,0,62,85,565.5,1.989583,Half,D4
1293,Left,1,56,85,566.0,0.989583,Quarter,G#3
1294,Right,0,59,85,566.5,1.989583,Half,B3
1295,Left,1,46,86,567.0,0.989583,Quarter,A#2
1296,Right,0,67,86,567.5,1.989583,Half,G4
1297,Left,1,50,86,568.0,0.989583,Quarter,D3
1298,Right,0,62,87,568.5,1.989583,Half,D4
1299,Left,1,55,87,569.0,0.989583,Quarter,G3
1300,Right,0,58,87,569.5,1.989583,Half,A#3
1301,Left,1,58,88,570.0,0.989583,Quarter,A#3
1302,Right,0,79,88,570.5,1.989583,Half,G5
1303,Left,1,62,88,571.0,0.989583,Quarter,D4
1304,Right,0,74,89,571.5,1.989583,Half,D5
1305,Left,1,67,89,572.0,0.989583,Quarter,G4
1306,Right,0,70,89,572.5,1.989583,Half,A#4
1307,Left,1,57,90,573.0,0.989583,Quarter,A3
1308,Right,0,79,90,573.5,1.989583,Half,G5
1309,Left,1,60,91,574.0,0.989583,Quarter,C4
1310,Right,0,72,91,574.5,1.989583,Half,C5
1311,Left,1,67,91,575.0,0.989583,Quarter,G4
1312,Right,0,69,92,575.5,1.989583,Half,A4
1313,Left,1,45,92,576.0,0.989583,Quarter,A2
1314,Right,0,67,92,576.5,1.989583,Half,G4
1315,Left,1,48,93,577.0,0.989583,Quarter,C3
1316,Right,0,60,93,577.5,1.989583,Half,C4
1317,Left,1,55,93,578.0,0.989583,Quarter,G3
1318,Right,0,57,94,578.5,1.989583,Half,A3
1319,Left,1,44,94,579.0,0.989583,Quarter,G#2
1320,Right,0,65,94,579.5,1.989583,Half,F4
1321,Left,1,48,95,580.0,0.989583,Quarter,C3
1322,Right,0,60,95,580.5,1.989583,Half,C4
1323,Left,1,53,95,581.0,0.989583,Quarter,F3
1324,Right,0,56,96,581.5,1.989583,Half,G#3
1325,Left,1,56,96,582.0,0.989583,Quarter,G#3
1326,Right,0,77,96,582.5,1.989583,Half,F5
1327,Left,1,60,97,583.0,0.989583,Quarter,C4
1328,Right,0,72,97,583.5,1.989583,Half,C5
1329,Left,1,65,97,584.0,0.989583,Quarter,F4
1330,Right,0,68,98,584.5,1.989583,Half,G#4
1331,Left,1,55,98,585.0,0.989583,Quarter,G3
1332,Right,0,75,98,585.5,1.989583,Half,D#5
1333,Left,1,60,99,586.0,0.989583,Quarter,C4
1334,Right,0,72,99,586.5,1.989583,Half,C5
1335,Left,1,63,99,587.0,0.989583,Quarter,D#4
1336,Right,0,67,80,587.5,1.989583,Half,G4
1337,Left,1,54,110,588.0,1.989583,Half,F#3_F#2
1339,Right,0,72,110,588.5,1.989583,Half,C5_C4
1341,Left,1,48,110,589.0,1.989583,Half,C3
1342,Right,0,69,110,589.5,1.989583,Half,A4
1343,Left,1,51,110,590.0,1.989583,Half,D#3
1344,Right,0,63,110,590.5,1.989583,Half,D#4
1345,Left,1,43,110,591.0,1.989583,Half,G3_G2
1347,Right,0,60,110,591.5,1.989583,Half,C5_C4
1349,Left,1,48,110,592.0,1.989583,Half,C3
1350,Right,0,67,110,592.5,1.989583,Half,G4
1351,Left,1,51,110,593.0,1.989583,Half,D#3
1352,Right,0,63,110,593.5,1.989583,Half,D#4
1353,Left,1,55,110,594.0,1.989583,Half,G3_G2
1355,Right,0,59,110,594.5,1.989583,Half,B4_B3
1357,Left,1,47,110,595.0,1.989583,Half,B2
1358,Right,0,67,110,595.5,1.989583,Half,G4
1359,Left,1,50,110,596.0,1.989583,Half,D3
1360,Right,0,62,110,596.5,1.989583,Half,D4
1361,Left,1,48,110,597.0,1.989583,Half,C3_C2
1363,Right,0,72,110,597.5,1.989583,Half,C5_C4
1365,Left,1,40,110,598.0,0.989583,Quarter,E2
1366,Right,0,67,110,598.5,1.989583,Half,G4
1367,Left,1,43,110,599.0,0.989583,Quarter,G2
1368,Right,0,64,110,599.5,1.989583,Half,E4
1369,Left,1,48,110,600.0,0.989583,Quarter,C3_C2
1371,Right,0,72,110,600.5,1.989583,Half,C5
1372,Left,1,41,110,601.0,0.989583,Quarter,F2
1373,Right,0,68,110,601.5,1.989583,Half,G#4
1374,Left,1,44,110,602.0,0.989583,Quarter,G#2
1375,Right,0,65,110,602.5,1.989583,Half,F4
1376,Left,1,48,110,603.0,0.989583,Quarter,C3_C2
1378,Right,0,72,110,603.5,1.989583,Half,C5
1379,Left,1,43,110,604.0,0.989583,Quarter,G2
1380,Right,0,70,110,604.5,1.989583,Half,A#4
1381,Left,1,46,110,605.0,0.989583,Quarter,A#2
1382,Right,0,67,110,605.5,1.989583,Half,G4
1383,Left,1,48,110,606.0,0.989583,Quarter,C3_C2
1385,Right,0,72,110,606.5,1.989583,Half,C5
1386,Left,1,41,110,607.0,0.989583,Quarter,F2
1387,Right,0,68,110,607.5,1.989583,Half,G#4
1388,Left,1,44,110,608.0,0.989583,Quarter,G#2
1389,Right,0,65,80,608.5,1.989583,Half,F4
1390,Left,1,67,120,609.0,0.989583,Quarter,G4_G3
1392,Right,0,84,120,609.5,1.989583,Half,C6_C5
1394,Left,1,52,120,610.0,0.989583,Quarter,E4_E3
1396,Right,0,76,120,610.5,1.989583,Half,E5
1397,Left,1,48,120,611.0,0.989583,Quarter,C4_C3
1399,Right,0,79,120,611.5,1.989583,Half,G5
1400,Left,1,56,120,612.0,0.989583,Quarter,G#4_G#3
1402,Right,0,84,120,612.5,1.989583,Half,C6_C5
1404,Left,1,65,120,613.0,0.989583,Quarter,F4_F3
1406,Right,0,77,120,613.5,1.989583,Half,F5
1407,Left,1,48,120,614.0,0.989583,Quarter,C4_C3
1409,Right,0,80,120,614.5,1.989583,Half,G#5
1410,Left,1,58,120,615.0,0.989583,Quarter,A#4_A#3
1412,Right,0,72,120,615.5,1.989583,Half,C6_C5
1414,Left,1,67,120,616.0,0.989583,Quarter,G4_G3
1416,Right,0,79,120,616.5,1.989583,Half,G5
1417,Left,1,60,120,617.0,0.989583,Quarter,C4_C3
1419,Right,0,82,120,617.5,1.989583,Half,A#5
1420,Left,1,56,120,618.0,0.989583,Quarter,G#4_G#3
1422,Right,0,84,120,618.5,1.989583,Half,C6_C5
1424,Left,1,53,120,619.0,0.989583,Quarter,F4_F3
1426,Right,0,77,120,619.5,1.989583,Half,F5
1427,Left,1,48,120,620.0,0.989583,Quarter,C4_C3
1429,Right,0,80,120,620.5,1.989583,Half,G#5
1430,Left,1,48,120,621.0,0.989583,Quarter,C4_C3
1432,Right,0,84,120,621.5,1.989583,Half,C6
1433,Left,1,67,120,622.0,0.989583,Quarter,G4
1434,Right,0,79,120,622.5,1.989583,Half,G5
1435,Left,1,64,120,623.0,0.989583,Quarter,E4
1436,Right,0,76,120,623.5,1.989583,Half,E5
1437,Left,1,60,120,624.0,0.989583,Quarter,C4
1438,Right,0,72,120,624.5,1.989583,Half,C5
1439,Left,1,55,120,625.0,0.989583,Quarter,G3
1440,Right,0,67,120,625.5,1.989583,Half,G4
1441,Left,1,52,120,626.0,0.989583,Quarter,E3
1442,Right,0,64,120,626.5,1.989583,Half,E4
1443,Left,1,48,120,627.0,0.989583,Quarter,C3
1444,Right,0,60,120,627.5,1.989583,Half,C4
1445,Left,1,43,120,628.0,0.989583,Quarter,G2
1446,Right,0,55,120,628.5,1.989583,Half,G3
1447,Left,1,40,120,629.0,0.989583,Quarter,E2
1448,Right,0,52,120,629.5,2.989583,DottedHalf,E3
1449,Left,1,36,120,630.0,0.989583,Quarter,C2
1450,Right,0,48,120,630.5,2.989583,DottedHalf,C3
1451,Left,1,43,120,631.0,0.989583,Quarter,G2
1452,Right,0,55,120,631.5,2.989583,DottedHalf,G3
1453,Left,1,40,120,632.0,0.989583,Quarter,E2
1454,Right,0,52,120,632.5,1.489583,DottedQuarter,E3
1455,Left,1,36,120,633.0,8.989583,Unknown,C2
1456,Right,0,48,120,634.0,7.989583,Unknown,C3
1457,Right,0,48,1,645.0,0.989583,Quarter,C3
