,hand,channel,note,velocity,start_beat,duration,note_value,chord
0,Right,0,60,80,0.5,0.489583,Quarter,C4
1,Right,0,65,80,1.0,0.489583,Quarter,F4
2,Right,0,68,81,1.5,0.489583,Quarter,G#4
3,Right,0,72,81,2.0,0.489583,Quarter,C5
4,Right,0,77,82,2.5,0.489583,Quarter,F5
5,Right,0,80,99,3.0,0.739583,DottedQuarter,G#5
6,Left,1,53,83,3.5,0.489583,Quarter,G#3_F3_C4
9,Right,0,79,84,3.75,0.15625,Triplet,G5
10,Right,0,77,84,3.833333,0.15625,Triplet,F5
11,Right,0,76,84,3.916667,0.072917,TripletSixteenth,E5
12,Right,0,77,84,4.0,0.489583,Quarter,F5
13,Left,1,53,84,4.0,0.489583,Quarter,G#3_F3_C4
16,Left,1,53,84,4.5,0.489583,Quarter,G#3_F3_C4
19,Left,1,52,85,5.0,0.489583,Quarter,G3_E3_C4_A#3
23,Right,0,67,85,5.0,0.489583,Quarter,G4
24,Right,0,72,86,5.5,0.489583,Quarter,C5
25,Right,0,76,86,6.0,0.489583,Quarter,E5
26,Right,0,79,87,6.5,0.489583,Quarter,G5
27,Right,0,82,101,7.0,0.739583,DottedQuarter,A#5
28,Left,1,52,88,7.5,0.489583,Quarter,G3_E3_C4_A#3
32,Right,0,80,89,7.75,0.15625,Triplet,G#5
33,Right,0,79,89,7.833333,0.15625,Triplet,G5
34,Right,0,77,89,7.916667,0.072917,TripletSixteenth,F5
35,Left,1,55,89,8.0,0.489583,Quarter,G3_E3_C4_A#3
39,Right,0,79,89,8.0,0.489583,Quarter,G5
40,Left,1,58,89,8.5,0.489583,Quarter,G3_E3_C4_A#3
44,Right,0,72,110,9.0,0.15625,Triplet,C5
45,Right,0,80,110,9.083333,0.65625,TiedQuarter-Sixteenth,G#5
46,Left,1,60,100,9.5,0.489583,Quarter,G#3_F3_C4
49,Right,0,79,100,9.75,0.15625,Triplet,G5
50,Right,0,77,100,9.833333,0.15625,Triplet,F5
51,Right,0,76,100,9.916667,0.072917,TripletSixteenth,E5
52,Right,0,77,100,10.0,0.489583,Quarter,F5
53,Left,1,60,100,10.0,0.489583,Quarter,G#3_F3_C4
56,Left,1,53,100,10.5,0.489583,Quarter,G#3_F3_C4
59,Right,0,72,110,11.0,0.15625,Triplet,C5
60,Right,0,82,110,11.083333,0.65625,TiedQuarter-Sixteenth,A#5
61,Left,1,55,100,11.5,0.489583,Quarter,G3_E4_A#3
64,Right,0,80,100,11.75,0.15625,Triplet,G#5
65,Right,0,79,100,11.833333,0.15625,Triplet,G5
66,Right,0,77,100,11.916667,0.072917,TripletSixteenth,F5
67,Right,0,79,100,12.0,0.489583,Quarter,G5
68,Left,1,64,100,12.0,0.489583,Quarter,G3_E4_A#3
71,Left,1,64,100,12.5,0.489583,Quarter,G3_E4_A#3
74,Right,0,68,120,13.0,0.989583,Half,G#4
75,Right,0,77,120,13.083333,0.90625,Half,F5
76,Right,0,80,120,13.166667,0.822917,DottedQuarter,G#5
77,Right,0,84,120,13.25,0.739583,DottedQuarter,C6
78,Left,1,60,120,13.5,0.489583,Quarter,G#3_F4_C4
81,Right,0,82,120,14.0,0.239583,Eighth,A#5
82,Right,0,80,118,14.25,0.239583,Eighth,G#5
86,Right,0,79,115,14.5,0.239583,Eighth,G5
83,Left,1,58,100,14.5,0.489583,Quarter,G4_C#4_A#3
87,Right,0,77,112,14.75,0.239583,Eighth,F5
88,Right,0,76,109,15.0,0.15625,Triplet,E5
89,Right,0,77,108,15.083333,0.15625,Triplet,F5
90,Right,0,79,107,15.166667,0.15625,Triplet,G5
91,Right,0,77,106,15.25,0.739583,DottedQuarter,F5
93,Right,0,76,91,16.5,0.489583,Quarter,E5
92,Left,1,67,80,16.5,0.489583,Quarter,G4_C4
95,Left,1,43,80,18.5,0.489583,Quarter,G2
96,Left,1,48,80,19.0,0.489583,Quarter,C3
97,Left,1,51,80,19.5,0.489583,Quarter,D#3
98,Left,1,55,80,20.0,0.489583,Quarter,G3
99,Left,1,60,80,20.5,0.489583,Quarter,C4
100,Left,1,63,80,21.0,0.739583,DottedQuarter,D#4
101,Left,1,62,80,21.75,0.15625,Triplet,D4
102,Left,1,60,80,21.833333,0.15625,Triplet,C4
103,Left,1,59,80,21.916667,0.072917,TripletSixteenth,B3
104,Left,1,60,80,22.0,0.489583,Quarter,C4
105,Left,1,60,80,22.5,0.489583,Quarter,C4
107,Left,1,65,80,23.0,1.989583,Whole,F4_C4
106,Right,0,68,80,23.0,2.739583,Unknown,G#4
109,Right,0,75,80,23.75,0.15625,Triplet,D#5
110,Right,0,73,80,23.833333,0.15625,Triplet,C#5
111,Right,0,72,80,23.916667,0.072917,TripletSixteenth,C5
112,Right,0,73,80,24.0,0.489583,Quarter,C#5
113,Right,0,73,80,24.5,0.489583,Quarter,C#5
115,Left,1,65,80,25.0,1.989583,Whole,F4_A#3
114,Right,0,73,80,25.0,2.739583,Unknown,C#5
117,Right,0,70,80,25.75,0.15625,Triplet,A#4
118,Right,0,68,80,25.833333,0.15625,Triplet,G#4
119,Right,0,67,80,25.916667,0.072917,TripletSixteenth,G4
120,Right,0,68,80,26.0,0.489583,Quarter,G#4
121,Right,0,68,80,26.5,0.489583,Quarter,G#4
123,Right,0,67,80,27.0,1.989583,Whole,G4
122,Left,1,63,80,27.0,1.989583,Whole,D#4_A#3
125,Right,0,75,80,27.75,0.15625,Triplet,D#5
126,Right,0,73,80,27.833333,0.15625,Triplet,C#5
127,Right,0,72,80,27.916667,0.072917,TripletSixteenth,C5
128,Right,0,73,80,28.0,0.489583,Quarter,C#5
129,Right,0,73,80,28.5,0.489583,Quarter,C#5
131,Right,0,68,80,29.0,1.989583,Whole,G#4
130,Left,1,56,80,29.0,1.989583,Whole,G#3_D#4
133,Right,0,73,80,29.75,0.15625,Triplet,C#5
134,Right,0,72,80,29.833333,0.15625,Triplet,C5
135,Right,0,71,80,29.916667,0.072917,TripletSixteenth,B4
136,Right,0,72,80,30.0,0.489583,Quarter,C5
137,Right,0,72,80,30.5,0.489583,Quarter,C5
139,Right,0,72,80,31.0,0.489583,Quarter,C5
138,Left,1,61,80,31.0,0.989583,Half,C#4
140,Right,0,70,80,31.5,0.989583,Half,A#4
141,Left,1,62,80,32.0,0.989583,Half,D4
142,Right,0,68,80,32.5,0.489583,Quarter,G#4
144,Left,1,63,90,33.0,0.489583,Quarter,D#4
143,Right,0,67,90,33.0,0.489583,Quarter,G4
145,Right,0,75,91,33.5,0.489583,Quarter,D#5
146,Right,0,73,92,34.0,0.489583,Quarter,C#5
147,Right,0,72,93,34.5,0.989583,Half,C5
148,Left,1,60,93,34.5,0.489583,Quarter,D#4_C4
150,Left,1,61,94,35.0,0.989583,Half,F4_C#4
152,Right,0,70,96,35.5,0.989583,Half,A#4
153,Left,1,65,97,36.0,0.989583,Half,F4_D4
155,Right,0,68,98,36.5,0.489583,Quarter,G#4
156,Left,1,63,99,37.0,0.489583,Quarter,D#4
157,Right,0,67,99,37.0,0.489583,Quarter,G4
158,Right,0,75,110,37.5,0.489583,Quarter,D#5_D#4
160,Right,0,73,110,38.0,0.489583,Quarter,C#5_C#4
162,Right,0,72,110,38.5,0.989583,Half,C5_C4
164,Left,1,48,110,38.5,0.489583,Quarter,D#3_C3
166,Left,1,49,110,39.0,0.989583,Half,F3_C#3
168,Right,0,70,110,39.5,0.989583,Half,A#4_A#3
170,Left,1,50,110,40.0,0.989583,Half,F3_D3
172,Right,0,68,110,40.5,0.489583,Quarter,G#4_G#3
174,Right,0,55,110,41.0,0.489583,Quarter,G4_G3
176,Left,1,51,110,41.0,0.239583,Eighth,D#3
177,Left,1,63,80,41.25,0.239583,Eighth,D#4
178,Left,1,51,80,41.5,0.239583,Eighth,D#3
179,Left,1,63,80,41.75,0.239583,Eighth,D#4
180,Left,1,51,80,42.0,0.239583,Eighth,D#3
181,Left,1,63,80,42.25,0.239583,Eighth,D#4
183,Right,0,76,80,42.5,0.489583,Quarter,E5
182,Left,1,51,80,42.5,0.239583,Eighth,D#3
184,Left,1,63,80,42.75,0.239583,Eighth,D#4
185,Left,1,51,80,43.0,0.239583,Eighth,D#3
186,Right,0,75,80,43.0,0.489583,Quarter,D#5
187,Left,1,63,80,43.25,0.239583,Eighth,D#4
189,Left,1,51,80,43.5,0.239583,Eighth,D#3
188,Right,0,73,80,43.5,0.489583,Quarter,C#5
190,Left,1,63,80,43.75,0.239583,Eighth,D#4
191,Left,1,51,80,44.0,0.239583,Eighth,D#3
192,Right,0,70,80,44.0,0.489583,Quarter,A#4
193,Left,1,63,80,44.25,0.239583,Eighth,D#4
195,Left,1,51,80,44.5,0.239583,Eighth,D#3
194,Right,0,67,80,44.5,0.489583,Quarter,G4
196,Left,1,63,80,44.75,0.239583,Eighth,D#4
198,Left,1,51,110,45.0,0.989583,Quarter,D#3_C#4
197,Right,0,64,110,45.0,0.739583,DottedQuarter,E4
200,Left,1,51,100,45.5,0.489583,Quarter,D#3
201,Right,0,63,100,45.75,0.239583,Eighth,D#4
202,Left,1,51,100,46.0,0.489583,Eighth,D#3_C4
204,Right,0,68,100,46.0,0.489583,Quarter,G#4
205,Left,1,63,100,46.25,0.239583,Eighth,D#4
207,Left,1,51,80,46.5,0.239583,Eighth,D#3
206,Right,0,76,80,46.5,0.489583,Quarter,E5
208,Left,1,63,80,46.75,0.239583,Eighth,D#4
209,Left,1,51,80,47.0,0.239583,Eighth,D#3
210,Right,0,75,80,47.0,0.489583,Quarter,D#5
211,Left,1,63,80,47.25,0.239583,Eighth,D#4
212,Right,0,73,80,47.5,0.489583,Quarter,C#5
213,Left,1,51,80,47.5,0.239583,Eighth,D#3
214,Left,1,63,80,47.75,0.239583,Eighth,D#4
215,Right,0,70,80,48.0,0.489583,Quarter,A#4
216,Left,1,51,80,48.0,0.239583,Eighth,D#3
217,Left,1,63,80,48.25,0.239583,Eighth,D#4
218,Left,1,51,80,48.5,0.239583,Eighth,D#3
219,Right,0,67,80,48.5,0.489583,Quarter,G4
220,Left,1,63,80,48.75,0.239583,Eighth,D#4
223,Right,0,64,110,49.0,0.739583,DottedQuarter,E4
221,Left,1,51,110,49.0,0.989583,Quarter,D#3_C#4
224,Left,1,51,100,49.5,0.489583,Quarter,D#3
225,Right,0,63,100,49.75,0.239583,Eighth,D#4
227,Right,0,68,100,50.0,0.489583,Quarter,G#4
226,Left,1,60,100,50.0,0.489583,Quarter,D#3_C4
229,Left,1,63,100,50.25,0.239583,Eighth,D#4
230,Right,0,76,100,50.5,0.489583,Quarter,E5
231,Left,1,51,100,50.5,0.239583,Eighth,D#3
232,Left,1,63,100,50.75,0.239583,Eighth,D#4
234,Left,1,51,100,51.0,0.239583,Eighth,D#3
233,Right,0,75,100,51.0,0.489583,Quarter,D#5
235,Left,1,63,100,51.25,0.239583,Eighth,D#4
236,Right,0,73,100,51.5,0.489583,Quarter,C#5
237,Left,1,51,100,51.5,0.239583,Eighth,D#3
238,Left,1,63,100,51.75,0.239583,Eighth,D#4
240,Right,0,70,100,52.0,0.489583,Quarter,A#4
239,Left,1,61,100,52.0,0.239583,Eighth,C#4
241,Left,1,63,100,52.25,0.239583,Eighth,D#4
242,Left,1,61,100,52.5,0.239583,Eighth,C#4
243,Right,0,67,100,52.5,0.489583,Quarter,G4
244,Left,1,63,100,52.75,0.239583,Eighth,D#4
245,Left,1,60,100,53.0,0.239583,Eighth,C4
247,Right,0,67,100,53.25,0.239583,Eighth,G4
246,Left,1,63,100,53.25,0.239583,Eighth,D#4
249,Right,0,70,100,53.5,0.239583,Eighth,A#4
248,Left,1,60,100,53.5,0.239583,Eighth,C4
251,Right,0,68,100,53.75,0.239583,Eighth,G#4
250,Left,1,63,100,53.75,0.239583,Eighth,D#4
252,Left,1,55,100,54.0,0.239583,Eighth,G3
254,Right,0,69,100,54.25,0.239583,Eighth,A4
253,Left,1,63,100,54.25,0.239583,Eighth,D#4
255,Left,1,55,100,54.5,0.239583,Eighth,G3
256,Right,0,72,100,54.5,0.239583,Eighth,C5
257,Left,1,63,100,54.75,0.239583,Eighth,D#4
258,Right,0,70,100,54.75,0.239583,Eighth,A#4
259,Left,1,56,100,55.0,0.239583,Eighth,G#3
260,Left,1,63,100,55.25,0.239583,Eighth,D#4
261,Right,0,71,100,55.25,0.239583,Eighth,B4
263,Left,1,56,100,55.5,0.239583,Eighth,G#3
262,Right,0,73,100,55.5,0.239583,Eighth,C#5
265,Left,1,63,100,55.75,0.239583,Eighth,D#4
264,Right,0,72,100,55.75,0.239583,Eighth,C5
266,Left,1,53,100,56.0,0.239583,Eighth,F3
267,Right,0,74,100,56.25,0.239583,Eighth,D5
268,Left,1,62,100,56.25,0.239583,Eighth,D4
269,Right,0,80,100,56.5,0.239583,Eighth,G#5
270,Left,1,56,100,56.5,0.239583,Eighth,G#3
272,Right,0,74,100,56.75,0.239583,Eighth,D5
271,Left,1,62,100,56.75,0.239583,Eighth,D4
273,Left,1,51,100,57.0,0.239583,Eighth,D#3
274,Right,0,75,100,57.0,0.489583,Quarter,D#5
275,Left,1,63,100,57.25,0.239583,Eighth,D#4
276,Left,1,55,100,57.5,0.239583,Eighth,G3
277,Left,1,63,100,57.75,0.239583,Eighth,D#4
278,Left,1,53,100,58.0,0.239583,Eighth,F3
280,Right,0,74,100,58.25,0.239583,Eighth,D5
279,Left,1,62,100,58.25,0.239583,Eighth,D4
281,Right,0,80,100,58.5,0.239583,Eighth,G#5
282,Left,1,56,100,58.5,0.239583,Eighth,G#3
283,Right,0,74,100,58.75,0.239583,Eighth,D5
284,Left,1,62,100,58.75,0.239583,Eighth,D4
285,Left,1,51,100,59.0,0.239583,Eighth,D#3
286,Right,0,75,100,59.0,0.489583,Quarter,D#5
287,Left,1,63,100,59.25,0.239583,Eighth,D#4
288,Left,1,55,100,59.5,0.239583,Eighth,G3
289,Left,1,63,100,59.75,0.239583,Eighth,D#4
290,Left,1,49,100,60.0,0.239583,Eighth,C#3
291,Right,0,79,100,60.25,0.239583,Eighth,G5
292,Left,1,58,100,60.25,0.239583,Eighth,A#3
294,Right,0,88,100,60.5,0.239583,Eighth,E6
293,Left,1,52,100,60.5,0.239583,Eighth,E3
296,Right,0,79,100,60.75,0.239583,Eighth,G5
295,Left,1,58,100,60.75,0.239583,Eighth,A#3
297,Left,1,51,100,61.0,0.239583,Eighth,D#3
298,Right,0,80,100,61.0,0.489583,Quarter,G#5
299,Left,1,56,100,61.166667,0.239583,Eighth,G#3
300,Left,1,55,100,61.5,0.239583,Eighth,G3
301,Left,1,56,100,61.75,0.239583,Eighth,G#3
302,Left,1,49,100,62.0,0.239583,Eighth,C#3
303,Left,1,58,100,62.25,0.239583,Eighth,A#3
304,Right,0,79,100,62.25,0.239583,Eighth,G5
306,Right,0,88,100,62.5,0.239583,Eighth,E6
305,Left,1,52,100,62.5,0.239583,Eighth,E3
308,Right,0,79,100,62.75,0.239583,Eighth,G5
307,Left,1,58,100,62.75,0.239583,Eighth,A#3
309,Left,1,48,100,63.0,0.239583,Eighth,C3
311,Left,1,56,100,63.25,0.239583,Eighth,G#3
310,Right,0,79,100,63.25,0.239583,Eighth,G5
312,Left,1,51,101,63.5,0.239583,Eighth,D#3
313,Right,0,82,101,63.5,0.239583,Eighth,A#5
315,Left,1,56,101,63.75,0.239583,Eighth,G#3
314,Right,0,80,101,63.75,0.239583,Eighth,G#5
316,Left,1,44,102,64.0,0.239583,Eighth,G#2
318,Left,1,55,103,64.25,0.239583,Eighth,G3
317,Right,0,81,103,64.25,0.239583,Eighth,A5
320,Left,1,51,103,64.5,0.239583,Eighth,D#3
319,Right,0,84,103,64.5,0.239583,Eighth,C6
322,Right,0,82,104,64.75,0.239583,Eighth,A#5
321,Left,1,55,104,64.75,0.239583,Eighth,G3
323,Left,1,44,105,65.0,0.239583,Eighth,G#2
325,Right,0,83,105,65.25,0.239583,Eighth,B5
324,Left,1,56,105,65.25,0.239583,Eighth,G#3
327,Right,0,85,106,65.5,0.239583,Eighth,C#6
326,Left,1,51,106,65.5,0.239583,Eighth,D#3
328,Right,0,84,106,65.75,0.239583,Eighth,C6
329,Left,1,56,106,65.75,0.239583,Eighth,G#3
330,Left,1,46,107,66.0,0.239583,Eighth,A#2
331,Left,1,58,108,66.25,0.239583,Eighth,A#3
332,Right,0,84,108,66.25,0.239583,Eighth,C6
333,Left,1,51,108,66.5,0.239583,Eighth,D#3
334,Right,0,87,108,66.5,0.239583,Eighth,D#6
335,Left,1,58,109,66.75,0.239583,Eighth,A#3
336,Right,0,85,109,66.75,0.239583,Eighth,C#6
337,Left,1,48,110,67.0,0.489583,Quarter,C3
338,Right,0,86,110,67.25,0.239583,Eighth,D6
339,Right,0,89,109,67.5,0.239583,Eighth,F6
340,Left,1,51,109,67.5,0.989583,Half,D#3
341,Right,0,87,109,67.75,0.239583,Eighth,D#6
342,Right,0,85,108,68.0,0.239583,Eighth,C#6
343,Right,0,84,107,68.25,0.239583,Eighth,C6
344,Right,0,82,107,68.5,0.239583,Eighth,A#5
345,Left,1,56,107,68.5,0.489583,Quarter,G#3
346,Right,0,80,106,68.75,0.239583,Eighth,G#5
348,Left,1,49,105,69.0,0.489583,Quarter,C#3
347,Right,0,79,105,69.0,0.239583,Eighth,G5
349,Right,0,77,105,69.25,0.239583,Eighth,F5
350,Right,0,75,104,69.5,0.239583,Eighth,D#5
351,Left,1,53,114,69.5,0.989583,Half,F3
352,Right,0,73,104,69.75,0.239583,Eighth,C#5
353,Right,0,72,103,70.0,0.239583,Eighth,C5
354,Right,0,70,102,70.25,0.239583,Eighth,A#4
355,Right,0,68,102,70.5,0.239583,Eighth,G#4
356,Left,1,58,102,70.5,0.489583,Quarter,A#3
357,Right,0,67,101,70.75,0.239583,Eighth,G4
358,Left,1,51,80,71.0,0.489583,Quarter,D#3
359,Right,0,65,80,71.0,0.239583,Eighth,F4
360,Right,0,63,80,71.25,0.239583,Eighth,D#4
362,Left,1,56,80,71.5,0.989583,Half,G#3
361,Right,0,62,80,71.5,0.239583,Eighth,D4
363,Right,0,63,80,71.75,0.239583,Eighth,D#4
364,Right,0,62,80,72.0,0.239583,Eighth,D4
365,Right,0,63,80,72.25,0.239583,Eighth,D#4
366,Right,0,62,80,72.5,0.239583,Eighth,D4
367,Left,1,60,80,72.5,0.489583,Quarter,C4
368,Right,0,63,80,72.75,0.239583,Eighth,D#4
370,Left,1,61,80,73.0,0.489583,Quarter,C#4
369,Right,0,62,80,73.0,0.239583,Eighth,D4
371,Right,0,63,80,73.25,0.239583,Eighth,D#4
373,Right,0,65,80,73.5,0.239583,Eighth,F4
372,Left,1,58,80,73.5,0.489583,Quarter,A#3
374,Right,0,63,80,73.75,0.239583,Eighth,D#4
375,Left,1,55,80,74.0,0.489583,Quarter,G3
376,Right,0,62,80,74.0,0.239583,Eighth,D4
377,Right,0,63,80,74.25,0.239583,Eighth,D#4
378,Left,1,49,80,74.5,0.489583,Quarter,C#3
379,Right,0,65,80,74.5,0.239583,Eighth,F4
380,Right,0,63,80,74.75,0.239583,Eighth,D#4
381,Left,1,36,110,75.0,0.489583,Quarter,C2
382,Right,0,80,110,75.25,0.239583,Eighth,G#5
383,Left,1,39,109,75.5,0.989583,Half,D#2
384,Right,0,89,109,75.5,0.239583,Eighth,F6
385,Right,0,87,109,75.75,0.239583,Eighth,D#6
386,Right,0,85,108,76.0,0.239583,Eighth,C#6
387,Right,0,84,107,76.25,0.239583,Eighth,C6
389,Left,1,44,107,76.5,0.489583,Quarter,G#2
388,Right,0,82,107,76.5,0.239583,Eighth,A#5
390,Right,0,80,106,76.75,0.239583,Eighth,G#5
391,Left,1,37,105,77.0,0.489583,Quarter,C#2
392,Right,0,79,105,77.0,0.239583,Eighth,G5
393,Right,0,77,105,77.25,0.239583,Eighth,F5
394,Left,1,41,114,77.5,0.989583,Half,F2
395,Right,0,75,104,77.5,0.239583,Eighth,D#5
396,Right,0,73,104,77.75,0.239583,Eighth,C#5
397,Right,0,72,103,78.0,0.239583,Eighth,C5
398,Right,0,70,102,78.25,0.239583,Eighth,A#4
400,Left,1,46,102,78.5,0.489583,Quarter,A#2
399,Right,0,68,102,78.5,0.239583,Eighth,G#4
401,Right,0,67,101,78.75,0.239583,Eighth,G4
402,Right,0,65,100,79.0,0.239583,Eighth,F4
403,Left,1,39,100,79.0,0.489583,Quarter,D#2
404,Right,0,63,100,79.25,0.239583,Eighth,D#4
406,Right,0,61,100,79.5,0.239583,Eighth,C#4
405,Left,1,44,120,79.5,0.989583,Half,G#2
407,Right,0,60,100,79.75,0.239583,Eighth,C4
408,Right,0,58,100,80.0,0.239583,Eighth,A#3
409,Right,0,56,100,80.25,0.239583,Eighth,G#3
411,Left,1,48,100,80.5,0.489583,Quarter,C3
410,Right,0,55,100,80.5,0.239583,Eighth,G3
412,Right,0,53,100,80.75,0.239583,Eighth,F3
414,Right,0,51,100,81.0,0.239583,Eighth,D#3
413,Left,1,49,100,81.0,0.489583,Quarter,C#3
415,Right,0,53,100,81.25,0.239583,Eighth,F3
417,Right,0,55,100,81.5,0.239583,Eighth,G3
416,Left,1,46,100,81.5,0.489583,Quarter,A#2
418,Right,0,56,100,81.75,0.239583,Eighth,G#3
420,Right,0,58,100,82.0,0.239583,Eighth,A#3
419,Left,1,43,100,82.0,0.489583,Quarter,G2
421,Right,0,60,100,82.25,0.239583,Eighth,C4
422,Right,0,61,100,82.5,0.239583,Eighth,C#4
423,Left,1,39,100,82.5,0.489583,Quarter,D#2
424,Right,0,58,100,82.75,0.239583,Eighth,A#3
425,Left,1,44,100,83.0,0.489583,Quarter,G#2
426,Right,0,56,100,83.0,0.489583,Quarter,G#3
427,Left,1,56,100,83.5,0.489583,Quarter,G#3
428,Right,0,62,100,83.916667,0.114583,Sixteenth,D4
429,Right,0,71,100,84.0,0.739583,DottedQuarter,B4
430,Left,1,56,100,84.5,0.489583,Quarter,G#3_F3_D3_B3
434,Right,0,70,100,84.75,0.239583,Eighth,A#4
435,Right,0,68,100,85.0,0.989583,Half,G#4
436,Left,1,51,100,85.5,0.489583,Quarter,G#3_D#3_C4
439,Right,0,67,100,86.0,0.739583,DottedQuarter,G4
440,Left,1,51,100,86.5,0.489583,Quarter,D#3_C#4_A#3
443,Right,0,75,100,86.75,0.239583,Eighth,D#5
444,Right,0,75,100,87.0,0.489583,Quarter,D#5
447,Right,0,68,100,87.5,0.364583,DottedEighth,G#4
445,Left,1,56,100,87.5,0.489583,Quarter,G#3_C4
448,Right,0,62,100,87.916667,0.114583,Sixteenth,D4
449,Right,0,71,100,88.0,0.739583,DottedQuarter,B4
450,Left,1,56,100,88.5,0.489583,Quarter,G#3_F3_D3_B3
454,Right,0,70,100,88.75,0.239583,Eighth,A#4
455,Right,0,68,100,89.0,0.989583,Half,G#4
456,Left,1,56,100,89.5,0.489583,Quarter,G#3_D#3_C4
459,Right,0,67,100,90.0,0.739583,DottedQuarter,G4
460,Left,1,51,100,90.5,0.489583,Quarter,D#3_C#4_A#3
463,Right,0,75,100,90.75,0.239583,Eighth,D#5
464,Right,0,75,100,91.0,0.489583,Quarter,D#5
465,Left,1,56,100,91.5,0.489583,Quarter,G#3_C4
467,Right,0,68,100,91.5,0.364583,DottedEighth,G#4
468,Right,0,74,110,91.916667,0.114583,Sixteenth,D5
469,Right,0,83,110,92.0,0.739583,DottedQuarter,B5
470,Left,1,68,110,92.5,0.489583,Quarter,G#4_F4_D4_B4
474,Right,0,82,110,92.75,0.239583,Eighth,A#5
475,Right,0,80,110,93.0,0.989583,Half,G#5
476,Left,1,68,110,93.5,0.489583,Quarter,G#4_D#4_C5
479,Right,0,79,110,94.0,0.739583,DottedQuarter,G5
480,Left,1,73,110,94.5,0.489583,Quarter,D#4_C#5_A#4
483,Right,0,87,110,94.75,0.239583,Eighth,D#6
488,Right,0,87,120,95.0,1.989583,Whole,G5_D#6_C#5
484,Left,1,63,120,95.0,1.989583,Whole,G4_G#3_D#4_C#4_A#3
493,Left,1,56,100,97.0,0.489583,Quarter,G#4_G#3_D#4_C4
492,Right,0,80,100,97.0,0.489583,Quarter,G#5_D#5_C5
499,Right,0,60,80,98.5,0.489583,Quarter,C4
500,Right,0,65,80,99.0,0.489583,Quarter,F4
501,Right,0,68,81,99.5,0.489583,Quarter,G#4
502,Right,0,72,81,100.0,0.489583,Quarter,C5
503,Right,0,77,82,100.5,0.489583,Quarter,F5
504,Right,0,80,100,101.0,0.739583,DottedQuarter,G#5
505,Left,1,60,83,101.5,0.489583,Quarter,G#3_F3_C4
508,Right,0,79,83,101.75,0.15625,Triplet,G5
509,Right,0,77,84,101.833333,0.15625,Triplet,F5
510,Right,0,76,84,101.916667,0.072917,TripletSixteenth,E5
513,Right,0,77,84,102.0,0.489583,Quarter,F5
511,Left,1,53,84,102.0,0.489583,Quarter,G#3_F3_C4
515,Left,1,60,84,102.5,0.489583,Quarter,G#3_F3_C4
519,Right,0,67,85,103.0,0.489583,Quarter,G4
518,Left,1,58,85,103.0,0.489583,Quarter,G3_E3_C4_A#3
523,Right,0,72,86,103.5,0.489583,Quarter,C5
524,Right,0,76,86,104.0,0.489583,Quarter,E5
525,Right,0,79,87,104.5,0.489583,Quarter,G5
526,Right,0,82,103,105.0,0.739583,DottedQuarter,A#5
527,Left,1,52,88,105.5,0.489583,Quarter,G3_E3_C4_A#3
531,Right,0,80,88,105.75,0.15625,Triplet,G#5
532,Right,0,79,88,105.833333,0.15625,Triplet,G5
533,Right,0,77,88,105.916667,0.072917,TripletSixteenth,F5
535,Left,1,60,89,106.0,0.489583,Quarter,G3_E3_C4_A#3
534,Right,0,79,89,106.0,0.489583,Quarter,G5
539,Left,1,55,89,106.5,0.489583,Quarter,G3_E3_C4_A#3
543,Right,0,72,110,107.0,0.15625,Triplet,C5
544,Right,0,80,110,107.083333,0.65625,TiedQuarter-Sixteenth,G#5
545,Left,1,53,100,107.5,0.489583,Quarter,G#3_F3_C4
548,Right,0,79,100,107.75,0.15625,Triplet,G5
549,Right,0,77,100,107.833333,0.15625,Triplet,F5
550,Right,0,76,100,107.916667,0.072917,TripletSixteenth,E5
551,Right,0,77,100,108.0,0.489583,Quarter,F5
552,Left,1,53,100,108.0,0.489583,Quarter,G#3_F3_C4
555,Left,1,53,100,108.5,0.489583,Quarter,G#3_F3_C4
558,Right,0,72,110,109.0,0.15625,Triplet,C5
559,Right,0,82,110,109.083333,0.65625,TiedQuarter-Sixteenth,A#5
560,Left,1,55,100,109.5,0.489583,Quarter,G3_E4_A#3
563,Right,0,80,100,109.75,0.15625,Triplet,G#5
564,Right,0,79,100,109.833333,0.15625,Triplet,G5
565,Right,0,77,100,109.916667,0.072917,TripletSixteenth,F5
567,Left,1,64,100,110.0,0.489583,Quarter,G3_E4_A#3
566,Right,0,79,100,110.0,0.489583,Quarter,G5
570,Left,1,64,100,110.5,0.489583,Quarter,G3_E4_A#3
573,Right,0,68,120,111.0,0.989583,Half,G#4
574,Right,0,77,120,111.083333,0.90625,Half,F5
575,Right,0,80,120,111.166667,0.822917,DottedQuarter,G#5
576,Right,0,84,120,111.25,0.739583,DottedQuarter,C6
577,Left,1,65,120,111.5,0.489583,Quarter,G#3_F4_C4
580,Right,0,82,120,112.0,0.239583,Eighth,A#5
581,Right,0,80,120,112.25,0.239583,Eighth,G#5
583,Right,0,79,120,112.5,0.239583,Eighth,G5
582,Left,1,67,120,112.5,0.489583,Quarter,G4_C#4_A#3
586,Right,0,77,120,112.75,0.239583,Eighth,F5
587,Right,0,76,120,113.0,0.15625,Triplet,E5
588,Right,0,77,120,113.083333,0.15625,Triplet,F5
589,Right,0,79,120,113.166667,0.15625,Triplet,G5
590,Right,0,77,120,113.25,0.739583,DottedQuarter,F5
591,Left,1,67,120,114.5,0.489583,Quarter,G4_C4
593,Right,0,76,120,114.5,0.489583,Quarter,E5
594,Left,1,43,80,116.5,0.489583,Quarter,G2
595,Left,1,48,80,117.0,0.489583,Quarter,C3
596,Left,1,51,80,117.5,0.489583,Quarter,D#3
597,Left,1,55,81,118.0,0.489583,Quarter,G3
598,Left,1,60,81,118.5,0.489583,Quarter,C4
599,Left,1,63,81,119.0,0.739583,DottedQuarter,D#4
600,Left,1,62,82,119.75,0.15625,Triplet,D4
601,Left,1,60,82,119.833333,0.15625,Triplet,C4
602,Left,1,59,82,119.916667,0.072917,TripletSixteenth,B3
603,Left,1,60,82,120.0,0.489583,Quarter,C4
604,Left,1,60,82,120.5,0.489583,Quarter,C4
606,Right,0,68,83,121.0,2.739583,Unknown,G#4
605,Left,1,60,83,121.0,1.989583,Whole,F4_C4
608,Right,0,75,83,121.75,0.15625,Triplet,D#5
609,Right,0,73,83,121.833333,0.15625,Triplet,C#5
610,Right,0,72,83,121.916667,0.072917,TripletSixteenth,C5
611,Right,0,73,83,122.0,0.489583,Quarter,C#5
612,Right,0,73,84,122.5,0.489583,Quarter,C#5
613,Left,1,58,84,123.0,1.989583,Whole,F4_A#3
615,Right,0,73,84,123.0,2.739583,Unknown,C#5
616,Right,0,70,85,123.75,0.15625,Triplet,A#4
617,Right,0,68,85,123.833333,0.15625,Triplet,G#4
618,Right,0,67,85,123.916667,0.072917,TripletSixteenth,G4
619,Right,0,68,85,124.0,0.489583,Quarter,G#4
620,Right,0,68,85,124.5,0.489583,Quarter,G#4
622,Left,1,63,86,125.0,1.989583,Whole,D#4_A#3
621,Right,0,67,86,125.0,1.989583,Whole,G4
624,Right,0,75,86,125.75,0.15625,Triplet,D#5
625,Right,0,73,86,125.833333,0.15625,Triplet,C#5
626,Right,0,72,86,125.916667,0.072917,TripletSixteenth,C5
627,Right,0,73,86,126.0,0.489583,Quarter,C#5
628,Right,0,73,87,126.5,0.489583,Quarter,C#5
629,Left,1,63,87,127.0,1.989583,Whole,G#3_D#4
630,Right,0,68,87,127.0,1.989583,Whole,G#4
632,Right,0,73,88,127.75,0.15625,Triplet,C#5
633,Right,0,72,88,127.833333,0.15625,Triplet,C5
634,Right,0,71,88,127.916667,0.072917,TripletSixteenth,B4
635,Right,0,72,88,128.0,0.489583,Quarter,C5
636,Right,0,72,88,128.5,0.489583,Quarter,C5
638,Left,1,61,88,129.0,0.989583,Half,C#4
637,Right,0,72,88,129.0,0.489583,Quarter,C5
639,Right,0,70,89,129.5,0.989583,Half,A#4
640,Left,1,62,89,130.0,0.989583,Half,D4
641,Right,0,68,89,130.5,0.489583,Quarter,G#4
642,Left,1,63,100,131.0,0.489583,Quarter,D#4
643,Right,0,67,100,131.0,0.489583,Quarter,G4
644,Right,0,75,100,131.5,0.489583,Quarter,D#5
645,Right,0,73,100,132.0,0.489583,Quarter,C#5
647,Right,0,72,100,132.5,0.989583,Half,C5
646,Left,1,63,100,132.5,0.489583,Quarter,D#4_C4
649,Left,1,65,100,133.0,0.989583,Half,F4_C#4
651,Right,0,70,100,133.5,0.989583,Half,A#4
652,Left,1,65,100,134.0,0.989583,Half,F4_D4
654,Right,0,68,100,134.5,0.489583,Quarter,G#4
656,Right,0,67,100,135.0,0.489583,Quarter,G4
655,Left,1,63,100,135.0,0.489583,Quarter,D#4
657,Right,0,75,110,135.5,0.489583,Quarter,D#5_D#4
659,Right,0,61,110,136.0,0.489583,Quarter,C#5_C#4
662,Right,0,60,110,136.5,0.989583,Half,C5_C4
661,Left,1,51,110,136.5,0.489583,Quarter,D#3_C3
665,Left,1,53,110,137.0,0.989583,Half,F3_C#3
667,Right,0,58,110,137.5,0.989583,Half,A#4_A#3
669,Left,1,50,110,138.0,0.989583,Half,F3_D3
671,Right,0,56,110,138.5,0.489583,Quarter,G#4_G#3
673,Right,0,67,105,139.0,0.489583,Quarter,G4_G3
675,Left,1,51,80,139.0,0.239583,Eighth,D#3
676,Left,1,63,80,139.25,0.239583,Eighth,D#4
677,Left,1,51,80,139.5,0.239583,Eighth,D#3
678,Left,1,63,80,139.75,0.239583,Eighth,D#4
679,Left,1,51,80,140.0,0.239583,Eighth,D#3
680,Left,1,63,80,140.25,0.239583,Eighth,D#4
682,Right,0,76,80,140.5,0.489583,Quarter,E5
681,Left,1,51,80,140.5,0.239583,Eighth,D#3
683,Left,1,63,80,140.75,0.239583,Eighth,D#4
684,Right,0,75,80,141.0,0.489583,Quarter,D#5
685,Left,1,51,80,141.0,0.239583,Eighth,D#3
686,Left,1,63,80,141.25,0.239583,Eighth,D#4
688,Right,0,73,80,141.5,0.489583,Quarter,C#5
687,Left,1,51,80,141.5,0.239583,Eighth,D#3
689,Left,1,63,80,141.75,0.239583,Eighth,D#4
690,Right,0,70,80,142.0,0.489583,Quarter,A#4
691,Left,1,51,80,142.0,0.239583,Eighth,D#3
692,Left,1,63,80,142.25,0.239583,Eighth,D#4
694,Right,0,67,80,142.5,0.489583,Quarter,G4
693,Left,1,51,80,142.5,0.239583,Eighth,D#3
695,Left,1,63,80,142.75,0.239583,Eighth,D#4
697,Left,1,51,80,143.0,0.989583,Quarter,D#3_C#4
696,Right,0,64,80,143.0,0.739583,DottedQuarter,E4
699,Left,1,51,80,143.5,0.489583,Quarter,D#3
700,Right,0,63,80,143.75,0.239583,Eighth,D#4
702,Left,1,51,80,144.0,0.489583,Eighth,D#3_C4
701,Right,0,68,80,144.0,0.489583,Quarter,G#4
704,Left,1,63,80,144.25,0.239583,Eighth,D#4
706,Left,1,51,80,144.5,0.239583,Eighth,D#3
705,Right,0,76,80,144.5,0.489583,Quarter,E5
707,Left,1,63,80,144.75,0.239583,Eighth,D#4
709,Left,1,51,80,145.0,0.239583,Eighth,D#3
708,Right,0,75,80,145.0,0.489583,Quarter,D#5
710,Left,1,63,80,145.25,0.239583,Eighth,D#4
712,Right,0,73,80,145.5,0.489583,Quarter,C#5
711,Left,1,51,80,145.5,0.239583,Eighth,D#3
713,Left,1,63,80,145.75,0.239583,Eighth,D#4
714,Left,1,51,80,146.0,0.239583,Eighth,D#3
715,Right,0,70,80,146.0,0.489583,Quarter,A#4
716,Left,1,63,80,146.25,0.239583,Eighth,D#4
717,Left,1,51,80,146.5,0.239583,Eighth,D#3
718,Right,0,67,80,146.5,0.489583,Quarter,G4
719,Left,1,63,80,146.75,0.239583,Eighth,D#4
721,Left,1,51,80,147.0,0.989583,Quarter,D#3_C#4
720,Right,0,64,80,147.0,0.739583,DottedQuarter,E4
723,Left,1,51,80,147.5,0.489583,Quarter,D#3
724,Right,0,63,80,147.75,0.239583,Eighth,D#4
725,Left,1,51,80,148.0,0.489583,Eighth,D#3_C4
726,Right,0,68,80,148.0,0.489583,Quarter,G#4
728,Left,1,63,80,148.25,0.239583,Eighth,D#4
730,Left,1,51,80,148.5,0.239583,Eighth,D#3
729,Right,0,76,80,148.5,0.489583,Quarter,E5
731,Left,1,63,80,148.75,0.239583,Eighth,D#4
733,Left,1,51,80,149.0,0.239583,Eighth,D#3
732,Right,0,75,80,149.0,0.489583,Quarter,D#5
734,Left,1,63,80,149.25,0.239583,Eighth,D#4
735,Right,0,73,80,149.5,0.489583,Quarter,C#5
736,Left,1,51,80,149.5,0.239583,Eighth,D#3
737,Left,1,63,80,149.75,0.239583,Eighth,D#4
739,Right,0,70,80,150.0,0.489583,Quarter,A#4
738,Left,1,61,80,150.0,0.239583,Eighth,C#4
740,Left,1,63,80,150.25,0.239583,Eighth,D#4
742,Right,0,67,80,150.5,0.489583,Quarter,G4
741,Left,1,61,80,150.5,0.239583,Eighth,C#4
743,Left,1,63,80,150.75,0.239583,Eighth,D#4
744,Left,1,60,80,151.0,0.239583,Eighth,C4
746,Left,1,63,80,151.25,0.239583,Eighth,D#4
745,Right,0,67,80,151.25,0.239583,Eighth,G4
747,Right,0,70,81,151.5,0.239583,Eighth,A#4
748,Left,1,60,81,151.5,0.239583,Eighth,C4
750,Left,1,63,82,151.75,0.239583,Eighth,D#4
749,Right,0,68,82,151.75,0.239583,Eighth,G#4
751,Left,1,55,83,152.0,0.239583,Eighth,G3
752,Left,1,63,84,152.25,0.239583,Eighth,D#4
753,Right,0,69,84,152.25,0.239583,Eighth,A4
755,Left,1,55,85,152.5,0.239583,Eighth,G3
754,Right,0,72,85,152.5,0.239583,Eighth,C5
757,Left,1,63,86,152.75,0.239583,Eighth,D#4
756,Right,0,70,86,152.75,0.239583,Eighth,A#4
758,Left,1,56,86,153.0,0.239583,Eighth,G#3
759,Left,1,63,87,153.25,0.239583,Eighth,D#4
760,Right,0,71,87,153.25,0.239583,Eighth,B4
761,Left,1,56,88,153.5,0.239583,Eighth,G#3
762,Right,0,73,88,153.5,0.239583,Eighth,C#5
763,Left,1,63,89,153.75,0.239583,Eighth,D#4
764,Right,0,72,89,153.75,0.239583,Eighth,C5
765,Left,1,53,90,154.0,0.239583,Eighth,F3
766,Left,1,62,91,154.25,0.239583,Eighth,D4
767,Right,0,74,91,154.25,0.239583,Eighth,D5
769,Right,0,80,92,154.5,0.239583,Eighth,G#5
768,Left,1,56,92,154.5,0.239583,Eighth,G#3
770,Right,0,74,93,154.75,0.239583,Eighth,D5
771,Left,1,62,93,154.75,0.239583,Eighth,D4
772,Left,1,51,93,155.0,0.239583,Eighth,D#3
773,Right,0,75,93,155.0,0.489583,Quarter,D#5
774,Left,1,63,94,155.25,0.239583,Eighth,D#4
775,Left,1,55,95,155.5,0.239583,Eighth,G3
776,Left,1,63,96,155.75,0.239583,Eighth,D#4
777,Left,1,53,97,156.0,0.239583,Eighth,F3
779,Left,1,62,98,156.25,0.239583,Eighth,D4
778,Right,0,74,98,156.25,0.239583,Eighth,D5
780,Right,0,80,99,156.5,0.239583,Eighth,G#5
781,Left,1,56,99,156.5,0.239583,Eighth,G#3
783,Left,1,62,99,156.75,0.239583,Eighth,D4
782,Right,0,74,99,156.75,0.239583,Eighth,D5
784,Right,0,75,100,157.0,0.489583,Quarter,D#5
785,Left,1,51,100,157.0,0.239583,Eighth,D#3
786,Left,1,63,100,157.25,0.239583,Eighth,D#4
787,Left,1,55,100,157.5,0.239583,Eighth,G3
788,Left,1,63,100,157.75,0.239583,Eighth,D#4
789,Left,1,49,100,158.0,0.239583,Eighth,C#3
790,Left,1,58,100,158.25,0.239583,Eighth,A#3
791,Right,0,79,100,158.25,0.239583,Eighth,G5
792,Left,1,52,100,158.5,0.239583,Eighth,E3
793,Right,0,88,100,158.5,0.239583,Eighth,E6
794,Left,1,58,100,158.75,0.239583,Eighth,A#3
795,Right,0,79,100,158.75,0.239583,Eighth,G5
797,Left,1,51,100,159.0,0.239583,Eighth,D#3
796,Right,0,80,100,159.0,0.489583,Quarter,G#5
798,Left,1,56,100,159.25,0.239583,Eighth,G#3
799,Left,1,55,100,159.5,0.239583,Eighth,G3
800,Left,1,56,100,159.75,0.239583,Eighth,G#3
801,Left,1,49,100,160.0,0.239583,Eighth,C#3
802,Left,1,58,100,160.25,0.239583,Eighth,A#3
803,Right,0,79,100,160.25,0.239583,Eighth,G5
804,Left,1,52,100,160.5,0.239583,Eighth,E3
805,Right,0,88,100,160.5,0.239583,Eighth,E6
806,Left,1,58,100,160.75,0.239583,Eighth,A#3
807,Right,0,79,100,160.75,0.239583,Eighth,G5
808,Left,1,48,100,161.0,0.239583,Eighth,C3
810,Right,0,79,100,161.25,0.239583,Eighth,G5
809,Left,1,56,100,161.25,0.239583,Eighth,G#3
811,Left,1,51,101,161.5,0.239583,Eighth,D#3
812,Right,0,82,101,161.5,0.239583,Eighth,A#5
813,Right,0,80,101,161.75,0.239583,Eighth,G#5
814,Left,1,56,101,161.75,0.239583,Eighth,G#3
815,Left,1,44,102,162.0,0.239583,Eighth,G#2
816,Right,0,81,103,162.25,0.239583,Eighth,A5
817,Left,1,55,103,162.25,0.239583,Eighth,G3
819,Right,0,84,103,162.5,0.239583,Eighth,C6
818,Left,1,51,103,162.5,0.239583,Eighth,D#3
820,Right,0,82,104,162.75,0.239583,Eighth,A#5
821,Left,1,55,104,162.75,0.239583,Eighth,G3
822,Left,1,44,105,163.0,0.239583,Eighth,G#2
823,Right,0,83,105,163.25,0.239583,Eighth,B5
824,Left,1,56,105,163.25,0.239583,Eighth,G#3
825,Left,1,51,106,163.5,0.239583,Eighth,D#3
826,Right,0,85,106,163.5,0.239583,Eighth,C#6
827,Right,0,84,106,163.75,0.239583,Eighth,C6
828,Left,1,56,106,163.75,0.239583,Eighth,G#3
829,Left,1,46,107,164.0,0.239583,Eighth,A#2
830,Right,0,84,108,164.25,0.239583,Eighth,C6
831,Left,1,58,108,164.25,0.239583,Eighth,A#3
832,Right,0,87,108,164.5,0.239583,Eighth,D#6
833,Left,1,51,108,164.5,0.239583,Eighth,D#3
835,Left,1,58,109,164.75,0.239583,Eighth,A#3
834,Right,0,85,109,164.75,0.239583,Eighth,C#6
836,Left,1,48,110,165.0,0.489583,Quarter,C3
837,Right,0,86,110,165.25,0.239583,Eighth,D6
838,Right,0,89,109,165.5,0.239583,Eighth,F6
839,Left,1,51,109,165.5,0.989583,Half,D#3
840,Right,0,87,109,165.75,0.239583,Eighth,D#6
841,Right,0,85,108,166.0,0.239583,Eighth,C#6
842,Right,0,84,107,166.25,0.239583,Eighth,C6
844,Right,0,82,107,166.5,0.239583,Eighth,A#5
843,Left,1,56,107,166.5,0.489583,Quarter,G#3
845,Right,0,80,106,166.75,0.239583,Eighth,G#5
846,Right,0,79,105,167.0,0.239583,Eighth,G5
847,Left,1,49,105,167.0,0.489583,Quarter,C#3
848,Right,0,77,105,167.25,0.239583,Eighth,F5
850,Left,1,53,114,167.5,0.989583,Half,F3
849,Right,0,75,104,167.5,0.239583,Eighth,D#5
851,Right,0,73,104,167.75,0.239583,Eighth,C#5
852,Right,0,72,103,168.0,0.239583,Eighth,C5
853,Right,0,70,102,168.25,0.239583,Eighth,A#4
854,Left,1,58,102,168.5,0.489583,Quarter,A#3
855,Right,0,68,102,168.5,0.239583,Eighth,G#4
856,Right,0,67,101,168.75,0.239583,Eighth,G4
858,Right,0,65,80,169.0,0.239583,Eighth,F4
857,Left,1,51,80,169.0,0.489583,Quarter,D#3
859,Right,0,63,80,169.25,0.239583,Eighth,D#4
860,Left,1,56,80,169.5,0.989583,Half,G#3
861,Right,0,62,80,169.5,0.239583,Eighth,D4
862,Right,0,63,80,169.75,0.239583,Eighth,D#4
863,Right,0,62,80,170.0,0.239583,Eighth,D4
864,Right,0,63,80,170.25,0.239583,Eighth,D#4
866,Left,1,60,80,170.5,0.489583,Quarter,C4
865,Right,0,62,80,170.5,0.239583,Eighth,D4
867,Right,0,63,80,170.75,0.239583,Eighth,D#4
869,Left,1,61,80,171.0,0.489583,Quarter,C#4
868,Right,0,62,80,171.0,0.239583,Eighth,D4
870,Right,0,63,80,171.25,0.239583,Eighth,D#4
871,Right,0,65,80,171.5,0.239583,Eighth,F4
872,Left,1,58,80,171.5,0.489583,Quarter,A#3
873,Right,0,63,80,171.75,0.239583,Eighth,D#4
875,Left,1,55,80,172.0,0.489583,Quarter,G3
874,Right,0,62,80,172.0,0.239583,Eighth,D4
876,Right,0,63,80,172.25,0.239583,Eighth,D#4
877,Right,0,65,80,172.5,0.239583,Eighth,F4
878,Left,1,49,80,172.5,0.489583,Quarter,C#3
879,Right,0,63,80,172.75,0.239583,Eighth,D#4
880,Left,1,36,110,173.0,0.489583,Quarter,C2
881,Right,0,80,110,173.25,0.239583,Eighth,G#5
882,Left,1,39,109,173.5,0.989583,Half,D#2
883,Right,0,89,109,173.5,0.239583,Eighth,F6
884,Right,0,87,109,173.75,0.239583,Eighth,D#6
885,Right,0,85,108,174.0,0.239583,Eighth,C#6
886,Right,0,84,107,174.25,0.239583,Eighth,C6
887,Right,0,82,107,174.5,0.239583,Eighth,A#5
888,Left,1,44,107,174.5,0.489583,Quarter,G#2
889,Right,0,80,106,174.75,0.239583,Eighth,G#5
890,Left,1,37,105,175.0,0.489583,Quarter,C#2
891,Right,0,79,105,175.0,0.239583,Eighth,G5
892,Right,0,77,105,175.25,0.239583,Eighth,F5
893,Right,0,75,104,175.5,0.239583,Eighth,D#5
894,Left,1,41,114,175.5,0.989583,Half,F2
895,Right,0,73,104,175.75,0.239583,Eighth,C#5
896,Right,0,72,103,176.0,0.239583,Eighth,C5
897,Right,0,70,102,176.25,0.239583,Eighth,A#4
898,Right,0,68,102,176.5,0.239583,Eighth,G#4
899,Left,1,46,102,176.5,0.489583,Quarter,A#2
900,Right,0,67,101,176.75,0.239583,Eighth,G4
901,Right,0,65,80,177.0,0.239583,Eighth,F4
902,Left,1,39,80,177.0,0.489583,Quarter,D#2
903,Right,0,63,80,177.25,0.239583,Eighth,D#4
905,Right,0,61,80,177.5,0.239583,Eighth,C#4
904,Left,1,44,80,177.5,0.989583,Half,G#2
906,Right,0,60,80,177.75,0.239583,Eighth,C4
907,Right,0,58,80,178.0,0.239583,Eighth,A#3
908,Right,0,56,80,178.25,0.239583,Eighth,G#3
909,Right,0,55,80,178.5,0.239583,Eighth,G3
910,Left,1,48,80,178.5,0.489583,Quarter,C3
911,Right,0,53,80,178.75,0.239583,Eighth,F3
912,Right,0,51,80,179.0,0.239583,Eighth,D#3
913,Left,1,49,80,179.0,0.489583,Quarter,C#3
914,Right,0,53,80,179.25,0.239583,Eighth,F3
915,Left,1,46,80,179.5,0.489583,Quarter,A#2
916,Right,0,55,80,179.5,0.239583,Eighth,G3
917,Right,0,56,80,179.75,0.239583,Eighth,G#3
918,Right,0,58,80,180.0,0.239583,Eighth,A#3
919,Left,1,43,80,180.0,0.489583,Quarter,G2
920,Right,0,60,80,180.25,0.239583,Eighth,C4
921,Right,0,61,80,180.5,0.239583,Eighth,C#4
922,Left,1,39,80,180.5,0.489583,Quarter,D#2
923,Right,0,58,80,180.75,0.239583,Eighth,A#3
924,Left,1,44,100,181.0,0.489583,Quarter,G#2
925,Right,0,56,100,181.0,0.489583,Quarter,G#3
926,Left,1,56,100,181.5,0.489583,Quarter,G#3
927,Right,0,62,100,181.916667,0.114583,Sixteenth,D4
928,Right,0,71,100,182.0,0.739583,DottedQuarter,B4
929,Left,1,56,100,182.5,0.489583,Quarter,G#3_F3_D3_B3
933,Right,0,70,100,182.75,0.239583,Eighth,A#4
934,Right,0,68,100,183.0,0.989583,Half,G#4
935,Left,1,60,100,183.5,0.489583,Quarter,G#3_D#3_C4
938,Right,0,67,100,184.0,0.739583,DottedQuarter,G4
939,Left,1,58,100,184.5,0.489583,Quarter,D#3_C#4_A#3
942,Right,0,75,100,184.75,0.239583,Eighth,D#5
943,Right,0,75,100,185.0,0.489583,Quarter,D#5
946,Right,0,68,100,185.5,0.364583,DottedEighth,G#4
944,Left,1,60,100,185.5,0.489583,Quarter,G#3_C4
947,Right,0,62,100,185.916667,0.114583,Sixteenth,D4
948,Right,0,71,100,186.0,0.739583,DottedQuarter,B4
949,Left,1,59,100,186.5,0.489583,Quarter,G#3_F3_D3_B3
953,Right,0,70,100,186.75,0.239583,Eighth,A#4
954,Right,0,68,100,187.0,0.989583,Half,G#4
955,Left,1,56,100,187.5,0.489583,Quarter,G#3_D#3_C4
958,Right,0,67,100,188.0,0.739583,DottedQuarter,G4
959,Left,1,61,100,188.5,0.489583,Quarter,D#3_C#4_A#3
962,Right,0,75,100,188.75,0.239583,Eighth,D#5
963,Right,0,75,100,189.0,0.489583,Quarter,D#5
964,Left,1,56,100,189.5,0.489583,Quarter,G#3_C4
966,Right,0,68,100,189.5,0.364583,DottedEighth,G#4
967,Right,0,74,110,189.916667,0.114583,Sixteenth,D5
968,Right,0,83,110,190.0,0.739583,DottedQuarter,B5
969,Left,1,68,110,190.5,0.489583,Quarter,G#4_F4_D4_B4
973,Right,0,82,110,190.75,0.239583,Eighth,A#5
974,Right,0,80,110,191.0,0.989583,Half,G#5
975,Left,1,63,110,191.5,0.489583,Quarter,G#4_D#4_C5
978,Right,0,79,110,192.0,0.739583,DottedQuarter,G5
979,Left,1,63,110,192.5,0.489583,Quarter,D#4_C#5_A#4
982,Right,0,87,110,192.75,0.239583,Eighth,D#6
984,Right,0,79,120,193.0,1.989583,Whole,G5_D#6_C#5
983,Left,1,58,120,193.0,1.989583,Whole,G4_G#3_D#4_C#4_A#3
991,Right,0,80,100,195.0,0.489583,Quarter,G#5_D#5_C5
994,Left,1,56,100,195.0,0.489583,Quarter,G#4_G#3_D#4_C4
998,Right,0,63,80,196.5,0.489583,Quarter,D#4
999,Right,0,68,80,197.0,0.489583,Quarter,G#4
1000,Right,0,72,80,197.5,0.489583,Quarter,C5
1001,Right,0,75,80,198.0,0.489583,Quarter,D#5
1002,Right,0,80,80,198.5,0.489583,Quarter,G#5
1003,Right,0,84,80,199.0,0.739583,DottedQuarter,C6
1004,Left,1,60,80,199.5,0.489583,Quarter,G#3_D#4_C4
1007,Right,0,82,80,199.75,0.15625,Triplet,A#5
1008,Right,0,80,80,199.833333,0.15625,Triplet,G#5
1009,Right,0,79,80,199.916667,0.072917,TripletSixteenth,G5
1010,Left,1,60,80,200.0,0.489583,Quarter,G#3_D#4_C4
1013,Right,0,80,80,200.0,0.489583,Quarter,G#5
1014,Left,1,60,80,200.5,0.489583,Quarter,G#3_D#4_C4
1017,Right,0,73,80,200.916667,0.114583,Sixteenth,C#5
1018,Right,0,85,80,201.0,0.739583,DottedQuarter,C#6
1019,Left,1,55,80,201.5,0.489583,Quarter,G3_D#4_C#4_A#3
1023,Right,0,84,80,201.75,0.15625,Triplet,C6
1024,Right,0,82,80,201.833333,0.15625,Triplet,A#5
1025,Right,0,81,80,201.916667,0.072917,TripletSixteenth,A5
1026,Left,1,55,80,202.0,0.489583,Quarter,G3_D#4_C#4_A#3
1027,Right,0,82,80,202.0,0.489583,Quarter,A#5
1031,Left,1,55,80,202.5,0.489583,Quarter,G3_D#4_C#4_A#3
1035,Right,0,70,80,203.0,0.489583,Quarter,A#4
1036,Right,0,73,80,203.5,0.489583,Quarter,C#5
1037,Right,0,79,80,204.0,0.489583,Quarter,G5
1038,Right,0,82,80,204.5,0.489583,Quarter,A#5
1039,Right,0,73,80,204.916667,0.114583,Sixteenth,C#5
1040,Right,0,85,80,205.0,0.739583,DottedQuarter,C#6
1041,Left,1,63,80,205.5,0.489583,Quarter,G3_D#4_C#4_A#3
1045,Right,0,84,80,205.75,0.15625,Triplet,C6
1046,Right,0,82,80,205.833333,0.15625,Triplet,A#5
1047,Right,0,81,80,205.916667,0.072917,TripletSixteenth,A5
1052,Right,0,82,80,206.0,0.489583,Quarter,A#5
1048,Left,1,58,80,206.0,0.489583,Quarter,G3_D#4_C#4_A#3
1053,Left,1,63,80,206.5,0.489583,Quarter,G3_D#4_C#4_A#3
1057,Right,0,73,80,206.916667,0.114583,Sixteenth,C#5
1058,Right,0,85,80,207.0,0.739583,DottedQuarter,C#6
1059,Left,1,54,85,207.5,0.489583,Quarter,F#3_D#4_C#4_A#3
1063,Right,0,84,88,207.75,0.15625,Triplet,C6
1064,Right,0,82,89,207.833333,0.15625,Triplet,A#5
1065,Right,0,81,90,207.916667,0.072917,TripletSixteenth,A5
1066,Left,1,63,91,208.0,0.489583,Quarter,F#3_D#4_C#4_A#3
1068,Right,0,82,91,208.0,0.489583,Quarter,A#5
1071,Left,1,63,97,208.5,0.489583,Quarter,F#3_D#4_C#4_A#3
1075,Left,1,53,120,209.0,0.239583,Eighth,F3
1076,Right,0,81,120,209.0,0.489583,Quarter,A5
1077,Left,1,65,80,209.25,0.239583,Eighth,F4
1078,Left,1,53,80,209.5,0.239583,Eighth,F3
1079,Left,1,65,80,209.75,0.239583,Eighth,F4
1080,Left,1,53,80,210.0,0.239583,Eighth,F3
1081,Left,1,65,80,210.25,0.239583,Eighth,F4
1082,Right,0,78,80,210.5,0.489583,Quarter,F#5
1083,Left,1,53,80,210.5,0.239583,Eighth,F3
1084,Left,1,65,80,210.75,0.239583,Eighth,F4
1085,Right,0,77,80,211.0,0.489583,Quarter,F5
1086,Left,1,53,80,211.0,0.239583,Eighth,F3
1087,Left,1,65,80,211.25,0.239583,Eighth,F4
1088,Right,0,75,80,211.5,0.489583,Quarter,D#5
1089,Left,1,53,80,211.5,0.239583,Eighth,F3
1090,Left,1,65,80,211.75,0.239583,Eighth,F4
1091,Left,1,53,80,212.0,0.239583,Eighth,F3
1092,Right,0,72,80,212.0,0.489583,Quarter,C5
1093,Left,1,65,80,212.25,0.239583,Eighth,F4
1095,Left,1,53,80,212.5,0.239583,Eighth,F3
1094,Right,0,69,80,212.5,0.489583,Quarter,A4
1096,Left,1,65,80,212.75,0.239583,Eighth,F4
1098,Right,0,66,107,213.0,0.739583,DottedQuarter,F#4
1097,Left,1,53,80,213.0,0.989583,Quarter,F3_D#4
1100,Left,1,53,80,213.5,0.489583,Quarter,F3
1101,Right,0,65,80,213.75,0.239583,Eighth,F4
1102,Left,1,61,80,214.0,0.489583,Quarter,F3_C#4
1104,Right,0,70,80,214.0,0.489583,Quarter,A#4
1105,Left,1,65,80,214.25,0.239583,Eighth,F4
1107,Right,0,78,80,214.5,0.489583,Quarter,F#5
1106,Left,1,53,80,214.5,0.239583,Eighth,F3
1108,Left,1,65,80,214.75,0.239583,Eighth,F4
1110,Right,0,77,80,215.0,0.489583,Quarter,F5
1109,Left,1,53,80,215.0,0.239583,Eighth,F3
1111,Left,1,65,80,215.25,0.239583,Eighth,F4
1113,Right,0,75,80,215.5,0.489583,Quarter,D#5
1112,Left,1,53,80,215.5,0.239583,Eighth,F3
1114,Left,1,65,80,215.75,0.239583,Eighth,F4
1115,Right,0,72,80,216.0,0.489583,Quarter,C5
1116,Left,1,53,80,216.0,0.239583,Eighth,F3
1117,Left,1,65,80,216.25,0.239583,Eighth,F4
1118,Right,0,69,80,216.5,0.489583,Quarter,A4
1119,Left,1,53,80,216.5,0.239583,Eighth,F3
1120,Left,1,65,80,216.75,0.239583,Eighth,F4
1122,Left,1,53,80,217.0,0.989583,Quarter,F3_D#4
1121,Right,0,66,107,217.0,0.739583,DottedQuarter,F#4
1124,Left,1,53,80,217.5,0.489583,Quarter,F3
1125,Right,0,65,80,217.75,0.239583,Eighth,F4
1127,Left,1,53,80,218.0,0.489583,Eighth,F3_C#4
1126,Right,0,70,80,218.0,0.489583,Quarter,A#4
1129,Left,1,65,80,218.25,0.239583,Eighth,F4
1130,Left,1,53,80,218.5,0.239583,Eighth,F3
1131,Right,0,78,80,218.5,0.489583,Quarter,F#5
1132,Left,1,65,80,218.75,0.239583,Eighth,F4
1133,Left,1,53,80,219.0,0.239583,Eighth,F3
1134,Right,0,77,80,219.0,0.489583,Quarter,F5
1135,Left,1,65,80,219.25,0.239583,Eighth,F4
1136,Left,1,53,80,219.5,0.239583,Eighth,F3
1137,Right,0,75,80,219.5,0.489583,Quarter,D#5
1138,Left,1,65,80,219.75,0.239583,Eighth,F4
1139,Left,1,63,80,220.0,0.239583,Eighth,D#4
1140,Right,0,72,80,220.0,0.489583,Quarter,C5
1141,Left,1,65,80,220.25,0.239583,Eighth,F4
1143,Right,0,69,80,220.5,0.489583,Quarter,A4
1142,Left,1,63,80,220.5,0.239583,Eighth,D#4
1144,Left,1,65,80,220.75,0.239583,Eighth,F4
1145,Left,1,61,80,221.0,0.239583,Eighth,C#4
1147,Right,0,69,81,221.25,0.239583,Eighth,A4
1146,Left,1,65,81,221.25,0.239583,Eighth,F4
1148,Right,0,72,83,221.5,0.239583,Eighth,C5
1149,Left,1,61,83,221.5,0.239583,Eighth,C#4
1150,Right,0,70,85,221.75,0.239583,Eighth,A#4
1151,Left,1,65,85,221.75,0.239583,Eighth,F4
1152,Left,1,60,87,222.0,0.239583,Eighth,C4
1154,Left,1,65,89,222.25,0.239583,Eighth,F4
1153,Right,0,70,89,222.25,0.239583,Eighth,A#4
1156,Right,0,73,91,222.5,0.239583,Eighth,C#5
1155,Left,1,60,91,222.5,0.239583,Eighth,C4
1158,Right,0,72,93,222.75,0.239583,Eighth,C5
1157,Left,1,65,93,222.75,0.239583,Eighth,F4
1159,Left,1,58,94,223.0,0.239583,Eighth,A#3
1160,Left,1,65,96,223.25,0.239583,Eighth,F4
1161,Right,0,72,96,223.25,0.239583,Eighth,C5
1162,Left,1,58,98,223.5,0.239583,Eighth,A#3
1163,Right,0,75,98,223.5,0.239583,Eighth,D#5
1164,Right,0,73,100,223.75,0.239583,Eighth,C#5
1165,Left,1,65,100,223.75,0.239583,Eighth,F4
1166,Left,1,56,102,224.0,0.239583,Eighth,G#3
1168,Left,1,66,104,224.25,0.239583,Eighth,F#4
1167,Right,0,71,104,224.25,0.239583,Eighth,B4
1169,Left,1,56,106,224.5,0.239583,Eighth,G#3
1170,Right,0,73,106,224.5,0.239583,Eighth,C#5
1171,Right,0,72,108,224.75,0.239583,Eighth,C5
1172,Left,1,66,108,224.75,0.239583,Eighth,F#4
1174,Right,0,71,109,225.0,0.489583,Quarter,B4
1173,Left,1,55,109,225.0,0.239583,Eighth,G3
1175,Left,1,67,80,225.25,0.239583,Eighth,G4
1176,Left,1,55,80,225.5,0.239583,Eighth,G3
1177,Left,1,67,80,225.75,0.239583,Eighth,G4
1178,Left,1,55,80,226.0,0.239583,Eighth,G3
1179,Left,1,67,80,226.25,0.239583,Eighth,G4
1180,Right,0,80,80,226.5,0.489583,Quarter,G#5
1181,Left,1,55,80,226.5,0.239583,Eighth,G3
1182,Left,1,67,80,226.75,0.239583,Eighth,G4
1184,Right,0,79,80,227.0,0.489583,Quarter,G5
1183,Left,1,55,80,227.0,0.239583,Eighth,G3
1185,Left,1,67,80,227.25,0.239583,Eighth,G4
1186,Left,1,55,80,227.5,0.239583,Eighth,G3
1187,Right,0,77,80,227.5,0.489583,Quarter,F5
1188,Left,1,67,80,227.75,0.239583,Eighth,G4
1190,Right,0,74,80,228.0,0.489583,Quarter,D5
1189,Left,1,55,80,228.0,0.239583,Eighth,G3
1191,Left,1,67,80,228.25,0.239583,Eighth,G4
1192,Left,1,55,80,228.5,0.239583,Eighth,G3
1193,Right,0,71,80,228.5,0.489583,Quarter,B4
1194,Left,1,67,80,228.75,0.239583,Eighth,G4
1195,Left,1,55,80,229.0,0.989583,Quarter,G3_F4
1197,Right,0,68,106,229.0,0.739583,DottedQuarter,G#4
1198,Left,1,55,80,229.5,0.489583,Quarter,G3
1199,Right,0,67,80,229.75,0.239583,Eighth,G4
1202,Right,0,72,80,230.0,0.489583,Quarter,C5
1200,Left,1,55,80,230.0,0.489583,Eighth,G3_D#4
1203,Left,1,67,80,230.25,0.239583,Eighth,G4
1204,Left,1,55,80,230.5,0.239583,Eighth,G3
1205,Right,0,80,80,230.5,0.489583,Quarter,G#5
1206,Left,1,67,80,230.75,0.239583,Eighth,G4
1207,Left,1,55,80,231.0,0.239583,Eighth,G3
1208,Right,0,79,80,231.0,0.489583,Quarter,G5
1209,Left,1,67,80,231.25,0.239583,Eighth,G4
1210,Right,0,77,80,231.5,0.489583,Quarter,F5
1211,Left,1,55,80,231.5,0.239583,Eighth,G3
1212,Left,1,67,80,231.75,0.239583,Eighth,G4
1214,Left,1,55,80,232.0,0.239583,Eighth,G3
1213,Right,0,74,80,232.0,0.489583,Quarter,D5
1215,Left,1,67,80,232.25,0.239583,Eighth,G4
1217,Right,0,71,80,232.5,0.489583,Quarter,B4
1216,Left,1,55,80,232.5,0.239583,Eighth,G3
1218,Left,1,67,80,232.75,0.239583,Eighth,G4
1220,Right,0,68,102,233.0,0.739583,DottedQuarter,G#4
1219,Left,1,55,80,233.0,0.989583,Quarter,G3_F4
1222,Left,1,55,80,233.5,0.489583,Quarter,G3
1223,Right,0,67,80,233.75,0.239583,Eighth,G4
1224,Left,1,55,80,234.0,0.489583,Quarter,G3_D#4
1226,Right,0,72,80,234.0,0.489583,Quarter,C5
1228,Right,0,65,80,234.5,0.239583,Eighth,F4
1227,Left,1,56,80,234.5,0.489583,Quarter,G#3
1229,Right,0,62,80,234.75,0.239583,Eighth,D4
1230,Right,0,65,80,235.0,0.239583,Eighth,F4
1231,Left,1,55,80,235.0,0.489583,Quarter,G3
1232,Right,0,62,80,235.25,0.239583,Eighth,D4
1233,Right,0,65,80,235.5,0.239583,Eighth,F4
1234,Left,1,53,80,235.5,0.489583,Quarter,F3
1235,Right,0,62,80,235.75,0.239583,Eighth,D4
1236,Right,0,65,80,236.0,0.239583,Eighth,F4
1237,Left,1,50,80,236.0,0.489583,Quarter,D3
1238,Right,0,62,80,236.25,0.239583,Eighth,D4
1239,Right,0,65,80,236.5,0.239583,Eighth,F4
1240,Left,1,47,80,236.5,0.489583,Quarter,B2
1241,Right,0,62,80,236.75,0.239583,Eighth,D4
1243,Left,1,44,104,237.0,0.739583,DottedQuarter,G#2
1242,Right,0,65,80,237.0,0.239583,Eighth,F4
1244,Right,0,62,80,237.25,0.239583,Eighth,D4
1245,Right,0,65,80,237.5,0.489583,Eighth,F4_B4
1248,Left,1,43,80,237.75,0.239583,Eighth,G2
1247,Right,0,62,80,237.75,0.239583,Eighth,D4
1249,Right,0,72,80,238.0,0.489583,Quarter,D#4_C5
1251,Left,1,48,80,238.0,0.489583,Quarter,C3
1252,Right,0,60,80,238.25,0.239583,Eighth,C4
1254,Right,0,63,80,238.5,0.239583,Eighth,D#4
1253,Left,1,54,80,238.5,0.489583,Quarter,F#3
1255,Right,0,60,80,238.75,0.239583,Eighth,C4
1256,Right,0,63,80,239.0,0.239583,Eighth,D#4
1257,Left,1,53,80,239.0,0.489583,Quarter,F3
1258,Right,0,60,80,239.25,0.239583,Eighth,C4
1260,Right,0,63,80,239.5,0.239583,Eighth,D#4
1259,Left,1,51,80,239.5,0.489583,Quarter,D#3
1261,Right,0,60,80,239.75,0.239583,Eighth,C4
1262,Left,1,48,80,240.0,0.489583,Quarter,C3
1263,Right,0,63,80,240.0,0.239583,Eighth,D#4
1264,Right,0,60,80,240.25,0.239583,Eighth,C4
1266,Left,1,45,80,240.5,0.489583,Quarter,A2
1265,Right,0,63,80,240.5,0.239583,Eighth,D#4
1267,Right,0,60,80,240.75,0.239583,Eighth,C4
1269,Right,0,63,80,241.0,0.239583,Eighth,D#4
1268,Left,1,42,101,241.0,0.739583,DottedQuarter,F#2
1270,Right,0,60,80,241.25,0.239583,Eighth,C4
1271,Right,0,69,80,241.5,0.489583,Quarter,D#4_A4
1273,Left,1,41,80,241.75,0.239583,Eighth,F2
1274,Right,0,60,80,241.75,0.239583,Eighth,C4
1275,Right,0,70,80,242.0,0.489583,Quarter,C#4_A#4
1276,Left,1,46,80,242.0,0.489583,Quarter,A#2
1278,Right,0,58,80,242.25,0.239583,Eighth,A#3
1280,Left,1,52,80,242.5,0.489583,Quarter,E3
1279,Right,0,61,80,242.5,0.239583,Eighth,C#4
1281,Right,0,58,80,242.75,0.239583,Eighth,A#3
1283,Right,0,61,80,243.0,0.239583,Eighth,C#4
1282,Left,1,51,80,243.0,0.489583,Quarter,D#3
1284,Right,0,58,80,243.25,0.239583,Eighth,A#3
1285,Right,0,61,80,243.5,0.239583,Eighth,C#4
1286,Left,1,49,80,243.5,0.489583,Quarter,C#3
1287,Right,0,58,80,243.75,0.239583,Eighth,A#3
1288,Right,0,61,80,244.0,0.239583,Eighth,C#4
1289,Left,1,46,80,244.0,0.489583,Quarter,A#2
1290,Right,0,58,80,244.25,0.239583,Eighth,A#3
1292,Left,1,43,80,244.5,0.489583,Quarter,G2
1291,Right,0,61,80,244.5,0.239583,Eighth,C#4
1293,Right,0,58,80,244.75,0.239583,Eighth,A#3
1295,Left,1,40,80,245.0,0.489583,Quarter,E2
1294,Right,0,61,80,245.0,0.239583,Eighth,C#4
1296,Right,0,58,80,245.25,0.239583,Eighth,A#3
1297,Left,1,39,80,245.5,0.989583,Half,D#2
1298,Right,0,61,80,245.5,0.239583,Eighth,C#4
1299,Right,0,58,80,245.75,0.239583,Eighth,A#3
1300,Right,0,61,80,246.0,0.989583,Eighth,G4_C#4
1302,Right,0,58,80,246.25,0.239583,Eighth,A#3
1304,Left,1,51,108,246.5,0.989583,Half,D#3
1303,Right,0,61,80,246.5,0.239583,Eighth,C#4
1305,Right,0,58,80,246.75,0.239583,Eighth,A#3
1306,Right,0,60,80,247.0,0.239583,Eighth,C4
1307,Right,0,56,80,247.25,0.239583,Eighth,G#3
1308,Left,1,48,80,247.5,0.989583,Half,C3
1309,Right,0,63,80,247.5,0.239583,Eighth,D#4
1310,Right,0,56,80,247.75,0.239583,Eighth,G#3
1311,Right,0,63,80,248.0,0.989583,Eighth,G#4_D#4
1313,Right,0,56,80,248.25,0.239583,Eighth,G#3
1315,Left,1,36,80,248.5,0.989583,Half,C2
1314,Right,0,63,80,248.5,0.239583,Eighth,D#4
1316,Right,0,56,80,248.75,0.239583,Eighth,G#3
1317,Right,0,61,80,249.0,0.239583,Eighth,C#4
1318,Right,0,56,80,249.25,0.239583,Eighth,G#3
1320,Left,1,37,80,249.5,0.989583,Half,C#2
1319,Right,0,61,80,249.5,0.239583,Eighth,C#4
1321,Right,0,56,80,249.75,0.239583,Eighth,G#3
1322,Right,0,61,80,250.0,0.989583,Eighth,F4_C#4
1324,Right,0,56,80,250.25,0.239583,Eighth,G#3
1325,Right,0,61,80,250.5,0.239583,Eighth,C#4
1326,Left,1,49,105,250.5,0.989583,Half,C#3
1327,Right,0,56,80,250.75,0.239583,Eighth,G#3
1328,Right,0,58,80,251.0,0.239583,Eighth,A#3
1329,Right,0,55,80,251.25,0.239583,Eighth,G3
1330,Right,0,61,80,251.5,0.239583,Eighth,C#4
1331,Left,1,46,80,251.5,0.989583,Half,A#2
1332,Right,0,55,80,251.75,0.239583,Eighth,G3
1333,Right,0,67,105,252.0,0.989583,Half,G4_C#4
1335,Right,0,55,80,252.25,0.239583,Eighth,G3
1337,Right,0,61,80,252.5,0.239583,Eighth,C#4
1336,Left,1,34,80,252.5,0.989583,Half,A#1
1338,Right,0,55,80,252.75,0.239583,Eighth,G3
1339,Right,0,60,80,253.0,0.239583,Eighth,C4
1340,Right,0,55,80,253.25,0.239583,Eighth,G3
1341,Right,0,60,80,253.5,0.239583,Eighth,C4
1342,Left,1,36,80,253.5,0.989583,Half,C2
1343,Right,0,55,80,253.75,0.239583,Eighth,G3
1344,Right,0,64,80,254.0,0.989583,Half,E4_C4
1346,Right,0,55,80,254.25,0.239583,Eighth,G3
1348,Right,0,60,80,254.5,0.239583,Eighth,C4
1347,Left,1,48,104,254.5,0.989583,Half,C3
1349,Right,0,55,80,254.75,0.239583,Eighth,G3
1350,Right,0,56,80,255.0,0.239583,Eighth,G#3
1351,Right,0,53,80,255.25,0.239583,Eighth,F3
1352,Left,1,44,80,255.5,0.989583,Half,G#2
1353,Right,0,60,80,255.5,0.239583,Eighth,C4
1354,Right,0,53,80,255.75,0.239583,Eighth,F3
1355,Right,0,60,80,256.0,0.989583,Eighth,F4_C4
1357,Right,0,53,80,256.25,0.239583,Eighth,F3
1358,Left,1,32,80,256.5,0.489583,Quarter,G#1
1359,Right,0,60,80,256.5,0.239583,Eighth,C4
1360,Right,0,53,80,256.75,0.239583,Eighth,F3
1361,Right,0,61,80,257.0,0.239583,Eighth,C#4
1362,Right,0,53,80,257.25,0.239583,Eighth,F3
1363,Left,1,34,80,257.5,0.989583,Half,A#1
1364,Right,0,61,80,257.5,0.239583,Eighth,C#4
1365,Right,0,53,80,257.75,0.239583,Eighth,F3
1366,Right,0,61,80,258.0,0.989583,Eighth,F4_C#4
1368,Right,0,53,80,258.25,0.239583,Eighth,F3
1369,Right,0,61,80,258.5,0.239583,Eighth,C#4
1370,Left,1,46,80,258.5,0.489583,Quarter,A#2
1371,Right,0,53,80,258.75,0.239583,Eighth,F3
1372,Right,0,62,90,259.0,0.239583,Eighth,D4
1373,Right,0,53,92,259.25,0.239583,Eighth,F3
1374,Right,0,62,95,259.5,0.239583,Eighth,G#3_F4_D4
1376,Left,1,35,95,259.5,0.989583,Half,B1
1378,Right,0,53,98,259.75,0.239583,Eighth,F3
1379,Right,0,56,101,260.0,0.239583,Eighth,G#3_F4_D4
1382,Right,0,53,104,260.25,0.239583,Eighth,F3
1386,Left,1,47,107,260.5,0.489583,Quarter,B2
1383,Right,0,56,107,260.5,0.239583,Eighth,G#3_F4_D4
1387,Right,0,53,109,260.75,0.239583,Eighth,F3
1389,Right,0,60,112,261.0,0.489583,Quarter,G3_E4_C4
1388,Left,1,36,110,261.0,0.239583,Eighth,C2
1392,Left,1,48,100,261.25,0.239583,Eighth,C3
1393,Left,1,52,100,261.5,0.239583,Eighth,E3
1394,Left,1,48,100,261.75,0.239583,Eighth,C3
1395,Left,1,52,100,262.0,0.239583,Eighth,E3
1396,Left,1,48,100,262.25,0.239583,Eighth,C3
1397,Left,1,52,100,262.5,0.239583,Eighth,E3
1398,Right,0,72,100,262.5,0.489583,Quarter,C5
1399,Left,1,48,100,262.75,0.239583,Eighth,C3
1400,Right,0,68,100,263.0,0.489583,Quarter,G#4
1401,Left,1,53,100,263.0,0.239583,Eighth,F3
1402,Left,1,48,100,263.25,0.239583,Eighth,C3
1403,Left,1,53,100,263.5,0.239583,Eighth,F3
1404,Left,1,48,100,263.75,0.239583,Eighth,C3
1405,Left,1,53,100,264.0,0.239583,Eighth,F3
1406,Left,1,48,100,264.25,0.239583,Eighth,C3
1407,Right,0,77,100,264.5,0.489583,Quarter,F5
1408,Left,1,56,100,264.5,0.239583,Eighth,G#3
1409,Left,1,48,100,264.75,0.239583,Eighth,C3
1411,Left,1,55,100,265.0,0.239583,Eighth,G3
1410,Right,0,76,100,265.0,0.489583,Quarter,E5
1412,Left,1,48,100,265.25,0.239583,Eighth,C3
1413,Left,1,55,100,265.5,0.239583,Eighth,G3
1414,Left,1,48,100,265.75,0.239583,Eighth,C3
1415,Left,1,55,100,266.0,0.239583,Eighth,G3
1416,Left,1,48,100,266.25,0.239583,Eighth,C3
1418,Right,0,84,100,266.5,0.489583,Quarter,C6
1417,Left,1,58,100,266.5,0.239583,Eighth,A#3
1419,Left,1,48,100,266.75,0.239583,Eighth,C3
1420,Left,1,56,100,267.0,0.239583,Eighth,G#3
1421,Right,0,77,100,267.0,0.489583,Quarter,F5
1422,Left,1,48,100,267.25,0.239583,Eighth,C3
1423,Left,1,60,100,267.5,0.239583,Eighth,C4
1424,Left,1,48,100,267.75,0.239583,Eighth,C3
1426,Left,1,59,100,268.0,0.239583,Eighth,B3
1425,Right,0,77,115,268.0,0.989583,Half,F6_F5
1428,Left,1,48,100,268.25,0.239583,Eighth,C3
1429,Left,1,62,100,268.5,0.239583,Eighth,D4
1430,Left,1,48,100,268.75,0.239583,Eighth,C3
1431,Left,1,60,100,269.0,0.239583,Eighth,C4
1432,Right,0,88,100,269.0,0.489583,Quarter,E6_E5
1434,Left,1,48,100,269.25,0.239583,Eighth,C3
1435,Left,1,52,100,269.5,0.239583,Eighth,E3
1436,Left,1,48,100,269.75,0.239583,Eighth,C3
1437,Left,1,52,100,270.0,0.239583,Eighth,E3
1438,Left,1,48,100,270.25,0.239583,Eighth,C3
1439,Left,1,52,100,270.5,0.239583,Eighth,E3
1440,Right,0,72,100,270.5,0.239583,Eighth,C5
1441,Right,0,73,100,270.625,0.239583,Eighth,C#5
1442,Left,1,48,100,270.75,0.239583,Eighth,C3
1443,Right,0,71,100,270.75,0.239583,Eighth,B4
1444,Right,0,72,100,270.875,0.114583,Sixteenth,C5
1445,Left,1,53,100,271.0,0.239583,Eighth,F3
1446,Right,0,68,100,271.0,0.489583,Quarter,G#4
1447,Left,1,48,100,271.25,0.239583,Eighth,C3
1449,Left,1,53,100,271.5,0.239583,Eighth,F3
1448,Right,0,68,100,271.5,0.489583,Quarter,G#4
1450,Left,1,48,100,271.75,0.239583,Eighth,C3
1451,Left,1,53,100,272.0,0.239583,Eighth,F3
1452,Left,1,48,100,272.25,0.239583,Eighth,C3
1453,Left,1,56,100,272.5,0.239583,Eighth,G#3
1454,Right,0,77,100,272.5,0.239583,Eighth,F5
1455,Right,0,79,100,272.625,0.239583,Eighth,G5
1457,Right,0,76,100,272.75,0.239583,Eighth,E5
1456,Left,1,48,100,272.75,0.239583,Eighth,C3
1458,Right,0,77,100,272.875,0.114583,Sixteenth,F5
1460,Left,1,55,100,273.0,0.239583,Eighth,G3
1459,Right,0,76,100,273.0,0.489583,Quarter,E5
1461,Left,1,48,100,273.25,0.239583,Eighth,C3
1462,Left,1,55,100,273.5,0.239583,Eighth,G3
1463,Right,0,76,100,273.5,0.489583,Quarter,E5
1464,Left,1,48,100,273.75,0.239583,Eighth,C3
1465,Left,1,55,100,274.0,0.239583,Eighth,G3
1466,Left,1,48,100,274.25,0.239583,Eighth,C3
1467,Right,0,84,100,274.5,0.239583,Eighth,C6
1468,Left,1,58,100,274.5,0.239583,Eighth,A#3
1469,Right,0,85,100,274.625,0.239583,Eighth,C#6
1471,Right,0,83,100,274.75,0.239583,Eighth,B5
1470,Left,1,48,100,274.75,0.239583,Eighth,C3
1472,Right,0,84,100,274.875,0.114583,Sixteenth,C6
1474,Left,1,56,100,275.0,0.239583,Eighth,G#3
1473,Right,0,77,100,275.0,0.489583,Quarter,F5
1475,Left,1,48,100,275.25,0.239583,Eighth,C3
1477,Left,1,60,100,275.5,0.239583,Eighth,C4
1476,Right,0,77,100,275.5,0.489583,Quarter,F5
1478,Left,1,48,100,275.75,0.239583,Eighth,C3
1479,Left,1,59,100,276.0,0.239583,Eighth,B3
1480,Left,1,48,100,276.25,0.239583,Eighth,C3
1483,Left,1,62,100,276.5,0.239583,Eighth,D4
1481,Right,0,77,100,276.5,0.489583,Quarter,F6_F5
1484,Left,1,48,100,276.75,0.239583,Eighth,C3
1487,Left,1,60,100,277.0,0.239583,Eighth,C4
1485,Right,0,76,100,277.0,0.489583,Quarter,E6_E5
1488,Left,1,48,100,277.25,0.239583,Eighth,C3
1490,Left,1,60,100,277.5,0.239583,Eighth,C4
1489,Right,0,88,100,277.5,0.489583,Quarter,E6_E5
1492,Left,1,48,100,277.75,0.239583,Eighth,C3
1493,Left,1,58,100,278.0,0.239583,Eighth,A#3
1494,Left,1,48,100,278.25,0.239583,Eighth,C3
1496,Right,0,85,100,278.5,0.489583,Quarter,C#6_C#5
1495,Left,1,58,100,278.5,0.239583,Eighth,A#3
1498,Left,1,48,100,278.75,0.239583,Eighth,C3
1499,Right,0,84,100,279.0,0.489583,Quarter,C6_C5
1501,Left,1,56,100,279.0,0.239583,Eighth,G#3
1502,Left,1,48,100,279.25,0.239583,Eighth,C3
1503,Left,1,60,100,279.5,0.239583,Eighth,C4
1504,Right,0,72,100,279.5,0.489583,Quarter,C6_C5
1506,Left,1,48,100,279.75,0.239583,Eighth,C3
1507,Left,1,59,100,280.0,0.239583,Eighth,B3
1508,Left,1,48,100,280.25,0.239583,Eighth,C3
1509,Left,1,62,100,280.5,0.239583,Eighth,D4
1510,Right,0,89,100,280.5,0.489583,Quarter,F6_F5
1512,Left,1,48,99,280.75,0.239583,Eighth,C3
1514,Right,0,88,97,281.0,0.489583,Quarter,E6_E5
1513,Left,1,60,97,281.0,0.239583,Eighth,C4
1516,Left,1,48,95,281.25,0.239583,Eighth,C3
1517,Right,0,88,93,281.5,0.489583,Quarter,E6_E5
1518,Left,1,60,93,281.5,0.239583,Eighth,C4
1520,Left,1,48,92,281.75,0.239583,Eighth,C3
1521,Left,1,58,90,282.0,0.239583,Eighth,A#3
1522,Left,1,48,88,282.25,0.239583,Eighth,C3
1525,Left,1,58,86,282.5,0.239583,Eighth,A#3
1523,Right,0,85,86,282.5,0.489583,Quarter,C#6_C#5
1526,Left,1,48,85,282.75,0.239583,Eighth,C3
1529,Left,1,56,83,283.0,0.239583,Eighth,G#3
1527,Right,0,84,83,283.0,0.489583,Quarter,C6_C5
1530,Left,1,48,81,283.25,0.239583,Eighth,C3
1533,Left,1,60,79,283.5,0.239583,Eighth,C4
1531,Right,0,84,79,283.5,0.489583,Quarter,C6_C5
1534,Left,1,48,78,283.75,0.239583,Eighth,C3
1535,Left,1,59,76,284.0,0.239583,Eighth,B3
1536,Left,1,48,74,284.25,0.239583,Eighth,C3
1537,Right,0,77,72,284.5,0.489583,Quarter,F6_F5
1539,Left,1,62,72,284.5,0.239583,Eighth,D4
1540,Left,1,48,71,284.75,0.239583,Eighth,C3
1541,Right,0,88,70,285.0,0.489583,Quarter,E6_E5
1543,Left,1,60,70,285.0,0.489583,Quarter,C4
1544,Left,1,60,70,285.5,0.489583,Quarter,C4
1545,Left,1,60,70,286.0,0.489583,Quarter,C4
1546,Left,1,60,70,286.5,0.489583,Quarter,C4
1547,Left,1,60,70,287.0,0.489583,Quarter,C4
1548,Left,1,60,70,287.5,0.489583,Quarter,C4
1549,Left,1,60,70,288.0,0.489583,Quarter,C4
1550,Left,1,60,70,288.5,0.489583,Quarter,C4
1551,Left,1,60,70,289.0,0.489583,Quarter,C4_C#4
1553,Left,1,60,70,289.5,0.489583,Quarter,C4_C#4
1555,Right,0,68,70,289.75,0.15625,Triplet,G#4
1556,Right,0,66,70,289.833333,0.15625,Triplet,F#4
1557,Right,0,65,70,289.916667,0.15625,Triplet,F4
1559,Right,0,66,70,290.0,0.489583,Quarter,F#4
1558,Left,1,60,70,290.0,0.489583,Quarter,C4_C#4
1561,Left,1,60,70,290.5,0.489583,Quarter,C4_C#4
1563,Left,1,61,70,291.0,0.489583,Quarter,C#4_A#3
1565,Left,1,58,70,291.5,0.489583,Quarter,C#4_A#3
1567,Right,0,87,70,291.75,0.15625,Triplet,D#6
1568,Right,0,85,70,291.833333,0.15625,Triplet,C#6
1569,Right,0,84,70,291.916667,0.15625,Triplet,C6
1571,Left,1,61,70,292.0,0.489583,Quarter,C#4_A#3
1570,Right,0,85,70,292.0,0.489583,Quarter,C#6
1573,Left,1,61,70,292.5,0.489583,Quarter,C#4_A#3
1575,Left,1,60,70,293.0,0.489583,Quarter,C4_A#3
1577,Left,1,58,71,293.5,0.489583,Quarter,C4_A#3
1579,Right,0,65,72,293.75,0.15625,Triplet,F4
1580,Right,0,64,73,293.833333,0.15625,Triplet,E4
1581,Right,0,62,73,293.916667,0.15625,Triplet,D4
1584,Right,0,64,73,294.0,0.489583,Quarter,E4
1582,Left,1,58,73,294.0,0.489583,Quarter,C4_A#3
1585,Left,1,58,75,294.5,0.489583,Quarter,C4_A#3
1587,Left,1,56,77,295.0,0.489583,Quarter,G#3_C4
1589,Left,1,56,79,295.5,0.489583,Quarter,G#3_C4
1591,Right,0,85,80,295.75,0.15625,Triplet,C#6
1592,Right,0,84,80,295.833333,0.15625,Triplet,C6
1593,Right,0,83,81,295.916667,0.15625,Triplet,B5
1595,Right,0,84,81,296.0,0.489583,Quarter,C6
1594,Left,1,56,81,296.0,0.489583,Quarter,G#3_C4
1597,Left,1,56,83,296.5,0.489583,Quarter,G#3_C4
1599,Left,1,56,85,297.0,0.489583,Quarter,G#3_A#3
1601,Left,1,56,87,297.5,0.489583,Quarter,G#3_A#3
1603,Right,0,63,88,297.75,0.15625,Triplet,D#4
1604,Right,0,62,88,297.833333,0.15625,Triplet,D4
1605,Right,0,60,89,297.916667,0.15625,Triplet,C4
1607,Left,1,56,89,298.0,0.489583,Quarter,G#3_A#3
1606,Right,0,62,89,298.0,0.489583,Quarter,D4
1609,Left,1,56,91,298.5,0.489583,Quarter,G#3_A#3
1611,Left,1,58,93,299.0,0.489583,Quarter,G3_E4_A#3
1614,Left,1,64,95,299.5,0.489583,Quarter,G3_E4_A#3
1617,Right,0,84,96,299.75,0.15625,Triplet,C6
1618,Right,0,82,96,299.833333,0.15625,Triplet,A#5
1619,Right,0,81,96,299.916667,0.15625,Triplet,A5
1622,Right,0,82,97,300.0,0.489583,Quarter,A#5
1620,Left,1,58,97,300.0,0.489583,Quarter,G3_E4_A#3
1624,Left,1,55,98,300.5,0.489583,Quarter,G3_E4_A#3
1627,Left,1,60,115,301.0,0.489583,Quarter,G#3_F3_C4
1629,Right,0,65,115,301.0,0.489583,Quarter,F4
1631,Right,0,68,115,301.5,0.489583,Quarter,G#4
1632,Right,0,72,115,302.0,0.489583,Quarter,C5
1633,Right,0,77,115,302.5,0.489583,Quarter,F5
1634,Right,0,80,115,303.0,0.739583,DottedQuarter,G#5
1635,Left,1,60,115,303.5,0.489583,Quarter,G#3_F3_C4
1638,Right,0,79,115,303.75,0.15625,Triplet,G5
1639,Right,0,77,115,303.833333,0.15625,Triplet,F5
1640,Right,0,76,115,303.916667,0.15625,Triplet,E5
1641,Left,1,56,115,304.0,0.489583,Quarter,G#3_F3_C4
1643,Right,0,77,115,304.0,0.489583,Quarter,F5
1645,Left,1,60,115,304.5,0.489583,Quarter,G#3_F3_C4
1648,Right,0,67,115,305.0,0.489583,Quarter,G4
1649,Left,1,55,115,305.0,0.489583,Quarter,G3_E3_C4_A#3
1653,Right,0,72,115,305.5,0.489583,Quarter,C5
1654,Right,0,76,115,306.0,0.489583,Quarter,E5
1655,Right,0,79,115,306.5,0.489583,Quarter,G5
1656,Right,0,82,115,307.0,0.739583,DottedQuarter,A#5
1657,Left,1,58,115,307.5,0.489583,Quarter,G3_E3_C4_A#3
1661,Right,0,80,115,307.75,0.15625,Triplet,G#5
1662,Right,0,79,115,307.833333,0.15625,Triplet,G5
1663,Right,0,77,115,307.916667,0.15625,Triplet,F5
1665,Left,1,52,115,308.0,0.489583,Quarter,G3_E3_C4_A#3
1664,Right,0,79,115,308.0,0.489583,Quarter,G5
1669,Left,1,55,115,308.5,0.489583,Quarter,G3_E3_C4_A#3
1674,Right,0,72,115,309.0,0.15625,Triplet,C5
1673,Left,1,56,115,309.0,0.989583,Half,G#3_F3_C4
1677,Right,0,80,115,309.083333,0.65625,TiedQuarter-Sixteenth,G#5
1678,Right,0,79,115,309.75,0.15625,Triplet,G5
1679,Right,0,77,115,309.833333,0.15625,Triplet,F5
1680,Right,0,76,115,309.916667,0.15625,Triplet,E5
1681,Right,0,77,115,310.0,0.489583,Quarter,F5
1683,Left,1,64,115,311.0,0.989583,Half,G3_E4_A#3
1682,Right,0,72,115,311.0,0.322917,DottedEighth,C5
1686,Right,0,82,115,311.083333,0.65625,TiedQuarter-Sixteenth,A#5
1687,Right,0,80,115,311.75,0.15625,Triplet,G#5
1688,Right,0,79,115,311.833333,0.15625,Triplet,G5
1689,Right,0,77,115,311.916667,0.15625,Triplet,F5
1690,Right,0,79,115,312.0,0.489583,Quarter,G5
1691,Left,1,65,120,313.0,0.489583,Quarter,G#3_F4_C4
1693,Right,0,72,120,313.0,0.989583,Half,C5
1695,Right,0,77,120,313.083333,0.90625,Half,F5
1696,Right,0,80,120,313.166667,0.822917,DottedQuarter,G#5
1697,Right,0,84,119,313.25,0.739583,DottedQuarter,C6
1698,Left,1,58,115,314.0,0.489583,Quarter,G4_C#4_A#3
1701,Right,0,82,115,314.0,0.239583,Eighth,A#5
1702,Right,0,80,114,314.25,0.239583,Eighth,G#5
1703,Right,0,79,113,314.5,0.239583,Eighth,G5
1704,Right,0,77,112,314.75,0.239583,Eighth,F5
1706,Left,1,67,110,315.0,0.489583,Quarter,G4_C4
1705,Right,0,76,110,315.0,0.15625,Triplet,E5
1708,Right,0,77,110,315.083333,0.15625,Triplet,F5
1709,Right,0,79,110,315.166667,0.15625,Triplet,G5
1710,Right,0,77,109,315.25,0.739583,DottedQuarter,F5
1711,Left,1,60,80,316.5,0.989583,Half,G4_C4
1713,Right,0,76,80,316.5,0.989583,Half,E5
1714,Left,1,48,80,318.5,0.489583,Quarter,C3
1715,Left,1,53,80,319.0,0.489583,Quarter,F3
1716,Left,1,56,80,319.5,0.489583,Quarter,G#3
1717,Left,1,60,80,320.0,0.489583,Quarter,C4
1718,Left,1,65,80,320.5,0.489583,Quarter,F4
1719,Left,1,68,80,321.0,0.739583,DottedQuarter,G#4
1720,Left,1,67,80,321.75,0.15625,Triplet,G4
1721,Left,1,65,80,321.833333,0.15625,Triplet,F4
1722,Left,1,64,80,321.916667,0.15625,Triplet,E4
1723,Left,1,65,80,322.0,0.489583,Quarter,F4
1724,Left,1,65,80,322.5,0.489583,Quarter,F4
1725,Left,1,66,80,323.0,1.989583,Whole,F4_F#4
1726,Right,0,82,80,323.0,0.739583,DottedQuarter,A#5
1728,Right,0,80,80,323.75,0.15625,Triplet,G#5
1729,Right,0,78,80,323.833333,0.15625,Triplet,F#5
1730,Right,0,77,80,323.916667,0.15625,Triplet,F5
1731,Right,0,78,80,324.0,0.489583,Quarter,F#5
1732,Right,0,78,80,324.5,0.489583,Quarter,F#5
1733,Right,0,78,80,325.0,2.739583,Unknown,F#5
1734,Left,1,66,80,325.0,1.989583,Whole,F#4_D#4
1736,Right,0,73,80,325.75,0.15625,Triplet,C#5
1737,Right,0,72,80,325.833333,0.15625,Triplet,C5
1738,Right,0,71,80,325.916667,0.15625,Triplet,B4
1739,Right,0,72,80,326.0,0.489583,Quarter,C5
1740,Right,0,72,80,326.5,0.489583,Quarter,C5
1743,Right,0,72,80,327.0,2.739583,Unknown,C5
1741,Left,1,69,80,327.0,1.989583,Whole,D#4_A4
1744,Right,0,78,80,327.75,0.15625,Triplet,F#5
1745,Right,0,77,80,327.833333,0.15625,Triplet,F5
1746,Right,0,76,80,327.916667,0.15625,Triplet,E5
1747,Right,0,77,80,328.0,0.489583,Quarter,F5
1748,Right,0,77,80,328.5,0.489583,Quarter,F5
1750,Left,1,61,80,329.0,1.989583,Whole,F4_C#4
1749,Right,0,77,80,329.0,1.989583,Whole,F5
1752,Right,0,72,80,329.75,0.15625,Triplet,C5
1753,Right,0,70,80,329.833333,0.15625,Triplet,A#4
1754,Right,0,69,80,329.916667,0.15625,Triplet,A4
1755,Right,0,70,80,330.0,0.489583,Quarter,A#4
1756,Right,0,70,80,330.5,0.489583,Quarter,A#4
1757,Left,1,65,80,331.0,3.989583,DottedHalf,F4_D4
1759,Right,0,79,80,331.75,0.15625,Triplet,G5
1760,Right,0,77,80,331.833333,0.15625,Triplet,F5
1761,Right,0,76,80,331.916667,0.15625,Triplet,E5
1762,Right,0,77,80,332.0,0.489583,Quarter,F5
1763,Right,0,79,80,332.5,0.489583,Quarter,G5
1764,Left,1,64,80,332.5,0.489583,Quarter,E4
1765,Right,0,80,80,333.0,0.489583,Quarter,G#5
1766,Left,1,65,80,333.0,0.489583,Quarter,F4
1768,Right,0,76,80,333.5,0.489583,Quarter,E5
1767,Left,1,67,80,333.5,0.489583,Quarter,G4
1769,Right,0,77,80,334.0,0.489583,Quarter,F5
1770,Left,1,68,80,334.0,0.489583,Quarter,G#4
1771,Right,0,71,80,334.5,0.489583,Quarter,B4
1772,Left,1,65,80,334.5,0.489583,Quarter,F4
1775,Right,0,72,80,335.0,0.489583,Quarter,C5
1773,Left,1,64,80,335.0,2.989583,Quarter,E4_C4
1777,Left,1,67,83,335.5,0.489583,Quarter,G4
1776,Right,0,76,83,335.5,0.489583,Quarter,E5
1779,Left,1,65,86,336.0,0.489583,Quarter,F4
1778,Right,0,77,86,336.0,0.489583,Quarter,F5
1780,Right,0,79,89,336.5,0.489583,Quarter,G5
1781,Left,1,64,89,336.5,0.489583,Quarter,E4
1782,Left,1,65,90,337.0,0.489583,Quarter,F4
1783,Right,0,80,90,337.0,0.489583,Quarter,G#5
1784,Left,1,70,87,337.5,0.489583,Quarter,A#4
1785,Right,0,76,87,337.5,0.489583,Quarter,E5
1786,Left,1,68,84,338.0,0.989583,Quarter,G#4_C#4
1788,Right,0,77,84,338.0,0.489583,Quarter,F5
1790,Left,1,65,81,338.5,0.489583,Quarter,F4
1789,Right,0,71,81,338.5,0.489583,Quarter,B4
1793,Left,1,48,100,339.0,0.239583,Eighth,C3
1791,Right,0,72,100,339.0,0.489583,Quarter,E4_C5
1794,Left,1,60,80,339.25,0.239583,Eighth,C4
1795,Left,1,48,80,339.5,0.239583,Eighth,C3
1796,Left,1,60,80,339.75,0.239583,Eighth,C4
1797,Left,1,48,80,340.0,0.239583,Eighth,C3
1798,Left,1,60,80,340.25,0.239583,Eighth,C4
1799,Right,0,73,80,340.5,0.489583,Quarter,C#5
1800,Left,1,48,80,340.5,0.239583,Eighth,C3
1801,Left,1,60,80,340.75,0.239583,Eighth,C4
1802,Right,0,72,80,341.0,0.489583,Quarter,C5
1803,Left,1,48,80,341.0,0.239583,Eighth,C3
1804,Left,1,60,80,341.25,0.239583,Eighth,C4
1805,Left,1,48,80,341.5,0.239583,Eighth,C3
1806,Right,0,70,80,341.5,0.489583,Quarter,A#4
1807,Left,1,60,80,341.75,0.239583,Eighth,C4
1808,Left,1,48,80,342.0,0.239583,Eighth,C3
1809,Right,0,67,80,342.0,0.489583,Quarter,G4
1810,Left,1,60,80,342.25,0.239583,Eighth,C4
1811,Right,0,64,80,342.5,0.489583,Quarter,E4
1812,Left,1,48,80,342.5,0.239583,Eighth,C3
1813,Left,1,60,80,342.75,0.239583,Eighth,C4
1815,Right,0,61,104,343.0,0.739583,DottedQuarter,C#4
1814,Left,1,58,80,343.0,0.989583,Half,C3_A#3
1817,Left,1,48,80,343.5,0.489583,Quarter,C3
1818,Right,0,60,80,343.75,0.239583,Eighth,C4
1821,Right,0,65,80,344.0,0.489583,Quarter,F4
1819,Left,1,48,80,344.0,0.489583,Eighth,G#3_C3
1822,Left,1,60,80,344.25,0.239583,Eighth,C4
1823,Left,1,48,80,344.5,0.239583,Eighth,C3
1824,Right,0,85,80,344.5,0.489583,Quarter,C#6
1825,Left,1,60,80,344.75,0.239583,Eighth,C4
1826,Left,1,48,80,345.0,0.239583,Eighth,C3
1827,Right,0,84,80,345.0,0.489583,Quarter,C6
1828,Left,1,60,80,345.25,0.239583,Eighth,C4
1829,Left,1,48,80,345.5,0.239583,Eighth,C3
1830,Right,0,82,80,345.5,0.489583,Quarter,A#5
1831,Left,1,60,80,345.75,0.239583,Eighth,C4
1832,Left,1,48,80,346.0,0.239583,Eighth,C3
1833,Right,0,79,80,346.0,0.489583,Quarter,G5
1834,Left,1,60,80,346.25,0.239583,Eighth,C4
1836,Right,0,76,80,346.5,0.489583,Quarter,E5
1835,Left,1,48,80,346.5,0.239583,Eighth,C3
1837,Left,1,60,80,346.75,0.239583,Eighth,C4
1839,Left,1,58,80,347.0,0.989583,Half,C3_A#3
1838,Right,0,73,112,347.0,0.739583,DottedQuarter,C#5
1841,Left,1,48,80,347.5,0.489583,Quarter,C3
1842,Right,0,72,80,347.75,0.239583,Eighth,C5
1844,Right,0,77,80,348.0,0.489583,Quarter,F5
1843,Left,1,56,80,348.0,0.489583,Quarter,G#3_C3
1846,Left,1,60,80,348.25,0.239583,Eighth,C4
1847,Left,1,48,80,348.5,0.239583,Eighth,C3
1848,Right,0,85,80,348.5,0.489583,Quarter,C#6
1849,Left,1,60,80,348.75,0.239583,Eighth,C4
1850,Right,0,84,80,349.0,0.489583,Quarter,C6
1851,Left,1,48,80,349.0,0.239583,Eighth,C3
1852,Left,1,60,80,349.25,0.239583,Eighth,C4
1854,Right,0,82,80,349.5,0.489583,Quarter,A#5
1853,Left,1,48,80,349.5,0.239583,Eighth,C3
1855,Left,1,60,80,349.75,0.239583,Eighth,C4
1856,Right,0,79,80,350.0,0.489583,Quarter,G5
1857,Left,1,58,80,350.0,0.239583,Eighth,A#3
1858,Left,1,60,80,350.25,0.239583,Eighth,C4
1860,Left,1,58,80,350.5,0.239583,Eighth,A#3
1859,Right,0,76,80,350.5,0.489583,Quarter,E5
1861,Left,1,60,80,350.75,0.239583,Eighth,C4
1862,Left,1,56,80,351.0,0.239583,Eighth,G#3
1863,Right,0,76,80,351.25,0.239583,Eighth,E5
1864,Left,1,65,80,351.25,0.239583,Eighth,F4
1865,Left,1,60,80,351.5,0.239583,Eighth,C4
1866,Right,0,79,80,351.5,0.239583,Eighth,G5
1868,Right,0,77,80,351.75,0.239583,Eighth,F5
1867,Left,1,65,80,351.75,0.239583,Eighth,F4
1869,Left,1,55,80,352.0,0.239583,Eighth,G3
1870,Right,0,77,80,352.25,0.239583,Eighth,F5
1871,Left,1,64,80,352.25,0.239583,Eighth,E4
1873,Right,0,80,80,352.5,0.239583,Eighth,G#5
1872,Left,1,58,80,352.5,0.239583,Eighth,A#3
1874,Right,0,79,80,352.75,0.239583,Eighth,G5
1875,Left,1,64,80,352.75,0.239583,Eighth,E4
1876,Left,1,53,80,353.0,0.239583,Eighth,F3
1878,Left,1,60,80,353.25,0.239583,Eighth,C4
1877,Right,0,79,80,353.25,0.239583,Eighth,G5
1880,Right,0,82,80,353.5,0.239583,Eighth,A#5
1879,Left,1,56,80,353.5,0.239583,Eighth,G#3
1882,Right,0,80,80,353.75,0.239583,Eighth,G#5
1881,Left,1,60,80,353.75,0.239583,Eighth,C4
1883,Left,1,49,80,354.0,0.239583,Eighth,C#3
1884,Right,0,83,80,354.25,0.239583,Eighth,B5
1885,Left,1,59,80,354.25,0.239583,Eighth,B3
1886,Right,0,89,80,354.5,0.239583,Eighth,F6
1887,Left,1,53,80,354.5,0.239583,Eighth,F3
1888,Left,1,59,80,354.75,0.239583,Eighth,B3
1889,Right,0,83,80,354.75,0.239583,Eighth,B5
1890,Right,0,84,80,355.0,0.489583,Quarter,C6
1891,Left,1,48,80,355.0,0.239583,Eighth,C3
1892,Left,1,60,80,355.25,0.239583,Eighth,C4
1893,Left,1,52,80,355.5,0.239583,Eighth,E3
1894,Left,1,60,80,355.75,0.239583,Eighth,C4
1895,Left,1,49,80,356.0,0.239583,Eighth,C#3
1897,Right,0,83,80,356.25,0.239583,Eighth,B5
1896,Left,1,59,80,356.25,0.239583,Eighth,B3
1899,Left,1,53,80,356.5,0.239583,Eighth,F3
1898,Right,0,89,80,356.5,0.239583,Eighth,F6
1900,Left,1,59,80,356.75,0.239583,Eighth,B3
1901,Right,0,83,80,356.75,0.239583,Eighth,B5
1903,Right,0,84,80,357.0,0.489583,Quarter,C6
1902,Left,1,48,80,357.0,0.239583,Eighth,C3
1904,Left,1,60,80,357.25,0.239583,Eighth,C4
1905,Left,1,52,80,357.5,0.239583,Eighth,E3
1906,Left,1,60,80,357.75,0.239583,Eighth,C4
1907,Left,1,46,80,358.0,0.239583,Eighth,A#2
1908,Left,1,55,80,358.25,0.239583,Eighth,G3
1909,Right,0,76,80,358.25,0.239583,Eighth,E5
1911,Right,0,85,80,358.5,0.239583,Eighth,C#6
1910,Left,1,49,80,358.5,0.239583,Eighth,C#3
1913,Left,1,55,80,358.75,0.239583,Eighth,G3
1912,Right,0,76,80,358.75,0.239583,Eighth,E5
1914,Right,0,77,80,359.0,0.489583,Quarter,F5
1915,Left,1,44,80,359.0,0.239583,Eighth,G#2
1916,Left,1,53,80,359.25,0.239583,Eighth,F3
1917,Left,1,48,80,359.5,0.239583,Eighth,C3
1918,Left,1,53,80,359.75,0.239583,Eighth,F3
1919,Left,1,46,80,360.0,0.239583,Eighth,A#2
1920,Left,1,55,80,360.25,0.239583,Eighth,G3
1921,Right,0,76,80,360.25,0.239583,Eighth,E5
1923,Right,0,85,80,360.5,0.239583,Eighth,C#6
1922,Left,1,49,80,360.5,0.239583,Eighth,C#3
1925,Left,1,55,80,360.75,0.239583,Eighth,G3
1924,Right,0,76,80,360.75,0.239583,Eighth,E5
1926,Left,1,44,80,361.0,0.239583,Eighth,G#2
1927,Left,1,53,81,361.25,0.239583,Eighth,F3
1928,Right,0,76,81,361.25,0.239583,Eighth,E5
1930,Left,1,48,83,361.5,0.239583,Eighth,C3
1929,Right,0,79,83,361.5,0.239583,Eighth,G5
1931,Left,1,53,85,361.75,0.239583,Eighth,F3
1932,Right,0,77,85,361.75,0.239583,Eighth,F5
1933,Left,1,40,87,362.0,0.239583,Eighth,E2
1934,Left,1,52,89,362.25,0.239583,Eighth,E3
1935,Right,0,77,89,362.25,0.239583,Eighth,F5
1937,Left,1,48,91,362.5,0.239583,Eighth,C3
1936,Right,0,80,91,362.5,0.239583,Eighth,G#5
1938,Left,1,52,93,362.75,0.239583,Eighth,E3
1939,Right,0,79,93,362.75,0.239583,Eighth,G5
1940,Left,1,41,95,363.0,0.239583,Eighth,F2
1941,Right,0,79,97,363.25,0.239583,Eighth,G5
1942,Left,1,53,97,363.25,0.239583,Eighth,F3
1944,Left,1,48,99,363.5,0.239583,Eighth,C3
1943,Right,0,82,99,363.5,0.239583,Eighth,A#5
1945,Left,1,53,101,363.75,0.239583,Eighth,F3
1946,Right,0,80,101,363.75,0.239583,Eighth,G#5
1947,Left,1,43,103,364.0,0.239583,Eighth,G2
1948,Left,1,55,105,364.25,0.239583,Eighth,G3
1949,Right,0,81,105,364.25,0.239583,Eighth,A5
1950,Left,1,48,107,364.5,0.239583,Eighth,C3
1951,Right,0,84,107,364.5,0.239583,Eighth,C6
1953,Right,0,82,109,364.75,0.239583,Eighth,A#5
1952,Left,1,55,109,364.75,0.239583,Eighth,G3
1954,Left,1,44,120,365.0,0.489583,Quarter,G#2
1955,Right,0,84,120,365.25,0.239583,Eighth,C6
1957,Left,1,48,120,365.5,0.989583,Half,C3
1956,Right,0,89,120,365.5,0.239583,Eighth,F6
1958,Right,0,87,120,365.75,0.239583,Eighth,D#6
1959,Right,0,85,120,366.0,0.239583,Eighth,C#6
1960,Right,0,84,120,366.25,0.239583,Eighth,C6
1961,Right,0,82,120,366.5,0.239583,Eighth,A#5
1962,Left,1,53,120,366.5,0.489583,Quarter,F3
1963,Right,0,80,120,366.75,0.239583,Eighth,G#5
1964,Right,0,79,120,367.0,0.239583,Eighth,G5
1965,Left,1,46,120,367.0,0.489583,Quarter,A#2
1966,Right,0,77,120,367.25,0.239583,Eighth,F5
1967,Left,1,49,120,367.5,0.989583,Half,C#3
1968,Right,0,75,120,367.5,0.239583,Eighth,D#5
1969,Right,0,73,120,367.75,0.239583,Eighth,C#5
1970,Right,0,72,120,368.0,0.239583,Eighth,C5
1971,Right,0,70,120,368.25,0.239583,Eighth,A#4
1972,Left,1,55,120,368.5,0.489583,Quarter,G3
1973,Right,0,68,120,368.5,0.239583,Eighth,G#4
1974,Right,0,67,120,368.75,0.239583,Eighth,G4
1975,Right,0,65,110,369.0,0.239583,Eighth,F4
1976,Left,1,48,110,369.0,0.489583,Quarter,C3
1977,Right,0,64,110,369.25,0.239583,Eighth,E4
1979,Right,0,61,110,369.5,0.239583,Eighth,C#4
1978,Left,1,53,110,369.5,0.989583,Half,F3
1980,Right,0,60,110,369.75,0.239583,Eighth,C4
1981,Right,0,59,110,370.0,0.239583,Eighth,B3
1982,Right,0,60,110,370.25,0.239583,Eighth,C4
1983,Left,1,56,110,370.5,0.489583,Quarter,G#3
1984,Right,0,59,110,370.5,0.239583,Eighth,B3
1985,Right,0,60,110,370.75,0.239583,Eighth,C4
1986,Left,1,58,80,371.0,0.489583,Quarter,A#3
1987,Right,0,59,80,371.0,0.239583,Eighth,B3
1988,Right,0,60,80,371.25,0.239583,Eighth,C4
1989,Left,1,55,80,371.5,0.489583,Quarter,G3
1990,Right,0,61,80,371.5,0.239583,Eighth,C#4
1991,Right,0,60,80,371.75,0.239583,Eighth,C4
1993,Left,1,52,80,372.0,0.489583,Quarter,E3
1992,Right,0,59,80,372.0,0.239583,Eighth,B3
1994,Right,0,60,80,372.25,0.239583,Eighth,C4
1995,Left,1,46,80,372.5,0.489583,Quarter,A#2
1996,Right,0,61,80,372.5,0.239583,Eighth,C#4
1997,Right,0,60,80,372.75,0.239583,Eighth,C4
1998,Left,1,44,120,373.0,0.489583,Quarter,G#2
1999,Right,0,84,120,373.25,0.239583,Eighth,C6
2001,Right,0,89,120,373.5,0.239583,Eighth,F6
2000,Left,1,48,120,373.5,0.989583,Half,C3
2002,Right,0,87,120,373.75,0.239583,Eighth,D#6
2003,Right,0,85,120,374.0,0.239583,Eighth,C#6
2004,Right,0,84,120,374.25,0.239583,Eighth,C6
2006,Right,0,82,120,374.5,0.239583,Eighth,A#5
2005,Left,1,53,120,374.5,0.489583,Quarter,F3
2007,Right,0,80,120,374.75,0.239583,Eighth,G#5
2008,Right,0,79,120,375.0,0.239583,Eighth,G5
2009,Left,1,46,120,375.0,0.489583,Quarter,A#2
2010,Right,0,77,120,375.25,0.239583,Eighth,F5
2012,Left,1,49,120,375.5,0.989583,Half,C#3
2011,Right,0,75,120,375.5,0.239583,Eighth,D#5
2013,Right,0,73,120,375.75,0.239583,Eighth,C#5
2014,Right,0,72,120,376.0,0.239583,Eighth,C5
2015,Right,0,70,120,376.25,0.239583,Eighth,A#4
2017,Right,0,68,120,376.5,0.239583,Eighth,G#4
2016,Left,1,55,120,376.5,0.489583,Quarter,G3
2018,Right,0,67,120,376.75,0.239583,Eighth,G4
2020,Right,0,65,100,377.0,0.239583,Eighth,F4
2019,Left,1,48,100,377.0,0.489583,Quarter,C3
2021,Right,0,64,100,377.25,0.239583,Eighth,E4
2023,Right,0,61,100,377.5,0.239583,Eighth,C#4
2022,Left,1,53,100,377.5,0.989583,Half,F3
2024,Right,0,60,100,377.75,0.239583,Eighth,C4
2025,Right,0,59,100,378.0,0.239583,Eighth,B3
2026,Right,0,60,100,378.25,0.239583,Eighth,C4
2027,Left,1,56,100,378.5,0.489583,Quarter,G#3
2028,Right,0,59,100,378.5,0.239583,Eighth,B3
2029,Right,0,60,100,378.75,0.239583,Eighth,C4
2030,Right,0,59,80,379.0,0.239583,Eighth,B3
2031,Right,0,60,80,379.25,0.239583,Eighth,C4
2033,Left,1,36,80,379.5,0.489583,Quarter,C2
2032,Right,0,61,80,379.5,0.239583,Eighth,C#4
2034,Right,0,60,80,379.75,0.239583,Eighth,C4
2035,Right,0,60,80,380.0,0.239583,Eighth,C4
2036,Left,1,36,80,380.0,0.489583,Quarter,C2
2037,Right,0,58,80,380.25,0.239583,Eighth,A#3
2039,Right,0,56,80,380.5,0.239583,Eighth,G#3
2038,Left,1,36,80,380.5,0.489583,Quarter,C2
2040,Right,0,55,80,380.75,0.239583,Eighth,G3
2042,Left,1,41,80,381.0,0.489583,Quarter,F2
2041,Right,0,53,80,381.0,0.489583,Quarter,F3
2043,Left,1,53,80,381.5,0.489583,Quarter,F3
2044,Right,0,68,80,382.0,0.739583,DottedQuarter,G#4
2045,Left,1,49,81,382.5,0.489583,Quarter,F3_C#3_B3
2048,Right,0,67,82,382.75,0.239583,Eighth,G4
2049,Right,0,65,82,383.0,0.989583,Half,F4
2050,Left,1,60,83,383.5,0.489583,Quarter,G#3_F3_C4_C3
2054,Right,0,64,84,384.0,0.739583,DottedQuarter,E4
2055,Left,1,58,85,384.5,0.489583,Quarter,G3_C3_A#3
2058,Right,0,72,85,384.75,0.239583,Eighth,C5
2059,Right,0,72,111,385.0,0.489583,Quarter,C5
2061,Right,0,65,87,385.5,0.489583,Quarter,F4
2060,Left,1,56,87,385.5,0.489583,Quarter,G#3_F3
2063,Right,0,68,87,386.0,0.739583,DottedQuarter,G#4
2064,Left,1,59,88,386.5,0.489583,Quarter,F3_C#3_B3
2067,Right,0,67,89,386.75,0.239583,Eighth,G4
2068,Right,0,65,89,387.0,0.989583,Half,F4
2069,Left,1,56,90,387.5,0.489583,Quarter,G#3_F3_C4_C3
2073,Right,0,64,91,388.0,0.739583,DottedQuarter,E4
2074,Left,1,55,92,388.5,0.489583,Quarter,G3_C3_A#3
2077,Right,0,72,92,388.75,0.239583,Eighth,C5
2078,Right,0,72,112,389.0,0.489583,Quarter,C5
2081,Right,0,65,94,389.5,0.489583,Quarter,F4
2079,Left,1,56,94,389.5,0.489583,Quarter,G#3_F3
2082,Right,0,71,94,389.875,0.489583,Quarter,B4
2083,Right,0,80,95,390.0,0.739583,DottedQuarter,G#5
2084,Left,1,71,95,390.5,0.489583,Quarter,G#4_F4_C#4_B4
2088,Right,0,79,96,390.75,0.239583,Eighth,G5
2089,Right,0,77,96,391.0,0.989583,Half,F5
2090,Left,1,65,97,391.5,0.489583,Quarter,G#4_F4_C5_C4
2094,Right,0,76,98,392.0,0.739583,DottedQuarter,E5
2095,Left,1,58,99,392.5,0.489583,Quarter,G4_C4_A#3
2098,Right,0,84,99,392.75,0.239583,Eighth,C6
2101,Right,0,72,120,393.0,1.989583,Whole,D#5_C6_C5
2099,Left,1,57,120,393.0,1.989583,Whole,F4_C4_A3
2105,Right,0,77,110,395.0,0.489583,Quarter,F5_C#5_A#4
2108,Left,1,58,110,395.0,0.489583,Quarter,F4_C#4_A#3
2111,Left,1,65,110,396.75,0.239583,Eighth,F4_C#4_A#3
2113,Right,0,82,110,396.75,0.239583,Eighth,C#5_A#5_A#4
2119,Right,0,82,120,397.0,1.989583,Whole,C#5_A#5_A#4
2117,Left,1,63,120,397.0,1.989583,Whole,G3_D#4_A#3
2123,Right,0,72,110,399.0,0.489583,Quarter,G#4_D#5_C5
2124,Left,1,60,110,399.0,0.489583,Quarter,G#3_D#4_C4
2129,Right,0,80,120,400.5,0.489583,Quarter,G#5_G#4_C5
2132,Left,1,61,120,400.5,0.489583,Quarter,F3_C#4
2134,Right,0,67,110,401.0,0.489583,Quarter,G4_C#5_A#4
2135,Left,1,55,110,401.0,0.489583,Quarter,G3_C#4
2139,Left,1,60,120,401.5,0.489583,Quarter,E3_C4
2140,Right,0,67,120,401.5,0.489583,Quarter,G5_G4_A#4
2144,Left,1,60,110,402.0,0.489583,Quarter,F3_C4
2145,Right,0,68,110,402.0,0.489583,Quarter,G#4_F4_C5
2149,Left,1,49,120,402.5,0.489583,Quarter,C#4_C#3
2151,Right,0,65,120,402.5,0.489583,Quarter,G#4_F5_F4
2154,Right,0,73,120,403.0,0.489583,Quarter,G4_F5_F4_C#5
2155,Left,1,49,120,403.0,0.489583,Quarter,G3_C#3_A#3_A#2
2162,Left,1,55,120,404.0,0.489583,Quarter,G3_E3_C4_C3
2164,Right,0,76,120,404.0,0.489583,Quarter,G4_E5_E4_C5_A#4
2171,Left,1,48,120,405.0,0.989583,Half,G#2_F3_F2_C3
2174,Right,0,77,120,405.0,0.989583,Half,G#4_F5_F4_C5
2179,Right,0,65,1,407.5,0.489583,Quarter,F4
