,hand,channel,note,velocity,start_beat,duration,note_value,chord
0,Right,0,60,80,0.0,0.739583,DottedEighth,C4
1,Right,0,60,80,0.75,0.239583,Sixteenth,C4
4,Right,0,69,80,1.0,0.489583,Eighth,A4
2,Left,1,53,80,1.0,1.989583,Half,F3_C4
5,Right,0,70,80,1.5,0.239583,Sixteenth,A#4
6,Right,0,69,80,1.625,0.239583,Sixteenth,A4
7,Right,0,67,80,1.75,0.239583,Sixteenth,G4
8,Right,0,69,80,1.875,0.239583,Sixteenth,A4
10,Left,1,62,80,2.0,0.489583,Eighth,D4
9,Right,0,72,80,2.0,0.239583,Sixteenth,C5
11,Right,0,70,80,2.125,0.364583,DottedSixteenth,A#4
13,Left,1,60,80,2.5,0.489583,Eighth,C4
12,Right,0,69,80,2.5,0.489583,Eighth,A4
15,Left,1,53,80,3.0,0.989583,Quarter,F3_A#3
14,Right,0,67,80,3.0,0.489583,Eighth,G4
17,Right,0,65,80,3.5,0.489583,Eighth,F4
18,Left,1,57,80,3.5,0.489583,Eighth,A3
21,Right,0,65,80,4.0,0.989583,Quarter,F4
19,Left,1,57,80,4.0,1.489583,Quarter,C3_A3
23,Right,0,64,80,5.0,0.489583,Eighth,E4
22,Left,1,55,80,5.0,0.489583,Eighth,G3
24,Right,0,60,80,5.5,0.489583,Eighth,C4
25,Right,0,59,80,6.0,0.489583,Eighth,D4_B3
27,Right,0,58,80,6.5,0.489583,Eighth,E4_A#3
29,Left,1,60,80,7.0,0.989583,Quarter,C4_A3
30,Right,0,65,80,7.0,0.989583,Quarter,F4
32,Right,0,72,80,7.5,0.239583,Sixteenth,C5
34,Right,0,67,80,8.0,0.989583,Quarter,G4_C5
33,Left,1,52,80,8.0,0.989583,Quarter,E3_C4
37,Right,0,70,80,8.5,0.239583,Sixteenth,A#4
38,Right,0,65,80,9.0,0.989583,Quarter,F4_A#4
39,Left,1,53,80,9.0,0.989583,Quarter,F3_C4
42,Right,0,69,80,9.5,0.239583,Sixteenth,A4
45,Left,1,60,80,10.0,1.489583,DottedQuarter,C4_C3
43,Right,0,69,80,10.0,0.989583,Quarter,F4_A4
47,Right,0,67,80,11.0,0.239583,Sixteenth,G4_E4
49,Right,0,60,80,11.25,0.239583,Sixteenth,C4
50,Right,0,62,80,11.5,0.239583,Sixteenth,D4
51,Right,0,64,80,11.75,0.239583,Sixteenth,E4
52,Right,0,65,80,12.0,0.239583,Sixteenth,F4
53,Right,0,66,80,12.25,0.239583,Sixteenth,F#4
54,Right,0,67,80,12.5,0.239583,Sixteenth,G4
55,Right,0,68,80,12.75,0.239583,Sixteenth,G#4
57,Right,0,69,80,13.0,0.489583,Eighth,A4
56,Left,1,53,80,13.0,1.989583,Half,F3_C4
59,Right,0,70,80,13.5,0.239583,Sixteenth,A#4
60,Right,0,69,80,13.625,0.239583,Sixteenth,A4
61,Right,0,67,80,13.75,0.239583,Sixteenth,G4
62,Right,0,69,80,13.875,0.239583,Sixteenth,A4
63,Right,0,72,80,14.0,0.239583,Sixteenth,C5
64,Left,1,62,80,14.0,0.489583,Eighth,D4
65,Right,0,70,80,14.125,0.364583,DottedSixteenth,A#4
66,Right,0,65,80,14.5,0.489583,Eighth,F4_A4
68,Left,1,60,80,14.5,0.489583,Eighth,C4
71,Left,1,53,80,15.0,0.989583,Quarter,F3_A#3
69,Right,0,64,80,15.0,0.489583,Eighth,G4_E4
74,Left,1,57,80,15.5,0.489583,Eighth,A3
73,Right,0,65,80,15.5,0.489583,Eighth,F4
75,Right,0,74,80,16.0,0.989583,Quarter,F4_D5
77,Left,1,62,80,16.0,0.989583,Quarter,D4_A#3
80,Left,1,60,81,17.0,0.989583,Quarter,C4_A#3
79,Right,0,67,81,17.0,0.989583,Quarter,G4_E5
85,Right,0,79,82,18.0,0.989583,Sixteenth,G5_C5
83,Left,1,57,82,18.0,0.989583,Quarter,F4_A3
87,Right,0,77,82,18.25,0.239583,Sixteenth,F5
88,Right,0,76,82,18.5,0.239583,Sixteenth,E5
89,Right,0,77,83,18.75,0.239583,Sixteenth,F5
92,Right,0,76,83,19.0,0.239583,Sixteenth,E5
90,Left,1,58,83,19.0,0.989583,Quarter,F4_A#3
93,Right,0,74,83,19.25,0.239583,Sixteenth,D5
94,Right,0,72,83,19.5,0.239583,Sixteenth,C5
95,Right,0,70,84,19.75,0.239583,Sixteenth,A#4
96,Left,1,60,84,20.0,0.989583,Quarter,F4_C4
98,Right,0,69,84,20.0,0.739583,DottedEighth,A4
99,Right,0,70,85,20.75,0.114583,ThirtySecond,A#4
100,Right,0,69,85,20.8125,0.114583,ThirtySecond,A4
101,Right,0,67,85,20.875,0.114583,ThirtySecond,G4
102,Right,0,69,85,20.9375,0.114583,ThirtySecond,A4
103,Right,0,72,85,21.0,0.239583,Sixteenth,C5
104,Left,1,48,85,21.0,0.239583,Sixteenth,C3
105,Right,0,70,85,21.25,0.239583,Sixteenth,A#4
106,Left,1,52,85,21.25,0.239583,Sixteenth,E3
107,Left,1,55,86,21.5,0.239583,Sixteenth,G3
108,Right,0,67,86,21.5,0.239583,Sixteenth,G4
109,Right,0,64,86,21.75,0.239583,Sixteenth,E4
110,Left,1,58,86,21.75,0.239583,Sixteenth,A#3
113,Right,0,64,86,22.0,0.989583,Quarter,G4_E4
111,Left,1,58,86,22.0,1.489583,Quarter,F3_A#3
116,Right,0,65,87,23.0,0.489583,Eighth,F4
115,Left,1,57,87,23.0,0.489583,Eighth,A3
117,Right,0,72,89,24.0,0.739583,DottedEighth,C5
118,Right,0,77,89,24.75,0.239583,Sixteenth,F5
120,Left,1,55,90,25.0,2.989583,Sixteenth,G3_C3
119,Right,0,77,90,25.0,0.989583,Quarter,F5
122,Left,1,58,90,25.25,0.239583,Sixteenth,A#3
123,Left,1,60,91,25.5,0.239583,Sixteenth,C4
124,Left,1,58,92,25.75,0.239583,Sixteenth,A#3
125,Right,0,76,93,26.0,0.989583,Quarter,E5
126,Left,1,55,93,26.0,0.239583,Sixteenth,G3
127,Left,1,58,94,26.25,0.239583,Sixteenth,A#3
128,Left,1,60,95,26.5,0.239583,Sixteenth,C4
129,Left,1,58,96,26.75,0.239583,Sixteenth,A#3
130,Left,1,53,97,27.0,0.239583,Sixteenth,F3
131,Right,0,77,97,27.0,0.239583,Sixteenth,F5
133,Left,1,57,98,27.25,0.239583,Sixteenth,A3
132,Right,0,79,98,27.25,0.15625,TripletSixteenth,G5
134,Right,0,77,98,27.333333,0.15625,TripletSixteenth,F5
135,Right,0,76,98,27.416667,0.15625,TripletSixteenth,E5
136,Right,0,77,99,27.5,0.239583,Sixteenth,F5
137,Left,1,60,99,27.5,0.239583,Sixteenth,C4
138,Right,0,81,99,27.75,0.239583,Sixteenth,A5
139,Left,1,57,99,27.75,0.239583,Sixteenth,A3
140,Left,1,52,100,28.0,2.989583,Sixteenth,E3_C3
142,Right,0,84,100,28.0,0.989583,Quarter,C6
143,Left,1,55,100,28.25,0.239583,Sixteenth,G3
144,Left,1,60,100,28.5,0.239583,Sixteenth,C4
145,Left,1,55,100,28.75,0.239583,Sixteenth,G3
147,Left,1,52,100,29.0,0.239583,Sixteenth,E3
146,Right,0,83,100,29.0,0.239583,Sixteenth,B5
149,Left,1,55,100,29.25,0.239583,Sixteenth,G3
148,Right,0,84,100,29.25,0.239583,Sixteenth,C6
151,Right,0,86,100,29.5,0.239583,Sixteenth,D6
150,Left,1,60,100,29.5,0.239583,Sixteenth,C4
152,Right,0,84,100,29.75,0.239583,Sixteenth,C6
153,Left,1,55,100,29.75,0.239583,Sixteenth,G3
154,Left,1,53,100,30.0,0.239583,Sixteenth,F3
155,Right,0,82,100,30.0,0.239583,Sixteenth,A#5
156,Left,1,57,100,30.25,0.239583,Sixteenth,A3
157,Right,0,81,100,30.25,0.239583,Sixteenth,A5
158,Left,1,60,100,30.5,0.239583,Sixteenth,C4
159,Right,0,79,100,30.5,0.239583,Sixteenth,G5
161,Left,1,57,100,30.75,0.239583,Sixteenth,A3
160,Right,0,77,100,30.75,0.239583,Sixteenth,F5
163,Right,0,77,100,31.0,0.989583,Quarter,F5
162,Left,1,55,100,31.0,2.989583,Sixteenth,G3_C3
165,Left,1,58,100,31.25,0.239583,Sixteenth,A#3
166,Left,1,60,100,31.5,0.239583,Sixteenth,C4
167,Left,1,58,100,31.75,0.239583,Sixteenth,A#3
169,Left,1,55,100,32.0,0.239583,Sixteenth,G3
168,Right,0,76,100,32.0,0.989583,Quarter,E5
170,Left,1,58,100,32.25,0.239583,Sixteenth,A#3
171,Left,1,60,100,32.5,0.239583,Sixteenth,C4
172,Left,1,58,100,32.75,0.239583,Sixteenth,A#3
173,Left,1,57,100,33.0,0.239583,Sixteenth,A3
174,Right,0,77,100,33.0,0.114583,ThirtySecond,F5
175,Right,0,79,100,33.125,0.052083,SixtyFourth,G5
176,Right,0,77,100,33.166667,0.052083,SixtyFourth,F5
177,Right,0,76,100,33.208333,0.03125,TripletSixtyFourth,E5
179,Right,0,77,100,33.25,0.114583,ThirtySecond,F5
178,Left,1,60,100,33.25,0.239583,Sixteenth,C4
180,Right,0,79,100,33.375,0.114583,ThirtySecond,G5
182,Left,1,57,100,33.5,0.239583,Sixteenth,A3
181,Right,0,81,100,33.5,0.114583,ThirtySecond,A5
183,Right,0,82,100,33.625,0.052083,SixtyFourth,A#5
184,Right,0,81,100,33.666667,0.052083,SixtyFourth,A5
185,Right,0,79,100,33.708333,0.03125,TripletSixtyFourth,G5
186,Right,0,81,100,33.75,0.114583,ThirtySecond,A5
187,Left,1,53,100,33.75,0.239583,Sixteenth,F3
188,Right,0,83,100,33.875,0.114583,ThirtySecond,B5
189,Left,1,48,100,34.0,0.239583,Sixteenth,C3
190,Right,0,86,92,34.0,0.489583,Eighth,D6
191,Left,1,52,100,34.25,0.239583,Sixteenth,E3
192,Right,0,84,93,34.5,0.739583,DottedEighth,C6
193,Left,1,55,100,34.5,0.239583,Sixteenth,G3
194,Left,1,60,100,34.75,0.239583,Sixteenth,C4
195,Left,1,64,80,35.0,0.239583,Sixteenth,E4
196,Right,0,83,80,35.25,0.239583,Sixteenth,B5
197,Left,1,67,80,35.25,0.239583,Sixteenth,G4
199,Left,1,60,80,35.5,0.239583,Sixteenth,C4
198,Right,0,86,80,35.5,0.239583,Sixteenth,D6
201,Left,1,64,80,35.75,0.239583,Sixteenth,E4
200,Right,0,84,80,35.75,0.239583,Sixteenth,C6
203,Left,1,62,80,36.0,0.239583,Sixteenth,D4
202,Right,0,84,80,36.0,0.239583,Sixteenth,C6
204,Left,1,65,80,36.25,0.239583,Sixteenth,F4
205,Right,0,82,80,36.25,0.239583,Sixteenth,A#5
207,Left,1,64,80,36.5,0.239583,Sixteenth,E4
206,Right,0,81,80,36.5,0.239583,Sixteenth,A5
209,Left,1,67,80,36.75,0.239583,Sixteenth,G4
208,Right,0,82,80,36.75,0.239583,Sixteenth,A#5
211,Left,1,65,80,37.0,1.989583,Half,F4
210,Right,0,81,80,37.0,0.489583,Eighth,A5
212,Left,1,72,80,37.25,0.239583,Sixteenth,C5
214,Left,1,77,80,37.5,0.239583,Sixteenth,F5
213,Right,0,82,80,37.5,0.239583,Sixteenth,A#5
215,Right,0,81,80,37.625,0.239583,Sixteenth,A5
216,Right,0,79,80,37.75,0.239583,Sixteenth,G5
217,Left,1,76,80,37.75,0.239583,Sixteenth,E5
218,Right,0,81,80,37.875,0.239583,Sixteenth,A5
220,Right,0,84,80,38.0,0.239583,Sixteenth,C6
219,Left,1,74,80,38.0,0.489583,Eighth,D5
221,Right,0,82,80,38.125,0.364583,DottedSixteenth,A#5
222,Left,1,72,80,38.5,0.489583,Eighth,C5
223,Right,0,77,80,38.5,0.489583,Eighth,F5_A5
225,Right,0,76,80,39.0,0.489583,Eighth,G5_E5
226,Left,1,70,80,39.0,0.989583,Eighth,F4_A#4
229,Right,0,77,80,39.5,0.489583,Eighth,F5
230,Left,1,69,80,39.5,0.489583,Eighth,A4
232,Right,0,72,80,40.0,0.989583,Quarter,E5_C5
231,Left,1,58,80,40.0,1.489583,DottedQuarter,F4_A#3
235,Right,0,74,80,41.0,0.489583,Eighth,D5_A#4
239,Left,1,58,110,42.0,0.739583,DottedEighth,E4_A#3
237,Right,0,86,110,42.0,0.739583,DottedEighth,D6_D5
243,Right,0,72,110,42.75,0.239583,Sixteenth,C6_C5
241,Left,1,57,110,42.75,0.239583,Sixteenth,F4_A3
245,Left,1,65,110,43.0,0.989583,Quarter,F4_A3
247,Right,0,84,110,43.0,0.239583,Sixteenth,C6
248,Right,0,89,100,43.25,0.239583,Sixteenth,F6
249,Right,0,88,100,43.5,0.239583,Sixteenth,E6
250,Right,0,86,100,43.75,0.239583,Sixteenth,D6
251,Left,1,58,100,44.0,0.989583,Quarter,A#3
252,Right,0,85,100,44.0,0.239583,Sixteenth,C#6
254,Right,0,88,100,44.25,0.239583,Sixteenth,E6
253,Left,1,62,100,44.25,0.239583,Sixteenth,D4
255,Right,0,86,100,44.3125,0.239583,Sixteenth,D6
256,Right,0,84,100,44.5,0.239583,Sixteenth,C6
257,Left,1,67,100,44.5,0.239583,Sixteenth,G4
258,Right,0,82,100,44.75,0.239583,Sixteenth,A#5
259,Left,1,70,100,44.75,0.239583,Sixteenth,A#4
260,Right,0,81,100,45.0,0.239583,Sixteenth,A5
261,Left,1,65,100,45.0,0.989583,Sixteenth,F4_C4
264,Left,1,69,100,45.25,0.239583,Sixteenth,A4
263,Right,0,84,100,45.25,0.239583,Sixteenth,C6
265,Left,1,67,100,45.5,0.239583,Sixteenth,G4
266,Right,0,82,100,45.5,0.239583,Sixteenth,A#5
268,Left,1,64,100,45.75,0.239583,Sixteenth,E4
267,Right,0,79,100,45.75,0.239583,Sixteenth,G5
269,Left,1,64,100,46.0,1.489583,Quarter,F3_E4
270,Right,0,70,100,46.0,0.989583,Quarter,G5_A#4
273,Right,0,69,80,47.0,0.489583,Eighth,F5_A4
274,Left,1,65,80,47.0,0.489583,Eighth,F4
276,Right,0,81,80,48.0,0.489583,Eighth,A5
277,Right,0,82,80,48.5,0.239583,Sixteenth,A#5
278,Right,0,81,80,48.625,0.239583,Sixteenth,A5
279,Right,0,80,80,48.75,0.239583,Sixteenth,G#5
280,Right,0,81,80,48.875,0.114583,ThirtySecond,A5
281,Right,0,86,80,49.0,0.989583,Quarter,D6
282,Left,1,62,80,49.25,0.239583,Sixteenth,F4_D4
284,Left,1,67,80,49.5,0.239583,Sixteenth,G4_E4
286,Left,1,69,80,49.75,0.239583,Sixteenth,F4_A4
288,Right,0,50,80,50.0,0.989583,Quarter,D3
289,Left,1,69,80,50.25,0.239583,Sixteenth,F4_A4
291,Left,1,68,80,50.5,0.239583,Sixteenth,G#4_E4
293,Left,1,69,80,50.75,0.239583,Sixteenth,F4_A4
295,Right,0,86,80,51.0,0.739583,DottedEighth,D6_D5
297,Left,1,65,80,51.25,0.239583,Sixteenth,F4_A4
299,Left,1,64,80,51.5,0.239583,Sixteenth,G4_E4
302,Right,0,86,80,51.75,0.239583,Sixteenth,D6_D5
301,Left,1,65,80,51.75,0.239583,Sixteenth,F4_D4
305,Right,0,86,80,52.0,0.989583,Quarter,D6_D5
307,Left,1,64,80,52.25,0.239583,Sixteenth,G4_E4
309,Left,1,65,80,52.5,0.239583,Sixteenth,F4_A4
311,Left,1,67,80,52.75,0.239583,Sixteenth,G4_A#4
313,Right,0,85,80,53.0,0.489583,Eighth,C#6_C#5
315,Left,1,67,80,53.25,0.239583,Sixteenth,G4_A#4
317,Left,1,69,80,53.5,0.239583,Sixteenth,F#4_A4
319,Left,1,70,80,53.75,0.239583,Sixteenth,G4_A#4
321,Right,0,85,80,54.0,0.239583,Sixteenth,C#6
323,Right,0,86,80,54.25,0.15625,TripletSixteenth,D6
322,Left,1,70,80,54.25,0.239583,Sixteenth,G4_A#4
325,Right,0,85,80,54.333333,0.15625,TripletSixteenth,C#6
326,Right,0,83,80,54.416667,0.15625,TripletSixteenth,B5
327,Left,1,69,80,54.5,0.239583,Sixteenth,F4_A4
329,Right,0,85,80,54.5,0.239583,Sixteenth,C#6
331,Right,0,86,80,54.75,0.239583,Sixteenth,D6
330,Left,1,67,80,54.75,0.239583,Sixteenth,G4_E4
333,Right,0,88,80,55.0,0.989583,Quarter,E6
334,Left,1,61,80,55.25,0.239583,Sixteenth,E4_C#4
336,Left,1,65,80,55.5,0.239583,Sixteenth,F4_D4
338,Left,1,64,80,55.75,0.239583,Sixteenth,G4_E4
340,Right,0,45,80,56.0,0.989583,Quarter,A2
341,Left,1,67,80,56.25,0.239583,Sixteenth,G4_E4
343,Left,1,63,80,56.5,0.239583,Sixteenth,F#4_D#4
345,Left,1,67,80,56.75,0.239583,Sixteenth,G4_E4
347,Right,0,79,80,57.0,0.739583,DottedEighth,G5
348,Left,1,67,80,57.25,0.239583,Sixteenth,G4_E4
350,Left,1,65,80,57.5,0.239583,Sixteenth,F4_D4
353,Left,1,64,80,57.75,0.239583,Sixteenth,E4_C#4
352,Right,0,79,80,57.75,0.239583,Sixteenth,G5
355,Right,0,79,80,58.0,0.989583,Quarter,G5
356,Left,1,62,80,58.25,0.239583,Sixteenth,F4_D4
358,Left,1,67,80,58.5,0.239583,Sixteenth,G4_E4
360,Left,1,69,80,58.75,0.239583,Sixteenth,F4_A4
362,Right,0,77,80,59.0,0.489583,Eighth,F5
363,Left,1,69,80,59.25,0.239583,Sixteenth,F4_A4
365,Left,1,64,80,59.5,0.239583,Sixteenth,G4_E4
367,Left,1,62,80,59.75,0.239583,Sixteenth,F4_D4
369,Right,0,77,80,60.0,0.489583,Eighth,F5
370,Left,1,62,80,60.25,0.239583,Sixteenth,F4_D4
372,Right,0,79,80,60.5,0.239583,Sixteenth,G5
373,Left,1,64,80,60.5,0.239583,Sixteenth,E4_C#4
375,Right,0,77,80,60.625,0.239583,Sixteenth,F5
376,Left,1,65,80,60.75,0.239583,Sixteenth,F4_D4
378,Right,0,76,80,60.75,0.239583,Sixteenth,E5
379,Right,0,77,80,60.875,0.114583,ThirtySecond,F5
380,Right,0,86,80,61.0,0.989583,Quarter,D6
381,Left,1,59,80,61.25,0.239583,Sixteenth,D4_B3
383,Left,1,64,80,61.5,0.239583,Sixteenth,E4_C4
385,Left,1,62,80,61.75,0.239583,Sixteenth,F4_D4
387,Right,0,43,80,62.0,0.989583,Quarter,G2
388,Left,1,65,80,62.25,0.239583,Sixteenth,F4_D4
390,Left,1,64,80,62.5,0.239583,Sixteenth,E4_C4
392,Left,1,62,80,62.75,0.239583,Sixteenth,D4_B3
394,Right,0,89,80,63.0,0.739583,DottedEighth,F6_F5
396,Left,1,62,80,63.25,0.239583,Sixteenth,D4_B3
398,Left,1,61,80,63.5,0.239583,Sixteenth,C#4_A#3
401,Right,0,77,80,63.75,0.239583,Sixteenth,F6_F5
400,Left,1,62,80,63.75,0.239583,Sixteenth,D4_B3
404,Right,0,89,80,64.0,0.489583,Eighth,F6_F5
406,Left,1,60,81,64.25,0.239583,Sixteenth,E4_C4
408,Left,1,63,83,64.5,0.239583,Sixteenth,D#4_B3
410,Right,0,88,83,64.5,0.489583,Eighth,E6_E5
412,Left,1,64,85,64.75,0.239583,Sixteenth,E4_C4
414,Right,0,88,87,65.0,0.489583,Eighth,E6_E5
416,Left,1,65,89,65.25,0.239583,Sixteenth,F4_D4
418,Left,1,64,90,65.5,0.239583,Sixteenth,E4_C#4
420,Right,0,74,90,65.5,0.489583,Eighth,D6_D5
422,Left,1,62,92,65.75,0.239583,Sixteenth,F4_D4
424,Right,0,74,94,66.0,0.489583,Eighth,D6_D5
426,Left,1,64,96,66.25,0.239583,Sixteenth,G4_E4
428,Right,0,72,98,66.5,0.489583,Eighth,C6_C5
430,Left,1,66,98,66.5,0.239583,Sixteenth,F#4_D#4
432,Left,1,64,99,66.75,0.239583,Sixteenth,G4_E4
435,Right,0,84,100,67.0,0.989583,Eighth,D5_C6
434,Left,1,65,100,67.0,1.989583,Half,G4_F4
438,Right,0,83,100,67.5,0.739583,DottedEighth,B5
439,Left,1,68,100,68.0,0.489583,Eighth,G#4
440,Right,0,84,100,68.125,0.239583,Sixteenth,C6
441,Right,0,86,100,68.25,0.239583,Sixteenth,D6
442,Right,0,84,100,68.375,0.239583,Sixteenth,C6
444,Right,0,83,100,68.5,0.239583,Sixteenth,B5
443,Left,1,67,100,68.5,0.489583,Eighth,G4
445,Right,0,84,100,68.625,0.239583,Sixteenth,C6
446,Right,0,86,100,68.75,0.239583,Sixteenth,D6
447,Right,0,83,100,68.875,0.239583,Sixteenth,B5
449,Left,1,67,100,69.0,0.989583,Quarter,G4_E5_E4
448,Right,0,84,100,69.0,0.239583,Sixteenth,C6
452,Right,0,86,100,69.25,0.239583,Sixteenth,D6
454,Left,1,72,100,69.5,0.489583,Eighth,C5
453,Right,0,88,100,69.5,0.239583,Sixteenth,E6
455,Right,0,84,100,69.75,0.239583,Sixteenth,C6
457,Right,0,83,100,70.0,0.1875,TripletSixteenth,B5
456,Left,1,65,100,70.0,1.989583,Half,G4_F4
459,Right,0,84,100,70.09375,0.1875,TripletSixteenth,C6
460,Right,0,86,100,70.1875,0.1875,TripletSixteenth,D6
461,Right,0,84,100,70.28125,0.333333,Triplet,C6
462,Right,0,83,100,70.5,0.6875,DottedEighth,B5
463,Left,1,68,100,71.0,0.489583,Eighth,G#4
464,Right,0,84,100,71.125,0.239583,Sixteenth,C6
465,Right,0,86,100,71.25,0.239583,Sixteenth,D6
466,Right,0,84,100,71.375,0.239583,Sixteenth,C6
467,Right,0,83,100,71.5,0.239583,Sixteenth,B5
468,Left,1,67,100,71.5,0.489583,Eighth,G4
469,Right,0,84,100,71.625,0.239583,Sixteenth,C6
470,Right,0,86,100,71.75,0.239583,Sixteenth,D6
471,Right,0,83,100,71.875,0.239583,Sixteenth,B5
474,Right,0,84,100,72.0,0.239583,Sixteenth,C6
472,Left,1,64,100,72.0,0.989583,Quarter,G4_E5_E4
476,Right,0,86,100,72.125,0.239583,Sixteenth,D6
477,Right,0,88,100,72.25,0.239583,Sixteenth,E6
478,Right,0,86,100,72.375,0.239583,Sixteenth,D6
479,Left,1,72,100,72.5,0.489583,Eighth,C5
480,Right,0,84,100,72.5,0.239583,Sixteenth,C6
481,Right,0,83,100,72.625,0.239583,Sixteenth,B5
482,Right,0,81,100,72.75,0.239583,Sixteenth,A5
483,Right,0,79,100,72.875,0.239583,Sixteenth,G5
484,Left,1,65,100,73.0,0.489583,Eighth,F4_A4
486,Right,0,80,100,73.0,0.239583,Sixteenth,G#5
487,Right,0,81,100,73.125,0.239583,Sixteenth,A5
488,Right,0,84,100,73.25,0.239583,Sixteenth,C6
489,Right,0,83,100,73.375,0.239583,Sixteenth,B5
490,Right,0,81,100,73.5,0.239583,Sixteenth,A5
491,Right,0,79,100,73.625,0.239583,Sixteenth,G5
492,Right,0,77,100,73.75,0.239583,Sixteenth,F5
493,Right,0,76,100,73.875,0.239583,Sixteenth,E5
494,Right,0,79,100,74.0,0.239583,Sixteenth,G5
495,Right,0,77,100,74.125,0.239583,Sixteenth,F5
496,Right,0,81,100,74.25,0.239583,Sixteenth,A5
497,Right,0,79,100,74.375,0.239583,Sixteenth,G5
498,Right,0,77,100,74.5,0.239583,Sixteenth,F5
499,Right,0,76,100,74.625,0.239583,Sixteenth,E5
500,Right,0,74,100,74.75,0.239583,Sixteenth,D5
501,Right,0,73,100,74.875,0.239583,Sixteenth,C#5
502,Right,0,74,100,75.0,0.239583,Sixteenth,D5
503,Left,1,62,100,75.0,0.489583,Eighth,F3_D4_A3
506,Right,0,76,100,75.125,0.239583,Sixteenth,E5
507,Right,0,77,100,75.25,0.239583,Sixteenth,F5
508,Right,0,76,100,75.375,0.239583,Sixteenth,E5
509,Right,0,79,100,75.5,0.239583,Sixteenth,G5
510,Right,0,77,100,75.625,0.239583,Sixteenth,F5
511,Right,0,76,100,75.75,0.239583,Sixteenth,E5
512,Right,0,74,100,75.875,0.239583,Sixteenth,D5
513,Left,1,55,100,76.0,0.489583,Eighth,G3_E4_C4
516,Right,0,72,100,76.0,0.239583,Sixteenth,C5
517,Right,0,74,100,76.125,0.239583,Sixteenth,D5
518,Right,0,72,100,76.25,0.239583,Sixteenth,C5
519,Right,0,71,100,76.375,0.239583,Sixteenth,B4
520,Right,0,72,100,76.5,0.239583,Sixteenth,C5
521,Right,0,67,100,76.625,0.239583,Sixteenth,G4
522,Right,0,69,100,76.75,0.239583,Sixteenth,A4
523,Right,0,71,100,76.875,0.239583,Sixteenth,B4
524,Right,0,72,100,77.0,0.239583,Sixteenth,C5
525,Right,0,74,100,77.125,0.239583,Sixteenth,D5
526,Right,0,76,100,77.25,0.239583,Sixteenth,E5
527,Right,0,77,100,77.375,0.239583,Sixteenth,F5
528,Right,0,79,100,77.5,0.239583,Sixteenth,G5
529,Right,0,78,100,77.625,0.239583,Sixteenth,F#5
530,Right,0,79,100,77.75,0.239583,Sixteenth,G5
531,Right,0,78,90,77.875,0.239583,Sixteenth,F#5
533,Left,1,65,89,78.0,0.489583,Eighth,G3_F4_B3
532,Right,0,79,89,78.0,0.239583,Sixteenth,G5
536,Right,0,77,86,78.25,0.239583,Sixteenth,F5
537,Right,0,76,83,78.5,0.239583,Sixteenth,E5
538,Right,0,74,81,78.75,0.239583,Sixteenth,D5
541,Right,0,72,80,79.0,0.489583,Eighth,C5
539,Left,1,60,80,79.0,0.489583,Eighth,E4_C4
542,Right,0,60,80,79.5,0.489583,Eighth,C4
543,Right,0,57,80,80.0,0.489583,Eighth,F4_A3
545,Right,0,55,80,80.5,0.489583,Eighth,G3_E4
547,Right,0,57,80,81.0,0.489583,Eighth,F3_D4_A3
550,Right,0,55,80,81.5,0.489583,Eighth,G3_E3_C4
554,Left,1,43,100,82.0,1.229167,TiedQuarter-Sixteenth,G2_G1
553,Right,0,55,100,82.0,1.989583,Half,G3_F3_D3_C4
559,Right,0,59,80,83.0,0.989583,Quarter,B3
560,Left,1,33,80,83.25,0.239583,Sixteenth,A1
561,Left,1,35,80,83.375,0.239583,Sixteenth,B1
562,Left,1,36,80,83.5,0.239583,Sixteenth,C2
563,Left,1,38,80,83.625,0.239583,Sixteenth,D2
564,Left,1,40,80,83.75,0.239583,Sixteenth,E2
565,Left,1,41,80,83.875,0.239583,Sixteenth,F2
566,Right,0,59,80,84.0,0.989583,Quarter,G3_F3_D3_B3
567,Left,1,43,80,84.0,0.239583,Sixteenth,G2
571,Left,1,42,80,84.125,0.239583,Sixteenth,F#2
572,Left,1,43,80,84.25,0.239583,Sixteenth,G2
573,Left,1,45,80,84.375,0.239583,Sixteenth,A2
574,Left,1,43,80,84.5,0.239583,Sixteenth,G2
575,Left,1,41,80,84.625,0.239583,Sixteenth,F2
576,Left,1,40,80,84.75,0.239583,Sixteenth,E2
577,Left,1,38,80,84.875,0.114583,ThirtySecond,D2
578,Left,1,36,80,85.0,0.489583,Eighth,C2
579,Right,0,52,80,85.0,0.239583,Sixteenth,E3_C4
581,Right,0,62,80,85.375,0.072917,TripletThirtySecond,D4
582,Right,0,60,80,85.416667,0.072917,TripletThirtySecond,C4
583,Right,0,59,80,85.458333,0.072917,TripletThirtySecond,B3
584,Right,0,60,80,85.5,0.15625,TripletSixteenth,C4
585,Right,0,64,80,85.666667,0.15625,TripletSixteenth,E4
586,Right,0,67,80,85.833333,0.15625,TripletSixteenth,G4
587,Right,0,67,80,86.0,0.15625,TripletSixteenth,G4
589,Left,1,57,80,86.166667,0.15625,TripletSixteenth,A3
588,Right,0,65,80,86.166667,0.15625,TripletSixteenth,F4
590,Left,1,60,80,86.333333,0.15625,TripletSixteenth,C4
591,Right,0,65,80,86.5,0.15625,TripletSixteenth,F4
593,Left,1,55,80,86.666667,0.15625,TripletSixteenth,G3
592,Right,0,64,80,86.666667,0.15625,TripletSixteenth,E4
594,Left,1,59,80,86.833333,0.15625,TripletSixteenth,B3
595,Right,0,64,80,87.0,0.15625,TripletSixteenth,E4
597,Right,0,62,80,87.166667,0.15625,TripletSixteenth,D4
596,Left,1,53,80,87.166667,0.15625,TripletSixteenth,F3
598,Left,1,57,80,87.333333,0.15625,TripletSixteenth,A3
599,Right,0,62,80,87.5,0.15625,TripletSixteenth,D4
600,Right,0,60,80,87.666667,0.15625,TripletSixteenth,C4
601,Left,1,52,80,87.666667,0.15625,TripletSixteenth,E3
602,Left,1,55,80,87.833333,0.15625,TripletSixteenth,G3
603,Right,0,60,100,88.0,1.989583,Half,G3_F3_D3_C4
604,Left,1,31,100,88.0,1.229167,TiedQuarter-Sixteenth,G2_G1
609,Right,0,59,80,89.0,0.989583,Quarter,B3
610,Left,1,45,80,89.25,0.239583,Sixteenth,A2
611,Left,1,47,80,89.375,0.239583,Sixteenth,B2
612,Left,1,48,80,89.5,0.239583,Sixteenth,C3
613,Left,1,50,80,89.625,0.239583,Sixteenth,D3
614,Left,1,52,80,89.75,0.239583,Sixteenth,E3
615,Left,1,53,80,89.875,0.239583,Sixteenth,F3
619,Left,1,55,80,90.0,0.239583,Sixteenth,G3
616,Right,0,65,80,90.0,0.989583,Quarter,G4_F4_D4_B4
621,Left,1,54,80,90.125,0.239583,Sixteenth,F#3
622,Left,1,55,80,90.25,0.239583,Sixteenth,G3
623,Left,1,57,80,90.375,0.239583,Sixteenth,A3
624,Left,1,55,80,90.5,0.239583,Sixteenth,G3
625,Left,1,53,80,90.625,0.239583,Sixteenth,F3
626,Left,1,52,80,90.75,0.239583,Sixteenth,E3
627,Left,1,50,80,90.875,0.114583,ThirtySecond,D3
628,Right,0,64,80,91.0,0.489583,Eighth,E4_C5
630,Left,1,48,80,91.0,2.989583,DottedHalf,C3
631,Right,0,60,100,91.5,0.739583,DottedEighth,C4
632,Left,1,58,80,92.0,0.489583,Eighth,A#3
633,Right,0,62,80,92.25,0.239583,Sixteenth,D4
634,Right,0,64,80,92.375,0.239583,Sixteenth,E4
635,Right,0,65,80,92.5,0.239583,Sixteenth,F4
636,Left,1,55,80,92.5,0.489583,Eighth,G3
637,Right,0,67,80,92.625,0.239583,Sixteenth,G4
638,Right,0,69,80,92.75,0.239583,Sixteenth,A4
639,Right,0,70,80,92.875,0.239583,Sixteenth,A#4
640,Right,0,72,80,93.0,0.239583,Sixteenth,C5
641,Left,1,52,80,93.0,0.489583,Eighth,E3
642,Right,0,71,80,93.125,0.239583,Sixteenth,B4
643,Right,0,72,80,93.25,0.239583,Sixteenth,C5
644,Right,0,74,80,93.375,0.239583,Sixteenth,D5
646,Right,0,72,80,93.5,0.239583,Sixteenth,C5
645,Left,1,60,80,93.5,0.489583,Eighth,C4
647,Right,0,70,80,93.625,0.239583,Sixteenth,A#4
648,Right,0,69,80,93.75,0.239583,Sixteenth,A4
649,Right,0,67,80,93.875,0.114583,ThirtySecond,G4
651,Left,1,53,85,94.0,1.989583,Half,F3_C4
650,Right,0,69,85,94.0,0.489583,Eighth,A4
653,Right,0,70,85,94.5,0.239583,Sixteenth,A#4
654,Right,0,69,85,94.625,0.239583,Sixteenth,A4
655,Right,0,67,85,94.75,0.239583,Sixteenth,G4
656,Right,0,69,85,94.875,0.239583,Sixteenth,A4
657,Left,1,62,85,95.0,0.489583,Eighth,D4
658,Right,0,72,85,95.0,0.239583,Sixteenth,C5
659,Right,0,70,85,95.125,0.364583,DottedSixteenth,A#4
660,Right,0,69,85,95.5,0.489583,Eighth,A4
661,Left,1,60,85,95.5,0.489583,Eighth,C4
662,Right,0,67,85,96.0,0.489583,Eighth,G4
663,Left,1,53,85,96.0,0.989583,Quarter,F3_A#3
665,Right,0,65,85,96.5,0.489583,Eighth,F4
666,Left,1,57,85,96.5,0.489583,Eighth,A3
667,Right,0,65,85,97.0,0.989583,Quarter,F4
668,Left,1,57,85,97.0,1.489583,Quarter,C3_A3
670,Left,1,55,85,98.0,0.489583,Eighth,G3
671,Right,0,64,85,98.0,0.489583,Eighth,E4
672,Right,0,60,85,98.5,0.489583,Eighth,C4
673,Right,0,62,85,99.0,0.489583,Eighth,D4_B3
675,Right,0,64,85,99.5,0.489583,Eighth,E4_A#3
677,Left,1,57,85,100.0,0.989583,Quarter,C4_A3
679,Right,0,65,85,100.0,0.989583,Quarter,F4
680,Right,0,72,85,100.25,0.239583,Sixteenth,C5
681,Right,0,72,85,100.5,0.239583,Sixteenth,C5
682,Right,0,72,85,100.75,0.239583,Sixteenth,C5
683,Right,0,67,85,101.0,0.989583,Quarter,G4_C5
684,Left,1,52,85,101.0,0.989583,Quarter,E3_C4
687,Right,0,70,85,101.25,0.239583,Sixteenth,A#4
688,Right,0,70,85,101.5,0.239583,Sixteenth,A#4
689,Right,0,70,85,101.75,0.239583,Sixteenth,A#4
692,Right,0,65,85,102.0,0.989583,Quarter,F4_A#4
690,Left,1,60,85,102.0,0.989583,Quarter,F3_C4
694,Right,0,69,85,102.25,0.239583,Sixteenth,A4
695,Right,0,69,85,102.5,0.239583,Sixteenth,A4
696,Right,0,69,85,102.75,0.239583,Sixteenth,A4
697,Left,1,60,85,103.0,1.489583,DottedQuarter,C4_C3
698,Right,0,65,85,103.0,0.989583,Quarter,F4
700,Right,0,70,85,103.75,0.239583,Sixteenth,A#4
701,Right,0,69,85,103.875,0.114583,ThirtySecond,A4
702,Right,0,67,85,104.0,0.489583,Eighth,G4_E4
704,Right,0,60,85,104.5,0.15625,TripletSixteenth,C4
705,Right,0,61,85,104.666667,0.15625,TripletSixteenth,C#4
706,Right,0,62,85,104.833333,0.15625,TripletSixteenth,D4
707,Right,0,63,85,105.0,0.15625,TripletSixteenth,D#4
708,Right,0,64,85,105.166667,0.15625,TripletSixteenth,E4
709,Right,0,65,85,105.333333,0.15625,TripletSixteenth,F4
710,Right,0,66,85,105.5,0.15625,TripletSixteenth,F#4
711,Right,0,67,85,105.666667,0.15625,TripletSixteenth,G4
712,Right,0,68,85,105.833333,0.15625,TripletSixteenth,G#4
713,Left,1,53,85,106.0,0.15625,TripletSixteenth,F3
714,Left,1,57,85,106.166667,0.15625,TripletSixteenth,A3
715,Left,1,60,85,106.333333,0.15625,TripletSixteenth,C4
716,Left,1,65,85,106.5,0.15625,TripletSixteenth,F4
717,Left,1,64,85,106.666667,0.15625,TripletSixteenth,E4
718,Right,0,70,85,106.75,0.114583,ThirtySecond,A#4
719,Right,0,69,85,106.8125,0.114583,ThirtySecond,A4
720,Left,1,63,85,106.833333,0.15625,TripletSixteenth,D#4
721,Right,0,67,85,106.875,0.114583,ThirtySecond,G4
722,Right,0,69,85,106.9375,0.052083,SixtyFourth,A4
723,Right,0,72,85,107.0,0.15625,TripletSixteenth,C5
725,Left,1,62,85,107.166667,0.15625,TripletSixteenth,D4
724,Right,0,70,85,107.166667,0.15625,TripletSixteenth,A#4
726,Left,1,65,85,107.333333,0.15625,TripletSixteenth,F4
727,Right,0,70,85,107.5,0.15625,TripletSixteenth,A#4
729,Left,1,65,85,107.666667,0.15625,TripletSixteenth,F4
728,Right,0,69,85,107.666667,0.15625,TripletSixteenth,A4
730,Left,1,60,85,107.833333,0.15625,TripletSixteenth,C4
731,Right,0,69,85,108.0,0.15625,TripletSixteenth,A4
732,Left,1,58,85,108.166667,0.15625,TripletSixteenth,A#3
733,Right,0,67,85,108.166667,0.15625,TripletSixteenth,G4
734,Left,1,64,85,108.333333,0.15625,TripletSixteenth,E4
735,Right,0,67,85,108.5,0.15625,TripletSixteenth,G4
736,Left,1,60,85,108.666667,0.15625,TripletSixteenth,C4
737,Right,0,65,85,108.666667,0.15625,TripletSixteenth,F4
738,Left,1,57,85,108.833333,0.15625,TripletSixteenth,A3
739,Left,1,58,100,109.0,0.15625,TripletSixteenth,A#3
740,Right,0,74,100,109.0,0.989583,Quarter,D5
741,Left,1,62,100,109.166667,0.15625,TripletSixteenth,D4
742,Left,1,65,100,109.333333,0.15625,TripletSixteenth,F4
743,Left,1,70,100,109.5,0.15625,TripletSixteenth,A#4
744,Left,1,65,100,109.666667,0.15625,TripletSixteenth,F4
745,Left,1,62,100,109.833333,0.15625,TripletSixteenth,D4
746,Left,1,58,100,110.0,0.15625,TripletSixteenth,A#3
747,Left,1,60,100,110.166667,0.15625,TripletSixteenth,C4
748,Left,1,64,100,110.333333,0.15625,TripletSixteenth,E4
749,Left,1,67,100,110.5,0.15625,TripletSixteenth,G4
750,Left,1,64,100,110.666667,0.15625,TripletSixteenth,E4
751,Right,0,77,100,110.75,0.114583,ThirtySecond,F5
752,Right,0,76,100,110.8125,0.114583,ThirtySecond,E5
753,Left,1,60,100,110.833333,0.15625,TripletSixteenth,C4
754,Right,0,74,100,110.875,0.114583,ThirtySecond,D5
755,Right,0,76,100,110.9375,0.052083,SixtyFourth,E5
756,Right,0,79,100,111.0,0.239583,Sixteenth,G5
757,Left,1,57,100,111.0,0.15625,TripletSixteenth,A3
758,Right,0,77,99,111.125,0.239583,Sixteenth,F5
759,Left,1,60,99,111.166667,0.15625,TripletSixteenth,C4
760,Right,0,76,98,111.25,0.239583,Sixteenth,E5
761,Left,1,65,97,111.333333,0.15625,TripletSixteenth,F4
762,Right,0,77,97,111.375,0.239583,Sixteenth,F5
764,Right,0,76,96,111.5,0.239583,Sixteenth,E5
763,Left,1,69,96,111.5,0.15625,TripletSixteenth,A4
765,Right,0,77,95,111.625,0.239583,Sixteenth,F5
766,Left,1,65,94,111.666667,0.15625,TripletSixteenth,F4
767,Right,0,79,94,111.75,0.239583,Sixteenth,G5
768,Left,1,60,93,111.833333,0.15625,TripletSixteenth,C4
769,Right,0,77,93,111.875,0.239583,Sixteenth,F5
770,Left,1,58,92,112.0,0.15625,TripletSixteenth,A#3
771,Right,0,76,92,112.0,0.239583,Sixteenth,E5
772,Right,0,74,91,112.125,0.239583,Sixteenth,D5
773,Left,1,62,90,112.166667,0.15625,TripletSixteenth,D4
774,Right,0,73,90,112.25,0.239583,Sixteenth,C#5
775,Left,1,65,89,112.333333,0.15625,TripletSixteenth,F4
776,Right,0,74,89,112.375,0.239583,Sixteenth,D5
777,Left,1,67,88,112.5,0.15625,TripletSixteenth,G4
778,Right,0,76,88,112.5,0.239583,Sixteenth,E5
779,Right,0,74,87,112.625,0.239583,Sixteenth,D5
780,Left,1,65,86,112.666667,0.15625,TripletSixteenth,F4
781,Right,0,72,86,112.75,0.239583,Sixteenth,C5
782,Left,1,62,85,112.833333,0.15625,TripletSixteenth,D4
783,Right,0,70,85,112.875,0.239583,Sixteenth,A#4
785,Left,1,48,85,113.0,0.15625,TripletSixteenth,C3
784,Right,0,69,85,113.0,0.739583,DottedEighth,A4
786,Left,1,53,85,113.166667,0.15625,TripletSixteenth,F3
787,Left,1,57,85,113.333333,0.15625,TripletSixteenth,A3
788,Left,1,60,85,113.5,0.15625,TripletSixteenth,C4
789,Left,1,57,85,113.666667,0.15625,TripletSixteenth,A3
790,Right,0,70,85,113.75,0.114583,ThirtySecond,A#4
791,Right,0,69,85,113.8125,0.114583,ThirtySecond,A4
792,Left,1,53,85,113.833333,0.15625,TripletSixteenth,F3
793,Right,0,67,85,113.875,0.114583,ThirtySecond,G4
794,Right,0,69,85,113.9375,0.114583,ThirtySecond,A4
796,Left,1,48,85,114.0,0.15625,TripletSixteenth,C3
795,Right,0,72,85,114.0,0.239583,Sixteenth,C5
797,Left,1,55,85,114.166667,0.15625,TripletSixteenth,G3
798,Right,0,70,85,114.25,0.239583,Sixteenth,A#4
799,Left,1,58,85,114.333333,0.15625,TripletSixteenth,A#3
801,Left,1,60,85,114.5,0.15625,TripletSixteenth,C4
800,Right,0,67,85,114.5,0.239583,Sixteenth,G4
802,Left,1,58,85,114.666667,0.15625,TripletSixteenth,A#3
803,Right,0,64,85,114.75,0.239583,Sixteenth,E4
804,Left,1,55,85,114.833333,0.15625,TripletSixteenth,G3
805,Right,0,67,85,115.0,0.989583,Quarter,G4
806,Left,1,53,85,115.0,0.15625,TripletSixteenth,F3
807,Left,1,58,85,115.166667,0.15625,TripletSixteenth,A#3
808,Left,1,60,85,115.333333,0.15625,TripletSixteenth,C4
809,Left,1,64,85,115.5,0.15625,TripletSixteenth,E4
810,Left,1,60,85,115.666667,0.15625,TripletSixteenth,C4
811,Left,1,58,85,115.833333,0.15625,TripletSixteenth,A#3
812,Right,0,65,85,116.0,0.489583,Eighth,F4
813,Left,1,53,85,116.0,0.15625,TripletSixteenth,F3
814,Left,1,57,85,116.166667,0.15625,TripletSixteenth,A3
815,Left,1,60,85,116.333333,0.15625,TripletSixteenth,C4
816,Left,1,65,85,116.5,0.15625,TripletSixteenth,F4
817,Left,1,60,85,116.666667,0.15625,TripletSixteenth,C4
818,Left,1,58,85,116.833333,0.15625,TripletSixteenth,A#3
820,Left,1,57,85,117.0,0.15625,TripletSixteenth,A3
819,Right,0,72,85,117.0,0.739583,DottedEighth,C5
821,Left,1,60,85,117.166667,0.15625,TripletSixteenth,C4
822,Left,1,58,85,117.333333,0.15625,TripletSixteenth,A#3
823,Left,1,57,85,117.5,0.15625,TripletSixteenth,A3
824,Left,1,55,85,117.666667,0.15625,TripletSixteenth,G3
825,Right,0,77,85,117.75,0.239583,Sixteenth,F5
826,Left,1,53,100,117.833333,0.15625,TripletSixteenth,F3
827,Left,1,48,85,118.0,0.15625,TripletSixteenth,C3
828,Right,0,77,85,118.0,0.989583,Quarter,F5
829,Left,1,55,85,118.166667,0.15625,TripletSixteenth,G3
830,Left,1,58,85,118.333333,0.15625,TripletSixteenth,A#3
831,Left,1,60,85,118.5,0.15625,TripletSixteenth,C4
832,Left,1,58,85,118.666667,0.15625,TripletSixteenth,A#3
833,Left,1,55,85,118.833333,0.15625,TripletSixteenth,G3
835,Left,1,48,85,119.0,0.15625,TripletSixteenth,C3
834,Right,0,76,85,119.0,0.989583,Quarter,E5
836,Left,1,55,85,119.166667,0.15625,TripletSixteenth,G3
837,Left,1,58,85,119.333333,0.15625,TripletSixteenth,A#3
838,Left,1,60,85,119.5,0.15625,TripletSixteenth,C4
839,Left,1,58,85,119.666667,0.15625,TripletSixteenth,A#3
840,Left,1,55,85,119.833333,0.15625,TripletSixteenth,G3
841,Left,1,48,85,120.0,0.15625,TripletSixteenth,C3
842,Right,0,77,85,120.0,0.239583,Sixteenth,F5
843,Left,1,53,85,120.166667,0.15625,TripletSixteenth,F3
844,Right,0,79,85,120.25,0.15625,TripletSixteenth,G5
846,Left,1,57,85,120.333333,0.15625,TripletSixteenth,A3
845,Right,0,77,85,120.333333,0.15625,TripletSixteenth,F5
847,Right,0,76,85,120.416667,0.15625,TripletSixteenth,E5
849,Left,1,60,85,120.5,0.15625,TripletSixteenth,C4
848,Right,0,77,85,120.5,0.239583,Sixteenth,F5
850,Left,1,57,85,120.666667,0.15625,TripletSixteenth,A3
851,Right,0,81,85,120.75,0.239583,Sixteenth,A5
852,Left,1,53,85,120.833333,0.15625,TripletSixteenth,F3
853,Right,0,84,85,121.0,0.989583,Quarter,C6
854,Left,1,46,85,121.0,0.15625,TripletSixteenth,A#2
855,Left,1,52,85,121.166667,0.15625,TripletSixteenth,E3
856,Left,1,55,85,121.333333,0.15625,TripletSixteenth,G3
857,Left,1,60,85,121.5,0.15625,TripletSixteenth,C4
858,Left,1,55,85,121.666667,0.15625,TripletSixteenth,G3
859,Left,1,52,85,121.833333,0.15625,TripletSixteenth,E3
860,Left,1,46,85,122.0,0.15625,TripletSixteenth,A#2
861,Right,0,83,85,122.0,0.239583,Sixteenth,B5
862,Left,1,52,85,122.166667,0.15625,TripletSixteenth,E3
863,Right,0,84,85,122.25,0.239583,Sixteenth,C6
864,Left,1,55,85,122.333333,0.15625,TripletSixteenth,G3
866,Left,1,60,85,122.5,0.15625,TripletSixteenth,C4
865,Right,0,86,85,122.5,0.239583,Sixteenth,D6
867,Left,1,55,85,122.666667,0.15625,TripletSixteenth,G3
868,Right,0,84,85,122.75,0.239583,Sixteenth,C6
869,Left,1,52,85,122.833333,0.15625,TripletSixteenth,E3
870,Left,1,48,85,123.0,0.15625,TripletSixteenth,C3
871,Right,0,82,85,123.0,0.239583,Sixteenth,A#5
872,Left,1,53,85,123.166667,0.15625,TripletSixteenth,F3
873,Right,0,81,85,123.25,0.239583,Sixteenth,A5
874,Left,1,57,85,123.333333,0.15625,TripletSixteenth,A3
876,Right,0,79,85,123.5,0.239583,Sixteenth,G5
875,Left,1,60,85,123.5,0.15625,TripletSixteenth,C4
877,Left,1,57,85,123.666667,0.15625,TripletSixteenth,A3
878,Right,0,77,85,123.75,0.239583,Sixteenth,F5
879,Left,1,53,85,123.833333,0.15625,TripletSixteenth,F3
880,Left,1,48,85,124.0,0.15625,TripletSixteenth,C3
881,Right,0,77,85,124.0,0.989583,Quarter,F5
882,Left,1,55,85,124.166667,0.15625,TripletSixteenth,G3
883,Left,1,58,85,124.333333,0.15625,TripletSixteenth,A#3
884,Left,1,60,85,124.5,0.15625,TripletSixteenth,C4
885,Left,1,58,85,124.666667,0.15625,TripletSixteenth,A#3
886,Left,1,55,85,124.833333,0.15625,TripletSixteenth,G3
888,Left,1,48,85,125.0,0.15625,TripletSixteenth,C3
887,Right,0,76,85,125.0,0.239583,Sixteenth,E5
889,Right,0,77,85,125.125,0.239583,Sixteenth,F5
890,Left,1,55,85,125.166667,0.15625,TripletSixteenth,G3
891,Right,0,76,85,125.25,0.239583,Sixteenth,E5
892,Left,1,58,85,125.333333,0.15625,TripletSixteenth,A#3
893,Right,0,74,85,125.375,0.239583,Sixteenth,D5
895,Right,0,76,85,125.5,0.239583,Sixteenth,E5
894,Left,1,60,85,125.5,0.15625,TripletSixteenth,C4
896,Right,0,72,85,125.625,0.239583,Sixteenth,C5
897,Left,1,58,85,125.666667,0.15625,TripletSixteenth,A#3
898,Right,0,74,85,125.75,0.239583,Sixteenth,D5
899,Left,1,55,85,125.833333,0.15625,TripletSixteenth,G3
900,Right,0,76,85,125.875,0.239583,Sixteenth,E5
901,Left,1,48,85,126.0,0.15625,TripletSixteenth,C3
902,Right,0,77,85,126.0,0.114583,ThirtySecond,F5
903,Right,0,79,85,126.125,0.052083,SixtyFourth,G5
905,Left,1,53,85,126.166667,0.15625,TripletSixteenth,F3
904,Right,0,77,85,126.166667,0.052083,SixtyFourth,F5
906,Right,0,76,85,126.208333,0.03125,TripletSixtyFourth,E5
907,Right,0,77,85,126.25,0.114583,ThirtySecond,F5
908,Left,1,57,85,126.333333,0.15625,TripletSixteenth,A3
909,Right,0,79,85,126.375,0.114583,ThirtySecond,G5
910,Left,1,60,85,126.5,0.15625,TripletSixteenth,C4
911,Right,0,81,85,126.5,0.114583,ThirtySecond,A5
912,Right,0,82,85,126.625,0.052083,SixtyFourth,A#5
914,Right,0,81,85,126.666667,0.052083,SixtyFourth,A5
913,Left,1,57,85,126.666667,0.15625,TripletSixteenth,A3
915,Right,0,79,85,126.708333,0.03125,TripletSixtyFourth,G5
916,Right,0,81,85,126.75,0.114583,ThirtySecond,A5
917,Left,1,53,85,126.833333,0.15625,TripletSixteenth,F3
918,Right,0,83,85,126.875,0.114583,ThirtySecond,B5
919,Right,0,86,85,127.0,0.489583,Eighth,D6
920,Left,1,48,85,127.0,0.15625,TripletSixteenth,C3
921,Left,1,52,85,127.166667,0.15625,TripletSixteenth,E3
922,Left,1,55,85,127.333333,0.15625,TripletSixteenth,G3
923,Right,0,84,85,127.5,0.739583,DottedEighth,C6
924,Left,1,60,85,127.5,0.15625,TripletSixteenth,C4
925,Left,1,64,85,127.666667,0.15625,TripletSixteenth,E4
926,Left,1,62,85,127.833333,0.15625,TripletSixteenth,D4
927,Left,1,60,85,128.0,0.15625,TripletSixteenth,C4
928,Left,1,64,85,128.166667,0.15625,TripletSixteenth,E4
929,Right,0,83,85,128.166667,0.15625,TripletSixteenth,B5
930,Left,1,67,85,128.333333,0.15625,TripletSixteenth,G4
931,Right,0,84,85,128.333333,0.15625,TripletSixteenth,C6
932,Left,1,72,85,128.5,0.15625,TripletSixteenth,C5
934,Left,1,60,85,128.666667,0.15625,TripletSixteenth,C4
933,Right,0,86,85,128.666667,0.15625,TripletSixteenth,D6
936,Left,1,64,85,128.833333,0.15625,TripletSixteenth,E4
935,Right,0,84,85,128.833333,0.15625,TripletSixteenth,C6
937,Left,1,62,85,129.0,0.15625,TripletSixteenth,D4
939,Left,1,65,85,129.166667,0.15625,TripletSixteenth,F4
938,Right,0,84,85,129.166667,0.15625,TripletSixteenth,C6
941,Right,0,83,85,129.333333,0.15625,TripletSixteenth,B5
940,Left,1,72,85,129.333333,0.15625,TripletSixteenth,C5
942,Left,1,64,85,129.5,0.15625,TripletSixteenth,E4
944,Left,1,67,85,129.666667,0.15625,TripletSixteenth,G4
943,Right,0,84,85,129.666667,0.15625,TripletSixteenth,C6
946,Left,1,72,85,129.833333,0.15625,TripletSixteenth,C5
945,Right,0,82,85,129.833333,0.15625,TripletSixteenth,A#5
948,Right,0,81,85,130.0,0.739583,DottedEighth,A5
947,Left,1,65,85,130.0,1.989583,Half,F4
949,Left,1,69,85,130.166667,0.15625,TripletSixteenth,A4
950,Left,1,72,85,130.333333,0.15625,TripletSixteenth,C5
951,Left,1,77,85,130.5,0.15625,TripletSixteenth,F5
952,Left,1,76,85,130.666667,0.15625,TripletSixteenth,E5
953,Right,0,82,85,130.75,0.114583,ThirtySecond,A#5
954,Right,0,81,85,130.8125,0.114583,ThirtySecond,A5
955,Left,1,75,85,130.833333,0.15625,TripletSixteenth,D#5
956,Right,0,79,85,130.875,0.114583,ThirtySecond,G5
957,Right,0,81,85,130.9375,0.114583,ThirtySecond,A5
958,Left,1,74,85,131.0,0.15625,TripletSixteenth,D5
959,Left,1,77,85,131.166667,0.15625,TripletSixteenth,F5
960,Right,0,84,85,131.166667,0.15625,TripletSixteenth,C6
961,Right,0,82,85,131.333333,0.15625,TripletSixteenth,A#5
962,Left,1,74,85,131.333333,0.15625,TripletSixteenth,D5
963,Left,1,72,85,131.5,0.15625,TripletSixteenth,C5
964,Right,0,82,85,131.666667,0.15625,TripletSixteenth,A#5
965,Left,1,76,85,131.666667,0.15625,TripletSixteenth,E5
967,Left,1,72,85,131.833333,0.15625,TripletSixteenth,C5
966,Right,0,81,85,131.833333,0.15625,TripletSixteenth,A5
968,Left,1,65,85,132.0,0.989583,Quarter,F4_A#4
970,Right,0,81,85,132.166667,0.15625,TripletSixteenth,A5
971,Left,1,74,85,132.166667,0.15625,TripletSixteenth,D5
972,Right,0,79,85,132.333333,0.15625,TripletSixteenth,G5
973,Left,1,70,85,132.333333,0.15625,TripletSixteenth,A#4
974,Left,1,69,85,132.5,0.15625,TripletSixteenth,A4
976,Left,1,72,85,132.666667,0.15625,TripletSixteenth,C5
975,Right,0,79,85,132.666667,0.15625,TripletSixteenth,G5
977,Left,1,69,85,132.833333,0.15625,TripletSixteenth,A4
978,Right,0,77,85,132.833333,0.15625,TripletSixteenth,F5
981,Right,0,76,85,133.0,0.989583,Quarter,E5_C5
979,Left,1,58,85,133.0,1.989583,DottedQuarter,F4_A#3
983,Right,0,70,85,134.0,0.989583,Quarter,D5_A#4
985,Left,1,57,100,134.5,0.489583,Eighth,A3
986,Left,1,65,100,135.0,0.989583,DottedEighth,G#3_F4_B3
989,Right,0,86,100,135.0,0.739583,DottedEighth,D6_D5
991,Left,1,57,100,135.75,0.239583,Sixteenth,C4_A3
993,Right,0,72,100,135.75,0.239583,Sixteenth,C6_C5
996,Left,1,65,100,136.0,0.989583,Quarter,F4_C4_A3
995,Right,0,84,100,136.0,0.239583,Sixteenth,C6
999,Right,0,89,100,136.25,0.489583,Eighth,F6
1000,Right,0,88,100,136.75,0.239583,Sixteenth,E6
1001,Right,0,86,100,136.875,0.239583,Sixteenth,D6
1002,Left,1,62,99,137.0,0.989583,Eighth,D4_A#3
1003,Right,0,85,99,137.0,0.239583,Sixteenth,C#6
1005,Right,0,88,98,137.125,0.239583,Sixteenth,E6
1006,Right,0,86,97,137.25,0.239583,Sixteenth,D6
1007,Right,0,84,96,137.375,0.239583,Sixteenth,C6
1008,Left,1,67,95,137.5,0.489583,Eighth,G4
1009,Right,0,82,95,137.5,0.239583,Sixteenth,A#5
1010,Right,0,81,93,137.625,0.239583,Sixteenth,A5
1011,Right,0,84,92,137.75,0.239583,Sixteenth,C6
1012,Right,0,82,91,137.875,0.239583,Sixteenth,A#5
1013,Right,0,81,90,138.0,0.239583,Sixteenth,A5
1014,Left,1,60,90,138.0,0.989583,Quarter,E4_C4
1016,Right,0,79,89,138.125,0.239583,Sixteenth,G5
1017,Right,0,82,88,138.25,0.239583,Sixteenth,A#5
1018,Right,0,79,86,138.375,0.239583,Sixteenth,G5
1020,Right,0,77,85,138.5,0.239583,Sixteenth,F5
1019,Left,1,70,85,138.5,0.489583,Eighth,A#4
1021,Right,0,76,84,138.625,0.239583,Sixteenth,E5
1022,Right,0,79,83,138.75,0.239583,Sixteenth,G5
1023,Right,0,76,82,138.875,0.114583,ThirtySecond,E5
1025,Right,0,79,80,139.0,0.989583,Quarter,G5_E5
1024,Left,1,65,80,139.0,1.489583,DottedQuarter,F4_A#4
1028,Left,1,69,80,140.0,0.489583,Eighth,A4
1029,Right,0,77,80,140.0,0.239583,Sixteenth,F5
1030,Right,0,72,80,140.25,0.239583,Sixteenth,C5
1031,Right,0,77,80,140.5,0.239583,Sixteenth,F5
1032,Right,0,72,80,140.75,0.239583,Sixteenth,C5
1033,Right,0,70,80,141.0,0.239583,Sixteenth,A#4
1034,Right,0,69,80,141.25,0.239583,Sixteenth,A4
1035,Right,0,67,80,141.5,0.239583,Sixteenth,G4
1036,Right,0,65,80,141.75,0.239583,Sixteenth,F4
1037,Right,0,55,100,142.0,0.989583,Quarter,G3_F4
1038,Left,1,46,100,142.0,1.989583,Half,C3_A#2
1041,Right,0,64,80,142.5,0.739583,DottedEighth,E4
1042,Left,1,49,80,143.0,0.489583,Eighth,C#3
1043,Right,0,65,80,143.125,0.239583,Sixteenth,F4
1044,Right,0,67,80,143.25,0.239583,Sixteenth,G4
1045,Right,0,65,80,143.375,0.239583,Sixteenth,F4
1046,Right,0,64,80,143.5,0.239583,Sixteenth,E4
1047,Left,1,48,80,143.5,0.489583,Eighth,C3
1048,Right,0,65,80,143.625,0.239583,Sixteenth,F4
1049,Right,0,67,80,143.75,0.239583,Sixteenth,G4
1050,Right,0,64,80,143.875,0.239583,Sixteenth,E4
1052,Right,0,65,80,144.0,0.989583,Sixteenth,F4_C4
1051,Left,1,45,80,144.0,0.989583,Quarter,A3_A2
1055,Right,0,67,80,144.25,0.239583,Sixteenth,G4
1056,Left,1,53,80,144.5,0.489583,Eighth,F3
1057,Right,0,69,80,144.5,0.239583,Sixteenth,A4
1058,Right,0,65,80,144.75,0.239583,Sixteenth,F4
1059,Left,1,48,100,145.0,1.989583,Quarter,C3_A#2
1061,Right,0,55,100,145.0,0.989583,Quarter,G3_F4
1063,Right,0,64,80,145.5,0.739583,DottedEighth,E4
1064,Left,1,49,80,146.0,0.489583,Eighth,C#3
1065,Right,0,65,80,146.125,0.239583,Sixteenth,F4
1066,Right,0,67,80,146.25,0.239583,Sixteenth,G4
1067,Right,0,65,80,146.375,0.239583,Sixteenth,F4
1069,Right,0,64,80,146.5,0.239583,Sixteenth,E4
1068,Left,1,48,80,146.5,0.489583,Eighth,C3
1070,Right,0,65,80,146.625,0.239583,Sixteenth,F4
1071,Right,0,67,80,146.75,0.239583,Sixteenth,G4
1072,Right,0,64,80,146.875,0.239583,Sixteenth,E4
1074,Right,0,65,80,147.0,0.989583,Sixteenth,F4_C4
1073,Left,1,45,80,147.0,0.989583,Quarter,A3_A2
1077,Right,0,69,80,147.125,0.239583,Sixteenth,A4
1078,Right,0,72,80,147.25,0.239583,Sixteenth,C5
1079,Right,0,70,80,147.375,0.239583,Sixteenth,A#4
1081,Left,1,53,80,147.5,0.489583,Eighth,F3
1080,Right,0,69,80,147.5,0.239583,Sixteenth,A4
1082,Right,0,67,80,147.625,0.239583,Sixteenth,G4
1083,Right,0,65,80,147.75,0.239583,Sixteenth,F4
1084,Right,0,63,80,147.875,0.239583,Sixteenth,D#4
1085,Left,1,46,80,148.0,0.489583,Eighth,D3_A#2
1087,Right,0,62,80,148.0,0.239583,Sixteenth,D4
1088,Right,0,63,80,148.125,0.239583,Sixteenth,D#4
1089,Right,0,62,80,148.25,0.239583,Sixteenth,D4
1090,Right,0,61,80,148.375,0.239583,Sixteenth,C#4
1091,Right,0,62,80,148.5,0.239583,Sixteenth,D4
1092,Right,0,64,80,148.625,0.239583,Sixteenth,E4
1093,Right,0,65,80,148.75,0.239583,Sixteenth,F4
1094,Right,0,66,80,148.875,0.239583,Sixteenth,F#4
1095,Right,0,67,80,149.0,0.239583,Sixteenth,G4
1096,Right,0,69,80,149.125,0.239583,Sixteenth,A4
1097,Right,0,70,80,149.25,0.239583,Sixteenth,A#4
1098,Right,0,72,80,149.375,0.239583,Sixteenth,C5
1099,Right,0,74,80,149.5,0.239583,Sixteenth,D5
1100,Right,0,76,80,149.625,0.239583,Sixteenth,E5
1101,Right,0,77,80,149.75,0.239583,Sixteenth,F5
1102,Right,0,78,80,149.875,0.239583,Sixteenth,F#5
1103,Right,0,79,80,150.0,0.239583,Sixteenth,G5
1104,Left,1,58,80,150.0,0.489583,Eighth,G4_D4_A#3
1107,Right,0,81,80,150.125,0.239583,Sixteenth,A5
1108,Right,0,82,80,150.25,0.239583,Sixteenth,A#5
1109,Right,0,84,80,150.375,0.239583,Sixteenth,C6
1110,Right,0,86,80,150.5,0.239583,Sixteenth,D6
1111,Right,0,88,80,150.625,0.239583,Sixteenth,E6
1112,Right,0,89,80,150.75,0.239583,Sixteenth,F6
1113,Right,0,86,80,150.875,0.239583,Sixteenth,D6
1117,Right,0,84,80,151.0,0.239583,Sixteenth,C6
1114,Left,1,60,80,151.0,0.489583,Eighth,F4_C4_A4
1118,Right,0,86,80,151.125,0.239583,Sixteenth,D6
1119,Right,0,84,80,151.25,0.239583,Sixteenth,C6
1120,Right,0,83,80,151.375,0.239583,Sixteenth,B5
1121,Right,0,84,80,151.5,0.239583,Sixteenth,C6
1122,Right,0,89,80,151.625,0.239583,Sixteenth,F6
1123,Right,0,88,80,151.75,0.239583,Sixteenth,E6
1124,Right,0,86,80,151.875,0.239583,Sixteenth,D6
1125,Right,0,84,80,152.0,0.239583,Sixteenth,C6
1126,Right,0,83,80,152.125,0.239583,Sixteenth,B5
1127,Right,0,82,80,152.25,0.239583,Sixteenth,A#5
1128,Right,0,81,80,152.375,0.239583,Sixteenth,A5
1129,Right,0,79,80,152.5,0.239583,Sixteenth,G5
1130,Right,0,77,80,152.625,0.239583,Sixteenth,F5
1131,Right,0,76,80,152.75,0.239583,Sixteenth,E5
1132,Right,0,74,80,152.875,0.239583,Sixteenth,D5
1133,Left,1,58,80,153.0,0.989583,Quarter,E3_C3_A#3
1136,Right,0,72,80,153.0,0.239583,Sixteenth,C5
1137,Right,0,70,80,153.25,0.239583,Sixteenth,A#4
1138,Right,0,69,80,153.5,0.239583,Sixteenth,A4
1139,Right,0,67,80,153.75,0.239583,Sixteenth,G4
1140,Left,1,41,80,154.0,1.989583,Half,F2
1141,Right,0,65,80,154.0,2.489583,Half,F4
1142,Left,1,45,80,154.5,0.489583,Eighth,A2
1143,Right,0,53,80,154.5,0.489583,Eighth,F3
1144,Right,0,58,80,155.0,0.489583,Eighth,A#3
1145,Left,1,50,80,155.0,0.489583,Eighth,D3
1147,Right,0,57,80,155.5,0.489583,Eighth,A3
1146,Left,1,48,80,155.5,0.489583,Eighth,C3
1150,Right,0,55,80,156.0,0.489583,Eighth,G3
1148,Left,1,41,80,156.0,0.989583,Quarter,F2_A#2
1151,Left,1,45,80,156.5,0.489583,Eighth,A2
1152,Right,0,53,80,156.5,0.489583,Eighth,F3_C4
1154,Right,0,65,80,156.75,0.239583,Sixteenth,F4
1155,Right,0,58,100,157.0,1.989583,Half,G3_F4_C4_A#3
1156,Left,1,36,100,157.0,1.489583,DottedQuarter,C3_C2
1161,Right,0,64,80,158.0,0.989583,Quarter,E4
1162,Left,1,38,80,158.25,0.239583,Sixteenth,D2
1163,Left,1,40,80,158.375,0.239583,Sixteenth,E2
1164,Left,1,41,80,158.5,0.239583,Sixteenth,F2
1165,Left,1,43,80,158.625,0.239583,Sixteenth,G2
1166,Left,1,45,80,158.75,0.239583,Sixteenth,A2
1167,Left,1,46,80,158.875,0.239583,Sixteenth,A#2
1168,Right,0,60,80,159.0,0.989583,Quarter,G3_E4_C4_A#3
1171,Left,1,48,80,159.0,0.239583,Sixteenth,C3
1173,Left,1,47,80,159.125,0.239583,Sixteenth,B2
1174,Left,1,48,80,159.25,0.239583,Sixteenth,C3
1175,Left,1,50,80,159.375,0.239583,Sixteenth,D3
1176,Left,1,48,80,159.5,0.239583,Sixteenth,C3
1177,Left,1,46,80,159.625,0.239583,Sixteenth,A#2
1178,Left,1,45,80,159.75,0.239583,Sixteenth,A2
1179,Left,1,43,80,159.875,0.114583,ThirtySecond,G2
1180,Left,1,41,80,160.0,0.989583,Quarter,F2
1181,Right,0,65,80,160.0,0.15625,TripletSixteenth,F4_C4_A3
1184,Right,0,57,80,160.166667,0.15625,TripletSixteenth,A3
1185,Right,0,60,80,160.333333,0.15625,TripletSixteenth,C4
1186,Right,0,65,80,160.5,0.15625,TripletSixteenth,F4
1187,Right,0,69,80,160.666667,0.15625,TripletSixteenth,A4
1188,Right,0,72,80,160.833333,0.15625,TripletSixteenth,C5
1189,Right,0,72,80,161.0,0.15625,TripletSixteenth,C5
1190,Left,1,63,80,161.166667,0.15625,TripletSixteenth,D#4
1191,Right,0,65,80,161.166667,0.15625,TripletSixteenth,F4
1192,Right,0,70,80,161.333333,0.15625,TripletSixteenth,A#4
1193,Left,1,62,80,161.333333,0.15625,TripletSixteenth,D4
1194,Right,0,70,80,161.5,0.15625,TripletSixteenth,A#4
1196,Right,0,64,80,161.666667,0.15625,TripletSixteenth,E4
1195,Left,1,62,80,161.666667,0.15625,TripletSixteenth,D4
1198,Right,0,69,80,161.833333,0.15625,TripletSixteenth,A4
1197,Left,1,60,80,161.833333,0.15625,TripletSixteenth,C4
1199,Right,0,69,80,162.0,0.15625,TripletSixteenth,A4
1200,Left,1,60,80,162.166667,0.15625,TripletSixteenth,C4
1201,Right,0,62,80,162.166667,0.15625,TripletSixteenth,D4
1203,Left,1,58,80,162.333333,0.15625,TripletSixteenth,A#3
1202,Right,0,67,80,162.333333,0.15625,TripletSixteenth,G4
1204,Right,0,67,80,162.5,0.15625,TripletSixteenth,G4
1206,Left,1,58,80,162.666667,0.15625,TripletSixteenth,A#3
1205,Right,0,60,80,162.666667,0.15625,TripletSixteenth,C4
1208,Right,0,65,80,162.833333,0.15625,TripletSixteenth,F4
1207,Left,1,57,80,162.833333,0.15625,TripletSixteenth,A3
1211,Right,0,55,100,163.0,1.989583,Half,G3_F4_C4_A#3
1209,Left,1,36,100,163.0,1.489583,DottedQuarter,C3_C2
1215,Right,0,64,80,164.0,0.989583,Quarter,E4
1216,Left,1,50,80,164.25,0.239583,Sixteenth,D3
1217,Left,1,52,80,164.375,0.239583,Sixteenth,E3
1218,Left,1,53,80,164.5,0.239583,Sixteenth,F3
1219,Left,1,55,80,164.625,0.239583,Sixteenth,G3
1220,Left,1,57,80,164.75,0.239583,Sixteenth,A3
1221,Left,1,58,80,164.875,0.239583,Sixteenth,A#3
1225,Left,1,60,80,165.0,0.239583,Sixteenth,C4
1222,Right,0,72,80,165.0,0.989583,Quarter,G4_E5_C5_A#4
1227,Left,1,59,80,165.125,0.239583,Sixteenth,B3
1228,Left,1,60,80,165.25,0.239583,Sixteenth,C4
1229,Left,1,62,80,165.375,0.239583,Sixteenth,D4
1230,Left,1,60,80,165.5,0.239583,Sixteenth,C4
1231,Left,1,58,80,165.625,0.239583,Sixteenth,A#3
1232,Left,1,57,80,165.75,0.239583,Sixteenth,A3
1233,Left,1,55,80,165.875,0.114583,ThirtySecond,G3
1234,Left,1,53,80,166.0,0.15625,TripletSixteenth,F3
1235,Left,1,57,80,166.083333,0.15625,TripletSixteenth,A3
1236,Left,1,60,80,166.166667,0.15625,TripletSixteenth,C4
1237,Right,0,65,80,166.25,0.15625,TripletSixteenth,F4
1238,Right,0,69,80,166.333333,0.15625,TripletSixteenth,A4
1239,Right,0,72,80,166.416667,0.15625,TripletSixteenth,C5
1240,Left,1,65,80,166.5,0.15625,TripletSixteenth,F4
1241,Left,1,69,80,166.583333,0.15625,TripletSixteenth,A4
1242,Left,1,72,80,166.666667,0.15625,TripletSixteenth,C5
1243,Right,0,77,80,166.75,0.15625,TripletSixteenth,F5
1244,Right,0,81,80,166.833333,0.15625,TripletSixteenth,A5
1245,Right,0,84,80,167.0,0.072917,TripletThirtySecond,C6
1246,Right,0,81,80,167.083333,0.15625,TripletSixteenth,A5
1247,Right,0,82,80,167.166667,0.15625,TripletSixteenth,A#5
1248,Left,1,73,80,167.25,0.15625,TripletSixteenth,C#5
1249,Left,1,74,80,167.333333,0.15625,TripletSixteenth,D5
1250,Left,1,77,80,167.416667,0.15625,TripletSixteenth,F5
1251,Right,0,82,80,167.5,0.15625,TripletSixteenth,A#5
1252,Right,0,80,80,167.583333,0.15625,TripletSixteenth,G#5
1253,Right,0,81,80,167.666667,0.15625,TripletSixteenth,A5
1254,Left,1,71,80,167.75,0.15625,TripletSixteenth,B4
1255,Left,1,72,80,167.833333,0.15625,TripletSixteenth,C5
1256,Left,1,76,80,167.916667,0.15625,TripletSixteenth,E5
1257,Right,0,81,80,168.0,0.15625,TripletSixteenth,A5
1258,Right,0,78,80,168.083333,0.15625,TripletSixteenth,F#5
1259,Right,0,79,80,168.166667,0.15625,TripletSixteenth,G5
1260,Left,1,69,80,168.25,0.15625,TripletSixteenth,A4
1261,Left,1,70,80,168.333333,0.15625,TripletSixteenth,A#4
1262,Left,1,74,80,168.416667,0.15625,TripletSixteenth,D5
1263,Right,0,79,80,168.5,0.15625,TripletSixteenth,G5
1264,Right,0,76,80,168.583333,0.15625,TripletSixteenth,E5
1265,Right,0,77,80,168.666667,0.15625,TripletSixteenth,F5
1266,Left,1,68,80,168.75,0.15625,TripletSixteenth,G#4
1267,Left,1,69,80,168.833333,0.15625,TripletSixteenth,A4
1268,Left,1,72,80,168.916667,0.072917,TripletThirtySecond,C5
1270,Right,0,77,80,169.0,0.989583,Quarter,F5
1269,Left,1,70,80,169.0,1.489583,DottedQuarter,G4_C4_A#4
1273,Right,0,76,80,170.0,0.239583,Sixteenth,E5
1274,Right,0,72,80,170.125,0.239583,Sixteenth,C5
1275,Right,0,74,80,170.25,0.239583,Sixteenth,D5
1276,Right,0,76,80,170.375,0.239583,Sixteenth,E5
1277,Right,0,77,80,170.5,0.239583,Sixteenth,F5
1278,Right,0,79,80,170.625,0.239583,Sixteenth,G5
1279,Right,0,81,80,170.75,0.239583,Sixteenth,A5
1280,Right,0,82,80,170.875,0.239583,Sixteenth,A#5
1284,Right,0,84,80,171.0,0.239583,Sixteenth,C6
1281,Left,1,67,80,171.0,0.989583,Quarter,G4_E4_C4_A#4
1286,Right,0,83,80,171.125,0.239583,Sixteenth,B5
1287,Right,0,84,80,171.25,0.239583,Sixteenth,C6
1288,Right,0,86,80,171.375,0.239583,Sixteenth,D6
1289,Right,0,84,80,171.5,0.239583,Sixteenth,C6
1290,Right,0,82,80,171.625,0.239583,Sixteenth,A#5
1291,Right,0,81,80,171.75,0.239583,Sixteenth,A5
1292,Right,0,79,80,171.875,0.114583,ThirtySecond,G5
1295,Right,0,77,80,172.0,0.489583,Eighth,F5
1293,Left,1,65,80,172.0,0.489583,Eighth,F4_A4
1296,Right,0,74,80,173.0,0.114583,ThirtySecond,D5
1297,Right,0,72,80,173.0625,0.114583,ThirtySecond,C5
1298,Right,0,71,80,173.125,0.114583,ThirtySecond,B4
1299,Right,0,72,80,173.1875,0.114583,ThirtySecond,C5
1300,Right,0,74,80,173.25,0.239583,Sixteenth,D5
1301,Right,0,76,80,173.375,0.239583,Sixteenth,E5
1302,Right,0,77,80,173.5,0.239583,Sixteenth,F5
1303,Right,0,79,80,173.625,0.239583,Sixteenth,G5
1304,Right,0,81,80,173.75,0.239583,Sixteenth,A5
1305,Right,0,82,80,173.875,0.239583,Sixteenth,A#5
1308,Right,0,84,80,174.0,0.239583,Sixteenth,C6
1306,Left,1,67,80,174.0,0.989583,Quarter,G4_E4_C4_A#4
1311,Right,0,83,80,174.125,0.239583,Sixteenth,B5
1312,Right,0,84,80,174.25,0.239583,Sixteenth,C6
1313,Right,0,86,80,174.375,0.239583,Sixteenth,D6
1314,Right,0,84,80,174.5,0.239583,Sixteenth,C6
1315,Right,0,82,80,174.625,0.239583,Sixteenth,A#5
1316,Right,0,81,80,174.75,0.239583,Sixteenth,A5
1317,Right,0,79,80,174.875,0.114583,ThirtySecond,G5
1320,Right,0,79,80,175.0,1.489583,DottedQuarter,G5
1318,Left,1,70,80,175.0,2.989583,Quarter,F4_A#4
1321,Left,1,72,80,176.0,0.989583,Quarter,C5
1322,Right,0,81,80,176.5,0.15625,TripletSixteenth,A5
1323,Right,0,79,80,176.583333,0.15625,TripletSixteenth,G5
1324,Right,0,78,80,176.666667,0.15625,TripletSixteenth,F#5
1325,Right,0,79,80,176.75,0.114583,ThirtySecond,G5
1326,Right,0,81,80,176.875,0.114583,ThirtySecond,A5
1328,Left,1,73,79,177.0,0.989583,Quarter,C#5
1327,Right,0,84,79,177.0,0.239583,Sixteenth,C6
1329,Right,0,82,76,177.25,0.239583,Sixteenth,A#5
1330,Right,0,79,73,177.5,0.239583,Sixteenth,G5
1331,Right,0,76,71,177.75,0.239583,Sixteenth,E5
1332,Right,0,79,70,178.0,0.989583,Quarter,G5_E5
1333,Left,1,65,70,178.0,1.489583,Quarter,F4_C#5_A#4
1337,Left,1,72,70,179.0,0.489583,Eighth,C5_A4
1339,Right,0,77,70,179.0,0.489583,Eighth,F5
1340,Left,1,60,70,181.0,0.489583,Eighth,G3_E3_C4_C3
1342,Right,0,70,70,181.0,0.489583,Eighth,G5_G4_E5_C5_A#4
1349,Left,1,48,70,182.0,0.989583,Quarter,F3_F2_C3_A2
1351,Right,0,69,70,182.0,0.989583,Quarter,F5_C5_A4
