,hand,channel,note,velocity,start_beat,duration,note_value,chord
0,Right,0,68,80,0.0,0.989583,Quarter,G#4_C4
2,Right,0,70,80,1.0,0.989583,Quarter,C#4_A#4
4,Right,0,67,80,2.0,0.989583,Quarter,G4_A#3
6,Left,1,53,80,3.0,0.989583,Quarter,F3
7,Right,0,68,80,4.0,0.989583,Quarter,G#4_C4
9,Right,0,56,80,5.0,0.989583,Quarter,G#3_F4
11,Right,0,65,80,6.0,0.989583,Quarter,F4_C4
13,Left,1,53,80,6.0,0.989583,Quarter,G#3_F3
17,Left,1,58,80,7.0,0.989583,Quarter,G3_A#3
15,Right,0,64,80,7.0,0.989583,Quarter,E4_C4
19,Left,1,53,80,8.0,0.989583,Quarter,G#3_F3
21,Right,0,65,80,8.0,0.989583,Quarter,F4_C4
25,Left,1,55,80,9.0,0.989583,Quarter,G3_E3
23,Right,0,67,80,9.0,0.989583,Quarter,G4_C4
29,Left,1,56,80,10.0,1.989583,Half,G#3_F3
27,Right,0,60,80,10.0,1.989583,Half,C4_A#4
31,Right,0,68,80,11.0,0.989583,Quarter,G#4
32,Right,0,72,80,12.0,0.989583,Quarter,D#4_C5
34,Right,0,65,80,13.0,0.989583,Quarter,F4_C#5
36,Right,0,61,80,14.0,0.989583,Quarter,C#4_A#4
38,Left,1,44,80,15.0,0.989583,Quarter,G#3_G#2
40,Right,0,63,80,16.0,0.989583,Quarter,D#4_C5
42,Right,0,60,80,17.0,0.989583,Quarter,G#4_C4
44,Left,1,56,80,18.0,0.989583,Quarter,G#3_C4
45,Right,0,63,80,18.0,0.989583,Quarter,G#4_D#4
50,Right,0,63,80,19.0,0.989583,Quarter,G4_D#4
48,Left,1,58,80,19.0,0.989583,Quarter,C#4_A#3
54,Right,0,68,80,20.0,0.989583,Quarter,G#4_D#4
52,Left,1,56,80,20.0,0.989583,Quarter,G#3_C4
56,Left,1,55,80,21.0,0.989583,Quarter,G3_A#3
58,Right,0,63,80,21.0,0.989583,Quarter,D#4_A#4
60,Right,0,73,80,22.0,1.989583,Quarter,D#4_C#5
62,Left,1,60,80,22.0,1.989583,Half,G#3_C4
64,Right,0,72,80,23.0,0.989583,Quarter,C5
65,Right,0,68,110,24.0,0.989583,Quarter,G#4_D#5
66,Left,1,63,110,24.0,0.989583,Quarter,D#4_C4
69,Right,0,75,110,25.0,0.989583,Quarter,G4_D#5
70,Left,1,61,110,25.0,0.989583,Quarter,C#4_A#3
75,Right,0,75,110,26.0,0.989583,Quarter,G#4_D#5
73,Left,1,56,110,26.0,0.989583,Quarter,G#3_C4
79,Right,0,70,110,27.0,0.989583,Quarter,D#5_A#4
77,Left,1,55,110,27.0,0.989583,Quarter,G3_A#3
82,Right,0,75,110,28.0,1.989583,Half,D#5_C#5
81,Left,1,56,110,28.0,1.989583,Half,G#3
84,Right,0,72,110,29.0,0.989583,Quarter,C5
85,Left,1,49,80,30.0,0.989583,Quarter,C#3_A#3
87,Right,0,77,80,30.0,0.989583,Quarter,F5
88,Left,1,51,80,31.0,1.989583,Half,D#3_C4
90,Right,0,68,80,31.0,1.989583,Half,G#4
93,Right,0,67,80,33.0,0.989583,Quarter,G4_C5
91,Left,1,61,80,33.0,0.989583,Quarter,D#3_C#4
95,Right,0,70,80,33.395833,0.614583,Eighth,A#4
96,Right,0,68,80,34.0,0.989583,Quarter,G#4
97,Left,1,56,80,34.0,0.989583,Quarter,G#3_C4
99,Right,0,79,110,36.0,0.489583,Eighth,G5
100,Right,0,77,110,36.5,0.489583,Eighth,F5
101,Left,1,60,100,37.0,1.989583,Half,D#3_C4
103,Right,0,68,100,37.0,1.989583,Half,G#4
106,Right,0,72,100,39.0,0.989583,DottedSixteenth,G4_C5
104,Left,1,61,100,39.0,0.989583,Quarter,D#3_C#4
108,Right,0,70,100,39.395833,0.59375,Eighth,A#4
110,Right,0,68,100,40.0,0.989583,Quarter,G#4
109,Left,1,56,100,40.0,0.989583,Quarter,G#3_C4
112,Right,0,68,80,42.0,0.989583,Quarter,G#4_C4
114,Right,0,70,80,43.0,0.989583,Quarter,C#4_A#4
116,Right,0,67,80,44.0,0.989583,Quarter,G4_A#3
118,Left,1,53,80,45.0,0.989583,Quarter,F3
119,Right,0,60,80,46.0,0.989583,Quarter,G#4_C4
121,Right,0,56,80,47.0,0.989583,Quarter,G#3_F4
125,Left,1,56,80,48.0,0.989583,Quarter,G#3_F3
123,Right,0,60,80,48.0,0.989583,Quarter,F4_C4
128,Right,0,60,80,49.0,0.989583,Quarter,E4_C4
127,Left,1,58,80,49.0,0.989583,Quarter,G3_A#3
133,Right,0,60,80,50.0,0.989583,Quarter,F4_C4
131,Left,1,56,80,50.0,0.989583,Quarter,G#3_F3
135,Left,1,55,80,51.0,0.989583,Quarter,G3_E3
137,Right,0,67,80,51.0,0.989583,Quarter,G4_C4
140,Left,1,56,80,52.0,1.989583,Half,G#3_F3
139,Right,0,70,80,52.0,1.989583,Quarter,C4_A#4
143,Right,0,68,80,53.0,0.989583,Quarter,G#4
144,Right,0,63,80,54.0,0.989583,Quarter,D#4_C5
146,Right,0,73,80,55.0,0.989583,Quarter,F4_C#5
148,Right,0,61,80,56.0,0.989583,Quarter,C#4_A#4
150,Left,1,44,80,57.0,0.989583,Quarter,G#3_G#2
152,Right,0,63,80,58.0,0.989583,Quarter,D#4_C5
154,Right,0,60,80,59.0,0.989583,Quarter,G#4_C4
156,Right,0,68,80,60.0,0.989583,Quarter,G#4_D#4
157,Left,1,60,80,60.0,0.989583,Quarter,G#3_C4
162,Right,0,67,80,61.0,0.989583,Quarter,G4_D#4
160,Left,1,61,80,61.0,0.989583,Quarter,C#4_A#3
166,Right,0,68,80,62.0,0.989583,Quarter,G#4_D#4
164,Left,1,56,80,62.0,0.989583,Quarter,G#3_C4
168,Right,0,63,80,63.0,0.989583,Quarter,D#4_A#4
170,Left,1,58,80,63.0,0.989583,Quarter,G3_A#3
174,Right,0,73,80,64.0,1.989583,Quarter,D#4_C#5
172,Left,1,56,80,64.0,1.989583,Half,G#3_C4
176,Right,0,72,80,65.0,0.989583,Quarter,C5
177,Right,0,68,110,66.0,0.989583,Quarter,G#4_D#5
178,Left,1,63,110,66.0,0.989583,Quarter,D#4_C4
183,Right,0,75,110,67.0,0.989583,Quarter,G4_D#5
181,Left,1,61,110,67.0,0.989583,Quarter,C#4_A#3
185,Left,1,60,110,68.0,0.989583,Quarter,G#3_C4
187,Right,0,75,110,68.0,0.989583,Quarter,G#4_D#5
191,Left,1,55,110,69.0,0.989583,Quarter,G3_A#3
189,Right,0,70,110,69.0,0.989583,Quarter,D#5_A#4
193,Right,0,75,110,70.0,1.989583,Half,D#5_C#5
194,Left,1,56,110,70.0,1.989583,Half,G#3
196,Right,0,72,110,71.0,0.989583,Quarter,C5
198,Left,1,58,80,72.0,0.989583,Quarter,C#3_A#3
197,Right,0,77,80,72.0,0.989583,Quarter,F5
200,Left,1,51,80,73.0,1.989583,Half,D#3_C4
202,Right,0,68,80,73.0,1.989583,Half,G#4
203,Right,0,67,80,75.0,0.989583,Quarter,G4_C5
204,Left,1,61,80,75.0,0.989583,Quarter,D#3_C#4
207,Right,0,70,80,75.395833,0.59375,Eighth,A#4
208,Left,1,56,80,76.0,0.989583,Quarter,G#3_C4
210,Right,0,68,80,76.0,0.989583,Quarter,G#4
211,Right,0,79,110,78.0,0.489583,Eighth,G5
212,Right,0,77,110,78.5,0.489583,Eighth,F5
214,Right,0,68,80,79.0,1.989583,Half,G#4
213,Left,1,51,80,79.0,1.989583,Half,D#3_C4
216,Right,0,67,80,81.0,0.989583,Quarter,G4_C5
218,Left,1,51,80,81.0,0.989583,Quarter,D#3_C#4
220,Right,0,70,80,81.395833,0.59375,Eighth,A#4
221,Left,1,60,80,82.0,0.989583,Quarter,G#3_C4
222,Right,0,68,80,82.0,0.989583,Quarter,G#4
224,Right,0,75,80,84.0,0.989583,Quarter,D#5_C5
226,Right,0,73,80,85.0,0.989583,Quarter,E5_C#5
229,Left,1,55,80,86.0,0.989583,Quarter,G3_A#3
228,Right,0,70,80,86.0,0.989583,Quarter,C#5_A#4
232,Left,1,58,80,87.0,0.989583,Quarter,C#4_A#3
234,Right,0,75,80,88.0,0.989583,Quarter,D#5_C5
237,Right,0,68,80,89.0,0.989583,Quarter,G#4_C5
236,Left,1,56,80,89.0,0.989583,Quarter,G#3_C4
240,Left,1,60,80,90.0,0.989583,Quarter,D#4_C4
242,Right,0,75,80,91.0,0.989583,Quarter,F#5_D#5
244,Left,1,60,80,92.0,0.989583,Quarter,C4_A3
246,Right,0,75,80,92.0,0.989583,Quarter,D#5_C5
248,Left,1,60,80,93.0,0.989583,Quarter,D#4_C4
250,Right,0,77,80,94.0,0.989583,Quarter,F5_C#5
253,Right,0,70,80,95.0,0.989583,Quarter,C#5_A#4
252,Left,1,61,80,95.0,0.989583,Quarter,C#4_A#3
256,Left,1,61,80,96.0,0.989583,Quarter,F4_C#4
258,Left,1,61,80,97.0,1.989583,Half,F3_C#4
260,Right,0,65,80,97.0,1.989583,Half,F4_A#4
264,Left,1,63,80,99.0,0.989583,Quarter,F3_D#4
262,Right,0,69,80,99.0,0.989583,Quarter,C#5_A4
266,Right,0,72,80,99.375,0.614583,Eighth,C5
267,Right,0,70,80,100.0,0.989583,Quarter,A#4
268,Left,1,58,80,100.0,0.989583,Quarter,C#4_A#3
270,Right,0,78,110,102.0,0.489583,Eighth,F#5
271,Right,0,77,110,102.5,0.489583,Eighth,F5
273,Left,1,61,80,103.0,1.989583,Half,F3_C#4
272,Right,0,65,80,103.0,1.989583,Half,F4_A#4
278,Left,1,53,80,105.0,0.989583,Quarter,F3_D#4
276,Right,0,73,80,105.0,0.989583,DottedSixteenth,C#5_A4
280,Right,0,72,80,105.375,0.614583,Eighth,C5
283,Right,0,70,80,106.0,0.989583,Quarter,A#4
281,Left,1,61,80,106.0,0.989583,Quarter,C#4_A#3
285,Right,0,69,80,108.0,0.989583,Quarter,C#5_A4
284,Left,1,63,80,108.0,0.989583,Quarter,F3_D#4
288,Right,0,72,80,108.5,0.489583,Eighth,C5
289,Right,0,70,80,109.0,0.989583,Quarter,A#4
290,Left,1,61,80,109.0,0.989583,Quarter,C#4_A#3
292,Right,0,73,80,111.0,0.989583,Eighth,C#5_A4
293,Left,1,63,80,111.0,0.989583,Quarter,F3_D#4
296,Right,0,72,80,111.5,0.489583,Eighth,C5
299,Right,0,70,80,112.0,0.989583,Quarter,A#4
297,Left,1,58,80,112.0,0.989583,Quarter,C#4_A#3
301,Right,0,73,120,114.0,0.489583,Eighth,C#5
300,Left,1,61,120,114.0,0.489583,Eighth,C#4
303,Right,0,72,120,114.5,0.489583,Eighth,C5
302,Left,1,60,120,114.5,0.489583,Eighth,C4
305,Right,0,70,120,115.0,0.489583,Eighth,A#4
304,Left,1,58,120,115.0,0.489583,Eighth,A#3
306,Left,1,60,120,115.5,0.489583,Eighth,C4
307,Right,0,72,120,115.5,0.489583,Eighth,C5
309,Right,0,73,120,116.0,0.489583,Eighth,C#5
308,Left,1,61,120,116.0,0.489583,Eighth,C#4
310,Right,0,72,120,116.5,0.489583,Eighth,C5
311,Left,1,60,120,116.5,0.489583,Eighth,C4
313,Left,1,58,120,117.0,0.489583,Eighth,A#3
312,Right,0,70,120,117.0,0.489583,Eighth,A#4
315,Right,0,72,120,117.5,0.489583,Eighth,C5
314,Left,1,60,120,117.5,0.489583,Eighth,C4
316,Right,0,70,120,118.0,0.489583,Eighth,A#4
317,Left,1,58,120,118.0,0.489583,Eighth,A#3
318,Right,0,68,120,118.5,0.489583,Eighth,G#4
319,Left,1,56,120,118.5,0.489583,Eighth,G#3
321,Left,1,55,120,119.0,0.489583,Eighth,G3
320,Right,0,67,120,119.0,0.489583,Eighth,G4
322,Left,1,56,120,119.5,0.489583,Eighth,G#3
323,Right,0,68,120,119.5,0.489583,Eighth,G#4
325,Right,0,67,120,120.0,0.489583,Eighth,G4
324,Left,1,55,120,120.0,0.489583,Eighth,G3
326,Left,1,53,120,120.5,0.489583,Eighth,F3
327,Right,0,65,120,120.5,0.489583,Eighth,F4
328,Left,1,52,120,121.0,0.489583,Eighth,E3
329,Right,0,64,120,121.0,0.489583,Eighth,E4
330,Left,1,53,120,121.5,0.489583,Eighth,F3
331,Right,0,65,120,121.5,0.489583,Eighth,F4
333,Right,0,67,120,122.0,0.489583,Eighth,G4
332,Left,1,55,120,122.0,0.489583,Eighth,G3
335,Left,1,53,120,122.5,0.489583,Eighth,F3
334,Right,0,65,120,122.5,0.489583,Eighth,F4
337,Right,0,68,120,123.0,0.489583,Eighth,G#4
336,Left,1,56,120,123.0,0.489583,Eighth,G#3
339,Right,0,59,120,123.5,0.489583,Eighth,B3
338,Left,1,47,120,123.5,0.489583,Eighth,B2
341,Right,0,60,120,124.0,0.989583,Quarter,C4
340,Left,1,48,120,124.0,0.989583,Quarter,C3
342,Left,1,60,110,125.0,0.989583,Quarter,C4
343,Left,1,60,110,126.0,0.989583,Quarter,G#4_C4
345,Left,1,61,110,127.0,0.989583,Quarter,C#4_A#4
347,Left,1,67,110,128.0,0.989583,Quarter,G4_A#3
350,Right,0,76,110,129.0,0.989583,Quarter,E5
349,Left,1,58,110,129.0,0.989583,Quarter,G4_A#3
352,Right,0,77,110,130.0,0.989583,Quarter,F5
353,Left,1,68,110,130.0,0.989583,Quarter,G#4_C4
356,Left,1,65,110,131.0,0.989583,Quarter,G#3_F4
355,Right,0,80,110,131.0,0.989583,Quarter,G#5
360,Right,0,84,110,132.0,0.489583,Eighth,C6
358,Left,1,53,110,132.0,0.989583,Quarter,G#3_F3
361,Right,0,85,110,132.25,0.489583,Eighth,C#6
362,Right,0,82,110,132.5,0.489583,Eighth,A#5
363,Right,0,84,110,132.75,0.239583,Sixteenth,C6
366,Right,0,85,110,133.0,0.989583,Quarter,C#6
364,Left,1,52,110,133.0,0.989583,Quarter,G3_E3
369,Right,0,82,110,134.0,0.989583,Quarter,A#5
367,Left,1,58,110,134.0,0.989583,Quarter,G3_A#3
370,Left,1,55,110,135.0,0.989583,Quarter,G3_A#3
372,Right,0,82,110,135.0,0.489583,Eighth,A#5
373,Right,0,84,110,135.25,0.489583,Eighth,C6
374,Right,0,80,110,135.5,0.489583,Eighth,G#5
375,Right,0,82,110,135.75,0.239583,Sixteenth,A#5
376,Left,1,53,110,136.0,0.989583,Quarter,G#3_F3
378,Right,0,84,110,136.0,0.989583,Quarter,C6
380,Left,1,60,110,137.0,0.989583,Quarter,G#3_C4
379,Right,0,80,110,137.0,0.989583,Quarter,G#5
382,Left,1,56,110,138.0,0.989583,Quarter,G#3_F4_C4
385,Right,0,80,110,138.0,0.489583,Eighth,G#5
386,Right,0,82,110,138.25,0.489583,Eighth,A#5
387,Right,0,79,110,138.5,0.489583,Eighth,G5
388,Right,0,80,110,138.75,0.239583,Sixteenth,G#5
390,Right,0,82,110,139.0,0.989583,Quarter,A#5
389,Left,1,58,110,139.0,0.989583,Quarter,G3_E4_A#3
394,Left,1,64,110,140.0,0.989583,Quarter,E4_C#4_A#3
393,Right,0,79,110,140.0,0.989583,Quarter,G5
397,Left,1,58,110,141.0,0.989583,Quarter,E4_C#4_A#3
399,Right,0,79,110,141.0,0.489583,Eighth,G5
401,Right,0,80,110,141.25,0.489583,Eighth,G#5
402,Right,0,77,110,141.5,0.489583,Eighth,F5
403,Right,0,79,110,141.75,0.239583,Sixteenth,G5
404,Left,1,65,110,142.0,1.989583,Half,F4_D4_B3
405,Right,0,80,110,142.0,0.989583,Quarter,G#5
409,Right,0,77,110,143.0,0.989583,Quarter,F5
408,Left,1,68,110,143.0,0.989583,Quarter,G#4
412,Right,0,77,120,144.0,0.989583,Quarter,F5
410,Left,1,68,120,144.0,0.989583,Quarter,G#4_D4_B3
414,Left,1,60,80,145.0,1.989583,Half,G#4_C4
416,Right,0,77,80,145.0,1.989583,Half,F5
419,Left,1,60,80,147.0,0.989583,Quarter,C4_A#4
417,Right,0,80,80,147.0,0.989583,DottedSixteenth,G#5_E5
421,Right,0,79,80,147.385417,0.604167,Eighth,G5
423,Right,0,77,80,148.0,0.989583,Quarter,F5
422,Left,1,65,80,148.0,0.989583,Quarter,G#4_F4
425,Right,0,75,80,150.0,0.489583,Eighth,D#5
426,Right,0,73,80,150.5,0.489583,Eighth,C#5
429,Right,0,65,80,151.0,1.989583,Half,F4
427,Left,1,48,80,151.0,1.989583,Half,G#3_C3
430,Right,0,68,80,153.0,0.989583,DottedSixteenth,G#4_E4
431,Left,1,58,80,153.0,0.989583,Quarter,C3_A#3
434,Right,0,67,80,153.385417,0.604167,Eighth,G4
435,Left,1,56,80,154.0,0.989583,Quarter,G#3_F3
437,Right,0,65,80,154.0,0.989583,Quarter,F4
438,Left,1,48,80,157.0,2.989583,DottedHalf,C3_C2
440,Right,0,60,80,157.0,2.989583,DottedHalf,G3_E3_C4
444,Left,1,41,80,160.0,0.989583,Quarter,F2
443,Right,0,53,80,160.0,0.989583,Quarter,F3
445,Right,0,72,80,162.0,0.989583,Quarter,D#5_C5
447,Right,0,76,80,163.0,0.989583,Quarter,E5_C#5
450,Right,0,70,80,164.0,0.989583,Quarter,C#5_A#4
449,Left,1,58,80,164.0,0.989583,Quarter,G3_A#3
453,Left,1,58,80,165.0,0.989583,Quarter,C#4_A#3
455,Right,0,75,80,166.0,0.989583,Quarter,D#5_C5
459,Right,0,68,80,167.0,0.989583,Quarter,G#4_C5
457,Left,1,60,80,167.0,0.989583,Quarter,G#3_C4
461,Left,1,60,80,168.0,0.989583,Quarter,D#4_C4
463,Right,0,78,80,169.0,0.989583,Quarter,F#5_D#5
467,Right,0,75,80,170.0,0.989583,Quarter,D#5_C5
465,Left,1,57,80,170.0,0.989583,Quarter,C4_A3
469,Left,1,63,80,171.0,0.989583,Quarter,D#4_C4
471,Right,0,73,80,172.0,0.989583,Quarter,F5_C#5
473,Right,0,70,80,173.0,0.989583,Quarter,C#5_A#4
474,Left,1,58,80,173.0,0.989583,Quarter,C#4_A#3
477,Left,1,61,80,174.0,0.989583,Quarter,F4_C#4
480,Right,0,70,80,175.0,1.989583,Half,F4_A#4
479,Left,1,61,80,175.0,1.989583,Half,F3_C#4
483,Right,0,73,80,177.0,0.989583,DottedSixteenth,C#5_A4
485,Left,1,53,80,177.0,0.989583,Quarter,F3_D#4
487,Right,0,72,80,177.375,0.614583,Eighth,C5
488,Right,0,70,80,178.0,0.989583,Quarter,A#4
489,Left,1,61,80,178.0,0.989583,Quarter,C#4_A#3
491,Right,0,78,110,180.0,0.489583,Eighth,F#5
492,Right,0,77,110,180.5,0.489583,Eighth,F5
494,Right,0,65,80,181.0,1.989583,Half,F4_A#4
493,Left,1,61,80,181.0,1.989583,Half,F3_C#4
498,Right,0,69,80,183.0,0.989583,Quarter,C#5_A4
497,Left,1,63,80,183.0,0.989583,Quarter,F3_D#4
501,Right,0,72,80,183.375,0.614583,Eighth,C5
504,Right,0,70,80,184.0,0.989583,Quarter,A#4
502,Left,1,58,80,184.0,0.989583,Quarter,C#4_A#3
505,Left,1,63,80,186.0,0.989583,Quarter,F3_D#4
507,Right,0,69,80,186.0,0.989583,Quarter,C#5_A4
509,Right,0,72,80,186.5,0.489583,Eighth,C5
510,Left,1,58,80,187.0,0.989583,Quarter,C#4_A#3
512,Right,0,70,80,187.0,0.989583,Quarter,A#4
513,Left,1,63,80,189.0,0.989583,Quarter,F3_D#4
514,Right,0,69,80,189.0,0.989583,Quarter,C#5_A4
517,Right,0,72,80,189.5,0.489583,Eighth,C5
518,Right,0,70,80,190.0,0.989583,Quarter,A#4
519,Left,1,61,80,190.0,0.989583,Quarter,C#4_A#3
521,Left,1,61,120,192.0,0.489583,Eighth,C#4
522,Right,0,73,120,192.0,0.489583,Eighth,C#5
523,Left,1,60,120,192.5,0.489583,Eighth,C4
524,Right,0,72,120,192.5,0.489583,Eighth,C5
525,Left,1,58,120,193.0,0.489583,Eighth,A#3
526,Right,0,70,120,193.0,0.489583,Eighth,A#4
527,Right,0,72,120,193.5,0.489583,Eighth,C5
528,Left,1,60,120,193.5,0.489583,Eighth,C4
530,Left,1,61,120,194.0,0.489583,Eighth,C#4
529,Right,0,73,120,194.0,0.489583,Eighth,C#5
532,Left,1,60,120,194.5,0.489583,Eighth,C4
531,Right,0,72,120,194.5,0.489583,Eighth,C5
533,Right,0,70,120,195.0,0.489583,Eighth,A#4
534,Left,1,58,120,195.0,0.489583,Eighth,A#3
536,Right,0,72,120,195.5,0.489583,Eighth,C5
535,Left,1,60,120,195.5,0.489583,Eighth,C4
538,Left,1,58,120,196.0,0.489583,Eighth,A#3
537,Right,0,70,120,196.0,0.489583,Eighth,A#4
540,Left,1,56,120,196.5,0.489583,Eighth,G#3
539,Right,0,68,120,196.5,0.489583,Eighth,G#4
542,Left,1,55,120,197.0,0.489583,Eighth,G3
541,Right,0,67,120,197.0,0.489583,Eighth,G4
544,Left,1,56,120,197.5,0.489583,Eighth,G#3
543,Right,0,68,120,197.5,0.489583,Eighth,G#4
545,Left,1,55,120,198.0,0.489583,Eighth,G3
546,Right,0,67,120,198.0,0.489583,Eighth,G4
547,Right,0,65,120,198.5,0.489583,Eighth,F4
548,Left,1,53,120,198.5,0.489583,Eighth,F3
550,Left,1,52,120,199.0,0.489583,Eighth,E3
549,Right,0,64,120,199.0,0.489583,Eighth,E4
551,Left,1,53,120,199.5,0.489583,Eighth,F3
552,Right,0,65,120,199.5,0.489583,Eighth,F4
554,Left,1,55,120,200.0,0.489583,Eighth,G3
553,Right,0,67,120,200.0,0.489583,Eighth,G4
556,Left,1,53,120,200.5,0.489583,Eighth,F3
555,Right,0,65,120,200.5,0.489583,Eighth,F4
558,Left,1,56,120,201.0,0.489583,Eighth,G#3
557,Right,0,68,120,201.0,0.489583,Eighth,G#4
559,Left,1,47,120,201.5,0.489583,Eighth,B2
560,Right,0,59,120,201.5,0.489583,Eighth,B3
561,Right,0,60,120,202.0,0.989583,Quarter,C4
562,Left,1,48,120,202.0,0.989583,Quarter,C3
563,Left,1,60,110,203.0,0.989583,Quarter,C4
564,Left,1,60,110,204.0,0.989583,Quarter,G#4_C4
566,Left,1,61,110,205.0,0.989583,Quarter,C#4_A#4
568,Left,1,67,110,206.0,0.989583,Quarter,G4_A#3
571,Right,0,76,110,207.0,0.989583,Quarter,E5
570,Left,1,58,110,207.0,0.989583,Quarter,G4_A#3
574,Left,1,68,110,208.0,0.989583,Quarter,G#4_C4
573,Right,0,77,110,208.0,0.989583,Quarter,F5
578,Right,0,80,110,209.0,0.989583,Quarter,G#5
576,Left,1,65,110,209.0,0.989583,Quarter,G#3_F4
579,Left,1,56,110,210.0,0.989583,Quarter,G#3_F3
581,Right,0,84,110,210.0,0.489583,Eighth,C6
582,Right,0,85,110,210.25,0.489583,Eighth,C#6
583,Right,0,82,110,210.5,0.489583,Eighth,A#5
584,Right,0,84,110,210.75,0.239583,Sixteenth,C6
585,Right,0,85,110,211.0,0.989583,Quarter,C#6
586,Left,1,52,110,211.0,0.989583,Quarter,G3_E3
589,Right,0,82,110,212.0,0.989583,Quarter,A#5
588,Left,1,58,110,212.0,0.989583,Quarter,G3_A#3
592,Right,0,82,110,213.0,0.489583,Eighth,A#5
591,Left,1,58,110,213.0,0.989583,Quarter,G3_A#3
594,Right,0,84,110,213.25,0.489583,Eighth,C6
595,Right,0,80,110,213.5,0.489583,Eighth,G#5
596,Right,0,82,110,213.75,0.239583,Sixteenth,A#5
597,Left,1,53,110,214.0,0.989583,Quarter,G#3_F3
598,Right,0,84,110,214.0,0.989583,Quarter,C6
601,Right,0,80,110,215.0,0.989583,Quarter,G#5
600,Left,1,60,110,215.0,0.989583,Quarter,G#3_C4
603,Left,1,65,110,216.0,0.989583,Quarter,G#3_F4_C4
605,Right,0,80,110,216.0,0.489583,Eighth,G#5
607,Right,0,82,110,216.25,0.489583,Eighth,A#5
608,Right,0,79,110,216.5,0.489583,Eighth,G5
609,Right,0,80,110,216.75,0.239583,Sixteenth,G#5
612,Right,0,82,110,217.0,0.989583,Quarter,A#5
610,Left,1,58,110,217.0,0.989583,Quarter,G3_E4_A#3
617,Right,0,79,110,218.0,0.989583,Quarter,G5
614,Left,1,64,110,218.0,0.989583,Quarter,E4_C#4_A#3
618,Left,1,61,110,219.0,0.989583,Quarter,E4_C#4_A#3
619,Right,0,79,110,219.0,0.489583,Eighth,G5
622,Right,0,80,110,219.25,0.489583,Eighth,G#5
623,Right,0,77,110,219.5,0.489583,Eighth,F5
624,Right,0,79,110,219.75,0.239583,Sixteenth,G5
625,Left,1,59,110,220.0,1.989583,Half,F4_D4_B3
628,Right,0,80,110,220.0,0.989583,Quarter,G#5
630,Left,1,68,110,221.0,0.989583,Quarter,G#4
629,Right,0,77,110,221.0,0.989583,Quarter,F5
632,Right,0,77,120,222.0,0.989583,Quarter,F5
631,Left,1,62,120,222.0,0.989583,Quarter,G#4_D4_B3
636,Left,1,60,80,223.0,1.989583,Half,G#4_C4
635,Right,0,77,80,223.0,1.989583,Half,F5
639,Left,1,70,80,225.0,0.989583,Quarter,C4_A#4
638,Right,0,76,80,225.0,0.989583,Quarter,G#5_E5
642,Right,0,79,80,225.385417,0.604167,Eighth,G5
643,Right,0,77,80,226.0,0.989583,Quarter,F5
644,Left,1,65,80,226.0,0.989583,Quarter,G#4_F4
646,Right,0,75,80,228.0,0.489583,Eighth,D#5
647,Right,0,73,80,228.5,0.489583,Eighth,C#5
648,Left,1,56,80,229.0,1.989583,Half,G#3_C3
650,Right,0,65,80,229.0,1.989583,Half,F4
652,Left,1,58,80,231.0,0.989583,Quarter,C3_A#3
651,Right,0,68,80,231.0,0.989583,DottedSixteenth,G#4_E4
655,Right,0,67,80,231.385417,0.604167,Eighth,G4
656,Right,0,65,80,232.0,0.989583,Quarter,F4
657,Left,1,56,80,232.0,0.989583,Quarter,G#3_F3
659,Right,0,60,80,235.0,2.989583,DottedHalf,G3_E3_C4
662,Left,1,36,80,235.0,2.989583,DottedHalf,C3_C2
664,Left,1,41,80,238.0,0.989583,Quarter,F2
665,Right,0,53,80,238.0,0.989583,Quarter,F3
666,Right,0,60,100,240.0,0.989583,Quarter,C4
668,Right,0,69,80,241.0,0.489583,Eighth,A4
667,Left,1,53,80,241.0,0.989583,Quarter,F3
669,Right,0,67,80,241.5,0.489583,Eighth,G4
670,Right,0,69,80,242.0,0.489583,Eighth,A4
671,Left,1,57,80,242.0,0.989583,Quarter,A3
672,Right,0,65,80,242.5,0.489583,Eighth,F4
673,Right,0,67,80,243.0,0.489583,Eighth,G4
674,Left,1,60,80,243.0,0.989583,Quarter,C4
675,Right,0,69,80,243.5,0.489583,Eighth,A4
676,Right,0,70,80,244.0,0.489583,Eighth,A#4
677,Left,1,62,80,244.0,0.989583,Quarter,D4
678,Right,0,69,80,244.5,0.489583,Eighth,A4
680,Right,0,70,80,245.0,0.489583,Eighth,A#4
679,Left,1,55,80,245.0,0.989583,Quarter,G3
681,Right,0,67,80,245.5,0.489583,Eighth,G4
682,Right,0,69,80,246.0,0.489583,Eighth,A4
683,Left,1,53,80,246.0,0.989583,Quarter,F3
684,Right,0,70,80,246.5,0.489583,Eighth,A#4
685,Right,0,72,80,247.0,0.489583,Eighth,C5
686,Left,1,52,80,247.0,0.989583,Quarter,E3
687,Right,0,71,80,247.5,0.489583,Eighth,B4
689,Left,1,55,80,248.0,0.989583,Quarter,G3
688,Right,0,72,80,248.0,0.489583,Eighth,C5
690,Right,0,74,80,248.5,0.489583,Eighth,D5
691,Right,0,72,80,249.0,0.489583,Eighth,C5
692,Left,1,60,80,249.0,0.989583,Quarter,C4
693,Right,0,70,80,249.5,0.489583,Eighth,A#4
694,Right,0,69,80,250.0,0.489583,Eighth,A4
695,Left,1,53,80,250.0,0.989583,Quarter,F3
696,Right,0,67,80,250.5,0.489583,Eighth,G4
698,Left,1,57,80,251.0,0.989583,Quarter,A3
697,Right,0,69,80,251.0,0.489583,Eighth,A4
699,Right,0,70,80,251.5,0.489583,Eighth,A#4
701,Left,1,60,80,252.0,0.989583,Quarter,C4
700,Right,0,69,80,252.0,0.489583,Eighth,A4
702,Right,0,65,80,252.5,0.489583,Eighth,F4
703,Left,1,45,80,253.0,0.489583,Eighth,A2
704,Right,0,69,80,253.0,2.989583,DottedHalf,A4
705,Left,1,44,80,253.5,0.489583,Eighth,G#2
707,Right,0,72,80,254.0,0.989583,Quarter,C5
706,Left,1,45,80,254.0,0.489583,Eighth,A2
708,Left,1,41,80,254.5,0.489583,Eighth,F2
709,Left,1,43,80,255.0,0.489583,Eighth,G2
710,Right,0,77,80,255.0,0.989583,Quarter,F5
711,Left,1,45,80,255.5,0.489583,Eighth,A2
712,Left,1,46,80,256.0,0.489583,Eighth,A#2
713,Right,0,67,80,256.0,2.989583,DottedHalf,G4
714,Left,1,45,80,256.5,0.489583,Eighth,A2
715,Left,1,46,80,257.0,0.489583,Eighth,A#2
716,Right,0,74,80,257.0,0.989583,Quarter,D5
717,Left,1,43,80,257.5,0.489583,Eighth,G2
718,Right,0,77,80,258.0,0.989583,Quarter,F5
719,Left,1,45,80,258.0,0.489583,Eighth,A2
720,Left,1,47,80,258.5,0.489583,Eighth,B2
721,Right,0,67,80,259.0,2.989583,DottedHalf,G4
722,Left,1,48,80,259.0,0.489583,Eighth,C3
723,Left,1,47,80,259.5,0.489583,Eighth,B2
725,Left,1,48,80,260.0,0.489583,Eighth,C3
724,Right,0,77,80,260.0,0.989583,Quarter,F5
726,Left,1,45,80,260.5,0.489583,Eighth,A2
728,Left,1,47,80,261.0,0.489583,Eighth,B2
727,Right,0,76,80,261.0,0.989583,Quarter,E5
729,Left,1,49,80,261.5,0.489583,Eighth,C#3
731,Left,1,50,80,262.0,0.489583,Eighth,D3
730,Right,0,65,80,262.0,1.989583,Half,F4
732,Left,1,45,80,262.5,0.489583,Eighth,A2
734,Right,0,74,80,263.0,0.989583,Quarter,D5
733,Left,1,47,80,263.0,0.489583,Eighth,B2
735,Left,1,43,80,263.5,0.489583,Eighth,G2
736,Right,0,72,80,264.0,0.989583,Quarter,E4_C5
738,Left,1,48,80,264.0,0.489583,Eighth,C3
739,Left,1,42,80,264.5,0.489583,Eighth,F#2
740,Left,1,43,80,265.0,1.989583,Half,G2
741,Right,0,67,80,265.5,0.489583,Eighth,G4
742,Right,0,64,80,266.0,0.489583,Eighth,E4
743,Right,0,60,80,266.5,0.489583,Eighth,C4
745,Right,0,59,80,267.0,0.989583,Quarter,F4_B3
744,Left,1,31,80,267.0,0.989583,Quarter,G1
747,Right,0,62,80,267.5,0.489583,Eighth,D4
749,Right,0,60,80,268.0,0.989583,Quarter,C4
748,Left,1,36,80,268.0,0.989583,Quarter,C2
750,Left,1,48,80,269.0,0.989583,Quarter,C3
751,Right,0,60,80,270.0,0.989583,Quarter,C4
753,Right,0,69,80,271.0,0.489583,Eighth,A4
752,Left,1,53,80,271.0,0.989583,Quarter,F3
754,Right,0,67,80,271.5,0.489583,Eighth,G4
756,Right,0,69,80,272.0,0.489583,Eighth,A4
755,Left,1,57,80,272.0,0.989583,Quarter,A3
757,Right,0,65,80,272.5,0.489583,Eighth,F4
758,Right,0,67,80,273.0,0.489583,Eighth,G4
759,Left,1,60,80,273.0,0.989583,Quarter,C4
760,Right,0,69,80,273.5,0.489583,Eighth,A4
761,Right,0,70,80,274.0,0.489583,Eighth,A#4
762,Left,1,62,80,274.0,0.989583,Quarter,D4
763,Right,0,69,80,274.5,0.489583,Eighth,A4
765,Right,0,70,80,275.0,0.489583,Eighth,A#4
764,Left,1,55,80,275.0,0.989583,Quarter,G3
766,Right,0,67,80,275.5,0.489583,Eighth,G4
767,Right,0,69,80,276.0,0.489583,Eighth,A4
768,Left,1,53,80,276.0,0.989583,Quarter,F3
769,Right,0,70,80,276.5,0.489583,Eighth,A#4
771,Right,0,72,80,277.0,0.489583,Eighth,C5
770,Left,1,52,80,277.0,0.989583,Quarter,E3
772,Right,0,71,80,277.5,0.489583,Eighth,B4
773,Right,0,72,80,278.0,0.489583,Eighth,C5
774,Left,1,55,80,278.0,0.989583,Quarter,G3
775,Right,0,74,80,278.5,0.489583,Eighth,D5
776,Left,1,60,80,279.0,0.989583,Quarter,C4
777,Right,0,72,80,279.0,0.489583,Eighth,C5
778,Right,0,70,80,279.5,0.489583,Eighth,A#4
779,Right,0,69,80,280.0,0.489583,Eighth,A4
780,Left,1,53,80,280.0,0.989583,Quarter,F3
781,Right,0,67,80,280.5,0.489583,Eighth,G4
783,Right,0,69,80,281.0,0.489583,Eighth,A4
782,Left,1,57,80,281.0,0.989583,Quarter,A3
784,Right,0,70,80,281.5,0.489583,Eighth,A#4
786,Right,0,69,80,282.0,0.489583,Eighth,A4
785,Left,1,60,80,282.0,0.989583,Quarter,C4
787,Right,0,65,80,282.5,0.489583,Eighth,F4
789,Right,0,69,80,283.0,2.989583,DottedHalf,A4
788,Left,1,45,80,283.0,0.489583,Eighth,A2
790,Left,1,44,80,283.5,0.489583,Eighth,G#2
791,Left,1,45,80,284.0,0.489583,Eighth,A2
792,Right,0,72,80,284.0,0.989583,Quarter,C5
793,Left,1,41,80,284.5,0.489583,Eighth,F2
794,Left,1,43,80,285.0,0.489583,Eighth,G2
795,Right,0,77,80,285.0,0.989583,Quarter,F5
796,Left,1,45,80,285.5,0.489583,Eighth,A2
798,Left,1,46,80,286.0,0.489583,Eighth,A#2
797,Right,0,67,80,286.0,2.989583,DottedHalf,G4
799,Left,1,45,80,286.5,0.489583,Eighth,A2
800,Left,1,46,80,287.0,0.489583,Eighth,A#2
801,Right,0,74,80,287.0,0.989583,Quarter,D5
802,Left,1,43,80,287.5,0.489583,Eighth,G2
804,Left,1,45,80,288.0,0.489583,Eighth,A2
803,Right,0,77,80,288.0,0.989583,Quarter,F5
805,Left,1,47,80,288.5,0.489583,Eighth,B2
806,Right,0,67,80,289.0,2.989583,DottedHalf,G4
807,Left,1,48,80,289.0,0.489583,Eighth,C3
808,Left,1,47,80,289.5,0.489583,Eighth,B2
809,Left,1,48,80,290.0,0.489583,Eighth,C3
810,Right,0,77,80,290.0,0.989583,Quarter,F5
811,Left,1,45,80,290.5,0.489583,Eighth,A2
813,Left,1,47,80,291.0,0.489583,Eighth,B2
812,Right,0,76,80,291.0,0.989583,Quarter,E5
814,Left,1,49,80,291.5,0.489583,Eighth,C#3
815,Left,1,50,80,292.0,0.489583,Eighth,D3
816,Right,0,65,80,292.0,1.989583,Half,F4
817,Left,1,45,80,292.5,0.489583,Eighth,A2
818,Left,1,47,80,293.0,0.489583,Eighth,B2
819,Right,0,74,80,293.0,0.989583,Quarter,D5
820,Left,1,43,80,293.5,0.489583,Eighth,G2
822,Right,0,72,80,294.0,0.989583,Quarter,E4_C5
821,Left,1,48,80,294.0,0.489583,Eighth,C3
824,Left,1,42,80,294.5,0.489583,Eighth,F#2
825,Left,1,43,80,295.0,1.989583,Half,G2
826,Right,0,67,80,295.5,0.489583,Eighth,G4
827,Right,0,64,80,296.0,0.489583,Eighth,E4
828,Right,0,60,80,296.5,0.489583,Eighth,C4
829,Right,0,65,80,297.0,0.989583,Eighth,F4_B3
831,Left,1,31,80,297.0,0.989583,Quarter,G1
832,Right,0,62,80,297.5,0.489583,Eighth,D4
833,Left,1,36,80,298.0,0.989583,Quarter,C2
834,Right,0,60,80,298.0,0.989583,Quarter,C4
835,Left,1,48,80,299.0,0.989583,Quarter,C3
836,Right,0,60,80,300.0,0.989583,Quarter,C4
839,Right,0,64,80,301.0,0.489583,Eighth,E4
837,Left,1,60,80,301.0,9.989583,DottedHalf,C4_C3
840,Right,0,62,80,301.5,0.489583,Eighth,D4
841,Right,0,64,80,302.0,0.489583,Eighth,E4
842,Right,0,60,80,302.5,0.489583,Eighth,C4
843,Right,0,62,80,303.0,0.489583,Eighth,D4
844,Right,0,64,80,303.5,0.489583,Eighth,E4
845,Right,0,65,80,304.0,0.489583,Eighth,F4
846,Left,1,59,80,304.0,2.989583,DottedHalf,B3
847,Right,0,64,80,304.5,0.489583,Eighth,E4
848,Right,0,65,80,305.0,0.489583,Eighth,F4
849,Right,0,62,80,305.5,0.489583,Eighth,D4
850,Right,0,64,80,306.0,0.489583,Eighth,E4
851,Right,0,65,80,306.5,0.489583,Eighth,F4
853,Left,1,58,80,307.0,2.989583,DottedHalf,A#3
852,Right,0,67,80,307.0,0.489583,Eighth,G4
854,Right,0,66,80,307.5,0.489583,Eighth,F#4
855,Right,0,67,80,308.0,0.489583,Eighth,G4
856,Right,0,64,80,308.5,0.489583,Eighth,E4
857,Right,0,65,80,309.0,0.489583,Eighth,F4
858,Right,0,67,80,309.5,0.489583,Eighth,G4
859,Right,0,69,80,310.0,0.489583,Eighth,A4
860,Left,1,57,80,310.0,0.989583,Quarter,A3
861,Right,0,65,80,310.5,0.489583,Eighth,F4
862,Right,0,69,80,311.0,0.489583,Eighth,A4
863,Right,0,72,80,311.5,0.489583,Eighth,C5
864,Right,0,77,80,312.0,0.489583,Eighth,F5
865,Right,0,81,80,312.5,0.489583,Eighth,A5
867,Right,0,72,80,313.0,2.989583,DottedHalf,C6_C5
866,Left,1,64,80,313.0,0.489583,Eighth,E4
869,Left,1,62,80,313.5,0.489583,Eighth,D4
870,Left,1,64,80,314.0,0.489583,Eighth,E4
871,Left,1,60,80,314.5,0.489583,Eighth,C4
872,Left,1,62,80,315.0,0.489583,Eighth,D4
873,Left,1,64,80,315.5,0.489583,Eighth,E4
876,Left,1,65,80,316.0,0.489583,Eighth,F4
874,Right,0,71,80,316.0,2.989583,DottedHalf,B5_B4
877,Left,1,64,80,316.5,0.489583,Eighth,E4
878,Left,1,65,80,317.0,0.489583,Eighth,F4
879,Left,1,62,80,317.5,0.489583,Eighth,D4
880,Left,1,64,80,318.0,0.489583,Eighth,E4
881,Left,1,65,80,318.5,0.489583,Eighth,F4
884,Left,1,67,80,319.0,0.489583,Eighth,G4
882,Right,0,82,80,319.0,0.989583,Quarter,A#5_A#4
885,Left,1,65,80,319.5,0.489583,Eighth,F4
886,Left,1,67,80,320.0,0.489583,Eighth,G4
888,Left,1,64,80,320.5,0.489583,Eighth,E4
887,Right,0,67,80,320.5,0.489583,Eighth,G4
890,Right,0,69,80,321.0,0.489583,Eighth,A4
889,Left,1,65,80,321.0,0.489583,Eighth,F4
892,Left,1,67,80,321.5,0.489583,Eighth,G4
891,Right,0,70,80,321.5,0.489583,Eighth,A#4
894,Left,1,69,80,322.0,0.489583,Eighth,A4
893,Right,0,72,80,322.0,0.489583,Eighth,C5
895,Right,0,70,80,322.5,0.489583,Eighth,A#4
896,Left,1,67,80,322.5,0.489583,Eighth,G4
897,Right,0,72,80,323.0,0.489583,Eighth,C5
898,Left,1,69,80,323.0,0.489583,Eighth,A4
899,Right,0,69,80,323.5,0.489583,Eighth,A4
900,Left,1,65,80,323.5,0.489583,Eighth,F4
901,Right,0,70,80,324.0,0.489583,Eighth,A#4
902,Left,1,67,80,324.0,0.489583,Eighth,G4
904,Left,1,69,80,324.5,0.489583,Eighth,A4
903,Right,0,72,80,324.5,0.489583,Eighth,C5
905,Right,0,74,80,325.0,0.489583,Eighth,D5
906,Left,1,70,80,325.0,0.489583,Eighth,A#4
907,Left,1,69,82,325.5,0.489583,Eighth,A4
908,Right,0,72,82,325.5,0.489583,Eighth,C5
909,Left,1,70,85,326.0,0.489583,Eighth,A#4
910,Right,0,74,85,326.0,0.489583,Eighth,D5
911,Right,0,70,88,326.5,0.489583,Eighth,E5_A#4
913,Left,1,67,88,326.5,0.489583,Eighth,G4
915,Right,0,72,90,327.0,0.489583,Eighth,F5_C5
914,Left,1,69,90,327.0,0.489583,Eighth,A4
917,Right,0,79,93,327.5,0.489583,Eighth,G5_D5
919,Left,1,70,93,327.5,0.489583,Eighth,A#4
920,Right,0,76,96,328.0,0.489583,Eighth,E5_A5
922,Left,1,72,96,328.0,0.489583,Eighth,C5
923,Left,1,70,99,328.5,0.489583,Eighth,A#4
924,Right,0,79,99,328.5,0.489583,Eighth,G5_D5
927,Left,1,72,101,329.0,0.489583,Eighth,C5
926,Right,0,76,101,329.0,0.489583,Eighth,E5_A5
929,Right,0,77,104,329.5,0.489583,Eighth,F5_C5
930,Left,1,69,104,329.5,0.489583,Eighth,A4
933,Right,0,79,107,330.0,0.489583,Eighth,G5_D5
932,Left,1,70,107,330.0,0.489583,Eighth,A#4
936,Right,0,81,109,330.5,0.489583,Eighth,E5_A5
935,Left,1,72,109,330.5,0.489583,Eighth,C5
939,Right,0,82,110,331.0,0.489583,Eighth,F5_A#5
938,Left,1,74,110,331.0,0.489583,Eighth,D5
941,Right,0,81,110,331.5,0.489583,Eighth,E5_A5
943,Left,1,72,110,331.5,0.489583,Eighth,C5
944,Right,0,79,110,332.0,0.489583,Eighth,G5_D5
945,Left,1,70,110,332.0,0.489583,Eighth,A#4
947,Right,0,76,110,332.5,0.489583,Eighth,E5_A5
948,Left,1,72,110,332.5,0.489583,Eighth,C5
950,Left,1,70,110,333.0,0.489583,Eighth,A#4
951,Right,0,74,110,333.0,0.489583,Eighth,G5_D5
955,Left,1,69,110,333.5,0.489583,Eighth,A4
953,Right,0,72,110,333.5,0.489583,Eighth,F5_C5
956,Left,1,67,110,334.0,0.489583,Eighth,G4
957,Right,0,70,110,334.0,0.489583,Eighth,E5_A#4
960,Right,0,77,107,334.5,0.489583,Eighth,F5_C5
959,Left,1,69,107,334.5,0.489583,Eighth,A4
962,Right,0,70,103,335.0,0.489583,Eighth,E5_A#4
964,Left,1,67,103,335.0,0.489583,Eighth,G4
966,Right,0,69,99,335.5,0.489583,Eighth,D5_A4
965,Left,1,65,99,335.5,0.489583,Eighth,F4
968,Right,0,72,95,336.0,0.489583,Eighth,G4_C5
970,Left,1,64,95,336.0,0.489583,Eighth,E4
971,Right,0,74,91,336.5,0.489583,Eighth,D5_A4
973,Left,1,65,91,336.5,0.489583,Eighth,F4
974,Right,0,72,80,337.0,2.989583,DottedHalf,G4_C5
975,Left,1,64,80,337.0,2.989583,DottedHalf,E4
977,Right,0,71,80,340.0,2.989583,DottedHalf,F4_B4
979,Left,1,62,80,340.0,2.989583,DottedHalf,D4
980,Right,0,64,80,343.0,2.989583,DottedHalf,E4_A#4
981,Left,1,60,80,343.0,2.989583,DottedHalf,C4
983,Right,0,69,80,346.0,0.489583,Eighth,A4
984,Left,1,53,80,346.0,0.989583,Quarter,F3
985,Right,0,67,80,346.5,0.489583,Eighth,G4
987,Left,1,57,80,347.0,0.989583,Quarter,A3
986,Right,0,69,80,347.0,0.489583,Eighth,A4
988,Right,0,65,80,347.5,0.489583,Eighth,F4
990,Right,0,67,80,348.0,0.489583,Eighth,G4
989,Left,1,60,80,348.0,0.989583,Quarter,C4
991,Right,0,69,80,348.5,0.489583,Eighth,A4
993,Left,1,62,80,349.0,0.989583,Quarter,D4
992,Right,0,70,80,349.0,0.489583,Eighth,A#4
994,Right,0,69,80,349.5,0.489583,Eighth,A4
996,Left,1,55,80,350.0,0.989583,Quarter,G3
995,Right,0,70,80,350.0,0.489583,Eighth,A#4
997,Right,0,67,80,350.5,0.489583,Eighth,G4
999,Left,1,53,80,351.0,0.989583,Quarter,F3
998,Right,0,69,80,351.0,0.489583,Eighth,A4
1000,Right,0,70,80,351.5,0.489583,Eighth,A#4
1001,Right,0,72,80,352.0,0.489583,Eighth,C5
1002,Left,1,52,80,352.0,0.989583,Quarter,E3
1003,Right,0,71,80,352.5,0.489583,Eighth,B4
1005,Right,0,72,80,353.0,0.489583,Eighth,C5
1004,Left,1,55,80,353.0,0.989583,Quarter,G3
1006,Right,0,74,80,353.5,0.489583,Eighth,D5
1007,Right,0,72,80,354.0,0.489583,Eighth,C5
1008,Left,1,60,80,354.0,0.989583,Quarter,C4
1009,Right,0,70,80,354.5,0.489583,Eighth,A#4
1010,Right,0,69,80,355.0,0.489583,Eighth,A4
1011,Left,1,53,80,355.0,0.989583,Quarter,F3
1012,Right,0,67,80,355.5,0.489583,Eighth,G4
1014,Left,1,57,80,356.0,0.989583,Quarter,A3
1013,Right,0,69,80,356.0,0.489583,Eighth,A4
1015,Right,0,70,80,356.5,0.489583,Eighth,A#4
1016,Left,1,60,80,357.0,0.989583,Quarter,C4
1017,Right,0,69,80,357.0,0.489583,Eighth,A4
1018,Right,0,65,80,357.5,0.489583,Eighth,F4
1019,Right,0,69,80,358.0,0.989583,Quarter,A4
1020,Left,1,45,80,358.0,0.489583,Eighth,A2
1021,Left,1,44,80,358.5,0.489583,Eighth,G#2
1022,Left,1,45,80,359.0,0.489583,Eighth,A2
1023,Right,0,72,80,359.0,0.989583,Quarter,C5
1024,Left,1,41,80,359.5,0.489583,Eighth,F2
1026,Left,1,43,80,360.0,0.489583,Eighth,G2
1025,Right,0,77,80,360.0,0.989583,Quarter,F5
1027,Left,1,45,80,360.5,0.489583,Eighth,A2
1028,Right,0,74,80,361.0,0.989583,Quarter,D5
1029,Left,1,46,80,361.0,0.489583,Eighth,A#2
1030,Left,1,45,80,361.5,0.489583,Eighth,A2
1032,Left,1,46,80,362.0,0.489583,Eighth,A#2
1031,Right,0,67,80,362.0,0.989583,Quarter,G4
1033,Left,1,43,80,362.5,0.489583,Eighth,G2
1035,Left,1,45,80,363.0,0.489583,Eighth,A2
1034,Right,0,65,80,363.0,0.989583,Quarter,F4
1036,Left,1,47,80,363.5,0.489583,Eighth,B2
1037,Right,0,64,80,364.0,0.989583,Quarter,E4
1038,Left,1,48,80,364.0,0.489583,Eighth,C3
1039,Left,1,47,80,364.5,0.489583,Eighth,B2
1040,Right,0,67,80,365.0,0.989583,Quarter,G4
1041,Left,1,48,80,365.0,0.489583,Eighth,C3
1042,Left,1,46,80,365.5,0.489583,Eighth,A#2
1044,Right,0,72,80,366.0,0.989583,Quarter,C5
1043,Left,1,45,80,366.0,0.489583,Eighth,A2
1045,Left,1,43,80,366.5,0.489583,Eighth,G2
1046,Right,0,65,80,367.0,0.989583,Quarter,F4
1047,Left,1,41,80,367.0,0.989583,Quarter,F2
1048,Left,1,53,80,368.0,0.989583,Quarter,F3
1049,Right,0,60,80,369.0,0.989583,Quarter,C4
1050,Left,1,48,80,370.0,9.989583,Unknown,C4_C3
1052,Right,0,64,80,370.0,0.489583,Eighth,E4
1053,Right,0,62,80,370.5,0.489583,Eighth,D4
1054,Right,0,64,80,371.0,0.489583,Eighth,E4
1055,Right,0,60,80,371.5,0.489583,Eighth,C4
1056,Right,0,62,80,372.0,0.489583,Eighth,D4
1057,Right,0,64,80,372.5,0.489583,Eighth,E4
1058,Right,0,65,80,373.0,0.489583,Eighth,F4
1059,Left,1,59,80,373.0,2.989583,DottedHalf,B3
1060,Right,0,64,80,373.5,0.489583,Eighth,E4
1061,Right,0,65,80,374.0,0.489583,Eighth,F4
1062,Right,0,62,80,374.5,0.489583,Eighth,D4
1063,Right,0,64,80,375.0,0.489583,Eighth,E4
1064,Right,0,65,80,375.5,0.489583,Eighth,F4
1066,Right,0,67,80,376.0,0.489583,Eighth,G4
1065,Left,1,58,80,376.0,2.989583,DottedHalf,A#3
1067,Right,0,66,80,376.5,0.489583,Eighth,F#4
1068,Right,0,67,80,377.0,0.489583,Eighth,G4
1069,Right,0,64,80,377.5,0.489583,Eighth,E4
1070,Right,0,65,80,378.0,0.489583,Eighth,F4
1071,Right,0,67,80,378.5,0.489583,Eighth,G4
1073,Right,0,69,80,379.0,0.489583,Eighth,A4
1072,Left,1,57,80,379.0,0.989583,Quarter,A3
1074,Right,0,65,80,379.5,0.489583,Eighth,F4
1075,Right,0,69,80,380.0,0.489583,Eighth,A4
1076,Right,0,72,80,380.5,0.489583,Eighth,C5
1077,Right,0,77,80,381.0,0.489583,Eighth,F5
1078,Right,0,81,80,381.5,0.489583,Eighth,A5
1080,Right,0,84,80,382.0,2.989583,DottedHalf,C6_C5
1079,Left,1,64,80,382.0,0.489583,Eighth,E4
1082,Left,1,62,80,382.5,0.489583,Eighth,D4
1083,Left,1,64,80,383.0,0.489583,Eighth,E4
1084,Left,1,60,80,383.5,0.489583,Eighth,C4
1085,Left,1,62,80,384.0,0.489583,Eighth,D4
1086,Left,1,64,80,384.5,0.489583,Eighth,E4
1089,Left,1,65,80,385.0,0.489583,Eighth,F4
1087,Right,0,83,80,385.0,2.989583,DottedHalf,B5_B4
1090,Left,1,64,80,385.5,0.489583,Eighth,E4
1091,Left,1,65,80,386.0,0.489583,Eighth,F4
1092,Left,1,62,80,386.5,0.489583,Eighth,D4
1093,Left,1,64,80,387.0,0.489583,Eighth,E4
1094,Left,1,65,80,387.5,0.489583,Eighth,F4
1097,Left,1,67,80,388.0,0.489583,Eighth,G4
1095,Right,0,70,80,388.0,0.989583,Quarter,A#5_A#4
1098,Left,1,65,80,388.5,0.489583,Eighth,F4
1099,Left,1,67,80,389.0,0.489583,Eighth,G4
1100,Left,1,64,80,389.5,0.489583,Eighth,E4
1101,Right,0,67,80,389.5,0.489583,Eighth,G4
1103,Left,1,65,80,390.0,0.489583,Eighth,F4
1102,Right,0,69,80,390.0,0.489583,Eighth,A4
1105,Right,0,70,80,390.5,0.489583,Eighth,A#4
1104,Left,1,67,80,390.5,0.489583,Eighth,G4
1107,Right,0,72,80,391.0,0.489583,Eighth,C5
1106,Left,1,69,80,391.0,0.489583,Eighth,A4
1109,Left,1,67,80,391.5,0.489583,Eighth,G4
1108,Right,0,70,80,391.5,0.489583,Eighth,A#4
1110,Right,0,72,80,392.0,0.489583,Eighth,C5
1111,Left,1,69,80,392.0,0.489583,Eighth,A4
1112,Right,0,69,80,392.5,0.489583,Eighth,A4
1113,Left,1,65,80,392.5,0.489583,Eighth,F4
1114,Right,0,70,80,393.0,0.489583,Eighth,A#4
1115,Left,1,67,80,393.0,0.489583,Eighth,G4
1117,Right,0,72,80,393.5,0.489583,Eighth,C5
1116,Left,1,69,80,393.5,0.489583,Eighth,A4
1118,Right,0,74,90,394.0,0.489583,Eighth,D5
1119,Left,1,70,90,394.0,0.489583,Eighth,A#4
1121,Right,0,72,91,394.5,0.489583,Eighth,C5
1120,Left,1,69,91,394.5,0.489583,Eighth,A4
1123,Left,1,70,93,395.0,0.489583,Eighth,A#4
1122,Right,0,74,93,395.0,0.489583,Eighth,D5
1124,Left,1,67,95,395.5,0.489583,Eighth,G4
1125,Right,0,76,95,395.5,0.489583,Eighth,E5_A#4
1127,Left,1,69,97,396.0,0.489583,Eighth,A4
1128,Right,0,77,97,396.0,0.489583,Eighth,F5_C5
1131,Right,0,79,99,396.5,0.489583,Eighth,G5_D5
1130,Left,1,70,99,396.5,0.489583,Eighth,A#4
1135,Left,1,72,100,397.0,0.489583,Eighth,C5
1133,Right,0,81,100,397.0,0.489583,Eighth,E5_A5
1138,Left,1,70,102,397.5,0.489583,Eighth,A#4
1136,Right,0,79,102,397.5,0.489583,Eighth,G5_D5
1141,Left,1,72,104,398.0,0.489583,Eighth,C5
1139,Right,0,81,104,398.0,0.489583,Eighth,E5_A5
1144,Left,1,69,106,398.5,0.489583,Eighth,A4
1142,Right,0,77,106,398.5,0.489583,Eighth,F5_C5
1145,Left,1,70,108,399.0,0.489583,Eighth,A#4
1146,Right,0,79,108,399.0,0.489583,Eighth,G5_D5
1148,Right,0,81,109,399.5,0.489583,Eighth,E5_A5
1150,Left,1,72,109,399.5,0.489583,Eighth,C5
1153,Left,1,74,110,400.0,0.489583,Eighth,D5
1151,Right,0,77,110,400.0,0.489583,Eighth,F5_A#5
1154,Left,1,72,110,400.5,0.489583,Eighth,C5
1155,Right,0,76,110,400.5,0.489583,Eighth,E5_A5
1157,Left,1,70,110,401.0,0.489583,Eighth,A#4
1158,Right,0,74,110,401.0,0.489583,Eighth,G5_D5
1161,Right,0,76,110,401.5,0.489583,Eighth,E5_A5
1160,Left,1,72,110,401.5,0.489583,Eighth,C5
1163,Right,0,74,110,402.0,0.489583,Eighth,G5_D5
1165,Left,1,70,110,402.0,0.489583,Eighth,A#4
1166,Left,1,69,110,402.5,0.489583,Eighth,A4
1167,Right,0,72,110,402.5,0.489583,Eighth,F5_C5
1171,Left,1,67,80,403.0,0.489583,Eighth,G4
1169,Right,0,70,110,403.0,0.489583,Eighth,E5_A#4
1174,Left,1,69,80,403.5,0.489583,Eighth,A4
1172,Right,0,72,107,403.5,0.489583,Eighth,F5_C5
1176,Right,0,70,103,404.0,0.489583,Eighth,E5_A#4
1175,Left,1,67,80,404.0,0.489583,Eighth,G4
1178,Right,0,69,99,404.5,0.489583,Eighth,D5_A4
1180,Left,1,65,80,404.5,0.489583,Eighth,F4
1181,Right,0,67,95,405.0,0.489583,Eighth,G4_C5
1182,Left,1,64,80,405.0,0.489583,Eighth,E4
1185,Right,0,69,91,405.5,0.489583,Eighth,D5_A4
1184,Left,1,65,80,405.5,0.489583,Eighth,F4
1189,Left,1,64,80,406.0,2.989583,DottedHalf,E4
1187,Right,0,67,80,406.0,2.989583,DottedHalf,G4_C5
1192,Left,1,62,80,409.0,2.989583,DottedHalf,D4
1190,Right,0,65,80,409.0,2.989583,DottedHalf,F4_B4
1194,Left,1,60,80,412.0,2.989583,DottedHalf,C4
1193,Right,0,70,80,412.0,2.989583,DottedHalf,E4_A#4
1197,Left,1,53,80,415.0,0.989583,Quarter,F3
1196,Right,0,69,80,415.0,0.489583,Eighth,A4
1198,Right,0,67,80,415.5,0.489583,Eighth,G4
1199,Right,0,69,80,416.0,0.489583,Eighth,A4
1200,Left,1,57,80,416.0,0.989583,Quarter,A3
1201,Right,0,65,80,416.5,0.489583,Eighth,F4
1203,Left,1,60,80,417.0,0.989583,Quarter,C4
1202,Right,0,67,80,417.0,0.489583,Eighth,G4
1204,Right,0,69,80,417.5,0.489583,Eighth,A4
1205,Right,0,70,80,418.0,0.489583,Eighth,A#4
1206,Left,1,62,80,418.0,0.989583,Quarter,D4
1207,Right,0,69,80,418.5,0.489583,Eighth,A4
1208,Right,0,70,80,419.0,0.489583,Eighth,A#4
1209,Left,1,55,80,419.0,0.989583,Quarter,G3
1210,Right,0,67,80,419.5,0.489583,Eighth,G4
1211,Left,1,53,80,420.0,0.989583,Quarter,F3
1212,Right,0,69,80,420.0,0.489583,Eighth,A4
1213,Right,0,70,80,420.5,0.489583,Eighth,A#4
1215,Right,0,72,80,421.0,0.489583,Eighth,C5
1214,Left,1,52,80,421.0,0.989583,Quarter,E3
1216,Right,0,71,80,421.5,0.489583,Eighth,B4
1218,Right,0,72,80,422.0,0.489583,Eighth,C5
1217,Left,1,55,80,422.0,0.989583,Quarter,G3
1219,Right,0,74,80,422.5,0.489583,Eighth,D5
1221,Right,0,72,80,423.0,0.489583,Eighth,C5
1220,Left,1,60,80,423.0,0.989583,Quarter,C4
1222,Right,0,70,80,423.5,0.489583,Eighth,A#4
1223,Right,0,69,80,424.0,0.489583,Eighth,A4
1224,Left,1,53,80,424.0,0.989583,Quarter,F3
1225,Right,0,67,80,424.5,0.489583,Eighth,G4
1226,Right,0,69,80,425.0,0.489583,Eighth,A4
1227,Left,1,57,80,425.0,0.989583,Quarter,A3
1228,Right,0,70,80,425.5,0.489583,Eighth,A#4
1230,Left,1,60,80,426.0,0.989583,Quarter,C4
1229,Right,0,69,80,426.0,0.489583,Eighth,A4
1231,Right,0,65,80,426.5,0.489583,Eighth,F4
1233,Left,1,45,80,427.0,0.489583,Eighth,A2
1232,Right,0,69,80,427.0,0.989583,Quarter,A4
1234,Left,1,44,80,427.5,0.489583,Eighth,G#2
1235,Right,0,72,80,428.0,0.989583,Quarter,C5
1236,Left,1,45,80,428.0,0.489583,Eighth,A2
1237,Left,1,41,80,428.5,0.489583,Eighth,F2
1239,Right,0,77,80,429.0,0.989583,Quarter,F5
1238,Left,1,43,80,429.0,0.489583,Eighth,G2
1240,Left,1,45,80,429.5,0.489583,Eighth,A2
1241,Right,0,74,80,430.0,0.989583,Quarter,D5
1242,Left,1,46,80,430.0,0.489583,Eighth,A#2
1243,Left,1,45,80,430.5,0.489583,Eighth,A2
1245,Left,1,46,80,431.0,0.489583,Eighth,A#2
1244,Right,0,67,80,431.0,0.989583,Quarter,G4
1246,Left,1,43,80,431.5,0.489583,Eighth,G2
1247,Right,0,65,80,432.0,0.989583,Quarter,F4
1248,Left,1,45,80,432.0,0.489583,Eighth,A2
1249,Left,1,47,80,432.5,0.489583,Eighth,B2
1251,Right,0,64,80,433.0,0.989583,Quarter,E4
1250,Left,1,48,80,433.0,0.489583,Eighth,C3
1252,Left,1,47,80,433.5,0.489583,Eighth,B2
1253,Left,1,48,80,434.0,0.489583,Eighth,C3
1254,Right,0,67,80,434.0,0.989583,Quarter,G4
1255,Left,1,46,80,434.5,0.489583,Eighth,A#2
1257,Right,0,72,80,435.0,0.989583,Quarter,C5
1256,Left,1,45,80,435.0,0.489583,Eighth,A2
1258,Left,1,43,80,435.5,0.489583,Eighth,G2
1259,Left,1,41,80,436.0,0.989583,Quarter,F2
1260,Right,0,65,80,436.0,0.989583,Quarter,F4
1261,Left,1,53,80,437.0,0.989583,Quarter,F3
1262,Right,0,60,80,438.0,0.989583,Quarter,G#4_C4
1264,Right,0,70,80,439.0,0.989583,Quarter,C#4_A#4
1266,Right,0,67,80,440.0,0.989583,Quarter,G4_A#3
1268,Left,1,53,80,441.0,0.989583,Quarter,F3
1269,Right,0,68,80,442.0,0.989583,Quarter,G#4_C4
1271,Right,0,56,80,443.0,0.989583,Quarter,G#3_F4
1274,Left,1,53,80,444.0,0.989583,Quarter,G#3_F3
1273,Right,0,65,80,444.0,0.989583,Quarter,F4_C4
1278,Right,0,64,80,445.0,0.989583,Quarter,E4_C4
1277,Left,1,55,80,445.0,0.989583,Quarter,G3_A#3
1281,Left,1,53,80,446.0,0.989583,Quarter,G#3_F3
1282,Right,0,60,80,446.0,0.989583,Quarter,F4_C4
1285,Left,1,52,80,447.0,0.989583,Quarter,G3_E3
1286,Right,0,60,80,447.0,0.989583,Quarter,G4_C4
1289,Left,1,53,80,448.0,1.989583,Half,G#3_F3
1291,Right,0,70,80,448.0,1.989583,Quarter,C4_A#4
1293,Right,0,68,80,449.0,0.989583,Quarter,G#4
1294,Right,0,63,80,450.0,0.989583,Quarter,D#4_C5
1296,Right,0,65,80,451.0,0.989583,Quarter,F4_C#5
1298,Right,0,61,80,452.0,0.989583,Quarter,C#4_A#4
1300,Left,1,56,80,453.0,0.989583,Quarter,G#3_G#2
1302,Right,0,63,80,454.0,0.989583,Quarter,D#4_C5
1304,Right,0,60,80,455.0,0.989583,Quarter,G#4_C4
1306,Right,0,63,80,456.0,0.989583,Quarter,G#4_D#4
1307,Left,1,56,80,456.0,0.989583,Quarter,G#3_C4
1312,Right,0,67,80,457.0,0.989583,Quarter,G4_D#4
1310,Left,1,58,80,457.0,0.989583,Quarter,C#4_A#3
1315,Right,0,68,80,458.0,0.989583,Quarter,G#4_D#4
1314,Left,1,56,80,458.0,0.989583,Quarter,G#3_C4
1319,Right,0,70,80,459.0,0.989583,Quarter,D#4_A#4
1318,Left,1,55,80,459.0,0.989583,Quarter,G3_A#3
1322,Left,1,56,80,460.0,1.989583,Half,G#3_C4
1324,Right,0,63,80,460.0,1.989583,Half,D#4_C#5
1326,Right,0,72,80,461.0,0.989583,Quarter,C5
1327,Right,0,68,110,462.0,0.989583,Quarter,G#4_D#5
1328,Left,1,63,110,462.0,0.989583,Quarter,D#4_C4
1331,Right,0,75,110,463.0,0.989583,Quarter,G4_D#5
1332,Left,1,61,110,463.0,0.989583,Quarter,C#4_A#3
1336,Right,0,75,110,464.0,0.989583,Quarter,G#4_D#5
1335,Left,1,60,110,464.0,0.989583,Quarter,G#3_C4
1340,Left,1,58,110,465.0,0.989583,Quarter,G3_A#3
1339,Right,0,75,110,465.0,0.989583,Quarter,D#5_A#4
1345,Left,1,56,110,466.0,1.989583,Half,G#3
1343,Right,0,73,110,466.0,1.989583,Quarter,D#5_C#5
1346,Right,0,72,110,467.0,0.989583,Quarter,C5
1347,Left,1,58,80,468.0,0.989583,Quarter,C#3_A#3
1349,Right,0,77,80,468.0,0.989583,Quarter,F5
1351,Right,0,68,80,469.0,1.989583,Half,G#4
1350,Left,1,60,80,469.0,1.989583,Half,D#3_C4
1355,Left,1,61,80,471.0,0.989583,Quarter,D#3_C#4
1353,Right,0,72,80,471.0,0.989583,DottedSixteenth,G4_C5
1357,Right,0,70,80,471.395833,0.59375,Eighth,A#4
1358,Left,1,60,80,472.0,0.989583,Quarter,G#3_C4
1359,Right,0,68,80,472.0,0.989583,Quarter,G#4
1361,Right,0,79,80,474.0,0.489583,Eighth,G5
1362,Right,0,77,80,474.5,0.489583,Eighth,F5
1365,Right,0,68,80,475.0,1.989583,Half,G#4
1363,Left,1,51,80,475.0,1.989583,Half,D#3_C4
1366,Right,0,72,80,477.0,0.989583,DottedSixteenth,G4_C5
1367,Left,1,51,80,477.0,0.989583,Quarter,D#3_C#4
1370,Right,0,70,80,477.395833,0.59375,Eighth,A#4
1371,Right,0,68,80,478.0,0.989583,Quarter,G#4
1372,Left,1,56,80,478.0,0.989583,Quarter,G#3_C4
1374,Right,0,75,80,480.0,0.989583,Quarter,D#5_C5
1376,Right,0,73,80,481.0,0.989583,Quarter,E5_C#5
1379,Right,0,73,80,482.0,0.989583,Quarter,C#5_A#4
1378,Left,1,58,80,482.0,0.989583,Quarter,G3_A#3
1382,Left,1,58,80,483.0,0.989583,Quarter,C#4_A#3
1384,Right,0,72,80,484.0,0.989583,Quarter,D#5_C5
1387,Right,0,72,80,485.0,0.989583,Quarter,G#4_C5
1386,Left,1,60,80,485.0,0.989583,Quarter,G#3_C4
1390,Left,1,60,80,486.0,0.989583,Quarter,D#4_C4
1392,Right,0,78,80,487.0,0.989583,Quarter,F#5_D#5
1394,Right,0,75,80,488.0,0.989583,Quarter,D#5_C5
1396,Left,1,57,80,488.0,0.989583,Quarter,C4_A3
1398,Left,1,63,80,489.0,0.989583,Quarter,D#4_C4
1400,Right,0,77,80,490.0,0.989583,Quarter,F5_C#5
1402,Right,0,73,80,491.0,0.989583,Quarter,C#5_A#4
1403,Left,1,58,80,491.0,0.989583,Quarter,C#4_A#3
1406,Left,1,61,80,492.0,0.989583,Quarter,F4_C#4
1408,Right,0,65,80,493.0,1.989583,Half,F4_A#4
1410,Left,1,53,80,493.0,1.989583,Half,F3_C#4
1414,Right,0,73,80,495.0,0.989583,DottedSixteenth,C#5_A4
1412,Left,1,53,80,495.0,0.989583,Quarter,F3_D#4
1416,Right,0,72,80,495.375,0.614583,Eighth,C5
1417,Left,1,58,80,496.0,0.989583,Quarter,C#4_A#3
1419,Right,0,70,80,496.0,0.989583,Quarter,A#4
1420,Right,0,78,110,498.0,0.489583,Eighth,F#5
1421,Right,0,77,110,498.5,0.489583,Eighth,F5
1424,Right,0,65,80,499.0,1.989583,Half,F4_A#4
1422,Left,1,61,80,499.0,1.989583,Half,F3_C#4
1426,Left,1,53,80,501.0,0.989583,Quarter,F3_D#4
1427,Right,0,69,80,501.0,0.989583,Quarter,C#5_A4
1430,Right,0,72,80,501.375,0.614583,Eighth,C5
1432,Left,1,58,80,502.0,0.989583,Quarter,C#4_A#3
1431,Right,0,70,80,502.0,0.989583,Quarter,A#4
1436,Left,1,63,80,504.0,0.989583,Quarter,F3_D#4
1434,Right,0,73,80,504.0,0.989583,Eighth,C#5_A4
1438,Right,0,72,80,504.5,0.489583,Eighth,C5
1439,Right,0,70,80,505.0,0.989583,Quarter,A#4
1440,Left,1,61,80,505.0,0.989583,Quarter,C#4_A#3
1442,Right,0,69,80,507.0,0.989583,Quarter,C#5_A4
1443,Left,1,53,80,507.0,0.989583,Quarter,F3_D#4
1446,Right,0,72,80,507.5,0.489583,Eighth,C5
1447,Right,0,70,80,508.0,0.989583,Quarter,A#4
1448,Left,1,58,80,508.0,0.989583,Quarter,C#4_A#3
1451,Right,0,73,120,510.0,0.489583,Eighth,C#5
1450,Left,1,61,120,510.0,0.489583,Eighth,C#4
1453,Left,1,60,120,510.5,0.489583,Eighth,C4
1452,Right,0,72,120,510.5,0.489583,Eighth,C5
1455,Left,1,58,120,511.0,0.489583,Eighth,A#3
1454,Right,0,70,120,511.0,0.489583,Eighth,A#4
1456,Right,0,72,120,511.5,0.489583,Eighth,C5
1457,Left,1,60,120,511.5,0.489583,Eighth,C4
1459,Right,0,73,120,512.0,0.489583,Eighth,C#5
1458,Left,1,61,120,512.0,0.489583,Eighth,C#4
1461,Left,1,60,120,512.5,0.489583,Eighth,C4
1460,Right,0,72,120,512.5,0.489583,Eighth,C5
1462,Right,0,70,120,513.0,0.489583,Eighth,A#4
1463,Left,1,58,120,513.0,0.489583,Eighth,A#3
1464,Left,1,60,120,513.5,0.489583,Eighth,C4
1465,Right,0,72,120,513.5,0.489583,Eighth,C5
1467,Right,0,70,120,514.0,0.489583,Eighth,A#4
1466,Left,1,58,120,514.0,0.489583,Eighth,A#3
1469,Right,0,68,120,514.5,0.489583,Eighth,G#4
1468,Left,1,56,120,514.5,0.489583,Eighth,G#3
1471,Right,0,67,120,515.0,0.489583,Eighth,G4
1470,Left,1,55,120,515.0,0.489583,Eighth,G3
1472,Left,1,56,120,515.5,0.489583,Eighth,G#3
1473,Right,0,68,120,515.5,0.489583,Eighth,G#4
1475,Right,0,67,120,516.0,0.489583,Eighth,G4
1474,Left,1,55,120,516.0,0.489583,Eighth,G3
1477,Right,0,65,120,516.5,0.489583,Eighth,F4
1476,Left,1,53,120,516.5,0.489583,Eighth,F3
1479,Right,0,64,120,517.0,0.489583,Eighth,E4
1478,Left,1,52,120,517.0,0.489583,Eighth,E3
1481,Right,0,65,120,517.5,0.489583,Eighth,F4
1480,Left,1,53,120,517.5,0.489583,Eighth,F3
1482,Right,0,67,120,518.0,0.489583,Eighth,G4
1483,Left,1,55,120,518.0,0.489583,Eighth,G3
1485,Right,0,65,120,518.5,0.489583,Eighth,F4
1484,Left,1,53,120,518.5,0.489583,Eighth,F3
1486,Left,1,56,120,519.0,0.489583,Eighth,G#3
1487,Right,0,68,120,519.0,0.489583,Eighth,G#4
1489,Right,0,59,120,519.5,0.489583,Eighth,B3
1488,Left,1,47,120,519.5,0.489583,Eighth,B2
1490,Left,1,48,120,520.0,0.989583,Quarter,C3
1491,Right,0,60,120,520.0,0.989583,Quarter,C4
1492,Left,1,60,110,521.0,0.989583,Quarter,C4
1493,Left,1,68,110,522.0,0.989583,Quarter,G#4_C4
1495,Left,1,70,110,523.0,0.989583,Quarter,C#4_A#4
1497,Left,1,58,110,524.0,0.989583,Quarter,G4_A#3
1500,Left,1,67,110,525.0,0.989583,Quarter,G4_A#3
1499,Right,0,76,110,525.0,0.989583,Quarter,E5
1504,Right,0,77,110,526.0,0.989583,Quarter,F5
1502,Left,1,68,110,526.0,0.989583,Quarter,G#4_C4
1505,Left,1,65,110,527.0,0.989583,Quarter,G#3_F4
1507,Right,0,80,110,527.0,0.989583,Quarter,G#5
1508,Left,1,53,110,528.0,0.989583,Quarter,G#3_F3
1510,Right,0,84,110,528.0,0.489583,Eighth,C6
1511,Right,0,85,110,528.25,0.489583,Eighth,C#6
1512,Right,0,82,110,528.5,0.489583,Eighth,A#5
1513,Right,0,84,110,528.75,0.239583,Sixteenth,C6
1515,Left,1,55,110,529.0,0.989583,Quarter,G3_E3
1514,Right,0,85,110,529.0,0.989583,Quarter,C#6
1519,Right,0,82,110,530.0,0.989583,Quarter,A#5
1517,Left,1,55,110,530.0,0.989583,Quarter,G3_A#3
1522,Right,0,82,110,531.0,0.489583,Eighth,A#5
1520,Left,1,55,110,531.0,0.989583,Quarter,G3_A#3
1523,Right,0,84,110,531.25,0.489583,Eighth,C6
1524,Right,0,80,110,531.5,0.489583,Eighth,G#5
1525,Right,0,82,110,531.75,0.239583,Sixteenth,A#5
1527,Right,0,84,110,532.0,0.989583,Quarter,C6
1526,Left,1,53,110,532.0,0.989583,Quarter,G#3_F3
1531,Right,0,80,110,533.0,0.989583,Quarter,G#5
1529,Left,1,60,110,533.0,0.989583,Quarter,G#3_C4
1535,Right,0,80,110,534.0,0.489583,Eighth,G#5
1532,Left,1,56,110,534.0,0.989583,Quarter,G#3_F4_C4
1536,Right,0,82,110,534.25,0.489583,Eighth,A#5
1537,Right,0,79,110,534.5,0.489583,Eighth,G5
1538,Right,0,80,110,534.75,0.239583,Sixteenth,G#5
1539,Right,0,82,110,535.0,0.989583,Quarter,A#5
1540,Left,1,55,110,535.0,0.989583,Quarter,G3_E4_A#3
1545,Right,0,79,110,536.0,0.989583,Quarter,G5
1543,Left,1,64,110,536.0,0.989583,Quarter,E4_C#4_A#3
1550,Right,0,79,110,537.0,0.489583,Eighth,G5
1547,Left,1,64,110,537.0,0.989583,Quarter,E4_C#4_A#3
1551,Right,0,80,110,537.25,0.489583,Eighth,G#5
1552,Right,0,77,110,537.5,0.489583,Eighth,F5
1553,Right,0,79,110,537.75,0.239583,Sixteenth,G5
1554,Right,0,80,110,538.0,0.989583,Quarter,G#5
1555,Left,1,59,110,538.0,1.989583,Half,F4_D4_B3
1559,Right,0,77,110,539.0,0.989583,Quarter,F5
1558,Left,1,68,110,539.0,0.989583,Quarter,G#4
1563,Right,0,77,120,540.0,0.989583,Quarter,F5
1560,Left,1,59,120,540.0,0.989583,Quarter,G#4_D4_B3
1564,Left,1,68,80,541.0,1.989583,Half,G#4_C4
1565,Right,0,77,80,541.0,1.989583,Half,F5
1567,Left,1,70,80,543.0,0.989583,Quarter,C4_A#4
1569,Right,0,80,80,543.0,0.989583,DottedSixteenth,G#5_E5
1571,Right,0,79,80,543.385417,0.604167,Eighth,G5
1572,Left,1,68,80,544.0,0.989583,Quarter,G#4_F4
1574,Right,0,77,80,544.0,0.989583,Quarter,F5
1575,Right,0,75,80,546.0,0.489583,Eighth,D#5
1576,Right,0,73,80,546.5,0.489583,Eighth,C#5
1579,Right,0,65,80,547.0,1.989583,Half,F4
1577,Left,1,48,80,547.0,1.989583,Half,G#3_C3
1582,Right,0,64,80,549.0,0.989583,Quarter,G#4_E4
1580,Left,1,48,80,549.0,0.989583,Quarter,C3_A#3
1584,Right,0,67,80,549.385417,0.604167,Eighth,G4
1586,Right,0,65,80,550.0,0.989583,Quarter,F4
1585,Left,1,53,80,550.0,0.989583,Quarter,G#3_F3
1591,Left,1,36,70,553.0,2.989583,DottedHalf,C3_C2
1588,Right,0,60,70,553.0,2.989583,DottedHalf,G3_E3_C4
1594,Left,1,41,70,556.0,2.989583,DottedHalf,F2
1593,Right,0,53,70,556.0,2.989583,DottedHalf,F3
1595,Right,0,53,1,560.0,0.989583,Quarter,F3
