,hand,channel,note,velocity,start_beat,duration,note_value,chord
0,Left,1,36,80,0.0,0.489583,Eighth,C2
3,Right,0,52,80,0.5,0.489583,Eighth,E3_C3
1,Left,1,36,80,0.5,0.489583,Eighth,G2_C2
7,Left,1,43,80,1.0,0.489583,Eighth,G2_C2
5,Right,0,48,80,1.0,0.489583,Eighth,E3_C3
9,Right,0,52,80,1.5,0.489583,Eighth,E3_C3
11,Left,1,36,80,1.5,0.489583,Eighth,G2_C2
13,Right,0,52,80,2.0,0.489583,Eighth,E3_C3
15,Left,1,43,80,2.0,0.489583,Eighth,G2_C2
17,Left,1,43,80,2.5,0.489583,Eighth,G2_C2
19,Right,0,52,80,2.5,0.489583,Eighth,E3_C3
23,Left,1,36,80,3.0,0.489583,Eighth,G2_C2
21,Right,0,48,80,3.0,0.489583,Eighth,E3_C3
25,Left,1,43,80,3.5,0.489583,Eighth,G2_C2
26,Right,0,48,80,3.5,0.489583,Eighth,E3_C3
31,Left,1,36,80,4.0,0.489583,Eighth,G2_C2
29,Right,0,52,80,4.0,0.489583,Eighth,E3_C3
33,Left,1,43,80,4.5,0.489583,Eighth,G2_C2
34,Right,0,48,80,4.5,0.489583,Eighth,E3_C3
38,Left,1,36,80,5.0,0.489583,Eighth,G2_C2
37,Right,0,52,80,5.0,0.489583,Eighth,E3_C3
42,Right,0,52,80,5.5,0.489583,Eighth,E3_C3
41,Left,1,43,80,5.5,0.489583,Eighth,G2_C2
45,Left,1,36,80,6.0,0.489583,Eighth,G2_C2
46,Right,0,52,80,6.0,0.489583,Eighth,E3_C3
49,Right,0,48,80,6.5,0.489583,Eighth,E3_C3
51,Left,1,36,80,6.5,0.489583,Eighth,G2_C2
53,Left,1,45,80,7.0,0.489583,Eighth,C2_A2
54,Right,0,50,80,7.0,0.489583,Eighth,F#3_D3
59,Right,0,50,80,7.5,0.489583,Eighth,F#3_D3
57,Left,1,45,80,7.5,0.489583,Eighth,C2_A2
62,Right,0,50,80,8.0,1.489583,DottedQuarter,G3_D3
61,Left,1,43,80,8.0,0.489583,Eighth,G2_B1
65,Left,1,43,80,8.5,0.489583,Eighth,G2_B1
67,Left,1,35,80,9.0,0.489583,Eighth,G2_B1
69,Right,0,59,80,9.5,0.239583,Sixteenth,B3
70,Left,1,35,80,9.5,0.489583,Eighth,G2_B1
72,Right,0,57,80,9.75,0.239583,Sixteenth,A3
73,Right,0,55,80,10.0,0.489583,Eighth,G3
74,Left,1,35,80,10.0,0.489583,Eighth,G2_B1
76,Left,1,43,80,10.5,0.489583,Eighth,G2_B1
78,Left,1,43,80,11.0,0.489583,Eighth,G2_B1
80,Left,1,43,80,11.5,0.489583,Eighth,G2_B1
84,Right,0,85,80,12.0,0.239583,Sixteenth,C#6
82,Left,1,43,80,12.0,0.489583,Eighth,G2_B1
85,Right,0,86,80,12.25,0.989583,Quarter,D6
86,Left,1,43,80,12.5,0.489583,Eighth,G2_B1
88,Left,1,43,80,13.0,0.489583,Eighth,G2_B1
90,Right,0,84,80,13.25,0.239583,Sixteenth,C6
92,Right,0,83,80,13.5,0.239583,Sixteenth,B5
91,Left,1,43,80,13.5,0.489583,Eighth,G2_B1
94,Right,0,81,80,13.75,0.239583,Sixteenth,A5
95,Right,0,79,80,14.0,0.989583,Quarter,G5
96,Left,1,35,80,14.0,0.489583,Eighth,G2_B1
98,Left,1,43,80,14.5,0.489583,Eighth,G2_B1
100,Left,1,35,80,15.0,0.489583,Eighth,G2_B1
102,Left,1,43,80,15.5,0.489583,Eighth,G2_B1
105,Right,0,46,80,16.0,0.489583,Eighth,D3_A#2
104,Left,1,34,80,16.0,0.489583,Eighth,F2_A#1
108,Left,1,34,80,16.5,0.489583,Eighth,F2_A#1
110,Right,0,50,80,16.5,0.489583,Eighth,D3_A#2
114,Left,1,41,80,17.0,0.489583,Eighth,F2_A#1
112,Right,0,46,80,17.0,0.489583,Eighth,D3_A#2
118,Left,1,34,80,17.5,0.489583,Eighth,F2_A#1
116,Right,0,46,80,17.5,0.489583,Eighth,D3_A#2
122,Left,1,41,80,18.0,0.489583,Eighth,F2_A#1
120,Right,0,46,80,18.0,0.489583,Eighth,D3_A#2
124,Left,1,34,80,18.5,0.489583,Eighth,F2_A#1
125,Right,0,46,80,18.5,0.489583,Eighth,D3_A#2
129,Left,1,41,80,19.0,0.489583,Eighth,F2_A#1
128,Right,0,50,80,19.0,0.489583,Eighth,D3_A#2
134,Right,0,50,80,19.5,0.489583,Eighth,D3_A#2
132,Left,1,41,80,19.5,0.489583,Eighth,F2_A#1
138,Right,0,46,80,20.0,0.489583,Eighth,D3_A#2
136,Left,1,41,80,20.0,0.489583,Eighth,F2_A#1
140,Left,1,41,80,20.5,0.489583,Eighth,F2_A#1
142,Right,0,46,80,20.5,0.489583,Eighth,D3_A#2
146,Right,0,50,80,21.0,0.489583,Eighth,D3_A#2
144,Left,1,41,80,21.0,0.489583,Eighth,F2_A#1
148,Right,0,46,80,21.5,0.489583,Eighth,D3_A#2
150,Left,1,41,80,21.5,0.489583,Eighth,F2_A#1
152,Right,0,50,80,22.0,0.489583,Eighth,D3_A#2
153,Left,1,34,80,22.0,0.489583,Eighth,F2_A#1
156,Left,1,41,80,22.5,0.489583,Eighth,F2_A#1
158,Right,0,46,80,22.5,0.489583,Eighth,D3_A#2
162,Right,0,52,80,23.0,0.489583,Eighth,E3_C3
160,Left,1,43,80,23.0,0.489583,Eighth,G2_A#1
164,Right,0,48,80,23.5,0.489583,Eighth,E3_C3
165,Left,1,34,80,23.5,0.489583,Eighth,G2_A#1
168,Right,0,48,80,24.0,1.489583,DottedQuarter,F3_C3
170,Left,1,41,80,24.0,0.489583,Eighth,F2_A1
172,Left,1,33,80,24.5,0.489583,Eighth,F2_A1
174,Left,1,33,80,25.0,0.489583,Eighth,F2_A1
176,Right,0,57,80,25.5,0.239583,Sixteenth,A3
177,Left,1,33,80,25.5,0.489583,Eighth,F2_A1
179,Right,0,55,80,25.75,0.239583,Sixteenth,G3
181,Right,0,53,80,26.0,0.489583,Eighth,F3
180,Left,1,41,80,26.0,0.489583,Eighth,F2_A1
183,Left,1,41,80,26.5,0.489583,Eighth,F2_A1
185,Left,1,41,80,27.0,0.489583,Eighth,F2_A1
187,Left,1,33,80,27.5,0.489583,Eighth,F2_A1
190,Right,0,83,80,28.0,0.239583,Sixteenth,B5
189,Left,1,31,80,28.0,0.489583,Eighth,G1_F2
192,Right,0,84,80,28.25,0.989583,Quarter,C6
193,Left,1,41,80,28.5,0.489583,Eighth,G1_F2
195,Left,1,41,80,29.0,0.489583,Eighth,G1_F2
197,Right,0,82,80,29.25,0.239583,Sixteenth,A#5
199,Left,1,31,80,29.5,0.489583,Eighth,G1_F2
198,Right,0,80,80,29.5,0.239583,Sixteenth,G#5
201,Right,0,79,80,29.75,0.239583,Sixteenth,G5
202,Right,0,77,80,30.0,0.989583,Quarter,F5
203,Left,1,31,80,30.0,0.489583,Eighth,G1_F2
205,Left,1,41,80,30.5,0.489583,Eighth,G1_F2
207,Left,1,41,80,31.0,0.489583,Eighth,G#1_F2
209,Left,1,41,80,31.5,0.489583,Eighth,G#1_F2
212,Right,0,88,80,32.0,0.239583,Sixteenth,E6
211,Left,1,31,80,32.0,0.489583,Eighth,G1_F2
214,Right,0,89,80,32.25,2.739583,DottedHalf,F6
215,Left,1,41,81,32.5,0.489583,Eighth,G1_F2
217,Left,1,31,83,33.0,0.489583,Eighth,G1_F2
219,Left,1,41,85,33.5,0.489583,Eighth,G1_F2
221,Left,1,41,87,34.0,0.489583,Eighth,G1_F2
223,Left,1,41,89,34.5,0.489583,Eighth,G1_F2
225,Left,1,41,91,35.0,0.489583,Eighth,G#1_F2
227,Right,0,89,91,35.0,0.239583,Sixteenth,F6
228,Right,0,87,92,35.25,0.239583,Sixteenth,D#6
229,Left,1,41,93,35.5,0.489583,Eighth,G#1_F2
231,Right,0,86,93,35.5,0.239583,Sixteenth,D6
232,Right,0,84,94,35.75,0.239583,Sixteenth,C6
233,Left,1,41,95,36.0,0.489583,Eighth,G1_F2
235,Right,0,83,95,36.0,0.239583,Sixteenth,B5
236,Right,0,84,96,36.25,0.239583,Sixteenth,C6
237,Left,1,41,97,36.5,0.489583,Eighth,G1_F2
239,Right,0,86,97,36.5,0.239583,Sixteenth,D6
240,Right,0,87,98,36.75,0.239583,Sixteenth,D#6
243,Right,0,89,99,37.0,0.239583,Sixteenth,F6
241,Left,1,41,99,37.0,0.489583,Eighth,G1_F2
244,Right,0,87,100,37.25,0.239583,Sixteenth,D#6
246,Left,1,31,101,37.5,0.489583,Eighth,G1_F2
245,Right,0,86,101,37.5,0.239583,Sixteenth,D6
248,Right,0,84,102,37.75,0.239583,Sixteenth,C6
250,Left,1,31,103,38.0,0.489583,Eighth,G1_F2
249,Right,0,83,103,38.0,0.239583,Sixteenth,B5
252,Right,0,84,104,38.25,0.239583,Sixteenth,C6
253,Right,0,86,105,38.5,0.239583,Sixteenth,D6
254,Left,1,41,105,38.5,0.489583,Eighth,G1_F2
256,Right,0,87,106,38.75,0.239583,Sixteenth,D#6
257,Left,1,32,107,39.0,0.489583,Eighth,G#1_F2
259,Right,0,89,107,39.0,0.239583,Sixteenth,F6
260,Right,0,87,108,39.25,0.239583,Sixteenth,D#6
261,Left,1,32,108,39.5,0.489583,Eighth,G#1_F2
263,Right,0,86,108,39.5,0.239583,Sixteenth,D6
264,Right,0,84,109,39.75,0.239583,Sixteenth,C6
267,Right,0,83,110,40.0,0.239583,Sixteenth,B5
265,Left,1,31,110,40.0,0.989583,Quarter,G1_F2
268,Right,0,84,110,40.25,0.239583,Sixteenth,C6
269,Right,0,86,110,40.5,0.239583,Sixteenth,D6
270,Right,0,87,110,40.75,0.239583,Sixteenth,D#6
271,Left,1,43,110,41.0,2.489583,Half,G3_G2
273,Right,0,89,110,41.0,0.239583,Sixteenth,F6
274,Right,0,87,110,41.25,0.239583,Sixteenth,D#6
275,Right,0,86,110,41.5,0.239583,Sixteenth,D6
276,Right,0,84,110,41.75,0.239583,Sixteenth,C6
277,Right,0,83,110,42.0,0.239583,Sixteenth,B5
278,Right,0,80,110,42.25,0.239583,Sixteenth,G#5
279,Right,0,79,110,42.5,0.239583,Sixteenth,G5
280,Right,0,77,110,42.75,0.239583,Sixteenth,F5
281,Right,0,75,110,43.0,0.239583,Sixteenth,D#5
282,Right,0,74,110,43.25,0.239583,Sixteenth,D5
283,Right,0,72,110,43.5,0.239583,Sixteenth,C5
284,Left,1,57,110,43.5,0.239583,Sixteenth,A3
286,Left,1,59,110,43.75,0.239583,Sixteenth,B3
285,Right,0,71,110,43.75,0.239583,Sixteenth,B4
288,Right,0,72,100,44.0,0.489583,Eighth,C5
287,Left,1,60,100,44.0,0.489583,Eighth,C4
289,Left,1,55,96,45.0,0.489583,Eighth,G3_G2
291,Right,0,67,96,45.0,0.489583,Eighth,G4
293,Right,0,63,91,46.0,0.489583,Eighth,D#4
292,Left,1,39,91,46.0,0.489583,Eighth,D#3_D#2
295,Left,1,36,86,47.0,0.489583,Eighth,C3_C2
296,Right,0,60,86,47.0,0.489583,Eighth,C4
300,Right,0,55,81,48.0,3.989583,Whole,G3
298,Left,1,43,81,48.0,3.989583,Whole,G2_G1
303,Right,0,64,80,52.0,0.4375,Eighth,E4
301,Left,1,48,80,52.0,0.489583,Eighth,C3_C2
304,Right,0,60,80,52.25,0.447917,Eighth,C4
306,Right,0,64,80,52.5,0.427083,DottedSixteenth,E4
305,Left,1,48,80,52.5,0.40625,DottedSixteenth,C3
307,Left,1,55,80,52.75,0.479167,Eighth,G3
308,Right,0,60,80,52.75,0.4375,Eighth,C4
310,Left,1,48,80,53.0,0.447917,Eighth,C3
309,Right,0,64,80,53.0,0.40625,DottedSixteenth,E4
312,Right,0,60,80,53.25,0.40625,DottedSixteenth,C4
311,Left,1,55,80,53.25,0.46875,Eighth,G3
314,Left,1,48,80,53.5,0.46875,Eighth,C3
313,Right,0,64,80,53.5,0.4375,Eighth,E4
316,Left,1,55,80,53.75,0.427083,DottedSixteenth,G3
315,Right,0,60,80,53.75,0.447917,Eighth,C4
318,Left,1,48,80,54.0,0.489583,Eighth,C3
317,Right,0,64,80,54.0,0.46875,Eighth,E4
320,Right,0,60,80,54.25,0.427083,DottedSixteenth,C4
319,Left,1,55,80,54.25,0.40625,DottedSixteenth,G3
321,Left,1,48,80,54.5,0.40625,DottedSixteenth,C3
322,Right,0,64,80,54.5,0.447917,Eighth,E4
323,Left,1,55,80,54.75,0.395833,DottedSixteenth,G3
324,Right,0,60,80,54.75,0.427083,DottedSixteenth,C4
325,Right,0,64,80,55.0,0.395833,DottedSixteenth,E4
326,Left,1,48,80,55.0,0.427083,DottedSixteenth,C3
328,Left,1,55,80,55.25,0.458333,Eighth,G3
327,Right,0,60,80,55.25,0.427083,DottedSixteenth,C4
329,Right,0,64,80,55.5,0.395833,DottedSixteenth,E4
330,Left,1,48,80,55.5,0.40625,DottedSixteenth,C3
331,Left,1,55,80,55.75,0.427083,DottedSixteenth,G3
332,Right,0,60,80,55.75,0.416667,DottedSixteenth,C4
333,Left,1,48,80,56.0,0.427083,DottedSixteenth,C3
334,Right,0,64,80,56.0,0.40625,DottedSixteenth,E4
336,Left,1,55,80,56.25,0.46875,Eighth,G3
335,Right,0,60,80,56.25,0.46875,Eighth,C4
338,Left,1,48,80,56.5,0.447917,Eighth,C3
337,Right,0,64,80,56.5,0.427083,DottedSixteenth,E4
340,Left,1,55,80,56.75,0.46875,Eighth,G3
339,Right,0,60,80,56.75,0.427083,DottedSixteenth,C4
341,Left,1,48,80,57.0,0.416667,DottedSixteenth,C3
342,Right,0,64,80,57.0,0.4375,Eighth,E4
344,Left,1,55,80,57.25,0.447917,Eighth,G3
343,Right,0,60,80,57.25,0.4375,Eighth,C4
345,Right,0,64,80,57.5,0.385417,DottedSixteenth,E4
346,Left,1,48,80,57.5,0.458333,Eighth,C3
348,Right,0,60,80,57.75,0.385417,DottedSixteenth,C4
347,Left,1,55,80,57.75,0.489583,Eighth,G3
349,Right,0,64,80,58.0,0.4375,DottedSixteenth,E4
350,Left,1,48,80,58.0,0.489583,Eighth,C3
352,Right,0,60,80,58.25,0.416667,DottedSixteenth,C4
351,Left,1,55,80,58.25,0.4375,Eighth,G3
354,Right,0,64,80,58.5,0.395833,DottedSixteenth,E4
353,Left,1,48,80,58.5,0.385417,DottedSixteenth,C3
355,Right,0,60,80,58.75,0.40625,DottedSixteenth,C4
356,Left,1,55,80,58.75,0.416667,DottedSixteenth,G3
358,Right,0,66,80,59.0,0.416667,DottedSixteenth,F#4
357,Left,1,48,80,59.0,0.4375,Eighth,C3
360,Left,1,57,80,59.25,0.4375,Eighth,A3
359,Right,0,62,80,59.25,0.40625,DottedSixteenth,D4
361,Right,0,66,80,59.5,0.4375,Eighth,F#4
362,Left,1,48,80,59.5,0.40625,DottedSixteenth,C3
363,Right,0,62,80,59.75,0.239583,Sixteenth,D4
364,Left,1,57,80,59.75,0.239583,Sixteenth,A3
365,Right,0,67,80,60.0,1.489583,DottedQuarter,G4
366,Left,1,50,80,60.0,0.239583,Sixteenth,D3_B2
368,Left,1,55,80,60.25,0.239583,Sixteenth,G3
369,Left,1,50,80,60.5,0.239583,Sixteenth,D3_B2
371,Left,1,55,80,60.75,0.239583,Sixteenth,G3
372,Left,1,47,80,61.0,0.239583,Sixteenth,D3_B2
374,Left,1,55,80,61.25,0.239583,Sixteenth,G3
375,Right,0,71,80,61.5,0.239583,Sixteenth,B4
376,Left,1,47,80,61.5,0.239583,Sixteenth,D3_B2
379,Right,0,69,80,61.75,0.239583,Sixteenth,A4
378,Left,1,55,80,61.75,0.239583,Sixteenth,G3
380,Right,0,67,80,62.0,0.489583,Eighth,G4
381,Left,1,47,80,62.0,0.239583,Sixteenth,D3_B2
383,Left,1,55,80,62.25,0.239583,Sixteenth,G3
384,Left,1,50,80,62.5,0.239583,Sixteenth,D3_B2
386,Left,1,55,80,62.75,0.239583,Sixteenth,G3
387,Left,1,47,80,63.0,0.239583,Sixteenth,D3_B2
389,Left,1,55,80,63.25,0.239583,Sixteenth,G3
390,Left,1,47,80,63.5,0.239583,Sixteenth,D3_B2
392,Left,1,55,80,63.75,0.239583,Sixteenth,G3
393,Left,1,47,80,64.0,0.239583,Sixteenth,D3_B2
395,Right,0,85,80,64.0,0.239583,Sixteenth,C#6
397,Left,1,55,80,64.25,0.239583,Sixteenth,G3
396,Right,0,86,80,64.25,0.989583,Quarter,D6
398,Left,1,50,80,64.5,0.239583,Sixteenth,D3_B2
400,Left,1,55,80,64.75,0.239583,Sixteenth,G3
401,Left,1,47,80,65.0,0.239583,Sixteenth,D3_B2
403,Right,0,84,80,65.25,0.239583,Sixteenth,C6
404,Left,1,55,80,65.25,0.239583,Sixteenth,G3
405,Left,1,47,80,65.5,0.239583,Sixteenth,D3_B2
407,Right,0,83,80,65.5,0.239583,Sixteenth,B5
408,Left,1,55,80,65.75,0.239583,Sixteenth,G3
409,Right,0,81,80,65.75,0.239583,Sixteenth,A5
410,Left,1,47,80,66.0,0.239583,Sixteenth,D3_B2
412,Right,0,79,80,66.0,0.989583,Quarter,G5
413,Left,1,55,80,66.25,0.239583,Sixteenth,G3
414,Left,1,50,80,66.5,0.239583,Sixteenth,D3_B2
416,Left,1,55,80,66.75,0.239583,Sixteenth,G3
417,Left,1,47,80,67.0,0.239583,Sixteenth,D3_B2
419,Left,1,55,80,67.25,0.239583,Sixteenth,G3
420,Left,1,50,80,67.5,0.239583,Sixteenth,D3_B2
422,Left,1,55,80,67.75,0.239583,Sixteenth,G3
424,Right,0,65,80,68.0,0.239583,Sixteenth,F4
423,Left,1,38,80,68.0,0.489583,Eighth,D3_D2
426,Right,0,62,80,68.25,0.239583,Sixteenth,D4
428,Left,1,50,80,68.5,0.239583,Sixteenth,D3
427,Right,0,65,80,68.5,0.239583,Sixteenth,F4
430,Left,1,57,80,68.75,0.239583,Sixteenth,A3
429,Right,0,62,80,68.75,0.239583,Sixteenth,D4
431,Left,1,50,80,69.0,0.239583,Sixteenth,D3
432,Right,0,65,80,69.0,0.239583,Sixteenth,F4
433,Left,1,57,80,69.25,0.239583,Sixteenth,A3
434,Right,0,62,80,69.25,0.239583,Sixteenth,D4
436,Left,1,50,80,69.5,0.239583,Sixteenth,D3
435,Right,0,65,80,69.5,0.239583,Sixteenth,F4
437,Right,0,62,80,69.75,0.239583,Sixteenth,D4
438,Left,1,57,80,69.75,0.239583,Sixteenth,A3
440,Right,0,65,80,70.0,0.239583,Sixteenth,F4
439,Left,1,50,80,70.0,0.239583,Sixteenth,D3
441,Right,0,62,80,70.25,0.239583,Sixteenth,D4
442,Left,1,57,80,70.25,0.239583,Sixteenth,A3
443,Left,1,50,80,70.5,0.239583,Sixteenth,D3
444,Right,0,65,80,70.5,0.239583,Sixteenth,F4
446,Left,1,57,80,70.75,0.239583,Sixteenth,A3
445,Right,0,62,80,70.75,0.239583,Sixteenth,D4
447,Left,1,50,80,71.0,0.239583,Sixteenth,D3
448,Right,0,65,80,71.0,0.239583,Sixteenth,F4
450,Right,0,62,80,71.25,0.239583,Sixteenth,D4
449,Left,1,57,80,71.25,0.239583,Sixteenth,A3
452,Left,1,50,80,71.5,0.239583,Sixteenth,D3
451,Right,0,65,80,71.5,0.239583,Sixteenth,F4
453,Left,1,57,80,71.75,0.239583,Sixteenth,A3
454,Right,0,62,80,71.75,0.239583,Sixteenth,D4
455,Left,1,50,80,72.0,0.239583,Sixteenth,D3
456,Right,0,65,80,72.0,0.239583,Sixteenth,F4
457,Left,1,57,80,72.25,0.239583,Sixteenth,A3
458,Right,0,62,80,72.25,0.239583,Sixteenth,D4
459,Right,0,65,80,72.5,0.239583,Sixteenth,F4
460,Left,1,50,80,72.5,0.239583,Sixteenth,D3
462,Right,0,62,80,72.75,0.239583,Sixteenth,D4
461,Left,1,57,80,72.75,0.239583,Sixteenth,A3
463,Right,0,65,80,73.0,0.239583,Sixteenth,F4
464,Left,1,50,80,73.0,0.239583,Sixteenth,D3
466,Right,0,62,80,73.25,0.239583,Sixteenth,D4
465,Left,1,57,80,73.25,0.239583,Sixteenth,A3
467,Left,1,50,80,73.5,0.239583,Sixteenth,D3
468,Right,0,65,80,73.5,0.239583,Sixteenth,F4
470,Right,0,62,80,73.75,0.239583,Sixteenth,D4
469,Left,1,57,80,73.75,0.239583,Sixteenth,A3
472,Right,0,65,80,74.0,0.239583,Sixteenth,F4
471,Left,1,50,80,74.0,0.239583,Sixteenth,D3
473,Left,1,57,80,74.25,0.239583,Sixteenth,A3
474,Right,0,62,80,74.25,0.239583,Sixteenth,D4
476,Left,1,50,80,74.5,0.239583,Sixteenth,D3
475,Right,0,65,80,74.5,0.239583,Sixteenth,F4
478,Right,0,62,80,74.75,0.239583,Sixteenth,D4
477,Left,1,57,80,74.75,0.239583,Sixteenth,A3
479,Right,0,68,80,75.0,0.239583,Sixteenth,G#4
480,Left,1,50,80,75.0,0.239583,Sixteenth,D3
482,Right,0,64,80,75.25,0.239583,Sixteenth,E4
481,Left,1,59,80,75.25,0.239583,Sixteenth,B3
483,Right,0,68,80,75.5,0.239583,Sixteenth,G#4
484,Left,1,50,80,75.5,0.239583,Sixteenth,D3
486,Left,1,59,80,75.75,0.239583,Sixteenth,B3
485,Right,0,64,80,75.75,0.239583,Sixteenth,E4
487,Left,1,52,80,76.0,0.239583,Sixteenth,E3_C3
488,Right,0,69,80,76.0,1.489583,DottedQuarter,A4
490,Left,1,57,80,76.25,0.239583,Sixteenth,A3
491,Left,1,48,80,76.5,0.239583,Sixteenth,E3_C3
493,Left,1,57,80,76.75,0.239583,Sixteenth,A3
494,Left,1,48,80,77.0,0.239583,Sixteenth,E3_C3
496,Left,1,57,80,77.25,0.239583,Sixteenth,A3
498,Left,1,48,80,77.5,0.239583,Sixteenth,E3_C3
497,Right,0,72,80,77.5,0.239583,Sixteenth,C5
500,Right,0,71,80,77.75,0.239583,Sixteenth,B4
501,Left,1,57,80,77.75,0.239583,Sixteenth,A3
503,Right,0,69,80,78.0,0.489583,Eighth,A4
502,Left,1,52,80,78.0,0.239583,Sixteenth,E3_C3
505,Left,1,57,80,78.25,0.239583,Sixteenth,A3
506,Left,1,48,80,78.5,0.239583,Sixteenth,E3_C3
508,Left,1,57,80,78.75,0.239583,Sixteenth,A3
509,Left,1,48,80,79.0,0.239583,Sixteenth,E3_C3
511,Left,1,57,80,79.25,0.239583,Sixteenth,A3
512,Left,1,52,80,79.5,0.239583,Sixteenth,E3_C3
514,Left,1,57,80,79.75,0.239583,Sixteenth,A3
517,Right,0,87,80,80.0,0.239583,Sixteenth,D#6
515,Left,1,52,80,80.0,0.239583,Sixteenth,E3_C3
518,Left,1,57,80,80.25,0.239583,Sixteenth,A3
519,Right,0,88,80,80.25,0.989583,Quarter,E6
520,Left,1,52,81,80.5,0.239583,Sixteenth,E3_C3
522,Left,1,57,82,80.75,0.239583,Sixteenth,A3
523,Left,1,52,83,81.0,0.239583,Sixteenth,E3_C3
525,Left,1,57,84,81.25,0.239583,Sixteenth,A3
526,Right,0,86,84,81.25,0.239583,Sixteenth,D6
528,Left,1,52,85,81.5,0.239583,Sixteenth,E3_C3
527,Right,0,84,85,81.5,0.239583,Sixteenth,C6
530,Left,1,57,86,81.75,0.239583,Sixteenth,A3
531,Right,0,83,86,81.75,0.239583,Sixteenth,B5
532,Right,0,81,87,82.0,0.989583,Quarter,A5
533,Left,1,48,87,82.0,0.239583,Sixteenth,E3_C3
535,Left,1,57,88,82.25,0.239583,Sixteenth,A3
536,Left,1,48,89,82.5,0.239583,Sixteenth,E3_C3
538,Left,1,57,90,82.75,0.239583,Sixteenth,A3
539,Left,1,48,91,83.0,0.239583,Sixteenth,E3_C3
541,Left,1,57,92,83.25,0.239583,Sixteenth,A3
542,Left,1,52,93,83.5,0.239583,Sixteenth,E3_C3
544,Left,1,57,94,83.75,0.239583,Sixteenth,A3
545,Left,1,52,95,84.0,0.239583,Sixteenth,E3_C3
547,Right,0,87,95,84.0,0.239583,Sixteenth,D#6
548,Right,0,88,96,84.25,0.989583,Quarter,E6
549,Left,1,58,96,84.25,0.239583,Sixteenth,A#3
550,Left,1,52,97,84.5,0.239583,Sixteenth,E3_C3
552,Left,1,58,98,84.75,0.239583,Sixteenth,A#3
553,Left,1,52,99,85.0,0.239583,Sixteenth,E3_C3
555,Right,0,86,100,85.25,0.239583,Sixteenth,D6
556,Left,1,58,100,85.25,0.239583,Sixteenth,A#3
557,Right,0,84,101,85.5,0.239583,Sixteenth,C6
558,Left,1,48,101,85.5,0.239583,Sixteenth,E3_C3
560,Right,0,83,102,85.75,0.239583,Sixteenth,B5
561,Left,1,58,102,85.75,0.239583,Sixteenth,A#3
564,Right,0,82,103,86.0,0.989583,Quarter,A#5
562,Left,1,48,103,86.0,0.239583,Sixteenth,E3_C3
565,Left,1,58,104,86.25,0.239583,Sixteenth,A#3
566,Left,1,48,105,86.5,0.239583,Sixteenth,E3_C3
568,Left,1,58,106,86.75,0.239583,Sixteenth,A#3
569,Left,1,52,107,87.0,0.239583,Sixteenth,E3_C3
571,Left,1,58,108,87.25,0.239583,Sixteenth,A#3
572,Left,1,48,109,87.5,0.239583,Sixteenth,E3_C3
574,Left,1,58,110,87.75,0.239583,Sixteenth,A#3
575,Left,1,47,80,88.0,0.239583,Sixteenth,B2
576,Right,0,83,80,88.0,1.239583,TiedQuarter-Sixteenth,B5
577,Left,1,51,80,88.25,0.239583,Sixteenth,D#3
578,Left,1,54,80,88.5,0.239583,Sixteenth,F#3
579,Left,1,59,80,88.75,0.239583,Sixteenth,B3
580,Left,1,47,80,89.0,0.239583,Sixteenth,B2
581,Left,1,51,80,89.25,0.239583,Sixteenth,D#3
582,Right,0,81,80,89.25,0.239583,Sixteenth,A5
583,Left,1,54,80,89.5,0.239583,Sixteenth,F#3
584,Right,0,79,80,89.5,0.239583,Sixteenth,G5
585,Right,0,78,80,89.75,0.239583,Sixteenth,F#5
586,Left,1,59,80,89.75,0.239583,Sixteenth,B3
587,Right,0,79,80,90.0,0.239583,Sixteenth,G5
588,Left,1,47,80,90.0,0.239583,Sixteenth,B2
590,Right,0,78,80,90.25,0.239583,Sixteenth,F#5
589,Left,1,51,80,90.25,0.239583,Sixteenth,D#3
592,Left,1,55,80,90.5,0.239583,Sixteenth,G3
591,Right,0,76,80,90.5,0.239583,Sixteenth,E5
593,Left,1,59,80,90.75,0.239583,Sixteenth,B3
594,Right,0,75,80,90.75,0.239583,Sixteenth,D#5
596,Left,1,47,80,91.0,0.239583,Sixteenth,B2
595,Right,0,76,80,91.0,0.239583,Sixteenth,E5
598,Left,1,51,80,91.25,0.239583,Sixteenth,D#3
597,Right,0,79,80,91.25,0.239583,Sixteenth,G5
599,Right,0,78,80,91.5,0.239583,Sixteenth,F#5
600,Left,1,55,80,91.5,0.239583,Sixteenth,G3
602,Right,0,76,80,91.75,0.239583,Sixteenth,E5
601,Left,1,59,80,91.75,0.239583,Sixteenth,B3
604,Left,1,47,80,92.0,0.239583,Sixteenth,B2
603,Right,0,75,80,92.0,0.239583,Sixteenth,D#5
605,Right,0,73,80,92.25,0.239583,Sixteenth,C#5
606,Left,1,54,80,92.25,0.239583,Sixteenth,F#3
608,Left,1,57,80,92.5,0.239583,Sixteenth,A3
607,Right,0,71,80,92.5,0.239583,Sixteenth,B4
609,Right,0,70,80,92.75,0.239583,Sixteenth,A#4
610,Left,1,59,80,92.75,0.239583,Sixteenth,B3
612,Right,0,71,80,93.0,0.239583,Sixteenth,B4
611,Left,1,47,80,93.0,0.239583,Sixteenth,B2
614,Right,0,73,80,93.25,0.239583,Sixteenth,C#5
613,Left,1,54,80,93.25,0.239583,Sixteenth,F#3
615,Right,0,74,80,93.5,0.239583,Sixteenth,D5
616,Left,1,57,80,93.5,0.239583,Sixteenth,A3
618,Left,1,59,80,93.75,0.239583,Sixteenth,B3
617,Right,0,75,80,93.75,0.239583,Sixteenth,D#5
619,Right,0,76,80,94.0,0.239583,Sixteenth,E5
620,Left,1,47,80,94.0,0.239583,Sixteenth,B2
621,Left,1,52,80,94.25,0.239583,Sixteenth,E3
622,Right,0,75,80,94.25,0.239583,Sixteenth,D#5
624,Left,1,55,80,94.5,0.239583,Sixteenth,G3
623,Right,0,76,80,94.5,0.239583,Sixteenth,E5
625,Right,0,78,80,94.75,0.239583,Sixteenth,F#5
626,Left,1,59,80,94.75,0.239583,Sixteenth,B3
627,Left,1,47,80,95.0,0.239583,Sixteenth,B2
628,Right,0,79,80,95.0,0.239583,Sixteenth,G5
630,Left,1,52,80,95.25,0.239583,Sixteenth,E3
629,Right,0,80,80,95.25,0.239583,Sixteenth,G#5
632,Left,1,55,80,95.5,0.239583,Sixteenth,G3
631,Right,0,81,80,95.5,0.239583,Sixteenth,A5
633,Left,1,59,80,95.75,0.239583,Sixteenth,B3
634,Right,0,82,80,95.75,0.239583,Sixteenth,A#5
636,Right,0,83,80,96.0,0.239583,Sixteenth,B5
635,Left,1,47,80,96.0,0.239583,Sixteenth,B2
638,Left,1,51,80,96.25,0.239583,Sixteenth,D#3
637,Right,0,82,80,96.25,0.239583,Sixteenth,A#5
639,Left,1,54,80,96.5,0.239583,Sixteenth,F#3
640,Right,0,83,80,96.5,0.239583,Sixteenth,B5
642,Left,1,59,80,96.75,0.239583,Sixteenth,B3
641,Right,0,82,80,96.75,0.239583,Sixteenth,A#5
643,Left,1,47,80,97.0,0.239583,Sixteenth,B2
644,Right,0,83,80,97.0,0.239583,Sixteenth,B5
645,Right,0,81,80,97.25,0.239583,Sixteenth,A5
646,Left,1,51,80,97.25,0.239583,Sixteenth,D#3
648,Left,1,54,80,97.5,0.239583,Sixteenth,F#3
647,Right,0,79,80,97.5,0.239583,Sixteenth,G5
650,Left,1,59,80,97.75,0.239583,Sixteenth,B3
649,Right,0,78,80,97.75,0.239583,Sixteenth,F#5
652,Left,1,47,80,98.0,0.239583,Sixteenth,B2
651,Right,0,79,80,98.0,0.239583,Sixteenth,G5
654,Left,1,51,80,98.25,0.239583,Sixteenth,D#3
653,Right,0,78,80,98.25,0.239583,Sixteenth,F#5
656,Left,1,55,80,98.5,0.239583,Sixteenth,G3
655,Right,0,76,80,98.5,0.239583,Sixteenth,E5
657,Left,1,59,80,98.75,0.239583,Sixteenth,B3
658,Right,0,75,80,98.75,0.239583,Sixteenth,D#5
659,Left,1,47,80,99.0,0.239583,Sixteenth,B2
660,Right,0,76,80,99.0,0.239583,Sixteenth,E5
661,Left,1,51,80,99.25,0.239583,Sixteenth,D#3
662,Right,0,79,80,99.25,0.239583,Sixteenth,G5
664,Right,0,78,80,99.5,0.239583,Sixteenth,F#5
663,Left,1,55,80,99.5,0.239583,Sixteenth,G3
665,Right,0,76,80,99.75,0.239583,Sixteenth,E5
666,Left,1,59,80,99.75,0.239583,Sixteenth,B3
668,Right,0,75,80,100.0,0.239583,Sixteenth,D#5
667,Left,1,47,80,100.0,0.239583,Sixteenth,B2
670,Left,1,54,80,100.25,0.239583,Sixteenth,F#3
669,Right,0,73,80,100.25,0.239583,Sixteenth,C#5
671,Left,1,57,80,100.5,0.239583,Sixteenth,A3
672,Right,0,71,80,100.5,0.239583,Sixteenth,B4
673,Right,0,70,80,100.75,0.239583,Sixteenth,A#4
674,Left,1,59,80,100.75,0.239583,Sixteenth,B3
675,Right,0,71,80,101.0,0.239583,Sixteenth,B4
676,Left,1,47,80,101.0,0.239583,Sixteenth,B2
678,Left,1,54,80,101.25,0.239583,Sixteenth,F#3
677,Right,0,73,80,101.25,0.239583,Sixteenth,C#5
679,Left,1,57,80,101.5,0.239583,Sixteenth,A3
680,Right,0,74,80,101.5,0.239583,Sixteenth,D5
682,Right,0,75,80,101.75,0.239583,Sixteenth,D#5
681,Left,1,59,80,101.75,0.239583,Sixteenth,B3
684,Left,1,47,80,102.0,0.239583,Sixteenth,B2
683,Right,0,76,80,102.0,0.239583,Sixteenth,E5
686,Left,1,52,80,102.25,0.239583,Sixteenth,E3
685,Right,0,75,80,102.25,0.239583,Sixteenth,D#5
688,Right,0,76,80,102.5,0.239583,Sixteenth,E5
687,Left,1,55,80,102.5,0.239583,Sixteenth,G3
690,Right,0,78,80,102.75,0.239583,Sixteenth,F#5
689,Left,1,59,80,102.75,0.239583,Sixteenth,B3
691,Left,1,47,80,103.0,0.239583,Sixteenth,B2
692,Right,0,79,80,103.0,0.239583,Sixteenth,G5
693,Left,1,52,80,103.25,0.239583,Sixteenth,E3
694,Right,0,80,80,103.25,0.239583,Sixteenth,G#5
695,Right,0,81,80,103.5,0.239583,Sixteenth,A5
696,Left,1,55,80,103.5,0.239583,Sixteenth,G3
698,Right,0,82,80,103.75,0.239583,Sixteenth,A#5
697,Left,1,59,80,103.75,0.239583,Sixteenth,B3
699,Left,1,47,80,104.0,0.239583,Sixteenth,B2
700,Right,0,83,80,104.0,0.239583,Sixteenth,B5
701,Left,1,51,82,104.25,0.239583,Sixteenth,D#3
702,Right,0,78,82,104.25,0.239583,Sixteenth,F#5
703,Left,1,54,84,104.5,0.239583,Sixteenth,F#3
704,Right,0,75,84,104.5,0.239583,Sixteenth,D#5
705,Left,1,59,86,104.75,0.239583,Sixteenth,B3
706,Right,0,71,86,104.75,0.239583,Sixteenth,B4
707,Left,1,58,88,105.0,0.239583,Sixteenth,A#3
708,Right,0,70,88,105.0,0.239583,Sixteenth,A#4
710,Right,0,71,90,105.25,0.239583,Sixteenth,B4
709,Left,1,59,90,105.25,0.239583,Sixteenth,B3
711,Left,1,55,92,105.5,0.239583,Sixteenth,G3
712,Right,0,76,92,105.5,0.239583,Sixteenth,E5
713,Right,0,79,94,105.75,0.239583,Sixteenth,G5
714,Left,1,52,94,105.75,0.239583,Sixteenth,E3
716,Right,0,83,96,106.0,0.239583,Sixteenth,B5
715,Left,1,47,96,106.0,0.239583,Sixteenth,B2
718,Right,0,78,98,106.25,0.239583,Sixteenth,F#5
717,Left,1,51,98,106.25,0.239583,Sixteenth,D#3
719,Right,0,75,100,106.5,0.239583,Sixteenth,D#5
720,Left,1,54,100,106.5,0.239583,Sixteenth,F#3
722,Left,1,59,102,106.75,0.239583,Sixteenth,B3
721,Right,0,71,102,106.75,0.239583,Sixteenth,B4
723,Right,0,70,104,107.0,0.239583,Sixteenth,A#4
724,Left,1,58,104,107.0,0.239583,Sixteenth,A#3
726,Right,0,71,106,107.25,0.239583,Sixteenth,B4
725,Left,1,59,106,107.25,0.239583,Sixteenth,B3
727,Right,0,76,108,107.5,0.239583,Sixteenth,E5
728,Left,1,55,108,107.5,0.239583,Sixteenth,G3
729,Right,0,79,110,107.75,0.239583,Sixteenth,G5
730,Left,1,52,110,107.75,0.239583,Sixteenth,E3
731,Right,0,83,110,108.0,0.239583,Sixteenth,B5
732,Left,1,47,110,108.0,0.239583,Sixteenth,B2
734,Left,1,51,110,108.25,0.239583,Sixteenth,D#3
733,Right,0,78,110,108.25,0.239583,Sixteenth,F#5
735,Left,1,54,110,108.5,0.239583,Sixteenth,F#3
736,Right,0,75,110,108.5,0.239583,Sixteenth,D#5
737,Right,0,71,110,108.75,0.239583,Sixteenth,B4
738,Left,1,59,110,108.75,0.239583,Sixteenth,B3
739,Right,0,83,110,109.0,0.239583,Sixteenth,B5
740,Left,1,47,110,109.0,0.239583,Sixteenth,B2
742,Left,1,52,110,109.25,0.239583,Sixteenth,E3
741,Right,0,79,110,109.25,0.239583,Sixteenth,G5
743,Left,1,55,110,109.5,0.239583,Sixteenth,G3
744,Right,0,76,110,109.5,0.239583,Sixteenth,E5
745,Left,1,59,110,109.75,0.239583,Sixteenth,B3
746,Right,0,71,110,109.75,0.239583,Sixteenth,B4
747,Left,1,47,110,110.0,0.239583,Sixteenth,B2
748,Right,0,83,110,110.0,0.239583,Sixteenth,B5
749,Left,1,51,110,110.25,0.239583,Sixteenth,D#3
750,Right,0,78,110,110.25,0.239583,Sixteenth,F#5
751,Right,0,75,110,110.5,0.239583,Sixteenth,D#5
752,Left,1,54,110,110.5,0.239583,Sixteenth,F#3
754,Right,0,71,110,110.75,0.239583,Sixteenth,B4
753,Left,1,59,110,110.75,0.239583,Sixteenth,B3
756,Right,0,83,110,111.0,0.239583,Sixteenth,B5
755,Left,1,47,110,111.0,0.239583,Sixteenth,B2
758,Left,1,52,110,111.25,0.239583,Sixteenth,E3
757,Right,0,79,110,111.25,0.239583,Sixteenth,G5
759,Left,1,55,110,111.5,0.239583,Sixteenth,G3
760,Right,0,76,110,111.5,0.239583,Sixteenth,E5
761,Left,1,59,110,111.75,0.239583,Sixteenth,B3
762,Right,0,71,110,111.75,0.239583,Sixteenth,B4
763,Left,1,54,110,112.0,0.989583,Quarter,F#3_D#3_B3_B2
766,Right,0,83,110,112.0,0.239583,Sixteenth,B5
768,Right,0,78,110,112.25,0.239583,Sixteenth,F#5
769,Right,0,75,110,112.5,0.239583,Sixteenth,D#5
770,Right,0,71,110,112.75,0.239583,Sixteenth,B4
771,Right,0,78,110,113.0,0.239583,Sixteenth,F#5
772,Right,0,75,110,113.25,0.239583,Sixteenth,D#5
773,Right,0,71,110,113.5,0.239583,Sixteenth,B4
774,Right,0,66,110,113.75,0.239583,Sixteenth,F#4
775,Right,0,75,110,114.0,0.239583,Sixteenth,D#5
776,Right,0,71,110,114.25,0.239583,Sixteenth,B4
777,Right,0,66,110,114.5,0.239583,Sixteenth,F#4
778,Right,0,63,110,114.75,0.239583,Sixteenth,D#4
779,Right,0,71,110,115.0,0.239583,Sixteenth,B4
780,Right,0,66,110,115.25,0.239583,Sixteenth,F#4
781,Right,0,63,110,115.5,0.239583,Sixteenth,D#4
782,Right,0,59,110,115.75,0.239583,Sixteenth,B3
783,Right,0,66,110,116.0,0.239583,Sixteenth,F#4
784,Right,0,63,110,116.25,0.239583,Sixteenth,D#4
785,Right,0,59,110,116.5,0.239583,Sixteenth,B3
786,Right,0,54,110,116.75,0.239583,Sixteenth,F#3
787,Right,0,63,110,117.0,0.239583,Sixteenth,D#4
788,Right,0,59,110,117.25,0.239583,Sixteenth,B3
789,Right,0,54,110,117.5,0.239583,Sixteenth,F#3
790,Right,0,51,110,117.75,0.239583,Sixteenth,D#3
791,Right,0,59,110,118.0,0.239583,Sixteenth,B3
792,Right,0,54,110,118.25,0.239583,Sixteenth,F#3
793,Right,0,51,110,118.5,0.239583,Sixteenth,D#3
794,Right,0,47,110,118.75,0.239583,Sixteenth,B2
795,Left,1,35,110,119.0,0.239583,Sixteenth,B1
796,Left,1,39,110,119.25,0.239583,Sixteenth,D#2
797,Left,1,42,110,119.5,0.239583,Sixteenth,F#2
798,Left,1,47,110,119.75,0.239583,Sixteenth,B2
799,Left,1,35,110,120.0,0.489583,Eighth,B1
800,Left,1,47,109,120.5,0.489583,Eighth,B2
801,Left,1,37,107,121.0,0.489583,Eighth,C#2
802,Left,1,49,105,121.5,0.489583,Eighth,C#3
804,Left,1,39,103,122.0,0.489583,Eighth,D#2
803,Right,0,71,103,122.0,0.489583,Eighth,B4
806,Right,0,59,101,122.5,0.489583,Eighth,B3
805,Left,1,51,101,122.5,0.489583,Eighth,D#3
807,Right,0,73,99,123.0,0.489583,Eighth,C#5
808,Right,0,61,97,123.5,0.489583,Eighth,C#4
810,Right,0,75,95,124.0,0.489583,Eighth,D#5
809,Left,1,39,95,124.0,0.489583,Eighth,D#2
811,Right,0,63,93,124.5,0.489583,Eighth,D#4
812,Left,1,51,93,124.5,0.489583,Eighth,D#3
813,Left,1,40,91,125.0,0.489583,Eighth,E2
814,Left,1,52,89,125.5,0.489583,Eighth,E3
815,Right,0,75,87,126.0,0.489583,Eighth,D#5
816,Left,1,42,87,126.0,0.489583,Eighth,F#2
817,Right,0,63,85,126.5,0.489583,Eighth,D#4
818,Left,1,54,85,126.5,0.489583,Eighth,F#3
819,Right,0,76,83,127.0,0.489583,Eighth,E5
820,Right,0,64,81,127.5,0.489583,Eighth,E4
821,Right,0,78,80,128.0,0.489583,Eighth,F#5
822,Right,0,66,80,128.5,0.489583,Eighth,F#4
823,Right,0,80,80,129.0,0.489583,Eighth,G#5
824,Right,0,68,80,129.5,0.489583,Eighth,G#4
825,Left,1,42,80,130.0,0.489583,Eighth,F#2
826,Right,0,81,80,130.0,0.489583,Eighth,A5
828,Right,0,69,80,130.5,0.489583,Eighth,A4
827,Left,1,54,80,130.5,0.489583,Eighth,F#3
830,Right,0,81,80,131.0,0.489583,Eighth,A5
829,Left,1,44,80,131.0,0.489583,Eighth,G#2
831,Right,0,71,80,131.5,0.489583,Eighth,B4
832,Left,1,56,80,131.5,0.489583,Eighth,G#3
834,Right,0,81,80,132.0,0.489583,Eighth,A5
833,Left,1,45,80,132.0,0.489583,Eighth,A2
835,Left,1,57,80,132.5,0.489583,Eighth,A3
836,Right,0,73,80,132.5,0.489583,Eighth,C#5
837,Right,0,81,80,133.0,0.489583,Eighth,A5
838,Left,1,47,80,133.0,0.489583,Eighth,B2
840,Left,1,59,80,133.5,0.489583,Eighth,B3
839,Right,0,75,80,133.5,0.489583,Eighth,D#5
842,Left,1,49,80,134.0,0.489583,Eighth,C#3
841,Right,0,81,80,134.0,0.489583,Eighth,A5
844,Left,1,61,80,134.5,0.489583,Eighth,C#4
843,Right,0,76,80,134.5,0.489583,Eighth,E5
845,Right,0,81,80,135.0,0.489583,Eighth,A5
846,Left,1,51,80,135.0,0.489583,Eighth,D#3
848,Left,1,63,80,135.5,0.489583,Eighth,D#4
847,Right,0,78,80,135.5,0.489583,Eighth,F#5
849,Left,1,64,80,136.0,1.989583,Half,G#4_E4
850,Right,0,76,80,136.0,1.989583,Half,G#5_E5_B4
854,Left,1,63,80,138.0,0.989583,Quarter,F#4_D#4_B3
856,Right,0,69,80,138.0,0.989583,Quarter,F#5_D#5_A4
862,Right,0,68,80,139.0,0.989583,Quarter,G#4_E5_C#5
860,Left,1,64,80,139.0,0.989583,Quarter,E4_C#4
865,Right,0,72,80,140.0,1.989583,Half,F#4_D#5_C5
866,Left,1,63,80,140.0,1.989583,Half,G#3_D#4_C4
873,Right,0,64,80,142.0,1.989583,Half,E4_C#5
871,Left,1,61,80,142.0,1.989583,Half,C#4_A3
875,Left,1,54,80,144.0,1.989583,Half,F#3_D#4_B3_A3
879,Right,0,69,80,144.0,1.989583,Half,D#5_B4_A4
882,Left,1,56,99,146.0,0.989583,Quarter,G#3_E4_B3
885,Right,0,76,99,146.0,0.989583,Quarter,E5_B4
887,Left,1,57,109,147.0,0.989583,Quarter,F#4_C#4_A3
890,Right,0,78,109,147.0,0.989583,Quarter,F#5_E5_C#5
896,Right,0,71,110,148.0,2.989583,Half,G#5_E5_B4
893,Left,1,59,110,148.0,3.989583,Half,G#4_E4_B3
899,Left,1,63,91,150.0,1.989583,Half,F#4_D#4
901,Right,0,78,91,150.0,1.989583,Half,F#5_D#5
903,Right,0,69,81,151.0,0.989583,Quarter,A4
904,Right,0,59,80,152.0,1.989583,Half,G#4_E4_B3
907,Left,1,56,80,152.0,1.989583,Half,G#3_E3
909,Right,0,57,80,154.0,0.989583,Quarter,F#4_D#4_A3
912,Left,1,54,80,154.0,0.989583,Quarter,F#3_D#3_B2
915,Left,1,52,80,155.0,0.989583,Quarter,E3_C#3
917,Right,0,61,80,155.0,0.989583,Quarter,G#3_E4_C#4
923,Left,1,51,80,156.0,1.989583,Half,G#2_D#3_C3
920,Right,0,63,80,156.0,1.989583,Half,F#3_D#4_C4
929,Left,1,49,80,158.0,1.989583,Half,C#3_A2
926,Right,0,61,80,158.0,1.989583,Half,E3_C#4_A3
932,Left,1,35,80,160.0,3.989583,Whole,B2_B1
931,Right,0,56,80,160.0,1.989583,Quarter,G#3_E3_B3
936,Right,0,54,80,161.0,2.989583,DottedHalf,F#3_A3
938,Right,0,61,80,162.0,0.989583,Quarter,C#4
939,Right,0,63,80,163.0,0.989583,Quarter,D#4
942,Right,0,56,80,164.0,0.322917,Triplet,G#3_E4
940,Left,1,52,80,164.0,0.989583,Quarter,E3_E2
944,Right,0,66,80,164.333333,0.322917,Triplet,F#4
945,Right,0,68,80,164.666667,0.322917,Triplet,G#4
946,Right,0,69,80,165.0,0.322917,Triplet,A4
947,Right,0,71,80,165.333333,0.322917,Triplet,B4
948,Right,0,73,80,165.666667,0.322917,Triplet,C#5
949,Right,0,74,80,166.0,0.322917,Triplet,D5
950,Right,0,75,80,166.333333,0.322917,Triplet,D#5
951,Right,0,76,80,166.666667,0.322917,Triplet,E5
952,Right,0,77,80,167.0,0.322917,Triplet,F5
953,Right,0,78,80,167.333333,0.322917,Triplet,F#5
954,Right,0,79,80,167.666667,0.322917,Triplet,G5
955,Left,1,68,80,168.0,1.989583,Half,G#4_E4
957,Right,0,80,80,168.0,1.989583,Triplet,G#5_B4
959,Right,0,79,80,168.333333,0.322917,Triplet,G5
960,Right,0,80,80,168.666667,0.322917,Triplet,G#5
961,Right,0,81,80,169.0,0.322917,Triplet,A5
962,Right,0,78,80,169.333333,0.322917,Triplet,F#5
963,Right,0,80,80,169.666667,0.322917,Triplet,G#5
965,Right,0,69,80,170.0,0.989583,Quarter,A4
964,Left,1,63,80,170.0,0.989583,Quarter,F#4_D#4_B3
968,Right,0,80,80,170.333333,0.322917,Triplet,G#5
969,Right,0,78,80,170.666667,0.322917,Triplet,F#5
970,Left,1,64,80,171.0,0.989583,Quarter,E4_C#4
971,Right,0,68,80,171.0,0.989583,Quarter,G#4
973,Right,0,78,80,171.333333,0.322917,Triplet,F#5
974,Right,0,76,80,171.666667,0.322917,Triplet,E5
976,Left,1,63,80,172.0,1.989583,Half,F#4_D#4_C4
975,Right,0,66,80,172.0,1.989583,Half,F#4
979,Right,0,72,80,172.333333,0.322917,Triplet,C5
980,Right,0,75,80,172.666667,0.322917,Triplet,D#5
981,Right,0,76,80,173.0,0.322917,Triplet,E5
982,Right,0,72,80,173.333333,0.322917,Triplet,C5
983,Right,0,75,80,173.666667,0.322917,Triplet,D#5
985,Left,1,57,80,174.0,1.989583,Half,C#4_A3
984,Right,0,64,80,174.0,1.989583,Half,E4
987,Right,0,69,80,174.333333,0.322917,Triplet,A4
988,Right,0,73,80,174.666667,0.322917,Triplet,C#5
989,Right,0,75,80,175.0,0.322917,Triplet,D#5
990,Right,0,69,80,175.333333,0.322917,Triplet,A4
991,Right,0,73,80,175.666667,0.322917,Triplet,C#5
996,Right,0,69,80,176.0,1.989583,Half,A4
992,Left,1,54,80,176.0,1.989583,Half,F#3_D#4_B3_A3
997,Right,0,74,82,176.333333,0.322917,Triplet,D5
998,Right,0,75,85,176.666667,0.322917,Triplet,D#5
999,Right,0,76,88,177.0,0.322917,Triplet,E5
1000,Right,0,74,91,177.333333,0.322917,Triplet,D5
1001,Right,0,75,94,177.666667,0.322917,Triplet,D#5
1002,Right,0,71,96,178.0,0.989583,Quarter,B4
1003,Left,1,64,96,178.0,0.989583,Quarter,G#3_E4_B3
1006,Right,0,78,99,178.333333,0.322917,Triplet,F#5
1007,Right,0,76,102,178.666667,0.322917,Triplet,E5
1009,Left,1,66,105,179.0,0.989583,Quarter,F#4_C#4_A3
1008,Right,0,73,105,179.0,0.989583,Quarter,C#5
1012,Right,0,80,108,179.333333,0.322917,Triplet,G#5
1013,Right,0,78,110,179.666667,0.322917,Triplet,F#5
1014,Right,0,76,110,180.0,1.989583,Half,G#5_E5
1016,Left,1,68,110,180.0,2.989583,Half,G#4_E4_B3
1019,Right,0,79,110,180.333333,0.322917,Triplet,G5
1020,Right,0,80,110,180.666667,0.322917,Triplet,G#5
1021,Right,0,83,110,181.0,0.322917,Triplet,B5
1022,Right,0,81,110,181.333333,0.322917,Triplet,A5
1023,Right,0,80,110,181.666667,0.322917,Triplet,G#5
1025,Right,0,75,110,182.0,0.322917,Triplet,F#5_D#5
1024,Left,1,66,110,182.0,0.989583,Quarter,F#4_D#4
1028,Right,0,73,107,182.333333,0.322917,Triplet,E5_C#5
1030,Right,0,71,103,182.666667,0.322917,Triplet,D#5_B4
1032,Right,0,73,99,183.0,0.322917,Triplet,C#5_A4
1034,Left,1,47,99,183.0,0.322917,Triplet,B2
1035,Right,0,71,95,183.333333,0.322917,Triplet,G#4_B4
1037,Left,1,49,95,183.333333,0.322917,Triplet,C#3
1038,Right,0,66,91,183.666667,0.322917,Triplet,F#4_A4
1040,Left,1,51,91,183.666667,0.322917,Triplet,D#3
1041,Right,0,68,80,184.0,1.989583,Triplet,G#4_B3
1043,Left,1,52,80,184.0,1.989583,Half,G#3_E3
1045,Right,0,67,80,184.333333,0.322917,Triplet,G4
1046,Right,0,68,80,184.666667,0.322917,Triplet,G#4
1047,Right,0,69,80,185.0,0.322917,Triplet,A4
1048,Right,0,67,80,185.333333,0.322917,Triplet,G4
1049,Right,0,68,80,185.666667,0.322917,Triplet,G#4
1051,Left,1,54,80,186.0,0.989583,Quarter,F#3_D#3_B2
1050,Right,0,57,80,186.0,0.989583,Quarter,A3
1054,Right,0,68,80,186.333333,0.322917,Triplet,G#4
1055,Right,0,66,80,186.666667,0.322917,Triplet,F#4
1056,Left,1,49,80,187.0,0.989583,Quarter,E3_C#3
1058,Right,0,56,80,187.0,0.989583,Quarter,G#3
1059,Right,0,66,80,187.333333,0.322917,Triplet,F#4
1060,Right,0,64,80,187.666667,0.322917,Triplet,E4
1062,Left,1,44,80,188.0,1.989583,Half,G#2_D#3_C3
1061,Right,0,54,80,188.0,1.989583,Half,F#3
1065,Right,0,60,80,188.333333,0.322917,Triplet,C4
1066,Right,0,63,80,188.666667,0.322917,Triplet,D#4
1067,Right,0,64,80,189.0,0.322917,Triplet,E4
1068,Right,0,60,80,189.333333,0.322917,Triplet,C4
1069,Right,0,63,80,189.666667,0.322917,Triplet,D#4
1071,Left,1,45,80,190.0,1.989583,Half,C#3_A2
1070,Right,0,52,80,190.0,1.989583,Half,E3
1073,Right,0,57,80,190.333333,0.322917,Triplet,A3
1074,Right,0,61,80,190.666667,0.322917,Triplet,C#4
1075,Right,0,63,80,191.0,0.322917,Triplet,D#4
1076,Right,0,57,80,191.333333,0.322917,Triplet,A3
1077,Right,0,61,80,191.666667,0.322917,Triplet,C#4
1079,Left,1,35,80,192.0,3.989583,Whole,B2_B1
1078,Right,0,52,80,192.0,0.989583,Quarter,E3
1081,Right,0,56,82,192.333333,0.322917,Triplet,G#3
1082,Right,0,59,85,192.666667,0.322917,Triplet,B3
1083,Right,0,54,88,193.0,0.989583,Quarter,F#3
1084,Right,0,57,91,193.333333,0.322917,Triplet,A3
1085,Right,0,59,94,193.666667,0.322917,Triplet,B3
1086,Right,0,54,96,194.0,0.989583,Quarter,F#3
1087,Right,0,57,99,194.333333,0.322917,Triplet,A3
1088,Right,0,61,102,194.666667,0.322917,Triplet,C#4
1089,Right,0,54,105,195.0,0.989583,Quarter,F#3
1090,Right,0,61,108,195.333333,0.322917,Triplet,C#4
1091,Right,0,63,110,195.666667,0.322917,Triplet,D#4
1092,Left,1,40,110,196.0,0.989583,Quarter,E3_E2
1093,Right,0,64,110,196.0,0.322917,Triplet,G#3_E4
1096,Right,0,59,110,196.333333,0.322917,Triplet,B3
1097,Right,0,56,110,196.666667,0.322917,Triplet,G#3
1099,Right,0,59,110,197.0,0.322917,Triplet,B3
1098,Left,1,47,110,197.0,1.989583,Half,B2
1100,Right,0,64,110,197.333333,0.322917,Triplet,E4
1101,Right,0,68,110,197.666667,0.322917,Triplet,G#4
1102,Right,0,66,110,198.0,0.322917,Triplet,F#4
1103,Right,0,63,110,198.333333,0.322917,Triplet,D#4
1104,Right,0,59,110,198.666667,0.322917,Triplet,B3
1106,Left,1,47,110,199.0,1.989583,Half,B2
1105,Right,0,63,110,199.0,0.322917,Triplet,D#4
1107,Right,0,66,110,199.333333,0.322917,Triplet,F#4
1108,Right,0,69,110,199.666667,0.322917,Triplet,A4
1109,Right,0,68,110,200.0,0.322917,Triplet,G#4
1110,Right,0,64,110,200.333333,0.322917,Triplet,E4
1111,Right,0,59,110,200.666667,0.322917,Triplet,B3
1113,Right,0,64,110,201.0,0.322917,Triplet,E4
1112,Left,1,47,110,201.0,1.989583,Half,B2
1114,Right,0,68,110,201.333333,0.322917,Triplet,G#4
1115,Right,0,71,110,201.666667,0.322917,Triplet,B4
1116,Right,0,69,110,202.0,0.322917,Triplet,A4
1117,Right,0,66,110,202.333333,0.322917,Triplet,F#4
1118,Right,0,63,110,202.666667,0.322917,Triplet,D#4
1119,Right,0,75,110,203.0,0.322917,Triplet,D#5
1120,Left,1,47,110,203.0,0.989583,Quarter,B2
1121,Right,0,71,110,203.333333,0.322917,Triplet,B4
1122,Right,0,66,110,203.666667,0.322917,Triplet,F#4
1124,Left,1,52,110,204.0,0.322917,Triplet,E3
1123,Right,0,76,110,204.0,0.989583,Quarter,G#4_E5
1126,Left,1,47,110,204.333333,0.322917,Triplet,B2
1127,Left,1,44,110,204.666667,0.322917,Triplet,G#2
1129,Right,0,71,110,205.0,1.989583,Half,B4
1128,Left,1,47,110,205.0,0.322917,Triplet,B2
1130,Left,1,52,110,205.333333,0.322917,Triplet,E3
1131,Left,1,56,110,205.666667,0.322917,Triplet,G#3
1132,Left,1,54,110,206.0,0.322917,Triplet,F#3
1133,Left,1,51,110,206.333333,0.322917,Triplet,D#3
1134,Left,1,47,110,206.666667,0.322917,Triplet,B2
1135,Right,0,71,110,207.0,1.989583,Half,B4
1136,Left,1,51,110,207.0,0.322917,Triplet,D#3
1137,Left,1,54,110,207.333333,0.322917,Triplet,F#3
1138,Left,1,57,110,207.666667,0.322917,Triplet,A3
1139,Left,1,56,110,208.0,0.322917,Triplet,G#3
1140,Left,1,52,110,208.333333,0.322917,Triplet,E3
1141,Left,1,47,110,208.666667,0.322917,Triplet,B2
1142,Left,1,52,110,209.0,0.322917,Triplet,E3
1143,Right,0,71,110,209.0,1.989583,Half,B4
1144,Left,1,56,110,209.333333,0.322917,Triplet,G#3
1145,Left,1,59,110,209.666667,0.322917,Triplet,B3
1146,Left,1,57,110,210.0,0.322917,Triplet,A3
1147,Left,1,54,110,210.333333,0.322917,Triplet,F#3
1148,Left,1,51,110,210.666667,0.322917,Triplet,D#3
1149,Right,0,71,110,211.0,0.989583,Quarter,B4
1150,Left,1,63,110,211.0,0.322917,Triplet,D#4
1151,Left,1,59,110,211.333333,0.322917,Triplet,B3
1152,Left,1,54,110,211.666667,0.322917,Triplet,F#3
1153,Left,1,56,110,212.0,0.322917,Triplet,G#3
1154,Right,0,76,110,212.0,0.322917,Triplet,E5
1156,Right,0,71,110,212.333333,0.322917,Triplet,B4
1155,Left,1,59,110,212.333333,0.322917,Triplet,B3
1157,Left,1,64,110,212.666667,0.322917,Triplet,E4
1158,Right,0,68,110,212.666667,0.322917,Triplet,G#4
1160,Right,0,71,110,213.0,0.322917,Triplet,B4
1159,Left,1,59,110,213.0,0.322917,Triplet,B3
1161,Left,1,56,110,213.333333,0.322917,Triplet,G#3
1162,Right,0,76,110,213.333333,0.322917,Triplet,E5
1163,Left,1,52,110,213.666667,0.322917,Triplet,E3
1164,Right,0,80,110,213.666667,0.322917,Triplet,G#5
1166,Right,0,78,110,214.0,0.322917,Triplet,F#5
1165,Left,1,51,110,214.0,0.322917,Triplet,D#3
1168,Right,0,75,110,214.333333,0.322917,Triplet,D#5
1167,Left,1,54,110,214.333333,0.322917,Triplet,F#3
1170,Right,0,71,110,214.666667,0.322917,Triplet,B4
1169,Left,1,57,110,214.666667,0.322917,Triplet,A3
1171,Right,0,75,110,215.0,0.322917,Triplet,D#5
1172,Left,1,54,110,215.0,0.322917,Triplet,F#3
1174,Right,0,78,110,215.333333,0.322917,Triplet,F#5
1173,Left,1,51,110,215.333333,0.322917,Triplet,D#3
1175,Right,0,81,110,215.666667,0.322917,Triplet,A5
1176,Left,1,47,110,215.666667,0.322917,Triplet,B2
1177,Right,0,80,110,216.0,0.322917,Triplet,G#5
1178,Left,1,52,110,216.0,0.322917,Triplet,E3
1179,Right,0,76,110,216.333333,0.322917,Triplet,E5
1180,Left,1,56,110,216.333333,0.322917,Triplet,G#3
1181,Right,0,71,110,216.666667,0.322917,Triplet,B4
1182,Left,1,59,110,216.666667,0.322917,Triplet,B3
1184,Right,0,76,110,217.0,0.322917,Triplet,E5
1183,Left,1,56,110,217.0,0.322917,Triplet,G#3
1186,Right,0,80,110,217.333333,0.322917,Triplet,G#5
1185,Left,1,52,110,217.333333,0.322917,Triplet,E3
1187,Left,1,47,110,217.666667,0.322917,Triplet,B2
1188,Right,0,83,110,217.666667,0.322917,Triplet,B5
1189,Left,1,54,110,218.0,0.322917,Triplet,F#3
1190,Right,0,81,110,218.0,0.322917,Triplet,A5
1191,Right,0,78,110,218.333333,0.322917,Triplet,F#5
1192,Left,1,57,110,218.333333,0.322917,Triplet,A3
1194,Left,1,59,110,218.666667,0.322917,Triplet,B3
1193,Right,0,75,110,218.666667,0.322917,Triplet,D#5
1196,Right,0,87,110,219.0,0.322917,Triplet,D#6
1195,Left,1,57,110,219.0,0.322917,Triplet,A3
1197,Left,1,59,110,219.333333,0.322917,Triplet,B3
1198,Right,0,83,110,219.333333,0.322917,Triplet,B5
1199,Left,1,66,110,219.666667,0.322917,Triplet,F#4
1200,Right,0,78,110,219.666667,0.322917,Triplet,F#5
1202,Left,1,56,110,220.0,0.322917,Triplet,G#3
1201,Right,0,88,110,220.0,0.322917,Triplet,E6
1204,Right,0,83,110,220.333333,0.322917,Triplet,B5
1203,Left,1,59,110,220.333333,0.322917,Triplet,B3
1205,Left,1,64,110,220.666667,0.322917,Triplet,E4
1206,Right,0,80,110,220.666667,0.322917,Triplet,G#5
1208,Right,0,83,110,221.0,0.322917,Triplet,B5
1207,Left,1,52,110,221.0,0.322917,Triplet,E3
1209,Left,1,56,110,221.333333,0.322917,Triplet,G#3
1210,Right,0,80,110,221.333333,0.322917,Triplet,G#5
1212,Right,0,76,109,221.666667,0.322917,Triplet,E5
1211,Left,1,59,109,221.666667,0.322917,Triplet,B3
1213,Left,1,54,108,222.0,0.322917,Triplet,F#3
1214,Right,0,81,108,222.0,0.322917,Triplet,A5
1215,Left,1,57,107,222.333333,0.322917,Triplet,A3
1216,Right,0,78,107,222.333333,0.322917,Triplet,F#5
1217,Right,0,75,106,222.666667,0.322917,Triplet,D#5
1218,Left,1,59,106,222.666667,0.322917,Triplet,B3
1220,Left,1,57,105,223.0,0.322917,Triplet,A3
1219,Right,0,87,105,223.0,0.322917,Triplet,D#6
1221,Left,1,59,104,223.333333,0.322917,Triplet,B3
1222,Right,0,83,104,223.333333,0.322917,Triplet,B5
1224,Right,0,78,103,223.666667,0.322917,Triplet,F#5
1223,Left,1,66,103,223.666667,0.322917,Triplet,F#4
1226,Left,1,56,102,224.0,0.322917,Triplet,G#3
1225,Right,0,88,102,224.0,0.322917,Triplet,E6
1227,Right,0,83,101,224.333333,0.322917,Triplet,B5
1228,Left,1,59,101,224.333333,0.322917,Triplet,B3
1229,Left,1,64,100,224.666667,0.322917,Triplet,E4
1230,Right,0,80,100,224.666667,0.322917,Triplet,G#5
1232,Left,1,52,99,225.0,0.322917,Triplet,E3
1231,Right,0,83,99,225.0,0.322917,Triplet,B5
1234,Right,0,80,98,225.333333,0.322917,Triplet,G#5
1233,Left,1,56,98,225.333333,0.322917,Triplet,G#3
1235,Right,0,76,97,225.666667,0.322917,Triplet,E5
1236,Left,1,59,97,225.666667,0.322917,Triplet,B3
1237,Right,0,81,96,226.0,0.322917,Triplet,A5
1238,Left,1,54,96,226.0,0.322917,Triplet,F#3
1240,Left,1,57,95,226.333333,0.322917,Triplet,A3
1239,Right,0,78,95,226.333333,0.322917,Triplet,F#5
1241,Right,0,75,94,226.666667,0.322917,Triplet,D#5
1242,Left,1,59,94,226.666667,0.322917,Triplet,B3
1243,Left,1,57,93,227.0,0.322917,Triplet,A3
1244,Right,0,87,93,227.0,0.322917,Triplet,D#6
1246,Left,1,59,92,227.333333,0.322917,Triplet,B3
1245,Right,0,83,92,227.333333,0.322917,Triplet,B5
1247,Left,1,66,91,227.666667,0.322917,Triplet,F#4
1248,Right,0,78,91,227.666667,0.322917,Triplet,F#5
1249,Left,1,56,90,228.0,0.239583,Sixteenth,G#3
1250,Right,0,88,90,228.0,0.239583,Sixteenth,E6
1252,Left,1,59,90,228.25,0.239583,Sixteenth,B3
1251,Right,0,83,90,228.25,0.239583,Sixteenth,B5
1253,Left,1,52,91,228.5,0.239583,Sixteenth,E3
1254,Right,0,80,91,228.5,0.239583,Sixteenth,G#5
1255,Left,1,59,92,228.75,0.239583,Sixteenth,B3
1256,Right,0,76,92,228.75,0.239583,Sixteenth,E5
1257,Right,0,81,92,229.0,0.239583,Sixteenth,A5
1258,Left,1,54,92,229.0,0.239583,Sixteenth,F#3
1259,Left,1,59,93,229.25,0.239583,Sixteenth,B3
1260,Right,0,78,93,229.25,0.239583,Sixteenth,F#5
1261,Right,0,87,94,229.5,0.239583,Sixteenth,D#6
1262,Left,1,57,94,229.5,0.239583,Sixteenth,A3
1264,Left,1,59,94,229.75,0.239583,Sixteenth,B3
1263,Right,0,83,94,229.75,0.239583,Sixteenth,B5
1266,Left,1,56,95,230.0,0.239583,Sixteenth,G#3
1265,Right,0,88,95,230.0,0.239583,Sixteenth,E6
1268,Left,1,59,96,230.25,0.239583,Sixteenth,B3
1267,Right,0,83,96,230.25,0.239583,Sixteenth,B5
1270,Left,1,52,96,230.5,0.239583,Sixteenth,E3
1269,Right,0,80,96,230.5,0.239583,Sixteenth,G#5
1271,Left,1,59,97,230.75,0.239583,Sixteenth,B3
1272,Right,0,76,97,230.75,0.239583,Sixteenth,E5
1273,Right,0,81,98,231.0,0.239583,Sixteenth,A5
1274,Left,1,54,98,231.0,0.239583,Sixteenth,F#3
1275,Left,1,59,98,231.25,0.239583,Sixteenth,B3
1276,Right,0,78,98,231.25,0.239583,Sixteenth,F#5
1278,Right,0,87,99,231.5,0.239583,Sixteenth,D#6
1277,Left,1,57,99,231.5,0.239583,Sixteenth,A3
1280,Right,0,83,100,231.75,0.239583,Sixteenth,B5
1279,Left,1,59,100,231.75,0.239583,Sixteenth,B3
1282,Right,0,88,100,232.0,0.239583,Sixteenth,E6
1281,Left,1,56,100,232.0,0.239583,Sixteenth,G#3
1284,Right,0,83,101,232.25,0.239583,Sixteenth,B5
1283,Left,1,59,101,232.25,0.239583,Sixteenth,B3
1285,Right,0,87,102,232.5,0.239583,Sixteenth,D#6
1286,Left,1,57,102,232.5,0.239583,Sixteenth,A3
1287,Left,1,59,102,232.75,0.239583,Sixteenth,B3
1288,Right,0,83,102,232.75,0.239583,Sixteenth,B5
1290,Right,0,88,103,233.0,0.239583,Sixteenth,E6
1289,Left,1,56,103,233.0,0.239583,Sixteenth,G#3
1291,Right,0,83,104,233.25,0.239583,Sixteenth,B5
1292,Left,1,59,104,233.25,0.239583,Sixteenth,B3
1294,Right,0,87,104,233.5,0.239583,Sixteenth,D#6
1293,Left,1,57,104,233.5,0.239583,Sixteenth,A3
1296,Left,1,59,105,233.75,0.239583,Sixteenth,B3
1295,Right,0,83,105,233.75,0.239583,Sixteenth,B5
1298,Left,1,56,106,234.0,0.239583,Sixteenth,G#3
1297,Right,0,88,106,234.0,0.239583,Sixteenth,E6
1300,Left,1,59,106,234.25,0.239583,Sixteenth,B3
1299,Right,0,83,106,234.25,0.239583,Sixteenth,B5
1302,Right,0,87,107,234.5,0.239583,Sixteenth,D#6
1301,Left,1,57,107,234.5,0.239583,Sixteenth,A3
1303,Left,1,59,108,234.75,0.239583,Sixteenth,B3
1304,Right,0,83,108,234.75,0.239583,Sixteenth,B5
1306,Right,0,88,108,235.0,0.239583,Sixteenth,E6
1305,Left,1,56,108,235.0,0.239583,Sixteenth,G#3
1307,Right,0,83,109,235.25,0.239583,Sixteenth,B5
1308,Left,1,59,109,235.25,0.239583,Sixteenth,B3
1310,Left,1,57,110,235.5,0.239583,Sixteenth,A3
1309,Right,0,87,110,235.5,0.239583,Sixteenth,D#6
1311,Left,1,59,110,235.75,0.239583,Sixteenth,B3
1312,Right,0,83,110,235.75,0.239583,Sixteenth,B5
1313,Right,0,88,110,236.0,0.239583,Sixteenth,E6
1314,Left,1,56,110,236.0,0.239583,Sixteenth,G#3
1316,Right,0,83,110,236.25,0.239583,Sixteenth,B5
1315,Left,1,59,110,236.25,0.239583,Sixteenth,B3
1317,Left,1,44,110,236.5,0.239583,Sixteenth,G#2
1318,Right,0,86,110,236.5,0.239583,Sixteenth,D6
1319,Left,1,52,110,236.75,0.239583,Sixteenth,E3
1320,Right,0,83,110,236.75,0.239583,Sixteenth,B5
1321,Left,1,44,110,237.0,0.239583,Sixteenth,G#2
1322,Right,0,86,110,237.0,0.239583,Sixteenth,D6
1323,Left,1,52,110,237.25,0.239583,Sixteenth,E3
1324,Right,0,83,110,237.25,0.239583,Sixteenth,B5
1325,Left,1,44,110,237.5,0.239583,Sixteenth,G#2
1326,Right,0,86,110,237.5,0.239583,Sixteenth,D6
1328,Left,1,52,110,237.75,0.239583,Sixteenth,E3
1327,Right,0,83,110,237.75,0.239583,Sixteenth,B5
1329,Right,0,86,110,238.0,0.239583,Sixteenth,D6
1330,Left,1,44,110,238.0,0.239583,Sixteenth,G#2
1331,Right,0,83,110,238.25,0.239583,Sixteenth,B5
1332,Left,1,52,110,238.25,0.239583,Sixteenth,E3
1334,Left,1,44,110,238.5,0.239583,Sixteenth,G#2
1333,Right,0,86,110,238.5,0.239583,Sixteenth,D6
1335,Right,0,83,110,238.75,0.239583,Sixteenth,B5
1336,Left,1,52,110,238.75,0.239583,Sixteenth,E3
1338,Left,1,44,110,239.0,0.239583,Sixteenth,G#2
1337,Right,0,86,110,239.0,0.239583,Sixteenth,D6
1339,Left,1,52,110,239.25,0.239583,Sixteenth,E3
1340,Right,0,83,110,239.25,0.239583,Sixteenth,B5
1341,Right,0,86,110,239.5,0.239583,Sixteenth,D6
1342,Left,1,44,110,239.5,0.239583,Sixteenth,G#2
1344,Left,1,52,110,239.75,0.239583,Sixteenth,E3
1343,Right,0,83,110,239.75,0.239583,Sixteenth,B5
1346,Left,1,44,110,240.0,0.239583,Sixteenth,G#2
1345,Right,0,86,110,240.0,0.489583,Eighth,D6
1347,Left,1,52,110,240.25,0.239583,Sixteenth,E3
1348,Left,1,44,110,240.5,0.239583,Sixteenth,G#2
1349,Right,0,85,110,240.5,0.239583,Sixteenth,C#6
1350,Right,0,83,110,240.75,0.239583,Sixteenth,B5
1351,Left,1,52,110,240.75,0.239583,Sixteenth,E3
1352,Left,1,44,110,241.0,0.239583,Sixteenth,G#2
1353,Right,0,81,110,241.0,0.239583,Sixteenth,A5
1354,Left,1,52,110,241.25,0.239583,Sixteenth,E3
1355,Right,0,80,110,241.25,0.239583,Sixteenth,G#5
1357,Right,0,78,110,241.5,0.239583,Sixteenth,F#5
1356,Left,1,44,110,241.5,0.239583,Sixteenth,G#2
1358,Right,0,76,110,241.75,0.239583,Sixteenth,E5
1359,Left,1,52,110,241.75,0.239583,Sixteenth,E3
1360,Right,0,74,110,242.0,0.239583,Sixteenth,D5
1361,Left,1,44,110,242.0,0.239583,Sixteenth,G#2
1363,Left,1,52,110,242.25,0.239583,Sixteenth,E3
1362,Right,0,73,110,242.25,0.239583,Sixteenth,C#5
1364,Right,0,71,110,242.5,0.239583,Sixteenth,B4
1365,Left,1,44,110,242.5,0.239583,Sixteenth,G#2
1366,Left,1,52,110,242.75,0.239583,Sixteenth,E3
1367,Right,0,69,110,242.75,0.239583,Sixteenth,A4
1368,Left,1,44,110,243.0,0.239583,Sixteenth,G#2
1369,Right,0,68,110,243.0,0.239583,Sixteenth,G#4
1370,Right,0,66,110,243.25,0.239583,Sixteenth,F#4
1371,Left,1,52,110,243.25,0.239583,Sixteenth,E3
1372,Left,1,44,110,243.5,0.239583,Sixteenth,G#2
1373,Right,0,64,110,243.5,0.239583,Sixteenth,E4
1374,Right,0,62,110,243.75,0.239583,Sixteenth,D4
1375,Left,1,52,110,243.75,0.239583,Sixteenth,E3
1376,Left,1,52,120,244.0,0.489583,Eighth,E3_C#3_A2
1379,Right,0,61,120,244.0,0.239583,Sixteenth,C#4
1380,Right,0,63,120,244.25,0.239583,Sixteenth,D#4
1384,Right,0,64,120,244.5,0.239583,Sixteenth,E4
1381,Left,1,52,120,244.5,0.489583,Eighth,E3_C#3_A2
1385,Right,0,63,120,244.75,0.239583,Sixteenth,D#4
1386,Right,0,64,120,245.0,0.239583,Sixteenth,E4
1387,Right,0,68,120,245.25,0.239583,Sixteenth,G#4
1390,Right,0,69,120,245.5,0.239583,Sixteenth,A4
1388,Left,1,49,120,245.5,0.489583,Eighth,E3_C#3_A2
1392,Right,0,68,120,245.75,0.239583,Sixteenth,G#4
1396,Right,0,69,120,246.0,0.239583,Sixteenth,A4
1393,Left,1,49,120,246.0,0.489583,Eighth,E3_C#3_A2
1397,Right,0,72,120,246.25,0.239583,Sixteenth,C5
1398,Left,1,49,120,246.5,0.489583,Eighth,E3_C#3_A2
1401,Right,0,73,120,246.5,0.239583,Sixteenth,C#5
1402,Right,0,72,120,246.75,0.239583,Sixteenth,C5
1403,Right,0,73,120,247.0,0.239583,Sixteenth,C#5
1404,Right,0,75,120,247.25,0.239583,Sixteenth,D#5
1405,Left,1,49,120,247.5,0.489583,Eighth,E3_C#3_A2
1406,Right,0,76,120,247.5,0.239583,Sixteenth,E5
1409,Right,0,75,120,247.75,0.239583,Sixteenth,D#5
1410,Right,0,76,120,248.0,0.239583,Sixteenth,E5
1411,Left,1,49,120,248.0,0.489583,Eighth,E3_C#3_A2
1414,Right,0,80,120,248.25,0.239583,Sixteenth,G#5
1415,Right,0,81,120,248.5,0.239583,Sixteenth,A5
1416,Left,1,45,120,248.5,0.489583,Eighth,E3_C#3_A2
1419,Right,0,80,120,248.75,0.239583,Sixteenth,G#5
1420,Right,0,81,120,249.0,0.239583,Sixteenth,A5
1421,Right,0,84,120,249.25,0.239583,Sixteenth,C6
1423,Left,1,52,120,249.5,0.489583,Eighth,E3_C#3_A2
1422,Right,0,85,120,249.5,0.239583,Sixteenth,C#6
1426,Right,0,84,120,249.75,0.239583,Sixteenth,C6
1428,Left,1,52,120,250.0,0.489583,Eighth,E3_C#3_A2
1427,Right,0,85,120,250.0,0.239583,Sixteenth,C#6
1431,Right,0,87,120,250.25,0.239583,Sixteenth,D#6
1432,Left,1,45,120,250.5,0.489583,Eighth,E3_C#3_A2
1434,Right,0,88,120,250.5,0.239583,Sixteenth,E6
1436,Right,0,87,120,250.75,0.239583,Sixteenth,D#6
1437,Right,0,88,120,251.0,0.239583,Sixteenth,E6
1438,Right,0,87,120,251.25,0.239583,Sixteenth,D#6
1440,Left,1,52,120,251.5,0.489583,Eighth,E3_C#3_A2
1439,Right,0,85,120,251.5,0.239583,Sixteenth,C#6
1443,Right,0,84,120,251.75,0.239583,Sixteenth,C6
1444,Left,1,54,120,252.0,0.489583,Eighth,F#3_E3_C#3_A#2
1448,Right,0,85,120,252.0,0.239583,Sixteenth,C#6
1449,Right,0,84,120,252.25,0.239583,Sixteenth,C6
1454,Right,0,85,120,252.5,0.239583,Sixteenth,C#6
1450,Left,1,54,120,252.5,0.489583,Eighth,F#3_E3_C#3_A#2
1455,Right,0,87,120,252.75,0.239583,Sixteenth,D#6
1456,Right,0,88,120,253.0,0.239583,Sixteenth,E6
1457,Right,0,87,120,253.25,0.239583,Sixteenth,D#6
1462,Right,0,85,120,253.5,0.239583,Sixteenth,C#6
1458,Left,1,46,120,253.5,0.489583,Eighth,F#3_E3_C#3_A#2
1463,Right,0,84,120,253.75,0.239583,Sixteenth,C6
1464,Left,1,54,120,254.0,0.489583,Eighth,F#3_E3_C#3_A#2
1468,Right,0,85,120,254.0,0.239583,Sixteenth,C#6
1469,Right,0,84,120,254.25,0.239583,Sixteenth,C6
1470,Right,0,85,120,254.5,0.239583,Sixteenth,C#6
1471,Left,1,46,120,254.5,0.489583,Eighth,F#3_E3_C#3_A#2
1475,Right,0,87,120,254.75,0.239583,Sixteenth,D#6
1476,Right,0,88,120,255.0,0.239583,Sixteenth,E6
1477,Right,0,87,120,255.25,0.239583,Sixteenth,D#6
1481,Right,0,85,120,255.5,0.239583,Sixteenth,C#6
1478,Left,1,52,120,255.5,0.489583,Eighth,F#3_E3_C#3_A#2
1483,Right,0,84,120,255.75,0.239583,Sixteenth,C6
1484,Left,1,54,120,256.0,0.489583,Eighth,F#3_E3_C#3_A#2
1487,Right,0,85,120,256.0,0.239583,Sixteenth,C#6
1489,Right,0,84,120,256.25,0.239583,Sixteenth,C6
1490,Left,1,52,120,256.5,0.489583,Eighth,F#3_E3_C#3_A#2
1494,Right,0,85,120,256.5,0.239583,Sixteenth,C#6
1495,Right,0,87,120,256.75,0.239583,Sixteenth,D#6
1496,Right,0,88,120,257.0,0.239583,Sixteenth,E6
1497,Right,0,87,120,257.25,0.239583,Sixteenth,D#6
1498,Left,1,46,120,257.5,0.489583,Eighth,F#3_E3_C#3_A#2
1502,Right,0,85,120,257.5,0.239583,Sixteenth,C#6
1503,Right,0,84,120,257.75,0.239583,Sixteenth,C6
1504,Right,0,85,120,258.0,0.239583,Sixteenth,C#6
1505,Left,1,54,120,258.0,0.489583,Eighth,F#3_E3_C#3_A#2
1509,Right,0,84,120,258.25,0.239583,Sixteenth,C6
1510,Right,0,85,120,258.5,0.239583,Sixteenth,C#6
1511,Left,1,49,120,258.5,0.489583,Eighth,F#3_E3_C#3_A#2
1515,Right,0,87,120,258.75,0.239583,Sixteenth,D#6
1516,Right,0,88,120,259.0,0.239583,Sixteenth,E6
1517,Right,0,87,120,259.25,0.239583,Sixteenth,D#6
1519,Left,1,54,120,259.5,0.489583,Eighth,F#3_E3_C#3_A#2
1518,Right,0,88,120,259.5,0.239583,Sixteenth,E6
1523,Right,0,84,120,259.75,0.239583,Sixteenth,C6
1525,Right,0,71,120,260.0,0.489583,Eighth,B5_B4
1524,Left,1,47,120,260.0,0.239583,Sixteenth,B2
1527,Left,1,52,120,260.25,0.239583,Sixteenth,E3
1528,Left,1,56,120,260.5,0.239583,Sixteenth,G#3
1529,Right,0,71,120,260.5,0.489583,Eighth,B5_B4
1531,Left,1,59,120,260.75,0.239583,Sixteenth,B3
1534,Left,1,47,120,261.0,0.239583,Sixteenth,B2
1532,Right,0,68,120,261.0,0.489583,Eighth,G#5_G#4
1535,Left,1,52,120,261.25,0.239583,Sixteenth,E3
1536,Right,0,76,120,261.5,0.489583,Eighth,E5_E4
1537,Left,1,56,120,261.5,0.239583,Sixteenth,G#3
1539,Left,1,59,120,261.75,0.239583,Sixteenth,B3
1540,Right,0,76,120,262.0,0.489583,Eighth,E6_E5
1542,Left,1,47,120,262.0,0.239583,Sixteenth,B2
1543,Left,1,52,120,262.25,0.239583,Sixteenth,E3
1544,Right,0,88,120,262.5,0.489583,Eighth,E6_E5
1546,Left,1,56,120,262.5,0.239583,Sixteenth,G#3
1547,Left,1,59,120,262.75,0.239583,Sixteenth,B3
1548,Left,1,47,120,263.0,0.239583,Sixteenth,B2
1549,Right,0,83,120,263.0,0.489583,Eighth,B5_B4
1551,Left,1,52,120,263.25,0.239583,Sixteenth,E3
1552,Left,1,56,120,263.5,0.239583,Sixteenth,G#3
1553,Right,0,80,120,263.5,0.489583,Eighth,G#5_G#4
1555,Left,1,59,120,263.75,0.239583,Sixteenth,B3
1556,Right,0,83,120,264.0,0.489583,Eighth,B5_B4
1558,Left,1,47,120,264.0,0.239583,Sixteenth,B2
1559,Left,1,52,120,264.25,0.239583,Sixteenth,E3
1561,Left,1,56,120,264.5,0.239583,Sixteenth,G#3
1560,Right,0,71,120,264.5,0.489583,Eighth,B5_B4
1563,Left,1,59,120,264.75,0.239583,Sixteenth,B3
1564,Left,1,47,120,265.0,0.239583,Sixteenth,B2
1565,Right,0,68,120,265.0,0.489583,Eighth,G#5_G#4
1567,Left,1,52,120,265.25,0.239583,Sixteenth,E3
1568,Right,0,64,120,265.5,0.489583,Eighth,E5_E4
1569,Left,1,56,120,265.5,0.239583,Sixteenth,G#3
1571,Left,1,59,120,265.75,0.239583,Sixteenth,B3
1572,Right,0,88,120,266.0,0.489583,Eighth,E6_E5
1574,Left,1,56,120,266.0,0.489583,Eighth,G#3
1576,Right,0,88,120,266.5,0.489583,Eighth,E6_E5
1575,Left,1,56,120,266.5,0.489583,Eighth,G#3
1578,Left,1,52,120,267.0,0.489583,Eighth,E3
1579,Right,0,71,120,267.0,0.489583,Eighth,B5_B4
1581,Right,0,80,120,267.5,0.489583,Eighth,G#5_G#4
1583,Left,1,47,120,267.5,0.489583,Eighth,B2
1584,Left,1,59,120,268.0,0.489583,Eighth,B3
1585,Right,0,80,80,268.25,0.239583,Sixteenth,G#5
1586,Left,1,56,80,268.5,0.489583,Eighth,G#3
1587,Right,0,83,80,268.5,0.239583,Sixteenth,B5
1588,Right,0,80,80,268.75,0.239583,Sixteenth,G#5
1589,Left,1,64,80,269.0,0.489583,Eighth,E4
1590,Right,0,83,80,269.0,0.239583,Sixteenth,B5
1591,Right,0,80,80,269.25,0.239583,Sixteenth,G#5
1592,Left,1,59,80,269.5,0.489583,Eighth,B3
1593,Right,0,83,80,269.5,0.239583,Sixteenth,B5
1594,Right,0,80,80,269.75,0.239583,Sixteenth,G#5
1596,Left,1,68,80,270.0,0.489583,Eighth,G#4
1595,Right,0,83,80,270.0,0.239583,Sixteenth,B5
1597,Right,0,80,80,270.25,0.239583,Sixteenth,G#5
1599,Right,0,83,80,270.5,0.239583,Sixteenth,B5
1598,Left,1,64,80,270.5,0.489583,Eighth,E4
1600,Right,0,80,80,270.75,0.239583,Sixteenth,G#5
1602,Right,0,83,80,271.0,0.239583,Sixteenth,B5
1601,Left,1,71,80,271.0,0.489583,Eighth,B4
1603,Right,0,80,80,271.25,0.239583,Sixteenth,G#5
1605,Right,0,83,80,271.5,0.239583,Sixteenth,B5
1604,Left,1,68,80,271.5,0.489583,Eighth,G#4
1606,Right,0,80,80,271.75,0.239583,Sixteenth,G#5
1608,Right,0,83,80,272.0,0.239583,Sixteenth,B5
1607,Left,1,76,80,272.0,0.489583,Eighth,E5
1609,Right,0,80,80,272.25,0.239583,Sixteenth,G#5
1610,Left,1,71,80,272.5,0.489583,Eighth,B4
1611,Right,0,83,80,272.5,0.239583,Sixteenth,B5
1612,Right,0,80,80,272.75,0.239583,Sixteenth,G#5
1613,Left,1,76,80,273.0,0.489583,Eighth,E5
1614,Right,0,83,80,273.0,0.239583,Sixteenth,B5
1615,Right,0,80,80,273.25,0.239583,Sixteenth,G#5
1616,Left,1,71,80,273.5,0.489583,Eighth,B4
1617,Right,0,83,80,273.5,0.239583,Sixteenth,B5
1618,Right,0,80,80,273.75,0.239583,Sixteenth,G#5
1620,Right,0,83,80,274.0,0.239583,Sixteenth,B5
1619,Left,1,76,80,274.0,0.489583,Eighth,E5
1621,Right,0,80,80,274.25,0.239583,Sixteenth,G#5
1623,Left,1,71,80,274.5,0.489583,Eighth,B4
1622,Right,0,83,80,274.5,0.239583,Sixteenth,B5
1624,Right,0,80,80,274.75,0.239583,Sixteenth,G#5
1626,Left,1,76,80,275.0,0.489583,Eighth,E5
1625,Right,0,83,80,275.0,0.239583,Sixteenth,B5
1627,Right,0,80,80,275.25,0.239583,Sixteenth,G#5
1628,Left,1,71,80,275.5,0.489583,Eighth,B4
1629,Right,0,83,80,275.5,0.239583,Sixteenth,B5
1630,Right,0,80,80,275.75,0.239583,Sixteenth,G#5
1631,Left,1,75,80,276.0,0.489583,Eighth,D#5
1632,Right,0,81,80,276.25,0.239583,Sixteenth,A5
1634,Left,1,71,79,276.5,0.489583,Eighth,B4
1633,Right,0,83,79,276.5,0.239583,Sixteenth,B5
1635,Right,0,81,79,276.75,0.239583,Sixteenth,A5
1636,Right,0,84,78,277.0,0.239583,Sixteenth,C6
1637,Left,1,75,78,277.0,0.489583,Eighth,D#5
1638,Right,0,81,77,277.25,0.239583,Sixteenth,A5
1640,Left,1,71,77,277.5,0.489583,Eighth,B4
1639,Right,0,83,77,277.5,0.239583,Sixteenth,B5
1641,Right,0,81,76,277.75,0.239583,Sixteenth,A5
1643,Left,1,75,75,278.0,0.489583,Eighth,D#5
1642,Right,0,84,75,278.0,0.239583,Sixteenth,C6
1644,Right,0,81,75,278.25,0.239583,Sixteenth,A5
1645,Right,0,83,74,278.5,0.239583,Sixteenth,B5
1646,Left,1,71,74,278.5,0.489583,Eighth,B4
1647,Right,0,81,73,278.75,0.239583,Sixteenth,A5
1648,Right,0,84,73,279.0,0.239583,Sixteenth,C6
1649,Left,1,75,73,279.0,0.489583,Eighth,D#5
1650,Right,0,81,72,279.25,0.239583,Sixteenth,A5
1651,Right,0,83,71,279.5,0.239583,Sixteenth,B5
1652,Left,1,71,71,279.5,0.489583,Eighth,B4
1653,Right,0,81,71,279.75,0.239583,Sixteenth,A5
1654,Right,0,84,70,280.0,0.239583,Sixteenth,C6
1655,Left,1,75,70,280.0,0.489583,Eighth,D#5
1656,Right,0,81,70,280.25,0.239583,Sixteenth,A5
1658,Left,1,71,70,280.5,0.489583,Eighth,B4
1657,Right,0,83,70,280.5,0.239583,Sixteenth,B5
1659,Right,0,81,70,280.75,0.239583,Sixteenth,A5
1660,Right,0,84,70,281.0,0.239583,Sixteenth,C6
1661,Left,1,75,70,281.0,0.489583,Eighth,D#5
1662,Right,0,81,70,281.25,0.239583,Sixteenth,A5
1663,Left,1,71,70,281.5,0.489583,Eighth,B4
1664,Right,0,83,70,281.5,0.239583,Sixteenth,B5
1665,Right,0,81,70,281.75,0.239583,Sixteenth,A5
1667,Right,0,84,70,282.0,0.239583,Sixteenth,C6
1666,Left,1,75,70,282.0,0.489583,Eighth,D#5
1668,Right,0,81,70,282.25,0.239583,Sixteenth,A5
1669,Right,0,83,70,282.5,0.239583,Sixteenth,B5
1670,Left,1,71,70,282.5,0.489583,Eighth,B4
1671,Right,0,81,70,282.75,0.239583,Sixteenth,A5
1672,Right,0,84,70,283.0,0.239583,Sixteenth,C6
1673,Left,1,75,70,283.0,0.489583,Eighth,D#5
1674,Right,0,81,70,283.25,0.239583,Sixteenth,A5
1676,Left,1,71,70,283.5,0.489583,Eighth,B4
1675,Right,0,83,70,283.5,0.239583,Sixteenth,B5
1677,Right,0,81,70,283.75,0.239583,Sixteenth,A5
1679,Left,1,75,70,284.0,0.208333,Sixteenth,D#5
1678,Right,0,85,70,284.0,0.239583,Sixteenth,C#6
1680,Left,1,76,70,284.125,0.229167,Sixteenth,E5
1682,Left,1,75,71,284.25,0.208333,Sixteenth,D#5
1681,Right,0,81,71,284.25,0.239583,Sixteenth,A5
1683,Left,1,76,71,284.375,0.21875,Sixteenth,E5
1685,Right,0,83,72,284.5,0.239583,Sixteenth,B5
1684,Left,1,75,72,284.5,0.208333,Sixteenth,D#5
1686,Left,1,76,73,284.625,0.229167,Sixteenth,E5
1687,Left,1,75,73,284.75,0.208333,Sixteenth,D#5
1688,Right,0,81,73,284.75,0.239583,Sixteenth,A5
1689,Left,1,76,74,284.875,0.21875,Sixteenth,E5
1690,Left,1,75,75,285.0,0.208333,Sixteenth,D#5
1691,Right,0,85,75,285.0,0.239583,Sixteenth,C#6
1692,Left,1,76,75,285.125,0.229167,Sixteenth,E5
1693,Right,0,81,76,285.25,0.239583,Sixteenth,A5
1694,Left,1,75,76,285.25,0.208333,Sixteenth,D#5
1695,Left,1,76,77,285.375,0.21875,Sixteenth,E5
1697,Right,0,83,77,285.5,0.239583,Sixteenth,B5
1696,Left,1,75,77,285.5,0.208333,Sixteenth,D#5
1698,Left,1,76,78,285.625,0.229167,Sixteenth,E5
1699,Right,0,81,78,285.75,0.239583,Sixteenth,A5
1700,Left,1,75,78,285.75,0.208333,Sixteenth,D#5
1701,Left,1,76,79,285.875,0.21875,Sixteenth,E5
1703,Right,0,85,80,286.0,0.239583,Sixteenth,C#6
1702,Left,1,75,80,286.0,0.208333,Sixteenth,D#5
1704,Left,1,76,80,286.125,0.229167,Sixteenth,E5
1706,Left,1,75,81,286.25,0.208333,Sixteenth,D#5
1705,Right,0,81,81,286.25,0.239583,Sixteenth,A5
1707,Left,1,76,82,286.375,0.21875,Sixteenth,E5
1709,Left,1,75,82,286.5,0.208333,Sixteenth,D#5
1708,Right,0,83,82,286.5,0.239583,Sixteenth,B5
1710,Left,1,76,83,286.625,0.229167,Sixteenth,E5
1712,Right,0,81,84,286.75,0.239583,Sixteenth,A5
1711,Left,1,75,84,286.75,0.208333,Sixteenth,D#5
1713,Left,1,76,84,286.875,0.21875,Sixteenth,E5
1714,Right,0,85,85,287.0,0.239583,Sixteenth,C#6
1715,Left,1,75,85,287.0,0.208333,Sixteenth,D#5
1716,Left,1,76,85,287.125,0.229167,Sixteenth,E5
1717,Left,1,75,86,287.25,0.208333,Sixteenth,D#5
1718,Right,0,81,86,287.25,0.239583,Sixteenth,A5
1719,Left,1,76,87,287.375,0.21875,Sixteenth,E5
1721,Right,0,83,87,287.5,0.239583,Sixteenth,B5
1720,Left,1,75,87,287.5,0.208333,Sixteenth,D#5
1722,Left,1,76,88,287.625,0.229167,Sixteenth,E5
1724,Left,1,75,89,287.75,0.208333,Sixteenth,D#5
1723,Right,0,81,89,287.75,0.239583,Sixteenth,A5
1725,Left,1,76,89,287.875,0.21875,Sixteenth,E5
1727,Left,1,75,90,288.0,0.208333,Sixteenth,D#5
1726,Right,0,90,90,288.0,0.239583,Sixteenth,F#6
1728,Left,1,76,91,288.125,0.229167,Sixteenth,E5
1730,Right,0,83,91,288.25,0.239583,Sixteenth,B5_A5
1729,Left,1,75,91,288.25,0.208333,Sixteenth,D#5
1732,Left,1,76,92,288.375,0.21875,Sixteenth,E5
1734,Left,1,75,93,288.5,0.208333,Sixteenth,D#5
1733,Right,0,90,93,288.5,0.239583,Sixteenth,F#6
1735,Left,1,76,93,288.625,0.229167,Sixteenth,E5
1736,Right,0,83,94,288.75,0.239583,Sixteenth,B5_A5
1738,Left,1,75,94,288.75,0.208333,Sixteenth,D#5
1739,Left,1,76,94,288.875,0.21875,Sixteenth,E5
1741,Right,0,90,95,289.0,0.239583,Sixteenth,F#6
1740,Left,1,75,95,289.0,0.208333,Sixteenth,D#5
1742,Left,1,76,96,289.125,0.229167,Sixteenth,E5
1745,Left,1,75,96,289.25,0.208333,Sixteenth,D#5
1743,Right,0,83,96,289.25,0.239583,Sixteenth,B5_A5
1746,Left,1,76,97,289.375,0.21875,Sixteenth,E5
1747,Right,0,90,98,289.5,0.239583,Sixteenth,F#6
1748,Left,1,75,98,289.5,0.208333,Sixteenth,D#5
1749,Left,1,76,98,289.625,0.229167,Sixteenth,E5
1751,Right,0,83,99,289.75,0.239583,Sixteenth,B5_A5
1750,Left,1,75,99,289.75,0.208333,Sixteenth,D#5
1753,Left,1,76,100,289.875,0.21875,Sixteenth,E5
1754,Left,1,75,100,290.0,0.208333,Sixteenth,D#5
1755,Right,0,90,100,290.0,0.239583,Sixteenth,F#6
1756,Left,1,76,101,290.125,0.229167,Sixteenth,E5
1757,Right,0,83,101,290.25,0.239583,Sixteenth,B5_A5
1758,Left,1,75,101,290.25,0.208333,Sixteenth,D#5
1760,Left,1,76,102,290.375,0.21875,Sixteenth,E5
1761,Right,0,90,103,290.5,0.239583,Sixteenth,F#6
1762,Left,1,75,103,290.5,0.208333,Sixteenth,D#5
1763,Left,1,76,103,290.625,0.229167,Sixteenth,E5
1764,Right,0,83,104,290.75,0.239583,Sixteenth,B5_A5
1766,Left,1,75,104,290.75,0.208333,Sixteenth,D#5
1767,Left,1,76,105,290.875,0.21875,Sixteenth,E5
1769,Left,1,75,105,291.0,0.208333,Sixteenth,D#5
1768,Right,0,90,105,291.0,0.239583,Sixteenth,F#6
1770,Left,1,76,106,291.125,0.229167,Sixteenth,E5
1773,Left,1,75,107,291.25,0.208333,Sixteenth,D#5
1771,Right,0,83,107,291.25,0.239583,Sixteenth,B5_A5
1774,Left,1,76,107,291.375,0.21875,Sixteenth,E5
1776,Left,1,75,108,291.5,0.208333,Sixteenth,D#5
1775,Right,0,90,108,291.5,0.239583,Sixteenth,F#6
1777,Left,1,76,109,291.625,0.229167,Sixteenth,E5
1778,Right,0,83,109,291.75,0.239583,Sixteenth,B5_A5
1780,Left,1,73,109,291.75,0.208333,Sixteenth,C#5
1781,Left,1,75,110,291.875,0.114583,ThirtySecond,D#5
1785,Left,1,64,110,292.0,7.989583,Unknown,E5_E4
1782,Right,0,88,110,292.0,2.989583,DottedHalf,G#5_E6_B5
1787,Left,1,68,80,294.0,1.989583,Half,G#4_D5_B4
1790,Right,0,88,80,295.0,0.239583,Sixteenth,E6
1791,Right,0,86,80,295.25,0.239583,Sixteenth,D6
1792,Right,0,84,80,295.5,0.239583,Sixteenth,C6
1793,Right,0,83,80,295.75,0.239583,Sixteenth,B5
1794,Left,1,72,80,296.0,1.989583,Half,C5_A4
1796,Right,0,84,80,296.0,0.239583,Sixteenth,C6
1797,Right,0,83,80,296.25,0.239583,Sixteenth,B5
1798,Right,0,81,80,296.5,0.239583,Sixteenth,A5
1799,Right,0,80,80,296.75,0.239583,Sixteenth,G#5
1800,Right,0,81,80,297.0,0.239583,Sixteenth,A5
1801,Right,0,83,80,297.25,0.239583,Sixteenth,B5
1802,Right,0,84,80,297.5,0.239583,Sixteenth,C6
1803,Right,0,86,80,297.75,0.239583,Sixteenth,D6
1805,Left,1,74,80,298.0,1.989583,Half,G#4_D5_B4
1804,Right,0,88,80,298.0,0.239583,Sixteenth,E6
1808,Right,0,89,80,298.25,0.239583,Sixteenth,F6
1809,Right,0,88,80,298.5,0.239583,Sixteenth,E6
1810,Right,0,87,80,298.75,0.239583,Sixteenth,D#6
1811,Right,0,88,80,299.0,0.239583,Sixteenth,E6
1812,Right,0,86,80,299.25,0.239583,Sixteenth,D6
1813,Right,0,84,80,299.5,0.239583,Sixteenth,C6
1814,Right,0,83,80,299.75,0.239583,Sixteenth,B5
1816,Right,0,84,80,300.0,0.239583,Sixteenth,C6
1815,Left,1,69,80,300.0,0.989583,Quarter,C5_A4
1818,Right,0,86,80,300.25,0.239583,Sixteenth,D6
1819,Right,0,84,80,300.5,0.239583,Sixteenth,C6
1820,Right,0,83,80,300.75,0.239583,Sixteenth,B5
1821,Right,0,81,80,301.0,0.239583,Sixteenth,A5
1822,Right,0,80,80,301.25,0.239583,Sixteenth,G#5
1823,Right,0,81,80,301.5,0.239583,Sixteenth,A5
1824,Right,0,83,80,301.75,0.239583,Sixteenth,B5
1825,Left,1,60,80,302.0,1.989583,Half,F#4_C4_A4_A3
1827,Right,0,72,80,302.0,1.989583,Half,C6_C5
1831,Right,0,81,80,303.0,0.489583,Eighth,A5
1832,Right,0,78,80,303.5,0.489583,Eighth,F#5
1834,Left,1,67,80,304.0,1.989583,Half,G4_E4_B3
1833,Right,0,83,80,304.0,1.989583,Quarter,B5_B4
1838,Right,0,79,80,305.0,0.489583,Eighth,G5
1839,Right,0,76,80,305.5,0.489583,Eighth,E5
1841,Right,0,81,80,306.0,1.989583,Quarter,A5_A4
1840,Left,1,63,80,306.0,1.989583,Half,F#4_D#4_B3
1845,Right,0,78,80,307.0,0.489583,Eighth,F#5
1846,Right,0,75,80,307.5,0.489583,Eighth,D#5
1847,Right,0,76,100,308.0,2.989583,DottedHalf,E5
1848,Left,1,64,100,308.0,7.989583,Half,E4_E3
1850,Left,1,62,80,310.0,1.989583,Half,G#3_D4_B3
1853,Right,0,76,80,311.0,0.239583,Sixteenth,E5
1854,Right,0,74,80,311.25,0.239583,Sixteenth,D5
1855,Right,0,72,80,311.5,0.239583,Sixteenth,C5
1856,Right,0,71,80,311.75,0.239583,Sixteenth,B4
1859,Right,0,72,80,312.0,0.239583,Sixteenth,C5
1857,Left,1,57,80,312.0,1.989583,Half,C4_A3
1860,Right,0,71,80,312.25,0.239583,Sixteenth,B4
1861,Right,0,69,80,312.5,0.239583,Sixteenth,A4
1862,Right,0,68,80,312.75,0.239583,Sixteenth,G#4
1863,Right,0,69,80,313.0,0.239583,Sixteenth,A4
1864,Right,0,71,80,313.25,0.239583,Sixteenth,B4
1865,Right,0,72,80,313.5,0.239583,Sixteenth,C5
1866,Right,0,74,80,313.75,0.239583,Sixteenth,D5
1868,Left,1,56,80,314.0,1.989583,Half,G#3_D4_B3
1867,Right,0,76,80,314.0,0.239583,Sixteenth,E5
1871,Right,0,77,80,314.25,0.239583,Sixteenth,F5
1872,Right,0,76,80,314.5,0.239583,Sixteenth,E5
1873,Right,0,75,80,314.75,0.239583,Sixteenth,D#5
1874,Right,0,76,80,315.0,0.239583,Sixteenth,E5
1875,Right,0,74,80,315.25,0.239583,Sixteenth,D5
1876,Right,0,72,80,315.5,0.239583,Sixteenth,C5
1877,Right,0,71,80,315.75,0.239583,Sixteenth,B4
1880,Right,0,72,80,316.0,0.239583,Sixteenth,C5
1878,Left,1,57,80,316.0,0.989583,Quarter,C4_A3
1881,Right,0,74,80,316.25,0.239583,Sixteenth,D5
1882,Right,0,72,80,316.5,0.239583,Sixteenth,C5
1883,Right,0,71,80,316.75,0.239583,Sixteenth,B4
1884,Right,0,69,80,317.0,0.239583,Sixteenth,A4
1885,Right,0,68,80,317.25,0.239583,Sixteenth,G#4
1886,Right,0,69,80,317.5,0.239583,Sixteenth,A4
1887,Right,0,71,80,317.75,0.239583,Sixteenth,B4
1888,Right,0,60,80,318.0,1.989583,Half,C5_C4
1889,Left,1,57,80,318.0,1.989583,Half,F#3_C3_A3_A2
1894,Right,0,69,80,319.0,0.489583,Eighth,A4
1895,Right,0,66,80,319.5,0.489583,Eighth,F#4
1896,Left,1,52,80,320.0,1.989583,Half,G3_E3_B2
1897,Right,0,59,80,320.0,1.989583,Half,B4_B3
1901,Right,0,67,80,321.0,0.489583,Eighth,G4
1902,Right,0,64,80,321.5,0.489583,Eighth,E4
1903,Left,1,51,80,322.0,1.989583,Half,F#3_D#3_B2
1906,Right,0,69,80,322.0,1.989583,Quarter,A4_A3
1908,Right,0,66,80,323.0,0.489583,Eighth,F#4
1909,Right,0,63,80,323.5,0.489583,Eighth,D#4
1911,Right,0,64,80,324.0,0.989583,Quarter,E4
1910,Left,1,52,80,324.0,0.989583,Quarter,G3_E3
1913,Left,1,52,80,325.0,1.489583,DottedQuarter,G2_E3
1915,Right,0,76,80,325.0,0.489583,Eighth,E5
1916,Right,0,74,80,325.5,0.489583,Eighth,D5
1917,Left,1,45,80,326.0,1.989583,Half,A2
1918,Right,0,72,80,326.0,0.989583,Quarter,C5
1919,Left,1,53,80,326.5,0.489583,Eighth,F3
1920,Right,0,69,80,327.0,0.489583,Eighth,A4
1921,Left,1,55,80,327.0,0.489583,Eighth,G3
1922,Right,0,65,80,327.5,0.489583,Eighth,F4
1923,Left,1,57,80,327.5,0.489583,Eighth,A3
1927,Right,0,71,80,328.0,0.989583,Quarter,B4
1924,Left,1,55,80,328.0,3.989583,Half,G3_B3_B2
1928,Right,0,67,80,329.0,0.489583,Eighth,G4
1929,Right,0,64,80,329.5,0.489583,Eighth,E4
1930,Right,0,69,80,330.0,0.989583,Quarter,A4
1931,Left,1,57,80,330.0,1.989583,Half,F#3_A3
1933,Right,0,66,80,331.0,0.489583,Eighth,F#4
1934,Right,0,63,80,331.5,0.489583,Eighth,D#4
1938,Right,0,64,80,332.0,0.989583,Quarter,E4
1935,Left,1,55,80,332.0,0.989583,Quarter,G3_E3_C3
1939,Left,1,40,80,333.0,1.489583,Quarter,E2_C3
1941,Right,0,72,80,333.0,0.489583,Eighth,C5
1942,Right,0,71,80,333.5,0.489583,Eighth,B4
1943,Left,1,41,80,334.0,1.989583,Half,F2
1944,Right,0,69,80,334.0,0.989583,Quarter,A4
1945,Left,1,50,80,334.5,0.489583,Eighth,D3
1946,Right,0,65,80,335.0,0.489583,Eighth,F4
1947,Left,1,52,80,335.0,0.489583,Eighth,E3
1949,Left,1,53,80,335.5,0.489583,Eighth,F3
1948,Right,0,62,80,335.5,0.489583,Eighth,D4
1952,Right,0,67,80,336.0,0.989583,Quarter,G4
1950,Left,1,52,80,336.0,3.989583,Half,G3_G2_E3
1954,Right,0,64,80,337.0,0.489583,Eighth,E4
1955,Right,0,60,80,337.5,0.489583,Eighth,C4
1956,Left,1,53,80,338.0,1.989583,Half,F3_D3
1958,Right,0,65,80,338.0,0.989583,Quarter,F4
1959,Right,0,62,80,339.0,0.489583,Eighth,D4
1960,Right,0,59,80,339.5,0.489583,Eighth,B3
1963,Right,0,52,80,340.0,0.489583,Eighth,E3_C4
1961,Left,1,36,80,340.0,0.489583,Eighth,C3_C2
1965,Left,1,43,80,340.5,0.489583,Eighth,G2_C2
1967,Right,0,52,80,340.5,0.489583,Eighth,E3_C3
1971,Right,0,48,80,341.0,0.489583,Eighth,E3_C3
1969,Left,1,43,80,341.0,0.489583,Eighth,G2_C2
1973,Right,0,52,80,341.5,0.489583,Eighth,E3_C3
1974,Left,1,36,80,341.5,0.489583,Eighth,G2_C2
1977,Right,0,52,80,342.0,0.489583,Eighth,E3_C3
1979,Left,1,36,80,342.0,0.489583,Eighth,G2_C2
1982,Right,0,52,80,342.5,0.489583,Eighth,E3_C3
1981,Left,1,36,80,342.5,0.489583,Eighth,G2_C2
1985,Right,0,52,80,343.0,0.489583,Eighth,E3_C3
1986,Left,1,36,80,343.0,0.489583,Eighth,G2_C2
1991,Right,0,48,80,343.5,0.489583,Eighth,E3_C3
1989,Left,1,43,80,343.5,0.489583,Eighth,G2_C2
1994,Left,1,43,80,344.0,0.489583,Eighth,G2_C2
1993,Right,0,48,80,344.0,0.489583,Eighth,E3_C3
1999,Left,1,36,80,344.5,0.489583,Eighth,G2_C2
1997,Right,0,52,80,344.5,0.489583,Eighth,E3_C3
2003,Right,0,52,80,345.0,0.489583,Eighth,E3_C3
2001,Left,1,43,80,345.0,0.489583,Eighth,G2_C2
2005,Left,1,36,80,345.5,0.489583,Eighth,G2_C2
2006,Right,0,52,80,345.5,0.489583,Eighth,E3_C3
2010,Right,0,48,80,346.0,0.489583,Eighth,E3_C3
2009,Left,1,36,80,346.0,0.489583,Eighth,G2_C2
2015,Right,0,48,80,346.5,0.489583,Eighth,E3_C3
2013,Left,1,43,80,346.5,0.489583,Eighth,G2_C2
2019,Right,0,50,80,347.0,0.489583,Eighth,F#3_D3
2017,Left,1,36,80,347.0,0.489583,Eighth,C2_A2
2022,Right,0,50,80,347.5,0.489583,Eighth,F#3_D3
2021,Left,1,36,80,347.5,0.489583,Eighth,C2_A2
2025,Left,1,43,80,348.0,0.489583,Eighth,G2_B1
2026,Right,0,55,80,348.0,1.489583,DottedQuarter,G3_D3
2029,Left,1,43,80,348.5,0.489583,Eighth,G2_B1
2031,Left,1,43,80,349.0,0.489583,Eighth,G2_B1
2034,Left,1,43,80,349.5,0.489583,Eighth,G2_B1
2033,Right,0,59,80,349.5,0.239583,Sixteenth,B3
2036,Right,0,57,80,349.75,0.239583,Sixteenth,A3
2037,Left,1,35,80,350.0,0.489583,Eighth,G2_B1
2039,Right,0,55,80,350.0,0.489583,Eighth,G3
2040,Left,1,43,80,350.5,0.489583,Eighth,G2_B1
2042,Left,1,35,80,351.0,0.489583,Eighth,G2_B1
2044,Left,1,35,80,351.5,0.489583,Eighth,G2_B1
2047,Right,0,85,80,352.0,0.239583,Sixteenth,C#6
2046,Left,1,35,80,352.0,0.489583,Eighth,G2_B1
2049,Right,0,86,80,352.25,0.989583,Quarter,D6
2050,Left,1,35,80,352.5,0.489583,Eighth,G2_B1
2052,Left,1,35,80,353.0,0.489583,Eighth,G2_B1
2054,Right,0,84,80,353.25,0.239583,Sixteenth,C6
2055,Right,0,83,80,353.5,0.239583,Sixteenth,B5
2056,Left,1,43,80,353.5,0.489583,Eighth,G2_B1
2058,Right,0,81,80,353.75,0.239583,Sixteenth,A5
2059,Left,1,35,80,354.0,0.489583,Eighth,G2_B1
2061,Right,0,79,80,354.0,0.989583,Quarter,G5
2062,Left,1,35,80,354.5,0.489583,Eighth,G2_B1
2064,Left,1,43,80,355.0,0.489583,Eighth,G2_B1
2066,Left,1,43,80,355.5,0.489583,Eighth,G2_B1
2070,Left,1,41,80,356.0,0.489583,Eighth,F2_A#1
2068,Right,0,50,80,356.0,0.489583,Eighth,D3_A#2
2074,Left,1,41,80,356.5,0.489583,Eighth,F2_A#1
2072,Right,0,46,80,356.5,0.489583,Eighth,D3_A#2
2076,Right,0,46,80,357.0,0.489583,Eighth,D3_A#2
2078,Left,1,41,80,357.0,0.489583,Eighth,F2_A#1
2081,Left,1,41,80,357.5,0.489583,Eighth,F2_A#1
2080,Right,0,50,80,357.5,0.489583,Eighth,D3_A#2
2084,Left,1,41,80,358.0,0.489583,Eighth,F2_A#1
2086,Right,0,50,80,358.0,0.489583,Eighth,D3_A#2
2090,Left,1,34,80,358.5,0.489583,Eighth,F2_A#1
2088,Right,0,46,80,358.5,0.489583,Eighth,D3_A#2
2092,Left,1,41,80,359.0,0.489583,Eighth,F2_A#1
2093,Right,0,50,80,359.0,0.489583,Eighth,D3_A#2
2097,Left,1,34,80,359.5,0.489583,Eighth,F2_A#1
2096,Right,0,50,80,359.5,0.489583,Eighth,D3_A#2
2102,Right,0,46,80,360.0,0.489583,Eighth,D3_A#2
2100,Left,1,34,80,360.0,0.489583,Eighth,F2_A#1
2104,Right,0,46,80,360.5,0.489583,Eighth,D3_A#2
2106,Left,1,41,80,360.5,0.489583,Eighth,F2_A#1
2110,Left,1,41,80,361.0,0.489583,Eighth,F2_A#1
2108,Right,0,46,80,361.0,0.489583,Eighth,D3_A#2
2114,Right,0,50,80,361.5,0.489583,Eighth,D3_A#2
2112,Left,1,41,80,361.5,0.489583,Eighth,F2_A#1
2116,Left,1,41,80,362.0,0.489583,Eighth,F2_A#1
2117,Right,0,46,80,362.0,0.489583,Eighth,D3_A#2
2122,Right,0,46,80,362.5,0.489583,Eighth,D3_A#2
2120,Left,1,41,80,362.5,0.489583,Eighth,F2_A#1
2124,Left,1,43,80,363.0,0.489583,Eighth,G2_A#1
2125,Right,0,52,80,363.0,0.489583,Eighth,E3_C3
2130,Left,1,34,80,363.5,0.489583,Eighth,G2_A#1
2128,Right,0,52,80,363.5,0.489583,Eighth,E3_C3
2134,Left,1,41,80,364.0,0.489583,Eighth,F2_A1
2132,Right,0,48,80,364.0,1.489583,DottedQuarter,F3_C3
2136,Left,1,41,80,364.5,0.489583,Eighth,F2_A1
2138,Left,1,33,80,365.0,0.489583,Eighth,F2_A1
2140,Left,1,41,80,365.5,0.489583,Eighth,F2_A1
2142,Right,0,57,80,365.5,0.239583,Sixteenth,A3
2143,Right,0,55,80,365.75,0.239583,Sixteenth,G3
2145,Left,1,41,80,366.0,0.489583,Eighth,F2_A1
2144,Right,0,53,80,366.0,0.489583,Eighth,F3
2147,Left,1,33,80,366.5,0.489583,Eighth,F2_A1
2149,Left,1,33,80,367.0,0.489583,Eighth,F2_A1
2151,Left,1,41,80,367.5,0.489583,Eighth,F2_A1
2154,Left,1,41,80,368.0,0.489583,Eighth,G1_F2
2153,Right,0,83,80,368.0,0.239583,Sixteenth,B5
2156,Right,0,84,80,368.25,0.989583,Quarter,C6
2157,Left,1,41,80,368.5,0.489583,Eighth,G1_F2
2159,Left,1,41,80,369.0,0.489583,Eighth,G1_F2
2161,Right,0,82,80,369.25,0.239583,Sixteenth,A#5
2162,Left,1,31,80,369.5,0.489583,Eighth,G1_F2
2163,Right,0,80,80,369.5,0.239583,Sixteenth,G#5
2165,Right,0,79,80,369.75,0.239583,Sixteenth,G5
2168,Right,0,77,80,370.0,0.989583,Quarter,F5
2166,Left,1,41,80,370.0,0.489583,Eighth,G1_F2
2169,Left,1,31,80,370.5,0.489583,Eighth,G1_F2
2171,Left,1,41,80,371.0,0.489583,Eighth,G#1_F2
2173,Left,1,32,80,371.5,0.489583,Eighth,G#1_F2
2175,Left,1,41,80,372.0,0.489583,Eighth,G1_F2
2176,Right,0,88,80,372.0,0.239583,Sixteenth,E6
2178,Right,0,89,80,372.25,2.739583,DottedHalf,F6
2179,Left,1,31,81,372.5,0.489583,Eighth,G1_F2
2181,Left,1,31,83,373.0,0.489583,Eighth,G1_F2
2183,Left,1,31,85,373.5,0.489583,Eighth,G1_F2
2185,Left,1,41,87,374.0,0.489583,Eighth,G1_F2
2187,Left,1,41,89,374.5,0.489583,Eighth,G1_F2
2191,Right,0,89,91,375.0,0.239583,Sixteenth,F6
2189,Left,1,41,91,375.0,0.489583,Eighth,G#1_F2
2192,Right,0,87,92,375.25,0.239583,Sixteenth,D#6
2193,Right,0,86,93,375.5,0.239583,Sixteenth,D6
2194,Left,1,41,93,375.5,0.489583,Eighth,G#1_F2
2196,Right,0,84,94,375.75,0.239583,Sixteenth,C6
2197,Right,0,83,95,376.0,0.239583,Sixteenth,B5
2198,Left,1,41,95,376.0,0.489583,Eighth,G1_F2
2200,Right,0,84,96,376.25,0.239583,Sixteenth,C6
2202,Right,0,86,97,376.5,0.239583,Sixteenth,D6
2201,Left,1,31,97,376.5,0.489583,Eighth,G1_F2
2204,Right,0,87,98,376.75,0.239583,Sixteenth,D#6
2207,Right,0,89,99,377.0,0.239583,Sixteenth,F6
2205,Left,1,41,99,377.0,0.489583,Eighth,G1_F2
2208,Right,0,87,100,377.25,0.239583,Sixteenth,D#6
2209,Left,1,41,101,377.5,0.489583,Eighth,G1_F2
2211,Right,0,86,101,377.5,0.239583,Sixteenth,D6
2212,Right,0,84,102,377.75,0.239583,Sixteenth,C6
2215,Right,0,83,103,378.0,0.239583,Sixteenth,B5
2213,Left,1,41,103,378.0,0.489583,Eighth,G1_F2
2216,Right,0,84,104,378.25,0.239583,Sixteenth,C6
2217,Right,0,86,105,378.5,0.239583,Sixteenth,D6
2218,Left,1,41,105,378.5,0.489583,Eighth,G1_F2
2220,Right,0,87,106,378.75,0.239583,Sixteenth,D#6
2222,Left,1,41,107,379.0,0.489583,Eighth,G#1_F2
2221,Right,0,89,107,379.0,0.239583,Sixteenth,F6
2224,Right,0,87,108,379.25,0.239583,Sixteenth,D#6
2225,Left,1,41,108,379.5,0.489583,Eighth,G#1_F2
2227,Right,0,86,108,379.5,0.239583,Sixteenth,D6
2228,Right,0,84,109,379.75,0.239583,Sixteenth,C6
2229,Left,1,31,110,380.0,0.989583,Quarter,G1_F2
2231,Right,0,83,110,380.0,0.239583,Sixteenth,B5
2232,Right,0,84,110,380.25,0.239583,Sixteenth,C6
2233,Right,0,86,110,380.5,0.239583,Sixteenth,D6
2234,Right,0,87,110,380.75,0.239583,Sixteenth,D#6
2236,Left,1,43,110,381.0,2.489583,Half,G3_G2
2235,Right,0,89,110,381.0,0.239583,Sixteenth,F6
2238,Right,0,87,110,381.25,0.239583,Sixteenth,D#6
2239,Right,0,86,110,381.5,0.239583,Sixteenth,D6
2240,Right,0,84,110,381.75,0.239583,Sixteenth,C6
2241,Right,0,83,110,382.0,0.239583,Sixteenth,B5
2242,Right,0,80,110,382.25,0.239583,Sixteenth,G#5
2243,Right,0,79,110,382.5,0.239583,Sixteenth,G5
2244,Right,0,77,110,382.75,0.239583,Sixteenth,F5
2245,Right,0,75,110,383.0,0.239583,Sixteenth,D#5
2246,Right,0,74,110,383.25,0.239583,Sixteenth,D5
2247,Right,0,72,110,383.5,0.239583,Sixteenth,C5
2248,Left,1,57,110,383.5,0.239583,Sixteenth,A3
2249,Right,0,71,110,383.75,0.239583,Sixteenth,B4
2250,Left,1,59,110,383.75,0.239583,Sixteenth,B3
2252,Left,1,60,100,384.0,0.489583,Eighth,C4
2251,Right,0,72,100,384.0,0.489583,Eighth,C5
2253,Right,0,67,96,385.0,0.489583,Eighth,G4
2254,Left,1,43,96,385.0,0.489583,Eighth,G3_G2
2258,Right,0,63,91,386.0,0.489583,Eighth,D#4
2256,Left,1,51,91,386.0,0.489583,Eighth,D#3_D#2
2261,Right,0,60,86,387.0,0.489583,Eighth,C4
2259,Left,1,48,86,387.0,0.489583,Eighth,C3_C2
2262,Left,1,43,81,388.0,3.989583,Whole,G2_G1
2263,Right,0,55,81,388.0,3.989583,Whole,G3
2267,Right,0,64,80,392.0,0.4375,Eighth,E4
2265,Left,1,48,80,392.0,0.489583,Eighth,C3_C2
2268,Right,0,60,80,392.25,0.447917,Eighth,C4
2269,Right,0,64,80,392.5,0.427083,DottedSixteenth,E4
2270,Left,1,48,80,392.5,0.40625,DottedSixteenth,C3
2272,Left,1,55,80,392.75,0.479167,Eighth,G3
2271,Right,0,60,80,392.75,0.4375,Eighth,C4
2273,Left,1,48,80,393.0,0.447917,Eighth,C3
2274,Right,0,64,80,393.0,0.40625,DottedSixteenth,E4
2276,Right,0,60,80,393.25,0.40625,DottedSixteenth,C4
2275,Left,1,55,80,393.25,0.46875,Eighth,G3
2277,Right,0,64,80,393.5,0.4375,Eighth,E4
2278,Left,1,48,80,393.5,0.46875,Eighth,C3
2279,Right,0,60,80,393.75,0.447917,Eighth,C4
2280,Left,1,55,80,393.75,0.427083,DottedSixteenth,G3
2282,Right,0,64,80,394.0,0.46875,Eighth,E4
2281,Left,1,48,80,394.0,0.489583,Eighth,C3
2283,Right,0,60,80,394.25,0.427083,DottedSixteenth,C4
2284,Left,1,55,80,394.25,0.40625,DottedSixteenth,G3
2285,Right,0,64,80,394.5,0.447917,Eighth,E4
2286,Left,1,48,80,394.5,0.40625,DottedSixteenth,C3
2287,Right,0,60,80,394.75,0.427083,DottedSixteenth,C4
2288,Left,1,55,80,394.75,0.395833,DottedSixteenth,G3
2289,Right,0,64,80,395.0,0.395833,DottedSixteenth,E4
2290,Left,1,48,80,395.0,0.427083,DottedSixteenth,C3
2291,Left,1,55,80,395.25,0.458333,Eighth,G3
2292,Right,0,60,80,395.25,0.427083,DottedSixteenth,C4
2293,Right,0,64,80,395.5,0.395833,DottedSixteenth,E4
2294,Left,1,48,80,395.5,0.40625,DottedSixteenth,C3
2295,Left,1,55,80,395.75,0.427083,DottedSixteenth,G3
2296,Right,0,60,80,395.75,0.416667,DottedSixteenth,C4
2298,Left,1,48,80,396.0,0.427083,DottedSixteenth,C3
2297,Right,0,64,80,396.0,0.40625,DottedSixteenth,E4
2299,Right,0,60,80,396.25,0.46875,Eighth,C4
2300,Left,1,55,80,396.25,0.46875,Eighth,G3
2301,Left,1,48,80,396.5,0.447917,Eighth,C3
2302,Right,0,64,80,396.5,0.427083,DottedSixteenth,E4
2304,Left,1,55,80,396.75,0.46875,Eighth,G3
2303,Right,0,60,80,396.75,0.427083,DottedSixteenth,C4
2306,Left,1,48,80,397.0,0.416667,DottedSixteenth,C3
2305,Right,0,64,80,397.0,0.4375,Eighth,E4
2307,Left,1,55,80,397.25,0.447917,Eighth,G3
2308,Right,0,60,80,397.25,0.4375,Eighth,C4
2310,Right,0,64,80,397.5,0.385417,DottedSixteenth,E4
2309,Left,1,48,80,397.5,0.458333,Eighth,C3
2312,Left,1,55,80,397.75,0.489583,Eighth,G3
2311,Right,0,60,80,397.75,0.385417,DottedSixteenth,C4
2314,Left,1,48,80,398.0,0.489583,Eighth,C3
2313,Right,0,64,80,398.0,0.4375,Eighth,E4
2315,Right,0,60,80,398.25,0.416667,DottedSixteenth,C4
2316,Left,1,55,80,398.25,0.4375,Eighth,G3
2318,Left,1,48,80,398.5,0.385417,DottedSixteenth,C3
2317,Right,0,64,80,398.5,0.395833,DottedSixteenth,E4
2319,Right,0,60,80,398.75,0.40625,DottedSixteenth,C4
2320,Left,1,55,80,398.75,0.416667,DottedSixteenth,G3
2321,Left,1,48,80,399.0,0.4375,Eighth,C3
2322,Right,0,66,80,399.0,0.416667,DottedSixteenth,F#4
2323,Left,1,57,80,399.25,0.4375,Eighth,A3
2324,Right,0,62,80,399.25,0.40625,DottedSixteenth,D4
2326,Right,0,66,80,399.5,0.4375,Eighth,F#4
2325,Left,1,48,80,399.5,0.40625,DottedSixteenth,C3
2328,Right,0,62,80,399.75,0.239583,Sixteenth,D4
2327,Left,1,57,80,399.75,0.239583,Sixteenth,A3
2330,Left,1,47,80,400.0,0.239583,Sixteenth,D3_B2
2329,Right,0,67,80,400.0,1.489583,DottedQuarter,G4
2332,Left,1,55,80,400.25,0.239583,Sixteenth,G3
2333,Left,1,50,80,400.5,0.239583,Sixteenth,D3_B2
2335,Left,1,55,80,400.75,0.239583,Sixteenth,G3
2336,Left,1,50,80,401.0,0.239583,Sixteenth,D3_B2
2338,Left,1,55,80,401.25,0.239583,Sixteenth,G3
2341,Right,0,71,80,401.5,0.239583,Sixteenth,B4
2339,Left,1,47,80,401.5,0.239583,Sixteenth,D3_B2
2342,Left,1,55,80,401.75,0.239583,Sixteenth,G3
2343,Right,0,69,80,401.75,0.239583,Sixteenth,A4
2345,Right,0,67,80,402.0,0.489583,Eighth,G4
2344,Left,1,50,80,402.0,0.239583,Sixteenth,D3_B2
2347,Left,1,55,80,402.25,0.239583,Sixteenth,G3
2348,Left,1,50,80,402.5,0.239583,Sixteenth,D3_B2
2350,Left,1,55,80,402.75,0.239583,Sixteenth,G3
2351,Left,1,47,80,403.0,0.239583,Sixteenth,D3_B2
2353,Left,1,55,80,403.25,0.239583,Sixteenth,G3
2354,Left,1,50,80,403.5,0.239583,Sixteenth,D3_B2
2356,Left,1,55,80,403.75,0.239583,Sixteenth,G3
2359,Right,0,85,80,404.0,0.239583,Sixteenth,C#6
2357,Left,1,50,80,404.0,0.239583,Sixteenth,D3_B2
2360,Right,0,86,80,404.25,0.989583,Quarter,D6
2361,Left,1,55,80,404.25,0.239583,Sixteenth,G3
2362,Left,1,50,80,404.5,0.239583,Sixteenth,D3_B2
2364,Left,1,55,80,404.75,0.239583,Sixteenth,G3
2365,Left,1,47,80,405.0,0.239583,Sixteenth,D3_B2
2367,Right,0,84,80,405.25,0.239583,Sixteenth,C6
2368,Left,1,55,80,405.25,0.239583,Sixteenth,G3
2371,Right,0,83,80,405.5,0.239583,Sixteenth,B5
2369,Left,1,50,80,405.5,0.239583,Sixteenth,D3_B2
2372,Right,0,81,80,405.75,0.239583,Sixteenth,A5
2373,Left,1,55,80,405.75,0.239583,Sixteenth,G3
2374,Right,0,79,80,406.0,0.989583,Quarter,G5
2375,Left,1,50,80,406.0,0.239583,Sixteenth,D3_B2
2377,Left,1,55,80,406.25,0.239583,Sixteenth,G3
2378,Left,1,47,80,406.5,0.239583,Sixteenth,D3_B2
2380,Left,1,55,80,406.75,0.239583,Sixteenth,G3
2381,Left,1,47,80,407.0,0.239583,Sixteenth,D3_B2
2383,Left,1,55,80,407.25,0.239583,Sixteenth,G3
2384,Left,1,50,80,407.5,0.239583,Sixteenth,D3_B2
2386,Left,1,55,80,407.75,0.239583,Sixteenth,G3
2387,Left,1,50,80,408.0,0.489583,Eighth,D3_D2
2389,Right,0,65,80,408.0,0.239583,Sixteenth,F4
2390,Right,0,62,80,408.25,0.239583,Sixteenth,D4
2391,Left,1,50,80,408.5,0.239583,Sixteenth,D3
2392,Right,0,65,80,408.5,0.239583,Sixteenth,F4
2393,Left,1,57,80,408.75,0.239583,Sixteenth,A3
2394,Right,0,62,80,408.75,0.239583,Sixteenth,D4
2395,Left,1,50,80,409.0,0.239583,Sixteenth,D3
2396,Right,0,65,80,409.0,0.239583,Sixteenth,F4
2397,Left,1,57,80,409.25,0.239583,Sixteenth,A3
2398,Right,0,62,80,409.25,0.239583,Sixteenth,D4
2399,Left,1,50,80,409.5,0.239583,Sixteenth,D3
2400,Right,0,65,80,409.5,0.239583,Sixteenth,F4
2401,Left,1,57,80,409.75,0.239583,Sixteenth,A3
2402,Right,0,62,80,409.75,0.239583,Sixteenth,D4
2404,Right,0,65,80,410.0,0.239583,Sixteenth,F4
2403,Left,1,50,80,410.0,0.239583,Sixteenth,D3
2405,Left,1,57,80,410.25,0.239583,Sixteenth,A3
2406,Right,0,62,80,410.25,0.239583,Sixteenth,D4
2408,Right,0,65,80,410.5,0.239583,Sixteenth,F4
2407,Left,1,50,80,410.5,0.239583,Sixteenth,D3
2410,Right,0,62,80,410.75,0.239583,Sixteenth,D4
2409,Left,1,57,80,410.75,0.239583,Sixteenth,A3
2412,Right,0,65,80,411.0,0.239583,Sixteenth,F4
2411,Left,1,50,80,411.0,0.239583,Sixteenth,D3
2413,Left,1,57,80,411.25,0.239583,Sixteenth,A3
2414,Right,0,62,80,411.25,0.239583,Sixteenth,D4
2415,Left,1,50,80,411.5,0.239583,Sixteenth,D3
2416,Right,0,65,80,411.5,0.239583,Sixteenth,F4
2417,Left,1,57,80,411.75,0.239583,Sixteenth,A3
2418,Right,0,62,80,411.75,0.239583,Sixteenth,D4
2419,Right,0,65,80,412.0,0.239583,Sixteenth,F4
2420,Left,1,50,80,412.0,0.239583,Sixteenth,D3
2422,Left,1,57,80,412.25,0.239583,Sixteenth,A3
2421,Right,0,62,80,412.25,0.239583,Sixteenth,D4
2424,Right,0,65,80,412.5,0.239583,Sixteenth,F4
2423,Left,1,50,80,412.5,0.239583,Sixteenth,D3
2425,Right,0,62,80,412.75,0.239583,Sixteenth,D4
2426,Left,1,57,80,412.75,0.239583,Sixteenth,A3
2428,Right,0,65,80,413.0,0.239583,Sixteenth,F4
2427,Left,1,50,80,413.0,0.239583,Sixteenth,D3
2429,Right,0,62,80,413.25,0.239583,Sixteenth,D4
2430,Left,1,57,80,413.25,0.239583,Sixteenth,A3
2431,Left,1,50,80,413.5,0.239583,Sixteenth,D3
2432,Right,0,65,80,413.5,0.239583,Sixteenth,F4
2434,Left,1,57,80,413.75,0.239583,Sixteenth,A3
2433,Right,0,62,80,413.75,0.239583,Sixteenth,D4
2435,Left,1,50,80,414.0,0.239583,Sixteenth,D3
2436,Right,0,65,80,414.0,0.239583,Sixteenth,F4
2438,Left,1,57,80,414.25,0.239583,Sixteenth,A3
2437,Right,0,62,80,414.25,0.239583,Sixteenth,D4
2440,Left,1,50,80,414.5,0.239583,Sixteenth,D3
2439,Right,0,65,80,414.5,0.239583,Sixteenth,F4
2442,Left,1,57,80,414.75,0.239583,Sixteenth,A3
2441,Right,0,62,80,414.75,0.239583,Sixteenth,D4
2444,Left,1,50,80,415.0,0.239583,Sixteenth,D3
2443,Right,0,68,80,415.0,0.239583,Sixteenth,G#4
2445,Right,0,64,80,415.25,0.239583,Sixteenth,E4
2446,Left,1,59,80,415.25,0.239583,Sixteenth,B3
2448,Left,1,50,80,415.5,0.239583,Sixteenth,D3
2447,Right,0,68,80,415.5,0.239583,Sixteenth,G#4
2449,Right,0,64,80,415.75,0.239583,Sixteenth,E4
2450,Left,1,59,80,415.75,0.239583,Sixteenth,B3
2453,Right,0,69,80,416.0,1.489583,DottedQuarter,A4
2451,Left,1,48,80,416.0,0.239583,Sixteenth,E3_C3
2454,Left,1,57,80,416.25,0.239583,Sixteenth,A3
2455,Left,1,48,80,416.5,0.239583,Sixteenth,E3_C3
2457,Left,1,57,80,416.75,0.239583,Sixteenth,A3
2458,Left,1,52,80,417.0,0.239583,Sixteenth,E3_C3
2460,Left,1,57,80,417.25,0.239583,Sixteenth,A3
2461,Right,0,72,80,417.5,0.239583,Sixteenth,C5
2462,Left,1,52,80,417.5,0.239583,Sixteenth,E3_C3
2464,Right,0,71,80,417.75,0.239583,Sixteenth,B4
2465,Left,1,57,80,417.75,0.239583,Sixteenth,A3
2466,Right,0,69,80,418.0,0.489583,Eighth,A4
2467,Left,1,52,80,418.0,0.239583,Sixteenth,E3_C3
2469,Left,1,57,80,418.25,0.239583,Sixteenth,A3
2470,Left,1,48,80,418.5,0.239583,Sixteenth,E3_C3
2472,Left,1,57,80,418.75,0.239583,Sixteenth,A3
2473,Left,1,52,80,419.0,0.239583,Sixteenth,E3_C3
2475,Left,1,57,80,419.25,0.239583,Sixteenth,A3
2476,Left,1,48,80,419.5,0.239583,Sixteenth,E3_C3
2478,Left,1,57,80,419.75,0.239583,Sixteenth,A3
2481,Right,0,87,80,420.0,0.239583,Sixteenth,D#6
2479,Left,1,48,80,420.0,0.239583,Sixteenth,E3_C3
2482,Right,0,88,80,420.25,0.989583,Quarter,E6
2483,Left,1,57,80,420.25,0.239583,Sixteenth,A3
2484,Left,1,48,81,420.5,0.239583,Sixteenth,E3_C3
2486,Left,1,57,82,420.75,0.239583,Sixteenth,A3
2487,Left,1,52,83,421.0,0.239583,Sixteenth,E3_C3
2490,Left,1,57,84,421.25,0.239583,Sixteenth,A3
2489,Right,0,86,84,421.25,0.239583,Sixteenth,D6
2491,Left,1,52,85,421.5,0.239583,Sixteenth,E3_C3
2492,Right,0,84,85,421.5,0.239583,Sixteenth,C6
2494,Left,1,57,86,421.75,0.239583,Sixteenth,A3
2495,Right,0,83,86,421.75,0.239583,Sixteenth,B5
2496,Left,1,48,87,422.0,0.239583,Sixteenth,E3_C3
2498,Right,0,81,87,422.0,0.989583,Quarter,A5
2499,Left,1,57,88,422.25,0.239583,Sixteenth,A3
2500,Left,1,48,89,422.5,0.239583,Sixteenth,E3_C3
2502,Left,1,57,90,422.75,0.239583,Sixteenth,A3
2503,Left,1,48,91,423.0,0.239583,Sixteenth,E3_C3
2505,Left,1,57,92,423.25,0.239583,Sixteenth,A3
2506,Left,1,48,93,423.5,0.239583,Sixteenth,E3_C3
2508,Left,1,57,94,423.75,0.239583,Sixteenth,A3
2511,Right,0,87,95,424.0,0.239583,Sixteenth,D#6
2509,Left,1,48,95,424.0,0.239583,Sixteenth,E3_C3
2513,Right,0,88,96,424.25,0.989583,Quarter,E6
2512,Left,1,58,96,424.25,0.239583,Sixteenth,A#3
2514,Left,1,52,97,424.5,0.239583,Sixteenth,E3_C3
2516,Left,1,58,98,424.75,0.239583,Sixteenth,A#3
2517,Left,1,52,99,425.0,0.239583,Sixteenth,E3_C3
2519,Right,0,86,100,425.25,0.239583,Sixteenth,D6
2520,Left,1,58,100,425.25,0.239583,Sixteenth,A#3
2521,Left,1,48,101,425.5,0.239583,Sixteenth,E3_C3
2522,Right,0,84,101,425.5,0.239583,Sixteenth,C6
2525,Left,1,58,102,425.75,0.239583,Sixteenth,A#3
2524,Right,0,83,102,425.75,0.239583,Sixteenth,B5
2526,Left,1,48,103,426.0,0.239583,Sixteenth,E3_C3
2528,Right,0,82,103,426.0,0.989583,Quarter,A#5
2529,Left,1,58,104,426.25,0.239583,Sixteenth,A#3
2530,Left,1,52,105,426.5,0.239583,Sixteenth,E3_C3
2532,Left,1,58,106,426.75,0.239583,Sixteenth,A#3
2533,Left,1,48,107,427.0,0.239583,Sixteenth,E3_C3
2535,Left,1,58,108,427.25,0.239583,Sixteenth,A#3
2536,Left,1,48,109,427.5,0.239583,Sixteenth,E3_C3
2538,Left,1,58,110,427.75,0.239583,Sixteenth,A#3
2539,Left,1,47,80,428.0,0.239583,Sixteenth,B2
2540,Right,0,83,80,428.0,1.239583,TiedQuarter-Sixteenth,B5
2541,Left,1,51,80,428.25,0.239583,Sixteenth,D#3
2542,Left,1,54,80,428.5,0.239583,Sixteenth,F#3
2543,Left,1,59,80,428.75,0.239583,Sixteenth,B3
2544,Left,1,47,80,429.0,0.239583,Sixteenth,B2
2546,Left,1,51,80,429.25,0.239583,Sixteenth,D#3
2545,Right,0,81,80,429.25,0.239583,Sixteenth,A5
2547,Left,1,54,80,429.5,0.239583,Sixteenth,F#3
2548,Right,0,79,80,429.5,0.239583,Sixteenth,G5
2549,Right,0,78,80,429.75,0.239583,Sixteenth,F#5
2550,Left,1,59,80,429.75,0.239583,Sixteenth,B3
2552,Right,0,79,80,430.0,0.239583,Sixteenth,G5
2551,Left,1,47,80,430.0,0.239583,Sixteenth,B2
2553,Left,1,51,80,430.25,0.239583,Sixteenth,D#3
2554,Right,0,78,80,430.25,0.239583,Sixteenth,F#5
2556,Right,0,76,80,430.5,0.239583,Sixteenth,E5
2555,Left,1,55,80,430.5,0.239583,Sixteenth,G3
2558,Right,0,75,80,430.75,0.239583,Sixteenth,D#5
2557,Left,1,59,80,430.75,0.239583,Sixteenth,B3
2560,Right,0,76,80,431.0,0.239583,Sixteenth,E5
2559,Left,1,47,80,431.0,0.239583,Sixteenth,B2
2562,Left,1,51,80,431.25,0.239583,Sixteenth,D#3
2561,Right,0,79,80,431.25,0.239583,Sixteenth,G5
2564,Right,0,78,80,431.5,0.239583,Sixteenth,F#5
2563,Left,1,55,80,431.5,0.239583,Sixteenth,G3
2565,Left,1,59,80,431.75,0.239583,Sixteenth,B3
2566,Right,0,76,80,431.75,0.239583,Sixteenth,E5
2567,Left,1,47,80,432.0,0.239583,Sixteenth,B2
2568,Right,0,75,80,432.0,0.239583,Sixteenth,D#5
2570,Left,1,54,80,432.25,0.239583,Sixteenth,F#3
2569,Right,0,73,80,432.25,0.239583,Sixteenth,C#5
2572,Right,0,71,80,432.5,0.239583,Sixteenth,B4
2571,Left,1,57,80,432.5,0.239583,Sixteenth,A3
2573,Left,1,59,80,432.75,0.239583,Sixteenth,B3
2574,Right,0,70,80,432.75,0.239583,Sixteenth,A#4
2576,Left,1,47,80,433.0,0.239583,Sixteenth,B2
2575,Right,0,71,80,433.0,0.239583,Sixteenth,B4
2577,Left,1,54,80,433.25,0.239583,Sixteenth,F#3
2578,Right,0,73,80,433.25,0.239583,Sixteenth,C#5
2580,Left,1,57,80,433.5,0.239583,Sixteenth,A3
2579,Right,0,74,80,433.5,0.239583,Sixteenth,D5
2581,Left,1,59,80,433.75,0.239583,Sixteenth,B3
2582,Right,0,75,80,433.75,0.239583,Sixteenth,D#5
2584,Left,1,47,80,434.0,0.239583,Sixteenth,B2
2583,Right,0,76,80,434.0,0.239583,Sixteenth,E5
2586,Right,0,75,80,434.25,0.239583,Sixteenth,D#5
2585,Left,1,52,80,434.25,0.239583,Sixteenth,E3
2587,Left,1,55,80,434.5,0.239583,Sixteenth,G3
2588,Right,0,76,80,434.5,0.239583,Sixteenth,E5
2589,Right,0,78,80,434.75,0.239583,Sixteenth,F#5
2590,Left,1,59,80,434.75,0.239583,Sixteenth,B3
2592,Left,1,47,80,435.0,0.239583,Sixteenth,B2
2591,Right,0,79,80,435.0,0.239583,Sixteenth,G5
2593,Right,0,80,80,435.25,0.239583,Sixteenth,G#5
2594,Left,1,52,80,435.25,0.239583,Sixteenth,E3
2596,Left,1,55,80,435.5,0.239583,Sixteenth,G3
2595,Right,0,81,80,435.5,0.239583,Sixteenth,A5
2597,Right,0,82,80,435.75,0.239583,Sixteenth,A#5
2598,Left,1,59,80,435.75,0.239583,Sixteenth,B3
2600,Right,0,83,80,436.0,0.239583,Sixteenth,B5
2599,Left,1,47,80,436.0,0.239583,Sixteenth,B2
2601,Right,0,82,80,436.25,0.239583,Sixteenth,A#5
2602,Left,1,51,80,436.25,0.239583,Sixteenth,D#3
2603,Left,1,54,80,436.5,0.239583,Sixteenth,F#3
2604,Right,0,83,80,436.5,0.239583,Sixteenth,B5
2606,Right,0,82,80,436.75,0.239583,Sixteenth,A#5
2605,Left,1,59,80,436.75,0.239583,Sixteenth,B3
2607,Right,0,83,80,437.0,0.239583,Sixteenth,B5
2608,Left,1,47,80,437.0,0.239583,Sixteenth,B2
2610,Right,0,81,80,437.25,0.239583,Sixteenth,A5
2609,Left,1,51,80,437.25,0.239583,Sixteenth,D#3
2611,Left,1,54,80,437.5,0.239583,Sixteenth,F#3
2612,Right,0,79,80,437.5,0.239583,Sixteenth,G5
2613,Right,0,78,80,437.75,0.239583,Sixteenth,F#5
2614,Left,1,59,80,437.75,0.239583,Sixteenth,B3
2616,Left,1,47,80,438.0,0.239583,Sixteenth,B2
2615,Right,0,79,80,438.0,0.239583,Sixteenth,G5
2618,Left,1,51,80,438.25,0.239583,Sixteenth,D#3
2617,Right,0,78,80,438.25,0.239583,Sixteenth,F#5
2620,Left,1,55,80,438.5,0.239583,Sixteenth,G3
2619,Right,0,76,80,438.5,0.239583,Sixteenth,E5
2622,Left,1,59,80,438.75,0.239583,Sixteenth,B3
2621,Right,0,75,80,438.75,0.239583,Sixteenth,D#5
2623,Left,1,47,80,439.0,0.239583,Sixteenth,B2
2624,Right,0,76,80,439.0,0.239583,Sixteenth,E5
2625,Left,1,51,80,439.25,0.239583,Sixteenth,D#3
2626,Right,0,79,80,439.25,0.239583,Sixteenth,G5
2628,Right,0,78,80,439.5,0.239583,Sixteenth,F#5
2627,Left,1,55,80,439.5,0.239583,Sixteenth,G3
2630,Right,0,76,80,439.75,0.239583,Sixteenth,E5
2629,Left,1,59,80,439.75,0.239583,Sixteenth,B3
2632,Right,0,75,80,440.0,0.239583,Sixteenth,D#5
2631,Left,1,47,80,440.0,0.239583,Sixteenth,B2
2634,Right,0,73,80,440.25,0.239583,Sixteenth,C#5
2633,Left,1,54,80,440.25,0.239583,Sixteenth,F#3
2635,Left,1,57,80,440.5,0.239583,Sixteenth,A3
2636,Right,0,71,80,440.5,0.239583,Sixteenth,B4
2638,Right,0,70,80,440.75,0.239583,Sixteenth,A#4
2637,Left,1,59,80,440.75,0.239583,Sixteenth,B3
2639,Left,1,47,80,441.0,0.239583,Sixteenth,B2
2640,Right,0,71,80,441.0,0.239583,Sixteenth,B4
2641,Right,0,73,80,441.25,0.239583,Sixteenth,C#5
2642,Left,1,54,80,441.25,0.239583,Sixteenth,F#3
2643,Left,1,57,80,441.5,0.239583,Sixteenth,A3
2644,Right,0,74,80,441.5,0.239583,Sixteenth,D5
2646,Right,0,75,80,441.75,0.239583,Sixteenth,D#5
2645,Left,1,59,80,441.75,0.239583,Sixteenth,B3
2647,Right,0,76,80,442.0,0.239583,Sixteenth,E5
2648,Left,1,47,80,442.0,0.239583,Sixteenth,B2
2650,Right,0,75,80,442.25,0.239583,Sixteenth,D#5
2649,Left,1,52,80,442.25,0.239583,Sixteenth,E3
2651,Right,0,76,80,442.5,0.239583,Sixteenth,E5
2652,Left,1,55,80,442.5,0.239583,Sixteenth,G3
2654,Left,1,59,80,442.75,0.239583,Sixteenth,B3
2653,Right,0,78,80,442.75,0.239583,Sixteenth,F#5
2656,Left,1,47,80,443.0,0.239583,Sixteenth,B2
2655,Right,0,79,80,443.0,0.239583,Sixteenth,G5
2658,Left,1,52,80,443.25,0.239583,Sixteenth,E3
2657,Right,0,80,80,443.25,0.239583,Sixteenth,G#5
2659,Left,1,55,80,443.5,0.239583,Sixteenth,G3
2660,Right,0,81,80,443.5,0.239583,Sixteenth,A5
2661,Right,0,82,80,443.75,0.239583,Sixteenth,A#5
2662,Left,1,59,80,443.75,0.239583,Sixteenth,B3
2663,Right,0,83,80,444.0,0.239583,Sixteenth,B5
2664,Left,1,47,80,444.0,0.239583,Sixteenth,B2
2666,Left,1,51,82,444.25,0.239583,Sixteenth,D#3
2665,Right,0,78,82,444.25,0.239583,Sixteenth,F#5
2667,Right,0,75,84,444.5,0.239583,Sixteenth,D#5
2668,Left,1,54,84,444.5,0.239583,Sixteenth,F#3
2670,Left,1,59,86,444.75,0.239583,Sixteenth,B3
2669,Right,0,71,86,444.75,0.239583,Sixteenth,B4
2671,Right,0,70,88,445.0,0.239583,Sixteenth,A#4
2672,Left,1,58,88,445.0,0.239583,Sixteenth,A#3
2674,Left,1,59,90,445.25,0.239583,Sixteenth,B3
2673,Right,0,71,90,445.25,0.239583,Sixteenth,B4
2675,Right,0,76,92,445.5,0.239583,Sixteenth,E5
2676,Left,1,55,92,445.5,0.239583,Sixteenth,G3
2677,Right,0,79,94,445.75,0.239583,Sixteenth,G5
2678,Left,1,52,94,445.75,0.239583,Sixteenth,E3
2680,Right,0,83,96,446.0,0.239583,Sixteenth,B5
2679,Left,1,47,96,446.0,0.239583,Sixteenth,B2
2682,Left,1,51,98,446.25,0.239583,Sixteenth,D#3
2681,Right,0,78,98,446.25,0.239583,Sixteenth,F#5
2684,Left,1,54,100,446.5,0.239583,Sixteenth,F#3
2683,Right,0,75,100,446.5,0.239583,Sixteenth,D#5
2685,Right,0,71,102,446.75,0.239583,Sixteenth,B4
2686,Left,1,59,102,446.75,0.239583,Sixteenth,B3
2688,Right,0,70,104,447.0,0.239583,Sixteenth,A#4
2687,Left,1,58,104,447.0,0.239583,Sixteenth,A#3
2689,Left,1,59,106,447.25,0.239583,Sixteenth,B3
2690,Right,0,71,106,447.25,0.239583,Sixteenth,B4
2691,Right,0,76,108,447.5,0.239583,Sixteenth,E5
2692,Left,1,55,108,447.5,0.239583,Sixteenth,G3
2693,Left,1,52,110,447.75,0.239583,Sixteenth,E3
2694,Right,0,79,110,447.75,0.239583,Sixteenth,G5
2696,Left,1,47,110,448.0,0.239583,Sixteenth,B2
2695,Right,0,83,110,448.0,0.239583,Sixteenth,B5
2697,Left,1,51,110,448.25,0.239583,Sixteenth,D#3
2698,Right,0,78,110,448.25,0.239583,Sixteenth,F#5
2700,Right,0,75,110,448.5,0.239583,Sixteenth,D#5
2699,Left,1,54,110,448.5,0.239583,Sixteenth,F#3
2702,Right,0,71,110,448.75,0.239583,Sixteenth,B4
2701,Left,1,59,110,448.75,0.239583,Sixteenth,B3
2703,Left,1,47,110,449.0,0.239583,Sixteenth,B2
2704,Right,0,83,110,449.0,0.239583,Sixteenth,B5
2705,Left,1,52,110,449.25,0.239583,Sixteenth,E3
2706,Right,0,79,110,449.25,0.239583,Sixteenth,G5
2707,Right,0,76,110,449.5,0.239583,Sixteenth,E5
2708,Left,1,55,110,449.5,0.239583,Sixteenth,G3
2710,Left,1,59,110,449.75,0.239583,Sixteenth,B3
2709,Right,0,71,110,449.75,0.239583,Sixteenth,B4
2711,Right,0,83,110,450.0,0.239583,Sixteenth,B5
2712,Left,1,47,110,450.0,0.239583,Sixteenth,B2
2713,Right,0,78,110,450.25,0.239583,Sixteenth,F#5
2714,Left,1,51,110,450.25,0.239583,Sixteenth,D#3
2716,Right,0,75,110,450.5,0.239583,Sixteenth,D#5
2715,Left,1,54,110,450.5,0.239583,Sixteenth,F#3
2717,Left,1,59,110,450.75,0.239583,Sixteenth,B3
2718,Right,0,71,110,450.75,0.239583,Sixteenth,B4
2720,Right,0,83,110,451.0,0.239583,Sixteenth,B5
2719,Left,1,47,110,451.0,0.239583,Sixteenth,B2
2722,Right,0,79,110,451.25,0.239583,Sixteenth,G5
2721,Left,1,52,110,451.25,0.239583,Sixteenth,E3
2724,Left,1,55,110,451.5,0.239583,Sixteenth,G3
2723,Right,0,76,110,451.5,0.239583,Sixteenth,E5
2725,Right,0,71,110,451.75,0.239583,Sixteenth,B4
2726,Left,1,59,110,451.75,0.239583,Sixteenth,B3
2727,Left,1,59,110,452.0,0.989583,Quarter,F#3_D#3_B3_B2
2728,Right,0,83,110,452.0,0.239583,Sixteenth,B5
2732,Right,0,78,110,452.25,0.239583,Sixteenth,F#5
2733,Right,0,75,110,452.5,0.239583,Sixteenth,D#5
2734,Right,0,71,110,452.75,0.239583,Sixteenth,B4
2735,Right,0,78,110,453.0,0.239583,Sixteenth,F#5
2736,Right,0,75,110,453.25,0.239583,Sixteenth,D#5
2737,Right,0,71,110,453.5,0.239583,Sixteenth,B4
2738,Right,0,66,110,453.75,0.239583,Sixteenth,F#4
2739,Right,0,75,110,454.0,0.239583,Sixteenth,D#5
2740,Right,0,71,110,454.25,0.239583,Sixteenth,B4
2741,Right,0,66,110,454.5,0.239583,Sixteenth,F#4
2742,Right,0,63,110,454.75,0.239583,Sixteenth,D#4
2743,Right,0,71,110,455.0,0.239583,Sixteenth,B4
2744,Right,0,66,110,455.25,0.239583,Sixteenth,F#4
2745,Right,0,63,110,455.5,0.239583,Sixteenth,D#4
2746,Right,0,59,110,455.75,0.239583,Sixteenth,B3
2747,Right,0,66,110,456.0,0.239583,Sixteenth,F#4
2748,Right,0,63,110,456.25,0.239583,Sixteenth,D#4
2749,Right,0,59,110,456.5,0.239583,Sixteenth,B3
2750,Right,0,54,110,456.75,0.239583,Sixteenth,F#3
2751,Right,0,63,110,457.0,0.239583,Sixteenth,D#4
2752,Right,0,59,110,457.25,0.239583,Sixteenth,B3
2753,Right,0,54,110,457.5,0.239583,Sixteenth,F#3
2754,Right,0,51,110,457.75,0.239583,Sixteenth,D#3
2755,Right,0,59,110,458.0,0.239583,Sixteenth,B3
2756,Right,0,54,110,458.25,0.239583,Sixteenth,F#3
2757,Right,0,51,110,458.5,0.239583,Sixteenth,D#3
2758,Right,0,47,110,458.75,0.239583,Sixteenth,B2
2759,Left,1,35,110,459.0,0.239583,Sixteenth,B1
2760,Left,1,39,110,459.25,0.239583,Sixteenth,D#2
2761,Left,1,42,110,459.5,0.239583,Sixteenth,F#2
2762,Left,1,47,110,459.75,0.239583,Sixteenth,B2
2763,Left,1,35,110,460.0,0.489583,Eighth,B1
2764,Left,1,47,109,460.5,0.489583,Eighth,B2
2765,Left,1,37,107,461.0,0.489583,Eighth,C#2
2766,Left,1,49,105,461.5,0.489583,Eighth,C#3
2768,Right,0,71,103,462.0,0.489583,Eighth,B4
2767,Left,1,39,103,462.0,0.489583,Eighth,D#2
2769,Left,1,51,101,462.5,0.489583,Eighth,D#3
2770,Right,0,59,101,462.5,0.489583,Eighth,B3
2771,Right,0,73,99,463.0,0.489583,Eighth,C#5
2772,Right,0,61,97,463.5,0.489583,Eighth,C#4
2774,Right,0,75,95,464.0,0.489583,Eighth,D#5
2773,Left,1,39,95,464.0,0.489583,Eighth,D#2
2775,Right,0,63,93,464.5,0.489583,Eighth,D#4
2776,Left,1,51,93,464.5,0.489583,Eighth,D#3
2777,Left,1,40,91,465.0,0.489583,Eighth,E2
2778,Left,1,52,89,465.5,0.489583,Eighth,E3
2780,Right,0,75,87,466.0,0.489583,Eighth,D#5
2779,Left,1,42,87,466.0,0.489583,Eighth,F#2
2782,Left,1,54,85,466.5,0.489583,Eighth,F#3
2781,Right,0,63,85,466.5,0.489583,Eighth,D#4
2783,Right,0,76,83,467.0,0.489583,Eighth,E5
2784,Right,0,64,81,467.5,0.489583,Eighth,E4
2785,Right,0,78,80,468.0,0.489583,Eighth,F#5
2786,Right,0,66,80,468.5,0.489583,Eighth,F#4
2787,Right,0,80,80,469.0,0.489583,Eighth,G#5
2788,Right,0,68,80,469.5,0.489583,Eighth,G#4
2790,Left,1,42,80,470.0,0.489583,Eighth,F#2
2789,Right,0,81,80,470.0,0.489583,Eighth,A5
2791,Left,1,54,80,470.5,0.489583,Eighth,F#3
2792,Right,0,69,80,470.5,0.489583,Eighth,A4
2793,Right,0,81,80,471.0,0.489583,Eighth,A5
2794,Left,1,44,80,471.0,0.489583,Eighth,G#2
2795,Right,0,71,80,471.5,0.489583,Eighth,B4
2796,Left,1,56,80,471.5,0.489583,Eighth,G#3
2797,Left,1,45,80,472.0,0.489583,Eighth,A2
2798,Right,0,81,80,472.0,0.489583,Eighth,A5
2800,Left,1,57,80,472.5,0.489583,Eighth,A3
2799,Right,0,73,80,472.5,0.489583,Eighth,C#5
2801,Right,0,81,80,473.0,0.489583,Eighth,A5
2802,Left,1,47,80,473.0,0.489583,Eighth,B2
2804,Left,1,59,80,473.5,0.489583,Eighth,B3
2803,Right,0,75,80,473.5,0.489583,Eighth,D#5
2806,Right,0,81,80,474.0,0.489583,Eighth,A5
2805,Left,1,49,80,474.0,0.489583,Eighth,C#3
2807,Right,0,76,80,474.5,0.489583,Eighth,E5
2808,Left,1,61,80,474.5,0.489583,Eighth,C#4
2810,Right,0,81,80,475.0,0.489583,Eighth,A5
2809,Left,1,51,80,475.0,0.489583,Eighth,D#3
2812,Right,0,78,80,475.5,0.489583,Eighth,F#5
2811,Left,1,63,80,475.5,0.489583,Eighth,D#4
2813,Right,0,80,80,476.0,1.989583,Half,G#5_E5_B4
2816,Left,1,68,80,476.0,1.989583,Half,G#4_E4
2818,Right,0,75,80,478.0,0.989583,Quarter,F#5_D#5_A4
2819,Left,1,66,80,478.0,0.989583,Quarter,F#4_D#4_B3
2824,Right,0,76,80,479.0,0.989583,Quarter,G#4_E5_C#5
2827,Left,1,64,80,479.0,0.989583,Quarter,E4_C#4
2829,Left,1,56,80,480.0,1.989583,Half,G#3_D#4_C4
2830,Right,0,75,80,480.0,1.989583,Half,F#4_D#5_C5
2835,Right,0,73,80,482.0,1.989583,Half,E4_C#5
2836,Left,1,57,80,482.0,1.989583,Half,C#4_A3
2839,Left,1,63,80,484.0,1.989583,Half,F#3_D#4_B3_A3
2842,Right,0,69,80,484.0,1.989583,Half,D#5_B4_A4
2846,Left,1,56,99,486.0,0.989583,Quarter,G#3_E4_B3
2849,Right,0,76,99,486.0,0.989583,Quarter,E5_B4
2851,Left,1,61,109,487.0,0.989583,Quarter,F#4_C#4_A3
2852,Right,0,78,109,487.0,0.989583,Quarter,F#5_E5_C#5
2857,Left,1,59,110,488.0,3.989583,Half,G#4_E4_B3
2859,Right,0,71,110,488.0,2.989583,Half,G#5_E5_B4
2863,Right,0,75,91,490.0,1.989583,Half,F#5_D#5
2864,Left,1,63,91,490.0,1.989583,Half,F#4_D#4
2867,Right,0,69,81,491.0,0.989583,Quarter,A4
2868,Right,0,59,80,492.0,1.989583,Half,G#4_E4_B3
2869,Left,1,56,80,492.0,1.989583,Half,G#3_E3
2873,Left,1,54,80,494.0,0.989583,Quarter,F#3_D#3_B2
2875,Right,0,57,80,494.0,0.989583,Quarter,F#4_D#4_A3
2881,Left,1,52,80,495.0,0.989583,Quarter,E3_C#3
2879,Right,0,56,80,495.0,0.989583,Quarter,G#3_E4_C#4
2884,Left,1,51,80,496.0,1.989583,Half,G#2_D#3_C3
2886,Right,0,54,80,496.0,1.989583,Half,F#3_D#4_C4
2893,Left,1,45,80,498.0,1.989583,Half,C#3_A2
2890,Right,0,57,80,498.0,1.989583,Half,E3_C#4_A3
2898,Left,1,47,80,500.0,3.989583,Whole,B2_B1
2895,Right,0,59,80,500.0,1.989583,Quarter,G#3_E3_B3
2900,Right,0,54,80,501.0,2.989583,DottedHalf,F#3_A3
2902,Right,0,61,80,502.0,0.989583,Quarter,C#4
2903,Right,0,63,80,503.0,0.989583,Quarter,D#4
2905,Left,1,52,80,504.0,0.989583,Quarter,E3_E2
2904,Right,0,64,80,504.0,0.322917,Triplet,G#3_E4
2908,Right,0,66,80,504.333333,0.322917,Triplet,F#4
2909,Right,0,68,80,504.666667,0.322917,Triplet,G#4
2910,Right,0,69,80,505.0,0.322917,Triplet,A4
2911,Right,0,71,80,505.333333,0.322917,Triplet,B4
2912,Right,0,73,80,505.666667,0.322917,Triplet,C#5
2913,Right,0,74,80,506.0,0.322917,Triplet,D5
2914,Right,0,75,80,506.333333,0.322917,Triplet,D#5
2915,Right,0,76,80,506.666667,0.322917,Triplet,E5
2916,Right,0,77,80,507.0,0.322917,Triplet,F5
2917,Right,0,78,80,507.333333,0.322917,Triplet,F#5
2918,Right,0,79,80,507.666667,0.322917,Triplet,G5
2919,Right,0,71,80,508.0,1.989583,Half,G#5_B4
2921,Left,1,68,80,508.0,1.989583,Half,G#4_E4
2923,Right,0,79,80,508.333333,0.322917,Triplet,G5
2924,Right,0,80,80,508.666667,0.322917,Triplet,G#5
2925,Right,0,81,80,509.0,0.322917,Triplet,A5
2926,Right,0,78,80,509.333333,0.322917,Triplet,F#5
2927,Right,0,80,80,509.666667,0.322917,Triplet,G#5
2930,Right,0,69,80,510.0,0.989583,Quarter,A4
2928,Left,1,63,80,510.0,0.989583,Quarter,F#4_D#4_B3
2932,Right,0,80,80,510.333333,0.322917,Triplet,G#5
2933,Right,0,78,80,510.666667,0.322917,Triplet,F#5
2934,Right,0,68,80,511.0,0.989583,Quarter,G#4
2935,Left,1,64,80,511.0,0.989583,Quarter,E4_C#4
2937,Right,0,78,80,511.333333,0.322917,Triplet,F#5
2938,Right,0,76,80,511.666667,0.322917,Triplet,E5
2940,Right,0,66,80,512.0,1.989583,Half,F#4
2939,Left,1,66,80,512.0,1.989583,Half,F#4_D#4_C4
2943,Right,0,72,80,512.333333,0.322917,Triplet,C5
2944,Right,0,75,80,512.666667,0.322917,Triplet,D#5
2945,Right,0,76,80,513.0,0.322917,Triplet,E5
2946,Right,0,72,80,513.333333,0.322917,Triplet,C5
2947,Right,0,75,80,513.666667,0.322917,Triplet,D#5
2950,Right,0,64,80,514.0,1.989583,Half,E4
2948,Left,1,61,80,514.0,1.989583,Half,C#4_A3
2951,Right,0,69,80,514.333333,0.322917,Triplet,A4
2952,Right,0,73,80,514.666667,0.322917,Triplet,C#5
2953,Right,0,75,80,515.0,0.322917,Triplet,D#5
2954,Right,0,69,80,515.333333,0.322917,Triplet,A4
2955,Right,0,73,80,515.666667,0.322917,Triplet,C#5
2956,Left,1,54,80,516.0,1.989583,Half,F#3_D#4_B3_A3
2960,Right,0,69,80,516.0,1.989583,Half,A4
2961,Right,0,74,82,516.333333,0.322917,Triplet,D5
2962,Right,0,75,85,516.666667,0.322917,Triplet,D#5
2963,Right,0,76,88,517.0,0.322917,Triplet,E5
2964,Right,0,74,91,517.333333,0.322917,Triplet,D5
2965,Right,0,75,94,517.666667,0.322917,Triplet,D#5
2966,Right,0,71,96,518.0,0.989583,Quarter,B4
2967,Left,1,56,96,518.0,0.989583,Quarter,G#3_E4_B3
2970,Right,0,78,99,518.333333,0.322917,Triplet,F#5
2971,Right,0,76,102,518.666667,0.322917,Triplet,E5
2972,Right,0,73,105,519.0,0.989583,Quarter,C#5
2973,Left,1,66,105,519.0,0.989583,Quarter,F#4_C#4_A3
2976,Right,0,80,108,519.333333,0.322917,Triplet,G#5
2977,Right,0,78,110,519.666667,0.322917,Triplet,F#5
2980,Right,0,76,110,520.0,1.989583,Half,G#5_E5
2978,Left,1,64,110,520.0,2.989583,Half,G#4_E4_B3
2983,Right,0,79,110,520.333333,0.322917,Triplet,G5
2984,Right,0,80,110,520.666667,0.322917,Triplet,G#5
2985,Right,0,83,110,521.0,0.322917,Triplet,B5
2986,Right,0,81,110,521.333333,0.322917,Triplet,A5
2987,Right,0,80,110,521.666667,0.322917,Triplet,G#5
2988,Left,1,63,110,522.0,0.989583,Quarter,F#4_D#4
2990,Right,0,78,110,522.0,0.322917,Triplet,F#5_D#5
2992,Right,0,73,107,522.333333,0.322917,Triplet,E5_C#5
2994,Right,0,71,103,522.666667,0.322917,Triplet,D#5_B4
2998,Left,1,47,99,523.0,0.322917,Triplet,B2
2996,Right,0,73,99,523.0,0.322917,Triplet,C#5_A4
3000,Right,0,68,95,523.333333,0.322917,Triplet,G#4_B4
2999,Left,1,49,95,523.333333,0.322917,Triplet,C#3
3002,Left,1,51,91,523.666667,0.322917,Triplet,D#3
3003,Right,0,69,91,523.666667,0.322917,Triplet,F#4_A4
3005,Right,0,68,80,524.0,1.989583,Triplet,G#4_B3
3006,Left,1,56,80,524.0,1.989583,Half,G#3_E3
3009,Right,0,67,80,524.333333,0.322917,Triplet,G4
3010,Right,0,68,80,524.666667,0.322917,Triplet,G#4
3011,Right,0,69,80,525.0,0.322917,Triplet,A4
3012,Right,0,67,80,525.333333,0.322917,Triplet,G4
3013,Right,0,68,80,525.666667,0.322917,Triplet,G#4
3014,Left,1,54,80,526.0,0.989583,Quarter,F#3_D#3_B2
3017,Right,0,57,80,526.0,0.989583,Quarter,A3
3018,Right,0,68,80,526.333333,0.322917,Triplet,G#4
3019,Right,0,66,80,526.666667,0.322917,Triplet,F#4
3022,Right,0,56,80,527.0,0.989583,Quarter,G#3
3020,Left,1,52,80,527.0,0.989583,Quarter,E3_C#3
3023,Right,0,66,80,527.333333,0.322917,Triplet,F#4
3024,Right,0,64,80,527.666667,0.322917,Triplet,E4
3025,Left,1,48,80,528.0,1.989583,Half,G#2_D#3_C3
3027,Right,0,54,80,528.0,1.989583,Half,F#3
3029,Right,0,60,80,528.333333,0.322917,Triplet,C4
3030,Right,0,63,80,528.666667,0.322917,Triplet,D#4
3031,Right,0,64,80,529.0,0.322917,Triplet,E4
3032,Right,0,60,80,529.333333,0.322917,Triplet,C4
3033,Right,0,63,80,529.666667,0.322917,Triplet,D#4
3034,Left,1,49,80,530.0,1.989583,Half,C#3_A2
3036,Right,0,52,80,530.0,1.989583,Half,E3
3037,Right,0,57,80,530.333333,0.322917,Triplet,A3
3038,Right,0,61,80,530.666667,0.322917,Triplet,C#4
3039,Right,0,63,80,531.0,0.322917,Triplet,D#4
3040,Right,0,57,80,531.333333,0.322917,Triplet,A3
3041,Right,0,61,80,531.666667,0.322917,Triplet,C#4
3042,Right,0,52,80,532.0,0.989583,Quarter,E3
3043,Left,1,47,80,532.0,3.989583,Whole,B2_B1
3045,Right,0,56,82,532.333333,0.322917,Triplet,G#3
3046,Right,0,59,85,532.666667,0.322917,Triplet,B3
3047,Right,0,54,88,533.0,0.989583,Quarter,F#3
3048,Right,0,57,91,533.333333,0.322917,Triplet,A3
3049,Right,0,59,94,533.666667,0.322917,Triplet,B3
3050,Right,0,54,96,534.0,0.989583,Quarter,F#3
3051,Right,0,57,99,534.333333,0.322917,Triplet,A3
3052,Right,0,61,102,534.666667,0.322917,Triplet,C#4
3053,Right,0,54,105,535.0,0.989583,Quarter,F#3
3054,Right,0,61,108,535.333333,0.322917,Triplet,C#4
3055,Right,0,63,110,535.666667,0.322917,Triplet,D#4
3056,Right,0,64,110,536.0,0.322917,Triplet,G#3_E4
3058,Left,1,40,110,536.0,0.989583,Quarter,E3_E2
3060,Right,0,59,110,536.333333,0.322917,Triplet,B3
3061,Right,0,56,110,536.666667,0.322917,Triplet,G#3
3062,Right,0,59,110,537.0,0.322917,Triplet,B3
3063,Left,1,47,110,537.0,1.989583,Half,B2
3064,Right,0,64,110,537.333333,0.322917,Triplet,E4
3065,Right,0,68,110,537.666667,0.322917,Triplet,G#4
3066,Right,0,66,110,538.0,0.322917,Triplet,F#4
3067,Right,0,63,110,538.333333,0.322917,Triplet,D#4
3068,Right,0,59,110,538.666667,0.322917,Triplet,B3
3069,Right,0,63,110,539.0,0.322917,Triplet,D#4
3070,Left,1,47,110,539.0,1.989583,Half,B2
3071,Right,0,66,110,539.333333,0.322917,Triplet,F#4
3072,Right,0,69,110,539.666667,0.322917,Triplet,A4
3073,Right,0,68,110,540.0,0.322917,Triplet,G#4
3074,Right,0,64,110,540.333333,0.322917,Triplet,E4
3075,Right,0,59,110,540.666667,0.322917,Triplet,B3
3077,Left,1,47,110,541.0,1.989583,Half,B2
3076,Right,0,64,110,541.0,0.322917,Triplet,E4
3078,Right,0,68,110,541.333333,0.322917,Triplet,G#4
3079,Right,0,71,110,541.666667,0.322917,Triplet,B4
3080,Right,0,69,110,542.0,0.322917,Triplet,A4
3081,Right,0,66,110,542.333333,0.322917,Triplet,F#4
3082,Right,0,63,110,542.666667,0.322917,Triplet,D#4
3084,Right,0,75,110,543.0,0.322917,Triplet,D#5
3083,Left,1,47,110,543.0,0.989583,Quarter,B2
3085,Right,0,71,110,543.333333,0.322917,Triplet,B4
3086,Right,0,66,110,543.666667,0.322917,Triplet,F#4
3087,Right,0,76,110,544.0,0.989583,Quarter,G#4_E5
3089,Left,1,52,110,544.0,0.322917,Triplet,E3
3090,Left,1,47,110,544.333333,0.322917,Triplet,B2
3091,Left,1,44,110,544.666667,0.322917,Triplet,G#2
3093,Right,0,71,110,545.0,1.989583,Half,B4
3092,Left,1,47,110,545.0,0.322917,Triplet,B2
3094,Left,1,52,110,545.333333,0.322917,Triplet,E3
3095,Left,1,56,110,545.666667,0.322917,Triplet,G#3
3096,Left,1,54,110,546.0,0.322917,Triplet,F#3
3097,Left,1,51,110,546.333333,0.322917,Triplet,D#3
3098,Left,1,47,110,546.666667,0.322917,Triplet,B2
3100,Right,0,71,110,547.0,1.989583,Half,B4
3099,Left,1,51,110,547.0,0.322917,Triplet,D#3
3101,Left,1,54,110,547.333333,0.322917,Triplet,F#3
3102,Left,1,57,110,547.666667,0.322917,Triplet,A3
3103,Left,1,56,110,548.0,0.322917,Triplet,G#3
3104,Left,1,52,110,548.333333,0.322917,Triplet,E3
3105,Left,1,47,110,548.666667,0.322917,Triplet,B2
3107,Left,1,52,110,549.0,0.322917,Triplet,E3
3106,Right,0,71,110,549.0,1.989583,Half,B4
3108,Left,1,56,110,549.333333,0.322917,Triplet,G#3
3109,Left,1,59,110,549.666667,0.322917,Triplet,B3
3110,Left,1,57,110,550.0,0.322917,Triplet,A3
3111,Left,1,54,110,550.333333,0.322917,Triplet,F#3
3112,Left,1,51,110,550.666667,0.322917,Triplet,D#3
3113,Left,1,63,110,551.0,0.322917,Triplet,D#4
3114,Right,0,71,110,551.0,0.989583,Quarter,B4
3115,Left,1,59,110,551.333333,0.322917,Triplet,B3
3116,Left,1,54,110,551.666667,0.322917,Triplet,F#3
3117,Left,1,56,110,552.0,0.322917,Triplet,G#3
3118,Right,0,76,110,552.0,0.322917,Triplet,E5
3119,Right,0,71,110,552.333333,0.322917,Triplet,B4
3120,Left,1,59,110,552.333333,0.322917,Triplet,B3
3121,Left,1,64,110,552.666667,0.322917,Triplet,E4
3122,Right,0,68,110,552.666667,0.322917,Triplet,G#4
3124,Left,1,59,110,553.0,0.322917,Triplet,B3
3123,Right,0,71,110,553.0,0.322917,Triplet,B4
3125,Left,1,56,110,553.333333,0.322917,Triplet,G#3
3126,Right,0,76,110,553.333333,0.322917,Triplet,E5
3128,Right,0,80,110,553.666667,0.322917,Triplet,G#5
3127,Left,1,52,110,553.666667,0.322917,Triplet,E3
3130,Left,1,51,110,554.0,0.322917,Triplet,D#3
3129,Right,0,78,110,554.0,0.322917,Triplet,F#5
3132,Right,0,75,110,554.333333,0.322917,Triplet,D#5
3131,Left,1,54,110,554.333333,0.322917,Triplet,F#3
3134,Right,0,71,110,554.666667,0.322917,Triplet,B4
3133,Left,1,57,110,554.666667,0.322917,Triplet,A3
3136,Right,0,75,110,555.0,0.322917,Triplet,D#5
3135,Left,1,54,110,555.0,0.322917,Triplet,F#3
3137,Right,0,78,110,555.333333,0.322917,Triplet,F#5
3138,Left,1,51,110,555.333333,0.322917,Triplet,D#3
3140,Left,1,47,110,555.666667,0.322917,Triplet,B2
3139,Right,0,81,110,555.666667,0.322917,Triplet,A5
3141,Right,0,80,110,556.0,0.322917,Triplet,G#5
3142,Left,1,52,110,556.0,0.322917,Triplet,E3
3143,Right,0,76,110,556.333333,0.322917,Triplet,E5
3144,Left,1,56,110,556.333333,0.322917,Triplet,G#3
3146,Right,0,71,110,556.666667,0.322917,Triplet,B4
3145,Left,1,59,110,556.666667,0.322917,Triplet,B3
3148,Right,0,76,110,557.0,0.322917,Triplet,E5
3147,Left,1,56,110,557.0,0.322917,Triplet,G#3
3149,Left,1,52,110,557.333333,0.322917,Triplet,E3
3150,Right,0,80,110,557.333333,0.322917,Triplet,G#5
3151,Left,1,47,110,557.666667,0.322917,Triplet,B2
3152,Right,0,83,110,557.666667,0.322917,Triplet,B5
3153,Left,1,54,110,558.0,0.322917,Triplet,F#3
3154,Right,0,81,110,558.0,0.322917,Triplet,A5
3156,Right,0,78,110,558.333333,0.322917,Triplet,F#5
3155,Left,1,57,110,558.333333,0.322917,Triplet,A3
3158,Right,0,75,110,558.666667,0.322917,Triplet,D#5
3157,Left,1,59,110,558.666667,0.322917,Triplet,B3
3160,Left,1,57,110,559.0,0.322917,Triplet,A3
3159,Right,0,87,110,559.0,0.322917,Triplet,D#6
3162,Left,1,59,110,559.333333,0.322917,Triplet,B3
3161,Right,0,83,110,559.333333,0.322917,Triplet,B5
3164,Left,1,66,110,559.666667,0.322917,Triplet,F#4
3163,Right,0,78,110,559.666667,0.322917,Triplet,F#5
3165,Right,0,88,110,560.0,0.322917,Triplet,E6
3166,Left,1,56,110,560.0,0.322917,Triplet,G#3
3168,Left,1,59,110,560.333333,0.322917,Triplet,B3
3167,Right,0,83,110,560.333333,0.322917,Triplet,B5
3170,Left,1,64,110,560.666667,0.322917,Triplet,E4
3169,Right,0,80,110,560.666667,0.322917,Triplet,G#5
3171,Left,1,52,110,561.0,0.322917,Triplet,E3
3172,Right,0,83,110,561.0,0.322917,Triplet,B5
3173,Left,1,56,110,561.333333,0.322917,Triplet,G#3
3174,Right,0,80,110,561.333333,0.322917,Triplet,G#5
3176,Right,0,76,109,561.666667,0.322917,Triplet,E5
3175,Left,1,59,109,561.666667,0.322917,Triplet,B3
3177,Left,1,54,108,562.0,0.322917,Triplet,F#3
3178,Right,0,81,108,562.0,0.322917,Triplet,A5
3179,Left,1,57,107,562.333333,0.322917,Triplet,A3
3180,Right,0,78,107,562.333333,0.322917,Triplet,F#5
3182,Left,1,59,106,562.666667,0.322917,Triplet,B3
3181,Right,0,75,106,562.666667,0.322917,Triplet,D#5
3184,Left,1,57,105,563.0,0.322917,Triplet,A3
3183,Right,0,87,105,563.0,0.322917,Triplet,D#6
3186,Left,1,59,104,563.333333,0.322917,Triplet,B3
3185,Right,0,83,104,563.333333,0.322917,Triplet,B5
3188,Left,1,66,103,563.666667,0.322917,Triplet,F#4
3187,Right,0,78,103,563.666667,0.322917,Triplet,F#5
3189,Right,0,88,102,564.0,0.322917,Triplet,E6
3190,Left,1,56,102,564.0,0.322917,Triplet,G#3
3191,Right,0,83,101,564.333333,0.322917,Triplet,B5
3192,Left,1,59,101,564.333333,0.322917,Triplet,B3
3194,Right,0,80,100,564.666667,0.322917,Triplet,G#5
3193,Left,1,64,100,564.666667,0.322917,Triplet,E4
3196,Right,0,83,99,565.0,0.322917,Triplet,B5
3195,Left,1,52,99,565.0,0.322917,Triplet,E3
3198,Right,0,80,98,565.333333,0.322917,Triplet,G#5
3197,Left,1,56,98,565.333333,0.322917,Triplet,G#3
3200,Right,0,76,97,565.666667,0.322917,Triplet,E5
3199,Left,1,59,97,565.666667,0.322917,Triplet,B3
3202,Right,0,81,96,566.0,0.322917,Triplet,A5
3201,Left,1,54,96,566.0,0.322917,Triplet,F#3
3204,Right,0,78,95,566.333333,0.322917,Triplet,F#5
3203,Left,1,57,95,566.333333,0.322917,Triplet,A3
3205,Left,1,59,94,566.666667,0.322917,Triplet,B3
3206,Right,0,75,94,566.666667,0.322917,Triplet,D#5
3207,Left,1,57,93,567.0,0.322917,Triplet,A3
3208,Right,0,87,93,567.0,0.322917,Triplet,D#6
3210,Right,0,83,92,567.333333,0.322917,Triplet,B5
3209,Left,1,59,92,567.333333,0.322917,Triplet,B3
3211,Left,1,66,91,567.666667,0.322917,Triplet,F#4
3212,Right,0,78,91,567.666667,0.322917,Triplet,F#5
3214,Left,1,56,90,568.0,0.239583,Sixteenth,G#3
3213,Right,0,88,90,568.0,0.239583,Sixteenth,E6
3215,Right,0,83,90,568.25,0.239583,Sixteenth,B5
3216,Left,1,59,90,568.25,0.239583,Sixteenth,B3
3217,Right,0,80,91,568.5,0.239583,Sixteenth,G#5
3218,Left,1,52,91,568.5,0.239583,Sixteenth,E3
3219,Right,0,76,92,568.75,0.239583,Sixteenth,E5
3220,Left,1,59,92,568.75,0.239583,Sixteenth,B3
3221,Right,0,81,92,569.0,0.239583,Sixteenth,A5
3222,Left,1,54,92,569.0,0.239583,Sixteenth,F#3
3224,Right,0,78,93,569.25,0.239583,Sixteenth,F#5
3223,Left,1,59,93,569.25,0.239583,Sixteenth,B3
3226,Left,1,57,94,569.5,0.239583,Sixteenth,A3
3225,Right,0,87,94,569.5,0.239583,Sixteenth,D#6
3228,Left,1,59,94,569.75,0.239583,Sixteenth,B3
3227,Right,0,83,94,569.75,0.239583,Sixteenth,B5
3230,Left,1,56,95,570.0,0.239583,Sixteenth,G#3
3229,Right,0,88,95,570.0,0.239583,Sixteenth,E6
3231,Left,1,59,96,570.25,0.239583,Sixteenth,B3
3232,Right,0,83,96,570.25,0.239583,Sixteenth,B5
3234,Right,0,80,96,570.5,0.239583,Sixteenth,G#5
3233,Left,1,52,96,570.5,0.239583,Sixteenth,E3
3236,Right,0,76,97,570.75,0.239583,Sixteenth,E5
3235,Left,1,59,97,570.75,0.239583,Sixteenth,B3
3237,Right,0,81,98,571.0,0.239583,Sixteenth,A5
3238,Left,1,54,98,571.0,0.239583,Sixteenth,F#3
3240,Left,1,59,98,571.25,0.239583,Sixteenth,B3
3239,Right,0,78,98,571.25,0.239583,Sixteenth,F#5
3242,Left,1,57,99,571.5,0.239583,Sixteenth,A3
3241,Right,0,87,99,571.5,0.239583,Sixteenth,D#6
3244,Left,1,59,100,571.75,0.239583,Sixteenth,B3
3243,Right,0,83,100,571.75,0.239583,Sixteenth,B5
3246,Left,1,56,100,572.0,0.239583,Sixteenth,G#3
3245,Right,0,88,100,572.0,0.239583,Sixteenth,E6
3248,Left,1,59,101,572.25,0.239583,Sixteenth,B3
3247,Right,0,83,101,572.25,0.239583,Sixteenth,B5
3250,Right,0,87,102,572.5,0.239583,Sixteenth,D#6
3249,Left,1,57,102,572.5,0.239583,Sixteenth,A3
3251,Right,0,83,102,572.75,0.239583,Sixteenth,B5
3252,Left,1,59,102,572.75,0.239583,Sixteenth,B3
3254,Left,1,56,103,573.0,0.239583,Sixteenth,G#3
3253,Right,0,88,103,573.0,0.239583,Sixteenth,E6
3256,Right,0,83,104,573.25,0.239583,Sixteenth,B5
3255,Left,1,59,104,573.25,0.239583,Sixteenth,B3
3258,Left,1,57,104,573.5,0.239583,Sixteenth,A3
3257,Right,0,87,104,573.5,0.239583,Sixteenth,D#6
3260,Right,0,83,105,573.75,0.239583,Sixteenth,B5
3259,Left,1,59,105,573.75,0.239583,Sixteenth,B3
3262,Right,0,88,106,574.0,0.239583,Sixteenth,E6
3261,Left,1,56,106,574.0,0.239583,Sixteenth,G#3
3264,Right,0,83,106,574.25,0.239583,Sixteenth,B5
3263,Left,1,59,106,574.25,0.239583,Sixteenth,B3
3266,Left,1,57,107,574.5,0.239583,Sixteenth,A3
3265,Right,0,87,107,574.5,0.239583,Sixteenth,D#6
3268,Left,1,59,108,574.75,0.239583,Sixteenth,B3
3267,Right,0,83,108,574.75,0.239583,Sixteenth,B5
3270,Left,1,56,108,575.0,0.239583,Sixteenth,G#3
3269,Right,0,88,108,575.0,0.239583,Sixteenth,E6
3271,Right,0,83,109,575.25,0.239583,Sixteenth,B5
3272,Left,1,59,109,575.25,0.239583,Sixteenth,B3
3274,Left,1,57,110,575.5,0.239583,Sixteenth,A3
3273,Right,0,87,110,575.5,0.239583,Sixteenth,D#6
3275,Left,1,59,110,575.75,0.239583,Sixteenth,B3
3276,Right,0,83,110,575.75,0.239583,Sixteenth,B5
3278,Left,1,56,110,576.0,0.239583,Sixteenth,G#3
3277,Right,0,88,110,576.0,0.239583,Sixteenth,E6
3279,Right,0,83,110,576.25,0.239583,Sixteenth,B5
3280,Left,1,59,110,576.25,0.239583,Sixteenth,B3
3282,Right,0,86,110,576.5,0.239583,Sixteenth,D6
3281,Left,1,44,110,576.5,0.239583,Sixteenth,G#2
3284,Right,0,83,110,576.75,0.239583,Sixteenth,B5
3283,Left,1,52,110,576.75,0.239583,Sixteenth,E3
3285,Left,1,44,110,577.0,0.239583,Sixteenth,G#2
3286,Right,0,86,110,577.0,0.239583,Sixteenth,D6
3288,Right,0,83,110,577.25,0.239583,Sixteenth,B5
3287,Left,1,52,110,577.25,0.239583,Sixteenth,E3
3289,Right,0,86,110,577.5,0.239583,Sixteenth,D6
3290,Left,1,44,110,577.5,0.239583,Sixteenth,G#2
3291,Right,0,83,110,577.75,0.239583,Sixteenth,B5
3292,Left,1,52,110,577.75,0.239583,Sixteenth,E3
3294,Right,0,86,110,578.0,0.239583,Sixteenth,D6
3293,Left,1,44,110,578.0,0.239583,Sixteenth,G#2
3295,Right,0,83,110,578.25,0.239583,Sixteenth,B5
3296,Left,1,52,110,578.25,0.239583,Sixteenth,E3
3297,Right,0,86,110,578.5,0.239583,Sixteenth,D6
3298,Left,1,44,110,578.5,0.239583,Sixteenth,G#2
3299,Right,0,83,110,578.75,0.239583,Sixteenth,B5
3300,Left,1,52,110,578.75,0.239583,Sixteenth,E3
3301,Right,0,86,110,579.0,0.239583,Sixteenth,D6
3302,Left,1,44,110,579.0,0.239583,Sixteenth,G#2
3304,Right,0,83,110,579.25,0.239583,Sixteenth,B5
3303,Left,1,52,110,579.25,0.239583,Sixteenth,E3
3305,Right,0,86,110,579.5,0.239583,Sixteenth,D6
3306,Left,1,44,110,579.5,0.239583,Sixteenth,G#2
3308,Right,0,83,110,579.75,0.239583,Sixteenth,B5
3307,Left,1,52,110,579.75,0.239583,Sixteenth,E3
3309,Left,1,44,110,580.0,0.239583,Sixteenth,G#2
3310,Right,0,86,110,580.0,0.489583,Eighth,D6
3311,Left,1,52,110,580.25,0.239583,Sixteenth,E3
3312,Left,1,44,110,580.5,0.239583,Sixteenth,G#2
3313,Right,0,85,110,580.5,0.239583,Sixteenth,C#6
3314,Left,1,52,110,580.75,0.239583,Sixteenth,E3
3315,Right,0,83,110,580.75,0.239583,Sixteenth,B5
3317,Left,1,44,110,581.0,0.239583,Sixteenth,G#2
3316,Right,0,81,110,581.0,0.239583,Sixteenth,A5
3318,Left,1,52,110,581.25,0.239583,Sixteenth,E3
3319,Right,0,80,110,581.25,0.239583,Sixteenth,G#5
3320,Left,1,44,110,581.5,0.239583,Sixteenth,G#2
3321,Right,0,78,110,581.5,0.239583,Sixteenth,F#5
3323,Left,1,52,110,581.75,0.239583,Sixteenth,E3
3322,Right,0,76,110,581.75,0.239583,Sixteenth,E5
3324,Left,1,44,110,582.0,0.239583,Sixteenth,G#2
3325,Right,0,74,110,582.0,0.239583,Sixteenth,D5
3326,Right,0,73,110,582.25,0.239583,Sixteenth,C#5
3327,Left,1,52,110,582.25,0.239583,Sixteenth,E3
3329,Left,1,44,110,582.5,0.239583,Sixteenth,G#2
3328,Right,0,71,110,582.5,0.239583,Sixteenth,B4
3331,Left,1,52,110,582.75,0.239583,Sixteenth,E3
3330,Right,0,69,110,582.75,0.239583,Sixteenth,A4
3332,Left,1,44,110,583.0,0.239583,Sixteenth,G#2
3333,Right,0,68,110,583.0,0.239583,Sixteenth,G#4
3335,Left,1,52,110,583.25,0.239583,Sixteenth,E3
3334,Right,0,66,110,583.25,0.239583,Sixteenth,F#4
3337,Left,1,44,110,583.5,0.239583,Sixteenth,G#2
3336,Right,0,64,110,583.5,0.239583,Sixteenth,E4
3339,Left,1,52,110,583.75,0.239583,Sixteenth,E3
3338,Right,0,62,110,583.75,0.239583,Sixteenth,D4
3343,Right,0,61,120,584.0,0.239583,Sixteenth,C#4
3340,Left,1,49,120,584.0,0.489583,Eighth,E3_C#3_A2
3344,Right,0,63,120,584.25,0.239583,Sixteenth,D#4
3345,Left,1,52,120,584.5,0.489583,Eighth,E3_C#3_A2
3348,Right,0,64,120,584.5,0.239583,Sixteenth,E4
3349,Right,0,63,120,584.75,0.239583,Sixteenth,D#4
3350,Right,0,64,120,585.0,0.239583,Sixteenth,E4
3351,Right,0,68,120,585.25,0.239583,Sixteenth,G#4
3352,Right,0,69,120,585.5,0.239583,Sixteenth,A4
3353,Left,1,52,120,585.5,0.489583,Eighth,E3_C#3_A2
3356,Right,0,68,120,585.75,0.239583,Sixteenth,G#4
3357,Right,0,69,120,586.0,0.239583,Sixteenth,A4
3358,Left,1,45,120,586.0,0.489583,Eighth,E3_C#3_A2
3361,Right,0,72,120,586.25,0.239583,Sixteenth,C5
3362,Left,1,49,120,586.5,0.489583,Eighth,E3_C#3_A2
3365,Right,0,73,120,586.5,0.239583,Sixteenth,C#5
3366,Right,0,72,120,586.75,0.239583,Sixteenth,C5
3367,Right,0,73,120,587.0,0.239583,Sixteenth,C#5
3368,Right,0,75,120,587.25,0.239583,Sixteenth,D#5
3371,Right,0,76,120,587.5,0.239583,Sixteenth,E5
3369,Left,1,52,120,587.5,0.489583,Eighth,E3_C#3_A2
3373,Right,0,75,120,587.75,0.239583,Sixteenth,D#5
3377,Right,0,76,120,588.0,0.239583,Sixteenth,E5
3374,Left,1,45,120,588.0,0.489583,Eighth,E3_C#3_A2
3378,Right,0,80,120,588.25,0.239583,Sixteenth,G#5
3381,Right,0,81,120,588.5,0.239583,Sixteenth,A5
3379,Left,1,45,120,588.5,0.489583,Eighth,E3_C#3_A2
3383,Right,0,80,120,588.75,0.239583,Sixteenth,G#5
3384,Right,0,81,120,589.0,0.239583,Sixteenth,A5
3385,Right,0,84,120,589.25,0.239583,Sixteenth,C6
3388,Right,0,85,120,589.5,0.239583,Sixteenth,C#6
3386,Left,1,49,120,589.5,0.489583,Eighth,E3_C#3_A2
3390,Right,0,84,120,589.75,0.239583,Sixteenth,C6
3394,Right,0,85,120,590.0,0.239583,Sixteenth,C#6
3391,Left,1,52,120,590.0,0.489583,Eighth,E3_C#3_A2
3395,Right,0,87,120,590.25,0.239583,Sixteenth,D#6
3397,Right,0,88,120,590.5,0.239583,Sixteenth,E6
3396,Left,1,52,120,590.5,0.489583,Eighth,E3_C#3_A2
3400,Right,0,87,120,590.75,0.239583,Sixteenth,D#6
3401,Right,0,88,120,591.0,0.239583,Sixteenth,E6
3402,Right,0,87,120,591.25,0.239583,Sixteenth,D#6
3406,Right,0,85,120,591.5,0.239583,Sixteenth,C#6
3403,Left,1,52,120,591.5,0.489583,Eighth,E3_C#3_A2
3407,Right,0,84,120,591.75,0.239583,Sixteenth,C6
3408,Left,1,52,120,592.0,0.489583,Eighth,F#3_E3_C#3_A#2
3412,Right,0,85,120,592.0,0.239583,Sixteenth,C#6
3413,Right,0,84,120,592.25,0.239583,Sixteenth,C6
3416,Right,0,85,120,592.5,0.239583,Sixteenth,C#6
3414,Left,1,54,120,592.5,0.489583,Eighth,F#3_E3_C#3_A#2
3419,Right,0,87,120,592.75,0.239583,Sixteenth,D#6
3420,Right,0,88,120,593.0,0.239583,Sixteenth,E6
3421,Right,0,87,120,593.25,0.239583,Sixteenth,D#6
3423,Right,0,85,120,593.5,0.239583,Sixteenth,C#6
3422,Left,1,54,120,593.5,0.489583,Eighth,F#3_E3_C#3_A#2
3427,Right,0,84,120,593.75,0.239583,Sixteenth,C6
3429,Left,1,54,120,594.0,0.489583,Eighth,F#3_E3_C#3_A#2
3428,Right,0,85,120,594.0,0.239583,Sixteenth,C#6
3433,Right,0,84,120,594.25,0.239583,Sixteenth,C6
3436,Right,0,85,120,594.5,0.239583,Sixteenth,C#6
3434,Left,1,52,120,594.5,0.489583,Eighth,F#3_E3_C#3_A#2
3439,Right,0,87,120,594.75,0.239583,Sixteenth,D#6
3440,Right,0,88,120,595.0,0.239583,Sixteenth,E6
3441,Right,0,87,120,595.25,0.239583,Sixteenth,D#6
3445,Right,0,85,120,595.5,0.239583,Sixteenth,C#6
3442,Left,1,46,120,595.5,0.489583,Eighth,F#3_E3_C#3_A#2
3447,Right,0,84,120,595.75,0.239583,Sixteenth,C6
3449,Left,1,46,120,596.0,0.489583,Eighth,F#3_E3_C#3_A#2
3448,Right,0,85,120,596.0,0.239583,Sixteenth,C#6
3453,Right,0,84,120,596.25,0.239583,Sixteenth,C6
3454,Right,0,85,120,596.5,0.239583,Sixteenth,C#6
3455,Left,1,54,120,596.5,0.489583,Eighth,F#3_E3_C#3_A#2
3459,Right,0,87,120,596.75,0.239583,Sixteenth,D#6
3460,Right,0,88,120,597.0,0.239583,Sixteenth,E6
3461,Right,0,87,120,597.25,0.239583,Sixteenth,D#6
3462,Right,0,85,120,597.5,0.239583,Sixteenth,C#6
3463,Left,1,54,120,597.5,0.489583,Eighth,F#3_E3_C#3_A#2
3467,Right,0,84,120,597.75,0.239583,Sixteenth,C6
3468,Right,0,85,120,598.0,0.239583,Sixteenth,C#6
3469,Left,1,46,120,598.0,0.489583,Eighth,F#3_E3_C#3_A#2
3473,Right,0,84,120,598.25,0.239583,Sixteenth,C6
3475,Left,1,54,120,598.5,0.489583,Eighth,F#3_E3_C#3_A#2
3474,Right,0,85,120,598.5,0.239583,Sixteenth,C#6
3479,Right,0,87,120,598.75,0.239583,Sixteenth,D#6
3480,Right,0,88,120,599.0,0.239583,Sixteenth,E6
3481,Right,0,87,120,599.25,0.239583,Sixteenth,D#6
3483,Right,0,88,120,599.5,0.239583,Sixteenth,E6
3482,Left,1,49,120,599.5,0.489583,Eighth,F#3_E3_C#3_A#2
3487,Right,0,84,120,599.75,0.239583,Sixteenth,C6
3489,Left,1,47,120,600.0,0.239583,Sixteenth,B2
3488,Right,0,83,120,600.0,0.489583,Eighth,B5_B4
3491,Left,1,52,120,600.25,0.239583,Sixteenth,E3
3492,Left,1,56,120,600.5,0.239583,Sixteenth,G#3
3493,Right,0,83,120,600.5,0.489583,Eighth,B5_B4
3495,Left,1,59,120,600.75,0.239583,Sixteenth,B3
3496,Right,0,80,120,601.0,0.489583,Eighth,G#5_G#4
3498,Left,1,47,120,601.0,0.239583,Sixteenth,B2
3499,Left,1,52,120,601.25,0.239583,Sixteenth,E3
3500,Right,0,64,120,601.5,0.489583,Eighth,E5_E4
3502,Left,1,56,120,601.5,0.239583,Sixteenth,G#3
3503,Left,1,59,120,601.75,0.239583,Sixteenth,B3
3504,Right,0,76,120,602.0,0.489583,Eighth,E6_E5
3505,Left,1,47,120,602.0,0.239583,Sixteenth,B2
3507,Left,1,52,120,602.25,0.239583,Sixteenth,E3
3509,Right,0,76,120,602.5,0.489583,Eighth,E6_E5
3508,Left,1,56,120,602.5,0.239583,Sixteenth,G#3
3511,Left,1,59,120,602.75,0.239583,Sixteenth,B3
3514,Left,1,47,120,603.0,0.239583,Sixteenth,B2
3512,Right,0,83,120,603.0,0.489583,Eighth,B5_B4
3515,Left,1,52,120,603.25,0.239583,Sixteenth,E3
3517,Right,0,80,120,603.5,0.489583,Eighth,G#5_G#4
3516,Left,1,56,120,603.5,0.239583,Sixteenth,G#3
3519,Left,1,59,120,603.75,0.239583,Sixteenth,B3
3520,Right,0,71,120,604.0,0.489583,Eighth,B5_B4
3522,Left,1,47,120,604.0,0.239583,Sixteenth,B2
3523,Left,1,52,120,604.25,0.239583,Sixteenth,E3
3525,Right,0,71,120,604.5,0.489583,Eighth,B5_B4
3524,Left,1,56,120,604.5,0.239583,Sixteenth,G#3
3527,Left,1,59,120,604.75,0.239583,Sixteenth,B3
3529,Right,0,68,120,605.0,0.489583,Eighth,G#5_G#4
3528,Left,1,47,120,605.0,0.239583,Sixteenth,B2
3531,Left,1,52,120,605.25,0.239583,Sixteenth,E3
3532,Right,0,76,120,605.5,0.489583,Eighth,E5_E4
3533,Left,1,56,120,605.5,0.239583,Sixteenth,G#3
3535,Left,1,59,120,605.75,0.239583,Sixteenth,B3
3537,Right,0,88,120,606.0,0.489583,Eighth,E6_E5
3536,Left,1,56,120,606.0,0.489583,Eighth,G#3
3540,Right,0,88,120,606.5,0.489583,Eighth,E6_E5
3539,Left,1,56,120,606.5,0.489583,Eighth,G#3
3543,Right,0,71,120,607.0,0.489583,Eighth,B5_B4
3542,Left,1,52,120,607.0,0.489583,Eighth,E3
3545,Left,1,47,120,607.5,0.489583,Eighth,B2
3546,Right,0,68,120,607.5,0.489583,Eighth,G#5_G#4
3548,Left,1,59,120,608.0,0.489583,Eighth,B3
3549,Right,0,80,80,608.25,0.239583,Sixteenth,G#5
3550,Right,0,83,80,608.5,0.239583,Sixteenth,B5
3551,Left,1,56,80,608.5,0.489583,Eighth,G#3
3552,Right,0,80,80,608.75,0.239583,Sixteenth,G#5
3554,Right,0,83,80,609.0,0.239583,Sixteenth,B5
3553,Left,1,64,80,609.0,0.489583,Eighth,E4
3555,Right,0,80,80,609.25,0.239583,Sixteenth,G#5
3557,Left,1,59,80,609.5,0.489583,Eighth,B3
3556,Right,0,83,80,609.5,0.239583,Sixteenth,B5
3558,Right,0,80,80,609.75,0.239583,Sixteenth,G#5
3560,Left,1,68,80,610.0,0.489583,Eighth,G#4
3559,Right,0,83,80,610.0,0.239583,Sixteenth,B5
3561,Right,0,80,80,610.25,0.239583,Sixteenth,G#5
3562,Left,1,64,80,610.5,0.489583,Eighth,E4
3563,Right,0,83,80,610.5,0.239583,Sixteenth,B5
3564,Right,0,80,80,610.75,0.239583,Sixteenth,G#5
3566,Left,1,71,80,611.0,0.489583,Eighth,B4
3565,Right,0,83,80,611.0,0.239583,Sixteenth,B5
3567,Right,0,80,80,611.25,0.239583,Sixteenth,G#5
3569,Left,1,68,80,611.5,0.489583,Eighth,G#4
3568,Right,0,83,80,611.5,0.239583,Sixteenth,B5
3570,Right,0,80,80,611.75,0.239583,Sixteenth,G#5
3572,Left,1,76,80,612.0,0.489583,Eighth,E5
3571,Right,0,83,80,612.0,0.239583,Sixteenth,B5
3573,Right,0,80,80,612.25,0.239583,Sixteenth,G#5
3574,Right,0,83,80,612.5,0.239583,Sixteenth,B5
3575,Left,1,71,80,612.5,0.489583,Eighth,B4
3576,Right,0,80,80,612.75,0.239583,Sixteenth,G#5
3577,Right,0,83,80,613.0,0.239583,Sixteenth,B5
3578,Left,1,76,80,613.0,0.489583,Eighth,E5
3579,Right,0,80,80,613.25,0.239583,Sixteenth,G#5
3580,Right,0,83,80,613.5,0.239583,Sixteenth,B5
3581,Left,1,71,80,613.5,0.489583,Eighth,B4
3582,Right,0,80,80,613.75,0.239583,Sixteenth,G#5
3584,Right,0,83,80,614.0,0.239583,Sixteenth,B5
3583,Left,1,76,80,614.0,0.489583,Eighth,E5
3585,Right,0,80,80,614.25,0.239583,Sixteenth,G#5
3586,Right,0,83,80,614.5,0.239583,Sixteenth,B5
3587,Left,1,71,80,614.5,0.489583,Eighth,B4
3588,Right,0,80,80,614.75,0.239583,Sixteenth,G#5
3590,Left,1,76,80,615.0,0.489583,Eighth,E5
3589,Right,0,83,80,615.0,0.239583,Sixteenth,B5
3591,Right,0,80,80,615.25,0.239583,Sixteenth,G#5
3593,Left,1,71,80,615.5,0.489583,Eighth,B4
3592,Right,0,83,80,615.5,0.239583,Sixteenth,B5
3594,Right,0,80,80,615.75,0.239583,Sixteenth,G#5
3595,Left,1,75,80,616.0,0.489583,Eighth,D#5
3596,Right,0,81,80,616.25,0.239583,Sixteenth,A5
3598,Left,1,71,79,616.5,0.489583,Eighth,B4
3597,Right,0,83,79,616.5,0.239583,Sixteenth,B5
3599,Right,0,81,79,616.75,0.239583,Sixteenth,A5
3600,Right,0,84,78,617.0,0.239583,Sixteenth,C6
3601,Left,1,75,78,617.0,0.489583,Eighth,D#5
3602,Right,0,81,77,617.25,0.239583,Sixteenth,A5
3603,Left,1,71,77,617.5,0.489583,Eighth,B4
3604,Right,0,83,77,617.5,0.239583,Sixteenth,B5
3605,Right,0,81,76,617.75,0.239583,Sixteenth,A5
3607,Left,1,75,75,618.0,0.489583,Eighth,D#5
3606,Right,0,84,75,618.0,0.239583,Sixteenth,C6
3608,Right,0,81,75,618.25,0.239583,Sixteenth,A5
3610,Left,1,71,74,618.5,0.489583,Eighth,B4
3609,Right,0,83,74,618.5,0.239583,Sixteenth,B5
3611,Right,0,81,73,618.75,0.239583,Sixteenth,A5
3613,Left,1,75,73,619.0,0.489583,Eighth,D#5
3612,Right,0,84,73,619.0,0.239583,Sixteenth,C6
3614,Right,0,81,72,619.25,0.239583,Sixteenth,A5
3616,Left,1,71,71,619.5,0.489583,Eighth,B4
3615,Right,0,83,71,619.5,0.239583,Sixteenth,B5
3617,Right,0,81,71,619.75,0.239583,Sixteenth,A5
3618,Left,1,75,70,620.0,0.489583,Eighth,D#5
3619,Right,0,84,70,620.0,0.239583,Sixteenth,C6
3620,Right,0,81,70,620.25,0.239583,Sixteenth,A5
3622,Right,0,83,70,620.5,0.239583,Sixteenth,B5
3621,Left,1,71,70,620.5,0.489583,Eighth,B4
3623,Right,0,81,70,620.75,0.239583,Sixteenth,A5
3624,Left,1,75,70,621.0,0.489583,Eighth,D#5
3625,Right,0,84,70,621.0,0.239583,Sixteenth,C6
3626,Right,0,81,70,621.25,0.239583,Sixteenth,A5
3627,Left,1,71,70,621.5,0.489583,Eighth,B4
3628,Right,0,83,70,621.5,0.239583,Sixteenth,B5
3629,Right,0,81,70,621.75,0.239583,Sixteenth,A5
3630,Right,0,84,70,622.0,0.239583,Sixteenth,C6
3631,Left,1,75,70,622.0,0.489583,Eighth,D#5
3632,Right,0,81,70,622.25,0.239583,Sixteenth,A5
3633,Right,0,83,70,622.5,0.239583,Sixteenth,B5
3634,Left,1,71,70,622.5,0.489583,Eighth,B4
3635,Right,0,81,70,622.75,0.239583,Sixteenth,A5
3636,Right,0,84,70,623.0,0.239583,Sixteenth,C6
3637,Left,1,75,70,623.0,0.489583,Eighth,D#5
3638,Right,0,81,70,623.25,0.239583,Sixteenth,A5
3639,Left,1,71,70,623.5,0.489583,Eighth,B4
3640,Right,0,83,70,623.5,0.239583,Sixteenth,B5
3641,Right,0,81,70,623.75,0.239583,Sixteenth,A5
3642,Left,1,75,70,624.0,0.208333,Sixteenth,D#5
3643,Right,0,85,70,624.0,0.239583,Sixteenth,C#6
3644,Left,1,76,70,624.125,0.229167,Sixteenth,E5
3646,Left,1,75,71,624.25,0.208333,Sixteenth,D#5
3645,Right,0,81,71,624.25,0.239583,Sixteenth,A5
3647,Left,1,76,71,624.375,0.21875,Sixteenth,E5
3649,Left,1,75,72,624.5,0.208333,Sixteenth,D#5
3648,Right,0,83,72,624.5,0.239583,Sixteenth,B5
3650,Left,1,76,73,624.625,0.229167,Sixteenth,E5
3652,Left,1,75,73,624.75,0.208333,Sixteenth,D#5
3651,Right,0,81,73,624.75,0.239583,Sixteenth,A5
3653,Left,1,76,74,624.875,0.21875,Sixteenth,E5
3655,Left,1,75,75,625.0,0.208333,Sixteenth,D#5
3654,Right,0,85,75,625.0,0.239583,Sixteenth,C#6
3656,Left,1,76,75,625.125,0.229167,Sixteenth,E5
3658,Right,0,81,76,625.25,0.239583,Sixteenth,A5
3657,Left,1,75,76,625.25,0.208333,Sixteenth,D#5
3659,Left,1,76,77,625.375,0.21875,Sixteenth,E5
3661,Right,0,83,77,625.5,0.239583,Sixteenth,B5
3660,Left,1,75,77,625.5,0.208333,Sixteenth,D#5
3662,Left,1,76,78,625.625,0.229167,Sixteenth,E5
3663,Left,1,75,78,625.75,0.208333,Sixteenth,D#5
3664,Right,0,81,78,625.75,0.239583,Sixteenth,A5
3665,Left,1,76,79,625.875,0.21875,Sixteenth,E5
3666,Left,1,75,80,626.0,0.208333,Sixteenth,D#5
3667,Right,0,85,80,626.0,0.239583,Sixteenth,C#6
3668,Left,1,76,80,626.125,0.229167,Sixteenth,E5
3669,Left,1,75,81,626.25,0.208333,Sixteenth,D#5
3670,Right,0,81,81,626.25,0.239583,Sixteenth,A5
3671,Left,1,76,82,626.375,0.21875,Sixteenth,E5
3673,Left,1,75,82,626.5,0.208333,Sixteenth,D#5
3672,Right,0,83,82,626.5,0.239583,Sixteenth,B5
3674,Left,1,76,83,626.625,0.229167,Sixteenth,E5
3675,Left,1,75,84,626.75,0.208333,Sixteenth,D#5
3676,Right,0,81,84,626.75,0.239583,Sixteenth,A5
3677,Left,1,76,84,626.875,0.21875,Sixteenth,E5
3678,Right,0,85,85,627.0,0.239583,Sixteenth,C#6
3679,Left,1,75,85,627.0,0.208333,Sixteenth,D#5
3680,Left,1,76,85,627.125,0.229167,Sixteenth,E5
3681,Left,1,75,86,627.25,0.208333,Sixteenth,D#5
3682,Right,0,81,86,627.25,0.239583,Sixteenth,A5
3683,Left,1,76,87,627.375,0.21875,Sixteenth,E5
3684,Right,0,83,87,627.5,0.239583,Sixteenth,B5
3685,Left,1,75,87,627.5,0.208333,Sixteenth,D#5
3686,Left,1,76,88,627.625,0.229167,Sixteenth,E5
3688,Right,0,81,89,627.75,0.239583,Sixteenth,A5
3687,Left,1,75,89,627.75,0.208333,Sixteenth,D#5
3689,Left,1,76,89,627.875,0.21875,Sixteenth,E5
3691,Right,0,90,90,628.0,0.239583,Sixteenth,F#6
3690,Left,1,75,90,628.0,0.208333,Sixteenth,D#5
3692,Left,1,76,91,628.125,0.229167,Sixteenth,E5
3694,Right,0,81,91,628.25,0.239583,Sixteenth,B5_A5
3693,Left,1,75,91,628.25,0.208333,Sixteenth,D#5
3696,Left,1,76,92,628.375,0.21875,Sixteenth,E5
3698,Right,0,90,93,628.5,0.239583,Sixteenth,F#6
3697,Left,1,75,93,628.5,0.208333,Sixteenth,D#5
3699,Left,1,76,93,628.625,0.229167,Sixteenth,E5
3701,Right,0,83,94,628.75,0.239583,Sixteenth,B5_A5
3700,Left,1,75,94,628.75,0.208333,Sixteenth,D#5
3703,Left,1,76,94,628.875,0.21875,Sixteenth,E5
3705,Right,0,90,95,629.0,0.239583,Sixteenth,F#6
3704,Left,1,75,95,629.0,0.208333,Sixteenth,D#5
3706,Left,1,76,96,629.125,0.229167,Sixteenth,E5
3709,Left,1,75,96,629.25,0.208333,Sixteenth,D#5
3707,Right,0,83,96,629.25,0.239583,Sixteenth,B5_A5
3710,Left,1,76,97,629.375,0.21875,Sixteenth,E5
3711,Left,1,75,98,629.5,0.208333,Sixteenth,D#5
3712,Right,0,90,98,629.5,0.239583,Sixteenth,F#6
3713,Left,1,76,98,629.625,0.229167,Sixteenth,E5
3715,Left,1,75,99,629.75,0.208333,Sixteenth,D#5
3714,Right,0,83,99,629.75,0.239583,Sixteenth,B5_A5
3717,Left,1,76,100,629.875,0.21875,Sixteenth,E5
3719,Left,1,75,100,630.0,0.208333,Sixteenth,D#5
3718,Right,0,90,100,630.0,0.239583,Sixteenth,F#6
3720,Left,1,76,101,630.125,0.229167,Sixteenth,E5
3721,Right,0,83,101,630.25,0.239583,Sixteenth,B5_A5
3723,Left,1,75,101,630.25,0.208333,Sixteenth,D#5
3724,Left,1,76,102,630.375,0.21875,Sixteenth,E5
3726,Left,1,75,103,630.5,0.208333,Sixteenth,D#5
3725,Right,0,90,103,630.5,0.239583,Sixteenth,F#6
3727,Left,1,76,103,630.625,0.229167,Sixteenth,E5
3728,Left,1,75,104,630.75,0.208333,Sixteenth,D#5
3729,Right,0,83,104,630.75,0.239583,Sixteenth,B5_A5
3731,Left,1,76,105,630.875,0.21875,Sixteenth,E5
3733,Right,0,90,105,631.0,0.239583,Sixteenth,F#6
3732,Left,1,75,105,631.0,0.208333,Sixteenth,D#5
3734,Left,1,76,106,631.125,0.229167,Sixteenth,E5
3736,Right,0,83,107,631.25,0.239583,Sixteenth,B5_A5
3735,Left,1,75,107,631.25,0.208333,Sixteenth,D#5
3738,Left,1,76,107,631.375,0.21875,Sixteenth,E5
3740,Left,1,75,108,631.5,0.208333,Sixteenth,D#5
3739,Right,0,90,108,631.5,0.239583,Sixteenth,F#6
3741,Left,1,76,109,631.625,0.229167,Sixteenth,E5
3742,Right,0,83,109,631.75,0.239583,Sixteenth,B5_A5
3744,Left,1,73,109,631.75,0.208333,Sixteenth,C#5
3745,Left,1,75,110,631.875,0.114583,ThirtySecond,D#5
3747,Right,0,88,110,632.0,2.989583,DottedHalf,G#5_E6_B5
3746,Left,1,64,110,632.0,7.989583,Unknown,E5_E4
3751,Left,1,68,80,634.0,1.989583,Half,G#4_D5_B4
3754,Right,0,88,80,635.0,0.239583,Sixteenth,E6
3755,Right,0,86,80,635.25,0.239583,Sixteenth,D6
3756,Right,0,84,80,635.5,0.239583,Sixteenth,C6
3757,Right,0,83,80,635.75,0.239583,Sixteenth,B5
3758,Left,1,72,80,636.0,1.989583,Half,C5_A4
3760,Right,0,84,80,636.0,0.239583,Sixteenth,C6
3761,Right,0,83,80,636.25,0.239583,Sixteenth,B5
3762,Right,0,81,80,636.5,0.239583,Sixteenth,A5
3763,Right,0,80,80,636.75,0.239583,Sixteenth,G#5
3764,Right,0,81,80,637.0,0.239583,Sixteenth,A5
3765,Right,0,83,80,637.25,0.239583,Sixteenth,B5
3766,Right,0,84,80,637.5,0.239583,Sixteenth,C6
3767,Right,0,86,80,637.75,0.239583,Sixteenth,D6
3768,Right,0,88,80,638.0,0.239583,Sixteenth,E6
3769,Left,1,71,80,638.0,1.989583,Half,G#4_D5_B4
3772,Right,0,89,80,638.25,0.239583,Sixteenth,F6
3773,Right,0,88,80,638.5,0.239583,Sixteenth,E6
3774,Right,0,87,80,638.75,0.239583,Sixteenth,D#6
3775,Right,0,88,80,639.0,0.239583,Sixteenth,E6
3776,Right,0,86,80,639.25,0.239583,Sixteenth,D6
3777,Right,0,84,80,639.5,0.239583,Sixteenth,C6
3778,Right,0,83,80,639.75,0.239583,Sixteenth,B5
3779,Left,1,72,80,640.0,0.989583,Quarter,C5_A4
3780,Right,0,84,80,640.0,0.239583,Sixteenth,C6
3782,Right,0,86,80,640.25,0.239583,Sixteenth,D6
3783,Right,0,84,80,640.5,0.239583,Sixteenth,C6
3784,Right,0,83,80,640.75,0.239583,Sixteenth,B5
3785,Right,0,81,80,641.0,0.239583,Sixteenth,A5
3786,Right,0,80,80,641.25,0.239583,Sixteenth,G#5
3787,Right,0,81,80,641.5,0.239583,Sixteenth,A5
3788,Right,0,83,80,641.75,0.239583,Sixteenth,B5
3789,Right,0,84,80,642.0,1.989583,Quarter,C6_C5
3790,Left,1,69,80,642.0,1.989583,Half,F#4_C4_A4_A3
3795,Right,0,81,80,643.0,0.489583,Eighth,A5
3796,Right,0,78,80,643.5,0.489583,Eighth,F#5
3797,Left,1,64,80,644.0,1.989583,Half,G4_E4_B3
3800,Right,0,71,80,644.0,1.989583,Half,B5_B4
3802,Right,0,79,80,645.0,0.489583,Eighth,G5
3803,Right,0,76,80,645.5,0.489583,Eighth,E5
3806,Left,1,66,80,646.0,1.989583,Half,F#4_D#4_B3
3804,Right,0,69,80,646.0,1.989583,Half,A5_A4
3809,Right,0,78,80,647.0,0.489583,Eighth,F#5
3810,Right,0,75,80,647.5,0.489583,Eighth,D#5
3811,Left,1,52,100,648.0,7.989583,Unknown,E4_E3
3813,Right,0,76,100,648.0,2.989583,DottedHalf,E5
3814,Left,1,62,80,650.0,1.989583,Half,G#3_D4_B3
3817,Right,0,76,80,651.0,0.239583,Sixteenth,E5
3818,Right,0,74,80,651.25,0.239583,Sixteenth,D5
3819,Right,0,72,80,651.5,0.239583,Sixteenth,C5
3820,Right,0,71,80,651.75,0.239583,Sixteenth,B4
3822,Left,1,57,80,652.0,1.989583,Half,C4_A3
3821,Right,0,72,80,652.0,0.239583,Sixteenth,C5
3824,Right,0,71,80,652.25,0.239583,Sixteenth,B4
3825,Right,0,69,80,652.5,0.239583,Sixteenth,A4
3826,Right,0,68,80,652.75,0.239583,Sixteenth,G#4
3827,Right,0,69,80,653.0,0.239583,Sixteenth,A4
3828,Right,0,71,80,653.25,0.239583,Sixteenth,B4
3829,Right,0,72,80,653.5,0.239583,Sixteenth,C5
3830,Right,0,74,80,653.75,0.239583,Sixteenth,D5
3832,Left,1,62,80,654.0,1.989583,Half,G#3_D4_B3
3831,Right,0,76,80,654.0,0.239583,Sixteenth,E5
3835,Right,0,77,80,654.25,0.239583,Sixteenth,F5
3836,Right,0,76,80,654.5,0.239583,Sixteenth,E5
3837,Right,0,75,80,654.75,0.239583,Sixteenth,D#5
3838,Right,0,76,80,655.0,0.239583,Sixteenth,E5
3839,Right,0,74,80,655.25,0.239583,Sixteenth,D5
3840,Right,0,72,80,655.5,0.239583,Sixteenth,C5
3841,Right,0,71,80,655.75,0.239583,Sixteenth,B4
3843,Right,0,72,80,656.0,0.239583,Sixteenth,C5
3842,Left,1,57,80,656.0,0.989583,Quarter,C4_A3
3845,Right,0,74,80,656.25,0.239583,Sixteenth,D5
3846,Right,0,72,80,656.5,0.239583,Sixteenth,C5
3847,Right,0,71,80,656.75,0.239583,Sixteenth,B4
3848,Right,0,69,80,657.0,0.239583,Sixteenth,A4
3849,Right,0,68,80,657.25,0.239583,Sixteenth,G#4
3850,Right,0,69,80,657.5,0.239583,Sixteenth,A4
3851,Right,0,71,80,657.75,0.239583,Sixteenth,B4
3854,Left,1,57,80,658.0,1.989583,Half,F#3_C3_A3_A2
3852,Right,0,72,80,658.0,1.989583,Quarter,C5_C4
3858,Right,0,69,80,659.0,0.489583,Eighth,A4
3859,Right,0,66,80,659.5,0.489583,Eighth,F#4
3860,Right,0,59,80,660.0,1.989583,Half,B4_B3
3861,Left,1,52,80,660.0,1.989583,Half,G3_E3_B2
3865,Right,0,67,80,661.0,0.489583,Eighth,G4
3866,Right,0,64,80,661.5,0.489583,Eighth,E4
3869,Left,1,54,80,662.0,1.989583,Half,F#3_D#3_B2
3867,Right,0,57,80,662.0,1.989583,Half,A4_A3
3872,Right,0,66,80,663.0,0.489583,Eighth,F#4
3873,Right,0,63,80,663.5,0.489583,Eighth,D#4
3874,Right,0,64,80,664.0,0.989583,Quarter,E4
3875,Left,1,55,80,664.0,0.989583,Quarter,G3_E3
3877,Left,1,43,80,665.0,1.489583,Quarter,G2_E3
3879,Right,0,76,80,665.0,0.489583,Eighth,E5
3880,Right,0,74,80,665.5,0.489583,Eighth,D5
3882,Left,1,45,80,666.0,1.989583,Half,A2
3881,Right,0,72,80,666.0,0.989583,Quarter,C5
3883,Left,1,53,80,666.5,0.489583,Eighth,F3
3885,Left,1,55,80,667.0,0.489583,Eighth,G3
3884,Right,0,69,80,667.0,0.489583,Eighth,A4
3887,Left,1,57,80,667.5,0.489583,Eighth,A3
3886,Right,0,65,80,667.5,0.489583,Eighth,F4
3888,Right,0,71,80,668.0,0.989583,Quarter,B4
3889,Left,1,47,80,668.0,3.989583,Half,G3_B3_B2
3892,Right,0,67,80,669.0,0.489583,Eighth,G4
3893,Right,0,64,80,669.5,0.489583,Eighth,E4
3895,Left,1,57,80,670.0,1.989583,Half,F#3_A3
3894,Right,0,69,80,670.0,0.989583,Quarter,A4
3897,Right,0,66,80,671.0,0.489583,Eighth,F#4
3898,Right,0,63,80,671.5,0.489583,Eighth,D#4
3900,Right,0,64,80,672.0,0.989583,Quarter,E4
3899,Left,1,55,80,672.0,0.989583,Quarter,G3_E3_C3
3904,Right,0,72,80,673.0,0.489583,Eighth,C5
3903,Left,1,48,80,673.0,1.489583,DottedQuarter,E2_C3
3907,Left,1,41,80,674.0,1.989583,Half,F2
3908,Right,0,69,80,674.0,0.989583,Quarter,A4
3909,Left,1,50,80,674.5,0.489583,Eighth,D3
3910,Left,1,52,80,675.0,0.489583,Eighth,E3
3911,Right,0,65,80,675.0,0.489583,Eighth,F4
3914,Right,0,67,80,676.0,0.989583,Quarter,G4
3915,Left,1,55,80,676.0,3.989583,Half,G3_G2_E3
3918,Right,0,64,80,677.0,0.489583,Eighth,E4
3919,Right,0,60,80,677.5,0.489583,Eighth,C4
3920,Left,1,53,80,678.0,1.989583,Half,F3_D3
3921,Right,0,65,80,678.0,0.989583,Quarter,F4
3926,Left,1,48,80,680.0,0.989583,Quarter,E3_C3
3925,Right,0,60,80,680.0,0.989583,Quarter,C4
3928,Left,1,45,80,681.0,1.489583,Quarter,F3_A2
3930,Right,0,77,80,681.0,0.489583,Eighth,F5
3931,Right,0,76,80,681.5,0.489583,Eighth,E5
3932,Right,0,74,80,682.0,0.989583,Quarter,D5
3933,Left,1,46,80,682.0,1.989583,Half,A#2
3934,Left,1,55,80,682.5,0.489583,Eighth,G3
3936,Left,1,57,80,683.0,0.489583,Eighth,A3
3935,Right,0,70,80,683.0,0.489583,Eighth,A#4
3938,Right,0,67,80,683.5,0.489583,Eighth,G4
3937,Left,1,58,80,683.5,0.489583,Eighth,A#3
3939,Right,0,72,80,684.0,0.989583,Quarter,C5
3940,Left,1,60,80,684.0,3.989583,Half,C4_C3_A3
3943,Right,0,69,80,685.0,0.489583,Eighth,A4
3944,Right,0,65,80,685.5,0.489583,Eighth,F4
3945,Right,0,70,80,686.0,0.989583,Quarter,A#4
3946,Left,1,55,80,686.0,1.989583,Half,G3_A#3
3948,Right,0,67,80,687.0,0.489583,Eighth,G4
3949,Right,0,64,80,687.5,0.489583,Eighth,E4
3950,Left,1,53,80,688.0,0.989583,Quarter,F3_D3_A3
3951,Right,0,65,80,688.0,0.989583,Quarter,F4
3955,Left,1,33,80,689.0,1.489583,Quarter,F2_A1
3954,Right,0,65,80,689.0,0.489583,Eighth,F4
3957,Right,0,64,80,689.5,0.489583,Eighth,E4
3958,Left,1,34,80,690.0,1.989583,Half,A#1
3959,Right,0,62,80,690.0,0.989583,Quarter,D4
3960,Left,1,43,80,690.5,0.489583,Eighth,G2
3962,Right,0,58,80,691.0,0.489583,Eighth,A#3
3961,Left,1,45,80,691.0,0.489583,Eighth,A2
3963,Right,0,55,80,691.5,0.489583,Eighth,G3
3964,Left,1,46,80,691.5,0.489583,Eighth,A#2
3965,Left,1,48,80,692.0,3.989583,Half,C3_C2_A2
3967,Right,0,60,80,692.0,0.989583,Quarter,C4
3969,Right,0,57,80,693.0,0.489583,Eighth,A3
3970,Right,0,53,80,693.5,0.489583,Eighth,F3
3973,Right,0,58,80,694.0,0.989583,Quarter,A#3
3971,Left,1,46,80,694.0,1.989583,Half,G2_A#2
3974,Right,0,55,80,695.0,0.489583,Eighth,G3
3975,Right,0,52,80,695.5,0.489583,Eighth,E3
3977,Right,0,45,80,696.0,0.489583,Eighth,F3_A2
3976,Left,1,29,80,696.0,0.489583,Eighth,F2_F1
3980,Right,0,45,80,696.5,0.489583,Eighth,F2_A2
3982,Left,1,36,80,696.5,0.489583,Eighth,F1_C2
3986,Right,0,45,80,697.0,0.489583,Eighth,F2_A2
3984,Left,1,36,80,697.0,0.489583,Eighth,F1_C2
3990,Right,0,45,80,697.5,0.489583,Eighth,F2_A2
3988,Left,1,36,80,697.5,0.489583,Eighth,F1_C2
3992,Left,1,36,80,698.0,0.489583,Eighth,F1_C2
3994,Right,0,45,80,698.0,0.489583,Eighth,F2_A2
3996,Left,1,36,80,698.5,0.489583,Eighth,F1_C2
3997,Right,0,45,80,698.5,0.489583,Eighth,F2_A2
4000,Left,1,36,80,699.0,0.489583,Eighth,F1_C2
4002,Right,0,45,80,699.0,0.489583,Eighth,F2_A2
4004,Left,1,36,80,699.5,0.489583,Eighth,F1_C2
4005,Right,0,41,80,699.5,0.489583,Eighth,F2_A2
4008,Left,1,29,80,700.0,0.489583,Eighth,F1_C2
4010,Right,0,45,80,700.0,0.489583,Eighth,F2_A2
4012,Right,0,41,80,700.5,0.489583,Eighth,F2_A2
4014,Left,1,36,80,700.5,0.489583,Eighth,F1_C2
4017,Right,0,45,80,701.0,0.489583,Eighth,F2_A2
4016,Left,1,36,80,701.0,0.489583,Eighth,F1_C2
4021,Right,0,41,80,701.5,0.489583,Eighth,F2_A2
4020,Left,1,29,80,701.5,0.489583,Eighth,F1_C2
4024,Left,1,36,80,702.0,0.489583,Eighth,F1_C2
4025,Right,0,45,80,702.0,0.489583,Eighth,F2_A2
4028,Left,1,29,80,702.5,0.489583,Eighth,F1_C2
4030,Right,0,45,80,702.5,0.489583,Eighth,F2_A2
4032,Right,0,47,80,703.0,0.489583,Eighth,G2_B2
4034,Left,1,29,80,703.0,0.489583,Eighth,F1_D2
4036,Left,1,29,80,703.5,0.489583,Eighth,F1_D2
4037,Right,0,47,80,703.5,0.489583,Eighth,G2_B2
4041,Right,0,48,80,704.0,1.489583,DottedQuarter,C3
4040,Left,1,40,80,704.0,0.489583,Eighth,G2_E2
4043,Left,1,43,80,704.5,0.489583,Eighth,G2_E2
4045,Left,1,43,80,705.0,0.489583,Eighth,G2_E2
4049,Right,0,52,80,705.5,0.239583,Sixteenth,E3
4047,Left,1,43,80,705.5,0.489583,Eighth,G2_E2
4050,Right,0,50,80,705.75,0.239583,Sixteenth,D3
4052,Left,1,43,80,706.0,0.489583,Eighth,G2_E2
4051,Right,0,48,80,706.0,0.489583,Eighth,C3
4054,Left,1,40,80,706.5,0.489583,Eighth,G2_E2
4056,Left,1,40,80,707.0,0.489583,Eighth,G2_E2
4058,Left,1,40,80,707.5,0.489583,Eighth,G2_E2
4061,Left,1,39,80,708.0,0.489583,Eighth,G2_D#2
4060,Right,0,78,80,708.0,0.114583,ThirtySecond,F#5
4063,Right,0,79,80,708.125,1.114583,TiedQuarter-ThirtySecond,G5
4064,Left,1,43,80,708.5,0.489583,Eighth,G2_D#2
4066,Left,1,43,80,709.0,0.489583,Eighth,G2_D#2
4068,Right,0,77,80,709.25,0.239583,Sixteenth,F5
4069,Left,1,43,80,709.5,0.489583,Eighth,G2_D#2
4071,Right,0,75,80,709.5,0.239583,Sixteenth,D#5
4072,Right,0,74,80,709.75,0.239583,Sixteenth,D5
4073,Right,0,72,80,710.0,0.989583,Quarter,C5
4074,Left,1,39,80,710.0,0.489583,Eighth,G2_D#2
4076,Left,1,43,80,710.5,0.489583,Eighth,G2_D#2
4078,Left,1,43,80,711.0,0.489583,Eighth,G2_D#2
4080,Left,1,43,80,711.5,0.489583,Eighth,G2_D#2
4082,Left,1,45,80,712.0,0.489583,Eighth,D2_A2
4083,Right,0,54,80,712.0,1.489583,DottedQuarter,F#3
4085,Left,1,45,80,712.5,0.489583,Eighth,D2_A2
4087,Left,1,38,80,713.0,0.489583,Eighth,D2_A2
4089,Left,1,38,80,713.5,0.489583,Eighth,D2_A2
4091,Right,0,57,80,713.5,0.239583,Sixteenth,A3
4092,Right,0,55,80,713.75,0.239583,Sixteenth,G3
4093,Left,1,45,80,714.0,0.489583,Eighth,D2_A2
4095,Right,0,54,80,714.0,0.489583,Eighth,F#3
4096,Left,1,38,80,714.5,0.489583,Eighth,D2_A2
4098,Left,1,45,80,715.0,0.489583,Eighth,D2_A2
4100,Left,1,38,80,715.5,0.489583,Eighth,D2_A2
4103,Right,0,86,80,716.0,0.114583,ThirtySecond,D6
4102,Left,1,42,80,716.0,0.489583,Eighth,F#2_D3
4105,Right,0,87,80,716.125,1.114583,TiedQuarter-ThirtySecond,D#6
4106,Left,1,50,80,716.5,0.489583,Eighth,F#2_D3
4108,Left,1,50,80,717.0,0.489583,Eighth,F#2_D3
4110,Right,0,86,80,717.25,0.239583,Sixteenth,D6
4112,Left,1,42,80,717.5,0.489583,Eighth,F#2_D3
4111,Right,0,84,80,717.5,0.239583,Sixteenth,C6
4114,Right,0,82,80,717.75,0.239583,Sixteenth,A#5
4117,Right,0,81,80,718.0,0.989583,Quarter,A5
4115,Left,1,42,80,718.0,0.489583,Eighth,F#2_D3
4118,Left,1,50,80,718.5,0.489583,Eighth,F#2_D3
4120,Left,1,50,80,719.0,0.489583,Eighth,F#2_D3
4122,Left,1,50,80,719.5,0.489583,Eighth,F#2_D3
4124,Right,0,58,80,720.0,0.489583,Eighth,A#3
4125,Left,1,43,80,720.0,0.239583,Sixteenth,G2
4126,Left,1,50,80,720.25,0.239583,Sixteenth,D3
4127,Right,0,62,80,720.5,0.239583,Sixteenth,D4
4128,Left,1,43,80,720.5,0.239583,Sixteenth,G2
4129,Right,0,60,80,720.75,0.239583,Sixteenth,C4
4130,Left,1,50,80,720.75,0.239583,Sixteenth,D3
4132,Right,0,58,80,721.0,0.989583,Quarter,A#3
4131,Left,1,43,80,721.0,0.239583,Sixteenth,G2
4133,Left,1,50,80,721.25,0.239583,Sixteenth,D3
4134,Left,1,43,80,721.5,0.239583,Sixteenth,G2
4135,Left,1,50,80,721.75,0.239583,Sixteenth,D3
4137,Right,0,84,80,722.0,0.239583,Sixteenth,C6
4136,Left,1,45,80,722.0,0.239583,Sixteenth,A2
4139,Right,0,82,80,722.25,0.239583,Sixteenth,A#5
4138,Left,1,50,80,722.25,0.239583,Sixteenth,D3
4141,Right,0,81,80,722.5,0.239583,Sixteenth,A5
4140,Left,1,45,80,722.5,0.239583,Sixteenth,A2
4142,Left,1,50,80,722.75,0.239583,Sixteenth,D3
4143,Right,0,79,80,722.75,0.239583,Sixteenth,G5
4144,Right,0,78,80,723.0,0.989583,Quarter,F#5
4145,Left,1,45,80,723.0,0.239583,Sixteenth,A2
4146,Left,1,50,80,723.25,0.239583,Sixteenth,D3
4147,Left,1,45,80,723.5,0.239583,Sixteenth,A2
4148,Left,1,50,80,723.75,0.239583,Sixteenth,D3
4150,Left,1,46,80,724.0,0.239583,Sixteenth,A#2
4149,Right,0,67,80,724.0,0.489583,Eighth,G4
4151,Left,1,50,80,724.25,0.239583,Sixteenth,D3
4152,Right,0,70,80,724.5,0.239583,Sixteenth,A#4
4153,Left,1,46,80,724.5,0.239583,Sixteenth,A#2
4155,Right,0,69,80,724.75,0.239583,Sixteenth,A4
4154,Left,1,50,80,724.75,0.239583,Sixteenth,D3
4157,Right,0,67,80,725.0,0.989583,Quarter,G4
4156,Left,1,46,80,725.0,0.239583,Sixteenth,A#2
4158,Left,1,50,80,725.25,0.239583,Sixteenth,D3
4159,Left,1,46,80,725.5,0.239583,Sixteenth,A#2
4160,Left,1,50,80,725.75,0.239583,Sixteenth,D3
4161,Left,1,42,80,726.0,0.239583,Sixteenth,F#2
4162,Right,0,87,80,726.0,0.239583,Sixteenth,D#6
4163,Right,0,86,80,726.25,0.239583,Sixteenth,D6
4164,Left,1,50,80,726.25,0.239583,Sixteenth,D3
4166,Left,1,42,80,726.5,0.239583,Sixteenth,F#2
4165,Right,0,84,80,726.5,0.239583,Sixteenth,C6
4168,Right,0,82,80,726.75,0.239583,Sixteenth,A#5
4167,Left,1,50,80,726.75,0.239583,Sixteenth,D3
4170,Left,1,42,80,727.0,0.239583,Sixteenth,F#2
4169,Right,0,81,80,727.0,0.989583,Quarter,A5
4171,Left,1,50,80,727.25,0.239583,Sixteenth,D3
4172,Left,1,42,80,727.5,0.239583,Sixteenth,F#2
4173,Left,1,50,80,727.75,0.239583,Sixteenth,D3
4174,Left,1,43,80,728.0,0.239583,Sixteenth,G2
4175,Right,0,58,80,728.0,0.489583,Eighth,A#3
4176,Left,1,50,81,728.25,0.239583,Sixteenth,D3
4177,Right,0,62,82,728.5,0.239583,Sixteenth,D4
4178,Left,1,43,82,728.5,0.239583,Sixteenth,G2
4179,Left,1,50,84,728.75,0.239583,Sixteenth,D3
4180,Right,0,60,84,728.75,0.239583,Sixteenth,C4
4181,Left,1,43,85,729.0,0.239583,Sixteenth,G2
4182,Right,0,58,85,729.0,0.989583,Quarter,A#3
4183,Left,1,50,86,729.25,0.239583,Sixteenth,D3
4184,Left,1,43,88,729.5,0.239583,Sixteenth,G2
4185,Left,1,50,89,729.75,0.239583,Sixteenth,D3
4186,Right,0,84,90,730.0,0.239583,Sixteenth,C6
4187,Left,1,45,90,730.0,0.239583,Sixteenth,A2
4188,Right,0,82,92,730.25,0.239583,Sixteenth,A#5
4189,Left,1,50,92,730.25,0.239583,Sixteenth,D3
4191,Left,1,45,93,730.5,0.239583,Sixteenth,A2
4190,Right,0,81,93,730.5,0.239583,Sixteenth,A5
4193,Left,1,50,94,730.75,0.239583,Sixteenth,D3
4192,Right,0,79,94,730.75,0.239583,Sixteenth,G5
4195,Left,1,45,96,731.0,0.239583,Sixteenth,A2
4194,Right,0,78,96,731.0,0.989583,Quarter,F#5
4196,Left,1,50,97,731.25,0.239583,Sixteenth,D3
4197,Left,1,45,98,731.5,0.239583,Sixteenth,A2
4198,Left,1,50,100,731.75,0.239583,Sixteenth,D3
4200,Left,1,46,101,732.0,0.239583,Sixteenth,A#2
4199,Right,0,74,101,732.0,0.239583,Sixteenth,D5
4202,Left,1,50,102,732.25,0.239583,Sixteenth,D3
4201,Right,0,72,102,732.25,0.239583,Sixteenth,C5
4204,Right,0,70,104,732.5,0.239583,Sixteenth,A#4
4203,Left,1,46,104,732.5,0.239583,Sixteenth,A#2
4205,Right,0,69,105,732.75,0.239583,Sixteenth,A4
4206,Left,1,50,105,732.75,0.239583,Sixteenth,D3
4207,Right,0,67,106,733.0,0.989583,Quarter,G4
4208,Left,1,46,106,733.0,0.239583,Sixteenth,A#2
4209,Left,1,55,108,733.25,0.239583,Sixteenth,G3
4210,Left,1,46,109,733.5,0.239583,Sixteenth,A#2
4211,Left,1,55,110,733.75,0.239583,Sixteenth,G3
4212,Right,0,80,110,734.0,0.239583,Sixteenth,G#5
4213,Left,1,47,110,734.0,0.239583,Sixteenth,B2
4215,Right,0,79,110,734.25,0.239583,Sixteenth,G5
4214,Left,1,55,110,734.25,0.239583,Sixteenth,G3
4217,Right,0,77,110,734.5,0.239583,Sixteenth,F5
4216,Left,1,47,110,734.5,0.239583,Sixteenth,B2
4218,Left,1,55,110,734.75,0.239583,Sixteenth,G3
4219,Right,0,75,110,734.75,0.239583,Sixteenth,D#5
4220,Left,1,47,110,735.0,0.239583,Sixteenth,B2
4221,Right,0,74,110,735.0,0.989583,Quarter,D5
4222,Left,1,55,110,735.25,0.239583,Sixteenth,G3
4223,Left,1,47,110,735.5,0.239583,Sixteenth,B2
4224,Left,1,55,110,735.75,0.239583,Sixteenth,G3
4226,Left,1,48,80,736.0,0.239583,Sixteenth,C3
4225,Right,0,63,80,736.0,0.489583,Eighth,D#4
4227,Left,1,55,80,736.25,0.239583,Sixteenth,G3
4228,Right,0,67,80,736.5,0.239583,Sixteenth,G4
4229,Left,1,48,80,736.5,0.239583,Sixteenth,C3
4230,Right,0,65,80,736.75,0.239583,Sixteenth,F4
4231,Left,1,55,80,736.75,0.239583,Sixteenth,G3
4232,Right,0,63,80,737.0,0.989583,Quarter,D#4
4233,Left,1,48,80,737.0,0.239583,Sixteenth,C3
4234,Left,1,55,80,737.25,0.239583,Sixteenth,G3
4235,Left,1,48,80,737.5,0.239583,Sixteenth,C3
4236,Left,1,55,80,737.75,0.239583,Sixteenth,G3
4237,Left,1,50,80,738.0,0.239583,Sixteenth,D3
4238,Right,0,77,80,738.0,0.239583,Sixteenth,F5
4240,Left,1,55,80,738.25,0.239583,Sixteenth,G3
4239,Right,0,75,80,738.25,0.239583,Sixteenth,D#5
4241,Right,0,74,80,738.5,0.239583,Sixteenth,D5
4242,Left,1,50,80,738.5,0.239583,Sixteenth,D3
4244,Left,1,55,80,738.75,0.239583,Sixteenth,G3
4243,Right,0,72,80,738.75,0.239583,Sixteenth,C5
4245,Right,0,71,80,739.0,0.989583,Quarter,B4
4246,Left,1,50,80,739.0,0.239583,Sixteenth,D3
4247,Left,1,55,80,739.25,0.239583,Sixteenth,G3
4248,Left,1,50,80,739.5,0.239583,Sixteenth,D3
4249,Left,1,55,80,739.75,0.239583,Sixteenth,G3
4251,Right,0,60,80,740.0,0.489583,Eighth,C4
4250,Left,1,51,80,740.0,0.239583,Sixteenth,D#3
4252,Left,1,55,80,740.25,0.239583,Sixteenth,G3
4254,Left,1,51,80,740.5,0.239583,Sixteenth,D#3
4253,Right,0,63,80,740.5,0.239583,Sixteenth,D#4
4256,Left,1,55,80,740.75,0.239583,Sixteenth,G3
4255,Right,0,62,80,740.75,0.239583,Sixteenth,D4
4257,Left,1,51,80,741.0,0.239583,Sixteenth,D#3
4258,Right,0,60,80,741.0,0.989583,Quarter,C4
4259,Left,1,55,80,741.25,0.239583,Sixteenth,G3
4260,Left,1,51,80,741.5,0.239583,Sixteenth,D#3
4261,Left,1,55,80,741.75,0.239583,Sixteenth,G3
4263,Left,1,47,80,742.0,0.239583,Sixteenth,B2
4262,Right,0,80,80,742.0,0.239583,Sixteenth,G#5
4264,Left,1,55,80,742.25,0.239583,Sixteenth,G3
4265,Right,0,79,80,742.25,0.239583,Sixteenth,G5
4267,Left,1,47,80,742.5,0.239583,Sixteenth,B2
4266,Right,0,77,80,742.5,0.239583,Sixteenth,F5
4269,Left,1,55,80,742.75,0.239583,Sixteenth,G3
4268,Right,0,75,80,742.75,0.239583,Sixteenth,D#5
4271,Left,1,47,80,743.0,0.239583,Sixteenth,B2
4270,Right,0,74,80,743.0,0.989583,Quarter,D5
4272,Left,1,55,80,743.25,0.239583,Sixteenth,G3
4273,Left,1,47,80,743.5,0.239583,Sixteenth,B2
4274,Left,1,55,80,743.75,0.239583,Sixteenth,G3
4275,Left,1,48,80,744.0,0.239583,Sixteenth,C3
4276,Right,0,63,80,744.0,0.489583,Eighth,D#4
4277,Left,1,55,81,744.25,0.239583,Sixteenth,G3
4279,Right,0,67,82,744.5,0.239583,Sixteenth,G4
4278,Left,1,48,82,744.5,0.239583,Sixteenth,C3
4280,Left,1,55,84,744.75,0.239583,Sixteenth,G3
4281,Right,0,65,84,744.75,0.239583,Sixteenth,F4
4283,Right,0,63,85,745.0,0.989583,Quarter,D#4
4282,Left,1,48,85,745.0,0.239583,Sixteenth,C3
4284,Left,1,55,86,745.25,0.239583,Sixteenth,G3
4285,Left,1,48,88,745.5,0.239583,Sixteenth,C3
4286,Left,1,55,89,745.75,0.239583,Sixteenth,G3
4287,Right,0,77,90,746.0,0.239583,Sixteenth,F5
4288,Left,1,50,90,746.0,0.239583,Sixteenth,D3
4290,Left,1,55,92,746.25,0.239583,Sixteenth,G3
4289,Right,0,75,92,746.25,0.239583,Sixteenth,D#5
4292,Right,0,74,93,746.5,0.239583,Sixteenth,D5
4291,Left,1,50,93,746.5,0.239583,Sixteenth,D3
4294,Right,0,72,94,746.75,0.239583,Sixteenth,C5
4293,Left,1,55,94,746.75,0.239583,Sixteenth,G3
4295,Left,1,50,96,747.0,0.239583,Sixteenth,D3
4296,Right,0,71,96,747.0,0.989583,Quarter,B4
4297,Left,1,55,97,747.25,0.239583,Sixteenth,G3
4298,Left,1,50,98,747.5,0.239583,Sixteenth,D3
4299,Left,1,55,100,747.75,0.239583,Sixteenth,G3
4301,Left,1,51,101,748.0,0.239583,Sixteenth,D#3
4300,Right,0,79,101,748.0,0.239583,Sixteenth,G5
4302,Left,1,55,102,748.25,0.239583,Sixteenth,G3
4303,Right,0,77,102,748.25,0.239583,Sixteenth,F5
4304,Left,1,51,104,748.5,0.239583,Sixteenth,D#3
4305,Right,0,75,104,748.5,0.239583,Sixteenth,D#5
4306,Right,0,74,105,748.75,0.239583,Sixteenth,D5
4307,Left,1,55,105,748.75,0.239583,Sixteenth,G3
4308,Left,1,51,106,749.0,0.239583,Sixteenth,D#3
4309,Right,0,72,106,749.0,0.989583,Quarter,C5
4310,Left,1,60,108,749.25,0.239583,Sixteenth,C4
4311,Left,1,51,109,749.5,0.239583,Sixteenth,D#3
4312,Left,1,60,110,749.75,0.239583,Sixteenth,C4
4313,Right,0,85,110,750.0,0.239583,Sixteenth,C#6
4314,Left,1,52,110,750.0,0.239583,Sixteenth,E3
4316,Left,1,60,110,750.25,0.239583,Sixteenth,C4
4315,Right,0,84,110,750.25,0.239583,Sixteenth,C6
4318,Left,1,52,110,750.5,0.239583,Sixteenth,E3
4317,Right,0,82,110,750.5,0.239583,Sixteenth,A#5
4320,Left,1,60,110,750.75,0.239583,Sixteenth,C4
4319,Right,0,80,110,750.75,0.239583,Sixteenth,G#5
4321,Right,0,79,110,751.0,0.989583,Quarter,G5
4322,Left,1,52,110,751.0,0.239583,Sixteenth,E3
4323,Left,1,60,110,751.25,0.239583,Sixteenth,C4
4324,Left,1,52,110,751.5,0.239583,Sixteenth,E3
4325,Left,1,60,110,751.75,0.239583,Sixteenth,C4
4327,Left,1,53,70,752.0,0.239583,Sixteenth,F3
4326,Right,0,80,70,752.0,0.489583,Eighth,G#5
4328,Left,1,56,70,752.25,0.239583,Sixteenth,G#3
4330,Right,0,84,70,752.5,0.239583,Sixteenth,C6
4329,Left,1,60,70,752.5,0.239583,Sixteenth,C4
4331,Left,1,65,70,752.75,0.239583,Sixteenth,F4
4332,Right,0,82,70,752.75,0.239583,Sixteenth,A#5
4333,Left,1,53,70,753.0,0.239583,Sixteenth,F3
4334,Right,0,80,70,753.0,0.989583,Quarter,G#5
4335,Left,1,56,70,753.25,0.239583,Sixteenth,G#3
4336,Left,1,60,70,753.5,0.239583,Sixteenth,C4
4337,Left,1,65,70,753.75,0.239583,Sixteenth,F4
4339,Left,1,53,70,754.0,0.239583,Sixteenth,F3
4338,Right,0,85,70,754.0,0.489583,Eighth,C#6
4340,Left,1,58,70,754.25,0.239583,Sixteenth,A#3
4342,Right,0,89,70,754.5,0.239583,Sixteenth,F6
4341,Left,1,61,70,754.5,0.239583,Sixteenth,C#4
4344,Right,0,87,70,754.75,0.239583,Sixteenth,D#6
4343,Left,1,65,70,754.75,0.239583,Sixteenth,F4
4346,Right,0,85,70,755.0,0.989583,Quarter,C#6
4345,Left,1,53,70,755.0,0.239583,Sixteenth,F3
4347,Left,1,58,70,755.25,0.239583,Sixteenth,A#3
4348,Left,1,61,70,755.5,0.239583,Sixteenth,C#4
4349,Left,1,65,70,755.75,0.239583,Sixteenth,F4
4350,Right,0,66,70,756.0,0.489583,Eighth,F#4
4351,Left,1,53,70,756.0,0.239583,Sixteenth,F3
4352,Left,1,54,70,756.25,0.239583,Sixteenth,F#3
4353,Right,0,70,70,756.5,0.239583,Sixteenth,A#4
4354,Left,1,58,70,756.5,0.239583,Sixteenth,A#3
4356,Right,0,68,70,756.75,0.239583,Sixteenth,G#4
4355,Left,1,61,70,756.75,0.239583,Sixteenth,C#4
4357,Right,0,66,70,757.0,0.989583,Quarter,F#4
4358,Left,1,53,70,757.0,0.239583,Sixteenth,F3
4359,Left,1,54,70,757.25,0.239583,Sixteenth,F#3
4360,Left,1,58,70,757.5,0.239583,Sixteenth,A#3
4361,Left,1,61,70,757.75,0.239583,Sixteenth,C#4
4362,Right,0,71,70,758.0,1.989583,Half,B4
4363,Left,1,51,70,758.0,0.239583,Sixteenth,D#3
4364,Left,1,54,70,758.25,0.239583,Sixteenth,F#3
4365,Left,1,59,70,758.5,0.239583,Sixteenth,B3
4366,Left,1,63,70,758.75,0.239583,Sixteenth,D#4
4367,Left,1,51,70,759.0,0.239583,Sixteenth,D#3
4368,Left,1,54,70,759.25,0.239583,Sixteenth,F#3
4369,Left,1,59,70,759.5,0.239583,Sixteenth,B3
4370,Left,1,63,70,759.75,0.239583,Sixteenth,D#4
4371,Left,1,51,70,760.0,0.239583,Sixteenth,D#3
4372,Right,0,77,70,760.0,0.489583,Eighth,F5
4373,Left,1,53,70,760.25,0.239583,Sixteenth,F3
4375,Left,1,57,70,760.5,0.239583,Sixteenth,A3
4374,Right,0,81,70,760.5,0.239583,Sixteenth,A5
4377,Left,1,60,70,760.75,0.239583,Sixteenth,C4
4376,Right,0,79,70,760.75,0.239583,Sixteenth,G5
4379,Left,1,51,70,761.0,0.239583,Sixteenth,D#3
4378,Right,0,77,70,761.0,0.989583,Quarter,F5
4380,Left,1,53,70,761.25,0.239583,Sixteenth,F3
4381,Left,1,57,70,761.5,0.239583,Sixteenth,A3
4382,Left,1,60,70,761.75,0.239583,Sixteenth,C4
4384,Left,1,49,70,762.0,0.239583,Sixteenth,C#3
4383,Right,0,82,70,762.0,0.489583,Eighth,A#5
4385,Left,1,53,70,762.25,0.239583,Sixteenth,F3
4387,Right,0,85,70,762.5,0.239583,Sixteenth,C#6
4386,Left,1,58,70,762.5,0.239583,Sixteenth,A#3
4389,Right,0,84,70,762.75,0.239583,Sixteenth,C6
4388,Left,1,61,70,762.75,0.239583,Sixteenth,C#4
4390,Right,0,82,70,763.0,0.989583,Quarter,A#5
4391,Left,1,49,70,763.0,0.239583,Sixteenth,C#3
4392,Left,1,53,70,763.25,0.239583,Sixteenth,F3
4393,Left,1,58,70,763.5,0.239583,Sixteenth,A#3
4394,Left,1,61,70,763.75,0.239583,Sixteenth,C#4
4395,Right,0,63,70,764.0,0.489583,Eighth,D#4
4396,Left,1,49,70,764.0,0.239583,Sixteenth,C#3
4397,Left,1,51,70,764.25,0.239583,Sixteenth,D#3
4398,Right,0,67,70,764.5,0.239583,Sixteenth,G4
4399,Left,1,55,70,764.5,0.239583,Sixteenth,G3
4401,Right,0,65,70,764.75,0.239583,Sixteenth,F4
4400,Left,1,58,70,764.75,0.239583,Sixteenth,A#3
4402,Right,0,63,70,765.0,0.989583,Quarter,D#4
4403,Left,1,49,70,765.0,0.239583,Sixteenth,C#3
4404,Left,1,51,70,765.25,0.239583,Sixteenth,D#3
4405,Left,1,55,70,765.5,0.239583,Sixteenth,G3
4406,Left,1,58,70,765.75,0.239583,Sixteenth,A#3
4407,Right,0,68,70,766.0,1.989583,Half,G#4
4408,Left,1,48,70,766.0,0.239583,Sixteenth,C3
4409,Left,1,51,70,766.25,0.239583,Sixteenth,D#3
4410,Left,1,56,70,766.5,0.239583,Sixteenth,G#3
4411,Left,1,60,70,766.75,0.239583,Sixteenth,C4
4412,Left,1,48,70,767.0,0.239583,Sixteenth,C3
4413,Left,1,51,70,767.25,0.239583,Sixteenth,D#3
4414,Left,1,56,70,767.5,0.239583,Sixteenth,G#3
4415,Left,1,60,70,767.75,0.239583,Sixteenth,C4
4416,Right,0,73,70,768.0,0.489583,Eighth,C#5
4417,Left,1,48,70,768.0,0.239583,Sixteenth,C3
4418,Left,1,49,70,768.25,0.239583,Sixteenth,C#3
4420,Right,0,77,70,768.5,0.239583,Sixteenth,F5
4419,Left,1,53,70,768.5,0.239583,Sixteenth,F3
4422,Right,0,75,70,768.75,0.239583,Sixteenth,D#5
4421,Left,1,56,70,768.75,0.239583,Sixteenth,G#3
4423,Left,1,48,70,769.0,0.239583,Sixteenth,C3
4424,Right,0,73,70,769.0,0.989583,Quarter,C#5
4425,Left,1,49,70,769.25,0.239583,Sixteenth,C#3
4426,Left,1,53,70,769.5,0.239583,Sixteenth,F3
4427,Left,1,56,70,769.75,0.239583,Sixteenth,G#3
4429,Right,0,78,70,770.0,0.489583,Eighth,F#5
4428,Left,1,46,70,770.0,0.239583,Sixteenth,A#2
4430,Left,1,49,70,770.25,0.239583,Sixteenth,C#3
4432,Left,1,54,70,770.5,0.239583,Sixteenth,F#3
4431,Right,0,82,70,770.5,0.239583,Sixteenth,A#5
4434,Left,1,58,70,770.75,0.239583,Sixteenth,A#3
4433,Right,0,80,70,770.75,0.239583,Sixteenth,G#5
4435,Right,0,78,70,771.0,0.989583,Quarter,F#5
4436,Left,1,46,70,771.0,0.239583,Sixteenth,A#2
4437,Left,1,49,70,771.25,0.239583,Sixteenth,C#3
4438,Left,1,54,70,771.5,0.239583,Sixteenth,F#3
4439,Left,1,58,70,771.75,0.239583,Sixteenth,A#3
4441,Right,0,60,70,772.0,0.489583,Eighth,C4
4440,Left,1,46,70,772.0,0.239583,Sixteenth,A#2
4442,Left,1,48,70,772.25,0.239583,Sixteenth,C3
4443,Right,0,64,70,772.5,0.239583,Sixteenth,E4
4444,Left,1,52,70,772.5,0.239583,Sixteenth,E3
4445,Left,1,55,70,772.75,0.239583,Sixteenth,G3
4446,Right,0,62,70,772.75,0.239583,Sixteenth,D4
4447,Right,0,60,70,773.0,0.989583,Quarter,C4
4448,Left,1,46,70,773.0,0.239583,Sixteenth,A#2
4449,Left,1,48,70,773.25,0.239583,Sixteenth,C3
4450,Left,1,52,70,773.5,0.239583,Sixteenth,E3
4451,Left,1,55,70,773.75,0.239583,Sixteenth,G3
4453,Left,1,44,70,774.0,0.239583,Sixteenth,G#2
4452,Right,0,72,70,774.0,1.989583,Half,C5
4454,Left,1,48,70,774.25,0.239583,Sixteenth,C3
4455,Left,1,53,70,774.5,0.239583,Sixteenth,F3
4456,Left,1,56,70,774.75,0.239583,Sixteenth,G#3
4457,Left,1,44,70,775.0,0.239583,Sixteenth,G#2
4458,Left,1,48,70,775.25,0.239583,Sixteenth,C3
4459,Left,1,53,70,775.5,0.239583,Sixteenth,F3
4460,Left,1,56,70,775.75,0.239583,Sixteenth,G#3
4461,Left,1,43,75,776.0,0.239583,Sixteenth,G2
4462,Right,0,72,75,776.0,0.489583,Eighth,C5
4463,Left,1,46,76,776.25,0.239583,Sixteenth,A#2
4465,Right,0,76,77,776.5,0.239583,Sixteenth,E5
4464,Left,1,52,77,776.5,0.239583,Sixteenth,E3
4466,Left,1,55,78,776.75,0.239583,Sixteenth,G3
4467,Right,0,74,78,776.75,0.239583,Sixteenth,D5
4468,Right,0,72,79,777.0,0.989583,Quarter,C5
4469,Left,1,43,79,777.0,0.239583,Sixteenth,G2
4470,Left,1,46,80,777.25,0.239583,Sixteenth,A#2
4471,Left,1,52,81,777.5,0.239583,Sixteenth,E3
4472,Left,1,55,82,777.75,0.239583,Sixteenth,G3
4474,Right,0,84,84,778.0,1.989583,Half,C6
4473,Left,1,41,84,778.0,0.239583,Sixteenth,F2
4475,Left,1,44,85,778.25,0.239583,Sixteenth,G#2
4476,Left,1,48,86,778.5,0.239583,Sixteenth,C3
4477,Left,1,53,87,778.75,0.239583,Sixteenth,F3
4478,Left,1,41,88,779.0,0.322917,Triplet,F2
4479,Left,1,44,90,779.333333,0.322917,Triplet,G#2
4480,Left,1,53,91,779.666667,0.322917,Triplet,F3
4481,Right,0,84,93,780.0,0.489583,Eighth,C6
4482,Left,1,40,93,780.0,0.322917,Triplet,E2
4483,Left,1,43,94,780.333333,0.322917,Triplet,G2
4484,Right,0,88,95,780.5,0.239583,Sixteenth,E6
4485,Left,1,52,96,780.666667,0.322917,Triplet,E3
4486,Right,0,86,96,780.75,0.239583,Sixteenth,D6
4488,Left,1,39,97,781.0,0.322917,Triplet,D#2
4487,Right,0,84,97,781.0,0.489583,Eighth,C6
4489,Left,1,43,99,781.333333,0.322917,Triplet,G2
4490,Right,0,84,99,781.5,0.489583,Eighth,C6
4491,Left,1,51,100,781.666667,0.322917,Triplet,D#3
4493,Left,1,38,102,782.0,0.322917,Triplet,D2
4492,Right,0,84,105,782.0,0.489583,Eighth,C6
4494,Left,1,41,103,782.333333,0.322917,Triplet,F2
4495,Right,0,84,109,782.5,0.489583,Eighth,C6
4496,Left,1,50,105,782.666667,0.322917,Triplet,D3
4497,Right,0,89,113,783.0,0.489583,Eighth,F6
4498,Left,1,37,106,783.0,0.322917,Triplet,C#2
4499,Left,1,41,108,783.333333,0.322917,Triplet,F2
4500,Right,0,83,117,783.5,0.489583,Eighth,B5
4501,Left,1,49,109,783.666667,0.322917,Triplet,C#3
4503,Left,1,36,110,784.0,0.322917,Triplet,C3_C2
4502,Right,0,84,121,784.0,0.989583,Quarter,C6
4505,Left,1,43,110,784.333333,0.322917,Triplet,G2
4506,Left,1,40,110,784.666667,0.322917,Triplet,E2
4508,Left,1,43,110,785.0,0.322917,Triplet,G2
4507,Right,0,67,110,785.0,1.989583,Half,G4
4509,Left,1,48,110,785.333333,0.322917,Triplet,C3
4510,Left,1,52,110,785.666667,0.322917,Triplet,E3
4511,Left,1,50,110,786.0,0.322917,Triplet,D3
4512,Left,1,47,110,786.333333,0.322917,Triplet,B2
4513,Left,1,43,110,786.666667,0.322917,Triplet,G2
4514,Left,1,47,110,787.0,0.322917,Triplet,B2
4515,Right,0,67,110,787.0,0.989583,Quarter,G4
4516,Left,1,50,110,787.333333,0.322917,Triplet,D3
4517,Left,1,53,110,787.666667,0.322917,Triplet,F3
4518,Right,0,72,110,788.0,0.322917,Triplet,C5
4519,Left,1,52,110,788.0,0.322917,Triplet,E3
4521,Left,1,55,110,788.333333,0.322917,Triplet,G3
4520,Right,0,67,110,788.333333,0.322917,Triplet,G4
4523,Left,1,60,110,788.666667,0.322917,Triplet,C4
4522,Right,0,64,110,788.666667,0.322917,Triplet,E4
4524,Right,0,67,110,789.0,0.322917,Triplet,G4
4525,Left,1,55,110,789.0,0.322917,Triplet,G3
4527,Right,0,72,110,789.333333,0.322917,Triplet,C5
4526,Left,1,52,110,789.333333,0.322917,Triplet,E3
4529,Right,0,76,110,789.666667,0.322917,Triplet,E5
4528,Left,1,48,110,789.666667,0.322917,Triplet,C3
4531,Right,0,74,110,790.0,0.322917,Triplet,D5
4530,Left,1,53,110,790.0,0.322917,Triplet,F3
4533,Left,1,56,110,790.333333,0.322917,Triplet,G#3
4532,Right,0,71,110,790.333333,0.322917,Triplet,B4
4534,Right,0,68,110,790.666667,0.322917,Triplet,G#4
4535,Left,1,60,110,790.666667,0.322917,Triplet,C4
4536,Right,0,71,110,791.0,0.322917,Triplet,B4
4537,Left,1,56,110,791.0,0.322917,Triplet,G#3
4539,Right,0,74,110,791.333333,0.322917,Triplet,D5
4538,Left,1,53,110,791.333333,0.322917,Triplet,F3
4540,Right,0,77,110,791.666667,0.322917,Triplet,F5
4541,Left,1,48,110,791.666667,0.322917,Triplet,C3
4543,Left,1,55,110,792.0,1.322917,TiedQuarter-Sixteenth,G3
4542,Right,0,76,110,792.0,0.322917,Triplet,E5
4545,Right,0,73,110,792.333333,0.322917,Triplet,C#5
4544,Left,1,58,110,792.333333,0.65625,DottedEighth,A#3
4547,Left,1,60,110,792.666667,7.322917,Unknown,C4
4546,Right,0,70,110,792.666667,0.322917,Triplet,A#4
4549,Left,1,58,110,793.0,6.989583,Unknown,A#3
4548,Right,0,73,110,793.0,0.322917,Triplet,C#5
4550,Left,1,55,110,793.333333,6.65625,Unknown,G3
4551,Right,0,76,110,793.333333,0.322917,Triplet,E5
4552,Left,1,48,110,793.666667,6.322917,Unknown,C3
4553,Right,0,79,110,793.666667,0.322917,Triplet,G5
4554,Right,0,82,110,794.0,0.322917,Triplet,A#5
4555,Right,0,76,110,794.333333,0.322917,Triplet,E5
4556,Right,0,85,110,794.666667,0.322917,Triplet,C#6
4557,Right,0,76,110,795.0,0.322917,Triplet,E5
4558,Right,0,73,110,795.333333,0.322917,Triplet,C#5
4559,Right,0,82,110,795.666667,0.322917,Triplet,A#5
4560,Right,0,73,110,796.0,0.322917,Triplet,C#5
4561,Right,0,70,110,796.333333,0.322917,Triplet,A#4
4562,Right,0,76,110,796.666667,0.322917,Triplet,E5
4563,Right,0,70,110,797.0,0.322917,Triplet,A#4
4564,Right,0,64,110,797.333333,0.322917,Triplet,E4
4565,Right,0,73,110,797.666667,0.322917,Triplet,C#5
4566,Right,0,70,110,798.0,0.322917,Triplet,A#4
4567,Right,0,64,110,798.333333,0.322917,Triplet,E4
4568,Right,0,72,110,798.666667,0.322917,Triplet,C5
4569,Right,0,70,110,799.0,0.322917,Triplet,A#4
4570,Right,0,64,110,799.333333,0.322917,Triplet,E4
4571,Right,0,72,110,799.666667,0.322917,Triplet,C5
4573,Right,0,65,110,800.0,0.989583,Quarter,F4_C5_A4
4572,Left,1,41,110,800.0,0.322917,Triplet,F3_F2
4577,Left,1,48,110,800.333333,0.322917,Triplet,C3
4578,Left,1,45,110,800.666667,0.322917,Triplet,A2
4580,Left,1,48,110,801.0,0.322917,Triplet,C3
4579,Right,0,72,110,801.0,1.989583,Half,C5
4581,Left,1,53,110,801.333333,0.322917,Triplet,F3
4582,Left,1,57,110,801.666667,0.322917,Triplet,A3
4583,Left,1,55,110,802.0,0.322917,Triplet,G3
4584,Left,1,52,110,802.333333,0.322917,Triplet,E3
4585,Left,1,48,110,802.666667,0.322917,Triplet,C3
4586,Right,0,72,110,803.0,0.989583,Quarter,C5
4587,Left,1,52,110,803.0,0.322917,Triplet,E3
4588,Left,1,55,110,803.333333,0.322917,Triplet,G3
4589,Left,1,58,110,803.666667,0.322917,Triplet,A#3
4591,Left,1,57,110,804.0,0.322917,Triplet,A3
4590,Right,0,77,110,804.0,0.322917,Triplet,F5
4592,Right,0,72,110,804.333333,0.322917,Triplet,C5
4593,Left,1,60,110,804.333333,0.322917,Triplet,C4
4595,Right,0,69,110,804.666667,0.322917,Triplet,A4
4594,Left,1,65,110,804.666667,0.322917,Triplet,F4
4596,Right,0,72,110,805.0,0.322917,Triplet,C5
4597,Left,1,60,110,805.0,0.322917,Triplet,C4
4599,Right,0,77,110,805.333333,0.322917,Triplet,F5
4598,Left,1,57,110,805.333333,0.322917,Triplet,A3
4601,Left,1,53,110,805.666667,0.322917,Triplet,F3
4600,Right,0,81,110,805.666667,0.322917,Triplet,A5
4603,Right,0,79,110,806.0,0.322917,Triplet,G5
4602,Left,1,58,110,806.0,0.322917,Triplet,A#3
4605,Right,0,76,110,806.333333,0.322917,Triplet,E5
4604,Left,1,61,110,806.333333,0.322917,Triplet,C#4
4606,Right,0,73,110,806.666667,0.322917,Triplet,C#5
4607,Left,1,65,110,806.666667,0.322917,Triplet,F4
4608,Right,0,76,110,807.0,0.322917,Triplet,E5
4609,Left,1,61,110,807.0,0.322917,Triplet,C#4
4611,Left,1,58,110,807.333333,0.322917,Triplet,A#3
4610,Right,0,79,110,807.333333,0.322917,Triplet,G5
4612,Left,1,53,110,807.666667,0.322917,Triplet,F3
4613,Right,0,82,110,807.666667,0.322917,Triplet,A#5
4615,Left,1,60,110,808.0,1.322917,TiedQuarter-Sixteenth,C4
4614,Right,0,81,110,808.0,0.322917,Triplet,A5
4617,Right,0,78,110,808.333333,0.322917,Triplet,F#5
4616,Left,1,63,110,808.333333,0.65625,DottedEighth,D#4
4619,Right,0,75,110,808.666667,0.322917,Triplet,D#5
4618,Left,1,65,110,808.666667,7.322917,Unknown,F4
4620,Left,1,63,110,809.0,6.989583,Unknown,D#4
4621,Right,0,78,110,809.0,0.322917,Triplet,F#5
4622,Left,1,60,110,809.333333,6.65625,Unknown,C4
4623,Right,0,81,110,809.333333,0.322917,Triplet,A5
4624,Right,0,84,110,809.666667,0.322917,Triplet,C6
4625,Left,1,53,110,809.666667,6.322917,Unknown,F3
4626,Right,0,81,110,810.0,0.322917,Triplet,A5
4627,Right,0,78,110,810.333333,0.322917,Triplet,F#5
4628,Right,0,87,110,810.666667,0.322917,Triplet,D#6
4629,Right,0,78,110,811.0,0.322917,Triplet,F#5
4630,Right,0,75,110,811.333333,0.322917,Triplet,D#5
4631,Right,0,84,110,811.666667,0.322917,Triplet,C6
4632,Right,0,75,110,812.0,0.322917,Triplet,D#5
4633,Right,0,72,110,812.333333,0.322917,Triplet,C5
4634,Right,0,81,110,812.666667,0.322917,Triplet,A5
4635,Right,0,75,110,813.0,0.322917,Triplet,D#5
4636,Right,0,69,110,813.333333,0.322917,Triplet,A4
4637,Right,0,78,110,813.666667,0.322917,Triplet,F#5
4638,Right,0,75,110,814.0,0.322917,Triplet,D#5
4639,Right,0,69,110,814.333333,0.322917,Triplet,A4
4640,Right,0,77,110,814.666667,0.322917,Triplet,F5
4641,Right,0,75,110,815.0,0.322917,Triplet,D#5
4642,Right,0,69,110,815.333333,0.322917,Triplet,A4
4643,Right,0,77,110,815.666667,0.322917,Triplet,F5
4644,Right,0,70,110,816.0,0.989583,Quarter,F5_D5_A#4
4645,Left,1,46,110,816.0,0.322917,Triplet,A#2_A#1
4649,Left,1,41,110,816.333333,0.322917,Triplet,F2
4650,Left,1,38,110,816.666667,0.322917,Triplet,D2
4652,Right,0,65,110,817.0,1.989583,Half,F4
4651,Left,1,41,110,817.0,0.322917,Triplet,F2
4653,Left,1,46,110,817.333333,0.322917,Triplet,A#2
4654,Left,1,50,110,817.666667,0.322917,Triplet,D3
4655,Left,1,48,110,818.0,0.322917,Triplet,C3
4656,Left,1,45,110,818.333333,0.322917,Triplet,A2
4657,Left,1,41,110,818.666667,0.322917,Triplet,F2
4658,Right,0,65,110,819.0,0.989583,Quarter,F4
4659,Left,1,45,110,819.0,0.322917,Triplet,A2
4660,Left,1,48,110,819.333333,0.322917,Triplet,C3
4661,Left,1,51,110,819.666667,0.322917,Triplet,D#3
4663,Right,0,70,110,820.0,0.322917,Triplet,A#4
4662,Left,1,50,110,820.0,0.322917,Triplet,D3
4664,Left,1,53,110,820.333333,0.322917,Triplet,F3
4665,Right,0,65,110,820.333333,0.322917,Triplet,F4
4667,Left,1,58,110,820.666667,0.322917,Triplet,A#3
4666,Right,0,62,110,820.666667,0.322917,Triplet,D4
4669,Left,1,53,110,821.0,0.322917,Triplet,F3
4668,Right,0,65,110,821.0,0.322917,Triplet,F4
4670,Left,1,50,110,821.333333,0.322917,Triplet,D3
4671,Right,0,70,110,821.333333,0.322917,Triplet,A#4
4672,Left,1,46,110,821.666667,0.322917,Triplet,A#2
4673,Right,0,74,110,821.666667,0.322917,Triplet,D5
4675,Left,1,51,110,822.0,0.322917,Triplet,D#3
4674,Right,0,72,110,822.0,0.322917,Triplet,C5
4676,Left,1,54,110,822.333333,0.322917,Triplet,F#3
4677,Right,0,69,110,822.333333,0.322917,Triplet,A4
4679,Right,0,66,110,822.666667,0.322917,Triplet,F#4
4678,Left,1,58,110,822.666667,0.322917,Triplet,A#3
4680,Left,1,54,110,823.0,0.322917,Triplet,F#3
4681,Right,0,69,110,823.0,0.322917,Triplet,A4
4682,Right,0,72,110,823.333333,0.322917,Triplet,C5
4683,Left,1,51,110,823.333333,0.322917,Triplet,D#3
4684,Right,0,75,110,823.666667,0.322917,Triplet,D#5
4685,Left,1,46,110,823.666667,0.322917,Triplet,A#2
4687,Right,0,74,110,824.0,0.322917,Triplet,D5
4686,Left,1,53,110,824.0,1.322917,TiedQuarter-Sixteenth,F3
4688,Right,0,71,110,824.333333,0.322917,Triplet,B4
4689,Left,1,56,110,824.333333,0.65625,DottedEighth,G#3
4690,Left,1,58,110,824.666667,7.322917,Unknown,A#3
4691,Right,0,68,110,824.666667,0.322917,Triplet,G#4
4693,Right,0,71,110,825.0,0.322917,Triplet,B4
4692,Left,1,56,110,825.0,6.989583,Unknown,G#3
4694,Left,1,53,110,825.333333,6.65625,Unknown,F3
4695,Right,0,74,110,825.333333,0.322917,Triplet,D5
4696,Left,1,46,110,825.666667,6.322917,Unknown,A#2
4697,Right,0,77,110,825.666667,0.322917,Triplet,F5
4698,Right,0,80,110,826.0,0.322917,Triplet,G#5
4699,Right,0,74,110,826.333333,0.322917,Triplet,D5
4700,Right,0,83,110,826.666667,0.322917,Triplet,B5
4701,Right,0,74,110,827.0,0.322917,Triplet,D5
4702,Right,0,71,110,827.333333,0.322917,Triplet,B4
4703,Right,0,80,110,827.666667,0.322917,Triplet,G#5
4704,Right,0,71,110,828.0,0.322917,Triplet,B4
4705,Right,0,68,110,828.333333,0.322917,Triplet,G#4
4706,Right,0,77,110,828.666667,0.322917,Triplet,F5
4707,Right,0,68,110,829.0,0.322917,Triplet,G#4
4708,Right,0,65,110,829.333333,0.322917,Triplet,F4
4709,Right,0,74,110,829.666667,0.322917,Triplet,D5
4710,Right,0,68,110,830.0,0.322917,Triplet,G#4
4711,Right,0,62,110,830.333333,0.322917,Triplet,D4
4712,Right,0,71,110,830.666667,0.322917,Triplet,B4
4713,Right,0,68,110,831.0,0.322917,Triplet,G#4
4714,Right,0,62,110,831.333333,0.322917,Triplet,D4
4715,Right,0,70,110,831.666667,0.322917,Triplet,A#4
4716,Left,1,51,110,832.0,1.322917,TiedQuarter-Sixteenth,D#3
4717,Right,0,78,110,832.0,0.322917,Triplet,F#5
4719,Left,1,54,110,832.333333,0.65625,DottedEighth,F#3
4718,Right,0,75,110,832.333333,0.322917,Triplet,D#5
4720,Left,1,58,110,832.666667,7.322917,Unknown,A#3
4721,Right,0,70,110,832.666667,0.322917,Triplet,A#4
4723,Left,1,54,110,833.0,6.989583,Unknown,F#3
4722,Right,0,75,110,833.0,0.322917,Triplet,D#5
4724,Left,1,51,110,833.333333,6.65625,Unknown,D#3
4725,Right,0,78,110,833.333333,0.322917,Triplet,F#5
4726,Right,0,82,110,833.666667,0.322917,Triplet,A#5
4727,Left,1,46,110,833.666667,6.322917,Unknown,A#2
4728,Right,0,78,110,834.0,0.322917,Triplet,F#5
4729,Right,0,75,110,834.333333,0.322917,Triplet,D#5
4730,Right,0,87,110,834.666667,0.322917,Triplet,D#6
4731,Right,0,75,110,835.0,0.322917,Triplet,D#5
4732,Right,0,70,110,835.333333,0.322917,Triplet,A#4
4733,Right,0,82,110,835.666667,0.322917,Triplet,A#5
4734,Right,0,70,110,836.0,0.322917,Triplet,A#4
4735,Right,0,66,110,836.333333,0.322917,Triplet,F#4
4736,Right,0,78,110,836.666667,0.322917,Triplet,F#5
4737,Right,0,66,110,837.0,0.322917,Triplet,F#4
4738,Right,0,63,110,837.333333,0.322917,Triplet,D#4
4739,Right,0,75,110,837.666667,0.322917,Triplet,D#5
4740,Right,0,66,110,838.0,0.322917,Triplet,F#4
4741,Right,0,63,110,838.333333,0.322917,Triplet,D#4
4742,Right,0,75,110,838.666667,0.322917,Triplet,D#5
4743,Right,0,66,110,839.0,0.322917,Triplet,F#4
4744,Right,0,63,110,839.333333,0.322917,Triplet,D#4
4745,Right,0,75,110,839.666667,0.322917,Triplet,D#5
4746,Right,0,78,110,840.0,0.322917,Triplet,F#5
4747,Left,1,49,110,840.0,1.322917,TiedQuarter-Sixteenth,C#3
4749,Right,0,76,110,840.333333,0.322917,Triplet,E5
4748,Left,1,54,110,840.333333,0.65625,DottedEighth,F#3
4751,Left,1,58,110,840.666667,7.322917,Unknown,A#3
4750,Right,0,73,110,840.666667,0.322917,Triplet,C#5
4753,Left,1,54,110,841.0,6.989583,Unknown,F#3
4752,Right,0,76,110,841.0,0.322917,Triplet,E5
4754,Right,0,78,110,841.333333,0.322917,Triplet,F#5
4755,Left,1,49,110,841.333333,6.65625,Unknown,C#3
4757,Right,0,85,110,841.666667,0.322917,Triplet,C#6
4756,Left,1,46,110,841.666667,6.322917,Unknown,A#2
4758,Right,0,78,110,842.0,0.322917,Triplet,F#5
4759,Right,0,76,110,842.333333,0.322917,Triplet,E5
4760,Right,0,88,110,842.666667,0.322917,Triplet,E6
4761,Right,0,76,110,843.0,0.322917,Triplet,E5
4762,Right,0,73,110,843.333333,0.322917,Triplet,C#5
4763,Right,0,85,110,843.666667,0.322917,Triplet,C#6
4764,Right,0,73,110,844.0,0.322917,Triplet,C#5
4765,Right,0,66,110,844.333333,0.322917,Triplet,F#4
4766,Right,0,78,110,844.666667,0.322917,Triplet,F#5
4767,Right,0,66,110,845.0,0.322917,Triplet,F#4
4768,Right,0,64,110,845.333333,0.322917,Triplet,E4
4769,Right,0,76,110,845.666667,0.322917,Triplet,E5
4770,Right,0,66,110,846.0,0.322917,Triplet,F#4
4771,Right,0,64,110,846.333333,0.322917,Triplet,E4
4772,Right,0,76,110,846.666667,0.322917,Triplet,E5
4773,Right,0,66,110,847.0,0.322917,Triplet,F#4
4774,Right,0,64,110,847.333333,0.322917,Triplet,E4
4775,Right,0,76,110,847.666667,0.322917,Triplet,E5
4777,Right,0,78,110,848.0,0.322917,Triplet,F#5
4776,Left,1,50,110,848.0,1.322917,TiedQuarter-Sixteenth,D3
4778,Right,0,74,110,848.333333,0.322917,Triplet,D5
4779,Left,1,54,110,848.333333,0.65625,DottedEighth,F#3
4781,Left,1,59,110,848.666667,7.322917,Unknown,B3
4780,Right,0,71,110,848.666667,0.322917,Triplet,B4
4782,Left,1,54,110,849.0,6.989583,Unknown,F#3
4783,Right,0,74,110,849.0,0.322917,Triplet,D5
4784,Left,1,50,110,849.333333,6.65625,Unknown,D3
4785,Right,0,78,110,849.333333,0.322917,Triplet,F#5
4787,Right,0,83,110,849.666667,0.322917,Triplet,B5
4786,Left,1,47,110,849.666667,6.322917,Unknown,B2
4788,Right,0,78,110,850.0,0.322917,Triplet,F#5
4789,Right,0,74,110,850.333333,0.322917,Triplet,D5
4790,Right,0,86,110,850.666667,0.322917,Triplet,D6
4791,Right,0,74,110,851.0,0.322917,Triplet,D5
4792,Right,0,71,110,851.333333,0.322917,Triplet,B4
4793,Right,0,83,110,851.666667,0.322917,Triplet,B5
4794,Right,0,71,110,852.0,0.322917,Triplet,B4
4795,Right,0,66,110,852.333333,0.322917,Triplet,F#4
4796,Right,0,78,110,852.666667,0.322917,Triplet,F#5
4797,Right,0,66,110,853.0,0.322917,Triplet,F#4
4798,Right,0,62,110,853.333333,0.322917,Triplet,D4
4799,Right,0,74,110,853.666667,0.322917,Triplet,D5
4800,Right,0,66,110,854.0,0.322917,Triplet,F#4
4801,Right,0,62,110,854.333333,0.322917,Triplet,D4
4802,Right,0,74,110,854.666667,0.322917,Triplet,D5
4803,Right,0,66,110,855.0,0.322917,Triplet,F#4
4804,Right,0,62,110,855.333333,0.322917,Triplet,D4
4805,Right,0,74,110,855.666667,0.322917,Triplet,D5
4807,Right,0,79,110,856.0,0.322917,Triplet,G5
4806,Left,1,50,110,856.0,1.322917,TiedQuarter-Sixteenth,D3
4808,Left,1,55,110,856.333333,0.65625,DottedEighth,G3
4809,Right,0,74,110,856.333333,0.322917,Triplet,D5
4810,Right,0,71,110,856.666667,0.322917,Triplet,B4
4811,Left,1,59,110,856.666667,7.322917,Unknown,B3
4812,Right,0,74,110,857.0,0.322917,Triplet,D5
4813,Left,1,55,110,857.0,6.989583,Unknown,G3
4815,Left,1,50,110,857.333333,6.65625,Unknown,D3
4814,Right,0,79,110,857.333333,0.322917,Triplet,G5
4817,Right,0,83,110,857.666667,0.322917,Triplet,B5
4816,Left,1,47,110,857.666667,6.322917,Unknown,B2
4818,Right,0,79,110,858.0,0.322917,Triplet,G5
4819,Right,0,74,110,858.333333,0.322917,Triplet,D5
4820,Right,0,86,110,858.666667,0.322917,Triplet,D6
4821,Right,0,74,110,859.0,0.322917,Triplet,D5
4822,Right,0,71,110,859.333333,0.322917,Triplet,B4
4823,Right,0,83,110,859.666667,0.322917,Triplet,B5
4824,Right,0,71,110,860.0,0.322917,Triplet,B4
4825,Right,0,67,110,860.333333,0.322917,Triplet,G4
4826,Right,0,79,110,860.666667,0.322917,Triplet,G5
4827,Right,0,67,110,861.0,0.322917,Triplet,G4
4828,Right,0,65,110,861.333333,0.322917,Triplet,F4
4829,Right,0,77,110,861.666667,0.322917,Triplet,F5
4830,Right,0,67,110,862.0,0.322917,Triplet,G4
4831,Right,0,62,110,862.333333,0.322917,Triplet,D4
4832,Right,0,74,110,862.666667,0.322917,Triplet,D5
4833,Right,0,67,110,863.0,0.322917,Triplet,G4
4834,Right,0,62,110,863.333333,0.322917,Triplet,D4
4835,Right,0,74,110,863.666667,0.322917,Triplet,D5
4837,Left,1,51,110,864.0,1.322917,TiedQuarter-Sixteenth,D#3
4836,Right,0,84,110,864.0,0.322917,Triplet,C6
4838,Right,0,79,110,864.333333,0.322917,Triplet,G5
4839,Left,1,55,110,864.333333,0.65625,DottedEighth,G3
4841,Left,1,60,110,864.666667,7.322917,Unknown,C4
4840,Right,0,75,110,864.666667,0.322917,Triplet,D#5
4843,Left,1,55,110,865.0,6.989583,Unknown,G3
4842,Right,0,79,110,865.0,0.322917,Triplet,G5
4844,Right,0,84,110,865.333333,0.322917,Triplet,C6
4845,Left,1,51,110,865.333333,6.65625,Unknown,D#3
4846,Right,0,87,110,865.666667,0.322917,Triplet,D#6
4847,Left,1,48,110,865.666667,6.322917,Unknown,C3
4848,Right,0,79,110,866.0,0.322917,Triplet,G5
4849,Right,0,75,110,866.333333,0.322917,Triplet,D#5
4850,Right,0,87,110,866.666667,0.322917,Triplet,D#6
4851,Right,0,75,110,867.0,0.322917,Triplet,D#5
4852,Right,0,72,110,867.333333,0.322917,Triplet,C5
4853,Right,0,84,110,867.666667,0.322917,Triplet,C6
4854,Right,0,72,110,868.0,0.322917,Triplet,C5
4855,Right,0,67,110,868.333333,0.322917,Triplet,G4
4856,Right,0,79,110,868.666667,0.322917,Triplet,G5
4857,Right,0,67,110,869.0,0.322917,Triplet,G4
4858,Right,0,63,110,869.333333,0.322917,Triplet,D#4
4859,Right,0,75,110,869.666667,0.322917,Triplet,D#5
4860,Right,0,67,110,870.0,0.322917,Triplet,G4
4861,Right,0,63,110,870.333333,0.322917,Triplet,D#4
4862,Right,0,75,110,870.666667,0.322917,Triplet,D#5
4863,Right,0,67,110,871.0,0.322917,Triplet,G4
4864,Right,0,63,110,871.333333,0.322917,Triplet,D#4
4865,Right,0,75,110,871.666667,0.322917,Triplet,D#5
4866,Left,1,56,110,872.0,1.322917,TiedQuarter-Sixteenth,G#3
4867,Right,0,77,110,872.0,0.322917,Triplet,F5
4869,Right,0,73,110,872.333333,0.322917,Triplet,C#5
4868,Left,1,61,110,872.333333,0.65625,DottedEighth,C#4
4871,Right,0,68,110,872.666667,0.322917,Triplet,G#4
4870,Left,1,65,110,872.666667,3.322917,DottedHalf,F4
4872,Right,0,73,110,873.0,0.322917,Triplet,C#5
4873,Left,1,61,110,873.0,2.989583,DottedHalf,C#4
4874,Right,0,77,110,873.333333,0.322917,Triplet,F5
4875,Left,1,56,110,873.333333,2.65625,DottedHalf,G#3
4876,Right,0,80,110,873.666667,0.322917,Triplet,G#5
4877,Left,1,53,110,873.666667,2.322917,Half,F3
4878,Right,0,77,110,874.0,0.322917,Triplet,F5
4879,Right,0,73,110,874.333333,0.322917,Triplet,C#5
4880,Right,0,68,110,874.666667,0.322917,Triplet,G#4
4881,Right,0,77,110,875.0,0.322917,Triplet,F5
4882,Right,0,73,110,875.333333,0.322917,Triplet,C#5
4883,Right,0,68,110,875.666667,0.322917,Triplet,G#4
4884,Right,0,75,110,876.0,0.322917,Triplet,D#5
4885,Left,1,60,110,876.0,1.322917,TiedQuarter-Sixteenth,C4
4887,Left,1,63,110,876.333333,0.65625,DottedEighth,D#4
4886,Right,0,72,110,876.333333,0.322917,Triplet,C5
4889,Left,1,66,110,876.666667,3.322917,DottedHalf,F#4
4888,Right,0,69,110,876.666667,0.322917,Triplet,A4
4891,Left,1,63,110,877.0,2.989583,DottedHalf,D#4
4890,Right,0,72,110,877.0,0.322917,Triplet,C5
4893,Left,1,60,110,877.333333,2.65625,DottedHalf,C4
4892,Right,0,75,110,877.333333,0.322917,Triplet,D#5
4894,Right,0,81,110,877.666667,0.322917,Triplet,A5
4895,Left,1,54,110,877.666667,2.322917,Half,F#3
4896,Right,0,75,110,878.0,0.322917,Triplet,D#5
4897,Right,0,72,110,878.333333,0.322917,Triplet,C5
4898,Right,0,69,110,878.666667,0.322917,Triplet,A4
4899,Right,0,75,110,879.0,0.322917,Triplet,D#5
4900,Right,0,72,110,879.333333,0.322917,Triplet,C5
4901,Right,0,69,110,879.666667,0.322917,Triplet,A4
4902,Left,1,59,110,880.0,1.322917,TiedQuarter-Sixteenth,B3
4903,Left,1,62,110,880.333333,0.65625,DottedEighth,D4
4904,Left,1,67,110,880.666667,2.322917,Half,G4
4906,Left,1,62,110,881.0,1.989583,Half,D4
4905,Right,0,71,110,881.0,0.322917,Triplet,B4
4908,Left,1,59,110,881.333333,1.65625,DottedQuarter,B3
4907,Right,0,74,110,881.333333,0.322917,Triplet,D5
4910,Left,1,55,110,881.666667,3.322917,DottedHalf,G3
4909,Right,0,79,110,881.666667,0.322917,Triplet,G5
4911,Right,0,74,110,882.0,0.322917,Triplet,D5
4912,Right,0,71,110,882.333333,0.322917,Triplet,B4
4913,Right,0,67,110,882.666667,0.322917,Triplet,G4
4914,Right,0,77,80,883.0,0.322917,Triplet,F5
4915,Left,1,62,80,883.0,0.989583,Quarter,D4
4916,Right,0,74,80,883.333333,0.322917,Triplet,D5
4917,Right,0,67,80,883.666667,0.322917,Triplet,G4
4918,Right,0,77,80,884.0,0.322917,Triplet,F5
4919,Right,0,74,80,884.333333,0.322917,Triplet,D5
4920,Right,0,67,80,884.666667,0.322917,Triplet,G4
4922,Left,1,55,80,885.0,2.989583,DottedHalf,G3
4921,Right,0,75,80,885.0,0.322917,Triplet,D#5
4923,Right,0,74,80,885.333333,0.322917,Triplet,D5
4924,Right,0,67,80,885.666667,0.322917,Triplet,G4
4926,Left,1,60,80,886.0,0.989583,Quarter,C4
4925,Right,0,75,80,886.0,0.322917,Triplet,D#5
4927,Right,0,72,80,886.333333,0.322917,Triplet,C5
4928,Right,0,67,80,886.666667,0.322917,Triplet,G4
4930,Right,0,74,80,887.0,0.322917,Triplet,D5
4929,Left,1,66,80,887.0,0.989583,Quarter,F#4
4931,Right,0,72,80,887.333333,0.322917,Triplet,C5
4932,Right,0,69,80,887.666667,0.322917,Triplet,A4
4933,Left,1,47,110,888.0,1.322917,TiedQuarter-Sixteenth,B2
4934,Left,1,50,110,888.333333,0.65625,DottedEighth,D3
4935,Left,1,55,110,888.666667,7.822917,Unknown,G3
4936,Left,1,50,110,889.0,1.989583,Half,D3
4937,Right,0,59,110,889.0,0.322917,Triplet,B3
4938,Left,1,47,110,889.333333,1.65625,DottedQuarter,B2
4939,Right,0,62,110,889.333333,0.322917,Triplet,D4
4941,Left,1,43,110,889.666667,3.322917,DottedHalf,G2
4940,Right,0,67,110,889.666667,0.322917,Triplet,G4
4942,Right,0,62,110,890.0,0.322917,Triplet,D4
4943,Right,0,59,110,890.333333,0.322917,Triplet,B3
4944,Right,0,55,110,890.666667,0.322917,Triplet,G3
4945,Right,0,65,80,891.0,0.322917,Triplet,F4
4946,Left,1,50,80,891.0,0.989583,Quarter,D3
4947,Right,0,59,80,891.333333,0.322917,Triplet,B3
4948,Right,0,55,80,891.666667,0.322917,Triplet,G3
4949,Right,0,65,80,892.0,0.322917,Triplet,F4
4950,Right,0,62,80,892.333333,0.322917,Triplet,D4
4951,Right,0,55,80,892.666667,0.322917,Triplet,G3
4952,Right,0,63,80,893.0,0.322917,Triplet,D#4
4953,Left,1,43,80,893.0,3.489583,DottedHalf,G2
4954,Right,0,62,80,893.333333,0.322917,Triplet,D4
4955,Right,0,55,80,893.666667,0.322917,Triplet,G3
4957,Right,0,63,80,894.0,0.322917,Triplet,D#4
4956,Left,1,48,80,894.0,0.989583,Quarter,C3
4958,Right,0,60,80,894.333333,0.322917,Triplet,C4
4959,Right,0,55,80,894.666667,0.322917,Triplet,G3
4961,Right,0,62,80,895.0,0.322917,Triplet,D4
4960,Left,1,54,80,895.0,0.989583,Quarter,F#3
4962,Right,0,60,80,895.333333,0.322917,Triplet,C4
4963,Right,0,57,80,895.666667,0.322917,Triplet,A3
4964,Right,0,62,80,896.0,0.322917,Triplet,D4
4965,Right,0,59,80,896.333333,0.322917,Triplet,B3
4966,Right,0,55,80,896.666667,0.322917,Triplet,G3
4968,Right,0,60,80,897.0,0.322917,Triplet,C4
4967,Left,1,48,80,897.0,0.989583,Quarter,C3
4969,Right,0,55,80,897.333333,0.322917,Triplet,G3
4970,Right,0,51,80,897.666667,0.322917,Triplet,D#3
4971,Right,0,59,79,898.0,0.322917,Triplet,B3
4972,Left,1,43,79,898.0,0.989583,Quarter,G2
4973,Right,0,55,79,898.333333,0.322917,Triplet,G3
4974,Right,0,50,78,898.666667,0.322917,Triplet,D3
4975,Left,1,36,78,899.0,0.989583,Quarter,C2
4976,Right,0,57,78,899.0,0.322917,Triplet,A3
4977,Right,0,51,77,899.333333,0.322917,Triplet,D#3
4978,Right,0,48,77,899.666667,0.322917,Triplet,C3
4979,Right,0,55,76,900.0,0.322917,Triplet,G3
4980,Left,1,31,76,900.0,0.989583,Quarter,G1
4981,Right,0,50,76,900.333333,0.322917,Triplet,D3
4982,Right,0,47,75,900.666667,0.322917,Triplet,B2
4983,Right,0,54,75,901.0,0.322917,Triplet,F#3
4984,Left,1,36,75,901.0,0.989583,Quarter,C2
4985,Right,0,51,74,901.333333,0.322917,Triplet,D#3
4986,Right,0,45,74,901.666667,0.322917,Triplet,A2
4988,Right,0,55,73,902.0,0.322917,Triplet,G3
4987,Left,1,31,73,902.0,0.989583,Quarter,G1
4989,Right,0,50,73,902.333333,0.322917,Triplet,D3
4990,Right,0,47,72,902.666667,0.322917,Triplet,B2
4992,Right,0,54,72,903.0,0.322917,Triplet,F#3
4991,Left,1,36,72,903.0,0.989583,Quarter,C2
4993,Right,0,51,71,903.333333,0.322917,Triplet,D#3
4994,Right,0,45,71,903.666667,0.322917,Triplet,A2
4996,Right,0,47,70,904.0,4.239583,Whole,G3_D3_B2
4995,Left,1,31,70,904.0,0.239583,Sixteenth,G1
4999,Left,1,36,70,904.25,0.239583,Sixteenth,C2
5000,Left,1,35,70,904.5,0.239583,Sixteenth,B1
5001,Left,1,33,70,904.75,0.239583,Sixteenth,A1
5002,Left,1,31,70,905.0,0.239583,Sixteenth,G1
5003,Left,1,36,70,905.25,0.239583,Sixteenth,C2
5004,Left,1,35,70,905.5,0.239583,Sixteenth,B1
5005,Left,1,33,70,905.75,0.239583,Sixteenth,A1
5006,Left,1,31,70,906.0,0.239583,Sixteenth,G1
5007,Left,1,36,70,906.25,0.239583,Sixteenth,C2
5008,Left,1,35,70,906.5,0.239583,Sixteenth,B1
5009,Left,1,33,70,906.75,0.239583,Sixteenth,A1
5010,Left,1,31,70,907.0,0.239583,Sixteenth,G1
5011,Left,1,36,70,907.25,0.239583,Sixteenth,C2
5012,Left,1,35,70,907.5,0.239583,Sixteenth,B1
5013,Left,1,33,70,907.75,0.239583,Sixteenth,A1
5014,Left,1,31,70,908.0,4.239583,Whole,G1
5015,Right,0,50,70,908.25,0.239583,Sixteenth,D3
5016,Right,0,52,70,908.5,0.239583,Sixteenth,E3
5017,Right,0,54,70,908.75,0.239583,Sixteenth,F#3
5018,Right,0,55,70,909.0,0.239583,Sixteenth,G3
5019,Right,0,50,70,909.25,0.239583,Sixteenth,D3
5020,Right,0,52,70,909.5,0.239583,Sixteenth,E3
5021,Right,0,54,70,909.75,0.239583,Sixteenth,F#3
5022,Right,0,55,70,910.0,0.239583,Sixteenth,G3
5023,Right,0,50,70,910.25,0.239583,Sixteenth,D3
5024,Right,0,52,70,910.5,0.239583,Sixteenth,E3
5025,Right,0,54,70,910.75,0.239583,Sixteenth,F#3
5026,Right,0,55,70,911.0,0.239583,Sixteenth,G3
5027,Right,0,50,70,911.25,0.239583,Sixteenth,D3
5028,Right,0,52,70,911.5,0.239583,Sixteenth,E3
5029,Right,0,54,70,911.75,0.239583,Sixteenth,F#3
5030,Right,0,55,70,912.0,4.239583,Whole,G3
5031,Left,1,36,70,912.25,0.239583,Sixteenth,C2
5032,Left,1,35,70,912.5,0.239583,Sixteenth,B1
5033,Left,1,33,70,912.75,0.239583,Sixteenth,A1
5034,Left,1,31,70,913.0,0.239583,Sixteenth,G1
5035,Left,1,36,70,913.25,0.239583,Sixteenth,C2
5036,Left,1,35,70,913.5,0.239583,Sixteenth,B1
5037,Left,1,33,70,913.75,0.239583,Sixteenth,A1
5038,Left,1,31,70,914.0,0.239583,Sixteenth,G1
5039,Left,1,36,70,914.25,0.239583,Sixteenth,C2
5040,Left,1,35,70,914.5,0.239583,Sixteenth,B1
5041,Left,1,33,70,914.75,0.239583,Sixteenth,A1
5042,Left,1,31,70,915.0,0.239583,Sixteenth,G1
5043,Left,1,36,70,915.25,0.239583,Sixteenth,C2
5044,Left,1,35,70,915.5,0.239583,Sixteenth,B1
5045,Left,1,33,70,915.75,0.239583,Sixteenth,A1
5046,Left,1,31,70,916.0,4.239583,Whole,G1
5047,Right,0,54,70,916.25,0.239583,Sixteenth,F#3
5048,Right,0,55,70,916.5,0.239583,Sixteenth,G3
5049,Right,0,57,70,916.75,0.239583,Sixteenth,A3
5050,Right,0,59,70,917.0,0.239583,Sixteenth,B3
5051,Right,0,54,70,917.25,0.239583,Sixteenth,F#3
5052,Right,0,55,70,917.5,0.239583,Sixteenth,G3
5053,Right,0,57,70,917.75,0.239583,Sixteenth,A3
5054,Right,0,59,70,918.0,0.239583,Sixteenth,B3
5055,Right,0,54,70,918.25,0.239583,Sixteenth,F#3
5056,Right,0,55,70,918.5,0.239583,Sixteenth,G3
5057,Right,0,57,70,918.75,0.239583,Sixteenth,A3
5058,Right,0,59,70,919.0,0.239583,Sixteenth,B3
5059,Right,0,54,70,919.25,0.239583,Sixteenth,F#3
5060,Right,0,55,70,919.5,0.239583,Sixteenth,G3
5061,Right,0,57,70,919.75,0.239583,Sixteenth,A3
5062,Right,0,59,70,920.0,0.489583,Eighth,B3
5063,Left,1,36,70,920.25,0.239583,Sixteenth,C2
5064,Left,1,35,70,920.5,0.239583,Sixteenth,B1
5065,Left,1,33,71,920.75,0.239583,Sixteenth,A1
5066,Left,1,31,71,921.0,0.239583,Sixteenth,G1
5067,Left,1,36,72,921.25,0.239583,Sixteenth,C2
5068,Right,0,59,72,921.5,0.239583,Sixteenth,B3
5069,Left,1,35,72,921.5,0.239583,Sixteenth,B1
5070,Left,1,33,73,921.75,0.239583,Sixteenth,A1
5071,Right,0,60,73,921.75,0.239583,Sixteenth,C4
5073,Left,1,31,73,922.0,0.239583,Sixteenth,G1
5072,Right,0,62,73,922.0,0.489583,Eighth,D4
5074,Left,1,36,73,922.25,0.239583,Sixteenth,C2
5075,Left,1,35,74,922.5,0.239583,Sixteenth,B1
5076,Left,1,33,74,922.75,0.239583,Sixteenth,A1
5077,Left,1,31,75,923.0,0.239583,Sixteenth,G1
5078,Left,1,36,75,923.25,0.239583,Sixteenth,C2
5080,Left,1,35,76,923.5,0.239583,Sixteenth,B1
5079,Right,0,62,76,923.5,0.15625,TripletSixteenth,D4
5081,Right,0,64,76,923.666667,0.15625,TripletSixteenth,E4
5082,Left,1,33,76,923.75,0.239583,Sixteenth,A1
5083,Right,0,66,76,923.833333,0.15625,TripletSixteenth,F#4
5085,Right,0,67,76,924.0,0.489583,Eighth,G4
5084,Left,1,31,76,924.0,0.239583,Sixteenth,G1
5086,Left,1,36,77,924.25,0.239583,Sixteenth,C2
5087,Left,1,35,77,924.5,0.239583,Sixteenth,B1
5088,Left,1,33,78,924.75,0.239583,Sixteenth,A1
5089,Left,1,31,78,925.0,0.239583,Sixteenth,G1
5090,Left,1,36,79,925.25,0.239583,Sixteenth,C2
5092,Right,0,67,79,925.5,0.239583,Sixteenth,G4
5091,Left,1,35,79,925.5,0.239583,Sixteenth,B1
5093,Left,1,33,79,925.75,0.239583,Sixteenth,A1
5094,Right,0,69,79,925.75,0.239583,Sixteenth,A4
5096,Right,0,71,80,926.0,0.489583,Eighth,B4
5095,Left,1,31,80,926.0,0.239583,Sixteenth,G1
5097,Left,1,36,80,926.25,0.239583,Sixteenth,C2
5099,Right,0,71,81,926.5,0.239583,Sixteenth,B4
5098,Left,1,35,81,926.5,0.239583,Sixteenth,B1
5100,Right,0,72,81,926.75,0.239583,Sixteenth,C5
5101,Left,1,33,81,926.75,0.239583,Sixteenth,A1
5102,Left,1,31,82,927.0,0.239583,Sixteenth,G1
5103,Right,0,74,82,927.0,0.489583,Eighth,D5
5104,Left,1,36,82,927.25,0.239583,Sixteenth,C2
5105,Left,1,35,82,927.5,0.239583,Sixteenth,B1
5106,Right,0,74,82,927.5,0.15625,TripletSixteenth,D5
5107,Right,0,76,83,927.666667,0.15625,TripletSixteenth,E5
5108,Left,1,33,83,927.75,0.239583,Sixteenth,A1
5109,Right,0,78,83,927.833333,0.15625,TripletSixteenth,F#5
5110,Left,1,31,83,928.0,0.239583,Sixteenth,G1
5111,Right,0,79,83,928.0,0.489583,Eighth,G5
5112,Left,1,36,84,928.25,0.239583,Sixteenth,C2
5113,Left,1,35,84,928.5,0.239583,Sixteenth,B1
5114,Left,1,33,85,928.75,0.239583,Sixteenth,A1
5115,Left,1,31,85,929.0,0.239583,Sixteenth,G1
5116,Left,1,36,85,929.25,0.239583,Sixteenth,C2
5118,Left,1,35,86,929.5,0.239583,Sixteenth,B1
5117,Right,0,62,86,929.5,0.15625,TripletSixteenth,D4
5119,Right,0,64,86,929.666667,0.15625,TripletSixteenth,E4
5120,Left,1,33,86,929.75,0.239583,Sixteenth,A1
5121,Right,0,66,86,929.833333,0.15625,TripletSixteenth,F#4
5122,Right,0,67,87,930.0,0.489583,Eighth,G4
5123,Left,1,31,87,930.0,0.239583,Sixteenth,G1
5124,Left,1,36,87,930.25,0.239583,Sixteenth,C2
5125,Left,1,35,88,930.5,0.239583,Sixteenth,B1
5126,Left,1,33,88,930.75,0.239583,Sixteenth,A1
5127,Left,1,31,88,931.0,0.239583,Sixteenth,G1
5128,Left,1,36,89,931.25,0.239583,Sixteenth,C2
5129,Right,0,67,89,931.5,0.239583,Sixteenth,G4
5130,Left,1,35,89,931.5,0.239583,Sixteenth,B1
5131,Right,0,69,90,931.75,0.239583,Sixteenth,A4
5132,Left,1,33,90,931.75,0.239583,Sixteenth,A1
5133,Right,0,71,90,932.0,0.489583,Eighth,B4
5134,Left,1,31,90,932.0,0.239583,Sixteenth,G1
5135,Left,1,36,91,932.25,0.239583,Sixteenth,C2
5136,Left,1,35,91,932.5,0.239583,Sixteenth,B1
5137,Left,1,33,92,932.75,0.239583,Sixteenth,A1
5138,Left,1,31,92,933.0,0.239583,Sixteenth,G1
5139,Left,1,36,92,933.25,0.239583,Sixteenth,C2
5140,Left,1,35,93,933.5,0.239583,Sixteenth,B1
5141,Right,0,71,93,933.5,0.239583,Sixteenth,B4
5143,Left,1,33,93,933.75,0.239583,Sixteenth,A1
5142,Right,0,72,93,933.75,0.239583,Sixteenth,C5
5144,Left,1,31,94,934.0,0.239583,Sixteenth,G1
5145,Right,0,74,94,934.0,0.489583,Eighth,D5
5146,Left,1,36,94,934.25,0.239583,Sixteenth,C2
5148,Right,0,74,95,934.5,0.15625,TripletSixteenth,D5
5147,Left,1,35,95,934.5,0.239583,Sixteenth,B1
5149,Right,0,76,95,934.666667,0.15625,TripletSixteenth,E5
5150,Left,1,33,95,934.75,0.239583,Sixteenth,A1
5151,Right,0,78,95,934.833333,0.15625,TripletSixteenth,F#5
5153,Right,0,79,95,935.0,0.489583,Eighth,G5
5152,Left,1,31,95,935.0,0.239583,Sixteenth,G1
5154,Left,1,36,96,935.25,0.239583,Sixteenth,C2
5155,Left,1,35,96,935.5,0.239583,Sixteenth,B1
5156,Right,0,79,96,935.5,0.239583,Sixteenth,G5
5158,Right,0,81,97,935.75,0.239583,Sixteenth,A5
5157,Left,1,33,97,935.75,0.239583,Sixteenth,A1
5160,Left,1,31,97,936.0,0.239583,Sixteenth,G1
5159,Right,0,83,97,936.0,0.489583,Eighth,B5
5161,Left,1,36,98,936.25,0.239583,Sixteenth,C2
5162,Left,1,35,98,936.5,0.239583,Sixteenth,B1
5163,Left,1,33,98,936.75,0.239583,Sixteenth,A1
5164,Left,1,31,99,937.0,0.239583,Sixteenth,G1
5165,Left,1,36,99,937.25,0.239583,Sixteenth,C2
5166,Left,1,35,100,937.5,0.239583,Sixteenth,B1
5167,Right,0,74,100,937.5,0.15625,TripletSixteenth,D5
5168,Right,0,76,100,937.666667,0.15625,TripletSixteenth,E5
5169,Left,1,33,100,937.75,0.239583,Sixteenth,A1
5170,Right,0,78,100,937.833333,0.15625,TripletSixteenth,F#5
5171,Left,1,31,101,938.0,0.239583,Sixteenth,G1
5172,Right,0,79,101,938.0,0.989583,Quarter,G5
5173,Left,1,36,101,938.25,0.239583,Sixteenth,C2
5174,Left,1,35,101,938.5,0.239583,Sixteenth,B1
5175,Left,1,33,102,938.75,0.239583,Sixteenth,A1
5176,Left,1,31,102,939.0,0.239583,Sixteenth,G1
5177,Left,1,36,103,939.25,0.239583,Sixteenth,C2
5179,Right,0,79,103,939.5,0.239583,Sixteenth,G5
5178,Left,1,35,103,939.5,0.239583,Sixteenth,B1
5180,Right,0,81,104,939.75,0.239583,Sixteenth,A5
5181,Left,1,33,104,939.75,0.239583,Sixteenth,A1
5182,Right,0,83,104,940.0,0.989583,Quarter,B5
5183,Left,1,31,104,940.0,0.239583,Sixteenth,G1
5184,Left,1,36,104,940.25,0.239583,Sixteenth,C2
5185,Left,1,35,105,940.5,0.239583,Sixteenth,B1
5186,Left,1,33,105,940.75,0.239583,Sixteenth,A1
5187,Left,1,31,106,941.0,0.239583,Sixteenth,G1
5188,Left,1,36,106,941.25,0.239583,Sixteenth,C2
5190,Left,1,35,107,941.5,0.239583,Sixteenth,B1
5189,Right,0,79,107,941.5,0.239583,Sixteenth,G5
5191,Left,1,33,107,941.75,0.239583,Sixteenth,A1
5192,Right,0,81,107,941.75,0.239583,Sixteenth,A5
5194,Right,0,83,107,942.0,0.489583,Eighth,B5
5193,Left,1,31,107,942.0,0.239583,Sixteenth,G1
5195,Left,1,36,108,942.25,0.239583,Sixteenth,C2
5196,Right,0,83,108,942.5,0.239583,Sixteenth,B5
5197,Left,1,35,108,942.5,0.239583,Sixteenth,B1
5198,Left,1,33,109,942.75,0.239583,Sixteenth,A1
5199,Right,0,84,109,942.75,0.239583,Sixteenth,C6
5201,Left,1,31,109,943.0,0.239583,Sixteenth,G1
5200,Right,0,86,109,943.0,0.489583,Eighth,D6
5202,Left,1,36,110,943.25,0.239583,Sixteenth,C2
5203,Left,1,35,110,943.5,0.239583,Sixteenth,B1
5204,Right,0,86,110,943.5,0.239583,Sixteenth,D6
5205,Right,0,88,110,943.75,0.239583,Sixteenth,E6
5206,Left,1,33,110,943.75,0.239583,Sixteenth,A1
5208,Left,1,31,110,944.0,0.239583,Sixteenth,G1
5207,Right,0,89,110,944.0,0.989583,Quarter,F6
5209,Left,1,37,110,944.25,0.239583,Sixteenth,C#2
5210,Left,1,35,110,944.5,0.239583,Sixteenth,B1
5211,Left,1,33,110,944.75,0.239583,Sixteenth,A1
5212,Left,1,31,110,945.0,0.239583,Sixteenth,G1
5213,Left,1,37,110,945.25,0.239583,Sixteenth,C#2
5215,Left,1,35,110,945.5,0.239583,Sixteenth,B1
5214,Right,0,86,110,945.5,0.239583,Sixteenth,D6
5216,Right,0,88,110,945.75,0.239583,Sixteenth,E6
5217,Left,1,33,110,945.75,0.239583,Sixteenth,A1
5219,Right,0,89,110,946.0,0.989583,Quarter,F6
5218,Left,1,31,110,946.0,0.239583,Sixteenth,G1
5220,Left,1,37,110,946.25,0.239583,Sixteenth,C#2
5221,Left,1,35,110,946.5,0.239583,Sixteenth,B1
5222,Left,1,33,110,946.75,0.239583,Sixteenth,A1
5223,Left,1,31,110,947.0,0.239583,Sixteenth,G1
5224,Left,1,37,110,947.25,0.239583,Sixteenth,C#2
5226,Left,1,35,110,947.5,0.239583,Sixteenth,B1
5225,Right,0,86,110,947.5,0.239583,Sixteenth,D6
5228,Right,0,88,110,947.75,0.239583,Sixteenth,E6
5227,Left,1,33,110,947.75,0.239583,Sixteenth,A1
5229,Right,0,89,110,948.0,0.489583,Eighth,F6
5230,Left,1,31,110,948.0,0.239583,Sixteenth,G1
5231,Left,1,38,110,948.25,0.239583,Sixteenth,D2
5233,Right,0,86,110,948.5,0.239583,Sixteenth,D6
5232,Left,1,35,110,948.5,0.239583,Sixteenth,B1
5235,Right,0,88,110,948.75,0.239583,Sixteenth,E6
5234,Left,1,33,110,948.75,0.239583,Sixteenth,A1
5236,Left,1,31,110,949.0,0.239583,Sixteenth,G1
5237,Right,0,89,110,949.0,0.489583,Eighth,F6
5238,Left,1,38,110,949.25,0.239583,Sixteenth,D2
5239,Left,1,35,110,949.5,0.239583,Sixteenth,B1
5240,Right,0,86,110,949.5,0.239583,Sixteenth,D6
5241,Left,1,33,110,949.75,0.239583,Sixteenth,A1
5242,Right,0,88,110,949.75,0.239583,Sixteenth,E6
5243,Left,1,31,110,950.0,0.239583,Sixteenth,G1
5244,Right,0,89,110,950.0,0.489583,Eighth,F6
5245,Left,1,38,110,950.25,0.239583,Sixteenth,D2
5246,Left,1,35,110,950.5,0.239583,Sixteenth,B1
5247,Right,0,86,110,950.5,0.239583,Sixteenth,D6
5248,Right,0,88,110,950.75,0.239583,Sixteenth,E6
5249,Left,1,33,110,950.75,0.239583,Sixteenth,A1
5251,Left,1,31,110,951.0,0.239583,Sixteenth,G1
5250,Right,0,89,110,951.0,0.489583,Eighth,F6
5252,Left,1,38,110,951.25,0.239583,Sixteenth,D2
5254,Left,1,35,110,951.5,0.239583,Sixteenth,B1
5253,Right,0,86,110,951.5,0.239583,Sixteenth,D6
5256,Left,1,33,110,951.75,0.239583,Sixteenth,A1
5255,Right,0,88,110,951.75,0.239583,Sixteenth,E6
5257,Left,1,31,120,952.0,0.239583,Sixteenth,G1
5258,Right,0,89,122,952.0,0.239583,Sixteenth,F6
5259,Left,1,33,110,952.25,0.239583,Sixteenth,A1
5260,Right,0,88,110,952.25,0.239583,Sixteenth,E6
5261,Right,0,86,110,952.5,0.239583,Sixteenth,D6
5262,Left,1,35,110,952.5,0.239583,Sixteenth,B1
5263,Right,0,84,110,952.75,0.239583,Sixteenth,C6
5264,Left,1,36,110,952.75,0.239583,Sixteenth,C2
5266,Left,1,38,110,953.0,0.239583,Sixteenth,D2
5265,Right,0,83,110,953.0,0.239583,Sixteenth,B5
5267,Right,0,84,110,953.25,0.239583,Sixteenth,C6
5268,Left,1,36,110,953.25,0.239583,Sixteenth,C2
5270,Left,1,35,110,953.5,0.239583,Sixteenth,B1
5269,Right,0,86,110,953.5,0.239583,Sixteenth,D6
5271,Left,1,33,110,953.75,0.239583,Sixteenth,A1
5272,Right,0,88,110,953.75,0.239583,Sixteenth,E6
5274,Left,1,31,121,954.0,0.239583,Sixteenth,G1
5273,Right,0,89,124,954.0,0.239583,Sixteenth,F6
5275,Left,1,33,110,954.25,0.239583,Sixteenth,A1
5276,Right,0,88,110,954.25,0.239583,Sixteenth,E6
5278,Right,0,86,110,954.5,0.239583,Sixteenth,D6
5277,Left,1,35,110,954.5,0.239583,Sixteenth,B1
5279,Left,1,36,110,954.75,0.239583,Sixteenth,C2
5280,Right,0,84,110,954.75,0.239583,Sixteenth,C6
5282,Right,0,83,110,955.0,0.239583,Sixteenth,B5
5281,Left,1,38,110,955.0,0.239583,Sixteenth,D2
5283,Right,0,84,110,955.25,0.239583,Sixteenth,C6
5284,Left,1,36,110,955.25,0.239583,Sixteenth,C2
5286,Right,0,86,110,955.5,0.239583,Sixteenth,D6
5285,Left,1,35,110,955.5,0.239583,Sixteenth,B1
5287,Right,0,88,110,955.75,0.239583,Sixteenth,E6
5288,Left,1,33,110,955.75,0.239583,Sixteenth,A1
5290,Right,0,89,120,956.0,0.489583,Eighth,F6
5289,Left,1,31,120,956.0,0.489583,Eighth,G1
5292,Right,0,88,120,956.5,0.239583,Sixteenth,E6
5291,Left,1,33,120,956.5,0.239583,Sixteenth,A1
5293,Left,1,35,120,956.75,0.239583,Sixteenth,B1
5294,Right,0,86,120,956.75,0.239583,Sixteenth,D6
5295,Left,1,36,120,957.0,0.239583,Sixteenth,C2
5296,Right,0,84,120,957.0,0.239583,Sixteenth,C6
5298,Left,1,38,120,957.25,0.239583,Sixteenth,D2
5297,Right,0,83,120,957.25,0.239583,Sixteenth,B5
5300,Right,0,81,120,957.5,0.239583,Sixteenth,A5
5299,Left,1,40,120,957.5,0.239583,Sixteenth,E2
5301,Left,1,41,120,957.75,0.239583,Sixteenth,F2
5302,Right,0,79,120,957.75,0.239583,Sixteenth,G5
5304,Left,1,43,120,958.0,0.239583,Sixteenth,G2
5303,Right,0,77,120,958.0,0.239583,Sixteenth,F5
5306,Right,0,76,120,958.25,0.239583,Sixteenth,E5
5305,Left,1,45,120,958.25,0.239583,Sixteenth,A2
5308,Right,0,74,120,958.5,0.239583,Sixteenth,D5
5307,Left,1,47,120,958.5,0.239583,Sixteenth,B2
5309,Right,0,72,120,958.75,0.239583,Sixteenth,C5
5310,Left,1,48,120,958.75,0.239583,Sixteenth,C3
5312,Left,1,50,120,959.0,0.239583,Sixteenth,D3
5311,Right,0,71,120,959.0,0.239583,Sixteenth,B4
5314,Left,1,52,120,959.25,0.239583,Sixteenth,E3
5313,Right,0,69,120,959.25,0.239583,Sixteenth,A4
5315,Right,0,67,120,959.5,0.239583,Sixteenth,G4
5316,Left,1,53,120,959.5,0.239583,Sixteenth,F3
5317,Right,0,65,120,959.75,0.239583,Sixteenth,F4
5318,Left,1,55,120,959.75,0.239583,Sixteenth,G3
5319,Left,1,48,120,960.0,0.489583,Eighth,C3
5320,Right,0,64,120,960.0,0.489583,Eighth,E4
5322,Right,0,48,80,960.5,0.489583,Eighth,E3_C3
5321,Left,1,43,80,960.5,0.489583,Eighth,G2_C2
5325,Right,0,48,80,961.0,0.489583,Eighth,E3_C3
5327,Left,1,36,80,961.0,0.489583,Eighth,G2_C2
5330,Right,0,52,80,961.5,0.489583,Eighth,E3_C3
5329,Left,1,36,80,961.5,0.489583,Eighth,G2_C2
5334,Right,0,52,80,962.0,0.489583,Eighth,E3_C3
5333,Left,1,43,80,962.0,0.489583,Eighth,G2_C2
5337,Left,1,43,80,962.5,0.489583,Eighth,G2_C2
5339,Right,0,48,80,962.5,0.489583,Eighth,E3_C3
5342,Left,1,43,80,963.0,0.489583,Eighth,G2_C2
5341,Right,0,48,80,963.0,0.489583,Eighth,E3_C3
5346,Left,1,36,80,963.5,0.489583,Eighth,G2_C2
5345,Right,0,48,80,963.5,0.489583,Eighth,E3_C3
5351,Left,1,36,80,964.0,0.489583,Eighth,G2_C2
5349,Right,0,52,80,964.0,0.489583,Eighth,E3_C3
5355,Left,1,43,80,964.5,0.489583,Eighth,G2_C2
5353,Right,0,52,80,964.5,0.489583,Eighth,E3_C3
5357,Left,1,36,80,965.0,0.489583,Eighth,G2_C2
5358,Right,0,52,80,965.0,0.489583,Eighth,E3_C3
5361,Right,0,48,80,965.5,0.489583,Eighth,E3_C3
5362,Left,1,43,80,965.5,0.489583,Eighth,G2_C2
5366,Right,0,48,80,966.0,0.489583,Eighth,E3_C3
5365,Left,1,43,80,966.0,0.489583,Eighth,G2_C2
5370,Right,0,48,80,966.5,0.489583,Eighth,E3_C3
5369,Left,1,36,80,966.5,0.489583,Eighth,G2_C2
5375,Right,0,54,80,967.0,0.489583,Eighth,F#3_D3
5373,Left,1,36,80,967.0,0.489583,Eighth,C2_A2
5379,Left,1,45,80,967.5,0.489583,Eighth,C2_A2
5377,Right,0,50,80,967.5,0.489583,Eighth,F#3_D3
5381,Right,0,50,80,968.0,1.489583,DottedQuarter,G3_D3
5382,Left,1,43,80,968.0,0.489583,Eighth,G2_B1
5385,Left,1,43,80,968.5,0.489583,Eighth,G2_B1
5387,Left,1,35,80,969.0,0.489583,Eighth,G2_B1
5389,Left,1,35,80,969.5,0.489583,Eighth,G2_B1
5391,Right,0,59,80,969.5,0.239583,Sixteenth,B3
5392,Right,0,57,80,969.75,0.239583,Sixteenth,A3
5394,Left,1,43,80,970.0,0.489583,Eighth,G2_B1
5393,Right,0,55,80,970.0,0.489583,Eighth,G3
5396,Left,1,35,80,970.5,0.489583,Eighth,G2_B1
5398,Left,1,35,80,971.0,0.489583,Eighth,G2_B1
5400,Left,1,43,80,971.5,0.489583,Eighth,G2_B1
5402,Right,0,85,80,972.0,0.239583,Sixteenth,C#6
5403,Left,1,43,80,972.0,0.489583,Eighth,G2_B1
5405,Right,0,86,80,972.25,0.989583,Quarter,D6
5406,Left,1,43,80,972.5,0.489583,Eighth,G2_B1
5408,Left,1,43,80,973.0,0.489583,Eighth,G2_B1
5410,Right,0,84,80,973.25,0.239583,Sixteenth,C6
5411,Left,1,43,80,973.5,0.489583,Eighth,G2_B1
5413,Right,0,83,80,973.5,0.239583,Sixteenth,B5
5414,Right,0,81,80,973.75,0.239583,Sixteenth,A5
5415,Left,1,35,80,974.0,0.489583,Eighth,G2_B1
5417,Right,0,79,80,974.0,0.989583,Quarter,G5
5418,Left,1,35,80,974.5,0.489583,Eighth,G2_B1
5420,Left,1,43,80,975.0,0.489583,Eighth,G2_B1
5422,Left,1,35,80,975.5,0.489583,Eighth,G2_B1
5424,Right,0,46,80,976.0,0.489583,Eighth,D3_A#2
5425,Left,1,34,80,976.0,0.489583,Eighth,F2_A#1
5428,Left,1,34,80,976.5,0.489583,Eighth,F2_A#1
5430,Right,0,46,80,976.5,0.489583,Eighth,D3_A#2
5432,Left,1,34,80,977.0,0.489583,Eighth,F2_A#1
5433,Right,0,46,80,977.0,0.489583,Eighth,D3_A#2
5438,Right,0,50,80,977.5,0.489583,Eighth,D3_A#2
5436,Left,1,41,80,977.5,0.489583,Eighth,F2_A#1
5440,Right,0,50,80,978.0,0.489583,Eighth,D3_A#2
5441,Left,1,41,80,978.0,0.489583,Eighth,F2_A#1
5444,Left,1,34,80,978.5,0.489583,Eighth,F2_A#1
5446,Right,0,46,80,978.5,0.489583,Eighth,D3_A#2
5448,Right,0,46,80,979.0,0.489583,Eighth,D3_A#2
5449,Left,1,41,80,979.0,0.489583,Eighth,F2_A#1
5452,Right,0,46,80,979.5,0.489583,Eighth,D3_A#2
5453,Left,1,34,80,979.5,0.489583,Eighth,F2_A#1
5456,Left,1,34,80,980.0,0.489583,Eighth,F2_A#1
5458,Right,0,50,80,980.0,0.489583,Eighth,D3_A#2
5460,Left,1,34,80,980.5,0.489583,Eighth,F2_A#1
5462,Right,0,46,80,980.5,0.489583,Eighth,D3_A#2
5466,Left,1,41,80,981.0,0.489583,Eighth,F2_A#1
5464,Right,0,50,80,981.0,0.489583,Eighth,D3_A#2
5468,Left,1,41,80,981.5,0.489583,Eighth,F2_A#1
5469,Right,0,50,80,981.5,0.489583,Eighth,D3_A#2
5472,Right,0,50,80,982.0,0.489583,Eighth,D3_A#2
5474,Left,1,34,80,982.0,0.489583,Eighth,F2_A#1
5476,Right,0,50,80,982.5,0.489583,Eighth,D3_A#2
5477,Left,1,34,80,982.5,0.489583,Eighth,F2_A#1
5481,Left,1,34,80,983.0,0.489583,Eighth,G2_A#1
5480,Right,0,48,80,983.0,0.489583,Eighth,E3_C3
5485,Right,0,48,80,983.5,0.489583,Eighth,E3_C3
5484,Left,1,43,80,983.5,0.489583,Eighth,G2_A#1
5490,Left,1,41,80,984.0,0.489583,Eighth,F2_A1
5488,Right,0,48,80,984.0,1.489583,DottedQuarter,F3_C3
5492,Left,1,33,80,984.5,0.489583,Eighth,F2_A1
5494,Left,1,41,80,985.0,0.489583,Eighth,F2_A1
5496,Right,0,57,80,985.5,0.239583,Sixteenth,A3
5497,Left,1,33,80,985.5,0.489583,Eighth,F2_A1
5499,Right,0,55,80,985.75,0.239583,Sixteenth,G3
5500,Left,1,41,80,986.0,0.489583,Eighth,F2_A1
5502,Right,0,53,80,986.0,0.489583,Eighth,F3
5503,Left,1,41,80,986.5,0.489583,Eighth,F2_A1
5505,Left,1,41,80,987.0,0.489583,Eighth,F2_A1
5507,Left,1,33,80,987.5,0.489583,Eighth,F2_A1
5510,Left,1,41,80,988.0,0.489583,Eighth,G1_F2
5509,Right,0,83,80,988.0,0.239583,Sixteenth,B5
5512,Right,0,84,80,988.25,0.989583,Quarter,C6
5513,Left,1,41,80,988.5,0.489583,Eighth,G1_F2
5515,Left,1,31,80,989.0,0.489583,Eighth,G1_F2
5517,Right,0,82,80,989.25,0.239583,Sixteenth,A#5
5519,Right,0,80,80,989.5,0.239583,Sixteenth,G#5
5518,Left,1,41,80,989.5,0.489583,Eighth,G1_F2
5521,Right,0,79,80,989.75,0.239583,Sixteenth,G5
5523,Left,1,41,80,990.0,0.489583,Eighth,G1_F2
5522,Right,0,77,80,990.0,0.989583,Quarter,F5
5525,Left,1,41,80,990.5,0.489583,Eighth,G1_F2
5527,Left,1,41,80,991.0,0.489583,Eighth,G#1_F2
5529,Left,1,41,80,991.5,0.489583,Eighth,G#1_F2
5532,Left,1,41,80,992.0,0.489583,Eighth,G1_F2
5531,Right,0,88,80,992.0,0.239583,Sixteenth,E6
5534,Right,0,89,80,992.25,2.739583,DottedHalf,F6
5535,Left,1,41,81,992.5,0.489583,Eighth,G1_F2
5537,Left,1,41,83,993.0,0.489583,Eighth,G1_F2
5539,Left,1,41,85,993.5,0.489583,Eighth,G1_F2
5541,Left,1,41,87,994.0,0.489583,Eighth,G1_F2
5543,Left,1,41,89,994.5,0.489583,Eighth,G1_F2
5547,Right,0,89,91,995.0,0.239583,Sixteenth,F6
5545,Left,1,41,91,995.0,0.489583,Eighth,G#1_F2
5548,Right,0,87,92,995.25,0.239583,Sixteenth,D#6
5549,Left,1,41,93,995.5,0.489583,Eighth,G#1_F2
5550,Right,0,86,93,995.5,0.239583,Sixteenth,D6
5552,Right,0,84,94,995.75,0.239583,Sixteenth,C6
5553,Right,0,83,95,996.0,0.239583,Sixteenth,B5
5554,Left,1,31,95,996.0,0.489583,Eighth,G1_F2
5556,Right,0,84,96,996.25,0.239583,Sixteenth,C6
5557,Right,0,86,97,996.5,0.239583,Sixteenth,D6
5558,Left,1,31,97,996.5,0.489583,Eighth,G1_F2
5560,Right,0,87,98,996.75,0.239583,Sixteenth,D#6
5563,Right,0,89,99,997.0,0.239583,Sixteenth,F6
5561,Left,1,41,99,997.0,0.489583,Eighth,G1_F2
5564,Right,0,87,100,997.25,0.239583,Sixteenth,D#6
5565,Left,1,41,101,997.5,0.489583,Eighth,G1_F2
5567,Right,0,86,101,997.5,0.239583,Sixteenth,D6
5568,Right,0,84,102,997.75,0.239583,Sixteenth,C6
5571,Right,0,83,103,998.0,0.239583,Sixteenth,B5
5569,Left,1,41,103,998.0,0.489583,Eighth,G1_F2
5572,Right,0,84,104,998.25,0.239583,Sixteenth,C6
5574,Left,1,41,105,998.5,0.489583,Eighth,G1_F2
5573,Right,0,86,105,998.5,0.239583,Sixteenth,D6
5576,Right,0,87,106,998.75,0.239583,Sixteenth,D#6
5578,Left,1,41,107,999.0,0.489583,Eighth,G#1_F2
5577,Right,0,89,107,999.0,0.239583,Sixteenth,F6
5580,Right,0,87,108,999.25,0.239583,Sixteenth,D#6
5581,Left,1,32,109,999.5,0.489583,Eighth,G#1_F2
5582,Right,0,86,109,999.5,0.239583,Sixteenth,D6
5584,Right,0,84,110,999.75,0.239583,Sixteenth,C6
5586,Left,1,41,110,1000.0,0.989583,Quarter,G1_F2
5585,Right,0,83,110,1000.0,0.239583,Sixteenth,B5
5588,Right,0,84,110,1000.25,0.239583,Sixteenth,C6
5589,Right,0,86,110,1000.5,0.239583,Sixteenth,D6
5590,Right,0,87,110,1000.75,0.239583,Sixteenth,D#6
5591,Right,0,89,110,1001.0,0.239583,Sixteenth,F6
5592,Left,1,43,110,1001.0,2.489583,Half,G3_G2
5594,Right,0,87,110,1001.25,0.239583,Sixteenth,D#6
5595,Right,0,86,110,1001.5,0.239583,Sixteenth,D6
5596,Right,0,84,110,1001.75,0.239583,Sixteenth,C6
5597,Right,0,83,110,1002.0,0.239583,Sixteenth,B5
5598,Right,0,80,110,1002.25,0.239583,Sixteenth,G#5
5599,Right,0,79,110,1002.5,0.239583,Sixteenth,G5
5600,Right,0,77,110,1002.75,0.239583,Sixteenth,F5
5601,Right,0,75,110,1003.0,0.239583,Sixteenth,D#5
5602,Right,0,74,110,1003.25,0.239583,Sixteenth,D5
5603,Right,0,72,110,1003.5,0.239583,Sixteenth,C5
5604,Left,1,57,110,1003.5,0.239583,Sixteenth,A3
5605,Right,0,71,110,1003.75,0.239583,Sixteenth,B4
5606,Left,1,59,110,1003.75,0.239583,Sixteenth,B3
5608,Left,1,60,110,1004.0,0.489583,Eighth,C4
5607,Right,0,72,110,1004.0,0.489583,Eighth,C5
5609,Right,0,67,100,1005.0,0.489583,Eighth,G4
5610,Left,1,43,100,1005.0,0.489583,Eighth,G3_G2
5612,Left,1,51,94,1006.0,0.489583,Eighth,D#3_D#2
5614,Right,0,63,94,1006.0,0.489583,Eighth,D#4
5615,Left,1,48,87,1007.0,0.489583,Eighth,C3_C2
5617,Right,0,60,87,1007.0,0.489583,Eighth,C4
5619,Left,1,32,81,1008.0,3.989583,Whole,G#2_G#1
5618,Right,0,56,81,1008.0,3.989583,Whole,G#3
5621,Left,1,61,80,1012.0,0.489583,Eighth,C#4
5622,Right,0,73,80,1012.0,0.489583,Eighth,C#5
5623,Left,1,56,80,1013.0,0.489583,Eighth,G#3
5624,Right,0,68,80,1013.0,0.489583,Eighth,G#4
5625,Left,1,53,80,1014.0,0.489583,Eighth,F3
5626,Right,0,65,80,1014.0,0.489583,Eighth,F4
5627,Left,1,49,80,1015.0,0.489583,Eighth,C#3
5628,Right,0,61,80,1015.0,0.489583,Eighth,C#4
5631,Right,0,58,80,1016.0,3.989583,Whole,A#3
5629,Left,1,34,80,1016.0,3.989583,Whole,A#2_A#1
5632,Left,1,63,70,1020.0,0.489583,Eighth,D#4
5633,Right,0,67,70,1020.25,0.239583,Sixteenth,G4
5634,Right,0,70,70,1020.5,0.239583,Sixteenth,A#4
5635,Right,0,75,70,1020.75,0.239583,Sixteenth,D#5
5636,Left,1,58,70,1021.0,0.489583,Eighth,A#3
5637,Right,0,67,70,1021.25,0.239583,Sixteenth,G4
5638,Right,0,70,70,1021.5,0.239583,Sixteenth,A#4
5639,Right,0,75,70,1021.75,0.239583,Sixteenth,D#5
5640,Left,1,55,70,1022.0,0.489583,Eighth,G3
5641,Right,0,67,70,1022.25,0.239583,Sixteenth,G4
5642,Right,0,70,70,1022.5,0.239583,Sixteenth,A#4
5643,Right,0,75,70,1022.75,0.239583,Sixteenth,D#5
5644,Left,1,51,70,1023.0,0.489583,Eighth,D#3
5645,Right,0,67,70,1023.25,0.239583,Sixteenth,G4
5646,Right,0,70,70,1023.5,0.239583,Sixteenth,A#4
5647,Right,0,75,70,1023.75,0.239583,Sixteenth,D#5
5648,Left,1,53,70,1024.0,0.489583,Eighth,F3
5649,Right,0,65,70,1024.25,0.239583,Sixteenth,F4
5650,Right,0,68,70,1024.5,0.239583,Sixteenth,G#4
5651,Right,0,75,70,1024.75,0.239583,Sixteenth,D#5
5652,Left,1,56,70,1025.0,0.489583,Eighth,G#3
5653,Right,0,65,70,1025.25,0.239583,Sixteenth,F4
5654,Right,0,71,70,1025.5,0.239583,Sixteenth,B4
5655,Right,0,74,70,1025.75,0.239583,Sixteenth,D5
5656,Left,1,57,70,1026.0,0.489583,Eighth,A3
5657,Right,0,63,70,1026.25,0.239583,Sixteenth,D#4
5658,Right,0,66,70,1026.5,0.239583,Sixteenth,F#4
5659,Right,0,74,70,1026.75,0.239583,Sixteenth,D5
5660,Left,1,54,70,1027.0,0.489583,Eighth,F#3
5661,Right,0,63,70,1027.25,0.239583,Sixteenth,D#4
5662,Right,0,69,70,1027.5,0.239583,Sixteenth,A4
5663,Right,0,72,70,1027.75,0.239583,Sixteenth,C5
5664,Left,1,55,70,1028.0,0.489583,Eighth,G3
5665,Right,0,62,70,1028.25,0.239583,Sixteenth,D4
5666,Right,0,67,70,1028.5,0.239583,Sixteenth,G4
5667,Right,0,72,70,1028.75,0.239583,Sixteenth,C5
5668,Left,1,54,70,1029.0,0.489583,Eighth,F#3
5669,Right,0,62,70,1029.25,0.239583,Sixteenth,D4
5670,Right,0,67,70,1029.5,0.239583,Sixteenth,G4
5671,Right,0,72,70,1029.75,0.239583,Sixteenth,C5
5672,Left,1,55,70,1030.0,0.489583,Eighth,G3
5673,Right,0,62,70,1030.25,0.239583,Sixteenth,D4
5674,Right,0,67,70,1030.5,0.239583,Sixteenth,G4
5675,Right,0,71,70,1030.75,0.239583,Sixteenth,B4
5676,Left,1,43,70,1031.0,0.489583,Eighth,G2
5677,Right,0,62,70,1031.25,0.239583,Sixteenth,D4
5678,Right,0,65,70,1031.5,0.239583,Sixteenth,F4
5679,Right,0,71,70,1031.75,0.239583,Sixteenth,B4
5680,Right,0,64,100,1032.0,0.489583,Eighth,E4_C5
5682,Left,1,48,100,1032.0,0.489583,Eighth,C3_C2
5684,Right,0,64,80,1032.5,0.239583,Sixteenth,E4
5685,Left,1,48,80,1032.5,0.239583,Sixteenth,C3
5686,Right,0,60,80,1032.75,0.239583,Sixteenth,C4
5687,Left,1,55,80,1032.75,0.239583,Sixteenth,G3
5689,Left,1,48,80,1033.0,0.239583,Sixteenth,C3
5688,Right,0,64,80,1033.0,0.239583,Sixteenth,E4
5691,Left,1,55,80,1033.25,0.239583,Sixteenth,G3
5690,Right,0,60,80,1033.25,0.239583,Sixteenth,C4
5692,Right,0,64,80,1033.5,0.239583,Sixteenth,E4
5693,Left,1,48,80,1033.5,0.239583,Sixteenth,C3
5694,Right,0,60,80,1033.75,0.239583,Sixteenth,C4
5695,Left,1,55,80,1033.75,0.239583,Sixteenth,G3
5697,Left,1,48,80,1034.0,0.239583,Sixteenth,C3
5696,Right,0,64,80,1034.0,0.239583,Sixteenth,E4
5699,Left,1,55,80,1034.25,0.239583,Sixteenth,G3
5698,Right,0,60,80,1034.25,0.239583,Sixteenth,C4
5701,Left,1,48,80,1034.5,0.239583,Sixteenth,C3
5700,Right,0,64,80,1034.5,0.239583,Sixteenth,E4
5702,Right,0,60,80,1034.75,0.239583,Sixteenth,C4
5703,Left,1,55,80,1034.75,0.239583,Sixteenth,G3
5704,Right,0,64,80,1035.0,0.239583,Sixteenth,E4
5705,Left,1,48,80,1035.0,0.239583,Sixteenth,C3
5706,Left,1,55,80,1035.25,0.239583,Sixteenth,G3
5707,Right,0,60,80,1035.25,0.239583,Sixteenth,C4
5708,Right,0,64,80,1035.5,0.239583,Sixteenth,E4
5709,Left,1,48,80,1035.5,0.239583,Sixteenth,C3
5710,Left,1,55,80,1035.75,0.239583,Sixteenth,G3
5711,Right,0,60,80,1035.75,0.239583,Sixteenth,C4
5713,Right,0,64,80,1036.0,0.239583,Sixteenth,E4
5712,Left,1,48,80,1036.0,0.239583,Sixteenth,C3
5714,Left,1,55,80,1036.25,0.239583,Sixteenth,G3
5715,Right,0,60,80,1036.25,0.239583,Sixteenth,C4
5717,Right,0,64,80,1036.5,0.239583,Sixteenth,E4
5716,Left,1,48,80,1036.5,0.239583,Sixteenth,C3
5719,Left,1,55,80,1036.75,0.239583,Sixteenth,G3
5718,Right,0,60,80,1036.75,0.239583,Sixteenth,C4
5721,Right,0,64,80,1037.0,0.239583,Sixteenth,E4
5720,Left,1,48,80,1037.0,0.239583,Sixteenth,C3
5723,Right,0,60,80,1037.25,0.239583,Sixteenth,C4
5722,Left,1,55,80,1037.25,0.239583,Sixteenth,G3
5725,Right,0,64,80,1037.5,0.239583,Sixteenth,E4
5724,Left,1,48,80,1037.5,0.239583,Sixteenth,C3
5727,Right,0,60,80,1037.75,0.239583,Sixteenth,C4
5726,Left,1,55,80,1037.75,0.239583,Sixteenth,G3
5728,Left,1,48,80,1038.0,0.239583,Sixteenth,C3
5729,Right,0,64,80,1038.0,0.239583,Sixteenth,E4
5731,Left,1,55,80,1038.25,0.239583,Sixteenth,G3
5730,Right,0,60,80,1038.25,0.239583,Sixteenth,C4
5732,Right,0,64,80,1038.5,0.239583,Sixteenth,E4
5733,Left,1,48,80,1038.5,0.239583,Sixteenth,C3
5734,Right,0,60,80,1038.75,0.239583,Sixteenth,C4
5735,Left,1,55,80,1038.75,0.239583,Sixteenth,G3
5737,Left,1,48,80,1039.0,0.239583,Sixteenth,C3
5736,Right,0,66,80,1039.0,0.239583,Sixteenth,F#4
5739,Right,0,62,80,1039.25,0.239583,Sixteenth,D4
5738,Left,1,57,80,1039.25,0.239583,Sixteenth,A3
5740,Right,0,66,80,1039.5,0.239583,Sixteenth,F#4
5741,Left,1,48,80,1039.5,0.239583,Sixteenth,C3
5743,Right,0,62,80,1039.75,0.239583,Sixteenth,D4
5742,Left,1,57,80,1039.75,0.239583,Sixteenth,A3
5744,Left,1,50,80,1040.0,0.239583,Sixteenth,D3_B2
5746,Right,0,67,80,1040.0,1.489583,DottedQuarter,G4
5747,Left,1,55,80,1040.25,0.239583,Sixteenth,G3
5748,Left,1,50,80,1040.5,0.239583,Sixteenth,D3_B2
5750,Left,1,55,80,1040.75,0.239583,Sixteenth,G3
5751,Left,1,50,80,1041.0,0.239583,Sixteenth,D3_B2
5753,Left,1,55,80,1041.25,0.239583,Sixteenth,G3
5754,Left,1,50,80,1041.5,0.239583,Sixteenth,D3_B2
5756,Right,0,71,80,1041.5,0.239583,Sixteenth,B4
5758,Right,0,69,80,1041.75,0.239583,Sixteenth,A4
5757,Left,1,55,80,1041.75,0.239583,Sixteenth,G3
5760,Left,1,47,80,1042.0,0.239583,Sixteenth,D3_B2
5759,Right,0,67,80,1042.0,0.489583,Eighth,G4
5762,Left,1,55,80,1042.25,0.239583,Sixteenth,G3
5763,Left,1,47,80,1042.5,0.239583,Sixteenth,D3_B2
5765,Left,1,55,80,1042.75,0.239583,Sixteenth,G3
5766,Left,1,50,80,1043.0,0.239583,Sixteenth,D3_B2
5768,Left,1,55,80,1043.25,0.239583,Sixteenth,G3
5769,Left,1,50,80,1043.5,0.239583,Sixteenth,D3_B2
5771,Left,1,55,80,1043.75,0.239583,Sixteenth,G3
5773,Right,0,85,80,1044.0,0.239583,Sixteenth,C#6
5772,Left,1,50,80,1044.0,0.239583,Sixteenth,D3_B2
5775,Left,1,55,80,1044.25,0.239583,Sixteenth,G3
5776,Right,0,86,80,1044.25,0.989583,Quarter,D6
5777,Left,1,50,80,1044.5,0.239583,Sixteenth,D3_B2
5779,Left,1,55,80,1044.75,0.239583,Sixteenth,G3
5780,Left,1,47,80,1045.0,0.239583,Sixteenth,D3_B2
5783,Left,1,55,80,1045.25,0.239583,Sixteenth,G3
5782,Right,0,84,80,1045.25,0.239583,Sixteenth,C6
5785,Left,1,50,80,1045.5,0.239583,Sixteenth,D3_B2
5784,Right,0,83,80,1045.5,0.239583,Sixteenth,B5
5788,Left,1,55,80,1045.75,0.239583,Sixteenth,G3
5787,Right,0,81,80,1045.75,0.239583,Sixteenth,A5
5789,Left,1,50,80,1046.0,0.239583,Sixteenth,D3_B2
5791,Right,0,79,80,1046.0,0.989583,Quarter,G5
5792,Left,1,55,80,1046.25,0.239583,Sixteenth,G3
5793,Left,1,47,80,1046.5,0.239583,Sixteenth,D3_B2
5795,Left,1,55,80,1046.75,0.239583,Sixteenth,G3
5796,Left,1,47,80,1047.0,0.239583,Sixteenth,D3_B2
5798,Left,1,55,80,1047.25,0.239583,Sixteenth,G3
5799,Left,1,47,80,1047.5,0.239583,Sixteenth,D3_B2
5801,Left,1,55,80,1047.75,0.239583,Sixteenth,G3
5804,Right,0,65,80,1048.0,0.239583,Sixteenth,F4
5802,Left,1,38,80,1048.0,0.489583,Eighth,D3_D2
5805,Right,0,62,80,1048.25,0.239583,Sixteenth,D4
5807,Right,0,65,80,1048.5,0.239583,Sixteenth,F4
5806,Left,1,50,80,1048.5,0.239583,Sixteenth,D3
5809,Right,0,62,80,1048.75,0.239583,Sixteenth,D4
5808,Left,1,57,80,1048.75,0.239583,Sixteenth,A3
5810,Right,0,65,80,1049.0,0.239583,Sixteenth,F4
5811,Left,1,50,80,1049.0,0.239583,Sixteenth,D3
5812,Right,0,62,80,1049.25,0.239583,Sixteenth,D4
5813,Left,1,57,80,1049.25,0.239583,Sixteenth,A3
5815,Left,1,50,80,1049.5,0.239583,Sixteenth,D3
5814,Right,0,65,80,1049.5,0.239583,Sixteenth,F4
5816,Right,0,62,80,1049.75,0.239583,Sixteenth,D4
5817,Left,1,57,80,1049.75,0.239583,Sixteenth,A3
5818,Right,0,65,80,1050.0,0.239583,Sixteenth,F4
5819,Left,1,50,80,1050.0,0.239583,Sixteenth,D3
5821,Left,1,57,80,1050.25,0.239583,Sixteenth,A3
5820,Right,0,62,80,1050.25,0.239583,Sixteenth,D4
5823,Right,0,65,80,1050.5,0.239583,Sixteenth,F4
5822,Left,1,50,80,1050.5,0.239583,Sixteenth,D3
5824,Left,1,57,80,1050.75,0.239583,Sixteenth,A3
5825,Right,0,62,80,1050.75,0.239583,Sixteenth,D4
5827,Right,0,65,80,1051.0,0.239583,Sixteenth,F4
5826,Left,1,50,80,1051.0,0.239583,Sixteenth,D3
5829,Right,0,62,80,1051.25,0.239583,Sixteenth,D4
5828,Left,1,57,80,1051.25,0.239583,Sixteenth,A3
5831,Right,0,65,80,1051.5,0.239583,Sixteenth,F4
5830,Left,1,50,80,1051.5,0.239583,Sixteenth,D3
5833,Right,0,62,80,1051.75,0.239583,Sixteenth,D4
5832,Left,1,57,80,1051.75,0.239583,Sixteenth,A3
5835,Right,0,65,80,1052.0,0.239583,Sixteenth,F4
5834,Left,1,50,80,1052.0,0.239583,Sixteenth,D3
5837,Right,0,62,80,1052.25,0.239583,Sixteenth,D4
5836,Left,1,57,80,1052.25,0.239583,Sixteenth,A3
5839,Right,0,65,80,1052.5,0.239583,Sixteenth,F4
5838,Left,1,50,80,1052.5,0.239583,Sixteenth,D3
5841,Left,1,57,80,1052.75,0.239583,Sixteenth,A3
5840,Right,0,62,80,1052.75,0.239583,Sixteenth,D4
5843,Left,1,50,80,1053.0,0.239583,Sixteenth,D3
5842,Right,0,65,80,1053.0,0.239583,Sixteenth,F4
5844,Left,1,57,80,1053.25,0.239583,Sixteenth,A3
5845,Right,0,62,80,1053.25,0.239583,Sixteenth,D4
5846,Right,0,65,80,1053.5,0.239583,Sixteenth,F4
5847,Left,1,50,80,1053.5,0.239583,Sixteenth,D3
5848,Right,0,62,80,1053.75,0.239583,Sixteenth,D4
5849,Left,1,57,80,1053.75,0.239583,Sixteenth,A3
5850,Right,0,65,80,1054.0,0.239583,Sixteenth,F4
5851,Left,1,50,80,1054.0,0.239583,Sixteenth,D3
5853,Left,1,57,80,1054.25,0.239583,Sixteenth,A3
5852,Right,0,62,80,1054.25,0.239583,Sixteenth,D4
5854,Right,0,65,80,1054.5,0.239583,Sixteenth,F4
5855,Left,1,50,80,1054.5,0.239583,Sixteenth,D3
5857,Right,0,62,80,1054.75,0.239583,Sixteenth,D4
5856,Left,1,57,80,1054.75,0.239583,Sixteenth,A3
5859,Left,1,50,80,1055.0,0.239583,Sixteenth,D3
5858,Right,0,68,80,1055.0,0.239583,Sixteenth,G#4
5861,Left,1,59,80,1055.25,0.239583,Sixteenth,B3
5860,Right,0,64,80,1055.25,0.239583,Sixteenth,E4
5863,Left,1,50,80,1055.5,0.239583,Sixteenth,D3
5862,Right,0,68,80,1055.5,0.239583,Sixteenth,G#4
5865,Left,1,59,80,1055.75,0.239583,Sixteenth,B3
5864,Right,0,64,80,1055.75,0.239583,Sixteenth,E4
5868,Right,0,69,80,1056.0,1.489583,DottedQuarter,A4
5866,Left,1,52,80,1056.0,0.239583,Sixteenth,E3_C3
5869,Left,1,57,80,1056.25,0.239583,Sixteenth,A3
5870,Left,1,52,80,1056.5,0.239583,Sixteenth,E3_C3
5872,Left,1,57,80,1056.75,0.239583,Sixteenth,A3
5873,Left,1,52,80,1057.0,0.239583,Sixteenth,E3_C3
5875,Left,1,57,80,1057.25,0.239583,Sixteenth,A3
5878,Right,0,72,80,1057.5,0.239583,Sixteenth,C5
5876,Left,1,48,80,1057.5,0.239583,Sixteenth,E3_C3
5880,Right,0,71,80,1057.75,0.239583,Sixteenth,B4
5879,Left,1,57,80,1057.75,0.239583,Sixteenth,A3
5883,Right,0,69,80,1058.0,0.489583,Eighth,A4
5881,Left,1,48,80,1058.0,0.239583,Sixteenth,E3_C3
5884,Left,1,57,80,1058.25,0.239583,Sixteenth,A3
5885,Left,1,48,80,1058.5,0.239583,Sixteenth,E3_C3
5887,Left,1,57,80,1058.75,0.239583,Sixteenth,A3
5888,Left,1,48,80,1059.0,0.239583,Sixteenth,E3_C3
5890,Left,1,57,80,1059.25,0.239583,Sixteenth,A3
5891,Left,1,48,80,1059.5,0.239583,Sixteenth,E3_C3
5893,Left,1,57,80,1059.75,0.239583,Sixteenth,A3
5896,Right,0,87,80,1060.0,0.239583,Sixteenth,D#6
5894,Left,1,48,80,1060.0,0.239583,Sixteenth,E3_C3
5897,Left,1,57,80,1060.25,0.239583,Sixteenth,A3
5898,Right,0,88,80,1060.25,0.989583,Quarter,E6
5899,Left,1,52,80,1060.5,0.239583,Sixteenth,E3_C3
5901,Left,1,57,80,1060.75,0.239583,Sixteenth,A3
5902,Left,1,52,80,1061.0,0.239583,Sixteenth,E3_C3
5904,Left,1,57,80,1061.25,0.239583,Sixteenth,A3
5905,Right,0,86,80,1061.25,0.239583,Sixteenth,D6
5907,Left,1,48,80,1061.5,0.239583,Sixteenth,E3_C3
5906,Right,0,84,80,1061.5,0.239583,Sixteenth,C6
5910,Left,1,57,80,1061.75,0.239583,Sixteenth,A3
5909,Right,0,83,80,1061.75,0.239583,Sixteenth,B5
5911,Left,1,48,80,1062.0,0.239583,Sixteenth,E3_C3
5912,Right,0,81,80,1062.0,0.989583,Quarter,A5
5914,Left,1,57,80,1062.25,0.239583,Sixteenth,A3
5915,Left,1,52,80,1062.5,0.239583,Sixteenth,E3_C3
5917,Left,1,57,80,1062.75,0.239583,Sixteenth,A3
5918,Left,1,52,80,1063.0,0.239583,Sixteenth,E3_C3
5920,Left,1,57,80,1063.25,0.239583,Sixteenth,A3
5921,Left,1,52,80,1063.5,0.239583,Sixteenth,E3_C3
5923,Left,1,57,80,1063.75,0.239583,Sixteenth,A3
5924,Left,1,53,80,1064.0,0.239583,Sixteenth,F3_A3
5925,Right,0,83,80,1064.0,0.114583,ThirtySecond,B5
5927,Right,0,84,80,1064.125,1.114583,TiedQuarter-ThirtySecond,C6
5928,Left,1,60,80,1064.25,0.239583,Sixteenth,C4
5929,Left,1,53,81,1064.5,0.239583,Sixteenth,F3_A3
5931,Left,1,60,82,1064.75,0.239583,Sixteenth,C4
5932,Left,1,57,83,1065.0,0.239583,Sixteenth,F3_A3
5935,Right,0,83,84,1065.25,0.239583,Sixteenth,B5
5934,Left,1,60,84,1065.25,0.239583,Sixteenth,C4
5938,Right,0,81,85,1065.5,0.239583,Sixteenth,A5
5936,Left,1,53,85,1065.5,0.239583,Sixteenth,F3_A3
5939,Right,0,80,85,1065.75,0.239583,Sixteenth,G#5
5940,Left,1,60,85,1065.75,0.239583,Sixteenth,C4
5941,Left,1,53,86,1066.0,0.239583,Sixteenth,F3_A3
5943,Right,0,81,86,1066.0,0.989583,Quarter,A5
5944,Left,1,62,87,1066.25,0.239583,Sixteenth,D4
5945,Left,1,57,88,1066.5,0.239583,Sixteenth,F3_A3
5947,Left,1,62,89,1066.75,0.239583,Sixteenth,D4
5948,Left,1,57,90,1067.0,0.239583,Sixteenth,F3_A3
5950,Left,1,62,90,1067.25,0.239583,Sixteenth,D4
5951,Left,1,57,91,1067.5,0.239583,Sixteenth,F3_A3
5953,Left,1,62,92,1067.75,0.239583,Sixteenth,D4
5954,Left,1,57,93,1068.0,0.239583,Sixteenth,F3_A3
5956,Right,0,83,93,1068.0,0.114583,ThirtySecond,B5
5957,Right,0,84,93,1068.125,1.114583,TiedQuarter-ThirtySecond,C6
5958,Left,1,63,94,1068.25,0.239583,Sixteenth,D#4
5959,Left,1,57,95,1068.5,0.239583,Sixteenth,F3_A3
5961,Left,1,63,95,1068.75,0.239583,Sixteenth,D#4
5962,Left,1,57,96,1069.0,0.239583,Sixteenth,F3_A3
5964,Right,0,83,97,1069.25,0.239583,Sixteenth,B5
5965,Left,1,63,97,1069.25,0.239583,Sixteenth,D#4
5967,Left,1,57,98,1069.5,0.239583,Sixteenth,F3_A3
5966,Right,0,81,98,1069.5,0.239583,Sixteenth,A5
5970,Left,1,63,99,1069.75,0.239583,Sixteenth,D#4
5969,Right,0,80,99,1069.75,0.239583,Sixteenth,G#5
5971,Right,0,81,100,1070.0,0.239583,Sixteenth,A5
5972,Left,1,57,100,1070.0,0.239583,Sixteenth,F3_A3
5975,Left,1,60,100,1070.25,0.239583,Sixteenth,C4
5974,Right,0,80,100,1070.25,0.239583,Sixteenth,G#5
5977,Left,1,57,101,1070.5,0.239583,Sixteenth,F3_A3
5976,Right,0,81,101,1070.5,0.239583,Sixteenth,A5
5979,Left,1,60,102,1070.75,0.239583,Sixteenth,C4
5980,Right,0,83,102,1070.75,0.239583,Sixteenth,B5
5982,Right,0,84,103,1071.0,0.239583,Sixteenth,C6
5981,Left,1,53,103,1071.0,0.239583,Sixteenth,F3
5984,Right,0,85,104,1071.25,0.239583,Sixteenth,C#6
5983,Left,1,57,104,1071.25,0.239583,Sixteenth,A3
5985,Right,0,86,105,1071.5,0.239583,Sixteenth,D6
5986,Left,1,53,105,1071.5,0.239583,Sixteenth,F3
5987,Right,0,87,105,1071.75,0.239583,Sixteenth,D#6
5988,Left,1,57,105,1071.75,0.239583,Sixteenth,A3
5989,Left,1,52,80,1072.0,0.239583,Sixteenth,E3
5990,Right,0,88,80,1072.0,1.239583,TiedQuarter-Sixteenth,E6
5991,Left,1,56,80,1072.25,0.239583,Sixteenth,G#3
5992,Left,1,59,80,1072.5,0.239583,Sixteenth,B3
5993,Left,1,64,80,1072.75,0.239583,Sixteenth,E4
5994,Left,1,52,80,1073.0,0.239583,Sixteenth,E3
5996,Left,1,56,80,1073.25,0.239583,Sixteenth,G#3
5995,Right,0,86,80,1073.25,0.239583,Sixteenth,D6
5997,Left,1,59,80,1073.5,0.239583,Sixteenth,B3
5998,Right,0,84,80,1073.5,0.239583,Sixteenth,C6
6000,Right,0,83,80,1073.75,0.239583,Sixteenth,B5
5999,Left,1,64,80,1073.75,0.239583,Sixteenth,E4
6002,Left,1,52,80,1074.0,0.239583,Sixteenth,E3
6001,Right,0,84,80,1074.0,0.239583,Sixteenth,C6
6003,Left,1,57,80,1074.25,0.239583,Sixteenth,A3
6004,Right,0,83,80,1074.25,0.239583,Sixteenth,B5
6006,Left,1,60,80,1074.5,0.239583,Sixteenth,C4
6005,Right,0,81,80,1074.5,0.239583,Sixteenth,A5
6007,Right,0,80,80,1074.75,0.239583,Sixteenth,G#5
6008,Left,1,64,80,1074.75,0.239583,Sixteenth,E4
6010,Right,0,81,80,1075.0,0.239583,Sixteenth,A5
6009,Left,1,52,80,1075.0,0.239583,Sixteenth,E3
6012,Right,0,84,80,1075.25,0.239583,Sixteenth,C6
6011,Left,1,57,80,1075.25,0.239583,Sixteenth,A3
6014,Right,0,83,80,1075.5,0.239583,Sixteenth,B5
6013,Left,1,60,80,1075.5,0.239583,Sixteenth,C4
6016,Right,0,81,80,1075.75,0.239583,Sixteenth,A5
6015,Left,1,64,80,1075.75,0.239583,Sixteenth,E4
6017,Left,1,52,80,1076.0,0.239583,Sixteenth,E3
6018,Right,0,80,80,1076.0,0.239583,Sixteenth,G#5
6019,Right,0,78,80,1076.25,0.239583,Sixteenth,F#5
6020,Left,1,59,80,1076.25,0.239583,Sixteenth,B3
6021,Left,1,62,80,1076.5,0.239583,Sixteenth,D4
6022,Right,0,76,80,1076.5,0.239583,Sixteenth,E5
6023,Left,1,64,80,1076.75,0.239583,Sixteenth,E4
6024,Right,0,75,80,1076.75,0.239583,Sixteenth,D#5
6025,Left,1,52,80,1077.0,0.239583,Sixteenth,E3
6026,Right,0,76,80,1077.0,0.239583,Sixteenth,E5
6028,Right,0,78,80,1077.25,0.239583,Sixteenth,F#5
6027,Left,1,59,80,1077.25,0.239583,Sixteenth,B3
6030,Right,0,79,80,1077.5,0.239583,Sixteenth,G5
6029,Left,1,62,80,1077.5,0.239583,Sixteenth,D4
6032,Left,1,64,80,1077.75,0.239583,Sixteenth,E4
6031,Right,0,80,80,1077.75,0.239583,Sixteenth,G#5
6034,Left,1,52,80,1078.0,0.239583,Sixteenth,E3
6033,Right,0,81,80,1078.0,0.239583,Sixteenth,A5
6036,Left,1,57,80,1078.25,0.239583,Sixteenth,A3
6035,Right,0,80,80,1078.25,0.239583,Sixteenth,G#5
6037,Left,1,60,80,1078.5,0.239583,Sixteenth,C4
6038,Right,0,81,80,1078.5,0.239583,Sixteenth,A5
6040,Left,1,64,80,1078.75,0.239583,Sixteenth,E4
6039,Right,0,83,80,1078.75,0.239583,Sixteenth,B5
6041,Right,0,84,80,1079.0,0.239583,Sixteenth,C6
6042,Left,1,52,80,1079.0,0.239583,Sixteenth,E3
6044,Left,1,57,80,1079.25,0.239583,Sixteenth,A3
6043,Right,0,85,80,1079.25,0.239583,Sixteenth,C#6
6045,Left,1,60,80,1079.5,0.239583,Sixteenth,C4
6046,Right,0,86,80,1079.5,0.239583,Sixteenth,D6
6047,Right,0,87,80,1079.75,0.239583,Sixteenth,D#6
6048,Left,1,64,80,1079.75,0.239583,Sixteenth,E4
6050,Left,1,52,80,1080.0,0.239583,Sixteenth,E3
6049,Right,0,88,80,1080.0,0.239583,Sixteenth,E6
6052,Left,1,56,80,1080.25,0.239583,Sixteenth,G#3
6051,Right,0,87,80,1080.25,0.239583,Sixteenth,D#6
6053,Right,0,88,80,1080.5,0.239583,Sixteenth,E6
6054,Left,1,59,80,1080.5,0.239583,Sixteenth,B3
6055,Right,0,87,80,1080.75,0.239583,Sixteenth,D#6
6056,Left,1,64,80,1080.75,0.239583,Sixteenth,E4
6057,Right,0,88,80,1081.0,0.239583,Sixteenth,E6
6058,Left,1,52,80,1081.0,0.239583,Sixteenth,E3
6060,Right,0,86,80,1081.25,0.239583,Sixteenth,D6
6059,Left,1,56,80,1081.25,0.239583,Sixteenth,G#3
6061,Right,0,84,80,1081.5,0.239583,Sixteenth,C6
6062,Left,1,59,80,1081.5,0.239583,Sixteenth,B3
6063,Right,0,83,80,1081.75,0.239583,Sixteenth,B5
6064,Left,1,64,80,1081.75,0.239583,Sixteenth,E4
6066,Right,0,84,80,1082.0,0.239583,Sixteenth,C6
6065,Left,1,52,80,1082.0,0.239583,Sixteenth,E3
6067,Right,0,83,80,1082.25,0.239583,Sixteenth,B5
6068,Left,1,57,80,1082.25,0.239583,Sixteenth,A3
6070,Right,0,81,80,1082.5,0.239583,Sixteenth,A5
6069,Left,1,60,80,1082.5,0.239583,Sixteenth,C4
6071,Left,1,64,80,1082.75,0.239583,Sixteenth,E4
6072,Right,0,80,80,1082.75,0.239583,Sixteenth,G#5
6073,Left,1,52,80,1083.0,0.239583,Sixteenth,E3
6074,Right,0,81,80,1083.0,0.239583,Sixteenth,A5
6076,Left,1,57,80,1083.25,0.239583,Sixteenth,A3
6075,Right,0,84,80,1083.25,0.239583,Sixteenth,C6
6078,Right,0,83,80,1083.5,0.239583,Sixteenth,B5
6077,Left,1,60,80,1083.5,0.239583,Sixteenth,C4
6079,Right,0,81,80,1083.75,0.239583,Sixteenth,A5
6080,Left,1,64,80,1083.75,0.239583,Sixteenth,E4
6082,Right,0,80,80,1084.0,0.239583,Sixteenth,G#5
6081,Left,1,52,80,1084.0,0.239583,Sixteenth,E3
6083,Right,0,78,80,1084.25,0.239583,Sixteenth,F#5
6084,Left,1,59,80,1084.25,0.239583,Sixteenth,B3
6086,Right,0,76,80,1084.5,0.239583,Sixteenth,E5
6085,Left,1,62,80,1084.5,0.239583,Sixteenth,D4
6088,Left,1,64,80,1084.75,0.239583,Sixteenth,E4
6087,Right,0,75,80,1084.75,0.239583,Sixteenth,D#5
6090,Right,0,76,80,1085.0,0.239583,Sixteenth,E5
6089,Left,1,52,80,1085.0,0.239583,Sixteenth,E3
6092,Right,0,78,80,1085.25,0.239583,Sixteenth,F#5
6091,Left,1,59,80,1085.25,0.239583,Sixteenth,B3
6093,Left,1,62,80,1085.5,0.239583,Sixteenth,D4
6094,Right,0,79,80,1085.5,0.239583,Sixteenth,G5
6096,Right,0,80,80,1085.75,0.239583,Sixteenth,G#5
6095,Left,1,64,80,1085.75,0.239583,Sixteenth,E4
6098,Left,1,52,80,1086.0,0.239583,Sixteenth,E3
6097,Right,0,81,80,1086.0,0.239583,Sixteenth,A5
6099,Left,1,57,80,1086.25,0.239583,Sixteenth,A3
6100,Right,0,80,80,1086.25,0.239583,Sixteenth,G#5
6102,Right,0,81,80,1086.5,0.239583,Sixteenth,A5
6101,Left,1,60,80,1086.5,0.239583,Sixteenth,C4
6104,Right,0,83,80,1086.75,0.239583,Sixteenth,B5
6103,Left,1,64,80,1086.75,0.239583,Sixteenth,E4
6105,Left,1,52,80,1087.0,0.239583,Sixteenth,E3
6106,Right,0,84,80,1087.0,0.239583,Sixteenth,C6
6108,Right,0,85,80,1087.25,0.239583,Sixteenth,C#6
6107,Left,1,57,80,1087.25,0.239583,Sixteenth,A3
6110,Right,0,86,80,1087.5,0.239583,Sixteenth,D6
6109,Left,1,60,80,1087.5,0.239583,Sixteenth,C4
6112,Right,0,87,80,1087.75,0.239583,Sixteenth,D#6
6111,Left,1,64,80,1087.75,0.239583,Sixteenth,E4
6113,Left,1,52,80,1088.0,0.239583,Sixteenth,E3
6114,Right,0,88,80,1088.0,0.239583,Sixteenth,E6
6115,Right,0,83,81,1088.25,0.239583,Sixteenth,B5
6116,Left,1,56,81,1088.25,0.239583,Sixteenth,G#3
6118,Right,0,80,83,1088.5,0.239583,Sixteenth,G#5
6117,Left,1,59,83,1088.5,0.239583,Sixteenth,B3
6119,Right,0,76,84,1088.75,0.239583,Sixteenth,E5
6120,Left,1,64,84,1088.75,0.239583,Sixteenth,E4
6122,Left,1,63,86,1089.0,0.239583,Sixteenth,D#4
6121,Right,0,75,86,1089.0,0.239583,Sixteenth,D#5
6123,Right,0,76,88,1089.25,0.239583,Sixteenth,E5
6124,Left,1,64,88,1089.25,0.239583,Sixteenth,E4
6126,Right,0,81,89,1089.5,0.239583,Sixteenth,A5
6125,Left,1,60,89,1089.5,0.239583,Sixteenth,C4
6127,Right,0,84,91,1089.75,0.239583,Sixteenth,C6
6128,Left,1,57,91,1089.75,0.239583,Sixteenth,A3
6130,Right,0,88,93,1090.0,0.239583,Sixteenth,E6
6129,Left,1,52,93,1090.0,0.239583,Sixteenth,E3
6132,Right,0,83,94,1090.25,0.239583,Sixteenth,B5
6131,Left,1,56,94,1090.25,0.239583,Sixteenth,G#3
6134,Right,0,80,96,1090.5,0.239583,Sixteenth,G#5
6133,Left,1,59,96,1090.5,0.239583,Sixteenth,B3
6135,Left,1,64,97,1090.75,0.239583,Sixteenth,E4
6136,Right,0,76,97,1090.75,0.239583,Sixteenth,E5
6138,Left,1,63,99,1091.0,0.239583,Sixteenth,D#4
6137,Right,0,75,99,1091.0,0.239583,Sixteenth,D#5
6140,Left,1,64,101,1091.25,0.239583,Sixteenth,E4
6139,Right,0,76,101,1091.25,0.239583,Sixteenth,E5
6142,Left,1,60,102,1091.5,0.239583,Sixteenth,C4
6141,Right,0,81,102,1091.5,0.239583,Sixteenth,A5
6144,Left,1,57,104,1091.75,0.239583,Sixteenth,A3
6143,Right,0,84,104,1091.75,0.239583,Sixteenth,C6
6145,Left,1,52,110,1092.0,0.239583,Sixteenth,E3
6146,Right,0,88,123,1092.0,0.239583,Sixteenth,E6
6147,Left,1,56,110,1092.25,0.239583,Sixteenth,G#3
6148,Right,0,83,110,1092.25,0.239583,Sixteenth,B5
6149,Left,1,59,110,1092.5,0.239583,Sixteenth,B3
6150,Right,0,80,110,1092.5,0.239583,Sixteenth,G#5
6151,Left,1,64,110,1092.75,0.239583,Sixteenth,E4
6152,Right,0,76,110,1092.75,0.239583,Sixteenth,E5
6153,Left,1,52,110,1093.0,0.239583,Sixteenth,E3
6154,Right,0,88,121,1093.0,0.239583,Sixteenth,E6
6155,Left,1,57,110,1093.25,0.239583,Sixteenth,A3
6156,Right,0,84,110,1093.25,0.239583,Sixteenth,C6
6158,Right,0,81,110,1093.5,0.239583,Sixteenth,A5
6157,Left,1,60,110,1093.5,0.239583,Sixteenth,C4
6159,Left,1,64,110,1093.75,0.239583,Sixteenth,E4
6160,Right,0,76,110,1093.75,0.239583,Sixteenth,E5
6161,Right,0,88,121,1094.0,0.239583,Sixteenth,E6
6162,Left,1,52,110,1094.0,0.239583,Sixteenth,E3
6164,Left,1,56,110,1094.25,0.239583,Sixteenth,G#3
6163,Right,0,83,110,1094.25,0.239583,Sixteenth,B5
6165,Left,1,59,110,1094.5,0.239583,Sixteenth,B3
6166,Right,0,80,110,1094.5,0.239583,Sixteenth,G#5
6168,Left,1,64,110,1094.75,0.239583,Sixteenth,E4
6167,Right,0,76,110,1094.75,0.239583,Sixteenth,E5
6169,Left,1,52,110,1095.0,0.239583,Sixteenth,E3
6170,Right,0,88,120,1095.0,0.239583,Sixteenth,E6
6172,Left,1,57,110,1095.25,0.239583,Sixteenth,A3
6171,Right,0,84,110,1095.25,0.239583,Sixteenth,C6
6174,Left,1,60,110,1095.5,0.239583,Sixteenth,C4
6173,Right,0,81,110,1095.5,0.239583,Sixteenth,A5
6175,Left,1,64,110,1095.75,0.239583,Sixteenth,E4
6176,Right,0,76,110,1095.75,0.239583,Sixteenth,E5
6177,Left,1,59,110,1096.0,0.989583,Quarter,G#3_E4_E3_B3
6179,Right,0,88,110,1096.0,0.239583,Sixteenth,E6
6182,Right,0,83,110,1096.25,0.239583,Sixteenth,B5
6183,Right,0,80,110,1096.5,0.239583,Sixteenth,G#5
6184,Right,0,76,110,1096.75,0.239583,Sixteenth,E5
6185,Right,0,83,110,1097.0,0.239583,Sixteenth,B5
6186,Right,0,80,110,1097.25,0.239583,Sixteenth,G#5
6187,Right,0,76,110,1097.5,0.239583,Sixteenth,E5
6188,Right,0,71,110,1097.75,0.239583,Sixteenth,B4
6189,Right,0,80,110,1098.0,0.239583,Sixteenth,G#5
6190,Right,0,76,110,1098.25,0.239583,Sixteenth,E5
6191,Right,0,71,110,1098.5,0.239583,Sixteenth,B4
6192,Right,0,68,110,1098.75,0.239583,Sixteenth,G#4
6193,Right,0,76,110,1099.0,0.239583,Sixteenth,E5
6194,Right,0,71,110,1099.25,0.239583,Sixteenth,B4
6195,Right,0,68,110,1099.5,0.239583,Sixteenth,G#4
6196,Right,0,64,110,1099.75,0.239583,Sixteenth,E4
6197,Right,0,71,110,1100.0,0.239583,Sixteenth,B4
6198,Right,0,68,110,1100.25,0.239583,Sixteenth,G#4
6199,Right,0,64,110,1100.5,0.239583,Sixteenth,E4
6200,Right,0,59,110,1100.75,0.239583,Sixteenth,B3
6201,Right,0,68,110,1101.0,0.239583,Sixteenth,G#4
6202,Right,0,64,110,1101.25,0.239583,Sixteenth,E4
6203,Right,0,59,110,1101.5,0.239583,Sixteenth,B3
6204,Right,0,56,110,1101.75,0.239583,Sixteenth,G#3
6205,Right,0,64,110,1102.0,0.239583,Sixteenth,E4
6206,Right,0,59,110,1102.25,0.239583,Sixteenth,B3
6207,Right,0,56,110,1102.5,0.239583,Sixteenth,G#3
6208,Right,0,52,110,1102.75,0.239583,Sixteenth,E3
6209,Left,1,40,110,1103.0,0.239583,Sixteenth,E2
6210,Left,1,44,110,1103.25,0.239583,Sixteenth,G#2
6211,Left,1,47,110,1103.5,0.239583,Sixteenth,B2
6212,Left,1,52,110,1103.75,0.239583,Sixteenth,E3
6213,Left,1,40,110,1104.0,0.489583,Eighth,E2
6214,Left,1,52,109,1104.5,0.489583,Eighth,E3
6215,Left,1,42,107,1105.0,0.489583,Eighth,F#2
6216,Left,1,54,105,1105.5,0.489583,Eighth,F#3
6217,Left,1,44,103,1106.0,0.489583,Eighth,G#2
6218,Right,0,76,103,1106.0,0.489583,Eighth,E5
6220,Right,0,64,101,1106.5,0.489583,Eighth,E4
6219,Left,1,56,101,1106.5,0.489583,Eighth,G#3
6221,Right,0,78,99,1107.0,0.489583,Eighth,F#5
6222,Right,0,66,97,1107.5,0.489583,Eighth,F#4
6224,Left,1,44,95,1108.0,0.489583,Eighth,G#2
6223,Right,0,80,95,1108.0,0.489583,Eighth,G#5
6226,Left,1,56,93,1108.5,0.489583,Eighth,G#3
6225,Right,0,68,93,1108.5,0.489583,Eighth,G#4
6227,Left,1,45,91,1109.0,0.489583,Eighth,A2
6228,Left,1,57,89,1109.5,0.489583,Eighth,A3
6230,Left,1,47,87,1110.0,0.489583,Eighth,B2
6229,Right,0,80,87,1110.0,0.489583,Eighth,G#5
6232,Left,1,59,85,1110.5,0.489583,Eighth,B3
6231,Right,0,68,85,1110.5,0.489583,Eighth,G#4
6233,Right,0,81,83,1111.0,0.489583,Eighth,A5
6234,Right,0,69,81,1111.5,0.489583,Eighth,A4
6235,Right,0,83,80,1112.0,0.489583,Eighth,B5
6236,Right,0,71,80,1112.5,0.489583,Eighth,B4
6237,Right,0,85,80,1113.0,0.489583,Eighth,C#6
6238,Right,0,73,80,1113.5,0.489583,Eighth,C#5
6239,Right,0,86,80,1114.0,0.489583,Eighth,D6
6240,Left,1,47,80,1114.0,0.489583,Eighth,B2
6242,Right,0,74,80,1114.5,0.489583,Eighth,D5
6241,Left,1,59,80,1114.5,0.489583,Eighth,B3
6244,Right,0,86,80,1115.0,0.489583,Eighth,D6
6243,Left,1,49,80,1115.0,0.489583,Eighth,C#3
6245,Left,1,61,80,1115.5,0.489583,Eighth,C#4
6246,Right,0,76,80,1115.5,0.489583,Eighth,E5
6248,Right,0,86,80,1116.0,0.489583,Eighth,D6
6247,Left,1,50,80,1116.0,0.489583,Eighth,D3
6249,Right,0,78,80,1116.5,0.489583,Eighth,F#5
6250,Left,1,62,80,1116.5,0.489583,Eighth,D4
6252,Right,0,86,80,1117.0,0.489583,Eighth,D6
6251,Left,1,52,80,1117.0,0.489583,Eighth,E3
6254,Left,1,64,80,1117.5,0.489583,Eighth,E4
6253,Right,0,80,80,1117.5,0.489583,Eighth,G#5
6256,Left,1,54,80,1118.0,0.489583,Eighth,F#3
6255,Right,0,86,80,1118.0,0.489583,Eighth,D6
6258,Left,1,66,80,1118.5,0.489583,Eighth,F#4
6257,Right,0,81,80,1118.5,0.489583,Eighth,A5
6260,Right,0,86,80,1119.0,0.489583,Eighth,D6
6259,Left,1,56,80,1119.0,0.489583,Eighth,G#3
6261,Left,1,68,80,1119.5,0.489583,Eighth,G#4
6262,Right,0,83,80,1119.5,0.489583,Eighth,B5
6267,Left,1,57,80,1120.0,1.989583,Half,E4_C#4_A4_A3
6263,Right,0,85,80,1120.0,1.989583,Half,E5_C#6_C#5_A5
6271,Left,1,52,80,1122.0,0.989583,Quarter,G#3_E4_E3_B3
6274,Right,0,71,80,1122.0,0.989583,Quarter,G#5_E5_B5_B4
6279,Right,0,81,80,1123.0,0.989583,Quarter,F#5_C#5_A5_A4
6280,Left,1,66,80,1123.0,0.989583,Quarter,F#4_F#3_C#4_A3
6287,Right,0,68,80,1124.0,1.989583,Half,G#5_G#4_F5_B4
6288,Left,1,61,80,1124.0,1.989583,Half,G#3_F3_C#4_C#3
6297,Left,1,54,80,1126.0,1.989583,Half,F#3_D4_D3_A3
6295,Right,0,69,80,1126.0,1.989583,Half,F#5_F#4_D5_A4
6303,Right,0,76,80,1128.0,1.989583,Half,G#5_G#4_E5_D5
6306,Left,1,47,80,1128.0,1.989583,Half,G#3_E3_B3_B2
6311,Left,1,49,93,1130.0,0.989583,Quarter,E3_C#4_C#3_A3
6315,Right,0,81,93,1130.0,0.989583,Quarter,E5_A5_A4
6322,Left,1,62,99,1131.0,0.989583,Quarter,F#3_D4_D3_B3
6318,Right,0,81,99,1131.0,0.989583,Quarter,F#5_B5_B4_A5
6328,Left,1,61,110,1132.0,3.989583,Half,E4_E3_C#4_A3
6326,Right,0,81,110,1132.0,2.989583,Half,E5_C#6_C#5_A5
6334,Right,0,80,91,1134.0,1.989583,Half,G#5_B5_B4
6335,Left,1,56,91,1134.0,1.989583,Half,G#3_E4_B3
6340,Right,0,74,81,1135.0,0.989583,Quarter,D5
6341,Left,1,60,80,1136.0,1.989583,Half,C4_A3
6343,Right,0,72,80,1136.0,1.989583,Half,E4_C5_A4
6346,Right,0,71,80,1138.0,0.989583,Quarter,G4_E4_B4
6347,Left,1,52,80,1138.0,0.989583,Quarter,G3_E3_B3
6354,Right,0,60,80,1139.0,0.989583,Quarter,F4_C4_A4
6352,Left,1,53,80,1139.0,0.989583,Quarter,F3_A3
6357,Right,0,67,80,1140.0,1.989583,Half,G4_E4_C4
6360,Left,1,55,80,1140.0,1.989583,Half,G3_E3_C3
6364,Right,0,65,80,1142.0,1.989583,Half,F4_D4_A3
6363,Left,1,53,80,1142.0,1.989583,Half,F3_D3
6368,Left,1,48,80,1144.0,3.989583,Quarter,G2_E3_C3
6369,Right,0,67,80,1144.0,1.989583,Quarter,G4_E4_C4
6376,Right,0,62,86,1145.0,2.989583,DottedHalf,F4_D4
6374,Left,1,50,86,1145.0,2.989583,DottedHalf,F3_D3
6378,Right,0,69,93,1146.0,0.989583,Quarter,A4
6379,Right,0,71,99,1147.0,0.989583,Quarter,B4
6381,Right,0,64,80,1148.0,0.322917,Triplet,E4_C5_C4
6380,Left,1,48,80,1148.0,0.989583,Quarter,E3_C3
6385,Right,0,74,80,1148.333333,0.322917,Triplet,D5
6386,Right,0,76,80,1148.666667,0.322917,Triplet,E5
6387,Right,0,77,80,1149.0,0.322917,Triplet,F5
6388,Right,0,79,80,1149.333333,0.322917,Triplet,G5
6389,Right,0,81,80,1149.666667,0.322917,Triplet,A5
6390,Right,0,82,80,1150.0,0.322917,Triplet,A#5
6391,Right,0,83,80,1150.333333,0.322917,Triplet,B5
6392,Right,0,84,80,1150.666667,0.322917,Triplet,C6
6393,Right,0,85,80,1151.0,0.322917,Triplet,C#6
6394,Right,0,86,80,1151.333333,0.322917,Triplet,D6
6395,Right,0,87,80,1151.666667,0.322917,Triplet,D#6
6396,Right,0,88,80,1152.0,1.989583,Triplet,E6_C6
6397,Left,1,72,80,1152.0,1.989583,Half,E5_C5
6400,Right,0,87,80,1152.333333,0.322917,Triplet,D#6
6401,Right,0,88,80,1152.666667,0.322917,Triplet,E6
6402,Right,0,89,80,1153.0,0.322917,Triplet,F6
6403,Right,0,87,80,1153.333333,0.322917,Triplet,D#6
6404,Right,0,88,80,1153.666667,0.322917,Triplet,E6
6405,Right,0,83,80,1154.0,0.989583,Quarter,B5
6406,Left,1,77,80,1154.0,0.989583,Quarter,G#4_F5_D5_B4
6410,Right,0,88,80,1154.333333,0.322917,Triplet,E6
6411,Right,0,86,80,1154.666667,0.322917,Triplet,D6
6413,Right,0,81,80,1155.0,0.989583,Quarter,A5
6412,Left,1,76,80,1155.0,0.989583,Quarter,E5_C5_A4
6416,Right,0,86,80,1155.333333,0.322917,Triplet,D6
6417,Right,0,84,80,1155.666667,0.322917,Triplet,C6
6418,Right,0,80,80,1156.0,1.989583,Half,G#5
6419,Left,1,64,80,1156.0,1.989583,Half,G#4_E4_D5_B4
6423,Right,0,82,80,1156.333333,0.322917,Triplet,A#5
6424,Right,0,83,80,1156.666667,0.322917,Triplet,B5
6425,Right,0,84,80,1157.0,0.322917,Triplet,C6
6426,Right,0,82,80,1157.333333,0.322917,Triplet,A#5
6427,Right,0,83,80,1157.666667,0.322917,Triplet,B5
6431,Right,0,77,80,1158.0,1.989583,Half,F5
6428,Left,1,65,80,1158.0,1.989583,Half,F4_C5_A4
6432,Right,0,80,80,1158.333333,0.322917,Triplet,G#5
6433,Right,0,81,80,1158.666667,0.322917,Triplet,A5
6434,Right,0,83,80,1159.0,0.322917,Triplet,B5
6435,Right,0,80,80,1159.333333,0.322917,Triplet,G#5
6436,Right,0,81,80,1159.666667,0.322917,Triplet,A5
6437,Right,0,77,80,1160.0,1.989583,Half,F5
6438,Left,1,71,80,1160.0,1.989583,Half,G4_F4_D4_B4
6442,Right,0,82,82,1160.333333,0.322917,Triplet,A#5
6443,Right,0,83,85,1160.666667,0.322917,Triplet,B5
6444,Right,0,84,88,1161.0,0.322917,Triplet,C6
6445,Right,0,82,91,1161.333333,0.322917,Triplet,A#5
6446,Right,0,83,94,1161.666667,0.322917,Triplet,B5
6447,Left,1,67,96,1162.0,0.989583,Quarter,G4_E4_C5
6449,Right,0,79,96,1162.0,0.989583,Quarter,G5
6451,Right,0,86,99,1162.333333,0.322917,Triplet,D6
6452,Right,0,84,102,1162.666667,0.322917,Triplet,C6
6453,Left,1,69,105,1163.0,0.989583,Quarter,F4_D5_C5_A4
6454,Right,0,81,105,1163.0,0.989583,Quarter,A5
6458,Right,0,88,108,1163.333333,0.322917,Triplet,E6
6459,Right,0,86,110,1163.666667,0.322917,Triplet,D6
6460,Left,1,76,110,1164.0,2.989583,Half,G4_E5_C5
6462,Right,0,84,110,1164.0,1.989583,Half,E6_C6
6465,Right,0,87,110,1164.333333,0.322917,Triplet,D#6
6466,Right,0,88,110,1164.666667,0.322917,Triplet,E6
6467,Right,0,91,110,1165.0,0.322917,Triplet,G6
6468,Right,0,89,110,1165.333333,0.322917,Triplet,F6
6469,Right,0,88,110,1165.666667,0.322917,Triplet,E6
6472,Left,1,71,110,1166.0,0.989583,Quarter,D5_B4
6470,Right,0,86,110,1166.0,0.322917,Triplet,D6_B5
6474,Right,0,84,105,1166.333333,0.322917,Triplet,C6_A5
6476,Right,0,83,99,1166.666667,0.322917,Triplet,G5_B5
6478,Right,0,81,93,1167.0,0.322917,Triplet,F5_A5
6480,Left,1,55,93,1167.0,0.322917,Triplet,G3
6481,Right,0,79,87,1167.333333,0.322917,Triplet,G5_E5
6483,Left,1,57,87,1167.333333,0.322917,Triplet,A3
6485,Right,0,77,81,1167.666667,0.322917,Triplet,F5_D5
6484,Left,1,59,81,1167.666667,0.322917,Triplet,B3
6488,Left,1,64,80,1168.0,1.989583,Half,E4_C4
6487,Right,0,76,80,1168.0,1.989583,Triplet,G4_E5
6491,Right,0,75,80,1168.333333,0.322917,Triplet,D#5
6492,Right,0,76,80,1168.666667,0.322917,Triplet,E5
6493,Right,0,77,80,1169.0,0.322917,Triplet,F5
6494,Right,0,75,80,1169.333333,0.322917,Triplet,D#5
6495,Right,0,76,80,1169.666667,0.322917,Triplet,E5
6496,Left,1,56,80,1170.0,0.989583,Quarter,G#3_D4_B3
6499,Right,0,65,80,1170.0,0.989583,Quarter,F4
6500,Right,0,76,80,1170.333333,0.322917,Triplet,E5
6501,Right,0,74,80,1170.666667,0.322917,Triplet,D5
6502,Right,0,64,80,1171.0,0.989583,Quarter,E4
6503,Left,1,57,80,1171.0,0.989583,Quarter,C4_A3
6505,Right,0,74,80,1171.333333,0.322917,Triplet,D5
6506,Right,0,72,80,1171.666667,0.322917,Triplet,C5
6508,Left,1,59,80,1172.0,1.989583,Half,G#3_E3_B3
6507,Right,0,62,80,1172.0,1.989583,Half,D4
6511,Right,0,70,80,1172.333333,0.322917,Triplet,A#4
6512,Right,0,71,80,1172.666667,0.322917,Triplet,B4
6513,Right,0,72,80,1173.0,0.322917,Triplet,C5
6514,Right,0,70,80,1173.333333,0.322917,Triplet,A#4
6515,Right,0,71,80,1173.666667,0.322917,Triplet,B4
6517,Left,1,53,80,1174.0,1.989583,Half,F3_A3
6516,Right,0,60,80,1174.0,1.989583,Half,C4
6519,Right,0,68,80,1174.333333,0.322917,Triplet,G#4
6520,Right,0,69,80,1174.666667,0.322917,Triplet,A4
6521,Right,0,71,80,1175.0,0.322917,Triplet,B4
6522,Right,0,68,80,1175.333333,0.322917,Triplet,G#4
6523,Right,0,69,80,1175.666667,0.322917,Triplet,A4
6525,Left,1,52,80,1176.0,3.989583,Quarter,G2_E3_C3
6524,Right,0,60,80,1176.0,0.989583,Quarter,C4
6528,Right,0,64,82,1176.333333,0.322917,Triplet,E4
6529,Right,0,67,84,1176.666667,0.322917,Triplet,G4
6531,Right,0,62,87,1177.0,0.989583,Quarter,D4
6530,Left,1,50,87,1177.0,2.989583,DottedHalf,F3_D3
6533,Right,0,65,89,1177.333333,0.322917,Triplet,F4
6534,Right,0,67,91,1177.666667,0.322917,Triplet,G4
6535,Right,0,62,94,1178.0,0.989583,Quarter,D4
6536,Right,0,65,96,1178.333333,0.322917,Triplet,F4
6537,Right,0,69,98,1178.666667,0.322917,Triplet,A4
6538,Right,0,62,101,1179.0,0.989583,Quarter,D4
6539,Right,0,65,103,1179.333333,0.322917,Triplet,F4
6540,Right,0,71,105,1179.666667,0.322917,Triplet,B4
6543,Left,1,36,110,1180.0,0.989583,Quarter,C3_C2
6541,Right,0,64,110,1180.0,0.322917,Triplet,E4_C5
6545,Right,0,55,110,1180.333333,0.322917,Triplet,G3
6546,Right,0,52,110,1180.666667,0.322917,Triplet,E3
6547,Right,0,55,110,1181.0,0.322917,Triplet,G3
6548,Left,1,43,110,1181.0,1.989583,Half,G2
6549,Right,0,60,110,1181.333333,0.322917,Triplet,C4
6550,Right,0,64,110,1181.666667,0.322917,Triplet,E4
6551,Right,0,62,110,1182.0,0.322917,Triplet,D4
6552,Right,0,59,110,1182.333333,0.322917,Triplet,B3
6553,Right,0,55,110,1182.666667,0.322917,Triplet,G3
6555,Right,0,59,110,1183.0,0.322917,Triplet,B3
6554,Left,1,43,110,1183.0,1.989583,Half,G2
6556,Right,0,62,110,1183.333333,0.322917,Triplet,D4
6557,Right,0,65,110,1183.666667,0.322917,Triplet,F4
6558,Right,0,64,110,1184.0,0.322917,Triplet,E4
6559,Right,0,60,110,1184.333333,0.322917,Triplet,C4
6560,Right,0,55,110,1184.666667,0.322917,Triplet,G3
6561,Right,0,60,110,1185.0,0.322917,Triplet,C4
6562,Left,1,43,110,1185.0,1.989583,Half,G2
6563,Right,0,64,110,1185.333333,0.322917,Triplet,E4
6564,Right,0,67,110,1185.666667,0.322917,Triplet,G4
6565,Right,0,65,110,1186.0,0.322917,Triplet,F4
6566,Right,0,62,110,1186.333333,0.322917,Triplet,D4
6567,Right,0,59,110,1186.666667,0.322917,Triplet,B3
6568,Right,0,71,110,1187.0,0.322917,Triplet,B4
6569,Left,1,43,110,1187.0,0.989583,Quarter,G2
6570,Right,0,65,110,1187.333333,0.322917,Triplet,F4
6571,Right,0,62,110,1187.666667,0.322917,Triplet,D4
6574,Left,1,48,110,1188.0,0.322917,Triplet,C3
6572,Right,0,72,110,1188.0,0.989583,Quarter,E4_C5
6575,Left,1,43,110,1188.333333,0.322917,Triplet,G2
6576,Left,1,40,110,1188.666667,0.322917,Triplet,E2
6577,Left,1,43,110,1189.0,0.322917,Triplet,G2
6578,Right,0,67,110,1189.0,1.989583,Half,G4
6579,Left,1,48,110,1189.333333,0.322917,Triplet,C3
6580,Left,1,52,110,1189.666667,0.322917,Triplet,E3
6581,Left,1,50,110,1190.0,0.322917,Triplet,D3
6582,Left,1,47,110,1190.333333,0.322917,Triplet,B2
6583,Left,1,43,110,1190.666667,0.322917,Triplet,G2
6584,Left,1,47,110,1191.0,0.322917,Triplet,B2
6585,Right,0,67,110,1191.0,1.989583,Half,G4
6586,Left,1,50,110,1191.333333,0.322917,Triplet,D3
6587,Left,1,53,110,1191.666667,0.322917,Triplet,F3
6588,Left,1,52,110,1192.0,0.322917,Triplet,E3
6589,Left,1,48,110,1192.333333,0.322917,Triplet,C3
6590,Left,1,43,110,1192.666667,0.322917,Triplet,G2
6591,Left,1,48,110,1193.0,0.322917,Triplet,C3
6592,Right,0,67,110,1193.0,1.989583,Half,G4
6593,Left,1,52,110,1193.333333,0.322917,Triplet,E3
6594,Left,1,55,110,1193.666667,0.322917,Triplet,G3
6595,Left,1,53,110,1194.0,0.322917,Triplet,F3
6596,Left,1,50,110,1194.333333,0.322917,Triplet,D3
6597,Left,1,47,110,1194.666667,0.322917,Triplet,B2
6598,Left,1,59,110,1195.0,0.322917,Triplet,B3
6599,Right,0,67,110,1195.0,0.989583,Quarter,G4
6600,Left,1,53,110,1195.333333,0.322917,Triplet,F3
6601,Left,1,50,110,1195.666667,0.322917,Triplet,D3
6603,Left,1,52,110,1196.0,0.322917,Triplet,E3
6602,Right,0,72,110,1196.0,0.322917,Triplet,C5
6605,Left,1,55,110,1196.333333,0.322917,Triplet,G3
6604,Right,0,67,110,1196.333333,0.322917,Triplet,G4
6607,Left,1,60,110,1196.666667,0.322917,Triplet,C4
6606,Right,0,64,110,1196.666667,0.322917,Triplet,E4
6608,Right,0,67,110,1197.0,0.322917,Triplet,G4
6609,Left,1,55,110,1197.0,0.322917,Triplet,G3
6611,Right,0,72,110,1197.333333,0.322917,Triplet,C5
6610,Left,1,52,110,1197.333333,0.322917,Triplet,E3
6612,Right,0,76,110,1197.666667,0.322917,Triplet,E5
6613,Left,1,48,110,1197.666667,0.322917,Triplet,C3
6614,Right,0,74,110,1198.0,0.322917,Triplet,D5
6615,Left,1,47,110,1198.0,0.322917,Triplet,B2
6617,Left,1,50,110,1198.333333,0.322917,Triplet,D3
6616,Right,0,71,110,1198.333333,0.322917,Triplet,B4
6619,Left,1,53,110,1198.666667,0.322917,Triplet,F3
6618,Right,0,67,110,1198.666667,0.322917,Triplet,G4
6621,Right,0,71,110,1199.0,0.322917,Triplet,B4
6620,Left,1,50,110,1199.0,0.322917,Triplet,D3
6622,Right,0,74,110,1199.333333,0.322917,Triplet,D5
6623,Left,1,47,110,1199.333333,0.322917,Triplet,B2
6624,Right,0,77,110,1199.666667,0.322917,Triplet,F5
6625,Left,1,43,110,1199.666667,0.322917,Triplet,G2
6627,Right,0,76,110,1200.0,0.322917,Triplet,E5
6626,Left,1,48,110,1200.0,0.322917,Triplet,C3
6629,Left,1,52,110,1200.333333,0.322917,Triplet,E3
6628,Right,0,72,110,1200.333333,0.322917,Triplet,C5
6631,Left,1,55,110,1200.666667,0.322917,Triplet,G3
6630,Right,0,67,110,1200.666667,0.322917,Triplet,G4
6632,Right,0,72,110,1201.0,0.322917,Triplet,C5
6633,Left,1,52,110,1201.0,0.322917,Triplet,E3
6635,Right,0,76,110,1201.333333,0.322917,Triplet,E5
6634,Left,1,48,110,1201.333333,0.322917,Triplet,C3
6636,Left,1,43,110,1201.666667,0.322917,Triplet,G2
6637,Right,0,79,110,1201.666667,0.322917,Triplet,G5
6639,Right,0,77,110,1202.0,0.322917,Triplet,F5
6638,Left,1,50,110,1202.0,0.322917,Triplet,D3
6640,Right,0,74,110,1202.333333,0.322917,Triplet,D5
6641,Left,1,53,110,1202.333333,0.322917,Triplet,F3
6642,Right,0,71,110,1202.666667,0.322917,Triplet,B4
6643,Left,1,55,110,1202.666667,0.322917,Triplet,G3
6644,Left,1,53,110,1203.0,0.322917,Triplet,F3
6645,Right,0,83,110,1203.0,0.322917,Triplet,B5
6647,Right,0,77,110,1203.333333,0.322917,Triplet,F5
6646,Left,1,55,110,1203.333333,0.322917,Triplet,G3
6649,Right,0,74,110,1203.666667,0.322917,Triplet,D5
6648,Left,1,62,110,1203.666667,0.322917,Triplet,D4
6651,Right,0,84,100,1204.0,0.322917,Triplet,C6
6650,Left,1,52,100,1204.0,0.322917,Triplet,E3
6653,Right,0,79,100,1204.333333,0.322917,Triplet,G5
6652,Left,1,55,100,1204.333333,0.322917,Triplet,G3
6654,Right,0,76,100,1204.666667,0.322917,Triplet,E5
6655,Left,1,60,100,1204.666667,0.322917,Triplet,C4
6656,Right,0,79,99,1205.0,0.322917,Triplet,G5
6657,Left,1,48,99,1205.0,0.322917,Triplet,C3
6658,Right,0,76,99,1205.333333,0.322917,Triplet,E5
6659,Left,1,52,99,1205.333333,0.322917,Triplet,E3
6661,Left,1,55,98,1205.666667,0.322917,Triplet,G3
6660,Right,0,72,98,1205.666667,0.322917,Triplet,C5
6663,Left,1,50,98,1206.0,0.322917,Triplet,D3
6662,Right,0,77,98,1206.0,0.322917,Triplet,F5
6665,Right,0,74,97,1206.333333,0.322917,Triplet,D5
6664,Left,1,53,97,1206.333333,0.322917,Triplet,F3
6667,Right,0,71,97,1206.666667,0.322917,Triplet,B4
6666,Left,1,55,97,1206.666667,0.322917,Triplet,G3
6668,Right,0,83,97,1207.0,0.322917,Triplet,B5
6669,Left,1,53,97,1207.0,0.322917,Triplet,F3
6670,Left,1,55,96,1207.333333,0.322917,Triplet,G3
6671,Right,0,79,96,1207.333333,0.322917,Triplet,G5
6673,Left,1,62,96,1207.666667,0.322917,Triplet,D4
6672,Right,0,74,96,1207.666667,0.322917,Triplet,D5
6674,Right,0,84,95,1208.0,0.322917,Triplet,C6
6675,Left,1,52,95,1208.0,0.322917,Triplet,E3
6676,Left,1,55,95,1208.333333,0.322917,Triplet,G3
6677,Right,0,79,95,1208.333333,0.322917,Triplet,G5
6678,Right,0,76,94,1208.666667,0.322917,Triplet,E5
6679,Left,1,60,94,1208.666667,0.322917,Triplet,C4
6681,Left,1,48,94,1209.0,0.322917,Triplet,C3
6680,Right,0,79,94,1209.0,0.322917,Triplet,G5
6683,Left,1,52,94,1209.333333,0.322917,Triplet,E3
6682,Right,0,76,94,1209.333333,0.322917,Triplet,E5
6685,Left,1,55,93,1209.666667,0.322917,Triplet,G3
6684,Right,0,72,93,1209.666667,0.322917,Triplet,C5
6686,Right,0,77,93,1210.0,0.322917,Triplet,F5
6687,Left,1,50,93,1210.0,0.322917,Triplet,D3
6688,Right,0,74,92,1210.333333,0.322917,Triplet,D5
6689,Left,1,53,92,1210.333333,0.322917,Triplet,F3
6690,Right,0,71,92,1210.666667,0.322917,Triplet,B4
6691,Left,1,55,92,1210.666667,0.322917,Triplet,G3
6693,Right,0,83,91,1211.0,0.322917,Triplet,B5
6692,Left,1,53,91,1211.0,0.322917,Triplet,F3
6694,Right,0,79,91,1211.333333,0.322917,Triplet,G5
6695,Left,1,55,91,1211.333333,0.322917,Triplet,G3
6696,Right,0,74,91,1211.666667,0.322917,Triplet,D5
6697,Left,1,62,91,1211.666667,0.322917,Triplet,D4
6699,Right,0,84,90,1212.0,0.239583,Sixteenth,C6
6698,Left,1,52,90,1212.0,0.239583,Sixteenth,E3
6701,Left,1,55,90,1212.25,0.239583,Sixteenth,G3
6700,Right,0,79,90,1212.25,0.239583,Sixteenth,G5
6703,Left,1,48,91,1212.5,0.239583,Sixteenth,C3
6702,Right,0,76,91,1212.5,0.239583,Sixteenth,E5
6705,Left,1,55,92,1212.75,0.239583,Sixteenth,G3
6704,Right,0,72,92,1212.75,0.239583,Sixteenth,C5
6707,Left,1,50,92,1213.0,0.239583,Sixteenth,D3
6706,Right,0,77,92,1213.0,0.239583,Sixteenth,F5
6708,Right,0,74,93,1213.25,0.239583,Sixteenth,D5
6709,Left,1,55,93,1213.25,0.239583,Sixteenth,G3
6711,Left,1,53,94,1213.5,0.239583,Sixteenth,F3
6710,Right,0,83,94,1213.5,0.239583,Sixteenth,B5
6713,Left,1,55,94,1213.75,0.239583,Sixteenth,G3
6712,Right,0,79,94,1213.75,0.239583,Sixteenth,G5
6715,Left,1,52,95,1214.0,0.239583,Sixteenth,E3
6714,Right,0,84,95,1214.0,0.239583,Sixteenth,C6
6717,Right,0,79,96,1214.25,0.239583,Sixteenth,G5
6716,Left,1,55,96,1214.25,0.239583,Sixteenth,G3
6719,Left,1,48,96,1214.5,0.239583,Sixteenth,C3
6718,Right,0,76,96,1214.5,0.239583,Sixteenth,E5
6720,Right,0,72,97,1214.75,0.239583,Sixteenth,C5
6721,Left,1,55,97,1214.75,0.239583,Sixteenth,G3
6723,Left,1,50,98,1215.0,0.239583,Sixteenth,D3
6722,Right,0,77,98,1215.0,0.239583,Sixteenth,F5
6725,Right,0,74,98,1215.25,0.239583,Sixteenth,D5
6724,Left,1,55,98,1215.25,0.239583,Sixteenth,G3
6726,Right,0,83,99,1215.5,0.239583,Sixteenth,B5
6727,Left,1,53,99,1215.5,0.239583,Sixteenth,F3
6729,Right,0,79,100,1215.75,0.239583,Sixteenth,G5
6728,Left,1,55,100,1215.75,0.239583,Sixteenth,G3
6730,Right,0,84,100,1216.0,0.239583,Sixteenth,C6
6731,Left,1,52,100,1216.0,0.239583,Sixteenth,E3
6733,Right,0,79,101,1216.25,0.239583,Sixteenth,G5
6732,Left,1,55,101,1216.25,0.239583,Sixteenth,G3
6734,Right,0,83,102,1216.5,0.239583,Sixteenth,B5
6735,Left,1,53,102,1216.5,0.239583,Sixteenth,F3
6736,Right,0,79,102,1216.75,0.239583,Sixteenth,G5
6737,Left,1,55,102,1216.75,0.239583,Sixteenth,G3
6739,Right,0,84,103,1217.0,0.239583,Sixteenth,C6
6738,Left,1,52,103,1217.0,0.239583,Sixteenth,E3
6740,Left,1,55,104,1217.25,0.239583,Sixteenth,G3
6741,Right,0,79,104,1217.25,0.239583,Sixteenth,G5
6743,Right,0,83,104,1217.5,0.239583,Sixteenth,B5
6742,Left,1,53,104,1217.5,0.239583,Sixteenth,F3
6745,Right,0,79,105,1217.75,0.239583,Sixteenth,G5
6744,Left,1,55,105,1217.75,0.239583,Sixteenth,G3
6747,Right,0,84,106,1218.0,0.239583,Sixteenth,C6
6746,Left,1,52,106,1218.0,0.239583,Sixteenth,E3
6748,Right,0,79,106,1218.25,0.239583,Sixteenth,G5
6749,Left,1,55,106,1218.25,0.239583,Sixteenth,G3
6750,Right,0,83,107,1218.5,0.239583,Sixteenth,B5
6751,Left,1,53,107,1218.5,0.239583,Sixteenth,F3
6753,Right,0,79,108,1218.75,0.239583,Sixteenth,G5
6752,Left,1,55,108,1218.75,0.239583,Sixteenth,G3
6754,Left,1,52,108,1219.0,0.239583,Sixteenth,E3
6755,Right,0,84,108,1219.0,0.239583,Sixteenth,C6
6756,Left,1,55,109,1219.25,0.239583,Sixteenth,G3
6757,Right,0,79,109,1219.25,0.239583,Sixteenth,G5
6759,Left,1,53,110,1219.5,0.239583,Sixteenth,F3
6758,Right,0,83,110,1219.5,0.239583,Sixteenth,B5
6760,Right,0,79,110,1219.75,0.239583,Sixteenth,G5
6761,Left,1,55,110,1219.75,0.239583,Sixteenth,G3
6762,Left,1,52,110,1220.0,0.239583,Sixteenth,E3
6763,Right,0,84,110,1220.0,0.239583,Sixteenth,C6
6764,Right,0,79,110,1220.25,0.239583,Sixteenth,G5
6765,Left,1,55,110,1220.25,0.239583,Sixteenth,G3
6766,Right,0,82,110,1220.5,0.239583,Sixteenth,A#5
6767,Left,1,40,110,1220.5,0.239583,Sixteenth,E2
6768,Right,0,79,110,1220.75,0.239583,Sixteenth,G5
6769,Left,1,48,110,1220.75,0.239583,Sixteenth,C3
6770,Left,1,40,110,1221.0,0.239583,Sixteenth,E2
6771,Right,0,82,110,1221.0,0.239583,Sixteenth,A#5
6773,Left,1,48,110,1221.25,0.239583,Sixteenth,C3
6772,Right,0,79,110,1221.25,0.239583,Sixteenth,G5
6775,Right,0,82,110,1221.5,0.239583,Sixteenth,A#5
6774,Left,1,40,110,1221.5,0.239583,Sixteenth,E2
6777,Right,0,79,110,1221.75,0.239583,Sixteenth,G5
6776,Left,1,48,110,1221.75,0.239583,Sixteenth,C3
6778,Right,0,82,110,1222.0,0.239583,Sixteenth,A#5
6779,Left,1,40,110,1222.0,0.239583,Sixteenth,E2
6780,Right,0,79,110,1222.25,0.239583,Sixteenth,G5
6781,Left,1,48,110,1222.25,0.239583,Sixteenth,C3
6782,Right,0,82,110,1222.5,0.239583,Sixteenth,A#5
6783,Left,1,40,110,1222.5,0.239583,Sixteenth,E2
6785,Right,0,79,110,1222.75,0.239583,Sixteenth,G5
6784,Left,1,48,110,1222.75,0.239583,Sixteenth,C3
6787,Right,0,82,110,1223.0,0.239583,Sixteenth,A#5
6786,Left,1,40,110,1223.0,0.239583,Sixteenth,E2
6788,Left,1,48,110,1223.25,0.239583,Sixteenth,C3
6789,Right,0,79,110,1223.25,0.239583,Sixteenth,G5
6791,Left,1,40,110,1223.5,0.239583,Sixteenth,E2
6790,Right,0,82,110,1223.5,0.239583,Sixteenth,A#5
6792,Left,1,48,110,1223.75,0.239583,Sixteenth,C3
6793,Right,0,79,110,1223.75,0.239583,Sixteenth,G5
6794,Left,1,40,110,1224.0,0.239583,Sixteenth,E2
6795,Right,0,82,110,1224.0,0.489583,Eighth,A#5
6796,Left,1,48,110,1224.25,0.239583,Sixteenth,C3
6797,Left,1,40,110,1224.5,0.239583,Sixteenth,E2
6798,Right,0,81,110,1224.5,0.239583,Sixteenth,A5
6800,Left,1,48,110,1224.75,0.239583,Sixteenth,C3
6799,Right,0,79,110,1224.75,0.239583,Sixteenth,G5
6801,Right,0,77,110,1225.0,0.239583,Sixteenth,F5
6802,Left,1,40,110,1225.0,0.239583,Sixteenth,E2
6803,Right,0,76,110,1225.25,0.239583,Sixteenth,E5
6804,Left,1,48,110,1225.25,0.239583,Sixteenth,C3
6805,Right,0,74,110,1225.5,0.239583,Sixteenth,D5
6806,Left,1,40,110,1225.5,0.239583,Sixteenth,E2
6808,Right,0,72,110,1225.75,0.239583,Sixteenth,C5
6807,Left,1,48,110,1225.75,0.239583,Sixteenth,C3
6810,Right,0,70,110,1226.0,0.239583,Sixteenth,A#4
6809,Left,1,40,110,1226.0,0.239583,Sixteenth,E2
6812,Right,0,69,110,1226.25,0.239583,Sixteenth,A4
6811,Left,1,48,110,1226.25,0.239583,Sixteenth,C3
6813,Right,0,67,110,1226.5,0.239583,Sixteenth,G4
6814,Left,1,40,110,1226.5,0.239583,Sixteenth,E2
6816,Right,0,65,110,1226.75,0.239583,Sixteenth,F4
6815,Left,1,48,110,1226.75,0.239583,Sixteenth,C3
6818,Right,0,64,110,1227.0,0.239583,Sixteenth,E4
6817,Left,1,40,110,1227.0,0.239583,Sixteenth,E2
6819,Right,0,62,110,1227.25,0.239583,Sixteenth,D4
6820,Left,1,48,110,1227.25,0.239583,Sixteenth,C3
6821,Left,1,40,110,1227.5,0.239583,Sixteenth,E2
6822,Right,0,60,110,1227.5,0.239583,Sixteenth,C4
6824,Right,0,58,110,1227.75,0.239583,Sixteenth,A#3
6823,Left,1,48,110,1227.75,0.239583,Sixteenth,C3
6825,Right,0,57,120,1228.0,0.239583,Sixteenth,A3
6826,Left,1,48,120,1228.0,0.489583,Eighth,F2_C3_A2
6829,Right,0,59,120,1228.25,0.239583,Sixteenth,B3
6830,Right,0,60,120,1228.5,0.239583,Sixteenth,C4
6831,Left,1,48,120,1228.5,0.489583,Eighth,F2_C3_A2
6834,Right,0,59,120,1228.75,0.239583,Sixteenth,B3
6835,Right,0,60,120,1229.0,0.239583,Sixteenth,C4
6836,Right,0,64,120,1229.25,0.239583,Sixteenth,E4
6838,Left,1,48,120,1229.5,0.489583,Eighth,F2_C3_A2
6837,Right,0,65,120,1229.5,0.239583,Sixteenth,F4
6841,Right,0,64,120,1229.75,0.239583,Sixteenth,E4
6842,Right,0,65,120,1230.0,0.239583,Sixteenth,F4
6843,Left,1,45,120,1230.0,0.489583,Eighth,F2_C3_A2
6846,Right,0,68,120,1230.25,0.239583,Sixteenth,G#4
6848,Left,1,41,120,1230.5,0.489583,Eighth,F2_C3_A2
6847,Right,0,69,120,1230.5,0.239583,Sixteenth,A4
6851,Right,0,68,120,1230.75,0.239583,Sixteenth,G#4
6852,Right,0,69,120,1231.0,0.239583,Sixteenth,A4
6853,Right,0,71,120,1231.25,0.239583,Sixteenth,B4
6855,Left,1,45,120,1231.5,0.489583,Eighth,F2_C3_A2
6854,Right,0,72,120,1231.5,0.239583,Sixteenth,C5
6858,Right,0,71,120,1231.75,0.239583,Sixteenth,B4
6861,Right,0,72,120,1232.0,0.239583,Sixteenth,C5
6859,Left,1,48,120,1232.0,0.489583,Eighth,F2_C3_A2
6863,Right,0,76,120,1232.25,0.239583,Sixteenth,E5
6864,Left,1,48,120,1232.5,0.489583,Eighth,F2_C3_A2
6867,Right,0,77,120,1232.5,0.239583,Sixteenth,F5
6868,Right,0,76,120,1232.75,0.239583,Sixteenth,E5
6869,Right,0,77,120,1233.0,0.239583,Sixteenth,F5
6870,Right,0,80,120,1233.25,0.239583,Sixteenth,G#5
6872,Left,1,48,120,1233.5,0.489583,Eighth,F2_C3_A2
6871,Right,0,81,120,1233.5,0.239583,Sixteenth,A5
6875,Right,0,80,120,1233.75,0.239583,Sixteenth,G#5
6879,Right,0,81,120,1234.0,0.239583,Sixteenth,A5
6876,Left,1,48,120,1234.0,0.489583,Eighth,F2_C3_A2
6880,Right,0,83,120,1234.25,0.239583,Sixteenth,B5
6884,Right,0,84,120,1234.5,0.239583,Sixteenth,C6
6881,Left,1,48,120,1234.5,0.489583,Eighth,F2_C3_A2
6885,Right,0,83,120,1234.75,0.239583,Sixteenth,B5
6886,Right,0,84,120,1235.0,0.239583,Sixteenth,C6
6887,Right,0,83,120,1235.25,0.239583,Sixteenth,B5
6889,Left,1,48,120,1235.5,0.489583,Eighth,F2_C3_A2
6888,Right,0,81,120,1235.5,0.239583,Sixteenth,A5
6892,Right,0,80,120,1235.75,0.239583,Sixteenth,G#5
6897,Right,0,81,120,1236.0,0.239583,Sixteenth,A5
6893,Left,1,50,120,1236.0,0.489583,Eighth,F#2_D3_C3_A2
6898,Right,0,80,120,1236.25,0.239583,Sixteenth,G#5
6899,Right,0,81,120,1236.5,0.239583,Sixteenth,A5
6900,Left,1,42,120,1236.5,0.489583,Eighth,F#2_D3_C3_A2
6904,Right,0,83,120,1236.75,0.239583,Sixteenth,B5
6905,Right,0,84,120,1237.0,0.239583,Sixteenth,C6
6906,Right,0,83,120,1237.25,0.239583,Sixteenth,B5
6907,Left,1,45,120,1237.5,0.489583,Eighth,F#2_D3_C3_A2
6908,Right,0,81,120,1237.5,0.239583,Sixteenth,A5
6912,Right,0,80,120,1237.75,0.239583,Sixteenth,G#5
6913,Left,1,50,120,1238.0,0.489583,Eighth,F#2_D3_C3_A2
6917,Right,0,81,120,1238.0,0.239583,Sixteenth,A5
6918,Right,0,80,120,1238.25,0.239583,Sixteenth,G#5
6923,Right,0,81,120,1238.5,0.239583,Sixteenth,A5
6919,Left,1,50,120,1238.5,0.489583,Eighth,F#2_D3_C3_A2
6924,Right,0,83,120,1238.75,0.239583,Sixteenth,B5
6925,Right,0,84,120,1239.0,0.239583,Sixteenth,C6
6926,Right,0,83,120,1239.25,0.239583,Sixteenth,B5
6927,Right,0,81,120,1239.5,0.239583,Sixteenth,A5
6928,Left,1,50,120,1239.5,0.489583,Eighth,F#2_D3_C3_A2
6932,Right,0,80,120,1239.75,0.239583,Sixteenth,G#5
6939,Left,1,48,120,1240.5,0.489583,Eighth,F#2_D3_C3_A2
6944,Right,0,83,120,1240.75,0.239583,Sixteenth,B5
6945,Right,0,84,120,1241.0,0.239583,Sixteenth,C6
6946,Right,0,83,120,1241.25,0.239583,Sixteenth,B5
6947,Right,0,81,120,1241.5,0.239583,Sixteenth,A5
6948,Left,1,42,120,1241.5,0.489583,Eighth,F#2_D3_C3_A2
6952,Right,0,80,120,1241.75,0.239583,Sixteenth,G#5
6956,Right,0,81,120,1242.0,0.239583,Sixteenth,A5
6953,Left,1,45,120,1242.0,0.489583,Eighth,F#2_D3_C3_A2
6958,Right,0,80,120,1242.25,0.239583,Sixteenth,G#5
6963,Right,0,81,120,1242.5,0.239583,Sixteenth,A5
6959,Left,1,50,120,1242.5,0.489583,Eighth,F#2_D3_C3_A2
6964,Right,0,83,120,1242.75,0.239583,Sixteenth,B5
6965,Right,0,84,120,1243.0,0.239583,Sixteenth,C6
6966,Right,0,83,120,1243.25,0.239583,Sixteenth,B5
6971,Right,0,84,120,1243.5,0.239583,Sixteenth,C6
6967,Left,1,42,120,1243.5,0.489583,Eighth,F#2_D3_C3_A2
6972,Right,0,81,120,1243.75,0.239583,Sixteenth,A5
6974,Left,1,43,120,1244.0,0.239583,Sixteenth,G2
6973,Right,0,67,120,1244.0,0.489583,Eighth,G5_G4
6976,Left,1,48,120,1244.25,0.239583,Sixteenth,C3
6979,Left,1,52,120,1244.5,0.239583,Sixteenth,E3
6977,Right,0,79,120,1244.5,0.489583,Eighth,G5_G4
6980,Left,1,55,120,1244.75,0.239583,Sixteenth,G3
6981,Right,0,64,120,1245.0,0.489583,Eighth,E5_E4
6982,Left,1,43,120,1245.0,0.239583,Sixteenth,G2
6984,Left,1,48,120,1245.25,0.239583,Sixteenth,C3
6986,Right,0,72,120,1245.5,0.489583,Eighth,C5_C4
6985,Left,1,52,120,1245.5,0.239583,Sixteenth,E3
6988,Left,1,55,120,1245.75,0.239583,Sixteenth,G3
6989,Right,0,72,120,1246.0,0.489583,Eighth,C6_C5
6990,Left,1,43,120,1246.0,0.239583,Sixteenth,G2
6992,Left,1,48,120,1246.25,0.239583,Sixteenth,C3
6994,Left,1,52,120,1246.5,0.239583,Sixteenth,E3
6993,Right,0,84,120,1246.5,0.489583,Eighth,C6_C5
6996,Left,1,55,120,1246.75,0.239583,Sixteenth,G3
6997,Right,0,79,120,1247.0,0.489583,Eighth,G5_G4
6999,Left,1,43,120,1247.0,0.239583,Sixteenth,G2
7000,Left,1,48,120,1247.25,0.239583,Sixteenth,C3
7001,Left,1,52,120,1247.5,0.239583,Sixteenth,E3
7002,Right,0,76,120,1247.5,0.489583,Eighth,E5_E4
7004,Left,1,55,120,1247.75,0.239583,Sixteenth,G3
7007,Left,1,43,120,1248.0,0.239583,Sixteenth,G2
7005,Right,0,67,120,1248.0,0.489583,Eighth,G5_G4
7008,Left,1,48,120,1248.25,0.239583,Sixteenth,C3
7009,Left,1,52,120,1248.5,0.239583,Sixteenth,E3
7010,Right,0,79,120,1248.5,0.489583,Eighth,G5_G4
7012,Left,1,55,120,1248.75,0.239583,Sixteenth,G3
7013,Left,1,43,120,1249.0,0.239583,Sixteenth,G2
7014,Right,0,76,120,1249.0,0.489583,Eighth,E5_E4
7016,Left,1,48,120,1249.25,0.239583,Sixteenth,C3
7019,Left,1,52,120,1249.5,0.239583,Sixteenth,E3
7017,Right,0,60,120,1249.5,0.489583,Eighth,C5_C4
7020,Left,1,55,120,1249.75,0.239583,Sixteenth,G3
7023,Left,1,52,120,1250.0,0.489583,Eighth,E3
7021,Right,0,84,120,1250.0,0.489583,Eighth,C6_C5
7026,Left,1,52,120,1250.5,0.489583,Eighth,E3
7024,Right,0,72,120,1250.5,0.489583,Eighth,C6_C5
7029,Left,1,48,120,1251.0,0.489583,Eighth,C3
7027,Right,0,79,120,1251.0,0.489583,Eighth,G5_G4
7032,Left,1,43,120,1251.5,0.489583,Eighth,G2
7030,Right,0,64,120,1251.5,0.489583,Eighth,E5_E4
7033,Left,1,55,120,1252.0,0.489583,Eighth,G3
7034,Right,0,84,80,1252.25,0.239583,Sixteenth,C6
7035,Left,1,52,80,1252.5,0.489583,Eighth,E3
7036,Right,0,88,80,1252.5,0.239583,Sixteenth,E6
7037,Right,0,84,80,1252.75,0.239583,Sixteenth,C6
7039,Left,1,60,80,1253.0,0.489583,Eighth,C4
7038,Right,0,91,80,1253.0,0.239583,Sixteenth,G6
7040,Right,0,88,80,1253.25,0.239583,Sixteenth,E6
7042,Left,1,55,80,1253.5,0.489583,Eighth,G3
7041,Right,0,91,80,1253.5,0.239583,Sixteenth,G6
7043,Right,0,88,80,1253.75,0.239583,Sixteenth,E6
7045,Right,0,91,80,1254.0,0.239583,Sixteenth,G6
7044,Left,1,64,80,1254.0,0.489583,Eighth,E4
7046,Right,0,88,80,1254.25,0.239583,Sixteenth,E6
7047,Right,0,91,80,1254.5,0.239583,Sixteenth,G6
7048,Left,1,60,80,1254.5,0.489583,Eighth,C4
7049,Right,0,88,80,1254.75,0.239583,Sixteenth,E6
7051,Right,0,91,80,1255.0,0.239583,Sixteenth,G6
7050,Left,1,67,80,1255.0,0.489583,Eighth,G4
7052,Right,0,88,80,1255.25,0.239583,Sixteenth,E6
7054,Right,0,91,80,1255.5,0.239583,Sixteenth,G6
7053,Left,1,64,80,1255.5,0.489583,Eighth,E4
7055,Right,0,88,80,1255.75,0.239583,Sixteenth,E6
7056,Right,0,91,80,1256.0,0.239583,Sixteenth,G6
7057,Left,1,72,80,1256.0,0.489583,Eighth,C5
7058,Right,0,88,80,1256.25,0.239583,Sixteenth,E6
7060,Left,1,67,80,1256.5,0.489583,Eighth,G4
7059,Right,0,91,80,1256.5,0.239583,Sixteenth,G6
7061,Right,0,88,80,1256.75,0.239583,Sixteenth,E6
7062,Left,1,76,80,1257.0,0.489583,Eighth,E5
7063,Right,0,91,80,1257.0,0.239583,Sixteenth,G6
7064,Right,0,88,80,1257.25,0.239583,Sixteenth,E6
7066,Left,1,72,80,1257.5,0.489583,Eighth,C5
7065,Right,0,91,80,1257.5,0.239583,Sixteenth,G6
7067,Right,0,88,80,1257.75,0.239583,Sixteenth,E6
7068,Left,1,79,80,1258.0,0.489583,Eighth,G5
7069,Right,0,91,80,1258.0,0.239583,Sixteenth,G6
7070,Right,0,88,80,1258.25,0.239583,Sixteenth,E6
7071,Left,1,76,80,1258.5,0.489583,Eighth,E5
7072,Right,0,91,80,1258.5,0.239583,Sixteenth,G6
7073,Right,0,88,80,1258.75,0.239583,Sixteenth,E6
7074,Left,1,84,80,1259.0,0.489583,Eighth,C6
7075,Right,0,91,80,1259.0,0.239583,Sixteenth,G6
7076,Right,0,88,80,1259.25,0.239583,Sixteenth,E6
7077,Right,0,91,80,1259.5,0.239583,Sixteenth,G6
7078,Left,1,79,80,1259.5,0.489583,Eighth,G5
7079,Right,0,88,80,1259.75,0.239583,Sixteenth,E6
7080,Left,1,83,80,1260.0,0.489583,Eighth,B5
7081,Right,0,89,80,1260.25,0.239583,Sixteenth,F6
7082,Right,0,91,79,1260.5,0.239583,Sixteenth,G6
7083,Left,1,79,79,1260.5,0.489583,Eighth,G5
7084,Right,0,89,79,1260.75,0.239583,Sixteenth,F6
7085,Left,1,83,78,1261.0,0.489583,Eighth,B5
7086,Right,0,92,78,1261.0,0.239583,Sixteenth,G#6
7087,Right,0,89,77,1261.25,0.239583,Sixteenth,F6
7088,Left,1,79,77,1261.5,0.489583,Eighth,G5
7089,Right,0,91,77,1261.5,0.239583,Sixteenth,G6
7090,Right,0,89,76,1261.75,0.239583,Sixteenth,F6
7092,Left,1,83,75,1262.0,0.489583,Eighth,B5
7091,Right,0,92,75,1262.0,0.239583,Sixteenth,G#6
7093,Right,0,89,75,1262.25,0.239583,Sixteenth,F6
7094,Right,0,91,74,1262.5,0.239583,Sixteenth,G6
7095,Left,1,79,74,1262.5,0.489583,Eighth,G5
7096,Right,0,89,73,1262.75,0.239583,Sixteenth,F6
7098,Left,1,83,73,1263.0,0.489583,Eighth,B5
7097,Right,0,92,73,1263.0,0.239583,Sixteenth,G#6
7099,Right,0,89,72,1263.25,0.239583,Sixteenth,F6
7100,Left,1,79,71,1263.5,0.489583,Eighth,G5
7101,Right,0,91,71,1263.5,0.239583,Sixteenth,G6
7102,Right,0,89,71,1263.75,0.239583,Sixteenth,F6
7103,Left,1,83,70,1264.0,0.489583,Eighth,B5
7104,Right,0,92,70,1264.0,0.239583,Sixteenth,G#6
7105,Right,0,89,70,1264.25,0.239583,Sixteenth,F6
7107,Right,0,91,70,1264.5,0.239583,Sixteenth,G6
7106,Left,1,79,70,1264.5,0.489583,Eighth,G5
7108,Right,0,89,70,1264.75,0.239583,Sixteenth,F6
7110,Right,0,92,70,1265.0,0.239583,Sixteenth,G#6
7109,Left,1,83,70,1265.0,0.489583,Eighth,B5
7111,Right,0,89,70,1265.25,0.239583,Sixteenth,F6
7112,Right,0,91,70,1265.5,0.239583,Sixteenth,G6
7113,Left,1,79,70,1265.5,0.489583,Eighth,G5
7114,Right,0,89,70,1265.75,0.239583,Sixteenth,F6
7116,Right,0,92,70,1266.0,0.239583,Sixteenth,G#6
7115,Left,1,83,70,1266.0,0.489583,Eighth,B5
7117,Right,0,89,70,1266.25,0.239583,Sixteenth,F6
7119,Right,0,91,70,1266.5,0.239583,Sixteenth,G6
7118,Left,1,79,70,1266.5,0.489583,Eighth,G5
7120,Right,0,89,70,1266.75,0.239583,Sixteenth,F6
7122,Right,0,92,70,1267.0,0.239583,Sixteenth,G#6
7121,Left,1,83,70,1267.0,0.489583,Eighth,B5
7123,Right,0,89,70,1267.25,0.239583,Sixteenth,F6
7125,Left,1,79,70,1267.5,0.489583,Eighth,G5
7124,Right,0,91,70,1267.5,0.239583,Sixteenth,G6
7126,Right,0,89,70,1267.75,0.239583,Sixteenth,F6
7128,Right,0,93,70,1268.0,0.239583,Sixteenth,A6
7127,Left,1,83,70,1268.0,0.21875,Sixteenth,B5
7129,Left,1,84,70,1268.125,0.229167,Sixteenth,C6
7131,Left,1,83,71,1268.25,0.208333,Sixteenth,B5
7130,Right,0,89,71,1268.25,0.239583,Sixteenth,F6
7132,Left,1,84,71,1268.375,0.208333,Sixteenth,C6
7133,Right,0,91,72,1268.5,0.239583,Sixteenth,G6
7134,Left,1,83,72,1268.5,0.21875,Sixteenth,B5
7135,Left,1,84,73,1268.625,0.229167,Sixteenth,C6
7137,Right,0,89,73,1268.75,0.239583,Sixteenth,F6
7136,Left,1,83,73,1268.75,0.208333,Sixteenth,B5
7138,Left,1,84,74,1268.875,0.208333,Sixteenth,C6
7139,Right,0,93,75,1269.0,0.239583,Sixteenth,A6
7140,Left,1,83,75,1269.0,0.21875,Sixteenth,B5
7141,Left,1,84,75,1269.125,0.229167,Sixteenth,C6
7142,Left,1,83,76,1269.25,0.208333,Sixteenth,B5
7143,Right,0,89,76,1269.25,0.239583,Sixteenth,F6
7144,Left,1,84,77,1269.375,0.208333,Sixteenth,C6
7145,Right,0,91,77,1269.5,0.239583,Sixteenth,G6
7146,Left,1,83,77,1269.5,0.21875,Sixteenth,B5
7147,Left,1,84,78,1269.625,0.229167,Sixteenth,C6
7148,Left,1,83,78,1269.75,0.208333,Sixteenth,B5
7149,Right,0,89,78,1269.75,0.239583,Sixteenth,F6
7150,Left,1,84,79,1269.875,0.208333,Sixteenth,C6
7152,Left,1,83,80,1270.0,0.21875,Sixteenth,B5
7151,Right,0,93,80,1270.0,0.239583,Sixteenth,A6
7153,Left,1,84,80,1270.125,0.229167,Sixteenth,C6
7154,Left,1,83,81,1270.25,0.208333,Sixteenth,B5
7155,Right,0,89,81,1270.25,0.239583,Sixteenth,F6
7156,Left,1,84,82,1270.375,0.208333,Sixteenth,C6
7157,Left,1,83,82,1270.5,0.21875,Sixteenth,B5
7158,Right,0,91,82,1270.5,0.239583,Sixteenth,G6
7159,Left,1,84,83,1270.625,0.229167,Sixteenth,C6
7160,Left,1,83,84,1270.75,0.208333,Sixteenth,B5
7161,Right,0,89,84,1270.75,0.239583,Sixteenth,F6
7162,Left,1,84,84,1270.875,0.208333,Sixteenth,C6
7163,Left,1,83,85,1271.0,0.21875,Sixteenth,B5
7164,Right,0,93,85,1271.0,0.239583,Sixteenth,A6
7165,Left,1,84,85,1271.125,0.229167,Sixteenth,C6
7166,Right,0,89,86,1271.25,0.239583,Sixteenth,F6
7167,Left,1,83,86,1271.25,0.208333,Sixteenth,B5
7168,Left,1,84,87,1271.375,0.208333,Sixteenth,C6
7169,Right,0,91,87,1271.5,0.239583,Sixteenth,G6
7170,Left,1,83,87,1271.5,0.21875,Sixteenth,B5
7171,Left,1,84,88,1271.625,0.229167,Sixteenth,C6
7173,Right,0,89,89,1271.75,0.239583,Sixteenth,F6
7172,Left,1,83,89,1271.75,0.208333,Sixteenth,B5
7174,Left,1,84,89,1271.875,0.208333,Sixteenth,C6
7175,Left,1,83,90,1272.0,0.21875,Sixteenth,B5
7176,Right,0,93,90,1272.0,0.489583,Eighth,A6
7177,Left,1,84,91,1272.125,0.229167,Sixteenth,C6
7178,Left,1,83,91,1272.25,0.208333,Sixteenth,B5
7179,Left,1,84,92,1272.375,0.208333,Sixteenth,C6
7180,Right,0,89,93,1272.5,0.489583,Eighth,G6_F6
7181,Left,1,83,93,1272.5,0.21875,Sixteenth,B5
7183,Left,1,84,93,1272.625,0.229167,Sixteenth,C6
7184,Left,1,83,94,1272.75,0.208333,Sixteenth,B5
7185,Left,1,84,94,1272.875,0.208333,Sixteenth,C6
7188,Left,1,83,95,1273.0,0.21875,Sixteenth,B5
7186,Right,0,91,95,1273.0,0.489583,Eighth,G6_F6
7189,Left,1,84,96,1273.125,0.229167,Sixteenth,C6
7190,Left,1,83,96,1273.25,0.208333,Sixteenth,B5
7191,Left,1,84,97,1273.375,0.208333,Sixteenth,C6
7193,Right,0,91,98,1273.5,0.489583,Eighth,G6_F6
7192,Left,1,83,98,1273.5,0.21875,Sixteenth,B5
7195,Left,1,84,98,1273.625,0.229167,Sixteenth,C6
7196,Left,1,83,99,1273.75,0.208333,Sixteenth,B5
7197,Left,1,84,100,1273.875,0.208333,Sixteenth,C6
7198,Right,0,89,100,1274.0,0.489583,Eighth,G6_F6
7200,Left,1,83,100,1274.0,0.21875,Sixteenth,B5
7201,Left,1,84,101,1274.125,0.229167,Sixteenth,C6
7202,Left,1,83,101,1274.25,0.208333,Sixteenth,B5
7203,Left,1,84,102,1274.375,0.208333,Sixteenth,C6
7206,Left,1,83,103,1274.5,0.21875,Sixteenth,B5
7204,Right,0,89,103,1274.5,0.489583,Eighth,G6_F6
7207,Left,1,84,103,1274.625,0.229167,Sixteenth,C6
7208,Left,1,83,104,1274.75,0.208333,Sixteenth,B5
7209,Left,1,84,105,1274.875,0.208333,Sixteenth,C6
7212,Left,1,83,105,1275.0,0.21875,Sixteenth,B5
7210,Right,0,91,105,1275.0,0.489583,Eighth,G6_F6
7213,Left,1,84,106,1275.125,0.229167,Sixteenth,C6
7214,Left,1,83,107,1275.25,0.208333,Sixteenth,B5
7215,Left,1,84,107,1275.375,0.208333,Sixteenth,C6
7216,Left,1,83,108,1275.5,0.21875,Sixteenth,B5
7217,Right,0,91,108,1275.5,0.489583,Eighth,G6_F6
7219,Left,1,84,109,1275.625,0.229167,Sixteenth,C6
7220,Left,1,81,109,1275.75,0.208333,Sixteenth,A5
7221,Left,1,83,110,1275.875,0.114583,ThirtySecond,B5
7224,Right,0,84,110,1276.0,2.989583,DottedHalf,C6
7222,Left,1,72,110,1276.0,7.989583,Half,C5_C4
7225,Left,1,70,80,1278.0,1.989583,Half,G4_E4_A#4
7228,Right,0,84,80,1279.0,0.239583,Sixteenth,C6
7229,Right,0,82,80,1279.25,0.239583,Sixteenth,A#5
7230,Right,0,80,80,1279.5,0.239583,Sixteenth,G#5
7231,Right,0,79,80,1279.75,0.239583,Sixteenth,G5
7232,Right,0,80,80,1280.0,0.239583,Sixteenth,G#5
7233,Left,1,68,80,1280.0,1.989583,Half,G#4_F4
7235,Right,0,79,80,1280.25,0.239583,Sixteenth,G5
7236,Right,0,77,80,1280.5,0.239583,Sixteenth,F5
7237,Right,0,76,80,1280.75,0.239583,Sixteenth,E5
7238,Right,0,77,80,1281.0,0.239583,Sixteenth,F5
7239,Right,0,79,80,1281.25,0.239583,Sixteenth,G5
7240,Right,0,80,80,1281.5,0.239583,Sixteenth,G#5
7241,Right,0,82,80,1281.75,0.239583,Sixteenth,A#5
7242,Left,1,64,80,1282.0,1.989583,Half,G4_E4_A#4
7244,Right,0,84,80,1282.0,0.239583,Sixteenth,C6
7246,Right,0,85,80,1282.25,0.239583,Sixteenth,C#6
7247,Right,0,84,80,1282.5,0.239583,Sixteenth,C6
7248,Right,0,83,80,1282.75,0.239583,Sixteenth,B5
7249,Right,0,84,80,1283.0,0.239583,Sixteenth,C6
7250,Right,0,82,80,1283.25,0.239583,Sixteenth,A#5
7251,Right,0,80,80,1283.5,0.239583,Sixteenth,G#5
7252,Right,0,79,80,1283.75,0.239583,Sixteenth,G5
7253,Left,1,68,80,1284.0,0.989583,Quarter,G#4_F4
7255,Right,0,80,80,1284.0,0.239583,Sixteenth,G#5
7256,Right,0,82,80,1284.25,0.239583,Sixteenth,A#5
7257,Right,0,80,80,1284.5,0.239583,Sixteenth,G#5
7258,Right,0,79,80,1284.75,0.239583,Sixteenth,G5
7259,Right,0,77,80,1285.0,0.239583,Sixteenth,F5
7260,Right,0,76,80,1285.25,0.239583,Sixteenth,E5
7261,Right,0,77,80,1285.5,0.239583,Sixteenth,F5
7262,Right,0,79,80,1285.75,0.239583,Sixteenth,G5
7265,Right,0,68,80,1286.0,1.989583,Half,G#5_G#4
7263,Left,1,56,80,1286.0,1.989583,Half,G#3_F4_F3_C#4
7269,Right,0,77,80,1287.0,0.489583,Eighth,F5
7270,Right,0,73,80,1287.5,0.489583,Eighth,C#5
7274,Right,0,79,80,1288.0,1.989583,Quarter,G5_G4
7271,Left,1,60,80,1288.0,1.989583,Half,G3_D#4_C4
7276,Right,0,75,80,1289.0,0.489583,Eighth,D#5
7277,Right,0,72,80,1289.5,0.489583,Eighth,C5
7279,Left,1,62,80,1290.0,1.989583,Half,G3_D4_B3
7278,Right,0,65,80,1290.0,1.989583,Half,F5_F4
7283,Right,0,74,80,1291.0,0.489583,Eighth,D5
7284,Right,0,71,80,1291.5,0.489583,Eighth,B4
7286,Left,1,48,110,1292.0,7.989583,Unknown,C4_C3
7285,Right,0,72,110,1292.0,2.989583,DottedHalf,C5
7288,Left,1,52,80,1294.0,1.989583,Half,G3_E3_A#3
7291,Right,0,72,80,1295.0,0.239583,Sixteenth,C5
7292,Right,0,70,80,1295.25,0.239583,Sixteenth,A#4
7293,Right,0,69,80,1295.5,0.239583,Sixteenth,A4
7294,Right,0,67,80,1295.75,0.239583,Sixteenth,G4
7295,Right,0,69,80,1296.0,0.239583,Sixteenth,A4
7296,Left,1,57,80,1296.0,1.989583,Half,F3_A3
7298,Right,0,67,80,1296.25,0.239583,Sixteenth,G4
7299,Right,0,65,80,1296.5,0.239583,Sixteenth,F4
7300,Right,0,64,80,1296.75,0.239583,Sixteenth,E4
7301,Right,0,65,80,1297.0,0.239583,Sixteenth,F4
7302,Right,0,67,80,1297.25,0.239583,Sixteenth,G4
7303,Right,0,69,80,1297.5,0.239583,Sixteenth,A4
7304,Right,0,70,80,1297.75,0.239583,Sixteenth,A#4
7307,Right,0,72,80,1298.0,0.239583,Sixteenth,C5
7305,Left,1,55,80,1298.0,1.989583,Half,G3_E3_A#3
7309,Right,0,74,80,1298.25,0.239583,Sixteenth,D5
7310,Right,0,72,80,1298.5,0.239583,Sixteenth,C5
7311,Right,0,71,80,1298.75,0.239583,Sixteenth,B4
7312,Right,0,72,80,1299.0,0.239583,Sixteenth,C5
7313,Right,0,70,80,1299.25,0.239583,Sixteenth,A#4
7314,Right,0,69,80,1299.5,0.239583,Sixteenth,A4
7315,Right,0,67,80,1299.75,0.239583,Sixteenth,G4
7316,Right,0,69,80,1300.0,0.239583,Sixteenth,A4
7317,Left,1,53,80,1300.0,0.989583,Quarter,F3_A3
7319,Right,0,70,80,1300.25,0.239583,Sixteenth,A#4
7320,Right,0,69,80,1300.5,0.239583,Sixteenth,A4
7321,Right,0,67,80,1300.75,0.239583,Sixteenth,G4
7322,Right,0,65,80,1301.0,0.239583,Sixteenth,F4
7323,Right,0,64,80,1301.25,0.239583,Sixteenth,E4
7324,Right,0,65,80,1301.5,0.239583,Sixteenth,F4
7325,Right,0,67,80,1301.75,0.239583,Sixteenth,G4
7330,Right,0,57,80,1302.0,1.989583,Half,A4_A3
7326,Left,1,41,80,1302.0,1.989583,Half,F3_F2_D3_A2
7332,Right,0,65,80,1303.0,0.489583,Eighth,F4
7333,Right,0,62,80,1303.5,0.489583,Eighth,D4
7336,Left,1,52,80,1304.0,3.989583,Half,G2_E3_C3
7334,Right,0,67,80,1304.0,3.989583,Quarter,G4_G3
7339,Right,0,64,80,1305.0,0.489583,Eighth,E4
7340,Right,0,60,80,1305.5,0.489583,Eighth,C4
7342,Left,1,47,80,1306.0,1.989583,Half,D3_B2
7341,Right,0,65,80,1306.0,0.989583,Quarter,F4
7344,Right,0,62,80,1307.0,0.489583,Eighth,D4
7345,Right,0,59,80,1307.5,0.489583,Eighth,B3
7346,Left,1,48,80,1308.0,0.989583,Quarter,E3_C3
7348,Right,0,60,80,1308.0,0.989583,Quarter,G3_C4
7350,Left,1,48,80,1309.0,1.489583,DottedQuarter,E2_C3
7352,Right,0,72,80,1309.0,0.489583,Eighth,C5
7353,Right,0,71,80,1309.5,0.489583,Eighth,B4
7354,Left,1,41,80,1310.0,1.989583,Half,F2
7355,Right,0,69,80,1310.0,0.989583,Quarter,A4
7356,Left,1,50,80,1310.5,0.489583,Eighth,D3
7358,Left,1,52,80,1311.0,0.489583,Eighth,E3
7357,Right,0,65,80,1311.0,0.489583,Eighth,F4
7359,Right,0,62,80,1311.5,0.489583,Eighth,D4
7360,Left,1,53,80,1311.5,0.489583,Eighth,F3
7361,Right,0,67,80,1312.0,0.989583,Quarter,G4
7362,Left,1,52,80,1312.0,1.989583,Half,G3_E3
7364,Right,0,64,80,1313.0,0.489583,Eighth,E4
7365,Right,0,60,80,1313.5,0.489583,Eighth,C4
7366,Right,0,65,80,1314.0,0.989583,Quarter,F4
7367,Left,1,53,80,1314.0,1.989583,Half,F3_D3
7369,Right,0,62,80,1315.0,0.489583,Eighth,D4
7370,Right,0,59,80,1315.5,0.489583,Eighth,B3
7373,Right,0,60,80,1316.0,0.989583,Quarter,C4
7371,Left,1,52,80,1316.0,0.989583,Quarter,E3_C3
7374,Right,0,77,80,1317.0,0.489583,Eighth,F5
7375,Left,1,53,80,1317.0,1.489583,DottedQuarter,F3_A2
7377,Right,0,76,80,1317.5,0.489583,Eighth,E5
7379,Right,0,74,80,1318.0,0.989583,Quarter,D5
7378,Left,1,46,80,1318.0,1.989583,Half,A#2
7380,Left,1,55,80,1318.5,0.489583,Eighth,G3
7382,Right,0,70,80,1319.0,0.489583,Eighth,A#4
7381,Left,1,57,80,1319.0,0.489583,Eighth,A3
7384,Left,1,58,80,1319.5,0.489583,Eighth,A#3
7383,Right,0,67,80,1319.5,0.489583,Eighth,G4
7388,Right,0,72,80,1320.0,0.989583,Quarter,C5
7385,Left,1,48,80,1320.0,3.989583,Half,C4_C3_A3
7389,Right,0,69,80,1321.0,0.489583,Eighth,A4
7390,Right,0,65,80,1321.5,0.489583,Eighth,F4
7391,Left,1,55,80,1322.0,1.989583,Half,G3_A#3
7393,Right,0,70,80,1322.0,0.989583,Quarter,A#4
7394,Right,0,67,80,1323.0,0.489583,Eighth,G4
7395,Right,0,64,80,1323.5,0.489583,Eighth,E4
7397,Left,1,53,80,1324.0,0.989583,Quarter,G#3_F3
7396,Right,0,65,80,1324.0,0.989583,Quarter,F4
7400,Left,1,53,80,1325.0,1.489583,DottedQuarter,G#2_F3
7399,Right,0,77,80,1325.0,0.489583,Eighth,F5
7402,Right,0,75,80,1325.5,0.489583,Eighth,D#5
7404,Left,1,46,80,1326.0,1.989583,Half,A#2
7403,Right,0,73,80,1326.0,0.989583,Quarter,C#5
7405,Left,1,55,80,1326.5,0.489583,Eighth,G3
7406,Left,1,56,80,1327.0,0.489583,Eighth,G#3
7407,Right,0,70,80,1327.0,0.489583,Eighth,A#4
7409,Right,0,67,80,1327.5,0.489583,Eighth,G4
7408,Left,1,58,80,1327.5,0.489583,Eighth,A#3
7413,Right,0,72,80,1328.0,0.989583,Quarter,C5
7410,Left,1,60,80,1328.0,3.989583,Half,G#3_C4_C3
7414,Right,0,68,80,1329.0,0.489583,Eighth,G#4
7415,Right,0,65,80,1329.5,0.489583,Eighth,F4
7416,Right,0,70,80,1330.0,0.989583,Quarter,A#4
7417,Left,1,55,80,1330.0,1.989583,Half,G3_A#3
7419,Right,0,67,80,1331.0,0.489583,Eighth,G4
7420,Right,0,64,80,1331.5,0.489583,Eighth,E4
7424,Right,0,65,80,1332.0,0.489583,Eighth,F4
7421,Left,1,49,80,1332.0,0.489583,Eighth,G#3_F3_C#3
7425,Left,1,37,80,1332.5,0.489583,Eighth,G#2_C#2
7426,Right,0,49,80,1332.5,0.489583,Eighth,F3_C#3
7429,Right,0,53,80,1333.0,0.489583,Eighth,F3_C#3
7431,Left,1,44,80,1333.0,0.489583,Eighth,G#2_C#2
7435,Left,1,44,80,1333.5,0.489583,Eighth,G#2_C#2
7433,Right,0,49,80,1333.5,0.489583,Eighth,F3_C#3
7437,Left,1,44,80,1334.0,0.489583,Eighth,G#2_C#2
7438,Right,0,49,80,1334.0,0.489583,Eighth,F3_C#3
7443,Right,0,53,80,1334.5,0.489583,Eighth,F3_C#3
7441,Left,1,37,80,1334.5,0.489583,Eighth,G#2_C#2
7447,Right,0,49,80,1335.0,0.489583,Eighth,F3_C#3
7445,Left,1,37,80,1335.0,0.489583,Eighth,G#2_C#2
7451,Right,0,53,80,1335.5,0.489583,Eighth,F3_C#3
7449,Left,1,37,80,1335.5,0.489583,Eighth,G#2_C#2
7455,Right,0,53,80,1336.0,0.489583,Eighth,F3_C#3
7453,Left,1,37,80,1336.0,0.489583,Eighth,G#2_C#2
7459,Left,1,44,80,1336.5,0.489583,Eighth,G#2_C#2
7457,Right,0,53,80,1336.5,0.489583,Eighth,F3_C#3
7461,Right,0,53,80,1337.0,0.489583,Eighth,F3_C#3
7463,Left,1,44,80,1337.0,0.489583,Eighth,G#2_C#2
7467,Left,1,37,80,1337.5,0.489583,Eighth,G#2_C#2
7465,Right,0,53,80,1337.5,0.489583,Eighth,F3_C#3
7470,Left,1,44,80,1338.0,0.489583,Eighth,G#2_C#2
7469,Right,0,53,80,1338.0,0.489583,Eighth,F3_C#3
7474,Left,1,37,80,1338.5,0.489583,Eighth,G#2_C#2
7473,Right,0,53,80,1338.5,0.489583,Eighth,F3_C#3
7479,Left,1,46,80,1339.0,0.489583,Eighth,C#2_A#2
7477,Right,0,55,80,1339.0,0.489583,Eighth,G3_D#3
7481,Left,1,37,80,1339.5,0.489583,Eighth,C#2_A#2
7483,Right,0,55,80,1339.5,0.489583,Eighth,G3_D#3
7485,Left,1,36,80,1340.0,0.489583,Eighth,G#2_D#2_C2
7488,Right,0,56,80,1340.0,1.489583,DottedQuarter,G#3_D#3
7490,Left,1,44,80,1340.5,0.489583,Eighth,G#2_D#2_C2
7493,Left,1,44,80,1341.0,0.489583,Eighth,G#2_D#2_C2
7496,Right,0,60,80,1341.5,0.239583,Sixteenth,C4
7497,Left,1,39,80,1341.5,0.489583,Eighth,G#2_D#2_C2
7500,Right,0,58,80,1341.75,0.239583,Sixteenth,A#3
7501,Left,1,39,80,1342.0,0.489583,Eighth,G#2_D#2_C2
7504,Right,0,56,80,1342.0,0.489583,Eighth,G#3
7505,Left,1,39,80,1342.5,0.489583,Eighth,G#2_D#2_C2
7508,Left,1,36,80,1343.0,0.489583,Eighth,G#2_D#2_C2
7511,Left,1,39,80,1343.5,0.489583,Eighth,G#2_D#2_C2
7515,Left,1,41,110,1344.0,0.489583,Eighth,F2_D#2_C2_A2
7514,Right,0,86,110,1344.0,0.114583,ThirtySecond,D6
7519,Right,0,87,110,1344.125,1.114583,TiedQuarter-ThirtySecond,D#6
7520,Left,1,45,110,1344.5,0.489583,Eighth,F2_D#2_C2_A2
7524,Left,1,45,110,1345.0,0.489583,Eighth,F2_D#2_C2_A2
7528,Right,0,85,110,1345.25,0.239583,Sixteenth,C#6
7530,Right,0,84,110,1345.5,0.239583,Sixteenth,C6
7529,Left,1,45,110,1345.5,0.489583,Eighth,F2_D#2_C2_A2
7534,Right,0,82,110,1345.75,0.239583,Sixteenth,A#5
7535,Left,1,41,110,1346.0,0.489583,Eighth,F2_D#2_C2_A2
7539,Right,0,81,110,1346.0,0.989583,Quarter,A5
7540,Left,1,36,110,1346.5,0.489583,Eighth,F2_D#2_C2_A2
7544,Left,1,36,110,1347.0,0.489583,Eighth,F2_D#2_C2_A2
7548,Left,1,36,110,1347.5,0.489583,Eighth,F2_D#2_C2_A2
7552,Left,1,41,80,1348.0,0.489583,Eighth,F2_C#2_A#2
7554,Right,0,58,80,1348.0,1.489583,DottedQuarter,A#3
7556,Left,1,37,80,1348.5,0.489583,Eighth,F2_C#2_A#2
7559,Left,1,37,80,1349.0,0.489583,Eighth,F2_C#2_A#2
7565,Right,0,61,80,1349.5,0.239583,Sixteenth,C#4
7562,Left,1,37,80,1349.5,0.489583,Eighth,F2_C#2_A#2
7566,Right,0,60,80,1349.75,0.239583,Sixteenth,C4
7567,Right,0,58,80,1350.0,0.489583,Eighth,A#3
7568,Left,1,46,80,1350.0,0.489583,Eighth,F2_C#2_A#2
7571,Left,1,37,80,1350.5,0.489583,Eighth,F2_C#2_A#2
7574,Left,1,37,80,1351.0,0.489583,Eighth,F2_C#2_A#2
7577,Left,1,37,80,1351.5,0.489583,Eighth,F2_C#2_A#2
7583,Right,0,88,110,1352.0,0.114583,ThirtySecond,E6
7580,Left,1,41,110,1352.0,0.489583,Eighth,F2_D2_B2
7584,Right,0,89,110,1352.125,1.114583,TiedQuarter-ThirtySecond,F6
7585,Left,1,38,110,1352.5,0.489583,Eighth,F2_D2_B2
7588,Left,1,38,110,1353.0,0.489583,Eighth,F2_D2_B2
7591,Right,0,87,110,1353.25,0.239583,Sixteenth,D#6
7592,Left,1,41,110,1353.5,0.489583,Eighth,F2_D2_B2
7595,Right,0,86,110,1353.5,0.239583,Sixteenth,D6
7596,Right,0,84,110,1353.75,0.239583,Sixteenth,C6
7598,Left,1,38,110,1354.0,0.489583,Eighth,F2_D2_B2
7597,Right,0,83,110,1354.0,0.989583,Quarter,B5
7601,Left,1,38,110,1354.5,0.489583,Eighth,F2_D2_B2
7604,Left,1,38,110,1355.0,0.489583,Eighth,F2_D2_B2
7607,Left,1,38,110,1355.5,0.489583,Eighth,F2_D2_B2
7610,Left,1,39,110,1356.0,0.489583,Eighth,G2_D#2_B2
7611,Right,0,60,110,1356.0,0.489583,Eighth,C4
7617,Right,0,63,110,1356.5,0.239583,Sixteenth,D#4
7614,Left,1,43,110,1356.5,0.489583,Eighth,G2_D#2_B2
7618,Right,0,62,110,1356.75,0.239583,Sixteenth,D4
7619,Right,0,60,110,1357.0,0.489583,Eighth,C4
7620,Left,1,48,110,1357.0,0.489583,Eighth,G2_D#2_C3
7623,Left,1,48,110,1357.5,0.489583,Eighth,G2_D#2_C3
7627,Left,1,48,110,1358.0,0.489583,Eighth,G#2_F2_C3
7626,Right,0,80,110,1358.0,0.239583,Sixteenth,G#5
7630,Right,0,79,110,1358.25,0.239583,Sixteenth,G5
7631,Left,1,48,110,1358.5,0.489583,Eighth,G#2_F2_C3
7633,Right,0,77,110,1358.5,0.239583,Sixteenth,F5
7635,Right,0,75,110,1358.75,0.239583,Sixteenth,D#5
7637,Left,1,41,110,1359.0,0.489583,Eighth,G#2_F2_D3
7636,Right,0,74,110,1359.0,0.989583,Quarter,D5
7640,Left,1,41,110,1359.5,0.489583,Eighth,G#2_F2_D3
7643,Left,1,46,110,1360.0,0.489583,Eighth,G2_D3_A#2
7645,Right,0,64,110,1360.0,0.489583,Eighth,E4
7647,Left,1,46,110,1360.5,0.489583,Eighth,G2_D3_A#2
7648,Right,0,67,110,1360.5,0.239583,Sixteenth,G4
7651,Right,0,65,110,1360.75,0.239583,Sixteenth,F4
7653,Right,0,64,110,1361.0,0.489583,Eighth,E4
7652,Left,1,43,110,1361.0,0.489583,Eighth,G2_E3_A#2
7656,Left,1,43,110,1361.5,0.489583,Eighth,G2_E3_A#2
7659,Left,1,52,110,1362.0,0.489583,Eighth,G#2_E3_C3
7662,Right,0,84,110,1362.0,0.239583,Sixteenth,C6
7663,Right,0,82,110,1362.25,0.239583,Sixteenth,A#5
7664,Right,0,80,110,1362.5,0.239583,Sixteenth,G#5
7665,Left,1,52,110,1362.5,0.489583,Eighth,G#2_E3_C3
7668,Right,0,79,110,1362.75,0.239583,Sixteenth,G5
7670,Left,1,48,110,1363.0,0.489583,Eighth,G#2_F3_C3
7669,Right,0,77,110,1363.0,0.989583,Quarter,F5
7673,Left,1,48,110,1363.5,0.489583,Eighth,G#2_F3_C3
7676,Right,0,87,120,1364.0,0.239583,Sixteenth,D#6
7677,Left,1,54,120,1364.0,0.489583,Eighth,F#3_C3_A2
7680,Right,0,86,120,1364.25,0.239583,Sixteenth,D6
7682,Left,1,54,120,1364.5,0.489583,Eighth,F#3_C3_A2
7681,Right,0,84,120,1364.5,0.239583,Sixteenth,C6
7685,Right,0,83,120,1364.75,0.239583,Sixteenth,B5
7686,Right,0,84,120,1365.0,0.989583,Quarter,C6
7687,Left,1,45,120,1365.0,0.489583,Eighth,F#3_C3_A2
7690,Left,1,45,120,1365.5,0.489583,Eighth,F#3_C3_A2
7693,Left,1,48,120,1366.0,0.489583,Eighth,F#3_C3_A2
7695,Right,0,75,120,1366.0,0.239583,Sixteenth,D#5
7697,Right,0,74,120,1366.25,0.239583,Sixteenth,D5
7699,Left,1,45,120,1366.5,0.489583,Eighth,F#3_C3_A2
7698,Right,0,72,120,1366.5,0.239583,Sixteenth,C5
7702,Right,0,71,120,1366.75,0.239583,Sixteenth,B4
7706,Right,0,72,120,1367.0,0.989583,Quarter,C5
7703,Left,1,45,120,1367.0,0.489583,Eighth,F#3_C3_A2
7707,Left,1,54,120,1367.5,0.489583,Eighth,F#3_C3_A2
7711,Left,1,54,120,1368.0,0.489583,Eighth,G#2_F#3_C3
7710,Right,0,63,120,1368.0,0.239583,Sixteenth,D#4
7714,Right,0,62,120,1368.25,0.239583,Sixteenth,D4
7716,Left,1,54,120,1368.5,0.489583,Eighth,G#2_F#3_C3
7715,Right,0,60,120,1368.5,0.239583,Sixteenth,C4
7719,Right,0,59,120,1368.75,0.239583,Sixteenth,B3
7720,Left,1,54,120,1369.0,0.489583,Eighth,G#2_F#3_C3
7723,Right,0,60,120,1369.0,0.989583,Quarter,C4
7724,Left,1,44,120,1369.5,0.489583,Eighth,G#2_F#3_C3
7727,Right,0,75,120,1370.0,0.239583,Sixteenth,D#5
7728,Left,1,51,120,1370.0,0.489583,Eighth,G#2_D#3_C3
7731,Right,0,74,120,1370.25,0.239583,Sixteenth,D5
7735,Right,0,72,120,1370.5,0.239583,Sixteenth,C5
7732,Left,1,44,120,1370.5,0.489583,Eighth,G#2_D#3_C3
7736,Right,0,71,120,1370.75,0.239583,Sixteenth,B4
7738,Left,1,44,120,1371.0,0.489583,Eighth,G#2_C3
7737,Right,0,72,120,1371.0,0.239583,Sixteenth,C5
7740,Right,0,74,120,1371.25,0.239583,Sixteenth,D5
7743,Right,0,75,120,1371.5,0.239583,Sixteenth,D#5
7741,Left,1,44,120,1371.5,0.489583,Eighth,G#2_C3
7744,Right,0,78,120,1371.75,0.239583,Sixteenth,F#5
7747,Right,0,79,120,1372.0,0.489583,Eighth,G5
7745,Left,1,43,120,1372.0,0.489583,Eighth,G2_B2
7748,Right,0,79,80,1372.5,0.489583,Eighth,G5_G4
7750,Right,0,79,80,1373.0,0.489583,Eighth,G5_G4
7752,Right,0,79,80,1373.5,0.489583,Eighth,G5_G4
7754,Right,0,79,80,1374.0,0.489583,Eighth,G5_G4
7756,Right,0,79,80,1374.5,0.489583,Eighth,G5_G4
7758,Right,0,67,80,1375.0,0.489583,Eighth,G5_G4
7760,Right,0,79,80,1375.5,0.489583,Eighth,G5_G4
7762,Right,0,79,70,1376.0,0.489583,Eighth,G5_G4_C#5_A#4
7766,Right,0,79,75,1376.5,0.489583,Eighth,G5_G4_C#5_A#4
7770,Right,0,67,80,1377.0,0.489583,Eighth,G5_G4_C#5_A#4
7774,Right,0,79,85,1377.5,0.489583,Eighth,G5_G4_C#5_A#4
7778,Right,0,79,90,1378.0,0.489583,Eighth,G5_G4_C#5_A#4
7782,Right,0,79,95,1378.5,0.489583,Eighth,G5_G4_C#5_A#4
7786,Right,0,73,100,1379.0,0.489583,Eighth,G5_G4_C#5_A#4
7790,Right,0,67,105,1379.5,0.489583,Eighth,G5_G4_C#5_A#4
7794,Right,0,67,70,1380.0,0.489583,Eighth,G5_G4_D5_B4
7797,Left,1,50,70,1380.0,0.489583,Eighth,D3_B2
7802,Left,1,50,70,1380.5,0.489583,Eighth,D3_B2
7800,Right,0,91,70,1380.5,0.989583,Quarter,G6_G5
7804,Left,1,50,70,1381.0,0.489583,Eighth,D3_B2
7806,Left,1,50,70,1381.5,0.489583,Eighth,D3_B2
7807,Right,0,77,70,1381.5,0.989583,Quarter,F6_F5
7810,Left,1,50,70,1382.0,0.489583,Eighth,D3_B2
7813,Left,1,50,70,1382.5,0.489583,Eighth,D3_B2
7812,Right,0,76,70,1382.5,0.989583,Quarter,E6_E5
7816,Left,1,47,70,1383.0,0.489583,Eighth,D3_B2
7820,Left,1,47,70,1383.5,0.489583,Eighth,D3_B2
7818,Right,0,74,70,1383.5,0.989583,Quarter,D6_D5
7822,Left,1,50,70,1384.0,0.489583,Eighth,D3_B2
7824,Right,0,72,70,1384.5,0.989583,Quarter,C6_C5
7826,Left,1,50,70,1384.5,0.489583,Eighth,D3_B2
7828,Left,1,47,70,1385.0,0.489583,Eighth,D3_B2
7832,Left,1,47,70,1385.5,0.489583,Eighth,D3_B2
7830,Right,0,71,70,1385.5,0.989583,Quarter,B5_B4
7834,Left,1,47,70,1386.0,0.489583,Eighth,D3_B2
7836,Right,0,69,70,1386.5,0.989583,Quarter,A5_A4
7837,Left,1,50,70,1386.5,0.489583,Eighth,D3_B2
7840,Left,1,52,70,1387.0,0.489583,Eighth,E3_C#3
7844,Left,1,49,70,1387.5,0.489583,Eighth,E3_C#3
7842,Right,0,79,70,1387.5,0.489583,Eighth,G5_G4
7848,Right,0,77,70,1388.0,0.239583,Sixteenth,F5_F4
7846,Left,1,53,70,1388.0,2.489583,DottedQuarter,F3_D3
7850,Right,0,62,70,1388.25,0.239583,Sixteenth,D4
7851,Right,0,64,70,1388.5,0.239583,Sixteenth,E4
7852,Right,0,65,70,1388.75,0.239583,Sixteenth,F4
7853,Right,0,67,70,1389.0,0.239583,Sixteenth,G4
7854,Right,0,69,70,1389.25,0.239583,Sixteenth,A4
7855,Left,1,57,70,1389.5,0.239583,Sixteenth,A3
7856,Right,0,71,70,1389.5,0.239583,Sixteenth,B4
7858,Right,0,73,70,1389.75,0.239583,Sixteenth,C#5
7857,Left,1,55,70,1389.75,0.239583,Sixteenth,G3
7860,Right,0,74,70,1390.0,0.239583,Sixteenth,D5
7859,Left,1,53,70,1390.0,0.489583,Eighth,F3
7861,Right,0,65,70,1390.25,0.239583,Sixteenth,F4
7862,Right,0,67,70,1390.5,0.239583,Sixteenth,G4
7863,Right,0,69,70,1390.75,0.239583,Sixteenth,A4
7864,Right,0,71,70,1391.0,0.239583,Sixteenth,B4
7865,Right,0,73,70,1391.25,0.239583,Sixteenth,C#5
7866,Right,0,74,70,1391.5,0.239583,Sixteenth,D5
7867,Right,0,76,70,1391.75,0.239583,Sixteenth,E5
7868,Right,0,77,70,1392.0,0.239583,Sixteenth,F5
7869,Left,1,69,70,1392.0,1.239583,TiedQuarter-Sixteenth,A4
7870,Right,0,74,70,1392.25,0.239583,Sixteenth,D5
7871,Right,0,76,70,1392.5,0.239583,Sixteenth,E5
7872,Right,0,77,70,1392.75,0.239583,Sixteenth,F5
7873,Right,0,79,70,1393.0,0.239583,Sixteenth,G5
7875,Right,0,81,70,1393.25,0.239583,Sixteenth,A5
7874,Left,1,67,70,1393.25,0.239583,Sixteenth,G4
7876,Right,0,83,70,1393.5,0.239583,Sixteenth,B5
7877,Left,1,65,70,1393.5,0.239583,Sixteenth,F4
7878,Right,0,85,70,1393.75,0.239583,Sixteenth,C#6
7879,Left,1,64,70,1393.75,0.239583,Sixteenth,E4
7880,Right,0,86,70,1394.0,0.239583,Sixteenth,D6
7881,Left,1,62,70,1394.0,0.989583,Quarter,D4
7882,Right,0,85,70,1394.25,0.239583,Sixteenth,C#6
7883,Right,0,86,70,1394.5,0.239583,Sixteenth,D6
7884,Right,0,88,70,1394.75,0.239583,Sixteenth,E6
7885,Right,0,89,70,1395.0,0.239583,Sixteenth,F6
7886,Right,0,85,70,1395.25,0.239583,Sixteenth,C#6
7887,Right,0,86,70,1395.5,0.239583,Sixteenth,D6
7888,Right,0,88,70,1395.75,0.239583,Sixteenth,E6
7890,Left,1,45,70,1396.0,0.489583,Eighth,C3_A2
7889,Right,0,89,70,1396.0,0.489583,Eighth,F6
7894,Right,0,77,70,1396.5,0.989583,Quarter,F6_F5
7892,Left,1,45,70,1396.5,0.489583,Eighth,C3_A2
7896,Left,1,45,70,1397.0,0.489583,Eighth,C3_A2
7899,Right,0,76,70,1397.5,0.989583,Quarter,E6_E5
7898,Left,1,45,70,1397.5,0.489583,Eighth,C3_A2
7902,Left,1,48,70,1398.0,0.489583,Eighth,C3_A2
7905,Left,1,48,70,1398.5,0.489583,Eighth,C3_A2
7904,Right,0,74,70,1398.5,0.989583,Quarter,D6_D5
7908,Left,1,48,70,1399.0,0.489583,Eighth,C3_A2
7912,Left,1,48,70,1399.5,0.489583,Eighth,C3_A2
7910,Right,0,84,70,1399.5,0.989583,Quarter,C6_C5
7914,Left,1,48,70,1400.0,0.489583,Eighth,C3_A2
7917,Right,0,71,70,1400.5,0.989583,Quarter,B5_B4
7916,Left,1,45,70,1400.5,0.489583,Eighth,C3_A2
7920,Left,1,48,70,1401.0,0.489583,Eighth,C3_A2
7923,Left,1,45,70,1401.5,0.489583,Eighth,C3_A2
7922,Right,0,81,70,1401.5,0.989583,Quarter,A5_A4
7926,Left,1,45,70,1402.0,0.489583,Eighth,C3_A2
7930,Right,0,79,70,1402.5,0.989583,Quarter,G5_G4
7928,Left,1,48,70,1402.5,0.489583,Eighth,C3_A2
7932,Left,1,50,70,1403.0,0.489583,Eighth,D3_B2
7935,Left,1,47,70,1403.5,0.489583,Eighth,D3_B2
7934,Right,0,77,70,1403.5,0.489583,Eighth,F5_F4
7940,Right,0,64,70,1404.0,0.239583,Sixteenth,E5_E4
7938,Left,1,52,70,1404.0,2.489583,DottedQuarter,E3_C3
7942,Right,0,64,70,1404.25,0.239583,Sixteenth,E4
7943,Right,0,65,70,1404.5,0.239583,Sixteenth,F4
7944,Right,0,67,70,1404.75,0.239583,Sixteenth,G4
7945,Right,0,69,70,1405.0,0.239583,Sixteenth,A4
7946,Right,0,71,70,1405.25,0.239583,Sixteenth,B4
7947,Right,0,72,70,1405.5,0.239583,Sixteenth,C5
7948,Left,1,55,70,1405.5,0.239583,Sixteenth,G3
7950,Right,0,74,70,1405.75,0.239583,Sixteenth,D5
7949,Left,1,53,70,1405.75,0.239583,Sixteenth,F3
7951,Right,0,76,70,1406.0,0.239583,Sixteenth,E5
7952,Left,1,52,70,1406.0,0.489583,Eighth,E3
7953,Right,0,69,70,1406.25,0.239583,Sixteenth,A4
7954,Right,0,71,70,1406.5,0.239583,Sixteenth,B4
7955,Right,0,72,70,1406.75,0.239583,Sixteenth,C5
7956,Right,0,74,70,1407.0,0.239583,Sixteenth,D5
7957,Right,0,76,70,1407.25,0.239583,Sixteenth,E5
7958,Right,0,78,70,1407.5,0.239583,Sixteenth,F#5
7959,Right,0,80,70,1407.75,0.239583,Sixteenth,G#5
7960,Right,0,81,70,1408.0,0.239583,Sixteenth,A5
7961,Left,1,48,70,1408.0,0.385417,DottedSixteenth,C3
7962,Left,1,64,70,1408.125,1.114583,TiedQuarter-ThirtySecond,E4
7963,Right,0,76,70,1408.25,0.239583,Sixteenth,E5
7964,Right,0,78,70,1408.5,0.239583,Sixteenth,F#5
7965,Right,0,80,70,1408.75,0.239583,Sixteenth,G#5
7966,Right,0,81,70,1409.0,0.239583,Sixteenth,A5
7967,Left,1,62,70,1409.25,0.239583,Sixteenth,D4
7968,Right,0,83,70,1409.25,0.239583,Sixteenth,B5
7969,Left,1,60,70,1409.5,0.239583,Sixteenth,C4
7970,Right,0,84,70,1409.5,0.239583,Sixteenth,C6
7972,Right,0,86,70,1409.75,0.239583,Sixteenth,D6
7971,Left,1,59,70,1409.75,0.239583,Sixteenth,B3
7974,Left,1,57,70,1410.0,0.489583,Eighth,A3
7973,Right,0,88,70,1410.0,0.239583,Sixteenth,E6
7975,Right,0,86,70,1410.25,0.239583,Sixteenth,D6
7976,Right,0,84,70,1410.5,0.239583,Sixteenth,C6
7977,Right,0,83,70,1410.75,0.239583,Sixteenth,B5
7978,Right,0,81,70,1411.0,0.239583,Sixteenth,A5
7979,Right,0,83,70,1411.25,0.239583,Sixteenth,B5
7980,Right,0,84,70,1411.5,0.239583,Sixteenth,C6
7981,Right,0,81,70,1411.75,0.239583,Sixteenth,A5
7982,Left,1,53,70,1412.0,2.489583,DottedQuarter,F3_D3
7984,Right,0,65,70,1412.25,0.239583,Sixteenth,F4
7985,Right,0,67,71,1412.5,0.239583,Sixteenth,G4
7986,Right,0,69,72,1412.75,0.239583,Sixteenth,A4
7987,Right,0,71,73,1413.0,0.239583,Sixteenth,B4
7988,Right,0,72,74,1413.25,0.239583,Sixteenth,C5
7990,Left,1,57,75,1413.5,0.239583,Sixteenth,A3
7989,Right,0,74,75,1413.5,0.239583,Sixteenth,D5
7991,Right,0,76,75,1413.75,0.239583,Sixteenth,E5
7992,Left,1,55,75,1413.75,0.239583,Sixteenth,G3
7994,Right,0,77,76,1414.0,0.239583,Sixteenth,F5
7993,Left,1,53,76,1414.0,0.489583,Eighth,F3
7995,Right,0,71,77,1414.25,0.239583,Sixteenth,B4
7996,Right,0,72,78,1414.5,0.239583,Sixteenth,C5
7997,Right,0,74,79,1414.75,0.239583,Sixteenth,D5
7998,Right,0,76,80,1415.0,0.239583,Sixteenth,E5
7999,Right,0,77,81,1415.25,0.239583,Sixteenth,F5
8000,Right,0,79,81,1415.5,0.239583,Sixteenth,G5
8001,Right,0,81,82,1415.75,0.239583,Sixteenth,A5
8003,Left,1,50,83,1416.0,0.416667,DottedSixteenth,D3
8002,Right,0,83,83,1416.0,0.239583,Sixteenth,B5
8004,Left,1,65,84,1416.125,1.114583,TiedQuarter-ThirtySecond,F4
8005,Right,0,77,84,1416.25,0.239583,Sixteenth,F5
8006,Right,0,79,85,1416.5,0.239583,Sixteenth,G5
8007,Right,0,81,86,1416.75,0.239583,Sixteenth,A5
8008,Right,0,83,87,1417.0,0.239583,Sixteenth,B5
8009,Left,1,64,87,1417.25,0.239583,Sixteenth,E4
8010,Right,0,84,87,1417.25,0.239583,Sixteenth,C6
8011,Right,0,86,88,1417.5,0.239583,Sixteenth,D6
8012,Left,1,62,88,1417.5,0.239583,Sixteenth,D4
8013,Right,0,88,89,1417.75,0.239583,Sixteenth,E6
8014,Left,1,60,89,1417.75,0.239583,Sixteenth,C4
8016,Left,1,59,90,1418.0,0.989583,Quarter,B3
8015,Right,0,89,90,1418.0,0.239583,Sixteenth,F6
8017,Right,0,88,91,1418.25,0.239583,Sixteenth,E6
8018,Right,0,86,92,1418.5,0.239583,Sixteenth,D6
8019,Right,0,84,93,1418.75,0.239583,Sixteenth,C6
8020,Right,0,83,93,1419.0,0.239583,Sixteenth,B5
8021,Right,0,84,94,1419.25,0.239583,Sixteenth,C6
8022,Right,0,86,95,1419.5,0.239583,Sixteenth,D6
8023,Right,0,83,96,1419.75,0.239583,Sixteenth,B5
8024,Left,1,52,97,1420.0,0.479167,Eighth,E3
8025,Left,1,67,97,1420.125,1.114583,TiedQuarter-ThirtySecond,G4
8026,Right,0,79,98,1420.25,0.239583,Sixteenth,G5
8027,Right,0,81,99,1420.5,0.239583,Sixteenth,A5
8028,Right,0,83,99,1420.75,0.239583,Sixteenth,B5
8029,Right,0,84,100,1421.0,0.239583,Sixteenth,C6
8030,Left,1,65,101,1421.25,0.239583,Sixteenth,F4
8031,Right,0,86,101,1421.25,0.239583,Sixteenth,D6
8033,Left,1,64,102,1421.5,0.239583,Sixteenth,E4
8032,Right,0,88,102,1421.5,0.239583,Sixteenth,E6
8034,Left,1,62,103,1421.75,0.239583,Sixteenth,D4
8035,Right,0,89,103,1421.75,0.239583,Sixteenth,F6
8036,Left,1,61,104,1422.0,0.989583,Quarter,C#4
8037,Right,0,91,104,1422.0,0.239583,Sixteenth,G6
8038,Right,0,89,104,1422.25,0.239583,Sixteenth,F6
8039,Right,0,88,105,1422.5,0.239583,Sixteenth,E6
8040,Right,0,86,106,1422.75,0.239583,Sixteenth,D6
8041,Right,0,85,107,1423.0,0.239583,Sixteenth,C#6
8042,Right,0,86,108,1423.25,0.239583,Sixteenth,D6
8043,Right,0,88,109,1423.5,0.239583,Sixteenth,E6
8044,Right,0,85,110,1423.75,0.239583,Sixteenth,C#6
8045,Left,1,53,110,1424.0,1.802083,Half,F3
8046,Left,1,69,110,1424.125,0.864583,DottedEighth,A4
8047,Right,0,73,110,1424.25,0.239583,Sixteenth,C#5
8048,Right,0,74,110,1424.5,0.239583,Sixteenth,D5
8049,Right,0,76,110,1424.75,0.239583,Sixteenth,E5
8050,Left,1,67,110,1425.0,0.239583,Sixteenth,G4
8051,Right,0,77,110,1425.0,0.239583,Sixteenth,F5
8052,Right,0,79,110,1425.25,0.239583,Sixteenth,G5
8053,Left,1,65,110,1425.25,0.239583,Sixteenth,F4
8055,Left,1,64,110,1425.5,0.239583,Sixteenth,E4
8054,Right,0,81,110,1425.5,0.239583,Sixteenth,A5
8057,Left,1,62,110,1425.75,0.239583,Sixteenth,D4
8056,Right,0,77,110,1425.75,0.489583,Eighth,F5
8058,Left,1,55,110,1426.0,1.520833,DottedQuarter,G3
8059,Left,1,71,110,1426.135417,0.864583,DottedEighth,B4
8060,Right,0,75,110,1426.25,0.239583,Sixteenth,D#5
8061,Right,0,76,110,1426.5,0.239583,Sixteenth,E5
8062,Right,0,77,110,1426.75,0.239583,Sixteenth,F5
8064,Left,1,69,110,1427.0,0.239583,Sixteenth,A4
8063,Right,0,79,110,1427.0,0.239583,Sixteenth,G5
8065,Right,0,81,110,1427.25,0.239583,Sixteenth,A5
8066,Left,1,67,110,1427.25,0.239583,Sixteenth,G4
8067,Left,1,65,110,1427.5,0.239583,Sixteenth,F4
8068,Right,0,83,110,1427.5,0.239583,Sixteenth,B5
8070,Right,0,79,110,1427.75,0.489583,Eighth,G5
8069,Left,1,64,110,1427.75,0.239583,Sixteenth,E4
8071,Left,1,57,110,1428.0,1.447917,DottedQuarter,A3
8072,Left,1,72,110,1428.125,0.864583,DottedEighth,C5
8073,Right,0,76,110,1428.25,0.239583,Sixteenth,E5
8074,Right,0,77,110,1428.5,0.239583,Sixteenth,F5
8075,Right,0,79,110,1428.75,0.239583,Sixteenth,G5
8076,Right,0,81,110,1429.0,0.239583,Sixteenth,A5
8077,Left,1,71,110,1429.0,0.239583,Sixteenth,B4
8078,Right,0,83,110,1429.25,0.239583,Sixteenth,B5
8079,Left,1,69,110,1429.25,0.239583,Sixteenth,A4
8080,Right,0,84,110,1429.5,0.239583,Sixteenth,C6
8081,Left,1,67,110,1429.5,0.239583,Sixteenth,G4
8082,Left,1,65,110,1429.75,0.239583,Sixteenth,F4
8083,Right,0,81,110,1429.75,0.489583,Eighth,A5
8084,Left,1,59,110,1430.0,1.416667,DottedQuarter,B3
8085,Left,1,74,110,1430.125,1.104167,TiedQuarter-ThirtySecond,D5
8086,Right,0,78,110,1430.25,0.239583,Sixteenth,F#5
8087,Right,0,79,110,1430.5,0.239583,Sixteenth,G5
8088,Right,0,81,110,1430.75,0.239583,Sixteenth,A5
8090,Right,0,83,110,1431.0,0.239583,Sixteenth,B5
8089,Left,1,72,110,1431.0,0.239583,Sixteenth,C5
8091,Left,1,71,110,1431.25,0.239583,Sixteenth,B4
8092,Right,0,84,110,1431.25,0.239583,Sixteenth,C6
8093,Left,1,69,110,1431.5,0.239583,Sixteenth,A4
8094,Right,0,86,110,1431.5,0.239583,Sixteenth,D6
8095,Right,0,83,110,1431.75,0.489583,Eighth,B5
8096,Left,1,67,110,1431.75,0.239583,Sixteenth,G4
8097,Left,1,60,110,1432.0,1.427083,DottedQuarter,C4
8098,Left,1,76,110,1432.125,0.864583,DottedEighth,E5
8099,Right,0,80,110,1432.25,0.239583,Sixteenth,G#5
8100,Right,0,81,110,1432.5,0.239583,Sixteenth,A5
8101,Right,0,83,110,1432.75,0.239583,Sixteenth,B5
8103,Left,1,74,110,1433.0,0.239583,Sixteenth,D5
8102,Right,0,84,110,1433.0,0.239583,Sixteenth,C6
8105,Right,0,86,110,1433.25,0.239583,Sixteenth,D6
8104,Left,1,72,110,1433.25,0.239583,Sixteenth,C5
8106,Right,0,88,110,1433.5,0.239583,Sixteenth,E6
8107,Left,1,71,110,1433.5,0.239583,Sixteenth,B4
8109,Right,0,84,110,1433.75,0.489583,Eighth,C6
8108,Left,1,69,110,1433.75,0.239583,Sixteenth,A4
8110,Left,1,62,110,1434.0,1.4375,DottedQuarter,D4
8111,Left,1,77,110,1434.125,0.864583,DottedEighth,F5
8112,Right,0,82,110,1434.25,0.239583,Sixteenth,A#5
8113,Right,0,83,110,1434.5,0.239583,Sixteenth,B5
8114,Right,0,84,110,1434.75,0.239583,Sixteenth,C6
8115,Right,0,86,110,1435.0,0.239583,Sixteenth,D6
8116,Left,1,76,110,1435.0,0.239583,Sixteenth,E5
8117,Right,0,88,110,1435.25,0.239583,Sixteenth,E6
8118,Left,1,74,110,1435.25,0.239583,Sixteenth,D5
8120,Left,1,72,110,1435.5,0.239583,Sixteenth,C5
8119,Right,0,89,110,1435.5,0.239583,Sixteenth,F6
8121,Right,0,86,110,1435.75,0.239583,Sixteenth,D6
8122,Left,1,71,110,1435.75,0.239583,Sixteenth,B4
8123,Left,1,64,110,1436.0,0.15625,TripletSixteenth,E4
8124,Left,1,72,110,1436.166667,0.15625,TripletSixteenth,C5
8125,Left,1,76,110,1436.333333,0.15625,TripletSixteenth,E5
8126,Right,0,79,110,1436.5,0.15625,TripletSixteenth,G5
8127,Right,0,84,110,1436.666667,0.15625,TripletSixteenth,C6
8128,Right,0,91,110,1436.833333,0.15625,TripletSixteenth,G6
8129,Left,1,64,110,1437.0,0.15625,TripletSixteenth,E4
8130,Left,1,72,110,1437.166667,0.15625,TripletSixteenth,C5
8131,Left,1,76,110,1437.333333,0.15625,TripletSixteenth,E5
8132,Right,0,79,110,1437.5,0.15625,TripletSixteenth,G5
8133,Right,0,84,110,1437.666667,0.15625,TripletSixteenth,C6
8134,Right,0,91,110,1437.833333,0.15625,TripletSixteenth,G6
8135,Left,1,64,110,1438.0,0.15625,TripletSixteenth,E4
8136,Left,1,72,110,1438.166667,0.15625,TripletSixteenth,C5
8137,Left,1,76,110,1438.333333,0.15625,TripletSixteenth,E5
8138,Right,0,80,110,1438.5,0.15625,TripletSixteenth,G#5
8139,Right,0,84,110,1438.666667,0.15625,TripletSixteenth,C6
8140,Right,0,92,110,1438.833333,0.15625,TripletSixteenth,G#6
8141,Left,1,64,110,1439.0,0.15625,TripletSixteenth,E4
8142,Left,1,72,110,1439.166667,0.15625,TripletSixteenth,C5
8143,Left,1,76,110,1439.333333,0.15625,TripletSixteenth,E5
8144,Right,0,80,110,1439.5,0.15625,TripletSixteenth,G#5
8145,Right,0,84,110,1439.666667,0.15625,TripletSixteenth,C6
8146,Right,0,92,110,1439.833333,0.15625,TripletSixteenth,G#6
8148,Left,1,77,110,1440.0,0.989583,Quarter,F5_F4_C5
8147,Right,0,81,110,1440.0,0.239583,Sixteenth,A5
8151,Right,0,93,110,1440.25,0.239583,Sixteenth,A6
8152,Right,0,91,110,1440.5,0.239583,Sixteenth,G6
8153,Right,0,89,110,1440.75,0.239583,Sixteenth,F6
8154,Right,0,88,110,1441.0,0.239583,Sixteenth,E6
8155,Right,0,86,110,1441.25,0.239583,Sixteenth,D6
8156,Right,0,84,110,1441.5,0.239583,Sixteenth,C6
8157,Right,0,83,110,1441.75,0.239583,Sixteenth,B5
8158,Right,0,81,110,1442.0,0.239583,Sixteenth,A5
8159,Right,0,79,110,1442.25,0.239583,Sixteenth,G5
8160,Right,0,77,110,1442.5,0.239583,Sixteenth,F5
8161,Right,0,76,110,1442.75,0.239583,Sixteenth,E5
8162,Right,0,74,110,1443.0,0.239583,Sixteenth,D5
8163,Right,0,72,110,1443.25,0.239583,Sixteenth,C5
8164,Right,0,71,110,1443.5,0.239583,Sixteenth,B4
8165,Right,0,69,110,1443.75,0.239583,Sixteenth,A4
8166,Right,0,68,110,1444.0,0.239583,Sixteenth,G#4
8167,Right,0,69,110,1444.25,0.239583,Sixteenth,A4
8168,Right,0,67,110,1444.5,0.239583,Sixteenth,G4
8169,Right,0,65,110,1444.75,0.239583,Sixteenth,F4
8171,Right,0,64,110,1445.0,0.239583,Sixteenth,E4
8170,Left,1,29,110,1445.0,1.239583,TiedQuarter-Sixteenth,F1
8172,Right,0,62,110,1445.25,0.239583,Sixteenth,D4
8173,Right,0,60,110,1445.5,0.239583,Sixteenth,C4
8174,Right,0,59,110,1445.75,0.239583,Sixteenth,B3
8175,Right,0,57,110,1446.0,0.239583,Sixteenth,A3
8176,Right,0,55,110,1446.25,0.239583,Sixteenth,G3
8177,Left,1,31,110,1446.25,0.239583,Sixteenth,G1
8178,Right,0,53,110,1446.5,0.239583,Sixteenth,F3
8179,Left,1,33,110,1446.5,0.239583,Sixteenth,A1
8180,Left,1,35,110,1446.75,0.239583,Sixteenth,B1
8181,Right,0,52,110,1446.75,0.239583,Sixteenth,E3
8182,Left,1,36,110,1447.0,0.239583,Sixteenth,C2
8183,Right,0,50,110,1447.0,0.239583,Sixteenth,D3
8184,Left,1,38,110,1447.25,0.239583,Sixteenth,D2
8185,Right,0,48,110,1447.25,0.239583,Sixteenth,C3
8186,Left,1,40,110,1447.5,0.239583,Sixteenth,E2
8187,Right,0,47,110,1447.5,0.239583,Sixteenth,B2
8189,Left,1,41,110,1447.75,0.239583,Sixteenth,F2
8188,Right,0,45,110,1447.75,0.239583,Sixteenth,A2
8190,Right,0,43,110,1448.0,0.239583,Sixteenth,G2
8191,Left,1,40,110,1448.0,0.989583,Quarter,G1_E2_C2
8194,Right,0,48,80,1448.25,0.239583,Sixteenth,C3
8195,Right,0,47,80,1448.5,0.239583,Sixteenth,B2
8196,Right,0,50,80,1448.75,0.239583,Sixteenth,D3
8197,Right,0,48,80,1449.0,0.239583,Sixteenth,C3
8198,Right,0,52,80,1449.25,0.239583,Sixteenth,E3
8199,Right,0,51,80,1449.5,0.239583,Sixteenth,D#3
8200,Right,0,53,80,1449.75,0.239583,Sixteenth,F3
8201,Right,0,52,80,1450.0,0.239583,Sixteenth,E3
8202,Right,0,55,80,1450.25,0.239583,Sixteenth,G3
8203,Right,0,54,80,1450.5,0.239583,Sixteenth,F#3
8204,Right,0,57,80,1450.75,0.239583,Sixteenth,A3
8205,Right,0,55,80,1451.0,0.239583,Sixteenth,G3
8206,Right,0,60,80,1451.25,0.239583,Sixteenth,C4
8207,Right,0,59,80,1451.5,0.239583,Sixteenth,B3
8208,Right,0,62,80,1451.75,0.239583,Sixteenth,D4
8209,Right,0,60,80,1452.0,0.239583,Sixteenth,C4
8210,Right,0,64,80,1452.25,0.239583,Sixteenth,E4
8211,Right,0,63,80,1452.5,0.239583,Sixteenth,D#4
8212,Right,0,65,80,1452.75,0.239583,Sixteenth,F4
8213,Right,0,64,80,1453.0,0.239583,Sixteenth,E4
8214,Right,0,67,80,1453.25,0.239583,Sixteenth,G4
8215,Right,0,66,80,1453.5,0.239583,Sixteenth,F#4
8216,Right,0,69,80,1453.75,0.239583,Sixteenth,A4
8217,Right,0,67,80,1454.0,0.239583,Sixteenth,G4
8218,Right,0,72,80,1454.25,0.239583,Sixteenth,C5
8219,Right,0,71,80,1454.5,0.239583,Sixteenth,B4
8220,Right,0,74,80,1454.75,0.239583,Sixteenth,D5
8221,Right,0,72,80,1455.0,0.239583,Sixteenth,C5
8222,Right,0,76,80,1455.25,0.239583,Sixteenth,E5
8223,Right,0,75,80,1455.5,0.239583,Sixteenth,D#5
8224,Right,0,77,80,1455.75,0.239583,Sixteenth,F5
8225,Right,0,76,80,1456.0,0.239583,Sixteenth,E5
8226,Right,0,79,80,1456.25,0.239583,Sixteenth,G5
8227,Right,0,78,81,1456.5,0.239583,Sixteenth,F#5
8228,Right,0,81,81,1456.75,0.239583,Sixteenth,A5
8229,Right,0,79,82,1457.0,0.239583,Sixteenth,G5
8230,Right,0,84,83,1457.25,0.239583,Sixteenth,C6
8231,Left,1,76,83,1457.25,0.239583,Sixteenth,E5
8232,Right,0,83,83,1457.5,0.239583,Sixteenth,B5
8233,Left,1,75,83,1457.5,0.239583,Sixteenth,D#5
8235,Right,0,84,84,1457.75,0.239583,Sixteenth,C6
8234,Left,1,76,84,1457.75,0.239583,Sixteenth,E5
8236,Left,1,67,85,1458.0,0.239583,Sixteenth,G4
8237,Right,0,79,85,1458.0,0.239583,Sixteenth,G5
8238,Left,1,72,85,1458.25,0.239583,Sixteenth,C5
8239,Right,0,88,85,1458.25,0.239583,Sixteenth,E6
8241,Right,0,87,86,1458.5,0.239583,Sixteenth,D#6
8240,Left,1,71,86,1458.5,0.239583,Sixteenth,B4
8242,Right,0,88,87,1458.75,0.239583,Sixteenth,E6
8243,Left,1,72,87,1458.75,0.239583,Sixteenth,C5
8244,Right,0,79,87,1459.0,0.239583,Sixteenth,G5
8245,Left,1,67,87,1459.0,0.239583,Sixteenth,G4
8246,Right,0,84,88,1459.25,0.239583,Sixteenth,C6
8247,Left,1,76,88,1459.25,0.239583,Sixteenth,E5
8248,Left,1,75,89,1459.5,0.239583,Sixteenth,D#5
8249,Right,0,83,89,1459.5,0.239583,Sixteenth,B5
8251,Left,1,76,89,1459.75,0.239583,Sixteenth,E5
8250,Right,0,84,89,1459.75,0.239583,Sixteenth,C6
8252,Right,0,79,90,1460.0,0.239583,Sixteenth,G5
8253,Left,1,67,90,1460.0,0.239583,Sixteenth,G4
8254,Right,0,88,90,1460.25,0.239583,Sixteenth,E6
8255,Left,1,72,90,1460.25,0.239583,Sixteenth,C5
8257,Right,0,87,91,1460.5,0.239583,Sixteenth,D#6
8256,Left,1,71,91,1460.5,0.239583,Sixteenth,B4
8259,Right,0,88,92,1460.75,0.239583,Sixteenth,E6
8258,Left,1,72,92,1460.75,0.239583,Sixteenth,C5
8260,Right,0,79,92,1461.0,0.239583,Sixteenth,G5
8261,Left,1,67,92,1461.0,0.239583,Sixteenth,G4
8262,Right,0,84,93,1461.25,0.239583,Sixteenth,C6
8263,Left,1,76,93,1461.25,0.239583,Sixteenth,E5
8264,Right,0,83,94,1461.5,0.239583,Sixteenth,B5
8265,Left,1,75,94,1461.5,0.239583,Sixteenth,D#5
8267,Left,1,76,94,1461.75,0.239583,Sixteenth,E5
8266,Right,0,84,94,1461.75,0.239583,Sixteenth,C6
8268,Right,0,79,95,1462.0,0.239583,Sixteenth,G5
8269,Left,1,67,95,1462.0,0.239583,Sixteenth,G4
8271,Right,0,88,96,1462.25,0.239583,Sixteenth,E6
8270,Left,1,72,96,1462.25,0.239583,Sixteenth,C5
8273,Left,1,71,96,1462.5,0.239583,Sixteenth,B4
8272,Right,0,87,96,1462.5,0.239583,Sixteenth,D#6
8274,Right,0,88,97,1462.75,0.239583,Sixteenth,E6
8275,Left,1,72,97,1462.75,0.239583,Sixteenth,C5
8276,Left,1,67,98,1463.0,0.239583,Sixteenth,G4
8277,Right,0,79,98,1463.0,0.239583,Sixteenth,G5
8279,Right,0,84,98,1463.25,0.239583,Sixteenth,C6
8278,Left,1,76,98,1463.25,0.239583,Sixteenth,E5
8281,Right,0,83,99,1463.5,0.239583,Sixteenth,B5
8280,Left,1,75,99,1463.5,0.239583,Sixteenth,D#5
8283,Right,0,84,99,1463.75,0.239583,Sixteenth,C6
8282,Left,1,76,99,1463.75,0.239583,Sixteenth,E5
8284,Left,1,67,100,1464.0,3.989583,Whole,G4_F5_D5
8287,Right,0,89,80,1466.5,0.21875,Sixteenth,F6
8288,Right,0,88,80,1466.625,0.229167,Sixteenth,E6
8289,Right,0,86,80,1466.75,0.208333,Sixteenth,D6
8290,Right,0,84,80,1466.875,0.21875,Sixteenth,C6
8291,Right,0,83,80,1467.0,0.239583,Sixteenth,B5
8292,Right,0,81,80,1467.125,0.21875,Sixteenth,A5
8293,Right,0,79,80,1467.25,0.208333,Sixteenth,G5
8294,Right,0,77,80,1467.375,0.229167,Sixteenth,F5
8295,Right,0,76,80,1467.5,0.229167,Sixteenth,E5
8296,Right,0,74,80,1467.625,0.229167,Sixteenth,D5
8297,Right,0,72,80,1467.75,0.21875,Sixteenth,C5
8298,Right,0,71,80,1467.875,0.114583,ThirtySecond,B4
8299,Left,1,65,100,1468.0,3.989583,Whole,G3_F4_D4
8302,Right,0,77,80,1471.0,0.21875,Sixteenth,F5
8303,Right,0,76,80,1471.125,0.208333,Sixteenth,E5
8304,Right,0,74,80,1471.25,0.21875,Sixteenth,D5
8305,Right,0,72,80,1471.375,0.229167,Sixteenth,C5
8306,Right,0,71,80,1471.5,0.208333,Sixteenth,B4
8307,Right,0,69,80,1471.625,0.229167,Sixteenth,A4
8308,Right,0,67,80,1471.75,0.21875,Sixteenth,G4
8309,Right,0,65,80,1471.875,0.114583,ThirtySecond,F4
8311,Left,1,48,80,1472.0,1.989583,Half,C3_C2
8310,Right,0,64,80,1472.0,1.989583,Half,G3_E4_C4
8315,Right,0,62,80,1474.0,0.989583,Quarter,F3_D4_B3
8317,Left,1,32,80,1474.0,0.989583,Quarter,G#2_G#1
8320,Right,0,57,80,1475.0,0.989583,Quarter,E3_C4_A3
8323,Left,1,33,80,1475.0,0.989583,Quarter,A2_A1
8325,Right,0,50,80,1476.0,1.989583,Half,G#3_D3_B3
8328,Left,1,40,80,1476.0,1.989583,Half,E2_E1
8330,Right,0,57,80,1478.0,1.989583,Half,C3_A3
8331,Left,1,41,80,1478.0,1.989583,Half,F2_F1
8337,Right,0,67,80,1480.0,1.989583,Half,G4_F4_B4
8334,Left,1,55,80,1480.0,1.989583,Half,G3_F3_D3_B3
8341,Right,0,72,80,1482.0,0.989583,Quarter,G4_C5
8343,Left,1,52,80,1482.0,0.989583,Quarter,G3_E3_C4
8348,Right,0,72,80,1483.0,0.989583,Quarter,D5_C5_A4
8346,Left,1,60,80,1483.0,0.989583,Quarter,F3_D4_C4_A3
8354,Right,0,76,80,1484.0,1.989583,Half,G4_E5_C5
8353,Left,1,60,80,1484.0,3.989583,Half,G3_E4_C4
8361,Left,1,62,80,1486.0,1.989583,Half,D4_B3
8359,Right,0,67,80,1486.0,1.989583,Half,G4_D5_B4
8364,Right,0,79,80,1487.0,0.489583,Eighth,G5
8365,Right,0,77,80,1487.5,0.489583,Eighth,F5
8366,Left,1,72,80,1488.0,1.989583,Half,E5_C5
8368,Right,0,84,80,1489.0,0.989583,Quarter,E6_C6
8371,Left,1,68,80,1490.0,0.989583,Quarter,G#4_D5_B4
8370,Right,0,77,80,1490.0,0.989583,Quarter,F5_D6_B5
8377,Right,0,76,80,1491.0,0.989583,Quarter,E5_C6_A5
8376,Left,1,72,80,1491.0,0.989583,Quarter,C5_A4
8381,Right,0,83,80,1492.0,1.989583,Half,G#5_D5_B5
8382,Left,1,71,80,1492.0,1.989583,Half,G#4_E4_B4
8388,Left,1,65,80,1494.0,1.989583,Half,F4_A4
8387,Right,0,81,80,1494.0,1.989583,Half,C5_A5
8391,Left,1,55,80,1496.0,3.989583,Quarter,G3_E4_C4
8392,Right,0,79,80,1496.0,1.989583,Quarter,G5_E5_C5
8397,Right,0,77,80,1497.0,2.989583,DottedHalf,F5_D5
8399,Left,1,62,80,1497.0,2.989583,DottedHalf,F4_D4
8401,Right,0,81,80,1498.0,0.989583,Quarter,A5
8402,Right,0,83,80,1499.0,0.989583,Quarter,B5
8403,Left,1,43,80,1500.0,7.989583,Quarter,G2_E3_C3
8406,Right,0,67,80,1500.0,3.989583,Quarter,G4_E4_C4
8409,Left,1,53,80,1501.0,6.989583,Unknown,F3_D3
8411,Right,0,62,80,1501.0,6.989583,Unknown,F4_D4
8413,Right,0,68,80,1504.0,1.989583,Half,G#4
8414,Right,0,71,80,1506.0,1.989583,Half,B4
8415,Left,1,36,80,1508.0,7.989583,Quarter,G1_E2_C2
8417,Right,0,52,80,1508.0,3.989583,Quarter,G3_E3_C3
8421,Right,0,50,80,1509.0,6.989583,Unknown,F3_D3
8423,Left,1,38,80,1509.0,6.989583,Unknown,F2_D2
8425,Right,0,57,80,1512.0,1.989583,Half,A3
8426,Right,0,59,80,1514.0,1.989583,Half,B3
8427,Left,1,36,80,1516.0,0.489583,Eighth,C3_C2
8429,Right,0,60,80,1516.0,0.489583,Eighth,E3_C4
8432,Left,1,55,80,1516.5,0.489583,Eighth,G3_C3
8431,Right,0,64,80,1516.5,0.489583,Eighth,E4_C4
8435,Left,1,48,80,1517.0,0.489583,Eighth,G3_C3
8436,Right,0,64,80,1517.0,0.489583,Eighth,E4_C4
8440,Left,1,48,80,1517.5,0.489583,Eighth,G3_C3
8439,Right,0,60,80,1517.5,0.489583,Eighth,E4_C4
8443,Left,1,55,80,1518.0,0.489583,Eighth,G3_C3
8445,Right,0,60,80,1518.0,0.489583,Eighth,E4_C4
8447,Left,1,55,80,1518.5,0.489583,Eighth,G3_C3
8449,Right,0,60,80,1518.5,0.489583,Eighth,E4_C4
8451,Left,1,55,80,1519.0,0.489583,Eighth,G3_C3
8452,Right,0,64,80,1519.0,0.489583,Eighth,E4_C4
8457,Left,1,55,80,1519.5,0.489583,Eighth,G3_C3
8455,Right,0,60,80,1519.5,0.489583,Eighth,E4_C4
8459,Left,1,48,80,1520.0,0.489583,Eighth,G3_C3
8461,Right,0,60,80,1520.0,0.489583,Eighth,E4_C4
8463,Left,1,48,80,1520.5,0.489583,Eighth,G3_C3
8465,Right,0,64,80,1520.5,0.489583,Eighth,E4_C4
8467,Left,1,48,80,1521.0,0.489583,Eighth,G3_C3
8469,Right,0,60,80,1521.0,0.489583,Eighth,E4_C4
8471,Left,1,48,80,1521.5,0.489583,Eighth,G3_C3
8473,Right,0,64,80,1521.5,0.489583,Eighth,E4_C4
8477,Left,1,48,80,1522.0,0.489583,Eighth,G3_C3
8475,Right,0,64,80,1522.0,0.489583,Eighth,E4_C4
8480,Left,1,48,80,1522.5,0.489583,Eighth,G3_C3
8479,Right,0,60,80,1522.5,0.489583,Eighth,E4_C4
8485,Left,1,48,80,1523.0,0.489583,Eighth,C3_A3
8483,Right,0,62,80,1523.0,0.489583,Eighth,F#4_D4
8488,Left,1,48,80,1523.5,0.489583,Eighth,C3_A3
8487,Right,0,66,80,1523.5,0.489583,Eighth,F#4_D4
8494,Right,0,67,80,1524.0,0.489583,Eighth,G4
8491,Left,1,55,80,1524.0,0.489583,Eighth,G3_D3_B2
8495,Left,1,50,82,1524.5,0.489583,Eighth,G3_D3_B2
8496,Right,0,71,82,1524.5,0.239583,Sixteenth,B4
8499,Right,0,69,83,1524.75,0.239583,Sixteenth,A4
8503,Right,0,67,85,1525.0,0.489583,Eighth,G4
8500,Left,1,55,85,1525.0,0.489583,Eighth,G3_D3_B2
8504,Left,1,55,87,1525.5,0.489583,Eighth,G3_D3_B2
8510,Right,0,72,90,1526.0,0.489583,Eighth,C5
8507,Left,1,48,90,1526.0,0.489583,Eighth,G3_C3_A#2
8512,Left,1,55,93,1526.5,0.489583,Eighth,G3_C3_A#2
8511,Right,0,76,93,1526.5,0.239583,Sixteenth,E5
8515,Right,0,74,94,1526.75,0.239583,Sixteenth,D5
8517,Right,0,72,95,1527.0,0.489583,Eighth,C5
8516,Left,1,48,95,1527.0,0.489583,Eighth,G3_C3_A#2
8520,Left,1,55,98,1527.5,0.489583,Eighth,G3_C3_A#2
8524,Left,1,45,101,1528.0,0.489583,Eighth,F3_C3_A2
8523,Right,0,77,101,1528.0,0.489583,Eighth,F5
8530,Right,0,81,103,1528.5,0.239583,Sixteenth,A5
8527,Left,1,53,103,1528.5,0.489583,Eighth,F3_C3_A2
8531,Right,0,79,105,1528.75,0.239583,Sixteenth,G5
8533,Left,1,53,106,1529.0,0.489583,Eighth,F3_C3_A2
8532,Right,0,77,106,1529.0,0.489583,Eighth,F5
8536,Left,1,48,109,1529.5,0.489583,Eighth,F3_C3_A2
8542,Right,0,89,111,1530.0,0.239583,Sixteenth,F6
8539,Left,1,48,111,1530.0,0.489583,Eighth,G#2_F3_C3
8543,Right,0,88,113,1530.25,0.239583,Sixteenth,E6
8545,Left,1,32,114,1530.5,0.489583,Eighth,G#2_G#1
8544,Right,0,89,114,1530.5,0.239583,Sixteenth,F6
8547,Right,0,88,115,1530.75,0.239583,Sixteenth,E6
8548,Right,0,89,116,1531.0,0.239583,Sixteenth,F6
8549,Left,1,32,116,1531.0,0.489583,Eighth,G#2_G#1
8551,Right,0,88,118,1531.25,0.239583,Sixteenth,E6
8552,Right,0,89,119,1531.5,0.239583,Sixteenth,F6
8553,Left,1,32,119,1531.5,0.489583,Eighth,G#2_G#1
8555,Right,0,88,120,1531.75,0.239583,Sixteenth,E6
8556,Right,0,89,120,1532.0,0.239583,Sixteenth,F6
8557,Left,1,43,120,1532.0,0.239583,Sixteenth,G2_G1
8560,Left,1,33,120,1532.25,0.239583,Sixteenth,A1
8559,Right,0,88,120,1532.25,0.239583,Sixteenth,E6
8561,Left,1,35,120,1532.5,0.239583,Sixteenth,B1
8562,Right,0,86,120,1532.5,0.239583,Sixteenth,D6
8563,Left,1,36,120,1532.75,0.239583,Sixteenth,C2
8564,Right,0,84,120,1532.75,0.239583,Sixteenth,C6
8565,Left,1,38,120,1533.0,0.239583,Sixteenth,D2
8566,Right,0,83,120,1533.0,0.239583,Sixteenth,B5
8567,Left,1,40,120,1533.25,0.239583,Sixteenth,E2
8568,Right,0,81,120,1533.25,0.239583,Sixteenth,A5
8569,Left,1,41,120,1533.5,0.239583,Sixteenth,F2
8570,Right,0,79,120,1533.5,0.239583,Sixteenth,G5
8572,Right,0,77,120,1533.75,0.239583,Sixteenth,F5
8571,Left,1,43,120,1533.75,0.239583,Sixteenth,G2
8574,Left,1,45,120,1534.0,0.239583,Sixteenth,A2
8573,Right,0,76,120,1534.0,0.239583,Sixteenth,E5
8575,Left,1,47,120,1534.25,0.239583,Sixteenth,B2
8576,Right,0,74,120,1534.25,0.239583,Sixteenth,D5
8578,Left,1,48,120,1534.5,0.239583,Sixteenth,C3
8577,Right,0,72,120,1534.5,0.239583,Sixteenth,C5
8580,Left,1,50,120,1534.75,0.239583,Sixteenth,D3
8579,Right,0,71,120,1534.75,0.239583,Sixteenth,B4
8581,Right,0,69,120,1535.0,0.239583,Sixteenth,A4
8582,Left,1,52,120,1535.0,0.239583,Sixteenth,E3
8584,Left,1,53,120,1535.25,0.239583,Sixteenth,F3
8583,Right,0,67,120,1535.25,0.239583,Sixteenth,G4
8585,Left,1,55,120,1535.5,0.239583,Sixteenth,G3
8586,Right,0,65,120,1535.5,0.239583,Sixteenth,F4
8587,Left,1,57,120,1535.75,0.239583,Sixteenth,A3
8588,Right,0,64,120,1535.75,0.239583,Sixteenth,E4
8589,Left,1,53,120,1536.0,0.989583,Quarter,F3_F2
8590,Right,0,62,120,1536.0,0.989583,Quarter,D4
8593,Right,0,79,120,1537.0,0.989583,Quarter,G5_G4_D5_B4
8592,Left,1,55,120,1537.0,0.989583,Quarter,G3_G2_D3_B2
8600,Left,1,52,120,1540.0,0.989583,Quarter,G3_E3_C4_C3
8603,Right,0,67,120,1540.0,0.989583,Quarter,G4_E5_E4_C5
8608,Left,1,55,120,1542.0,0.989583,Quarter,G3_G2_D3_B2
8610,Right,0,79,120,1542.0,0.989583,Quarter,G5_G4_D5_B4
8616,Left,1,43,120,1544.0,2.989583,DottedHalf,G2_E2_C3_C2
8619,Right,0,84,120,1544.0,2.989583,DottedHalf,G5_E5_C6_C5
