,hand,channel,note,velocity,start_beat,duration,note_value,chord
1,Left,1,58,1,0.0,0.989583,Quarter,A#3
0,Right,0,70,1,0.0,0.989583,Quarter,A#4
2,Left,1,34,120,3.5,0.489583,Eighth,A#1
3,Left,1,62,120,4.0,1.489583,DottedQuarter,F3_D4_A#3
9,Right,0,86,120,5.5,0.489583,Eighth,F5_D6_D5_A#5
6,Left,1,62,120,5.5,0.489583,Eighth,F3_D4_A#3
17,Left,1,62,120,6.0,0.989583,Quarter,F3_D4_A#3
13,Right,0,86,120,6.0,0.989583,Quarter,F5_D6_D5_A#5
22,Left,1,62,120,7.0,0.489583,Eighth,F3_D4_A#3
20,Right,0,77,120,7.0,0.489583,Eighth,F5_D5_D#6_A#5
30,Right,0,86,120,7.5,0.489583,Eighth,F5_D6_D5_A#5
27,Left,1,53,120,7.5,0.489583,Eighth,F3_D4_A#3
37,Right,0,77,120,8.0,0.989583,Quarter,F5_D6_D5_A#5
34,Left,1,62,120,8.0,0.989583,Quarter,F3_D4_A#3
45,Left,1,50,120,9.0,0.989583,Quarter,F3_D3_A#3
41,Right,0,70,120,9.0,0.989583,Quarter,F5_D5_A#5_A#4
48,Left,1,34,120,11.5,0.489583,Eighth,A#1
49,Left,1,53,120,12.0,1.489583,DottedQuarter,F4_F3_D4_A#3
53,Left,1,53,120,13.5,0.489583,Eighth,F4_F3_D4_A#3
56,Right,0,89,120,13.5,0.489583,Eighth,F6_F5_D6_A#5
65,Left,1,65,120,14.0,0.989583,Quarter,F4_F3_D4_A#3
61,Right,0,77,120,14.0,0.989583,Quarter,F6_F5_D6_A#5
69,Left,1,58,120,15.0,0.489583,Eighth,F4_F3_D4_A#3
72,Right,0,82,120,15.0,0.489583,Eighth,G6_F5_D6_A#5
77,Left,1,58,120,15.5,0.489583,Eighth,F4_F3_D4_A#3
80,Right,0,89,120,15.5,0.489583,Eighth,F6_F5_D6_A#5
89,Left,1,58,120,16.0,0.989583,Quarter,F4_F3_D4_A#3
85,Right,0,82,120,16.0,0.989583,Quarter,F6_F5_D6_A#5
95,Left,1,53,120,17.0,2.989583,DottedHalf,F3_D4_A#3
93,Right,0,77,120,17.0,2.989583,DottedHalf,F5_D6_D5_A#5
100,Right,0,70,80,23.0,0.489583,Eighth,A#4
101,Right,0,72,80,23.5,0.489583,Eighth,C5
102,Right,0,74,80,24.0,1.989583,Half,D5
104,Right,0,67,80,25.0,0.989583,Quarter,G4
103,Left,1,64,80,25.0,0.989583,Quarter,E4
107,Left,1,65,80,26.0,0.989583,Quarter,F4
105,Right,0,72,80,26.0,0.989583,Quarter,C5_A4
109,Right,0,72,80,27.0,0.989583,Eighth,G#4_C5
108,Left,1,59,80,27.0,0.989583,Quarter,B3
111,Right,0,74,80,27.5,0.489583,Eighth,D5
112,Right,0,67,80,28.0,1.989583,Quarter,G4_D#5
113,Left,1,60,80,28.0,0.989583,Quarter,C4
115,Right,0,69,80,29.0,0.989583,Quarter,A4
116,Left,1,54,80,29.0,0.989583,Quarter,F#3
118,Right,0,70,80,30.0,0.989583,Quarter,D5_A#4
117,Left,1,55,80,30.0,0.989583,Quarter,G3
120,Right,0,74,80,31.0,0.989583,Eighth,G4_D5
122,Left,1,51,80,31.0,0.989583,Quarter,D#3
123,Right,0,75,80,31.5,0.489583,Eighth,D#5
126,Left,1,50,80,32.0,0.989583,Quarter,D3
124,Right,0,77,80,32.0,1.489583,DottedQuarter,F5_A4
127,Right,0,70,80,33.0,0.989583,Quarter,A#4
128,Left,1,49,80,33.0,0.989583,Quarter,C#3
129,Right,0,79,80,33.5,0.489583,Eighth,G5
130,Right,0,67,80,34.0,0.989583,Quarter,G4_F5
132,Left,1,48,80,34.0,0.989583,Quarter,C3
133,Right,0,75,80,34.5,0.989583,Quarter,D#5
134,Right,0,69,80,35.0,0.989583,Quarter,A4
135,Left,1,41,80,35.0,0.989583,Quarter,F2
136,Right,0,77,80,35.5,0.489583,Eighth,F5
137,Right,0,65,80,36.0,0.989583,Quarter,F4_D#5_A#4
140,Left,1,46,80,36.0,0.989583,Quarter,A#2
141,Right,0,74,80,36.5,0.489583,Eighth,D5
143,Left,1,39,80,37.0,0.989583,Quarter,D#2
142,Right,0,72,80,37.0,0.989583,Quarter,G4_F5_C5
146,Right,0,75,80,37.5,0.489583,Eighth,D#5
148,Left,1,41,80,38.0,1.989583,Half,F2
147,Right,0,69,80,38.0,1.989583,Half,C5_A4
150,Right,0,82,80,43.0,0.489583,Eighth,A#5
151,Right,0,84,80,43.5,0.489583,Eighth,C6
152,Right,0,86,80,44.0,1.989583,Half,D6
153,Left,1,76,80,45.0,0.989583,Quarter,E5
154,Right,0,79,80,45.0,0.989583,Quarter,G5
156,Left,1,77,80,46.0,0.989583,Quarter,F5
155,Right,0,84,80,46.0,0.989583,Quarter,C6_A5
158,Right,0,80,80,47.0,0.989583,Quarter,G#5_C6
160,Left,1,71,80,47.0,0.989583,Quarter,B4
161,Right,0,86,80,47.5,0.489583,Eighth,D6
162,Right,0,87,80,48.0,1.989583,Half,G5_D#6
164,Left,1,72,80,48.0,0.989583,Quarter,C5
165,Right,0,81,80,49.0,0.989583,Quarter,A5
166,Left,1,66,80,49.0,0.989583,Quarter,F#4
167,Right,0,82,80,50.0,0.989583,Quarter,D6_A#5
169,Left,1,67,80,50.0,0.989583,Quarter,G4
170,Right,0,86,80,51.0,0.989583,Eighth,G5_D6
171,Left,1,63,80,51.0,0.989583,Quarter,D#4
173,Right,0,87,80,51.5,0.489583,Eighth,D#6
175,Right,0,81,80,52.0,1.489583,Quarter,F6_A5
174,Left,1,62,80,52.0,0.989583,Quarter,D4
178,Right,0,82,81,53.0,0.989583,Quarter,A#5
177,Left,1,61,81,53.0,0.989583,Quarter,C#4
179,Right,0,91,82,53.5,0.489583,Eighth,G6
182,Left,1,60,83,54.0,0.989583,Quarter,C4
180,Right,0,79,83,54.0,0.989583,Quarter,G5_F6
183,Right,0,87,83,54.5,0.989583,Quarter,D#6
185,Left,1,53,84,55.0,0.989583,Quarter,F3
184,Right,0,81,84,55.0,0.989583,Quarter,A5
186,Right,0,89,85,55.5,0.489583,Eighth,F6
187,Right,0,87,86,56.0,0.989583,Eighth,F5_D#6
188,Left,1,58,86,56.0,0.989583,Quarter,A#3
190,Right,0,86,86,56.5,0.989583,Quarter,D6
191,Right,0,82,87,57.0,1.989583,Half,A#5
192,Left,1,54,87,57.0,0.989583,Quarter,F#3
193,Right,0,87,88,57.5,0.489583,Eighth,D#6
194,Left,1,53,89,58.0,0.989583,Quarter,F3
195,Right,0,86,89,58.0,0.489583,Eighth,D6
196,Right,0,84,89,58.5,0.489583,Eighth,C6
200,Left,1,51,90,59.0,0.989583,Quarter,D#3
197,Right,0,86,90,59.0,0.989583,Quarter,F5_D6_A5
201,Right,0,87,91,59.5,0.489583,Eighth,D#6
202,Left,1,50,92,60.0,0.989583,Quarter,D3
203,Right,0,77,92,60.0,0.989583,Quarter,G6_F5_A#5
206,Right,0,89,93,60.5,0.489583,Eighth,F6
209,Left,1,49,93,61.0,0.989583,Quarter,C#3
207,Right,0,82,93,61.0,0.989583,Quarter,G6_A#5
210,Right,0,89,94,61.5,0.489583,Eighth,F6
211,Left,1,48,95,62.0,0.989583,Quarter,C3
212,Right,0,79,95,62.0,0.989583,Quarter,G5_F6
214,Right,0,87,96,62.5,0.489583,Eighth,D#6
215,Right,0,81,96,63.0,0.989583,Quarter,F6_A5
217,Left,1,41,96,63.0,0.989583,Quarter,F2
218,Right,0,87,97,63.5,0.489583,Eighth,D#6
221,Left,1,46,98,64.0,0.989583,Quarter,A#2
219,Right,0,77,98,64.0,0.989583,Quarter,F5_D#6
222,Right,0,86,99,64.5,0.489583,Eighth,D6
223,Right,0,87,99,65.0,1.989583,Eighth,D#6_A#5
224,Left,1,42,99,65.0,0.989583,Quarter,F#2
226,Right,0,86,100,65.5,0.489583,Eighth,D6
227,Right,0,86,101,66.0,0.489583,Eighth,D6
228,Left,1,41,101,66.0,0.989583,Quarter,F2
229,Right,0,84,102,66.5,0.489583,Eighth,C6
230,Right,0,77,103,67.0,0.989583,Quarter,F5_D6_A5
233,Left,1,39,103,67.0,0.989583,Quarter,D#2
234,Right,0,87,103,67.5,0.489583,Eighth,D#6
236,Left,1,38,104,68.0,0.989583,Quarter,D2
235,Right,0,77,104,68.0,0.989583,Quarter,G6_F5_A#5
239,Right,0,89,105,68.5,0.489583,Eighth,F6
240,Right,0,82,106,69.0,0.989583,Quarter,E6_A#5
241,Left,1,37,106,69.0,0.989583,Quarter,C#2
243,Right,0,91,106,69.5,0.989583,Quarter,G6
244,Right,0,87,107,70.0,0.989583,Quarter,D#6
245,Left,1,36,107,70.0,0.989583,Quarter,C2
246,Right,0,92,108,70.5,0.989583,Quarter,G#6
249,Left,1,30,109,71.0,0.989583,Quarter,F#1
247,Right,0,84,109,71.0,0.989583,Quarter,D#6_C6
250,Right,0,93,109,71.5,0.489583,Eighth,A6
252,Right,0,96,110,72.0,0.989583,Quarter,D6_C7_A#5
251,Left,1,31,110,72.0,0.989583,Quarter,G1
255,Right,0,94,110,72.5,0.489583,Eighth,A#6
256,Left,1,39,110,73.0,0.989583,Quarter,D#2
257,Right,0,93,110,73.0,0.989583,Quarter,D#6_A6_A#5
260,Right,0,91,110,73.5,0.489583,Eighth,G6
264,Left,1,41,110,74.0,0.989583,Quarter,F2
261,Right,0,89,110,74.0,0.989583,Quarter,F6_D6_A#5
265,Right,0,93,110,75.0,0.989583,Quarter,F6_C6_A6_A5
269,Left,1,29,110,75.0,0.989583,Quarter,F2_F1
271,Right,0,82,110,76.0,1.989583,Half,F6_D6_A#6_A#5
275,Left,1,34,110,76.0,0.489583,Eighth,A#2_A#1
277,Left,1,53,110,76.5,0.489583,Eighth,F3_D4_A#3
280,Left,1,53,110,77.0,0.489583,Eighth,F3_D4_A#3
283,Left,1,53,110,77.5,0.489583,Eighth,F3_D4_A#3
286,Right,0,82,110,78.0,1.989583,Half,D5_A#5_A#4
289,Left,1,58,110,78.5,0.489583,Eighth,F3_D3_A#3
292,Left,1,58,110,79.0,0.489583,Eighth,F3_D3_A#3
295,Left,1,58,110,79.5,0.489583,Eighth,F3_D3_A#3
298,Right,0,74,80,80.0,0.989583,Quarter,F5_D6_D5
301,Left,1,62,80,80.5,0.489583,Eighth,F3_D4_A#3
304,Right,0,82,80,81.0,0.989583,Quarter,D5_A#5_A#4
307,Left,1,58,80,81.5,0.489583,Eighth,D3_A#3
309,Right,0,74,80,82.0,0.989583,Quarter,F5_D6_D5
312,Left,1,53,80,82.5,0.489583,Eighth,F3_D4_A#3
315,Right,0,72,80,83.0,0.989583,Quarter,D#5_C6_C5
318,Left,1,58,80,83.5,0.489583,Eighth,D#3_C4_A#3
323,Right,0,79,110,84.0,1.989583,Half,G5_D#6_D#5
321,Left,1,34,110,84.0,0.489583,Eighth,A#2_A#1
326,Left,1,58,110,84.5,0.489583,Eighth,G3_D#4_A#3
329,Left,1,58,110,85.0,0.489583,Eighth,G3_D#4_A#3
332,Left,1,55,110,85.5,0.489583,Eighth,G3_D#4_A#3
335,Right,0,72,110,86.0,1.989583,Half,D#5_C6_C5
338,Left,1,51,110,86.5,0.489583,Eighth,D#3_C4_A3
341,Left,1,57,110,87.0,0.489583,Eighth,D#3_C4_A3
344,Left,1,57,110,87.5,0.489583,Eighth,D#3_C4_A3
347,Right,0,87,80,88.0,0.989583,Quarter,G5_D#6_D#5
350,Left,1,63,80,88.5,0.489583,Eighth,G3_D#4_A#3
353,Right,0,76,80,89.0,0.989583,Quarter,E5_C#6_C#5
356,Left,1,52,80,89.5,0.489583,Eighth,E3_C#4_A#3
359,Right,0,87,80,90.0,0.989583,Quarter,F#5_D#6_D#5
362,Left,1,58,80,90.5,0.489583,Eighth,F#3_D#4_A#3
365,Right,0,74,80,91.0,0.989583,Quarter,F5_D6_D5
368,Left,1,58,80,91.5,0.489583,Eighth,F3_D4_A#3
372,Right,0,89,110,92.0,1.989583,Half,G#5_F6_F5
371,Left,1,34,110,92.0,0.489583,Eighth,A#2_A#1
376,Left,1,65,110,92.5,0.489583,Eighth,G#3_F4_A#3
379,Left,1,58,110,93.0,0.489583,Eighth,G#3_F4_A#3
382,Left,1,58,110,93.5,0.489583,Eighth,G#3_F4_A#3
385,Right,0,74,110,94.0,1.989583,Half,F5_D6_D5
388,Left,1,62,110,94.5,0.489583,Eighth,F3_D4_A#3
391,Left,1,62,110,95.0,0.489583,Eighth,F3_D4_A#3
394,Left,1,58,110,95.5,0.489583,Eighth,F3_D4_A#3
397,Right,0,89,80,96.0,0.989583,Quarter,G#5_F6_F5
400,Left,1,65,80,96.5,0.489583,Eighth,G#3_F4_A#3
403,Right,0,78,80,97.0,0.989583,Quarter,F#5_D6_D5
406,Left,1,62,80,97.5,0.489583,Eighth,F#3_D4_A#3
409,Right,0,89,80,98.0,0.989583,Quarter,G#5_F6_F5
412,Left,1,65,80,98.5,0.489583,Eighth,G#3_F4_A#3
415,Right,0,87,80,99.0,0.989583,Quarter,G5_D#6_D#5
418,Left,1,63,80,99.5,0.489583,Eighth,G3_D#4_A#3
421,Left,1,46,110,100.0,0.489583,Eighth,A#2_A#1
423,Right,0,91,110,100.0,1.989583,Half,G6_G5_A#5
426,Left,1,67,110,100.5,0.489583,Eighth,G4_D#4_A#3
429,Left,1,67,110,101.0,0.489583,Eighth,G4_D#4_A#3
432,Left,1,63,110,101.5,0.489583,Eighth,G4_D#4_A#3
435,Right,0,75,110,102.0,1.989583,Half,G5_D#6_D#5_A#5
439,Left,1,55,110,102.5,0.489583,Eighth,G3_D#4_A#3
442,Left,1,58,110,103.0,0.489583,Eighth,G3_D#4_A#3
445,Left,1,58,110,103.5,0.489583,Eighth,G3_D#4_A#3
448,Right,0,79,80,104.0,0.989583,Quarter,G6_G5_A#5
451,Left,1,67,81,104.5,0.489583,Eighth,G4_D#4_A#3
454,Right,0,88,82,105.0,0.989583,Quarter,E6_E5_A#5
457,Left,1,58,83,105.5,0.489583,Eighth,E4_C#4_A#3
460,Right,0,78,85,106.0,0.989583,Quarter,F#6_F#5_A#5
463,Left,1,58,86,106.5,0.489583,Eighth,F#4_D#4_A#3
466,Right,0,82,87,107.0,0.989583,Quarter,F6_F5_A#5
469,Left,1,58,89,107.5,0.489583,Eighth,F4_D4_A#3
472,Right,0,92,90,108.0,0.989583,Quarter,G#6_G#5_A#5
475,Left,1,65,91,108.5,0.489583,Eighth,G#4_F4_A#3
478,Right,0,90,93,109.0,0.989583,Quarter,F#6_F#5_A#5
481,Left,1,66,94,109.5,0.489583,Eighth,F#4_D4_A#3
484,Right,0,92,95,110.0,0.989583,Quarter,G#6_G#5_A#5
487,Left,1,68,96,110.5,0.489583,Eighth,G#4_F4_A#3
490,Right,0,79,98,111.0,0.989583,Quarter,G6_G5_A#5
493,Left,1,63,99,111.5,0.489583,Eighth,G4_D#4_A#3
496,Right,0,82,100,112.0,0.989583,Quarter,G6_D#6_A#6_A#5
500,Left,1,67,102,112.5,0.489583,Eighth,G4_D#4_C4_A#3
504,Right,0,92,103,113.0,0.989583,Quarter,G#6_G#5
506,Left,1,68,104,113.5,0.489583,Eighth,G#4_D#4_C4_A#3
510,Right,0,82,106,114.0,0.989583,Quarter,A#6_A#5
512,Left,1,70,107,114.5,0.489583,Eighth,D#4_C4_A#4_A#3
516,Right,0,93,108,115.0,0.989583,Quarter,A6_A5
518,Left,1,69,109,115.5,0.489583,Eighth,D#4_C4_A4_A#3
522,Right,0,96,110,116.0,0.989583,Quarter,C7_C6
524,Left,1,72,110,116.5,0.489583,Eighth,C5_C4
526,Right,0,94,110,117.0,0.989583,Quarter,A#6_A#5
528,Left,1,70,110,117.5,0.489583,Eighth,A#4_A#3
530,Right,0,79,110,118.0,0.989583,Quarter,G6_G5
532,Left,1,67,110,118.5,0.489583,Eighth,G4_G3
534,Right,0,89,110,119.0,0.989583,Quarter,F6_F5
536,Left,1,53,110,119.5,0.489583,Eighth,F4_F3
538,Right,0,87,110,120.0,0.989583,Quarter,D#6_D#5
540,Left,1,51,110,120.5,0.489583,Eighth,D#4_D#3
542,Right,0,86,110,121.0,0.989583,Quarter,D6_D5
544,Left,1,50,110,121.5,0.489583,Eighth,D4_D3
546,Right,0,84,110,122.0,0.989583,Quarter,C6_C5
548,Left,1,60,110,122.5,0.489583,Eighth,C4_C3
550,Right,0,82,110,123.0,0.989583,Quarter,A#5_A#4
552,Left,1,46,110,123.5,0.489583,Eighth,A#3_A#2
554,Right,0,67,110,124.0,0.989583,Quarter,G5_G4
556,Left,1,55,110,124.5,0.489583,Eighth,G3_G2
558,Right,0,77,110,125.0,0.989583,Quarter,F5_F4
560,Left,1,53,110,125.5,0.489583,Eighth,F3_F2
562,Right,0,75,110,126.0,0.989583,Quarter,D#5_D#4
564,Left,1,39,110,126.5,0.489583,Eighth,D#3_D#2
566,Right,0,74,110,127.0,0.989583,Quarter,D5_D4
568,Left,1,38,110,127.5,0.489583,Eighth,D3_D2
570,Right,0,72,110,128.0,0.989583,Quarter,C5_C4
572,Left,1,36,110,128.5,0.489583,Eighth,C3_C2
574,Right,0,70,110,129.0,0.989583,Quarter,A#4_A#3
576,Left,1,34,110,129.5,0.489583,Eighth,A#2_A#1
578,Right,0,55,110,130.0,0.989583,Quarter,G4_G3
580,Left,1,43,110,130.5,0.489583,Eighth,G2_G1
582,Right,0,65,110,131.0,0.989583,Quarter,F4_F3
584,Left,1,29,110,131.5,0.489583,Eighth,F2_F1
586,Right,0,69,110,132.0,1.989583,Half,A4
587,Left,1,33,109,132.5,1.989583,Half,A1
588,Right,0,65,108,133.0,1.989583,Half,F4
589,Left,1,29,106,133.5,1.989583,Half,F1
590,Right,0,72,105,134.0,1.989583,Half,C5
591,Left,1,36,104,134.5,1.989583,Half,C2
592,Right,0,65,102,135.0,1.989583,Half,F4
593,Left,1,29,101,135.5,1.989583,Half,F1
594,Right,0,77,99,136.0,1.989583,Half,F5
595,Left,1,41,98,136.5,1.989583,Half,F2
596,Right,0,65,97,137.0,1.989583,Half,F4
597,Left,1,29,95,137.5,1.989583,Half,F1
598,Right,0,81,94,138.0,1.989583,Half,A5
599,Left,1,45,93,138.5,1.989583,Half,A2
600,Right,0,65,91,139.0,1.989583,Half,F4
601,Left,1,29,90,139.5,1.989583,Half,F1
602,Right,0,84,88,140.0,1.989583,Half,C6
603,Left,1,48,87,140.5,1.989583,Half,C3
604,Right,0,65,86,141.0,1.989583,Half,F4
605,Left,1,29,84,141.5,1.989583,Half,F1
606,Right,0,89,83,142.0,1.989583,Half,F6
607,Left,1,53,82,142.5,1.989583,Half,F3
608,Right,0,65,80,143.0,1.989583,Half,F4
609,Left,1,29,79,143.5,1.989583,Half,F1
610,Right,0,89,77,144.0,1.989583,Half,F6
611,Left,1,53,76,144.5,1.989583,Half,F3
612,Right,0,65,75,145.0,1.989583,Half,F4
613,Left,1,29,73,145.5,1.989583,Half,F1
614,Right,0,89,72,146.0,1.989583,Half,F6
615,Left,1,53,71,146.5,1.489583,DottedQuarter,F3
616,Left,1,29,110,147.5,0.489583,Eighth,F1
617,Left,1,62,110,148.0,1.489583,DottedQuarter,F3_D4_A#3
620,Left,1,58,110,149.5,0.489583,Eighth,F3_D4_A#3
622,Right,0,86,110,149.5,0.489583,Eighth,F5_D6_D5_A#5
628,Right,0,86,110,150.0,0.989583,Quarter,F5_D6_D5_A#5
627,Left,1,53,110,150.0,0.989583,Quarter,F3_D4_A#3
635,Left,1,53,110,151.0,0.489583,Eighth,F3_D4_A#3
634,Right,0,77,110,151.0,0.489583,Eighth,F5_D5_D#6_A#5
641,Left,1,62,110,151.5,0.489583,Eighth,F3_D4_A#3
642,Right,0,74,110,151.5,0.489583,Eighth,F5_D6_D5_A#5
648,Left,1,58,110,152.0,0.989583,Quarter,F3_D4_A#3
650,Right,0,77,110,152.0,0.989583,Quarter,F5_D6_D5_A#5
658,Left,1,50,110,153.0,0.989583,Quarter,F3_D3_A#3
655,Right,0,77,110,153.0,0.989583,Quarter,F5_D5_A#5_A#4
662,Left,1,34,110,155.5,0.489583,Eighth,A#1
663,Left,1,62,110,156.0,1.489583,DottedQuarter,F3_D4_D3_A#3
671,Right,0,86,110,157.5,0.489583,Eighth,F5_D6_D5_A#5
667,Left,1,50,110,157.5,0.489583,Eighth,F3_D4_D3_A#3
675,Left,1,50,110,158.0,0.989583,Quarter,D4_D3
676,Right,0,86,110,158.0,0.989583,Quarter,D6_D5
679,Right,0,81,110,159.0,0.489583,Eighth,F#5_D6_D5_A5
683,Left,1,62,110,159.0,0.489583,Eighth,F#3_D4_D3_A3
687,Right,0,78,110,159.5,0.489583,Eighth,F#5_D6_D5_A5
688,Left,1,50,110,159.5,0.489583,Eighth,F#3_D4_D3_A3
698,Right,0,86,110,160.0,0.989583,Quarter,F#5_D6_D5_A5
695,Left,1,54,110,160.0,0.989583,Quarter,F#3_D4_D3_A3
703,Right,0,74,110,161.0,4.989583,Unknown,F#5_D6_D5_A5
707,Left,1,54,110,161.0,4.989583,Unknown,F#3_D4_D3_A3
711,Left,1,50,80,167.5,0.489583,Eighth,D3
712,Left,1,62,80,168.0,1.489583,DottedQuarter,D4
713,Right,0,69,80,169.0,0.989583,Quarter,F#4_D5_A4
716,Left,1,50,80,169.5,0.489583,Eighth,D3
717,Left,1,62,80,170.0,1.489583,DottedQuarter,D4
718,Right,0,66,80,171.0,0.989583,Quarter,F#4_D5_A4
721,Left,1,50,80,171.5,0.489583,Eighth,D3
722,Left,1,62,80,172.0,1.489583,DottedQuarter,D4
723,Right,0,69,80,173.0,0.989583,Quarter,F#4_D5_A4
726,Left,1,50,80,173.5,0.489583,Eighth,D3
727,Left,1,62,80,174.0,1.489583,DottedQuarter,D4
728,Right,0,74,80,175.0,0.989583,Quarter,F#4_D5_A4
731,Left,1,50,80,175.5,0.489583,Eighth,D3
732,Left,1,57,80,176.0,1.489583,DottedQuarter,C4_A3
734,Right,0,74,82,177.0,0.989583,Quarter,F#5_D5_C5_A4
738,Left,1,50,83,177.5,0.489583,Eighth,D3
739,Left,1,57,84,178.0,1.489583,DottedQuarter,C4_A3
741,Right,0,72,86,179.0,0.989583,Quarter,F#5_D5_C5_A4
745,Left,1,50,87,179.5,0.489583,Eighth,D3
746,Left,1,57,88,180.0,1.489583,DottedQuarter,F#3_A3
748,Right,0,81,90,181.0,0.989583,Quarter,F#5_C5_A5_A4
752,Left,1,50,91,181.5,0.489583,Eighth,D3
753,Left,1,45,92,182.0,1.489583,DottedQuarter,A2
754,Right,0,72,94,183.0,0.989583,Quarter,F#5_C6_C5_A5
758,Left,1,50,96,183.5,0.489583,Eighth,D3
759,Left,1,45,97,184.0,1.489583,DottedQuarter,A2
760,Right,0,78,99,185.0,0.989583,Quarter,F#6_F#5_C6_A5
764,Left,1,50,100,185.5,0.489583,Eighth,D3
765,Left,1,43,101,186.0,1.489583,DottedQuarter,G2
766,Right,0,81,103,187.0,0.989583,Quarter,C6_A6_A5
769,Left,1,50,104,187.5,0.489583,Eighth,D3
770,Left,1,41,105,188.0,1.489583,DottedQuarter,F2
771,Right,0,84,107,189.0,0.989583,Quarter,C7_C6_A6
774,Left,1,50,108,189.5,0.489583,Eighth,D3
775,Left,1,39,109,190.0,1.489583,DottedQuarter,D#2
776,Right,0,84,110,191.0,0.989583,Quarter,F#6_C7_C6_A6
780,Left,1,50,110,191.5,0.489583,Eighth,D3
781,Right,0,96,110,192.0,0.989583,Quarter,F#6_C7_C6_A6
785,Left,1,38,110,192.0,0.989583,Quarter,D3_D2
789,Left,1,75,110,193.0,0.489583,Eighth,D#5
787,Right,0,81,110,193.0,0.489583,Eighth,C6_A5
791,Right,0,80,108,193.5,0.489583,Eighth,G#5_B5
790,Left,1,74,108,193.5,0.489583,Eighth,D5
793,Left,1,75,106,194.0,0.989583,Quarter,D#5
794,Right,0,81,106,194.0,0.989583,Quarter,C6_A5
798,Left,1,74,101,195.0,0.489583,Eighth,D5
796,Right,0,66,101,195.0,0.489583,Eighth,F#4_A4
801,Left,1,73,99,195.5,0.489583,Eighth,C#5
799,Right,0,67,99,195.5,0.489583,Eighth,G4_A#4
802,Left,1,74,97,196.0,0.989583,Quarter,D5
803,Right,0,69,97,196.0,0.989583,Quarter,F#4_A4
806,Right,0,84,92,197.0,0.489583,Eighth,C6_A5
805,Left,1,63,92,197.0,0.489583,Eighth,D#4
808,Right,0,83,90,197.5,0.489583,Eighth,G#5_B5
809,Left,1,62,90,197.5,0.489583,Eighth,D4
812,Right,0,81,87,198.0,0.989583,Quarter,C6_A5
811,Left,1,63,87,198.0,0.989583,Quarter,D#4
815,Right,0,90,83,199.0,0.489583,Eighth,F#6
814,Left,1,62,83,199.0,0.489583,Eighth,D4
816,Right,0,93,81,199.5,0.489583,Eighth,A6
817,Left,1,61,81,199.5,0.489583,Eighth,C#4
819,Left,1,62,80,200.0,0.989583,Quarter,D4
818,Right,0,96,80,200.0,0.489583,Eighth,C7
820,Right,0,98,80,200.5,0.489583,Eighth,D7
821,Right,0,96,80,201.0,0.489583,Eighth,C7
822,Right,0,95,80,201.5,0.489583,Eighth,B6
823,Left,1,50,80,201.5,0.489583,Eighth,D3
825,Left,1,54,80,202.0,0.989583,Quarter,F#3
824,Right,0,96,80,202.0,0.489583,Eighth,C7
826,Right,0,98,80,202.5,0.489583,Eighth,D7
827,Right,0,100,80,203.0,0.489583,Eighth,E7
829,Right,0,96,80,203.5,0.489583,Eighth,C7
828,Left,1,57,80,203.5,0.489583,Eighth,A3
831,Right,0,93,80,204.0,0.489583,Eighth,A6
830,Left,1,60,80,204.0,0.989583,Quarter,C4
832,Right,0,95,80,204.5,0.489583,Eighth,B6
833,Right,0,96,80,205.0,0.489583,Eighth,C7
834,Right,0,93,80,205.5,0.489583,Eighth,A6
835,Left,1,66,80,205.5,0.489583,Eighth,F#4
837,Left,1,69,80,206.0,0.989583,Quarter,A4
836,Right,0,90,80,206.0,0.489583,Eighth,F#6
838,Right,0,91,80,206.5,0.489583,Eighth,G6
839,Right,0,93,80,207.0,0.489583,Eighth,A6
840,Left,1,72,80,207.0,0.489583,Eighth,C5
842,Left,1,69,80,207.5,0.489583,Eighth,A4
841,Right,0,90,80,207.5,0.489583,Eighth,F#6
843,Left,1,81,80,208.0,0.489583,Eighth,A5
844,Right,0,84,80,208.0,0.489583,Eighth,C6
845,Left,1,83,80,208.5,0.489583,Eighth,B5
846,Right,0,86,80,208.5,0.489583,Eighth,D6
848,Right,0,88,80,209.0,0.489583,Eighth,E6
847,Left,1,84,80,209.0,0.489583,Eighth,C6
850,Left,1,81,80,209.5,0.489583,Eighth,A5
849,Right,0,84,80,209.5,0.489583,Eighth,C6
852,Right,0,81,80,210.0,0.489583,Eighth,A5
851,Left,1,72,80,210.0,0.489583,Eighth,C5
853,Left,1,74,80,210.5,0.489583,Eighth,D5
854,Right,0,83,80,210.5,0.489583,Eighth,B5
855,Left,1,76,80,211.0,0.489583,Eighth,E5
856,Right,0,84,80,211.0,0.489583,Eighth,C6
858,Left,1,72,80,211.5,0.489583,Eighth,C5
857,Right,0,81,80,211.5,0.489583,Eighth,A5
860,Left,1,69,80,212.0,0.489583,Eighth,A4
859,Right,0,78,80,212.0,0.489583,Eighth,F#5
861,Left,1,71,80,212.5,0.489583,Eighth,B4
862,Right,0,79,80,212.5,0.489583,Eighth,G5
864,Left,1,72,80,213.0,0.489583,Eighth,C5
863,Right,0,81,80,213.0,0.489583,Eighth,A5
865,Right,0,78,80,213.5,0.489583,Eighth,F#5
866,Left,1,69,80,213.5,0.489583,Eighth,A4
869,Left,1,66,80,214.0,0.489583,Eighth,F#4
867,Right,0,72,80,214.0,0.989583,Quarter,D5_C5_A4
871,Left,1,67,80,214.5,0.489583,Eighth,G4
872,Left,1,69,80,215.0,0.489583,Eighth,A4
873,Left,1,66,80,215.5,0.489583,Eighth,F#4
874,Right,0,95,80,216.0,0.489583,Eighth,B6
875,Left,1,62,80,216.0,0.989583,Quarter,G4_D4_B4
878,Right,0,96,80,216.5,0.489583,Eighth,C7
879,Right,0,95,80,217.0,0.489583,Eighth,B6
880,Right,0,93,80,217.5,0.489583,Eighth,A6
881,Left,1,50,80,217.5,0.489583,Eighth,D3
883,Right,0,95,80,218.0,0.489583,Eighth,B6
882,Left,1,55,80,218.0,0.989583,Quarter,G3
884,Right,0,96,80,218.5,0.489583,Eighth,C7
885,Right,0,98,80,219.0,0.489583,Eighth,D7
887,Left,1,59,80,219.5,0.489583,Eighth,B3
886,Right,0,95,80,219.5,0.489583,Eighth,B6
888,Left,1,62,80,220.0,0.989583,Quarter,D4
889,Right,0,91,80,220.0,0.489583,Eighth,G6
890,Right,0,93,80,220.5,0.489583,Eighth,A6
891,Right,0,95,80,221.0,0.489583,Eighth,B6
892,Left,1,67,80,221.5,0.489583,Eighth,G4
893,Right,0,91,80,221.5,0.489583,Eighth,G6
895,Right,0,86,80,222.0,0.489583,Eighth,D6
894,Left,1,71,80,222.0,0.989583,Quarter,B4
896,Right,0,90,80,222.5,0.489583,Eighth,F#6
897,Right,0,91,80,223.0,0.489583,Eighth,G6
899,Right,0,86,80,223.5,0.489583,Eighth,D6
898,Left,1,74,80,223.5,0.489583,Eighth,D5
900,Left,1,79,80,224.0,0.489583,Eighth,G5
901,Right,0,83,80,224.0,0.489583,Eighth,B5
902,Left,1,81,80,224.5,0.489583,Eighth,A5
903,Right,0,84,80,224.5,0.489583,Eighth,C6
905,Left,1,83,80,225.0,0.489583,Eighth,B5
904,Right,0,86,80,225.0,0.489583,Eighth,D6
906,Right,0,83,80,225.5,0.489583,Eighth,B5
907,Left,1,79,80,225.5,0.489583,Eighth,G5
909,Left,1,71,80,226.0,0.489583,Eighth,B4
908,Right,0,79,80,226.0,0.489583,Eighth,G5
911,Left,1,72,80,226.5,0.489583,Eighth,C5
910,Right,0,81,80,226.5,0.489583,Eighth,A5
913,Left,1,74,80,227.0,0.489583,Eighth,D5
912,Right,0,83,80,227.0,0.489583,Eighth,B5
914,Right,0,79,80,227.5,0.489583,Eighth,G5
915,Left,1,71,80,227.5,0.489583,Eighth,B4
917,Right,0,74,80,228.0,0.489583,Eighth,D5
916,Left,1,67,80,228.0,0.489583,Eighth,G4
918,Left,1,69,80,228.5,0.489583,Eighth,A4
919,Right,0,78,80,228.5,0.489583,Eighth,F#5
920,Left,1,71,80,229.0,0.489583,Eighth,B4
921,Right,0,79,80,229.0,0.489583,Eighth,G5
923,Left,1,67,80,229.5,0.489583,Eighth,G4
922,Right,0,71,80,229.5,0.489583,Eighth,B4
925,Left,1,71,80,230.0,0.489583,Eighth,B4
924,Right,0,67,80,230.0,0.489583,Eighth,G4
926,Right,0,69,80,230.5,0.489583,Eighth,A4
927,Left,1,72,80,230.5,0.489583,Eighth,C5
928,Right,0,71,80,231.0,0.489583,Eighth,B4
929,Left,1,74,80,231.0,0.489583,Eighth,D5
930,Left,1,71,80,231.5,0.489583,Eighth,B4
931,Right,0,67,80,231.5,0.489583,Eighth,G4
934,Left,1,72,80,232.0,0.489583,Eighth,C5
932,Right,0,69,80,232.0,0.989583,Quarter,F#4_D4_A4
936,Left,1,74,80,232.5,0.489583,Eighth,D5
938,Right,0,88,80,233.0,0.489583,Eighth,E6
937,Left,1,72,80,233.0,0.489583,Eighth,C5
939,Left,1,71,80,233.5,0.489583,Eighth,B4
940,Right,0,86,80,233.5,0.489583,Eighth,D6
941,Left,1,72,80,234.0,0.489583,Eighth,C5
942,Right,0,88,80,234.0,0.489583,Eighth,E6
944,Right,0,86,80,234.5,0.489583,Eighth,D6
943,Left,1,74,80,234.5,0.489583,Eighth,D5
946,Right,0,84,80,235.0,0.489583,Eighth,C6
945,Left,1,76,80,235.0,0.489583,Eighth,E5
947,Left,1,72,80,235.5,0.489583,Eighth,C5
948,Right,0,88,80,235.5,0.489583,Eighth,E6
950,Right,0,84,80,236.0,0.489583,Eighth,C6
949,Left,1,69,80,236.0,0.489583,Eighth,A4
952,Right,0,83,80,236.5,0.489583,Eighth,B5
951,Left,1,71,80,236.5,0.489583,Eighth,B4
953,Left,1,72,80,237.0,0.489583,Eighth,C5
954,Right,0,81,80,237.0,0.489583,Eighth,A5
956,Left,1,69,80,237.5,0.489583,Eighth,A4
955,Right,0,84,80,237.5,0.489583,Eighth,C6
958,Right,0,81,80,238.0,0.489583,Eighth,A5
957,Left,1,66,80,238.0,0.489583,Eighth,F#4
959,Right,0,79,80,238.5,0.489583,Eighth,G5
960,Left,1,67,80,238.5,0.489583,Eighth,G4
961,Right,0,78,80,239.0,0.489583,Eighth,F#5
962,Left,1,69,80,239.0,0.489583,Eighth,A4
964,Right,0,81,80,239.5,0.489583,Eighth,A5
963,Left,1,66,80,239.5,0.489583,Eighth,F#4
966,Right,0,76,80,240.0,0.489583,Eighth,E5
965,Left,1,60,80,240.0,0.489583,Eighth,C4
967,Right,0,74,80,240.5,0.489583,Eighth,D5
968,Left,1,62,80,240.5,0.489583,Eighth,D4
970,Right,0,72,80,241.0,0.489583,Eighth,C5
969,Left,1,64,80,241.0,0.489583,Eighth,E4
971,Left,1,60,80,241.5,0.489583,Eighth,C4
972,Right,0,76,80,241.5,0.489583,Eighth,E5
974,Right,0,72,80,242.0,0.489583,Eighth,C5
973,Left,1,57,80,242.0,0.489583,Eighth,A3
975,Left,1,59,80,242.5,0.489583,Eighth,B3
976,Right,0,71,80,242.5,0.489583,Eighth,B4
977,Right,0,69,80,243.0,0.489583,Eighth,A4
978,Left,1,60,80,243.0,0.489583,Eighth,C4
979,Left,1,57,80,243.5,0.489583,Eighth,A3
980,Right,0,72,80,243.5,0.489583,Eighth,C5
981,Left,1,54,80,244.0,0.489583,Eighth,F#3
982,Right,0,69,80,244.0,0.489583,Eighth,A4
983,Right,0,67,80,244.5,0.489583,Eighth,G4
984,Left,1,55,80,244.5,0.489583,Eighth,G3
986,Right,0,66,80,245.0,0.489583,Eighth,F#4
985,Left,1,57,80,245.0,0.489583,Eighth,A3
988,Right,0,69,80,245.5,0.489583,Eighth,A4
987,Left,1,54,80,245.5,0.489583,Eighth,F#3
990,Right,0,72,80,246.0,0.489583,Eighth,C5
989,Left,1,69,80,246.0,0.489583,Eighth,A4
991,Right,0,71,80,246.5,0.489583,Eighth,B4
992,Left,1,67,80,246.5,0.489583,Eighth,G4
993,Right,0,69,80,247.0,0.489583,Eighth,A4
994,Left,1,66,80,247.0,0.489583,Eighth,F#4
995,Right,0,72,80,247.5,0.489583,Eighth,C5
996,Left,1,69,80,247.5,0.489583,Eighth,A4
999,Left,1,71,80,248.0,0.489583,Eighth,B4
997,Right,0,62,80,248.0,0.989583,Quarter,G4_D4
1000,Left,1,72,80,248.5,0.489583,Eighth,C5
1002,Left,1,71,80,249.0,0.489583,Eighth,B4
1001,Right,0,98,80,249.0,0.489583,Eighth,D7
1003,Right,0,96,80,249.5,0.489583,Eighth,C7
1004,Left,1,69,80,249.5,0.489583,Eighth,A4
1006,Left,1,71,80,250.0,0.489583,Eighth,B4
1005,Right,0,98,80,250.0,0.489583,Eighth,D7
1007,Right,0,96,80,250.5,0.489583,Eighth,C7
1008,Left,1,72,80,250.5,0.489583,Eighth,C5
1010,Left,1,74,80,251.0,0.489583,Eighth,D5
1009,Right,0,95,80,251.0,0.489583,Eighth,B6
1011,Right,0,98,80,251.5,0.489583,Eighth,D7
1012,Left,1,71,80,251.5,0.489583,Eighth,B4
1013,Right,0,95,80,252.0,0.489583,Eighth,B6
1014,Left,1,67,80,252.0,0.489583,Eighth,G4
1016,Left,1,69,80,252.5,0.489583,Eighth,A4
1015,Right,0,93,80,252.5,0.489583,Eighth,A6
1017,Right,0,91,80,253.0,0.489583,Eighth,G6
1018,Left,1,71,80,253.0,0.489583,Eighth,B4
1020,Right,0,95,80,253.5,0.489583,Eighth,B6
1019,Left,1,67,80,253.5,0.489583,Eighth,G4
1021,Right,0,83,80,254.0,0.489583,Eighth,B5
1022,Left,1,62,80,254.0,0.489583,Eighth,D4
1024,Left,1,66,80,254.5,0.489583,Eighth,F#4
1023,Right,0,81,80,254.5,0.489583,Eighth,A5
1025,Right,0,79,80,255.0,0.489583,Eighth,G5
1026,Left,1,67,80,255.0,0.489583,Eighth,G4
1027,Right,0,83,80,255.5,0.489583,Eighth,B5
1028,Left,1,62,80,255.5,0.489583,Eighth,D4
1029,Right,0,74,80,256.0,0.489583,Eighth,D5
1030,Left,1,59,80,256.0,0.489583,Eighth,B3
1031,Right,0,72,80,256.5,0.489583,Eighth,C5
1032,Left,1,60,80,256.5,0.489583,Eighth,C4
1033,Right,0,71,80,257.0,0.489583,Eighth,B4
1034,Left,1,62,80,257.0,0.489583,Eighth,D4
1036,Right,0,74,80,257.5,0.489583,Eighth,D5
1035,Left,1,59,80,257.5,0.489583,Eighth,B3
1037,Right,0,83,80,258.0,0.489583,Eighth,B5
1038,Left,1,55,80,258.0,0.489583,Eighth,G3
1040,Left,1,57,80,258.5,0.489583,Eighth,A3
1039,Right,0,81,80,258.5,0.489583,Eighth,A5
1041,Left,1,59,80,259.0,0.489583,Eighth,B3
1042,Right,0,79,80,259.0,0.489583,Eighth,G5
1044,Right,0,83,80,259.5,0.489583,Eighth,B5
1043,Left,1,55,80,259.5,0.489583,Eighth,G3
1046,Right,0,86,80,260.0,0.489583,Eighth,D6
1045,Left,1,50,80,260.0,0.489583,Eighth,D3
1048,Right,0,84,80,260.5,0.489583,Eighth,C6
1047,Left,1,54,80,260.5,0.489583,Eighth,F#3
1049,Left,1,55,80,261.0,0.489583,Eighth,G3
1050,Right,0,83,80,261.0,0.489583,Eighth,B5
1051,Left,1,50,80,261.5,0.489583,Eighth,D3
1052,Right,0,86,80,261.5,0.489583,Eighth,D6
1053,Left,1,48,80,262.0,0.489583,Eighth,C3
1054,Right,0,88,80,262.0,0.989583,Quarter,E6
1055,Left,1,55,80,262.5,0.489583,Eighth,G3
1057,Right,0,86,80,263.0,0.989583,Quarter,F#6_D6_A5
1056,Left,1,50,80,263.0,0.489583,Eighth,D3
1060,Left,1,48,80,263.5,0.489583,Eighth,C3
1064,Left,1,47,80,264.0,0.989583,Quarter,B2
1061,Right,0,91,80,264.0,0.989583,Quarter,G6_G5_D6
1065,Left,1,43,80,265.0,0.989583,Quarter,G3_G2
1067,Left,1,52,80,266.0,0.489583,Eighth,E3_C3
1069,Left,1,60,80,267.0,0.489583,Eighth,C4
1070,Left,1,57,80,267.5,0.489583,Eighth,A3
1071,Left,1,54,80,268.0,0.989583,Quarter,F#3
1072,Right,0,66,80,269.0,0.989583,Quarter,F#4_A4
1074,Left,1,50,80,269.0,0.989583,Quarter,D4_D3
1076,Right,0,67,80,270.0,0.489583,Eighth,G4_B4
1078,Left,1,55,80,270.0,0.489583,Eighth,G3_B3
1080,Right,0,91,80,271.0,0.489583,Eighth,G6_B5
1081,Left,1,55,80,271.0,1.989583,Half,G3_E4
1084,Right,0,81,80,271.5,0.489583,Eighth,F#6_A5
1086,Right,0,91,80,272.0,0.989583,Quarter,G6_B5
1091,Left,1,64,80,273.0,0.989583,Quarter,G3_E4
1088,Right,0,88,80,273.0,0.989583,Quarter,G5_E6_B5
1093,Right,0,78,80,274.0,0.989583,Quarter,F#5_D6_A5
1094,Left,1,57,80,274.0,0.989583,Quarter,F#4_A3
1099,Left,1,57,80,275.0,0.989583,Quarter,G4_A3
1098,Right,0,79,80,275.0,0.989583,Quarter,G5_E5_C#6
1103,Left,1,69,80,275.5,0.489583,Eighth,A4
1104,Right,0,88,80,276.0,0.989583,Quarter,G5_E6
1106,Left,1,69,80,276.0,2.989583,Quarter,D4_A4
1110,Left,1,71,80,277.0,0.739583,DottedEighth,B4
1108,Right,0,78,80,277.0,0.989583,Quarter,F#5_D6
1111,Left,1,73,80,277.75,0.239583,Sixteenth,C#5
1114,Left,1,74,80,278.0,0.989583,Quarter,D5
1112,Right,0,78,80,278.0,0.989583,Quarter,F#5_D6
1115,Right,0,86,80,279.0,0.489583,Eighth,G5_D6
1116,Left,1,76,80,279.0,0.489583,Eighth,E5
1118,Right,0,84,80,279.5,0.489583,Eighth,C6_A5
1119,Left,1,78,80,279.5,0.489583,Eighth,F#5
1121,Right,0,83,80,280.0,0.989583,Quarter,B5
1122,Left,1,79,80,280.0,0.989583,Quarter,G5
1123,Right,0,91,80,281.0,1.489583,Quarter,G6_G5
1125,Left,1,71,80,281.0,0.989583,Quarter,D5_B4
1128,Left,1,72,80,282.0,0.489583,Eighth,E5_C5
1127,Right,0,88,80,282.0,0.489583,Eighth,E6
1130,Right,0,84,80,283.0,0.489583,Eighth,C7_C6
1132,Left,1,69,80,283.0,0.489583,Eighth,A4
1133,Left,1,72,80,283.5,0.489583,Eighth,C5
1134,Right,0,93,80,283.5,0.489583,Eighth,E6_A6
1136,Left,1,74,80,284.0,0.989583,Quarter,D5
1137,Right,0,90,80,284.0,0.989583,Quarter,F#6
1138,Left,1,66,80,285.0,0.989583,Quarter,F#4_A4
1140,Right,0,98,80,285.0,1.489583,Quarter,D7_D6
1142,Left,1,71,80,286.0,0.489583,Eighth,G4_B4
1143,Right,0,95,80,286.0,0.489583,Eighth,B6
1145,Right,0,91,80,287.0,0.489583,Eighth,G6
1146,Right,0,90,80,287.5,0.489583,Eighth,F#6
1149,Right,0,91,80,288.0,0.989583,Quarter,G6
1147,Left,1,71,80,288.0,0.989583,Quarter,G4_E4_B4
1154,Right,0,88,80,289.0,0.989583,Quarter,E6
1151,Left,1,72,80,289.0,0.989583,Quarter,G4_E4_C5
1158,Right,0,84,80,290.0,0.989583,Quarter,C6
1155,Left,1,67,80,290.0,0.989583,Quarter,G4_E4_C5
1159,Left,1,69,80,290.5,0.489583,Eighth,A4
1160,Right,0,83,80,291.0,0.989583,Quarter,F#5_B5
1161,Left,1,71,80,291.0,0.989583,Quarter,F#4_D#4_B4
1168,Right,0,78,80,292.0,2.989583,Quarter,F#5_B5
1165,Left,1,71,80,292.0,0.989583,Quarter,F#4_D#4_B4
1170,Left,1,63,80,293.0,0.989583,Quarter,D#4_B3
1171,Right,0,81,80,293.0,0.489583,Eighth,A5
1173,Right,0,79,80,293.5,0.489583,Eighth,G5
1174,Left,1,64,80,294.0,0.989583,Quarter,G4_E4
1175,Right,0,79,80,294.0,0.989583,Quarter,G5
1179,Right,0,79,80,295.0,1.989583,Quarter,G5_E6_A#5
1177,Left,1,62,80,295.0,0.489583,Eighth,F4_D4
1182,Left,1,61,80,295.5,0.489583,Eighth,E4_C#4
1184,Left,1,61,80,296.0,0.989583,Quarter,E4_C#4
1185,Right,0,81,80,296.0,2.989583,DottedHalf,A5
1187,Left,1,61,80,297.0,0.989583,Quarter,C#4_A3
1189,Right,0,79,80,297.0,0.489583,Eighth,G5
1190,Right,0,77,80,297.5,0.489583,Eighth,F5
1193,Right,0,77,80,298.0,0.989583,Quarter,F5
1191,Left,1,65,80,298.0,0.989583,Quarter,F4_D4
1194,Right,0,80,80,299.0,1.989583,Quarter,G#5_F5_D6
1195,Left,1,63,80,299.0,0.489583,Eighth,D#4_C4
1199,Left,1,59,80,299.5,0.489583,Eighth,D4_B3
1202,Right,0,79,80,300.0,2.989583,DottedHalf,G5
1201,Left,1,62,80,300.0,0.989583,Quarter,D4_B3
1204,Left,1,55,80,301.0,0.989583,Quarter,G3_B3
1205,Right,0,77,80,301.0,0.489583,Eighth,F5
1207,Right,0,76,80,301.5,0.489583,Eighth,E5
1208,Left,1,64,80,302.0,0.989583,Quarter,E4_C4
1210,Right,0,76,80,302.0,0.989583,Quarter,E5
1211,Right,0,85,80,303.0,1.989583,Quarter,G5_E5_C#6
1212,Left,1,59,80,303.0,0.489583,Eighth,D4_B3
1216,Left,1,61,80,303.5,0.489583,Eighth,C#4_A#3
1219,Right,0,78,80,304.0,2.989583,DottedHalf,F#5
1218,Left,1,58,80,304.0,0.989583,Quarter,C#4_A#3
1223,Right,0,76,80,305.0,0.489583,Eighth,E5
1221,Left,1,54,80,305.0,0.989583,Quarter,F#3_A#3
1224,Right,0,75,80,305.5,0.489583,Eighth,D#5
1225,Left,1,59,80,306.0,0.989583,Quarter,D4_B3
1227,Right,0,74,80,306.0,0.989583,Quarter,D5
1228,Left,1,57,80,307.0,0.489583,Eighth,C4_A3
1229,Right,0,83,80,307.0,1.989583,Quarter,F5_D5_B5
1233,Left,1,56,80,307.5,1.489583,DottedQuarter,G#3_B3
1235,Right,0,77,80,308.0,0.489583,Eighth,F5
1236,Right,0,76,80,308.5,0.989583,Quarter,E5
1238,Left,1,64,80,309.0,0.989583,Quarter,E4_A3
1237,Right,0,73,80,309.0,0.989583,Quarter,C#5
1240,Left,1,55,80,309.5,0.489583,Eighth,G3
1241,Right,0,81,80,309.5,0.489583,Eighth,A5
1242,Right,0,72,80,310.0,0.989583,Quarter,D#5_C5
1244,Left,1,57,80,310.0,0.989583,Quarter,F#3_A3
1246,Right,0,74,80,310.5,0.989583,Quarter,D5
1248,Left,1,59,80,311.0,0.989583,Quarter,G3_B3
1247,Right,0,71,80,311.0,0.989583,Quarter,B4
1250,Left,1,47,80,311.5,0.489583,Eighth,B2
1251,Right,0,79,80,311.5,0.489583,Eighth,G5
1254,Right,0,74,80,312.0,0.489583,Eighth,D5
1252,Left,1,60,80,312.0,5.989583,Unknown,D3_C4_A2
1256,Right,0,86,81,312.5,0.489583,Eighth,D6
1257,Right,0,85,82,313.0,0.489583,Eighth,C#6
1258,Right,0,84,84,313.5,0.489583,Eighth,C6
1259,Right,0,81,85,314.0,0.489583,Eighth,A5
1260,Right,0,78,86,314.5,0.489583,Eighth,F#5
1261,Right,0,75,88,315.0,0.489583,Eighth,D#5
1262,Right,0,74,89,315.5,0.489583,Eighth,D5
1263,Right,0,73,90,316.0,0.489583,Eighth,C#5
1264,Right,0,72,92,316.5,0.489583,Eighth,C5
1265,Right,0,69,93,317.0,0.489583,Eighth,A4
1266,Right,0,66,94,317.5,0.489583,Eighth,F#4
1267,Right,0,67,80,317.9375,0.989583,Quarter,G4
1271,Right,0,63,80,318.0,0.489583,Eighth,D#4
1268,Left,1,50,80,318.0,1.989583,Half,D3_B3_B2
1272,Right,0,62,80,318.5,0.489583,Eighth,D4
1273,Right,0,76,80,319.0,0.989583,Eighth,G4_E5
1275,Right,0,74,80,319.5,0.489583,Eighth,D5
1276,Left,1,45,80,320.0,5.989583,Unknown,D3_C4_A2
1278,Right,0,74,80,320.0,0.489583,Eighth,D5
1280,Right,0,86,81,320.5,0.489583,Eighth,D6
1281,Right,0,85,82,321.0,0.489583,Eighth,C#6
1282,Right,0,84,84,321.5,0.489583,Eighth,C6
1283,Right,0,81,85,322.0,0.489583,Eighth,A5
1284,Right,0,78,86,322.5,0.489583,Eighth,F#5
1285,Right,0,75,88,323.0,0.489583,Eighth,D#5
1286,Right,0,74,89,323.5,0.489583,Eighth,D5
1287,Right,0,73,90,324.0,0.489583,Eighth,C#5
1288,Right,0,72,92,324.5,0.489583,Eighth,C5
1289,Right,0,69,93,325.0,0.489583,Eighth,A4
1290,Right,0,66,94,325.5,0.489583,Eighth,F#4
1291,Right,0,67,80,325.9375,0.989583,Quarter,G4
1293,Left,1,59,80,326.0,1.989583,Half,D3_B3_B2
1292,Right,0,63,80,326.0,0.489583,Eighth,D#4
1296,Right,0,62,80,326.5,0.489583,Eighth,D4
1297,Right,0,76,80,327.0,0.989583,Eighth,G4_E5
1299,Right,0,74,80,327.5,0.489583,Eighth,D5
1301,Left,1,47,80,328.0,1.989583,Half,B2_B1
1300,Right,0,74,80,328.0,0.489583,Eighth,D5
1303,Right,0,71,80,328.5,0.489583,Eighth,G5_B4
1305,Right,0,74,80,329.0,0.489583,Eighth,D5_B5
1307,Right,0,81,80,329.5,0.489583,Eighth,C5_A5
1310,Left,1,40,80,330.0,1.989583,Half,E3_E2
1309,Right,0,79,80,330.0,3.989583,Whole,G5_B4
1313,Right,0,75,80,330.5,0.489583,Eighth,D#5
1314,Right,0,76,80,331.0,0.489583,Eighth,E5
1315,Right,0,71,80,331.5,0.489583,Eighth,B4
1318,Right,0,70,80,332.0,0.489583,Eighth,A#4
1316,Left,1,49,80,332.0,1.989583,Half,C#3_C#2
1319,Right,0,75,80,332.5,0.489583,Eighth,D#5
1320,Right,0,76,80,333.0,0.489583,Eighth,E5
1321,Right,0,70,80,333.5,0.489583,Eighth,A#4
1323,Left,1,38,80,334.0,0.989583,Quarter,D3_D2
1322,Right,0,69,80,334.0,0.989583,Eighth,F#5_A4
1326,Right,0,73,80,334.5,0.489583,Eighth,C#5
1327,Right,0,74,80,335.0,0.989583,Quarter,D5
1328,Right,0,86,80,335.5,0.489583,Eighth,D6
1329,Right,0,86,80,336.0,0.489583,Eighth,D6
1330,Left,1,57,80,336.0,5.989583,Unknown,D4_C5_A3
1333,Right,0,98,81,336.5,0.489583,Eighth,D7
1334,Right,0,97,82,337.0,0.489583,Eighth,C#7
1335,Right,0,96,84,337.5,0.489583,Eighth,C7
1336,Right,0,93,85,338.0,0.489583,Eighth,A6
1337,Right,0,90,86,338.5,0.489583,Eighth,F#6
1338,Right,0,87,88,339.0,0.489583,Eighth,D#6
1339,Right,0,86,89,339.5,0.489583,Eighth,D6
1340,Right,0,85,90,340.0,0.489583,Eighth,C#6
1341,Right,0,84,92,340.5,0.489583,Eighth,C6
1342,Right,0,81,93,341.0,0.489583,Eighth,A5
1343,Right,0,78,94,341.5,0.489583,Eighth,F#5
1344,Right,0,79,80,341.9375,0.989583,Quarter,G5
1345,Right,0,75,80,342.0,0.489583,Eighth,D#5
1346,Left,1,59,80,342.0,1.989583,Half,D4_B4_B3
1349,Right,0,74,80,342.5,0.489583,Eighth,D5
1350,Right,0,88,80,343.0,0.989583,Eighth,G5_E6
1352,Right,0,86,80,343.5,0.489583,Eighth,D6
1354,Right,0,86,80,344.0,0.489583,Eighth,D6
1353,Left,1,45,80,344.0,5.989583,Unknown,D3_C4_A2
1357,Right,0,98,81,344.5,0.489583,Eighth,D7
1358,Right,0,97,82,345.0,0.489583,Eighth,C#7
1359,Right,0,96,84,345.5,0.489583,Eighth,C7
1360,Right,0,93,85,346.0,0.489583,Eighth,A6
1361,Right,0,90,86,346.5,0.489583,Eighth,F#6
1362,Right,0,87,88,347.0,0.489583,Eighth,D#6
1363,Right,0,86,89,347.5,0.489583,Eighth,D6
1364,Right,0,85,90,348.0,0.489583,Eighth,C#6
1365,Right,0,84,92,348.5,0.489583,Eighth,C6
1366,Right,0,81,93,349.0,0.489583,Eighth,A5
1367,Right,0,78,94,349.5,0.489583,Eighth,F#5
1368,Right,0,79,80,349.9375,0.989583,Quarter,G5
1372,Right,0,75,80,350.0,0.489583,Eighth,D#5
1369,Left,1,59,80,350.0,0.989583,Quarter,D3_B3_B2
1373,Right,0,74,80,350.5,0.489583,Eighth,D5
1374,Right,0,88,80,351.0,0.989583,Eighth,G5_E6
1375,Left,1,59,80,351.0,0.989583,Quarter,B3
1377,Right,0,86,80,351.5,0.489583,Eighth,D6
1379,Right,0,86,80,352.0,0.489583,Eighth,D6
1378,Left,1,59,80,352.0,1.989583,Half,B3
1380,Right,0,79,80,352.5,0.489583,Eighth,G5_B4
1382,Right,0,83,80,353.0,0.489583,Eighth,D5_B5
1384,Right,0,72,80,353.5,0.489583,Eighth,C5_A5
1386,Right,0,71,80,354.0,3.989583,Eighth,G5_B4
1387,Left,1,64,80,354.0,1.989583,Half,E4
1389,Right,0,75,80,354.5,0.489583,Eighth,D#5
1390,Right,0,76,80,355.0,0.489583,Eighth,E5
1391,Right,0,71,80,355.5,0.489583,Eighth,B4
1392,Right,0,70,80,356.0,0.489583,Eighth,A#4
1393,Left,1,61,80,356.0,1.989583,Half,C#4
1394,Right,0,75,80,356.5,0.489583,Eighth,D#5
1395,Right,0,76,80,357.0,0.489583,Eighth,E5
1396,Right,0,70,80,357.5,0.489583,Eighth,A#4
1397,Right,0,78,80,358.0,0.989583,Quarter,F#5_A4
1399,Left,1,62,80,358.0,0.989583,Quarter,D4
1400,Right,0,74,80,358.5,0.489583,Eighth,D5
1401,Left,1,63,80,359.0,0.989583,Quarter,D#4
1402,Right,0,67,80,359.0,0.989583,Eighth,G5_G4
1404,Right,0,72,80,359.5,0.489583,Eighth,C5
1405,Left,1,65,80,360.0,1.989583,Half,F4
1406,Right,0,79,80,360.0,0.489583,Eighth,G5
1407,Right,0,76,80,360.5,0.489583,Eighth,E5_C6
1409,Right,0,88,81,361.0,0.489583,Eighth,G5_E6
1411,Right,0,77,82,361.5,0.489583,Eighth,F5_D6
1415,Left,1,69,83,362.0,1.989583,Half,A4
1413,Right,0,76,83,362.0,3.989583,Eighth,E5_C6
1416,Right,0,80,84,362.5,0.489583,Eighth,G#5
1417,Right,0,81,85,363.0,0.489583,Eighth,A5
1418,Right,0,76,86,363.5,0.489583,Eighth,E5
1420,Left,1,66,87,364.0,1.989583,Half,F#4
1419,Right,0,75,87,364.0,0.489583,Eighth,D#5
1421,Right,0,80,88,364.5,0.489583,Eighth,G#5
1422,Right,0,81,89,365.0,0.489583,Eighth,A5
1423,Right,0,76,90,365.5,0.489583,Eighth,E5
1424,Right,0,74,91,366.0,0.989583,Eighth,D5_B5
1426,Left,1,67,91,366.0,0.989583,Quarter,G4
1427,Right,0,79,92,366.5,0.489583,Eighth,G5
1429,Right,0,72,93,367.0,0.989583,Eighth,C6_C5
1428,Left,1,68,93,367.0,0.989583,Quarter,G#4
1431,Right,0,77,94,367.5,0.489583,Eighth,F5
1432,Left,1,69,94,368.0,1.989583,Half,A4
1433,Right,0,84,94,368.0,0.489583,Eighth,C6
1434,Right,0,81,95,368.5,0.489583,Eighth,F6_A5
1436,Right,0,93,96,369.0,0.489583,Eighth,C6_A6
1438,Right,0,91,97,369.5,0.489583,Eighth,G6_A#5
1441,Left,1,73,98,370.0,1.989583,Half,C#5
1440,Right,0,89,98,370.0,3.989583,Whole,G#5_F6
1443,Right,0,77,99,370.5,0.489583,Eighth,F5
1444,Right,0,80,100,371.0,0.489583,Eighth,G#5
1445,Right,0,79,101,371.5,0.489583,Eighth,G5
1446,Right,0,80,102,372.0,0.489583,Eighth,G#5
1447,Left,1,71,102,372.0,1.989583,Half,B4
1448,Right,0,85,103,372.5,0.489583,Eighth,C#6
1449,Right,0,86,104,373.0,0.489583,Eighth,D6
1450,Right,0,80,105,373.5,0.489583,Eighth,G#5
1451,Right,0,79,106,374.0,2.989583,Eighth,G5_E6
1453,Left,1,60,106,374.0,2.989583,DottedHalf,C5_C4
1455,Right,0,83,107,374.5,0.489583,Eighth,B5
1456,Right,0,84,108,375.0,0.489583,Eighth,C6
1457,Right,0,79,109,375.5,0.489583,Eighth,G5
1458,Right,0,84,109,376.0,0.989583,Quarter,C6
1460,Right,0,76,120,377.0,0.989583,Quarter,G5_E6_E5_C6
1459,Left,1,36,120,377.0,0.989583,Quarter,C3_C2
1465,Right,0,86,120,378.0,0.989583,Quarter,D6_B5
1467,Right,0,84,120,379.0,0.489583,Eighth,E6_C6
1469,Right,0,86,120,379.5,0.489583,Eighth,F6_D6
1471,Right,0,88,120,380.0,0.989583,Quarter,G6_E6
1474,Right,0,84,120,381.0,0.989583,Quarter,E6_C6
1473,Left,1,64,120,381.0,0.989583,Quarter,E4_C4
1477,Left,1,59,120,382.0,0.989583,Quarter,D4_B3
1479,Left,1,64,120,383.0,0.489583,Eighth,E4_C4
1481,Left,1,65,120,383.5,0.489583,Eighth,F4_D4
1483,Left,1,67,120,384.0,0.989583,Quarter,G4_E4
1485,Right,0,76,120,385.0,0.989583,Quarter,G5_E6_E5_C6
1489,Left,1,36,120,385.0,2.989583,DottedHalf,C3_C2
1491,Right,0,86,120,386.0,0.989583,Quarter,D6_B5
1493,Right,0,88,120,387.0,0.489583,Eighth,E6_C6
1495,Right,0,89,120,387.5,0.489583,Eighth,F6_D6
1497,Right,0,91,120,388.0,0.989583,Quarter,G6_E6
1499,Right,0,91,120,389.0,0.989583,Quarter,G6_G5_E6_A5
1500,Left,1,37,120,389.0,0.989583,Quarter,C#3_C#2
1505,Right,0,88,120,391.0,0.989583,Quarter,G6_G5_E6_C#6
1508,Left,1,33,120,391.0,0.989583,Quarter,A2_A1
1513,Right,0,79,120,393.0,0.989583,Quarter,G6_G5_D6_B5
1511,Left,1,38,120,393.0,0.989583,Quarter,D3_D2
1520,Left,1,52,120,395.0,0.989583,Quarter,E3_E2
1517,Right,0,81,120,395.0,0.989583,Quarter,G6_G5_C#6_A5
1526,Left,1,38,120,396.0,0.489583,Eighth,D2
1523,Right,0,83,120,396.0,1.989583,Half,G6_G5_D6_B5
1528,Left,1,42,119,396.5,0.489583,Eighth,F#2
1529,Left,1,43,117,397.0,0.489583,Eighth,G2
1530,Left,1,47,115,397.5,0.489583,Eighth,B2
1531,Right,0,79,113,398.0,2.989583,DottedHalf,G5_D6_B5
1534,Left,1,50,113,398.0,0.489583,Eighth,D3
1535,Left,1,54,111,398.5,0.489583,Eighth,F#3
1536,Left,1,55,110,399.0,0.489583,Eighth,G3
1537,Left,1,59,108,399.5,0.489583,Eighth,B3
1538,Left,1,62,106,400.0,0.489583,Eighth,D4
1539,Left,1,66,104,400.5,0.489583,Eighth,F#4
1540,Right,0,83,102,401.0,0.989583,Quarter,G5_D5_B5
1543,Left,1,67,102,401.0,0.489583,Eighth,G4
1544,Left,1,71,101,401.5,0.489583,Eighth,B4
1545,Right,0,74,100,402.0,0.489583,Eighth,D5
1546,Right,0,78,100,402.5,0.489583,Eighth,F#5
1548,Left,1,67,101,403.0,0.489583,Eighth,G4
1547,Right,0,79,101,403.0,0.489583,Eighth,G5
1549,Right,0,83,101,403.5,0.489583,Eighth,B5
1550,Left,1,71,101,403.5,0.489583,Eighth,B4
1552,Left,1,73,102,404.0,0.489583,Eighth,C#5
1551,Right,0,85,102,404.0,0.489583,Eighth,C#6
1553,Left,1,74,103,404.5,0.489583,Eighth,D5
1554,Right,0,86,103,404.5,0.489583,Eighth,D6
1555,Left,1,76,103,405.0,0.489583,Eighth,E5
1556,Right,0,88,103,405.0,0.489583,Eighth,E6
1558,Left,1,74,104,405.5,0.489583,Eighth,D5
1557,Right,0,86,104,405.5,0.489583,Eighth,D6
1559,Right,0,90,104,406.0,0.489583,Eighth,F#6
1560,Left,1,78,104,406.0,0.489583,Eighth,F#5
1561,Left,1,79,105,406.5,0.489583,Eighth,G5
1562,Right,0,91,105,406.5,0.489583,Eighth,G6
1563,Left,1,81,106,407.0,0.489583,Eighth,A5
1564,Right,0,93,106,407.0,0.489583,Eighth,A6
1566,Left,1,79,106,407.5,0.489583,Eighth,G5
1565,Right,0,91,106,407.5,0.489583,Eighth,G6
1568,Left,1,82,107,408.0,0.489583,Eighth,A#5
1567,Right,0,94,107,408.0,0.489583,Eighth,A#6
1570,Left,1,83,108,408.5,0.489583,Eighth,B5
1569,Right,0,95,108,408.5,0.489583,Eighth,B6
1571,Left,1,84,108,409.0,0.489583,Eighth,C6
1572,Right,0,96,108,409.0,0.489583,Eighth,C7
1573,Left,1,83,109,409.5,0.489583,Eighth,B5
1574,Right,0,95,109,409.5,0.489583,Eighth,B6
1576,Right,0,98,110,410.0,0.989583,Quarter,D7
1575,Left,1,86,110,410.0,0.989583,Quarter,D6
1578,Right,0,74,80,411.0,0.989583,Quarter,D5_C6_A5
1577,Left,1,62,80,411.0,0.322917,Triplet,D4
1581,Left,1,64,80,411.333333,0.322917,Triplet,E4
1582,Left,1,66,80,411.666667,0.322917,Triplet,F#4
1583,Right,0,83,80,412.0,3.989583,Whole,G5_D5_B5
1586,Left,1,55,80,412.0,0.65625,DottedEighth,G3
1587,Left,1,71,80,412.666667,0.65625,DottedEighth,B4
1588,Left,1,67,80,413.333333,0.65625,DottedEighth,G4
1589,Left,1,66,80,414.0,0.65625,DottedEighth,F#4
1590,Left,1,71,80,414.666667,0.65625,DottedEighth,B4
1591,Left,1,67,80,415.333333,0.65625,DottedEighth,G4
1594,Left,1,63,80,416.0,0.65625,DottedEighth,D#4
1592,Right,0,79,80,416.0,1.989583,Half,G5_C6
1595,Left,1,72,80,416.666667,0.65625,DottedEighth,C5
1596,Left,1,67,80,417.333333,0.65625,DottedEighth,G4
1597,Left,1,60,80,418.0,0.65625,DottedEighth,C4
1598,Right,0,84,80,418.0,1.989583,Half,G5_D#6_C6
1601,Left,1,72,80,418.666667,0.65625,DottedEighth,C5
1602,Left,1,67,80,419.333333,0.65625,DottedEighth,G4
1604,Left,1,59,80,420.0,0.65625,DottedEighth,B3
1603,Right,0,91,80,420.0,3.989583,Whole,G6_G5_D6
1607,Left,1,71,80,420.666667,0.65625,DottedEighth,B4
1608,Left,1,67,80,421.333333,0.65625,DottedEighth,G4
1609,Right,0,83,80,422.0,1.989583,Half,B5
1610,Left,1,55,80,422.0,0.65625,DottedEighth,G3
1611,Left,1,71,80,422.666667,0.65625,DottedEighth,B4
1612,Left,1,67,80,423.333333,0.65625,DottedEighth,G4
1613,Right,0,87,80,424.0,1.989583,Half,G5_D#6_C6
1615,Left,1,60,80,424.0,0.65625,DottedEighth,C4
1617,Left,1,72,80,424.666667,0.65625,DottedEighth,C5
1618,Left,1,67,80,425.333333,0.65625,DottedEighth,G4
1619,Right,0,84,80,426.0,1.989583,Half,G5_C6
1620,Left,1,63,80,426.0,0.65625,DottedEighth,D#4
1622,Left,1,72,80,426.666667,0.65625,DottedEighth,C5
1623,Left,1,67,80,427.333333,0.65625,DottedEighth,G4
1624,Right,0,82,80,428.0,3.989583,Half,G5_A#5
1625,Left,1,62,80,428.0,0.65625,DottedEighth,D4
1627,Left,1,70,80,428.666667,0.65625,DottedEighth,A#4
1628,Left,1,67,80,429.333333,0.65625,DottedEighth,G4
1630,Left,1,62,80,430.0,0.65625,DottedEighth,D4
1629,Right,0,83,80,430.0,1.989583,Half,B5
1631,Left,1,71,80,430.666667,0.65625,DottedEighth,B4
1632,Left,1,67,80,431.333333,0.65625,DottedEighth,G4
1633,Right,0,86,80,432.0,1.989583,Half,F#5_D6
1635,Left,1,62,80,432.0,0.65625,DottedEighth,D4
1636,Left,1,72,80,432.666667,0.65625,DottedEighth,C5
1637,Left,1,69,80,433.333333,0.65625,DottedEighth,A4
1639,Right,0,84,80,434.0,1.489583,DottedQuarter,C6_A5
1638,Left,1,50,80,434.0,0.65625,DottedEighth,D3
1641,Left,1,62,80,434.666667,0.65625,DottedEighth,D4
1642,Right,0,74,80,435.0,0.989583,Quarter,D5
1643,Left,1,60,80,435.333333,0.65625,DottedEighth,C4
1644,Right,0,78,80,435.5,0.489583,Eighth,F#5_A5
1646,Left,1,43,80,436.0,0.489583,Eighth,G2
1647,Right,0,79,80,436.0,3.989583,Eighth,G5_D5_B5
1650,Right,0,81,80,436.25,0.489583,Eighth,A5
1651,Right,0,79,80,436.5,0.489583,Eighth,G5
1652,Left,1,55,80,436.5,0.489583,Eighth,G3
1653,Right,0,81,80,436.75,0.489583,Eighth,A5
1655,Left,1,59,81,437.0,0.489583,Eighth,B3
1654,Right,0,79,81,437.0,0.489583,Eighth,G5
1656,Right,0,81,81,437.25,0.489583,Eighth,A5
1657,Left,1,55,81,437.5,0.489583,Eighth,G3
1658,Right,0,79,81,437.5,0.489583,Eighth,G5
1659,Right,0,81,82,437.75,0.489583,Eighth,A5
1661,Left,1,54,82,438.0,0.489583,Eighth,F#3
1660,Right,0,79,82,438.0,0.489583,Eighth,G5
1662,Right,0,81,82,438.25,0.489583,Eighth,A5
1664,Left,1,55,83,438.5,0.489583,Eighth,G3
1663,Right,0,79,83,438.5,0.489583,Eighth,G5
1665,Right,0,81,83,438.75,0.489583,Eighth,A5
1666,Left,1,67,83,439.0,0.489583,Eighth,G4
1667,Right,0,79,83,439.0,0.489583,Eighth,G5
1668,Right,0,81,84,439.25,0.489583,Eighth,A5
1669,Left,1,55,84,439.5,0.489583,Eighth,G3
1670,Right,0,79,84,439.5,0.489583,Eighth,G5
1671,Right,0,81,84,439.75,0.489583,Eighth,A5
1672,Right,0,84,84,440.0,1.989583,Half,G5_C6
1674,Left,1,52,84,440.0,0.489583,Eighth,E3
1675,Right,0,81,85,440.25,0.489583,Eighth,A5
1677,Left,1,55,85,440.5,0.489583,Eighth,G3
1676,Right,0,79,85,440.5,0.489583,Eighth,G5
1678,Right,0,81,85,440.75,0.489583,Eighth,A5
1679,Left,1,67,86,441.0,0.489583,Eighth,G4
1680,Right,0,79,86,441.0,0.489583,Eighth,G5
1681,Right,0,81,86,441.25,0.489583,Eighth,A5
1683,Left,1,55,86,441.5,0.489583,Eighth,G3
1682,Right,0,79,86,441.5,0.489583,Eighth,G5
1684,Right,0,81,87,441.75,0.489583,Eighth,A5
1686,Right,0,79,87,442.0,1.989583,Eighth,G5_E6
1685,Left,1,48,87,442.0,0.489583,Eighth,C3
1688,Right,0,81,87,442.25,0.489583,Eighth,A5
1690,Left,1,55,88,442.5,0.489583,Eighth,G3
1689,Right,0,79,88,442.5,0.489583,Eighth,G5
1691,Right,0,81,88,442.75,0.489583,Eighth,A5
1693,Right,0,79,88,443.0,0.489583,Eighth,G5
1692,Left,1,64,88,443.0,0.489583,Eighth,E4
1694,Right,0,81,89,443.25,0.489583,Eighth,A5
1696,Left,1,55,89,443.5,0.489583,Eighth,G3
1695,Right,0,79,89,443.5,0.489583,Eighth,G5
1697,Right,0,81,89,443.75,0.489583,Eighth,A5
1698,Right,0,79,89,444.0,3.989583,Eighth,G6_G5
1699,Left,1,47,89,444.0,0.489583,Eighth,B2
1701,Right,0,81,90,444.25,0.489583,Eighth,A5
1702,Right,0,79,90,444.5,0.489583,Eighth,G5
1703,Left,1,55,90,444.5,0.489583,Eighth,G3
1704,Right,0,81,90,444.75,0.489583,Eighth,A5
1706,Right,0,79,91,445.0,0.489583,Eighth,G5
1705,Left,1,62,91,445.0,0.489583,Eighth,D4
1707,Right,0,81,91,445.25,0.489583,Eighth,A5
1708,Left,1,55,91,445.5,0.489583,Eighth,G3
1709,Right,0,79,91,445.5,0.489583,Eighth,G5
1710,Right,0,81,92,445.75,0.489583,Eighth,A5
1711,Left,1,43,92,446.0,0.489583,Eighth,G2
1712,Right,0,79,92,446.0,0.489583,Eighth,G5
1713,Right,0,81,92,446.25,0.489583,Eighth,A5
1714,Left,1,55,93,446.5,0.489583,Eighth,G3
1715,Right,0,79,93,446.5,0.489583,Eighth,G5
1716,Right,0,81,93,446.75,0.489583,Eighth,A5
1717,Left,1,59,93,447.0,0.489583,Eighth,B3
1718,Right,0,79,93,447.0,0.489583,Eighth,G5
1719,Right,0,81,94,447.25,0.489583,Eighth,A5
1721,Left,1,55,94,447.5,0.489583,Eighth,G3
1720,Right,0,79,94,447.5,0.489583,Eighth,G5
1722,Right,0,81,94,447.75,0.489583,Eighth,A5
1723,Right,0,79,94,448.0,1.989583,Eighth,G5_E6
1725,Left,1,48,94,448.0,0.489583,Eighth,C3
1726,Right,0,81,95,448.25,0.489583,Eighth,A5
1728,Right,0,79,95,448.5,0.489583,Eighth,G5
1727,Left,1,55,95,448.5,0.489583,Eighth,G3
1729,Right,0,81,95,448.75,0.489583,Eighth,A5
1731,Right,0,79,96,449.0,0.489583,Eighth,G5
1730,Left,1,64,96,449.0,0.489583,Eighth,E4
1732,Right,0,81,96,449.25,0.489583,Eighth,A5
1734,Right,0,79,96,449.5,0.489583,Eighth,G5
1733,Left,1,55,96,449.5,0.489583,Eighth,G3
1735,Right,0,81,97,449.75,0.489583,Eighth,A5
1737,Right,0,79,97,450.0,1.989583,Eighth,G5_C6
1736,Left,1,52,97,450.0,0.489583,Eighth,E3
1739,Right,0,81,97,450.25,0.489583,Eighth,A5
1741,Right,0,79,98,450.5,0.489583,Eighth,G5
1740,Left,1,55,98,450.5,0.489583,Eighth,G3
1742,Right,0,81,98,450.75,0.489583,Eighth,A5
1744,Right,0,79,98,451.0,0.489583,Eighth,G5
1743,Left,1,67,98,451.0,0.489583,Eighth,G4
1745,Right,0,81,99,451.25,0.489583,Eighth,A5
1747,Right,0,79,99,451.5,0.489583,Eighth,G5
1746,Left,1,55,99,451.5,0.489583,Eighth,G3
1748,Right,0,81,99,451.75,0.489583,Eighth,A5
1750,Right,0,82,99,452.0,0.989583,Quarter,G5_A#5
1749,Left,1,50,99,452.0,0.489583,Eighth,D3
1752,Right,0,81,100,452.25,0.489583,Eighth,A5
1753,Right,0,79,100,452.5,0.489583,Eighth,G5
1754,Left,1,52,100,452.5,0.489583,Eighth,E3
1755,Right,0,81,100,452.75,0.489583,Eighth,A5
1757,Left,1,54,101,453.0,0.489583,Eighth,F#3
1756,Right,0,83,101,453.0,1.989583,Half,G5_B5
1759,Right,0,81,101,453.25,0.489583,Eighth,A5
1761,Right,0,79,101,453.5,0.489583,Eighth,G5
1760,Left,1,55,101,453.5,0.489583,Eighth,G3
1762,Right,0,81,102,453.75,0.489583,Eighth,A5
1763,Right,0,79,102,454.0,0.489583,Eighth,G5
1764,Left,1,57,102,454.0,0.489583,Eighth,A3
1765,Right,0,81,102,454.25,0.489583,Eighth,A5
1766,Left,1,59,103,454.5,0.489583,Eighth,B3
1767,Right,0,79,103,454.5,0.489583,Eighth,G5
1768,Right,0,81,103,454.75,0.489583,Eighth,A5
1771,Left,1,57,103,455.0,0.489583,Eighth,A3
1769,Right,0,79,103,455.0,0.989583,Eighth,G5_D6
1772,Right,0,81,104,455.25,0.489583,Eighth,A5
1774,Left,1,55,104,455.5,0.489583,Eighth,G3
1773,Right,0,79,104,455.5,0.489583,Eighth,G5
1775,Right,0,81,104,455.75,0.25,Sixteenth,A5
1776,Right,0,86,104,456.0,0.489583,Eighth,D6
1777,Left,1,54,104,456.0,0.489583,Eighth,F#3
1778,Right,0,88,105,456.25,0.489583,Eighth,E6
1779,Left,1,55,105,456.5,0.489583,Eighth,G3
1780,Right,0,86,105,456.5,0.489583,Eighth,D6
1781,Right,0,88,105,456.75,0.489583,Eighth,E6
1782,Left,1,54,106,457.0,0.489583,Eighth,F#3
1783,Right,0,86,106,457.0,0.989583,Eighth,D6_D5
1785,Right,0,88,106,457.25,0.489583,Eighth,E6
1787,Left,1,52,106,457.5,0.489583,Eighth,E3
1786,Right,0,86,106,457.5,0.489583,Eighth,D6
1788,Right,0,88,107,457.75,0.489583,Eighth,E6
1789,Right,0,86,107,458.0,0.489583,Eighth,D6
1790,Left,1,50,107,458.0,0.489583,Eighth,D3
1791,Right,0,88,107,458.25,0.489583,Eighth,E6
1792,Right,0,86,108,458.5,0.489583,Eighth,D6
1793,Left,1,48,108,458.5,0.489583,Eighth,C3
1794,Right,0,88,108,458.75,0.489583,Eighth,E6
1795,Left,1,47,108,459.0,0.489583,Eighth,B2
1796,Right,0,86,108,459.0,0.489583,Eighth,D6
1797,Right,0,88,109,459.25,0.489583,Eighth,E6
1799,Right,0,85,109,459.5,0.489583,Eighth,C#6
1798,Left,1,45,109,459.5,0.489583,Eighth,A2
1801,Right,0,95,120,460.0,0.989583,Quarter,F6_D7_D6_B6
1800,Left,1,31,120,460.0,0.489583,Eighth,G1
1805,Left,1,43,120,460.5,0.489583,Eighth,G2
1806,Left,1,31,120,461.0,0.489583,Eighth,G1
1807,Right,0,98,120,461.0,1.989583,Half,F6_D7_D6_B6
1811,Left,1,43,120,461.5,0.489583,Eighth,G2
1812,Left,1,31,120,462.0,0.489583,Eighth,G1
1813,Left,1,43,120,462.5,0.489583,Eighth,G2
1814,Left,1,31,120,463.0,0.489583,Eighth,G1
1815,Right,0,84,120,463.0,0.989583,Quarter,F6_D6_C7_C6
1819,Left,1,43,120,463.5,0.489583,Eighth,G2
1824,Left,1,31,120,464.0,0.489583,Eighth,G1
1820,Right,0,95,120,464.0,0.989583,Quarter,F6_D6_B6_B5
1825,Left,1,43,120,464.5,0.489583,Eighth,G2
1826,Left,1,31,120,465.0,0.489583,Eighth,G1
1827,Right,0,84,120,465.0,0.989583,Quarter,F6_D6_C7_C6
1831,Left,1,43,120,465.5,0.489583,Eighth,G2
1835,Left,1,31,120,466.0,0.489583,Eighth,G1
1832,Right,0,98,120,466.0,0.989583,Quarter,F6_D7_D6
1836,Left,1,43,120,466.5,0.489583,Eighth,G2
1840,Left,1,32,80,467.0,0.489583,Eighth,G#1
1837,Right,0,95,80,467.0,0.989583,Quarter,E6_D6_B6_B5
1842,Left,1,44,80,467.5,0.489583,Eighth,G#2
1843,Left,1,33,80,468.0,0.489583,Eighth,A1
1844,Right,0,96,80,468.0,0.989583,Quarter,E6_C7_C6
1847,Left,1,45,80,468.5,0.489583,Eighth,A2
1848,Left,1,32,80,469.0,0.489583,Eighth,G#1
1849,Right,0,95,80,469.0,0.989583,Quarter,E6_D6_B6_B5
1853,Left,1,44,80,469.5,0.489583,Eighth,G#2
1857,Left,1,33,80,470.0,0.489583,Eighth,A1
1854,Right,0,84,80,470.0,0.989583,Quarter,E6_C7_C6
1858,Left,1,45,80,470.5,0.489583,Eighth,A2
1859,Right,0,84,80,471.0,0.989583,Quarter,E6_C6_A6_A5
1861,Left,1,36,80,471.0,0.489583,Eighth,C2
1864,Left,1,48,80,471.5,0.489583,Eighth,C3
1865,Left,1,37,80,472.0,0.489583,Eighth,C#2
1866,Right,0,81,80,472.0,0.989583,Quarter,G6_E6_A5
1869,Left,1,49,80,472.5,0.489583,Eighth,C#3
1871,Right,0,91,80,473.0,0.989583,Quarter,G6_C#6_A5
1870,Left,1,40,80,473.0,0.489583,Eighth,E2
1874,Left,1,52,80,473.5,0.489583,Eighth,E3
1875,Right,0,90,80,474.0,0.989583,Quarter,F#6_C6_A5
1876,Left,1,38,80,474.0,0.489583,Eighth,D2
1879,Left,1,50,80,474.5,0.489583,Eighth,D3
1880,Left,1,38,80,475.0,0.489583,Eighth,D2
1881,Right,0,93,80,475.0,0.989583,Quarter,C6_A6_A5
1884,Left,1,50,80,475.5,0.489583,Eighth,D3
1885,Right,0,79,80,476.0,0.989583,Quarter,G6_G5_B5
1888,Left,1,38,80,476.0,0.489583,Eighth,D2
1889,Left,1,50,81,476.5,0.489583,Eighth,D3
1890,Left,1,43,83,477.0,0.489583,Eighth,G2
1891,Right,0,74,83,477.0,0.989583,Quarter,D6_D5_B5
1894,Left,1,55,85,477.5,0.489583,Eighth,G3
1895,Left,1,38,87,478.0,0.489583,Eighth,D2
1896,Right,0,78,87,478.0,0.989583,Quarter,F#6_F#5_C6
1899,Left,1,50,89,478.5,0.489583,Eighth,D3
1901,Right,0,93,91,479.0,0.989583,Quarter,F#6_C6_A6_A5
1900,Left,1,50,91,479.0,0.489583,Eighth,D3
1905,Left,1,62,93,479.5,0.489583,Eighth,D4
1906,Right,0,91,95,480.0,0.989583,Quarter,G6_G5_B5
1909,Left,1,38,95,480.0,0.489583,Eighth,D2
1910,Left,1,50,97,480.5,0.489583,Eighth,D3
1914,Left,1,43,99,481.0,0.489583,Eighth,G2
1911,Right,0,74,99,481.0,0.989583,Quarter,D6_D5_B5
1915,Left,1,55,101,481.5,0.489583,Eighth,G3
1917,Right,0,78,103,482.0,0.989583,Quarter,F#6_F#5_C6
1916,Left,1,38,103,482.0,0.489583,Eighth,D2
1920,Left,1,50,105,482.5,0.489583,Eighth,D3
1922,Right,0,84,107,483.0,0.989583,Quarter,F#6_C6_A6_A5
1921,Left,1,50,107,483.0,0.489583,Eighth,D3
1926,Left,1,62,109,483.5,0.489583,Eighth,D4
1928,Left,1,43,110,484.0,0.489583,Eighth,G2
1927,Right,0,79,110,484.0,0.489583,Eighth,G5
1930,Right,0,91,110,484.5,0.489583,Eighth,G6
1929,Left,1,55,110,484.5,0.489583,Eighth,G3
1931,Left,1,38,110,485.0,0.489583,Eighth,D2
1932,Right,0,74,110,485.0,0.489583,Eighth,D5
1933,Left,1,50,110,485.5,0.489583,Eighth,D3
1934,Right,0,86,110,485.5,0.489583,Eighth,D6
1935,Left,1,42,110,486.0,0.489583,Eighth,F#2
1936,Right,0,78,110,486.0,0.489583,Eighth,F#5
1937,Left,1,54,110,486.5,0.489583,Eighth,F#3
1938,Right,0,90,110,486.5,0.489583,Eighth,F#6
1940,Left,1,45,110,487.0,0.489583,Eighth,A2
1939,Right,0,81,110,487.0,0.489583,Eighth,A5
1942,Left,1,57,110,487.5,0.489583,Eighth,A3
1941,Right,0,93,110,487.5,0.489583,Eighth,A6
1944,Left,1,43,110,488.0,0.489583,Eighth,G2
1943,Right,0,79,110,488.0,0.489583,Eighth,G5
1946,Right,0,91,110,488.5,0.489583,Eighth,G6
1945,Left,1,55,110,488.5,0.489583,Eighth,G3
1947,Right,0,74,110,489.0,0.489583,Eighth,D5
1948,Left,1,38,110,489.0,0.489583,Eighth,D2
1949,Right,0,86,110,489.5,0.489583,Eighth,D6
1950,Left,1,50,110,489.5,0.489583,Eighth,D3
1951,Left,1,30,110,490.0,0.489583,Eighth,F#1
1952,Right,0,78,110,490.0,0.489583,Eighth,F#5
1953,Right,0,90,110,490.5,0.489583,Eighth,F#6
1954,Left,1,42,110,490.5,0.489583,Eighth,F#2
1956,Left,1,33,110,491.0,0.489583,Eighth,A1
1955,Right,0,81,110,491.0,0.489583,Eighth,A5
1958,Left,1,45,110,491.5,0.489583,Eighth,A2
1957,Right,0,93,110,491.5,0.489583,Eighth,A6
1961,Left,1,43,120,492.0,0.989583,Quarter,G2_G1
1959,Right,0,91,120,492.0,0.989583,Quarter,G6_G5
1963,Right,0,93,120,494.0,0.989583,Quarter,A6_A5
1964,Left,1,33,120,494.0,0.989583,Quarter,A2_A1
1969,Right,0,94,120,496.0,7.989583,Unknown,A#6_A#5
1967,Left,1,34,120,496.0,3.489583,DottedHalf,A#2_A#1
1971,Left,1,46,80,499.5,0.489583,Eighth,A#2
1972,Left,1,58,80,500.0,1.489583,DottedQuarter,A#3
1973,Left,1,58,80,501.5,0.489583,Eighth,A#3
1974,Left,1,58,80,502.0,4.989583,Unknown,A#3
1976,Right,0,58,80,507.5,0.489583,Eighth,A#3
1975,Left,1,50,80,507.5,0.489583,Eighth,D3
1977,Right,0,70,80,508.0,1.489583,DottedQuarter,A#4
1978,Left,1,62,80,508.0,1.489583,DottedQuarter,D4
1979,Left,1,62,80,509.5,0.489583,Eighth,D4
1980,Right,0,70,80,509.5,0.489583,Eighth,A#4
1982,Left,1,62,80,510.0,5.989583,Unknown,D4
1981,Right,0,70,80,510.0,5.989583,Unknown,A#4
1983,Left,1,34,80,515.5,0.489583,Eighth,A#1
1984,Left,1,53,120,516.0,1.489583,DottedQuarter,F3_D4_A#3
1987,Left,1,62,120,517.5,0.489583,Eighth,F3_D4_A#3
1990,Right,0,82,120,517.5,0.489583,Eighth,F5_D6_D5_A#5
1994,Right,0,86,120,518.0,0.989583,Quarter,F5_D6_D5_A#5
1998,Left,1,62,120,518.0,0.989583,Quarter,F3_D4_A#3
2001,Left,1,62,120,519.0,0.489583,Eighth,F3_D4_A#3
2004,Right,0,74,120,519.0,0.489583,Eighth,F5_D5_D#6_A#5
2010,Right,0,86,120,519.5,0.489583,Eighth,F5_D6_D5_A#5
2008,Left,1,58,120,519.5,0.489583,Eighth,F3_D4_A#3
2018,Right,0,86,120,520.0,0.989583,Quarter,F5_D6_D5_A#5
2015,Left,1,58,120,520.0,0.989583,Quarter,F3_D4_A#3
2025,Left,1,58,120,521.0,0.989583,Quarter,F3_D3_A#3
2022,Right,0,82,120,521.0,0.989583,Quarter,F5_D5_A#5_A#4
2029,Left,1,34,120,523.5,0.489583,Eighth,A#1
2030,Left,1,65,120,524.0,1.489583,DottedQuarter,F4_F3_D4_A#3
2035,Left,1,65,120,525.5,0.489583,Eighth,F4_F3_D4_A#3
2034,Right,0,86,120,525.5,0.489583,Eighth,F6_F5_D6_A#5
2042,Right,0,82,120,526.0,0.989583,Quarter,F6_F5_D6_A#5
2046,Left,1,65,120,526.0,0.989583,Quarter,F4_F3_D4_A#3
2051,Left,1,53,120,527.0,0.489583,Eighth,F4_F3_D4_A#3
2050,Right,0,82,120,527.0,0.489583,Eighth,G6_F5_D6_A#5
2062,Left,1,53,120,527.5,0.489583,Eighth,F4_F3_D4_A#3
2058,Right,0,82,120,527.5,0.489583,Eighth,F6_F5_D6_A#5
2067,Right,0,77,120,528.0,0.989583,Quarter,F6_F5_D6_A#5
2066,Left,1,58,120,528.0,0.989583,Quarter,F4_F3_D4_A#3
2074,Left,1,58,120,529.0,2.989583,DottedHalf,F3_D4_A#3
2075,Right,0,82,120,529.0,2.989583,DottedHalf,F5_D6_D5_A#5
2081,Right,0,70,80,535.0,0.489583,Eighth,A#4
2082,Right,0,72,80,535.5,0.489583,Eighth,C5
2083,Right,0,74,80,536.0,1.989583,Half,D5
2085,Left,1,64,80,537.0,0.989583,Quarter,E4
2084,Right,0,67,80,537.0,0.989583,Quarter,G4
2086,Right,0,72,80,538.0,0.989583,Quarter,C5_A4
2088,Left,1,65,80,538.0,0.989583,Quarter,F4
2090,Left,1,59,80,539.0,0.989583,Quarter,B3
2089,Right,0,72,80,539.0,0.989583,Eighth,G#4_C5
2092,Right,0,74,80,539.5,0.489583,Eighth,D5
2093,Right,0,75,80,540.0,1.989583,Half,G4_D#5
2095,Left,1,60,80,540.0,0.989583,Quarter,C4
2096,Right,0,69,80,541.0,0.989583,Quarter,A4
2097,Left,1,54,80,541.0,0.989583,Quarter,F#3
2099,Right,0,70,80,542.0,0.989583,Quarter,D5_A#4
2098,Left,1,55,80,542.0,0.989583,Quarter,G3
2101,Right,0,74,80,543.0,0.989583,Eighth,G4_D5
2102,Left,1,51,80,543.0,0.989583,Quarter,D#3
2104,Right,0,75,80,543.5,0.489583,Eighth,D#5
2107,Left,1,50,80,544.0,0.989583,Quarter,D3
2105,Right,0,69,80,544.0,1.489583,Quarter,F5_A4
2109,Left,1,49,80,545.0,0.989583,Quarter,C#3
2108,Right,0,70,80,545.0,0.989583,Quarter,A#4
2110,Right,0,79,80,545.5,0.489583,Eighth,G5
2113,Left,1,48,80,546.0,0.989583,Quarter,C3
2111,Right,0,77,80,546.0,0.989583,Eighth,G4_F5
2114,Right,0,75,80,546.5,0.989583,Quarter,D#5
2115,Right,0,69,80,547.0,0.989583,Quarter,A4
2116,Left,1,41,80,547.0,0.989583,Quarter,F2
2117,Right,0,77,80,547.5,0.489583,Eighth,F5
2121,Left,1,46,80,548.0,0.989583,Quarter,A#2
2118,Right,0,70,80,548.0,0.989583,Quarter,F4_D#5_A#4
2122,Right,0,74,80,548.5,0.489583,Eighth,D5
2123,Left,1,39,80,549.0,0.989583,Quarter,D#2
2124,Right,0,72,80,549.0,0.989583,Quarter,G4_F5_C5
2127,Right,0,75,80,549.5,0.489583,Eighth,D#5
2128,Right,0,72,80,550.0,1.989583,Half,C5_A4
2129,Left,1,41,80,550.0,1.989583,Half,F2
2131,Right,0,82,80,555.0,0.489583,Eighth,A#5
2132,Right,0,84,80,555.5,0.489583,Eighth,C6
2133,Right,0,86,80,556.0,1.989583,Half,D6
2135,Right,0,79,80,557.0,0.989583,Quarter,G5
2134,Left,1,76,80,557.0,0.989583,Quarter,E5
2137,Right,0,81,80,558.0,0.989583,Quarter,C6_A5
2136,Left,1,77,80,558.0,0.989583,Quarter,F5
2141,Left,1,71,80,559.0,0.989583,Quarter,B4
2139,Right,0,84,80,559.0,0.989583,Eighth,G#5_C6
2142,Right,0,86,80,559.5,0.489583,Eighth,D6
2144,Left,1,72,80,560.0,0.989583,Quarter,C5
2143,Right,0,87,80,560.0,1.989583,Half,G5_D#6
2147,Right,0,81,80,561.0,0.989583,Quarter,A5
2146,Left,1,66,80,561.0,0.989583,Quarter,F#4
2148,Left,1,67,80,562.0,0.989583,Quarter,G4
2149,Right,0,86,80,562.0,0.989583,Quarter,D6_A#5
2151,Right,0,86,80,563.0,0.989583,Eighth,G5_D6
2153,Left,1,63,80,563.0,0.989583,Quarter,D#4
2154,Right,0,87,80,563.5,0.489583,Eighth,D#6
2155,Right,0,81,80,564.0,1.489583,Quarter,F6_A5
2157,Left,1,62,80,564.0,0.989583,Quarter,D4
2159,Right,0,82,81,565.0,0.989583,Quarter,A#5
2158,Left,1,61,81,565.0,0.989583,Quarter,C#4
2160,Right,0,91,82,565.5,0.489583,Eighth,G6
2163,Left,1,60,83,566.0,0.989583,Quarter,C4
2161,Right,0,79,83,566.0,0.989583,Quarter,G5_F6
2164,Right,0,87,83,566.5,0.989583,Quarter,D#6
2165,Left,1,53,84,567.0,0.989583,Quarter,F3
2166,Right,0,81,84,567.0,0.989583,Quarter,A5
2167,Right,0,89,85,567.5,0.489583,Eighth,F6
2169,Right,0,87,86,568.0,0.989583,Eighth,F5_D#6
2168,Left,1,58,86,568.0,0.989583,Quarter,A#3
2171,Right,0,86,86,568.5,0.989583,Quarter,D6
2173,Left,1,54,87,569.0,0.989583,Quarter,F#3
2172,Right,0,82,87,569.0,1.989583,Half,A#5
2174,Right,0,87,88,569.5,0.489583,Eighth,D#6
2176,Left,1,53,89,570.0,0.989583,Quarter,F3
2175,Right,0,86,89,570.0,0.489583,Eighth,D6
2177,Right,0,84,89,570.5,0.489583,Eighth,C6
2178,Left,1,51,90,571.0,0.989583,Quarter,D#3
2179,Right,0,81,90,571.0,0.989583,Quarter,F5_D6_A5
2182,Right,0,87,91,571.5,0.489583,Eighth,D#6
2183,Left,1,50,92,572.0,0.989583,Quarter,D3
2184,Right,0,82,92,572.0,0.989583,Quarter,G6_F5_A#5
2187,Right,0,89,93,572.5,0.489583,Eighth,F6
2190,Left,1,49,93,573.0,0.989583,Quarter,C#3
2188,Right,0,82,93,573.0,0.989583,Quarter,G6_A#5
2191,Right,0,89,94,573.5,0.489583,Eighth,F6
2192,Right,0,89,95,574.0,0.989583,Eighth,G5_F6
2194,Left,1,48,95,574.0,0.989583,Quarter,C3
2195,Right,0,87,96,574.5,0.489583,Eighth,D#6
2196,Left,1,41,96,575.0,0.989583,Quarter,F2
2197,Right,0,89,96,575.0,0.989583,Eighth,F6_A5
2199,Right,0,87,97,575.5,0.489583,Eighth,D#6
2200,Left,1,46,98,576.0,0.989583,Quarter,A#2
2201,Right,0,87,98,576.0,0.989583,Eighth,F5_D#6
2203,Right,0,86,99,576.5,0.489583,Eighth,D6
2205,Left,1,42,99,577.0,0.989583,Quarter,F#2
2204,Right,0,87,99,577.0,1.989583,Eighth,D#6_A#5
2207,Right,0,86,100,577.5,0.489583,Eighth,D6
2209,Right,0,86,101,578.0,0.489583,Eighth,D6
2208,Left,1,41,101,578.0,0.989583,Quarter,F2
2210,Right,0,84,102,578.5,0.489583,Eighth,C6
2212,Right,0,86,103,579.0,0.989583,Quarter,F5_D6_A5
2211,Left,1,39,103,579.0,0.989583,Quarter,D#2
2215,Right,0,87,103,579.5,0.489583,Eighth,D#6
2216,Right,0,77,104,580.0,0.989583,Quarter,G6_F5_A#5
2219,Left,1,38,104,580.0,0.989583,Quarter,D2
2220,Right,0,89,105,580.5,0.489583,Eighth,F6
2221,Left,1,37,106,581.0,0.989583,Quarter,C#2
2222,Right,0,82,106,581.0,0.989583,Quarter,E6_A#5
2224,Right,0,91,106,581.5,0.989583,Quarter,G6
2226,Right,0,87,107,582.0,0.989583,Quarter,D#6
2225,Left,1,36,107,582.0,0.989583,Quarter,C2
2227,Right,0,92,108,582.5,0.989583,Quarter,G#6
2229,Left,1,30,109,583.0,0.989583,Quarter,F#1
2228,Right,0,84,109,583.0,0.989583,Quarter,D#6_C6
2231,Right,0,93,109,583.5,0.489583,Eighth,A6
2232,Right,0,86,110,584.0,0.989583,Quarter,D6_C7_A#5
2233,Left,1,31,110,584.0,0.989583,Quarter,G1
2236,Right,0,94,110,584.5,0.489583,Eighth,A#6
2238,Left,1,39,110,585.0,0.989583,Quarter,D#2
2237,Right,0,82,110,585.0,0.989583,Quarter,D#6_A6_A#5
2241,Right,0,91,110,585.5,0.489583,Eighth,G6
2242,Right,0,82,110,586.0,0.989583,Quarter,F6_D6_A#5
2244,Left,1,41,110,586.0,0.989583,Quarter,F2
2246,Right,0,93,110,587.0,0.989583,Quarter,F6_C6_A6_A5
2250,Left,1,29,110,587.0,0.989583,Quarter,F2_F1
2252,Left,1,34,110,588.0,0.489583,Eighth,A#2_A#1
2254,Right,0,82,110,588.0,1.989583,Half,F6_D6_A#6_A#5
2258,Left,1,62,110,588.5,0.489583,Eighth,F3_D4_A#3
2261,Left,1,53,110,589.0,0.489583,Eighth,F3_D4_A#3
2264,Left,1,53,110,589.5,0.489583,Eighth,F3_D4_A#3
2267,Right,0,74,110,590.0,1.989583,Half,D5_A#5_A#4
2270,Left,1,50,110,590.5,0.489583,Eighth,F3_D3_A#3
2273,Left,1,53,110,591.0,0.489583,Eighth,F3_D3_A#3
2276,Left,1,53,110,591.5,0.489583,Eighth,F3_D3_A#3
2279,Right,0,86,80,592.0,0.989583,Quarter,F5_D6_D5
2282,Left,1,62,80,592.5,0.489583,Eighth,F3_D4_A#3
2285,Right,0,82,80,593.0,0.989583,Quarter,D5_A#5_A#4
2288,Left,1,58,80,593.5,0.489583,Eighth,D3_A#3
2290,Right,0,86,80,594.0,0.989583,Quarter,F5_D6_D5
2293,Left,1,58,80,594.5,0.489583,Eighth,F3_D4_A#3
2296,Right,0,84,80,595.0,0.989583,Quarter,D#5_C6_C5
2299,Left,1,51,80,595.5,0.489583,Eighth,D#3_C4_A#3
2302,Left,1,46,110,596.0,0.489583,Eighth,A#2_A#1
2304,Right,0,87,110,596.0,1.989583,Half,G5_D#6_D#5
2307,Left,1,58,110,596.5,0.489583,Eighth,G3_D#4_A#3
2310,Left,1,55,110,597.0,0.489583,Eighth,G3_D#4_A#3
2313,Left,1,58,110,597.5,0.489583,Eighth,G3_D#4_A#3
2316,Right,0,75,110,598.0,1.989583,Half,D#5_C6_C5
2319,Left,1,51,110,598.5,0.489583,Eighth,D#3_C4_A3
2322,Left,1,60,110,599.0,0.489583,Eighth,D#3_C4_A3
2325,Left,1,51,110,599.5,0.489583,Eighth,D#3_C4_A3
2328,Right,0,79,80,600.0,0.989583,Quarter,G5_D#6_D#5
2331,Left,1,63,80,600.5,0.489583,Eighth,G3_D#4_A#3
2334,Right,0,85,80,601.0,0.989583,Quarter,E5_C#6_C#5
2337,Left,1,61,80,601.5,0.489583,Eighth,E3_C#4_A#3
2340,Right,0,87,80,602.0,0.989583,Quarter,F#5_D#6_D#5
2343,Left,1,58,80,602.5,0.489583,Eighth,F#3_D#4_A#3
2346,Right,0,86,80,603.0,0.989583,Quarter,F5_D6_D5
2349,Left,1,62,80,603.5,0.489583,Eighth,F3_D4_A#3
2354,Right,0,89,110,604.0,1.989583,Half,G#5_F6_F5
2352,Left,1,46,110,604.0,0.489583,Eighth,A#2_A#1
2357,Left,1,65,110,604.5,0.489583,Eighth,G#3_F4_A#3
2360,Left,1,65,110,605.0,0.489583,Eighth,G#3_F4_A#3
2363,Left,1,65,110,605.5,0.489583,Eighth,G#3_F4_A#3
2366,Right,0,86,110,606.0,1.989583,Half,F5_D6_D5
2369,Left,1,62,110,606.5,0.489583,Eighth,F3_D4_A#3
2372,Left,1,62,110,607.0,0.489583,Eighth,F3_D4_A#3
2375,Left,1,62,110,607.5,0.489583,Eighth,F3_D4_A#3
2378,Right,0,77,80,608.0,0.989583,Quarter,G#5_F6_F5
2381,Left,1,65,80,608.5,0.489583,Eighth,G#3_F4_A#3
2384,Right,0,86,80,609.0,0.989583,Quarter,F#5_D6_D5
2387,Left,1,62,80,609.5,0.489583,Eighth,F#3_D4_A#3
2390,Right,0,89,80,610.0,0.989583,Quarter,G#5_F6_F5
2393,Left,1,56,80,610.5,0.489583,Eighth,G#3_F4_A#3
2396,Right,0,75,80,611.0,0.989583,Quarter,G5_D#6_D#5
2399,Left,1,58,80,611.5,0.489583,Eighth,G3_D#4_A#3
2403,Right,0,79,110,612.0,1.989583,Half,G6_G5_A#5
2402,Left,1,34,110,612.0,0.489583,Eighth,A#2_A#1
2407,Left,1,67,110,612.5,0.489583,Eighth,G4_D#4_A#3
2410,Left,1,58,110,613.0,0.489583,Eighth,G4_D#4_A#3
2413,Left,1,58,110,613.5,0.489583,Eighth,G4_D#4_A#3
2416,Right,0,79,110,614.0,1.989583,Half,G5_D#6_D#5_A#5
2420,Left,1,55,110,614.5,0.489583,Eighth,G3_D#4_A#3
2423,Left,1,55,110,615.0,0.489583,Eighth,G3_D#4_A#3
2426,Left,1,55,110,615.5,0.489583,Eighth,G3_D#4_A#3
2429,Right,0,79,80,616.0,0.989583,Quarter,G6_G5_A#5
2432,Left,1,63,81,616.5,0.489583,Eighth,G4_D#4_A#3
2435,Right,0,76,82,617.0,0.989583,Quarter,E6_E5_A#5
2438,Left,1,61,83,617.5,0.489583,Eighth,E4_C#4_A#3
2441,Right,0,78,85,618.0,0.989583,Quarter,F#6_F#5_A#5
2444,Left,1,66,86,618.5,0.489583,Eighth,F#4_D#4_A#3
2447,Right,0,89,87,619.0,0.989583,Quarter,F6_F5_A#5
2450,Left,1,62,89,619.5,0.489583,Eighth,F4_D4_A#3
2453,Right,0,82,90,620.0,0.989583,Quarter,G#6_G#5_A#5
2456,Left,1,58,91,620.5,0.489583,Eighth,G#4_F4_A#3
2459,Right,0,90,93,621.0,0.989583,Quarter,F#6_F#5_A#5
2462,Left,1,66,94,621.5,0.489583,Eighth,F#4_D4_A#3
2465,Right,0,80,95,622.0,0.989583,Quarter,G#6_G#5_A#5
2468,Left,1,68,96,622.5,0.489583,Eighth,G#4_F4_A#3
2471,Right,0,79,98,623.0,0.989583,Quarter,G6_G5_A#5
2474,Left,1,67,99,623.5,0.489583,Eighth,G4_D#4_A#3
2477,Right,0,87,100,624.0,0.989583,Quarter,G6_D#6_A#6_A#5
2481,Left,1,67,102,624.5,0.489583,Eighth,G4_D#4_C4_A#3
2485,Right,0,92,103,625.0,0.989583,Quarter,G#6_G#5
2487,Left,1,68,104,625.5,0.489583,Eighth,G#4_D#4_C4_A#3
2491,Right,0,94,106,626.0,0.989583,Quarter,A#6_A#5
2493,Left,1,70,107,626.5,0.489583,Eighth,D#4_C4_A#4_A#3
2497,Right,0,93,108,627.0,0.989583,Quarter,A6_A5
2499,Left,1,63,109,627.5,0.489583,Eighth,D#4_C4_A4_A#3
2503,Right,0,96,110,628.0,0.989583,Quarter,C7_C6
2505,Left,1,72,110,628.5,0.489583,Eighth,C5_C4
2507,Right,0,94,110,629.0,0.989583,Quarter,A#6_A#5
2509,Left,1,58,110,629.5,0.489583,Eighth,A#4_A#3
2511,Right,0,91,110,630.0,0.989583,Quarter,G6_G5
2513,Left,1,55,110,630.5,0.489583,Eighth,G4_G3
2515,Right,0,89,110,631.0,0.989583,Quarter,F6_F5
2517,Left,1,53,110,631.5,0.489583,Eighth,F4_F3
2519,Right,0,87,110,632.0,0.989583,Quarter,D#6_D#5
2521,Left,1,63,110,632.5,0.489583,Eighth,D#4_D#3
2523,Right,0,74,110,633.0,0.989583,Quarter,D6_D5
2525,Left,1,62,110,633.5,0.489583,Eighth,D4_D3
2527,Right,0,84,110,634.0,0.989583,Quarter,C6_C5
2529,Left,1,48,110,634.5,0.489583,Eighth,C4_C3
2531,Right,0,82,110,635.0,0.989583,Quarter,A#5_A#4
2533,Left,1,46,110,635.5,0.489583,Eighth,A#3_A#2
2535,Right,0,79,110,636.0,0.989583,Quarter,G5_G4
2537,Left,1,55,110,636.5,0.489583,Eighth,G3_G2
2539,Right,0,65,110,637.0,0.989583,Quarter,F5_F4
2541,Left,1,41,110,637.5,0.489583,Eighth,F3_F2
2543,Right,0,63,110,638.0,0.989583,Quarter,D#5_D#4
2545,Left,1,39,110,638.5,0.489583,Eighth,D#3_D#2
2547,Right,0,62,110,639.0,0.989583,Quarter,D5_D4
2549,Left,1,38,110,639.5,0.489583,Eighth,D3_D2
2551,Right,0,72,110,640.0,0.989583,Quarter,C5_C4
2553,Left,1,36,110,640.5,0.489583,Eighth,C3_C2
2555,Right,0,58,110,641.0,0.989583,Quarter,A#4_A#3
2557,Left,1,46,110,641.5,0.489583,Eighth,A#2_A#1
2559,Right,0,67,110,642.0,0.989583,Quarter,G4_G3
2561,Left,1,43,110,642.5,0.489583,Eighth,G2_G1
2563,Right,0,65,110,643.0,0.989583,Quarter,F4_F3
2565,Left,1,29,110,643.5,0.489583,Eighth,F2_F1
2567,Right,0,69,110,644.0,1.989583,Half,A4
2568,Left,1,33,109,644.5,1.989583,Half,A1
2569,Right,0,65,108,645.0,1.989583,Half,F4
2570,Left,1,29,106,645.5,1.989583,Half,F1
2571,Right,0,72,105,646.0,1.989583,Half,C5
2572,Left,1,36,104,646.5,1.989583,Half,C2
2573,Right,0,65,102,647.0,1.989583,Half,F4
2574,Left,1,29,101,647.5,1.989583,Half,F1
2575,Right,0,77,99,648.0,1.989583,Half,F5
2576,Left,1,41,98,648.5,1.989583,Half,F2
2577,Right,0,65,97,649.0,1.989583,Half,F4
2578,Left,1,29,95,649.5,1.989583,Half,F1
2579,Right,0,81,94,650.0,1.989583,Half,A5
2580,Left,1,45,93,650.5,1.989583,Half,A2
2581,Right,0,65,91,651.0,1.989583,Half,F4
2582,Left,1,29,90,651.5,1.989583,Half,F1
2583,Right,0,84,88,652.0,1.989583,Half,C6
2584,Left,1,48,87,652.5,1.989583,Half,C3
2585,Right,0,65,86,653.0,1.989583,Half,F4
2586,Left,1,29,84,653.5,1.989583,Half,F1
2587,Right,0,89,83,654.0,1.989583,Half,F6
2588,Left,1,53,82,654.5,1.989583,Half,F3
2589,Right,0,65,80,655.0,1.989583,Half,F4
2590,Left,1,29,79,655.5,1.989583,Half,F1
2591,Right,0,89,77,656.0,1.989583,Half,F6
2592,Left,1,53,76,656.5,1.989583,Half,F3
2593,Right,0,65,75,657.0,1.989583,Half,F4
2594,Left,1,29,73,657.5,1.989583,Half,F1
2595,Right,0,89,72,658.0,1.989583,Half,F6
2596,Left,1,53,71,658.5,1.489583,DottedQuarter,F3
2597,Left,1,29,110,659.5,0.489583,Eighth,F1
2598,Left,1,62,110,660.0,1.489583,DottedQuarter,F3_D4_A#3
2605,Left,1,62,110,661.5,0.489583,Eighth,F3_D4_A#3
2601,Right,0,74,110,661.5,0.489583,Eighth,F5_D6_D5_A#5
2611,Left,1,53,110,662.0,0.989583,Quarter,F3_D4_A#3
2608,Right,0,82,110,662.0,0.989583,Quarter,F5_D6_D5_A#5
2615,Right,0,74,110,663.0,0.489583,Eighth,F5_D5_D#6_A#5
2619,Left,1,62,110,663.0,0.489583,Eighth,F3_D4_A#3
2622,Right,0,86,110,663.5,0.489583,Eighth,F5_D6_D5_A#5
2625,Left,1,62,110,663.5,0.489583,Eighth,F3_D4_A#3
2633,Left,1,62,110,664.0,0.989583,Quarter,F3_D4_A#3
2629,Right,0,82,110,664.0,0.989583,Quarter,F5_D6_D5_A#5
2640,Left,1,50,110,665.0,0.989583,Quarter,F3_D3_A#3
2636,Right,0,70,110,665.0,0.989583,Quarter,F5_D5_A#5_A#4
2643,Left,1,34,110,667.5,0.489583,Eighth,A#1
2644,Left,1,50,110,668.0,1.489583,DottedQuarter,F3_D4_D3_A#3
2649,Left,1,50,110,669.5,0.489583,Eighth,F3_D4_D3_A#3
2648,Right,0,77,110,669.5,0.489583,Eighth,F5_D6_D5_A#5
2656,Right,0,74,110,670.0,0.989583,Quarter,D6_D5
2657,Left,1,62,110,670.0,0.989583,Quarter,D4_D3
2660,Left,1,54,110,671.0,0.489583,Eighth,F#3_D4_D3_A3
2663,Right,0,86,110,671.0,0.489583,Eighth,F#5_D6_D5_A5
2668,Right,0,78,110,671.5,0.489583,Eighth,F#5_D6_D5_A5
2670,Left,1,62,110,671.5,0.489583,Eighth,F#3_D4_D3_A3
2676,Right,0,78,110,672.0,0.989583,Quarter,F#5_D6_D5_A5
2677,Left,1,57,110,672.0,0.989583,Quarter,F#3_D4_D3_A3
2684,Right,0,74,110,673.0,4.989583,Unknown,F#5_D6_D5_A5
2688,Left,1,54,110,673.0,4.989583,Unknown,F#3_D4_D3_A3
2692,Left,1,50,80,679.5,0.489583,Eighth,D3
2693,Left,1,62,80,680.0,1.489583,DottedQuarter,D4
2694,Right,0,69,80,681.0,0.989583,Quarter,F#4_D5_A4
2697,Left,1,50,80,681.5,0.489583,Eighth,D3
2698,Left,1,62,80,682.0,1.489583,DottedQuarter,D4
2699,Right,0,66,80,683.0,0.989583,Quarter,F#4_D5_A4
2702,Left,1,50,80,683.5,0.489583,Eighth,D3
2703,Left,1,62,80,684.0,1.489583,DottedQuarter,D4
2704,Right,0,66,80,685.0,0.989583,Quarter,F#4_D5_A4
2707,Left,1,50,80,685.5,0.489583,Eighth,D3
2708,Left,1,62,80,686.0,1.489583,DottedQuarter,D4
2709,Right,0,66,80,687.0,0.989583,Quarter,F#4_D5_A4
2712,Left,1,50,80,687.5,0.489583,Eighth,D3
2713,Left,1,60,80,688.0,1.489583,DottedQuarter,C4_A3
2715,Right,0,69,82,689.0,0.989583,Quarter,F#5_D5_C5_A4
2719,Left,1,50,83,689.5,0.489583,Eighth,D3
2720,Left,1,60,84,690.0,1.489583,DottedQuarter,C4_A3
2722,Right,0,78,86,691.0,0.989583,Quarter,F#5_D5_C5_A4
2726,Left,1,50,87,691.5,0.489583,Eighth,D3
2727,Left,1,57,88,692.0,1.489583,DottedQuarter,F#3_A3
2729,Right,0,78,90,693.0,0.989583,Quarter,F#5_C5_A5_A4
2733,Left,1,50,91,693.5,0.489583,Eighth,D3
2734,Left,1,45,92,694.0,1.489583,DottedQuarter,A2
2735,Right,0,84,94,695.0,0.989583,Quarter,F#5_C6_C5_A5
2739,Left,1,50,96,695.5,0.489583,Eighth,D3
2740,Left,1,45,97,696.0,1.489583,DottedQuarter,A2
2741,Right,0,90,99,697.0,0.989583,Quarter,F#6_F#5_C6_A5
2745,Left,1,50,100,697.5,0.489583,Eighth,D3
2746,Left,1,43,101,698.0,1.489583,DottedQuarter,G2
2747,Right,0,81,103,699.0,0.989583,Quarter,C6_A6_A5
2750,Left,1,50,104,699.5,0.489583,Eighth,D3
2751,Left,1,41,105,700.0,1.489583,DottedQuarter,F2
2752,Right,0,93,107,701.0,0.989583,Quarter,C7_C6_A6
2755,Left,1,50,108,701.5,0.489583,Eighth,D3
2756,Left,1,39,109,702.0,1.489583,DottedQuarter,D#2
2757,Right,0,90,110,703.0,0.989583,Quarter,F#6_C7_C6_A6
2761,Left,1,50,110,703.5,0.489583,Eighth,D3
2762,Right,0,84,110,704.0,0.989583,Quarter,F#6_C7_C6_A6
2763,Left,1,38,110,704.0,0.989583,Quarter,D3_D2
2770,Left,1,75,110,705.0,0.489583,Eighth,D#5
2768,Right,0,81,110,705.0,0.489583,Eighth,C6_A5
2773,Left,1,74,108,705.5,0.489583,Eighth,D5
2771,Right,0,83,108,705.5,0.489583,Eighth,G#5_B5
2776,Left,1,75,106,706.0,0.989583,Quarter,D#5
2774,Right,0,81,106,706.0,0.989583,Quarter,C6_A5
2778,Right,0,66,101,707.0,0.489583,Eighth,F#4_A4
2777,Left,1,74,101,707.0,0.489583,Eighth,D5
2780,Left,1,73,99,707.5,0.489583,Eighth,C#5
2781,Right,0,67,99,707.5,0.489583,Eighth,G4_A#4
2785,Left,1,74,97,708.0,0.989583,Quarter,D5
2783,Right,0,69,97,708.0,0.989583,Quarter,F#4_A4
2787,Right,0,84,92,709.0,0.489583,Eighth,C6_A5
2786,Left,1,63,92,709.0,0.489583,Eighth,D#4
2790,Right,0,80,90,709.5,0.489583,Eighth,G#5_B5
2789,Left,1,62,90,709.5,0.489583,Eighth,D4
2792,Right,0,84,87,710.0,0.989583,Quarter,C6_A5
2794,Left,1,63,87,710.0,0.989583,Quarter,D#4
2796,Right,0,90,83,711.0,0.489583,Eighth,F#6
2795,Left,1,62,83,711.0,0.489583,Eighth,D4
2798,Left,1,61,81,711.5,0.489583,Eighth,C#4
2797,Right,0,93,81,711.5,0.489583,Eighth,A6
2799,Right,0,96,80,712.0,0.489583,Eighth,C7
2800,Left,1,62,80,712.0,0.989583,Quarter,D4
2801,Right,0,98,80,712.5,0.489583,Eighth,D7
2802,Right,0,96,80,713.0,0.489583,Eighth,C7
2803,Left,1,50,80,713.5,0.489583,Eighth,D3
2804,Right,0,95,80,713.5,0.489583,Eighth,B6
2805,Left,1,54,80,714.0,0.989583,Quarter,F#3
2806,Right,0,96,80,714.0,0.489583,Eighth,C7
2807,Right,0,98,80,714.5,0.489583,Eighth,D7
2808,Right,0,100,80,715.0,0.489583,Eighth,E7
2809,Left,1,57,80,715.5,0.489583,Eighth,A3
2810,Right,0,96,80,715.5,0.489583,Eighth,C7
2812,Left,1,60,80,716.0,0.989583,Quarter,C4
2811,Right,0,93,80,716.0,0.489583,Eighth,A6
2813,Right,0,95,80,716.5,0.489583,Eighth,B6
2814,Right,0,96,80,717.0,0.489583,Eighth,C7
2816,Right,0,93,80,717.5,0.489583,Eighth,A6
2815,Left,1,66,80,717.5,0.489583,Eighth,F#4
2818,Right,0,90,80,718.0,0.489583,Eighth,F#6
2817,Left,1,69,80,718.0,0.989583,Quarter,A4
2819,Right,0,91,80,718.5,0.489583,Eighth,G6
2820,Right,0,93,80,719.0,0.489583,Eighth,A6
2821,Left,1,72,80,719.0,0.489583,Eighth,C5
2823,Right,0,90,80,719.5,0.489583,Eighth,F#6
2822,Left,1,69,80,719.5,0.489583,Eighth,A4
2824,Right,0,84,80,720.0,0.489583,Eighth,C6
2825,Left,1,81,80,720.0,0.489583,Eighth,A5
2826,Right,0,86,80,720.5,0.489583,Eighth,D6
2827,Left,1,83,80,720.5,0.489583,Eighth,B5
2828,Right,0,88,80,721.0,0.489583,Eighth,E6
2829,Left,1,84,80,721.0,0.489583,Eighth,C6
2830,Left,1,81,80,721.5,0.489583,Eighth,A5
2831,Right,0,84,80,721.5,0.489583,Eighth,C6
2833,Right,0,81,80,722.0,0.489583,Eighth,A5
2832,Left,1,72,80,722.0,0.489583,Eighth,C5
2835,Right,0,83,80,722.5,0.489583,Eighth,B5
2834,Left,1,74,80,722.5,0.489583,Eighth,D5
2837,Right,0,84,80,723.0,0.489583,Eighth,C6
2836,Left,1,76,80,723.0,0.489583,Eighth,E5
2838,Right,0,81,80,723.5,0.489583,Eighth,A5
2839,Left,1,72,80,723.5,0.489583,Eighth,C5
2841,Right,0,78,80,724.0,0.489583,Eighth,F#5
2840,Left,1,69,80,724.0,0.489583,Eighth,A4
2842,Right,0,79,80,724.5,0.489583,Eighth,G5
2843,Left,1,71,80,724.5,0.489583,Eighth,B4
2844,Left,1,72,80,725.0,0.489583,Eighth,C5
2845,Right,0,81,80,725.0,0.489583,Eighth,A5
2847,Left,1,69,80,725.5,0.489583,Eighth,A4
2846,Right,0,78,80,725.5,0.489583,Eighth,F#5
2848,Left,1,66,80,726.0,0.489583,Eighth,F#4
2849,Right,0,74,80,726.0,0.989583,Quarter,D5_C5_A4
2852,Left,1,67,80,726.5,0.489583,Eighth,G4
2853,Left,1,69,80,727.0,0.489583,Eighth,A4
2854,Left,1,66,80,727.5,0.489583,Eighth,F#4
2858,Right,0,95,80,728.0,0.489583,Eighth,B6
2855,Left,1,67,80,728.0,0.989583,Quarter,G4_D4_B4
2859,Right,0,96,80,728.5,0.489583,Eighth,C7
2860,Right,0,95,80,729.0,0.489583,Eighth,B6
2862,Left,1,50,80,729.5,0.489583,Eighth,D3
2861,Right,0,93,80,729.5,0.489583,Eighth,A6
2864,Right,0,95,80,730.0,0.489583,Eighth,B6
2863,Left,1,55,80,730.0,0.989583,Quarter,G3
2865,Right,0,96,80,730.5,0.489583,Eighth,C7
2866,Right,0,98,80,731.0,0.489583,Eighth,D7
2868,Left,1,59,80,731.5,0.489583,Eighth,B3
2867,Right,0,95,80,731.5,0.489583,Eighth,B6
2869,Right,0,91,80,732.0,0.489583,Eighth,G6
2870,Left,1,62,80,732.0,0.989583,Quarter,D4
2871,Right,0,93,80,732.5,0.489583,Eighth,A6
2872,Right,0,95,80,733.0,0.489583,Eighth,B6
2873,Right,0,91,80,733.5,0.489583,Eighth,G6
2874,Left,1,67,80,733.5,0.489583,Eighth,G4
2876,Right,0,86,80,734.0,0.489583,Eighth,D6
2875,Left,1,71,80,734.0,0.989583,Quarter,B4
2877,Right,0,90,80,734.5,0.489583,Eighth,F#6
2878,Right,0,91,80,735.0,0.489583,Eighth,G6
2879,Left,1,74,80,735.5,0.489583,Eighth,D5
2880,Right,0,86,80,735.5,0.489583,Eighth,D6
2882,Right,0,83,80,736.0,0.489583,Eighth,B5
2881,Left,1,79,80,736.0,0.489583,Eighth,G5
2883,Right,0,84,80,736.5,0.489583,Eighth,C6
2884,Left,1,81,80,736.5,0.489583,Eighth,A5
2885,Right,0,86,80,737.0,0.489583,Eighth,D6
2886,Left,1,83,80,737.0,0.489583,Eighth,B5
2887,Right,0,83,80,737.5,0.489583,Eighth,B5
2888,Left,1,79,80,737.5,0.489583,Eighth,G5
2890,Right,0,79,80,738.0,0.489583,Eighth,G5
2889,Left,1,71,80,738.0,0.489583,Eighth,B4
2891,Right,0,81,80,738.5,0.489583,Eighth,A5
2892,Left,1,72,80,738.5,0.489583,Eighth,C5
2893,Right,0,83,80,739.0,0.489583,Eighth,B5
2894,Left,1,74,80,739.0,0.489583,Eighth,D5
2896,Left,1,71,80,739.5,0.489583,Eighth,B4
2895,Right,0,79,80,739.5,0.489583,Eighth,G5
2897,Left,1,67,80,740.0,0.489583,Eighth,G4
2898,Right,0,74,80,740.0,0.489583,Eighth,D5
2899,Left,1,69,80,740.5,0.489583,Eighth,A4
2900,Right,0,78,80,740.5,0.489583,Eighth,F#5
2902,Right,0,79,80,741.0,0.489583,Eighth,G5
2901,Left,1,71,80,741.0,0.489583,Eighth,B4
2904,Right,0,71,80,741.5,0.489583,Eighth,B4
2903,Left,1,67,80,741.5,0.489583,Eighth,G4
2905,Left,1,71,80,742.0,0.489583,Eighth,B4
2906,Right,0,67,80,742.0,0.489583,Eighth,G4
2908,Right,0,69,80,742.5,0.489583,Eighth,A4
2907,Left,1,72,80,742.5,0.489583,Eighth,C5
2910,Right,0,71,80,743.0,0.489583,Eighth,B4
2909,Left,1,74,80,743.0,0.489583,Eighth,D5
2912,Right,0,67,80,743.5,0.489583,Eighth,G4
2911,Left,1,71,80,743.5,0.489583,Eighth,B4
2914,Right,0,69,80,744.0,0.989583,Quarter,F#4_D4_A4
2913,Left,1,72,80,744.0,0.489583,Eighth,C5
2917,Left,1,74,80,744.5,0.489583,Eighth,D5
2919,Right,0,88,80,745.0,0.489583,Eighth,E6
2918,Left,1,72,80,745.0,0.489583,Eighth,C5
2921,Right,0,86,80,745.5,0.489583,Eighth,D6
2920,Left,1,71,80,745.5,0.489583,Eighth,B4
2922,Right,0,88,80,746.0,0.489583,Eighth,E6
2923,Left,1,72,80,746.0,0.489583,Eighth,C5
2925,Right,0,86,80,746.5,0.489583,Eighth,D6
2924,Left,1,74,80,746.5,0.489583,Eighth,D5
2927,Left,1,76,80,747.0,0.489583,Eighth,E5
2926,Right,0,84,80,747.0,0.489583,Eighth,C6
2928,Right,0,88,80,747.5,0.489583,Eighth,E6
2929,Left,1,72,80,747.5,0.489583,Eighth,C5
2930,Left,1,69,80,748.0,0.489583,Eighth,A4
2931,Right,0,84,80,748.0,0.489583,Eighth,C6
2933,Right,0,83,80,748.5,0.489583,Eighth,B5
2932,Left,1,71,80,748.5,0.489583,Eighth,B4
2935,Right,0,81,80,749.0,0.489583,Eighth,A5
2934,Left,1,72,80,749.0,0.489583,Eighth,C5
2937,Right,0,84,80,749.5,0.489583,Eighth,C6
2936,Left,1,69,80,749.5,0.489583,Eighth,A4
2939,Left,1,66,80,750.0,0.489583,Eighth,F#4
2938,Right,0,81,80,750.0,0.489583,Eighth,A5
2941,Right,0,79,80,750.5,0.489583,Eighth,G5
2940,Left,1,67,80,750.5,0.489583,Eighth,G4
2943,Right,0,78,80,751.0,0.489583,Eighth,F#5
2942,Left,1,69,80,751.0,0.489583,Eighth,A4
2945,Right,0,81,80,751.5,0.489583,Eighth,A5
2944,Left,1,66,80,751.5,0.489583,Eighth,F#4
2947,Right,0,76,80,752.0,0.489583,Eighth,E5
2946,Left,1,60,80,752.0,0.489583,Eighth,C4
2949,Right,0,74,80,752.5,0.489583,Eighth,D5
2948,Left,1,62,80,752.5,0.489583,Eighth,D4
2951,Right,0,72,80,753.0,0.489583,Eighth,C5
2950,Left,1,64,80,753.0,0.489583,Eighth,E4
2952,Right,0,76,80,753.5,0.489583,Eighth,E5
2953,Left,1,60,80,753.5,0.489583,Eighth,C4
2955,Right,0,72,80,754.0,0.489583,Eighth,C5
2954,Left,1,57,80,754.0,0.489583,Eighth,A3
2957,Right,0,71,80,754.5,0.489583,Eighth,B4
2956,Left,1,59,80,754.5,0.489583,Eighth,B3
2959,Right,0,69,80,755.0,0.489583,Eighth,A4
2958,Left,1,60,80,755.0,0.489583,Eighth,C4
2961,Right,0,72,80,755.5,0.489583,Eighth,C5
2960,Left,1,57,80,755.5,0.489583,Eighth,A3
2963,Right,0,69,80,756.0,0.489583,Eighth,A4
2962,Left,1,54,80,756.0,0.489583,Eighth,F#3
2964,Left,1,55,80,756.5,0.489583,Eighth,G3
2965,Right,0,67,80,756.5,0.489583,Eighth,G4
2967,Left,1,57,80,757.0,0.489583,Eighth,A3
2966,Right,0,66,80,757.0,0.489583,Eighth,F#4
2969,Left,1,54,80,757.5,0.489583,Eighth,F#3
2968,Right,0,69,80,757.5,0.489583,Eighth,A4
2971,Left,1,69,80,758.0,0.489583,Eighth,A4
2970,Right,0,72,80,758.0,0.489583,Eighth,C5
2973,Left,1,67,80,758.5,0.489583,Eighth,G4
2972,Right,0,71,80,758.5,0.489583,Eighth,B4
2975,Left,1,66,80,759.0,0.489583,Eighth,F#4
2974,Right,0,69,80,759.0,0.489583,Eighth,A4
2977,Left,1,69,80,759.5,0.489583,Eighth,A4
2976,Right,0,72,80,759.5,0.489583,Eighth,C5
2978,Right,0,62,80,760.0,0.989583,Quarter,G4_D4
2979,Left,1,71,80,760.0,0.489583,Eighth,B4
2981,Left,1,72,80,760.5,0.489583,Eighth,C5
2982,Left,1,71,80,761.0,0.489583,Eighth,B4
2983,Right,0,98,80,761.0,0.489583,Eighth,D7
2984,Right,0,96,80,761.5,0.489583,Eighth,C7
2985,Left,1,69,80,761.5,0.489583,Eighth,A4
2986,Right,0,98,80,762.0,0.489583,Eighth,D7
2987,Left,1,71,80,762.0,0.489583,Eighth,B4
2989,Left,1,72,80,762.5,0.489583,Eighth,C5
2988,Right,0,96,80,762.5,0.489583,Eighth,C7
2991,Right,0,95,80,763.0,0.489583,Eighth,B6
2990,Left,1,74,80,763.0,0.489583,Eighth,D5
2992,Left,1,71,80,763.5,0.489583,Eighth,B4
2993,Right,0,98,80,763.5,0.489583,Eighth,D7
2994,Left,1,67,80,764.0,0.489583,Eighth,G4
2995,Right,0,95,80,764.0,0.489583,Eighth,B6
2996,Right,0,93,80,764.5,0.489583,Eighth,A6
2997,Left,1,69,80,764.5,0.489583,Eighth,A4
2999,Right,0,91,80,765.0,0.489583,Eighth,G6
2998,Left,1,71,80,765.0,0.489583,Eighth,B4
3001,Left,1,67,80,765.5,0.489583,Eighth,G4
3000,Right,0,95,80,765.5,0.489583,Eighth,B6
3003,Right,0,83,80,766.0,0.489583,Eighth,B5
3002,Left,1,62,80,766.0,0.489583,Eighth,D4
3004,Left,1,66,80,766.5,0.489583,Eighth,F#4
3005,Right,0,81,80,766.5,0.489583,Eighth,A5
3006,Left,1,67,80,767.0,0.489583,Eighth,G4
3007,Right,0,79,80,767.0,0.489583,Eighth,G5
3008,Left,1,62,80,767.5,0.489583,Eighth,D4
3009,Right,0,83,80,767.5,0.489583,Eighth,B5
3011,Right,0,74,80,768.0,0.489583,Eighth,D5
3010,Left,1,59,80,768.0,0.489583,Eighth,B3
3013,Left,1,60,80,768.5,0.489583,Eighth,C4
3012,Right,0,72,80,768.5,0.489583,Eighth,C5
3015,Right,0,71,80,769.0,0.489583,Eighth,B4
3014,Left,1,62,80,769.0,0.489583,Eighth,D4
3017,Right,0,74,80,769.5,0.489583,Eighth,D5
3016,Left,1,59,80,769.5,0.489583,Eighth,B3
3019,Right,0,83,80,770.0,0.489583,Eighth,B5
3018,Left,1,55,80,770.0,0.489583,Eighth,G3
3020,Left,1,57,80,770.5,0.489583,Eighth,A3
3021,Right,0,81,80,770.5,0.489583,Eighth,A5
3023,Right,0,79,80,771.0,0.489583,Eighth,G5
3022,Left,1,59,80,771.0,0.489583,Eighth,B3
3025,Left,1,55,80,771.5,0.489583,Eighth,G3
3024,Right,0,83,80,771.5,0.489583,Eighth,B5
3027,Left,1,50,80,772.0,0.489583,Eighth,D3
3026,Right,0,86,80,772.0,0.489583,Eighth,D6
3028,Right,0,84,80,772.5,0.489583,Eighth,C6
3029,Left,1,54,80,772.5,0.489583,Eighth,F#3
3031,Left,1,55,80,773.0,0.489583,Eighth,G3
3030,Right,0,83,80,773.0,0.489583,Eighth,B5
3033,Left,1,50,80,773.5,0.489583,Eighth,D3
3032,Right,0,86,80,773.5,0.489583,Eighth,D6
3035,Left,1,48,80,774.0,0.489583,Eighth,C3
3034,Right,0,88,80,774.0,0.989583,Quarter,E6
3036,Left,1,55,80,774.5,0.489583,Eighth,G3
3037,Right,0,86,80,775.0,0.989583,Quarter,F#6_D6_A5
3040,Left,1,50,80,775.0,0.489583,Eighth,D3
3041,Left,1,48,80,775.5,0.489583,Eighth,C3
3043,Right,0,79,80,776.0,0.989583,Quarter,G6_G5_D6
3042,Left,1,47,80,776.0,0.989583,Quarter,B2
3046,Left,1,55,80,777.0,0.989583,Quarter,G3_G2
3048,Left,1,52,80,778.0,0.489583,Eighth,E3_C3
3050,Left,1,60,80,779.0,0.489583,Eighth,C4
3051,Left,1,57,80,779.5,0.489583,Eighth,A3
3052,Left,1,54,80,780.0,0.989583,Quarter,F#3
3055,Left,1,50,80,781.0,0.989583,Quarter,D4_D3
3053,Right,0,66,80,781.0,0.989583,Quarter,F#4_A4
3059,Left,1,55,80,782.0,0.489583,Eighth,G3_B3
3057,Right,0,71,80,782.0,0.489583,Eighth,G4_B4
3062,Right,0,83,80,783.0,0.489583,Eighth,G6_B5
3061,Left,1,64,80,783.0,1.989583,Half,G3_E4
3065,Right,0,81,80,783.5,0.489583,Eighth,F#6_A5
3067,Right,0,83,80,784.0,0.989583,Quarter,G6_B5
3069,Right,0,79,80,785.0,0.989583,Quarter,G5_E6_B5
3070,Left,1,64,80,785.0,0.989583,Quarter,G3_E4
3076,Right,0,78,80,786.0,0.989583,Quarter,F#5_D6_A5
3074,Left,1,57,80,786.0,0.989583,Quarter,F#4_A3
3079,Right,0,79,80,787.0,0.989583,Quarter,G5_E5_C#6
3081,Left,1,57,80,787.0,0.989583,Quarter,G4_A3
3084,Left,1,69,80,787.5,0.489583,Eighth,A4
3085,Right,0,88,80,788.0,0.989583,Quarter,G5_E6
3087,Left,1,69,80,788.0,2.989583,Quarter,D4_A4
3089,Right,0,86,80,789.0,0.989583,Quarter,F#5_D6
3090,Left,1,71,80,789.0,0.739583,DottedEighth,B4
3092,Left,1,73,80,789.75,0.239583,Sixteenth,C#5
3093,Right,0,86,80,790.0,0.989583,Quarter,F#5_D6
3095,Left,1,74,80,790.0,0.989583,Quarter,D5
3097,Right,0,86,80,791.0,0.489583,Eighth,G5_D6
3096,Left,1,76,80,791.0,0.489583,Eighth,E5
3099,Right,0,81,80,791.5,0.489583,Eighth,C6_A5
3100,Left,1,78,80,791.5,0.489583,Eighth,F#5
3103,Right,0,83,80,792.0,0.989583,Quarter,B5
3102,Left,1,79,80,792.0,0.989583,Quarter,G5
3106,Right,0,79,80,793.0,1.489583,DottedQuarter,G6_G5
3104,Left,1,74,80,793.0,0.989583,Quarter,D5_B4
3108,Left,1,76,80,794.0,0.489583,Eighth,E5_C5
3109,Right,0,88,80,794.0,0.489583,Eighth,E6
3111,Right,0,84,80,795.0,0.489583,Eighth,C7_C6
3113,Left,1,69,80,795.0,0.489583,Eighth,A4
3114,Right,0,88,80,795.5,0.489583,Eighth,E6_A6
3116,Left,1,72,80,795.5,0.489583,Eighth,C5
3118,Right,0,90,80,796.0,0.989583,Quarter,F#6
3117,Left,1,74,80,796.0,0.989583,Quarter,D5
3119,Right,0,86,80,797.0,1.489583,DottedQuarter,D7_D6
3121,Left,1,66,80,797.0,0.989583,Quarter,F#4_A4
3125,Right,0,95,80,798.0,0.489583,Eighth,B6
3123,Left,1,71,80,798.0,0.489583,Eighth,G4_B4
3126,Right,0,91,80,799.0,0.489583,Eighth,G6
3127,Right,0,90,80,799.5,0.489583,Eighth,F#6
3128,Right,0,91,80,800.0,0.989583,Quarter,G6
3129,Left,1,71,80,800.0,0.989583,Quarter,G4_E4_B4
3132,Left,1,64,80,801.0,0.989583,Quarter,G4_E4_C5
3133,Right,0,88,80,801.0,0.989583,Quarter,E6
3136,Right,0,84,80,802.0,0.989583,Quarter,C6
3137,Left,1,67,80,802.0,0.989583,Quarter,G4_E4_C5
3140,Left,1,69,80,802.5,0.489583,Eighth,A4
3141,Left,1,71,80,803.0,0.989583,Quarter,F#4_D#4_B4
3143,Right,0,78,80,803.0,0.989583,Quarter,F#5_B5
3146,Left,1,66,80,804.0,0.989583,Quarter,F#4_D#4_B4
3147,Right,0,78,80,804.0,2.989583,Quarter,F#5_B5
3152,Left,1,59,80,805.0,0.989583,Quarter,D#4_B3
3151,Right,0,81,80,805.0,0.489583,Eighth,A5
3154,Right,0,79,80,805.5,0.489583,Eighth,G5
3156,Left,1,64,80,806.0,0.989583,Quarter,G4_E4
3155,Right,0,79,80,806.0,0.989583,Quarter,G5
3161,Left,1,62,80,807.0,0.489583,Eighth,F4_D4
3158,Right,0,88,80,807.0,1.989583,Quarter,G5_E6_A#5
3163,Left,1,61,80,807.5,0.489583,Eighth,E4_C#4
3165,Right,0,81,80,808.0,2.989583,DottedHalf,A5
3166,Left,1,64,80,808.0,0.989583,Quarter,E4_C#4
3168,Left,1,57,80,809.0,0.989583,Quarter,C#4_A3
3169,Right,0,79,80,809.0,0.489583,Eighth,G5
3171,Right,0,77,80,809.5,0.489583,Eighth,F5
3172,Right,0,77,80,810.0,0.989583,Quarter,F5
3173,Left,1,62,80,810.0,0.989583,Quarter,F4_D4
3175,Right,0,80,80,811.0,1.989583,Quarter,G#5_F5_D6
3177,Left,1,60,80,811.0,0.489583,Eighth,D#4_C4
3180,Left,1,62,80,811.5,0.489583,Eighth,D4_B3
3184,Right,0,79,80,812.0,2.989583,DottedHalf,G5
3182,Left,1,62,80,812.0,0.989583,Quarter,D4_B3
3187,Right,0,77,80,813.0,0.489583,Eighth,F5
3185,Left,1,59,80,813.0,0.989583,Quarter,G3_B3
3188,Right,0,76,80,813.5,0.489583,Eighth,E5
3191,Right,0,76,80,814.0,0.989583,Quarter,E5
3189,Left,1,60,80,814.0,0.989583,Quarter,E4_C4
3192,Left,1,59,80,815.0,0.489583,Eighth,D4_B3
3194,Right,0,76,80,815.0,1.989583,Quarter,G5_E5_C#6
3197,Left,1,61,80,815.5,0.489583,Eighth,C#4_A#3
3201,Right,0,78,80,816.0,2.989583,DottedHalf,F#5
3199,Left,1,61,80,816.0,0.989583,Quarter,C#4_A#3
3204,Right,0,76,80,817.0,0.489583,Eighth,E5
3202,Left,1,58,80,817.0,0.989583,Quarter,F#3_A#3
3205,Right,0,75,80,817.5,0.489583,Eighth,D#5
3206,Left,1,59,80,818.0,0.989583,Quarter,D4_B3
3208,Right,0,74,80,818.0,0.989583,Quarter,D5
3212,Left,1,60,80,819.0,0.489583,Eighth,C4_A3
3209,Right,0,74,80,819.0,1.989583,Quarter,F5_D5_B5
3214,Left,1,56,80,819.5,1.489583,DottedQuarter,G#3_B3
3216,Right,0,77,80,820.0,0.489583,Eighth,F5
3217,Right,0,76,80,820.5,0.989583,Quarter,E5
3218,Right,0,73,80,821.0,0.989583,Quarter,C#5
3219,Left,1,57,80,821.0,0.989583,Eighth,E4_A3
3221,Left,1,55,80,821.5,0.489583,Eighth,G3
3222,Right,0,81,80,821.5,0.489583,Eighth,A5
3225,Right,0,75,80,822.0,0.989583,Eighth,D#5_C5
3223,Left,1,57,80,822.0,0.989583,Quarter,F#3_A3
3227,Right,0,74,80,822.5,0.989583,Quarter,D5
3228,Left,1,55,80,823.0,0.989583,Eighth,G3_B3
3230,Right,0,71,80,823.0,0.989583,Quarter,B4
3231,Left,1,47,80,823.5,0.489583,Eighth,B2
3232,Right,0,79,80,823.5,0.489583,Eighth,G5
3234,Left,1,45,80,824.0,5.989583,Unknown,D3_C4_A2
3233,Right,0,74,80,824.0,0.489583,Eighth,D5
3237,Right,0,86,81,824.5,0.489583,Eighth,D6
3238,Right,0,85,82,825.0,0.489583,Eighth,C#6
3239,Right,0,84,84,825.5,0.489583,Eighth,C6
3240,Right,0,81,85,826.0,0.489583,Eighth,A5
3241,Right,0,78,86,826.5,0.489583,Eighth,F#5
3242,Right,0,75,88,827.0,0.489583,Eighth,D#5
3243,Right,0,74,89,827.5,0.489583,Eighth,D5
3244,Right,0,73,90,828.0,0.489583,Eighth,C#5
3245,Right,0,72,92,828.5,0.489583,Eighth,C5
3246,Right,0,69,93,829.0,0.489583,Eighth,A4
3247,Right,0,66,94,829.5,0.489583,Eighth,F#4
3248,Right,0,67,80,829.9375,0.989583,Quarter,G4
3249,Left,1,50,80,830.0,1.989583,Half,D3_B3_B2
3250,Right,0,63,80,830.0,0.489583,Eighth,D#4
3253,Right,0,62,80,830.5,0.489583,Eighth,D4
3254,Right,0,76,80,831.0,0.989583,Eighth,G4_E5
3256,Right,0,74,80,831.5,0.489583,Eighth,D5
3257,Left,1,45,80,832.0,5.989583,Unknown,D3_C4_A2
3258,Right,0,74,80,832.0,0.489583,Eighth,D5
3261,Right,0,86,81,832.5,0.489583,Eighth,D6
3262,Right,0,85,82,833.0,0.489583,Eighth,C#6
3263,Right,0,84,84,833.5,0.489583,Eighth,C6
3264,Right,0,81,85,834.0,0.489583,Eighth,A5
3265,Right,0,78,86,834.5,0.489583,Eighth,F#5
3266,Right,0,75,88,835.0,0.489583,Eighth,D#5
3267,Right,0,74,89,835.5,0.489583,Eighth,D5
3268,Right,0,73,90,836.0,0.489583,Eighth,C#5
3269,Right,0,72,92,836.5,0.489583,Eighth,C5
3270,Right,0,69,93,837.0,0.489583,Eighth,A4
3271,Right,0,66,94,837.5,0.489583,Eighth,F#4
3272,Right,0,67,80,837.9375,0.989583,Quarter,G4
3276,Right,0,63,80,838.0,0.489583,Eighth,D#4
3273,Left,1,47,80,838.0,1.989583,Half,D3_B3_B2
3277,Right,0,62,80,838.5,0.489583,Eighth,D4
3278,Right,0,76,80,839.0,0.989583,Eighth,G4_E5
3280,Right,0,74,80,839.5,0.489583,Eighth,D5
3281,Left,1,35,80,840.0,1.989583,Half,B2_B1
3282,Right,0,74,80,840.0,0.489583,Eighth,D5
3284,Right,0,79,80,840.5,0.489583,Eighth,G5_B4
3286,Right,0,74,80,841.0,0.489583,Eighth,D5_B5
3288,Right,0,81,80,841.5,0.489583,Eighth,C5_A5
3290,Right,0,79,80,842.0,3.989583,Whole,G5_B4
3291,Left,1,40,80,842.0,1.989583,Half,E3_E2
3294,Right,0,75,80,842.5,0.489583,Eighth,D#5
3295,Right,0,76,80,843.0,0.489583,Eighth,E5
3296,Right,0,71,80,843.5,0.489583,Eighth,B4
3297,Left,1,37,80,844.0,1.989583,Half,C#3_C#2
3298,Right,0,70,80,844.0,0.489583,Eighth,A#4
3300,Right,0,75,80,844.5,0.489583,Eighth,D#5
3301,Right,0,76,80,845.0,0.489583,Eighth,E5
3302,Right,0,70,80,845.5,0.489583,Eighth,A#4
3304,Right,0,69,80,846.0,0.989583,Eighth,F#5_A4
3303,Left,1,38,80,846.0,0.989583,Quarter,D3_D2
3307,Right,0,73,80,846.5,0.489583,Eighth,C#5
3308,Right,0,74,80,847.0,0.989583,Quarter,D5
3309,Right,0,86,80,847.5,0.489583,Eighth,D6
3311,Left,1,57,80,848.0,5.989583,Unknown,D4_C5_A3
3310,Right,0,86,80,848.0,0.489583,Eighth,D6
3314,Right,0,98,81,848.5,0.489583,Eighth,D7
3315,Right,0,97,82,849.0,0.489583,Eighth,C#7
3316,Right,0,96,84,849.5,0.489583,Eighth,C7
3317,Right,0,93,85,850.0,0.489583,Eighth,A6
3318,Right,0,90,86,850.5,0.489583,Eighth,F#6
3319,Right,0,87,88,851.0,0.489583,Eighth,D#6
3320,Right,0,86,89,851.5,0.489583,Eighth,D6
3321,Right,0,85,90,852.0,0.489583,Eighth,C#6
3322,Right,0,84,92,852.5,0.489583,Eighth,C6
3323,Right,0,81,93,853.0,0.489583,Eighth,A5
3324,Right,0,78,94,853.5,0.489583,Eighth,F#5
3325,Right,0,79,80,853.9375,0.989583,Quarter,G5
3326,Right,0,75,80,854.0,0.489583,Eighth,D#5
3327,Left,1,59,80,854.0,1.989583,Half,D4_B4_B3
3330,Right,0,74,80,854.5,0.489583,Eighth,D5
3331,Right,0,79,80,855.0,0.989583,Quarter,G5_E6
3333,Right,0,86,80,855.5,0.489583,Eighth,D6
3334,Right,0,86,80,856.0,0.489583,Eighth,D6
3335,Left,1,60,80,856.0,5.989583,Unknown,D3_C4_A2
3338,Right,0,98,81,856.5,0.489583,Eighth,D7
3339,Right,0,97,82,857.0,0.489583,Eighth,C#7
3340,Right,0,96,84,857.5,0.489583,Eighth,C7
3341,Right,0,93,85,858.0,0.489583,Eighth,A6
3342,Right,0,90,86,858.5,0.489583,Eighth,F#6
3343,Right,0,87,88,859.0,0.489583,Eighth,D#6
3344,Right,0,86,89,859.5,0.489583,Eighth,D6
3345,Right,0,85,90,860.0,0.489583,Eighth,C#6
3346,Right,0,84,92,860.5,0.489583,Eighth,C6
3347,Right,0,81,93,861.0,0.489583,Eighth,A5
3348,Right,0,78,94,861.5,0.489583,Eighth,F#5
3349,Right,0,79,80,861.9375,0.989583,Quarter,G5
3353,Right,0,75,80,862.0,0.489583,Eighth,D#5
3350,Left,1,59,80,862.0,0.989583,Quarter,D3_B3_B2
3354,Right,0,74,80,862.5,0.489583,Eighth,D5
3356,Left,1,59,80,863.0,0.989583,Quarter,B3
3355,Right,0,88,80,863.0,0.989583,Eighth,G5_E6
3358,Right,0,86,80,863.5,0.489583,Eighth,D6
3359,Right,0,86,80,864.0,0.489583,Eighth,D6
3360,Left,1,59,80,864.0,1.989583,Half,B3
3361,Right,0,79,80,864.5,0.489583,Eighth,G5_B4
3363,Right,0,83,80,865.0,0.489583,Eighth,D5_B5
3365,Right,0,81,80,865.5,0.489583,Eighth,C5_A5
3368,Left,1,64,80,866.0,1.989583,Half,E4
3367,Right,0,79,80,866.0,3.989583,Whole,G5_B4
3370,Right,0,75,80,866.5,0.489583,Eighth,D#5
3371,Right,0,76,80,867.0,0.489583,Eighth,E5
3372,Right,0,71,80,867.5,0.489583,Eighth,B4
3373,Right,0,70,80,868.0,0.489583,Eighth,A#4
3374,Left,1,61,80,868.0,1.989583,Half,C#4
3375,Right,0,75,80,868.5,0.489583,Eighth,D#5
3376,Right,0,76,80,869.0,0.489583,Eighth,E5
3377,Right,0,70,80,869.5,0.489583,Eighth,A#4
3378,Right,0,69,80,870.0,0.989583,Eighth,F#5_A4
3380,Left,1,62,80,870.0,0.989583,Quarter,D4
3381,Right,0,74,80,870.5,0.489583,Eighth,D5
3382,Right,0,67,80,871.0,0.989583,Eighth,G5_G4
3384,Left,1,63,80,871.0,0.989583,Quarter,D#4
3385,Right,0,72,80,871.5,0.489583,Eighth,C5
3386,Right,0,79,80,872.0,0.489583,Eighth,G5
3387,Left,1,65,80,872.0,1.989583,Half,F4
3388,Right,0,84,80,872.5,0.489583,Eighth,E5_C6
3390,Right,0,79,81,873.0,0.489583,Eighth,G5_E6
3392,Right,0,86,82,873.5,0.489583,Eighth,F5_D6
3394,Right,0,84,83,874.0,3.989583,Whole,E5_C6
3395,Left,1,69,83,874.0,1.989583,Half,A4
3397,Right,0,80,84,874.5,0.489583,Eighth,G#5
3398,Right,0,81,85,875.0,0.489583,Eighth,A5
3399,Right,0,76,86,875.5,0.489583,Eighth,E5
3400,Right,0,75,87,876.0,0.489583,Eighth,D#5
3401,Left,1,66,87,876.0,1.989583,Half,F#4
3402,Right,0,80,88,876.5,0.489583,Eighth,G#5
3403,Right,0,81,89,877.0,0.489583,Eighth,A5
3404,Right,0,76,90,877.5,0.489583,Eighth,E5
3405,Left,1,67,91,878.0,0.989583,Quarter,G4
3406,Right,0,74,91,878.0,0.989583,Eighth,D5_B5
3408,Right,0,79,92,878.5,0.489583,Eighth,G5
3411,Left,1,68,93,879.0,0.989583,Quarter,G#4
3409,Right,0,72,93,879.0,0.989583,Eighth,C6_C5
3412,Right,0,77,94,879.5,0.489583,Eighth,F5
3413,Left,1,69,94,880.0,1.989583,Half,A4
3414,Right,0,84,94,880.0,0.489583,Eighth,C6
3415,Right,0,89,95,880.5,0.489583,Eighth,F6_A5
3417,Right,0,93,96,881.0,0.489583,Eighth,C6_A6
3419,Right,0,82,97,881.5,0.489583,Eighth,G6_A#5
3421,Right,0,80,98,882.0,3.989583,Eighth,G#5_F6
3423,Left,1,73,98,882.0,1.989583,Half,C#5
3424,Right,0,77,99,882.5,0.489583,Eighth,F5
3425,Right,0,80,100,883.0,0.489583,Eighth,G#5
3426,Right,0,79,101,883.5,0.489583,Eighth,G5
3428,Left,1,71,102,884.0,1.989583,Half,B4
3427,Right,0,80,102,884.0,0.489583,Eighth,G#5
3429,Right,0,85,103,884.5,0.489583,Eighth,C#6
3430,Right,0,86,104,885.0,0.489583,Eighth,D6
3431,Right,0,80,105,885.5,0.489583,Eighth,G#5
3432,Right,0,88,106,886.0,2.989583,DottedHalf,G5_E6
3434,Left,1,60,106,886.0,2.989583,DottedHalf,C5_C4
3436,Right,0,83,107,886.5,0.489583,Eighth,B5
3437,Right,0,84,108,887.0,0.489583,Eighth,C6
3438,Right,0,79,109,887.5,0.489583,Eighth,G5
3439,Right,0,84,109,888.0,0.989583,Quarter,C6
3440,Left,1,48,120,889.0,0.989583,Quarter,C3_C2
3442,Right,0,88,120,889.0,0.989583,Quarter,G5_E6_E5_C6
3446,Right,0,83,120,890.0,0.989583,Quarter,D6_B5
3448,Right,0,84,120,891.0,0.489583,Eighth,E6_C6
3450,Right,0,86,120,891.5,0.489583,Eighth,F6_D6
3452,Right,0,88,120,892.0,0.989583,Quarter,G6_E6
3454,Left,1,60,120,893.0,0.989583,Quarter,E4_C4
3455,Right,0,84,120,893.0,0.989583,Quarter,E6_C6
3458,Left,1,62,120,894.0,0.989583,Quarter,D4_B3
3460,Left,1,64,120,895.0,0.489583,Eighth,E4_C4
3462,Left,1,62,120,895.5,0.489583,Eighth,F4_D4
3464,Left,1,64,120,896.0,0.989583,Quarter,G4_E4
3470,Left,1,48,120,897.0,2.989583,DottedHalf,C3_C2
3466,Right,0,84,120,897.0,0.989583,Quarter,G5_E6_E5_C6
3472,Right,0,86,120,898.0,0.989583,Quarter,D6_B5
3474,Right,0,88,120,899.0,0.489583,Eighth,E6_C6
3476,Right,0,89,120,899.5,0.489583,Eighth,F6_D6
3478,Right,0,91,120,900.0,0.989583,Quarter,G6_E6
3480,Right,0,91,120,901.0,0.989583,Quarter,G6_G5_E6_A5
3481,Left,1,49,120,901.0,0.989583,Quarter,C#3_C#2
3486,Left,1,45,120,903.0,0.989583,Quarter,A2_A1
3487,Right,0,88,120,903.0,0.989583,Quarter,G6_G5_E6_C#6
3492,Right,0,79,120,905.0,0.989583,Quarter,G6_G5_D6_B5
3496,Left,1,50,120,905.0,0.989583,Quarter,D3_D2
3498,Right,0,91,120,907.0,0.989583,Quarter,G6_G5_C#6_A5
3502,Left,1,52,120,907.0,0.989583,Quarter,E3_E2
3504,Right,0,86,120,908.0,1.989583,Half,G6_G5_D6_B5
3508,Left,1,38,120,908.0,0.489583,Eighth,D2
3509,Left,1,42,119,908.5,0.489583,Eighth,F#2
3510,Left,1,43,117,909.0,0.489583,Eighth,G2
3511,Left,1,47,115,909.5,0.489583,Eighth,B2
3512,Right,0,79,113,910.0,2.989583,DottedHalf,G5_D6_B5
3514,Left,1,50,113,910.0,0.489583,Eighth,D3
3516,Left,1,54,111,910.5,0.489583,Eighth,F#3
3517,Left,1,55,110,911.0,0.489583,Eighth,G3
3518,Left,1,59,108,911.5,0.489583,Eighth,B3
3519,Left,1,62,106,912.0,0.489583,Eighth,D4
3520,Left,1,66,104,912.5,0.489583,Eighth,F#4
3521,Right,0,74,102,913.0,0.989583,Quarter,G5_D5_B5
3524,Left,1,67,102,913.0,0.489583,Eighth,G4
3525,Left,1,71,101,913.5,0.489583,Eighth,B4
3526,Right,0,74,100,914.0,0.489583,Eighth,D5
3527,Right,0,78,100,914.5,0.489583,Eighth,F#5
3529,Left,1,67,101,915.0,0.489583,Eighth,G4
3528,Right,0,79,101,915.0,0.489583,Eighth,G5
3530,Right,0,83,101,915.5,0.489583,Eighth,B5
3531,Left,1,71,101,915.5,0.489583,Eighth,B4
3532,Right,0,85,102,916.0,0.489583,Eighth,C#6
3533,Left,1,73,102,916.0,0.489583,Eighth,C#5
3534,Left,1,74,103,916.5,0.489583,Eighth,D5
3535,Right,0,86,103,916.5,0.489583,Eighth,D6
3537,Right,0,88,103,917.0,0.489583,Eighth,E6
3536,Left,1,76,103,917.0,0.489583,Eighth,E5
3539,Left,1,74,104,917.5,0.489583,Eighth,D5
3538,Right,0,86,104,917.5,0.489583,Eighth,D6
3541,Left,1,78,104,918.0,0.489583,Eighth,F#5
3540,Right,0,90,104,918.0,0.489583,Eighth,F#6
3543,Right,0,91,105,918.5,0.489583,Eighth,G6
3542,Left,1,79,105,918.5,0.489583,Eighth,G5
3544,Right,0,93,106,919.0,0.489583,Eighth,A6
3545,Left,1,81,106,919.0,0.489583,Eighth,A5
3546,Right,0,91,106,919.5,0.489583,Eighth,G6
3547,Left,1,79,106,919.5,0.489583,Eighth,G5
3548,Right,0,94,107,920.0,0.489583,Eighth,A#6
3549,Left,1,82,107,920.0,0.489583,Eighth,A#5
3550,Left,1,83,108,920.5,0.489583,Eighth,B5
3551,Right,0,95,108,920.5,0.489583,Eighth,B6
3553,Right,0,96,108,921.0,0.489583,Eighth,C7
3552,Left,1,84,108,921.0,0.489583,Eighth,C6
3554,Right,0,95,109,921.5,0.489583,Eighth,B6
3555,Left,1,83,109,921.5,0.489583,Eighth,B5
3556,Right,0,98,110,922.0,0.989583,Quarter,D7
3557,Left,1,86,110,922.0,0.989583,Quarter,D6
3558,Right,0,81,80,923.0,0.989583,Quarter,D5_C6_A5
3559,Left,1,62,80,923.0,0.322917,Triplet,D4
3562,Left,1,64,80,923.333333,0.322917,Triplet,E4
3563,Left,1,66,80,923.666667,0.322917,Triplet,F#4
3564,Right,0,74,80,924.0,3.989583,Whole,G5_D5_B5
3567,Left,1,55,80,924.0,0.65625,DottedEighth,G3
3568,Left,1,71,80,924.666667,0.65625,DottedEighth,B4
3569,Left,1,67,80,925.333333,0.65625,DottedEighth,G4
3570,Left,1,66,80,926.0,0.65625,DottedEighth,F#4
3571,Left,1,71,80,926.666667,0.65625,DottedEighth,B4
3572,Left,1,67,80,927.333333,0.65625,DottedEighth,G4
3573,Right,0,84,80,928.0,1.989583,Half,G5_C6
3575,Left,1,63,80,928.0,0.65625,DottedEighth,D#4
3576,Left,1,72,80,928.666667,0.65625,DottedEighth,C5
3577,Left,1,67,80,929.333333,0.65625,DottedEighth,G4
3581,Left,1,60,80,930.0,0.65625,DottedEighth,C4
3578,Right,0,84,80,930.0,1.989583,Half,G5_D#6_C6
3582,Left,1,72,80,930.666667,0.65625,DottedEighth,C5
3583,Left,1,67,80,931.333333,0.65625,DottedEighth,G4
3584,Right,0,86,80,932.0,3.989583,Whole,G6_G5_D6
3586,Left,1,59,80,932.0,0.65625,DottedEighth,B3
3588,Left,1,71,80,932.666667,0.65625,DottedEighth,B4
3589,Left,1,67,80,933.333333,0.65625,DottedEighth,G4
3590,Right,0,83,80,934.0,1.989583,Half,B5
3591,Left,1,55,80,934.0,0.65625,DottedEighth,G3
3592,Left,1,71,80,934.666667,0.65625,DottedEighth,B4
3593,Left,1,67,80,935.333333,0.65625,DottedEighth,G4
3597,Left,1,60,80,936.0,0.65625,DottedEighth,C4
3594,Right,0,87,80,936.0,1.989583,Half,G5_D#6_C6
3598,Left,1,72,80,936.666667,0.65625,DottedEighth,C5
3599,Left,1,67,80,937.333333,0.65625,DottedEighth,G4
3601,Left,1,63,80,938.0,0.65625,DottedEighth,D#4
3600,Right,0,84,80,938.0,1.989583,Half,G5_C6
3603,Left,1,72,80,938.666667,0.65625,DottedEighth,C5
3604,Left,1,67,80,939.333333,0.65625,DottedEighth,G4
3607,Left,1,62,80,940.0,0.65625,DottedEighth,D4
3605,Right,0,82,80,940.0,3.989583,Half,G5_A#5
3608,Left,1,70,80,940.666667,0.65625,DottedEighth,A#4
3609,Left,1,67,80,941.333333,0.65625,DottedEighth,G4
3610,Left,1,62,80,942.0,0.65625,DottedEighth,D4
3611,Right,0,83,80,942.0,1.989583,Half,B5
3612,Left,1,71,80,942.666667,0.65625,DottedEighth,B4
3613,Left,1,67,80,943.333333,0.65625,DottedEighth,G4
3616,Left,1,62,80,944.0,0.65625,DottedEighth,D4
3614,Right,0,78,80,944.0,1.989583,Half,F#5_D6
3617,Left,1,72,80,944.666667,0.65625,DottedEighth,C5
3618,Left,1,69,80,945.333333,0.65625,DottedEighth,A4
3620,Right,0,81,80,946.0,1.489583,DottedQuarter,C6_A5
3619,Left,1,50,80,946.0,0.65625,DottedEighth,D3
3622,Left,1,62,80,946.666667,0.65625,DottedEighth,D4
3623,Right,0,74,80,947.0,0.989583,Quarter,D5
3624,Left,1,60,80,947.333333,0.65625,DottedEighth,C4
3625,Right,0,78,80,947.5,0.489583,Eighth,F#5_A5
3630,Left,1,43,80,948.0,0.489583,Eighth,G2
3627,Right,0,74,80,948.0,3.989583,Quarter,G5_D5_B5
3631,Right,0,81,80,948.25,0.489583,Eighth,A5
3632,Left,1,55,80,948.5,0.489583,Eighth,G3
3633,Right,0,79,80,948.5,0.489583,Eighth,G5
3634,Right,0,81,80,948.75,0.489583,Eighth,A5
3635,Right,0,79,81,949.0,0.489583,Eighth,G5
3636,Left,1,59,81,949.0,0.489583,Eighth,B3
3637,Right,0,81,81,949.25,0.489583,Eighth,A5
3639,Left,1,55,81,949.5,0.489583,Eighth,G3
3638,Right,0,79,81,949.5,0.489583,Eighth,G5
3640,Right,0,81,82,949.75,0.489583,Eighth,A5
3641,Right,0,79,82,950.0,0.489583,Eighth,G5
3642,Left,1,54,82,950.0,0.489583,Eighth,F#3
3643,Right,0,81,82,950.25,0.489583,Eighth,A5
3645,Left,1,55,83,950.5,0.489583,Eighth,G3
3644,Right,0,79,83,950.5,0.489583,Eighth,G5
3646,Right,0,81,83,950.75,0.489583,Eighth,A5
3647,Left,1,67,83,951.0,0.489583,Eighth,G4
3648,Right,0,79,83,951.0,0.489583,Eighth,G5
3649,Right,0,81,84,951.25,0.489583,Eighth,A5
3650,Left,1,55,84,951.5,0.489583,Eighth,G3
3651,Right,0,79,84,951.5,0.489583,Eighth,G5
3652,Right,0,81,84,951.75,0.489583,Eighth,A5
3653,Right,0,79,84,952.0,1.989583,Eighth,G5_C6
3655,Left,1,52,84,952.0,0.489583,Eighth,E3
3656,Right,0,81,85,952.25,0.489583,Eighth,A5
3658,Right,0,79,85,952.5,0.489583,Eighth,G5
3657,Left,1,55,85,952.5,0.489583,Eighth,G3
3659,Right,0,81,85,952.75,0.489583,Eighth,A5
3660,Right,0,79,86,953.0,0.489583,Eighth,G5
3661,Left,1,67,86,953.0,0.489583,Eighth,G4
3662,Right,0,81,86,953.25,0.489583,Eighth,A5
3663,Right,0,79,86,953.5,0.489583,Eighth,G5
3664,Left,1,55,86,953.5,0.489583,Eighth,G3
3665,Right,0,81,87,953.75,0.489583,Eighth,A5
3666,Left,1,48,87,954.0,0.489583,Eighth,C3
3667,Right,0,79,87,954.0,1.989583,Eighth,G5_E6
3669,Right,0,81,87,954.25,0.489583,Eighth,A5
3671,Left,1,55,88,954.5,0.489583,Eighth,G3
3670,Right,0,79,88,954.5,0.489583,Eighth,G5
3672,Right,0,81,88,954.75,0.489583,Eighth,A5
3673,Left,1,64,88,955.0,0.489583,Eighth,E4
3674,Right,0,79,88,955.0,0.489583,Eighth,G5
3675,Right,0,81,89,955.25,0.489583,Eighth,A5
3677,Left,1,55,89,955.5,0.489583,Eighth,G3
3676,Right,0,79,89,955.5,0.489583,Eighth,G5
3678,Right,0,81,89,955.75,0.489583,Eighth,A5
3681,Left,1,47,89,956.0,0.489583,Eighth,B2
3679,Right,0,79,89,956.0,3.989583,Eighth,G6_G5
3682,Right,0,81,90,956.25,0.489583,Eighth,A5
3684,Left,1,55,90,956.5,0.489583,Eighth,G3
3683,Right,0,79,90,956.5,0.489583,Eighth,G5
3685,Right,0,81,90,956.75,0.489583,Eighth,A5
3686,Left,1,62,91,957.0,0.489583,Eighth,D4
3687,Right,0,79,91,957.0,0.489583,Eighth,G5
3688,Right,0,81,91,957.25,0.489583,Eighth,A5
3689,Left,1,55,91,957.5,0.489583,Eighth,G3
3690,Right,0,79,91,957.5,0.489583,Eighth,G5
3691,Right,0,81,92,957.75,0.489583,Eighth,A5
3693,Right,0,79,92,958.0,0.489583,Eighth,G5
3692,Left,1,43,92,958.0,0.489583,Eighth,G2
3694,Right,0,81,92,958.25,0.489583,Eighth,A5
3696,Right,0,79,93,958.5,0.489583,Eighth,G5
3695,Left,1,55,93,958.5,0.489583,Eighth,G3
3697,Right,0,81,93,958.75,0.489583,Eighth,A5
3699,Left,1,59,93,959.0,0.489583,Eighth,B3
3698,Right,0,79,93,959.0,0.489583,Eighth,G5
3700,Right,0,81,94,959.25,0.489583,Eighth,A5
3701,Left,1,55,94,959.5,0.489583,Eighth,G3
3702,Right,0,79,94,959.5,0.489583,Eighth,G5
3703,Right,0,81,94,959.75,0.489583,Eighth,A5
3706,Left,1,48,94,960.0,0.489583,Eighth,C3
3704,Right,0,88,94,960.0,1.989583,Half,G5_E6
3707,Right,0,81,95,960.25,0.489583,Eighth,A5
3708,Left,1,55,95,960.5,0.489583,Eighth,G3
3709,Right,0,79,95,960.5,0.489583,Eighth,G5
3710,Right,0,81,95,960.75,0.489583,Eighth,A5
3712,Right,0,79,96,961.0,0.489583,Eighth,G5
3711,Left,1,64,96,961.0,0.489583,Eighth,E4
3713,Right,0,81,96,961.25,0.489583,Eighth,A5
3715,Right,0,79,96,961.5,0.489583,Eighth,G5
3714,Left,1,55,96,961.5,0.489583,Eighth,G3
3716,Right,0,81,97,961.75,0.489583,Eighth,A5
3718,Right,0,84,97,962.0,1.989583,Half,G5_C6
3717,Left,1,52,97,962.0,0.489583,Eighth,E3
3720,Right,0,81,97,962.25,0.489583,Eighth,A5
3721,Left,1,55,98,962.5,0.489583,Eighth,G3
3722,Right,0,79,98,962.5,0.489583,Eighth,G5
3723,Right,0,81,98,962.75,0.489583,Eighth,A5
3724,Left,1,67,98,963.0,0.489583,Eighth,G4
3725,Right,0,79,98,963.0,0.489583,Eighth,G5
3726,Right,0,81,99,963.25,0.489583,Eighth,A5
3727,Left,1,55,99,963.5,0.489583,Eighth,G3
3728,Right,0,79,99,963.5,0.489583,Eighth,G5
3729,Right,0,81,99,963.75,0.489583,Eighth,A5
3731,Left,1,50,99,964.0,0.489583,Eighth,D3
3730,Right,0,82,99,964.0,0.989583,Quarter,G5_A#5
3733,Right,0,81,100,964.25,0.489583,Eighth,A5
3735,Left,1,52,100,964.5,0.489583,Eighth,E3
3734,Right,0,79,100,964.5,0.489583,Eighth,G5
3736,Right,0,81,100,964.75,0.489583,Eighth,A5
3738,Right,0,83,101,965.0,1.989583,Half,G5_B5
3737,Left,1,54,101,965.0,0.489583,Eighth,F#3
3740,Right,0,81,101,965.25,0.489583,Eighth,A5
3741,Right,0,79,101,965.5,0.489583,Eighth,G5
3742,Left,1,55,101,965.5,0.489583,Eighth,G3
3743,Right,0,81,102,965.75,0.489583,Eighth,A5
3745,Right,0,79,102,966.0,0.489583,Eighth,G5
3744,Left,1,57,102,966.0,0.489583,Eighth,A3
3746,Right,0,81,102,966.25,0.489583,Eighth,A5
3747,Right,0,79,103,966.5,0.489583,Eighth,G5
3748,Left,1,59,103,966.5,0.489583,Eighth,B3
3749,Right,0,81,103,966.75,0.489583,Eighth,A5
3751,Right,0,86,103,967.0,0.989583,Quarter,G5_D6
3750,Left,1,57,103,967.0,0.489583,Eighth,A3
3753,Right,0,81,104,967.25,0.489583,Eighth,A5
3754,Right,0,79,104,967.5,0.489583,Eighth,G5
3755,Left,1,55,104,967.5,0.489583,Eighth,G3
3756,Right,0,81,104,967.75,0.25,Sixteenth,A5
3758,Left,1,54,104,968.0,0.489583,Eighth,F#3
3757,Right,0,86,104,968.0,0.489583,Eighth,D6
3759,Right,0,88,105,968.25,0.489583,Eighth,E6
3760,Right,0,86,105,968.5,0.489583,Eighth,D6
3761,Left,1,55,105,968.5,0.489583,Eighth,G3
3762,Right,0,88,105,968.75,0.489583,Eighth,E6
3763,Left,1,54,106,969.0,0.489583,Eighth,F#3
3764,Right,0,86,106,969.0,0.989583,Eighth,D6_D5
3766,Right,0,88,106,969.25,0.489583,Eighth,E6
3768,Right,0,86,106,969.5,0.489583,Eighth,D6
3767,Left,1,52,106,969.5,0.489583,Eighth,E3
3769,Right,0,88,107,969.75,0.489583,Eighth,E6
3771,Right,0,86,107,970.0,0.489583,Eighth,D6
3770,Left,1,50,107,970.0,0.489583,Eighth,D3
3772,Right,0,88,107,970.25,0.489583,Eighth,E6
3773,Left,1,48,108,970.5,0.489583,Eighth,C3
3774,Right,0,86,108,970.5,0.489583,Eighth,D6
3775,Right,0,88,108,970.75,0.489583,Eighth,E6
3777,Right,0,86,108,971.0,0.489583,Eighth,D6
3776,Left,1,47,108,971.0,0.489583,Eighth,B2
3778,Right,0,88,109,971.25,0.489583,Eighth,E6
3779,Left,1,45,109,971.5,0.489583,Eighth,A2
3780,Right,0,85,109,971.5,0.489583,Eighth,C#6
3781,Right,0,86,120,972.0,0.989583,Quarter,F6_D7_D6_B6
3785,Left,1,31,120,972.0,0.489583,Eighth,G1
3786,Left,1,43,120,972.5,0.489583,Eighth,G2
3787,Right,0,95,120,973.0,1.989583,Half,F6_D7_D6_B6
3791,Left,1,31,120,973.0,0.489583,Eighth,G1
3792,Left,1,43,120,973.5,0.489583,Eighth,G2
3793,Left,1,31,120,974.0,0.489583,Eighth,G1
3794,Left,1,43,120,974.5,0.489583,Eighth,G2
3799,Left,1,31,120,975.0,0.489583,Eighth,G1
3795,Right,0,96,120,975.0,0.989583,Quarter,F6_D6_C7_C6
3800,Left,1,43,120,975.5,0.489583,Eighth,G2
3801,Right,0,89,120,976.0,0.989583,Quarter,F6_D6_B6_B5
3805,Left,1,31,120,976.0,0.489583,Eighth,G1
3806,Left,1,43,120,976.5,0.489583,Eighth,G2
3811,Left,1,31,120,977.0,0.489583,Eighth,G1
3807,Right,0,84,120,977.0,0.989583,Quarter,F6_D6_C7_C6
3812,Left,1,43,120,977.5,0.489583,Eighth,G2
3815,Left,1,31,120,978.0,0.489583,Eighth,G1
3813,Right,0,89,120,978.0,0.989583,Quarter,F6_D7_D6
3817,Left,1,43,120,978.5,0.489583,Eighth,G2
3818,Left,1,32,80,979.0,0.489583,Eighth,G#1
3819,Right,0,86,80,979.0,0.989583,Quarter,E6_D6_B6_B5
3823,Left,1,44,80,979.5,0.489583,Eighth,G#2
3824,Right,0,96,80,980.0,0.989583,Quarter,E6_C7_C6
3827,Left,1,33,80,980.0,0.489583,Eighth,A1
3828,Left,1,45,80,980.5,0.489583,Eighth,A2
3833,Left,1,32,80,981.0,0.489583,Eighth,G#1
3829,Right,0,88,80,981.0,0.989583,Quarter,E6_D6_B6_B5
3834,Left,1,44,80,981.5,0.489583,Eighth,G#2
3835,Right,0,88,80,982.0,0.989583,Quarter,E6_C7_C6
3837,Left,1,33,80,982.0,0.489583,Eighth,A1
3839,Left,1,45,80,982.5,0.489583,Eighth,A2
3841,Right,0,93,80,983.0,0.989583,Quarter,E6_C6_A6_A5
3840,Left,1,36,80,983.0,0.489583,Eighth,C2
3845,Left,1,48,80,983.5,0.489583,Eighth,C3
3846,Left,1,37,80,984.0,0.489583,Eighth,C#2
3847,Right,0,81,80,984.0,0.989583,Quarter,G6_E6_A5
3850,Left,1,49,80,984.5,0.489583,Eighth,C#3
3851,Right,0,91,80,985.0,0.989583,Quarter,G6_C#6_A5
3853,Left,1,40,80,985.0,0.489583,Eighth,E2
3855,Left,1,52,80,985.5,0.489583,Eighth,E3
3857,Right,0,84,80,986.0,0.989583,Quarter,F#6_C6_A5
3856,Left,1,38,80,986.0,0.489583,Eighth,D2
3860,Left,1,50,80,986.5,0.489583,Eighth,D3
3862,Left,1,38,80,987.0,0.489583,Eighth,D2
3861,Right,0,93,80,987.0,0.989583,Quarter,C6_A6_A5
3865,Left,1,50,80,987.5,0.489583,Eighth,D3
3868,Left,1,38,80,988.0,0.489583,Eighth,D2
3866,Right,0,83,80,988.0,0.989583,Quarter,G6_G5_B5
3870,Left,1,50,81,988.5,0.489583,Eighth,D3
3871,Left,1,43,83,989.0,0.489583,Eighth,G2
3872,Right,0,83,83,989.0,0.989583,Quarter,D6_D5_B5
3875,Left,1,55,85,989.5,0.489583,Eighth,G3
3879,Left,1,38,87,990.0,0.489583,Eighth,D2
3876,Right,0,78,87,990.0,0.989583,Quarter,F#6_F#5_C6
3880,Left,1,50,89,990.5,0.489583,Eighth,D3
3884,Left,1,50,91,991.0,0.489583,Eighth,D3
3881,Right,0,84,91,991.0,0.989583,Quarter,F#6_C6_A6_A5
3886,Left,1,62,93,991.5,0.489583,Eighth,D4
3887,Right,0,83,95,992.0,0.989583,Quarter,G6_G5_B5
3889,Left,1,38,95,992.0,0.489583,Eighth,D2
3891,Left,1,50,97,992.5,0.489583,Eighth,D3
3895,Left,1,43,99,993.0,0.489583,Eighth,G2
3892,Right,0,74,99,993.0,0.989583,Quarter,D6_D5_B5
3896,Left,1,55,101,993.5,0.489583,Eighth,G3
3899,Left,1,38,103,994.0,0.489583,Eighth,D2
3897,Right,0,78,103,994.0,0.989583,Quarter,F#6_F#5_C6
3901,Left,1,50,105,994.5,0.489583,Eighth,D3
3906,Left,1,50,107,995.0,0.489583,Eighth,D3
3902,Right,0,81,107,995.0,0.989583,Quarter,F#6_C6_A6_A5
3907,Left,1,62,109,995.5,0.489583,Eighth,D4
3909,Right,0,79,110,996.0,0.489583,Eighth,G5
3908,Left,1,43,110,996.0,0.489583,Eighth,G2
3911,Left,1,55,110,996.5,0.489583,Eighth,G3
3910,Right,0,91,110,996.5,0.489583,Eighth,G6
3912,Left,1,38,110,997.0,0.489583,Eighth,D2
3913,Right,0,74,110,997.0,0.489583,Eighth,D5
3914,Left,1,50,110,997.5,0.489583,Eighth,D3
3915,Right,0,86,110,997.5,0.489583,Eighth,D6
3916,Left,1,42,110,998.0,0.489583,Eighth,F#2
3917,Right,0,78,110,998.0,0.489583,Eighth,F#5
3919,Left,1,54,110,998.5,0.489583,Eighth,F#3
3918,Right,0,90,110,998.5,0.489583,Eighth,F#6
3920,Right,0,81,110,999.0,0.489583,Eighth,A5
3921,Left,1,45,110,999.0,0.489583,Eighth,A2
3923,Left,1,57,110,999.5,0.489583,Eighth,A3
3922,Right,0,93,110,999.5,0.489583,Eighth,A6
3925,Left,1,43,110,1000.0,0.489583,Eighth,G2
3924,Right,0,79,110,1000.0,0.489583,Eighth,G5
3926,Left,1,55,110,1000.5,0.489583,Eighth,G3
3927,Right,0,91,110,1000.5,0.489583,Eighth,G6
3928,Right,0,74,110,1001.0,0.489583,Eighth,D5
3929,Left,1,38,110,1001.0,0.489583,Eighth,D2
3930,Left,1,50,110,1001.5,0.489583,Eighth,D3
3931,Right,0,86,110,1001.5,0.489583,Eighth,D6
3932,Left,1,30,110,1002.0,0.489583,Eighth,F#1
3933,Right,0,78,110,1002.0,0.489583,Eighth,F#5
3934,Right,0,90,110,1002.5,0.489583,Eighth,F#6
3935,Left,1,42,110,1002.5,0.489583,Eighth,F#2
3936,Right,0,81,110,1003.0,0.489583,Eighth,A5
3937,Left,1,33,110,1003.0,0.489583,Eighth,A1
3939,Right,0,93,110,1003.5,0.489583,Eighth,A6
3938,Left,1,45,110,1003.5,0.489583,Eighth,A2
3942,Right,0,79,120,1004.0,0.989583,Quarter,G6_G5
3940,Left,1,43,120,1004.0,0.989583,Quarter,G2_G1
3944,Left,1,33,120,1006.0,0.989583,Quarter,A2_A1
3946,Right,0,93,120,1006.0,0.989583,Quarter,A6_A5
3949,Right,0,83,120,1008.0,7.989583,Unknown,B6_B5
3948,Left,1,35,120,1008.0,7.989583,Unknown,B2_B1
3953,Left,1,47,120,1016.0,0.989583,Quarter,B2_B1
3952,Right,0,95,120,1016.0,0.989583,Quarter,B6_B5
3956,Right,0,84,120,1018.0,0.989583,Quarter,C7_C6
3958,Left,1,36,120,1018.0,0.989583,Quarter,C3_C2
3960,Left,1,50,120,1020.0,5.989583,Unknown,D3_D2
3961,Right,0,86,120,1020.0,5.989583,Unknown,D7_D6
3964,Left,1,71,70,1028.0,0.489583,Eighth,B4
3965,Right,0,86,70,1028.0,0.989583,Quarter,G5_D6_D5
3968,Left,1,67,70,1028.5,0.489583,Eighth,G4
3969,Left,1,71,70,1029.0,0.489583,Eighth,B4
3970,Right,0,86,70,1029.0,1.989583,Half,G5_D6_D5
3973,Left,1,67,70,1029.5,0.489583,Eighth,G4
3974,Left,1,71,70,1030.0,0.489583,Eighth,B4
3975,Left,1,67,70,1030.5,0.489583,Eighth,G4
3977,Left,1,72,70,1031.0,0.489583,Eighth,C5
3976,Right,0,79,70,1031.0,0.989583,Quarter,G5_D#5_C6
3980,Left,1,67,70,1031.5,0.489583,Eighth,G4
3981,Left,1,74,70,1032.0,0.489583,Eighth,D5
3982,Right,0,77,70,1032.0,0.989583,Quarter,G5_F5_B5
3985,Left,1,67,70,1032.5,0.489583,Eighth,G4
3986,Right,0,79,70,1033.0,0.989583,Quarter,G5_D#5_C6
3989,Left,1,72,70,1033.0,0.489583,Eighth,C5
3990,Left,1,67,70,1033.5,0.489583,Eighth,G4
3991,Right,0,79,70,1034.0,0.989583,Quarter,G5_D6_D5
3994,Left,1,71,70,1034.0,0.489583,Eighth,B4
3995,Left,1,67,70,1034.5,0.489583,Eighth,G4
3997,Right,0,83,70,1035.0,0.989583,Quarter,G5_F5_B5
3996,Left,1,74,70,1035.0,0.489583,Eighth,D5
4000,Left,1,67,70,1035.5,0.489583,Eighth,G4
4002,Left,1,72,70,1036.0,0.489583,Eighth,C5
4001,Right,0,87,70,1036.0,0.989583,Quarter,G5_D#6_D#5
4005,Left,1,67,70,1036.5,0.489583,Eighth,G4
4006,Right,0,87,70,1037.0,1.989583,Half,G5_D#6_D#5
4009,Left,1,72,70,1037.0,0.489583,Eighth,C5
4010,Left,1,67,70,1037.5,0.489583,Eighth,G4
4011,Left,1,72,70,1038.0,0.489583,Eighth,C5
4012,Left,1,67,70,1038.5,0.489583,Eighth,G4
4017,Left,1,71,70,1039.0,0.489583,Eighth,B4
4013,Right,0,79,70,1039.0,0.989583,Quarter,G5_F5_D6_D5
4018,Left,1,67,70,1039.5,0.489583,Eighth,G4
4020,Right,0,84,70,1040.0,0.989583,Quarter,G5_D#5_C6
4019,Left,1,72,70,1040.0,0.489583,Eighth,C5
4023,Left,1,67,70,1040.5,0.489583,Eighth,G4
4024,Left,1,71,70,1041.0,0.489583,Eighth,B4
4025,Right,0,86,70,1041.0,0.989583,Quarter,G5_F5_D6_D5
4029,Left,1,67,70,1041.5,0.489583,Eighth,G4
4033,Left,1,72,70,1042.0,0.489583,Eighth,C5
4030,Right,0,87,70,1042.0,0.989583,Quarter,G5_D#6_D#5
4034,Left,1,67,70,1042.5,0.489583,Eighth,G4
4038,Left,1,72,70,1043.0,0.489583,Eighth,C5
4035,Right,0,84,70,1043.0,0.989583,Quarter,G5_D#5_C6
4039,Left,1,60,70,1043.5,0.489583,Eighth,C4
4043,Left,1,70,70,1044.0,0.489583,Eighth,A#4
4040,Right,0,89,70,1044.0,0.989583,Quarter,G#5_F6_F5
4044,Left,1,58,72,1044.5,0.489583,Eighth,A#3
4045,Left,1,70,75,1045.0,0.489583,Eighth,D4_A#4
4047,Right,0,77,75,1045.0,1.989583,Half,G#5_F6_F5
4050,Left,1,58,78,1045.5,0.489583,Eighth,A#3
4051,Left,1,70,80,1046.0,0.489583,Eighth,D4_A#4
4053,Left,1,58,83,1046.5,0.489583,Eighth,A#3
4054,Right,0,79,86,1047.0,0.989583,Quarter,G5_D#6_D#5
4056,Left,1,70,86,1047.0,0.489583,Eighth,D#4_A#4
4059,Left,1,58,89,1047.5,0.489583,Eighth,A#3
4061,Right,0,86,91,1048.0,0.989583,Quarter,F5_D6_D5
4060,Left,1,65,91,1048.0,0.489583,Eighth,F4_A#4
4065,Left,1,58,94,1048.5,0.489583,Eighth,A#3
4068,Right,0,79,97,1049.0,0.989583,Quarter,G5_D#6_D#5
4066,Left,1,70,97,1049.0,0.489583,Eighth,D#4_A#4
4071,Left,1,58,100,1049.5,0.489583,Eighth,A#3
4072,Right,0,80,102,1050.0,0.989583,Quarter,G#5_F6_F5
4074,Left,1,70,102,1050.0,0.489583,Eighth,D4_A#4
4077,Left,1,58,105,1050.5,0.489583,Eighth,A#3
4078,Right,0,77,108,1051.0,0.989583,Quarter,F5_D6_D5_A#5
4081,Left,1,44,108,1051.0,0.489583,Eighth,G#2
4083,Left,1,56,110,1051.5,0.489583,Eighth,G#3
4084,Right,0,91,110,1052.0,0.989583,Quarter,G6_G5_D#6
4087,Left,1,43,110,1052.0,0.489583,Eighth,G2
4088,Left,1,55,110,1052.5,0.489583,Eighth,G3
4089,Left,1,55,110,1053.0,0.489583,Eighth,G3
4090,Left,1,67,110,1053.5,0.489583,Eighth,G4
4091,Left,1,41,110,1054.0,0.489583,Eighth,F2
4092,Right,0,92,110,1054.0,0.989583,Quarter,G#6_G#5_F6
4095,Left,1,53,110,1054.5,0.489583,Eighth,F3
4096,Left,1,53,110,1055.0,0.489583,Eighth,F3
4097,Left,1,65,110,1055.5,0.489583,Eighth,F4
4101,Left,1,39,110,1056.0,0.489583,Eighth,D#2
4098,Right,0,94,110,1056.0,3.989583,Whole,G6_A#6_A#5
4102,Left,1,48,110,1056.5,0.489583,Eighth,C3
4103,Left,1,51,110,1057.0,2.989583,DottedHalf,D#4_D#3
4105,Right,0,63,80,1062.0,0.989583,Quarter,G4_D#4
4107,Left,1,55,80,1063.0,0.489583,Eighth,G3
4108,Left,1,58,80,1063.5,0.489583,Eighth,A#3
4109,Right,0,68,80,1064.0,0.989583,Quarter,G#4_F4
4111,Left,1,53,80,1065.0,0.489583,Eighth,F3
4112,Left,1,56,80,1065.5,0.489583,Eighth,G#3
4113,Right,0,67,80,1066.0,3.989583,Whole,G4_A#4
4115,Left,1,51,80,1067.0,2.989583,DottedHalf,G3_D#3
4117,Left,1,51,120,1071.5,0.489583,Eighth,D#3
4118,Left,1,63,120,1072.0,1.489583,DottedQuarter,D#4
4119,Left,1,63,120,1073.5,0.489583,Eighth,D#4
4120,Left,1,63,120,1074.0,5.489583,Unknown,D#4
4121,Left,1,55,120,1079.5,0.489583,Eighth,G3
4122,Right,0,51,120,1079.5,0.489583,Eighth,D#3
4123,Right,0,63,120,1080.0,1.489583,DottedQuarter,D#4
4124,Left,1,67,120,1080.0,1.489583,DottedQuarter,G4
4126,Right,0,63,120,1081.5,0.489583,Eighth,D#4
4125,Left,1,67,120,1081.5,0.489583,Eighth,G4
4127,Left,1,67,120,1082.0,5.489583,Unknown,G4
4128,Right,0,63,120,1082.0,5.489583,Unknown,D#4
4129,Right,0,46,80,1087.5,0.489583,Eighth,A#2
4130,Right,0,51,80,1088.0,1.489583,DottedQuarter,D#3
4131,Right,0,51,80,1089.5,0.489583,Eighth,D#3
4132,Right,0,51,80,1090.0,0.989583,Quarter,D#3
4133,Right,0,53,80,1091.0,0.489583,Eighth,F3
4134,Right,0,51,80,1091.5,0.489583,Eighth,D#3
4135,Left,1,39,80,1091.5,0.489583,Eighth,D#2
4136,Right,0,51,80,1092.0,0.989583,Quarter,D#3
4137,Left,1,44,80,1092.0,1.489583,DottedQuarter,G#2
4138,Right,0,48,80,1093.0,0.989583,Quarter,C3
4139,Left,1,44,80,1093.5,0.489583,Eighth,G#2
4141,Left,1,44,80,1094.0,0.989583,Quarter,G#2
4140,Right,0,48,80,1094.0,1.989583,Half,C3
4142,Left,1,46,80,1095.0,0.489583,Eighth,A#2
4143,Left,1,44,80,1095.5,0.489583,Eighth,G#2
4145,Left,1,44,80,1096.0,0.989583,Quarter,G#2
4144,Right,0,56,80,1096.0,0.989583,Quarter,G#3
4146,Left,1,41,80,1097.0,0.989583,Quarter,F2
4147,Right,0,56,80,1097.0,0.489583,Eighth,G#3
4148,Right,0,55,80,1097.5,0.489583,Eighth,G3
4150,Left,1,41,80,1098.0,1.989583,Half,F2
4149,Right,0,53,80,1098.0,0.989583,Quarter,F3
4151,Right,0,53,80,1099.0,0.489583,Eighth,F3
4152,Right,0,51,80,1099.5,0.489583,Eighth,D#3
4154,Right,0,50,80,1100.0,0.989583,Quarter,D3
4153,Left,1,46,80,1100.0,0.989583,Quarter,A#2
4155,Left,1,46,80,1101.0,0.489583,Eighth,A#2
4156,Left,1,44,80,1101.5,0.489583,Eighth,G#2
4158,Left,1,43,80,1102.0,0.989583,Quarter,G2
4157,Right,0,50,80,1102.0,1.989583,Half,D3
4159,Left,1,43,80,1103.0,0.489583,Eighth,G2
4160,Left,1,41,80,1103.5,0.489583,Eighth,F2
4161,Right,0,58,80,1104.0,0.989583,Quarter,A#3
4162,Left,1,40,80,1104.0,0.989583,Quarter,E2
4163,Right,0,58,80,1105.0,0.489583,Eighth,A#3
4164,Right,0,56,80,1105.5,0.489583,Eighth,G#3
4165,Left,1,39,80,1106.0,1.989583,Half,D#2
4166,Right,0,55,80,1106.0,0.989583,Quarter,G3
4167,Right,0,55,80,1107.0,0.489583,Eighth,G3
4168,Right,0,53,80,1107.5,0.489583,Eighth,F3
4169,Left,1,48,80,1108.0,0.989583,Quarter,C3
4170,Right,0,52,80,1108.0,0.989583,Quarter,E3
4171,Left,1,48,80,1109.0,0.489583,Eighth,C3
4172,Left,1,46,80,1109.5,0.489583,Eighth,A#2
4173,Left,1,44,80,1110.0,0.989583,Quarter,G#2
4174,Right,0,52,80,1110.0,1.989583,Half,E3
4175,Left,1,44,80,1111.0,0.489583,Eighth,G#2
4176,Left,1,43,80,1111.5,0.489583,Eighth,G2
4177,Left,1,41,80,1112.0,0.989583,Quarter,F2
4178,Right,0,60,80,1112.0,0.989583,Quarter,C4
4179,Right,0,60,80,1113.0,0.489583,Eighth,C4
4180,Left,1,48,80,1113.5,0.489583,Eighth,C3
4181,Right,0,58,80,1113.5,0.489583,Eighth,A#3
4183,Right,0,56,81,1114.0,0.989583,Quarter,G#3
4182,Left,1,53,81,1114.0,0.989583,Quarter,F3
4185,Right,0,56,81,1115.0,0.489583,Eighth,G#3
4184,Left,1,53,81,1115.0,0.489583,Eighth,F3
4186,Right,0,55,82,1115.5,0.489583,Eighth,G3
4187,Left,1,51,82,1115.5,0.489583,Eighth,D#3
4188,Left,1,50,82,1116.0,0.989583,Quarter,D3
4189,Right,0,53,82,1116.0,0.989583,Quarter,F3
4190,Left,1,50,83,1117.0,0.489583,Eighth,D3
4191,Right,0,53,83,1117.0,0.489583,Eighth,F3
4192,Left,1,48,83,1117.5,0.489583,Eighth,C3
4193,Right,0,55,83,1117.5,0.489583,Eighth,G3
4194,Right,0,56,83,1118.0,0.989583,Quarter,G#3
4195,Left,1,46,83,1118.0,0.989583,Quarter,A#2
4196,Left,1,48,84,1119.0,0.489583,Eighth,C3
4197,Right,0,56,84,1119.0,0.489583,Eighth,G#3
4199,Left,1,50,84,1119.5,0.489583,Eighth,D3
4198,Right,0,58,84,1119.5,0.489583,Eighth,A#3
4201,Right,0,55,85,1120.0,0.989583,Quarter,G3
4200,Left,1,51,85,1120.0,0.989583,Quarter,D#3
4202,Right,0,55,85,1121.0,0.489583,Eighth,G3
4203,Left,1,43,85,1121.0,0.989583,Quarter,G2
4204,Right,0,53,86,1121.5,0.489583,Eighth,F3
4206,Right,0,51,86,1122.0,0.989583,Quarter,D#3
4205,Left,1,44,86,1122.0,0.989583,Quarter,G#2
4207,Left,1,48,87,1123.0,0.989583,Quarter,F3_C3
4210,Right,0,65,87,1123.5,0.489583,Eighth,F4
4209,Left,1,51,87,1123.5,0.489583,Eighth,D#3
4211,Left,1,50,87,1124.0,0.989583,Quarter,D3_A#2
4213,Right,0,70,87,1124.0,1.489583,DottedQuarter,A#4
4214,Left,1,46,88,1125.0,0.489583,Eighth,A#2
4215,Left,1,48,88,1125.5,0.489583,Eighth,C3
4216,Right,0,70,88,1125.5,0.489583,Eighth,A#4
4217,Left,1,50,89,1126.0,0.989583,Quarter,D3
4218,Right,0,70,89,1126.0,0.989583,Quarter,A#4
4219,Right,0,72,89,1127.0,0.489583,Eighth,C5
4220,Left,1,51,89,1127.0,0.489583,Eighth,D#3
4222,Left,1,53,90,1127.5,0.489583,Eighth,F3_A#3
4221,Right,0,70,90,1127.5,0.489583,Eighth,A#4
4226,Left,1,55,90,1128.0,0.989583,Quarter,G3
4224,Right,0,63,90,1128.0,1.489583,DottedQuarter,D#4_A#4
4227,Right,0,67,91,1129.0,0.989583,Quarter,G4
4228,Right,0,63,91,1129.5,0.489583,Eighth,D#4
4229,Right,0,67,91,1130.0,1.989583,Half,G4_D#4
4231,Right,0,65,92,1131.0,0.489583,Eighth,F4
4232,Right,0,63,92,1131.5,0.489583,Eighth,D#4
4233,Right,0,75,93,1132.0,0.989583,Quarter,D#5_D#4
4235,Left,1,48,93,1132.0,0.989583,Quarter,C3
4237,Right,0,75,93,1133.0,0.489583,Eighth,D#5
4236,Left,1,60,93,1133.0,0.989583,Quarter,C4_C3
4239,Right,0,74,94,1133.5,0.489583,Eighth,D5
4240,Left,1,50,94,1133.5,0.489583,Eighth,D3
4242,Right,0,60,94,1134.0,1.989583,Half,C5_C4
4241,Left,1,52,94,1134.0,0.989583,Quarter,E3
4245,Right,0,72,95,1135.0,0.489583,Eighth,C5
4244,Left,1,53,95,1135.0,0.489583,Eighth,F3
4246,Right,0,70,95,1135.5,0.489583,Eighth,A#4
4247,Left,1,55,95,1135.5,0.489583,Eighth,G3
4248,Right,0,69,95,1136.0,0.989583,Quarter,F4_A4
4250,Left,1,53,95,1136.0,0.989583,Quarter,F3
4251,Right,0,65,96,1137.0,0.489583,Eighth,F4
4252,Right,0,63,96,1137.5,0.489583,Eighth,D#4
4253,Left,1,53,96,1138.0,0.989583,Quarter,F3
4254,Right,0,62,96,1138.0,1.989583,Quarter,D4_A4
4256,Right,0,62,97,1139.0,0.489583,Eighth,D4
4257,Left,1,53,97,1139.0,0.489583,Eighth,F3
4259,Right,0,60,97,1139.5,0.489583,Eighth,C4
4258,Left,1,51,97,1139.5,0.489583,Eighth,D#3
4260,Right,0,77,98,1140.0,0.989583,Quarter,F5
4261,Left,1,59,98,1140.0,0.989583,Quarter,D3_B3
4263,Left,1,50,98,1141.0,0.489583,Eighth,D3
4264,Right,0,77,98,1141.0,0.489583,Eighth,F5
4265,Right,0,75,99,1141.5,0.489583,Eighth,D#5
4266,Left,1,51,99,1141.5,0.489583,Eighth,D#3
4267,Left,1,53,99,1142.0,1.989583,Quarter,F3_B3
4269,Right,0,74,99,1142.0,0.989583,Quarter,D5
4271,Right,0,74,100,1143.0,0.489583,Eighth,D5
4270,Left,1,55,100,1143.0,0.489583,Eighth,G3
4272,Left,1,56,100,1143.5,0.489583,Eighth,G#3
4273,Right,0,72,100,1143.5,0.489583,Eighth,C5
4275,Right,0,71,100,1144.0,0.989583,Quarter,G4_B4
4274,Left,1,55,100,1144.0,0.989583,Quarter,G3
4277,Right,0,67,101,1145.0,0.489583,Eighth,G4
4278,Right,0,65,101,1145.5,0.489583,Eighth,F4
4279,Left,1,55,102,1146.0,0.989583,Quarter,G3
4280,Right,0,63,102,1146.0,1.989583,Quarter,D#4_B4
4282,Right,0,63,102,1147.0,0.489583,Eighth,D#4
4283,Left,1,55,102,1147.0,0.489583,Eighth,G3
4285,Right,0,62,103,1147.5,0.489583,Eighth,D4
4284,Left,1,53,103,1147.5,0.489583,Eighth,F3
4288,Right,0,79,103,1148.0,0.989583,Quarter,G5
4286,Left,1,60,103,1148.0,0.989583,Quarter,D#3_C4
4291,Right,0,79,104,1149.0,0.489583,Eighth,G5
4289,Left,1,60,104,1149.0,1.989583,Half,D#3_C4
4293,Right,0,77,104,1149.5,0.489583,Eighth,F5
4292,Left,1,53,104,1149.5,0.489583,Eighth,F3
4294,Left,1,55,104,1150.0,0.989583,Quarter,G3
4295,Right,0,75,104,1150.0,0.989583,Quarter,D#5
4296,Left,1,57,105,1151.0,0.489583,Eighth,A3
4297,Right,0,67,105,1151.0,0.489583,Eighth,G4_D#5
4300,Left,1,59,105,1151.5,0.489583,Eighth,B3
4299,Right,0,74,105,1151.5,0.489583,Eighth,F4_D5
4302,Left,1,60,106,1152.0,0.989583,Quarter,C4
4303,Right,0,72,106,1152.0,0.989583,Quarter,D#4_C5
4306,Right,0,65,106,1153.0,0.489583,Eighth,F4_C5
4305,Left,1,50,106,1153.0,0.489583,Eighth,D3
4308,Right,0,67,107,1153.5,0.489583,Eighth,G4_A#4
4310,Left,1,52,107,1153.5,0.489583,Eighth,E3
4311,Right,0,68,107,1154.0,0.989583,Quarter,G#4_C4
4312,Left,1,53,107,1154.0,0.989583,Quarter,F3
4314,Right,0,68,108,1155.0,0.489583,Eighth,G#4_C4
4316,Left,1,41,108,1155.0,0.489583,Eighth,F2
4317,Right,0,67,108,1155.5,0.489583,Eighth,G4_A#3
4318,Left,1,43,108,1155.5,0.489583,Eighth,G2
4320,Left,1,44,108,1156.0,0.989583,Quarter,G#2
4321,Right,0,60,108,1156.0,0.989583,Quarter,F4_C4
4323,Right,0,65,109,1157.0,0.989583,Eighth,F4_D4
4325,Left,1,46,109,1157.0,0.989583,Quarter,A#2
4326,Right,0,67,109,1157.5,0.489583,Eighth,G4
4327,Right,0,68,110,1158.0,0.989583,Quarter,G#4_D#4
4329,Left,1,47,110,1158.0,0.989583,Quarter,B2
4330,Right,0,70,110,1159.0,0.989583,Quarter,D4_A#4
4332,Left,1,46,110,1159.0,0.489583,Eighth,A#2
4333,Right,0,65,110,1159.5,0.489583,Eighth,F4_D4
4334,Left,1,34,110,1159.5,0.489583,Eighth,A#1
4336,Right,0,63,110,1160.0,1.489583,Quarter,G4_D#4_A#4
4339,Left,1,39,110,1160.0,1.489583,DottedQuarter,D#2
4341,Left,1,39,110,1161.5,0.489583,Eighth,D#2
4340,Right,0,67,110,1161.5,0.489583,Eighth,G4
4343,Right,0,67,110,1162.0,0.989583,Quarter,G4
4342,Left,1,39,110,1162.0,0.989583,Quarter,D#2
4344,Left,1,41,110,1163.0,0.489583,Eighth,F2
4345,Right,0,68,110,1163.0,0.489583,Eighth,G#4
4347,Right,0,67,110,1163.5,0.489583,Eighth,G4_A#4
4346,Left,1,39,110,1163.5,0.489583,Eighth,D#2
4351,Right,0,75,110,1164.0,1.489583,DottedQuarter,G4_D#5
4349,Left,1,39,110,1164.0,1.489583,Quarter,D#2_C3
4354,Right,0,63,110,1165.0,0.989583,Quarter,D#4
4353,Left,1,36,110,1165.0,0.989583,Quarter,C2
4355,Right,0,75,110,1165.5,0.489583,Eighth,D#5
4356,Left,1,48,110,1165.5,0.489583,Eighth,C3
4359,Left,1,48,110,1166.0,1.989583,Quarter,C3_C2
4357,Right,0,63,110,1166.0,2.989583,DottedHalf,D#5_D#4
4361,Left,1,50,110,1167.0,0.489583,Eighth,D3
4362,Right,0,77,110,1167.0,0.489583,Eighth,F5
4363,Left,1,48,110,1167.5,0.489583,Eighth,C3
4364,Right,0,75,110,1167.5,0.489583,Eighth,D#5
4366,Left,1,48,110,1168.0,0.989583,Quarter,G#2_C3
4365,Right,0,75,110,1168.0,0.989583,Quarter,D#5
4369,Left,1,44,110,1169.0,0.989583,Quarter,G#2
4368,Right,0,72,110,1169.0,0.989583,Quarter,C5
4371,Left,1,43,110,1169.5,0.489583,Eighth,G2
4370,Right,0,70,110,1169.5,0.489583,Eighth,A#4
4372,Left,1,44,110,1170.0,1.989583,Half,G#2_F2
4373,Right,0,68,110,1170.0,1.989583,Quarter,G#4_C5
4377,Right,0,68,110,1171.0,0.489583,Eighth,G#4
4376,Left,1,41,110,1171.0,0.489583,Eighth,F2
4379,Left,1,39,110,1171.5,0.489583,Eighth,D#2
4378,Right,0,67,110,1171.5,0.489583,Eighth,G4
4382,Left,1,38,110,1172.0,0.989583,Quarter,F3_D2
4380,Right,0,80,110,1172.0,0.989583,Quarter,G#5_F4
4384,Right,0,80,110,1173.0,0.489583,Eighth,G#5
4385,Left,1,53,110,1173.0,0.489583,Eighth,F3
4386,Right,0,79,110,1173.5,0.489583,Eighth,G5
4387,Left,1,51,110,1173.5,0.489583,Eighth,D#3
4388,Left,1,50,110,1174.0,1.989583,Quarter,D3_D2
4390,Right,0,65,110,1174.0,1.989583,Half,F5_F4
4392,Right,0,77,110,1175.0,0.489583,Eighth,F5
4393,Left,1,50,110,1175.0,0.489583,Eighth,D3
4394,Right,0,75,110,1175.5,0.489583,Eighth,D#5
4395,Left,1,48,110,1175.5,0.489583,Eighth,C3
4397,Left,1,46,110,1176.0,0.989583,Quarter,A#2
4396,Right,0,74,110,1176.0,0.989583,Quarter,D5
4399,Left,1,46,110,1177.0,0.489583,Eighth,A#2
4398,Right,0,74,110,1177.0,0.489583,Eighth,D5
4400,Left,1,44,110,1177.5,0.489583,Eighth,G#2
4401,Right,0,72,110,1177.5,0.489583,Eighth,C5
4404,Right,0,70,110,1178.0,1.989583,Quarter,D5_A#4
4402,Left,1,46,110,1178.0,1.989583,Half,G2_A#2
4406,Left,1,43,110,1179.0,0.489583,Eighth,G2
4407,Right,0,70,110,1179.0,0.489583,Eighth,A#4
4408,Left,1,41,110,1179.5,0.489583,Eighth,F2
4409,Right,0,68,110,1179.5,0.489583,Eighth,G#4
4412,Right,0,67,110,1180.0,0.989583,Quarter,G4_A#5
4410,Left,1,55,110,1180.0,0.989583,Quarter,G3_E2
4415,Right,0,82,110,1181.0,0.489583,Eighth,A#5
4414,Left,1,55,110,1181.0,0.489583,Eighth,G3
4416,Left,1,53,110,1181.5,0.489583,Eighth,F3
4417,Right,0,80,110,1181.5,0.489583,Eighth,G#5
4418,Left,1,40,110,1182.0,1.989583,Half,E3_E2
4420,Right,0,79,110,1182.0,0.989583,Quarter,G5
4421,Left,1,52,110,1183.0,0.489583,Eighth,E3
4422,Right,0,79,110,1183.0,0.489583,Eighth,G5
4424,Left,1,50,110,1183.5,0.489583,Eighth,D3
4423,Right,0,77,110,1183.5,0.489583,Eighth,F5
4427,Left,1,48,110,1184.0,0.989583,Quarter,C3
4425,Right,0,76,110,1184.0,0.989583,Quarter,G4_E5
4430,Left,1,48,110,1185.0,0.489583,Eighth,C3
4428,Right,0,64,110,1185.0,0.989583,Quarter,G3_E4
4431,Left,1,46,110,1185.5,0.489583,Eighth,A#2
4432,Right,0,61,110,1185.5,0.489583,Eighth,C#4
4435,Right,0,65,110,1186.0,0.989583,Quarter,F4
4433,Left,1,48,110,1186.0,0.989583,Quarter,G#2_C3
4436,Right,0,60,110,1187.0,0.989583,Eighth,G4_C4
4438,Left,1,43,110,1187.0,0.989583,Quarter,G2_E3
4440,Right,0,58,110,1187.5,0.489583,Eighth,A#3
4442,Left,1,53,80,1188.0,2.989583,Quarter,F3_F2
4441,Right,0,56,80,1188.0,2.989583,Quarter,G#4_G#3
4446,Right,0,65,80,1189.0,0.489583,Eighth,F4
4445,Left,1,48,80,1189.0,0.989583,Quarter,C3
4447,Right,0,63,80,1189.5,0.489583,Eighth,D#4
4448,Right,0,62,80,1190.0,0.989583,Quarter,D4
4449,Left,1,53,80,1190.0,0.989583,Quarter,F3
4451,Left,1,42,80,1191.0,0.989583,Quarter,F#2_D#3
4450,Right,0,62,80,1191.0,0.989583,Eighth,D4_A4
4454,Right,0,60,80,1191.5,0.489583,Eighth,C4
4455,Right,0,70,80,1192.0,0.989583,Quarter,A#4_A#3
4456,Left,1,43,80,1192.0,2.989583,DottedHalf,G2_D3
4460,Left,1,50,82,1193.0,0.989583,Quarter,D3
4459,Right,0,79,82,1193.0,0.489583,Eighth,G5
4461,Right,0,77,84,1193.5,0.489583,Eighth,F5
4463,Left,1,55,85,1194.0,0.989583,Quarter,G3
4462,Right,0,75,85,1194.0,0.989583,Quarter,D#5
4466,Right,0,75,88,1195.0,0.489583,Eighth,D#5
4464,Left,1,43,88,1195.0,0.989583,Quarter,G2_F3
4467,Right,0,74,89,1195.5,0.489583,Eighth,D5
4469,Right,0,72,90,1196.0,2.989583,DottedHalf,C5
4468,Left,1,44,90,1196.0,2.989583,DottedHalf,G#2_D#3
4472,Right,0,60,93,1197.0,0.989583,Quarter,C4
4471,Left,1,56,93,1197.0,0.489583,Eighth,G#3
4473,Left,1,55,94,1197.5,0.489583,Eighth,G3
4475,Right,0,65,96,1198.0,1.989583,Half,F4
4474,Left,1,53,96,1198.0,0.989583,Quarter,F3
4476,Left,1,53,98,1199.0,0.989583,Eighth,F3_A2
4478,Right,0,73,98,1199.0,0.989583,Quarter,C#5
4479,Left,1,51,100,1199.5,0.489583,Eighth,D#3
4480,Left,1,46,101,1200.0,0.989583,Quarter,D3_A#2
4482,Right,0,65,101,1200.0,0.989583,Quarter,F4_D5
4485,Right,0,67,104,1201.0,0.489583,Eighth,G4_D#5
4484,Left,1,47,104,1201.0,0.989583,Quarter,B2_A#3
4488,Left,1,56,105,1201.5,0.489583,Eighth,G#3
4489,Right,0,74,105,1201.5,0.489583,Eighth,F4_D5
4492,Right,0,72,106,1202.0,0.989583,Quarter,D#4_C5
4491,Left,1,48,106,1202.0,0.989583,Quarter,G3_C3
4495,Right,0,62,109,1203.0,0.989583,Quarter,D4_B4
4496,Left,1,50,109,1203.0,0.989583,Quarter,F3_D3
4499,Right,0,67,110,1203.5,0.489583,Eighth,G4
4500,Right,0,75,110,1204.0,1.489583,DottedQuarter,D#5_C5
4501,Left,1,48,110,1204.0,0.989583,Quarter,G#2_C3
4504,Right,0,72,110,1205.5,0.489583,Eighth,D#5_C5
4506,Right,0,72,110,1206.0,0.989583,Quarter,D#5_C5
4508,Right,0,74,110,1207.0,0.489583,Eighth,F5_D5
4512,Right,0,75,110,1207.5,0.489583,Eighth,D#5_C5
4510,Left,1,48,110,1207.5,0.489583,Eighth,D#3_C3
4516,Left,1,56,110,1208.0,1.489583,DottedQuarter,G#3_F3
4514,Right,0,75,110,1208.0,0.989583,Quarter,D#5_C5
4518,Right,0,72,110,1209.0,0.989583,Quarter,G#4_C5
4520,Left,1,56,110,1209.5,0.489583,Eighth,G#3_F3
4523,Right,0,68,110,1210.0,1.989583,Half,G#4_C5
4522,Left,1,56,110,1210.0,0.989583,Quarter,G#3_F3
4526,Left,1,55,110,1211.0,0.489583,Eighth,G3_A#3
4528,Left,1,53,110,1211.5,0.489583,Eighth,G#3_F3
4531,Right,0,77,110,1212.0,0.989583,Quarter,G#5_F5
4530,Left,1,56,110,1212.0,0.989583,Quarter,G#3_F3
4536,Right,0,77,110,1213.0,0.489583,Eighth,G#5_F5
4534,Left,1,53,110,1213.0,0.989583,Quarter,F3_C#3
4538,Right,0,75,110,1213.5,0.489583,Eighth,G5_D#5
4542,Left,1,53,110,1214.0,1.989583,Half,F3_C#3
4540,Right,0,73,110,1214.0,0.989583,Quarter,F5_C#5
4544,Right,0,77,110,1215.0,0.489583,Eighth,F5_C#5
4546,Right,0,72,110,1215.5,0.489583,Eighth,D#5_C5
4548,Right,0,73,110,1216.0,0.989583,Quarter,C#5_A#4
4550,Left,1,61,110,1216.0,0.989583,Quarter,C#4_A#3
4552,Left,1,58,110,1217.0,0.489583,Eighth,C#4_A#3
4554,Left,1,56,110,1217.5,0.489583,Eighth,G#3_C4
4556,Right,0,73,110,1218.0,1.989583,Half,C#5_A#4
4558,Left,1,58,110,1218.0,0.989583,Quarter,G3_A#3
4560,Left,1,58,110,1219.0,0.489583,Eighth,F3_A#3
4562,Left,1,56,110,1219.5,0.489583,Eighth,G#3_F3
4564,Left,1,55,110,1220.0,0.989583,Quarter,G3_E3
4565,Right,0,82,110,1220.0,0.989583,Quarter,G5_A#5
4568,Right,0,82,110,1221.0,0.489583,Eighth,G5_A#5
4570,Right,0,80,110,1221.5,0.489583,Eighth,G#5_F5
4572,Right,0,79,110,1222.0,0.989583,Quarter,G5_E5
4574,Left,1,52,110,1222.0,1.989583,Half,G3_E3
4576,Right,0,76,110,1223.0,0.489583,Eighth,G5_E5
4578,Right,0,74,110,1223.5,0.489583,Eighth,F5_D5
4581,Right,0,76,110,1224.0,0.989583,Quarter,E5_C5
4580,Left,1,60,110,1224.0,0.989583,Quarter,E4_C4
4584,Left,1,63,110,1225.0,0.489583,Eighth,D#4_C4
4586,Left,1,61,110,1225.5,0.489583,Eighth,C#4_A#3
4588,Right,0,72,110,1226.0,1.989583,Half,F5_C5
4589,Left,1,60,110,1226.0,0.989583,Quarter,G#3_C4
4592,Left,1,60,110,1227.0,0.489583,Eighth,G#3_C4
4594,Left,1,58,110,1227.5,0.489583,Eighth,G3_A#3
4598,Left,1,56,110,1228.0,0.989583,Quarter,G#3_F3
4596,Right,0,80,110,1228.0,0.989583,Quarter,G#5_C6
4600,Right,0,84,110,1229.0,0.489583,Eighth,G#5_C6
4602,Left,1,53,110,1229.0,0.489583,Eighth,F3_D3
4604,Right,0,82,110,1229.5,0.489583,Eighth,G5_A#5
4606,Left,1,55,110,1229.5,0.489583,Eighth,G3_D#3
4609,Right,0,77,110,1230.0,0.989583,Quarter,G#5_F5
4608,Left,1,56,110,1230.0,0.989583,Quarter,G#3_F3
4612,Left,1,48,110,1231.0,0.489583,Eighth,D#3_C3
4614,Right,0,82,110,1231.0,0.489583,Eighth,G5_A#5
4616,Left,1,50,110,1231.5,0.489583,Eighth,F3_D3
4617,Right,0,77,110,1231.5,0.489583,Eighth,G#5_F5
4620,Left,1,55,110,1232.0,0.989583,Quarter,G3_D#3
4621,Right,0,79,110,1232.0,0.989583,Quarter,G5_D#5
4624,Left,1,50,110,1233.0,0.489583,Eighth,D3_B2
4626,Right,0,89,110,1233.0,0.489583,Eighth,G#5_F6
4630,Left,1,51,110,1233.5,0.489583,Eighth,D#3_C3
4628,Right,0,87,110,1233.5,0.489583,Eighth,G5_D#6
4632,Left,1,50,110,1234.0,0.989583,Quarter,F3_D3
4633,Right,0,86,110,1234.0,0.989583,Quarter,F5_D6
4637,Left,1,48,110,1235.0,0.489583,Eighth,C3_A2
4636,Right,0,87,110,1235.0,0.489583,Eighth,G5_D#6
4641,Left,1,47,110,1235.5,0.489583,Eighth,D3_B2
4640,Right,0,77,110,1235.5,0.489583,Eighth,F5_D6
4644,Right,0,84,110,1236.0,0.989583,Quarter,D#5_C6
4645,Left,1,51,110,1236.0,0.989583,Quarter,D#3_C3
4648,Left,1,65,110,1237.0,0.489583,Eighth,F4_C#4
4650,Right,0,79,110,1237.0,0.489583,Eighth,G5_A#5
4652,Right,0,84,110,1237.5,0.489583,Eighth,G#5_C6
4653,Left,1,60,110,1237.5,0.489583,Eighth,D#4_C4
4657,Left,1,61,110,1238.0,0.989583,Quarter,C#4_A#3
4656,Right,0,82,110,1238.0,0.989583,Quarter,C#6_A#5
4661,Right,0,77,110,1239.0,0.489583,Eighth,G#5_F5
4660,Left,1,63,110,1239.0,0.489583,Eighth,D#4_C4
4665,Right,0,79,110,1239.5,0.489583,Eighth,G5_A#5
4664,Left,1,61,110,1239.5,0.489583,Eighth,C#4_A#3
4669,Right,0,80,110,1240.0,0.989583,Quarter,G#5_C6
4668,Left,1,60,110,1240.0,0.989583,Quarter,G#3_C4
4672,Right,0,75,110,1241.0,0.989583,Eighth,D#5_C5
4673,Left,1,60,110,1241.0,0.989583,Quarter,G#3_C4
4676,Right,0,77,110,1241.5,0.489583,Eighth,F5
4679,Left,1,55,110,1242.0,0.989583,Quarter,G3_D4
4677,Right,0,79,110,1242.0,0.989583,Quarter,G5_B4
4681,Right,0,74,110,1243.5,0.489583,Eighth,D5_B4
4683,Right,0,79,120,1244.0,3.989583,Whole,G5_B5
4685,Left,1,67,120,1245.5,0.489583,Eighth,G4_B4
4687,Left,1,67,120,1246.0,1.489583,DottedQuarter,G4_B4
4691,Right,0,71,120,1247.5,0.489583,Eighth,D5_B4
4689,Left,1,59,120,1247.5,0.489583,Eighth,G3_B3
4695,Left,1,59,120,1248.0,1.489583,DottedQuarter,G3_B3
4693,Right,0,79,120,1248.0,2.989583,DottedHalf,G5_B5
4697,Left,1,47,120,1249.5,0.489583,Eighth,G2_B2
4699,Left,1,47,120,1250.0,0.989583,Quarter,G2_B2
4701,Right,0,79,80,1251.0,0.989583,Quarter,G5_D#6_B5
4704,Right,0,86,80,1251.5,0.489583,Eighth,D6
4705,Right,0,86,80,1252.0,0.989583,Quarter,G6_D6_B5
4708,Right,0,89,80,1252.5,0.489583,Eighth,F6
4709,Left,1,87,80,1253.0,0.489583,Eighth,D#6
4710,Left,1,86,80,1253.5,0.489583,Eighth,D6
4711,Right,0,74,80,1254.0,0.989583,Quarter,G5_D5_B4
4714,Right,0,77,80,1254.5,0.489583,Eighth,F5
4715,Left,1,75,80,1255.0,0.489583,Eighth,D#5
4716,Left,1,74,80,1255.5,0.489583,Eighth,D5
4717,Right,0,67,80,1256.0,0.989583,Quarter,G4_D4_B3
4720,Right,0,65,80,1256.5,0.489583,Eighth,F4
4721,Left,1,63,80,1257.0,0.489583,Eighth,D#4
4722,Left,1,62,80,1257.5,0.489583,Eighth,D4
4723,Right,0,74,80,1258.0,0.989583,Quarter,G5_D5_B4
4726,Right,0,77,80,1258.5,0.489583,Eighth,F5
4727,Left,1,75,80,1259.0,0.489583,Eighth,D#5
4728,Left,1,74,80,1259.5,0.489583,Eighth,D5
4731,Left,1,72,120,1260.0,1.489583,DottedQuarter,C5_C4
4729,Right,0,79,120,1260.0,3.489583,DottedHalf,G5_D#6_C6
4734,Left,1,72,120,1261.5,0.489583,Eighth,D#5_C5
4736,Left,1,75,120,1262.0,1.989583,Half,D#5_C5
4740,Right,0,75,120,1263.5,3.989583,Whole,D#5
4738,Left,1,63,120,1263.5,0.489583,Eighth,D#4_C4
4741,Right,0,87,120,1264.0,2.989583,DottedHalf,D#6_C6
4743,Left,1,63,120,1264.0,1.489583,DottedQuarter,D#4_C4
4745,Left,1,51,120,1265.5,0.489583,Eighth,D#3_C3
4747,Left,1,51,120,1266.0,0.989583,Quarter,D#3_C3
4749,Right,0,79,80,1267.0,0.989583,Eighth,G5_F6_C6
4752,Right,0,87,80,1267.5,0.489583,Eighth,D#6
4753,Right,0,84,80,1268.0,0.989583,Quarter,G#6_D#6_C6
4756,Right,0,91,80,1268.5,0.489583,Eighth,G6
4757,Left,1,89,80,1269.0,0.489583,Eighth,F6
4758,Left,1,87,80,1269.5,0.489583,Eighth,D#6
4759,Right,0,80,80,1270.0,0.989583,Quarter,G#5_D#5_C5
4762,Right,0,79,80,1270.5,0.489583,Eighth,G5
4763,Left,1,77,80,1271.0,0.489583,Eighth,F5
4764,Left,1,75,80,1271.5,0.489583,Eighth,D#5
4765,Right,0,68,80,1272.0,0.989583,Quarter,G#4_D#4_C4
4768,Right,0,67,80,1272.5,0.489583,Eighth,G4
4769,Left,1,65,80,1273.0,0.489583,Eighth,F4
4770,Left,1,63,80,1273.5,0.489583,Eighth,D#4
4771,Right,0,72,80,1274.0,0.989583,Quarter,G#5_D#5_C5
4774,Right,0,79,80,1274.5,0.489583,Eighth,G5
4775,Left,1,77,80,1275.0,0.489583,Eighth,F5
4776,Left,1,75,80,1275.5,0.489583,Eighth,D#5
4777,Right,0,77,120,1276.0,3.489583,DottedHalf,F6_F5_D6
4780,Left,1,58,120,1276.0,1.989583,Half,A#3
4781,Left,1,70,120,1277.5,0.489583,Eighth,D5_A#4
4783,Left,1,70,120,1278.0,1.989583,Half,D5_A#4
4786,Left,1,58,120,1279.5,0.489583,Eighth,D4_A#3
4785,Right,0,74,120,1279.5,0.489583,Eighth,F5_D5
4791,Right,0,89,120,1280.0,2.989583,DottedHalf,F6_D6
4789,Left,1,62,120,1280.0,1.989583,Half,D4_A#3
4795,Right,0,77,120,1281.5,0.489583,Eighth,F5
4793,Left,1,46,120,1281.5,0.489583,Eighth,D3_A#2
4796,Left,1,50,120,1282.0,0.989583,Quarter,D3_A#2
4798,Right,0,82,120,1282.0,0.989583,Quarter,A#5
4799,Right,0,86,80,1283.0,0.989583,Quarter,G6_D6_A#5
4802,Right,0,89,80,1283.5,0.489583,Eighth,F6
4803,Right,0,94,80,1284.0,0.989583,Quarter,F6_D6_A#6
4806,Right,0,92,80,1284.5,0.489583,Eighth,G#6
4807,Left,1,91,80,1285.0,0.489583,Eighth,G6
4808,Left,1,89,80,1285.5,0.489583,Eighth,F6
4809,Right,0,74,80,1286.0,0.989583,Quarter,F5_D5_A#5
4812,Right,0,80,82,1286.5,0.489583,Eighth,G#5
4813,Left,1,79,85,1287.0,0.489583,Eighth,G5
4814,Left,1,77,88,1287.5,0.489583,Eighth,F5
4815,Right,0,70,91,1288.0,0.989583,Quarter,F4_D4_A#4
4818,Right,0,68,94,1288.5,0.489583,Eighth,G#4
4819,Left,1,67,96,1289.0,0.489583,Eighth,G4
4820,Left,1,65,99,1289.5,0.489583,Eighth,F4
4821,Right,0,74,102,1290.0,0.989583,Quarter,F5_D5_A#5
4824,Right,0,80,105,1290.5,0.489583,Eighth,G#5
4825,Left,1,79,108,1291.0,0.489583,Eighth,G5
4826,Left,1,77,110,1291.5,0.489583,Eighth,F5
4828,Left,1,63,120,1292.0,1.989583,Half,D#4
4827,Right,0,91,120,1292.0,3.989583,Whole,G6_D#6
4830,Left,1,79,120,1293.5,0.489583,Eighth,G5_D#5
4832,Left,1,79,120,1294.0,1.989583,Half,G5_D#5
4836,Left,1,67,120,1295.5,0.489583,Eighth,G4_D#4
4834,Right,0,79,120,1295.5,0.489583,Eighth,G5_A#5
4838,Right,0,87,120,1296.0,2.989583,DottedHalf,G6_D#6
4839,Left,1,67,120,1296.0,1.989583,Half,G4
4843,Right,0,79,120,1297.5,0.489583,Eighth,G5
4841,Left,1,51,120,1297.5,0.489583,Eighth,D#4_D#3
4844,Right,0,84,120,1298.0,0.989583,Quarter,C6
4845,Left,1,51,120,1298.0,0.989583,Quarter,D#4_D#3
4847,Right,0,81,120,1299.5,0.489583,Eighth,F#5_A5
4849,Right,0,93,120,1300.0,3.989583,Whole,F#6_A6
4851,Left,1,62,120,1301.5,0.489583,Eighth,D5_D4
4853,Left,1,74,120,1302.0,1.989583,Half,D5
4854,Right,0,81,120,1303.5,0.489583,Eighth,F#5_A5
4855,Left,1,50,120,1303.5,0.489583,Eighth,D4_D3
4860,Right,0,90,120,1304.0,3.489583,DottedHalf,F#6_A6
4858,Left,1,62,120,1304.0,1.489583,DottedQuarter,D4_D3
4862,Left,1,38,120,1305.5,0.489583,Eighth,D3_D2
4864,Right,0,81,120,1305.5,0.489583,Eighth,A5
4867,Right,0,86,120,1306.0,1.489583,DottedQuarter,D6
4865,Left,1,50,120,1306.0,0.989583,Quarter,D3_D2
4868,Right,0,80,120,1307.5,0.489583,Eighth,G#5_B5
4870,Right,0,95,120,1308.0,3.989583,Whole,G#6_F6_D6_B6
4874,Left,1,74,120,1309.5,0.489583,Eighth,G#4_F4_D5_D4_B4
4879,Left,1,65,120,1310.0,1.989583,Half,G#4_F4_D5_B4
4885,Left,1,50,120,1311.5,0.489583,Eighth,G#3_F3_D4_D3_B3
4883,Right,0,80,120,1311.5,0.489583,Eighth,G#5_B5
4890,Left,1,56,120,1312.0,1.989583,Half,G#3_F3_D4_B3
4891,Right,0,95,120,1312.0,3.489583,DottedHalf,G#6_F6_D6_B6_B5
4899,Left,1,38,120,1313.5,0.489583,Eighth,G#2_F2_D3_D2_B2
4904,Left,1,51,120,1314.0,0.989583,Quarter,G#2_F2_D2_D#3_A#2
4909,Right,0,85,120,1315.5,0.489583,Eighth,G5_E5_C#6_B5
4913,Right,0,97,120,1316.0,3.989583,Whole,G6_E6_C#7_A#6
4917,Left,1,76,120,1317.5,0.489583,Eighth,G4_E5_D4_A#4
4921,Left,1,62,120,1318.0,1.989583,Half,G4_E5_D4_A#4
4925,Left,1,55,120,1319.5,0.489583,Eighth,G3_E4_D3_A#3
4927,Right,0,82,120,1319.5,0.489583,Eighth,G5_E5_C#6_A#5
4933,Left,1,50,120,1320.0,1.489583,DottedQuarter,G3_E4_D3_A#3
4936,Right,0,91,120,1320.0,3.489583,DottedHalf,G6_E6_C#7_A#6
4941,Left,1,52,120,1321.5,0.489583,Eighth,G2_E3_D2_A#2
4945,Left,1,52,120,1322.0,0.989583,Quarter,G2_E3_D2_A#2
4949,Right,0,86,120,1323.5,0.489583,Eighth,F#5_D6_A5
4952,Right,0,90,120,1324.0,1.489583,DottedQuarter,F#6_D7_D6_A6
4958,Right,0,86,120,1325.5,0.489583,Eighth,D6
4956,Left,1,74,120,1325.5,0.489583,Eighth,F#4_D5_D4_A4
4961,Right,0,98,120,1326.0,1.489583,DottedQuarter,D7
4962,Left,1,62,120,1326.0,1.489583,DottedQuarter,F#4_D5_D4_A4
4966,Right,0,74,120,1327.5,0.489583,Eighth,D5
4967,Left,1,50,120,1327.5,0.489583,Eighth,D4_D3
4969,Left,1,62,119,1328.0,1.489583,DottedQuarter,D4_D3
4970,Right,0,86,119,1328.0,1.489583,DottedQuarter,D6
4972,Right,0,74,114,1329.5,0.489583,Eighth,D5
4973,Left,1,50,114,1329.5,0.489583,Eighth,D3_D2
4977,Right,0,86,112,1330.0,1.489583,DottedQuarter,D6
4975,Left,1,38,112,1330.0,1.489583,DottedQuarter,D3_D2
4978,Right,0,74,107,1331.5,0.489583,Eighth,D5
4979,Left,1,50,107,1331.5,0.489583,Eighth,D3
4981,Left,1,38,105,1332.0,1.489583,DottedQuarter,D2
4980,Right,0,86,105,1332.0,1.489583,DottedQuarter,D6
4983,Right,0,74,100,1333.5,0.489583,Eighth,D5
4982,Left,1,62,100,1333.5,0.489583,Eighth,D4
4984,Right,0,86,99,1334.0,1.489583,DottedQuarter,D6
4985,Left,1,50,99,1334.0,1.489583,DottedQuarter,D3
4987,Right,0,74,94,1335.5,0.489583,Eighth,D5
4986,Left,1,62,94,1335.5,0.489583,Eighth,D4
4989,Right,0,86,92,1336.0,1.489583,DottedQuarter,D6
4988,Left,1,50,92,1336.0,1.489583,DottedQuarter,D3
4991,Left,1,62,87,1337.5,0.489583,Eighth,D4
4990,Right,0,74,87,1337.5,0.489583,Eighth,D5
4992,Right,0,86,86,1338.0,1.489583,DottedQuarter,D6
4993,Left,1,50,86,1338.0,1.489583,DottedQuarter,D3
4995,Left,1,71,81,1339.5,0.489583,Eighth,B4
4994,Right,0,75,81,1339.5,0.489583,Eighth,D#5
4997,Left,1,59,80,1340.0,0.65625,DottedEighth,B3
4996,Right,0,87,80,1340.0,3.989583,Whole,D#6
4998,Left,1,71,80,1340.666667,0.65625,DottedEighth,B4
4999,Left,1,70,80,1341.333333,0.65625,DottedEighth,A#4
5000,Left,1,71,80,1342.0,0.65625,DottedEighth,B4
5001,Right,0,75,80,1342.0,1.989583,Half,D#5
5002,Left,1,66,80,1342.677083,0.65625,DottedEighth,F#4
5003,Left,1,71,80,1343.333333,0.65625,DottedEighth,B4
5006,Left,1,67,80,1344.0,0.65625,DottedEighth,G4
5004,Right,0,76,80,1344.0,3.989583,Whole,E6_E5
5007,Left,1,71,80,1344.666667,0.65625,DottedEighth,B4
5008,Left,1,67,80,1345.333333,0.65625,DottedEighth,G4
5009,Left,1,71,80,1346.0,0.65625,DottedEighth,B4
5010,Right,0,79,80,1346.0,1.989583,Half,G5
5011,Left,1,64,80,1346.666667,0.65625,DottedEighth,E4
5012,Left,1,71,80,1347.333333,0.65625,DottedEighth,B4
5015,Left,1,63,80,1348.0,0.65625,DottedEighth,D#4
5013,Right,0,78,80,1348.0,3.989583,Half,F#5_B5
5016,Left,1,71,80,1348.666667,0.65625,DottedEighth,B4
5017,Left,1,63,80,1349.333333,0.65625,DottedEighth,D#4
5018,Right,0,75,80,1350.0,1.989583,Half,D#5
5019,Left,1,71,80,1350.0,0.65625,DottedEighth,B4
5020,Left,1,59,80,1350.666667,0.65625,DottedEighth,B3
5021,Left,1,71,80,1351.333333,0.65625,DottedEighth,B4
5023,Right,0,79,80,1352.0,1.989583,Half,G5_E5_B4
5022,Left,1,59,80,1352.0,0.65625,DottedEighth,B3
5026,Left,1,64,80,1352.666667,0.65625,DottedEighth,E4
5027,Left,1,59,80,1353.333333,0.65625,DottedEighth,B3
5028,Right,0,71,80,1354.0,1.989583,Half,E5_B4
5030,Left,1,67,80,1354.0,0.65625,DottedEighth,G4
5031,Left,1,64,80,1354.666667,0.65625,DottedEighth,E4
5032,Left,1,67,80,1355.333333,0.65625,DottedEighth,G4
5034,Left,1,66,80,1356.0,0.65625,DottedEighth,F#4
5033,Right,0,74,80,1356.0,1.989583,Half,D5
5035,Left,1,71,80,1356.666667,0.65625,DottedEighth,B4
5036,Left,1,66,80,1357.333333,0.65625,DottedEighth,F#4
5038,Left,1,71,80,1358.0,0.65625,DottedEighth,B4
5037,Right,0,75,80,1358.0,1.989583,Half,D#5
5039,Left,1,66,80,1358.666667,0.65625,DottedEighth,F#4
5040,Left,1,71,80,1359.333333,0.65625,DottedEighth,B4
5042,Left,1,66,80,1360.0,0.65625,DottedEighth,F#4
5041,Right,0,78,80,1360.0,1.989583,Half,F#5
5043,Left,1,70,80,1360.666667,0.65625,DottedEighth,A#4
5044,Left,1,66,80,1361.333333,0.65625,DottedEighth,F#4
5045,Right,0,76,80,1362.0,0.989583,Quarter,E5
5046,Left,1,70,80,1362.0,0.65625,DottedEighth,A#4
5047,Left,1,66,80,1362.666667,0.65625,DottedEighth,F#4
5048,Right,0,73,80,1363.0,0.989583,Quarter,C#5
5049,Left,1,70,80,1363.333333,0.65625,DottedEighth,A#4
5050,Right,0,75,80,1364.0,0.989583,Quarter,D#5
5051,Left,1,66,80,1364.0,0.65625,DottedEighth,F#4
5052,Left,1,71,80,1364.666667,0.65625,DottedEighth,B4
5053,Right,0,62,80,1365.0,0.989583,Quarter,D4
5054,Left,1,66,80,1365.333333,0.65625,DottedEighth,F#4
5055,Left,1,71,80,1366.0,0.65625,DottedEighth,B4
5056,Right,0,63,80,1366.0,1.989583,Half,D#4
5057,Left,1,66,80,1366.666667,0.65625,DottedEighth,F#4
5058,Left,1,71,80,1367.333333,0.65625,DottedEighth,B4
5059,Left,1,70,80,1368.0,0.65625,DottedEighth,A#4
5060,Right,0,66,80,1368.0,1.989583,Half,F#4
5061,Left,1,73,80,1368.666667,0.65625,DottedEighth,C#5
5062,Left,1,70,80,1369.333333,0.65625,DottedEighth,A#4
5063,Left,1,73,80,1370.0,0.65625,DottedEighth,C#5
5064,Right,0,64,80,1370.0,0.989583,Quarter,E4
5065,Left,1,70,80,1370.666667,0.65625,DottedEighth,A#4
5066,Right,0,61,80,1371.0,0.989583,Quarter,C#4
5067,Left,1,73,80,1371.333333,0.65625,DottedEighth,C#5
5069,Right,0,75,80,1372.0,0.489583,Eighth,D#5_B4
5068,Left,1,66,80,1372.0,0.65625,DottedEighth,F#4
5071,Right,0,76,80,1372.5,0.489583,Eighth,E5
5072,Left,1,71,80,1372.666667,0.65625,DottedEighth,B4
5073,Right,0,75,80,1373.0,0.489583,Eighth,D#5
5074,Left,1,66,80,1373.333333,0.65625,DottedEighth,F#4
5075,Right,0,74,80,1373.5,0.489583,Eighth,D5
5076,Left,1,71,80,1374.0,0.65625,DottedEighth,B4
5077,Right,0,75,80,1374.0,0.489583,Eighth,D#5
5078,Right,0,76,80,1374.5,0.489583,Eighth,E5
5079,Left,1,66,80,1374.666667,0.65625,DottedEighth,F#4
5080,Right,0,78,80,1375.0,0.489583,Eighth,F#5
5081,Left,1,71,80,1375.333333,0.65625,DottedEighth,B4
5082,Right,0,77,80,1375.5,0.489583,Eighth,F5
5083,Left,1,66,80,1376.0,0.65625,DottedEighth,F#4
5084,Right,0,80,80,1376.0,0.489583,Eighth,G#5
5085,Right,0,78,80,1376.5,0.489583,Eighth,F#5
5086,Left,1,70,80,1376.666667,0.65625,DottedEighth,A#4
5087,Right,0,77,80,1377.0,0.489583,Eighth,F5
5088,Left,1,66,80,1377.333333,0.65625,DottedEighth,F#4
5089,Right,0,78,80,1377.5,0.489583,Eighth,F#5
5091,Right,0,76,80,1378.0,0.489583,Eighth,E5
5090,Left,1,70,80,1378.0,0.65625,DottedEighth,A#4
5092,Right,0,75,80,1378.5,0.489583,Eighth,D#5
5093,Left,1,66,80,1378.666667,0.65625,DottedEighth,F#4
5094,Right,0,76,80,1379.0,0.489583,Eighth,E5
5095,Left,1,70,80,1379.333333,0.65625,DottedEighth,A#4
5096,Right,0,73,80,1379.5,0.489583,Eighth,C#5
5098,Left,1,66,80,1380.0,0.65625,DottedEighth,F#4
5097,Right,0,63,80,1380.0,0.989583,Eighth,D#5_D#4
5100,Right,0,64,80,1380.5,0.489583,Eighth,E4
5101,Left,1,71,80,1380.666667,0.65625,DottedEighth,B4
5102,Right,0,63,80,1381.0,0.489583,Eighth,D#4
5103,Left,1,66,80,1381.333333,0.65625,DottedEighth,F#4
5104,Right,0,62,80,1381.5,0.489583,Eighth,D4
5105,Right,0,63,80,1382.0,0.489583,Eighth,D#4
5106,Left,1,71,80,1382.0,0.65625,DottedEighth,B4
5107,Right,0,64,80,1382.5,0.489583,Eighth,E4
5108,Left,1,66,80,1382.666667,0.65625,DottedEighth,F#4
5109,Right,0,66,80,1383.0,0.489583,Eighth,F#4
5110,Left,1,71,80,1383.333333,0.65625,DottedEighth,B4
5111,Right,0,65,80,1383.5,0.489583,Eighth,F4
5113,Left,1,70,80,1384.0,0.65625,DottedEighth,A#4
5112,Right,0,68,80,1384.0,0.489583,Eighth,G#4
5114,Right,0,66,80,1384.5,0.489583,Eighth,F#4
5115,Left,1,73,80,1384.666667,0.65625,DottedEighth,C#5
5116,Right,0,65,80,1385.0,0.489583,Eighth,F4
5117,Left,1,70,80,1385.333333,0.65625,DottedEighth,A#4
5118,Right,0,66,80,1385.5,0.489583,Eighth,F#4
5120,Right,0,64,80,1386.0,0.489583,Eighth,E4
5119,Left,1,73,80,1386.0,0.989583,Quarter,C#5
5121,Right,0,63,80,1386.5,0.489583,Eighth,D#4
5122,Right,0,64,80,1387.0,0.489583,Eighth,E4
5123,Left,1,30,110,1387.5,0.489583,Eighth,F#1
5124,Right,0,66,80,1387.5,0.489583,Eighth,F#4
5126,Left,1,34,110,1388.0,1.489583,DottedQuarter,A#1
5125,Right,0,61,80,1388.0,0.989583,Quarter,F#3_E4_C#4
5129,Left,1,34,110,1389.5,0.489583,Eighth,A#1
5130,Left,1,34,110,1390.0,0.989583,Quarter,A#1
5131,Left,1,35,110,1391.0,0.489583,Eighth,B1
5132,Left,1,34,110,1391.5,0.489583,Eighth,A#1
5133,Right,0,54,110,1391.5,0.489583,Eighth,F#3
5135,Right,0,58,110,1392.0,1.489583,DottedQuarter,A#3
5134,Left,1,34,110,1392.0,0.989583,Quarter,A#1
5136,Left,1,30,110,1393.0,0.989583,Quarter,F#1
5137,Right,0,58,110,1393.5,0.489583,Eighth,A#3
5138,Right,0,58,110,1394.0,0.989583,Quarter,A#3
5139,Right,0,59,110,1395.0,0.489583,Eighth,B3
5140,Right,0,66,80,1395.5,0.489583,Eighth,F#4_A#3
5143,Left,1,58,80,1396.0,0.989583,Quarter,A#3
5142,Right,0,73,80,1396.0,1.489583,DottedQuarter,C#5
5144,Left,1,54,80,1397.0,0.989583,Quarter,F#3
5145,Right,0,73,80,1397.5,0.489583,Eighth,C#5
5146,Right,0,73,80,1398.0,0.989583,Quarter,C#5
5147,Right,0,75,80,1399.0,0.489583,Eighth,D#5
5148,Right,0,73,80,1399.5,0.489583,Eighth,C#5_C#4
5150,Right,0,73,80,1400.0,1.489583,Quarter,E4_C#5
5152,Right,0,70,80,1401.0,0.989583,Quarter,A#4
5153,Right,0,64,80,1401.5,0.489583,Eighth,E4
5154,Right,0,64,80,1402.0,0.989583,Quarter,E4
5155,Right,0,66,80,1403.0,0.489583,Eighth,F#4
5156,Right,0,64,80,1403.5,0.489583,Eighth,E4
5157,Left,1,30,110,1403.5,0.489583,Eighth,F#1
5159,Left,1,40,110,1404.0,1.489583,DottedQuarter,E2
5158,Right,0,64,80,1404.0,0.489583,Eighth,E4
5160,Right,0,61,80,1404.5,0.489583,Eighth,C#4
5161,Left,1,40,110,1405.5,0.489583,Eighth,F#2_E2
5163,Left,1,52,110,1406.0,1.489583,DottedQuarter,E3_E2
5166,Left,1,52,80,1407.5,0.489583,Eighth,E3
5165,Right,0,66,80,1407.5,0.489583,Eighth,F#4
5167,Left,1,52,80,1408.0,0.989583,Quarter,E3
5168,Right,0,76,80,1408.0,1.489583,DottedQuarter,E5
5169,Right,0,76,80,1409.5,0.489583,Eighth,E5_E4
5171,Right,0,76,80,1410.0,1.489583,Quarter,E5_C#5
5174,Left,1,37,80,1411.5,0.489583,Eighth,C#2
5173,Right,0,73,80,1411.5,0.489583,Eighth,C#5
5175,Right,0,73,80,1412.0,0.989583,Quarter,C#5
5176,Left,1,46,80,1412.0,1.489583,DottedQuarter,A#2
5177,Left,1,49,80,1413.5,0.489583,Eighth,C#3_A#2
5179,Left,1,46,80,1414.0,0.989583,Quarter,A#2
5181,Left,1,58,80,1415.5,0.072917,TripletThirtySecond,A#3
5180,Right,0,73,80,1415.5,0.489583,Eighth,C#5
5182,Right,0,82,80,1416.0,1.489583,DottedQuarter,A#5
5183,Left,1,58,80,1416.0,0.989583,Quarter,A#3
5184,Left,1,61,80,1417.5,0.489583,Eighth,C#4
5185,Right,0,82,80,1417.5,0.489583,Eighth,A#5
5187,Left,1,70,80,1418.0,1.489583,DottedQuarter,A#4
5186,Right,0,82,80,1418.0,0.989583,Quarter,A#5
5188,Right,0,70,80,1419.5,0.489583,Eighth,A#4
5189,Left,1,37,80,1419.5,0.489583,Eighth,C#2
5191,Left,1,49,80,1420.0,3.489583,DottedHalf,C#3
5190,Right,0,70,80,1420.0,0.989583,Quarter,A#4
5192,Right,0,52,80,1421.5,0.489583,Eighth,E3
5193,Right,0,61,80,1422.0,3.489583,DottedHalf,C#4
5194,Left,1,43,80,1423.5,0.489583,Eighth,G2
5195,Left,1,52,80,1424.0,3.489583,DottedHalf,E3
5196,Right,0,55,80,1425.5,0.489583,Eighth,G3
5197,Right,0,64,80,1426.0,2.489583,Half,E4
5198,Left,1,43,80,1427.5,0.489583,Eighth,G2
5199,Left,1,52,80,1428.0,1.489583,DottedQuarter,E3
5200,Right,0,55,80,1428.5,0.489583,Eighth,G3
5201,Right,0,64,81,1429.0,1.489583,DottedQuarter,E4
5202,Left,1,67,82,1429.5,0.489583,Eighth,G4
5203,Left,1,76,83,1430.0,1.489583,DottedQuarter,E5
5204,Right,0,79,84,1430.5,0.489583,Eighth,G5
5205,Right,0,88,85,1431.0,1.489583,DottedQuarter,E6
5206,Left,1,44,86,1431.5,0.489583,Eighth,G#2
5207,Left,1,52,87,1432.0,1.489583,DottedQuarter,E3
5208,Right,0,56,88,1432.5,0.489583,Eighth,G#3
5209,Right,0,64,89,1433.0,1.489583,DottedQuarter,E4
5210,Left,1,68,90,1433.5,0.489583,Eighth,G#4
5211,Left,1,76,91,1434.083333,1.489583,DottedQuarter,E5
5212,Right,0,80,92,1434.5,0.489583,Eighth,G#5
5213,Right,0,88,93,1435.0,1.489583,DottedQuarter,E6
5214,Left,1,45,94,1435.5,0.489583,Eighth,A2
5215,Left,1,52,95,1436.0,1.489583,DottedQuarter,E3
5216,Right,0,57,96,1436.5,0.489583,Eighth,A3
5217,Right,0,64,97,1437.0,1.489583,DottedQuarter,E4
5218,Left,1,69,98,1437.5,0.489583,Eighth,A4
5219,Left,1,76,99,1438.0,1.489583,DottedQuarter,E5
5220,Right,0,81,100,1438.5,0.489583,Eighth,A5
5221,Right,0,88,101,1439.0,1.489583,DottedQuarter,E6
5222,Left,1,45,102,1439.5,0.489583,Eighth,A2
5223,Left,1,53,103,1440.0,1.489583,DottedQuarter,F3
5224,Right,0,57,104,1440.5,0.489583,Eighth,A3
5225,Right,0,65,105,1441.0,1.489583,DottedQuarter,F4
5226,Left,1,69,106,1441.5,0.489583,Eighth,A4
5227,Left,1,77,107,1442.0,1.489583,DottedQuarter,F5
5228,Right,0,81,108,1442.5,0.489583,Eighth,A5
5229,Right,0,89,109,1443.0,0.989583,Quarter,F6
5230,Left,1,46,110,1443.5,0.489583,Eighth,A#2_A#1
5233,Right,0,74,120,1444.0,1.489583,DottedQuarter,F5_D6_D5_A#5
5232,Left,1,46,120,1444.0,0.989583,Quarter,A#3_A#2
5238,Left,1,60,120,1445.0,0.489583,Eighth,C4
5240,Right,0,86,120,1445.5,0.489583,Eighth,F5_D6_D5_A#5
5239,Left,1,58,120,1445.5,0.489583,Eighth,A#3
5244,Right,0,77,120,1446.0,0.989583,Quarter,F5_D6_D5_A#5
5245,Left,1,53,120,1446.0,0.989583,Quarter,F3
5249,Right,0,74,120,1447.0,0.489583,Eighth,F5_D5_D#6_A#5
5253,Left,1,55,120,1447.0,0.489583,Eighth,G3
5254,Left,1,53,120,1447.5,0.489583,Eighth,F3
5255,Right,0,86,120,1447.5,0.489583,Eighth,F5_D6_D5_A#5
5260,Right,0,77,120,1448.0,0.989583,Quarter,F5_D6_D5_A#5
5259,Left,1,50,120,1448.0,0.989583,Quarter,D3
5264,Right,0,82,120,1449.0,0.989583,Quarter,F5_D5_A#5_A#4
5268,Left,1,51,120,1449.0,0.489583,Eighth,D#3
5269,Left,1,50,120,1449.5,0.489583,Eighth,D3
5270,Left,1,46,120,1450.0,0.989583,Quarter,A#2
5271,Left,1,48,120,1451.0,0.489583,Eighth,C3
5272,Right,0,74,120,1451.5,0.489583,Eighth,F5_D5
5273,Left,1,46,120,1451.5,0.489583,Eighth,A#2
5275,Right,0,77,120,1452.0,1.489583,DottedQuarter,F6_F5_A#5
5276,Left,1,38,120,1452.0,0.989583,Quarter,D2
5279,Left,1,50,120,1452.125,0.864583,DottedEighth,D3
5280,Left,1,62,120,1452.25,0.739583,DottedEighth,D4
5281,Left,1,63,120,1453.0,0.489583,Eighth,D#4
5282,Left,1,62,120,1453.5,0.489583,Eighth,D4
5283,Right,0,89,120,1453.5,0.489583,Eighth,F6_F5_D6_A#5
5288,Left,1,58,120,1454.0,0.989583,Quarter,A#3
5287,Right,0,82,120,1454.0,0.989583,Quarter,F6_F5_D6_A#5
5292,Left,1,62,120,1455.0,0.489583,Eighth,D4
5293,Right,0,91,120,1455.0,0.489583,Eighth,G6_F5_D6_A#5
5297,Right,0,82,120,1455.5,0.489583,Eighth,F6_F5_D6_A#5
5298,Left,1,58,120,1455.5,0.489583,Eighth,A#3
5305,Left,1,53,120,1456.0,0.989583,Quarter,F3
5302,Right,0,86,120,1456.0,0.989583,Quarter,F6_F5_D6_A#5
5307,Right,0,86,120,1457.0,0.989583,Quarter,F5_D6_D5_A#5
5311,Left,1,58,120,1457.0,0.489583,Eighth,A#3
5312,Left,1,53,120,1457.5,0.489583,Eighth,F3
5313,Left,1,50,120,1458.0,0.489583,Eighth,D3
5314,Left,1,46,120,1458.5,0.489583,Eighth,A#2
5315,Right,0,79,80,1459.0,0.489583,Eighth,G5_A#5
5316,Left,1,51,80,1459.0,0.489583,Eighth,D#3
5319,Left,1,48,80,1459.5,0.489583,Eighth,C3
5318,Right,0,81,80,1459.5,0.489583,Eighth,C6_A5
5321,Left,1,46,80,1460.0,0.989583,Quarter,A#2
5322,Right,0,86,80,1460.0,1.989583,Half,D6_D5_A#5
5325,Left,1,48,80,1461.0,0.489583,Eighth,C3
5326,Left,1,46,80,1461.5,0.489583,Eighth,A#2
5327,Left,1,41,80,1462.0,0.989583,Quarter,F3_F2
5329,Right,0,81,80,1462.0,0.989583,Quarter,F5_C6_A5
5332,Right,0,69,80,1463.0,0.989583,Eighth,F4_C5_A4
5335,Left,1,51,80,1463.0,0.489583,Eighth,D#3
5338,Left,1,50,80,1463.5,0.489583,Eighth,D3
5336,Right,0,71,80,1463.5,0.489583,Eighth,D5_B4
5339,Left,1,48,80,1464.0,0.989583,Quarter,C3
5340,Right,0,67,80,1464.0,1.989583,Half,G4_D#5_C5
5343,Left,1,50,80,1465.0,0.489583,Eighth,D3
5344,Left,1,48,80,1465.5,0.489583,Eighth,C3
5345,Left,1,55,80,1466.0,0.989583,Quarter,G3_G2
5346,Right,0,67,80,1466.0,0.989583,Quarter,G4_D5_A#4
5350,Right,0,74,80,1467.0,1.989583,Eighth,D5_A#4
5351,Left,1,56,80,1467.0,0.489583,Eighth,G#3_F3
5354,Right,0,75,80,1467.5,0.489583,Eighth,D#5
5355,Left,1,55,80,1467.5,0.489583,Eighth,G3_D#3
5359,Right,0,77,80,1468.0,1.489583,DottedQuarter,F5
5357,Left,1,53,80,1468.0,0.989583,Quarter,F3_D3
5360,Left,1,49,80,1469.0,0.989583,Quarter,E3_C#3
5361,Right,0,67,80,1469.0,0.989583,Quarter,G4_A#4
5364,Right,0,79,80,1469.5,0.489583,Eighth,G5
5365,Left,1,51,80,1470.0,0.989583,Quarter,D#3_C3
5366,Right,0,67,80,1470.0,0.989583,Quarter,G4_F5
5369,Right,0,75,80,1470.5,0.989583,Quarter,D#5
5370,Left,1,41,80,1471.0,0.989583,Quarter,F2_C3
5371,Right,0,69,80,1471.0,0.989583,Quarter,A4
5373,Right,0,77,80,1471.5,0.489583,Eighth,F5
5376,Right,0,75,80,1472.0,0.489583,Eighth,D#5
5374,Left,1,46,80,1472.0,0.989583,Quarter,G2_A#2
5377,Right,0,74,80,1472.5,0.489583,Eighth,D5
5378,Right,0,77,80,1473.0,0.489583,Eighth,G#4_F5_F4_D5
5382,Left,1,38,80,1473.0,0.489583,Eighth,D2_B2
5384,Right,0,72,80,1473.5,0.489583,Eighth,G4_D#5_D#4_C5
5388,Left,1,48,80,1473.5,0.489583,Eighth,D#2_C3
5391,Right,0,60,80,1474.0,4.989583,Unknown,C5_C4_A4
5390,Left,1,48,80,1474.0,4.989583,Unknown,F2_C3
5397,Right,0,74,80,1479.0,0.489583,Eighth,D5
5395,Left,1,53,80,1479.0,0.989583,Quarter,F3_A#3
5398,Right,0,75,80,1479.5,0.489583,Eighth,D#5
5399,Left,1,60,80,1479.5,0.489583,Eighth,C4
5401,Left,1,62,80,1480.0,6.989583,DottedQuarter,F3_D4
5400,Right,0,77,80,1480.0,1.489583,DottedQuarter,F5
5403,Right,0,69,80,1480.5,0.489583,Eighth,A4
5404,Right,0,70,80,1481.0,1.489583,DottedQuarter,A#4
5405,Left,1,63,80,1481.5,0.489583,Eighth,D#4
5406,Right,0,79,80,1481.5,0.489583,Eighth,G5
5408,Left,1,60,80,1482.0,1.489583,DottedQuarter,C4
5407,Right,0,75,80,1482.0,1.489583,DottedQuarter,D#5
5409,Right,0,66,80,1482.5,0.489583,Eighth,F#4
5410,Right,0,69,80,1483.0,1.489583,DottedQuarter,A4
5411,Right,0,77,80,1483.5,0.489583,Eighth,F5
5412,Left,1,62,80,1483.5,0.489583,Eighth,D4
5414,Right,0,75,80,1484.0,0.489583,Eighth,D#5
5413,Left,1,60,80,1484.0,0.489583,Eighth,C4
5415,Right,0,74,80,1484.5,0.489583,Eighth,D5
5416,Left,1,58,80,1484.5,0.489583,Eighth,A#3
5418,Right,0,77,80,1485.0,0.489583,Eighth,F5
5417,Left,1,62,80,1485.0,0.489583,Eighth,D4
5420,Left,1,60,80,1485.5,0.489583,Eighth,C4
5419,Right,0,75,80,1485.5,0.489583,Eighth,D#5
5421,Left,1,57,80,1486.0,0.989583,Quarter,A3
5422,Right,0,72,80,1486.0,0.989583,Quarter,C5
5423,Left,1,60,80,1487.0,0.989583,Eighth,C4_A#3
5425,Right,0,75,80,1487.0,0.489583,Eighth,D#5_D#4
5427,Left,1,62,80,1487.5,0.489583,Eighth,D4
5428,Right,0,77,80,1487.5,0.489583,Eighth,F5_F4
5430,Right,0,67,80,1488.0,1.489583,Eighth,G5_G4
5432,Left,1,58,80,1488.0,4.989583,Unknown,D#4_A#3
5434,Right,0,69,80,1488.5,0.489583,Eighth,A4
5435,Right,0,70,80,1489.0,1.489583,DottedQuarter,A#4
5436,Left,1,65,80,1489.5,0.489583,Eighth,F4
5437,Right,0,81,80,1489.5,0.489583,Eighth,A5
5439,Right,0,77,80,1490.0,1.489583,DottedQuarter,F5
5438,Left,1,62,80,1490.0,1.489583,DottedQuarter,D4
5440,Right,0,69,80,1490.5,0.489583,Eighth,A4
5441,Right,0,70,80,1491.0,1.989583,Half,A#4
5443,Right,0,79,80,1491.5,0.489583,Eighth,G5
5442,Left,1,63,80,1491.5,0.489583,Eighth,D#4
5445,Left,1,62,80,1492.0,0.489583,Eighth,D4
5444,Right,0,77,80,1492.0,0.489583,Eighth,F5
5446,Left,1,60,80,1492.5,0.489583,Eighth,C4
5447,Right,0,75,80,1492.5,0.489583,Eighth,D#5
5449,Left,1,58,80,1493.0,0.989583,Quarter,D#4_A#3
5448,Right,0,79,80,1493.0,1.989583,Eighth,G5_A#4
5453,Right,0,77,80,1493.5,0.489583,Eighth,F5
5452,Left,1,62,80,1493.5,0.489583,Eighth,D4
5454,Right,0,74,80,1494.0,0.989583,Quarter,D5
5455,Left,1,58,80,1494.0,0.989583,Quarter,A#3
5457,Left,1,62,80,1495.0,0.989583,Eighth,D4_A#3
5456,Right,0,77,80,1495.0,0.489583,Eighth,F5
5460,Right,0,78,80,1495.5,0.489583,Eighth,F#5
5459,Left,1,63,80,1495.5,0.489583,Eighth,D#4
5462,Right,0,80,80,1496.0,1.489583,DottedQuarter,G#5
5461,Left,1,58,80,1496.0,1.989583,Half,F4_A#3
5464,Right,0,69,80,1496.5,0.489583,Eighth,A4
5465,Right,0,70,80,1497.0,1.989583,Half,A#4
5467,Right,0,82,80,1497.5,0.489583,Eighth,A#5
5466,Left,1,66,80,1497.5,0.489583,Eighth,F#4
5468,Right,0,78,80,1498.0,0.989583,Quarter,F#5
5469,Left,1,63,80,1498.0,0.989583,Quarter,D#4
5471,Right,0,66,80,1499.0,0.489583,Eighth,F#5_F#4
5470,Left,1,63,80,1499.0,0.989583,Eighth,D#4_C#4
5474,Left,1,65,80,1499.5,0.489583,Eighth,F4
5475,Right,0,80,80,1499.5,0.489583,Eighth,G#5_G#4
5478,Right,0,70,80,1500.0,1.489583,Eighth,A#5_A#4
5477,Left,1,67,80,1500.0,3.989583,DottedQuarter,G4_C#4
5481,Right,0,72,80,1500.5,0.489583,Eighth,C5
5482,Right,0,73,80,1501.0,1.489583,DottedQuarter,C#5
5483,Right,0,83,80,1501.5,0.489583,Eighth,B5
5484,Left,1,68,80,1501.5,0.489583,Eighth,G#4
5485,Left,1,65,80,1502.0,0.489583,Eighth,F4
5486,Right,0,80,80,1502.0,0.989583,Quarter,G#5
5488,Left,1,71,80,1502.5,0.489583,Eighth,B4
5487,Right,0,77,80,1502.5,0.489583,Eighth,F5
5491,Left,1,70,80,1503.0,0.489583,Eighth,A#4
5489,Right,0,78,80,1503.0,0.489583,Eighth,F#5_A#5
5494,Left,1,68,80,1503.5,0.489583,Eighth,G#4
5492,Right,0,80,80,1503.5,0.489583,Eighth,G#5_B5
5497,Right,0,82,80,1504.0,1.489583,Quarter,C#6_A#5
5495,Left,1,66,80,1504.0,3.989583,Quarter,F#4_C#4
5499,Left,1,70,81,1505.0,1.989583,Half,A#4
5500,Right,0,78,81,1505.0,1.989583,Half,F#5
5501,Right,0,87,81,1505.5,0.489583,Eighth,D#6
5502,Right,0,85,82,1506.0,0.489583,Eighth,C#6
5503,Right,0,83,82,1506.5,0.989583,Quarter,B5
5504,Right,0,77,83,1507.0,1.989583,Half,F5
5505,Left,1,68,83,1507.0,1.989583,Half,G#4
5506,Right,0,85,83,1507.5,0.489583,Eighth,C#6
5507,Right,0,83,84,1508.0,0.489583,Eighth,B5
5508,Left,1,61,84,1508.0,3.989583,Whole,C#4
5509,Right,0,82,85,1508.5,0.989583,Quarter,A#5
5510,Left,1,66,85,1509.0,0.989583,Quarter,F#4
5511,Right,0,78,85,1509.0,1.489583,DottedQuarter,F#5
5512,Right,0,83,86,1509.5,0.489583,Eighth,B5
5514,Left,1,73,86,1510.0,0.989583,Quarter,C#5
5513,Right,0,82,86,1510.0,0.489583,Eighth,A#5
5515,Right,0,77,87,1510.5,0.489583,Eighth,G#5_F5
5517,Right,0,78,87,1511.0,0.489583,Eighth,F#5_A#5
5519,Left,1,71,87,1511.0,0.989583,Quarter,B4
5520,Right,0,80,88,1511.5,0.489583,Eighth,G#5_B5
5524,Right,0,80,89,1512.0,0.489583,Eighth,G#5_D#6
5522,Left,1,71,89,1512.0,3.989583,Eighth,C#4_B4
5526,Right,0,85,89,1512.5,0.489583,Eighth,F5_C#6
5528,Left,1,70,89,1512.5,0.489583,Eighth,A#4
5530,Left,1,71,90,1513.0,0.489583,Eighth,B4
5529,Right,0,78,90,1513.0,1.489583,DottedQuarter,F#5_D#6
5533,Right,0,85,90,1513.5,0.489583,Eighth,C#6
5532,Left,1,70,90,1513.5,0.489583,Eighth,A#4
5534,Left,1,70,91,1514.0,0.489583,Eighth,A#4
5535,Right,0,85,91,1514.0,0.489583,Eighth,C#6
5536,Right,0,76,91,1514.5,0.489583,Eighth,E5_B5
5538,Left,1,68,91,1514.5,0.489583,Eighth,G#4
5539,Right,0,77,92,1515.0,1.489583,DottedQuarter,F5_C#6
5541,Left,1,70,92,1515.0,0.489583,Eighth,A#4
5542,Right,0,83,92,1515.5,0.489583,Eighth,B5
5543,Left,1,68,92,1515.5,0.489583,Eighth,G#4
5545,Right,0,83,93,1516.0,0.489583,Eighth,B5
5544,Left,1,61,93,1516.0,3.989583,Whole,G#4_C#4
5548,Right,0,73,94,1516.5,0.489583,Eighth,C#5_A#5
5547,Left,1,66,94,1516.5,0.489583,Eighth,F#4
5550,Right,0,78,94,1517.0,1.489583,DottedQuarter,F#5_B5
5552,Left,1,75,94,1517.0,0.489583,Eighth,D#5
5554,Left,1,73,95,1517.5,0.489583,Eighth,C#5
5553,Right,0,82,95,1517.5,0.489583,Eighth,A#5
5556,Right,0,82,95,1518.0,0.489583,Eighth,A#5
5555,Left,1,73,95,1518.0,0.989583,Quarter,C#5
5557,Right,0,77,96,1518.5,0.489583,Eighth,G#5_F5
5561,Left,1,71,96,1519.0,0.989583,Quarter,B4
5559,Right,0,82,96,1519.0,0.489583,Eighth,F#5_A#5
5562,Right,0,83,97,1519.5,0.489583,Eighth,G#5_B5
5566,Right,0,87,98,1520.0,0.489583,Eighth,F5_D#6
5564,Left,1,69,98,1520.0,1.989583,Eighth,C#4_A4
5569,Right,0,85,98,1520.5,0.489583,Eighth,F#5_C#6
5568,Left,1,70,98,1520.5,0.489583,Eighth,A#4
5572,Left,1,71,99,1521.0,0.489583,Eighth,B4
5571,Right,0,78,99,1521.0,0.989583,Quarter,F#5_C#5
5575,Right,0,85,99,1521.5,0.489583,Eighth,C#6
5574,Left,1,70,99,1521.5,0.489583,Eighth,A#4
5577,Left,1,61,100,1522.0,1.989583,Half,G4_C#4
5576,Right,0,85,100,1522.0,0.489583,Eighth,E5_C#6
5582,Left,1,68,100,1522.5,0.489583,Eighth,G#4
5580,Right,0,83,100,1522.5,0.489583,Eighth,F5_B5
5583,Left,1,70,101,1523.0,0.489583,Eighth,A#4
5584,Right,0,77,101,1523.0,0.989583,Quarter,F5_B4
5586,Right,0,83,101,1523.5,0.489583,Eighth,B5
5587,Left,1,68,101,1523.5,0.489583,Eighth,G#4
5588,Right,0,83,102,1524.0,0.489583,Eighth,F5_B5
5590,Left,1,61,102,1524.0,1.989583,Half,F4_C#4
5594,Left,1,66,103,1524.5,0.489583,Eighth,F#4
5592,Right,0,78,103,1524.5,0.489583,Eighth,F#5_A#5
5596,Right,0,78,103,1525.0,0.989583,Quarter,F#5_A#4
5595,Left,1,68,103,1525.0,0.489583,Eighth,G#4
5599,Right,0,82,104,1525.5,0.489583,Eighth,A#5
5598,Left,1,66,104,1525.5,0.489583,Eighth,F#4
5601,Left,1,61,104,1526.0,0.989583,Quarter,F#4_C#4
5600,Right,0,82,104,1526.0,0.489583,Eighth,A#5
5603,Left,1,65,105,1526.5,0.489583,Eighth,F4
5604,Right,0,80,105,1526.5,0.489583,Eighth,G#5
5605,Left,1,60,105,1527.0,0.989583,Quarter,F#4_C4
5606,Right,0,82,105,1527.0,1.489583,Eighth,C#5_A#5
5610,Right,0,83,106,1527.5,0.489583,Eighth,B5
5609,Left,1,68,106,1527.5,0.489583,Eighth,G#4
5611,Left,1,70,107,1528.0,0.989583,Quarter,A#4_A#3
5612,Right,0,87,107,1528.0,0.489583,Eighth,D#6
5614,Right,0,85,107,1528.5,0.989583,Quarter,F#5_C#6
5616,Left,1,68,108,1529.0,0.989583,Quarter,G#4_G#3
5617,Right,0,83,108,1529.0,0.989583,Quarter,F5_B5
5620,Right,0,86,108,1529.5,0.989583,Quarter,D6
5621,Right,0,82,109,1530.0,0.989583,Quarter,F#5_A#5
5623,Left,1,51,109,1530.0,0.989583,Quarter,D#4_D#3
5625,Right,0,87,109,1530.5,0.489583,Eighth,D#6
5626,Right,0,77,110,1531.0,0.989583,Quarter,F5_E6_A#5
5629,Left,1,62,110,1531.0,0.989583,Quarter,D4_D3
5631,Right,0,89,110,1531.5,0.489583,Eighth,F6
5632,Right,0,78,110,1532.0,0.989583,Quarter,G#6_F#5_A#5
5635,Left,1,61,110,1532.0,0.989583,Quarter,C#4_C#3
5637,Right,0,90,110,1532.5,0.489583,Eighth,F#6
5638,Right,0,89,110,1533.0,0.989583,Quarter,F6_F#5_A#5
5639,Left,1,49,110,1533.0,1.989583,DottedQuarter,C#3_C#2
5643,Right,0,87,110,1533.5,0.489583,Eighth,D#6
5644,Right,0,77,110,1534.0,0.989583,Quarter,G#5_F5_C#6
5647,Left,1,47,110,1534.5,0.489583,Eighth,B2
5651,Left,1,46,110,1535.0,0.989583,Eighth,C#2_A#2
5648,Right,0,77,110,1535.0,0.989583,Quarter,G#5_F6_F5
5653,Left,1,44,110,1535.5,0.489583,Eighth,G#2
5654,Left,1,30,110,1536.0,0.489583,Eighth,F#2_F#1
5655,Right,0,85,110,1536.0,1.989583,Half,F#6_F#5_C#6_A#5
5660,Left,1,49,110,1536.5,0.489583,Eighth,F#3_C#3_A#3
5663,Left,1,54,110,1537.0,0.489583,Eighth,F#3_C#3_A#3
5666,Left,1,58,110,1537.5,0.489583,Eighth,F#3_C#3_A#3
5669,Right,0,66,110,1538.0,1.989583,Half,F#4_C#4_A#3
5672,Left,1,46,110,1538.5,0.489583,Eighth,F#3_C#3_A#2
5675,Left,1,49,110,1539.0,0.489583,Eighth,F#3_C#3_A#2
5678,Left,1,54,110,1539.5,0.489583,Eighth,F#3_C#3_A#2
5681,Right,0,70,80,1540.0,0.989583,Quarter,F#4_C#4_A#4
5684,Left,1,49,80,1540.5,0.489583,Eighth,F#3_C#3_A#3
5687,Right,0,61,80,1541.0,0.989583,Quarter,F#4_C#4_A#3
5690,Left,1,49,80,1541.5,0.489583,Eighth,F#3_C#3_A#2
5693,Right,0,70,80,1542.0,0.989583,Quarter,F#4_C#4_A#4
5696,Left,1,54,80,1542.5,0.489583,Eighth,F#3_C#3_A#3
5699,Right,0,68,80,1543.0,0.989583,Quarter,G#4_F4_D4_B3
5703,Left,1,56,80,1543.5,0.489583,Eighth,G#3_F3_D3_B2
5708,Right,0,92,110,1544.0,1.989583,Half,G#6_G#5_F6_D6_B5
5707,Left,1,30,110,1544.0,0.489583,Eighth,F#2_F#1
5714,Left,1,56,110,1544.5,0.489583,Eighth,G#3_F3_D3_B3
5718,Left,1,59,110,1545.0,0.489583,Eighth,G#3_F3_D3_B3
5722,Left,1,59,110,1545.5,0.489583,Eighth,G#3_F3_D3_B3
5726,Right,0,65,110,1546.0,1.989583,Half,G#4_F4_D4_B3
5730,Left,1,47,110,1546.5,0.489583,Eighth,G#3_F3_D3_B2
5734,Left,1,50,110,1547.0,0.489583,Eighth,G#3_F3_D3_B2
5738,Left,1,56,110,1547.5,0.489583,Eighth,G#3_F3_D3_B2
5742,Right,0,62,80,1548.0,0.989583,Quarter,G#4_F4_D4_B4
5746,Left,1,59,80,1548.5,0.489583,Eighth,G#3_F3_D3_B3
5750,Right,0,68,80,1549.0,0.989583,Quarter,G#4_F4_D4_B3
5754,Left,1,47,80,1549.5,0.489583,Eighth,G#3_F3_D3_B2
5758,Right,0,71,80,1550.0,0.989583,Quarter,G#4_F4_D4_B4
5762,Left,1,50,80,1550.5,0.489583,Eighth,G#3_F3_D3_B3
5766,Right,0,61,80,1551.0,0.989583,Quarter,G4_E4_C#4_A#4
5770,Left,1,52,80,1551.5,0.489583,Eighth,G3_E3_C#3_A#3
5774,Right,0,88,110,1552.0,1.989583,Half,E6_C#6_A#6_A#5
5778,Left,1,42,110,1552.0,0.489583,Eighth,F#2_F#1
5780,Left,1,52,110,1552.5,0.489583,Eighth,E3_C#4_A#3
5783,Left,1,61,110,1553.0,0.489583,Eighth,E3_C#4_A#3
5786,Left,1,61,110,1553.5,0.489583,Eighth,E3_C#4_A#3
5789,Right,0,67,110,1554.0,1.989583,Half,G4_E4_C#4_A#4
5793,Left,1,52,110,1554.5,0.489583,Eighth,G3_E3_C#3_A#3
5797,Left,1,58,110,1555.0,0.489583,Eighth,G3_E3_C#3_A#3
5801,Left,1,49,110,1555.5,0.489583,Eighth,G3_E3_C#3_A#3
5805,Right,0,73,80,1556.0,0.989583,Quarter,G4_E4_C#5_A#4
5809,Left,1,61,80,1556.5,0.489583,Eighth,G3_E3_C#4_A#3
5813,Right,0,70,80,1557.0,0.989583,Quarter,G4_E4_C#4_A#4
5817,Left,1,58,80,1557.5,0.489583,Eighth,G3_E3_C#3_A#3
5821,Right,0,67,80,1558.0,0.989583,Quarter,G4_E4_C#5_A#4
5825,Left,1,61,80,1558.5,0.489583,Eighth,G3_E3_C#4_A#3
5829,Right,0,62,80,1559.0,0.989583,Quarter,F#4_D4_B4
5832,Left,1,54,80,1559.5,0.489583,Eighth,F#3_D3_B3
5835,Right,0,90,110,1560.0,1.989583,Half,F#6_D6_B6_B5
5837,Left,1,42,110,1560.0,0.489583,Eighth,F#2_F#1
5841,Left,1,62,110,1560.5,0.489583,Eighth,F#3_D4_B3
5844,Left,1,62,110,1561.0,0.489583,Eighth,F#3_D4_B3
5847,Left,1,54,110,1561.5,0.489583,Eighth,F#3_D4_B3
5850,Right,0,71,110,1562.0,1.989583,Half,F#4_D4_B4
5853,Left,1,50,110,1562.5,0.489583,Eighth,F#3_D3_B3
5856,Left,1,54,110,1563.0,0.489583,Eighth,F#3_D3_B3
5859,Left,1,54,110,1563.5,0.489583,Eighth,F#3_D3_B3
5862,Right,0,68,80,1564.0,0.989583,Quarter,G#4_F4_D5_B4
5866,Left,1,62,80,1564.5,0.489583,Eighth,E3_D4_B3_A3
5870,Right,0,65,80,1565.0,0.989583,Quarter,G#4_F4_D4_B4
5874,Left,1,50,80,1565.5,0.489583,Eighth,E3_D3_B3_A3
5878,Right,0,68,80,1566.0,0.989583,Quarter,G#4_F4_D5_B4
5882,Left,1,59,81,1566.5,0.489583,Eighth,E3_D4_B3_A3
5886,Right,0,73,83,1567.0,0.989583,Quarter,G4_E4_C#5_A#4
5890,Left,1,55,84,1567.5,0.489583,Eighth,G3_E3_C#4_A#3
5894,Right,0,76,86,1568.0,0.989583,Quarter,G4_E5_C#5_A#4
5898,Left,1,55,88,1568.5,0.489583,Eighth,G3_E4_C#4_A#3
5902,Right,0,67,89,1569.0,0.989583,Quarter,G4_E4_C#5_A#4
5906,Left,1,61,91,1569.5,0.489583,Eighth,G3_E3_C#4_A#3
5910,Right,0,67,93,1570.0,0.989583,Quarter,G4_E5_C#5_A#4
5914,Left,1,64,94,1570.5,0.489583,Eighth,G3_E4_C#4_A#3
5918,Right,0,74,96,1571.0,0.989583,Quarter,F#4_D5_B4
5921,Left,1,54,97,1571.5,0.489583,Eighth,F#3_D4_B3
5924,Right,0,78,99,1572.0,0.989583,Quarter,F#5_F#4_D5_B4
5928,Left,1,54,101,1572.5,0.489583,Eighth,F#3_D4_B3
5931,Right,0,74,102,1573.0,0.989583,Quarter,F#4_D5_B4
5934,Left,1,62,104,1573.5,0.489583,Eighth,F#3_D4_B3
5937,Right,0,71,106,1574.0,0.989583,Quarter,F#5_F#4_D5_B4
5941,Left,1,54,107,1574.5,0.489583,Eighth,F#3_D4_B3
5944,Right,0,71,109,1575.0,0.989583,Quarter,G#4_F5_C#5_B4
5948,Left,1,65,110,1575.5,0.489583,Eighth,G#3_F4_C#4_B3
5952,Right,0,92,110,1576.0,0.989583,Quarter,G#6_G#5
5954,Left,1,56,110,1576.5,0.489583,Eighth,G#4_G#3
5956,Right,0,90,110,1577.0,0.989583,Quarter,F#6_F#5
5958,Left,1,66,110,1577.5,0.489583,Eighth,F#4_F#3
5960,Right,0,87,110,1578.0,0.989583,Quarter,D#6_D#5
5962,Left,1,51,110,1578.5,0.489583,Eighth,D#4_D#3
5964,Right,0,73,110,1579.0,0.989583,Quarter,C#6_C#5
5966,Left,1,61,110,1579.5,0.489583,Eighth,C#4_C#3
5968,Right,0,83,110,1580.0,0.989583,Quarter,B5_B4
5970,Left,1,59,110,1580.5,0.489583,Eighth,B3_B2
5972,Right,0,70,110,1581.0,0.989583,Quarter,A#5_A#4
5974,Left,1,58,110,1581.5,0.489583,Eighth,A#3_A#2
5976,Right,0,68,110,1582.0,0.989583,Quarter,G#5_G#4
5978,Left,1,56,110,1582.5,0.489583,Eighth,G#3_G#2
5980,Right,0,66,110,1583.0,0.989583,Quarter,F#5_F#4
5982,Left,1,54,110,1583.5,0.489583,Eighth,F#3_F#2
5984,Right,0,63,110,1584.0,0.989583,Quarter,D#5_D#4
5986,Left,1,51,110,1584.5,0.489583,Eighth,D#3_D#2
5988,Right,0,61,110,1585.0,0.989583,Quarter,C#5_C#4
5990,Left,1,37,110,1585.5,0.489583,Eighth,C#3_C#2
5992,Right,0,59,110,1586.0,0.989583,Quarter,B4_B3
5994,Left,1,47,110,1586.5,0.489583,Eighth,B2_B1
5996,Right,0,58,110,1587.0,0.989583,Quarter,A#4_A#3
5998,Left,1,46,110,1587.5,0.489583,Eighth,A#2_A#1
6000,Right,0,56,110,1588.0,0.989583,Quarter,G#4_G#3
6002,Left,1,32,110,1588.5,0.489583,Eighth,G#2_G#1
6004,Right,0,54,110,1589.0,0.989583,Quarter,F#4_F#3
6006,Left,1,42,110,1589.5,0.489583,Eighth,F#2_F#1
6008,Right,0,63,110,1590.0,0.989583,Quarter,D#4_D#3
6010,Left,1,39,110,1590.5,0.489583,Eighth,D#2
6011,Right,0,61,110,1591.0,0.989583,Quarter,C#4_C#3
6013,Left,1,37,110,1591.5,0.489583,Eighth,C#2
6014,Right,0,65,110,1592.0,1.989583,Half,F4
6015,Left,1,41,109,1592.5,1.989583,Half,F2
6016,Right,0,61,108,1593.0,1.989583,Half,C#4
6017,Left,1,37,107,1593.5,1.989583,Half,C#2
6018,Right,0,68,106,1594.0,1.989583,Half,G#4
6019,Left,1,44,104,1594.5,1.489583,DottedQuarter,G#2
6020,Right,0,61,103,1595.0,1.989583,Half,C#4
6021,Left,1,37,102,1595.5,1.489583,DottedQuarter,C#2
6022,Right,0,73,101,1596.0,1.989583,Half,C#5
6023,Left,1,49,99,1596.5,1.489583,DottedQuarter,C#3
6024,Right,0,61,98,1597.0,1.989583,Half,C#4
6025,Left,1,37,97,1597.5,1.489583,DottedQuarter,C#2
6026,Right,0,77,96,1598.0,1.989583,Half,F5
6027,Left,1,53,94,1598.5,1.489583,DottedQuarter,F3
6028,Right,0,61,93,1599.0,1.989583,Half,C#4
6029,Left,1,37,92,1599.5,1.489583,DottedQuarter,C#2
6030,Right,0,80,91,1600.0,1.989583,Half,G#5
6031,Left,1,56,89,1600.5,1.489583,DottedQuarter,G#3
6032,Right,0,61,88,1601.0,1.989583,Half,C#4
6033,Left,1,37,87,1601.5,1.489583,DottedQuarter,C#2
6034,Right,0,85,86,1602.0,1.989583,Half,C#6
6035,Left,1,61,84,1602.5,1.489583,DottedQuarter,C#4
6036,Right,0,61,83,1603.0,1.989583,Half,C#4
6037,Left,1,37,82,1603.5,1.489583,DottedQuarter,C#2
6038,Right,0,85,81,1604.0,1.989583,Half,C#6
6039,Left,1,61,79,1604.5,1.489583,DottedQuarter,C#4
6040,Right,0,61,78,1605.0,1.989583,Half,C#4
6041,Left,1,37,77,1605.5,1.489583,DottedQuarter,C#2
6042,Right,0,85,76,1606.0,3.989583,Whole,C#6
6043,Left,1,61,73,1607.0,4.989583,Unknown,F#3_C#4
6045,Left,1,35,120,1611.5,0.489583,Eighth,B1
6046,Left,1,62,120,1612.0,1.489583,DottedQuarter,F#3_D4_B3
6049,Left,1,54,120,1613.5,0.489583,Eighth,F#3_D4_B3
6050,Right,0,86,120,1613.5,0.489583,Eighth,F#5_D6_D5_B5
6059,Right,0,86,120,1614.0,0.989583,Quarter,F#5_D6_D5_B5
6056,Left,1,59,120,1614.0,0.989583,Quarter,F#3_D4_B3
6063,Right,0,74,120,1615.0,0.489583,Eighth,F#5_E6_D5_B5
6064,Left,1,62,120,1615.0,0.489583,Eighth,F#3_D4_B3
6071,Left,1,62,120,1615.5,0.489583,Eighth,F#3_D4_B3
6070,Right,0,86,120,1615.5,0.489583,Eighth,F#5_D6_D5_B5
6077,Right,0,74,120,1616.0,0.989583,Quarter,F#5_D6_D5_B5
6081,Left,1,59,120,1616.0,0.989583,Quarter,F#3_D4_B3
6087,Right,0,74,120,1617.0,4.989583,Unknown,F#5_D5_B5_B4
6084,Left,1,59,120,1617.0,4.989583,Unknown,F#3_D3_B3
6091,Left,1,47,80,1623.5,0.489583,Eighth,B2
6092,Left,1,62,80,1624.0,1.489583,DottedQuarter,D4
6093,Right,0,78,80,1625.0,0.989583,Quarter,F#5_D6_D5_B5
6097,Left,1,47,80,1625.5,0.489583,Eighth,B2
6098,Left,1,62,80,1626.0,1.489583,DottedQuarter,D4
6099,Right,0,74,80,1627.0,0.989583,Quarter,F#5_D6_D5_B5
6103,Left,1,47,80,1627.5,0.489583,Eighth,B2
6104,Left,1,62,80,1628.0,1.489583,DottedQuarter,D4
6105,Right,0,74,80,1629.0,0.989583,Quarter,F#5_D6_D5_B5
6109,Left,1,43,80,1629.5,0.489583,Eighth,G2
6110,Left,1,59,80,1630.0,1.489583,DottedQuarter,B3
6111,Right,0,86,80,1631.0,0.989583,Quarter,F#5_D6_D5_B5
6115,Left,1,43,80,1631.5,0.489583,Eighth,G2
6116,Left,1,59,80,1632.0,1.489583,DottedQuarter,B3
6117,Right,0,74,80,1633.0,0.989583,Quarter,F#5_D6_D5_B5
6121,Left,1,43,80,1633.5,0.489583,Eighth,G2
6122,Left,1,59,80,1634.0,1.489583,DottedQuarter,B3
6123,Right,0,74,80,1635.0,0.989583,Quarter,F#5_D6_D5_B5
6127,Left,1,43,80,1635.5,0.489583,Eighth,G2
6128,Left,1,59,80,1636.0,1.489583,DottedQuarter,B3
6129,Right,0,84,81,1637.0,0.989583,Quarter,G5_D#6_D#5_C6
6133,Left,1,36,82,1637.5,0.489583,Eighth,C2
6134,Left,1,51,83,1638.0,1.489583,DottedQuarter,D#3
6135,Right,0,75,85,1639.0,0.989583,Quarter,G5_D#6_D#5_C6
6139,Left,1,36,86,1639.5,0.489583,Eighth,C2
6140,Left,1,51,86,1640.0,1.489583,DottedQuarter,D#3
6141,Right,0,75,88,1641.0,0.989583,Quarter,G5_D#6_D#5_C6
6145,Left,1,36,89,1641.5,0.489583,Eighth,C2
6146,Left,1,51,90,1642.0,1.489583,DottedQuarter,D#3
6147,Right,0,84,92,1643.0,0.989583,Quarter,G5_D#6_D#5_C6
6151,Left,1,36,92,1643.5,0.489583,Eighth,C2
6152,Left,1,51,93,1644.0,1.489583,DottedQuarter,D#3
6153,Right,0,87,95,1645.0,0.989583,Quarter,G5_D#6_D#5_C6
6157,Left,1,29,96,1645.5,0.489583,Eighth,F1
6158,Left,1,45,97,1646.0,1.489583,DottedQuarter,A2
6159,Right,0,75,98,1647.0,0.989583,Quarter,G5_D#6_D#5_C6
6163,Left,1,29,99,1647.5,0.489583,Eighth,F1
6164,Left,1,45,100,1648.0,1.489583,DottedQuarter,A2
6165,Right,0,75,102,1649.0,0.989583,Quarter,G5_D#6_D#5_C6
6169,Left,1,41,103,1649.5,0.489583,Eighth,F2
6170,Left,1,36,104,1650.0,1.489583,DottedQuarter,C2
6171,Right,0,81,105,1651.0,0.989583,Quarter,D#6_C6_A6_A5
6175,Left,1,41,106,1651.5,0.489583,Eighth,F2
6176,Left,1,33,107,1652.0,1.489583,DottedQuarter,A1
6177,Right,0,84,109,1653.0,0.989583,Quarter,D#6_C7_C6_A6
6181,Left,1,41,110,1653.5,0.489583,Eighth,F2
6182,Left,1,30,110,1654.0,1.489583,DottedQuarter,F#1
6183,Right,0,87,110,1655.0,0.989583,Quarter,D#7_D#6_C7_A6
6187,Left,1,41,110,1655.5,0.489583,Eighth,F2
6189,Left,1,41,110,1656.0,0.989583,Quarter,F2_F1
6188,Right,0,96,110,1656.0,0.989583,Quarter,D#7_D#6_C7_A6
6194,Left,1,78,80,1657.0,0.489583,Eighth,F#5
6195,Right,0,84,80,1657.0,0.489583,Eighth,D#6_C6
6197,Right,0,83,80,1657.5,0.489583,Eighth,D6_B5
6199,Left,1,77,80,1657.5,0.489583,Eighth,F5
6202,Left,1,78,80,1658.0,0.989583,Quarter,F#5
6200,Right,0,84,80,1658.0,0.989583,Quarter,D#6_C6
6203,Right,0,69,80,1658.9375,0.489583,Eighth,A4
6204,Right,0,72,80,1659.0,0.489583,Eighth,C5
6205,Left,1,77,80,1659.0,0.489583,Eighth,F5
6208,Left,1,76,80,1659.5,0.489583,Eighth,E5
6206,Right,0,70,80,1659.5,0.489583,Eighth,C#5_A#4
6210,Left,1,77,80,1660.0,0.989583,Quarter,F5
6209,Right,0,69,80,1660.0,0.989583,Quarter,C5_A4
6212,Left,1,66,80,1661.0,0.489583,Eighth,F#4
6213,Right,0,72,80,1661.0,0.489583,Eighth,D#5_C5
6216,Right,0,74,80,1661.5,0.489583,Eighth,D5_B4
6215,Left,1,65,80,1661.5,0.489583,Eighth,F4
6219,Left,1,66,80,1662.0,0.989583,Quarter,F#4
6218,Right,0,75,80,1662.0,0.989583,Quarter,D#5_C5
6221,Left,1,65,80,1663.0,0.489583,Eighth,F4
6222,Right,0,81,80,1663.0,0.489583,Eighth,A5
6223,Left,1,64,80,1663.5,0.489583,Eighth,E4
6224,Right,0,84,80,1663.5,0.489583,Eighth,C6
6225,Right,0,87,80,1664.0,0.489583,Eighth,D#6
6226,Left,1,57,80,1664.0,0.989583,Quarter,F3_D#4_C4_A3
6230,Right,0,89,80,1664.5,0.489583,Eighth,F6
6231,Right,0,87,80,1665.0,0.489583,Eighth,D#6
6233,Right,0,86,80,1665.5,0.489583,Eighth,D6
6232,Left,1,53,80,1665.5,0.489583,Eighth,F3
6234,Left,1,57,80,1666.0,0.989583,Quarter,A3
6235,Right,0,87,80,1666.0,0.489583,Eighth,D#6
6236,Right,0,89,80,1666.5,0.489583,Eighth,F6
6237,Right,0,91,80,1667.0,0.489583,Eighth,G6
6239,Right,0,87,80,1667.5,0.489583,Eighth,D#6
6238,Left,1,60,80,1667.5,0.489583,Eighth,C4
6240,Right,0,84,80,1668.0,0.489583,Eighth,C6
6241,Left,1,65,80,1668.0,0.989583,Quarter,F4
6242,Right,0,86,80,1668.5,0.489583,Eighth,D6
6243,Right,0,87,80,1669.0,0.489583,Eighth,D#6
6244,Right,0,84,80,1669.5,0.489583,Eighth,C6
6245,Left,1,69,80,1669.5,0.489583,Eighth,A4
6247,Right,0,81,80,1670.0,0.489583,Eighth,A5
6246,Left,1,72,80,1670.0,0.989583,Quarter,C5
6248,Right,0,82,80,1670.5,0.489583,Eighth,A#5
6249,Right,0,84,80,1671.0,0.489583,Eighth,C6
6250,Left,1,75,80,1671.0,0.489583,Eighth,D#5
6251,Right,0,81,80,1671.5,0.489583,Eighth,A5
6252,Left,1,72,80,1671.5,0.489583,Eighth,C5
6253,Right,0,75,80,1672.0,0.489583,Eighth,D#5
6254,Left,1,67,80,1672.0,0.489583,Eighth,G4
6256,Left,1,69,80,1672.5,0.489583,Eighth,A4
6255,Right,0,77,80,1672.5,0.489583,Eighth,F5
6257,Right,0,79,80,1673.0,0.489583,Eighth,G5
6258,Left,1,70,80,1673.0,0.489583,Eighth,A#4
6259,Right,0,75,80,1673.5,0.489583,Eighth,D#5
6260,Left,1,67,80,1673.5,0.489583,Eighth,G4
6262,Left,1,63,80,1674.0,0.489583,Eighth,D#4
6261,Right,0,72,80,1674.0,0.489583,Eighth,C5
6264,Left,1,65,80,1674.5,0.489583,Eighth,F4
6263,Right,0,74,80,1674.5,0.489583,Eighth,D5
6265,Right,0,75,80,1675.0,0.489583,Eighth,D#5
6266,Left,1,67,80,1675.0,0.489583,Eighth,G4
6268,Right,0,72,80,1675.5,0.489583,Eighth,C5
6267,Left,1,63,80,1675.5,0.489583,Eighth,D#4
6269,Left,1,60,80,1676.0,0.489583,Eighth,C4
6270,Right,0,69,80,1676.0,0.489583,Eighth,A4
6272,Left,1,62,80,1676.5,0.489583,Eighth,D4
6271,Right,0,70,80,1676.5,0.489583,Eighth,A#4
6273,Left,1,63,80,1677.0,0.489583,Eighth,D#4
6274,Right,0,72,80,1677.0,0.489583,Eighth,C5
6275,Left,1,60,80,1677.5,0.489583,Eighth,C4
6276,Right,0,69,80,1677.5,0.489583,Eighth,A4
6278,Right,0,65,80,1678.0,0.989583,Quarter,F4_D#4_C4
6277,Left,1,57,80,1678.0,0.489583,Eighth,A3
6281,Left,1,58,80,1678.5,0.489583,Eighth,A#3
6282,Left,1,60,80,1679.0,0.489583,Eighth,C4
6283,Left,1,57,80,1679.5,0.489583,Eighth,A3
6286,Right,0,86,80,1680.0,0.489583,Eighth,D6
6284,Left,1,58,80,1680.0,0.989583,Quarter,F3_D4_A#3
6288,Right,0,87,80,1680.5,0.489583,Eighth,D#6
6289,Right,0,86,80,1681.0,0.489583,Eighth,D6
6290,Left,1,53,80,1681.5,0.489583,Eighth,F3
6291,Right,0,84,80,1681.5,0.489583,Eighth,C6
6293,Right,0,86,80,1682.0,0.489583,Eighth,D6
6292,Left,1,58,80,1682.0,0.989583,Quarter,A#3
6294,Right,0,87,80,1682.5,0.489583,Eighth,D#6
6295,Right,0,89,80,1683.0,0.489583,Eighth,F6
6297,Right,0,86,80,1683.5,0.489583,Eighth,D6
6296,Left,1,62,80,1683.5,0.489583,Eighth,D4
6298,Right,0,82,80,1684.0,0.489583,Eighth,A#5
6299,Left,1,65,80,1684.0,0.989583,Quarter,F4
6300,Right,0,84,80,1684.5,0.489583,Eighth,C6
6301,Right,0,86,80,1685.0,0.489583,Eighth,D6
6302,Left,1,70,80,1685.5,0.489583,Eighth,A#4
6303,Right,0,82,80,1685.5,0.489583,Eighth,A#5
6304,Left,1,74,80,1686.0,0.989583,Quarter,D5
6305,Right,0,77,80,1686.0,0.489583,Eighth,F5
6306,Right,0,81,80,1686.5,0.489583,Eighth,A5
6307,Left,1,62,80,1687.0,0.489583,Eighth,D4
6308,Right,0,82,80,1687.0,0.489583,Eighth,A#5
6309,Left,1,58,80,1687.5,0.489583,Eighth,A#3
6310,Right,0,77,80,1687.5,0.489583,Eighth,F5
6311,Left,1,70,80,1688.0,0.489583,Eighth,A#4
6312,Right,0,74,80,1688.0,0.489583,Eighth,D5
6313,Left,1,72,80,1688.5,0.489583,Eighth,C5
6314,Right,0,75,80,1688.5,0.489583,Eighth,D#5
6316,Left,1,74,80,1689.0,0.489583,Eighth,D5
6315,Right,0,77,80,1689.0,0.489583,Eighth,F5
6318,Right,0,74,80,1689.5,0.489583,Eighth,D5
6317,Left,1,70,80,1689.5,0.489583,Eighth,A#4
6319,Right,0,70,80,1690.0,0.489583,Eighth,A#4
6320,Left,1,62,80,1690.0,0.489583,Eighth,D4
6322,Left,1,63,80,1690.5,0.489583,Eighth,D#4
6321,Right,0,72,80,1690.5,0.489583,Eighth,C5
6323,Right,0,74,80,1691.0,0.489583,Eighth,D5
6324,Left,1,65,80,1691.0,0.489583,Eighth,F4
6325,Right,0,70,80,1691.5,0.489583,Eighth,A#4
6326,Left,1,62,80,1691.5,0.489583,Eighth,D4
6327,Left,1,58,80,1692.0,0.489583,Eighth,A#3
6328,Right,0,65,80,1692.0,0.489583,Eighth,F4
6329,Right,0,69,80,1692.5,0.489583,Eighth,A4
6330,Left,1,60,80,1692.5,0.489583,Eighth,C4
6332,Left,1,62,80,1693.0,0.489583,Eighth,D4
6331,Right,0,70,80,1693.0,0.489583,Eighth,A#4
6333,Right,0,62,80,1693.5,0.489583,Eighth,D4
6334,Left,1,58,80,1693.5,0.489583,Eighth,A#3
6335,Right,0,70,80,1694.0,0.489583,Eighth,A#4
6336,Left,1,74,80,1694.0,0.489583,Eighth,D5
6337,Right,0,72,80,1694.5,0.489583,Eighth,C5
6338,Left,1,75,80,1694.5,0.489583,Eighth,D#5
6339,Left,1,77,80,1695.0,0.489583,Eighth,F5
6340,Right,0,74,80,1695.0,0.489583,Eighth,D5
6342,Right,0,70,80,1695.5,0.489583,Eighth,A#4
6341,Left,1,74,80,1695.5,0.489583,Eighth,D5
6343,Left,1,75,80,1696.0,0.489583,Eighth,D#5
6344,Right,0,65,80,1696.0,0.989583,Quarter,F4_C5_A4
6347,Left,1,77,80,1696.5,0.489583,Eighth,F5
6348,Left,1,75,80,1697.0,0.489583,Eighth,D#5
6349,Right,0,91,80,1697.0,0.489583,Eighth,G6
6350,Left,1,74,80,1697.5,0.489583,Eighth,D5
6351,Right,0,89,80,1697.5,0.489583,Eighth,F6
6352,Right,0,91,80,1698.0,0.489583,Eighth,G6
6353,Left,1,75,80,1698.0,0.489583,Eighth,D#5
6355,Right,0,89,80,1698.5,0.489583,Eighth,F6
6354,Left,1,77,80,1698.5,0.489583,Eighth,F5
6357,Right,0,87,80,1699.0,0.489583,Eighth,D#6
6356,Left,1,79,80,1699.0,0.489583,Eighth,G5
6358,Right,0,91,80,1699.5,0.489583,Eighth,G6
6359,Left,1,75,80,1699.5,0.489583,Eighth,D#5
6361,Left,1,72,80,1700.0,0.489583,Eighth,C5
6360,Right,0,87,80,1700.0,0.489583,Eighth,D#6
6362,Right,0,86,80,1700.5,0.489583,Eighth,D6
6363,Left,1,74,80,1700.5,0.489583,Eighth,D5
6364,Right,0,84,80,1701.0,0.489583,Eighth,C6
6365,Left,1,75,80,1701.0,0.489583,Eighth,D#5
6367,Left,1,72,80,1701.5,0.489583,Eighth,C5
6366,Right,0,87,80,1701.5,0.489583,Eighth,D#6
6369,Right,0,84,80,1702.0,0.489583,Eighth,C6
6368,Left,1,69,80,1702.0,0.489583,Eighth,A4
6370,Left,1,70,80,1702.5,0.489583,Eighth,A#4
6371,Right,0,82,80,1702.5,0.489583,Eighth,A#5
6373,Left,1,72,80,1703.0,0.489583,Eighth,C5
6372,Right,0,81,80,1703.0,0.489583,Eighth,A5
6374,Right,0,84,80,1703.5,0.489583,Eighth,C6
6375,Left,1,69,80,1703.5,0.489583,Eighth,A4
6376,Left,1,63,80,1704.0,0.489583,Eighth,D#4
6377,Right,0,78,80,1704.0,0.489583,Eighth,F#5
6378,Left,1,65,80,1704.5,0.489583,Eighth,F4
6379,Right,0,77,80,1704.5,0.489583,Eighth,F5
6381,Right,0,75,80,1705.0,0.489583,Eighth,D#5
6380,Left,1,66,80,1705.0,0.489583,Eighth,F#4
6383,Right,0,78,80,1705.5,0.489583,Eighth,F#5
6382,Left,1,63,80,1705.5,0.489583,Eighth,D#4
6384,Left,1,60,80,1706.0,0.489583,Eighth,C4
6385,Right,0,75,80,1706.0,0.489583,Eighth,D#5
6386,Left,1,62,80,1706.5,0.489583,Eighth,D4
6387,Right,0,74,80,1706.5,0.489583,Eighth,D5
6389,Right,0,72,80,1707.0,0.489583,Eighth,C5
6388,Left,1,63,80,1707.0,0.489583,Eighth,D#4
6390,Right,0,75,80,1707.5,0.489583,Eighth,D#5
6391,Left,1,60,80,1707.5,0.489583,Eighth,C4
6393,Right,0,72,80,1708.0,0.489583,Eighth,C5
6392,Left,1,57,80,1708.0,0.489583,Eighth,A3
6394,Right,0,70,80,1708.5,0.489583,Eighth,A#4
6395,Left,1,58,80,1708.5,0.489583,Eighth,A#3
6396,Right,0,69,80,1709.0,0.489583,Eighth,A4
6397,Left,1,60,80,1709.0,0.489583,Eighth,C4
6399,Left,1,57,80,1709.5,0.489583,Eighth,A3
6398,Right,0,72,80,1709.5,0.489583,Eighth,C5
6401,Left,1,72,80,1710.0,0.489583,Eighth,C5
6400,Right,0,63,80,1710.0,0.489583,Eighth,D#4
6403,Left,1,74,80,1710.5,0.489583,Eighth,D5
6402,Right,0,62,80,1710.5,0.489583,Eighth,D4
6404,Right,0,60,80,1711.0,0.489583,Eighth,C4
6405,Left,1,75,80,1711.0,0.489583,Eighth,D#5
6406,Right,0,63,80,1711.5,0.489583,Eighth,D#4
6407,Left,1,72,80,1711.5,0.489583,Eighth,C5
6408,Right,0,65,80,1712.0,0.989583,Quarter,F4_A#4
6410,Left,1,74,80,1712.0,0.489583,Eighth,D5
6411,Left,1,75,80,1712.5,0.489583,Eighth,D#5
6412,Right,0,89,80,1713.0,0.489583,Eighth,F6
6413,Left,1,74,80,1713.0,0.489583,Eighth,D5
6415,Left,1,72,80,1713.5,0.489583,Eighth,C5
6414,Right,0,87,80,1713.5,0.489583,Eighth,D#6
6417,Left,1,74,80,1714.0,0.489583,Eighth,D5
6416,Right,0,89,80,1714.0,0.489583,Eighth,F6
6419,Left,1,75,80,1714.5,0.489583,Eighth,D#5
6418,Right,0,87,80,1714.5,0.489583,Eighth,D#6
6421,Left,1,77,80,1715.0,0.489583,Eighth,F5
6420,Right,0,86,80,1715.0,0.489583,Eighth,D6
6423,Left,1,74,80,1715.5,0.489583,Eighth,D5
6422,Right,0,89,80,1715.5,0.489583,Eighth,F6
6425,Right,0,86,80,1716.0,0.489583,Eighth,D6
6424,Left,1,70,80,1716.0,0.489583,Eighth,A#4
6427,Right,0,84,80,1716.5,0.489583,Eighth,C6
6426,Left,1,72,80,1716.5,0.489583,Eighth,C5
6428,Left,1,74,80,1717.0,0.489583,Eighth,D5
6429,Right,0,82,80,1717.0,0.489583,Eighth,A#5
6430,Left,1,70,80,1717.5,0.489583,Eighth,A#4
6431,Right,0,86,80,1717.5,0.489583,Eighth,D6
6433,Right,0,77,80,1718.0,0.489583,Eighth,F5
6432,Left,1,65,80,1718.0,0.489583,Eighth,F4
6434,Right,0,75,80,1718.5,0.489583,Eighth,D#5
6435,Left,1,69,80,1718.5,0.489583,Eighth,A4
6436,Right,0,74,80,1719.0,0.489583,Eighth,D5
6437,Left,1,70,80,1719.0,0.489583,Eighth,A#4
6439,Right,0,77,80,1719.5,0.489583,Eighth,F5
6438,Left,1,65,80,1719.5,0.489583,Eighth,F4
6440,Left,1,62,80,1720.0,0.489583,Eighth,D4
6441,Right,0,82,80,1720.0,0.489583,Eighth,A#5
6442,Left,1,63,80,1720.5,0.489583,Eighth,D#4
6443,Right,0,79,80,1720.5,0.489583,Eighth,G5
6444,Left,1,65,80,1721.0,0.489583,Eighth,F4
6445,Right,0,77,80,1721.0,0.489583,Eighth,F5
6447,Left,1,62,80,1721.5,0.489583,Eighth,D4
6446,Right,0,82,80,1721.5,0.489583,Eighth,A#5
6448,Left,1,58,80,1722.0,0.489583,Eighth,A#3
6449,Right,0,77,80,1722.0,0.489583,Eighth,F5
6450,Left,1,60,80,1722.5,0.489583,Eighth,C4
6451,Right,0,75,80,1722.5,0.489583,Eighth,D#5
6453,Left,1,62,80,1723.0,0.489583,Eighth,D4
6452,Right,0,74,80,1723.0,0.489583,Eighth,D5
6455,Left,1,58,80,1723.5,0.489583,Eighth,A#3
6454,Right,0,77,80,1723.5,0.489583,Eighth,F5
6458,Left,1,53,80,1724.0,0.489583,Eighth,F3
6456,Right,0,74,80,1724.0,1.989583,Half,D6_D5
6459,Right,0,84,80,1724.5,0.489583,Eighth,C6
6460,Left,1,57,80,1724.5,0.489583,Eighth,A3
6461,Left,1,58,80,1725.0,0.489583,Eighth,A#3
6462,Right,0,82,80,1725.0,0.489583,Eighth,A#5
6463,Right,0,86,80,1725.5,0.489583,Eighth,D6
6464,Left,1,53,80,1725.5,0.489583,Eighth,F3
6467,Left,1,51,80,1726.0,0.489583,Eighth,D#3
6465,Right,0,78,80,1726.0,1.989583,Half,F#5_D#6
6469,Right,0,84,80,1726.5,0.489583,Eighth,C6
6468,Left,1,58,80,1726.5,0.489583,Eighth,A#3
6471,Right,0,86,80,1727.0,0.489583,Eighth,D6
6470,Left,1,53,80,1727.0,0.489583,Eighth,F3
6473,Right,0,87,80,1727.5,0.489583,Eighth,D#6
6472,Left,1,51,80,1727.5,0.489583,Eighth,D#3
6476,Left,1,50,80,1728.0,0.989583,Quarter,D3
6474,Right,0,74,80,1728.0,0.989583,Quarter,D6_D5
6477,Left,1,46,80,1729.0,0.989583,Quarter,A#3_A#2
6479,Left,1,51,80,1730.0,0.489583,Eighth,G3_D#3
6481,Left,1,63,80,1731.0,0.489583,Eighth,D#4
6482,Left,1,60,80,1731.5,0.489583,Eighth,C4
6483,Left,1,57,80,1732.0,0.989583,Quarter,A3
6485,Right,0,69,80,1733.0,0.989583,Quarter,C5_A4
6484,Left,1,53,80,1733.0,0.989583,Quarter,F4_F3
6489,Left,1,58,80,1734.0,0.989583,Quarter,D4_A#3
6488,Right,0,70,80,1734.0,0.989583,Quarter,D5_A#4
6492,Right,0,94,80,1735.0,0.489583,Eighth,A#6
6493,Right,0,93,80,1735.5,0.489583,Eighth,A6
6494,Right,0,94,80,1736.0,0.989583,Quarter,A#6
6495,Left,1,64,80,1737.0,0.989583,Quarter,G4_E4_C#4_A#3
6499,Right,0,79,80,1737.0,0.989583,Quarter,G6_G5_A#5
6502,Left,1,65,80,1738.0,0.989583,Quarter,F4_C4_A4
6503,Right,0,77,80,1738.0,0.989583,Quarter,F6_F5_A5
6508,Left,1,60,80,1739.0,0.989583,Quarter,G4_C4_A#4
6511,Right,0,88,80,1739.0,0.989583,Quarter,G5_E6_E5
6514,Left,1,72,80,1739.5,0.489583,Eighth,C5
6517,Right,0,91,80,1740.0,0.989583,Quarter,G6_G5_A#5
6515,Left,1,65,80,1740.0,0.989583,Quarter,F4_C5
6523,Left,1,74,80,1741.0,0.989583,DottedEighth,F4_D5
6520,Right,0,89,80,1741.0,0.989583,Quarter,F6_F5_A5
6525,Left,1,76,80,1741.75,0.239583,Sixteenth,E5
6527,Left,1,65,80,1742.0,0.989583,Quarter,F5_F4
6526,Right,0,81,80,1742.0,0.989583,Quarter,F6_A5
6531,Right,0,70,80,1743.0,0.489583,Eighth,F5_A#4
6530,Left,1,67,80,1743.0,0.489583,Eighth,G4
6534,Right,0,72,80,1743.5,0.489583,Eighth,D#5_C5
6533,Left,1,69,80,1743.5,0.489583,Eighth,A4
6537,Right,0,74,80,1744.0,0.989583,Quarter,D5
6536,Left,1,70,80,1744.0,0.989583,Quarter,A#4
6538,Right,0,70,80,1745.0,1.489583,DottedQuarter,D6_A#4
6540,Left,1,62,80,1745.0,0.989583,Quarter,F4_D4
6542,Left,1,63,80,1746.0,0.489583,Eighth,G4_D#4
6544,Right,0,79,80,1746.0,0.489583,Eighth,G5
6547,Left,1,72,80,1747.0,0.489583,Eighth,C5
6545,Right,0,75,80,1747.0,0.489583,Eighth,D#6_D#5
6550,Left,1,75,80,1747.5,0.489583,Eighth,D#5
6548,Right,0,84,80,1747.5,0.489583,Eighth,G5_C6
6551,Right,0,81,80,1748.0,0.989583,Quarter,A5
6552,Left,1,77,80,1748.0,0.989583,Quarter,F5
6554,Left,1,69,80,1749.0,0.989583,Quarter,C5_A4
6553,Right,0,89,80,1749.0,1.489583,Quarter,F6_F5
6557,Left,1,74,80,1750.0,0.489583,Eighth,D5_A#4
6559,Right,0,86,80,1750.0,0.489583,Eighth,D6
6560,Left,1,67,80,1751.0,0.489583,Eighth,G4
6561,Right,0,82,80,1751.0,0.489583,Eighth,A#5
6563,Left,1,66,80,1751.5,0.489583,Eighth,F#4
6562,Right,0,81,80,1751.5,0.489583,Eighth,A5
6564,Left,1,67,80,1752.0,0.989583,Quarter,G4
6565,Right,0,82,80,1752.0,0.989583,Quarter,A#5
6567,Left,1,75,80,1753.0,0.989583,Quarter,G4_D#5_A#4
6566,Right,0,91,80,1753.0,0.989583,Quarter,G6_G5
6571,Right,0,87,80,1754.0,0.989583,Quarter,G5_D#6_D#5
6574,Left,1,72,80,1754.0,0.989583,Quarter,G4_C5
6576,Left,1,69,80,1755.0,0.989583,Quarter,F#4_A4
6578,Right,0,86,80,1755.0,0.989583,Quarter,D6_D5_A5
6582,Right,0,86,80,1756.0,2.989583,DottedHalf,D6_D5
6581,Left,1,66,80,1756.0,0.989583,Quarter,F#4_A4
6586,Right,0,84,80,1757.0,0.489583,Eighth,C6
6585,Left,1,66,80,1757.0,0.989583,Quarter,F#4_D4
6588,Right,0,82,80,1757.5,0.489583,Eighth,A#5
6590,Left,1,67,80,1758.0,0.989583,Quarter,G4_A#4
6589,Right,0,82,80,1758.0,0.989583,Quarter,A#5
6593,Left,1,65,80,1759.0,0.489583,Eighth,G#4_F4
6592,Right,0,91,80,1759.0,1.989583,Quarter,G6_C#6_A#5
6597,Left,1,64,80,1759.5,0.489583,Eighth,G4_E4
6599,Left,1,64,80,1760.0,0.989583,Quarter,G4_E4
6601,Right,0,84,80,1760.0,2.989583,DottedHalf,C6
6602,Left,1,60,80,1761.0,0.989583,Quarter,E4_C4
6604,Right,0,82,80,1761.0,0.489583,Eighth,A#5
6605,Right,0,80,80,1761.5,0.489583,Eighth,G#5
6606,Left,1,65,80,1762.0,0.989583,Quarter,G#4_F4
6608,Right,0,80,80,1762.0,0.989583,Quarter,G#5
6611,Right,0,83,80,1763.0,1.989583,Quarter,G#5_F6_B5
6609,Left,1,66,80,1763.0,0.489583,Eighth,F#4_D#4
6614,Left,1,65,80,1763.5,0.489583,Eighth,F4_D4
6618,Right,0,82,80,1764.0,2.989583,DottedHalf,A#5
6616,Left,1,65,80,1764.0,0.989583,Quarter,F4_D4
6620,Left,1,58,80,1765.0,0.989583,Quarter,D4_A#3
6619,Right,0,80,80,1765.0,0.489583,Eighth,G#5
6622,Right,0,79,80,1765.5,0.489583,Eighth,G5
6623,Left,1,67,80,1766.0,0.989583,Quarter,G4_D#4
6625,Right,0,79,80,1766.0,0.989583,Quarter,G5
6626,Left,1,65,80,1767.0,0.489583,Eighth,F4_D4
6628,Right,0,79,80,1767.0,1.989583,Quarter,G5_E6_A#5
6631,Left,1,61,80,1767.5,0.489583,Eighth,E4_C#4
6634,Left,1,61,80,1768.0,0.989583,Quarter,E4_C#4
6633,Right,0,81,80,1768.0,2.989583,DottedHalf,A5
6636,Left,1,61,80,1769.0,0.989583,Quarter,C#4_A3
6637,Right,0,79,80,1769.0,0.489583,Eighth,G5
6639,Right,0,77,80,1769.5,0.489583,Eighth,F5
6640,Left,1,65,80,1770.0,0.989583,Quarter,F4_D4
6642,Right,0,77,80,1770.0,0.989583,Quarter,F5
6644,Left,1,63,80,1771.0,0.489583,Eighth,D#4_C4
6643,Right,0,86,80,1771.0,1.989583,Quarter,G#5_F5_D6
6648,Left,1,62,80,1771.5,0.489583,Eighth,D4_B3
6650,Right,0,80,80,1772.0,0.489583,Eighth,G#5
6651,Left,1,62,80,1772.0,0.989583,Quarter,D4_B3
6653,Right,0,79,80,1772.5,0.989583,Quarter,G5
6654,Left,1,60,80,1773.0,0.989583,Eighth,D#4_C4
6656,Right,0,75,80,1773.0,0.989583,Quarter,D#5
6657,Left,1,58,80,1773.5,0.489583,Eighth,A#3
6658,Right,0,84,80,1773.5,0.489583,Eighth,C6
6660,Right,0,78,80,1774.0,0.989583,Eighth,F#5_D#5
6659,Left,1,57,80,1774.0,0.989583,Quarter,C4_A3
6663,Right,0,77,80,1774.5,0.989583,Quarter,F5
6664,Right,0,74,80,1775.0,0.989583,Quarter,D5
6665,Left,1,62,80,1775.0,0.989583,Quarter,D4_A#3
6667,Right,0,82,80,1775.5,0.489583,Eighth,A#5
6668,Left,1,50,80,1775.5,0.489583,Eighth,D3
6672,Right,0,77,80,1776.0,0.489583,Eighth,F5
6669,Left,1,48,80,1776.0,5.989583,Unknown,F3_D#4_C3
6673,Right,0,89,81,1776.5,0.489583,Eighth,F6
6674,Right,0,88,82,1777.0,0.489583,Eighth,E6
6675,Right,0,87,84,1777.5,0.489583,Eighth,D#6
6676,Right,0,84,85,1778.0,0.489583,Eighth,C6
6677,Right,0,81,86,1778.5,0.489583,Eighth,A5
6678,Right,0,78,88,1779.0,0.489583,Eighth,F#5
6679,Right,0,77,89,1779.5,0.489583,Eighth,F5
6680,Right,0,76,90,1780.0,0.489583,Eighth,E5
6681,Right,0,75,92,1780.5,0.489583,Eighth,D#5
6682,Right,0,72,93,1781.0,0.489583,Eighth,C5
6683,Right,0,69,94,1781.5,0.489583,Eighth,A4
6684,Right,0,70,80,1782.0,0.989583,Quarter,F#4_A#4
6685,Left,1,53,80,1782.0,1.989583,Half,F3_D4_D3
6689,Right,0,65,80,1782.5,0.489583,Eighth,F4
6690,Right,0,70,80,1783.0,0.989583,Quarter,G5_A#4
6692,Right,0,77,80,1783.5,0.489583,Eighth,F5
6694,Left,1,36,80,1784.0,5.989583,Unknown,F2_D#3_C2
6693,Right,0,77,80,1784.0,0.489583,Eighth,F5
6697,Right,0,89,81,1784.5,0.489583,Eighth,F6
6698,Right,0,88,82,1785.0,0.489583,Eighth,E6
6699,Right,0,87,84,1785.5,0.489583,Eighth,D#6
6700,Right,0,84,85,1786.0,0.489583,Eighth,C6
6701,Right,0,81,86,1786.5,0.489583,Eighth,A5
6702,Right,0,78,88,1787.0,0.489583,Eighth,F#5
6703,Right,0,77,89,1787.5,0.489583,Eighth,F5
6704,Right,0,76,90,1788.0,0.489583,Eighth,E5
6705,Right,0,75,92,1788.5,0.489583,Eighth,D#5
6706,Right,0,72,93,1789.0,0.489583,Eighth,C5
6707,Right,0,69,94,1789.5,0.489583,Eighth,A4
6708,Left,1,38,80,1790.0,1.989583,Half,F2_D3_D2
6711,Right,0,66,80,1790.0,0.989583,Eighth,F#4_A#4
6713,Right,0,65,80,1790.5,0.489583,Eighth,F4
6714,Right,0,70,80,1791.0,0.989583,Quarter,G5_A#4
6716,Right,0,77,80,1791.5,0.489583,Eighth,F5
6718,Right,0,77,80,1792.0,0.489583,Eighth,F5
6717,Left,1,38,80,1792.0,1.989583,Half,D3_D2
6720,Right,0,82,80,1792.5,0.489583,Eighth,D5_A#5
6722,Right,0,86,80,1793.0,0.489583,Eighth,F5_D6
6724,Right,0,84,80,1793.5,0.489583,Eighth,D#5_C6
6728,Left,1,55,80,1794.0,1.989583,Half,G3_G2
6726,Right,0,74,80,1794.0,3.989583,Eighth,D5_A#5
6730,Right,0,78,80,1794.5,0.489583,Eighth,F#5
6731,Right,0,79,80,1795.0,0.489583,Eighth,G5
6732,Right,0,74,80,1795.5,0.489583,Eighth,D5
6734,Left,1,40,80,1796.0,1.989583,Half,E3_E2
6733,Right,0,73,80,1796.0,0.489583,Eighth,C#5
6736,Right,0,78,80,1796.5,0.489583,Eighth,F#5
6737,Right,0,79,80,1797.0,0.489583,Eighth,G5
6738,Right,0,74,80,1797.5,0.489583,Eighth,D5
6739,Right,0,81,80,1798.0,0.989583,Quarter,C5_A5
6741,Left,1,41,80,1798.0,0.989583,Quarter,F3_F2
6743,Right,0,76,80,1798.5,0.489583,Eighth,E5
6744,Right,0,77,80,1799.0,0.989583,Quarter,F5
6745,Right,0,89,80,1799.5,0.489583,Eighth,F6
6746,Left,1,60,80,1800.0,5.989583,Unknown,F4_D#5_C4
6747,Right,0,89,80,1800.0,0.489583,Eighth,F6
6750,Right,0,101,81,1800.5,0.489583,Eighth,F7
6751,Right,0,100,82,1801.0,0.489583,Eighth,E7
6752,Right,0,99,84,1801.5,0.489583,Eighth,D#7
6753,Right,0,96,85,1802.0,0.489583,Eighth,C7
6754,Right,0,93,86,1802.5,0.489583,Eighth,A6
6755,Right,0,90,88,1803.0,0.489583,Eighth,F#6
6756,Right,0,89,89,1803.5,0.489583,Eighth,F6
6757,Right,0,88,90,1804.0,0.489583,Eighth,E6
6758,Right,0,87,92,1804.5,0.489583,Eighth,D#6
6759,Right,0,84,93,1805.0,0.489583,Eighth,C6
6760,Right,0,81,94,1805.5,0.489583,Eighth,A5
6761,Right,0,78,80,1806.0,0.989583,Eighth,F#5_A#5
6763,Left,1,65,80,1806.0,1.989583,Half,F4_D5_D4
6766,Right,0,77,80,1806.5,0.489583,Eighth,F5
6767,Right,0,91,80,1807.0,0.989583,Eighth,G6_A#5
6769,Right,0,89,80,1807.5,0.489583,Eighth,F6
6773,Right,0,77,80,1808.0,0.489583,Eighth,F5
6770,Left,1,48,80,1808.0,5.989583,Unknown,F3_D#4_C3
6774,Right,0,89,81,1808.5,0.489583,Eighth,F6
6775,Right,0,88,82,1809.0,0.489583,Eighth,E6
6776,Right,0,87,84,1809.5,0.489583,Eighth,D#6
6777,Right,0,84,85,1810.0,0.489583,Eighth,C6
6778,Right,0,81,86,1810.5,0.489583,Eighth,A5
6779,Right,0,78,88,1811.0,0.489583,Eighth,F#5
6780,Right,0,77,89,1811.5,0.489583,Eighth,F5
6781,Right,0,76,90,1812.0,0.489583,Eighth,E5
6782,Right,0,75,92,1812.5,0.489583,Eighth,D#5
6783,Right,0,72,93,1813.0,0.489583,Eighth,C5
6784,Right,0,69,94,1813.5,0.489583,Eighth,A4
6788,Right,0,66,80,1814.0,0.989583,Eighth,F#4_A#4
6785,Left,1,50,80,1814.0,1.989583,Half,F3_D4_D3
6790,Right,0,65,80,1814.5,0.489583,Eighth,F4
6791,Right,0,70,80,1815.0,0.989583,Quarter,G5_A#4
6793,Right,0,77,80,1815.5,0.489583,Eighth,F5
6794,Right,0,77,80,1816.0,0.489583,Eighth,F5
6795,Left,1,62,80,1816.0,1.989583,Half,D4_D3
6797,Right,0,74,80,1816.5,0.489583,Eighth,D5_A#5
6799,Right,0,86,80,1817.0,0.489583,Eighth,F5_D6
6801,Right,0,84,80,1817.5,0.489583,Eighth,D#5_C6
6805,Left,1,67,80,1818.0,1.989583,Half,G4_G3
6803,Right,0,74,80,1818.0,3.989583,Eighth,D5_A#5
6807,Right,0,78,80,1818.5,0.489583,Eighth,F#5
6808,Right,0,79,80,1819.0,0.489583,Eighth,G5
6809,Right,0,74,80,1819.5,0.489583,Eighth,D5
6810,Right,0,73,80,1820.0,0.489583,Eighth,C#5
6811,Left,1,52,80,1820.0,1.989583,Half,E4_E3
6813,Right,0,78,80,1820.5,0.489583,Eighth,F#5
6814,Right,0,79,80,1821.0,0.489583,Eighth,G5
6815,Right,0,73,80,1821.5,0.489583,Eighth,C#5
6816,Left,1,65,80,1822.0,0.989583,Quarter,F4_F3
6817,Right,0,81,80,1822.0,0.989583,Quarter,C5_A5
6820,Right,0,77,80,1822.5,0.489583,Eighth,F5
6821,Left,1,66,80,1823.0,0.989583,Quarter,F#4_F#3
6822,Right,0,70,80,1823.0,0.989583,Eighth,A#5_A#4
6825,Right,0,75,80,1823.5,0.489583,Eighth,D#5
6826,Left,1,55,80,1824.0,1.989583,Half,G4_G3
6828,Right,0,82,80,1824.0,0.489583,Eighth,A#5
6829,Right,0,79,80,1824.5,0.489583,Eighth,G5_D#6
6831,Right,0,82,81,1825.0,0.489583,Eighth,G6_A#5
6833,Right,0,80,82,1825.5,0.489583,Eighth,G#5_F6
6837,Right,0,87,83,1826.0,3.989583,Whole,G5_D#6
6835,Left,1,72,83,1826.0,1.989583,Half,C5_C4
6839,Right,0,83,84,1826.5,0.489583,Eighth,B5
6840,Right,0,84,85,1827.0,0.489583,Eighth,C6
6841,Right,0,79,86,1827.5,0.489583,Eighth,G5
6843,Right,0,78,87,1828.0,0.489583,Eighth,F#5
6842,Left,1,69,87,1828.0,1.989583,Half,A4_A3
6845,Right,0,83,88,1828.5,0.489583,Eighth,B5
6846,Right,0,84,89,1829.0,0.489583,Eighth,C6
6847,Right,0,78,90,1829.5,0.489583,Eighth,F#5
6849,Left,1,58,91,1830.0,0.989583,Quarter,A#4_A#3
6848,Right,0,77,91,1830.0,0.989583,Eighth,F5_D6
6852,Right,0,82,92,1830.5,0.489583,Eighth,A#5
6853,Right,0,87,93,1831.0,0.989583,Quarter,D#6_D#5
6855,Left,1,59,93,1831.0,0.989583,Quarter,B4_B3
6857,Right,0,80,94,1831.5,0.489583,Eighth,G#5
6859,Right,0,87,95,1832.0,0.989583,Quarter,D#6
6858,Left,1,72,95,1832.0,1.989583,Half,C5_C4
6861,Right,0,84,96,1832.5,0.489583,Eighth,C6
6862,Right,0,92,97,1833.0,0.989583,Quarter,G#6_D#6
6864,Right,0,85,98,1833.5,0.489583,Eighth,C#6
6865,Right,0,85,99,1834.0,3.989583,Eighth,G#6_C#6
6867,Left,1,76,99,1834.0,1.989583,Half,E5_E4
6869,Right,0,83,100,1834.5,0.489583,Eighth,B5
6870,Right,0,82,101,1835.0,0.489583,Eighth,A#5
6871,Right,0,83,102,1835.5,0.489583,Eighth,B5
6872,Right,0,83,103,1836.0,0.489583,Eighth,B5
6873,Left,1,74,103,1836.0,1.989583,Half,D5_D4
6875,Right,0,88,104,1836.5,0.489583,Eighth,E6
6876,Right,0,89,105,1837.0,0.489583,Eighth,F6
6877,Right,0,83,106,1837.5,0.489583,Eighth,B5
6878,Right,0,91,107,1838.0,2.989583,DottedHalf,G6_A#5
6880,Left,1,75,107,1838.0,2.989583,DottedHalf,D#5_D#4
6882,Right,0,86,108,1838.5,0.489583,Eighth,D6
6883,Right,0,87,109,1839.0,0.489583,Eighth,D#6
6884,Right,0,82,110,1839.5,0.489583,Eighth,A#5
6885,Right,0,79,110,1840.0,0.989583,Quarter,G5
6890,Left,1,51,120,1841.0,0.989583,Quarter,D#3_D#2
6886,Right,0,91,120,1841.0,0.989583,Quarter,G6_G5_D#6_A#5
6892,Right,0,89,120,1842.0,0.989583,Quarter,F6_D6
6894,Right,0,91,120,1843.0,0.489583,Eighth,G6_D#6
6896,Right,0,92,120,1843.5,0.489583,Eighth,G#6_F6
6898,Right,0,94,120,1844.0,0.989583,Quarter,G6_A#6
6902,Left,1,67,120,1845.0,0.989583,Quarter,G4_D#4
6900,Right,0,87,120,1845.0,0.989583,Quarter,G6_D#6
6904,Left,1,62,120,1846.0,0.989583,Quarter,F4_D4
6906,Left,1,63,120,1847.0,0.489583,Eighth,G4_D#4
6908,Left,1,65,120,1847.5,0.489583,Eighth,G#4_F4
6910,Left,1,70,120,1848.0,0.989583,Quarter,G4_A#4
6912,Right,0,79,120,1849.0,0.989583,Quarter,G6_G5_D#6_A#5
6916,Left,1,39,120,1849.0,0.989583,Quarter,D#3_D#2
6918,Right,0,89,120,1850.0,0.989583,Quarter,F6_D6
6920,Right,0,87,120,1851.0,0.489583,Eighth,G6_D#6
6922,Right,0,89,120,1851.5,0.489583,Eighth,G#6_F6
6924,Right,0,94,120,1852.0,0.989583,Quarter,G6_A#6
6928,Right,0,82,120,1853.0,0.989583,Quarter,G5_C5_A#5_A#4
6926,Left,1,52,120,1853.0,0.989583,Quarter,E3_E2
6936,Left,1,36,120,1855.0,0.989583,Quarter,C3_C2
6932,Right,0,70,120,1855.0,0.989583,Quarter,G5_E5_A#5_A#4
6938,Right,0,82,120,1857.0,0.989583,Quarter,F5_D5_A#5_A#4
6942,Left,1,41,120,1857.0,0.989583,Quarter,F3_F2
6944,Right,0,70,120,1859.0,0.989583,Quarter,E5_C5_A#5_A#4
6948,Left,1,43,120,1859.0,0.989583,Quarter,G3_G2
6950,Left,1,41,120,1860.0,0.489583,Eighth,F2
6951,Right,0,82,120,1860.0,1.989583,Half,F5_D5_A#5_A#4
6955,Left,1,45,119,1860.5,0.489583,Eighth,A2
6956,Left,1,46,117,1861.0,0.489583,Eighth,A#2
6957,Left,1,50,115,1861.5,0.489583,Eighth,D3
6958,Left,1,53,113,1862.0,0.489583,Eighth,F3
6959,Right,0,77,113,1862.0,2.989583,DottedHalf,F5_D5
6961,Left,1,57,111,1862.5,0.489583,Eighth,A3
6962,Left,1,58,110,1863.0,0.489583,Eighth,A#3
6963,Left,1,62,108,1863.5,0.489583,Eighth,D4
6964,Left,1,65,106,1864.0,0.489583,Eighth,F4
6965,Left,1,69,104,1864.5,0.489583,Eighth,A4
6967,Right,0,74,102,1865.0,0.489583,Eighth,D5
6966,Left,1,70,102,1865.0,0.489583,Eighth,A#4
6968,Left,1,74,101,1865.5,0.489583,Eighth,D5
6969,Right,0,77,100,1866.0,0.489583,Eighth,F5
6970,Right,0,81,100,1866.5,0.489583,Eighth,A5
6971,Left,1,70,101,1867.0,0.489583,Eighth,A#4
6972,Right,0,82,101,1867.0,0.489583,Eighth,A#5
6973,Left,1,74,102,1867.5,0.489583,Eighth,D5
6974,Right,0,86,102,1867.5,0.489583,Eighth,D6
6975,Right,0,88,102,1868.0,0.489583,Eighth,E6
6976,Left,1,76,102,1868.0,0.489583,Eighth,E5
6978,Left,1,77,103,1868.5,0.489583,Eighth,F5
6977,Right,0,89,103,1868.5,0.489583,Eighth,F6
6979,Right,0,91,104,1869.0,0.489583,Eighth,G6
6980,Left,1,79,104,1869.0,0.489583,Eighth,G5
6981,Right,0,89,104,1869.5,0.489583,Eighth,F6
6982,Left,1,77,104,1869.5,0.489583,Eighth,F5
6983,Left,1,81,105,1870.0,0.489583,Eighth,A5
6984,Right,0,93,105,1870.0,0.489583,Eighth,A6
6986,Right,0,94,106,1870.5,0.489583,Eighth,A#6
6985,Left,1,82,106,1870.5,0.489583,Eighth,A#5
6987,Left,1,84,106,1871.0,0.489583,Eighth,C6
6988,Right,0,96,106,1871.0,0.489583,Eighth,C7
6989,Right,0,94,107,1871.5,0.489583,Eighth,A#6
6990,Left,1,82,107,1871.5,0.489583,Eighth,A#5
6992,Left,1,85,108,1872.0,0.489583,Eighth,C#6
6991,Right,0,97,108,1872.0,0.489583,Eighth,C#7
6993,Left,1,86,108,1872.5,0.489583,Eighth,D6
6994,Right,0,98,108,1872.5,0.489583,Eighth,D7
6995,Left,1,87,109,1873.0,0.489583,Eighth,D#6
6996,Right,0,99,109,1873.0,0.489583,Eighth,D#7
6998,Right,0,98,110,1873.5,0.489583,Eighth,D7
6997,Left,1,86,110,1873.5,0.489583,Eighth,D6
7000,Right,0,101,110,1874.0,0.989583,Quarter,F7
6999,Left,1,89,110,1874.0,0.989583,Quarter,F6
7001,Right,0,72,80,1875.0,0.989583,Quarter,D#5_C5
7003,Left,1,65,80,1875.0,0.322917,Triplet,F4
7004,Left,1,67,80,1875.333333,0.322917,Triplet,G4
7005,Left,1,69,80,1875.666667,0.322917,Triplet,A4
7006,Right,0,74,80,1876.0,3.989583,Whole,D5
7007,Left,1,58,80,1876.0,0.65625,DottedEighth,A#3
7008,Left,1,70,80,1876.666667,0.65625,DottedEighth,A#4
7009,Left,1,69,80,1877.333333,0.65625,DottedEighth,A4
7011,Left,1,70,80,1878.0,0.65625,DottedEighth,A#4
7010,Right,0,86,80,1878.0,1.989583,Half,D6
7012,Left,1,69,80,1878.666667,0.65625,DottedEighth,A4
7013,Left,1,70,80,1879.333333,0.65625,DottedEighth,A#4
7014,Left,1,66,80,1880.0,0.65625,DottedEighth,F#4
7015,Right,0,75,80,1880.0,1.989583,Half,D#6_D#5
7017,Left,1,70,80,1880.666667,0.65625,DottedEighth,A#4
7018,Left,1,66,80,1881.333333,0.65625,DottedEighth,F#4
7019,Right,0,78,80,1882.0,1.989583,Half,F#6_F#5
7020,Left,1,70,80,1882.0,0.65625,DottedEighth,A#4
7022,Left,1,63,80,1882.666667,0.65625,DottedEighth,D#4
7023,Left,1,70,80,1883.333333,0.65625,DottedEighth,A#4
7025,Right,0,82,80,1884.0,3.989583,Whole,A#5
7024,Left,1,62,80,1884.0,0.65625,DottedEighth,D4
7026,Left,1,70,80,1884.666667,0.65625,DottedEighth,A#4
7027,Left,1,65,80,1885.333333,0.65625,DottedEighth,F4
7028,Right,0,77,80,1886.0,1.989583,Half,F5_D5
7030,Left,1,58,80,1886.0,0.65625,DottedEighth,A#3
7031,Left,1,70,80,1886.666667,0.65625,DottedEighth,A#4
7032,Left,1,65,80,1887.333333,0.65625,DottedEighth,F4
7033,Right,0,82,80,1888.0,1.989583,Quarter,F#5_A#5
7035,Left,1,63,80,1888.0,0.65625,DottedEighth,D#4
7036,Left,1,70,80,1888.666667,0.65625,DottedEighth,A#4
7037,Right,0,90,80,1889.0,0.989583,Quarter,F#6
7038,Left,1,63,80,1889.333333,0.65625,DottedEighth,D#4
7040,Right,0,87,80,1890.0,1.989583,Half,D#6_D#5
7039,Left,1,66,80,1890.0,0.65625,DottedEighth,F#4
7042,Left,1,70,80,1890.666667,0.65625,DottedEighth,A#4
7043,Left,1,66,80,1891.333333,0.65625,DottedEighth,F#4
7044,Left,1,65,80,1892.0,0.65625,DottedEighth,F4
7045,Right,0,73,80,1892.0,1.989583,Half,C#6_C#5
7047,Left,1,70,80,1892.666667,0.65625,DottedEighth,A#4
7048,Left,1,65,80,1893.333333,0.65625,DottedEighth,F4
7051,Left,1,71,80,1894.0,0.65625,DottedEighth,B4
7049,Right,0,74,80,1894.0,1.989583,Half,D6_D5
7052,Left,1,65,80,1894.666667,0.65625,DottedEighth,F4
7053,Left,1,71,80,1895.333333,0.65625,DottedEighth,B4
7055,Left,1,65,80,1896.0,0.65625,DottedEighth,F4
7054,Right,0,77,80,1896.0,1.989583,Half,F6_F5
7057,Left,1,72,80,1896.666667,0.65625,DottedEighth,C5
7058,Left,1,69,80,1897.333333,0.65625,DottedEighth,A4
7059,Left,1,53,80,1898.0,0.65625,DottedEighth,F3
7060,Right,0,75,80,1898.0,1.489583,DottedQuarter,D#5
7061,Right,0,87,80,1898.020833,1.489583,DottedQuarter,D#6
7062,Left,1,60,80,1898.666667,0.65625,DottedEighth,C4
7063,Left,1,57,80,1899.333333,0.65625,DottedEighth,A3
7064,Right,0,72,80,1899.5,0.489583,Eighth,C6_C5
7066,Left,1,46,80,1900.0,0.489583,Eighth,A#2
7067,Right,0,82,80,1900.0,3.989583,Whole,D6_D5_A#5
7070,Right,0,84,80,1900.25,0.489583,Eighth,C6
7071,Left,1,58,80,1900.5,0.489583,Eighth,A#3
7072,Right,0,82,80,1900.5,0.489583,Eighth,A#5
7073,Right,0,84,80,1900.75,0.489583,Eighth,C6
7075,Right,0,82,81,1901.0,0.489583,Eighth,A#5
7074,Left,1,62,81,1901.0,0.489583,Eighth,D4
7076,Right,0,84,81,1901.25,0.489583,Eighth,C6
7077,Left,1,58,81,1901.5,0.489583,Eighth,A#3
7078,Right,0,82,81,1901.5,0.489583,Eighth,A#5
7079,Right,0,84,82,1901.75,0.489583,Eighth,C6
7081,Right,0,82,82,1902.0,0.489583,Eighth,A#5
7080,Left,1,53,82,1902.0,0.489583,Eighth,F3
7082,Right,0,84,82,1902.25,0.489583,Eighth,C6
7084,Right,0,82,83,1902.5,0.489583,Eighth,A#5
7083,Left,1,58,83,1902.5,0.489583,Eighth,A#3
7085,Right,0,84,83,1902.75,0.489583,Eighth,C6
7086,Left,1,68,83,1903.0,0.489583,Eighth,G#4
7087,Right,0,82,83,1903.0,0.489583,Eighth,A#5
7088,Right,0,84,84,1903.25,0.489583,Eighth,C6
7089,Left,1,58,84,1903.5,0.489583,Eighth,A#3
7090,Right,0,82,84,1903.5,0.489583,Eighth,A#5
7091,Right,0,84,84,1903.75,0.489583,Eighth,C6
7093,Left,1,55,85,1904.0,0.489583,Eighth,G3
7092,Right,0,87,85,1904.0,1.989583,Half,D#6_D#5_A#5
7096,Right,0,84,85,1904.25,0.489583,Eighth,C6
7097,Left,1,58,85,1904.5,0.489583,Eighth,A#3
7098,Right,0,82,85,1904.5,0.489583,Eighth,A#5
7099,Right,0,84,86,1904.75,0.489583,Eighth,C6
7100,Left,1,70,86,1905.0,0.489583,Eighth,A#4
7101,Right,0,82,86,1905.0,0.489583,Eighth,A#5
7102,Right,0,84,86,1905.25,0.489583,Eighth,C6
7103,Right,0,82,87,1905.5,0.489583,Eighth,A#5
7104,Left,1,58,87,1905.5,0.489583,Eighth,A#3
7105,Right,0,84,87,1905.75,0.489583,Eighth,C6
7106,Right,0,82,87,1906.0,1.989583,Half,G6_G5_A#5
7107,Left,1,51,87,1906.0,0.489583,Eighth,D#3
7110,Right,0,84,88,1906.25,0.489583,Eighth,C6
7111,Right,0,82,88,1906.5,0.489583,Eighth,A#5
7112,Left,1,58,88,1906.5,0.489583,Eighth,A#3
7113,Right,0,84,88,1906.75,0.489583,Eighth,C6
7114,Left,1,67,89,1907.0,0.489583,Eighth,G4
7115,Right,0,82,89,1907.0,0.489583,Eighth,A#5
7116,Right,0,84,89,1907.25,0.489583,Eighth,C6
7118,Right,0,82,89,1907.5,0.489583,Eighth,A#5
7117,Left,1,58,89,1907.5,0.489583,Eighth,A#3
7119,Right,0,84,90,1907.75,0.489583,Eighth,C6
7121,Left,1,50,90,1908.0,0.489583,Eighth,D3
7120,Right,0,94,90,1908.0,3.989583,Whole,A#6_A#5
7123,Right,0,84,90,1908.25,0.489583,Eighth,C6
7124,Left,1,58,91,1908.5,0.489583,Eighth,A#3
7125,Right,0,82,91,1908.5,0.489583,Eighth,A#5
7126,Right,0,84,91,1908.75,0.489583,Eighth,C6
7128,Right,0,82,91,1909.0,0.489583,Eighth,A#5
7127,Left,1,65,91,1909.0,0.489583,Eighth,F4
7129,Right,0,84,92,1909.25,0.489583,Eighth,C6
7130,Left,1,58,92,1909.5,0.489583,Eighth,A#3
7131,Right,0,82,92,1909.5,0.489583,Eighth,A#5
7132,Right,0,84,92,1909.75,0.489583,Eighth,C6
7133,Left,1,50,93,1910.0,0.489583,Eighth,D3
7134,Right,0,82,93,1910.0,0.489583,Eighth,A#5
7135,Right,0,84,93,1910.25,0.489583,Eighth,C6
7137,Right,0,82,93,1910.5,0.489583,Eighth,A#5
7136,Left,1,58,93,1910.5,0.489583,Eighth,A#3
7138,Right,0,84,94,1910.75,0.489583,Eighth,C6
7140,Right,0,82,94,1911.0,0.489583,Eighth,A#5
7139,Left,1,62,94,1911.0,0.489583,Eighth,D4
7141,Right,0,84,94,1911.25,0.489583,Eighth,C6
7143,Right,0,82,95,1911.5,0.489583,Eighth,A#5
7142,Left,1,58,95,1911.5,0.489583,Eighth,A#3
7144,Right,0,84,95,1911.75,0.489583,Eighth,C6
7145,Right,0,79,95,1912.0,1.989583,Half,G6_G5_A#5
7147,Left,1,51,95,1912.0,0.489583,Eighth,D#3
7149,Right,0,84,95,1912.25,0.489583,Eighth,C6
7151,Left,1,58,96,1912.5,0.489583,Eighth,A#3
7150,Right,0,82,96,1912.5,0.489583,Eighth,A#5
7152,Right,0,84,96,1912.75,0.489583,Eighth,C6
7154,Left,1,67,96,1913.0,0.489583,Eighth,G4
7153,Right,0,82,96,1913.0,0.489583,Eighth,A#5
7155,Right,0,84,97,1913.25,0.489583,Eighth,C6
7157,Left,1,58,97,1913.5,0.489583,Eighth,A#3
7156,Right,0,82,97,1913.5,0.489583,Eighth,A#5
7158,Right,0,84,97,1913.75,0.489583,Eighth,C6
7161,Left,1,55,98,1914.0,0.489583,Eighth,G3
7159,Right,0,82,98,1914.0,1.989583,Half,D#6_D#5_A#5
7163,Right,0,84,98,1914.25,0.489583,Eighth,C6
7165,Left,1,58,98,1914.5,0.489583,Eighth,A#3
7164,Right,0,82,98,1914.5,0.489583,Eighth,A#5
7166,Right,0,84,99,1914.75,0.489583,Eighth,C6
7168,Right,0,82,99,1915.0,0.489583,Eighth,A#5
7167,Left,1,70,99,1915.0,0.489583,Eighth,A#4
7169,Right,0,84,99,1915.25,0.489583,Eighth,C6
7170,Left,1,58,100,1915.5,0.489583,Eighth,A#3
7171,Right,0,82,100,1915.5,0.489583,Eighth,A#5
7172,Right,0,84,100,1915.75,0.489583,Eighth,C6
7176,Left,1,53,100,1916.0,0.489583,Eighth,F3
7173,Right,0,73,100,1916.0,0.989583,Quarter,C#6_C#5_A#5
7177,Right,0,84,101,1916.25,0.489583,Eighth,C6
7179,Left,1,58,101,1916.5,0.489583,Eighth,A#3
7178,Right,0,82,101,1916.5,0.489583,Eighth,A#5
7180,Right,0,84,101,1916.75,0.489583,Eighth,C6
7181,Right,0,74,102,1917.0,1.989583,Half,D6_D5_A#5
7184,Left,1,57,102,1917.0,0.489583,Eighth,A3
7185,Right,0,84,102,1917.25,0.489583,Eighth,C6
7187,Right,0,82,102,1917.5,0.489583,Eighth,A#5
7186,Left,1,58,102,1917.5,0.489583,Eighth,A#3
7188,Right,0,84,103,1917.75,0.489583,Eighth,C6
7189,Right,0,82,103,1918.0,0.489583,Eighth,A#5
7190,Left,1,53,103,1918.0,0.489583,Eighth,F3
7191,Right,0,84,103,1918.25,0.489583,Eighth,C6
7192,Right,0,82,104,1918.5,0.489583,Eighth,A#5
7193,Left,1,50,104,1918.5,0.489583,Eighth,D3
7194,Right,0,84,104,1918.75,0.489583,Eighth,C6
7195,Right,0,82,104,1919.0,0.989583,Quarter,F6_F5_A#5
7198,Left,1,48,104,1919.0,0.489583,Eighth,C3
7199,Right,0,84,105,1919.25,0.489583,Eighth,C6
7200,Left,1,46,105,1919.5,0.489583,Eighth,A#2
7201,Right,0,82,105,1919.5,0.489583,Eighth,A#5
7202,Right,0,84,105,1919.75,0.489583,Eighth,C6
7203,Right,0,89,106,1920.0,2.489583,Half,F6_A5
7205,Left,1,41,106,1920.0,0.489583,Eighth,F2
7206,Right,0,82,106,1920.25,0.489583,Eighth,A#5
7208,Left,1,43,106,1920.5,0.489583,Eighth,G2
7207,Right,0,81,106,1920.5,0.489583,Eighth,A5
7209,Right,0,82,107,1920.75,0.489583,Eighth,A#5
7211,Left,1,45,107,1921.0,0.489583,Eighth,A2
7210,Right,0,81,107,1921.0,0.489583,Eighth,A5
7212,Right,0,82,107,1921.25,0.489583,Eighth,A#5
7214,Right,0,81,108,1921.5,0.489583,Eighth,A5
7213,Left,1,46,108,1921.5,0.489583,Eighth,A#2
7215,Right,0,82,108,1921.75,0.489583,Eighth,A#5
7217,Left,1,48,108,1922.0,0.489583,Eighth,C3
7216,Right,0,81,108,1922.0,0.489583,Eighth,A5
7218,Right,0,82,109,1922.25,0.489583,Eighth,A#5
7219,Right,0,81,109,1922.5,0.489583,Eighth,D#6_A5
7221,Left,1,50,109,1922.5,0.489583,Eighth,D3
7222,Right,0,82,109,1922.75,0.489583,Eighth,A#5
7223,Right,0,81,110,1923.0,0.489583,Eighth,C6_A5
7225,Left,1,51,110,1923.0,0.489583,Eighth,D#3
7226,Right,0,82,110,1923.25,0.489583,Eighth,A#5
7227,Right,0,89,110,1923.5,0.489583,Eighth,F6_A5
7229,Left,1,53,110,1923.5,0.489583,Eighth,F3
7230,Right,0,82,110,1923.75,0.239583,Sixteenth,A#5
7231,Right,0,89,120,1924.0,0.989583,Quarter,G#5_F6_F5_D6
7234,Left,1,34,120,1924.0,0.489583,Eighth,A#1
7236,Left,1,46,120,1924.5,0.489583,Eighth,A#2
7237,Right,0,98,120,1925.0,1.989583,Half,G#6_F7_F6_D7
7241,Left,1,34,120,1925.0,0.489583,Eighth,A#1
7242,Left,1,46,120,1925.5,0.489583,Eighth,A#2
7243,Left,1,34,120,1926.0,0.489583,Eighth,A#1
7244,Left,1,46,120,1926.5,0.489583,Eighth,A#2
7246,Left,1,34,120,1927.0,0.489583,Eighth,A#1
7245,Right,0,87,120,1927.0,0.989583,Quarter,G#6_F6_D#7_D#6
7250,Left,1,46,120,1927.5,0.489583,Eighth,A#2
7251,Right,0,89,120,1928.0,0.989583,Quarter,G#6_F6_D7_D6
7253,Left,1,34,120,1928.0,0.489583,Eighth,A#1
7256,Left,1,46,120,1928.5,0.489583,Eighth,A#2
7257,Right,0,99,120,1929.0,0.989583,Quarter,G#6_F6_D#7_D#6
7261,Left,1,34,120,1929.0,0.489583,Eighth,A#1
7262,Left,1,46,120,1929.5,0.489583,Eighth,A#2
7263,Right,0,89,120,1930.0,0.989583,Quarter,G#6_F7_F6
7265,Left,1,34,120,1930.0,0.489583,Eighth,A#1
7267,Left,1,46,120,1930.5,0.489583,Eighth,A#2
7268,Right,0,86,80,1931.0,0.989583,Quarter,G6_F6_D7_D6
7272,Left,1,35,80,1931.0,0.489583,Eighth,B1
7273,Left,1,47,80,1931.5,0.489583,Eighth,B2
7275,Right,0,99,80,1932.0,0.989583,Quarter,G6_D#7_D#6
7274,Left,1,36,80,1932.0,0.489583,Eighth,C2
7278,Left,1,48,80,1932.5,0.489583,Eighth,C3
7279,Right,0,86,80,1933.0,0.989583,Quarter,G6_F6_D7_D6
7280,Left,1,35,80,1933.0,0.489583,Eighth,B1
7284,Left,1,47,80,1933.5,0.489583,Eighth,B2
7288,Left,1,36,80,1934.0,0.489583,Eighth,C2
7285,Right,0,99,80,1934.0,0.989583,Quarter,G6_D#7_D#6
7289,Left,1,48,80,1934.5,0.489583,Eighth,C3
7293,Left,1,39,80,1935.0,0.489583,Eighth,D#2
7290,Right,0,96,80,1935.0,0.989583,Quarter,G6_C7_C6
7294,Left,1,51,80,1935.5,0.489583,Eighth,D#3
7295,Right,0,94,80,1936.0,0.989583,Quarter,G6_C6_A#6
7297,Left,1,40,80,1936.0,0.489583,Eighth,E2
7299,Left,1,52,80,1936.5,0.489583,Eighth,E3
7303,Left,1,43,80,1937.0,0.489583,Eighth,G2
7300,Right,0,94,80,1937.0,0.989583,Quarter,E6_C6_A#6
7304,Left,1,55,80,1937.5,0.489583,Eighth,G3
7306,Left,1,41,80,1938.0,0.489583,Eighth,F2
7305,Right,0,84,80,1938.0,0.989583,Quarter,D#6_C6_A6
7309,Left,1,53,80,1938.5,0.489583,Eighth,F3
7310,Right,0,96,80,1939.0,0.989583,Quarter,D#6_C7_C6
7313,Left,1,41,80,1939.0,0.489583,Eighth,F2
7314,Left,1,53,80,1939.5,0.489583,Eighth,F3
7315,Right,0,94,80,1940.0,0.989583,Quarter,D6_A#6_A#5
7318,Left,1,41,80,1940.0,0.489583,Eighth,F2
7319,Left,1,53,82,1940.5,0.489583,Eighth,F3
7321,Right,0,89,84,1941.0,0.989583,Quarter,F6_F5_D6
7320,Left,1,46,84,1941.0,0.489583,Eighth,A#2
7324,Left,1,58,86,1941.5,0.489583,Eighth,A#3
7329,Left,1,41,88,1942.0,0.489583,Eighth,F2
7325,Right,0,87,88,1942.0,0.989583,Quarter,F6_D#6_A6_A5
7330,Left,1,53,90,1942.5,0.489583,Eighth,F3
7335,Left,1,53,92,1943.0,0.489583,Eighth,F3
7331,Right,0,84,92,1943.0,0.989583,Quarter,F6_D#6_C7_C6
7336,Left,1,65,94,1943.5,0.489583,Eighth,F4
7340,Left,1,41,96,1944.0,0.489583,Eighth,F2
7337,Right,0,82,96,1944.0,0.989583,Quarter,F6_D6_A#6_A#5
7342,Left,1,53,98,1944.5,0.489583,Eighth,F3
7344,Right,0,77,100,1945.0,0.989583,Quarter,F6_F5_D6
7343,Left,1,46,100,1945.0,0.489583,Eighth,A#2
7347,Left,1,58,102,1945.5,0.489583,Eighth,A#3
7348,Left,1,41,104,1946.0,0.489583,Eighth,F2
7349,Right,0,81,104,1946.0,0.989583,Quarter,F6_D#6_A6_A5
7353,Left,1,53,106,1946.5,0.489583,Eighth,F3
7354,Left,1,53,108,1947.0,0.489583,Eighth,F3
7355,Right,0,84,108,1947.0,0.989583,Quarter,F6_D#6_C7_C6
7359,Left,1,65,110,1947.5,0.489583,Eighth,F4
7360,Left,1,46,110,1948.0,0.489583,Eighth,A#2
7361,Right,0,82,110,1948.0,0.489583,Eighth,A#5
7362,Left,1,58,110,1948.5,0.489583,Eighth,A#3
7363,Right,0,94,110,1948.5,0.489583,Eighth,A#6
7364,Left,1,41,110,1949.0,0.489583,Eighth,F2
7365,Right,0,77,110,1949.0,0.489583,Eighth,F5
7367,Left,1,53,110,1949.5,0.489583,Eighth,F3
7366,Right,0,89,110,1949.5,0.489583,Eighth,F6
7368,Right,0,81,110,1950.0,0.489583,Eighth,A5
7369,Left,1,45,110,1950.0,0.489583,Eighth,A2
7370,Right,0,93,110,1950.5,0.489583,Eighth,A6
7371,Left,1,57,110,1950.5,0.489583,Eighth,A3
7372,Right,0,84,110,1951.0,0.489583,Eighth,C6
7373,Left,1,48,110,1951.0,0.489583,Eighth,C3
7374,Right,0,96,110,1951.5,0.489583,Eighth,C7
7375,Left,1,60,110,1951.5,0.489583,Eighth,C4
7377,Right,0,82,110,1952.0,0.489583,Eighth,A#5
7376,Left,1,46,110,1952.0,0.489583,Eighth,A#2
7379,Right,0,94,110,1952.5,0.489583,Eighth,A#6
7378,Left,1,58,110,1952.5,0.489583,Eighth,A#3
7380,Right,0,77,110,1953.0,0.489583,Eighth,F5
7381,Left,1,41,110,1953.0,0.489583,Eighth,F2
7382,Left,1,53,110,1953.5,0.489583,Eighth,F3
7383,Right,0,89,110,1953.5,0.489583,Eighth,F6
7385,Right,0,69,110,1954.0,0.489583,Eighth,A4
7384,Left,1,33,110,1954.0,0.489583,Eighth,A1
7387,Left,1,45,110,1954.5,0.489583,Eighth,A2
7386,Right,0,81,110,1954.5,0.489583,Eighth,A5
7388,Right,0,72,110,1955.0,0.489583,Eighth,C5
7389,Left,1,36,110,1955.0,0.489583,Eighth,C2
7390,Right,0,84,110,1955.5,0.489583,Eighth,C6
7391,Left,1,48,110,1955.5,0.489583,Eighth,C3
7392,Right,0,70,110,1956.0,0.489583,Eighth,A#4
7393,Left,1,34,110,1956.0,0.489583,Eighth,A#1
7394,Right,0,82,110,1956.5,0.489583,Eighth,A#5
7395,Left,1,46,110,1956.5,0.489583,Eighth,A#2
7396,Left,1,29,110,1957.0,0.489583,Eighth,F1
7397,Right,0,65,110,1957.0,0.489583,Eighth,F4
7399,Right,0,77,110,1957.5,0.489583,Eighth,F5
7398,Left,1,41,110,1957.5,0.489583,Eighth,F2
7400,Right,0,71,110,1958.0,0.489583,Eighth,B4
7401,Left,1,35,110,1958.0,0.489583,Eighth,B1
7403,Left,1,47,110,1958.5,0.489583,Eighth,B2
7402,Right,0,83,110,1958.5,0.489583,Eighth,B5
7405,Left,1,38,110,1959.0,0.489583,Eighth,D2
7404,Right,0,74,110,1959.0,0.489583,Eighth,D5
7406,Right,0,86,110,1959.5,0.489583,Eighth,D6
7407,Left,1,50,110,1959.5,0.489583,Eighth,D3
7409,Left,1,36,110,1960.0,0.489583,Eighth,C2
7408,Right,0,72,110,1960.0,0.489583,Eighth,C5
7411,Left,1,48,110,1960.5,0.489583,Eighth,C3
7410,Right,0,84,110,1960.5,0.489583,Eighth,C6
7412,Right,0,67,110,1961.0,0.489583,Eighth,G4
7413,Left,1,31,110,1961.0,0.489583,Eighth,G1
7414,Right,0,79,110,1961.5,0.489583,Eighth,G5
7415,Left,1,43,110,1961.5,0.489583,Eighth,G2
7417,Left,1,35,110,1962.0,0.489583,Eighth,B1
7416,Right,0,71,110,1962.0,0.489583,Eighth,B4
7418,Right,0,83,110,1962.5,0.489583,Eighth,B5
7419,Left,1,47,110,1962.5,0.489583,Eighth,B2
7420,Right,0,74,110,1963.0,0.489583,Eighth,D5
7421,Left,1,38,110,1963.0,0.489583,Eighth,D2
7423,Left,1,50,110,1963.5,0.489583,Eighth,D3
7422,Right,0,86,110,1963.5,0.489583,Eighth,D6
7424,Right,0,72,110,1964.0,0.489583,Eighth,C5
7425,Left,1,36,110,1964.0,0.489583,Eighth,C2
7426,Right,0,84,110,1964.5,0.489583,Eighth,C6
7427,Left,1,48,110,1964.5,0.489583,Eighth,C3
7428,Right,0,67,110,1965.0,0.489583,Eighth,G4
7429,Left,1,31,110,1965.0,0.489583,Eighth,G1
7430,Right,0,79,110,1965.5,0.489583,Eighth,G5
7431,Left,1,43,110,1965.5,0.489583,Eighth,G2
7432,Right,0,72,110,1966.0,0.489583,Eighth,C5
7433,Left,1,36,110,1966.0,0.489583,Eighth,C2
7434,Right,0,84,110,1966.5,0.489583,Eighth,C6
7435,Left,1,48,110,1966.5,0.489583,Eighth,C3
7436,Right,0,75,110,1967.0,0.489583,Eighth,D#5
7437,Left,1,39,110,1967.0,0.489583,Eighth,D#2
7438,Right,0,87,110,1967.5,0.489583,Eighth,D#6
7439,Left,1,51,110,1967.5,0.489583,Eighth,D#3
7441,Left,1,38,110,1968.0,0.489583,Eighth,D2
7440,Right,0,74,110,1968.0,0.489583,Eighth,D5
7443,Left,1,50,110,1968.5,0.489583,Eighth,D3
7442,Right,0,86,110,1968.5,0.489583,Eighth,D6
7444,Right,0,69,110,1969.0,0.489583,Eighth,A4
7445,Left,1,33,110,1969.0,0.489583,Eighth,A1
7446,Right,0,81,110,1969.5,0.489583,Eighth,A5
7447,Left,1,45,110,1969.5,0.489583,Eighth,A2
7449,Left,1,37,110,1970.0,0.489583,Eighth,C#2
7448,Right,0,73,110,1970.0,0.489583,Eighth,C#5
7450,Left,1,49,110,1970.5,0.489583,Eighth,C#3
7451,Right,0,85,110,1970.5,0.489583,Eighth,C#6
7452,Left,1,40,110,1971.0,0.489583,Eighth,E2
7453,Right,0,76,110,1971.0,0.489583,Eighth,E5
7454,Right,0,88,110,1971.5,0.489583,Eighth,E6
7455,Left,1,52,110,1971.5,0.489583,Eighth,E3
7457,Left,1,38,110,1972.0,0.489583,Eighth,D2
7456,Right,0,74,110,1972.0,0.489583,Eighth,D5
7459,Right,0,86,110,1972.5,0.489583,Eighth,D6
7458,Left,1,50,110,1972.5,0.489583,Eighth,D3
7461,Right,0,69,110,1973.0,0.489583,Eighth,A4
7460,Left,1,33,110,1973.0,0.489583,Eighth,A1
7464,Right,0,74,110,1974.0,0.489583,Eighth,D5
7465,Left,1,38,110,1974.0,0.489583,Eighth,D2
7467,Left,1,50,110,1974.5,0.489583,Eighth,D3
7466,Right,0,86,110,1974.5,0.489583,Eighth,D6
7468,Right,0,77,110,1975.0,0.489583,Eighth,F5
7469,Left,1,41,110,1975.0,0.489583,Eighth,F2
7471,Left,1,53,110,1975.5,0.489583,Eighth,F3
7470,Right,0,89,110,1975.5,0.489583,Eighth,F6
7473,Left,1,39,110,1976.0,0.489583,Eighth,D#2
7472,Right,0,75,110,1976.0,0.489583,Eighth,D#5
7475,Right,0,87,110,1976.5,0.489583,Eighth,D#6
7474,Left,1,51,110,1976.5,0.489583,Eighth,D#3
7476,Left,1,34,110,1977.0,0.489583,Eighth,A#1
7477,Right,0,70,110,1977.0,0.489583,Eighth,A#4
7478,Right,0,82,110,1977.5,0.489583,Eighth,A#5
7479,Left,1,46,110,1977.5,0.489583,Eighth,A#2
7481,Left,1,38,110,1978.0,0.489583,Eighth,D2
7480,Right,0,74,110,1978.0,0.489583,Eighth,D5
7482,Right,0,86,110,1978.5,0.489583,Eighth,D6
7483,Left,1,50,110,1978.5,0.489583,Eighth,D3
7484,Right,0,77,110,1979.0,0.489583,Eighth,F5
7485,Left,1,41,110,1979.0,0.489583,Eighth,F2
7487,Right,0,89,110,1979.5,0.489583,Eighth,F6
7486,Left,1,53,110,1979.5,0.489583,Eighth,F3
7488,Right,0,75,110,1980.0,0.489583,Eighth,D#5
7489,Left,1,39,110,1980.0,0.489583,Eighth,D#2
7490,Left,1,51,110,1980.5,0.489583,Eighth,D#3
7491,Right,0,87,110,1980.5,0.489583,Eighth,D#6
7493,Right,0,70,110,1981.0,0.489583,Eighth,A#4
7492,Left,1,34,110,1981.0,0.489583,Eighth,A#1
7495,Left,1,46,110,1981.5,0.489583,Eighth,A#2
7494,Right,0,82,110,1981.5,0.489583,Eighth,A#5
7496,Right,0,75,110,1982.0,0.489583,Eighth,D#5
7497,Left,1,39,110,1982.0,0.489583,Eighth,D#2
7498,Right,0,87,110,1982.5,0.489583,Eighth,D#6
7499,Left,1,51,110,1982.5,0.489583,Eighth,D#3
7501,Right,0,78,110,1983.0,0.489583,Eighth,F#5
7500,Left,1,42,110,1983.0,0.489583,Eighth,F#2
7503,Left,1,54,110,1983.5,0.489583,Eighth,F#3
7502,Right,0,90,110,1983.5,0.489583,Eighth,F#6
7504,Left,1,41,110,1984.0,0.489583,Eighth,F2
7505,Right,0,77,110,1984.0,0.489583,Eighth,F5
7507,Left,1,53,110,1984.5,0.489583,Eighth,F3
7506,Right,0,89,110,1984.5,0.489583,Eighth,F6
7509,Left,1,36,110,1985.0,0.489583,Eighth,C2
7508,Right,0,72,110,1985.0,0.489583,Eighth,C5
7511,Right,0,84,110,1985.5,0.489583,Eighth,C6
7510,Left,1,48,110,1985.5,0.489583,Eighth,C3
7512,Right,0,75,110,1986.0,0.489583,Eighth,D#5
7513,Left,1,39,110,1986.0,0.489583,Eighth,D#2
7514,Left,1,51,110,1986.5,0.489583,Eighth,D#3
7515,Right,0,87,110,1986.5,0.489583,Eighth,D#6
7516,Right,0,78,110,1987.0,0.489583,Eighth,F#5
7517,Left,1,42,110,1987.0,0.489583,Eighth,F#2
7519,Left,1,54,110,1987.5,0.489583,Eighth,F#3
7518,Right,0,90,110,1987.5,0.489583,Eighth,F#6
7521,Left,1,37,110,1988.0,0.489583,Eighth,C#2
7520,Right,0,73,110,1988.0,0.489583,Eighth,C#5
7522,Left,1,49,110,1988.5,0.489583,Eighth,C#3
7523,Right,0,85,110,1988.5,0.489583,Eighth,C#6
7525,Left,1,33,110,1989.0,0.489583,Eighth,A1
7524,Right,0,69,110,1989.0,0.489583,Eighth,A4
7526,Left,1,45,110,1989.5,0.489583,Eighth,A2
7527,Right,0,81,110,1989.5,0.489583,Eighth,A5
7528,Left,1,36,110,1990.0,0.489583,Eighth,C2
7529,Right,0,72,110,1990.0,0.489583,Eighth,C5
7531,Left,1,48,110,1990.5,0.489583,Eighth,C3
7530,Right,0,84,110,1990.5,0.489583,Eighth,C6
7533,Right,0,75,110,1991.0,0.489583,Eighth,D#5
7532,Left,1,39,110,1991.0,0.489583,Eighth,D#2
7534,Right,0,87,110,1991.5,0.489583,Eighth,D#6
7535,Left,1,51,110,1991.5,0.489583,Eighth,D#3
7537,Right,0,66,110,1992.0,0.489583,Eighth,F#4
7536,Left,1,30,110,1992.0,0.489583,Eighth,F#1
7538,Left,1,42,110,1992.5,0.489583,Eighth,F#2
7539,Right,0,78,110,1992.5,0.489583,Eighth,F#5
7540,Right,0,65,110,1993.0,0.489583,Eighth,F4
7541,Left,1,29,110,1993.0,0.489583,Eighth,F1
7543,Right,0,77,110,1993.5,0.489583,Eighth,F5
7542,Left,1,41,110,1993.5,0.489583,Eighth,F2
7544,Right,0,69,110,1994.0,0.489583,Eighth,A4
7545,Left,1,33,110,1994.0,0.489583,Eighth,A1
7546,Left,1,45,110,1994.5,0.489583,Eighth,A2
7547,Right,0,81,110,1994.5,0.489583,Eighth,A5
7549,Left,1,39,110,1995.0,0.489583,Eighth,D#2
7548,Right,0,75,110,1995.0,0.489583,Eighth,D#5
7551,Right,0,87,110,1995.5,0.489583,Eighth,D#6
7550,Left,1,51,110,1995.5,0.489583,Eighth,D#3
7553,Right,0,74,80,1996.0,3.989583,Whole,D5_B4
7552,Left,1,46,80,1996.0,1.989583,Half,A#2_A#1
7556,Right,0,70,80,1996.5,0.489583,Eighth,A#4
7557,Right,0,71,80,1997.0,0.489583,Eighth,B4
7558,Right,0,70,80,1997.5,0.489583,Eighth,A#4
7561,Right,0,71,80,1998.0,0.489583,Eighth,B4
7559,Left,1,56,80,1998.0,1.989583,Half,G#3_G#2
7562,Right,0,70,80,1998.5,0.489583,Eighth,A#4
7563,Right,0,71,80,1999.0,0.489583,Eighth,B4
7564,Right,0,70,80,1999.5,0.489583,Eighth,A#4
7567,Left,1,54,80,2000.0,1.989583,Half,F#3_F#2
7565,Right,0,71,80,2000.0,1.989583,Eighth,D#5_B4
7569,Right,0,70,80,2000.5,0.489583,Eighth,A#4
7570,Right,0,71,80,2001.0,0.489583,Eighth,B4
7571,Right,0,70,80,2001.5,0.489583,Eighth,A#4
7573,Right,0,78,80,2002.0,1.989583,Half,F#5_B4
7572,Left,1,51,80,2002.0,1.989583,Half,D#3_D#2
7576,Right,0,70,80,2002.5,0.489583,Eighth,A#4
7577,Right,0,71,80,2003.0,0.489583,Eighth,B4
7578,Right,0,70,80,2003.5,0.489583,Eighth,A#4
7579,Left,1,50,80,2004.0,1.989583,Half,D3_D2
7581,Right,0,71,80,2004.0,3.989583,Eighth,B4_A#5
7583,Right,0,70,80,2004.5,0.489583,Eighth,A#4
7584,Right,0,71,80,2005.0,0.489583,Eighth,B4
7585,Right,0,70,80,2005.5,0.489583,Eighth,A#4
7587,Right,0,71,80,2006.0,0.489583,Eighth,B4
7586,Left,1,34,80,2006.0,1.989583,Half,A#2_A#1
7589,Right,0,70,80,2006.5,0.489583,Eighth,A#4
7590,Right,0,71,80,2007.0,0.489583,Eighth,B4
7591,Right,0,70,80,2007.5,0.489583,Eighth,A#4
7594,Right,0,78,80,2008.0,1.989583,Half,F#5_B4
7592,Left,1,51,80,2008.0,1.989583,Half,D#3_D#2
7596,Right,0,70,80,2008.5,0.489583,Eighth,A#4
7597,Right,0,71,80,2009.0,0.489583,Eighth,B4
7598,Right,0,70,80,2009.5,0.489583,Eighth,A#4
7600,Right,0,75,80,2010.0,1.989583,Half,D#5_B4
7599,Left,1,54,80,2010.0,0.989583,Quarter,F#3_A#3
7603,Right,0,70,80,2010.5,0.489583,Eighth,A#4
7604,Right,0,70,80,2011.0,0.489583,Eighth,A#4
7605,Left,1,58,80,2011.0,0.989583,Eighth,G3_A#3
7608,Left,1,60,80,2011.25,0.489583,Eighth,C4
7607,Right,0,72,80,2011.25,0.489583,Eighth,C5
7610,Left,1,58,80,2011.5,0.489583,Eighth,A#3
7609,Right,0,70,80,2011.5,0.489583,Eighth,A#4
7612,Left,1,60,80,2011.75,0.489583,Eighth,C4
7611,Right,0,72,80,2011.75,0.489583,Eighth,C5
7615,Left,1,53,80,2012.0,0.989583,Quarter,F3_A#3
7613,Right,0,74,100,2012.0,3.989583,Whole,D5_A#4
7617,Left,1,60,80,2012.25,0.489583,Eighth,C4
7618,Right,0,72,80,2012.25,0.489583,Eighth,C5
7619,Left,1,58,80,2012.5,0.489583,Eighth,A#3
7620,Right,0,70,80,2012.5,0.489583,Eighth,A#4
7622,Left,1,60,80,2012.75,0.489583,Eighth,C4
7621,Right,0,72,80,2012.75,0.489583,Eighth,C5
7623,Left,1,58,80,2013.0,0.989583,Eighth,G3_A#3
7625,Right,0,70,80,2013.0,0.489583,Eighth,A#4
7626,Right,0,72,80,2013.25,0.489583,Eighth,C5
7627,Left,1,60,80,2013.25,0.489583,Eighth,C4
7629,Right,0,70,80,2013.5,0.489583,Eighth,A#4
7628,Left,1,58,80,2013.5,0.489583,Eighth,A#3
7630,Left,1,60,80,2013.75,0.489583,Eighth,C4
7631,Right,0,72,80,2013.75,0.489583,Eighth,C5
7633,Left,1,58,80,2014.0,0.989583,Eighth,G#3_A#3
7632,Right,0,70,80,2014.0,0.489583,Eighth,A#4
7635,Right,0,72,80,2014.25,0.489583,Eighth,C5
7636,Left,1,60,80,2014.25,0.489583,Eighth,C4
7638,Right,0,70,80,2014.5,0.489583,Eighth,A#4
7637,Left,1,58,80,2014.5,0.489583,Eighth,A#3
7640,Left,1,60,80,2014.75,0.489583,Eighth,C4
7639,Right,0,72,80,2014.75,0.489583,Eighth,C5
7642,Right,0,70,80,2015.0,0.489583,Eighth,A#4
7641,Left,1,58,80,2015.0,0.989583,Eighth,F3_A#3
7645,Left,1,60,80,2015.25,0.489583,Eighth,C4
7644,Right,0,72,80,2015.25,0.489583,Eighth,C5
7646,Right,0,70,80,2015.5,0.489583,Eighth,A#4
7647,Left,1,58,80,2015.5,0.489583,Eighth,A#3
7648,Right,0,72,80,2015.75,0.489583,Eighth,C5
7649,Left,1,60,80,2015.75,0.489583,Eighth,C4
7652,Left,1,58,80,2016.0,0.989583,Eighth,G3_A#3
7650,Right,0,70,80,2016.0,2.989583,Eighth,D#5_A#4
7654,Left,1,60,80,2016.25,0.489583,Eighth,C4
7655,Right,0,72,80,2016.25,0.489583,Eighth,C5
7656,Left,1,58,80,2016.5,0.489583,Eighth,A#3
7657,Right,0,70,80,2016.5,0.489583,Eighth,A#4
7658,Left,1,60,80,2016.75,0.489583,Eighth,C4
7659,Right,0,72,80,2016.75,0.489583,Eighth,C5
7661,Left,1,58,80,2017.0,0.989583,Eighth,G#3_A#3
7660,Right,0,70,80,2017.0,0.489583,Eighth,A#4
7663,Right,0,72,80,2017.25,0.489583,Eighth,C5
7664,Left,1,60,80,2017.25,0.489583,Eighth,C4
7665,Left,1,58,80,2017.5,0.489583,Eighth,A#3
7666,Right,0,70,80,2017.5,0.489583,Eighth,A#4
7668,Left,1,60,80,2017.75,0.489583,Eighth,C4
7667,Right,0,72,80,2017.75,0.489583,Eighth,C5
7671,Right,0,70,80,2018.0,0.489583,Eighth,A#4
7669,Left,1,58,80,2018.0,0.989583,Eighth,G3_A#3
7673,Left,1,60,80,2018.25,0.489583,Eighth,C4
7672,Right,0,72,80,2018.25,0.489583,Eighth,C5
7675,Right,0,70,80,2018.5,0.489583,Eighth,A#4
7674,Left,1,58,80,2018.5,0.489583,Eighth,A#3
7677,Left,1,60,80,2018.75,0.489583,Eighth,C4
7676,Right,0,72,80,2018.75,0.489583,Eighth,C5
7678,Left,1,58,80,2019.0,0.989583,Eighth,D#3_A#3
7679,Right,0,79,103,2019.0,0.989583,Quarter,G5_A#4
7683,Right,0,72,80,2019.25,0.489583,Eighth,C5
7682,Left,1,60,80,2019.25,0.489583,Eighth,C4
7685,Left,1,58,80,2019.5,0.489583,Eighth,A#3
7684,Right,0,70,80,2019.5,0.489583,Eighth,A#4
7686,Right,0,72,80,2019.75,0.489583,Eighth,C5
7687,Left,1,60,80,2019.75,0.489583,Eighth,C4
7689,Left,1,50,80,2020.0,0.989583,Quarter,D3_A#3
7688,Right,0,82,104,2020.0,2.989583,DottedHalf,A#5_A#4
7693,Right,0,72,80,2020.25,0.489583,Eighth,C5
7692,Left,1,60,80,2020.25,0.489583,Eighth,C4
7695,Right,0,70,80,2020.5,0.489583,Eighth,A#4
7694,Left,1,58,80,2020.5,0.489583,Eighth,A#3
7697,Left,1,60,80,2020.75,0.489583,Eighth,C4
7696,Right,0,72,80,2020.75,0.489583,Eighth,C5
7700,Right,0,70,80,2021.0,0.489583,Eighth,A#4
7698,Left,1,58,80,2021.0,0.989583,Eighth,D#3_A#3
7702,Left,1,60,80,2021.25,0.489583,Eighth,C4
7701,Right,0,72,80,2021.25,0.489583,Eighth,C5
7704,Left,1,58,80,2021.5,0.489583,Eighth,A#3
7703,Right,0,70,80,2021.5,0.489583,Eighth,A#4
7706,Left,1,60,80,2021.75,0.489583,Eighth,C4
7705,Right,0,72,80,2021.75,0.489583,Eighth,C5
7708,Left,1,58,80,2022.0,0.989583,Eighth,F3_A#3
7707,Right,0,70,80,2022.0,0.489583,Eighth,A#4
7710,Right,0,72,80,2022.25,0.489583,Eighth,C5
7711,Left,1,60,80,2022.25,0.489583,Eighth,C4
7713,Left,1,58,80,2022.5,0.489583,Eighth,A#3
7712,Right,0,70,80,2022.5,0.489583,Eighth,A#4
7715,Left,1,60,80,2022.75,0.489583,Eighth,C4
7714,Right,0,72,80,2022.75,0.489583,Eighth,C5
7717,Left,1,58,80,2023.0,0.989583,Eighth,D3_A#3
7716,Right,0,80,100,2023.0,0.989583,Quarter,G#5_A#4
7721,Right,0,72,80,2023.25,0.489583,Eighth,C5
7720,Left,1,60,80,2023.25,0.489583,Eighth,C4
7723,Left,1,58,80,2023.5,0.489583,Eighth,A#3
7722,Right,0,70,80,2023.5,0.489583,Eighth,A#4
7724,Left,1,60,80,2023.75,0.489583,Eighth,C4
7725,Right,0,72,80,2023.75,0.489583,Eighth,C5
7726,Right,0,70,80,2024.0,0.989583,Eighth,G5_A#4
7727,Left,1,51,80,2024.0,0.989583,Quarter,D#3_A#3
7731,Left,1,60,80,2024.25,0.489583,Eighth,C4
7730,Right,0,72,80,2024.25,0.489583,Eighth,C5
7733,Left,1,58,80,2024.5,0.489583,Eighth,A#3
7732,Right,0,70,80,2024.5,0.489583,Eighth,A#4
7735,Right,0,72,80,2024.75,0.489583,Eighth,C5
7734,Left,1,60,80,2024.75,0.489583,Eighth,C4
7736,Right,0,77,100,2025.0,0.989583,Quarter,F5_A#4
7737,Left,1,58,80,2025.0,0.989583,Eighth,F3_A#3
7740,Left,1,60,80,2025.25,0.489583,Eighth,C4
7741,Right,0,72,80,2025.25,0.489583,Eighth,C5
7742,Right,0,70,80,2025.5,0.489583,Eighth,A#4
7743,Left,1,58,80,2025.5,0.489583,Eighth,A#3
7745,Left,1,60,80,2025.75,0.489583,Eighth,C4
7744,Right,0,72,80,2025.75,0.489583,Eighth,C5
7748,Left,1,55,80,2026.0,0.989583,Quarter,G3_A#3
7746,Right,0,75,100,2026.0,0.989583,Quarter,D#5_A#4
7751,Left,1,60,80,2026.25,0.489583,Eighth,C4
7750,Right,0,72,80,2026.25,0.489583,Eighth,C5
7752,Right,0,70,80,2026.5,0.489583,Eighth,A#4
7753,Left,1,58,80,2026.5,0.489583,Eighth,A#3
7754,Right,0,72,80,2026.75,0.489583,Eighth,C5
7755,Left,1,60,80,2026.75,0.489583,Eighth,C4
7756,Right,0,70,80,2027.0,0.989583,Eighth,D5_A#4
7758,Left,1,56,80,2027.0,0.989583,Quarter,G#3_A#3
7761,Right,0,72,80,2027.25,0.489583,Eighth,C5
7760,Left,1,60,80,2027.25,0.489583,Eighth,C4
7763,Right,0,70,80,2027.5,0.489583,Eighth,A#4
7762,Left,1,58,80,2027.5,0.489583,Eighth,A#3
7764,Right,0,72,80,2027.75,0.489583,Eighth,C5
7765,Left,1,60,80,2027.75,0.489583,Eighth,C4
7766,Right,0,70,80,2028.0,2.989583,Eighth,D#5_A#4
7767,Left,1,58,80,2028.0,2.989583,Eighth,G3_A#3
7770,Right,0,72,80,2028.25,0.489583,Eighth,C5
7771,Left,1,60,80,2028.25,0.489583,Eighth,C4
7772,Right,0,70,80,2028.5,0.489583,Eighth,A#4
7773,Left,1,58,80,2028.5,0.489583,Eighth,A#3
7775,Left,1,60,80,2028.75,0.489583,Eighth,C4
7774,Right,0,72,80,2028.75,0.489583,Eighth,C5
7776,Right,0,70,80,2029.0,0.489583,Eighth,A#4
7777,Left,1,58,80,2029.0,0.489583,Eighth,A#3
7779,Left,1,60,80,2029.25,0.489583,Eighth,C4
7778,Right,0,72,80,2029.25,0.489583,Eighth,C5
7781,Left,1,58,80,2029.5,0.489583,Eighth,A#3
7780,Right,0,70,80,2029.5,0.489583,Eighth,A#4
7782,Left,1,60,80,2029.75,0.489583,Eighth,C4
7783,Right,0,72,80,2029.75,0.489583,Eighth,C5
7784,Left,1,58,80,2030.0,0.489583,Eighth,A#3
7785,Right,0,70,80,2030.0,0.489583,Eighth,A#4
7786,Left,1,60,80,2030.25,0.489583,Eighth,C4
7787,Right,0,72,80,2030.25,0.489583,Eighth,C5
7789,Right,0,70,80,2030.5,0.489583,Eighth,A#4
7788,Left,1,58,80,2030.5,0.489583,Eighth,A#3
7791,Right,0,72,80,2030.75,0.489583,Eighth,C5
7790,Left,1,60,80,2030.75,0.489583,Eighth,C4
7793,Right,0,70,80,2031.0,0.989583,Eighth,D5_A#4
7792,Left,1,58,80,2031.0,0.489583,Eighth,A#3
7795,Left,1,60,80,2031.25,0.489583,Eighth,C4
7796,Right,0,72,80,2031.25,0.489583,Eighth,C5
7798,Left,1,58,80,2031.5,0.489583,Eighth,A#3
7797,Right,0,70,80,2031.5,0.489583,Eighth,A#4
7800,Left,1,60,80,2031.75,0.489583,Eighth,C4
7799,Right,0,72,80,2031.75,0.489583,Eighth,C5
7801,Right,0,77,100,2032.0,0.989583,Quarter,F5_A#4
7803,Left,1,55,80,2032.0,2.989583,DottedHalf,G3_A#3
7805,Right,0,72,80,2032.25,0.489583,Eighth,C5
7806,Left,1,60,80,2032.25,0.489583,Eighth,C4
7808,Left,1,58,80,2032.5,0.489583,Eighth,A#3
7807,Right,0,70,80,2032.5,0.489583,Eighth,A#4
7809,Right,0,72,80,2032.75,0.489583,Eighth,C5
7810,Left,1,60,80,2032.75,0.489583,Eighth,C4
7813,Left,1,58,80,2033.0,0.489583,Eighth,A#3
7811,Right,0,70,80,2033.0,1.989583,Eighth,D#5_A#4
7815,Left,1,60,80,2033.25,0.489583,Eighth,C4
7814,Right,0,72,80,2033.25,0.489583,Eighth,C5
7816,Left,1,58,80,2033.5,0.489583,Eighth,A#3
7817,Right,0,70,80,2033.5,0.489583,Eighth,A#4
7818,Left,1,60,80,2033.75,0.489583,Eighth,C4
7819,Right,0,72,80,2033.75,0.489583,Eighth,C5
7821,Right,0,70,80,2034.0,0.489583,Eighth,A#4
7820,Left,1,58,80,2034.0,0.489583,Eighth,A#3
7822,Right,0,72,80,2034.25,0.489583,Eighth,C5
7823,Left,1,60,80,2034.25,0.489583,Eighth,C4
7824,Right,0,70,80,2034.5,0.489583,Eighth,A#4
7825,Left,1,58,80,2034.5,0.489583,Eighth,A#3
7827,Right,0,72,80,2034.75,0.489583,Eighth,C5
7826,Left,1,60,80,2034.75,0.489583,Eighth,C4
7830,Right,0,74,100,2035.0,0.989583,Quarter,D5_A#4
7828,Left,1,58,80,2035.0,0.989583,Eighth,F3_A#3
7833,Right,0,72,80,2035.25,0.489583,Eighth,C5
7832,Left,1,60,80,2035.25,0.489583,Eighth,C4
7835,Right,0,70,80,2035.5,0.489583,Eighth,A#4
7834,Left,1,58,80,2035.5,0.489583,Eighth,A#3
7837,Left,1,60,80,2035.75,0.239583,Sixteenth,C4
7836,Right,0,72,80,2035.75,0.239583,Sixteenth,C5
7839,Left,1,58,80,2036.0,7.989583,Unknown,F3_D4_A#3
7838,Right,0,74,80,2036.0,3.989583,Eighth,D5_A#4
7843,Right,0,75,80,2036.25,0.489583,Eighth,D#5
7844,Right,0,74,81,2036.5,0.489583,Eighth,D5
7845,Right,0,75,82,2036.75,0.489583,Eighth,D#5
7846,Right,0,74,83,2037.0,0.489583,Eighth,D5
7847,Right,0,75,84,2037.25,0.489583,Eighth,D#5
7848,Right,0,74,85,2037.5,0.489583,Eighth,D5
7849,Right,0,75,86,2037.75,0.489583,Eighth,D#5
7850,Right,0,74,87,2038.0,0.489583,Eighth,D5
7851,Right,0,75,88,2038.25,0.489583,Eighth,D#5
7852,Right,0,74,89,2038.5,0.489583,Eighth,D5
7853,Right,0,75,90,2038.75,0.489583,Eighth,D#5
7854,Right,0,74,91,2039.0,0.489583,Eighth,D5
7855,Right,0,75,92,2039.25,0.489583,Eighth,D#5
7856,Right,0,74,93,2039.5,0.489583,Eighth,D5
7857,Right,0,75,94,2039.75,0.489583,Eighth,D#5
7858,Right,0,74,95,2040.0,0.489583,Eighth,D5
7859,Right,0,75,95,2040.25,0.489583,Eighth,D#5
7860,Right,0,74,94,2040.5,0.489583,Eighth,D5
7861,Right,0,75,93,2040.75,0.489583,Eighth,D#5
7862,Right,0,74,92,2041.0,0.489583,Eighth,D5
7863,Right,0,75,91,2041.25,0.489583,Eighth,D#5
7864,Right,0,74,90,2041.5,0.489583,Eighth,D5
7865,Right,0,75,89,2041.75,0.489583,Eighth,D#5
7866,Right,0,74,88,2042.0,0.489583,Eighth,D5
7867,Right,0,75,87,2042.25,0.489583,Eighth,D#5
7868,Right,0,74,86,2042.5,0.489583,Eighth,D5
7869,Right,0,75,85,2042.75,0.489583,Eighth,D#5
7870,Right,0,74,84,2043.0,0.489583,Eighth,D5
7871,Right,0,75,83,2043.25,0.489583,Eighth,D#5
7872,Right,0,74,82,2043.5,0.489583,Eighth,D5
7873,Right,0,72,81,2043.75,0.239583,Sixteenth,C5
7874,Right,0,74,80,2044.0,0.489583,Eighth,D5
7875,Right,0,75,80,2044.5,0.489583,Eighth,D#5
7876,Right,0,74,80,2045.0,0.489583,Eighth,D5
7877,Left,1,70,80,2045.0,0.489583,Eighth,A#4
7879,Right,0,72,80,2045.5,0.489583,Eighth,C5
7878,Left,1,69,80,2045.5,0.489583,Eighth,A4
7880,Left,1,67,80,2046.0,0.489583,Eighth,G4
7881,Right,0,70,80,2046.0,0.489583,Eighth,A#4
7883,Left,1,65,80,2046.5,0.489583,Eighth,F4
7882,Right,0,69,80,2046.5,0.489583,Eighth,A4
7884,Right,0,70,80,2047.0,0.489583,Eighth,A#4
7885,Left,1,67,80,2047.0,0.489583,Eighth,G4
7886,Left,1,69,80,2047.5,0.489583,Eighth,A4
7887,Right,0,72,80,2047.5,0.489583,Eighth,C5
7889,Right,0,74,80,2048.0,0.489583,Eighth,D5
7888,Left,1,70,80,2048.0,0.489583,Eighth,A#4
7890,Right,0,75,80,2048.5,0.489583,Eighth,D#5
7891,Left,1,72,80,2048.5,0.489583,Eighth,C5
7892,Left,1,74,80,2049.0,0.489583,Eighth,D5
7893,Right,0,77,80,2049.0,0.489583,Eighth,F5
7894,Right,0,79,80,2049.5,0.489583,Eighth,G5
7895,Left,1,75,80,2049.5,0.489583,Eighth,D#5
7897,Left,1,77,80,2050.0,0.489583,Eighth,F5
7896,Right,0,81,80,2050.0,0.489583,Eighth,A5
7899,Right,0,82,80,2050.5,0.489583,Eighth,A#5
7898,Left,1,79,80,2050.5,0.489583,Eighth,G5
7901,Left,1,81,80,2051.0,0.489583,Eighth,A5
7900,Right,0,84,80,2051.0,0.489583,Eighth,C6
7903,Right,0,86,80,2051.5,0.489583,Eighth,D6
7902,Left,1,82,80,2051.5,0.489583,Eighth,A#5
7904,Right,0,87,80,2052.0,0.489583,Eighth,D#6
7905,Right,0,89,80,2052.5,0.489583,Eighth,F6
7906,Left,1,41,80,2052.5,0.489583,Eighth,F2
7908,Left,1,43,80,2053.0,0.489583,Eighth,G2
7907,Right,0,87,80,2053.0,0.489583,Eighth,D#6
7909,Right,0,86,80,2053.5,0.489583,Eighth,D6
7910,Left,1,45,80,2053.5,0.489583,Eighth,A2
7912,Left,1,46,80,2054.0,0.489583,Eighth,A#2
7911,Right,0,84,80,2054.0,0.489583,Eighth,C6
7913,Left,1,48,80,2054.5,0.489583,Eighth,C3
7914,Right,0,82,80,2054.5,0.489583,Eighth,A#5
7915,Left,1,50,80,2055.0,0.489583,Eighth,D3
7916,Right,0,81,80,2055.0,0.489583,Eighth,A5
7918,Left,1,51,80,2055.5,0.489583,Eighth,D#3
7917,Right,0,79,80,2055.5,0.489583,Eighth,G5
7919,Left,1,53,80,2056.0,0.489583,Eighth,F3
7920,Right,0,77,80,2056.0,0.489583,Eighth,F5
7922,Right,0,75,80,2056.5,0.489583,Eighth,D#5
7921,Left,1,55,80,2056.5,0.489583,Eighth,G3
7924,Right,0,74,80,2057.0,0.489583,Eighth,D5
7923,Left,1,57,80,2057.0,0.489583,Eighth,A3
7925,Right,0,72,80,2057.5,0.489583,Eighth,C5
7926,Left,1,58,80,2057.5,0.489583,Eighth,A#3
7927,Left,1,60,80,2058.0,0.489583,Eighth,C4
7928,Right,0,70,80,2058.0,0.489583,Eighth,A#4
7929,Left,1,62,80,2058.5,0.489583,Eighth,D4
7930,Right,0,69,80,2058.5,0.489583,Eighth,A4
7932,Right,0,67,80,2059.0,0.489583,Eighth,G4
7931,Left,1,63,80,2059.0,0.489583,Eighth,D#4
7933,Left,1,62,80,2059.5,0.489583,Eighth,D4
7934,Right,0,65,80,2059.5,0.489583,Eighth,F4
7935,Right,0,65,70,2060.0,1.489583,DottedQuarter,F4_D5
7937,Left,1,62,70,2060.0,1.489583,DottedQuarter,D4_A#3
7939,Left,1,58,70,2061.5,0.489583,Eighth,D4_A#3
7941,Right,0,65,70,2061.5,0.489583,Eighth,F4
7942,Right,0,74,70,2061.9375,0.052083,SixtyFourth,D5
7943,Left,1,62,70,2062.0,0.989583,Quarter,D4_A#3
7944,Right,0,65,70,2062.0,0.989583,Quarter,F4
7948,Left,1,47,110,2063.5,0.489583,Eighth,B2_B1
7946,Right,0,65,110,2063.5,0.489583,Eighth,G4_F4_D4
7952,Left,1,48,110,2064.0,1.489583,DottedQuarter,C3_C2
7951,Right,0,75,110,2064.0,1.489583,DottedQuarter,G4_D#5_D#4
7956,Right,0,67,110,2065.5,0.489583,Eighth,G4_D#5_D#4
7959,Left,1,36,110,2065.5,0.489583,Eighth,C3_C2
7962,Right,0,67,110,2066.0,0.989583,Quarter,G4_D#5_D#4
7961,Left,1,48,110,2066.0,0.989583,Quarter,C3_C2
7967,Right,0,67,70,2067.5,0.489583,Eighth,G4_F4
7966,Left,1,62,70,2067.5,0.489583,Eighth,D4_B3
7972,Right,0,75,70,2068.0,1.489583,DottedQuarter,G4_D#5
7970,Left,1,63,70,2068.0,1.489583,DottedQuarter,D#4_C4
7976,Right,0,75,70,2069.5,0.489583,Eighth,G4_D#5
7974,Left,1,63,70,2069.5,0.489583,Eighth,D#4_C4
7979,Left,1,63,70,2070.0,0.989583,Quarter,D#4_C4
7978,Right,0,75,70,2070.0,0.989583,Quarter,G4_D#5
7984,Right,0,64,110,2071.5,0.489583,Eighth,G4_E4_A4
7982,Left,1,49,110,2071.5,0.489583,Eighth,C#3_C#2
7987,Left,1,50,110,2072.0,1.489583,DottedQuarter,D3_D2
7988,Right,0,77,110,2072.0,1.489583,DottedQuarter,F5_F4_A4
7993,Right,0,77,110,2073.5,0.489583,Eighth,F5_F4_A4
7992,Left,1,38,110,2073.5,0.489583,Eighth,D3_D2
7997,Right,0,77,110,2074.0,0.989583,Quarter,F5_F4_A4
7998,Left,1,38,110,2074.0,0.989583,Quarter,D3_D2
8002,Right,0,67,70,2075.5,0.489583,Eighth,G4_A4
8004,Left,1,61,70,2075.5,0.489583,Eighth,E4_C#4
8008,Right,0,69,70,2076.0,1.489583,DottedQuarter,F5_A4
8006,Left,1,65,70,2076.0,1.489583,DottedQuarter,F4_D4
8010,Right,0,77,70,2077.5,0.489583,Eighth,F5_A4
8011,Left,1,62,70,2077.5,0.489583,Eighth,F4_D4
8016,Right,0,77,70,2078.0,0.989583,Quarter,F5_A4
8014,Left,1,62,70,2078.0,0.989583,Quarter,F4_D4
8018,Left,1,38,110,2079.5,0.489583,Eighth,D3_D2
8020,Right,0,65,110,2079.5,0.489583,Eighth,G#4_F4_A#4
8023,Right,0,70,110,2080.0,1.489583,DottedQuarter,G5_G4_A#4
8024,Left,1,51,110,2080.0,1.489583,DottedQuarter,D#3_D#2
8028,Right,0,67,110,2081.5,0.489583,Eighth,G5_G4_A#4
8029,Left,1,39,110,2081.5,0.489583,Eighth,D#3_D#2
8033,Right,0,67,110,2082.0,0.989583,Quarter,G5_G4_A#4
8036,Left,1,51,110,2082.0,0.989583,Quarter,D#3_D#2
8038,Right,0,67,120,2087.5,0.489583,Eighth,G4_D#5
8039,Left,1,39,120,2087.5,0.489583,Eighth,D#3_D#2
8042,Left,1,29,120,2088.0,1.489583,DottedQuarter,F2_F1
8043,Right,0,69,120,2088.0,1.489583,DottedQuarter,D#5_C5_A5_A4
8050,Left,1,41,120,2089.5,0.489583,Eighth,F2_F1
8048,Right,0,69,120,2089.5,0.489583,Eighth,D#5_C5_A5_A4
8054,Left,1,29,120,2090.0,0.989583,Quarter,F2_F1
8056,Right,0,69,120,2090.0,0.989583,Quarter,D#5_C5_A5_A4
8060,Left,1,30,80,2095.0,0.489583,Eighth,F#1
8061,Left,1,29,80,2095.5,0.489583,Eighth,F1
8062,Left,1,30,80,2096.0,0.489583,Eighth,F#1
8063,Left,1,29,80,2096.5,0.489583,Eighth,F1
8064,Left,1,30,80,2097.0,0.489583,Eighth,F#1
8068,Left,1,29,80,2097.5,0.489583,Eighth,F1
8065,Right,0,82,80,2097.5,0.489583,Eighth,F5_D6_D5_A#5
8073,Left,1,33,80,2098.0,0.489583,Eighth,A1
8070,Right,0,86,80,2098.0,0.989583,Quarter,F5_D6_D5_A#5
8075,Left,1,34,80,2098.5,0.489583,Eighth,A#1
8078,Left,1,33,80,2099.0,0.489583,Eighth,A1
8076,Right,0,74,80,2099.0,0.489583,Eighth,F5_D5_D#6_A#5
8085,Left,1,34,80,2099.5,0.489583,Eighth,A#1
8081,Right,0,86,80,2099.5,0.489583,Eighth,F5_D6_D5_A#5
8086,Right,0,74,80,2100.0,0.989583,Quarter,F5_D6_D5_A#5
8090,Left,1,30,80,2100.0,0.489583,Eighth,F#1
8091,Left,1,29,80,2100.5,0.489583,Eighth,F1
8092,Right,0,77,80,2101.0,0.989583,Quarter,F5_D5_A#5_A#4
8093,Left,1,30,80,2101.0,0.489583,Eighth,F#1
8097,Left,1,29,80,2101.5,0.489583,Eighth,F1
8101,Left,1,34,110,2102.0,1.989583,Half,F#2_A#1
8098,Right,0,62,110,2102.0,0.989583,Quarter,F4_D5_D4_A#4
8104,Left,1,41,110,2102.5,0.489583,Eighth,F2
8105,Right,0,65,110,2103.0,0.989583,Quarter,F4_D4_A#4_A#3
8108,Left,1,42,110,2103.0,0.489583,Eighth,F#2
8110,Left,1,41,110,2103.5,0.489583,Eighth,F2
8115,Left,1,30,80,2104.0,0.489583,Eighth,F#1
8111,Right,0,89,80,2104.0,1.489583,DottedQuarter,F6_F5_D6_A#5
8116,Left,1,29,80,2104.5,0.489583,Eighth,F1
8117,Left,1,30,80,2105.0,0.489583,Eighth,F#1
8122,Left,1,29,80,2105.5,0.489583,Eighth,F1
8118,Right,0,89,80,2105.5,0.489583,Eighth,F6_F5_D6_A#5
8127,Left,1,33,80,2106.0,0.489583,Eighth,A1
8123,Right,0,89,80,2106.0,0.989583,Quarter,F6_F5_D6_A#5
8128,Left,1,34,80,2106.5,0.489583,Eighth,A#1
8129,Left,1,33,80,2107.0,0.489583,Eighth,A1
8130,Right,0,91,80,2107.0,0.489583,Eighth,G6_F5_D6_A#5
8137,Left,1,34,80,2107.5,0.489583,Eighth,A#1
8134,Right,0,77,80,2107.5,0.489583,Eighth,F6_F5_D6_A#5
8139,Left,1,30,80,2108.0,0.489583,Eighth,F#1
8140,Right,0,89,80,2108.0,0.989583,Quarter,F6_F5_D6_A#5
8144,Left,1,29,80,2108.5,0.489583,Eighth,F1
8148,Left,1,30,80,2109.0,0.489583,Eighth,F#1
8145,Right,0,77,80,2109.0,0.989583,Quarter,F5_D6_D5_A#5
8150,Left,1,29,80,2109.5,0.489583,Eighth,F1
8151,Left,1,34,110,2110.0,1.989583,Half,F#2_A#1
8152,Right,0,65,110,2110.0,0.989583,Quarter,F5_F4_D5_A#4
8157,Left,1,41,110,2110.5,0.489583,Eighth,F2
8158,Right,0,65,110,2111.0,0.989583,Quarter,F4_D5_D4_A#4
8159,Left,1,42,110,2111.0,0.489583,Eighth,F#2
8163,Left,1,41,110,2111.5,0.489583,Eighth,F2
8165,Right,0,89,80,2112.0,0.989583,Quarter,F6_D6
8164,Left,1,30,80,2112.0,0.489583,Eighth,F#1
8167,Left,1,29,80,2112.5,0.489583,Eighth,F1
8169,Right,0,86,80,2113.0,0.989583,Quarter,D6_A#5
8168,Left,1,30,80,2113.0,0.489583,Eighth,F#1
8171,Left,1,29,80,2113.5,0.489583,Eighth,F1
8173,Left,1,34,110,2114.0,1.989583,Half,F#2_A#1
8172,Right,0,77,110,2114.0,0.989583,Quarter,F5_D5
8176,Left,1,41,110,2114.5,0.489583,Eighth,F2
8178,Right,0,74,110,2115.0,0.989583,Quarter,D5_A#4
8177,Left,1,42,110,2115.0,0.489583,Eighth,F#2
8180,Left,1,41,110,2115.5,0.489583,Eighth,F2
8183,Left,1,30,80,2116.0,0.489583,Eighth,F#1
8181,Right,0,86,80,2116.0,0.989583,Quarter,D6_A#5
8184,Left,1,29,80,2116.5,0.489583,Eighth,F1
8187,Left,1,30,80,2117.0,0.489583,Eighth,F#1
8185,Right,0,77,80,2117.0,0.989583,Quarter,F5_A#5
8188,Left,1,29,80,2117.5,0.489583,Eighth,F1
8191,Right,0,70,110,2118.0,0.989583,Quarter,D5_A#4
8189,Left,1,42,110,2118.0,1.989583,Eighth,F#2_A#1
8193,Left,1,41,110,2118.5,0.489583,Eighth,F2
8196,Left,1,42,110,2119.0,0.489583,Eighth,F#2
8194,Right,0,65,110,2119.0,0.989583,Quarter,F4_A#4
8197,Left,1,41,110,2119.5,0.489583,Eighth,F2
8200,Left,1,30,80,2120.0,0.489583,Eighth,F#1
8198,Right,0,77,80,2120.0,0.989583,Quarter,F5_A#5
8201,Left,1,29,80,2120.5,0.489583,Eighth,F1
8204,Left,1,30,80,2121.0,0.489583,Eighth,F#1
8202,Right,0,77,80,2121.0,0.989583,Quarter,F5_D5
8205,Left,1,29,80,2121.5,0.489583,Eighth,F1
8207,Right,0,65,110,2122.0,0.989583,Quarter,F4_A#4
8206,Left,1,34,110,2122.0,1.989583,Half,F#2_A#1
8210,Left,1,41,110,2122.5,0.489583,Eighth,F2
8213,Left,1,42,110,2123.0,0.489583,Eighth,F#2
8211,Right,0,65,110,2123.0,0.989583,Quarter,F4_D4
8214,Left,1,41,110,2123.5,0.489583,Eighth,F2
8215,Right,0,75,80,2124.0,3.989583,Whole,D#5_A4
8217,Left,1,54,80,2124.0,3.989583,Eighth,F#3_A#2
8219,Left,1,53,80,2124.5,0.489583,Eighth,F3
8220,Left,1,54,80,2125.0,0.489583,Eighth,F#3
8221,Left,1,53,80,2125.5,0.489583,Eighth,F3
8222,Left,1,54,80,2126.0,0.489583,Eighth,F#3
8223,Left,1,53,80,2126.5,0.489583,Eighth,F3
8224,Left,1,54,80,2127.0,0.489583,Eighth,F#3
8225,Left,1,53,80,2127.5,0.489583,Eighth,F3
8226,Right,0,74,80,2128.0,0.989583,Quarter,F5_D5
8230,Left,1,30,80,2129.0,0.489583,Eighth,F#1
8228,Right,0,70,80,2129.0,0.989583,Quarter,D5_A#4
8231,Left,1,29,80,2129.5,0.489583,Eighth,F1
8234,Left,1,42,110,2130.0,1.989583,Eighth,F#2_A#1
8232,Right,0,62,110,2130.0,0.989583,Quarter,F4_D4
8236,Left,1,41,110,2130.5,0.489583,Eighth,F2
8237,Right,0,58,110,2131.0,0.989583,Quarter,D4_A#3
8239,Left,1,42,110,2131.0,0.489583,Eighth,F#2
8240,Left,1,41,110,2131.5,0.489583,Eighth,F2
8242,Right,0,74,80,2132.0,0.989583,Quarter,D5_A#4
8241,Left,1,30,80,2132.0,0.489583,Eighth,F#1
8244,Left,1,29,80,2132.5,0.489583,Eighth,F1
8246,Right,0,70,80,2133.0,0.989583,Quarter,F4_A#4
8245,Left,1,30,80,2133.0,0.489583,Eighth,F#1
8248,Left,1,29,80,2133.5,0.489583,Eighth,F1
8251,Right,0,62,110,2134.0,0.989583,Quarter,D4_A#3
8249,Left,1,42,110,2134.0,1.989583,Eighth,F#2_A#1
8253,Left,1,41,110,2134.5,0.489583,Eighth,F2
8254,Right,0,58,110,2135.0,0.989583,Quarter,F3_A#3
8256,Left,1,42,110,2135.0,0.489583,Eighth,F#2
8257,Left,1,41,110,2135.5,0.489583,Eighth,F2
8259,Right,0,70,80,2136.0,0.989583,Quarter,F4_A#4
8258,Left,1,30,80,2136.0,0.489583,Eighth,F#1
8261,Left,1,29,80,2136.5,0.489583,Eighth,F1
8264,Left,1,30,80,2137.0,0.489583,Eighth,F#1
8262,Right,0,65,80,2137.0,0.989583,Quarter,F4_D4
8265,Left,1,29,80,2137.5,0.489583,Eighth,F1
8266,Left,1,42,110,2138.0,1.989583,Eighth,F#2_A#1
8268,Right,0,58,110,2138.0,0.989583,Quarter,F3_A#3
8270,Left,1,41,110,2138.5,0.489583,Eighth,F2
8271,Right,0,50,110,2139.0,0.989583,Quarter,F3_D3
8273,Left,1,42,110,2139.0,0.489583,Eighth,F#2
8274,Left,1,41,110,2139.5,0.489583,Eighth,F2
8276,Right,0,57,80,2140.0,3.989583,Whole,D#4_A3
8275,Left,1,34,80,2140.0,3.989583,Whole,F#2_A#1
8279,Left,1,41,80,2140.5,0.489583,Eighth,F2
8280,Left,1,42,80,2141.0,0.489583,Eighth,F#2
8281,Left,1,41,80,2141.5,0.489583,Eighth,F2
8282,Left,1,42,80,2142.0,0.489583,Eighth,F#2
8283,Left,1,41,80,2142.5,0.489583,Eighth,F2
8284,Left,1,42,80,2143.0,0.489583,Eighth,F#2
8285,Left,1,41,80,2143.5,0.489583,Eighth,F2
8286,Left,1,45,80,2144.0,0.489583,Eighth,A2
8287,Left,1,46,80,2144.5,0.489583,Eighth,A#2
8288,Left,1,45,80,2145.0,0.489583,Eighth,A2
8289,Right,0,66,80,2145.5,0.489583,Eighth,F#4_D#4_A3
8292,Left,1,46,80,2145.5,0.489583,Eighth,A#2
8296,Left,1,45,79,2146.0,0.489583,Eighth,A2
8293,Right,0,66,79,2146.0,0.989583,Quarter,F#4_D#4_A3
8297,Left,1,46,79,2146.5,0.489583,Eighth,A#2
8300,Left,1,45,79,2147.0,0.489583,Eighth,A2
8298,Right,0,58,79,2147.0,0.989583,Quarter,F4_D4_A#3
8302,Left,1,46,79,2147.5,0.489583,Eighth,A#2
8303,Left,1,42,78,2148.0,3.989583,Eighth,F#2_A#1
8305,Left,1,41,78,2148.5,0.489583,Eighth,F2
8306,Left,1,42,78,2149.0,0.489583,Eighth,F#2
8311,Left,1,41,78,2149.5,0.489583,Eighth,F2
8307,Right,0,63,78,2149.5,0.489583,Eighth,F#3_D#4_C4_A3
8316,Left,1,42,77,2150.0,0.489583,Eighth,F#2
8312,Right,0,54,77,2150.0,0.989583,Quarter,F#3_D#4_C4_A3
8317,Left,1,41,77,2150.5,0.489583,Eighth,F2
8319,Left,1,42,77,2151.0,0.489583,Eighth,F#2
8318,Right,0,53,77,2151.0,0.989583,Quarter,F3_D4_A#3
8322,Left,1,41,77,2151.5,0.489583,Eighth,F2
8323,Left,1,33,76,2152.0,0.489583,Eighth,A1
8324,Left,1,34,76,2152.5,0.489583,Eighth,A#1
8325,Left,1,33,76,2153.0,0.489583,Eighth,A1
8330,Left,1,34,76,2153.5,0.489583,Eighth,A#1
8326,Right,0,63,76,2153.5,0.489583,Eighth,F#3_D#4_C4_A3
8335,Left,1,33,75,2154.0,0.489583,Eighth,A1
8331,Right,0,60,75,2154.0,0.989583,Quarter,F#3_D#4_C4_A3
8336,Left,1,34,75,2154.5,0.489583,Eighth,A#1
8338,Right,0,58,75,2155.0,0.989583,Quarter,F3_D4_A#3
8337,Left,1,33,75,2155.0,0.489583,Eighth,A1
8341,Left,1,34,75,2155.5,0.489583,Eighth,A#1
8342,Left,1,30,74,2156.0,0.489583,Eighth,F#1
8343,Left,1,29,74,2156.5,0.489583,Eighth,F1
8344,Left,1,30,74,2157.0,0.489583,Eighth,F#1
8346,Right,0,60,74,2157.5,0.489583,Eighth,F#3_D#3_C4_A3
8345,Left,1,29,74,2157.5,0.489583,Eighth,F1
8354,Left,1,30,73,2158.0,0.489583,Eighth,F#1
8350,Right,0,60,73,2158.0,0.989583,Quarter,F#3_D#3_C4_A3
8355,Left,1,29,73,2158.5,0.489583,Eighth,F1
8356,Right,0,50,73,2159.0,0.989583,Quarter,F3_D3_A#3
8359,Left,1,34,73,2159.0,0.489583,Eighth,F2_A#1
8361,Left,1,29,73,2159.5,0.489583,Eighth,F1
8362,Left,1,34,70,2160.0,0.489583,Eighth,F2_A#1
8364,Left,1,29,69,2160.5,0.489583,Eighth,F1
8365,Left,1,34,68,2161.0,0.489583,Eighth,F2_A#1
8370,Left,1,29,66,2161.5,0.489583,Eighth,F1
8367,Right,0,62,66,2161.5,0.489583,Eighth,F3_D4_D3_A#3
8372,Left,1,34,65,2162.0,0.489583,Eighth,F2_A#1
8373,Right,0,53,65,2162.0,0.989583,Quarter,F3_D4_D3_A#3
8378,Left,1,29,63,2162.5,0.489583,Eighth,F1
8379,Left,1,34,62,2163.0,0.489583,Eighth,F2_A#1
8380,Right,0,58,62,2163.0,0.989583,Quarter,F3_D3_A#3
8384,Left,1,29,61,2163.5,0.489583,Eighth,F1
8385,Left,1,41,60,2164.0,0.489583,Eighth,F2
8386,Left,1,34,60,2164.5,0.489583,Eighth,A#1
8387,Right,0,62,60,2165.0,4.989583,Unknown,F3_D4_D3_A#3
8388,Left,1,41,60,2165.0,0.489583,Eighth,F2
8392,Left,1,34,60,2165.5,0.489583,Eighth,A#1
8393,Left,1,41,60,2166.0,0.489583,Eighth,F2
8394,Left,1,34,60,2166.5,0.489583,Eighth,A#1
8395,Left,1,46,60,2167.0,0.489583,Eighth,F2_A#2
8397,Left,1,34,67,2167.5,0.489583,Eighth,A#1
8398,Left,1,41,75,2168.0,0.489583,Eighth,F2_A#2
8400,Left,1,34,83,2168.5,0.489583,Eighth,A#1
8401,Left,1,41,91,2169.0,0.489583,Eighth,F2_A#2
8403,Left,1,34,99,2169.5,0.489583,Eighth,A#1
8405,Left,1,50,120,2170.0,1.989583,Half,F3_D3_A#3_A#2
8404,Right,0,70,120,2170.0,1.989583,Half,F5_D5_A#5_A#4
8414,Left,1,46,120,2172.0,3.989583,Whole,A#2_A#1
8412,Right,0,58,120,2172.0,3.989583,Whole,A#4_A#3
