,hand,channel,note,velocity,start_beat,duration,note_value,chord
1,Left,1,50,1,0.0,0.989583,DottedEighth,D4_D3_A#3
0,Right,0,74,80,0.0,0.739583,DottedEighth,D5
4,Left,1,60,80,0.75,0.239583,Sixteenth,F3_C4
5,Right,0,69,80,0.75,0.239583,Sixteenth,F5_A4
8,Left,1,57,80,1.0,0.989583,Quarter,C4_A3
10,Right,0,77,80,1.0,0.989583,Quarter,F5_A4
12,Left,1,62,80,2.0,0.489583,Eighth,D4_A#3
14,Right,0,74,80,2.0,0.489583,Eighth,F4_D5
16,Right,0,70,80,3.0,0.739583,DottedEighth,A#4
17,Left,1,55,80,3.0,0.739583,DottedEighth,G3
18,Left,1,58,80,3.0625,0.739583,DottedEighth,A#3
19,Left,1,57,80,3.75,0.239583,Sixteenth,D3_A3
21,Right,0,74,80,3.75,0.239583,Sixteenth,F#4_D5
23,Right,0,74,80,4.0,0.989583,Quarter,D5_A4
24,Left,1,57,80,4.0,0.989583,Quarter,F#3_A3
27,Right,0,62,80,5.0,0.489583,Eighth,D4_A#4
29,Left,1,55,80,5.0,0.489583,Eighth,G3_A#3
31,Right,0,67,80,6.0625,0.739583,DottedEighth,G4
32,Left,1,51,80,6.0625,0.739583,DottedEighth,D#3
33,Left,1,55,80,6.125,0.739583,DottedEighth,G3
34,Left,1,53,80,6.75,0.239583,Sixteenth,F3_A#2
35,Right,0,70,80,6.75,0.239583,Sixteenth,D4_A#4
38,Left,1,50,80,7.0,0.989583,Quarter,F3_D3
39,Right,0,70,80,7.0,0.989583,Quarter,F4_A#4
43,Left,1,55,80,8.0,0.489583,Eighth,G3_D#3
42,Right,0,67,80,8.0,0.489583,Eighth,G4_A#3
46,Right,0,67,80,9.0,0.739583,DottedEighth,G4_A#3
48,Left,1,55,80,9.0625,0.739583,DottedEighth,G3_D#3
50,Right,0,63,80,9.75,0.239583,Sixteenth,D#4_A4
51,Left,1,48,80,9.75,0.239583,Sixteenth,F3_C3
56,Right,0,69,80,10.0,0.989583,Quarter,D#4_A4
54,Left,1,48,80,10.0,0.989583,Quarter,F3_C3
60,Left,1,50,80,11.0,0.489583,Eighth,F3_D3
58,Right,0,70,80,11.0,0.489583,Eighth,A#4_A#3
63,Left,1,50,80,12.0,0.989583,DottedEighth,F3_D3
62,Right,0,65,80,12.0,0.989583,Quarter,F4_A#4
66,Right,0,72,80,12.75,0.239583,Sixteenth,C5
67,Left,1,45,80,12.75,0.239583,Sixteenth,A2
68,Right,0,65,80,13.0,0.989583,Quarter,F4_C5
69,Left,1,53,80,13.0,0.989583,Quarter,F3_A2
72,Left,1,53,80,14.0,0.489583,Eighth,G#2_F3
73,Right,0,65,80,14.0,0.489583,Eighth,F4_D5_A#4
79,Right,0,70,80,15.0,0.989583,Quarter,D5_A#4
77,Left,1,53,80,15.0,0.739583,DottedEighth,G#2_F3
83,Right,0,75,91,15.75,0.239583,Sixteenth,D#5
81,Left,1,51,91,15.75,0.239583,Sixteenth,G2_D#3
84,Right,0,70,95,16.0,0.989583,Quarter,D#5_A#4
86,Left,1,43,95,16.0,0.989583,Quarter,G2_D#3
89,Left,1,41,110,17.0,0.489583,Eighth,F2_C#3
88,Right,0,70,110,17.0,0.489583,Eighth,F5_F4_C#5_A#4
95,Right,0,79,110,18.0,0.489583,Eighth,G5_G4_C5_A#4
94,Left,1,48,110,18.0,0.489583,Eighth,E2_C3
101,Right,0,69,110,19.0,0.489583,Eighth,C5_C4_A4
100,Left,1,53,110,19.0,0.489583,Eighth,F3_F2
106,Left,1,70,80,21.0,0.739583,DottedEighth,D5_A#4
105,Right,0,86,80,21.0,0.739583,DottedEighth,D6
108,Right,0,81,80,21.75,0.239583,Sixteenth,F6_A5
110,Left,1,65,80,21.75,0.239583,Sixteenth,F4_C5
113,Left,1,72,80,22.0,0.989583,Quarter,C5_A4
112,Right,0,89,80,22.0,0.989583,Quarter,F6_A5
117,Left,1,74,80,23.0,0.489583,Eighth,D5_A#4
116,Right,0,86,80,23.0,0.489583,Eighth,F5_D6
121,Left,1,67,80,24.0,0.739583,DottedEighth,G4
120,Right,0,82,80,24.0,0.739583,DottedEighth,A#5
122,Left,1,70,80,24.0625,0.739583,DottedEighth,A#4
125,Left,1,62,80,24.75,0.239583,Sixteenth,D4_A4
123,Right,0,78,80,24.75,0.239583,Sixteenth,F#5_D6
127,Right,0,81,80,25.0,0.989583,Quarter,D6_A5
129,Left,1,66,80,25.0,0.989583,Quarter,F#4_A4
131,Right,0,74,80,26.0,0.489583,Eighth,D5_A#5
132,Left,1,67,80,26.0,0.489583,Eighth,G4_A#4
135,Right,0,79,80,27.0625,0.739583,DottedEighth,G5
136,Left,1,63,80,27.0625,0.739583,DottedEighth,D#4
137,Left,1,67,80,27.125,0.739583,DottedEighth,G4
139,Right,0,74,80,27.75,0.239583,Sixteenth,D5_A#5
138,Left,1,58,80,27.75,0.239583,Sixteenth,F4_A#3
142,Right,0,82,80,28.0,0.989583,Quarter,F5_A#5
144,Left,1,62,80,28.0,0.989583,Quarter,F4_D4
148,Right,0,70,80,29.0,0.489583,Eighth,G5_A#4
146,Left,1,63,80,29.0,0.489583,Eighth,G4_D#4
150,Right,0,79,80,30.0,0.739583,DottedEighth,G5_A#4
152,Left,1,63,80,30.0625,0.739583,DottedEighth,G4_D#4
156,Right,0,75,80,30.75,0.239583,Sixteenth,D#5_A5
154,Left,1,65,80,30.75,0.239583,Sixteenth,F4_C4
159,Right,0,75,80,31.0,0.989583,Quarter,D#5_A5
158,Left,1,60,80,31.0,0.989583,Quarter,F4_C4
164,Left,1,65,80,32.0,0.489583,Eighth,F4_D4
162,Right,0,70,80,32.0,0.489583,Eighth,A#5_A#4
166,Right,0,77,80,33.0,0.989583,Quarter,F5_A#5
168,Left,1,74,80,33.0625,0.739583,DottedEighth,D5
169,Left,1,69,84,33.75,0.239583,Sixteenth,C5_A4
171,Right,0,84,84,33.75,0.239583,Sixteenth,C6
172,Left,1,69,86,34.0,0.989583,Quarter,C5_A4
173,Right,0,77,86,34.0,0.989583,Quarter,F5_C6
176,Left,1,70,92,35.0,0.489583,Eighth,G#4_A#4
178,Right,0,77,92,35.0,0.489583,Eighth,F5_D6
181,Left,1,70,98,36.0,0.989583,Quarter,G4_A#4
180,Right,0,87,98,36.0,0.989583,DottedEighth,D#6_A#5
185,Left,1,66,103,36.75,0.239583,Sixteenth,F#4
184,Right,0,88,103,36.75,0.239583,Sixteenth,E6
187,Right,0,82,104,37.0,0.989583,Quarter,E6_A#5
186,Left,1,66,104,37.0,0.989583,Quarter,F#4_A#4
192,Right,0,77,110,38.0,0.489583,Eighth,F6_F5_A5
190,Left,1,72,110,38.0,0.489583,Eighth,F4_C5
197,Right,0,79,110,39.0,0.489583,Eighth,G6_G5_E6_A#5
195,Left,1,48,110,39.0,0.489583,Eighth,C4_C3
201,Right,0,89,110,40.0,0.489583,Eighth,F6_F5_A5
202,Left,1,65,110,40.0,0.489583,Eighth,F4_F3
206,Right,0,74,80,42.0,0.739583,DottedEighth,D5_B4
208,Left,1,65,80,42.0,2.989583,DottedHalf,F4_F3
210,Right,0,74,80,42.75,0.239583,Sixteenth,F5_D5
212,Right,0,74,80,43.0,0.989583,Quarter,F5_D5
214,Right,0,74,80,44.0,0.489583,Eighth,D5_B4
216,Right,0,71,80,45.0,0.739583,DottedEighth,D5_B4
218,Left,1,53,80,45.0,2.989583,DottedHalf,F3_F2
220,Right,0,79,80,45.75,0.239583,Sixteenth,G5_D#5
222,Right,0,79,80,46.0,0.989583,Quarter,G5_D#5
224,Right,0,75,80,47.0,0.489583,Eighth,D#5_C5
226,Left,1,53,80,48.0,2.989583,DottedHalf,F3_F2
228,Right,0,69,80,48.0,0.739583,DottedEighth,C5_A4
230,Right,0,75,80,48.75,0.239583,Sixteenth,D#5_C5
232,Right,0,75,80,49.0,0.989583,Quarter,D#5_C5
234,Right,0,72,80,50.0,0.489583,Eighth,C5_A4
236,Left,1,29,80,51.0,2.989583,DottedHalf,F2_F1
238,Right,0,69,80,51.0,0.739583,DottedEighth,C5_A4
240,Right,0,73,80,51.75,0.239583,Sixteenth,F5_C#5
242,Right,0,74,80,52.0,0.989583,Quarter,F5_D5
244,Right,0,74,80,53.0,0.489583,Eighth,D5_A#4
248,Left,1,30,80,54.0,1.989583,Half,F#2_F#1
246,Right,0,60,80,54.0,0.739583,DottedEighth,C4_A3
250,Right,0,60,80,54.75,0.239583,Sixteenth,D#4_C4
252,Right,0,60,80,55.0,1.989583,Half,D#4_C4
254,Left,1,43,80,56.0,2.010417,Half,G2_G1
256,Right,0,58,80,57.0,0.989583,Quarter,D4_A#3
258,Right,0,60,79,58.0,0.989583,Quarter,C4_A3
260,Left,1,45,79,58.0,0.989583,Quarter,A2_A1
264,Left,1,46,77,59.0,0.989583,Quarter,A#2_A#1
262,Right,0,58,77,59.0,0.989583,Quarter,G3_A#3
267,Right,0,57,75,60.0,1.989583,Half,F3_A3
266,Left,1,35,75,60.0,0.989583,Quarter,B2_B1
270,Left,1,36,73,61.0,1.989583,Half,C3_C2
272,Right,0,52,71,62.0,0.989583,Quarter,G3_E3
274,Right,0,51,70,63.0,2.989583,Half,G3_D#3_C4
277,Left,1,36,70,63.0,0.989583,Quarter,C2
278,Left,1,43,70,64.0,1.989583,Half,G2
279,Right,0,50,70,65.0,0.989583,Quarter,D3_B3
281,Right,0,59,70,69.0,0.739583,DottedEighth,B3
282,Right,0,62,70,69.75,0.239583,Sixteenth,D4
283,Right,0,62,70,70.0,0.989583,Quarter,D4
284,Right,0,59,70,71.0,0.489583,Eighth,B3
286,Left,1,55,70,72.0,2.489583,Half,G3_G2
285,Right,0,62,70,72.0,2.489583,Half,D4_B4
289,Left,1,47,70,72.75,0.239583,Sixteenth,B2
290,Right,0,74,70,72.75,0.239583,Sixteenth,D5
291,Left,1,47,70,73.0,0.989583,Quarter,B2
292,Right,0,74,70,73.0,0.989583,Quarter,D5
294,Left,1,43,70,74.0,0.489583,Eighth,G2
293,Right,0,71,70,74.0,0.489583,Eighth,B4
295,Right,0,84,70,75.0,0.739583,DottedEighth,C6
296,Left,1,72,70,75.0,0.739583,DottedEighth,C5
298,Left,1,75,70,75.75,0.239583,Sixteenth,D#5
297,Right,0,87,70,75.75,0.239583,Sixteenth,D#6
299,Right,0,87,70,76.0,0.989583,Quarter,D#6
300,Left,1,75,70,76.0,0.989583,Quarter,D#5
302,Left,1,72,70,77.0,0.489583,Eighth,C5
301,Right,0,84,70,77.0,0.489583,Eighth,C6
305,Left,1,55,70,78.0,2.989583,DottedHalf,G3_G2
303,Right,0,62,70,78.0,0.739583,DottedEighth,D4_B4
307,Right,0,65,76,78.75,0.239583,Sixteenth,F4_D5
309,Right,0,65,78,79.0,0.989583,Quarter,F4_D5
311,Right,0,62,86,80.0,0.489583,Eighth,D4_B4
313,Right,0,62,94,81.0,0.739583,DottedEighth,D4_B4
315,Left,1,36,94,81.0,2.989583,DottedHalf,C3_C2
317,Right,0,67,100,81.75,0.239583,Sixteenth,G4_D#5
319,Right,0,75,102,82.0,0.989583,Quarter,G4_D#5
321,Right,0,72,110,83.0,0.489583,Eighth,D#4_C5
323,Left,1,29,110,84.0,2.989583,DottedHalf,F1
324,Right,0,69,110,84.0,0.739583,DottedEighth,C5_A4
326,Right,0,72,110,84.75,0.239583,Sixteenth,C5_A5
328,Right,0,81,110,85.0,0.989583,Quarter,C5_A5
332,Right,0,69,110,86.0,0.489583,Eighth,F5_A4
330,Left,1,41,110,86.0,0.489583,Eighth,F3_F2
336,Left,1,46,110,87.0,0.489583,Eighth,A#2_A#1
334,Right,0,70,110,87.0,0.489583,Eighth,A#5_A#4
338,Right,0,82,110,88.0,0.489583,Eighth,A#5_A#4
339,Left,1,34,110,88.0,0.489583,Eighth,A#2_A#1
343,Right,0,83,80,90.0,0.739583,DottedEighth,D6_B5
342,Left,1,65,80,90.0,2.989583,DottedHalf,F5_F4
346,Right,0,89,80,90.75,0.239583,Sixteenth,F6_D6
348,Right,0,89,80,91.0,0.989583,Quarter,F6_D6
350,Right,0,86,80,92.0,0.489583,Eighth,D6_B5
352,Right,0,83,80,93.0,0.739583,DottedEighth,D6_B5
354,Left,1,65,80,93.0,2.989583,DottedHalf,F4_F3
356,Right,0,91,80,93.75,0.239583,Sixteenth,G6_D#6
358,Right,0,91,80,94.0,0.989583,Quarter,G6_D#6
360,Right,0,87,80,95.0,0.489583,Eighth,D#6_C6
362,Right,0,81,80,96.0,0.739583,DottedEighth,C6_A5
364,Left,1,53,80,96.0,2.989583,DottedHalf,F4_F3
366,Right,0,87,80,96.75,0.239583,Sixteenth,D#6_C6
368,Right,0,84,80,97.0,0.989583,Quarter,D#6_C6
370,Right,0,84,80,98.0,0.489583,Eighth,C6_A5
372,Right,0,84,80,99.0,0.739583,DottedEighth,C6_A5
374,Left,1,53,80,99.0,2.989583,DottedHalf,F3_F2
376,Right,0,89,80,99.75,0.239583,Sixteenth,F6_C#6
378,Right,0,89,80,100.0,0.989583,Quarter,F6_D6
380,Right,0,86,80,101.0,0.489583,Eighth,D6_A#5
382,Left,1,42,80,102.0,1.989583,Half,F#3_F#2
384,Right,0,69,80,102.0,0.739583,DottedEighth,C5_A4
386,Right,0,72,80,102.75,0.239583,Sixteenth,D#5_C5
388,Right,0,72,80,103.0,1.989583,Half,D#5_C5
390,Left,1,63,80,104.0,0.989583,Quarter,F#3_D#4_C4
394,Right,0,74,80,105.0,0.989583,Quarter,D5_A#4
393,Left,1,62,80,105.0,0.989583,Quarter,G3_D4_A#3
398,Left,1,60,79,106.0,0.989583,Quarter,C4_A3
399,Right,0,72,79,106.0,0.989583,Quarter,C5_A4
404,Right,0,67,77,107.0,0.989583,Quarter,G4_A#4
402,Left,1,58,77,107.0,0.989583,Quarter,G3_A#3
406,Right,0,65,75,108.0,1.989583,Half,F4_A4
408,Left,1,53,75,108.0,1.989583,Half,F3_B2_A3
411,Left,1,48,73,109.0,1.989583,Half,C3
414,Right,0,67,71,110.0,0.989583,Quarter,G4_E4
412,Left,1,52,71,110.0,0.989583,Quarter,G3_E3
416,Left,1,55,70,111.0,2.989583,Quarter,G3_D#3_C4_C3
420,Right,0,63,70,111.0,2.989583,Half,G4_D#4_C5
424,Right,0,71,70,113.0,0.989583,Quarter,D4_B4
423,Left,1,59,70,113.0,0.989583,Quarter,B3
426,Right,0,71,70,117.0,0.739583,DottedEighth,B4
427,Right,0,74,70,117.75,0.239583,Sixteenth,D5
428,Right,0,74,70,118.0,0.989583,Quarter,D5
429,Right,0,71,70,119.0,0.489583,Eighth,B4
430,Left,1,67,70,120.0,2.489583,Half,G4_G3
431,Right,0,83,70,120.0,2.489583,DottedEighth,D5_B5
435,Left,1,59,70,120.75,0.239583,Sixteenth,B3
434,Right,0,86,70,120.75,0.239583,Sixteenth,D6
437,Left,1,59,70,121.0,0.989583,Quarter,B3
436,Right,0,86,70,121.0,0.989583,Quarter,D6
439,Left,1,55,70,122.0,0.489583,Eighth,G3
438,Right,0,83,70,122.0,0.489583,Eighth,B5
440,Left,1,60,70,123.0,0.739583,DottedEighth,C4
441,Right,0,72,70,123.0,0.739583,DottedEighth,C5
443,Right,0,75,70,123.75,0.239583,Sixteenth,D#5
442,Left,1,63,70,123.75,0.239583,Sixteenth,D#4
445,Left,1,63,70,124.0,0.989583,Quarter,D#4
444,Right,0,75,70,124.0,0.989583,Quarter,D#5
447,Right,0,72,70,125.0,0.489583,Eighth,C5
446,Left,1,60,70,125.0,0.489583,Eighth,C4
450,Right,0,83,70,126.0,0.739583,DottedEighth,D5_B5
448,Left,1,55,70,126.0,2.989583,DottedHalf,G4_G3
452,Right,0,86,76,126.75,0.239583,Sixteenth,F5_D6
454,Right,0,77,78,127.0,0.989583,Quarter,F5_D6
456,Right,0,83,86,128.0,0.489583,Eighth,D5_B5
460,Left,1,48,94,129.0,2.989583,DottedHalf,C4_C3
458,Right,0,74,94,129.0,0.739583,DottedEighth,D5_B5
462,Right,0,87,100,129.75,0.239583,Sixteenth,G5_D#6
464,Right,0,87,102,130.0,0.989583,Quarter,G5_D#6
466,Right,0,75,110,131.0,0.489583,Eighth,D#5_C6
469,Right,0,81,110,132.0,0.739583,DottedEighth,C6_A5
468,Left,1,41,110,132.0,2.989583,DottedHalf,F3_F2
472,Right,0,93,110,132.75,0.239583,Sixteenth,C6_A6
474,Right,0,93,110,133.0,0.989583,Quarter,C6_A6
476,Right,0,89,110,134.0,0.489583,Eighth,F6_A5
478,Right,0,82,110,135.0,0.489583,Eighth,A#6_A#5
480,Left,1,34,110,135.0,0.489583,Eighth,A#2_A#1
484,Right,0,82,110,136.0,0.489583,Eighth,A#6_A#5
482,Left,1,34,110,136.0,0.489583,Eighth,A#2_A#1
488,Right,0,85,80,138.0,1.989583,Half,C#6_C#5
486,Left,1,46,80,138.0,0.489583,Eighth,A#2_A#1
490,Left,1,46,80,139.0,0.489583,Eighth,A#2_A#1
492,Right,0,89,80,140.0,0.989583,Quarter,F6_F5
495,Right,0,73,80,141.0,1.989583,Half,C#6_C#5
494,Left,1,34,80,141.0,0.989583,Quarter,A#1
497,Left,1,41,80,141.333333,0.989583,Quarter,F2
498,Left,1,49,80,141.666667,0.989583,Quarter,C#3
499,Left,1,34,80,142.0,0.989583,Quarter,A#1
500,Left,1,41,80,142.333333,0.989583,Quarter,F2
501,Left,1,49,80,142.666667,0.989583,Quarter,C#3
502,Left,1,34,80,143.0,0.989583,Quarter,A#1
503,Right,0,82,80,143.0,0.989583,Quarter,A#5_A#4
505,Left,1,41,80,143.333333,0.989583,Quarter,F2
506,Left,1,49,80,143.666667,0.989583,Quarter,C#3
509,Left,1,34,80,144.0,0.989583,Quarter,A#1
507,Right,0,65,80,144.0,0.989583,Quarter,F5_F4
510,Left,1,41,80,144.333333,0.989583,Quarter,F2
511,Left,1,49,80,144.666667,0.989583,Quarter,C#3
512,Right,0,82,80,145.0,1.989583,Half,A#5_A#4
514,Left,1,34,80,145.0,0.989583,Quarter,A#1
515,Left,1,41,80,145.333333,0.989583,Quarter,F2
516,Left,1,49,80,145.666667,0.989583,Quarter,C#3
517,Left,1,34,80,146.0,0.989583,Quarter,A#1
518,Left,1,41,80,146.333333,0.989583,Quarter,F2
519,Left,1,49,80,146.666667,0.989583,Quarter,C#3
522,Left,1,34,80,147.0,0.989583,Quarter,A#1
520,Right,0,73,80,147.0,0.989583,Quarter,C#6_C#5
523,Left,1,41,80,147.333333,0.989583,Quarter,F2
524,Left,1,49,80,147.666667,0.989583,Quarter,C#3
526,Right,0,77,80,148.0,1.989583,Half,F6_F5
525,Left,1,34,80,148.0,0.989583,Quarter,A#1
528,Left,1,41,80,148.333333,0.989583,Quarter,F2
529,Left,1,49,80,148.666667,0.989583,Quarter,C#3
530,Left,1,34,80,149.0,0.989583,Quarter,A#1
531,Left,1,41,80,149.333333,0.989583,Quarter,F2
532,Left,1,49,80,149.666667,0.989583,Quarter,C#3
535,Left,1,34,80,150.0,0.989583,Quarter,A#1
533,Right,0,85,80,150.0,0.989583,Quarter,C#6_C#5
536,Left,1,41,80,150.333333,0.989583,Quarter,F2
537,Left,1,49,80,150.666667,0.989583,Quarter,C#3
540,Left,1,34,80,151.0,0.989583,Quarter,A#1
538,Right,0,82,80,151.0,1.989583,Half,A#5_A#4
541,Left,1,41,80,151.333333,0.989583,Quarter,F2
542,Left,1,49,80,151.666667,0.989583,Quarter,C#3
543,Left,1,34,80,152.0,0.989583,Quarter,A#1
544,Left,1,41,80,152.333333,0.989583,Quarter,F2
545,Left,1,49,80,152.666667,0.989583,Quarter,C#3
546,Left,1,34,80,153.0,0.989583,Quarter,A#1
547,Right,0,77,80,153.0,0.989583,Quarter,F5_F4
549,Left,1,41,80,153.333333,0.989583,Quarter,F2
550,Left,1,49,80,153.666667,0.989583,Quarter,C#3
551,Left,1,34,80,154.0,0.989583,Quarter,A#1
552,Right,0,82,80,154.0,1.989583,Half,A#5_A#4
554,Left,1,41,80,154.333333,0.989583,Quarter,F2
555,Left,1,49,80,154.666667,0.989583,Quarter,C#3
556,Left,1,34,80,155.0,0.989583,Quarter,A#1
557,Left,1,41,80,155.333333,0.989583,Quarter,F2
558,Left,1,49,80,155.666667,0.989583,Quarter,C#3
560,Right,0,73,80,156.0,0.989583,Quarter,C#6_C#5
559,Left,1,32,80,156.0,0.65625,DottedEighth,G#1
562,Left,1,41,80,156.333333,0.65625,DottedEighth,F2
563,Left,1,49,80,156.666667,0.322917,Triplet,C#3
564,Right,0,89,80,157.0,1.989583,Half,F6_F5
566,Left,1,32,80,158.0,0.322917,Triplet,G#1
567,Left,1,41,80,158.333333,0.322917,Triplet,F2
568,Left,1,49,80,158.666667,0.322917,Triplet,C#3
569,Right,0,92,80,159.0,0.989583,Quarter,G#6_G#5
571,Left,1,41,80,159.333333,0.322917,Triplet,F2
572,Left,1,49,80,159.666667,0.364583,DottedSixteenth,C#3
573,Left,1,37,80,160.0,0.322917,Triplet,C#2
574,Right,0,85,80,160.0,0.989583,Quarter,C#6_C#5
576,Left,1,41,80,160.333333,0.322917,Triplet,F2
577,Left,1,49,80,160.666667,0.28125,Sixteenth,C#3
578,Left,1,37,80,161.0,0.322917,Triplet,C#2
579,Left,1,41,80,161.333333,0.239583,Sixteenth,F2
580,Left,1,49,80,161.666667,0.322917,Triplet,C#3
583,Left,1,49,80,162.0,1.989583,Half,C#3_C#2
581,Right,0,82,80,162.0,0.489583,Eighth,A#5_A#4
585,Right,0,70,80,163.0,0.489583,Eighth,A#5_A#4
587,Left,1,41,80,164.0,0.989583,Quarter,F3_F2
591,Right,0,73,80,165.0,0.989583,Quarter,C#5
589,Left,1,37,80,165.0,1.989583,Half,C#3_C#2
592,Right,0,70,80,165.333333,0.989583,Quarter,A#4
593,Right,0,65,80,165.666667,0.989583,Quarter,F4
594,Right,0,73,80,166.0,0.989583,Quarter,C#5
595,Right,0,70,80,166.333333,0.989583,Quarter,A#4
596,Right,0,65,80,166.666667,0.989583,Quarter,F4
598,Right,0,77,80,167.0,0.989583,Quarter,F5
597,Left,1,46,80,167.0,0.989583,Quarter,A#2_A#1
600,Right,0,73,80,167.333333,0.65625,DottedEighth,C#5
601,Right,0,70,80,167.666667,0.65625,DottedEighth,A#4
602,Left,1,41,80,168.0,0.989583,Quarter,F2_F1
604,Right,0,73,80,168.0,0.989583,Quarter,C#5
605,Right,0,70,80,168.333333,0.989583,Quarter,A#4
606,Right,0,65,80,168.666667,0.989583,Quarter,F4
607,Left,1,46,80,169.0,1.989583,Half,A#2_A#1
609,Right,0,73,80,169.0,0.989583,Quarter,C#5
610,Right,0,70,80,169.333333,0.65625,DottedEighth,A#4
611,Right,0,65,80,169.666667,0.65625,DottedEighth,F4
612,Right,0,70,80,170.0,0.989583,Quarter,A#4
613,Right,0,65,80,170.333333,0.65625,DottedEighth,F4
614,Right,0,61,80,170.666667,0.65625,DottedEighth,C#4
616,Right,0,65,80,171.0,0.989583,Quarter,F4
615,Left,1,49,80,171.0,0.989583,Quarter,C#3_C#2
618,Right,0,61,80,171.333333,0.65625,DottedEighth,C#4
619,Right,0,58,80,171.666667,0.65625,DottedEighth,A#3
620,Left,1,53,80,172.0,1.989583,Half,F3_F2
621,Right,0,70,80,172.0,0.989583,Quarter,C#4_A#4
624,Right,0,58,80,172.333333,0.989583,Quarter,A#3
625,Right,0,61,80,172.666667,0.65625,DottedEighth,C#4
626,Right,0,70,80,173.0,0.989583,Quarter,A#4
627,Right,0,61,80,173.333333,0.989583,Quarter,C#4
628,Right,0,58,80,173.666667,0.322917,Triplet,A#3
629,Left,1,49,80,174.0,0.989583,Quarter,C#3_C#2
631,Right,0,65,80,174.0,0.989583,DottedEighth,F4_C#5
633,Right,0,61,80,174.333333,0.989583,Quarter,C#4
634,Right,0,65,80,174.666667,0.989583,Quarter,F4
635,Right,0,77,80,175.0,0.989583,Quarter,F5
636,Left,1,46,80,175.0,1.989583,Half,A#2_A#1
638,Right,0,73,80,175.333333,0.989583,Quarter,C#5
639,Right,0,70,80,175.666667,0.989583,Quarter,A#4
640,Right,0,77,80,176.0,0.989583,Quarter,F5
641,Right,0,73,80,176.333333,0.65625,DottedEighth,C#5
642,Right,0,70,80,176.666667,0.65625,DottedEighth,A#4
645,Right,0,73,80,177.0,0.989583,Quarter,C#5
643,Left,1,29,80,177.0,0.989583,Quarter,F2_F1
646,Right,0,70,80,177.333333,0.65625,DottedEighth,A#4
647,Right,0,65,80,177.666667,0.65625,DottedEighth,F4
648,Left,1,46,80,178.0,1.989583,Half,A#2_A#1
650,Right,0,70,80,178.0,0.989583,Quarter,A#4
651,Right,0,65,80,178.333333,0.989583,Quarter,F4
652,Right,0,61,80,178.666667,0.989583,Quarter,C#4
653,Right,0,70,80,179.0,0.989583,Quarter,A#4
654,Right,0,65,80,179.333333,0.65625,DottedEighth,F4
655,Right,0,61,80,179.666667,0.65625,DottedEighth,C#4
656,Left,1,37,80,180.0,0.989583,Quarter,C#3_C#2
658,Right,0,65,80,180.0,0.322917,Triplet,F4
659,Right,0,61,80,180.333333,0.322917,Triplet,C#4
660,Right,0,58,80,180.666667,0.322917,Triplet,A#3
661,Right,0,61,80,181.0,0.322917,Triplet,G#4_C#4
662,Left,1,41,80,181.0,1.989583,Half,F3_F2
665,Right,0,56,80,181.333333,0.322917,Triplet,G#3
666,Right,0,61,80,181.666667,0.322917,Triplet,C#4
667,Right,0,68,80,182.0,0.322917,Triplet,G#4
668,Right,0,65,80,182.333333,0.322917,Triplet,F4
669,Right,0,61,80,182.666667,0.322917,Triplet,C#4
672,Left,1,56,80,183.0,0.989583,Quarter,G#3_G#2
670,Right,0,65,80,183.0,0.322917,Triplet,F4_C#5
674,Right,0,61,80,183.333333,0.322917,Triplet,C#4
675,Right,0,65,80,183.666667,0.322917,Triplet,F4
678,Right,0,77,80,184.0,0.989583,Quarter,F5
676,Left,1,49,80,184.0,1.989583,Half,C#3_C#2
679,Right,0,73,80,184.333333,0.989583,Quarter,C#5
680,Right,0,68,80,184.666667,0.989583,Quarter,G#4
681,Right,0,77,80,185.0,0.989583,Quarter,F5
682,Right,0,73,80,185.333333,0.989583,Quarter,C#5
683,Right,0,68,80,185.666667,0.989583,Quarter,G#4
685,Left,1,49,80,186.0,0.989583,Quarter,C#3_C#2
684,Right,0,80,80,186.0,0.989583,Quarter,G#5
687,Right,0,77,80,186.333333,0.65625,DottedEighth,F5
688,Right,0,73,80,186.666667,0.322917,Triplet,C#5
689,Right,0,73,80,187.0,1.989583,Half,F4_C#5
690,Left,1,49,80,187.0,0.989583,Quarter,C#3_C#2
693,Left,1,37,80,188.0,0.989583,Quarter,C#2
694,Left,1,41,80,188.333333,0.989583,Quarter,F2
695,Left,1,49,80,188.666667,0.989583,Quarter,C#3
696,Right,0,77,80,189.0,1.989583,Half,F6_F5
698,Left,1,37,80,189.0,0.989583,Quarter,C#2
699,Left,1,41,80,189.333333,0.989583,Quarter,F2
700,Left,1,49,80,189.666667,0.989583,Quarter,C#3
701,Left,1,37,80,190.0,0.989583,Quarter,C#2
702,Left,1,41,80,190.333333,0.989583,Quarter,F2
703,Left,1,49,80,190.666667,0.989583,Quarter,C#3
705,Right,0,80,80,191.0,0.989583,Quarter,G#6_G#5
704,Left,1,37,80,191.0,0.989583,Quarter,C#2
707,Left,1,41,80,191.333333,0.989583,Quarter,F2
708,Left,1,49,80,191.666667,0.989583,Quarter,C#3
711,Left,1,37,80,192.0,0.989583,Quarter,C#2
709,Right,0,89,80,192.0,1.989583,Half,F6_F5
712,Left,1,41,80,192.333333,0.989583,Quarter,F2
713,Left,1,49,80,192.666667,0.989583,Quarter,C#3
714,Left,1,37,80,193.0,0.989583,Quarter,C#2
715,Left,1,41,80,193.333333,0.989583,Quarter,F2
716,Left,1,49,80,193.666667,0.989583,Quarter,C#3
717,Right,0,85,80,194.0,0.989583,Quarter,C#6_C#5
719,Left,1,37,80,194.0,0.989583,Quarter,C#2
720,Left,1,41,80,194.333333,0.989583,Quarter,F2
721,Left,1,49,80,194.666667,0.989583,Quarter,C#3
722,Right,0,80,80,195.0,0.989583,Quarter,G#5_G#4
724,Left,1,37,80,195.0,0.989583,Quarter,C#2
725,Left,1,41,80,195.333333,0.989583,Quarter,F2
726,Left,1,49,80,195.666667,0.989583,Quarter,C#3
727,Right,0,85,80,196.0,1.989583,Half,C#6_C#5
728,Left,1,37,80,196.0,0.989583,Quarter,C#2
730,Left,1,41,80,196.333333,0.989583,Quarter,F2
731,Left,1,49,80,196.666667,0.989583,Quarter,C#3
732,Left,1,37,80,197.0,0.989583,Quarter,C#2
733,Left,1,41,80,197.333333,0.989583,Quarter,F2
734,Left,1,49,80,197.666667,0.989583,Quarter,C#3
735,Right,0,89,80,198.0,0.989583,Quarter,F6_F5
736,Left,1,32,80,198.0,0.989583,Quarter,G#1
738,Left,1,41,80,198.333333,0.65625,DottedEighth,F2
739,Left,1,49,80,198.666667,0.322917,Triplet,C#3
741,Left,1,32,80,199.0,0.322917,Triplet,G#1
740,Right,0,92,80,199.0,1.989583,Half,G#6_G#5
743,Left,1,41,80,199.333333,0.322917,Triplet,F2
744,Left,1,49,80,199.666667,0.322917,Triplet,C#3
745,Left,1,32,80,200.0,0.322917,Triplet,G#1
746,Left,1,41,80,200.333333,0.322917,Triplet,F2
747,Left,1,49,80,200.666667,0.322917,Triplet,C#3
750,Left,1,32,80,201.0,0.322917,Triplet,G#1
748,Right,0,89,80,201.0,0.989583,Quarter,F6_F5
751,Left,1,41,80,201.333333,0.322917,Triplet,F2
752,Left,1,49,80,201.666667,0.322917,Triplet,C#3
753,Right,0,73,80,202.0,1.989583,Half,C#6_C#5
754,Left,1,34,80,202.0,0.989583,Quarter,A#1
756,Left,1,41,80,202.333333,0.989583,Quarter,F2
757,Left,1,49,80,202.666667,0.989583,Quarter,C#3
758,Left,1,34,80,203.0,0.989583,Quarter,A#1
759,Left,1,41,80,203.333333,0.989583,Quarter,F2
760,Left,1,49,80,203.666667,0.989583,Quarter,C#3
761,Right,0,82,80,204.0,0.989583,Quarter,A#5_A#4
763,Left,1,34,80,204.0,0.989583,Quarter,A#1
764,Left,1,41,80,204.333333,0.989583,Quarter,F2
765,Left,1,49,80,204.666667,0.989583,Quarter,C#3
767,Right,0,77,80,205.0,1.989583,Half,F5_F4
766,Left,1,34,80,205.0,0.989583,Quarter,A#1
769,Left,1,41,80,205.333333,0.989583,Quarter,F2
770,Left,1,49,80,205.666667,0.989583,Quarter,C#3
771,Left,1,34,80,206.0,0.989583,Quarter,A#1
772,Left,1,41,80,206.333333,0.989583,Quarter,F2
773,Left,1,49,80,206.666667,0.989583,Quarter,C#3
776,Left,1,34,80,207.0,0.989583,Quarter,A#1
774,Right,0,82,80,207.0,0.989583,Quarter,A#5_A#4
777,Left,1,41,80,207.333333,0.989583,Quarter,F2
778,Left,1,49,80,207.666667,0.989583,Quarter,C#3
781,Left,1,29,80,208.0,0.989583,Quarter,F1
779,Right,0,73,80,208.0,1.989583,Half,C#6_C#5
782,Left,1,41,80,208.333333,0.989583,Quarter,F2
783,Left,1,49,80,208.666667,0.989583,Quarter,C#3
784,Left,1,29,80,209.0,0.989583,Quarter,F1
785,Left,1,41,80,209.333333,0.989583,Quarter,F2
786,Left,1,49,80,209.666667,0.989583,Quarter,C#3
787,Right,0,77,80,210.0,0.989583,Quarter,F6_F5
789,Left,1,29,80,210.0,0.989583,Quarter,F1
790,Left,1,41,80,210.333333,0.989583,Quarter,F2
791,Left,1,49,80,210.666667,0.989583,Quarter,C#3
792,Right,0,82,80,211.0,1.989583,Half,A#5_A#4
793,Left,1,34,80,211.0,0.989583,Quarter,A#1
795,Left,1,41,80,211.333333,0.989583,Quarter,F2
796,Left,1,49,80,211.666667,0.989583,Quarter,C#3
797,Left,1,34,80,212.0,0.989583,Quarter,A#1
799,Right,0,61,80,213.0,0.489583,Eighth,C#5_C#4
798,Left,1,41,80,213.0,1.989583,Half,F3_F2
802,Right,0,61,80,214.0,0.489583,Eighth,C#5_C#4
806,Right,0,61,80,215.0,0.322917,Triplet,C#4
804,Left,1,44,80,215.0,0.989583,Quarter,G#3_G#2
807,Right,0,65,80,215.333333,0.635417,DottedEighth,F4
808,Right,0,73,80,215.666667,0.322917,Triplet,C#5
809,Right,0,77,80,216.0,0.989583,Quarter,F5
810,Left,1,41,80,216.0,1.989583,Half,F3_F2
812,Right,0,73,80,216.333333,0.635417,DottedEighth,C#5
813,Right,0,68,80,216.666667,0.322917,Triplet,G#4
814,Right,0,77,80,217.0,0.989583,Quarter,F5
815,Right,0,73,80,217.333333,0.635417,DottedEighth,C#5
816,Right,0,68,80,217.666667,0.322917,Triplet,G#4
818,Right,0,77,80,218.0,0.989583,Quarter,G#5_F5
817,Left,1,49,80,218.0,0.989583,Quarter,C#3_C#2
821,Right,0,73,80,218.333333,0.989583,Quarter,C#5
822,Right,0,68,80,218.666667,0.989583,Quarter,G#4
824,Right,0,77,80,219.0,0.989583,Quarter,F5
823,Left,1,32,80,219.0,0.989583,Quarter,G#2_G#1
826,Right,0,73,80,219.333333,0.989583,Quarter,C#5
827,Right,0,68,80,219.666667,0.989583,Quarter,G#4
828,Left,1,37,80,220.0,1.989583,Half,C#3_C#2
829,Right,0,77,80,220.0,0.989583,Quarter,F5
831,Right,0,73,80,220.333333,0.65625,DottedEighth,C#5
832,Right,0,68,80,220.666667,0.65625,DottedEighth,G#4
833,Right,0,73,80,221.0,0.989583,Quarter,C#5
834,Right,0,68,80,221.333333,0.65625,DottedEighth,G#4
835,Right,0,65,80,221.666667,0.989583,Quarter,F4
837,Left,1,53,80,222.0,0.989583,Quarter,F3_F2
836,Right,0,68,80,222.0,0.989583,Quarter,G#4_C#4
840,Right,0,56,80,222.333333,0.989583,Quarter,G#3
841,Right,0,61,80,222.666667,0.65625,DottedEighth,C#4
842,Left,1,44,80,223.0,1.989583,Half,G#3_G#2
843,Right,0,65,80,223.0,0.989583,Triplet,F4_C#5
846,Right,0,61,80,223.333333,0.989583,Quarter,C#4
847,Right,0,65,80,223.666667,0.989583,Quarter,F4
848,Right,0,73,80,224.0,0.989583,Quarter,C#5
849,Right,0,68,80,224.333333,0.989583,Quarter,G#4
850,Right,0,65,80,224.666667,0.989583,Quarter,F4
851,Left,1,41,80,225.0,0.989583,Quarter,F3_F2
853,Right,0,77,80,225.0,0.989583,Quarter,F5
854,Right,0,73,80,225.333333,0.989583,Quarter,C#5
855,Right,0,68,80,225.666667,0.989583,Quarter,G#4
856,Right,0,80,80,226.0,0.989583,Quarter,G#5
857,Left,1,49,80,226.0,1.989583,Half,C#3_C#2
859,Right,0,77,80,226.333333,0.65625,DottedEighth,F5
860,Right,0,73,80,226.666667,0.65625,DottedEighth,C#5
861,Right,0,77,80,227.0,0.65625,DottedEighth,F5
862,Right,0,73,80,227.333333,0.989583,Quarter,C#5
863,Right,0,77,80,227.666667,0.322917,Triplet,F5
864,Right,0,77,80,228.0,0.989583,Quarter,F5
865,Left,1,46,80,228.0,0.989583,Quarter,A#2_A#1
867,Right,0,65,80,228.666667,0.989583,Quarter,F4
868,Right,0,73,80,229.0,0.322917,Triplet,C#5
869,Left,1,29,80,229.0,1.989583,Half,F2_F1
871,Right,0,70,80,229.333333,0.989583,Quarter,A#4
872,Right,0,65,80,229.666667,0.989583,Quarter,F4
873,Right,0,73,80,230.0,0.989583,Quarter,C#5
874,Right,0,70,80,230.333333,0.65625,DottedEighth,A#4
875,Right,0,65,80,230.666667,0.65625,DottedEighth,F4
878,Right,0,70,80,231.0,0.989583,Quarter,A#4
876,Left,1,34,80,231.0,0.989583,Quarter,A#2_A#1
879,Right,0,65,80,231.333333,0.65625,DottedEighth,F4
880,Right,0,61,80,231.666667,0.65625,DottedEighth,C#4
882,Left,1,49,80,232.0,1.989583,Half,C#3_C#2
881,Right,0,65,80,232.0,0.989583,Quarter,F4
884,Right,0,61,80,232.333333,0.989583,Quarter,C#4
885,Right,0,58,80,232.666667,0.989583,Quarter,A#3
886,Right,0,65,80,233.0,0.989583,Quarter,F4
887,Right,0,61,80,233.333333,0.65625,DottedEighth,C#4
888,Right,0,58,80,233.666667,0.65625,DottedEighth,A#3
889,Right,0,61,80,234.0,0.989583,DottedEighth,C#4_A#4
890,Left,1,41,80,234.0,0.989583,Quarter,F3_F2
893,Right,0,58,80,234.333333,0.989583,Quarter,A#3
894,Right,0,61,80,234.666667,0.989583,Quarter,C#4
895,Right,0,73,80,235.0,0.989583,Quarter,C#5
896,Left,1,34,80,235.0,2.989583,DottedHalf,A#2_A#1
898,Right,0,70,80,235.333333,0.989583,Quarter,A#4
899,Right,0,65,80,235.666667,0.989583,Quarter,F4
900,Right,0,73,80,236.0,0.989583,Quarter,C#5
901,Right,0,70,80,236.333333,0.989583,Quarter,A#4
902,Right,0,65,80,236.666667,0.989583,Quarter,F4
903,Right,0,77,80,237.0,0.989583,Quarter,F5
904,Right,0,73,80,237.333333,0.989583,Quarter,C#5
905,Right,0,65,80,237.666667,0.989583,Quarter,F4
907,Left,1,61,80,238.0,0.989583,Quarter,C#4
906,Right,0,70,80,238.0,2.989583,DottedHalf,A#4
908,Left,1,58,80,238.333333,0.989583,Quarter,A#3
909,Left,1,53,80,238.666667,0.989583,Quarter,F3
910,Left,1,61,80,239.0,0.989583,Quarter,C#4
911,Left,1,58,80,239.333333,0.989583,Quarter,A#3
912,Left,1,53,80,239.666667,0.989583,Quarter,F3
913,Left,1,65,80,240.0,0.989583,Quarter,F4
914,Left,1,61,80,240.333333,0.65625,DottedEighth,C#4
915,Left,1,53,80,240.666667,0.322917,Triplet,F3
916,Left,1,58,80,241.0,0.489583,Eighth,A#3
917,Right,0,70,80,241.0,0.489583,Eighth,A#4
919,Right,0,73,80,242.0,0.489583,Eighth,C#5
918,Left,1,61,80,242.0,0.489583,Eighth,C#4
920,Right,0,72,80,243.0,0.489583,Eighth,C5
921,Left,1,60,80,243.0,0.489583,Eighth,C4
922,Right,0,65,80,244.0,0.489583,Eighth,F4
923,Left,1,53,80,244.0,0.489583,Eighth,F3
925,Left,1,65,80,245.0,0.489583,Eighth,F4
924,Right,0,77,80,245.0,0.489583,Eighth,F5
926,Left,1,63,80,246.0,0.489583,Eighth,D#4
927,Right,0,75,80,246.0,0.489583,Eighth,D#5
929,Left,1,61,80,247.0,0.489583,Eighth,C#4
928,Right,0,73,80,247.0,0.489583,Eighth,C#5
930,Left,1,60,80,248.0,0.489583,Eighth,C4
931,Right,0,72,80,248.0,0.489583,Eighth,C5
932,Left,1,58,80,249.0,0.489583,Eighth,A#3
933,Right,0,70,80,249.0,0.489583,Eighth,A#4
935,Left,1,61,80,250.0,0.489583,Eighth,C#4
934,Right,0,73,80,250.0,0.489583,Eighth,C#5
936,Right,0,72,80,251.0,0.489583,Eighth,C5
937,Left,1,60,80,251.0,0.489583,Eighth,C4
939,Left,1,56,80,252.0,0.489583,Eighth,G#3
938,Right,0,68,80,252.0,0.489583,Eighth,G#4
941,Left,1,60,80,253.0,0.489583,Eighth,C4
940,Right,0,72,80,253.0,0.489583,Eighth,C5
943,Right,0,67,80,254.0,0.489583,Eighth,G4
942,Left,1,55,80,254.0,0.489583,Eighth,G3
945,Right,0,65,80,255.0,1.989583,Half,F4
944,Left,1,53,80,255.0,1.989583,Half,F3
946,Left,1,41,80,257.0,0.489583,Eighth,F3_F2
948,Right,0,68,81,257.5,0.489583,Eighth,G#4_F4_C5
951,Left,1,48,82,258.0,0.489583,Eighth,G#3_C3
953,Right,0,72,83,258.5,0.489583,Eighth,G#4_F4_C5
956,Left,1,43,85,259.0,0.489583,Eighth,G3_G2
958,Right,0,72,86,259.5,0.489583,Eighth,E4_C5_A#4
961,Left,1,48,87,260.0,0.489583,Eighth,C3_C2
963,Right,0,70,89,260.5,0.489583,Eighth,G4_E4_C5_A#4
967,Left,1,48,90,261.0,0.489583,Eighth,C4_C3
969,Right,0,64,91,261.5,0.489583,Eighth,G4_E4_C5
972,Left,1,58,93,262.0,0.489583,Eighth,A#3_A#2
974,Right,0,64,94,262.5,0.489583,Eighth,G4_E4_C5
977,Left,1,56,95,263.0,0.489583,Eighth,G#3_G#2
979,Right,0,63,97,263.5,0.489583,Eighth,G#4_D#4_C5
982,Left,1,43,98,264.0,0.489583,Eighth,G3_G2
984,Right,0,72,99,264.5,0.489583,Eighth,E4_C5_A#4
987,Left,1,41,101,265.0,0.489583,Eighth,F3_F2
989,Right,0,65,102,265.5,0.489583,Eighth,G#4_F4_C5
992,Left,1,44,103,266.0,0.489583,Eighth,G#3_G#2
994,Right,0,65,105,266.5,0.489583,Eighth,G#4_F5_F4_C5
998,Left,1,43,106,267.0,0.489583,Eighth,G3_G2
1000,Right,0,65,107,267.5,0.489583,Eighth,F5_F4_C5_A#4
1004,Left,1,60,109,268.0,0.489583,Eighth,C4_C3
1006,Right,0,76,110,268.5,0.489583,Eighth,E5_E4_C5_A#4
1010,Left,1,45,111,269.0,0.489583,Eighth,A3_A2
1012,Right,0,77,113,269.5,0.489583,Eighth,F5_F4_C5
1015,Left,1,53,114,270.0,0.489583,Eighth,F3_F2
1017,Right,0,65,115,270.5,0.489583,Eighth,F4_D#5_C5
1020,Left,1,58,117,271.0,0.489583,Eighth,A#3_A#2
1022,Right,0,73,118,271.5,0.489583,Eighth,F4_C#5_A#4
1025,Left,1,48,119,272.0,0.489583,Eighth,C4_C3
1027,Right,0,72,120,272.5,0.489583,Eighth,D#4_C5_A4
1033,Left,1,49,120,273.0,0.489583,Eighth,C#3
1030,Right,0,82,120,273.0,0.489583,Eighth,F5_A#5_A#4
1034,Left,1,61,120,273.5,0.489583,Eighth,C#4
1036,Left,1,46,120,274.0,0.489583,Eighth,A#2
1035,Right,0,85,120,274.0,0.489583,Eighth,F5_C#6_C#5_A#5
1040,Left,1,58,120,274.5,0.489583,Eighth,A#3
1042,Right,0,77,120,275.0,0.489583,Eighth,F5_C6_C5_A5
1041,Left,1,41,120,275.0,0.489583,Eighth,F2
1046,Left,1,53,120,275.5,0.489583,Eighth,F3
1050,Left,1,39,120,276.0,0.489583,Eighth,D#2
1047,Right,0,69,120,276.0,0.489583,Eighth,F5_F4_C5_A4
1052,Left,1,51,120,276.5,0.489583,Eighth,D#3
1053,Right,0,77,120,277.0,0.489583,Eighth,F6_F5_A#5
1056,Left,1,37,120,277.0,0.489583,Eighth,C#2
1057,Left,1,49,120,277.5,0.489583,Eighth,C#3
1059,Right,0,75,120,278.0,0.489583,Eighth,F5_D#6_D#5_A5
1058,Left,1,36,120,278.0,0.489583,Eighth,C2
1063,Left,1,48,120,278.5,0.489583,Eighth,C3
1064,Right,0,73,120,279.0,0.489583,Eighth,F5_C#6_C#5_A#5
1067,Left,1,34,120,279.0,0.489583,Eighth,A#1
1069,Left,1,46,120,279.5,0.489583,Eighth,A#2
1071,Right,0,77,120,280.0,0.489583,Eighth,F5_C6_C5
1070,Left,1,33,120,280.0,0.489583,Eighth,A1
1074,Left,1,45,120,280.5,0.489583,Eighth,A2
1075,Left,1,34,120,281.0,0.489583,Eighth,A#1
1076,Right,0,82,120,281.0,0.489583,Eighth,F5_C#5_A#5_A#4
1080,Left,1,46,120,281.5,0.489583,Eighth,A#2
1082,Left,1,34,120,282.0,0.489583,Eighth,A#1
1081,Right,0,77,120,282.0,0.489583,Eighth,F5_C#6_C#5_A#5
1086,Left,1,46,120,282.5,0.489583,Eighth,A#2
1087,Left,1,33,120,283.0,0.489583,Eighth,A1
1088,Right,0,84,120,283.0,0.489583,Eighth,F5_C6_C5
1091,Left,1,45,120,283.5,0.489583,Eighth,A2
1093,Right,0,77,120,284.0,0.489583,Eighth,F5_F4_C5_A4
1092,Left,1,39,120,284.0,0.489583,Eighth,D#2
1097,Left,1,51,120,284.5,0.489583,Eighth,D#3
1099,Left,1,37,120,285.0,0.489583,Eighth,C#2
1098,Right,0,89,120,285.0,0.489583,Eighth,F6_F5
1101,Left,1,49,120,285.5,0.489583,Eighth,C#3
1105,Left,1,34,120,286.0,0.489583,Eighth,A#1
1102,Right,0,82,120,286.0,0.489583,Eighth,C#6_C#5_A#5
1106,Left,1,46,120,286.5,0.489583,Eighth,A#2
1107,Left,1,41,120,287.0,1.989583,Half,F3_F2
1108,Right,0,84,120,287.0,1.989583,Half,C6_C5_A5
1112,Right,0,77,120,289.0,0.489583,Eighth,F6_F5
1113,Left,1,61,120,289.0,0.489583,Eighth,C#4
1115,Left,1,73,120,289.5,0.489583,Eighth,C#5
1117,Right,0,82,120,290.0,0.489583,Eighth,C#6_A#5
1116,Left,1,58,120,290.0,0.489583,Eighth,A#3
1119,Left,1,70,120,290.5,0.489583,Eighth,A#4
1120,Right,0,81,120,291.0,1.989583,Half,C6_A5
1122,Left,1,77,120,292.0,0.989583,Quarter,F5
1123,Right,0,69,120,293.0,1.989583,Half,C5_A4
1125,Left,1,65,120,294.0,0.989583,Quarter,F4
1126,Right,0,57,120,295.0,1.989583,Half,C4_A3
1128,Left,1,53,120,296.0,0.989583,Quarter,F3
1129,Right,0,45,120,297.0,1.989583,Half,C3_A2
1131,Left,1,41,120,298.0,0.989583,Quarter,F2
1132,Right,0,36,120,299.0,5.989583,Unknown,C2_A1
1134,Left,1,29,120,300.0,4.989583,Unknown,F1
1135,Left,1,29,120,305.0,0.65625,DottedEighth,F1
1136,Left,1,31,120,305.333333,0.65625,DottedEighth,G1
1137,Left,1,33,120,305.666667,0.65625,DottedEighth,A1
1138,Left,1,34,120,306.0,0.489583,Eighth,A#1
1139,Left,1,36,120,306.25,0.489583,Eighth,C2
1140,Left,1,38,120,306.5,0.489583,Eighth,D2
1141,Left,1,40,120,306.75,0.489583,Eighth,E2
1142,Right,0,41,120,307.0,0.65625,DottedEighth,F2
1143,Right,0,43,120,307.333333,0.65625,DottedEighth,G2
1144,Right,0,45,120,307.666667,0.65625,DottedEighth,A2
1145,Right,0,46,120,308.0,0.489583,Eighth,A#2
1146,Right,0,48,120,308.25,0.489583,Eighth,C3
1147,Right,0,50,120,308.5,0.489583,Eighth,D3
1148,Right,0,52,120,308.75,0.489583,Eighth,E3
1149,Left,1,53,120,309.0,0.65625,DottedEighth,F3
1150,Left,1,55,120,309.333333,0.65625,DottedEighth,G3
1151,Left,1,57,120,309.666667,0.65625,DottedEighth,A3
1152,Left,1,58,120,310.0,0.489583,Eighth,A#3
1153,Left,1,60,120,310.25,0.489583,Eighth,C4
1154,Left,1,62,120,310.5,0.489583,Eighth,D4
1155,Left,1,64,120,310.75,0.489583,Eighth,E4
1156,Right,0,65,120,311.0,0.65625,DottedEighth,F4
1157,Right,0,67,120,311.333333,0.65625,DottedEighth,G4
1158,Right,0,69,120,311.666667,0.65625,DottedEighth,A4
1159,Right,0,70,120,312.0,0.489583,Eighth,A#4
1160,Right,0,72,120,312.25,0.489583,Eighth,C5
1161,Right,0,74,120,312.5,0.489583,Eighth,D5
1162,Right,0,76,120,312.75,0.489583,Eighth,E5
1163,Left,1,77,120,313.0,0.65625,DottedEighth,F5
1164,Left,1,79,120,313.333333,0.65625,DottedEighth,G5
1165,Left,1,81,120,313.666667,0.65625,DottedEighth,A5
1166,Left,1,82,120,314.0,0.489583,Eighth,A#5
1167,Left,1,84,120,314.25,0.489583,Eighth,C6
1168,Left,1,86,120,314.5,0.489583,Eighth,D6
1169,Left,1,88,120,314.75,0.489583,Eighth,E6
1170,Left,1,65,120,315.0,0.65625,DottedEighth,F4
1171,Right,0,89,120,315.0,0.65625,DottedEighth,F6
1173,Left,1,67,120,315.333333,0.65625,DottedEighth,G4
1172,Right,0,91,120,315.333333,0.65625,DottedEighth,G6
1174,Left,1,69,120,315.666667,0.65625,DottedEighth,A4
1175,Right,0,93,120,315.666667,0.65625,DottedEighth,A6
1177,Left,1,70,120,316.0,0.489583,Eighth,A#4
1176,Right,0,94,120,316.0,0.489583,Eighth,A#6
1178,Left,1,72,120,316.25,0.489583,Eighth,C5
1179,Right,0,96,120,316.25,0.489583,Eighth,C7
1181,Left,1,74,120,316.5,0.489583,Eighth,D5
1180,Right,0,98,120,316.5,0.489583,Eighth,D7
1183,Left,1,76,120,316.75,0.239583,Sixteenth,E5
1182,Right,0,100,120,316.75,0.239583,Sixteenth,E7
1185,Left,1,77,120,317.0,0.489583,Eighth,F5
1184,Right,0,101,120,317.0,0.489583,Eighth,F7
1187,Left,1,53,120,319.0,0.46875,Eighth,F3
1186,Right,0,78,120,319.0,0.46875,Eighth,F#5_D#5
1189,Left,1,63,120,319.25,0.46875,Eighth,D#4
1190,Right,0,69,120,319.25,0.46875,Eighth,A4
1193,Left,1,53,120,319.5,0.46875,Eighth,F3
1191,Right,0,75,120,319.5,0.46875,Eighth,F#5_D#5
1195,Right,0,69,120,319.75,0.46875,Quarter,A4
1194,Left,1,63,120,319.75,0.46875,Quarter,D#4
1197,Right,0,75,120,320.0,0.46875,Eighth,F#5_D#5
1196,Left,1,53,120,320.0,0.46875,Eighth,F3
1200,Right,0,69,120,320.25,0.46875,Eighth,A4
1199,Left,1,63,120,320.25,0.46875,Eighth,D#4
1202,Right,0,78,120,320.5,0.46875,Eighth,F#5_D#5
1201,Left,1,53,120,320.5,0.46875,Eighth,F3
1205,Left,1,63,120,320.75,0.46875,Eighth,D#4
1204,Right,0,69,120,320.75,0.46875,Eighth,A4
1207,Left,1,53,120,321.0,0.46875,Eighth,F3
1206,Right,0,75,120,321.0,0.46875,Eighth,F#5_D#5
1210,Left,1,63,120,321.25,0.46875,Eighth,D#4
1209,Right,0,69,120,321.25,0.46875,Eighth,A4
1211,Right,0,75,120,321.5,1.739583,DottedQuarter,F#5_D#5
1212,Left,1,53,120,321.5,1.739583,DottedQuarter,F3
1215,Left,1,63,120,321.75,1.489583,DottedQuarter,D#4
1214,Right,0,69,120,321.75,1.489583,DottedQuarter,A4
1218,Right,0,74,80,325.0,0.739583,DottedEighth,D5
1216,Left,1,58,80,325.0,0.739583,DottedEighth,D4_A#3
1219,Right,0,77,80,325.75,0.239583,Sixteenth,F5_A4
1221,Left,1,60,80,325.75,0.239583,Sixteenth,F3_C4
1223,Right,0,77,80,326.0,0.989583,Quarter,F5_A4
1225,Left,1,60,80,326.0,0.989583,Quarter,C4_A3
1227,Left,1,62,80,327.0,0.489583,Eighth,D4_A#3
1229,Right,0,65,80,327.0,0.489583,Eighth,F4_D5
1232,Left,1,55,80,328.0,0.739583,DottedEighth,G3
1231,Right,0,70,80,328.0,0.739583,DottedEighth,A#4
1233,Left,1,58,80,328.0625,0.739583,DottedEighth,A#3
1234,Left,1,50,80,328.75,0.239583,Sixteenth,D3_A3
1235,Right,0,66,80,328.75,0.239583,Sixteenth,F#4_D5
1239,Left,1,57,80,329.0,0.989583,Quarter,F#3_A3
1238,Right,0,69,80,329.0,0.989583,Quarter,D5_A4
1243,Left,1,55,80,330.0,0.489583,Eighth,G3_A#3
1242,Right,0,70,80,330.0,0.489583,Eighth,D4_A#4
1247,Right,0,67,80,331.0625,0.739583,DottedEighth,G4
1246,Left,1,51,80,331.0625,0.739583,DottedEighth,D#3
1248,Left,1,55,80,331.125,0.739583,DottedEighth,G3
1249,Right,0,62,80,331.75,0.239583,Sixteenth,D4_A#4
1251,Left,1,46,80,331.75,0.239583,Sixteenth,F3_A#2
1254,Right,0,70,80,332.0,0.989583,Quarter,F4_A#4
1253,Left,1,50,80,332.0,0.989583,Quarter,F3_D3
1258,Right,0,67,80,333.0,0.489583,Eighth,G4_A#3
1257,Left,1,51,80,333.0,0.489583,Eighth,G3_D#3
1261,Right,0,67,80,334.0,0.739583,DottedEighth,G4_A#3
1263,Left,1,55,80,334.0625,0.739583,DottedEighth,G3_D#3
1265,Right,0,63,80,334.75,0.239583,Sixteenth,D#4_A4
1267,Left,1,53,80,334.75,0.239583,Sixteenth,F3_C3
1271,Left,1,53,80,335.0,0.989583,Quarter,F3_C3
1269,Right,0,69,80,335.0,0.989583,Quarter,D#4_A4
1273,Right,0,70,80,336.0,0.489583,Eighth,A#4_A#3
1274,Left,1,53,80,336.0,0.489583,Eighth,F3_D3
1277,Left,1,50,80,337.0,0.989583,DottedEighth,F3_D3
1279,Right,0,65,80,337.0,0.989583,Quarter,F4_A#4
1281,Right,0,72,80,337.75,0.239583,Sixteenth,C5
1282,Left,1,45,80,337.75,0.239583,Sixteenth,A2
1285,Left,1,45,80,338.0,0.989583,Quarter,F3_A2
1283,Right,0,72,80,338.0,0.989583,Quarter,F4_C5
1287,Left,1,44,80,339.0,0.489583,Eighth,G#2_F3
1288,Right,0,74,80,339.0,0.489583,Eighth,F4_D5_A#4
1293,Left,1,44,80,340.0,0.739583,DottedEighth,G#2_F3
1292,Right,0,70,80,340.0,0.989583,Quarter,D5_A#4
1296,Left,1,43,91,340.75,0.239583,Sixteenth,G2_D#3
1298,Right,0,75,91,340.75,0.239583,Sixteenth,D#5
1299,Right,0,70,95,341.0,0.989583,Quarter,D#5_A#4
1300,Left,1,43,95,341.0,0.989583,Quarter,G2_D#3
1303,Right,0,73,110,342.0,0.489583,Eighth,F5_F4_C#5_A#4
1304,Left,1,49,110,342.0,0.489583,Eighth,F2_C#3
1309,Right,0,70,110,343.0,0.489583,Eighth,G5_G4_C5_A#4
1310,Left,1,48,110,343.0,0.489583,Eighth,E2_C3
1315,Left,1,53,110,344.0,0.489583,Eighth,F3_F2
1317,Right,0,60,110,344.0,0.489583,Eighth,C5_C4_A4
1321,Right,0,86,80,346.0,0.739583,DottedEighth,D6
1320,Left,1,74,80,346.0,0.739583,DottedEighth,D5_A#4
1325,Left,1,65,80,346.75,0.239583,Sixteenth,F4_C5
1323,Right,0,89,80,346.75,0.239583,Sixteenth,F6_A5
1328,Left,1,69,80,347.0,0.989583,Quarter,C5_A4
1327,Right,0,89,80,347.0,0.989583,Quarter,F6
1330,Right,0,77,80,347.458333,0.989583,Quarter,F5
1332,Left,1,70,80,348.0,0.489583,Eighth,D5_A#4
1331,Right,0,86,80,348.0,0.489583,Eighth,D6
1335,Left,1,67,80,349.0,0.739583,DottedEighth,G4
1334,Right,0,82,80,349.0,0.739583,DottedEighth,A#5
1336,Left,1,70,80,349.0625,0.739583,DottedEighth,A#4
1337,Right,0,78,80,349.75,0.239583,Sixteenth,F#5_D6
1339,Left,1,69,80,349.75,0.239583,Sixteenth,D4_A4
1342,Right,0,86,80,350.0,0.989583,Quarter,D6
1341,Left,1,66,80,350.0,0.989583,Quarter,F#4_A4
1344,Right,0,74,80,350.5,0.989583,Quarter,D5
1346,Right,0,82,80,351.0,0.489583,Eighth,A#5
1345,Left,1,70,80,351.0,0.489583,Eighth,G4_A#4
1348,Left,1,63,80,352.0625,0.739583,DottedEighth,D#4
1349,Right,0,79,80,352.0625,0.739583,DottedEighth,G5
1350,Left,1,67,80,352.125,0.739583,DottedEighth,G4
1351,Left,1,65,80,352.75,0.239583,Sixteenth,F4_A#3
1353,Right,0,82,80,352.75,0.239583,Sixteenth,D5_A#5
1355,Left,1,65,80,353.0,0.989583,Quarter,F4_D4
1357,Right,0,82,80,353.0,0.989583,Quarter,A#5
1358,Right,0,70,80,353.458333,0.989583,Quarter,A#4
1360,Left,1,63,80,354.0,0.489583,Eighth,G4_D#4
1359,Right,0,79,80,354.0,0.489583,Eighth,G5
1362,Right,0,70,80,355.0,0.739583,DottedEighth,G5_A#4
1364,Left,1,63,80,355.0625,0.739583,DottedEighth,G4_D#4
1366,Left,1,60,80,355.75,0.239583,Sixteenth,F4_C4
1367,Right,0,81,80,355.75,0.239583,Sixteenth,D#5_A5
1371,Left,1,65,80,356.0,0.989583,Quarter,F4_C4
1370,Right,0,81,80,356.0,0.989583,Quarter,A5
1373,Right,0,75,80,356.5,0.489583,Eighth,D#5
1374,Right,0,82,80,357.0,0.489583,Eighth,A#5_A#4
1376,Left,1,62,80,357.0,0.489583,Eighth,F4_D4
1378,Right,0,82,80,358.0,0.989583,DottedEighth,F5_A#5
1380,Left,1,74,80,358.0625,0.739583,DottedEighth,D5
1383,Right,0,84,84,358.75,0.239583,Sixteenth,C6
1381,Left,1,69,84,358.75,0.239583,Sixteenth,C5_A4
1386,Right,0,84,86,359.0,0.989583,Quarter,C6
1384,Left,1,69,86,359.0,0.989583,Quarter,C5_A4
1387,Right,0,77,89,359.458333,0.989583,Quarter,F5
1388,Right,0,86,92,360.0,0.489583,Eighth,D6
1389,Left,1,70,92,360.0,0.489583,Eighth,G#4_A#4
1393,Right,0,82,98,361.0,0.989583,Quarter,D#6_A#5
1391,Left,1,67,98,361.0,0.989583,DottedEighth,G4_A#4
1396,Right,0,88,103,361.75,0.239583,Sixteenth,E6
1395,Left,1,66,103,361.75,0.239583,Sixteenth,F#4
1399,Right,0,88,104,362.0,0.989583,Quarter,E6
1397,Left,1,66,104,362.0,0.989583,Quarter,F#4_A#4
1400,Right,0,82,107,362.5,0.489583,Eighth,A#5
1402,Right,0,81,110,363.0,0.489583,Eighth,F6_A5
1401,Left,1,65,110,363.0,0.489583,Eighth,F4_C5
1405,Left,1,60,110,364.0,0.489583,Eighth,C4_C3
1407,Right,0,91,110,364.0,0.489583,Eighth,G6_G5_E6_A#5
1411,Right,0,77,110,365.0,0.489583,Eighth,F6_F5_A5
1412,Left,1,65,110,365.0,0.489583,Eighth,F4_F3
1416,Left,1,53,80,367.0,1.489583,DottedQuarter,F4_F3
1417,Right,0,74,80,367.0,0.739583,DottedEighth,D5_B4
1420,Right,0,77,80,367.75,0.239583,Sixteenth,F5_D5
1422,Right,0,77,80,368.0,0.989583,Quarter,F5_D5
1424,Left,1,53,80,368.5,0.489583,Eighth,F3
1427,Left,1,65,80,369.0,0.489583,Eighth,F4
1425,Right,0,71,80,369.0,0.489583,Eighth,D5_B4
1429,Left,1,53,80,370.0,1.489583,DottedQuarter,F3_F2
1428,Right,0,74,80,370.0,0.739583,DottedEighth,D5_B4
1432,Right,0,79,80,370.75,0.239583,Sixteenth,G5_D#5
1434,Right,0,79,80,371.0,0.989583,Quarter,G5_D#5
1436,Left,1,41,80,371.5,0.489583,Eighth,F2
1438,Left,1,53,80,372.0,0.489583,Eighth,F3
1437,Right,0,72,80,372.0,0.489583,Eighth,D#5_C5
1441,Right,0,69,80,373.0,0.739583,DottedEighth,C5_A4
1440,Left,1,41,80,373.0,1.489583,DottedQuarter,F3_F2
1444,Right,0,75,80,373.75,0.239583,Sixteenth,D#5_C5
1446,Right,0,72,80,374.0,0.989583,Quarter,D#5_C5
1448,Left,1,41,80,374.5,0.489583,Eighth,F2
1450,Right,0,69,80,375.0,0.489583,Eighth,C5_A4
1449,Left,1,53,80,375.0,0.489583,Eighth,F3
1454,Right,0,69,80,376.0,0.739583,DottedEighth,C5_A4
1452,Left,1,29,80,376.0,1.489583,DottedQuarter,F2_F1
1456,Right,0,73,80,376.75,0.239583,Sixteenth,F5_C#5
1458,Right,0,74,80,377.0,0.989583,Quarter,F5_D5
1460,Left,1,29,80,377.5,0.489583,Eighth,F1
1461,Right,0,74,80,378.0,0.489583,Eighth,D5_A#4
1463,Left,1,41,80,378.0,0.489583,Eighth,F2
1464,Right,0,57,80,379.0,0.739583,DottedEighth,C4_A3
1466,Left,1,30,80,379.0,1.989583,Half,F#2_F#1
1468,Right,0,60,80,379.75,0.239583,Sixteenth,D#4_C4
1470,Right,0,60,80,380.0,1.989583,Half,D#4_C4
1472,Left,1,31,80,381.0,1.989583,Half,G2_G1
1474,Right,0,62,80,382.0,0.989583,Quarter,D4_A#3
1476,Left,1,45,79,383.0,0.989583,Quarter,A2_A1
1478,Right,0,57,79,383.0,0.989583,Quarter,C4_A3
1481,Left,1,46,77,384.0,0.989583,Quarter,A#2_A#1
1480,Right,0,58,77,384.0,0.989583,Quarter,G3_A#3
1484,Right,0,53,75,385.0,1.989583,Half,F3_A3
1486,Left,1,35,75,385.0,0.989583,Quarter,B2_B1
1488,Left,1,48,73,386.0,1.989583,Half,C3_C2
1490,Right,0,55,71,387.0,0.989583,Quarter,G3_E3
1493,Right,0,51,70,388.0,2.989583,Half,G3_D#3_C4
1492,Left,1,36,70,388.0,0.989583,Quarter,C2
1496,Left,1,43,70,389.0,1.989583,Half,G2
1497,Right,0,59,70,390.0,0.989583,Quarter,D3_B3
1499,Right,0,59,70,394.0,0.739583,DottedEighth,B3
1500,Right,0,62,70,394.75,0.239583,Sixteenth,D4
1501,Right,0,62,70,395.0,0.989583,Quarter,D4
1502,Right,0,59,70,396.0,0.489583,Eighth,B3
1503,Right,0,71,70,397.0,2.489583,DottedEighth,D4_B4
1505,Left,1,55,70,397.0,2.489583,Half,G3_G2
1508,Left,1,47,70,397.75,0.239583,Sixteenth,B2
1507,Right,0,74,70,397.75,0.239583,Sixteenth,D5
1509,Right,0,74,70,398.0,0.989583,Quarter,D5
1510,Left,1,47,70,398.0,0.989583,Quarter,B2
1511,Right,0,71,70,399.0,0.489583,Eighth,B4
1512,Left,1,43,70,399.0,0.489583,Eighth,G2
1514,Right,0,84,70,400.0,0.739583,DottedEighth,C6
1513,Left,1,72,70,400.0,0.739583,DottedEighth,C5
1515,Left,1,75,70,400.75,0.239583,Sixteenth,D#5
1516,Right,0,87,70,400.75,0.239583,Sixteenth,D#6
1517,Left,1,75,70,401.0,0.989583,Quarter,D#5
1518,Right,0,87,70,401.0,0.989583,Quarter,D#6
1519,Left,1,72,70,402.0,0.489583,Eighth,C5
1520,Right,0,84,70,402.0,0.489583,Eighth,C6
1521,Right,0,71,70,403.0,0.739583,DottedEighth,D4_B4
1523,Left,1,55,70,403.0,1.489583,DottedQuarter,G3_G2
1525,Right,0,65,76,403.75,0.239583,Sixteenth,F4_D5
1527,Right,0,65,78,404.0,0.989583,Quarter,F4_D5
1529,Left,1,43,82,404.5,0.489583,Eighth,G2
1530,Right,0,62,86,405.0,0.489583,Eighth,D4_B4
1532,Left,1,55,86,405.0,0.489583,Eighth,G3
1534,Left,1,36,94,406.0,1.489583,DottedQuarter,C3_C2
1533,Right,0,62,94,406.0,0.739583,DottedEighth,D4_B4
1537,Right,0,75,100,406.75,0.239583,Sixteenth,G4_D#5
1539,Right,0,75,102,407.0,0.989583,Quarter,G4_D#5
1541,Left,1,36,106,407.5,0.489583,Eighth,C2
1543,Left,1,48,110,408.0,0.489583,Eighth,C3
1542,Right,0,72,110,408.0,0.489583,Eighth,D#4_C5
1547,Left,1,41,110,409.0,1.489583,DottedQuarter,F2_F1
1545,Right,0,69,110,409.0,0.739583,DottedEighth,C5_A4
1549,Right,0,81,110,409.75,0.239583,Sixteenth,C5_A5
1551,Right,0,81,110,410.0,0.989583,Quarter,C5_A5
1553,Left,1,41,110,410.5,0.489583,Eighth,F2
1555,Right,0,69,110,411.0,0.489583,Eighth,F5_A4
1554,Left,1,53,110,411.0,0.489583,Eighth,F3
1557,Left,1,46,110,412.0,0.489583,Eighth,A#2_A#1
1559,Right,0,82,110,412.0,0.489583,Eighth,A#5_A#4
1561,Right,0,82,110,413.0,0.489583,Eighth,A#5_A#4
1563,Left,1,34,110,413.0,0.489583,Eighth,A#2_A#1
1566,Left,1,77,80,415.0,1.489583,DottedQuarter,F5_F4
1565,Right,0,86,80,415.0,0.739583,DottedEighth,D6_B5
1569,Right,0,86,80,415.75,0.239583,Sixteenth,F6_D6
1571,Right,0,86,80,416.0,0.989583,Quarter,F6_D6
1573,Left,1,65,80,416.5,0.489583,Eighth,F4
1574,Left,1,77,80,417.0,0.489583,Eighth,F5
1575,Right,0,83,80,417.0,0.489583,Eighth,D6_B5
1577,Left,1,53,80,418.0,1.489583,DottedQuarter,F4_F3
1579,Right,0,83,80,418.0,0.739583,DottedEighth,D6_B5
1581,Right,0,91,80,418.75,0.239583,Sixteenth,G6_D#6
1583,Right,0,91,80,419.0,0.989583,Quarter,G6_D#6
1585,Left,1,53,80,419.5,0.489583,Eighth,F3
1586,Right,0,84,80,420.0,0.489583,Eighth,D#6_C6
1588,Left,1,65,80,420.0,0.489583,Eighth,F4
1590,Right,0,81,80,421.0,0.739583,DottedEighth,C6_A5
1589,Left,1,53,80,421.0,1.489583,DottedQuarter,F4_F3
1593,Right,0,87,80,421.75,0.239583,Sixteenth,D#6_C6
1595,Right,0,87,80,422.0,0.989583,Quarter,D#6_C6
1597,Left,1,53,80,422.5,0.489583,Eighth,F3
1598,Right,0,81,80,423.0,0.489583,Eighth,C6_A5
1599,Left,1,65,80,423.0,0.489583,Eighth,F4
1603,Left,1,53,80,424.0,1.489583,DottedQuarter,F3_F2
1601,Right,0,84,80,424.0,0.739583,DottedEighth,C6_A5
1605,Right,0,85,80,424.75,0.239583,Sixteenth,F6_C#6
1607,Right,0,86,80,425.0,0.989583,Quarter,F6_D6
1609,Left,1,41,80,425.5,0.489583,Eighth,F2
1612,Left,1,53,80,426.0,0.489583,Eighth,F3
1610,Right,0,82,80,426.0,0.489583,Eighth,D6_A#5
1614,Left,1,60,80,427.0,1.989583,Half,F#3_D#4_C4
1613,Right,0,72,80,427.0,0.739583,DottedEighth,C5_A4
1618,Right,0,75,80,427.75,0.239583,Sixteenth,D#5_C5
1620,Right,0,75,80,428.0,1.989583,Half,D#5_C5
1622,Left,1,54,80,429.0,0.989583,Quarter,F#3_D#4_C4
1625,Left,1,58,80,430.0,0.989583,Quarter,G3_D4_A#3
1628,Right,0,70,80,430.0,0.989583,Quarter,D5_A#4
1631,Left,1,60,79,431.0,0.989583,Quarter,C4_A3
1630,Right,0,72,79,431.0,0.989583,Quarter,C5_A4
1634,Left,1,45,78,431.5,0.489583,Eighth,A2
1637,Left,1,58,77,432.0,0.989583,Quarter,G3_A#3_A#2
1635,Right,0,70,77,432.0,0.989583,Quarter,G4_A#4
1640,Left,1,47,75,433.0,1.989583,Half,F3_B2_A3
1643,Right,0,69,75,433.0,1.989583,Half,F4_A4
1645,Left,1,48,73,434.0,1.989583,Half,C3
1648,Right,0,64,71,435.0,0.989583,Quarter,G4_E4
1646,Left,1,55,71,435.0,0.989583,Quarter,G3_E3
1651,Right,0,63,70,436.0,2.989583,Half,G4_D#4_C5
1650,Left,1,51,70,436.0,2.989583,Quarter,G3_D#3_C4_C3
1657,Right,0,62,70,438.0,0.989583,Quarter,D4_B4
1659,Left,1,59,70,438.0,0.989583,Quarter,B3
1660,Right,0,71,70,442.0,0.739583,DottedEighth,B4
1661,Right,0,74,70,442.75,0.239583,Sixteenth,D5
1662,Right,0,74,70,443.0,0.989583,Quarter,D5
1663,Right,0,71,70,444.0,0.489583,Eighth,B4
1665,Left,1,31,70,445.0,2.489583,DottedEighth,G2_G1
1664,Right,0,59,70,445.0,2.489583,DottedEighth,D3_B3
1668,Right,0,62,70,445.75,0.239583,Sixteenth,D4
1669,Left,1,35,70,445.75,0.239583,Sixteenth,B1
1671,Left,1,35,70,446.0,0.989583,Quarter,B1
1670,Right,0,62,70,446.0,0.989583,Quarter,D4
1672,Left,1,31,70,447.0,0.489583,Eighth,G1
1673,Right,0,59,70,447.0,0.489583,Eighth,B3
1674,Left,1,72,70,448.0,0.739583,DottedEighth,C5
1675,Right,0,84,70,448.0,0.739583,DottedEighth,C6
1676,Right,0,87,70,448.75,0.239583,Sixteenth,D#6
1677,Left,1,75,70,448.75,0.239583,Sixteenth,D#5
1678,Left,1,75,70,449.0,0.989583,Quarter,D#5
1679,Right,0,87,70,449.0,0.989583,Quarter,D#6
1680,Left,1,72,70,450.0,0.489583,Eighth,C5
1681,Right,0,84,70,450.0,0.489583,Eighth,C6
1682,Left,1,67,70,451.0,1.489583,DottedQuarter,G4_G3
1684,Right,0,83,70,451.0,0.739583,DottedEighth,D5_B5
1686,Right,0,86,76,451.75,0.239583,Sixteenth,F5_D6
1688,Right,0,86,78,452.0,0.989583,Quarter,F5_D6
1690,Left,1,55,82,452.5,0.489583,Eighth,G3
1692,Right,0,83,86,453.0,0.489583,Eighth,D5_B5
1691,Left,1,67,86,453.0,0.489583,Eighth,G4
1696,Right,0,83,94,454.0,0.739583,DottedEighth,D5_B5
1694,Left,1,60,94,454.0,1.489583,DottedQuarter,C4_C3
1698,Right,0,87,100,454.75,0.239583,Sixteenth,G5_D#6
1700,Right,0,79,102,455.0,0.989583,Quarter,G5_D#6
1702,Left,1,48,106,455.5,0.489583,Eighth,C3
1704,Right,0,75,110,456.0,0.489583,Eighth,D#5_C6
1703,Left,1,60,110,456.0,0.489583,Eighth,C4
1708,Right,0,84,110,457.0,0.739583,DottedEighth,C6_A5
1706,Left,1,41,110,457.0,1.489583,DottedQuarter,F3_F2
1710,Right,0,84,110,457.75,0.239583,Sixteenth,C6_A6
1712,Right,0,84,110,458.0,0.989583,Quarter,C6_A6
1714,Left,1,41,110,458.5,0.489583,Eighth,F2
1717,Left,1,53,110,459.0,0.489583,Eighth,F3
1715,Right,0,81,110,459.0,0.489583,Eighth,F6_A5
1718,Right,0,82,110,460.0,0.489583,Eighth,A#6_A#5
1720,Left,1,46,110,460.0,0.489583,Eighth,A#2_A#1
1722,Right,0,94,110,461.0,0.489583,Eighth,A#6_A#5
1723,Left,1,34,110,461.0,0.489583,Eighth,A#2_A#1
1726,Right,0,71,80,463.0,0.489583,Eighth,B4_B3
1727,Left,1,47,80,463.0,0.489583,Eighth,B2_B1
1732,Right,0,59,80,464.0,0.489583,Eighth,B4_B3
1730,Left,1,47,80,464.0,0.489583,Eighth,B2_B1
1734,Right,0,94,110,466.0,0.489583,Eighth,A#6_A#5
1736,Left,1,34,110,466.0,0.489583,Eighth,A#2_A#1
1738,Right,0,94,110,467.0,0.489583,Eighth,A#6_A#5
1740,Left,1,46,110,467.0,0.489583,Eighth,A#2_A#1
1744,Right,0,71,80,469.0,0.489583,Eighth,B4_B3
1742,Left,1,47,80,469.0,0.489583,Eighth,B2_B1
1748,Right,0,59,79,470.0,0.489583,Eighth,B4_B3
1746,Left,1,47,79,470.0,0.489583,Eighth,B2_B1
1750,Left,1,34,77,472.0,0.489583,Eighth,A#2_A#1
1752,Right,0,58,77,472.0,0.489583,Eighth,A#4_A#3
1754,Right,0,58,76,473.0,0.489583,Eighth,A#4_A#3
1756,Left,1,34,76,473.0,0.489583,Eighth,A#2_A#1
1758,Right,0,62,73,475.0,0.739583,DottedEighth,D4
1759,Right,0,66,72,475.75,0.239583,Sixteenth,F#4
1760,Right,0,66,72,476.0,0.989583,Quarter,F#4
1761,Right,0,62,71,477.0,0.489583,Eighth,D4
1762,Right,0,71,70,478.0,0.489583,Eighth,B4_B3
1764,Left,1,35,70,478.0,0.489583,Eighth,B2_B1
1766,Right,0,71,70,479.0,0.489583,Eighth,B4_B3
1768,Left,1,35,70,479.0,0.489583,Eighth,B2_B1
1771,Left,1,35,70,481.0,0.489583,Eighth,B2_B1
1770,Right,0,71,70,481.0,0.489583,Eighth,B4_B3
1776,Right,0,59,74,482.0,0.489583,Eighth,B4_B3
1774,Left,1,35,74,482.0,0.489583,Eighth,B2_B1
1778,Left,1,47,83,484.0,0.489583,Eighth,B2_B1
1779,Right,0,59,83,484.0,0.489583,Eighth,B4_B3
1782,Left,1,35,88,485.0,0.989583,Quarter,B2_B1
1784,Right,0,71,88,485.0,0.989583,Quarter,B4_B3
1788,Left,1,35,93,486.0,0.989583,Quarter,B2_B1
1786,Right,0,71,93,486.0,0.989583,Quarter,B4_B3
1790,Left,1,47,97,487.0,0.989583,Quarter,B2_B1
1791,Right,0,71,97,487.0,0.989583,Quarter,B4_B3
1794,Left,1,35,102,488.0,0.989583,Quarter,B2_B1
1796,Right,0,59,102,488.0,0.989583,Quarter,B4_B3
1798,Left,1,47,107,489.0,0.989583,Quarter,B2_B1
1800,Right,0,71,107,489.0,0.989583,Quarter,B4_B3
1802,Right,0,71,111,490.0,0.989583,Quarter,B5_B4
1804,Left,1,47,111,490.0,0.989583,Quarter,B2_B1
1808,Left,1,35,116,491.0,0.989583,Quarter,B2_B1
1806,Right,0,83,116,491.0,0.989583,Quarter,B5_B4
1812,Left,1,47,120,492.0,0.989583,Quarter,B2_B1
1810,Right,0,71,120,492.0,0.989583,Quarter,B5_B4
1814,Left,1,35,120,493.0,0.989583,Quarter,B2_B1
1815,Right,0,71,120,493.0,0.989583,Quarter,B5_B4
1819,Left,1,47,120,494.0,0.989583,Quarter,B2_B1
1818,Right,0,83,120,494.0,0.989583,Quarter,B6_B5
1823,Right,0,83,120,495.0,0.989583,Quarter,B6_B5
1822,Left,1,47,120,495.0,0.989583,Quarter,B2_B1
1826,Right,0,83,120,496.0,0.989583,Quarter,B6_B5
1827,Left,1,47,120,496.0,0.989583,Quarter,B2_B1
1832,Left,1,47,120,497.0,0.989583,Quarter,B2_B1
1830,Right,0,95,120,497.0,0.989583,Quarter,B6_B5
1835,Right,0,95,120,498.0,0.989583,Quarter,B6_B5
1834,Left,1,35,120,498.0,0.989583,Quarter,B2_B1
1838,Right,0,95,120,499.0,0.989583,Quarter,B6_B5
1840,Left,1,35,120,499.0,0.989583,Quarter,B2_B1
1843,Left,1,34,120,500.0,0.489583,Eighth,A#2_A#1
1842,Right,0,82,120,500.0,0.489583,Eighth,A#6_A#5
1848,Right,0,82,120,501.0,0.489583,Eighth,A#6_A#5
1846,Left,1,46,120,501.0,0.489583,Eighth,A#2_A#1
1851,Right,0,62,80,503.0,0.739583,DottedEighth,D4
1850,Left,1,58,80,503.0,0.739583,DottedEighth,A#3
1852,Right,0,65,80,503.75,0.239583,Sixteenth,F4
1853,Left,1,53,80,503.75,0.239583,Sixteenth,F3
1854,Right,0,65,80,504.0,0.989583,Quarter,F4
1855,Left,1,57,80,504.0,0.989583,Quarter,A3
1856,Right,0,60,80,504.5,0.489583,Eighth,C4
1858,Left,1,58,80,505.0,0.489583,Eighth,A#3
1857,Right,0,62,80,505.0,0.489583,Eighth,F3_D4
1861,Right,0,74,80,506.0,0.739583,DottedEighth,D5
1860,Left,1,70,80,506.0,0.739583,DottedEighth,A#4
1862,Right,0,77,80,506.75,0.239583,Sixteenth,F5
1863,Left,1,65,80,506.75,0.239583,Sixteenth,F4
1865,Left,1,69,80,507.0,0.989583,Quarter,A4
1864,Right,0,77,80,507.0,0.989583,Quarter,F5
1866,Right,0,72,80,507.5,0.489583,Eighth,C5
1869,Left,1,70,80,508.0,0.489583,Eighth,A#4
1867,Right,0,65,80,508.0,0.489583,Eighth,F4_D5
1871,Left,1,82,80,509.0,0.739583,DottedEighth,A#5
1870,Right,0,86,80,509.0,0.739583,DottedEighth,D6
1872,Right,0,89,80,509.75,0.239583,Sixteenth,F6
1873,Left,1,77,80,509.75,0.239583,Sixteenth,F5
1875,Left,1,81,80,510.0,0.989583,Quarter,A5
1874,Right,0,89,80,510.0,0.989583,Quarter,F6
1876,Right,0,84,80,510.5,0.489583,Eighth,C6
1879,Left,1,82,80,511.0,0.989583,Quarter,A#5
1877,Right,0,77,80,511.0,0.989583,Quarter,F5_D6
