,hand,channel,note,velocity,start_beat,duration,note_value,chord
1,Left,1,33,80,0.0,2.979167,DottedQuarter,A2_A1
0,Right,0,57,80,0.0,2.979167,DottedQuarter,A3
5,Right,0,61,80,3.0,2.979167,DottedQuarter,C#4
3,Left,1,49,80,3.0,2.979167,DottedQuarter,C#3_C#2
7,Left,1,54,80,6.0,2.979167,DottedQuarter,F#3_F#2_C#3
6,Right,0,73,80,6.0,2.979167,Quarter,F#4_C#5_C#4_A4
13,Right,0,69,80,8.0,0.979167,Eighth,A4
14,Left,1,42,80,9.0,0.979167,Eighth,F#3_F#2_C#3
17,Right,0,61,80,9.0,0.979167,Eighth,C#4_A4
19,Left,1,45,80,10.0,0.979167,Eighth,C#3_A3_A2
22,Right,0,61,80,10.0,0.979167,Eighth,F#4_C#4
25,Left,1,44,80,11.0,0.979167,Eighth,G#3_G#2_C#3
24,Right,0,68,80,11.0,0.979167,Eighth,G#4_F4_C#4_B3
35,Left,1,49,80,12.0,2.979167,DottedQuarter,F#3_F#2_C#3
31,Right,0,61,80,12.0,2.979167,DottedQuarter,F#4_C#4_A4_A3
41,Left,1,50,80,15.0,1.979167,Quarter,D3_D2
38,Right,0,66,80,15.0,1.979167,Quarter,F#4_B4_B3
43,Right,0,62,80,17.0,0.979167,Eighth,F#4_D5_D4
46,Left,1,47,80,17.0,0.979167,Eighth,B2_B1
48,Right,0,74,80,18.0,1.979167,Quarter,F#4_D5_D4
49,Left,1,35,80,18.0,1.979167,Quarter,B2_B1
55,Right,0,73,80,20.0,0.979167,Eighth,F#4_C#5_C#4
53,Left,1,33,80,20.0,0.979167,Eighth,A2_A1
58,Right,0,66,80,21.0,0.979167,Eighth,F#4_C#5_C#4
60,Left,1,45,80,21.0,0.979167,Eighth,A2_A1
65,Left,1,44,80,22.0,0.979167,Eighth,G#2_G#1
63,Right,0,65,80,22.0,0.979167,Eighth,F5_F4_C#5_B4
69,Right,0,73,80,23.0,0.979167,Eighth,F#5_F#4_C#5_A4
72,Left,1,42,80,23.0,0.979167,Eighth,F#2_F#1
77,Right,0,80,80,24.0,2.979167,DottedQuarter,G#5_G#4_C#5
75,Left,1,41,80,24.0,2.979167,DottedQuarter,F2_F1
82,Right,0,74,80,27.0,2.979167,DottedQuarter,G#4_D5_B4
80,Left,1,56,80,27.0,2.979167,DottedQuarter,G#3_F3_D4_B3
87,Left,1,40,80,30.0,2.979167,DottedQuarter,E2_E1
89,Right,0,74,80,30.0,2.979167,DottedQuarter,G#4_D5_B4
92,Right,0,62,80,32.0,0.979167,Eighth,D4
93,Right,0,73,80,33.0,1.979167,Quarter,C#5_C#4_A4
94,Left,1,42,80,33.0,1.979167,Quarter,F#2_F#1
98,Right,0,65,80,35.0,0.979167,Eighth,F4_D4_B4_B3
99,Left,1,32,80,35.0,0.979167,Eighth,G#2_G#1
104,Left,1,44,80,36.0,2.979167,DottedQuarter,G#2_G#1
106,Right,0,59,80,36.0,2.979167,DottedQuarter,F4_D4_B4_B3
112,Right,0,59,80,39.0,0.979167,Eighth,F4_D4_B4_B3
110,Left,1,44,80,39.0,0.979167,Eighth,G#2_G#1
120,Left,1,45,80,40.0,0.979167,Eighth,A2_A1
116,Right,0,69,80,40.0,0.979167,Eighth,F#4_C#4_A4_A3
122,Right,0,56,80,41.0,0.979167,Eighth,G#4_G#3_F#4_D4
125,Left,1,35,80,41.0,0.979167,Eighth,B2_B1
128,Right,0,66,80,42.0,1.979167,Quarter,G#4_G#3_F#4_D#4
132,Left,1,48,80,42.0,1.979167,Quarter,C3_C2
137,Left,1,48,80,44.0,0.979167,Eighth,C3_C2
134,Right,0,63,80,44.0,0.979167,Eighth,G#4_G#3_F#4_D#4
140,Left,1,48,80,45.0,0.979167,Eighth,C3_C2
142,Right,0,68,80,45.0,0.979167,Eighth,G#4_G#3_F#4_D#4
146,Left,1,48,80,46.0,0.979167,Eighth,C3_C2
147,Right,0,63,80,46.0,0.979167,Eighth,F#4_D#4_A4_A3
154,Left,1,48,80,47.0,0.979167,Eighth,C3_C2
152,Right,0,57,80,47.0,0.979167,Eighth,F#4_F#3_D#4_A3
161,Left,1,49,80,48.0,2.979167,DottedQuarter,C#3_C#2
158,Right,0,54,80,48.0,2.979167,DottedQuarter,F#4_F#3_D#4_A3
164,Right,0,60,80,49.0,0.979167,Eighth,C4
165,Right,0,61,81,50.0,0.979167,Eighth,C#4
166,Right,0,65,82,51.0,0.979167,Eighth,G#3_F4_F3_C#4
170,Left,1,49,82,51.0,0.979167,Eighth,C#3_C#2
172,Left,1,53,83,52.0,0.979167,Eighth,G#3_F3_C#3
175,Right,0,68,83,52.0,0.979167,Eighth,G#4
176,Left,1,49,84,53.0,0.979167,Eighth,G#3_C#3_B3
179,Right,0,71,84,53.0,0.979167,Eighth,B4
180,Right,0,62,85,54.0,1.979167,Quarter,F4_D4_B4
182,Left,1,49,85,54.0,1.979167,Quarter,C#3_B3
185,Right,0,68,85,55.0,0.979167,Eighth,G#4
188,Right,0,66,86,56.0,0.979167,Eighth,F#4_C#4_A4
186,Left,1,57,86,56.0,0.979167,Eighth,C#3_A3
191,Right,0,61,87,57.0,0.979167,Eighth,F#4_C#4_A4
194,Left,1,57,87,57.0,0.979167,Eighth,C#3_A3
199,Left,1,56,88,58.0,0.979167,Eighth,G#3_C#3
196,Right,0,59,88,58.0,0.979167,Eighth,G#4_F4_D4_B3
202,Left,1,54,89,59.0,0.979167,Eighth,F#3_C#3
203,Right,0,57,89,59.0,0.979167,Eighth,F#4_D#4_A3
207,Right,0,60,89,59.5,0.479167,Sixteenth,C4
209,Right,0,57,90,60.0,1.979167,Quarter,F#4_D#4_C4_A3
208,Left,1,54,90,60.0,1.979167,Quarter,F#3_C#3
216,Right,0,65,91,62.0,0.979167,Eighth,G#3_F4_C#4
214,Left,1,53,91,62.0,0.979167,Eighth,F3_C#3
221,Right,0,65,92,63.0,0.979167,Eighth,F4
219,Left,1,53,92,63.0,1.979167,Eighth,F3_C#3
223,Left,1,56,93,64.0,0.979167,Eighth,G#3
222,Right,0,68,93,64.0,0.979167,Eighth,G#4
227,Left,1,49,94,65.0,0.979167,Eighth,G#3_C#3_B3
224,Right,0,71,94,65.0,1.979167,Quarter,G#4_F4_B4
231,Left,1,62,94,65.5,0.479167,Sixteenth,D4
230,Right,0,74,94,65.5,0.479167,Sixteenth,D5
233,Left,1,59,95,66.0,1.979167,Quarter,D4_C#3_B3
232,Right,0,71,95,66.0,1.979167,Quarter,D5_B4
237,Right,0,68,91,67.0,0.979167,Eighth,G#4_F4
240,Left,1,49,86,68.0,0.979167,Eighth,C#4_C#3_A3
239,Right,0,66,86,68.0,0.979167,Eighth,F#4_C#5_A4
245,Left,1,61,80,69.0,0.979167,Eighth,C#4_C#3_A3
246,Right,0,69,80,69.0,0.979167,Eighth,C#5_A4
250,Right,0,66,80,69.5,0.479167,Sixteenth,F#4
253,Left,1,59,80,70.0,0.979167,Eighth,G#3_C#3_B3
251,Right,0,65,80,70.0,0.979167,Eighth,G#4_F4_D4_B4
258,Left,1,57,80,71.0,0.979167,Eighth,F#3_C#3_A3
260,Right,0,60,80,71.0,0.979167,Eighth,F#4_D#4_C4_A4
265,Left,1,54,80,72.0,1.979167,Quarter,F#3_C#3_A3
266,Right,0,66,80,72.0,1.979167,Quarter,F#4_A4
270,Right,0,63,80,73.0,0.979167,Eighth,D#4_C4
274,Left,1,49,80,74.0,0.979167,Eighth,G#3_F3_C#3
272,Right,0,68,80,74.0,0.979167,Eighth,G#4_F4_C#4
278,Left,1,53,80,75.0,1.979167,Quarter,G#3_F3_C#3
281,Right,0,65,80,75.0,1.979167,Quarter,G#4_F4_C#4
284,Right,0,61,80,77.0,0.979167,Eighth,G4_E4_C#4
287,Left,1,55,80,77.0,0.979167,Eighth,G3_E3_C#3_A#3
291,Left,1,59,80,78.0,2.979167,DottedQuarter,G3_D3_B3
294,Right,0,67,80,78.0,0.479167,Sixteenth,G4
295,Right,0,83,80,78.5,1.479167,DottedEighth,B5
296,Right,0,71,80,79.0,0.979167,Eighth,B4
297,Right,0,81,80,80.0,0.979167,Eighth,A5_A4
299,Left,1,62,80,81.0,2.979167,DottedQuarter,G3_D4_B3
302,Right,0,67,80,81.0,2.979167,DottedQuarter,G5_G4
305,Left,1,62,90,83.0,0.979167,Eighth,D4
304,Right,0,78,90,83.0,0.979167,Eighth,F#5
308,Left,1,60,90,84.0,2.979167,DottedQuarter,E4_C4
306,Right,0,67,90,84.0,2.979167,DottedQuarter,G4_E5
310,Right,0,78,80,86.0,0.979167,Eighth,F#5
312,Left,1,59,80,87.0,1.979167,Quarter,D4_B3
311,Right,0,67,80,87.0,1.979167,Quarter,G5_G4
315,Right,0,66,80,89.0,0.979167,Eighth,F#4
316,Left,1,62,80,89.0,0.979167,Eighth,D4
317,Left,1,62,80,90.0,0.979167,Eighth,D4
318,Right,0,66,80,90.0,0.979167,Eighth,F#4
319,Left,1,61,80,91.0,0.979167,Eighth,C#4
320,Right,0,69,80,91.0,0.979167,Eighth,F#4_A4
322,Left,1,57,80,92.0,0.979167,Eighth,F#3_C#4_C#3_A3
323,Right,0,73,80,92.0,0.979167,Eighth,F#4_C#5_A4
329,Left,1,49,80,93.0,1.979167,Quarter,G#3_F3_C#4_C#3
330,Right,0,68,80,93.0,1.979167,Quarter,G#4_F4_C#5
336,Left,1,61,80,95.0,0.979167,Eighth,G#3_F3_C#4_C#3
340,Right,0,73,80,95.0,0.979167,Eighth,G#4_F4_C#5
343,Left,1,49,80,96.0,1.979167,Quarter,G#3_F3_C#4_C#3
347,Right,0,65,80,96.0,1.979167,Quarter,G#4_F4_C#5
351,Left,1,61,80,98.0,0.979167,Eighth,F#3_C#4_A3
350,Right,0,66,80,98.0,0.979167,Eighth,F#4_A4
355,Right,0,69,80,99.0,0.979167,Eighth,F#4_A4
357,Left,1,61,80,99.0,0.979167,Eighth,F#3_C#4_A3
360,Left,1,57,80,100.0,0.979167,Eighth,A3
361,Right,0,66,80,100.0,0.979167,Eighth,F#4_C#4
363,Right,0,68,80,101.0,0.479167,Sixteenth,G#4_F4_C#4
366,Left,1,59,80,101.0,0.479167,Sixteenth,G#3_B3
368,Right,0,66,80,101.5,0.479167,Sixteenth,F#4_A4
370,Left,1,57,80,101.5,0.479167,Sixteenth,F#3_A3
374,Left,1,37,80,102.0,5.979167,DottedHalf,C#2
372,Right,0,68,80,102.0,1.979167,Quarter,G#4_B4
375,Right,0,62,80,103.0,0.979167,Eighth,D4
376,Left,1,41,80,103.0,0.979167,Eighth,F2
378,Left,1,42,82,104.0,0.979167,Eighth,F#2
377,Right,0,69,82,104.0,0.979167,Eighth,F#4_C#4_A4
382,Left,1,44,84,105.0,1.479167,DottedEighth,G#2
381,Right,0,59,84,105.0,1.979167,Quarter,F4_D4_B3_A4
386,Right,0,68,86,106.0,0.979167,Eighth,G#4
387,Left,1,45,87,106.5,0.479167,Sixteenth,A2
389,Left,1,47,88,107.0,0.479167,Sixteenth,B2
388,Right,0,57,88,107.0,0.979167,Eighth,F#4_D#4_A3
392,Left,1,48,89,107.5,0.479167,Sixteenth,C3
393,Right,0,57,80,108.0,2.979167,Eighth,F#4_C#4_A3
396,Left,1,49,80,108.0,3.479167,DottedQuarter,C#3_C#2
398,Right,0,64,80,109.0,0.979167,Eighth,G3_E4
400,Right,0,65,80,110.0,0.979167,Eighth,G#3_F4
402,Right,0,65,80,111.0,1.479167,DottedEighth,G#3_F4_C#4
405,Left,1,49,80,111.5,0.479167,Sixteenth,C#3
406,Left,1,53,80,112.0,0.479167,Sixteenth,F3
407,Right,0,68,80,112.5,0.479167,Sixteenth,G#4
408,Left,1,56,80,112.5,0.479167,Sixteenth,G#3
410,Right,0,71,80,113.0,0.479167,Sixteenth,B4
409,Left,1,59,80,113.0,0.479167,Sixteenth,B3
412,Right,0,74,80,113.5,0.479167,Sixteenth,D5
411,Left,1,62,80,113.5,0.479167,Sixteenth,D4
414,Right,0,74,80,114.0,1.979167,Eighth,G#4_F4_D5_D4
413,Left,1,37,80,114.0,0.979167,Eighth,C#3_C#2
419,Left,1,53,80,115.0,0.979167,Eighth,F3_F2_C#3
422,Right,0,71,80,115.0,0.979167,Eighth,G#4_B4
424,Left,1,42,80,116.0,0.979167,Eighth,F#3_F#2_C#3
426,Right,0,69,80,116.0,0.979167,Eighth,C#5_A4
433,Left,1,56,80,117.0,1.479167,DottedEighth,G#3_G#2_C#3
429,Right,0,73,80,117.0,1.979167,Quarter,G#4_F4_D4_C#5
436,Right,0,71,80,118.0,0.979167,Eighth,B4
437,Left,1,45,80,118.5,0.479167,Sixteenth,A3_A2
442,Left,1,47,80,119.0,0.479167,Sixteenth,B3_B2
439,Right,0,69,80,119.0,0.979167,Eighth,F#4_D#4_A4
444,Left,1,48,80,119.5,0.479167,Sixteenth,C4_C3
449,Left,1,49,80,120.0,1.979167,Quarter,C#3
446,Right,0,60,80,120.0,1.979167,Eighth,F#4_D#4_C4_A4
451,Left,1,57,80,121.0,0.979167,Eighth,F#3_A3
453,Right,0,63,80,121.0,0.979167,Eighth,D#4_C4
455,Right,0,65,80,122.0,0.979167,Eighth,G#4_F4_C#4
457,Left,1,53,80,122.0,0.979167,Eighth,G#3_F3_C#3
462,Left,1,53,80,123.0,0.979167,Eighth,G#3_F3_C#3
461,Right,0,68,80,123.0,0.979167,Eighth,G#4_F4_C#4
467,Left,1,49,80,124.0,0.979167,Eighth,G3_E3_C#3_A#3
471,Right,0,67,80,124.0,0.979167,Eighth,G4_E4
475,Right,0,62,80,125.0,0.979167,Eighth,D4
473,Left,1,55,80,125.0,0.979167,Eighth,G3_D3_B3
477,Right,0,67,80,126.0,0.479167,Sixteenth,G4
478,Left,1,59,80,126.0,2.979167,DottedQuarter,G2_D3_B3
481,Right,0,83,80,126.5,1.395833,DottedEighth,B5
482,Right,0,81,80,128.0,0.979167,Eighth,A5
484,Right,0,81,80,129.0,0.979167,Eighth,A5
483,Left,1,62,80,129.0,2.979167,DottedQuarter,G3_D4_B2
487,Right,0,79,84,130.0,0.979167,Eighth,G6_G5
489,Right,0,78,89,131.0,0.979167,Eighth,F#6_F#5
493,Right,0,90,94,132.0,0.979167,Eighth,F#6_F#5
491,Left,1,48,94,132.0,2.979167,DottedQuarter,G3_E4_C3
496,Right,0,88,99,133.0,0.979167,Eighth,E6_E5
498,Right,0,90,100,134.0,0.979167,Eighth,F#6_F#5
500,Right,0,78,100,135.0,0.979167,Eighth,F#6_F#5
501,Left,1,62,100,135.0,1.979167,Eighth,G3_D4_B2
507,Left,1,55,90,136.0,0.979167,Eighth,G3
505,Right,0,91,90,136.0,1.479167,DottedEighth,G6_G5
508,Left,1,54,80,137.0,0.979167,Eighth,F#3_D3
510,Right,0,78,80,137.5,0.479167,Sixteenth,F#5_F#4
514,Left,1,50,80,138.0,0.979167,Eighth,F#3_D3
512,Right,0,66,80,138.0,0.979167,Eighth,F#5_F#4
516,Left,1,54,80,139.0,0.979167,Eighth,F#3_C#3_A3
517,Right,0,69,80,139.0,0.979167,Eighth,A5_A4
521,Left,1,54,80,140.0,0.979167,Eighth,F#3_C#4_C#3_A3
522,Right,0,85,80,140.0,0.979167,Eighth,C#6_C#5
527,Left,1,56,80,141.0,1.979167,Quarter,G#3_F3_C#4_C#3
528,Right,0,85,80,141.0,1.979167,Quarter,C#6_C#5
534,Left,1,54,80,143.0,0.979167,Eighth,F#3_C#4_A3
533,Right,0,85,80,143.0,0.979167,Eighth,C#6_C#5
540,Left,1,61,80,144.0,0.979167,Eighth,F#3_C#4_A3
538,Right,0,73,80,144.0,0.979167,Eighth,C#6_C#5
543,Left,1,62,80,145.0,1.979167,Eighth,D4_B2
544,Right,0,86,80,145.0,0.979167,Eighth,D6_D5
547,Left,1,55,80,146.0,0.979167,Eighth,G3
548,Right,0,67,80,146.0,0.979167,Eighth,G5_G4
551,Right,0,71,80,147.0,0.979167,Eighth,B5_B4
550,Left,1,59,80,147.0,0.979167,Eighth,B3
553,Left,1,49,80,148.0,0.979167,Eighth,C#3_C#2
554,Right,0,61,80,148.0,0.979167,Eighth,C#5_C#4
558,Left,1,53,80,149.0,0.979167,Eighth,F3
557,Right,0,77,80,149.0,0.979167,Eighth,F5_F4
560,Right,0,78,80,150.0,0.979167,Eighth,F#5_F#4
562,Left,1,42,80,150.0,0.979167,Eighth,F#3_F#2_C#3
566,Left,1,41,80,151.0,1.979167,Quarter,F2_C#3
565,Right,0,73,80,151.0,1.479167,DottedEighth,C#6_C#5
569,Left,1,56,80,151.083333,1.979167,Quarter,G#3
570,Right,0,80,80,152.5,0.479167,Sixteenth,G#5_G#4
575,Right,0,69,80,153.0,0.979167,Eighth,A5_A4
572,Left,1,49,80,153.0,0.979167,Eighth,F#3_F#2_C#3
577,Right,0,69,80,154.0,1.479167,DottedEighth,A5_A4
579,Left,1,57,80,154.0,1.979167,DottedEighth,C#3_A3
582,Right,0,77,80,155.5,0.479167,Sixteenth,F5_F4
581,Left,1,53,80,155.5,0.479167,Sixteenth,F3
584,Left,1,42,70,157.0,0.479167,Sixteenth,F#2
585,Left,1,49,70,158.0,0.479167,Sixteenth,F#3_C#4_C#3_A3
589,Left,1,49,70,159.0,0.479167,Sixteenth,F#3_C#4_C#3_A3
593,Left,1,42,70,160.0,0.479167,Sixteenth,F#2
598,Right,0,73,80,161.0,1.479167,DottedEighth,C#5
594,Left,1,61,70,161.0,0.479167,Sixteenth,F#3_C#4_C#3_A3
599,Left,1,61,70,162.0,0.479167,Sixteenth,F#3_C#4_C#3_A3
603,Right,0,73,80,162.5,0.979167,Eighth,C#5
604,Left,1,42,70,163.0,0.479167,Sixteenth,F#2
605,Right,0,73,80,163.5,0.979167,Eighth,C#5
607,Left,1,61,70,164.0,0.479167,Sixteenth,F#3_C#4_C#3_A3
606,Right,0,78,80,164.0,0.979167,Eighth,F#5
611,Right,0,73,80,164.5,0.979167,Eighth,C#5
612,Right,0,78,80,165.0,0.979167,Eighth,F#5
613,Left,1,54,70,165.0,0.479167,Sixteenth,F#3_C#4_C#3_A3
617,Right,0,73,80,165.5,0.979167,Eighth,C#5
618,Right,0,81,80,166.0,0.979167,Eighth,A5
619,Left,1,42,70,166.0,0.479167,Sixteenth,F#2
620,Right,0,73,80,166.5,0.979167,Eighth,C#5
621,Left,1,49,70,167.0,0.479167,Sixteenth,F#3_C#4_C#3_A3
623,Right,0,85,80,167.0,0.979167,Eighth,C#6
626,Right,0,73,80,167.5,0.479167,Sixteenth,C#5
627,Left,1,56,70,168.0,0.479167,Sixteenth,G#3_F3_C#4_C#3_B3
630,Right,0,85,80,168.0,1.979167,Quarter,C#6
633,Right,0,83,80,168.5,0.979167,Eighth,F5_B5
635,Left,1,44,70,169.0,0.479167,Sixteenth,G#2
636,Right,0,77,80,169.5,1.479167,DottedEighth,F5_B5
638,Left,1,56,70,170.0,0.479167,Sixteenth,G#3_F3_D4_B3
639,Right,0,88,80,170.0,0.479167,Sixteenth,E6
643,Right,0,86,80,170.5,0.479167,Sixteenth,D6
647,Right,0,86,80,171.0,0.979167,Eighth,D6
644,Left,1,53,70,171.0,0.479167,Sixteenth,G#3_F3_D4_B3
649,Right,0,71,80,171.5,0.979167,Eighth,B4
651,Right,0,77,80,172.0,0.979167,Eighth,F5
650,Left,1,44,70,172.0,0.479167,Sixteenth,G#2
652,Right,0,71,80,172.5,0.979167,Eighth,B4
654,Left,1,53,70,173.0,0.479167,Sixteenth,G#3_F3_D4_B3
653,Right,0,83,80,173.0,0.979167,Eighth,B5
658,Right,0,71,80,173.5,0.979167,Eighth,B4
659,Right,0,83,80,174.0,0.979167,Eighth,B5
660,Left,1,49,70,174.0,0.479167,Sixteenth,G#3_F3_D4_C#3_B3
665,Right,0,65,80,174.5,0.979167,Eighth,F4
667,Right,0,71,80,175.0,0.979167,Eighth,B4
666,Left,1,44,70,175.0,0.479167,Sixteenth,G#2
668,Right,0,65,80,175.5,0.979167,Eighth,F4
673,Right,0,73,80,176.0,0.479167,Sixteenth,C#5
669,Left,1,56,70,176.0,0.479167,Sixteenth,G#3_F3_D4_B3
674,Right,0,74,80,176.5,0.979167,Sixteenth,F4_D5
680,Right,0,74,80,177.0,0.979167,Eighth,D5
676,Left,1,62,70,177.0,0.479167,Sixteenth,G#3_F3_D4_B3
681,Right,0,65,80,177.5,0.979167,Eighth,F4_B4
683,Left,1,44,70,178.0,0.479167,Sixteenth,G#2
684,Right,0,73,80,178.0,1.479167,DottedEighth,C#5
685,Right,0,65,80,178.5,0.979167,Eighth,F4_B4
687,Left,1,61,70,179.0,0.479167,Sixteenth,G#3_F3_C#4_B3
691,Right,0,71,80,179.5,0.479167,Sixteenth,F4_B4
693,Left,1,61,70,180.0,0.479167,Sixteenth,F#3_C#4_C#3_A3
694,Right,0,71,80,180.0,0.479167,Sixteenth,B4
698,Right,0,69,81,180.5,0.979167,Eighth,A4
699,Left,1,42,73,181.0,0.479167,Sixteenth,F#2
700,Right,0,73,85,181.5,0.979167,Eighth,C#5
701,Left,1,61,77,182.0,0.479167,Sixteenth,F#3_C#4_C#3_A3
705,Right,0,78,88,182.5,0.8125,DottedSixteenth,F#5
706,Left,1,61,80,183.0,0.479167,Sixteenth,F#3_C#4_C#3_A3
710,Right,0,81,91,183.333333,0.3125,TripletSixteenth,A5
711,Right,0,85,92,183.666667,0.645833,Triplet,C#6
712,Left,1,42,84,184.0,0.479167,Sixteenth,F#2
713,Right,0,90,95,184.333333,0.3125,TripletSixteenth,F#6
714,Right,0,92,96,184.666667,0.3125,TripletSixteenth,G#6
715,Left,1,54,87,185.0,0.479167,Sixteenth,F#3_C#4_C#3_A3
716,Right,0,93,97,185.0,0.3125,TripletSixteenth,A6
720,Right,0,90,98,185.333333,0.3125,TripletSixteenth,F#6
721,Right,0,85,99,185.666667,0.3125,TripletSixteenth,C#6
722,Left,1,61,90,186.0,0.479167,Sixteenth,G#3_F3_C#4_C#3_B3
727,Right,0,85,100,186.0,0.104167,SixtyFourth,C#6
728,Right,0,86,100,186.125,0.104167,SixtyFourth,D6
729,Right,0,85,100,186.25,0.104167,SixtyFourth,C#6
730,Right,0,86,100,186.375,0.104167,SixtyFourth,D6
731,Right,0,85,100,186.5,0.104167,SixtyFourth,C#6
732,Right,0,86,100,186.625,0.104167,SixtyFourth,D6
733,Right,0,85,100,186.75,0.104167,SixtyFourth,C#6
734,Right,0,86,100,186.875,0.104167,SixtyFourth,D6
735,Left,1,44,90,187.0,0.479167,Sixteenth,G#2
736,Right,0,85,100,187.0,0.104167,SixtyFourth,C#6
737,Right,0,86,100,187.125,0.104167,SixtyFourth,D6
738,Right,0,85,100,187.25,0.104167,SixtyFourth,C#6
739,Right,0,86,100,187.375,0.104167,SixtyFourth,D6
740,Right,0,85,100,187.5,0.104167,SixtyFourth,C#6
741,Right,0,86,100,187.625,0.104167,SixtyFourth,D6
742,Right,0,84,100,187.75,0.104167,SixtyFourth,C6
743,Right,0,85,100,187.875,0.104167,SixtyFourth,C#6
748,Right,0,88,100,188.0,0.3125,TripletSixteenth,E6
744,Left,1,53,90,188.0,0.479167,Sixteenth,G#3_F3_D4_B3
749,Right,0,85,100,188.333333,0.3125,TripletSixteenth,C#6
750,Right,0,86,100,188.666667,0.3125,TripletSixteenth,D6
752,Right,0,86,100,189.0,0.3125,TripletSixteenth,D6
751,Left,1,62,90,189.0,0.479167,Sixteenth,G#3_F3_D4_B3
756,Right,0,76,100,189.333333,0.3125,TripletSixteenth,E5
757,Right,0,77,96,189.666667,0.3125,TripletSixteenth,F5
759,Left,1,44,82,190.0,0.479167,Sixteenth,G#2
758,Right,0,77,92,190.0,0.3125,TripletSixteenth,F5
760,Right,0,86,88,190.333333,0.3125,TripletSixteenth,D6
761,Right,0,85,83,190.666667,0.3125,TripletSixteenth,C#6
762,Left,1,56,69,191.0,0.479167,Sixteenth,G#3_F3_D4_B3
763,Right,0,85,79,191.0,0.3125,TripletSixteenth,C#6
767,Right,0,82,75,191.333333,0.3125,TripletSixteenth,A#5
768,Right,0,83,71,191.666667,0.3125,TripletSixteenth,B5
770,Left,1,59,70,192.0,0.479167,Sixteenth,G#3_F3_D4_C#3_B3
769,Right,0,83,70,192.0,0.229167,ThirtySecond,B5
775,Right,0,65,70,192.25,0.229167,ThirtySecond,F4
776,Right,0,66,70,192.5,0.229167,ThirtySecond,F#4
777,Right,0,68,70,192.75,0.229167,ThirtySecond,G#4
779,Right,0,69,70,193.0,0.229167,ThirtySecond,A4
778,Left,1,44,70,193.0,0.479167,Sixteenth,G#2
780,Right,0,70,70,193.25,0.229167,ThirtySecond,A#4
781,Right,0,71,70,193.5,0.229167,ThirtySecond,B4
782,Right,0,72,70,193.75,0.229167,ThirtySecond,C5
784,Left,1,59,70,194.0,0.479167,Sixteenth,G#3_F3_D4_B3
783,Right,0,73,70,194.0,0.3125,TripletSixteenth,C#5
788,Right,0,74,70,194.333333,0.3125,TripletSixteenth,D5
789,Right,0,75,70,194.666667,0.3125,TripletSixteenth,D#5
790,Left,1,59,70,195.0,0.479167,Sixteenth,G#3_F3_D4_B3
794,Right,0,76,70,195.0,0.3125,TripletSixteenth,E5
795,Right,0,73,70,195.333333,0.3125,TripletSixteenth,C#5
796,Right,0,74,70,195.666667,0.3125,TripletSixteenth,D5
797,Left,1,44,70,196.0,0.479167,Sixteenth,G#2
798,Right,0,74,70,196.0,0.229167,ThirtySecond,D5
799,Right,0,83,71,196.25,0.229167,ThirtySecond,B5
800,Right,0,80,72,196.5,0.229167,ThirtySecond,G#5
801,Right,0,77,74,196.75,0.229167,ThirtySecond,F5
802,Right,0,74,75,197.0,0.229167,ThirtySecond,D5
803,Left,1,53,70,197.0,0.479167,Sixteenth,G#3_F3_C#4_B3
807,Right,0,72,77,197.25,0.229167,ThirtySecond,C5
808,Right,0,74,78,197.5,0.229167,ThirtySecond,D5
809,Right,0,73,79,197.75,0.229167,ThirtySecond,C#5
810,Left,1,61,70,198.0,0.479167,Sixteenth,F#3_C#4_A3
811,Right,0,73,80,198.0,0.979167,Eighth,C#5
814,Right,0,66,80,198.5,0.979167,Eighth,F#4
816,Left,1,45,70,199.0,0.479167,Sixteenth,A2
815,Right,0,78,80,199.0,1.479167,DottedEighth,F#5
817,Right,0,66,80,199.5,0.979167,Eighth,F#4
818,Left,1,57,70,200.0,0.479167,Sixteenth,F#3_C#4_A3
821,Right,0,73,100,200.5,0.479167,Sixteenth,C#5
822,Left,1,62,70,201.0,0.479167,Sixteenth,G#3_F3_D4_B3
826,Right,0,74,100,201.0,1.979167,Quarter,D5
827,Right,0,65,100,201.5,0.979167,Eighth,F4_B4
829,Left,1,44,70,202.0,0.479167,Sixteenth,G#2
830,Right,0,71,80,202.5,0.979167,Eighth,F4_B4
832,Right,0,73,80,203.0,0.979167,Eighth,C#5
833,Left,1,61,70,203.0,0.479167,Sixteenth,G#3_F3_C#4_B3
837,Right,0,65,80,203.5,0.479167,Sixteenth,F4_B4
839,Right,0,73,80,204.0,0.3125,TripletSixteenth,C#5
840,Left,1,54,70,204.0,0.479167,Sixteenth,F#3_C#4_A3
843,Right,0,85,82,204.333333,0.3125,TripletSixteenth,C#6
844,Right,0,80,84,204.666667,0.3125,TripletSixteenth,G#5
846,Right,0,83,87,205.0,0.229167,ThirtySecond,B5
845,Left,1,45,70,205.0,0.479167,Sixteenth,A2
847,Right,0,81,89,205.25,0.229167,ThirtySecond,A5
848,Right,0,77,91,205.5,0.229167,ThirtySecond,F5
849,Right,0,78,93,205.75,0.229167,ThirtySecond,F#5
850,Right,0,80,94,206.0,0.229167,ThirtySecond,G#5
851,Left,1,49,70,206.0,0.479167,Sixteenth,F#3_C#4_C#3_A3
855,Right,0,78,90,206.25,0.229167,ThirtySecond,F#5
856,Right,0,81,89,206.5,0.145833,TripletThirtySecond,A5
857,Right,0,78,87,206.666667,0.145833,TripletThirtySecond,F#5
858,Right,0,73,86,206.833333,0.145833,TripletThirtySecond,C#5
859,Right,0,76,85,207.0,0.479167,Sixteenth,E5
860,Left,1,49,70,207.0,0.479167,Sixteenth,G#3_F3_C#4_C#3_B3
865,Right,0,71,81,207.5,0.979167,Eighth,F4_D#5_B4
869,Left,1,44,70,208.0,0.479167,Sixteenth,G#2
868,Right,0,74,80,208.0,0.479167,Sixteenth,D5
870,Right,0,74,80,208.5,0.979167,Eighth,F4_D5_B4
873,Left,1,61,70,209.0,0.479167,Sixteenth,G#3_C#4_B3
876,Right,0,65,80,209.5,1.979167,Sixteenth,F4_C#5_B4
879,Left,1,57,70,210.0,0.479167,Sixteenth,C#4_A3
881,Right,0,66,80,210.5,0.979167,Eighth,F#4
882,Left,1,45,72,211.0,0.479167,Sixteenth,A2
883,Right,0,78,82,211.5,0.979167,Eighth,F#5
884,Left,1,61,74,212.0,0.479167,Sixteenth,C#4_A#3
886,Right,0,78,84,212.5,1.979167,Quarter,F#5
887,Left,1,61,76,213.0,0.479167,Sixteenth,C#4_A#3
889,Right,0,66,85,213.5,0.979167,Eighth,F#4
890,Left,1,46,79,214.0,0.479167,Sixteenth,A#2
891,Right,0,78,87,214.5,0.979167,Eighth,F#5
892,Left,1,63,81,215.0,0.479167,Sixteenth,D#4_B3
894,Right,0,78,89,215.5,1.979167,Quarter,F#5
895,Left,1,63,83,216.0,0.479167,Sixteenth,D#4_B3
897,Right,0,71,91,216.5,0.979167,Eighth,B4
898,Left,1,47,85,217.0,0.479167,Sixteenth,B2
899,Right,0,83,92,217.5,0.979167,Eighth,B5
900,Left,1,64,88,218.0,0.479167,Sixteenth,E4_C#4
902,Right,0,83,94,218.5,1.979167,Quarter,B5
903,Left,1,61,90,219.0,0.479167,Sixteenth,E4_C#4
905,Right,0,71,96,219.5,0.979167,Eighth,B4
906,Left,1,49,92,220.0,0.479167,Sixteenth,C#3
907,Right,0,83,97,220.5,0.979167,Eighth,B5_B4
909,Left,1,63,95,221.0,0.479167,Sixteenth,F#4_D#4
911,Right,0,71,99,221.5,0.979167,Eighth,B5_B4
913,Left,1,63,97,222.0,0.479167,Sixteenth,F#4_D#4
915,Right,0,83,101,222.5,0.979167,Eighth,B5_B4
917,Left,1,51,98,222.5,0.479167,Sixteenth,D#3
918,Left,1,67,99,223.0,0.479167,Sixteenth,G4_E4
920,Right,0,83,103,223.5,0.979167,Eighth,B5_B4
922,Left,1,52,100,223.5,0.479167,Sixteenth,E3
923,Left,1,66,101,224.0,0.479167,Sixteenth,F#4_A4
925,Left,1,54,103,224.5,0.479167,Sixteenth,F#3
926,Right,0,71,104,224.5,0.979167,Sixteenth,B5_B4
928,Left,1,67,104,225.0,0.479167,Sixteenth,G4_B4
930,Left,1,55,105,225.5,0.479167,Sixteenth,G3
931,Right,0,76,106,225.5,0.979167,Eighth,E6_E5_B5
934,Left,1,68,106,226.0,0.479167,Sixteenth,G#4_B4
940,Left,1,56,107,226.5,0.479167,Sixteenth,G#3
936,Right,0,88,108,226.5,0.979167,Eighth,E6_E5_D6_B5
941,Left,1,73,108,227.0,0.479167,Sixteenth,C#5_A4
943,Left,1,57,109,227.5,0.479167,Sixteenth,A3
944,Right,0,81,109,227.5,1.479167,Sixteenth,E6_E5_C#6_A5
948,Left,1,69,80,228.0,0.979167,Eighth,C#5_A4
950,Right,0,88,80,228.0,0.479167,Sixteenth,E6
951,Right,0,80,80,228.5,0.479167,Sixteenth,G#5
954,Right,0,83,80,229.0,0.979167,Sixteenth,E5_B5
952,Left,1,57,80,229.0,1.979167,Quarter,C#4_A3
956,Right,0,81,80,229.5,0.479167,Sixteenth,A5
958,Right,0,80,80,230.0,1.479167,Sixteenth,G#5_F#5
957,Left,1,63,80,230.0,1.479167,DottedEighth,D#4
960,Right,0,81,80,230.5,0.479167,Sixteenth,A5
961,Left,1,57,80,231.0,2.979167,DottedQuarter,A3
962,Right,0,84,80,231.0,0.979167,Eighth,C6
964,Right,0,78,80,231.5,0.479167,Sixteenth,F#5
963,Left,1,63,80,231.5,0.479167,Sixteenth,D#4
966,Right,0,83,80,232.0,2.479167,TiedQuarter-Sixteenth,B5_A5
965,Left,1,66,80,232.0,0.479167,Sixteenth,F#4
968,Right,0,79,80,232.5,0.479167,Sixteenth,G5
969,Left,1,64,80,232.5,0.479167,Sixteenth,E4
970,Right,0,78,80,233.0,0.479167,Sixteenth,F#5
971,Left,1,63,80,233.0,0.479167,Sixteenth,D#4
972,Left,1,64,80,233.5,0.479167,Sixteenth,E4
973,Right,0,79,80,233.5,0.479167,Sixteenth,G5
975,Left,1,57,80,234.0,2.979167,DottedQuarter,D4_A3
974,Right,0,77,80,234.0,0.979167,Eighth,F5
977,Right,0,80,80,234.5,0.479167,Sixteenth,G#5
980,Left,1,61,80,235.0,2.479167,TiedQuarter-Sixteenth,C#4
978,Right,0,76,80,235.0,2.479167,TiedQuarter-Sixteenth,E5_A#5
981,Right,0,81,80,235.5,0.479167,Sixteenth,A5
982,Right,0,80,80,236.0,0.479167,Sixteenth,G#5
983,Right,0,81,80,236.5,0.479167,Sixteenth,A5
985,Right,0,83,80,237.0,0.979167,Eighth,B5
984,Left,1,57,80,237.0,2.979167,DottedQuarter,A3
986,Left,1,61,80,237.5,0.479167,Sixteenth,C#4
987,Right,0,76,80,237.5,0.479167,Sixteenth,E5
989,Left,1,64,80,238.0,0.479167,Sixteenth,E4
988,Right,0,79,80,238.0,2.479167,Sixteenth,G5_A5
992,Left,1,62,80,238.5,0.479167,Sixteenth,D4
991,Right,0,78,80,238.5,0.479167,Sixteenth,F#5
994,Left,1,61,80,239.0,0.479167,Sixteenth,C#4
993,Right,0,77,80,239.0,0.479167,Sixteenth,F5
996,Left,1,62,80,239.5,0.479167,Sixteenth,D4
995,Right,0,78,80,239.5,0.479167,Sixteenth,F#5
997,Left,1,57,80,240.0,1.979167,Quarter,C4_A3
999,Right,0,75,80,240.0,0.979167,Eighth,D#5
1000,Left,1,63,80,240.083333,0.979167,Eighth,D#4
1001,Right,0,78,80,240.5,0.479167,Sixteenth,F#5
1003,Right,0,76,80,241.0,0.979167,Eighth,E5_A5
1002,Left,1,61,80,241.0,0.979167,Eighth,E4_C#4
1006,Right,0,79,80,241.5,0.479167,Sixteenth,G5
1009,Left,1,63,80,242.0,1.979167,Sixteenth,D#4_A#3
1007,Right,0,73,80,242.0,1.979167,Quarter,F#5_C#5
1012,Right,0,79,80,242.5,0.479167,Sixteenth,G5
1011,Left,1,64,80,242.5,0.479167,Sixteenth,E4
1014,Right,0,79,80,243.0,0.479167,Sixteenth,G5
1013,Left,1,64,80,243.0,0.479167,Sixteenth,E4
1015,Right,0,76,80,243.5,0.479167,Sixteenth,E5
1016,Left,1,61,80,243.5,0.479167,Sixteenth,C#4
1017,Left,1,59,80,244.0,0.979167,Eighth,E4_B3
1018,Right,0,74,80,244.0,0.979167,Eighth,G5_D5
1021,Left,1,62,80,244.5,0.479167,Sixteenth,D4
1022,Right,0,78,80,244.5,0.479167,Sixteenth,F#5
1025,Left,1,61,80,245.0,1.979167,Sixteenth,G#3_C#4
1023,Right,0,71,80,245.0,1.479167,DottedEighth,E5_B4
1028,Right,0,77,80,245.5,0.479167,Sixteenth,F5
1027,Left,1,62,80,245.5,0.479167,Sixteenth,D4
1030,Left,1,62,80,246.0,0.979167,Eighth,D4
1029,Right,0,77,80,246.0,0.979167,Eighth,F5
1031,Right,0,65,80,246.5,0.479167,Sixteenth,F4
1035,Left,1,61,80,247.0,0.979167,Eighth,G3_C#4
1032,Right,0,76,80,247.0,0.979167,Eighth,E5_E4_A#4
1037,Right,0,69,80,247.5,0.479167,Sixteenth,A4
1040,Right,0,68,80,248.0,0.979167,Eighth,G#4_F#4_D5
1038,Left,1,54,80,248.0,0.979167,Eighth,F#3_D4_A3
1044,Right,0,69,80,248.5,0.479167,Sixteenth,A4
1047,Right,0,73,80,249.0,0.979167,Sixteenth,G5_C#5
1045,Left,1,45,80,249.0,0.979167,Eighth,E3_A2
1050,Right,0,76,80,249.5,0.479167,Sixteenth,E5
1049,Left,1,49,80,249.5,0.479167,Sixteenth,C#3
1051,Left,1,52,80,250.0,0.979167,Sixteenth,E3_B2
1052,Right,0,78,80,250.0,0.979167,Eighth,F#5_D5
1055,Left,1,50,80,250.5,0.479167,Sixteenth,D3
1056,Right,0,83,80,251.0,0.979167,Eighth,F5_B5_B4
1059,Left,1,44,80,251.0,0.979167,Eighth,G#2_C#3
1061,Left,1,50,80,251.5,0.479167,Sixteenth,D3
1062,Right,0,71,80,252.0,0.979167,Eighth,G#5_D5_B5_B4
1066,Left,1,50,80,252.0,0.979167,Sixteenth,F2_D3
1068,Left,1,44,80,252.5,0.479167,Sixteenth,G#2
1069,Right,0,69,80,253.0,0.979167,Eighth,D5_A5_A4
1072,Left,1,47,80,253.0,1.479167,Sixteenth,F#2_B2
1074,Left,1,45,80,253.5,0.479167,Sixteenth,A2
1075,Right,0,86,80,254.0,1.979167,Quarter,D6_D5
1076,Left,1,44,80,254.0,0.479167,Sixteenth,G#2
1078,Left,1,45,80,254.5,0.479167,Sixteenth,F2_A2
1082,Right,0,79,80,255.0,0.979167,Eighth,G5
1080,Left,1,40,80,255.0,0.479167,Sixteenth,E2_A2
1083,Left,1,32,80,255.5,0.479167,Sixteenth,G#1
1085,Right,0,73,80,256.0,0.979167,Eighth,G5_E5_C#6_C#5
1084,Left,1,34,80,256.0,0.479167,Sixteenth,A#1
1089,Left,1,33,80,256.5,0.479167,Sixteenth,A1
1090,Right,0,79,80,257.0,2.479167,TiedQuarter-Sixteenth,G6_G5_E6_C#6
1093,Left,1,32,80,257.0,0.479167,Sixteenth,G#1
1095,Left,1,33,80,257.5,0.479167,Sixteenth,A1
1096,Left,1,33,80,258.0,0.479167,Sixteenth,A1
1097,Left,1,52,80,258.5,0.479167,Sixteenth,E3
1098,Left,1,49,80,259.0,0.479167,Sixteenth,C#3
1100,Left,1,55,80,259.5,0.479167,Sixteenth,G3
1099,Right,0,67,80,259.5,0.479167,Sixteenth,G4
1102,Left,1,52,80,260.0,0.479167,Sixteenth,E3
1101,Right,0,64,80,260.0,0.479167,Sixteenth,E4
1104,Left,1,58,80,260.5,0.479167,Sixteenth,A#3
1103,Right,0,70,80,260.5,0.479167,Sixteenth,A#4
1105,Right,0,68,80,261.0,0.479167,Sixteenth,G#4
1106,Left,1,56,80,261.0,0.479167,Sixteenth,G#3
1107,Right,0,69,80,261.5,0.479167,Sixteenth,A4
1108,Left,1,57,80,261.5,0.479167,Sixteenth,A3
1109,Left,1,52,80,262.0,0.479167,Sixteenth,E3
1110,Right,0,64,80,262.0,0.479167,Sixteenth,E4
1111,Left,1,59,80,262.5,0.479167,Sixteenth,B3
1112,Right,0,71,80,262.5,0.479167,Sixteenth,B4
1114,Right,0,69,80,263.0,0.479167,Sixteenth,A4
1113,Left,1,57,80,263.0,0.479167,Sixteenth,A3
1116,Right,0,67,80,263.5,0.479167,Sixteenth,G4
1115,Left,1,55,80,263.5,0.479167,Sixteenth,G3
1117,Right,0,66,80,264.0,0.979167,Eighth,F#4
1118,Left,1,54,80,264.0,4.979167,Sixteenth,F#3_D3
1120,Left,1,59,80,264.5,0.479167,Sixteenth,B3
1121,Left,1,56,80,265.0,0.479167,Sixteenth,G#3
1122,Left,1,57,80,265.5,0.479167,Sixteenth,A3
1123,Left,1,54,80,266.0,0.479167,Sixteenth,F#3
1124,Right,0,38,80,266.0,2.979167,DottedQuarter,D2
1125,Left,1,59,80,266.5,0.479167,Sixteenth,B3
1126,Left,1,56,80,267.0,0.479167,Sixteenth,G#3
1127,Left,1,57,80,267.5,0.479167,Sixteenth,A3
1128,Left,1,54,80,268.0,0.479167,Sixteenth,F#3
1129,Left,1,59,80,268.5,0.479167,Sixteenth,B3
1130,Right,0,38,80,269.0,0.479167,Sixteenth,D2
1131,Left,1,54,80,269.0,0.979167,Sixteenth,F#3_D3
1134,Right,0,33,80,269.5,0.479167,Sixteenth,A1
1133,Left,1,57,80,269.5,0.479167,Sixteenth,A3
1135,Right,0,33,80,270.0,2.979167,DottedQuarter,A1
1136,Left,1,49,80,270.0,0.979167,Eighth,E3_C#3
1138,Left,1,57,80,270.5,0.479167,Sixteenth,A3
1139,Left,1,50,80,271.0,0.979167,Eighth,F#3_D3
1141,Left,1,57,80,271.5,0.479167,Sixteenth,A3
1142,Left,1,55,80,272.0,0.979167,Sixteenth,G3_E3
1144,Left,1,57,80,272.5,0.479167,Sixteenth,A3
1147,Right,0,33,80,273.0,1.979167,Quarter,A1
1145,Left,1,55,80,273.0,0.979167,Sixteenth,G3_E3
1148,Left,1,57,80,273.5,0.479167,Sixteenth,A3
1149,Left,1,50,80,274.0,0.979167,Eighth,F#3_D3
1151,Left,1,57,80,274.5,0.479167,Sixteenth,A3
1152,Right,0,33,80,275.0,0.979167,Eighth,A1
1153,Left,1,52,80,275.0,0.979167,Sixteenth,E3_C#3
1155,Left,1,57,80,275.5,0.479167,Sixteenth,A3
1157,Right,0,30,80,276.0,0.979167,Eighth,F#1
1156,Left,1,50,80,276.0,4.979167,Half,F#3_D3
1159,Left,1,59,80,276.5,0.479167,Sixteenth,B3
1160,Left,1,56,80,277.0,0.479167,Sixteenth,G#3
1161,Left,1,57,80,277.5,0.479167,Sixteenth,A3
1163,Left,1,54,80,278.0,0.479167,Sixteenth,F#3
1162,Right,0,86,80,278.0,2.979167,DottedQuarter,D6_D5
1165,Left,1,59,80,278.5,0.479167,Sixteenth,B3
1166,Left,1,56,80,279.0,0.479167,Sixteenth,G#3
1167,Left,1,57,80,279.5,0.479167,Sixteenth,A3
1168,Left,1,54,80,280.0,0.479167,Sixteenth,F#3
1169,Left,1,59,80,280.5,0.479167,Sixteenth,B3
1171,Left,1,50,80,281.0,0.979167,Eighth,F#3_D3
1170,Right,0,74,80,281.0,0.479167,Sixteenth,D6_D5
1174,Right,0,81,80,281.5,0.479167,Sixteenth,A5_A4
1176,Left,1,57,80,281.5,0.479167,Sixteenth,A3
1179,Left,1,49,80,282.0,0.979167,Eighth,E3_C#3
1177,Right,0,81,80,282.0,2.979167,DottedQuarter,A5_A4
1181,Left,1,57,80,282.5,0.479167,Sixteenth,A3
1182,Left,1,54,80,283.0,0.979167,Sixteenth,F#3_D3
1184,Left,1,57,80,283.5,0.479167,Sixteenth,A3
1185,Left,1,55,80,284.0,0.979167,Sixteenth,G3_E3
1187,Left,1,57,80,284.5,0.479167,Sixteenth,A3
1188,Left,1,55,80,285.0,0.979167,Sixteenth,G3_E3
1190,Right,0,81,80,285.0,1.979167,Quarter,A5_A4
1192,Left,1,57,80,285.5,0.479167,Sixteenth,A3
1193,Left,1,50,80,286.0,0.979167,Eighth,F#3_D3
1195,Left,1,57,80,286.5,0.479167,Sixteenth,A3
1196,Left,1,49,80,287.0,0.979167,Eighth,E3_C#3
1197,Right,0,81,80,287.0,0.979167,Eighth,A5_A4
1200,Left,1,57,80,287.5,0.479167,Sixteenth,A3
1201,Right,0,78,80,288.0,0.979167,Eighth,F#5_F#4
1203,Left,1,54,80,288.0,4.979167,TripletSixteenth,F#3_D3
1205,Left,1,59,80,288.333333,0.3125,TripletSixteenth,B3
1206,Left,1,57,80,288.666667,0.3125,TripletSixteenth,A3
1207,Left,1,56,80,289.0,0.3125,TripletSixteenth,G#3
1208,Left,1,59,80,289.333333,0.3125,TripletSixteenth,B3
1209,Left,1,57,80,289.666667,0.3125,TripletSixteenth,A3
1210,Left,1,54,80,290.0,0.3125,TripletSixteenth,F#3
1211,Right,0,38,80,290.0,1.979167,Quarter,D2
1212,Left,1,59,80,290.333333,0.3125,TripletSixteenth,B3
1213,Left,1,57,80,290.666667,0.3125,TripletSixteenth,A3
1214,Left,1,56,80,291.0,0.3125,TripletSixteenth,G#3
1215,Left,1,59,80,291.333333,0.3125,TripletSixteenth,B3
1216,Left,1,57,80,291.666667,0.3125,TripletSixteenth,A3
1217,Right,0,38,80,292.0,0.979167,Eighth,D2
1218,Left,1,54,80,292.0,0.3125,TripletSixteenth,F#3
1219,Left,1,59,80,292.333333,0.3125,TripletSixteenth,B3
1220,Left,1,57,80,292.666667,0.3125,TripletSixteenth,A3
1222,Left,1,50,80,293.0,0.979167,Eighth,G#3_D3
1221,Right,0,38,80,293.0,0.3125,TripletSixteenth,D2
1224,Left,1,58,80,293.333333,0.3125,TripletSixteenth,A#3
1225,Right,0,37,80,293.333333,0.3125,TripletSixteenth,C#2
1227,Left,1,57,80,293.666667,0.3125,TripletSixteenth,A3
1226,Right,0,38,80,293.666667,0.3125,TripletSixteenth,D2
1228,Left,1,52,80,294.0,0.979167,TripletSixteenth,E3_C#3
1230,Right,0,33,80,294.0,1.979167,Quarter,A1
1231,Left,1,59,80,294.333333,0.3125,TripletSixteenth,B3
1232,Left,1,57,80,294.666667,0.3125,TripletSixteenth,A3
1233,Left,1,54,80,295.0,0.979167,TripletSixteenth,F#3_D3
1235,Left,1,59,80,295.333333,0.3125,TripletSixteenth,B3
1236,Left,1,57,80,295.666667,0.3125,TripletSixteenth,A3
1237,Left,1,52,80,296.0,0.979167,Eighth,G3_E3
1239,Right,0,33,80,296.0,1.979167,Quarter,A1
1240,Left,1,59,80,296.333333,0.3125,TripletSixteenth,B3
1241,Left,1,57,80,296.666667,0.3125,TripletSixteenth,A3
1242,Left,1,52,80,297.0,0.979167,Eighth,G3_E3
1244,Left,1,59,80,297.333333,0.3125,TripletSixteenth,B3
1245,Left,1,57,80,297.666667,0.3125,TripletSixteenth,A3
1246,Right,0,33,80,298.0,1.979167,Quarter,A1
1247,Left,1,50,80,298.0,0.979167,Eighth,F#3_D3
1249,Left,1,59,80,298.333333,0.3125,TripletSixteenth,B3
1250,Left,1,57,80,298.666667,0.3125,TripletSixteenth,A3
1251,Left,1,49,80,299.0,0.979167,Eighth,E3_C#3
1253,Left,1,59,80,299.333333,0.3125,TripletSixteenth,B3
1254,Left,1,57,80,299.666667,0.3125,TripletSixteenth,A3
1255,Left,1,54,80,300.0,4.979167,TripletSixteenth,F#3_D3
1256,Right,0,30,80,300.0,0.979167,Eighth,F#1
1258,Left,1,59,80,300.333333,0.3125,TripletSixteenth,B3
1259,Left,1,57,80,300.666667,0.3125,TripletSixteenth,A3
1260,Left,1,56,80,301.0,0.3125,TripletSixteenth,G#3
1261,Left,1,59,80,301.333333,0.3125,TripletSixteenth,B3
1262,Left,1,57,80,301.666667,0.3125,TripletSixteenth,A3
1263,Right,0,74,80,302.0,1.979167,Quarter,D6_D5
1265,Left,1,54,80,302.0,0.3125,TripletSixteenth,F#3
1266,Left,1,59,80,302.333333,0.3125,TripletSixteenth,B3
1267,Left,1,57,80,302.666667,0.3125,TripletSixteenth,A3
1268,Left,1,56,80,303.0,0.3125,TripletSixteenth,G#3
1269,Left,1,59,80,303.333333,0.3125,TripletSixteenth,B3
1270,Left,1,57,80,303.666667,0.3125,TripletSixteenth,A3
1271,Left,1,54,80,304.0,0.3125,TripletSixteenth,F#3
1272,Right,0,86,80,304.0,0.979167,Eighth,D6_D5
1274,Left,1,59,80,304.333333,0.3125,TripletSixteenth,B3
1275,Left,1,57,80,304.666667,0.3125,TripletSixteenth,A3
1276,Right,0,74,80,305.0,0.3125,TripletSixteenth,D6_D5
1277,Left,1,50,80,305.0,0.979167,Eighth,G#3_D3
1281,Right,0,73,80,305.333333,0.3125,TripletSixteenth,C#6_C#5
1280,Left,1,58,80,305.333333,0.3125,TripletSixteenth,A#3
1283,Right,0,74,80,305.666667,0.3125,TripletSixteenth,D6_D5
1285,Left,1,57,80,305.666667,0.3125,TripletSixteenth,A3
1286,Left,1,52,80,306.0,0.979167,TripletSixteenth,E3_C#3
1288,Right,0,69,80,306.0,1.979167,Quarter,A5_A4
1290,Left,1,59,80,306.333333,0.3125,TripletSixteenth,B3
1291,Left,1,57,80,306.666667,0.3125,TripletSixteenth,A3
1292,Left,1,54,81,307.0,0.979167,TripletSixteenth,F#3_D3
1294,Left,1,59,81,307.333333,0.3125,TripletSixteenth,B3
1295,Left,1,57,81,307.666667,0.3125,TripletSixteenth,A3
1296,Right,0,69,82,308.0,1.979167,Quarter,A5_A4
1298,Left,1,55,82,308.0,0.979167,TripletSixteenth,G3_E3
1300,Left,1,59,82,308.333333,0.3125,TripletSixteenth,B3
1301,Left,1,57,82,308.666667,0.3125,TripletSixteenth,A3
1302,Left,1,52,83,309.0,0.979167,Eighth,G3_E3
1304,Left,1,59,83,309.333333,0.3125,TripletSixteenth,B3
1305,Left,1,57,84,309.666667,0.3125,TripletSixteenth,A3
1306,Right,0,81,84,310.0,1.645833,DottedEighth,A5_A4
1307,Left,1,50,84,310.0,0.979167,Eighth,F#3_D3
1310,Left,1,59,84,310.333333,0.3125,TripletSixteenth,B3
1311,Left,1,57,85,310.666667,0.3125,TripletSixteenth,A3
1312,Left,1,49,85,311.0,0.979167,Eighth,E3_C#3
1314,Left,1,59,85,311.333333,0.3125,TripletSixteenth,B3
1315,Right,0,67,86,311.666667,0.3125,TripletSixteenth,G5_G4
1317,Left,1,57,86,311.666667,0.3125,TripletSixteenth,A3
1318,Left,1,54,86,312.0,2.979167,TripletSixteenth,F#3_D3
1319,Right,0,66,86,312.0,0.979167,Eighth,F#5_F#4
1322,Left,1,57,87,312.333333,0.3125,TripletSixteenth,A3
1323,Left,1,55,87,312.666667,0.3125,TripletSixteenth,G3
1326,Left,1,54,87,313.0,0.3125,TripletSixteenth,F#3
1324,Right,0,78,87,313.0,1.979167,Quarter,F#5_F#4
1328,Left,1,55,88,313.333333,0.3125,TripletSixteenth,G3
1327,Right,0,76,88,313.333333,0.3125,TripletSixteenth,E5
1330,Right,0,74,88,313.666667,0.3125,TripletSixteenth,D5
1329,Left,1,57,88,313.666667,0.3125,TripletSixteenth,A3
1332,Right,0,73,88,314.0,0.3125,TripletSixteenth,C#5
1331,Left,1,59,88,314.0,0.3125,TripletSixteenth,B3
1334,Right,0,71,89,314.333333,0.3125,TripletSixteenth,B4
1333,Left,1,61,89,314.333333,0.3125,TripletSixteenth,C#4
1336,Left,1,62,89,314.666667,0.3125,TripletSixteenth,D4
1335,Right,0,69,89,314.666667,0.3125,TripletSixteenth,A4
1338,Right,0,67,90,315.0,2.979167,TripletSixteenth,G5_G4
1337,Left,1,64,90,315.0,2.979167,DottedEighth,E4_E3
1341,Right,0,70,90,315.333333,0.3125,TripletSixteenth,A#4
1342,Right,0,69,90,315.666667,0.3125,TripletSixteenth,A4
1343,Right,0,67,91,316.0,0.3125,TripletSixteenth,G4
1344,Left,1,62,91,316.333333,0.3125,TripletSixteenth,D4
1345,Right,0,69,91,316.333333,0.3125,TripletSixteenth,A4
1347,Right,0,71,91,316.666667,0.3125,TripletSixteenth,B4
1346,Left,1,61,91,316.666667,0.3125,TripletSixteenth,C#4
1349,Right,0,73,92,317.0,0.3125,TripletSixteenth,C#5
1348,Left,1,59,92,317.0,0.3125,TripletSixteenth,B3
1350,Left,1,57,92,317.333333,0.3125,TripletSixteenth,A3
1351,Right,0,74,92,317.333333,0.3125,TripletSixteenth,D5
1352,Right,0,76,93,317.666667,0.3125,TripletSixteenth,E5
1353,Left,1,55,93,317.666667,0.3125,TripletSixteenth,G3
1354,Right,0,81,93,318.0,0.979167,Eighth,A5_A4
1356,Left,1,61,93,318.0,2.979167,TripletSixteenth,F#3_C#4
1358,Left,1,64,93,318.333333,0.3125,TripletSixteenth,E4
1359,Left,1,62,94,318.666667,0.3125,TripletSixteenth,D4
1360,Right,0,69,94,319.0,1.979167,TripletSixteenth,A5_A4
1362,Left,1,57,94,319.0,0.3125,TripletSixteenth,A3
1364,Right,0,79,94,319.333333,0.3125,TripletSixteenth,G5
1363,Left,1,59,94,319.333333,0.3125,TripletSixteenth,B3
1366,Right,0,78,95,319.666667,0.3125,TripletSixteenth,F#5
1365,Left,1,61,95,319.666667,0.3125,TripletSixteenth,C#4
1368,Right,0,76,95,320.0,0.3125,TripletSixteenth,E5
1367,Left,1,62,95,320.0,0.3125,TripletSixteenth,D4
1369,Right,0,74,96,320.333333,0.3125,TripletSixteenth,D5
1370,Left,1,64,96,320.333333,0.3125,TripletSixteenth,E4
1372,Right,0,72,96,320.666667,0.3125,TripletSixteenth,C5
1371,Left,1,66,96,320.666667,0.3125,TripletSixteenth,F#4
1373,Right,0,71,96,321.0,2.979167,TripletSixteenth,B5_B4
1374,Left,1,55,96,321.0,2.979167,DottedQuarter,G4_G3
1377,Right,0,74,97,321.333333,0.3125,TripletSixteenth,D5
1378,Right,0,72,97,321.666667,0.3125,TripletSixteenth,C5
1379,Right,0,71,97,322.0,0.3125,TripletSixteenth,B4
1381,Right,0,72,98,322.333333,0.3125,TripletSixteenth,C5
1380,Left,1,66,98,322.333333,0.3125,TripletSixteenth,F#4
1382,Right,0,74,98,322.666667,0.3125,TripletSixteenth,D5
1383,Left,1,64,98,322.666667,0.3125,TripletSixteenth,E4
1384,Right,0,76,99,323.0,0.3125,TripletSixteenth,E5
1385,Left,1,62,99,323.0,0.3125,TripletSixteenth,D4
1386,Right,0,78,99,323.333333,0.3125,TripletSixteenth,F#5
1387,Left,1,61,99,323.333333,0.3125,TripletSixteenth,C#4
1389,Right,0,79,99,323.666667,0.645833,Triplet,G5
1388,Left,1,59,99,323.666667,0.3125,TripletSixteenth,B3
1391,Right,0,85,100,324.0,1.979167,Quarter,C#6
1390,Left,1,57,100,324.0,1.979167,Quarter,E4_A3
1393,Right,0,79,100,324.333333,0.3125,TripletSixteenth,G5
1394,Left,1,61,100,324.333333,0.3125,TripletSixteenth,C#4
1395,Right,0,78,100,324.666667,0.3125,TripletSixteenth,F#5
1396,Left,1,62,100,324.666667,0.3125,TripletSixteenth,D4
1397,Right,0,76,101,325.0,0.3125,TripletSixteenth,E5
1398,Left,1,64,101,325.0,0.3125,TripletSixteenth,E4
1400,Left,1,66,101,325.333333,0.3125,TripletSixteenth,F#4
1399,Right,0,74,101,325.333333,0.3125,TripletSixteenth,D5
1402,Left,1,67,102,325.666667,0.3125,TripletSixteenth,G4
1401,Right,0,73,102,325.666667,0.3125,TripletSixteenth,C#5
1403,Right,0,86,102,326.0,0.979167,Eighth,D6_D5
1404,Left,1,59,102,326.0,0.979167,Eighth,F#4_B3
1408,Right,0,76,102,326.333333,0.3125,TripletSixteenth,E5
1407,Left,1,64,102,326.333333,0.3125,TripletSixteenth,E4
1410,Right,0,78,103,326.666667,0.3125,TripletSixteenth,F#5
1409,Left,1,62,103,326.666667,0.3125,TripletSixteenth,D4
1412,Right,0,76,103,327.0,1.979167,TripletSixteenth,E6_E5
1411,Left,1,70,103,327.0,1.979167,TripletSixteenth,C#4_A#4
1415,Left,1,64,103,327.333333,0.3125,TripletSixteenth,E4
1416,Right,0,82,103,327.333333,0.3125,TripletSixteenth,A#5
1418,Right,0,81,104,327.666667,0.3125,TripletSixteenth,A5
1417,Left,1,66,104,327.666667,0.3125,TripletSixteenth,F#4
1420,Right,0,79,104,328.0,0.3125,TripletSixteenth,G5
1419,Left,1,67,104,328.0,0.3125,TripletSixteenth,G4
1421,Left,1,69,105,328.333333,0.3125,TripletSixteenth,A4
1422,Right,0,78,105,328.333333,0.3125,TripletSixteenth,F#5
1424,Left,1,70,105,328.666667,0.3125,TripletSixteenth,A#4
1423,Right,0,76,105,328.666667,0.3125,TripletSixteenth,E5
1425,Right,0,78,105,329.0,0.979167,TripletSixteenth,F#6_F#5
1427,Left,1,63,105,329.0,0.979167,Eighth,D#4_A4
1429,Right,0,79,106,329.333333,0.3125,TripletSixteenth,G5
1430,Left,1,67,106,329.333333,0.3125,TripletSixteenth,G4
1432,Right,0,81,106,329.666667,0.3125,TripletSixteenth,A5
1431,Left,1,66,106,329.666667,0.3125,TripletSixteenth,F#4
1434,Left,1,64,110,330.0,0.979167,Eighth,G4_E4
1433,Right,0,79,110,330.0,0.979167,TripletSixteenth,G6_G5
1438,Left,1,69,110,330.333333,0.3125,TripletSixteenth,A4
1437,Right,0,78,110,330.333333,0.3125,TripletSixteenth,F#5
1439,Left,1,70,110,330.666667,0.3125,TripletSixteenth,A#4
1440,Right,0,76,110,330.666667,0.3125,TripletSixteenth,E5
1441,Left,1,66,110,331.0,0.979167,Eighth,F#4_C5
1442,Right,0,81,110,331.0,0.979167,Eighth,D#5_A5
1446,Left,1,71,110,331.333333,0.3125,TripletSixteenth,B4
1445,Right,0,74,110,331.333333,0.3125,TripletSixteenth,D5
1448,Right,0,75,110,331.666667,0.3125,TripletSixteenth,D#5
1447,Left,1,72,110,331.666667,0.3125,TripletSixteenth,C5
1449,Left,1,67,110,332.0,0.645833,Triplet,G4_B4
1450,Right,0,83,110,332.0,0.979167,Eighth,D5_B5
1453,Right,0,72,110,332.333333,0.3125,TripletSixteenth,C5
1454,Left,1,69,110,332.333333,0.3125,TripletSixteenth,A4
1457,Right,0,71,110,332.666667,0.3125,TripletSixteenth,B4
1455,Left,1,55,110,332.666667,0.3125,TripletSixteenth,G4_G3
1458,Right,0,74,105,333.0,1.979167,TripletSixteenth,F5_D5
1459,Left,1,56,105,333.0,1.979167,Quarter,G#3_B3
1462,Left,1,61,104,333.333333,0.3125,TripletSixteenth,C#4
1463,Right,0,73,104,333.333333,0.3125,TripletSixteenth,C#5
1464,Right,0,71,102,333.666667,0.3125,TripletSixteenth,B4
1465,Left,1,62,102,333.666667,0.3125,TripletSixteenth,D4
1466,Right,0,68,100,334.0,0.3125,TripletSixteenth,G#4
1467,Left,1,65,100,334.0,0.3125,TripletSixteenth,F4
1468,Right,0,69,98,334.333333,0.3125,TripletSixteenth,A4
1469,Left,1,64,98,334.333333,0.3125,TripletSixteenth,E4
1471,Left,1,62,96,334.666667,0.3125,TripletSixteenth,D4
1470,Right,0,71,96,334.666667,0.3125,TripletSixteenth,B4
1472,Right,0,73,94,335.0,0.979167,TripletSixteenth,E5_C#5
1473,Left,1,55,94,335.0,0.979167,Eighth,G3_C#4
1476,Left,1,63,92,335.333333,0.3125,TripletSixteenth,D#4
1477,Right,0,70,92,335.333333,0.3125,TripletSixteenth,A#4
1478,Left,1,64,91,335.666667,0.3125,TripletSixteenth,E4
1479,Right,0,69,91,335.666667,0.3125,TripletSixteenth,A4
1480,Left,1,69,80,336.0,2.979167,DottedQuarter,F#4_A4
1481,Right,0,75,80,336.0,2.979167,DottedQuarter,D#5_A5
1485,Left,1,66,80,339.0,1.979167,Quarter,F#4_D#4
1484,Right,0,78,80,339.0,1.979167,Quarter,F#5_B5_B4
1489,Right,0,78,80,341.0,0.979167,Eighth,F#5_D#5_B4
1490,Left,1,63,80,341.0,0.979167,Eighth,F#4_D#4_B3
1497,Right,0,81,80,342.0,0.479167,Sixteenth,A5
1495,Left,1,67,80,342.0,1.479167,DottedEighth,G4_E4
1498,Right,0,78,80,342.5,0.479167,Sixteenth,F#5
1499,Right,0,79,80,343.0,0.479167,Sixteenth,G6_G5
1501,Left,1,59,80,343.5,1.479167,Sixteenth,G3_B3
1503,Right,0,83,80,343.5,0.479167,Sixteenth,B5_B4
1506,Left,1,69,80,344.0,0.479167,Sixteenth,A4
1505,Right,0,78,80,344.0,0.479167,Sixteenth,F#6_F#5
1508,Right,0,76,80,344.5,0.479167,Sixteenth,E6_E5
1509,Left,1,67,80,344.5,0.479167,Sixteenth,G4
1511,Right,0,74,80,345.0,1.979167,Sixteenth,D6_D5
1513,Left,1,66,80,345.0,0.479167,Sixteenth,F#4
1514,Right,0,77,80,345.5,0.479167,Sixteenth,F5
1515,Left,1,68,80,345.5,0.479167,Sixteenth,G#4
1517,Right,0,79,80,346.0,0.479167,Sixteenth,G5
1516,Left,1,71,80,346.0,0.479167,Sixteenth,B4
1518,Left,1,69,80,346.5,0.479167,Sixteenth,A4
1519,Right,0,78,80,346.5,0.479167,Sixteenth,F#5
1520,Left,1,45,80,347.0,0.479167,Sixteenth,A2_A1
1522,Right,0,85,80,347.0,0.479167,Sixteenth,E5_C#6_C#5_A5
1529,Left,1,31,80,347.5,0.229167,ThirtySecond,G2_G1
1526,Right,0,72,80,347.5,0.479167,Sixteenth,D#5_C6_C5_A5
1532,Left,1,30,80,347.75,0.229167,ThirtySecond,F#2_F#1
1535,Left,1,30,80,348.0,0.229167,ThirtySecond,F#1
1534,Right,0,81,80,348.0,0.979167,ThirtySecond,C6_A5
1537,Left,1,33,80,348.25,0.229167,ThirtySecond,A1
1538,Right,0,78,80,348.25,0.229167,ThirtySecond,F#5
1539,Right,0,75,80,348.5,0.229167,ThirtySecond,D#5
1540,Left,1,36,80,348.5,0.229167,ThirtySecond,C2
1542,Left,1,39,80,348.75,0.229167,ThirtySecond,D#2
1541,Right,0,72,80,348.75,0.229167,ThirtySecond,C5
1543,Right,0,72,80,349.0,1.479167,DottedEighth,C5_A4
1545,Left,1,42,80,349.0,0.229167,ThirtySecond,F#2
1546,Left,1,45,80,349.25,0.229167,ThirtySecond,A2
1547,Right,0,66,80,349.25,0.229167,ThirtySecond,F#4
1548,Left,1,48,80,349.5,0.229167,ThirtySecond,C3
1549,Right,0,63,80,349.5,0.229167,ThirtySecond,D#4
1551,Right,0,60,80,349.75,0.229167,ThirtySecond,C4
1550,Left,1,51,80,349.75,0.229167,ThirtySecond,D#3
1553,Left,1,54,80,350.0,0.229167,ThirtySecond,F#3
1552,Right,0,69,80,350.0,0.229167,ThirtySecond,A4
1554,Left,1,60,80,350.25,0.229167,ThirtySecond,C4
1555,Right,0,63,80,350.25,0.229167,ThirtySecond,D#4
1556,Right,0,59,80,350.5,0.479167,ThirtySecond,D4_B4_B3
1559,Left,1,55,80,350.5,0.229167,ThirtySecond,G3
1560,Right,0,67,80,350.75,0.229167,ThirtySecond,G4
1561,Left,1,59,80,350.75,0.229167,ThirtySecond,B3
1563,Right,0,58,80,351.0,2.979167,DottedQuarter,G4_D4_A#4_A#3
1562,Left,1,43,80,351.0,2.979167,DottedQuarter,G3_G2
1568,Right,0,66,80,354.0,0.979167,TripletSixteenth,F#4_A4
1569,Left,1,33,80,354.0,0.3125,TripletSixteenth,A1
1572,Right,0,62,79,354.333333,0.3125,TripletSixteenth,D4
1571,Left,1,38,79,354.333333,0.3125,TripletSixteenth,D2
1574,Left,1,42,78,354.666667,0.3125,TripletSixteenth,F#2
1573,Right,0,61,78,354.666667,0.3125,TripletSixteenth,C#4
1575,Right,0,66,77,355.0,1.479167,ThirtySecond,F#4_A4
1577,Left,1,45,77,355.0,1.479167,DottedEighth,A2
1579,Right,0,62,76,355.25,0.229167,ThirtySecond,D4
1578,Left,1,50,76,355.25,0.229167,ThirtySecond,D3
1580,Left,1,54,76,355.5,0.229167,ThirtySecond,F#3
1581,Right,0,57,76,355.5,0.229167,ThirtySecond,A3
1583,Left,1,57,75,355.75,0.229167,ThirtySecond,A3
1582,Right,0,66,75,355.75,0.229167,ThirtySecond,F#4
1585,Left,1,50,74,356.0,0.229167,ThirtySecond,D3
1584,Right,0,66,74,356.0,0.229167,ThirtySecond,F#4
1586,Right,0,62,73,356.25,0.229167,ThirtySecond,D4
1587,Left,1,54,73,356.25,0.229167,ThirtySecond,F#3
1589,Left,1,47,72,356.5,0.479167,Sixteenth,D3_B2
1588,Right,0,65,72,356.5,0.479167,ThirtySecond,G#4_F4
1592,Right,0,62,71,356.75,0.229167,ThirtySecond,D4
1593,Left,1,53,71,356.75,0.229167,ThirtySecond,F3
1594,Right,0,67,71,357.0,0.979167,Eighth,G4_G3_E4_A#3
1598,Left,1,52,71,357.0,0.979167,Eighth,E3_C#3
1600,Left,1,52,70,358.0,1.479167,DottedEighth,G3_E3_C#3_A#2
1604,Left,1,54,70,359.5,0.479167,Sixteenth,F#3_D#3_B2
1607,Left,1,54,70,360.0,1.979167,Quarter,F#3_D#3_B2
1610,Left,1,59,70,362.0,0.979167,Eighth,F#3_D#3_B3_B2
1614,Left,1,59,70,363.0,1.979167,Quarter,F#3_D#3_B3_B2
1616,Right,0,63,70,363.0,1.979167,Quarter,F#4_D#4
1623,Left,1,59,70,365.0,0.979167,Eighth,F#3_D#3_B3_B2
1620,Right,0,66,70,365.0,0.979167,Eighth,F#4_D#4_B4
1631,Left,1,35,70,366.0,0.979167,Eighth,B2_B1
1627,Right,0,59,70,366.0,1.979167,Quarter,F#4_D#4_B4_B3
1633,Left,1,30,70,367.0,1.979167,Quarter,F#2_F#1
1635,Right,0,71,70,368.0,0.979167,Eighth,F#4_D#4_B4_B3
1640,Right,0,71,70,369.0,0.979167,Eighth,E4_B4_B3
1639,Left,1,31,70,369.0,0.979167,Eighth,G2_G1
1644,Right,0,57,70,370.0,1.979167,Quarter,E4_C#4_A4_A3
1646,Left,1,33,70,370.0,1.979167,Quarter,A2_A1
1652,Right,0,57,70,372.0,1.979167,Quarter,F#4_D4_A4_A3
1650,Left,1,38,70,372.0,1.979167,Quarter,D2_D1
1657,Right,0,66,70,374.0,0.979167,Eighth,F#4
1656,Left,1,54,70,374.0,0.979167,Eighth,F#3
1659,Left,1,45,70,375.0,1.979167,Quarter,A2
1658,Right,0,57,70,375.0,1.979167,Quarter,A3
1661,Right,0,69,70,377.0,0.979167,Eighth,A4
1660,Left,1,57,70,377.0,0.979167,Eighth,A3
1662,Left,1,54,70,378.0,1.979167,Quarter,F#3
1663,Right,0,66,70,378.0,1.979167,Quarter,F#4
1665,Left,1,33,70,380.0,0.979167,Eighth,A2_A1
1664,Right,0,90,70,380.0,0.979167,Eighth,F#6_F#5_A5
1670,Right,0,79,70,381.0,1.979167,Quarter,G5_E6_E5
1669,Left,1,35,70,381.0,1.979167,Quarter,B2_B1_A2
1678,Left,1,49,70,383.0,0.979167,Eighth,C#3_C#2_A2
1675,Right,0,79,70,383.0,0.979167,Eighth,G5_E5_A5_A4
1682,Right,0,81,70,384.0,1.979167,Quarter,F#5_A5_A4
1685,Left,1,45,70,384.0,1.979167,Quarter,D3_D2_A2
1688,Right,0,78,70,386.0,0.979167,Eighth,F#5
1689,Left,1,66,70,386.0,0.979167,Eighth,F#4
1690,Left,1,57,70,387.0,1.979167,Quarter,A3
1691,Right,0,69,70,387.0,1.979167,Quarter,A4
1692,Left,1,42,70,389.0,0.979167,Eighth,F#3_F#2
1694,Right,0,81,70,389.0,0.979167,Eighth,A5_A4
1698,Right,0,66,70,390.0,1.979167,Quarter,F#5_F#4
1696,Left,1,45,70,390.0,1.979167,Quarter,A3_A2
1701,Left,1,45,70,392.0,2.979167,Quarter,F#3_F#2_A2
1700,Right,0,81,70,392.0,0.979167,Eighth,A5_A4
1705,Right,0,83,70,393.0,1.979167,Quarter,B5_B4
1707,Left,1,52,70,394.0,0.979167,Eighth,E3_E2
1712,Left,1,45,70,395.0,0.979167,Eighth,A2_A1
1709,Right,0,76,70,395.0,0.979167,Eighth,G5_E5_C#6_C#5
1715,Left,1,45,70,396.0,2.979167,DottedQuarter,D2_A2
1716,Right,0,78,70,396.0,2.979167,DottedQuarter,F#5_D6_D5
1723,Left,1,45,70,399.0,2.979167,DottedQuarter,A2_A1
1720,Right,0,88,70,399.0,2.979167,DottedQuarter,E6_E5_C#6
1725,Left,1,33,70,402.0,1.979167,Quarter,A2_A1
1726,Right,0,88,70,402.0,1.979167,Quarter,E6_E5_C#6
1731,Left,1,43,73,404.0,0.479167,Sixteenth,G2
1730,Right,0,90,73,404.0,0.979167,Eighth,F#6_F#5_D#6
1734,Left,1,42,74,404.5,0.479167,Sixteenth,F#2
1737,Left,1,40,75,405.0,0.479167,Sixteenth,E2
1735,Right,0,88,75,405.0,0.979167,Eighth,G6_G5_E6
1739,Left,1,38,76,405.5,0.479167,Sixteenth,D2
1740,Left,1,37,77,406.0,0.3125,TripletSixteenth,C#2
1741,Right,0,88,77,406.0,0.979167,Eighth,E6_A6_A5
1744,Left,1,40,77,406.333333,0.3125,TripletSixteenth,E2
1745,Left,1,45,78,406.666667,0.3125,TripletSixteenth,A2
1746,Left,1,49,78,407.0,0.3125,TripletSixteenth,C#3
1747,Right,0,91,78,407.0,0.979167,Eighth,G6_E6_A6_A5
1751,Left,1,52,79,407.333333,0.3125,TripletSixteenth,E3
1752,Left,1,57,79,407.666667,0.3125,TripletSixteenth,A3
1753,Left,1,54,80,408.0,2.979167,DottedQuarter,F#3_F#2
1754,Right,0,81,80,408.0,0.979167,Eighth,A6_A5
1757,Right,0,69,80,409.0,0.979167,Eighth,A5_A4
1759,Right,0,66,80,410.0,0.979167,Eighth,F#5_F#4
1762,Left,1,45,80,411.0,2.979167,DottedQuarter,A3_A2
1761,Right,0,78,80,411.0,0.979167,Eighth,F#5_F#4
1765,Right,0,62,80,412.0,0.979167,Eighth,D5_D4
1767,Right,0,76,80,413.0,0.979167,Eighth,E5_E4
1769,Right,0,78,80,414.0,2.979167,DottedQuarter,F#5_F#4
1771,Left,1,62,80,414.0,2.979167,DottedQuarter,D4_D3
1773,Left,1,47,80,417.0,1.979167,Quarter,B3_B2
1775,Right,0,79,80,417.0,1.979167,Quarter,G5_G4
1779,Right,0,71,80,419.0,0.979167,Eighth,B5_B4
1777,Left,1,55,80,419.0,0.979167,Eighth,G3_G2
1782,Right,0,83,80,420.0,1.979167,Quarter,G5_B5_B4
1781,Left,1,52,80,420.0,1.979167,Quarter,E3_E2
1787,Right,0,82,80,422.0,0.979167,Eighth,G5_A#5_A#4
1786,Left,1,52,80,422.0,0.979167,Eighth,G3_E3
1791,Left,1,52,80,423.0,1.979167,Quarter,E3_C#3
1793,Right,0,82,80,423.0,0.979167,Eighth,A#5_A#4
1795,Right,0,88,80,424.0,0.979167,Eighth,E6_E5
1799,Right,0,77,80,425.0,0.479167,Sixteenth,F6_F5
1797,Left,1,50,80,425.0,0.479167,Sixteenth,D3_B2
1802,Right,0,78,80,425.5,0.479167,Sixteenth,F#6_F#5
1801,Left,1,49,80,425.5,0.479167,Sixteenth,C#3_A#2
1807,Left,1,46,80,426.0,1.479167,DottedEighth,A#2
1805,Right,0,78,80,426.0,2.979167,DottedQuarter,F#6_F#5
1808,Left,1,49,80,426.5,1.479167,DottedEighth,C#3
1809,Left,1,54,80,427.0,1.479167,DottedEighth,F#3
1810,Left,1,58,80,427.5,0.989583,Eighth,A#3
1811,Left,1,61,80,428.0,0.479167,Sixteenth,C#4
1812,Left,1,66,80,428.5,0.479167,Sixteenth,F#4
1813,Left,1,63,80,429.0,2.979167,DottedQuarter,G#4_F#4_D#4_C4
1817,Right,0,75,80,429.0,1.479167,DottedEighth,D#5
1818,Right,0,78,80,429.5,1.479167,DottedEighth,F#5
1819,Right,0,80,80,430.0,1.479167,DottedEighth,G#5
1820,Right,0,87,80,430.5,0.989583,Eighth,D#6
1821,Right,0,90,80,431.0,0.479167,Sixteenth,F#6
1822,Right,0,92,80,431.5,0.479167,Sixteenth,G#6
1824,Right,0,77,80,432.0,2.979167,DottedQuarter,F5_F4
1823,Left,1,56,80,432.0,1.979167,Quarter,G#3_G#2
1827,Left,1,53,80,434.0,0.979167,Eighth,F3_F2
1829,Right,0,80,80,435.0,1.979167,Quarter,G#5_G#4
1831,Left,1,41,80,435.0,0.979167,Eighth,F3_F2
1833,Left,1,37,80,436.0,0.979167,Eighth,C#3_C#2
1835,Right,0,77,80,436.0,0.979167,Eighth,F5
1836,Left,1,51,80,437.0,0.979167,Eighth,D#3_D#2
1838,Right,0,78,80,437.0,0.979167,Eighth,G#5_F#5
1840,Left,1,53,80,438.0,1.979167,Quarter,F3_F2
1842,Right,0,80,80,438.0,2.979167,Eighth,G#5_C#6
1844,Right,0,73,80,439.0,0.979167,Eighth,C#5
1845,Left,1,56,80,440.0,0.979167,Eighth,G#3_F3
1847,Right,0,73,80,440.0,0.979167,Eighth,C#5
1848,Right,0,73,80,441.0,1.979167,Eighth,C#5_A5
1850,Left,1,54,80,441.0,1.979167,Quarter,F#3_A3
1852,Right,0,69,80,442.0,0.979167,Eighth,A4
1856,Left,1,57,80,443.0,0.979167,Eighth,C#4_A3
1853,Right,0,73,80,443.0,0.979167,Eighth,F#5_F#4_C#5
1858,Left,1,61,80,444.0,1.979167,Quarter,C#4_A3
1859,Right,0,90,80,444.0,1.979167,Quarter,F#6_F#5
1862,Right,0,87,80,445.0,0.979167,Eighth,D#6
1863,Right,0,78,80,446.0,0.979167,Eighth,F#6_F#5_D#6
1866,Left,1,60,80,446.0,0.979167,Eighth,G#3_C4
1868,Right,0,78,80,447.0,0.979167,Eighth,F#6_F#5_D#6
1870,Left,1,60,80,447.0,0.979167,Eighth,G#3_C4
1875,Right,0,87,80,448.0,0.979167,Eighth,G#5_F#5_D#6
1873,Left,1,63,80,448.0,0.979167,Eighth,D#4_C4
1880,Right,0,85,80,449.0,0.979167,Eighth,G#5_F5_C#6
1878,Left,1,61,80,449.0,0.979167,Eighth,F4_C#4
1883,Right,0,83,80,450.0,1.979167,Quarter,G#5_F5_B5
1886,Left,1,62,80,450.0,1.479167,DottedEighth,D4
1887,Left,1,65,81,450.5,1.479167,DottedEighth,F4
1888,Left,1,68,82,451.0,1.479167,DottedEighth,G#4
1889,Left,1,74,84,451.5,1.479167,DottedEighth,D5
1890,Right,0,56,85,452.0,0.989583,Eighth,G#3
1891,Left,1,77,85,452.0,0.989583,Eighth,F5
1893,Left,1,80,86,452.5,0.479167,Sixteenth,G#5
1892,Right,0,53,86,452.5,0.479167,Sixteenth,F3
1895,Right,0,50,88,453.0,1.479167,DottedEighth,D3
1894,Left,1,77,88,453.0,2.979167,DottedQuarter,G#5_F5_D5_A#5
1899,Right,0,53,89,453.5,1.479167,DottedEighth,F3
1900,Right,0,58,90,454.0,1.479167,DottedEighth,A#3
1901,Right,0,62,92,454.5,1.479167,DottedEighth,D4
1902,Right,0,65,93,455.0,0.989583,Eighth,F4
1903,Right,0,70,94,455.5,0.479167,Sixteenth,A#4
1904,Right,0,82,96,456.0,1.979167,Quarter,A#5_A#4
1906,Left,1,43,96,456.0,0.479167,Sixteenth,G2
1907,Left,1,46,97,456.5,0.479167,Sixteenth,A#2
1908,Left,1,51,98,457.0,0.479167,Sixteenth,D#3
1909,Left,1,55,100,457.5,0.479167,Sixteenth,G3
1910,Right,0,79,101,458.0,0.979167,Eighth,G5_G4
1912,Left,1,58,101,458.0,0.479167,Sixteenth,A#3
1913,Left,1,63,102,458.5,0.479167,Sixteenth,D#4
1914,Right,0,79,104,459.0,0.979167,Eighth,G5_G4
1916,Left,1,46,104,459.0,0.479167,Sixteenth,A#2
1917,Left,1,51,105,459.5,0.479167,Sixteenth,D#3
1918,Right,0,75,106,460.0,0.979167,Eighth,D#5_D#4
1920,Left,1,55,106,460.0,0.479167,Sixteenth,G3
1921,Left,1,58,108,460.5,0.479167,Sixteenth,A#3
1922,Left,1,56,109,461.0,0.479167,Sixteenth,G#3
1923,Right,0,65,109,461.0,0.979167,Eighth,F5_F4_D5_A#4
1927,Left,1,53,110,461.5,0.479167,Sixteenth,F3
1928,Right,0,68,110,461.5,0.479167,Sixteenth,G#4
1931,Left,1,51,110,462.0,0.479167,Sixteenth,D#3
1929,Right,0,67,110,462.0,1.979167,Quarter,G5_G4_D#5_A#4
1934,Left,1,55,110,462.5,0.479167,Sixteenth,G3
1935,Left,1,58,110,463.0,0.479167,Sixteenth,A#3
1936,Left,1,63,110,463.5,0.479167,Sixteenth,D#4
1937,Right,0,71,110,464.0,0.979167,Eighth,B5_B4
1939,Left,1,44,110,464.0,0.479167,Sixteenth,G#2
1940,Left,1,56,110,464.5,0.479167,Sixteenth,G#3
1941,Right,0,68,110,465.0,1.979167,Quarter,G#5_G#4
1943,Left,1,47,110,465.0,0.479167,Sixteenth,B2
1944,Left,1,51,110,465.5,0.479167,Sixteenth,D#3
1945,Left,1,56,110,466.0,0.479167,Sixteenth,G#3
1946,Left,1,59,110,466.5,0.479167,Sixteenth,B3
1948,Right,0,77,110,467.0,0.979167,Eighth,F5_F4
1947,Left,1,49,110,467.0,0.479167,Sixteenth,C#3
1950,Left,1,61,110,467.5,0.479167,Sixteenth,C#4
1951,Left,1,46,110,468.0,0.479167,Sixteenth,A#2
1952,Right,0,73,110,468.0,1.979167,Quarter,C#6_C#5
1954,Left,1,49,110,468.5,0.479167,Sixteenth,C#3
1955,Left,1,54,110,469.0,0.479167,Sixteenth,F#3
1956,Left,1,58,110,469.5,0.479167,Sixteenth,A#3
1958,Right,0,82,110,470.0,0.979167,Eighth,A#5_A#4
1957,Left,1,49,110,470.0,0.479167,Sixteenth,C#3
1960,Left,1,61,110,470.5,0.479167,Sixteenth,C#4
1961,Right,0,67,110,471.0,1.979167,Quarter,G5_G4
1963,Left,1,51,110,471.0,0.479167,Sixteenth,D#3
1964,Left,1,55,110,471.5,0.479167,Sixteenth,G3
1965,Left,1,58,110,472.0,0.479167,Sixteenth,A#3
1966,Left,1,61,110,472.5,0.479167,Sixteenth,C#4
1967,Right,0,75,110,473.0,0.979167,Eighth,D#5
1968,Left,1,55,110,473.0,0.479167,Sixteenth,G3
1971,Left,1,58,110,473.5,0.479167,Sixteenth,A#3
1969,Right,0,63,110,473.5,0.479167,Sixteenth,G4_D#4
1975,Left,1,56,100,474.0,0.479167,Sixteenth,G#3
1972,Right,0,71,100,474.0,1.979167,Eighth,G#4_D#4_B4
1976,Left,1,59,100,474.5,0.479167,Sixteenth,B3
1977,Left,1,63,99,475.0,0.479167,Sixteenth,D#4
1978,Left,1,68,99,475.5,0.479167,Sixteenth,G#4
1979,Left,1,60,98,476.0,0.479167,Sixteenth,C4
1980,Right,0,68,98,476.0,0.979167,Eighth,G#4
1981,Left,1,63,97,476.5,0.479167,Sixteenth,D#4
1982,Left,1,61,97,477.0,0.479167,Sixteenth,C#4
1983,Right,0,76,97,477.0,1.979167,Quarter,E5
1984,Left,1,64,96,477.5,0.479167,Sixteenth,E4
1985,Left,1,68,95,478.0,0.479167,Sixteenth,G#4
1986,Left,1,73,95,478.5,0.479167,Sixteenth,C#5
1988,Right,0,73,94,479.0,0.979167,Eighth,C#5
1987,Left,1,64,94,479.0,0.479167,Sixteenth,E4
1989,Left,1,68,93,479.5,0.479167,Sixteenth,G#4
1990,Right,0,70,93,480.0,1.979167,Quarter,A#4
1991,Left,1,54,93,480.0,0.479167,Sixteenth,F#3
1992,Left,1,58,92,480.5,0.479167,Sixteenth,A#3
1993,Left,1,61,91,481.0,0.479167,Sixteenth,C#4
1994,Left,1,66,91,481.5,0.479167,Sixteenth,F#4
1995,Left,1,39,110,482.0,0.479167,Sixteenth,D#2
1996,Right,0,90,110,482.0,0.979167,Eighth,F#6_F#5
1998,Left,1,51,110,482.5,0.479167,Sixteenth,D#3
2001,Left,1,42,110,483.0,0.479167,Sixteenth,F#2
1999,Right,0,87,110,483.0,1.979167,Quarter,D#6_D#5
2002,Left,1,46,110,483.5,0.479167,Sixteenth,A#2
2003,Left,1,51,110,484.0,0.479167,Sixteenth,D#3
2004,Left,1,54,110,484.5,0.479167,Sixteenth,F#3
2006,Left,1,44,110,485.0,0.479167,Sixteenth,G#2
2005,Right,0,72,110,485.0,0.979167,Eighth,C6_C5
2008,Left,1,56,110,485.5,0.479167,Sixteenth,G#3
2009,Right,0,92,110,486.0,1.979167,Quarter,G#6_G#5
2011,Left,1,40,110,486.0,0.479167,Sixteenth,E2
2012,Left,1,44,110,486.5,0.479167,Sixteenth,G#2
2013,Left,1,49,110,487.0,0.479167,Sixteenth,C#3
2014,Left,1,52,110,487.5,0.479167,Sixteenth,E3
2016,Right,0,88,110,488.0,0.979167,Eighth,E6_E5
2015,Left,1,44,110,488.0,0.479167,Sixteenth,G#2
2018,Left,1,56,110,488.5,0.479167,Sixteenth,G#3
2019,Right,0,85,110,489.0,1.979167,Quarter,C#6_C#5
2020,Left,1,45,110,489.0,0.479167,Sixteenth,A2
2022,Left,1,49,110,489.5,0.479167,Sixteenth,C#3
2023,Left,1,52,110,490.0,0.479167,Sixteenth,E3
2024,Left,1,57,110,490.5,0.479167,Sixteenth,A3
2025,Right,0,57,100,491.0,0.979167,Eighth,A4_A3
2026,Left,1,49,100,491.0,0.479167,Sixteenth,C#3
2028,Left,1,61,100,491.5,0.479167,Sixteenth,C#4
2030,Right,0,57,99,492.0,1.979167,Eighth,F#4_A3
2029,Left,1,51,99,492.0,1.979167,Quarter,D#3
2032,Left,1,54,98,492.5,0.979167,Eighth,F#3
2033,Right,0,58,97,493.0,0.479167,Sixteenth,A#3
2034,Right,0,63,97,493.5,0.479167,Sixteenth,D#4
2036,Left,1,55,96,494.0,0.479167,Sixteenth,G3
2035,Right,0,63,96,494.0,0.979167,Eighth,D#4
2037,Left,1,58,95,494.5,0.479167,Sixteenth,A#3
2039,Left,1,56,94,495.0,0.479167,Sixteenth,G#3
2038,Right,0,83,94,495.0,1.979167,Quarter,B5
2040,Left,1,59,94,495.5,0.479167,Sixteenth,B3
2041,Left,1,63,93,496.0,0.479167,Sixteenth,D#4
2042,Left,1,68,92,496.5,0.479167,Sixteenth,G#4
2043,Left,1,60,91,497.0,0.479167,Sixteenth,C4
2044,Right,0,80,91,497.0,0.979167,Eighth,G#5
2045,Left,1,63,91,497.5,0.479167,Sixteenth,D#4
2047,Right,0,77,90,498.0,1.979167,Quarter,F5
2046,Left,1,61,90,498.0,0.479167,Sixteenth,C#4
2048,Left,1,65,90,498.5,0.479167,Sixteenth,F4
2049,Left,1,68,90,499.0,0.479167,Sixteenth,G#4
2050,Left,1,73,90,499.5,0.479167,Sixteenth,C#5
2052,Right,0,85,90,500.0,0.979167,Eighth,C#6_C#5
2051,Left,1,65,90,500.0,0.479167,Sixteenth,F4
2054,Left,1,68,90,500.5,0.479167,Sixteenth,G#4
2056,Left,1,66,90,501.0,0.479167,Sixteenth,F#4
2055,Right,0,81,90,501.0,1.979167,Quarter,C#5_A5
2058,Left,1,69,90,501.5,0.479167,Sixteenth,A4
2059,Right,0,78,90,501.5,0.979167,Eighth,F#5
2060,Left,1,73,90,502.0,0.479167,Sixteenth,C#5
2062,Left,1,78,90,502.5,0.479167,Sixteenth,F#5
2061,Right,0,69,90,502.5,0.479167,Sixteenth,A4
2063,Right,0,74,90,503.0,0.979167,Eighth,D6_D5
2065,Left,1,59,90,503.0,0.479167,Sixteenth,B3
2066,Left,1,71,90,503.5,0.479167,Sixteenth,B4_B3
2068,Right,0,83,90,504.0,1.979167,Quarter,B5_B4
2070,Left,1,68,90,504.5,1.479167,DottedEighth,G#4_G#3
2072,Left,1,65,88,505.5,1.479167,DottedEighth,F4_F3
2074,Right,0,80,87,506.0,0.979167,Eighth,G#5_G#4
2076,Right,0,65,86,507.0,1.979167,Quarter,F5_F4
2078,Left,1,61,85,507.5,1.479167,DottedEighth,C#4
2079,Left,1,37,83,508.5,1.479167,DottedEighth,C#3_C#2
2081,Right,0,74,82,509.0,0.979167,Eighth,G#4_F4_D5_B4
2085,Right,0,68,81,510.0,1.979167,Quarter,G#4_F4_D4_B4
2089,Left,1,49,80,510.5,1.479167,DottedEighth,C#3
2090,Left,1,37,78,511.5,0.479167,Sixteenth,C#2
2091,Right,0,65,77,512.0,0.979167,Eighth,G#4_F4_D4_B3
2095,Right,0,59,76,513.0,1.979167,Quarter,G#3_F4_D4_B3
2099,Left,1,37,75,513.5,0.989583,Eighth,C#2
2100,Left,1,37,73,514.5,0.479167,Sixteenth,C#2
2102,Right,0,59,72,515.0,1.239583,Eighth,G#3_F3_D4_B3
2101,Left,1,37,72,515.0,0.979167,Eighth,C#2
2106,Left,1,37,70,516.0,0.979167,Eighth,C#2
2107,Right,0,59,70,516.25,0.989583,Eighth,B3
2108,Right,0,56,70,516.5,0.989583,Eighth,G#3
2109,Right,0,53,70,516.75,0.989583,Eighth,F3
2110,Right,0,50,70,517.0,0.989583,Eighth,D3
2111,Left,1,37,70,517.0,0.979167,Eighth,C#2
2112,Right,0,47,70,517.25,0.489583,Sixteenth,B2
2113,Right,0,44,70,517.5,0.989583,Eighth,G#2
2114,Right,0,47,70,518.0,0.989583,DottedSixteenth,D3_B2
2115,Left,1,44,70,518.0,0.979167,Eighth,G#2_C#2
2118,Right,0,53,70,518.25,0.989583,Eighth,F3
2119,Right,0,56,70,518.5,0.989583,Eighth,G#3
2121,Left,1,37,70,519.0,0.979167,Eighth,G#2_C#2
2120,Right,0,59,70,519.0,0.989583,DottedSixteenth,D4_B3
2124,Right,0,65,70,519.25,0.677083,Triplet,F4
2125,Right,0,68,70,519.5,0.489583,Sixteenth,G#4
2126,Right,0,71,70,519.75,0.239583,ThirtySecond,B4
2129,Left,1,37,70,520.0,0.979167,Eighth,G#2_C#2
2127,Right,0,71,70,520.0,0.46875,Sixteenth,D5_B4
2131,Right,0,77,70,520.25,0.447917,Sixteenth,F5
2132,Right,0,80,70,520.5,0.489583,Sixteenth,G#5
2133,Right,0,83,70,520.75,0.4375,Sixteenth,B5
2135,Right,0,81,70,521.0,0.979167,Eighth,D6_A5
2134,Left,1,30,70,521.0,0.979167,Eighth,F#2_F#1_C#2
2139,Right,0,84,70,521.25,0.458333,Sixteenth,C6
2140,Right,0,86,70,521.5,0.458333,Sixteenth,D6
2141,Right,0,85,70,521.75,0.229167,ThirtySecond,C#6
2142,Right,0,86,70,522.0,0.989583,Sixteenth,D6_A5
2143,Left,1,37,70,522.0,0.979167,Eighth,F#2_F#1_C#2
2147,Right,0,73,70,522.25,0.46875,Sixteenth,C#5
2148,Right,0,86,70,522.5,0.46875,Sixteenth,D6
2149,Right,0,85,70,522.75,0.479167,Sixteenth,C#6
2150,Right,0,73,70,523.0,0.979167,Sixteenth,C#5_A5
2152,Left,1,49,70,523.0,0.979167,Eighth,F#2_C#3_C#2
2155,Right,0,85,70,523.25,0.458333,Sixteenth,C#6
2156,Right,0,86,70,523.5,0.489583,Sixteenth,D6
2157,Right,0,85,70,523.75,0.46875,Sixteenth,C#6
2159,Left,1,49,70,524.0,0.979167,Eighth,F#2_C#3_C#2
2158,Right,0,83,70,524.0,0.447917,Sixteenth,B5
2162,Right,0,69,70,524.25,0.46875,Sixteenth,A4
2163,Right,0,83,70,524.5,0.458333,Sixteenth,B5
2164,Right,0,81,70,524.75,0.489583,Sixteenth,A5
2165,Left,1,49,70,525.0,0.979167,Eighth,F#2_C#3_C#2
2168,Right,0,69,70,525.0,0.46875,Sixteenth,A4
2169,Right,0,81,70,525.25,0.489583,Sixteenth,A5
2170,Right,0,83,70,525.5,0.489583,Sixteenth,B5
2171,Right,0,81,70,525.75,0.46875,Sixteenth,A5
2172,Right,0,80,70,526.0,0.489583,Sixteenth,G#5
2173,Left,1,37,70,526.0,0.979167,Eighth,F#2_C#3_C#2
2176,Right,0,66,70,526.25,0.489583,Sixteenth,F#4
2177,Right,0,80,70,526.5,0.489583,Sixteenth,G#5
2178,Right,0,78,70,526.75,0.479167,Sixteenth,F#5
2181,Right,0,68,70,527.0,0.427083,Sixteenth,G#4
2179,Left,1,37,70,527.0,0.979167,Eighth,F2_C#3_C#2
2183,Right,0,80,70,527.25,0.489583,Sixteenth,G#5
2184,Right,0,81,70,527.5,0.489583,Sixteenth,A5
2185,Right,0,80,70,527.75,0.489583,Sixteenth,G#5
2186,Left,1,37,70,528.0,0.979167,Eighth,F#2_C#3_C#2
2189,Right,0,69,70,528.0,0.479167,Sixteenth,A4
2190,Right,0,81,70,528.25,0.479167,Sixteenth,A5
2191,Right,0,83,70,528.5,0.447917,Sixteenth,B5
2192,Right,0,81,70,528.75,0.4375,Sixteenth,A5
2194,Left,1,49,70,529.0,0.979167,Eighth,F#2_C#3_C#2
2193,Right,0,83,70,529.0,0.458333,Sixteenth,B5
2197,Right,0,70,70,529.25,0.447917,Sixteenth,A#4
2198,Right,0,83,70,529.5,0.447917,Sixteenth,B5
2199,Right,0,82,70,529.75,0.46875,Sixteenth,A#5
2201,Left,1,42,70,530.0,0.979167,Eighth,F#2_D3_D2
2200,Right,0,71,70,530.0,0.489583,Sixteenth,B4
2204,Right,0,83,70,530.25,0.416667,Sixteenth,B5
2205,Right,0,85,70,530.5,0.447917,Sixteenth,C#6
2206,Right,0,83,70,530.75,0.489583,Sixteenth,B5
2208,Right,0,85,70,531.0,0.489583,Sixteenth,C#6
2207,Left,1,50,70,531.0,0.979167,Eighth,F#2_D3_D2
2211,Right,0,83,70,531.25,0.489583,Sixteenth,B5
2212,Right,0,71,70,531.5,0.489583,Sixteenth,B4
2213,Right,0,83,70,531.75,0.479167,Sixteenth,B5
2216,Right,0,71,70,532.0,0.479167,Sixteenth,B4
2214,Left,1,38,70,532.0,0.979167,Eighth,F#2_D3_D2
2218,Right,0,83,70,532.25,0.489583,Sixteenth,B5
2219,Right,0,85,70,532.5,0.479167,Sixteenth,C#6
2220,Right,0,83,70,532.75,0.46875,Sixteenth,B5
2224,Right,0,88,70,533.0,0.479167,Sixteenth,E6
2221,Left,1,47,70,533.0,0.979167,Eighth,F#2_B2_B1
2225,Right,0,86,70,533.25,0.427083,Sixteenth,D6
2226,Right,0,74,70,533.5,0.46875,Sixteenth,D5
2227,Right,0,86,70,533.75,0.4375,Sixteenth,D6
2231,Right,0,74,70,534.0,0.458333,Sixteenth,D5
2228,Left,1,47,70,534.0,0.979167,Eighth,F#2_B2_B1
2232,Right,0,86,70,534.25,0.458333,Sixteenth,D6
2233,Right,0,88,71,534.5,0.46875,Sixteenth,E6
2234,Right,0,86,71,534.75,0.447917,Sixteenth,D6
2237,Right,0,88,72,535.0,0.489583,Sixteenth,E6
2235,Left,1,59,72,535.0,0.979167,Eighth,F#3_B3_B2
2239,Right,0,86,72,535.25,0.458333,Sixteenth,D6
2240,Right,0,74,73,535.5,0.489583,Sixteenth,D5
2241,Right,0,86,73,535.75,0.489583,Sixteenth,D6
2243,Left,1,45,74,536.0,0.979167,Eighth,F#3_A3_A2
2242,Right,0,73,74,536.0,0.489583,Sixteenth,C#5
2246,Right,0,85,74,536.25,0.4375,Sixteenth,C#6
2247,Right,0,86,75,536.5,0.458333,Sixteenth,D6
2248,Right,0,85,75,536.75,0.479167,Sixteenth,C#6
2249,Right,0,86,76,537.0,0.4375,Sixteenth,D6
2250,Left,1,57,76,537.0,0.979167,Eighth,F#3_A3_A2
2253,Right,0,85,76,537.25,0.46875,Sixteenth,C#6
2254,Right,0,73,77,537.5,0.447917,Sixteenth,C#5
2255,Right,0,85,77,537.75,0.489583,Sixteenth,C#6
2257,Right,0,83,78,538.0,0.489583,Sixteenth,F5_B5
2256,Left,1,44,78,538.0,0.979167,Eighth,G#3_G#2_C#3
2261,Right,0,89,78,538.25,0.427083,Sixteenth,F6
2262,Right,0,90,79,538.5,0.479167,Sixteenth,F#6
2263,Right,0,89,79,538.75,0.4375,Sixteenth,F6
2264,Left,1,54,80,539.0,0.979167,Eighth,F#3_F#2_C#3
2265,Right,0,92,80,539.0,0.447917,Sixteenth,G#6
2268,Right,0,90,81,539.25,0.46875,Sixteenth,F#6
2269,Right,0,81,81,539.5,0.447917,Sixteenth,F#5_A5
2271,Right,0,90,82,539.75,0.46875,Sixteenth,F#6
2273,Left,1,49,82,540.0,0.979167,Eighth,G#3_F2_C#3
2272,Right,0,93,82,540.0,0.458333,Sixteenth,A6
2276,Right,0,92,83,540.25,0.4375,Sixteenth,G#6
2277,Right,0,80,83,540.5,0.4375,Sixteenth,G#5
2278,Right,0,92,84,540.75,0.416667,Sixteenth,G#6
2279,Left,1,56,84,541.0,0.979167,Eighth,G#3_F2_C#3
2282,Right,0,92,85,541.25,0.427083,Sixteenth,G#6
2283,Right,0,80,85,541.5,0.458333,Sixteenth,G#5
2284,Right,0,92,86,541.75,0.458333,Sixteenth,G#6
2285,Left,1,61,86,542.0,0.979167,Eighth,G#3_F3_C#4_B3
2289,Right,0,92,87,542.25,0.4375,Sixteenth,G#6
2290,Right,0,80,87,542.5,0.447917,Sixteenth,G#5
2291,Right,0,92,88,542.75,0.427083,Sixteenth,G#6
2292,Left,1,62,88,543.0,0.979167,Eighth,G#3_F3_D4_B3
2296,Right,0,80,89,543.25,0.489583,Sixteenth,G#5
2297,Right,0,88,89,543.5,0.479167,Sixteenth,E6
2298,Right,0,86,90,543.75,0.489583,Sixteenth,D6
2299,Left,1,62,90,544.0,0.979167,Eighth,G#3_F3_D4_B3
2301,Right,0,85,90,544.0,0.479167,Sixteenth,C#6
2304,Right,0,86,90,544.25,0.489583,Sixteenth,D6
2305,Right,0,80,90,544.5,0.46875,Sixteenth,G#5
2306,Right,0,86,90,544.75,0.447917,Sixteenth,D6
2307,Left,1,59,90,545.0,0.979167,Eighth,G#3_F3_D4_B3
2311,Right,0,86,90,545.25,0.458333,Sixteenth,D6
2312,Right,0,80,90,545.5,0.447917,Sixteenth,G#5
2313,Right,0,86,90,545.75,0.239583,ThirtySecond,D6
2315,Left,1,53,90,546.0,0.979167,Eighth,G#3_F3_D4_B3
2314,Right,0,74,90,546.0,0.489583,Sixteenth,D5
2319,Right,0,85,90,546.25,0.4375,Sixteenth,C#6
2320,Right,0,88,90,546.5,0.489583,Sixteenth,E6
2321,Right,0,86,90,546.75,0.479167,Sixteenth,D6
2324,Right,0,85,90,547.0,0.4375,Sixteenth,C#6
2322,Left,1,44,90,547.0,0.979167,Eighth,G#2_F3_F2
2326,Right,0,86,90,547.25,0.46875,Sixteenth,D6
2327,Right,0,74,90,547.5,0.46875,Sixteenth,D5
2328,Right,0,86,90,547.75,0.4375,Sixteenth,D6
2329,Left,1,41,90,548.0,0.979167,Eighth,G#2_F3_F2
2332,Right,0,74,90,548.0,0.447917,Sixteenth,D5
2333,Right,0,86,90,548.25,0.46875,Sixteenth,D6
2334,Right,0,88,90,548.5,0.447917,Sixteenth,E6
2335,Right,0,86,90,548.75,0.239583,ThirtySecond,D6
2336,Right,0,86,90,549.0,0.458333,Sixteenth,D6
2337,Left,1,41,90,549.0,0.979167,Eighth,G#2_F3_F2
2340,Right,0,85,90,549.25,0.46875,Sixteenth,C#6
2341,Right,0,73,90,549.5,0.46875,Sixteenth,C#5
2342,Right,0,85,90,549.75,0.479167,Sixteenth,C#6
2345,Right,0,84,90,550.0,0.479167,Sixteenth,C6
2343,Left,1,54,90,550.0,0.979167,Eighth,F#3_F#2_A2
2347,Right,0,85,90,550.25,0.46875,Sixteenth,C#6
2348,Right,0,73,90,550.5,0.489583,Sixteenth,C#5
2349,Right,0,85,89,550.75,0.458333,Sixteenth,C#6
2353,Right,0,82,89,551.0,0.479167,Sixteenth,A#5
2350,Left,1,47,89,551.0,0.979167,Eighth,G#3_G#2_B2
2354,Right,0,83,89,551.25,0.46875,Sixteenth,B5
2355,Right,0,71,89,551.5,0.427083,Sixteenth,B4
2356,Right,0,83,88,551.75,0.239583,ThirtySecond,B5
2358,Left,1,44,88,552.0,0.979167,Eighth,G#3_G#2_B2
2357,Right,0,71,88,552.0,0.489583,Sixteenth,B4
2361,Right,0,83,88,552.25,0.447917,Sixteenth,B5
2362,Right,0,85,87,552.5,0.479167,Sixteenth,C#6
2363,Right,0,83,87,552.75,0.447917,Sixteenth,B5
2368,Right,0,82,87,553.0,0.46875,Sixteenth,A#5
2364,Left,1,56,87,553.0,0.979167,Eighth,G#3_F4_D4_B3
2369,Right,0,83,87,553.25,0.458333,Sixteenth,B5
2370,Right,0,71,86,553.5,0.46875,Sixteenth,B4
2371,Right,0,83,86,553.75,0.458333,Sixteenth,B5
2375,Right,0,71,86,554.0,0.447917,Sixteenth,B4
2372,Left,1,56,86,554.0,0.979167,Eighth,G#3_F4_D4_B3
2377,Right,0,83,85,554.25,0.4375,Sixteenth,B5
2378,Right,0,85,85,554.5,0.458333,Sixteenth,C#6
2379,Right,0,83,85,554.75,0.489583,Sixteenth,B5
2380,Left,1,56,85,555.0,0.979167,Eighth,G#3_F4_D4_B3
2384,Right,0,85,84,555.25,0.458333,Sixteenth,C#6
2385,Right,0,71,84,555.5,0.479167,Sixteenth,B4
2386,Right,0,83,84,555.75,0.239583,ThirtySecond,B5
2387,Left,1,66,83,556.0,0.979167,Eighth,F#4_C#4_A3
2390,Right,0,83,83,556.25,0.489583,Sixteenth,B5
2391,Right,0,69,83,556.5,0.447917,Sixteenth,A4
2392,Right,0,81,83,556.75,0.239583,ThirtySecond,A5
2393,Left,1,62,82,557.0,0.479167,Sixteenth,F#4_D4_B3
2396,Right,0,81,82,557.25,0.458333,Sixteenth,A5
2398,Right,0,68,82,557.5,0.46875,Sixteenth,G#4
2397,Left,1,60,82,557.5,0.479167,Sixteenth,F#4_D#4_C4
2401,Right,0,80,81,557.75,0.239583,ThirtySecond,G#5
2402,Right,0,68,81,558.0,0.489583,Sixteenth,G#4
2403,Right,0,80,81,558.25,0.4375,Sixteenth,G#5
2404,Left,1,68,81,558.5,0.479167,Sixteenth,G#4_F#4_D#4_C4
2408,Right,0,79,81,558.5,0.479167,Sixteenth,G5
2409,Right,0,80,80,558.75,0.479167,Sixteenth,G#5
2410,Right,0,81,80,559.0,0.447917,Sixteenth,A5
2411,Right,0,80,80,559.25,0.46875,Sixteenth,G#5
2415,Right,0,68,80,559.5,0.427083,Sixteenth,G#4
2412,Left,1,66,80,559.5,0.479167,Sixteenth,F#4_D#4_C4
2416,Right,0,80,79,559.75,0.489583,Sixteenth,G#5
2417,Right,0,68,79,560.0,0.479167,Sixteenth,G#4
2418,Right,0,80,79,560.25,0.46875,Sixteenth,G#5
2419,Left,1,66,78,560.5,0.479167,Sixteenth,G#4_F#4_D#4_C4
2422,Right,0,81,78,560.5,0.447917,Sixteenth,A5
2424,Right,0,80,78,560.75,0.489583,Sixteenth,G#5
2425,Right,0,81,78,561.0,0.458333,Sixteenth,A5
2426,Right,0,80,78,561.25,0.447917,Sixteenth,G#5
2427,Right,0,68,77,561.5,0.479167,Sixteenth,G#4
2428,Left,1,66,77,561.5,0.479167,Sixteenth,F#4_D#4_C4
2431,Right,0,80,77,561.75,0.458333,Sixteenth,G#5
2432,Right,0,69,77,562.0,0.46875,Sixteenth,A4
2433,Right,0,81,76,562.25,0.46875,Sixteenth,A5
2434,Left,1,69,76,562.5,0.479167,Sixteenth,F#4_D#4_C4_A4
2435,Right,0,83,76,562.5,0.4375,Sixteenth,B5
2439,Right,0,81,76,562.75,0.479167,Sixteenth,A5
2440,Right,0,80,76,563.0,0.489583,Sixteenth,G#5
2441,Right,0,78,75,563.25,0.4375,Sixteenth,F#5
2443,Left,1,54,75,563.5,0.479167,Sixteenth,F#3_D#3_C3_A3
2442,Right,0,66,75,563.5,0.46875,Sixteenth,F#4
2447,Right,0,78,75,563.75,0.239583,ThirtySecond,F#5
2448,Right,0,77,74,564.0,0.4375,Sixteenth,F5
2449,Right,0,78,74,564.25,0.458333,Sixteenth,F#5
2450,Left,1,57,74,564.5,0.479167,Sixteenth,F#3_C#3_A3
2453,Right,0,66,74,564.5,0.4375,Sixteenth,F#4
2454,Right,0,78,74,564.75,0.489583,Sixteenth,F#5
2455,Right,0,80,73,565.0,0.458333,Sixteenth,G#5
2456,Right,0,78,73,565.25,0.479167,Sixteenth,F#5
2461,Right,0,66,73,565.5,0.4375,Sixteenth,F#4
2457,Left,1,60,73,565.5,0.479167,Sixteenth,F#3_C4_C#3_A3
2462,Right,0,78,72,565.75,0.46875,Sixteenth,F#5
2463,Right,0,77,72,566.0,0.447917,Sixteenth,F5
2464,Right,0,78,72,566.25,0.46875,Sixteenth,F#5
2466,Left,1,54,72,566.5,0.479167,Sixteenth,F#3_C#4_C#3_A3
2465,Right,0,66,72,566.5,0.46875,Sixteenth,F#4
2470,Right,0,78,71,566.75,0.489583,Sixteenth,F#5
2471,Left,1,61,71,567.0,0.979167,Eighth,G#3_F3_C#4_C#3
2475,Right,0,78,71,567.25,0.489583,Sixteenth,F#5
2476,Right,0,65,71,567.5,0.4375,Sixteenth,F4
2477,Right,0,77,80,567.75,0.489583,Sixteenth,F5
2478,Left,1,56,80,568.0,0.979167,Eighth,G#3_F3_C#3
2481,Right,0,81,80,568.25,0.479167,Sixteenth,A5
2482,Right,0,68,80,568.5,0.458333,Sixteenth,G#4
2483,Right,0,80,80,568.75,0.479167,Sixteenth,G#5
2484,Left,1,59,80,569.0,0.979167,Eighth,G#3_C#3_B3
2487,Right,0,85,80,569.25,0.458333,Sixteenth,C#6
2488,Right,0,71,80,569.5,0.489583,Sixteenth,B4
2489,Right,0,84,80,569.75,0.239583,ThirtySecond,C6
2490,Left,1,56,80,570.0,0.979167,Eighth,G#3_C#3_B3
2493,Right,0,85,80,570.0,0.479167,Sixteenth,C#6
2494,Right,0,71,80,570.25,0.479167,Sixteenth,B4
2495,Right,0,85,80,570.5,0.46875,Sixteenth,C#6
2496,Right,0,83,80,570.75,0.489583,Sixteenth,B5
2499,Right,0,82,80,571.0,0.479167,Sixteenth,A#5
2497,Left,1,59,80,571.0,0.979167,Eighth,G#3_C#3_B3
2501,Right,0,83,80,571.25,0.4375,Sixteenth,B5
2502,Right,0,71,80,571.5,0.447917,Sixteenth,B4
2503,Right,0,83,80,571.75,0.239583,ThirtySecond,B5
2504,Left,1,57,80,572.0,0.979167,Eighth,F#3_C#3_A3
2507,Right,0,83,80,572.0,0.489583,Sixteenth,B5
2508,Right,0,81,80,572.25,0.46875,Sixteenth,A5
2509,Right,0,69,80,572.5,0.479167,Sixteenth,A4
2510,Right,0,81,80,572.75,0.479167,Sixteenth,A5
2514,Right,0,83,80,573.0,0.46875,Sixteenth,B5
2511,Left,1,57,80,573.0,0.979167,Eighth,F#3_C#3_A3
2515,Right,0,69,80,573.25,0.489583,Sixteenth,A4
2516,Right,0,83,80,573.5,0.447917,Sixteenth,B5
2517,Right,0,81,80,573.75,0.239583,ThirtySecond,A5
2518,Right,0,81,80,574.0,0.4375,Sixteenth,A5
2519,Left,1,47,80,574.0,0.979167,Eighth,G#3_F3_D3_B2
2523,Right,0,68,80,574.25,0.489583,Sixteenth,G#4
2524,Right,0,81,80,574.5,0.458333,Sixteenth,A5
2525,Right,0,80,80,574.75,0.239583,ThirtySecond,G#5
2526,Right,0,80,80,575.0,0.458333,Sixteenth,G#5
2527,Left,1,51,80,575.0,0.979167,Eighth,F#3_D#3_C3_A2
2531,Right,0,66,80,575.25,0.479167,Sixteenth,F#4
2532,Right,0,80,80,575.5,0.458333,Sixteenth,G#5
2533,Right,0,78,80,575.75,0.239583,ThirtySecond,F#5
2534,Left,1,51,80,576.0,0.979167,Eighth,F#3_D#3_C3_A2
2536,Right,0,77,80,576.0,0.458333,Sixteenth,F5
2539,Right,0,78,80,576.25,0.458333,Sixteenth,F#5
2540,Right,0,66,80,576.5,0.458333,Sixteenth,F#4
2541,Right,0,78,80,576.75,0.489583,Sixteenth,F#5
2542,Left,1,54,80,577.0,0.979167,Eighth,F#3_D#3_C3_A2
2545,Right,0,80,80,577.0,0.479167,Sixteenth,G#5
2547,Right,0,78,80,577.25,0.427083,Sixteenth,F#5
2548,Right,0,66,80,577.5,0.458333,Sixteenth,F#4
2549,Right,0,78,80,577.75,0.489583,Sixteenth,F#5
2553,Right,0,65,80,578.0,0.46875,Sixteenth,F4
2550,Left,1,53,80,578.0,0.979167,Eighth,G#2_F3_C#3
2554,Right,0,77,80,578.25,0.489583,Sixteenth,F5
2555,Right,0,78,80,578.5,0.458333,Sixteenth,F#5
2556,Right,0,77,80,578.75,0.489583,Sixteenth,F5
2558,Left,1,44,80,579.0,0.979167,Eighth,G#2_F3_C#3
2557,Right,0,78,80,579.0,0.458333,Sixteenth,F#5
2561,Right,0,65,80,579.25,0.458333,Sixteenth,F4
2562,Right,0,78,80,579.5,0.489583,Sixteenth,F#5
2563,Right,0,77,80,579.75,0.489583,Sixteenth,F5
2564,Right,0,68,80,580.0,0.489583,Sixteenth,G#4
2565,Left,1,53,80,580.0,0.979167,Sixteenth,F3_C#3
2567,Right,0,80,80,580.25,0.458333,Sixteenth,G#5
2568,Right,0,81,80,580.5,0.447917,Sixteenth,A5
2569,Left,1,56,80,580.5,0.479167,Sixteenth,G#3_F3
2571,Right,0,80,80,580.75,0.489583,Sixteenth,G#5
2575,Right,0,83,80,581.0,0.489583,Sixteenth,B5
2572,Left,1,49,80,581.0,0.979167,Sixteenth,G#3_C#3_B3
2576,Right,0,71,80,581.25,0.458333,Sixteenth,B4
2577,Left,1,59,80,581.5,0.479167,Sixteenth,D4_B3
2578,Right,0,74,80,581.5,0.489583,Sixteenth,D5
2580,Right,0,86,80,581.75,0.239583,ThirtySecond,D6
2582,Left,1,59,80,582.0,0.979167,Eighth,D4_C#3_B3
2581,Right,0,85,80,582.0,0.458333,Sixteenth,C#6
2585,Right,0,86,80,582.25,0.458333,Sixteenth,D6
2586,Right,0,74,80,582.5,0.458333,Sixteenth,D5
2587,Right,0,86,80,582.75,0.458333,Sixteenth,D6
2588,Right,0,88,80,583.0,0.447917,Sixteenth,E6
2589,Left,1,59,80,583.0,0.979167,Eighth,D4_C#3_B3
2592,Right,0,86,80,583.25,0.458333,Sixteenth,D6
2593,Right,0,74,80,583.5,0.479167,Sixteenth,D5
2594,Right,0,86,80,583.75,0.239583,ThirtySecond,D6
2598,Right,0,86,80,584.0,0.447917,Sixteenth,D6
2595,Left,1,49,80,584.0,0.979167,Eighth,C#4_C#3_A3
2599,Right,0,73,80,584.25,0.46875,Sixteenth,C#5
2600,Right,0,86,80,584.5,0.458333,Sixteenth,D6
2601,Right,0,85,80,584.75,0.46875,Sixteenth,C#6
2602,Left,1,57,80,585.0,0.979167,Eighth,C#4_C#3_A3
2605,Right,0,86,80,585.25,0.489583,Sixteenth,D6
2606,Right,0,73,80,585.5,0.458333,Sixteenth,C#5
2607,Right,0,85,80,585.75,0.239583,ThirtySecond,C#6
2608,Left,1,56,80,586.0,0.979167,Eighth,G#3_C#3_B3
2611,Right,0,85,80,586.25,0.489583,Sixteenth,C#6
2612,Right,0,71,80,586.5,0.489583,Sixteenth,B4
2613,Right,0,83,80,586.75,0.239583,ThirtySecond,B5
2614,Left,1,57,80,587.0,0.979167,Eighth,F#3_C#3_A3
2617,Right,0,83,80,587.25,0.489583,Sixteenth,B5
2618,Right,0,69,80,587.5,0.458333,Sixteenth,A4
2619,Right,0,81,80,587.75,0.239583,ThirtySecond,A5
2622,Right,0,83,80,588.0,0.479167,Sixteenth,B5
2620,Left,1,54,80,588.0,0.979167,Eighth,F#3_C#3_A3
2624,Right,0,69,80,588.25,0.458333,Sixteenth,A4
2625,Right,0,83,80,588.5,0.479167,Sixteenth,B5
2626,Right,0,81,80,588.75,0.458333,Sixteenth,A5
2631,Right,0,80,80,589.0,0.458333,Sixteenth,G#5
2627,Left,1,49,80,589.0,0.979167,Eighth,F#3_C4_C#3_A3
2632,Right,0,81,80,589.25,0.489583,Sixteenth,A5
2633,Right,0,69,80,589.5,0.489583,Sixteenth,A4
2634,Right,0,81,80,589.75,0.239583,ThirtySecond,A5
2635,Left,1,61,80,590.0,0.979167,Eighth,G#3_F3_C#4_C#3
2639,Right,0,81,80,590.0,0.489583,Sixteenth,A5
2640,Right,0,68,80,590.25,0.4375,Sixteenth,G#4
2641,Right,0,81,80,590.5,0.458333,Sixteenth,A5
2642,Right,0,80,80,590.75,0.239583,ThirtySecond,G#5
2643,Left,1,49,80,591.0,0.979167,Eighth,G#3_F3_C#4_C#3
2647,Right,0,80,80,591.25,0.447917,Sixteenth,G#5
2648,Right,0,68,80,591.5,0.489583,Sixteenth,G#4
2649,Right,0,80,80,591.75,0.46875,Sixteenth,G#5
2650,Left,1,56,80,592.0,0.979167,Eighth,G#3_F3_C#4_C#3
2654,Right,0,92,80,592.25,0.458333,Sixteenth,G#6
2655,Right,0,80,80,592.5,0.46875,Sixteenth,G#5
2656,Right,0,92,80,592.75,0.458333,Sixteenth,G#6
2657,Left,1,61,80,593.0,0.979167,Eighth,G3_E3_C#4_C#3_A#3
2662,Right,0,91,80,593.25,0.458333,Sixteenth,G6
2663,Right,0,79,80,593.5,0.489583,Sixteenth,G5
2664,Right,0,91,80,593.75,0.239583,ThirtySecond,G6
2665,Left,1,59,80,594.0,0.979167,Eighth,G3_D4_D3_B3
2669,Right,0,91,80,594.25,0.479167,Sixteenth,G6
2670,Right,0,79,80,594.5,0.479167,Sixteenth,G5
2671,Right,0,91,80,594.75,0.458333,Sixteenth,G6
2672,Left,1,59,80,595.0,0.979167,Eighth,G3_D4_D3_B3
2676,Right,0,91,80,595.25,0.479167,Sixteenth,G6
2677,Right,0,83,80,595.5,0.46875,Sixteenth,B5
2678,Right,0,95,80,595.75,0.479167,Sixteenth,B6
2679,Left,1,55,80,596.0,0.979167,Eighth,G3_D4_D3_B3
2683,Right,0,95,80,596.25,0.447917,Sixteenth,B6
2684,Right,0,81,80,596.5,0.416667,Sixteenth,A5
2685,Right,0,93,80,596.75,0.479167,Sixteenth,A6
2686,Left,1,62,80,597.0,0.979167,Eighth,G3_D4_D3_B3
2690,Right,0,93,80,597.25,0.489583,Sixteenth,A6
2691,Right,0,79,80,597.5,0.458333,Sixteenth,G5
2692,Right,0,91,80,597.75,0.458333,Sixteenth,G6
2693,Left,1,55,80,598.0,0.979167,Eighth,G3_D4_B3
2696,Right,0,91,80,598.25,0.4375,Sixteenth,G6
2697,Right,0,79,80,598.5,0.489583,Sixteenth,G5
2698,Right,0,91,80,598.75,0.489583,Sixteenth,G6
2699,Left,1,62,80,599.0,0.979167,Eighth,G3_D4_B3
2702,Right,0,91,80,599.25,0.427083,Sixteenth,G6
2703,Right,0,79,80,599.5,0.4375,Sixteenth,G5
2704,Right,0,90,80,599.75,0.239583,ThirtySecond,F#6_F#5
2706,Left,1,64,80,600.0,0.979167,Eighth,G3_E4_C#4
2709,Right,0,90,80,600.25,0.458333,Sixteenth,F#6
2710,Right,0,76,80,600.5,0.4375,Sixteenth,E5
2711,Right,0,88,80,600.75,0.458333,Sixteenth,E6
2712,Left,1,55,80,601.0,0.979167,Eighth,G3_E4_C#4
2715,Right,0,88,80,601.25,0.4375,Sixteenth,E6
2716,Right,0,76,80,601.5,0.46875,Sixteenth,E5
2717,Right,0,88,80,601.75,0.458333,Sixteenth,E6
2718,Left,1,55,80,602.0,0.979167,Eighth,G3_E4_C#4
2721,Right,0,88,80,602.25,0.489583,Sixteenth,E6
2722,Right,0,76,80,602.416667,0.46875,Sixteenth,E5
2723,Right,0,90,80,602.75,0.489583,Sixteenth,F#6_F#5
2725,Left,1,59,80,603.0,0.979167,Eighth,G3_D4_B3
2728,Right,0,90,80,603.25,0.458333,Sixteenth,F#6
2729,Right,0,79,80,603.5,0.4375,Sixteenth,G5
2730,Right,0,91,80,603.75,0.458333,Sixteenth,G6
2731,Left,1,62,80,604.0,0.979167,Eighth,G3_D4_D3_B3
2735,Right,0,91,80,604.25,0.489583,Sixteenth,G6
2736,Right,0,79,80,604.5,0.447917,Sixteenth,G5
2737,Right,0,91,80,604.75,0.458333,Sixteenth,G6
2738,Left,1,62,80,605.0,0.979167,Eighth,F#3_D4_D3_A3
2742,Right,0,91,80,605.25,0.447917,Sixteenth,G6
2743,Right,0,79,80,605.5,0.427083,Sixteenth,G5
2744,Right,0,90,80,605.75,0.239583,ThirtySecond,F#6_F#5
2746,Left,1,54,80,606.0,0.979167,Eighth,F#3_D4_D3_A3
2748,Right,0,90,80,606.0,0.458333,Sixteenth,F#6
2751,Right,0,78,80,606.25,0.239583,ThirtySecond,F#5
2752,Right,0,78,80,606.5,0.458333,Sixteenth,F#5
2753,Right,0,90,80,606.75,0.458333,Sixteenth,F#6
2754,Left,1,54,80,607.0,0.979167,Eighth,F#3_C#4_C#3_A3
2756,Right,0,93,80,607.0,0.458333,Sixteenth,A6
2759,Right,0,81,80,607.25,0.239583,ThirtySecond,A5
2760,Right,0,81,80,607.5,0.447917,Sixteenth,A5
2761,Right,0,93,80,607.75,0.479167,Sixteenth,A6
2762,Left,1,54,80,608.0,0.979167,Eighth,F#3_C#4_C#3_A3
2763,Right,0,97,80,608.0,0.458333,Sixteenth,C#7
2767,Right,0,85,80,608.25,0.239583,ThirtySecond,C#6
2768,Right,0,85,80,608.5,0.46875,Sixteenth,C#6
2769,Right,0,97,80,608.75,0.458333,Sixteenth,C#7
2770,Left,1,61,80,609.0,0.979167,Eighth,G#3_F3_C#4_C#3
2774,Right,0,97,81,609.25,0.427083,Sixteenth,C#7
2775,Right,0,85,82,609.5,0.458333,Sixteenth,C#6
2776,Right,0,97,83,609.75,0.447917,Sixteenth,C#7
2777,Left,1,56,84,610.0,0.979167,Eighth,G#3_F3_C#4_C#3
2781,Right,0,85,86,610.25,0.4375,Sixteenth,C#6
2782,Right,0,73,87,610.5,0.489583,Sixteenth,C#5
2783,Right,0,85,88,610.75,0.4375,Sixteenth,C#6
2784,Left,1,56,89,611.0,0.979167,Eighth,G#3_F3_C#4_C#3
2788,Right,0,97,91,611.25,0.46875,Sixteenth,C#7
2789,Right,0,85,92,611.5,0.46875,Sixteenth,C#6
2790,Right,0,97,93,611.75,0.489583,Sixteenth,C#7
2791,Left,1,61,94,612.0,0.979167,Eighth,G#3_F3_C#4_C#3
2795,Right,0,85,96,612.25,0.458333,Sixteenth,C#6
2796,Right,0,73,97,612.5,0.46875,Sixteenth,C#5
2797,Right,0,85,98,612.75,0.46875,Sixteenth,C#6
2798,Left,1,61,99,613.0,0.979167,Eighth,G#3_F3_C#4_C#3
2802,Right,0,97,100,613.25,0.458333,Sixteenth,C#7
2803,Right,0,85,100,613.5,0.458333,Sixteenth,C#6
2804,Right,0,97,100,613.75,0.458333,Sixteenth,C#7
2805,Left,1,61,100,614.0,0.979167,Eighth,F#3_C#4_A3
2806,Right,0,93,100,614.0,0.489583,Sixteenth,A6
2809,Right,0,81,98,614.25,0.239583,ThirtySecond,A5
2810,Right,0,81,96,614.5,0.447917,Sixteenth,A5
2811,Right,0,93,93,614.75,0.239583,ThirtySecond,A6
2812,Left,1,57,91,615.0,0.979167,Eighth,F#3_C#4_A3
2815,Right,0,93,91,615.0,0.458333,Sixteenth,A6
2816,Right,0,81,88,615.25,0.239583,ThirtySecond,A5
2817,Right,0,81,86,615.5,0.4375,Sixteenth,A5
2818,Right,0,93,83,615.75,0.4375,Sixteenth,A6
2819,Right,0,90,81,616.0,0.489583,Sixteenth,F#6
2820,Left,1,57,81,616.0,0.479167,Sixteenth,C#4_A3
2822,Right,0,78,80,616.25,0.239583,ThirtySecond,F#5
2826,Right,0,78,80,616.5,0.479167,Sixteenth,F#5
2823,Left,1,49,80,616.5,0.479167,Sixteenth,C#3_A3_A2
2827,Right,0,66,80,616.75,0.458333,Sixteenth,F#4
2828,Right,0,77,80,617.0,0.479167,Sixteenth,G#5_F5_B4
2829,Left,1,56,80,617.0,0.479167,Sixteenth,G#3_G#2_C#3
2834,Right,0,68,80,617.25,0.489583,Sixteenth,G#4
2836,Left,1,54,80,617.5,0.479167,Sixteenth,F#3_F#2_C#3
2835,Right,0,81,80,617.5,0.5,Sixteenth,F#5_C#5_A5
2841,Right,0,69,80,617.75,0.239583,ThirtySecond,A4
2844,Right,0,71,80,618.0,0.979167,Eighth,G#5_B5_B4
2842,Left,1,37,80,618.0,0.479167,Sixteenth,C#3_C#2
2847,Left,1,37,80,618.5,0.979167,Eighth,C#2_C#1
2849,Right,0,68,80,619.0,0.979167,Eighth,G#4_D4_B4
2852,Left,1,29,80,619.5,0.979167,Eighth,F2_F1
2854,Right,0,61,80,620.0,0.979167,Eighth,F#4_C#4_A4
2857,Left,1,42,80,620.5,0.979167,Eighth,F#2_F#1
2859,Right,0,59,80,621.0,0.979167,Eighth,F4_D4_B3_A4
2863,Left,1,44,80,621.5,0.979167,Eighth,G#2_G#1
2865,Right,0,59,80,622.0,0.979167,Eighth,G#4_F4_D4_B3
2869,Left,1,45,80,622.5,0.479167,Sixteenth,A2_A1
2873,Right,0,57,80,623.0,0.979167,Eighth,F#4_D#4_A3
2871,Left,1,47,80,623.0,0.479167,Sixteenth,B2_B1
2876,Left,1,48,80,623.5,0.479167,Sixteenth,C3_C2
2878,Left,1,37,80,624.0,0.479167,Sixteenth,C#3_C#2
2880,Right,0,66,80,624.0,2.979167,DottedQuarter,F#4_D#4_A3
2883,Left,1,36,80,624.5,0.479167,Sixteenth,C3_C2
2885,Left,1,49,80,625.0,0.479167,Sixteenth,C#3_C#2
2889,Right,0,60,80,625.5,0.479167,Sixteenth,C4
2887,Left,1,48,80,625.5,0.479167,Sixteenth,C3_C2
2890,Left,1,49,80,626.0,0.479167,Sixteenth,C#3_C#2
2892,Right,0,61,80,626.0,0.479167,Sixteenth,C#4
2893,Left,1,48,80,626.5,0.479167,Sixteenth,C3_C2
2895,Right,0,60,80,626.5,0.479167,Sixteenth,C4
2899,Left,1,37,80,627.0,0.479167,Sixteenth,C#3_C#2
2896,Right,0,65,80,627.0,1.479167,DottedEighth,G#3_F4_C#4
2901,Left,1,53,80,627.5,0.479167,Sixteenth,F3
2902,Left,1,56,80,628.0,0.479167,Sixteenth,G#3
2904,Left,1,53,80,628.5,0.479167,Sixteenth,F3
2903,Right,0,68,80,628.5,0.479167,Sixteenth,G#4
2905,Right,0,71,80,629.0,0.479167,Sixteenth,B4
2906,Left,1,56,80,629.0,0.479167,Sixteenth,G#3
2907,Right,0,74,80,629.5,0.479167,Sixteenth,D5
2908,Left,1,59,80,629.5,0.479167,Sixteenth,B3
2909,Right,0,62,80,630.0,0.979167,Eighth,G#4_F4_D5_D4_B4
2910,Left,1,56,80,630.0,0.479167,Sixteenth,G#3_F3_C#3_B3
2918,Left,1,37,80,630.5,0.979167,Eighth,C#3_C#2
2920,Right,0,62,80,631.0,0.979167,Eighth,G#4_D5_D4_B4
2924,Left,1,53,80,631.5,0.979167,Eighth,F3_F2
2926,Right,0,69,80,632.0,0.979167,Eighth,C#5_C#4_A4
2929,Left,1,54,80,632.5,0.979167,Eighth,F#3_F#2
2931,Right,0,65,80,633.0,0.979167,Eighth,G#4_F4_D4_C#5
2935,Left,1,56,80,633.5,0.979167,Eighth,G#3_G#2
2937,Right,0,71,80,634.0,0.979167,Eighth,G#4_F4_D4_B4
2941,Left,1,45,80,634.5,0.479167,Sixteenth,A3_A2
2943,Left,1,47,80,635.0,0.479167,Sixteenth,B3_B2
2945,Right,0,69,80,635.0,0.979167,Eighth,F#4_D#4_A4
2948,Left,1,48,80,635.5,0.979167,Eighth,C4_C3
2950,Right,0,69,80,636.0,1.979167,Quarter,F#4_A4
2952,Left,1,49,80,636.5,0.479167,Sixteenth,C#4_C#3
2954,Left,1,36,80,637.0,0.479167,Sixteenth,C3_C2
2956,Right,0,60,80,637.0,0.479167,Sixteenth,C4
2957,Left,1,49,80,637.5,0.479167,Sixteenth,C#3_C#2
2959,Right,0,61,80,637.5,0.479167,Sixteenth,C#4
2962,Left,1,36,80,638.0,0.479167,Sixteenth,C3_C2
2960,Right,0,68,80,638.0,0.979167,Eighth,G#4_F4_C4
2966,Left,1,37,80,638.5,0.479167,Sixteenth,C#3_C#2
2965,Right,0,61,80,638.5,0.479167,Sixteenth,C#4
2972,Left,1,48,80,639.0,0.479167,Sixteenth,C3_C2
2968,Right,0,61,80,639.0,0.979167,Eighth,G#4_G#3_F4_C#4
2974,Left,1,49,80,639.5,0.479167,Sixteenth,C#3_C#2
2979,Left,1,37,80,640.0,0.479167,Sixteenth,C#2
2976,Right,0,67,80,640.0,1.979167,Eighth,G4_G3_E4_A#3
2981,Left,1,46,80,640.5,0.479167,Sixteenth,A#2
2983,Left,1,38,80,641.0,0.479167,Sixteenth,D2
2982,Right,0,59,80,641.0,0.979167,Eighth,G3_D4_B3
2986,Left,1,47,80,641.5,0.479167,Sixteenth,B2
2988,Right,0,67,80,642.0,0.229167,ThirtySecond,G4
2987,Left,1,31,80,642.0,0.479167,Sixteenth,G1
2989,Right,0,83,80,642.25,1.729167,DottedEighth,B5
2990,Left,1,43,80,642.5,0.479167,Sixteenth,G2
2992,Right,0,71,80,643.0,0.979167,Eighth,B4
2991,Left,1,50,80,643.0,0.479167,Sixteenth,D3
2993,Left,1,43,80,643.5,0.479167,Sixteenth,G2
2994,Right,0,69,80,644.0,0.979167,Eighth,A5_A4
2996,Left,1,50,80,644.0,0.479167,Sixteenth,D3
2997,Left,1,43,80,644.5,0.479167,Sixteenth,G2
3000,Left,1,35,80,645.0,0.479167,Sixteenth,B1
2998,Right,0,69,80,645.0,0.979167,Eighth,A5_A4
3001,Left,1,43,80,645.5,0.479167,Sixteenth,G2
3002,Left,1,55,80,646.0,0.479167,Sixteenth,G3
3003,Right,0,79,80,646.0,0.979167,Eighth,G5_G4
3005,Left,1,43,80,646.5,0.479167,Sixteenth,G2
3006,Right,0,79,80,647.0,0.979167,Sixteenth,G5_G4_B4
3009,Left,1,55,80,647.0,0.479167,Sixteenth,G3
3012,Left,1,43,80,647.5,0.479167,Sixteenth,G2
3010,Right,0,78,80,647.5,0.479167,Sixteenth,F#5_D5
3014,Right,0,78,80,648.0,0.979167,Eighth,G4_F#5_D5
3013,Left,1,36,80,648.0,0.479167,Sixteenth,C2
3017,Left,1,43,80,648.5,0.479167,Sixteenth,G2
3018,Right,0,67,80,649.0,0.979167,Eighth,G4_E5_C5
3020,Left,1,55,80,649.0,0.479167,Sixteenth,G3
3022,Left,1,43,80,649.5,0.479167,Sixteenth,G2
3023,Right,0,76,80,650.0,0.479167,Sixteenth,G4_E5_C5
3025,Left,1,55,80,650.0,0.479167,Sixteenth,G3
3027,Right,0,78,80,650.5,0.479167,Sixteenth,F#5_D#5_C5_A4
3030,Left,1,43,80,650.5,0.479167,Sixteenth,G2
3036,Left,1,31,80,651.0,0.479167,Sixteenth,G1
3032,Right,0,75,80,651.0,0.479167,Sixteenth,F#5_D#5_C5_A4
3039,Left,1,43,80,651.5,0.479167,Sixteenth,G2
3037,Right,0,74,80,651.5,0.479167,Sixteenth,G5_D5_B4
3042,Left,1,55,80,652.0,0.479167,Sixteenth,G3
3041,Right,0,74,80,652.0,0.979167,Eighth,G5_D5_B4
3045,Left,1,43,80,652.5,0.479167,Sixteenth,G2
3046,Right,0,67,80,653.0,0.479167,Sixteenth,G4
3047,Left,1,55,80,653.0,0.229167,ThirtySecond,G3
3048,Left,1,43,80,653.25,0.229167,ThirtySecond,G2
3051,Right,0,66,80,653.5,0.479167,Sixteenth,F#4_F#3
3049,Left,1,42,80,653.5,0.479167,Sixteenth,F#2_D2
3054,Right,0,66,80,654.0,0.979167,Eighth,F#4_F#3
3053,Left,1,42,80,654.0,0.479167,Sixteenth,F#2_D2
3057,Left,1,45,80,654.5,0.479167,Sixteenth,A2
3062,Left,1,45,80,655.0,0.479167,Sixteenth,F#2_C#2_A2
3058,Right,0,57,80,655.0,0.979167,Eighth,F#4_C#4_A4_A3
3065,Left,1,49,80,655.5,0.479167,Sixteenth,C#3
3070,Left,1,45,80,656.0,0.479167,Sixteenth,F#2_C#2_A2
3066,Right,0,73,80,656.0,0.979167,Eighth,F#4_C#5_C#4_A4
3073,Left,1,49,80,656.5,0.479167,Sixteenth,C#3
3074,Right,0,73,80,657.0,1.979167,Quarter,G#4_F4_C#5_C#4
3078,Left,1,44,80,657.0,0.479167,Sixteenth,G#2_F2_C#2
3081,Left,1,49,80,657.5,0.479167,Sixteenth,C#3
3082,Left,1,37,80,658.0,0.479167,Sixteenth,G#2_F2_C#2
3085,Left,1,49,80,658.5,0.479167,Sixteenth,C#3
3086,Right,0,61,80,659.0,0.979167,Eighth,F#4_C#5_C#4_A4
3089,Left,1,45,80,659.0,0.479167,Sixteenth,F#2_A2
3092,Left,1,49,80,659.5,0.479167,Sixteenth,C#3
3093,Right,0,61,80,660.0,0.979167,Eighth,C#5_C#4_A4
3096,Left,1,45,80,660.0,0.479167,Sixteenth,F#2_A2
3098,Left,1,49,80,660.5,0.479167,Sixteenth,C#3
3099,Right,0,67,80,661.0,0.979167,Eighth,G4_D5_D4
3100,Left,1,47,80,661.0,0.479167,Sixteenth,B2_B1
3104,Left,1,49,80,661.5,0.479167,Sixteenth,C#3
3105,Left,1,43,80,662.0,0.479167,Sixteenth,G2_B1
3107,Right,0,55,80,662.0,0.979167,Eighth,G4_G3
3109,Left,1,47,80,662.5,0.479167,Sixteenth,B2
3112,Right,0,59,80,663.0,0.979167,Eighth,B4_B3
3110,Left,1,47,80,663.0,0.479167,Sixteenth,B2_B1
3114,Left,1,47,80,663.5,0.479167,Sixteenth,B2
3117,Right,0,61,80,664.0,0.979167,Eighth,C#4
3115,Left,1,37,80,664.0,0.479167,Sixteenth,C#3_C#2
3118,Left,1,49,80,664.5,0.479167,Sixteenth,C#3
3121,Left,1,37,80,665.0,0.479167,Sixteenth,C#2
3119,Right,0,53,80,665.0,0.979167,Eighth,F4_F3
3122,Left,1,41,80,665.5,0.479167,Sixteenth,F2
3125,Left,1,30,80,666.0,0.479167,Sixteenth,F#1
3123,Right,0,66,80,666.0,0.979167,Eighth,F#4_F#3
3126,Left,1,42,80,666.5,0.479167,Sixteenth,F#2_C#2
3130,Left,1,29,80,667.0,0.479167,Sixteenth,F1
3128,Right,0,61,80,667.0,1.479167,DottedEighth,C#5_C#4
3131,Left,1,37,80,667.5,0.479167,Sixteenth,G#2_C#2
3133,Left,1,29,80,668.0,0.479167,Sixteenth,F1
3134,Right,0,56,80,668.5,0.479167,Sixteenth,G#4_G#3
3136,Left,1,44,80,668.5,0.479167,Sixteenth,G#2_C#2
3139,Left,1,30,80,669.0,0.479167,Sixteenth,F#1
3138,Right,0,57,80,669.0,0.979167,Eighth,A4_A3
3141,Left,1,45,80,669.5,0.479167,Sixteenth,C#2_A2
3144,Left,1,37,80,670.0,0.479167,Sixteenth,C#2
3143,Right,0,81,80,670.0,1.479167,DottedEighth,A5_A4
3146,Left,1,42,80,670.5,0.479167,Sixteenth,F#2_C#3
3148,Left,1,37,80,671.0,0.479167,Sixteenth,C#2
3149,Right,0,77,80,671.5,0.479167,Sixteenth,F5_F4
3151,Left,1,49,80,671.5,0.479167,Sixteenth,C#3
3152,Left,1,38,80,673.0,0.479167,Sixteenth,D3_D2
3154,Left,1,66,80,674.0,0.479167,Sixteenth,F#4_D4_A4_A3
3158,Left,1,57,80,675.0,0.479167,Sixteenth,F#4_D4_A4_A3
3162,Left,1,50,80,676.0,0.479167,Sixteenth,D3_D2
3164,Left,1,69,80,677.0,0.479167,Sixteenth,F#4_D4_A4_A3
3165,Right,0,78,80,677.0,1.479167,DottedEighth,F#5
3169,Left,1,57,80,678.0,0.479167,Sixteenth,F#4_D4_A4_A3
3173,Right,0,78,80,678.5,0.979167,Eighth,F#5
3174,Left,1,38,80,679.0,0.479167,Sixteenth,D3_D2
3176,Right,0,78,80,679.5,0.979167,Eighth,F#5
3177,Left,1,66,80,680.0,0.479167,Sixteenth,F#4_D4_A4_A3
3181,Right,0,81,80,680.0,0.979167,Eighth,A5
3182,Right,0,78,80,680.5,0.979167,Eighth,F#5
3184,Left,1,66,80,681.0,0.479167,Sixteenth,F#4_D4_A4_A3
3183,Right,0,86,80,681.0,0.979167,Eighth,D6
3188,Right,0,78,80,681.5,0.979167,Eighth,F#5
3189,Right,0,88,80,682.0,0.979167,Eighth,E6
3190,Left,1,38,80,682.0,0.479167,Sixteenth,D3_D2
3192,Right,0,78,80,682.5,0.979167,Eighth,F#5
3194,Right,0,90,80,683.0,0.979167,Eighth,F#6
3193,Left,1,69,80,683.0,0.479167,Sixteenth,F#4_D4_A4_A3
3198,Right,0,78,80,683.5,0.479167,Sixteenth,F#5
3199,Right,0,90,80,684.0,0.104167,SixtyFourth,F#6
3200,Left,1,61,80,684.0,0.479167,Sixteenth,E4_C#4_A4_A3
3204,Right,0,91,80,684.125,0.104167,SixtyFourth,G6
3205,Right,0,90,80,684.25,0.104167,SixtyFourth,F#6
3206,Right,0,91,80,684.375,0.104167,SixtyFourth,G6
3207,Right,0,90,80,684.5,0.104167,SixtyFourth,F#6
3208,Right,0,91,80,684.625,0.104167,SixtyFourth,G6
3209,Right,0,88,80,684.75,0.104167,SixtyFourth,E6
3210,Right,0,90,80,684.875,0.104167,SixtyFourth,F#6
3212,Left,1,49,80,685.0,0.479167,Sixteenth,C#3_C#2
3211,Right,0,93,80,685.0,0.979167,Eighth,A6
3214,Right,0,81,80,685.5,1.979167,Quarter,A5
3215,Right,0,91,80,686.0,0.979167,Eighth,G6
3216,Left,1,57,80,686.0,0.479167,Sixteenth,E4_C#4_A4_A3
3224,Right,0,91,80,687.0,1.479167,DottedEighth,G6
3220,Left,1,61,80,687.0,0.479167,Sixteenth,E4_C#4_A4_A3
3225,Right,0,81,80,687.5,0.979167,Eighth,A5
3226,Left,1,49,80,688.0,0.479167,Sixteenth,C#3_C#2
3228,Right,0,88,80,688.5,0.479167,Sixteenth,E6
3229,Left,1,57,80,689.0,0.479167,Sixteenth,E4_C#4_A4_A3
3230,Right,0,85,80,689.0,0.479167,Sixteenth,C#6
3234,Right,0,86,80,689.5,0.479167,Sixteenth,D6
3236,Right,0,87,80,690.0,0.479167,Sixteenth,D#6
3235,Left,1,57,80,690.0,0.479167,Sixteenth,E4_C#4_A4_A3
3240,Right,0,88,80,690.5,0.8125,DottedSixteenth,E6
3241,Left,1,37,80,691.0,0.479167,Sixteenth,C#3_C#2
3243,Right,0,79,80,691.333333,0.3125,TripletSixteenth,G5
3244,Right,0,78,80,691.666667,0.3125,TripletSixteenth,F#5
3246,Left,1,57,80,692.0,0.479167,Sixteenth,E4_C#4_A4_A3
3245,Right,0,79,80,692.0,0.3125,TripletSixteenth,G5
3250,Right,0,81,80,692.333333,0.3125,TripletSixteenth,A5
3251,Right,0,82,80,692.666667,0.3125,TripletSixteenth,A#5
3252,Right,0,85,80,693.0,0.3125,TripletSixteenth,C#6
3253,Left,1,57,80,693.0,0.479167,Sixteenth,E4_C#4_A4_A3
3257,Right,0,83,80,693.333333,0.3125,TripletSixteenth,B5
3258,Right,0,81,80,693.666667,0.3125,TripletSixteenth,A5
3259,Left,1,37,80,694.0,0.479167,Sixteenth,C#3_C#2
3261,Right,0,79,80,694.0,0.3125,TripletSixteenth,G5
3262,Right,0,78,80,694.333333,0.3125,TripletSixteenth,F#5
3263,Right,0,79,80,694.666667,0.3125,TripletSixteenth,G5
3266,Right,0,80,80,695.0,0.3125,TripletSixteenth,G#5
3264,Left,1,57,80,695.0,0.479167,Sixteenth,E4_C#4_A4_A3
3269,Right,0,81,80,695.333333,0.3125,TripletSixteenth,A5
3270,Right,0,76,80,695.666667,0.3125,TripletSixteenth,E5
3272,Right,0,79,80,696.0,0.479167,Sixteenth,G5
3271,Left,1,62,80,696.0,0.479167,Sixteenth,F#4_D4_A4_A3
3276,Right,0,78,81,696.5,0.979167,Eighth,F#5
3277,Left,1,50,83,697.0,0.479167,Sixteenth,D3_D2
3279,Right,0,81,85,697.5,0.979167,Eighth,A5
3280,Left,1,66,87,698.0,0.479167,Sixteenth,F#4_F#3_D4_A3
3284,Right,0,86,89,698.5,0.979167,Eighth,D6
3285,Left,1,66,90,699.0,0.479167,Sixteenth,F#4_F#3_D4_B3
3289,Right,0,86,92,699.5,0.979167,Eighth,D6
3290,Left,1,35,94,700.0,0.479167,Sixteenth,B2_B1
3292,Right,0,88,96,700.5,0.979167,Eighth,E6
3293,Left,1,62,98,701.0,0.479167,Sixteenth,F#4_F#3_D4_B3
3297,Right,0,90,99,701.5,0.479167,Sixteenth,F#6
3302,Right,0,90,100,702.0,0.104167,SixtyFourth,F#6
3298,Left,1,54,100,702.0,0.479167,Sixteenth,F#4_F#3_E4_C#4_A#3
3304,Right,0,91,100,702.125,0.104167,SixtyFourth,G6
3305,Right,0,90,100,702.25,0.104167,SixtyFourth,F#6
3306,Right,0,91,100,702.375,0.104167,SixtyFourth,G6
3307,Right,0,90,100,702.5,0.104167,SixtyFourth,F#6
3308,Right,0,91,100,702.625,0.104167,SixtyFourth,G6
3309,Right,0,90,100,702.75,0.104167,SixtyFourth,F#6
3310,Right,0,91,100,702.875,0.104167,SixtyFourth,G6
3313,Right,0,90,100,703.0,0.104167,SixtyFourth,F#6
3311,Left,1,46,100,703.0,0.479167,Sixteenth,A#2_A#1
3314,Right,0,91,100,703.125,0.104167,SixtyFourth,G6
3315,Right,0,90,100,703.25,0.104167,SixtyFourth,F#6
3316,Right,0,91,100,703.375,0.104167,SixtyFourth,G6
3317,Right,0,90,100,703.5,0.104167,SixtyFourth,F#6
3318,Right,0,91,100,703.625,0.104167,SixtyFourth,G6
3319,Right,0,89,100,703.75,0.104167,SixtyFourth,F6
3320,Right,0,90,100,703.875,0.104167,SixtyFourth,F#6
3326,Right,0,93,100,704.0,0.479167,Sixteenth,A6
3321,Left,1,67,100,704.0,0.479167,Sixteenth,G4_G3_E4_C#4_A#3
3327,Right,0,91,94,704.5,0.479167,Sixteenth,G6
3330,Right,0,91,86,705.0,1.3125,DottedEighth,G6
3328,Left,1,61,80,705.0,0.479167,Sixteenth,G4_G3_E4_C#4_A#3
3334,Left,1,46,80,706.0,0.479167,Sixteenth,A#2_A#1
3336,Right,0,87,80,706.333333,0.3125,TripletSixteenth,D#6
3337,Right,0,88,80,706.666667,0.3125,TripletSixteenth,E6
3338,Right,0,91,80,707.0,0.3125,TripletSixteenth,G6
3339,Left,1,67,80,707.0,0.479167,Sixteenth,G4_G3_E4_C#4_A#3
3344,Right,0,90,80,707.333333,0.3125,TripletSixteenth,F#6
3345,Right,0,88,80,707.666667,0.3125,TripletSixteenth,E6
3351,Right,0,88,80,708.0,1.3125,DottedEighth,E6
3346,Left,1,55,80,708.0,0.479167,Sixteenth,G4_G3_E4_C#4_A#3
3352,Left,1,34,80,709.0,0.479167,Sixteenth,A#2_A#1
3354,Right,0,84,80,709.333333,0.3125,TripletSixteenth,C6
3355,Right,0,85,80,709.666667,0.3125,TripletSixteenth,C#6
3360,Right,0,88,80,710.0,0.3125,TripletSixteenth,E6
3356,Left,1,55,80,710.0,0.479167,Sixteenth,G4_G3_E4_C#4_A#3
3362,Right,0,86,80,710.333333,0.3125,TripletSixteenth,D6
3363,Right,0,85,80,710.666667,0.3125,TripletSixteenth,C#6
3364,Left,1,61,80,711.0,0.479167,Sixteenth,F#4_F#3_E4_C#4_A#3
3369,Right,0,83,80,711.0,0.229167,ThirtySecond,B5
3370,Right,0,82,80,711.25,0.229167,ThirtySecond,A#5
3371,Right,0,86,80,711.5,0.229167,ThirtySecond,D6
3372,Right,0,85,80,711.75,0.229167,ThirtySecond,C#6
3373,Left,1,46,80,712.0,0.479167,Sixteenth,A#2_A#1
3374,Right,0,84,80,712.0,0.229167,ThirtySecond,C6
3376,Right,0,85,80,712.25,0.229167,ThirtySecond,C#6
3377,Right,0,76,80,712.5,0.229167,ThirtySecond,E5
3378,Right,0,79,80,712.75,0.229167,ThirtySecond,G5
3379,Left,1,54,80,713.0,0.479167,Sixteenth,F#4_F#3_E4_C#4_A#3
3383,Right,0,77,80,713.0,0.229167,ThirtySecond,F5
3385,Right,0,78,80,713.25,0.229167,ThirtySecond,F#5
3386,Right,0,73,80,713.5,0.229167,ThirtySecond,C#5
3387,Right,0,76,80,713.75,0.229167,ThirtySecond,E5
3388,Left,1,62,80,714.0,0.479167,Sixteenth,F#4_F#3_D4_B3
3390,Right,0,74,80,714.0,0.979167,Eighth,D5
3393,Left,1,47,80,715.0,0.479167,Sixteenth,B2_B1
3394,Right,0,83,80,715.0,1.479167,DottedEighth,B5
3396,Left,1,66,80,716.0,0.479167,Sixteenth,F#4_F#3_D4_B3
3400,Right,0,78,80,716.5,0.479167,Sixteenth,F#5
3402,Left,1,66,80,717.0,0.479167,Sixteenth,F#4_F#3_E4_A#3
3401,Right,0,79,80,717.0,1.979167,Quarter,G5
3406,Right,0,76,80,717.5,0.979167,Eighth,E5_A#4
3408,Left,1,49,80,718.0,0.479167,Sixteenth,C#3_C#2
3410,Right,0,76,80,718.5,0.979167,Eighth,E5_A#4
3415,Right,0,78,80,719.0,0.979167,Eighth,F#5
3412,Left,1,64,80,719.0,0.479167,Sixteenth,F#4_F#3_E4_A#3
3417,Right,0,76,80,719.5,0.479167,Sixteenth,E5_A#4
3419,Right,0,78,80,720.0,0.979167,Eighth,F#5_D5_B4
3422,Left,1,54,80,720.0,0.479167,Sixteenth,F#4_F#3_D4_B3
3426,Right,0,90,80,720.25,0.229167,ThirtySecond,F#6
3427,Right,0,85,80,720.5,0.229167,ThirtySecond,C#6
3428,Right,0,86,80,720.75,0.229167,ThirtySecond,D6
3430,Left,1,35,80,721.0,0.479167,Sixteenth,B2_B1
3429,Right,0,88,80,721.0,0.229167,ThirtySecond,E6
3432,Right,0,86,80,721.25,0.229167,ThirtySecond,D6
3433,Right,0,82,80,721.5,0.229167,ThirtySecond,A#5
3434,Right,0,83,80,721.75,0.229167,ThirtySecond,B5
3435,Left,1,66,80,722.0,0.479167,Sixteenth,F#4_F#3_D4_B3
3438,Right,0,85,80,722.0,0.229167,ThirtySecond,C#6
3440,Right,0,83,80,722.25,0.229167,ThirtySecond,B5
3441,Right,0,86,80,722.5,0.145833,TripletThirtySecond,D6
3442,Right,0,83,80,722.666667,0.145833,TripletThirtySecond,B5
3443,Right,0,78,80,722.833333,0.145833,TripletThirtySecond,F#5
3447,Right,0,81,80,723.0,0.479167,Sixteenth,A5
3444,Left,1,66,80,723.0,0.479167,Sixteenth,F#4_F#3_E4_A#3
3449,Right,0,79,80,723.5,0.979167,Eighth,G5_E5_A#4
3452,Left,1,49,80,724.0,0.479167,Sixteenth,C#3_C#2
3454,Right,0,79,80,724.5,0.979167,Eighth,G5_E5_A#4
3457,Left,1,66,80,725.0,0.479167,Sixteenth,F#4_F#3_E4_A#3
3461,Right,0,70,80,725.5,0.479167,Sixteenth,F#5_E5_A#4
3468,Right,0,78,80,726.0,1.479167,Sixteenth,F#5_D5_B4
3464,Left,1,66,80,726.0,0.479167,Sixteenth,F#4_F#3_D4_B3
3471,Right,0,66,81,726.5,0.979167,Eighth,F#4
3472,Left,1,50,82,727.0,0.479167,Sixteenth,D3_D2
3474,Right,0,66,83,727.5,0.979167,Eighth,F#5_F#4_D5_B4
3478,Left,1,61,84,728.0,0.479167,Sixteenth,F#3_C#4_C#3
3479,Right,0,76,84,728.0,0.479167,Sixteenth,E5_A#4
3483,Right,0,66,86,728.5,0.479167,Sixteenth,F#5_F#4_E5_A#4
3487,Left,1,59,87,729.0,0.479167,Sixteenth,F#3_B3_B2
3490,Right,0,74,87,729.0,1.479167,Sixteenth,F#5_F#4_D5_B4
3494,Right,0,71,88,729.5,0.979167,Eighth,B4
3495,Left,1,47,89,730.0,0.479167,Sixteenth,B2_B1
3497,Right,0,83,91,730.5,0.979167,Eighth,F#5_D5_B5_B4
3501,Right,0,78,92,731.0,0.479167,Sixteenth,F#5_D#5
3503,Left,1,57,92,731.0,0.479167,Sixteenth,A3_A2
3505,Right,0,83,93,731.5,0.479167,Sixteenth,F#5_D#5_B5_B4
3513,Left,1,56,94,732.0,0.479167,Sixteenth,G#3_G#2
3509,Right,0,84,94,732.0,0.479167,Sixteenth,F#5_D#5_C6_C5
3515,Right,0,84,96,732.5,0.979167,Eighth,F#5_D#5_C6_C5
3519,Left,1,44,97,733.0,0.479167,Sixteenth,G#2_G#1
3521,Right,0,78,98,733.5,0.979167,Eighth,F#5_D#5_C6_C5
3525,Left,1,54,99,734.0,0.479167,Sixteenth,F#3_F#2
3526,Right,0,81,99,734.0,0.479167,Sixteenth,A5
3528,Right,0,75,101,734.5,0.479167,Sixteenth,D#5_C6_C5_A5
3532,Right,0,85,102,735.0,0.479167,Sixteenth,G#5_C#6_C#5
3535,Left,1,53,102,735.0,0.479167,Sixteenth,F3_F2
3539,Right,0,85,103,735.5,0.979167,Eighth,G#5_C#6_C#5
3537,Left,1,65,103,735.5,0.479167,Sixteenth,F4_F3
3542,Left,1,41,104,736.0,0.479167,Sixteenth,F3_F2
3544,Right,0,80,106,736.5,0.979167,Eighth,G#5_C#6_C#5
3547,Left,1,65,106,736.5,0.479167,Sixteenth,F4_F3
3549,Left,1,51,107,737.0,0.479167,Sixteenth,D#3_D#2
3550,Right,0,78,107,737.0,0.479167,Sixteenth,F#5
3552,Left,1,63,108,737.5,0.479167,Sixteenth,D#4_D#3
3554,Right,0,85,108,737.5,0.979167,Eighth,F#5_C#6_C#5
3557,Left,1,37,109,738.0,0.979167,Eighth,C#3_C#2
3558,Right,0,77,109,738.0,0.479167,Sixteenth,F5
3560,Right,0,72,80,738.5,0.479167,Sixteenth,C6_C5
3564,Left,1,65,80,739.0,1.979167,Eighth,G#4_F4_C#4
3562,Right,0,75,80,739.0,0.479167,Sixteenth,D#6_D#5
3567,Right,0,73,80,739.5,0.479167,Sixteenth,C#6_C#5
3571,Left,1,66,80,740.0,1.479167,Eighth,F#4_A#4
3569,Right,0,72,80,740.0,0.479167,Sixteenth,C6_C5
3573,Right,0,85,80,740.5,0.479167,Sixteenth,C#6_C#5
3575,Left,1,67,80,741.0,2.979167,Sixteenth,G4_C#4
3577,Right,0,88,80,741.0,0.979167,Eighth,E6_E5
3579,Left,1,66,80,741.5,0.479167,Sixteenth,F#4_A#4
3583,Right,0,87,80,742.0,2.479167,TiedQuarter-Sixteenth,D#6_D#5
3581,Left,1,70,80,742.0,0.479167,Sixteenth,C#5_A#4
3585,Left,1,71,80,742.5,0.479167,Sixteenth,G#4_B4
3587,Left,1,70,80,743.0,0.479167,Sixteenth,F#4_A#4
3589,Left,1,71,80,743.5,0.479167,Sixteenth,G#4_B4
3591,Left,1,70,80,744.0,2.979167,Sixteenth,F#4_C#4_A#4
3594,Left,1,66,80,744.5,0.479167,Sixteenth,F#4_A4
3596,Right,0,84,80,744.5,0.479167,Sixteenth,C6_C5
3599,Left,1,65,80,745.0,2.479167,TiedQuarter-Sixteenth,G#4_F4
3598,Right,0,75,80,745.0,0.479167,Sixteenth,D#6_D#5
3602,Right,0,73,80,745.5,0.479167,Sixteenth,C#6_C#5
3604,Right,0,72,80,746.0,0.479167,Sixteenth,C6_C5
3606,Right,0,73,80,746.5,0.479167,Sixteenth,C#6_C#5
3609,Right,0,75,80,747.0,0.979167,Eighth,D#6_D#5
3608,Left,1,61,80,747.0,2.979167,DottedQuarter,C#4
3611,Left,1,65,80,747.5,0.479167,Sixteenth,G#4_F4
3615,Right,0,73,80,748.0,2.479167,TiedQuarter-Sixteenth,C#6_C#5
3613,Left,1,68,80,748.0,0.479167,Sixteenth,G#4_B4
3617,Left,1,70,80,748.5,0.479167,Sixteenth,F#4_A#4
3619,Left,1,68,80,749.0,0.479167,Sixteenth,G#4_F4
3621,Left,1,66,80,749.5,0.479167,Sixteenth,F#4_A#4
3623,Left,1,61,80,750.0,2.979167,Eighth,G4_E4_C#4
3626,Right,0,82,80,750.5,0.479167,Sixteenth,A#5_A#4
3630,Left,1,65,80,751.0,0.979167,Eighth,G#4_F4
3628,Right,0,85,80,751.0,0.479167,Sixteenth,C#6_C#5
3632,Right,0,83,80,751.5,0.479167,Sixteenth,B5_B4
3636,Right,0,82,80,752.0,0.479167,Sixteenth,A#5_A#4
3634,Left,1,65,80,752.0,0.979167,Eighth,G#4_F4_D4
3639,Right,0,83,80,752.5,0.479167,Sixteenth,B5_B4
3642,Right,0,83,80,753.0,0.479167,Sixteenth,B5_B4
3641,Left,1,62,80,753.0,0.979167,Eighth,G#4_D4
3645,Right,0,80,80,753.5,0.479167,Sixteenth,G#5_G#4
3646,Left,1,65,80,753.5,0.479167,Sixteenth,F4
3650,Left,1,68,80,754.0,0.979167,Sixteenth,G#4_D#4
3648,Right,0,71,80,754.0,0.479167,Sixteenth,B5_B4
3654,Left,1,66,80,754.5,0.479167,Sixteenth,F#4
3652,Right,0,70,80,754.5,0.479167,Sixteenth,A#5_A#4
3655,Left,1,60,80,755.0,0.979167,Eighth,F4_C4
3656,Right,0,68,80,755.0,0.479167,Sixteenth,G#5_G#4
3660,Right,0,69,80,755.5,0.479167,Sixteenth,A5_A4
3659,Left,1,66,80,755.5,0.479167,Sixteenth,F#4
3664,Left,1,60,80,756.0,0.979167,Eighth,F#4_C4
3662,Right,0,81,80,756.0,0.979167,Eighth,A5_A4
3666,Left,1,63,80,756.5,0.479167,Sixteenth,D#4
3668,Left,1,59,80,757.0,0.979167,Eighth,F#4_B3
3667,Right,0,73,80,757.0,0.979167,Eighth,G#5_G#4_C#5
3672,Left,1,65,80,757.5,0.479167,Sixteenth,F4
3673,Right,0,73,80,758.0,1.479167,DottedEighth,F#5_C#5
3674,Left,1,58,80,758.0,0.979167,Eighth,F#4_A#3
3677,Left,1,61,80,758.5,0.479167,Sixteenth,C#4
3679,Right,0,83,80,759.0,0.979167,Eighth,B5
3678,Left,1,61,80,759.0,0.979167,Eighth,G#3_F#4_C#4
3683,Left,1,65,80,759.5,0.479167,Sixteenth,F4
3682,Right,0,73,80,759.5,0.479167,Sixteenth,C#5
3684,Right,0,82,80,760.0,0.979167,Eighth,G#5_A#5
3686,Left,1,66,80,760.0,0.979167,Eighth,F#4_F#3_C#4
3689,Right,0,78,80,760.5,0.479167,Sixteenth,F#5
3690,Left,1,59,80,761.0,1.979167,Eighth,B3_B2
3691,Right,0,87,80,761.0,1.979167,Quarter,F5_D#6
3694,Right,0,78,80,761.5,0.479167,Sixteenth,F#5
3695,Right,0,78,80,762.0,0.979167,Eighth,F#5_D#5
3696,Left,1,59,80,762.0,0.479167,Sixteenth,B3
3698,Left,1,53,80,762.5,0.479167,Sixteenth,F3
3699,Right,0,78,80,763.0,0.979167,Eighth,F#5_C#6_C#5
3700,Left,1,46,80,763.0,0.979167,Eighth,G#3_A#2
3704,Left,1,54,80,763.5,0.479167,Sixteenth,F#3
3705,Left,1,51,80,764.0,0.979167,Sixteenth,D#3_A2
3707,Right,0,90,80,764.0,1.979167,Quarter,F#6_F#5
3709,Left,1,49,80,764.5,0.479167,Sixteenth,C#3
3710,Left,1,44,80,765.0,0.979167,Eighth,G#2_C3
3712,Left,1,49,80,765.5,0.479167,Sixteenth,C#3
3714,Right,0,89,80,766.0,0.979167,Eighth,F6_F5
3713,Left,1,39,80,766.0,0.479167,Sixteenth,D#2
3716,Left,1,37,80,766.5,0.479167,Sixteenth,C#2
3717,Right,0,83,80,767.0,2.479167,TiedQuarter-Sixteenth,G#6_F6_B6_B5
3721,Left,1,36,80,767.0,0.479167,Sixteenth,C2
3722,Left,1,37,80,767.5,0.479167,Sixteenth,C#2
3723,Left,1,37,80,768.0,1.479167,DottedEighth,C#2
3724,Left,1,56,80,768.5,1.479167,DottedEighth,G#3
3725,Left,1,53,80,769.0,1.479167,DottedEighth,F3
3727,Right,0,71,80,769.5,1.479167,DottedEighth,B4
3726,Left,1,59,80,769.5,1.479167,DottedEighth,B3
3728,Right,0,68,80,770.0,0.989583,Eighth,G#4
3729,Left,1,56,80,770.0,0.989583,Eighth,G#3
3730,Right,0,74,80,770.5,0.479167,Sixteenth,D5
3731,Left,1,62,80,770.5,0.479167,Sixteenth,D4
3732,Right,0,72,80,771.0,0.479167,Sixteenth,C5
3733,Left,1,60,80,771.0,0.479167,Sixteenth,C4
3734,Right,0,73,80,771.5,0.479167,Sixteenth,C#5
3735,Left,1,61,80,771.5,0.479167,Sixteenth,C#4
3736,Right,0,68,80,772.0,0.479167,Sixteenth,G#4
3737,Left,1,56,80,772.0,0.479167,Sixteenth,G#3
3738,Left,1,63,80,772.5,0.479167,Sixteenth,D#4
3739,Right,0,75,80,772.5,0.479167,Sixteenth,D#5
3740,Left,1,61,80,773.0,0.479167,Sixteenth,C#4
3741,Right,0,73,80,773.0,0.479167,Sixteenth,C#5
3742,Left,1,59,80,773.5,0.479167,Sixteenth,B3
3743,Right,0,71,80,773.5,0.479167,Sixteenth,B4
3744,Left,1,58,80,774.0,4.979167,Sixteenth,F#3_A#3
3746,Right,0,70,80,774.0,0.979167,Eighth,A#4
3747,Left,1,63,80,774.5,0.479167,Sixteenth,D#4
3748,Left,1,60,80,775.0,0.479167,Sixteenth,C4
3749,Left,1,61,80,775.5,0.479167,Sixteenth,C#4
3751,Left,1,58,80,776.0,0.479167,Sixteenth,A#3
3750,Right,0,42,80,776.0,2.979167,DottedQuarter,F#2
3752,Left,1,63,80,776.5,0.479167,Sixteenth,D#4
3753,Left,1,60,80,777.0,0.479167,Sixteenth,C4
3754,Left,1,61,80,777.5,0.479167,Sixteenth,C#4
3755,Left,1,58,80,778.0,0.479167,Sixteenth,A#3
3756,Left,1,63,80,778.5,0.479167,Sixteenth,D#4
3757,Right,0,42,80,779.0,0.479167,Sixteenth,F#2
3758,Left,1,54,80,779.0,0.979167,Eighth,F#3_A#3
3761,Right,0,37,80,779.5,0.479167,Sixteenth,C#2
3760,Left,1,61,80,779.5,0.479167,Sixteenth,C#4
3764,Right,0,37,80,780.0,2.979167,DottedQuarter,C#2
3762,Left,1,56,80,780.0,0.979167,Sixteenth,G#3_F3
3765,Left,1,61,80,780.5,0.479167,Sixteenth,C#4
3766,Left,1,58,80,781.0,0.979167,Sixteenth,F#3_A#3
3768,Left,1,61,80,781.5,0.479167,Sixteenth,C#4
3769,Left,1,59,80,782.0,0.979167,Sixteenth,G#3_B3
3771,Left,1,61,80,782.5,0.479167,Sixteenth,C#4
3772,Left,1,56,80,783.0,0.979167,Eighth,G#3_B3
3773,Right,0,37,80,783.0,1.979167,Quarter,C#2
3775,Left,1,61,80,783.5,0.479167,Sixteenth,C#4
3776,Left,1,58,80,784.0,0.979167,Sixteenth,F#3_A#3
3778,Left,1,61,80,784.5,0.479167,Sixteenth,C#4
3781,Right,0,37,80,785.0,0.979167,Eighth,C#2
3779,Left,1,56,80,785.0,0.979167,Sixteenth,G#3_F3
3782,Left,1,61,80,785.5,0.479167,Sixteenth,C#4
3785,Right,0,34,80,786.0,0.979167,Eighth,A#1
3783,Left,1,58,80,786.0,4.979167,Sixteenth,F#3_A#3
3786,Left,1,63,80,786.5,0.479167,Sixteenth,D#4
3787,Left,1,60,80,787.0,0.479167,Sixteenth,C4
3788,Left,1,61,80,787.5,0.479167,Sixteenth,C#4
3791,Left,1,58,80,788.0,0.479167,Sixteenth,A#3
3789,Right,0,90,80,788.0,2.979167,DottedQuarter,F#6_F#5
3792,Left,1,63,80,788.5,0.479167,Sixteenth,D#4
3793,Left,1,60,80,789.0,0.479167,Sixteenth,C4
3794,Left,1,61,80,789.5,0.479167,Sixteenth,C#4
3795,Left,1,58,80,790.0,0.479167,Sixteenth,A#3
3796,Left,1,63,80,790.5,0.479167,Sixteenth,D#4
3799,Left,1,58,80,791.0,0.979167,Sixteenth,F#3_A#3
3797,Right,0,90,80,791.0,0.479167,Sixteenth,F#6_F#5
3801,Right,0,85,80,791.5,0.479167,Sixteenth,C#6_C#5
3803,Left,1,61,80,791.5,0.479167,Sixteenth,C#4
3805,Right,0,85,80,792.0,2.979167,DottedQuarter,C#6_C#5
3804,Left,1,56,80,792.0,0.979167,Sixteenth,G#3_F3
3808,Left,1,61,80,792.5,0.479167,Sixteenth,C#4
3809,Left,1,54,80,793.0,0.979167,Eighth,F#3_A#3
3811,Left,1,61,80,793.5,0.479167,Sixteenth,C#4
3812,Left,1,56,80,794.0,0.979167,Eighth,G#3_B3
3814,Left,1,61,80,794.5,0.479167,Sixteenth,C#4
3815,Left,1,56,80,795.0,0.979167,Eighth,G#3_B3
3817,Right,0,85,80,795.0,1.979167,Quarter,C#6_C#5
3819,Left,1,61,80,795.5,0.479167,Sixteenth,C#4
3820,Left,1,58,80,796.0,0.979167,Sixteenth,F#3_A#3
3822,Left,1,61,80,796.5,0.479167,Sixteenth,C#4
3825,Right,0,73,80,797.0,0.979167,Eighth,C#6_C#5
3823,Left,1,56,80,797.0,0.979167,Sixteenth,G#3_F3
3827,Left,1,61,80,797.5,0.479167,Sixteenth,C#4
3830,Left,1,54,80,798.0,4.979167,Half,F#3_A#3
3828,Right,0,82,80,798.0,0.979167,Eighth,A#5_A#4
3832,Left,1,63,80,798.333333,0.3125,TripletSixteenth,D#4
3833,Left,1,61,80,798.666667,0.3125,TripletSixteenth,C#4
3834,Left,1,60,80,799.0,0.3125,TripletSixteenth,C4
3835,Left,1,63,80,799.333333,0.3125,TripletSixteenth,D#4
3836,Left,1,61,80,799.666667,0.3125,TripletSixteenth,C#4
3838,Left,1,58,80,800.0,0.3125,TripletSixteenth,A#3
3837,Right,0,42,80,800.0,1.979167,Quarter,F#2
3839,Left,1,63,80,800.333333,0.3125,TripletSixteenth,D#4
3840,Left,1,61,80,800.666667,0.3125,TripletSixteenth,C#4
3841,Left,1,60,80,801.0,0.3125,TripletSixteenth,C4
3842,Left,1,63,80,801.333333,0.3125,TripletSixteenth,D#4
3843,Left,1,61,80,801.666667,0.3125,TripletSixteenth,C#4
3845,Right,0,42,80,802.0,0.979167,Eighth,F#2
3844,Left,1,58,80,802.0,0.3125,TripletSixteenth,A#3
3846,Left,1,63,80,802.333333,0.3125,TripletSixteenth,D#4
3847,Left,1,61,80,802.666667,0.3125,TripletSixteenth,C#4
3849,Left,1,58,80,803.0,0.979167,TripletSixteenth,F#3_A#3
3848,Right,0,42,80,803.0,0.3125,TripletSixteenth,F#2
3851,Right,0,41,80,803.333333,0.3125,TripletSixteenth,F2
3852,Left,1,62,80,803.333333,0.3125,TripletSixteenth,D4
3854,Right,0,42,80,803.666667,0.3125,TripletSixteenth,F#2
3853,Left,1,61,80,803.666667,0.3125,TripletSixteenth,C#4
3855,Left,1,56,80,804.0,0.979167,TripletSixteenth,G#3_F3
3857,Right,0,37,80,804.0,1.979167,Quarter,C#2
3858,Left,1,63,80,804.333333,0.3125,TripletSixteenth,D#4
3859,Left,1,61,80,804.666667,0.3125,TripletSixteenth,C#4
3860,Left,1,58,80,805.0,0.979167,TripletSixteenth,F#3_A#3
3862,Left,1,63,80,805.333333,0.3125,TripletSixteenth,D#4
3863,Left,1,61,80,805.666667,0.3125,TripletSixteenth,C#4
3864,Right,0,37,80,806.0,1.979167,Quarter,C#2
3865,Left,1,59,80,806.0,0.979167,TripletSixteenth,G#3_B3
3867,Left,1,63,80,806.333333,0.3125,TripletSixteenth,D#4
3868,Left,1,61,80,806.666667,0.3125,TripletSixteenth,C#4
3869,Left,1,56,80,807.0,0.979167,Eighth,G#3_B3
3871,Left,1,63,80,807.333333,0.3125,TripletSixteenth,D#4
3872,Left,1,61,80,807.666667,0.3125,TripletSixteenth,C#4
3874,Right,0,37,80,808.0,1.979167,Quarter,C#2
3873,Left,1,58,80,808.0,0.979167,TripletSixteenth,F#3_A#3
3876,Left,1,63,80,808.333333,0.3125,TripletSixteenth,D#4
3877,Left,1,61,80,808.666667,0.3125,TripletSixteenth,C#4
3878,Left,1,53,80,809.0,0.979167,Eighth,G#3_F3
3880,Left,1,63,80,809.333333,0.3125,TripletSixteenth,D#4
3881,Left,1,61,80,809.666667,0.3125,TripletSixteenth,C#4
3884,Right,0,34,80,810.0,0.979167,Eighth,A#1
3882,Left,1,58,80,810.0,4.979167,TripletSixteenth,F#3_A#3
3885,Left,1,63,80,810.333333,0.3125,TripletSixteenth,D#4
3886,Left,1,61,80,810.666667,0.3125,TripletSixteenth,C#4
3887,Left,1,60,80,811.0,0.3125,TripletSixteenth,C4
3888,Left,1,63,80,811.333333,0.3125,TripletSixteenth,D#4
3889,Left,1,61,80,811.666667,0.3125,TripletSixteenth,C#4
3891,Left,1,58,80,812.0,0.3125,TripletSixteenth,A#3
3890,Right,0,90,80,812.0,1.979167,Quarter,F#6_F#5
3893,Left,1,63,80,812.333333,0.3125,TripletSixteenth,D#4
3894,Left,1,61,80,812.666667,0.3125,TripletSixteenth,C#4
3895,Left,1,60,80,813.0,0.3125,TripletSixteenth,C4
3896,Left,1,63,80,813.333333,0.3125,TripletSixteenth,D#4
3897,Left,1,61,80,813.666667,0.3125,TripletSixteenth,C#4
3898,Right,0,90,80,814.0,0.979167,Eighth,F#6_F#5
3900,Left,1,58,80,814.0,0.3125,TripletSixteenth,A#3
3901,Left,1,63,80,814.333333,0.3125,TripletSixteenth,D#4
3902,Left,1,61,80,814.666667,0.3125,TripletSixteenth,C#4
3903,Left,1,58,80,815.0,0.979167,TripletSixteenth,F#3_A#3
3905,Right,0,90,80,815.0,0.3125,TripletSixteenth,F#6_F#5
3907,Left,1,62,80,815.333333,0.3125,TripletSixteenth,D4
3908,Right,0,77,80,815.333333,0.3125,TripletSixteenth,F6_F5
3910,Right,0,78,80,815.666667,0.3125,TripletSixteenth,F#6_F#5
3912,Left,1,61,80,815.666667,0.3125,TripletSixteenth,C#4
3913,Left,1,56,80,816.0,0.979167,TripletSixteenth,G#3_F3
3915,Right,0,73,80,816.0,1.979167,Quarter,C#6_C#5
3917,Left,1,63,80,816.333333,0.3125,TripletSixteenth,D#4
3918,Left,1,61,80,816.666667,0.3125,TripletSixteenth,C#4
3919,Left,1,58,80,817.0,0.979167,TripletSixteenth,F#3_A#3
3921,Left,1,63,80,817.333333,0.3125,TripletSixteenth,D#4
3922,Left,1,61,80,817.666667,0.3125,TripletSixteenth,C#4
3924,Right,0,85,80,818.0,1.979167,Quarter,C#6_C#5
3923,Left,1,59,80,818.0,0.979167,TripletSixteenth,G#3_B3
3927,Left,1,63,80,818.333333,0.3125,TripletSixteenth,D#4
3928,Left,1,61,80,818.666667,0.3125,TripletSixteenth,C#4
3929,Left,1,59,80,819.0,0.979167,TripletSixteenth,G#3_B3
3931,Left,1,63,80,819.333333,0.3125,TripletSixteenth,D#4
3932,Left,1,61,80,819.666667,0.3125,TripletSixteenth,C#4
3935,Left,1,58,80,820.0,0.979167,TripletSixteenth,F#3_A#3
3933,Right,0,85,80,820.0,1.645833,DottedEighth,C#6_C#5
3937,Left,1,63,80,820.333333,0.3125,TripletSixteenth,D#4
3938,Left,1,61,80,820.666667,0.3125,TripletSixteenth,C#4
3939,Left,1,53,80,821.0,0.979167,Eighth,G#3_F3
3941,Left,1,63,80,821.333333,0.3125,TripletSixteenth,D#4
3943,Left,1,61,80,821.666667,0.3125,TripletSixteenth,C#4
3942,Right,0,71,80,821.666667,0.3125,TripletSixteenth,B5_B4
3947,Right,0,82,80,822.0,0.979167,Eighth,A#5_A#4
3945,Left,1,54,80,822.0,2.979167,DottedQuarter,F#3_A#3
3949,Left,1,63,80,822.333333,0.3125,TripletSixteenth,D#4
3950,Left,1,61,80,822.666667,0.3125,TripletSixteenth,C#4
3952,Right,0,82,80,823.0,1.979167,Quarter,A#5_A#4
3951,Left,1,58,80,823.0,0.3125,TripletSixteenth,A#3
3955,Right,0,80,80,823.333333,0.3125,TripletSixteenth,G#5
3954,Left,1,59,80,823.333333,0.3125,TripletSixteenth,B3
3957,Left,1,61,80,823.666667,0.3125,TripletSixteenth,C#4
3956,Right,0,78,80,823.666667,0.3125,TripletSixteenth,F#5
3959,Left,1,63,80,824.0,0.3125,TripletSixteenth,D#4
3958,Right,0,77,80,824.0,0.3125,TripletSixteenth,F5
3960,Right,0,75,80,824.333333,0.3125,TripletSixteenth,D#5
3961,Left,1,65,80,824.333333,0.3125,TripletSixteenth,F4
3962,Right,0,73,80,824.666667,0.3125,TripletSixteenth,C#5
3963,Left,1,66,80,824.666667,0.3125,TripletSixteenth,F#4
3966,Right,0,71,80,825.0,2.979167,TripletSixteenth,B5_B4
3964,Left,1,68,80,825.0,2.979167,DottedEighth,G#4_G#3
3968,Right,0,73,80,825.333333,0.3125,TripletSixteenth,C#5
3969,Right,0,70,80,825.666667,0.3125,TripletSixteenth,A#4
3970,Right,0,71,80,826.0,0.3125,TripletSixteenth,B4
3971,Right,0,73,80,826.333333,0.3125,TripletSixteenth,C#5
3972,Left,1,66,80,826.333333,0.3125,TripletSixteenth,F#4
3974,Right,0,75,80,826.666667,0.3125,TripletSixteenth,D#5
3973,Left,1,65,80,826.666667,0.3125,TripletSixteenth,F4
3975,Right,0,77,80,827.0,0.3125,TripletSixteenth,F5
3976,Left,1,63,80,827.0,0.3125,TripletSixteenth,D#4
3978,Left,1,61,80,827.333333,0.3125,TripletSixteenth,C#4
3977,Right,0,78,80,827.333333,0.3125,TripletSixteenth,F#5
3980,Right,0,80,80,827.666667,0.3125,TripletSixteenth,G#5
3979,Left,1,59,80,827.666667,0.3125,TripletSixteenth,B3
3981,Left,1,65,80,828.0,2.979167,TripletSixteenth,F4_A#3
3983,Right,0,85,80,828.0,0.979167,Eighth,C#6_C#5
3985,Left,1,68,80,828.333333,0.3125,TripletSixteenth,G#4
3986,Left,1,66,80,828.666667,0.3125,TripletSixteenth,F#4
3988,Right,0,82,80,829.0,1.979167,TripletSixteenth,C#6_A#5
3987,Left,1,61,80,829.0,0.3125,TripletSixteenth,C#4
3991,Right,0,80,80,829.333333,0.3125,TripletSixteenth,G#5
3990,Left,1,63,80,829.333333,0.3125,TripletSixteenth,D#4
3992,Left,1,64,80,829.666667,0.3125,TripletSixteenth,E4
3993,Right,0,78,80,829.666667,0.3125,TripletSixteenth,F#5
3994,Right,0,76,80,830.0,0.3125,TripletSixteenth,E5
3995,Left,1,66,80,830.0,0.3125,TripletSixteenth,F#4
3996,Right,0,75,80,830.333333,0.3125,TripletSixteenth,D#5
3997,Left,1,68,80,830.333333,0.3125,TripletSixteenth,G#4
3999,Right,0,73,80,830.666667,0.645833,Triplet,C#5
3998,Left,1,70,80,830.666667,0.3125,TripletSixteenth,A#4
4001,Left,1,59,80,831.0,2.979167,DottedQuarter,B4_B3
4000,Right,0,87,80,831.0,2.979167,DottedQuarter,D#6
4003,Right,0,75,80,831.333333,0.3125,TripletSixteenth,D#5
4004,Right,0,77,80,831.666667,0.3125,TripletSixteenth,F5
4005,Right,0,75,80,832.0,0.3125,TripletSixteenth,D#5
4007,Right,0,77,80,832.333333,0.3125,TripletSixteenth,F5
4006,Left,1,70,80,832.333333,0.3125,TripletSixteenth,A#4
4009,Right,0,78,80,832.666667,0.3125,TripletSixteenth,F#5
4008,Left,1,68,80,832.666667,0.3125,TripletSixteenth,G#4
4011,Right,0,80,80,833.0,0.3125,TripletSixteenth,G#5
4010,Left,1,66,80,833.0,0.3125,TripletSixteenth,F#4
4012,Left,1,65,80,833.333333,0.3125,TripletSixteenth,F4
4013,Right,0,82,80,833.333333,0.3125,TripletSixteenth,A#5
4014,Left,1,63,80,833.666667,0.3125,TripletSixteenth,D#4
4015,Right,0,83,80,833.666667,0.645833,Triplet,B5
4017,Right,0,89,80,834.0,1.979167,Quarter,F6
4016,Left,1,61,80,834.0,1.979167,Quarter,C#4
4018,Left,1,65,81,834.333333,0.3125,TripletSixteenth,F4
4019,Right,0,83,81,834.333333,0.3125,TripletSixteenth,B5
4021,Right,0,82,83,834.666667,0.3125,TripletSixteenth,A#5
4020,Left,1,66,83,834.666667,0.3125,TripletSixteenth,F#4
4023,Right,0,80,84,835.0,0.3125,TripletSixteenth,G#5
4022,Left,1,68,84,835.0,0.3125,TripletSixteenth,G#4
4025,Right,0,78,86,835.333333,0.3125,TripletSixteenth,F#5
4024,Left,1,70,86,835.333333,0.3125,TripletSixteenth,A#4
4027,Right,0,77,88,835.666667,0.3125,TripletSixteenth,F5
4026,Left,1,71,88,835.666667,0.3125,TripletSixteenth,B4
4028,Right,0,78,89,836.0,0.979167,TripletSixteenth,F#6_F#5
4030,Left,1,63,89,836.0,0.979167,Eighth,D#4_A#4
4032,Right,0,80,91,836.333333,0.3125,TripletSixteenth,G#5
4033,Left,1,68,91,836.333333,0.3125,TripletSixteenth,G#4
4034,Right,0,82,93,836.666667,0.3125,TripletSixteenth,A#5
4035,Left,1,66,93,836.666667,0.3125,TripletSixteenth,F#4
4036,Right,0,92,94,837.0,1.979167,Quarter,G#6_G#5
4038,Left,1,65,94,837.0,1.979167,Quarter,F4
4039,Right,0,83,96,837.333333,0.3125,TripletSixteenth,B5
4040,Left,1,68,96,837.333333,0.3125,TripletSixteenth,G#4
4041,Left,1,70,98,837.666667,0.3125,TripletSixteenth,A#4
4042,Right,0,82,98,837.666667,0.3125,TripletSixteenth,A#5
4044,Left,1,71,99,838.0,0.3125,TripletSixteenth,B4
4043,Right,0,80,99,838.0,0.3125,TripletSixteenth,G#5
4045,Left,1,73,101,838.333333,0.3125,TripletSixteenth,C#5
4046,Right,0,82,101,838.333333,0.3125,TripletSixteenth,A#5
4048,Left,1,75,103,838.666667,0.3125,TripletSixteenth,D#5
4047,Right,0,83,103,838.666667,0.3125,TripletSixteenth,B5
4050,Right,0,94,104,839.0,0.979167,Eighth,A#6_A#5
4049,Left,1,73,104,839.0,0.979167,TripletSixteenth,F#4_C#5
4053,Left,1,71,106,839.333333,0.3125,TripletSixteenth,B4
4054,Right,0,83,106,839.333333,0.3125,TripletSixteenth,B5
4056,Left,1,70,108,839.666667,0.3125,TripletSixteenth,A#4
4055,Right,0,85,108,839.666667,0.645833,Triplet,C#6
4058,Right,0,95,110,840.0,0.979167,Eighth,B6
4057,Left,1,76,110,840.0,0.979167,TripletSixteenth,G#4_E5
4061,Right,0,82,110,840.333333,0.3125,TripletSixteenth,A#5
4060,Left,1,73,110,840.333333,0.3125,TripletSixteenth,C#5
4062,Right,0,83,110,840.666667,0.3125,TripletSixteenth,B5
4063,Left,1,75,110,840.666667,0.3125,TripletSixteenth,D#5
4064,Right,0,85,110,841.0,0.979167,Eighth,G5_C#6
4065,Left,1,70,110,841.0,0.3125,TripletSixteenth,E5_A#4
4068,Right,0,78,110,841.333333,0.3125,TripletSixteenth,F#5
4069,Left,1,58,110,841.333333,0.625,Triplet,F#4_A#3
4072,Right,0,76,110,841.666667,0.3125,TripletSixteenth,E5
4071,Left,1,67,110,841.666667,0.3125,TripletSixteenth,G4
4074,Left,1,59,110,842.0,0.979167,Eighth,F#4_B3
4073,Right,0,75,110,842.0,0.979167,TripletSixteenth,D#6_D#5
4078,Right,0,76,110,842.333333,0.3125,TripletSixteenth,E5
4077,Left,1,64,110,842.333333,0.3125,TripletSixteenth,E4
4080,Left,1,63,110,842.666667,0.645833,Triplet,D#4
4079,Right,0,78,110,842.666667,0.645833,Triplet,F#5
4081,Left,1,60,105,843.0,0.3125,TripletSixteenth,C4
4082,Right,0,81,105,843.0,1.979167,Quarter,A5
4083,Left,1,65,103,843.333333,0.3125,TripletSixteenth,F4
4084,Right,0,77,103,843.333333,0.3125,TripletSixteenth,F5
4085,Left,1,66,101,843.666667,0.3125,TripletSixteenth,F#4
4086,Right,0,75,101,843.666667,0.3125,TripletSixteenth,D#5
4087,Left,1,69,98,844.0,0.3125,TripletSixteenth,A4
4088,Right,0,72,98,844.0,0.3125,TripletSixteenth,C5
4090,Right,0,73,96,844.333333,0.3125,TripletSixteenth,C#5
4089,Left,1,68,96,844.333333,0.3125,TripletSixteenth,G#4
4092,Left,1,66,93,844.666667,0.3125,TripletSixteenth,F#4
4091,Right,0,75,93,844.666667,0.3125,TripletSixteenth,D#5
4094,Left,1,60,91,845.0,0.3125,TripletSixteenth,C4
4093,Right,0,80,91,845.0,0.979167,Eighth,G#5_F5
4096,Right,0,74,88,845.333333,0.3125,TripletSixteenth,D5
4097,Left,1,65,88,845.333333,0.3125,TripletSixteenth,F4
4099,Left,1,68,86,845.666667,0.3125,TripletSixteenth,G#4
4098,Right,0,73,86,845.666667,0.3125,TripletSixteenth,C#5
4100,Right,0,79,80,846.0,2.979167,DottedQuarter,G5_E5_C#6
4103,Left,1,70,80,846.0,2.979167,DottedQuarter,C#5_A#4
4105,Right,0,75,80,848.0,0.979167,Eighth,D#5
4106,Right,0,75,80,849.0,1.979167,Quarter,D#6_D#5_A#5
4107,Left,1,70,80,849.0,1.979167,Quarter,G4_A#4
4113,Right,0,73,80,851.0,0.979167,Eighth,D#5_C#5_A#5
4111,Left,1,63,80,851.0,0.979167,Eighth,G4_D#4
4117,Right,0,73,80,852.0,0.479167,Sixteenth,C#6_C#5
4116,Left,1,70,80,852.0,0.479167,Sixteenth,A#4
4120,Right,0,82,80,852.5,0.479167,Sixteenth,A#5_A#4
4119,Left,1,67,80,852.5,0.479167,Sixteenth,G4
4124,Left,1,56,80,853.0,0.979167,Eighth,G#4_G#3
4122,Right,0,83,80,853.0,0.479167,Sixteenth,B5_B4
4126,Right,0,87,80,853.5,0.479167,Sixteenth,D#6_D#5
4128,Left,1,63,80,853.5,0.479167,Sixteenth,D#4
4129,Right,0,94,80,854.0,0.479167,Sixteenth,A#6_A#5
4130,Left,1,47,80,854.0,0.979167,Eighth,C#4_B2
4133,Right,0,92,80,854.5,0.979167,Eighth,G#6_G#5
4135,Left,1,59,80,854.5,0.479167,Sixteenth,B3
4136,Left,1,58,80,855.0,0.979167,Eighth,C#3_A#3
4138,Right,0,78,80,855.5,0.979167,Eighth,F#6_F#5
4140,Left,1,46,80,856.0,0.479167,Sixteenth,C#2_A#2
4142,Right,0,78,80,856.5,0.479167,Sixteenth,F#5_F#4_A#4
4145,Left,1,49,80,856.5,0.729167,DottedSixteenth,C#3_C#2
4147,Right,0,68,80,857.0,0.479167,Sixteenth,G#4_F5_F4
4150,Left,1,47,80,857.25,0.229167,ThirtySecond,B2_B1
4154,Right,0,64,80,857.5,0.479167,Sixteenth,G4_E5_E4_C#5
4152,Left,1,46,80,857.5,0.229167,ThirtySecond,A#2_A#1
4158,Left,1,35,80,857.75,0.229167,ThirtySecond,B2_B1
4160,Left,1,34,80,858.0,0.989583,Eighth,A#1
4161,Right,0,73,80,858.0,2.479167,Quarter,G4_E5_E4_C#5
4165,Left,1,37,80,858.25,0.989583,Eighth,C#2
4166,Left,1,40,80,858.5,0.989583,Eighth,E2
4167,Left,1,43,80,858.75,0.989583,Eighth,G2
4168,Left,1,46,80,859.0,0.989583,Eighth,A#2
4169,Left,1,49,80,859.25,0.989583,Eighth,C#3
4170,Left,1,52,80,859.5,0.677083,Triplet,E3
4171,Left,1,55,80,859.75,0.489583,Sixteenth,G3
4174,Right,0,73,80,860.0,0.229167,ThirtySecond,C#5
4172,Left,1,58,80,860.0,0.229167,ThirtySecond,C#4_A#3
4175,Right,0,67,80,860.25,0.229167,ThirtySecond,G4
4176,Left,1,64,80,860.25,0.229167,ThirtySecond,E4
4178,Left,1,59,80,860.5,0.229167,ThirtySecond,B3
4177,Right,0,75,80,860.5,0.479167,Sixteenth,D#5_B4
4180,Right,0,66,80,860.75,0.229167,ThirtySecond,F#4
4181,Left,1,63,80,860.75,0.229167,ThirtySecond,D#4
4183,Right,0,71,80,861.0,1.979167,Quarter,F#4_D5_D4_B4
4182,Left,1,59,80,861.0,1.979167,Quarter,B3_B2
4188,Right,0,70,80,864.0,2.395833,Quarter,F#4_C#5_C#4_A#4
4192,Left,1,37,80,864.0,1.3125,DottedEighth,C#2
4193,Left,1,42,80,864.333333,1.3125,DottedEighth,F#2
4194,Left,1,46,80,864.666667,1.3125,DottedEighth,A#2
4195,Left,1,49,80,865.0,0.989583,Eighth,C#3
4196,Left,1,54,80,865.333333,0.65625,Triplet,F#3
4197,Left,1,58,80,865.666667,0.3125,TripletSixteenth,A#3
4200,Right,0,70,80,866.0,0.229167,ThirtySecond,A#4
4198,Left,1,54,80,866.0,0.479167,ThirtySecond,F#3_C#3
4202,Right,0,66,80,866.25,0.229167,ThirtySecond,F#4
4201,Left,1,58,80,866.25,0.229167,ThirtySecond,A#3
4205,Right,0,72,80,866.5,0.479167,Sixteenth,C5_A4
4203,Left,1,54,80,866.5,0.479167,ThirtySecond,F#3_D#3
4207,Left,1,57,70,866.75,0.229167,ThirtySecond,A3
4208,Right,0,66,70,866.75,0.229167,ThirtySecond,F#4
4209,Left,1,59,70,867.0,0.979167,Eighth,G#3_F3_D3_B3
4213,Right,0,71,70,867.0,0.979167,Eighth,G#4_F4_D4_B4
4217,Left,1,59,70,868.0,1.479167,DottedEighth,G#3_F3_D3_B3
4221,Left,1,51,70,869.5,0.479167,Sixteenth,G3_D#3_A#3
4224,Left,1,51,70,870.0,1.979167,Quarter,G3_D#3_A#3
4227,Left,1,55,70,872.0,0.979167,Eighth,G3_D#4_D#3_A#3
4233,Left,1,58,70,873.0,1.979167,Quarter,G3_D#4_D#3_A#3
4231,Right,0,70,70,873.0,1.979167,Quarter,G4_A#4
4237,Left,1,63,70,875.0,0.979167,Eighth,G3_D#4_D#3_A#3
4241,Right,0,67,70,875.0,0.979167,Eighth,G4_D#5_A#4
4248,Left,1,51,70,876.0,0.979167,Eighth,D#3_D#2
4244,Right,0,75,70,876.0,1.979167,Quarter,G4_D#5_D#4_A#4
4250,Left,1,34,70,877.0,1.979167,Quarter,A#2_A#1
4252,Right,0,63,70,878.0,0.979167,Eighth,G4_D#5_D#4
4255,Right,0,66,70,879.0,0.979167,Eighth,F#4_D#5_D#4
4258,Left,1,35,70,879.0,0.979167,Eighth,B2_B1
4261,Left,1,37,70,880.0,1.979167,Quarter,C#3_C#2
4260,Right,0,65,70,880.0,1.979167,Quarter,F4_C#5_C#4
4265,Right,0,70,70,882.0,1.979167,Quarter,F#4_C#5_C#4_A#4
4268,Left,1,30,70,882.0,1.979167,Quarter,F#2_F#1
4272,Left,1,58,70,884.0,0.979167,Eighth,A#3
4271,Right,0,70,70,884.0,0.979167,Eighth,A#4
4273,Left,1,49,70,885.0,1.979167,Quarter,C#3
4274,Right,0,61,70,885.0,1.979167,Quarter,C#4
4276,Left,1,61,70,887.0,0.979167,Eighth,C#4
4275,Right,0,73,70,887.0,0.979167,Eighth,C#5
4278,Right,0,70,70,888.0,1.979167,Quarter,A#4
4277,Left,1,58,70,888.0,1.979167,Quarter,A#3
4282,Left,1,37,70,890.0,1.979167,Quarter,C#3_C#2
4279,Right,0,73,70,890.0,0.979167,Eighth,C#5_A#5_A#4
4284,Right,0,68,70,891.0,1.979167,Quarter,G#5_G#4_B4
4287,Left,1,39,70,892.0,0.479167,Sixteenth,D#3_D#2
4289,Left,1,49,70,892.5,0.479167,Sixteenth,C#3_C#2
4293,Left,1,51,70,893.0,0.479167,Sixteenth,D#3_D#2_C#3
4291,Right,0,71,70,893.0,0.979167,Eighth,G#4_C#5_C#4_B4
4298,Left,1,53,70,893.5,0.479167,Sixteenth,F3_F2_C#3
4304,Left,1,42,70,894.0,1.979167,Quarter,F#3_F#2_C#3
4301,Right,0,66,70,894.0,1.979167,Quarter,F#4_C#5_C#4_A#4
4308,Left,1,70,70,896.0,0.979167,Eighth,A#4
4309,Right,0,82,70,896.0,0.979167,Eighth,A#5
4311,Right,0,73,70,897.0,1.979167,Quarter,C#5
4310,Left,1,61,70,897.0,1.979167,Quarter,C#4
4313,Right,0,73,70,899.0,0.979167,Eighth,C#6_C#5
4312,Left,1,30,70,899.0,0.979167,Eighth,F#2_F#1
4317,Left,1,37,70,900.0,0.979167,Eighth,C#3_C#2
4316,Right,0,82,70,900.0,1.979167,Quarter,A#5_A#4
4320,Left,1,49,70,901.0,0.979167,Eighth,C#4_C#3
4322,Left,1,58,70,902.0,0.979167,Eighth,C#3_A#3_A#2
4323,Right,0,85,70,902.0,1.979167,Quarter,C#6_C#5
4327,Left,1,56,70,903.0,1.979167,Quarter,G#3_G#2_C#3
4330,Right,0,87,70,904.0,0.979167,Eighth,D#6_D#5_C#6
4333,Right,0,83,70,904.5,0.479167,Sixteenth,B5
4334,Left,1,49,70,905.0,0.979167,Eighth,C#3_C#2
4336,Right,0,82,70,905.0,0.979167,Eighth,F6_F5_A#5
4339,Right,0,83,70,905.5,0.479167,Sixteenth,B5
4341,Left,1,49,70,906.0,2.979167,DottedQuarter,F#3_F#2_C#3
4340,Right,0,78,70,906.0,2.979167,DottedQuarter,F#6_F#5_A#5
4346,Left,1,37,70,909.0,2.979167,DottedQuarter,C#3_C#2
4347,Right,0,92,70,909.0,2.979167,DottedQuarter,G#6_G#5_F6
4351,Right,0,85,70,911.0,0.979167,Eighth,C#6
4355,Left,1,42,70,912.0,1.979167,Quarter,F#2_F#1
4352,Right,0,94,70,912.0,1.979167,Quarter,F#6_C#6_A#6_A#5
4358,Left,1,42,70,914.0,0.979167,Eighth,F#3_F#2
4360,Right,0,70,70,914.0,0.979167,Eighth,C#5_A#5_A#4
4365,Right,0,85,70,915.0,1.479167,DottedEighth,C#6_C#5_A#5
4363,Left,1,42,70,915.0,1.979167,Quarter,F#3_F#2
4368,Right,0,86,70,916.5,0.479167,Sixteenth,D6_D5_B5
4371,Left,1,42,70,917.0,0.729167,DottedSixteenth,F#3_F#2
4372,Right,0,76,70,917.0,0.479167,Sixteenth,E6_E5_C#6
4376,Right,0,86,70,917.5,0.479167,Sixteenth,F#6_F#5_D6
4379,Left,1,52,70,917.75,0.229167,ThirtySecond,E3_E2
4383,Left,1,38,70,918.0,2.979167,DottedQuarter,D3_D2
4381,Right,0,78,70,918.0,1.979167,Quarter,F#6_F#5
4385,Right,0,86,70,920.0,0.979167,Eighth,D6_D5
4389,Right,0,86,70,921.0,0.979167,Eighth,D6_D5
4387,Left,1,42,70,921.0,2.979167,DottedQuarter,F#3_F#2
4391,Right,0,71,70,922.0,0.979167,Eighth,B5_B4
4393,Right,0,85,70,923.0,0.979167,Eighth,C#6_C#5
4395,Left,1,59,70,924.0,1.979167,Quarter,B3_B2
4397,Right,0,86,70,924.0,1.979167,Quarter,D6_D5
4399,Left,1,59,70,928.0,0.979167,Eighth,B3_B2
4401,Left,1,55,70,929.0,0.479167,Sixteenth,G3_G2
4403,Left,1,50,70,929.5,0.479167,Sixteenth,D3_D2
4405,Right,0,71,70,930.0,2.979167,DottedQuarter,B5_B4
4406,Left,1,38,70,930.0,1.979167,Quarter,D3_D2
4409,Left,1,47,70,932.0,0.979167,Eighth,B2_B1
4411,Left,1,35,70,933.0,0.979167,Eighth,B2_B1
4413,Right,0,86,70,933.0,2.979167,DottedQuarter,D6_D5
4415,Left,1,43,70,934.0,0.979167,Eighth,G2_G1
4417,Left,1,33,70,935.0,0.979167,Eighth,A2_A1
4420,Left,1,35,70,936.0,0.979167,Eighth,B2_B1
4419,Right,0,79,70,936.0,3.979167,Half,G6_G5
4423,Left,1,47,71,937.0,0.979167,Eighth,G3_B2
4425,Left,1,57,73,938.0,0.979167,Eighth,C3_A3
4427,Left,1,50,75,939.0,0.979167,Eighth,D3_B3
4430,Right,0,74,77,940.0,0.979167,Eighth,D5_B4
4429,Left,1,59,77,940.0,0.979167,Eighth,D4_B3
4433,Right,0,72,79,941.0,0.479167,Sixteenth,F#4_C5
4435,Left,1,50,79,941.0,0.479167,Sixteenth,D3_C4_A3
4438,Right,0,71,79,941.5,0.479167,Sixteenth,G4_B4
4440,Left,1,59,79,941.5,0.479167,Sixteenth,G3_B3
4442,Left,1,55,80,942.0,4.979167,Half,G3_B3
4443,Right,0,67,80,942.0,0.979167,Eighth,G4_B4
4446,Left,1,64,80,942.333333,0.3125,TripletSixteenth,E4
4447,Left,1,62,80,942.666667,0.3125,TripletSixteenth,D4
4448,Left,1,61,80,943.0,0.3125,TripletSixteenth,C#4
4449,Left,1,64,80,943.333333,0.3125,TripletSixteenth,E4
4450,Left,1,62,80,943.666667,0.3125,TripletSixteenth,D4
4451,Left,1,59,80,944.0,0.3125,TripletSixteenth,B3
4452,Right,0,43,80,944.0,1.979167,Quarter,G2
4453,Left,1,64,80,944.333333,0.3125,TripletSixteenth,E4
4454,Left,1,62,80,944.666667,0.3125,TripletSixteenth,D4
4455,Left,1,61,80,945.0,0.3125,TripletSixteenth,C#4
4456,Left,1,64,80,945.333333,0.3125,TripletSixteenth,E4
4457,Left,1,62,80,945.666667,0.3125,TripletSixteenth,D4
4459,Left,1,59,80,946.0,0.3125,TripletSixteenth,B3
4458,Right,0,43,80,946.0,0.979167,Eighth,G2
4460,Left,1,64,80,946.333333,0.3125,TripletSixteenth,E4
4461,Left,1,62,80,946.666667,0.3125,TripletSixteenth,D4
4463,Left,1,59,80,947.0,0.979167,TripletSixteenth,G3_B3
4462,Right,0,43,80,947.0,0.3125,TripletSixteenth,G2
4466,Left,1,63,80,947.333333,0.3125,TripletSixteenth,D#4
4465,Right,0,42,80,947.333333,0.3125,TripletSixteenth,F#2
4467,Left,1,62,80,947.666667,0.3125,TripletSixteenth,D4
4468,Right,0,43,80,947.666667,0.3125,TripletSixteenth,G2
4470,Left,1,57,80,948.0,0.979167,TripletSixteenth,F#3_A3
4469,Right,0,38,80,948.0,1.979167,Quarter,D2
4472,Left,1,64,80,948.333333,0.3125,TripletSixteenth,E4
4473,Left,1,62,80,948.666667,0.3125,TripletSixteenth,D4
4474,Left,1,59,80,949.0,0.979167,TripletSixteenth,G3_B3
4476,Left,1,64,80,949.333333,0.3125,TripletSixteenth,E4
4477,Left,1,62,80,949.666667,0.3125,TripletSixteenth,D4
4478,Left,1,60,80,950.0,0.979167,TripletSixteenth,C4_A3
4480,Right,0,38,80,950.0,1.979167,Quarter,D2
4481,Left,1,64,80,950.333333,0.3125,TripletSixteenth,E4
4482,Left,1,62,80,950.666667,0.3125,TripletSixteenth,D4
4483,Left,1,57,80,951.0,0.979167,Eighth,C4_A3
4485,Left,1,64,80,951.333333,0.3125,TripletSixteenth,E4
4486,Left,1,62,80,951.666667,0.3125,TripletSixteenth,D4
4488,Left,1,59,80,952.0,0.979167,TripletSixteenth,G3_B3
4487,Right,0,38,80,952.0,1.979167,Quarter,D2
4490,Left,1,64,80,952.333333,0.3125,TripletSixteenth,E4
4491,Left,1,62,80,952.666667,0.3125,TripletSixteenth,D4
4492,Left,1,58,80,953.0,0.979167,TripletSixteenth,F#3_A#3
4494,Left,1,64,80,953.333333,0.3125,TripletSixteenth,E4
4495,Left,1,62,80,953.666667,0.3125,TripletSixteenth,D4
4496,Left,1,59,80,954.0,4.979167,TripletSixteenth,G3_B3
4498,Right,0,35,80,954.0,0.979167,Eighth,B1
4499,Left,1,64,80,954.333333,0.3125,TripletSixteenth,E4
4500,Left,1,62,80,954.666667,0.3125,TripletSixteenth,D4
4501,Left,1,61,80,955.0,0.3125,TripletSixteenth,C#4
4502,Left,1,64,80,955.333333,0.3125,TripletSixteenth,E4
4503,Left,1,62,80,955.666667,0.3125,TripletSixteenth,D4
4505,Right,0,91,80,956.0,1.979167,Quarter,G6_G5
4504,Left,1,59,80,956.0,0.3125,TripletSixteenth,B3
4507,Left,1,64,80,956.333333,0.3125,TripletSixteenth,E4
4508,Left,1,62,80,956.666667,0.3125,TripletSixteenth,D4
4509,Left,1,61,80,957.0,0.3125,TripletSixteenth,C#4
4510,Left,1,64,80,957.333333,0.3125,TripletSixteenth,E4
4511,Left,1,62,80,957.666667,0.3125,TripletSixteenth,D4
4512,Right,0,79,80,958.0,0.979167,Eighth,G6_G5
4513,Left,1,59,80,958.0,0.3125,TripletSixteenth,B3
4515,Left,1,64,80,958.333333,0.3125,TripletSixteenth,E4
4516,Left,1,62,80,958.666667,0.3125,TripletSixteenth,D4
4517,Left,1,55,80,959.0,0.979167,Eighth,G3_B3
4519,Right,0,91,80,959.0,0.3125,TripletSixteenth,G6_G5
4521,Left,1,63,80,959.333333,0.3125,TripletSixteenth,D#4
4522,Right,0,78,80,959.333333,0.3125,TripletSixteenth,F#6_F#5
4525,Left,1,62,80,959.666667,0.3125,TripletSixteenth,D4
4524,Right,0,91,80,959.666667,0.3125,TripletSixteenth,G6_G5
4527,Right,0,86,80,960.0,1.979167,Quarter,D6_D5
4528,Left,1,57,80,960.0,0.979167,TripletSixteenth,F#3_A3
4531,Left,1,64,80,960.333333,0.3125,TripletSixteenth,E4
4532,Left,1,62,80,960.666667,0.3125,TripletSixteenth,D4
4533,Left,1,59,80,961.0,0.979167,TripletSixteenth,G3_B3
4535,Left,1,64,80,961.333333,0.3125,TripletSixteenth,E4
4536,Left,1,62,80,961.666667,0.3125,TripletSixteenth,D4
4537,Right,0,74,80,962.0,1.979167,Quarter,D6_D5
4539,Left,1,57,80,962.0,0.979167,Eighth,C4_A3
4541,Left,1,64,80,962.333333,0.3125,TripletSixteenth,E4
4542,Left,1,62,80,962.666667,0.3125,TripletSixteenth,D4
4543,Left,1,60,80,963.0,0.979167,TripletSixteenth,C4_A3
4545,Left,1,64,80,963.333333,0.3125,TripletSixteenth,E4
4546,Left,1,62,80,963.666667,0.3125,TripletSixteenth,D4
4547,Left,1,55,80,964.0,0.979167,Eighth,G3_B3
4549,Right,0,74,80,964.0,1.979167,Quarter,D6_D5
4551,Left,1,64,80,964.333333,0.3125,TripletSixteenth,E4
4552,Left,1,62,80,964.666667,0.3125,TripletSixteenth,D4
4553,Left,1,58,80,965.0,0.979167,TripletSixteenth,F#3_A#3
4555,Left,1,64,80,965.333333,0.3125,TripletSixteenth,E4
4556,Left,1,62,80,965.666667,0.3125,TripletSixteenth,D4
4557,Left,1,58,80,966.0,0.979167,TripletSixteenth,F#3_A#3
4559,Right,0,74,80,966.0,1.979167,Quarter,D6_D5
4561,Left,1,64,80,966.333333,0.3125,TripletSixteenth,E4
4562,Left,1,62,80,966.666667,0.3125,TripletSixteenth,D4
4563,Left,1,59,80,967.0,0.979167,TripletSixteenth,G3_B3
4565,Left,1,64,80,967.333333,0.3125,TripletSixteenth,E4
4566,Left,1,62,80,967.666667,0.3125,TripletSixteenth,D4
4569,Right,0,86,80,968.0,1.979167,Quarter,D6_D5
4567,Left,1,59,80,968.0,0.979167,TripletSixteenth,G#3_B3
4571,Left,1,64,80,968.333333,0.3125,TripletSixteenth,E4
4572,Left,1,62,80,968.666667,0.3125,TripletSixteenth,D4
4573,Left,1,59,80,969.0,0.979167,TripletSixteenth,G#3_B3
4575,Left,1,64,80,969.333333,0.3125,TripletSixteenth,E4
4576,Left,1,62,80,969.666667,0.3125,TripletSixteenth,D4
4577,Right,0,86,81,970.0,1.3125,DottedEighth,D6_D5
4578,Left,1,59,81,970.0,0.979167,TripletSixteenth,G#3_B3
4581,Left,1,65,82,970.333333,0.3125,TripletSixteenth,F4
4582,Left,1,62,82,970.666667,0.3125,TripletSixteenth,D4
4583,Left,1,56,83,971.0,0.979167,Eighth,G#3_B3
4585,Left,1,65,84,971.333333,0.3125,TripletSixteenth,F4
4586,Right,0,85,84,971.333333,0.3125,TripletSixteenth,C#6_C#5
4588,Left,1,62,85,971.666667,0.3125,TripletSixteenth,D4
4589,Right,0,74,85,971.666667,0.3125,TripletSixteenth,D6_D5
4591,Left,1,62,85,972.0,0.979167,TripletSixteenth,D4_A3
4593,Right,0,78,85,972.0,1.979167,Quarter,F#5_D6_D5
4596,Left,1,66,86,972.333333,0.3125,TripletSixteenth,F#4
4597,Left,1,64,87,972.666667,0.3125,TripletSixteenth,E4
4598,Left,1,58,87,973.0,0.979167,Eighth,D4_A#3
4600,Left,1,66,88,973.333333,0.3125,TripletSixteenth,F#4
4601,Left,1,64,89,973.666667,0.3125,TripletSixteenth,E4
4604,Left,1,59,90,974.0,0.979167,Eighth,D4_B3
4602,Right,0,86,90,974.0,1.979167,Quarter,F#5_D6_D5
4607,Left,1,66,90,974.333333,0.3125,TripletSixteenth,F#4
4608,Left,1,64,91,974.666667,0.3125,TripletSixteenth,E4
4609,Left,1,59,92,975.0,0.979167,Eighth,D4_B3
4611,Left,1,66,92,975.333333,0.3125,TripletSixteenth,F#4
4612,Left,1,64,93,975.666667,0.3125,TripletSixteenth,E4
4613,Right,0,78,94,976.0,1.3125,DottedEighth,F#6_F#5
4615,Left,1,62,94,976.0,0.979167,TripletSixteenth,D4_B3
4617,Left,1,66,95,976.333333,0.3125,TripletSixteenth,F#4
4618,Left,1,64,95,976.666667,0.3125,TripletSixteenth,E4
4619,Left,1,62,96,977.0,0.979167,TripletSixteenth,D4_B3
4621,Right,0,77,97,977.333333,0.3125,TripletSixteenth,F6_F5
4623,Left,1,65,97,977.333333,0.3125,TripletSixteenth,F4
4624,Right,0,78,98,977.666667,0.3125,TripletSixteenth,F#6_F#5
4626,Left,1,66,98,977.666667,0.3125,TripletSixteenth,F#4
4627,Left,1,59,98,978.0,0.979167,Eighth,D4_B3
4628,Right,0,90,98,978.0,1.979167,Quarter,F#6_F#5
4631,Left,1,67,99,978.333333,0.3125,TripletSixteenth,G4
4632,Left,1,66,100,978.666667,0.3125,TripletSixteenth,F#4
4633,Left,1,63,100,979.0,0.979167,TripletSixteenth,D#4_C4
4635,Left,1,67,101,979.333333,0.3125,TripletSixteenth,G4
4636,Left,1,66,102,979.666667,0.3125,TripletSixteenth,F#4
4638,Right,0,90,103,980.0,1.479167,DottedEighth,F#6_F#5
4637,Left,1,60,103,980.0,0.979167,Eighth,D#4_C4
4641,Left,1,69,103,980.333333,0.3125,TripletSixteenth,A4
4642,Left,1,66,104,980.666667,0.3125,TripletSixteenth,F#4
4643,Left,1,51,105,981.0,0.979167,TripletSixteenth,D#3_C3
4645,Left,1,57,105,981.333333,0.3125,TripletSixteenth,A3
4646,Left,1,54,106,981.666667,0.3125,TripletSixteenth,F#3
4648,Right,0,90,107,982.0,1.479167,DottedEighth,F#6_F#5
4647,Left,1,63,107,982.0,0.979167,TripletSixteenth,D#4_C4
4651,Left,1,69,108,982.333333,0.3125,TripletSixteenth,A4
4652,Left,1,66,108,982.666667,0.3125,TripletSixteenth,F#4
4653,Left,1,48,109,983.0,0.979167,Eighth,D#3_C3
4655,Left,1,57,110,983.333333,0.3125,TripletSixteenth,A3
4656,Left,1,54,110,983.666667,0.3125,TripletSixteenth,F#3
4657,Left,1,60,110,984.0,0.479167,Sixteenth,C4
4658,Right,0,90,110,984.0,0.479167,Sixteenth,F#6_F#5
4660,Left,1,69,110,984.25,0.479167,Sixteenth,A4
4661,Left,1,63,110,984.5,0.479167,Sixteenth,F#4_D#4
4663,Right,0,90,110,984.5,0.479167,Sixteenth,F#6
4664,Left,1,69,110,984.75,0.479167,Sixteenth,A4
4666,Left,1,48,110,985.0,0.479167,Sixteenth,C3
4665,Right,0,90,110,985.0,0.479167,Sixteenth,F#6
4667,Left,1,57,110,985.25,0.479167,Sixteenth,A3
4669,Left,1,54,110,985.5,0.479167,Sixteenth,F#3_D#3
4668,Right,0,90,110,985.5,0.479167,Sixteenth,F#6
4671,Left,1,57,110,985.75,0.479167,Sixteenth,A3
4673,Left,1,60,110,986.0,0.479167,Sixteenth,C4
4672,Right,0,90,110,986.0,0.479167,Sixteenth,F#6
4674,Left,1,69,110,986.25,0.479167,Sixteenth,A4
4676,Left,1,66,110,986.5,0.479167,Sixteenth,F#4_D#4
4675,Right,0,90,110,986.5,0.479167,Sixteenth,F#6
4678,Left,1,69,110,986.75,0.479167,Sixteenth,A4
4680,Left,1,48,110,987.0,0.3125,TripletSixteenth,C3
4679,Right,0,90,110,987.0,0.479167,Sixteenth,F#6
4681,Left,1,57,110,987.166667,0.3125,TripletSixteenth,A3
4682,Left,1,54,110,987.333333,0.3125,TripletSixteenth,F#3_D#3
4684,Right,0,90,110,987.5,0.479167,Sixteenth,F#6
4685,Left,1,57,110,987.5,0.3125,TripletSixteenth,A3
4686,Left,1,54,110,987.666667,0.3125,TripletSixteenth,F#3_D#3
4688,Left,1,57,110,987.833333,0.3125,TripletSixteenth,A3
4690,Right,0,90,110,988.0,0.479167,Sixteenth,F#6
4689,Left,1,60,110,988.0,0.3125,TripletSixteenth,C4
4691,Left,1,69,110,988.166667,0.3125,TripletSixteenth,A4
4692,Left,1,66,110,988.333333,0.3125,TripletSixteenth,F#4_D#4
4694,Left,1,69,110,988.5,0.3125,TripletSixteenth,A4
4695,Right,0,90,110,988.5,0.479167,Sixteenth,F#6
4696,Left,1,66,110,988.666667,0.3125,TripletSixteenth,F#4_D#4
4698,Left,1,69,110,988.833333,0.3125,TripletSixteenth,A4
4700,Left,1,48,110,989.0,0.3125,TripletSixteenth,C3
4699,Right,0,90,110,989.0,0.479167,Sixteenth,F#6
4701,Left,1,57,110,989.166667,0.3125,TripletSixteenth,A3
4702,Left,1,54,110,989.333333,0.3125,TripletSixteenth,F#3_D#3
4705,Left,1,57,110,989.5,0.3125,TripletSixteenth,A3
4704,Right,0,90,110,989.5,0.479167,Sixteenth,F#6
4706,Left,1,54,110,989.666667,0.3125,TripletSixteenth,F#3_D#3
4708,Left,1,57,80,989.833333,0.3125,TripletSixteenth,A3
4709,Right,0,73,80,990.0,1.979167,Quarter,C#5
4710,Left,1,61,80,990.0,1.979167,Quarter,C#4
4712,Left,1,57,80,992.0,0.979167,Eighth,A3
4711,Right,0,69,80,992.0,0.979167,Eighth,A4
4714,Right,0,69,80,993.0,0.979167,Eighth,A4
4713,Left,1,57,80,993.0,0.979167,Eighth,A3
4715,Right,0,66,80,994.0,0.979167,Eighth,F#4
4716,Left,1,54,80,994.0,0.979167,Eighth,F#3
4720,Left,1,56,80,995.0,0.979167,Eighth,G#3_C#3
4717,Right,0,61,80,995.0,0.979167,Eighth,G#4_F4_C#4
4722,Left,1,42,80,996.0,1.979167,Quarter,F#3_F#2
4724,Right,0,69,80,996.0,1.979167,Quarter,F#4_C#4_A4_A3
4728,Left,1,54,80,998.0,0.979167,Eighth,F#3_F#2
4729,Right,0,61,80,998.0,0.979167,Eighth,F#4_C#4_A#4_A#3
4737,Left,1,35,80,999.0,1.979167,Quarter,B2_B1
4734,Right,0,62,80,999.0,1.979167,Quarter,F#4_D4_B4_B3
4741,Right,0,74,80,1001.0,0.979167,Eighth,F#4_D5_D4_B4
4740,Left,1,47,80,1001.0,0.979167,Eighth,B2_B1
4748,Right,0,62,80,1002.0,1.979167,Quarter,F4_D5_D4_B4
4746,Left,1,32,80,1002.0,1.979167,Quarter,G#2_G#1
4752,Right,0,61,80,1004.0,0.979167,Eighth,F#4_C#5_C#4_A4
4756,Left,1,33,80,1004.0,0.979167,Eighth,A2_A1
4759,Left,1,33,80,1005.0,0.979167,Eighth,A2_A1
4758,Right,0,73,80,1005.0,0.979167,Eighth,F#4_C#5_C#4_A4
4768,Left,1,35,80,1006.0,0.979167,Eighth,B2_B1
4764,Right,0,59,80,1006.0,0.979167,Eighth,G#4_D4_B4_B3
4772,Left,1,36,80,1007.0,0.979167,Eighth,C3_C2
4770,Right,0,57,80,1007.0,0.979167,Eighth,F#4_D#4_A4_A3
4780,Left,1,48,80,1008.0,0.979167,Eighth,C3_C2
4776,Right,0,66,80,1008.0,1.979167,Quarter,F#4_D#4_A4_A3
4782,Left,1,49,80,1009.0,1.479167,DottedEighth,C#3_C#2
4784,Right,0,61,80,1009.0,1.979167,Quarter,C#4
4785,Right,0,68,80,1010.0,0.979167,Eighth,G#4_G#3_F4
4788,Left,1,48,80,1010.5,0.479167,Sixteenth,C3_C2
4790,Right,0,56,80,1011.0,0.979167,Eighth,G#4_G#3_F4_C#4
4794,Left,1,49,80,1011.0,0.979167,Eighth,C#3_C#2
4796,Right,0,67,80,1012.0,1.979167,Eighth,G4_G3_E4_A#3
4799,Left,1,49,80,1012.0,0.979167,Eighth,C#3_C#2
4802,Right,0,59,80,1013.0,0.979167,Eighth,G3_D4_B3
4805,Left,1,50,80,1013.0,0.979167,Eighth,D3_D2
4807,Right,0,71,80,1014.0,0.145833,TripletThirtySecond,B4
4808,Left,1,31,80,1014.0,2.979167,DottedQuarter,G1_D2_B2
4811,Right,0,83,80,1014.166667,1.8125,Quarter,B5
4812,Right,0,71,80,1015.0,0.979167,Eighth,B4
4813,Right,0,69,80,1016.0,0.979167,Eighth,A5_A4
4816,Right,0,69,80,1017.0,0.979167,Eighth,A5_A4
4815,Left,1,43,80,1017.0,2.979167,DottedQuarter,G2_D3_B1
4820,Right,0,67,80,1018.0,0.979167,Eighth,G5_G4
4822,Right,0,66,80,1019.0,0.979167,Eighth,F#5_F#4
4825,Left,1,36,80,1020.0,2.979167,DottedQuarter,G2_E3_C2
4824,Right,0,78,80,1020.0,0.979167,Eighth,F#5_F#4
4829,Right,0,76,80,1021.0,0.979167,Eighth,E5_E4
4831,Right,0,78,80,1022.0,0.979167,Eighth,F#5_F#4
4834,Left,1,35,80,1023.0,0.979167,Eighth,G2_D3_B1
4833,Right,0,66,80,1023.0,0.979167,Eighth,F#5_F#4
4839,Left,1,43,80,1024.0,1.479167,DottedEighth,G2
4838,Right,0,67,80,1024.0,1.479167,DottedEighth,G5_G4
4841,Left,1,38,80,1025.0,0.979167,Eighth,D2
4842,Right,0,66,80,1025.5,0.479167,Sixteenth,F#4_F#3
4843,Left,1,42,80,1025.5,0.479167,Sixteenth,F#2
4846,Left,1,42,80,1026.0,0.979167,Eighth,F#2_D2
4845,Right,0,54,80,1026.0,0.979167,Eighth,F#4_F#3
4850,Right,0,57,80,1027.0,0.979167,Eighth,A4_A3
4849,Left,1,45,80,1027.0,0.979167,Eighth,C#2_A2
4853,Right,0,69,80,1028.0,0.979167,Eighth,F#4_C#5_C#4_A4
4854,Left,1,49,80,1028.0,0.979167,Eighth,C#3_C#2
4863,Left,1,37,80,1029.0,1.979167,Quarter,C#3_C#2
4859,Right,0,68,80,1029.0,1.979167,Quarter,G#4_F4_C#5_C#4
4865,Left,1,42,80,1031.0,0.979167,Eighth,F#2_C#3
4866,Right,0,66,80,1031.0,0.979167,Eighth,F#4_C#5_C#4_A4
4873,Right,0,69,80,1032.0,0.979167,Eighth,C#5_C#4_A4
4871,Left,1,49,80,1032.0,0.979167,Eighth,F#2_C#3
4876,Right,0,62,80,1033.0,0.979167,Eighth,G4_D5_D4
4879,Left,1,50,80,1033.0,0.979167,Eighth,D3_B1
4881,Right,0,67,80,1034.0,0.979167,Eighth,G4_G3
4882,Left,1,43,80,1034.0,0.979167,Eighth,G2
4886,Right,0,71,80,1035.0,0.979167,Eighth,B4_B3
4884,Left,1,35,80,1035.0,0.979167,Eighth,B2_B1
4888,Left,1,37,80,1036.0,0.979167,Eighth,C#2
4889,Right,0,61,80,1036.0,0.979167,Eighth,C#4_C#3
4893,Right,0,65,80,1037.0,0.479167,Sixteenth,F4_F3
4891,Left,1,37,80,1037.0,0.979167,Eighth,F2_C#2
4896,Right,0,66,80,1037.5,0.479167,Sixteenth,F#4_F#3
4895,Left,1,42,80,1037.5,0.479167,Sixteenth,F#2
4898,Right,0,58,80,1038.0,1.479167,DottedEighth,F#4_F#3_E4_A#3
4901,Left,1,37,80,1038.0,0.979167,Eighth,F#2_C#2
4904,Left,1,30,80,1039.0,0.979167,Eighth,F#2_F#1
4906,Right,0,66,80,1039.5,0.979167,Eighth,F#4
4907,Right,0,78,80,1040.0,0.979167,Eighth,F#5
4908,Left,1,46,80,1040.0,0.979167,Eighth,A#2_A#1
4910,Right,0,66,80,1040.5,0.979167,Eighth,F#4
4911,Right,0,78,80,1041.0,1.979167,Quarter,F#5
4912,Left,1,49,80,1041.0,0.979167,Eighth,C#3_C#2
4914,Right,0,66,80,1041.5,0.979167,Eighth,F#4
4915,Left,1,30,80,1042.0,0.979167,Eighth,F#2_F#1
4917,Right,0,66,80,1042.5,0.979167,Eighth,F#4
4920,Right,0,73,80,1043.0,0.979167,Eighth,C#5
4918,Left,1,46,80,1043.0,0.979167,Eighth,A#2_A#1
4921,Right,0,66,80,1043.5,0.979167,Eighth,F#4
4922,Right,0,76,80,1044.0,0.979167,Eighth,E5
4923,Left,1,35,80,1044.0,0.979167,Eighth,B2_B1
4925,Right,0,66,80,1044.5,0.979167,Eighth,F#4
4927,Right,0,74,80,1045.0,0.979167,Eighth,D5
4926,Left,1,30,80,1045.0,0.979167,Eighth,F#2_F#1
4929,Right,0,68,80,1045.5,0.979167,Eighth,G#4_F4_D4
4933,Left,1,47,80,1046.0,0.979167,Eighth,B2_B1
4932,Right,0,71,80,1046.0,0.979167,Eighth,B4
4935,Right,0,68,80,1046.5,0.979167,Eighth,G#4_F4_D4
4938,Left,1,38,80,1047.0,0.979167,Eighth,D3_D2
4940,Right,0,71,80,1047.0,0.979167,Eighth,B4
4941,Right,0,62,80,1047.5,0.979167,Eighth,G#4_F4_D4
4945,Right,0,74,80,1048.0,0.979167,Eighth,D5
4944,Left,1,42,80,1048.0,0.979167,Eighth,F#2_F#1
4947,Right,0,68,80,1048.5,0.979167,Eighth,G#4_F4_D4
4952,Right,0,71,80,1049.0,0.979167,Eighth,B4
4950,Left,1,35,80,1049.0,0.979167,Eighth,B2_B1
4953,Right,0,65,80,1049.5,0.479167,Sixteenth,G#4_F4_D4
4957,Right,0,66,80,1050.0,0.979167,Eighth,F#4_C#4_A#4
4956,Left,1,49,80,1050.0,0.979167,Eighth,C#3_C#2
4961,Right,0,78,81,1050.333333,0.3125,TripletSixteenth,F#5
4962,Right,0,73,83,1050.666667,0.3125,TripletSixteenth,C#5
4964,Left,1,42,85,1051.0,0.979167,Eighth,F#2_F#1
4963,Right,0,82,85,1051.0,0.3125,TripletSixteenth,A#5
4966,Right,0,78,86,1051.333333,0.3125,TripletSixteenth,F#5
4967,Right,0,85,88,1051.666667,0.3125,TripletSixteenth,C#6
4969,Left,1,45,90,1052.0,0.979167,Eighth,A2_A1
4968,Right,0,78,90,1052.0,0.3125,TripletSixteenth,F#5
4971,Right,0,91,92,1052.333333,0.3125,TripletSixteenth,G6
4972,Right,0,90,93,1052.666667,0.3125,TripletSixteenth,F#6
4973,Left,1,37,95,1053.0,0.979167,Eighth,C#3_C#2
4974,Right,0,89,95,1053.0,0.3125,TripletSixteenth,F6
4976,Right,0,90,97,1053.333333,0.3125,TripletSixteenth,F#6
4977,Right,0,88,98,1053.666667,0.645833,Triplet,E6
4978,Left,1,42,100,1054.0,0.979167,Eighth,F#2_F#1
4980,Right,0,85,102,1054.333333,0.3125,TripletSixteenth,C#6
4981,Right,0,82,104,1054.666667,0.3125,TripletSixteenth,A#5
4982,Left,1,45,105,1055.0,0.979167,Eighth,A2_A1
4983,Right,0,79,105,1055.0,0.979167,TripletSixteenth,G5_C#5
4986,Right,0,78,107,1055.333333,0.3125,TripletSixteenth,F#5
4987,Right,0,76,109,1055.666667,0.645833,Triplet,E5
4988,Left,1,35,110,1056.0,0.979167,Eighth,B2_B1
4990,Right,0,73,110,1056.333333,0.3125,TripletSixteenth,C#5
4991,Right,0,74,110,1056.666667,0.3125,TripletSixteenth,D5
4992,Left,1,42,110,1057.0,0.979167,Eighth,F#2_F#1
4993,Right,0,83,110,1057.0,0.3125,TripletSixteenth,B5
4995,Right,0,78,110,1057.333333,0.3125,TripletSixteenth,F#5
4996,Right,0,86,110,1057.666667,0.645833,Triplet,D6
4997,Left,1,35,110,1058.0,0.979167,Eighth,B2_B1
4999,Right,0,85,110,1058.333333,0.3125,TripletSixteenth,C#6
5000,Right,0,83,110,1058.666667,0.3125,TripletSixteenth,B5
5002,Right,0,80,110,1059.0,1.979167,Quarter,G#5_F5_D5_B5_B4
5001,Left,1,50,110,1059.0,0.645833,Triplet,D3_D2
5008,Left,1,30,108,1059.333333,0.645833,Triplet,F#1
5009,Left,1,35,106,1059.666667,0.635417,Triplet,B1
5010,Left,1,38,103,1060.0,0.65625,Triplet,D2
5011,Left,1,42,101,1060.333333,0.65625,Triplet,F#2
5012,Left,1,47,98,1060.666667,0.65625,Triplet,B2
5016,Left,1,50,96,1061.0,0.645833,Triplet,D3
5013,Right,0,83,96,1061.0,0.979167,Eighth,G#5_F5_D5_B5_B4
5019,Left,1,42,93,1061.333333,0.65625,Triplet,F#2
5020,Left,1,50,91,1061.666667,0.65625,Triplet,D3
5021,Right,0,82,80,1062.0,4.979167,Half,F#5_C#5_A#5_A#4
5023,Left,1,42,80,1062.0,0.635417,Triplet,F#2
5026,Left,1,49,80,1062.333333,0.645833,Triplet,C#3
5027,Left,1,42,80,1062.666667,0.645833,Triplet,F#2
5028,Left,1,54,80,1063.0,0.645833,Triplet,F#3
5029,Left,1,49,79,1063.333333,0.645833,Triplet,C#3
5030,Left,1,54,79,1063.666667,0.645833,Triplet,F#3
5031,Left,1,42,79,1064.0,0.645833,Triplet,F#2
5032,Left,1,49,79,1064.333333,0.625,Triplet,C#3
5033,Left,1,42,78,1064.666667,0.65625,Triplet,F#2
5034,Left,1,54,78,1065.0,0.65625,Triplet,F#3
5035,Left,1,49,78,1065.333333,0.625,Triplet,C#3
5036,Left,1,54,77,1065.666667,0.635417,Triplet,F#3
5037,Left,1,49,77,1066.0,0.635417,Triplet,C#3
5038,Left,1,42,77,1066.333333,0.635417,Triplet,F#2
5039,Left,1,49,77,1066.666667,0.65625,Triplet,C#3
5043,Left,1,54,76,1067.0,0.65625,Triplet,F#3
5040,Right,0,70,76,1067.0,2.979167,DottedQuarter,F#5_C#5_A#5_A#4
5045,Left,1,49,76,1067.333333,0.65625,Triplet,C#3
5046,Left,1,54,76,1067.666667,0.625,Triplet,F#3
5047,Left,1,37,75,1068.0,0.635417,Triplet,C#2
5048,Left,1,42,75,1068.333333,0.625,Triplet,F#2
5049,Left,1,37,75,1068.666667,0.635417,Triplet,C#2
5050,Left,1,49,75,1069.0,0.65625,Triplet,C#3
5051,Left,1,42,74,1069.333333,0.645833,Triplet,F#2
5052,Left,1,49,74,1069.666667,0.625,Triplet,C#3
5053,Right,0,82,74,1070.0,2.979167,DottedQuarter,F#6_F#5_A#5
5055,Left,1,37,74,1070.0,0.635417,Triplet,C#2
5057,Left,1,42,73,1070.333333,0.645833,Triplet,F#2
5058,Left,1,37,73,1070.666667,0.635417,Triplet,C#2
5059,Left,1,49,73,1071.0,0.645833,Triplet,C#3
5060,Left,1,42,73,1071.333333,0.625,Triplet,F#2
5061,Left,1,49,72,1071.666667,0.635417,Triplet,C#3
5062,Left,1,37,72,1072.0,0.645833,Triplet,C#2
5063,Left,1,42,72,1072.333333,0.645833,Triplet,F#2
5064,Left,1,37,71,1072.666667,0.635417,Triplet,C#2
5065,Right,0,90,71,1073.0,1.979167,Quarter,F#6_F#5_A#5
5067,Left,1,49,71,1073.0,0.625,Triplet,C#3
5069,Left,1,42,71,1073.333333,0.625,Triplet,F#2
5070,Left,1,49,71,1073.666667,0.635417,Triplet,C#3
5071,Left,1,42,70,1074.0,0.635417,Triplet,F#2
5072,Left,1,37,70,1074.333333,0.635417,Triplet,C#2
5073,Left,1,42,70,1074.666667,0.635417,Triplet,F#2
5075,Right,0,85,70,1075.0,3.979167,Half,C#6_A#6_A#5
5074,Left,1,30,70,1075.0,0.645833,Triplet,F#1
5078,Left,1,37,70,1075.333333,0.635417,Triplet,C#2
5079,Left,1,30,70,1075.666667,0.635417,Triplet,F#1
5080,Left,1,42,70,1076.0,0.65625,Triplet,F#2
5081,Left,1,37,70,1076.333333,0.65625,Triplet,C#2
5082,Left,1,42,70,1076.666667,0.625,Triplet,F#2
5083,Left,1,30,70,1077.0,0.625,Triplet,F#1
5084,Left,1,37,70,1077.333333,0.635417,Triplet,C#2
5085,Left,1,30,70,1077.666667,0.635417,Triplet,F#1
5086,Left,1,42,70,1078.0,0.65625,Triplet,F#2
5087,Left,1,37,70,1078.333333,0.645833,Triplet,C#2
5088,Left,1,42,70,1078.666667,0.645833,Triplet,F#2
5090,Left,1,37,70,1079.0,0.645833,Triplet,C#2
5089,Right,0,73,70,1079.0,0.979167,Eighth,C#5
5091,Left,1,42,70,1079.333333,0.65625,Triplet,F#2
5092,Left,1,37,70,1079.666667,0.322917,TripletSixteenth,C#2
5093,Right,0,73,70,1080.0,1.979167,Quarter,C#5
5094,Left,1,49,70,1080.0,0.979167,Eighth,C#3
5095,Left,1,61,70,1081.0,0.979167,Eighth,C#4
5097,Left,1,57,70,1082.0,0.979167,Eighth,A3
5096,Right,0,69,70,1082.0,0.979167,Eighth,A4
5098,Right,0,69,70,1083.0,0.979167,Eighth,A4
5099,Left,1,57,70,1083.0,0.979167,Eighth,A3
5101,Right,0,66,70,1084.0,0.979167,Eighth,F#4
5100,Left,1,54,70,1084.0,0.979167,Eighth,F#3
5102,Left,1,56,70,1085.0,0.979167,Eighth,G#3_F3_C#3
5104,Right,0,68,70,1085.0,0.979167,Eighth,G#4_F4_C#4
5109,Left,1,54,70,1086.0,0.979167,Eighth,F#3_A3
5108,Right,0,66,70,1086.0,1.979167,Quarter,F#4_C#4_A4
5113,Left,1,54,70,1087.0,2.979167,DottedQuarter,F#3_F#2
5115,Right,0,66,70,1088.0,0.979167,Eighth,F#4_C#4_A#4_A#3
5119,Right,0,66,70,1089.0,1.979167,Quarter,F#4_D4_B4_B3
5123,Left,1,35,70,1090.0,0.979167,Eighth,B2_B1
5126,Left,1,30,70,1091.0,0.979167,Eighth,F#2_F#1
5125,Right,0,66,70,1091.0,0.979167,Eighth,F#4_C#5_C#4_A#4
5131,Right,0,66,70,1092.0,0.979167,Eighth,F#4_D5_D4_B4
5134,Left,1,35,70,1092.0,0.979167,Eighth,B1
5136,Left,1,29,70,1093.0,1.979167,Quarter,F2_F1
5138,Right,0,74,70,1093.0,1.979167,Quarter,G#4_D5_D4_B4
5142,Right,0,74,70,1095.0,1.979167,Quarter,G#4_D5_D4_B4
5146,Left,1,29,70,1095.0,1.979167,Quarter,F2_F1
5150,Left,1,29,70,1097.0,0.479167,Sixteenth,F2_F1
5148,Right,0,68,70,1097.0,0.479167,Sixteenth,G#4_D5_D4_B4
5157,Left,1,30,70,1097.5,0.479167,Sixteenth,F#2_F#1
5154,Right,0,73,70,1097.5,0.479167,Sixteenth,C#5_C#4_A#4
5159,Left,1,42,70,1098.0,2.979167,DottedQuarter,F#2_F#1
5161,Right,0,70,70,1098.0,5.979167,DottedHalf,C#5_C#4_A#4
5164,Left,1,58,70,1101.0,5.979167,DottedHalf,F#2_C#3_A#3
5167,Right,0,78,70,1104.0,5.979167,DottedHalf,F#5_C#6_A#4
5170,Left,1,30,70,1107.0,5.979167,DottedHalf,F#1_C#2_A#2
5173,Right,0,85,70,1110.0,2.979167,DottedQuarter,F#5_C#6_A#4
5176,Right,0,73,70,1113.0,2.979167,DottedQuarter,F#4_C#5_A#3
5179,Left,1,46,70,1113.0,2.979167,DottedQuarter,F#1_C#2_A#2
5182,Left,1,30,60,1116.0,6.979167,DottedHalf,F#1
5183,Left,1,37,60,1116.5,6.479167,DottedHalf,C#2
5184,Left,1,46,60,1117.0,5.979167,DottedHalf,A#2
5185,Right,0,58,60,1117.5,5.479167,DottedHalf,A#3
5186,Right,0,66,60,1118.0,4.979167,Half,F#4
5187,Right,0,73,60,1118.5,4.479167,Half,C#5
