,hand,channel,note,velocity,start_beat,duration,note_value,chord
0,Left,1,41,80,0.0,0.072917,TripletThirtySecond,F2
1,Left,1,53,80,0.083333,0.072917,TripletThirtySecond,F3
2,Left,1,53,80,0.166667,0.072917,TripletThirtySecond,F3
3,Right,0,65,80,0.25,0.072917,TripletThirtySecond,F4
4,Right,0,65,80,0.333333,0.072917,TripletThirtySecond,F4
5,Right,0,77,80,0.416667,0.072917,TripletThirtySecond,F5
6,Right,0,77,80,0.5,0.072917,TripletThirtySecond,F5
7,Right,0,89,80,0.583333,0.65625,DottedEighth,F6
8,Left,1,41,80,0.666667,0.822917,DottedEighth,F2_F1
10,Right,0,77,80,1.375,0.489583,Eighth,F6_F5
12,Left,1,41,80,1.875,0.489583,Eighth,F3_F2
14,Right,0,85,80,2.895833,0.489583,Eighth,G#5_F6_F5_C#6
18,Left,1,49,80,3.75,0.489583,Eighth,C#3_C#2
20,Right,0,77,80,4.520833,0.489583,Eighth,F6_F5_C#6_A#5
24,Left,1,46,80,5.291667,0.489583,Eighth,A#2_A#1
26,Right,0,85,80,6.0,0.989583,Quarter,F#6_F#5_C#6_A#5
30,Left,1,42,80,7.0,0.489583,Eighth,F#2_F#1
32,Right,0,73,80,7.625,0.114583,ThirtySecond,C#5
33,Right,0,78,80,7.75,0.114583,ThirtySecond,F#5
34,Right,0,73,80,7.875,0.114583,ThirtySecond,C#5
35,Right,0,78,80,8.0,0.114583,ThirtySecond,F#5
36,Right,0,73,80,8.125,0.114583,ThirtySecond,C#5
37,Right,0,78,80,8.25,0.114583,ThirtySecond,F#5
38,Right,0,70,80,8.375,0.114583,ThirtySecond,A#4
39,Right,0,75,80,8.5,0.989583,Quarter,D#5
40,Right,0,66,80,8.625,0.114583,ThirtySecond,F#4
41,Right,0,71,80,8.75,0.114583,ThirtySecond,B4
42,Right,0,66,80,8.875,0.114583,ThirtySecond,F#4
43,Right,0,71,80,9.0,0.114583,ThirtySecond,B4
44,Right,0,66,80,9.125,0.114583,ThirtySecond,F#4
45,Right,0,71,80,9.25,0.114583,ThirtySecond,B4
46,Right,0,63,80,9.375,0.114583,ThirtySecond,D#4
47,Right,0,75,80,9.5,0.239583,Sixteenth,F4_D#5
49,Left,1,53,80,9.625,0.114583,ThirtySecond,F3
50,Right,0,68,80,9.625,0.114583,ThirtySecond,G#4
51,Left,1,56,80,9.75,0.114583,ThirtySecond,G#3
52,Right,0,73,80,9.75,0.489583,Eighth,F4_C#5
54,Right,0,68,80,9.875,0.114583,ThirtySecond,G#4
55,Left,1,53,80,9.875,0.114583,ThirtySecond,F3
56,Left,1,56,80,10.0,0.114583,ThirtySecond,G#3
57,Right,0,65,80,10.0,0.114583,ThirtySecond,F4
58,Left,1,53,80,10.125,0.114583,ThirtySecond,F3
59,Right,0,68,80,10.125,0.114583,ThirtySecond,G#4
60,Left,1,56,80,10.25,0.114583,ThirtySecond,G#3
61,Right,0,71,80,10.25,0.239583,Sixteenth,F4_B4
63,Left,1,49,80,10.375,0.114583,ThirtySecond,C#3
64,Right,0,68,80,10.375,0.114583,ThirtySecond,G#4
66,Right,0,66,80,10.5,0.239583,Sixteenth,F#4_A#4
65,Left,1,54,80,10.5,0.239583,Sixteenth,F#3
68,Right,0,69,80,10.75,0.239583,Sixteenth,F#4_D#5_A4
71,Left,1,48,80,10.75,0.239583,Sixteenth,C3
72,Right,0,68,80,11.0,0.864583,DottedEighth,G#4_F4
74,Left,1,49,80,11.0,0.239583,Sixteenth,C#3
75,Left,1,42,80,11.25,0.239583,Sixteenth,F#2
76,Right,0,70,80,11.875,0.114583,ThirtySecond,F#4_A#4
78,Right,0,82,80,12.0,0.239583,Sixteenth,F#5_C#5_A#5_A#4
82,Left,1,54,80,12.25,0.239583,Sixteenth,F#3_F#2
84,Right,0,82,80,12.75,0.489583,Eighth,F#5_C#5_A#5_A#4
88,Left,1,39,80,13.0,0.239583,Sixteenth,D#3_D#2
90,Right,0,78,80,13.5,0.489583,Eighth,F#5_D#6_D#5
93,Left,1,35,80,13.75,0.239583,Sixteenth,B2_B1
95,Left,1,54,80,14.125,0.114583,ThirtySecond,F#3
96,Left,1,56,80,14.25,0.114583,ThirtySecond,G#3
97,Left,1,58,80,14.375,0.114583,ThirtySecond,A#3
98,Left,1,59,80,14.5,0.114583,ThirtySecond,B3
99,Left,1,61,80,14.625,0.114583,ThirtySecond,C#4
100,Left,1,63,80,14.75,0.114583,ThirtySecond,D#4
101,Left,1,64,80,14.875,0.114583,ThirtySecond,E4
102,Left,1,63,80,15.0,0.114583,ThirtySecond,D#4
104,Left,1,59,80,15.125,0.114583,ThirtySecond,B3
103,Right,0,66,80,15.125,0.114583,ThirtySecond,F#4
105,Left,1,66,80,15.25,0.114583,ThirtySecond,F#4
106,Right,0,68,80,15.25,0.114583,ThirtySecond,G#4
107,Right,0,70,80,15.375,0.114583,ThirtySecond,A#4
108,Left,1,64,80,15.375,0.114583,ThirtySecond,E4
109,Right,0,71,80,15.5,0.114583,ThirtySecond,B4
110,Left,1,63,80,15.5,0.114583,ThirtySecond,D#4
111,Right,0,73,80,15.625,0.114583,ThirtySecond,C#5
112,Left,1,61,80,15.625,0.114583,ThirtySecond,C#4
114,Left,1,59,80,15.75,0.114583,ThirtySecond,B3
113,Right,0,75,80,15.75,0.114583,ThirtySecond,D#5
115,Right,0,76,80,15.875,0.114583,ThirtySecond,E5
116,Left,1,58,80,15.875,0.114583,ThirtySecond,A#3
118,Right,0,75,80,16.0,0.114583,ThirtySecond,D#5
117,Left,1,59,80,16.0,0.114583,ThirtySecond,B3
120,Right,0,71,80,16.125,0.114583,ThirtySecond,B4
119,Left,1,54,80,16.125,0.114583,ThirtySecond,F#3
122,Right,0,78,80,16.25,0.114583,ThirtySecond,F#5
121,Left,1,56,80,16.25,0.114583,ThirtySecond,G#3
124,Left,1,58,80,16.375,0.114583,ThirtySecond,A#3
123,Right,0,76,80,16.375,0.114583,ThirtySecond,E5
126,Left,1,59,80,16.5,0.114583,ThirtySecond,B3
125,Right,0,75,80,16.5,0.114583,ThirtySecond,D#5
128,Left,1,61,80,16.625,0.114583,ThirtySecond,C#4
127,Right,0,73,80,16.625,0.114583,ThirtySecond,C#5
129,Left,1,63,80,16.75,0.114583,ThirtySecond,D#4
130,Right,0,71,80,16.75,0.114583,ThirtySecond,B4
131,Left,1,64,80,16.875,0.114583,ThirtySecond,E4
132,Right,0,70,80,16.875,0.114583,ThirtySecond,A#4
133,Left,1,63,80,17.0,0.114583,ThirtySecond,D#4
134,Right,0,71,80,17.0,0.114583,ThirtySecond,B4
136,Right,0,78,80,17.125,0.114583,ThirtySecond,F#5
135,Left,1,75,80,17.125,0.114583,ThirtySecond,D#5
138,Left,1,78,80,17.25,0.114583,ThirtySecond,F#5
137,Right,0,80,80,17.25,0.114583,ThirtySecond,G#5
140,Left,1,76,80,17.375,0.114583,ThirtySecond,E5
139,Right,0,82,80,17.375,0.114583,ThirtySecond,A#5
141,Right,0,83,80,17.5,0.114583,ThirtySecond,B5
142,Left,1,75,80,17.5,0.114583,ThirtySecond,D#5
144,Right,0,85,80,17.625,0.114583,ThirtySecond,C#6
143,Left,1,73,80,17.625,0.114583,ThirtySecond,C#5
145,Right,0,87,80,17.75,0.114583,ThirtySecond,D#6
146,Left,1,71,80,17.75,0.114583,ThirtySecond,B4
148,Right,0,88,80,17.875,0.114583,ThirtySecond,E6
147,Left,1,70,80,17.875,0.114583,ThirtySecond,A#4
149,Right,0,87,80,18.0,0.114583,ThirtySecond,D#6
150,Left,1,71,80,18.0,0.114583,ThirtySecond,B4
151,Right,0,85,80,18.125,0.114583,ThirtySecond,C#6
152,Left,1,70,80,18.125,0.114583,ThirtySecond,A#4
153,Left,1,75,80,18.25,0.114583,ThirtySecond,D#5
154,Right,0,83,80,18.25,0.114583,ThirtySecond,B5
155,Left,1,73,80,18.375,0.114583,ThirtySecond,C#5
156,Right,0,82,80,18.375,0.114583,ThirtySecond,A#5
157,Left,1,71,80,18.5,0.114583,ThirtySecond,B4
158,Right,0,80,80,18.5,0.114583,ThirtySecond,G#5
159,Right,0,78,80,18.625,0.114583,ThirtySecond,F#5
160,Left,1,70,80,18.625,0.114583,ThirtySecond,A#4
162,Right,0,76,80,18.75,0.114583,ThirtySecond,E5
161,Left,1,68,80,18.75,0.114583,ThirtySecond,G#4
164,Right,0,75,80,18.875,0.114583,ThirtySecond,D#5
163,Left,1,66,80,18.875,0.114583,ThirtySecond,F#4
165,Right,0,73,80,19.0,0.114583,ThirtySecond,C#5
166,Left,1,64,80,19.0,0.114583,ThirtySecond,E4
168,Right,0,71,80,19.125,0.114583,ThirtySecond,B4
167,Left,1,63,80,19.125,0.114583,ThirtySecond,D#4
170,Left,1,61,80,19.25,0.114583,ThirtySecond,C#4
169,Right,0,70,80,19.25,0.114583,ThirtySecond,A#4
172,Left,1,59,80,19.375,0.114583,ThirtySecond,B3
171,Right,0,68,80,19.375,0.114583,ThirtySecond,G#4
174,Right,0,66,80,19.5,0.114583,ThirtySecond,F#4
173,Left,1,58,80,19.5,0.114583,ThirtySecond,A#3
175,Left,1,61,80,19.625,0.114583,ThirtySecond,C#4
176,Right,0,76,80,19.625,0.114583,ThirtySecond,E5
177,Left,1,59,80,19.75,0.114583,ThirtySecond,B3
178,Right,0,75,80,19.75,0.114583,ThirtySecond,D#5
179,Left,1,64,80,19.875,0.114583,ThirtySecond,E4
180,Right,0,80,80,19.875,0.114583,ThirtySecond,G#5
181,Left,1,63,80,20.0,0.114583,ThirtySecond,D#4
182,Right,0,78,80,20.0,0.114583,ThirtySecond,F#5
183,Left,1,63,80,20.125,0.114583,ThirtySecond,D#4
184,Right,0,83,80,20.125,0.114583,ThirtySecond,B5
185,Left,1,61,80,20.25,0.114583,ThirtySecond,C#4
186,Right,0,82,80,20.25,0.114583,ThirtySecond,A#5
187,Right,0,88,80,20.375,0.114583,ThirtySecond,E6
188,Left,1,54,80,20.375,0.114583,ThirtySecond,F#3
192,Right,0,82,80,20.5,0.489583,Eighth,E6_E5_A#5
189,Left,1,54,80,20.5,0.489583,Eighth,F#4_F#3_C#4
195,Right,0,87,80,20.875,0.239583,Sixteenth,F#5_D#6_D#5_B5
199,Left,1,35,80,21.3125,0.489583,Eighth,B2_B1
201,Right,0,75,80,21.75,0.239583,Sixteenth,D#6_D#5_B5
204,Left,1,44,110,22.0,0.489583,Eighth,G#2_G#1
205,Right,0,87,110,22.0,0.489583,Eighth,D#6
207,Right,0,75,80,22.25,0.239583,Sixteenth,D#5
208,Right,0,68,80,22.5,0.239583,Sixteenth,G#4
209,Right,0,75,80,22.75,0.239583,Sixteenth,D#5
210,Right,0,76,80,23.0,0.239583,Sixteenth,E5
211,Right,0,75,80,23.25,0.239583,Sixteenth,D#5
212,Right,0,68,80,23.5,0.239583,Sixteenth,G#4
213,Right,0,75,80,23.75,0.239583,Sixteenth,D#5
214,Right,0,76,80,24.0,2.239583,Half,E5
215,Left,1,68,80,24.25,0.239583,Sixteenth,G#4
216,Left,1,61,80,24.5,0.239583,Sixteenth,C#4
217,Left,1,68,80,24.75,0.239583,Sixteenth,G#4
218,Left,1,70,80,25.0,0.239583,Sixteenth,A#4
219,Left,1,68,80,25.25,0.239583,Sixteenth,G#4
220,Left,1,61,80,25.5,0.239583,Sixteenth,C#4
221,Left,1,68,80,25.75,0.239583,Sixteenth,G#4
222,Left,1,67,80,26.0,1.489583,DottedQuarter,G4
223,Right,0,70,80,26.25,0.239583,Sixteenth,A#4
224,Right,0,75,80,26.5,0.239583,Sixteenth,D#5
225,Right,0,74,80,26.75,0.239583,Sixteenth,D5
226,Right,0,75,80,27.0,0.239583,Sixteenth,D#5
227,Right,0,70,80,27.25,0.239583,Sixteenth,A#4
228,Right,0,75,80,27.5,0.239583,Sixteenth,D#5
229,Left,1,66,80,27.5,0.989583,Quarter,F#4
230,Right,0,73,80,27.75,0.239583,Sixteenth,C#5
231,Right,0,72,80,28.0,0.239583,Sixteenth,C5
232,Right,0,75,80,28.25,0.239583,Sixteenth,D#5
234,Left,1,66,80,28.5,0.489583,Eighth,F#4
233,Right,0,72,80,28.5,0.239583,Sixteenth,C5
235,Right,0,80,80,28.75,0.239583,Sixteenth,G#5
237,Right,0,73,80,29.0,0.239583,Sixteenth,C#5
236,Left,1,64,80,29.0,0.489583,Eighth,E4
238,Right,0,80,80,29.25,0.239583,Sixteenth,G#5
240,Left,1,63,80,29.5,0.489583,Eighth,D#4
239,Right,0,75,80,29.5,0.239583,Sixteenth,D#5
241,Right,0,80,80,29.75,0.239583,Sixteenth,G#5
243,Left,1,61,80,30.0,0.239583,Sixteenth,C#4
242,Right,0,76,80,30.0,0.989583,Quarter,E5
244,Left,1,56,80,30.25,0.239583,Sixteenth,G#3
245,Left,1,51,80,30.5,0.239583,Sixteenth,D#3
246,Left,1,56,80,30.75,0.239583,Sixteenth,G#3
248,Left,1,57,80,31.0,0.239583,Sixteenth,A3
247,Right,0,64,80,31.0,1.239583,TiedQuarter-Sixteenth,E4
249,Left,1,56,80,31.25,0.239583,Sixteenth,G#3
250,Left,1,49,80,31.5,0.239583,Sixteenth,C#3
251,Left,1,56,80,31.75,0.239583,Sixteenth,G#3
252,Left,1,57,80,32.0,1.489583,DottedQuarter,A3
253,Right,0,61,80,32.25,0.239583,Sixteenth,C#4
254,Right,0,66,80,32.5,0.239583,Sixteenth,F#4
255,Right,0,65,80,32.75,0.239583,Sixteenth,F4
256,Right,0,66,80,33.0,0.239583,Sixteenth,F#4
257,Right,0,61,80,33.25,0.239583,Sixteenth,C#4
258,Right,0,66,80,33.5,0.239583,Sixteenth,F#4
259,Left,1,56,80,33.5,0.489583,Eighth,G#3
260,Right,0,64,80,33.75,0.239583,Sixteenth,E4
262,Left,1,55,80,34.0,1.989583,Half,G3_A#3
261,Right,0,63,80,34.0,0.489583,Eighth,D#4
264,Left,1,61,80,34.25,0.239583,Sixteenth,C#4
265,Left,1,58,80,34.5,0.239583,Sixteenth,A#3
266,Right,0,75,80,34.5,0.989583,Quarter,D#5
267,Left,1,63,80,34.75,0.239583,Sixteenth,D#4
268,Left,1,64,80,35.0,0.239583,Sixteenth,E4
269,Left,1,63,80,35.25,0.239583,Sixteenth,D#4
271,Left,1,58,80,35.5,0.239583,Sixteenth,A#3
270,Right,0,73,80,35.5,0.489583,Eighth,C#5
272,Left,1,63,80,35.75,0.239583,Sixteenth,D#4
273,Left,1,56,80,36.0,0.239583,Sixteenth,G#3
274,Right,0,71,80,36.0,0.239583,Sixteenth,B4
276,Right,0,75,81,36.25,0.239583,Sixteenth,D#5
275,Left,1,59,81,36.25,0.239583,Sixteenth,B3
277,Left,1,56,83,36.5,0.239583,Sixteenth,G#3
278,Right,0,71,83,36.5,0.239583,Sixteenth,B4
280,Left,1,59,84,36.75,0.239583,Sixteenth,B3
279,Right,0,75,84,36.75,0.239583,Sixteenth,D#5
281,Left,1,61,86,37.0,0.239583,Sixteenth,C#4
282,Right,0,83,86,37.0,1.239583,TiedQuarter-Sixteenth,E5_B5
285,Right,0,75,87,37.25,0.239583,Sixteenth,D#5
284,Left,1,59,87,37.25,0.239583,Sixteenth,B3
287,Left,1,47,89,37.5,0.489583,Eighth,G#3_B2
286,Right,0,71,89,37.5,0.239583,Sixteenth,B4
290,Right,0,75,91,37.75,0.239583,Sixteenth,D#5
289,Left,1,59,91,37.75,0.239583,Sixteenth,B3
291,Left,1,52,92,38.0,1.489583,Eighth,E3_C#3
292,Right,0,76,92,38.0,0.989583,Quarter,E5
294,Right,0,80,94,38.25,0.239583,Sixteenth,G#5
295,Left,1,61,95,38.5,0.989583,Quarter,C#4
296,Right,0,81,95,38.5,0.239583,Sixteenth,A5
297,Right,0,85,97,38.75,0.239583,Sixteenth,C#6
298,Right,0,76,98,39.0,0.489583,Sixteenth,E5_A4
300,Right,0,81,100,39.25,0.239583,Sixteenth,A5
302,Right,0,75,102,39.5,0.489583,Sixteenth,D#5_B4
301,Left,1,51,102,39.5,0.489583,Eighth,D#3_B3
305,Right,0,80,103,39.75,0.239583,Sixteenth,G#5
306,Right,0,75,105,40.0,0.489583,Sixteenth,D#5_B4
308,Left,1,59,105,40.0,1.489583,Eighth,D#3_B3
310,Right,0,80,106,40.25,0.239583,Sixteenth,G#5
311,Right,0,75,108,40.5,0.489583,Sixteenth,D#5_C#5
313,Left,1,58,108,40.5,0.489583,Eighth,A#3
314,Right,0,79,109,40.75,0.239583,Sixteenth,G5
317,Left,1,56,110,41.0,0.489583,Eighth,G#3
315,Right,0,71,110,41.0,0.489583,Eighth,D#5_B4
318,Right,0,80,110,41.25,0.239583,Sixteenth,G#5
319,Right,0,70,110,41.5,0.489583,Eighth,D#5_A#4
321,Left,1,55,110,41.5,0.489583,Eighth,G3_D#3
323,Right,0,82,110,41.75,0.239583,Sixteenth,A#5
324,Right,0,80,81,42.25,0.989583,Quarter,G#5_D#5_B5_B4
328,Left,1,56,82,42.5,0.739583,DottedEighth,G#3_G#2
330,Right,0,76,86,43.25,0.989583,Quarter,G#5_E5_B5_B4
334,Left,1,40,87,43.5,0.739583,DottedEighth,E3_E2
336,Right,0,76,91,44.25,0.989583,Quarter,G#5_E5_C#6_C#5
340,Left,1,37,92,44.5,0.739583,DottedEighth,C#3_C#2
342,Right,0,85,96,45.25,0.989583,Quarter,E5_C#6_C#5_A5
346,Left,1,33,81,46.083333,0.09375,TripletThirtySecond,A1
347,Left,1,45,84,46.1875,0.052083,SixtyFourth,A2
348,Left,1,45,85,46.25,0.072917,TripletThirtySecond,A2
349,Left,1,57,87,46.333333,0.072917,TripletThirtySecond,A3
350,Left,1,57,89,46.416667,0.072917,TripletThirtySecond,A3
351,Right,0,69,91,46.5,0.072917,TripletThirtySecond,A4
352,Right,0,69,93,46.583333,0.072917,TripletThirtySecond,A4
353,Right,0,81,95,46.666667,0.072917,TripletThirtySecond,A5
354,Right,0,81,97,46.75,0.239583,Sixteenth,A5
355,Right,0,81,103,47.0,0.989583,Quarter,A6_A5
357,Left,1,45,109,47.25,0.239583,Sixteenth,A2_A1
359,Left,1,33,110,47.5,6.489583,Unknown,E2_D2_B2_A1
363,Right,0,92,110,48.0,0.489583,Eighth,G#6_G#5
365,Right,0,76,110,48.5,0.489583,Eighth,E6_E5
367,Right,0,75,110,49.0,0.322917,Triplet,D#6_D#5
369,Right,0,86,110,49.333333,0.322917,Triplet,D6_D5
371,Right,0,71,110,49.666667,0.322917,Triplet,B5_B4
373,Right,0,80,110,50.0,0.458333,Eighth,G#5
374,Right,0,76,110,50.166667,0.458333,Eighth,E5
375,Right,0,75,109,50.333333,0.458333,Eighth,D#5
376,Right,0,74,108,50.5,0.458333,Eighth,D5
377,Right,0,71,107,50.666667,0.458333,Eighth,B4
378,Right,0,68,106,50.833333,0.458333,Eighth,G#4
379,Right,0,64,105,51.0,0.458333,Eighth,E4
380,Right,0,63,105,51.166667,0.458333,Eighth,D#4
381,Right,0,62,104,51.333333,0.458333,Eighth,D4
382,Right,0,59,103,51.5,0.3125,Triplet,B3
383,Right,0,56,102,51.625,0.3125,Triplet,G#3
384,Right,0,52,102,51.75,0.3125,Triplet,E3
385,Right,0,51,101,51.875,0.3125,Triplet,D#3
386,Right,0,50,100,52.0,0.114583,ThirtySecond,D3
387,Right,0,52,100,52.0625,0.114583,ThirtySecond,E3
388,Right,0,50,100,52.125,0.114583,ThirtySecond,D3
389,Right,0,52,99,52.1875,0.114583,ThirtySecond,E3
390,Right,0,50,99,52.25,0.114583,ThirtySecond,D3
391,Right,0,52,99,52.3125,0.114583,ThirtySecond,E3
392,Right,0,50,99,52.375,0.114583,ThirtySecond,D3
393,Right,0,52,98,52.4375,0.114583,ThirtySecond,E3
394,Right,0,50,98,52.5,0.114583,ThirtySecond,D3
395,Right,0,52,98,52.5625,0.114583,ThirtySecond,E3
396,Right,0,50,97,52.625,0.114583,ThirtySecond,D3
397,Right,0,52,97,52.6875,0.114583,ThirtySecond,E3
398,Right,0,50,97,52.75,0.114583,ThirtySecond,D3
399,Right,0,52,96,52.8125,0.114583,ThirtySecond,E3
400,Right,0,50,96,52.875,0.114583,ThirtySecond,D3
401,Right,0,52,96,52.9375,0.114583,ThirtySecond,E3
402,Right,0,51,95,53.0,0.114583,ThirtySecond,D#3
403,Right,0,52,95,53.0625,0.114583,ThirtySecond,E3
404,Right,0,51,95,53.125,0.114583,ThirtySecond,D#3
405,Right,0,52,94,53.1875,0.114583,ThirtySecond,E3
406,Right,0,51,94,53.25,0.114583,ThirtySecond,D#3
407,Right,0,52,94,53.3125,0.114583,ThirtySecond,E3
408,Right,0,51,93,53.375,0.114583,ThirtySecond,D#3
409,Right,0,52,93,53.4375,0.114583,ThirtySecond,E3
410,Right,0,51,93,53.5,0.114583,ThirtySecond,D#3
411,Right,0,52,93,53.5625,0.114583,ThirtySecond,E3
412,Right,0,51,92,53.625,0.114583,ThirtySecond,D#3
413,Right,0,52,92,53.6875,0.114583,ThirtySecond,E3
414,Right,0,51,92,53.75,0.114583,ThirtySecond,D#3
415,Right,0,52,91,53.8125,0.114583,ThirtySecond,E3
416,Right,0,51,91,53.875,0.114583,ThirtySecond,D#3
417,Right,0,52,90,54.0,0.052083,SixtyFourth,E3
418,Right,0,54,90,54.0625,0.114583,ThirtySecond,F#3
419,Right,0,52,90,54.125,0.114583,ThirtySecond,E3
420,Right,0,54,89,54.1875,0.114583,ThirtySecond,F#3
421,Right,0,52,89,54.25,0.114583,ThirtySecond,E3
422,Right,0,54,89,54.3125,0.114583,ThirtySecond,F#3
423,Right,0,52,88,54.375,0.114583,ThirtySecond,E3
424,Right,0,54,88,54.4375,0.114583,ThirtySecond,F#3
425,Right,0,52,88,54.5,0.114583,ThirtySecond,E3
426,Right,0,54,87,54.5625,0.114583,ThirtySecond,F#3
427,Right,0,52,87,54.625,0.114583,ThirtySecond,E3
428,Right,0,54,87,54.6875,0.114583,ThirtySecond,F#3
429,Right,0,52,87,54.75,0.114583,ThirtySecond,E3
430,Right,0,54,86,54.8125,0.114583,ThirtySecond,F#3
431,Right,0,52,86,54.875,0.114583,ThirtySecond,E3
432,Right,0,54,86,54.9375,0.114583,ThirtySecond,F#3
433,Right,0,52,85,55.0,0.114583,ThirtySecond,E3
434,Right,0,54,85,55.0625,0.114583,ThirtySecond,F#3
435,Right,0,52,85,55.125,0.114583,ThirtySecond,E3
436,Right,0,54,84,55.1875,0.114583,ThirtySecond,F#3
437,Right,0,52,84,55.25,0.114583,ThirtySecond,E3
438,Right,0,54,84,55.3125,0.114583,ThirtySecond,F#3
439,Right,0,52,83,55.375,0.114583,ThirtySecond,E3
440,Right,0,54,83,55.4375,0.114583,ThirtySecond,F#3
441,Right,0,52,83,55.5,0.114583,ThirtySecond,E3
442,Right,0,54,82,55.5625,0.114583,ThirtySecond,F#3
443,Right,0,52,82,55.625,0.114583,ThirtySecond,E3
444,Right,0,54,82,55.6875,0.114583,ThirtySecond,F#3
445,Right,0,52,81,55.75,0.114583,ThirtySecond,E3
446,Right,0,54,81,55.8125,0.114583,ThirtySecond,F#3
447,Right,0,51,81,55.875,0.114583,ThirtySecond,D#3
448,Right,0,52,81,55.9375,0.052083,SixtyFourth,E3
449,Right,0,52,80,56.0,0.489583,Eighth,E3_C#3
451,Left,1,45,80,56.25,0.239583,Sixteenth,A2_A1
453,Right,0,52,80,56.5,0.239583,Sixteenth,E3_C#3
455,Left,1,45,80,56.666667,0.114583,ThirtySecond,A2_A1
457,Right,0,52,80,56.75,0.239583,Sixteenth,E3_C#3
459,Right,0,49,80,57.0,0.489583,Eighth,E3_C#3
461,Left,1,45,80,57.25,0.239583,Sixteenth,A2_A1
463,Right,0,49,80,57.5,0.239583,Sixteenth,C#3_A3
465,Left,1,30,80,57.666667,0.114583,ThirtySecond,F#2_F#1
467,Right,0,49,80,57.75,0.239583,Sixteenth,F#3_C#3_A3
470,Right,0,57,80,58.0,0.489583,Eighth,F#3_A3
472,Left,1,50,80,58.25,0.239583,Sixteenth,D3_D2
474,Right,0,54,80,58.5,0.239583,Sixteenth,F#3_A3
476,Left,1,50,80,58.666667,0.114583,ThirtySecond,D3_D2
478,Right,0,57,80,58.75,0.239583,Sixteenth,F#3_A3
480,Right,0,57,80,59.0,0.489583,Eighth,F#3_A3
482,Left,1,50,80,59.25,0.239583,Sixteenth,D3_D2
484,Right,0,54,80,59.5,0.239583,Sixteenth,F#3_D4
486,Left,1,35,80,59.666667,0.114583,ThirtySecond,B2_B1
488,Right,0,54,80,59.75,0.239583,Sixteenth,F#3_D4
490,Right,0,59,80,60.0,0.489583,Eighth,D4_B3
492,Left,1,43,81,60.25,0.239583,Sixteenth,G3_G2
494,Right,0,59,83,60.5,0.239583,Sixteenth,D4_B3
496,Left,1,55,84,60.666667,0.114583,ThirtySecond,G3_G2
498,Right,0,62,85,60.75,0.239583,Sixteenth,D4_B3
500,Right,0,59,87,61.0,0.489583,Eighth,D4_B3
502,Left,1,43,88,61.25,0.239583,Sixteenth,G3_G2
504,Right,0,67,90,61.5,0.239583,Sixteenth,G4_B3
506,Left,1,40,91,61.666667,0.114583,ThirtySecond,E3_E2
508,Right,0,67,92,61.75,0.239583,Sixteenth,G4_B3
510,Right,0,67,94,62.0,0.489583,Eighth,G4_E4
512,Left,1,60,96,62.25,0.239583,Sixteenth,C4_C3
514,Right,0,67,97,62.5,0.239583,Sixteenth,G4_E4
516,Left,1,48,98,62.666667,0.114583,ThirtySecond,C4_C3
518,Right,0,64,99,62.75,0.239583,Sixteenth,G4_E4
520,Right,0,64,101,63.0,0.489583,Eighth,E4_C5
522,Left,1,57,103,63.25,0.239583,Sixteenth,A3_A2
524,Right,0,64,104,63.5,0.239583,Sixteenth,E4_C5
526,Left,1,43,106,63.666667,0.114583,ThirtySecond,G2_A3
528,Right,0,64,106,63.75,0.239583,Sixteenth,E4_C5
530,Right,0,69,108,64.0,0.489583,Eighth,C5_A4
532,Left,1,53,110,64.25,0.239583,Sixteenth,F3_F2
534,Right,0,72,112,64.5,0.239583,Sixteenth,C5_A4
536,Left,1,41,113,64.666667,0.114583,ThirtySecond,F3_F2
538,Right,0,69,113,64.75,0.239583,Sixteenth,C5_A4
540,Right,0,77,115,65.0,0.489583,Eighth,F5_A4
542,Left,1,38,117,65.25,0.239583,Sixteenth,D3_D2
544,Right,0,69,119,65.5,0.239583,Sixteenth,F5_D5_A4
547,Left,1,38,120,65.666667,0.114583,ThirtySecond,D3_D2
549,Right,0,74,120,65.75,0.239583,Sixteenth,F5_D5_A4
552,Right,0,81,120,66.0,0.489583,Eighth,E5_C#5_A5_A4
556,Left,1,45,120,66.25,0.239583,Sixteenth,E2_C#2_A2_A1
560,Right,0,76,120,66.5,0.239583,Sixteenth,E5_C#5_A5_A4
564,Left,1,45,120,66.666667,0.114583,ThirtySecond,E2_C#2_A2_A1
568,Right,0,69,120,66.75,0.239583,Sixteenth,E5_C#5_A5_A4
572,Right,0,73,120,67.0,0.489583,Eighth,E5_C#5_A5_A4
576,Left,1,33,120,67.25,0.239583,Sixteenth,E2_C#2_A2_A1
580,Right,0,69,120,67.5,0.239583,Sixteenth,E5_C#5_A5_A4
584,Left,1,37,120,67.666667,0.114583,ThirtySecond,E2_C#2_A2_A1
588,Right,0,73,120,67.75,0.239583,Sixteenth,E5_C#5_A5_A4
592,Right,0,69,120,68.0,0.489583,Eighth,E5_C#5_A5_A4
596,Left,1,40,120,68.25,0.239583,Sixteenth,E2_C2_A2_A1
600,Right,0,81,120,68.5,0.239583,Sixteenth,A5_A4
602,Left,1,33,120,68.666667,0.114583,ThirtySecond,A2_A1
604,Right,0,81,120,68.75,0.239583,Sixteenth,A5_A4
606,Right,0,69,120,69.0,0.489583,Eighth,A5_A4
608,Left,1,33,117,69.25,0.239583,Sixteenth,A2_A1
610,Right,0,81,113,69.5,0.239583,Sixteenth,A5_A4
612,Left,1,45,111,69.666667,0.114583,ThirtySecond,A2_A1
614,Right,0,69,110,69.75,0.239583,Sixteenth,A5_A4
616,Right,0,69,106,70.0,0.489583,Eighth,A5_A4
618,Left,1,33,102,70.25,0.239583,Sixteenth,A2_A1
620,Right,0,81,99,70.5,0.239583,Sixteenth,A5_A4
622,Left,1,33,96,70.666667,0.114583,ThirtySecond,A2_A1
624,Right,0,81,95,70.75,0.239583,Sixteenth,A5_A4
626,Right,0,81,92,71.0,0.489583,Eighth,A5_A4
628,Left,1,29,88,71.25,0.239583,Sixteenth,F2_F1
630,Right,0,69,84,71.5,0.239583,Sixteenth,A5_A4
632,Left,1,41,82,71.666667,0.114583,ThirtySecond,F2_F1
634,Right,0,69,81,71.75,0.239583,Sixteenth,A5_A4
637,Left,1,41,70,72.0,0.489583,Eighth,F2_F1
636,Right,0,81,70,72.0,0.239583,Sixteenth,A5
639,Right,0,82,70,72.125,0.239583,Sixteenth,A#5
640,Right,0,81,70,72.25,0.239583,Sixteenth,A5
641,Right,0,82,70,72.375,0.239583,Sixteenth,A#5
642,Right,0,81,70,72.5,0.239583,Sixteenth,A5
643,Right,0,82,70,72.625,0.239583,Sixteenth,A#5
644,Right,0,81,70,72.75,0.239583,Sixteenth,A5
645,Right,0,82,70,72.875,0.239583,Sixteenth,A#5
646,Left,1,53,70,73.0,0.489583,Eighth,F3_A3
647,Right,0,81,70,73.0,0.239583,Sixteenth,A5
649,Right,0,82,70,73.125,0.208333,Sixteenth,A#5
650,Right,0,81,70,73.25,0.208333,Sixteenth,A5
651,Right,0,82,70,73.375,0.208333,Sixteenth,A#5
652,Right,0,81,70,73.5,0.208333,Sixteenth,A5
653,Right,0,82,70,73.625,0.208333,Sixteenth,A#5
654,Right,0,81,70,73.75,0.208333,Sixteenth,A5
655,Right,0,82,70,73.875,0.208333,Sixteenth,A#5
656,Right,0,81,70,74.0,0.208333,Sixteenth,A5
657,Right,0,82,70,74.125,0.208333,Sixteenth,A#5
658,Right,0,81,70,74.25,0.208333,Sixteenth,A5
659,Right,0,82,70,74.375,0.208333,Sixteenth,A#5
660,Right,0,81,70,74.5,0.208333,Sixteenth,A5
661,Right,0,82,70,74.625,0.208333,Sixteenth,A#5
662,Right,0,81,70,74.75,0.208333,Sixteenth,A5
663,Right,0,82,70,74.875,0.208333,Sixteenth,A#5
665,Right,0,81,70,75.0,0.208333,Sixteenth,A5
664,Left,1,29,70,75.0,0.489583,Eighth,F2_F1
667,Right,0,82,70,75.125,0.208333,Sixteenth,A#5
668,Right,0,81,70,75.25,0.208333,Sixteenth,A5
669,Right,0,82,70,75.375,0.208333,Sixteenth,A#5
670,Right,0,81,70,75.5,0.208333,Sixteenth,A5
671,Right,0,82,70,75.625,0.208333,Sixteenth,A#5
672,Right,0,81,70,75.75,0.208333,Sixteenth,A5
673,Right,0,82,70,75.875,0.208333,Sixteenth,A#5
674,Right,0,84,70,76.0,0.208333,Sixteenth,C6
675,Left,1,57,70,76.0,0.489583,Eighth,C4_A3
677,Right,0,86,70,76.125,0.208333,Sixteenth,D6
678,Right,0,84,70,76.25,0.208333,Sixteenth,C6
679,Right,0,86,70,76.375,0.208333,Sixteenth,D6
680,Right,0,84,70,76.5,0.208333,Sixteenth,C6
681,Right,0,86,70,76.625,0.208333,Sixteenth,D6
682,Right,0,84,70,76.75,0.208333,Sixteenth,C6
683,Right,0,86,70,76.875,0.208333,Sixteenth,D6
684,Right,0,84,70,77.0,0.208333,Sixteenth,C6
685,Right,0,86,70,77.125,0.208333,Sixteenth,D6
686,Right,0,84,70,77.25,0.208333,Sixteenth,C6
687,Right,0,86,70,77.375,0.208333,Sixteenth,D6
688,Right,0,84,70,77.5,0.208333,Sixteenth,C6
689,Right,0,86,70,77.625,0.208333,Sixteenth,D6
690,Right,0,84,70,77.75,0.208333,Sixteenth,C6
691,Right,0,86,70,77.875,0.208333,Sixteenth,D6
693,Left,1,41,71,78.0,0.489583,Eighth,F2_F1
692,Right,0,84,71,78.0,0.208333,Sixteenth,C6
695,Right,0,86,73,78.125,0.208333,Sixteenth,D6
696,Right,0,84,75,78.25,0.208333,Sixteenth,C6
697,Right,0,86,77,78.375,0.208333,Sixteenth,D6
698,Right,0,84,78,78.5,0.208333,Sixteenth,C6
699,Right,0,86,80,78.625,0.208333,Sixteenth,D6
700,Right,0,84,82,78.75,0.208333,Sixteenth,C6
701,Right,0,86,84,78.875,0.208333,Sixteenth,D6
702,Right,0,89,85,79.0,0.208333,Sixteenth,F6
703,Left,1,65,85,79.0,0.489583,Eighth,F4_F3_C4_A3
707,Right,0,91,87,79.125,0.208333,Sixteenth,G6
708,Right,0,89,89,79.25,0.208333,Sixteenth,F6
709,Right,0,91,91,79.375,0.208333,Sixteenth,G6
710,Right,0,89,93,79.5,0.208333,Sixteenth,F6
711,Right,0,91,94,79.625,0.208333,Sixteenth,G6
712,Right,0,89,96,79.75,0.208333,Sixteenth,F6
713,Right,0,91,98,79.875,0.208333,Sixteenth,G6
714,Left,1,29,100,80.0,0.489583,Eighth,F2_F1
715,Right,0,89,100,80.0,0.208333,Sixteenth,F6
717,Right,0,91,101,80.125,0.208333,Sixteenth,G6
718,Right,0,89,103,80.25,0.208333,Sixteenth,F6
719,Right,0,91,105,80.375,0.208333,Sixteenth,G6
720,Right,0,89,107,80.5,0.208333,Sixteenth,F6
721,Right,0,91,109,80.625,0.208333,Sixteenth,G6
722,Right,0,89,110,80.75,0.208333,Sixteenth,F6
723,Right,0,91,110,80.875,0.208333,Sixteenth,G6
724,Left,1,65,110,81.0,0.489583,Eighth,F4_F3_C4_A3
728,Right,0,89,110,81.0,0.239583,Sixteenth,F6
729,Right,0,87,110,81.25,0.239583,Sixteenth,D#6
730,Right,0,86,110,81.5,0.239583,Sixteenth,D6
731,Right,0,84,110,81.75,0.239583,Sixteenth,C6
732,Right,0,82,120,82.0,0.239583,Sixteenth,A#5
733,Left,1,41,120,82.0,1.489583,DottedQuarter,F2_F1
735,Right,0,81,120,82.25,0.239583,Sixteenth,A5
736,Right,0,79,120,82.5,0.239583,Sixteenth,G5
737,Right,0,77,120,82.75,0.239583,Sixteenth,F5
738,Right,0,75,120,83.0,0.239583,Sixteenth,D#5
739,Right,0,74,120,83.25,0.239583,Sixteenth,D5
741,Left,1,43,120,83.5,0.239583,Sixteenth,G2
740,Right,0,72,120,83.5,0.239583,Sixteenth,C5
742,Left,1,45,120,83.75,0.239583,Sixteenth,A2
743,Right,0,77,120,83.75,0.239583,Sixteenth,F5
746,Left,1,46,120,84.0,0.489583,Eighth,F2_D2_A#2_A#1
744,Right,0,62,120,84.0,0.489583,Eighth,F4_D4_A#4_A#3
752,Right,0,67,80,85.5,0.239583,Sixteenth,G4
753,Right,0,65,80,85.75,0.239583,Sixteenth,F4
754,Right,0,63,80,86.0,0.239583,Sixteenth,D#4
755,Right,0,62,80,86.25,0.239583,Sixteenth,D4
756,Right,0,60,80,86.5,0.239583,Sixteenth,C4
757,Right,0,58,80,86.75,0.239583,Sixteenth,A#3
758,Right,0,57,80,87.0,0.239583,Sixteenth,A3
759,Left,1,53,80,87.0,0.489583,Eighth,F3
760,Right,0,58,80,87.25,0.239583,Sixteenth,A#3
761,Right,0,57,80,87.5,0.239583,Sixteenth,A3
762,Right,0,55,80,87.75,0.239583,Sixteenth,G3
763,Right,0,53,80,88.0,0.239583,Sixteenth,F3
764,Left,1,69,80,88.0,0.239583,Sixteenth,A4
765,Left,1,70,80,88.125,0.239583,Sixteenth,A#4
767,Left,1,69,80,88.25,0.239583,Sixteenth,A4
766,Right,0,55,80,88.25,0.239583,Sixteenth,G3
768,Left,1,70,80,88.375,0.239583,Sixteenth,A#4
770,Left,1,69,80,88.5,0.239583,Sixteenth,A4
769,Right,0,53,80,88.5,0.239583,Sixteenth,F3
771,Left,1,70,80,88.625,0.239583,Sixteenth,A#4
772,Left,1,69,80,88.75,0.239583,Sixteenth,A4
773,Right,0,51,80,88.75,0.239583,Sixteenth,D#3
774,Left,1,70,80,88.875,0.239583,Sixteenth,A#4
775,Right,0,50,80,89.0,0.239583,Sixteenth,D3
776,Left,1,69,80,89.0,0.239583,Sixteenth,A4
777,Left,1,70,80,89.125,0.239583,Sixteenth,A#4
778,Right,0,51,80,89.25,0.239583,Sixteenth,D#3
779,Left,1,69,80,89.25,0.239583,Sixteenth,A4
780,Left,1,70,80,89.375,0.239583,Sixteenth,A#4
781,Right,0,50,80,89.5,0.239583,Sixteenth,D3
782,Left,1,69,80,89.5,0.239583,Sixteenth,A4
783,Left,1,70,80,89.625,0.239583,Sixteenth,A#4
785,Left,1,67,80,89.75,0.239583,Sixteenth,G4
784,Right,0,48,80,89.75,0.239583,Sixteenth,C3
786,Left,1,69,80,89.875,0.114583,ThirtySecond,A4
787,Right,0,46,80,90.0,0.989583,Quarter,A#2
788,Left,1,70,80,90.0,0.989583,Quarter,A#4
789,Left,1,70,80,91.5,0.239583,Sixteenth,A#4
790,Left,1,69,80,91.75,0.239583,Sixteenth,A4
791,Left,1,67,80,92.0,0.239583,Sixteenth,G4
792,Left,1,65,80,92.25,0.239583,Sixteenth,F4
793,Left,1,63,80,92.5,0.239583,Sixteenth,D#4
794,Left,1,62,80,92.75,0.239583,Sixteenth,D4
795,Left,1,67,80,93.0,0.989583,Quarter,G4
796,Left,1,67,80,94.5,0.239583,Sixteenth,G4
797,Left,1,65,80,94.75,0.239583,Sixteenth,F4
798,Left,1,63,80,95.0,0.239583,Sixteenth,D#4
799,Left,1,62,80,95.25,0.239583,Sixteenth,D4
800,Left,1,60,80,95.5,0.239583,Sixteenth,C4
801,Left,1,58,80,95.75,0.239583,Sixteenth,A#3
802,Left,1,63,80,96.0,0.989583,Quarter,D#4
803,Left,1,63,80,97.5,0.239583,Sixteenth,D#4
804,Left,1,62,80,97.75,0.239583,Sixteenth,D4
805,Left,1,60,80,98.0,0.239583,Sixteenth,C4
806,Left,1,62,80,98.25,0.239583,Sixteenth,D4
807,Left,1,60,80,98.5,0.239583,Sixteenth,C4
808,Left,1,58,80,98.75,0.239583,Sixteenth,A#3
809,Left,1,57,80,99.0,0.239583,Sixteenth,A3
810,Left,1,58,80,99.25,0.239583,Sixteenth,A#3
811,Left,1,57,80,99.5,0.239583,Sixteenth,A3
812,Left,1,55,80,99.75,0.239583,Sixteenth,G3
813,Left,1,53,80,100.0,0.239583,Sixteenth,F3
814,Left,1,55,80,100.25,0.239583,Sixteenth,G3
815,Left,1,57,80,100.5,0.239583,Sixteenth,A3
816,Left,1,58,80,100.75,0.239583,Sixteenth,A#3
817,Left,1,59,80,101.0,0.239583,Sixteenth,B3
818,Left,1,60,80,101.25,0.239583,Sixteenth,C4
819,Left,1,62,80,101.5,0.239583,Sixteenth,D4
820,Left,1,60,80,101.75,0.239583,Sixteenth,C4
821,Left,1,58,80,102.0,0.239583,Sixteenth,A#3
822,Left,1,60,80,102.25,0.239583,Sixteenth,C4
823,Left,1,62,80,102.5,0.239583,Sixteenth,D4
824,Left,1,63,80,102.75,0.239583,Sixteenth,D#4
825,Left,1,64,80,103.0,0.239583,Sixteenth,E4
826,Left,1,65,80,103.25,0.239583,Sixteenth,F4
827,Left,1,67,80,103.5,0.239583,Sixteenth,G4
828,Left,1,65,80,103.75,0.239583,Sixteenth,F4
829,Left,1,63,80,104.0,0.239583,Sixteenth,D#4
830,Left,1,62,80,104.25,0.239583,Sixteenth,D4
831,Left,1,60,80,104.5,0.239583,Sixteenth,C4
832,Left,1,58,80,104.75,0.239583,Sixteenth,A#3
833,Left,1,57,80,105.0,0.239583,Sixteenth,A3
834,Left,1,58,80,105.25,0.239583,Sixteenth,A#3
835,Left,1,57,81,105.5,0.239583,Sixteenth,A3
836,Left,1,55,81,105.75,0.239583,Sixteenth,G3
837,Left,1,53,82,106.0,0.239583,Sixteenth,F3
838,Left,1,55,83,106.25,0.239583,Sixteenth,G3
839,Left,1,57,83,106.5,0.239583,Sixteenth,A3
840,Left,1,58,84,106.75,0.239583,Sixteenth,A#3
841,Left,1,59,84,107.0,0.239583,Sixteenth,B3
842,Left,1,60,85,107.25,0.239583,Sixteenth,C4
843,Left,1,62,86,107.5,0.239583,Sixteenth,D4
844,Left,1,60,86,107.75,0.239583,Sixteenth,C4
845,Left,1,58,87,108.0,0.239583,Sixteenth,A#3
846,Left,1,60,87,108.25,0.239583,Sixteenth,C4
847,Left,1,62,88,108.5,0.239583,Sixteenth,D4
848,Left,1,63,89,108.75,0.239583,Sixteenth,D#4
849,Left,1,64,89,109.0,0.239583,Sixteenth,E4
850,Left,1,65,90,109.25,0.239583,Sixteenth,F4
851,Left,1,67,90,109.5,0.239583,Sixteenth,G4
852,Left,1,65,91,109.75,0.239583,Sixteenth,F4
853,Left,1,58,92,110.0,0.239583,Sixteenth,A#3
854,Left,1,66,92,110.25,0.239583,Sixteenth,F#4
855,Left,1,67,93,110.5,0.239583,Sixteenth,G4
856,Left,1,66,93,110.75,0.239583,Sixteenth,F#4
857,Left,1,58,94,111.0,0.239583,Sixteenth,A#3
858,Left,1,67,95,111.25,0.239583,Sixteenth,G4
859,Left,1,69,95,111.5,0.239583,Sixteenth,A4
860,Left,1,67,96,111.75,0.239583,Sixteenth,G4
861,Left,1,66,97,112.0,0.239583,Sixteenth,F#4
862,Left,1,67,97,112.25,0.239583,Sixteenth,G4
863,Left,1,69,98,112.5,0.239583,Sixteenth,A4
864,Left,1,67,98,112.75,0.239583,Sixteenth,G4
865,Left,1,64,99,113.0,0.239583,Sixteenth,E4
866,Left,1,65,100,113.25,0.239583,Sixteenth,F4
867,Left,1,67,100,113.5,0.239583,Sixteenth,G4
868,Left,1,65,101,113.75,0.239583,Sixteenth,F4
869,Left,1,64,101,114.0,0.239583,Sixteenth,E4
870,Left,1,65,102,114.25,0.239583,Sixteenth,F4
871,Left,1,67,103,114.5,0.239583,Sixteenth,G4
872,Left,1,65,103,114.75,0.239583,Sixteenth,F4
873,Left,1,62,104,115.0,0.239583,Sixteenth,D4
874,Left,1,63,104,115.25,0.239583,Sixteenth,D#4
875,Left,1,65,105,115.5,0.239583,Sixteenth,F4
876,Left,1,63,106,115.75,0.239583,Sixteenth,D#4
877,Left,1,61,106,116.0,0.239583,Sixteenth,C#4
878,Left,1,62,107,116.25,0.239583,Sixteenth,D4
879,Left,1,63,107,116.5,0.239583,Sixteenth,D#4
880,Left,1,62,108,116.75,0.239583,Sixteenth,D4
881,Left,1,61,109,117.0,0.239583,Sixteenth,C#4
882,Right,0,58,109,117.0,0.489583,Eighth,A#3
883,Left,1,62,109,117.25,0.239583,Sixteenth,D4
884,Left,1,63,110,117.5,0.239583,Sixteenth,D#4
885,Left,1,62,110,117.75,0.239583,Sixteenth,D4
886,Left,1,59,110,118.0,0.239583,Sixteenth,B3
887,Right,0,76,110,118.0,0.239583,Sixteenth,E5
888,Right,0,77,110,118.125,0.239583,Sixteenth,F5
889,Right,0,76,110,118.25,0.239583,Sixteenth,E5
890,Left,1,60,110,118.25,0.239583,Sixteenth,C4
891,Right,0,77,110,118.375,0.239583,Sixteenth,F5
892,Left,1,62,110,118.5,0.239583,Sixteenth,D4
893,Right,0,76,110,118.5,0.239583,Sixteenth,E5
894,Right,0,77,110,118.625,0.239583,Sixteenth,F5
895,Left,1,60,110,118.75,0.239583,Sixteenth,C4
896,Right,0,76,110,118.75,0.239583,Sixteenth,E5
897,Right,0,77,110,118.875,0.239583,Sixteenth,F5
898,Right,0,76,110,119.0,0.239583,Sixteenth,E5
899,Left,1,57,110,119.0,0.239583,Sixteenth,A3
900,Right,0,77,110,119.125,0.239583,Sixteenth,F5
901,Left,1,58,110,119.25,0.239583,Sixteenth,A#3
902,Right,0,76,110,119.25,0.239583,Sixteenth,E5
903,Right,0,77,110,119.375,0.239583,Sixteenth,F5
905,Left,1,60,110,119.5,0.239583,Sixteenth,C4
904,Right,0,76,110,119.5,0.239583,Sixteenth,E5
906,Right,0,77,110,119.625,0.239583,Sixteenth,F5
908,Left,1,58,110,119.75,0.239583,Sixteenth,A#3
907,Right,0,74,110,119.75,0.239583,Sixteenth,D5
909,Right,0,76,110,119.875,0.114583,ThirtySecond,E5
910,Right,0,77,110,120.0,0.989583,Quarter,F5
911,Left,1,57,80,120.5,0.489583,Eighth,A3
912,Left,1,69,100,121.0,0.989583,Quarter,A4
913,Right,0,77,80,121.5,0.239583,Sixteenth,F5
914,Right,0,76,80,121.75,0.239583,Sixteenth,E5
915,Right,0,74,80,122.0,0.239583,Sixteenth,D5
916,Right,0,72,80,122.25,0.239583,Sixteenth,C5
917,Right,0,70,80,122.5,0.239583,Sixteenth,A#4
918,Right,0,69,80,122.75,0.239583,Sixteenth,A4
919,Right,0,74,80,123.0,0.989583,Quarter,D5
920,Left,1,53,80,123.5,0.489583,Eighth,F3
921,Left,1,65,100,124.0,1.489583,DottedQuarter,F4
922,Right,0,74,80,124.5,0.239583,Sixteenth,D5
923,Right,0,72,80,124.75,0.239583,Sixteenth,C5
924,Right,0,70,80,125.0,0.239583,Sixteenth,A#4
925,Right,0,69,80,125.25,0.239583,Sixteenth,A4
926,Right,0,67,80,125.5,0.239583,Sixteenth,G4
927,Right,0,65,80,125.75,0.239583,Sixteenth,F4
928,Right,0,70,80,126.0,0.989583,Quarter,A#4
929,Left,1,50,80,126.5,0.489583,Eighth,D3
930,Left,1,62,80,127.0,0.489583,Eighth,D4
931,Right,0,70,80,127.5,0.239583,Sixteenth,A#4
932,Left,1,60,80,127.5,0.489583,Eighth,C4
933,Right,0,69,80,127.75,0.239583,Sixteenth,A4
935,Left,1,58,80,128.0,0.489583,Eighth,A#3
934,Right,0,67,80,128.0,0.239583,Sixteenth,G4
936,Right,0,69,80,128.25,0.239583,Sixteenth,A4
938,Left,1,59,80,128.5,0.489583,Eighth,B3
937,Right,0,67,80,128.5,0.239583,Sixteenth,G4
939,Right,0,65,80,128.75,0.239583,Sixteenth,F4
940,Left,1,60,80,129.0,0.489583,Eighth,C4
941,Right,0,64,80,129.0,0.239583,Sixteenth,E4
942,Right,0,65,80,129.25,0.239583,Sixteenth,F4
943,Right,0,64,80,129.5,0.239583,Sixteenth,E4
944,Right,0,62,80,129.75,0.239583,Sixteenth,D4
945,Right,0,60,80,130.0,0.239583,Sixteenth,C4
946,Left,1,58,80,130.0,1.489583,DottedQuarter,A#3
947,Right,0,62,80,130.25,0.239583,Sixteenth,D4
948,Right,0,64,80,130.5,0.239583,Sixteenth,E4
949,Right,0,65,80,130.75,0.239583,Sixteenth,F4
950,Right,0,66,80,131.0,0.239583,Sixteenth,F#4
951,Right,0,67,80,131.25,0.239583,Sixteenth,G4
953,Right,0,69,80,131.5,0.239583,Sixteenth,A4
952,Left,1,58,80,131.5,0.489583,Eighth,A#3
954,Right,0,67,80,131.75,0.239583,Sixteenth,G4
956,Right,0,65,80,132.0,0.239583,Sixteenth,F4
955,Left,1,58,80,132.0,0.489583,Eighth,A#3
957,Right,0,67,80,132.25,0.239583,Sixteenth,G4
959,Left,1,57,80,132.5,0.489583,Eighth,A3
958,Right,0,69,80,132.5,0.239583,Sixteenth,A4
960,Right,0,70,80,132.75,0.239583,Sixteenth,A#4
962,Right,0,71,80,133.0,0.239583,Sixteenth,B4
961,Left,1,55,80,133.0,0.489583,Eighth,G3
963,Right,0,72,80,133.25,0.239583,Sixteenth,C5
965,Right,0,74,80,133.5,0.239583,Sixteenth,D5
964,Left,1,53,80,133.5,0.489583,Eighth,F3
966,Right,0,72,80,133.75,0.239583,Sixteenth,C5
968,Right,0,70,80,134.0,0.239583,Sixteenth,A#4
967,Left,1,52,80,134.0,0.489583,Eighth,E3
969,Right,0,69,80,134.25,0.239583,Sixteenth,A4
970,Right,0,67,80,134.5,0.239583,Sixteenth,G4
971,Left,1,53,80,134.5,0.489583,Eighth,F3
972,Right,0,65,80,134.75,0.239583,Sixteenth,F4
973,Right,0,64,80,135.0,0.239583,Sixteenth,E4
974,Left,1,60,80,135.0,0.489583,Eighth,C4
975,Right,0,65,80,135.25,0.239583,Sixteenth,F4
976,Right,0,64,81,135.5,0.239583,Sixteenth,E4
977,Right,0,62,82,135.75,0.239583,Sixteenth,D4
979,Left,1,58,83,136.0,1.489583,DottedQuarter,A#3
978,Right,0,60,83,136.0,0.239583,Sixteenth,C4
980,Right,0,62,84,136.25,0.239583,Sixteenth,D4
981,Right,0,64,85,136.5,0.239583,Sixteenth,E4
982,Right,0,65,86,136.75,0.239583,Sixteenth,F4
983,Right,0,66,87,137.0,0.239583,Sixteenth,F#4
984,Right,0,67,87,137.25,0.239583,Sixteenth,G4
985,Left,1,57,88,137.5,0.489583,Eighth,A3
986,Right,0,69,88,137.5,0.239583,Sixteenth,A4
987,Right,0,65,89,137.75,0.239583,Sixteenth,F4
989,Left,1,62,90,138.0,0.489583,Eighth,D4
988,Right,0,64,90,138.0,0.239583,Sixteenth,E4
990,Right,0,65,91,138.25,0.239583,Sixteenth,F4
991,Right,0,72,92,138.5,0.239583,Sixteenth,C5
992,Right,0,70,93,138.75,0.239583,Sixteenth,A#4
993,Right,0,69,94,139.0,0.239583,Sixteenth,A4
994,Left,1,61,94,139.0,1.489583,DottedQuarter,C#4
995,Right,0,70,95,139.25,0.239583,Sixteenth,A#4
996,Right,0,72,95,139.5,0.239583,Sixteenth,C5
997,Right,0,70,96,139.75,0.239583,Sixteenth,A#4
998,Right,0,68,97,140.0,0.239583,Sixteenth,G#4
999,Right,0,69,98,140.25,0.239583,Sixteenth,A4
1001,Left,1,60,99,140.5,0.489583,Eighth,C4
1000,Right,0,70,99,140.5,0.239583,Sixteenth,A#4
1002,Right,0,69,100,140.75,0.239583,Sixteenth,A4
1003,Right,0,67,101,141.0,0.239583,Sixteenth,G4
1004,Left,1,65,101,141.0,0.489583,Eighth,F4
1005,Right,0,68,102,141.25,0.239583,Sixteenth,G#4
1006,Right,0,75,103,141.5,0.239583,Sixteenth,D#5
1007,Right,0,74,103,141.75,0.239583,Sixteenth,D5
1008,Right,0,72,104,142.0,0.239583,Sixteenth,C5
1009,Left,1,64,104,142.0,1.489583,DottedQuarter,E4
1010,Right,0,73,105,142.25,0.239583,Sixteenth,C#5
1011,Right,0,74,106,142.5,0.239583,Sixteenth,D5
1012,Right,0,73,107,142.75,0.239583,Sixteenth,C#5
1013,Right,0,71,108,143.0,0.239583,Sixteenth,B4
1014,Right,0,72,109,143.25,0.239583,Sixteenth,C5
1016,Left,1,63,110,143.5,0.489583,Eighth,D#4
1015,Right,0,74,110,143.5,0.239583,Sixteenth,D5
1017,Right,0,72,110,143.75,0.239583,Sixteenth,C5
1019,Right,0,63,110,144.0,1.989583,Half,G#4_D#4
1018,Left,1,41,110,144.0,0.489583,Eighth,F2
1021,Right,0,69,110,144.25,0.239583,Sixteenth,A4
1022,Right,0,70,110,144.5,0.239583,Sixteenth,A#4
1023,Right,0,69,110,144.75,0.239583,Sixteenth,A4
1025,Left,1,57,110,145.0,0.239583,Sixteenth,A3
1024,Right,0,64,110,145.0,0.239583,Sixteenth,E4
1026,Left,1,58,110,145.125,0.239583,Sixteenth,A#3
1028,Left,1,57,110,145.25,0.239583,Sixteenth,A3
1027,Right,0,65,110,145.25,0.239583,Sixteenth,F4
1029,Left,1,58,110,145.375,0.239583,Sixteenth,A#3
1031,Left,1,57,110,145.5,0.239583,Sixteenth,A3
1030,Right,0,67,110,145.5,0.239583,Sixteenth,G4
1032,Left,1,58,110,145.625,0.239583,Sixteenth,A#3
1034,Right,0,65,110,145.75,0.239583,Sixteenth,F4
1033,Left,1,57,110,145.75,0.239583,Sixteenth,A3
1035,Left,1,58,110,145.875,0.239583,Sixteenth,A#3
1036,Right,0,65,110,146.0,1.489583,DottedQuarter,F4_B4
1037,Left,1,57,110,146.0,0.239583,Sixteenth,A3
1039,Left,1,58,110,146.125,0.239583,Sixteenth,A#3
1041,Right,0,72,110,146.25,0.239583,Sixteenth,C5
1040,Left,1,57,110,146.25,0.239583,Sixteenth,A3
1042,Left,1,58,110,146.375,0.239583,Sixteenth,A#3
1043,Right,0,74,110,146.5,0.239583,Sixteenth,D5
1044,Left,1,57,110,146.5,0.239583,Sixteenth,A3
1045,Left,1,58,110,146.625,0.239583,Sixteenth,A#3
1046,Right,0,72,110,146.75,0.239583,Sixteenth,C5
1047,Left,1,55,110,146.75,0.239583,Sixteenth,G3
1048,Left,1,57,110,146.875,0.114583,ThirtySecond,A3
1049,Left,1,58,110,147.0,0.989583,Quarter,A#3
1050,Right,0,62,101,147.5,0.489583,Eighth,D4
1051,Right,0,74,100,148.0,1.489583,DottedQuarter,D5
1052,Left,1,58,80,148.5,0.239583,Sixteenth,A#3
1053,Right,0,69,80,148.5,0.489583,Eighth,A4
1054,Left,1,57,80,148.75,0.239583,Sixteenth,A3
1055,Right,0,70,80,149.0,0.989583,Quarter,A#4
1056,Left,1,55,80,149.0,0.239583,Sixteenth,G3
1057,Left,1,53,80,149.25,0.239583,Sixteenth,F3
1058,Left,1,51,80,149.5,0.239583,Sixteenth,D#3
1059,Left,1,50,80,149.75,0.239583,Sixteenth,D3
1060,Left,1,55,80,150.0,0.989583,Quarter,G3
1061,Right,0,58,80,150.5,0.489583,Eighth,A#3
1062,Right,0,70,101,151.0,1.489583,DottedQuarter,A#4
1064,Left,1,55,80,151.5,0.239583,Sixteenth,G3
1063,Right,0,66,80,151.5,0.489583,Eighth,F#4
1065,Left,1,53,80,151.75,0.239583,Sixteenth,F3
1067,Right,0,67,80,152.0,0.989583,Quarter,G4
1066,Left,1,51,80,152.0,0.239583,Sixteenth,D#3
1068,Left,1,50,80,152.25,0.239583,Sixteenth,D3
1069,Left,1,48,80,152.5,0.239583,Sixteenth,C3
1070,Left,1,46,80,152.75,0.239583,Sixteenth,A#2
1071,Left,1,51,80,153.0,0.989583,Quarter,D#3
1072,Right,0,67,80,153.5,0.489583,Eighth,G4
1073,Right,0,79,80,154.0,0.489583,Eighth,G5
1076,Left,1,51,80,154.5,0.239583,Sixteenth,D#3
1074,Right,0,77,80,154.5,0.489583,Eighth,F5_A#4
1077,Left,1,50,80,154.75,0.239583,Sixteenth,D3
1078,Left,1,48,80,155.0,0.239583,Sixteenth,C3
1079,Right,0,72,80,155.0,0.489583,Eighth,D#5_C5
1081,Left,1,50,80,155.25,0.239583,Sixteenth,D3
1082,Right,0,67,80,155.5,0.489583,Eighth,G4_E5
1084,Left,1,48,80,155.5,0.239583,Sixteenth,C3
1085,Left,1,46,80,155.75,0.239583,Sixteenth,A#2
1086,Left,1,45,80,156.0,0.239583,Sixteenth,A2
1087,Right,0,77,80,156.0,0.489583,Eighth,F5_C5
1089,Left,1,46,80,156.25,0.239583,Sixteenth,A#2
1090,Left,1,45,80,156.5,0.239583,Sixteenth,A2
1091,Right,0,65,80,156.5,0.489583,Eighth,F4
1092,Left,1,43,80,156.75,0.239583,Sixteenth,G2
1094,Right,0,72,80,157.0,1.489583,Eighth,D#5_C5
1093,Left,1,41,80,157.0,0.239583,Sixteenth,F2
1096,Left,1,43,80,157.25,0.239583,Sixteenth,G2
1098,Right,0,67,80,157.5,0.489583,Eighth,G4
1097,Left,1,45,80,157.5,0.239583,Sixteenth,A2
1099,Left,1,46,80,157.75,0.239583,Sixteenth,A#2
1101,Left,1,47,80,158.0,0.239583,Sixteenth,B2
1100,Right,0,65,80,158.0,1.489583,DottedQuarter,F4
1102,Left,1,48,80,158.25,0.239583,Sixteenth,C3
1103,Left,1,50,80,158.5,0.239583,Sixteenth,D3
1104,Right,0,75,80,158.5,0.489583,Eighth,D#5
1105,Left,1,48,80,158.75,0.239583,Sixteenth,C3
1107,Left,1,46,80,159.0,0.239583,Sixteenth,A#2
1106,Right,0,75,80,159.0,0.489583,Eighth,D#5
1108,Left,1,48,80,159.25,0.239583,Sixteenth,C3
1111,Left,1,50,80,159.5,0.239583,Sixteenth,D3
1109,Right,0,65,80,159.5,0.489583,Eighth,F4_D5
1112,Left,1,51,80,159.75,0.239583,Sixteenth,D#3
1115,Left,1,52,80,160.0,0.239583,Sixteenth,E3
1113,Right,0,63,80,160.0,0.489583,Eighth,D#4_C5
1116,Left,1,53,80,160.25,0.239583,Sixteenth,F3
1118,Right,0,62,80,160.5,0.489583,Eighth,D4_A#4
1117,Left,1,55,80,160.5,0.239583,Sixteenth,G3
1120,Left,1,53,80,160.75,0.239583,Sixteenth,F3
1122,Right,0,60,80,161.0,0.489583,Eighth,C4_A4
1121,Left,1,51,80,161.0,0.239583,Sixteenth,D#3
1124,Left,1,50,80,161.25,0.239583,Sixteenth,D3
1125,Right,0,70,80,161.5,0.489583,Eighth,D4_A#4
1126,Left,1,48,80,161.5,0.239583,Sixteenth,C3
1128,Left,1,46,80,161.75,0.239583,Sixteenth,A#2
1130,Right,0,65,80,162.0,0.489583,Eighth,F4
1129,Left,1,45,80,162.0,0.239583,Sixteenth,A2
1131,Left,1,46,80,162.25,0.239583,Sixteenth,A#2
1132,Right,0,70,80,162.5,0.489583,Eighth,A#4
1133,Left,1,45,80,162.5,0.239583,Sixteenth,A2
1134,Left,1,43,80,162.75,0.239583,Sixteenth,G2
1135,Left,1,41,80,163.0,0.239583,Sixteenth,F2
1136,Right,0,72,80,163.0,1.489583,Eighth,D#4_C5
1138,Left,1,43,80,163.25,0.239583,Sixteenth,G2
1140,Left,1,45,80,163.5,0.239583,Sixteenth,A2
1139,Right,0,66,80,163.5,0.489583,Eighth,F#4
1141,Left,1,46,80,163.75,0.239583,Sixteenth,A#2
1142,Left,1,45,80,164.0,0.239583,Sixteenth,A2
1143,Right,0,65,80,164.0,0.989583,Quarter,F4
1144,Left,1,46,80,164.25,0.239583,Sixteenth,A#2
1146,Right,0,62,80,164.5,0.489583,Eighth,D4
1145,Left,1,48,80,164.5,0.239583,Sixteenth,C3
1147,Left,1,50,80,164.75,0.239583,Sixteenth,D3
1148,Right,0,80,80,165.0,0.489583,Eighth,G#5
1149,Left,1,51,80,165.0,0.239583,Sixteenth,D#3
1150,Left,1,53,80,165.25,0.239583,Sixteenth,F3
1152,Right,0,70,80,165.5,0.489583,Eighth,A#4
1151,Left,1,55,80,165.5,0.239583,Sixteenth,G3
1153,Left,1,51,80,165.75,0.239583,Sixteenth,D#3
1154,Left,1,49,80,166.0,0.239583,Sixteenth,C#3
1155,Right,0,76,80,166.0,1.489583,Eighth,G5_E5
1157,Left,1,50,80,166.25,0.239583,Sixteenth,D3
1158,Left,1,52,80,166.5,0.239583,Sixteenth,E3
1159,Right,0,70,80,166.5,1.489583,DottedQuarter,A#4
1160,Left,1,49,80,166.75,0.239583,Sixteenth,C#3
1161,Left,1,50,80,167.0,0.239583,Sixteenth,D3
1162,Left,1,53,80,167.25,0.239583,Sixteenth,F3
1164,Left,1,58,80,167.5,0.239583,Sixteenth,A#3
1163,Right,0,77,80,167.5,0.489583,Eighth,F5
1165,Left,1,62,80,167.75,0.239583,Sixteenth,D4
1167,Left,1,54,80,168.0,0.239583,Sixteenth,F#3
1166,Right,0,72,80,168.0,0.489583,Eighth,C5
1168,Left,1,55,80,168.25,0.239583,Sixteenth,G3
1169,Left,1,57,80,168.5,0.239583,Sixteenth,A3
1170,Right,0,76,80,168.5,0.489583,Eighth,E5
1171,Left,1,55,80,168.75,0.239583,Sixteenth,G3
1174,Left,1,51,80,169.0,0.239583,Sixteenth,D#3
1172,Right,0,70,100,169.0,1.489583,DottedQuarter,G5_A#4
1175,Left,1,51,80,169.25,0.239583,Sixteenth,D#3
1176,Right,0,73,80,169.5,0.489583,Eighth,C#5
1177,Left,1,53,80,169.5,0.239583,Sixteenth,F3
1178,Left,1,51,80,169.75,0.239583,Sixteenth,D#3
1179,Left,1,53,80,170.0,0.239583,Sixteenth,F3
1180,Right,0,72,80,170.0,0.989583,Quarter,C5
1181,Left,1,57,80,170.25,0.239583,Sixteenth,A3
1182,Left,1,60,80,170.5,0.239583,Sixteenth,C4
1183,Right,0,69,80,170.5,0.489583,Eighth,A4
1184,Left,1,65,80,170.75,0.239583,Sixteenth,F4
1185,Right,0,89,80,171.0,0.489583,Eighth,F6
1186,Left,1,59,80,171.0,0.239583,Sixteenth,B3
1187,Left,1,60,80,171.25,0.239583,Sixteenth,C4
1189,Right,0,81,80,171.5,0.489583,Eighth,A5
1188,Left,1,62,80,171.5,0.239583,Sixteenth,D4
1190,Left,1,60,80,171.75,0.239583,Sixteenth,C4
1191,Right,0,87,100,172.0,1.489583,DottedQuarter,D#6_C6
1192,Left,1,56,80,172.0,0.239583,Sixteenth,G#3
1194,Left,1,57,80,172.25,0.239583,Sixteenth,A3
1195,Right,0,78,80,172.5,0.489583,Eighth,F#5
1196,Left,1,58,80,172.5,0.239583,Sixteenth,A#3
1197,Left,1,57,80,172.75,0.239583,Sixteenth,A3
1198,Left,1,58,80,173.0,0.239583,Sixteenth,A#3
1199,Right,0,77,80,173.0,0.989583,Quarter,F5
1200,Left,1,57,80,173.25,0.239583,Sixteenth,A3
1201,Left,1,55,80,173.5,0.239583,Sixteenth,G3
1202,Right,0,86,80,173.5,0.489583,Eighth,D6
1203,Left,1,53,80,173.75,0.239583,Sixteenth,F3
1204,Left,1,51,80,174.0,0.239583,Sixteenth,D#3
1205,Right,0,92,80,174.0,0.489583,Eighth,G#6
1206,Left,1,53,80,174.25,0.239583,Sixteenth,F3
1208,Right,0,82,80,174.5,0.489583,Eighth,A#5
1207,Left,1,55,80,174.5,0.239583,Sixteenth,G3
1209,Left,1,51,80,174.75,0.239583,Sixteenth,D#3
1210,Left,1,50,80,175.0,0.239583,Sixteenth,D3
1211,Right,0,88,80,175.0,1.489583,Eighth,G6_E6
1213,Left,1,49,80,175.25,0.239583,Sixteenth,C#3
1214,Left,1,48,80,175.5,0.239583,Sixteenth,C3
1215,Right,0,82,80,175.5,0.989583,Quarter,A#5
1216,Left,1,49,80,175.75,0.239583,Sixteenth,C#3
1217,Left,1,50,80,176.0,0.239583,Sixteenth,D3
1218,Left,1,52,80,176.25,0.239583,Sixteenth,E3
1219,Left,1,53,80,176.5,0.239583,Sixteenth,F3
1220,Right,0,86,80,176.5,0.989583,Eighth,F6_D6
1222,Left,1,54,80,176.75,0.239583,Sixteenth,F#3
1223,Left,1,55,80,177.0,0.239583,Sixteenth,G3
1224,Right,0,83,80,177.0,0.489583,Eighth,B5
1225,Left,1,57,80,177.25,0.239583,Sixteenth,A3
1226,Right,0,89,80,177.5,0.989583,Quarter,G5_F6
1227,Left,1,58,80,177.5,0.239583,Sixteenth,A#3
1229,Left,1,59,80,177.75,0.239583,Sixteenth,B3
1231,Left,1,48,80,178.0,0.239583,Sixteenth,C3
1230,Right,0,84,80,178.0,0.489583,Eighth,C6
1232,Left,1,52,80,178.25,0.239583,Sixteenth,E3
1233,Right,0,79,80,178.5,0.489583,Eighth,G5_E6
1235,Left,1,55,80,178.5,0.239583,Sixteenth,G3
1236,Left,1,60,80,178.75,0.239583,Sixteenth,C4
1237,Right,0,87,80,179.0,1.489583,DottedQuarter,D#6_C6
1238,Left,1,53,80,179.0,0.239583,Sixteenth,F3
1240,Left,1,55,80,179.25,0.239583,Sixteenth,G3
1241,Left,1,56,80,179.5,0.239583,Sixteenth,G#3
1242,Right,0,77,80,179.5,0.989583,Quarter,F5
1243,Left,1,57,80,179.75,0.239583,Sixteenth,A3
1244,Left,1,46,80,180.0,0.239583,Sixteenth,A#2
1245,Left,1,50,80,180.25,0.239583,Sixteenth,D3
1247,Left,1,53,80,180.5,0.239583,Sixteenth,F3
1246,Right,0,86,80,180.5,0.489583,Eighth,D6
1248,Left,1,58,80,180.75,0.239583,Sixteenth,A#3
1249,Right,0,85,80,181.0,0.489583,Eighth,C#6
1250,Left,1,51,80,181.0,0.239583,Sixteenth,D#3
1251,Left,1,55,80,181.25,0.239583,Sixteenth,G3
1254,Left,1,58,80,181.5,0.239583,Sixteenth,A#3
1252,Right,0,74,80,181.5,0.739583,DottedEighth,D5_A#4
1255,Left,1,60,80,181.75,0.239583,Sixteenth,C4
1256,Left,1,58,80,182.0,0.489583,Eighth,G3_A#3
1258,Right,0,79,80,182.25,0.239583,Sixteenth,G5
1259,Left,1,51,80,182.25,0.239583,Sixteenth,D#3
1260,Right,0,82,80,182.5,0.239583,Sixteenth,A#5
1261,Left,1,55,80,182.5,0.239583,Sixteenth,G3
1262,Right,0,86,80,182.75,0.239583,Sixteenth,D6
1263,Left,1,51,80,182.75,0.239583,Sixteenth,D#3
1264,Left,1,76,100,183.0,0.239583,Sixteenth,E5
1265,Right,0,86,80,183.0,0.489583,Eighth,D6
1266,Left,1,77,100,183.125,0.239583,Sixteenth,F5
1267,Left,1,76,99,183.25,0.239583,Sixteenth,E5
1268,Left,1,77,99,183.375,0.239583,Sixteenth,F5
1269,Left,1,76,98,183.5,0.239583,Sixteenth,E5
1270,Right,0,84,80,183.5,0.239583,Sixteenth,C6
1271,Left,1,77,97,183.625,0.239583,Sixteenth,F5
1273,Left,1,76,97,183.75,0.239583,Sixteenth,E5
1272,Right,0,82,80,183.75,0.239583,Sixteenth,A#5
1274,Left,1,77,96,183.875,0.239583,Sixteenth,F5
1276,Left,1,76,96,184.0,0.239583,Sixteenth,E5
1275,Right,0,81,80,184.0,0.239583,Sixteenth,A5
1277,Left,1,77,95,184.125,0.239583,Sixteenth,F5
1278,Left,1,76,94,184.25,0.239583,Sixteenth,E5
1279,Right,0,82,80,184.25,0.239583,Sixteenth,A#5
1280,Left,1,77,94,184.375,0.239583,Sixteenth,F5
1282,Left,1,76,93,184.5,0.239583,Sixteenth,E5
1281,Right,0,84,80,184.5,0.239583,Sixteenth,C6
1283,Left,1,77,92,184.625,0.239583,Sixteenth,F5
1285,Left,1,74,92,184.75,0.239583,Sixteenth,D5
1284,Right,0,82,80,184.75,0.239583,Sixteenth,A#5
1286,Left,1,76,91,184.875,0.114583,ThirtySecond,E5
1289,Right,0,81,80,185.0,0.239583,Sixteenth,A5
1287,Left,1,77,91,185.0,0.989583,Quarter,F5_F2
1290,Right,0,79,80,185.25,0.239583,Sixteenth,G5
1291,Right,0,81,80,185.5,0.239583,Sixteenth,A5
1292,Right,0,82,80,185.75,0.239583,Sixteenth,A#5
1293,Left,1,57,100,186.0,0.239583,Sixteenth,A3
1294,Right,0,84,80,186.0,0.239583,Sixteenth,C6
1295,Left,1,58,100,186.125,0.239583,Sixteenth,A#3
1297,Left,1,57,100,186.25,0.239583,Sixteenth,A3
1296,Right,0,82,80,186.25,0.239583,Sixteenth,A#5
1298,Left,1,58,100,186.375,0.239583,Sixteenth,A#3
1300,Left,1,57,100,186.5,0.239583,Sixteenth,A3
1299,Right,0,81,80,186.5,0.239583,Sixteenth,A5
1301,Left,1,58,100,186.625,0.239583,Sixteenth,A#3
1303,Left,1,57,100,186.75,0.239583,Sixteenth,A3
1302,Right,0,79,80,186.75,0.239583,Sixteenth,G5
1304,Left,1,58,100,186.875,0.239583,Sixteenth,A#3
1306,Right,0,77,80,187.0,0.239583,Sixteenth,F5
1305,Left,1,57,100,187.0,0.239583,Sixteenth,A3
1307,Left,1,58,100,187.125,0.239583,Sixteenth,A#3
1308,Left,1,57,100,187.25,0.239583,Sixteenth,A3
1309,Right,0,79,80,187.25,0.239583,Sixteenth,G5
1310,Left,1,58,100,187.375,0.239583,Sixteenth,A#3
1311,Right,0,77,80,187.5,0.239583,Sixteenth,F5
1312,Left,1,57,100,187.5,0.239583,Sixteenth,A3
1313,Left,1,58,100,187.625,0.239583,Sixteenth,A#3
1314,Left,1,55,100,187.75,0.239583,Sixteenth,G3
1315,Right,0,75,80,187.75,0.239583,Sixteenth,D#5
1316,Left,1,57,100,187.875,0.114583,ThirtySecond,A3
1317,Right,0,74,80,188.0,0.239583,Sixteenth,D5
1318,Left,1,62,100,188.0,0.989583,Eighth,D4_A#3
1320,Right,0,85,80,188.25,0.239583,Sixteenth,C#6
1321,Right,0,86,80,188.5,0.239583,Sixteenth,D6
1322,Right,0,85,80,188.75,0.239583,Sixteenth,C#6
1324,Right,0,87,80,189.0,0.489583,Eighth,D#6
1323,Left,1,78,100,189.0,0.239583,Sixteenth,F#5
1325,Left,1,79,100,189.125,0.239583,Sixteenth,G5
1326,Left,1,78,100,189.25,0.239583,Sixteenth,F#5
1327,Left,1,79,100,189.375,0.239583,Sixteenth,G5
1329,Left,1,78,100,189.5,0.239583,Sixteenth,F#5
1328,Right,0,86,80,189.5,0.239583,Sixteenth,D6
1330,Left,1,79,100,189.625,0.239583,Sixteenth,G5
1332,Right,0,84,80,189.75,0.239583,Sixteenth,C6
1331,Left,1,78,100,189.75,0.239583,Sixteenth,F#5
1333,Left,1,79,100,189.875,0.239583,Sixteenth,G5
1334,Left,1,78,100,190.0,0.239583,Sixteenth,F#5
1335,Right,0,83,80,190.0,0.239583,Sixteenth,B5
1336,Left,1,79,100,190.125,0.239583,Sixteenth,G5
1337,Right,0,84,80,190.25,0.239583,Sixteenth,C6
1338,Left,1,78,100,190.25,0.239583,Sixteenth,F#5
1339,Left,1,79,100,190.375,0.229167,Sixteenth,G5
1340,Right,0,86,80,190.5,0.239583,Sixteenth,D6
1341,Left,1,78,100,190.5,0.239583,Sixteenth,F#5
1342,Left,1,79,100,190.625,0.239583,Sixteenth,G5
1344,Right,0,84,80,190.75,0.239583,Sixteenth,C6
1343,Left,1,76,100,190.75,0.239583,Sixteenth,E5
1345,Left,1,78,100,190.875,0.114583,ThirtySecond,F#5
1347,Left,1,43,100,191.0,0.989583,Eighth,G5_G2
1346,Right,0,83,80,191.0,0.239583,Sixteenth,B5
1349,Right,0,81,80,191.25,0.239583,Sixteenth,A5
1350,Right,0,83,80,191.5,0.239583,Sixteenth,B5
1351,Right,0,84,80,191.75,0.239583,Sixteenth,C6
1352,Right,0,86,80,192.0,0.239583,Sixteenth,D6
1353,Left,1,59,100,192.0,0.239583,Sixteenth,B3
1354,Left,1,60,100,192.125,0.239583,Sixteenth,C4
1356,Right,0,84,80,192.25,0.239583,Sixteenth,C6
1355,Left,1,59,100,192.25,0.239583,Sixteenth,B3
1357,Left,1,60,100,192.375,0.239583,Sixteenth,C4
1358,Right,0,83,80,192.5,0.239583,Sixteenth,B5
1359,Left,1,59,100,192.5,0.239583,Sixteenth,B3
1360,Left,1,60,100,192.625,0.239583,Sixteenth,C4
1362,Left,1,59,100,192.75,0.239583,Sixteenth,B3
1361,Right,0,80,80,192.75,0.239583,Sixteenth,G#5
1363,Left,1,60,100,192.875,0.239583,Sixteenth,C4
1364,Left,1,59,100,193.0,0.239583,Sixteenth,B3
1365,Right,0,79,80,193.0,0.239583,Sixteenth,G5
1366,Left,1,60,100,193.125,0.239583,Sixteenth,C4
1368,Right,0,80,80,193.25,0.239583,Sixteenth,G#5
1367,Left,1,59,100,193.25,0.239583,Sixteenth,B3
1369,Left,1,60,100,193.375,0.239583,Sixteenth,C4
1371,Right,0,79,80,193.5,0.239583,Sixteenth,G5
1370,Left,1,59,100,193.5,0.239583,Sixteenth,B3
1372,Left,1,60,100,193.625,0.239583,Sixteenth,C4
1374,Right,0,77,80,193.75,0.239583,Sixteenth,F5
1373,Left,1,57,100,193.75,0.239583,Sixteenth,A3
1375,Left,1,59,100,193.875,0.114583,ThirtySecond,B3
1377,Right,0,75,80,194.0,0.989583,Quarter,G4_D#5
1376,Left,1,60,100,194.0,0.489583,Eighth,C4
1379,Right,0,71,80,194.25,0.239583,Sixteenth,B4
1381,Right,0,72,80,194.5,0.239583,Sixteenth,C5
1380,Left,1,44,100,194.5,0.489583,Eighth,G#2
1382,Right,0,73,80,194.75,0.239583,Sixteenth,C#5
1384,Left,1,60,100,195.0,0.239583,Sixteenth,C4
1383,Right,0,75,80,195.0,0.239583,Sixteenth,D#5
1385,Left,1,61,100,195.125,0.239583,Sixteenth,C#4
1386,Left,1,60,100,195.25,0.239583,Sixteenth,C4
1387,Right,0,73,80,195.25,0.239583,Sixteenth,C#5
1388,Left,1,61,100,195.375,0.239583,Sixteenth,C#4
1390,Left,1,60,100,195.5,0.239583,Sixteenth,C4
1389,Right,0,72,80,195.5,0.239583,Sixteenth,C5
1391,Left,1,61,100,195.625,0.239583,Sixteenth,C#4
1392,Right,0,70,80,195.75,0.239583,Sixteenth,A#4
1393,Left,1,60,100,195.75,0.239583,Sixteenth,C4
1394,Left,1,61,100,195.875,0.239583,Sixteenth,C#4
1395,Right,0,75,100,196.0,1.489583,DottedQuarter,G#4_D#5
1397,Left,1,60,100,196.0,0.239583,Sixteenth,C4
1398,Left,1,61,100,196.125,0.239583,Sixteenth,C#4
1399,Left,1,60,100,196.25,0.239583,Sixteenth,C4
1400,Right,0,70,80,196.25,0.239583,Sixteenth,A#4
1401,Left,1,61,100,196.375,0.239583,Sixteenth,C#4
1402,Left,1,60,100,196.5,0.239583,Sixteenth,C4
1403,Right,0,68,80,196.5,0.239583,Sixteenth,G#4
1404,Left,1,61,100,196.625,0.239583,Sixteenth,C#4
1405,Left,1,58,100,196.75,0.239583,Sixteenth,A#3
1406,Right,0,66,80,196.75,0.239583,Sixteenth,F#4
1407,Left,1,60,100,196.8125,0.114583,ThirtySecond,C4
1408,Left,1,61,100,197.0,0.989583,Quarter,C#4
1409,Right,0,65,80,197.0,0.989583,Quarter,F4
1410,Right,0,73,80,197.5,0.239583,Sixteenth,C#5
1411,Right,0,75,80,197.75,0.239583,Sixteenth,D#5
1412,Right,0,77,80,198.0,0.239583,Sixteenth,F5
1413,Right,0,78,80,198.25,0.239583,Sixteenth,F#5
1414,Left,1,61,80,198.5,0.239583,Sixteenth,C#4
1415,Right,0,77,80,198.5,0.239583,Sixteenth,F5
1417,Right,0,75,80,198.75,0.239583,Sixteenth,D#5
1416,Left,1,60,80,198.75,0.239583,Sixteenth,C4
1419,Right,0,73,80,199.0,0.239583,Sixteenth,C#5
1418,Left,1,58,80,199.0,0.239583,Sixteenth,A#3
1420,Left,1,56,80,199.25,0.239583,Sixteenth,G#3
1421,Right,0,72,80,199.25,0.239583,Sixteenth,C5
1423,Right,0,70,80,199.5,0.239583,Sixteenth,A#4
1422,Left,1,54,80,199.5,0.239583,Sixteenth,F#3
1424,Right,0,68,80,199.75,0.239583,Sixteenth,G#4
1425,Left,1,53,80,199.75,0.239583,Sixteenth,F3
1427,Right,0,61,80,200.0,1.239583,Sixteenth,C#5_C#4
1426,Left,1,58,80,200.0,0.989583,Quarter,A#3
1429,Right,0,63,80,200.25,0.239583,Sixteenth,D#4
1430,Right,0,64,80,200.5,0.239583,Sixteenth,E4
1431,Right,0,65,80,200.75,0.239583,Sixteenth,F4
1432,Right,0,66,80,201.0,0.989583,Quarter,F#4
1433,Right,0,75,80,201.25,0.239583,Sixteenth,D#5
1435,Right,0,73,80,201.5,0.239583,Sixteenth,C#5
1434,Left,1,58,80,201.5,0.239583,Sixteenth,A#3
1436,Right,0,72,80,201.75,0.239583,Sixteenth,C5
1437,Left,1,56,80,201.75,0.239583,Sixteenth,G#3
1439,Left,1,54,80,202.0,0.239583,Sixteenth,F#3
1438,Right,0,70,80,202.0,0.239583,Sixteenth,A#4
1441,Left,1,53,80,202.25,0.239583,Sixteenth,F3
1440,Right,0,68,80,202.25,0.239583,Sixteenth,G#4
1442,Left,1,51,80,202.5,0.239583,Sixteenth,D#3
1443,Right,0,67,80,202.5,0.239583,Sixteenth,G4
1445,Left,1,49,80,202.75,0.239583,Sixteenth,C#3
1444,Right,0,65,80,202.75,0.239583,Sixteenth,F4
1448,Left,1,54,80,203.0,0.989583,Quarter,F#3
1446,Right,0,70,80,203.0,0.989583,Quarter,A#4_A#3
1449,Right,0,60,80,203.25,0.239583,Sixteenth,C4
1450,Right,0,61,80,203.5,0.239583,Sixteenth,C#4
1451,Right,0,62,80,203.75,0.239583,Sixteenth,D4
1452,Right,0,63,80,204.0,1.489583,Sixteenth,D#4_A#4
1454,Right,0,62,80,204.25,0.239583,Sixteenth,D4
1456,Right,0,63,80,204.5,0.239583,Sixteenth,D#4
1455,Left,1,54,80,204.5,0.239583,Sixteenth,F#3
1457,Right,0,65,80,204.75,0.239583,Sixteenth,F4
1458,Left,1,53,80,204.75,0.239583,Sixteenth,F3
1459,Left,1,51,80,205.0,0.239583,Sixteenth,D#3
1460,Right,0,66,80,205.0,0.489583,Eighth,F#4
1461,Left,1,53,80,205.25,0.239583,Sixteenth,F3
1462,Right,0,70,80,205.5,0.489583,Eighth,G4_A#4
1464,Left,1,51,80,205.5,0.239583,Sixteenth,D#3
1465,Left,1,49,80,205.75,0.239583,Sixteenth,C#3
1467,Right,0,68,80,206.0,0.489583,Eighth,G#4_C5
1466,Left,1,48,80,206.0,0.239583,Sixteenth,C3
1469,Left,1,49,80,206.25,0.239583,Sixteenth,C#3
1470,Left,1,48,80,206.5,0.239583,Sixteenth,C3
1471,Right,0,73,80,206.5,0.489583,Eighth,C#5
1472,Left,1,46,80,206.75,0.239583,Sixteenth,A#2
1474,Right,0,66,101,207.0,1.489583,DottedQuarter,F#4_D#5
1473,Left,1,44,80,207.0,0.239583,Sixteenth,G#2
1476,Left,1,46,80,207.25,0.239583,Sixteenth,A#2
1477,Left,1,48,80,207.5,0.239583,Sixteenth,C3
1478,Left,1,49,80,207.75,0.239583,Sixteenth,C#3
1479,Left,1,50,80,208.0,0.239583,Sixteenth,D3
1480,Left,1,51,80,208.25,0.239583,Sixteenth,D#3
1481,Left,1,53,80,208.5,0.239583,Sixteenth,F3
1482,Right,0,75,80,208.5,0.489583,Eighth,F#4_D#5
1484,Left,1,51,80,208.75,0.239583,Sixteenth,D#3
1486,Right,0,66,80,209.0,0.489583,Eighth,F#4_D#5
1485,Left,1,49,80,209.0,0.239583,Sixteenth,C#3
1488,Left,1,51,80,209.25,0.239583,Sixteenth,D#3
1491,Left,1,53,80,209.5,0.239583,Sixteenth,F3
1489,Right,0,65,80,209.5,0.489583,Eighth,F4_C#5
1492,Left,1,54,80,209.75,0.239583,Sixteenth,F#3
1495,Left,1,55,80,210.0,0.239583,Sixteenth,G3
1493,Right,0,63,80,210.0,0.489583,Eighth,D#4_C5
1496,Left,1,56,80,210.25,0.239583,Sixteenth,G#3
1497,Left,1,58,80,210.5,0.239583,Sixteenth,A#3
1498,Right,0,61,80,210.5,0.489583,Eighth,C#5_C#4
1500,Left,1,56,80,210.75,0.239583,Sixteenth,G#3
1502,Right,0,60,80,211.0,0.489583,Eighth,D#4_C4
1501,Left,1,54,80,211.0,0.239583,Sixteenth,F#3
1504,Left,1,53,80,211.25,0.239583,Sixteenth,F3
1506,Right,0,61,80,211.5,0.489583,Eighth,F4_C#4
1505,Left,1,51,80,211.5,0.239583,Sixteenth,D#3
1509,Right,0,66,80,211.75,0.239583,Sixteenth,F#4
1508,Left,1,49,80,211.75,0.239583,Sixteenth,C#3
1510,Right,0,68,80,212.0,0.489583,Sixteenth,G#4_C4
1512,Left,1,44,80,212.0,0.489583,Eighth,G#2
1513,Right,0,70,80,212.25,0.239583,Sixteenth,A#4
1514,Right,0,72,80,212.5,0.489583,Sixteenth,D#4_C5
1516,Right,0,73,80,212.75,0.239583,Sixteenth,C#5
1517,Right,0,74,80,213.0,0.239583,Sixteenth,D5
1518,Left,1,42,101,213.0,1.489583,DottedQuarter,F#2_D#3
1520,Right,0,75,80,213.25,0.239583,Sixteenth,D#5
1521,Right,0,77,80,213.5,0.239583,Sixteenth,F5
1522,Right,0,75,80,213.75,0.239583,Sixteenth,D#5
1523,Right,0,73,80,214.0,0.239583,Sixteenth,C#5
1524,Right,0,72,80,214.25,0.239583,Sixteenth,C5
1525,Left,1,51,80,214.5,0.489583,Eighth,F#2_D#3
1527,Right,0,70,80,214.5,0.239583,Sixteenth,A#4
1528,Right,0,68,80,214.75,0.239583,Sixteenth,G#4
1529,Left,1,51,80,215.0,0.489583,Eighth,F#2_D#3
1531,Right,0,73,80,215.0,0.239583,Sixteenth,C#5
1532,Right,0,75,80,215.25,0.239583,Sixteenth,D#5
1535,Right,0,77,80,215.5,0.239583,Sixteenth,F5
1533,Left,1,49,80,215.5,0.489583,Eighth,F2_C#3
1536,Right,0,78,80,215.75,0.239583,Sixteenth,F#5
1539,Right,0,79,80,216.0,0.239583,Sixteenth,G5
1537,Left,1,48,80,216.0,0.489583,Eighth,D#2_C3
1540,Right,0,80,80,216.25,0.239583,Sixteenth,G#5
1541,Left,1,49,80,216.5,0.489583,Eighth,C#3_C#2
1543,Right,0,82,80,216.5,0.239583,Sixteenth,A#5
1544,Right,0,80,80,216.75,0.239583,Sixteenth,G#5
1547,Right,0,78,80,217.0,0.239583,Sixteenth,F#5
1545,Left,1,51,80,217.0,0.489583,Eighth,D#3_C3
1548,Right,0,77,80,217.25,0.239583,Sixteenth,F5
1550,Right,0,75,80,217.5,0.239583,Sixteenth,D#5
1549,Left,1,49,80,217.5,0.489583,Eighth,F3_C#3
1552,Right,0,73,80,217.75,0.239583,Sixteenth,C#5
1553,Left,1,60,80,218.0,0.239583,Sixteenth,C4
1554,Right,0,68,80,218.0,0.489583,Eighth,G#4
1555,Left,1,61,80,218.25,0.239583,Sixteenth,C#4
1556,Left,1,60,80,218.5,0.239583,Sixteenth,C4
1557,Left,1,58,80,218.75,0.239583,Sixteenth,A#3
1558,Right,0,56,80,219.0,1.489583,Sixteenth,G#3_F#4
1560,Right,0,58,80,219.25,0.239583,Sixteenth,A#3
1561,Right,0,60,80,219.5,0.239583,Sixteenth,C4
1562,Right,0,61,80,219.75,0.239583,Sixteenth,C#4
1563,Right,0,62,80,220.0,0.239583,Sixteenth,D4
1564,Right,0,63,80,220.25,0.239583,Sixteenth,D#4
1565,Right,0,60,80,220.5,0.489583,Sixteenth,F4_C4
1567,Right,0,61,80,220.75,0.239583,Sixteenth,C#4
1570,Left,1,49,80,221.0,0.489583,Eighth,C#3_C#2
1568,Right,0,70,80,221.0,0.989583,Quarter,E4_A#4
1572,Right,0,65,80,221.25,0.239583,Sixteenth,F4
1573,Right,0,66,80,221.5,0.239583,Sixteenth,F#4
1574,Right,0,65,80,221.75,0.239583,Sixteenth,F4
1576,Left,1,48,100,222.0,1.489583,DottedQuarter,C3_C2
1575,Right,0,62,80,222.0,0.239583,Sixteenth,D4
1578,Right,0,63,80,222.25,0.239583,Sixteenth,D#4
1579,Right,0,67,80,222.5,0.239583,Sixteenth,G4
1580,Right,0,68,80,222.75,0.239583,Sixteenth,G#4
1581,Right,0,66,80,223.0,0.239583,Sixteenth,F#4
1582,Right,0,67,80,223.25,0.239583,Sixteenth,G4
1583,Left,1,34,80,223.5,0.489583,Eighth,A#2_A#1
1585,Right,0,68,80,223.5,0.239583,Sixteenth,G#4
1586,Right,0,67,80,223.75,0.239583,Sixteenth,G4
1587,Left,1,39,80,224.0,0.989583,Quarter,D#3_D#2
1589,Right,0,73,100,224.0,0.489583,Eighth,C#5_A4
1591,Right,0,70,80,224.25,0.239583,Sixteenth,A#4
1592,Right,0,72,80,224.5,0.239583,Sixteenth,C5
1593,Right,0,70,80,224.75,0.239583,Sixteenth,A#4
1594,Right,0,72,103,225.0,1.489583,DottedQuarter,G4_C5
1596,Right,0,68,80,225.25,0.239583,Sixteenth,G#4
1597,Right,0,70,80,225.5,0.239583,Sixteenth,A#4
1598,Right,0,68,80,225.75,0.239583,Sixteenth,G#4
1599,Right,0,66,80,226.0,0.239583,Sixteenth,F#4
1600,Right,0,67,80,226.25,0.239583,Sixteenth,G4
1601,Right,0,68,80,226.5,0.489583,Sixteenth,G#4_A#4
1603,Right,0,67,80,226.75,0.239583,Sixteenth,G4
1604,Right,0,69,80,227.0,0.989583,Sixteenth,D#5_A4
1606,Left,1,55,80,227.0,0.489583,Eighth,G3_G2
1608,Right,0,70,80,227.25,0.239583,Sixteenth,A#4
1609,Right,0,72,80,227.5,0.239583,Sixteenth,C5
1610,Right,0,70,80,227.75,0.239583,Sixteenth,A#4
1611,Right,0,68,80,228.0,0.239583,Sixteenth,G#4
1612,Left,1,41,102,228.0,1.489583,DottedQuarter,F3_F2
1614,Right,0,70,80,228.25,0.239583,Sixteenth,A#4
1615,Right,0,72,80,228.5,0.239583,Sixteenth,C5
1616,Right,0,73,80,228.75,0.239583,Sixteenth,C#5
1617,Right,0,72,80,229.0,0.239583,Sixteenth,C5
1618,Right,0,73,80,229.25,0.239583,Sixteenth,C#5
1619,Left,1,39,80,229.5,0.489583,Eighth,D#3_D#2
1621,Right,0,71,80,229.5,0.239583,Sixteenth,B4
1622,Right,0,72,80,229.75,0.239583,Sixteenth,C5
1623,Right,0,71,80,230.0,0.489583,Sixteenth,F5_B4
1625,Left,1,56,80,230.0,0.989583,Quarter,G#3_G#2
1627,Right,0,72,80,230.25,0.239583,Sixteenth,C5
1628,Right,0,73,80,230.5,0.239583,Sixteenth,C#5
1629,Right,0,72,80,230.75,0.239583,Sixteenth,C5
1630,Right,0,69,80,231.0,0.489583,Sixteenth,F5_A4
1632,Right,0,70,80,231.25,0.239583,Sixteenth,A#4
1633,Right,0,72,80,231.5,0.489583,Sixteenth,D#5_C5
1635,Right,0,70,80,231.75,0.239583,Sixteenth,A#4
1637,Left,1,55,80,232.0,0.489583,Eighth,G3_G2
1636,Right,0,62,80,232.0,0.239583,Sixteenth,D4
1639,Right,0,63,80,232.25,0.239583,Sixteenth,D#4
1640,Right,0,65,80,232.5,0.239583,Sixteenth,F4
1641,Right,0,63,80,232.75,0.239583,Sixteenth,D#4
1642,Left,1,55,80,233.0,0.489583,Eighth,G3_G2
1643,Right,0,67,80,233.0,0.489583,Sixteenth,G4_C#5
1646,Right,0,68,80,233.25,0.239583,Sixteenth,G#4
1647,Left,1,41,80,233.5,0.489583,Eighth,F3_F2
1648,Right,0,70,80,233.5,0.239583,Sixteenth,A#4
1650,Right,0,68,80,233.75,0.239583,Sixteenth,G#4
1651,Right,0,73,80,234.0,0.489583,Eighth,G4_C#5
1653,Right,0,68,80,234.25,0.239583,Sixteenth,G#4
1654,Right,0,70,80,234.5,0.489583,Sixteenth,C5_A#4
1656,Right,0,68,80,234.75,0.239583,Sixteenth,G#4
1657,Right,0,67,80,235.0,0.239583,Sixteenth,G4
1658,Left,1,51,80,235.0,0.489583,Eighth,D#4_D#3
1660,Right,0,68,80,235.25,0.239583,Sixteenth,G#4
1661,Right,0,70,80,235.5,0.489583,Sixteenth,C#5_A#4
1663,Right,0,71,80,235.75,0.239583,Sixteenth,B4
1666,Right,0,91,100,236.0,0.239583,Sixteenth,G6
1664,Left,1,72,80,236.0,0.489583,Sixteenth,D#4_C5
1667,Right,0,92,100,236.125,0.239583,Sixteenth,G#6
1669,Left,1,70,80,236.25,0.239583,Sixteenth,A#4
1668,Right,0,91,100,236.25,0.239583,Sixteenth,G6
1670,Right,0,92,100,236.375,0.239583,Sixteenth,G#6
1672,Left,1,61,80,236.5,0.489583,Eighth,C#4_A4
1671,Right,0,91,100,236.5,0.239583,Sixteenth,G6
1674,Right,0,92,100,236.625,0.239583,Sixteenth,G#6
1676,Left,1,70,80,236.75,0.239583,Sixteenth,A#4
1675,Right,0,91,100,236.75,0.239583,Sixteenth,G6
1677,Right,0,92,100,236.875,0.239583,Sixteenth,G#6
1678,Right,0,91,100,237.0,0.239583,Sixteenth,G6
1679,Left,1,61,80,237.0,0.489583,Eighth,C#4_A#4
1681,Right,0,92,100,237.125,0.239583,Sixteenth,G#6
1683,Right,0,91,100,237.25,0.239583,Sixteenth,G6
1682,Left,1,68,80,237.25,0.239583,Sixteenth,G#4
1684,Right,0,92,100,237.375,0.239583,Sixteenth,G#6
1686,Right,0,91,100,237.5,0.239583,Sixteenth,G6
1685,Left,1,60,80,237.5,0.489583,Eighth,G4_C4
1688,Right,0,92,100,237.625,0.239583,Sixteenth,G#6
1690,Right,0,89,100,237.75,0.239583,Sixteenth,F6
1689,Left,1,68,80,237.75,0.239583,Sixteenth,G#4
1691,Right,0,91,100,237.875,0.114583,ThirtySecond,G6
1692,Right,0,92,100,238.0,0.989583,Quarter,G#6
1693,Left,1,48,80,238.5,0.489583,Eighth,C3
1694,Left,1,60,100,239.0,0.989583,Quarter,C4
1695,Left,1,67,80,239.5,0.489583,Eighth,G4
1696,Right,0,92,80,239.5,0.239583,Sixteenth,G#6
1697,Right,0,91,80,239.75,0.239583,Sixteenth,G6
1699,Left,1,68,80,240.0,0.989583,Quarter,G#4
1698,Right,0,89,80,240.0,0.239583,Sixteenth,F6
1700,Right,0,87,80,240.25,0.239583,Sixteenth,D#6
1701,Right,0,85,80,240.5,0.239583,Sixteenth,C#6
1702,Right,0,84,80,240.75,0.239583,Sixteenth,C6
1703,Right,0,89,80,241.0,0.989583,Quarter,F6
1704,Left,1,44,80,241.5,0.489583,Eighth,G#2
1705,Left,1,56,100,242.0,0.989583,Quarter,G#3
1706,Right,0,89,80,242.5,0.239583,Sixteenth,F6
1707,Left,1,64,80,242.5,0.489583,Eighth,E4
1708,Right,0,87,80,242.75,0.239583,Sixteenth,D#6
1709,Right,0,85,80,243.0,0.239583,Sixteenth,C#6
1710,Left,1,65,80,243.0,0.989583,Quarter,F4
1711,Right,0,84,80,243.25,0.239583,Sixteenth,C6
1712,Right,0,82,80,243.5,0.239583,Sixteenth,A#5
1713,Right,0,80,80,243.75,0.239583,Sixteenth,G#5
1714,Right,0,85,80,244.0,0.989583,Quarter,C#6
1715,Left,1,41,80,244.5,0.489583,Eighth,F2
1716,Left,1,53,80,245.0,0.489583,Eighth,F3
1719,Left,1,57,80,245.5,0.489583,Eighth,A3
1717,Right,0,75,80,245.5,0.489583,Eighth,D#5_C#6
1720,Right,0,84,80,245.75,0.239583,Sixteenth,C6
1722,Right,0,82,80,246.0,0.489583,Sixteenth,C#5_A#5
1721,Left,1,58,80,246.0,0.489583,Eighth,A#3
1724,Right,0,84,80,246.25,0.239583,Sixteenth,C6
1727,Left,1,62,80,246.5,0.489583,Eighth,D4
1725,Right,0,70,80,246.5,0.489583,Eighth,A#5_A#4
1728,Right,0,80,80,246.75,0.239583,Sixteenth,G#5
1729,Left,1,63,80,247.0,0.489583,Eighth,D#4
1730,Right,0,79,80,247.0,0.489583,Sixteenth,G5_A#4
1732,Right,0,80,80,247.25,0.239583,Sixteenth,G#5
1733,Right,0,79,80,247.5,0.239583,Sixteenth,G5
1734,Right,0,77,80,247.75,0.239583,Sixteenth,F5
1736,Left,1,58,101,248.0,1.489583,DottedQuarter,C#4_A#3
1735,Right,0,75,80,248.0,0.239583,Sixteenth,D#5
1738,Right,0,77,80,248.25,0.239583,Sixteenth,F5
1739,Right,0,79,80,248.5,0.239583,Sixteenth,G5
1740,Right,0,80,80,248.75,0.239583,Sixteenth,G#5
1741,Right,0,81,80,249.0,0.239583,Sixteenth,A5
1742,Right,0,82,80,249.25,0.239583,Sixteenth,A#5
1743,Right,0,84,80,249.5,0.239583,Sixteenth,C6
1744,Left,1,58,80,249.5,0.489583,Eighth,C#4_A#3
1746,Right,0,82,80,249.75,0.239583,Sixteenth,A#5
1749,Right,0,80,80,250.0,0.239583,Sixteenth,G#5
1747,Left,1,58,80,250.0,0.489583,Eighth,C#4_A#3
1750,Right,0,82,80,250.25,0.239583,Sixteenth,A#5
1751,Left,1,60,80,250.5,0.489583,Eighth,G#3_C4
1752,Right,0,84,80,250.5,0.239583,Sixteenth,C6
1754,Right,0,85,80,250.75,0.239583,Sixteenth,C#6
1756,Right,0,85,80,251.0,0.239583,Sixteenth,C#6
1755,Left,1,49,80,251.0,0.489583,Eighth,C#3_A#3
1758,Right,0,87,80,251.25,0.239583,Sixteenth,D#6
1759,Left,1,48,80,251.5,0.489583,Eighth,G#3_C3
1760,Right,0,89,80,251.5,0.239583,Sixteenth,F6
1762,Right,0,87,80,251.75,0.239583,Sixteenth,D#6
1764,Left,1,55,80,252.0,0.489583,Eighth,G3_A#2
1763,Right,0,85,80,252.0,0.239583,Sixteenth,C#6
1766,Right,0,84,80,252.25,0.239583,Sixteenth,C6
1768,Left,1,56,80,252.5,0.489583,Eighth,G#3_C3
1767,Right,0,82,80,252.5,0.239583,Sixteenth,A#5
1770,Right,0,80,80,252.75,0.239583,Sixteenth,G#5
1771,Left,1,43,80,253.0,0.239583,Sixteenth,G2
1772,Right,0,82,80,253.0,0.489583,Eighth,C#5_A#5
1774,Left,1,44,80,253.25,0.239583,Sixteenth,G#2
1775,Left,1,43,80,253.5,0.239583,Sixteenth,G2
1776,Left,1,41,80,253.75,0.239583,Sixteenth,F2
1777,Right,0,70,94,254.0,1.489583,DottedQuarter,C#5_A#4
1778,Left,1,39,80,254.0,0.239583,Sixteenth,D#2
1780,Left,1,41,80,254.25,0.239583,Sixteenth,F2
1781,Left,1,43,80,254.5,0.239583,Sixteenth,G2
1782,Left,1,44,80,254.75,0.239583,Sixteenth,G#2
1783,Left,1,45,80,255.0,0.239583,Sixteenth,A2
1784,Left,1,46,80,255.25,0.239583,Sixteenth,A#2
1787,Left,1,48,80,255.5,0.239583,Sixteenth,C3
1785,Right,0,65,80,255.5,0.489583,Eighth,F4_C#5
1788,Left,1,46,80,255.75,0.239583,Sixteenth,A#2
1791,Left,1,43,80,256.0,0.239583,Sixteenth,G2
1789,Right,0,65,80,256.0,0.489583,Eighth,F4_C#5
1792,Left,1,44,80,256.25,0.239583,Sixteenth,G#2
1794,Right,0,72,80,256.5,0.489583,Eighth,D#4_C5
1793,Left,1,46,80,256.5,0.239583,Sixteenth,A#2
1796,Left,1,48,80,256.75,0.239583,Sixteenth,C3
1799,Left,1,49,80,257.0,0.239583,Sixteenth,C#3
1797,Right,0,61,80,257.0,0.489583,Eighth,C#4_A#4
1800,Left,1,51,80,257.25,0.239583,Sixteenth,D#3
1803,Left,1,53,80,257.5,0.239583,Sixteenth,F3
1801,Right,0,60,80,257.5,0.489583,Eighth,G#4_C4
1804,Left,1,51,80,257.75,0.239583,Sixteenth,D#3
1807,Left,1,49,80,258.0,0.239583,Sixteenth,C#3
1805,Right,0,58,80,258.0,0.489583,Eighth,G4_A#3
1808,Left,1,48,80,258.25,0.239583,Sixteenth,C3
1811,Left,1,46,80,258.5,0.239583,Sixteenth,A#2
1809,Right,0,68,80,258.5,0.489583,Eighth,G#4_C4
1812,Left,1,44,80,258.75,0.239583,Sixteenth,G#2
1815,Right,0,68,80,259.0,0.239583,Sixteenth,G#4
1813,Left,1,63,101,259.0,0.489583,Eighth,F#3_D#4
1816,Right,0,70,80,259.25,0.239583,Sixteenth,A#4
1818,Right,0,72,80,259.5,0.239583,Sixteenth,C5
1817,Left,1,61,80,259.5,0.489583,Eighth,F3_C#4
1820,Right,0,73,80,259.75,0.239583,Sixteenth,C#5
1823,Right,0,75,80,260.0,0.239583,Sixteenth,D#5
1821,Left,1,60,80,260.0,0.489583,Eighth,D#3_C4
1824,Right,0,77,80,260.25,0.239583,Sixteenth,F5
1825,Left,1,49,80,260.5,0.489583,Eighth,C#3_A#3
1826,Right,0,78,80,260.5,0.239583,Sixteenth,F#5
1828,Right,0,77,80,260.75,0.239583,Sixteenth,F5
1831,Right,0,75,80,261.0,0.239583,Sixteenth,D#5
1829,Left,1,56,80,261.0,0.489583,Eighth,G#3_C3
1832,Right,0,73,80,261.25,0.239583,Sixteenth,C#5
1834,Left,1,58,80,261.5,0.489583,Eighth,C#3_A#3
1833,Right,0,72,80,261.5,0.239583,Sixteenth,C5
1836,Right,0,70,80,261.75,0.239583,Sixteenth,A#4
1838,Right,0,66,92,262.0,0.489583,Eighth,F#4_D#5
1837,Left,1,45,80,262.0,0.239583,Sixteenth,A2
1840,Left,1,46,80,262.25,0.239583,Sixteenth,A#2
1841,Left,1,48,80,262.5,0.239583,Sixteenth,C3
1842,Right,0,65,80,262.5,0.489583,Eighth,F4_C#5
1844,Left,1,49,80,262.75,0.239583,Sixteenth,C#3
1845,Left,1,51,80,263.0,0.239583,Sixteenth,D#3
1846,Right,0,63,80,263.0,0.489583,Eighth,D#4_C5
1848,Left,1,53,80,263.25,0.239583,Sixteenth,F3
1849,Right,0,61,80,263.5,0.489583,Eighth,C#4_A#4
1850,Left,1,54,80,263.5,0.239583,Sixteenth,F#3
1852,Left,1,53,80,263.75,0.239583,Sixteenth,F3
1855,Left,1,51,80,264.0,0.239583,Sixteenth,D#3
1853,Right,0,69,80,264.0,0.489583,Eighth,C4_A4
1856,Left,1,49,80,264.25,0.239583,Sixteenth,C#3
1857,Right,0,70,80,264.5,0.489583,Eighth,C#4_A#4
1858,Left,1,48,80,264.5,0.239583,Sixteenth,C3
1860,Left,1,46,80,264.75,0.239583,Sixteenth,A#2
1861,Left,1,44,100,265.0,0.489583,Eighth,G#2_D3
1863,Left,1,51,80,265.25,0.239583,Sixteenth,D#3
1864,Left,1,53,80,265.5,0.489583,Sixteenth,G2_F3
1866,Left,1,55,80,265.75,0.239583,Sixteenth,G3
1867,Left,1,56,80,266.0,0.489583,Sixteenth,G#3_F2
1869,Left,1,58,80,266.25,0.239583,Sixteenth,A#3
1870,Left,1,59,80,266.5,0.489583,Sixteenth,D#2_B3
1872,Left,1,58,80,266.75,0.239583,Sixteenth,A#3
1873,Left,1,56,80,267.0,0.489583,Sixteenth,G#3_C#2
1875,Left,1,55,80,267.25,0.239583,Sixteenth,G3
1876,Left,1,39,80,267.5,0.489583,Eighth,F3_D#2
1878,Left,1,51,80,267.75,0.239583,Sixteenth,D#3
1879,Left,1,52,80,268.0,0.489583,Sixteenth,E3_A#2
1881,Left,1,53,80,268.25,0.239583,Sixteenth,F3
1882,Left,1,44,80,268.5,0.489583,Eighth,G3_G#2
1884,Left,1,56,80,268.75,0.239583,Sixteenth,G#3
1885,Left,1,43,80,269.0,0.489583,Eighth,G2_A#3
1887,Left,1,60,80,269.25,0.239583,Sixteenth,C4
1888,Left,1,61,80,269.5,0.489583,Sixteenth,F2_C#4
1890,Left,1,60,80,269.75,0.239583,Sixteenth,C4
1891,Left,1,58,80,270.0,0.489583,Sixteenth,D#2_A#3
1893,Left,1,56,80,270.25,0.239583,Sixteenth,G#3
1894,Left,1,55,80,270.5,0.489583,Sixteenth,G3_F2
1896,Left,1,53,80,270.75,0.239583,Sixteenth,F3
1899,Left,1,53,80,271.0,0.239583,Sixteenth,F3
1897,Right,0,71,100,271.0,0.489583,Eighth,D#5_B4
1900,Left,1,54,80,271.25,0.239583,Sixteenth,F#3
1903,Left,1,56,80,271.5,0.239583,Sixteenth,G#3
1901,Right,0,73,90,271.5,0.489583,Eighth,C#5_A#4
1904,Left,1,58,80,271.75,0.239583,Sixteenth,A#3
1906,Left,1,59,80,272.0,0.239583,Sixteenth,B3
1905,Right,0,71,80,272.0,0.489583,Eighth,G#4_B4
1908,Left,1,61,80,272.25,0.239583,Sixteenth,C#4
1910,Right,0,66,80,272.5,0.489583,Eighth,F#4_A#4
1909,Left,1,63,80,272.5,0.239583,Sixteenth,D#4
1912,Left,1,61,80,272.75,0.239583,Sixteenth,C#4
1913,Left,1,59,80,273.0,0.239583,Sixteenth,B3
1914,Right,0,68,80,273.0,0.489583,Eighth,G#4_F4
1916,Left,1,58,80,273.25,0.239583,Sixteenth,A#3
1919,Left,1,56,80,273.5,0.239583,Sixteenth,G#3
1917,Right,0,70,80,273.5,0.489583,Eighth,F#4_A#4
1920,Left,1,54,80,273.75,0.239583,Sixteenth,F#3
1921,Right,0,85,110,274.0,0.489583,Eighth,E5_C#6
1923,Left,1,43,80,274.0,0.239583,Sixteenth,G2
1924,Left,1,44,80,274.25,0.239583,Sixteenth,G#2
1927,Left,1,46,80,274.5,0.239583,Sixteenth,A#2
1925,Right,0,75,90,274.5,0.489583,Eighth,D#5_B5
1928,Left,1,47,80,274.75,0.239583,Sixteenth,B2
1929,Left,1,49,80,275.0,0.239583,Sixteenth,C#3
1930,Right,0,73,80,275.0,0.489583,Eighth,C#5_A#5
1932,Left,1,51,80,275.25,0.239583,Sixteenth,D#3
1934,Right,0,71,80,275.5,0.489583,Eighth,G#5_B4
1933,Left,1,52,80,275.5,0.239583,Sixteenth,E3
1936,Left,1,51,80,275.75,0.239583,Sixteenth,D#3
1939,Left,1,49,80,276.0,0.239583,Sixteenth,C#3
1937,Right,0,79,80,276.0,0.489583,Eighth,G5_A#4
1940,Left,1,47,81,276.25,0.239583,Sixteenth,B2
1941,Left,1,46,83,276.5,0.239583,Sixteenth,A#2
1942,Right,0,80,83,276.5,0.989583,Quarter,G#5_B4
1944,Left,1,44,85,276.75,0.239583,Sixteenth,G#2
1945,Left,1,42,87,277.0,0.239583,Sixteenth,F#2
1946,Left,1,40,89,277.25,0.239583,Sixteenth,E2
1947,Right,0,80,91,277.5,0.989583,Quarter,G#5_B5
1948,Left,1,39,91,277.5,0.239583,Sixteenth,D#2
1950,Left,1,38,93,277.75,0.239583,Sixteenth,D2
1951,Left,1,39,95,278.0,0.239583,Sixteenth,D#2
1952,Left,1,43,97,278.25,0.239583,Sixteenth,G2
1954,Right,0,79,99,278.5,0.489583,Eighth,G5_A#5
1953,Left,1,46,99,278.5,0.239583,Sixteenth,A#2
1956,Left,1,51,100,278.75,0.239583,Sixteenth,D#3
1958,Left,1,43,110,279.0,1.989583,Half,G3_G2
1957,Right,0,76,110,279.0,1.489583,DottedQuarter,E5_C#5
1961,Left,1,56,110,279.125,0.239583,Sixteenth,G#3
1962,Left,1,55,110,279.25,0.239583,Sixteenth,G3
1963,Left,1,56,110,279.375,0.239583,Sixteenth,G#3
1964,Left,1,55,110,279.5,0.239583,Sixteenth,G3
1965,Left,1,56,110,279.625,0.239583,Sixteenth,G#3
1966,Left,1,55,110,279.75,0.239583,Sixteenth,G3
1967,Left,1,56,110,279.875,0.239583,Sixteenth,G#3
1968,Left,1,55,110,280.0,0.239583,Sixteenth,G3
1969,Left,1,56,110,280.125,0.239583,Sixteenth,G#3
1970,Left,1,55,110,280.25,0.239583,Sixteenth,G3
1971,Left,1,56,110,280.375,0.239583,Sixteenth,G#3
1973,Right,0,73,110,280.5,0.989583,Quarter,E5_C#5
1972,Left,1,55,110,280.5,0.239583,Sixteenth,G3
1975,Left,1,56,110,280.625,0.239583,Sixteenth,G#3
1976,Left,1,53,110,280.75,0.239583,Sixteenth,F3
1977,Left,1,55,110,280.875,0.114583,ThirtySecond,G3
1978,Left,1,44,110,281.0,1.989583,Half,G#3_G#2
1980,Right,0,71,110,281.5,0.489583,Eighth,D#5_B4
1982,Right,0,73,110,282.0,0.489583,Eighth,C#5_A#4
1984,Right,0,71,110,282.5,0.489583,Eighth,G#4_B4
1988,Right,0,70,110,283.0,0.489583,Eighth,G4_A#4
1986,Left,1,51,110,283.0,0.989583,Quarter,D#3_D#2
1990,Right,0,68,110,283.5,0.489583,Eighth,G#4_B4
1994,Right,0,70,110,284.0,0.489583,Eighth,C#5_A#4
1992,Left,1,49,110,284.0,0.989583,Quarter,C#3_C#2
1996,Right,0,71,110,284.5,0.989583,Quarter,D#5_B4
1998,Left,1,53,110,285.0,1.989583,Sixteenth,F3_F2
2000,Left,1,54,110,285.125,0.239583,Sixteenth,F#3
2001,Left,1,53,110,285.25,0.239583,Sixteenth,F3
2002,Left,1,54,110,285.375,0.239583,Sixteenth,F#3
2003,Left,1,53,110,285.5,0.239583,Sixteenth,F3
2004,Right,0,71,110,285.5,0.489583,Eighth,D#5_B4
2006,Left,1,54,110,285.625,0.239583,Sixteenth,F#3
2007,Left,1,53,110,285.75,0.239583,Sixteenth,F3
2008,Left,1,54,110,285.875,0.239583,Sixteenth,F#3
2010,Right,0,71,110,286.0,1.489583,DottedQuarter,D#5_B4
2009,Left,1,53,110,286.0,0.239583,Sixteenth,F3
2012,Left,1,54,110,286.125,0.239583,Sixteenth,F#3
2013,Left,1,53,110,286.25,0.239583,Sixteenth,F3
2014,Left,1,54,110,286.375,0.239583,Sixteenth,F#3
2015,Left,1,53,110,286.5,0.239583,Sixteenth,F3
2016,Left,1,54,110,286.625,0.239583,Sixteenth,F#3
2017,Left,1,51,110,286.75,0.239583,Sixteenth,D#3
2018,Left,1,53,110,286.875,0.114583,ThirtySecond,F3
2019,Left,1,54,110,287.0,0.989583,Quarter,F#3_F#2
2021,Right,0,73,110,287.5,0.989583,Quarter,C#5_A#4
2023,Left,1,49,110,288.0,0.989583,Quarter,C#3_C#2
2025,Right,0,71,110,288.5,0.489583,Eighth,G#4_B4
2029,Right,0,70,110,289.0,0.489583,Eighth,F#4_A#4
2027,Left,1,51,110,289.0,0.989583,Quarter,D#3_D#2
2031,Right,0,68,110,289.5,0.489583,Eighth,G#4_F4
2035,Left,1,35,110,290.0,1.489583,DottedQuarter,B2_B1
2033,Right,0,66,110,290.0,0.489583,Eighth,F#4_A#4
2037,Right,0,68,110,290.5,0.489583,Eighth,G#4_B4
2039,Right,0,66,110,291.0,0.489583,Eighth,F#4_C#5
2041,Right,0,75,105,291.5,0.989583,Quarter,F#4_D#5
2043,Left,1,34,105,291.5,0.489583,Eighth,A#2_A#1
2045,Left,1,32,100,292.0,0.489583,Eighth,G#2_G#1
2046,Right,0,65,100,292.0,0.489583,Eighth,F4
2049,Right,0,66,94,292.5,0.989583,Eighth,F#4_C#5
2048,Left,1,46,94,292.5,0.489583,Eighth,A#2_A#1
2052,Right,0,68,89,293.0,0.239583,Sixteenth,G#4
2053,Left,1,47,89,293.0,0.489583,Eighth,B2_B1
2055,Right,0,66,86,293.25,0.239583,Sixteenth,F#4
2056,Right,0,65,83,293.5,0.489583,Sixteenth,F4_C#5
2058,Left,1,37,83,293.5,0.489583,Eighth,C#3_C#2
2060,Right,0,68,81,293.75,0.239583,Sixteenth,G#4
2062,Left,1,42,80,294.0,0.989583,Quarter,F#2_F#1
2061,Right,0,73,80,294.0,0.489583,Sixteenth,C#5_A#4
2065,Right,0,58,80,294.25,0.239583,Sixteenth,A#3
2066,Right,0,61,80,294.5,0.239583,Sixteenth,C#4
2067,Right,0,63,80,294.75,0.239583,Sixteenth,D#4
2068,Right,0,70,80,295.0,0.489583,Eighth,A#4
2069,Right,0,66,80,295.25,0.239583,Sixteenth,F#4
2070,Right,0,65,80,295.5,0.489583,Sixteenth,F4_B4
2072,Right,0,63,80,295.75,0.239583,Sixteenth,D#4
2073,Right,0,73,80,296.0,0.989583,Quarter,F4_C#5
2075,Left,1,49,80,296.25,0.239583,Sixteenth,C#3
2076,Right,0,66,80,296.5,0.239583,Sixteenth,F#4
2077,Left,1,51,80,296.5,0.239583,Sixteenth,D#3
2078,Left,1,53,80,296.75,0.239583,Sixteenth,F3
2079,Right,0,68,80,296.75,0.239583,Sixteenth,G#4
2080,Left,1,54,80,297.0,0.239583,Sixteenth,F#3
2081,Right,0,70,80,297.0,0.989583,Quarter,A#4
2082,Left,1,46,80,297.25,0.239583,Sixteenth,A#2
2083,Left,1,49,80,297.5,0.239583,Sixteenth,C#3
2084,Left,1,54,80,297.75,0.239583,Sixteenth,F#3
2085,Left,1,58,80,298.0,0.489583,Eighth,A#3
2086,Right,0,78,80,298.25,0.239583,Sixteenth,F#5
2087,Left,1,59,80,298.5,0.489583,Eighth,B3
2088,Right,0,77,80,298.5,0.239583,Sixteenth,F5
2089,Right,0,75,80,298.75,0.239583,Sixteenth,D#5
2090,Left,1,61,80,299.0,0.989583,Quarter,C#4
2091,Right,0,77,80,299.0,0.489583,Eighth,F5
2092,Right,0,78,80,299.5,0.239583,Sixteenth,F#5
2093,Right,0,80,80,299.75,1.489583,DottedQuarter,G#5
2094,Right,0,77,80,300.0,0.239583,Sixteenth,F5
2095,Right,0,65,80,300.25,0.239583,Sixteenth,F4
2096,Right,0,68,81,300.5,0.239583,Sixteenth,G#4
2097,Right,0,73,82,300.75,0.239583,Sixteenth,C#5
2098,Right,0,77,84,301.0,0.489583,Eighth,F5
2099,Right,0,89,85,301.25,0.239583,Sixteenth,F6
2100,Right,0,78,86,301.5,0.489583,Eighth,F#5_D#6
2102,Right,0,85,88,301.75,0.239583,Sixteenth,C#6
2103,Right,0,84,89,302.0,0.989583,Eighth,G#5_C6
2105,Left,1,56,90,302.25,0.239583,Sixteenth,G#3
2106,Left,1,58,92,302.5,0.239583,Sixteenth,A#3
2107,Right,0,85,92,302.5,0.239583,Sixteenth,C#6
2108,Left,1,60,93,302.75,0.239583,Sixteenth,C4
2109,Right,0,87,93,302.75,0.239583,Sixteenth,D#6
2111,Right,0,77,94,303.0,1.239583,TiedQuarter-Sixteenth,G#5_F5
2110,Left,1,61,94,303.0,0.239583,Sixteenth,C#4
2113,Left,1,53,96,303.25,0.239583,Sixteenth,F3
2114,Left,1,56,97,303.5,0.239583,Sixteenth,G#3
2115,Left,1,61,98,303.75,0.239583,Sixteenth,C#4
2116,Left,1,53,100,304.0,0.489583,Eighth,F3
2117,Right,0,77,101,304.25,0.239583,Sixteenth,F5
2118,Right,0,75,102,304.5,0.239583,Sixteenth,D#5
2119,Left,1,54,102,304.5,0.489583,Eighth,F#3
2120,Right,0,73,104,304.75,0.239583,Sixteenth,C#5
2121,Right,0,72,105,305.0,0.239583,Sixteenth,C5
2122,Left,1,56,105,305.0,1.239583,TiedQuarter-Sixteenth,G#3
2123,Right,0,70,106,305.25,0.239583,Sixteenth,A#4
2124,Right,0,68,108,305.5,0.239583,Sixteenth,G#4
2125,Right,0,66,109,305.75,0.239583,Sixteenth,F#4
2126,Right,0,77,110,306.0,0.489583,Eighth,F5_F4
2128,Left,1,65,110,306.25,0.239583,Sixteenth,F4
2130,Left,1,63,110,306.5,0.239583,Sixteenth,D#4
2129,Right,0,78,110,306.5,0.489583,Eighth,F#5
2131,Left,1,61,110,306.75,0.239583,Sixteenth,C#4
2133,Left,1,60,110,307.0,0.239583,Sixteenth,C4
2132,Right,0,80,127,307.0,1.239583,TiedQuarter-Sixteenth,G#5
2135,Left,1,58,110,307.25,0.239583,Sixteenth,A#3
2134,Right,0,68,110,307.25,0.239583,Sixteenth,G#4
2137,Left,1,56,110,307.5,0.239583,Sixteenth,G#3
2136,Right,0,70,110,307.5,0.239583,Sixteenth,A#4
2139,Left,1,54,110,307.75,0.239583,Sixteenth,F#3
2138,Right,0,72,110,307.75,0.239583,Sixteenth,C5
2141,Left,1,53,110,308.0,0.489583,Eighth,F3
2140,Right,0,74,110,308.0,0.489583,Eighth,D5
2142,Right,0,77,110,308.25,0.239583,Sixteenth,F5
2143,Left,1,56,110,308.5,0.489583,Eighth,G#3
2144,Right,0,70,110,308.5,0.739583,DottedEighth,D#5_A#4
2146,Right,0,74,110,308.75,0.239583,Sixteenth,D5
2147,Left,1,54,110,309.0,0.239583,Sixteenth,F#3
2148,Right,0,75,110,309.0,0.989583,Quarter,D#5
2149,Right,0,54,110,309.25,0.239583,Sixteenth,F#3
2150,Right,0,58,110,309.5,0.239583,Sixteenth,A#3
2151,Right,0,63,110,309.75,0.239583,Sixteenth,D#4
2152,Right,0,66,110,310.0,0.489583,Eighth,F#4
2153,Right,0,90,110,310.25,0.239583,Sixteenth,F#6
2154,Right,0,89,110,310.5,0.489583,Sixteenth,G#4_F6
2156,Right,0,87,110,310.75,0.239583,Sixteenth,D#6
2157,Right,0,70,127,311.0,1.489583,DottedQuarter,D6_A#4
2159,Left,1,61,110,311.25,0.239583,Sixteenth,C#4
2160,Right,0,83,110,311.25,0.239583,Sixteenth,B5
2161,Left,1,63,110,311.5,0.239583,Sixteenth,D#4
2162,Right,0,82,110,311.5,0.239583,Sixteenth,A#5
2164,Left,1,65,110,311.75,0.239583,Sixteenth,F4
2163,Right,0,80,110,311.75,0.239583,Sixteenth,G#5
2165,Right,0,78,110,312.0,0.989583,Quarter,F#5
2166,Left,1,63,110,312.0,0.239583,Sixteenth,D#4
2167,Left,1,54,110,312.25,0.239583,Sixteenth,F#3
2168,Right,0,66,110,312.5,0.989583,Quarter,F#4
2169,Left,1,58,110,312.5,0.239583,Sixteenth,A#3
2170,Left,1,51,110,312.75,0.239583,Sixteenth,D#3
2171,Left,1,54,110,313.0,0.489583,Eighth,F#3
2172,Right,0,78,110,313.25,0.239583,Sixteenth,F#5
2174,Right,0,77,110,313.5,0.239583,Sixteenth,F5
2173,Left,1,56,110,313.5,0.489583,Eighth,G#3
2175,Right,0,75,110,313.75,0.239583,Sixteenth,D#5
2177,Right,0,74,110,314.0,0.239583,Sixteenth,D5
2176,Left,1,58,127,314.0,1.239583,TiedQuarter-Sixteenth,A#3
2178,Right,0,71,110,314.25,0.239583,Sixteenth,B4
2179,Right,0,70,110,314.5,0.239583,Sixteenth,A#4
2180,Right,0,68,110,314.75,0.239583,Sixteenth,G#4
2181,Right,0,78,110,315.0,0.489583,Eighth,F#5
2182,Left,1,54,110,315.25,0.239583,Sixteenth,F#3
2183,Left,1,53,110,315.5,0.239583,Sixteenth,F3
2184,Right,0,80,110,315.5,0.489583,Eighth,G#5
2185,Left,1,51,110,315.75,0.239583,Sixteenth,D#3
2186,Left,1,50,110,316.0,0.239583,Sixteenth,D3
2187,Right,0,82,127,316.0,1.239583,TiedQuarter-Sixteenth,A#5
2188,Left,1,47,110,316.25,0.239583,Sixteenth,B2
2189,Left,1,46,110,316.5,0.239583,Sixteenth,A#2
2190,Left,1,44,110,316.75,0.239583,Sixteenth,G#2
2191,Left,1,43,110,317.0,0.489583,Eighth,G2
2192,Right,0,79,110,317.25,0.239583,Sixteenth,G5
2194,Right,0,77,110,317.5,0.239583,Sixteenth,F5
2193,Left,1,44,110,317.5,0.489583,Eighth,G#2
2195,Right,0,75,110,317.75,0.239583,Sixteenth,D#5
2197,Right,0,87,110,318.0,0.239583,Sixteenth,D#6
2196,Left,1,46,110,318.0,0.489583,Eighth,A#2
2198,Right,0,83,110,318.25,0.239583,Sixteenth,B5
2199,Right,0,82,110,318.5,0.239583,Sixteenth,A#5
2200,Left,1,47,110,318.5,0.489583,Eighth,B2
2201,Right,0,80,110,318.75,0.239583,Sixteenth,G#5
2202,Right,0,92,110,319.0,0.239583,Sixteenth,G#6
2203,Left,1,59,126,319.0,1.239583,TiedQuarter-Sixteenth,B3
2204,Right,0,89,110,319.25,0.239583,Sixteenth,F6
2205,Right,0,87,110,319.5,0.239583,Sixteenth,D#6
2206,Right,0,86,110,319.75,0.239583,Sixteenth,D6
2207,Right,0,92,110,320.0,1.239583,TiedQuarter-Sixteenth,G#6
2208,Left,1,56,110,320.25,0.239583,Sixteenth,G#3
2209,Left,1,54,110,320.5,0.239583,Sixteenth,F#3
2210,Left,1,53,110,320.75,0.239583,Sixteenth,F3
2211,Left,1,51,110,321.0,1.989583,Quarter,D#3_A#3
2213,Right,0,80,110,321.25,0.239583,Sixteenth,G#5
2214,Right,0,78,110,321.5,0.239583,Sixteenth,F#5
2215,Right,0,77,110,321.75,0.239583,Sixteenth,F5
2216,Right,0,80,110,322.0,0.239583,Sixteenth,G#5
2217,Left,1,50,110,322.0,0.989583,Quarter,D3
2218,Right,0,77,110,322.25,0.239583,Sixteenth,F5
2219,Right,0,75,110,322.5,0.239583,Sixteenth,D#5
2220,Right,0,74,110,322.75,0.239583,Sixteenth,D5
2221,Right,0,77,110,323.0,0.239583,Sixteenth,F5
2222,Left,1,74,110,323.0,0.229167,Sixteenth,D5
2223,Left,1,75,110,323.125,0.239583,Sixteenth,D#5
2224,Right,0,70,110,323.25,0.239583,Sixteenth,A#4
2225,Left,1,74,110,323.25,0.239583,Sixteenth,D5
2226,Left,1,75,110,323.375,0.239583,Sixteenth,D#5
2227,Left,1,74,110,323.5,0.239583,Sixteenth,D5
2228,Right,0,69,110,323.5,0.239583,Sixteenth,A4
2229,Left,1,75,110,323.625,0.239583,Sixteenth,D#5
2230,Right,0,70,110,323.75,0.239583,Sixteenth,A#4
2231,Left,1,74,110,323.75,0.239583,Sixteenth,D5
2232,Left,1,75,110,323.875,0.239583,Sixteenth,D#5
2234,Left,1,74,110,324.0,0.239583,Sixteenth,D5
2233,Right,0,82,110,324.0,0.239583,Sixteenth,A#5
2235,Left,1,75,110,324.125,0.239583,Sixteenth,D#5
2236,Right,0,77,110,324.25,0.239583,Sixteenth,F5
2237,Left,1,74,110,324.25,0.239583,Sixteenth,D5
2238,Left,1,75,110,324.375,0.239583,Sixteenth,D#5
2240,Left,1,74,110,324.5,0.239583,Sixteenth,D5
2239,Right,0,76,110,324.5,0.239583,Sixteenth,E5
2241,Left,1,75,110,324.625,0.239583,Sixteenth,D#5
2242,Left,1,74,110,324.75,0.239583,Sixteenth,D5
2243,Right,0,77,110,324.75,0.239583,Sixteenth,F5
2244,Left,1,75,110,324.875,0.239583,Sixteenth,D#5
2245,Left,1,74,110,325.0,0.239583,Sixteenth,D5
2246,Right,0,89,110,325.0,0.239583,Sixteenth,F6
2247,Left,1,75,110,325.125,0.239583,Sixteenth,D#5
2248,Right,0,82,110,325.25,0.239583,Sixteenth,A#5
2249,Left,1,74,110,325.25,0.239583,Sixteenth,D5
2250,Left,1,75,110,325.375,0.239583,Sixteenth,D#5
2251,Left,1,74,110,325.5,0.239583,Sixteenth,D5
2252,Right,0,81,110,325.5,0.239583,Sixteenth,A5
2253,Left,1,75,110,325.625,0.239583,Sixteenth,D#5
2255,Right,0,82,110,325.75,0.239583,Sixteenth,A#5
2254,Left,1,74,110,325.75,0.239583,Sixteenth,D5
2256,Left,1,75,110,325.875,0.239583,Sixteenth,D#5
2258,Right,0,94,110,326.0,0.239583,Sixteenth,A#6
2257,Left,1,74,110,326.0,0.239583,Sixteenth,D5
2259,Left,1,75,110,326.125,0.239583,Sixteenth,D#5
2260,Right,0,92,110,326.25,0.239583,Sixteenth,G#6
2261,Left,1,74,110,326.25,0.239583,Sixteenth,D5
2262,Left,1,75,110,326.375,0.239583,Sixteenth,D#5
2264,Left,1,74,110,326.5,0.239583,Sixteenth,D5
2263,Right,0,90,110,326.5,0.239583,Sixteenth,F#6
2265,Left,1,75,110,326.625,0.239583,Sixteenth,D#5
2266,Right,0,89,110,326.75,0.239583,Sixteenth,F6
2267,Left,1,72,110,326.75,0.239583,Sixteenth,C5
2268,Left,1,74,110,326.875,0.114583,ThirtySecond,D5
2270,Left,1,75,110,327.0,1.989583,Half,D#5
2269,Right,0,90,110,327.0,0.989583,Quarter,F#6
2271,Right,0,47,110,328.0,0.989583,Quarter,B2
2272,Right,0,59,127,329.0,1.989583,Half,B3
2273,Left,1,75,110,330.0,0.489583,Eighth,D#5
2274,Left,1,73,110,330.5,0.489583,Eighth,F4_C#5
2276,Right,0,86,110,331.0,0.489583,Eighth,D6
2277,Left,1,63,110,331.0,0.489583,Eighth,D#4_B4
2279,Left,1,61,110,331.5,0.489583,Eighth,C#4_A#4
2282,Right,0,87,110,332.0,1.989583,Half,D#6
2281,Left,1,68,110,332.0,0.489583,Eighth,G#4_B3
2284,Left,1,66,110,332.5,0.489583,Eighth,F#4_A#3
2286,Left,1,71,110,333.0,1.989583,Half,D#4_B4
2288,Right,0,44,110,334.0,0.989583,Quarter,G#2
2289,Right,0,56,126,335.0,1.989583,Half,G#3
2290,Left,1,71,110,336.0,0.489583,Eighth,D#4_B4
2292,Left,1,61,110,336.5,0.489583,Eighth,C#4_A#4
2294,Left,1,59,110,337.0,0.489583,Eighth,G#4_B3
2296,Right,0,82,110,337.0,0.489583,Eighth,A#5
2297,Left,1,58,110,337.5,0.489583,Eighth,F#4_A#3
2299,Right,0,83,110,338.0,1.989583,Half,B5
2300,Left,1,65,110,338.0,0.489583,Eighth,G#3_F4
2302,Left,1,54,110,338.5,0.489583,Eighth,F#3_D#4
2304,Left,1,59,110,339.0,1.989583,Half,G#4_B3
2306,Right,0,41,110,340.0,0.989583,Quarter,F2
2307,Right,0,53,124,341.0,1.989583,Half,F3
2308,Left,1,68,110,342.0,0.489583,Eighth,G#4_B3
2310,Left,1,66,110,342.5,0.489583,Eighth,F#4_A#3
2313,Right,0,82,110,343.0,0.989583,Quarter,A#5
2312,Left,1,56,110,343.0,0.489583,Eighth,G#3_F4
2315,Left,1,58,110,343.5,0.489583,Eighth,F#4_A#3
2318,Left,1,65,110,344.0,0.489583,Eighth,G#3_F4
2317,Right,0,83,110,344.0,1.989583,Half,B5
2320,Left,1,63,110,344.5,0.489583,Eighth,F#3_D#4
2322,Left,1,62,110,345.0,0.489583,Eighth,F3_D4
2324,Left,1,63,110,345.5,0.489583,Eighth,F#3_D#4
2328,Right,0,82,110,346.0,0.989583,Quarter,A#5
2326,Left,1,62,110,346.0,0.489583,Eighth,F3_D4
2329,Left,1,51,110,346.5,0.489583,Eighth,D#3_C4
2331,Left,1,58,110,347.0,0.489583,Eighth,D3_A#3
2333,Right,0,80,110,347.0,2.989583,DottedHalf,G#5
2334,Left,1,60,110,347.5,0.489583,Eighth,D#3_C4
2336,Left,1,62,110,348.0,0.489583,Eighth,F3_D4
2338,Left,1,63,110,348.5,0.489583,Eighth,F#3_D#4
2340,Left,1,55,110,349.0,0.489583,Eighth,G3_E4
2342,Left,1,56,110,349.5,0.489583,Eighth,G#3_F4
2345,Left,1,58,110,350.0,0.489583,Eighth,F#4_A#3
2344,Right,0,92,126,350.0,1.489583,DottedQuarter,G#6
2347,Left,1,65,110,350.5,0.489583,Eighth,G#3_F4
2349,Left,1,63,110,351.0,0.489583,Eighth,F#3_D#4
2351,Left,1,65,110,351.5,0.489583,Eighth,G#3_F4
2353,Left,1,66,110,352.0,0.489583,Eighth,F#4_A#3
2355,Right,0,90,110,352.0,0.489583,Eighth,F#6
2356,Left,1,68,110,352.5,0.489583,Eighth,G#4_B3
2359,Left,1,65,110,353.0,0.489583,Eighth,F4_A4
2358,Right,0,89,110,353.0,0.489583,Eighth,F6
2361,Left,1,70,110,353.5,0.489583,Eighth,F#4_A#4
2364,Left,1,68,110,354.0,0.489583,Eighth,G#4_B4
2363,Right,0,87,110,354.0,0.489583,Eighth,D#6
2366,Left,1,70,110,354.5,0.489583,Eighth,F#4_A#4
2369,Left,1,59,110,355.0,0.489583,Eighth,G#4_B3
2368,Right,0,86,110,355.0,0.489583,Eighth,D6
2371,Left,1,58,110,355.5,0.489583,Eighth,F#4_A#3
2373,Right,0,65,110,356.0,0.489583,Eighth,G#4_F4
2375,Left,1,34,110,356.0,2.989583,DottedHalf,A#2_A#1
2377,Right,0,66,110,356.5,0.489583,Eighth,F#4_D#4
2379,Right,0,65,110,357.0,0.489583,Eighth,G#3_F4
2381,Right,0,66,110,357.5,0.489583,Eighth,F#4_A#3
2383,Right,0,56,110,358.0,0.489583,Eighth,G#3_F4
2385,Right,0,63,110,358.5,0.489583,Eighth,F#3_D#4
2387,Right,0,62,110,359.0,0.489583,Eighth,F3_D4
2388,Left,1,44,110,359.0,2.989583,DottedHalf,G#2_G#1
2391,Right,0,63,110,359.5,0.489583,Eighth,F#3_D#4
2393,Right,0,65,110,360.0,0.489583,Eighth,F4_D4
2395,Right,0,66,110,360.5,0.489583,Eighth,F#4_D#4
2397,Right,0,65,110,361.0,0.489583,Eighth,G#4_F4
2399,Right,0,66,110,361.5,0.489583,Eighth,F#4_A#4
2401,Right,0,72,110,362.0,0.489583,Eighth,D#4_C5
2403,Left,1,44,110,362.0,1.489583,DottedQuarter,G#2_G#1
2405,Right,0,65,110,362.5,0.489583,Eighth,F4_D5
2407,Right,0,66,110,363.0,0.489583,Eighth,F#4_D#5
2409,Right,0,68,110,363.5,0.489583,Eighth,G#4_F5
2411,Left,1,30,110,364.0,0.489583,Eighth,F#2_F#1
2412,Right,0,70,110,364.0,0.489583,Eighth,F#5_A#4
2415,Right,0,79,110,364.5,0.489583,Eighth,G5_B4
2419,Right,0,80,110,365.0,0.489583,Eighth,G#5_F5
2417,Left,1,29,110,365.0,0.489583,Eighth,F2_F1
2421,Right,0,82,110,365.5,0.489583,Eighth,F#5_A#5
2424,Right,0,80,110,366.0,0.489583,Eighth,G#5_B5
2423,Left,1,39,110,366.0,0.489583,Eighth,D#2_D#1
2427,Right,0,78,110,366.5,0.489583,Eighth,F#5_A#5
2431,Left,1,38,110,367.0,0.489583,Eighth,D2_D1
2429,Right,0,71,110,367.0,0.489583,Eighth,G#5_B4
2433,Right,0,78,110,367.5,0.489583,Eighth,F#5_A#4
2436,Right,0,75,110,368.0,0.489583,Eighth,G#4_D#5
2435,Left,1,27,110,368.0,0.489583,Eighth,D#2_D#1
2439,Right,0,66,110,368.5,0.489583,Eighth,F#4
2440,Left,1,58,110,368.5,0.489583,Eighth,A#3
2441,Right,0,73,110,369.0,0.489583,Eighth,F4_C#5
2443,Left,1,56,110,369.0,0.489583,Eighth,G#3
2444,Right,0,63,110,369.5,0.489583,Eighth,D#4
2445,Left,1,54,110,369.5,0.489583,Eighth,F#3
2447,Left,1,53,110,370.0,0.489583,Eighth,F3
2446,Right,0,61,110,370.0,0.489583,Eighth,C5_C#4
2450,Left,1,51,110,370.5,0.489583,Eighth,D#3
2449,Right,0,60,110,370.5,0.489583,Eighth,C4
2451,Left,1,49,110,371.0,0.489583,Eighth,C#3
2452,Right,0,58,110,371.0,2.989583,Eighth,D#4_A#3
2454,Left,1,48,110,371.5,0.489583,Eighth,C3
2455,Right,0,57,110,371.5,0.489583,Eighth,A3
2457,Right,0,54,110,372.0,0.489583,Eighth,F#3
2456,Left,1,46,110,372.0,0.489583,Eighth,A#2
2458,Left,1,44,110,372.5,0.489583,Eighth,G#2
2459,Right,0,53,110,372.5,0.489583,Eighth,F3
2460,Left,1,42,110,373.0,0.489583,Eighth,F#2
2461,Right,0,51,110,373.0,0.489583,Eighth,D#3
2462,Left,1,41,110,373.5,0.489583,Eighth,F2
2463,Right,0,49,110,373.5,0.489583,Eighth,C#3
2466,Left,1,39,110,374.0,2.989583,DottedHalf,D#2
2464,Right,0,81,110,374.0,2.989583,Sixteenth,D#3_C#5_A5
2468,Right,0,82,110,374.125,0.239583,Sixteenth,A#5
2469,Right,0,81,110,374.25,0.239583,Sixteenth,A5
2470,Right,0,82,110,374.375,0.239583,Sixteenth,A#5
2471,Right,0,72,110,374.5,0.489583,Eighth,C5_A5
2473,Right,0,82,110,374.625,0.239583,Sixteenth,A#5
2474,Right,0,81,110,374.75,0.239583,Sixteenth,A5
2475,Right,0,82,110,374.875,0.239583,Sixteenth,A#5
2476,Right,0,81,110,375.0,0.489583,Sixteenth,F5_A5
2478,Right,0,82,110,375.125,0.239583,Sixteenth,A#5
2479,Right,0,81,110,375.25,0.239583,Sixteenth,A5
2480,Right,0,82,110,375.375,0.239583,Sixteenth,A#5
2481,Right,0,75,110,375.5,0.489583,Eighth,D#5_A5
2483,Right,0,82,110,375.625,0.239583,Sixteenth,A#5
2484,Right,0,81,110,375.75,0.239583,Sixteenth,A5
2485,Right,0,82,110,375.875,0.239583,Sixteenth,A#5
2486,Right,0,81,110,376.0,0.489583,Sixteenth,C#5_A5
2488,Right,0,82,110,376.125,0.239583,Sixteenth,A#5
2489,Right,0,81,110,376.25,0.239583,Sixteenth,A5
2490,Right,0,82,110,376.375,0.239583,Sixteenth,A#5
2491,Right,0,81,110,376.5,0.489583,Sixteenth,C5_A5
2493,Right,0,82,110,376.625,0.239583,Sixteenth,A#5
2494,Right,0,81,110,376.75,0.239583,Sixteenth,A5
2495,Right,0,82,110,376.875,0.239583,Sixteenth,A#5
2498,Right,0,78,110,377.0,0.489583,Eighth,F#5_A5
2496,Left,1,36,110,377.0,3.989583,Sixteenth,C2_C1
2500,Right,0,82,110,377.125,0.239583,Sixteenth,A#5
2501,Left,1,37,110,377.125,0.208333,Sixteenth,C#2
2503,Left,1,36,110,377.25,0.208333,Sixteenth,C2
2502,Right,0,81,110,377.25,0.239583,Sixteenth,A5
2504,Left,1,37,110,377.375,0.208333,Sixteenth,C#2
2505,Right,0,82,110,377.375,0.239583,Sixteenth,A#5
2506,Right,0,81,110,377.5,0.489583,Sixteenth,C5_A5
2508,Left,1,36,110,377.5,0.208333,Sixteenth,C2
2509,Right,0,82,110,377.625,0.239583,Sixteenth,A#5
2510,Left,1,37,110,377.625,0.208333,Sixteenth,C#2
2512,Right,0,79,110,377.75,0.239583,Sixteenth,G5
2511,Left,1,36,110,377.75,0.208333,Sixteenth,C2
2513,Left,1,37,110,377.875,0.208333,Sixteenth,C#2
2514,Right,0,81,110,377.875,0.239583,Sixteenth,A5
2515,Right,0,82,110,378.0,2.989583,DottedHalf,D#5_A#5
2516,Left,1,36,110,378.0,0.208333,Sixteenth,C2
2519,Right,0,77,110,378.125,0.239583,Sixteenth,F5
2518,Left,1,37,110,378.125,0.208333,Sixteenth,C#2
2520,Right,0,75,110,378.25,0.239583,Sixteenth,D#5
2521,Left,1,36,110,378.25,0.208333,Sixteenth,C2
2523,Left,1,37,110,378.375,0.208333,Sixteenth,C#2
2522,Right,0,77,110,378.375,0.239583,Sixteenth,F5
2525,Left,1,36,110,378.5,0.208333,Sixteenth,C2
2524,Right,0,75,110,378.5,0.239583,Sixteenth,D#5
2527,Left,1,37,110,378.625,0.208333,Sixteenth,C#2
2526,Right,0,77,110,378.625,0.239583,Sixteenth,F5
2528,Right,0,75,110,378.75,0.239583,Sixteenth,D#5
2529,Left,1,36,110,378.75,0.208333,Sixteenth,C2
2531,Left,1,37,110,378.875,0.208333,Sixteenth,C#2
2530,Right,0,77,110,378.875,0.239583,Sixteenth,F5
2533,Right,0,75,110,379.0,0.239583,Sixteenth,D#5
2532,Left,1,36,110,379.0,0.208333,Sixteenth,C2
2535,Left,1,37,110,379.125,0.208333,Sixteenth,C#2
2534,Right,0,77,110,379.125,0.239583,Sixteenth,F5
2536,Left,1,36,110,379.25,0.208333,Sixteenth,C2
2537,Right,0,75,110,379.25,0.239583,Sixteenth,D#5
2539,Left,1,37,110,379.375,0.208333,Sixteenth,C#2
2538,Right,0,77,110,379.375,0.239583,Sixteenth,F5
2541,Right,0,75,110,379.5,0.239583,Sixteenth,D#5
2540,Left,1,36,110,379.5,0.208333,Sixteenth,C2
2543,Right,0,77,110,379.625,0.239583,Sixteenth,F5
2542,Left,1,37,110,379.625,0.208333,Sixteenth,C#2
2544,Left,1,36,110,379.75,0.208333,Sixteenth,C2
2545,Right,0,75,110,379.75,0.239583,Sixteenth,D#5
2546,Right,0,77,110,379.875,0.239583,Sixteenth,F5
2547,Left,1,37,110,379.875,0.208333,Sixteenth,C#2
2548,Right,0,75,110,380.0,0.239583,Sixteenth,D#5
2549,Left,1,36,110,380.0,0.208333,Sixteenth,C2
2551,Right,0,77,110,380.125,0.239583,Sixteenth,F5
2550,Left,1,37,110,380.125,0.208333,Sixteenth,C#2
2553,Left,1,36,110,380.25,0.208333,Sixteenth,C2
2552,Right,0,75,110,380.25,0.239583,Sixteenth,D#5
2555,Right,0,77,110,380.375,0.239583,Sixteenth,F5
2554,Left,1,37,110,380.375,0.208333,Sixteenth,C#2
2556,Left,1,36,110,380.5,0.208333,Sixteenth,C2
2557,Right,0,75,110,380.5,0.239583,Sixteenth,D#5
2559,Right,0,77,110,380.625,0.239583,Sixteenth,F5
2558,Left,1,37,110,380.625,0.208333,Sixteenth,C#2
2560,Left,1,34,110,380.75,0.208333,Sixteenth,A#1
2561,Right,0,73,110,380.75,0.239583,Sixteenth,C#5
2563,Right,0,75,110,380.875,0.208333,Sixteenth,D#5
2562,Left,1,36,110,380.875,0.208333,Sixteenth,C2
2565,Left,1,34,110,381.0,1.989583,Half,A#1
2564,Right,0,73,110,381.0,0.489583,Eighth,C#5_A#5
2567,Right,0,72,110,381.5,0.489583,Eighth,G#5_C5
2569,Right,0,70,110,382.0,0.489583,Eighth,F#5_A#4
2571,Right,0,68,110,382.5,0.489583,Eighth,G#4_F5
2573,Right,0,66,110,383.0,0.489583,Eighth,F#4_D#5
2575,Right,0,65,110,383.5,0.489583,Eighth,F4_C#5
2577,Right,0,78,110,384.0,1.989583,Half,F#5_D#5
2579,Left,1,34,110,384.0,0.489583,Eighth,A#1
2580,Left,1,36,110,384.5,0.489583,Eighth,C2_C1
2581,Right,0,63,110,384.5,0.489583,Eighth,D#4
2583,Right,0,65,110,385.0,0.489583,Eighth,F4
2584,Left,1,25,110,385.0,0.489583,Eighth,C#2_C#1
2588,Right,0,66,110,385.5,0.489583,Eighth,F#4
2586,Left,1,27,110,385.5,0.489583,Eighth,D#2_D#1
2589,Left,1,29,110,386.0,0.489583,Eighth,F2_F1
2591,Right,0,68,110,386.0,0.489583,Eighth,G#4
2593,Right,0,70,110,386.5,0.989583,Quarter,A#4
2592,Left,1,30,110,386.5,0.489583,Eighth,F#2_F#1
2595,Right,0,78,110,387.0,0.489583,Eighth,F#5
2596,Left,1,25,110,387.0,1.989583,Half,C#2_C#1
2598,Right,0,77,110,387.5,0.489583,Eighth,G#4_F5
2600,Right,0,66,110,388.0,0.489583,Eighth,F#4_D#5
2602,Right,0,65,110,388.5,0.489583,Eighth,F4_C#5
2606,Left,1,36,110,389.0,2.989583,DottedHalf,C2_C1
2604,Right,0,79,110,389.0,0.989583,Sixteenth,G5_E5
2608,Right,0,85,110,389.25,0.239583,Sixteenth,C#6
2609,Right,0,82,110,389.5,0.239583,Sixteenth,A#5
2610,Right,0,79,110,389.75,0.239583,Sixteenth,G5
2611,Right,0,76,110,390.0,0.239583,Sixteenth,E5
2612,Right,0,82,110,390.25,0.239583,Sixteenth,A#5
2613,Right,0,79,110,390.5,0.239583,Sixteenth,G5
2614,Right,0,76,110,390.75,0.239583,Sixteenth,E5
2615,Right,0,73,110,391.0,0.239583,Sixteenth,C#5
2616,Right,0,79,110,391.25,0.239583,Sixteenth,G5
2617,Right,0,76,110,391.5,0.239583,Sixteenth,E5
2618,Right,0,73,110,391.75,0.239583,Sixteenth,C#5
2619,Right,0,70,110,392.0,2.989583,DottedHalf,C5_A#4
2621,Left,1,52,110,392.0,2.989583,Sixteenth,E3_E2
2623,Left,1,53,110,392.125,0.208333,Sixteenth,F3
2624,Right,0,79,110,392.25,0.239583,Sixteenth,G5
2625,Left,1,52,110,392.25,0.208333,Sixteenth,E3
2626,Left,1,53,110,392.375,0.208333,Sixteenth,F3
2628,Left,1,52,110,392.5,0.208333,Sixteenth,E3
2627,Right,0,76,110,392.5,0.239583,Sixteenth,E5
2629,Left,1,53,110,392.625,0.208333,Sixteenth,F3
2631,Left,1,52,110,392.75,0.208333,Sixteenth,E3
2630,Right,0,72,110,392.75,0.239583,Sixteenth,C5
2632,Left,1,53,110,392.875,0.208333,Sixteenth,F3
2633,Left,1,52,110,393.0,0.208333,Sixteenth,E3
2634,Right,0,73,110,393.0,0.239583,Sixteenth,C#5
2635,Left,1,53,110,393.125,0.208333,Sixteenth,F3
2636,Right,0,82,110,393.25,0.239583,Sixteenth,A#5
2637,Left,1,52,110,393.25,0.208333,Sixteenth,E3
2638,Left,1,53,110,393.375,0.208333,Sixteenth,F3
2640,Right,0,79,110,393.5,0.239583,Sixteenth,G5
2639,Left,1,52,110,393.5,0.208333,Sixteenth,E3
2641,Left,1,53,110,393.625,0.208333,Sixteenth,F3
2643,Left,1,52,110,393.75,0.208333,Sixteenth,E3
2642,Right,0,76,110,393.75,0.239583,Sixteenth,E5
2644,Left,1,53,110,393.875,0.208333,Sixteenth,F3
2645,Right,0,72,110,394.0,0.989583,Quarter,C5
2646,Left,1,52,110,394.0,0.208333,Sixteenth,E3
2647,Left,1,53,110,394.125,0.208333,Sixteenth,F3
2648,Left,1,52,110,394.25,0.208333,Sixteenth,E3
2649,Left,1,53,110,394.375,0.208333,Sixteenth,F3
2650,Left,1,52,110,394.5,0.208333,Sixteenth,E3
2651,Left,1,53,110,394.625,0.208333,Sixteenth,F3
2652,Left,1,52,110,394.75,0.208333,Sixteenth,E3
2653,Left,1,53,110,394.875,0.208333,Sixteenth,F3
2654,Left,1,55,110,395.0,0.208333,Sixteenth,G3
2655,Left,1,56,110,395.125,0.208333,Sixteenth,G#3
2656,Left,1,55,110,395.25,0.208333,Sixteenth,G3
2657,Left,1,56,110,395.375,0.208333,Sixteenth,G#3
2658,Left,1,55,110,395.5,0.208333,Sixteenth,G3
2659,Left,1,56,110,395.625,0.208333,Sixteenth,G#3
2660,Left,1,55,110,395.75,0.208333,Sixteenth,G3
2661,Left,1,56,110,395.875,0.208333,Sixteenth,G#3
2663,Right,0,82,126,396.0,1.989583,Half,A#5
2662,Left,1,55,110,396.0,0.208333,Sixteenth,G3
2664,Left,1,56,110,396.125,0.208333,Sixteenth,G#3
2665,Left,1,55,110,396.25,0.208333,Sixteenth,G3
2666,Left,1,56,110,396.375,0.208333,Sixteenth,G#3
2667,Left,1,55,110,396.5,0.208333,Sixteenth,G3
2668,Left,1,56,110,396.625,0.208333,Sixteenth,G#3
2669,Left,1,55,110,396.75,0.208333,Sixteenth,G3
2670,Left,1,56,110,396.875,0.208333,Sixteenth,G#3
2671,Left,1,55,110,397.0,0.208333,Sixteenth,G3
2672,Left,1,56,110,397.125,0.208333,Sixteenth,G#3
2673,Left,1,55,110,397.25,0.208333,Sixteenth,G3
2674,Left,1,56,110,397.375,0.208333,Sixteenth,G#3
2675,Left,1,55,110,397.5,0.208333,Sixteenth,G3
2676,Left,1,56,110,397.625,0.208333,Sixteenth,G#3
2677,Left,1,55,110,397.75,0.208333,Sixteenth,G3
2678,Left,1,56,110,397.875,0.208333,Sixteenth,G#3
2679,Left,1,29,110,398.0,2.989583,DottedHalf,F1
2680,Right,0,67,110,398.0,2.989583,Sixteenth,G4_A#3
2682,Right,0,68,110,398.125,0.208333,Sixteenth,G#4
2683,Right,0,67,110,398.25,0.208333,Sixteenth,G4
2684,Right,0,68,110,398.375,0.208333,Sixteenth,G#4
2685,Right,0,67,110,398.5,0.208333,Sixteenth,G4
2686,Right,0,68,110,398.625,0.208333,Sixteenth,G#4
2687,Right,0,67,110,398.75,0.208333,Sixteenth,G4
2688,Right,0,68,110,398.875,0.208333,Sixteenth,G#4
2689,Right,0,67,110,399.0,0.208333,Sixteenth,G4
2690,Right,0,68,110,399.125,0.208333,Sixteenth,G#4
2691,Right,0,67,110,399.25,0.208333,Sixteenth,G4
2692,Right,0,68,110,399.375,0.208333,Sixteenth,G#4
2693,Right,0,67,110,399.5,0.208333,Sixteenth,G4
2694,Right,0,68,110,399.625,0.208333,Sixteenth,G#4
2695,Right,0,67,110,399.75,0.208333,Sixteenth,G4
2696,Right,0,68,110,399.875,0.208333,Sixteenth,G#4
2697,Right,0,67,110,400.0,0.208333,Sixteenth,G4
2698,Right,0,68,110,400.125,0.208333,Sixteenth,G#4
2699,Right,0,67,110,400.25,0.208333,Sixteenth,G4
2700,Right,0,68,110,400.375,0.208333,Sixteenth,G#4
2701,Right,0,67,110,400.5,0.208333,Sixteenth,G4
2702,Right,0,68,110,400.625,0.208333,Sixteenth,G#4
2703,Right,0,67,110,400.75,0.208333,Sixteenth,G4
2704,Right,0,68,110,400.875,0.208333,Sixteenth,G#4
2705,Right,0,60,110,400.9375,0.489583,Eighth,C4
2706,Left,1,45,110,401.0,0.208333,Sixteenth,A2
2707,Right,0,65,110,401.0,0.989583,Quarter,F4
2708,Left,1,46,110,401.125,0.208333,Sixteenth,A#2
2709,Left,1,45,110,401.25,0.208333,Sixteenth,A2
2710,Left,1,46,110,401.375,0.208333,Sixteenth,A#2
2712,Right,0,75,126,401.5,2.489583,Half,D#5
2711,Left,1,45,110,401.5,0.208333,Sixteenth,A2
2713,Left,1,46,110,401.625,0.208333,Sixteenth,A#2
2714,Left,1,45,110,401.75,0.208333,Sixteenth,A2
2715,Left,1,46,110,401.875,0.208333,Sixteenth,A#2
2716,Left,1,45,110,402.0,0.208333,Sixteenth,A2
2717,Left,1,46,110,402.125,0.208333,Sixteenth,A#2
2718,Left,1,45,110,402.25,0.208333,Sixteenth,A2
2719,Left,1,46,110,402.375,0.208333,Sixteenth,A#2
2720,Left,1,45,110,402.5,0.208333,Sixteenth,A2
2721,Left,1,46,110,402.625,0.208333,Sixteenth,A#2
2722,Left,1,45,110,402.75,0.208333,Sixteenth,A2
2723,Left,1,46,110,402.875,0.208333,Sixteenth,A#2
2724,Left,1,45,110,403.0,0.208333,Sixteenth,A2
2725,Left,1,46,110,403.125,0.208333,Sixteenth,A#2
2726,Left,1,45,110,403.25,0.208333,Sixteenth,A2
2727,Left,1,46,110,403.375,0.208333,Sixteenth,A#2
2728,Left,1,45,110,403.5,0.208333,Sixteenth,A2
2729,Left,1,46,110,403.625,0.208333,Sixteenth,A#2
2730,Left,1,45,110,403.75,0.208333,Sixteenth,A2
2731,Left,1,46,110,403.875,0.208333,Sixteenth,A#2
2732,Left,1,60,110,404.0,0.208333,Sixteenth,C4
2733,Left,1,61,110,404.125,0.208333,Sixteenth,C#4
2734,Left,1,60,110,404.25,0.208333,Sixteenth,C4
2735,Left,1,61,110,404.375,0.208333,Sixteenth,C#4
2736,Left,1,60,110,404.5,0.208333,Sixteenth,C4
2737,Left,1,61,110,404.625,0.208333,Sixteenth,C#4
2738,Left,1,60,110,404.75,0.208333,Sixteenth,C4
2739,Left,1,61,110,404.875,0.208333,Sixteenth,C#4
2740,Left,1,60,110,405.0,0.208333,Sixteenth,C4
2741,Right,0,87,127,405.0,1.989583,Half,D#6
2742,Left,1,61,110,405.125,0.208333,Sixteenth,C#4
2743,Left,1,60,110,405.25,0.208333,Sixteenth,C4
2744,Left,1,61,110,405.375,0.208333,Sixteenth,C#4
2745,Left,1,60,110,405.5,0.208333,Sixteenth,C4
2746,Left,1,61,110,405.625,0.208333,Sixteenth,C#4
2747,Left,1,60,110,405.75,0.208333,Sixteenth,C4
2748,Left,1,61,110,405.875,0.208333,Sixteenth,C#4
2749,Left,1,60,110,406.0,0.208333,Sixteenth,C4
2750,Left,1,61,110,406.125,0.208333,Sixteenth,C#4
2751,Left,1,60,110,406.25,0.208333,Sixteenth,C4
2752,Left,1,61,110,406.375,0.208333,Sixteenth,C#4
2753,Left,1,60,110,406.5,0.208333,Sixteenth,C4
2754,Left,1,61,110,406.625,0.208333,Sixteenth,C#4
2755,Left,1,60,110,406.75,0.208333,Sixteenth,C4
2756,Left,1,61,110,406.875,0.208333,Sixteenth,C#4
2757,Right,0,72,110,407.0,1.989583,Sixteenth,D#4_C5
2758,Left,1,34,110,407.0,2.989583,DottedHalf,A#1
2760,Right,0,73,110,407.125,0.208333,Sixteenth,C#5
2761,Right,0,72,110,407.25,0.208333,Sixteenth,C5
2762,Right,0,73,110,407.375,0.208333,Sixteenth,C#5
2763,Right,0,72,110,407.5,0.208333,Sixteenth,C5
2764,Right,0,73,110,407.625,0.208333,Sixteenth,C#5
2765,Right,0,72,110,407.75,0.208333,Sixteenth,C5
2766,Right,0,73,110,407.875,0.208333,Sixteenth,C#5
2767,Right,0,72,110,408.0,0.208333,Sixteenth,C5
2768,Right,0,73,110,408.125,0.208333,Sixteenth,C#5
2769,Right,0,72,110,408.25,0.208333,Sixteenth,C5
2770,Right,0,73,110,408.375,0.208333,Sixteenth,C#5
2771,Right,0,72,110,408.5,0.208333,Sixteenth,C5
2772,Right,0,73,110,408.625,0.208333,Sixteenth,C#5
2773,Right,0,72,110,408.75,0.208333,Sixteenth,C5
2774,Right,0,73,110,408.875,0.208333,Sixteenth,C#5
2775,Right,0,72,110,409.0,0.989583,Sixteenth,E4_C5
2777,Right,0,73,110,409.125,0.208333,Sixteenth,C#5
2778,Right,0,72,110,409.25,0.208333,Sixteenth,C5
2779,Right,0,73,110,409.375,0.208333,Sixteenth,C#5
2780,Right,0,72,110,409.5,0.208333,Sixteenth,C5
2781,Right,0,73,110,409.625,0.208333,Sixteenth,C#5
2782,Right,0,72,110,409.75,0.208333,Sixteenth,C5
2783,Right,0,73,110,409.875,0.208333,Sixteenth,C#5
2784,Right,0,65,110,410.0,0.989583,Eighth,F4_A#4
2786,Left,1,49,110,410.0,0.208333,Sixteenth,C#3
2787,Left,1,51,110,410.125,0.208333,Sixteenth,D#3
2788,Left,1,49,110,410.25,0.208333,Sixteenth,C#3
2789,Left,1,51,110,410.375,0.208333,Sixteenth,D#3
2791,Right,0,73,110,410.5,2.489583,Half,C#5
2790,Left,1,49,110,410.5,0.208333,Sixteenth,C#3
2792,Left,1,51,110,410.625,0.208333,Sixteenth,D#3
2793,Left,1,49,110,410.75,0.208333,Sixteenth,C#3
2794,Left,1,51,110,410.875,0.208333,Sixteenth,D#3
2795,Left,1,49,110,411.0,0.208333,Sixteenth,C#3
2796,Left,1,51,110,411.125,0.208333,Sixteenth,D#3
2797,Left,1,49,110,411.25,0.208333,Sixteenth,C#3
2798,Left,1,51,110,411.375,0.208333,Sixteenth,D#3
2799,Left,1,49,110,411.5,0.208333,Sixteenth,C#3
2800,Left,1,51,110,411.625,0.208333,Sixteenth,D#3
2801,Left,1,49,110,411.75,0.208333,Sixteenth,C#3
2802,Left,1,51,110,411.875,0.208333,Sixteenth,D#3
2803,Left,1,49,110,412.0,0.208333,Sixteenth,C#3
2804,Left,1,51,110,412.125,0.208333,Sixteenth,D#3
2805,Left,1,49,110,412.25,0.208333,Sixteenth,C#3
2806,Left,1,51,110,412.375,0.208333,Sixteenth,D#3
2807,Left,1,49,110,412.5,0.208333,Sixteenth,C#3
2808,Left,1,51,110,412.625,0.208333,Sixteenth,D#3
2809,Left,1,48,110,412.75,0.208333,Sixteenth,C3
2810,Left,1,49,110,412.875,0.208333,Sixteenth,C#3
2812,Left,1,48,110,413.0,2.989583,DottedHalf,C3_A#3
2811,Right,0,85,127,413.0,2.989583,DottedHalf,C#6
2814,Left,1,60,110,413.125,0.208333,Sixteenth,C4
2815,Left,1,58,110,413.25,0.208333,Sixteenth,A#3
2816,Left,1,60,110,413.375,0.208333,Sixteenth,C4
2817,Left,1,58,110,413.5,0.208333,Sixteenth,A#3
2818,Left,1,60,110,413.625,0.208333,Sixteenth,C4
2819,Left,1,58,110,413.75,0.208333,Sixteenth,A#3
2820,Left,1,60,110,413.875,0.208333,Sixteenth,C4
2821,Left,1,58,110,414.0,0.208333,Sixteenth,A#3
2822,Left,1,60,110,414.125,0.208333,Sixteenth,C4
2823,Left,1,58,110,414.25,0.208333,Sixteenth,A#3
2824,Left,1,60,110,414.375,0.208333,Sixteenth,C4
2825,Left,1,58,110,414.5,0.208333,Sixteenth,A#3
2826,Left,1,60,110,414.625,0.208333,Sixteenth,C4
2827,Left,1,58,110,414.75,0.208333,Sixteenth,A#3
2828,Left,1,60,110,414.875,0.208333,Sixteenth,C4
2829,Left,1,58,110,415.0,0.208333,Sixteenth,A#3
2830,Left,1,60,110,415.125,0.208333,Sixteenth,C4
2831,Left,1,58,110,415.25,0.208333,Sixteenth,A#3
2832,Left,1,60,110,415.375,0.208333,Sixteenth,C4
2833,Left,1,58,110,415.5,0.208333,Sixteenth,A#3
2834,Left,1,60,110,415.625,0.208333,Sixteenth,C4
2835,Left,1,57,110,415.75,0.208333,Sixteenth,A3
2836,Left,1,58,110,415.875,0.208333,Sixteenth,A#3
2837,Left,1,56,110,416.0,1.489583,DottedQuarter,G#3
2838,Right,0,70,110,416.0,2.989583,Sixteenth,C#4_A#4
2840,Right,0,72,110,416.125,0.208333,Sixteenth,C5
2841,Right,0,70,110,416.25,0.208333,Sixteenth,A#4
2842,Right,0,72,110,416.375,0.208333,Sixteenth,C5
2843,Right,0,70,110,416.5,0.208333,Sixteenth,A#4
2844,Right,0,72,110,416.625,0.208333,Sixteenth,C5
2845,Right,0,70,110,416.75,0.208333,Sixteenth,A#4
2846,Right,0,72,110,416.875,0.208333,Sixteenth,C5
2847,Right,0,70,110,417.0,0.208333,Sixteenth,A#4
2848,Right,0,72,110,417.125,0.208333,Sixteenth,C5
2849,Right,0,70,110,417.25,0.208333,Sixteenth,A#4
2850,Right,0,72,109,417.375,0.208333,Sixteenth,C5
2851,Left,1,55,109,417.5,0.489583,Eighth,G3
2852,Right,0,70,109,417.5,0.208333,Sixteenth,A#4
2853,Right,0,72,109,417.625,0.208333,Sixteenth,C5
2854,Right,0,70,108,417.75,0.208333,Sixteenth,A#4
2855,Right,0,72,108,417.875,0.208333,Sixteenth,C5
2856,Left,1,53,108,418.0,0.489583,Eighth,F3
2857,Right,0,70,108,418.0,0.208333,Sixteenth,A#4
2858,Right,0,72,107,418.125,0.208333,Sixteenth,C5
2859,Right,0,70,107,418.25,0.208333,Sixteenth,A#4
2860,Right,0,72,107,418.375,0.208333,Sixteenth,C5
2862,Right,0,70,106,418.5,0.208333,Sixteenth,A#4
2861,Left,1,51,106,418.5,0.489583,Eighth,D#3
2863,Right,0,72,106,418.625,0.208333,Sixteenth,C5
2864,Right,0,70,106,418.75,0.208333,Sixteenth,A#4
2865,Right,0,72,105,418.875,0.208333,Sixteenth,C5
2867,Right,0,70,105,419.0,1.489583,Sixteenth,G4_A#4
2866,Left,1,50,105,419.0,0.489583,Eighth,D3
2869,Right,0,72,105,419.125,0.208333,Sixteenth,C5
2870,Right,0,70,104,419.25,0.208333,Sixteenth,A#4
2871,Right,0,72,104,419.375,0.208333,Sixteenth,C5
2872,Right,0,70,104,419.5,0.208333,Sixteenth,A#4
2873,Left,1,51,104,419.5,0.489583,Eighth,D#3
2874,Right,0,72,103,419.625,0.208333,Sixteenth,C5
2875,Right,0,70,103,419.75,0.208333,Sixteenth,A#4
2876,Right,0,72,103,419.875,0.208333,Sixteenth,C5
2878,Right,0,70,102,420.0,0.208333,Sixteenth,A#4
2877,Left,1,51,102,420.0,2.989583,DottedHalf,D#3
2879,Right,0,72,102,420.125,0.208333,Sixteenth,C5
2880,Right,0,70,102,420.25,0.208333,Sixteenth,A#4
2881,Right,0,72,101,420.375,0.208333,Sixteenth,C5
2882,Right,0,65,101,420.5,0.489583,Eighth,F4_A#4
2884,Right,0,72,101,420.625,0.208333,Sixteenth,C5
2885,Right,0,70,101,420.75,0.208333,Sixteenth,A#4
2886,Right,0,72,100,420.875,0.208333,Sixteenth,C5
2887,Right,0,63,100,421.0,0.489583,Eighth,D#4_A#4
2889,Right,0,72,100,421.125,0.208333,Sixteenth,C5
2890,Right,0,70,99,421.25,0.208333,Sixteenth,A#4
2891,Right,0,72,99,421.375,0.208333,Sixteenth,C5
2892,Right,0,61,99,421.5,0.489583,Eighth,C#4_A#4
2894,Right,0,72,98,421.625,0.208333,Sixteenth,C5
2895,Right,0,69,98,421.75,0.208333,Sixteenth,A4
2896,Right,0,70,98,421.875,0.208333,Sixteenth,A#4
2897,Right,0,60,97,422.0,1.489583,Eighth,F5_C4
2899,Right,0,61,96,422.5,0.489583,Eighth,C#4
2901,Right,0,58,95,423.0,0.489583,Eighth,A#3
2900,Left,1,51,95,423.0,1.989583,Half,D#3
2902,Right,0,75,93,423.5,0.489583,Eighth,D#5_C4
2904,Right,0,58,92,424.0,0.489583,Eighth,C#5_A#3
2906,Right,0,56,91,424.5,0.489583,Eighth,G#3_C5
2910,Left,1,51,90,425.0,0.208333,Sixteenth,D#3
2908,Right,0,71,90,425.0,0.489583,Eighth,G4_B4
2911,Left,1,53,89,425.125,0.208333,Sixteenth,F3
2912,Left,1,51,89,425.25,0.208333,Sixteenth,D#3
2913,Left,1,53,89,425.375,0.208333,Sixteenth,F3
2916,Left,1,51,88,425.5,0.208333,Sixteenth,D#3
2914,Right,0,68,88,425.5,0.489583,Eighth,G#4_C5
2917,Left,1,53,88,425.625,0.208333,Sixteenth,F3
2918,Left,1,51,88,425.75,0.208333,Sixteenth,D#3
2919,Left,1,53,87,425.875,0.208333,Sixteenth,F3
2921,Left,1,51,87,426.0,0.208333,Sixteenth,D#3
2920,Right,0,68,87,426.0,0.489583,Eighth,G#4_D#5
2923,Left,1,53,87,426.125,0.208333,Sixteenth,F3
2924,Left,1,51,86,426.25,0.208333,Sixteenth,D#3
2925,Left,1,53,86,426.375,0.208333,Sixteenth,F3
2926,Left,1,51,86,426.5,0.208333,Sixteenth,D#3
2927,Right,0,73,86,426.5,0.489583,Eighth,C#5_A#4
2929,Left,1,53,85,426.625,0.208333,Sixteenth,F3
2930,Left,1,51,85,426.75,0.208333,Sixteenth,D#3
2931,Left,1,53,85,426.875,0.208333,Sixteenth,F3
2933,Left,1,51,84,427.0,0.208333,Sixteenth,D#3
2932,Right,0,72,84,427.0,0.489583,Eighth,D#4_C5
2935,Left,1,53,84,427.125,0.208333,Sixteenth,F3
2936,Left,1,51,84,427.25,0.208333,Sixteenth,D#3
2937,Left,1,53,83,427.375,0.208333,Sixteenth,F3
2939,Right,0,70,83,427.5,0.989583,Eighth,C#4_A#4
2938,Left,1,51,83,427.5,0.208333,Sixteenth,D#3
2941,Left,1,53,83,427.625,0.208333,Sixteenth,F3
2942,Left,1,50,82,427.75,0.208333,Sixteenth,D3
2943,Left,1,51,82,427.875,0.208333,Sixteenth,D#3
2944,Right,0,68,82,428.0,0.489583,Eighth,G#4
2945,Left,1,53,82,428.0,0.489583,Eighth,F3
2948,Left,1,55,81,428.5,0.489583,Eighth,G3
2946,Right,0,61,81,428.5,0.989583,Quarter,C#4_A#4
2949,Left,1,56,80,429.0,0.239583,Sixteenth,G#3
2950,Left,1,48,80,429.25,0.239583,Sixteenth,C3
2952,Left,1,51,80,429.5,0.239583,Sixteenth,D#3
2951,Right,0,60,80,429.5,0.489583,Eighth,C4
2953,Left,1,56,80,429.75,0.239583,Sixteenth,G#3
2954,Left,1,60,80,430.0,0.489583,Eighth,C4
2955,Right,0,80,80,430.25,0.239583,Sixteenth,G#5
2956,Left,1,61,80,430.5,0.489583,Eighth,C#4
2957,Right,0,79,80,430.5,0.239583,Sixteenth,G5
2958,Right,0,77,80,430.75,0.239583,Sixteenth,F5
2959,Left,1,63,80,431.0,0.989583,Quarter,D#4
2960,Right,0,75,80,431.0,0.489583,Eighth,D#5
2961,Right,0,70,80,431.25,0.239583,Sixteenth,A#4
2962,Right,0,72,80,431.5,0.489583,Sixteenth,G5_C5
2964,Right,0,73,80,431.75,0.239583,Sixteenth,C#5
2965,Right,0,80,80,432.0,0.489583,Eighth,G#5_C5
2967,Right,0,60,80,432.25,0.239583,Sixteenth,C4
2968,Right,0,63,81,432.5,0.239583,Sixteenth,D#4
2969,Right,0,68,82,432.75,0.239583,Sixteenth,G#4
2970,Right,0,72,83,433.0,0.489583,Eighth,C5
2971,Right,0,84,84,433.25,0.239583,Sixteenth,C6
2972,Right,0,82,85,433.5,0.489583,Sixteenth,C#5_A#5
2974,Right,0,80,86,433.75,0.239583,Sixteenth,G#5
2975,Right,0,79,86,434.0,1.489583,Quarter,G5_D#5
2977,Left,1,58,87,434.25,0.239583,Sixteenth,A#3
2978,Left,1,60,88,434.5,0.239583,Sixteenth,C4
2979,Left,1,61,89,434.75,0.239583,Sixteenth,C#4
2981,Left,1,60,90,435.0,0.989583,Quarter,C4
2980,Right,0,80,90,435.0,0.239583,Sixteenth,G#5
2982,Right,0,72,91,435.25,0.239583,Sixteenth,C5
2983,Right,0,75,92,435.5,0.239583,Sixteenth,D#5
2984,Right,0,80,93,435.75,0.239583,Sixteenth,G#5
2985,Right,0,84,93,436.0,0.489583,Eighth,C6
2986,Left,1,56,94,436.25,0.239583,Sixteenth,G#3
2988,Right,0,85,95,436.5,0.489583,Eighth,C#6
2987,Left,1,55,95,436.5,0.239583,Sixteenth,G3
2989,Left,1,53,96,436.75,0.239583,Sixteenth,F3
2990,Right,0,87,97,437.0,0.989583,Quarter,D#6
2991,Left,1,51,97,437.0,0.989583,Quarter,D#3
2992,Left,1,55,98,437.25,0.239583,Sixteenth,G3
2993,Left,1,56,99,437.5,0.239583,Sixteenth,G#3
2994,Left,1,58,99,437.75,0.239583,Sixteenth,A#3
2995,Left,1,60,100,438.0,0.489583,Eighth,C4
2996,Right,0,72,100,438.25,0.239583,Sixteenth,C5
2998,Right,0,70,100,438.5,0.239583,Sixteenth,A#4
2997,Left,1,61,100,438.5,0.489583,Eighth,C#4
2999,Right,0,68,100,438.75,0.239583,Sixteenth,G#4
3000,Left,1,63,100,439.0,1.239583,TiedQuarter-Sixteenth,D#4
3001,Right,0,67,100,439.0,0.989583,Quarter,G4
3002,Left,1,53,100,439.25,0.239583,Sixteenth,F3
3003,Left,1,51,100,439.5,0.239583,Sixteenth,D#3
3004,Left,1,49,100,439.75,0.239583,Sixteenth,C#3
3005,Left,1,48,100,440.0,0.989583,Quarter,C3
3006,Right,0,68,100,440.0,0.989583,Quarter,G#4
3007,Left,1,60,100,440.25,0.239583,Sixteenth,C4
3008,Left,1,50,100,440.5,0.239583,Sixteenth,D3_A#3
3010,Left,1,52,100,440.75,0.239583,Sixteenth,G#3_E3
3012,Left,1,53,100,441.0,0.989583,Quarter,F3_C4
3014,Right,0,68,100,441.25,0.239583,Sixteenth,G#4
3015,Right,0,72,100,441.5,0.239583,Sixteenth,C5
3016,Right,0,77,100,441.75,0.239583,Sixteenth,F5
3017,Right,0,80,100,442.0,0.489583,Eighth,G#5
3018,Right,0,77,100,442.25,0.239583,Sixteenth,F5
3019,Right,0,75,100,442.5,0.489583,Sixteenth,D#5_A#5
3021,Right,0,73,100,442.75,0.239583,Sixteenth,C#5
3022,Right,0,84,100,443.0,1.989583,Half,C6_C5
3024,Left,1,52,100,443.25,0.239583,Sixteenth,E3
3025,Left,1,53,100,443.5,0.239583,Sixteenth,F3
3026,Left,1,55,100,443.75,0.239583,Sixteenth,G3
3027,Left,1,56,100,444.0,0.489583,Eighth,G#3
3028,Right,0,68,100,444.25,0.239583,Sixteenth,G#4
3029,Left,1,58,100,444.5,0.489583,Eighth,A#3
3030,Right,0,67,100,444.5,0.239583,Sixteenth,G4
3031,Right,0,65,100,444.75,0.239583,Sixteenth,F4
3033,Left,1,60,100,445.0,1.239583,TiedQuarter-Sixteenth,C4
3032,Right,0,68,100,445.0,1.239583,TiedQuarter-Sixteenth,G#4
3034,Right,0,80,100,445.25,0.239583,Sixteenth,G#5
3035,Right,0,79,100,445.5,0.239583,Sixteenth,G5
3036,Right,0,77,100,445.75,0.239583,Sixteenth,F5
3037,Right,0,76,100,446.0,0.489583,Eighth,E5
3039,Right,0,72,100,446.25,0.239583,Sixteenth,C5
3038,Left,1,56,100,446.25,0.239583,Sixteenth,G#3
3041,Right,0,77,100,446.5,0.489583,Eighth,F5_A#4
3040,Left,1,55,100,446.5,0.239583,Sixteenth,G3
3043,Right,0,68,100,446.75,0.239583,Sixteenth,G#4
3044,Left,1,53,100,446.75,0.239583,Sixteenth,F3
3046,Left,1,60,100,447.0,0.239583,Sixteenth,C4
3045,Right,0,80,100,447.0,0.489583,Eighth,G#5
3047,Left,1,65,100,447.25,0.239583,Sixteenth,F4
3048,Right,0,82,100,447.5,0.489583,Eighth,A#5
3049,Left,1,64,100,447.5,0.239583,Sixteenth,E4
3050,Left,1,62,100,447.75,0.239583,Sixteenth,D4
3052,Left,1,60,100,448.0,0.239583,Sixteenth,C4
3051,Right,0,84,100,448.0,1.239583,TiedQuarter-Sixteenth,C6
3054,Right,0,72,100,448.25,0.239583,Sixteenth,C5
3053,Left,1,58,100,448.25,0.239583,Sixteenth,A#3
3055,Right,0,74,100,448.5,0.239583,Sixteenth,D5
3056,Left,1,56,100,448.5,0.239583,Sixteenth,G#3
3057,Right,0,76,100,448.75,0.239583,Sixteenth,E5
3058,Left,1,55,100,448.75,0.239583,Sixteenth,G3
3059,Left,1,53,100,449.0,0.489583,Eighth,F3
3060,Right,0,80,100,449.25,0.239583,Sixteenth,G#5
3061,Right,0,79,100,449.5,0.239583,Sixteenth,G5
3062,Right,0,77,100,449.75,0.239583,Sixteenth,F5
3063,Left,1,60,100,450.0,0.239583,Sixteenth,C4
3064,Right,0,81,100,450.0,0.489583,Eighth,A5
3065,Left,1,63,100,450.25,0.239583,Sixteenth,D#4
3067,Right,0,82,100,450.5,0.489583,Eighth,A#5
3066,Left,1,61,100,450.5,0.239583,Sixteenth,C#4
3068,Left,1,60,100,450.75,0.239583,Sixteenth,C4
3070,Left,1,58,100,451.0,0.239583,Sixteenth,A#3
3069,Right,0,84,100,451.0,1.239583,TiedQuarter-Sixteenth,C6
3072,Left,1,57,100,451.25,0.239583,Sixteenth,A3
3071,Right,0,72,100,451.25,0.239583,Sixteenth,C5
3073,Right,0,74,100,451.5,0.239583,Sixteenth,D5
3074,Left,1,55,100,451.5,0.239583,Sixteenth,G3
3076,Left,1,53,100,451.75,0.239583,Sixteenth,F3
3075,Right,0,76,100,451.75,0.239583,Sixteenth,E5
3077,Left,1,51,100,452.0,0.989583,Quarter,D#3
3078,Right,0,81,100,452.25,0.239583,Sixteenth,A5
3079,Right,0,79,100,452.5,0.239583,Sixteenth,G5
3080,Right,0,77,100,452.75,0.239583,Sixteenth,F5
3081,Left,1,49,100,453.0,0.239583,Sixteenth,C#3
3082,Right,0,82,100,453.0,0.489583,Eighth,A#5
3083,Left,1,61,100,453.25,0.239583,Sixteenth,C#4
3084,Left,1,60,100,453.5,0.239583,Sixteenth,C4
3085,Right,0,84,100,453.5,0.489583,Eighth,C6
3086,Left,1,58,100,453.75,0.239583,Sixteenth,A#3
3088,Left,1,57,100,454.0,0.239583,Sixteenth,A3
3087,Right,0,85,100,454.0,1.239583,TiedQuarter-Sixteenth,C#6
3089,Left,1,55,100,454.25,0.239583,Sixteenth,G3
3090,Right,0,77,100,454.25,0.239583,Sixteenth,F5
3091,Right,0,79,100,454.5,0.239583,Sixteenth,G5
3092,Left,1,53,100,454.5,0.239583,Sixteenth,F3
3093,Left,1,51,100,454.75,0.239583,Sixteenth,D#3
3094,Right,0,81,100,454.75,0.239583,Sixteenth,A5
3095,Left,1,49,100,455.0,0.989583,Quarter,C#3
3096,Right,0,82,100,455.25,0.239583,Sixteenth,A#5
3097,Right,0,78,100,455.5,0.239583,Sixteenth,F#5
3098,Right,0,77,100,455.75,0.239583,Sixteenth,F5
3100,Right,0,81,100,456.0,0.989583,Quarter,D#5_A5
3099,Left,1,48,100,456.0,0.239583,Sixteenth,C3
3102,Left,1,60,100,456.25,0.239583,Sixteenth,C4
3104,Right,0,77,100,456.5,0.489583,Eighth,F5
3103,Left,1,58,100,456.5,0.239583,Sixteenth,A#3
3105,Left,1,57,100,456.75,0.239583,Sixteenth,A3
3107,Right,0,78,100,457.0,1.239583,TiedQuarter-Sixteenth,F#5
3106,Left,1,54,100,457.0,0.239583,Sixteenth,F#3
3109,Left,1,53,100,457.25,0.239583,Sixteenth,F3
3108,Right,0,81,100,457.25,0.239583,Sixteenth,A5
3110,Right,0,84,100,457.5,0.239583,Sixteenth,C6
3111,Left,1,51,100,457.5,0.239583,Sixteenth,D#3
3113,Right,0,85,100,457.75,0.239583,Sixteenth,C#6
3112,Left,1,49,100,457.75,0.239583,Sixteenth,C#3
3114,Left,1,48,100,458.0,0.989583,Quarter,C3
3115,Right,0,87,100,458.0,0.989583,Quarter,D#6
3116,Right,0,75,100,458.25,0.239583,Sixteenth,D#5
3117,Right,0,73,100,458.5,0.239583,Sixteenth,C#5
3118,Right,0,72,100,458.75,0.239583,Sixteenth,C5
3120,Left,1,38,100,459.0,0.489583,Eighth,D3_D2
3119,Right,0,77,100,459.0,0.239583,Sixteenth,F5
3122,Right,0,82,100,459.25,0.239583,Sixteenth,A#5
3123,Left,1,39,100,459.5,0.489583,Eighth,D#3_D#2
3124,Right,0,81,100,459.5,0.239583,Sixteenth,A5
3126,Right,0,79,100,459.75,0.239583,Sixteenth,G5
3128,Right,0,77,100,460.0,0.239583,Sixteenth,F5
3127,Left,1,41,115,460.0,1.239583,TiedQuarter-Sixteenth,F3_F2
3130,Right,0,75,100,460.25,0.239583,Sixteenth,D#5
3131,Right,0,74,100,460.5,0.239583,Sixteenth,D5
3132,Right,0,72,100,460.75,0.239583,Sixteenth,C5
3133,Right,0,74,100,461.0,1.489583,Sixteenth,D5_A#4
3136,Left,1,49,100,461.25,0.239583,Sixteenth,C#3
3135,Right,0,77,100,461.25,0.239583,Sixteenth,F5
3138,Left,1,48,100,461.5,0.239583,Sixteenth,C3
3137,Right,0,78,100,461.5,0.239583,Sixteenth,F#5
3139,Left,1,46,100,461.75,0.239583,Sixteenth,A#2
3140,Right,0,80,100,461.75,0.239583,Sixteenth,G#5
3142,Left,1,51,100,462.0,0.489583,Eighth,D#3_D#2
3141,Right,0,79,100,462.0,0.239583,Sixteenth,G5
3144,Right,0,82,100,462.25,0.239583,Sixteenth,A#5
3146,Left,1,53,100,462.5,0.489583,Eighth,F3_F2
3145,Right,0,80,100,462.5,0.239583,Sixteenth,G#5
3148,Right,0,79,100,462.75,0.239583,Sixteenth,G5
3149,Right,0,77,100,463.0,0.239583,Sixteenth,F5
3150,Left,1,55,123,463.0,1.239583,TiedQuarter-Sixteenth,G3_G2
3152,Right,0,75,100,463.25,0.239583,Sixteenth,D#5
3153,Right,0,74,100,463.5,0.739583,Sixteenth,D5_D#4
3155,Right,0,72,100,463.75,0.239583,Sixteenth,C5
3156,Right,0,67,100,464.25,0.239583,Sixteenth,G4
3157,Left,1,51,100,464.25,0.239583,Sixteenth,D#3
3159,Right,0,68,100,464.5,0.239583,Sixteenth,G#4
3158,Left,1,47,100,464.5,0.239583,Sixteenth,B2
3160,Right,0,70,100,464.75,0.239583,Sixteenth,A#4
3161,Left,1,46,100,464.75,0.239583,Sixteenth,A#2
3162,Right,0,63,100,465.0,0.239583,Sixteenth,D#4
3163,Left,1,43,100,465.0,0.489583,Eighth,G3_G2
3165,Right,0,75,100,465.25,0.239583,Sixteenth,D#5
3167,Left,1,44,100,465.5,0.489583,Eighth,G#3_G#2
3166,Right,0,73,100,465.5,0.239583,Sixteenth,C#5
3169,Right,0,72,100,465.75,0.239583,Sixteenth,C5
3170,Right,0,70,100,466.0,0.239583,Sixteenth,A#4
3171,Left,1,46,121,466.0,1.239583,TiedQuarter-Sixteenth,A#3_A#2
3173,Right,0,68,100,466.25,0.239583,Sixteenth,G#4
3174,Right,0,67,100,466.5,0.239583,Sixteenth,G4
3175,Right,0,65,100,466.75,0.239583,Sixteenth,F4
3176,Right,0,63,100,467.0,1.489583,DottedQuarter,G4_D#4
3179,Left,1,55,100,467.25,0.239583,Sixteenth,G3
3178,Right,0,70,100,467.25,0.239583,Sixteenth,A#4
3180,Left,1,53,100,467.5,0.239583,Sixteenth,F3
3181,Right,0,72,100,467.5,0.239583,Sixteenth,C5
3182,Left,1,51,100,467.75,0.239583,Sixteenth,D#3
3183,Right,0,73,100,467.75,0.239583,Sixteenth,C#5
3186,Right,0,72,100,468.0,0.239583,Sixteenth,C5
3184,Left,1,56,100,468.0,0.489583,Eighth,G#3_G#2
3187,Right,0,84,100,468.25,0.239583,Sixteenth,C6
3188,Right,0,82,100,468.5,0.239583,Sixteenth,A#5
3189,Left,1,58,100,468.5,0.489583,Eighth,A#3_A#2
3191,Right,0,80,100,468.75,0.239583,Sixteenth,G#5
3194,Right,0,79,100,469.0,0.239583,Sixteenth,G5
3192,Left,1,60,123,469.0,1.239583,TiedQuarter-Sixteenth,C4_C3
3195,Right,0,77,100,469.25,0.239583,Sixteenth,F5
3196,Right,0,75,100,469.5,0.239583,Sixteenth,D#5
3197,Right,0,73,100,469.75,0.239583,Sixteenth,C#5
3198,Right,0,72,100,470.0,1.489583,DottedQuarter,D#4_C5
3200,Left,1,56,100,470.25,0.239583,Sixteenth,G#3
3201,Right,0,67,100,470.5,0.489583,Eighth,G4
3202,Left,1,51,100,470.5,0.239583,Sixteenth,D#3
3203,Left,1,48,100,470.75,0.239583,Sixteenth,C3
3204,Right,0,68,100,471.0,0.489583,Eighth,G#4
3205,Left,1,56,100,471.0,0.239583,Sixteenth,G#3
3206,Left,1,51,100,471.25,0.239583,Sixteenth,D#3
3209,Left,1,48,100,471.5,0.239583,Sixteenth,C3
3207,Right,0,79,100,471.5,0.489583,Eighth,G5_A#4
3210,Left,1,44,100,471.75,0.239583,Sixteenth,G#2
3211,Left,1,51,100,472.0,0.239583,Sixteenth,D#3
3212,Right,0,72,100,472.0,1.489583,Eighth,G#5_C5
3214,Left,1,48,100,472.25,0.239583,Sixteenth,C3
3215,Left,1,44,100,472.5,0.239583,Sixteenth,G#2
3216,Right,0,73,100,472.5,0.489583,Eighth,C#5
3217,Left,1,39,100,472.75,0.239583,Sixteenth,D#2
3219,Right,0,75,100,473.0,0.989583,Quarter,D#5
3218,Left,1,42,100,473.0,0.239583,Sixteenth,F#2
3220,Left,1,51,100,473.25,0.239583,Sixteenth,D#3
3222,Left,1,48,100,473.5,0.239583,Sixteenth,C3
3221,Right,0,84,100,473.5,0.489583,Eighth,C6
3223,Left,1,42,100,473.75,0.239583,Sixteenth,F#2
3224,Right,0,85,100,474.0,0.989583,Quarter,C#6_C#5
3225,Left,1,53,100,474.0,0.489583,Eighth,F3_F2
3228,Right,0,77,100,474.25,0.239583,Sixteenth,F5
3229,Left,1,54,100,474.5,0.489583,Eighth,F#3_F#2
3231,Right,0,75,100,474.5,0.239583,Sixteenth,D#5
3232,Right,0,73,100,474.75,0.239583,Sixteenth,C#5
3233,Left,1,44,120,475.0,1.239583,TiedQuarter-Sixteenth,G#3_G#2
3234,Right,0,72,100,475.0,0.239583,Sixteenth,C5
3236,Right,0,70,100,475.25,0.239583,Sixteenth,A#4
3237,Right,0,68,100,475.5,0.239583,Sixteenth,G#4
3238,Right,0,66,100,475.75,0.239583,Sixteenth,F#4
3239,Right,0,68,100,476.0,1.489583,Eighth,G#4_F4
3241,Left,1,53,100,476.25,0.239583,Sixteenth,F3
3242,Right,0,72,100,476.5,0.489583,Eighth,C5
3243,Left,1,49,100,476.5,0.239583,Sixteenth,C#3
3244,Left,1,44,100,476.75,0.239583,Sixteenth,G#2
3245,Left,1,53,100,477.0,0.239583,Sixteenth,F3
3246,Right,0,73,100,477.0,1.489583,DottedQuarter,C#5
3247,Left,1,49,100,477.25,0.239583,Sixteenth,C#3
3249,Right,0,66,100,477.5,0.489583,Eighth,F#4
3248,Left,1,44,100,477.5,0.239583,Sixteenth,G#2
3250,Left,1,41,100,477.75,0.239583,Sixteenth,F2
3251,Right,0,68,121,478.0,1.489583,DottedQuarter,G#4
3252,Left,1,49,100,478.0,0.239583,Sixteenth,C#3
3253,Left,1,44,100,478.25,0.239583,Sixteenth,G#2
3255,Right,0,76,100,478.5,0.489583,Eighth,E5
3254,Left,1,41,100,478.5,0.239583,Sixteenth,F2
3256,Left,1,37,100,478.75,0.239583,Sixteenth,C#2
3258,Left,1,44,100,479.0,0.239583,Sixteenth,G#2
3257,Right,0,77,100,479.0,0.489583,Eighth,F5
3259,Left,1,41,100,479.25,0.239583,Sixteenth,F2
3261,Left,1,39,100,479.5,0.239583,Sixteenth,D#2
3260,Right,0,78,100,479.5,1.489583,DottedEighth,F#5_A#4
3263,Left,1,37,100,479.75,0.239583,Sixteenth,C#2
3264,Left,1,58,100,480.0,0.489583,Eighth,A#3_A#2
3266,Right,0,82,100,480.25,0.239583,Sixteenth,A#5
3268,Left,1,47,100,480.5,0.489583,Eighth,B3_B2
3267,Right,0,80,100,480.5,0.239583,Sixteenth,G#5
3270,Right,0,78,100,480.75,0.239583,Sixteenth,F#5
3272,Left,1,49,122,481.0,1.239583,TiedQuarter-Sixteenth,C#4_C#3
3271,Right,0,77,100,481.0,0.239583,Sixteenth,F5
3274,Right,0,75,100,481.25,0.239583,Sixteenth,D#5
3275,Right,0,73,100,481.5,0.239583,Sixteenth,C#5
3276,Right,0,71,100,481.75,0.239583,Sixteenth,B4
3277,Right,0,70,100,482.0,1.489583,DottedQuarter,C#4_A#4
3279,Left,1,58,100,482.25,0.239583,Sixteenth,A#3
3280,Left,1,54,100,482.5,0.239583,Sixteenth,F#3
3281,Right,0,65,100,482.5,0.489583,Eighth,F4
3282,Left,1,49,100,482.75,0.239583,Sixteenth,C#3
3283,Right,0,66,100,483.0,1.489583,DottedQuarter,F#4
3284,Left,1,58,100,483.0,0.239583,Sixteenth,A#3
3285,Left,1,54,100,483.25,0.239583,Sixteenth,F#3
3286,Left,1,49,100,483.5,0.239583,Sixteenth,C#3
3287,Right,0,71,100,483.5,0.489583,Eighth,B4
3288,Left,1,46,100,483.75,0.239583,Sixteenth,A#2
3290,Left,1,54,100,484.0,0.239583,Sixteenth,F#3
3289,Right,0,73,121,484.0,1.489583,DottedQuarter,C#5
3291,Left,1,49,100,484.25,0.239583,Sixteenth,C#3
3293,Left,1,46,100,484.5,0.239583,Sixteenth,A#2
3292,Right,0,68,100,484.5,0.489583,Eighth,G#4
3294,Left,1,42,100,484.75,0.239583,Sixteenth,F#2
3296,Left,1,49,100,485.0,0.239583,Sixteenth,C#3
3295,Right,0,70,100,485.0,0.489583,Eighth,A#4
3297,Left,1,46,100,485.25,0.239583,Sixteenth,A#2
3298,Right,0,78,100,485.5,0.989583,DottedEighth,F#5_A#5
3300,Left,1,44,100,485.5,0.239583,Sixteenth,G#2
3301,Left,1,42,100,485.75,0.239583,Sixteenth,F#2
3302,Left,1,50,100,486.0,0.489583,Eighth,D3_D2
3304,Right,0,74,100,486.25,0.239583,Sixteenth,D5
3305,Right,0,73,100,486.5,0.239583,Sixteenth,C#5
3306,Left,1,40,100,486.5,0.489583,Eighth,E3_E2
3308,Right,0,71,100,486.75,0.239583,Sixteenth,B4
3309,Right,0,70,100,487.0,0.239583,Sixteenth,A#4
3310,Left,1,42,123,487.0,1.239583,TiedQuarter-Sixteenth,F#3_F#2
3312,Right,0,67,100,487.25,0.239583,Sixteenth,G4
3313,Right,0,66,100,487.5,0.239583,Sixteenth,F#4
3314,Right,0,64,100,487.75,0.239583,Sixteenth,E4
3315,Right,0,62,100,488.0,1.489583,DottedQuarter,F#4_D4
3317,Left,1,50,100,488.25,0.239583,Sixteenth,D3
3319,Right,0,70,100,488.5,0.489583,Eighth,A#4
3318,Left,1,47,100,488.5,0.239583,Sixteenth,B2
3320,Left,1,41,100,488.75,0.239583,Sixteenth,F2
3321,Right,0,71,100,489.0,1.489583,DottedQuarter,B4
3322,Left,1,50,100,489.0,0.239583,Sixteenth,D3
3323,Left,1,47,100,489.25,0.239583,Sixteenth,B2
3324,Left,1,42,100,489.5,0.239583,Sixteenth,F#2
3325,Right,0,64,100,489.5,0.489583,Eighth,E4
3326,Left,1,38,100,489.75,0.239583,Sixteenth,D2
3327,Right,0,66,121,490.0,1.489583,DottedQuarter,F#4
3328,Left,1,47,100,490.0,0.239583,Sixteenth,B2
3329,Left,1,42,100,490.25,0.239583,Sixteenth,F#2
3330,Right,0,73,100,490.5,0.489583,Eighth,C#5
3331,Left,1,38,100,490.5,0.239583,Sixteenth,D2
3332,Left,1,35,100,490.75,0.239583,Sixteenth,B1
3333,Right,0,74,100,491.0,0.489583,Eighth,D5
3334,Left,1,42,100,491.0,0.239583,Sixteenth,F#2
3335,Left,1,38,100,491.25,0.239583,Sixteenth,D2
3337,Right,0,73,100,491.5,0.489583,Eighth,E5_C#5
3336,Left,1,37,100,491.5,0.239583,Sixteenth,C#2
3339,Left,1,35,100,491.75,0.239583,Sixteenth,B1
3340,Right,0,78,100,492.0,0.489583,Eighth,F#5_D5
3342,Left,1,30,100,492.0,0.489583,Eighth,F#1
3343,Right,0,73,100,492.5,0.489583,Sixteenth,C#5_A#5
3345,Right,0,71,100,492.75,0.239583,Sixteenth,B4
3346,Right,0,74,100,493.0,1.489583,Sixteenth,D5_B5
3348,Right,0,71,100,493.25,0.239583,Sixteenth,B4
3349,Left,1,67,100,493.5625,0.239583,Sixteenth,G4
3350,Left,1,66,100,493.75,0.239583,Sixteenth,F#4
3351,Left,1,71,100,494.0,0.239583,Sixteenth,B4
3352,Left,1,66,100,494.25,0.239583,Sixteenth,F#4
3353,Left,1,64,100,494.5,0.239583,Sixteenth,E4
3354,Right,0,85,100,494.5,0.489583,Eighth,C#6
3355,Left,1,62,100,494.75,0.239583,Sixteenth,D4
3356,Left,1,66,100,495.0,0.239583,Sixteenth,F#4
3357,Right,0,86,100,495.0,0.489583,Eighth,D6
3358,Left,1,62,100,495.25,0.239583,Sixteenth,D4
3360,Right,0,88,100,495.5,0.489583,Eighth,E6
3359,Left,1,61,100,495.5,0.239583,Sixteenth,C#4
3361,Left,1,59,100,495.75,0.239583,Sixteenth,B3
3363,Left,1,62,80,496.0,0.239583,Sixteenth,D4
3362,Right,0,90,119,496.0,0.489583,Eighth,F#6
3364,Left,1,59,100,496.25,0.239583,Sixteenth,B3
3365,Left,1,55,97,496.5,0.239583,Sixteenth,G3
3366,Left,1,54,94,496.75,0.239583,Sixteenth,F#3
3367,Right,0,78,80,497.0,0.489583,Eighth,F#5
3368,Left,1,55,91,497.0,0.239583,Sixteenth,G3
3369,Left,1,54,87,497.25,0.239583,Sixteenth,F#3
3370,Left,1,56,84,497.5,0.239583,Sixteenth,G#3
3371,Left,1,58,81,497.75,0.239583,Sixteenth,A#3
3372,Left,1,59,80,498.0,0.239583,Sixteenth,B3
3373,Left,1,61,80,498.25,0.239583,Sixteenth,C#4
3374,Left,1,62,80,498.5,0.239583,Sixteenth,D4
3375,Left,1,64,80,498.75,0.239583,Sixteenth,E4
3376,Left,1,66,80,499.0,0.239583,Sixteenth,F#4
3377,Left,1,67,80,499.25,0.239583,Sixteenth,G4
3378,Left,1,66,80,499.5,0.239583,Sixteenth,F#4
3379,Left,1,65,80,499.75,0.239583,Sixteenth,F4
3381,Right,0,78,80,500.0,0.989583,Quarter,F#5
3380,Left,1,64,80,500.0,0.239583,Sixteenth,E4
3382,Left,1,62,80,500.25,0.239583,Sixteenth,D4
3383,Left,1,61,80,500.5,0.239583,Sixteenth,C#4
3384,Left,1,59,80,500.75,0.239583,Sixteenth,B3
3385,Right,0,76,80,501.0,1.989583,Half,E5
3386,Left,1,61,80,501.0,0.239583,Sixteenth,C#4
3387,Left,1,62,80,501.25,0.239583,Sixteenth,D4
3388,Left,1,61,80,501.5,0.239583,Sixteenth,C#4
3389,Left,1,60,80,501.75,0.239583,Sixteenth,C4
3390,Left,1,59,80,502.0,0.239583,Sixteenth,B3
3391,Left,1,58,80,502.25,0.239583,Sixteenth,A#3
3392,Left,1,56,80,502.5,0.239583,Sixteenth,G#3
3393,Left,1,54,80,502.75,0.239583,Sixteenth,F#3
3394,Left,1,56,80,503.0,0.239583,Sixteenth,G#3
3395,Right,0,73,80,503.0,0.989583,Quarter,C#5
3396,Left,1,58,80,503.25,0.239583,Sixteenth,A#3
3397,Left,1,59,80,503.5,0.239583,Sixteenth,B3
3398,Left,1,58,80,503.75,0.239583,Sixteenth,A#3
3399,Left,1,59,80,504.0,0.239583,Sixteenth,B3
3400,Right,0,74,80,504.0,1.989583,Half,D5
3401,Left,1,61,80,504.25,0.239583,Sixteenth,C#4
3402,Left,1,62,80,504.5,0.239583,Sixteenth,D4
3403,Left,1,61,80,504.75,0.239583,Sixteenth,C#4
3404,Left,1,62,80,505.0,0.239583,Sixteenth,D4
3405,Left,1,64,80,505.25,0.239583,Sixteenth,E4
3406,Left,1,64,80,506.0,0.989583,Quarter,E4
3407,Right,0,73,80,506.0,1.989583,Half,C#5
3408,Left,1,59,80,507.0,0.239583,Sixteenth,B3
3409,Left,1,61,80,507.25,0.239583,Sixteenth,C#4
3410,Left,1,62,80,507.5,0.239583,Sixteenth,D4
3411,Left,1,64,80,507.75,0.239583,Sixteenth,E4
3412,Right,0,71,80,508.0,0.989583,Quarter,B4
3413,Left,1,66,80,508.0,0.239583,Sixteenth,F#4
3414,Left,1,67,80,508.25,0.239583,Sixteenth,G4
3415,Left,1,67,80,509.0,0.989583,Quarter,G4
3416,Right,0,71,80,509.0,1.989583,Half,B4
3417,Left,1,62,80,510.0,0.239583,Sixteenth,D4
3418,Left,1,64,80,510.25,0.239583,Sixteenth,E4
3419,Left,1,66,80,510.5,0.239583,Sixteenth,F#4
3420,Left,1,68,80,510.75,0.239583,Sixteenth,G#4
3421,Right,0,66,80,511.0,0.989583,Quarter,F#4
3422,Left,1,70,80,511.0,0.239583,Sixteenth,A#4
3423,Left,1,71,80,511.25,0.239583,Sixteenth,B4
3424,Right,0,74,80,512.0,0.989583,Quarter,D5
3425,Left,1,71,80,512.0,0.989583,Quarter,B4
3427,Right,0,73,80,513.0,0.989583,Quarter,C#5
3426,Left,1,70,80,513.0,0.208333,Sixteenth,A#4
3428,Left,1,71,80,513.125,0.208333,Sixteenth,B4
3429,Left,1,70,80,513.25,0.208333,Sixteenth,A#4
3430,Left,1,71,80,513.375,0.208333,Sixteenth,B4
3431,Left,1,70,80,513.5,0.208333,Sixteenth,A#4
3432,Left,1,71,80,513.625,0.208333,Sixteenth,B4
3433,Left,1,70,80,513.75,0.208333,Sixteenth,A#4
3434,Left,1,71,80,513.875,0.208333,Sixteenth,B4
3436,Right,0,66,80,514.0,0.489583,Eighth,F#4
3435,Left,1,70,80,514.0,0.208333,Sixteenth,A#4
3437,Left,1,71,80,514.125,0.208333,Sixteenth,B4
3438,Left,1,70,80,514.25,0.208333,Sixteenth,A#4
3439,Left,1,71,80,514.375,0.208333,Sixteenth,B4
3440,Left,1,70,80,514.5,0.208333,Sixteenth,A#4
3441,Left,1,71,80,514.625,0.208333,Sixteenth,B4
3442,Left,1,68,80,514.75,0.208333,Sixteenth,G#4
3443,Left,1,70,80,514.875,0.208333,Sixteenth,A#4
3444,Left,1,54,80,515.0,0.489583,Eighth,F#3
3445,Right,0,82,80,515.0,0.208333,Sixteenth,A#5
3446,Right,0,83,80,515.125,0.208333,Sixteenth,B5
3447,Right,0,82,80,515.25,0.208333,Sixteenth,A#5
3448,Right,0,83,80,515.375,0.208333,Sixteenth,B5
3449,Right,0,82,80,515.5,0.208333,Sixteenth,A#5
3450,Right,0,83,80,515.625,0.208333,Sixteenth,B5
3451,Right,0,82,80,515.75,0.208333,Sixteenth,A#5
3452,Right,0,83,80,515.875,0.208333,Sixteenth,B5
3453,Right,0,82,80,516.0,0.208333,Sixteenth,A#5
3454,Right,0,83,80,516.125,0.208333,Sixteenth,B5
3455,Right,0,82,80,516.25,0.208333,Sixteenth,A#5
3456,Right,0,83,80,516.375,0.208333,Sixteenth,B5
3457,Right,0,82,80,516.5,0.208333,Sixteenth,A#5
3458,Right,0,83,80,516.625,0.208333,Sixteenth,B5
3459,Right,0,80,80,516.75,0.208333,Sixteenth,G#5
3460,Right,0,82,80,516.875,0.208333,Sixteenth,A#5
3462,Left,1,59,80,517.0,0.489583,Eighth,B3
3461,Right,0,83,80,517.0,0.989583,Quarter,B5
3463,Left,1,74,80,518.0,0.208333,Sixteenth,D5
3464,Left,1,76,80,518.125,0.208333,Sixteenth,E5
3465,Left,1,74,80,518.25,0.208333,Sixteenth,D5
3466,Left,1,76,80,518.375,0.208333,Sixteenth,E5
3467,Right,0,83,80,518.5,0.239583,Sixteenth,B5
3468,Left,1,74,80,518.5,0.208333,Sixteenth,D5
3469,Left,1,76,80,518.625,0.208333,Sixteenth,E5
3471,Right,0,81,80,518.75,0.239583,Sixteenth,A5
3470,Left,1,74,80,518.75,0.208333,Sixteenth,D5
3472,Left,1,76,80,518.875,0.208333,Sixteenth,E5
3474,Right,0,79,80,519.0,0.239583,Sixteenth,G5
3473,Left,1,74,80,519.0,0.208333,Sixteenth,D5
3475,Left,1,76,80,519.125,0.208333,Sixteenth,E5
3477,Left,1,74,80,519.25,0.208333,Sixteenth,D5
3476,Right,0,78,80,519.25,0.239583,Sixteenth,F#5
3478,Left,1,76,80,519.375,0.208333,Sixteenth,E5
3480,Left,1,74,80,519.5,0.208333,Sixteenth,D5
3479,Right,0,76,80,519.5,0.239583,Sixteenth,E5
3481,Left,1,76,80,519.625,0.208333,Sixteenth,E5
3482,Left,1,73,80,519.75,0.208333,Sixteenth,C#5
3483,Right,0,78,80,519.75,0.239583,Sixteenth,F#5
3484,Left,1,74,80,519.875,0.208333,Sixteenth,D5
3485,Left,1,76,80,520.0,0.989583,Quarter,E5
3486,Right,0,79,80,520.0,0.239583,Sixteenth,G5
3487,Right,0,81,80,520.25,0.239583,Sixteenth,A5
3488,Right,0,79,80,520.5,0.239583,Sixteenth,G5
3489,Right,0,78,80,520.75,0.239583,Sixteenth,F#5
3490,Right,0,76,80,521.0,0.989583,Sixteenth,G4_E5
3491,Left,1,45,80,521.0,0.489583,Eighth,A2
3493,Right,0,74,80,521.25,0.239583,Sixteenth,D5
3494,Right,0,73,80,521.5,0.239583,Sixteenth,C#5
3495,Right,0,74,80,521.75,0.239583,Sixteenth,D5
3496,Right,0,76,80,522.0,0.239583,Sixteenth,E5
3497,Left,1,61,80,522.0,0.208333,Sixteenth,C#4
3498,Left,1,62,80,522.125,0.208333,Sixteenth,D4
3500,Left,1,61,80,522.25,0.208333,Sixteenth,C#4
3499,Right,0,74,80,522.25,0.239583,Sixteenth,D5
3501,Left,1,62,80,522.375,0.208333,Sixteenth,D4
3503,Left,1,61,80,522.5,0.208333,Sixteenth,C#4
3502,Right,0,73,80,522.5,0.239583,Sixteenth,C#5
3504,Left,1,62,80,522.625,0.208333,Sixteenth,D4
3505,Left,1,61,80,522.75,0.208333,Sixteenth,C#4
3506,Right,0,71,80,522.75,0.239583,Sixteenth,B4
3507,Left,1,62,80,522.875,0.208333,Sixteenth,D4
3509,Left,1,61,80,523.0,0.208333,Sixteenth,C#4
3508,Right,0,69,80,523.0,0.239583,Sixteenth,A4
3510,Left,1,62,80,523.125,0.208333,Sixteenth,D4
3511,Left,1,61,80,523.25,0.208333,Sixteenth,C#4
3512,Right,0,68,80,523.25,0.239583,Sixteenth,G#4
3513,Left,1,62,80,523.375,0.208333,Sixteenth,D4
3514,Right,0,69,80,523.5,0.239583,Sixteenth,A4
3515,Left,1,61,80,523.5,0.208333,Sixteenth,C#4
3516,Left,1,62,80,523.625,0.208333,Sixteenth,D4
3517,Left,1,59,80,523.75,0.208333,Sixteenth,B3
3518,Right,0,67,80,523.75,0.239583,Sixteenth,G4
3519,Left,1,61,80,523.875,0.208333,Sixteenth,C#4
3521,Left,1,62,80,524.0,0.989583,Quarter,D4
3520,Right,0,66,80,524.0,0.239583,Sixteenth,F#4
3522,Right,0,69,80,524.25,0.239583,Sixteenth,A4
3523,Right,0,69,80,524.5,0.489583,Eighth,B4_A4
3525,Right,0,73,80,524.75,0.239583,Sixteenth,C#5
3526,Left,1,71,80,525.0,0.489583,Eighth,B4
3527,Right,0,74,80,525.0,0.239583,Sixteenth,D5
3528,Right,0,76,80,525.25,0.239583,Sixteenth,E5
3530,Right,0,78,80,525.5,0.239583,Sixteenth,F#5
3529,Left,1,67,80,525.5,0.489583,Eighth,G4
3531,Right,0,79,80,525.75,0.239583,Sixteenth,G5
3533,Left,1,66,80,526.0,0.489583,Eighth,F#4
3532,Right,0,81,80,526.0,0.239583,Sixteenth,A5
3534,Right,0,83,80,526.25,0.239583,Sixteenth,B5
3536,Left,1,65,80,526.5,0.489583,Eighth,F4
3535,Right,0,81,80,526.5,0.239583,Sixteenth,A5
3537,Right,0,80,80,526.75,0.239583,Sixteenth,G#5
3540,Right,0,79,80,527.0,0.239583,Sixteenth,G5
3538,Left,1,57,80,527.0,1.989583,Quarter,F#4_A3
3541,Right,0,78,80,527.25,0.239583,Sixteenth,F#5
3542,Right,0,76,80,527.5,0.239583,Sixteenth,E5
3543,Right,0,75,80,527.75,0.239583,Sixteenth,D#5
3544,Right,0,76,80,528.0,0.239583,Sixteenth,E5
3545,Right,0,78,80,528.25,0.239583,Sixteenth,F#5
3546,Right,0,76,80,528.5,0.239583,Sixteenth,E5
3547,Right,0,74,80,528.75,0.239583,Sixteenth,D5
3549,Left,1,64,80,529.0,0.989583,Quarter,E4
3548,Right,0,74,80,529.0,0.239583,Sixteenth,D5
3550,Right,0,73,80,529.25,0.239583,Sixteenth,C#5
3551,Right,0,71,80,529.5,0.239583,Sixteenth,B4
3552,Right,0,69,80,529.75,0.239583,Sixteenth,A4
3553,Left,1,55,80,530.0,0.989583,Quarter,G3_E3
3555,Right,0,71,80,530.0,0.239583,Sixteenth,B4
3556,Right,0,73,80,530.25,0.239583,Sixteenth,C#5
3557,Right,0,74,80,530.5,0.239583,Sixteenth,D5
3558,Right,0,73,80,530.75,0.239583,Sixteenth,C#5
3560,Left,1,59,80,531.0,1.989583,Quarter,F#3_B3
3559,Right,0,74,80,531.0,0.239583,Sixteenth,D5
3562,Right,0,76,80,531.25,0.239583,Sixteenth,E5
3563,Right,0,78,80,531.5,0.239583,Sixteenth,F#5
3564,Right,0,76,80,531.75,0.239583,Sixteenth,E5
3565,Right,0,78,80,532.0,0.239583,Sixteenth,F#5
3566,Left,1,57,80,532.0,0.989583,Quarter,A3
3567,Right,0,79,80,532.25,0.239583,Sixteenth,G5
3570,Right,0,79,80,533.0,0.989583,Quarter,G5
3568,Left,1,55,80,533.0,1.989583,Half,G3_E3
3571,Right,0,74,80,534.0,0.239583,Sixteenth,D5
3572,Right,0,76,80,534.25,0.239583,Sixteenth,E5
3573,Right,0,78,80,534.5,0.239583,Sixteenth,F#5
3574,Right,0,79,80,534.75,0.239583,Sixteenth,G5
3575,Left,1,54,80,535.0,0.989583,Quarter,F#3_D3
3577,Right,0,81,80,535.0,0.239583,Sixteenth,A5
3578,Right,0,83,80,535.25,0.239583,Sixteenth,B5
3581,Right,0,83,80,536.0,0.989583,Quarter,B5
3579,Left,1,55,80,536.0,1.989583,DottedQuarter,G3_D3
3582,Right,0,78,80,537.0,0.239583,Sixteenth,F#5
3583,Right,0,79,80,537.25,0.239583,Sixteenth,G5
3584,Left,1,54,80,537.5,0.489583,Eighth,F#3
3585,Right,0,81,80,537.5,0.239583,Sixteenth,A5
3586,Right,0,83,80,537.75,0.239583,Sixteenth,B5
3589,Right,0,85,80,538.0,0.239583,Sixteenth,C#6
3587,Left,1,45,80,538.0,0.989583,Quarter,E3_A2
3590,Right,0,86,80,538.25,0.239583,Sixteenth,D6
3591,Left,1,54,80,538.5,0.489583,Eighth,F#3
3593,Left,1,56,80,539.0,0.989583,Eighth,G#3_F#3
3592,Right,0,86,80,539.0,0.989583,Quarter,D6
3595,Left,1,57,80,539.5,0.489583,Eighth,A3
3596,Right,0,85,80,540.0,0.208333,Sixteenth,C#6
3597,Left,1,52,80,540.0,1.989583,Quarter,G3_E3
3599,Right,0,86,80,540.125,0.208333,Sixteenth,D6
3600,Right,0,85,80,540.25,0.208333,Sixteenth,C#6
3601,Right,0,86,80,540.375,0.208333,Sixteenth,D6
3602,Right,0,85,80,540.5,0.208333,Sixteenth,C#6
3603,Right,0,86,80,540.625,0.208333,Sixteenth,D6
3604,Right,0,85,80,540.75,0.208333,Sixteenth,C#6
3605,Right,0,86,80,540.875,0.208333,Sixteenth,D6
3606,Right,0,85,80,541.0,0.208333,Sixteenth,C#6
3607,Left,1,45,80,541.0,0.989583,Quarter,A2
3608,Right,0,86,80,541.125,0.208333,Sixteenth,D6
3609,Right,0,85,80,541.25,0.208333,Sixteenth,C#6
3610,Right,0,86,80,541.375,0.208333,Sixteenth,D6
3611,Right,0,85,80,541.5,0.208333,Sixteenth,C#6
3612,Right,0,86,80,541.625,0.208333,Sixteenth,D6
3613,Right,0,83,80,541.75,0.208333,Sixteenth,B5
3614,Right,0,85,80,541.875,0.208333,Sixteenth,C#6
3616,Right,0,70,80,542.0,0.489583,Eighth,A#4
3615,Left,1,54,80,542.0,0.489583,Eighth,F#3
3617,Right,0,78,80,543.0,0.989583,Quarter,F#5_A#4
3619,Right,0,71,80,543.125,0.208333,Sixteenth,B4
3620,Right,0,70,80,543.25,0.208333,Sixteenth,A#4
3621,Right,0,71,80,543.375,0.208333,Sixteenth,B4
3622,Right,0,70,80,543.5,0.208333,Sixteenth,A#4
3623,Right,0,71,80,543.625,0.208333,Sixteenth,B4
3624,Right,0,70,80,543.75,0.208333,Sixteenth,A#4
3625,Right,0,71,80,543.875,0.208333,Sixteenth,B4
3626,Right,0,70,80,544.0,0.989583,Sixteenth,E5_A#4
3628,Right,0,71,80,544.125,0.208333,Sixteenth,B4
3629,Right,0,70,80,544.25,0.208333,Sixteenth,A#4
3630,Right,0,71,80,544.375,0.208333,Sixteenth,B4
3631,Right,0,70,80,544.5,0.208333,Sixteenth,A#4
3632,Right,0,71,80,544.625,0.208333,Sixteenth,B4
3633,Right,0,70,80,544.75,0.208333,Sixteenth,A#4
3634,Right,0,71,80,544.875,0.208333,Sixteenth,B4
3636,Right,0,70,80,545.0,0.989583,Sixteenth,C#5_A#4
3635,Left,1,54,80,545.0,0.239583,Sixteenth,F#3
3638,Right,0,71,80,545.125,0.208333,Sixteenth,B4
3640,Right,0,70,80,545.25,0.208333,Sixteenth,A#4
3639,Left,1,52,80,545.25,0.239583,Sixteenth,E3
3641,Right,0,71,80,545.375,0.208333,Sixteenth,B4
3643,Left,1,50,80,545.5,0.239583,Sixteenth,D3
3642,Right,0,70,80,545.5,0.208333,Sixteenth,A#4
3644,Right,0,71,80,545.625,0.208333,Sixteenth,B4
3646,Right,0,68,80,545.75,0.208333,Sixteenth,G#4
3645,Left,1,49,80,545.75,0.239583,Sixteenth,C#3
3647,Right,0,69,80,545.875,0.208333,Sixteenth,A4
3648,Right,0,76,80,546.0,1.989583,Quarter,E5_B4
3649,Left,1,47,80,546.0,0.239583,Sixteenth,B2
3651,Left,1,49,80,546.25,0.239583,Sixteenth,C#3
3652,Left,1,50,80,546.5,0.239583,Sixteenth,D3
3653,Left,1,52,80,546.75,0.239583,Sixteenth,E3
3654,Left,1,54,80,547.0,0.239583,Sixteenth,F#3
3655,Right,0,74,80,547.0,2.989583,DottedHalf,D5
3656,Left,1,55,80,547.25,0.239583,Sixteenth,G3
3657,Left,1,54,80,547.5,0.239583,Sixteenth,F#3
3658,Left,1,53,80,547.75,0.239583,Sixteenth,F3
3660,Left,1,52,80,548.0,0.239583,Sixteenth,E3
3659,Right,0,66,80,548.0,0.989583,Quarter,F#4
3661,Left,1,50,80,548.25,0.239583,Sixteenth,D3
3662,Left,1,49,80,548.5,0.239583,Sixteenth,C#3
3663,Left,1,47,80,548.75,0.239583,Sixteenth,B2
3664,Left,1,49,80,549.0,0.239583,Sixteenth,C#3
3665,Right,0,64,80,549.0,1.989583,Half,E4
3666,Left,1,50,80,549.25,0.239583,Sixteenth,D3
3667,Left,1,49,80,549.5,0.239583,Sixteenth,C#3
3668,Left,1,48,80,549.75,0.239583,Sixteenth,C3
3669,Right,0,73,80,550.0,2.989583,DottedHalf,C#5
3670,Left,1,47,80,550.0,0.239583,Sixteenth,B2
3671,Left,1,46,80,550.25,0.239583,Sixteenth,A#2
3672,Left,1,44,80,550.5,0.239583,Sixteenth,G#2
3673,Left,1,42,80,550.75,0.239583,Sixteenth,F#2
3674,Left,1,44,80,551.0,0.239583,Sixteenth,G#2
3675,Right,0,61,80,551.0,0.989583,Quarter,C#4
3676,Left,1,46,80,551.25,0.239583,Sixteenth,A#2
3677,Left,1,47,80,551.5,0.239583,Sixteenth,B2
3678,Left,1,46,80,551.75,0.239583,Sixteenth,A#2
3679,Right,0,64,80,552.0,0.989583,Quarter,E4
3680,Left,1,47,80,552.0,0.239583,Sixteenth,B2
3681,Left,1,49,80,552.25,0.239583,Sixteenth,C#3
3682,Left,1,50,80,552.5,0.239583,Sixteenth,D3
3683,Left,1,49,80,552.75,0.239583,Sixteenth,C#3
3686,Left,1,50,80,553.0,0.239583,Sixteenth,D3
3684,Right,0,62,80,553.0,3.989583,Quarter,D4_B4
3687,Left,1,52,80,553.25,0.239583,Sixteenth,E3
3689,Left,1,52,80,554.0,0.989583,Quarter,E3
3688,Right,0,61,80,554.0,1.989583,Half,C#4
3690,Left,1,47,80,555.0,0.239583,Sixteenth,B2
3691,Left,1,49,80,555.25,0.239583,Sixteenth,C#3
3692,Left,1,50,80,555.5,0.239583,Sixteenth,D3
3693,Left,1,52,80,555.75,0.239583,Sixteenth,E3
3695,Right,0,59,80,556.0,0.989583,Quarter,B3
3694,Left,1,54,80,556.0,0.239583,Sixteenth,F#3
3696,Left,1,55,80,556.25,0.239583,Sixteenth,G3
3698,Right,0,59,80,557.0,0.989583,Quarter,E4_B3
3697,Left,1,55,80,557.0,0.989583,Quarter,G3
3700,Right,0,62,80,557.5,0.489583,Eighth,D4
3701,Right,0,59,80,558.0,0.989583,Quarter,C#4_B3
3702,Left,1,50,80,558.0,0.239583,Sixteenth,D3
3704,Left,1,52,80,558.25,0.239583,Sixteenth,E3
3705,Right,0,62,80,558.5,0.489583,Eighth,D4
3706,Left,1,54,80,558.5,0.239583,Sixteenth,F#3
3707,Left,1,56,80,558.75,0.239583,Sixteenth,G#3
3709,Right,0,61,80,559.0,0.989583,Eighth,F#3_C#4
3708,Left,1,58,80,559.0,0.239583,Sixteenth,A#3
3711,Left,1,59,80,559.25,0.239583,Sixteenth,B3
3712,Right,0,62,80,559.5,0.489583,Eighth,D4
3713,Left,1,59,80,560.0,0.989583,Quarter,B3
3714,Right,0,62,80,560.0,0.989583,Quarter,E4_D4
3716,Right,0,65,80,560.5,0.489583,Eighth,F4
3718,Left,1,58,80,561.0,0.208333,Sixteenth,A#3
3717,Right,0,66,80,561.0,1.989583,Half,F#4_C#4
3720,Left,1,59,80,561.125,0.208333,Sixteenth,B3
3721,Left,1,58,80,561.25,0.208333,Sixteenth,A#3
3722,Left,1,59,80,561.375,0.208333,Sixteenth,B3
3723,Left,1,58,80,561.5,0.208333,Sixteenth,A#3
3724,Left,1,59,80,561.625,0.208333,Sixteenth,B3
3725,Left,1,58,80,561.75,0.208333,Sixteenth,A#3
3726,Left,1,59,80,561.875,0.208333,Sixteenth,B3
3728,Left,1,58,80,562.0,0.208333,Sixteenth,A#3
3727,Right,0,54,80,562.0,0.989583,Quarter,F#3
3729,Left,1,59,80,562.125,0.208333,Sixteenth,B3
3730,Left,1,58,80,562.25,0.208333,Sixteenth,A#3
3731,Left,1,59,80,562.375,0.208333,Sixteenth,B3
3732,Left,1,58,80,562.5,0.208333,Sixteenth,A#3
3733,Left,1,59,80,562.625,0.208333,Sixteenth,B3
3734,Left,1,58,80,562.75,0.208333,Sixteenth,A#3
3735,Left,1,59,80,562.875,0.208333,Sixteenth,B3
3736,Left,1,42,80,563.0,0.489583,Eighth,F#2
3737,Right,0,78,80,563.0,0.989583,Quarter,F#5
3738,Left,1,44,80,563.5,0.239583,Sixteenth,G#2
3739,Left,1,46,80,563.75,0.239583,Sixteenth,A#2
3741,Right,0,74,80,564.0,0.208333,Sixteenth,D5
3740,Left,1,47,80,564.0,0.239583,Sixteenth,B2
3742,Right,0,76,80,564.125,0.208333,Sixteenth,E5
3744,Right,0,74,80,564.25,0.208333,Sixteenth,D5
3743,Left,1,49,80,564.25,0.239583,Sixteenth,C#3
3745,Right,0,76,80,564.375,0.208333,Sixteenth,E5
3746,Right,0,74,80,564.5,0.208333,Sixteenth,D5
3747,Left,1,50,80,564.5,0.239583,Sixteenth,D3
3748,Right,0,76,80,564.625,0.208333,Sixteenth,E5
3749,Left,1,52,80,564.75,0.239583,Sixteenth,E3
3750,Right,0,74,80,564.75,0.208333,Sixteenth,D5
3751,Right,0,76,80,564.875,0.208333,Sixteenth,E5
3752,Left,1,54,80,565.0,0.489583,Eighth,F#3
3753,Right,0,74,80,565.0,0.208333,Sixteenth,D5
3754,Right,0,76,80,565.125,0.208333,Sixteenth,E5
3755,Right,0,74,80,565.25,0.208333,Sixteenth,D5
3756,Right,0,76,80,565.375,0.208333,Sixteenth,E5
3757,Right,0,74,80,565.5,0.208333,Sixteenth,D5
3758,Right,0,76,80,565.625,0.208333,Sixteenth,E5
3759,Right,0,74,80,565.75,0.208333,Sixteenth,D5
3760,Right,0,76,80,565.875,0.208333,Sixteenth,E5
3762,Right,0,71,80,566.0,0.989583,Eighth,D4_B4
3761,Left,1,59,80,566.0,0.989583,Quarter,B3
3764,Right,0,65,80,566.5,0.489583,Eighth,F4
3765,Right,0,66,80,567.0,1.989583,Half,F#4_C#4
3767,Left,1,58,80,567.0,0.208333,Sixteenth,A#3
3768,Left,1,59,80,567.125,0.208333,Sixteenth,B3
3769,Left,1,58,80,567.25,0.208333,Sixteenth,A#3
3770,Left,1,59,80,567.375,0.208333,Sixteenth,B3
3771,Left,1,58,80,567.5,0.208333,Sixteenth,A#3
3772,Left,1,59,80,567.625,0.208333,Sixteenth,B3
3773,Left,1,58,80,567.75,0.208333,Sixteenth,A#3
3774,Left,1,59,80,567.875,0.208333,Sixteenth,B3
3775,Left,1,58,80,568.0,0.208333,Sixteenth,A#3
3776,Right,0,54,80,568.0,0.989583,Quarter,F#3
3777,Left,1,59,80,568.125,0.208333,Sixteenth,B3
3778,Left,1,58,80,568.25,0.208333,Sixteenth,A#3
3779,Left,1,59,80,568.375,0.208333,Sixteenth,B3
3780,Left,1,58,80,568.5,0.208333,Sixteenth,A#3
3781,Left,1,59,80,568.625,0.208333,Sixteenth,B3
3782,Left,1,58,80,568.75,0.208333,Sixteenth,A#3
3783,Left,1,59,80,568.875,0.208333,Sixteenth,B3
3785,Left,1,54,80,569.0,0.989583,Quarter,F#3_F#2
3784,Right,0,66,80,569.0,0.489583,Eighth,F#4
3787,Right,0,68,80,569.5,0.239583,Sixteenth,G#4
3788,Right,0,70,80,569.75,0.239583,Sixteenth,A#4
3789,Right,0,71,80,570.0,0.239583,Sixteenth,B4
3790,Left,1,50,80,570.0,0.208333,Sixteenth,D3
3791,Left,1,52,80,570.125,0.208333,Sixteenth,E3
3792,Right,0,73,80,570.25,0.239583,Sixteenth,C#5
3793,Left,1,50,80,570.25,0.208333,Sixteenth,D3
3794,Left,1,52,80,570.375,0.208333,Sixteenth,E3
3796,Left,1,50,80,570.5,0.208333,Sixteenth,D3
3795,Right,0,74,80,570.5,0.239583,Sixteenth,D5
3797,Left,1,52,80,570.625,0.208333,Sixteenth,E3
3798,Left,1,50,80,570.75,0.208333,Sixteenth,D3
3799,Right,0,76,80,570.75,0.239583,Sixteenth,E5
3800,Left,1,52,80,570.875,0.208333,Sixteenth,E3
3802,Right,0,78,80,571.0,0.239583,Sixteenth,F#5
3801,Left,1,50,80,571.0,0.208333,Sixteenth,D3
3803,Left,1,52,80,571.125,0.208333,Sixteenth,E3
3804,Left,1,50,80,571.25,0.208333,Sixteenth,D3
3805,Right,0,79,80,571.25,0.239583,Sixteenth,G5
3806,Left,1,52,80,571.375,0.208333,Sixteenth,E3
3807,Left,1,50,80,571.5,0.208333,Sixteenth,D3
3808,Left,1,52,80,571.625,0.208333,Sixteenth,E3
3809,Left,1,50,80,571.75,0.208333,Sixteenth,D3
3810,Left,1,52,80,571.875,0.208333,Sixteenth,E3
3812,Right,0,79,80,572.0,0.989583,Quarter,G5
3811,Left,1,47,80,572.0,0.489583,Eighth,B2
3813,Left,1,37,80,572.5,0.489583,Eighth,C#2_A#2
3816,Left,1,45,80,573.0,0.989583,Quarter,D2_A2
3815,Right,0,78,80,573.0,0.208333,Sixteenth,F#5
3818,Right,0,79,80,573.125,0.208333,Sixteenth,G5
3819,Left,1,40,80,573.25,0.239583,Sixteenth,E2
3820,Right,0,78,80,573.4375,0.020833,TripletSixtyFourth,F#5
3821,Left,1,42,80,573.5,0.239583,Sixteenth,F#2
3822,Right,0,79,80,573.5625,0.020833,TripletSixtyFourth,G5
3823,Right,0,78,80,573.6875,0.208333,Sixteenth,F#5
3824,Left,1,43,80,573.75,0.239583,Sixteenth,G2
3825,Right,0,79,80,573.8125,0.208333,Sixteenth,G5
3826,Right,0,78,80,574.0,0.208333,Sixteenth,F#5
3827,Left,1,45,80,574.0,0.239583,Sixteenth,A2
3828,Right,0,79,80,574.125,0.208333,Sixteenth,G5
3829,Right,0,78,80,574.25,0.208333,Sixteenth,F#5
3830,Left,1,47,80,574.25,0.239583,Sixteenth,B2
3831,Right,0,79,80,574.375,0.208333,Sixteenth,G5
3832,Right,0,78,80,574.5,0.208333,Sixteenth,F#5
3833,Right,0,79,80,574.625,0.208333,Sixteenth,G5
3834,Right,0,78,80,574.75,0.208333,Sixteenth,F#5
3835,Right,0,79,80,574.875,0.208333,Sixteenth,G5
3836,Left,1,47,80,575.0,0.989583,Quarter,F#3_B2
3838,Right,0,74,80,575.0,0.989583,Quarter,D5
3840,Right,0,71,80,576.0,1.989583,Half,D4_B4
3839,Left,1,43,80,576.0,0.239583,Sixteenth,G2
3842,Right,0,64,80,576.125,0.208333,Sixteenth,E4
3844,Right,0,62,80,576.25,0.208333,Sixteenth,D4
3843,Left,1,45,80,576.25,0.239583,Sixteenth,A2
3845,Right,0,64,80,576.375,0.208333,Sixteenth,E4
3846,Right,0,62,80,576.5,0.208333,Sixteenth,D4
3847,Left,1,47,80,576.5,0.239583,Sixteenth,B2
3848,Right,0,64,80,576.625,0.208333,Sixteenth,E4
3850,Right,0,62,80,576.75,0.208333,Sixteenth,D4
3849,Left,1,49,80,576.75,0.239583,Sixteenth,C#3
3851,Right,0,64,80,576.875,0.208333,Sixteenth,E4
3853,Left,1,50,80,577.0,0.239583,Sixteenth,D3
3852,Right,0,62,80,577.0,0.208333,Sixteenth,D4
3854,Right,0,64,80,577.125,0.208333,Sixteenth,E4
3855,Left,1,52,80,577.25,0.239583,Sixteenth,E3
3856,Right,0,62,80,577.25,0.208333,Sixteenth,D4
3857,Right,0,64,80,577.375,0.208333,Sixteenth,E4
3858,Right,0,62,80,577.5,0.208333,Sixteenth,D4
3859,Right,0,64,80,577.625,0.208333,Sixteenth,E4
3860,Right,0,62,80,577.75,0.208333,Sixteenth,D4
3861,Right,0,64,80,577.875,0.208333,Sixteenth,E4
3863,Right,0,67,80,578.0,0.989583,Quarter,G4_C#4
3862,Left,1,52,80,578.0,0.989583,Quarter,E3
3866,Right,0,64,80,579.0,0.239583,Sixteenth,E4
3865,Left,1,49,80,579.0,0.239583,Sixteenth,C#3
3867,Left,1,50,80,579.25,0.239583,Sixteenth,D3
3868,Right,0,66,80,579.25,0.239583,Sixteenth,F#4
3870,Right,0,67,81,579.5,0.239583,Sixteenth,G4
3869,Left,1,52,81,579.5,0.239583,Sixteenth,E3
3871,Left,1,54,82,579.75,0.239583,Sixteenth,F#3
3872,Right,0,69,82,579.75,0.239583,Sixteenth,A4
3873,Left,1,55,83,580.0,0.239583,Sixteenth,G3
3874,Right,0,71,83,580.0,0.239583,Sixteenth,B4
3876,Left,1,57,84,580.25,0.239583,Sixteenth,A3
3875,Right,0,73,84,580.25,0.239583,Sixteenth,C#5
3877,Right,0,61,85,580.5,0.239583,Sixteenth,C#4
3878,Right,0,62,86,580.75,0.239583,Sixteenth,D4
3880,Right,0,73,86,581.0,0.989583,Quarter,E4_C#5
3879,Left,1,57,86,581.0,0.989583,Quarter,A3
3882,Right,0,66,87,581.25,0.239583,Sixteenth,F#4
3883,Right,0,67,88,581.5,0.239583,Sixteenth,G4
3884,Right,0,69,89,581.75,0.239583,Sixteenth,A4
3885,Right,0,67,90,582.0,0.239583,Sixteenth,G4
3886,Left,1,52,90,582.0,0.239583,Sixteenth,E3
3887,Right,0,69,91,582.25,0.239583,Sixteenth,A4
3888,Left,1,54,91,582.25,0.239583,Sixteenth,F#3
3889,Right,0,71,92,582.5,0.239583,Sixteenth,B4
3890,Left,1,55,92,582.5,0.239583,Sixteenth,G3
3892,Right,0,73,93,582.75,0.239583,Sixteenth,C#5
3891,Left,1,57,93,582.75,0.239583,Sixteenth,A3
3894,Left,1,59,93,583.0,0.239583,Sixteenth,B3
3893,Right,0,74,93,583.0,0.239583,Sixteenth,D5
3896,Left,1,61,94,583.25,0.239583,Sixteenth,C#4
3895,Right,0,76,94,583.25,0.239583,Sixteenth,E5
3897,Right,0,64,95,583.5,0.239583,Sixteenth,E4
3898,Right,0,66,96,583.75,0.239583,Sixteenth,F#4
3899,Left,1,61,97,584.0,0.989583,Quarter,C#4
3900,Right,0,76,97,584.0,0.989583,Quarter,G4_E5
3902,Right,0,69,98,584.25,0.239583,Sixteenth,A4
3903,Right,0,71,99,584.5,0.239583,Sixteenth,B4
3904,Right,0,73,99,584.75,0.239583,Sixteenth,C#5
3906,Right,0,79,100,585.0,0.239583,Sixteenth,G5
3905,Left,1,64,100,585.0,0.239583,Sixteenth,E4
3908,Left,1,62,100,585.25,0.239583,Sixteenth,D4
3907,Right,0,78,100,585.25,0.239583,Sixteenth,F#5
3909,Left,1,61,100,585.5,0.239583,Sixteenth,C#4
3910,Right,0,76,100,585.5,0.239583,Sixteenth,E5
3911,Left,1,59,100,585.75,0.239583,Sixteenth,B3
3912,Right,0,74,100,585.75,0.239583,Sixteenth,D5
3913,Right,0,73,100,586.0,0.239583,Sixteenth,C#5
3914,Left,1,57,100,586.0,0.239583,Sixteenth,A3
3916,Left,1,55,100,586.25,0.239583,Sixteenth,G3
3915,Right,0,71,100,586.25,0.239583,Sixteenth,B4
3917,Right,0,67,100,586.5,0.239583,Sixteenth,G4
3918,Right,0,66,100,586.75,0.239583,Sixteenth,F#4
3919,Right,0,64,100,587.0,0.989583,Sixteenth,E4_B4
3921,Left,1,55,100,587.0,0.989583,Quarter,G3
3922,Right,0,62,100,587.25,0.239583,Sixteenth,D4
3923,Right,0,61,100,587.5,0.239583,Sixteenth,C#4
3924,Right,0,59,100,587.75,0.239583,Sixteenth,B3
3926,Left,1,61,100,588.0,0.239583,Sixteenth,C#4
3925,Right,0,76,100,588.0,0.239583,Sixteenth,E5
3928,Left,1,59,100,588.25,0.239583,Sixteenth,B3
3927,Right,0,74,100,588.25,0.239583,Sixteenth,D5
3929,Left,1,57,100,588.5,0.239583,Sixteenth,A3
3930,Right,0,73,100,588.5,0.239583,Sixteenth,C#5
3931,Left,1,55,100,588.75,0.239583,Sixteenth,G3
3932,Right,0,71,100,588.75,0.239583,Sixteenth,B4
3934,Left,1,54,100,589.0,0.239583,Sixteenth,F#3
3933,Right,0,69,100,589.0,0.239583,Sixteenth,A4
3935,Right,0,67,100,589.25,0.239583,Sixteenth,G4
3936,Left,1,52,100,589.25,0.239583,Sixteenth,E3
3937,Right,0,64,100,589.5,0.239583,Sixteenth,E4
3938,Right,0,62,100,589.75,0.239583,Sixteenth,D4
3941,Left,1,52,100,590.0,0.989583,Quarter,E3
3939,Right,0,67,100,590.0,0.989583,Quarter,G4_C#4
3942,Right,0,59,100,590.25,0.239583,Sixteenth,B3
3943,Right,0,57,100,590.5,0.239583,Sixteenth,A3
3944,Right,0,55,100,590.75,0.239583,Sixteenth,G3
3945,Right,0,62,110,591.0,0.989583,Sixteenth,F#4_D4
3947,Left,1,38,110,591.0,0.239583,Sixteenth,D2
3949,Right,0,61,110,591.25,0.239583,Sixteenth,C#4
3948,Left,1,40,110,591.25,0.239583,Sixteenth,E2
3951,Right,0,59,110,591.5,0.239583,Sixteenth,B3
3950,Left,1,42,110,591.5,0.239583,Sixteenth,F#2
3953,Right,0,57,110,591.75,0.239583,Sixteenth,A3
3952,Left,1,43,110,591.75,0.239583,Sixteenth,G2
3955,Right,0,55,110,592.0,0.239583,Sixteenth,G3
3954,Left,1,44,110,592.0,0.239583,Sixteenth,G#2
3956,Left,1,45,110,592.25,0.239583,Sixteenth,A2
3957,Right,0,54,110,592.25,0.239583,Sixteenth,F#3
3958,Right,0,66,110,592.5,0.239583,Sixteenth,F#4
3959,Right,0,67,110,592.75,0.239583,Sixteenth,G4
3962,Right,0,69,110,593.0,0.239583,Sixteenth,A4
3960,Left,1,54,110,593.0,0.989583,Quarter,F#3_A2
3963,Right,0,71,110,593.25,0.239583,Sixteenth,B4
3964,Right,0,73,110,593.5,0.239583,Sixteenth,C#5
3965,Right,0,74,110,593.75,0.239583,Sixteenth,D5
3966,Right,0,69,125,594.0,0.989583,Quarter,F#4_A4
3967,Left,1,42,110,594.0,0.239583,Sixteenth,F#2
3970,Right,0,64,110,594.25,0.239583,Sixteenth,E4
3969,Left,1,43,110,594.25,0.239583,Sixteenth,G2
3971,Left,1,45,110,594.5,0.239583,Sixteenth,A2
3972,Right,0,62,110,594.5,0.239583,Sixteenth,D4
3973,Right,0,61,110,594.75,0.239583,Sixteenth,C#4
3974,Left,1,47,110,594.75,0.239583,Sixteenth,B2
3976,Right,0,59,110,595.0,0.239583,Sixteenth,B3
3975,Left,1,49,110,595.0,0.239583,Sixteenth,C#3
3977,Right,0,57,110,595.25,0.239583,Sixteenth,A3
3978,Left,1,50,110,595.25,0.239583,Sixteenth,D3
3979,Right,0,69,110,595.5,0.239583,Sixteenth,A4
3980,Right,0,71,110,595.75,0.239583,Sixteenth,B4
3981,Right,0,73,110,596.0,0.239583,Sixteenth,C#5
3982,Left,1,57,110,596.0,0.989583,Quarter,D3_A3
3984,Right,0,74,110,596.25,0.239583,Sixteenth,D5
3985,Right,0,76,110,596.5,0.239583,Sixteenth,E5
3986,Right,0,78,110,596.75,0.239583,Sixteenth,F#5
3987,Left,1,43,110,597.0,0.239583,Sixteenth,G2
3988,Right,0,67,110,597.0,0.989583,Sixteenth,G4_B4
3990,Right,0,66,110,597.25,0.239583,Sixteenth,F#4
3991,Left,1,45,110,597.25,0.239583,Sixteenth,A2
3992,Right,0,64,110,597.5,0.239583,Sixteenth,E4
3993,Left,1,47,110,597.5,0.239583,Sixteenth,B2
3995,Right,0,62,110,597.75,0.239583,Sixteenth,D4
3994,Left,1,49,110,597.75,0.239583,Sixteenth,C#3
3996,Left,1,50,110,598.0,0.239583,Sixteenth,D3
3997,Right,0,61,110,598.0,0.239583,Sixteenth,C#4
3998,Left,1,52,110,598.25,0.239583,Sixteenth,E3
3999,Right,0,59,110,598.25,0.239583,Sixteenth,B3
4000,Right,0,71,110,598.5,0.239583,Sixteenth,B4
4001,Right,0,73,110,598.75,0.239583,Sixteenth,C#5
4002,Left,1,52,110,599.0,0.989583,Quarter,E3
4003,Right,0,67,110,599.0,0.989583,Quarter,G4_D5
4005,Right,0,76,110,599.25,0.239583,Sixteenth,E5
4006,Right,0,78,110,599.5,0.239583,Sixteenth,F#5
4007,Right,0,79,110,599.75,0.239583,Sixteenth,G5
4009,Right,0,76,110,600.0,0.989583,Sixteenth,G5_E5
4008,Left,1,49,110,600.0,0.239583,Sixteenth,C#3
4012,Right,0,74,110,600.25,0.239583,Sixteenth,D5
4011,Left,1,50,110,600.25,0.239583,Sixteenth,D3
4013,Right,0,73,110,600.5,0.239583,Sixteenth,C#5
4014,Left,1,52,110,600.5,0.239583,Sixteenth,E3
4016,Left,1,54,110,600.75,0.239583,Sixteenth,F#3
4015,Right,0,71,110,600.75,0.239583,Sixteenth,B4
4018,Right,0,69,110,601.0,0.239583,Sixteenth,A4
4017,Left,1,55,110,601.0,0.239583,Sixteenth,G3
4020,Right,0,67,110,601.25,0.239583,Sixteenth,G4
4019,Left,1,57,110,601.25,0.239583,Sixteenth,A3
4021,Right,0,79,110,601.5,0.239583,Sixteenth,G5
4022,Right,0,81,110,601.75,0.239583,Sixteenth,A5
4024,Right,0,79,110,602.0,0.989583,Quarter,G5_B5
4023,Left,1,57,110,602.0,0.989583,Quarter,A3
4026,Right,0,85,110,602.25,0.239583,Sixteenth,C#6
4027,Right,0,86,110,602.5,0.239583,Sixteenth,D6
4028,Right,0,88,110,602.75,0.239583,Sixteenth,E6
4030,Right,0,78,110,603.0,0.989583,Quarter,F#6_F#5
4029,Left,1,50,110,603.0,0.239583,Sixteenth,D3
4033,Right,0,88,110,603.25,0.239583,Sixteenth,E6
4032,Left,1,49,110,603.25,0.239583,Sixteenth,C#3
4034,Left,1,47,110,603.5,0.239583,Sixteenth,B2
4035,Right,0,86,110,603.5,0.239583,Sixteenth,D6
4036,Right,0,85,110,603.75,0.239583,Sixteenth,C#6
4037,Left,1,45,110,603.75,0.239583,Sixteenth,A2
4039,Right,0,83,110,604.0,0.239583,Sixteenth,B5
4038,Left,1,43,110,604.0,0.239583,Sixteenth,G2
4041,Right,0,81,110,604.25,0.239583,Sixteenth,A5
4040,Left,1,42,110,604.25,0.239583,Sixteenth,F#2
4042,Left,1,54,110,604.5,0.239583,Sixteenth,F#3
4043,Left,1,55,110,604.75,0.239583,Sixteenth,G3
4044,Right,0,81,110,605.0,0.989583,Quarter,A5
4045,Left,1,57,110,605.0,0.239583,Sixteenth,A3
4046,Left,1,59,110,605.25,0.239583,Sixteenth,B3
4047,Left,1,61,110,605.5,0.239583,Sixteenth,C#4
4048,Left,1,62,110,605.75,0.239583,Sixteenth,D4
4051,Left,1,47,110,606.0,0.239583,Sixteenth,B2
4049,Right,0,86,110,606.0,0.989583,Sixteenth,D6_D5
4053,Left,1,45,110,606.25,0.239583,Sixteenth,A2
4052,Right,0,85,110,606.25,0.239583,Sixteenth,C#6
4055,Left,1,43,110,606.5,0.239583,Sixteenth,G2
4054,Right,0,83,110,606.5,0.239583,Sixteenth,B5
4056,Left,1,42,110,606.75,0.239583,Sixteenth,F#2
4057,Right,0,81,110,606.75,0.239583,Sixteenth,A5
4059,Right,0,79,110,607.0,0.239583,Sixteenth,G5
4058,Left,1,40,110,607.0,0.239583,Sixteenth,E2
4061,Right,0,78,110,607.25,0.239583,Sixteenth,F#5
4060,Left,1,38,110,607.25,0.239583,Sixteenth,D2
4062,Left,1,50,110,607.5,0.239583,Sixteenth,D3
4063,Left,1,52,110,607.75,0.239583,Sixteenth,E3
4065,Right,0,78,110,608.0,0.989583,Quarter,F#5
4064,Left,1,54,110,608.0,0.239583,Sixteenth,F#3
4066,Left,1,55,110,608.25,0.239583,Sixteenth,G3
4067,Left,1,57,110,608.5,0.239583,Sixteenth,A3
4068,Left,1,59,110,608.75,0.239583,Sixteenth,B3
4069,Left,1,55,110,609.0,0.239583,Sixteenth,G3_B3
4071,Left,1,54,110,609.25,0.239583,Sixteenth,F#3_A3
4073,Left,1,52,110,609.5,0.239583,Sixteenth,G3_E3
4075,Left,1,54,110,609.75,0.239583,Sixteenth,F#3_D3
4077,Left,1,49,110,610.0,0.239583,Sixteenth,E3_C#3
4079,Left,1,47,110,610.25,0.239583,Sixteenth,D3_B2
4081,Right,0,74,110,610.5,0.239583,Sixteenth,D5
4082,Right,0,76,110,610.75,0.239583,Sixteenth,E5
4083,Right,0,78,110,611.0,0.239583,Sixteenth,F#5
4084,Left,1,50,110,611.0,0.989583,Quarter,D3_B2
4086,Right,0,79,110,611.25,0.239583,Sixteenth,G5
4087,Right,0,81,110,611.5,0.239583,Sixteenth,A5
4088,Right,0,82,110,611.75,0.239583,Sixteenth,A#5
4089,Left,1,43,110,612.0,0.239583,Sixteenth,G2
4090,Right,0,83,125,612.0,0.239583,Sixteenth,B5
4091,Left,1,45,110,612.25,0.239583,Sixteenth,A2
4092,Right,0,81,111,612.25,0.239583,Sixteenth,A5
4094,Left,1,47,110,612.5,0.239583,Sixteenth,B2
4093,Right,0,79,110,612.5,0.239583,Sixteenth,G5
4095,Left,1,48,110,612.75,0.239583,Sixteenth,C3
4096,Right,0,78,110,612.75,0.239583,Sixteenth,F#5
4097,Left,1,50,110,613.0,0.239583,Sixteenth,D3
4098,Right,0,76,125,613.0,0.239583,Sixteenth,E5
4100,Left,1,52,110,613.25,0.239583,Sixteenth,E3
4099,Right,0,74,110,613.25,0.239583,Sixteenth,D5
4102,Right,0,79,110,613.5,0.239583,Sixteenth,G5
4101,Left,1,47,110,613.5,0.239583,Sixteenth,B2
4104,Left,1,49,110,613.75,0.239583,Sixteenth,C#3
4103,Right,0,78,110,613.75,0.239583,Sixteenth,F#5
4106,Left,1,50,110,614.0,0.239583,Sixteenth,D3
4105,Right,0,76,125,614.0,0.239583,Sixteenth,E5
4108,Right,0,74,110,614.25,0.239583,Sixteenth,D5
4107,Left,1,52,110,614.25,0.239583,Sixteenth,E3
4109,Right,0,72,110,614.5,0.239583,Sixteenth,C5
4110,Left,1,54,110,614.5,0.239583,Sixteenth,F#3
4112,Right,0,71,110,614.75,0.239583,Sixteenth,B4
4111,Left,1,55,110,614.75,0.239583,Sixteenth,G3
4114,Left,1,45,110,615.0,0.239583,Sixteenth,A2
4113,Right,0,76,122,615.0,0.239583,Sixteenth,E5
4116,Left,1,47,110,615.25,0.239583,Sixteenth,B2
4115,Right,0,74,110,615.25,0.239583,Sixteenth,D5
4118,Left,1,49,110,615.5,0.239583,Sixteenth,C#3
4117,Right,0,73,110,615.5,0.239583,Sixteenth,C#5
4119,Right,0,71,110,615.75,0.239583,Sixteenth,B4
4120,Left,1,50,110,615.75,0.239583,Sixteenth,D3
4121,Right,0,69,125,616.0,0.239583,Sixteenth,A4
4122,Left,1,52,110,616.0,0.239583,Sixteenth,E3
4124,Left,1,53,110,616.25,0.239583,Sixteenth,F3
4123,Right,0,68,110,616.25,0.239583,Sixteenth,G#4
4126,Left,1,45,110,616.5,0.239583,Sixteenth,A2
4125,Right,0,64,110,616.5,2.489583,Sixteenth,G4_E4
4128,Right,0,62,110,616.75,0.239583,Sixteenth,D4
4129,Left,1,47,110,616.75,0.239583,Sixteenth,B2
4130,Left,1,49,110,617.0,0.239583,Sixteenth,C#3
4131,Right,0,61,110,617.0,0.239583,Sixteenth,C#4
4132,Right,0,59,110,617.25,0.239583,Sixteenth,B3
4133,Left,1,50,110,617.25,0.239583,Sixteenth,D3
4134,Left,1,49,110,617.5,0.239583,Sixteenth,C#3
4135,Right,0,57,110,617.5,0.239583,Sixteenth,A3
4137,Left,1,47,110,617.75,0.239583,Sixteenth,B2
4136,Right,0,56,110,617.75,0.239583,Sixteenth,G#3
4138,Right,0,64,110,618.0,0.239583,Sixteenth,E4
4139,Left,1,46,110,618.0,1.239583,TiedQuarter-Sixteenth,A#2
4140,Right,0,62,110,618.25,0.239583,Sixteenth,D4
4141,Right,0,61,110,618.5,0.239583,Sixteenth,C#4
4142,Right,0,62,110,618.75,0.239583,Sixteenth,D4
4143,Right,0,66,122,619.0,1.989583,Half,F#4_E4
4145,Left,1,44,110,619.25,0.239583,Sixteenth,G#2
4146,Left,1,42,110,619.5,0.239583,Sixteenth,F#2
4147,Left,1,44,110,619.75,0.239583,Sixteenth,G#2
4148,Left,1,46,110,620.0,0.989583,Quarter,A#2
4149,Right,0,61,110,620.25,0.239583,Sixteenth,C#4
4150,Right,0,62,110,620.5,0.239583,Sixteenth,D4
4151,Right,0,64,110,620.75,0.239583,Sixteenth,E4
4152,Right,0,62,110,621.0,1.989583,Half,F#4_D4
4154,Left,1,47,110,621.0,0.239583,Sixteenth,B2
4155,Left,1,49,110,621.25,0.239583,Sixteenth,C#3
4156,Left,1,47,110,621.5,0.239583,Sixteenth,B2
4157,Left,1,45,110,621.75,0.239583,Sixteenth,A2
4159,Left,1,44,110,622.0,0.239583,Sixteenth,G#2
4158,Right,0,71,127,622.0,2.489583,Half,B4
4160,Left,1,50,110,622.25,0.239583,Sixteenth,D3
4161,Left,1,47,110,622.5,0.239583,Sixteenth,B2
4162,Left,1,53,110,622.75,0.239583,Sixteenth,F3
4163,Left,1,56,110,623.0,0.239583,Sixteenth,G#3
4164,Right,0,62,110,623.25,0.239583,Sixteenth,D4
4165,Right,0,59,110,623.5,0.239583,Sixteenth,B3
4166,Right,0,65,110,623.75,0.239583,Sixteenth,F4
4167,Left,1,45,110,624.0,0.239583,Sixteenth,A2
4168,Right,0,66,110,624.0,0.989583,Quarter,F#4
4169,Left,1,54,110,624.25,0.239583,Sixteenth,F#3
4170,Left,1,50,110,624.5,0.239583,Sixteenth,D3
4171,Right,0,69,110,624.5,0.989583,Quarter,A4
4172,Left,1,57,110,624.75,0.239583,Sixteenth,A3
4173,Left,1,54,110,625.0,0.239583,Sixteenth,F#3
4174,Right,0,62,110,625.0,0.239583,Sixteenth,D4
4176,Left,1,62,110,625.25,0.239583,Sixteenth,D4
4175,Right,0,66,110,625.25,0.239583,Sixteenth,F#4
4177,Left,1,47,110,625.5,0.489583,Eighth,B2
4178,Right,0,65,110,625.5,0.489583,Sixteenth,G#4_F4
4180,Right,0,62,110,625.75,0.239583,Sixteenth,D4
4181,Left,1,49,110,626.0,0.489583,Eighth,C#3
4182,Right,0,67,110,626.0,0.489583,Eighth,G4_A#3
4184,Right,0,64,110,626.25,0.239583,Sixteenth,E4
4187,Left,1,50,110,626.5,0.489583,Eighth,D3
4185,Right,0,62,110,626.5,0.989583,Sixteenth,F#4_D4
4188,Right,0,57,110,626.75,0.239583,Sixteenth,A3
4190,Left,1,31,110,627.0,0.489583,Eighth,G1
4189,Right,0,58,110,627.0,0.989583,Quarter,A#3
4191,Right,0,64,110,627.5,0.489583,Eighth,E4
4193,Right,0,58,110,628.0,1.489583,DottedQuarter,A#3
4192,Left,1,49,110,628.0,0.208333,Sixteenth,C#3
4194,Left,1,50,110,628.125,0.208333,Sixteenth,D3
4195,Left,1,49,110,628.25,0.208333,Sixteenth,C#3
4196,Left,1,50,110,628.375,0.208333,Sixteenth,D3
4197,Right,0,55,110,628.5,0.489583,Eighth,G3
4198,Left,1,49,110,628.5,0.208333,Sixteenth,C#3
4199,Left,1,50,110,628.625,0.208333,Sixteenth,D3
4200,Left,1,49,110,628.75,0.208333,Sixteenth,C#3
4201,Left,1,50,110,628.875,0.208333,Sixteenth,D3
4202,Right,0,52,110,629.0,0.989583,Quarter,E3
4203,Left,1,49,110,629.0,0.208333,Sixteenth,C#3
4204,Left,1,50,110,629.125,0.208333,Sixteenth,D3
4205,Left,1,49,110,629.25,0.208333,Sixteenth,C#3
4206,Left,1,50,110,629.375,0.208333,Sixteenth,D3
4207,Right,0,58,110,629.5,0.739583,DottedEighth,A#3
4208,Left,1,49,110,629.5,0.208333,Sixteenth,C#3
4209,Left,1,50,110,629.625,0.208333,Sixteenth,D3
4210,Left,1,47,110,629.75,0.208333,Sixteenth,B2
4211,Left,1,49,110,629.875,0.208333,Sixteenth,C#3
4213,Left,1,50,110,630.0,0.989583,Quarter,D3
4212,Right,0,54,110,630.0,0.739583,DottedEighth,F#3
4214,Right,0,56,110,630.25,0.239583,Sixteenth,G#3
4215,Right,0,57,110,630.5,0.739583,DottedEighth,A3
4216,Right,0,53,110,630.75,0.239583,Sixteenth,F3
4217,Right,0,54,110,631.0,0.739583,DottedEighth,F#3
4218,Right,0,61,110,631.25,0.239583,Sixteenth,C#4
4219,Left,1,50,110,631.5,0.239583,Sixteenth,D3
4220,Right,0,62,110,631.5,0.739583,DottedEighth,D4
4221,Right,0,55,110,631.75,0.239583,Sixteenth,G3
4222,Left,1,49,110,631.75,0.239583,Sixteenth,C#3
4223,Right,0,57,110,631.9375,0.739583,DottedEighth,A3
4224,Left,1,47,110,632.0,0.239583,Sixteenth,B2
4226,Right,0,61,110,632.25,0.239583,Sixteenth,C#4
4225,Left,1,45,110,632.25,0.239583,Sixteenth,A2
4227,Right,0,62,110,632.5,0.739583,DottedEighth,D4
4228,Left,1,43,110,632.5,0.239583,Sixteenth,G2
4229,Left,1,42,110,632.75,0.239583,Sixteenth,F#2
4230,Right,0,58,110,632.75,0.239583,Sixteenth,A#3
4231,Right,0,59,110,633.0,0.739583,DottedEighth,B3
4232,Left,1,47,110,633.0,0.989583,Quarter,B2
4233,Right,0,53,110,633.25,0.239583,Sixteenth,F3
4234,Right,0,54,110,633.5,0.739583,DottedEighth,F#3
4235,Right,0,49,110,633.75,0.239583,Sixteenth,C#3
4236,Right,0,50,110,634.0,0.739583,DottedEighth,D3
4237,Right,0,54,110,634.25,0.239583,Sixteenth,F#3
4238,Right,0,55,110,634.5,0.739583,DottedEighth,G3
4239,Left,1,47,110,634.5,0.239583,Sixteenth,B2
4240,Left,1,45,110,634.75,0.239583,Sixteenth,A2
4241,Right,0,51,110,634.75,0.239583,Sixteenth,D#3
4242,Left,1,43,110,635.0,0.239583,Sixteenth,G2
4243,Right,0,49,110,635.0,0.739583,DottedEighth,C#3
4245,Right,0,57,110,635.25,0.239583,Sixteenth,A3
4244,Left,1,42,110,635.25,0.239583,Sixteenth,F#2
4247,Left,1,40,110,635.5,0.239583,Sixteenth,E2
4246,Right,0,59,110,635.5,0.739583,DottedEighth,B3
4248,Left,1,38,110,635.75,0.239583,Sixteenth,D2
4249,Right,0,54,110,635.75,0.239583,Sixteenth,F#3
4251,Right,0,55,110,636.0,0.739583,DottedEighth,G3
4250,Left,1,43,110,636.0,0.989583,Quarter,G2
4252,Right,0,58,110,636.25,0.239583,Sixteenth,A#3
4253,Right,0,59,110,636.5,0.739583,DottedEighth,B3
4254,Right,0,54,110,636.75,0.239583,Sixteenth,F#3
4255,Right,0,55,110,637.0,0.739583,DottedEighth,G3
4256,Right,0,63,110,637.25,0.239583,Sixteenth,D#4
4258,Left,1,43,110,637.5,0.239583,Sixteenth,G2
4257,Right,0,64,110,637.5,0.739583,DottedEighth,E4
4259,Left,1,42,110,637.75,0.239583,Sixteenth,F#2
4260,Right,0,57,110,637.75,0.239583,Sixteenth,A3
4262,Right,0,59,110,638.0,0.739583,DottedEighth,B3
4261,Left,1,40,110,638.0,0.239583,Sixteenth,E2
4263,Left,1,39,110,638.25,0.239583,Sixteenth,D#2
4264,Right,0,66,110,638.25,0.239583,Sixteenth,F#4
4265,Right,0,67,110,638.5,0.989583,Quarter,G4
4266,Left,1,40,110,638.5,0.239583,Sixteenth,E2
4268,Right,0,58,110,638.75,0.239583,Sixteenth,A#3
4267,Left,1,38,110,638.75,0.239583,Sixteenth,D2
4270,Right,0,57,110,639.0,0.989583,Quarter,A3
4269,Left,1,37,110,639.0,0.239583,Sixteenth,C#2
4271,Left,1,38,110,639.25,0.239583,Sixteenth,D2
4273,Right,0,68,110,639.5,0.489583,Eighth,G#4
4272,Left,1,37,110,639.5,0.239583,Sixteenth,C#2
4274,Left,1,35,110,639.75,0.239583,Sixteenth,B1
4275,Right,0,69,127,640.0,1.489583,DottedQuarter,A4
4276,Left,1,33,110,640.0,0.239583,Sixteenth,A1
4277,Left,1,35,110,640.25,0.239583,Sixteenth,B1
4278,Right,0,64,110,640.5,0.489583,Eighth,E4
4279,Left,1,37,110,640.5,0.239583,Sixteenth,C#2
4280,Left,1,38,110,640.75,0.239583,Sixteenth,D2
4281,Right,0,61,110,641.0,0.489583,Eighth,C#4
4282,Left,1,39,110,641.0,0.239583,Sixteenth,D#2
4283,Left,1,40,110,641.25,0.239583,Sixteenth,E2
4285,Left,1,42,110,641.5,0.239583,Sixteenth,F#2
4284,Right,0,67,110,641.5,0.989583,Eighth,G4_A3
4287,Left,1,40,110,641.75,0.239583,Sixteenth,E2
4288,Left,1,38,110,642.0,0.239583,Sixteenth,D2
4289,Right,0,66,110,642.0,0.989583,Quarter,F#4
4290,Left,1,40,110,642.25,0.239583,Sixteenth,E2
4291,Left,1,38,110,642.5,0.239583,Sixteenth,D2
4292,Right,0,58,110,642.5,0.489583,Eighth,A#3
4293,Left,1,37,110,642.75,0.239583,Sixteenth,C#2
4294,Left,1,35,110,643.0,0.239583,Sixteenth,B1
4295,Right,0,59,127,643.0,1.489583,DottedQuarter,B3
4296,Left,1,37,110,643.25,0.239583,Sixteenth,C#2
4298,Left,1,38,110,643.5,0.239583,Sixteenth,D2
4297,Right,0,66,110,643.5,0.489583,Eighth,F#4
4299,Left,1,40,110,643.75,0.239583,Sixteenth,E2
4300,Left,1,41,110,644.0,0.239583,Sixteenth,F2
4301,Right,0,63,110,644.0,0.489583,Eighth,D#4
4302,Left,1,42,110,644.25,0.239583,Sixteenth,F#2
4304,Right,0,57,110,644.5,0.989583,Eighth,B3_A3
4303,Left,1,43,110,644.5,0.239583,Sixteenth,G2
4306,Left,1,42,110,644.75,0.239583,Sixteenth,F#2
4308,Left,1,40,110,645.0,0.239583,Sixteenth,E2
4307,Right,0,55,110,645.0,0.489583,Eighth,G3
4309,Left,1,41,110,645.25,0.239583,Sixteenth,F2
4310,Left,1,40,110,645.5,0.239583,Sixteenth,E2
4311,Right,0,71,110,645.5,0.489583,Eighth,B4
4312,Left,1,38,110,645.75,0.239583,Sixteenth,D2
4313,Right,0,72,125,646.0,1.489583,DottedQuarter,C5
4314,Left,1,36,110,646.0,0.239583,Sixteenth,C2
4315,Left,1,38,110,646.25,0.239583,Sixteenth,D2
4317,Left,1,40,110,646.5,0.239583,Sixteenth,E2
4316,Right,0,67,110,646.5,0.489583,Eighth,G4
4318,Left,1,41,110,646.75,0.239583,Sixteenth,F2
4319,Right,0,64,110,647.0,0.489583,Eighth,E4
4320,Left,1,42,110,647.0,0.239583,Sixteenth,F#2
4321,Left,1,43,110,647.25,0.239583,Sixteenth,G2
4322,Left,1,45,110,647.5,0.239583,Sixteenth,A2
4323,Right,0,71,110,647.5,0.989583,Eighth,C4_B4
4325,Left,1,43,110,647.75,0.239583,Sixteenth,G2
4326,Right,0,69,110,648.0,0.989583,Quarter,A4
4327,Left,1,42,110,648.0,0.239583,Sixteenth,F#2
4328,Left,1,43,110,648.25,0.239583,Sixteenth,G2
4329,Right,0,61,110,648.5,0.489583,Eighth,C#4
4330,Left,1,42,110,648.5,0.239583,Sixteenth,F#2
4331,Left,1,40,110,648.75,0.239583,Sixteenth,E2
4332,Right,0,62,126,649.0,1.427083,DottedQuarter,D4
4333,Left,1,38,110,649.0,0.239583,Sixteenth,D2
4334,Left,1,40,110,649.25,0.239583,Sixteenth,E2
4335,Left,1,42,110,649.5,0.239583,Sixteenth,F#2
4336,Right,0,69,110,649.5,0.489583,Eighth,A4
4337,Left,1,43,110,649.75,0.239583,Sixteenth,G2
4339,Right,0,66,110,650.0,0.489583,Eighth,F#4
4338,Left,1,44,110,650.0,0.239583,Sixteenth,G#2
4340,Left,1,45,110,650.25,0.239583,Sixteenth,A2
4342,Right,0,60,110,650.5,0.989583,Eighth,D4_C4
4341,Left,1,47,110,650.5,0.239583,Sixteenth,B2
4344,Left,1,45,110,650.75,0.239583,Sixteenth,A2
4345,Left,1,59,110,651.0,0.489583,Sixteenth,G2_B3
4347,Left,1,60,110,651.25,0.239583,Sixteenth,C4
4349,Right,0,74,110,651.5,0.239583,Sixteenth,D5
4348,Left,1,59,110,651.5,0.239583,Sixteenth,B3
4350,Right,0,73,110,651.75,0.239583,Sixteenth,C#5
4351,Left,1,57,110,651.75,0.239583,Sixteenth,A3
4353,Right,0,71,100,652.0,1.489583,DottedQuarter,B4
4352,Left,1,55,100,652.0,0.489583,Eighth,G3
4354,Left,1,57,100,652.25,0.239583,Sixteenth,A3
4355,Left,1,53,100,652.5,0.489583,Eighth,F3_B3
4357,Left,1,60,101,652.75,0.239583,Sixteenth,C4
4358,Left,1,61,101,653.0,0.489583,Sixteenth,E3_C#4
4360,Left,1,62,102,653.25,0.239583,Sixteenth,D4
4361,Left,1,56,102,653.5,0.239583,Sixteenth,G#3
4362,Right,0,76,102,653.5,0.989583,Quarter,E5
4363,Left,1,62,103,653.75,0.239583,Sixteenth,D4
4364,Left,1,56,103,654.0,0.989583,Quarter,G#3_C4
4366,Left,1,62,104,654.25,0.239583,Sixteenth,D4
4368,Right,0,76,104,654.5,0.239583,Sixteenth,E5
4367,Left,1,60,104,654.5,0.239583,Sixteenth,C4
4369,Left,1,59,105,654.75,0.239583,Sixteenth,B3
4370,Right,0,74,105,654.75,0.239583,Sixteenth,D5
4372,Right,0,72,105,655.0,0.989583,Quarter,C5
4371,Left,1,57,105,655.0,0.239583,Sixteenth,A3
4373,Left,1,59,106,655.25,0.239583,Sixteenth,B3
4374,Left,1,60,106,655.5,0.489583,Sixteenth,G3_C4
4376,Left,1,62,106,655.75,0.239583,Sixteenth,D4
4377,Right,0,73,107,656.0,0.489583,Eighth,C#5
4378,Left,1,54,107,656.0,0.489583,Eighth,F#3_D#4
4380,Left,1,64,107,656.25,0.239583,Sixteenth,E4
4382,Right,0,78,108,656.5,0.989583,Quarter,F#5
4381,Left,1,58,108,656.5,0.239583,Sixteenth,A#3
4383,Left,1,64,108,656.75,0.239583,Sixteenth,E4
4384,Left,1,62,109,657.0,0.989583,Sixteenth,D4_A#3
4386,Left,1,64,109,657.25,0.239583,Sixteenth,E4
4387,Right,0,78,110,657.5,0.239583,Sixteenth,F#5
4388,Left,1,62,110,657.5,0.239583,Sixteenth,D4
4389,Left,1,61,110,657.75,0.239583,Sixteenth,C#4
4390,Right,0,76,110,657.75,0.239583,Sixteenth,E5
4391,Left,1,59,111,658.0,0.239583,Sixteenth,B3
4392,Right,0,74,111,658.0,1.489583,DottedQuarter,D5
4393,Left,1,61,111,658.25,0.239583,Sixteenth,C#4
4394,Left,1,62,112,658.5,0.489583,Sixteenth,D4_A3
4396,Left,1,64,112,658.75,0.239583,Sixteenth,E4
4397,Left,1,65,113,659.0,0.489583,Sixteenth,G3_F4
4399,Left,1,66,113,659.25,0.239583,Sixteenth,F#4
4401,Right,0,71,113,659.5,0.239583,Sixteenth,B4
4400,Left,1,67,113,659.5,0.239583,Sixteenth,G4
4403,Left,1,65,114,659.75,0.239583,Sixteenth,F4
4402,Right,0,79,114,659.75,0.739583,DottedEighth,G5
4404,Left,1,59,114,660.0,0.989583,Quarter,E4_B3
4406,Left,1,65,115,660.25,0.239583,Sixteenth,F4
4407,Right,0,79,115,660.5,0.239583,Sixteenth,G5
4408,Left,1,64,115,660.5,0.239583,Sixteenth,E4
4409,Right,0,77,116,660.75,0.239583,Sixteenth,F5
4410,Left,1,62,116,660.75,0.239583,Sixteenth,D4
4412,Right,0,76,116,661.0,0.489583,Eighth,E5
4411,Left,1,60,116,661.0,0.239583,Sixteenth,C4
4413,Left,1,62,117,661.25,0.239583,Sixteenth,D4
4415,Left,1,59,117,661.5,0.489583,Eighth,E4_B3
4414,Right,0,79,117,661.5,0.489583,Eighth,G5
4417,Left,1,62,118,661.75,0.239583,Sixteenth,D4
4420,Right,0,78,118,662.0,0.489583,Eighth,F#5
4418,Left,1,57,118,662.0,0.489583,Eighth,C4_A3
4421,Left,1,62,119,662.25,0.239583,Sixteenth,D4
4422,Right,0,79,119,662.5,0.489583,Eighth,G5
4423,Left,1,55,119,662.5,0.489583,Eighth,G3_C4
4425,Left,1,59,119,662.75,0.239583,Sixteenth,B3
4428,Right,0,84,120,663.0,0.489583,Eighth,C6
4426,Left,1,57,120,663.0,0.489583,Sixteenth,F#3_A3
4429,Left,1,59,120,663.25,0.239583,Sixteenth,B3
4430,Left,1,57,120,663.5,0.489583,Sixteenth,E3_A3
4432,Left,1,55,120,663.75,0.239583,Sixteenth,G3
4435,Right,0,69,120,664.0,0.208333,Sixteenth,A4
4433,Left,1,51,120,664.0,0.989583,Sixteenth,F#3_D#3
4436,Right,0,71,120,664.125,0.208333,Sixteenth,B4
4437,Right,0,69,120,664.25,0.208333,Sixteenth,A4
4438,Left,1,50,120,664.25,0.239583,Sixteenth,D3
4439,Right,0,71,120,664.375,0.208333,Sixteenth,B4
4440,Right,0,69,120,664.5,0.208333,Sixteenth,A4
4441,Left,1,48,120,664.5,0.239583,Sixteenth,C3
4442,Right,0,71,120,664.625,0.208333,Sixteenth,B4
4443,Right,0,69,120,664.75,0.208333,Sixteenth,A4
4444,Left,1,50,120,664.75,0.239583,Sixteenth,D3
4445,Right,0,71,120,664.875,0.208333,Sixteenth,B4
4446,Left,1,51,120,665.0,0.239583,Sixteenth,D#3
4447,Right,0,69,120,665.0,0.989583,Sixteenth,F#4_A4
4449,Right,0,71,120,665.125,0.208333,Sixteenth,B4
4450,Left,1,50,120,665.25,0.239583,Sixteenth,D3
4451,Right,0,69,120,665.25,0.208333,Sixteenth,A4
4452,Right,0,71,120,665.375,0.208333,Sixteenth,B4
4454,Left,1,51,120,665.5,0.239583,Sixteenth,D#3
4453,Right,0,69,120,665.5,0.208333,Sixteenth,A4
4455,Right,0,71,120,665.625,0.208333,Sixteenth,B4
4456,Left,1,48,120,665.75,0.239583,Sixteenth,C3
4457,Right,0,67,120,665.75,0.208333,Sixteenth,G4
4458,Right,0,69,120,665.875,0.208333,Sixteenth,A4
4459,Right,0,67,120,666.0,0.989583,Quarter,G4
4460,Left,1,59,110,666.5,0.489583,Eighth,B3
4461,Left,1,47,125,667.0,1.489583,DottedQuarter,B2
4463,Left,1,57,110,667.5,0.489583,Eighth,A3
4462,Right,0,67,110,667.5,0.239583,Sixteenth,G4
4464,Right,0,69,110,667.75,0.239583,Sixteenth,A4
4465,Left,1,55,110,668.0,0.989583,Quarter,G3
4466,Right,0,71,110,668.0,0.239583,Sixteenth,B4
4467,Right,0,72,110,668.25,0.239583,Sixteenth,C5
4468,Right,0,74,110,668.5,0.239583,Sixteenth,D5
4469,Right,0,76,110,668.75,0.239583,Sixteenth,E5
4470,Right,0,71,124,669.0,0.989583,Quarter,B4
4471,Left,1,55,110,669.5,0.489583,Eighth,G3
4472,Left,1,43,125,670.0,1.489583,DottedQuarter,G2
4473,Right,0,71,110,670.4375,0.239583,Sixteenth,B4
4474,Left,1,54,110,670.5,0.489583,Eighth,F#3
4475,Right,0,72,110,670.75,0.239583,Sixteenth,C5
4476,Right,0,74,110,671.0,0.239583,Sixteenth,D5
4477,Left,1,52,110,671.0,0.489583,Eighth,E3
4478,Right,0,76,110,671.25,0.239583,Sixteenth,E5
4480,Left,1,50,110,671.5,0.489583,Eighth,D3_B2
4479,Right,0,78,110,671.5,0.239583,Sixteenth,F#5
4482,Right,0,79,110,671.75,0.239583,Sixteenth,G5
4483,Right,0,74,125,672.0,0.989583,Quarter,D5
4484,Left,1,45,110,672.0,0.489583,Eighth,C3_A2
4486,Left,1,60,110,672.5,0.489583,Eighth,C4
4487,Left,1,52,110,673.0,0.489583,Eighth,E3_C3
4490,Right,0,74,110,673.5,0.239583,Sixteenth,D5
4489,Left,1,47,110,673.5,0.489583,Eighth,D3_B2
4492,Right,0,76,110,673.75,0.239583,Sixteenth,E5
4493,Right,0,78,110,674.0,0.239583,Sixteenth,F#5
4494,Left,1,48,110,674.0,0.489583,Eighth,C3_A2
4496,Right,0,76,110,674.25,0.239583,Sixteenth,E5
4499,Right,0,78,110,674.5,0.239583,Sixteenth,F#5
4497,Left,1,43,110,674.5,0.489583,Eighth,G2_B2
4500,Right,0,79,110,674.75,0.239583,Sixteenth,G5
4502,Left,1,42,110,675.0,0.989583,Eighth,F#2_A2
4501,Right,0,81,110,675.0,0.239583,Sixteenth,A5
4504,Right,0,80,110,675.25,0.239583,Sixteenth,G#5
4505,Left,1,51,110,675.5,0.489583,Eighth,D#3
4506,Right,0,81,110,675.5,0.239583,Sixteenth,A5
4507,Right,0,83,110,675.75,0.239583,Sixteenth,B5
4508,Right,0,84,110,676.0,0.239583,Sixteenth,C6
4509,Left,1,50,127,676.0,3.489583,DottedHalf,D3
4510,Right,0,83,110,676.25,0.239583,Sixteenth,B5
4511,Left,1,52,110,676.5,0.489583,Eighth,E3
4512,Right,0,81,110,676.5,0.239583,Sixteenth,A5
4513,Right,0,79,110,676.75,0.239583,Sixteenth,G5
4515,Left,1,54,110,677.0,0.489583,Eighth,F#3
4514,Right,0,78,110,677.0,0.239583,Sixteenth,F#5
4516,Right,0,75,110,677.25,0.239583,Sixteenth,D#5
4517,Left,1,55,110,677.5,0.489583,Eighth,G3
4518,Right,0,74,110,677.5,0.239583,Sixteenth,D5
4519,Right,0,76,110,677.75,0.239583,Sixteenth,E5
4521,Left,1,57,110,678.0,0.489583,Eighth,A3
4520,Right,0,78,110,678.0,0.239583,Sixteenth,F#5
4522,Right,0,76,110,678.25,0.239583,Sixteenth,E5
4524,Left,1,59,110,678.5,0.489583,Eighth,B3
4523,Right,0,74,110,678.5,0.239583,Sixteenth,D5
4525,Right,0,72,110,678.75,0.239583,Sixteenth,C5
4526,Right,0,71,110,679.0,0.239583,Sixteenth,B4
4527,Left,1,60,110,679.0,0.489583,Eighth,C4
4528,Right,0,69,110,679.25,0.239583,Sixteenth,A4
4531,Right,0,67,110,679.5,0.239583,Sixteenth,G4
4529,Left,1,59,110,679.5,0.489583,Eighth,D3_B3
4532,Right,0,69,110,679.75,0.239583,Sixteenth,A4
4533,Right,0,71,110,680.0,0.239583,Sixteenth,B4
4534,Left,1,57,110,680.0,0.489583,Eighth,C3_A3
4536,Right,0,72,110,680.25,0.239583,Sixteenth,C5
4539,Right,0,74,110,680.5,0.239583,Sixteenth,D5
4537,Left,1,47,110,680.5,0.989583,Eighth,G3_B2
4540,Right,0,75,110,680.75,0.239583,Sixteenth,D#5
4541,Left,1,47,110,681.0,0.989583,Quarter,B2
4542,Right,0,76,110,681.0,0.239583,Sixteenth,E5
4543,Right,0,79,110,681.25,0.239583,Sixteenth,G5
4544,Right,0,78,110,681.5,0.239583,Sixteenth,F#5
4545,Left,1,60,110,681.5,0.989583,Quarter,C4
4546,Right,0,76,110,681.75,0.239583,Sixteenth,E5
4548,Right,0,74,110,682.0,0.239583,Sixteenth,D5
4547,Left,1,50,110,682.0,0.989583,Quarter,D3
4549,Right,0,79,110,682.25,0.239583,Sixteenth,G5
4551,Left,1,59,110,682.5,0.489583,Eighth,B3
4550,Right,0,78,110,682.5,0.239583,Sixteenth,F#5
4552,Right,0,79,110,682.75,0.239583,Sixteenth,G5
4554,Right,0,73,110,683.0,0.989583,Quarter,C#5
4553,Left,1,58,110,683.0,0.989583,Sixteenth,E3_A#3
4556,Right,0,67,110,683.25,0.239583,Sixteenth,G4
4557,Right,0,66,110,683.5,0.239583,Sixteenth,F#4
4558,Right,0,67,110,683.75,0.239583,Sixteenth,G4
4559,Right,0,69,110,684.0,1.989583,Eighth,C5_A4
4561,Left,1,54,110,684.0,0.239583,Sixteenth,F#3
4562,Left,1,57,110,684.25,0.239583,Sixteenth,A3
4564,Right,0,63,110,684.5,0.489583,Eighth,D#4
4563,Left,1,55,110,684.5,0.239583,Sixteenth,G3
4565,Left,1,54,110,684.75,0.239583,Sixteenth,F#3
4567,Right,0,66,110,685.0,0.489583,Eighth,F#4
4566,Left,1,52,110,685.0,0.239583,Sixteenth,E3
4568,Left,1,50,110,685.25,0.239583,Sixteenth,D3
4570,Left,1,52,110,685.5,0.239583,Sixteenth,E3
4569,Right,0,69,110,685.5,0.989583,Quarter,A4
4571,Left,1,54,110,685.75,0.239583,Sixteenth,F#3
4572,Right,0,71,110,686.0,0.989583,Quarter,B4
4573,Left,1,55,110,686.0,0.239583,Sixteenth,G3
4574,Left,1,50,110,686.25,0.239583,Sixteenth,D3
4576,Left,1,55,110,686.5,0.239583,Sixteenth,G3
4575,Right,0,67,110,686.5,0.489583,Eighth,G4
4577,Left,1,54,110,686.75,0.239583,Sixteenth,F#3
4579,Right,0,73,110,687.0,0.489583,Eighth,C#5
4578,Left,1,52,110,687.0,0.239583,Sixteenth,E3
4580,Left,1,54,110,687.25,0.239583,Sixteenth,F#3
4582,Left,1,52,110,687.5,0.239583,Sixteenth,E3
4581,Right,0,74,110,687.5,0.489583,Eighth,D5
4583,Left,1,50,110,687.75,0.239583,Sixteenth,D3
4585,Left,1,49,110,688.0,0.239583,Sixteenth,C#3
4584,Right,0,76,110,688.0,0.489583,Eighth,G4_E5
4587,Left,1,50,110,688.25,0.239583,Sixteenth,D3
4588,Right,0,78,110,688.5,0.489583,Eighth,F#5
4589,Left,1,49,110,688.5,0.239583,Sixteenth,C#3
4590,Left,1,47,110,688.75,0.239583,Sixteenth,B2
4592,Right,0,79,110,689.0,1.489583,DottedQuarter,G5
4591,Left,1,45,110,689.0,0.489583,Eighth,D3_A2
4594,Left,1,52,110,689.125,0.208333,Sixteenth,E3
4595,Left,1,50,110,689.25,0.208333,Sixteenth,D3
4596,Left,1,52,110,689.375,0.208333,Sixteenth,E3
4597,Left,1,44,110,689.5,0.489583,Eighth,G#2_D3
4599,Left,1,52,110,689.625,0.208333,Sixteenth,E3
4600,Left,1,50,110,689.75,0.208333,Sixteenth,D3
4601,Left,1,52,110,689.875,0.208333,Sixteenth,E3
4602,Left,1,45,110,690.0,1.989583,Half,D3_A2
4604,Left,1,52,110,690.125,0.208333,Sixteenth,E3
4605,Left,1,50,110,690.25,0.208333,Sixteenth,D3
4606,Left,1,52,110,690.375,0.208333,Sixteenth,E3
4608,Right,0,78,110,690.5,0.489583,Eighth,F#5
4607,Left,1,50,110,690.5,0.208333,Sixteenth,D3
4609,Left,1,52,110,690.625,0.208333,Sixteenth,E3
4610,Left,1,49,110,690.75,0.208333,Sixteenth,C#3
4611,Left,1,50,110,690.875,0.208333,Sixteenth,D3
4613,Right,0,76,110,691.0,0.489583,Eighth,E5
4612,Left,1,49,110,691.0,0.989583,Quarter,C#3
4614,Right,0,79,110,691.5,0.239583,Sixteenth,G5
4615,Right,0,78,110,691.75,0.239583,Sixteenth,F#5
4616,Right,0,66,110,692.0,0.989583,Quarter,F#4
4617,Left,1,47,110,692.5,0.489583,Eighth,D3_B2
4619,Left,1,52,110,692.75,0.239583,Sixteenth,E3
4620,Left,1,54,110,693.0,0.989583,Sixteenth,F#3_A2
4622,Left,1,55,110,693.25,0.239583,Sixteenth,G3
4623,Left,1,57,110,693.5,0.239583,Sixteenth,A3
4624,Left,1,59,110,693.75,0.239583,Sixteenth,B3
4625,Left,1,54,110,694.0,0.989583,Quarter,F#3
4626,Right,0,76,110,694.5,0.239583,Sixteenth,E5
4627,Right,0,74,110,694.75,0.239583,Sixteenth,D5
4628,Right,0,62,110,695.0,0.989583,Quarter,D4
4629,Left,1,54,110,695.5,0.489583,Sixteenth,G2_F#3
4631,Left,1,55,110,695.75,0.239583,Sixteenth,G3
4632,Left,1,57,110,696.0,0.989583,Sixteenth,F#3_A3
4634,Left,1,59,110,696.25,0.239583,Sixteenth,B3
4635,Left,1,61,110,696.5,0.239583,Sixteenth,C#4
4636,Left,1,62,110,696.75,0.239583,Sixteenth,D4
4637,Left,1,57,110,697.0,0.989583,Quarter,A3
4638,Right,0,83,110,697.5,0.239583,Sixteenth,B5
4639,Right,0,81,110,697.75,0.239583,Sixteenth,A5
4640,Right,0,78,110,698.0,0.239583,Sixteenth,F#5
4641,Right,0,74,110,698.25,0.239583,Sixteenth,D5
4643,Left,1,57,110,698.5,0.489583,Sixteenth,D3_A3
4642,Right,0,73,110,698.5,0.239583,Sixteenth,C#5
4646,Right,0,71,110,698.75,0.239583,Sixteenth,B4
4645,Left,1,59,110,698.75,0.239583,Sixteenth,B3
4648,Right,0,61,110,699.0,0.989583,Sixteenth,C#4_A#4
4647,Left,1,52,110,699.0,0.239583,Sixteenth,E3
4650,Right,0,60,110,699.25,0.239583,Sixteenth,C4
4651,Left,1,51,110,699.25,0.239583,Sixteenth,D#3
4653,Right,0,61,110,699.5,0.239583,Sixteenth,C#4
4652,Left,1,52,110,699.5,0.239583,Sixteenth,E3
4655,Left,1,54,110,699.75,0.239583,Sixteenth,F#3
4654,Right,0,63,110,699.75,0.239583,Sixteenth,D#4
4657,Left,1,55,110,700.0,0.239583,Sixteenth,G3
4656,Right,0,64,110,700.0,1.489583,Sixteenth,E4_A4
4660,Left,1,54,110,700.25,0.239583,Sixteenth,F#3
4659,Right,0,63,110,700.25,0.239583,Sixteenth,D#4
4662,Left,1,55,110,700.5,0.239583,Sixteenth,G3
4661,Right,0,64,110,700.5,0.239583,Sixteenth,E4
4664,Right,0,66,110,700.75,0.239583,Sixteenth,F#4
4663,Left,1,57,110,700.75,0.239583,Sixteenth,A3
4665,Right,0,67,110,701.0,0.239583,Sixteenth,G4
4666,Left,1,59,110,701.0,0.239583,Sixteenth,B3
4667,Right,0,66,110,701.25,0.239583,Sixteenth,F#4
4668,Left,1,57,110,701.25,0.239583,Sixteenth,A3
4670,Left,1,55,110,701.5,0.239583,Sixteenth,G3
4669,Right,0,64,110,701.5,0.489583,Sixteenth,E4_B4
4672,Left,1,56,110,701.75,0.239583,Sixteenth,G#3
4673,Right,0,62,110,701.75,0.239583,Sixteenth,D4
4676,Right,0,73,110,702.0,0.239583,Sixteenth,C#5
4674,Left,1,57,110,702.0,0.489583,Sixteenth,A3_A2
4677,Left,1,56,110,702.25,0.239583,Sixteenth,G#3
4678,Right,0,72,110,702.25,0.239583,Sixteenth,C5
4679,Left,1,57,110,702.5,0.239583,Sixteenth,A3
4680,Right,0,73,110,702.5,0.239583,Sixteenth,C#5
4682,Right,0,74,110,702.75,0.239583,Sixteenth,D5
4681,Left,1,59,110,702.75,0.239583,Sixteenth,B3
4683,Left,1,61,110,703.0,0.489583,Eighth,C#4
4684,Right,0,76,110,703.0,0.239583,Sixteenth,E5
4685,Right,0,75,110,703.25,0.239583,Sixteenth,D#5
4688,Right,0,76,110,703.5,0.239583,Sixteenth,E5
4686,Left,1,49,110,703.5,0.989583,Sixteenth,C#3_A2
4690,Left,1,50,110,703.75,0.239583,Sixteenth,D3
4689,Right,0,78,110,703.75,0.239583,Sixteenth,F#5
4692,Left,1,52,110,704.0,1.489583,DottedQuarter,E3
4691,Right,0,79,110,704.0,0.239583,Sixteenth,G5
4693,Right,0,78,110,704.25,0.239583,Sixteenth,F#5
4695,Left,1,47,110,704.5,0.489583,Eighth,B2
4694,Right,0,76,110,704.5,0.239583,Sixteenth,E5
4696,Right,0,74,110,704.75,0.239583,Sixteenth,D5
4698,Left,1,49,110,705.0,0.489583,Eighth,C#3
4697,Right,0,73,110,705.0,0.239583,Sixteenth,C#5
4699,Right,0,70,110,705.25,0.239583,Sixteenth,A#4
4700,Left,1,50,110,705.5,1.489583,DottedQuarter,F#3_D3
4701,Right,0,69,110,705.5,0.239583,Sixteenth,A4
4704,Right,0,71,110,705.75,0.239583,Sixteenth,B4
4703,Left,1,55,110,705.75,0.239583,Sixteenth,G3
4706,Left,1,57,110,706.0,0.239583,Sixteenth,A3
4705,Right,0,72,110,706.0,0.239583,Sixteenth,C5
4707,Left,1,55,110,706.25,0.239583,Sixteenth,G3
4708,Right,0,71,110,706.25,0.239583,Sixteenth,B4
4710,Left,1,54,110,706.5,0.239583,Sixteenth,F#3
4709,Right,0,69,110,706.5,0.239583,Sixteenth,A4
4712,Right,0,67,110,706.75,0.239583,Sixteenth,G4
4711,Left,1,52,110,706.75,0.239583,Sixteenth,E3
4714,Right,0,66,110,707.0,0.239583,Sixteenth,F#4
4713,Left,1,50,110,707.0,0.239583,Sixteenth,D3
4715,Right,0,67,110,707.25,0.239583,Sixteenth,G4
4716,Left,1,52,110,707.25,0.239583,Sixteenth,E3
4718,Right,0,69,110,707.5,0.239583,Sixteenth,A4
4717,Left,1,54,110,707.5,0.239583,Sixteenth,F#3
4720,Right,0,71,110,707.75,0.239583,Sixteenth,B4
4719,Left,1,55,110,707.75,0.239583,Sixteenth,G3
4722,Right,0,72,110,708.0,0.208333,Sixteenth,C5
4721,Left,1,57,110,708.0,0.239583,Sixteenth,A3
4723,Right,0,74,110,708.125,0.208333,Sixteenth,D5
4725,Left,1,59,110,708.25,0.239583,Sixteenth,B3
4724,Right,0,72,110,708.25,0.208333,Sixteenth,C5
4726,Right,0,74,110,708.375,0.208333,Sixteenth,D5
4728,Left,1,60,110,708.5,0.239583,Sixteenth,C4
4727,Right,0,72,110,708.5,0.208333,Sixteenth,C5
4729,Right,0,74,110,708.625,0.208333,Sixteenth,D5
4730,Left,1,62,110,708.75,0.239583,Sixteenth,D4
4731,Right,0,72,110,708.75,0.208333,Sixteenth,C5
4732,Right,0,74,110,708.875,0.208333,Sixteenth,D5
4733,Left,1,64,110,709.0,0.239583,Sixteenth,E4
4734,Right,0,72,110,709.0,0.208333,Sixteenth,C5
4735,Right,0,74,110,709.125,0.208333,Sixteenth,D5
4737,Right,0,72,110,709.25,0.208333,Sixteenth,C5
4736,Left,1,62,110,709.25,0.239583,Sixteenth,D4
4738,Right,0,74,110,709.375,0.208333,Sixteenth,D5
4739,Right,0,72,110,709.5,0.208333,Sixteenth,C5
4740,Left,1,64,110,709.5,0.489583,Sixteenth,E4_D3
4742,Right,0,74,110,709.625,0.208333,Sixteenth,D5
4743,Right,0,72,110,709.75,0.208333,Sixteenth,C5
4744,Left,1,66,110,709.75,0.239583,Sixteenth,F#4
4745,Right,0,74,110,709.875,0.208333,Sixteenth,D5
4747,Left,1,67,110,710.0,0.989583,Quarter,G4_G3
4746,Right,0,71,110,710.0,0.989583,Quarter,B4
4749,Left,1,59,110,710.25,0.239583,Sixteenth,B3
4750,Left,1,55,110,710.5,0.239583,Sixteenth,G3
4751,Left,1,52,110,710.75,0.239583,Sixteenth,E3
4752,Left,1,54,110,711.0,0.239583,Sixteenth,F#3
4753,Right,0,69,110,711.0,0.208333,Sixteenth,A4
4754,Right,0,71,110,711.125,0.208333,Sixteenth,B4
4756,Left,1,52,110,711.25,0.239583,Sixteenth,E3
4755,Right,0,69,110,711.25,0.208333,Sixteenth,A4
4757,Right,0,71,110,711.375,0.208333,Sixteenth,B4
4758,Left,1,54,110,711.5,0.239583,Sixteenth,F#3
4759,Right,0,69,110,711.5,0.208333,Sixteenth,A4
4760,Right,0,71,110,711.625,0.208333,Sixteenth,B4
4762,Right,0,69,110,711.75,0.208333,Sixteenth,A4
4761,Left,1,55,110,711.75,0.239583,Sixteenth,G3
4763,Right,0,71,110,711.875,0.208333,Sixteenth,B4
4764,Right,0,69,110,712.0,0.208333,Sixteenth,A4
4765,Left,1,57,110,712.0,0.239583,Sixteenth,A3
4766,Right,0,71,110,712.125,0.208333,Sixteenth,B4
4767,Right,0,69,110,712.25,0.208333,Sixteenth,A4
4768,Left,1,59,110,712.25,0.239583,Sixteenth,B3
4769,Right,0,71,110,712.375,0.208333,Sixteenth,B4
4771,Left,1,47,110,712.5,0.489583,Eighth,C#4_B2
4770,Right,0,69,110,712.5,0.208333,Sixteenth,A4
4773,Right,0,71,110,712.625,0.208333,Sixteenth,B4
4775,Left,1,63,110,712.75,0.239583,Sixteenth,D#4
4774,Right,0,69,110,712.75,0.208333,Sixteenth,A4
4776,Right,0,71,110,712.875,0.208333,Sixteenth,B4
4779,Right,0,68,110,713.0,0.239583,Sixteenth,G#4
4777,Left,1,52,110,713.0,0.989583,Quarter,E4_E3
4780,Right,0,71,110,713.25,0.239583,Sixteenth,B4
4781,Right,0,68,110,713.5,0.239583,Sixteenth,G#4
4782,Right,0,64,110,713.75,0.239583,Sixteenth,E4
4784,Left,1,52,110,714.0,0.239583,Sixteenth,E3
4783,Right,0,67,110,714.0,0.208333,Sixteenth,G4
4785,Right,0,69,110,714.125,0.208333,Sixteenth,A4
4787,Right,0,67,110,714.25,0.208333,Sixteenth,G4
4786,Left,1,50,110,714.25,0.239583,Sixteenth,D3
4788,Right,0,69,110,714.375,0.208333,Sixteenth,A4
4790,Right,0,67,110,714.5,0.208333,Sixteenth,G4
4789,Left,1,52,110,714.5,0.239583,Sixteenth,E3
4791,Right,0,69,110,714.625,0.208333,Sixteenth,A4
4793,Right,0,67,110,714.75,0.208333,Sixteenth,G4
4792,Left,1,54,110,714.75,0.239583,Sixteenth,F#3
4794,Right,0,69,110,714.875,0.208333,Sixteenth,A4
4795,Left,1,55,110,715.0,0.239583,Sixteenth,G3
4796,Right,0,67,110,715.0,0.208333,Sixteenth,G4
4797,Right,0,69,110,715.125,0.208333,Sixteenth,A4
4799,Right,0,67,110,715.25,0.208333,Sixteenth,G4
4798,Left,1,57,110,715.25,0.239583,Sixteenth,A3
4800,Right,0,69,110,715.375,0.208333,Sixteenth,A4
4801,Right,0,67,110,715.5,0.208333,Sixteenth,G4
4802,Left,1,45,110,715.5,0.489583,Eighth,B3_A2
4804,Right,0,69,110,715.625,0.208333,Sixteenth,A4
4806,Left,1,61,110,715.75,0.239583,Sixteenth,C#4
4805,Right,0,67,110,715.75,0.208333,Sixteenth,G4
4807,Right,0,69,110,715.875,0.208333,Sixteenth,A4
4808,Right,0,66,110,716.0,0.239583,Sixteenth,F#4
4809,Left,1,50,110,716.0,0.989583,Quarter,D4_D3
4811,Right,0,69,110,716.25,0.239583,Sixteenth,A4
4812,Right,0,66,110,716.5,0.239583,Sixteenth,F#4
4813,Right,0,62,110,716.75,0.239583,Sixteenth,D4
4814,Right,0,66,110,717.0,0.239583,Sixteenth,F#4
4815,Left,1,57,110,717.0,0.208333,Sixteenth,A3
4816,Left,1,59,110,717.125,0.208333,Sixteenth,B3
4817,Right,0,64,110,717.25,0.239583,Sixteenth,E4
4818,Left,1,57,110,717.25,0.208333,Sixteenth,A3
4819,Left,1,59,110,717.375,0.208333,Sixteenth,B3
4820,Right,0,66,110,717.5,0.239583,Sixteenth,F#4
4821,Left,1,57,110,717.5,0.208333,Sixteenth,A3
4822,Left,1,59,110,717.625,0.208333,Sixteenth,B3
4824,Left,1,57,110,717.75,0.208333,Sixteenth,A3
4823,Right,0,67,110,717.75,0.239583,Sixteenth,G4
4825,Left,1,59,110,717.875,0.208333,Sixteenth,B3
4826,Right,0,69,110,718.0,0.239583,Sixteenth,A4
4827,Left,1,57,110,718.0,0.208333,Sixteenth,A3
4828,Left,1,59,110,718.125,0.208333,Sixteenth,B3
4829,Right,0,71,110,718.25,0.239583,Sixteenth,B4
4830,Left,1,57,110,718.25,0.208333,Sixteenth,A3
4831,Left,1,59,110,718.375,0.208333,Sixteenth,B3
4834,Left,1,57,110,718.5,0.208333,Sixteenth,A3
4832,Right,0,83,110,718.5,0.489583,Eighth,C#5_B5
4835,Left,1,59,110,718.625,0.208333,Sixteenth,B3
4836,Left,1,57,110,718.75,0.208333,Sixteenth,A3
4837,Right,0,75,110,718.75,0.239583,Sixteenth,D#5
4838,Left,1,59,110,718.875,0.208333,Sixteenth,B3
4839,Left,1,56,110,719.0,0.239583,Sixteenth,G#3
4840,Right,0,76,110,719.0,0.489583,Eighth,E5
4841,Left,1,59,110,719.25,0.239583,Sixteenth,B3
4843,Left,1,56,110,719.5,0.239583,Sixteenth,G#3
4842,Right,0,88,110,719.5,0.489583,Eighth,E6
4844,Left,1,52,110,719.75,0.239583,Sixteenth,E3
4846,Left,1,55,110,720.0,0.208333,Sixteenth,G3
4845,Right,0,64,110,720.0,0.239583,Sixteenth,E4
4847,Left,1,57,110,720.125,0.208333,Sixteenth,A3
4849,Left,1,55,110,720.25,0.208333,Sixteenth,G3
4848,Right,0,62,110,720.25,0.239583,Sixteenth,D4
4850,Left,1,57,110,720.375,0.208333,Sixteenth,A3
4851,Right,0,64,110,720.5,0.239583,Sixteenth,E4
4852,Left,1,55,110,720.5,0.208333,Sixteenth,G3
4853,Left,1,57,110,720.625,0.208333,Sixteenth,A3
4854,Left,1,55,110,720.75,0.208333,Sixteenth,G3
4855,Right,0,66,110,720.75,0.239583,Sixteenth,F#4
4856,Left,1,57,110,720.875,0.208333,Sixteenth,A3
4857,Right,0,67,110,721.0,0.239583,Sixteenth,G4
4858,Left,1,55,110,721.0,0.208333,Sixteenth,G3
4859,Left,1,57,110,721.125,0.208333,Sixteenth,A3
4860,Left,1,55,110,721.25,0.208333,Sixteenth,G3
4861,Right,0,69,110,721.25,0.239583,Sixteenth,A4
4862,Left,1,57,110,721.375,0.208333,Sixteenth,A3
4863,Right,0,81,110,721.5,0.489583,Eighth,B4_A5
4865,Left,1,55,110,721.5,0.208333,Sixteenth,G3
4866,Left,1,57,110,721.625,0.208333,Sixteenth,A3
4867,Left,1,55,110,721.75,0.208333,Sixteenth,G3
4868,Right,0,73,110,721.75,0.239583,Sixteenth,C#5
4869,Left,1,57,110,721.875,0.208333,Sixteenth,A3
4871,Left,1,54,110,722.0,0.239583,Sixteenth,F#3
4870,Right,0,74,110,722.0,0.489583,Eighth,D5
4872,Left,1,57,110,722.25,0.239583,Sixteenth,A3
4874,Left,1,54,110,722.5,0.239583,Sixteenth,F#3
4873,Right,0,86,110,722.5,0.489583,Eighth,D6
4875,Left,1,50,110,722.75,0.239583,Sixteenth,D3
4876,Left,1,53,110,723.0,0.208333,Sixteenth,F3
4877,Right,0,62,110,723.0,0.239583,Sixteenth,D4
4878,Left,1,55,110,723.125,0.208333,Sixteenth,G3
4879,Left,1,53,110,723.25,0.208333,Sixteenth,F3
4880,Right,0,60,110,723.25,0.239583,Sixteenth,C4
4881,Left,1,55,110,723.375,0.208333,Sixteenth,G3
4882,Right,0,62,110,723.5,0.239583,Sixteenth,D4
4883,Left,1,53,110,723.5,0.208333,Sixteenth,F3
4884,Left,1,55,110,723.625,0.208333,Sixteenth,G3
4886,Right,0,63,110,723.75,0.239583,Sixteenth,D#4
4885,Left,1,53,110,723.75,0.208333,Sixteenth,F3
4887,Left,1,55,110,723.875,0.208333,Sixteenth,G3
4888,Left,1,53,110,724.0,0.208333,Sixteenth,F3
4889,Right,0,65,110,724.0,0.239583,Sixteenth,F4
4890,Left,1,55,110,724.125,0.208333,Sixteenth,G3
4891,Left,1,53,110,724.25,0.208333,Sixteenth,F3
4892,Right,0,67,110,724.25,0.239583,Sixteenth,G4
4893,Left,1,55,110,724.375,0.208333,Sixteenth,G3
4895,Right,0,79,110,724.5,0.489583,Eighth,G5_A4
4894,Left,1,53,110,724.5,0.208333,Sixteenth,F3
4897,Left,1,55,110,724.625,0.208333,Sixteenth,G3
4898,Right,0,71,110,724.75,0.239583,Sixteenth,B4
4899,Left,1,53,110,724.75,0.208333,Sixteenth,F3
4900,Left,1,55,110,724.875,0.208333,Sixteenth,G3
4901,Left,1,51,110,725.0,0.239583,Sixteenth,D#3
4902,Right,0,72,110,725.0,0.489583,Eighth,C5
4903,Left,1,55,110,725.25,0.239583,Sixteenth,G3
4904,Left,1,51,110,725.5,0.239583,Sixteenth,D#3
4905,Right,0,84,110,725.5,0.739583,DottedEighth,C6
4906,Left,1,48,110,725.75,0.239583,Sixteenth,C3
4907,Left,1,56,120,726.0,0.489583,Eighth,G#3
4908,Right,0,76,120,726.25,0.239583,Sixteenth,E5
4909,Right,0,77,120,726.5,0.239583,Sixteenth,F5
4910,Right,0,79,120,726.75,0.239583,Sixteenth,G5
4911,Right,0,80,120,727.0,0.489583,Eighth,G#5
4912,Left,1,41,120,727.0,0.208333,Sixteenth,F2
4913,Left,1,43,120,727.125,0.208333,Sixteenth,G2
4914,Right,0,64,120,727.25,0.239583,Sixteenth,E4
4915,Left,1,41,120,727.25,0.208333,Sixteenth,F2
4916,Left,1,43,120,727.375,0.208333,Sixteenth,G2
4918,Left,1,41,120,727.5,0.208333,Sixteenth,F2
4917,Right,0,65,120,727.5,0.239583,Sixteenth,F4
4919,Left,1,43,120,727.625,0.208333,Sixteenth,G2
4921,Right,0,67,120,727.75,0.239583,Sixteenth,G4
4920,Left,1,41,120,727.75,0.208333,Sixteenth,F2
4922,Left,1,43,120,727.875,0.208333,Sixteenth,G2
4923,Left,1,41,120,728.0,0.208333,Sixteenth,F2
4924,Right,0,68,120,728.0,1.239583,TiedQuarter-Sixteenth,G#4
4925,Left,1,43,120,728.125,0.208333,Sixteenth,G2
4927,Left,1,41,120,728.25,0.208333,Sixteenth,F2
4926,Right,0,70,120,728.25,0.239583,Sixteenth,A#4
4928,Left,1,43,120,728.375,0.208333,Sixteenth,G2
4929,Left,1,41,120,728.5,0.208333,Sixteenth,F2
4930,Right,0,72,120,728.5,0.239583,Sixteenth,C5
4931,Left,1,43,120,728.625,0.208333,Sixteenth,G2
4933,Left,1,41,120,728.75,0.208333,Sixteenth,F2
4932,Right,0,74,120,728.75,0.239583,Sixteenth,D5
4934,Left,1,43,120,728.875,0.208333,Sixteenth,G2
4935,Right,0,75,120,729.0,0.989583,Quarter,D#5
4936,Left,1,39,120,729.0,0.989583,Quarter,D#2
4937,Right,0,67,110,729.25,0.239583,Sixteenth,G4
4938,Right,0,70,110,729.5,0.239583,Sixteenth,A#4
4939,Right,0,68,110,729.75,0.239583,Sixteenth,G#4
4940,Right,0,67,110,730.0,0.239583,Sixteenth,G4
4941,Right,0,65,110,730.25,0.239583,Sixteenth,F4
4942,Right,0,63,110,730.5,0.239583,Sixteenth,D#4
4943,Left,1,39,110,730.5,0.239583,Sixteenth,D#2
4944,Left,1,41,110,730.75,0.239583,Sixteenth,F2
4945,Right,0,62,110,730.75,0.239583,Sixteenth,D4
4946,Right,0,63,126,731.0,1.989583,Half,D#5_D#4
4947,Left,1,43,110,731.0,0.239583,Sixteenth,G2
4949,Left,1,44,110,731.25,0.239583,Sixteenth,G#2
4950,Right,0,74,110,731.25,0.239583,Sixteenth,D5
4951,Left,1,46,110,731.5,0.239583,Sixteenth,A#2
4952,Right,0,72,110,731.5,0.239583,Sixteenth,C5
4953,Left,1,48,110,731.75,0.239583,Sixteenth,C3
4954,Right,0,70,110,731.75,0.239583,Sixteenth,A#4
4955,Right,0,75,110,732.0,0.239583,Sixteenth,D#5
4956,Left,1,43,110,732.0,0.989583,Quarter,G2
4957,Right,0,70,110,732.25,0.239583,Sixteenth,A#4
4958,Right,0,75,110,732.5,0.239583,Sixteenth,D#5
4959,Right,0,74,110,732.75,0.239583,Sixteenth,D5
4960,Right,0,72,110,733.0,0.239583,Sixteenth,C5
4961,Right,0,70,110,733.25,0.239583,Sixteenth,A#4
4962,Right,0,68,110,733.5,0.239583,Sixteenth,G#4
4963,Left,1,43,110,733.5,0.239583,Sixteenth,G2
4964,Left,1,44,110,733.75,0.239583,Sixteenth,G#2
4965,Right,0,67,110,733.75,0.239583,Sixteenth,G4
4968,Left,1,46,110,734.0,0.239583,Sixteenth,A#2
4966,Right,0,75,110,734.0,1.239583,Sixteenth,G5_D#5
4969,Right,0,74,110,734.25,0.239583,Sixteenth,D5
4970,Left,1,48,110,734.25,0.239583,Sixteenth,C3
4971,Left,1,50,110,734.5,0.239583,Sixteenth,D3
4972,Right,0,72,110,734.5,0.239583,Sixteenth,C5
4974,Left,1,51,110,734.75,0.239583,Sixteenth,D#3
4973,Right,0,70,110,734.75,0.239583,Sixteenth,A#4
4975,Right,0,74,110,735.0,0.989583,Quarter,D5
4976,Left,1,46,110,735.0,0.989583,Quarter,A#2
4977,Right,0,77,110,735.25,0.239583,Sixteenth,F5
4978,Right,0,80,110,735.5,0.239583,Sixteenth,G#5
4979,Right,0,79,110,735.75,0.239583,Sixteenth,G5
4980,Right,0,77,110,736.0,0.239583,Sixteenth,F5
4981,Right,0,75,110,736.25,0.239583,Sixteenth,D#5
4982,Right,0,74,110,736.5,0.239583,Sixteenth,D5
4983,Left,1,46,110,736.5,0.239583,Sixteenth,A#2
4985,Right,0,72,110,736.75,0.239583,Sixteenth,C5
4984,Left,1,48,110,736.75,0.239583,Sixteenth,C3
4986,Left,1,50,110,737.0,0.239583,Sixteenth,D3
4987,Right,0,65,110,737.0,2.239583,Sixteenth,F4_A#4
4990,Left,1,48,110,737.25,0.239583,Sixteenth,C3
4989,Right,0,67,110,737.25,0.239583,Sixteenth,G4
4992,Left,1,50,110,737.5,0.239583,Sixteenth,D3
4991,Right,0,65,110,737.5,0.239583,Sixteenth,F4
4994,Right,0,63,110,737.75,0.239583,Sixteenth,D#4
4993,Left,1,51,110,737.75,0.239583,Sixteenth,D#3
4995,Left,1,53,110,738.0,0.239583,Sixteenth,F3
4996,Right,0,62,110,738.0,0.239583,Sixteenth,D4
4997,Right,0,60,110,738.25,0.239583,Sixteenth,C4
4998,Left,1,52,110,738.25,0.239583,Sixteenth,E3
5000,Right,0,62,110,738.5,0.239583,Sixteenth,D4
4999,Left,1,53,110,738.5,0.239583,Sixteenth,F3
5002,Right,0,63,110,738.75,0.239583,Sixteenth,D#4
5001,Left,1,55,110,738.75,0.239583,Sixteenth,G3
5004,Right,0,65,110,739.0,1.239583,TiedQuarter-Sixteenth,F4
5003,Left,1,56,110,739.0,0.239583,Sixteenth,G#3
5006,Right,0,72,110,739.25,0.239583,Sixteenth,C5
5005,Left,1,55,110,739.25,0.239583,Sixteenth,G3
5008,Right,0,74,110,739.5,0.239583,Sixteenth,D5
5007,Left,1,53,110,739.5,0.239583,Sixteenth,F3
5009,Right,0,75,110,739.75,0.239583,Sixteenth,D#5
5010,Left,1,51,110,739.75,0.239583,Sixteenth,D#3
5011,Right,0,77,110,740.0,1.239583,TiedQuarter-Sixteenth,F5
5012,Left,1,50,110,740.0,0.239583,Sixteenth,D3
5013,Right,0,67,110,740.25,0.239583,Sixteenth,G4
5014,Left,1,51,110,740.25,0.239583,Sixteenth,D#3
5015,Right,0,68,110,740.5,0.239583,Sixteenth,G#4
5016,Left,1,50,110,740.5,0.239583,Sixteenth,D3
5018,Left,1,48,110,740.75,0.239583,Sixteenth,C3
5017,Right,0,69,110,740.75,0.239583,Sixteenth,A4
5019,Right,0,70,110,741.0,1.239583,TiedQuarter-Sixteenth,A#4
5020,Left,1,46,110,741.0,0.239583,Sixteenth,A#2
5022,Left,1,48,110,741.25,0.239583,Sixteenth,C3
5021,Right,0,79,110,741.25,0.239583,Sixteenth,G5
5024,Right,0,80,110,741.5,0.239583,Sixteenth,G#5
5023,Left,1,46,110,741.5,0.239583,Sixteenth,A#2
5025,Right,0,81,110,741.75,0.239583,Sixteenth,A5
5026,Left,1,44,110,741.75,0.239583,Sixteenth,G#2
5028,Right,0,82,110,742.0,0.989583,Quarter,A#5
5027,Left,1,43,110,742.0,0.239583,Sixteenth,G2
5030,Right,0,72,110,742.25,0.239583,Sixteenth,C5
5029,Left,1,44,110,742.25,0.239583,Sixteenth,G#2
5032,Right,0,74,110,742.5,0.239583,Sixteenth,D5
5031,Left,1,46,110,742.5,0.239583,Sixteenth,A#2
5034,Right,0,75,110,742.75,0.239583,Sixteenth,D#5
5033,Left,1,48,110,742.75,0.239583,Sixteenth,C3
5036,Right,0,77,110,743.0,0.239583,Sixteenth,G#5_F5
5035,Left,1,50,110,743.0,0.239583,Sixteenth,D3
5038,Right,0,79,110,743.25,0.239583,Sixteenth,G5_D#5
5039,Left,1,51,110,743.25,0.239583,Sixteenth,D#3
5041,Left,1,53,110,743.5,0.239583,Sixteenth,F3
5042,Right,0,74,110,743.5,0.239583,Sixteenth,F5_D5
5045,Left,1,55,110,743.75,0.239583,Sixteenth,G3
5044,Right,0,75,110,743.75,0.239583,Sixteenth,D#5
5046,Right,0,84,120,744.0,0.489583,Eighth,C6
5047,Left,1,44,120,744.0,0.239583,Sixteenth,G#2
5048,Left,1,46,120,744.25,0.239583,Sixteenth,A#2
5049,Left,1,48,120,744.5,0.239583,Sixteenth,C3
5050,Left,1,49,120,744.75,0.239583,Sixteenth,C#3
5052,Right,0,68,120,745.0,0.208333,Sixteenth,G#4
5051,Left,1,51,120,745.0,0.239583,Sixteenth,D#3
5053,Right,0,70,120,745.125,0.208333,Sixteenth,A#4
5055,Right,0,68,120,745.25,0.208333,Sixteenth,G#4
5054,Left,1,53,120,745.25,0.239583,Sixteenth,F3
5056,Right,0,70,120,745.375,0.208333,Sixteenth,A#4
5057,Right,0,68,120,745.5,0.208333,Sixteenth,G#4
5058,Left,1,55,120,745.5,0.239583,Sixteenth,G3
5059,Right,0,70,120,745.625,0.208333,Sixteenth,A#4
5060,Right,0,68,120,745.75,0.208333,Sixteenth,G#4
5061,Left,1,56,120,745.75,0.239583,Sixteenth,G#3
5062,Right,0,70,120,745.875,0.208333,Sixteenth,A#4
5064,Left,1,58,120,746.0,0.239583,Sixteenth,A#3
5063,Right,0,68,120,746.0,0.208333,Sixteenth,G#4
5065,Right,0,70,120,746.125,0.208333,Sixteenth,A#4
5067,Left,1,59,120,746.25,0.239583,Sixteenth,B3
5066,Right,0,68,120,746.25,0.208333,Sixteenth,G#4
5068,Right,0,70,120,746.375,0.208333,Sixteenth,A#4
5069,Right,0,68,120,746.5,0.208333,Sixteenth,G#4
5070,Left,1,60,120,746.5,0.489583,Eighth,C4
5071,Right,0,70,120,746.625,0.208333,Sixteenth,A#4
5072,Right,0,68,120,746.75,0.208333,Sixteenth,G#4
5073,Right,0,70,120,746.875,0.208333,Sixteenth,A#4
5074,Right,0,77,120,747.0,0.239583,Sixteenth,F5
5075,Left,1,80,120,747.0,0.489583,Eighth,G#5
5076,Right,0,79,120,747.25,0.239583,Sixteenth,G5
5077,Right,0,80,120,747.5,0.239583,Sixteenth,G#5
5078,Right,0,82,120,747.75,0.239583,Sixteenth,A#5
5080,Right,0,84,120,748.0,0.239583,Sixteenth,C6
5079,Left,1,65,120,748.0,0.208333,Sixteenth,F4
5081,Left,1,67,120,748.125,0.208333,Sixteenth,G4
5083,Left,1,65,120,748.25,0.208333,Sixteenth,F4
5082,Right,0,86,120,748.25,0.239583,Sixteenth,D6
5084,Left,1,67,120,748.375,0.208333,Sixteenth,G4
5085,Right,0,87,120,748.5,0.239583,Sixteenth,D#6
5086,Left,1,65,120,748.5,0.208333,Sixteenth,F4
5087,Left,1,67,120,748.625,0.208333,Sixteenth,G4
5089,Right,0,88,120,748.75,0.239583,Sixteenth,E6
5088,Left,1,65,120,748.75,0.208333,Sixteenth,F4
5090,Left,1,67,120,748.875,0.208333,Sixteenth,G4
5091,Left,1,65,120,749.0,0.208333,Sixteenth,F4
5092,Right,0,89,120,749.0,0.239583,Sixteenth,F6
5093,Left,1,67,120,749.125,0.208333,Sixteenth,G4
5094,Right,0,91,120,749.25,0.239583,Sixteenth,G6
5095,Left,1,65,120,749.25,0.208333,Sixteenth,F4
5096,Left,1,67,120,749.375,0.208333,Sixteenth,G4
5098,Right,0,92,120,749.5,0.489583,Eighth,G#6
5097,Left,1,65,120,749.5,0.208333,Sixteenth,F4
5099,Left,1,67,120,749.625,0.208333,Sixteenth,G4
5100,Left,1,65,120,749.75,0.208333,Sixteenth,F4
5101,Left,1,67,120,749.875,0.208333,Sixteenth,G4
5102,Left,1,55,120,750.0,0.239583,Sixteenth,G3
5103,Right,0,94,120,750.0,0.489583,Eighth,A#6
5104,Left,1,56,120,750.25,0.239583,Sixteenth,G#3
5105,Left,1,58,120,750.5,0.239583,Sixteenth,A#3
5106,Left,1,60,120,750.75,0.239583,Sixteenth,C4
5108,Left,1,62,120,751.0,0.239583,Sixteenth,D4
5107,Right,0,79,120,751.0,0.208333,Sixteenth,G5
5109,Right,0,80,120,751.125,0.208333,Sixteenth,G#5
5110,Right,0,79,120,751.25,0.208333,Sixteenth,G5
5111,Left,1,63,120,751.25,0.239583,Sixteenth,D#4
5112,Right,0,80,120,751.375,0.208333,Sixteenth,G#5
5113,Left,1,65,120,751.5,0.239583,Sixteenth,F4
5114,Right,0,79,120,751.5,0.208333,Sixteenth,G5
5115,Right,0,80,120,751.625,0.208333,Sixteenth,G#5
5116,Left,1,67,120,751.75,0.239583,Sixteenth,G4
5117,Right,0,79,120,751.75,0.208333,Sixteenth,G5
5118,Right,0,80,120,751.875,0.208333,Sixteenth,G#5
5120,Left,1,68,120,752.0,0.239583,Sixteenth,G#4
5119,Right,0,79,120,752.0,0.208333,Sixteenth,G5
5121,Right,0,80,120,752.125,0.208333,Sixteenth,G#5
5122,Left,1,69,120,752.25,0.239583,Sixteenth,A4
5123,Right,0,79,120,752.25,0.208333,Sixteenth,G5
5124,Right,0,80,120,752.375,0.208333,Sixteenth,G#5
5125,Left,1,70,120,752.5,0.489583,Eighth,A#4
5126,Right,0,79,120,752.5,0.208333,Sixteenth,G5
5127,Right,0,80,120,752.625,0.208333,Sixteenth,G#5
5128,Right,0,79,120,752.75,0.208333,Sixteenth,G5
5129,Right,0,80,120,752.875,0.208333,Sixteenth,G#5
5131,Left,1,55,120,753.0,0.489583,Eighth,G3
5130,Right,0,75,120,753.0,0.239583,Sixteenth,D#5
5132,Right,0,77,120,753.25,0.239583,Sixteenth,F5
5133,Right,0,79,120,753.5,0.239583,Sixteenth,G5
5134,Right,0,80,120,753.75,0.239583,Sixteenth,G#5
5135,Right,0,82,120,754.0,0.239583,Sixteenth,A#5
5136,Left,1,39,120,754.0,0.208333,Sixteenth,D#2
5137,Left,1,41,120,754.125,0.208333,Sixteenth,F2
5139,Left,1,39,120,754.25,0.208333,Sixteenth,D#2
5138,Right,0,84,120,754.25,0.239583,Sixteenth,C6
5140,Left,1,41,120,754.375,0.208333,Sixteenth,F2
5141,Right,0,85,120,754.5,0.239583,Sixteenth,C#6
5142,Left,1,39,120,754.5,0.208333,Sixteenth,D#2
5143,Left,1,41,120,754.625,0.208333,Sixteenth,F2
5144,Right,0,86,120,754.75,0.239583,Sixteenth,D6
5145,Left,1,39,120,754.75,0.208333,Sixteenth,D#2
5146,Left,1,41,120,754.875,0.208333,Sixteenth,F2
5147,Right,0,87,120,755.0,0.239583,Sixteenth,D#6
5148,Left,1,39,120,755.0,0.208333,Sixteenth,D#2
5149,Left,1,41,120,755.125,0.208333,Sixteenth,F2
5150,Left,1,39,120,755.25,0.208333,Sixteenth,D#2
5151,Right,0,89,120,755.25,0.239583,Sixteenth,F6
5152,Left,1,41,120,755.375,0.208333,Sixteenth,F2
5153,Left,1,39,120,755.5,0.208333,Sixteenth,D#2
5154,Right,0,90,120,755.5,0.239583,Sixteenth,F#6
5155,Left,1,41,120,755.625,0.208333,Sixteenth,F2
5156,Left,1,39,120,755.75,0.208333,Sixteenth,D#2
5157,Right,0,91,120,755.75,0.239583,Sixteenth,G6
5158,Left,1,41,120,755.875,0.208333,Sixteenth,F2
5159,Left,1,34,120,756.0,0.489583,Eighth,A#1
5160,Right,0,82,120,756.0,0.489583,Sixteenth,G#6_A#5
5162,Right,0,80,120,756.25,0.239583,Sixteenth,G#5
5163,Right,0,79,120,756.5,0.239583,Sixteenth,G5
5164,Right,0,77,120,756.75,0.239583,Sixteenth,F5
5167,Left,1,50,120,757.0,0.208333,Sixteenth,D3
5165,Right,0,75,120,757.0,1.989583,Sixteenth,F5_D#5
5169,Left,1,50,120,757.25,0.208333,Sixteenth,D3
5168,Right,0,74,120,757.25,0.239583,Sixteenth,D5
5170,Left,1,51,120,757.3125,0.020833,TripletSixtyFourth,D#3
5171,Left,1,50,120,757.5,0.208333,Sixteenth,D3
5172,Right,0,72,120,757.5,0.239583,Sixteenth,C5
5173,Right,0,70,120,757.75,0.239583,Sixteenth,A#4
5174,Left,1,50,120,757.75,0.208333,Sixteenth,D3
5175,Left,1,51,120,757.8125,0.020833,TripletSixtyFourth,D#3
5176,Right,0,69,120,758.0,0.239583,Sixteenth,A4
5177,Left,1,50,120,758.0,0.208333,Sixteenth,D3
5179,Left,1,50,120,758.25,0.208333,Sixteenth,D3
5178,Right,0,70,120,758.25,0.239583,Sixteenth,A#4
5181,Right,0,65,120,758.5,0.239583,Sixteenth,F4
5182,Left,1,50,120,758.5,0.208333,Sixteenth,D3
5184,Left,1,50,120,758.75,0.208333,Sixteenth,D3
5183,Right,0,68,120,758.75,0.239583,Sixteenth,G#4
5186,Right,0,67,120,759.0,0.489583,Eighth,G4
5187,Left,1,39,120,759.0,0.489583,Eighth,D#2
5188,Right,0,82,120,759.25,0.239583,Sixteenth,A#5
5189,Right,0,84,120,759.5,0.239583,Sixteenth,C6
5190,Right,0,86,120,759.75,0.239583,Sixteenth,D6
5193,Left,1,55,120,760.0,0.208333,Sixteenth,G3
5191,Right,0,87,120,760.0,1.989583,Sixteenth,D#6_A#4
5194,Left,1,56,120,760.125,0.208333,Sixteenth,G#3
5195,Right,0,86,120,760.25,0.239583,Sixteenth,D6
5196,Left,1,55,120,760.25,0.208333,Sixteenth,G3
5197,Left,1,56,120,760.375,0.208333,Sixteenth,G#3
5199,Right,0,87,120,760.5,0.239583,Sixteenth,D#6
5198,Left,1,55,120,760.5,0.208333,Sixteenth,G3
5200,Left,1,56,120,760.625,0.208333,Sixteenth,G#3
5201,Right,0,89,120,760.75,0.239583,Sixteenth,F6
5202,Left,1,55,120,760.75,0.208333,Sixteenth,G3
5203,Left,1,56,120,760.875,0.208333,Sixteenth,G#3
5204,Right,0,91,120,761.0,0.239583,Sixteenth,G6
5205,Left,1,55,120,761.0,0.208333,Sixteenth,G3
5206,Left,1,56,120,761.125,0.208333,Sixteenth,G#3
5207,Right,0,89,120,761.25,0.239583,Sixteenth,F6
5208,Left,1,55,120,761.25,0.208333,Sixteenth,G3
5209,Left,1,56,120,761.375,0.208333,Sixteenth,G#3
5211,Right,0,91,120,761.5,0.239583,Sixteenth,G6
5210,Left,1,55,120,761.5,0.208333,Sixteenth,G3
5212,Left,1,56,120,761.625,0.208333,Sixteenth,G#3
5213,Left,1,55,120,761.75,0.208333,Sixteenth,G3
5214,Right,0,92,120,761.75,0.239583,Sixteenth,G#6
5215,Left,1,56,120,761.875,0.208333,Sixteenth,G#3
5216,Left,1,36,120,762.0,0.489583,Eighth,C2
5217,Right,0,94,120,762.0,0.489583,Eighth,A#6
5218,Right,0,80,120,762.5,0.239583,Sixteenth,G#5
5219,Right,0,79,120,762.75,0.239583,Sixteenth,G5
5221,Left,1,52,120,763.0,0.208333,Sixteenth,E3
5220,Right,0,77,120,763.0,1.989583,Sixteenth,G5_F5
5223,Left,1,53,120,763.125,0.208333,Sixteenth,F3
5224,Right,0,76,120,763.25,0.239583,Sixteenth,E5
5225,Left,1,52,120,763.25,0.208333,Sixteenth,E3
5226,Left,1,53,120,763.375,0.208333,Sixteenth,F3
5227,Left,1,52,120,763.5,0.208333,Sixteenth,E3
5228,Right,0,73,120,763.5,0.239583,Sixteenth,C#5
5229,Left,1,53,120,763.625,0.208333,Sixteenth,F3
5231,Right,0,72,120,763.75,0.239583,Sixteenth,C5
5230,Left,1,52,120,763.75,0.208333,Sixteenth,E3
5232,Left,1,53,120,763.875,0.208333,Sixteenth,F3
5233,Left,1,52,120,764.0,0.208333,Sixteenth,E3
5234,Right,0,71,120,764.0,0.239583,Sixteenth,B4
5235,Left,1,53,120,764.125,0.208333,Sixteenth,F3
5237,Right,0,72,120,764.25,0.239583,Sixteenth,C5
5236,Left,1,52,120,764.25,0.208333,Sixteenth,E3
5238,Left,1,53,120,764.375,0.208333,Sixteenth,F3
5240,Right,0,67,120,764.5,0.239583,Sixteenth,G4
5239,Left,1,52,120,764.5,0.208333,Sixteenth,E3
5241,Left,1,53,120,764.625,0.208333,Sixteenth,F3
5243,Right,0,70,120,764.75,0.239583,Sixteenth,A#4
5242,Left,1,52,120,764.75,0.208333,Sixteenth,E3
5244,Left,1,53,120,764.875,0.208333,Sixteenth,F3
5246,Right,0,68,120,765.0,0.489583,Eighth,G#4
5245,Left,1,41,123,765.0,0.489583,Eighth,F2
5247,Right,0,84,120,765.5,0.239583,Sixteenth,C6
5248,Right,0,88,120,765.75,0.239583,Sixteenth,E6
5249,Right,0,72,120,766.0,1.489583,DottedQuarter,F6_C5
5251,Left,1,56,120,766.0,0.208333,Sixteenth,G#3
5252,Left,1,58,120,766.125,0.208333,Sixteenth,A#3
5253,Left,1,56,120,766.25,0.208333,Sixteenth,G#3
5254,Right,0,91,120,766.25,0.239583,Sixteenth,G6
5255,Left,1,58,120,766.375,0.208333,Sixteenth,A#3
5256,Right,0,92,120,766.5,0.239583,Sixteenth,G#6
5257,Left,1,56,120,766.5,0.208333,Sixteenth,G#3
5258,Left,1,58,120,766.625,0.208333,Sixteenth,A#3
5259,Left,1,56,120,766.75,0.208333,Sixteenth,G#3
5260,Right,0,91,120,766.75,0.239583,Sixteenth,G6
5261,Left,1,58,120,766.875,0.208333,Sixteenth,A#3
5263,Left,1,56,120,767.0,0.208333,Sixteenth,G#3
5262,Right,0,89,120,767.0,0.239583,Sixteenth,F6
5264,Left,1,58,120,767.125,0.208333,Sixteenth,A#3
5266,Right,0,87,120,767.25,0.239583,Sixteenth,D#6
5265,Left,1,56,120,767.25,0.208333,Sixteenth,G#3
5267,Left,1,58,120,767.375,0.208333,Sixteenth,A#3
5268,Right,0,86,120,767.5,0.489583,Sixteenth,F#4_D6
5270,Left,1,56,120,767.5,0.208333,Sixteenth,G#3
5271,Left,1,58,120,767.625,0.208333,Sixteenth,A#3
5273,Right,0,84,120,767.75,0.239583,Sixteenth,C6
5272,Left,1,56,120,767.75,0.208333,Sixteenth,G#3
5274,Left,1,58,120,767.875,0.208333,Sixteenth,A#3
5277,Left,1,55,120,768.0,0.489583,Eighth,G3
5275,Right,0,83,120,768.0,0.489583,Eighth,G4_B5
5278,Right,0,74,120,768.5,0.489583,Eighth,D5
5279,Left,1,59,120,768.5,0.489583,Eighth,B3
5280,Right,0,59,120,769.0,0.208333,Sixteenth,B3
5281,Left,1,43,120,769.0,0.208333,Sixteenth,G2
5282,Right,0,60,120,769.125,0.208333,Sixteenth,C4
5283,Left,1,44,120,769.125,0.208333,Sixteenth,G#2
5285,Left,1,43,120,769.25,0.208333,Sixteenth,G2
5284,Right,0,59,120,769.25,0.208333,Sixteenth,B3
5287,Left,1,44,120,769.375,0.208333,Sixteenth,G#2
5286,Right,0,60,120,769.375,0.208333,Sixteenth,C4
5288,Right,0,55,120,769.5,0.489583,Eighth,G3
5289,Right,0,71,120,770.0,0.208333,Sixteenth,B4
5290,Right,0,72,120,770.125,0.208333,Sixteenth,C5
5291,Right,0,71,120,770.25,0.208333,Sixteenth,B4
5292,Right,0,72,120,770.375,0.208333,Sixteenth,C5
5294,Left,1,63,120,770.5,0.489583,Eighth,D#4
5293,Right,0,79,120,770.5,0.489583,Eighth,G5
5296,Right,0,63,120,771.0,0.208333,Sixteenth,D#4
5295,Left,1,48,120,771.0,0.208333,Sixteenth,C3
5298,Right,0,65,120,771.125,0.208333,Sixteenth,F4
5297,Left,1,50,120,771.125,0.208333,Sixteenth,D3
5300,Left,1,48,120,771.25,0.208333,Sixteenth,C3
5299,Right,0,63,120,771.25,0.208333,Sixteenth,D#4
5301,Right,0,65,120,771.375,0.208333,Sixteenth,F4
5302,Left,1,50,120,771.375,0.208333,Sixteenth,D3
5303,Right,0,60,120,771.5,0.489583,Eighth,C4
5304,Right,0,75,120,772.0,0.208333,Sixteenth,D#5
5305,Right,0,77,120,772.125,0.208333,Sixteenth,F5
5306,Right,0,75,120,772.25,0.208333,Sixteenth,D#5
5307,Right,0,77,120,772.375,0.208333,Sixteenth,F5
5308,Right,0,84,120,772.5,0.489583,Eighth,C6
5309,Left,1,56,120,772.5,0.489583,Eighth,G#3
5311,Left,1,42,120,773.0,0.208333,Sixteenth,F#2
5310,Right,0,69,120,773.0,0.208333,Sixteenth,A4
5313,Left,1,43,120,773.125,0.208333,Sixteenth,G2
5312,Right,0,70,120,773.125,0.208333,Sixteenth,A#4
5315,Right,0,69,120,773.25,0.208333,Sixteenth,A4
5314,Left,1,42,120,773.25,0.208333,Sixteenth,F#2
5316,Right,0,70,120,773.375,0.208333,Sixteenth,A#4
5317,Left,1,43,120,773.375,0.208333,Sixteenth,G2
5318,Right,0,62,120,773.5,0.489583,Eighth,D4
5319,Right,0,78,120,774.0,0.208333,Sixteenth,F#5
5320,Right,0,79,120,774.125,0.208333,Sixteenth,G5
5321,Right,0,78,120,774.25,0.208333,Sixteenth,F#5
5322,Right,0,79,120,774.375,0.208333,Sixteenth,G5
5324,Right,0,86,120,774.5,0.489583,Eighth,D6
5323,Left,1,58,120,774.5,0.489583,Eighth,A#3
5326,Right,0,70,120,775.0,0.208333,Sixteenth,A#4
5325,Left,1,43,120,775.0,0.208333,Sixteenth,G2
5327,Left,1,45,120,775.125,0.208333,Sixteenth,A2
5328,Right,0,72,120,775.125,0.208333,Sixteenth,C5
5329,Right,0,70,120,775.25,0.208333,Sixteenth,A#4
5330,Left,1,43,120,775.25,0.208333,Sixteenth,G2
5331,Left,1,45,120,775.375,0.208333,Sixteenth,A2
5332,Right,0,72,120,775.375,0.208333,Sixteenth,C5
5333,Right,0,67,120,775.5,0.489583,Eighth,G4
5334,Right,0,82,120,776.0,0.208333,Sixteenth,A#5
5335,Right,0,84,120,776.125,0.208333,Sixteenth,C6
5336,Right,0,82,120,776.25,0.208333,Sixteenth,A#5
5337,Right,0,84,120,776.375,0.208333,Sixteenth,C6
5339,Right,0,91,120,776.5,0.489583,Eighth,G6
5338,Left,1,64,120,776.5,0.489583,Eighth,E4
5340,Right,0,76,120,777.0,0.208333,Sixteenth,E5
5341,Left,1,49,120,777.0,0.208333,Sixteenth,C#3
5343,Right,0,77,120,777.125,0.208333,Sixteenth,F5
5342,Left,1,50,120,777.125,0.208333,Sixteenth,D3
5344,Left,1,49,120,777.25,0.208333,Sixteenth,C#3
5345,Right,0,76,120,777.25,0.208333,Sixteenth,E5
5347,Right,0,77,120,777.375,0.208333,Sixteenth,F5
5346,Left,1,50,120,777.375,0.208333,Sixteenth,D3
5348,Right,0,73,120,777.5,0.489583,Eighth,C#5
5349,Right,0,88,120,778.0,0.208333,Sixteenth,E6
5350,Right,0,89,120,778.125,0.208333,Sixteenth,F6
5351,Right,0,88,120,778.25,0.208333,Sixteenth,E6
5352,Right,0,89,120,778.375,0.208333,Sixteenth,F6
5355,Left,1,57,120,778.5,0.489583,Eighth,A3
5353,Right,0,93,120,778.5,0.489583,Eighth,A6_A5
5358,Left,1,53,120,779.0,0.489583,Eighth,F3
5356,Right,0,89,120,779.0,0.489583,Eighth,F6_F5
5359,Right,0,86,120,779.5,0.489583,Eighth,D6_D5
5360,Left,1,50,120,779.5,0.489583,Eighth,D3
5364,Left,1,45,120,780.0,0.489583,Eighth,A2
5362,Right,0,81,120,780.0,0.489583,Eighth,A5_A4
5365,Left,1,41,120,780.5,0.489583,Eighth,F2
5366,Right,0,77,120,780.5,0.489583,Eighth,F5_F4
5370,Left,1,38,120,781.0,0.489583,Eighth,D2
5368,Right,0,74,120,781.0,0.489583,Eighth,D5_D4
5371,Right,0,69,120,781.5,0.489583,Eighth,A4_A3
5372,Left,1,45,120,781.5,0.489583,Eighth,A2_A1
5375,Right,0,68,120,782.0,0.489583,Eighth,G#4_G#3_D4
5378,Left,1,34,120,782.0,0.489583,Eighth,A#2_A#1
5381,Right,0,68,120,782.5,0.489583,Eighth,G#5_G#4_D5
5380,Left,1,46,120,782.5,0.489583,Eighth,A#2_A#1
5389,Right,0,73,120,783.0,0.489583,Eighth,C#5_A5_A4
5385,Left,1,45,120,783.0,0.489583,Eighth,E2_C#2_A2_A1
5393,Left,1,37,120,784.0,0.489583,Eighth,E2_C#2_A2_A1
5392,Right,0,93,120,784.0,0.489583,Eighth,E6_C#6_A6_A5
5400,Right,0,69,80,790.0,0.989583,Quarter,A4
5401,Right,0,67,80,791.0,0.989583,Quarter,G4
5402,Right,0,66,80,792.0,0.989583,Quarter,F#4
5403,Right,0,67,80,793.0,0.989583,Quarter,G4
5404,Right,0,69,80,794.0,0.989583,Quarter,A4
5405,Right,0,62,80,795.0,0.989583,Quarter,D4
5406,Right,0,62,80,796.0,0.989583,Quarter,E4_D4
5408,Right,0,66,80,797.0,0.989583,Quarter,F#4_C4
5410,Right,0,59,80,798.0,1.989583,Quarter,G4_B3
5412,Right,0,61,80,799.0,0.989583,Quarter,C#4
5413,Right,0,62,80,800.0,1.989583,Half,F#4_D4
5415,Right,0,64,80,801.0,1.989583,Half,E4
5417,Left,1,57,80,802.0,0.989583,Quarter,A3
5416,Right,0,61,80,802.0,1.989583,Half,C#4
5419,Left,1,55,80,803.0,0.989583,Quarter,G3
5418,Right,0,69,80,803.0,3.989583,Whole,A4
5420,Left,1,54,80,804.0,0.989583,Quarter,F#3
5421,Right,0,63,80,804.0,0.989583,Quarter,D#4
5423,Left,1,55,80,805.0,0.989583,Quarter,G3
5422,Right,0,64,80,805.0,0.989583,Quarter,E4
5424,Right,0,66,80,806.0,1.989583,Half,F#4
5425,Left,1,57,80,806.0,1.989583,Half,A3
5426,Right,0,71,80,807.0,0.989583,Quarter,B4
5428,Right,0,73,80,808.0,0.989583,Quarter,E4_C#5
5427,Left,1,55,80,808.0,0.989583,Quarter,G3
5430,Right,0,74,80,809.0,1.989583,Quarter,D5_D4
5432,Left,1,54,80,809.0,0.989583,Quarter,F#3
5433,Right,0,69,80,810.0,0.989583,Quarter,A4
5434,Left,1,59,80,810.0,0.989583,Quarter,B3
5437,Left,1,49,80,811.0,0.989583,Quarter,C#3
5435,Right,0,64,80,811.0,0.989583,Quarter,G4_E4
5439,Right,0,66,80,812.0,1.989583,Half,F#4_A3
5438,Left,1,50,80,812.0,0.989583,Quarter,D3
5442,Left,1,43,80,813.0,0.989583,Quarter,G2
5441,Right,0,58,80,813.0,0.989583,Quarter,A#3
5444,Left,1,44,80,814.0,0.989583,Quarter,G#2
5443,Right,0,59,80,814.0,2.989583,Quarter,E4_B3
5447,Right,0,61,80,815.0,0.989583,Quarter,C#4
5446,Left,1,45,80,815.0,0.989583,Quarter,A2
5449,Left,1,47,80,816.0,0.989583,Quarter,B2
5448,Right,0,62,80,816.0,0.989583,Quarter,D4
5452,Left,1,42,80,817.0,0.989583,Quarter,F#2
5450,Right,0,76,80,817.0,0.989583,Quarter,E5_A4
5455,Left,1,44,80,818.0,0.989583,Quarter,G#2
5453,Right,0,74,80,818.0,1.989583,Quarter,D5_B4
5457,Left,1,43,80,819.0,0.989583,Quarter,G2
5456,Right,0,73,80,819.0,0.989583,Quarter,C#5
5458,Right,0,74,80,820.0,0.989583,Quarter,D5_A4
5460,Left,1,47,80,820.0,0.989583,Quarter,B2
5462,Right,0,76,80,821.0,0.989583,Quarter,G4_E5
5461,Left,1,49,80,821.0,0.989583,Quarter,C#3
5465,Right,0,69,80,822.0,0.989583,Quarter,F#4_A4
5464,Left,1,50,80,822.0,0.989583,Quarter,D3
5467,Right,0,71,80,823.0,0.989583,Quarter,G4_B4
5468,Left,1,62,80,823.0,0.989583,Quarter,D4
5471,Right,0,69,80,824.0,0.989583,Quarter,C5_A4
5470,Left,1,60,80,824.0,0.989583,Quarter,C4
5473,Right,0,62,80,825.0,1.989583,Quarter,D5_D4
5475,Left,1,59,80,825.0,0.989583,Quarter,B3
5476,Right,0,64,80,826.0,0.989583,Quarter,E4
5477,Left,1,60,80,826.0,0.989583,Quarter,C4
5478,Right,0,66,80,827.0,1.989583,Quarter,F#4_C5
5480,Left,1,62,80,827.0,0.989583,Quarter,D4
5481,Left,1,55,80,828.0,0.989583,Quarter,G3
5482,Right,0,67,80,828.0,1.989583,Half,G4
5483,Left,1,57,80,829.0,0.989583,Quarter,A3
5484,Right,0,71,80,829.0,0.989583,Quarter,B4
5487,Left,1,59,80,830.0,0.989583,Quarter,B3
5485,Right,0,66,80,830.0,1.989583,Half,F#4_A4
5488,Left,1,52,80,831.0,0.989583,Quarter,E3
5489,Right,0,67,80,832.0,0.989583,Quarter,G4_E4
5490,Left,1,54,80,832.0,0.989583,Quarter,F#3
5493,Left,1,55,80,833.0,0.989583,Quarter,G3
5492,Right,0,66,80,833.0,1.989583,Quarter,F#4_D4
5496,Right,0,64,80,834.0,1.989583,Half,E4
5495,Left,1,56,80,834.0,0.989583,Quarter,G#3
5498,Left,1,57,80,835.0,0.989583,Quarter,A3
5497,Right,0,61,80,835.0,1.989583,Half,C#4
5499,Right,0,69,80,836.0,1.989583,Half,A4
5500,Left,1,55,80,836.0,0.989583,Quarter,G3
5501,Right,0,63,80,837.0,2.989583,DottedHalf,D#4
5502,Left,1,54,80,837.0,0.989583,Quarter,F#3
5503,Right,0,66,80,838.0,0.989583,Quarter,F#4
5504,Left,1,59,80,838.0,0.989583,Quarter,B3
5506,Right,0,71,80,839.0,1.989583,Half,B4
5505,Left,1,57,80,839.0,0.989583,Quarter,A3
5508,Right,0,64,80,840.0,0.989583,Quarter,E4
5507,Left,1,55,80,840.0,1.989583,Half,G3
5510,Left,1,61,80,841.0,0.989583,Quarter,C#4
5509,Right,0,76,80,841.0,0.989583,Quarter,E5
5511,Right,0,74,80,842.0,0.989583,Quarter,D5
5512,Left,1,53,80,842.0,0.989583,Quarter,F3_B3
5514,Left,1,58,80,843.0,1.989583,Quarter,F#3_A#3
5515,Right,0,73,80,843.0,0.989583,Quarter,C#5
5517,Right,0,78,80,844.0,0.989583,Quarter,F#5
5518,Left,1,62,80,844.0,0.989583,Quarter,D4
5519,Right,0,76,80,845.0,0.989583,Quarter,E5
5520,Left,1,56,80,845.0,0.989583,Eighth,G#3_C#4
5522,Left,1,58,80,845.5,0.489583,Eighth,A#3
5524,Left,1,59,80,846.0,0.989583,Quarter,D4_B3
5523,Right,0,74,80,846.0,0.989583,Quarter,D5
5527,Left,1,61,80,847.0,0.989583,Quarter,C#4_A3
5526,Right,0,81,80,847.0,0.989583,Quarter,A5
5530,Left,1,64,80,848.0,0.989583,Quarter,E4_C#4
5529,Right,0,79,80,848.0,0.989583,Quarter,G5
5532,Left,1,62,80,849.0,0.989583,Quarter,F#4_D4
5534,Right,0,78,80,849.0,0.989583,Quarter,F#5
5536,Left,1,54,80,850.0,0.989583,Quarter,F#3
5535,Right,0,71,80,850.0,0.989583,Quarter,D#5_B4
5539,Left,1,51,80,851.0,0.989583,Quarter,D#3
5538,Right,0,78,80,851.0,0.989583,Quarter,F#5_A4
5541,Left,1,52,80,852.0,0.989583,Quarter,E3
5542,Right,0,67,80,852.0,0.989583,Quarter,G4_B4
5544,Left,1,64,80,853.0,0.989583,Quarter,E4
5545,Right,0,69,80,853.0,0.989583,Quarter,F#4_A4
5547,Left,1,62,80,854.0,0.989583,Quarter,D4
5548,Right,0,71,80,854.0,0.989583,Quarter,G#4_B4
5550,Right,0,73,80,855.0,0.989583,Quarter,C#5_A4
5552,Left,1,61,80,855.0,0.989583,Quarter,C#4
5555,Left,1,45,80,856.0,0.989583,Quarter,A2
5553,Right,0,71,80,856.0,0.989583,Quarter,D5_B4
5558,Left,1,43,80,857.0,0.989583,Quarter,G2
5556,Right,0,76,80,857.0,1.989583,Half,E5_C#5
5560,Left,1,42,80,858.0,0.989583,Quarter,F#2
5559,Right,0,69,80,858.0,0.989583,Quarter,A4
5562,Right,0,65,80,859.0,0.989583,Quarter,F4_D5
5561,Left,1,44,80,859.0,0.989583,Quarter,G#2
5564,Right,0,64,80,860.0,0.989583,Quarter,E4_C#5
5565,Left,1,45,80,860.0,1.989583,Half,A2
5567,Right,0,71,80,861.0,3.989583,Whole,D4_B4
5569,Left,1,44,80,862.0,0.989583,Quarter,G#2
5570,Left,1,40,80,863.0,0.989583,Quarter,E2
5571,Left,1,45,80,864.0,0.989583,Quarter,A2
5572,Left,1,57,80,865.0,0.989583,Quarter,A3
5573,Right,0,69,80,865.0,0.989583,Quarter,C#4_A4
5576,Right,0,63,80,866.0,1.989583,Half,D#4_C5
5575,Left,1,54,80,866.0,0.989583,Quarter,F#3
5578,Left,1,55,80,867.0,1.989583,Half,G3
5579,Right,0,71,80,868.0,0.989583,Quarter,E4_B4
5582,Right,0,67,80,869.0,1.989583,Half,G4_C#5
5581,Left,1,52,80,869.0,0.989583,Quarter,E3
5584,Left,1,51,80,870.0,0.989583,Quarter,D#3
5585,Right,0,66,80,871.0,0.989583,Quarter,F#4_D5
5587,Left,1,50,80,871.0,0.989583,Quarter,D3
5590,Left,1,48,80,872.0,0.989583,Quarter,C3
5588,Right,0,75,80,872.0,1.989583,Half,G4_D#5
5591,Left,1,57,80,873.0,0.989583,Quarter,F3_A3
5595,Right,0,74,80,874.0,0.989583,Quarter,D5
5593,Left,1,58,80,874.0,0.989583,Quarter,A#3_A#2
5597,Left,1,52,80,875.0,0.989583,Quarter,E3_A#2
5596,Right,0,73,80,875.0,0.989583,Quarter,C#5
5600,Left,1,53,70,876.0,0.989583,Quarter,F3_A2
5599,Right,0,72,70,876.0,0.489583,Eighth,C5
5602,Right,0,69,70,877.0,0.989583,Sixteenth,F5_A4
5604,Left,1,48,70,877.0,0.989583,Quarter,C3
5605,Right,0,70,70,877.125,0.208333,Sixteenth,A#4
5606,Right,0,69,70,877.25,0.208333,Sixteenth,A4
5607,Right,0,70,70,877.375,0.208333,Sixteenth,A#4
5608,Right,0,69,70,877.5,0.208333,Sixteenth,A4
5609,Right,0,70,70,877.625,0.208333,Sixteenth,A#4
5610,Right,0,69,70,877.75,0.208333,Sixteenth,A4
5611,Right,0,70,70,877.875,0.208333,Sixteenth,A#4
5612,Left,1,41,70,878.0,0.989583,Quarter,F2
5613,Right,0,75,70,878.0,0.989583,Quarter,D#5_A4
5615,Right,0,70,70,878.125,0.208333,Sixteenth,A#4
5616,Right,0,69,70,878.25,0.208333,Sixteenth,A4
5617,Right,0,70,70,878.375,0.208333,Sixteenth,A#4
5618,Right,0,69,70,878.5,0.208333,Sixteenth,A4
5619,Right,0,70,70,878.625,0.208333,Sixteenth,A#4
5620,Right,0,67,70,878.75,0.208333,Sixteenth,G4
5621,Right,0,69,70,878.875,0.208333,Sixteenth,A4
5623,Right,0,74,70,879.0,0.989583,Quarter,D5_A#4
5622,Left,1,46,70,879.0,0.989583,Quarter,A#2
5625,Right,0,75,70,880.0,0.989583,Quarter,D#5
5626,Right,0,70,70,880.5,0.239583,Sixteenth,A#4
5627,Right,0,69,70,880.75,0.239583,Sixteenth,A4
5628,Right,0,77,70,881.0,0.989583,Quarter,G4_F5
5630,Right,0,65,70,881.25,0.239583,Sixteenth,F4
5631,Right,0,63,70,881.5,0.239583,Sixteenth,D#4
5632,Right,0,62,70,881.75,0.239583,Sixteenth,D4
5633,Right,0,71,70,882.0,0.989583,Quarter,G4_B4
5635,Right,0,72,70,883.0,0.989583,Quarter,C5
5636,Right,0,67,70,883.5,0.239583,Sixteenth,G4
5637,Right,0,65,70,883.75,0.239583,Sixteenth,F4
5638,Right,0,63,70,884.0,0.989583,Sixteenth,D5_D#4
5640,Right,0,62,70,884.25,0.239583,Sixteenth,D4
5641,Right,0,60,70,884.5,0.239583,Sixteenth,C4
5642,Right,0,59,70,884.75,0.239583,Sixteenth,B3
5645,Left,1,43,70,885.0,0.989583,Quarter,G2
5643,Right,0,62,70,885.0,0.989583,Quarter,D4_B4
5646,Left,1,59,70,886.0,0.208333,Sixteenth,B3
5647,Right,0,67,70,886.0,0.989583,Quarter,G4
5648,Left,1,60,70,886.125,0.208333,Sixteenth,C4
5649,Left,1,59,70,886.25,0.208333,Sixteenth,B3
5650,Left,1,60,70,886.375,0.208333,Sixteenth,C4
5651,Left,1,59,70,886.5,0.208333,Sixteenth,B3
5652,Left,1,60,70,886.625,0.208333,Sixteenth,C4
5653,Left,1,59,70,886.75,0.208333,Sixteenth,B3
5654,Left,1,60,70,886.875,0.208333,Sixteenth,C4
5656,Left,1,59,70,887.0,0.208333,Sixteenth,B3
5655,Right,0,65,70,887.0,0.989583,Quarter,F4
5657,Left,1,60,70,887.125,0.208333,Sixteenth,C4
5658,Left,1,59,70,887.25,0.208333,Sixteenth,B3
5659,Left,1,60,70,887.375,0.208333,Sixteenth,C4
5660,Left,1,59,70,887.5,0.208333,Sixteenth,B3
5661,Left,1,60,70,887.625,0.208333,Sixteenth,C4
5662,Left,1,57,70,887.75,0.208333,Sixteenth,A3
5663,Left,1,59,70,887.875,0.208333,Sixteenth,B3
5664,Left,1,60,70,888.0,0.989583,Quarter,C4
5665,Right,0,64,70,888.0,0.989583,Quarter,E4
5666,Right,0,65,74,889.0,0.989583,Quarter,F4
5667,Left,1,60,76,889.5,0.239583,Sixteenth,C4
5668,Left,1,58,77,889.75,0.239583,Sixteenth,A#3
5669,Left,1,57,78,890.0,0.239583,Sixteenth,A3
5670,Right,0,67,78,890.0,0.989583,Quarter,G4
5671,Left,1,55,79,890.25,0.239583,Sixteenth,G3
5672,Left,1,53,80,890.5,0.239583,Sixteenth,F3
5673,Left,1,52,81,890.75,0.239583,Sixteenth,E3
5674,Right,0,60,82,891.0,0.989583,Quarter,C4
5675,Left,1,57,82,891.0,0.989583,Quarter,A3
5676,Right,0,62,86,892.0,0.989583,Quarter,D4_C5
5678,Left,1,57,88,892.5,0.239583,Sixteenth,A3
5679,Left,1,55,89,892.75,0.239583,Sixteenth,G3
5682,Left,1,53,90,893.0,0.239583,Sixteenth,F3
5680,Right,0,64,90,893.0,0.989583,Quarter,E4_A#4
5683,Left,1,52,91,893.25,0.239583,Sixteenth,E3
5684,Left,1,50,92,893.5,0.239583,Sixteenth,D3
5685,Left,1,48,93,893.75,0.239583,Sixteenth,C3
5686,Left,1,53,94,894.0,0.989583,Quarter,F3
5687,Right,0,65,94,894.0,0.989583,Quarter,F4_A4
5689,Right,0,70,98,895.0,0.989583,Quarter,G4_A#4
5691,Left,1,53,100,895.5,0.239583,Sixteenth,F3
5692,Left,1,52,101,895.75,0.239583,Sixteenth,E3
5693,Right,0,69,102,896.0,0.989583,Quarter,C5_A4
5695,Left,1,50,102,896.0,0.239583,Sixteenth,D3
5696,Left,1,48,103,896.25,0.239583,Sixteenth,C3
5697,Left,1,46,104,896.5,0.239583,Sixteenth,A#2
5698,Left,1,45,105,896.75,0.239583,Sixteenth,A2
5700,Right,0,65,106,897.0,0.489583,Eighth,F4_D#4
5699,Left,1,48,106,897.0,0.239583,Sixteenth,C3
5702,Left,1,46,107,897.25,0.239583,Sixteenth,A#2
5703,Left,1,45,108,897.5,0.239583,Sixteenth,A2
5704,Right,0,72,108,897.5,0.989583,Quarter,C5
5705,Left,1,43,109,897.75,0.239583,Sixteenth,G2
5707,Right,0,81,110,898.0,0.208333,Sixteenth,A5
5706,Left,1,29,110,898.0,0.989583,Quarter,F2_F1
5709,Right,0,82,110,898.125,0.208333,Sixteenth,A#5
5710,Right,0,81,110,898.25,0.208333,Sixteenth,A5
5711,Right,0,82,110,898.375,0.208333,Sixteenth,A#5
5712,Right,0,77,110,898.5,0.989583,Quarter,F5_A5
5714,Right,0,82,110,898.625,0.208333,Sixteenth,A#5
5715,Right,0,81,110,898.75,0.208333,Sixteenth,A5
5716,Right,0,82,110,898.875,0.208333,Sixteenth,A#5
5718,Left,1,27,110,899.0,0.989583,Quarter,D#2_D#1
5717,Right,0,81,110,899.0,0.208333,Sixteenth,A5
5720,Right,0,82,110,899.125,0.208333,Sixteenth,A#5
5721,Right,0,81,110,899.25,0.208333,Sixteenth,A5
5722,Right,0,82,110,899.375,0.208333,Sixteenth,A#5
5723,Right,0,81,110,899.5,0.489583,Sixteenth,F#5_A5
5725,Right,0,82,110,899.625,0.208333,Sixteenth,A#5
5726,Right,0,81,110,899.75,0.208333,Sixteenth,A5
5727,Right,0,82,110,899.875,0.208333,Sixteenth,A#5
5728,Left,1,26,110,900.0,0.989583,Quarter,D2_D1
5730,Right,0,82,110,900.5,0.239583,Sixteenth,A#5
5731,Right,0,81,110,900.75,0.239583,Sixteenth,A5
5732,Left,1,27,110,901.0,0.989583,Quarter,D#2_D#1
5734,Right,0,79,110,901.0,0.239583,Sixteenth,G5
5735,Right,0,77,110,901.25,0.239583,Sixteenth,F5
5736,Right,0,75,110,901.5,0.239583,Sixteenth,D#5
5737,Right,0,74,110,901.75,0.239583,Sixteenth,D5
5738,Left,1,29,110,902.0,0.989583,Quarter,F2_F1
5740,Left,1,58,110,902.5,0.239583,Sixteenth,A#3
5741,Left,1,56,110,902.75,0.239583,Sixteenth,G#3
5742,Left,1,27,110,903.0,0.989583,Quarter,G3_D#2_D#1
5745,Left,1,53,110,903.25,0.239583,Sixteenth,F3
5746,Left,1,51,110,903.5,0.239583,Sixteenth,D#3
5747,Left,1,50,110,903.75,0.239583,Sixteenth,D3
5748,Left,1,29,110,904.0,0.989583,Quarter,F2_F1
5750,Right,0,79,110,904.5,0.239583,Sixteenth,G5
5751,Right,0,77,110,904.75,0.239583,Sixteenth,F5
5753,Right,0,75,110,905.0,0.239583,Sixteenth,D#5
5752,Left,1,31,110,905.0,0.989583,Quarter,G2_G1
5755,Right,0,74,110,905.25,0.239583,Sixteenth,D5
5756,Right,0,72,110,905.5,0.239583,Sixteenth,C5
5757,Right,0,70,110,905.75,0.239583,Sixteenth,A#4
5758,Left,1,28,110,906.0,0.989583,Quarter,E2_E1
5760,Left,1,60,110,906.5,0.239583,Sixteenth,C4
5761,Left,1,58,110,906.75,0.239583,Sixteenth,A#3
5762,Left,1,56,110,907.0,0.989583,Quarter,G#3_F2_F1
5765,Left,1,55,110,907.25,0.239583,Sixteenth,G3
5766,Left,1,53,110,907.5,0.239583,Sixteenth,F3
5767,Left,1,52,110,907.75,0.239583,Sixteenth,E3
5768,Left,1,31,110,908.0,0.989583,Quarter,G2_G1
5770,Right,0,77,110,908.5,0.239583,Sixteenth,F5
5771,Right,0,76,110,908.75,0.239583,Sixteenth,E5
5772,Right,0,73,110,909.0,0.239583,Sixteenth,C#5
5773,Left,1,29,110,909.0,0.989583,Quarter,F2_F1
5775,Right,0,72,110,909.25,0.239583,Sixteenth,C5
5776,Right,0,70,110,909.5,0.239583,Sixteenth,A#4
5777,Right,0,69,110,909.75,0.239583,Sixteenth,A4
5778,Left,1,31,110,910.0,0.989583,Quarter,G2_G1
5780,Left,1,57,110,910.5,0.239583,Sixteenth,A3
5781,Left,1,55,110,910.75,0.239583,Sixteenth,G3
5782,Left,1,33,110,911.0,0.989583,Quarter,F#3_A2_A1
5785,Left,1,51,110,911.25,0.239583,Sixteenth,D#3
5786,Left,1,50,110,911.5,0.239583,Sixteenth,D3
5787,Left,1,48,110,911.75,0.239583,Sixteenth,C3
5788,Left,1,30,110,912.0,0.989583,Quarter,F#2_F#1
5790,Right,0,86,110,912.5,0.239583,Sixteenth,D6
5791,Right,0,84,110,912.75,0.239583,Sixteenth,C6
5793,Left,1,43,110,913.0,0.989583,Quarter,G2_G1
5792,Right,0,82,110,913.0,0.239583,Sixteenth,A#5
5795,Right,0,81,110,913.25,0.239583,Sixteenth,A5
5796,Right,0,79,110,913.5,0.239583,Sixteenth,G5
5797,Right,0,78,110,913.75,0.239583,Sixteenth,F#5
5798,Left,1,45,110,914.0,0.989583,Quarter,A2_A1
5800,Right,0,62,110,914.5,0.239583,Sixteenth,D4
5801,Right,0,61,110,914.75,0.239583,Sixteenth,C#4
5804,Right,0,60,110,915.0,0.239583,Sixteenth,C4
5802,Left,1,43,110,915.0,0.989583,Quarter,G2_G1
5805,Right,0,58,110,915.25,0.239583,Sixteenth,A#3
5806,Right,0,57,110,915.5,0.239583,Sixteenth,A3
5807,Right,0,55,110,915.75,0.239583,Sixteenth,G3
5808,Left,1,33,110,916.0,0.989583,Quarter,A2_A1
5810,Right,0,75,110,916.5,0.239583,Sixteenth,D#5
5811,Right,0,74,110,916.75,0.239583,Sixteenth,D5
5813,Right,0,72,110,917.0,0.239583,Sixteenth,C5
5812,Left,1,34,110,917.0,0.239583,Sixteenth,A#1
5814,Left,1,46,110,917.25,0.239583,Sixteenth,A#2
5815,Right,0,70,110,917.25,0.239583,Sixteenth,A#4
5816,Left,1,48,110,917.5,0.239583,Sixteenth,C3
5817,Right,0,69,110,917.5,0.239583,Sixteenth,A4
5819,Right,0,67,110,917.75,0.239583,Sixteenth,G4
5818,Left,1,46,110,917.75,0.239583,Sixteenth,A#2
5820,Left,1,45,110,918.0,0.239583,Sixteenth,A2
5821,Right,0,65,110,918.0,0.239583,Sixteenth,F4
5823,Left,1,43,110,918.25,0.239583,Sixteenth,G2
5822,Right,0,64,110,918.25,0.239583,Sixteenth,E4
5826,Left,1,41,110,918.5,0.239583,Sixteenth,F2
5824,Right,0,70,110,918.5,0.489583,Eighth,D4_A#4
5827,Left,1,40,110,918.75,0.239583,Sixteenth,E2
5828,Right,0,60,110,918.75,0.239583,Sixteenth,C4
5830,Left,1,43,110,919.0,0.239583,Sixteenth,G2
5829,Right,0,58,110,919.0,0.239583,Sixteenth,A#3
5831,Left,1,41,110,919.25,0.239583,Sixteenth,F2
5832,Right,0,57,110,919.25,0.239583,Sixteenth,A3
5834,Right,0,55,110,919.5,0.239583,Sixteenth,G3
5833,Left,1,52,110,919.5,0.239583,Sixteenth,E3
5836,Right,0,53,110,919.75,0.239583,Sixteenth,F3
5835,Left,1,50,110,919.75,0.239583,Sixteenth,D3
5837,Right,0,52,110,920.0,0.239583,Sixteenth,E3
5838,Left,1,48,110,920.0,0.239583,Sixteenth,C3
5839,Right,0,50,110,920.25,0.239583,Sixteenth,D3
5840,Left,1,46,110,920.25,0.239583,Sixteenth,A#2
5842,Left,1,45,110,920.5,0.239583,Sixteenth,A2
5841,Right,0,60,110,920.5,0.239583,Sixteenth,C4
5844,Left,1,43,110,920.75,0.239583,Sixteenth,G2
5843,Right,0,58,110,920.75,0.239583,Sixteenth,A#3
5846,Right,0,57,110,921.0,0.239583,Sixteenth,A3
5845,Left,1,41,110,921.0,0.239583,Sixteenth,F2
5848,Left,1,40,110,921.25,0.239583,Sixteenth,E2
5847,Right,0,55,110,921.25,0.239583,Sixteenth,G3
5849,Left,1,38,110,921.5,0.239583,Sixteenth,D2
5850,Right,0,53,110,921.5,0.239583,Sixteenth,F3
5851,Right,0,52,110,921.75,0.239583,Sixteenth,E3
5852,Left,1,36,110,921.75,0.239583,Sixteenth,C2
5853,Right,0,50,110,922.0,0.239583,Sixteenth,D3
5854,Left,1,58,110,922.0,0.489583,Eighth,A#3
5855,Right,0,48,110,922.25,0.239583,Sixteenth,C3
5856,Right,0,52,110,922.5,0.239583,Sixteenth,E3
5857,Right,0,55,110,922.75,0.239583,Sixteenth,G3
5858,Left,1,43,110,923.0,0.208333,Sixteenth,G2
5859,Right,0,46,110,923.0,0.489583,Eighth,A#2
5860,Left,1,45,110,923.125,0.208333,Sixteenth,A2
5861,Left,1,43,110,923.25,0.208333,Sixteenth,G2
5862,Left,1,45,110,923.375,0.208333,Sixteenth,A2
5863,Left,1,43,110,923.5,0.208333,Sixteenth,G2
5864,Left,1,45,110,923.625,0.208333,Sixteenth,A2
5865,Left,1,43,110,923.75,0.208333,Sixteenth,G2
5866,Left,1,45,110,923.875,0.208333,Sixteenth,A2
5867,Left,1,43,110,924.0,0.208333,Sixteenth,G2
5868,Right,0,64,110,924.0,0.208333,Sixteenth,E4
5870,Left,1,45,110,924.125,0.208333,Sixteenth,A2
5869,Right,0,65,110,924.125,0.208333,Sixteenth,F4
5872,Left,1,43,110,924.25,0.208333,Sixteenth,G2
5871,Right,0,64,110,924.25,0.208333,Sixteenth,E4
5873,Left,1,45,110,924.375,0.208333,Sixteenth,A2
5874,Right,0,65,110,924.375,0.208333,Sixteenth,F4
5876,Left,1,43,110,924.5,0.208333,Sixteenth,G2
5875,Right,0,64,110,924.5,0.208333,Sixteenth,E4
5878,Right,0,65,110,924.625,0.208333,Sixteenth,F4
5877,Left,1,45,110,924.625,0.208333,Sixteenth,A2
5880,Right,0,64,110,924.75,0.208333,Sixteenth,E4
5879,Left,1,43,110,924.75,0.208333,Sixteenth,G2
5881,Left,1,45,110,924.875,0.208333,Sixteenth,A2
5882,Right,0,65,110,924.875,0.208333,Sixteenth,F4
5883,Left,1,41,110,925.0,0.989583,Quarter,F2
5884,Right,0,64,110,925.0,0.208333,Sixteenth,E4
5885,Right,0,65,110,925.125,0.208333,Sixteenth,F4
5886,Right,0,64,110,925.25,0.208333,Sixteenth,E4
5887,Right,0,65,110,925.375,0.208333,Sixteenth,F4
5888,Right,0,64,110,925.5,0.208333,Sixteenth,E4
5889,Right,0,65,110,925.625,0.208333,Sixteenth,F4
5890,Right,0,62,110,925.75,0.208333,Sixteenth,D4
5891,Right,0,64,110,925.875,0.208333,Sixteenth,E4
5892,Right,0,65,110,926.0,0.989583,Quarter,F4
5893,Left,1,41,110,926.5,0.239583,Sixteenth,F2
5894,Left,1,43,110,926.75,0.239583,Sixteenth,G2
5895,Left,1,45,110,927.0,0.239583,Sixteenth,A2
5896,Left,1,46,110,927.25,0.239583,Sixteenth,A#2
5897,Left,1,48,110,927.5,0.239583,Sixteenth,C3
5898,Right,0,65,110,927.5,0.239583,Sixteenth,F4
5899,Left,1,50,110,927.75,0.239583,Sixteenth,D3
5900,Right,0,64,110,927.75,0.239583,Sixteenth,E4
5902,Left,1,45,110,928.0,0.989583,Quarter,A2
5901,Right,0,62,110,928.0,0.239583,Sixteenth,D4
5903,Right,0,60,110,928.25,0.239583,Sixteenth,C4
5904,Right,0,58,110,928.5,0.239583,Sixteenth,A#3
5905,Right,0,57,110,928.75,0.239583,Sixteenth,A3
5906,Right,0,62,110,929.0,0.989583,Quarter,D4
5907,Left,1,45,110,929.5,0.239583,Sixteenth,A2
5908,Left,1,46,110,929.75,0.239583,Sixteenth,A#2
5909,Left,1,48,110,930.0,0.239583,Sixteenth,C3
5910,Left,1,50,110,930.25,0.239583,Sixteenth,D3
5911,Right,0,62,110,930.4375,0.239583,Sixteenth,D4
5912,Left,1,52,110,930.5,0.239583,Sixteenth,E3
5914,Left,1,53,110,930.75,0.239583,Sixteenth,F3
5913,Right,0,60,110,930.75,0.239583,Sixteenth,C4
5915,Left,1,48,110,931.0,0.989583,Quarter,C3
5916,Right,0,58,110,931.0,0.239583,Sixteenth,A#3
5917,Right,0,57,110,931.25,0.239583,Sixteenth,A3
5918,Right,0,55,110,931.5,0.239583,Sixteenth,G3
5919,Right,0,53,110,931.75,0.239583,Sixteenth,F3
5920,Right,0,58,110,932.0,0.989583,Quarter,A#3
5921,Left,1,48,110,932.5,0.239583,Sixteenth,C3
5922,Left,1,50,110,932.75,0.239583,Sixteenth,D3
5923,Left,1,52,110,933.0,0.239583,Sixteenth,E3
5924,Left,1,50,110,933.25,0.239583,Sixteenth,D3
5925,Right,0,70,110,933.5,0.239583,Sixteenth,A#4
5926,Left,1,52,110,933.5,0.239583,Sixteenth,E3
5928,Left,1,53,110,933.75,0.239583,Sixteenth,F3
5927,Right,0,69,110,933.75,0.239583,Sixteenth,A4
5929,Left,1,55,110,934.0,0.239583,Sixteenth,G3
5930,Right,0,67,110,934.0,0.239583,Sixteenth,G4
5931,Left,1,53,110,934.25,0.239583,Sixteenth,F3
5932,Right,0,69,110,934.25,0.239583,Sixteenth,A4
5934,Right,0,67,110,934.5,0.239583,Sixteenth,G4
5933,Left,1,55,110,934.5,0.239583,Sixteenth,G3
5936,Right,0,65,110,934.75,0.239583,Sixteenth,F4
5935,Left,1,57,110,934.75,0.239583,Sixteenth,A3
5938,Right,0,64,110,935.0,0.239583,Sixteenth,E4
5937,Left,1,58,110,935.0,0.239583,Sixteenth,A#3
5940,Right,0,65,110,935.25,0.239583,Sixteenth,F4
5939,Left,1,57,110,935.25,0.239583,Sixteenth,A3
5941,Right,0,64,110,935.5,0.239583,Sixteenth,E4
5942,Left,1,55,110,935.5,0.239583,Sixteenth,G3
5943,Left,1,57,110,935.75,0.239583,Sixteenth,A3
5944,Right,0,62,110,935.75,0.239583,Sixteenth,D4
5946,Right,0,60,110,936.0,0.239583,Sixteenth,C4
5945,Left,1,58,110,936.0,0.239583,Sixteenth,A#3
5948,Right,0,62,110,936.25,0.239583,Sixteenth,D4
5947,Left,1,57,110,936.25,0.239583,Sixteenth,A3
5950,Right,0,64,110,936.5,0.239583,Sixteenth,E4
5949,Left,1,55,110,936.5,0.239583,Sixteenth,G3
5951,Left,1,53,110,936.75,0.239583,Sixteenth,F3
5952,Right,0,65,110,936.75,0.239583,Sixteenth,F4
5953,Right,0,66,110,937.0,0.239583,Sixteenth,F#4
5954,Left,1,52,110,937.0,0.239583,Sixteenth,E3
5955,Right,0,67,110,937.25,0.239583,Sixteenth,G4
5956,Left,1,50,110,937.25,0.239583,Sixteenth,D3
5957,Right,0,69,110,937.5,0.239583,Sixteenth,A4
5958,Left,1,48,110,937.5,0.239583,Sixteenth,C3
5959,Right,0,67,110,937.75,0.239583,Sixteenth,G4
5960,Left,1,50,110,937.75,0.239583,Sixteenth,D3
5961,Right,0,65,110,938.0,0.239583,Sixteenth,F4
5962,Left,1,51,110,938.0,0.239583,Sixteenth,D#3
5963,Right,0,67,110,938.25,0.239583,Sixteenth,G4
5964,Left,1,50,110,938.25,0.239583,Sixteenth,D3
5966,Right,0,69,110,938.5,0.239583,Sixteenth,A4
5965,Left,1,48,110,938.5,0.239583,Sixteenth,C3
5967,Left,1,46,110,938.75,0.239583,Sixteenth,A#2
5968,Right,0,70,110,938.75,0.239583,Sixteenth,A#4
5970,Left,1,50,110,939.0,0.239583,Sixteenth,D3
5969,Right,0,71,110,939.0,0.239583,Sixteenth,B4
5971,Left,1,48,110,939.25,0.239583,Sixteenth,C3
5972,Right,0,72,110,939.25,0.239583,Sixteenth,C5
5973,Left,1,46,110,939.5,0.239583,Sixteenth,A#2
5974,Right,0,74,110,939.5,0.239583,Sixteenth,D5
5976,Left,1,45,110,939.75,0.239583,Sixteenth,A2
5975,Right,0,72,110,939.75,0.239583,Sixteenth,C5
5977,Right,0,74,110,940.0,0.489583,Sixteenth,D5_D#5
5979,Left,1,46,110,940.0,0.239583,Sixteenth,A#2
5980,Right,0,72,110,940.25,0.239583,Sixteenth,C5
5981,Left,1,45,110,940.25,0.239583,Sixteenth,A2
5983,Right,0,70,110,940.5,0.239583,Sixteenth,A#4
5982,Left,1,43,110,940.5,0.239583,Sixteenth,G2
5984,Left,1,41,110,940.75,0.239583,Sixteenth,F2
5985,Right,0,69,110,940.75,0.239583,Sixteenth,A4
5986,Left,1,51,110,941.0,1.989583,Half,D#3
5987,Right,0,60,110,941.0,0.208333,Sixteenth,C4
5988,Right,0,62,110,941.125,0.208333,Sixteenth,D4
5989,Right,0,60,110,941.25,0.208333,Sixteenth,C4
5990,Right,0,62,110,941.375,0.208333,Sixteenth,D4
5992,Right,0,60,110,941.5,0.208333,Sixteenth,C4
5991,Left,1,29,110,941.5,0.489583,Eighth,F1
5993,Right,0,62,110,941.625,0.208333,Sixteenth,D4
5994,Right,0,60,110,941.75,0.208333,Sixteenth,C4
5995,Right,0,62,110,941.875,0.208333,Sixteenth,D4
5996,Right,0,60,110,942.0,0.208333,Sixteenth,C4
5997,Left,1,45,110,942.0,0.208333,Sixteenth,A2
5998,Left,1,46,110,942.125,0.208333,Sixteenth,A#2
5999,Right,0,62,110,942.125,0.208333,Sixteenth,D4
6000,Right,0,60,110,942.25,0.208333,Sixteenth,C4
6001,Left,1,45,110,942.25,0.208333,Sixteenth,A2
6003,Left,1,46,110,942.375,0.208333,Sixteenth,A#2
6002,Right,0,62,110,942.375,0.208333,Sixteenth,D4
6004,Left,1,45,110,942.5,0.208333,Sixteenth,A2
6005,Right,0,60,110,942.5,0.208333,Sixteenth,C4
6006,Right,0,62,110,942.625,0.208333,Sixteenth,D4
6007,Left,1,46,110,942.625,0.208333,Sixteenth,A#2
6008,Right,0,60,110,942.75,0.208333,Sixteenth,C4
6009,Left,1,45,110,942.75,0.208333,Sixteenth,A2
6011,Left,1,46,110,942.875,0.208333,Sixteenth,A#2
6010,Right,0,62,110,942.875,0.208333,Sixteenth,D4
6012,Left,1,45,110,943.0,0.208333,Sixteenth,A2
6013,Right,0,58,110,943.0,0.989583,Quarter,A#3
6014,Left,1,46,110,943.125,0.208333,Sixteenth,A#2
6015,Left,1,45,110,943.25,0.208333,Sixteenth,A2
6016,Left,1,46,110,943.375,0.208333,Sixteenth,A#2
6017,Left,1,45,110,943.5,0.208333,Sixteenth,A2
6018,Left,1,46,110,943.625,0.208333,Sixteenth,A#2
6019,Left,1,43,110,943.75,0.208333,Sixteenth,G2
6020,Left,1,45,110,943.875,0.208333,Sixteenth,A2
6021,Left,1,46,110,944.0,0.989583,Quarter,A#2
6022,Right,0,58,110,944.5,0.239583,Sixteenth,A#3
6023,Right,0,60,110,944.75,0.239583,Sixteenth,C4
6024,Right,0,62,110,945.0,0.239583,Sixteenth,D4
6025,Right,0,63,110,945.25,0.239583,Sixteenth,D#4
6028,Left,1,46,110,945.5,0.239583,Sixteenth,A#2
6026,Right,0,62,110,945.5,0.239583,Sixteenth,F4_D4
6029,Right,0,60,110,945.75,0.239583,Sixteenth,G4_C4
6031,Left,1,45,110,945.75,0.239583,Sixteenth,A2
6032,Right,0,58,110,946.0,0.989583,Sixteenth,D#4_A#3
6034,Left,1,43,110,946.0,0.239583,Sixteenth,G2
6035,Right,0,57,110,946.25,0.239583,Sixteenth,A3
6036,Left,1,41,110,946.25,0.239583,Sixteenth,F2
6038,Left,1,39,110,946.5,0.239583,Sixteenth,D#2
6037,Right,0,55,110,946.5,0.239583,Sixteenth,G3
6040,Right,0,53,110,946.75,0.239583,Sixteenth,F3
6039,Left,1,38,110,946.75,0.239583,Sixteenth,D2
6042,Right,0,58,110,947.0,0.989583,Quarter,A#3
6041,Left,1,43,110,947.0,0.989583,Quarter,G2
6043,Right,0,62,110,947.5,0.239583,Sixteenth,D4
6044,Right,0,63,110,947.75,0.239583,Sixteenth,D#4
6045,Right,0,65,110,948.0,0.239583,Sixteenth,F4
6046,Right,0,67,110,948.25,0.239583,Sixteenth,G4
6047,Left,1,43,110,948.5,0.239583,Sixteenth,G2
6048,Right,0,69,110,948.5,0.739583,Sixteenth,A4_A#3
6050,Left,1,41,110,948.75,0.239583,Sixteenth,F2
6051,Right,0,70,110,948.75,0.239583,Sixteenth,A#4
6053,Right,0,67,110,949.0,0.989583,Quarter,G4
6052,Left,1,39,110,949.0,0.239583,Sixteenth,D#2
6054,Right,0,59,110,949.25,0.239583,Sixteenth,B3
6055,Left,1,38,110,949.25,0.239583,Sixteenth,D2
6056,Left,1,36,110,949.5,0.239583,Sixteenth,C2
6057,Right,0,60,110,949.5,0.239583,Sixteenth,C4
6059,Right,0,62,110,949.75,0.239583,Sixteenth,D4
6058,Left,1,35,110,949.75,0.239583,Sixteenth,B1
6060,Left,1,36,110,950.0,0.989583,Quarter,C2
6061,Right,0,63,110,950.0,0.989583,Quarter,D#4
6062,Right,0,65,110,950.5,0.239583,Sixteenth,F4
6063,Right,0,67,110,950.75,0.239583,Sixteenth,G4
6064,Right,0,69,110,951.0,0.239583,Sixteenth,A4
6065,Right,0,67,110,951.25,0.239583,Sixteenth,G4
6066,Right,0,69,110,951.5,0.989583,Sixteenth,D#4_A4
6067,Left,1,51,110,951.5,0.239583,Sixteenth,D#3
6069,Right,0,70,110,951.75,0.239583,Sixteenth,A#4
6070,Left,1,50,110,951.75,0.239583,Sixteenth,D3
6072,Left,1,48,110,952.0,0.239583,Sixteenth,C3
6071,Right,0,72,110,952.0,0.239583,Sixteenth,C5
6073,Right,0,70,110,952.25,0.239583,Sixteenth,A#4
6074,Left,1,50,110,952.25,0.239583,Sixteenth,D3
6076,Right,0,72,110,952.5,0.989583,Sixteenth,E4_C5
6075,Left,1,48,110,952.5,0.239583,Sixteenth,C3
6079,Left,1,46,110,952.75,0.239583,Sixteenth,A#2
6078,Right,0,74,110,952.75,0.239583,Sixteenth,D5
6081,Right,0,75,110,953.0,0.239583,Sixteenth,D#5
6080,Left,1,45,110,953.0,0.239583,Sixteenth,A2
6083,Right,0,74,110,953.25,0.239583,Sixteenth,D5
6082,Left,1,46,110,953.25,0.239583,Sixteenth,A#2
6085,Right,0,65,110,953.5,1.989583,Half,F4_C5
6084,Left,1,45,110,953.5,0.239583,Sixteenth,A2
6087,Left,1,43,110,953.75,0.239583,Sixteenth,G2
6088,Right,0,74,110,953.75,0.239583,Sixteenth,D5
6089,Right,0,75,110,954.0,0.239583,Sixteenth,D#5
6090,Left,1,41,110,954.0,0.239583,Sixteenth,F2
6092,Right,0,74,110,954.25,0.239583,Sixteenth,D5
6091,Left,1,43,110,954.25,0.239583,Sixteenth,G2
6093,Right,0,73,110,954.5,0.239583,Sixteenth,C#5
6094,Left,1,45,110,954.5,0.239583,Sixteenth,A2
6095,Right,0,72,110,954.75,0.239583,Sixteenth,C5
6096,Left,1,46,110,954.75,0.239583,Sixteenth,A#2
6097,Right,0,70,110,955.0,0.239583,Sixteenth,A#4
6098,Left,1,48,110,955.0,0.239583,Sixteenth,C3
6099,Right,0,69,110,955.25,0.239583,Sixteenth,A4
6100,Left,1,49,110,955.25,0.239583,Sixteenth,C#3
6101,Right,0,63,110,955.5,0.489583,Eighth,G4_D#4
6102,Left,1,50,110,955.5,0.239583,Sixteenth,D3
6104,Right,0,69,110,955.75,0.239583,Sixteenth,A4
6105,Left,1,48,110,955.75,0.239583,Sixteenth,C3
6106,Right,0,62,110,956.0,0.989583,Quarter,D4_A#4
6108,Left,1,46,110,956.0,0.239583,Sixteenth,A#2
6110,Left,1,48,110,956.25,0.239583,Sixteenth,C3
6109,Right,0,69,110,956.25,0.239583,Sixteenth,A4
6112,Left,1,50,110,956.5,0.239583,Sixteenth,D3
6111,Right,0,67,110,956.5,0.239583,Sixteenth,G4
6114,Left,1,51,110,956.75,0.239583,Sixteenth,D#3
6113,Right,0,65,110,956.75,0.489583,Eighth,F4
6115,Left,1,52,110,957.0,0.239583,Sixteenth,E3
6116,Right,0,60,110,957.0,0.489583,Eighth,C4
6117,Left,1,51,110,957.25,0.239583,Sixteenth,D#3
6118,Right,0,78,110,957.25,0.239583,Sixteenth,F#5
6119,Left,1,50,110,957.5,0.239583,Sixteenth,D3
6120,Right,0,79,110,957.5,0.239583,Sixteenth,G5
6121,Left,1,51,110,957.75,0.239583,Sixteenth,D#3
6122,Right,0,77,110,957.75,0.239583,Sixteenth,F5
6123,Left,1,53,110,958.0,0.239583,Sixteenth,F3
6124,Right,0,75,110,958.0,0.239583,Sixteenth,D#5
6125,Left,1,55,110,958.25,0.239583,Sixteenth,G3
6126,Right,0,74,110,958.25,0.239583,Sixteenth,D5
6127,Left,1,57,110,958.5,0.239583,Sixteenth,A3
6128,Right,0,72,110,958.5,0.239583,Sixteenth,C5
6129,Left,1,58,110,958.75,0.239583,Sixteenth,A#3
6130,Right,0,70,110,958.75,0.239583,Sixteenth,A#4
6132,Left,1,60,110,959.0,0.239583,Sixteenth,C4
6131,Right,0,69,110,959.0,0.239583,Sixteenth,A4
6133,Left,1,58,110,959.25,0.239583,Sixteenth,A#3
6134,Right,0,70,110,959.25,0.239583,Sixteenth,A#4
6136,Left,1,60,110,959.5,0.239583,Sixteenth,C4
6135,Right,0,69,110,959.5,0.239583,Sixteenth,A4
6138,Left,1,62,110,959.75,0.239583,Sixteenth,D4
6137,Right,0,67,110,959.75,0.239583,Sixteenth,G4
6140,Left,1,63,110,960.0,0.239583,Sixteenth,D#4
6139,Right,0,65,110,960.0,0.239583,Sixteenth,F4
6141,Left,1,62,110,960.25,0.239583,Sixteenth,D4
6142,Right,0,67,110,960.25,0.239583,Sixteenth,G4
6144,Left,1,61,110,960.5,0.239583,Sixteenth,C#4
6143,Right,0,69,110,960.5,0.239583,Sixteenth,A4
6146,Left,1,60,110,960.75,0.239583,Sixteenth,C4
6145,Right,0,70,110,960.75,0.239583,Sixteenth,A#4
6147,Left,1,58,110,961.0,0.239583,Sixteenth,A#3
6148,Right,0,72,110,961.0,0.239583,Sixteenth,C5
6149,Left,1,57,110,961.25,0.239583,Sixteenth,A3
6150,Right,0,73,110,961.25,0.239583,Sixteenth,C#5
6152,Left,1,55,110,961.5,0.239583,Sixteenth,G3
6151,Right,0,74,110,961.5,0.239583,Sixteenth,D5
6154,Left,1,57,110,961.75,0.239583,Sixteenth,A3
6153,Right,0,72,110,961.75,0.239583,Sixteenth,C5
6155,Left,1,58,110,962.0,0.239583,Sixteenth,A#3
6156,Right,0,70,110,962.0,0.489583,Eighth,D5_A#4
6159,Left,1,57,110,962.25,0.239583,Sixteenth,A3
6158,Right,0,76,110,962.25,0.239583,Sixteenth,E5
6160,Left,1,55,110,962.5,0.239583,Sixteenth,G3
6161,Right,0,77,110,962.5625,0.239583,Sixteenth,F5
6163,Left,1,53,110,962.75,0.239583,Sixteenth,F3
6162,Right,0,79,110,962.75,0.489583,Eighth,G5
6164,Left,1,55,110,963.0,0.989583,Sixteenth,G3_E3
6166,Left,1,57,110,963.125,0.208333,Sixteenth,A3
6167,Right,0,72,110,963.25,0.239583,Sixteenth,C5
6168,Left,1,55,110,963.25,0.208333,Sixteenth,G3
6169,Left,1,57,110,963.375,0.208333,Sixteenth,A3
6171,Right,0,74,110,963.5,0.239583,Sixteenth,D5
6170,Left,1,55,110,963.5,0.208333,Sixteenth,G3
6172,Left,1,57,110,963.625,0.208333,Sixteenth,A3
6173,Left,1,55,110,963.75,0.208333,Sixteenth,G3
6174,Right,0,76,110,963.75,0.239583,Sixteenth,E5
6175,Left,1,57,110,963.875,0.208333,Sixteenth,A3
6176,Left,1,46,110,964.0,0.989583,Quarter,G3_A#2
6178,Right,0,77,110,964.0,0.239583,Sixteenth,F5
6179,Left,1,57,110,964.125,0.208333,Sixteenth,A3
6180,Left,1,55,110,964.25,0.208333,Sixteenth,G3
6181,Right,0,79,110,964.25,0.239583,Sixteenth,G5
6182,Left,1,57,110,964.375,0.208333,Sixteenth,A3
6184,Left,1,55,110,964.5,0.208333,Sixteenth,G3
6183,Right,0,81,110,964.5,0.239583,Sixteenth,A5
6185,Left,1,57,110,964.625,0.208333,Sixteenth,A3
6186,Left,1,55,110,964.75,0.208333,Sixteenth,G3
6187,Right,0,82,110,964.75,0.239583,Sixteenth,A#5
6188,Left,1,57,110,964.875,0.208333,Sixteenth,A3
6190,Left,1,45,110,965.0,0.989583,Quarter,F3_A2
6189,Right,0,84,110,965.0,0.239583,Sixteenth,C6
6192,Right,0,81,110,965.25,0.239583,Sixteenth,A5
6193,Right,0,79,110,965.5,0.239583,Sixteenth,G5
6194,Right,0,77,110,965.75,0.239583,Sixteenth,F5
6195,Left,1,54,110,966.0,0.989583,Quarter,F#3_A3
6197,Right,0,75,110,966.0,0.239583,Sixteenth,D#5
6198,Left,1,58,110,966.125,0.208333,Sixteenth,A#3
6200,Left,1,57,110,966.25,0.208333,Sixteenth,A3
6199,Right,0,74,110,966.25,0.239583,Sixteenth,D5
6201,Left,1,58,110,966.375,0.208333,Sixteenth,A#3
6203,Left,1,57,110,966.5,0.208333,Sixteenth,A3
6202,Right,0,76,110,966.5,0.239583,Sixteenth,E5
6204,Left,1,58,110,966.625,0.208333,Sixteenth,A#3
6205,Right,0,78,110,966.75,0.239583,Sixteenth,F#5
6208,Left,1,48,110,967.0,0.989583,Quarter,C3
6207,Right,0,79,110,967.0,0.239583,Sixteenth,G5
6209,Left,1,58,110,967.0625,0.020833,TripletSixtyFourth,A#3
6210,Left,1,57,110,967.1875,0.208333,Sixteenth,A3
6211,Right,0,81,110,967.25,0.239583,Sixteenth,A5
6212,Left,1,58,110,967.3125,0.208333,Sixteenth,A#3
6214,Left,1,57,110,967.5,0.208333,Sixteenth,A3
6213,Right,0,82,110,967.5,0.239583,Sixteenth,A#5
6215,Left,1,58,110,967.625,0.208333,Sixteenth,A#3
6217,Left,1,57,110,967.75,0.208333,Sixteenth,A3
6216,Right,0,84,110,967.75,0.239583,Sixteenth,C6
6218,Left,1,58,110,967.875,0.208333,Sixteenth,A#3
6221,Right,0,86,110,968.0,0.239583,Sixteenth,D6
6219,Left,1,46,110,968.0,0.989583,Quarter,G3_A#2
6222,Right,0,82,110,968.25,0.239583,Sixteenth,A#5
6223,Right,0,81,110,968.5,0.239583,Sixteenth,A5
6224,Right,0,79,110,968.75,0.239583,Sixteenth,G5
6226,Right,0,77,110,969.0,0.239583,Sixteenth,F5
6225,Left,1,58,110,969.0,0.989583,Sixteenth,G3_A#3
6228,Left,1,60,110,969.125,0.208333,Sixteenth,C4
6229,Right,0,75,110,969.25,0.239583,Sixteenth,D#5
6230,Left,1,58,110,969.25,0.208333,Sixteenth,A#3
6231,Left,1,60,110,969.375,0.208333,Sixteenth,C4
6233,Right,0,77,110,969.5,0.239583,Sixteenth,F5
6232,Left,1,58,110,969.5,0.208333,Sixteenth,A#3
6234,Left,1,60,110,969.625,0.208333,Sixteenth,C4
6236,Right,0,79,110,969.75,0.239583,Sixteenth,G5
6235,Left,1,58,110,969.75,0.208333,Sixteenth,A#3
6237,Left,1,60,110,969.875,0.208333,Sixteenth,C4
6239,Right,0,81,110,970.0,0.239583,Sixteenth,A5
6238,Left,1,50,110,970.0,0.989583,Quarter,D3_A#3
6241,Left,1,60,110,970.125,0.208333,Sixteenth,C4
6243,Left,1,58,110,970.25,0.208333,Sixteenth,A#3
6242,Right,0,82,110,970.25,0.239583,Sixteenth,A#5
6244,Left,1,60,110,970.375,0.208333,Sixteenth,C4
6245,Left,1,58,110,970.5,0.208333,Sixteenth,A#3
6246,Right,0,84,110,970.5,0.239583,Sixteenth,C6
6247,Left,1,60,110,970.625,0.208333,Sixteenth,C4
6249,Left,1,58,110,970.75,0.208333,Sixteenth,A#3
6248,Right,0,86,110,970.75,0.239583,Sixteenth,D6
6250,Left,1,60,110,970.875,0.208333,Sixteenth,C4
6251,Left,1,57,110,971.0,0.989583,Quarter,C3_A3
6253,Right,0,87,110,971.0,0.489583,Eighth,D#6
6254,Left,1,42,110,971.5,0.739583,DottedEighth,F#2
6255,Right,0,69,110,972.0,0.989583,Quarter,C5_A4
6257,Right,0,74,110,972.125,0.208333,Sixteenth,D5
6258,Right,0,72,110,972.25,0.208333,Sixteenth,C5
6259,Left,1,43,110,972.25,0.239583,Sixteenth,G2
6260,Right,0,74,110,972.375,0.208333,Sixteenth,D5
6262,Left,1,45,110,972.5,0.239583,Sixteenth,A2
6261,Right,0,72,110,972.5,0.208333,Sixteenth,C5
6263,Right,0,74,110,972.625,0.208333,Sixteenth,D5
6264,Left,1,46,110,972.75,0.239583,Sixteenth,A#2
6265,Right,0,72,110,972.75,0.208333,Sixteenth,C5
6266,Right,0,74,110,972.875,0.208333,Sixteenth,D5
6268,Left,1,48,110,973.0,0.239583,Sixteenth,C3
6267,Right,0,72,110,973.0,0.989583,Sixteenth,D#4_C5
6270,Right,0,74,110,973.125,0.208333,Sixteenth,D5
6271,Left,1,50,110,973.25,0.239583,Sixteenth,D3
6272,Right,0,72,110,973.25,0.208333,Sixteenth,C5
6273,Right,0,74,110,973.375,0.208333,Sixteenth,D5
6274,Right,0,72,110,973.5,0.208333,Sixteenth,C5
6275,Left,1,52,110,973.5,0.239583,Sixteenth,E3
6276,Right,0,74,110,973.625,0.208333,Sixteenth,D5
6277,Right,0,72,110,973.75,0.208333,Sixteenth,C5
6278,Left,1,54,110,973.75,0.239583,Sixteenth,F#3
6279,Right,0,74,110,973.875,0.208333,Sixteenth,D5
6280,Right,0,62,110,974.0,0.989583,Eighth,D4_A#4
6282,Left,1,43,110,974.0,0.239583,Sixteenth,G2
6283,Left,1,55,110,974.25,0.239583,Sixteenth,G3
6284,Right,0,61,110,974.5,0.489583,Eighth,C#4
6285,Left,1,41,110,974.5,0.239583,Sixteenth,F2
6286,Left,1,53,110,974.75,0.239583,Sixteenth,F3
6289,Left,1,40,110,975.0,0.239583,Sixteenth,E2
6287,Right,0,67,110,975.0,0.989583,Quarter,G4_A#4
6290,Right,0,72,110,975.125,0.208333,Sixteenth,C5
6292,Left,1,41,110,975.25,0.239583,Sixteenth,F2
6291,Right,0,70,110,975.25,0.208333,Sixteenth,A#4
6293,Right,0,72,110,975.375,0.208333,Sixteenth,C5
6294,Right,0,70,110,975.5,0.208333,Sixteenth,A#4
6295,Left,1,43,110,975.5,0.239583,Sixteenth,G2
6296,Right,0,72,110,975.625,0.208333,Sixteenth,C5
6297,Right,0,70,110,975.75,0.208333,Sixteenth,A#4
6298,Left,1,45,110,975.75,0.239583,Sixteenth,A2
6299,Right,0,72,110,975.875,0.208333,Sixteenth,C5
6300,Left,1,46,110,976.0,0.239583,Sixteenth,A#2
6301,Right,0,61,110,976.0,0.989583,Quarter,C#4_A#4
6303,Right,0,72,110,976.125,0.208333,Sixteenth,C5
6304,Left,1,48,110,976.25,0.239583,Sixteenth,C3
6305,Right,0,70,110,976.25,0.208333,Sixteenth,A#4
6306,Right,0,72,110,976.375,0.208333,Sixteenth,C5
6308,Right,0,70,110,976.5,0.208333,Sixteenth,A#4
6307,Left,1,50,110,976.5,0.239583,Sixteenth,D3
6309,Right,0,72,110,976.625,0.208333,Sixteenth,C5
6311,Left,1,52,110,976.75,0.239583,Sixteenth,E3
6310,Right,0,70,110,976.75,0.208333,Sixteenth,A#4
6312,Right,0,72,110,976.875,0.208333,Sixteenth,C5
6314,Left,1,41,110,977.0,0.239583,Sixteenth,F2
6313,Right,0,69,110,977.0,0.489583,Eighth,C4_A4
6316,Left,1,53,110,977.25,0.239583,Sixteenth,F3
6319,Left,1,39,110,977.5,0.239583,Sixteenth,D#2
6317,Right,0,59,110,977.5,0.489583,Eighth,G#4_B3
6320,Left,1,51,110,977.75,0.239583,Sixteenth,D#3
6323,Left,1,38,110,978.0,0.239583,Sixteenth,D2
6321,Right,0,65,110,978.0,0.989583,Quarter,G#4_F4
6324,Right,0,70,110,978.125,0.208333,Sixteenth,A#4
6325,Left,1,39,110,978.25,0.239583,Sixteenth,D#2
6326,Right,0,68,110,978.25,0.208333,Sixteenth,G#4
6327,Right,0,70,110,978.375,0.208333,Sixteenth,A#4
6329,Left,1,41,110,978.5,0.239583,Sixteenth,F2
6328,Right,0,68,110,978.5,0.208333,Sixteenth,G#4
6330,Right,0,70,110,978.625,0.208333,Sixteenth,A#4
6332,Left,1,43,110,978.75,0.239583,Sixteenth,G2
6331,Right,0,68,110,978.75,0.208333,Sixteenth,G#4
6333,Right,0,70,110,978.875,0.208333,Sixteenth,A#4
6335,Left,1,44,110,979.0,0.239583,Sixteenth,G#2
6334,Right,0,59,110,979.0,0.989583,Quarter,G#4_B3
6337,Right,0,70,110,979.125,0.208333,Sixteenth,A#4
6338,Left,1,46,110,979.25,0.239583,Sixteenth,A#2
6339,Right,0,68,110,979.25,0.208333,Sixteenth,G#4
6340,Right,0,70,110,979.375,0.208333,Sixteenth,A#4
6341,Left,1,48,110,979.5,0.239583,Sixteenth,C3
6342,Right,0,68,110,979.5,0.208333,Sixteenth,G#4
6343,Right,0,70,110,979.625,0.208333,Sixteenth,A#4
6345,Right,0,68,110,979.75,0.208333,Sixteenth,G#4
6344,Left,1,50,110,979.75,0.239583,Sixteenth,D3
6346,Right,0,70,110,979.875,0.208333,Sixteenth,A#4
6348,Left,1,39,110,980.0,0.239583,Sixteenth,D#2
6347,Right,0,58,110,980.0,0.989583,Eighth,G4_A#3
6350,Left,1,51,110,980.25,0.239583,Sixteenth,D#3
6353,Right,0,64,110,980.5,0.489583,Eighth,E4
6351,Left,1,49,110,980.5,0.489583,Eighth,C#3_C#2
6355,Right,0,49,110,981.0,0.239583,Sixteenth,C#3
6354,Left,1,34,110,981.0,0.208333,Sixteenth,A#1
6356,Left,1,36,110,981.125,0.208333,Sixteenth,C2
6357,Left,1,34,110,981.25,0.208333,Sixteenth,A#1
6358,Right,0,48,110,981.25,0.239583,Sixteenth,C3
6359,Left,1,36,110,981.375,0.208333,Sixteenth,C2
6360,Right,0,50,110,981.5,0.239583,Sixteenth,D3
6361,Left,1,34,110,981.5,0.208333,Sixteenth,A#1
6362,Left,1,36,110,981.625,0.208333,Sixteenth,C2
6363,Right,0,52,110,981.75,0.239583,Sixteenth,E3
6364,Left,1,34,110,981.75,0.208333,Sixteenth,A#1
6365,Left,1,36,110,981.875,0.208333,Sixteenth,C2
6366,Left,1,34,110,982.0,0.208333,Sixteenth,A#1
6367,Right,0,53,110,982.0,0.239583,Sixteenth,F3
6368,Left,1,36,110,982.125,0.208333,Sixteenth,C2
6369,Left,1,34,110,982.25,0.208333,Sixteenth,A#1
6370,Right,0,55,110,982.25,0.239583,Sixteenth,G3
6371,Left,1,36,110,982.375,0.208333,Sixteenth,C2
6373,Left,1,34,110,982.5,0.208333,Sixteenth,A#1
6372,Right,0,67,110,982.5,0.489583,Eighth,G4_A3
6375,Left,1,36,110,982.625,0.208333,Sixteenth,C2
6376,Left,1,34,110,982.75,0.208333,Sixteenth,A#1
6377,Right,0,58,110,982.75,0.239583,Sixteenth,A#3
6378,Left,1,36,110,982.875,0.208333,Sixteenth,C2
6380,Left,1,33,110,983.0,0.989583,Quarter,A1
6379,Right,0,60,110,983.0,0.489583,Sixteenth,E4_C4
6382,Right,0,57,110,983.25,0.239583,Sixteenth,A3
6383,Right,0,55,110,983.5,0.489583,Sixteenth,G3_F4
6385,Right,0,53,110,983.75,0.239583,Sixteenth,F3
6387,Right,0,51,110,984.0,0.239583,Sixteenth,D#3
6386,Left,1,36,110,984.0,0.208333,Sixteenth,C2
6388,Left,1,38,110,984.125,0.208333,Sixteenth,D2
6389,Right,0,50,110,984.25,0.239583,Sixteenth,D3
6390,Left,1,36,110,984.25,0.208333,Sixteenth,C2
6391,Left,1,38,110,984.375,0.208333,Sixteenth,D2
6393,Right,0,52,110,984.5,0.239583,Sixteenth,E3
6392,Left,1,36,110,984.5,0.208333,Sixteenth,C2
6394,Left,1,38,110,984.625,0.208333,Sixteenth,D2
6396,Left,1,36,110,984.75,0.208333,Sixteenth,C2
6395,Right,0,54,110,984.75,0.239583,Sixteenth,F#3
6397,Left,1,38,110,984.875,0.208333,Sixteenth,D2
6398,Left,1,36,110,985.0,0.208333,Sixteenth,C2
6399,Right,0,55,110,985.0,0.239583,Sixteenth,G3
6400,Left,1,38,110,985.125,0.208333,Sixteenth,D2
6401,Right,0,57,110,985.25,0.239583,Sixteenth,A3
6402,Left,1,36,110,985.25,0.208333,Sixteenth,C2
6403,Left,1,38,110,985.375,0.208333,Sixteenth,D2
6404,Right,0,58,110,985.5,0.489583,Sixteenth,A4_A#3
6406,Left,1,36,110,985.5,0.208333,Sixteenth,C2
6407,Left,1,38,110,985.625,0.208333,Sixteenth,D2
6409,Right,0,60,110,985.75,0.239583,Sixteenth,C4
6408,Left,1,36,110,985.75,0.208333,Sixteenth,C2
6410,Left,1,38,110,985.875,0.208333,Sixteenth,D2
6412,Right,0,62,110,986.0,0.489583,Sixteenth,F#4_D4
6411,Left,1,34,110,986.0,0.989583,Quarter,A#1
6414,Right,0,58,110,986.25,0.239583,Sixteenth,A#3
6415,Right,0,67,110,986.5,0.489583,Eighth,G4_A3
6417,Right,0,55,110,986.75,0.239583,Sixteenth,G3
6419,Left,1,38,110,987.0,0.208333,Sixteenth,D2
6418,Right,0,53,110,987.0,0.239583,Sixteenth,F3
6420,Left,1,39,110,987.125,0.208333,Sixteenth,D#2
6422,Right,0,51,110,987.25,0.239583,Sixteenth,D#3
6421,Left,1,38,110,987.25,0.208333,Sixteenth,D2
6423,Left,1,39,110,987.375,0.208333,Sixteenth,D#2
6425,Right,0,53,110,987.5,0.239583,Sixteenth,F3
6424,Left,1,38,110,987.5,0.208333,Sixteenth,D2
6426,Left,1,39,110,987.625,0.208333,Sixteenth,D#2
6427,Right,0,55,110,987.75,0.239583,Sixteenth,G3
6428,Left,1,38,110,987.75,0.208333,Sixteenth,D2
6429,Left,1,39,110,987.875,0.208333,Sixteenth,D#2
6431,Right,0,57,110,988.0,0.239583,Sixteenth,A3
6430,Left,1,38,110,988.0,0.208333,Sixteenth,D2
6432,Left,1,39,110,988.125,0.208333,Sixteenth,D#2
6434,Right,0,58,110,988.25,0.239583,Sixteenth,A#3
6433,Left,1,38,110,988.25,0.208333,Sixteenth,D2
6435,Left,1,39,110,988.375,0.208333,Sixteenth,D#2
6437,Right,0,60,110,988.5,0.489583,Sixteenth,C4_A#4
6436,Left,1,38,110,988.5,0.208333,Sixteenth,D2
6439,Left,1,39,110,988.625,0.208333,Sixteenth,D#2
6441,Right,0,62,110,988.75,0.239583,Sixteenth,D4
6440,Left,1,38,110,988.75,0.208333,Sixteenth,D2
6442,Left,1,39,110,988.875,0.208333,Sixteenth,D#2
6444,Right,0,63,110,989.0,0.489583,Sixteenth,G4_D#4
6443,Left,1,36,110,989.0,0.989583,Quarter,C2
6446,Right,0,60,110,989.25,0.239583,Sixteenth,C4
6447,Right,0,69,110,989.5,0.489583,Eighth,A4_A#3
6449,Right,0,57,110,989.75,0.239583,Sixteenth,A3
6450,Right,0,72,110,990.0,0.489583,Eighth,C5_A4
6452,Left,1,39,110,990.0,0.208333,Sixteenth,D#2
6453,Left,1,41,110,990.125,0.208333,Sixteenth,F2
6454,Right,0,65,110,990.25,0.239583,Sixteenth,F4
6455,Left,1,39,110,990.25,0.208333,Sixteenth,D#2
6456,Left,1,41,110,990.375,0.208333,Sixteenth,F2
6457,Right,0,67,110,990.5,0.989583,Sixteenth,G4_F5
6459,Left,1,39,110,990.5,0.208333,Sixteenth,D#2
6460,Left,1,41,110,990.625,0.208333,Sixteenth,F2
6461,Right,0,69,110,990.75,0.239583,Sixteenth,A4
6462,Left,1,39,110,990.75,0.208333,Sixteenth,D#2
6463,Left,1,41,110,990.875,0.208333,Sixteenth,F2
6465,Right,0,70,110,991.0,0.239583,Sixteenth,A#4
6464,Left,1,38,110,991.0,0.989583,Quarter,D2
6466,Right,0,69,110,991.25,0.239583,Sixteenth,A4
6467,Right,0,70,110,991.5,0.489583,Sixteenth,D5_A#4
6469,Right,0,65,110,991.75,0.239583,Sixteenth,F4
6470,Left,1,40,110,992.0,0.489583,Eighth,E2
6471,Right,0,67,110,992.0,0.489583,Sixteenth,G4_C5
6473,Right,0,65,110,992.25,0.239583,Sixteenth,F4
6474,Left,1,52,110,992.5,0.489583,Eighth,E3
6475,Right,0,67,110,992.5,0.489583,Sixteenth,G4_A#4
6477,Right,0,60,110,992.75,0.489583,Eighth,C4
6479,Left,1,53,110,993.0,2.989583,DottedHalf,F3
6478,Right,0,69,110,993.0,0.489583,Eighth,A4
6480,Left,1,63,110,993.25,0.239583,Sixteenth,D#4
6482,Left,1,62,110,993.5,0.239583,Sixteenth,D4
6481,Right,0,68,110,993.5,0.489583,Eighth,G#4
6483,Left,1,60,110,993.75,0.239583,Sixteenth,C4
6484,Left,1,59,110,994.0,0.239583,Sixteenth,B3
6485,Right,0,67,110,994.0,1.489583,Sixteenth,G5_G4
6488,Left,1,60,110,994.25,0.239583,Sixteenth,C4
6487,Right,0,69,110,994.25,0.239583,Sixteenth,A4
6489,Left,1,62,110,994.5,0.239583,Sixteenth,D4
6490,Right,0,71,110,994.5,0.239583,Sixteenth,B4
6492,Left,1,63,110,994.75,0.239583,Sixteenth,D#4
6491,Right,0,72,110,994.75,0.239583,Sixteenth,C5
6493,Left,1,64,110,995.0,0.239583,Sixteenth,E4
6494,Right,0,73,110,995.0,0.239583,Sixteenth,C#5
6495,Left,1,65,110,995.25,0.239583,Sixteenth,F4
6496,Right,0,74,110,995.25,0.239583,Sixteenth,D5
6497,Left,1,67,110,995.5,0.239583,Sixteenth,G4
6498,Right,0,77,110,995.5,0.489583,Eighth,F5_D#5
6500,Left,1,65,110,995.75,0.239583,Sixteenth,F4
6501,Right,0,74,110,995.75,0.239583,Sixteenth,D5
6502,Left,1,60,110,996.0,2.989583,Sixteenth,F3_C4
6504,Right,0,77,110,996.0,0.489583,Eighth,F5
6505,Left,1,62,110,996.25,0.239583,Sixteenth,D4
6507,Left,1,63,110,996.5,0.239583,Sixteenth,D#4
6506,Right,0,75,110,996.5,0.489583,Eighth,D#5
6508,Left,1,65,110,996.75,0.239583,Sixteenth,F4
6509,Left,1,66,110,997.0,0.239583,Sixteenth,F#4
6510,Right,0,74,110,997.0,0.489583,Eighth,D5
6511,Left,1,67,110,997.25,0.239583,Sixteenth,G4
6513,Left,1,68,110,997.5,0.239583,Sixteenth,G#4
6512,Right,0,72,110,997.5,0.489583,Eighth,C5
6514,Left,1,67,110,997.75,0.239583,Sixteenth,G4
6516,Left,1,65,110,998.0,0.239583,Sixteenth,F4
6515,Right,0,71,110,998.0,0.489583,Eighth,B4
6517,Left,1,63,110,998.25,0.239583,Sixteenth,D#4
6518,Left,1,62,110,998.5,0.239583,Sixteenth,D4
6519,Right,0,72,110,998.5,0.489583,Eighth,C5
6520,Left,1,63,110,998.75,0.239583,Sixteenth,D#4
6523,Left,1,53,110,999.0,2.989583,DottedHalf,F3_C4
6521,Right,0,77,110,999.0,0.489583,Eighth,F5_A4
6526,Right,0,70,110,999.25,0.239583,Sixteenth,A#4
6525,Left,1,62,110,999.25,0.239583,Sixteenth,D4
6527,Left,1,60,110,999.5,0.239583,Sixteenth,C4
6528,Right,0,69,110,999.5,0.239583,Sixteenth,A4
6530,Right,0,67,110,999.75,0.239583,Sixteenth,G4
6529,Left,1,58,110,999.75,0.239583,Sixteenth,A#3
6532,Left,1,57,110,1000.0,0.239583,Sixteenth,A3
6531,Right,0,75,127,1000.0,1.489583,DottedQuarter,F4_D#5
6534,Right,0,67,110,1000.25,0.239583,Sixteenth,G4
6535,Left,1,58,110,1000.25,0.239583,Sixteenth,A#3
6537,Left,1,60,110,1000.5,0.239583,Sixteenth,C4
6536,Right,0,69,110,1000.5,0.239583,Sixteenth,A4
6539,Left,1,62,110,1000.75,0.239583,Sixteenth,D4
6538,Right,0,70,110,1000.75,0.239583,Sixteenth,A#4
6541,Right,0,71,110,1001.0,0.239583,Sixteenth,B4
6540,Left,1,63,110,1001.0,0.239583,Sixteenth,D#4
6542,Left,1,64,110,1001.25,0.239583,Sixteenth,E4
6543,Right,0,72,110,1001.25,0.239583,Sixteenth,C5
6545,Left,1,65,110,1001.5,0.239583,Sixteenth,F4
6544,Right,0,74,110,1001.5,0.489583,Sixteenth,D5_D#5
6547,Left,1,63,110,1001.75,0.239583,Sixteenth,D#4
6548,Right,0,72,110,1001.75,0.239583,Sixteenth,C5
6551,Right,0,75,110,1002.0,0.489583,Eighth,D#5
6549,Left,1,53,110,1002.0,2.489583,Half,F3_A#3
6552,Left,1,60,110,1002.25,0.239583,Sixteenth,C4
6554,Right,0,74,110,1002.5,0.489583,Eighth,D5
6553,Left,1,62,110,1002.5,0.239583,Sixteenth,D4
6555,Left,1,63,110,1002.75,0.239583,Sixteenth,D#4
6557,Left,1,64,110,1003.0,0.239583,Sixteenth,E4
6556,Right,0,72,110,1003.0,0.489583,Eighth,C5
6558,Left,1,65,110,1003.25,0.239583,Sixteenth,F4
6560,Left,1,67,110,1003.5,0.239583,Sixteenth,G4
6559,Right,0,70,110,1003.5,0.489583,Eighth,A#4
6561,Left,1,65,110,1003.75,0.239583,Sixteenth,F4
6562,Right,0,69,110,1004.0,0.489583,Eighth,A4
6563,Left,1,63,110,1004.0,0.239583,Sixteenth,D#4
6564,Left,1,62,110,1004.25,0.239583,Sixteenth,D4
6565,Right,0,70,110,1004.5,0.489583,Eighth,A#4
6566,Left,1,54,110,1004.5,0.489583,Eighth,F#3_C4
6568,Left,1,58,110,1004.75,0.239583,Sixteenth,A#3
6569,Right,0,59,110,1005.0,0.239583,Sixteenth,B3
6570,Left,1,55,110,1005.0,0.489583,Eighth,G3_G2
6572,Right,0,60,110,1005.25,0.239583,Sixteenth,C4
6573,Right,0,59,110,1005.5,0.239583,Sixteenth,B3
6574,Right,0,57,110,1005.75,0.239583,Sixteenth,A3
6577,Right,0,55,110,1006.0,0.239583,Sixteenth,G3
6575,Left,1,53,125,1006.0,1.489583,DottedQuarter,F3_F2
6578,Right,0,57,110,1006.25,0.239583,Sixteenth,A3
6579,Right,0,59,110,1006.5,0.239583,Sixteenth,B3
6580,Right,0,60,110,1006.75,0.239583,Sixteenth,C4
6581,Right,0,61,110,1007.0,0.239583,Sixteenth,C#4
6582,Right,0,62,110,1007.25,0.239583,Sixteenth,D4
6584,Right,0,63,110,1007.5,0.239583,Sixteenth,D#4
6583,Left,1,41,110,1007.5,0.489583,Eighth,F3_F2
6586,Right,0,62,110,1007.75,0.239583,Sixteenth,D4
6588,Right,0,72,110,1008.0,0.489583,Eighth,C5_C4
6587,Left,1,53,110,1008.0,0.489583,Eighth,F3_F2
6591,Right,0,62,110,1008.25,0.239583,Sixteenth,D4
6592,Left,1,52,110,1008.5,0.489583,Eighth,E3_E2
6594,Right,0,64,110,1008.5,0.239583,Sixteenth,E4
6595,Right,0,65,110,1008.75,0.239583,Sixteenth,F4
6597,Left,1,49,110,1009.0,0.489583,Eighth,C#3_C#2
6596,Right,0,70,127,1009.0,1.489583,DottedQuarter,F#4_A#4
6600,Right,0,67,110,1009.25,0.239583,Sixteenth,G4
6603,Right,0,68,110,1009.5,0.239583,Sixteenth,G#4
6601,Left,1,36,110,1009.5,0.489583,Eighth,C3_C2
6604,Right,0,67,110,1009.75,0.239583,Sixteenth,G4
6605,Right,0,65,110,1010.0,0.239583,Sixteenth,F4
6606,Left,1,35,110,1010.0,0.489583,Eighth,B2_B1
6608,Right,0,63,110,1010.25,0.239583,Sixteenth,D#4
6609,Right,0,70,110,1010.5,0.489583,Eighth,C#4_A#4
6611,Left,1,36,110,1010.5,0.489583,Eighth,C3_C2
6613,Right,0,60,110,1010.75,0.239583,Sixteenth,C4
6616,Right,0,69,110,1011.0,0.239583,Sixteenth,A4
6614,Left,1,41,110,1011.0,0.489583,Eighth,F3_F2
6617,Right,0,70,110,1011.25,0.239583,Sixteenth,A#4
6618,Right,0,69,110,1011.5,0.239583,Sixteenth,A4
6619,Right,0,67,110,1011.75,0.239583,Sixteenth,G4
6622,Right,0,65,110,1012.0,0.239583,Sixteenth,F4
6620,Left,1,39,125,1012.0,1.489583,DottedQuarter,D#3_D#2
6623,Right,0,67,110,1012.25,0.239583,Sixteenth,G4
6624,Right,0,69,110,1012.5,0.239583,Sixteenth,A4
6625,Right,0,70,110,1012.75,0.239583,Sixteenth,A#4
6626,Right,0,71,110,1013.0,0.239583,Sixteenth,B4
6627,Right,0,72,110,1013.25,0.239583,Sixteenth,C5
6628,Left,1,51,110,1013.5,0.489583,Eighth,D#3_D#2
6630,Right,0,74,110,1013.5,0.239583,Sixteenth,D5
6631,Right,0,72,110,1013.75,0.239583,Sixteenth,C5
6634,Right,0,70,110,1014.0,0.239583,Sixteenth,A#4
6632,Left,1,39,110,1014.0,0.489583,Eighth,D#3_D#2
6635,Right,0,72,110,1014.25,0.239583,Sixteenth,C5
6636,Left,1,38,110,1014.5,0.489583,Eighth,D3_D2
6638,Right,0,74,110,1014.5,0.239583,Sixteenth,D5
6639,Right,0,75,110,1014.75,0.239583,Sixteenth,D#5
6640,Right,0,76,110,1015.0,0.239583,Sixteenth,E5
6641,Left,1,36,110,1015.0,0.489583,Eighth,C3_C2
6643,Right,0,77,110,1015.25,0.239583,Sixteenth,F5
6645,Left,1,46,110,1015.5,0.489583,Eighth,A#2_A#1
6644,Right,0,79,110,1015.5,0.239583,Sixteenth,G5
6647,Right,0,77,110,1015.75,0.239583,Sixteenth,F5
6649,Left,1,67,110,1016.0,0.489583,Eighth,G4
6648,Right,0,71,110,1016.0,0.239583,Sixteenth,B4
6650,Right,0,74,110,1016.25,0.239583,Sixteenth,D5
6651,Right,0,75,110,1016.5,0.239583,Sixteenth,D#5
6652,Left,1,65,110,1016.5,0.489583,Eighth,F4
6653,Right,0,77,110,1016.75,0.239583,Sixteenth,F5
6655,Right,0,71,110,1017.0,0.239583,Sixteenth,B4
6654,Left,1,65,110,1017.0,0.489583,Eighth,F4
6656,Right,0,72,110,1017.25,0.239583,Sixteenth,C5
6658,Left,1,63,110,1017.5,0.489583,Eighth,D#4
6657,Right,0,74,110,1017.5,0.239583,Sixteenth,D5
6659,Right,0,72,110,1017.75,0.239583,Sixteenth,C5
6660,Right,0,74,110,1018.0,0.239583,Sixteenth,D5
6661,Left,1,62,110,1018.0,0.489583,Eighth,D4
6662,Right,0,75,110,1018.25,0.239583,Sixteenth,D#5
6664,Right,0,77,110,1018.5,0.239583,Sixteenth,F5
6663,Left,1,60,110,1018.5,0.489583,Eighth,C4
6665,Right,0,75,110,1018.75,0.239583,Sixteenth,D#5
6666,Left,1,53,110,1019.0,0.489583,Eighth,F3_F2
6668,Right,0,69,110,1019.0,0.239583,Sixteenth,A4
6669,Right,0,72,110,1019.25,0.239583,Sixteenth,C5
6672,Right,0,74,110,1019.5,0.239583,Sixteenth,D5
6670,Left,1,39,110,1019.5,0.489583,Eighth,D#3_D#2
6673,Right,0,75,110,1019.75,0.239583,Sixteenth,D#5
6676,Right,0,76,110,1020.0,0.239583,Sixteenth,E5
6674,Left,1,51,110,1020.0,0.489583,Eighth,D#3_D#2
6677,Right,0,77,110,1020.25,0.239583,Sixteenth,F5
6678,Right,0,79,110,1020.5,0.239583,Sixteenth,G5
6679,Left,1,38,110,1020.5,0.489583,Eighth,D3_D2
6681,Right,0,77,110,1020.75,0.239583,Sixteenth,F5
6682,Right,0,81,110,1021.0,0.239583,Sixteenth,A5
6683,Left,1,36,110,1021.0,0.489583,Eighth,C3_C2
6685,Right,0,82,110,1021.25,0.239583,Sixteenth,A#5
6686,Right,0,84,110,1021.5,0.239583,Sixteenth,C6
6687,Left,1,34,110,1021.5,0.489583,Eighth,A#2_A#1
6689,Right,0,82,110,1021.75,0.239583,Sixteenth,A#5
6691,Left,1,75,110,1022.0,0.489583,Eighth,D#5
6690,Right,0,78,110,1022.0,0.239583,Sixteenth,F#5
6692,Right,0,79,110,1022.25,0.239583,Sixteenth,G5
6693,Left,1,74,110,1022.5,0.489583,Eighth,D5
6694,Right,0,81,110,1022.5,0.239583,Sixteenth,A5
6695,Right,0,79,110,1022.75,0.239583,Sixteenth,G5
6697,Left,1,74,110,1023.0,0.489583,Eighth,D5
6696,Right,0,80,110,1023.0,0.239583,Sixteenth,G#5
6698,Right,0,81,110,1023.25,0.239583,Sixteenth,A5
6699,Right,0,82,110,1023.5,0.239583,Sixteenth,A#5
6700,Left,1,72,110,1023.5,0.489583,Eighth,C5
6701,Right,0,81,110,1023.75,0.239583,Sixteenth,A5
6702,Left,1,70,110,1024.0,0.489583,Eighth,A#4
6703,Right,0,83,110,1024.0,0.239583,Sixteenth,B5
6704,Right,0,84,110,1024.25,0.239583,Sixteenth,C6
6705,Right,0,86,110,1024.5,0.239583,Sixteenth,D6
6706,Left,1,69,110,1024.5,0.489583,Eighth,A4
6707,Right,0,84,110,1024.75,0.239583,Sixteenth,C6
6709,Right,0,76,110,1025.0,0.239583,Sixteenth,E5
6708,Left,1,74,110,1025.0,0.489583,Eighth,D5
6710,Right,0,78,110,1025.25,0.239583,Sixteenth,F#5
6712,Right,0,79,110,1025.5,0.239583,Sixteenth,G5
6711,Left,1,72,110,1025.5,0.489583,Eighth,C5
6713,Right,0,78,110,1025.75,0.239583,Sixteenth,F#5
6715,Left,1,72,110,1026.0,0.489583,Eighth,C5
6714,Right,0,79,110,1026.0,0.239583,Sixteenth,G5
6716,Right,0,80,110,1026.25,0.239583,Sixteenth,G#5
6718,Right,0,81,110,1026.5,0.239583,Sixteenth,A5
6717,Left,1,70,110,1026.5,0.489583,Eighth,A#4
6719,Right,0,79,110,1026.75,0.239583,Sixteenth,G5
6720,Right,0,82,110,1027.0,0.239583,Sixteenth,A#5
6721,Left,1,74,110,1027.0,0.489583,Eighth,D5
6722,Right,0,83,110,1027.25,0.239583,Sixteenth,B5
6723,Right,0,84,110,1027.5,0.239583,Sixteenth,C6
6724,Left,1,75,110,1027.5,0.489583,Eighth,D#5
6725,Right,0,82,110,1027.75,0.239583,Sixteenth,A#5
6726,Right,0,80,110,1028.0,0.239583,Sixteenth,G#5
6727,Left,1,74,110,1028.0,0.489583,Eighth,D5
6728,Right,0,81,110,1028.25,0.239583,Sixteenth,A5
6729,Left,1,72,110,1028.5,0.489583,Eighth,C5
6730,Right,0,82,110,1028.5,0.239583,Sixteenth,A#5
6731,Right,0,81,110,1028.75,0.239583,Sixteenth,A5
6733,Right,0,85,110,1029.0,0.239583,Sixteenth,C#6
6732,Left,1,76,110,1029.0,0.489583,Eighth,E5
6734,Right,0,86,110,1029.25,0.239583,Sixteenth,D6
6735,Left,1,77,110,1029.5,0.489583,Eighth,F5
6736,Right,0,87,110,1029.5,0.239583,Sixteenth,D#6
6737,Right,0,86,110,1029.75,0.239583,Sixteenth,D6
6738,Right,0,83,110,1030.0,0.239583,Sixteenth,B5
6739,Left,1,75,110,1030.0,0.489583,Eighth,D#5
6740,Right,0,84,110,1030.25,0.239583,Sixteenth,C6
6741,Right,0,86,110,1030.5,0.239583,Sixteenth,D6
6742,Left,1,74,110,1030.5,0.489583,Eighth,D5
6743,Right,0,82,110,1030.75,0.239583,Sixteenth,A#5
6744,Left,1,54,110,1031.0,0.489583,Eighth,F#3_F#2
6746,Right,0,73,110,1031.0,0.239583,Sixteenth,C#5
6747,Right,0,74,110,1031.25,0.239583,Sixteenth,D5
6748,Left,1,55,110,1031.5,0.489583,Eighth,G3_G2
6750,Right,0,72,110,1031.5,0.239583,Sixteenth,C5
6751,Right,0,70,110,1031.75,0.239583,Sixteenth,A#4
6754,Left,1,53,110,1032.0,0.489583,Eighth,F3_F2
6752,Right,0,69,110,1032.0,0.489583,Sixteenth,B4_A4
6756,Right,0,62,110,1032.25,0.239583,Sixteenth,D4
6759,Left,1,52,110,1032.5,0.489583,Eighth,E3_E2
6757,Right,0,67,110,1032.5,0.489583,Sixteenth,G4_C5
6761,Right,0,64,111,1032.75,0.239583,Sixteenth,E4
6762,Right,0,62,111,1033.0,0.489583,Sixteenth,D4_A#4
6764,Left,1,55,111,1033.0,0.489583,Eighth,G3_G2
6766,Right,0,63,112,1033.25,0.239583,Sixteenth,D#4
6768,Left,1,45,112,1033.5,0.489583,Eighth,A3_A2
6767,Right,0,69,112,1033.5,0.489583,Eighth,C#4_A4
6771,Right,0,62,113,1033.75,0.239583,Sixteenth,D4
6772,Left,1,43,113,1034.0,0.489583,Eighth,G3_G2
6774,Right,0,73,113,1034.0,0.489583,Eighth,C#5_A#4
6776,Right,0,63,113,1034.25,0.239583,Sixteenth,D#4
6779,Right,0,69,114,1034.5,0.489583,Sixteenth,D5_A4
6777,Left,1,42,114,1034.5,0.489583,Eighth,F#3_F#2
6781,Right,0,66,114,1034.75,0.239583,Sixteenth,F#4
6784,Left,1,57,115,1035.0,0.489583,Eighth,A3_A2
6782,Right,0,63,115,1035.0,0.489583,Sixteenth,D#4_C5
6786,Right,0,66,115,1035.25,0.239583,Sixteenth,F#4
6787,Right,0,62,116,1035.5,0.489583,Sixteenth,D4_A#4
6788,Left,1,58,116,1035.5,0.489583,Eighth,A#3_A#2
6791,Right,0,67,116,1035.75,0.239583,Sixteenth,G4
6793,Left,1,42,116,1036.0,0.489583,Eighth,F#3_F#2
6792,Right,0,70,116,1036.0,0.489583,Sixteenth,D#5_A#4
6796,Right,0,69,117,1036.25,0.239583,Sixteenth,A4
6799,Right,0,76,117,1036.5,0.489583,Eighth,E5_A#4
6797,Left,1,43,117,1036.5,0.489583,Eighth,G3_G2
6801,Right,0,67,118,1036.75,0.239583,Sixteenth,G4
6802,Left,1,39,118,1037.0,0.489583,Eighth,D#3_D#2
6804,Right,0,73,118,1037.0,0.489583,Sixteenth,F#5_C#5
6806,Right,0,72,119,1037.25,0.239583,Sixteenth,C5
6807,Right,0,73,119,1037.5,0.489583,Sixteenth,G5_C#5
6808,Left,1,40,119,1037.5,0.489583,Eighth,E3_E2
6811,Right,0,70,119,1037.75,0.239583,Sixteenth,A#4
6812,Right,0,70,125,1038.0,0.489583,Eighth,G4_E4_A#4
6815,Left,1,58,125,1038.0,0.489583,Eighth,C#4_A#3
6817,Right,0,88,110,1039.0,1.989583,Half,E6_C#6_A#5
6818,Left,1,43,110,1039.0,1.989583,Sixteenth,G2_A#2
6822,Right,0,89,110,1039.125,0.208333,Sixteenth,F6
6823,Left,1,45,110,1039.125,0.239583,Sixteenth,A2
6825,Left,1,43,110,1039.25,0.239583,Sixteenth,G2
6824,Right,0,88,110,1039.25,0.208333,Sixteenth,E6
6827,Right,0,89,110,1039.375,0.208333,Sixteenth,F6
6826,Left,1,45,110,1039.375,0.239583,Sixteenth,A2
6828,Right,0,88,110,1039.5,0.208333,Sixteenth,E6
6829,Left,1,43,110,1039.5,0.239583,Sixteenth,G2
6831,Left,1,45,110,1039.625,0.239583,Sixteenth,A2
6830,Right,0,89,110,1039.625,0.208333,Sixteenth,F6
6832,Right,0,88,110,1039.75,0.208333,Sixteenth,E6
6833,Left,1,43,110,1039.75,0.239583,Sixteenth,G2
6834,Right,0,89,110,1039.875,0.208333,Sixteenth,F6
6835,Left,1,45,110,1039.875,0.239583,Sixteenth,A2
6836,Right,0,88,110,1040.0,0.208333,Sixteenth,E6
6837,Left,1,43,110,1040.0,0.239583,Sixteenth,G2
6839,Left,1,45,110,1040.125,0.239583,Sixteenth,A2
6838,Right,0,89,110,1040.125,0.208333,Sixteenth,F6
6841,Right,0,88,110,1040.25,0.208333,Sixteenth,E6
6840,Left,1,43,110,1040.25,0.239583,Sixteenth,G2
6842,Left,1,45,110,1040.375,0.239583,Sixteenth,A2
6843,Right,0,89,110,1040.375,0.208333,Sixteenth,F6
6845,Right,0,88,110,1040.5,0.208333,Sixteenth,E6
6844,Left,1,43,110,1040.5,0.239583,Sixteenth,G2
6846,Right,0,89,110,1040.625,0.208333,Sixteenth,F6
6847,Left,1,45,110,1040.625,0.239583,Sixteenth,A2
6849,Left,1,41,110,1040.75,0.239583,Sixteenth,F2
6848,Right,0,86,110,1040.75,0.208333,Sixteenth,D6
6851,Left,1,43,110,1040.875,0.114583,ThirtySecond,G2
6850,Right,0,88,110,1040.875,0.208333,Sixteenth,E6
6852,Right,0,91,110,1041.0,0.989583,Quarter,G6
6853,Right,0,58,90,1041.5,0.489583,Eighth,A#3
6854,Right,0,76,90,1042.0,0.208333,Sixteenth,E5
6855,Right,0,77,90,1042.125,0.208333,Sixteenth,F5
6856,Right,0,76,90,1042.25,0.208333,Sixteenth,E5
6857,Right,0,77,90,1042.375,0.208333,Sixteenth,F5
6858,Left,1,91,90,1042.5,0.239583,Sixteenth,G6
6859,Right,0,76,90,1042.5,0.208333,Sixteenth,E5
6860,Right,0,77,90,1042.625,0.208333,Sixteenth,F5
6862,Left,1,89,90,1042.75,0.239583,Sixteenth,F6
6861,Right,0,76,90,1042.75,0.208333,Sixteenth,E5
6863,Right,0,77,90,1042.875,0.208333,Sixteenth,F5
6864,Right,0,76,90,1043.0,0.208333,Sixteenth,E5
6865,Left,1,88,90,1043.0,0.239583,Sixteenth,E6
6866,Right,0,77,90,1043.125,0.208333,Sixteenth,F5
6868,Right,0,76,90,1043.25,0.208333,Sixteenth,E5
6867,Left,1,85,90,1043.25,0.239583,Sixteenth,C#6
6869,Right,0,77,90,1043.375,0.208333,Sixteenth,F5
6871,Right,0,76,90,1043.5,0.208333,Sixteenth,E5
6870,Left,1,84,90,1043.5,0.239583,Sixteenth,C6
6872,Right,0,77,90,1043.625,0.208333,Sixteenth,F5
6873,Right,0,74,90,1043.75,0.208333,Sixteenth,D5
6874,Left,1,82,90,1043.75,0.239583,Sixteenth,A#5
6875,Right,0,76,90,1043.875,0.208333,Sixteenth,E5
6876,Right,0,77,90,1044.0,0.989583,Quarter,F5
6877,Right,0,81,90,1044.5,0.489583,Eighth,A5
6878,Right,0,93,90,1045.0,0.489583,Eighth,A6
6880,Right,0,64,90,1045.5,0.489583,Eighth,E4
6879,Left,1,77,90,1045.5,0.239583,Sixteenth,F5
6881,Left,1,76,90,1045.75,0.239583,Sixteenth,E5
6882,Right,0,65,90,1046.0,0.489583,Eighth,F4
6883,Left,1,74,90,1046.0,0.239583,Sixteenth,D5
6884,Left,1,72,90,1046.25,0.239583,Sixteenth,C5
6885,Left,1,70,90,1046.5,0.239583,Sixteenth,A#4
6886,Left,1,69,90,1046.75,0.239583,Sixteenth,A4
6887,Right,0,74,90,1047.0,0.989583,Quarter,D5
6888,Right,0,77,90,1047.5,0.489583,Eighth,F5
6889,Right,0,89,90,1048.0,0.489583,Eighth,F6
6891,Left,1,74,90,1048.5,0.239583,Sixteenth,D5
6890,Right,0,61,90,1048.5,0.489583,Eighth,C#4
6892,Left,1,72,90,1048.75,0.239583,Sixteenth,C5
6894,Left,1,70,90,1049.0,0.239583,Sixteenth,A#4
6893,Right,0,62,90,1049.0,0.489583,Eighth,D4
6895,Left,1,69,90,1049.25,0.239583,Sixteenth,A4
6896,Left,1,67,90,1049.5,0.239583,Sixteenth,G4
6897,Left,1,65,90,1049.75,0.239583,Sixteenth,F4
6898,Right,0,70,90,1050.0,0.989583,Quarter,A#4
6899,Right,0,74,90,1050.5,0.489583,Eighth,D5
6900,Right,0,86,90,1051.0,0.489583,Eighth,D6
6902,Right,0,84,90,1051.5,0.489583,Eighth,C6
6901,Left,1,70,90,1051.5,0.239583,Sixteenth,A#4
6903,Left,1,69,90,1051.75,0.239583,Sixteenth,A4
6904,Right,0,82,90,1052.0,0.489583,Eighth,A#5
6905,Left,1,67,90,1052.0,0.239583,Sixteenth,G4
6906,Left,1,69,90,1052.25,0.239583,Sixteenth,A4
6908,Right,0,83,90,1052.5,0.489583,Eighth,B5
6907,Left,1,67,90,1052.5,0.239583,Sixteenth,G4
6909,Left,1,65,90,1052.75,0.239583,Sixteenth,F4
6911,Right,0,84,90,1053.0,0.489583,Eighth,C6
6910,Left,1,64,90,1053.0,0.239583,Sixteenth,E4
6912,Left,1,65,90,1053.25,0.239583,Sixteenth,F4
6913,Left,1,64,90,1053.5,0.239583,Sixteenth,E4
6914,Left,1,62,90,1053.75,0.239583,Sixteenth,D4
6916,Left,1,60,90,1054.0,0.239583,Sixteenth,C4
6915,Right,0,82,90,1054.0,1.489583,DottedQuarter,A#5
6917,Left,1,62,90,1054.25,0.239583,Sixteenth,D4
6918,Left,1,64,90,1054.5,0.239583,Sixteenth,E4
6919,Left,1,65,90,1054.75,0.239583,Sixteenth,F4
6920,Left,1,66,90,1055.0,0.239583,Sixteenth,F#4
6921,Left,1,67,90,1055.25,0.239583,Sixteenth,G4
6923,Right,0,82,90,1055.5,0.489583,Eighth,A#5
6922,Left,1,69,90,1055.5,0.239583,Sixteenth,A4
6924,Left,1,67,90,1055.75,0.239583,Sixteenth,G4
6925,Right,0,77,90,1056.0,0.239583,Sixteenth,F5
6926,Left,1,70,90,1056.0,0.489583,Eighth,A#4
6927,Right,0,79,90,1056.25,0.239583,Sixteenth,G5
6928,Right,0,81,90,1056.5,0.239583,Sixteenth,A5
6929,Right,0,82,90,1056.75,0.239583,Sixteenth,A#5
6930,Right,0,83,90,1057.0,0.239583,Sixteenth,B5
6931,Left,1,69,90,1057.0,1.489583,DottedQuarter,A4
6932,Right,0,84,90,1057.25,0.239583,Sixteenth,C6
6933,Right,0,86,90,1057.5,0.239583,Sixteenth,D6
6934,Right,0,84,90,1057.75,0.239583,Sixteenth,C6
6935,Right,0,82,90,1058.0,0.239583,Sixteenth,A#5
6936,Right,0,81,90,1058.25,0.239583,Sixteenth,A5
6937,Right,0,79,90,1058.5,0.239583,Sixteenth,G5
6938,Left,1,69,90,1058.5,0.489583,Eighth,A4
6939,Right,0,77,90,1058.75,0.239583,Sixteenth,F5
6941,Right,0,86,90,1059.0,0.489583,Eighth,D6
6940,Left,1,66,90,1059.0,0.239583,Sixteenth,F#4
6942,Left,1,67,90,1059.25,0.239583,Sixteenth,G4
6943,Left,1,66,90,1059.5,0.239583,Sixteenth,F#4
6944,Left,1,64,90,1059.75,0.239583,Sixteenth,E4
6946,Right,0,84,90,1060.0,1.489583,DottedQuarter,C6
6945,Left,1,62,90,1060.0,0.239583,Sixteenth,D4
6947,Left,1,64,90,1060.25,0.239583,Sixteenth,E4
6948,Left,1,66,90,1060.5,0.239583,Sixteenth,F#4
6949,Left,1,67,90,1060.75,0.239583,Sixteenth,G4
6950,Left,1,68,90,1061.0,0.239583,Sixteenth,G#4
6951,Left,1,69,90,1061.25,0.239583,Sixteenth,A4
6952,Left,1,70,90,1061.5,0.239583,Sixteenth,A#4
6953,Right,0,84,90,1061.5,0.489583,Eighth,C6
6954,Left,1,69,90,1061.75,0.239583,Sixteenth,A4
6955,Left,1,72,90,1062.0,0.489583,Eighth,C5
6956,Right,0,79,90,1062.0,0.239583,Sixteenth,G5
6957,Right,0,81,90,1062.25,0.239583,Sixteenth,A5
6958,Right,0,82,90,1062.5,0.239583,Sixteenth,A#5
6959,Right,0,84,90,1062.75,0.239583,Sixteenth,C6
6960,Left,1,70,90,1063.0,1.489583,DottedQuarter,A#4
6961,Right,0,85,90,1063.0,0.239583,Sixteenth,C#6
6962,Right,0,86,90,1063.25,0.239583,Sixteenth,D6
6963,Right,0,87,90,1063.5,0.239583,Sixteenth,D#6
6964,Right,0,86,90,1063.75,0.239583,Sixteenth,D6
6965,Right,0,84,90,1064.0,0.239583,Sixteenth,C6
6966,Right,0,82,90,1064.25,0.239583,Sixteenth,A#5
6967,Left,1,70,90,1064.5,0.489583,Eighth,A#4
6968,Right,0,81,90,1064.5,0.239583,Sixteenth,A5
6969,Right,0,79,90,1064.75,0.239583,Sixteenth,G5
6971,Right,0,89,90,1065.0,0.489583,Eighth,F6
6970,Left,1,69,90,1065.0,0.239583,Sixteenth,A4
6972,Left,1,70,90,1065.25,0.239583,Sixteenth,A#4
6973,Left,1,69,90,1065.5,0.239583,Sixteenth,A4
6974,Left,1,67,90,1065.75,0.239583,Sixteenth,G4
6975,Left,1,65,90,1066.0,0.239583,Sixteenth,F4
6976,Right,0,87,90,1066.0,1.489583,DottedQuarter,D#6
6977,Left,1,67,90,1066.25,0.239583,Sixteenth,G4
6978,Left,1,69,90,1066.5,0.239583,Sixteenth,A4
6979,Left,1,70,90,1066.75,0.239583,Sixteenth,A#4
6980,Left,1,71,90,1067.0,0.239583,Sixteenth,B4
6981,Left,1,72,90,1067.25,0.239583,Sixteenth,C5
6982,Right,0,87,90,1067.5,0.489583,Eighth,D#6
6983,Left,1,74,90,1067.5,0.239583,Sixteenth,D5
6984,Left,1,72,90,1067.75,0.239583,Sixteenth,C5
6985,Right,0,82,90,1068.0,0.239583,Sixteenth,A#5
6986,Left,1,75,90,1068.0,0.489583,Eighth,D#5
6987,Right,0,84,90,1068.25,0.239583,Sixteenth,C6
6988,Right,0,86,91,1068.5,0.239583,Sixteenth,D6
6989,Right,0,87,92,1068.75,0.239583,Sixteenth,D#6
6990,Right,0,88,93,1069.0,0.239583,Sixteenth,E6
6991,Left,1,74,93,1069.0,1.489583,DottedQuarter,D5
6992,Right,0,89,94,1069.25,0.239583,Sixteenth,F6
6993,Right,0,91,95,1069.5,0.239583,Sixteenth,G6
6994,Right,0,89,96,1069.75,0.239583,Sixteenth,F6
6995,Right,0,88,96,1070.0,0.239583,Sixteenth,E6
6996,Right,0,89,97,1070.25,0.239583,Sixteenth,F6
6998,Left,1,75,98,1070.5,0.239583,Sixteenth,D#5
6997,Right,0,90,98,1070.5,0.239583,Sixteenth,F#6
7000,Left,1,73,99,1070.75,0.239583,Sixteenth,C#5
6999,Right,0,89,99,1070.75,0.239583,Sixteenth,F6
7002,Left,1,71,100,1071.0,0.239583,Sixteenth,B4
7001,Right,0,86,100,1071.0,0.239583,Sixteenth,D6
7004,Left,1,72,101,1071.25,0.239583,Sixteenth,C5
7003,Right,0,87,101,1071.25,0.239583,Sixteenth,D#6
7005,Left,1,73,102,1071.5,0.239583,Sixteenth,C#5
7006,Right,0,89,102,1071.5,0.239583,Sixteenth,F6
7008,Left,1,72,103,1071.75,0.239583,Sixteenth,C5
7007,Right,0,87,103,1071.75,0.239583,Sixteenth,D#6
7010,Left,1,69,103,1072.0,0.239583,Sixteenth,A4
7009,Right,0,84,103,1072.0,0.239583,Sixteenth,C6
7011,Left,1,70,104,1072.25,0.239583,Sixteenth,A#4
7012,Right,0,85,104,1072.25,0.239583,Sixteenth,C#6
7013,Left,1,72,105,1072.5,0.239583,Sixteenth,C5
7014,Right,0,87,105,1072.5,0.239583,Sixteenth,D#6
7015,Left,1,70,106,1072.75,0.239583,Sixteenth,A#4
7016,Right,0,85,106,1072.75,0.239583,Sixteenth,C#6
7017,Left,1,68,107,1073.0,0.239583,Sixteenth,G#4
7018,Right,0,83,107,1073.0,0.239583,Sixteenth,B5
7019,Left,1,69,108,1073.25,0.239583,Sixteenth,A4
7020,Right,0,84,108,1073.25,0.239583,Sixteenth,C6
7021,Left,1,70,109,1073.5,0.239583,Sixteenth,A#4
7022,Right,0,85,109,1073.5,0.239583,Sixteenth,C#6
7023,Right,0,84,109,1073.75,0.239583,Sixteenth,C6
7024,Left,1,69,109,1073.75,0.239583,Sixteenth,A4
7026,Left,1,29,110,1074.0,0.489583,Eighth,F1
7025,Right,0,75,110,1074.0,0.489583,Eighth,D#5
7027,Right,0,90,110,1074.5,0.489583,Eighth,F#6
7029,Left,1,45,110,1075.0,0.208333,Sixteenth,A2
7028,Right,0,77,110,1075.0,2.489583,Half,F5_F#4_C5
7032,Left,1,46,110,1075.125,0.208333,Sixteenth,A#2
7033,Right,0,75,110,1075.25,0.239583,Sixteenth,D#5
7034,Left,1,45,110,1075.25,0.208333,Sixteenth,A2
7035,Left,1,46,110,1075.375,0.208333,Sixteenth,A#2
7037,Left,1,45,110,1075.5,0.208333,Sixteenth,A2
7036,Right,0,77,110,1075.5,0.239583,Sixteenth,F5
7038,Left,1,46,110,1075.625,0.208333,Sixteenth,A#2
7039,Right,0,75,110,1075.75,0.239583,Sixteenth,D#5
7040,Left,1,45,110,1075.75,0.208333,Sixteenth,A2
7041,Left,1,46,110,1075.875,0.208333,Sixteenth,A#2
7042,Left,1,45,110,1076.0,0.208333,Sixteenth,A2
7043,Right,0,77,110,1076.0,0.239583,Sixteenth,F5
7044,Left,1,46,110,1076.125,0.208333,Sixteenth,A#2
7045,Right,0,75,110,1076.25,0.239583,Sixteenth,D#5
7046,Left,1,45,110,1076.25,0.208333,Sixteenth,A2
7047,Left,1,46,110,1076.375,0.208333,Sixteenth,A#2
7048,Right,0,74,110,1076.5,0.239583,Sixteenth,D5
7049,Left,1,45,110,1076.5,0.208333,Sixteenth,A2
7050,Left,1,46,110,1076.625,0.208333,Sixteenth,A#2
7051,Right,0,75,110,1076.75,0.239583,Sixteenth,D#5
7052,Left,1,43,110,1076.75,0.208333,Sixteenth,G2
7053,Left,1,45,110,1076.875,0.208333,Sixteenth,A2
7054,Left,1,46,110,1077.0,0.989583,Quarter,A#2
7055,Right,0,70,110,1077.0,0.989583,Quarter,D5_A#4
7057,Right,0,65,110,1077.5,0.489583,Eighth,F4_A#3
7059,Right,0,70,110,1078.0,0.489583,Eighth,A#4
7061,Left,1,46,110,1078.5,0.239583,Sixteenth,A#2
7060,Right,0,74,110,1078.5,0.239583,Sixteenth,D5
7063,Left,1,45,110,1078.75,0.239583,Sixteenth,A2
7062,Right,0,75,110,1078.75,0.239583,Sixteenth,D#5
7065,Left,1,43,110,1079.0,0.239583,Sixteenth,G2
7064,Right,0,77,110,1079.0,0.239583,Sixteenth,F5
7066,Left,1,41,110,1079.25,0.239583,Sixteenth,F2
7067,Right,0,79,110,1079.25,0.239583,Sixteenth,G5
7068,Left,1,39,110,1079.5,0.239583,Sixteenth,D#2
7069,Right,0,81,110,1079.5,0.239583,Sixteenth,A5
7071,Right,0,82,110,1079.75,0.239583,Sixteenth,A#5
7070,Left,1,38,110,1079.75,0.239583,Sixteenth,D2
7073,Right,0,77,110,1080.0,0.989583,Quarter,F5
7072,Left,1,41,110,1080.0,0.989583,Quarter,F2
7074,Right,0,62,110,1080.5,0.489583,Eighth,D4
7075,Right,0,74,110,1081.0,0.489583,Eighth,D5
7077,Right,0,77,110,1081.5,0.239583,Sixteenth,F5
7076,Left,1,43,110,1081.5,0.239583,Sixteenth,G2
7078,Right,0,79,110,1081.75,0.239583,Sixteenth,G5
7079,Left,1,41,110,1081.75,0.239583,Sixteenth,F2
7081,Right,0,81,110,1082.0,0.239583,Sixteenth,A5
7080,Left,1,39,110,1082.0,0.239583,Sixteenth,D#2
7082,Right,0,82,110,1082.25,0.239583,Sixteenth,A#5
7083,Left,1,38,110,1082.25,0.239583,Sixteenth,D2
7084,Right,0,84,110,1082.5,0.239583,Sixteenth,C6
7085,Left,1,36,110,1082.5,0.239583,Sixteenth,C2
7086,Right,0,86,110,1082.75,0.239583,Sixteenth,D6
7087,Left,1,34,110,1082.75,0.239583,Sixteenth,A#1
7088,Left,1,39,110,1083.0,0.989583,Quarter,D#2
7089,Right,0,79,110,1083.0,0.989583,Quarter,G5
7090,Right,0,63,110,1083.5,0.489583,Eighth,D#4
7091,Right,0,75,110,1084.0,0.489583,Eighth,D#5
7093,Right,0,79,110,1084.5,0.239583,Sixteenth,G5
7092,Left,1,39,110,1084.5,0.239583,Sixteenth,D#2
7094,Left,1,38,110,1084.75,0.239583,Sixteenth,D2
7095,Right,0,81,110,1084.75,0.239583,Sixteenth,A5
7096,Left,1,36,110,1085.0,0.239583,Sixteenth,C2
7097,Right,0,82,110,1085.0,0.239583,Sixteenth,A#5
7099,Left,1,38,110,1085.25,0.239583,Sixteenth,D2
7098,Right,0,83,110,1085.25,0.239583,Sixteenth,B5
7100,Left,1,36,110,1085.5,0.239583,Sixteenth,C2
7101,Right,0,84,110,1085.5,0.239583,Sixteenth,C6
7103,Right,0,86,110,1085.75,0.239583,Sixteenth,D6
7102,Left,1,34,110,1085.75,0.239583,Sixteenth,A#1
7105,Right,0,87,110,1086.0,0.489583,Eighth,D#6
7104,Left,1,33,110,1086.0,0.489583,Eighth,A1
7106,Right,0,88,110,1086.5,0.739583,DottedEighth,E6
7107,Left,1,45,110,1086.5,0.239583,Sixteenth,A2
7108,Left,1,43,110,1086.75,0.239583,Sixteenth,G2
7109,Left,1,53,110,1087.0,0.489583,Eighth,F3_F2
7111,Right,0,89,110,1087.25,0.239583,Sixteenth,F6
7112,Right,0,87,110,1087.5,0.239583,Sixteenth,D#6
7113,Right,0,86,110,1087.75,0.239583,Sixteenth,D6
7114,Right,0,69,110,1088.0,0.239583,Sixteenth,C6_A4
7116,Right,0,70,110,1088.125,0.208333,Sixteenth,A#4
7117,Right,0,82,110,1088.25,0.239583,Sixteenth,A4_A#5
7119,Right,0,70,110,1088.375,0.208333,Sixteenth,A#4
7120,Right,0,81,110,1088.5,0.239583,Sixteenth,A5_A4
7122,Right,0,70,110,1088.625,0.208333,Sixteenth,A#4
7123,Right,0,69,110,1088.75,0.239583,Sixteenth,G5_A4
7125,Right,0,70,110,1088.875,0.208333,Sixteenth,A#4
7126,Right,0,69,110,1089.0,0.239583,Sixteenth,F5_A4
7128,Right,0,70,110,1089.125,0.208333,Sixteenth,A#4
7129,Right,0,69,110,1089.25,0.239583,Sixteenth,G5_A4
7131,Right,0,70,110,1089.375,0.208333,Sixteenth,A#4
7132,Right,0,69,110,1089.5,0.239583,Sixteenth,F5_A4
7134,Right,0,70,110,1089.625,0.208333,Sixteenth,A#4
7135,Right,0,75,110,1089.75,0.239583,Sixteenth,G4_D#5
7137,Right,0,69,110,1089.875,0.208333,Sixteenth,A4
7138,Right,0,74,110,1090.0,0.989583,Sixteenth,D5_A#4
7140,Right,0,75,110,1090.25,0.239583,Sixteenth,D#5
7142,Left,1,46,110,1090.5,0.489583,Eighth,A#2
7141,Right,0,77,110,1090.5,0.239583,Sixteenth,F5
7143,Right,0,76,110,1090.75,0.239583,Sixteenth,E5
7145,Right,0,77,110,1091.0,0.489583,Eighth,F5
7144,Left,1,62,110,1091.0,0.208333,Sixteenth,D4
7146,Left,1,63,110,1091.125,0.208333,Sixteenth,D#4
7147,Left,1,62,110,1091.25,0.208333,Sixteenth,D4
7148,Left,1,63,110,1091.375,0.208333,Sixteenth,D#4
7149,Right,0,70,110,1091.5,0.239583,Sixteenth,A#4
7150,Right,0,69,110,1091.75,0.239583,Sixteenth,A4
7151,Right,0,67,110,1092.0,0.239583,Sixteenth,G4
7152,Right,0,65,110,1092.25,0.239583,Sixteenth,F4
7153,Right,0,63,110,1092.5,0.239583,Sixteenth,D#4
7154,Right,0,62,110,1092.75,0.239583,Sixteenth,D4
7155,Right,0,67,110,1093.0,0.989583,Quarter,G4_B3
7157,Right,0,75,110,1094.0,0.208333,Sixteenth,D#5
7158,Right,0,77,110,1094.125,0.208333,Sixteenth,F5
7159,Right,0,75,110,1094.25,0.208333,Sixteenth,D#5
7160,Right,0,77,110,1094.375,0.208333,Sixteenth,F5
7161,Right,0,75,110,1094.5,0.239583,Sixteenth,G4_D#5
7163,Right,0,77,110,1094.625,0.208333,Sixteenth,F5
7164,Right,0,75,110,1094.75,0.239583,Sixteenth,F4_D#5
7166,Right,0,77,110,1094.875,0.208333,Sixteenth,F5
7167,Right,0,75,110,1095.0,0.239583,Sixteenth,D#5_D#4
7169,Right,0,77,110,1095.125,0.208333,Sixteenth,F5
7170,Right,0,75,110,1095.25,0.239583,Sixteenth,D4_D#5
7172,Right,0,77,110,1095.375,0.208333,Sixteenth,F5
7173,Right,0,60,110,1095.5,0.239583,Sixteenth,D#5_C4
7175,Right,0,77,110,1095.625,0.208333,Sixteenth,F5
7176,Right,0,58,110,1095.75,0.239583,Sixteenth,D5_A#3
7178,Right,0,75,110,1095.875,0.208333,Sixteenth,D#5
7179,Right,0,63,110,1096.0,0.989583,Quarter,G5_D#4
7181,Left,1,51,110,1096.5,0.489583,Eighth,D#3
7182,Left,1,60,110,1097.0,0.208333,Sixteenth,C4
7183,Left,1,62,110,1097.125,0.208333,Sixteenth,D4
7184,Left,1,60,110,1097.25,0.208333,Sixteenth,C4
7185,Left,1,62,110,1097.375,0.208333,Sixteenth,D4
7186,Right,0,79,110,1097.5,0.239583,Sixteenth,G5_D#4
7188,Right,0,77,110,1097.75,0.239583,Sixteenth,F5_D4
7190,Right,0,75,110,1098.0,0.239583,Sixteenth,D#5_C4
7192,Right,0,74,110,1098.25,0.239583,Sixteenth,D5_B3
7194,Right,0,72,110,1098.5,0.239583,Sixteenth,C5_A3
7196,Right,0,71,110,1098.75,0.239583,Sixteenth,G3_B4
7198,Right,0,63,110,1099.0,0.989583,Quarter,D#4_C5
7200,Left,1,36,110,1099.0,0.489583,Eighth,C2
7202,Left,1,52,110,1100.0,0.208333,Sixteenth,E3
7201,Right,0,67,110,1100.0,0.989583,Quarter,G4
7203,Left,1,53,110,1100.125,0.208333,Sixteenth,F3
7204,Left,1,52,110,1100.25,0.208333,Sixteenth,E3
7205,Left,1,53,110,1100.375,0.208333,Sixteenth,F3
7206,Left,1,52,110,1100.5,0.208333,Sixteenth,E3
7207,Right,0,72,110,1100.5,0.239583,Sixteenth,C5
7208,Left,1,53,110,1100.625,0.208333,Sixteenth,F3
7209,Left,1,52,110,1100.75,0.208333,Sixteenth,E3
7210,Right,0,70,110,1100.75,0.239583,Sixteenth,A#4
7211,Left,1,53,110,1100.875,0.208333,Sixteenth,F3
7212,Left,1,52,110,1101.0,0.208333,Sixteenth,E3
7213,Right,0,69,110,1101.0,0.989583,Sixteenth,C4_A4
7215,Left,1,53,110,1101.125,0.208333,Sixteenth,F3
7216,Right,0,67,110,1101.25,0.239583,Sixteenth,G4
7217,Left,1,52,110,1101.25,0.208333,Sixteenth,E3
7218,Left,1,53,110,1101.375,0.208333,Sixteenth,F3
7219,Right,0,65,110,1101.5,0.239583,Sixteenth,F4
7220,Left,1,52,110,1101.5,0.208333,Sixteenth,E3
7221,Left,1,53,110,1101.625,0.208333,Sixteenth,F3
7223,Left,1,50,110,1101.75,0.208333,Sixteenth,D3
7222,Right,0,64,110,1101.75,0.239583,Sixteenth,E4
7224,Left,1,52,110,1101.875,0.208333,Sixteenth,E3
7225,Right,0,62,110,1102.0,0.239583,Sixteenth,D4
7226,Left,1,53,110,1102.0,0.989583,Quarter,F3
7227,Right,0,60,110,1102.25,0.239583,Sixteenth,C4
7228,Right,0,58,110,1102.5,0.239583,Sixteenth,A#3
7229,Right,0,57,110,1102.75,0.239583,Sixteenth,A3
7230,Right,0,69,110,1103.0,0.489583,Eighth,A4
7231,Left,1,53,110,1103.5,0.239583,Sixteenth,F3
7232,Right,0,62,110,1103.5,0.239583,Sixteenth,D4
7233,Left,1,52,110,1103.75,0.239583,Sixteenth,E3
7234,Right,0,60,110,1103.75,0.239583,Sixteenth,C4
7236,Right,0,58,110,1104.0,0.239583,Sixteenth,A#3
7235,Left,1,50,110,1104.0,0.239583,Sixteenth,D3
7237,Left,1,48,110,1104.25,0.239583,Sixteenth,C3
7238,Right,0,57,110,1104.25,0.239583,Sixteenth,A3
7239,Right,0,55,110,1104.5,0.239583,Sixteenth,G3
7240,Left,1,46,110,1104.5,0.239583,Sixteenth,A#2
7242,Left,1,45,110,1104.75,0.239583,Sixteenth,A2
7241,Right,0,53,110,1104.75,0.239583,Sixteenth,F3
7244,Right,0,52,110,1105.0,0.239583,Sixteenth,E3
7243,Left,1,55,110,1105.0,0.989583,Quarter,G3
7245,Right,0,50,110,1105.25,0.239583,Sixteenth,D3
7246,Right,0,48,110,1105.5,0.239583,Sixteenth,C3
7247,Right,0,46,110,1105.75,0.239583,Sixteenth,A#2
7248,Right,0,58,110,1106.0,0.489583,Eighth,A#3
7250,Left,1,55,110,1106.5,0.239583,Sixteenth,G3
7249,Right,0,75,110,1106.5,0.239583,Sixteenth,D#5
7251,Left,1,53,110,1106.75,0.239583,Sixteenth,F3
7252,Right,0,74,110,1106.75,0.239583,Sixteenth,D5
7254,Left,1,51,110,1107.0,0.239583,Sixteenth,D#3
7253,Right,0,72,110,1107.0,0.239583,Sixteenth,C5
7255,Left,1,50,110,1107.25,0.239583,Sixteenth,D3
7256,Right,0,70,110,1107.25,0.239583,Sixteenth,A#4
7257,Left,1,48,110,1107.5,0.239583,Sixteenth,C3
7258,Right,0,69,110,1107.5,0.239583,Sixteenth,A4
7259,Left,1,46,110,1107.75,0.239583,Sixteenth,A#2
7260,Right,0,67,110,1107.75,0.239583,Sixteenth,G4
7261,Left,1,57,110,1108.0,0.989583,Quarter,A3
7262,Right,0,65,110,1108.0,0.239583,Sixteenth,F4
7263,Right,0,63,110,1108.25,0.239583,Sixteenth,D#4
7264,Right,0,62,110,1108.5,0.239583,Sixteenth,D4
7265,Right,0,60,110,1108.75,0.239583,Sixteenth,C4
7266,Right,0,72,110,1109.0,0.489583,Eighth,C5
7268,Right,0,60,110,1109.5,0.239583,Sixteenth,C4
7267,Left,1,57,110,1109.5,0.239583,Sixteenth,A3
7269,Right,0,58,110,1109.75,0.239583,Sixteenth,A#3
7270,Left,1,55,110,1109.75,0.239583,Sixteenth,G3
7271,Left,1,53,110,1110.0,0.239583,Sixteenth,F3_A3
7273,Left,1,51,110,1110.25,0.239583,Sixteenth,G3_D#3
7275,Left,1,53,110,1110.5,0.239583,Sixteenth,F3_D3
7277,Left,1,48,110,1110.75,0.239583,Sixteenth,D#3_C3
7279,Left,1,46,110,1111.0,0.239583,Sixteenth,D3_A#2
7281,Left,1,60,110,1111.25,0.239583,Sixteenth,C4_A3
7283,Left,1,58,110,1111.5,0.239583,Sixteenth,G3_A#3
7285,Left,1,57,110,1111.75,0.239583,Sixteenth,F3_A3
7287,Left,1,58,110,1112.0,0.239583,Sixteenth,A#3
7288,Right,0,74,110,1112.0,0.489583,Sixteenth,D5_D4
7290,Left,1,57,110,1112.25,0.239583,Sixteenth,A3
7291,Right,0,72,110,1112.25,0.239583,Sixteenth,C5
7292,Right,0,77,110,1112.5,0.239583,Sixteenth,F5
7293,Left,1,62,110,1112.5,0.239583,Sixteenth,D4
7294,Left,1,60,110,1112.75,0.239583,Sixteenth,C4
7295,Right,0,75,110,1112.75,0.239583,Sixteenth,D#5
7296,Left,1,58,110,1113.0,0.239583,Sixteenth,A#3
7297,Right,0,74,110,1113.0,0.239583,Sixteenth,D5
7298,Left,1,57,110,1113.25,0.239583,Sixteenth,A3
7299,Right,0,72,110,1113.25,0.239583,Sixteenth,C5
7300,Right,0,70,110,1113.5,0.239583,Sixteenth,A#4
7301,Left,1,55,110,1113.5,0.239583,Sixteenth,G3
7303,Right,0,69,110,1113.75,0.239583,Sixteenth,A4
7302,Left,1,53,110,1113.75,0.239583,Sixteenth,F3
7304,Left,1,51,110,1114.0,0.239583,Sixteenth,D#3
7305,Right,0,79,110,1114.0,0.239583,Sixteenth,G5
7307,Left,1,50,110,1114.25,0.239583,Sixteenth,D3
7306,Right,0,77,110,1114.25,0.239583,Sixteenth,F5
7308,Left,1,48,110,1114.5,0.239583,Sixteenth,C3
7309,Right,0,75,110,1114.5,0.239583,Sixteenth,D#5
7310,Left,1,46,110,1114.75,0.239583,Sixteenth,A#2
7311,Right,0,74,110,1114.75,0.239583,Sixteenth,D5
7314,Left,1,43,110,1115.0,0.239583,Sixteenth,G2
7312,Right,0,82,110,1115.0,0.989583,Sixteenth,D5_A#5
7316,Right,0,81,110,1115.25,0.239583,Sixteenth,A5
7315,Left,1,45,110,1115.25,0.239583,Sixteenth,A2
7318,Left,1,46,110,1115.5,0.239583,Sixteenth,A#2
7317,Right,0,79,110,1115.5,0.239583,Sixteenth,G5
7319,Right,0,77,110,1115.75,0.239583,Sixteenth,F5
7320,Left,1,47,110,1115.75,0.239583,Sixteenth,B2
7323,Left,1,48,110,1116.0,0.239583,Sixteenth,C3
7321,Right,0,67,110,1116.0,0.489583,Eighth,G4_D#5
7324,Left,1,50,110,1116.25,0.239583,Sixteenth,D3
7325,Left,1,51,110,1116.5,0.239583,Sixteenth,D#3
7326,Right,0,72,110,1116.5,0.489583,Eighth,C5
7327,Left,1,50,110,1116.75,0.239583,Sixteenth,D3
7328,Left,1,48,110,1117.0,0.239583,Sixteenth,C3
7329,Right,0,93,120,1117.0,0.208333,Sixteenth,A6
7330,Right,0,94,120,1117.125,0.208333,Sixteenth,A#6
7331,Left,1,46,110,1117.25,0.239583,Sixteenth,A#2
7332,Right,0,93,120,1117.25,0.208333,Sixteenth,A6
7333,Right,0,94,120,1117.375,0.208333,Sixteenth,A#6
7336,Left,1,45,110,1117.5,0.239583,Sixteenth,A2
7334,Right,0,72,108,1117.5,0.489583,Eighth,C5_A6
7337,Right,0,94,120,1117.625,0.208333,Sixteenth,A#6
7338,Left,1,43,110,1117.75,0.239583,Sixteenth,G2
7339,Right,0,93,120,1117.75,0.208333,Sixteenth,A6
7340,Right,0,94,120,1117.875,0.208333,Sixteenth,A#6
7342,Right,0,93,120,1118.0,0.208333,Sixteenth,A6
7341,Left,1,41,110,1118.0,0.239583,Sixteenth,F2
7343,Right,0,94,120,1118.125,0.208333,Sixteenth,A#6
7344,Left,1,39,110,1118.25,0.239583,Sixteenth,D#2
7345,Right,0,93,120,1118.25,0.208333,Sixteenth,A6
7346,Right,0,94,120,1118.375,0.208333,Sixteenth,A#6
7347,Left,1,38,110,1118.5,0.239583,Sixteenth,D2
7348,Right,0,77,108,1118.5,0.489583,Eighth,F5_A6
7350,Right,0,94,120,1118.625,0.208333,Sixteenth,A#6
7352,Left,1,36,110,1118.75,0.239583,Sixteenth,C2
7351,Right,0,91,120,1118.75,0.208333,Sixteenth,G6
7353,Right,0,93,120,1118.875,0.208333,Sixteenth,A6
7354,Right,0,94,120,1119.0,0.989583,Quarter,A#6
7355,Left,1,34,110,1119.0,0.489583,Eighth,A#1
7356,Right,0,74,110,1119.5,0.489583,Eighth,D5
7357,Left,1,50,110,1120.0,0.208333,Sixteenth,D3
7358,Left,1,51,110,1120.125,0.208333,Sixteenth,D#3
7359,Left,1,50,110,1120.25,0.208333,Sixteenth,D3
7360,Left,1,51,110,1120.375,0.208333,Sixteenth,D#3
7362,Right,0,94,110,1120.5,0.239583,Sixteenth,A#6
7361,Left,1,50,110,1120.5,0.208333,Sixteenth,D3
7363,Left,1,51,110,1120.625,0.208333,Sixteenth,D#3
7365,Right,0,93,110,1120.75,0.239583,Sixteenth,A6
7364,Left,1,50,110,1120.75,0.208333,Sixteenth,D3
7366,Left,1,51,110,1120.875,0.208333,Sixteenth,D#3
7367,Right,0,91,110,1121.0,0.239583,Sixteenth,G6
7368,Left,1,50,110,1121.0,0.208333,Sixteenth,D3
7369,Left,1,51,110,1121.125,0.208333,Sixteenth,D#3
7370,Right,0,89,110,1121.25,0.239583,Sixteenth,F6
7371,Left,1,50,110,1121.25,0.208333,Sixteenth,D3
7372,Left,1,51,110,1121.375,0.208333,Sixteenth,D#3
7373,Right,0,87,110,1121.5,0.239583,Sixteenth,D#6
7374,Left,1,50,110,1121.5,0.208333,Sixteenth,D3
7375,Left,1,51,110,1121.625,0.208333,Sixteenth,D#3
7376,Right,0,86,110,1121.75,0.239583,Sixteenth,D6
7377,Left,1,48,110,1121.75,0.208333,Sixteenth,C3
7378,Left,1,50,110,1121.875,0.208333,Sixteenth,D3
7379,Right,0,91,110,1122.0,0.489583,Eighth,G6
7380,Left,1,63,110,1122.0,0.489583,Eighth,D#4_D#3
7382,Right,0,67,110,1122.5,0.489583,Eighth,G4
7383,Right,0,67,110,1123.0,0.208333,Sixteenth,G4
7384,Right,0,69,110,1123.125,0.208333,Sixteenth,A4
7385,Right,0,67,110,1123.25,0.208333,Sixteenth,G4
7386,Right,0,69,110,1123.375,0.208333,Sixteenth,A4
7387,Right,0,91,110,1123.5,0.239583,Sixteenth,G6_G4
7389,Right,0,69,110,1123.625,0.208333,Sixteenth,A4
7390,Right,0,89,110,1123.75,0.239583,Sixteenth,G4_F6
7392,Right,0,69,110,1123.875,0.208333,Sixteenth,A4
7393,Right,0,67,110,1124.0,0.239583,Sixteenth,G4_D#6
7395,Right,0,69,110,1124.125,0.208333,Sixteenth,A4
7396,Right,0,86,110,1124.25,0.239583,Sixteenth,D6
7398,Right,0,84,110,1124.5,0.239583,Sixteenth,C6
7399,Right,0,69,110,1124.5625,0.020833,TripletSixtyFourth,A4
7400,Right,0,67,110,1124.6875,0.208333,Sixteenth,G4
7401,Right,0,82,110,1124.75,0.239583,Sixteenth,A#5
7402,Right,0,69,110,1124.8125,0.208333,Sixteenth,A4
7403,Right,0,67,110,1125.0,0.989583,Eighth,G4_D#6
7405,Right,0,68,110,1125.5,0.489583,Eighth,G#4
7406,Right,0,69,110,1126.0,0.489583,Eighth,A4
7407,Right,0,87,110,1126.5,0.239583,Sixteenth,D#6
7408,Left,1,52,110,1126.5,0.489583,Eighth,E3
7409,Right,0,86,110,1126.75,0.239583,Sixteenth,D6
7410,Right,0,84,110,1127.0,0.239583,Sixteenth,C6
7411,Left,1,53,110,1127.0,0.989583,Quarter,F3
7412,Right,0,86,110,1127.25,0.239583,Sixteenth,D6
7413,Right,0,84,110,1127.5,0.239583,Sixteenth,C6
7414,Left,1,64,110,1127.5,0.489583,Eighth,E4
7415,Right,0,82,110,1127.75,0.239583,Sixteenth,A#5
7417,Left,1,65,110,1128.0,0.489583,Eighth,F4
7416,Right,0,81,110,1128.0,0.239583,Sixteenth,A5
7418,Right,0,82,110,1128.25,0.239583,Sixteenth,A#5
7419,Right,0,81,110,1128.5,0.239583,Sixteenth,A5
7420,Left,1,53,110,1128.5,0.489583,Eighth,F3
7421,Right,0,79,110,1128.75,0.239583,Sixteenth,G5
7423,Left,1,63,110,1129.0,1.489583,DottedQuarter,F#4_D#4
7422,Right,0,77,110,1129.0,0.239583,Sixteenth,F5
7425,Right,0,79,110,1129.25,0.239583,Sixteenth,G5
7426,Right,0,81,110,1129.5,0.239583,Sixteenth,A5
7427,Right,0,82,110,1129.75,0.239583,Sixteenth,A#5
7428,Right,0,83,110,1130.0,0.239583,Sixteenth,B5
7429,Right,0,84,110,1130.25,0.239583,Sixteenth,C6
7431,Left,1,66,110,1130.5,0.489583,Eighth,F#4_D#4
7430,Right,0,86,110,1130.5,0.239583,Sixteenth,D6
7433,Right,0,84,110,1130.75,0.239583,Sixteenth,C6
7435,Left,1,66,110,1131.0,0.489583,Eighth,F#4_D#4
7434,Right,0,82,110,1131.0,0.239583,Sixteenth,A#5
7437,Right,0,84,110,1131.25,0.239583,Sixteenth,C6
7438,Right,0,86,110,1131.5,0.239583,Sixteenth,D6
7439,Left,1,65,110,1131.5,0.489583,Eighth,F4_D4
7441,Right,0,87,110,1131.75,0.239583,Sixteenth,D#6
7442,Right,0,89,110,1132.0,0.239583,Sixteenth,F6
7443,Left,1,63,110,1132.0,0.489583,Eighth,D#4_C4
7445,Right,0,80,110,1132.25,0.239583,Sixteenth,G#5
7446,Right,0,81,110,1132.5,0.239583,Sixteenth,A5
7447,Left,1,58,110,1132.5,0.489583,Eighth,D4_A#3
7449,Right,0,82,110,1132.75,0.239583,Sixteenth,A#5
7450,Right,0,84,110,1133.0,0.489583,Eighth,C6
7451,Left,1,50,110,1133.0,0.239583,Sixteenth,D3
7452,Left,1,51,110,1133.25,0.239583,Sixteenth,D#3
7453,Right,0,82,110,1133.5,0.489583,Eighth,A#5
7454,Left,1,50,110,1133.5,0.239583,Sixteenth,D3
7455,Left,1,48,110,1133.75,0.239583,Sixteenth,C3
7457,Right,0,79,110,1134.0,0.489583,Eighth,G5_A#5
7456,Left,1,46,110,1134.0,0.239583,Sixteenth,A#2
7459,Left,1,48,110,1134.25,0.239583,Sixteenth,C3
7461,Right,0,77,110,1134.5,0.489583,Eighth,G#5_F5
7460,Left,1,50,110,1134.5,0.239583,Sixteenth,D3
7463,Left,1,51,110,1134.75,0.239583,Sixteenth,D#3
7464,Left,1,52,110,1135.0,0.239583,Sixteenth,E3
7465,Right,0,70,110,1135.0,0.489583,Eighth,G5_A#4
7467,Left,1,53,110,1135.25,0.239583,Sixteenth,F3
7470,Left,1,55,110,1135.5,0.239583,Sixteenth,G3
7468,Right,0,77,110,1135.5,0.489583,Eighth,G#4_F5
7471,Left,1,53,110,1135.75,0.239583,Sixteenth,F3
7473,Right,0,92,125,1136.0,0.489583,Eighth,G#6_F6
7472,Left,1,50,125,1136.0,0.239583,Sixteenth,D3
7475,Left,1,51,125,1136.25,0.239583,Sixteenth,D#3
7476,Left,1,53,125,1136.5,0.239583,Sixteenth,F3
7477,Right,0,91,125,1136.5,0.489583,Eighth,G6_D#6
7479,Left,1,51,125,1136.75,0.239583,Sixteenth,D#3
7482,Left,1,47,125,1137.0,0.239583,Sixteenth,B2
7480,Right,0,91,125,1137.0,0.489583,Eighth,G6_D6
7483,Left,1,48,125,1137.25,0.239583,Sixteenth,C3
7484,Right,0,84,125,1137.5,0.489583,Eighth,D#6_C6
7485,Left,1,50,125,1137.5,0.239583,Sixteenth,D3
7487,Left,1,51,125,1137.75,0.239583,Sixteenth,D#3
7488,Right,0,82,125,1138.0,0.489583,Eighth,D6_A#5
7489,Left,1,52,125,1138.0,0.239583,Sixteenth,E3
7491,Left,1,53,125,1138.25,0.239583,Sixteenth,F3
7492,Left,1,55,125,1138.5,0.239583,Sixteenth,G3
7493,Right,0,89,125,1138.5,0.489583,Eighth,F6_D6
7495,Left,1,53,125,1138.75,0.239583,Sixteenth,F3
7496,Left,1,41,125,1139.0,0.489583,Eighth,F3_F2
7498,Right,0,81,125,1139.0,0.489583,Eighth,D#5_C5_A5
7501,Right,0,70,125,1139.5,0.489583,Eighth,D5_A#5_A#4
7504,Left,1,34,125,1139.5,0.489583,Eighth,A#2_A#1
7506,Right,0,80,80,1141.0,0.489583,Eighth,G#5
7508,Right,0,66,80,1142.0,0.208333,Sixteenth,F#4
7507,Left,1,34,80,1142.0,0.489583,Eighth,A#1
7509,Right,0,67,80,1142.125,0.208333,Sixteenth,G4
7510,Right,0,66,81,1142.25,0.208333,Sixteenth,F#4
7511,Right,0,67,82,1142.375,0.208333,Sixteenth,G4
7512,Right,0,66,82,1142.5,0.208333,Sixteenth,F#4
7513,Right,0,67,83,1142.625,0.208333,Sixteenth,G4
7514,Right,0,66,84,1142.75,0.208333,Sixteenth,F#4
7515,Right,0,67,85,1142.875,0.208333,Sixteenth,G4
7516,Right,0,66,85,1143.0,0.208333,Sixteenth,F#4
7517,Left,1,50,85,1143.0,0.208333,Sixteenth,D3
7519,Right,0,67,86,1143.125,0.208333,Sixteenth,G4
7518,Left,1,51,86,1143.125,0.208333,Sixteenth,D#3
7520,Left,1,50,87,1143.25,0.208333,Sixteenth,D3
7521,Right,0,66,87,1143.25,0.208333,Sixteenth,F#4
7522,Left,1,51,88,1143.375,0.208333,Sixteenth,D#3
7523,Right,0,67,88,1143.375,0.208333,Sixteenth,G4
7524,Left,1,50,88,1143.5,0.208333,Sixteenth,D3
7525,Right,0,66,88,1143.5,0.208333,Sixteenth,F#4
7527,Left,1,51,89,1143.625,0.208333,Sixteenth,D#3
7526,Right,0,67,89,1143.625,0.208333,Sixteenth,G4
7528,Left,1,48,90,1143.75,0.208333,Sixteenth,C3
7529,Right,0,66,90,1143.75,0.208333,Sixteenth,F#4
7531,Left,1,50,91,1143.875,0.208333,Sixteenth,D3
7530,Right,0,67,91,1143.875,0.208333,Sixteenth,G4
7534,Right,0,78,91,1144.0,0.489583,Eighth,F#5
7532,Left,1,51,91,1144.0,0.489583,Eighth,D#4_D#3
7536,Right,0,63,97,1145.0,0.208333,Sixteenth,D#4
7535,Left,1,78,97,1145.0,0.208333,Sixteenth,F#5
7538,Left,1,80,98,1145.125,0.208333,Sixteenth,G#5
7537,Right,0,65,98,1145.125,0.208333,Sixteenth,F4
7540,Left,1,78,99,1145.25,0.208333,Sixteenth,F#5
7539,Right,0,63,99,1145.25,0.208333,Sixteenth,D#4
7541,Right,0,65,100,1145.375,0.208333,Sixteenth,F4
7542,Left,1,80,100,1145.375,0.208333,Sixteenth,G#5
7544,Right,0,63,100,1145.5,0.208333,Sixteenth,D#4
7543,Left,1,78,100,1145.5,0.208333,Sixteenth,F#5
7545,Right,0,65,101,1145.625,0.208333,Sixteenth,F4
7546,Left,1,80,101,1145.625,0.208333,Sixteenth,G#5
7547,Right,0,63,102,1145.75,0.208333,Sixteenth,D#4
7548,Left,1,78,102,1145.75,0.208333,Sixteenth,F#5
7550,Left,1,80,103,1145.875,0.208333,Sixteenth,G#5
7549,Right,0,65,103,1145.875,0.208333,Sixteenth,F4
7551,Left,1,54,103,1146.0,0.489583,Eighth,F#3_F#2
7552,Right,0,63,103,1146.0,0.208333,Sixteenth,D#4
7554,Right,0,65,104,1146.125,0.208333,Sixteenth,F4
7555,Right,0,63,105,1146.25,0.208333,Sixteenth,D#4
7556,Right,0,65,106,1146.375,0.208333,Sixteenth,F4
7557,Right,0,63,106,1146.5,0.208333,Sixteenth,D#4
7558,Right,0,65,107,1146.625,0.208333,Sixteenth,F4
7559,Right,0,62,108,1146.75,0.208333,Sixteenth,D4
7560,Right,0,63,120,1146.875,0.114583,ThirtySecond,D#4
7562,Right,0,66,120,1147.0,0.239583,Sixteenth,F#4
7561,Left,1,27,120,1147.0,0.208333,Sixteenth,D#1
7563,Left,1,29,120,1147.125,0.208333,Sixteenth,F1
7564,Left,1,27,120,1147.25,0.208333,Sixteenth,D#1
7565,Right,0,45,120,1147.25,0.239583,Sixteenth,A2
7566,Left,1,29,120,1147.375,0.208333,Sixteenth,F1
7568,Left,1,27,120,1147.5,0.208333,Sixteenth,D#1
7567,Right,0,48,120,1147.5,0.239583,Sixteenth,C3
7569,Left,1,29,120,1147.625,0.208333,Sixteenth,F1
7571,Right,0,51,120,1147.75,0.239583,Sixteenth,D#3
7570,Left,1,27,120,1147.75,0.208333,Sixteenth,D#1
7572,Left,1,29,120,1147.875,0.208333,Sixteenth,F1
7573,Left,1,27,120,1148.0,0.208333,Sixteenth,D#1
7574,Right,0,54,120,1148.0,0.239583,Sixteenth,F#3
7575,Left,1,29,120,1148.125,0.208333,Sixteenth,F1
7577,Right,0,57,120,1148.25,0.239583,Sixteenth,A3
7576,Left,1,27,120,1148.25,0.208333,Sixteenth,D#1
7578,Left,1,29,120,1148.375,0.208333,Sixteenth,F1
7580,Right,0,60,120,1148.5,0.239583,Sixteenth,C4
7579,Left,1,27,120,1148.5,0.208333,Sixteenth,D#1
7581,Left,1,29,120,1148.625,0.208333,Sixteenth,F1
7582,Right,0,63,120,1148.75,0.239583,Sixteenth,D#4
7583,Left,1,27,120,1148.75,0.208333,Sixteenth,D#1
7584,Left,1,29,120,1148.875,0.208333,Sixteenth,F1
7586,Left,1,27,120,1149.0,0.208333,Sixteenth,D#1
7585,Right,0,66,120,1149.0,0.239583,Sixteenth,F#4
7587,Left,1,29,120,1149.125,0.208333,Sixteenth,F1
7589,Left,1,27,120,1149.25,0.208333,Sixteenth,D#1
7588,Right,0,57,120,1149.25,0.239583,Sixteenth,A3
7590,Left,1,29,120,1149.375,0.208333,Sixteenth,F1
7592,Right,0,60,120,1149.5,0.239583,Sixteenth,C4
7591,Left,1,27,120,1149.5,0.208333,Sixteenth,D#1
7593,Left,1,29,120,1149.625,0.208333,Sixteenth,F1
7595,Right,0,63,120,1149.75,0.239583,Sixteenth,D#4
7594,Left,1,27,120,1149.75,0.208333,Sixteenth,D#1
7596,Left,1,29,120,1149.875,0.208333,Sixteenth,F1
7597,Right,0,66,120,1150.0,0.239583,Sixteenth,F#4
7598,Left,1,27,120,1150.0,0.208333,Sixteenth,D#1
7599,Left,1,29,120,1150.125,0.208333,Sixteenth,F1
7600,Left,1,27,120,1150.25,0.208333,Sixteenth,D#1
7601,Right,0,69,120,1150.25,0.239583,Sixteenth,A4
7602,Left,1,29,120,1150.375,0.208333,Sixteenth,F1
7603,Left,1,27,120,1150.5,0.208333,Sixteenth,D#1
7604,Right,0,72,120,1150.5,0.239583,Sixteenth,C5
7605,Left,1,29,120,1150.625,0.208333,Sixteenth,F1
7606,Left,1,27,120,1150.75,0.208333,Sixteenth,D#1
7607,Right,0,75,120,1150.75,0.239583,Sixteenth,D#5
7608,Left,1,29,120,1150.875,0.208333,Sixteenth,F1
7610,Left,1,27,120,1151.0,0.208333,Sixteenth,D#1
7609,Right,0,78,120,1151.0,0.239583,Sixteenth,F#5
7611,Left,1,29,120,1151.125,0.208333,Sixteenth,F1
7612,Left,1,27,120,1151.25,0.208333,Sixteenth,D#1
7613,Right,0,69,120,1151.25,0.239583,Sixteenth,A4
7614,Left,1,29,120,1151.375,0.208333,Sixteenth,F1
7615,Left,1,27,120,1151.5,0.208333,Sixteenth,D#1
7616,Right,0,72,120,1151.5,0.239583,Sixteenth,C5
7617,Left,1,29,120,1151.625,0.208333,Sixteenth,F1
7618,Right,0,75,120,1151.75,0.239583,Sixteenth,D#5
7619,Left,1,27,120,1151.75,0.208333,Sixteenth,D#1
7620,Left,1,29,120,1151.875,0.208333,Sixteenth,F1
7621,Right,0,78,120,1152.0,0.239583,Sixteenth,F#5
7622,Left,1,27,120,1152.0,0.208333,Sixteenth,D#1
7623,Left,1,29,120,1152.125,0.208333,Sixteenth,F1
7624,Right,0,81,120,1152.25,0.239583,Sixteenth,A5
7625,Left,1,27,120,1152.25,0.208333,Sixteenth,D#1
7626,Left,1,29,120,1152.375,0.208333,Sixteenth,F1
7628,Left,1,27,120,1152.5,0.208333,Sixteenth,D#1
7627,Right,0,84,120,1152.5,0.239583,Sixteenth,C6
7629,Left,1,29,120,1152.625,0.208333,Sixteenth,F1
7630,Left,1,27,120,1152.75,0.208333,Sixteenth,D#1
7631,Right,0,87,120,1152.75,0.239583,Sixteenth,D#6
7632,Left,1,29,120,1152.875,0.208333,Sixteenth,F1
7633,Left,1,27,120,1153.0,0.208333,Sixteenth,D#1
7634,Right,0,90,120,1153.0,0.239583,Sixteenth,F#6
7635,Left,1,29,120,1153.125,0.208333,Sixteenth,F1
7636,Left,1,27,120,1153.25,0.208333,Sixteenth,D#1
7637,Right,0,69,120,1153.25,0.239583,Sixteenth,A4
7638,Left,1,29,120,1153.375,0.208333,Sixteenth,F1
7640,Right,0,72,120,1153.5,0.239583,Sixteenth,C5
7639,Left,1,27,120,1153.5,0.208333,Sixteenth,D#1
7641,Left,1,29,120,1153.625,0.208333,Sixteenth,F1
7642,Right,0,75,120,1153.75,0.239583,Sixteenth,D#5
7643,Left,1,27,120,1153.75,0.208333,Sixteenth,D#1
7644,Left,1,29,120,1153.875,0.208333,Sixteenth,F1
7646,Right,0,78,120,1154.0,0.239583,Sixteenth,F#5
7645,Left,1,27,120,1154.0,0.208333,Sixteenth,D#1
7647,Left,1,29,120,1154.125,0.208333,Sixteenth,F1
7649,Right,0,57,120,1154.25,0.239583,Sixteenth,A3
7648,Left,1,27,120,1154.25,0.208333,Sixteenth,D#1
7650,Left,1,29,120,1154.375,0.208333,Sixteenth,F1
7651,Right,0,60,120,1154.5,0.239583,Sixteenth,C4
7652,Left,1,27,120,1154.5,0.239583,Sixteenth,D#1
7653,Left,1,29,120,1154.625,0.239583,Sixteenth,F1
7654,Right,0,63,120,1154.75,0.239583,Sixteenth,D#4
7655,Left,1,27,120,1154.75,0.239583,Sixteenth,D#1
7656,Left,1,29,120,1154.875,0.239583,Sixteenth,F1
7658,Right,0,66,120,1155.0,0.239583,Sixteenth,F#4
7657,Left,1,27,120,1155.0,0.208333,Sixteenth,D#1
7659,Left,1,29,120,1155.125,0.208333,Sixteenth,F1
7660,Left,1,27,120,1155.25,0.208333,Sixteenth,D#1
7661,Right,0,45,120,1155.25,0.239583,Sixteenth,A2
7662,Left,1,29,120,1155.375,0.208333,Sixteenth,F1
7663,Right,0,48,120,1155.5,0.239583,Sixteenth,C3
7664,Left,1,27,120,1155.5,0.208333,Sixteenth,D#1
7665,Left,1,29,120,1155.625,0.208333,Sixteenth,F1
7666,Left,1,27,120,1155.75,0.208333,Sixteenth,D#1
7667,Right,0,51,120,1155.75,0.239583,Sixteenth,D#3
7668,Left,1,29,120,1155.875,0.208333,Sixteenth,F1
7670,Right,0,54,120,1156.0,0.989583,Quarter,F#3
7669,Left,1,27,120,1156.0,0.208333,Sixteenth,D#1
7671,Left,1,29,120,1156.125,0.208333,Sixteenth,F1
7672,Left,1,27,120,1156.25,0.208333,Sixteenth,D#1
7673,Left,1,29,120,1156.375,0.208333,Sixteenth,F1
7674,Left,1,27,120,1156.5,0.208333,Sixteenth,D#1
7675,Left,1,29,120,1156.625,0.208333,Sixteenth,F1
7676,Left,1,27,120,1156.75,0.208333,Sixteenth,D#1
7677,Right,0,45,120,1157.0,1.489583,DottedQuarter,F#2_D#3_A2
7680,Left,1,34,120,1157.0,0.208333,Sixteenth,F1_A#1
7682,Left,1,36,119,1157.125,0.208333,Sixteenth,C2
7683,Left,1,34,117,1157.25,0.208333,Sixteenth,A#1
7684,Left,1,36,115,1157.375,0.208333,Sixteenth,C2
7685,Left,1,34,113,1157.5,0.208333,Sixteenth,A#1
7686,Left,1,36,111,1157.625,0.208333,Sixteenth,C2
7687,Left,1,34,110,1157.75,0.208333,Sixteenth,A#1
7688,Left,1,36,108,1157.875,0.208333,Sixteenth,C2
7689,Left,1,34,106,1158.0,0.208333,Sixteenth,A#1
7690,Left,1,36,104,1158.125,0.208333,Sixteenth,C2
7691,Left,1,34,102,1158.25,0.208333,Sixteenth,A#1
7692,Left,1,36,101,1158.375,0.208333,Sixteenth,C2
7693,Right,0,44,99,1158.5,0.489583,Eighth,G#2_F2_D3
7695,Left,1,34,99,1158.5,0.208333,Sixteenth,A#1
7697,Left,1,36,97,1158.625,0.208333,Sixteenth,C2
7698,Left,1,34,95,1158.75,0.208333,Sixteenth,A#1
7699,Left,1,36,93,1158.875,0.208333,Sixteenth,C2
7700,Right,0,70,92,1159.0,0.239583,Sixteenth,A#4
7701,Left,1,34,92,1159.0,0.208333,Sixteenth,A#1
7702,Left,1,36,90,1159.125,0.208333,Sixteenth,C2
7704,Right,0,68,88,1159.25,0.239583,Sixteenth,G#4
7703,Left,1,34,88,1159.25,0.208333,Sixteenth,A#1
7705,Left,1,36,86,1159.375,0.208333,Sixteenth,C2
7706,Right,0,70,84,1159.5,0.239583,Sixteenth,A#4
7707,Left,1,34,84,1159.5,0.208333,Sixteenth,A#1
7708,Left,1,36,82,1159.625,0.208333,Sixteenth,C2
7710,Right,0,68,81,1159.75,0.239583,Sixteenth,G#4
7709,Left,1,34,81,1159.75,0.208333,Sixteenth,A#1
7711,Left,1,36,80,1159.875,0.208333,Sixteenth,C2
7712,Right,0,70,80,1160.0,0.239583,Sixteenth,A#4
7713,Left,1,34,80,1160.0,0.208333,Sixteenth,A#1
7714,Left,1,36,80,1160.125,0.208333,Sixteenth,C2
7716,Left,1,34,80,1160.25,0.208333,Sixteenth,A#1
7715,Right,0,68,80,1160.25,0.239583,Sixteenth,G#4
7717,Left,1,36,80,1160.375,0.208333,Sixteenth,C2
7719,Left,1,34,80,1160.5,0.208333,Sixteenth,A#1
7718,Right,0,67,80,1160.5,0.239583,Sixteenth,G4
7720,Left,1,36,80,1160.625,0.208333,Sixteenth,C2
7722,Left,1,34,80,1160.75,0.208333,Sixteenth,A#1
7721,Right,0,68,80,1160.75,0.239583,Sixteenth,G#4
7723,Left,1,36,80,1160.875,0.208333,Sixteenth,C2
7724,Left,1,34,80,1161.0,0.208333,Sixteenth,A#1
7725,Right,0,71,80,1161.0,0.989583,Quarter,B4
7726,Left,1,36,80,1161.125,0.208333,Sixteenth,C2
7727,Left,1,34,80,1161.25,0.208333,Sixteenth,A#1
7728,Left,1,36,80,1161.375,0.208333,Sixteenth,C2
7729,Left,1,34,80,1161.5,0.208333,Sixteenth,A#1
7730,Right,0,56,80,1161.5,0.489583,Eighth,G#3
7731,Left,1,36,80,1161.625,0.208333,Sixteenth,C2
7732,Left,1,34,80,1161.75,0.208333,Sixteenth,A#1
7733,Left,1,36,80,1161.875,0.208333,Sixteenth,C2
7735,Left,1,34,80,1162.0,0.208333,Sixteenth,A#1
7734,Right,0,68,80,1162.0,0.489583,Eighth,G#4
7736,Left,1,36,80,1162.125,0.208333,Sixteenth,C2
7737,Left,1,34,80,1162.25,0.208333,Sixteenth,A#1
7738,Left,1,36,80,1162.375,0.208333,Sixteenth,C2
7740,Right,0,79,80,1162.5,0.489583,Eighth,G5_B4
7739,Left,1,34,80,1162.5,0.208333,Sixteenth,A#1
7742,Left,1,36,80,1162.625,0.208333,Sixteenth,C2
7744,Left,1,34,80,1162.75,0.208333,Sixteenth,A#1
7743,Right,0,70,80,1162.75,0.239583,Sixteenth,A#4
7745,Left,1,36,80,1162.875,0.208333,Sixteenth,C2
7747,Right,0,68,80,1163.0,0.489583,Sixteenth,G#5_G#4
7746,Left,1,34,80,1163.0,0.208333,Sixteenth,A#1
7749,Left,1,36,80,1163.125,0.208333,Sixteenth,C2
7751,Right,0,67,80,1163.25,0.239583,Sixteenth,G4
7750,Left,1,34,80,1163.25,0.208333,Sixteenth,A#1
7752,Left,1,36,80,1163.375,0.208333,Sixteenth,C2
7753,Left,1,34,80,1163.5,0.208333,Sixteenth,A#1
7754,Right,0,65,80,1163.5,0.239583,Sixteenth,F4
7755,Left,1,36,80,1163.625,0.208333,Sixteenth,C2
7757,Right,0,63,80,1163.75,0.239583,Sixteenth,D#4
7756,Left,1,34,80,1163.75,0.208333,Sixteenth,A#1
7758,Left,1,36,80,1163.875,0.208333,Sixteenth,C2
7759,Right,0,68,80,1164.0,0.989583,Quarter,G#4
7760,Left,1,34,80,1164.0,0.208333,Sixteenth,A#1
7761,Left,1,36,80,1164.125,0.208333,Sixteenth,C2
7762,Left,1,34,80,1164.25,0.208333,Sixteenth,A#1
7763,Left,1,36,80,1164.375,0.208333,Sixteenth,C2
7764,Right,0,53,80,1164.5,0.489583,Eighth,F3
7765,Left,1,34,80,1164.5,0.208333,Sixteenth,A#1
7766,Left,1,36,80,1164.625,0.208333,Sixteenth,C2
7767,Left,1,34,80,1164.75,0.208333,Sixteenth,A#1
7768,Left,1,36,80,1164.875,0.208333,Sixteenth,C2
7770,Left,1,34,80,1165.0,0.208333,Sixteenth,A#1
7769,Right,0,65,80,1165.0,0.489583,Eighth,F4
7771,Left,1,36,80,1165.125,0.208333,Sixteenth,C2
7772,Left,1,34,80,1165.25,0.208333,Sixteenth,A#1
7773,Left,1,36,80,1165.375,0.208333,Sixteenth,C2
7774,Left,1,34,80,1165.5,0.208333,Sixteenth,A#1
7775,Right,0,76,80,1165.5,0.489583,Eighth,G#4_E5
7777,Left,1,36,80,1165.625,0.208333,Sixteenth,C2
7779,Left,1,34,80,1165.75,0.208333,Sixteenth,A#1
7778,Right,0,66,80,1165.75,0.239583,Sixteenth,F#4
7780,Left,1,36,80,1165.875,0.208333,Sixteenth,C2
7783,Left,1,34,80,1166.0,0.208333,Sixteenth,A#1
7781,Right,0,65,80,1166.0,0.489583,Sixteenth,F5_F4
7784,Left,1,36,80,1166.125,0.208333,Sixteenth,C2
7786,Left,1,34,80,1166.25,0.208333,Sixteenth,A#1
7785,Right,0,63,80,1166.25,0.239583,Sixteenth,D#4
7787,Left,1,36,80,1166.375,0.208333,Sixteenth,C2
7789,Right,0,62,80,1166.5,0.239583,Sixteenth,D4
7788,Left,1,34,80,1166.5,0.208333,Sixteenth,A#1
7790,Left,1,36,80,1166.625,0.208333,Sixteenth,C2
7791,Right,0,59,80,1166.75,0.239583,Sixteenth,B3
7792,Left,1,34,80,1166.75,0.208333,Sixteenth,A#1
7793,Left,1,36,80,1166.875,0.208333,Sixteenth,C2
7795,Right,0,66,80,1167.0,0.989583,Quarter,F#4
7794,Left,1,34,80,1167.0,0.208333,Sixteenth,A#1
7796,Left,1,36,80,1167.125,0.208333,Sixteenth,C2
7797,Left,1,34,80,1167.25,0.208333,Sixteenth,A#1
7798,Left,1,36,80,1167.375,0.208333,Sixteenth,C2
7800,Left,1,34,80,1167.5,0.208333,Sixteenth,A#1
7799,Right,0,51,80,1167.5,0.489583,Eighth,D#3
7801,Left,1,36,80,1167.625,0.208333,Sixteenth,C2
7802,Left,1,34,80,1167.75,0.208333,Sixteenth,A#1
7803,Left,1,36,80,1167.875,0.208333,Sixteenth,C2
7805,Right,0,63,80,1168.0,0.489583,Eighth,D#4
7804,Left,1,34,80,1168.0,0.208333,Sixteenth,A#1
7806,Left,1,36,80,1168.125,0.208333,Sixteenth,C2
7807,Left,1,34,80,1168.25,0.208333,Sixteenth,A#1
7808,Left,1,36,80,1168.375,0.208333,Sixteenth,C2
7809,Left,1,34,80,1168.5,0.208333,Sixteenth,A#1
7810,Right,0,66,80,1168.5,0.489583,Sixteenth,F#4_D5
7812,Left,1,36,80,1168.625,0.208333,Sixteenth,C2
7813,Left,1,34,80,1168.75,0.208333,Sixteenth,A#1
7814,Right,0,65,80,1168.75,0.239583,Sixteenth,F4
7815,Left,1,36,80,1168.875,0.208333,Sixteenth,C2
7817,Right,0,63,80,1169.0,0.489583,Sixteenth,D#5_D#4
7816,Left,1,34,80,1169.0,0.208333,Sixteenth,A#1
7819,Left,1,36,80,1169.125,0.208333,Sixteenth,C2
7821,Right,0,61,80,1169.25,0.239583,Sixteenth,C#4
7820,Left,1,34,80,1169.25,0.208333,Sixteenth,A#1
7822,Left,1,36,80,1169.375,0.208333,Sixteenth,C2
7825,Left,1,34,80,1169.5,0.208333,Sixteenth,A#1
7823,Right,0,59,80,1169.5,0.739583,Sixteenth,D#4_B3
7826,Left,1,36,80,1169.625,0.208333,Sixteenth,C2
7827,Left,1,34,80,1169.75,0.208333,Sixteenth,A#1
7828,Right,0,58,80,1169.75,0.239583,Sixteenth,A#3
7829,Left,1,36,80,1169.875,0.208333,Sixteenth,C2
7830,Left,1,34,80,1170.0,0.208333,Sixteenth,A#1
7831,Right,0,57,80,1170.0,0.489583,Eighth,A3
7832,Left,1,36,80,1170.125,0.208333,Sixteenth,C2
7834,Left,1,34,80,1170.25,0.208333,Sixteenth,A#1
7833,Right,0,65,80,1170.25,0.239583,Sixteenth,F4
7835,Left,1,36,80,1170.375,0.208333,Sixteenth,C2
7837,Left,1,34,80,1170.5,0.208333,Sixteenth,A#1
7836,Right,0,63,80,1170.5,0.239583,Sixteenth,D#4
7838,Left,1,36,80,1170.625,0.208333,Sixteenth,C2
7840,Left,1,34,80,1170.75,0.208333,Sixteenth,A#1
7839,Right,0,62,80,1170.75,0.239583,Sixteenth,D4
7841,Left,1,36,80,1170.875,0.208333,Sixteenth,C2
7842,Right,0,63,80,1171.0,1.489583,Sixteenth,F#3_D#4
7843,Left,1,34,80,1171.0,0.208333,Sixteenth,A#1
7845,Left,1,36,80,1171.125,0.208333,Sixteenth,C2
7847,Right,0,61,80,1171.25,0.239583,Sixteenth,C#4
7846,Left,1,34,80,1171.25,0.208333,Sixteenth,A#1
7848,Left,1,36,80,1171.375,0.208333,Sixteenth,C2
7850,Left,1,34,80,1171.5,0.208333,Sixteenth,A#1
7849,Right,0,60,80,1171.5,0.239583,Sixteenth,C4
7851,Left,1,36,80,1171.625,0.208333,Sixteenth,C2
7852,Left,1,34,80,1171.75,0.208333,Sixteenth,A#1
7853,Right,0,59,80,1171.75,0.239583,Sixteenth,B3
7854,Left,1,36,80,1171.875,0.208333,Sixteenth,C2
7855,Left,1,34,80,1172.0,0.208333,Sixteenth,A#1
7856,Right,0,60,80,1172.0,0.239583,Sixteenth,C4
7857,Left,1,36,80,1172.125,0.208333,Sixteenth,C2
7858,Left,1,34,80,1172.25,0.208333,Sixteenth,A#1
7859,Right,0,59,80,1172.25,0.239583,Sixteenth,B3
7860,Left,1,36,80,1172.375,0.208333,Sixteenth,C2
7861,Right,0,54,80,1172.5,0.489583,Eighth,F#3_C4
7862,Left,1,34,80,1172.5,0.208333,Sixteenth,A#1
7864,Left,1,36,80,1172.625,0.208333,Sixteenth,C2
7865,Right,0,61,80,1172.75,0.239583,Sixteenth,C#4
7866,Left,1,34,80,1172.75,0.208333,Sixteenth,A#1
7867,Left,1,36,80,1172.875,0.208333,Sixteenth,C2
7869,Right,0,63,80,1173.0,0.489583,Eighth,F#3_D#4
7868,Left,1,34,80,1173.0,0.208333,Sixteenth,A#1
7871,Left,1,36,80,1173.125,0.208333,Sixteenth,C2
7872,Left,1,34,80,1173.25,0.208333,Sixteenth,A#1
7873,Left,1,36,80,1173.375,0.208333,Sixteenth,C2
7875,Right,0,53,80,1173.5,0.489583,Eighth,F3
7874,Left,1,34,80,1173.5,0.208333,Sixteenth,A#1
7876,Left,1,36,80,1173.625,0.208333,Sixteenth,C2
7877,Left,1,34,80,1173.75,0.208333,Sixteenth,A#1
7878,Left,1,36,80,1173.875,0.208333,Sixteenth,C2
7881,Left,1,34,80,1174.0,0.208333,Sixteenth,A#1
7879,Right,0,60,80,1174.0,1.489583,DottedQuarter,F3_C4
7882,Left,1,36,80,1174.125,0.208333,Sixteenth,C2
7883,Left,1,34,80,1174.25,0.208333,Sixteenth,A#1
7884,Left,1,36,80,1174.375,0.208333,Sixteenth,C2
7885,Right,0,51,80,1174.5,0.489583,Eighth,D#3
7886,Left,1,34,80,1174.5,0.208333,Sixteenth,A#1
7887,Left,1,36,80,1174.625,0.208333,Sixteenth,C2
7888,Left,1,34,80,1174.75,0.208333,Sixteenth,A#1
7889,Left,1,36,80,1174.875,0.208333,Sixteenth,C2
7890,Left,1,34,80,1175.0,0.208333,Sixteenth,A#1
7891,Right,0,50,80,1175.0,0.489583,Eighth,D3
7892,Left,1,36,80,1175.125,0.208333,Sixteenth,C2
7893,Left,1,34,80,1175.25,0.208333,Sixteenth,A#1
7894,Left,1,36,80,1175.375,0.208333,Sixteenth,C2
7897,Left,1,34,80,1175.5,0.208333,Sixteenth,A#1
7895,Right,0,51,80,1175.5,0.489583,Eighth,D#3_C4
7898,Left,1,36,80,1175.625,0.208333,Sixteenth,C2
7899,Left,1,34,80,1175.75,0.208333,Sixteenth,A#1
7900,Left,1,36,80,1175.875,0.208333,Sixteenth,C2
7902,Right,0,51,80,1176.0,0.489583,Eighth,D#3_C4
7901,Left,1,34,80,1176.0,0.989583,Sixteenth,F1_A#1
7905,Left,1,36,80,1176.125,0.208333,Sixteenth,C2
7906,Left,1,34,80,1176.25,0.208333,Sixteenth,A#1
7907,Left,1,36,80,1176.375,0.208333,Sixteenth,C2
7909,Left,1,34,80,1176.5,0.208333,Sixteenth,A#1
7908,Right,0,58,80,1176.5,0.489583,Eighth,D3_A#3
7911,Left,1,36,80,1176.625,0.208333,Sixteenth,C2
7913,Right,0,57,80,1177.0,0.489583,Eighth,D#3_A3
7915,Left,1,29,80,1177.0,0.989583,Quarter,F1
7916,Left,1,36,80,1177.0625,0.020833,TripletSixtyFourth,C2
7917,Left,1,34,80,1177.1875,0.208333,Sixteenth,A#1
7918,Left,1,36,80,1177.3125,0.208333,Sixteenth,C2
7921,Left,1,34,80,1177.5,0.208333,Sixteenth,A#1
7919,Right,0,58,80,1177.5,0.489583,Eighth,D3_A#3
7922,Left,1,36,80,1177.625,0.208333,Sixteenth,C2
7923,Left,1,34,80,1177.75,0.208333,Sixteenth,A#1
7924,Left,1,36,80,1177.875,0.208333,Sixteenth,C2
7925,Right,0,54,80,1178.0,0.489583,Eighth,F#3_D#3_A2
7926,Left,1,29,80,1178.0,0.989583,Quarter,F1_A#1
7930,Left,1,36,80,1178.125,0.208333,Sixteenth,C2
7931,Left,1,34,80,1178.25,0.208333,Sixteenth,A#1
7932,Left,1,36,80,1178.375,0.208333,Sixteenth,C2
7933,Right,0,53,80,1178.5,0.489583,Eighth,F3_D3_A#2
7934,Left,1,34,80,1178.5,0.208333,Sixteenth,A#1
7937,Left,1,36,80,1178.625,0.208333,Sixteenth,C2
7938,Left,1,34,80,1178.75,0.208333,Sixteenth,A#1
7939,Left,1,36,80,1178.875,0.208333,Sixteenth,C2
7941,Right,0,54,80,1179.0,0.489583,Eighth,F#3_D#4_A3
7940,Left,1,29,80,1179.0,0.989583,Quarter,F1_A#1
7945,Left,1,36,80,1179.125,0.208333,Sixteenth,C2
7946,Left,1,34,80,1179.25,0.208333,Sixteenth,A#1
7947,Left,1,36,80,1179.375,0.208333,Sixteenth,C2
7948,Right,0,53,80,1179.5,0.489583,Eighth,F3_D4_A#3
7951,Left,1,34,80,1179.5,0.208333,Sixteenth,A#1
7952,Left,1,36,80,1179.625,0.208333,Sixteenth,C2
7953,Left,1,34,80,1179.9375,0.020833,TripletSixtyFourth,A#1
7954,Right,0,63,80,1180.0,0.489583,Eighth,F#4_D#4_A4
7955,Left,1,29,80,1180.0,0.989583,Quarter,F1
7958,Left,1,36,80,1180.0625,0.020833,TripletSixtyFourth,C2
7959,Left,1,34,80,1180.1875,0.208333,Sixteenth,A#1
7960,Left,1,36,80,1180.3125,0.208333,Sixteenth,C2
7962,Left,1,34,80,1180.5,0.208333,Sixteenth,A#1
7961,Right,0,62,80,1180.5,0.489583,Eighth,F4_D4_A#4
7965,Left,1,36,80,1180.625,0.208333,Sixteenth,C2
7966,Left,1,34,80,1180.75,0.208333,Sixteenth,A#1
7967,Left,1,36,80,1180.875,0.208333,Sixteenth,C2
7968,Left,1,29,80,1181.0,0.989583,Quarter,F1_A#1
7969,Right,0,69,80,1181.0,0.489583,Eighth,F#5_D#5_A4
7973,Left,1,36,80,1181.125,0.208333,Sixteenth,C2
7974,Left,1,34,80,1181.25,0.208333,Sixteenth,A#1
7975,Left,1,36,80,1181.375,0.208333,Sixteenth,C2
7978,Left,1,34,80,1181.5,0.208333,Sixteenth,A#1
7976,Right,0,74,80,1181.5,0.489583,Eighth,F5_D5_A#4
7980,Left,1,36,80,1181.625,0.208333,Sixteenth,C2
7981,Left,1,33,80,1181.75,0.208333,Sixteenth,A1
7984,Right,0,72,80,1182.0,1.989583,Half,D#5_C5_A5
7982,Left,1,42,80,1182.0,0.989583,Quarter,F#2_F#1_A#1
7988,Right,0,82,80,1182.125,0.208333,Sixteenth,A#5
7989,Right,0,81,80,1182.25,0.208333,Sixteenth,A5
7990,Right,0,82,80,1182.375,0.208333,Sixteenth,A#5
7991,Right,0,81,80,1182.5,0.208333,Sixteenth,A5
7992,Right,0,82,80,1182.625,0.208333,Sixteenth,A#5
7993,Right,0,81,80,1182.75,0.208333,Sixteenth,A5
7994,Right,0,82,80,1182.875,0.208333,Sixteenth,A#5
7997,Right,0,81,80,1183.0,0.208333,Sixteenth,A5
7995,Left,1,31,80,1183.0,1.989583,Half,G2_G1
7998,Right,0,82,80,1183.125,0.208333,Sixteenth,A#5
7999,Right,0,81,80,1183.25,0.208333,Sixteenth,A5
8000,Right,0,82,80,1183.375,0.208333,Sixteenth,A#5
8001,Right,0,81,80,1183.5,0.208333,Sixteenth,A5
8002,Right,0,82,80,1183.625,0.208333,Sixteenth,A#5
8003,Right,0,79,80,1183.75,0.208333,Sixteenth,G5
8004,Right,0,81,80,1183.875,0.208333,Sixteenth,A5
8005,Right,0,70,80,1184.0,0.989583,Quarter,C#5_A#5_A#4
8008,Left,1,55,80,1185.0,0.208333,Sixteenth,G3
8009,Right,0,64,80,1185.0,0.208333,Sixteenth,E4
8010,Left,1,57,80,1185.125,0.208333,Sixteenth,A3
8011,Right,0,65,80,1185.125,0.208333,Sixteenth,F4
8013,Left,1,55,80,1185.25,0.208333,Sixteenth,G3
8012,Right,0,64,80,1185.25,0.208333,Sixteenth,E4
8015,Right,0,65,80,1185.375,0.208333,Sixteenth,F4
8014,Left,1,57,80,1185.375,0.208333,Sixteenth,A3
8016,Left,1,55,80,1185.5,0.208333,Sixteenth,G3
8017,Right,0,64,80,1185.5,0.208333,Sixteenth,E4
8018,Right,0,65,80,1185.625,0.208333,Sixteenth,F4
8019,Left,1,57,80,1185.625,0.208333,Sixteenth,A3
8020,Right,0,64,80,1185.75,0.208333,Sixteenth,E4
8021,Left,1,55,80,1185.75,0.208333,Sixteenth,G3
8022,Right,0,65,80,1185.875,0.208333,Sixteenth,F4
8023,Left,1,57,80,1185.875,0.208333,Sixteenth,A3
8024,Right,0,70,80,1186.0,0.989583,Quarter,E4_C#5_A#4
8027,Left,1,55,80,1186.0,0.208333,Sixteenth,G3
8029,Left,1,57,80,1186.125,0.208333,Sixteenth,A3
8028,Right,0,65,80,1186.125,0.208333,Sixteenth,F4
8030,Left,1,55,80,1186.25,0.208333,Sixteenth,G3
8031,Right,0,64,80,1186.25,0.208333,Sixteenth,E4
8033,Right,0,65,80,1186.375,0.208333,Sixteenth,F4
8032,Left,1,57,80,1186.375,0.208333,Sixteenth,A3
8035,Right,0,64,80,1186.5,0.208333,Sixteenth,E4
8034,Left,1,55,80,1186.5,0.208333,Sixteenth,G3
8037,Right,0,65,80,1186.625,0.208333,Sixteenth,F4
8036,Left,1,57,80,1186.625,0.208333,Sixteenth,A3
8039,Right,0,62,80,1186.75,0.208333,Sixteenth,D4
8038,Left,1,53,80,1186.75,0.208333,Sixteenth,F3
8040,Left,1,55,80,1186.875,0.208333,Sixteenth,G3
8041,Right,0,64,80,1186.875,0.208333,Sixteenth,E4
8042,Right,0,72,80,1187.0,0.989583,Quarter,F4_C5
8043,Left,1,57,80,1187.0,0.989583,Quarter,A3
8045,Left,1,60,80,1188.0,0.208333,Sixteenth,C4
8046,Right,0,69,80,1188.0,0.208333,Sixteenth,A4
8048,Left,1,62,80,1188.125,0.208333,Sixteenth,D4
8047,Right,0,70,80,1188.125,0.208333,Sixteenth,A#4
8050,Left,1,60,81,1188.25,0.208333,Sixteenth,C4
8049,Right,0,69,81,1188.25,0.208333,Sixteenth,A4
8051,Left,1,62,81,1188.375,0.208333,Sixteenth,D4
8052,Right,0,70,81,1188.375,0.208333,Sixteenth,A#4
8053,Left,1,60,82,1188.5,0.208333,Sixteenth,C4
8054,Right,0,69,82,1188.5,0.208333,Sixteenth,A4
8056,Left,1,62,83,1188.625,0.208333,Sixteenth,D4
8055,Right,0,70,83,1188.625,0.208333,Sixteenth,A#4
8057,Left,1,60,83,1188.75,0.208333,Sixteenth,C4
8058,Right,0,69,83,1188.75,0.208333,Sixteenth,A4
8060,Right,0,70,84,1188.875,0.208333,Sixteenth,A#4
8059,Left,1,62,84,1188.875,0.208333,Sixteenth,D4
8062,Left,1,60,85,1189.0,0.989583,Sixteenth,F3_C4
8061,Right,0,75,85,1189.0,0.989583,Quarter,D#5_A4
8065,Right,0,70,85,1189.125,0.208333,Sixteenth,A#4
8066,Left,1,62,85,1189.125,0.208333,Sixteenth,D4
8067,Right,0,69,86,1189.25,0.208333,Sixteenth,A4
8068,Left,1,60,86,1189.25,0.208333,Sixteenth,C4
8069,Right,0,70,87,1189.375,0.208333,Sixteenth,A#4
8070,Left,1,62,87,1189.375,0.208333,Sixteenth,D4
8072,Left,1,60,87,1189.5,0.208333,Sixteenth,C4
8071,Right,0,69,87,1189.5,0.208333,Sixteenth,A4
8073,Right,0,70,88,1189.625,0.208333,Sixteenth,A#4
8074,Left,1,62,88,1189.625,0.208333,Sixteenth,D4
8075,Right,0,67,89,1189.75,0.208333,Sixteenth,G4
8076,Left,1,58,89,1189.75,0.208333,Sixteenth,A#3
8077,Right,0,69,89,1189.875,0.208333,Sixteenth,A4
8081,Left,1,53,70,1190.0,0.989583,Quarter,F3_C4_A3
8078,Right,0,72,70,1190.0,0.989583,Quarter,F4_D#5_C5
8084,Right,0,67,70,1191.0,1.489583,DottedQuarter,G4_D#5_C5
8085,Left,1,53,70,1191.0,1.489583,DottedQuarter,F3_C4_A3
8090,Right,0,79,70,1192.5,0.239583,Sixteenth,G5
8091,Right,0,77,70,1192.75,0.239583,Sixteenth,F5
8092,Right,0,75,70,1193.0,0.239583,Sixteenth,D#5
8093,Right,0,74,70,1193.25,0.239583,Sixteenth,D5
8094,Right,0,72,70,1193.5,0.239583,Sixteenth,C5
8095,Right,0,70,70,1193.75,0.239583,Sixteenth,A#4
8096,Right,0,75,70,1194.0,0.989583,Quarter,D#5
8097,Right,0,67,70,1195.5,0.239583,Sixteenth,G4
8098,Left,1,55,70,1195.5,0.239583,Sixteenth,G3
8099,Right,0,65,70,1195.75,0.239583,Sixteenth,F4
8100,Left,1,53,70,1195.75,0.239583,Sixteenth,F3
8101,Right,0,63,70,1196.0,0.239583,Sixteenth,D#4
8102,Left,1,51,70,1196.0,0.239583,Sixteenth,D#3
8104,Left,1,50,70,1196.25,0.239583,Sixteenth,D3
8103,Right,0,62,70,1196.25,0.239583,Sixteenth,D4
8106,Left,1,48,70,1196.5,0.239583,Sixteenth,C3
8105,Right,0,60,70,1196.5,0.239583,Sixteenth,C4
8108,Right,0,59,70,1196.75,0.239583,Sixteenth,B3
8107,Left,1,47,70,1196.75,0.239583,Sixteenth,B2
8110,Left,1,51,70,1197.0,0.989583,Quarter,D#3
8109,Right,0,63,70,1197.0,0.989583,Quarter,D#4
8112,Left,1,67,70,1198.5,0.239583,Sixteenth,G4
8111,Right,0,79,70,1198.5,0.239583,Sixteenth,G5
8113,Left,1,65,70,1198.75,0.239583,Sixteenth,F4
8114,Right,0,77,70,1198.75,0.239583,Sixteenth,F5
8115,Left,1,63,70,1199.0,0.239583,Sixteenth,D#4
8116,Right,0,75,70,1199.0,0.239583,Sixteenth,D#5
8117,Left,1,62,70,1199.25,0.239583,Sixteenth,D4
8118,Right,0,74,70,1199.25,0.239583,Sixteenth,D5
8119,Right,0,72,70,1199.5,0.239583,Sixteenth,C5
8120,Left,1,60,70,1199.5,0.239583,Sixteenth,C4
8122,Left,1,59,70,1199.75,0.239583,Sixteenth,B3
8121,Right,0,71,70,1199.75,0.239583,Sixteenth,B4
8124,Left,1,67,70,1200.0,0.239583,Sixteenth,G4
8123,Right,0,79,70,1200.0,0.239583,Sixteenth,G5
8126,Left,1,65,72,1200.25,0.239583,Sixteenth,F4
8125,Right,0,77,72,1200.25,0.239583,Sixteenth,F5
8127,Right,0,75,74,1200.5,0.239583,Sixteenth,D#5
8128,Left,1,63,74,1200.5,0.239583,Sixteenth,D#4
8130,Right,0,74,76,1200.75,0.239583,Sixteenth,D5
8129,Left,1,62,76,1200.75,0.239583,Sixteenth,D4
8132,Left,1,60,78,1201.0,0.239583,Sixteenth,C4
8131,Right,0,72,78,1201.0,0.239583,Sixteenth,C5
8133,Right,0,70,81,1201.25,0.239583,Sixteenth,A#4
8134,Left,1,58,81,1201.25,0.239583,Sixteenth,A#3
8135,Right,0,69,83,1201.5,0.239583,Sixteenth,A4
8136,Left,1,57,83,1201.5,0.239583,Sixteenth,A3
8137,Right,0,67,85,1201.75,0.239583,Sixteenth,G4
8138,Left,1,55,85,1201.75,0.239583,Sixteenth,G3
8139,Left,1,53,87,1202.0,0.239583,Sixteenth,F3
8140,Right,0,65,87,1202.0,0.239583,Sixteenth,F4
8141,Right,0,63,89,1202.25,0.239583,Sixteenth,D#4
8142,Left,1,51,89,1202.25,0.239583,Sixteenth,D#3
8144,Left,1,50,92,1202.5,0.239583,Sixteenth,D3
8143,Right,0,62,92,1202.5,0.239583,Sixteenth,D4
8146,Right,0,60,94,1202.75,0.239583,Sixteenth,C4
8145,Left,1,48,94,1202.75,0.239583,Sixteenth,C3
8148,Right,0,58,96,1203.0,0.239583,Sixteenth,A#3
8147,Left,1,46,96,1203.0,0.239583,Sixteenth,A#2
8149,Right,0,57,98,1203.25,0.239583,Sixteenth,A3
8150,Left,1,45,98,1203.25,0.239583,Sixteenth,A2
8152,Right,0,55,100,1203.5,0.239583,Sixteenth,G3
8151,Left,1,43,100,1203.5,0.239583,Sixteenth,G2
8153,Right,0,53,103,1203.75,0.239583,Sixteenth,F3
8154,Left,1,41,103,1203.75,0.239583,Sixteenth,F2
8156,Left,1,39,105,1204.0,0.239583,Sixteenth,D#2
8155,Right,0,51,105,1204.0,0.239583,Sixteenth,D#3
8158,Left,1,38,107,1204.25,0.239583,Sixteenth,D2
8157,Right,0,50,107,1204.25,0.239583,Sixteenth,D3
8160,Left,1,36,109,1204.5,0.239583,Sixteenth,C2
8159,Right,0,48,109,1204.5,0.239583,Sixteenth,C3
8162,Right,0,46,112,1204.75,0.239583,Sixteenth,A#2
8161,Left,1,34,112,1204.75,0.239583,Sixteenth,A#1
8164,Right,0,45,114,1205.0,0.239583,Sixteenth,A2
8163,Left,1,33,114,1205.0,0.239583,Sixteenth,A1
8166,Left,1,31,116,1205.25,0.239583,Sixteenth,G1
8165,Right,0,43,116,1205.25,0.239583,Sixteenth,G2
8168,Left,1,29,118,1205.5,0.239583,Sixteenth,F1
8167,Right,0,41,118,1205.5,0.239583,Sixteenth,F2
8170,Left,1,28,120,1205.75,0.239583,Sixteenth,E1
8169,Right,0,40,120,1205.75,0.239583,Sixteenth,E2
8173,Left,1,29,110,1206.0,0.489583,Eighth,F1
8171,Right,0,41,110,1206.0,0.489583,Eighth,F3_F2
8176,Left,1,45,110,1207.0,0.208333,Sixteenth,A2
8174,Right,0,81,110,1207.0,1.989583,Sixteenth,A5_A4
8178,Right,0,82,110,1207.125,0.208333,Sixteenth,A#5
8177,Left,1,46,110,1207.125,0.208333,Sixteenth,A#2
8179,Left,1,45,110,1207.25,0.208333,Sixteenth,A2
8180,Right,0,81,110,1207.25,0.208333,Sixteenth,A5
8182,Right,0,82,110,1207.375,0.208333,Sixteenth,A#5
8181,Left,1,46,110,1207.375,0.208333,Sixteenth,A#2
8184,Right,0,81,110,1207.5,0.208333,Sixteenth,A5
8183,Left,1,45,110,1207.5,0.208333,Sixteenth,A2
8186,Right,0,82,110,1207.625,0.208333,Sixteenth,A#5
8185,Left,1,46,110,1207.625,0.208333,Sixteenth,A#2
8187,Right,0,81,110,1207.75,0.208333,Sixteenth,A5
8188,Left,1,45,110,1207.75,0.208333,Sixteenth,A2
8190,Right,0,82,110,1207.875,0.208333,Sixteenth,A#5
8189,Left,1,46,110,1207.875,0.208333,Sixteenth,A#2
8191,Left,1,45,110,1208.0,0.208333,Sixteenth,A2
8192,Right,0,81,110,1208.0,0.208333,Sixteenth,A5
8194,Left,1,46,110,1208.125,0.208333,Sixteenth,A#2
8193,Right,0,82,110,1208.125,0.208333,Sixteenth,A#5
8195,Left,1,45,110,1208.25,0.208333,Sixteenth,A2
8196,Right,0,81,110,1208.25,0.208333,Sixteenth,A5
8197,Right,0,82,110,1208.375,0.208333,Sixteenth,A#5
8198,Left,1,46,110,1208.375,0.208333,Sixteenth,A#2
8199,Left,1,45,110,1208.5,0.208333,Sixteenth,A2
8200,Right,0,81,110,1208.5,0.208333,Sixteenth,A5
8202,Left,1,46,110,1208.625,0.208333,Sixteenth,A#2
8201,Right,0,82,110,1208.625,0.208333,Sixteenth,A#5
8203,Left,1,43,110,1208.75,0.208333,Sixteenth,G2
8204,Right,0,79,110,1208.75,0.208333,Sixteenth,G5
8205,Left,1,45,110,1208.875,0.208333,Sixteenth,A2
8206,Right,0,81,110,1208.875,0.208333,Sixteenth,A5
8207,Left,1,46,110,1209.0,0.489583,Eighth,A#2
8208,Right,0,82,110,1209.0,0.489583,Eighth,A#5_A#4
8211,Right,0,67,110,1210.0,0.489583,Eighth,G4_G3
8210,Left,1,31,110,1210.0,0.489583,Eighth,G1
8214,Right,0,83,110,1211.0,1.989583,Sixteenth,B5_B4
8213,Left,1,47,110,1211.0,0.208333,Sixteenth,B2
8217,Left,1,48,110,1211.125,0.208333,Sixteenth,C3
8216,Right,0,84,110,1211.125,0.208333,Sixteenth,C6
8219,Right,0,83,110,1211.25,0.208333,Sixteenth,B5
8218,Left,1,47,110,1211.25,0.208333,Sixteenth,B2
8220,Left,1,48,110,1211.375,0.208333,Sixteenth,C3
8221,Right,0,84,110,1211.375,0.208333,Sixteenth,C6
8222,Right,0,83,110,1211.5,0.208333,Sixteenth,B5
8223,Left,1,47,110,1211.5,0.208333,Sixteenth,B2
8224,Left,1,48,110,1211.625,0.208333,Sixteenth,C3
8225,Right,0,84,110,1211.625,0.208333,Sixteenth,C6
8226,Left,1,47,110,1211.75,0.208333,Sixteenth,B2
8227,Right,0,83,110,1211.75,0.208333,Sixteenth,B5
8229,Right,0,84,110,1211.875,0.208333,Sixteenth,C6
8228,Left,1,48,110,1211.875,0.208333,Sixteenth,C3
8230,Right,0,83,110,1212.0,0.208333,Sixteenth,B5
8231,Left,1,47,110,1212.0,0.208333,Sixteenth,B2
8232,Right,0,84,110,1212.125,0.208333,Sixteenth,C6
8233,Left,1,48,110,1212.125,0.208333,Sixteenth,C3
8234,Left,1,47,110,1212.25,0.208333,Sixteenth,B2
8235,Right,0,83,110,1212.25,0.208333,Sixteenth,B5
8236,Left,1,48,110,1212.375,0.208333,Sixteenth,C3
8237,Right,0,84,110,1212.375,0.208333,Sixteenth,C6
8239,Left,1,47,110,1212.5,0.208333,Sixteenth,B2
8238,Right,0,83,110,1212.5,0.208333,Sixteenth,B5
8240,Right,0,84,110,1212.625,0.208333,Sixteenth,C6
8241,Left,1,48,110,1212.625,0.208333,Sixteenth,C3
8243,Left,1,45,110,1212.75,0.208333,Sixteenth,A2
8242,Right,0,81,110,1212.75,0.208333,Sixteenth,A5
8245,Left,1,47,110,1212.875,0.208333,Sixteenth,B2
8244,Right,0,83,110,1212.875,0.208333,Sixteenth,B5
8246,Right,0,72,110,1213.0,0.489583,Eighth,C6_C5
8247,Left,1,48,110,1213.0,0.489583,Eighth,C3
8249,Right,0,69,110,1214.0,0.489583,Eighth,A4_A3
8251,Left,1,33,110,1214.0,0.489583,Eighth,A1
8253,Left,1,49,110,1215.0,0.208333,Sixteenth,C#3
8252,Right,0,73,110,1215.0,1.989583,Half,C#6_C#5
8256,Right,0,86,110,1215.125,0.208333,Sixteenth,D6
8255,Left,1,50,110,1215.125,0.208333,Sixteenth,D3
8258,Right,0,85,110,1215.25,0.208333,Sixteenth,C#6
8257,Left,1,49,110,1215.25,0.208333,Sixteenth,C#3
8260,Left,1,50,110,1215.375,0.208333,Sixteenth,D3
8259,Right,0,86,110,1215.375,0.208333,Sixteenth,D6
8261,Left,1,49,110,1215.5,0.208333,Sixteenth,C#3
8262,Right,0,85,110,1215.5,0.208333,Sixteenth,C#6
8263,Left,1,50,110,1215.625,0.208333,Sixteenth,D3
8264,Right,0,86,110,1215.625,0.208333,Sixteenth,D6
8265,Right,0,85,110,1215.75,0.208333,Sixteenth,C#6
8266,Left,1,49,110,1215.75,0.208333,Sixteenth,C#3
8268,Left,1,50,110,1215.875,0.208333,Sixteenth,D3
8267,Right,0,86,110,1215.875,0.208333,Sixteenth,D6
8270,Left,1,49,110,1216.0,0.208333,Sixteenth,C#3
8269,Right,0,85,110,1216.0,0.208333,Sixteenth,C#6
8271,Left,1,50,110,1216.125,0.208333,Sixteenth,D3
8272,Right,0,86,110,1216.125,0.208333,Sixteenth,D6
8274,Left,1,49,110,1216.25,0.208333,Sixteenth,C#3
8273,Right,0,85,110,1216.25,0.208333,Sixteenth,C#6
8276,Left,1,50,110,1216.375,0.208333,Sixteenth,D3
8275,Right,0,86,110,1216.375,0.208333,Sixteenth,D6
8277,Left,1,49,110,1216.5,0.208333,Sixteenth,C#3
8278,Right,0,85,110,1216.5,0.208333,Sixteenth,C#6
8280,Left,1,50,110,1216.625,0.208333,Sixteenth,D3
8279,Right,0,86,110,1216.625,0.208333,Sixteenth,D6
8281,Right,0,83,110,1216.75,0.208333,Sixteenth,B5
8282,Left,1,47,110,1216.75,0.208333,Sixteenth,B2
8284,Left,1,49,110,1216.875,0.208333,Sixteenth,C#3
8283,Right,0,85,110,1216.875,0.208333,Sixteenth,C#6
8286,Left,1,50,110,1217.0,0.489583,Eighth,D3
8285,Right,0,86,110,1217.0,0.489583,Eighth,D6_D5
8288,Right,0,70,110,1218.0,0.489583,Eighth,A#4_A#3
8290,Left,1,34,110,1218.0,0.489583,Eighth,A#1
8291,Right,0,74,110,1219.0,1.989583,Half,D6_D5
8292,Left,1,50,110,1219.0,0.208333,Sixteenth,D3
8295,Right,0,87,110,1219.125,0.208333,Sixteenth,D#6
8294,Left,1,51,110,1219.125,0.208333,Sixteenth,D#3
8297,Left,1,50,110,1219.25,0.208333,Sixteenth,D3
8296,Right,0,86,110,1219.25,0.208333,Sixteenth,D6
8299,Left,1,51,110,1219.375,0.208333,Sixteenth,D#3
8298,Right,0,87,110,1219.375,0.208333,Sixteenth,D#6
8301,Left,1,50,110,1219.5,0.208333,Sixteenth,D3
8300,Right,0,86,110,1219.5,0.208333,Sixteenth,D6
8302,Left,1,51,110,1219.625,0.208333,Sixteenth,D#3
8303,Right,0,87,110,1219.625,0.208333,Sixteenth,D#6
8304,Left,1,50,110,1219.75,0.208333,Sixteenth,D3
8305,Right,0,86,110,1219.75,0.208333,Sixteenth,D6
8306,Right,0,87,110,1219.875,0.208333,Sixteenth,D#6
8307,Left,1,51,110,1219.875,0.208333,Sixteenth,D#3
8308,Left,1,50,110,1220.0,0.208333,Sixteenth,D3
8309,Right,0,86,110,1220.0,0.208333,Sixteenth,D6
8311,Right,0,87,110,1220.125,0.208333,Sixteenth,D#6
8310,Left,1,51,110,1220.125,0.208333,Sixteenth,D#3
8312,Right,0,86,110,1220.25,0.208333,Sixteenth,D6
8313,Left,1,50,110,1220.25,0.208333,Sixteenth,D3
8314,Left,1,51,110,1220.375,0.208333,Sixteenth,D#3
8315,Right,0,87,110,1220.375,0.208333,Sixteenth,D#6
8316,Left,1,50,110,1220.5,0.208333,Sixteenth,D3
8317,Right,0,86,110,1220.5,0.208333,Sixteenth,D6
8318,Left,1,51,110,1220.625,0.208333,Sixteenth,D#3
8319,Right,0,87,110,1220.625,0.208333,Sixteenth,D#6
8320,Left,1,48,110,1220.75,0.208333,Sixteenth,C3
8321,Right,0,84,110,1220.75,0.208333,Sixteenth,C6
8323,Left,1,50,110,1220.875,0.208333,Sixteenth,D3
8322,Right,0,86,110,1220.875,0.208333,Sixteenth,D6
8324,Right,0,75,110,1221.0,0.489583,Eighth,D#6_D#5
8326,Left,1,51,110,1221.0,0.489583,Eighth,D#3
8328,Right,0,72,110,1222.0,0.489583,Eighth,C5_C4
8327,Left,1,48,110,1222.0,0.489583,Eighth,C3
8331,Right,0,88,110,1223.0,1.989583,Sixteenth,E6_E5
8330,Left,1,52,110,1223.0,0.208333,Sixteenth,E3
8334,Right,0,89,110,1223.125,0.208333,Sixteenth,F6
8333,Left,1,53,110,1223.125,0.208333,Sixteenth,F3
8336,Right,0,88,110,1223.25,0.208333,Sixteenth,E6
8335,Left,1,52,110,1223.25,0.208333,Sixteenth,E3
8338,Right,0,89,110,1223.375,0.208333,Sixteenth,F6
8337,Left,1,53,110,1223.375,0.208333,Sixteenth,F3
8339,Right,0,88,110,1223.5,0.208333,Sixteenth,E6
8340,Left,1,52,110,1223.5,0.208333,Sixteenth,E3
8341,Left,1,53,110,1223.625,0.208333,Sixteenth,F3
8342,Right,0,89,110,1223.625,0.208333,Sixteenth,F6
8343,Right,0,88,110,1223.75,0.208333,Sixteenth,E6
8344,Left,1,52,110,1223.75,0.208333,Sixteenth,E3
8345,Left,1,53,110,1223.875,0.208333,Sixteenth,F3
8346,Right,0,89,110,1223.875,0.208333,Sixteenth,F6
8348,Left,1,52,110,1224.0,0.208333,Sixteenth,E3
8347,Right,0,88,110,1224.0,0.208333,Sixteenth,E6
8350,Left,1,53,110,1224.125,0.208333,Sixteenth,F3
8349,Right,0,89,110,1224.125,0.208333,Sixteenth,F6
8351,Left,1,52,110,1224.25,0.208333,Sixteenth,E3
8352,Right,0,88,110,1224.25,0.208333,Sixteenth,E6
8354,Left,1,53,110,1224.375,0.208333,Sixteenth,F3
8353,Right,0,89,110,1224.375,0.208333,Sixteenth,F6
8355,Left,1,52,110,1224.5,0.208333,Sixteenth,E3
8356,Right,0,88,110,1224.5,0.208333,Sixteenth,E6
8357,Left,1,53,110,1224.625,0.208333,Sixteenth,F3
8358,Right,0,89,110,1224.625,0.208333,Sixteenth,F6
8360,Right,0,86,110,1224.75,0.208333,Sixteenth,D6
8359,Left,1,50,110,1224.75,0.208333,Sixteenth,D3
8361,Left,1,52,110,1224.875,0.208333,Sixteenth,E3
8362,Right,0,88,110,1224.875,0.208333,Sixteenth,E6
8364,Right,0,77,110,1225.0,0.489583,Eighth,F6_F5
8363,Left,1,53,110,1225.0,0.489583,Eighth,F3
8366,Right,0,74,110,1226.0,0.489583,Eighth,D5_D4
8368,Left,1,38,110,1226.0,0.489583,Eighth,D2
8370,Right,0,78,110,1227.0,1.989583,Half,F#6_F#5
8369,Left,1,54,110,1227.0,0.208333,Sixteenth,F#3
8372,Right,0,91,110,1227.125,0.208333,Sixteenth,G6
8373,Left,1,55,110,1227.125,0.208333,Sixteenth,G3
8374,Right,0,90,110,1227.25,0.208333,Sixteenth,F#6
8375,Left,1,54,110,1227.25,0.208333,Sixteenth,F#3
8376,Right,0,91,110,1227.375,0.208333,Sixteenth,G6
8377,Left,1,55,110,1227.375,0.208333,Sixteenth,G3
8379,Left,1,54,110,1227.5,0.208333,Sixteenth,F#3
8378,Right,0,90,110,1227.5,0.208333,Sixteenth,F#6
8380,Right,0,91,110,1227.625,0.208333,Sixteenth,G6
8381,Left,1,55,110,1227.625,0.208333,Sixteenth,G3
8383,Left,1,54,110,1227.75,0.208333,Sixteenth,F#3
8382,Right,0,90,110,1227.75,0.208333,Sixteenth,F#6
8384,Right,0,91,110,1227.875,0.208333,Sixteenth,G6
8385,Left,1,55,110,1227.875,0.208333,Sixteenth,G3
8387,Right,0,90,110,1228.0,0.208333,Sixteenth,F#6
8386,Left,1,54,110,1228.0,0.208333,Sixteenth,F#3
8388,Right,0,91,110,1228.125,0.208333,Sixteenth,G6
8389,Left,1,55,110,1228.125,0.208333,Sixteenth,G3
8390,Right,0,90,110,1228.25,0.208333,Sixteenth,F#6
8391,Left,1,54,110,1228.25,0.208333,Sixteenth,F#3
8393,Right,0,91,110,1228.375,0.208333,Sixteenth,G6
8392,Left,1,55,110,1228.375,0.208333,Sixteenth,G3
8395,Right,0,90,110,1228.5,0.208333,Sixteenth,F#6
8394,Left,1,54,110,1228.5,0.208333,Sixteenth,F#3
8397,Left,1,55,110,1228.625,0.208333,Sixteenth,G3
8396,Right,0,91,110,1228.625,0.208333,Sixteenth,G6
8398,Left,1,52,110,1228.75,0.208333,Sixteenth,E3
8399,Right,0,88,110,1228.75,0.208333,Sixteenth,E6
8401,Left,1,54,110,1228.875,0.208333,Sixteenth,F#3
8400,Right,0,90,110,1228.875,0.208333,Sixteenth,F#6
8402,Left,1,55,110,1229.0,0.489583,Eighth,G3
8403,Right,0,79,110,1229.0,0.489583,Eighth,G6_G5
8405,Left,1,51,110,1230.0,0.489583,Eighth,D#3_D#2
8406,Right,0,75,110,1230.0,0.489583,Eighth,D#5_D#4
8410,Left,1,60,120,1231.0,1.489583,DottedQuarter,F4_F3_D#4_C4
8409,Right,0,89,120,1231.0,1.489583,DottedQuarter,F6_D#6_C6_A6_A5
8418,Left,1,58,120,1233.0,1.489583,DottedQuarter,F3_D3_A#3_A#2
8419,Right,0,94,120,1233.0,1.489583,DottedQuarter,F6_D6_A#6_A#5
8428,Right,0,81,120,1235.0,1.489583,DottedQuarter,F5_D#5_C5_A5_A4
8426,Left,1,48,120,1235.0,1.489583,DottedQuarter,F3_F2_D#3_C3
8435,Left,1,34,120,1238.0,6.989583,Unknown,F2_D2_A#2_A#1
8437,Right,0,82,120,1238.0,6.989583,Unknown,F5_D5_A#5_A#4
