,hand,channel,note,velocity,start_beat,duration,note_value,chord
2,Left,1,40,80,0.0,1.979167,Quarter,E3_E2
0,Right,0,68,80,0.0,1.979167,DottedSixteenth,G#4_B3
4,Right,0,66,80,0.75,0.229167,ThirtySecond,F#4
5,Right,0,68,80,1.0,0.479167,Sixteenth,G#4
6,Right,0,69,80,1.5,0.479167,Sixteenth,A4
9,Left,1,45,80,2.0,0.979167,Eighth,D#3_A2
7,Right,0,66,80,2.0,0.979167,Eighth,F#4_B3
11,Left,1,52,80,4.0,1.979167,Quarter,G#2_E3
13,Right,0,64,80,4.0,1.979167,DottedSixteenth,E4_B3
15,Right,0,63,80,4.75,0.229167,ThirtySecond,D#4
16,Right,0,64,80,5.0,0.479167,Sixteenth,E4
17,Right,0,66,80,5.5,0.479167,Sixteenth,F#4
18,Left,1,51,80,6.0,0.979167,Eighth,F#2_D#3
20,Right,0,63,80,6.0,0.979167,Eighth,D#4_B3_A3
23,Right,0,59,80,7.5,0.479167,Sixteenth,B3
25,Right,0,59,80,8.0,0.479167,Sixteenth,E4_B3
24,Left,1,56,80,8.0,0.479167,Sixteenth,G#3
27,Right,0,59,80,8.5,0.479167,Sixteenth,F#4_B3
28,Left,1,51,80,8.5,0.479167,Sixteenth,D#3
30,Right,0,64,80,9.0,0.479167,Sixteenth,G#4_E4_B3
31,Left,1,52,80,9.0,0.479167,Sixteenth,E3
37,Left,1,57,80,9.5,0.479167,Sixteenth,A3_A2
34,Right,0,61,80,9.5,0.479167,Sixteenth,F#4_C#4_A4
41,Left,1,47,80,10.0,0.979167,Eighth,B3_B2
39,Right,0,63,80,10.0,0.979167,Eighth,F#4_D#4
45,Left,1,45,80,11.5,0.479167,Sixteenth,F#3_A2
43,Right,0,63,80,11.5,0.479167,Sixteenth,D#4_B4
47,Right,0,71,80,12.0,0.479167,Sixteenth,E4_B4
49,Left,1,56,80,12.0,0.479167,Sixteenth,G#3_G#2
51,Left,1,51,80,12.5,0.479167,Sixteenth,F#2_D#3
52,Right,0,59,80,12.5,0.479167,Sixteenth,B3_A4
57,Right,0,59,80,13.0,0.479167,Sixteenth,G#4_B3
55,Left,1,52,80,13.0,0.479167,Sixteenth,E3_E2
59,Left,1,57,80,13.5,0.229167,ThirtySecond,A3_A2
61,Right,0,73,80,13.5,0.229167,ThirtySecond,C#5_C#4
64,Left,1,54,80,13.75,0.229167,ThirtySecond,F#3
63,Right,0,69,80,13.75,0.229167,ThirtySecond,A4
65,Left,1,51,80,14.0,0.979167,Eighth,D#3_B2
67,Right,0,66,80,14.0,0.979167,Eighth,F#4_B3
70,Right,0,69,80,16.0,1.979167,DottedSixteenth,C#4_A4
69,Left,1,42,80,16.0,1.979167,Quarter,F#3_F#2
73,Right,0,68,80,16.75,0.229167,ThirtySecond,G#4
74,Right,0,69,80,17.0,0.479167,Sixteenth,A4
75,Right,0,71,80,17.5,0.479167,Sixteenth,B4
78,Left,1,53,80,18.0,0.979167,Eighth,F3_B2
76,Right,0,61,80,18.0,0.979167,Eighth,G#4_C#4
80,Right,0,66,80,20.0,1.979167,DottedSixteenth,F#4_C#4
82,Left,1,45,80,20.0,1.979167,Quarter,C#3_A3_A2
85,Right,0,65,80,20.75,0.229167,ThirtySecond,F4
86,Right,0,66,80,21.0,0.479167,Sixteenth,F#4
87,Right,0,68,80,21.5,0.479167,Sixteenth,G#4
88,Left,1,56,80,22.0,0.979167,Eighth,G#3_G#2_C#3
89,Right,0,65,80,22.0,0.979167,Eighth,F4_C#4_B3
94,Right,0,64,80,23.5,0.979167,Eighth,E4_A#4
95,Left,1,61,80,23.5,0.979167,Eighth,F#3_C#4
98,Right,0,71,80,24.5,0.479167,Sixteenth,D#4_B4
99,Left,1,47,80,24.5,0.479167,Sixteenth,B3_B2
102,Right,0,62,80,25.5,0.979167,Eighth,G#4_D4
103,Left,1,52,80,25.5,0.979167,Eighth,E3_B3
108,Right,0,69,80,26.5,0.479167,Sixteenth,C#4_A4
106,Left,1,57,80,26.5,0.479167,Sixteenth,A3_A2
112,Right,0,61,80,27.5,0.479167,Sixteenth,F#4_C#4
110,Left,1,57,80,27.5,0.479167,Sixteenth,A3_A2
117,Left,1,47,80,28.0,1.979167,Quarter,B2
114,Right,0,56,80,28.0,0.979167,Eighth,G#3_E4_B3
118,Right,0,66,80,29.0,0.979167,Eighth,F#4_D#4_A3
123,Right,0,68,80,30.0,0.979167,Eighth,G#4_E4_B3
121,Left,1,52,80,30.0,0.979167,Eighth,E3_E2
126,Left,1,52,80,31.5,0.979167,Eighth,E3_A#3
128,Right,0,78,80,32.0,0.979167,Eighth,F#5_F#4
130,Left,1,51,80,32.5,0.479167,Sixteenth,D#3_B3
132,Right,0,71,80,33.0,0.479167,Sixteenth,B5_B4
134,Left,1,50,80,33.5,0.979167,Eighth,G#3_D3
136,Right,0,76,80,34.0,0.979167,Eighth,E5_E4
138,Left,1,57,80,34.5,0.479167,Sixteenth,C#3_A3
140,Right,0,69,80,35.0,0.479167,Sixteenth,A5_A4
142,Right,0,72,80,36.75,0.229167,ThirtySecond,C5
143,Right,0,73,80,37.0,0.229167,ThirtySecond,C#5
144,Right,0,68,80,37.25,0.229167,ThirtySecond,G#4
145,Right,0,69,80,37.5,0.354167,TripletSixteenth,A4
146,Right,0,66,80,37.864583,0.104167,SixtyFourth,F#4
150,Left,1,35,80,38.0,1.979167,Quarter,B2_B1
147,Right,0,54,80,38.0,1.979167,Quarter,F#3_C#4_A3
152,Right,0,63,80,39.0,0.979167,Eighth,D#4
153,Left,1,40,80,40.0,1.979167,Quarter,E3_E2
155,Right,0,64,80,40.25,0.479167,Sixteenth,E4
156,Right,0,67,80,40.5,0.479167,Sixteenth,G4
157,Right,0,71,80,40.75,0.479167,Sixteenth,B4
158,Right,0,72,80,41.0,0.479167,Sixteenth,C5
159,Right,0,71,80,41.25,0.479167,Sixteenth,B4
160,Right,0,64,80,41.5,0.479167,Sixteenth,E4
161,Right,0,71,80,41.75,0.479167,Sixteenth,B4
162,Left,1,55,80,42.0,1.979167,Quarter,G3_G2
164,Right,0,64,80,42.25,0.479167,Sixteenth,E4
165,Right,0,67,80,42.5,0.479167,Sixteenth,G4
166,Right,0,71,80,42.75,0.479167,Sixteenth,B4
167,Right,0,72,80,43.0,0.479167,Sixteenth,C5
168,Right,0,71,80,43.25,0.479167,Sixteenth,B4
169,Right,0,64,80,43.5,0.479167,Sixteenth,E4
170,Right,0,71,80,43.75,0.479167,Sixteenth,B4
171,Left,1,54,80,44.0,1.979167,Quarter,F#3_F#2
173,Right,0,63,80,44.25,0.479167,Sixteenth,D#4
174,Right,0,69,80,44.5,0.479167,Sixteenth,A4
175,Right,0,71,80,44.75,0.479167,Sixteenth,B4
176,Right,0,72,80,45.0,0.479167,Sixteenth,C5
177,Right,0,71,80,45.25,0.479167,Sixteenth,B4
178,Right,0,63,80,45.5,0.479167,Sixteenth,D#4
179,Right,0,71,80,45.75,0.479167,Sixteenth,B4
180,Left,1,57,80,46.0,1.979167,Quarter,A3_A2
182,Right,0,63,80,46.25,0.479167,Sixteenth,D#4
183,Right,0,66,80,46.5,0.479167,Sixteenth,F#4
184,Right,0,71,80,46.75,0.479167,Sixteenth,B4
185,Right,0,72,80,47.0,0.479167,Sixteenth,C5
186,Right,0,71,80,47.25,0.479167,Sixteenth,B4
187,Right,0,63,80,47.5,0.479167,Sixteenth,D#4
188,Right,0,71,80,47.75,0.479167,Sixteenth,B4
189,Left,1,55,80,48.0,0.979167,Eighth,G3_G2
191,Right,0,64,80,48.25,0.479167,Sixteenth,E4
192,Right,0,67,80,48.5,0.479167,Sixteenth,G4
193,Right,0,71,80,48.75,0.479167,Sixteenth,B4
194,Right,0,72,80,49.0,0.479167,Sixteenth,C5
195,Right,0,71,80,49.25,0.479167,Sixteenth,B4
197,Left,1,83,80,49.5,0.979167,Eighth,B5
196,Right,0,67,80,49.5,0.479167,Sixteenth,G4
198,Right,0,64,80,49.75,0.479167,Sixteenth,E4
199,Left,1,84,80,50.0,0.979167,Eighth,C6
200,Right,0,69,80,50.25,0.479167,Sixteenth,A4
202,Right,0,66,80,50.5,0.479167,Sixteenth,F#4
201,Left,1,81,80,50.5,0.979167,Eighth,A5
203,Right,0,72,80,50.75,0.479167,Sixteenth,C5
205,Right,0,67,80,51.0,0.479167,Sixteenth,G4
204,Left,1,79,80,51.0,0.979167,Eighth,G5
206,Right,0,71,80,51.25,0.479167,Sixteenth,B4
208,Left,1,78,80,51.5,0.479167,Sixteenth,F#5
207,Right,0,69,80,51.5,0.479167,Sixteenth,A4
209,Right,0,72,80,51.75,0.479167,Sixteenth,C5
210,Left,1,55,80,52.0,1.979167,Quarter,G3_G2
212,Right,0,62,80,52.25,0.479167,Sixteenth,D4
213,Right,0,67,80,52.5,0.479167,Sixteenth,G4
214,Right,0,71,80,52.75,0.479167,Sixteenth,B4
215,Right,0,72,80,53.0,0.479167,Sixteenth,C5
216,Right,0,71,80,53.25,0.479167,Sixteenth,B4
217,Right,0,67,80,53.5,0.479167,Sixteenth,G4
218,Right,0,62,80,53.75,0.479167,Sixteenth,D4
219,Left,1,59,80,54.0,1.979167,Quarter,B3_B2
221,Right,0,62,80,54.25,0.479167,Sixteenth,D4
222,Right,0,67,80,54.5,0.479167,Sixteenth,G4
223,Right,0,74,80,54.75,0.479167,Sixteenth,D5
224,Right,0,73,80,55.0,0.479167,Sixteenth,C#5
225,Right,0,74,80,55.25,0.479167,Sixteenth,D5
226,Right,0,67,80,55.5,0.479167,Sixteenth,G4
227,Right,0,62,80,55.75,0.479167,Sixteenth,D4
228,Left,1,45,80,56.0,1.979167,Quarter,A3_A2
230,Right,0,66,80,56.25,0.479167,Sixteenth,F#4
231,Right,0,69,80,56.5,0.479167,Sixteenth,A4
232,Right,0,72,80,56.75,0.479167,Sixteenth,C5
233,Right,0,71,80,57.0,0.479167,Sixteenth,B4
234,Right,0,72,80,57.25,0.479167,Sixteenth,C5
235,Right,0,69,80,57.5,0.479167,Sixteenth,A4
236,Right,0,66,80,57.75,0.479167,Sixteenth,F#4
237,Left,1,60,80,58.0,1.979167,Quarter,C4_C3
239,Right,0,66,80,58.25,0.479167,Sixteenth,F#4
240,Right,0,69,80,58.5,0.479167,Sixteenth,A4
241,Right,0,75,80,58.75,0.479167,Sixteenth,D#5
242,Right,0,74,80,59.0,0.479167,Sixteenth,D5
243,Right,0,75,80,59.25,0.479167,Sixteenth,D#5
244,Right,0,69,80,59.5,0.479167,Sixteenth,A4
245,Right,0,66,80,59.75,0.479167,Sixteenth,F#4
246,Left,1,47,80,60.0,0.979167,Eighth,B3_B2
248,Right,0,62,80,60.25,0.479167,Sixteenth,D4
249,Right,0,67,80,60.5,0.479167,Sixteenth,G4
250,Right,0,71,80,60.75,0.479167,Sixteenth,B4
251,Right,0,73,80,61.0,0.479167,Sixteenth,C#5
252,Right,0,74,80,61.25,0.479167,Sixteenth,D5
254,Left,1,86,80,61.5,0.979167,Eighth,D6
253,Right,0,71,80,61.5,0.479167,Sixteenth,B4
255,Right,0,67,80,61.75,0.479167,Sixteenth,G4
257,Left,1,84,80,62.0,0.979167,Eighth,C6
256,Right,0,66,80,62.0,0.479167,Sixteenth,F#4
258,Right,0,69,80,62.25,0.479167,Sixteenth,A4
260,Left,1,83,80,62.5,0.979167,Eighth,B5
259,Right,0,67,80,62.5,0.479167,Sixteenth,G4
261,Right,0,71,80,62.75,0.479167,Sixteenth,B4
262,Right,0,69,80,63.0,0.479167,Sixteenth,A4
263,Left,1,81,80,63.0,0.979167,Eighth,A5
264,Right,0,72,80,63.25,0.479167,Sixteenth,C5
265,Left,1,79,80,63.5,0.479167,Sixteenth,G5
266,Right,0,71,80,63.5,0.479167,Sixteenth,B4
267,Right,0,74,80,63.75,0.479167,Sixteenth,D5
268,Left,1,48,80,64.0,0.979167,Eighth,C4_C3
270,Right,0,64,80,64.25,0.479167,Sixteenth,E4
271,Right,0,69,80,64.5,0.479167,Sixteenth,A4
272,Right,0,72,80,64.75,0.479167,Sixteenth,C5
273,Right,0,75,80,65.0,0.479167,Sixteenth,D#5
274,Right,0,76,80,65.25,0.479167,Sixteenth,E5
275,Left,1,88,80,65.5,0.979167,Eighth,E6
276,Right,0,72,80,65.5,0.479167,Sixteenth,C5
277,Right,0,69,80,65.75,0.479167,Sixteenth,A4
278,Right,0,68,80,66.0,0.479167,Sixteenth,G#4
279,Left,1,86,80,66.0,0.979167,Eighth,D6
280,Right,0,71,80,66.25,0.479167,Sixteenth,B4
281,Right,0,69,80,66.5,0.479167,Sixteenth,A4
282,Left,1,84,80,66.5,0.979167,Eighth,C6
283,Right,0,72,80,66.75,0.479167,Sixteenth,C5
284,Right,0,71,80,67.0,0.479167,Sixteenth,B4
285,Left,1,83,80,67.0,0.979167,Eighth,B5
286,Right,0,74,80,67.25,0.479167,Sixteenth,D5
288,Left,1,81,80,67.5,0.479167,Sixteenth,A5
287,Right,0,72,80,67.5,0.479167,Sixteenth,C5
289,Right,0,76,80,67.75,0.479167,Sixteenth,E5
290,Left,1,50,80,68.0,1.979167,Quarter,D3
291,Right,0,59,80,68.25,0.479167,Sixteenth,B3
292,Right,0,62,80,68.5,0.479167,Sixteenth,D4
293,Right,0,67,80,68.75,0.479167,Sixteenth,G4
294,Right,0,69,80,69.0,0.479167,Sixteenth,A4
295,Right,0,67,80,69.25,0.479167,Sixteenth,G4
296,Right,0,59,80,69.5,0.479167,Sixteenth,B3
297,Right,0,67,80,69.75,0.479167,Sixteenth,G4
298,Left,1,50,80,70.0,1.979167,Quarter,D3_D2
300,Right,0,57,80,70.25,0.479167,Sixteenth,A3
301,Right,0,60,80,70.5,0.479167,Sixteenth,C4
302,Right,0,66,80,70.75,0.479167,Sixteenth,F#4
303,Right,0,67,80,71.0,0.479167,Sixteenth,G4
304,Right,0,66,80,71.25,0.479167,Sixteenth,F#4
305,Right,0,57,80,71.5,0.479167,Sixteenth,A3
306,Right,0,66,80,71.75,0.229167,ThirtySecond,F#4
307,Left,1,43,80,72.0,0.479167,Sixteenth,G2
308,Right,0,59,80,72.25,0.479167,Sixteenth,B3
310,Right,0,62,80,72.5,0.479167,Sixteenth,D4
309,Left,1,73,80,72.5,0.979167,Eighth,C#5
311,Right,0,67,80,72.75,0.479167,Sixteenth,G4
312,Right,0,69,80,73.0,0.479167,Sixteenth,A4
313,Right,0,67,80,73.25,0.479167,Sixteenth,G4
314,Right,0,59,80,73.5,0.479167,Sixteenth,B3
315,Left,1,74,80,73.5,0.479167,Sixteenth,D5
316,Right,0,67,80,73.75,0.479167,Sixteenth,G4
317,Left,1,47,80,74.0,0.479167,Sixteenth,B2
318,Right,0,59,80,74.25,0.479167,Sixteenth,B3
319,Left,1,78,80,74.5,0.979167,Eighth,F#5
320,Right,0,62,80,74.5,0.479167,Sixteenth,D4
321,Right,0,67,80,74.75,0.479167,Sixteenth,G4
322,Right,0,69,80,75.0,0.479167,Sixteenth,A4
323,Right,0,67,80,75.25,0.479167,Sixteenth,G4
324,Right,0,59,80,75.5,0.479167,Sixteenth,B3
325,Left,1,79,80,75.5,0.479167,Sixteenth,G5
326,Right,0,67,80,75.75,0.479167,Sixteenth,G4
327,Left,1,48,80,76.0,0.479167,Sixteenth,C3
328,Right,0,57,80,76.25,0.479167,Sixteenth,A3
329,Right,0,64,80,76.5,0.479167,Sixteenth,E4
330,Left,1,75,80,76.5,0.979167,Eighth,D#5
331,Right,0,67,80,76.75,0.479167,Sixteenth,G4
332,Right,0,69,80,77.0,0.479167,Sixteenth,A4
333,Right,0,67,80,77.25,0.479167,Sixteenth,G4
334,Right,0,57,80,77.5,0.479167,Sixteenth,A3
335,Left,1,76,80,77.5,0.479167,Sixteenth,E5
336,Right,0,67,80,77.75,0.479167,Sixteenth,G4
337,Left,1,49,80,78.0,0.479167,Sixteenth,C#3
338,Right,0,57,80,78.25,0.479167,Sixteenth,A3
340,Right,0,64,80,78.5,0.479167,Sixteenth,E4
339,Left,1,87,101,78.5,0.979167,Eighth,D#6
341,Right,0,67,80,78.75,0.479167,Sixteenth,G4
342,Right,0,69,80,79.0,0.479167,Sixteenth,A4
343,Right,0,67,80,79.25,0.479167,Sixteenth,G4
345,Right,0,57,80,79.5,0.479167,Sixteenth,A3
344,Left,1,88,80,79.5,0.479167,Sixteenth,E6
346,Right,0,67,80,79.75,0.479167,Sixteenth,G4
347,Left,1,50,80,80.0,0.479167,Sixteenth,D3
348,Right,0,59,80,80.25,0.479167,Sixteenth,B3
349,Left,1,73,101,80.5,0.979167,Eighth,C#5
350,Right,0,62,80,80.5,0.479167,Sixteenth,D4
351,Right,0,67,80,80.75,0.479167,Sixteenth,G4
352,Right,0,69,80,81.0,0.479167,Sixteenth,A4
353,Right,0,67,80,81.25,0.479167,Sixteenth,G4
354,Right,0,59,80,81.5,0.479167,Sixteenth,B3
355,Left,1,74,80,81.5,0.479167,Sixteenth,D5
356,Right,0,67,80,81.75,0.479167,Sixteenth,G4
357,Left,1,50,80,82.0,0.479167,Sixteenth,D3
358,Right,0,57,80,82.25,0.479167,Sixteenth,A3
359,Left,1,63,103,82.5,0.979167,Eighth,D#4
360,Right,0,60,80,82.75,0.479167,Sixteenth,C4
361,Right,0,66,80,83.0,0.479167,Sixteenth,F#4
362,Right,0,60,80,83.25,0.479167,Sixteenth,C4
364,Left,1,62,80,83.5,0.479167,Sixteenth,D4
363,Right,0,57,80,83.5,0.479167,Sixteenth,A3
365,Right,0,60,80,83.75,0.479167,Sixteenth,C4
366,Left,1,47,80,84.0,0.479167,Sixteenth,B2
367,Right,0,59,80,84.25,0.479167,Sixteenth,B3
369,Left,1,73,102,84.5,0.979167,Eighth,C#5
368,Right,0,62,80,84.5,0.479167,Sixteenth,D4
370,Right,0,67,80,84.75,0.479167,Sixteenth,G4
371,Right,0,69,80,85.0,0.479167,Sixteenth,A4
372,Right,0,67,80,85.25,0.479167,Sixteenth,G4
374,Left,1,74,80,85.5,0.479167,Sixteenth,D5
373,Right,0,59,80,85.5,0.479167,Sixteenth,B3
375,Right,0,67,80,85.75,0.479167,Sixteenth,G4
376,Left,1,47,80,86.0,0.479167,Sixteenth,B2
377,Right,0,59,80,86.25,0.479167,Sixteenth,B3
378,Right,0,62,80,86.5,0.479167,Sixteenth,D4
379,Left,1,79,102,86.5,0.979167,Eighth,G5
380,Right,0,67,80,86.75,0.479167,Sixteenth,G4
381,Right,0,69,80,87.0,0.479167,Sixteenth,A4
382,Right,0,67,80,87.25,0.479167,Sixteenth,G4
384,Left,1,74,80,87.5,0.479167,Sixteenth,D5
383,Right,0,59,80,87.5,0.479167,Sixteenth,B3
385,Right,0,67,80,87.75,0.479167,Sixteenth,G4
386,Left,1,48,80,88.0,0.479167,Sixteenth,C3
387,Right,0,57,80,88.25,0.479167,Sixteenth,A3
388,Left,1,75,100,88.5,0.979167,Eighth,D#5
389,Right,0,64,80,88.5,0.479167,Sixteenth,E4
390,Right,0,67,80,88.75,0.479167,Sixteenth,G4
391,Right,0,69,80,89.0,0.479167,Sixteenth,A4
392,Right,0,67,80,89.25,0.479167,Sixteenth,G4
393,Right,0,57,80,89.5,0.479167,Sixteenth,A3
394,Left,1,76,80,89.5,0.479167,Sixteenth,E5
395,Right,0,67,80,89.75,0.479167,Sixteenth,G4
396,Left,1,49,80,90.0,0.479167,Sixteenth,C#3
397,Right,0,57,80,90.25,0.479167,Sixteenth,A3
399,Left,1,79,104,90.5,0.979167,Eighth,G5
398,Right,0,64,80,90.5,0.479167,Sixteenth,E4
400,Right,0,67,80,90.75,0.479167,Sixteenth,G4
401,Right,0,69,80,91.0,0.479167,Sixteenth,A4
402,Right,0,67,80,91.25,0.479167,Sixteenth,G4
404,Right,0,57,80,91.5,0.479167,Sixteenth,A3
403,Left,1,76,80,91.5,0.479167,Sixteenth,E5
405,Right,0,67,80,91.75,0.479167,Sixteenth,G4
406,Left,1,50,80,92.0,0.479167,Sixteenth,D3
407,Right,0,59,80,92.25,0.479167,Sixteenth,B3
408,Left,1,61,104,92.5,0.979167,Eighth,C#4
409,Right,0,67,80,92.75,0.479167,Sixteenth,G4
410,Right,0,69,80,93.0,0.479167,Sixteenth,A4
411,Right,0,67,80,93.25,0.479167,Sixteenth,G4
412,Right,0,59,80,93.5,0.479167,Sixteenth,B3
413,Left,1,62,80,93.5,0.479167,Sixteenth,D4
414,Right,0,67,80,93.75,0.479167,Sixteenth,G4
415,Left,1,50,80,94.0,0.479167,Sixteenth,D3
416,Right,0,57,80,94.25,0.479167,Sixteenth,A3
417,Left,1,63,102,94.5,0.979167,Eighth,D#4
418,Right,0,60,80,94.75,0.479167,Sixteenth,C4
419,Right,0,66,80,95.0,0.479167,Sixteenth,F#4
420,Right,0,60,80,95.25,0.479167,Sixteenth,C4
422,Right,0,57,80,95.5,0.479167,Sixteenth,A3
421,Left,1,62,80,95.5,0.479167,Sixteenth,D4
423,Right,0,60,80,95.75,0.479167,Sixteenth,C4
424,Left,1,43,80,96.0,1.979167,Quarter,G3_G2
426,Right,0,59,80,96.25,0.479167,Sixteenth,B3
427,Right,0,62,80,96.5,0.479167,Sixteenth,D4
428,Right,0,67,80,96.75,0.479167,Sixteenth,G4
429,Right,0,69,80,97.0,0.479167,Sixteenth,A4
430,Right,0,67,80,97.25,0.479167,Sixteenth,G4
431,Right,0,59,80,97.5,0.479167,Sixteenth,B3
432,Right,0,67,80,97.75,0.479167,Sixteenth,G4
433,Left,1,42,80,98.0,1.979167,Quarter,F#3_F#2
435,Right,0,57,80,98.25,0.479167,Sixteenth,A3
436,Right,0,59,80,98.5,0.479167,Sixteenth,B3
437,Right,0,63,80,98.75,0.479167,Sixteenth,D#4
438,Right,0,64,80,99.0,0.479167,Sixteenth,E4
439,Right,0,63,80,99.25,0.479167,Sixteenth,D#4
440,Right,0,57,80,99.5,0.479167,Sixteenth,A3
441,Right,0,63,80,99.75,0.479167,Sixteenth,D#4
442,Left,1,40,80,100.0,1.979167,Quarter,E2_E1
444,Right,0,55,80,100.25,0.479167,Sixteenth,G3
445,Right,0,59,80,100.5,0.479167,Sixteenth,B3
446,Right,0,64,80,100.75,0.479167,Sixteenth,E4
447,Right,0,66,80,101.0,0.479167,Sixteenth,F#4
448,Right,0,64,80,101.25,0.479167,Sixteenth,E4
449,Right,0,55,80,101.5,0.479167,Sixteenth,G3
450,Right,0,64,80,101.75,0.479167,Sixteenth,E4
451,Left,1,43,80,102.0,1.979167,Quarter,G2_G1
453,Right,0,55,80,102.25,0.479167,Sixteenth,G3
454,Right,0,59,80,102.5,0.479167,Sixteenth,B3
455,Right,0,64,80,102.75,0.479167,Sixteenth,E4
456,Right,0,66,80,103.0,0.479167,Sixteenth,F#4
457,Right,0,64,80,103.25,0.479167,Sixteenth,E4
458,Right,0,55,80,103.5,0.479167,Sixteenth,G3
459,Right,0,64,80,103.75,0.479167,Sixteenth,E4
460,Left,1,30,80,104.0,1.979167,Quarter,F#2_F#1
462,Right,0,57,80,104.25,0.479167,Sixteenth,A3
463,Right,0,60,80,104.5,0.479167,Sixteenth,C4
464,Right,0,63,80,104.75,0.479167,Sixteenth,D#4
465,Right,0,64,80,105.0,0.479167,Sixteenth,E4
466,Right,0,63,80,105.25,0.479167,Sixteenth,D#4
467,Right,0,57,80,105.5,0.479167,Sixteenth,A3
468,Right,0,63,80,105.75,0.479167,Sixteenth,D#4
469,Left,1,33,80,106.0,1.979167,Quarter,A2_A1
471,Right,0,60,80,106.25,0.479167,Sixteenth,C4
472,Right,0,63,80,106.5,0.479167,Sixteenth,D#4
473,Right,0,66,80,106.75,0.479167,Sixteenth,F#4
474,Right,0,67,80,107.0,0.479167,Sixteenth,G4
475,Right,0,66,80,107.25,0.479167,Sixteenth,F#4
476,Right,0,60,80,107.5,0.479167,Sixteenth,C4
477,Right,0,66,80,107.75,0.229167,ThirtySecond,F#4
478,Left,1,32,80,108.0,0.979167,Eighth,G#2_G#1
480,Right,0,59,80,108.25,0.479167,Sixteenth,B3
481,Right,0,62,80,108.5,0.479167,Sixteenth,D4
482,Right,0,65,80,108.75,0.479167,Sixteenth,F4
483,Right,0,64,80,109.0,0.479167,Sixteenth,E4
484,Right,0,65,80,109.25,0.479167,Sixteenth,F4
485,Right,0,62,80,109.5,0.479167,Sixteenth,D4
486,Left,1,77,80,109.5,0.979167,Eighth,F5
487,Right,0,59,80,109.75,0.479167,Sixteenth,B3
488,Left,1,76,80,110.0,0.979167,Eighth,E5
489,Right,0,59,80,110.25,0.479167,Sixteenth,B3
490,Left,1,74,80,110.5,0.979167,Eighth,D5
491,Right,0,56,80,110.5,0.479167,Sixteenth,G#3
492,Right,0,65,80,110.75,0.479167,Sixteenth,F4
494,Left,1,72,80,111.0,0.979167,Eighth,C5
493,Right,0,57,80,111.0,0.479167,Sixteenth,A3
495,Right,0,64,80,111.25,0.479167,Sixteenth,E4
496,Left,1,71,80,111.5,0.479167,Sixteenth,B4
497,Right,0,62,80,111.5,0.479167,Sixteenth,D4
498,Right,0,68,100,111.75,0.479167,Sixteenth,G#4
499,Left,1,33,120,112.0,1.979167,Quarter,A2_A1
501,Right,0,57,110,112.25,0.479167,Sixteenth,A3
502,Right,0,60,110,112.5,0.479167,Sixteenth,C4
503,Right,0,64,110,112.75,0.479167,Sixteenth,E4
504,Right,0,65,110,113.0,0.479167,Sixteenth,F4
505,Right,0,64,110,113.25,0.479167,Sixteenth,E4
506,Right,0,60,110,113.5,0.479167,Sixteenth,C4
507,Right,0,57,110,113.75,0.479167,Sixteenth,A3
508,Left,1,48,120,114.0,1.979167,Quarter,C3_C2
510,Right,0,57,110,114.25,0.479167,Sixteenth,A3
511,Right,0,60,110,114.5,0.479167,Sixteenth,C4
512,Right,0,64,110,114.75,0.479167,Sixteenth,E4
513,Right,0,65,110,115.0,0.479167,Sixteenth,F4
514,Right,0,64,110,115.25,0.479167,Sixteenth,E4
515,Right,0,60,110,115.5,0.479167,Sixteenth,C4
516,Right,0,57,110,115.75,0.479167,Sixteenth,A3
517,Left,1,47,120,116.0,1.979167,Quarter,B2_B1
519,Right,0,56,110,116.25,0.479167,Sixteenth,G#3
520,Right,0,62,110,116.5,0.479167,Sixteenth,D4
521,Right,0,64,110,116.75,0.479167,Sixteenth,E4
522,Right,0,65,110,117.0,0.479167,Sixteenth,F4
523,Right,0,64,110,117.25,0.479167,Sixteenth,E4
524,Right,0,62,110,117.5,0.479167,Sixteenth,D4
525,Right,0,56,110,117.75,0.479167,Sixteenth,G#3
526,Left,1,50,120,118.0,1.979167,Quarter,D3_D2
528,Right,0,56,110,118.25,0.479167,Sixteenth,G#3
529,Right,0,62,110,118.5,0.479167,Sixteenth,D4
530,Right,0,64,110,118.75,0.479167,Sixteenth,E4
531,Right,0,65,110,119.0,0.479167,Sixteenth,F4
532,Right,0,64,110,119.25,0.479167,Sixteenth,E4
533,Right,0,62,110,119.5,0.479167,Sixteenth,D4
534,Right,0,56,110,119.75,0.479167,Sixteenth,G#3
535,Left,1,37,80,120.0,0.979167,Eighth,C#3_C#2
537,Right,0,55,80,120.25,0.479167,Sixteenth,G3
538,Right,0,58,80,120.5,0.479167,Sixteenth,A#3
539,Right,0,64,80,120.75,0.479167,Sixteenth,E4
540,Right,0,66,80,121.0,0.479167,Sixteenth,F#4
541,Right,0,67,80,121.25,0.479167,Sixteenth,G4
543,Right,0,64,80,121.5,0.479167,Sixteenth,E4
542,Left,1,79,80,121.5,0.979167,Eighth,G5
544,Right,0,61,80,121.75,0.479167,Sixteenth,C#4
545,Left,1,78,80,122.0,0.979167,Eighth,F#5
546,Right,0,60,80,122.25,0.479167,Sixteenth,C4
547,Left,1,76,80,122.5,0.979167,Eighth,E5
548,Right,0,58,80,122.5,0.479167,Sixteenth,A#3
549,Right,0,67,80,122.75,0.479167,Sixteenth,G4
551,Left,1,74,80,123.0,0.979167,Eighth,D5
550,Right,0,59,80,123.0,0.479167,Sixteenth,B3
552,Right,0,66,80,123.25,0.479167,Sixteenth,F#4
553,Left,1,73,80,123.5,0.479167,Sixteenth,C#5
554,Right,0,64,80,123.5,0.479167,Sixteenth,E4
555,Right,0,70,80,123.75,0.479167,Sixteenth,A#4
556,Left,1,50,120,124.0,1.979167,Quarter,D3_D2
558,Right,0,59,110,124.25,0.479167,Sixteenth,B3
559,Right,0,62,110,124.5,0.479167,Sixteenth,D4
560,Right,0,66,110,124.75,0.479167,Sixteenth,F#4
561,Right,0,70,110,125.0,0.479167,Sixteenth,A#4
562,Right,0,71,110,125.25,0.479167,Sixteenth,B4
563,Right,0,59,110,125.5,0.479167,Sixteenth,B3
564,Right,0,71,110,125.75,0.479167,Sixteenth,B4
565,Left,1,42,120,126.0,1.979167,Quarter,F#3_F#2
567,Right,0,59,110,126.25,0.479167,Sixteenth,B3
568,Right,0,62,110,126.5,0.479167,Sixteenth,D4
569,Right,0,71,110,126.75,0.479167,Sixteenth,B4
570,Right,0,70,110,127.0,0.479167,Sixteenth,A#4
571,Right,0,71,110,127.25,0.479167,Sixteenth,B4
572,Right,0,62,110,127.5,0.479167,Sixteenth,D4
573,Right,0,71,110,127.75,0.479167,Sixteenth,B4
574,Left,1,40,120,128.0,1.979167,Quarter,E3_E2
576,Right,0,60,110,128.25,0.479167,Sixteenth,C4
577,Right,0,67,110,128.5,0.479167,Sixteenth,G4
578,Right,0,71,110,128.75,0.479167,Sixteenth,B4
579,Right,0,72,110,129.0,0.479167,Sixteenth,C5
580,Right,0,71,110,129.25,0.479167,Sixteenth,B4
581,Right,0,60,110,129.5,0.479167,Sixteenth,C4
582,Right,0,71,110,129.75,0.479167,Sixteenth,B4
583,Left,1,55,120,130.0,1.979167,Quarter,G3_G2
585,Right,0,60,110,130.25,0.479167,Sixteenth,C4
586,Right,0,64,110,130.5,0.479167,Sixteenth,E4
587,Right,0,71,110,130.75,0.479167,Sixteenth,B4
588,Right,0,72,110,131.0,0.479167,Sixteenth,C5
589,Right,0,71,110,131.25,0.479167,Sixteenth,B4
590,Right,0,64,110,131.5,0.479167,Sixteenth,E4
591,Right,0,71,110,131.75,0.229167,ThirtySecond,B4
592,Left,1,54,80,132.0,0.979167,Eighth,F#3_F#2
594,Right,0,60,80,132.25,0.479167,Sixteenth,C4
595,Right,0,63,80,132.5,0.479167,Sixteenth,D#4
596,Right,0,69,80,132.75,0.479167,Sixteenth,A4
597,Right,0,72,80,133.0,0.479167,Sixteenth,C5
598,Right,0,69,80,133.25,0.479167,Sixteenth,A4
599,Left,1,84,80,133.5,0.979167,Eighth,C6
600,Right,0,63,80,133.5,0.479167,Sixteenth,D#4
601,Right,0,69,80,133.75,0.479167,Sixteenth,A4
602,Left,1,83,80,134.0,0.979167,Eighth,B5
603,Right,0,66,80,134.25,0.479167,Sixteenth,F#4
604,Right,0,63,80,134.5,0.479167,Sixteenth,D#4
605,Left,1,81,80,134.5,0.979167,Eighth,A5
606,Right,0,72,80,134.75,0.479167,Sixteenth,C5
607,Left,1,79,80,135.0,0.979167,Eighth,G5
608,Right,0,64,80,135.0,0.479167,Sixteenth,E4
609,Right,0,71,80,135.25,0.479167,Sixteenth,B4
611,Left,1,78,80,135.5,0.479167,Sixteenth,F#5
610,Right,0,69,80,135.5,0.479167,Sixteenth,A4
612,Right,0,75,80,135.75,0.479167,Sixteenth,D#5
613,Left,1,76,80,136.0,0.979167,Eighth,E5
614,Right,0,64,80,136.25,0.479167,Sixteenth,E4
615,Right,0,67,80,136.5,0.479167,Sixteenth,G4
616,Right,0,76,80,136.75,0.479167,Sixteenth,E5
617,Right,0,75,80,137.0,0.479167,Sixteenth,D#5
618,Right,0,76,80,137.25,0.479167,Sixteenth,E5
619,Right,0,64,100,137.5,0.479167,Sixteenth,E4
620,Left,1,59,110,137.5,0.979167,Eighth,B3_B2
622,Right,0,76,100,137.75,0.479167,Sixteenth,E5
623,Left,1,45,110,138.0,0.979167,Eighth,A3_A2
625,Right,0,64,100,138.25,0.479167,Sixteenth,E4
627,Left,1,43,110,138.5,0.979167,Eighth,G3_G2
626,Right,0,67,100,138.5,0.479167,Sixteenth,G4
629,Right,0,76,100,138.75,0.479167,Sixteenth,E5
630,Left,1,54,110,139.0,0.979167,Eighth,F#3_F#2
631,Right,0,75,100,139.0,0.479167,Sixteenth,D#5
633,Right,0,76,100,139.25,0.479167,Sixteenth,E5
635,Left,1,40,110,139.5,0.479167,Sixteenth,E3_E2
634,Right,0,64,100,139.5,0.479167,Sixteenth,E4
637,Right,0,76,100,139.75,0.479167,Sixteenth,E5
638,Left,1,46,110,140.0,0.979167,Eighth,A#2_A#1
640,Right,0,58,100,140.25,0.479167,Sixteenth,A#3
641,Right,0,61,100,140.5,0.479167,Sixteenth,C#4
642,Right,0,64,100,140.75,0.479167,Sixteenth,E4
643,Right,0,66,100,141.0,0.479167,Sixteenth,F#4
644,Right,0,67,100,141.25,0.479167,Sixteenth,G4
646,Right,0,64,100,141.5,0.479167,Sixteenth,E4
645,Left,1,79,100,141.5,0.979167,Eighth,G5
647,Right,0,61,100,141.75,0.479167,Sixteenth,C#4
648,Left,1,78,100,142.0,0.979167,Eighth,F#5
649,Right,0,58,100,142.25,0.479167,Sixteenth,A#3
650,Left,1,76,100,142.5,0.979167,Eighth,E5
651,Right,0,61,100,142.5,0.479167,Sixteenth,C#4
652,Right,0,67,100,142.75,0.479167,Sixteenth,G4
653,Right,0,66,100,143.0,0.479167,Sixteenth,F#4
654,Left,1,75,100,143.0,0.979167,Eighth,D#5
655,Right,0,67,100,143.25,0.479167,Sixteenth,G4
656,Left,1,76,100,143.5,0.479167,Sixteenth,E5
657,Right,0,58,100,143.5,0.479167,Sixteenth,A#3
658,Right,0,67,100,143.75,0.229167,ThirtySecond,G4
659,Left,1,47,80,144.0,0.479167,Sixteenth,B2
660,Right,0,63,80,144.25,0.479167,Sixteenth,D#4
661,Left,1,76,80,144.5,0.979167,Eighth,E5
662,Right,0,66,80,144.5,0.479167,Sixteenth,F#4
663,Right,0,71,80,144.75,0.479167,Sixteenth,B4
664,Right,0,70,80,145.0,0.479167,Sixteenth,A#4
665,Right,0,71,80,145.25,0.479167,Sixteenth,B4
667,Left,1,75,80,145.5,0.479167,Sixteenth,D#5
666,Right,0,66,80,145.5,0.479167,Sixteenth,F#4
668,Right,0,63,80,145.75,0.479167,Sixteenth,D#4
669,Left,1,59,80,146.0,0.479167,Sixteenth,B3
670,Right,0,63,80,146.25,0.479167,Sixteenth,D#4
671,Right,0,66,80,146.5,0.479167,Sixteenth,F#4
672,Left,1,84,80,146.5,0.979167,Eighth,C6
673,Right,0,69,80,146.75,0.479167,Sixteenth,A4
674,Right,0,67,80,147.0,0.479167,Sixteenth,G4
675,Right,0,69,80,147.25,0.479167,Sixteenth,A4
676,Right,0,66,80,147.5,0.479167,Sixteenth,F#4
677,Left,1,83,80,147.5,0.479167,Sixteenth,B5
678,Right,0,63,80,147.75,0.479167,Sixteenth,D#4
679,Left,1,59,80,148.0,0.479167,Sixteenth,B3
680,Right,0,64,80,148.25,0.479167,Sixteenth,E4
681,Right,0,67,80,148.5,0.479167,Sixteenth,G4
682,Left,1,81,80,148.5,0.979167,Eighth,A5
683,Right,0,71,80,148.75,0.479167,Sixteenth,B4
684,Right,0,70,80,149.0,0.479167,Sixteenth,A#4
685,Right,0,71,80,149.25,0.479167,Sixteenth,B4
687,Right,0,67,80,149.5,0.479167,Sixteenth,G4
686,Left,1,79,80,149.5,0.479167,Sixteenth,G5
688,Right,0,64,80,149.75,0.479167,Sixteenth,E4
689,Left,1,59,80,150.0,0.479167,Sixteenth,B3
690,Right,0,64,80,150.25,0.479167,Sixteenth,E4
692,Left,1,78,80,150.5,0.979167,Eighth,F#5
691,Right,0,67,80,150.5,0.479167,Sixteenth,G4
693,Right,0,73,80,150.75,0.479167,Sixteenth,C#5
694,Right,0,67,80,151.0,0.479167,Sixteenth,G4
695,Right,0,73,80,151.25,0.479167,Sixteenth,C#5
696,Left,1,76,80,151.5,0.479167,Sixteenth,E5
697,Right,0,67,80,151.5,0.479167,Sixteenth,G4
698,Right,0,64,80,151.75,0.479167,Sixteenth,E4
699,Left,1,47,80,152.0,0.479167,Sixteenth,B2
700,Right,0,63,80,152.25,0.479167,Sixteenth,D#4
702,Right,0,66,80,152.5,0.479167,Sixteenth,F#4
701,Left,1,60,80,152.5,0.979167,Eighth,C4
703,Right,0,69,80,152.75,0.479167,Sixteenth,A4
704,Right,0,67,80,153.0,0.479167,Sixteenth,G4
705,Right,0,69,80,153.25,0.479167,Sixteenth,A4
707,Right,0,66,80,153.5,0.479167,Sixteenth,F#4
706,Left,1,59,80,153.5,0.479167,Sixteenth,B3
708,Right,0,63,80,153.75,0.479167,Sixteenth,D#4
709,Left,1,47,80,154.0,0.479167,Sixteenth,B2
710,Right,0,59,80,154.25,0.479167,Sixteenth,B3
711,Left,1,76,80,154.5,0.979167,Eighth,E5
712,Right,0,66,80,154.5,0.479167,Sixteenth,F#4
713,Right,0,69,80,154.75,0.479167,Sixteenth,A4
714,Right,0,68,80,155.0,0.479167,Sixteenth,G#4
715,Right,0,69,80,155.25,0.479167,Sixteenth,A4
717,Left,1,75,80,155.5,0.479167,Sixteenth,D#5
716,Right,0,66,80,155.5,0.479167,Sixteenth,F#4
718,Right,0,59,80,155.75,0.479167,Sixteenth,B3
719,Left,1,47,80,156.0,0.479167,Sixteenth,B2
720,Right,0,59,80,156.25,0.479167,Sixteenth,B3
721,Left,1,78,80,156.5,0.979167,Eighth,F#5
722,Right,0,64,80,156.5,0.479167,Sixteenth,E4
723,Right,0,67,80,156.75,0.479167,Sixteenth,G4
724,Right,0,66,80,157.0,0.479167,Sixteenth,F#4
725,Right,0,67,80,157.25,0.479167,Sixteenth,G4
726,Left,1,76,80,157.5,0.479167,Sixteenth,E5
727,Right,0,64,80,157.5,0.479167,Sixteenth,E4
728,Right,0,59,80,157.75,0.479167,Sixteenth,B3
729,Left,1,47,80,158.0,0.479167,Sixteenth,B2
730,Right,0,61,80,158.25,0.479167,Sixteenth,C#4
732,Left,1,79,80,158.5,0.979167,Eighth,G5
731,Right,0,64,80,158.5,0.479167,Sixteenth,E4
733,Right,0,67,80,158.75,0.479167,Sixteenth,G4
734,Right,0,66,80,159.0,0.479167,Sixteenth,F#4
735,Right,0,67,80,159.25,0.479167,Sixteenth,G4
737,Left,1,70,80,159.5,0.479167,Sixteenth,A#4
736,Right,0,64,80,159.5,0.479167,Sixteenth,E4
738,Right,0,61,80,159.75,0.479167,Sixteenth,C#4
739,Left,1,47,81,160.0,0.479167,Sixteenth,B2
740,Right,0,63,82,160.25,0.479167,Sixteenth,D#4
741,Right,0,66,83,160.5,0.479167,Sixteenth,F#4
742,Left,1,59,83,160.5,0.979167,Eighth,B3
743,Right,0,71,84,160.75,0.479167,Sixteenth,B4
744,Right,0,70,85,161.0,0.479167,Sixteenth,A#4
745,Right,0,71,87,161.25,0.479167,Sixteenth,B4
746,Right,0,63,88,161.5,0.479167,Sixteenth,D#4
747,Left,1,54,88,161.5,0.479167,Sixteenth,F#3
748,Right,0,71,89,161.75,0.479167,Sixteenth,B4
749,Left,1,51,90,162.0,0.479167,Sixteenth,D#3
750,Right,0,59,91,162.25,0.479167,Sixteenth,B3
751,Left,1,47,92,162.5,0.979167,Eighth,B2
752,Right,0,63,92,162.5,0.479167,Sixteenth,D#4
753,Right,0,71,94,162.75,0.479167,Sixteenth,B4
754,Right,0,70,95,163.0,0.479167,Sixteenth,A#4
755,Right,0,71,96,163.25,0.479167,Sixteenth,B4
757,Right,0,63,97,163.5,0.479167,Sixteenth,D#4
756,Left,1,42,97,163.5,0.479167,Sixteenth,F#2
758,Right,0,71,100,163.75,0.479167,Sixteenth,B4
759,Left,1,39,98,164.0,0.479167,Sixteenth,D#2
760,Right,0,59,96,164.25,0.479167,Sixteenth,B3
761,Right,0,63,93,164.5,0.479167,Sixteenth,D#4
762,Left,1,35,93,164.5,0.979167,Eighth,B1
763,Right,0,71,91,164.75,0.479167,Sixteenth,B4
764,Right,0,73,88,165.0,0.479167,Sixteenth,C#5
765,Right,0,71,86,165.25,0.479167,Sixteenth,B4
766,Right,0,63,83,165.5,0.479167,Sixteenth,D#4
767,Left,1,39,83,165.5,0.479167,Sixteenth,D#2
768,Right,0,71,80,165.75,0.479167,Sixteenth,B4
769,Left,1,42,80,166.0,0.479167,Sixteenth,F#2
770,Right,0,59,80,166.25,0.479167,Sixteenth,B3
771,Right,0,63,80,166.5,0.479167,Sixteenth,D#4
772,Left,1,47,80,166.5,0.979167,Eighth,B2
773,Right,0,69,80,166.75,0.479167,Sixteenth,A4
774,Right,0,71,80,167.0,0.479167,Sixteenth,B4
775,Right,0,69,80,167.25,0.479167,Sixteenth,A4
776,Right,0,59,80,167.5,0.479167,Sixteenth,B3
777,Left,1,51,80,167.5,0.479167,Sixteenth,D#3
778,Right,0,69,80,167.75,0.229167,ThirtySecond,A4
780,Left,1,40,70,168.0,1.979167,Quarter,E3_E2
779,Right,0,68,70,168.0,1.979167,DottedSixteenth,G#4_B3
783,Right,0,66,70,168.75,0.229167,ThirtySecond,F#4
784,Right,0,68,70,169.0,0.479167,Sixteenth,G#4
785,Right,0,69,70,169.5,0.479167,Sixteenth,A4
786,Right,0,59,70,170.0,0.979167,Eighth,F#4_B3
787,Left,1,45,70,170.0,0.979167,Eighth,D#3_A2
792,Right,0,59,70,172.0,1.979167,Quarter,E4_B3
790,Left,1,52,70,172.0,1.979167,Quarter,G#2_E3
794,Right,0,63,70,172.75,0.229167,ThirtySecond,D#4
795,Right,0,64,70,173.0,0.479167,Sixteenth,E4
796,Right,0,66,70,173.5,0.479167,Sixteenth,F#4
799,Left,1,42,70,174.0,0.979167,Eighth,F#2_D#3
797,Right,0,57,70,174.0,0.979167,Eighth,D#4_B3_A3
802,Right,0,59,70,175.5,0.479167,Sixteenth,B3
803,Right,0,64,70,176.0,0.479167,Sixteenth,E4_B3
804,Left,1,56,70,176.0,0.479167,Sixteenth,G#3
806,Left,1,51,70,176.5,0.479167,Sixteenth,D#3
807,Right,0,66,70,176.5,0.479167,Sixteenth,F#4_B3
809,Right,0,68,70,177.0,0.479167,Sixteenth,G#4_E4_B3
810,Left,1,52,70,177.0,0.479167,Sixteenth,E3
813,Left,1,45,70,177.5,0.479167,Sixteenth,A3_A2
815,Right,0,66,70,177.5,0.479167,Sixteenth,F#4_C#4_A4
820,Right,0,63,70,178.0,0.979167,Eighth,F#4_D#4
818,Left,1,47,70,178.0,0.979167,Eighth,B3_B2
824,Left,1,45,70,179.5,0.479167,Sixteenth,F#3_A2
822,Right,0,71,70,179.5,0.479167,Sixteenth,D#4_B4
828,Left,1,56,70,180.0,0.479167,Sixteenth,G#3_G#2
826,Right,0,64,70,180.0,0.479167,Sixteenth,E4_B4
830,Left,1,42,70,180.5,0.479167,Sixteenth,F#2_D#3
831,Right,0,59,70,180.5,0.479167,Sixteenth,B3_A4
835,Left,1,40,70,181.0,0.479167,Sixteenth,E3_E2
834,Right,0,68,70,181.0,0.479167,Sixteenth,G#4_B3
840,Right,0,61,70,181.5,0.229167,ThirtySecond,C#5_C#4
838,Left,1,45,70,181.5,0.229167,ThirtySecond,A3_A2
842,Left,1,54,70,181.75,0.229167,ThirtySecond,F#3
843,Right,0,69,70,181.75,0.229167,ThirtySecond,A4
846,Left,1,51,70,182.0,0.979167,Eighth,D#3_B2
844,Right,0,59,70,182.0,0.979167,Eighth,F#4_B3
849,Right,0,69,70,184.0,1.979167,DottedSixteenth,C#4_A4
848,Left,1,42,70,184.0,1.979167,Quarter,F#3_F#2
852,Right,0,68,70,184.75,0.229167,ThirtySecond,G#4
853,Right,0,69,70,185.0,0.479167,Sixteenth,A4
854,Right,0,71,70,185.5,0.479167,Sixteenth,B4
855,Left,1,53,70,186.0,0.979167,Eighth,F3_B2
857,Right,0,68,70,186.0,0.979167,Eighth,G#4_C#4
859,Right,0,66,70,188.0,1.979167,DottedSixteenth,F#4_C#4
861,Left,1,45,70,188.0,1.979167,Quarter,C#3_A3_A2
864,Right,0,65,70,188.75,0.229167,ThirtySecond,F4
865,Right,0,66,70,189.0,0.479167,Sixteenth,F#4
866,Right,0,68,70,189.5,0.479167,Sixteenth,G#4
867,Left,1,44,70,190.0,0.979167,Eighth,G#3_G#2_C#3
870,Right,0,59,70,190.0,0.979167,Eighth,F4_C#4_B3
873,Left,1,54,70,191.5,0.979167,Eighth,F#3_C#4
874,Right,0,64,70,191.5,0.979167,Eighth,E4_A#4
877,Right,0,71,70,192.5,0.479167,Sixteenth,D#4_B4
878,Left,1,59,70,192.5,0.479167,Sixteenth,B3_B2
883,Right,0,62,70,193.5,0.979167,Eighth,G#4_D4
881,Left,1,52,70,193.5,0.979167,Eighth,E3_B3
885,Left,1,45,70,194.5,0.479167,Sixteenth,A3_A2
887,Right,0,69,70,194.5,0.479167,Sixteenth,C#4_A4
890,Right,0,66,70,195.5,0.479167,Sixteenth,F#4_C#4
889,Left,1,57,70,195.5,0.479167,Sixteenth,A3_A2
894,Right,0,64,70,196.0,0.979167,Eighth,G#3_E4_B3
893,Left,1,47,70,196.0,1.979167,Quarter,B2
897,Right,0,63,70,197.0,0.979167,Eighth,F#4_D#4_A3
902,Left,1,52,70,198.0,0.979167,Eighth,E3_E2
900,Right,0,64,70,198.0,0.979167,Eighth,G#4_E4_B3
905,Left,1,52,70,199.5,0.979167,Eighth,E3_A#3
907,Right,0,78,70,200.0,0.979167,Eighth,F#5_F#4
909,Left,1,59,70,200.5,0.479167,Sixteenth,D#3_B3
911,Right,0,71,70,201.0,0.479167,Sixteenth,B5_B4
913,Left,1,56,70,201.5,0.979167,Eighth,G#3_D3
915,Right,0,76,70,202.0,0.979167,Eighth,E5_E4
917,Left,1,57,70,202.5,0.479167,Sixteenth,C#3_A3
919,Right,0,69,70,203.0,0.479167,Sixteenth,A5_A4
921,Right,0,72,70,204.75,0.229167,ThirtySecond,C5
922,Right,0,73,70,205.0,0.229167,ThirtySecond,C#5
923,Right,0,68,70,205.25,0.229167,ThirtySecond,G#4
924,Right,0,69,70,205.5,0.354167,TripletSixteenth,A4
925,Right,0,66,70,205.864583,0.104167,SixtyFourth,F#4
928,Left,1,47,70,206.0,1.979167,Quarter,B2_B1
926,Right,0,54,70,206.0,1.979167,Quarter,F#3_C#4_A3
931,Right,0,63,70,207.0,0.979167,Eighth,D#4
932,Right,0,52,110,208.0,0.729167,DottedSixteenth,G3_E4_E3
934,Left,1,36,110,208.0,0.729167,DottedSixteenth,C3_C2
940,Left,1,35,110,208.75,0.229167,ThirtySecond,B2_B1
937,Right,0,55,110,208.75,0.229167,ThirtySecond,G3_D4_D3
942,Right,0,52,110,209.0,0.479167,Sixteenth,G3_E4_E3
945,Left,1,48,110,209.0,0.479167,Sixteenth,C3_C2
947,Right,0,65,110,209.5,0.479167,Sixteenth,G3_F4_F3
949,Left,1,50,110,209.5,0.479167,Sixteenth,D3_D2
952,Right,0,50,110,210.0,0.979167,Eighth,G3_D4_D3
955,Left,1,35,110,210.0,0.979167,Eighth,B2_B1
957,Left,1,50,110,212.0,0.729167,DottedSixteenth,D3_D2
959,Right,0,65,110,212.0,0.729167,DottedSixteenth,G3_F4_B3
964,Right,0,55,110,212.75,0.229167,ThirtySecond,G3_E4_C4
962,Left,1,48,110,212.75,0.229167,ThirtySecond,C3_C2
967,Left,1,38,110,213.0,0.479167,Sixteenth,D3_D2
969,Right,0,55,110,213.0,0.479167,Sixteenth,G3_F4_B3
975,Left,1,40,110,213.5,0.479167,Sixteenth,E3_E2
972,Right,0,67,110,213.5,0.479167,Sixteenth,G4_G3_C4
980,Left,1,48,110,214.0,0.979167,Eighth,C3_C2
977,Right,0,64,110,214.0,0.979167,Eighth,G3_E4_C4
982,Left,1,36,80,216.0,1.979167,Quarter,C3_C2
984,Right,0,60,80,216.25,0.479167,Sixteenth,C4
985,Right,0,64,80,216.5,0.479167,Sixteenth,E4
986,Right,0,67,80,216.75,0.479167,Sixteenth,G4
987,Right,0,69,80,217.0,0.479167,Sixteenth,A4
988,Right,0,67,80,217.25,0.479167,Sixteenth,G4
989,Right,0,60,80,217.5,0.479167,Sixteenth,C4
990,Right,0,67,80,217.75,0.479167,Sixteenth,G4
991,Left,1,40,80,218.0,1.979167,Quarter,E3_E2
993,Right,0,60,80,218.25,0.479167,Sixteenth,C4
994,Right,0,64,80,218.5,0.479167,Sixteenth,E4
995,Right,0,67,80,218.75,0.479167,Sixteenth,G4
996,Right,0,69,80,219.0,0.479167,Sixteenth,A4
997,Right,0,67,80,219.25,0.479167,Sixteenth,G4
998,Right,0,60,80,219.5,0.479167,Sixteenth,C4
999,Right,0,67,80,219.75,0.479167,Sixteenth,G4
1000,Left,1,38,80,220.0,1.979167,Quarter,D3_D2
1002,Right,0,59,80,220.25,0.479167,Sixteenth,B3
1003,Right,0,65,80,220.5,0.479167,Sixteenth,F4
1004,Right,0,68,80,220.75,0.479167,Sixteenth,G#4
1005,Right,0,69,80,221.0,0.479167,Sixteenth,A4
1006,Right,0,68,80,221.25,0.479167,Sixteenth,G#4
1007,Right,0,59,80,221.5,0.479167,Sixteenth,B3
1008,Right,0,68,80,221.75,0.479167,Sixteenth,G#4
1009,Left,1,56,80,222.0,1.979167,Quarter,G#3_G#2
1011,Right,0,62,80,222.25,0.479167,Sixteenth,D4
1012,Right,0,65,80,222.5,0.479167,Sixteenth,F4
1013,Right,0,71,80,222.75,0.479167,Sixteenth,B4
1014,Right,0,72,80,223.0,0.479167,Sixteenth,C5
1015,Right,0,71,80,223.25,0.479167,Sixteenth,B4
1016,Right,0,62,80,223.5,0.479167,Sixteenth,D4
1017,Right,0,71,80,223.75,0.479167,Sixteenth,B4
1018,Left,1,45,80,224.0,1.979167,Quarter,A3_A2
1020,Right,0,60,80,224.25,0.479167,Sixteenth,C4
1021,Right,0,64,80,224.5,0.479167,Sixteenth,E4
1022,Right,0,72,80,224.75,0.479167,Sixteenth,C5
1023,Right,0,71,80,225.0,0.479167,Sixteenth,B4
1024,Right,0,72,80,225.25,0.479167,Sixteenth,C5
1025,Right,0,64,80,225.5,0.479167,Sixteenth,E4
1026,Right,0,72,80,225.75,0.479167,Sixteenth,C5
1027,Left,1,58,103,226.0,1.979167,Quarter,A#3_A#2
1029,Right,0,64,80,226.25,0.479167,Sixteenth,E4
1030,Right,0,67,80,226.5,0.479167,Sixteenth,G4
1031,Right,0,76,80,226.75,0.479167,Sixteenth,E5
1032,Right,0,75,80,227.0,0.479167,Sixteenth,D#5
1033,Right,0,76,80,227.25,0.479167,Sixteenth,E5
1034,Right,0,67,80,227.5,0.479167,Sixteenth,G4
1035,Right,0,64,80,227.75,0.479167,Sixteenth,E4
1036,Left,1,47,80,228.0,1.979167,Quarter,B3_B2
1038,Right,0,64,80,228.25,0.479167,Sixteenth,E4
1039,Right,0,68,80,228.5,0.479167,Sixteenth,G#4
1040,Right,0,71,80,228.75,0.479167,Sixteenth,B4
1041,Right,0,70,80,229.0,0.479167,Sixteenth,A#4
1042,Right,0,71,80,229.25,0.479167,Sixteenth,B4
1043,Right,0,68,80,229.5,0.479167,Sixteenth,G#4
1044,Right,0,64,80,229.75,0.479167,Sixteenth,E4
1045,Left,1,35,80,230.0,1.979167,Quarter,B2_B1
1047,Right,0,57,80,230.25,0.479167,Sixteenth,A3
1048,Right,0,63,80,230.5,0.479167,Sixteenth,D#4
1049,Right,0,66,80,230.75,0.479167,Sixteenth,F#4
1050,Right,0,65,80,231.0,0.479167,Sixteenth,F4
1051,Right,0,66,80,231.25,0.479167,Sixteenth,F#4
1052,Right,0,63,80,231.5,0.479167,Sixteenth,D#4
1053,Right,0,57,80,231.75,0.229167,ThirtySecond,A3
1054,Left,1,40,80,232.0,0.479167,Sixteenth,E2
1055,Right,0,56,80,232.25,0.479167,Sixteenth,G#3
1056,Right,0,59,80,232.5,0.479167,Sixteenth,B3
1057,Left,1,75,80,232.5,0.979167,Eighth,D#5
1058,Right,0,64,80,232.75,0.479167,Sixteenth,E4
1059,Right,0,66,80,233.0,0.479167,Sixteenth,F#4
1060,Right,0,64,80,233.25,0.479167,Sixteenth,E4
1061,Right,0,56,80,233.5,0.479167,Sixteenth,G#3
1062,Left,1,76,80,233.5,0.479167,Sixteenth,E5
1063,Right,0,64,80,233.75,0.479167,Sixteenth,E4
1064,Left,1,50,80,234.0,0.479167,Sixteenth,D3
1065,Right,0,56,80,234.25,0.479167,Sixteenth,G#3
1066,Right,0,59,80,234.5,0.479167,Sixteenth,B3
1067,Left,1,78,80,234.5,0.979167,Eighth,F#5
1068,Right,0,64,80,234.75,0.479167,Sixteenth,E4
1069,Right,0,66,80,235.0,0.479167,Sixteenth,F#4
1070,Right,0,64,80,235.25,0.479167,Sixteenth,E4
1071,Left,1,76,80,235.5,0.479167,Sixteenth,E5
1072,Right,0,56,80,235.5,0.479167,Sixteenth,G#3
1073,Right,0,64,80,235.75,0.479167,Sixteenth,E4
1074,Left,1,49,80,236.0,0.479167,Sixteenth,C#3
1075,Right,0,57,80,236.25,0.479167,Sixteenth,A3
1077,Right,0,61,80,236.5,0.479167,Sixteenth,C#4
1076,Left,1,84,80,236.5,0.979167,Eighth,C6
1078,Right,0,64,80,236.75,0.479167,Sixteenth,E4
1079,Right,0,66,80,237.0,0.479167,Sixteenth,F#4
1080,Right,0,64,80,237.25,0.479167,Sixteenth,E4
1081,Left,1,85,80,237.5,0.479167,Sixteenth,C#6
1082,Right,0,57,80,237.5,0.479167,Sixteenth,A3
1083,Right,0,64,80,237.75,0.479167,Sixteenth,E4
1084,Left,1,49,80,238.0,0.479167,Sixteenth,C#3
1085,Right,0,58,80,238.25,0.479167,Sixteenth,A#3
1087,Left,1,87,80,238.5,0.979167,Eighth,D#6
1086,Right,0,61,80,238.5,0.479167,Sixteenth,C#4
1088,Right,0,64,80,238.75,0.479167,Sixteenth,E4
1089,Right,0,66,80,239.0,0.479167,Sixteenth,F#4
1090,Right,0,64,80,239.25,0.479167,Sixteenth,E4
1092,Left,1,88,80,239.5,0.479167,Sixteenth,E6
1091,Right,0,58,80,239.5,0.479167,Sixteenth,A#3
1093,Right,0,64,80,239.75,0.479167,Sixteenth,E4
1094,Left,1,47,80,240.0,0.479167,Sixteenth,B2
1095,Right,0,59,80,240.25,0.479167,Sixteenth,B3
1096,Left,1,70,80,240.5,0.979167,Eighth,A#4
1097,Right,0,64,80,240.75,0.479167,Sixteenth,E4
1098,Right,0,68,80,241.0,0.479167,Sixteenth,G#4
1099,Right,0,64,80,241.25,0.479167,Sixteenth,E4
1101,Right,0,56,80,241.5,0.479167,Sixteenth,G#3
1100,Left,1,71,80,241.5,0.479167,Sixteenth,B4
1102,Right,0,64,80,241.75,0.479167,Sixteenth,E4
1103,Left,1,47,80,242.0,0.479167,Sixteenth,B2
1104,Right,0,57,80,242.25,0.479167,Sixteenth,A3
1105,Left,1,60,103,242.5,0.979167,Eighth,C4
1106,Right,0,63,80,242.75,0.479167,Sixteenth,D#4
1107,Right,0,66,80,243.0,0.479167,Sixteenth,F#4
1108,Right,0,63,80,243.25,0.479167,Sixteenth,D#4
1109,Left,1,59,80,243.5,0.479167,Sixteenth,B3
1110,Right,0,57,80,243.5,0.479167,Sixteenth,A3
1111,Right,0,63,80,243.75,0.479167,Sixteenth,D#4
1112,Left,1,52,80,244.0,0.479167,Sixteenth,E3
1113,Right,0,56,80,244.25,0.479167,Sixteenth,G#3
1115,Right,0,59,80,244.5,0.479167,Sixteenth,B3
1114,Left,1,70,80,244.5,0.979167,Eighth,A#4
1116,Right,0,64,80,244.75,0.479167,Sixteenth,E4
1117,Right,0,66,80,245.0,0.479167,Sixteenth,F#4
1118,Right,0,64,80,245.25,0.479167,Sixteenth,E4
1120,Right,0,56,80,245.5,0.479167,Sixteenth,G#3
1119,Left,1,71,80,245.5,0.479167,Sixteenth,B4
1121,Right,0,64,80,245.75,0.479167,Sixteenth,E4
1122,Left,1,50,80,246.0,0.479167,Sixteenth,D3
1123,Right,0,56,80,246.25,0.479167,Sixteenth,G#3
1125,Left,1,78,80,246.5,0.979167,Eighth,F#5
1124,Right,0,59,80,246.5,0.479167,Sixteenth,B3
1126,Right,0,64,80,246.75,0.479167,Sixteenth,E4
1127,Right,0,66,80,247.0,0.479167,Sixteenth,F#4
1128,Right,0,64,80,247.25,0.479167,Sixteenth,E4
1129,Left,1,76,80,247.5,0.479167,Sixteenth,E5
1130,Right,0,56,80,247.5,0.479167,Sixteenth,G#3
1131,Right,0,64,80,247.75,0.479167,Sixteenth,E4
1132,Left,1,49,80,248.0,0.479167,Sixteenth,C#3
1133,Right,0,57,80,248.25,0.479167,Sixteenth,A3
1134,Left,1,72,80,248.5,0.979167,Eighth,C5
1135,Right,0,61,80,248.5,0.479167,Sixteenth,C#4
1136,Right,0,64,80,248.75,0.479167,Sixteenth,E4
1137,Right,0,66,80,249.0,0.479167,Sixteenth,F#4
1138,Right,0,64,80,249.25,0.479167,Sixteenth,E4
1139,Left,1,73,80,249.5,0.479167,Sixteenth,C#5
1140,Right,0,57,80,249.5,0.479167,Sixteenth,A3
1141,Right,0,64,80,249.75,0.479167,Sixteenth,E4
1142,Left,1,49,80,250.0,0.479167,Sixteenth,C#3
1143,Right,0,55,80,250.25,0.479167,Sixteenth,G3
1145,Left,1,78,80,250.5,0.979167,Eighth,F#5
1144,Right,0,58,80,250.5,0.479167,Sixteenth,A#3
1146,Right,0,64,80,250.75,0.479167,Sixteenth,E4
1147,Right,0,66,80,251.0,0.479167,Sixteenth,F#4
1148,Right,0,64,80,251.25,0.479167,Sixteenth,E4
1149,Left,1,76,80,251.5,0.479167,Sixteenth,E5
1150,Right,0,55,80,251.5,0.479167,Sixteenth,G3
1151,Right,0,64,80,251.75,0.479167,Sixteenth,E4
1152,Left,1,47,80,252.0,0.479167,Sixteenth,B2
1153,Right,0,56,80,252.25,0.479167,Sixteenth,G#3
1154,Left,1,70,101,252.5,0.979167,Eighth,A#4
1155,Right,0,64,80,252.75,0.479167,Sixteenth,E4
1156,Right,0,66,80,253.0,0.479167,Sixteenth,F#4
1157,Right,0,64,80,253.25,0.479167,Sixteenth,E4
1158,Left,1,71,80,253.5,0.479167,Sixteenth,B4
1159,Right,0,56,80,253.5,0.479167,Sixteenth,G#3
1160,Right,0,64,80,253.75,0.479167,Sixteenth,E4
1161,Left,1,47,80,254.0,0.479167,Sixteenth,B2
1162,Right,0,57,80,254.25,0.479167,Sixteenth,A3
1163,Left,1,60,103,254.5,0.979167,Eighth,C4
1164,Right,0,63,80,254.75,0.479167,Sixteenth,D#4
1165,Right,0,66,80,255.0,0.479167,Sixteenth,F#4
1166,Right,0,63,80,255.25,0.479167,Sixteenth,D#4
1168,Right,0,57,80,255.5,0.479167,Sixteenth,A3
1167,Left,1,59,80,255.5,0.479167,Sixteenth,B3
1169,Right,0,63,80,255.75,0.479167,Sixteenth,D#4
1170,Left,1,47,80,256.0,0.479167,Sixteenth,B2
1171,Right,0,56,80,256.25,0.479167,Sixteenth,G#3
1172,Left,1,75,80,256.5,0.979167,Eighth,D#5
1173,Right,0,59,80,256.5,0.479167,Sixteenth,B3
1174,Right,0,64,80,256.75,0.479167,Sixteenth,E4
1175,Right,0,66,80,257.0,0.479167,Sixteenth,F#4
1176,Right,0,64,80,257.25,0.479167,Sixteenth,E4
1178,Right,0,56,80,257.5,0.479167,Sixteenth,G#3
1177,Left,1,76,80,257.5,0.479167,Sixteenth,E5
1179,Right,0,64,80,257.75,0.479167,Sixteenth,E4
1180,Left,1,47,80,258.0,0.479167,Sixteenth,B2
1181,Right,0,57,80,258.25,0.479167,Sixteenth,A3
1182,Left,1,60,103,258.5,0.979167,Eighth,C4
1183,Right,0,63,80,258.75,0.479167,Sixteenth,D#4
1184,Right,0,66,80,259.0,0.479167,Sixteenth,F#4
1185,Right,0,63,80,259.25,0.479167,Sixteenth,D#4
1187,Right,0,57,80,259.5,0.479167,Sixteenth,A3
1186,Left,1,59,80,259.5,0.479167,Sixteenth,B3
1188,Right,0,63,80,259.75,0.479167,Sixteenth,D#4
1189,Left,1,40,80,260.0,0.979167,Eighth,E3_E2
1191,Right,0,56,80,260.25,0.479167,Sixteenth,G#3
1192,Right,0,59,80,260.5,0.479167,Sixteenth,B3
1193,Right,0,64,80,260.75,0.479167,Sixteenth,E4
1194,Right,0,68,80,261.0,0.479167,Sixteenth,G#4
1195,Right,0,64,80,261.25,0.479167,Sixteenth,E4
1196,Right,0,71,80,261.5,0.479167,Sixteenth,B4
1197,Right,0,68,80,261.75,0.479167,Sixteenth,G#4
1198,Right,0,76,80,262.0,0.479167,Sixteenth,E5
1199,Right,0,71,80,262.25,0.479167,Sixteenth,B4
1200,Right,0,80,80,262.5,0.479167,Sixteenth,G#5
1201,Right,0,76,80,262.75,0.479167,Sixteenth,E5
1202,Right,0,83,80,263.0,0.479167,Sixteenth,B5
1203,Right,0,82,80,263.25,0.479167,Sixteenth,A#5
1204,Right,0,81,80,263.5,0.479167,Sixteenth,A5
1205,Right,0,78,80,263.75,0.229167,ThirtySecond,F#5
1206,Left,1,64,80,264.0,1.979167,Quarter,E4_B4
1207,Right,0,80,80,264.0,0.729167,DottedSixteenth,G#5
1209,Right,0,78,80,264.75,0.229167,ThirtySecond,F#5
1210,Right,0,80,80,265.0,0.479167,Sixteenth,G#5
1211,Right,0,81,80,265.5,0.479167,Sixteenth,A5
1214,Right,0,78,80,266.0,0.979167,Eighth,F#5_D#5
1212,Left,1,69,80,266.0,0.979167,Eighth,B4_A4
1216,Right,0,76,80,268.0,0.729167,DottedSixteenth,E5
1217,Left,1,71,80,268.0,1.979167,Quarter,G#4_B4
1219,Right,0,78,80,268.75,0.229167,ThirtySecond,F#5
1220,Right,0,76,80,268.875,0.229167,ThirtySecond,E5
1221,Right,0,75,80,269.0,0.229167,ThirtySecond,D#5
1222,Right,0,76,80,269.25,0.229167,ThirtySecond,E5
1223,Right,0,80,80,269.5,0.229167,ThirtySecond,G#5
1224,Right,0,78,80,269.75,0.229167,ThirtySecond,F#5
1226,Left,1,69,80,270.0,0.979167,Eighth,F#4_A4
1225,Right,0,76,80,270.0,0.479167,Sixteenth,E5
1228,Right,0,75,80,270.5,0.479167,Sixteenth,D#5
1229,Right,0,71,80,271.75,0.229167,ThirtySecond,B4
1230,Right,0,76,80,272.0,0.229167,ThirtySecond,E5
1231,Left,1,68,80,272.0,0.479167,Sixteenth,G#4
1232,Right,0,71,80,272.375,0.104167,SixtyFourth,B4
1233,Right,0,78,80,272.5,0.229167,ThirtySecond,F#5
1234,Left,1,63,80,272.5,0.479167,Sixteenth,F#4_D#4
1236,Right,0,71,80,272.875,0.104167,SixtyFourth,B4
1237,Left,1,68,80,273.0,0.479167,Sixteenth,G#4_E4
1239,Right,0,80,80,273.0,0.229167,ThirtySecond,G#5
1240,Right,0,71,80,273.375,0.104167,SixtyFourth,B4
1241,Left,1,57,80,273.5,0.479167,Sixteenth,F#4_A3
1242,Right,0,81,80,273.5,0.479167,Sixteenth,C#5_A5
1245,Left,1,63,80,274.0,0.979167,Eighth,D#4_B3
1246,Right,0,71,80,274.0,0.979167,Eighth,F#5_B4
1249,Right,0,75,80,275.375,0.104167,SixtyFourth,D#5
1250,Left,1,66,80,275.5,0.479167,Sixteenth,F#4_A3
1252,Right,0,83,80,275.5,0.229167,ThirtySecond,B5
1253,Right,0,76,80,275.875,0.104167,SixtyFourth,E5
1254,Left,1,56,80,276.0,0.479167,Sixteenth,G#4_G#3
1256,Right,0,83,80,276.0,0.229167,ThirtySecond,B5
1257,Right,0,71,80,276.375,0.104167,SixtyFourth,B4
1258,Left,1,63,80,276.5,0.479167,Sixteenth,F#3_D#4
1260,Right,0,81,80,276.5,0.229167,ThirtySecond,A5
1261,Right,0,71,80,276.875,0.104167,SixtyFourth,B4
1262,Left,1,61,80,277.0,0.479167,Sixteenth,E3_C#4
1264,Right,0,80,80,277.0,0.229167,ThirtySecond,G#5
1265,Right,0,73,80,277.375,0.104167,SixtyFourth,C#5
1266,Left,1,57,80,277.5,0.354167,TripletSixteenth,A4_A3
1267,Right,0,85,80,277.5,0.354167,TripletSixteenth,C#6
1269,Right,0,81,80,277.875,0.104167,SixtyFourth,A5
1270,Left,1,66,80,277.875,0.104167,SixtyFourth,F#4
1273,Left,1,63,80,278.0,0.979167,Eighth,D#4_B3
1271,Right,0,71,80,278.0,0.979167,Eighth,F#5_B4
1275,Left,1,54,80,280.0,1.979167,Quarter,F#4_F#3_C#4
1276,Right,0,81,80,280.0,1.979167,Quarter,C#5_A5_A4
1281,Right,0,80,80,280.75,0.229167,ThirtySecond,G#5
1282,Right,0,81,80,281.0,0.479167,Sixteenth,A5
1283,Right,0,83,80,281.5,0.479167,Sixteenth,B5
1284,Left,1,56,80,282.0,0.979167,Eighth,G#3_E4_C#4
1287,Right,0,80,80,282.0,0.979167,Eighth,G#5_G#4_C#5
1290,Right,0,67,120,283.75,2.229167,TiedQuarter-ThirtySecond,G5_G4_C#5
1293,Left,1,45,120,284.0,1.979167,Quarter,C#3_A3_A2
1296,Left,1,44,90,286.0,0.354167,TripletSixteenth,G#2
1297,Right,0,68,90,286.0,1.479167,DottedEighth,G#4
1298,Left,1,48,90,286.125,0.354167,TripletSixteenth,C3
1299,Right,0,72,90,286.125,1.354167,DottedEighth,C5
1300,Left,1,51,90,286.25,1.229167,Eighth,D#3
1301,Right,0,75,90,286.25,1.229167,Eighth,D#5
1302,Right,0,80,90,286.375,1.104167,Eighth,G#5
1303,Left,1,56,90,286.375,1.104167,Eighth,G#3
1305,Right,0,76,80,287.5,0.979167,Eighth,E5_A#5
1304,Left,1,73,80,287.5,0.979167,Eighth,F#4_C#5
1309,Right,0,83,80,288.5,0.479167,Sixteenth,D#5_B5
1308,Left,1,71,80,288.5,0.479167,Sixteenth,B4_B3
1312,Left,1,64,80,289.5,0.979167,Eighth,E4_B4
1314,Right,0,80,80,289.5,0.979167,Eighth,G#5_D5
1317,Left,1,69,80,290.5,0.479167,Sixteenth,A4_A3
1316,Right,0,73,80,290.5,0.479167,Sixteenth,C#5_A5
1320,Right,0,81,80,291.5,0.354167,TripletSixteenth,A5
1321,Right,0,78,80,291.875,0.104167,SixtyFourth,F#5
1322,Left,1,69,80,292.0,1.979167,Quarter,F#4_B3_A4
1325,Right,0,75,80,292.0,0.229167,ThirtySecond,D#5
1326,Right,0,73,80,292.125,0.229167,ThirtySecond,C#5
1327,Right,0,72,80,292.25,0.229167,ThirtySecond,C5
1328,Right,0,73,80,292.375,0.229167,ThirtySecond,C#5
1329,Right,0,76,80,292.5,0.354167,TripletSixteenth,E5
1330,Right,0,75,80,292.875,0.104167,SixtyFourth,D#5
1331,Right,0,76,80,293.0,0.229167,ThirtySecond,E5
1332,Right,0,75,80,293.125,0.229167,ThirtySecond,D#5
1333,Right,0,73,80,293.25,0.229167,ThirtySecond,C#5
1334,Right,0,75,80,293.375,0.229167,ThirtySecond,D#5
1335,Right,0,78,80,293.5,0.354167,TripletSixteenth,F#5
1336,Right,0,76,80,293.875,0.104167,SixtyFourth,E5
1337,Right,0,76,80,294.0,0.979167,Eighth,E5
1338,Left,1,61,80,294.0,0.979167,Eighth,G#4_E4_C#4
1341,Left,1,34,80,295.5,0.979167,Eighth,A#2_A#1
1343,Right,0,76,80,296.0,0.979167,Eighth,E5_E4
1345,Left,1,47,80,296.5,0.479167,Sixteenth,B2_B1
1347,Right,0,75,80,297.0,0.479167,Sixteenth,D#5_D#4
1349,Left,1,32,80,297.5,0.979167,Eighth,G#2_G#1
1351,Right,0,74,80,298.0,0.979167,Eighth,D5_D4
1353,Left,1,33,80,298.5,0.479167,Sixteenth,A2_A1
1355,Right,0,61,80,299.0,0.479167,Sixteenth,C#5_C#4
1357,Right,0,84,80,299.5,0.479167,Sixteenth,C6_C5
1359,Right,0,73,80,300.0,0.479167,Sixteenth,C#6_C#5
1361,Right,0,68,80,300.5,0.479167,Sixteenth,G#5_G#4
1363,Right,0,69,80,301.0,0.479167,Sixteenth,A5_A4
1365,Right,0,66,80,301.5,0.479167,Sixteenth,F#5_F#4
1367,Left,1,47,80,302.0,1.979167,Quarter,F#3_B2_A3
1370,Right,0,64,80,302.0,0.479167,Sixteenth,E5_E4
1372,Right,0,63,80,302.5,0.479167,Sixteenth,D#5_D#4
1374,Right,0,61,80,303.0,0.479167,Sixteenth,C#5_C#4
1376,Right,0,75,80,303.5,0.479167,Sixteenth,D#5_D#4
1378,Left,1,56,80,304.0,0.979167,Eighth,G#3_E3
1380,Right,0,64,80,304.0,0.479167,Sixteenth,E5_E4
1382,Right,0,71,80,304.5,0.479167,Sixteenth,B4
1383,Right,0,71,80,305.0,0.479167,Sixteenth,B4
1384,Right,0,71,80,305.5,0.479167,Sixteenth,B4
1385,Right,0,71,80,306.0,0.479167,Sixteenth,B4
1386,Left,1,52,80,306.0,0.729167,DottedSixteenth,G#2_E3
1388,Right,0,71,80,306.5,0.479167,Sixteenth,B4
1389,Left,1,42,80,306.75,0.229167,ThirtySecond,F#2_D#3
1392,Right,0,71,80,307.0,0.479167,Sixteenth,B4
1391,Left,1,44,80,307.0,0.479167,Sixteenth,G#2_E3
1396,Right,0,71,80,307.5,0.479167,Sixteenth,B4
1394,Left,1,45,80,307.5,0.479167,Sixteenth,F#3_A2
1398,Left,1,51,80,308.0,0.979167,Eighth,F#2_D#3
1397,Right,0,71,80,308.0,0.479167,Sixteenth,B4
1400,Right,0,71,80,308.5,0.479167,Sixteenth,B4
1401,Right,0,71,80,309.0,0.479167,Sixteenth,B4
1402,Right,0,71,80,309.5,0.479167,Sixteenth,B4
1403,Left,1,52,80,310.0,0.729167,DottedSixteenth,G#3_E3
1405,Right,0,71,80,310.0,0.479167,Sixteenth,B4
1406,Right,0,71,80,310.5,0.479167,Sixteenth,B4
1407,Left,1,51,80,310.75,0.229167,ThirtySecond,F#3_D#3
1411,Right,0,71,80,311.0,0.479167,Sixteenth,B4
1409,Left,1,52,80,311.0,0.479167,Sixteenth,G#3_E3
1413,Right,0,71,80,311.5,0.479167,Sixteenth,B4
1412,Left,1,54,80,311.5,0.479167,Sixteenth,F#3_A3
1415,Left,1,51,80,312.0,0.979167,Eighth,F#3_D#3
1416,Right,0,71,80,312.0,0.479167,Sixteenth,B4
1418,Right,0,71,80,312.5,0.479167,Sixteenth,B5_B4
1420,Right,0,71,80,313.0,0.479167,Sixteenth,B5_B4
1422,Right,0,71,80,313.5,0.479167,Sixteenth,B5_B4
1425,Left,1,64,80,314.0,1.979167,Quarter,G#3_E4
1424,Right,0,83,80,314.0,0.229167,ThirtySecond,B5
1427,Right,0,85,80,314.25,0.114583,SixtyFourth,C#6
1428,Right,0,83,80,314.3125,0.114583,SixtyFourth,B5
1429,Right,0,81,80,314.375,0.114583,SixtyFourth,A5
1430,Right,0,83,80,314.4375,0.052083,TripletSixtyFourth,B5
1431,Right,0,88,115,314.5,0.770833,DottedSixteenth,E6
1432,Right,0,87,80,315.25,0.229167,ThirtySecond,D#6
1433,Right,0,85,80,315.5,0.229167,ThirtySecond,C#6
1434,Right,0,84,80,315.75,0.229167,ThirtySecond,C6
1437,Right,0,87,80,316.0,0.479167,Sixteenth,D#6
1435,Left,1,64,80,316.0,1.979167,Quarter,E4_A3
1438,Right,0,85,80,316.5,1.479167,DottedEighth,C#6
1439,Right,0,87,100,318.4375,0.104167,SixtyFourth,D#6
1440,Right,0,85,100,318.5,0.104167,SixtyFourth,C#6
1441,Right,0,87,100,318.5625,0.104167,SixtyFourth,D#6
1442,Right,0,85,100,318.625,0.104167,SixtyFourth,C#6
1443,Right,0,87,100,318.6875,0.104167,SixtyFourth,D#6
1444,Right,0,85,100,318.75,0.104167,SixtyFourth,C#6
1445,Right,0,87,100,318.8125,0.104167,SixtyFourth,D#6
1446,Right,0,84,100,318.875,0.104167,SixtyFourth,C6
1447,Right,0,85,100,318.9375,0.104167,SixtyFourth,C#6
1448,Right,0,87,100,319.0,0.479167,Sixteenth,D#6
1449,Right,0,88,100,319.5,0.479167,Sixteenth,E6
1450,Right,0,47,100,320.0,2.479167,TiedQuarter-Sixteenth,B2
1451,Left,1,45,70,322.0,1.979167,Quarter,B1_A2
1453,Right,0,49,70,322.25,0.479167,Sixteenth,C#3
1454,Right,0,51,70,322.5,0.479167,Sixteenth,D#3
1455,Right,0,52,70,322.75,0.479167,Sixteenth,E3
1456,Right,0,54,70,323.0,0.479167,Sixteenth,F#3
1457,Right,0,56,70,323.25,0.479167,Sixteenth,G#3
1458,Right,0,57,70,323.5,0.479167,Sixteenth,A3
1459,Left,1,45,70,324.0,3.979167,Quarter,E2_A2
1460,Right,0,54,70,324.0,1.979167,Quarter,F#3_D#3
1464,Left,1,44,70,326.0,1.979167,Quarter,G#2
1463,Right,0,52,70,326.0,1.979167,Quarter,E3
