,hand,channel,note,velocity,start_beat,duration,note_value,chord
0,Right,0,79,80,0.5,0.489583,Eighth,G5
1,Right,0,78,80,1.0,0.489583,Eighth,F#5
2,Right,0,79,80,1.5,0.489583,Eighth,G5
3,Right,0,81,80,2.0,0.989583,Quarter,A5
4,Right,0,79,80,3.0,0.989583,Quarter,G5
5,Right,0,77,80,4.0,0.989583,Quarter,F5
6,Right,0,76,80,5.0,0.989583,Quarter,E5
7,Right,0,74,80,6.0,0.989583,Quarter,D5
8,Left,1,64,80,6.5,0.489583,Eighth,E4
10,Right,0,72,80,7.0,0.989583,Quarter,C5
9,Left,1,62,80,7.0,0.489583,Eighth,D4
11,Left,1,64,80,7.5,0.489583,Eighth,E4
12,Left,1,65,80,8.0,0.989583,Quarter,F4
13,Right,0,71,80,8.0,2.989583,DottedHalf,B4
14,Left,1,62,80,9.0,0.989583,Quarter,D4
15,Left,1,67,80,10.0,0.989583,Quarter,G4
16,Right,0,72,80,11.0,2.989583,DottedHalf,E4_C5
18,Right,0,62,80,12.0,0.989583,Quarter,D4
19,Left,1,55,80,12.5,0.489583,Eighth,G3
20,Right,0,60,80,13.0,0.989583,Quarter,C4
21,Left,1,54,80,13.0,0.489583,Eighth,F#3
22,Left,1,55,80,13.5,0.489583,Eighth,G3
23,Left,1,57,80,14.0,0.989583,Quarter,A3
24,Right,0,74,80,14.0,2.989583,DottedHalf,G4_D5_B4
27,Left,1,55,80,15.0,0.989583,Quarter,G3
28,Left,1,53,80,16.0,0.989583,Quarter,F3
32,Left,1,52,80,17.0,0.989583,Quarter,E3
29,Right,0,67,80,17.0,2.989583,DottedHalf,G4_E5_C5
33,Left,1,50,80,18.0,0.989583,Quarter,D3
34,Left,1,48,80,19.0,0.989583,Quarter,C3
36,Right,0,67,80,20.0,0.989583,Quarter,G5_G4_D5
35,Left,1,47,80,20.0,0.989583,Quarter,B2
40,Right,0,71,80,21.0,0.989583,Quarter,G4_F5_B4
39,Left,1,43,80,21.0,0.989583,Quarter,G2
43,Right,0,67,80,22.0,0.989583,Quarter,G4_E5_C5
46,Left,1,48,80,22.0,0.989583,Quarter,C3
47,Right,0,67,80,23.0,0.989583,Quarter,G4_D5_B4
50,Left,1,43,80,23.0,0.989583,Quarter,G2
51,Left,1,74,80,24.5,0.489583,Eighth,D5
52,Left,1,73,80,25.0,0.489583,Eighth,C#5
53,Left,1,74,80,25.5,0.489583,Eighth,D5
54,Left,1,75,80,26.0,0.989583,Quarter,D#5
55,Left,1,74,80,27.0,0.989583,Quarter,D5
56,Right,0,78,80,27.5,0.489583,Eighth,F#5
57,Left,1,72,80,28.0,0.989583,Quarter,C5
58,Right,0,76,80,28.0,0.489583,Eighth,E5
59,Right,0,78,80,28.5,0.489583,Eighth,F#5
60,Right,0,79,80,29.0,0.989583,Quarter,G5
61,Left,1,70,80,29.0,0.989583,Quarter,A#4
62,Left,1,69,80,30.0,0.989583,Quarter,A4
63,Right,0,79,80,30.5,0.489583,Eighth,G5
65,Right,0,78,80,31.0,0.489583,Eighth,F#5
64,Left,1,67,80,31.0,0.989583,Quarter,G4
66,Right,0,79,80,31.5,0.489583,Eighth,G5
67,Right,0,81,80,32.0,0.989583,Quarter,A5
68,Left,1,66,80,32.0,0.989583,Quarter,F#4_D#4
70,Left,1,62,80,33.0,0.989583,Quarter,D4
71,Right,0,81,80,33.5,0.489583,Eighth,A5
72,Left,1,60,80,34.0,0.989583,Quarter,C4
73,Right,0,79,80,34.0,0.489583,Eighth,G5
74,Right,0,81,80,34.5,0.489583,Eighth,A5
76,Left,1,58,80,35.0,0.989583,Quarter,A#3
75,Right,0,82,80,35.0,0.989583,Quarter,A#5
77,Left,1,57,87,36.0,0.989583,Quarter,A3
78,Right,0,82,91,36.5,0.489583,Eighth,A#5
79,Right,0,81,95,37.0,0.489583,Eighth,A5
80,Left,1,55,95,37.0,0.989583,Quarter,G3
81,Right,0,82,99,37.5,0.489583,Eighth,A#5
82,Right,0,85,110,38.0,0.989583,Quarter,C#6
83,Left,1,58,110,38.0,0.989583,Quarter,A#3_A#2
85,Left,1,45,110,39.0,0.989583,Quarter,A3_A2
87,Right,0,85,110,39.5,0.489583,Eighth,C#6
88,Right,0,84,110,40.0,0.489583,Eighth,C6
89,Left,1,43,110,40.0,0.989583,Quarter,G3_G2
91,Right,0,85,110,40.5,0.489583,Eighth,C#6
92,Right,0,86,110,41.0,0.989583,Quarter,D6
93,Left,1,42,110,41.0,0.989583,Quarter,F#3_F#2
95,Left,1,40,110,42.0,0.989583,Quarter,E3_E2
97,Right,0,86,110,42.5,0.489583,Eighth,D6
98,Left,1,50,110,43.0,0.989583,Quarter,D3_D2
100,Right,0,85,110,43.0,0.489583,Eighth,C#6
101,Right,0,86,110,43.5,0.489583,Eighth,D6
103,Left,1,43,110,44.0,0.989583,Quarter,G3_G2
102,Right,0,83,110,44.0,0.989583,Quarter,G5_D5_B5
107,Right,0,81,110,45.0,0.989583,Quarter,E5_C6_A5
110,Left,1,48,110,45.0,0.989583,Quarter,C3_C2
115,Left,1,50,110,46.0,0.989583,Quarter,D3_D2
112,Right,0,72,110,46.0,0.989583,Quarter,F#5_C5_A5
117,Left,1,31,110,47.0,0.989583,Quarter,G2_G1
119,Right,0,74,110,47.0,0.989583,Quarter,G5_D5_B4
122,Right,0,79,80,48.5,0.489583,Eighth,G5
123,Right,0,78,80,49.0,0.489583,Eighth,F#5
124,Right,0,79,80,49.5,0.489583,Eighth,G5
125,Right,0,81,80,50.0,0.989583,Quarter,A5
126,Right,0,79,80,51.0,0.989583,Quarter,G5
127,Right,0,77,80,52.0,0.989583,Quarter,F5
128,Right,0,76,80,53.0,0.989583,Quarter,E5
129,Right,0,74,80,54.0,0.989583,Quarter,D5
130,Left,1,64,80,54.5,0.489583,Eighth,E4
132,Left,1,62,80,55.0,0.489583,Eighth,D4
131,Right,0,72,80,55.0,0.989583,Quarter,C5
133,Left,1,64,80,55.5,0.489583,Eighth,E4
134,Left,1,65,80,56.0,0.989583,Quarter,F4
135,Right,0,71,80,56.0,2.989583,DottedHalf,B4
136,Left,1,62,80,57.0,0.989583,Quarter,D4
137,Left,1,67,80,58.0,0.989583,Quarter,G4
138,Right,0,72,80,59.0,2.989583,DottedHalf,E4_C5
140,Right,0,62,80,60.0,0.989583,Quarter,D4
141,Left,1,55,80,60.5,0.489583,Eighth,G3
143,Left,1,54,80,61.0,0.489583,Eighth,F#3
142,Right,0,60,80,61.0,0.989583,Quarter,C4
144,Left,1,55,80,61.5,0.489583,Eighth,G3
145,Right,0,67,80,62.0,2.989583,DottedHalf,G4_D5_B4
147,Left,1,57,80,62.0,0.989583,Quarter,A3
149,Left,1,55,80,63.0,0.989583,Quarter,G3
150,Left,1,53,80,64.0,0.989583,Quarter,F3
153,Left,1,52,80,65.0,0.989583,Quarter,E3
151,Right,0,67,80,65.0,2.989583,DottedHalf,G4_E5_C5
155,Left,1,50,80,66.0,0.989583,Quarter,D3
156,Left,1,48,80,67.0,0.989583,Quarter,C3
157,Left,1,47,80,68.0,0.989583,Quarter,B2
158,Right,0,79,80,68.0,0.989583,Quarter,G5_G4_D5
163,Left,1,43,80,69.0,0.989583,Quarter,G2
161,Right,0,77,80,69.0,0.989583,Quarter,G4_F5_B4
167,Left,1,48,80,70.0,0.989583,Quarter,C3
165,Right,0,72,80,70.0,0.989583,Quarter,G4_E5_C5
169,Right,0,74,80,71.0,0.989583,Quarter,G4_D5_B4
172,Left,1,43,80,71.0,0.989583,Quarter,G2
173,Left,1,74,80,72.5,0.489583,Eighth,D5
174,Left,1,73,80,73.0,0.489583,Eighth,C#5
175,Left,1,74,80,73.5,0.489583,Eighth,D5
176,Left,1,75,80,74.0,0.989583,Quarter,D#5
177,Left,1,74,81,75.0,0.989583,Quarter,D5
178,Right,0,78,82,75.5,0.489583,Eighth,F#5
180,Right,0,76,83,76.0,0.489583,Eighth,E5
179,Left,1,72,83,76.0,0.989583,Quarter,C5
181,Right,0,78,84,76.5,0.489583,Eighth,F#5
183,Right,0,79,85,77.0,0.989583,Quarter,G5
182,Left,1,70,85,77.0,0.989583,Quarter,A#4
184,Left,1,69,86,78.0,0.989583,Quarter,A4
185,Right,0,79,87,78.5,0.489583,Eighth,G5
186,Right,0,78,88,79.0,0.489583,Eighth,F#5
187,Left,1,67,88,79.0,0.989583,Quarter,G4
188,Right,0,79,89,79.5,0.489583,Eighth,G5
189,Right,0,81,90,80.0,0.989583,Quarter,A5
190,Left,1,66,90,80.0,0.989583,Quarter,F#4_D#4
192,Left,1,62,92,81.0,0.989583,Quarter,D4
193,Right,0,81,93,81.5,0.489583,Eighth,A5
195,Left,1,60,93,82.0,0.989583,Quarter,C4
194,Right,0,79,93,82.0,0.489583,Eighth,G5
196,Right,0,81,94,82.5,0.489583,Eighth,A5
198,Left,1,58,95,83.0,0.989583,Quarter,A#3
197,Right,0,82,95,83.0,0.989583,Quarter,A#5
199,Left,1,57,97,84.0,0.989583,Quarter,A3
200,Right,0,82,98,84.5,0.489583,Eighth,A#5
202,Left,1,55,99,85.0,0.989583,Quarter,G3
201,Right,0,81,99,85.0,0.489583,Eighth,A5
203,Right,0,82,99,85.5,0.489583,Eighth,A#5
205,Left,1,58,110,86.0,0.989583,Quarter,A#3_A#2
204,Right,0,85,110,86.0,0.989583,Quarter,C#6
207,Left,1,57,110,87.0,0.989583,Quarter,A3_A2
209,Right,0,85,110,87.5,0.489583,Eighth,C#6
212,Right,0,84,110,88.0,0.489583,Eighth,C6
210,Left,1,43,110,88.0,0.989583,Quarter,G3_G2
213,Right,0,85,110,88.5,0.489583,Eighth,C#6
216,Right,0,86,110,89.0,0.989583,Quarter,D6
214,Left,1,42,110,89.0,0.989583,Quarter,F#3_F#2
217,Left,1,40,110,90.0,0.989583,Quarter,E3_E2
219,Right,0,86,110,90.5,0.489583,Eighth,D6
220,Left,1,38,110,91.0,0.989583,Quarter,D3_D2
221,Right,0,85,110,91.0,0.489583,Eighth,C#6
223,Right,0,86,110,91.5,0.489583,Eighth,D6
227,Left,1,43,110,92.0,0.989583,Quarter,G3_G2
224,Right,0,74,110,92.0,0.989583,Quarter,G5_D5_B5
229,Right,0,84,110,93.0,0.989583,Quarter,E5_C6_A5
230,Left,1,36,110,93.0,0.989583,Quarter,C3_C2
236,Right,0,72,110,94.0,0.989583,Quarter,F#5_C5_A5
234,Left,1,50,110,94.0,0.989583,Quarter,D3_D2
241,Left,1,43,110,95.0,0.989583,Quarter,G2_G1
239,Right,0,79,110,95.0,0.989583,Quarter,G5_D5_B4
244,Left,1,67,80,96.5,0.489583,Eighth,G4
245,Left,1,66,80,97.0,0.489583,Eighth,F#4
246,Left,1,67,80,97.5,0.489583,Eighth,G4
247,Left,1,68,80,98.0,0.989583,Quarter,G#4
248,Left,1,67,80,99.0,0.989583,Quarter,G4
249,Right,0,71,80,99.5,0.489583,Eighth,B4
250,Left,1,65,80,100.0,0.989583,Quarter,F4
251,Right,0,69,80,100.0,0.489583,Eighth,A4
252,Right,0,71,80,100.5,0.489583,Eighth,B4
254,Left,1,63,80,101.0,0.989583,Quarter,D#4
253,Right,0,72,80,101.0,0.989583,Quarter,C5
255,Left,1,62,80,102.0,0.989583,Quarter,D4
256,Right,0,72,80,102.5,0.489583,Eighth,C5
257,Right,0,71,80,103.0,0.489583,Eighth,B4
258,Left,1,60,80,103.0,0.989583,Quarter,C4
259,Right,0,72,80,103.5,0.489583,Eighth,C5
260,Right,0,69,80,104.0,0.989583,Quarter,A4
261,Left,1,66,80,104.0,0.989583,Quarter,F#4
262,Left,1,65,80,105.0,0.989583,Quarter,F4
263,Right,0,69,80,105.5,0.489583,Eighth,A4
265,Right,0,67,80,106.0,0.489583,Eighth,G4
264,Left,1,63,80,106.0,0.989583,Quarter,D#4
266,Right,0,69,80,106.5,0.489583,Eighth,A4
267,Left,1,61,80,107.0,0.989583,Quarter,C#4
268,Right,0,70,80,107.0,0.989583,Quarter,A#4
269,Left,1,60,80,108.0,0.989583,Quarter,C4
270,Right,0,70,80,108.5,0.489583,Eighth,A#4
272,Left,1,58,80,109.0,0.989583,Quarter,A#3
271,Right,0,69,80,109.0,0.489583,Eighth,A4
273,Right,0,70,80,109.5,0.489583,Eighth,A#4
275,Left,1,57,80,110.0,0.989583,Quarter,A3
274,Right,0,78,80,110.0,0.989583,Quarter,F#5
276,Right,0,77,80,111.0,0.989583,Quarter,F5
277,Left,1,57,80,111.5,0.489583,Eighth,A3
278,Right,0,75,80,112.0,0.989583,Quarter,D#5
279,Left,1,55,80,112.0,0.489583,Eighth,G3
280,Left,1,57,80,112.5,0.489583,Eighth,A3
282,Right,0,73,80,113.0,0.989583,Quarter,C#5
281,Left,1,58,80,113.0,0.989583,Quarter,A#3
283,Right,0,72,80,114.0,0.989583,Quarter,C5
284,Left,1,61,80,114.5,0.489583,Eighth,C#4
285,Left,1,60,80,115.0,0.489583,Eighth,C4
286,Right,0,70,80,115.0,0.989583,Quarter,A#4
287,Left,1,61,80,115.5,0.489583,Eighth,C#4
289,Right,0,89,80,116.0,0.989583,Quarter,F6_F5
288,Left,1,55,80,116.0,0.989583,Quarter,G3
291,Right,0,87,80,117.0,0.989583,Quarter,D#6_D#5
293,Left,1,55,80,117.5,0.489583,Eighth,G3
294,Left,1,53,80,118.0,0.489583,Eighth,F3
295,Right,0,85,80,118.0,0.989583,Quarter,C#6_C#5
297,Left,1,55,80,118.5,0.489583,Eighth,G3
300,Left,1,56,80,119.0,0.989583,Quarter,G#3
298,Right,0,72,80,119.0,0.989583,Quarter,C6_C5
301,Right,0,82,80,120.0,0.989583,Quarter,A#5_A#4
303,Left,1,60,80,120.5,0.489583,Eighth,C4
305,Right,0,80,80,121.0,0.989583,Quarter,G#5_G#4
304,Left,1,59,80,121.0,0.489583,Eighth,B3
307,Left,1,60,80,121.5,0.489583,Eighth,C4
308,Left,1,54,80,122.0,0.989583,Quarter,F#3
309,Right,0,75,80,122.0,0.989583,Quarter,D#6_D#5
311,Right,0,74,80,123.0,0.989583,Quarter,D6_D5
313,Left,1,54,80,123.5,0.489583,Eighth,F#3
315,Right,0,84,80,124.0,0.989583,Quarter,C6_C5
314,Left,1,52,80,124.0,0.489583,Eighth,E3
317,Left,1,54,80,124.5,0.489583,Eighth,F#3
320,Left,1,55,80,125.0,0.989583,Quarter,G3
318,Right,0,83,80,125.0,0.989583,Quarter,B5_B4
321,Right,0,81,80,126.0,0.989583,Quarter,A5_A4
323,Left,1,55,80,126.5,0.489583,Eighth,G3
325,Right,0,79,80,127.0,0.989583,Quarter,G5_G4
324,Left,1,54,80,127.0,0.489583,Eighth,F#3
327,Left,1,55,80,127.5,0.489583,Eighth,G3
329,Right,0,63,110,128.0,0.989583,Quarter,D#5_D#4
328,Left,1,51,110,128.0,0.989583,Quarter,D#3
331,Left,1,50,110,129.0,0.989583,Quarter,D3
332,Right,0,62,110,129.0,0.989583,Quarter,D5_D4
335,Left,1,48,110,130.0,0.989583,Quarter,C3
334,Right,0,72,110,130.0,0.989583,Quarter,C5_C4
338,Left,1,43,110,131.0,0.989583,Quarter,G2
337,Right,0,55,110,131.0,0.989583,Quarter,G4_G3
341,Left,1,43,100,132.5,0.489583,Eighth,G2
340,Right,0,55,100,132.5,0.489583,Eighth,G3
342,Right,0,54,100,133.0,0.489583,Eighth,F#3
343,Left,1,42,100,133.0,0.489583,Eighth,F#2
344,Left,1,43,100,133.5,0.489583,Eighth,G2
345,Right,0,55,100,133.5,0.489583,Eighth,G3
346,Right,0,56,100,134.0,0.989583,Quarter,G#3
347,Left,1,44,100,134.0,0.989583,Quarter,G#2
348,Right,0,55,100,135.0,0.489583,Eighth,G3
349,Left,1,43,100,135.0,0.489583,Eighth,G2
350,Left,1,55,110,136.0,0.989583,Quarter,G3_D4_B3
352,Right,0,79,110,136.0,0.989583,Quarter,G5_D5_B4
356,Left,1,63,100,137.0,1.489583,Quarter,G3_D#4_C4
357,Right,0,72,100,137.0,0.989583,Quarter,F#5_D#5_C5_A4
365,Left,1,62,100,138.0,0.489583,Eighth,D4_B3
363,Right,0,74,100,138.0,0.489583,Eighth,G5_D5_B4
368,Left,1,43,100,138.5,0.489583,Eighth,G2
369,Right,0,55,100,138.5,0.489583,Eighth,G3
371,Left,1,42,100,139.0,0.489583,Eighth,F#2
370,Right,0,54,100,139.0,0.489583,Eighth,F#3
373,Left,1,43,100,139.5,0.489583,Eighth,G2
372,Right,0,55,100,139.5,0.489583,Eighth,G3
375,Left,1,44,100,140.0,0.989583,Quarter,G#2
374,Right,0,56,100,140.0,0.989583,Quarter,G#3
377,Left,1,43,100,141.0,0.489583,Eighth,G2
376,Right,0,55,100,141.0,0.489583,Eighth,G3
379,Right,0,79,110,142.0,0.989583,Quarter,G5_D5_B4
378,Left,1,62,110,142.0,0.989583,Quarter,G3_D4_B3
384,Right,0,81,100,143.0,0.989583,Quarter,F#5_D#5_C5_A5
385,Left,1,55,100,143.0,1.489583,Quarter,G3_D#4_C4
391,Left,1,59,100,144.0,0.489583,Eighth,D4_B3
393,Right,0,74,100,144.0,0.489583,Eighth,G5_D5_B4
397,Left,1,43,100,144.5,0.489583,Eighth,G2
396,Right,0,55,100,144.5,0.489583,Eighth,G3
399,Right,0,54,100,145.0,0.489583,Eighth,F#3
398,Left,1,42,100,145.0,0.489583,Eighth,F#2
401,Left,1,43,100,145.5,0.489583,Eighth,G2
400,Right,0,55,100,145.5,0.489583,Eighth,G3
402,Left,1,44,100,146.0,0.989583,Quarter,G#2
403,Right,0,56,100,146.0,0.989583,Quarter,G#3
405,Left,1,43,100,147.0,0.489583,Eighth,G2
404,Right,0,55,100,147.0,0.489583,Eighth,G3
409,Right,0,79,110,148.0,0.989583,Quarter,G5_D5_B4
406,Left,1,62,110,148.0,0.989583,Quarter,G3_D4_B3
412,Right,0,80,100,149.0,0.989583,Quarter,G#5_D#5_C5
414,Left,1,63,100,149.0,1.489583,Quarter,G3_D#4_C4
421,Left,1,62,100,150.0,0.489583,Eighth,D4_B3
418,Right,0,71,100,150.0,0.489583,Eighth,G5_D5_B4
423,Right,0,71,110,151.0,0.989583,Quarter,G5_D5_B4
424,Left,1,55,110,151.0,0.989583,Quarter,G3_D4_B3
429,Right,0,72,100,152.0,0.989583,Quarter,G#5_D#5_C5
432,Left,1,55,100,152.0,1.489583,Quarter,G3_D#4_C4
437,Left,1,62,100,153.0,0.489583,Eighth,D4_B3
435,Right,0,71,100,153.0,0.489583,Eighth,G5_D5_B4
443,Left,1,62,110,154.0,0.989583,Quarter,G3_D4_B3
440,Right,0,71,110,154.0,0.989583,Quarter,G5_D5_B4
446,Left,1,55,100,155.0,1.489583,Quarter,G3_D#4_C4
449,Right,0,80,100,155.0,0.989583,Quarter,G#5_D#5_C5
454,Right,0,79,100,156.0,0.489583,Eighth,G5_D5_B4
452,Left,1,62,100,156.0,0.489583,Eighth,D4_B3
457,Right,0,79,100,156.5,0.489583,Eighth,G5
458,Right,0,78,98,157.0,0.489583,Eighth,F#5
459,Right,0,79,95,157.5,0.489583,Eighth,G5
460,Right,0,80,92,158.0,0.989583,Quarter,G#5
461,Right,0,79,87,159.0,0.489583,Eighth,G5
462,Right,0,79,84,159.5,0.489583,Eighth,G5
463,Right,0,78,81,160.0,0.489583,Eighth,F#5
464,Right,0,79,79,160.5,0.489583,Eighth,G5
465,Right,0,80,76,161.0,0.989583,Quarter,G#5
466,Right,0,79,71,162.0,0.489583,Eighth,G5
467,Right,0,79,70,162.5,0.489583,Eighth,G5
468,Right,0,78,70,163.0,0.489583,Eighth,F#5
469,Right,0,79,70,163.5,0.489583,Eighth,G5
470,Right,0,80,70,164.0,0.989583,Quarter,G#5
471,Right,0,79,70,165.0,0.489583,Eighth,G5
472,Right,0,79,80,165.5,0.489583,Eighth,G5
473,Right,0,78,80,166.0,0.489583,Eighth,F#5
474,Right,0,79,80,166.5,0.489583,Eighth,G5
475,Right,0,81,80,167.0,0.989583,Quarter,A5
476,Right,0,79,80,168.0,0.989583,Quarter,G5
477,Right,0,77,80,169.0,0.989583,Quarter,F5
478,Right,0,76,80,170.0,0.989583,Quarter,E5
479,Right,0,74,80,171.0,0.989583,Quarter,D5
480,Left,1,64,80,171.5,0.489583,Eighth,E4
482,Right,0,72,80,172.0,0.989583,Quarter,C5
481,Left,1,62,80,172.0,0.489583,Eighth,D4
483,Left,1,64,80,172.5,0.489583,Eighth,E4
484,Left,1,65,80,173.0,0.989583,Quarter,F4
485,Right,0,71,80,173.0,2.989583,DottedHalf,B4
486,Left,1,62,80,174.0,0.989583,Quarter,D4
487,Left,1,67,80,175.0,0.989583,Quarter,G4
489,Left,1,64,80,176.0,0.989583,Quarter,E4
488,Right,0,72,80,176.0,2.989583,DottedHalf,C5
490,Left,1,62,80,177.0,0.989583,Quarter,D4
491,Left,1,52,80,177.5,0.489583,Eighth,E3
492,Left,1,50,80,178.0,0.989583,Eighth,D3_C4
494,Left,1,52,80,178.5,0.489583,Eighth,E3
498,Left,1,53,80,179.0,0.989583,Quarter,F3
495,Right,0,67,80,179.0,2.989583,DottedHalf,G4_D5_B4
499,Left,1,50,80,180.0,0.989583,Quarter,D3
500,Left,1,55,80,181.0,0.989583,Quarter,G3
502,Right,0,67,80,182.0,3.989583,DottedHalf,G4_E5_C5
501,Left,1,52,80,182.0,0.989583,Quarter,E3
505,Left,1,50,80,183.0,0.989583,Quarter,D3
506,Left,1,48,80,184.0,0.989583,Quarter,C3
507,Right,0,69,80,185.0,1.989583,Half,C#5_A4
509,Left,1,41,80,185.0,0.989583,Quarter,F2
510,Right,0,74,80,186.0,0.989583,Quarter,F5_D5
515,Left,1,43,80,187.0,0.989583,Quarter,G2
512,Right,0,65,80,187.0,0.989583,Quarter,F4_D5_B4
518,Left,1,36,80,188.0,0.989583,Quarter,C3_C2
516,Right,0,64,80,188.0,0.989583,Quarter,E4_C5
520,Left,1,72,80,189.5,0.489583,Eighth,C5
521,Left,1,71,80,190.0,0.489583,Eighth,B4
522,Left,1,72,80,190.5,0.489583,Eighth,C5
523,Left,1,73,80,191.0,0.989583,Quarter,C#5
524,Left,1,72,80,192.0,0.989583,Quarter,C5
525,Right,0,76,80,192.5,0.489583,Eighth,E5
527,Left,1,70,80,193.0,0.989583,Quarter,A#4
526,Right,0,74,80,193.0,0.489583,Eighth,D5
528,Right,0,76,80,193.5,0.489583,Eighth,E5
530,Right,0,77,80,194.0,0.989583,Quarter,F5
529,Left,1,68,80,194.0,0.989583,Quarter,G#4
531,Left,1,67,80,195.0,0.989583,Quarter,G4
532,Right,0,77,80,195.5,0.489583,Eighth,F5
534,Right,0,76,80,196.0,0.489583,Eighth,E5
533,Left,1,65,80,196.0,0.989583,Quarter,F4
535,Right,0,77,80,196.5,0.489583,Eighth,F5
537,Right,0,83,80,197.0,0.989583,Quarter,B5
536,Left,1,68,80,197.0,0.989583,Quarter,G#4
538,Left,1,67,80,198.0,0.989583,Quarter,G4
539,Right,0,83,80,198.5,0.489583,Eighth,B5
541,Right,0,81,80,199.0,0.489583,Eighth,A5
540,Left,1,65,80,199.0,0.989583,Quarter,F4
542,Right,0,83,80,199.5,0.489583,Eighth,B5
544,Left,1,63,80,200.0,0.989583,Quarter,D#4
543,Right,0,84,80,200.0,0.989583,Quarter,C6
545,Left,1,62,80,201.0,0.989583,Quarter,D4
546,Right,0,84,80,201.5,0.489583,Eighth,C6
548,Right,0,83,80,202.0,0.489583,Eighth,B5
547,Left,1,60,80,202.0,0.989583,Quarter,C4
549,Right,0,84,80,202.5,0.489583,Eighth,C6
550,Right,0,78,80,203.0,0.989583,Quarter,F#5
551,Left,1,63,80,203.0,0.989583,Quarter,D#4
552,Left,1,62,80,204.0,0.989583,Quarter,D4
553,Right,0,78,80,204.5,0.489583,Eighth,F#5
554,Right,0,77,80,205.0,0.489583,Eighth,F5
555,Left,1,60,80,205.0,0.989583,Quarter,C4
556,Right,0,78,80,205.5,0.489583,Eighth,F#5
557,Left,1,59,80,206.0,0.989583,Quarter,B3
558,Right,0,79,80,206.0,0.989583,Quarter,G5
559,Left,1,57,80,207.0,0.989583,Quarter,A3
560,Right,0,79,80,207.5,0.489583,Eighth,G5
561,Left,1,55,80,208.0,0.989583,Quarter,G3
562,Right,0,78,80,208.0,0.489583,Eighth,F#5
563,Right,0,79,80,208.5,0.489583,Eighth,G5
564,Left,1,60,80,209.0,0.989583,Quarter,C4
565,Right,0,72,80,209.0,0.989583,Quarter,G4_E5_C5
571,Left,1,53,80,210.0,0.989583,Quarter,F3
568,Right,0,69,80,210.0,0.989583,Quarter,F5_D5_A4
575,Left,1,55,80,211.0,0.989583,Quarter,G3
572,Right,0,74,80,211.0,0.989583,Quarter,F4_D5_B4
578,Left,1,48,80,212.0,0.989583,Quarter,C3
576,Right,0,64,80,212.0,0.989583,Quarter,E4_C5
579,Left,1,48,80,213.5,0.489583,Eighth,C3
580,Right,0,60,80,213.5,0.489583,Eighth,C4
581,Right,0,59,80,214.0,0.489583,Eighth,B3
582,Left,1,47,80,214.0,0.489583,Eighth,B2
584,Left,1,48,80,214.5,0.489583,Eighth,C3
583,Right,0,60,80,214.5,0.489583,Eighth,C4
586,Right,0,61,105,215.0,0.989583,Quarter,C#4
585,Left,1,49,104,215.0,0.989583,Quarter,C#3
587,Left,1,48,80,216.0,0.489583,Eighth,C3
588,Right,0,60,80,216.0,0.489583,Eighth,C4
589,Left,1,64,110,217.0,0.989583,Quarter,G4_E4_C4
591,Right,0,72,110,217.0,0.989583,Quarter,E5_C5
594,Left,1,65,110,218.0,1.489583,Quarter,G#4_F4_C4
596,Right,0,71,110,218.0,0.989583,Quarter,F5_D5_B4
601,Right,0,72,110,219.0,0.489583,Eighth,E5_C5
600,Left,1,67,110,219.0,0.489583,Eighth,G4_E4
604,Left,1,48,80,219.5,0.489583,Eighth,C3
605,Right,0,60,80,219.5,0.489583,Eighth,C4
606,Left,1,47,80,220.0,0.489583,Eighth,B2
607,Right,0,59,80,220.0,0.489583,Eighth,B3
609,Left,1,48,80,220.5,0.489583,Eighth,C3
608,Right,0,60,80,220.5,0.489583,Eighth,C4
610,Left,1,49,80,221.0,0.989583,Quarter,C#3
611,Right,0,61,80,221.0,0.989583,Quarter,C#4
612,Left,1,48,80,222.0,0.489583,Eighth,C3
613,Right,0,60,80,222.0,0.489583,Eighth,C4
615,Left,1,60,100,223.0,0.989583,Quarter,G4_E4_C4
614,Right,0,76,100,223.0,0.989583,Quarter,G5_E5_C6
623,Right,0,83,100,224.0,0.989583,Quarter,G#5_F5_B5
620,Left,1,60,100,224.0,1.489583,Quarter,G#4_F4_C4
628,Left,1,64,100,225.0,0.489583,Eighth,G4_E4
626,Right,0,79,100,225.0,0.489583,Eighth,G5_E5_C6
631,Right,0,60,80,225.5,0.489583,Eighth,C4
632,Left,1,48,80,225.5,0.489583,Eighth,C3
634,Right,0,59,80,226.0,0.489583,Eighth,B3
633,Left,1,47,80,226.0,0.489583,Eighth,B2
636,Right,0,60,80,226.5,0.489583,Eighth,C4
635,Left,1,48,80,226.5,0.489583,Eighth,C3
638,Right,0,61,104,227.0,0.989583,Quarter,C#4
637,Left,1,49,105,227.0,0.989583,Quarter,C#3
639,Left,1,48,80,228.0,0.489583,Eighth,C3
640,Right,0,60,80,228.0,0.489583,Eighth,C4
641,Right,0,84,100,229.0,0.989583,Quarter,E6_C6
643,Left,1,60,100,229.0,0.989583,Quarter,G4_E4_C4
649,Right,0,86,100,230.0,0.989583,Quarter,F6_D6_B5
646,Left,1,60,100,230.0,1.989583,Quarter,G#4_F4_C4
653,Left,1,67,100,231.0,0.989583,Quarter,G4_E4
652,Right,0,84,100,231.0,0.989583,Quarter,E6_C6
656,Right,0,88,100,232.0,0.989583,Quarter,E6_C6
657,Left,1,64,100,232.0,0.989583,Quarter,G4_E4_C4
661,Left,1,65,100,233.0,1.989583,Quarter,G#4_F4_C4
664,Right,0,83,100,233.0,0.989583,Quarter,F6_D6_B5
668,Right,0,88,100,234.0,0.989583,Quarter,E6_C6
667,Left,1,64,100,234.0,0.989583,Quarter,G4_E4
671,Right,0,88,100,235.0,0.989583,Quarter,E6_C6
673,Left,1,60,100,235.0,0.989583,Quarter,G4_E4_C4
678,Right,0,83,100,236.0,0.989583,Quarter,F6_D6_B5
676,Left,1,68,100,236.0,1.989583,Quarter,G#4_F4_C4
684,Right,0,88,100,237.0,0.989583,Quarter,E6_C6
682,Left,1,64,100,237.0,0.989583,Quarter,G4_E4
688,Right,0,84,120,238.0,0.989583,Quarter,C6_C5
686,Left,1,60,120,238.0,0.989583,Quarter,C4_C3
692,Right,0,60,120,239.0,0.989583,Quarter,C5_C4
690,Left,1,36,120,239.0,0.989583,Quarter,C3_C2
694,Left,1,67,80,240.5,0.489583,Eighth,G4
695,Left,1,66,80,241.0,0.489583,Eighth,F#4
696,Left,1,67,80,241.5,0.489583,Eighth,G4
697,Left,1,68,80,242.0,0.989583,Quarter,G#4
698,Left,1,67,80,243.0,0.989583,Quarter,G4
699,Right,0,71,80,243.5,0.489583,Eighth,B4
701,Left,1,65,80,244.0,0.989583,Quarter,F4
700,Right,0,69,80,244.0,0.489583,Eighth,A4
702,Right,0,71,80,244.5,0.489583,Eighth,B4
704,Right,0,72,80,245.0,0.989583,Quarter,C5
703,Left,1,63,80,245.0,0.989583,Quarter,D#4
705,Left,1,62,80,246.0,0.989583,Quarter,D4
706,Right,0,72,80,246.5,0.489583,Eighth,C5
708,Right,0,71,80,247.0,0.489583,Eighth,B4
707,Left,1,60,80,247.0,0.989583,Quarter,C4
709,Right,0,72,80,247.5,0.489583,Eighth,C5
711,Right,0,69,80,248.0,0.989583,Quarter,A4
710,Left,1,66,80,248.0,0.989583,Quarter,F#4
712,Left,1,65,80,249.0,0.989583,Quarter,F4
713,Right,0,69,80,249.5,0.489583,Eighth,A4
714,Left,1,63,80,250.0,0.989583,Quarter,D#4
715,Right,0,67,80,250.0,0.489583,Eighth,G4
716,Right,0,69,80,250.5,0.489583,Eighth,A4
718,Right,0,70,80,251.0,0.989583,Quarter,A#4
717,Left,1,61,80,251.0,0.989583,Quarter,C#4
719,Left,1,60,80,252.0,0.989583,Quarter,C4
720,Right,0,70,80,252.5,0.489583,Eighth,A#4
721,Right,0,69,80,253.0,0.489583,Eighth,A4
722,Left,1,58,80,253.0,0.989583,Quarter,A#3
723,Right,0,70,80,253.5,0.489583,Eighth,A#4
725,Right,0,78,80,254.0,0.989583,Quarter,F#5
724,Left,1,57,80,254.0,0.989583,Quarter,A3
726,Right,0,77,80,255.0,0.989583,Quarter,F5
727,Left,1,57,80,255.5,0.489583,Eighth,A3
729,Left,1,55,80,256.0,0.489583,Eighth,G3
728,Right,0,75,80,256.0,0.989583,Quarter,D#5
730,Left,1,57,80,256.5,0.489583,Eighth,A3
731,Left,1,58,80,257.0,0.989583,Quarter,A#3
732,Right,0,73,80,257.0,0.989583,Quarter,C#5
733,Right,0,72,80,258.0,0.989583,Quarter,C5
734,Left,1,61,80,258.5,0.489583,Eighth,C#4
736,Left,1,60,80,259.0,0.489583,Eighth,C4
735,Right,0,70,80,259.0,0.989583,Quarter,A#4
737,Left,1,61,80,259.5,0.489583,Eighth,C#4
740,Left,1,55,80,260.0,0.989583,Quarter,G3
738,Right,0,77,80,260.0,0.989583,Quarter,F6_F5
741,Right,0,75,80,261.0,0.989583,Quarter,D#6_D#5
743,Left,1,55,80,261.5,0.489583,Eighth,G3
744,Left,1,53,80,262.0,0.489583,Eighth,F3
745,Right,0,85,80,262.0,0.989583,Quarter,C#6_C#5
747,Left,1,55,80,262.5,0.489583,Eighth,G3
748,Right,0,84,80,263.0,0.989583,Quarter,C6_C5
750,Left,1,56,80,263.0,0.989583,Quarter,G#3
751,Right,0,70,80,264.0,0.989583,Quarter,A#5_A#4
753,Left,1,60,80,264.5,0.489583,Eighth,C4
755,Right,0,68,80,265.0,0.989583,Quarter,G#5_G#4
754,Left,1,59,80,265.0,0.489583,Eighth,B3
757,Left,1,60,80,265.5,0.489583,Eighth,C4
760,Left,1,54,80,266.0,0.989583,Quarter,F#3
758,Right,0,87,80,266.0,0.989583,Quarter,D#6_D#5
761,Right,0,74,80,267.0,0.989583,Quarter,D6_D5
763,Left,1,54,80,267.5,0.489583,Eighth,F#3
765,Right,0,84,80,268.0,0.989583,Quarter,C6_C5
764,Left,1,52,80,268.0,0.489583,Eighth,E3
767,Left,1,54,80,268.5,0.489583,Eighth,F#3
768,Left,1,55,80,269.0,0.989583,Quarter,G3
769,Right,0,83,80,269.0,0.989583,Quarter,B5_B4
771,Right,0,81,80,270.0,0.989583,Quarter,A5_A4
773,Left,1,55,80,270.5,0.489583,Eighth,G3
775,Left,1,54,80,271.0,0.489583,Eighth,F#3
774,Right,0,79,80,271.0,0.989583,Quarter,G5_G4
777,Left,1,55,100,271.5,0.489583,Eighth,G3
780,Left,1,51,110,272.0,0.989583,Quarter,D#3
778,Right,0,63,110,272.0,0.989583,Quarter,D#5_D#4
782,Left,1,50,110,273.0,0.989583,Quarter,D3
781,Right,0,62,110,273.0,0.989583,Quarter,D5_D4
786,Left,1,48,110,274.0,0.989583,Quarter,C3
784,Right,0,72,110,274.0,0.989583,Quarter,C5_C4
789,Left,1,43,110,275.0,0.989583,Quarter,G2
787,Right,0,67,110,275.0,0.989583,Quarter,G4_G3
791,Left,1,43,80,276.5,0.489583,Eighth,G2
790,Right,0,55,80,276.5,0.489583,Eighth,G3
792,Left,1,42,80,277.0,0.489583,Eighth,F#2
793,Right,0,54,80,277.0,0.489583,Eighth,F#3
794,Left,1,43,80,277.5,0.489583,Eighth,G2
795,Right,0,55,80,277.5,0.489583,Eighth,G3
796,Left,1,44,80,278.0,0.989583,Quarter,G#2
797,Right,0,56,80,278.0,0.989583,Quarter,G#3
799,Right,0,55,80,279.0,0.489583,Eighth,G3
798,Left,1,43,80,279.0,0.489583,Eighth,G2
803,Right,0,79,110,280.0,0.989583,Quarter,G5_D5_B4
800,Left,1,62,110,280.0,0.989583,Quarter,G3_D4_B3
809,Right,0,72,100,281.0,0.989583,Quarter,F#5_D#5_C5_A4
806,Left,1,55,100,281.0,1.489583,Quarter,G3_D#4_C4
816,Left,1,59,100,282.0,0.489583,Eighth,D4_B3
813,Right,0,79,100,282.0,0.489583,Eighth,G5_D5_B4
819,Right,0,55,80,282.5,0.489583,Eighth,G3
818,Left,1,43,80,282.5,0.489583,Eighth,G2
821,Left,1,42,80,283.0,0.489583,Eighth,F#2
820,Right,0,54,80,283.0,0.489583,Eighth,F#3
823,Right,0,55,80,283.5,0.489583,Eighth,G3
822,Left,1,43,80,283.5,0.489583,Eighth,G2
825,Right,0,56,80,284.0,0.989583,Quarter,G#3
824,Left,1,44,80,284.0,0.989583,Quarter,G#2
827,Right,0,55,80,285.0,0.489583,Eighth,G3
826,Left,1,43,80,285.0,0.489583,Eighth,G2
831,Right,0,71,110,286.0,0.989583,Quarter,G5_D5_B4
828,Left,1,62,110,286.0,0.989583,Quarter,G3_D4_B3
837,Right,0,75,100,287.0,0.989583,Quarter,F#5_D#5_C5_A5
834,Left,1,63,100,287.0,1.489583,Quarter,G3_D#4_C4
841,Right,0,79,100,288.0,0.489583,Eighth,G5_D5_B4
844,Left,1,59,100,288.0,0.489583,Eighth,D4_B3
847,Right,0,55,80,288.5,0.489583,Eighth,G3
846,Left,1,43,80,288.5,0.489583,Eighth,G2
849,Right,0,54,80,289.0,0.489583,Eighth,F#3
848,Left,1,42,80,289.0,0.489583,Eighth,F#2
850,Right,0,55,80,289.5,0.489583,Eighth,G3
851,Left,1,43,80,289.5,0.489583,Eighth,G2
852,Left,1,44,80,290.0,0.989583,Quarter,G#2
853,Right,0,56,80,290.0,0.989583,Quarter,G#3
854,Left,1,43,80,291.0,0.489583,Eighth,G2
855,Right,0,55,80,291.0,0.489583,Eighth,G3
857,Left,1,59,110,292.0,0.989583,Quarter,G3_D4_B3
856,Right,0,74,110,292.0,0.989583,Quarter,G5_D5_B4
862,Left,1,55,100,293.0,1.489583,Quarter,G3_D#4_C4
865,Right,0,80,100,293.0,0.989583,Quarter,G#5_D#5_C5
869,Left,1,59,100,294.0,0.489583,Eighth,D4_B3
868,Right,0,79,100,294.0,0.489583,Eighth,G5_D5_B4
873,Left,1,62,110,295.0,0.989583,Quarter,G3_D4_B3
876,Right,0,79,110,295.0,0.989583,Quarter,G5_D5_B4
882,Left,1,63,100,296.0,1.489583,Quarter,G3_D#4_C4
879,Right,0,75,100,296.0,0.989583,Quarter,G#5_D#5_C5
887,Right,0,79,100,297.0,0.489583,Eighth,G5_D5_B4
885,Left,1,59,100,297.0,0.489583,Eighth,D4_B3
893,Right,0,79,110,298.0,0.989583,Quarter,G5_D5_B4
890,Left,1,55,110,298.0,0.989583,Quarter,G3_D4_B3
896,Left,1,60,100,299.0,1.489583,Quarter,G3_D#4_C4
897,Right,0,80,100,299.0,0.989583,Quarter,G#5_D#5_C5
902,Right,0,79,100,300.0,0.489583,Eighth,G5_D5_B4
905,Left,1,62,100,300.0,0.489583,Eighth,D4_B3
907,Right,0,79,90,300.5,0.489583,Eighth,G5
908,Right,0,78,89,301.0,0.489583,Eighth,F#5
909,Right,0,79,87,301.5,0.489583,Eighth,G5
910,Right,0,80,85,302.0,0.989583,Quarter,G#5
911,Right,0,79,81,303.0,0.489583,Eighth,G5
912,Right,0,79,80,303.5,0.489583,Eighth,G5
913,Right,0,78,78,304.0,0.489583,Eighth,F#5
914,Right,0,79,76,304.5,0.489583,Eighth,G5
915,Right,0,80,74,305.0,0.989583,Quarter,G#5
916,Right,0,79,71,306.0,0.489583,Eighth,G5
917,Right,0,79,70,306.5,0.489583,Eighth,G5
918,Right,0,78,70,307.0,0.489583,Eighth,F#5
919,Right,0,79,70,307.5,0.489583,Eighth,G5
920,Right,0,80,70,308.0,0.989583,Quarter,G#5
921,Right,0,79,70,309.0,0.489583,Eighth,G5
922,Right,0,79,80,309.5,0.489583,Eighth,G5
923,Right,0,78,80,310.0,0.489583,Eighth,F#5
924,Right,0,79,80,310.5,0.489583,Eighth,G5
925,Right,0,81,80,311.0,0.989583,Quarter,A5
926,Right,0,79,80,312.0,0.989583,Quarter,G5
927,Right,0,77,80,313.0,0.989583,Quarter,F5
928,Right,0,76,80,314.0,0.989583,Quarter,E5
929,Right,0,74,80,315.0,0.989583,Quarter,D5
930,Left,1,64,80,315.5,0.489583,Eighth,E4
931,Left,1,62,80,316.0,0.489583,Eighth,D4
932,Right,0,72,80,316.0,0.989583,Quarter,C5
933,Left,1,64,80,316.5,0.489583,Eighth,E4
935,Left,1,65,80,317.0,0.989583,Quarter,F4
934,Right,0,71,80,317.0,2.989583,DottedHalf,B4
936,Left,1,62,80,318.0,0.989583,Quarter,D4
937,Left,1,67,80,319.0,0.989583,Quarter,G4
939,Left,1,64,80,320.0,0.989583,Quarter,E4
938,Right,0,72,80,320.0,2.989583,DottedHalf,C5
940,Left,1,62,80,321.0,0.989583,Quarter,D4
941,Left,1,52,80,321.5,0.489583,Eighth,E3
942,Left,1,50,80,322.0,0.989583,Eighth,D3_C4
944,Left,1,52,80,322.5,0.489583,Eighth,E3
945,Right,0,74,80,323.0,2.989583,DottedHalf,G4_D5_B4
946,Left,1,53,80,323.0,0.989583,Quarter,F3
949,Left,1,50,80,324.0,0.989583,Quarter,D3
950,Left,1,55,80,325.0,0.989583,Quarter,G3
952,Right,0,76,80,326.0,3.989583,DottedHalf,G4_E5_C5
951,Left,1,52,80,326.0,0.989583,Quarter,E3
955,Left,1,50,80,327.0,0.989583,Quarter,D3
956,Left,1,48,80,328.0,0.989583,Quarter,C3
957,Left,1,41,80,329.0,0.989583,Quarter,F2
958,Right,0,69,80,329.0,1.989583,Half,C#5_A4
960,Right,0,74,80,330.0,0.989583,Quarter,F5_D5
962,Right,0,65,80,331.0,0.989583,Quarter,F4_D5_B4
965,Left,1,43,80,331.0,0.989583,Quarter,G2
966,Right,0,64,80,332.0,0.989583,Quarter,E4_C5
968,Left,1,48,80,332.0,0.989583,Quarter,C3_C2
970,Left,1,72,80,333.5,0.489583,Eighth,C5
971,Left,1,71,80,334.0,0.489583,Eighth,B4
972,Left,1,72,80,334.5,0.489583,Eighth,C5
973,Left,1,73,80,335.0,0.989583,Quarter,C#5
974,Left,1,72,80,336.0,0.989583,Quarter,C5
975,Right,0,76,80,336.5,0.489583,Eighth,E5
976,Right,0,74,80,337.0,0.489583,Eighth,D5
977,Left,1,70,80,337.0,0.989583,Quarter,A#4
978,Right,0,76,80,337.5,0.489583,Eighth,E5
979,Right,0,77,80,338.0,0.989583,Quarter,F5
980,Left,1,68,80,338.0,0.989583,Quarter,G#4
981,Left,1,67,80,339.0,0.989583,Quarter,G4
982,Right,0,77,80,339.5,0.489583,Eighth,F5
983,Right,0,76,80,340.0,0.489583,Eighth,E5
984,Left,1,65,80,340.0,0.989583,Quarter,F4
985,Right,0,77,80,340.5,0.489583,Eighth,F5
986,Right,0,83,80,341.0,0.989583,Quarter,B5
987,Left,1,68,80,341.0,0.989583,Quarter,G#4
988,Left,1,67,80,342.0,0.989583,Quarter,G4
989,Right,0,83,80,342.5,0.489583,Eighth,B5
991,Left,1,65,80,343.0,0.989583,Quarter,F4
990,Right,0,81,80,343.0,0.489583,Eighth,A5
992,Right,0,83,80,343.5,0.489583,Eighth,B5
993,Right,0,84,80,344.0,0.989583,Quarter,C6
994,Left,1,63,80,344.0,0.989583,Quarter,D#4
995,Left,1,62,80,345.0,0.989583,Quarter,D4
996,Right,0,84,80,345.5,0.489583,Eighth,C6
997,Right,0,83,80,346.0,0.489583,Eighth,B5
998,Left,1,60,80,346.0,0.989583,Quarter,C4
999,Right,0,84,80,346.5,0.489583,Eighth,C6
1000,Right,0,78,80,347.0,0.989583,Quarter,F#5
1001,Left,1,63,80,347.0,0.989583,Quarter,D#4
1002,Left,1,62,80,348.0,0.989583,Quarter,D4
1003,Right,0,78,80,348.5,0.489583,Eighth,F#5
1005,Left,1,60,80,349.0,0.989583,Quarter,C4
1004,Right,0,77,80,349.0,0.489583,Eighth,F5
1006,Right,0,78,80,349.5,0.489583,Eighth,F#5
1008,Right,0,79,80,350.0,0.989583,Quarter,G5
1007,Left,1,59,80,350.0,0.989583,Quarter,B3
1009,Left,1,57,80,351.0,0.989583,Quarter,A3
1010,Right,0,79,80,351.5,0.489583,Eighth,G5
1011,Right,0,78,80,352.0,0.489583,Eighth,F#5
1012,Left,1,55,80,352.0,0.989583,Quarter,G3
1013,Right,0,79,80,352.5,0.489583,Eighth,G5
1016,Left,1,60,80,353.0,0.989583,Quarter,C4
1014,Right,0,67,80,353.0,0.989583,Quarter,G4_E5_C5
1018,Left,1,53,80,354.0,0.989583,Quarter,F3
1019,Right,0,69,80,354.0,0.989583,Quarter,F5_D5_A4
1022,Right,0,65,80,355.0,0.989583,Quarter,F4_D5_B4
1025,Left,1,55,80,355.0,0.989583,Quarter,G3
1027,Left,1,48,80,356.0,0.989583,Quarter,C3
1026,Right,0,72,80,356.0,0.989583,Quarter,E4_C5
1030,Right,0,60,80,357.5,0.489583,Eighth,C4
1029,Left,1,48,80,357.5,0.489583,Eighth,C3
1032,Right,0,59,80,358.0,0.489583,Eighth,B3
1031,Left,1,47,80,358.0,0.489583,Eighth,B2
1033,Right,0,60,80,358.5,0.489583,Eighth,C4
1034,Left,1,48,80,358.5,0.489583,Eighth,C3
1035,Right,0,61,103,359.0,0.989583,Quarter,C#4
1036,Left,1,49,103,359.0,0.989583,Quarter,C#3
1037,Right,0,60,80,360.0,0.489583,Eighth,C4
1038,Left,1,48,80,360.0,0.489583,Eighth,C3
1039,Right,0,76,100,361.0,0.989583,Quarter,E5_C5
1041,Left,1,67,100,361.0,0.989583,Quarter,G4_E4_C4
1044,Right,0,74,100,362.0,0.989583,Quarter,F5_D5_B4
1047,Left,1,68,100,362.0,1.489583,Quarter,G#4_F4_C4
1050,Right,0,72,100,363.0,0.489583,Eighth,E5_C5
1052,Left,1,64,100,363.0,0.489583,Eighth,G4_E4
1054,Right,0,60,80,363.5,0.489583,Eighth,C4
1055,Left,1,48,80,363.5,0.489583,Eighth,C3
1056,Right,0,59,80,364.0,0.489583,Eighth,B3
1057,Left,1,47,80,364.0,0.489583,Eighth,B2
1059,Left,1,48,80,364.5,0.489583,Eighth,C3
1058,Right,0,60,80,364.5,0.489583,Eighth,C4
1060,Right,0,61,101,365.0,0.989583,Quarter,C#4
1061,Left,1,49,103,365.0,0.989583,Quarter,C#3
1062,Right,0,60,80,366.0,0.489583,Eighth,C4
1063,Left,1,48,80,366.0,0.489583,Eighth,C3
1065,Right,0,84,100,367.0,0.989583,Quarter,G5_E5_C6
1064,Left,1,60,100,367.0,0.989583,Quarter,G4_E4_C4
1073,Left,1,65,100,368.0,1.489583,Quarter,G#4_F4_C4
1070,Right,0,80,100,368.0,0.989583,Quarter,G#5_F5_B5
1076,Left,1,64,100,369.0,0.489583,Eighth,G4_E4
1077,Right,0,84,100,369.0,0.489583,Eighth,G5_E5_C6
1081,Left,1,48,80,369.5,0.489583,Eighth,C3
1082,Right,0,60,80,369.5,0.489583,Eighth,C4
1083,Left,1,47,80,370.0,0.489583,Eighth,B2
1084,Right,0,59,80,370.0,0.489583,Eighth,B3
1086,Right,0,60,80,370.5,0.489583,Eighth,C4
1085,Left,1,48,80,370.5,0.489583,Eighth,C3
1087,Right,0,61,102,371.0,0.989583,Quarter,C#4
1088,Left,1,49,104,371.0,0.989583,Quarter,C#3
1089,Right,0,60,80,372.0,0.489583,Eighth,C4
1090,Left,1,48,80,372.0,0.489583,Eighth,C3
1091,Right,0,84,100,373.0,0.989583,Quarter,E6_C6
1093,Left,1,67,100,373.0,0.989583,Quarter,G4_E4_C4
1099,Right,0,89,100,374.0,0.989583,Quarter,F6_D6_B5
1096,Left,1,65,100,374.0,1.989583,Quarter,G#4_F4_C4
1102,Left,1,64,100,375.0,0.989583,Quarter,G4_E4
1104,Right,0,88,100,375.0,0.989583,Quarter,E6_C6
1107,Left,1,67,100,376.0,0.989583,Quarter,G4_E4_C4
1106,Right,0,88,100,376.0,0.989583,Quarter,E6_C6
1111,Right,0,89,100,377.0,0.989583,Quarter,F6_D6_B5
1113,Left,1,60,100,377.0,1.989583,Quarter,G#4_F4_C4
1119,Left,1,67,100,378.0,0.989583,Quarter,G4_E4
1117,Right,0,84,100,378.0,0.989583,Quarter,E6_C6
1124,Right,0,84,100,379.0,0.989583,Quarter,E6_C6
1121,Left,1,60,100,379.0,0.989583,Quarter,G4_E4_C4
1129,Left,1,65,100,380.0,1.989583,Quarter,G#4_F4_C4
1126,Right,0,86,100,380.0,0.989583,Quarter,F6_D6_B5
1133,Left,1,67,100,381.0,0.989583,Quarter,G4_E4
1132,Right,0,88,100,381.0,0.989583,Quarter,E6_C6
1138,Left,1,60,110,382.0,0.989583,Quarter,C4_C3
1136,Right,0,84,110,382.0,0.989583,Quarter,C6_C5
1142,Left,1,48,110,383.0,0.989583,Quarter,C3_C2
1140,Right,0,60,110,383.0,0.989583,Quarter,C5_C4
1144,Right,0,52,100,386.0,0.65625,DottedEighth,E3
1145,Left,1,45,100,386.0,2.989583,DottedHalf,A2_A1
1147,Right,0,57,100,386.333333,0.65625,DottedEighth,A3
1148,Right,0,60,100,386.666667,0.65625,DottedEighth,C4
1149,Right,0,64,100,387.0,0.65625,DottedEighth,E4
1150,Right,0,69,100,387.333333,0.65625,DottedEighth,A4
1151,Right,0,72,100,387.666667,0.65625,DottedEighth,C5
1152,Right,0,76,100,388.0,0.65625,DottedEighth,E5
1153,Right,0,72,100,388.333333,0.65625,DottedEighth,C5
1154,Right,0,69,100,388.666667,0.65625,DottedEighth,A4
1155,Left,1,35,100,389.0,2.989583,DottedHalf,B2_B1
1156,Right,0,76,100,389.0,0.65625,DottedEighth,E5
1158,Right,0,71,100,389.333333,0.65625,DottedEighth,B4
1159,Right,0,68,100,389.666667,0.65625,DottedEighth,G#4
1160,Right,0,64,100,390.0,0.65625,DottedEighth,E4
1161,Right,0,59,100,390.333333,0.65625,DottedEighth,B3
1162,Right,0,56,100,390.666667,0.65625,DottedEighth,G#3
1163,Right,0,52,100,391.0,0.65625,DottedEighth,E3
1164,Right,0,56,100,391.333333,0.65625,DottedEighth,G#3
1165,Right,0,59,100,391.666667,0.322917,Triplet,B3
1166,Left,1,48,100,392.0,2.989583,DottedHalf,C3_C2
1168,Right,0,52,100,392.0,0.65625,DottedEighth,E3
1169,Right,0,57,100,392.333333,0.65625,DottedEighth,A3
1170,Right,0,60,100,392.666667,0.65625,DottedEighth,C4
1171,Right,0,64,100,393.0,0.65625,DottedEighth,E4
1172,Right,0,69,100,393.333333,0.65625,DottedEighth,A4
1173,Right,0,72,100,393.666667,0.65625,DottedEighth,C5
1174,Right,0,76,100,394.0,0.65625,DottedEighth,E5
1175,Right,0,72,100,394.333333,0.65625,DottedEighth,C5
1176,Right,0,69,100,394.666667,0.65625,DottedEighth,A4
1178,Right,0,76,100,395.0,0.65625,DottedEighth,E5
1177,Left,1,38,100,395.0,2.989583,DottedHalf,D3_D2
1180,Right,0,71,100,395.333333,0.65625,DottedEighth,B4
1181,Right,0,68,100,395.666667,0.65625,DottedEighth,G#4
1182,Right,0,64,100,396.0,0.65625,DottedEighth,E4
1183,Right,0,59,100,396.333333,0.65625,DottedEighth,B3
1184,Right,0,56,100,396.666667,0.65625,DottedEighth,G#3
1185,Right,0,52,100,397.0,0.65625,DottedEighth,E3
1186,Right,0,56,100,397.333333,0.65625,DottedEighth,G#3
1187,Right,0,59,100,397.666667,0.322917,Triplet,B3
1189,Left,1,36,100,398.0,2.989583,DottedHalf,C3_C2
1188,Right,0,52,100,398.0,0.65625,DottedEighth,E3
1191,Right,0,57,100,398.333333,0.65625,DottedEighth,A3
1192,Right,0,60,100,398.666667,0.65625,DottedEighth,C4
1193,Right,0,64,100,399.0,0.65625,DottedEighth,E4
1194,Right,0,69,100,399.333333,0.65625,DottedEighth,A4
1195,Right,0,72,100,399.666667,0.65625,DottedEighth,C5
1196,Right,0,76,100,400.0,0.65625,DottedEighth,E5
1197,Right,0,72,100,400.333333,0.65625,DottedEighth,C5
1198,Right,0,69,100,400.666667,0.65625,DottedEighth,A4
1199,Left,1,35,100,401.0,2.989583,DottedHalf,B2_B1
1200,Right,0,76,100,401.0,0.65625,DottedEighth,E5
1202,Right,0,72,100,401.333333,0.65625,DottedEighth,C5
1203,Right,0,67,100,401.666667,0.65625,DottedEighth,G4
1204,Right,0,64,100,402.0,0.65625,DottedEighth,E4
1205,Right,0,60,100,402.333333,0.65625,DottedEighth,C4
1206,Right,0,55,100,402.666667,0.65625,DottedEighth,G3
1207,Right,0,52,100,403.0,0.65625,DottedEighth,E3
1208,Right,0,55,100,403.333333,0.65625,DottedEighth,G3
1209,Right,0,59,100,403.666667,0.322917,Triplet,B3
1212,Right,0,64,100,404.0,0.65625,DottedEighth,E4
1210,Left,1,33,100,404.0,0.989583,Quarter,A2_A1
1213,Right,0,61,98,404.333333,0.65625,DottedEighth,C#4
1214,Right,0,55,96,404.666667,0.65625,DottedEighth,G3
1216,Right,0,64,93,405.0,0.65625,DottedEighth,E4
1215,Left,1,47,93,405.0,0.989583,Quarter,B2_B1
1218,Right,0,59,91,405.333333,0.65625,DottedEighth,B3
1219,Right,0,55,88,405.666667,0.65625,DottedEighth,G3
1222,Right,0,63,86,406.0,0.65625,DottedEighth,D#4
1220,Left,1,47,86,406.0,0.989583,Quarter,B2_B1
1223,Right,0,59,83,406.333333,0.65625,DottedEighth,B3
1224,Right,0,54,81,406.666667,0.322917,Triplet,F#3
1225,Left,1,40,80,407.0,0.989583,Quarter,E2
1226,Right,0,55,80,407.0,0.989583,Quarter,G3_E4_B3
1229,Left,1,52,80,408.0,0.989583,Quarter,E3
1230,Left,1,52,80,409.0,0.989583,Quarter,E3
1232,Left,1,33,100,410.0,2.989583,DottedHalf,A2_A1
1231,Right,0,52,100,410.0,0.65625,DottedEighth,E3
1234,Right,0,57,100,410.333333,0.65625,DottedEighth,A3
1235,Right,0,60,100,410.666667,0.65625,DottedEighth,C4
1236,Right,0,64,100,411.0,0.65625,DottedEighth,E4
1237,Right,0,69,100,411.333333,0.65625,DottedEighth,A4
1238,Right,0,72,100,411.666667,0.65625,DottedEighth,C5
1239,Right,0,76,100,412.0,0.65625,DottedEighth,E5
1240,Right,0,72,100,412.333333,0.65625,DottedEighth,C5
1241,Right,0,69,100,412.666667,0.65625,DottedEighth,A4
1242,Right,0,76,100,413.0,0.65625,DottedEighth,E5
1243,Left,1,35,100,413.0,2.989583,DottedHalf,B2_B1
1245,Right,0,71,100,413.333333,0.65625,DottedEighth,B4
1246,Right,0,68,100,413.666667,0.65625,DottedEighth,G#4
1247,Right,0,64,100,414.0,0.65625,DottedEighth,E4
1248,Right,0,59,100,414.333333,0.65625,DottedEighth,B3
1249,Right,0,56,100,414.666667,0.65625,DottedEighth,G#3
1250,Right,0,52,100,415.0,0.65625,DottedEighth,E3
1251,Right,0,56,100,415.333333,0.65625,DottedEighth,G#3
1252,Right,0,59,100,415.666667,0.322917,Triplet,B3
1253,Left,1,48,100,416.0,2.989583,DottedHalf,C3_C2
1255,Right,0,52,100,416.0,0.65625,DottedEighth,E3
1256,Right,0,57,100,416.333333,0.65625,DottedEighth,A3
1257,Right,0,60,100,416.666667,0.65625,DottedEighth,C4
1258,Right,0,64,100,417.0,0.65625,DottedEighth,E4
1259,Right,0,69,100,417.333333,0.65625,DottedEighth,A4
1260,Right,0,72,100,417.666667,0.65625,DottedEighth,C5
1261,Right,0,76,100,418.0,0.65625,DottedEighth,E5
1262,Right,0,72,100,418.333333,0.65625,DottedEighth,C5
1263,Right,0,69,100,418.666667,0.65625,DottedEighth,A4
1265,Right,0,76,100,419.0,0.65625,DottedEighth,E5
1264,Left,1,50,100,419.0,2.989583,DottedHalf,D3_D2
1267,Right,0,71,100,419.333333,0.65625,DottedEighth,B4
1268,Right,0,68,100,419.666667,0.65625,DottedEighth,G#4
1269,Right,0,64,100,420.0,0.65625,DottedEighth,E4
1270,Right,0,59,100,420.333333,0.65625,DottedEighth,B3
1271,Right,0,56,100,420.666667,0.65625,DottedEighth,G#3
1272,Right,0,52,100,421.0,0.65625,DottedEighth,E3
1273,Right,0,56,100,421.333333,0.65625,DottedEighth,G#3
1274,Right,0,59,100,421.666667,0.322917,Triplet,B3
1275,Right,0,52,100,422.0,0.65625,DottedEighth,E3
1276,Left,1,36,100,422.0,2.989583,DottedHalf,C3_C2
1278,Right,0,57,100,422.333333,0.65625,DottedEighth,A3
1279,Right,0,60,100,422.666667,0.65625,DottedEighth,C4
1280,Right,0,64,100,423.0,0.65625,DottedEighth,E4
1281,Right,0,69,100,423.333333,0.65625,DottedEighth,A4
1282,Right,0,72,100,423.666667,0.65625,DottedEighth,C5
1283,Right,0,76,100,424.0,0.65625,DottedEighth,E5
1284,Right,0,72,100,424.333333,0.65625,DottedEighth,C5
1285,Right,0,69,100,424.666667,0.65625,DottedEighth,A4
1288,Right,0,76,100,425.0,0.65625,DottedEighth,E5
1286,Left,1,47,100,425.0,2.989583,DottedHalf,B2_B1
1289,Right,0,72,100,425.333333,0.65625,DottedEighth,C5
1290,Right,0,67,100,425.666667,0.65625,DottedEighth,G4
1291,Right,0,64,100,426.0,0.65625,DottedEighth,E4
1292,Right,0,60,100,426.333333,0.65625,DottedEighth,C4
1293,Right,0,55,100,426.666667,0.65625,DottedEighth,G3
1294,Right,0,52,100,427.0,0.65625,DottedEighth,E3
1295,Right,0,55,100,427.333333,0.65625,DottedEighth,G3
1296,Right,0,59,100,427.666667,0.322917,Triplet,B3
1299,Right,0,64,100,428.0,0.65625,DottedEighth,E4
1297,Left,1,45,100,428.0,0.989583,Quarter,A2_A1
1300,Right,0,61,98,428.333333,0.65625,DottedEighth,C#4
1301,Right,0,55,96,428.666667,0.65625,DottedEighth,G3
1302,Right,0,64,93,429.0,0.65625,DottedEighth,E4
1303,Left,1,47,93,429.0,0.989583,Quarter,B2_B1
1305,Right,0,59,91,429.333333,0.65625,DottedEighth,B3
1306,Right,0,55,88,429.666667,0.65625,DottedEighth,G3
1308,Left,1,47,86,430.0,0.989583,Quarter,B2_B1
1307,Right,0,63,86,430.0,0.65625,DottedEighth,D#4
1310,Right,0,59,83,430.333333,0.65625,DottedEighth,B3
1311,Right,0,54,81,430.666667,0.322917,Triplet,F#3
1314,Left,1,40,80,431.0,0.989583,Quarter,E2
1312,Right,0,59,80,431.0,0.989583,Quarter,G3_E4_B3
1316,Left,1,52,80,432.0,0.989583,Quarter,E3
1317,Right,0,55,100,433.0,0.989583,Quarter,G3
1318,Left,1,36,100,434.0,2.989583,DottedHalf,C3_C2
1320,Right,0,55,100,434.0,0.65625,DottedEighth,G3
1321,Right,0,60,100,434.333333,0.65625,DottedEighth,C4
1322,Right,0,64,100,434.666667,0.65625,DottedEighth,E4
1323,Right,0,67,100,435.0,0.65625,DottedEighth,G4
1324,Right,0,72,100,435.333333,0.65625,DottedEighth,C5
1325,Right,0,76,100,435.666667,0.65625,DottedEighth,E5
1326,Right,0,79,100,436.0,0.65625,DottedEighth,G5
1327,Right,0,76,100,436.333333,0.65625,DottedEighth,E5
1328,Right,0,72,100,436.666667,0.65625,DottedEighth,C5
1329,Left,1,38,100,437.0,2.989583,DottedHalf,D3_D2
1331,Right,0,79,100,437.0,0.65625,DottedEighth,G5
1332,Right,0,74,100,437.333333,0.65625,DottedEighth,D5
1333,Right,0,71,100,437.666667,0.65625,DottedEighth,B4
1334,Right,0,67,100,438.0,0.65625,DottedEighth,G4
1335,Right,0,62,100,438.333333,0.65625,DottedEighth,D4
1336,Right,0,59,100,438.666667,0.65625,DottedEighth,B3
1337,Right,0,55,100,439.0,0.65625,DottedEighth,G3
1338,Right,0,59,100,439.333333,0.65625,DottedEighth,B3
1339,Right,0,62,100,439.666667,0.322917,Triplet,D4
1340,Left,1,40,100,440.0,0.989583,Quarter,E3_E2
1342,Right,0,67,100,440.0,0.65625,DottedEighth,G4
1343,Right,0,61,100,440.333333,0.65625,DottedEighth,C#4
1344,Right,0,58,100,440.666667,0.65625,DottedEighth,A#3
1345,Left,1,38,100,441.0,0.989583,Quarter,D3_D2
1347,Right,0,67,100,441.0,0.65625,DottedEighth,G4
1348,Right,0,62,100,441.333333,0.65625,DottedEighth,D4
1349,Right,0,58,100,441.666667,0.65625,DottedEighth,A#3
1351,Right,0,67,100,442.0,0.65625,DottedEighth,G4
1350,Left,1,49,100,442.0,0.989583,Quarter,C#3_C#2
1353,Right,0,64,100,442.333333,0.65625,DottedEighth,E4
1354,Right,0,57,100,442.666667,0.65625,DottedEighth,A3
1356,Right,0,67,100,443.0,0.65625,DottedEighth,G4
1355,Left,1,50,100,443.0,0.989583,Quarter,D3_D2
1358,Right,0,64,100,443.333333,0.65625,DottedEighth,E4
1359,Right,0,57,100,443.666667,0.65625,DottedEighth,A3
1360,Right,0,65,100,444.0,0.65625,DottedEighth,F4
1361,Right,0,62,100,444.333333,0.65625,DottedEighth,D4
1362,Right,0,57,100,444.666667,0.65625,DottedEighth,A3
1363,Right,0,65,100,445.0,0.65625,DottedEighth,F4
1364,Right,0,62,100,445.333333,0.65625,DottedEighth,D4
1365,Right,0,57,100,445.666667,0.322917,Triplet,A3
1367,Left,1,38,100,446.0,2.989583,DottedHalf,D3_D2
1366,Right,0,55,100,446.0,0.65625,DottedEighth,G3
1369,Right,0,62,100,446.333333,0.65625,DottedEighth,D4
1370,Right,0,65,100,446.666667,0.65625,DottedEighth,F4
1371,Right,0,69,100,447.0,0.65625,DottedEighth,A4
1372,Right,0,74,100,447.333333,0.65625,DottedEighth,D5
1373,Right,0,77,100,447.666667,0.65625,DottedEighth,F5
1374,Right,0,81,100,448.0,0.65625,DottedEighth,A5
1375,Right,0,77,100,448.333333,0.65625,DottedEighth,F5
1376,Right,0,74,100,448.666667,0.65625,DottedEighth,D5
1377,Left,1,52,100,449.0,2.989583,DottedHalf,E3_E2
1379,Right,0,81,100,449.0,0.65625,DottedEighth,A5
1380,Right,0,76,100,449.333333,0.65625,DottedEighth,E5
1381,Right,0,72,100,449.666667,0.65625,DottedEighth,C5
1382,Right,0,69,100,450.0,0.65625,DottedEighth,A4
1383,Right,0,64,100,450.333333,0.65625,DottedEighth,E4
1384,Right,0,60,100,450.666667,0.65625,DottedEighth,C4
1385,Right,0,57,100,451.0,0.65625,DottedEighth,A3
1386,Right,0,60,100,451.333333,0.65625,DottedEighth,C4
1387,Right,0,64,100,451.666667,0.65625,DottedEighth,E4
1388,Left,1,42,100,452.0,0.989583,Quarter,F#3_F#2
1390,Right,0,69,100,452.0,0.65625,DottedEighth,A4
1391,Right,0,63,100,452.333333,0.65625,DottedEighth,D#4
1392,Right,0,59,100,452.666667,0.65625,DottedEighth,B3
1395,Right,0,69,100,453.0,0.65625,DottedEighth,A4
1393,Left,1,52,100,453.0,0.989583,Quarter,E3_E2
1396,Right,0,64,100,453.333333,0.65625,DottedEighth,E4
1397,Right,0,59,100,453.666667,0.65625,DottedEighth,B3
1400,Right,0,69,100,454.0,0.65625,DottedEighth,A4
1398,Left,1,39,100,454.0,0.989583,Quarter,D#3_D#2
1401,Right,0,66,100,454.333333,0.65625,DottedEighth,F#4
1402,Right,0,59,100,454.666667,0.65625,DottedEighth,B3
1405,Right,0,69,100,455.0,0.65625,DottedEighth,A4
1403,Left,1,40,100,455.0,0.989583,Quarter,E3_E2
1406,Right,0,64,100,455.333333,0.65625,DottedEighth,E4
1407,Right,0,59,100,455.666667,0.65625,DottedEighth,B3
1408,Right,0,68,100,456.0,0.65625,DottedEighth,G#4
1409,Right,0,64,100,456.333333,0.65625,DottedEighth,E4
1410,Right,0,59,100,456.666667,0.65625,DottedEighth,B3
1411,Right,0,68,100,457.0,0.65625,DottedEighth,G#4
1412,Right,0,64,100,457.333333,0.65625,DottedEighth,E4
1413,Right,0,59,100,457.666667,0.322917,Triplet,B3
1414,Left,1,45,100,458.0,2.989583,DottedHalf,A3_A2
1416,Right,0,64,100,458.0,0.65625,DottedEighth,E4
1417,Right,0,69,100,458.333333,0.65625,DottedEighth,A4
1418,Right,0,72,100,458.666667,0.65625,DottedEighth,C5
1419,Right,0,76,100,459.0,0.65625,DottedEighth,E5
1420,Right,0,81,100,459.333333,0.65625,DottedEighth,A5
1421,Right,0,84,100,459.666667,0.65625,DottedEighth,C6
1422,Right,0,88,100,460.0,0.65625,DottedEighth,E6
1423,Right,0,84,100,460.333333,0.65625,DottedEighth,C6
1424,Right,0,81,100,460.666667,0.65625,DottedEighth,A5
1426,Left,1,47,100,461.0,2.989583,DottedHalf,B3_B2
1425,Right,0,88,100,461.0,0.65625,DottedEighth,E6
1428,Right,0,83,100,461.333333,0.65625,DottedEighth,B5
1429,Right,0,80,100,461.666667,0.65625,DottedEighth,G#5
1430,Right,0,76,100,462.0,0.65625,DottedEighth,E5
1431,Right,0,71,100,462.333333,0.65625,DottedEighth,B4
1432,Right,0,68,100,462.666667,0.65625,DottedEighth,G#4
1433,Right,0,64,100,463.0,0.65625,DottedEighth,E4
1434,Right,0,68,100,463.333333,0.65625,DottedEighth,G#4
1435,Right,0,71,100,463.666667,0.65625,DottedEighth,B4
1436,Right,0,64,100,464.0,0.65625,DottedEighth,E4
1437,Left,1,60,100,464.0,2.989583,DottedHalf,C4_C3
1439,Right,0,69,100,464.333333,0.65625,DottedEighth,A4
1440,Right,0,72,100,464.666667,0.65625,DottedEighth,C5
1441,Right,0,76,100,465.0,0.65625,DottedEighth,E5
1442,Right,0,81,100,465.333333,0.65625,DottedEighth,A5
1443,Right,0,84,100,465.666667,0.65625,DottedEighth,C6
1444,Right,0,88,100,466.0,0.65625,DottedEighth,E6
1445,Right,0,84,100,466.333333,0.65625,DottedEighth,C6
1446,Right,0,81,100,466.666667,0.65625,DottedEighth,A5
1448,Right,0,88,100,467.0,0.65625,DottedEighth,E6
1447,Left,1,50,100,467.0,2.989583,DottedHalf,D4_D3
1450,Right,0,83,100,467.333333,0.65625,DottedEighth,B5
1451,Right,0,80,100,467.666667,0.65625,DottedEighth,G#5
1452,Right,0,76,100,468.0,0.65625,DottedEighth,E5
1453,Right,0,71,100,468.333333,0.65625,DottedEighth,B4
1454,Right,0,68,100,468.666667,0.65625,DottedEighth,G#4
1455,Right,0,64,100,469.0,0.65625,DottedEighth,E4
1456,Right,0,68,100,469.333333,0.65625,DottedEighth,G#4
1457,Right,0,71,100,469.666667,0.65625,DottedEighth,B4
1459,Right,0,64,100,470.0,0.65625,DottedEighth,E4
1458,Left,1,60,100,470.0,2.989583,DottedHalf,C4_C3
1461,Right,0,69,100,470.333333,0.65625,DottedEighth,A4
1462,Right,0,72,100,470.666667,0.65625,DottedEighth,C5
1463,Right,0,76,100,471.0,0.65625,DottedEighth,E5
1464,Right,0,81,100,471.333333,0.65625,DottedEighth,A5
1465,Right,0,84,100,471.666667,0.65625,DottedEighth,C6
1466,Right,0,88,100,472.0,0.65625,DottedEighth,E6
1467,Right,0,84,100,472.333333,0.65625,DottedEighth,C6
1468,Right,0,81,100,472.666667,0.65625,DottedEighth,A5
1470,Left,1,62,100,473.0,2.989583,DottedHalf,D4_D3
1469,Right,0,88,100,473.0,0.65625,DottedEighth,E6
1472,Right,0,84,100,473.333333,0.65625,DottedEighth,C6
1473,Right,0,77,100,473.666667,0.65625,DottedEighth,F5
1474,Right,0,86,100,474.0,0.65625,DottedEighth,D6
1475,Right,0,83,100,474.333333,0.65625,DottedEighth,B5
1476,Right,0,77,100,474.666667,0.65625,DottedEighth,F5
1477,Right,0,86,100,475.0,0.65625,DottedEighth,D6
1478,Right,0,83,100,475.333333,0.65625,DottedEighth,B5
1479,Right,0,77,100,475.666667,0.65625,DottedEighth,F5
1480,Right,0,86,98,476.0,0.65625,DottedEighth,D6
1481,Left,1,64,98,476.0,0.989583,Quarter,E4_E3
1483,Right,0,83,96,476.333333,0.65625,DottedEighth,B5
1484,Right,0,76,94,476.666667,0.65625,DottedEighth,E5
1485,Right,0,84,92,477.0,0.65625,DottedEighth,C6
1486,Right,0,81,89,477.333333,0.65625,DottedEighth,A5
1487,Right,0,76,87,477.666667,0.65625,DottedEighth,E5
1489,Left,1,52,85,478.0,0.989583,Quarter,E3_E2
1488,Right,0,83,85,478.0,0.65625,DottedEighth,B5
1491,Right,0,80,83,478.333333,0.65625,DottedEighth,G#5
1492,Right,0,74,81,478.666667,0.322917,Triplet,D5
1493,Right,0,72,80,479.0,0.989583,Quarter,C5_A5
1494,Left,1,45,80,479.0,0.989583,Quarter,A2
1496,Left,1,57,80,480.0,0.989583,Quarter,A3
1497,Right,0,55,100,481.0,0.989583,Quarter,G3
1500,Right,0,55,100,482.0,0.65625,DottedEighth,G3
1498,Left,1,48,100,482.0,2.989583,DottedHalf,C3_C2
1501,Right,0,60,100,482.333333,0.65625,DottedEighth,C4
1502,Right,0,64,100,482.666667,0.65625,DottedEighth,E4
1503,Right,0,67,100,483.0,0.65625,DottedEighth,G4
1504,Right,0,72,100,483.333333,0.65625,DottedEighth,C5
1505,Right,0,76,100,483.666667,0.65625,DottedEighth,E5
1506,Right,0,79,100,484.0,0.65625,DottedEighth,G5
1507,Right,0,76,100,484.333333,0.65625,DottedEighth,E5
1508,Right,0,72,100,484.666667,0.65625,DottedEighth,C5
1510,Left,1,50,100,485.0,2.989583,DottedHalf,D3_D2
1509,Right,0,79,100,485.0,0.65625,DottedEighth,G5
1512,Right,0,74,100,485.333333,0.65625,DottedEighth,D5
1513,Right,0,71,100,485.666667,0.65625,DottedEighth,B4
1514,Right,0,67,100,486.0,0.65625,DottedEighth,G4
1515,Right,0,62,100,486.333333,0.65625,DottedEighth,D4
1516,Right,0,59,100,486.666667,0.65625,DottedEighth,B3
1517,Right,0,55,100,487.0,0.65625,DottedEighth,G3
1518,Right,0,59,100,487.333333,0.65625,DottedEighth,B3
1519,Right,0,62,100,487.666667,0.322917,Triplet,D4
1522,Right,0,67,100,488.0,0.65625,DottedEighth,G4
1520,Left,1,40,100,488.0,0.989583,Quarter,E3_E2
1523,Right,0,61,100,488.333333,0.65625,DottedEighth,C#4
1524,Right,0,58,100,488.666667,0.65625,DottedEighth,A#3
1525,Left,1,38,100,489.0,0.989583,Quarter,D3_D2
1527,Right,0,67,100,489.0,0.65625,DottedEighth,G4
1528,Right,0,62,100,489.333333,0.65625,DottedEighth,D4
1529,Right,0,58,100,489.666667,0.65625,DottedEighth,A#3
1530,Right,0,67,100,490.0,0.65625,DottedEighth,G4
1531,Left,1,49,100,490.0,0.989583,Quarter,C#3_C#2
1533,Right,0,64,100,490.333333,0.65625,DottedEighth,E4
1534,Right,0,57,100,490.666667,0.65625,DottedEighth,A3
1537,Right,0,67,100,491.0,0.65625,DottedEighth,G4
1535,Left,1,38,100,491.0,0.989583,Quarter,D3_D2
1538,Right,0,64,100,491.333333,0.65625,DottedEighth,E4
1539,Right,0,57,100,491.666667,0.65625,DottedEighth,A3
1540,Right,0,65,100,492.0,0.65625,DottedEighth,F4
1541,Right,0,62,100,492.333333,0.65625,DottedEighth,D4
1542,Right,0,57,100,492.666667,0.65625,DottedEighth,A3
1543,Right,0,65,100,493.0,0.65625,DottedEighth,F4
1544,Right,0,62,100,493.333333,0.65625,DottedEighth,D4
1545,Right,0,57,100,493.666667,0.322917,Triplet,A3
1546,Left,1,38,100,494.0,2.989583,DottedHalf,D3_D2
1548,Right,0,55,100,494.0,0.65625,DottedEighth,G3
1549,Right,0,62,100,494.333333,0.65625,DottedEighth,D4
1550,Right,0,65,100,494.666667,0.65625,DottedEighth,F4
1551,Right,0,69,100,495.0,0.65625,DottedEighth,A4
1552,Right,0,74,100,495.333333,0.65625,DottedEighth,D5
1553,Right,0,77,100,495.666667,0.65625,DottedEighth,F5
1554,Right,0,81,100,496.0,0.65625,DottedEighth,A5
1555,Right,0,77,100,496.333333,0.65625,DottedEighth,F5
1556,Right,0,74,100,496.666667,0.65625,DottedEighth,D5
1557,Left,1,52,100,497.0,2.989583,DottedHalf,E3_E2
1559,Right,0,81,100,497.0,0.65625,DottedEighth,A5
1560,Right,0,76,100,497.333333,0.65625,DottedEighth,E5
1561,Right,0,72,100,497.666667,0.65625,DottedEighth,C5
1562,Right,0,69,100,498.0,0.65625,DottedEighth,A4
1563,Right,0,64,100,498.333333,0.65625,DottedEighth,E4
1564,Right,0,60,100,498.666667,0.65625,DottedEighth,C4
1565,Right,0,57,100,499.0,0.65625,DottedEighth,A3
1566,Right,0,60,100,499.333333,0.65625,DottedEighth,C4
1567,Right,0,64,100,499.666667,0.65625,DottedEighth,E4
1569,Left,1,42,100,500.0,0.989583,Quarter,F#3_F#2
1568,Right,0,69,100,500.0,0.65625,DottedEighth,A4
1571,Right,0,63,100,500.333333,0.65625,DottedEighth,D#4
1572,Right,0,59,100,500.666667,0.65625,DottedEighth,B3
1575,Right,0,69,100,501.0,0.65625,DottedEighth,A4
1573,Left,1,40,100,501.0,0.989583,Quarter,E3_E2
1576,Right,0,64,100,501.333333,0.65625,DottedEighth,E4
1577,Right,0,59,100,501.666667,0.65625,DottedEighth,B3
1578,Right,0,69,100,502.0,0.65625,DottedEighth,A4
1579,Left,1,51,100,502.0,0.989583,Quarter,D#3_D#2
1581,Right,0,66,100,502.333333,0.65625,DottedEighth,F#4
1582,Right,0,59,100,502.666667,0.65625,DottedEighth,B3
1583,Left,1,52,100,503.0,0.989583,Quarter,E3_E2
1585,Right,0,69,100,503.0,0.65625,DottedEighth,A4
1586,Right,0,64,100,503.333333,0.65625,DottedEighth,E4
1587,Right,0,59,100,503.666667,0.65625,DottedEighth,B3
1588,Right,0,68,100,504.0,0.65625,DottedEighth,G#4
1589,Right,0,64,100,504.333333,0.65625,DottedEighth,E4
1590,Right,0,59,100,504.666667,0.65625,DottedEighth,B3
1591,Right,0,68,100,505.0,0.65625,DottedEighth,G#4
1592,Right,0,64,100,505.333333,0.65625,DottedEighth,E4
1593,Right,0,59,100,505.666667,0.322917,Triplet,B3
1596,Right,0,64,100,506.0,0.65625,DottedEighth,E4
1594,Left,1,45,100,506.0,2.989583,DottedHalf,A3_A2
1597,Right,0,69,100,506.333333,0.65625,DottedEighth,A4
1598,Right,0,72,100,506.666667,0.65625,DottedEighth,C5
1599,Right,0,76,100,507.0,0.65625,DottedEighth,E5
1600,Right,0,81,100,507.333333,0.65625,DottedEighth,A5
1601,Right,0,84,100,507.666667,0.65625,DottedEighth,C6
1602,Right,0,88,100,508.0,0.65625,DottedEighth,E6
1603,Right,0,84,100,508.333333,0.65625,DottedEighth,C6
1604,Right,0,81,100,508.666667,0.65625,DottedEighth,A5
1605,Right,0,88,100,509.0,0.65625,DottedEighth,E6
1606,Left,1,47,100,509.0,2.989583,DottedHalf,B3_B2
1608,Right,0,83,100,509.333333,0.65625,DottedEighth,B5
1609,Right,0,80,100,509.666667,0.65625,DottedEighth,G#5
1610,Right,0,76,100,510.0,0.65625,DottedEighth,E5
1611,Right,0,71,100,510.333333,0.65625,DottedEighth,B4
1612,Right,0,68,100,510.666667,0.65625,DottedEighth,G#4
1613,Right,0,64,100,511.0,0.65625,DottedEighth,E4
1614,Right,0,68,100,511.333333,0.65625,DottedEighth,G#4
1615,Right,0,71,100,511.666667,0.65625,DottedEighth,B4
1617,Right,0,64,100,512.0,0.65625,DottedEighth,E4
1616,Left,1,60,100,512.0,2.989583,DottedHalf,C4_C3
1619,Right,0,69,100,512.333333,0.65625,DottedEighth,A4
1620,Right,0,72,100,512.666667,0.65625,DottedEighth,C5
1621,Right,0,76,100,513.0,0.65625,DottedEighth,E5
1622,Right,0,81,100,513.333333,0.65625,DottedEighth,A5
1623,Right,0,84,100,513.666667,0.65625,DottedEighth,C6
1624,Right,0,88,100,514.0,0.65625,DottedEighth,E6
1625,Right,0,84,100,514.333333,0.65625,DottedEighth,C6
1626,Right,0,81,100,514.666667,0.65625,DottedEighth,A5
1628,Left,1,53,100,515.0,2.989583,DottedHalf,F3_D4_D3_A3
1627,Right,0,89,100,515.0,0.65625,DottedEighth,F6
1632,Right,0,86,101,515.333333,0.65625,DottedEighth,D6
1633,Right,0,81,102,515.666667,0.65625,DottedEighth,A5
1634,Right,0,77,103,516.0,0.65625,DottedEighth,F5
1635,Right,0,74,104,516.333333,0.65625,DottedEighth,D5
1636,Right,0,69,105,516.666667,0.65625,DottedEighth,A4
1637,Right,0,65,106,517.0,0.65625,DottedEighth,F4
1638,Right,0,69,107,517.333333,0.65625,DottedEighth,A4
1639,Right,0,74,108,517.666667,0.65625,DottedEighth,D5
1641,Left,1,56,109,518.0,2.989583,DottedHalf,G#3_F3_C4_C3
1640,Right,0,65,109,518.0,0.65625,DottedEighth,F4
1645,Right,0,68,111,518.333333,0.65625,DottedEighth,G#4
1646,Right,0,74,112,518.666667,0.65625,DottedEighth,D5
1647,Right,0,77,113,519.0,0.65625,DottedEighth,F5
1648,Right,0,80,114,519.333333,0.65625,DottedEighth,G#5
1649,Right,0,86,115,519.666667,0.65625,DottedEighth,D6
1650,Right,0,89,116,520.0,0.65625,DottedEighth,F6
1651,Right,0,86,117,520.333333,0.65625,DottedEighth,D6
1652,Right,0,80,118,520.666667,0.65625,DottedEighth,G#5
1653,Left,1,59,120,521.0,0.989583,Quarter,G3_F3_D3_B3_B2
1658,Right,0,89,120,521.0,0.65625,DottedEighth,F6
1659,Right,0,86,120,521.333333,0.65625,DottedEighth,D6
1660,Right,0,83,120,521.666667,0.65625,DottedEighth,B5
1661,Right,0,79,120,522.0,0.65625,DottedEighth,G5
1662,Right,0,77,120,522.333333,0.65625,DottedEighth,F5
1663,Right,0,74,120,522.666667,0.65625,DottedEighth,D5
1664,Right,0,71,120,523.0,0.65625,DottedEighth,B4
1665,Right,0,67,120,523.333333,0.65625,DottedEighth,G4
1666,Right,0,65,120,523.666667,0.65625,DottedEighth,F4
1667,Right,0,62,120,524.0,0.65625,DottedEighth,D4
1668,Right,0,59,120,524.333333,0.65625,DottedEighth,B3
1669,Right,0,55,120,524.666667,0.65625,DottedEighth,G3
1670,Right,0,53,120,525.0,0.65625,DottedEighth,F3
1671,Right,0,50,120,525.333333,0.65625,DottedEighth,D3
1672,Right,0,47,120,525.666667,0.65625,DottedEighth,B2
1673,Right,0,43,120,526.0,0.65625,DottedEighth,G2
1674,Left,1,38,120,526.333333,0.65625,DottedEighth,D2
1675,Left,1,35,120,526.666667,0.322917,Triplet,B1
1676,Left,1,31,120,527.0,2.989583,DottedHalf,G1
1677,Right,0,79,80,531.5,0.489583,Eighth,G5
1678,Right,0,78,80,532.0,0.489583,Eighth,F#5
1679,Right,0,79,80,532.5,0.489583,Eighth,G5
1680,Right,0,81,80,533.0,0.989583,Quarter,A5
1681,Right,0,79,80,534.0,0.989583,Quarter,G5
1682,Right,0,77,80,535.0,0.989583,Quarter,F5
1683,Right,0,76,80,536.0,0.989583,Quarter,E5
1684,Right,0,74,80,537.0,0.989583,Quarter,D5
1685,Left,1,64,80,537.5,0.489583,Eighth,E4
1686,Right,0,72,80,538.0,0.989583,Quarter,C5
1687,Left,1,62,80,538.0,0.489583,Eighth,D4
1688,Left,1,64,80,538.5,0.489583,Eighth,E4
1690,Right,0,71,80,539.0,2.989583,DottedHalf,B4
1689,Left,1,65,80,539.0,0.989583,Quarter,F4
1691,Left,1,62,80,540.0,0.989583,Quarter,D4
1692,Left,1,67,80,541.0,0.989583,Quarter,G4
1693,Right,0,64,80,542.0,2.989583,Quarter,E4_C5
1695,Right,0,62,80,543.0,0.989583,Quarter,D4
1696,Left,1,55,80,543.5,0.489583,Eighth,G3
1697,Right,0,60,80,544.0,0.989583,Quarter,C4
1698,Left,1,54,80,544.0,0.489583,Eighth,F#3
1699,Left,1,55,80,544.5,0.489583,Eighth,G3
1702,Left,1,57,80,545.0,0.989583,Quarter,A3
1700,Right,0,74,80,545.0,2.989583,DottedHalf,G4_D5_B4
1704,Left,1,55,80,546.0,0.989583,Quarter,G3
1705,Left,1,53,80,547.0,0.989583,Quarter,F3
1707,Left,1,52,80,548.0,0.989583,Quarter,E3
1706,Right,0,67,80,548.0,2.989583,DottedHalf,G4_E5_C5
1710,Left,1,50,80,549.0,0.989583,Quarter,D3
1711,Left,1,48,80,550.0,0.989583,Quarter,C3
1712,Left,1,47,80,551.0,0.989583,Quarter,B2
1713,Right,0,67,80,551.0,0.989583,Quarter,G5_G4_D5
1716,Left,1,43,80,552.0,0.989583,Quarter,G2
1717,Right,0,71,80,552.0,0.989583,Quarter,G4_F5_B4
1720,Right,0,67,80,553.0,0.989583,Quarter,G4_E5_C5
1721,Left,1,48,80,553.0,0.989583,Quarter,C3
1725,Right,0,74,80,554.0,0.989583,Quarter,G4_D5_B4
1724,Left,1,43,80,554.0,0.989583,Quarter,G2
1728,Left,1,74,80,555.5,0.489583,Eighth,D5
1729,Left,1,73,80,556.0,0.489583,Eighth,C#5
1730,Left,1,74,80,556.5,0.489583,Eighth,D5
1731,Left,1,75,80,557.0,0.989583,Quarter,D#5
1732,Left,1,74,80,558.0,0.989583,Quarter,D5
1733,Right,0,78,80,558.5,0.489583,Eighth,F#5
1735,Right,0,76,80,559.0,0.489583,Eighth,E5
1734,Left,1,72,80,559.0,0.989583,Quarter,C5
1736,Right,0,78,80,559.5,0.489583,Eighth,F#5
1738,Right,0,79,80,560.0,0.989583,Quarter,G5
1737,Left,1,70,80,560.0,0.989583,Quarter,A#4
1739,Left,1,69,80,561.0,0.989583,Quarter,A4
1740,Right,0,79,80,561.5,0.489583,Eighth,G5
1742,Right,0,78,80,562.0,0.489583,Eighth,F#5
1741,Left,1,67,80,562.0,0.989583,Quarter,G4
1743,Right,0,79,80,562.5,0.489583,Eighth,G5
1744,Right,0,81,80,563.0,0.989583,Quarter,A5
1745,Left,1,63,80,563.0,0.989583,Quarter,F#4_D#4
1747,Left,1,62,80,564.0,0.989583,Quarter,D4
1748,Right,0,81,80,564.5,0.489583,Eighth,A5
1749,Left,1,60,80,565.0,0.989583,Quarter,C4
1750,Right,0,79,80,565.0,0.489583,Eighth,G5
1751,Right,0,81,80,565.5,0.489583,Eighth,A5
1753,Left,1,58,100,566.0,0.989583,Quarter,A#3
1752,Right,0,82,100,566.0,0.989583,Quarter,A#5
1754,Left,1,57,100,567.0,0.989583,Quarter,A3
1755,Right,0,82,100,567.5,0.489583,Eighth,A#5
1757,Left,1,55,100,568.0,0.989583,Quarter,G3
1756,Right,0,81,100,568.0,0.489583,Eighth,A5
1758,Right,0,82,100,568.5,0.489583,Eighth,A#5
1759,Right,0,85,110,569.0,0.989583,Quarter,C#6
1760,Left,1,46,110,569.0,0.989583,Quarter,A#3_A#2
1762,Left,1,57,110,570.0,0.989583,Quarter,A3_A2
1764,Right,0,85,110,570.5,0.489583,Eighth,C#6
1766,Left,1,43,110,571.0,0.989583,Quarter,G3_G2
1765,Right,0,84,110,571.0,0.489583,Eighth,C6
1768,Right,0,85,110,571.5,0.489583,Eighth,C#6
1771,Right,0,86,110,572.0,0.989583,Quarter,D6
1769,Left,1,54,110,572.0,0.989583,Quarter,F#3_F#2
1772,Left,1,52,110,573.0,0.989583,Quarter,E3_E2
1774,Right,0,86,110,573.5,0.489583,Eighth,D6
1776,Left,1,50,110,574.0,0.989583,Quarter,D3_D2
1775,Right,0,85,110,574.0,0.489583,Eighth,C#6
1778,Right,0,86,110,574.5,0.489583,Eighth,D6
1779,Left,1,55,110,575.0,0.989583,Quarter,G3_G2
1781,Right,0,79,110,575.0,0.989583,Quarter,G5_D5_B5
1784,Left,1,36,110,576.0,0.989583,Quarter,C3_C2
1785,Right,0,76,110,576.0,0.989583,Quarter,E5_C6_A5
1789,Left,1,50,110,577.0,0.989583,Quarter,D3_D2
1791,Right,0,81,110,577.0,0.989583,Quarter,F#5_C5_A5
1797,Left,1,31,110,578.0,0.989583,Quarter,G2_G1
1794,Right,0,71,110,578.0,0.989583,Quarter,G5_D5_B4
1799,Left,1,67,80,579.5,0.489583,Eighth,G4
1800,Left,1,66,80,580.0,0.489583,Eighth,F#4
1801,Left,1,67,80,580.5,0.489583,Eighth,G4
1802,Left,1,68,80,581.0,0.989583,Quarter,G#4
1803,Left,1,67,80,582.0,0.989583,Quarter,G4
1804,Right,0,71,80,582.5,0.489583,Eighth,B4
1805,Right,0,69,80,583.0,0.489583,Eighth,A4
1806,Left,1,65,80,583.0,0.989583,Quarter,F4
1807,Right,0,71,80,583.5,0.489583,Eighth,B4
1808,Right,0,72,80,584.0,0.989583,Quarter,C5
1809,Left,1,63,80,584.0,0.989583,Quarter,D#4
1810,Left,1,62,80,585.0,0.989583,Quarter,D4
1811,Right,0,72,80,585.5,0.489583,Eighth,C5
1812,Right,0,71,80,586.0,0.489583,Eighth,B4
1813,Left,1,60,80,586.0,0.989583,Quarter,C4
1814,Right,0,72,80,586.5,0.489583,Eighth,C5
1815,Left,1,66,80,587.0,0.989583,Quarter,F#4
1816,Right,0,69,80,587.0,0.989583,Quarter,A4
1817,Left,1,65,80,588.0,0.989583,Quarter,F4
1818,Right,0,69,80,588.5,0.489583,Eighth,A4
1819,Left,1,63,80,589.0,0.989583,Quarter,D#4
1820,Right,0,67,80,589.0,0.489583,Eighth,G4
1821,Right,0,69,80,589.5,0.489583,Eighth,A4
1823,Right,0,70,80,590.0,0.989583,Quarter,A#4
1822,Left,1,61,80,590.0,0.989583,Quarter,C#4
1824,Left,1,60,80,591.0,0.989583,Quarter,C4
1825,Right,0,70,80,591.5,0.489583,Eighth,A#4
1826,Right,0,69,80,592.0,0.489583,Eighth,A4
1827,Left,1,58,80,592.0,0.989583,Quarter,A#3
1828,Right,0,70,80,592.5,0.489583,Eighth,A#4
1830,Right,0,78,80,593.0,0.989583,Quarter,F#5
1829,Left,1,57,80,593.0,0.989583,Quarter,A3
1831,Right,0,77,80,594.0,0.989583,Quarter,F5
1832,Left,1,57,80,594.5,0.489583,Eighth,A3
1834,Left,1,55,80,595.0,0.489583,Eighth,G3
1833,Right,0,75,80,595.0,0.989583,Quarter,D#5
1835,Left,1,57,80,595.5,0.489583,Eighth,A3
1836,Left,1,58,80,596.0,0.989583,Quarter,A#3
1837,Right,0,73,80,596.0,0.989583,Quarter,C#5
1838,Right,0,72,80,597.0,0.989583,Quarter,C5
1839,Left,1,61,80,597.5,0.489583,Eighth,C#4
1840,Left,1,60,80,598.0,0.489583,Eighth,C4
1841,Right,0,70,80,598.0,0.989583,Quarter,A#4
1842,Left,1,61,80,598.5,0.489583,Eighth,C#4
1843,Left,1,55,80,599.0,0.989583,Quarter,G3
1844,Right,0,77,80,599.0,0.989583,Quarter,F6_F5
1846,Right,0,87,80,600.0,0.989583,Quarter,D#6_D#5
1848,Left,1,55,80,600.5,0.489583,Eighth,G3
1849,Left,1,53,80,601.0,0.489583,Eighth,F3
1850,Right,0,73,80,601.0,0.989583,Quarter,C#6_C#5
1852,Left,1,55,80,601.5,0.489583,Eighth,G3
1853,Right,0,72,80,602.0,0.989583,Quarter,C6_C5
1855,Left,1,56,80,602.0,0.989583,Quarter,G#3
1856,Right,0,82,80,603.0,0.989583,Quarter,A#5_A#4
1858,Left,1,60,80,603.5,0.489583,Eighth,C4
1859,Left,1,59,80,604.0,0.489583,Eighth,B3
1860,Right,0,68,80,604.0,0.989583,Quarter,G#5_G#4
1862,Left,1,60,80,604.5,0.489583,Eighth,C4
1863,Left,1,54,80,605.0,0.989583,Quarter,F#3
1864,Right,0,75,80,605.0,0.989583,Quarter,D#6_D#5
1866,Right,0,74,80,606.0,0.989583,Quarter,D6_D5
1868,Left,1,54,80,606.5,0.489583,Eighth,F#3
1869,Right,0,72,80,607.0,0.989583,Quarter,C6_C5
1871,Left,1,52,80,607.0,0.489583,Eighth,E3
1872,Left,1,54,80,607.5,0.489583,Eighth,F#3
1875,Left,1,55,80,608.0,0.989583,Quarter,G3
1873,Right,0,71,80,608.0,0.989583,Quarter,B5_B4
1876,Right,0,69,80,609.0,0.989583,Quarter,A5_A4
1878,Left,1,55,80,609.5,0.489583,Eighth,G3
1881,Left,1,54,80,610.0,0.489583,Eighth,F#3
1879,Right,0,67,80,610.0,0.989583,Quarter,G5_G4
1882,Left,1,55,80,610.5,0.489583,Eighth,G3
1885,Left,1,51,110,611.0,0.989583,Quarter,D#3
1883,Right,0,63,110,611.0,0.989583,Quarter,D#5_D#4
1887,Right,0,62,110,612.0,0.989583,Quarter,D5_D4
1886,Left,1,50,110,612.0,0.989583,Quarter,D3
1890,Right,0,72,110,613.0,0.989583,Quarter,C5_C4
1889,Left,1,48,110,613.0,0.989583,Quarter,C3
1892,Right,0,67,110,614.0,0.989583,Quarter,G4_G3
1894,Left,1,43,110,614.0,0.989583,Quarter,G2
1895,Right,0,55,80,615.5,0.489583,Eighth,G3
1896,Left,1,43,80,615.5,0.489583,Eighth,G2
1898,Right,0,54,80,616.0,0.489583,Eighth,F#3
1897,Left,1,42,80,616.0,0.489583,Eighth,F#2
1900,Right,0,55,80,616.5,0.489583,Eighth,G3
1899,Left,1,43,80,616.5,0.489583,Eighth,G2
1902,Right,0,56,80,617.0,0.989583,Quarter,G#3
1901,Left,1,44,80,617.0,0.989583,Quarter,G#2
1904,Left,1,43,80,618.0,0.489583,Eighth,G2
1903,Right,0,55,80,618.0,0.489583,Eighth,G3
1905,Right,0,71,110,619.0,0.989583,Quarter,G5_D5_B4
1907,Left,1,59,110,619.0,0.989583,Quarter,G3_D4_B3
1911,Right,0,78,100,620.0,0.989583,Quarter,F#5_D#5_C5_A4
1915,Left,1,63,100,620.0,1.489583,Quarter,G3_D#4_C4
1918,Left,1,59,100,621.0,0.489583,Eighth,D4_B3
1920,Right,0,74,100,621.0,0.489583,Eighth,G5_D5_B4
1924,Left,1,43,80,621.5,0.489583,Eighth,G2
1923,Right,0,55,80,621.5,0.489583,Eighth,G3
1926,Left,1,42,80,622.0,0.489583,Eighth,F#2
1925,Right,0,54,80,622.0,0.489583,Eighth,F#3
1927,Left,1,43,80,622.5,0.489583,Eighth,G2
1928,Right,0,55,80,622.5,0.489583,Eighth,G3
1930,Left,1,44,80,623.0,0.989583,Quarter,G#2
1929,Right,0,56,80,623.0,0.989583,Quarter,G#3
1932,Left,1,43,80,624.0,0.489583,Eighth,G2
1931,Right,0,55,80,624.0,0.489583,Eighth,G3
1935,Left,1,59,110,625.0,0.989583,Quarter,G3_D4_B3
1933,Right,0,74,110,625.0,0.989583,Quarter,G5_D5_B4
1940,Right,0,78,100,626.0,0.989583,Quarter,F#5_D#5_C5_A5
1939,Left,1,63,100,626.0,1.489583,Quarter,G3_D#4_C4
1947,Left,1,59,100,627.0,0.489583,Eighth,D4_B3
1946,Right,0,71,100,627.0,0.489583,Eighth,G5_D5_B4
1952,Right,0,55,80,627.5,0.489583,Eighth,G3
1951,Left,1,43,80,627.5,0.489583,Eighth,G2
1954,Right,0,54,80,628.0,0.489583,Eighth,F#3
1953,Left,1,42,80,628.0,0.489583,Eighth,F#2
1956,Right,0,55,80,628.5,0.489583,Eighth,G3
1955,Left,1,43,80,628.5,0.489583,Eighth,G2
1958,Right,0,56,80,629.0,0.989583,Quarter,G#3
1957,Left,1,44,80,629.0,0.989583,Quarter,G#2
1960,Left,1,43,80,630.0,0.489583,Eighth,G2
1959,Right,0,55,80,630.0,0.489583,Eighth,G3
1964,Right,0,79,110,631.0,0.989583,Quarter,G5_D5_B4
1961,Left,1,59,110,631.0,0.989583,Quarter,G3_D4_B3
1967,Left,1,63,100,632.0,1.489583,Quarter,G3_D#4_C4
1968,Right,0,72,100,632.0,0.989583,Quarter,G#5_D#5_C5
1973,Right,0,74,100,633.0,0.489583,Eighth,G5_D5_B4
1975,Left,1,62,100,633.0,0.489583,Eighth,D4_B3
1978,Right,0,74,110,634.0,0.989583,Quarter,G5_D5_B4
1979,Left,1,59,110,634.0,0.989583,Quarter,G3_D4_B3
1984,Right,0,75,100,635.0,0.989583,Quarter,G#5_D#5_C5
1987,Left,1,60,100,635.0,1.489583,Quarter,G3_D#4_C4
1990,Right,0,79,100,636.0,0.489583,Eighth,G5_D5_B4
1991,Left,1,62,100,636.0,0.489583,Eighth,D4_B3
1995,Right,0,71,110,637.0,0.989583,Quarter,G5_D5_B4
1998,Left,1,55,110,637.0,0.989583,Quarter,G3_D4_B3
2004,Right,0,80,100,638.0,0.989583,Quarter,G#5_D#5_C5
2001,Left,1,63,100,638.0,1.489583,Quarter,G3_D#4_C4
2008,Right,0,74,100,639.0,0.489583,Eighth,G5_D5_B4
2007,Left,1,62,100,639.0,0.489583,Eighth,D4_B3
2012,Right,0,79,100,639.5,0.489583,Eighth,G5
2013,Right,0,78,99,640.0,0.489583,Eighth,F#5
2014,Right,0,79,97,640.5,0.489583,Eighth,G5
2015,Right,0,80,95,641.0,0.989583,Quarter,G#5
2016,Right,0,79,91,642.0,0.489583,Eighth,G5
2017,Right,0,79,90,642.5,0.489583,Eighth,G5
2018,Right,0,78,88,643.0,0.489583,Eighth,F#5
2019,Right,0,79,86,643.5,0.489583,Eighth,G5
2020,Right,0,80,84,644.0,0.989583,Quarter,G#5
2021,Right,0,79,81,645.0,0.489583,Eighth,G5
2022,Right,0,79,70,645.5,0.489583,Eighth,G5
2023,Right,0,78,70,646.0,0.489583,Eighth,F#5
2024,Right,0,79,70,646.5,0.489583,Eighth,G5
2025,Right,0,80,70,647.0,0.989583,Quarter,G#5
2026,Right,0,79,70,648.0,0.489583,Eighth,G5
2027,Right,0,79,80,648.5,0.489583,Eighth,G5
2028,Right,0,78,80,649.0,0.489583,Eighth,F#5
2029,Right,0,79,80,649.5,0.489583,Eighth,G5
2030,Right,0,81,80,650.0,0.989583,Quarter,A5
2031,Right,0,79,80,651.0,0.989583,Quarter,G5
2032,Right,0,77,80,652.0,0.989583,Quarter,F5
2033,Right,0,76,80,653.0,0.989583,Quarter,E5
2034,Right,0,74,80,654.0,0.989583,Quarter,D5
2035,Left,1,64,80,654.5,0.489583,Eighth,E4
2037,Left,1,62,80,655.0,0.489583,Eighth,D4
2036,Right,0,72,80,655.0,0.989583,Quarter,C5
2038,Left,1,64,80,655.5,0.489583,Eighth,E4
2039,Right,0,71,80,656.0,2.989583,DottedHalf,B4
2040,Left,1,65,80,656.0,0.989583,Quarter,F4
2041,Left,1,62,80,657.0,0.989583,Quarter,D4
2042,Left,1,67,80,658.0,0.989583,Quarter,G4
2043,Left,1,64,80,659.0,0.989583,Quarter,E4
2044,Right,0,72,80,659.0,2.989583,DottedHalf,C5
2045,Left,1,62,80,660.0,0.989583,Quarter,D4
2046,Left,1,52,80,660.5,0.489583,Eighth,E3
2047,Left,1,50,80,661.0,0.989583,Eighth,D3_C4
2049,Left,1,52,80,661.5,0.489583,Eighth,E3
2051,Right,0,71,80,662.0,2.989583,DottedHalf,G4_D5_B4
2050,Left,1,53,80,662.0,0.989583,Quarter,F3
2054,Left,1,50,80,663.0,0.989583,Quarter,D3
2055,Left,1,55,80,664.0,0.989583,Quarter,G3
2056,Right,0,67,80,665.0,3.989583,DottedHalf,G4_E5_C5
2058,Left,1,52,80,665.0,0.989583,Quarter,E3
2060,Left,1,50,80,666.0,0.989583,Quarter,D3
2061,Left,1,48,80,667.0,0.989583,Quarter,C3
2064,Left,1,41,80,668.0,0.989583,Quarter,F2
2062,Right,0,69,80,668.0,1.989583,Half,C#5_A4
2065,Right,0,77,80,669.0,0.989583,Quarter,F5_D5
2069,Left,1,43,80,670.0,0.989583,Quarter,G2
2067,Right,0,71,80,670.0,0.989583,Quarter,F4_D5_B4
2073,Left,1,36,80,671.0,0.989583,Quarter,C3_C2
2071,Right,0,72,80,671.0,0.989583,Quarter,E4_C5
2075,Left,1,72,80,672.5,0.489583,Eighth,C5
2076,Left,1,71,80,673.0,0.489583,Eighth,B4
2077,Left,1,72,80,673.5,0.489583,Eighth,C5
2078,Left,1,73,80,674.0,0.989583,Quarter,C#5
2079,Left,1,72,80,675.0,0.989583,Quarter,C5
2080,Right,0,76,80,675.5,0.489583,Eighth,E5
2082,Right,0,74,80,676.0,0.489583,Eighth,D5
2081,Left,1,70,80,676.0,0.989583,Quarter,A#4
2083,Right,0,76,80,676.5,0.489583,Eighth,E5
2085,Right,0,77,80,677.0,0.989583,Quarter,F5
2084,Left,1,68,80,677.0,0.989583,Quarter,G#4
2086,Left,1,67,80,678.0,0.989583,Quarter,G4
2087,Right,0,77,80,678.5,0.489583,Eighth,F5
2089,Right,0,76,80,679.0,0.489583,Eighth,E5
2088,Left,1,65,80,679.0,0.989583,Quarter,F4
2090,Right,0,77,80,679.5,0.489583,Eighth,F5
2091,Right,0,83,80,680.0,0.989583,Quarter,B5
2092,Left,1,68,80,680.0,0.989583,Quarter,G#4
2093,Left,1,67,80,681.0,0.989583,Quarter,G4
2094,Right,0,83,80,681.5,0.489583,Eighth,B5
2096,Right,0,81,80,682.0,0.489583,Eighth,A5
2095,Left,1,65,80,682.0,0.989583,Quarter,F4
2097,Right,0,83,80,682.5,0.489583,Eighth,B5
2098,Left,1,63,80,683.0,0.989583,Quarter,D#4
2099,Right,0,84,80,683.0,0.989583,Quarter,C6
2100,Left,1,62,80,684.0,0.989583,Quarter,D4
2101,Right,0,84,80,684.5,0.489583,Eighth,C6
2103,Right,0,83,80,685.0,0.489583,Eighth,B5
2102,Left,1,60,80,685.0,0.989583,Quarter,C4
2104,Right,0,84,80,685.5,0.489583,Eighth,C6
2106,Left,1,63,80,686.0,0.989583,Quarter,D#4
2105,Right,0,78,80,686.0,0.989583,Quarter,F#5
2107,Left,1,62,80,687.0,0.989583,Quarter,D4
2108,Right,0,78,80,687.5,0.489583,Eighth,F#5
2109,Right,0,77,80,688.0,0.489583,Eighth,F5
2110,Left,1,60,80,688.0,0.989583,Quarter,C4
2111,Right,0,78,80,688.5,0.489583,Eighth,F#5
2112,Right,0,79,80,689.0,0.989583,Quarter,G5
2113,Left,1,59,80,689.0,0.989583,Quarter,B3
2114,Left,1,57,80,690.0,0.989583,Quarter,A3
2115,Right,0,79,80,690.5,0.489583,Eighth,G5
2116,Right,0,78,80,691.0,0.489583,Eighth,F#5
2117,Left,1,55,80,691.0,0.989583,Quarter,G3
2118,Right,0,79,80,691.5,0.489583,Eighth,G5
2122,Left,1,60,80,692.0,0.989583,Quarter,C4
2119,Right,0,76,80,692.0,0.989583,Quarter,G4_E5_C5
2124,Right,0,77,80,693.0,0.989583,Quarter,F5_D5_A4
2123,Left,1,53,80,693.0,0.989583,Quarter,F3
2127,Left,1,55,80,694.0,0.989583,Quarter,G3
2128,Right,0,65,80,694.0,0.989583,Quarter,F4_D5_B4
2131,Left,1,48,80,695.0,0.989583,Quarter,C3
2132,Right,0,64,80,695.0,0.989583,Quarter,E4_C5
2135,Left,1,48,80,696.5,0.489583,Eighth,C3
2134,Right,0,60,80,696.5,0.489583,Eighth,C4
2137,Left,1,47,80,697.0,0.489583,Eighth,B2
2136,Right,0,59,80,697.0,0.489583,Eighth,B3
2138,Right,0,60,80,697.5,0.489583,Eighth,C4
2139,Left,1,48,80,697.5,0.489583,Eighth,C3
2140,Right,0,61,101,698.0,0.989583,Quarter,C#4
2141,Left,1,49,102,698.0,0.989583,Quarter,C#3
2142,Left,1,48,80,699.0,0.489583,Eighth,C3
2143,Right,0,60,80,699.0,0.489583,Eighth,C4
2144,Left,1,67,100,700.0,0.989583,Quarter,G4_E4_C4
2147,Right,0,76,100,700.0,0.989583,Quarter,E5_C5
2151,Right,0,77,100,701.0,0.989583,Quarter,F5_D5_B4
2149,Left,1,68,100,701.0,1.489583,Quarter,G#4_F4_C4
2155,Right,0,72,100,702.0,0.489583,Eighth,E5_C5
2157,Left,1,64,100,702.0,0.489583,Eighth,G4_E4
2159,Left,1,48,80,702.5,0.489583,Eighth,C3
2160,Right,0,60,80,702.5,0.489583,Eighth,C4
2161,Left,1,47,80,703.0,0.489583,Eighth,B2
2162,Right,0,59,80,703.0,0.489583,Eighth,B3
2163,Left,1,48,80,703.5,0.489583,Eighth,C3
2164,Right,0,60,80,703.5,0.489583,Eighth,C4
2165,Left,1,49,104,704.0,0.989583,Quarter,C#3
2166,Right,0,61,101,704.0,0.989583,Quarter,C#4
2168,Left,1,48,80,705.0,0.489583,Eighth,C3
2167,Right,0,60,80,705.0,0.489583,Eighth,C4
2169,Left,1,64,110,706.0,0.989583,Quarter,G4_E4_C4
2170,Right,0,84,110,706.0,0.989583,Quarter,G5_E5_C6
2176,Left,1,68,110,707.0,1.489583,Quarter,G#4_F4_C4
2175,Right,0,80,110,707.0,0.989583,Quarter,G#5_F5_B5
2181,Right,0,79,110,708.0,0.489583,Eighth,G5_E5_C6
2182,Left,1,67,110,708.0,0.489583,Eighth,G4_E4
2187,Left,1,48,80,708.5,0.489583,Eighth,C3
2186,Right,0,60,80,708.5,0.489583,Eighth,C4
2188,Left,1,47,80,709.0,0.489583,Eighth,B2
2189,Right,0,59,80,709.0,0.489583,Eighth,B3
2190,Right,0,60,80,709.5,0.489583,Eighth,C4
2191,Left,1,48,80,709.5,0.489583,Eighth,C3
2193,Left,1,49,103,710.0,0.989583,Quarter,C#3
2192,Right,0,61,103,710.0,0.989583,Quarter,C#4
2194,Right,0,60,80,711.0,0.489583,Eighth,C4
2195,Left,1,48,80,711.0,0.489583,Eighth,C3
2198,Left,1,64,110,712.0,0.989583,Quarter,G4_E4_C4
2196,Right,0,84,110,712.0,0.989583,Quarter,E6_C6
2203,Right,0,89,110,713.0,0.989583,Quarter,F6_D6_B5
2201,Left,1,65,110,713.0,1.989583,Quarter,G#4_F4_C4
2209,Right,0,84,110,714.0,0.989583,Quarter,E6_C6
2207,Left,1,64,110,714.0,0.989583,Quarter,G4_E4
2211,Left,1,67,110,715.0,0.989583,Quarter,G4_E4_C4
2214,Right,0,84,110,715.0,0.989583,Quarter,E6_C6
2218,Left,1,60,110,716.0,1.989583,Quarter,G#4_F4_C4
2216,Right,0,83,110,716.0,0.989583,Quarter,F6_D6_B5
2222,Right,0,84,110,717.0,0.989583,Quarter,E6_C6
2223,Left,1,67,110,717.0,0.989583,Quarter,G4_E4
2226,Right,0,88,110,718.0,0.989583,Quarter,E6_C6
2228,Left,1,67,110,718.0,0.989583,Quarter,G4_E4_C4
2231,Right,0,89,110,719.0,0.989583,Quarter,F6_D6_B5
2232,Left,1,65,110,719.0,1.989583,Quarter,G#4_F4_C4
2237,Right,0,84,110,720.0,0.989583,Quarter,E6_C6
2238,Left,1,64,110,720.0,0.989583,Quarter,G4_E4
2241,Right,0,72,120,721.0,0.989583,Quarter,C6_C5
2242,Left,1,48,120,721.0,0.989583,Quarter,C4_C3
2245,Right,0,72,120,722.0,0.989583,Quarter,C5_C4
2247,Left,1,36,120,722.0,0.989583,Quarter,C3_C2
2249,Left,1,57,120,727.0,0.989583,Quarter,A3_A2
2250,Right,0,69,120,727.0,0.989583,Quarter,A5_A4
2253,Left,1,33,120,728.0,0.989583,Quarter,A2_A1
2254,Right,0,69,120,728.0,0.989583,Quarter,A4_A3
2257,Right,0,78,120,733.0,0.989583,Quarter,F#5_F#4
2259,Left,1,42,120,733.0,0.989583,Quarter,F#3_F#2
2261,Right,0,66,120,734.0,0.989583,Quarter,F#4_F#3
2263,Left,1,42,120,734.0,0.989583,Quarter,F#2_F#1
2266,Left,1,42,120,736.0,0.989583,Quarter,F#2_F#1
2265,Right,0,66,120,736.0,0.989583,Quarter,F#4_F#3
2269,Right,0,67,120,737.0,0.989583,Quarter,G4_G3
2271,Left,1,43,120,737.0,0.989583,Quarter,G2_G1
2273,Left,1,43,80,738.5,0.489583,Eighth,G2
2274,Left,1,42,80,739.0,0.489583,Eighth,F#2
2275,Left,1,43,80,739.5,0.489583,Eighth,G2
2276,Right,0,62,80,740.0,2.989583,DottedHalf,F4_D4_B4
2279,Left,1,44,80,740.0,0.989583,Quarter,G#2
2280,Left,1,43,80,741.0,0.989583,Quarter,G2
2281,Left,1,43,80,742.0,0.989583,Quarter,G2
2282,Right,0,64,80,743.0,2.989583,DottedHalf,E4_C5_C4
2285,Left,1,44,80,743.0,0.989583,Quarter,G#2
2286,Left,1,43,80,744.0,0.989583,Quarter,G2
2287,Left,1,43,80,745.0,0.989583,Quarter,G2
2291,Left,1,44,80,746.0,0.989583,Quarter,G#2
2288,Right,0,63,80,746.0,2.989583,DottedHalf,F#4_D#4_C4
2292,Left,1,43,80,747.0,0.989583,Quarter,G2
2293,Left,1,43,80,748.0,0.989583,Quarter,G2
2297,Left,1,44,80,749.0,0.989583,Quarter,G#2
2294,Right,0,59,80,749.0,2.989583,DottedHalf,G4_D4_B3
2298,Left,1,43,80,750.0,0.989583,Quarter,G2
2299,Left,1,43,80,751.0,0.989583,Quarter,G2
2302,Left,1,44,80,752.0,0.989583,Quarter,G#2
2300,Right,0,55,80,752.0,5.989583,DottedHalf,G3_E4_C4
2304,Left,1,43,80,753.0,0.989583,Quarter,G2
2305,Left,1,43,80,754.0,0.989583,Quarter,G2
2306,Right,0,62,80,755.0,2.989583,DottedHalf,F4_D4
2308,Left,1,44,80,755.0,0.989583,Quarter,G#2
2309,Left,1,43,80,756.0,0.989583,Quarter,G2
2310,Left,1,43,80,757.0,0.989583,Quarter,G2
2312,Right,0,59,80,758.0,2.989583,DottedHalf,F3_D4_B3
2311,Left,1,44,80,758.0,0.989583,Quarter,G#2
2315,Left,1,43,80,759.0,0.989583,Quarter,G2
2316,Left,1,43,80,760.0,0.989583,Quarter,G2
2317,Right,0,55,80,761.0,2.989583,DottedHalf,G3_E3_C4
2320,Left,1,36,80,761.0,0.989583,Quarter,C2
2321,Left,1,36,70,762.5,0.489583,Eighth,C2
2322,Left,1,35,70,763.0,0.489583,Eighth,B1
2323,Left,1,36,70,763.5,0.489583,Eighth,C2
2324,Right,0,65,70,764.0,2.989583,DottedHalf,F4_B3
2325,Left,1,37,70,764.0,0.989583,Quarter,C#2
2327,Left,1,36,70,765.0,0.989583,Quarter,C2
2328,Left,1,36,70,766.0,0.989583,Quarter,C2
2329,Right,0,64,70,767.0,2.989583,DottedHalf,E4_C4
2330,Left,1,37,70,767.0,0.989583,Quarter,C#2
2332,Left,1,36,70,768.0,0.989583,Quarter,C2
2333,Left,1,36,70,769.0,0.989583,Quarter,C2
2334,Left,1,37,70,770.0,0.989583,Quarter,C#2
2335,Right,0,65,70,770.0,2.989583,DottedHalf,F4_B4
2337,Left,1,36,70,771.0,0.989583,Quarter,C2
2338,Left,1,36,70,772.0,0.989583,Quarter,C2
2340,Left,1,37,70,773.0,0.989583,Quarter,C#2
2339,Right,0,72,70,773.0,2.989583,DottedHalf,E4_C5
2342,Left,1,36,70,774.0,0.989583,Quarter,C2
2343,Left,1,36,70,775.0,0.989583,Quarter,C2
2344,Left,1,37,70,776.0,0.989583,Quarter,C#2
2345,Right,0,71,70,776.0,2.989583,DottedHalf,F5_B4
2347,Left,1,36,70,777.0,0.989583,Quarter,C2
2348,Left,1,36,70,778.0,0.989583,Quarter,C2
2350,Left,1,37,70,779.0,0.989583,Quarter,C#2
2349,Right,0,76,70,779.0,2.989583,DottedHalf,E5_C5
2352,Left,1,36,70,780.0,0.989583,Quarter,C2
2353,Left,1,36,70,781.0,0.989583,Quarter,C2
2354,Left,1,37,70,782.0,0.989583,Quarter,C#2
2355,Right,0,77,70,782.0,2.989583,DottedHalf,F5_B5
2357,Left,1,36,70,783.0,0.989583,Quarter,C2
2358,Left,1,36,70,784.0,0.989583,Quarter,C2
2360,Right,0,76,70,785.0,0.989583,Quarter,E5_C6
2359,Left,1,36,70,785.0,0.989583,Quarter,C2
2363,Left,1,35,70,787.0,0.989583,Quarter,B1
2362,Right,0,47,70,787.0,0.989583,Quarter,B2
2365,Left,1,36,70,788.0,0.989583,Quarter,C2
2364,Right,0,48,70,788.0,0.989583,Quarter,C3
2366,Left,1,35,70,790.0,0.989583,Quarter,B1
2367,Right,0,47,70,790.0,0.989583,Quarter,B2
2369,Left,1,36,70,791.0,2.989583,DottedHalf,C2
2368,Right,0,48,70,791.0,2.989583,DottedHalf,C3
2370,Right,0,48,1,796.0,0.989583,Quarter,C3
