,hand,channel,note,velocity,start_beat,duration,note_value,chord
0,Right,0,67,80,0.5,0.489583,Eighth,G4
2,Right,0,64,80,1.0,0.489583,Eighth,G4_E4_C5
1,Left,1,36,80,1.0,0.989583,Quarter,C3_C2
6,Right,0,71,80,1.5,0.489583,Eighth,F4_D4_B4
9,Right,0,72,80,2.0,0.489583,Eighth,G4_E4_C5
12,Right,0,74,80,2.5,0.489583,Eighth,F4_D5_A4
15,Right,0,76,80,3.0,0.489583,Eighth,G4_E5_B4
18,Right,0,77,80,3.5,0.489583,Eighth,F5_C5_A4
21,Right,0,79,80,4.0,0.489583,Eighth,G5_D5_B4
24,Right,0,72,80,4.5,0.489583,Eighth,E5_C5_A5
27,Right,0,83,80,5.0,0.489583,Eighth,F5_D5_B5
30,Right,0,84,80,5.5,0.489583,Eighth,G5_E5_C6
33,Right,0,86,80,6.0,0.489583,Eighth,F5_D6_A5
36,Right,0,88,80,6.5,0.489583,Eighth,E6_C6
38,Left,1,79,80,6.5,0.489583,Eighth,G5
40,Right,0,89,80,7.0,0.989583,Quarter,F6_C6
39,Left,1,81,80,7.0,0.989583,Quarter,A5
42,Right,0,88,80,8.0,0.489583,Eighth,E6_C6
44,Left,1,79,80,8.0,0.489583,Eighth,G5
46,Right,0,84,80,8.5,0.989583,Quarter,F6_C6
45,Left,1,81,80,8.5,0.989583,Quarter,A5
48,Right,0,88,80,9.5,0.489583,Eighth,E6_C6
50,Left,1,79,80,9.5,0.489583,Eighth,G5
51,Right,0,86,80,10.0,0.989583,Quarter,D6_C6
53,Left,1,78,80,10.0,0.989583,Quarter,F#5
54,Right,0,62,80,12.5,0.489583,Eighth,D4
56,Left,1,43,80,13.0,0.989583,Quarter,G2_G1
55,Right,0,62,80,13.0,0.489583,Eighth,G4_D4_B3
60,Right,0,57,80,13.5,0.489583,Eighth,F#4_C4_A3
63,Right,0,59,80,14.0,0.489583,Eighth,G4_D4_B3
66,Right,0,69,80,14.5,0.489583,Eighth,E4_C4_A4
69,Right,0,65,80,15.0,0.489583,Eighth,F4_D4_B4
72,Right,0,72,80,15.5,0.489583,Eighth,G4_E4_C5
75,Right,0,74,80,16.0,0.489583,Eighth,F4_D5_A4
78,Right,0,76,80,16.5,0.489583,Eighth,G4_E5_B4
81,Right,0,77,80,17.0,0.489583,Eighth,F5_C5_A4
84,Right,0,79,80,17.5,0.489583,Eighth,G5_D5_B4
87,Right,0,76,80,18.0,0.489583,Eighth,E5_C5_A5
90,Left,1,67,80,18.5,0.489583,Eighth,G4
91,Right,0,74,80,18.5,0.489583,Eighth,F5_D5_B5
94,Left,1,60,80,19.0,0.989583,Quarter,C5_C4
95,Right,0,84,80,19.0,0.989583,Quarter,G5_E5_C6
99,Left,1,67,80,20.0,0.489583,Eighth,G4_B4
101,Right,0,86,80,20.0,0.489583,Eighth,G5_F5_D6
104,Left,1,72,80,20.5,0.989583,Quarter,C5_C4
106,Right,0,76,80,20.5,0.989583,Quarter,G5_E5_C6
109,Right,0,86,80,21.5,0.489583,Eighth,G5_F5_D6
112,Left,1,67,80,21.5,0.489583,Eighth,G4_B4
114,Right,0,76,80,22.0,0.989583,Quarter,G5_E5_C6
117,Left,1,72,80,22.0,0.989583,Quarter,C5_C4
119,Right,0,81,80,23.5,0.239583,Sixteenth,A5
120,Right,0,79,80,23.75,0.239583,Sixteenth,G5
121,Right,0,77,80,24.0,0.239583,Sixteenth,F5
122,Right,0,76,80,24.25,0.239583,Sixteenth,E5
123,Right,0,74,80,24.5,0.239583,Sixteenth,D5
124,Right,0,72,80,24.75,0.239583,Sixteenth,C5
126,Left,1,55,80,25.0,3.989583,DottedQuarter,G3_F4_D4
125,Right,0,71,80,25.0,0.239583,Sixteenth,B4
129,Right,0,72,80,25.25,0.239583,Sixteenth,C5
130,Right,0,71,80,25.5,0.239583,Sixteenth,B4
131,Right,0,69,80,25.75,0.239583,Sixteenth,A4
132,Right,0,71,80,26.0,0.239583,Sixteenth,B4
133,Right,0,67,80,26.25,0.239583,Sixteenth,G4
135,Left,1,60,80,26.5,1.489583,DottedQuarter,E4_C4
134,Right,0,72,80,26.5,0.239583,Sixteenth,C5
137,Right,0,74,80,26.75,0.239583,Sixteenth,D5
138,Right,0,72,80,27.0,0.239583,Sixteenth,C5
139,Right,0,71,80,27.25,0.239583,Sixteenth,B4
140,Right,0,72,80,27.5,0.239583,Sixteenth,C5
141,Right,0,67,80,27.75,0.239583,Sixteenth,G4
142,Right,0,74,80,28.0,0.239583,Sixteenth,D5
143,Left,1,59,80,28.0,0.989583,Quarter,D4_B3
145,Right,0,76,80,28.25,0.239583,Sixteenth,E5
146,Right,0,74,80,28.5,0.239583,Sixteenth,D5
147,Right,0,73,80,28.75,0.239583,Sixteenth,C#5
148,Right,0,74,80,29.0,0.239583,Sixteenth,D5
149,Right,0,67,80,29.25,0.239583,Sixteenth,G4
150,Right,0,79,80,29.5,0.239583,Sixteenth,G5
151,Right,0,77,80,29.75,0.239583,Sixteenth,F5
152,Right,0,76,80,30.0,0.239583,Sixteenth,E5
153,Right,0,74,80,30.25,0.239583,Sixteenth,D5
154,Right,0,72,80,30.5,0.239583,Sixteenth,C5
155,Right,0,71,80,30.75,0.239583,Sixteenth,B4
156,Right,0,72,80,31.0,0.239583,Sixteenth,C5
157,Left,1,64,80,31.0,3.989583,DottedQuarter,G4_G3_E4
160,Right,0,74,80,31.25,0.239583,Sixteenth,D5
161,Right,0,72,80,31.5,0.239583,Sixteenth,C5
162,Right,0,71,80,31.75,0.239583,Sixteenth,B4
163,Right,0,72,80,32.0,0.239583,Sixteenth,C5
164,Right,0,67,80,32.25,0.239583,Sixteenth,G4
165,Left,1,65,80,32.5,1.489583,DottedQuarter,F4_D4
166,Right,0,74,80,32.5,0.239583,Sixteenth,D5
168,Right,0,76,80,32.75,0.239583,Sixteenth,E5
169,Right,0,74,80,33.0,0.239583,Sixteenth,D5
170,Right,0,73,80,33.25,0.239583,Sixteenth,C#5
171,Right,0,74,80,33.5,0.239583,Sixteenth,D5
172,Right,0,67,80,33.75,0.239583,Sixteenth,G4
173,Left,1,60,80,34.0,0.989583,Quarter,E4_C4
175,Right,0,76,80,34.0,0.239583,Sixteenth,E5
176,Right,0,77,80,34.25,0.239583,Sixteenth,F5
177,Right,0,76,80,34.5,0.239583,Sixteenth,E5
178,Right,0,75,80,34.75,0.239583,Sixteenth,D#5
179,Right,0,76,80,35.0,0.239583,Sixteenth,E5
180,Right,0,72,80,35.25,0.239583,Sixteenth,C5
181,Right,0,81,80,35.5,0.239583,Sixteenth,A5
182,Right,0,79,80,35.75,0.239583,Sixteenth,G5
183,Right,0,77,80,36.0,0.239583,Sixteenth,F5
184,Right,0,76,80,36.25,0.239583,Sixteenth,E5
185,Right,0,74,80,36.5,0.239583,Sixteenth,D5
186,Right,0,72,80,36.75,0.239583,Sixteenth,C5
188,Left,1,55,80,37.0,5.989583,DottedQuarter,G3_C4_A4
187,Right,0,78,80,37.0,0.239583,Sixteenth,F#5
191,Right,0,79,80,37.25,0.239583,Sixteenth,G5
192,Right,0,78,80,37.5,0.239583,Sixteenth,F#5
193,Right,0,76,80,37.75,0.239583,Sixteenth,E5
194,Right,0,78,80,38.0,0.239583,Sixteenth,F#5
195,Right,0,74,80,38.25,0.239583,Sixteenth,D5
196,Right,0,79,80,38.5,0.239583,Sixteenth,G5
197,Left,1,59,80,38.5,1.489583,DottedQuarter,G4_B3
199,Right,0,81,80,38.75,0.239583,Sixteenth,A5
200,Right,0,79,80,39.0,0.239583,Sixteenth,G5
201,Right,0,78,80,39.25,0.239583,Sixteenth,F#5
202,Right,0,79,80,39.5,0.239583,Sixteenth,G5
203,Right,0,74,80,39.75,0.239583,Sixteenth,D5
204,Left,1,66,80,40.0,2.989583,DottedHalf,F#4_C4
206,Right,0,81,80,40.0,0.239583,Sixteenth,A5
207,Right,0,83,80,40.25,0.239583,Sixteenth,B5
208,Right,0,81,80,40.5,0.239583,Sixteenth,A5
209,Right,0,80,80,40.75,0.239583,Sixteenth,G#5
210,Right,0,81,80,41.0,0.239583,Sixteenth,A5
211,Right,0,74,80,41.25,0.239583,Sixteenth,D5
212,Right,0,86,80,41.5,0.239583,Sixteenth,D6
213,Right,0,84,80,41.75,0.239583,Sixteenth,C6
214,Right,0,83,80,42.0,0.239583,Sixteenth,B5
215,Right,0,81,80,42.25,0.239583,Sixteenth,A5
216,Right,0,79,80,42.5,0.239583,Sixteenth,G5
217,Right,0,78,80,42.75,0.239583,Sixteenth,F#5
221,Right,0,79,80,43.0,0.239583,Sixteenth,G5
218,Left,1,59,80,43.0,2.989583,DottedQuarter,G4_G3_B3
222,Right,0,81,80,43.25,0.239583,Sixteenth,A5
223,Right,0,79,80,43.5,0.239583,Sixteenth,G5
224,Right,0,78,80,43.75,0.239583,Sixteenth,F#5
225,Right,0,79,80,44.0,0.239583,Sixteenth,G5
226,Right,0,74,80,44.25,0.239583,Sixteenth,D5
227,Right,0,86,80,44.5,0.239583,Sixteenth,D6
228,Left,1,60,80,44.5,1.489583,DottedQuarter,C4_A4
230,Right,0,88,80,44.75,0.239583,Sixteenth,E6
231,Right,0,86,80,45.0,0.239583,Sixteenth,D6
232,Right,0,85,80,45.25,0.239583,Sixteenth,C#6
233,Right,0,86,80,45.5,0.239583,Sixteenth,D6
234,Right,0,78,80,45.75,0.239583,Sixteenth,F#5
237,Right,0,79,80,46.0,0.239583,Sixteenth,G5
235,Left,1,67,80,46.0,2.989583,DottedQuarter,G4_G3_B3
239,Right,0,81,80,46.25,0.239583,Sixteenth,A5
240,Right,0,79,80,46.5,0.239583,Sixteenth,G5
241,Right,0,78,80,46.75,0.239583,Sixteenth,F#5
242,Right,0,79,80,47.0,0.239583,Sixteenth,G5
243,Right,0,74,80,47.25,0.239583,Sixteenth,D5
244,Right,0,86,80,47.5,0.239583,Sixteenth,D6
245,Left,1,60,80,47.5,1.489583,DottedQuarter,C4_A4
247,Right,0,88,80,47.75,0.239583,Sixteenth,E6
248,Right,0,86,80,48.0,0.239583,Sixteenth,D6
249,Right,0,85,80,48.25,0.239583,Sixteenth,C#6
250,Right,0,86,80,48.5,0.239583,Sixteenth,D6
251,Right,0,78,80,48.75,0.239583,Sixteenth,F#5
252,Left,1,62,80,49.0,0.989583,Quarter,G4_D4_B3
255,Right,0,79,80,49.0,0.239583,Sixteenth,G5
256,Right,0,81,80,49.25,0.239583,Sixteenth,A5
257,Right,0,79,80,49.5,0.239583,Sixteenth,G5
258,Right,0,78,80,49.75,0.239583,Sixteenth,F#5
259,Right,0,79,80,50.0,0.239583,Sixteenth,G5
260,Right,0,81,80,50.25,0.239583,Sixteenth,A5
261,Right,0,83,80,50.5,0.239583,Sixteenth,B5
262,Right,0,84,80,50.75,0.239583,Sixteenth,C6
263,Right,0,83,80,51.0,0.239583,Sixteenth,B5
264,Right,0,82,80,51.25,0.239583,Sixteenth,A#5
265,Right,0,83,80,51.5,0.239583,Sixteenth,B5
266,Right,0,84,80,51.75,0.239583,Sixteenth,C6
267,Right,0,86,80,52.0,0.239583,Sixteenth,D6
268,Right,0,88,80,52.25,0.239583,Sixteenth,E6
269,Right,0,86,80,52.5,0.239583,Sixteenth,D6
270,Right,0,85,80,52.75,0.239583,Sixteenth,C#6
271,Right,0,86,80,53.0,0.239583,Sixteenth,D6
272,Right,0,88,80,53.25,0.239583,Sixteenth,E6
273,Right,0,89,80,53.5,0.239583,Sixteenth,F6
274,Right,0,86,80,53.75,0.239583,Sixteenth,D6
275,Right,0,83,80,54.0,0.239583,Sixteenth,B5
276,Right,0,79,80,54.25,0.239583,Sixteenth,G5
277,Right,0,77,80,54.5,0.239583,Sixteenth,F5
278,Right,0,74,80,54.75,0.239583,Sixteenth,D5
281,Right,0,64,80,55.0,0.489583,Eighth,G4_E4_C5
279,Left,1,48,80,55.0,0.989583,Quarter,C4_C3
284,Right,0,71,80,55.5,0.489583,Eighth,F4_D4_B4
287,Right,0,72,80,56.0,0.489583,Eighth,G4_E4_C5
290,Right,0,65,80,56.5,0.489583,Eighth,F4_D5_A4
293,Right,0,76,80,57.0,0.489583,Eighth,G4_E5_B4
296,Right,0,69,80,57.5,0.489583,Eighth,F5_C5_A4
299,Right,0,74,80,58.0,0.489583,Eighth,G5_D5_B4
302,Right,0,81,80,58.5,0.489583,Eighth,E5_C5_A5
305,Right,0,83,80,59.0,0.489583,Eighth,F5_D5_B5
308,Right,0,76,80,59.5,0.489583,Eighth,G5_E5_C6
311,Right,0,86,80,60.0,0.489583,Eighth,F5_D6_A5
314,Right,0,84,80,60.5,0.489583,Eighth,E6_C6
315,Left,1,79,80,60.5,0.489583,Eighth,G5
317,Right,0,84,80,61.0,0.989583,Quarter,F6_C6
319,Left,1,81,80,61.0,0.989583,Quarter,A5
320,Left,1,79,80,62.0,0.489583,Eighth,G5
321,Right,0,88,80,62.0,0.489583,Eighth,E6_C6
323,Right,0,84,80,62.5,0.989583,Quarter,F6_C6
324,Left,1,81,80,62.5,0.989583,Quarter,A5
326,Left,1,79,80,63.5,0.489583,Eighth,G5
327,Right,0,88,80,63.5,0.489583,Eighth,E6_C6
329,Right,0,87,80,64.0,0.989583,Quarter,D#6_C6_A5
330,Left,1,78,80,64.0,0.989583,Quarter,F#5
333,Right,0,83,80,66.5,0.489583,Eighth,B5
336,Right,0,88,80,67.0,0.989583,Quarter,E6_E5
334,Left,1,67,80,67.0,0.989583,Quarter,G4_B4
340,Left,1,66,80,68.0,0.489583,Eighth,F#4_A4
338,Right,0,87,80,68.0,0.489583,Eighth,D#6_D#5
342,Right,0,76,80,68.5,0.989583,Quarter,E6_E5
344,Left,1,71,80,68.5,0.989583,Quarter,G4_B4
348,Left,1,69,80,69.5,0.489583,Eighth,F#4_A4
346,Right,0,86,80,69.5,0.489583,Eighth,D6_D5
350,Left,1,64,80,70.0,0.989583,Quarter,G4_E4
351,Right,0,85,80,70.0,0.989583,Quarter,C#6_C#5
354,Right,0,81,100,72.5,0.239583,Sixteenth,A5
355,Right,0,83,100,72.625,0.239583,Sixteenth,B5
356,Right,0,79,100,72.75,0.239583,Sixteenth,G5
357,Right,0,81,100,72.875,0.114583,ThirtySecond,A5
358,Right,0,74,110,73.0,0.989583,Quarter,D6_D5
359,Left,1,66,110,73.0,0.989583,Quarter,F#4_A4
363,Right,0,84,110,74.0,0.489583,Eighth,C6_C5
362,Left,1,67,110,74.0,0.489583,Eighth,G4_E4
366,Right,0,83,110,74.5,0.989583,Quarter,B5_B4
368,Left,1,62,110,74.5,0.989583,Quarter,F#4_D4
370,Right,0,81,110,75.5,0.489583,Eighth,A5_A4
371,Left,1,64,110,75.5,0.489583,Eighth,E4_C4
374,Left,1,59,110,76.0,0.989583,Quarter,D4_B3
375,Right,0,67,110,76.0,0.989583,Quarter,G5_G4
380,Left,1,57,110,77.0,0.489583,Eighth,C4_A3
378,Right,0,78,110,77.0,0.489583,Eighth,F#5_F#4
384,Left,1,59,110,77.5,0.989583,Quarter,G3_B3
382,Right,0,76,110,77.5,0.989583,Quarter,E5_E4
387,Right,0,62,110,78.5,0.489583,Eighth,D5_D4
386,Left,1,57,110,78.5,0.489583,Eighth,F#3_A3
390,Left,1,52,110,79.0,0.989583,Quarter,G3_E3
392,Right,0,60,110,79.0,0.989583,Quarter,C5_C4
395,Right,0,71,110,80.0,0.489583,Eighth,B4_B3
394,Left,1,50,110,80.0,0.489583,Eighth,F#3_D3
398,Right,0,57,110,80.5,0.989583,Quarter,A4_A3
400,Left,1,48,110,80.5,0.989583,Quarter,E3_C3
402,Left,1,50,110,81.5,0.489583,Eighth,D3_B2
404,Right,0,56,110,81.5,0.489583,Eighth,G#4_G#3
407,Left,1,52,110,82.0,0.989583,Quarter,E3_C3
406,Right,0,69,110,82.0,0.989583,Quarter,A4_A3
412,Left,1,47,110,83.0,0.489583,Eighth,D3_B2
410,Right,0,68,110,83.0,0.489583,Eighth,G#4_G#3
414,Left,1,52,110,83.5,0.989583,Quarter,E3_C3
415,Right,0,57,110,83.5,0.989583,Quarter,A4_A3
418,Left,1,49,110,84.5,0.489583,Eighth,E3_C#3
419,Right,0,55,110,84.5,0.489583,Eighth,G4_G3
423,Left,1,50,100,85.0,0.375,DottedSixteenth,D3
422,Right,0,66,110,85.0,0.989583,Quarter,F#4
424,Left,1,54,100,85.25,0.447917,DottedSixteenth,F#3_A3
426,Left,1,62,100,85.5,0.427083,DottedSixteenth,D4
427,Left,1,57,100,85.75,0.46875,Eighth,F#3_A3
429,Left,1,62,100,86.0,0.427083,DottedSixteenth,D4
430,Left,1,57,100,86.25,0.427083,DottedSixteenth,F#3_A3
432,Left,1,62,100,86.5,0.4375,DottedSixteenth,D4
433,Left,1,57,100,86.75,0.416667,DottedSixteenth,F#3_A3
435,Left,1,62,100,87.0,0.40625,DottedSixteenth,D4
436,Left,1,57,100,87.25,0.40625,DottedSixteenth,F#3_A3
438,Left,1,62,100,87.5,0.427083,DottedSixteenth,D4
439,Left,1,54,100,87.75,0.46875,Eighth,F#3_A3
441,Right,0,72,90,88.0,1.989583,Half,C5
442,Left,1,50,80,88.0,0.489583,Eighth,D3
443,Left,1,57,80,88.25,0.447917,Eighth,F#3_A3
445,Left,1,62,80,88.5,0.416667,DottedSixteenth,D4
446,Left,1,57,80,88.75,0.4375,Eighth,F#3_A3
448,Left,1,62,80,89.0,0.458333,Eighth,D4
449,Left,1,57,80,89.25,0.479167,DottedSixteenth,F#3_A3
451,Left,1,48,80,89.5,0.416667,DottedSixteenth,C3
452,Left,1,54,80,89.75,0.447917,Eighth,F#3_A3
455,Right,0,69,90,90.0,0.489583,Eighth,A4
454,Left,1,62,80,90.0,0.458333,Eighth,D4
456,Left,1,54,80,90.25,0.447917,Eighth,F#3_A3
458,Left,1,62,80,90.5,0.46875,Eighth,D4
459,Right,0,66,90,90.5,0.489583,Eighth,F#4
460,Left,1,57,80,90.75,0.458333,Eighth,F#3_A3
462,Right,0,74,90,91.0,0.989583,Quarter,D5
463,Left,1,47,80,91.0,0.40625,DottedSixteenth,B2
464,Left,1,59,80,91.25,0.447917,DottedSixteenth,G3_B3
466,Left,1,62,80,91.5,0.416667,DottedSixteenth,D4
467,Left,1,55,80,91.75,0.40625,DottedSixteenth,G3_B3
470,Left,1,62,80,92.0,0.395833,DottedSixteenth,D4
469,Right,0,71,90,92.0,0.239583,Sixteenth,B4
472,Right,0,67,90,92.25,0.239583,Sixteenth,G4
471,Left,1,55,80,92.25,0.447917,Eighth,G3_B3
474,Left,1,62,80,92.5,0.427083,DottedSixteenth,D4
475,Right,0,74,90,92.5,0.989583,Quarter,D5
476,Left,1,55,80,92.75,0.458333,Eighth,G3_B3
478,Left,1,62,80,93.0,0.447917,Eighth,D4
479,Left,1,55,80,93.25,0.458333,DottedSixteenth,G3_B3
481,Right,0,71,90,93.5,0.239583,Sixteenth,B4
482,Left,1,62,80,93.5,0.447917,Eighth,D4
483,Right,0,67,90,93.75,0.239583,Sixteenth,G4
484,Left,1,55,80,93.75,0.395833,DottedSixteenth,G3_B3
486,Right,0,72,90,94.0,1.989583,Half,C5
487,Left,1,50,80,94.0,0.4375,DottedSixteenth,D3
488,Left,1,54,80,94.25,0.4375,DottedSixteenth,F#3_A3
490,Left,1,62,80,94.5,0.427083,DottedSixteenth,D4
491,Left,1,54,80,94.75,0.447917,DottedSixteenth,F#3_A3
493,Left,1,62,80,95.0,0.40625,DottedSixteenth,D4
494,Left,1,57,80,95.25,0.46875,Eighth,F#3_A3
496,Left,1,48,80,95.5,0.4375,DottedSixteenth,C3
497,Left,1,54,80,95.75,0.40625,DottedSixteenth,F#3_A3
500,Right,0,69,90,96.0,0.489583,Eighth,A4
499,Left,1,62,80,96.0,0.458333,Eighth,D4
501,Left,1,54,80,96.25,0.447917,DottedSixteenth,F#3_A3
503,Right,0,66,90,96.5,0.489583,Eighth,F#4
504,Left,1,62,80,96.5,0.46875,Eighth,D4
505,Left,1,57,80,96.75,0.479167,DottedSixteenth,F#3_A3
507,Left,1,47,80,97.0,0.479167,Eighth,B2
508,Right,0,74,105,97.0,0.989583,Quarter,D5
509,Left,1,59,80,97.25,0.479167,Eighth,G3_B3
511,Left,1,62,80,97.5,0.447917,Eighth,D4
512,Left,1,59,80,97.75,0.479167,Eighth,G3_B3
515,Right,0,71,90,98.0,0.239583,Sixteenth,B4
514,Left,1,62,80,98.0,0.46875,Eighth,D4
517,Right,0,67,90,98.25,0.239583,Sixteenth,G4
516,Left,1,59,80,98.25,0.46875,Eighth,G3_B3
520,Right,0,74,107,98.5,0.989583,Quarter,D5
519,Left,1,62,80,98.5,0.385417,DottedSixteenth,D4
521,Left,1,59,80,98.75,0.458333,DottedSixteenth,G3_B3
523,Left,1,62,80,99.0,0.447917,Eighth,D4
524,Left,1,59,80,99.25,0.427083,DottedSixteenth,G3_B3
527,Left,1,62,80,99.5,0.4375,Eighth,D4
526,Right,0,71,90,99.5,0.239583,Sixteenth,B4
528,Right,0,67,90,99.75,0.239583,Sixteenth,G4
529,Left,1,59,80,99.75,0.458333,DottedSixteenth,G3_B3
532,Left,1,50,80,100.0,0.4375,DottedSixteenth,D3
531,Right,0,72,90,100.0,1.989583,Half,C5
533,Left,1,54,80,100.25,0.447917,Eighth,F#3_A3
535,Left,1,62,80,100.5,0.489583,Eighth,D4
536,Left,1,54,80,100.75,0.4375,Eighth,F#3_A3
538,Left,1,62,80,101.0,0.427083,DottedSixteenth,D4
539,Left,1,57,80,101.25,0.479167,Eighth,F#3_A3
541,Left,1,48,80,101.5,0.416667,DottedSixteenth,C3
542,Left,1,54,80,101.75,0.416667,DottedSixteenth,F#3_A3
545,Left,1,62,80,102.0,0.489583,Eighth,D4
544,Right,0,69,90,102.0,0.489583,Eighth,A4
546,Left,1,54,80,102.25,0.4375,DottedSixteenth,F#3_A3
549,Right,0,66,90,102.5,0.489583,Eighth,F#4
548,Left,1,62,80,102.5,0.427083,DottedSixteenth,D4
550,Left,1,54,80,102.75,0.239583,Sixteenth,F#3_A3
552,Left,1,47,80,103.0,0.989583,Quarter,B2
553,Right,0,74,80,103.0,0.489583,Eighth,D5
554,Right,0,71,80,103.5,0.489583,Eighth,B4
555,Left,1,54,80,104.0,0.489583,Eighth,F#3
556,Right,0,66,80,104.0,0.489583,Eighth,F#4
557,Right,0,67,80,104.5,0.489583,Eighth,G4
558,Left,1,55,80,104.5,0.489583,Eighth,G3
560,Left,1,59,80,105.0,0.489583,Eighth,B3
559,Right,0,71,80,105.0,0.489583,Eighth,B4
562,Right,0,63,80,105.5,0.489583,Eighth,D#4
561,Left,1,51,80,105.5,0.489583,Eighth,D#3
564,Right,0,64,80,106.0,0.489583,Eighth,E4
563,Left,1,52,80,106.0,0.489583,Eighth,E3
565,Right,0,67,80,106.5,0.489583,Eighth,G4
566,Left,1,55,80,106.5,0.489583,Eighth,G3
568,Right,0,59,80,107.0,0.489583,Eighth,B3
567,Left,1,47,80,107.0,0.489583,Eighth,B2
569,Left,1,48,80,107.5,0.489583,Eighth,C3
570,Right,0,60,80,107.5,0.489583,Eighth,C4
572,Left,1,52,80,108.0,0.489583,Eighth,E3
571,Right,0,64,80,108.0,0.489583,Eighth,E4
574,Left,1,44,80,108.5,0.489583,Eighth,G#2
573,Right,0,56,80,108.5,0.489583,Eighth,G#3
576,Left,1,45,80,109.0,0.489583,Eighth,A2
575,Right,0,57,80,109.0,0.489583,Eighth,A3
578,Left,1,48,80,109.5,0.489583,Eighth,C3
577,Right,0,60,80,109.5,0.489583,Eighth,C4
580,Left,1,47,80,110.0,0.489583,Eighth,B2
579,Right,0,59,80,110.0,0.489583,Eighth,B3
581,Right,0,57,80,110.5,0.489583,Eighth,A3
582,Left,1,45,80,110.5,0.489583,Eighth,A2
583,Right,0,59,80,111.0,0.489583,Eighth,B3
584,Left,1,47,80,111.0,0.489583,Eighth,B2
586,Right,0,60,80,111.5,0.489583,Eighth,C4
585,Left,1,48,80,111.5,0.489583,Eighth,C3
588,Right,0,62,80,112.0,0.489583,Eighth,D4
587,Left,1,50,80,112.0,0.489583,Eighth,D3
589,Left,1,49,80,112.5,0.489583,Eighth,C#3
590,Right,0,61,80,112.5,0.489583,Eighth,C#4
591,Left,1,50,80,113.0,0.489583,Eighth,D3
592,Right,0,62,80,113.0,0.489583,Eighth,D4
593,Right,0,50,80,113.5,0.489583,Eighth,D3
594,Left,1,38,80,113.5,0.489583,Eighth,D2
596,Right,0,52,80,114.0,0.489583,Eighth,E3
595,Left,1,40,80,114.0,0.489583,Eighth,E2
597,Right,0,54,80,114.5,0.489583,Eighth,F#3
598,Left,1,42,80,114.5,0.489583,Eighth,F#2
599,Left,1,43,80,115.0,0.989583,Quarter,G2
600,Right,0,55,80,115.25,0.239583,Sixteenth,G3
601,Right,0,59,80,115.5,0.239583,Sixteenth,B3
602,Right,0,62,80,115.75,0.239583,Sixteenth,D4
603,Right,0,66,80,116.0,0.239583,Sixteenth,F#4
604,Right,0,67,80,116.25,0.239583,Sixteenth,G4
605,Right,0,71,80,116.5,0.239583,Sixteenth,B4
606,Right,0,74,80,116.75,0.239583,Sixteenth,D5
607,Right,0,78,80,117.0,0.239583,Sixteenth,F#5
608,Right,0,79,80,117.25,0.239583,Sixteenth,G5
609,Right,0,81,80,117.5,0.239583,Sixteenth,A5
610,Right,0,83,80,117.75,0.239583,Sixteenth,B5
611,Right,0,84,80,118.0,1.989583,Half,C6
612,Left,1,50,80,118.0,0.239583,Sixteenth,D3
613,Left,1,54,80,118.25,0.239583,Sixteenth,F#3_A3
615,Left,1,62,80,118.5,0.239583,Sixteenth,D4
616,Left,1,54,80,118.75,0.239583,Sixteenth,F#3_A3
618,Left,1,62,80,119.0,0.239583,Sixteenth,D4
619,Left,1,54,80,119.25,0.239583,Sixteenth,F#3_A3
621,Left,1,48,80,119.5,0.239583,Sixteenth,C3
622,Left,1,54,80,119.75,0.239583,Sixteenth,F#3_A3
625,Left,1,62,80,120.0,0.239583,Sixteenth,D4
624,Right,0,81,80,120.0,0.489583,Eighth,A5
626,Left,1,57,80,120.25,0.239583,Sixteenth,F#3_A3
629,Left,1,62,80,120.5,0.239583,Sixteenth,D4
628,Right,0,78,80,120.5,0.489583,Eighth,F#5
630,Left,1,54,80,120.75,0.239583,Sixteenth,F#3_A3
632,Right,0,86,80,121.0,0.989583,Quarter,D6
633,Left,1,47,80,121.0,0.239583,Sixteenth,B2
634,Left,1,55,80,121.25,0.239583,Sixteenth,G3_B3
636,Left,1,62,80,121.5,0.239583,Sixteenth,D4
637,Left,1,59,80,121.75,0.239583,Sixteenth,G3_B3
640,Right,0,83,80,122.0,0.239583,Sixteenth,B5
639,Left,1,62,80,122.0,0.239583,Sixteenth,D4
642,Right,0,79,80,122.25,0.239583,Sixteenth,G5
641,Left,1,55,80,122.25,0.239583,Sixteenth,G3_B3
644,Right,0,86,80,122.5,0.989583,Quarter,D6
645,Left,1,62,80,122.5,0.239583,Sixteenth,D4
646,Left,1,55,80,122.75,0.239583,Sixteenth,G3_B3
648,Left,1,62,80,123.0,0.239583,Sixteenth,D4
649,Left,1,59,80,123.25,0.239583,Sixteenth,G3_B3
652,Left,1,62,80,123.5,0.239583,Sixteenth,D4
651,Right,0,83,80,123.5,0.239583,Sixteenth,B5
654,Right,0,79,80,123.75,0.239583,Sixteenth,G5
653,Left,1,55,80,123.75,0.239583,Sixteenth,G3_B3
656,Right,0,84,80,124.0,1.989583,Half,C6
657,Left,1,50,80,124.0,0.239583,Sixteenth,D3
658,Left,1,54,80,124.25,0.239583,Sixteenth,F#3_A3
660,Left,1,62,80,124.5,0.239583,Sixteenth,D4
661,Left,1,57,80,124.75,0.239583,Sixteenth,F#3_A3
663,Left,1,62,80,125.0,0.239583,Sixteenth,D4
664,Left,1,54,80,125.25,0.239583,Sixteenth,F#3_A3
666,Left,1,48,80,125.5,0.239583,Sixteenth,C3
667,Left,1,54,80,125.75,0.239583,Sixteenth,F#3_A3
670,Right,0,81,80,126.0,0.489583,Eighth,A5
669,Left,1,62,80,126.0,0.239583,Sixteenth,D4
671,Left,1,57,80,126.25,0.239583,Sixteenth,F#3_A3
673,Right,0,78,80,126.5,0.489583,Eighth,F#5
674,Left,1,62,80,126.5,0.239583,Sixteenth,D4
675,Left,1,54,80,126.75,0.239583,Sixteenth,F#3_A3
677,Right,0,86,80,127.0,0.989583,Quarter,D6
678,Left,1,46,80,127.0,0.239583,Sixteenth,A#2
679,Left,1,55,80,127.25,0.239583,Sixteenth,G3_A#3
681,Left,1,62,80,127.5,0.239583,Sixteenth,D4
682,Left,1,58,80,127.75,0.239583,Sixteenth,G3_A#3
684,Left,1,62,80,128.0,0.239583,Sixteenth,D4
685,Right,0,82,80,128.0,0.239583,Sixteenth,A#5
688,Right,0,79,80,128.25,0.239583,Sixteenth,G5
686,Left,1,58,80,128.25,0.239583,Sixteenth,G3_A#3
689,Left,1,62,80,128.5,0.239583,Sixteenth,D4
690,Right,0,86,80,128.5,0.989583,Quarter,D6
691,Left,1,58,80,128.75,0.239583,Sixteenth,G3_A#3
693,Left,1,62,80,129.0,0.239583,Sixteenth,D4
694,Left,1,55,80,129.25,0.239583,Sixteenth,G3_A#3
696,Left,1,62,80,129.5,0.239583,Sixteenth,D4
697,Right,0,82,80,129.5,0.239583,Sixteenth,A#5
698,Left,1,58,80,129.75,0.239583,Sixteenth,G3_A#3
700,Right,0,79,80,129.75,0.239583,Sixteenth,G5
701,Left,1,50,80,130.0,0.239583,Sixteenth,D3
702,Right,0,84,80,130.0,1.989583,Half,C6
703,Left,1,54,80,130.25,0.239583,Sixteenth,F#3_A3
705,Left,1,62,80,130.5,0.239583,Sixteenth,D4
706,Left,1,54,80,130.75,0.239583,Sixteenth,F#3_A3
708,Left,1,62,80,131.0,0.239583,Sixteenth,D4
709,Left,1,57,80,131.25,0.239583,Sixteenth,F#3_A3
711,Left,1,48,80,131.5,0.239583,Sixteenth,C3
712,Left,1,57,80,131.75,0.239583,Sixteenth,F#3_A3
715,Left,1,62,80,132.0,0.239583,Sixteenth,D4
714,Right,0,81,80,132.0,0.489583,Eighth,A5
716,Left,1,57,80,132.25,0.239583,Sixteenth,F#3_A3
718,Left,1,62,80,132.5,0.239583,Sixteenth,D4
719,Right,0,78,80,132.5,0.489583,Eighth,F#5
720,Left,1,54,80,132.75,0.239583,Sixteenth,F#3_A3
723,Right,0,86,80,133.0,0.489583,Eighth,D6
722,Left,1,46,80,133.0,0.989583,Quarter,A#2
724,Right,0,82,80,133.5,0.489583,Eighth,A#5
725,Right,0,78,80,134.0,0.489583,Eighth,F#5
726,Left,1,66,80,134.0,0.489583,Eighth,F#4
728,Left,1,67,80,134.5,0.489583,Eighth,G4
727,Right,0,79,80,134.5,0.489583,Eighth,G5
730,Left,1,70,80,135.0,0.489583,Eighth,A#4
729,Right,0,82,80,135.0,0.489583,Eighth,A#5
732,Right,0,74,80,135.5,0.489583,Eighth,D5
731,Left,1,62,80,135.5,0.489583,Eighth,D4
733,Left,1,63,80,136.0,0.489583,Eighth,D#4
734,Right,0,75,80,136.0,0.489583,Eighth,D#5
736,Right,0,79,80,136.5,0.489583,Eighth,G5
735,Left,1,67,80,136.5,0.489583,Eighth,G4
737,Right,0,71,80,137.0,0.489583,Eighth,B4
738,Left,1,59,80,137.0,0.489583,Eighth,B3
739,Left,1,60,80,137.5,0.489583,Eighth,C4
740,Right,0,72,80,137.5,0.489583,Eighth,C5
742,Right,0,75,80,138.0,0.489583,Eighth,D#5
741,Left,1,63,80,138.0,0.489583,Eighth,D#4
743,Left,1,55,80,138.5,0.489583,Eighth,G3
744,Right,0,67,80,138.5,0.489583,Eighth,G4
745,Right,0,68,80,139.0,0.489583,Eighth,G#4
746,Left,1,56,80,139.0,0.989583,Quarter,G#3
747,Right,0,84,80,139.5,0.489583,Eighth,C6
749,Right,0,76,80,140.0,0.489583,Eighth,E5
748,Left,1,64,80,140.0,0.489583,Eighth,E4
751,Right,0,77,80,140.5,0.489583,Eighth,F5
750,Left,1,65,80,140.5,0.489583,Eighth,F4
753,Right,0,80,80,141.0,0.489583,Eighth,G#5
752,Left,1,68,80,141.0,0.489583,Eighth,G#4
754,Left,1,61,80,141.5,0.489583,Eighth,C#4
755,Right,0,73,80,141.5,0.489583,Eighth,C#5
756,Right,0,74,80,142.0,0.489583,Eighth,D5
757,Left,1,62,80,142.0,0.489583,Eighth,D4
758,Left,1,65,80,142.5,0.489583,Eighth,F4
759,Right,0,77,80,142.5,0.489583,Eighth,F5
761,Right,0,69,80,143.0,0.489583,Eighth,A4
760,Left,1,57,80,143.0,0.489583,Eighth,A3
762,Right,0,70,80,143.5,0.489583,Eighth,A#4
763,Left,1,58,80,143.5,0.489583,Eighth,A#3
765,Right,0,74,80,144.0,0.489583,Eighth,D5
764,Left,1,62,80,144.0,0.489583,Eighth,D4
767,Right,0,66,80,144.5,0.489583,Eighth,F#4
766,Left,1,54,80,144.5,0.489583,Eighth,F#3
769,Right,0,67,80,145.0,0.489583,Eighth,G4
768,Left,1,55,80,145.0,0.989583,Quarter,G3
770,Right,0,82,80,145.5,0.489583,Eighth,A#5
772,Right,0,74,80,146.0,0.489583,Eighth,D5
771,Left,1,62,80,146.0,0.489583,Eighth,D4
774,Right,0,75,80,146.5,0.489583,Eighth,D#5
773,Left,1,63,80,146.5,0.489583,Eighth,D#4
776,Left,1,67,80,147.0,0.489583,Eighth,G4
775,Right,0,79,80,147.0,0.489583,Eighth,G5
777,Left,1,59,80,147.5,0.489583,Eighth,B3
778,Right,0,71,80,147.5,0.489583,Eighth,B4
780,Left,1,60,80,148.0,0.489583,Eighth,C4
779,Right,0,72,80,148.0,0.489583,Eighth,C5
781,Left,1,63,80,148.5,0.489583,Eighth,D#4
782,Right,0,75,80,148.5,0.489583,Eighth,D#5
783,Left,1,55,80,149.0,0.489583,Eighth,G3
784,Right,0,67,80,149.0,0.489583,Eighth,G4
786,Left,1,56,80,149.5,0.489583,Eighth,G#3
785,Right,0,68,80,149.5,0.489583,Eighth,G#4
787,Right,0,72,80,150.0,0.489583,Eighth,C5
788,Left,1,60,80,150.0,0.489583,Eighth,C4
789,Right,0,64,80,150.5,0.489583,Eighth,E4
790,Left,1,52,80,150.5,0.489583,Eighth,E3
791,Right,0,65,80,151.0,0.489583,Eighth,F4
792,Left,1,53,80,151.0,0.489583,Eighth,F3
793,Right,0,68,80,151.5,0.489583,Eighth,G#4
794,Left,1,56,80,151.5,0.489583,Eighth,G#3
795,Left,1,49,80,152.0,0.489583,Eighth,C#3
796,Right,0,61,80,152.0,0.489583,Eighth,C#4
798,Right,0,62,80,152.5,0.489583,Eighth,D4
797,Left,1,50,80,152.5,0.489583,Eighth,D3
800,Right,0,65,80,153.0,0.489583,Eighth,F4
799,Left,1,53,80,153.0,0.489583,Eighth,F3
802,Right,0,58,80,153.5,0.489583,Eighth,A#3
801,Left,1,46,80,153.5,0.489583,Eighth,A#2
804,Right,0,59,80,154.0,0.489583,Eighth,B3
803,Left,1,47,80,154.0,0.489583,Eighth,B2
806,Right,0,62,80,154.5,0.489583,Eighth,D4
805,Left,1,50,80,154.5,0.489583,Eighth,D3
808,Left,1,42,80,155.0,0.489583,Eighth,F#2
807,Right,0,54,80,155.0,0.489583,Eighth,F#3
810,Right,0,55,80,155.5,0.489583,Eighth,G3
809,Left,1,43,80,155.5,0.489583,Eighth,G2
812,Left,1,47,80,156.0,0.489583,Eighth,B2
811,Right,0,59,80,156.0,0.489583,Eighth,B3
814,Left,1,38,80,156.5,0.489583,Eighth,D2
813,Right,0,50,80,156.5,0.489583,Eighth,D3
815,Right,0,51,100,157.0,0.489583,Eighth,D#3
816,Left,1,39,100,157.0,0.489583,Eighth,D#2
817,Right,0,55,100,157.5,0.489583,Eighth,G3
818,Left,1,43,100,157.5,0.489583,Eighth,G2
819,Left,1,35,100,158.0,0.489583,Eighth,B1
820,Right,0,47,100,158.0,0.489583,Eighth,B2
821,Right,0,48,100,158.5,0.489583,Eighth,C3
822,Left,1,36,100,158.5,0.489583,Eighth,C2
824,Left,1,39,100,159.0,0.489583,Eighth,D#2
823,Right,0,51,100,159.0,0.489583,Eighth,D#3
826,Left,1,31,100,159.5,0.489583,Eighth,G1
825,Right,0,43,100,159.5,0.489583,Eighth,G2
828,Left,1,32,100,160.0,0.489583,Eighth,G#1
827,Right,0,44,100,160.0,0.489583,Eighth,G#2
829,Left,1,36,100,160.5,0.489583,Eighth,C2
830,Right,0,48,100,160.5,0.489583,Eighth,C3
831,Left,1,31,100,161.0,0.489583,Eighth,G1
832,Right,0,43,100,161.0,0.489583,Eighth,G2
834,Right,0,44,100,161.5,0.489583,Eighth,G#2
833,Left,1,32,100,161.5,0.489583,Eighth,G#1
835,Left,1,36,100,162.0,0.489583,Eighth,C2
836,Right,0,48,100,162.0,0.489583,Eighth,C3
837,Right,0,42,100,162.5,0.489583,Eighth,F#2
838,Left,1,30,100,162.5,0.489583,Eighth,F#1
839,Left,1,31,103,163.0,5.989583,Unknown,G1
840,Right,0,43,80,163.0,0.489583,Eighth,G2
841,Right,0,47,80,163.5,0.489583,Eighth,B2
842,Right,0,50,80,164.0,0.489583,Eighth,D3
844,Right,0,55,80,164.5,0.489583,Eighth,G3
843,Left,1,41,80,164.5,1.489583,DottedQuarter,F2
845,Right,0,57,80,165.0,0.489583,Eighth,A3
846,Right,0,59,80,165.5,0.489583,Eighth,B3
848,Left,1,39,80,166.0,1.489583,DottedQuarter,D#2
847,Right,0,60,80,166.0,0.489583,Eighth,C4
849,Right,0,55,80,166.5,0.489583,Eighth,G3
850,Right,0,62,80,167.0,0.489583,Eighth,D4
851,Left,1,36,80,167.5,1.489583,DottedQuarter,C2
852,Right,0,63,80,167.5,0.489583,Eighth,D#4
853,Right,0,55,80,168.0,0.489583,Eighth,G3
854,Right,0,66,80,168.5,0.489583,Eighth,F#4
855,Right,0,55,104,169.0,5.989583,Unknown,G4_G3
856,Left,1,31,80,169.0,0.489583,Eighth,G1
858,Left,1,35,80,169.5,0.489583,Eighth,B1
859,Left,1,38,80,170.0,0.489583,Eighth,D2
860,Left,1,43,80,170.5,0.489583,Eighth,G2
861,Right,0,65,80,170.5,1.489583,DottedQuarter,F4
862,Left,1,45,80,171.0,0.489583,Eighth,A2
863,Left,1,47,80,171.5,0.489583,Eighth,B2
865,Right,0,63,80,172.0,1.489583,DottedQuarter,D#4
864,Left,1,48,80,172.0,0.489583,Eighth,C3
866,Left,1,40,80,172.5,0.489583,Eighth,E2
867,Left,1,50,80,173.0,0.489583,Eighth,D3
868,Left,1,51,80,173.5,0.489583,Eighth,D#3
869,Right,0,60,80,173.5,1.489583,DottedQuarter,C4
870,Left,1,43,80,174.0,0.489583,Eighth,G2
871,Left,1,54,80,174.5,0.489583,Eighth,F#3
872,Left,1,55,80,175.0,5.989583,DottedQuarter,G3_G2
874,Right,0,59,80,175.5,0.489583,Eighth,B3
875,Right,0,62,80,176.0,0.489583,Eighth,D4
876,Left,1,53,80,176.5,1.489583,DottedQuarter,F3
877,Right,0,67,80,176.5,0.489583,Eighth,G4
878,Right,0,69,80,177.0,0.489583,Eighth,A4
879,Right,0,71,80,177.5,0.489583,Eighth,B4
880,Right,0,72,80,178.0,0.489583,Eighth,C5
881,Left,1,51,80,178.0,1.489583,DottedQuarter,D#3
882,Right,0,67,80,178.5,0.489583,Eighth,G4
883,Right,0,74,80,179.0,0.489583,Eighth,D5
884,Left,1,48,80,179.5,1.489583,DottedQuarter,C3
885,Right,0,75,80,179.5,0.489583,Eighth,D#5
886,Right,0,67,80,180.0,0.489583,Eighth,G4
887,Right,0,78,80,180.5,0.489583,Eighth,F#5
889,Right,0,67,103,181.0,5.989583,Unknown,G5_G4
888,Left,1,43,80,181.0,0.489583,Eighth,G2
891,Left,1,47,80,181.5,0.489583,Eighth,B2
892,Left,1,50,80,182.0,0.489583,Eighth,D3
893,Left,1,55,80,182.5,0.489583,Eighth,G3
894,Right,0,77,80,182.5,1.489583,DottedQuarter,F5
895,Left,1,57,80,183.0,0.489583,Eighth,A3
896,Left,1,59,80,183.5,0.489583,Eighth,B3
898,Right,0,75,80,184.0,1.489583,DottedQuarter,D#5
897,Left,1,60,80,184.0,0.489583,Eighth,C4
899,Left,1,52,80,184.5,0.489583,Eighth,E3
900,Left,1,62,80,185.0,0.489583,Eighth,D4
901,Left,1,63,80,185.5,0.489583,Eighth,D#4
902,Right,0,72,80,185.5,1.489583,DottedQuarter,C5
903,Left,1,55,80,186.0,0.489583,Eighth,G3
904,Left,1,66,80,186.5,0.489583,Eighth,F#4
905,Left,1,67,80,187.0,0.989583,Quarter,G4
906,Right,0,71,80,187.0,0.489583,Eighth,B4
907,Right,0,66,80,187.5,0.489583,Eighth,F#4
908,Right,0,67,80,188.0,0.489583,Eighth,G4
909,Right,0,69,80,188.5,0.489583,Eighth,A4
910,Right,0,71,80,189.0,0.489583,Eighth,B4
911,Right,0,72,80,189.5,0.489583,Eighth,C5
912,Right,0,74,80,190.0,0.489583,Eighth,D5
913,Right,0,76,80,190.5,0.489583,Eighth,E5
914,Right,0,78,80,191.0,0.489583,Eighth,F#5
915,Right,0,79,80,191.5,0.489583,Eighth,G5
916,Right,0,81,80,192.0,0.489583,Eighth,A5
917,Right,0,83,80,192.5,0.489583,Eighth,B5
919,Left,1,47,80,193.0,0.489583,Eighth,B2
918,Right,0,71,80,193.0,0.489583,Eighth,B4
920,Right,0,69,80,193.5,0.489583,Eighth,A4
921,Left,1,42,80,193.5,0.489583,Eighth,F#2
923,Right,0,71,80,194.0,0.489583,Eighth,B4
922,Left,1,43,80,194.0,0.489583,Eighth,G2
925,Right,0,72,80,194.5,0.489583,Eighth,C5
924,Left,1,45,80,194.5,0.489583,Eighth,A2
927,Right,0,74,80,195.0,0.489583,Eighth,D5
926,Left,1,47,80,195.0,0.489583,Eighth,B2
928,Right,0,76,80,195.5,0.489583,Eighth,E5
929,Left,1,48,80,195.5,0.489583,Eighth,C3
930,Left,1,50,80,196.0,0.489583,Eighth,D3
931,Right,0,78,80,196.0,0.489583,Eighth,F#5
932,Right,0,79,80,196.5,0.489583,Eighth,G5
933,Left,1,52,80,196.5,0.489583,Eighth,E3
934,Left,1,54,80,197.0,0.489583,Eighth,F#3
935,Right,0,81,80,197.0,0.489583,Eighth,A5
937,Left,1,55,80,197.5,0.489583,Eighth,G3
936,Right,0,83,80,197.5,0.489583,Eighth,B5
938,Right,0,84,80,198.0,0.489583,Eighth,C6
939,Left,1,57,80,198.0,0.489583,Eighth,A3
940,Right,0,86,80,198.5,0.489583,Eighth,D6
941,Left,1,59,80,198.5,0.489583,Eighth,B3
942,Left,1,55,80,199.0,0.489583,Eighth,G3
943,Left,1,54,76,199.5,0.489583,Eighth,F#3
945,Left,1,55,70,200.0,0.489583,Eighth,G3
944,Right,0,89,70,200.0,0.489583,Eighth,F6
946,Right,0,88,70,200.5,0.489583,Eighth,E6
947,Left,1,57,70,200.5,0.489583,Eighth,A3
949,Right,0,86,70,201.0,0.489583,Eighth,D6
948,Left,1,59,70,201.0,0.489583,Eighth,B3
950,Right,0,84,70,201.5,0.489583,Eighth,C6
951,Left,1,60,70,201.5,0.489583,Eighth,C4
952,Right,0,83,70,202.0,0.489583,Eighth,B5
953,Left,1,62,70,202.0,0.489583,Eighth,D4
955,Left,1,64,70,202.5,0.489583,Eighth,E4
954,Right,0,81,70,202.5,0.489583,Eighth,A5
956,Right,0,79,70,203.0,0.489583,Eighth,G5
957,Left,1,65,70,203.0,0.489583,Eighth,F4
958,Right,0,77,70,203.5,0.489583,Eighth,F5
959,Left,1,67,70,203.5,0.489583,Eighth,G4
960,Left,1,69,70,204.0,0.489583,Eighth,A4
961,Right,0,76,70,204.0,0.489583,Eighth,E5
963,Right,0,74,70,204.5,0.489583,Eighth,D5
962,Left,1,71,70,204.5,0.489583,Eighth,B4
967,Left,1,60,80,205.0,0.989583,Quarter,C4_C3
964,Right,0,67,80,205.0,0.489583,Eighth,G4_E4_C5
969,Right,0,62,80,205.5,0.489583,Eighth,F4_D4_B4
972,Right,0,64,80,206.0,0.489583,Eighth,G4_E4_C5
975,Right,0,74,80,206.5,0.489583,Eighth,F4_D5_A4
978,Right,0,71,80,207.0,0.489583,Eighth,G4_E5_B4
981,Right,0,77,80,207.5,0.489583,Eighth,F5_C5_A4
984,Right,0,79,80,208.0,0.489583,Eighth,G5_D5_B4
987,Right,0,76,80,208.5,0.489583,Eighth,E5_C5_A5
990,Right,0,83,80,209.0,0.489583,Eighth,F5_D5_B5
993,Right,0,84,80,209.5,0.489583,Eighth,G5_E5_C6
996,Right,0,77,80,210.0,0.489583,Eighth,F5_D6_A5
1000,Right,0,84,80,210.5,0.489583,Eighth,E6_C6
999,Left,1,79,80,210.5,0.489583,Eighth,G5
1002,Right,0,89,80,211.0,0.989583,Quarter,F6_C6
1003,Left,1,81,80,211.0,0.989583,Quarter,A5
1005,Left,1,79,80,212.0,0.489583,Eighth,G5
1006,Right,0,88,80,212.0,0.489583,Eighth,E6_C6
1009,Right,0,84,80,212.5,0.989583,Quarter,F6_C6
1008,Left,1,81,80,212.5,0.989583,Quarter,A5
1012,Right,0,88,80,213.5,0.489583,Eighth,E6_C6
1011,Left,1,79,80,213.5,0.489583,Eighth,G5
1014,Right,0,86,80,214.0,0.989583,Quarter,D6_C6
1016,Left,1,78,80,214.0,0.989583,Quarter,F#5
1017,Right,0,62,80,216.5,0.489583,Eighth,D4
1018,Right,0,62,80,217.0,0.489583,Eighth,G4_D4_B3
1020,Left,1,31,80,217.0,0.989583,Quarter,G2_G1
1023,Right,0,66,80,217.5,0.489583,Eighth,F#4_C4_A3
1026,Right,0,67,80,218.0,0.489583,Eighth,G4_D4_B3
1029,Right,0,64,80,218.5,0.489583,Eighth,E4_C4_A4
1032,Right,0,71,80,219.0,0.489583,Eighth,F4_D4_B4
1035,Right,0,72,80,219.5,0.489583,Eighth,G4_E4_C5
1038,Right,0,65,80,220.0,0.489583,Eighth,F4_D5_A4
1041,Right,0,76,80,220.5,0.489583,Eighth,G4_E5_B4
1044,Right,0,77,80,221.0,0.489583,Eighth,F5_C5_A4
1047,Right,0,71,80,221.5,0.489583,Eighth,G5_D5_B4
1050,Right,0,76,80,222.0,0.489583,Eighth,E5_C5_A5
1053,Right,0,74,80,222.5,0.489583,Eighth,F5_D5_B5
1056,Left,1,67,80,222.5,0.489583,Eighth,G4
1057,Right,0,79,80,223.0,0.989583,Quarter,G5_E5_C6
1060,Left,1,72,80,223.0,0.989583,Quarter,C5_C4
1062,Right,0,86,80,224.0,0.489583,Eighth,G5_F5_D6
1063,Left,1,67,80,224.0,0.489583,Eighth,G4_B4
1067,Left,1,60,80,224.5,0.989583,Quarter,C5_C4
1069,Right,0,84,80,224.5,0.989583,Quarter,G5_E5_C6
1072,Left,1,67,80,225.5,0.489583,Eighth,G4_B4
1074,Right,0,79,80,225.5,0.489583,Eighth,G5_F5_D6
1078,Left,1,60,80,226.0,0.989583,Quarter,C5_C4
1077,Right,0,84,80,226.0,0.989583,Quarter,G5_E5_C6
1082,Left,1,43,100,228.5,0.489583,Eighth,G2
1083,Right,0,67,110,229.0,4.989583,Unknown,G5_G4_E5
1086,Left,1,48,110,229.0,0.489583,Eighth,C3_C2
1088,Left,1,47,110,229.5,0.489583,Eighth,B2_B1
1090,Left,1,48,110,230.0,0.489583,Eighth,C3_C2
1092,Left,1,50,110,230.5,0.489583,Eighth,D3_D2
1094,Left,1,40,110,231.0,0.489583,Eighth,E3_E2
1096,Left,1,41,110,231.5,0.489583,Eighth,F3_F2
1098,Left,1,43,110,232.0,0.489583,Eighth,G3_G2
1100,Left,1,57,110,232.5,0.489583,Eighth,A3_A2
1102,Left,1,59,110,233.0,0.489583,Eighth,B3_B2
1104,Left,1,60,110,233.5,0.489583,Eighth,C4_C3
1108,Right,0,74,110,234.0,0.489583,Eighth,G4_F5_D5
1106,Left,1,62,110,234.0,0.489583,Eighth,D4_D3
1111,Left,1,52,110,234.5,0.489583,Eighth,E4_E3
1112,Right,0,72,110,234.5,0.489583,Eighth,G4_E5_C5
1118,Left,1,53,100,235.0,0.989583,Quarter,F4_F3
1116,Right,0,71,110,235.0,0.989583,Quarter,G4_D5_B4
1121,Left,1,64,110,236.0,0.489583,Eighth,E4_E3
1123,Right,0,67,110,236.0,0.489583,Eighth,G4_E5_C5
1127,Left,1,65,100,236.5,0.989583,Quarter,F4_F3
1126,Right,0,74,110,236.5,0.989583,Quarter,G4_D5_B4
1132,Right,0,73,110,237.5,0.489583,Eighth,G4_E5_C#5
1131,Left,1,64,110,237.5,0.489583,Eighth,E4_E3
1139,Left,1,50,110,238.0,0.989583,Quarter,D4_D3
1136,Right,0,77,110,238.0,0.989583,Quarter,F5_D5_A4
1141,Left,1,45,100,240.5,0.489583,Eighth,A2
1142,Right,0,69,120,241.0,4.989583,Unknown,F5_A5_A4
1145,Left,1,38,120,241.0,0.489583,Eighth,D3_D2
1147,Left,1,48,120,241.5,0.489583,Eighth,C3_C2
1149,Left,1,38,120,242.0,0.489583,Eighth,D3_D2
1151,Left,1,40,120,242.5,0.489583,Eighth,E3_E2
1153,Left,1,41,120,243.0,0.489583,Eighth,F3_F2
1155,Left,1,43,120,243.5,0.489583,Eighth,G3_G2
1157,Left,1,57,120,244.0,0.489583,Eighth,A3_A2
1159,Left,1,59,120,244.5,0.489583,Eighth,B3_B2
1161,Left,1,60,120,245.0,0.489583,Eighth,C4_C3
1163,Left,1,50,120,245.5,0.489583,Eighth,D4_D3
1167,Right,0,76,100,246.0,0.489583,Eighth,G5_E5_A4
1165,Left,1,52,120,246.0,0.489583,Eighth,E4_E3
1170,Left,1,53,120,246.5,0.489583,Eighth,F4_F3
1171,Right,0,74,100,246.5,0.489583,Eighth,F5_D5_A4
1175,Left,1,55,90,247.0,0.989583,Quarter,G4_G3
1177,Right,0,69,90,247.0,0.989583,Quarter,E5_C#5_A4
1180,Right,0,77,87,248.0,0.489583,Eighth,F5_D5_A4
1181,Left,1,65,87,248.0,0.489583,Eighth,F4_F3
1187,Right,0,69,86,248.5,0.989583,Quarter,E5_C#5_A4
1185,Left,1,55,86,248.5,0.989583,Quarter,G4_G3
1190,Left,1,54,82,249.5,0.489583,Eighth,F#4_F#3
1192,Right,0,69,82,249.5,0.489583,Eighth,F#5_D#5_A4
1195,Right,0,76,81,250.0,0.989583,Quarter,G5_E5_B4
1198,Left,1,52,81,250.0,0.989583,Quarter,E4_E3
1200,Left,1,47,100,252.5,0.489583,Eighth,B2
1201,Right,0,71,100,253.0,4.989583,Unknown,G5_B5_B4
1204,Left,1,52,100,253.0,0.489583,Eighth,E3_E2
1206,Left,1,51,100,253.5,0.489583,Eighth,D#3_D#2
1208,Left,1,52,100,254.0,0.489583,Eighth,E3_E2
1210,Left,1,54,100,254.5,0.489583,Eighth,F#3_F#2
1212,Left,1,55,100,255.0,0.489583,Eighth,G3_G2
1214,Left,1,45,100,255.5,0.489583,Eighth,A3_A2
1216,Left,1,59,100,256.0,0.489583,Eighth,B3_B2
1218,Left,1,61,100,256.5,0.489583,Eighth,C#4_C#3
1220,Left,1,51,100,257.0,0.489583,Eighth,D#4_D#3
1222,Left,1,64,100,257.5,0.489583,Eighth,E4_E3
1224,Right,0,78,100,258.0,0.489583,Eighth,F#5_B4_A5
1226,Left,1,66,100,258.0,0.489583,Eighth,F#4_F#3
1229,Right,0,79,100,258.5,0.489583,Eighth,G5_E5_B4
1232,Left,1,55,100,258.5,0.489583,Eighth,G4_G3
1234,Left,1,57,100,259.0,0.489583,Eighth,A3
1235,Right,0,78,100,259.5,0.489583,Eighth,F#5_D#5
1237,Left,1,69,100,259.5,0.489583,Eighth,C5_A4
1241,Left,1,67,100,260.0,0.489583,Eighth,G4_B4
1239,Right,0,79,100,260.0,0.489583,Eighth,G5_E5
1243,Left,1,54,100,260.5,0.489583,Eighth,F#3
1244,Right,0,78,100,261.0,0.489583,Eighth,F#5_A5
1246,Left,1,69,100,261.0,0.489583,Eighth,F#4_A4
1248,Right,0,83,100,261.5,0.489583,Eighth,G5_B5
1250,Left,1,64,100,261.5,0.489583,Eighth,G4_E4
1252,Left,1,51,100,262.0,0.489583,Eighth,D#3
1253,Left,1,63,100,262.5,0.489583,Eighth,F#4_D#4
1255,Right,0,81,100,262.5,0.489583,Eighth,C6_A5
1257,Left,1,64,100,263.0,0.489583,Eighth,G4_E4
1259,Right,0,83,100,263.0,0.489583,Eighth,G5_B5
1261,Left,1,69,100,263.5,0.489583,Eighth,F#4_A4
1263,Right,0,81,100,263.5,0.489583,Eighth,F#5_A5
1267,Left,1,67,100,264.0,0.489583,Eighth,G4_B4
1265,Right,0,76,100,264.0,0.489583,Eighth,G5_E5
1271,Left,1,72,100,264.5,0.489583,Eighth,C5_A4
1269,Right,0,78,100,264.5,0.489583,Eighth,F#5_D#5
1273,Left,1,62,100,265.0,0.489583,Eighth,D4
1274,Right,0,83,100,265.5,0.489583,Eighth,G#5_B5
1275,Left,1,77,100,265.5,0.489583,Eighth,F5_D5
1280,Right,0,84,100,266.0,0.489583,Eighth,C6_A5
1278,Left,1,72,100,266.0,0.489583,Eighth,E5_C5
1282,Left,1,59,100,266.5,0.489583,Eighth,B3
1284,Left,1,71,100,267.0,0.489583,Eighth,D5_B4
1283,Right,0,86,100,267.0,0.489583,Eighth,D6_B5
1288,Left,1,69,100,267.5,0.489583,Eighth,C5_A4
1287,Right,0,88,100,267.5,0.489583,Eighth,E6_C6
1291,Left,1,56,100,268.0,0.489583,Eighth,G#3
1293,Right,0,86,100,268.5,0.489583,Eighth,F6_D6
1292,Left,1,68,100,268.5,0.489583,Eighth,G#4_B4
1296,Right,0,88,100,269.0,0.489583,Eighth,E6_C6
1298,Left,1,72,100,269.0,0.489583,Eighth,C5_A4
1302,Left,1,71,100,269.5,0.489583,Eighth,D5_B4
1300,Right,0,86,100,269.5,0.489583,Eighth,D6_B5
1304,Right,0,84,100,270.0,0.489583,Eighth,C6_A5
1306,Left,1,72,100,270.0,0.489583,Eighth,E5_C5
1309,Right,0,83,100,270.5,0.489583,Eighth,G#5_B5
1308,Left,1,77,100,270.5,0.489583,Eighth,F5_D5
1312,Left,1,55,100,271.0,0.489583,Eighth,G3
1313,Left,1,70,100,271.5,0.489583,Eighth,G4_A#4
1314,Right,0,76,100,271.5,0.489583,Eighth,E5_C#5
1319,Left,1,65,100,272.0,0.489583,Eighth,F4_A4
1317,Right,0,77,100,272.0,0.489583,Eighth,F5_D5
1321,Left,1,52,100,272.5,0.489583,Eighth,E3
1324,Left,1,67,100,273.0,0.489583,Eighth,G4_E4
1322,Right,0,79,100,273.0,0.489583,Eighth,G5_E5
1326,Left,1,65,100,273.5,0.489583,Eighth,F4_D4
1328,Right,0,77,100,273.5,0.489583,Eighth,F5_A5
1330,Left,1,49,100,274.0,0.489583,Eighth,C#3
1331,Left,1,61,100,274.5,0.489583,Eighth,E4_C#4
1332,Right,0,82,100,274.5,0.489583,Eighth,G5_A#5
1337,Right,0,77,100,275.0,0.489583,Eighth,F5_A5
1335,Left,1,65,100,275.0,0.489583,Eighth,F4_D4
1339,Right,0,79,100,275.5,0.489583,Eighth,G5_E5
1340,Left,1,67,100,275.5,0.489583,Eighth,G4_E4
1343,Left,1,69,100,276.0,0.489583,Eighth,F4_A4
1344,Right,0,77,100,276.0,0.489583,Eighth,F5_D5
1347,Left,1,67,100,276.5,0.489583,Eighth,G4_A#4
1349,Right,0,73,100,276.5,0.489583,Eighth,E5_C#5
1351,Left,1,50,100,277.0,0.489583,Eighth,D3
1353,Right,0,77,100,277.5,0.489583,Eighth,F5_A5
1352,Left,1,62,100,277.5,0.489583,Eighth,D4
1355,Left,1,61,100,278.0,0.489583,Eighth,E4_C#4
1356,Right,0,76,100,278.0,0.489583,Eighth,G5_E5
1360,Left,1,65,100,278.5,0.489583,Eighth,F4_D4
1359,Right,0,74,100,278.5,0.489583,Eighth,F5_D5
1364,Left,1,64,100,279.0,0.489583,Eighth,G4_E4
1363,Right,0,76,100,279.0,0.489583,Eighth,E5_C#5
1367,Left,1,65,100,279.5,0.489583,Eighth,F4_A4
1369,Right,0,74,100,279.5,0.489583,Eighth,D5
1370,Left,1,44,100,280.0,0.489583,Eighth,G#2
1373,Left,1,56,100,280.5,0.489583,Eighth,G#3_B3
1371,Right,0,86,100,280.5,0.489583,Eighth,F6_D6
1375,Left,1,57,100,281.0,0.489583,Eighth,C4_A3
1377,Right,0,84,100,281.0,0.489583,Eighth,E6_C6
1379,Left,1,62,100,281.5,0.489583,Eighth,D4_B3
1381,Right,0,83,100,281.5,0.489583,Eighth,D6_B5
1385,Left,1,60,100,282.0,0.489583,Eighth,E4_C4
1383,Right,0,81,100,282.0,0.489583,Eighth,C6_A5
1387,Left,1,65,100,282.5,0.489583,Eighth,F4_D4
1389,Right,0,80,100,282.5,0.489583,Eighth,G#5_B5
1391,Left,1,45,100,283.0,0.489583,Eighth,A2
1394,Left,1,57,100,283.5,0.489583,Eighth,A3
1392,Right,0,84,100,283.5,0.489583,Eighth,E6_C6
1397,Right,0,86,100,284.0,0.489583,Eighth,D6_B5
1395,Left,1,56,100,284.0,0.489583,Eighth,G#3_B3
1401,Right,0,84,100,284.5,0.489583,Eighth,C6_A5
1399,Left,1,60,100,284.5,0.489583,Eighth,C4_A3
1403,Right,0,83,100,285.0,0.489583,Eighth,G#5_B5
1405,Left,1,59,100,285.0,0.489583,Eighth,D4_B3
1408,Left,1,64,100,285.5,0.489583,Eighth,E4_C4
1407,Right,0,81,100,285.5,0.489583,Eighth,A5
1410,Left,1,50,100,286.0,0.989583,Quarter,D3
1411,Right,0,71,100,286.5,0.489583,Eighth,B4
1412,Left,1,62,100,287.0,0.489583,Eighth,D4
1413,Right,0,86,100,287.0,0.489583,Eighth,D6
1414,Left,1,52,100,287.5,0.989583,Quarter,E3
1415,Right,0,68,100,288.0,0.489583,Eighth,G#4
1416,Left,1,64,100,288.5,0.489583,Eighth,E4
1417,Right,0,83,100,288.5,0.489583,Eighth,B5
1418,Left,1,45,100,289.0,0.989583,Quarter,A2
1419,Right,0,69,100,289.5,0.489583,Eighth,A4
1420,Right,0,81,100,290.0,0.489583,Eighth,A5
1421,Left,1,57,100,290.0,0.489583,Eighth,A3
1422,Left,1,41,100,290.5,0.989583,Quarter,F2
1423,Right,0,65,100,291.0,0.489583,Eighth,F4
1424,Right,0,77,100,291.5,0.489583,Eighth,F5
1425,Left,1,53,100,291.5,0.489583,Eighth,F3
1426,Left,1,38,100,292.0,0.989583,Quarter,D2
1427,Right,0,62,100,292.5,0.489583,Eighth,D4
1428,Left,1,50,100,293.0,0.489583,Eighth,D3
1429,Right,0,74,100,293.0,0.489583,Eighth,D5
1430,Left,1,35,100,293.5,0.989583,Quarter,B1
1431,Right,0,59,100,294.0,0.489583,Eighth,B3
1432,Left,1,47,100,294.5,0.489583,Eighth,B2
1433,Right,0,71,100,294.5,0.489583,Eighth,B4
1434,Left,1,32,100,295.0,0.989583,Quarter,G#1
1435,Right,0,56,100,295.5,0.489583,Eighth,G#3
1436,Right,0,68,100,296.0,0.489583,Eighth,G#4
1437,Left,1,44,100,296.0,0.489583,Eighth,G#2
1438,Left,1,33,100,296.5,0.989583,Quarter,A1
1439,Right,0,57,100,297.0,0.489583,Eighth,A3
1440,Left,1,45,100,297.5,0.489583,Eighth,A2
1441,Right,0,69,100,297.5,0.489583,Eighth,A4
1442,Left,1,39,100,298.0,1.489583,DottedQuarter,D#2
1443,Right,0,51,100,298.5,0.489583,Eighth,D#3
1444,Right,0,63,100,299.0,0.489583,Eighth,D#4
1445,Left,1,40,100,299.5,1.489583,DottedQuarter,E2
1446,Right,0,52,100,300.0,0.489583,Eighth,E3
1447,Right,0,64,100,300.5,0.489583,Eighth,E4
1448,Left,1,33,80,301.0,1.489583,DottedQuarter,A1
1449,Right,0,45,80,301.5,0.489583,Eighth,A2
1450,Right,0,57,79,302.0,0.489583,Eighth,A3
1451,Left,1,34,78,302.5,1.489583,DottedQuarter,A#1
1452,Right,0,46,77,303.0,0.489583,Eighth,A#2
1453,Right,0,58,76,303.5,0.489583,Eighth,A#3
1454,Left,1,35,75,304.0,1.489583,DottedQuarter,B1
1455,Right,0,47,74,304.5,0.489583,Eighth,B2
1456,Right,0,59,73,305.0,0.489583,Eighth,B3
1457,Left,1,36,72,305.5,1.489583,DottedQuarter,C2
1458,Right,0,48,71,306.0,0.489583,Eighth,C3
1459,Right,0,60,71,306.5,0.489583,Eighth,C4
1461,Left,1,41,80,307.0,5.989583,Unknown,F2_F1
1460,Right,0,57,80,307.0,1.489583,DottedQuarter,F4_C4_A3
1465,Right,0,65,80,308.5,1.489583,DottedQuarter,F4_C4_A4
1468,Right,0,65,80,310.0,1.489583,DottedQuarter,F4_C5_A4
1471,Right,0,69,80,311.5,1.489583,DottedQuarter,F5_C5_A4
1474,Left,1,48,80,313.0,4.489583,Whole,C3_C2
1475,Right,0,72,80,313.0,1.489583,DottedQuarter,G4_E5_C5
1479,Right,0,71,80,314.5,1.489583,DottedQuarter,F4_D5_B4
1482,Right,0,72,80,316.0,1.489583,DottedQuarter,G4_E4_C5
1485,Right,0,70,80,317.5,1.489583,DottedQuarter,G4_C4_A#4
1488,Left,1,36,80,317.5,0.989583,Quarter,C2
1489,Left,1,38,80,318.5,0.239583,Sixteenth,D2
1490,Left,1,40,80,318.75,0.239583,Sixteenth,E2
1492,Right,0,69,80,319.0,1.489583,DottedQuarter,F4_C4_A4
1491,Left,1,29,80,319.0,1.489583,DottedQuarter,F2_F1
1496,Right,0,67,80,320.5,1.489583,DottedQuarter,G4_E4_A#3
1499,Left,1,31,80,320.5,1.489583,DottedQuarter,G2_G1
1503,Right,0,60,80,322.0,1.489583,DottedQuarter,F4_C4_A3
1501,Left,1,33,80,322.0,1.489583,DottedQuarter,A2_A1
1506,Right,0,55,80,323.5,1.489583,DottedQuarter,G4_G3_D4
1509,Left,1,47,80,323.5,1.489583,DottedQuarter,B2_B1
1513,Right,0,55,80,325.0,1.489583,DottedQuarter,G3_E4_C4
1511,Left,1,48,80,325.0,1.489583,DottedQuarter,C3_C2
1517,Right,0,53,80,326.5,1.489583,DottedQuarter,F3_D4_B3
1516,Left,1,43,80,326.5,1.489583,DottedQuarter,G2
1520,Right,0,52,80,328.0,0.989583,Quarter,G3_E3_C4
1522,Left,1,36,80,328.0,0.489583,Eighth,C2
1524,Left,1,40,80,328.5,0.489583,Eighth,E2
1525,Left,1,43,80,329.0,0.489583,Eighth,G2
1526,Left,1,48,80,329.5,0.489583,Eighth,C3
1527,Left,1,50,80,330.0,0.489583,Eighth,D3
1528,Left,1,52,80,330.5,0.489583,Eighth,E3
1529,Left,1,41,80,331.0,1.489583,DottedQuarter,F3_F2
1531,Right,0,81,80,331.5,0.489583,Eighth,A5
1532,Right,0,84,80,332.0,0.489583,Eighth,C6
1533,Left,1,45,80,332.5,1.489583,DottedQuarter,A3_A2
1535,Right,0,77,80,333.0,0.489583,Eighth,F5
1536,Right,0,81,80,333.5,0.489583,Eighth,A5
1537,Left,1,60,80,334.0,1.489583,DottedQuarter,C4_C3
1539,Right,0,80,80,334.5,0.489583,Eighth,G#5
1540,Right,0,81,80,335.0,0.489583,Eighth,A5
1541,Left,1,53,80,335.5,1.489583,DottedQuarter,F4_F3
1543,Right,0,72,80,336.0,0.489583,Eighth,C5
1544,Right,0,81,80,336.5,0.489583,Eighth,A5
1545,Left,1,52,80,337.0,1.489583,DottedQuarter,E4_E3
1547,Right,0,81,80,337.5,0.489583,Eighth,A5
1548,Right,0,79,80,338.0,0.489583,Eighth,G5
1549,Left,1,50,80,338.5,1.489583,DottedQuarter,D4_D3
1551,Right,0,77,80,339.0,0.489583,Eighth,F5
1552,Right,0,83,80,339.5,0.489583,Eighth,B5
1553,Left,1,60,80,340.0,1.489583,DottedQuarter,C4_C3
1555,Right,0,76,80,340.5,0.489583,Eighth,E5
1556,Right,0,84,80,341.0,0.489583,Eighth,C6
1557,Left,1,46,80,341.5,1.489583,DottedQuarter,A#3_A#2
1559,Right,0,76,80,342.0,0.489583,Eighth,E5
1560,Right,0,86,80,342.5,0.489583,Eighth,D6
1561,Left,1,57,80,343.0,1.489583,DottedQuarter,A3_A2
1563,Right,0,86,80,343.5,0.489583,Eighth,D6
1564,Right,0,84,80,344.0,0.489583,Eighth,C6
1565,Left,1,55,80,344.5,1.489583,DottedQuarter,G3_G2
1567,Right,0,82,80,345.0,0.489583,Eighth,A#5
1568,Right,0,88,80,345.5,0.489583,Eighth,E6
1569,Left,1,53,80,346.0,1.489583,DottedQuarter,F3_F2
1571,Right,0,81,80,346.5,0.489583,Eighth,A5
1572,Right,0,89,80,347.0,0.489583,Eighth,F6
1573,Left,1,46,80,347.5,1.489583,DottedQuarter,A#3_A#2
1575,Right,0,70,80,348.0,0.489583,Eighth,A#4
1576,Right,0,86,80,348.5,0.489583,Eighth,D6
1577,Left,1,48,80,349.0,1.489583,DottedQuarter,C4_C3
1579,Right,0,69,80,349.5,0.489583,Eighth,A4
1580,Right,0,84,80,350.0,0.489583,Eighth,C6
1581,Left,1,36,80,350.5,1.489583,DottedQuarter,C3_C2
1583,Right,0,70,80,351.0,0.489583,Eighth,A#4
1584,Right,0,76,80,351.5,0.489583,Eighth,E5
1586,Left,1,41,80,352.0,0.489583,Eighth,F2
1585,Right,0,77,80,352.0,0.989583,Quarter,F5_A4
1588,Left,1,45,80,352.5,0.489583,Eighth,A2
1589,Left,1,48,80,353.0,0.489583,Eighth,C3
1590,Left,1,53,80,353.5,0.489583,Eighth,F3
1591,Left,1,55,80,354.0,0.489583,Eighth,G3
1592,Left,1,57,80,354.5,0.489583,Eighth,A3
1593,Left,1,48,100,355.0,5.989583,Unknown,C3
1594,Left,1,55,100,356.0,1.489583,DottedQuarter,G3_A#3
1596,Right,0,70,100,356.5,0.989583,Quarter,A#4
1599,Right,0,69,100,357.5,0.489583,Eighth,A4
1597,Left,1,53,100,357.5,0.489583,Eighth,F3_A3
1600,Right,0,69,100,358.0,0.114583,ThirtySecond,A4
1601,Left,1,55,100,358.0,1.489583,DottedQuarter,G3_E3
1603,Right,0,67,100,358.125,0.364583,DottedSixteenth,G4
1604,Right,0,66,100,358.5,0.489583,Eighth,F#4
1605,Right,0,67,100,359.0,0.489583,Eighth,G4
1607,Left,1,53,100,359.5,1.489583,DottedQuarter,F3_A3
1606,Right,0,70,100,359.5,0.114583,ThirtySecond,A#4
1609,Right,0,69,100,359.625,0.364583,DottedSixteenth,A4
1610,Right,0,67,100,360.0,0.489583,Eighth,G4
1611,Right,0,69,100,360.5,0.489583,Eighth,A4
1612,Right,0,70,100,361.0,0.989583,Quarter,A#4
1613,Left,1,58,100,361.0,5.989583,Quarter,G3_C3_A#3
1616,Left,1,62,100,362.0,1.489583,DottedQuarter,D4_A#3
1618,Right,0,74,100,362.5,0.989583,Quarter,D5
1619,Left,1,60,100,363.5,0.489583,Eighth,C4_A3
1621,Right,0,72,100,363.5,0.489583,Eighth,C5
1623,Left,1,58,100,364.0,1.489583,DottedQuarter,G3_A#3
1622,Right,0,70,100,364.0,0.489583,Eighth,A#4
1625,Right,0,72,100,364.5,0.489583,Eighth,C5
1626,Right,0,70,100,365.0,0.489583,Eighth,A#4
1627,Right,0,69,100,365.5,0.489583,Eighth,A4
1628,Left,1,57,100,365.5,1.489583,DottedQuarter,F3_A3
1630,Right,0,70,100,366.0,0.489583,Eighth,A#4
1631,Right,0,69,100,366.5,0.489583,Eighth,A4
1632,Left,1,48,100,367.0,5.989583,Unknown,C3
1633,Right,0,67,100,367.0,0.989583,Quarter,G4
1634,Left,1,58,100,368.0,1.489583,DottedQuarter,G3_A#3
1636,Right,0,70,100,368.5,0.989583,Quarter,A#4
1638,Right,0,69,100,369.5,0.489583,Eighth,A4
1637,Left,1,53,100,369.5,0.489583,Eighth,F3_A3
1642,Right,0,69,100,370.0,0.114583,ThirtySecond,A4
1640,Left,1,55,100,370.0,1.489583,DottedQuarter,G3_E3
1643,Right,0,67,100,370.125,0.364583,DottedSixteenth,G4
1644,Right,0,66,100,370.5,0.489583,Eighth,F#4
1645,Right,0,67,100,371.0,0.489583,Eighth,G4
1648,Right,0,70,100,371.5,0.114583,ThirtySecond,A#4
1646,Left,1,53,100,371.5,1.489583,DottedQuarter,F3_A3
1649,Right,0,69,100,371.625,0.364583,DottedSixteenth,A4
1650,Right,0,67,100,372.0,0.489583,Eighth,G4
1651,Right,0,69,100,372.5,0.489583,Eighth,A4
1653,Right,0,70,100,373.0,0.989583,Quarter,A#4
1652,Left,1,48,100,373.0,5.989583,Quarter,G3_C3_A#3
1656,Left,1,62,100,374.0,1.489583,DottedQuarter,D4_A#3
1658,Right,0,74,100,374.5,0.989583,Quarter,D5
1661,Right,0,72,100,375.5,0.489583,Eighth,C5
1659,Left,1,57,100,375.5,0.489583,Eighth,C4_A3
1662,Left,1,58,100,376.0,1.489583,DottedQuarter,G3_A#3
1664,Right,0,70,100,376.0,0.489583,Eighth,A#4
1665,Right,0,74,97,376.5,0.489583,Eighth,D5
1666,Right,0,72,93,377.0,0.489583,Eighth,C5
1668,Right,0,70,89,377.5,0.489583,Eighth,A#4
1667,Left,1,55,89,377.5,1.489583,DottedQuarter,G3_E3
1670,Right,0,69,85,378.0,0.489583,Eighth,A4
1671,Right,0,67,81,378.5,0.489583,Eighth,G4
1672,Right,0,57,80,379.0,1.489583,DottedQuarter,F4_C4_A3
1675,Left,1,53,80,379.5,0.489583,Eighth,F3
1676,Left,1,57,80,380.0,0.489583,Eighth,A3
1677,Right,0,69,80,380.5,1.489583,DottedQuarter,F4_C4_A4
1680,Left,1,48,80,381.0,0.489583,Eighth,C3
1681,Left,1,53,80,381.5,0.489583,Eighth,F3
1682,Right,0,72,80,382.0,1.489583,DottedQuarter,F4_C5_A4
1685,Left,1,45,80,382.5,0.489583,Eighth,A2
1686,Left,1,48,80,383.0,0.489583,Eighth,C3
1687,Right,0,69,80,383.5,1.489583,DottedQuarter,F5_C5_A4
1690,Left,1,41,80,384.0,0.489583,Eighth,F2
1691,Left,1,45,80,384.5,0.489583,Eighth,A2
1692,Right,0,76,80,385.0,1.489583,DottedQuarter,G4_E5_C5
1695,Left,1,47,80,385.5,0.489583,Eighth,B2
1696,Left,1,48,80,386.0,0.489583,Eighth,C3
1697,Right,0,74,80,386.5,1.489583,DottedQuarter,G4_F4_D5
1700,Left,1,58,80,387.0,0.489583,Eighth,A#3
1701,Left,1,59,80,387.5,0.489583,Eighth,B3
1702,Right,0,64,80,388.0,1.489583,DottedQuarter,G4_E4_C5
1705,Left,1,59,80,388.5,0.489583,Eighth,B3
1706,Left,1,60,80,389.0,0.489583,Eighth,C4
1707,Right,0,67,80,389.5,1.489583,DottedQuarter,G4_C4_A#4
1710,Left,1,51,80,390.0,0.489583,Eighth,D#3
1711,Left,1,52,80,390.5,0.489583,Eighth,E3
1712,Right,0,69,80,391.0,1.489583,DottedQuarter,F4_C4_A4
1715,Left,1,52,80,391.5,0.489583,Eighth,E3
1716,Left,1,53,80,392.0,0.489583,Eighth,F3
1717,Right,0,67,80,392.5,1.489583,DottedQuarter,G4_E4_A#3
1720,Left,1,42,80,393.0,0.489583,Eighth,F#2
1721,Left,1,43,80,393.5,0.489583,Eighth,G2
1722,Right,0,60,80,394.0,1.489583,DottedQuarter,F4_C4_A3
1725,Left,1,44,80,394.5,0.489583,Eighth,G#2
1726,Left,1,45,80,395.0,0.489583,Eighth,A2
1727,Right,0,67,80,395.5,1.489583,DottedQuarter,G4_G3_D4
1730,Left,1,45,80,396.0,0.489583,Eighth,A2
1731,Left,1,46,80,396.5,0.489583,Eighth,A#2
1732,Right,0,53,80,397.0,1.489583,DottedQuarter,F3_C4_A3
1735,Left,1,47,80,397.5,0.489583,Eighth,B2
1736,Left,1,48,80,398.0,0.489583,Eighth,C3
1737,Right,0,55,80,398.5,1.489583,DottedQuarter,G3_E4_C4_A#3
1741,Left,1,35,80,399.0,0.489583,Eighth,B1
1742,Left,1,36,80,399.5,0.489583,Eighth,C2
1744,Right,0,57,80,400.0,0.989583,Quarter,F4_C4_A3
1743,Left,1,41,80,400.0,0.489583,Eighth,F2
1747,Left,1,45,80,400.5,0.489583,Eighth,A2
1748,Left,1,48,80,401.0,0.489583,Eighth,C3
1749,Left,1,53,80,401.5,0.489583,Eighth,F3
1750,Left,1,55,80,402.0,0.489583,Eighth,G3
1751,Left,1,57,80,402.5,0.489583,Eighth,A3
1752,Left,1,48,100,403.0,5.989583,Unknown,C3
1753,Left,1,58,100,404.0,1.489583,DottedQuarter,G3_A#3
1755,Right,0,70,100,404.5,0.989583,Quarter,A#4
1758,Right,0,69,100,405.5,0.489583,Eighth,A4
1756,Left,1,53,100,405.5,0.489583,Eighth,F3_A3
1759,Left,1,52,100,406.0,1.489583,DottedQuarter,G3_E3
1760,Right,0,69,100,406.0,0.114583,ThirtySecond,A4
1762,Right,0,67,100,406.125,0.364583,DottedSixteenth,G4
1763,Right,0,66,100,406.5,0.489583,Eighth,F#4
1764,Right,0,67,100,407.0,0.489583,Eighth,G4
1767,Right,0,70,100,407.5,0.114583,ThirtySecond,A#4
1765,Left,1,57,100,407.5,1.489583,DottedQuarter,F3_A3
1768,Right,0,69,100,407.625,0.364583,DottedSixteenth,A4
1769,Right,0,67,100,408.0,0.489583,Eighth,G4
1770,Right,0,69,100,408.5,0.489583,Eighth,A4
1771,Left,1,55,100,409.0,5.989583,Quarter,G3_C3_A#3
1772,Right,0,70,100,409.0,0.989583,Quarter,A#4
1775,Left,1,58,100,410.0,1.489583,DottedQuarter,D4_A#3
1777,Right,0,74,100,410.5,0.989583,Quarter,D5
1778,Left,1,57,100,411.5,0.489583,Eighth,C4_A3
1780,Right,0,72,100,411.5,0.489583,Eighth,C5
1782,Left,1,58,100,412.0,1.489583,DottedQuarter,G3_A#3
1781,Right,0,70,100,412.0,0.489583,Eighth,A#4
1784,Right,0,72,100,412.5,0.489583,Eighth,C5
1785,Right,0,70,100,413.0,0.489583,Eighth,A#4
1787,Left,1,53,100,413.5,1.489583,DottedQuarter,F3_A3
1786,Right,0,69,100,413.5,0.489583,Eighth,A4
1789,Right,0,70,100,414.0,0.489583,Eighth,A#4
1790,Right,0,69,100,414.5,0.489583,Eighth,A4
1792,Right,0,67,100,415.0,0.989583,Quarter,G4
1791,Left,1,48,100,415.0,5.989583,Unknown,C3
1793,Left,1,58,100,416.0,1.489583,DottedQuarter,G3_A#3
1795,Right,0,70,100,416.5,0.989583,Quarter,A#4
1796,Left,1,53,100,417.5,0.489583,Eighth,F3_A3
1798,Right,0,69,100,417.5,0.489583,Eighth,A4
1801,Right,0,69,100,418.0,0.114583,ThirtySecond,A4
1799,Left,1,55,100,418.0,1.489583,DottedQuarter,G3_E3
1802,Right,0,67,100,418.125,0.364583,DottedSixteenth,G4
1803,Right,0,66,100,418.5,0.489583,Eighth,F#4
1804,Right,0,67,100,419.0,0.489583,Eighth,G4
1805,Left,1,53,100,419.5,1.489583,DottedQuarter,F3_A3
1806,Right,0,70,100,419.5,0.114583,ThirtySecond,A#4
1808,Right,0,69,100,419.625,0.364583,DottedSixteenth,A4
1809,Right,0,67,100,420.0,0.489583,Eighth,G4
1810,Right,0,69,100,420.5,0.489583,Eighth,A4
1811,Right,0,70,100,421.0,0.989583,Quarter,A#4
1812,Left,1,55,100,421.0,5.989583,Quarter,G3_C3_A#3
1815,Left,1,58,100,422.0,1.489583,DottedQuarter,D4_A#3
1817,Right,0,74,100,422.5,0.989583,Quarter,D5
1820,Right,0,72,100,423.5,0.489583,Eighth,C5
1818,Left,1,57,100,423.5,0.489583,Eighth,C4_A3
1821,Left,1,55,100,424.0,1.489583,DottedQuarter,G3_A#3
1823,Right,0,70,100,424.0,0.489583,Eighth,A#4
1824,Right,0,74,97,424.5,0.489583,Eighth,D5
1825,Right,0,72,93,425.0,0.489583,Eighth,C5
1827,Left,1,52,89,425.5,1.489583,DottedQuarter,G3_E3
1826,Right,0,70,89,425.5,0.489583,Eighth,A#4
1829,Right,0,69,85,426.0,0.489583,Eighth,A4
1830,Right,0,67,81,426.5,0.489583,Eighth,G4
1831,Right,0,60,80,427.0,1.489583,DottedQuarter,F4_C4_A3
1834,Left,1,53,80,427.5,0.489583,Eighth,F3
1835,Left,1,57,80,428.0,0.489583,Eighth,A3
1836,Right,0,69,80,428.5,1.489583,DottedQuarter,F4_C4_A4
1839,Left,1,48,80,429.0,0.489583,Eighth,C3
1840,Left,1,53,80,429.5,0.489583,Eighth,F3
1841,Right,0,72,80,430.0,1.489583,DottedQuarter,F4_C5_A4
1844,Left,1,45,80,430.5,0.489583,Eighth,A2
1845,Left,1,48,80,431.0,0.489583,Eighth,C3
1846,Right,0,69,80,431.5,1.489583,DottedQuarter,F5_C5_A4
1849,Left,1,41,80,432.0,0.489583,Eighth,F2
1850,Left,1,45,80,432.5,0.489583,Eighth,A2
1851,Right,0,76,80,433.0,1.489583,DottedQuarter,G4_E5_C5
1854,Left,1,47,80,433.5,0.489583,Eighth,B2
1855,Left,1,48,80,434.0,0.489583,Eighth,C3
1856,Right,0,74,80,434.5,1.489583,DottedQuarter,G4_F4_D5
1859,Left,1,58,80,435.0,0.489583,Eighth,A#3
1860,Left,1,59,80,435.5,0.489583,Eighth,B3
1861,Right,0,72,80,436.0,1.489583,DottedQuarter,G4_E4_C5
1864,Left,1,59,80,436.5,0.489583,Eighth,B3
1865,Left,1,60,80,437.0,0.489583,Eighth,C4
1866,Right,0,70,80,437.5,1.489583,DottedQuarter,G4_C4_A#4
1869,Left,1,51,80,438.0,0.489583,Eighth,D#3
1870,Left,1,52,80,438.5,0.489583,Eighth,E3
1873,Right,0,60,80,439.0,0.489583,Eighth,G#4_F4_C4
1871,Left,1,41,80,439.0,1.489583,DottedQuarter,F3_F2
1876,Right,0,80,80,439.5,0.489583,Eighth,G#5
1877,Right,0,84,80,440.0,0.489583,Eighth,C6
1878,Left,1,56,80,440.5,1.489583,DottedQuarter,G#3_G#2
1880,Right,0,77,80,441.0,0.489583,Eighth,F5
1881,Right,0,80,80,441.5,0.489583,Eighth,G#5
1882,Left,1,48,80,442.0,1.489583,DottedQuarter,C4_C3
1884,Right,0,72,80,442.5,0.489583,Eighth,C5
1885,Right,0,77,80,443.0,0.489583,Eighth,F5
1886,Left,1,53,80,443.5,1.489583,DottedQuarter,F4_F3
1888,Right,0,68,80,444.0,0.489583,Eighth,G#4
1889,Right,0,80,80,444.5,0.489583,Eighth,G#5
1890,Left,1,51,80,445.0,1.489583,DottedQuarter,D#4_D#3
1892,Right,0,80,80,445.5,0.489583,Eighth,G#5
1893,Right,0,79,80,446.0,0.489583,Eighth,G5
1894,Left,1,61,80,446.5,1.489583,DottedQuarter,C#4_C#3
1896,Right,0,67,80,447.0,0.489583,Eighth,G4
1897,Right,0,77,80,447.5,0.489583,Eighth,F5
1898,Left,1,48,80,448.0,1.489583,DottedQuarter,C4_C3
1900,Right,0,77,80,448.5,0.489583,Eighth,F5
1901,Right,0,75,80,449.0,0.489583,Eighth,D#5
1902,Left,1,58,80,449.5,1.489583,DottedQuarter,A#3_A#2
1904,Right,0,73,80,450.0,0.489583,Eighth,C#5
1905,Right,0,85,80,450.5,0.489583,Eighth,C#6
1906,Left,1,56,80,451.0,1.489583,DottedQuarter,G#3_G#2
1908,Right,0,84,80,451.5,0.489583,Eighth,C6
1909,Right,0,87,80,452.0,0.489583,Eighth,D#6
1910,Left,1,60,80,452.5,1.489583,DottedQuarter,C4_C3
1912,Right,0,80,80,453.0,0.489583,Eighth,G#5
1913,Right,0,84,80,453.5,0.489583,Eighth,C6
1914,Left,1,51,80,454.0,1.489583,DottedQuarter,D#4_D#3
1916,Right,0,75,80,454.5,0.489583,Eighth,D#5
1917,Right,0,80,80,455.0,0.489583,Eighth,G#5
1918,Left,1,56,80,455.5,1.489583,DottedQuarter,G#4_G#3
1920,Right,0,72,80,456.0,0.489583,Eighth,C5
1921,Right,0,84,80,456.5,0.489583,Eighth,C6
1922,Left,1,55,80,457.0,1.489583,DottedQuarter,G4_G3
1924,Right,0,84,80,457.5,0.489583,Eighth,C6
1925,Right,0,83,80,458.0,0.489583,Eighth,B5
1926,Left,1,65,80,458.5,1.489583,DottedQuarter,F4_F3
1928,Right,0,71,80,459.0,0.489583,Eighth,B4
1929,Right,0,80,80,459.5,0.489583,Eighth,G#5
1930,Left,1,51,80,460.0,1.489583,DottedQuarter,D#4_D#3
1932,Right,0,80,80,460.5,0.489583,Eighth,G#5
1933,Right,0,79,80,461.0,0.489583,Eighth,G5
1934,Left,1,62,80,461.5,1.489583,DottedQuarter,D4_D3
1936,Right,0,77,80,462.0,0.489583,Eighth,F5
1937,Right,0,89,80,462.5,0.489583,Eighth,F6
1938,Right,0,67,80,463.0,1.489583,DottedQuarter,G4_D#5_C5
1941,Left,1,59,80,463.5,0.489583,Eighth,B3
1942,Left,1,60,80,464.0,0.489583,Eighth,C4
1943,Right,0,75,80,464.5,1.489583,DottedQuarter,G5_D#5_C5
1946,Left,1,59,80,465.0,0.489583,Eighth,B3
1947,Left,1,60,80,465.5,0.489583,Eighth,C4
1948,Right,0,79,80,466.0,1.489583,DottedQuarter,G5_D#5_C6
1951,Left,1,59,80,466.5,0.489583,Eighth,B3
1952,Left,1,60,80,467.0,0.489583,Eighth,C4
1953,Right,0,72,80,467.5,1.489583,DottedQuarter,C6_C5_A5
1956,Left,1,54,80,468.0,0.489583,Eighth,F#3
1957,Left,1,63,80,468.5,0.489583,Eighth,D#4
1958,Right,0,83,80,469.0,1.489583,DottedQuarter,G5_B5_B4
1961,Left,1,63,80,469.5,0.489583,Eighth,D#4
1962,Left,1,62,80,470.0,0.489583,Eighth,D4
1963,Right,0,78,80,470.5,1.489583,DottedQuarter,F#5_A5_A4
1966,Left,1,50,80,471.0,0.489583,Eighth,D3
1967,Left,1,60,80,471.5,0.489583,Eighth,C4
1968,Right,0,79,80,472.0,1.489583,DottedQuarter,G5_G4
1970,Left,1,60,80,472.5,0.489583,Eighth,C4
1971,Left,1,59,80,473.0,0.489583,Eighth,B3
1972,Right,0,70,80,473.5,1.489583,DottedQuarter,G5_A#5_A#4
1975,Left,1,52,80,474.0,0.489583,Eighth,E3
1976,Left,1,61,80,474.5,0.489583,Eighth,C#4
1977,Right,0,68,80,475.0,1.489583,DottedQuarter,G#5_G#4_F5
1980,Left,1,61,80,475.5,0.489583,Eighth,C#4
1981,Left,1,60,80,476.0,0.489583,Eighth,C4
1982,Right,0,79,80,476.5,1.489583,DottedQuarter,G5_G4_E5
1985,Left,1,48,80,477.0,0.489583,Eighth,C3
1986,Left,1,58,80,477.5,0.489583,Eighth,A#3
1987,Right,0,65,80,478.0,1.489583,DottedQuarter,F5_F4
1989,Left,1,58,80,478.5,0.489583,Eighth,A#3
1990,Left,1,56,80,479.0,0.489583,Eighth,G#3
1991,Right,0,79,80,479.5,1.489583,DottedQuarter,G5_G4_D5
1994,Left,1,47,80,480.0,0.489583,Eighth,B2
1995,Left,1,55,80,480.5,0.489583,Eighth,G3
1996,Right,0,75,80,481.0,1.489583,DottedQuarter,G4_D#5_C5
1999,Left,1,48,80,481.5,0.489583,Eighth,C3
2000,Left,1,55,80,482.0,0.489583,Eighth,G3
2001,Right,0,74,80,482.5,1.489583,DottedQuarter,F4_D5_B4
2004,Left,1,50,80,483.0,0.489583,Eighth,D3
2005,Left,1,55,80,483.5,0.489583,Eighth,G3
2006,Right,0,63,80,484.0,1.489583,DottedQuarter,G4_D#4_C5
2009,Left,1,51,80,484.5,0.489583,Eighth,D#3
2010,Left,1,48,80,485.0,0.489583,Eighth,C3
2011,Right,0,69,80,485.5,1.489583,DottedQuarter,D5_D4_A4
2014,Left,1,41,80,486.0,0.489583,Eighth,F2
2015,Left,1,42,80,486.5,0.489583,Eighth,F#2
2016,Right,0,71,80,487.0,1.489583,DottedQuarter,G4_D4_B4
2019,Left,1,42,80,487.5,0.489583,Eighth,F#2
2020,Left,1,43,80,488.0,0.489583,Eighth,G2
2021,Right,0,69,80,488.5,1.489583,DottedQuarter,F#4_C4_A4
2024,Left,1,31,80,489.0,0.489583,Eighth,G1
2025,Left,1,43,80,489.5,0.489583,Eighth,G2
2026,Right,0,59,80,490.0,1.489583,DottedQuarter,G4_D4_B3
2029,Left,1,31,80,490.5,0.489583,Eighth,G1
2030,Left,1,43,80,491.0,0.489583,Eighth,G2
2031,Right,0,63,80,491.5,1.489583,DottedQuarter,F#3_D#4_C4
2034,Left,1,31,80,492.0,0.489583,Eighth,G1
2035,Left,1,43,80,492.5,0.489583,Eighth,G2
2036,Right,0,55,80,493.0,1.489583,DottedQuarter,G3_D4_B3
2039,Left,1,31,80,493.5,0.489583,Eighth,G1
2040,Left,1,43,80,494.0,0.489583,Eighth,G2
2041,Right,0,60,70,494.5,1.489583,DottedQuarter,F#3_D#3_C4
2044,Left,1,31,70,495.0,0.489583,Eighth,G1
2045,Left,1,43,70,495.5,0.489583,Eighth,G2
2046,Right,0,50,70,496.0,1.489583,DottedQuarter,G3_D3_B3
2049,Left,1,31,70,496.5,0.489583,Eighth,G1
2050,Left,1,43,70,497.0,0.489583,Eighth,G2
2051,Right,0,48,70,497.5,1.489583,DottedQuarter,F#3_C3_A3
2054,Left,1,31,70,498.0,0.489583,Eighth,G1
2055,Left,1,43,70,498.5,0.489583,Eighth,G2
2058,Left,1,31,70,499.0,0.989583,Quarter,G1
2056,Right,0,55,70,499.0,0.989583,Quarter,G3_B2
2059,Left,1,43,99,500.0,4.989583,Unknown,G2
2060,Right,0,62,101,500.5,0.989583,Quarter,D4
2061,Right,0,60,80,501.5,0.489583,Eighth,C4
2062,Right,0,60,80,502.0,0.114583,ThirtySecond,C4
2063,Right,0,59,80,502.125,0.364583,DottedSixteenth,B3
2064,Right,0,57,80,502.5,0.489583,Eighth,A3
2065,Right,0,59,80,503.0,0.489583,Eighth,B3
2066,Right,0,62,80,503.5,0.114583,ThirtySecond,D4
2067,Right,0,60,80,503.625,0.364583,DottedSixteenth,C4
2068,Right,0,59,80,504.0,0.489583,Eighth,B3
2069,Right,0,60,80,504.5,0.489583,Eighth,C4
2070,Right,0,62,80,505.0,0.989583,Quarter,D4
2071,Left,1,31,80,505.0,0.989583,Quarter,G1
2072,Left,1,43,97,506.0,4.989583,Unknown,G2
2073,Right,0,65,100,506.5,0.989583,Quarter,F4_D4
2075,Right,0,60,80,507.5,0.489583,Eighth,E4_C4
2077,Right,0,64,80,508.0,0.114583,ThirtySecond,E4_C4
2079,Right,0,62,80,508.125,0.364583,DottedSixteenth,D4_B3
2081,Right,0,60,80,508.5,0.489583,Eighth,C4_A3
2083,Right,0,62,80,509.0,0.489583,Eighth,D4_B3
2085,Right,0,62,80,509.5,0.114583,ThirtySecond,F4_D4
2087,Right,0,60,80,509.625,0.364583,DottedSixteenth,E4_C4
2089,Right,0,59,80,510.0,0.489583,Eighth,D4_B3
2091,Right,0,64,80,510.5,0.489583,Eighth,E4_C4
2093,Right,0,65,80,511.0,0.989583,Quarter,F4_D4
2094,Left,1,31,80,511.0,0.989583,Quarter,G1
2096,Left,1,43,103,512.0,5.989583,Unknown,G2
2097,Right,0,65,100,512.5,0.989583,Quarter,F4_A4
2099,Left,1,47,80,513.0,0.489583,Eighth,B2
2100,Right,0,64,80,513.5,0.489583,Eighth,G4_E4
2102,Left,1,48,80,513.5,0.489583,Eighth,C3
2103,Right,0,62,80,514.0,0.489583,Eighth,F4_D4
2105,Left,1,50,80,514.0,1.489583,DottedQuarter,D3
2106,Right,0,67,80,514.5,0.489583,Eighth,G4_E4
2108,Right,0,62,80,515.0,0.489583,Eighth,F4_D4
2110,Right,0,64,80,515.5,0.489583,Eighth,E4_C4
2112,Left,1,52,80,515.5,1.489583,DottedQuarter,E3
2113,Right,0,62,80,516.0,0.489583,Eighth,F4_D4
2115,Right,0,64,80,516.5,0.489583,Eighth,E4_C4
2117,Left,1,53,80,517.0,0.989583,Quarter,F3
2118,Right,0,62,80,517.0,0.989583,Quarter,D4_B3
2120,Left,1,43,102,518.0,3.989583,Whole,G2
2121,Right,0,69,100,518.5,0.989583,Quarter,F4_A4
2123,Left,1,47,80,519.0,0.489583,Eighth,B2
2124,Left,1,48,80,519.5,0.489583,Eighth,C3
2125,Right,0,67,80,519.5,0.489583,Eighth,G4_E4
2128,Right,0,65,80,520.0,0.489583,Eighth,F4_D4
2127,Left,1,50,80,520.0,1.489583,DottedQuarter,D3
2130,Right,0,67,80,520.5,0.489583,Eighth,G4_E4
2132,Right,0,62,80,521.0,0.489583,Eighth,F4_D4
2134,Right,0,64,80,521.5,0.489583,Eighth,E4_C4
2136,Left,1,52,80,521.5,1.489583,DottedQuarter,E3
2137,Right,0,62,80,522.0,0.489583,Eighth,F4_D4
2139,Right,0,60,80,522.5,0.489583,Eighth,E4_C4
2143,Left,1,53,80,523.0,0.989583,Quarter,G2_F3
2141,Right,0,59,80,523.0,0.989583,Quarter,D4_B3
2145,Right,0,61,80,523.5,0.489583,Eighth,C#4
2146,Right,0,62,80,524.0,0.489583,Eighth,D4
2147,Right,0,64,80,524.5,0.489583,Eighth,E4
2148,Right,0,65,80,525.0,0.489583,Eighth,F4
2149,Right,0,67,80,525.5,0.489583,Eighth,G4
2150,Right,0,69,80,526.0,0.489583,Eighth,A4
2151,Right,0,71,80,526.5,0.489583,Eighth,B4
2152,Right,0,72,80,527.0,0.489583,Eighth,C5
2153,Right,0,74,80,527.5,0.489583,Eighth,D5
2154,Right,0,75,80,528.0,0.489583,Eighth,D#5
2155,Right,0,76,80,528.5,0.489583,Eighth,E5
2156,Right,0,77,80,529.0,0.489583,Eighth,F5
2157,Right,0,73,80,529.5,0.489583,Eighth,C#5
2158,Right,0,74,80,530.0,0.489583,Eighth,D5
2159,Right,0,76,80,530.5,0.489583,Eighth,E5
2160,Right,0,77,80,531.0,0.489583,Eighth,F5
2161,Right,0,79,80,531.5,0.489583,Eighth,G5
2162,Right,0,81,80,532.0,0.489583,Eighth,A5
2163,Right,0,83,80,532.5,0.489583,Eighth,B5
2164,Right,0,84,80,533.0,0.489583,Eighth,C6
2165,Right,0,86,80,533.5,0.489583,Eighth,D6
2166,Right,0,87,80,534.0,0.489583,Eighth,D#6
2167,Right,0,88,80,534.5,0.489583,Eighth,E6
2169,Left,1,43,70,535.0,0.489583,Eighth,G2
2168,Right,0,89,70,535.0,0.989583,Quarter,F6
2170,Left,1,42,70,535.5,0.489583,Eighth,F#2
2171,Left,1,43,70,536.0,0.489583,Eighth,G2
2172,Left,1,45,70,536.5,0.489583,Eighth,A2
2173,Left,1,47,70,537.0,0.489583,Eighth,B2
2174,Left,1,48,70,537.5,0.489583,Eighth,C3
2175,Left,1,50,70,538.0,0.489583,Eighth,D3
2176,Left,1,52,70,538.5,0.489583,Eighth,E3
2177,Left,1,53,70,539.0,0.489583,Eighth,F3
2178,Left,1,55,70,539.5,0.489583,Eighth,G3
2179,Left,1,57,70,540.0,0.489583,Eighth,A3
2180,Left,1,59,70,540.5,0.489583,Eighth,B3
2184,Left,1,60,80,541.0,0.989583,Quarter,C4
2181,Right,0,64,80,541.0,0.489583,Eighth,G4_E4_C5
2185,Right,0,62,80,541.5,0.489583,Eighth,F4_D4_B4
2188,Right,0,67,80,542.0,0.489583,Eighth,G4_E4_C5
2191,Right,0,74,80,542.5,0.489583,Eighth,F4_D5_A4
2194,Right,0,71,80,543.0,0.489583,Eighth,G4_E5_B4
2197,Right,0,69,80,543.5,0.489583,Eighth,F5_C5_A4
2200,Right,0,74,80,544.0,0.489583,Eighth,G5_D5_B4
2203,Right,0,76,80,544.5,0.489583,Eighth,E5_C5_A5
2206,Right,0,83,80,545.0,0.489583,Eighth,F5_D5_B5
2209,Right,0,84,80,545.5,0.489583,Eighth,G5_E5_C6
2212,Right,0,86,80,546.0,0.489583,Eighth,F5_D6_A5
2215,Right,0,88,80,546.5,0.489583,Eighth,E6_C6
2217,Left,1,79,80,546.5,0.489583,Eighth,G5
2218,Right,0,84,80,547.0,0.989583,Quarter,F6_C6
2220,Left,1,81,80,547.0,0.989583,Quarter,A5
2221,Left,1,79,80,548.0,0.489583,Eighth,G5
2222,Right,0,88,80,548.0,0.489583,Eighth,E6_C6
2224,Left,1,81,80,548.5,0.989583,Quarter,A5
2225,Right,0,84,80,548.5,0.989583,Quarter,F6_C6
2229,Left,1,79,80,549.5,0.489583,Eighth,G5
2227,Right,0,88,80,549.5,0.489583,Eighth,E6_C6
2230,Right,0,86,80,550.0,0.989583,Quarter,D6_C6
2232,Left,1,78,80,550.0,0.989583,Quarter,F#5
2233,Right,0,62,80,552.5,0.489583,Eighth,D4
2235,Right,0,67,80,553.0,0.489583,Eighth,G4_D4_B3
2234,Left,1,31,80,553.0,0.989583,Quarter,G2_G1
2239,Right,0,66,80,553.5,0.489583,Eighth,F#4_C4_A3
2242,Right,0,59,80,554.0,0.489583,Eighth,G4_D4_B3
2245,Right,0,64,80,554.5,0.489583,Eighth,E4_C4_A4
2248,Right,0,71,80,555.0,0.489583,Eighth,F4_D4_B4
2251,Right,0,72,80,555.5,0.489583,Eighth,G4_E4_C5
2254,Right,0,69,80,556.0,0.489583,Eighth,F4_D5_A4
2257,Right,0,71,80,556.5,0.489583,Eighth,G4_E5_B4
2260,Right,0,69,80,557.0,0.489583,Eighth,F5_C5_A4
2263,Right,0,79,80,557.5,0.489583,Eighth,G5_D5_B4
2266,Right,0,81,80,558.0,0.489583,Eighth,E5_C5_A5
2270,Right,0,83,80,558.5,0.489583,Eighth,F5_D5_B5
2269,Left,1,67,80,558.5,0.489583,Eighth,G4
2273,Right,0,79,80,559.0,0.989583,Quarter,G5_E5_C6
2274,Left,1,60,80,559.0,0.989583,Quarter,C5_C4
2278,Right,0,77,80,560.0,0.489583,Eighth,G5_F5_D6
2280,Left,1,67,80,560.0,0.489583,Eighth,G4_B4
2283,Left,1,60,80,560.5,0.989583,Quarter,C5_C4
2284,Right,0,84,80,560.5,0.989583,Quarter,G5_E5_C6
2289,Left,1,71,80,561.5,0.489583,Eighth,G4_B4
2288,Right,0,79,80,561.5,0.489583,Eighth,G5_F5_D6
2293,Left,1,60,80,562.0,0.989583,Quarter,C5_C4
2295,Right,0,84,80,562.0,0.989583,Quarter,G5_E5_C6
2298,Left,1,43,100,564.5,0.489583,Eighth,G2
2299,Left,1,36,110,565.0,0.489583,Eighth,C3_C2
2301,Right,0,67,110,565.0,4.989583,Unknown,G5_G4_E5
2304,Left,1,35,110,565.5,0.489583,Eighth,B2_B1
2306,Left,1,36,110,566.0,0.489583,Eighth,C3_C2
2308,Left,1,38,110,566.5,0.489583,Eighth,D3_D2
2310,Left,1,40,110,567.0,0.489583,Eighth,E3_E2
2312,Left,1,53,110,567.5,0.489583,Eighth,F3_F2
2314,Left,1,43,110,568.0,0.489583,Eighth,G3_G2
2316,Left,1,45,110,568.5,0.489583,Eighth,A3_A2
2318,Left,1,59,110,569.0,0.489583,Eighth,B3_B2
2320,Left,1,60,110,569.5,0.489583,Eighth,C4_C3
2322,Left,1,62,110,570.0,0.489583,Eighth,D4_D3
2323,Right,0,67,110,570.0,0.489583,Eighth,G4_F5_D5
2328,Left,1,52,110,570.5,0.489583,Eighth,E4_E3
2327,Right,0,67,110,570.5,0.489583,Eighth,G4_E5_C5
2333,Right,0,67,110,571.0,0.989583,Quarter,G4_D5_B4
2332,Left,1,65,100,571.0,0.989583,Quarter,F4_F3
2337,Left,1,52,110,572.0,0.489583,Eighth,E4_E3
2339,Right,0,67,110,572.0,0.489583,Eighth,G4_E5_C5
2342,Right,0,71,110,572.5,0.989583,Quarter,G4_D5_B4
2345,Left,1,53,100,572.5,0.989583,Quarter,F4_F3
2349,Right,0,76,110,573.5,0.489583,Eighth,G4_E5_C5
2347,Left,1,64,110,573.5,0.489583,Eighth,E4_E3
2352,Right,0,67,110,574.0,0.989583,Quarter,G4_D5_B4
2354,Left,1,53,110,574.0,0.989583,Quarter,F4_F3
2357,Right,0,67,100,576.5,0.489583,Eighth,G4
2361,Left,1,43,100,577.0,0.489583,Eighth,G2_G1
2358,Right,0,67,100,577.0,4.989583,Unknown,G4_F5_D5
2363,Left,1,30,100,577.5,0.489583,Eighth,F#2_F#1
2365,Left,1,43,100,578.0,0.489583,Eighth,G2_G1
2367,Left,1,45,100,578.5,0.489583,Eighth,A2_A1
2369,Left,1,47,100,579.0,0.489583,Eighth,B2_B1
2371,Left,1,36,100,579.5,0.489583,Eighth,C3_C2
2373,Left,1,38,100,580.0,0.489583,Eighth,D3_D2
2375,Left,1,52,100,580.5,0.489583,Eighth,E3_E2
2377,Left,1,41,100,581.0,0.489583,Eighth,F3_F2
2379,Left,1,43,100,581.5,0.489583,Eighth,G3_G2
2381,Right,0,76,100,582.0,0.489583,Eighth,G4_E5_C5
2384,Left,1,45,100,582.0,0.489583,Eighth,A3_A2
2388,Left,1,59,100,582.5,0.489583,Eighth,B3_B2
2386,Right,0,65,100,582.5,0.489583,Eighth,G4_F4_D5
2392,Right,0,64,100,583.0,0.989583,Quarter,G4_E4_C5
2391,Left,1,60,100,583.0,0.989583,Quarter,C4_C3
2396,Left,1,55,100,584.0,0.489583,Eighth,G3_B3
2397,Right,0,65,100,584.0,0.489583,Eighth,G4_F4_D5
2401,Right,0,72,100,584.5,0.989583,Quarter,G4_E4_C5
2404,Left,1,48,100,584.5,0.989583,Quarter,C4_C3
2409,Left,1,55,100,585.5,0.489583,Eighth,G3_B3
2406,Right,0,74,100,585.5,0.489583,Eighth,G4_F4_D5
2411,Left,1,48,100,586.0,0.989583,Quarter,C4_C3
2412,Right,0,67,100,586.0,0.989583,Quarter,G4_E4_C5
2416,Right,0,81,80,587.5,0.239583,Sixteenth,A5
2417,Right,0,79,80,587.75,0.239583,Sixteenth,G5
2418,Right,0,77,80,588.0,0.239583,Sixteenth,F5
2419,Right,0,76,80,588.25,0.239583,Sixteenth,E5
2420,Right,0,74,80,588.5,0.239583,Sixteenth,D5
2421,Right,0,72,80,588.75,0.239583,Sixteenth,C5
2422,Left,1,65,80,589.0,3.989583,DottedQuarter,G3_F4_D4
2424,Right,0,71,80,589.0,0.239583,Sixteenth,B4
2426,Right,0,72,80,589.25,0.239583,Sixteenth,C5
2427,Right,0,71,80,589.5,0.239583,Sixteenth,B4
2428,Right,0,69,80,589.75,0.239583,Sixteenth,A4
2429,Right,0,71,80,590.0,0.239583,Sixteenth,B4
2430,Right,0,67,80,590.25,0.239583,Sixteenth,G4
2431,Left,1,64,80,590.5,1.489583,DottedQuarter,E4_C4
2433,Right,0,72,80,590.5,0.239583,Sixteenth,C5
2434,Right,0,74,80,590.75,0.239583,Sixteenth,D5
2435,Right,0,72,80,591.0,0.239583,Sixteenth,C5
2436,Right,0,71,80,591.25,0.239583,Sixteenth,B4
2437,Right,0,72,80,591.5,0.239583,Sixteenth,C5
2438,Right,0,67,80,591.75,0.239583,Sixteenth,G4
2439,Left,1,62,80,592.0,0.989583,Quarter,D4_B3
2440,Right,0,74,80,592.0,0.239583,Sixteenth,D5
2442,Right,0,76,80,592.25,0.239583,Sixteenth,E5
2443,Right,0,74,80,592.5,0.239583,Sixteenth,D5
2444,Right,0,73,80,592.75,0.239583,Sixteenth,C#5
2445,Right,0,74,80,593.0,0.239583,Sixteenth,D5
2446,Right,0,67,80,593.25,0.239583,Sixteenth,G4
2447,Right,0,79,80,593.5,0.239583,Sixteenth,G5
2448,Right,0,77,80,593.75,0.239583,Sixteenth,F5
2449,Right,0,76,80,594.0,0.239583,Sixteenth,E5
2450,Right,0,74,80,594.25,0.239583,Sixteenth,D5
2451,Right,0,72,80,594.5,0.239583,Sixteenth,C5
2452,Right,0,71,80,594.75,0.239583,Sixteenth,B4
2454,Left,1,55,80,595.0,3.989583,DottedQuarter,G4_G3_E4
2453,Right,0,72,80,595.0,0.239583,Sixteenth,C5
2457,Right,0,74,80,595.25,0.239583,Sixteenth,D5
2458,Right,0,72,80,595.5,0.239583,Sixteenth,C5
2459,Right,0,71,80,595.75,0.239583,Sixteenth,B4
2460,Right,0,72,80,596.0,0.239583,Sixteenth,C5
2461,Right,0,67,80,596.25,0.239583,Sixteenth,G4
2462,Right,0,74,80,596.5,0.239583,Sixteenth,D5
2463,Left,1,65,80,596.5,1.489583,DottedQuarter,F4_D4
2465,Right,0,76,80,596.75,0.239583,Sixteenth,E5
2466,Right,0,74,80,597.0,0.239583,Sixteenth,D5
2467,Right,0,73,80,597.25,0.239583,Sixteenth,C#5
2468,Right,0,74,80,597.5,0.239583,Sixteenth,D5
2469,Right,0,67,80,597.75,0.239583,Sixteenth,G4
2470,Right,0,76,80,598.0,0.239583,Sixteenth,E5
2471,Left,1,60,80,598.0,0.989583,Quarter,E4_C4
2473,Right,0,77,80,598.25,0.239583,Sixteenth,F5
2474,Right,0,76,80,598.5,0.239583,Sixteenth,E5
2475,Right,0,75,80,598.75,0.239583,Sixteenth,D#5
2476,Right,0,76,80,599.0,0.239583,Sixteenth,E5
2477,Right,0,72,80,599.25,0.239583,Sixteenth,C5
2478,Right,0,81,80,599.5,0.239583,Sixteenth,A5
2479,Right,0,79,80,599.75,0.239583,Sixteenth,G5
2480,Right,0,77,80,600.0,0.239583,Sixteenth,F5
2481,Right,0,76,80,600.25,0.239583,Sixteenth,E5
2482,Right,0,74,80,600.5,0.239583,Sixteenth,D5
2483,Right,0,72,80,600.75,0.239583,Sixteenth,C5
2484,Right,0,78,80,601.0,0.239583,Sixteenth,F#5
2485,Left,1,55,80,601.0,5.989583,DottedQuarter,G3_C4_A4
2488,Right,0,79,80,601.25,0.239583,Sixteenth,G5
2489,Right,0,78,80,601.5,0.239583,Sixteenth,F#5
2490,Right,0,76,80,601.75,0.239583,Sixteenth,E5
2491,Right,0,78,80,602.0,0.239583,Sixteenth,F#5
2492,Right,0,74,80,602.25,0.239583,Sixteenth,D5
2493,Right,0,79,80,602.5,0.239583,Sixteenth,G5
2494,Left,1,67,80,602.5,1.489583,DottedQuarter,G4_B3
2496,Right,0,81,80,602.75,0.239583,Sixteenth,A5
2497,Right,0,79,80,603.0,0.239583,Sixteenth,G5
2498,Right,0,78,80,603.25,0.239583,Sixteenth,F#5
2499,Right,0,79,80,603.5,0.239583,Sixteenth,G5
2500,Right,0,74,80,603.75,0.239583,Sixteenth,D5
2501,Right,0,81,80,604.0,0.239583,Sixteenth,A5
2502,Left,1,66,80,604.0,2.989583,DottedHalf,F#4_C4
2504,Right,0,83,80,604.25,0.239583,Sixteenth,B5
2505,Right,0,81,80,604.5,0.239583,Sixteenth,A5
2506,Right,0,80,80,604.75,0.239583,Sixteenth,G#5
2507,Right,0,81,80,605.0,0.239583,Sixteenth,A5
2508,Right,0,74,80,605.25,0.239583,Sixteenth,D5
2509,Right,0,86,80,605.5,0.239583,Sixteenth,D6
2510,Right,0,84,80,605.75,0.239583,Sixteenth,C6
2511,Right,0,83,80,606.0,0.239583,Sixteenth,B5
2512,Right,0,81,80,606.25,0.239583,Sixteenth,A5
2513,Right,0,79,80,606.5,0.239583,Sixteenth,G5
2514,Right,0,78,80,606.75,0.239583,Sixteenth,F#5
2515,Right,0,79,80,607.0,0.239583,Sixteenth,G5
2516,Left,1,59,80,607.0,2.989583,DottedQuarter,G4_G3_B3
2519,Right,0,81,80,607.25,0.239583,Sixteenth,A5
2520,Right,0,79,80,607.5,0.239583,Sixteenth,G5
2521,Right,0,78,80,607.75,0.239583,Sixteenth,F#5
2522,Right,0,79,80,608.0,0.239583,Sixteenth,G5
2523,Right,0,74,80,608.25,0.239583,Sixteenth,D5
2524,Right,0,86,90,608.5,0.239583,Sixteenth,D6
2525,Left,1,69,80,608.5,1.489583,DottedQuarter,C4_A4
2527,Right,0,88,90,608.75,0.239583,Sixteenth,E6
2528,Right,0,86,90,609.0,0.239583,Sixteenth,D6
2529,Right,0,85,90,609.25,0.239583,Sixteenth,C#6
2530,Right,0,86,90,609.5,0.239583,Sixteenth,D6
2531,Right,0,78,90,609.75,0.239583,Sixteenth,F#5
2535,Right,0,79,80,610.0,0.239583,Sixteenth,G5
2532,Left,1,67,80,610.0,2.989583,DottedQuarter,G4_G3_B3
2536,Right,0,81,80,610.25,0.239583,Sixteenth,A5
2537,Right,0,79,80,610.5,0.239583,Sixteenth,G5
2538,Right,0,78,80,610.75,0.239583,Sixteenth,F#5
2539,Right,0,79,80,611.0,0.239583,Sixteenth,G5
2540,Right,0,74,80,611.25,0.239583,Sixteenth,D5
2543,Right,0,86,90,611.5,0.239583,Sixteenth,D6
2541,Left,1,69,80,611.5,1.489583,DottedQuarter,C4_A4
2544,Right,0,88,90,611.75,0.239583,Sixteenth,E6
2545,Right,0,86,90,612.0,0.239583,Sixteenth,D6
2546,Right,0,85,90,612.25,0.239583,Sixteenth,C#6
2547,Right,0,86,90,612.5,0.239583,Sixteenth,D6
2548,Right,0,78,90,612.75,0.239583,Sixteenth,F#5
2549,Left,1,59,80,613.0,0.989583,Quarter,G4_D4_B3
2552,Right,0,79,80,613.0,0.239583,Sixteenth,G5
2553,Right,0,81,80,613.25,0.239583,Sixteenth,A5
2554,Right,0,79,80,613.5,0.239583,Sixteenth,G5
2555,Right,0,78,80,613.75,0.239583,Sixteenth,F#5
2556,Right,0,79,80,614.0,0.239583,Sixteenth,G5
2557,Right,0,81,80,614.25,0.239583,Sixteenth,A5
2558,Right,0,83,80,614.5,0.239583,Sixteenth,B5
2559,Right,0,84,80,614.75,0.239583,Sixteenth,C6
2560,Right,0,83,80,615.0,0.239583,Sixteenth,B5
2561,Right,0,82,80,615.25,0.239583,Sixteenth,A#5
2562,Right,0,83,80,615.5,0.239583,Sixteenth,B5
2563,Right,0,84,80,615.75,0.239583,Sixteenth,C6
2564,Right,0,86,80,616.0,0.239583,Sixteenth,D6
2565,Right,0,88,80,616.25,0.239583,Sixteenth,E6
2566,Right,0,86,80,616.5,0.239583,Sixteenth,D6
2567,Right,0,85,80,616.75,0.239583,Sixteenth,C#6
2568,Right,0,86,80,617.0,0.239583,Sixteenth,D6
2569,Right,0,88,80,617.25,0.239583,Sixteenth,E6
2570,Right,0,89,80,617.5,0.239583,Sixteenth,F6
2571,Right,0,86,80,617.75,0.239583,Sixteenth,D6
2572,Right,0,83,80,618.0,0.239583,Sixteenth,B5
2573,Right,0,79,80,618.25,0.239583,Sixteenth,G5
2574,Right,0,77,80,618.5,0.239583,Sixteenth,F5
2575,Right,0,74,80,618.75,0.239583,Sixteenth,D5
2576,Right,0,64,100,619.0,0.489583,Eighth,G4_E4_C5
2578,Left,1,60,100,619.0,0.989583,Quarter,C4_C3
2581,Right,0,65,80,619.5,0.489583,Eighth,F4_D4_B4
2584,Right,0,64,80,620.0,0.489583,Eighth,G4_E4_C5
2587,Right,0,74,80,620.5,0.489583,Eighth,F4_D5_A4
2590,Right,0,76,80,621.0,0.489583,Eighth,G4_E5_B4
2593,Right,0,77,80,621.5,0.489583,Eighth,F5_C5_A4
2596,Right,0,71,80,622.0,0.489583,Eighth,G5_D5_B4
2599,Right,0,81,80,622.5,0.489583,Eighth,E5_C5_A5
2602,Right,0,77,80,623.0,0.489583,Eighth,F5_D5_B5
2605,Right,0,79,80,623.5,0.489583,Eighth,G5_E5_C6
2608,Right,0,81,80,624.0,0.489583,Eighth,F5_D6_A5
2612,Right,0,88,80,624.5,0.489583,Eighth,E6_C6
2611,Left,1,79,80,624.5,0.489583,Eighth,G5
2615,Right,0,84,80,625.0,0.989583,Quarter,F6_C6
2614,Left,1,81,80,625.0,0.989583,Quarter,A5
2618,Left,1,79,80,626.0,0.489583,Eighth,G5
2617,Right,0,88,80,626.0,0.489583,Eighth,E6_C6
2622,Left,1,81,80,626.5,0.989583,Quarter,A5
2620,Right,0,84,80,626.5,0.989583,Quarter,F6_C6
2623,Right,0,88,80,627.5,0.489583,Eighth,E6_C6
2625,Left,1,79,80,627.5,0.489583,Eighth,G5
2626,Right,0,86,80,628.0,0.989583,Quarter,D6_C6
2627,Left,1,78,80,628.0,0.989583,Quarter,F#5
2629,Right,0,88,80,631.0,0.989583,Quarter,E6_E5
2631,Left,1,67,80,631.0,0.989583,Quarter,G4_C5
2634,Right,0,75,80,632.0,0.489583,Eighth,D#6_D#5
2633,Left,1,66,80,632.0,0.489583,Eighth,F#4_C5
2637,Right,0,88,80,632.5,0.989583,Quarter,E6_E5
2639,Left,1,72,80,632.5,0.989583,Quarter,G4_C5
2643,Right,0,74,80,633.5,0.489583,Eighth,D6_D5
2641,Left,1,65,80,633.5,0.489583,Eighth,F4_C5
2647,Right,0,72,80,634.0,0.989583,Quarter,C6_C5
2645,Left,1,67,80,634.0,0.989583,Quarter,G4_E4
2649,Right,0,84,120,636.5,0.239583,Sixteenth,C6
2650,Right,0,86,120,636.625,0.239583,Sixteenth,D6
2651,Right,0,83,120,636.75,0.239583,Sixteenth,B5
2652,Right,0,84,120,636.875,0.114583,ThirtySecond,C6
2655,Left,1,69,120,637.0,0.989583,Quarter,C5_A4
2653,Right,0,77,120,637.0,0.989583,Quarter,F6_F5
2659,Left,1,67,120,638.0,0.489583,Eighth,G4_B4
2657,Right,0,76,120,638.0,0.489583,Eighth,E6_E5
2662,Left,1,65,120,638.5,0.989583,Quarter,F4_A4
2661,Right,0,86,120,638.5,0.989583,Quarter,D6_D5
2665,Left,1,64,120,639.5,0.489583,Eighth,G4_E4
2666,Right,0,84,120,639.5,0.489583,Eighth,C6_C5
2669,Left,1,62,120,640.0,0.989583,Quarter,F4_D4
2670,Right,0,71,120,640.0,0.989583,Quarter,B5_B4
2675,Right,0,69,120,641.0,0.489583,Eighth,A5_A4
2673,Left,1,60,120,641.0,0.489583,Eighth,E4_C4
2677,Left,1,62,120,641.5,0.989583,Quarter,D4_B3
2679,Right,0,67,120,641.5,0.989583,Quarter,G5_G4
2681,Right,0,77,120,642.5,0.489583,Eighth,F5_F4
2683,Left,1,60,120,642.5,0.489583,Eighth,C4_A3
2687,Left,1,55,120,643.0,0.989583,Quarter,G3_B3
2685,Right,0,64,120,643.0,0.989583,Quarter,E5_E4
2691,Left,1,53,120,644.0,0.489583,Eighth,F3_A3
2689,Right,0,62,120,644.0,0.489583,Eighth,D5_D4
2693,Left,1,52,120,644.5,0.989583,Quarter,G3_E3
2695,Right,0,60,120,644.5,0.989583,Quarter,C5_C4
2697,Left,1,50,120,645.5,0.489583,Eighth,F3_D3
2699,Right,0,59,120,645.5,0.489583,Eighth,B4_B3
2701,Left,1,52,120,646.0,0.989583,Quarter,E3_C3
2702,Right,0,69,120,646.0,0.989583,Quarter,A4_A3
2705,Right,0,68,120,647.0,0.489583,Eighth,G#4_G#3
2706,Left,1,47,120,647.0,0.489583,Eighth,D3_B2
2709,Right,0,57,120,647.5,0.989583,Quarter,A4_A3
2711,Left,1,52,120,647.5,0.989583,Quarter,E3_C3
2713,Right,0,54,120,648.5,0.489583,Eighth,F#4_F#3
2714,Left,1,48,120,648.5,0.489583,Eighth,C3_A2
2718,Left,1,43,100,649.0,0.239583,Sixteenth,G2
2717,Right,0,67,120,649.0,0.989583,Quarter,G4_G3
2720,Left,1,50,100,649.25,0.239583,Sixteenth,D3_B2
2722,Left,1,55,100,649.5,0.239583,Sixteenth,G3
2723,Left,1,50,100,649.75,0.239583,Sixteenth,D3_B2
2725,Left,1,55,100,650.0,0.239583,Sixteenth,G3
2726,Left,1,47,100,650.25,0.239583,Sixteenth,D3_B2
2728,Left,1,55,100,650.5,0.239583,Sixteenth,G3
2729,Left,1,50,100,650.75,0.239583,Sixteenth,D3_B2
2731,Left,1,55,100,651.0,0.239583,Sixteenth,G3
2732,Left,1,50,100,651.25,0.239583,Sixteenth,D3_B2
2734,Left,1,55,100,651.5,0.239583,Sixteenth,G3
2735,Left,1,47,100,651.75,0.239583,Sixteenth,D3_B2
2738,Left,1,43,80,652.0,0.239583,Sixteenth,G2
2737,Right,0,77,80,652.0,1.989583,Half,F5
2739,Left,1,47,80,652.25,0.239583,Sixteenth,D3_B2
2741,Left,1,55,80,652.5,0.239583,Sixteenth,G3
2742,Left,1,47,80,652.75,0.239583,Sixteenth,D3_B2
2744,Left,1,55,80,653.0,0.239583,Sixteenth,G3
2745,Left,1,50,80,653.25,0.239583,Sixteenth,D3_B2
2747,Left,1,41,80,653.5,0.239583,Sixteenth,F2
2748,Left,1,50,80,653.75,0.239583,Sixteenth,D3_B2
2750,Left,1,55,80,654.0,0.239583,Sixteenth,G3
2751,Right,0,74,80,654.0,0.489583,Eighth,D5
2752,Left,1,47,80,654.25,0.239583,Sixteenth,D3_B2
2754,Left,1,55,80,654.5,0.239583,Sixteenth,G3
2755,Right,0,71,80,654.5,0.489583,Eighth,B4
2756,Left,1,50,80,654.75,0.239583,Sixteenth,D3_B2
2759,Right,0,79,102,655.0,0.989583,Quarter,G5
2758,Left,1,40,80,655.0,0.239583,Sixteenth,E2
2760,Left,1,52,80,655.25,0.239583,Sixteenth,E3_C3
2762,Left,1,55,80,655.5,0.239583,Sixteenth,G3
2763,Left,1,48,80,655.75,0.239583,Sixteenth,E3_C3
2765,Right,0,76,80,656.0,0.239583,Sixteenth,E5
2766,Left,1,55,80,656.0,0.239583,Sixteenth,G3
2767,Left,1,52,80,656.25,0.239583,Sixteenth,E3_C3
2769,Right,0,72,80,656.25,0.239583,Sixteenth,C5
2771,Left,1,55,80,656.5,0.239583,Sixteenth,G3
2770,Right,0,79,102,656.5,0.989583,Quarter,G5
2772,Left,1,52,80,656.75,0.239583,Sixteenth,E3_C3
2774,Left,1,55,80,657.0,0.239583,Sixteenth,G3
2775,Left,1,52,80,657.25,0.239583,Sixteenth,E3_C3
2778,Right,0,76,80,657.5,0.239583,Sixteenth,E5
2777,Left,1,55,80,657.5,0.239583,Sixteenth,G3
2779,Left,1,52,80,657.75,0.239583,Sixteenth,E3_C3
2781,Right,0,72,80,657.75,0.239583,Sixteenth,C5
2783,Right,0,77,87,658.0,1.989583,Half,F5
2782,Left,1,43,80,658.0,0.239583,Sixteenth,G2
2784,Left,1,47,80,658.25,0.239583,Sixteenth,D3_B2
2786,Left,1,55,80,658.5,0.239583,Sixteenth,G3
2787,Left,1,50,80,658.75,0.239583,Sixteenth,D3_B2
2789,Left,1,55,80,659.0,0.239583,Sixteenth,G3
2790,Left,1,50,80,659.25,0.239583,Sixteenth,D3_B2
2792,Left,1,41,80,659.5,0.239583,Sixteenth,F2
2793,Left,1,50,80,659.75,0.239583,Sixteenth,D3_B2
2795,Left,1,55,80,660.0,0.239583,Sixteenth,G3
2796,Right,0,74,80,660.0,0.489583,Eighth,D5
2797,Left,1,50,80,660.25,0.239583,Sixteenth,D3_B2
2800,Left,1,55,80,660.5,0.239583,Sixteenth,G3
2799,Right,0,71,80,660.5,0.489583,Eighth,B4
2801,Left,1,47,80,660.75,0.239583,Sixteenth,D3_B2
2804,Right,0,79,104,661.0,0.989583,Quarter,G5
2803,Left,1,40,80,661.0,0.239583,Sixteenth,E2
2805,Left,1,52,80,661.25,0.239583,Sixteenth,E3_C3
2807,Left,1,55,80,661.5,0.239583,Sixteenth,G3
2808,Left,1,52,80,661.75,0.239583,Sixteenth,E3_C3
2810,Left,1,55,80,662.0,0.239583,Sixteenth,G3
2811,Right,0,76,80,662.0,0.239583,Sixteenth,E5
2813,Left,1,52,80,662.25,0.239583,Sixteenth,E3_C3
2812,Right,0,72,80,662.25,0.239583,Sixteenth,C5
2816,Right,0,79,101,662.5,0.989583,Quarter,G5
2815,Left,1,55,80,662.5,0.239583,Sixteenth,G3
2817,Left,1,52,80,662.75,0.239583,Sixteenth,E3_C3
2819,Left,1,55,80,663.0,0.239583,Sixteenth,G3
2820,Left,1,52,80,663.25,0.239583,Sixteenth,E3_C3
2822,Left,1,55,80,663.5,0.239583,Sixteenth,G3
2823,Right,0,76,80,663.5,0.239583,Sixteenth,E5
2825,Right,0,72,80,663.75,0.239583,Sixteenth,C5
2824,Left,1,48,80,663.75,0.239583,Sixteenth,E3_C3
2828,Right,0,77,80,664.0,1.989583,Half,F5
2827,Left,1,43,80,664.0,0.239583,Sixteenth,G2
2829,Left,1,47,80,664.25,0.239583,Sixteenth,D3_B2
2831,Left,1,55,80,664.5,0.239583,Sixteenth,G3
2832,Left,1,47,80,664.75,0.239583,Sixteenth,D3_B2
2834,Left,1,55,80,665.0,0.239583,Sixteenth,G3
2835,Left,1,47,80,665.25,0.239583,Sixteenth,D3_B2
2837,Left,1,41,80,665.5,0.239583,Sixteenth,F2
2838,Left,1,47,80,665.75,0.239583,Sixteenth,D3_B2
2840,Right,0,74,80,666.0,0.489583,Eighth,D5
2841,Left,1,55,80,666.0,0.239583,Sixteenth,G3
2842,Left,1,50,80,666.25,0.239583,Sixteenth,D3_B2
2845,Left,1,55,80,666.5,0.239583,Sixteenth,G3
2844,Right,0,71,80,666.5,0.489583,Eighth,B4
2846,Left,1,47,80,666.75,0.239583,Sixteenth,D3_B2
2848,Left,1,40,80,667.0,0.989583,Quarter,E2
2849,Right,0,79,80,667.0,0.489583,Eighth,G5
2850,Right,0,76,80,667.5,0.489583,Eighth,E5
2851,Left,1,59,80,668.0,0.489583,Eighth,B3
2852,Right,0,71,80,668.0,0.489583,Eighth,B4
2854,Left,1,60,80,668.5,0.489583,Eighth,C4
2853,Right,0,72,80,668.5,0.489583,Eighth,C5
2855,Left,1,64,80,669.0,0.489583,Eighth,E4
2856,Right,0,76,80,669.0,0.489583,Eighth,E5
2858,Left,1,56,80,669.5,0.489583,Eighth,G#3
2857,Right,0,68,80,669.5,0.489583,Eighth,G#4
2860,Left,1,57,80,670.0,0.489583,Eighth,A3
2859,Right,0,69,80,670.0,0.489583,Eighth,A4
2861,Right,0,72,80,670.5,0.489583,Eighth,C5
2862,Left,1,60,80,670.5,0.489583,Eighth,C4
2863,Right,0,64,80,671.0,0.489583,Eighth,E4
2864,Left,1,52,80,671.0,0.489583,Eighth,E3
2865,Left,1,53,80,671.5,0.489583,Eighth,F3
2866,Right,0,65,80,671.5,0.489583,Eighth,F4
2867,Left,1,57,80,672.0,0.489583,Eighth,A3
2868,Right,0,69,80,672.0,0.489583,Eighth,A4
2870,Right,0,61,80,672.5,0.489583,Eighth,C#4
2869,Left,1,49,80,672.5,0.489583,Eighth,C#3
2872,Right,0,62,80,673.0,0.489583,Eighth,D4
2871,Left,1,50,80,673.0,0.489583,Eighth,D3
2873,Right,0,65,80,673.5,0.489583,Eighth,F4
2874,Left,1,53,80,673.5,0.489583,Eighth,F3
2876,Left,1,52,80,674.0,0.489583,Eighth,E3
2875,Right,0,64,80,674.0,0.489583,Eighth,E4
2877,Right,0,62,80,674.5,0.489583,Eighth,D4
2878,Left,1,50,80,674.5,0.489583,Eighth,D3
2880,Right,0,64,80,675.0,0.489583,Eighth,E4
2879,Left,1,52,80,675.0,0.489583,Eighth,E3
2882,Right,0,65,80,675.5,0.489583,Eighth,F4
2881,Left,1,53,80,675.5,0.489583,Eighth,F3
2883,Left,1,55,80,676.0,0.489583,Eighth,G3
2884,Right,0,67,80,676.0,0.489583,Eighth,G4
2885,Right,0,66,80,676.5,0.489583,Eighth,F#4
2886,Left,1,54,80,676.5,0.489583,Eighth,F#3
2887,Right,0,67,80,677.0,0.489583,Eighth,G4
2888,Left,1,55,80,677.0,0.489583,Eighth,G3
2889,Right,0,55,80,677.5,0.489583,Eighth,G3
2890,Left,1,43,80,677.5,0.489583,Eighth,G2
2892,Right,0,57,80,678.0,0.489583,Eighth,A3
2891,Left,1,45,80,678.0,0.489583,Eighth,A2
2893,Left,1,47,80,678.5,0.489583,Eighth,B2
2894,Right,0,59,80,678.5,0.489583,Eighth,B3
2896,Left,1,48,80,679.0,0.989583,Quarter,C3
2895,Right,0,60,80,679.0,0.489583,Eighth,C4
2897,Right,0,64,80,679.5,0.489583,Eighth,E4
2898,Right,0,67,80,680.0,0.489583,Eighth,G4
2899,Right,0,72,80,680.5,0.489583,Eighth,C5
2900,Right,0,74,80,681.0,0.489583,Eighth,D5
2901,Right,0,76,80,681.5,0.489583,Eighth,E5
2903,Right,0,77,80,682.0,1.989583,Half,F5
2902,Left,1,43,80,682.0,0.239583,Sixteenth,G2
2904,Left,1,47,80,682.25,0.239583,Sixteenth,D3_B2
2906,Left,1,55,80,682.5,0.239583,Sixteenth,G3
2907,Left,1,47,80,682.75,0.239583,Sixteenth,D3_B2
2909,Left,1,55,80,683.0,0.239583,Sixteenth,G3
2910,Left,1,47,80,683.25,0.239583,Sixteenth,D3_B2
2912,Left,1,41,80,683.5,0.239583,Sixteenth,F2
2913,Left,1,50,80,683.75,0.239583,Sixteenth,D3_B2
2915,Right,0,74,80,684.0,0.489583,Eighth,D5
2916,Left,1,55,80,684.0,0.239583,Sixteenth,G3
2917,Left,1,50,80,684.25,0.239583,Sixteenth,D3_B2
2919,Right,0,71,80,684.5,0.489583,Eighth,B4
2920,Left,1,55,80,684.5,0.239583,Sixteenth,G3
2921,Left,1,50,80,684.75,0.239583,Sixteenth,D3_B2
2924,Right,0,79,103,685.0,0.989583,Quarter,G5
2923,Left,1,39,80,685.0,0.239583,Sixteenth,D#2
2925,Left,1,48,80,685.25,0.239583,Sixteenth,D#3_C3
2927,Left,1,55,80,685.5,0.239583,Sixteenth,G3
2928,Left,1,51,80,685.75,0.239583,Sixteenth,D#3_C3
2931,Right,0,75,80,686.0,0.239583,Sixteenth,D#5
2930,Left,1,55,80,686.0,0.239583,Sixteenth,G3
2933,Right,0,72,80,686.25,0.239583,Sixteenth,C5
2932,Left,1,48,80,686.25,0.239583,Sixteenth,D#3_C3
2935,Right,0,79,103,686.5,0.989583,Quarter,G5
2936,Left,1,55,80,686.5,0.239583,Sixteenth,G3
2937,Left,1,48,80,686.75,0.239583,Sixteenth,D#3_C3
2939,Left,1,55,80,687.0,0.239583,Sixteenth,G3
2940,Left,1,48,80,687.25,0.239583,Sixteenth,D#3_C3
2942,Left,1,55,80,687.5,0.239583,Sixteenth,G3
2943,Right,0,75,80,687.5,0.239583,Sixteenth,D#5
2945,Left,1,48,80,687.75,0.239583,Sixteenth,D#3_C3
2944,Right,0,72,80,687.75,0.239583,Sixteenth,C5
2947,Left,1,43,80,688.0,0.239583,Sixteenth,G2
2948,Right,0,77,80,688.0,1.989583,Half,F5
2949,Left,1,47,80,688.25,0.239583,Sixteenth,D3_B2
2951,Left,1,55,80,688.5,0.239583,Sixteenth,G3
2952,Left,1,50,80,688.75,0.239583,Sixteenth,D3_B2
2954,Left,1,55,80,689.0,0.239583,Sixteenth,G3
2955,Left,1,50,80,689.25,0.239583,Sixteenth,D3_B2
2957,Left,1,41,80,689.5,0.239583,Sixteenth,F2
2958,Left,1,47,80,689.75,0.239583,Sixteenth,D3_B2
2961,Left,1,55,80,690.0,0.239583,Sixteenth,G3
2960,Right,0,74,80,690.0,0.489583,Eighth,D5
2962,Left,1,47,80,690.25,0.239583,Sixteenth,D3_B2
2965,Left,1,55,80,690.5,0.239583,Sixteenth,G3
2964,Right,0,71,80,690.5,0.489583,Eighth,B4
2966,Left,1,47,80,690.75,0.239583,Sixteenth,D3_B2
2968,Left,1,40,80,691.0,0.239583,Sixteenth,E2
2969,Right,0,79,103,691.0,0.989583,Quarter,G5
2970,Left,1,48,80,691.25,0.239583,Sixteenth,D#3_C3
2972,Left,1,55,80,691.5,0.239583,Sixteenth,G3
2973,Left,1,51,80,691.75,0.239583,Sixteenth,D#3_C3
2975,Right,0,75,80,692.0,0.239583,Sixteenth,D#5
2976,Left,1,55,80,692.0,0.239583,Sixteenth,G3
2979,Right,0,72,80,692.25,0.239583,Sixteenth,C5
2977,Left,1,48,80,692.25,0.239583,Sixteenth,D#3_C3
2981,Right,0,79,100,692.5,0.989583,Quarter,G5
2980,Left,1,55,80,692.5,0.239583,Sixteenth,G3
2982,Left,1,51,80,692.75,0.239583,Sixteenth,D#3_C3
2984,Left,1,55,80,693.0,0.239583,Sixteenth,G3
2985,Left,1,51,80,693.25,0.239583,Sixteenth,D#3_C3
2987,Right,0,75,80,693.5,0.239583,Sixteenth,D#5
2988,Left,1,55,80,693.5,0.239583,Sixteenth,G3
2990,Right,0,72,80,693.75,0.239583,Sixteenth,C5
2989,Left,1,51,80,693.75,0.239583,Sixteenth,D#3_C3
2993,Right,0,80,80,694.0,1.989583,Half,G#5
2992,Left,1,46,80,694.0,0.239583,Sixteenth,A#2
2994,Left,1,50,80,694.25,0.239583,Sixteenth,F3_D3
2996,Left,1,58,80,694.5,0.239583,Sixteenth,A#3
2997,Left,1,50,80,694.75,0.239583,Sixteenth,F3_D3
2999,Left,1,58,80,695.0,0.239583,Sixteenth,A#3
3000,Left,1,53,80,695.25,0.239583,Sixteenth,F3_D3
3002,Left,1,44,80,695.5,0.239583,Sixteenth,G#2
3003,Left,1,53,80,695.75,0.239583,Sixteenth,F3_D3
3005,Left,1,58,80,696.0,0.239583,Sixteenth,A#3
3006,Right,0,77,80,696.0,0.489583,Eighth,F5
3007,Left,1,53,80,696.25,0.239583,Sixteenth,F3_D3
3010,Right,0,74,80,696.5,0.489583,Eighth,D5
3009,Left,1,58,80,696.5,0.239583,Sixteenth,A#3
3011,Left,1,53,80,696.75,0.239583,Sixteenth,F3_D3
3013,Right,0,82,101,697.0,0.989583,Quarter,A#5
3014,Left,1,43,80,697.0,0.239583,Sixteenth,G2
3015,Left,1,51,80,697.25,0.239583,Sixteenth,G3_D#3
3017,Left,1,58,80,697.5,0.239583,Sixteenth,A#3
3018,Left,1,51,80,697.75,0.239583,Sixteenth,G3_D#3
3020,Left,1,58,80,698.0,0.239583,Sixteenth,A#3
3021,Right,0,79,80,698.0,0.239583,Sixteenth,G5
3023,Right,0,75,80,698.25,0.239583,Sixteenth,D#5
3022,Left,1,51,80,698.25,0.239583,Sixteenth,G3_D#3
3026,Right,0,82,101,698.5,0.989583,Quarter,A#5
3025,Left,1,58,80,698.5,0.239583,Sixteenth,A#3
3027,Left,1,51,80,698.75,0.239583,Sixteenth,G3_D#3
3029,Left,1,58,80,699.0,0.239583,Sixteenth,A#3
3030,Left,1,55,80,699.25,0.239583,Sixteenth,G3_D#3
3033,Right,0,79,80,699.5,0.239583,Sixteenth,G5
3032,Left,1,58,80,699.5,0.239583,Sixteenth,A#3
3034,Left,1,51,80,699.75,0.239583,Sixteenth,G3_D#3
3035,Right,0,75,80,699.75,0.239583,Sixteenth,D#5
3038,Right,0,80,80,700.0,1.989583,Half,G#5
3037,Left,1,46,80,700.0,0.239583,Sixteenth,A#2
3039,Left,1,53,80,700.25,0.239583,Sixteenth,F3_D3
3041,Left,1,58,80,700.5,0.239583,Sixteenth,A#3
3042,Left,1,53,80,700.75,0.239583,Sixteenth,F3_D3
3044,Left,1,58,80,701.0,0.239583,Sixteenth,A#3
3045,Left,1,53,80,701.25,0.239583,Sixteenth,F3_D3
3047,Left,1,44,80,701.5,0.239583,Sixteenth,G#2
3048,Left,1,53,80,701.75,0.239583,Sixteenth,F3_D3
3050,Left,1,58,80,702.0,0.239583,Sixteenth,A#3
3051,Right,0,77,80,702.0,0.489583,Eighth,F5
3052,Left,1,50,80,702.25,0.239583,Sixteenth,F3_D3
3055,Left,1,58,80,702.5,0.239583,Sixteenth,A#3
3054,Right,0,74,80,702.5,0.489583,Eighth,D5
3056,Left,1,50,80,702.75,0.239583,Sixteenth,F3_D3
3058,Right,0,82,80,703.0,0.489583,Eighth,A#5
3059,Left,1,43,80,703.0,0.989583,Quarter,G2
3060,Right,0,79,80,703.5,0.489583,Eighth,G5
3062,Right,0,74,80,704.0,0.489583,Eighth,D5
3061,Left,1,62,80,704.0,0.489583,Eighth,D4
3063,Right,0,75,80,704.5,0.489583,Eighth,D#5
3064,Left,1,63,80,704.5,0.489583,Eighth,D#4
3066,Right,0,79,80,705.0,0.489583,Eighth,G5
3065,Left,1,67,80,705.0,0.489583,Eighth,G4
3067,Right,0,71,80,705.5,0.489583,Eighth,B4
3068,Left,1,59,80,705.5,0.489583,Eighth,B3
3070,Right,0,72,80,706.0,0.489583,Eighth,C5
3069,Left,1,60,80,706.0,0.489583,Eighth,C4
3071,Right,0,75,80,706.5,0.489583,Eighth,D#5
3072,Left,1,63,80,706.5,0.489583,Eighth,D#4
3073,Right,0,67,80,707.0,0.489583,Eighth,G4
3074,Left,1,55,80,707.0,0.489583,Eighth,G3
3075,Right,0,68,80,707.5,0.489583,Eighth,G#4
3076,Left,1,56,80,707.5,0.489583,Eighth,G#3
3078,Left,1,60,80,708.0,0.489583,Eighth,C4
3077,Right,0,72,80,708.0,0.489583,Eighth,C5
3079,Right,0,64,80,708.5,0.489583,Eighth,E4
3080,Left,1,52,80,708.5,0.489583,Eighth,E3
3081,Left,1,53,80,709.0,0.989583,Quarter,F3
3082,Right,0,65,80,709.0,0.489583,Eighth,F4
3083,Right,0,84,80,709.5,0.489583,Eighth,C6
3084,Left,1,64,80,710.0,0.489583,Eighth,E4
3085,Right,0,76,80,710.0,0.489583,Eighth,E5
3086,Left,1,65,80,710.5,0.489583,Eighth,F4
3087,Right,0,77,80,710.5,0.489583,Eighth,F5
3089,Left,1,68,80,711.0,0.489583,Eighth,G#4
3088,Right,0,80,80,711.0,0.489583,Eighth,G#5
3090,Left,1,61,80,711.5,0.489583,Eighth,C#4
3091,Right,0,73,80,711.5,0.489583,Eighth,C#5
3092,Left,1,62,80,712.0,0.489583,Eighth,D4
3093,Right,0,74,80,712.0,0.489583,Eighth,D5
3095,Left,1,65,80,712.5,0.489583,Eighth,F4
3094,Right,0,77,80,712.5,0.489583,Eighth,F5
3096,Left,1,57,80,713.0,0.489583,Eighth,A3
3097,Right,0,69,80,713.0,0.489583,Eighth,A4
3098,Left,1,58,80,713.5,0.489583,Eighth,A#3
3099,Right,0,70,80,713.5,0.489583,Eighth,A#4
3100,Left,1,62,80,714.0,0.489583,Eighth,D4
3101,Right,0,74,80,714.0,0.489583,Eighth,D5
3103,Left,1,54,80,714.5,0.489583,Eighth,F#3
3102,Right,0,66,80,714.5,0.489583,Eighth,F#4
3105,Left,1,55,80,715.0,0.989583,Quarter,G3
3104,Right,0,67,80,715.0,0.489583,Eighth,G4
3106,Right,0,86,80,715.5,0.489583,Eighth,D6
3107,Left,1,66,80,716.0,0.489583,Eighth,F#4
3108,Right,0,78,80,716.0,0.489583,Eighth,F#5
3109,Left,1,67,80,716.5,0.489583,Eighth,G4
3110,Right,0,79,80,716.5,0.489583,Eighth,G5
3112,Left,1,70,80,717.0,0.489583,Eighth,A#4
3111,Right,0,82,80,717.0,0.489583,Eighth,A#5
3114,Left,1,62,80,717.5,0.489583,Eighth,D4
3113,Right,0,74,80,717.5,0.489583,Eighth,D5
3115,Left,1,63,80,718.0,0.489583,Eighth,D#4
3116,Right,0,75,80,718.0,0.489583,Eighth,D#5
3118,Right,0,79,80,718.5,0.489583,Eighth,G5
3117,Left,1,67,80,718.5,0.489583,Eighth,G4
3119,Left,1,59,80,719.0,0.489583,Eighth,B3
3120,Right,0,71,80,719.0,0.489583,Eighth,B4
3121,Left,1,60,80,719.5,0.489583,Eighth,C4
3122,Right,0,72,80,719.5,0.489583,Eighth,C5
3123,Left,1,63,80,720.0,0.489583,Eighth,D#4
3124,Right,0,75,80,720.0,0.489583,Eighth,D#5
3125,Left,1,55,80,720.5,0.489583,Eighth,G3
3126,Right,0,67,80,720.5,0.489583,Eighth,G4
3127,Left,1,56,80,721.0,0.489583,Eighth,G#3
3128,Right,0,68,80,721.0,0.489583,Eighth,G#4
3130,Left,1,60,80,721.5,0.489583,Eighth,C4
3129,Right,0,72,80,721.5,0.489583,Eighth,C5
3131,Left,1,52,80,722.0,0.489583,Eighth,E3
3132,Right,0,64,80,722.0,0.489583,Eighth,E4
3133,Right,0,65,80,722.5,0.489583,Eighth,F4
3134,Left,1,53,80,722.5,0.489583,Eighth,F3
3135,Right,0,68,80,723.0,0.489583,Eighth,G#4
3136,Left,1,56,80,723.0,0.489583,Eighth,G#3
3137,Right,0,61,80,723.5,0.489583,Eighth,C#4
3138,Left,1,49,80,723.5,0.489583,Eighth,C#3
3139,Right,0,62,80,724.0,0.489583,Eighth,D4
3140,Left,1,50,80,724.0,0.489583,Eighth,D3
3142,Right,0,65,80,724.5,0.489583,Eighth,F4
3141,Left,1,53,80,724.5,0.489583,Eighth,F3
3144,Left,1,46,80,725.0,0.489583,Eighth,A#2
3143,Right,0,58,80,725.0,0.489583,Eighth,A#3
3145,Left,1,47,80,725.5,0.489583,Eighth,B2
3146,Right,0,59,80,725.5,0.489583,Eighth,B3
3147,Left,1,50,80,726.0,0.489583,Eighth,D3
3148,Right,0,62,80,726.0,0.489583,Eighth,D4
3149,Right,0,54,80,726.5,0.489583,Eighth,F#3
3150,Left,1,42,80,726.5,0.489583,Eighth,F#2
3151,Right,0,55,80,727.0,0.489583,Eighth,G3
3152,Left,1,43,80,727.0,0.489583,Eighth,G2
3154,Right,0,59,80,727.5,0.489583,Eighth,B3
3153,Left,1,47,80,727.5,0.489583,Eighth,B2
3155,Right,0,50,80,728.0,0.489583,Eighth,D3
3156,Left,1,38,80,728.0,0.489583,Eighth,D2
3157,Left,1,39,80,728.5,0.489583,Eighth,D#2
3158,Right,0,51,80,728.5,0.489583,Eighth,D#3
3160,Left,1,43,80,729.0,0.489583,Eighth,G2
3159,Right,0,55,80,729.0,0.489583,Eighth,G3
3162,Right,0,47,80,729.5,0.489583,Eighth,B2
3161,Left,1,35,80,729.5,0.489583,Eighth,B1
3163,Right,0,48,100,730.0,0.489583,Eighth,C3
3164,Left,1,36,100,730.0,0.489583,Eighth,C2
3166,Left,1,39,100,730.5,0.489583,Eighth,D#2
3165,Right,0,51,100,730.5,0.489583,Eighth,D#3
3168,Left,1,31,100,731.0,0.489583,Eighth,G1
3167,Right,0,43,100,731.0,0.489583,Eighth,G2
3169,Left,1,32,100,731.5,0.489583,Eighth,G#1
3170,Right,0,44,100,731.5,0.489583,Eighth,G#2
3171,Left,1,36,100,732.0,0.489583,Eighth,C2
3172,Right,0,48,100,732.0,0.489583,Eighth,C3
3173,Right,0,42,100,732.5,0.489583,Eighth,F#2
3174,Left,1,30,100,732.5,0.489583,Eighth,F#1
3176,Right,0,43,80,733.0,0.489583,Eighth,G2
3175,Left,1,31,104,733.0,5.989583,Unknown,G1
3177,Right,0,47,80,733.5,0.489583,Eighth,B2
3178,Right,0,50,80,734.0,0.489583,Eighth,D3
3179,Left,1,41,80,734.5,1.489583,DottedQuarter,F2
3180,Right,0,55,80,734.5,0.489583,Eighth,G3
3181,Right,0,57,80,735.0,0.489583,Eighth,A3
3182,Right,0,59,80,735.5,0.489583,Eighth,B3
3184,Left,1,39,80,736.0,1.489583,DottedQuarter,D#2
3183,Right,0,60,80,736.0,0.489583,Eighth,C4
3185,Right,0,55,80,736.5,0.489583,Eighth,G3
3186,Right,0,62,80,737.0,0.489583,Eighth,D4
3187,Right,0,63,80,737.5,0.489583,Eighth,D#4
3188,Left,1,36,80,737.5,1.489583,DottedQuarter,C2
3189,Right,0,55,80,738.0,0.489583,Eighth,G3
3190,Right,0,66,80,738.5,0.489583,Eighth,F#4
3191,Right,0,67,80,739.0,5.989583,DottedQuarter,G4_G3
3192,Left,1,31,80,739.0,0.489583,Eighth,G1
3194,Left,1,35,80,739.5,0.489583,Eighth,B1
3195,Left,1,38,80,740.0,0.489583,Eighth,D2
3196,Right,0,65,80,740.5,1.489583,DottedQuarter,F4
3197,Left,1,43,80,740.5,0.489583,Eighth,G2
3198,Left,1,45,80,741.0,0.489583,Eighth,A2
3199,Left,1,47,80,741.5,0.489583,Eighth,B2
3200,Left,1,48,80,742.0,0.489583,Eighth,C3
3201,Right,0,63,80,742.0,1.489583,DottedQuarter,D#4
3202,Left,1,43,80,742.5,0.489583,Eighth,G2
3203,Left,1,50,80,743.0,0.489583,Eighth,D3
3204,Right,0,60,80,743.5,1.489583,DottedQuarter,C4
3205,Left,1,51,80,743.5,0.489583,Eighth,D#3
3206,Left,1,43,80,744.0,0.489583,Eighth,G2
3207,Left,1,54,80,744.5,0.489583,Eighth,F#3
3208,Left,1,43,105,745.0,5.989583,Unknown,G3_G2
3210,Right,0,59,80,745.5,0.489583,Eighth,B3
3211,Right,0,62,80,746.0,0.489583,Eighth,D4
3213,Left,1,53,80,746.5,1.489583,DottedQuarter,F3
3212,Right,0,67,80,746.5,0.489583,Eighth,G4
3214,Right,0,69,80,747.0,0.489583,Eighth,A4
3215,Right,0,71,80,747.5,0.489583,Eighth,B4
3216,Left,1,51,80,748.0,1.489583,DottedQuarter,D#3
3217,Right,0,72,80,748.0,0.489583,Eighth,C5
3218,Right,0,67,80,748.5,0.489583,Eighth,G4
3219,Right,0,74,80,749.0,0.489583,Eighth,D5
3220,Left,1,48,80,749.5,1.489583,DottedQuarter,C3
3221,Right,0,75,80,749.5,0.489583,Eighth,D#5
3222,Right,0,67,80,750.0,0.489583,Eighth,G4
3223,Right,0,78,80,750.5,0.489583,Eighth,F#5
3226,Left,1,43,80,751.0,0.489583,Eighth,G2
3224,Right,0,79,80,751.0,5.989583,DottedQuarter,G5_G4
3227,Left,1,47,80,751.5,0.489583,Eighth,B2
3228,Left,1,50,80,752.0,0.489583,Eighth,D3
3229,Right,0,77,80,752.5,1.489583,DottedQuarter,F5
3230,Left,1,55,80,752.5,0.489583,Eighth,G3
3231,Left,1,57,80,753.0,0.489583,Eighth,A3
3232,Left,1,59,80,753.5,0.489583,Eighth,B3
3233,Right,0,75,80,754.0,1.489583,DottedQuarter,D#5
3234,Left,1,60,80,754.0,0.489583,Eighth,C4
3235,Left,1,55,80,754.5,0.489583,Eighth,G3
3236,Left,1,62,80,755.0,0.489583,Eighth,D4
3237,Right,0,72,80,755.5,1.489583,DottedQuarter,C5
3238,Left,1,63,80,755.5,0.489583,Eighth,D#4
3239,Left,1,55,80,756.0,0.489583,Eighth,G3
3240,Left,1,66,80,756.5,0.489583,Eighth,F#4
3242,Right,0,71,80,757.0,0.489583,Eighth,B4
3241,Left,1,67,80,757.0,0.489583,Eighth,G4
3243,Right,0,54,80,757.5,0.489583,Eighth,F#3
3244,Right,0,55,80,758.0,0.489583,Eighth,G3
3245,Right,0,57,80,758.5,0.489583,Eighth,A3
3246,Right,0,59,80,759.0,0.489583,Eighth,B3
3247,Right,0,60,80,759.5,0.489583,Eighth,C4
3248,Right,0,62,80,760.0,0.489583,Eighth,D4
3249,Right,0,64,80,760.5,0.489583,Eighth,E4
3250,Right,0,66,80,761.0,0.489583,Eighth,F#4
3251,Right,0,67,80,761.5,0.489583,Eighth,G4
3252,Right,0,69,80,762.0,0.489583,Eighth,A4
3253,Right,0,71,80,762.5,0.489583,Eighth,B4
3255,Right,0,59,80,763.0,0.489583,Eighth,B3
3254,Left,1,55,80,763.0,0.489583,Eighth,G3
3256,Right,0,57,80,763.5,0.489583,Eighth,A3
3257,Left,1,54,80,763.5,0.489583,Eighth,F#3
3258,Right,0,59,80,764.0,0.489583,Eighth,B3
3259,Left,1,55,80,764.0,0.489583,Eighth,G3
3261,Right,0,60,80,764.5,0.489583,Eighth,C4
3260,Left,1,57,80,764.5,0.489583,Eighth,A3
3262,Left,1,59,80,765.0,0.489583,Eighth,B3
3263,Right,0,62,80,765.0,0.489583,Eighth,D4
3264,Right,0,64,80,765.5,0.489583,Eighth,E4
3265,Left,1,60,80,765.5,0.489583,Eighth,C4
3267,Right,0,66,80,766.0,0.489583,Eighth,F#4
3266,Left,1,62,80,766.0,0.489583,Eighth,D4
3269,Left,1,64,80,766.5,0.489583,Eighth,E4
3268,Right,0,67,80,766.5,0.489583,Eighth,G4
3271,Left,1,66,80,767.0,0.489583,Eighth,F#4
3270,Right,0,69,80,767.0,0.489583,Eighth,A4
3272,Left,1,67,80,767.5,0.489583,Eighth,G4
3273,Right,0,71,80,767.5,0.489583,Eighth,B4
3275,Right,0,72,80,768.0,0.489583,Eighth,C5
3274,Left,1,69,80,768.0,0.489583,Eighth,A4
3276,Left,1,71,80,768.5,0.489583,Eighth,B4
3277,Right,0,74,80,768.5,0.489583,Eighth,D5
3278,Left,1,59,80,769.0,0.489583,Eighth,B3
3279,Right,0,62,80,769.0,0.489583,Eighth,G4_D4
3281,Left,1,57,80,769.5,0.489583,Eighth,A3
3282,Right,0,60,80,769.5,0.489583,Eighth,F#4_C4
3285,Right,0,67,80,770.0,0.489583,Eighth,G4_D4
3284,Left,1,59,80,770.0,0.489583,Eighth,B3
3287,Right,0,69,80,770.5,0.489583,Eighth,E4_C4_A4
3290,Right,0,71,80,771.0,0.489583,Eighth,F4_D4_B4
3293,Right,0,72,80,771.5,0.489583,Eighth,G4_E4_C5
3296,Right,0,74,80,772.0,0.489583,Eighth,F4_D5_A4
3299,Right,0,67,80,772.5,0.489583,Eighth,G4_E5_B4
3302,Right,0,77,80,773.0,0.489583,Eighth,F5_C5_A4
3305,Right,0,79,80,773.5,0.489583,Eighth,G5_D5_B4
3308,Right,0,84,80,774.0,0.489583,Eighth,E5_C6_C5_A5
3312,Right,0,77,80,774.5,0.489583,Eighth,F5_D5_B5
3318,Right,0,84,110,775.0,0.239583,Sixteenth,C6
3315,Left,1,55,120,775.0,0.489583,Eighth,G3_E3_C4
3319,Right,0,86,110,775.125,0.239583,Sixteenth,D6
3320,Right,0,84,110,775.25,0.239583,Sixteenth,C6
3321,Right,0,86,110,775.375,0.239583,Sixteenth,D6
3323,Left,1,53,120,775.5,0.489583,Eighth,F3_D3_B3
3322,Right,0,84,110,775.5,0.239583,Sixteenth,C6
3326,Right,0,86,110,775.625,0.239583,Sixteenth,D6
3327,Right,0,84,110,775.75,0.239583,Sixteenth,C6
3328,Right,0,86,110,775.875,0.239583,Sixteenth,D6
3331,Right,0,84,110,776.0,0.239583,Sixteenth,C6
3329,Left,1,52,120,776.0,0.489583,Eighth,G3_E3_C4
3333,Right,0,86,110,776.125,0.239583,Sixteenth,D6
3334,Right,0,84,110,776.25,0.239583,Sixteenth,C6
3335,Right,0,86,110,776.375,0.239583,Sixteenth,D6
3336,Left,1,62,120,776.5,0.489583,Eighth,F3_D4_A3
3338,Right,0,84,110,776.5,0.239583,Sixteenth,C6
3340,Right,0,86,110,776.625,0.239583,Sixteenth,D6
3341,Right,0,84,110,776.75,0.239583,Sixteenth,C6
3342,Right,0,86,110,776.875,0.239583,Sixteenth,D6
3344,Right,0,84,110,777.0,0.239583,Sixteenth,C6
3343,Left,1,59,120,777.0,0.489583,Eighth,G3_E4_B3
3347,Right,0,86,110,777.125,0.239583,Sixteenth,D6
3348,Right,0,84,110,777.25,0.239583,Sixteenth,C6
3349,Right,0,86,110,777.375,0.239583,Sixteenth,D6
3350,Left,1,65,120,777.5,0.489583,Eighth,F4_C4_A3
3353,Right,0,84,110,777.5,0.239583,Sixteenth,C6
3354,Right,0,86,110,777.625,0.239583,Sixteenth,D6
3355,Right,0,84,110,777.75,0.239583,Sixteenth,C6
3356,Right,0,86,110,777.875,0.239583,Sixteenth,D6
3358,Left,1,59,120,778.0,0.489583,Eighth,G4_D4_B3
3357,Right,0,84,110,778.0,0.239583,Sixteenth,C6
3361,Right,0,86,110,778.125,0.239583,Sixteenth,D6
3362,Right,0,84,110,778.25,0.239583,Sixteenth,C6
3363,Right,0,86,110,778.375,0.239583,Sixteenth,D6
3367,Right,0,84,110,778.5,0.239583,Sixteenth,C6
3364,Left,1,69,120,778.5,0.489583,Eighth,E4_C4_A4
3368,Right,0,86,110,778.625,0.239583,Sixteenth,D6
3369,Right,0,84,110,778.75,0.239583,Sixteenth,C6
3370,Right,0,86,110,778.875,0.239583,Sixteenth,D6
3371,Right,0,84,110,779.0,0.239583,Sixteenth,C6
3372,Left,1,62,120,779.0,0.489583,Eighth,F4_D4_B4
3375,Right,0,86,110,779.125,0.239583,Sixteenth,D6
3376,Right,0,84,110,779.25,0.239583,Sixteenth,C6
3377,Right,0,86,110,779.375,0.239583,Sixteenth,D6
3378,Left,1,64,120,779.5,0.489583,Eighth,G4_E4_C5
3381,Right,0,84,110,779.5,0.239583,Sixteenth,C6
3382,Right,0,86,110,779.625,0.239583,Sixteenth,D6
3383,Right,0,84,110,779.75,0.239583,Sixteenth,C6
3384,Right,0,86,110,779.875,0.239583,Sixteenth,D6
3385,Left,1,65,120,780.0,0.489583,Eighth,F4_D5_A4
3387,Right,0,84,110,780.0,0.239583,Sixteenth,C6
3389,Right,0,86,110,780.125,0.239583,Sixteenth,D6
3390,Right,0,84,110,780.25,0.239583,Sixteenth,C6
3391,Right,0,86,110,780.375,0.239583,Sixteenth,D6
3394,Right,0,84,110,780.5,0.239583,Sixteenth,C6
3392,Left,1,72,120,780.5,0.489583,Eighth,E5_C5
3395,Right,0,86,110,780.625,0.239583,Sixteenth,D6
3396,Right,0,84,110,780.75,0.239583,Sixteenth,C6
3397,Right,0,86,110,780.875,0.239583,Sixteenth,D6
3398,Left,1,77,120,781.0,0.989583,Quarter,F5_C5_A4
3401,Right,0,84,110,781.0,0.239583,Sixteenth,C6
3402,Right,0,86,110,781.125,0.239583,Sixteenth,D6
3403,Right,0,84,110,781.25,0.239583,Sixteenth,C6
3404,Right,0,86,110,781.375,0.239583,Sixteenth,D6
3405,Right,0,84,110,781.5,0.239583,Sixteenth,C6
3406,Right,0,86,110,781.625,0.239583,Sixteenth,D6
3407,Right,0,84,110,781.75,0.239583,Sixteenth,C6
3408,Right,0,86,110,781.875,0.239583,Sixteenth,D6
3409,Left,1,76,120,782.0,0.489583,Eighth,G4_E5_C5
3410,Right,0,84,110,782.0,0.239583,Sixteenth,C6
3413,Right,0,86,110,782.125,0.239583,Sixteenth,D6
3414,Right,0,84,110,782.25,0.239583,Sixteenth,C6
3415,Right,0,86,110,782.375,0.239583,Sixteenth,D6
3416,Right,0,84,110,782.5,0.239583,Sixteenth,C6
3417,Left,1,69,120,782.5,0.989583,Quarter,F5_C5_A4
3420,Right,0,86,110,782.625,0.239583,Sixteenth,D6
3421,Right,0,84,110,782.75,0.239583,Sixteenth,C6
3422,Right,0,86,110,782.875,0.239583,Sixteenth,D6
3423,Right,0,84,110,783.0,0.239583,Sixteenth,C6
3424,Right,0,86,110,783.125,0.239583,Sixteenth,D6
3425,Right,0,84,110,783.25,0.239583,Sixteenth,C6
3426,Right,0,86,110,783.375,0.239583,Sixteenth,D6
3427,Left,1,76,120,783.5,0.489583,Eighth,G4_E5_C5
3429,Right,0,84,110,783.5,0.239583,Sixteenth,C6
3431,Right,0,86,110,783.625,0.239583,Sixteenth,D6
3432,Right,0,84,110,783.75,0.239583,Sixteenth,C6
3433,Right,0,86,110,783.875,0.239583,Sixteenth,D6
3434,Left,1,74,120,784.0,0.989583,Quarter,G4_D5_C5
3437,Right,0,84,110,784.0,0.239583,Sixteenth,C6
3438,Right,0,86,110,784.125,0.239583,Sixteenth,D6
3439,Right,0,84,110,784.25,0.239583,Sixteenth,C6
3440,Right,0,86,110,784.375,0.239583,Sixteenth,D6
3441,Right,0,84,110,784.5,0.239583,Sixteenth,C6
3442,Right,0,86,110,784.625,0.239583,Sixteenth,D6
3443,Right,0,84,110,784.75,0.239583,Sixteenth,C6
3444,Right,0,86,110,784.875,0.239583,Sixteenth,D6
3445,Right,0,84,110,785.0,0.239583,Sixteenth,C6
3446,Right,0,86,110,785.125,0.239583,Sixteenth,D6
3447,Right,0,84,110,785.25,0.239583,Sixteenth,C6
3448,Right,0,86,110,785.375,0.239583,Sixteenth,D6
3449,Right,0,84,110,785.5,0.239583,Sixteenth,C6
3450,Right,0,86,110,785.625,0.239583,Sixteenth,D6
3451,Right,0,84,110,785.75,0.239583,Sixteenth,C6
3452,Right,0,86,110,785.875,0.239583,Sixteenth,D6
3453,Right,0,84,110,786.0,0.239583,Sixteenth,C6
3454,Right,0,86,110,786.125,0.239583,Sixteenth,D6
3455,Right,0,84,110,786.25,0.239583,Sixteenth,C6
3456,Right,0,86,110,786.375,0.239583,Sixteenth,D6
3457,Right,0,84,110,786.5,0.239583,Sixteenth,C6
3458,Right,0,86,110,786.625,0.239583,Sixteenth,D6
3459,Right,0,84,110,786.75,0.239583,Sixteenth,C6
3460,Right,0,86,110,786.875,0.239583,Sixteenth,D6
3461,Left,1,67,120,787.0,0.989583,Quarter,G4_E5_C5
3464,Right,0,84,110,787.0,0.239583,Sixteenth,C6
3465,Right,0,86,110,787.125,0.239583,Sixteenth,D6
3466,Right,0,84,110,787.25,0.239583,Sixteenth,C6
3467,Right,0,86,110,787.375,0.239583,Sixteenth,D6
3468,Right,0,84,110,787.5,0.239583,Sixteenth,C6
3469,Right,0,86,110,787.625,0.239583,Sixteenth,D6
3470,Right,0,84,110,787.75,0.239583,Sixteenth,C6
3471,Right,0,86,110,787.875,0.239583,Sixteenth,D6
3472,Left,1,65,120,788.0,0.489583,Eighth,F4_D5_C5
3475,Right,0,84,110,788.0,0.239583,Sixteenth,C6
3476,Right,0,86,110,788.125,0.239583,Sixteenth,D6
3477,Right,0,84,110,788.25,0.239583,Sixteenth,C6
3478,Right,0,86,110,788.375,0.239583,Sixteenth,D6
3482,Right,0,84,110,788.5,0.239583,Sixteenth,C6
3479,Left,1,76,120,788.5,0.989583,Quarter,G4_E5_C5
3483,Right,0,86,110,788.625,0.239583,Sixteenth,D6
3484,Right,0,84,110,788.75,0.239583,Sixteenth,C6
3485,Right,0,86,110,788.875,0.239583,Sixteenth,D6
3486,Right,0,84,110,789.0,0.239583,Sixteenth,C6
3487,Right,0,86,110,789.125,0.239583,Sixteenth,D6
3488,Right,0,84,110,789.25,0.239583,Sixteenth,C6
3489,Right,0,86,110,789.375,0.239583,Sixteenth,D6
3493,Right,0,84,110,789.5,0.239583,Sixteenth,C6
3490,Left,1,65,120,789.5,0.489583,Eighth,F4_D5_C5
3494,Right,0,86,110,789.625,0.239583,Sixteenth,D6
3495,Right,0,84,110,789.75,0.239583,Sixteenth,C6
3496,Right,0,86,110,789.875,0.239583,Sixteenth,D6
3499,Right,0,84,110,790.0,0.239583,Sixteenth,C6
3497,Left,1,64,120,790.0,0.989583,Quarter,E4_C5
3500,Right,0,86,110,790.125,0.239583,Sixteenth,D6
3501,Right,0,84,110,790.25,0.239583,Sixteenth,C6
3502,Right,0,86,110,790.375,0.239583,Sixteenth,D6
3503,Right,0,84,110,790.5,0.239583,Sixteenth,C6
3504,Right,0,86,110,790.625,0.239583,Sixteenth,D6
3505,Right,0,84,110,790.75,0.239583,Sixteenth,C6
3506,Right,0,86,110,790.875,0.239583,Sixteenth,D6
3507,Right,0,84,110,791.0,0.239583,Sixteenth,C6
3508,Right,0,86,110,791.125,0.239583,Sixteenth,D6
3509,Right,0,84,110,791.25,0.239583,Sixteenth,C6
3510,Right,0,86,110,791.375,0.239583,Sixteenth,D6
3511,Right,0,84,110,791.5,0.239583,Sixteenth,C6
3512,Right,0,86,110,791.625,0.239583,Sixteenth,D6
3513,Right,0,84,110,791.75,0.239583,Sixteenth,C6
3514,Right,0,86,110,791.875,0.239583,Sixteenth,D6
3515,Right,0,84,110,792.0,0.239583,Sixteenth,C6
3516,Right,0,86,110,792.125,0.239583,Sixteenth,D6
3517,Right,0,84,110,792.25,0.239583,Sixteenth,C6
3518,Right,0,86,110,792.375,0.239583,Sixteenth,D6
3520,Right,0,86,110,792.625,0.239583,Sixteenth,D6
3521,Right,0,83,110,792.75,0.239583,Sixteenth,B5
3522,Right,0,84,110,792.875,0.114583,ThirtySecond,C6
3523,Left,1,72,110,793.0,0.239583,Sixteenth,C5
3524,Right,0,81,120,793.0,0.989583,Quarter,F6_C6_A5
3527,Left,1,74,110,793.125,0.239583,Sixteenth,D5
3528,Left,1,72,110,793.25,0.239583,Sixteenth,C5
3529,Left,1,74,110,793.375,0.239583,Sixteenth,D5
3530,Left,1,72,110,793.5,0.239583,Sixteenth,C5
3531,Left,1,74,110,793.625,0.239583,Sixteenth,D5
3532,Left,1,72,110,793.75,0.239583,Sixteenth,C5
3533,Left,1,74,110,793.875,0.239583,Sixteenth,D5
3534,Right,0,88,120,794.0,0.489583,Eighth,G5_E6_C6
3535,Left,1,72,110,794.0,0.239583,Sixteenth,C5
3538,Left,1,74,110,794.125,0.239583,Sixteenth,D5
3539,Left,1,72,110,794.25,0.239583,Sixteenth,C5
3540,Left,1,74,110,794.375,0.239583,Sixteenth,D5
3542,Right,0,81,120,794.5,0.989583,Quarter,F6_C6_A5
3541,Left,1,72,110,794.5,0.239583,Sixteenth,C5
3545,Left,1,74,110,794.625,0.239583,Sixteenth,D5
3546,Left,1,72,110,794.75,0.239583,Sixteenth,C5
3547,Left,1,74,110,794.875,0.239583,Sixteenth,D5
3548,Left,1,72,110,795.0,0.239583,Sixteenth,C5
3549,Left,1,74,110,795.125,0.239583,Sixteenth,D5
3550,Left,1,72,110,795.25,0.239583,Sixteenth,C5
3551,Left,1,74,110,795.375,0.239583,Sixteenth,D5
3554,Left,1,72,110,795.5,0.239583,Sixteenth,C5
3552,Right,0,84,120,795.5,0.489583,Eighth,G5_E6_C6
3556,Left,1,74,110,795.625,0.239583,Sixteenth,D5
3557,Left,1,72,110,795.75,0.239583,Sixteenth,C5
3558,Left,1,74,110,795.875,0.239583,Sixteenth,D5
3559,Right,0,87,120,796.0,0.989583,Quarter,F#5_D#6_C6
3561,Left,1,72,110,796.0,0.239583,Sixteenth,C5
3563,Left,1,74,110,796.125,0.239583,Sixteenth,D5
3564,Left,1,72,110,796.25,0.239583,Sixteenth,C5
3565,Left,1,74,110,796.375,0.239583,Sixteenth,D5
3566,Left,1,72,110,796.5,0.239583,Sixteenth,C5
3567,Left,1,74,110,796.625,0.239583,Sixteenth,D5
3568,Left,1,72,110,796.75,0.239583,Sixteenth,C5
3569,Left,1,74,110,796.875,0.239583,Sixteenth,D5
3570,Left,1,72,110,797.0,0.239583,Sixteenth,C5
3571,Left,1,74,110,797.125,0.239583,Sixteenth,D5
3572,Left,1,72,110,797.25,0.239583,Sixteenth,C5
3573,Left,1,74,110,797.375,0.239583,Sixteenth,D5
3574,Left,1,72,110,797.5,0.239583,Sixteenth,C5
3575,Left,1,74,110,797.625,0.239583,Sixteenth,D5
3576,Left,1,72,110,797.75,0.239583,Sixteenth,C5
3577,Left,1,74,110,797.875,0.239583,Sixteenth,D5
3578,Left,1,72,110,798.0,0.239583,Sixteenth,C5
3579,Left,1,74,110,798.125,0.239583,Sixteenth,D5
3580,Left,1,72,110,798.25,0.239583,Sixteenth,C5
3581,Left,1,74,110,798.375,0.239583,Sixteenth,D5
3582,Left,1,72,110,798.5,0.239583,Sixteenth,C5
3583,Left,1,74,110,798.625,0.239583,Sixteenth,D5
3584,Left,1,72,110,798.75,0.239583,Sixteenth,C5
3585,Left,1,74,110,798.875,0.239583,Sixteenth,D5
3586,Right,0,88,120,799.0,0.989583,Quarter,G5_E6_C6
3589,Left,1,72,110,799.0,0.239583,Sixteenth,C5
3590,Left,1,74,110,799.125,0.239583,Sixteenth,D5
3591,Left,1,72,110,799.25,0.239583,Sixteenth,C5
3592,Left,1,74,110,799.375,0.239583,Sixteenth,D5
3593,Left,1,72,110,799.5,0.239583,Sixteenth,C5
3594,Left,1,74,110,799.625,0.239583,Sixteenth,D5
3595,Left,1,72,110,799.75,0.239583,Sixteenth,C5
3596,Left,1,74,110,799.875,0.239583,Sixteenth,D5
3597,Right,0,78,120,800.0,0.489583,Eighth,F#5_D#6_C6
3600,Left,1,72,110,800.0,0.239583,Sixteenth,C5
3601,Left,1,74,110,800.125,0.239583,Sixteenth,D5
3602,Left,1,72,110,800.25,0.239583,Sixteenth,C5
3603,Left,1,74,110,800.375,0.239583,Sixteenth,D5
3607,Left,1,72,110,800.5,0.239583,Sixteenth,C5
3604,Right,0,88,120,800.5,0.989583,Quarter,G5_E6_C6
3608,Left,1,74,110,800.625,0.239583,Sixteenth,D5
3609,Left,1,72,110,800.75,0.239583,Sixteenth,C5
3610,Left,1,74,110,800.875,0.239583,Sixteenth,D5
3611,Left,1,72,110,801.0,0.239583,Sixteenth,C5
3612,Left,1,74,110,801.125,0.239583,Sixteenth,D5
3613,Left,1,72,110,801.25,0.239583,Sixteenth,C5
3614,Left,1,74,110,801.375,0.239583,Sixteenth,D5
3615,Right,0,86,120,801.5,0.489583,Eighth,F5_D6_C6
3618,Left,1,72,110,801.5,0.239583,Sixteenth,C5
3619,Left,1,74,110,801.625,0.239583,Sixteenth,D5
3620,Left,1,72,110,801.75,0.239583,Sixteenth,C5
3621,Left,1,74,110,801.875,0.239583,Sixteenth,D5
3623,Right,0,84,120,802.0,0.989583,Quarter,E5_C6
3622,Left,1,72,110,802.0,0.239583,Sixteenth,C5
3625,Left,1,74,110,802.125,0.239583,Sixteenth,D5
3626,Left,1,72,110,802.25,0.239583,Sixteenth,C5
3627,Left,1,74,110,802.375,0.239583,Sixteenth,D5
3628,Left,1,72,110,802.5,0.239583,Sixteenth,C5
3629,Left,1,74,110,802.625,0.239583,Sixteenth,D5
3630,Left,1,72,110,802.75,0.239583,Sixteenth,C5
3631,Left,1,74,110,802.875,0.239583,Sixteenth,D5
3632,Left,1,72,110,803.0,0.239583,Sixteenth,C5
3633,Left,1,74,110,803.125,0.239583,Sixteenth,D5
3634,Left,1,72,110,803.25,0.239583,Sixteenth,C5
3635,Left,1,74,110,803.375,0.239583,Sixteenth,D5
3636,Left,1,72,110,803.5,0.239583,Sixteenth,C5
3637,Left,1,74,110,803.625,0.239583,Sixteenth,D5
3638,Left,1,72,110,803.75,0.239583,Sixteenth,C5
3639,Left,1,74,110,803.875,0.239583,Sixteenth,D5
3640,Left,1,72,110,804.0,0.239583,Sixteenth,C5
3641,Left,1,74,110,804.125,0.239583,Sixteenth,D5
3642,Left,1,72,110,804.25,0.239583,Sixteenth,C5
3643,Left,1,74,110,804.375,0.239583,Sixteenth,D5
3645,Left,1,72,110,804.5,0.239583,Sixteenth,C5
3644,Right,0,84,100,804.5,0.489583,Eighth,C6
3646,Left,1,74,110,804.625,0.239583,Sixteenth,D5
3647,Left,1,71,110,804.75,0.239583,Sixteenth,B4
3648,Left,1,72,110,804.875,0.114583,ThirtySecond,C5
3650,Left,1,81,120,805.0,0.489583,Eighth,A5
3649,Right,0,89,120,805.0,0.489583,Eighth,F6_C6
3654,Left,1,78,120,805.5,0.489583,Eighth,F#5
3652,Right,0,81,120,805.5,0.489583,Eighth,D#6_A5
3655,Left,1,79,120,806.0,0.489583,Eighth,G5
3656,Right,0,83,120,806.0,0.489583,Eighth,E6_B5
3659,Left,1,76,120,806.5,0.489583,Eighth,E5
3658,Right,0,79,120,806.5,0.489583,Eighth,G5_C#6
3661,Right,0,81,120,807.0,0.489583,Eighth,D6_A5
3663,Left,1,77,120,807.0,0.489583,Eighth,F5
3664,Right,0,77,120,807.5,0.489583,Eighth,F5_B5
3666,Left,1,74,120,807.5,0.489583,Eighth,D5
3667,Right,0,84,120,808.0,0.489583,Eighth,G5_C6
3669,Left,1,76,120,808.0,0.489583,Eighth,E5
3671,Right,0,82,120,808.5,0.489583,Eighth,E5_A#5
3670,Left,1,73,120,808.5,0.489583,Eighth,C#5
3673,Left,1,74,120,809.0,0.489583,Eighth,D5
3674,Right,0,83,120,809.0,0.489583,Eighth,F5_B5
3677,Right,0,80,120,809.5,0.489583,Eighth,G#5_D5
3676,Left,1,71,120,809.5,0.489583,Eighth,B4
3680,Right,0,81,120,810.0,0.489583,Eighth,E5_A5
3679,Left,1,72,120,810.0,0.489583,Eighth,C5
3682,Right,0,78,120,810.5,0.489583,Eighth,F#5_C5
3683,Left,1,69,120,810.5,0.489583,Eighth,A4
3686,Left,1,71,120,811.0,0.489583,Eighth,B4
3685,Right,0,79,120,811.0,0.489583,Eighth,G5_D5
3688,Right,0,71,120,811.5,0.489583,Eighth,E5_B4
3690,Left,1,68,120,811.5,0.489583,Eighth,G#4
3692,Right,0,77,120,812.0,0.489583,Eighth,F5_C5
3691,Left,1,69,120,812.0,0.489583,Eighth,A4
3694,Right,0,75,120,812.5,0.489583,Eighth,D#5_A4
3696,Left,1,66,120,812.5,0.489583,Eighth,F#4
3697,Right,0,71,120,813.0,0.489583,Eighth,E5_B4
3699,Left,1,67,120,813.0,0.489583,Eighth,G4
3701,Left,1,64,120,813.5,0.489583,Eighth,E4
3700,Right,0,67,120,813.5,0.489583,Eighth,G4_C#5
3703,Right,0,69,120,814.0,0.489583,Eighth,D5_A4
3705,Left,1,65,120,814.0,0.489583,Eighth,F4
3708,Left,1,62,120,814.5,0.489583,Eighth,D4
3706,Right,0,65,120,814.5,0.489583,Eighth,F4_B4
3710,Right,0,72,120,815.0,0.489583,Eighth,G4_C5
3709,Left,1,64,120,815.0,0.489583,Eighth,E4
3713,Right,0,64,120,815.5,0.489583,Eighth,E4_A#4
3712,Left,1,61,120,815.5,0.489583,Eighth,C#4
3716,Right,0,71,120,816.0,0.489583,Eighth,F4_B4
3715,Left,1,62,120,816.0,0.489583,Eighth,D4
3720,Left,1,59,120,816.5,0.489583,Eighth,B3
3718,Right,0,68,120,816.5,0.489583,Eighth,G#4_D4
3721,Left,1,60,110,817.0,0.489583,Eighth,C4
3722,Right,0,69,110,817.0,0.489583,Eighth,E4_A4
3724,Right,0,62,110,817.5,0.489583,Eighth,D4_B4
3726,Left,1,59,110,817.5,0.489583,Eighth,B3
3727,Right,0,60,110,818.0,0.489583,Eighth,C5_C4
3728,Left,1,57,110,818.0,0.489583,Eighth,A3
3732,Left,1,62,110,818.5,0.489583,Eighth,D4
3730,Right,0,71,110,818.5,0.489583,Eighth,F4_B4
3733,Right,0,72,111,819.0,0.489583,Eighth,E4_C5
3734,Left,1,60,111,819.0,0.489583,Eighth,C4
3737,Right,0,74,111,819.5,0.489583,Eighth,D5_D4
3736,Left,1,59,111,819.5,0.489583,Eighth,B3
3740,Right,0,67,111,820.0,0.489583,Eighth,G4_C5
3739,Left,1,64,111,820.0,0.489583,Eighth,E4
3742,Right,0,74,111,820.5,0.489583,Eighth,F4_D5
3743,Left,1,62,111,820.5,0.489583,Eighth,D4
3745,Right,0,76,112,821.0,0.489583,Eighth,E5_E4
3746,Left,1,60,112,821.0,0.489583,Eighth,C4
3748,Left,1,65,112,821.5,0.489583,Eighth,F4
3749,Right,0,74,112,821.5,0.489583,Eighth,D5_A4
3752,Right,0,76,112,822.0,0.489583,Eighth,G4_E5
3751,Left,1,64,112,822.0,0.489583,Eighth,E4
3754,Left,1,62,113,822.5,0.489583,Eighth,D4
3755,Right,0,77,113,822.5,0.489583,Eighth,F5_F4
3757,Right,0,76,113,823.0,0.489583,Eighth,E5_B4
3759,Left,1,67,113,823.0,0.489583,Eighth,G4
3760,Right,0,77,113,823.5,0.489583,Eighth,F5_A4
3762,Left,1,65,113,823.5,0.489583,Eighth,F4
3764,Right,0,67,113,824.0,0.489583,Eighth,G5_G4
3763,Left,1,64,113,824.0,0.489583,Eighth,E4
3767,Right,0,72,114,824.5,0.489583,Eighth,F5_C5
3766,Left,1,69,114,824.5,0.489583,Eighth,A4
3770,Right,0,79,114,825.0,0.489583,Eighth,G5_B4
3769,Left,1,67,114,825.0,0.489583,Eighth,G4
3773,Left,1,65,114,825.5,0.489583,Eighth,F4
3772,Right,0,69,114,825.5,0.489583,Eighth,A5_A4
3775,Right,0,79,115,826.0,0.489583,Eighth,G5_D5
3776,Left,1,71,115,826.0,0.489583,Eighth,B4
3780,Left,1,69,115,826.5,0.489583,Eighth,A4
3778,Right,0,81,115,826.5,0.489583,Eighth,C5_A5
3781,Left,1,67,115,827.0,0.489583,Eighth,G4
3782,Right,0,71,115,827.0,0.489583,Eighth,B5_B4
3786,Left,1,72,115,827.5,0.489583,Eighth,C5
3784,Right,0,76,115,827.5,0.489583,Eighth,E5_A5
3787,Left,1,71,116,828.0,0.489583,Eighth,B4
3788,Right,0,74,116,828.0,0.489583,Eighth,D5_B5
3790,Right,0,72,116,828.5,0.489583,Eighth,C6_C5
3792,Left,1,69,116,828.5,0.489583,Eighth,A4
3793,Right,0,77,116,829.0,0.489583,Eighth,F5_B5
3794,Left,1,74,116,829.0,0.489583,Eighth,D5
3796,Left,1,72,116,829.5,0.489583,Eighth,C5
3797,Right,0,76,116,829.5,0.489583,Eighth,E5_C6
3801,Left,1,71,117,830.0,0.489583,Eighth,B4
3799,Right,0,74,117,830.0,0.489583,Eighth,D6_D5
3803,Right,0,84,117,830.5,0.489583,Eighth,G5_C6
3802,Left,1,76,117,830.5,0.489583,Eighth,E5
3806,Right,0,86,117,831.0,0.489583,Eighth,F5_D6
3805,Left,1,74,117,831.0,0.489583,Eighth,D5
3809,Right,0,88,118,831.5,0.489583,Eighth,E6_E5
3808,Left,1,72,118,831.5,0.489583,Eighth,C5
3812,Left,1,76,118,832.0,0.489583,Eighth,E5
3811,Right,0,79,118,832.0,0.489583,Eighth,G5_C6
3815,Left,1,74,118,832.5,0.489583,Eighth,D5
3814,Right,0,77,118,832.5,0.489583,Eighth,F5_D6
3819,Left,1,72,118,833.0,0.489583,Eighth,C5
3817,Right,0,88,118,833.0,0.489583,Eighth,E6_E5
3821,Left,1,76,119,833.5,0.489583,Eighth,E5
3820,Right,0,84,119,833.5,0.489583,Eighth,G5_C6
3825,Left,1,74,119,834.0,0.489583,Eighth,D5
3823,Right,0,86,119,834.0,0.489583,Eighth,F5_D6
3826,Left,1,72,119,834.5,0.489583,Eighth,C5
3827,Right,0,76,119,834.5,0.489583,Eighth,E6_E5
3829,Left,1,65,120,835.0,1.989583,Half,F4_C5_A4
3830,Right,0,74,120,835.0,1.989583,Half,D6_D5_C6_A5
3836,Right,0,87,120,838.0,1.989583,Half,F#5_D#6_D#5_C6_A5
3838,Left,1,66,120,838.0,1.989583,Half,F#4_C5_A4
3845,Left,1,64,120,841.0,0.989583,Quarter,G4_G3_E4_C4
3844,Right,0,79,120,841.0,0.989583,Quarter,G5_E6_E5_C6
3852,Right,0,67,100,842.0,0.322917,Triplet,G4
3853,Right,0,69,100,842.166667,0.322917,Triplet,A4
3854,Right,0,71,100,842.333333,0.322917,Triplet,B4
3855,Right,0,72,100,842.5,0.489583,Eighth,C5
3856,Right,0,74,100,843.0,0.489583,Eighth,D5
3857,Right,0,76,99,843.5,0.489583,Eighth,E5
3858,Right,0,77,98,844.0,0.489583,Eighth,F5
3859,Right,0,79,97,844.5,0.489583,Eighth,G5
3860,Right,0,81,96,845.0,0.489583,Eighth,A5
3861,Right,0,83,95,845.5,0.489583,Eighth,B5
3862,Right,0,84,94,846.0,0.489583,Eighth,C6
3863,Right,0,86,93,846.5,0.489583,Eighth,D6
3864,Right,0,88,92,847.0,0.489583,Eighth,E6
3865,Right,0,89,91,847.5,0.489583,Eighth,F6
3866,Right,0,86,80,848.0,0.489583,Eighth,D6
3867,Right,0,88,80,848.5,0.489583,Eighth,E6
3868,Right,0,89,80,849.0,0.489583,Eighth,F6
3869,Right,0,86,80,849.5,0.489583,Eighth,D6
3870,Right,0,88,80,850.0,0.489583,Eighth,E6
3871,Right,0,89,80,850.5,0.489583,Eighth,F6
3872,Right,0,86,80,851.0,0.489583,Eighth,D6
3873,Right,0,88,80,851.5,0.489583,Eighth,E6
3874,Right,0,89,80,852.0,0.489583,Eighth,F6
3875,Right,0,86,80,852.5,0.489583,Eighth,D6
3876,Right,0,85,80,853.0,0.239583,Sixteenth,C#6
3877,Right,0,86,80,853.125,0.239583,Sixteenth,D6
3878,Right,0,88,80,853.25,0.239583,Sixteenth,E6
3879,Right,0,86,80,853.375,0.239583,Sixteenth,D6
3880,Right,0,88,80,853.5,0.239583,Sixteenth,E6
3881,Right,0,86,80,853.625,0.239583,Sixteenth,D6
3882,Right,0,88,80,853.75,0.239583,Sixteenth,E6
3883,Right,0,86,80,853.875,0.239583,Sixteenth,D6
3885,Left,1,55,80,854.0,0.239583,Sixteenth,G3
3884,Right,0,88,80,854.0,0.239583,Sixteenth,E6
3887,Left,1,57,80,854.125,0.239583,Sixteenth,A3
3886,Right,0,86,80,854.125,0.239583,Sixteenth,D6
3888,Left,1,59,80,854.25,0.239583,Sixteenth,B3
3889,Right,0,88,80,854.25,0.239583,Sixteenth,E6
3890,Left,1,60,80,854.375,0.239583,Sixteenth,C4
3891,Right,0,86,80,854.375,0.239583,Sixteenth,D6
3892,Right,0,88,80,854.5,0.239583,Sixteenth,E6
3893,Left,1,62,80,854.5,0.489583,Eighth,D4
3894,Right,0,86,80,854.625,0.239583,Sixteenth,D6
3895,Right,0,88,80,854.75,0.239583,Sixteenth,E6
3896,Right,0,86,80,854.875,0.239583,Sixteenth,D6
3897,Right,0,88,80,855.0,0.239583,Sixteenth,E6
3898,Left,1,64,80,855.0,0.489583,Eighth,E4
3899,Right,0,86,80,855.125,0.239583,Sixteenth,D6
3900,Right,0,88,80,855.25,0.239583,Sixteenth,E6
3901,Right,0,86,80,855.375,0.239583,Sixteenth,D6
3902,Right,0,88,80,855.5,0.239583,Sixteenth,E6
3903,Left,1,66,80,855.5,0.489583,Eighth,F#4
3904,Right,0,86,80,855.625,0.239583,Sixteenth,D6
3905,Right,0,88,80,855.75,0.239583,Sixteenth,E6
3906,Right,0,86,80,855.875,0.239583,Sixteenth,D6
3908,Right,0,88,80,856.0,0.239583,Sixteenth,E6
3907,Left,1,67,80,856.0,0.489583,Eighth,G4
3909,Right,0,86,80,856.125,0.239583,Sixteenth,D6
3910,Right,0,88,80,856.25,0.239583,Sixteenth,E6
3911,Right,0,86,80,856.375,0.239583,Sixteenth,D6
3912,Left,1,69,80,856.5,0.489583,Eighth,A4
3913,Right,0,88,80,856.5,0.239583,Sixteenth,E6
3914,Right,0,86,80,856.625,0.239583,Sixteenth,D6
3915,Right,0,88,80,856.75,0.239583,Sixteenth,E6
3916,Right,0,86,80,856.875,0.239583,Sixteenth,D6
3917,Left,1,71,80,857.0,0.489583,Eighth,B4
3918,Right,0,88,80,857.0,0.239583,Sixteenth,E6
3919,Right,0,86,80,857.125,0.239583,Sixteenth,D6
3920,Right,0,88,80,857.25,0.239583,Sixteenth,E6
3921,Right,0,86,80,857.375,0.239583,Sixteenth,D6
3923,Left,1,72,80,857.5,0.489583,Eighth,C5
3922,Right,0,88,80,857.5,0.239583,Sixteenth,E6
3924,Right,0,86,80,857.625,0.239583,Sixteenth,D6
3925,Right,0,88,80,857.75,0.239583,Sixteenth,E6
3926,Right,0,86,80,857.875,0.239583,Sixteenth,D6
3927,Right,0,88,80,858.0,0.239583,Sixteenth,E6
3928,Left,1,74,80,858.0,0.489583,Eighth,D5
3929,Right,0,86,80,858.125,0.239583,Sixteenth,D6
3930,Right,0,88,80,858.25,0.239583,Sixteenth,E6
3931,Right,0,86,80,858.375,0.239583,Sixteenth,D6
3933,Left,1,76,80,858.5,0.489583,Eighth,E5
3932,Right,0,88,80,858.5,0.239583,Sixteenth,E6
3934,Right,0,86,80,858.625,0.239583,Sixteenth,D6
3935,Right,0,88,80,858.75,0.239583,Sixteenth,E6
3936,Right,0,86,80,858.875,0.239583,Sixteenth,D6
3937,Right,0,88,80,859.0,0.239583,Sixteenth,E6
3938,Left,1,77,80,859.0,0.489583,Eighth,F5
3939,Right,0,86,80,859.125,0.239583,Sixteenth,D6
3940,Right,0,88,80,859.25,0.239583,Sixteenth,E6
3941,Right,0,86,80,859.375,0.239583,Sixteenth,D6
3942,Left,1,79,80,859.5,0.489583,Eighth,G5
3943,Right,0,88,80,859.5,0.239583,Sixteenth,E6
3944,Right,0,86,80,859.625,0.239583,Sixteenth,D6
3945,Right,0,88,80,859.75,0.239583,Sixteenth,E6
3946,Right,0,86,80,859.875,0.239583,Sixteenth,D6
3948,Left,1,76,80,860.0,0.489583,Eighth,E5
3947,Right,0,88,80,860.0,0.239583,Sixteenth,E6
3949,Right,0,86,80,860.125,0.239583,Sixteenth,D6
3950,Right,0,88,80,860.25,0.239583,Sixteenth,E6
3951,Right,0,86,80,860.375,0.239583,Sixteenth,D6
3953,Left,1,77,80,860.5,0.489583,Eighth,F5
3952,Right,0,88,80,860.5,0.239583,Sixteenth,E6
3954,Right,0,86,80,860.625,0.239583,Sixteenth,D6
3955,Right,0,88,80,860.75,0.239583,Sixteenth,E6
3956,Right,0,86,80,860.875,0.239583,Sixteenth,D6
3957,Right,0,88,80,861.0,0.239583,Sixteenth,E6
3958,Left,1,79,80,861.0,0.489583,Eighth,G5
3959,Right,0,86,80,861.125,0.239583,Sixteenth,D6
3960,Right,0,88,80,861.25,0.239583,Sixteenth,E6
3961,Right,0,86,80,861.375,0.239583,Sixteenth,D6
3962,Left,1,76,80,861.5,0.489583,Eighth,E5
3963,Right,0,88,80,861.5,0.239583,Sixteenth,E6
3964,Right,0,86,80,861.625,0.239583,Sixteenth,D6
3965,Right,0,88,80,861.75,0.239583,Sixteenth,E6
3966,Right,0,86,80,861.875,0.239583,Sixteenth,D6
3967,Right,0,88,80,862.0,0.239583,Sixteenth,E6
3968,Left,1,77,80,862.0,0.489583,Eighth,F5
3969,Right,0,86,80,862.125,0.239583,Sixteenth,D6
3970,Right,0,88,80,862.25,0.239583,Sixteenth,E6
3971,Right,0,86,80,862.375,0.239583,Sixteenth,D6
3972,Left,1,79,80,862.5,0.489583,Eighth,G5
3973,Right,0,88,80,862.5,0.239583,Sixteenth,E6
3974,Right,0,86,80,862.625,0.239583,Sixteenth,D6
3975,Right,0,88,80,862.75,0.239583,Sixteenth,E6
3976,Right,0,86,80,862.875,0.239583,Sixteenth,D6
3977,Right,0,88,80,863.0,0.239583,Sixteenth,E6
3978,Left,1,76,80,863.0,0.489583,Eighth,E5
3979,Right,0,86,80,863.125,0.239583,Sixteenth,D6
3980,Right,0,88,80,863.25,0.239583,Sixteenth,E6
3981,Right,0,86,80,863.375,0.239583,Sixteenth,D6
3983,Left,1,77,80,863.5,0.489583,Eighth,F5
3982,Right,0,88,80,863.5,0.239583,Sixteenth,E6
3984,Right,0,86,80,863.625,0.239583,Sixteenth,D6
3985,Right,0,88,80,863.75,0.239583,Sixteenth,E6
3986,Right,0,86,80,863.875,0.239583,Sixteenth,D6
3987,Right,0,88,80,864.0,0.239583,Sixteenth,E6
3988,Left,1,79,80,864.0,0.489583,Eighth,G5
3989,Right,0,86,80,864.125,0.239583,Sixteenth,D6
3990,Right,0,88,80,864.25,0.239583,Sixteenth,E6
3991,Right,0,86,80,864.375,0.239583,Sixteenth,D6
3993,Left,1,76,80,864.5,0.489583,Eighth,E5
3992,Right,0,88,80,864.5,0.239583,Sixteenth,E6
3994,Right,0,86,80,864.625,0.239583,Sixteenth,D6
3995,Right,0,88,80,864.75,0.239583,Sixteenth,E6
3996,Right,0,86,80,864.875,0.239583,Sixteenth,D6
3998,Right,0,88,80,865.0,0.239583,Sixteenth,E6
3997,Left,1,77,80,865.0,0.239583,Sixteenth,F5
4000,Right,0,86,80,865.125,0.239583,Sixteenth,D6
3999,Left,1,79,80,865.125,0.239583,Sixteenth,G5
4002,Left,1,77,80,865.25,0.239583,Sixteenth,F5
4001,Right,0,88,80,865.25,0.239583,Sixteenth,E6
4004,Left,1,79,80,865.375,0.239583,Sixteenth,G5
4003,Right,0,86,80,865.375,0.239583,Sixteenth,D6
4005,Right,0,88,80,865.5,0.239583,Sixteenth,E6
4006,Left,1,77,80,865.5,0.239583,Sixteenth,F5
4007,Right,0,86,80,865.625,0.239583,Sixteenth,D6
4008,Left,1,79,80,865.625,0.239583,Sixteenth,G5
4009,Right,0,88,80,865.75,0.239583,Sixteenth,E6
4010,Left,1,77,80,865.75,0.239583,Sixteenth,F5
4011,Right,0,86,80,865.875,0.239583,Sixteenth,D6
4012,Left,1,79,80,865.875,0.239583,Sixteenth,G5
4014,Right,0,88,80,866.0,0.239583,Sixteenth,E6
4013,Left,1,77,80,866.0,0.239583,Sixteenth,F5
4015,Left,1,79,80,866.125,0.239583,Sixteenth,G5
4016,Right,0,86,80,866.125,0.239583,Sixteenth,D6
4017,Right,0,88,80,866.25,0.239583,Sixteenth,E6
4018,Left,1,77,80,866.25,0.239583,Sixteenth,F5
4020,Left,1,79,80,866.375,0.239583,Sixteenth,G5
4019,Right,0,86,80,866.375,0.239583,Sixteenth,D6
4022,Left,1,77,80,866.5,0.239583,Sixteenth,F5
4021,Right,0,88,80,866.5,0.239583,Sixteenth,E6
4023,Left,1,79,80,866.625,0.239583,Sixteenth,G5
4024,Right,0,86,80,866.625,0.239583,Sixteenth,D6
4025,Left,1,77,80,866.75,0.239583,Sixteenth,F5
4026,Right,0,88,80,866.75,0.239583,Sixteenth,E6
4028,Right,0,86,80,866.875,0.239583,Sixteenth,D6
4027,Left,1,79,80,866.875,0.239583,Sixteenth,G5
4029,Right,0,88,80,867.0,0.239583,Sixteenth,E6
4030,Left,1,77,80,867.0,0.239583,Sixteenth,F5
4032,Left,1,79,80,867.125,0.239583,Sixteenth,G5
4031,Right,0,86,80,867.125,0.239583,Sixteenth,D6
4033,Right,0,88,80,867.25,0.239583,Sixteenth,E6
4034,Left,1,77,80,867.25,0.239583,Sixteenth,F5
4036,Right,0,86,80,867.375,0.239583,Sixteenth,D6
4035,Left,1,79,80,867.375,0.239583,Sixteenth,G5
4038,Left,1,77,80,867.5,0.239583,Sixteenth,F5
4037,Right,0,88,80,867.5,0.239583,Sixteenth,E6
4040,Left,1,79,80,867.625,0.239583,Sixteenth,G5
4039,Right,0,86,80,867.625,0.239583,Sixteenth,D6
4042,Left,1,77,80,867.75,0.239583,Sixteenth,F5
4041,Right,0,88,80,867.75,0.239583,Sixteenth,E6
4044,Left,1,79,80,867.875,0.239583,Sixteenth,G5
4043,Right,0,86,80,867.875,0.239583,Sixteenth,D6
4046,Right,0,88,80,868.0,0.239583,Sixteenth,E6
4045,Left,1,77,80,868.0,0.239583,Sixteenth,F5
4047,Left,1,79,80,868.125,0.239583,Sixteenth,G5
4048,Right,0,86,80,868.125,0.239583,Sixteenth,D6
4049,Right,0,88,80,868.25,0.239583,Sixteenth,E6
4050,Left,1,77,80,868.25,0.239583,Sixteenth,F5
4052,Left,1,79,80,868.375,0.239583,Sixteenth,G5
4051,Right,0,86,80,868.375,0.239583,Sixteenth,D6
4053,Right,0,88,80,868.5,0.239583,Sixteenth,E6
4054,Left,1,77,80,868.5,0.239583,Sixteenth,F5
4055,Right,0,86,80,868.625,0.239583,Sixteenth,D6
4056,Left,1,79,80,868.625,0.239583,Sixteenth,G5
4057,Right,0,88,80,868.75,0.239583,Sixteenth,E6
4058,Left,1,77,80,868.75,0.239583,Sixteenth,F5
4060,Right,0,86,80,868.875,0.239583,Sixteenth,D6
4059,Left,1,79,80,868.875,0.239583,Sixteenth,G5
4061,Right,0,88,80,869.0,0.239583,Sixteenth,E6
4062,Left,1,77,80,869.0,0.239583,Sixteenth,F5
4064,Left,1,79,80,869.125,0.239583,Sixteenth,G5
4063,Right,0,86,80,869.125,0.239583,Sixteenth,D6
4066,Left,1,77,80,869.25,0.239583,Sixteenth,F5
4065,Right,0,88,80,869.25,0.239583,Sixteenth,E6
4068,Left,1,79,80,869.375,0.239583,Sixteenth,G5
4067,Right,0,86,80,869.375,0.239583,Sixteenth,D6
4069,Left,1,77,80,869.5,0.239583,Sixteenth,F5
4070,Right,0,88,80,869.5,0.239583,Sixteenth,E6
4071,Left,1,79,80,869.625,0.239583,Sixteenth,G5
4072,Right,0,86,80,869.625,0.239583,Sixteenth,D6
4073,Left,1,77,80,869.75,0.239583,Sixteenth,F5
4074,Right,0,88,80,869.75,0.239583,Sixteenth,E6
4075,Right,0,86,80,869.875,0.239583,Sixteenth,D6
4076,Left,1,79,80,869.875,0.239583,Sixteenth,G5
4077,Left,1,77,80,870.0,0.239583,Sixteenth,F5
4078,Right,0,88,80,870.0,0.239583,Sixteenth,E6
4079,Left,1,79,80,870.125,0.239583,Sixteenth,G5
4080,Right,0,86,80,870.125,0.239583,Sixteenth,D6
4082,Right,0,88,80,870.25,0.239583,Sixteenth,E6
4081,Left,1,77,80,870.25,0.239583,Sixteenth,F5
4083,Left,1,79,80,870.375,0.239583,Sixteenth,G5
4084,Right,0,86,80,870.375,0.239583,Sixteenth,D6
4085,Left,1,77,80,870.5,0.239583,Sixteenth,F5
4086,Right,0,88,80,870.5,0.239583,Sixteenth,E6
4088,Left,1,79,80,870.625,0.239583,Sixteenth,G5
4087,Right,0,86,80,870.625,0.239583,Sixteenth,D6
4089,Right,0,88,80,870.75,0.239583,Sixteenth,E6
4090,Left,1,77,80,870.75,0.239583,Sixteenth,F5
4092,Right,0,86,80,870.875,0.239583,Sixteenth,D6
4091,Left,1,79,80,870.875,0.239583,Sixteenth,G5
4093,Right,0,88,80,871.0,0.239583,Sixteenth,E6_C6
4095,Left,1,77,80,871.0,0.239583,Sixteenth,F5
4098,Left,1,79,80,871.125,0.239583,Sixteenth,G5
4096,Right,0,86,80,871.125,0.239583,Sixteenth,D6_B5
4101,Left,1,77,80,871.25,0.239583,Sixteenth,F5
4099,Right,0,88,80,871.25,0.239583,Sixteenth,E6_C6
4102,Right,0,83,80,871.375,0.239583,Sixteenth,D6_B5
4103,Left,1,79,80,871.375,0.239583,Sixteenth,G5
4107,Left,1,77,80,871.5,0.239583,Sixteenth,F5
4105,Right,0,84,80,871.5,0.239583,Sixteenth,E6_C6
4108,Right,0,86,80,871.625,0.239583,Sixteenth,D6_B5
4109,Left,1,79,80,871.625,0.239583,Sixteenth,G5
4113,Left,1,77,80,871.75,0.239583,Sixteenth,F5
4111,Right,0,88,80,871.75,0.239583,Sixteenth,E6_C6
4116,Left,1,79,80,871.875,0.239583,Sixteenth,G5
4114,Right,0,83,80,871.875,0.239583,Sixteenth,D6_B5
4117,Right,0,84,80,872.0,0.239583,Sixteenth,E6_C6
4119,Left,1,77,80,872.0,0.239583,Sixteenth,F5
4120,Right,0,86,80,872.125,0.239583,Sixteenth,D6_B5
4122,Left,1,79,80,872.125,0.239583,Sixteenth,G5
4124,Right,0,84,80,872.25,0.239583,Sixteenth,E6_C6
4123,Left,1,77,80,872.25,0.239583,Sixteenth,F5
4126,Right,0,83,80,872.375,0.239583,Sixteenth,D6_B5
4128,Left,1,79,80,872.375,0.239583,Sixteenth,G5
4129,Right,0,84,80,872.5,0.239583,Sixteenth,E6_C6
4131,Left,1,77,80,872.5,0.239583,Sixteenth,F5
4133,Left,1,79,80,872.625,0.239583,Sixteenth,G5
4132,Right,0,83,80,872.625,0.239583,Sixteenth,D6_B5
4136,Left,1,77,80,872.75,0.239583,Sixteenth,F5
4135,Right,0,88,80,872.75,0.239583,Sixteenth,E6_C6
4140,Left,1,79,80,872.875,0.239583,Sixteenth,G5
4138,Right,0,83,80,872.875,0.239583,Sixteenth,D6_B5
4143,Left,1,77,80,873.0,0.239583,Sixteenth,F5
4141,Right,0,84,80,873.0,0.239583,Sixteenth,E6_C6
4144,Right,0,83,80,873.125,0.239583,Sixteenth,D6_B5
4146,Left,1,79,80,873.125,0.239583,Sixteenth,G5
4149,Left,1,77,80,873.25,0.239583,Sixteenth,F5
4147,Right,0,88,80,873.25,0.239583,Sixteenth,E6_C6
4150,Right,0,83,80,873.375,0.239583,Sixteenth,D6_B5
4151,Left,1,79,80,873.375,0.239583,Sixteenth,G5
4154,Right,0,88,80,873.5,0.239583,Sixteenth,E6_C6
4153,Left,1,77,80,873.5,0.239583,Sixteenth,F5
4158,Left,1,79,80,873.625,0.239583,Sixteenth,G5
4156,Right,0,86,80,873.625,0.239583,Sixteenth,D6_B5
4159,Left,1,77,80,873.75,0.239583,Sixteenth,F5
4160,Right,0,88,80,873.75,0.239583,Sixteenth,E6_C6
4162,Left,1,79,80,873.875,0.239583,Sixteenth,G5
4163,Right,0,86,80,873.875,0.239583,Sixteenth,D6_B5
4165,Left,1,77,80,874.0,0.239583,Sixteenth,F5
4166,Right,0,84,80,874.0,0.239583,Sixteenth,E6_C6
4169,Right,0,83,80,874.125,0.239583,Sixteenth,D6_B5
4168,Left,1,79,80,874.125,0.239583,Sixteenth,G5
4171,Right,0,84,80,874.25,0.239583,Sixteenth,E6_C6
4173,Left,1,77,80,874.25,0.239583,Sixteenth,F5
4175,Left,1,79,80,874.375,0.239583,Sixteenth,G5
4174,Right,0,83,80,874.375,0.239583,Sixteenth,D6_B5
4177,Left,1,77,80,874.5,0.239583,Sixteenth,F5
4178,Right,0,84,80,874.5,0.239583,Sixteenth,E6_C6
4180,Left,1,79,80,874.625,0.239583,Sixteenth,G5
4181,Right,0,83,80,874.625,0.239583,Sixteenth,D6_B5
4185,Left,1,77,80,874.75,0.239583,Sixteenth,F5
4183,Right,0,84,80,874.75,0.239583,Sixteenth,E6_C6
4186,Right,0,86,80,874.875,0.239583,Sixteenth,D6_B5
4188,Left,1,79,80,874.875,0.239583,Sixteenth,G5
4189,Right,0,84,80,875.0,0.239583,Sixteenth,E6_C6
4190,Left,1,77,80,875.0,0.239583,Sixteenth,F5
4192,Right,0,86,80,875.125,0.239583,Sixteenth,D6_B5
4194,Left,1,79,80,875.125,0.239583,Sixteenth,G5
4196,Right,0,88,80,875.25,0.239583,Sixteenth,E6_C6
4195,Left,1,77,80,875.25,0.239583,Sixteenth,F5
4199,Right,0,83,80,875.375,0.239583,Sixteenth,D6_B5
4198,Left,1,79,80,875.375,0.239583,Sixteenth,G5
4202,Left,1,77,80,875.5,0.239583,Sixteenth,F5
4201,Right,0,84,80,875.5,0.239583,Sixteenth,E6_C6
4205,Left,1,79,80,875.625,0.239583,Sixteenth,G5
4204,Right,0,86,80,875.625,0.239583,Sixteenth,D6_B5
4207,Left,1,77,80,875.75,0.239583,Sixteenth,F5
4208,Right,0,84,80,875.75,0.239583,Sixteenth,E6_C6
4212,Left,1,79,80,875.875,0.239583,Sixteenth,G5
4210,Right,0,83,80,875.875,0.239583,Sixteenth,D6_B5
4213,Right,0,84,80,876.0,0.239583,Sixteenth,E6_C6
4215,Left,1,77,80,876.0,0.239583,Sixteenth,F5
4216,Right,0,86,80,876.125,0.239583,Sixteenth,D6_B5
4217,Left,1,79,80,876.125,0.239583,Sixteenth,G5
4219,Right,0,84,80,876.25,0.239583,Sixteenth,E6_C6
4220,Left,1,77,80,876.25,0.239583,Sixteenth,F5
4222,Right,0,83,80,876.375,0.239583,Sixteenth,D6_B5
4223,Left,1,79,80,876.375,0.239583,Sixteenth,G5
4225,Right,0,88,80,876.5,0.239583,Sixteenth,E6_C6
4226,Left,1,77,80,876.5,0.239583,Sixteenth,F5
4228,Right,0,86,80,876.625,0.239583,Sixteenth,D6_B5
4230,Left,1,79,80,876.625,0.239583,Sixteenth,G5
4231,Right,0,88,80,876.75,0.239583,Sixteenth,E6_C6
4233,Left,1,77,80,876.75,0.239583,Sixteenth,F5
4234,Left,1,79,80,876.875,0.239583,Sixteenth,G5
4235,Right,0,83,80,876.875,0.239583,Sixteenth,D6_B5
4237,Right,0,88,80,877.0,0.239583,Sixteenth,E6
4238,Right,0,86,80,877.125,0.239583,Sixteenth,D6
4239,Right,0,88,80,877.25,0.239583,Sixteenth,E6
4240,Right,0,86,80,877.375,0.239583,Sixteenth,D6
4241,Right,0,88,80,877.5,0.239583,Sixteenth,E6
4242,Right,0,86,80,877.625,0.239583,Sixteenth,D6
4243,Right,0,88,80,877.75,0.239583,Sixteenth,E6
4244,Right,0,86,80,877.875,0.239583,Sixteenth,D6
4245,Right,0,88,80,878.0,0.239583,Sixteenth,E6
4246,Right,0,86,80,878.125,0.239583,Sixteenth,D6
4247,Right,0,88,80,878.25,0.239583,Sixteenth,E6
4248,Right,0,86,80,878.375,0.239583,Sixteenth,D6
4249,Right,0,88,80,878.5,0.239583,Sixteenth,E6
4250,Right,0,86,80,878.625,0.239583,Sixteenth,D6
4251,Right,0,88,80,878.75,0.239583,Sixteenth,E6
4252,Right,0,86,80,878.875,0.239583,Sixteenth,D6
4253,Right,0,88,80,879.0,0.239583,Sixteenth,E6
4254,Right,0,86,80,879.125,0.239583,Sixteenth,D6
4255,Right,0,88,80,879.25,0.239583,Sixteenth,E6
4256,Right,0,86,80,879.375,0.239583,Sixteenth,D6
4257,Right,0,88,80,879.5,0.239583,Sixteenth,E6
4258,Right,0,86,80,879.625,0.239583,Sixteenth,D6
4259,Right,0,88,80,879.75,0.239583,Sixteenth,E6
4260,Right,0,86,80,879.875,0.239583,Sixteenth,D6
4261,Right,0,88,80,880.0,0.239583,Sixteenth,E6
4262,Right,0,86,80,880.125,0.239583,Sixteenth,D6
4263,Right,0,88,80,880.25,0.239583,Sixteenth,E6
4264,Right,0,86,80,880.375,0.239583,Sixteenth,D6
4265,Right,0,88,80,880.5,0.239583,Sixteenth,E6
4266,Right,0,86,80,880.625,0.239583,Sixteenth,D6
4267,Right,0,88,80,880.75,0.239583,Sixteenth,E6
4268,Right,0,86,80,880.875,0.239583,Sixteenth,D6
4269,Right,0,88,80,881.0,0.239583,Sixteenth,E6
4270,Right,0,86,80,881.125,0.239583,Sixteenth,D6
4271,Right,0,88,80,881.25,0.239583,Sixteenth,E6
4272,Right,0,86,80,881.375,0.239583,Sixteenth,D6
4273,Right,0,88,80,881.5,0.239583,Sixteenth,E6
4274,Right,0,86,80,881.625,0.239583,Sixteenth,D6
4275,Right,0,88,80,881.75,0.239583,Sixteenth,E6
4276,Right,0,86,80,881.875,0.239583,Sixteenth,D6
4277,Right,0,88,80,882.0,0.239583,Sixteenth,E6
4278,Right,0,86,80,882.125,0.239583,Sixteenth,D6
4279,Right,0,88,80,882.25,0.239583,Sixteenth,E6
4280,Right,0,86,80,882.375,0.239583,Sixteenth,D6
4281,Right,0,88,80,882.5,0.239583,Sixteenth,E6
4282,Right,0,86,80,882.625,0.239583,Sixteenth,D6
4283,Right,0,88,80,882.75,0.239583,Sixteenth,E6
4284,Right,0,86,80,882.875,0.239583,Sixteenth,D6
4285,Right,0,88,80,883.0,0.239583,Sixteenth,E6
4286,Right,0,87,80,883.125,0.239583,Sixteenth,D#6
4287,Right,0,88,80,883.25,0.239583,Sixteenth,E6
4288,Right,0,87,80,883.375,0.239583,Sixteenth,D#6
4289,Right,0,88,80,883.5,0.239583,Sixteenth,E6
4290,Right,0,87,80,883.625,0.239583,Sixteenth,D#6
4291,Right,0,88,80,883.75,0.239583,Sixteenth,E6
4292,Right,0,87,80,883.875,0.239583,Sixteenth,D#6
4293,Right,0,88,80,884.0,0.239583,Sixteenth,E6
4294,Right,0,87,80,884.125,0.239583,Sixteenth,D#6
4295,Right,0,88,80,884.25,0.239583,Sixteenth,E6
4296,Right,0,87,80,884.375,0.239583,Sixteenth,D#6
4297,Right,0,88,80,884.5,0.239583,Sixteenth,E6
4298,Right,0,87,80,884.625,0.239583,Sixteenth,D#6
4299,Right,0,88,80,884.75,0.239583,Sixteenth,E6
4300,Right,0,87,80,884.875,0.239583,Sixteenth,D#6
4301,Right,0,88,80,885.0,0.239583,Sixteenth,E6
4302,Right,0,87,80,885.125,0.239583,Sixteenth,D#6
4303,Right,0,88,80,885.25,0.239583,Sixteenth,E6
4304,Right,0,87,80,885.375,0.239583,Sixteenth,D#6
4305,Right,0,88,80,885.5,0.239583,Sixteenth,E6
4306,Right,0,87,80,885.625,0.239583,Sixteenth,D#6
4307,Right,0,88,80,885.75,0.239583,Sixteenth,E6
4308,Right,0,87,80,885.875,0.239583,Sixteenth,D#6
4309,Right,0,88,80,886.0,0.239583,Sixteenth,E6
4310,Right,0,87,80,886.125,0.239583,Sixteenth,D#6
4311,Right,0,88,80,886.25,0.239583,Sixteenth,E6
4312,Right,0,87,80,886.375,0.239583,Sixteenth,D#6
4313,Right,0,88,80,886.5,0.239583,Sixteenth,E6
4314,Right,0,87,80,886.625,0.239583,Sixteenth,D#6
4315,Right,0,88,80,886.75,0.239583,Sixteenth,E6
4316,Right,0,87,80,886.875,0.239583,Sixteenth,D#6
4317,Right,0,88,80,887.0,0.239583,Sixteenth,E6
4318,Right,0,87,80,887.125,0.239583,Sixteenth,D#6
4319,Right,0,88,80,887.25,0.239583,Sixteenth,E6
4320,Right,0,87,80,887.375,0.239583,Sixteenth,D#6
4321,Right,0,88,80,887.5,0.239583,Sixteenth,E6
4322,Right,0,87,80,887.625,0.239583,Sixteenth,D#6
4323,Right,0,88,80,887.75,0.239583,Sixteenth,E6
4324,Right,0,87,80,887.875,0.239583,Sixteenth,D#6
4325,Right,0,88,80,888.0,0.239583,Sixteenth,E6
4326,Right,0,87,80,888.125,0.239583,Sixteenth,D#6
4327,Right,0,88,80,888.25,0.239583,Sixteenth,E6
4328,Right,0,85,80,888.375,0.489583,Eighth,D#6_C#6
4330,Right,0,87,80,888.75,2.239583,Half,D#6
4331,Left,1,45,80,895.0,0.489583,Eighth,A2
4332,Right,0,88,80,895.0,4.989583,Unknown,E6_E5_C#6
4335,Left,1,44,80,895.5,0.489583,Eighth,G#2
4336,Left,1,45,80,896.0,0.489583,Eighth,A2
4337,Left,1,47,80,896.5,0.489583,Eighth,B2
4338,Left,1,49,80,897.0,0.489583,Eighth,C#3
4339,Left,1,50,79,897.5,0.489583,Eighth,D3
4340,Left,1,52,79,898.0,0.489583,Eighth,E3
4341,Left,1,54,79,898.5,0.489583,Eighth,F#3
4342,Left,1,56,79,899.0,0.489583,Eighth,G#3
4343,Left,1,57,79,899.5,0.489583,Eighth,A3
4345,Right,0,76,78,900.0,0.489583,Eighth,E5_D6_B5
4344,Left,1,59,78,900.0,0.489583,Eighth,B3
4349,Right,0,76,78,900.5,0.489583,Eighth,E5_C#6_A5
4348,Left,1,61,78,900.5,0.489583,Eighth,C#4
4355,Left,1,62,78,901.0,0.989583,Quarter,D4
4352,Right,0,83,78,901.0,0.989583,Quarter,G#5_E5_B5
4357,Right,0,81,78,902.0,0.489583,Eighth,E5_C#6_A5
4356,Left,1,61,78,902.0,0.489583,Eighth,C#4
4361,Right,0,76,77,902.5,0.989583,Quarter,G#5_E5_B5
4360,Left,1,62,77,902.5,0.989583,Quarter,D4
4364,Right,0,76,77,903.5,0.489583,Eighth,E5_C#6_A5
4365,Left,1,61,77,903.5,0.489583,Eighth,C#4
4368,Right,0,76,77,904.0,2.989583,DottedHalf,G#5_E5_B5
4371,Left,1,62,77,904.0,2.989583,DottedHalf,D4
4372,Right,0,76,74,909.5,0.489583,Eighth,E5
4373,Right,0,76,74,910.0,4.989583,Unknown,E6_E5_C6
4375,Left,1,57,74,910.0,0.489583,Eighth,A3
4377,Left,1,56,74,910.5,0.489583,Eighth,G#3
4378,Left,1,57,74,911.0,0.489583,Eighth,A3
4379,Left,1,59,74,911.5,0.489583,Eighth,B3
4380,Left,1,60,73,912.0,0.489583,Eighth,C4
4381,Left,1,62,73,912.5,0.489583,Eighth,D4
4382,Left,1,64,73,913.0,0.489583,Eighth,E4
4383,Left,1,66,73,913.5,0.489583,Eighth,F#4
4384,Left,1,68,73,914.0,0.489583,Eighth,G#4
4385,Left,1,69,72,914.5,0.489583,Eighth,A4
4389,Left,1,71,72,915.0,0.489583,Eighth,B4
4386,Right,0,76,72,915.0,0.489583,Eighth,E5_D6_B5
4391,Right,0,84,72,915.5,0.489583,Eighth,E5_C6_A5
4390,Left,1,72,72,915.5,0.489583,Eighth,C5
4396,Left,1,74,72,916.0,0.989583,Quarter,D5
4394,Right,0,77,72,916.0,0.989583,Quarter,G5_F5_B5
4398,Right,0,79,71,917.0,0.489583,Eighth,G5_C6
4400,Left,1,76,71,917.0,0.489583,Eighth,E5
4401,Left,1,74,71,917.5,0.989583,Quarter,D5
4402,Right,0,77,71,917.5,0.989583,Quarter,G5_F5_B5
4405,Right,0,79,71,918.5,0.489583,Eighth,G5_C6
4406,Left,1,76,71,918.5,0.489583,Eighth,E5
4411,Left,1,74,71,919.0,2.989583,DottedHalf,D5
4408,Right,0,77,71,919.0,2.989583,DottedHalf,G5_F5_B5
4412,Right,0,79,120,924.5,0.489583,Eighth,G5
4413,Left,1,31,120,925.0,0.489583,Eighth,G2_G1
4414,Right,0,77,120,925.0,5.989583,Unknown,G5_F6_F5_D6_B5
4420,Left,1,42,120,925.5,0.489583,Eighth,F#2_F#1
4422,Left,1,43,120,926.0,0.489583,Eighth,G2_G1
4424,Left,1,45,120,926.5,0.489583,Eighth,A2_A1
4426,Left,1,47,120,927.0,0.489583,Eighth,B2_B1
4428,Left,1,36,120,927.5,0.489583,Eighth,C3_C2
4430,Left,1,38,120,928.0,0.489583,Eighth,D3_D2
4432,Left,1,52,120,928.5,0.489583,Eighth,E3_E2
4434,Left,1,53,120,929.0,0.489583,Eighth,F3_F2
4436,Left,1,55,120,929.5,0.489583,Eighth,G3_G2
4438,Left,1,57,120,930.0,0.489583,Eighth,A3_A2
4440,Left,1,59,120,930.5,0.489583,Eighth,B3_B2
4444,Left,1,48,120,931.0,1.989583,Half,C4_C3
4442,Right,0,84,120,931.0,0.489583,Eighth,G5_E6_E5_C6
4448,Right,0,74,120,931.5,0.489583,Eighth,D6_D5
4450,Right,0,84,120,932.0,0.489583,Eighth,C6_C5
4452,Right,0,83,120,932.5,0.489583,Eighth,B5_B4
4454,Right,0,81,120,933.0,0.489583,Eighth,A5_A4
4456,Right,0,79,120,933.5,0.489583,Eighth,G5_G4
4458,Right,0,77,120,934.0,0.489583,Eighth,F5_F4
4460,Right,0,64,120,934.5,0.489583,Eighth,E5_E4
4462,Right,0,62,120,935.0,0.489583,Eighth,D5_D4
4464,Right,0,72,120,935.5,0.489583,Eighth,C5_C4
4466,Right,0,71,120,936.0,0.489583,Eighth,B4_B3
4468,Right,0,69,120,936.5,0.489583,Eighth,A4_A3
4470,Right,0,55,120,937.0,0.989583,Quarter,G4_G3
4474,Left,1,31,120,940.0,0.989583,Quarter,G2_G1
4472,Right,0,50,120,940.0,0.989583,Quarter,G3_F3_D3_B3
4481,Left,1,48,120,943.0,1.989583,Half,C3_C2
4478,Right,0,52,120,943.0,1.989583,Half,G3_E3_C4
4483,Right,0,60,1,948.0,0.989583,Quarter,C4
