,hand,channel,note,velocity,start_beat,duration,note_value,chord
0,Right,0,70,80,0.0,2.989583,Half,G4_D#4_A#4_A#3
4,Left,1,51,80,1.0,0.989583,Quarter,D#3
6,Right,0,67,80,2.0,0.989583,Quarter,G4
5,Left,1,55,80,2.0,0.989583,Quarter,G3
7,Left,1,58,80,3.0,4.989583,Unknown,A#3
8,Right,0,63,80,3.0,0.989583,Quarter,D#4
9,Left,1,55,80,4.0,0.989583,Quarter,G3
10,Right,0,67,80,4.0,3.989583,Whole,G4
12,Left,1,51,80,5.0,0.989583,Quarter,D#3
11,Right,0,70,80,5.0,0.989583,Quarter,A#4
14,Left,1,46,80,6.0,2.989583,DottedHalf,A#2
13,Right,0,75,80,6.0,0.989583,Quarter,D#5
15,Right,0,79,80,7.0,0.989583,Quarter,G5
16,Right,0,77,80,8.0,0.989583,Eighth,F5_F4
17,Left,1,56,80,8.0,0.989583,Quarter,G#3
19,Right,0,74,80,8.5,0.489583,Eighth,D5
20,Right,0,67,80,9.0,0.989583,Quarter,G4_D#5
22,Left,1,55,80,9.0,0.989583,Quarter,G3_D#3
24,Right,0,79,80,9.5,0.489583,Eighth,G5
25,Right,0,70,80,10.0,0.989583,Quarter,A#4
27,Left,1,56,80,12.0,1.989583,Quarter,G#3_D#4
26,Right,0,72,80,12.0,0.489583,Eighth,C5
29,Right,0,75,80,12.5,0.489583,Eighth,D#5
31,Left,1,55,80,13.0,0.989583,Quarter,G3
30,Right,0,70,80,13.0,0.989583,Quarter,A#4
33,Left,1,58,80,15.0,1.989583,Half,D3_A#3
32,Right,0,68,80,15.0,0.989583,Eighth,G#4_F4
36,Right,0,70,80,15.5,0.489583,Eighth,A#4
38,Left,1,51,80,16.0,0.989583,Quarter,D#3
37,Right,0,63,80,16.0,0.989583,Quarter,G4_D#4
40,Left,1,46,80,18.0,1.989583,Quarter,A#3_A#2
42,Right,0,65,80,18.0,0.989583,Quarter,F4_D4
44,Left,1,50,80,19.0,0.989583,Quarter,D3
45,Right,0,68,80,19.0,0.989583,Quarter,G#4_F4
49,Right,0,67,80,20.0,0.989583,Quarter,G4_D#4
47,Left,1,51,80,20.0,0.989583,Quarter,D#3_A#3
51,Left,1,58,80,21.0,0.989583,Quarter,A#3_A#2
52,Right,0,65,80,21.0,0.989583,Quarter,F4_D4
55,Right,0,63,80,24.0,2.989583,DottedHalf,G4_D#4_A#4_A#3
59,Left,1,51,80,25.0,0.989583,Quarter,D#3
60,Right,0,67,80,26.0,0.989583,Quarter,G4
61,Left,1,55,80,26.0,0.989583,Quarter,G3
63,Right,0,63,80,27.0,0.989583,Quarter,D#4
62,Left,1,58,80,27.0,4.989583,Unknown,A#3
64,Left,1,55,80,28.0,0.989583,Quarter,G3
65,Right,0,67,80,28.0,3.989583,Whole,G4
66,Left,1,51,80,29.0,0.989583,Quarter,D#3
67,Right,0,70,80,29.0,2.989583,DottedHalf,A#4
68,Left,1,46,80,30.0,1.989583,Half,A#2
69,Right,0,75,80,30.0,0.989583,Quarter,D#5
70,Right,0,79,80,31.0,0.989583,Quarter,G5
71,Left,1,59,80,32.0,0.989583,Quarter,B3_B2
73,Right,0,65,80,32.0,0.989583,Quarter,G#4_F5_F4
76,Right,0,74,80,32.5,0.489583,Eighth,D5
78,Left,1,60,80,33.0,0.989583,Quarter,C4_C3
77,Right,0,75,80,33.0,0.989583,Quarter,G4_D#5_D#4
82,Right,0,77,70,37.0,0.989583,Quarter,F5
84,Right,0,65,70,38.0,1.989583,Half,F4_D#5
83,Left,1,57,70,38.0,1.989583,Quarter,F3_A3_A2
88,Right,0,72,70,38.5,0.489583,Eighth,C5
91,Right,0,74,70,39.0,0.989583,Quarter,D5
89,Left,1,58,70,39.0,0.989583,Quarter,A#3_A#2
92,Left,1,57,100,44.0,1.989583,Quarter,F4_C4_A3
93,Right,0,87,100,44.0,0.489583,Eighth,D#6
96,Right,0,84,100,44.5,0.489583,Eighth,C6
98,Left,1,62,100,45.0,0.989583,Quarter,D4_A#3
97,Right,0,86,100,45.0,0.489583,Eighth,D6
100,Right,0,89,100,45.5,0.489583,Eighth,F6
101,Right,0,77,100,46.0,0.989583,Quarter,F5
102,Left,1,63,100,46.0,2.989583,Quarter,F4_D#4_C4
105,Right,0,87,100,47.0,0.489583,Eighth,D#6
106,Left,1,60,100,47.0,0.989583,Quarter,C4_A3
108,Right,0,84,100,47.5,0.489583,Eighth,C6
109,Left,1,62,100,48.0,0.989583,Quarter,D4_A#3
110,Right,0,86,100,48.0,0.489583,Eighth,D6
112,Right,0,89,100,48.5,0.489583,Eighth,F6
115,Right,0,77,100,49.0,0.989583,Quarter,F5
113,Left,1,63,100,49.0,2.989583,Quarter,F4_D#4_C4
117,Right,0,87,100,50.0,0.489583,Eighth,D#6
118,Left,1,60,100,50.0,0.989583,Quarter,C4_A3
120,Right,0,84,100,50.5,0.489583,Eighth,C6
123,Right,0,86,100,51.0,0.489583,Eighth,D6
121,Left,1,62,100,51.0,0.989583,Quarter,D4_A#3
124,Right,0,89,100,51.5,0.489583,Eighth,F6
126,Left,1,63,100,52.0,2.989583,Quarter,F4_D#4_C4
125,Right,0,77,100,52.0,0.989583,Quarter,F5
130,Left,1,57,100,53.0,0.989583,Quarter,C4_A3
129,Right,0,87,100,53.0,0.489583,Eighth,D#6
132,Right,0,84,100,53.5,0.489583,Eighth,C6
133,Left,1,62,100,54.0,0.989583,Quarter,D4_A#3
134,Right,0,86,100,54.0,0.489583,Eighth,D6
136,Right,0,89,100,54.5,0.489583,Eighth,F6
137,Right,0,87,100,55.0,0.489583,Eighth,D#6
138,Right,0,86,100,55.5,0.489583,Eighth,D6
139,Left,1,52,100,56.0,0.989583,Quarter,E3
140,Right,0,84,100,56.0,0.489583,Eighth,C6
141,Right,0,82,100,56.5,0.489583,Eighth,A#5
143,Right,0,81,100,57.0,0.489583,Eighth,A5
142,Left,1,53,100,57.0,0.989583,Quarter,F3
144,Right,0,82,100,57.5,0.489583,Eighth,A#5
145,Right,0,86,100,58.0,0.489583,Eighth,D6
146,Right,0,77,100,58.5,0.489583,Eighth,F5
147,Left,1,41,100,59.0,0.989583,Quarter,F2
148,Right,0,84,100,59.0,0.489583,Eighth,C6
149,Right,0,75,100,59.5,0.489583,Eighth,D#5
151,Right,0,74,100,60.0,0.489583,Eighth,D5_A#5
150,Left,1,46,100,60.0,0.989583,Quarter,A#2
153,Right,0,77,100,60.5,0.489583,Eighth,F5
154,Right,0,75,100,61.0,0.489583,Eighth,D#5
155,Right,0,74,100,61.5,0.489583,Eighth,D5
156,Left,1,40,100,62.0,0.989583,Quarter,E2
157,Right,0,72,100,62.0,0.489583,Eighth,C5
158,Right,0,70,100,62.5,0.489583,Eighth,A#4
159,Left,1,41,100,63.0,0.989583,Quarter,F2
160,Right,0,69,100,63.0,0.489583,Eighth,A4
161,Right,0,70,100,63.5,0.489583,Eighth,A#4
162,Right,0,74,100,64.0,0.489583,Eighth,D5
163,Right,0,65,100,64.5,0.489583,Eighth,F4
164,Right,0,72,100,65.0,0.489583,Eighth,C5
165,Left,1,29,100,65.0,0.989583,Quarter,F2_F1
167,Right,0,63,100,65.5,0.489583,Eighth,D#4
168,Right,0,70,100,66.0,0.489583,Eighth,D4_A#4
170,Left,1,46,100,66.0,0.989583,Quarter,A#2_A#1
172,Right,0,65,100,66.5,0.489583,Eighth,F4
173,Right,0,62,100,67.0,0.489583,Eighth,D4
174,Right,0,58,100,67.5,0.489583,Eighth,A#3
175,Right,0,53,100,68.0,0.489583,Eighth,F3
176,Right,0,50,100,68.5,0.489583,Eighth,D3
177,Left,1,46,100,69.0,0.989583,Quarter,A#2_A#1
179,Right,0,70,80,72.0,2.989583,Half,G4_D#4_A#4_A#3
183,Left,1,51,80,73.0,0.989583,Quarter,D#3
184,Right,0,67,80,74.0,0.989583,Quarter,G4
185,Left,1,55,80,74.0,0.989583,Quarter,G3
186,Right,0,63,80,75.0,0.989583,Quarter,D#4
187,Left,1,58,80,75.0,4.989583,Unknown,A#3
188,Left,1,55,80,76.0,0.989583,Quarter,G3
189,Right,0,67,80,76.0,3.989583,Whole,G4
190,Left,1,51,80,77.0,0.989583,Quarter,D#3
191,Right,0,70,80,77.0,0.989583,Quarter,A#4
193,Left,1,46,80,78.0,2.989583,DottedHalf,A#2
192,Right,0,75,80,78.0,0.989583,Quarter,D#5
194,Right,0,79,80,79.0,0.989583,Quarter,G5
197,Left,1,56,80,80.0,0.989583,Quarter,G#3
195,Right,0,77,80,80.0,0.989583,Eighth,F5_F4
198,Right,0,74,80,80.5,0.489583,Eighth,D5
200,Right,0,75,80,81.0,0.989583,Eighth,G4_D#5
199,Left,1,55,80,81.0,0.989583,Quarter,G3_D#3
203,Right,0,79,80,81.5,0.489583,Eighth,G5
204,Right,0,70,80,82.0,0.989583,Quarter,A#4
205,Right,0,72,80,84.0,0.489583,Eighth,C5
206,Left,1,63,80,84.0,1.989583,Half,G#3_D#4
208,Right,0,75,80,84.5,0.489583,Eighth,D#5
209,Left,1,55,80,85.0,0.989583,Quarter,G3
210,Right,0,70,80,85.0,0.989583,Quarter,A#4
212,Right,0,65,80,87.0,0.989583,Quarter,G#4_F4
211,Left,1,58,80,87.0,1.989583,Half,D3_A#3
215,Right,0,70,80,87.5,0.489583,Eighth,A#4
217,Right,0,63,80,88.0,0.989583,Quarter,G4_D#4
216,Left,1,51,80,88.0,0.989583,Quarter,D#3
221,Left,1,46,80,90.0,1.989583,Quarter,A#3_A#2
219,Right,0,62,80,90.0,0.989583,Quarter,F4_D4
223,Left,1,50,80,91.0,0.989583,Quarter,D3
224,Right,0,68,80,91.0,0.989583,Quarter,G#4_F4
227,Left,1,58,80,92.0,0.989583,Quarter,D#3_A#3
226,Right,0,63,80,92.0,0.989583,Quarter,G4_D#4
230,Left,1,46,80,93.0,0.989583,Quarter,A#3_A#2
231,Right,0,62,80,93.0,0.989583,Quarter,F4_D4
234,Right,0,63,80,96.0,2.989583,DottedHalf,G4_D#4_A#4_A#3
238,Left,1,51,80,97.0,0.989583,Quarter,D#3
239,Right,0,67,80,98.0,0.989583,Quarter,G4
240,Left,1,55,80,98.0,0.989583,Quarter,G3
242,Right,0,63,80,99.0,0.989583,Quarter,D#4
241,Left,1,58,80,99.0,4.989583,Unknown,A#3
243,Right,0,67,80,100.0,3.989583,Whole,G4
244,Left,1,55,80,100.0,0.989583,Quarter,G3
246,Left,1,51,80,101.0,0.989583,Quarter,D#3
245,Right,0,70,80,101.0,2.989583,DottedHalf,A#4
247,Left,1,46,80,102.0,1.989583,Half,A#2
248,Right,0,75,80,102.0,0.989583,Quarter,D#5
249,Right,0,79,80,103.0,0.989583,Quarter,G5
252,Right,0,68,80,104.0,0.989583,Quarter,G#4_F5_F4
250,Left,1,47,80,104.0,0.989583,Quarter,B3_B2
255,Right,0,74,80,104.5,0.489583,Eighth,D5
257,Left,1,48,80,105.0,0.989583,Quarter,C4_C3
256,Right,0,67,80,105.0,0.989583,Quarter,G4_D#5_D#4
261,Right,0,77,70,109.0,0.989583,Quarter,F5
262,Left,1,57,70,110.0,1.989583,Quarter,F3_A3_A2
265,Right,0,65,70,110.0,1.989583,Half,F4_D#5
267,Right,0,72,70,110.5,0.489583,Eighth,C5
268,Left,1,58,70,111.0,0.989583,Quarter,A#3_A#2
269,Right,0,74,70,111.0,0.989583,Quarter,D5
272,Left,1,65,100,116.0,1.989583,Quarter,F4_C4_A3
271,Right,0,87,100,116.0,0.489583,Eighth,D#6
275,Right,0,84,100,116.5,0.489583,Eighth,C6
276,Right,0,86,100,117.0,0.489583,Eighth,D6
277,Left,1,62,100,117.0,0.989583,Quarter,D4_A#3
279,Right,0,89,100,117.5,0.489583,Eighth,F6
282,Right,0,77,100,118.0,0.989583,Quarter,F5
280,Left,1,65,111,118.0,2.989583,Quarter,F4_D#4_C4
284,Left,1,60,100,119.0,0.989583,Quarter,C4_A3
285,Right,0,87,100,119.0,0.489583,Eighth,D#6
287,Right,0,84,100,119.5,0.489583,Eighth,C6
288,Left,1,62,100,120.0,0.989583,Quarter,D4_A#3
290,Right,0,86,100,120.0,0.489583,Eighth,D6
291,Right,0,89,100,120.5,0.489583,Eighth,F6
292,Left,1,63,100,121.0,2.989583,Quarter,F4_D#4_C4
294,Right,0,77,100,121.0,0.989583,Quarter,F5
296,Left,1,60,100,122.0,0.989583,Quarter,C4_A3
297,Right,0,87,100,122.0,0.489583,Eighth,D#6
299,Right,0,84,100,122.5,0.489583,Eighth,C6
300,Left,1,58,100,123.0,0.989583,Quarter,D4_A#3
301,Right,0,86,100,123.0,0.489583,Eighth,D6
303,Right,0,89,100,123.5,0.489583,Eighth,F6
307,Right,0,77,100,124.0,0.989583,Quarter,F5
304,Left,1,65,111,124.0,2.989583,Quarter,F4_D#4_C4
308,Right,0,87,100,125.0,0.489583,Eighth,D#6
309,Left,1,60,100,125.0,0.989583,Quarter,C4_A3
311,Right,0,84,100,125.5,0.489583,Eighth,C6
312,Left,1,62,100,126.0,0.989583,Quarter,D4_A#3
313,Right,0,86,100,126.0,0.489583,Eighth,D6
315,Right,0,89,100,126.5,0.489583,Eighth,F6
316,Right,0,87,100,127.0,0.489583,Eighth,D#6
317,Right,0,86,100,127.5,0.489583,Eighth,D6
319,Right,0,84,100,128.0,0.489583,Eighth,C6
318,Left,1,52,100,128.0,0.989583,Quarter,E3
320,Right,0,82,100,128.5,0.489583,Eighth,A#5
321,Right,0,81,100,129.0,0.489583,Eighth,A5
322,Left,1,53,100,129.0,0.989583,Quarter,F3
323,Right,0,82,100,129.5,0.489583,Eighth,A#5
324,Right,0,86,100,130.0,0.489583,Eighth,D6
325,Right,0,77,100,130.5,0.489583,Eighth,F5
326,Right,0,84,100,131.0,0.489583,Eighth,C6
327,Left,1,41,100,131.0,0.989583,Quarter,F2
328,Right,0,75,100,131.5,0.489583,Eighth,D#5
329,Right,0,82,100,132.0,0.489583,Eighth,D5_A#5
330,Left,1,46,100,132.0,0.989583,Quarter,A#2
332,Right,0,77,100,132.5,0.489583,Eighth,F5
333,Right,0,75,100,133.0,0.489583,Eighth,D#5
334,Right,0,74,100,133.5,0.489583,Eighth,D5
335,Right,0,72,100,134.0,0.489583,Eighth,C5
336,Left,1,40,100,134.0,0.989583,Quarter,E2
337,Right,0,70,100,134.5,0.489583,Eighth,A#4
339,Left,1,41,100,135.0,0.989583,Quarter,F2
338,Right,0,69,100,135.0,0.489583,Eighth,A4
340,Right,0,70,100,135.5,0.489583,Eighth,A#4
341,Right,0,74,100,136.0,0.489583,Eighth,D5
342,Right,0,65,100,136.5,0.489583,Eighth,F4
344,Right,0,72,100,137.0,0.489583,Eighth,C5
343,Left,1,29,100,137.0,0.989583,Quarter,F2_F1
346,Right,0,63,100,137.5,0.489583,Eighth,D#4
347,Right,0,62,100,138.0,0.489583,Eighth,D4_A#4
349,Left,1,34,100,138.0,0.989583,Quarter,A#2_A#1
351,Right,0,65,100,138.5,0.489583,Eighth,F4
352,Right,0,62,100,139.0,0.489583,Eighth,D4
353,Right,0,58,100,139.5,0.489583,Eighth,A#3
354,Right,0,53,100,140.0,0.489583,Eighth,F3
355,Right,0,50,100,140.5,0.489583,Eighth,D3
356,Left,1,34,100,141.0,0.989583,Quarter,A#2_A#1
358,Left,1,58,80,144.0,1.989583,Half,A#3
359,Left,1,55,82,146.0,0.989583,Quarter,G3
360,Right,0,70,83,147.0,1.989583,Half,A#4
361,Left,1,52,83,147.0,0.989583,Quarter,E3
362,Left,1,55,84,148.0,0.989583,Quarter,G3
364,Right,0,67,85,149.0,0.989583,Quarter,G4
363,Left,1,58,85,149.0,0.989583,Quarter,A#3
366,Right,0,64,87,150.0,0.989583,Quarter,E4
365,Left,1,61,87,150.0,1.989583,Half,C#4
367,Right,0,67,88,151.0,0.989583,Quarter,G4
369,Left,1,58,89,152.0,0.989583,Quarter,A#3
368,Right,0,70,89,152.0,0.989583,Quarter,A#4
370,Left,1,55,90,153.0,0.989583,Quarter,G3
371,Right,0,73,90,153.0,1.989583,Half,C#5
372,Left,1,58,91,154.0,0.989583,Quarter,A#3
374,Left,1,61,92,155.0,0.989583,Quarter,C#4
373,Right,0,70,92,155.0,0.989583,Quarter,A#4
376,Right,0,67,94,156.0,0.989583,Quarter,G4
375,Left,1,64,94,156.0,1.989583,Half,E4
377,Right,0,70,95,157.0,0.989583,Quarter,A#4
379,Left,1,61,96,158.0,0.989583,Quarter,C#4
378,Right,0,73,96,158.0,0.989583,Quarter,C#5
381,Left,1,58,97,159.0,0.989583,Quarter,A#3
380,Right,0,76,97,159.0,1.989583,Half,E5
382,Left,1,61,98,160.0,0.989583,Quarter,C#4
383,Right,0,73,99,161.0,0.989583,Quarter,C#5
384,Left,1,64,99,161.0,0.989583,Quarter,E4
385,Left,1,70,100,162.0,5.989583,Unknown,G4_A#4
387,Right,0,70,100,162.0,0.989583,Quarter,A#4
388,Right,0,73,100,163.0,0.989583,Quarter,C#5
389,Right,0,76,100,164.0,0.989583,Quarter,E5
390,Right,0,79,100,165.0,0.989583,Quarter,G5
391,Right,0,77,100,166.0,0.989583,Quarter,F5
392,Right,0,76,100,167.0,0.989583,Quarter,E5
395,Right,0,76,100,168.0,0.989583,Quarter,E5
393,Left,1,68,100,168.0,5.989583,Unknown,G#4_C5
396,Right,0,77,100,169.0,0.989583,Quarter,F5
397,Right,0,77,100,170.0,0.489583,Eighth,F5
398,Right,0,79,100,170.25,0.489583,Eighth,G5
399,Right,0,76,100,170.5,0.489583,Eighth,E5
400,Right,0,77,100,170.75,0.489583,Eighth,F5
401,Right,0,80,100,171.0,0.989583,Quarter,G#5
402,Right,0,79,100,172.0,0.989583,Quarter,G5
403,Right,0,77,100,173.0,0.989583,Quarter,F5
404,Left,1,67,100,174.0,5.989583,Unknown,G4_C#5_A#4
407,Right,0,76,100,175.0,0.989583,Quarter,E5
408,Right,0,76,100,176.0,0.989583,Quarter,E5
409,Right,0,76,100,177.0,0.15625,TripletSixteenth,E5
410,Right,0,79,100,177.166667,0.8125,DottedEighth,G5
411,Right,0,77,100,178.0,0.989583,Quarter,F5
412,Right,0,76,100,179.0,0.989583,Quarter,E5
413,Left,1,68,100,180.0,5.989583,Unknown,G#4_C5
415,Right,0,77,100,181.0,0.989583,Quarter,F5
416,Right,0,77,100,182.0,0.989583,Quarter,F5
417,Right,0,77,100,183.0,0.15625,TripletSixteenth,F5
418,Right,0,80,100,183.166667,0.822917,DottedEighth,G#5
419,Right,0,79,100,184.0,0.989583,Quarter,G5
420,Right,0,77,100,185.0,0.989583,Quarter,F5
421,Left,1,65,100,186.0,5.989583,Unknown,G#4_F4
423,Right,0,75,100,186.0,0.989583,Quarter,D#5
424,Right,0,74,97,187.0,0.989583,Quarter,D5
425,Right,0,74,93,188.0,0.989583,Quarter,D5
426,Right,0,74,89,189.0,0.15625,TripletSixteenth,D5
427,Right,0,77,89,189.166667,0.822917,DottedEighth,F5
428,Right,0,75,86,190.0,0.989583,Quarter,D#5
429,Right,0,74,82,191.0,0.989583,Quarter,D5
431,Left,1,65,78,192.0,5.989583,Unknown,F4_D4
430,Right,0,72,78,192.0,0.989583,Quarter,C5
433,Right,0,70,74,193.0,0.989583,Quarter,A#4
434,Right,0,69,71,194.0,0.989583,Quarter,A4
435,Right,0,70,70,195.0,0.989583,Quarter,A#4
436,Right,0,72,70,196.0,0.989583,Quarter,C5
437,Right,0,68,70,197.0,0.989583,Quarter,G#4
438,Right,0,70,80,198.0,2.989583,Half,G4_D#4_A#4_A#3
442,Left,1,51,80,199.0,0.989583,Quarter,D#3
443,Left,1,55,80,200.0,0.989583,Quarter,G3
444,Right,0,67,80,200.0,0.989583,Quarter,G4
446,Right,0,63,80,201.0,0.989583,Quarter,D#4
445,Left,1,58,80,201.0,6.989583,Unknown,A#3
447,Right,0,67,80,202.0,3.989583,Whole,G4
448,Left,1,55,80,202.0,0.989583,Quarter,G3
449,Right,0,70,80,203.0,3.989583,Whole,A#4
450,Left,1,51,80,203.0,0.989583,Quarter,D#3
452,Right,0,75,80,204.0,0.989583,Quarter,D#5
451,Left,1,46,80,204.0,2.989583,DottedHalf,A#2
453,Right,0,79,80,205.0,0.989583,Quarter,G5
454,Left,1,44,80,206.0,0.989583,Quarter,G#2
455,Right,0,65,80,206.0,0.989583,Quarter,F5_F4
457,Right,0,74,80,206.5,0.489583,Eighth,D5
458,Left,1,43,80,207.0,0.989583,Quarter,G2
459,Right,0,75,80,207.0,0.989583,Eighth,G4_D#5
461,Right,0,79,80,207.5,0.489583,Eighth,G5
462,Right,0,70,80,208.0,0.989583,Quarter,A#4
463,Left,1,63,80,210.0,1.989583,Half,G#3_D#4
465,Right,0,72,80,210.0,0.489583,Eighth,C5
466,Right,0,75,80,210.5,0.489583,Eighth,D#5
468,Left,1,55,80,211.0,0.989583,Quarter,G3
467,Right,0,70,80,211.0,0.989583,Quarter,A#4
469,Left,1,58,80,213.0,1.989583,Half,D3_A#3
471,Right,0,65,80,213.0,0.989583,Quarter,G#4_F4
473,Right,0,70,80,213.5,0.489583,Eighth,A#4
474,Left,1,51,80,214.0,0.989583,Quarter,D#3
475,Right,0,67,80,214.0,0.989583,Quarter,G4_D#4
479,Left,1,58,80,216.0,1.989583,Half,A#3_A#2
477,Right,0,62,80,216.0,0.989583,Quarter,F4_D4
481,Right,0,65,80,217.0,0.989583,Quarter,G#4_F4
483,Left,1,50,80,217.0,0.989583,Quarter,D3
484,Right,0,63,80,218.0,0.989583,Quarter,G4_D#4
486,Left,1,58,80,218.0,0.989583,Quarter,D#3_A#3
489,Left,1,58,80,219.0,0.989583,Quarter,A#3_A#2
488,Right,0,62,80,219.0,0.989583,Quarter,F4_D4
492,Right,0,70,80,222.0,2.989583,Half,F#4_D#4_A#4_A#3
496,Left,1,51,80,223.0,0.989583,Quarter,D#3
498,Right,0,66,80,224.0,0.989583,Quarter,F#4
497,Left,1,54,80,224.0,0.989583,Quarter,F#3
499,Right,0,63,80,225.0,0.989583,Quarter,D#4
500,Left,1,58,80,225.0,5.989583,Unknown,A#3
502,Left,1,54,80,226.0,0.989583,Quarter,F#3
501,Right,0,66,80,226.0,3.989583,Whole,F#4
504,Right,0,70,80,227.0,2.989583,DottedHalf,A#4
503,Left,1,51,80,227.0,0.989583,Quarter,D#3
505,Right,0,75,80,228.0,0.989583,Quarter,D#5
506,Left,1,46,80,228.0,2.989583,DottedHalf,A#2
507,Right,0,78,80,229.0,0.989583,Quarter,F#5
508,Right,0,77,80,230.0,0.989583,Quarter,G#4_F5_F4
511,Right,0,74,80,230.5,0.489583,Eighth,D5
513,Right,0,63,80,231.0,0.989583,Quarter,F#4_D#5_D#4
512,Left,1,47,80,231.0,0.989583,Quarter,B3_B2
520,Right,0,76,100,236.0,1.989583,Eighth,F#4_E5
517,Left,1,54,100,236.0,1.989583,Quarter,F#3_A#3_A#2
522,Right,0,73,100,236.5,0.489583,Eighth,C#5
523,Right,0,75,100,237.0,0.989583,Quarter,D#5
524,Left,1,59,100,237.0,0.989583,Quarter,B3_B2
526,Left,1,58,100,239.0,1.989583,Quarter,F#3_A#3_A#2
529,Right,0,66,100,239.0,1.989583,Half,F#4_E5
531,Right,0,73,100,239.5,0.489583,Eighth,C#5
532,Left,1,47,100,240.0,0.989583,Quarter,B3_B2
534,Right,0,75,100,240.0,0.989583,Quarter,D#5
535,Right,0,66,100,242.0,1.989583,Half,F#4_E5
536,Left,1,54,100,242.0,1.0,Quarter,F#3_A#3_A#2
540,Right,0,73,100,242.5,0.489583,Eighth,C#5
541,Right,0,75,100,243.0,0.989583,Quarter,D#5
542,Left,1,59,100,243.0,4.989583,Unknown,B3_B2
544,Right,0,66,100,244.0,2.989583,Half,F#5_F#4
546,Left,1,51,100,245.0,0.989583,Quarter,D#3
547,Left,1,52,100,246.0,2.989583,DottedHalf,E3
548,Right,0,68,100,246.0,2.989583,DottedHalf,G#4
549,Right,0,76,100,247.0,2.989583,DottedHalf,E5
550,Left,1,61,100,248.0,2.989583,DottedHalf,C#4
552,Left,1,55,100,249.0,5.989583,Unknown,G3
551,Right,0,70,100,249.0,0.989583,Quarter,A#4
553,Right,0,75,100,250.0,2.989583,Half,D#5_B4
555,Left,1,63,100,251.0,0.989583,Quarter,D#4
556,Right,0,73,100,252.0,2.989583,DottedHalf,C#5
557,Left,1,64,100,252.0,0.989583,Quarter,E4
558,Right,0,70,100,253.0,1.989583,Half,A#4
559,Left,1,66,100,253.0,0.989583,Quarter,F#4
560,Left,1,64,100,254.0,0.989583,Quarter,E4
562,Left,1,59,100,255.0,4.989583,Unknown,D#4_B3
561,Right,0,75,100,255.0,0.989583,Quarter,D#5_B4
565,Right,0,78,100,256.0,2.989583,DottedHalf,F#5_F#4
567,Left,1,51,100,257.0,0.989583,Quarter,D#3
568,Left,1,52,100,258.0,2.989583,DottedHalf,E3
569,Right,0,68,100,258.0,2.989583,DottedHalf,G#4
570,Right,0,76,100,259.0,2.989583,DottedHalf,E5
571,Left,1,61,100,260.0,2.989583,DottedHalf,C#4
573,Left,1,54,100,261.0,2.989583,DottedHalf,F#3
572,Right,0,70,100,261.0,0.989583,Quarter,A#4
574,Right,0,75,100,262.0,2.989583,DottedHalf,D#5_B4
576,Left,1,63,100,263.0,2.989583,DottedHalf,D#4
577,Left,1,55,100,264.0,2.989583,DottedHalf,G3
578,Right,0,70,100,264.0,2.989583,DottedHalf,A#4
579,Right,0,73,100,265.0,2.989583,DottedHalf,C#5
580,Left,1,63,98,266.0,2.989583,DottedHalf,D#4
581,Left,1,56,95,267.0,2.989583,DottedHalf,G#3
582,Right,0,71,92,268.0,2.989583,DottedHalf,B4
583,Left,1,63,89,269.0,2.989583,DottedHalf,D#4
584,Left,1,58,86,270.0,2.989583,DottedHalf,A#3
585,Right,0,70,83,271.0,2.989583,DottedHalf,A#4
586,Left,1,63,80,272.0,2.989583,DottedHalf,D#4
587,Left,1,59,77,273.0,2.989583,DottedHalf,B3
588,Right,0,69,74,274.0,0.989583,Quarter,A4
589,Left,1,63,71,275.0,0.989583,Quarter,D#4
590,Left,1,58,100,279.0,0.989583,Quarter,A#3
591,Right,0,70,100,280.0,0.989583,Quarter,A#4
592,Right,0,70,100,281.0,0.989583,Quarter,A#4
593,Right,0,70,101,282.0,0.989583,Quarter,A#4
594,Right,0,70,101,283.0,0.989583,Quarter,A#4
595,Left,1,65,102,284.0,0.489583,Eighth,F4
596,Right,0,80,102,284.0,0.989583,Eighth,G#5_A#4
598,Right,0,77,102,284.5,0.489583,Eighth,F5
599,Left,1,62,102,284.5,0.489583,Eighth,D4
601,Right,0,70,103,285.0,0.989583,Quarter,G5_A#4
600,Left,1,63,103,285.0,0.989583,Quarter,D#4
604,Right,0,70,103,286.0,0.989583,Quarter,A#4
603,Left,1,58,103,286.0,0.989583,Quarter,A#3
606,Right,0,70,104,287.0,0.989583,Quarter,F5_A#4
605,Left,1,68,104,287.0,0.489583,Eighth,G#4
609,Right,0,74,104,287.5,0.489583,Eighth,D5
608,Left,1,65,104,287.5,0.489583,Eighth,F4
610,Right,0,70,105,288.0,0.989583,Quarter,D#5_A#4
612,Left,1,67,105,288.0,0.989583,Quarter,G4
614,Left,1,58,105,289.0,0.989583,Quarter,A#3
613,Right,0,70,105,289.0,0.989583,Quarter,A#4
615,Right,0,70,106,290.0,0.989583,Quarter,G#5_A#4
617,Left,1,65,106,290.0,0.489583,Eighth,F4
618,Right,0,77,106,290.5,0.489583,Eighth,F5
619,Left,1,62,106,290.5,0.489583,Eighth,D4
621,Right,0,70,106,291.0,0.989583,Quarter,G5_A#4
620,Left,1,63,106,291.0,0.989583,Quarter,D#4
623,Left,1,58,107,292.0,0.989583,Quarter,A#3
624,Right,0,70,107,292.0,0.989583,Quarter,A#4
626,Right,0,70,108,293.0,0.989583,Quarter,F5_A#4
625,Left,1,68,108,293.0,0.489583,Eighth,G#4
629,Right,0,74,108,293.5,0.489583,Eighth,D5
628,Left,1,65,108,293.5,0.489583,Eighth,F4
631,Right,0,75,108,294.0,0.989583,Quarter,D#5
630,Left,1,67,108,294.0,0.989583,Quarter,G4
632,Left,1,63,109,295.0,0.989583,Quarter,D#4
633,Right,0,75,109,295.0,0.989583,Quarter,D#5
635,Left,1,68,110,296.0,0.489583,Eighth,G#4
634,Right,0,84,110,296.0,0.989583,Eighth,D#5_C6
637,Right,0,80,110,296.5,0.489583,Eighth,G#5
638,Left,1,65,110,296.5,0.489583,Eighth,F4
641,Left,1,67,110,297.0,0.989583,Quarter,G4
639,Right,0,82,110,297.0,0.989583,Quarter,D#5_A#5
642,Left,1,63,110,298.0,0.989583,Quarter,D#4
643,Right,0,75,110,298.0,0.989583,Quarter,D#5
644,Left,1,72,110,299.0,0.489583,Eighth,C5
645,Right,0,75,110,299.0,0.989583,Quarter,G#5_D#5
648,Right,0,78,110,299.5,0.489583,Eighth,F#5
647,Left,1,69,110,299.5,0.489583,Eighth,A4
650,Right,0,79,110,300.0,0.989583,Quarter,G5_D#5
649,Left,1,70,110,300.0,0.989583,Quarter,A#4
653,Left,1,63,110,301.0,0.989583,Quarter,D#4
652,Right,0,75,110,301.0,0.989583,Quarter,D#5
654,Left,1,68,110,302.0,0.489583,Eighth,G#4
655,Right,0,75,110,302.0,0.989583,Quarter,D#5_C6
657,Right,0,80,110,302.5,0.489583,Eighth,G#5
658,Left,1,65,110,302.5,0.489583,Eighth,F4
661,Left,1,67,110,303.0,0.989583,Quarter,G4
659,Right,0,82,110,303.0,0.989583,Quarter,D#5_A#5
662,Right,0,75,110,304.0,0.989583,Quarter,D#5
663,Left,1,63,110,304.0,0.989583,Quarter,D#4
664,Right,0,75,110,305.0,0.989583,Quarter,G#5_D#5
666,Left,1,72,110,305.0,0.489583,Eighth,C5
667,Left,1,69,110,305.5,0.489583,Eighth,A4
668,Right,0,78,110,305.5,0.489583,Eighth,F#5
670,Left,1,70,110,306.0,0.989583,Quarter,A#4
669,Right,0,79,110,306.0,0.989583,Quarter,G5_D#5
672,Left,1,63,110,307.0,0.989583,Quarter,D#4
673,Right,0,75,110,307.0,0.989583,Quarter,D#5
674,Left,1,67,120,308.0,1.989583,Quarter,G4_G3_D#4
677,Right,0,85,120,308.0,0.989583,Eighth,D#5_C#6
679,Right,0,82,120,308.5,0.489583,Eighth,A#5
681,Left,1,56,120,309.0,0.989583,Quarter,G#4_G#3
680,Right,0,84,120,309.0,0.489583,Eighth,C6
683,Right,0,87,120,309.5,0.489583,Eighth,D#6
684,Right,0,86,120,310.0,0.489583,Eighth,D6
685,Right,0,84,120,310.5,0.489583,Eighth,C6
686,Left,1,56,120,311.0,0.989583,Quarter,G#3
687,Right,0,82,120,311.0,0.489583,Eighth,A#5
688,Right,0,80,120,311.5,0.489583,Eighth,G#5
690,Left,1,58,120,312.0,0.989583,Quarter,A#3
689,Right,0,79,120,312.0,0.489583,Eighth,G5
691,Right,0,82,120,312.5,0.489583,Eighth,A#5
692,Right,0,87,120,313.0,0.489583,Eighth,D#6
693,Right,0,79,120,313.5,0.489583,Eighth,G5
694,Left,1,68,120,314.0,0.989583,Quarter,G#4_F4_B3
695,Right,0,86,120,314.0,0.489583,Eighth,D6
698,Right,0,77,120,314.5,0.489583,Eighth,F5
701,Right,0,87,120,315.0,0.489583,Eighth,D#6
699,Left,1,67,120,315.0,0.989583,Quarter,G4_D#4_C4
703,Right,0,75,120,315.5,0.489583,Eighth,D#5
704,Right,0,74,120,316.0,0.489583,Eighth,D5
705,Right,0,72,120,316.5,0.489583,Eighth,C5
706,Left,1,44,120,317.0,0.989583,Quarter,G#2
707,Right,0,70,120,317.0,0.489583,Eighth,A#4
708,Right,0,68,120,317.5,0.489583,Eighth,G#4
710,Left,1,46,120,318.0,0.989583,Quarter,A#2
709,Right,0,67,120,318.0,0.489583,Eighth,G4
711,Right,0,70,120,318.5,0.489583,Eighth,A#4
712,Right,0,75,120,319.0,0.489583,Eighth,D#5
713,Right,0,67,120,319.5,0.489583,Eighth,G4
714,Left,1,53,120,320.0,0.989583,Quarter,G#3_F3_B2
717,Right,0,74,120,320.0,0.489583,Eighth,D5
718,Right,0,65,120,320.5,0.489583,Eighth,F4
720,Right,0,75,120,321.0,0.489583,Eighth,D#5
719,Left,1,48,120,321.0,0.989583,Quarter,G3_D#3_C3
723,Right,0,63,120,321.5,0.489583,Eighth,D#4
724,Right,0,62,120,322.0,0.489583,Eighth,D4
725,Right,0,60,120,322.5,0.489583,Eighth,C4
727,Left,1,32,120,323.0,0.989583,Quarter,G#1
726,Right,0,58,120,323.0,0.489583,Eighth,A#3
728,Right,0,56,120,323.5,0.489583,Eighth,G#3
729,Left,1,34,120,324.0,0.989583,Quarter,A#1
730,Right,0,55,120,324.0,0.489583,Eighth,G3
731,Right,0,58,120,324.5,0.489583,Eighth,A#3
732,Left,1,46,120,325.0,0.989583,Quarter,A#2
733,Right,0,63,120,325.0,0.489583,Eighth,D#4
734,Right,0,55,120,325.5,0.489583,Eighth,G3
735,Left,1,46,120,326.0,0.989583,Quarter,A#2
736,Right,0,62,120,326.0,0.489583,Eighth,D4
737,Right,0,53,120,326.5,0.489583,Eighth,F3
739,Left,1,39,120,327.0,11.989583,Unknown,D#2
738,Right,0,63,120,327.0,0.989583,Quarter,G3_D#4
741,Left,1,51,120,328.0,0.989583,Quarter,D#3
742,Left,1,51,120,329.0,0.989583,Quarter,D#3
743,Left,1,49,120,330.0,0.989583,Quarter,C#3
744,Right,0,67,120,330.0,2.989583,DottedHalf,G4_G3_D#4_A#3
748,Left,1,51,120,331.0,0.989583,Quarter,D#3
749,Left,1,46,120,332.0,0.989583,Quarter,A#2
750,Right,0,60,120,333.0,2.989583,DottedHalf,G#4_G#3_D#4_C4
754,Left,1,48,120,333.0,0.989583,Quarter,C3
755,Left,1,51,120,334.0,0.989583,Quarter,D#3
756,Left,1,44,120,335.0,0.989583,Quarter,G#2
760,Left,1,50,120,336.0,0.989583,Quarter,D3
757,Right,0,56,120,336.0,2.989583,DottedHalf,G#3_D4_A#4
761,Left,1,53,120,337.0,0.989583,Quarter,F3
762,Left,1,46,120,338.0,0.989583,Quarter,A#2
765,Left,1,51,120,339.0,8.989583,Unknown,D#3
763,Right,0,55,120,339.0,0.989583,Quarter,G3_D#4
766,Right,0,75,120,340.0,0.989583,Quarter,D#5
767,Right,0,75,120,341.0,0.989583,Quarter,D#5
768,Left,1,58,120,342.0,2.989583,DottedHalf,G3_A#3
770,Right,0,73,120,342.0,0.989583,Quarter,C#5
771,Right,0,75,120,343.0,0.989583,Quarter,D#5
772,Right,0,70,120,344.0,0.989583,Quarter,A#4
773,Left,1,60,120,345.0,2.989583,DottedHalf,G#3_C4
774,Right,0,72,120,345.0,0.989583,Quarter,C5
776,Right,0,75,120,346.0,0.989583,Quarter,D#5
777,Right,0,68,120,347.0,0.989583,Quarter,G#4
780,Left,1,58,120,348.0,2.989583,DottedHalf,G#3_F3_D4_D#3_A#3
778,Right,0,74,120,348.0,2.989583,DottedHalf,G#4_F4_D5
786,Right,0,77,120,349.0,0.989583,Quarter,F5
787,Right,0,70,120,350.0,0.989583,Quarter,A#4
788,Right,0,75,120,351.0,0.489583,Eighth,G4_D#5
790,Left,1,55,120,351.0,0.989583,Quarter,G3_D#4_D#3_A#3
794,Right,0,70,120,351.5,0.489583,Eighth,A#4
795,Right,0,67,120,352.0,0.489583,Eighth,G4
796,Right,0,63,120,352.5,0.489583,Eighth,D#4
797,Right,0,58,120,353.0,0.489583,Eighth,A#3
798,Right,0,55,120,353.5,0.489583,Eighth,G3
799,Left,1,51,120,354.0,0.989583,Quarter,D#3_D#2
801,Left,1,58,80,357.0,1.989583,Half,A#3
802,Left,1,55,82,359.0,0.989583,Quarter,G3
804,Left,1,52,83,360.0,0.989583,Quarter,E3
803,Right,0,70,83,360.0,1.989583,Half,A#4
805,Left,1,55,84,361.0,0.989583,Quarter,G3
806,Right,0,67,85,362.0,0.989583,Quarter,G4
807,Left,1,58,85,362.0,0.989583,Quarter,A#3
808,Right,0,64,87,363.0,0.989583,Quarter,E4
809,Left,1,61,87,363.0,1.989583,Half,C#4
810,Right,0,67,88,364.0,0.989583,Quarter,G4
811,Right,0,70,89,365.0,0.989583,Quarter,A#4
812,Left,1,58,89,365.0,0.989583,Quarter,A#3
814,Right,0,73,90,366.0,1.989583,Half,C#5
813,Left,1,55,90,366.0,0.989583,Quarter,G3
815,Left,1,58,91,367.0,0.989583,Quarter,A#3
817,Right,0,70,92,368.0,0.989583,Quarter,A#4
816,Left,1,61,92,368.0,0.989583,Quarter,C#4
818,Left,1,64,94,369.0,1.989583,Half,E4
819,Right,0,67,94,369.0,0.989583,Quarter,G4
820,Right,0,70,95,370.0,0.989583,Quarter,A#4
822,Right,0,73,96,371.0,0.989583,Quarter,C#5
821,Left,1,61,96,371.0,0.989583,Quarter,C#4
824,Left,1,58,97,372.0,0.989583,Quarter,A#3
823,Right,0,76,97,372.0,1.989583,Half,E5
825,Left,1,61,98,373.0,0.989583,Quarter,C#4
826,Left,1,64,99,374.0,0.989583,Quarter,E4
827,Right,0,73,99,374.0,0.989583,Quarter,C#5
830,Right,0,70,100,375.0,0.989583,Quarter,A#4
828,Left,1,70,100,375.0,5.989583,Unknown,G4_A#4
831,Right,0,73,100,376.0,0.989583,Quarter,C#5
832,Right,0,76,100,377.0,0.989583,Quarter,E5
833,Right,0,79,100,378.0,0.989583,Quarter,G5
834,Right,0,77,100,379.0,0.989583,Quarter,F5
835,Right,0,76,100,380.0,0.989583,Quarter,E5
836,Left,1,68,100,381.0,5.989583,Unknown,G#4_C5
838,Right,0,76,100,381.0,0.989583,Quarter,E5
839,Right,0,77,100,382.0,0.989583,Quarter,F5
840,Right,0,77,100,383.0,0.489583,Eighth,F5
841,Right,0,79,100,383.25,0.489583,Eighth,G5
842,Right,0,76,100,383.5,0.489583,Eighth,E5
843,Right,0,77,100,383.75,0.489583,Eighth,F5
844,Right,0,80,100,384.0,0.989583,Quarter,G#5
845,Right,0,79,100,385.0,0.989583,Quarter,G5
846,Right,0,77,100,386.0,0.989583,Quarter,F5
847,Left,1,67,100,387.0,5.989583,Unknown,G4_C#5_A#4
850,Right,0,76,100,388.0,0.989583,Quarter,E5
851,Right,0,76,100,389.0,0.989583,Quarter,E5
852,Right,0,76,100,390.0,0.15625,TripletSixteenth,E5
853,Right,0,79,100,390.166667,0.8125,DottedEighth,G5
854,Right,0,77,100,391.0,0.989583,Quarter,F5
855,Right,0,76,100,392.0,0.989583,Quarter,E5
856,Left,1,68,100,393.0,5.989583,Unknown,G#4_C5
858,Right,0,77,100,394.0,0.989583,Quarter,F5
859,Right,0,77,100,395.0,0.989583,Quarter,F5
860,Right,0,77,100,396.0,0.15625,TripletSixteenth,F5
861,Right,0,80,100,396.166667,0.822917,DottedEighth,G#5
862,Right,0,79,100,397.0,0.989583,Quarter,G5
863,Right,0,77,100,398.0,0.989583,Quarter,F5
864,Left,1,68,100,399.0,5.989583,Unknown,G#4_F4
865,Right,0,75,100,399.0,0.989583,Quarter,D#5
867,Right,0,74,97,400.0,0.989583,Quarter,D5
868,Right,0,74,93,401.0,0.989583,Quarter,D5
869,Right,0,74,89,402.0,0.15625,TripletSixteenth,D5
870,Right,0,77,89,402.166667,0.822917,DottedEighth,F5
871,Right,0,75,86,403.0,0.989583,Quarter,D#5
872,Right,0,74,82,404.0,0.989583,Quarter,D5
875,Right,0,72,78,405.0,0.989583,Quarter,C5
873,Left,1,65,78,405.0,5.989583,Unknown,F4_D4
876,Right,0,70,74,406.0,0.989583,Quarter,A#4
877,Right,0,69,71,407.0,0.989583,Quarter,A4
878,Right,0,70,70,408.0,0.989583,Quarter,A#4
879,Right,0,72,70,409.0,0.989583,Quarter,C5
880,Right,0,68,70,410.0,0.989583,Quarter,G#4
881,Right,0,70,80,411.0,2.989583,Half,G4_D#4_A#4_A#3
885,Left,1,51,80,412.0,0.989583,Quarter,D#3
887,Left,1,55,80,413.0,0.989583,Quarter,G3
886,Right,0,67,80,413.0,0.989583,Quarter,G4
888,Left,1,58,80,414.0,6.989583,Unknown,A#3
889,Right,0,63,80,414.0,0.989583,Quarter,D#4
891,Right,0,67,80,415.0,3.989583,Whole,G4
890,Left,1,55,80,415.0,0.989583,Quarter,G3
893,Left,1,51,80,416.0,0.989583,Quarter,D#3
892,Right,0,70,80,416.0,4.989583,Unknown,A#4
894,Left,1,46,80,417.0,2.989583,DottedHalf,A#2
895,Right,0,75,80,417.0,0.989583,Quarter,D#5
896,Right,0,79,80,418.0,0.989583,Quarter,G5
899,Left,1,44,80,419.0,0.989583,Quarter,G#2
897,Right,0,65,80,419.0,0.989583,Quarter,F5_F4
900,Right,0,74,80,419.5,0.489583,Eighth,D5
901,Left,1,43,80,420.0,0.989583,Quarter,G2
902,Right,0,75,80,420.0,0.989583,Eighth,G4_D#5
904,Right,0,79,80,420.5,0.489583,Eighth,G5
905,Right,0,70,80,421.0,0.989583,Quarter,A#4
906,Left,1,56,80,423.0,1.989583,Quarter,G#3_D#4
908,Right,0,72,80,423.0,0.489583,Eighth,C5
909,Right,0,75,80,423.5,0.489583,Eighth,D#5
911,Left,1,55,80,424.0,0.989583,Quarter,G3
910,Right,0,70,80,424.0,0.989583,Quarter,A#4
912,Left,1,50,80,426.0,1.989583,Quarter,D3_A#3
913,Right,0,65,80,426.0,0.989583,Quarter,G#4_F4
916,Right,0,70,80,426.5,0.489583,Eighth,A#4
917,Right,0,67,80,427.0,0.989583,Quarter,G4_D#4
919,Left,1,51,80,427.0,0.989583,Quarter,D#3
920,Right,0,65,80,429.0,0.989583,Quarter,F4_D4
921,Left,1,58,80,429.0,1.989583,Half,A#3_A#2
924,Left,1,50,80,430.0,0.989583,Quarter,D3
925,Right,0,68,80,430.0,0.989583,Quarter,G#4_F4
927,Left,1,51,80,431.0,0.989583,Quarter,D#3_A#3
929,Right,0,63,80,431.0,0.989583,Quarter,G4_D#4
931,Right,0,65,80,432.0,0.989583,Quarter,F4_D4
932,Left,1,46,80,432.0,0.989583,Quarter,A#3_A#2
935,Right,0,58,80,435.0,2.989583,DottedHalf,F#4_D#4_A#4_A#3
939,Left,1,51,80,436.0,0.989583,Quarter,D#3
941,Left,1,54,80,437.0,0.989583,Quarter,F#3
940,Right,0,66,80,437.0,0.989583,Quarter,F#4
942,Right,0,63,80,438.0,0.989583,Quarter,D#4
943,Left,1,58,80,438.0,5.989583,Unknown,A#3
944,Right,0,66,80,439.0,3.989583,Whole,F#4
945,Left,1,54,80,439.0,0.989583,Quarter,F#3
946,Left,1,51,80,440.0,0.989583,Quarter,D#3
947,Right,0,70,80,440.0,2.989583,DottedHalf,A#4
948,Right,0,75,80,441.0,0.989583,Quarter,D#5
949,Left,1,46,80,441.0,2.989583,DottedHalf,A#2
950,Right,0,78,80,442.0,0.989583,Quarter,F#5
951,Right,0,65,80,443.0,0.989583,Quarter,G#4_F5_F4
954,Right,0,74,80,443.5,0.489583,Eighth,D5
955,Left,1,59,80,444.0,0.989583,Quarter,B3_B2
957,Right,0,75,80,444.0,0.989583,Quarter,F#4_D#5_D#4
960,Right,0,66,70,449.0,1.989583,Half,F#4_E5
961,Left,1,46,70,449.0,1.989583,Quarter,F#3_A#3_A#2
965,Right,0,73,71,449.5,0.489583,Eighth,C#5
966,Right,0,75,72,450.0,0.989583,Quarter,D#5
967,Left,1,47,72,450.0,0.989583,Quarter,B3_B2
969,Right,0,76,76,452.0,1.989583,Eighth,F#4_E5
970,Left,1,54,76,452.0,1.989583,Quarter,F#3_A#3_A#2
974,Right,0,73,78,452.5,0.489583,Eighth,C#5
976,Right,0,75,79,453.0,0.989583,Quarter,D#5
975,Left,1,47,79,453.0,0.989583,Quarter,B3_B2
980,Right,0,76,83,455.0,1.989583,Eighth,F#4_E5
978,Left,1,58,83,455.0,1.0,Quarter,F#3_A#3_A#2
983,Right,0,73,84,455.5,0.489583,Eighth,C#5
986,Right,0,75,86,456.0,0.989583,Quarter,D#5
984,Left,1,47,86,456.0,4.989583,Half,B3_B2
987,Right,0,66,88,457.0,2.989583,Half,F#5_F#4
989,Left,1,51,90,458.0,0.989583,Quarter,D#3
990,Right,0,68,93,459.0,2.989583,DottedHalf,G#4
991,Left,1,52,93,459.0,2.989583,DottedHalf,E3
992,Right,0,76,95,460.0,2.989583,DottedHalf,E5
993,Left,1,61,97,461.0,2.989583,DottedHalf,C#4
995,Left,1,55,99,462.0,5.989583,Unknown,G3
994,Right,0,70,99,462.0,0.989583,Quarter,A#4
996,Right,0,75,100,463.0,2.989583,Half,D#5_B4
998,Left,1,63,100,464.0,0.989583,Quarter,D#4
999,Left,1,64,100,465.0,0.989583,Quarter,E4
1000,Right,0,73,100,465.0,2.989583,DottedHalf,C#5
1001,Left,1,66,100,466.0,0.989583,Quarter,F#4
1002,Right,0,70,100,466.0,1.989583,Half,A#4
1003,Left,1,64,100,467.0,0.989583,Quarter,E4
1004,Left,1,63,100,468.0,4.989583,Quarter,D#4_B3
1006,Right,0,71,100,468.0,0.989583,Quarter,D#5_B4
1008,Right,0,66,100,469.0,2.989583,Half,F#5_F#4
1010,Left,1,51,100,470.0,0.989583,Quarter,D#3
1012,Right,0,68,100,471.0,2.989583,DottedHalf,G#4
1011,Left,1,52,100,471.0,2.989583,DottedHalf,E3
1013,Right,0,76,100,472.0,2.989583,DottedHalf,E5
1014,Left,1,61,100,473.0,2.989583,DottedHalf,C#4
1015,Left,1,54,100,474.0,2.989583,DottedHalf,F#3
1016,Right,0,70,100,474.0,0.989583,Quarter,A#4
1017,Right,0,75,100,475.0,2.989583,DottedHalf,D#5_B4
1019,Left,1,63,100,476.0,2.989583,DottedHalf,D#4
1020,Right,0,70,100,477.0,2.989583,DottedHalf,A#4
1021,Left,1,55,100,477.0,2.989583,DottedHalf,G3
1022,Right,0,73,98,478.0,2.989583,DottedHalf,C#5
1023,Left,1,63,95,479.0,2.989583,DottedHalf,D#4
1024,Left,1,56,92,480.0,2.989583,DottedHalf,G#3
1025,Right,0,71,90,481.0,2.989583,DottedHalf,B4
1026,Left,1,63,87,482.0,2.989583,DottedHalf,D#4
1027,Left,1,58,84,483.0,2.989583,DottedHalf,A#3
1028,Right,0,70,81,484.0,2.989583,DottedHalf,A#4
1029,Left,1,63,79,485.0,2.989583,DottedHalf,D#4
1030,Left,1,59,76,486.0,2.989583,DottedHalf,B3
1031,Right,0,69,73,487.0,0.989583,Quarter,A4
1032,Left,1,63,71,488.0,0.989583,Quarter,D#4
1033,Left,1,58,100,492.0,0.989583,Quarter,A#3
1034,Right,0,70,100,493.0,0.989583,Quarter,A#4
1035,Right,0,70,100,494.0,0.989583,Quarter,A#4
1036,Right,0,70,101,495.0,0.989583,Quarter,A#4
1037,Right,0,70,101,496.0,0.989583,Quarter,A#4
1039,Left,1,65,102,497.0,0.489583,Eighth,F4
1038,Right,0,80,102,497.0,0.989583,Eighth,G#5_A#4
1042,Right,0,77,102,497.5,0.489583,Eighth,F5
1041,Left,1,62,102,497.5,0.489583,Eighth,D4
1043,Left,1,63,103,498.0,0.989583,Quarter,D#4
1044,Right,0,79,103,498.0,0.989583,Quarter,G5_A#4
1047,Left,1,58,103,499.0,0.989583,Quarter,A#3
1046,Right,0,70,103,499.0,0.989583,Quarter,A#4
1049,Left,1,68,104,500.0,0.489583,Eighth,G#4
1048,Right,0,77,104,500.0,0.989583,Eighth,F5_A#4
1052,Right,0,74,104,500.5,0.489583,Eighth,D5
1051,Left,1,65,104,500.5,0.489583,Eighth,F4
1053,Right,0,75,105,501.0,0.989583,Quarter,D#5_A#4
1054,Left,1,67,105,501.0,0.989583,Quarter,G4
1056,Right,0,70,105,502.0,0.989583,Quarter,A#4
1057,Left,1,58,105,502.0,0.989583,Quarter,A#3
1058,Right,0,70,106,503.0,0.989583,Quarter,G#5_A#4
1060,Left,1,65,106,503.0,0.489583,Eighth,F4
1061,Right,0,77,106,503.5,0.489583,Eighth,F5
1062,Left,1,62,106,503.5,0.489583,Eighth,D4
1064,Left,1,63,106,504.0,0.989583,Quarter,D#4
1063,Right,0,79,106,504.0,0.989583,Quarter,G5_A#4
1066,Left,1,58,107,505.0,0.989583,Quarter,A#3
1067,Right,0,70,107,505.0,0.989583,Quarter,A#4
1068,Left,1,68,108,506.0,0.489583,Eighth,G#4
1069,Right,0,77,108,506.0,0.989583,Eighth,F5_A#4
1071,Left,1,65,108,506.5,0.489583,Eighth,F4
1072,Right,0,74,108,506.5,0.489583,Eighth,D5
1073,Right,0,75,108,507.0,0.989583,Quarter,D#5
1074,Left,1,67,108,507.0,0.989583,Quarter,G4
1076,Left,1,63,109,508.0,0.989583,Quarter,D#4
1075,Right,0,75,109,508.0,0.989583,Quarter,D#5
1077,Right,0,84,110,509.0,0.989583,Eighth,D#5_C6
1079,Left,1,68,110,509.0,0.489583,Eighth,G#4
1080,Left,1,65,110,509.5,0.489583,Eighth,F4
1081,Right,0,80,110,509.5,0.489583,Eighth,G#5
1083,Right,0,75,110,510.0,0.989583,Quarter,D#5_A#5
1082,Left,1,67,110,510.0,0.989583,Quarter,G4
1086,Right,0,75,110,511.0,0.989583,Quarter,D#5
1085,Left,1,63,110,511.0,0.989583,Quarter,D#4
1089,Left,1,72,110,512.0,0.489583,Eighth,C5
1087,Right,0,80,110,512.0,0.989583,Eighth,G#5_D#5
1090,Right,0,78,110,512.5,0.489583,Eighth,F#5
1091,Left,1,69,110,512.5,0.489583,Eighth,A4
1093,Right,0,79,110,513.0,0.989583,Quarter,G5_D#5
1092,Left,1,70,110,513.0,0.989583,Quarter,A#4
1095,Right,0,75,110,514.0,0.989583,Quarter,D#5
1096,Left,1,63,110,514.0,0.989583,Quarter,D#4
1097,Right,0,75,110,515.0,0.989583,Quarter,D#5_C6
1099,Left,1,68,110,515.0,0.489583,Eighth,G#4
1101,Right,0,80,110,515.5,0.489583,Eighth,G#5
1100,Left,1,65,110,515.5,0.489583,Eighth,F4
1104,Left,1,67,110,516.0,0.989583,Quarter,G4
1102,Right,0,82,110,516.0,0.989583,Quarter,D#5_A#5
1106,Right,0,75,110,517.0,0.989583,Quarter,D#5
1105,Left,1,63,110,517.0,0.989583,Quarter,D#4
1108,Left,1,72,110,518.0,0.489583,Eighth,C5
1107,Right,0,80,110,518.0,0.989583,Eighth,G#5_D#5
1110,Left,1,69,110,518.5,0.489583,Eighth,A4
1111,Right,0,78,110,518.5,0.489583,Eighth,F#5
1114,Left,1,70,110,519.0,0.989583,Quarter,A#4
1112,Right,0,79,110,519.0,0.989583,Quarter,G5_D#5
1115,Left,1,63,110,520.0,0.989583,Quarter,D#4
1116,Right,0,75,110,520.0,0.989583,Quarter,D#5
1117,Right,0,75,120,521.0,0.989583,Quarter,D#5_C#6
1118,Left,1,67,120,521.0,1.989583,Quarter,G4_G3_D#4
1122,Right,0,82,120,521.5,0.489583,Eighth,A#5
1125,Right,0,84,120,522.0,0.489583,Eighth,C6
1123,Left,1,56,120,522.0,0.989583,Quarter,G#4_G#3
1126,Right,0,87,120,522.5,0.489583,Eighth,D#6
1127,Right,0,86,120,523.0,0.489583,Eighth,D6
1128,Right,0,84,120,523.5,0.489583,Eighth,C6
1130,Right,0,82,120,524.0,0.489583,Eighth,A#5
1129,Left,1,56,120,524.0,0.989583,Quarter,G#3
1131,Right,0,80,120,524.5,0.489583,Eighth,G#5
1132,Right,0,79,120,525.0,0.489583,Eighth,G5
1133,Left,1,58,120,525.0,0.989583,Quarter,A#3
1134,Right,0,82,120,525.5,0.489583,Eighth,A#5
1135,Right,0,87,120,526.0,0.489583,Eighth,D#6
1136,Right,0,79,120,526.5,0.489583,Eighth,G5
1137,Right,0,86,120,527.0,0.489583,Eighth,D6
1138,Left,1,65,120,527.0,0.989583,Quarter,G#4_F4_B3
1141,Right,0,77,120,527.5,0.489583,Eighth,F5
1144,Right,0,87,120,528.0,0.489583,Eighth,D#6
1142,Left,1,63,120,528.0,0.989583,Quarter,G4_D#4_C4
1146,Right,0,75,120,528.5,0.489583,Eighth,D#5
1147,Right,0,74,120,529.0,0.489583,Eighth,D5
1148,Right,0,72,120,529.5,0.489583,Eighth,C5
1149,Left,1,44,120,530.0,0.989583,Quarter,G#2
1150,Right,0,70,120,530.0,0.489583,Eighth,A#4
1151,Right,0,68,120,530.5,0.489583,Eighth,G#4
1152,Left,1,46,120,531.0,0.989583,Quarter,A#2
1153,Right,0,67,120,531.0,0.489583,Eighth,G4
1154,Right,0,70,120,531.5,0.489583,Eighth,A#4
1155,Right,0,75,120,532.0,0.489583,Eighth,D#5
1156,Right,0,67,120,532.5,0.489583,Eighth,G4
1157,Right,0,74,120,533.0,0.489583,Eighth,D5
1158,Left,1,47,120,533.0,0.989583,Quarter,G#3_F3_B2
1161,Right,0,65,120,533.5,0.489583,Eighth,F4
1162,Right,0,75,120,534.0,0.489583,Eighth,D#5
1163,Left,1,51,120,534.0,0.989583,Quarter,G3_D#3_C3
1166,Right,0,63,120,534.5,0.489583,Eighth,D#4
1167,Right,0,62,120,535.0,0.489583,Eighth,D4
1168,Right,0,60,120,535.5,0.489583,Eighth,C4
1169,Left,1,32,120,536.0,0.989583,Quarter,G#1
1170,Right,0,58,120,536.0,0.489583,Eighth,A#3
1171,Right,0,56,120,536.5,0.489583,Eighth,G#3
1172,Left,1,34,120,537.0,0.989583,Quarter,A#1
1173,Right,0,55,120,537.0,0.489583,Eighth,G3
1174,Right,0,58,120,537.5,0.489583,Eighth,A#3
1175,Left,1,46,120,538.0,0.989583,Quarter,A#2
1176,Right,0,63,120,538.0,0.489583,Eighth,D#4
1177,Right,0,55,120,538.5,0.489583,Eighth,G3
1179,Right,0,62,120,539.0,0.489583,Eighth,D4
1178,Left,1,46,120,539.0,0.989583,Quarter,A#2
1180,Right,0,53,120,539.5,0.489583,Eighth,F3
1182,Right,0,55,120,540.0,0.989583,Quarter,G3_D#4
1181,Left,1,39,120,540.0,11.989583,Unknown,D#2
1184,Left,1,51,120,541.0,0.989583,Quarter,D#3
1185,Left,1,51,120,542.0,0.989583,Quarter,D#3
1186,Left,1,49,120,543.0,0.989583,Quarter,C#3
1187,Right,0,63,120,543.0,2.989583,DottedHalf,G4_G3_D#4_A#3
1191,Left,1,51,120,544.0,0.989583,Quarter,D#3
1192,Left,1,46,120,545.0,0.989583,Quarter,A#2
1195,Left,1,48,120,546.0,0.989583,Quarter,C3
1193,Right,0,56,120,546.0,2.989583,DottedHalf,G#4_G#3_D#4_C4
1198,Left,1,51,120,547.0,0.989583,Quarter,D#3
1199,Left,1,44,120,548.0,0.989583,Quarter,G#2
1200,Left,1,50,120,549.0,0.989583,Quarter,D3
1201,Right,0,70,120,549.0,2.989583,DottedHalf,G#3_D4_A#4
1204,Left,1,53,120,550.0,0.989583,Quarter,F3
1205,Left,1,46,120,551.0,0.989583,Quarter,A#2
1206,Left,1,51,120,552.0,8.989583,Unknown,D#3
1207,Right,0,55,120,552.0,0.989583,Quarter,G3_D#4
1209,Right,0,75,120,553.0,0.989583,Quarter,D#5
1210,Right,0,75,120,554.0,0.989583,Quarter,D#5
1212,Left,1,55,120,555.0,2.989583,DottedHalf,G3_A#3
1211,Right,0,73,120,555.0,0.989583,Quarter,C#5
1214,Right,0,75,120,556.0,0.989583,Quarter,D#5
1215,Right,0,70,120,557.0,0.989583,Quarter,A#4
1217,Right,0,72,120,558.0,0.989583,Quarter,C5
1216,Left,1,60,120,558.0,2.989583,DottedHalf,G#3_C4
1219,Right,0,75,120,559.0,0.989583,Quarter,D#5
1220,Right,0,68,120,560.0,0.989583,Quarter,G#4
1221,Left,1,56,120,561.0,2.989583,DottedHalf,G#3_F3_D4_D#3_A#3
1223,Right,0,65,120,561.0,2.989583,DottedHalf,G#4_F4_D5
1229,Right,0,77,120,562.0,0.989583,Quarter,F5
1230,Right,0,70,120,563.0,0.989583,Quarter,A#4
1232,Left,1,63,120,564.0,0.989583,Quarter,G3_D#4_D#3_A#3
1231,Right,0,75,120,564.0,0.489583,Eighth,G4_D#5
1237,Right,0,70,120,564.5,0.489583,Eighth,A#4
1238,Right,0,67,120,565.0,0.489583,Eighth,G4
1239,Right,0,63,120,565.5,0.489583,Eighth,D#4
1240,Right,0,58,120,566.0,0.489583,Eighth,A#3
1241,Right,0,55,120,566.5,0.489583,Eighth,G3
1242,Left,1,51,120,567.0,0.989583,Quarter,D#3_D#2
1244,Right,0,58,100,569.0,0.989583,Quarter,A#3
1245,Right,0,54,70,570.0,0.65625,DottedEighth,F#3
1246,Left,1,39,70,570.0,0.65625,DottedEighth,D#2
1248,Left,1,46,70,570.333333,0.65625,DottedEighth,A#2
1247,Right,0,58,70,570.333333,0.65625,DottedEighth,A#3
1249,Left,1,51,70,570.666667,0.65625,DottedEighth,D#3
1250,Right,0,66,70,570.666667,0.65625,DottedEighth,F#4
1252,Right,0,54,70,571.0,0.65625,DottedEighth,F#3
1251,Left,1,39,70,571.0,0.65625,DottedEighth,D#2
1253,Left,1,46,70,571.333333,0.65625,DottedEighth,A#2
1254,Right,0,58,70,571.333333,0.65625,DottedEighth,A#3
1256,Left,1,51,70,571.666667,0.65625,DottedEighth,D#3
1255,Right,0,66,70,571.666667,0.65625,DottedEighth,F#4
1257,Left,1,39,70,572.0,0.65625,DottedEighth,D#2
1258,Right,0,54,70,572.0,0.65625,DottedEighth,F#3
1260,Left,1,46,70,572.333333,0.65625,DottedEighth,A#2
1259,Right,0,58,70,572.333333,0.65625,DottedEighth,A#3
1262,Right,0,66,70,572.666667,0.65625,DottedEighth,F#4
1261,Left,1,51,70,572.666667,0.65625,DottedEighth,D#3
1264,Right,0,54,70,573.0,0.65625,DottedEighth,F#3
1263,Left,1,39,70,573.0,0.65625,DottedEighth,D#2
1266,Right,0,58,70,573.333333,0.65625,DottedEighth,A#3
1265,Left,1,46,70,573.333333,0.65625,DottedEighth,A#2
1268,Right,0,66,70,573.666667,0.65625,DottedEighth,F#4
1267,Left,1,51,70,573.666667,0.65625,DottedEighth,D#3
1269,Right,0,53,70,574.0,0.65625,DottedEighth,F3
1270,Left,1,38,70,574.0,0.65625,DottedEighth,D2
1272,Left,1,46,70,574.333333,0.65625,DottedEighth,A#2
1271,Right,0,58,70,574.333333,0.65625,DottedEighth,A#3
1274,Right,0,65,70,574.666667,0.65625,DottedEighth,F4
1273,Left,1,50,70,574.666667,0.65625,DottedEighth,D3
1275,Left,1,39,70,575.0,0.65625,DottedEighth,D#2
1276,Right,0,54,70,575.0,0.65625,DottedEighth,F#3
1277,Left,1,46,70,575.333333,0.65625,DottedEighth,A#2
1278,Right,0,58,70,575.333333,0.65625,DottedEighth,A#3
1280,Right,0,66,70,575.666667,0.65625,DottedEighth,F#4
1279,Left,1,51,70,575.666667,0.65625,DottedEighth,D#3
1282,Right,0,56,104,576.0,0.65625,DottedEighth,G#3
1281,Left,1,41,96,576.0,0.65625,DottedEighth,F2
1284,Right,0,58,70,576.333333,0.65625,DottedEighth,A#3
1283,Left,1,46,70,576.333333,0.65625,DottedEighth,A#2
1285,Right,0,68,70,576.666667,0.65625,DottedEighth,G#4
1286,Left,1,53,70,576.666667,0.65625,DottedEighth,F3
1288,Right,0,56,70,577.0,0.65625,DottedEighth,G#3
1287,Left,1,41,70,577.0,0.65625,DottedEighth,F2
1289,Right,0,58,70,577.333333,0.65625,DottedEighth,A#3
1290,Left,1,46,70,577.333333,0.65625,DottedEighth,A#2
1291,Right,0,68,70,577.666667,0.65625,DottedEighth,G#4
1292,Left,1,53,70,577.666667,0.65625,DottedEighth,F3
1293,Right,0,56,70,578.0,0.65625,DottedEighth,G#3
1294,Left,1,41,70,578.0,0.65625,DottedEighth,F2
1296,Right,0,58,70,578.333333,0.65625,DottedEighth,A#3
1295,Left,1,46,70,578.333333,0.65625,DottedEighth,A#2
1298,Right,0,68,80,578.666667,0.65625,DottedEighth,G#4
1297,Left,1,53,80,578.666667,0.65625,DottedEighth,F3
1300,Right,0,56,82,579.0,0.65625,DottedEighth,G#3
1299,Left,1,41,80,579.0,0.65625,DottedEighth,F2
1302,Right,0,58,80,579.333333,0.65625,DottedEighth,A#3
1301,Left,1,46,80,579.333333,0.65625,DottedEighth,A#2
1303,Left,1,53,80,579.666667,0.65625,DottedEighth,F3
1304,Right,0,68,80,579.666667,0.65625,DottedEighth,G#4
1305,Left,1,41,80,580.0,0.65625,DottedEighth,F2
1306,Right,0,56,80,580.0,0.65625,DottedEighth,G#3
1307,Left,1,46,80,580.333333,0.65625,DottedEighth,A#2
1308,Right,0,58,80,580.333333,0.65625,DottedEighth,A#3
1310,Right,0,68,80,580.666667,0.65625,DottedEighth,G#4
1309,Left,1,53,80,580.666667,0.65625,DottedEighth,F3
1311,Left,1,41,80,581.0,0.65625,DottedEighth,F2
1312,Right,0,56,80,581.0,0.65625,DottedEighth,G#3
1314,Left,1,46,80,581.333333,0.65625,DottedEighth,A#2
1313,Right,0,58,80,581.333333,0.65625,DottedEighth,A#3
1316,Left,1,53,80,581.666667,0.322917,Triplet,F3
1315,Right,0,68,80,581.666667,0.322917,Triplet,G#4
1318,Right,0,54,80,582.0,0.65625,DottedEighth,F#3
1317,Left,1,39,80,582.0,0.65625,DottedEighth,D#2
1320,Left,1,46,80,582.333333,0.65625,DottedEighth,A#2
1319,Right,0,58,80,582.333333,0.65625,DottedEighth,A#3
1322,Right,0,66,80,582.666667,0.65625,DottedEighth,F#4
1321,Left,1,51,80,582.666667,0.65625,DottedEighth,D#3
1323,Left,1,39,80,583.0,0.65625,DottedEighth,D#2
1324,Right,0,54,80,583.0,0.65625,DottedEighth,F#3
1326,Left,1,46,80,583.333333,0.65625,DottedEighth,A#2
1325,Right,0,58,80,583.333333,0.65625,DottedEighth,A#3
1327,Left,1,51,80,583.666667,0.65625,DottedEighth,D#3
1328,Right,0,66,80,583.666667,0.65625,DottedEighth,F#4
1329,Left,1,39,80,584.0,0.65625,DottedEighth,D#2
1330,Right,0,54,80,584.0,0.65625,DottedEighth,F#3
1331,Left,1,46,80,584.333333,0.65625,DottedEighth,A#2
1332,Right,0,58,80,584.333333,0.65625,DottedEighth,A#3
1333,Right,0,66,80,584.666667,0.65625,DottedEighth,F#4
1334,Left,1,51,80,584.666667,0.65625,DottedEighth,D#3
1336,Right,0,54,80,585.0,0.65625,DottedEighth,F#3
1335,Left,1,39,80,585.0,0.65625,DottedEighth,D#2
1338,Right,0,58,80,585.333333,0.65625,DottedEighth,A#3
1337,Left,1,46,80,585.333333,0.65625,DottedEighth,A#2
1339,Right,0,66,80,585.666667,0.65625,DottedEighth,F#4
1340,Left,1,51,80,585.666667,0.65625,DottedEighth,D#3
1342,Left,1,38,80,586.0,0.65625,DottedEighth,D2
1341,Right,0,53,80,586.0,0.65625,DottedEighth,F3
1343,Left,1,46,80,586.333333,0.65625,DottedEighth,A#2
1344,Right,0,58,80,586.333333,0.65625,DottedEighth,A#3
1345,Left,1,50,80,586.666667,0.65625,DottedEighth,D3
1346,Right,0,65,80,586.666667,0.65625,DottedEighth,F4
1348,Right,0,54,80,587.0,0.65625,DottedEighth,F#3
1347,Left,1,39,80,587.0,0.65625,DottedEighth,D#2
1350,Right,0,58,80,587.333333,0.65625,DottedEighth,A#3
1349,Left,1,46,80,587.333333,0.65625,DottedEighth,A#2
1351,Right,0,66,80,587.666667,0.65625,DottedEighth,F#4
1352,Left,1,51,80,587.666667,0.65625,DottedEighth,D#3
1353,Right,0,56,80,588.0,0.65625,DottedEighth,G#3
1354,Left,1,41,80,588.0,0.65625,DottedEighth,F2
1355,Right,0,61,80,588.333333,0.65625,DottedEighth,C#4
1356,Left,1,49,80,588.333333,0.65625,DottedEighth,C#3
1357,Left,1,53,80,588.666667,0.65625,DottedEighth,F3
1358,Right,0,68,80,588.666667,0.65625,DottedEighth,G#4
1359,Left,1,41,80,589.0,0.65625,DottedEighth,F2
1360,Right,0,56,80,589.0,0.65625,DottedEighth,G#3
1361,Left,1,49,80,589.333333,0.65625,DottedEighth,C#3
1362,Right,0,61,80,589.333333,0.65625,DottedEighth,C#4
1364,Left,1,53,80,589.666667,0.65625,DottedEighth,F3
1363,Right,0,68,80,589.666667,0.65625,DottedEighth,G#4
1366,Left,1,41,80,590.0,0.65625,DottedEighth,F2
1365,Right,0,56,80,590.0,0.65625,DottedEighth,G#3
1368,Right,0,61,80,590.333333,0.65625,DottedEighth,C#4
1367,Left,1,49,80,590.333333,0.65625,DottedEighth,C#3
1369,Left,1,53,80,590.666667,0.65625,DottedEighth,F3
1370,Right,0,68,80,590.666667,0.65625,DottedEighth,G#4
1372,Right,0,56,80,591.0,0.65625,DottedEighth,G#3
1371,Left,1,41,80,591.0,0.65625,DottedEighth,F2
1373,Left,1,49,80,591.333333,0.65625,DottedEighth,C#3
1374,Right,0,61,80,591.333333,0.65625,DottedEighth,C#4
1375,Left,1,53,80,591.666667,0.65625,DottedEighth,F3
1376,Right,0,68,80,591.666667,0.65625,DottedEighth,G#4
1378,Right,0,56,80,592.0,0.65625,DottedEighth,G#3
1377,Left,1,41,80,592.0,0.65625,DottedEighth,F2
1380,Right,0,61,80,592.333333,0.65625,DottedEighth,C#4
1379,Left,1,49,80,592.333333,0.65625,DottedEighth,C#3
1381,Left,1,53,80,592.666667,0.65625,DottedEighth,F3
1382,Right,0,68,80,592.666667,0.65625,DottedEighth,G#4
1384,Left,1,41,80,593.0,0.65625,DottedEighth,F2
1383,Right,0,56,80,593.0,0.65625,DottedEighth,G#3
1385,Right,0,61,80,593.333333,0.65625,DottedEighth,C#4
1386,Left,1,49,80,593.333333,0.65625,DottedEighth,C#3
1387,Right,0,68,80,593.666667,0.65625,DottedEighth,G#4
1388,Left,1,53,80,593.666667,0.65625,DottedEighth,F3
1390,Left,1,42,81,594.0,0.65625,DottedEighth,F#2
1389,Right,0,58,81,594.0,0.65625,DottedEighth,A#3
1391,Left,1,49,82,594.333333,0.65625,DottedEighth,C#3
1392,Right,0,61,82,594.333333,0.65625,DottedEighth,C#4
1393,Right,0,70,83,594.666667,0.65625,DottedEighth,A#4
1394,Left,1,54,83,594.666667,0.65625,DottedEighth,F#3
1396,Right,0,58,84,595.0,0.65625,DottedEighth,A#3
1395,Left,1,42,84,595.0,0.65625,DottedEighth,F#2
1397,Right,0,61,85,595.333333,0.65625,DottedEighth,C#4
1398,Left,1,49,85,595.333333,0.65625,DottedEighth,C#3
1400,Right,0,70,86,595.666667,0.65625,DottedEighth,A#4
1399,Left,1,54,86,595.666667,0.65625,DottedEighth,F#3
1402,Right,0,58,87,596.0,0.65625,DottedEighth,A#3
1401,Left,1,42,87,596.0,0.65625,DottedEighth,F#2
1404,Left,1,49,88,596.333333,0.65625,DottedEighth,C#3
1403,Right,0,61,88,596.333333,0.65625,DottedEighth,C#4
1405,Right,0,70,89,596.666667,0.65625,DottedEighth,A#4
1406,Left,1,54,89,596.666667,0.65625,DottedEighth,F#3
1408,Left,1,30,90,597.0,0.65625,DottedEighth,F#1
1407,Right,0,58,90,597.0,0.65625,DottedEighth,A#3
1410,Right,0,61,91,597.333333,0.65625,DottedEighth,C#4
1409,Left,1,37,91,597.333333,0.65625,DottedEighth,C#2
1412,Left,1,42,92,597.666667,0.65625,DottedEighth,F#2
1411,Right,0,70,92,597.666667,0.65625,DottedEighth,A#4
1413,Right,0,58,93,598.0,0.65625,DottedEighth,A#3
1414,Left,1,30,93,598.0,0.65625,DottedEighth,F#1
1416,Left,1,37,94,598.333333,0.65625,DottedEighth,C#2
1415,Right,0,61,94,598.333333,0.65625,DottedEighth,C#4
1417,Right,0,70,95,598.666667,0.65625,DottedEighth,A#4
1418,Left,1,42,95,598.666667,0.65625,DottedEighth,F#2
1420,Right,0,58,96,599.0,0.65625,DottedEighth,A#3
1419,Left,1,30,96,599.0,0.65625,DottedEighth,F#1
1422,Left,1,37,97,599.333333,0.65625,DottedEighth,C#2
1421,Right,0,61,97,599.333333,0.65625,DottedEighth,C#4
1424,Right,0,70,98,599.666667,0.65625,DottedEighth,A#4
1423,Left,1,42,98,599.666667,0.65625,DottedEighth,F#2
1425,Right,0,58,80,600.0,0.65625,DottedEighth,A#3
1426,Left,1,35,80,600.0,0.65625,DottedEighth,B1
1428,Left,1,39,80,600.333333,0.65625,DottedEighth,D#2
1427,Right,0,63,80,600.333333,0.65625,DottedEighth,D#4
1429,Right,0,70,80,600.666667,0.65625,DottedEighth,A#4
1430,Left,1,47,80,600.666667,0.65625,DottedEighth,B2
1431,Right,0,56,79,601.0,0.65625,DottedEighth,G#3
1432,Left,1,35,79,601.0,0.65625,DottedEighth,B1
1433,Left,1,39,79,601.333333,0.65625,DottedEighth,D#2
1434,Right,0,63,79,601.333333,0.65625,DottedEighth,D#4
1436,Right,0,68,79,601.666667,0.65625,DottedEighth,G#4
1435,Left,1,47,79,601.666667,0.65625,DottedEighth,B2
1438,Left,1,35,78,602.0,0.65625,DottedEighth,B1
1437,Right,0,56,78,602.0,0.65625,DottedEighth,G#3
1440,Right,0,63,78,602.333333,0.65625,DottedEighth,D#4
1439,Left,1,39,78,602.333333,0.65625,DottedEighth,D#2
1441,Left,1,47,77,602.666667,0.65625,DottedEighth,B2
1442,Right,0,68,77,602.666667,0.65625,DottedEighth,G#4
1443,Left,1,35,77,603.0,0.65625,DottedEighth,B1
1444,Right,0,56,77,603.0,0.65625,DottedEighth,G#3
1445,Left,1,39,77,603.333333,0.65625,DottedEighth,D#2
1446,Right,0,63,77,603.333333,0.65625,DottedEighth,D#4
1447,Right,0,68,76,603.666667,0.65625,DottedEighth,G#4
1448,Left,1,47,76,603.666667,0.65625,DottedEighth,B2
1449,Right,0,54,76,604.0,0.65625,DottedEighth,F#3
1450,Left,1,35,76,604.0,0.65625,DottedEighth,B1
1452,Left,1,39,75,604.333333,0.65625,DottedEighth,D#2
1451,Right,0,56,75,604.333333,0.65625,DottedEighth,G#3
1453,Left,1,47,75,604.666667,0.65625,DottedEighth,B2
1454,Right,0,66,75,604.666667,0.65625,DottedEighth,F#4
1456,Left,1,35,75,605.0,0.65625,DottedEighth,B1
1455,Right,0,54,75,605.0,0.65625,DottedEighth,F#3
1458,Right,0,56,74,605.333333,0.65625,DottedEighth,G#3
1457,Left,1,39,74,605.333333,0.65625,DottedEighth,D#2
1459,Left,1,47,74,605.666667,0.65625,DottedEighth,B2
1460,Right,0,66,74,605.666667,0.65625,DottedEighth,F#4
1462,Right,0,54,73,606.0,0.65625,DottedEighth,F#3
1461,Left,1,35,73,606.0,0.65625,DottedEighth,B1
1464,Right,0,56,73,606.333333,0.65625,DottedEighth,G#3
1463,Left,1,39,73,606.333333,0.65625,DottedEighth,D#2
1466,Left,1,47,73,606.666667,0.65625,DottedEighth,B2
1465,Right,0,66,73,606.666667,0.65625,DottedEighth,F#4
1468,Left,1,35,72,607.0,0.65625,DottedEighth,B1
1467,Right,0,53,72,607.0,0.65625,DottedEighth,F3
1470,Left,1,39,72,607.333333,0.65625,DottedEighth,D#2
1469,Right,0,56,72,607.333333,0.65625,DottedEighth,G#3
1471,Left,1,47,71,607.666667,0.65625,DottedEighth,B2
1472,Right,0,65,71,607.666667,0.65625,DottedEighth,F4
1474,Right,0,53,71,608.0,0.65625,DottedEighth,F3
1473,Left,1,35,71,608.0,0.65625,DottedEighth,B1
1476,Right,0,56,71,608.333333,0.65625,DottedEighth,G#3
1475,Left,1,39,71,608.333333,0.65625,DottedEighth,D#2
1478,Right,0,65,70,608.666667,0.65625,DottedEighth,F4
1477,Left,1,47,70,608.666667,0.65625,DottedEighth,B2
1479,Right,0,53,70,609.0,0.65625,DottedEighth,F3
1480,Left,1,35,70,609.0,0.65625,DottedEighth,B1
1481,Right,0,56,70,609.333333,0.65625,DottedEighth,G#3
1482,Left,1,39,70,609.333333,0.65625,DottedEighth,D#2
1483,Left,1,47,69,609.666667,0.65625,DottedEighth,B2
1484,Right,0,65,69,609.666667,0.65625,DottedEighth,F4
1485,Right,0,54,69,610.0,0.65625,DottedEighth,F#3
1486,Left,1,35,69,610.0,0.65625,DottedEighth,B1
1487,Right,0,57,68,610.333333,0.65625,DottedEighth,A3
1488,Left,1,39,68,610.333333,0.65625,DottedEighth,D#2
1489,Right,0,66,68,610.666667,0.65625,DottedEighth,F#4
1490,Left,1,47,68,610.666667,0.65625,DottedEighth,B2
1492,Left,1,35,68,611.0,0.65625,DottedEighth,B1
1491,Right,0,54,68,611.0,0.65625,DottedEighth,F#3
1493,Right,0,57,67,611.333333,0.65625,DottedEighth,A3
1494,Left,1,39,67,611.333333,0.65625,DottedEighth,D#2
1495,Left,1,47,67,611.666667,0.322917,Triplet,B2
1496,Right,0,63,67,611.666667,0.322917,Triplet,D#4
1499,Left,1,34,66,612.0,0.989583,Quarter,A#2_A#1
1497,Right,0,58,66,612.0,0.989583,Quarter,D4_D3_A#3
1502,Right,0,53,65,613.0,0.989583,Quarter,F4_F3_D4_A#3
1504,Left,1,46,65,613.0,0.989583,Quarter,A#2
1511,Left,1,46,64,614.0,0.989583,Quarter,A#2
1507,Right,0,65,64,614.0,0.989583,Quarter,F4_F3_D4_A#3
1512,Right,0,62,63,615.0,0.989583,Quarter,F4_F3_D4_A#3
1515,Left,1,46,63,615.0,0.989583,Quarter,A#2
1517,Right,0,58,61,617.0,0.989583,Quarter,A#3
1518,Right,0,54,70,618.0,0.65625,DottedEighth,F#3
1519,Left,1,39,70,618.0,0.65625,DottedEighth,D#2
1520,Right,0,58,70,618.333333,0.65625,DottedEighth,A#3
1521,Left,1,46,70,618.333333,0.65625,DottedEighth,A#2
1522,Right,0,66,70,618.666667,0.65625,DottedEighth,F#4
1523,Left,1,51,70,618.666667,0.65625,DottedEighth,D#3
1524,Right,0,54,70,619.0,0.65625,DottedEighth,F#3
1525,Left,1,39,70,619.0,0.65625,DottedEighth,D#2
1527,Left,1,46,70,619.333333,0.65625,DottedEighth,A#2
1526,Right,0,58,70,619.333333,0.65625,DottedEighth,A#3
1529,Right,0,66,70,619.666667,0.65625,DottedEighth,F#4
1528,Left,1,51,70,619.666667,0.65625,DottedEighth,D#3
1530,Left,1,39,70,620.0,0.65625,DottedEighth,D#2
1531,Right,0,54,70,620.0,0.65625,DottedEighth,F#3
1532,Left,1,46,70,620.333333,0.65625,DottedEighth,A#2
1533,Right,0,58,70,620.333333,0.65625,DottedEighth,A#3
1535,Right,0,66,70,620.666667,0.65625,DottedEighth,F#4
1534,Left,1,51,70,620.666667,0.65625,DottedEighth,D#3
1536,Left,1,39,70,621.0,0.65625,DottedEighth,D#2
1537,Right,0,54,70,621.0,0.65625,DottedEighth,F#3
1539,Left,1,46,70,621.333333,0.65625,DottedEighth,A#2
1538,Right,0,58,70,621.333333,0.65625,DottedEighth,A#3
1541,Right,0,66,70,621.666667,0.65625,DottedEighth,F#4
1540,Left,1,51,70,621.666667,0.65625,DottedEighth,D#3
1543,Left,1,38,70,622.0,0.65625,DottedEighth,D2
1542,Right,0,53,70,622.0,0.65625,DottedEighth,F3
1545,Right,0,58,70,622.333333,0.65625,DottedEighth,A#3
1544,Left,1,46,70,622.333333,0.65625,DottedEighth,A#2
1546,Left,1,50,70,622.666667,0.65625,DottedEighth,D3
1547,Right,0,65,70,622.666667,0.65625,DottedEighth,F4
1549,Right,0,54,70,623.0,0.65625,DottedEighth,F#3
1548,Left,1,39,70,623.0,0.65625,DottedEighth,D#2
1551,Left,1,46,70,623.333333,0.65625,DottedEighth,A#2
1550,Right,0,58,70,623.333333,0.65625,DottedEighth,A#3
1552,Left,1,51,70,623.666667,0.65625,DottedEighth,D#3
1553,Right,0,66,70,623.666667,0.65625,DottedEighth,F#4
1555,Right,0,56,80,624.0,0.65625,DottedEighth,G#3
1554,Left,1,41,80,624.0,0.65625,DottedEighth,F2
1556,Left,1,46,80,624.333333,0.65625,DottedEighth,A#2
1557,Right,0,58,80,624.333333,0.65625,DottedEighth,A#3
1559,Left,1,53,80,624.666667,0.65625,DottedEighth,F3
1558,Right,0,68,80,624.666667,0.65625,DottedEighth,G#4
1560,Right,0,56,80,625.0,0.65625,DottedEighth,G#3
1561,Left,1,41,80,625.0,0.65625,DottedEighth,F2
1562,Left,1,46,80,625.333333,0.65625,DottedEighth,A#2
1563,Right,0,58,80,625.333333,0.65625,DottedEighth,A#3
1564,Right,0,68,80,625.666667,0.65625,DottedEighth,G#4
1565,Left,1,53,80,625.666667,0.65625,DottedEighth,F3
1566,Right,0,56,80,626.0,0.65625,DottedEighth,G#3
1567,Left,1,41,80,626.0,0.65625,DottedEighth,F2
1569,Left,1,46,80,626.333333,0.65625,DottedEighth,A#2
1568,Right,0,58,80,626.333333,0.65625,DottedEighth,A#3
1570,Left,1,53,80,626.666667,0.65625,DottedEighth,F3
1571,Right,0,68,80,626.666667,0.65625,DottedEighth,G#4
1572,Right,0,56,80,627.0,0.65625,DottedEighth,G#3
1573,Left,1,41,80,627.0,0.65625,DottedEighth,F2
1575,Right,0,58,80,627.333333,0.65625,DottedEighth,A#3
1574,Left,1,46,80,627.333333,0.65625,DottedEighth,A#2
1577,Left,1,53,80,627.666667,0.65625,DottedEighth,F3
1576,Right,0,68,80,627.666667,0.65625,DottedEighth,G#4
1578,Right,0,56,80,628.0,0.65625,DottedEighth,G#3
1579,Left,1,41,80,628.0,0.65625,DottedEighth,F2
1581,Left,1,46,80,628.333333,0.65625,DottedEighth,A#2
1580,Right,0,58,80,628.333333,0.65625,DottedEighth,A#3
1582,Right,0,68,80,628.666667,0.65625,DottedEighth,G#4
1583,Left,1,53,80,628.666667,0.65625,DottedEighth,F3
1584,Left,1,41,80,629.0,0.65625,DottedEighth,F2
1585,Right,0,56,80,629.0,0.65625,DottedEighth,G#3
1587,Right,0,58,80,629.333333,0.65625,DottedEighth,A#3
1586,Left,1,46,80,629.333333,0.65625,DottedEighth,A#2
1588,Left,1,53,80,629.666667,0.322917,Triplet,F3
1589,Right,0,68,80,629.666667,0.322917,Triplet,G#4
1591,Left,1,39,80,630.0,0.65625,DottedEighth,D#2
1590,Right,0,54,80,630.0,0.65625,DottedEighth,F#3
1593,Right,0,58,80,630.333333,0.65625,DottedEighth,A#3
1592,Left,1,46,80,630.333333,0.65625,DottedEighth,A#2
1595,Right,0,66,80,630.666667,0.65625,DottedEighth,F#4
1594,Left,1,51,80,630.666667,0.65625,DottedEighth,D#3
1597,Right,0,54,80,631.0,0.65625,DottedEighth,F#3
1596,Left,1,39,80,631.0,0.65625,DottedEighth,D#2
1599,Right,0,58,80,631.333333,0.65625,DottedEighth,A#3
1598,Left,1,46,80,631.333333,0.65625,DottedEighth,A#2
1601,Right,0,66,80,631.666667,0.65625,DottedEighth,F#4
1600,Left,1,51,80,631.666667,0.65625,DottedEighth,D#3
1602,Left,1,39,80,632.0,0.65625,DottedEighth,D#2
1603,Right,0,54,80,632.0,0.65625,DottedEighth,F#3
1604,Left,1,46,80,632.333333,0.65625,DottedEighth,A#2
1605,Right,0,58,80,632.333333,0.65625,DottedEighth,A#3
1607,Right,0,66,80,632.666667,0.65625,DottedEighth,F#4
1606,Left,1,51,80,632.666667,0.65625,DottedEighth,D#3
1608,Right,0,54,80,633.0,0.65625,DottedEighth,F#3
1609,Left,1,39,80,633.0,0.65625,DottedEighth,D#2
1611,Right,0,58,80,633.333333,0.65625,DottedEighth,A#3
1610,Left,1,46,80,633.333333,0.65625,DottedEighth,A#2
1613,Right,0,66,80,633.666667,0.65625,DottedEighth,F#4
1612,Left,1,51,80,633.666667,0.65625,DottedEighth,D#3
1614,Right,0,53,80,634.0,0.65625,DottedEighth,F3
1615,Left,1,38,80,634.0,0.65625,DottedEighth,D2
1616,Left,1,46,80,634.333333,0.65625,DottedEighth,A#2
1617,Right,0,58,80,634.333333,0.65625,DottedEighth,A#3
1619,Right,0,65,80,634.666667,0.65625,DottedEighth,F4
1618,Left,1,50,80,634.666667,0.65625,DottedEighth,D3
1620,Right,0,54,80,635.0,0.65625,DottedEighth,F#3
1621,Left,1,39,80,635.0,0.65625,DottedEighth,D#2
1622,Left,1,46,80,635.333333,0.65625,DottedEighth,A#2
1623,Right,0,58,80,635.333333,0.65625,DottedEighth,A#3
1624,Left,1,51,80,635.666667,0.65625,DottedEighth,D#3
1625,Right,0,66,80,635.666667,0.65625,DottedEighth,F#4
1627,Right,0,56,80,636.0,0.65625,DottedEighth,G#3
1626,Left,1,41,80,636.0,0.65625,DottedEighth,F2
1628,Right,0,61,80,636.333333,0.65625,DottedEighth,C#4
1629,Left,1,49,80,636.333333,0.65625,DottedEighth,C#3
1631,Left,1,53,80,636.666667,0.65625,DottedEighth,F3
1630,Right,0,68,80,636.666667,0.65625,DottedEighth,G#4
1632,Right,0,56,80,637.0,0.65625,DottedEighth,G#3
1633,Left,1,41,80,637.0,0.65625,DottedEighth,F2
1635,Right,0,61,80,637.333333,0.65625,DottedEighth,C#4
1634,Left,1,49,80,637.333333,0.65625,DottedEighth,C#3
1636,Right,0,68,80,637.666667,0.65625,DottedEighth,G#4
1637,Left,1,53,80,637.666667,0.65625,DottedEighth,F3
1639,Right,0,56,80,638.0,0.65625,DottedEighth,G#3
1638,Left,1,41,80,638.0,0.65625,DottedEighth,F2
1640,Right,0,61,80,638.333333,0.65625,DottedEighth,C#4
1641,Left,1,49,80,638.333333,0.65625,DottedEighth,C#3
1642,Right,0,68,80,638.666667,0.65625,DottedEighth,G#4
1643,Left,1,53,80,638.666667,0.65625,DottedEighth,F3
1645,Left,1,41,80,639.0,0.65625,DottedEighth,F2
1644,Right,0,56,80,639.0,0.65625,DottedEighth,G#3
1646,Right,0,61,80,639.333333,0.65625,DottedEighth,C#4
1647,Left,1,49,80,639.333333,0.65625,DottedEighth,C#3
1649,Right,0,68,80,639.666667,0.65625,DottedEighth,G#4
1648,Left,1,53,80,639.666667,0.65625,DottedEighth,F3
1651,Right,0,56,80,640.0,0.65625,DottedEighth,G#3
1650,Left,1,41,80,640.0,0.65625,DottedEighth,F2
1653,Right,0,61,80,640.333333,0.65625,DottedEighth,C#4
1652,Left,1,49,80,640.333333,0.65625,DottedEighth,C#3
1654,Left,1,53,80,640.666667,0.65625,DottedEighth,F3
1655,Right,0,68,80,640.666667,0.65625,DottedEighth,G#4
1656,Right,0,56,80,641.0,0.65625,DottedEighth,G#3
1657,Left,1,41,80,641.0,0.65625,DottedEighth,F2
1658,Left,1,49,80,641.333333,0.65625,DottedEighth,C#3
1659,Right,0,61,80,641.333333,0.65625,DottedEighth,C#4
1661,Right,0,68,80,641.666667,0.65625,DottedEighth,G#4
1660,Left,1,53,80,641.666667,0.65625,DottedEighth,F3
1662,Left,1,42,81,642.0,0.65625,DottedEighth,F#2
1663,Right,0,58,81,642.0,0.65625,DottedEighth,A#3
1664,Right,0,61,82,642.333333,0.65625,DottedEighth,C#4
1665,Left,1,49,82,642.333333,0.65625,DottedEighth,C#3
1666,Right,0,70,83,642.666667,0.65625,DottedEighth,A#4
1667,Left,1,54,83,642.666667,0.65625,DottedEighth,F#3
1669,Right,0,58,84,643.0,0.65625,DottedEighth,A#3
1668,Left,1,42,84,643.0,0.65625,DottedEighth,F#2
1671,Right,0,61,85,643.333333,0.65625,DottedEighth,C#4
1670,Left,1,49,85,643.333333,0.65625,DottedEighth,C#3
1673,Right,0,70,86,643.666667,0.65625,DottedEighth,A#4
1672,Left,1,54,86,643.666667,0.65625,DottedEighth,F#3
1674,Right,0,58,87,644.0,0.65625,DottedEighth,A#3
1675,Left,1,42,87,644.0,0.65625,DottedEighth,F#2
1676,Left,1,49,88,644.333333,0.65625,DottedEighth,C#3
1677,Right,0,61,88,644.333333,0.65625,DottedEighth,C#4
1679,Left,1,54,89,644.666667,0.65625,DottedEighth,F#3
1678,Right,0,70,89,644.666667,0.65625,DottedEighth,A#4
1680,Right,0,58,90,645.0,0.65625,DottedEighth,A#3
1681,Left,1,30,90,645.0,0.65625,DottedEighth,F#1
1683,Left,1,37,91,645.333333,0.65625,DottedEighth,C#2
1682,Right,0,61,91,645.333333,0.65625,DottedEighth,C#4
1685,Left,1,42,92,645.666667,0.65625,DottedEighth,F#2
1684,Right,0,70,92,645.666667,0.65625,DottedEighth,A#4
1687,Left,1,30,93,646.0,0.65625,DottedEighth,F#1
1686,Right,0,58,93,646.0,0.65625,DottedEighth,A#3
1689,Right,0,61,94,646.333333,0.65625,DottedEighth,C#4
1688,Left,1,37,94,646.333333,0.65625,DottedEighth,C#2
1690,Right,0,70,95,646.666667,0.65625,DottedEighth,A#4
1691,Left,1,42,95,646.666667,0.65625,DottedEighth,F#2
1693,Left,1,30,96,647.0,0.65625,DottedEighth,F#1
1692,Right,0,58,96,647.0,0.65625,DottedEighth,A#3
1695,Right,0,61,97,647.333333,0.65625,DottedEighth,C#4
1694,Left,1,37,97,647.333333,0.65625,DottedEighth,C#2
1697,Left,1,42,98,647.666667,0.65625,DottedEighth,F#2
1696,Right,0,70,98,647.666667,0.65625,DottedEighth,A#4
1698,Left,1,35,90,648.0,0.65625,DottedEighth,B1
1699,Right,0,58,90,648.0,0.65625,DottedEighth,A#3
1701,Right,0,63,90,648.333333,0.65625,DottedEighth,D#4
1700,Left,1,39,90,648.333333,0.65625,DottedEighth,D#2
1703,Left,1,47,89,648.666667,0.65625,DottedEighth,B2
1702,Right,0,70,89,648.666667,0.65625,DottedEighth,A#4
1704,Right,0,56,89,649.0,0.65625,DottedEighth,G#3
1705,Left,1,35,89,649.0,0.65625,DottedEighth,B1
1707,Left,1,39,88,649.333333,0.65625,DottedEighth,D#2
1706,Right,0,63,88,649.333333,0.65625,DottedEighth,D#4
1709,Left,1,47,88,649.666667,0.65625,DottedEighth,B2
1708,Right,0,68,88,649.666667,0.65625,DottedEighth,G#4
1710,Right,0,56,87,650.0,0.65625,DottedEighth,G#3
1711,Left,1,35,87,650.0,0.65625,DottedEighth,B1
1713,Left,1,39,87,650.333333,0.65625,DottedEighth,D#2
1712,Right,0,63,87,650.333333,0.65625,DottedEighth,D#4
1714,Left,1,47,86,650.666667,0.65625,DottedEighth,B2
1715,Right,0,68,86,650.666667,0.65625,DottedEighth,G#4
1716,Right,0,56,85,651.0,0.65625,DottedEighth,G#3
1717,Left,1,35,85,651.0,0.65625,DottedEighth,B1
1719,Right,0,63,85,651.333333,0.65625,DottedEighth,D#4
1718,Left,1,39,85,651.333333,0.65625,DottedEighth,D#2
1720,Right,0,68,84,651.666667,0.65625,DottedEighth,G#4
1721,Left,1,47,84,651.666667,0.65625,DottedEighth,B2
1722,Left,1,35,84,652.0,0.65625,DottedEighth,B1
1723,Right,0,54,84,652.0,0.65625,DottedEighth,F#3
1725,Left,1,39,83,652.333333,0.65625,DottedEighth,D#2
1724,Right,0,56,83,652.333333,0.65625,DottedEighth,G#3
1727,Right,0,66,83,652.666667,0.65625,DottedEighth,F#4
1726,Left,1,47,83,652.666667,0.65625,DottedEighth,B2
1729,Left,1,35,82,653.0,0.65625,DottedEighth,B1
1728,Right,0,54,82,653.0,0.65625,DottedEighth,F#3
1731,Left,1,39,81,653.333333,0.65625,DottedEighth,D#2
1730,Right,0,56,81,653.333333,0.65625,DottedEighth,G#3
1733,Left,1,47,81,653.666667,0.65625,DottedEighth,B2
1732,Right,0,66,81,653.666667,0.65625,DottedEighth,F#4
1734,Left,1,35,80,654.0,0.65625,DottedEighth,B1
1735,Right,0,54,80,654.0,0.65625,DottedEighth,F#3
1736,Left,1,39,80,654.333333,0.65625,DottedEighth,D#2
1737,Right,0,56,80,654.333333,0.65625,DottedEighth,G#3
1739,Left,1,47,79,654.666667,0.65625,DottedEighth,B2
1738,Right,0,66,79,654.666667,0.65625,DottedEighth,F#4
1741,Right,0,53,79,655.0,0.65625,DottedEighth,F3
1740,Left,1,35,79,655.0,0.65625,DottedEighth,B1
1742,Left,1,39,78,655.333333,0.65625,DottedEighth,D#2
1743,Right,0,56,78,655.333333,0.65625,DottedEighth,G#3
1744,Right,0,65,77,655.666667,0.65625,DottedEighth,F4
1745,Left,1,47,77,655.666667,0.65625,DottedEighth,B2
1746,Left,1,35,77,656.0,0.65625,DottedEighth,B1
1747,Right,0,53,77,656.0,0.65625,DottedEighth,F3
1749,Right,0,56,76,656.333333,0.65625,DottedEighth,G#3
1748,Left,1,39,76,656.333333,0.65625,DottedEighth,D#2
1750,Left,1,47,76,656.666667,0.65625,DottedEighth,B2
1751,Right,0,65,76,656.666667,0.65625,DottedEighth,F4
1753,Left,1,35,75,657.0,0.65625,DottedEighth,B1
1752,Right,0,53,75,657.0,0.65625,DottedEighth,F3
1754,Left,1,39,75,657.333333,0.65625,DottedEighth,D#2
1755,Right,0,56,75,657.333333,0.65625,DottedEighth,G#3
1756,Left,1,47,74,657.666667,0.65625,DottedEighth,B2
1757,Right,0,65,74,657.666667,0.65625,DottedEighth,F4
1758,Right,0,54,73,658.0,0.65625,DottedEighth,F#3
1759,Left,1,35,73,658.0,0.65625,DottedEighth,B1
1760,Right,0,57,73,658.333333,0.65625,DottedEighth,A3
1761,Left,1,39,73,658.333333,0.65625,DottedEighth,D#2
1763,Left,1,47,72,658.666667,0.65625,DottedEighth,B2
1762,Right,0,66,72,658.666667,0.65625,DottedEighth,F#4
1764,Left,1,35,72,659.0,0.65625,DottedEighth,B1
1765,Right,0,54,72,659.0,0.65625,DottedEighth,F#3
1767,Left,1,39,71,659.333333,0.65625,DottedEighth,D#2
1766,Right,0,57,71,659.333333,0.65625,DottedEighth,A3
1768,Left,1,47,71,659.666667,0.322917,Triplet,B2
1769,Right,0,63,71,659.666667,0.322917,Triplet,D#4
1770,Left,1,34,70,660.0,0.989583,Quarter,A#2_A#1
1771,Right,0,62,70,660.0,0.989583,Quarter,D4_D3_A#3
1775,Right,0,58,70,661.0,0.989583,Quarter,F4_F3_D4_A#3
1779,Left,1,46,70,661.0,0.989583,Quarter,A#2
1781,Right,0,53,70,662.0,0.989583,Quarter,F4_F3_D4_A#3
1780,Left,1,46,70,662.0,0.989583,Quarter,A#2
1785,Left,1,46,70,663.0,0.989583,Quarter,A#2
1786,Right,0,65,70,663.0,0.989583,Quarter,F4_F3_D4_A#3
1790,Right,0,65,80,665.0,0.989583,Quarter,F4
1792,Right,0,61,80,666.0,0.65625,DottedEighth,C#4
1791,Left,1,46,80,666.0,0.65625,DottedEighth,A#2
1794,Right,0,65,80,666.333333,0.65625,DottedEighth,F4
1793,Left,1,53,80,666.333333,0.65625,DottedEighth,F3
1795,Left,1,58,80,666.666667,0.65625,DottedEighth,A#3
1796,Right,0,73,80,666.666667,0.65625,DottedEighth,C#5
1797,Right,0,61,80,667.0,0.65625,DottedEighth,C#4
1798,Left,1,46,80,667.0,0.65625,DottedEighth,A#2
1799,Left,1,53,80,667.333333,0.65625,DottedEighth,F3
1800,Right,0,65,80,667.333333,0.65625,DottedEighth,F4
1802,Right,0,73,80,667.666667,0.65625,DottedEighth,C#5
1801,Left,1,58,80,667.666667,0.65625,DottedEighth,A#3
1803,Right,0,61,80,668.0,0.65625,DottedEighth,C#4
1804,Left,1,46,80,668.0,0.65625,DottedEighth,A#2
1805,Left,1,53,80,668.333333,0.65625,DottedEighth,F3
1806,Right,0,65,80,668.333333,0.65625,DottedEighth,F4
1807,Left,1,58,80,668.666667,0.65625,DottedEighth,A#3
1808,Right,0,73,80,668.666667,0.65625,DottedEighth,C#5
1809,Left,1,46,80,669.0,0.65625,DottedEighth,A#2
1810,Right,0,61,80,669.0,0.65625,DottedEighth,C#4
1811,Left,1,53,80,669.333333,0.65625,DottedEighth,F3
1812,Right,0,65,80,669.333333,0.65625,DottedEighth,F4
1814,Right,0,73,80,669.666667,0.65625,DottedEighth,C#5
1813,Left,1,58,80,669.666667,0.65625,DottedEighth,A#3
1815,Left,1,45,80,670.0,0.65625,DottedEighth,A2
1816,Right,0,60,80,670.0,0.65625,DottedEighth,C4
1818,Left,1,53,80,670.333333,0.65625,DottedEighth,F3
1817,Right,0,65,80,670.333333,0.65625,DottedEighth,F4
1819,Right,0,72,80,670.666667,0.65625,DottedEighth,C5
1820,Left,1,57,80,670.666667,0.65625,DottedEighth,A3
1822,Left,1,46,80,671.0,0.65625,DottedEighth,A#2
1821,Right,0,61,80,671.0,0.65625,DottedEighth,C#4
1823,Right,0,65,80,671.333333,0.65625,DottedEighth,F4
1824,Left,1,53,80,671.333333,0.65625,DottedEighth,F3
1825,Right,0,73,80,671.666667,0.65625,DottedEighth,C#5
1826,Left,1,58,80,671.666667,0.65625,DottedEighth,A#3
1827,Right,0,63,80,672.0,0.65625,DottedEighth,D#4
1828,Left,1,48,80,672.0,0.65625,DottedEighth,C3
1829,Right,0,65,80,672.333333,0.65625,DottedEighth,F4
1830,Left,1,53,80,672.333333,0.65625,DottedEighth,F3
1831,Right,0,75,80,672.666667,0.65625,DottedEighth,D#5
1832,Left,1,60,80,672.666667,0.65625,DottedEighth,C4
1834,Right,0,63,80,673.0,0.65625,DottedEighth,D#4
1833,Left,1,48,80,673.0,0.65625,DottedEighth,C3
1836,Right,0,65,80,673.333333,0.65625,DottedEighth,F4
1835,Left,1,53,80,673.333333,0.65625,DottedEighth,F3
1838,Right,0,75,80,673.666667,0.65625,DottedEighth,D#5
1837,Left,1,60,80,673.666667,0.65625,DottedEighth,C4
1839,Right,0,63,80,674.0,0.65625,DottedEighth,D#4
1840,Left,1,48,80,674.0,0.65625,DottedEighth,C3
1842,Right,0,65,80,674.333333,0.65625,DottedEighth,F4
1841,Left,1,53,80,674.333333,0.65625,DottedEighth,F3
1843,Right,0,75,80,674.666667,0.65625,DottedEighth,D#5
1844,Left,1,60,80,674.666667,0.65625,DottedEighth,C4
1845,Left,1,48,80,675.0,0.65625,DottedEighth,C3
1846,Right,0,63,80,675.0,0.65625,DottedEighth,D#4
1847,Left,1,53,80,675.333333,0.65625,DottedEighth,F3
1848,Right,0,65,80,675.333333,0.65625,DottedEighth,F4
1849,Left,1,60,80,675.666667,0.65625,DottedEighth,C4
1850,Right,0,75,80,675.666667,0.65625,DottedEighth,D#5
1852,Right,0,63,80,676.0,0.65625,DottedEighth,D#4
1851,Left,1,48,80,676.0,0.65625,DottedEighth,C3
1853,Left,1,53,80,676.333333,0.65625,DottedEighth,F3
1854,Right,0,65,80,676.333333,0.65625,DottedEighth,F4
1856,Left,1,60,80,676.666667,0.65625,DottedEighth,C4
1855,Right,0,75,80,676.666667,0.65625,DottedEighth,D#5
1858,Left,1,48,80,677.0,0.65625,DottedEighth,C3
1857,Right,0,63,80,677.0,0.65625,DottedEighth,D#4
1860,Left,1,53,80,677.333333,0.65625,DottedEighth,F3
1859,Right,0,65,80,677.333333,0.65625,DottedEighth,F4
1861,Left,1,60,80,677.666667,0.65625,DottedEighth,C4
1862,Right,0,75,80,677.666667,0.65625,DottedEighth,D#5
1863,Left,1,46,80,678.0,0.65625,DottedEighth,A#2
1864,Right,0,61,80,678.0,0.65625,DottedEighth,C#4
1866,Left,1,53,80,678.333333,0.65625,DottedEighth,F3
1865,Right,0,65,80,678.333333,0.65625,DottedEighth,F4
1868,Right,0,73,80,678.666667,0.65625,DottedEighth,C#5
1867,Left,1,58,80,678.666667,0.65625,DottedEighth,A#3
1869,Right,0,61,80,679.0,0.65625,DottedEighth,C#4
1870,Left,1,46,80,679.0,0.65625,DottedEighth,A#2
1872,Right,0,65,80,679.333333,0.65625,DottedEighth,F4
1871,Left,1,53,80,679.333333,0.65625,DottedEighth,F3
1874,Right,0,73,80,679.666667,0.65625,DottedEighth,C#5
1873,Left,1,58,80,679.666667,0.65625,DottedEighth,A#3
1876,Right,0,61,80,680.0,0.65625,DottedEighth,C#4
1875,Left,1,46,80,680.0,0.65625,DottedEighth,A#2
1877,Right,0,65,80,680.333333,0.65625,DottedEighth,F4
1878,Left,1,53,80,680.333333,0.65625,DottedEighth,F3
1880,Right,0,73,80,680.666667,0.65625,DottedEighth,C#5
1879,Left,1,58,80,680.666667,0.65625,DottedEighth,A#3
1882,Right,0,61,80,681.0,0.65625,DottedEighth,C#4
1881,Left,1,46,80,681.0,0.65625,DottedEighth,A#2
1883,Left,1,53,80,681.333333,0.65625,DottedEighth,F3
1884,Right,0,65,80,681.333333,0.65625,DottedEighth,F4
1886,Left,1,58,80,681.666667,0.65625,DottedEighth,A#3
1885,Right,0,73,80,681.666667,0.65625,DottedEighth,C#5
1887,Left,1,45,80,682.0,0.65625,DottedEighth,A2
1888,Right,0,60,80,682.0,0.65625,DottedEighth,C4
1890,Right,0,65,80,682.333333,0.65625,DottedEighth,F4
1889,Left,1,53,80,682.333333,0.65625,DottedEighth,F3
1891,Right,0,72,80,682.666667,0.65625,DottedEighth,C5
1892,Left,1,57,80,682.666667,0.65625,DottedEighth,A3
1894,Right,0,61,80,683.0,0.65625,DottedEighth,C#4
1893,Left,1,46,80,683.0,0.65625,DottedEighth,A#2
1895,Right,0,65,80,683.333333,0.65625,DottedEighth,F4
1896,Left,1,53,80,683.333333,0.65625,DottedEighth,F3
1897,Right,0,73,80,683.666667,0.65625,DottedEighth,C#5
1898,Left,1,58,80,683.666667,0.65625,DottedEighth,A#3
1899,Right,0,62,80,684.0,0.65625,DottedEighth,D4
1900,Left,1,44,80,684.0,0.65625,DottedEighth,G#2
1901,Left,1,46,80,684.333333,0.65625,DottedEighth,A#2
1902,Right,0,70,80,684.333333,0.65625,DottedEighth,A#4
1903,Left,1,56,80,684.666667,0.65625,DottedEighth,G#3
1904,Right,0,74,80,684.666667,0.65625,DottedEighth,D5
1905,Left,1,44,80,685.0,0.65625,DottedEighth,G#2
1906,Right,0,62,80,685.0,0.65625,DottedEighth,D4
1907,Left,1,46,80,685.333333,0.65625,DottedEighth,A#2
1908,Right,0,70,80,685.333333,0.65625,DottedEighth,A#4
1909,Right,0,74,80,685.666667,0.65625,DottedEighth,D5
1910,Left,1,56,80,685.666667,0.65625,DottedEighth,G#3
1911,Right,0,62,80,686.0,0.65625,DottedEighth,D4
1912,Left,1,44,80,686.0,0.65625,DottedEighth,G#2
1914,Left,1,46,80,686.333333,0.65625,DottedEighth,A#2
1913,Right,0,70,80,686.333333,0.65625,DottedEighth,A#4
1916,Left,1,56,80,686.666667,0.65625,DottedEighth,G#3
1915,Right,0,74,80,686.666667,0.65625,DottedEighth,D5
1918,Left,1,44,80,687.0,0.65625,DottedEighth,G#2
1917,Right,0,62,80,687.0,0.65625,DottedEighth,D4
1920,Left,1,46,80,687.333333,0.65625,DottedEighth,A#2
1919,Right,0,70,80,687.333333,0.65625,DottedEighth,A#4
1922,Left,1,56,80,687.666667,0.65625,DottedEighth,G#3
1921,Right,0,74,80,687.666667,0.65625,DottedEighth,D5
1923,Right,0,62,80,688.0,0.65625,DottedEighth,D4
1924,Left,1,44,80,688.0,0.65625,DottedEighth,G#2
1926,Right,0,70,80,688.333333,0.65625,DottedEighth,A#4
1925,Left,1,46,80,688.333333,0.65625,DottedEighth,A#2
1928,Left,1,56,80,688.666667,0.65625,DottedEighth,G#3
1927,Right,0,74,80,688.666667,0.65625,DottedEighth,D5
1930,Left,1,44,80,689.0,0.65625,DottedEighth,G#2
1929,Right,0,62,80,689.0,0.65625,DottedEighth,D4
1932,Left,1,46,80,689.333333,0.65625,DottedEighth,A#2
1931,Right,0,70,80,689.333333,0.65625,DottedEighth,A#4
1934,Left,1,56,80,689.666667,0.65625,DottedEighth,G#3
1933,Right,0,74,80,689.666667,0.65625,DottedEighth,D5
1935,Left,1,42,81,690.0,0.65625,DottedEighth,F#2
1936,Right,0,63,81,690.0,0.65625,DottedEighth,D#4
1938,Left,1,46,83,690.333333,0.65625,DottedEighth,A#2
1937,Right,0,68,83,690.333333,0.65625,DottedEighth,G#4
1940,Left,1,54,84,690.666667,0.65625,DottedEighth,F#3
1939,Right,0,75,84,690.666667,0.65625,DottedEighth,D#5
1941,Right,0,63,86,691.0,0.65625,DottedEighth,D#4
1942,Left,1,42,86,691.0,0.65625,DottedEighth,F#2
1943,Right,0,70,87,691.333333,0.65625,DottedEighth,A#4
1944,Left,1,46,87,691.333333,0.65625,DottedEighth,A#2
1945,Left,1,54,89,691.666667,0.65625,DottedEighth,F#3
1946,Right,0,75,89,691.666667,0.65625,DottedEighth,D#5
1948,Left,1,38,91,692.0,0.65625,DottedEighth,D2
1947,Right,0,65,91,692.0,0.65625,DottedEighth,F4
1950,Left,1,46,92,692.333333,0.65625,DottedEighth,A#2
1949,Right,0,70,92,692.333333,0.65625,DottedEighth,A#4
1951,Left,1,50,94,692.666667,0.65625,DottedEighth,D3
1952,Right,0,77,94,692.666667,0.65625,DottedEighth,F5
1953,Right,0,66,95,693.0,0.65625,DottedEighth,F#4
1954,Left,1,39,95,693.0,0.65625,DottedEighth,D#2
1955,Right,0,70,97,693.333333,0.65625,DottedEighth,A#4
1956,Left,1,46,97,693.333333,0.65625,DottedEighth,A#2
1958,Right,0,78,98,693.666667,0.65625,DottedEighth,F#5
1957,Left,1,51,98,693.666667,0.65625,DottedEighth,D#3
1960,Right,0,66,100,694.0,0.65625,DottedEighth,F#4
1959,Left,1,39,100,694.0,0.65625,DottedEighth,D#2
1962,Right,0,70,102,694.333333,0.65625,DottedEighth,A#4
1961,Left,1,46,102,694.333333,0.65625,DottedEighth,A#2
1964,Left,1,51,103,694.666667,0.65625,DottedEighth,D#3
1963,Right,0,78,103,694.666667,0.65625,DottedEighth,F#5
1965,Right,0,69,105,695.0,0.65625,DottedEighth,A4
1966,Left,1,35,105,695.0,0.65625,DottedEighth,B1
1968,Right,0,75,106,695.333333,0.65625,DottedEighth,D#5
1967,Left,1,39,106,695.333333,0.65625,DottedEighth,D#2
1969,Left,1,47,108,695.666667,0.65625,DottedEighth,B2
1970,Right,0,81,108,695.666667,0.65625,DottedEighth,A5
1972,Left,1,34,109,696.0,0.989583,Quarter,A#2_A#1
1971,Right,0,70,109,696.0,0.65625,DottedEighth,A#4
1974,Right,0,74,110,696.333333,0.65625,DottedEighth,D5
1975,Right,0,82,110,696.666667,0.65625,DottedEighth,A#5
1976,Right,0,68,110,697.0,0.65625,DottedEighth,G#4
1977,Right,0,71,110,697.333333,0.65625,DottedEighth,B4
1978,Right,0,80,110,697.666667,0.65625,DottedEighth,G#5
1979,Right,0,66,110,698.0,0.65625,DottedEighth,F#4
1980,Right,0,70,110,698.333333,0.65625,DottedEighth,A#4
1981,Right,0,78,110,698.666667,0.65625,DottedEighth,F#5
1982,Right,0,65,110,699.0,0.65625,DottedEighth,F4
1983,Right,0,68,110,699.333333,0.65625,DottedEighth,G#4
1984,Right,0,77,110,699.666667,0.65625,DottedEighth,F5
1985,Right,0,63,110,700.0,0.65625,DottedEighth,D#4
1986,Right,0,66,110,700.333333,0.65625,DottedEighth,F#4
1987,Right,0,75,110,700.666667,0.65625,DottedEighth,D#5
1988,Right,0,62,110,701.0,0.65625,DottedEighth,D4
1989,Right,0,65,110,701.333333,0.65625,DottedEighth,F4
1990,Right,0,74,110,701.666667,0.322917,Triplet,D5
1992,Left,1,39,80,702.0,0.65625,DottedEighth,D#2
1991,Right,0,63,80,702.0,0.65625,DottedEighth,D#4
1994,Left,1,46,80,702.333333,0.65625,DottedEighth,A#2
1993,Right,0,66,80,702.333333,0.65625,DottedEighth,F#4
1995,Left,1,51,80,702.666667,0.65625,DottedEighth,D#3
1996,Right,0,75,80,702.666667,0.65625,DottedEighth,D#5
1998,Left,1,39,80,703.0,0.65625,DottedEighth,D#2
1997,Right,0,54,80,703.0,0.65625,DottedEighth,F#3
2000,Left,1,46,80,703.333333,0.65625,DottedEighth,A#2
1999,Right,0,58,80,703.333333,0.65625,DottedEighth,A#3
2001,Right,0,66,80,703.666667,0.65625,DottedEighth,F#4
2002,Left,1,51,80,703.666667,0.65625,DottedEighth,D#3
2004,Right,0,54,80,704.0,0.65625,DottedEighth,F#3
2003,Left,1,39,80,704.0,0.65625,DottedEighth,D#2
2006,Right,0,58,80,704.333333,0.65625,DottedEighth,A#3
2005,Left,1,46,80,704.333333,0.65625,DottedEighth,A#2
2008,Left,1,51,80,704.666667,0.65625,DottedEighth,D#3
2007,Right,0,66,80,704.666667,0.65625,DottedEighth,F#4
2009,Right,0,54,80,705.0,0.65625,DottedEighth,F#3
2010,Left,1,39,80,705.0,0.65625,DottedEighth,D#2
2012,Left,1,46,80,705.333333,0.65625,DottedEighth,A#2
2011,Right,0,58,80,705.333333,0.65625,DottedEighth,A#3
2013,Right,0,66,80,705.666667,0.65625,DottedEighth,F#4
2014,Left,1,51,80,705.666667,0.65625,DottedEighth,D#3
2015,Left,1,38,80,706.0,0.65625,DottedEighth,D2
2016,Right,0,53,80,706.0,0.65625,DottedEighth,F3
2018,Left,1,46,80,706.333333,0.65625,DottedEighth,A#2
2017,Right,0,58,80,706.333333,0.65625,DottedEighth,A#3
2020,Left,1,50,80,706.666667,0.65625,DottedEighth,D3
2019,Right,0,65,80,706.666667,0.65625,DottedEighth,F4
2022,Right,0,54,80,707.0,0.65625,DottedEighth,F#3
2021,Left,1,39,80,707.0,0.65625,DottedEighth,D#2
2023,Left,1,46,80,707.333333,0.65625,DottedEighth,A#2
2024,Right,0,58,80,707.333333,0.65625,DottedEighth,A#3
2025,Right,0,66,80,707.666667,0.65625,DottedEighth,F#4
2026,Left,1,51,80,707.666667,0.65625,DottedEighth,D#3
2027,Right,0,56,80,708.0,0.65625,DottedEighth,G#3
2028,Left,1,41,80,708.0,0.65625,DottedEighth,F2
2030,Right,0,58,80,708.333333,0.65625,DottedEighth,A#3
2029,Left,1,46,80,708.333333,0.65625,DottedEighth,A#2
2032,Right,0,68,80,708.666667,0.65625,DottedEighth,G#4
2031,Left,1,53,80,708.666667,0.65625,DottedEighth,F3
2034,Right,0,56,80,709.0,0.65625,DottedEighth,G#3
2033,Left,1,41,80,709.0,0.65625,DottedEighth,F2
2035,Left,1,46,80,709.333333,0.65625,DottedEighth,A#2
2036,Right,0,58,80,709.333333,0.65625,DottedEighth,A#3
2037,Right,0,68,80,709.666667,0.65625,DottedEighth,G#4
2038,Left,1,53,80,709.666667,0.65625,DottedEighth,F3
2039,Left,1,41,80,710.0,0.65625,DottedEighth,F2
2040,Right,0,56,80,710.0,0.65625,DottedEighth,G#3
2041,Left,1,46,80,710.333333,0.65625,DottedEighth,A#2
2042,Right,0,58,80,710.333333,0.65625,DottedEighth,A#3
2044,Left,1,53,80,710.666667,0.65625,DottedEighth,F3
2043,Right,0,68,80,710.666667,0.65625,DottedEighth,G#4
2045,Left,1,41,80,711.0,0.65625,DottedEighth,F2
2046,Right,0,56,80,711.0,0.65625,DottedEighth,G#3
2047,Right,0,58,80,711.333333,0.65625,DottedEighth,A#3
2048,Left,1,46,80,711.333333,0.65625,DottedEighth,A#2
2049,Right,0,68,80,711.666667,0.65625,DottedEighth,G#4
2050,Left,1,53,80,711.666667,0.65625,DottedEighth,F3
2052,Right,0,56,80,712.0,0.65625,DottedEighth,G#3
2051,Left,1,41,80,712.0,0.65625,DottedEighth,F2
2053,Right,0,58,80,712.333333,0.65625,DottedEighth,A#3
2054,Left,1,46,80,712.333333,0.65625,DottedEighth,A#2
2055,Right,0,68,80,712.666667,0.65625,DottedEighth,G#4
2056,Left,1,53,80,712.666667,0.65625,DottedEighth,F3
2058,Left,1,41,80,713.0,0.65625,DottedEighth,F2
2057,Right,0,56,80,713.0,0.65625,DottedEighth,G#3
2060,Left,1,46,80,713.333333,0.65625,DottedEighth,A#2
2059,Right,0,58,80,713.333333,0.65625,DottedEighth,A#3
2062,Left,1,53,80,713.666667,0.322917,Triplet,F3
2061,Right,0,68,80,713.666667,0.322917,Triplet,G#4
2064,Right,0,54,80,714.0,0.65625,DottedEighth,F#3
2063,Left,1,39,80,714.0,0.65625,DottedEighth,D#2
2065,Right,0,58,80,714.333333,0.65625,DottedEighth,A#3
2066,Left,1,46,80,714.333333,0.65625,DottedEighth,A#2
2067,Right,0,66,80,714.666667,0.65625,DottedEighth,F#4
2068,Left,1,51,80,714.666667,0.65625,DottedEighth,D#3
2069,Left,1,39,80,715.0,0.65625,DottedEighth,D#2
2070,Right,0,54,80,715.0,0.65625,DottedEighth,F#3
2071,Left,1,46,80,715.333333,0.65625,DottedEighth,A#2
2072,Right,0,58,80,715.333333,0.65625,DottedEighth,A#3
2073,Left,1,51,80,715.666667,0.65625,DottedEighth,D#3
2074,Right,0,66,80,715.666667,0.65625,DottedEighth,F#4
2075,Right,0,54,80,716.0,0.65625,DottedEighth,F#3
2076,Left,1,39,80,716.0,0.65625,DottedEighth,D#2
2077,Left,1,46,80,716.333333,0.65625,DottedEighth,A#2
2078,Right,0,58,80,716.333333,0.65625,DottedEighth,A#3
2079,Left,1,51,80,716.666667,0.65625,DottedEighth,D#3
2080,Right,0,66,80,716.666667,0.65625,DottedEighth,F#4
2081,Right,0,54,80,717.0,0.65625,DottedEighth,F#3
2082,Left,1,39,80,717.0,0.65625,DottedEighth,D#2
2084,Right,0,58,80,717.333333,0.65625,DottedEighth,A#3
2083,Left,1,46,80,717.333333,0.65625,DottedEighth,A#2
2086,Right,0,66,80,717.666667,0.65625,DottedEighth,F#4
2085,Left,1,51,80,717.666667,0.65625,DottedEighth,D#3
2088,Right,0,53,80,718.0,0.65625,DottedEighth,F3
2087,Left,1,38,80,718.0,0.65625,DottedEighth,D2
2089,Left,1,46,80,718.333333,0.65625,DottedEighth,A#2
2090,Right,0,58,80,718.333333,0.65625,DottedEighth,A#3
2091,Right,0,65,80,718.666667,0.65625,DottedEighth,F4
2092,Left,1,50,80,718.666667,0.65625,DottedEighth,D3
2093,Right,0,54,80,719.0,0.65625,DottedEighth,F#3
2094,Left,1,39,80,719.0,0.65625,DottedEighth,D#2
2096,Right,0,58,80,719.333333,0.65625,DottedEighth,A#3
2095,Left,1,46,80,719.333333,0.65625,DottedEighth,A#2
2097,Left,1,51,80,719.666667,0.65625,DottedEighth,D#3
2098,Right,0,66,80,719.666667,0.65625,DottedEighth,F#4
2099,Left,1,35,80,720.0,0.65625,DottedEighth,B1
2100,Right,0,56,80,720.0,0.65625,DottedEighth,G#3
2101,Left,1,39,80,720.333333,0.65625,DottedEighth,D#2
2102,Right,0,63,80,720.333333,0.65625,DottedEighth,D#4
2104,Right,0,68,80,720.666667,0.65625,DottedEighth,G#4
2103,Left,1,47,80,720.666667,0.65625,DottedEighth,B2
2106,Left,1,35,80,721.0,0.65625,DottedEighth,B1
2105,Right,0,56,80,721.0,0.65625,DottedEighth,G#3
2108,Right,0,63,80,721.333333,0.65625,DottedEighth,D#4
2107,Left,1,39,80,721.333333,0.65625,DottedEighth,D#2
2110,Left,1,47,80,721.666667,0.65625,DottedEighth,B2
2109,Right,0,68,80,721.666667,0.65625,DottedEighth,G#4
2111,Right,0,56,80,722.0,0.65625,DottedEighth,G#3
2112,Left,1,35,80,722.0,0.65625,DottedEighth,B1
2113,Right,0,63,80,722.333333,0.65625,DottedEighth,D#4
2114,Left,1,39,80,722.333333,0.65625,DottedEighth,D#2
2115,Right,0,68,80,722.666667,0.65625,DottedEighth,G#4
2116,Left,1,47,80,722.666667,0.65625,DottedEighth,B2
2117,Left,1,35,80,723.0,0.65625,DottedEighth,B1
2118,Right,0,56,80,723.0,0.65625,DottedEighth,G#3
2119,Left,1,39,80,723.333333,0.65625,DottedEighth,D#2
2120,Right,0,63,80,723.333333,0.65625,DottedEighth,D#4
2121,Right,0,68,80,723.666667,0.65625,DottedEighth,G#4
2122,Left,1,47,80,723.666667,0.65625,DottedEighth,B2
2123,Right,0,56,80,724.0,0.65625,DottedEighth,G#3
2124,Left,1,35,80,724.0,0.65625,DottedEighth,B1
2126,Left,1,39,80,724.333333,0.65625,DottedEighth,D#2
2125,Right,0,63,80,724.333333,0.65625,DottedEighth,D#4
2127,Left,1,47,80,724.666667,0.65625,DottedEighth,B2
2128,Right,0,68,80,724.666667,0.65625,DottedEighth,G#4
2129,Right,0,59,80,725.0,0.65625,DottedEighth,B3
2130,Left,1,34,80,725.0,0.65625,DottedEighth,A#1
2132,Right,0,63,80,725.333333,0.65625,DottedEighth,D#4
2131,Left,1,39,80,725.333333,0.65625,DottedEighth,D#2
2133,Right,0,70,80,725.666667,0.65625,DottedEighth,A#4
2134,Left,1,46,80,725.666667,0.65625,DottedEighth,A#2
2136,Right,0,59,80,726.0,0.65625,DottedEighth,B3
2135,Left,1,32,80,726.0,0.65625,DottedEighth,G#1
2137,Left,1,39,80,726.333333,0.65625,DottedEighth,D#2
2138,Right,0,63,80,726.333333,0.65625,DottedEighth,D#4
2140,Right,0,71,80,726.666667,0.65625,DottedEighth,B4
2139,Left,1,44,80,726.666667,0.65625,DottedEighth,G#2
2142,Right,0,59,80,727.0,0.65625,DottedEighth,B3
2141,Left,1,32,80,727.0,0.65625,DottedEighth,G#1
2143,Right,0,63,80,727.333333,0.65625,DottedEighth,D#4
2144,Left,1,39,80,727.333333,0.65625,DottedEighth,D#2
2145,Right,0,71,80,727.666667,0.65625,DottedEighth,B4
2146,Left,1,44,80,727.666667,0.65625,DottedEighth,G#2
2147,Right,0,59,80,728.0,0.65625,DottedEighth,B3
2148,Left,1,32,80,728.0,0.65625,DottedEighth,G#1
2149,Right,0,63,80,728.333333,0.65625,DottedEighth,D#4
2150,Left,1,39,80,728.333333,0.65625,DottedEighth,D#2
2152,Left,1,44,80,728.666667,0.65625,DottedEighth,G#2
2151,Right,0,71,80,728.666667,0.65625,DottedEighth,B4
2154,Right,0,62,80,729.0,0.65625,DottedEighth,D4
2153,Left,1,35,80,729.0,0.65625,DottedEighth,B1
2155,Left,1,41,80,729.333333,0.65625,DottedEighth,F2
2156,Right,0,68,80,729.333333,0.65625,DottedEighth,G#4
2158,Right,0,74,80,729.666667,0.65625,DottedEighth,D5
2157,Left,1,47,80,729.666667,0.65625,DottedEighth,B2
2159,Left,1,35,80,730.0,0.65625,DottedEighth,B1
2160,Right,0,62,80,730.0,0.65625,DottedEighth,D4
2162,Right,0,68,83,730.333333,0.65625,DottedEighth,G#4
2161,Left,1,41,81,730.333333,0.65625,DottedEighth,F2
2163,Left,1,47,84,730.666667,0.65625,DottedEighth,B2
2164,Right,0,74,85,730.666667,0.65625,DottedEighth,D5
2166,Right,0,62,86,731.0,0.65625,DottedEighth,D4
2165,Left,1,34,86,731.0,0.65625,DottedEighth,A#1
2168,Right,0,68,87,731.333333,0.65625,DottedEighth,G#4
2167,Left,1,41,86,731.333333,0.65625,DottedEighth,F2
2169,Left,1,46,88,731.666667,0.65625,DottedEighth,A#2
2170,Right,0,74,88,731.666667,0.65625,DottedEighth,D5
2171,Left,1,39,90,732.0,0.65625,DottedEighth,D#2
2172,Right,0,63,90,732.0,0.65625,DottedEighth,D#4
2173,Right,0,66,91,732.333333,0.65625,DottedEighth,F#4
2174,Left,1,46,91,732.333333,0.65625,DottedEighth,A#2
2175,Right,0,75,92,732.666667,0.65625,DottedEighth,D#5
2176,Left,1,51,92,732.666667,0.65625,DottedEighth,D#3
2178,Right,0,63,93,733.0,0.65625,DottedEighth,D#4
2177,Left,1,39,93,733.0,0.65625,DottedEighth,D#2
2179,Right,0,66,94,733.333333,0.65625,DottedEighth,F#4
2180,Left,1,46,94,733.333333,0.65625,DottedEighth,A#2
2181,Right,0,75,95,733.666667,0.65625,DottedEighth,D#5
2182,Left,1,51,95,733.666667,0.65625,DottedEighth,D#3
2183,Right,0,65,96,734.0,0.65625,DottedEighth,F4
2184,Left,1,38,96,734.0,0.65625,DottedEighth,D2
2185,Left,1,46,97,734.333333,0.65625,DottedEighth,A#2
2186,Right,0,70,97,734.333333,0.65625,DottedEighth,A#4
2187,Left,1,50,98,734.666667,0.65625,DottedEighth,D3
2188,Right,0,77,98,734.666667,0.65625,DottedEighth,F5
2189,Left,1,39,99,735.0,0.65625,DottedEighth,D#2
2190,Right,0,66,99,735.0,0.65625,DottedEighth,F#4
2192,Left,1,46,101,735.333333,0.65625,DottedEighth,A#2
2191,Right,0,70,101,735.333333,0.65625,DottedEighth,A#4
2194,Left,1,51,102,735.666667,0.65625,DottedEighth,D#3
2193,Right,0,78,102,735.666667,0.65625,DottedEighth,F#5
2196,Right,0,66,106,736.0,0.65625,DottedEighth,F#4
2195,Left,1,39,103,736.0,0.65625,DottedEighth,D#2
2197,Left,1,46,104,736.333333,0.65625,DottedEighth,A#2
2198,Right,0,70,109,736.333333,0.65625,DottedEighth,A#4
2200,Right,0,78,112,736.666667,0.65625,DottedEighth,F#5
2199,Left,1,51,105,736.666667,0.65625,DottedEighth,D#3
2201,Left,1,35,106,737.0,0.65625,DottedEighth,B1
2202,Right,0,69,113,737.0,0.65625,DottedEighth,A4
2204,Right,0,78,116,737.333333,0.65625,DottedEighth,F#5
2203,Left,1,39,107,737.333333,0.65625,DottedEighth,D#2
2205,Left,1,47,120,737.666667,0.65625,DottedEighth,B2
2206,Right,0,81,120,737.666667,0.65625,DottedEighth,A5
2207,Right,0,70,120,738.0,0.65625,DottedEighth,A#4
2208,Left,1,34,120,738.0,0.65625,DottedEighth,A#1
2209,Right,0,78,120,738.333333,0.65625,DottedEighth,F#5
2210,Left,1,39,120,738.333333,0.65625,DottedEighth,D#2
2212,Right,0,82,120,738.666667,0.65625,DottedEighth,A#5
2211,Left,1,46,120,738.666667,0.65625,DottedEighth,A#2
2214,Right,0,70,120,739.0,0.65625,DottedEighth,A#4
2213,Left,1,34,120,739.0,0.65625,DottedEighth,A#1
2216,Right,0,78,120,739.333333,0.65625,DottedEighth,F#5
2215,Left,1,39,120,739.333333,0.65625,DottedEighth,D#2
2218,Right,0,82,120,739.666667,0.65625,DottedEighth,A#5
2217,Left,1,46,120,739.666667,0.65625,DottedEighth,A#2
2220,Left,1,34,120,740.0,0.65625,DottedEighth,A#1
2219,Right,0,70,120,740.0,0.65625,DottedEighth,A#4
2221,Left,1,39,120,740.333333,0.65625,DottedEighth,D#2
2222,Right,0,78,120,740.333333,0.65625,DottedEighth,F#5
2224,Right,0,82,120,740.666667,0.65625,DottedEighth,A#5
2223,Left,1,46,120,740.666667,0.65625,DottedEighth,A#2
2225,Right,0,74,120,741.0,0.65625,DottedEighth,D5
2226,Left,1,34,120,741.0,0.65625,DottedEighth,A#1
2228,Right,0,80,120,741.333333,0.65625,DottedEighth,G#5
2227,Left,1,41,120,741.333333,0.65625,DottedEighth,F2
2229,Left,1,46,120,741.666667,0.65625,DottedEighth,A#2
2230,Right,0,86,120,741.666667,0.65625,DottedEighth,D6
2232,Right,0,74,120,742.0,0.65625,DottedEighth,D5
2231,Left,1,34,120,742.0,0.65625,DottedEighth,A#1
2233,Right,0,80,120,742.333333,0.65625,DottedEighth,G#5
2234,Left,1,41,120,742.333333,0.65625,DottedEighth,F2
2236,Right,0,86,120,742.666667,0.65625,DottedEighth,D6
2235,Left,1,46,120,742.666667,0.65625,DottedEighth,A#2
2238,Left,1,34,120,743.0,0.65625,DottedEighth,A#1
2237,Right,0,74,120,743.0,0.65625,DottedEighth,D5
2239,Left,1,41,120,743.333333,0.65625,DottedEighth,F2
2240,Right,0,80,120,743.333333,0.65625,DottedEighth,G#5
2242,Right,0,86,120,743.666667,0.322917,Triplet,D6
2241,Left,1,46,120,743.666667,0.322917,Triplet,A#2
2246,Left,1,39,120,744.0,0.65625,DottedEighth,D#2
2243,Right,0,87,120,744.0,0.989583,Quarter,F#5_D#6_D#5
2247,Left,1,46,117,744.333333,0.65625,DottedEighth,A#2
2248,Left,1,51,113,744.666667,0.65625,DottedEighth,D#3
2249,Left,1,39,110,745.0,0.65625,DottedEighth,D#2
2250,Left,1,46,106,745.333333,0.65625,DottedEighth,A#2
2251,Left,1,51,102,745.666667,0.65625,DottedEighth,D#3
2252,Left,1,39,99,746.0,0.65625,DottedEighth,D#2
2253,Left,1,46,95,746.333333,0.65625,DottedEighth,A#2
2254,Left,1,51,91,746.666667,0.322917,Triplet,D#3
2255,Left,1,39,88,747.0,0.65625,DottedEighth,D#2
2256,Left,1,46,84,747.333333,0.65625,DottedEighth,A#2
2257,Left,1,51,81,747.666667,0.65625,DottedEighth,D#3
2258,Left,1,39,80,748.0,0.65625,DottedEighth,D#2
2259,Right,0,66,80,748.0,0.989583,Quarter,F#4
2260,Left,1,46,80,748.333333,0.65625,DottedEighth,A#2
2261,Left,1,51,80,748.666667,0.65625,DottedEighth,D#3
2262,Left,1,39,80,749.0,0.65625,DottedEighth,D#2
2263,Right,0,65,80,749.0,0.989583,Quarter,F4
2264,Left,1,46,80,749.333333,0.65625,DottedEighth,A#2
2265,Left,1,51,80,749.666667,0.322917,Triplet,D#3
2266,Right,0,56,79,750.0,5.989583,Unknown,G#3_F3_D#4
2269,Left,1,39,79,750.0,0.65625,DottedEighth,D#2
2270,Left,1,47,79,750.333333,0.65625,DottedEighth,B2
2271,Left,1,50,79,750.666667,0.65625,DottedEighth,D3
2272,Left,1,39,79,751.0,0.65625,DottedEighth,D#2
2273,Left,1,47,79,751.333333,0.65625,DottedEighth,B2
2274,Left,1,50,79,751.666667,0.65625,DottedEighth,D3
2276,Left,1,39,78,752.0,0.65625,DottedEighth,D#2
2275,Right,0,62,78,752.0,0.989583,Quarter,D4
2277,Left,1,47,78,752.333333,0.65625,DottedEighth,B2
2278,Left,1,50,78,752.666667,0.322917,Triplet,D3
2279,Left,1,39,78,753.0,0.65625,DottedEighth,D#2
2280,Right,0,63,78,753.0,1.989583,Half,D#4
2281,Left,1,47,78,753.333333,0.65625,DottedEighth,B2
2282,Left,1,50,78,753.666667,0.65625,DottedEighth,D3
2283,Left,1,39,77,754.0,0.65625,DottedEighth,D#2
2284,Left,1,47,77,754.333333,0.65625,DottedEighth,B2
2285,Left,1,50,77,754.666667,0.65625,DottedEighth,D3
2287,Right,0,65,77,755.0,0.989583,Quarter,F4
2286,Left,1,39,77,755.0,0.65625,DottedEighth,D#2
2288,Left,1,47,77,755.333333,0.65625,DottedEighth,B2
2289,Left,1,50,76,755.666667,0.322917,Triplet,D3
2291,Right,0,58,76,756.0,5.989583,Whole,F#3_A#3
2290,Left,1,39,76,756.0,0.65625,DottedEighth,D#2
2293,Left,1,46,76,756.333333,0.65625,DottedEighth,A#2
2294,Left,1,51,76,756.666667,0.65625,DottedEighth,D#3
2295,Left,1,39,76,757.0,0.65625,DottedEighth,D#2
2296,Left,1,46,76,757.333333,0.65625,DottedEighth,A#2
2297,Left,1,51,75,757.666667,0.65625,DottedEighth,D#3
2298,Left,1,39,75,758.0,0.65625,DottedEighth,D#2
2299,Left,1,46,75,758.333333,0.65625,DottedEighth,A#2
2300,Left,1,51,75,758.666667,0.322917,Triplet,D#3
2301,Left,1,39,75,759.0,0.65625,DottedEighth,D#2
2302,Left,1,46,75,759.333333,0.65625,DottedEighth,A#2
2303,Left,1,51,74,759.666667,0.65625,DottedEighth,D#3
2304,Left,1,39,74,760.0,0.65625,DottedEighth,D#2
2305,Right,0,66,74,760.0,0.989583,Quarter,F#4
2306,Left,1,46,74,760.333333,0.65625,DottedEighth,A#2
2307,Left,1,51,74,760.666667,0.65625,DottedEighth,D#3
2308,Right,0,65,74,761.0,0.989583,Quarter,F4
2309,Left,1,39,74,761.0,0.65625,DottedEighth,D#2
2310,Left,1,46,73,761.333333,0.65625,DottedEighth,A#2
2311,Left,1,51,73,761.666667,0.322917,Triplet,D#3
2312,Right,0,56,73,762.0,5.989583,Unknown,G#3_F3_D#4
2315,Left,1,39,73,762.0,0.65625,DottedEighth,D#2
2316,Left,1,47,73,762.333333,0.65625,DottedEighth,B2
2317,Left,1,50,73,762.666667,0.65625,DottedEighth,D3
2318,Left,1,39,73,763.0,0.65625,DottedEighth,D#2
2319,Left,1,47,72,763.333333,0.65625,DottedEighth,B2
2320,Left,1,50,72,763.666667,0.65625,DottedEighth,D3
2321,Right,0,62,72,764.0,0.989583,Quarter,D4
2322,Left,1,39,72,764.0,0.65625,DottedEighth,D#2
2323,Left,1,47,72,764.333333,0.65625,DottedEighth,B2
2324,Left,1,50,72,764.666667,0.322917,Triplet,D3
2325,Right,0,63,72,765.0,1.989583,Half,D#4
2326,Left,1,39,72,765.0,0.65625,DottedEighth,D#2
2327,Left,1,47,71,765.333333,0.65625,DottedEighth,B2
2328,Left,1,50,71,765.666667,0.65625,DottedEighth,D3
2329,Left,1,39,71,766.0,0.65625,DottedEighth,D#2
2330,Left,1,47,71,766.333333,0.65625,DottedEighth,B2
2331,Left,1,50,71,766.666667,0.65625,DottedEighth,D3
2333,Right,0,65,71,767.0,0.989583,Quarter,F4
2332,Left,1,39,71,767.0,0.65625,DottedEighth,D#2
2334,Left,1,47,69,767.333333,0.65625,DottedEighth,B2
2335,Left,1,50,64,767.666667,0.322917,Triplet,D3
2337,Left,1,46,60,768.0,5.989583,Unknown,D#2_A#2
2336,Right,0,58,60,768.0,5.989583,Unknown,A#3
2339,Right,0,63,60,774.0,2.989583,DottedHalf,D#4
2340,Right,0,67,60,777.0,2.989583,DottedHalf,G4
2341,Right,0,63,80,780.0,2.989583,DottedHalf,G4_D#4_A#4_A#3
2345,Left,1,51,80,781.0,0.989583,Quarter,D#3
2346,Left,1,55,80,782.0,0.989583,Quarter,G3
2347,Right,0,67,80,782.0,0.989583,Quarter,G4
2348,Left,1,58,80,783.0,4.989583,Unknown,A#3
2349,Right,0,63,80,783.0,0.989583,Quarter,D#4
2351,Left,1,55,80,784.0,0.989583,Quarter,G3
2350,Right,0,67,80,784.0,3.989583,Whole,G4
2352,Right,0,70,80,785.0,0.989583,Quarter,A#4
2353,Left,1,51,80,785.0,0.989583,Quarter,D#3
2355,Right,0,75,80,786.0,0.989583,Quarter,D#5
2354,Left,1,46,80,786.0,2.989583,DottedHalf,A#2
2356,Right,0,79,80,787.0,0.989583,Quarter,G5
2357,Right,0,77,80,788.0,0.989583,Eighth,F5_F4
2359,Left,1,56,80,788.0,0.989583,Quarter,G#3
2360,Right,0,74,80,788.5,0.489583,Eighth,D5
2363,Left,1,55,80,789.0,0.989583,Quarter,G3_D#3
2361,Right,0,75,80,789.0,0.989583,Eighth,G4_D#5
2365,Right,0,79,80,789.5,0.489583,Eighth,G5
2366,Right,0,70,80,790.0,0.989583,Quarter,A#4
2367,Left,1,63,80,792.0,1.989583,Half,G#3_D#4
2369,Right,0,72,80,792.0,0.489583,Eighth,C5
2370,Right,0,75,80,792.5,0.489583,Eighth,D#5
2372,Right,0,70,80,793.0,0.989583,Quarter,A#4
2371,Left,1,55,80,793.0,0.989583,Quarter,G3
2375,Left,1,58,80,795.0,1.989583,Half,D3_A#3
2373,Right,0,65,80,795.0,0.989583,Quarter,G#4_F4
2377,Right,0,70,80,795.5,0.489583,Eighth,A#4
2378,Right,0,63,80,796.0,0.989583,Quarter,G4_D#4
2380,Left,1,51,80,796.0,0.989583,Quarter,D#3
2382,Right,0,65,80,798.0,0.989583,Quarter,F4_D4
2381,Left,1,58,80,798.0,1.989583,Half,A#3_A#2
2385,Right,0,65,80,799.0,0.989583,Quarter,G#4_F4
2387,Left,1,50,80,799.0,0.989583,Quarter,D3
2388,Right,0,67,80,800.0,0.989583,Quarter,G4_D#4
2390,Left,1,51,80,800.0,0.989583,Quarter,D#3_A#3
2394,Right,0,62,80,801.0,0.989583,Quarter,F4_D4
2392,Left,1,46,80,801.0,0.989583,Quarter,A#3_A#2
2396,Right,0,58,80,804.0,2.989583,DottedHalf,G4_D#4_A#4_A#3
2400,Left,1,51,80,805.0,0.989583,Quarter,D#3
2401,Left,1,55,80,806.0,0.989583,Quarter,G3
2402,Right,0,67,80,806.0,0.989583,Quarter,G4
2404,Left,1,58,80,807.0,4.989583,Unknown,A#3
2403,Right,0,63,80,807.0,0.989583,Quarter,D#4
2406,Left,1,55,80,808.0,0.989583,Quarter,G3
2405,Right,0,67,80,808.0,3.989583,Whole,G4
2407,Left,1,51,80,809.0,0.989583,Quarter,D#3
2408,Right,0,70,80,809.0,2.989583,DottedHalf,A#4
2409,Right,0,75,80,810.0,0.989583,Quarter,D#5
2410,Left,1,46,80,810.0,1.989583,Half,A#2
2411,Right,0,79,80,811.0,0.989583,Quarter,G5
2415,Left,1,59,80,812.0,0.989583,Quarter,B3_B2
2412,Right,0,77,80,812.0,0.989583,Quarter,G#4_F5_F4
2417,Right,0,74,80,812.5,0.489583,Eighth,D5
2419,Right,0,63,80,813.0,0.989583,Quarter,G4_D#5_D#4
2418,Left,1,60,80,813.0,0.989583,Quarter,C4_C3
2423,Right,0,77,70,817.0,0.989583,Quarter,F5
2425,Left,1,53,70,818.0,1.989583,Quarter,F3_A3_A2
2424,Right,0,65,70,818.0,1.989583,Half,F4_D#5
2429,Right,0,72,70,818.5,0.489583,Eighth,C5
2431,Left,1,46,70,819.0,0.989583,Quarter,A#3_A#2
2430,Right,0,74,70,819.0,0.989583,Quarter,D5
2433,Left,1,65,100,824.0,1.989583,Quarter,F4_C4_A3
2434,Right,0,87,100,824.0,0.489583,Eighth,D#6
2437,Right,0,84,100,824.5,0.489583,Eighth,C6
2439,Left,1,62,100,825.0,0.989583,Quarter,D4_A#3
2438,Right,0,86,100,825.0,0.489583,Eighth,D6
2441,Right,0,89,100,825.5,0.489583,Eighth,F6
2444,Right,0,77,100,826.0,0.989583,Quarter,F5
2442,Left,1,63,100,826.0,2.989583,Quarter,F4_D#4_C4
2446,Right,0,87,100,827.0,0.489583,Eighth,D#6
2447,Left,1,60,100,827.0,0.989583,Quarter,C4_A3
2449,Right,0,84,100,827.5,0.489583,Eighth,C6
2452,Right,0,86,100,828.0,0.489583,Eighth,D6
2450,Left,1,62,100,828.0,0.989583,Quarter,D4_A#3
2453,Right,0,89,100,828.5,0.489583,Eighth,F6
2455,Left,1,60,100,829.0,2.989583,Quarter,F4_D#4_C4
2454,Right,0,77,100,829.0,0.989583,Quarter,F5
2459,Left,1,60,100,830.0,0.989583,Quarter,C4_A3
2458,Right,0,87,100,830.0,0.489583,Eighth,D#6
2461,Right,0,84,100,830.5,0.489583,Eighth,C6
2462,Left,1,62,100,831.0,0.989583,Quarter,D4_A#3
2464,Right,0,86,100,831.0,0.489583,Eighth,D6
2465,Right,0,89,100,831.5,0.489583,Eighth,F6
2467,Right,0,77,100,832.0,0.989583,Quarter,F5
2466,Left,1,65,111,832.0,2.989583,Quarter,F4_D#4_C4
2471,Left,1,60,100,833.0,0.989583,Quarter,C4_A3
2470,Right,0,87,100,833.0,0.489583,Eighth,D#6
2473,Right,0,84,100,833.5,0.489583,Eighth,C6
2474,Left,1,62,100,834.0,0.989583,Quarter,D4_A#3
2475,Right,0,86,100,834.0,0.489583,Eighth,D6
2477,Right,0,89,100,834.5,0.489583,Eighth,F6
2478,Right,0,87,100,835.0,0.489583,Eighth,D#6
2479,Right,0,86,100,835.5,0.489583,Eighth,D6
2481,Right,0,84,100,836.0,0.489583,Eighth,C6
2480,Left,1,52,100,836.0,0.989583,Quarter,E3
2482,Right,0,82,100,836.5,0.489583,Eighth,A#5
2484,Right,0,81,100,837.0,0.489583,Eighth,A5
2483,Left,1,53,100,837.0,0.989583,Quarter,F3
2485,Right,0,82,100,837.5,0.489583,Eighth,A#5
2486,Right,0,86,100,838.0,0.489583,Eighth,D6
2487,Right,0,77,100,838.5,0.489583,Eighth,F5
2488,Right,0,84,100,839.0,0.489583,Eighth,C6
2489,Left,1,41,100,839.0,0.989583,Quarter,F2
2490,Right,0,75,100,839.5,0.489583,Eighth,D#5
2492,Right,0,82,100,840.0,0.489583,Eighth,D5_A#5
2491,Left,1,46,100,840.0,0.989583,Quarter,A#2
2494,Right,0,77,100,840.5,0.489583,Eighth,F5
2495,Right,0,75,100,841.0,0.489583,Eighth,D#5
2496,Right,0,74,100,841.5,0.489583,Eighth,D5
2497,Right,0,72,100,842.0,0.489583,Eighth,C5
2498,Left,1,40,100,842.0,0.989583,Quarter,E2
2499,Right,0,70,100,842.5,0.489583,Eighth,A#4
2501,Left,1,41,100,843.0,0.989583,Quarter,F2
2500,Right,0,69,100,843.0,0.489583,Eighth,A4
2502,Right,0,70,100,843.5,0.489583,Eighth,A#4
2503,Right,0,74,100,844.0,0.489583,Eighth,D5
2504,Right,0,65,100,844.5,0.489583,Eighth,F4
2505,Left,1,29,100,845.0,0.989583,Quarter,F2_F1
2506,Right,0,72,100,845.0,0.489583,Eighth,C5
2508,Right,0,63,100,845.5,0.489583,Eighth,D#4
2509,Left,1,34,100,846.0,0.989583,Quarter,A#2_A#1
2511,Right,0,62,100,846.0,0.489583,Eighth,D4_A#4
2513,Right,0,65,100,846.5,0.489583,Eighth,F4
2514,Right,0,62,100,847.0,0.489583,Eighth,D4
2515,Right,0,58,100,847.5,0.489583,Eighth,A#3
2516,Right,0,53,100,848.0,0.489583,Eighth,F3
2517,Right,0,50,100,848.5,0.489583,Eighth,D3
2518,Left,1,34,100,849.0,0.989583,Quarter,A#2_A#1
2520,Left,1,58,80,852.0,1.989583,Half,A#3
2521,Left,1,55,82,854.0,0.989583,Quarter,G3
2522,Right,0,70,83,855.0,1.989583,Half,A#4
2523,Left,1,52,83,855.0,0.989583,Quarter,E3
2524,Left,1,55,84,856.0,0.989583,Quarter,G3
2525,Right,0,67,85,857.0,0.989583,Quarter,G4
2526,Left,1,58,85,857.0,0.989583,Quarter,A#3
2527,Right,0,64,87,858.0,0.989583,Quarter,E4
2528,Left,1,61,87,858.0,1.989583,Half,C#4
2529,Right,0,67,88,859.0,0.989583,Quarter,G4
2530,Right,0,70,89,860.0,0.989583,Quarter,A#4
2531,Left,1,58,89,860.0,0.989583,Quarter,A#3
2532,Right,0,73,90,861.0,1.989583,Half,C#5
2533,Left,1,55,90,861.0,0.989583,Quarter,G3
2534,Left,1,58,91,862.0,0.989583,Quarter,A#3
2536,Left,1,61,92,863.0,0.989583,Quarter,C#4
2535,Right,0,70,92,863.0,0.989583,Quarter,A#4
2538,Left,1,64,94,864.0,1.989583,Half,E4
2537,Right,0,67,94,864.0,0.989583,Quarter,G4
2539,Right,0,70,95,865.0,0.989583,Quarter,A#4
2540,Right,0,73,96,866.0,0.989583,Quarter,C#5
2541,Left,1,61,96,866.0,0.989583,Quarter,C#4
2542,Right,0,76,97,867.0,1.989583,Half,E5
2543,Left,1,58,97,867.0,0.989583,Quarter,A#3
2544,Left,1,61,98,868.0,0.989583,Quarter,C#4
2545,Right,0,73,99,869.0,0.989583,Quarter,C#5
2546,Left,1,64,99,869.0,0.989583,Quarter,E4
2547,Left,1,67,100,870.0,5.989583,Unknown,G4_A#4
2548,Right,0,70,100,870.0,0.989583,Quarter,A#4
2550,Right,0,73,100,871.0,0.989583,Quarter,C#5
2551,Right,0,76,100,872.0,0.989583,Quarter,E5
2552,Right,0,79,100,873.0,0.989583,Quarter,G5
2553,Right,0,77,100,874.0,0.989583,Quarter,F5
2554,Right,0,76,100,875.0,0.989583,Quarter,E5
2557,Right,0,76,100,876.0,0.989583,Quarter,E5
2555,Left,1,68,100,876.0,5.989583,Unknown,G#4_C5
2558,Right,0,77,100,877.0,0.989583,Quarter,F5
2559,Right,0,77,100,878.0,0.489583,Eighth,F5
2560,Right,0,79,100,878.25,0.489583,Eighth,G5
2561,Right,0,76,100,878.5,0.489583,Eighth,E5
2562,Right,0,77,100,878.75,0.489583,Eighth,F5
2563,Right,0,80,100,879.0,0.989583,Quarter,G#5
2564,Right,0,79,100,880.0,0.989583,Quarter,G5
2565,Right,0,77,100,881.0,0.989583,Quarter,F5
2566,Left,1,73,100,882.0,5.989583,Unknown,G4_C#5_A#4
2569,Right,0,76,100,883.0,0.989583,Quarter,E5
2570,Right,0,76,100,884.0,0.989583,Quarter,E5
2571,Right,0,76,100,885.0,0.15625,TripletSixteenth,E5
2572,Right,0,79,100,885.166667,0.8125,DottedEighth,G5
2573,Right,0,77,100,886.0,0.989583,Quarter,F5
2574,Right,0,76,100,887.0,0.989583,Quarter,E5
2575,Left,1,68,100,888.0,5.989583,Unknown,G#4_C5
2577,Right,0,77,100,889.0,0.989583,Quarter,F5
2578,Right,0,77,100,890.0,0.989583,Quarter,F5
2579,Right,0,77,100,891.0,0.15625,TripletSixteenth,F5
2580,Right,0,80,100,891.166667,0.822917,DottedEighth,G#5
2581,Right,0,79,100,892.0,0.989583,Quarter,G5
2582,Right,0,77,100,893.0,0.989583,Quarter,F5
2585,Right,0,75,100,894.0,0.989583,Quarter,D#5
2583,Left,1,68,100,894.0,5.989583,Unknown,G#4_F4
2586,Right,0,74,97,895.0,0.989583,Quarter,D5
2587,Right,0,74,93,896.0,0.989583,Quarter,D5
2588,Right,0,74,89,897.0,0.15625,TripletSixteenth,D5
2589,Right,0,77,89,897.166667,0.822917,DottedEighth,F5
2590,Right,0,75,86,898.0,0.989583,Quarter,D#5
2591,Right,0,74,82,899.0,0.989583,Quarter,D5
2594,Right,0,72,78,900.0,0.989583,Quarter,C5
2592,Left,1,65,78,900.0,5.989583,Unknown,F4_D4
2595,Right,0,70,74,901.0,0.989583,Quarter,A#4
2596,Right,0,69,71,902.0,0.989583,Quarter,A4
2597,Right,0,70,70,903.0,0.989583,Quarter,A#4
2598,Right,0,72,70,904.0,0.989583,Quarter,C5
2599,Right,0,68,70,905.0,0.989583,Quarter,G#4
2600,Right,0,63,80,906.0,2.989583,DottedHalf,G4_D#4_A#4_A#3
2604,Left,1,51,80,907.0,0.989583,Quarter,D#3
2605,Right,0,67,80,908.0,0.989583,Quarter,G4
2606,Left,1,55,80,908.0,0.989583,Quarter,G3
2607,Left,1,58,80,909.0,6.989583,Unknown,A#3
2608,Right,0,63,80,909.0,0.989583,Quarter,D#4
2609,Right,0,67,80,910.0,3.989583,Whole,G4
2610,Left,1,55,80,910.0,0.989583,Quarter,G3
2611,Right,0,70,80,911.0,4.989583,Unknown,A#4
2612,Left,1,51,80,911.0,0.989583,Quarter,D#3
2613,Right,0,75,80,912.0,0.989583,Quarter,D#5
2614,Left,1,46,80,912.0,2.989583,DottedHalf,A#2
2615,Right,0,79,80,913.0,0.989583,Quarter,G5
2618,Left,1,44,80,914.0,0.989583,Quarter,G#2
2616,Right,0,65,80,914.0,0.989583,Quarter,F5_F4
2619,Right,0,74,80,914.5,0.489583,Eighth,D5
2620,Right,0,75,80,915.0,0.989583,Eighth,G4_D#5
2622,Left,1,43,80,915.0,0.989583,Quarter,G2
2623,Right,0,79,80,915.5,0.489583,Eighth,G5
2624,Right,0,70,80,916.0,0.989583,Quarter,A#4
2625,Left,1,63,80,918.0,1.989583,Half,G#3_D#4
2626,Right,0,72,80,918.0,0.489583,Eighth,C5
2628,Right,0,75,80,918.5,0.489583,Eighth,D#5
2630,Right,0,70,80,919.0,0.989583,Quarter,A#4
2629,Left,1,55,80,919.0,0.989583,Quarter,G3
2632,Left,1,58,80,921.0,1.989583,Half,D3_A#3
2631,Right,0,68,80,921.0,0.989583,Eighth,G#4_F4
2635,Right,0,70,80,921.5,0.489583,Eighth,A#4
2637,Right,0,67,80,922.0,0.989583,Quarter,G4_D#4
2636,Left,1,51,80,922.0,0.989583,Quarter,D#3
2641,Right,0,62,80,924.0,0.989583,Quarter,F4_D4
2639,Left,1,46,80,924.0,1.989583,Quarter,A#3_A#2
2644,Right,0,65,80,925.0,0.989583,Quarter,G#4_F4
2643,Left,1,50,80,925.0,0.989583,Quarter,D3
2648,Left,1,51,80,926.0,0.989583,Quarter,D#3_A#3
2646,Right,0,67,80,926.0,0.989583,Quarter,G4_D#4
2650,Right,0,65,80,927.0,0.989583,Quarter,F4_D4
2651,Left,1,46,80,927.0,0.989583,Quarter,A#3_A#2
2654,Right,0,58,80,930.0,2.989583,DottedHalf,F#4_D#4_A#4_A#3
2658,Left,1,51,80,931.0,0.989583,Quarter,D#3
2659,Right,0,66,80,932.0,0.989583,Quarter,F#4
2660,Left,1,54,80,932.0,0.989583,Quarter,F#3
2661,Left,1,58,80,933.0,5.989583,Unknown,A#3
2662,Right,0,63,80,933.0,0.989583,Quarter,D#4
2663,Left,1,54,80,934.0,0.989583,Quarter,F#3
2664,Right,0,66,80,934.0,3.989583,Whole,F#4
2666,Right,0,70,80,935.0,2.989583,DottedHalf,A#4
2665,Left,1,51,80,935.0,0.989583,Quarter,D#3
2668,Right,0,75,80,936.0,0.989583,Quarter,D#5
2667,Left,1,46,80,936.0,2.989583,DottedHalf,A#2
2669,Right,0,78,80,937.0,0.989583,Quarter,F#5
2670,Right,0,77,80,938.0,0.989583,Quarter,G#4_F5_F4
2673,Right,0,74,80,938.5,0.489583,Eighth,D5
2674,Right,0,75,80,939.0,0.989583,Quarter,F#4_D#5_D#4
2677,Left,1,47,80,939.0,0.989583,Quarter,B3_B2
2679,Left,1,54,70,944.0,1.989583,Quarter,F#3_A#3_A#2
2682,Right,0,76,70,944.0,1.989583,Eighth,F#4_E5
2684,Right,0,73,71,944.5,0.489583,Eighth,C#5
2685,Left,1,47,72,945.0,0.989583,Quarter,B3_B2
2686,Right,0,75,72,945.0,0.989583,Quarter,D#5
2690,Left,1,58,76,947.0,1.989583,Quarter,F#3_A#3_A#2
2688,Right,0,66,76,947.0,1.989583,Half,F#4_E5
2693,Right,0,73,78,947.5,0.489583,Eighth,C#5
2695,Left,1,47,79,948.0,0.989583,Quarter,B3_B2
2694,Right,0,75,79,948.0,0.989583,Quarter,D#5
2697,Left,1,46,83,950.0,1.0,Quarter,F#3_A#3_A#2
2699,Right,0,66,83,950.0,1.989583,Half,F#4_E5
2702,Right,0,73,84,950.5,0.489583,Eighth,C#5
2703,Left,1,47,86,951.0,4.989583,Half,B3_B2
2704,Right,0,75,86,951.0,0.989583,Quarter,D#5
2706,Right,0,66,88,952.0,2.989583,Half,F#5_F#4
2708,Left,1,51,90,953.0,0.989583,Quarter,D#3
2709,Left,1,52,93,954.0,2.989583,DottedHalf,E3
2710,Right,0,68,93,954.0,2.989583,DottedHalf,G#4
2711,Right,0,76,95,955.0,2.989583,DottedHalf,E5
2712,Left,1,61,97,956.0,2.989583,DottedHalf,C#4
2713,Left,1,55,99,957.0,5.989583,Unknown,G3
2714,Right,0,70,99,957.0,0.989583,Quarter,A#4
2715,Right,0,75,100,958.0,2.989583,Half,D#5_B4
2717,Left,1,63,100,959.0,0.989583,Quarter,D#4
2719,Left,1,64,100,960.0,0.989583,Quarter,E4
2718,Right,0,73,100,960.0,2.989583,DottedHalf,C#5
2720,Left,1,66,100,961.0,0.989583,Quarter,F#4
2721,Right,0,70,100,961.0,1.989583,Half,A#4
2722,Left,1,64,100,962.0,0.989583,Quarter,E4
2723,Left,1,63,100,963.0,4.989583,Quarter,D#4_B3
2725,Right,0,71,100,963.0,0.989583,Quarter,D#5_B4
2727,Right,0,78,100,964.0,2.989583,DottedHalf,F#5_F#4
2729,Left,1,51,100,965.0,0.989583,Quarter,D#3
2730,Right,0,68,100,966.0,2.989583,DottedHalf,G#4
2731,Left,1,52,100,966.0,2.989583,DottedHalf,E3
2732,Right,0,76,100,967.0,2.989583,DottedHalf,E5
2733,Left,1,61,100,968.0,2.989583,DottedHalf,C#4
2734,Right,0,70,100,969.0,0.989583,Quarter,A#4
2735,Left,1,54,100,969.0,2.989583,DottedHalf,F#3
2736,Right,0,71,100,970.0,2.989583,Half,D#5_B4
2738,Left,1,63,100,971.0,2.989583,DottedHalf,D#4
2740,Right,0,70,100,972.0,2.989583,DottedHalf,A#4
2739,Left,1,55,100,972.0,2.989583,DottedHalf,G3
2741,Right,0,73,100,973.0,2.989583,DottedHalf,C#5
2742,Left,1,63,98,974.0,2.989583,DottedHalf,D#4
2743,Left,1,56,95,975.0,2.989583,DottedHalf,G#3
2744,Right,0,71,92,976.0,2.989583,DottedHalf,B4
2745,Left,1,63,89,977.0,2.989583,DottedHalf,D#4
2746,Left,1,58,86,978.0,2.989583,DottedHalf,A#3
2747,Right,0,70,83,979.0,2.989583,DottedHalf,A#4
2748,Left,1,63,80,980.0,2.989583,DottedHalf,D#4
2749,Left,1,59,77,981.0,2.989583,DottedHalf,B3
2750,Right,0,69,74,982.0,0.989583,Quarter,A4
2751,Left,1,63,71,983.0,0.989583,Quarter,D#4
2752,Left,1,58,100,987.0,0.989583,Quarter,A#3
2753,Right,0,70,100,988.0,0.989583,Quarter,A#4
2754,Right,0,70,100,989.0,0.989583,Quarter,A#4
2755,Right,0,70,101,990.0,0.989583,Quarter,A#4
2756,Right,0,70,101,991.0,0.989583,Quarter,A#4
2757,Left,1,65,102,992.0,0.489583,Eighth,F4
2758,Right,0,80,102,992.0,0.989583,Eighth,G#5_A#4
2761,Right,0,77,102,992.5,0.489583,Eighth,F5
2760,Left,1,62,102,992.5,0.489583,Eighth,D4
2763,Right,0,70,103,993.0,0.989583,Quarter,G5_A#4
2762,Left,1,63,103,993.0,0.989583,Quarter,D#4
2765,Left,1,58,103,994.0,0.989583,Quarter,A#3
2766,Right,0,70,103,994.0,0.989583,Quarter,A#4
2767,Right,0,77,104,995.0,0.989583,Eighth,F5_A#4
2769,Left,1,68,104,995.0,0.489583,Eighth,G#4
2770,Left,1,65,104,995.5,0.489583,Eighth,F4
2771,Right,0,74,104,995.5,0.489583,Eighth,D5
2772,Right,0,70,105,996.0,0.989583,Quarter,D#5_A#4
2774,Left,1,67,105,996.0,0.989583,Quarter,G4
2776,Left,1,58,105,997.0,0.989583,Quarter,A#3
2775,Right,0,70,105,997.0,0.989583,Quarter,A#4
2777,Right,0,80,106,998.0,0.989583,Eighth,G#5_A#4
2779,Left,1,65,106,998.0,0.489583,Eighth,F4
2780,Right,0,77,106,998.5,0.489583,Eighth,F5
2781,Left,1,62,106,998.5,0.489583,Eighth,D4
2784,Left,1,63,106,999.0,0.989583,Quarter,D#4
2782,Right,0,79,106,999.0,0.989583,Quarter,G5_A#4
2786,Left,1,58,107,1000.0,0.989583,Quarter,A#3
2785,Right,0,70,107,1000.0,0.989583,Quarter,A#4
2789,Left,1,68,108,1001.0,0.489583,Eighth,G#4
2787,Right,0,70,108,1001.0,0.989583,Quarter,F5_A#4
2791,Left,1,65,108,1001.5,0.489583,Eighth,F4
2790,Right,0,74,108,1001.5,0.489583,Eighth,D5
2792,Left,1,67,108,1002.0,0.989583,Quarter,G4
2793,Right,0,75,108,1002.0,0.989583,Quarter,D#5
2794,Right,0,75,109,1003.0,0.989583,Quarter,D#5
2795,Left,1,63,109,1003.0,0.989583,Quarter,D#4
2796,Left,1,68,110,1004.0,0.489583,Eighth,G#4
2797,Right,0,75,110,1004.0,0.989583,Quarter,D#5_C6
2800,Right,0,80,110,1004.5,0.489583,Eighth,G#5
2799,Left,1,65,110,1004.5,0.489583,Eighth,F4
2801,Right,0,82,110,1005.0,0.989583,Quarter,D#5_A#5
2802,Left,1,67,110,1005.0,0.989583,Quarter,G4
2805,Left,1,63,110,1006.0,0.989583,Quarter,D#4
2804,Right,0,75,110,1006.0,0.989583,Quarter,D#5
2806,Right,0,75,110,1007.0,0.989583,Quarter,G#5_D#5
2808,Left,1,72,110,1007.0,0.489583,Eighth,C5
2810,Right,0,78,110,1007.5,0.489583,Eighth,F#5
2809,Left,1,69,110,1007.5,0.489583,Eighth,A4
2811,Right,0,79,110,1008.0,0.989583,Quarter,G5_D#5
2813,Left,1,70,110,1008.0,0.989583,Quarter,A#4
2815,Right,0,75,110,1009.0,0.989583,Quarter,D#5
2814,Left,1,63,110,1009.0,0.989583,Quarter,D#4
2817,Right,0,75,110,1010.0,0.989583,Quarter,D#5_C6
2816,Left,1,68,110,1010.0,0.489583,Eighth,G#4
2819,Left,1,65,110,1010.5,0.489583,Eighth,F4
2820,Right,0,80,110,1010.5,0.489583,Eighth,G#5
2822,Right,0,82,110,1011.0,0.989583,Quarter,D#5_A#5
2821,Left,1,67,110,1011.0,0.989583,Quarter,G4
2824,Right,0,75,110,1012.0,0.989583,Quarter,D#5
2825,Left,1,63,110,1012.0,0.989583,Quarter,D#4
2828,Left,1,72,110,1013.0,0.489583,Eighth,C5
2826,Right,0,75,110,1013.0,0.989583,Quarter,G#5_D#5
2829,Right,0,78,110,1013.5,0.489583,Eighth,F#5
2830,Left,1,69,110,1013.5,0.489583,Eighth,A4
2831,Left,1,70,110,1014.0,0.989583,Quarter,A#4
2832,Right,0,75,110,1014.0,0.989583,Quarter,G5_D#5
2835,Right,0,75,110,1015.0,0.989583,Quarter,D#5
2834,Left,1,63,110,1015.0,0.989583,Quarter,D#4
2836,Right,0,85,120,1016.0,0.989583,Eighth,D#5_C#6
2838,Left,1,67,120,1016.0,1.989583,Quarter,G4_G3_D#4
2841,Right,0,82,120,1016.5,0.489583,Eighth,A#5
2844,Right,0,84,120,1017.0,0.489583,Eighth,C6
2842,Left,1,68,120,1017.0,0.989583,Quarter,G#4_G#3
2845,Right,0,87,120,1017.5,0.489583,Eighth,D#6
2846,Right,0,86,120,1018.0,0.489583,Eighth,D6
2847,Right,0,84,120,1018.5,0.489583,Eighth,C6
2849,Right,0,82,120,1019.0,0.489583,Eighth,A#5
2848,Left,1,56,120,1019.0,0.989583,Quarter,G#3
2850,Right,0,80,120,1019.5,0.489583,Eighth,G#5
2851,Right,0,79,120,1020.0,0.489583,Eighth,G5
2852,Left,1,58,120,1020.0,0.989583,Quarter,A#3
2853,Right,0,82,120,1020.5,0.489583,Eighth,A#5
2854,Right,0,87,120,1021.0,0.489583,Eighth,D#6
2855,Right,0,79,120,1021.5,0.489583,Eighth,G5
2856,Right,0,86,120,1022.0,0.489583,Eighth,D6
2857,Left,1,59,120,1022.0,0.989583,Quarter,G#4_F4_B3
2860,Right,0,77,120,1022.5,0.489583,Eighth,F5
2861,Right,0,87,120,1023.0,0.489583,Eighth,D#6
2862,Left,1,67,120,1023.0,0.989583,Quarter,G4_D#4_C4
2865,Right,0,75,120,1023.5,0.489583,Eighth,D#5
2866,Right,0,74,120,1024.0,0.489583,Eighth,D5
2867,Right,0,72,120,1024.5,0.489583,Eighth,C5
2868,Left,1,44,120,1025.0,0.989583,Quarter,G#2
2869,Right,0,70,120,1025.0,0.489583,Eighth,A#4
2870,Right,0,68,120,1025.5,0.489583,Eighth,G#4
2872,Right,0,67,120,1026.0,0.489583,Eighth,G4
2871,Left,1,46,120,1026.0,0.989583,Quarter,A#2
2873,Right,0,70,120,1026.5,0.489583,Eighth,A#4
2874,Right,0,75,120,1027.0,0.489583,Eighth,D#5
2875,Right,0,67,120,1027.5,0.489583,Eighth,G4
2876,Right,0,74,120,1028.0,0.489583,Eighth,D5
2877,Left,1,47,120,1028.0,0.989583,Quarter,G#3_F3_B2
2880,Right,0,65,120,1028.5,0.489583,Eighth,F4
2884,Right,0,75,120,1029.0,0.489583,Eighth,D#5
2881,Left,1,55,120,1029.0,0.989583,Quarter,G3_D#3_C3
2885,Right,0,63,120,1029.5,0.489583,Eighth,D#4
2886,Right,0,62,120,1030.0,0.489583,Eighth,D4
2887,Right,0,60,120,1030.5,0.489583,Eighth,C4
2889,Left,1,32,120,1031.0,0.989583,Quarter,G#1
2888,Right,0,58,120,1031.0,0.489583,Eighth,A#3
2890,Right,0,56,120,1031.5,0.489583,Eighth,G#3
2892,Left,1,34,120,1032.0,0.989583,Quarter,A#1
2891,Right,0,55,120,1032.0,0.489583,Eighth,G3
2893,Right,0,58,120,1032.5,0.489583,Eighth,A#3
2894,Left,1,46,120,1033.0,0.989583,Quarter,A#2
2895,Right,0,63,120,1033.0,0.489583,Eighth,D#4
2896,Right,0,55,120,1033.5,0.489583,Eighth,G3
2898,Right,0,62,120,1034.0,0.489583,Eighth,D4
2897,Left,1,46,120,1034.0,0.989583,Quarter,A#2
2899,Right,0,53,120,1034.5,0.489583,Eighth,F3
2900,Right,0,55,120,1035.0,0.989583,Quarter,G3_D#4
2901,Left,1,39,120,1035.0,11.989583,Unknown,D#2
2903,Left,1,51,120,1036.0,0.989583,Quarter,D#3
2904,Left,1,51,120,1037.0,0.989583,Quarter,D#3
2908,Left,1,49,120,1038.0,0.989583,Quarter,C#3
2905,Right,0,55,120,1038.0,2.989583,DottedHalf,G4_G3_D#4_A#3
2910,Left,1,51,120,1039.0,0.989583,Quarter,D#3
2911,Left,1,46,120,1040.0,0.989583,Quarter,A#2
2916,Left,1,48,120,1041.0,0.989583,Quarter,C3
2912,Right,0,68,120,1041.0,2.989583,DottedHalf,G#4_G#3_D#4_C4
2917,Left,1,51,120,1042.0,0.989583,Quarter,D#3
2918,Left,1,44,120,1043.0,0.989583,Quarter,G#2
2920,Right,0,62,120,1044.0,2.989583,DottedHalf,G#3_D4_A#4
2919,Left,1,50,120,1044.0,0.989583,Quarter,D3
2923,Left,1,53,120,1045.0,0.989583,Quarter,F3
2924,Left,1,46,120,1046.0,0.989583,Quarter,A#2
2927,Left,1,51,120,1047.0,8.989583,Unknown,D#3
2925,Right,0,63,120,1047.0,0.989583,Quarter,G3_D#4
2928,Right,0,75,120,1048.0,0.989583,Quarter,D#5
2929,Right,0,75,120,1049.0,0.989583,Quarter,D#5
2930,Right,0,73,120,1050.0,0.989583,Quarter,C#5
2931,Left,1,55,120,1050.0,2.989583,DottedHalf,G3_A#3
2933,Right,0,75,120,1051.0,0.989583,Quarter,D#5
2934,Right,0,70,120,1052.0,0.989583,Quarter,A#4
2936,Left,1,56,120,1053.0,2.989583,DottedHalf,G#3_C4
2935,Right,0,72,120,1053.0,0.989583,Quarter,C5
2938,Right,0,75,120,1054.0,0.989583,Quarter,D#5
2939,Right,0,68,120,1055.0,0.989583,Quarter,G#4
2940,Left,1,62,120,1056.0,2.989583,DottedHalf,G#3_F3_D4_D#3_A#3
2942,Right,0,68,120,1056.0,2.989583,DottedHalf,G#4_F4_D5
2948,Right,0,77,120,1057.0,0.989583,Quarter,F5
2949,Right,0,70,120,1058.0,0.989583,Quarter,A#4
2950,Left,1,58,120,1059.0,0.989583,Quarter,G3_D#4_D#3_A#3
2953,Right,0,75,120,1059.0,0.489583,Eighth,G4_D#5
2956,Right,0,70,120,1059.5,0.489583,Eighth,A#4
2957,Right,0,67,120,1060.0,0.489583,Eighth,G4
2958,Right,0,63,120,1060.5,0.489583,Eighth,D#4
2959,Right,0,58,120,1061.0,0.489583,Eighth,A#3
2960,Right,0,55,120,1061.5,0.489583,Eighth,G3
2961,Left,1,51,120,1062.0,1.989583,Half,D#3_D#2
