,hand,channel,note,velocity,start_beat,duration,note_value,chord
0,Right,0,77,80,0.0,0.739583,DottedEighth,F5
1,Right,0,75,80,0.75,0.239583,Sixteenth,D#5
2,Right,0,65,80,1.0,1.489583,DottedQuarter,G#4_F4_D#5
4,Left,1,46,80,1.0,0.239583,Sixteenth,A#2
6,Left,1,58,80,1.25,0.239583,Sixteenth,A#3
7,Left,1,58,80,1.5,0.239583,Sixteenth,A#3
8,Right,0,74,80,1.5,0.739583,DottedEighth,D5
9,Left,1,58,80,1.75,0.239583,Sixteenth,A#3
10,Left,1,58,80,2.0,0.239583,Sixteenth,A#3
11,Left,1,58,80,2.25,0.239583,Sixteenth,A#3
12,Right,0,77,80,2.25,0.239583,Sixteenth,F5
14,Right,0,75,80,2.5,0.489583,Sixteenth,G4_D#5
13,Left,1,63,80,2.5,0.489583,Eighth,D#4
17,Left,1,58,80,2.75,0.239583,Sixteenth,A#3
16,Right,0,72,80,2.75,0.239583,Sixteenth,C5
18,Right,0,65,80,3.0,0.989583,Quarter,F4_C5
20,Left,1,62,80,3.0,0.989583,Quarter,D4
21,Left,1,58,80,3.25,0.239583,Sixteenth,A#3
22,Right,0,70,80,3.5,0.739583,DottedEighth,A#4
23,Left,1,58,80,3.5,0.239583,Sixteenth,A#3
24,Left,1,58,80,3.75,0.239583,Sixteenth,A#3
25,Left,1,58,80,4.0,0.239583,Sixteenth,A#3
26,Right,0,71,80,4.25,0.239583,Sixteenth,B4
27,Left,1,58,80,4.25,0.239583,Sixteenth,A#3
28,Right,0,65,80,4.5,0.489583,Eighth,F4_C5
29,Left,1,50,80,4.5,0.239583,Sixteenth,D3
31,Right,0,68,80,4.75,0.239583,Sixteenth,G#4
32,Left,1,58,80,4.75,0.239583,Sixteenth,A#3
34,Right,0,68,80,5.0,0.239583,Sixteenth,G#4
33,Left,1,51,80,5.0,0.239583,Sixteenth,D#3
35,Right,0,67,80,5.25,0.239583,Sixteenth,G4
36,Left,1,58,80,5.25,0.239583,Sixteenth,A#3
37,Right,0,70,80,5.5,0.239583,Sixteenth,A#4
38,Left,1,55,80,5.5,0.239583,Sixteenth,G3
39,Right,0,63,80,5.75,0.239583,Sixteenth,D#4
40,Left,1,58,80,5.75,0.239583,Sixteenth,A#3
41,Left,1,56,80,6.0,0.239583,Sixteenth,G#3_F3
43,Right,0,63,80,6.0,0.239583,Sixteenth,D#4
45,Right,0,62,80,6.25,0.239583,Sixteenth,D4
44,Left,1,58,80,6.25,0.239583,Sixteenth,A#3
47,Right,0,65,80,6.5,0.239583,Sixteenth,F4
46,Left,1,55,80,6.5,0.239583,Sixteenth,G3_D#3
50,Right,0,63,80,6.75,0.739583,DottedEighth,D#4
49,Left,1,58,80,6.75,0.239583,Sixteenth,A#3
52,Right,0,67,80,7.0,0.489583,Eighth,G4
51,Left,1,46,80,7.0,0.239583,Sixteenth,A#2
53,Left,1,58,80,7.25,0.239583,Sixteenth,A#3
55,Left,1,58,80,7.5,0.239583,Sixteenth,A#3
54,Right,0,65,80,7.5,0.489583,Eighth,F4_D4
57,Left,1,58,80,7.75,0.239583,Sixteenth,A#3
58,Left,1,68,80,8.0,0.239583,Sixteenth,G#4_C5
59,Right,0,77,80,8.0,0.739583,DottedEighth,F5
61,Left,1,58,80,8.25,0.239583,Sixteenth,A#3
62,Left,1,67,80,8.5,0.239583,Sixteenth,G4_A#4
64,Left,1,58,80,8.75,0.239583,Sixteenth,A#3
65,Right,0,75,80,8.75,0.239583,Sixteenth,D#5
67,Right,0,74,80,9.0,0.052083,SixtyFourth,D5
66,Left,1,65,80,9.0,0.989583,Sixteenth,G#4_F4
69,Right,0,75,80,9.0625,0.052083,SixtyFourth,D#5
70,Right,0,77,80,9.125,0.052083,SixtyFourth,F5
71,Right,0,75,80,9.1875,0.302083,Triplet,D#5
72,Left,1,58,80,9.25,0.239583,Sixteenth,A#3
74,Left,1,58,80,9.5,0.239583,Sixteenth,A#3
73,Right,0,74,80,9.5,0.739583,DottedEighth,D5
75,Left,1,58,80,9.75,0.239583,Sixteenth,A#3
76,Left,1,65,80,10.0,0.489583,Sixteenth,G#4_F4
78,Right,0,77,80,10.25,0.239583,Sixteenth,F5
79,Left,1,58,80,10.25,0.239583,Sixteenth,A#3
80,Left,1,67,80,10.5,0.489583,Eighth,G4_D#4
81,Right,0,75,80,10.5,0.239583,Sixteenth,D#5
84,Right,0,72,80,10.75,0.239583,Sixteenth,C5
83,Left,1,58,80,10.75,0.239583,Sixteenth,A#3
87,Right,0,69,80,11.0,0.489583,Eighth,A4
85,Left,1,62,80,11.0,0.989583,Sixteenth,F4_D4
88,Left,1,58,80,11.25,0.239583,Sixteenth,A#3
89,Left,1,58,80,11.5,0.239583,Sixteenth,A#3
90,Right,0,70,80,11.5,0.739583,DottedEighth,A#4
91,Left,1,58,80,11.75,0.239583,Sixteenth,A#3
92,Left,1,58,80,12.0,0.239583,Sixteenth,A#3
94,Left,1,58,80,12.25,0.239583,Sixteenth,A#3
93,Right,0,71,80,12.25,0.239583,Sixteenth,B4
97,Left,1,50,80,12.5,0.239583,Sixteenth,D3
95,Right,0,65,80,12.5,0.489583,Eighth,F4_C5
99,Left,1,58,80,12.75,0.239583,Sixteenth,A#3
98,Right,0,68,80,12.75,0.239583,Sixteenth,G#4
100,Right,0,63,80,13.0,0.489583,Eighth,G4_D#4
102,Left,1,51,80,13.0,0.239583,Sixteenth,D#3
103,Right,0,70,80,13.25,0.239583,Sixteenth,A#4
104,Left,1,55,80,13.25,0.239583,Sixteenth,G3
106,Right,0,68,80,13.5,0.489583,Sixteenth,G#4_C4
105,Left,1,44,80,13.5,0.239583,Sixteenth,G#2
108,Left,1,56,80,13.75,0.239583,Sixteenth,G#3
109,Right,0,65,80,13.75,0.239583,Sixteenth,F4
110,Right,0,63,80,14.0,0.489583,Eighth,G3_D#4
112,Left,1,46,80,14.0,0.239583,Sixteenth,A#2
113,Left,1,46,80,14.25,0.239583,Sixteenth,A#2
116,Left,1,34,80,14.5,0.239583,Sixteenth,A#1
114,Right,0,67,80,14.5,0.489583,Eighth,G4_G#3_D4
119,Left,1,46,80,14.75,0.239583,Sixteenth,A#2
118,Right,0,65,80,14.75,0.239583,Sixteenth,F4
120,Right,0,63,80,15.0,0.489583,Eighth,G3_D#4
122,Left,1,39,80,15.0,0.489583,Eighth,D#2
123,Left,1,51,80,15.5,0.489583,Eighth,D#3
124,Right,0,55,80,16.0,0.114583,ThirtySecond,G3
125,Right,0,58,80,16.125,0.114583,ThirtySecond,A#3
127,Right,0,63,80,16.25,0.114583,ThirtySecond,D#4
126,Left,1,58,80,16.25,0.239583,Sixteenth,A#3
128,Right,0,67,81,16.375,0.114583,ThirtySecond,G4
130,Left,1,55,81,16.5,0.489583,Eighth,G3
129,Right,0,70,81,16.5,0.114583,ThirtySecond,A#4
131,Right,0,75,82,16.625,0.114583,ThirtySecond,D#5
132,Right,0,79,82,16.75,0.114583,ThirtySecond,G5
133,Left,1,58,82,16.75,0.239583,Sixteenth,A#3
134,Right,0,77,82,16.875,0.114583,ThirtySecond,F5
136,Right,0,75,83,17.0,0.489583,Eighth,D#5
135,Left,1,56,83,17.0,0.489583,Eighth,G#3
137,Left,1,58,84,17.25,0.239583,Sixteenth,A#3
139,Right,0,74,84,17.5,0.489583,Eighth,D5
138,Left,1,53,84,17.5,0.489583,Eighth,F3
140,Left,1,58,85,17.75,0.239583,Sixteenth,A#3
141,Right,0,75,86,18.0,0.239583,Sixteenth,D#5
142,Left,1,55,86,18.0,0.489583,Eighth,G3
143,Left,1,58,87,18.25,0.239583,Sixteenth,A#3
144,Right,0,77,87,18.25,0.239583,Sixteenth,F5
145,Left,1,51,88,18.5,0.489583,Eighth,D#3
146,Right,0,79,88,18.5,0.239583,Sixteenth,G5
148,Right,0,81,89,18.75,0.239583,Sixteenth,A5
147,Left,1,58,89,18.75,0.239583,Sixteenth,A#3
149,Left,1,46,89,19.0,0.239583,Sixteenth,A#2
150,Right,0,84,89,19.0,0.489583,Eighth,C6
151,Left,1,58,90,19.25,0.239583,Sixteenth,A#3
152,Left,1,58,91,19.5,0.239583,Sixteenth,A#3
153,Right,0,82,91,19.5,0.489583,Eighth,A#5
154,Left,1,58,92,19.75,0.239583,Sixteenth,A#3
155,Right,0,55,93,20.0,0.114583,ThirtySecond,G3
156,Right,0,58,93,20.125,0.114583,ThirtySecond,A#3
157,Right,0,63,94,20.25,0.114583,ThirtySecond,D#4
158,Left,1,58,94,20.25,0.239583,Sixteenth,A#3
159,Right,0,67,94,20.375,0.114583,ThirtySecond,G4
160,Right,0,70,94,20.5,0.114583,ThirtySecond,A#4
161,Left,1,55,94,20.5,0.489583,Eighth,G3
162,Right,0,75,95,20.625,0.114583,ThirtySecond,D#5
164,Right,0,79,95,20.75,0.114583,ThirtySecond,G5
163,Left,1,58,95,20.75,0.239583,Sixteenth,A#3
165,Right,0,77,96,20.875,0.114583,ThirtySecond,F5
166,Right,0,75,96,21.0,0.489583,Eighth,D#5
167,Left,1,56,96,21.0,0.489583,Eighth,G#3
168,Left,1,58,97,21.25,0.239583,Sixteenth,A#3
170,Right,0,74,98,21.5,0.114583,ThirtySecond,D5
169,Left,1,53,98,21.5,0.489583,Eighth,F3
171,Right,0,75,98,21.625,0.114583,ThirtySecond,D#5
173,Right,0,72,99,21.75,0.114583,ThirtySecond,C5
172,Left,1,58,99,21.75,0.239583,Sixteenth,A#3
174,Right,0,74,99,21.875,0.114583,ThirtySecond,D5
175,Right,0,75,99,22.0,0.239583,Sixteenth,D#5
176,Left,1,55,99,22.0,0.489583,Eighth,G3
178,Left,1,58,100,22.25,0.239583,Sixteenth,A#3
177,Right,0,77,100,22.25,0.239583,Sixteenth,F5_F4
181,Left,1,51,101,22.5,0.489583,Eighth,D#3
180,Right,0,67,101,22.5,0.239583,Sixteenth,G5_G4
185,Left,1,58,102,22.75,0.239583,Sixteenth,A#3
183,Right,0,81,102,22.75,0.239583,Sixteenth,A5_A4
187,Right,0,82,103,23.0,2.989583,DottedHalf,A#5_A#4
186,Left,1,46,103,23.0,2.989583,DottedHalf,A#3_A#2
190,Left,1,68,80,26.0,0.239583,Sixteenth,G#4_C5
192,Right,0,77,80,26.0,0.739583,DottedEighth,F6_F5
194,Left,1,58,80,26.25,0.239583,Sixteenth,A#3
195,Left,1,67,81,26.5,0.239583,Sixteenth,G4_A#4
197,Right,0,87,81,26.75,0.239583,Sixteenth,D#6_D#5
198,Left,1,58,81,26.75,0.239583,Sixteenth,A#3
200,Right,0,75,82,27.0,0.489583,Eighth,D#6_D#5
201,Left,1,65,82,27.0,0.989583,Sixteenth,G#4_F4
204,Left,1,58,83,27.25,0.239583,Sixteenth,A#3
206,Right,0,74,83,27.5,0.739583,DottedEighth,D6_D5
205,Left,1,58,83,27.5,0.239583,Sixteenth,A#3
208,Left,1,58,84,27.75,0.239583,Sixteenth,A#3
209,Left,1,65,85,28.0,0.489583,Sixteenth,G#4_F4
212,Right,0,77,85,28.25,0.239583,Sixteenth,F6_F5
211,Left,1,58,85,28.25,0.239583,Sixteenth,A#3
215,Left,1,63,86,28.5,0.489583,Sixteenth,G4_D#4
214,Right,0,87,86,28.5,0.239583,Sixteenth,D#6_D#5
218,Right,0,84,87,28.75,0.239583,Sixteenth,C6_C5
219,Left,1,58,87,28.75,0.239583,Sixteenth,A#3
221,Right,0,69,87,29.0,0.489583,Eighth,A5_A4
223,Left,1,65,87,29.0,0.989583,Quarter,F4_D4
225,Left,1,58,88,29.25,0.239583,Sixteenth,A#3
226,Right,0,82,89,29.5,0.739583,DottedEighth,A#5_A#4
228,Left,1,58,89,29.5,0.239583,Sixteenth,A#3
229,Left,1,58,89,29.75,0.239583,Sixteenth,A#3
230,Left,1,58,90,30.0,0.239583,Sixteenth,A#3
232,Right,0,71,91,30.25,0.239583,Sixteenth,B5_B4
231,Left,1,58,91,30.25,0.239583,Sixteenth,A#3
236,Right,0,72,91,30.5,0.239583,Sixteenth,C6_C5
234,Left,1,50,91,30.5,0.239583,Sixteenth,D4_D3
240,Left,1,58,92,30.75,0.239583,Sixteenth,A#3
238,Right,0,68,92,30.75,0.239583,Sixteenth,G#5_G#4
241,Left,1,63,93,31.0,0.239583,Sixteenth,D#4_D#3
242,Right,0,79,93,31.0,0.239583,Sixteenth,G5_G4
246,Right,0,70,93,31.25,0.239583,Sixteenth,A#5_A#4
245,Left,1,55,93,31.25,0.239583,Sixteenth,G3
248,Right,0,80,94,31.5,0.239583,Sixteenth,G#5_G#4
249,Left,1,44,94,31.5,0.239583,Sixteenth,G#2
252,Right,0,65,95,31.75,0.239583,Sixteenth,F5_F4
251,Left,1,56,95,31.75,0.239583,Sixteenth,G#3
254,Left,1,46,95,32.0,0.239583,Sixteenth,A#2
255,Right,0,75,95,32.0,0.489583,Sixteenth,G4_D#5
258,Right,0,77,96,32.25,0.114583,ThirtySecond,F5
257,Left,1,58,96,32.25,0.239583,Sixteenth,A#3
259,Right,0,75,96,32.3125,0.114583,ThirtySecond,D#5
260,Right,0,74,96,32.375,0.114583,ThirtySecond,D5
261,Right,0,75,97,32.4375,0.052083,SixtyFourth,D#5
264,Left,1,34,97,32.5,0.239583,Sixteenth,A#1
262,Right,0,79,97,32.5,0.489583,Eighth,G5_G#4_D5
267,Left,1,46,97,32.75,0.239583,Sixteenth,A#2
266,Right,0,77,97,32.75,0.239583,Sixteenth,F5
268,Right,0,75,98,33.0,0.489583,Eighth,G4_D#5
270,Left,1,39,98,33.0,0.489583,Eighth,D#2
271,Left,1,51,99,33.5,0.489583,Eighth,D#3
272,Left,1,31,111,34.0,0.197917,TripletSixteenth,G1
273,Left,1,34,111,34.125,0.21875,Sixteenth,A#1
274,Left,1,39,111,34.25,0.239583,Sixteenth,D#2_A#3
276,Left,1,43,112,34.375,0.21875,Sixteenth,G2
277,Left,1,46,110,34.5,0.239583,TripletSixteenth,A#3_A#2
279,Left,1,51,110,34.625,0.208333,Sixteenth,D#3
280,Left,1,58,100,34.75,0.239583,Sixteenth,G3_A#3
282,Left,1,53,110,34.875,0.208333,Sixteenth,F3
283,Left,1,56,100,35.0,0.489583,Sixteenth,G#3_D#3_A#3
286,Left,1,58,100,35.25,0.239583,Sixteenth,G#3_A#3
288,Left,1,50,110,35.5,0.489583,Sixteenth,G#3_D3_A#3
291,Left,1,58,100,35.75,0.239583,Sixteenth,G#3_A#3
293,Left,1,58,100,36.0,0.239583,Sixteenth,G3_A#3
295,Left,1,58,100,36.25,0.239583,Sixteenth,G3_A#3
299,Right,0,75,100,36.5,0.489583,Eighth,D#5
297,Left,1,58,100,36.5,0.239583,Sixteenth,G3_A#3
300,Left,1,58,100,36.75,0.239583,Sixteenth,G3_A#3
302,Right,0,75,100,37.0,0.489583,Eighth,D#5
303,Left,1,58,100,37.0,0.239583,Sixteenth,G#3_A#3
305,Left,1,58,100,37.25,0.239583,Sixteenth,G#3_A#3
308,Left,1,58,100,37.5,0.239583,Sixteenth,G#3_A#3
307,Right,0,74,100,37.5,0.489583,Eighth,D5
310,Left,1,56,100,37.75,0.239583,Sixteenth,G#3_A#3
312,Left,1,55,100,38.0,0.239583,Sixteenth,G3_G1_A#3
315,Left,1,34,110,38.125,0.239583,Sixteenth,A#1
316,Left,1,39,112,38.25,0.239583,Sixteenth,G3_D#2_A#3
319,Left,1,43,111,38.375,0.197917,TripletSixteenth,G2
320,Left,1,46,111,38.5,0.239583,Sixteenth,G3_A#3_A#2
323,Left,1,51,110,38.625,0.21875,Sixteenth,D#3
324,Left,1,55,110,38.75,0.239583,Sixteenth,G3_A#3
326,Left,1,53,110,38.875,0.114583,ThirtySecond,F3
327,Left,1,51,111,39.0,0.489583,Sixteenth,G#3_D#3_A#3
330,Left,1,56,100,39.25,0.239583,Sixteenth,G#3_A#3
332,Left,1,56,100,39.5,0.489583,Sixteenth,G#3_D3_A#3
335,Left,1,56,100,39.75,0.239583,Sixteenth,G#3_A#3
337,Left,1,53,100,40.0,0.239583,Sixteenth,G#3_F3_B3
340,Left,1,56,100,40.25,0.239583,Sixteenth,G#3_F3_B3
343,Left,1,59,100,40.5,0.239583,Sixteenth,G#3_F3_B3
346,Right,0,74,100,40.5,0.489583,Eighth,D5
347,Left,1,59,100,40.75,0.239583,Sixteenth,G#3_F3_B3
351,Left,1,59,100,41.0,0.239583,Sixteenth,G3_F3_B3
350,Right,0,74,100,41.0,0.489583,Eighth,D5
354,Left,1,55,100,41.25,0.239583,Sixteenth,G3_F3_B3
357,Left,1,60,100,41.5,0.239583,Sixteenth,G3_C4
359,Right,0,75,100,41.5,0.489583,Eighth,D#5
360,Left,1,60,100,41.75,0.239583,Sixteenth,G3_C4
362,Left,1,63,100,42.0,0.239583,Sixteenth,G3_D#4_C4
365,Left,1,31,111,42.125,0.229167,Sixteenth,G1
366,Left,1,55,100,42.25,0.239583,Sixteenth,G3_D#4_C4_C2
370,Left,1,39,111,42.375,0.229167,Sixteenth,D#2
371,Left,1,43,110,42.5,0.239583,Sixteenth,G3_G2_D#4_C4
375,Left,1,48,110,42.625,0.229167,Sixteenth,C3
376,Left,1,51,111,42.75,0.239583,Sixteenth,G3_D#4_D#3_C4
380,Left,1,50,110,42.875,0.114583,ThirtySecond,D3
381,Left,1,55,100,43.0,0.489583,Sixteenth,G3_F4_D4_C3
385,Left,1,62,100,43.25,0.239583,Sixteenth,G3_F4_D4
388,Left,1,47,110,43.5,0.489583,Sixteenth,G3_F4_D4_B2
392,Left,1,65,100,43.75,0.239583,Sixteenth,G3_F4_D4
395,Left,1,55,100,44.0,0.239583,Sixteenth,G3_D#4_C4
398,Left,1,63,100,44.25,0.239583,Sixteenth,G3_D#4_C4
401,Left,1,63,100,44.5,0.239583,Sixteenth,G3_D#4_C4
402,Right,0,84,100,44.5,0.489583,Eighth,C6
405,Left,1,55,100,44.75,0.239583,Sixteenth,G3_D#4_C4
408,Left,1,55,100,45.0,0.239583,Sixteenth,G3_F4_D4
411,Right,0,84,100,45.0,0.489583,Eighth,C6
412,Left,1,55,100,45.25,0.239583,Sixteenth,G3_F4_D4
416,Right,0,83,100,45.5,0.489583,Eighth,B5
415,Left,1,65,100,45.5,0.239583,Sixteenth,G3_F4_D4
419,Left,1,65,100,45.75,0.239583,Sixteenth,G3_F4_D4
422,Left,1,55,100,46.0,0.239583,Sixteenth,G3_D#4_C4
425,Left,1,55,100,46.25,0.239583,Sixteenth,G3_D#4_C4
428,Left,1,63,100,46.5,0.489583,Sixteenth,G3_D#4_C4_C3_C2
433,Left,1,60,100,46.75,0.239583,Sixteenth,G3_D#4_C4
436,Left,1,53,100,47.0,0.489583,Sixteenth,F3_D#4_C4_A#2_A#1
441,Left,1,63,100,47.25,0.239583,Sixteenth,F3_D#4_C4
444,Left,1,45,110,47.5,0.489583,Sixteenth,F3_D#4_C4_A2_A1
449,Left,1,60,100,47.75,0.239583,Sixteenth,F3_D#4_C4
452,Left,1,53,100,48.0,0.239583,Sixteenth,F3_D4_A#3
455,Left,1,58,100,48.25,0.239583,Sixteenth,F3_D4_A#3
461,Right,0,82,100,48.5,0.489583,Eighth,A#5
458,Left,1,53,100,48.5,0.239583,Sixteenth,F3_D4_A#3
462,Left,1,53,100,48.75,0.239583,Sixteenth,F3_D4_A#3
466,Left,1,53,100,49.0,0.239583,Sixteenth,F3_D#4_C4
465,Right,0,82,100,49.0,0.489583,Eighth,A#5
469,Left,1,53,100,49.25,0.239583,Sixteenth,F3_D#4_C4
473,Left,1,53,100,49.5,0.239583,Sixteenth,F3_D#4_C4
472,Right,0,81,100,49.5,0.489583,Eighth,A5
476,Left,1,60,100,49.75,0.239583,Sixteenth,F3_D#4_C4
479,Left,1,53,100,50.0,0.239583,Sixteenth,F3_D4_A#3
482,Left,1,46,100,50.25,0.239583,Sixteenth,F3_D4_A#3_A#2
486,Left,1,53,100,50.5,0.239583,Sixteenth,F3_D4_A#3_A#2
490,Left,1,58,100,50.75,0.239583,Sixteenth,F3_D4_A#3_A#2
494,Left,1,53,100,51.0,0.239583,Sixteenth,F3_D#4_C4_A2
498,Left,1,46,100,51.125,0.114583,ThirtySecond,A#2
499,Left,1,48,100,51.25,0.239583,Sixteenth,F3_D#4_C4_C3
503,Left,1,46,100,51.375,0.114583,ThirtySecond,A#2
504,Left,1,45,100,51.5,0.489583,Sixteenth,F3_D#4_C4_A2
508,Left,1,63,100,51.75,0.239583,Sixteenth,F3_D#4_C4
511,Left,1,58,100,52.0,0.239583,Sixteenth,F3_D4_A#3
514,Right,0,82,110,52.25,0.239583,Sixteenth,A#5
515,Left,1,53,100,52.25,0.239583,Sixteenth,F3_D4_A#3
519,Left,1,58,100,52.5,0.239583,Sixteenth,F3_D4_A#3
518,Right,0,82,110,52.5,0.239583,Sixteenth,A#5
522,Left,1,62,100,52.75,0.239583,Sixteenth,F3_D4_A#3
523,Right,0,82,110,52.75,0.239583,Sixteenth,A#5
529,Right,0,81,110,53.0,0.1875,TripletSixteenth,A5
526,Left,1,53,100,53.0,0.239583,Sixteenth,F3_D#4_C4
530,Right,0,82,110,53.125,0.208333,Sixteenth,A#5
534,Right,0,84,110,53.25,0.21875,Sixteenth,C6
531,Left,1,63,100,53.25,0.239583,Sixteenth,F3_D#4_C4
535,Right,0,82,110,53.375,0.21875,Sixteenth,A#5
538,Right,0,81,110,53.5,0.489583,Eighth,A5
536,Left,1,53,100,53.5,0.239583,Sixteenth,F3_D#4_C4
540,Left,1,53,100,53.75,0.239583,Sixteenth,F3_D#4_C4
543,Left,1,62,110,54.0,0.239583,Sixteenth,F3_D4_A#3
546,Left,1,58,110,54.25,0.239583,Sixteenth,F3_D4_A#3_A#2
550,Left,1,53,110,54.5,0.239583,Sixteenth,F3_D4_A#3_A#2
554,Left,1,58,110,54.75,0.239583,Sixteenth,F3_D4_A#3_A#2
558,Left,1,45,110,55.0,0.989583,Quarter,F3_D#4_C4_A2
562,Left,1,46,110,55.125,0.208333,Sixteenth,A#2
563,Left,1,48,110,55.25,0.21875,Sixteenth,C3
564,Left,1,46,110,55.375,0.229167,Sixteenth,A#2
565,Left,1,45,110,55.5,0.239583,Sixteenth,A2
566,Left,1,41,110,55.75,0.239583,Sixteenth,F2
567,Left,1,62,110,56.0,0.989583,Quarter,F3_D4_A#3_A#2
571,Left,1,48,110,56.125,0.208333,Sixteenth,C3
572,Left,1,50,110,56.25,0.21875,Sixteenth,D3
573,Left,1,48,110,56.375,0.21875,Sixteenth,C3
574,Left,1,46,110,56.5,0.239583,Sixteenth,A#2
575,Left,1,41,110,56.75,0.239583,Sixteenth,F2
577,Left,1,48,110,57.0,0.989583,DottedEighth,F3_D#3_C3
576,Right,0,69,110,57.0,0.208333,Sixteenth,A4
580,Right,0,70,110,57.125,0.239583,Sixteenth,A#4
581,Right,0,72,110,57.25,0.208333,Sixteenth,C5
582,Right,0,70,110,57.375,0.197917,TripletSixteenth,A#4
583,Right,0,69,110,57.5,0.239583,Sixteenth,A4
584,Left,1,41,110,57.75,0.239583,Sixteenth,F2
585,Right,0,65,110,57.75,0.239583,Sixteenth,F4
586,Left,1,50,110,58.0,0.989583,DottedEighth,F3_D3
587,Right,0,70,110,58.0,0.114583,ThirtySecond,A#4
589,Right,0,72,110,58.125,0.114583,ThirtySecond,C5
590,Right,0,74,110,58.25,0.114583,ThirtySecond,D5
591,Right,0,72,110,58.375,0.114583,ThirtySecond,C5
592,Right,0,70,110,58.5,0.239583,Sixteenth,A#4
594,Right,0,65,110,58.75,0.239583,Sixteenth,F4
593,Left,1,41,110,58.75,0.239583,Sixteenth,F2
595,Right,0,75,110,59.0,0.989583,Quarter,F4_D#5_D#4
597,Left,1,45,110,59.0,0.197917,TripletSixteenth,A2
599,Left,1,46,110,59.125,0.208333,Sixteenth,A#2
600,Left,1,48,110,59.25,0.208333,Sixteenth,C3
601,Left,1,46,110,59.375,0.21875,Sixteenth,A#2
602,Left,1,45,110,59.5,0.239583,Sixteenth,A2
603,Left,1,41,110,59.75,0.239583,Sixteenth,F2
606,Left,1,46,110,60.0,0.197917,TripletSixteenth,A#2
604,Right,0,65,110,60.0,0.739583,DottedEighth,F4_D5_D4
608,Left,1,48,110,60.125,0.21875,Sixteenth,C3
609,Left,1,50,110,60.25,0.197917,TripletSixteenth,D3
610,Left,1,48,110,60.375,0.229167,Sixteenth,C3
611,Left,1,46,110,60.5,0.239583,Sixteenth,A#2
612,Left,1,41,110,60.75,0.239583,Sixteenth,F2
613,Right,0,65,110,60.75,0.239583,Sixteenth,F4
614,Left,1,53,110,61.0,0.739583,DottedEighth,F3_D#3_C3
617,Right,0,69,110,61.0,0.177083,TripletSixteenth,A4
618,Right,0,70,110,61.125,0.197917,TripletSixteenth,A#4
619,Right,0,72,110,61.25,0.197917,TripletSixteenth,C5
620,Right,0,70,110,61.375,0.208333,Sixteenth,A#4
621,Right,0,69,110,61.5,0.239583,Sixteenth,A4
623,Left,1,41,110,61.75,0.239583,Sixteenth,F2
622,Right,0,65,110,61.75,0.239583,Sixteenth,F4
624,Left,1,53,110,62.0,0.739583,DottedEighth,F3_D3
626,Right,0,70,110,62.0,0.208333,Sixteenth,A#4
627,Right,0,72,110,62.125,0.21875,Sixteenth,C5
628,Right,0,74,110,62.25,0.197917,TripletSixteenth,D5
629,Right,0,72,110,62.375,0.21875,Sixteenth,C5
630,Right,0,70,110,62.5,0.239583,Sixteenth,A#4
633,Right,0,71,110,62.75,0.239583,Sixteenth,B4
631,Left,1,50,110,62.75,0.239583,Sixteenth,G#3_F3_D3
637,Right,0,72,110,63.0,0.114583,ThirtySecond,C5
635,Left,1,55,110,63.0,0.489583,Eighth,G3_D#3
638,Right,0,74,110,63.125,0.114583,ThirtySecond,D5
639,Right,0,75,110,63.25,0.114583,ThirtySecond,D#5
640,Right,0,74,110,63.375,0.114583,ThirtySecond,D5
641,Right,0,72,110,63.5,0.239583,Sixteenth,C5
642,Right,0,79,110,63.75,0.239583,Sixteenth,G5
643,Right,0,75,110,64.0,0.239583,Sixteenth,D#5
644,Right,0,84,110,64.25,0.239583,Sixteenth,C6
645,Right,0,79,110,64.5,0.239583,Sixteenth,G5
646,Right,0,87,110,64.75,0.239583,Sixteenth,D#6
647,Left,1,60,110,65.0,0.489583,Eighth,F3_D#4_C4_A3
648,Right,0,72,100,65.0,0.114583,ThirtySecond,C5
652,Right,0,74,100,65.125,0.114583,ThirtySecond,D5
653,Right,0,75,100,65.25,0.114583,ThirtySecond,D#5
654,Right,0,74,100,65.375,0.114583,ThirtySecond,D5
655,Right,0,72,100,65.5,0.239583,Sixteenth,C5
656,Right,0,81,100,65.75,0.239583,Sixteenth,A5
657,Right,0,75,100,66.0,0.239583,Sixteenth,D#5
658,Right,0,84,100,66.25,0.239583,Sixteenth,C6
659,Right,0,81,100,66.5,0.239583,Sixteenth,A5
660,Right,0,87,100,66.75,0.239583,Sixteenth,D#6
661,Left,1,60,110,67.0,0.489583,Eighth,F#3_D#4_C4_A3
664,Right,0,72,100,67.0,0.114583,ThirtySecond,C5
666,Right,0,74,100,67.125,0.114583,ThirtySecond,D5
667,Right,0,75,100,67.25,0.114583,ThirtySecond,D#5
668,Right,0,74,100,67.375,0.114583,ThirtySecond,D5
669,Right,0,72,100,67.5,0.239583,Sixteenth,C5
670,Right,0,81,100,67.75,0.239583,Sixteenth,A5
671,Right,0,75,100,68.0,0.239583,Sixteenth,D#5
672,Right,0,84,100,68.25,0.239583,Sixteenth,C6
673,Right,0,81,100,68.5,0.239583,Sixteenth,A5
674,Right,0,87,100,68.75,0.239583,Sixteenth,D#6
675,Left,1,62,100,69.0,0.489583,Eighth,G3_D4_A#3
678,Right,0,86,100,69.0,0.239583,Sixteenth,D6
679,Right,0,81,100,69.25,0.239583,Sixteenth,A5
680,Right,0,82,100,69.5,0.239583,Sixteenth,A#5
681,Right,0,78,100,69.75,0.239583,Sixteenth,F#5
685,Right,0,79,100,70.0,0.239583,Sixteenth,G5
682,Left,1,60,100,70.0,0.489583,Eighth,G3_D#3_C4
686,Right,0,74,100,70.25,0.239583,Sixteenth,D5
687,Right,0,75,100,70.5,0.239583,Sixteenth,D#5
688,Right,0,72,100,70.75,0.239583,Sixteenth,C5
692,Right,0,77,100,71.0,0.239583,Sixteenth,F5
689,Left,1,53,100,71.0,0.489583,Eighth,F3_D4_A#3
693,Right,0,73,100,71.25,0.239583,Sixteenth,C#5
694,Right,0,74,100,71.5,0.239583,Sixteenth,D5
695,Right,0,70,100,71.75,0.239583,Sixteenth,A#4
696,Right,0,75,100,72.0,0.239583,Sixteenth,D#5
697,Left,1,63,100,72.0,0.489583,Eighth,F3_D#4_C4
700,Right,0,71,100,72.25,0.239583,Sixteenth,B4
701,Right,0,72,100,72.5,0.239583,Sixteenth,C5
702,Right,0,69,100,72.75,0.239583,Sixteenth,A4
705,Left,1,58,100,73.0,0.989583,Quarter,A#3_A#2
703,Right,0,70,100,73.0,0.989583,Quarter,D4_A#4
707,Left,1,67,100,74.0,0.489583,Eighth,G4
708,Right,0,74,100,74.5,0.489583,Eighth,D5_B4
710,Left,1,67,100,74.5,0.114583,ThirtySecond,G4
711,Left,1,68,100,74.5625,0.114583,ThirtySecond,G#4
712,Left,1,67,100,74.625,0.114583,ThirtySecond,G4
713,Left,1,68,100,74.6875,0.114583,ThirtySecond,G#4
714,Left,1,67,100,74.75,0.114583,ThirtySecond,G4
715,Left,1,68,100,74.8125,0.114583,ThirtySecond,G#4
716,Left,1,66,100,74.875,0.114583,ThirtySecond,F#4
717,Left,1,67,100,74.9375,0.052083,SixtyFourth,G4
718,Right,0,75,100,75.0,0.489583,Eighth,D#5_C5
719,Left,1,63,100,75.0,0.489583,Eighth,D#4
721,Right,0,79,100,75.5,0.489583,Eighth,G5_D#5
723,Left,1,60,100,75.5,0.489583,Eighth,C4
724,Left,1,65,100,76.0,0.489583,Eighth,F4
727,Left,1,65,100,76.5,0.114583,ThirtySecond,F4
725,Right,0,72,100,76.5,0.489583,Eighth,C5_A4
728,Left,1,67,100,76.5625,0.114583,ThirtySecond,G4
729,Left,1,65,100,76.625,0.114583,ThirtySecond,F4
730,Left,1,67,100,76.6875,0.114583,ThirtySecond,G4
731,Left,1,65,100,76.75,0.114583,ThirtySecond,F4
732,Left,1,67,100,76.8125,0.114583,ThirtySecond,G4
733,Left,1,64,100,76.875,0.114583,ThirtySecond,E4
734,Left,1,65,100,76.9375,0.052083,SixtyFourth,F4
735,Left,1,62,100,77.0,0.489583,Eighth,D4
736,Right,0,74,100,77.0,0.489583,Eighth,D5_A#4
738,Left,1,58,100,77.5,0.489583,Eighth,A#3
739,Right,0,77,100,77.5,0.489583,Eighth,F5_D5
741,Left,1,63,100,78.0,0.489583,Eighth,D#4_C4_A3
744,Right,0,77,100,78.0,0.489583,Eighth,F5
745,Left,1,60,100,78.5,0.489583,Eighth,F3_D#4_C4
748,Right,0,77,100,78.5,0.114583,ThirtySecond,F5
749,Right,0,79,100,78.5625,0.114583,ThirtySecond,G5
750,Right,0,77,100,78.625,0.114583,ThirtySecond,F5
751,Right,0,79,100,78.6875,0.114583,ThirtySecond,G5
752,Right,0,77,100,78.75,0.114583,ThirtySecond,F5
753,Right,0,79,100,78.8125,0.114583,ThirtySecond,G5
754,Right,0,76,100,78.875,0.114583,ThirtySecond,E5
755,Right,0,77,100,78.9375,0.052083,SixtyFourth,F5
757,Left,1,58,100,79.0,0.989583,Quarter,D4_A#3
756,Right,0,75,100,79.0,0.239583,Sixteenth,D#5
759,Right,0,74,100,79.25,0.239583,Sixteenth,D5
760,Right,0,72,100,79.5,0.239583,Sixteenth,C5
761,Right,0,70,100,79.75,0.239583,Sixteenth,A#4
762,Left,1,64,100,80.0,0.989583,Quarter,G3_E4_A#3
765,Right,0,69,100,80.0,0.239583,Sixteenth,A4
766,Right,0,70,100,80.25,0.239583,Sixteenth,A#4
767,Right,0,71,100,80.5,0.239583,Sixteenth,B4
768,Right,0,72,100,80.75,0.239583,Sixteenth,C5
770,Left,1,57,100,81.0,0.489583,Eighth,F3_A3
769,Right,0,65,100,81.0,0.489583,Eighth,F4
772,Left,1,53,100,82.0,0.489583,Eighth,F3
774,Left,1,53,100,82.5,0.114583,ThirtySecond,F3
773,Right,0,74,100,82.5,0.489583,Eighth,G4_D5_B4
777,Left,1,55,100,82.5625,0.114583,ThirtySecond,G3
778,Left,1,53,100,82.625,0.114583,ThirtySecond,F3
779,Left,1,55,100,82.6875,0.114583,ThirtySecond,G3
780,Left,1,53,100,82.75,0.114583,ThirtySecond,F3
781,Left,1,55,100,82.8125,0.114583,ThirtySecond,G3
782,Left,1,52,100,82.875,0.114583,ThirtySecond,E3
783,Left,1,53,100,82.9375,0.052083,SixtyFourth,F3
785,Left,1,51,100,83.0,0.489583,Eighth,D#3
784,Right,0,79,100,83.0,0.489583,Eighth,G5
787,Right,0,79,100,83.5,0.114583,ThirtySecond,G5
786,Left,1,48,100,83.5,0.489583,Eighth,C3
788,Right,0,80,100,83.5625,0.114583,ThirtySecond,G#5
789,Right,0,79,100,83.625,0.114583,ThirtySecond,G5
790,Right,0,80,100,83.6875,0.114583,ThirtySecond,G#5
791,Right,0,79,100,83.75,0.114583,ThirtySecond,G5
792,Right,0,80,100,83.8125,0.114583,ThirtySecond,G#5
793,Right,0,78,100,83.875,0.114583,ThirtySecond,F#5
794,Right,0,79,100,83.9375,0.052083,SixtyFourth,G5
795,Left,1,51,100,84.0,0.489583,Eighth,D#3
796,Right,0,69,100,84.5,0.489583,Eighth,F4_C5_A4
799,Left,1,51,100,84.5,0.114583,ThirtySecond,D#3
800,Left,1,53,100,84.5625,0.114583,ThirtySecond,F3
801,Left,1,51,100,84.625,0.114583,ThirtySecond,D#3
802,Left,1,53,100,84.6875,0.114583,ThirtySecond,F3
803,Left,1,51,100,84.75,0.114583,ThirtySecond,D#3
804,Left,1,53,100,84.8125,0.114583,ThirtySecond,F3
805,Left,1,50,100,84.875,0.114583,ThirtySecond,D3
806,Left,1,51,100,84.9375,0.052083,SixtyFourth,D#3
808,Right,0,77,100,85.0,0.489583,Eighth,F5
807,Left,1,50,100,85.0,0.489583,Eighth,D3
810,Right,0,77,100,85.5,0.114583,ThirtySecond,F5
809,Left,1,46,100,85.5,0.489583,Eighth,A#2
811,Right,0,79,100,85.5625,0.114583,ThirtySecond,G5
812,Right,0,77,100,85.625,0.114583,ThirtySecond,F5
813,Right,0,79,100,85.6875,0.114583,ThirtySecond,G5
814,Right,0,77,100,85.75,0.114583,ThirtySecond,F5
815,Right,0,79,100,85.8125,0.114583,ThirtySecond,G5
816,Right,0,76,100,85.875,0.114583,ThirtySecond,E5
817,Right,0,77,100,85.9375,0.052083,SixtyFourth,F5
818,Left,1,53,100,86.0,0.989583,Quarter,F3_D#3_C3_A2
822,Right,0,89,100,86.0,0.239583,Sixteenth,F6
823,Right,0,88,100,86.5,0.114583,ThirtySecond,E6
824,Left,1,41,100,86.5,0.489583,Eighth,F2
825,Right,0,89,100,86.625,0.114583,ThirtySecond,F6
826,Right,0,88,100,86.75,0.114583,ThirtySecond,E6
827,Right,0,89,100,86.875,0.114583,ThirtySecond,F6
828,Right,0,87,80,87.0,0.239583,Sixteenth,D#6
829,Left,1,53,80,87.0,0.489583,Eighth,F3_D3_A#2
832,Right,0,86,80,87.25,0.239583,Sixteenth,D6
834,Left,1,58,80,87.5,0.489583,Eighth,F3_D3_A#3
833,Right,0,84,80,87.5,0.114583,ThirtySecond,C6
837,Right,0,86,80,87.5625,0.114583,ThirtySecond,D6
838,Right,0,84,80,87.625,0.114583,ThirtySecond,C6
839,Right,0,82,80,87.75,0.239583,Sixteenth,A#5
840,Left,1,60,80,88.0,0.489583,Eighth,F3_C4_A3
843,Right,0,82,80,88.0,0.114583,ThirtySecond,A#5
844,Right,0,84,80,88.0625,0.114583,ThirtySecond,C6
845,Right,0,82,80,88.125,0.114583,ThirtySecond,A#5
846,Right,0,81,80,88.25,0.239583,Sixteenth,A5
851,Right,0,79,80,88.5,0.114583,ThirtySecond,G5
847,Left,1,51,80,88.5,0.489583,Eighth,F3_D#3_C4_A3
852,Right,0,81,80,88.5625,0.114583,ThirtySecond,A5
853,Right,0,79,80,88.625,0.114583,ThirtySecond,G5
854,Right,0,77,80,88.75,0.239583,Sixteenth,F5
855,Left,1,50,80,89.0,0.489583,Eighth,F3_D3_A#3
858,Right,0,77,80,89.0,0.239583,Sixteenth,F5
859,Right,0,79,80,89.25,0.114583,ThirtySecond,G5
860,Right,0,81,80,89.375,0.114583,ThirtySecond,A5
861,Right,0,82,80,89.5,0.114583,ThirtySecond,A#5
862,Right,0,84,80,89.625,0.114583,ThirtySecond,C6
863,Right,0,86,80,89.75,0.114583,ThirtySecond,D6
864,Right,0,87,100,89.875,0.114583,ThirtySecond,D#6
869,Right,0,89,110,90.0,0.239583,Sixteenth,F6
865,Left,1,53,110,90.0,0.989583,Quarter,F3_D#3_C3_A2
870,Right,0,88,110,90.25,0.114583,ThirtySecond,E6
871,Right,0,89,110,90.375,0.114583,ThirtySecond,F6
872,Left,1,41,110,90.5,0.489583,Eighth,F2
873,Right,0,88,110,90.5,0.114583,ThirtySecond,E6
874,Right,0,89,110,90.625,0.114583,ThirtySecond,F6
875,Right,0,88,110,90.75,0.114583,ThirtySecond,E6
876,Right,0,89,110,90.875,0.114583,ThirtySecond,F6
877,Left,1,46,80,91.0,0.489583,Eighth,F3_D3_A#2
880,Right,0,87,81,91.25,0.114583,ThirtySecond,D#6
881,Right,0,86,82,91.375,0.114583,ThirtySecond,D6
882,Left,1,50,83,91.5,0.489583,Eighth,F3_D3_A#3
885,Right,0,84,85,91.75,0.114583,ThirtySecond,C6
886,Right,0,82,86,91.875,0.114583,ThirtySecond,A#5
887,Left,1,53,87,92.0,0.489583,Eighth,F3_C4_A3
890,Right,0,82,89,92.25,0.114583,ThirtySecond,A#5
891,Right,0,81,89,92.375,0.114583,ThirtySecond,A5
892,Left,1,51,90,92.5,0.489583,Eighth,F3_D#3_C4_A3
896,Right,0,79,92,92.75,0.114583,ThirtySecond,G5
897,Right,0,77,93,92.875,0.114583,ThirtySecond,F5
898,Left,1,53,94,93.0,0.489583,Eighth,F3_D3_A#3
901,Right,0,76,94,93.0,0.114583,ThirtySecond,E5
902,Right,0,77,95,93.125,0.114583,ThirtySecond,F5
903,Right,0,79,96,93.25,0.114583,ThirtySecond,G5
904,Right,0,81,97,93.375,0.114583,ThirtySecond,A5
905,Right,0,82,98,93.5,0.114583,ThirtySecond,A#5
906,Right,0,84,99,93.625,0.114583,ThirtySecond,C6
907,Right,0,86,99,93.75,0.114583,ThirtySecond,D6
908,Right,0,87,100,93.875,0.114583,ThirtySecond,D#6
909,Right,0,88,110,94.0,0.1875,TripletSixteenth,E6
910,Left,1,45,110,94.0,0.489583,Eighth,A2_A1
912,Right,0,89,110,94.125,0.208333,Sixteenth,F6
913,Right,0,88,110,94.25,0.229167,Sixteenth,E6
914,Right,0,89,110,94.375,0.21875,Sixteenth,F6
917,Right,0,88,110,94.5,0.229167,Sixteenth,E6
915,Left,1,29,110,94.5,0.489583,Eighth,F2_F1
918,Right,0,89,110,94.625,0.239583,Sixteenth,F6
919,Right,0,88,110,94.75,0.208333,Sixteenth,E6
920,Right,0,89,110,94.875,0.239583,Sixteenth,F6
921,Left,1,34,110,95.0,0.489583,Eighth,A#2_A#1
923,Right,0,87,110,95.0,0.208333,Sixteenth,D#6
924,Right,0,86,110,95.125,0.197917,TripletSixteenth,D6
925,Right,0,84,110,95.25,0.229167,Sixteenth,C6
927,Right,0,82,110,95.5,0.083333,TripletThirtySecond,A#5
926,Left,1,50,110,95.5,0.489583,Eighth,D3_D2
929,Right,0,81,110,95.625,0.21875,Sixteenth,A5
930,Right,0,79,110,95.75,0.21875,Sixteenth,G5
932,Left,1,41,110,96.0,0.489583,Eighth,F3_F2
931,Right,0,77,110,96.0,0.0625,SixtyFourth,F5
934,Right,0,75,110,96.125,0.21875,Sixteenth,D#5
935,Right,0,74,110,96.25,0.208333,Sixteenth,D5
936,Right,0,72,110,96.375,0.197917,TripletSixteenth,C5
937,Left,1,41,110,96.5,0.489583,Eighth,F2
938,Right,0,74,110,96.5,0.208333,Sixteenth,D5
939,Right,0,72,110,96.625,0.197917,TripletSixteenth,C5
940,Right,0,70,110,96.75,0.21875,Sixteenth,A#4
941,Right,0,69,100,96.875,0.21875,Sixteenth,A4
943,Left,1,46,100,97.0,0.989583,Quarter,A#2
942,Right,0,72,100,97.0,0.15625,TripletSixteenth,C5
944,Right,0,70,99,97.166667,0.15625,TripletSixteenth,A#4
945,Right,0,69,97,97.333333,0.15625,TripletSixteenth,A4
946,Right,0,72,96,97.5,0.15625,TripletSixteenth,C5
947,Right,0,70,95,97.666667,0.15625,TripletSixteenth,A#4
948,Right,0,69,94,97.833333,0.15625,TripletSixteenth,A4
949,Right,0,72,93,98.0,0.15625,TripletSixteenth,C5
950,Right,0,70,92,98.166667,0.15625,TripletSixteenth,A#4
951,Right,0,69,91,98.333333,0.15625,TripletSixteenth,A4
952,Right,0,72,90,98.5,0.15625,TripletSixteenth,C5
953,Right,0,70,88,98.666667,0.15625,TripletSixteenth,A#4
954,Right,0,69,87,98.833333,0.15625,TripletSixteenth,A4
955,Right,0,72,86,99.0,0.15625,TripletSixteenth,C5
956,Right,0,70,85,99.166667,0.15625,TripletSixteenth,A#4
957,Right,0,69,84,99.333333,0.15625,TripletSixteenth,A4
958,Right,0,72,83,99.5,0.15625,TripletSixteenth,C5
959,Right,0,70,82,99.666667,0.15625,TripletSixteenth,A#4
960,Right,0,69,81,99.833333,0.15625,TripletSixteenth,A4
961,Right,0,72,80,100.0,0.197917,TripletSixteenth,C5
962,Right,0,70,82,100.125,0.208333,Sixteenth,A#4
963,Right,0,69,85,100.25,0.197917,TripletSixteenth,A4
964,Right,0,70,88,100.375,0.208333,Sixteenth,A#4
965,Right,0,71,90,100.5,0.208333,Sixteenth,B4
966,Right,0,72,92,100.583333,0.1875,TripletSixteenth,C5
967,Right,0,73,94,100.666667,0.21875,Sixteenth,C#5
968,Right,0,74,96,100.75,0.197917,TripletSixteenth,D5
969,Right,0,75,97,100.833333,0.15625,TripletSixteenth,D#5
970,Right,0,76,99,100.916667,0.072917,TripletThirtySecond,E5
971,Right,0,77,100,101.0,1.739583,DottedQuarter,F5
972,Right,0,68,100,102.0,2.489583,Half,G#4_F4
974,Right,0,75,100,102.75,0.239583,Sixteenth,D#5
976,Right,0,75,80,103.0,0.489583,Eighth,D#5
975,Left,1,46,80,103.0,0.239583,Sixteenth,A#2
977,Left,1,58,80,103.25,0.239583,Sixteenth,A#3
978,Right,0,74,80,103.5,0.739583,DottedEighth,D5
979,Left,1,58,80,103.5,0.239583,Sixteenth,A#3
980,Left,1,58,80,103.75,0.239583,Sixteenth,A#3
981,Left,1,58,80,104.0,0.239583,Sixteenth,A#3
982,Left,1,58,80,104.25,0.239583,Sixteenth,A#3
983,Right,0,77,80,104.25,0.239583,Sixteenth,F5
986,Left,1,63,80,104.5,0.489583,Eighth,D#4
984,Right,0,75,80,104.5,0.489583,Sixteenth,G4_D#5
987,Right,0,72,80,104.75,0.239583,Sixteenth,C5
988,Left,1,58,80,104.75,0.239583,Sixteenth,A#3
991,Left,1,62,80,105.0,0.989583,Quarter,D4
989,Right,0,72,80,105.0,0.989583,Eighth,F4_C5
992,Left,1,58,80,105.25,0.239583,Sixteenth,A#3
993,Right,0,70,80,105.5,0.739583,DottedEighth,A#4
994,Left,1,58,80,105.5,0.239583,Sixteenth,A#3
995,Left,1,58,80,105.75,0.239583,Sixteenth,A#3
996,Left,1,58,80,106.0,0.239583,Sixteenth,A#3
997,Right,0,71,80,106.25,0.239583,Sixteenth,B4
998,Left,1,58,80,106.25,0.239583,Sixteenth,A#3
999,Right,0,65,80,106.5,0.489583,Eighth,F4_C5
1001,Left,1,50,80,106.5,0.239583,Sixteenth,D3
1002,Right,0,68,80,106.75,0.239583,Sixteenth,G#4
1003,Left,1,58,80,106.75,0.239583,Sixteenth,A#3
1004,Left,1,51,80,107.0,0.239583,Sixteenth,D#3
1005,Right,0,68,80,107.0,0.239583,Sixteenth,G#4
1007,Right,0,67,80,107.25,0.239583,Sixteenth,G4
1006,Left,1,58,80,107.25,0.239583,Sixteenth,A#3
1009,Left,1,55,80,107.5,0.239583,Sixteenth,G3
1008,Right,0,70,80,107.5,0.239583,Sixteenth,A#4
1011,Left,1,58,80,107.75,0.239583,Sixteenth,A#3
1010,Right,0,63,80,107.75,0.239583,Sixteenth,D#4
1012,Right,0,63,80,108.0,0.239583,Sixteenth,D#4
1013,Left,1,53,80,108.0,0.239583,Sixteenth,G#3_F3
1015,Right,0,62,80,108.25,0.239583,Sixteenth,D4
1016,Left,1,58,80,108.25,0.239583,Sixteenth,A#3
1018,Right,0,65,80,108.5,0.239583,Sixteenth,F4
1017,Left,1,55,80,108.5,0.239583,Sixteenth,G3_D#3
1021,Left,1,58,80,108.75,0.239583,Sixteenth,A#3
1020,Right,0,63,80,108.75,0.739583,DottedEighth,D#4
1022,Right,0,67,80,109.0,0.489583,Eighth,G4
1023,Left,1,46,80,109.0,0.239583,Sixteenth,A#2
1024,Left,1,58,80,109.25,0.239583,Sixteenth,A#3
1026,Right,0,62,80,109.5,0.489583,Eighth,F4_D4
1025,Left,1,58,80,109.5,0.239583,Sixteenth,A#3
1028,Left,1,58,80,109.75,0.239583,Sixteenth,A#3
1031,Right,0,77,80,110.0,0.739583,DottedEighth,F5
1029,Left,1,72,80,110.0,0.239583,Sixteenth,G#4_C5
1032,Left,1,58,80,110.25,0.239583,Sixteenth,A#3
1033,Left,1,67,80,110.5,0.239583,Sixteenth,G4_A#4
1035,Left,1,58,80,110.75,0.239583,Sixteenth,A#3
1036,Right,0,75,80,110.75,0.239583,Sixteenth,D#5
1037,Right,0,74,80,111.0,0.052083,SixtyFourth,D5
1038,Left,1,68,80,111.0,0.989583,Quarter,G#4_F4
1040,Right,0,75,80,111.0625,0.052083,SixtyFourth,D#5
1041,Right,0,77,80,111.125,0.052083,SixtyFourth,F5
1042,Right,0,75,80,111.1875,0.302083,Triplet,D#5
1043,Left,1,58,80,111.25,0.239583,Sixteenth,A#3
1044,Right,0,74,80,111.5,0.739583,DottedEighth,D5
1045,Left,1,58,80,111.5,0.239583,Sixteenth,A#3
1046,Left,1,58,80,111.75,0.239583,Sixteenth,A#3
1047,Left,1,65,80,112.0,0.489583,Sixteenth,G#4_F4
1049,Left,1,58,80,112.25,0.239583,Sixteenth,A#3
1050,Right,0,77,80,112.25,0.239583,Sixteenth,F5
1053,Right,0,75,80,112.5,0.239583,Sixteenth,D#5
1051,Left,1,67,80,112.5,0.489583,Eighth,G4_D#4
1055,Right,0,72,80,112.75,0.239583,Sixteenth,C5
1054,Left,1,58,80,112.75,0.239583,Sixteenth,A#3
1058,Right,0,69,80,113.0,0.489583,Eighth,A4
1056,Left,1,62,80,113.0,0.989583,Sixteenth,F4_D4
1059,Left,1,58,80,113.25,0.239583,Sixteenth,A#3
1061,Right,0,70,80,113.5,0.739583,DottedEighth,A#4
1060,Left,1,58,80,113.5,0.239583,Sixteenth,A#3
1062,Left,1,58,80,113.75,0.239583,Sixteenth,A#3
1063,Left,1,58,80,114.0,0.239583,Sixteenth,A#3
1065,Right,0,71,80,114.25,0.239583,Sixteenth,B4
1064,Left,1,58,80,114.25,0.239583,Sixteenth,A#3
1066,Right,0,72,80,114.5,0.489583,Sixteenth,F4_C5
1068,Left,1,50,80,114.5,0.239583,Sixteenth,D3
1070,Right,0,68,80,114.75,0.239583,Sixteenth,G#4
1069,Left,1,58,80,114.75,0.239583,Sixteenth,A#3
1071,Right,0,63,80,115.0,0.489583,Eighth,G4_D#4
1073,Left,1,51,80,115.0,0.239583,Sixteenth,D#3
1075,Left,1,55,80,115.25,0.239583,Sixteenth,G3
1074,Right,0,70,80,115.25,0.239583,Sixteenth,A#4
1076,Left,1,44,80,115.5,0.239583,Sixteenth,G#2
1077,Right,0,60,80,115.5,0.489583,Eighth,G#4_C4
1079,Right,0,65,80,115.75,0.239583,Sixteenth,F4
1080,Left,1,56,80,115.75,0.239583,Sixteenth,G#3
1082,Right,0,55,80,116.0,0.489583,Eighth,G3_D#4
1081,Left,1,46,80,116.0,0.239583,Sixteenth,A#2
1084,Left,1,46,80,116.25,0.239583,Sixteenth,A#2
1085,Left,1,34,80,116.5,0.239583,Sixteenth,A#1
1086,Right,0,62,80,116.5,0.489583,Eighth,G4_G#3_D4
1090,Left,1,46,80,116.75,0.239583,Sixteenth,A#2
1089,Right,0,65,80,116.75,0.239583,Sixteenth,F4
1092,Right,0,63,80,117.0,0.489583,Eighth,G3_D#4
1091,Left,1,39,80,117.0,0.489583,Eighth,D#2
1094,Left,1,51,80,117.5,0.489583,Eighth,D#3
1095,Right,0,55,100,118.0,0.114583,ThirtySecond,G3
1096,Right,0,58,100,118.125,0.114583,ThirtySecond,A#3
1097,Right,0,63,100,118.25,0.114583,ThirtySecond,D#4
1098,Left,1,58,100,118.25,0.239583,Sixteenth,A#3
1099,Right,0,67,100,118.375,0.114583,ThirtySecond,G4
1101,Right,0,70,100,118.5,0.114583,ThirtySecond,A#4
1100,Left,1,55,100,118.5,0.489583,Eighth,G3
1102,Right,0,75,100,118.625,0.114583,ThirtySecond,D#5
1104,Right,0,79,100,118.75,0.114583,ThirtySecond,G5
1103,Left,1,58,100,118.75,0.239583,Sixteenth,A#3
1105,Right,0,77,100,118.875,0.114583,ThirtySecond,F5
1106,Right,0,75,100,119.0,0.489583,Eighth,D#5
1107,Left,1,56,100,119.0,0.489583,Eighth,G#3
1108,Left,1,58,100,119.25,0.239583,Sixteenth,A#3
1109,Right,0,74,100,119.5,0.489583,Eighth,D5
1110,Left,1,53,100,119.5,0.489583,Eighth,F3
1111,Left,1,58,100,119.75,0.239583,Sixteenth,A#3
1113,Left,1,55,100,120.0,0.489583,Eighth,G3
1112,Right,0,75,100,120.0,0.239583,Sixteenth,D#5
1115,Right,0,77,100,120.25,0.239583,Sixteenth,F5
1114,Left,1,58,100,120.25,0.239583,Sixteenth,A#3
1117,Right,0,79,100,120.5,0.239583,Sixteenth,G5
1116,Left,1,51,100,120.5,0.489583,Eighth,D#3
1119,Right,0,81,100,120.75,0.239583,Sixteenth,A5
1118,Left,1,58,100,120.75,0.239583,Sixteenth,A#3
1121,Left,1,46,100,121.0,0.239583,Sixteenth,A#2
1120,Right,0,84,100,121.0,0.489583,Eighth,C6
1122,Left,1,58,100,121.25,0.239583,Sixteenth,A#3
1124,Right,0,82,100,121.5,0.489583,Eighth,A#5
1123,Left,1,58,100,121.5,0.239583,Sixteenth,A#3
1125,Left,1,58,100,121.75,0.239583,Sixteenth,A#3
1126,Right,0,55,100,122.0,0.114583,ThirtySecond,G3
1127,Right,0,58,100,122.125,0.114583,ThirtySecond,A#3
1128,Right,0,63,100,122.25,0.114583,ThirtySecond,D#4
1129,Left,1,58,100,122.25,0.239583,Sixteenth,A#3
1130,Right,0,67,100,122.375,0.114583,ThirtySecond,G4
1131,Right,0,70,100,122.5,0.114583,ThirtySecond,A#4
1132,Left,1,55,100,122.5,0.489583,Eighth,G3
1133,Right,0,75,100,122.625,0.114583,ThirtySecond,D#5
1134,Left,1,58,100,122.75,0.239583,Sixteenth,A#3
1135,Right,0,79,100,122.75,0.114583,ThirtySecond,G5
1136,Right,0,77,100,122.875,0.114583,ThirtySecond,F5
1137,Right,0,75,100,123.0,0.114583,ThirtySecond,D#5
1138,Left,1,56,100,123.0,0.489583,Eighth,G#3
1139,Right,0,74,100,123.125,0.114583,ThirtySecond,D5
1141,Left,1,58,100,123.25,0.239583,Sixteenth,A#3
1140,Right,0,72,100,123.25,0.114583,ThirtySecond,C5
1142,Right,0,70,100,123.375,0.114583,ThirtySecond,A#4
1144,Left,1,53,100,123.5,0.489583,Eighth,F3
1143,Right,0,69,100,123.5,0.114583,ThirtySecond,A4
1145,Right,0,70,100,123.625,0.114583,ThirtySecond,A#4
1147,Left,1,58,100,123.75,0.239583,Sixteenth,A#3
1146,Right,0,72,100,123.75,0.114583,ThirtySecond,C5
1148,Right,0,74,100,123.875,0.114583,ThirtySecond,D5
1149,Left,1,55,100,124.0,0.489583,Eighth,G3
1150,Right,0,75,100,124.0,0.239583,Sixteenth,D#5
1152,Right,0,77,100,124.25,0.239583,Sixteenth,F5
1151,Left,1,58,100,124.25,0.239583,Sixteenth,A#3
1154,Left,1,51,100,124.5,0.489583,Eighth,D#3
1153,Right,0,79,100,124.5,0.239583,Sixteenth,G5
1156,Left,1,58,100,124.75,0.239583,Sixteenth,A#3
1155,Right,0,81,100,124.75,0.239583,Sixteenth,A5
1159,Right,0,70,80,125.0,1.989583,Half,A#5_A#4
1157,Left,1,46,80,125.0,1.989583,Half,A#3_A#2
1162,Left,1,59,110,127.0,1.989583,Half,B3_B2
1161,Right,0,83,110,127.0,1.989583,Half,B5_B4
1167,Left,1,48,110,129.0,0.239583,Sixteenth,C3
1165,Right,0,84,120,129.0,0.989583,Quarter,C6_C5
1168,Left,1,51,110,129.125,0.239583,Sixteenth,D#3
1169,Left,1,55,110,129.25,0.239583,Sixteenth,G3
1170,Left,1,60,110,129.375,0.239583,Sixteenth,C4
1171,Left,1,56,110,129.5,0.239583,Sixteenth,G#3
1172,Left,1,55,110,129.625,0.239583,Sixteenth,G3
1173,Left,1,54,110,129.75,0.239583,Sixteenth,F#3
1174,Left,1,55,110,129.875,0.239583,Sixteenth,G3
1175,Left,1,48,110,130.0,0.239583,Sixteenth,C3
1176,Left,1,51,110,130.125,0.239583,Sixteenth,D#3
1177,Left,1,55,110,130.25,0.239583,Sixteenth,G3
1178,Left,1,60,110,130.375,0.239583,Sixteenth,C4
1180,Right,0,63,110,130.5,0.489583,Eighth,G4_D#5_D#4_C5
1179,Left,1,56,110,130.5,0.239583,Sixteenth,G#3
1184,Left,1,55,110,130.625,0.239583,Sixteenth,G3
1185,Left,1,54,110,130.75,0.239583,Sixteenth,F#3
1186,Left,1,55,110,130.875,0.239583,Sixteenth,G3
1188,Right,0,79,110,131.0,0.989583,Quarter,G5_G4_D#5_C5
1187,Left,1,48,110,131.0,0.239583,Sixteenth,C3
1192,Left,1,51,110,131.125,0.239583,Sixteenth,D#3
1193,Left,1,55,110,131.25,0.239583,Sixteenth,G3
1194,Left,1,60,110,131.375,0.239583,Sixteenth,C4
1195,Left,1,56,110,131.5,0.239583,Sixteenth,G#3
1196,Left,1,55,110,131.625,0.239583,Sixteenth,G3
1197,Left,1,54,110,131.75,0.239583,Sixteenth,F#3
1198,Left,1,55,110,131.875,0.239583,Sixteenth,G3
1199,Left,1,48,110,132.0,0.239583,Sixteenth,C3
1200,Left,1,51,110,132.125,0.239583,Sixteenth,D#3
1201,Left,1,55,110,132.25,0.239583,Sixteenth,G3
1202,Left,1,60,110,132.375,0.239583,Sixteenth,C4
1203,Right,0,72,110,132.5,0.489583,Eighth,G5_D#5_C6_C5
1207,Left,1,56,110,132.5,0.239583,Sixteenth,G#3
1208,Left,1,55,110,132.625,0.239583,Sixteenth,G3
1209,Left,1,54,110,132.75,0.239583,Sixteenth,F#3
1210,Left,1,55,110,132.875,0.239583,Sixteenth,G3
1211,Right,0,71,110,133.0,0.989583,Quarter,G4_D5_D4_B4
1215,Left,1,47,110,133.0,0.239583,Sixteenth,B2
1216,Left,1,50,110,133.125,0.239583,Sixteenth,D3
1217,Left,1,55,110,133.25,0.239583,Sixteenth,G3
1218,Left,1,59,110,133.375,0.239583,Sixteenth,B3
1219,Left,1,56,110,133.5,0.239583,Sixteenth,G#3
1220,Left,1,55,110,133.625,0.239583,Sixteenth,G3
1221,Left,1,54,110,133.75,0.239583,Sixteenth,F#3
1222,Left,1,55,110,133.875,0.239583,Sixteenth,G3
1223,Left,1,47,110,134.0,0.239583,Sixteenth,B2
1224,Left,1,50,110,134.125,0.239583,Sixteenth,D3
1225,Left,1,55,110,134.25,0.239583,Sixteenth,G3
1226,Left,1,59,110,134.375,0.239583,Sixteenth,B3
1227,Left,1,56,110,134.5,0.239583,Sixteenth,G#3
1228,Right,0,79,110,134.5,0.489583,Eighth,G5_G4_D5_B4
1232,Left,1,55,110,134.625,0.239583,Sixteenth,G3
1233,Left,1,54,110,134.75,0.239583,Sixteenth,F#3
1234,Left,1,55,110,134.875,0.239583,Sixteenth,G3
1235,Left,1,47,110,135.0,0.239583,Sixteenth,B2
1236,Right,0,83,110,135.0,0.989583,Quarter,G5_D6_D5_B5
1240,Left,1,50,110,135.125,0.239583,Sixteenth,D3
1241,Left,1,55,110,135.25,0.239583,Sixteenth,G3
1242,Left,1,59,110,135.375,0.239583,Sixteenth,B3
1243,Left,1,56,110,135.5,0.239583,Sixteenth,G#3
1244,Left,1,55,110,135.625,0.239583,Sixteenth,G3
1245,Left,1,54,110,135.75,0.239583,Sixteenth,F#3
1246,Left,1,55,110,135.875,0.239583,Sixteenth,G3
1247,Left,1,47,110,136.0,0.239583,Sixteenth,B2
1248,Left,1,50,110,136.125,0.239583,Sixteenth,D3
1249,Left,1,55,110,136.25,0.239583,Sixteenth,G3
1250,Left,1,59,110,136.375,0.239583,Sixteenth,B3
1251,Left,1,56,110,136.5,0.239583,Sixteenth,G#3
1252,Right,0,79,110,136.5,0.489583,Eighth,G5_D6_D5_B5
1256,Left,1,55,110,136.625,0.239583,Sixteenth,G3
1257,Left,1,54,110,136.75,0.239583,Sixteenth,F#3
1258,Left,1,55,110,136.875,0.239583,Sixteenth,G3
1260,Left,1,48,110,137.0,0.489583,Eighth,C3
1259,Right,0,75,110,137.0,0.239583,Sixteenth,D#5
1261,Right,0,79,110,137.125,0.239583,Sixteenth,G5
1262,Right,0,84,110,137.25,0.239583,Sixteenth,C6
1263,Right,0,87,110,137.375,0.239583,Sixteenth,D#6
1264,Left,1,60,110,137.5,0.489583,Eighth,D#4_C4
1265,Right,0,89,110,137.5,0.239583,Sixteenth,F6
1267,Right,0,87,110,137.625,0.239583,Sixteenth,D#6
1268,Right,0,86,110,137.75,0.239583,Sixteenth,D6
1269,Right,0,87,110,137.875,0.239583,Sixteenth,D#6
1270,Left,1,46,110,138.0,0.489583,Eighth,A#2
1271,Right,0,75,110,138.0,0.239583,Sixteenth,D#5
1272,Right,0,79,110,138.125,0.239583,Sixteenth,G5
1273,Right,0,84,110,138.25,0.239583,Sixteenth,C6
1274,Right,0,87,110,138.375,0.239583,Sixteenth,D#6
1275,Right,0,89,110,138.5,0.239583,Sixteenth,F6
1276,Left,1,58,110,138.5,0.489583,Eighth,D#4_C#4_A#3
1279,Right,0,87,110,138.625,0.239583,Sixteenth,D#6
1280,Right,0,86,110,138.75,0.239583,Sixteenth,D6
1281,Right,0,87,110,138.875,0.239583,Sixteenth,D#6
1283,Right,0,75,110,139.0,0.239583,Sixteenth,D#5
1282,Left,1,48,110,139.0,0.489583,Eighth,C3
1284,Right,0,80,110,139.125,0.239583,Sixteenth,G#5
1285,Right,0,84,110,139.25,0.239583,Sixteenth,C6
1286,Right,0,87,110,139.375,0.239583,Sixteenth,D#6
1289,Right,0,89,110,139.5,0.239583,Sixteenth,F6
1287,Left,1,63,110,139.5,0.489583,Eighth,G#3_D#4_C4
1291,Right,0,87,110,139.625,0.239583,Sixteenth,D#6
1292,Right,0,86,110,139.75,0.239583,Sixteenth,D6
1293,Right,0,87,110,139.875,0.239583,Sixteenth,D#6
1294,Right,0,76,110,140.0,0.239583,Sixteenth,E5
1295,Left,1,46,110,140.0,0.489583,Eighth,A#2
1296,Right,0,82,110,140.125,0.239583,Sixteenth,A#5
1297,Right,0,85,110,140.25,0.239583,Sixteenth,C#6
1298,Right,0,88,110,140.375,0.239583,Sixteenth,E6
1300,Left,1,58,110,140.5,0.489583,Eighth,G3_E4_C#4_A#3
1299,Right,0,89,110,140.5,0.239583,Sixteenth,F6
1304,Right,0,88,110,140.625,0.239583,Sixteenth,E6
1305,Right,0,86,110,140.75,0.239583,Sixteenth,D6
1306,Right,0,88,110,140.875,0.239583,Sixteenth,E6
1307,Left,1,44,110,141.0,0.489583,Eighth,G#2
1308,Right,0,89,110,141.125,0.239583,Sixteenth,F6
1309,Right,0,84,110,141.25,0.239583,Sixteenth,C6
1310,Right,0,80,110,141.375,0.239583,Sixteenth,G#5
1311,Left,1,56,110,141.5,0.489583,Eighth,G#3_F4_C4
1314,Right,0,89,110,141.625,0.239583,Sixteenth,F6
1315,Right,0,84,110,141.75,0.239583,Sixteenth,C6
1316,Right,0,80,110,141.875,0.239583,Sixteenth,G#5
1317,Left,1,46,110,142.0,0.489583,Eighth,A#2
1318,Right,0,86,110,142.125,0.239583,Sixteenth,D6
1319,Right,0,80,110,142.25,0.239583,Sixteenth,G#5
1320,Right,0,77,110,142.375,0.239583,Sixteenth,F5
1321,Left,1,65,110,142.5,0.489583,Eighth,G#4_F4_A#3
1324,Right,0,86,110,142.625,0.239583,Sixteenth,D6
1325,Right,0,80,110,142.75,0.239583,Sixteenth,G#5
1326,Right,0,77,110,142.875,0.239583,Sixteenth,F5
1327,Left,1,51,110,143.0,0.489583,Eighth,D#3
1328,Right,0,87,110,143.125,0.239583,Sixteenth,D#6
1329,Right,0,82,110,143.25,0.239583,Sixteenth,A#5
1330,Right,0,79,110,143.375,0.239583,Sixteenth,G5
1331,Right,0,75,110,143.5,0.239583,Sixteenth,D#5
1332,Right,0,70,110,143.625,0.239583,Sixteenth,A#4
1333,Right,0,67,110,143.75,0.239583,Sixteenth,G4
1334,Right,0,63,110,143.875,0.239583,Sixteenth,D#4
1335,Left,1,39,110,144.0,0.489583,Eighth,D#3_D#2
1337,Right,0,58,110,144.125,0.239583,Sixteenth,A#3
1338,Right,0,67,110,144.25,0.239583,Sixteenth,G4
1339,Right,0,70,110,144.375,0.239583,Sixteenth,A#4
1340,Left,1,50,110,144.5,0.489583,Eighth,D3_D2
1342,Right,0,59,110,144.625,0.239583,Sixteenth,B3
1343,Right,0,65,110,144.75,0.239583,Sixteenth,F4
1344,Right,0,71,110,144.875,0.114583,ThirtySecond,B4
1346,Left,1,48,110,145.0,0.239583,Sixteenth,C3
1345,Right,0,67,110,145.0,0.989583,Quarter,G4_D#4_C5_C4
1350,Left,1,51,110,145.125,0.239583,Sixteenth,D#3
1351,Left,1,55,110,145.25,0.239583,Sixteenth,G3
1352,Left,1,60,110,145.375,0.239583,Sixteenth,C4
1353,Left,1,56,110,145.5,0.239583,Sixteenth,G#3
1354,Left,1,55,110,145.625,0.239583,Sixteenth,G3
1355,Left,1,54,110,145.75,0.239583,Sixteenth,F#3
1356,Left,1,55,110,145.875,0.239583,Sixteenth,G3
1357,Left,1,48,110,146.0,0.239583,Sixteenth,C3
1358,Left,1,51,110,146.125,0.239583,Sixteenth,D#3
1359,Left,1,55,110,146.25,0.239583,Sixteenth,G3
1360,Left,1,60,110,146.375,0.239583,Sixteenth,C4
1361,Right,0,75,110,146.5,0.489583,Eighth,G4_D#5_D#4_C5
1365,Left,1,56,110,146.5,0.239583,Sixteenth,G#3
1366,Left,1,55,110,146.625,0.239583,Sixteenth,G3
1367,Left,1,54,110,146.75,0.239583,Sixteenth,F#3
1368,Left,1,55,110,146.875,0.239583,Sixteenth,G3
1369,Left,1,48,110,147.0,0.239583,Sixteenth,C3
1370,Right,0,79,110,147.0,0.989583,Quarter,G5_G4_D#5_C5
1374,Left,1,51,110,147.125,0.239583,Sixteenth,D#3
1375,Left,1,55,110,147.25,0.239583,Sixteenth,G3
1376,Left,1,60,110,147.375,0.239583,Sixteenth,C4
1377,Left,1,56,110,147.5,0.239583,Sixteenth,G#3
1378,Left,1,55,110,147.625,0.239583,Sixteenth,G3
1379,Left,1,54,110,147.75,0.239583,Sixteenth,F#3
1380,Left,1,55,110,147.875,0.239583,Sixteenth,G3
1381,Left,1,48,110,148.0,0.239583,Sixteenth,C3
1382,Left,1,51,110,148.125,0.239583,Sixteenth,D#3
1383,Left,1,55,110,148.25,0.239583,Sixteenth,G3
1384,Left,1,60,110,148.375,0.239583,Sixteenth,C4
1386,Left,1,56,110,148.5,0.239583,Sixteenth,G#3
1385,Right,0,75,110,148.5,0.489583,Eighth,G5_D#5_C6_C5
1390,Left,1,55,110,148.625,0.239583,Sixteenth,G3
1391,Left,1,54,110,148.75,0.239583,Sixteenth,F#3
1392,Left,1,55,110,148.875,0.239583,Sixteenth,G3
1393,Right,0,67,110,149.0,0.989583,Quarter,G4_D5_D4_B4
1396,Left,1,47,110,149.0,0.239583,Sixteenth,B2
1398,Left,1,50,110,149.125,0.239583,Sixteenth,D3
1399,Left,1,55,110,149.25,0.239583,Sixteenth,G3
1400,Left,1,59,110,149.375,0.239583,Sixteenth,B3
1401,Left,1,56,110,149.5,0.239583,Sixteenth,G#3
1402,Left,1,55,110,149.625,0.239583,Sixteenth,G3
1403,Left,1,54,110,149.75,0.239583,Sixteenth,F#3
1404,Left,1,55,110,149.875,0.239583,Sixteenth,G3
1405,Left,1,47,110,150.0,0.239583,Sixteenth,B2
1406,Left,1,50,110,150.125,0.239583,Sixteenth,D3
1407,Left,1,55,110,150.25,0.239583,Sixteenth,G3
1408,Left,1,59,110,150.375,0.239583,Sixteenth,B3
1409,Right,0,67,110,150.5,0.489583,Eighth,G5_G4_D5_B4
1413,Left,1,56,110,150.5,0.239583,Sixteenth,G#3
1414,Left,1,55,110,150.625,0.239583,Sixteenth,G3
1415,Left,1,54,110,150.75,0.239583,Sixteenth,F#3
1416,Left,1,55,110,150.875,0.239583,Sixteenth,G3
1417,Right,0,86,110,151.0,0.989583,Quarter,G5_D6_D5_B5
1421,Left,1,47,110,151.0,0.239583,Sixteenth,B2
1422,Left,1,50,110,151.125,0.239583,Sixteenth,D3
1423,Left,1,55,110,151.25,0.239583,Sixteenth,G3
1424,Left,1,59,110,151.375,0.239583,Sixteenth,B3
1425,Left,1,56,110,151.5,0.239583,Sixteenth,G#3
1426,Left,1,55,110,151.625,0.239583,Sixteenth,G3
1427,Left,1,54,110,151.75,0.239583,Sixteenth,F#3
1428,Left,1,55,110,151.875,0.239583,Sixteenth,G3
1429,Left,1,47,110,152.0,0.239583,Sixteenth,B2
1430,Left,1,50,110,152.125,0.239583,Sixteenth,D3
1431,Left,1,55,110,152.25,0.239583,Sixteenth,G3
1432,Left,1,59,110,152.375,0.239583,Sixteenth,B3
1433,Right,0,79,110,152.5,0.489583,Eighth,G5_D6_D5_B5
1435,Left,1,56,110,152.5,0.239583,Sixteenth,G#3
1438,Left,1,55,110,152.625,0.239583,Sixteenth,G3
1439,Left,1,54,110,152.75,0.239583,Sixteenth,F#3
1440,Left,1,55,110,152.875,0.239583,Sixteenth,G3
1441,Right,0,75,110,153.0,0.239583,Sixteenth,D#5
1442,Left,1,48,110,153.0,0.489583,Eighth,C3
1443,Right,0,79,110,153.125,0.239583,Sixteenth,G5
1444,Right,0,84,110,153.25,0.239583,Sixteenth,C6
1445,Right,0,87,110,153.375,0.239583,Sixteenth,D#6
1447,Right,0,89,110,153.5,0.239583,Sixteenth,F6
1446,Left,1,60,110,153.5,0.489583,Eighth,D#4_C4
1449,Right,0,87,110,153.625,0.239583,Sixteenth,D#6
1450,Right,0,86,110,153.75,0.239583,Sixteenth,D6
1451,Right,0,87,110,153.875,0.239583,Sixteenth,D#6
1453,Right,0,75,110,154.0,0.239583,Sixteenth,D#5
1452,Left,1,46,110,154.0,0.489583,Eighth,A#2
1454,Right,0,79,110,154.125,0.239583,Sixteenth,G5
1455,Right,0,84,110,154.25,0.239583,Sixteenth,C6
1456,Right,0,87,110,154.375,0.239583,Sixteenth,D#6
1457,Right,0,89,110,154.5,0.239583,Sixteenth,F6
1458,Left,1,61,110,154.5,0.489583,Eighth,D#4_C#4_A#3
1461,Right,0,87,110,154.625,0.239583,Sixteenth,D#6
1462,Right,0,86,110,154.75,0.239583,Sixteenth,D6
1463,Right,0,87,110,154.875,0.239583,Sixteenth,D#6
1465,Left,1,48,110,155.0,0.489583,Eighth,C3
1464,Right,0,75,110,155.0,0.239583,Sixteenth,D#5
1466,Right,0,80,110,155.125,0.239583,Sixteenth,G#5
1467,Right,0,84,110,155.25,0.239583,Sixteenth,C6
1468,Right,0,87,110,155.375,0.239583,Sixteenth,D#6
1470,Right,0,89,110,155.5,0.239583,Sixteenth,F6
1469,Left,1,56,110,155.5,0.489583,Eighth,G#3_D#4_C4
1473,Right,0,87,110,155.625,0.239583,Sixteenth,D#6
1474,Right,0,86,110,155.75,0.239583,Sixteenth,D6
1475,Right,0,87,110,155.875,0.239583,Sixteenth,D#6
1476,Right,0,76,110,156.0,0.239583,Sixteenth,E5
1477,Left,1,46,110,156.0,0.489583,Eighth,A#2
1478,Right,0,82,110,156.125,0.239583,Sixteenth,A#5
1479,Right,0,85,110,156.25,0.239583,Sixteenth,C#6
1480,Right,0,88,110,156.375,0.239583,Sixteenth,E6
1481,Left,1,61,110,156.5,0.489583,Eighth,G3_E4_C#4_A#3
1483,Right,0,89,110,156.5,0.239583,Sixteenth,F6
1486,Right,0,88,110,156.625,0.239583,Sixteenth,E6
1487,Right,0,86,110,156.75,0.239583,Sixteenth,D6
1488,Right,0,88,110,156.875,0.239583,Sixteenth,E6
1489,Left,1,44,110,157.0,0.489583,Eighth,G#2
1490,Right,0,89,110,157.125,0.239583,Sixteenth,F6
1491,Right,0,84,110,157.25,0.239583,Sixteenth,C6
1492,Right,0,80,110,157.375,0.239583,Sixteenth,G#5
1493,Left,1,65,110,157.5,0.489583,Eighth,G#3_F4_C4
1496,Right,0,89,110,157.625,0.239583,Sixteenth,F6
1497,Right,0,84,110,157.75,0.239583,Sixteenth,C6
1498,Right,0,80,110,157.875,0.239583,Sixteenth,G#5
1499,Left,1,46,110,158.0,0.489583,Eighth,A#2
1500,Right,0,86,110,158.125,0.239583,Sixteenth,D6
1501,Right,0,80,110,158.25,0.239583,Sixteenth,G#5
1502,Right,0,77,110,158.375,0.239583,Sixteenth,F5
1503,Left,1,58,110,158.5,0.489583,Eighth,G#4_F4_A#3
1506,Right,0,86,110,158.625,0.239583,Sixteenth,D6
1507,Right,0,80,110,158.75,0.239583,Sixteenth,G#5
1508,Right,0,77,110,158.875,0.239583,Sixteenth,F5
1509,Left,1,51,110,159.0,0.489583,Eighth,D#3
1510,Right,0,87,110,159.125,0.239583,Sixteenth,D#6
1511,Right,0,82,110,159.25,0.239583,Sixteenth,A#5
1512,Right,0,79,110,159.375,0.239583,Sixteenth,G5
1513,Right,0,75,110,159.5,0.239583,Sixteenth,D#5
1514,Right,0,70,110,159.625,0.239583,Sixteenth,A#4
1515,Right,0,67,110,159.75,0.239583,Sixteenth,G4
1516,Right,0,63,110,159.875,0.239583,Sixteenth,D#4
1517,Left,1,51,110,160.0,0.489583,Eighth,D#3_D#2
1519,Right,0,58,110,160.125,0.239583,Sixteenth,A#3
1520,Right,0,67,110,160.25,0.239583,Sixteenth,G4
1521,Right,0,70,110,160.375,0.239583,Sixteenth,A#4
1522,Left,1,49,110,160.5,0.489583,Eighth,C#3_C#2
1524,Right,0,58,110,160.625,0.239583,Sixteenth,A#3
1525,Right,0,65,110,160.75,0.239583,Sixteenth,F4
1526,Right,0,70,110,160.875,0.114583,ThirtySecond,A#4
1527,Right,0,58,120,161.0,0.989583,Quarter,G3_E4_A#3
1529,Left,1,36,110,161.0,0.239583,Sixteenth,C2
1531,Left,1,40,110,161.125,0.239583,Sixteenth,E2
1532,Left,1,43,110,161.25,0.239583,Sixteenth,G2
1533,Left,1,48,110,161.375,0.239583,Sixteenth,C3
1534,Left,1,49,110,161.5,0.239583,Sixteenth,C#3
1535,Left,1,48,110,161.625,0.239583,Sixteenth,C3
1536,Left,1,47,110,161.75,0.239583,Sixteenth,B2
1537,Left,1,48,110,161.875,0.239583,Sixteenth,C3
1538,Left,1,36,110,162.0,0.239583,Sixteenth,C2
1539,Left,1,40,110,162.125,0.239583,Sixteenth,E2
1540,Left,1,43,110,162.25,0.239583,Sixteenth,G2
1541,Left,1,48,110,162.375,0.239583,Sixteenth,C3
1543,Right,0,70,120,162.5,0.489583,Eighth,G4_E4_A#4_A#3
1542,Left,1,49,110,162.5,0.239583,Sixteenth,C#3
1547,Left,1,48,110,162.625,0.239583,Sixteenth,C3
1548,Left,1,47,110,162.75,0.239583,Sixteenth,B2
1549,Left,1,48,110,162.875,0.239583,Sixteenth,C3
1553,Left,1,36,110,163.0,0.239583,Sixteenth,C2
1550,Right,0,70,120,163.0,0.989583,Quarter,G4_E5_E4_A#4
1555,Left,1,40,110,163.125,0.239583,Sixteenth,E2
1556,Left,1,43,110,163.25,0.239583,Sixteenth,G2
1557,Left,1,48,110,163.375,0.239583,Sixteenth,C3
1558,Left,1,49,110,163.5,0.239583,Sixteenth,C#3
1559,Left,1,48,110,163.625,0.239583,Sixteenth,C3
1560,Left,1,47,110,163.75,0.239583,Sixteenth,B2
1561,Left,1,48,110,163.875,0.239583,Sixteenth,C3
1562,Left,1,36,110,164.0,0.239583,Sixteenth,C2
1563,Left,1,40,110,164.125,0.239583,Sixteenth,E2
1564,Left,1,43,110,164.25,0.239583,Sixteenth,G2
1565,Left,1,48,110,164.375,0.239583,Sixteenth,C3
1567,Right,0,79,120,164.5,0.489583,Eighth,G5_E5_A#5_A#4
1566,Left,1,49,110,164.5,0.239583,Sixteenth,C#3
1571,Left,1,48,110,164.625,0.239583,Sixteenth,C3
1572,Left,1,47,110,164.75,0.239583,Sixteenth,B2
1573,Left,1,48,110,164.875,0.239583,Sixteenth,C3
1577,Left,1,41,110,165.0,0.239583,Sixteenth,F2
1574,Right,0,72,120,165.0,0.989583,Quarter,G#5_G#4_F5_C5
1579,Left,1,44,110,165.125,0.239583,Sixteenth,G#2
1580,Left,1,48,110,165.25,0.239583,Sixteenth,C3
1581,Left,1,53,110,165.375,0.239583,Sixteenth,F3
1582,Left,1,55,110,165.5,0.239583,Sixteenth,G3
1583,Left,1,53,110,165.625,0.239583,Sixteenth,F3
1584,Left,1,52,110,165.75,0.239583,Sixteenth,E3
1585,Left,1,53,110,165.875,0.239583,Sixteenth,F3
1586,Left,1,41,110,166.0,0.239583,Sixteenth,F2
1587,Left,1,44,110,166.125,0.239583,Sixteenth,G#2
1588,Left,1,48,110,166.25,0.239583,Sixteenth,C3
1589,Left,1,53,110,166.375,0.239583,Sixteenth,F3
1591,Right,0,84,120,166.5,0.489583,Eighth,G#5_F5_C6_C5
1590,Left,1,55,110,166.5,0.239583,Sixteenth,G3
1595,Left,1,53,110,166.625,0.239583,Sixteenth,F3
1596,Left,1,52,110,166.75,0.239583,Sixteenth,E3
1597,Left,1,53,110,166.875,0.239583,Sixteenth,F3
1598,Right,0,84,120,167.0,0.989583,Quarter,D#5_C6_C5_A5
1600,Left,1,42,110,167.0,0.239583,Sixteenth,F#2
1603,Left,1,45,110,167.125,0.239583,Sixteenth,A2
1604,Left,1,48,110,167.25,0.239583,Sixteenth,C3
1605,Left,1,54,110,167.375,0.239583,Sixteenth,F#3
1606,Left,1,55,110,167.5,0.239583,Sixteenth,G3
1607,Left,1,54,110,167.625,0.239583,Sixteenth,F#3
1608,Left,1,55,110,167.75,0.239583,Sixteenth,G3
1609,Left,1,54,110,167.875,0.239583,Sixteenth,F#3
1610,Left,1,42,110,168.0,0.239583,Sixteenth,F#2
1611,Left,1,45,110,168.125,0.239583,Sixteenth,A2
1612,Left,1,48,110,168.25,0.239583,Sixteenth,C3
1613,Left,1,54,110,168.375,0.239583,Sixteenth,F#3
1615,Left,1,55,110,168.5,0.239583,Sixteenth,G3
1614,Right,0,72,120,168.5,0.489583,Eighth,D#4_C5_C4_A4
1619,Left,1,54,110,168.625,0.239583,Sixteenth,F#3
1620,Left,1,55,110,168.75,0.239583,Sixteenth,G3
1621,Left,1,54,110,168.875,0.239583,Sixteenth,F#3
1623,Left,1,43,110,169.0,0.489583,Eighth,G2
1622,Right,0,59,110,169.0,0.239583,Sixteenth,B3
1624,Right,0,62,110,169.125,0.239583,Sixteenth,D4
1625,Right,0,67,110,169.25,0.239583,Sixteenth,G4
1626,Right,0,71,110,169.375,0.239583,Sixteenth,B4
1627,Right,0,72,110,169.5,0.239583,Sixteenth,C5
1628,Left,1,55,110,169.5,3.489583,DottedHalf,G3
1629,Right,0,71,110,169.625,0.239583,Sixteenth,B4
1630,Right,0,70,110,169.75,0.239583,Sixteenth,A#4
1631,Right,0,71,110,169.875,0.239583,Sixteenth,B4
1632,Right,0,65,110,170.0,0.239583,Sixteenth,F4
1633,Right,0,71,110,170.125,0.239583,Sixteenth,B4
1634,Right,0,74,110,170.25,0.239583,Sixteenth,D5
1635,Right,0,77,110,170.375,0.239583,Sixteenth,F5
1636,Left,1,62,110,170.5,0.489583,Eighth,D4
1637,Right,0,79,110,170.5,0.239583,Sixteenth,G5
1638,Right,0,77,110,170.625,0.239583,Sixteenth,F5
1639,Right,0,76,110,170.75,0.239583,Sixteenth,E5
1640,Right,0,77,110,170.875,0.239583,Sixteenth,F5
1642,Right,0,63,110,171.0,0.239583,Sixteenth,D#4
1641,Left,1,60,110,171.0,0.489583,Eighth,C4
1643,Right,0,67,110,171.125,0.239583,Sixteenth,G4
1644,Right,0,72,110,171.25,0.239583,Sixteenth,C5
1645,Right,0,75,110,171.375,0.239583,Sixteenth,D#5
1646,Left,1,67,110,171.5,0.489583,Eighth,G4
1647,Right,0,77,110,171.5,0.239583,Sixteenth,F5
1648,Right,0,75,110,171.625,0.239583,Sixteenth,D#5
1649,Right,0,74,110,171.75,0.239583,Sixteenth,D5
1650,Right,0,75,110,171.875,0.239583,Sixteenth,D#5
1651,Left,1,63,110,172.0,0.489583,Eighth,D#4
1652,Right,0,72,110,172.0,0.239583,Sixteenth,C5
1653,Right,0,75,110,172.125,0.239583,Sixteenth,D#5
1654,Right,0,79,110,172.25,0.239583,Sixteenth,G5
1655,Right,0,84,110,172.375,0.239583,Sixteenth,C6
1657,Left,1,60,110,172.5,0.489583,Eighth,C4
1656,Right,0,86,110,172.5,0.239583,Sixteenth,D6
1658,Right,0,84,110,172.625,0.239583,Sixteenth,C6
1659,Right,0,83,110,172.75,0.239583,Sixteenth,B5
1660,Right,0,84,110,172.875,0.239583,Sixteenth,C6
1661,Right,0,71,110,173.0,0.239583,Sixteenth,B4
1662,Left,1,43,110,173.0,3.989583,Whole,G2
1663,Right,0,74,110,173.125,0.239583,Sixteenth,D5
1664,Right,0,79,110,173.25,0.239583,Sixteenth,G5
1665,Right,0,83,110,173.375,0.239583,Sixteenth,B5
1666,Right,0,84,110,173.5,0.239583,Sixteenth,C6
1667,Left,1,55,110,173.5,1.989583,Half,G3
1668,Right,0,83,110,173.625,0.239583,Sixteenth,B5
1669,Right,0,82,110,173.75,0.239583,Sixteenth,A#5
1670,Right,0,83,110,173.875,0.239583,Sixteenth,B5
1671,Right,0,77,110,174.0,0.239583,Sixteenth,F5
1672,Right,0,83,110,174.125,0.239583,Sixteenth,B5
1673,Right,0,86,110,174.25,0.239583,Sixteenth,D6
1674,Right,0,89,110,174.375,0.239583,Sixteenth,F6
1675,Left,1,47,110,174.5,0.989583,Quarter,B2
1676,Right,0,91,110,174.5,0.239583,Sixteenth,G6
1677,Right,0,89,110,174.625,0.239583,Sixteenth,F6
1678,Right,0,88,110,174.75,0.239583,Sixteenth,E6
1679,Right,0,89,110,174.875,0.239583,Sixteenth,F6
1680,Right,0,75,110,175.0,0.239583,Sixteenth,D#5
1681,Right,0,79,110,175.125,0.239583,Sixteenth,G5
1682,Right,0,84,110,175.25,0.239583,Sixteenth,C6
1683,Right,0,87,110,175.375,0.239583,Sixteenth,D#6
1684,Left,1,55,110,175.5,1.989583,Half,G3
1685,Right,0,89,110,175.5,0.239583,Sixteenth,F6
1686,Right,0,87,110,175.625,0.239583,Sixteenth,D#6
1687,Right,0,86,110,175.75,0.239583,Sixteenth,D6
1688,Right,0,87,110,175.875,0.239583,Sixteenth,D#6
1690,Left,1,51,110,176.0,0.489583,Eighth,D#3
1689,Right,0,72,110,176.0,0.239583,Sixteenth,C5
1691,Right,0,75,110,176.125,0.239583,Sixteenth,D#5
1692,Right,0,79,110,176.25,0.239583,Sixteenth,G5
1693,Right,0,84,110,176.375,0.239583,Sixteenth,C6
1695,Right,0,86,110,176.5,0.239583,Sixteenth,D6
1694,Left,1,48,110,176.5,0.489583,Eighth,C3
1696,Right,0,84,110,176.625,0.239583,Sixteenth,C6
1697,Right,0,83,110,176.75,0.239583,Sixteenth,B5
1698,Right,0,84,110,176.875,0.239583,Sixteenth,C6
1699,Left,1,43,110,177.0,0.489583,Eighth,G2
1700,Right,0,83,110,177.0,0.239583,Sixteenth,B5
1701,Right,0,86,110,177.125,0.239583,Sixteenth,D6
1702,Right,0,84,110,177.25,0.239583,Sixteenth,C6
1703,Right,0,83,110,177.375,0.239583,Sixteenth,B5
1704,Right,0,80,110,177.5,0.239583,Sixteenth,G#5
1705,Right,0,79,110,177.625,0.239583,Sixteenth,G5
1706,Right,0,77,110,177.75,0.239583,Sixteenth,F5
1707,Right,0,75,110,177.875,0.239583,Sixteenth,D#5
1708,Right,0,74,110,178.0,0.239583,Sixteenth,D5
1709,Right,0,72,110,178.125,0.239583,Sixteenth,C5
1710,Right,0,71,110,178.25,0.239583,Sixteenth,B4
1711,Right,0,68,110,178.375,0.239583,Sixteenth,G#4
1712,Right,0,67,110,178.5,0.239583,Sixteenth,G4
1713,Right,0,65,110,178.625,0.239583,Sixteenth,F4
1714,Right,0,63,110,178.75,0.239583,Sixteenth,D#4
1715,Right,0,62,110,178.875,0.114583,ThirtySecond,D4
1716,Right,0,55,120,179.0,0.989583,Quarter,G3_D#3_C4
1717,Left,1,36,110,179.0,0.239583,Sixteenth,C2
1720,Left,1,39,110,179.125,0.239583,Sixteenth,D#2
1721,Left,1,43,110,179.25,0.239583,Sixteenth,G2
1722,Left,1,48,110,179.375,0.239583,Sixteenth,C3
1723,Left,1,50,110,179.5,0.239583,Sixteenth,D3
1724,Left,1,48,110,179.625,0.239583,Sixteenth,C3
1725,Left,1,47,110,179.75,0.239583,Sixteenth,B2
1726,Left,1,48,110,179.875,0.239583,Sixteenth,C3
1727,Left,1,36,110,180.0,0.239583,Sixteenth,C2
1728,Left,1,39,110,180.125,0.239583,Sixteenth,D#2
1729,Left,1,43,110,180.25,0.239583,Sixteenth,G2
1730,Left,1,48,110,180.375,0.239583,Sixteenth,C3
1735,Left,1,50,110,180.5,0.239583,Sixteenth,D3
1731,Right,0,67,120,180.5,0.489583,Eighth,G4_D#5_D#4_C5
1736,Left,1,48,110,180.625,0.239583,Sixteenth,C3
1737,Left,1,47,110,180.75,0.239583,Sixteenth,B2
1738,Left,1,48,110,180.875,0.239583,Sixteenth,C3
1739,Right,0,67,120,181.0,0.989583,Quarter,G5_G4_D#5_C5
1742,Left,1,36,110,181.0,0.239583,Sixteenth,C2
1744,Left,1,39,110,181.125,0.239583,Sixteenth,D#2
1745,Left,1,43,110,181.25,0.239583,Sixteenth,G2
1746,Left,1,48,110,181.375,0.239583,Sixteenth,C3
1747,Left,1,50,110,181.5,0.239583,Sixteenth,D3
1748,Left,1,48,110,181.625,0.239583,Sixteenth,C3
1749,Left,1,47,110,181.75,0.239583,Sixteenth,B2
1750,Left,1,48,110,181.875,0.239583,Sixteenth,C3
1751,Left,1,36,110,182.0,0.239583,Sixteenth,C2
1752,Left,1,39,110,182.125,0.239583,Sixteenth,D#2
1753,Left,1,43,110,182.25,0.239583,Sixteenth,G2
1754,Left,1,48,110,182.375,0.239583,Sixteenth,C3
1756,Right,0,84,120,182.5,0.489583,Eighth,G5_D#5_C6_C5
1755,Left,1,50,110,182.5,0.239583,Sixteenth,D3
1760,Left,1,48,110,182.625,0.239583,Sixteenth,C3
1761,Left,1,47,110,182.75,0.239583,Sixteenth,B2
1762,Left,1,48,110,182.875,0.239583,Sixteenth,C3
1763,Left,1,46,120,183.0,0.989583,Quarter,A#2_A#1
1764,Right,0,60,110,183.0,0.239583,Sixteenth,C4
1766,Right,0,64,110,183.125,0.239583,Sixteenth,E4
1767,Right,0,67,110,183.25,0.239583,Sixteenth,G4
1768,Right,0,72,110,183.375,0.239583,Sixteenth,C5
1769,Right,0,73,110,183.5,0.239583,Sixteenth,C#5
1770,Right,0,72,110,183.625,0.239583,Sixteenth,C5
1771,Right,0,71,110,183.75,0.239583,Sixteenth,B4
1772,Right,0,72,110,183.875,0.239583,Sixteenth,C5
1773,Right,0,64,110,184.0,0.239583,Sixteenth,E4
1774,Right,0,67,110,184.125,0.239583,Sixteenth,G4
1775,Right,0,72,110,184.25,0.239583,Sixteenth,C5
1776,Right,0,76,110,184.375,0.239583,Sixteenth,E5
1780,Right,0,77,110,184.5,0.239583,Sixteenth,F5
1777,Left,1,52,120,184.5,0.489583,Eighth,G3_E3_A#3_A#2
1782,Right,0,76,110,184.625,0.239583,Sixteenth,E5
1783,Right,0,75,110,184.75,0.239583,Sixteenth,D#5
1784,Right,0,76,110,184.875,0.239583,Sixteenth,E5
1786,Left,1,46,120,185.0,0.989583,Quarter,A#2_A#1
1785,Right,0,67,110,185.0,0.239583,Sixteenth,G4
1788,Right,0,72,110,185.125,0.239583,Sixteenth,C5
1789,Right,0,76,110,185.25,0.239583,Sixteenth,E5
1790,Right,0,79,110,185.375,0.239583,Sixteenth,G5
1791,Right,0,80,110,185.5,0.239583,Sixteenth,G#5
1792,Right,0,79,110,185.625,0.239583,Sixteenth,G5
1793,Right,0,78,110,185.75,0.239583,Sixteenth,F#5
1794,Right,0,79,110,185.875,0.239583,Sixteenth,G5
1795,Right,0,72,110,186.0,0.239583,Sixteenth,C5
1796,Right,0,76,110,186.125,0.239583,Sixteenth,E5
1797,Right,0,79,110,186.25,0.239583,Sixteenth,G5
1798,Right,0,84,110,186.375,0.239583,Sixteenth,C6
1800,Right,0,85,110,186.5,0.239583,Sixteenth,C#6
1799,Left,1,55,120,186.5,0.489583,Eighth,G3_E3_A#3_A#2
1804,Right,0,84,110,186.625,0.239583,Sixteenth,C6
1805,Right,0,83,110,186.75,0.239583,Sixteenth,B5
1806,Right,0,84,110,186.875,0.239583,Sixteenth,C6
1810,Right,0,72,110,187.0,0.239583,Sixteenth,C5
1807,Left,1,56,120,187.0,0.489583,Eighth,G#3_G#2_F3_C3
1812,Right,0,77,110,187.125,0.239583,Sixteenth,F5
1813,Right,0,80,110,187.25,0.239583,Sixteenth,G#5
1814,Right,0,84,110,187.375,0.239583,Sixteenth,C6
1815,Right,0,86,110,187.5,0.239583,Sixteenth,D6
1816,Right,0,84,110,187.625,0.239583,Sixteenth,C6
1817,Right,0,83,110,187.75,0.239583,Sixteenth,B5
1818,Right,0,84,110,187.875,0.239583,Sixteenth,C6
1819,Left,1,53,110,188.0,0.239583,Sixteenth,F3
1820,Right,0,68,110,188.0,0.239583,Sixteenth,G#4
1821,Right,0,72,110,188.125,0.239583,Sixteenth,C5
1822,Left,1,56,110,188.125,0.239583,Sixteenth,G#3
1823,Right,0,77,110,188.25,0.239583,Sixteenth,F5
1824,Left,1,60,110,188.25,0.239583,Sixteenth,C4
1825,Right,0,80,110,188.375,0.239583,Sixteenth,G#5
1826,Left,1,65,110,188.375,0.239583,Sixteenth,F4
1828,Left,1,67,110,188.5,0.239583,Sixteenth,G4
1827,Right,0,82,110,188.5,0.239583,Sixteenth,A#5
1830,Right,0,80,110,188.625,0.239583,Sixteenth,G#5
1829,Left,1,65,110,188.625,0.239583,Sixteenth,F4
1832,Left,1,64,110,188.75,0.239583,Sixteenth,E4
1831,Right,0,79,110,188.75,0.239583,Sixteenth,G5
1833,Right,0,80,110,188.875,0.239583,Sixteenth,G#5
1834,Left,1,65,110,188.875,0.239583,Sixteenth,F4
1836,Left,1,50,110,189.0,0.239583,Sixteenth,D3
1835,Right,0,65,110,189.0,0.239583,Sixteenth,F4
1838,Left,1,53,110,189.125,0.239583,Sixteenth,F3
1837,Right,0,71,110,189.125,0.239583,Sixteenth,B4
1840,Left,1,59,110,189.25,0.239583,Sixteenth,B3
1839,Right,0,74,110,189.25,0.239583,Sixteenth,D5
1842,Right,0,77,110,189.375,0.239583,Sixteenth,F5
1841,Left,1,62,110,189.375,0.239583,Sixteenth,D4
1844,Right,0,79,110,189.5,0.239583,Sixteenth,G5
1843,Left,1,63,110,189.5,0.239583,Sixteenth,D#4
1845,Left,1,62,110,189.625,0.239583,Sixteenth,D4
1846,Right,0,77,110,189.625,0.239583,Sixteenth,F5
1847,Right,0,76,110,189.75,0.239583,Sixteenth,E5
1848,Left,1,61,110,189.75,0.239583,Sixteenth,C#4
1850,Right,0,77,110,189.875,0.239583,Sixteenth,F5
1849,Left,1,62,110,189.875,0.239583,Sixteenth,D4
1852,Right,0,62,110,190.0,0.239583,Sixteenth,D4
1851,Left,1,47,110,190.0,0.239583,Sixteenth,B2
1854,Right,0,67,110,190.125,0.239583,Sixteenth,G4
1853,Left,1,50,110,190.125,0.239583,Sixteenth,D3
1855,Right,0,71,110,190.25,0.239583,Sixteenth,B4
1856,Left,1,55,110,190.25,0.239583,Sixteenth,G3
1857,Right,0,74,110,190.375,0.239583,Sixteenth,D5
1858,Left,1,59,110,190.375,0.239583,Sixteenth,B3
1859,Right,0,75,110,190.5,0.239583,Sixteenth,D#5
1860,Left,1,60,110,190.5,0.239583,Sixteenth,C4
1861,Right,0,74,110,190.625,0.239583,Sixteenth,D5
1862,Left,1,59,110,190.625,0.239583,Sixteenth,B3
1864,Left,1,58,110,190.75,0.239583,Sixteenth,A#3
1863,Right,0,73,110,190.75,0.239583,Sixteenth,C#5
1865,Left,1,59,110,190.875,0.239583,Sixteenth,B3
1866,Right,0,74,110,190.875,0.239583,Sixteenth,D5
1867,Left,1,60,110,191.0,0.489583,Eighth,G3_D#3_C4_C3
1871,Right,0,67,110,191.125,0.239583,Sixteenth,G4
1872,Right,0,72,110,191.25,0.239583,Sixteenth,C5
1873,Right,0,75,110,191.375,0.239583,Sixteenth,D#5
1874,Left,1,56,110,191.5,0.489583,Eighth,G#3_F3_D4
1877,Right,0,68,110,191.625,0.239583,Sixteenth,G#4
1878,Right,0,74,110,191.75,0.239583,Sixteenth,D5
1879,Right,0,77,110,191.875,0.239583,Sixteenth,F5
1880,Left,1,60,110,192.0,0.489583,Eighth,G3_D#4_C4
1883,Right,0,67,110,192.125,0.239583,Sixteenth,G4
1884,Right,0,72,110,192.25,0.239583,Sixteenth,C5
1885,Right,0,75,110,192.375,0.239583,Sixteenth,D#5
1886,Left,1,55,110,192.5,0.489583,Eighth,G3_D4_B3
1889,Right,0,65,110,192.625,0.239583,Sixteenth,F4
1890,Right,0,71,110,192.75,0.239583,Sixteenth,B4
1891,Right,0,74,110,192.875,0.239583,Sixteenth,D5
1892,Left,1,48,110,193.0,0.489583,Eighth,G3_D#3_C4_C3
1896,Right,0,72,110,193.125,0.239583,Sixteenth,C5
1897,Right,0,71,110,193.25,0.239583,Sixteenth,B4
1898,Right,0,72,110,193.375,0.239583,Sixteenth,C5
1899,Right,0,71,110,193.5,0.239583,Sixteenth,B4
1900,Right,0,72,110,193.625,0.239583,Sixteenth,C5
1901,Right,0,67,110,193.75,0.239583,Sixteenth,G4
1902,Right,0,63,110,193.875,0.114583,ThirtySecond,D#4
1903,Right,0,60,110,194.0,0.489583,Eighth,C4
1904,Left,1,47,110,194.25,0.239583,Sixteenth,B2
1905,Left,1,48,110,194.375,0.239583,Sixteenth,C3
1906,Left,1,47,110,194.5,0.239583,Sixteenth,B2
1907,Left,1,48,110,194.625,0.239583,Sixteenth,C3
1908,Left,1,47,110,194.75,0.239583,Sixteenth,B2
1909,Left,1,48,110,194.875,0.114583,ThirtySecond,C3
1913,Left,1,36,110,195.0,0.239583,Sixteenth,C2
1910,Right,0,64,120,195.0,0.989583,Quarter,G3_E4_A#3
1914,Left,1,40,110,195.125,0.239583,Sixteenth,E2
1915,Left,1,43,110,195.25,0.239583,Sixteenth,G2
1916,Left,1,48,110,195.375,0.239583,Sixteenth,C3
1917,Left,1,49,110,195.5,0.239583,Sixteenth,C#3
1918,Left,1,48,110,195.625,0.239583,Sixteenth,C3
1919,Left,1,47,110,195.75,0.239583,Sixteenth,B2
1920,Left,1,48,110,195.875,0.239583,Sixteenth,C3
1921,Left,1,36,110,196.0,0.239583,Sixteenth,C2
1922,Left,1,40,110,196.125,0.239583,Sixteenth,E2
1923,Left,1,43,110,196.25,0.239583,Sixteenth,G2
1924,Left,1,48,110,196.375,0.239583,Sixteenth,C3
1925,Right,0,70,120,196.5,0.489583,Eighth,G4_E4_A#4_A#3
1929,Left,1,49,110,196.5,0.239583,Sixteenth,C#3
1930,Left,1,48,110,196.625,0.239583,Sixteenth,C3
1931,Left,1,47,110,196.75,0.239583,Sixteenth,B2
1932,Left,1,48,110,196.875,0.239583,Sixteenth,C3
1936,Left,1,36,110,197.0,0.239583,Sixteenth,C2
1933,Right,0,67,120,197.0,0.989583,Quarter,G4_E5_E4_A#4
1938,Left,1,40,110,197.125,0.239583,Sixteenth,E2
1939,Left,1,43,110,197.25,0.239583,Sixteenth,G2
1940,Left,1,48,110,197.375,0.239583,Sixteenth,C3
1941,Left,1,49,110,197.5,0.239583,Sixteenth,C#3
1942,Left,1,48,110,197.625,0.239583,Sixteenth,C3
1943,Left,1,47,110,197.75,0.239583,Sixteenth,B2
1944,Left,1,48,110,197.875,0.239583,Sixteenth,C3
1945,Left,1,36,110,198.0,0.239583,Sixteenth,C2
1946,Left,1,40,110,198.125,0.239583,Sixteenth,E2
1947,Left,1,43,110,198.25,0.239583,Sixteenth,G2
1948,Left,1,48,110,198.375,0.239583,Sixteenth,C3
1953,Left,1,49,110,198.5,0.239583,Sixteenth,C#3
1949,Right,0,79,120,198.5,0.489583,Eighth,G5_E5_A#5_A#4
1954,Left,1,48,110,198.625,0.239583,Sixteenth,C3
1955,Left,1,47,110,198.75,0.239583,Sixteenth,B2
1956,Left,1,48,110,198.875,0.239583,Sixteenth,C3
1957,Right,0,80,120,199.0,0.989583,Quarter,G#5_G#4_F5_C5
1961,Left,1,41,110,199.0,0.239583,Sixteenth,F2
1962,Left,1,44,110,199.125,0.239583,Sixteenth,G#2
1963,Left,1,48,110,199.25,0.239583,Sixteenth,C3
1964,Left,1,53,110,199.375,0.239583,Sixteenth,F3
1965,Left,1,55,110,199.5,0.239583,Sixteenth,G3
1966,Left,1,53,110,199.625,0.239583,Sixteenth,F3
1967,Left,1,52,110,199.75,0.239583,Sixteenth,E3
1968,Left,1,53,110,199.875,0.239583,Sixteenth,F3
1969,Left,1,41,110,200.0,0.239583,Sixteenth,F2
1970,Left,1,44,110,200.125,0.239583,Sixteenth,G#2
1971,Left,1,48,110,200.25,0.239583,Sixteenth,C3
1972,Left,1,53,110,200.375,0.239583,Sixteenth,F3
1973,Right,0,84,120,200.5,0.489583,Eighth,G#5_F5_C6_C5
1974,Left,1,55,110,200.5,0.239583,Sixteenth,G3
1978,Left,1,53,110,200.625,0.239583,Sixteenth,F3
1979,Left,1,52,110,200.75,0.239583,Sixteenth,E3
1980,Left,1,53,110,200.875,0.239583,Sixteenth,F3
1981,Right,0,75,120,201.0,0.989583,Quarter,D#5_C6_C5_A5
1984,Left,1,42,110,201.0,0.239583,Sixteenth,F#2
1986,Left,1,45,110,201.125,0.239583,Sixteenth,A2
1987,Left,1,48,110,201.25,0.239583,Sixteenth,C3
1988,Left,1,54,110,201.375,0.239583,Sixteenth,F#3
1989,Left,1,55,110,201.5,0.239583,Sixteenth,G3
1990,Left,1,54,110,201.625,0.239583,Sixteenth,F#3
1991,Left,1,55,110,201.75,0.239583,Sixteenth,G3
1992,Left,1,54,110,201.875,0.239583,Sixteenth,F#3
1993,Left,1,42,110,202.0,0.239583,Sixteenth,F#2
1994,Left,1,45,110,202.125,0.239583,Sixteenth,A2
1995,Left,1,48,110,202.25,0.239583,Sixteenth,C3
1996,Left,1,54,110,202.375,0.239583,Sixteenth,F#3
2001,Left,1,55,110,202.5,0.239583,Sixteenth,G3
1997,Right,0,60,120,202.5,0.489583,Eighth,D#4_C5_C4_A4
2002,Left,1,54,110,202.625,0.239583,Sixteenth,F#3
2003,Left,1,55,110,202.75,0.239583,Sixteenth,G3
2004,Left,1,54,110,202.875,0.239583,Sixteenth,F#3
2006,Right,0,59,110,203.0,0.239583,Sixteenth,B3
2005,Left,1,43,110,203.0,0.489583,Eighth,G2
2007,Right,0,62,110,203.125,0.239583,Sixteenth,D4
2008,Right,0,67,110,203.25,0.239583,Sixteenth,G4
2009,Right,0,71,110,203.375,0.239583,Sixteenth,B4
2011,Left,1,55,110,203.5,3.489583,DottedHalf,G3
2010,Right,0,72,110,203.5,0.239583,Sixteenth,C5
2012,Right,0,71,110,203.625,0.239583,Sixteenth,B4
2013,Right,0,70,110,203.75,0.239583,Sixteenth,A#4
2014,Right,0,71,110,203.875,0.239583,Sixteenth,B4
2015,Right,0,65,110,204.0,0.239583,Sixteenth,F4
2016,Right,0,71,110,204.125,0.239583,Sixteenth,B4
2017,Right,0,74,110,204.25,0.239583,Sixteenth,D5
2018,Right,0,77,110,204.375,0.239583,Sixteenth,F5
2019,Left,1,62,110,204.5,0.489583,Eighth,D4
2020,Right,0,79,110,204.5,0.239583,Sixteenth,G5
2021,Right,0,77,110,204.625,0.239583,Sixteenth,F5
2022,Right,0,76,110,204.75,0.239583,Sixteenth,E5
2023,Right,0,77,110,204.875,0.239583,Sixteenth,F5
2025,Right,0,63,110,205.0,0.239583,Sixteenth,D#4
2024,Left,1,60,110,205.0,0.489583,Eighth,C4
2026,Right,0,67,110,205.125,0.239583,Sixteenth,G4
2027,Right,0,72,110,205.25,0.239583,Sixteenth,C5
2028,Right,0,75,110,205.375,0.239583,Sixteenth,D#5
2029,Right,0,77,110,205.5,0.239583,Sixteenth,F5
2030,Left,1,67,110,205.5,0.489583,Eighth,G4
2031,Right,0,75,110,205.625,0.239583,Sixteenth,D#5
2032,Right,0,74,110,205.75,0.239583,Sixteenth,D5
2033,Right,0,75,110,205.875,0.239583,Sixteenth,D#5
2035,Left,1,63,110,206.0,0.489583,Eighth,D#4
2034,Right,0,72,110,206.0,0.239583,Sixteenth,C5
2036,Right,0,75,110,206.125,0.239583,Sixteenth,D#5
2037,Right,0,79,110,206.25,0.239583,Sixteenth,G5
2038,Right,0,84,110,206.375,0.239583,Sixteenth,C6
2039,Left,1,60,110,206.5,0.489583,Eighth,C4
2040,Right,0,86,110,206.5,0.239583,Sixteenth,D6
2041,Right,0,84,110,206.625,0.239583,Sixteenth,C6
2042,Right,0,83,110,206.75,0.239583,Sixteenth,B5
2043,Right,0,84,110,206.875,0.239583,Sixteenth,C6
2045,Left,1,43,110,207.0,3.989583,Whole,G2
2044,Right,0,71,110,207.0,0.239583,Sixteenth,B4
2046,Right,0,74,110,207.125,0.239583,Sixteenth,D5
2047,Right,0,79,110,207.25,0.239583,Sixteenth,G5
2048,Right,0,83,110,207.375,0.239583,Sixteenth,B5
2050,Left,1,55,110,207.5,1.989583,Half,G3
2049,Right,0,84,110,207.5,0.239583,Sixteenth,C6
2051,Right,0,83,110,207.625,0.239583,Sixteenth,B5
2052,Right,0,82,110,207.75,0.239583,Sixteenth,A#5
2053,Right,0,83,110,207.875,0.239583,Sixteenth,B5
2054,Right,0,77,110,208.0,0.239583,Sixteenth,F5
2055,Right,0,83,110,208.125,0.239583,Sixteenth,B5
2056,Right,0,86,110,208.25,0.239583,Sixteenth,D6
2057,Right,0,89,110,208.375,0.239583,Sixteenth,F6
2058,Left,1,47,110,208.5,0.989583,Quarter,B2
2059,Right,0,91,110,208.5,0.239583,Sixteenth,G6
2060,Right,0,89,110,208.625,0.239583,Sixteenth,F6
2061,Right,0,88,110,208.75,0.239583,Sixteenth,E6
2062,Right,0,89,110,208.875,0.239583,Sixteenth,F6
2063,Right,0,75,110,209.0,0.239583,Sixteenth,D#5
2064,Right,0,79,110,209.125,0.239583,Sixteenth,G5
2065,Right,0,84,110,209.25,0.239583,Sixteenth,C6
2066,Right,0,87,110,209.375,0.239583,Sixteenth,D#6
2067,Left,1,55,110,209.5,1.989583,Half,G3
2068,Right,0,89,110,209.5,0.239583,Sixteenth,F6
2069,Right,0,87,110,209.625,0.239583,Sixteenth,D#6
2070,Right,0,86,110,209.75,0.239583,Sixteenth,D6
2071,Right,0,87,110,209.875,0.239583,Sixteenth,D#6
2073,Right,0,72,110,210.0,0.239583,Sixteenth,C5
2072,Left,1,51,110,210.0,0.489583,Eighth,D#3
2074,Right,0,75,110,210.125,0.239583,Sixteenth,D#5
2075,Right,0,79,110,210.25,0.239583,Sixteenth,G5
2076,Right,0,84,110,210.375,0.239583,Sixteenth,C6
2077,Right,0,86,110,210.5,0.239583,Sixteenth,D6
2078,Left,1,48,110,210.5,0.489583,Eighth,C3
2079,Right,0,84,110,210.625,0.239583,Sixteenth,C6
2080,Right,0,83,110,210.75,0.239583,Sixteenth,B5
2081,Right,0,84,110,210.875,0.239583,Sixteenth,C6
2082,Right,0,83,110,211.0,0.239583,Sixteenth,B5
2083,Left,1,43,110,211.0,0.489583,Eighth,G2
2084,Right,0,86,110,211.125,0.239583,Sixteenth,D6
2085,Right,0,84,110,211.25,0.239583,Sixteenth,C6
2086,Right,0,83,110,211.375,0.239583,Sixteenth,B5
2087,Right,0,80,110,211.5,0.239583,Sixteenth,G#5
2088,Right,0,79,110,211.625,0.239583,Sixteenth,G5
2089,Right,0,77,110,211.75,0.239583,Sixteenth,F5
2090,Right,0,75,110,211.875,0.239583,Sixteenth,D#5
2091,Right,0,74,110,212.0,0.239583,Sixteenth,D5
2092,Right,0,72,110,212.125,0.239583,Sixteenth,C5
2093,Right,0,71,110,212.25,0.239583,Sixteenth,B4
2094,Right,0,68,110,212.375,0.239583,Sixteenth,G#4
2095,Right,0,67,110,212.5,0.239583,Sixteenth,G4
2096,Right,0,65,110,212.625,0.239583,Sixteenth,F4
2097,Right,0,63,110,212.75,0.239583,Sixteenth,D#4
2098,Right,0,62,110,212.875,0.114583,ThirtySecond,D4
2099,Left,1,36,110,213.0,0.239583,Sixteenth,C2
2100,Right,0,51,120,213.0,0.989583,Quarter,G3_D#3_C4
2103,Left,1,39,110,213.125,0.239583,Sixteenth,D#2
2104,Left,1,43,110,213.25,0.239583,Sixteenth,G2
2105,Left,1,48,110,213.375,0.239583,Sixteenth,C3
2106,Left,1,50,110,213.5,0.239583,Sixteenth,D3
2107,Left,1,48,110,213.625,0.239583,Sixteenth,C3
2108,Left,1,47,110,213.75,0.239583,Sixteenth,B2
2109,Left,1,48,110,213.875,0.239583,Sixteenth,C3
2110,Left,1,36,110,214.0,0.239583,Sixteenth,C2
2111,Left,1,39,110,214.125,0.239583,Sixteenth,D#2
2112,Left,1,43,110,214.25,0.239583,Sixteenth,G2
2113,Left,1,48,110,214.375,0.239583,Sixteenth,C3
2114,Right,0,67,120,214.5,0.489583,Eighth,G4_D#5_D#4_C5
2115,Left,1,50,110,214.5,0.239583,Sixteenth,D3
2119,Left,1,48,110,214.625,0.239583,Sixteenth,C3
2120,Left,1,47,110,214.75,0.239583,Sixteenth,B2
2121,Left,1,48,110,214.875,0.239583,Sixteenth,C3
2122,Right,0,75,120,215.0,0.989583,Quarter,G5_G4_D#5_C5
2125,Left,1,36,110,215.0,0.239583,Sixteenth,C2
2127,Left,1,39,110,215.125,0.239583,Sixteenth,D#2
2128,Left,1,43,110,215.25,0.239583,Sixteenth,G2
2129,Left,1,48,110,215.375,0.239583,Sixteenth,C3
2130,Left,1,50,110,215.5,0.239583,Sixteenth,D3
2131,Left,1,48,110,215.625,0.239583,Sixteenth,C3
2132,Left,1,47,110,215.75,0.239583,Sixteenth,B2
2133,Left,1,48,110,215.875,0.239583,Sixteenth,C3
2134,Left,1,36,110,216.0,0.239583,Sixteenth,C2
2135,Left,1,39,110,216.125,0.239583,Sixteenth,D#2
2136,Left,1,43,110,216.25,0.239583,Sixteenth,G2
2137,Left,1,48,110,216.375,0.239583,Sixteenth,C3
2139,Left,1,50,110,216.5,0.239583,Sixteenth,D3
2138,Right,0,84,120,216.5,0.489583,Eighth,G5_D#5_C6_C5
2143,Left,1,48,110,216.625,0.239583,Sixteenth,C3
2144,Left,1,47,110,216.75,0.239583,Sixteenth,B2
2145,Left,1,48,110,216.875,0.239583,Sixteenth,C3
2147,Left,1,34,120,217.0,0.989583,Quarter,A#2_A#1
2146,Right,0,60,110,217.0,0.239583,Sixteenth,C4
2149,Right,0,64,110,217.125,0.239583,Sixteenth,E4
2150,Right,0,67,110,217.25,0.239583,Sixteenth,G4
2151,Right,0,72,110,217.375,0.239583,Sixteenth,C5
2152,Right,0,73,110,217.5,0.239583,Sixteenth,C#5
2153,Right,0,72,110,217.625,0.239583,Sixteenth,C5
2154,Right,0,71,110,217.75,0.239583,Sixteenth,B4
2155,Right,0,72,110,217.875,0.239583,Sixteenth,C5
2156,Right,0,64,110,218.0,0.239583,Sixteenth,E4
2157,Right,0,67,110,218.125,0.239583,Sixteenth,G4
2158,Right,0,72,110,218.25,0.239583,Sixteenth,C5
2159,Right,0,76,110,218.375,0.239583,Sixteenth,E5
2161,Left,1,58,120,218.5,0.489583,Eighth,G3_E3_A#3_A#2
2160,Right,0,77,110,218.5,0.239583,Sixteenth,F5
2165,Right,0,76,110,218.625,0.239583,Sixteenth,E5
2166,Right,0,75,110,218.75,0.239583,Sixteenth,D#5
2167,Right,0,76,110,218.875,0.239583,Sixteenth,E5
2168,Right,0,67,110,219.0,0.239583,Sixteenth,G4
2169,Left,1,46,120,219.0,0.989583,Quarter,A#2_A#1
2171,Right,0,72,110,219.125,0.239583,Sixteenth,C5
2172,Right,0,76,110,219.25,0.239583,Sixteenth,E5
2173,Right,0,79,110,219.375,0.239583,Sixteenth,G5
2174,Right,0,80,110,219.5,0.239583,Sixteenth,G#5
2175,Right,0,79,110,219.625,0.239583,Sixteenth,G5
2176,Right,0,78,110,219.75,0.239583,Sixteenth,F#5
2177,Right,0,79,110,219.875,0.239583,Sixteenth,G5
2178,Right,0,72,110,220.0,0.239583,Sixteenth,C5
2179,Right,0,76,110,220.125,0.239583,Sixteenth,E5
2180,Right,0,79,110,220.25,0.239583,Sixteenth,G5
2181,Right,0,84,110,220.375,0.239583,Sixteenth,C6
2183,Left,1,58,120,220.5,0.489583,Eighth,G3_E3_A#3_A#2
2182,Right,0,85,110,220.5,0.239583,Sixteenth,C#6
2187,Right,0,84,110,220.625,0.239583,Sixteenth,C6
2188,Right,0,83,110,220.75,0.239583,Sixteenth,B5
2189,Right,0,84,110,220.875,0.239583,Sixteenth,C6
2190,Left,1,56,120,221.0,0.489583,Eighth,G#3_G#2_F3_C3
2191,Right,0,72,110,221.0,0.239583,Sixteenth,C5
2195,Right,0,77,110,221.125,0.239583,Sixteenth,F5
2196,Right,0,80,110,221.25,0.239583,Sixteenth,G#5
2197,Right,0,84,110,221.375,0.239583,Sixteenth,C6
2198,Right,0,86,110,221.5,0.239583,Sixteenth,D6
2199,Right,0,84,110,221.625,0.239583,Sixteenth,C6
2200,Right,0,83,110,221.75,0.239583,Sixteenth,B5
2201,Right,0,84,110,221.875,0.239583,Sixteenth,C6
2203,Right,0,68,110,222.0,0.239583,Sixteenth,G#4
2202,Left,1,53,110,222.0,0.239583,Sixteenth,F3
2205,Right,0,72,110,222.125,0.239583,Sixteenth,C5
2204,Left,1,56,110,222.125,0.239583,Sixteenth,G#3
2207,Right,0,77,110,222.25,0.239583,Sixteenth,F5
2206,Left,1,60,110,222.25,0.239583,Sixteenth,C4
2208,Left,1,65,110,222.375,0.239583,Sixteenth,F4
2209,Right,0,80,110,222.375,0.239583,Sixteenth,G#5
2210,Left,1,67,110,222.5,0.239583,Sixteenth,G4
2211,Right,0,82,110,222.5,0.239583,Sixteenth,A#5
2213,Left,1,65,110,222.625,0.239583,Sixteenth,F4
2212,Right,0,80,110,222.625,0.239583,Sixteenth,G#5
2214,Left,1,64,110,222.75,0.239583,Sixteenth,E4
2215,Right,0,79,110,222.75,0.239583,Sixteenth,G5
2217,Left,1,65,110,222.875,0.239583,Sixteenth,F4
2216,Right,0,80,110,222.875,0.239583,Sixteenth,G#5
2218,Left,1,50,110,223.0,0.239583,Sixteenth,D3
2219,Right,0,65,110,223.0,0.239583,Sixteenth,F4
2220,Left,1,53,110,223.125,0.239583,Sixteenth,F3
2221,Right,0,71,110,223.125,0.239583,Sixteenth,B4
2223,Right,0,74,110,223.25,0.239583,Sixteenth,D5
2222,Left,1,59,110,223.25,0.239583,Sixteenth,B3
2224,Left,1,62,110,223.375,0.239583,Sixteenth,D4
2225,Right,0,77,110,223.375,0.239583,Sixteenth,F5
2226,Right,0,79,110,223.5,0.239583,Sixteenth,G5
2227,Left,1,63,110,223.5,0.239583,Sixteenth,D#4
2228,Right,0,77,110,223.625,0.239583,Sixteenth,F5
2229,Left,1,62,110,223.625,0.239583,Sixteenth,D4
2230,Left,1,61,110,223.75,0.239583,Sixteenth,C#4
2231,Right,0,76,110,223.75,0.239583,Sixteenth,E5
2233,Left,1,62,110,223.875,0.239583,Sixteenth,D4
2232,Right,0,77,110,223.875,0.239583,Sixteenth,F5
2234,Left,1,47,110,224.0,0.239583,Sixteenth,B2
2235,Right,0,62,110,224.0,0.239583,Sixteenth,D4
2237,Left,1,50,110,224.125,0.239583,Sixteenth,D3
2236,Right,0,67,110,224.125,0.239583,Sixteenth,G4
2239,Right,0,71,110,224.25,0.239583,Sixteenth,B4
2238,Left,1,55,110,224.25,0.239583,Sixteenth,G3
2241,Left,1,59,110,224.375,0.239583,Sixteenth,B3
2240,Right,0,74,110,224.375,0.239583,Sixteenth,D5
2242,Right,0,75,110,224.5,0.239583,Sixteenth,D#5
2243,Left,1,60,110,224.5,0.239583,Sixteenth,C4
2244,Right,0,74,110,224.625,0.239583,Sixteenth,D5
2245,Left,1,59,110,224.625,0.239583,Sixteenth,B3
2247,Right,0,73,110,224.75,0.239583,Sixteenth,C#5
2246,Left,1,58,110,224.75,0.239583,Sixteenth,A#3
2248,Right,0,74,110,224.875,0.239583,Sixteenth,D5
2249,Left,1,59,110,224.875,0.239583,Sixteenth,B3
2250,Left,1,60,110,225.0,0.489583,Eighth,G3_D#3_C4_C3
2254,Right,0,67,110,225.125,0.239583,Sixteenth,G4
2255,Right,0,72,110,225.25,0.239583,Sixteenth,C5
2256,Right,0,75,110,225.375,0.239583,Sixteenth,D#5
2257,Left,1,53,110,225.5,0.489583,Eighth,G#3_F3_D4
2260,Right,0,68,110,225.625,0.239583,Sixteenth,G#4
2261,Right,0,74,110,225.75,0.239583,Sixteenth,D5
2262,Right,0,77,110,225.875,0.239583,Sixteenth,F5
2263,Left,1,60,110,226.0,0.489583,Eighth,G3_D#4_C4
2266,Right,0,67,110,226.125,0.239583,Sixteenth,G4
2267,Right,0,72,110,226.25,0.239583,Sixteenth,C5
2268,Right,0,75,110,226.375,0.239583,Sixteenth,D#5
2269,Left,1,62,110,226.5,0.489583,Eighth,G3_D4_B3
2272,Right,0,65,110,226.625,0.239583,Sixteenth,F4
2273,Right,0,71,110,226.75,0.239583,Sixteenth,B4
2274,Right,0,74,110,226.875,0.239583,Sixteenth,D5
2275,Right,0,60,110,227.0,0.239583,Sixteenth,C4
2276,Right,0,63,110,227.125,0.239583,Sixteenth,D#4
2277,Right,0,67,110,227.25,0.239583,Sixteenth,G4
2278,Right,0,72,110,227.375,0.239583,Sixteenth,C5
2279,Right,0,74,110,227.5,0.239583,Sixteenth,D5
2280,Right,0,72,110,227.625,0.239583,Sixteenth,C5
2281,Right,0,71,110,227.75,0.239583,Sixteenth,B4
2282,Left,1,56,110,228.0,0.239583,Sixteenth,G#3
2283,Right,0,72,110,228.0,0.114583,ThirtySecond,C5
2285,Left,1,60,110,228.125,0.239583,Sixteenth,C4
2284,Right,0,77,110,228.125,0.239583,Sixteenth,F5
2286,Right,0,80,110,228.25,0.239583,Sixteenth,G#5
2287,Left,1,65,110,228.25,0.239583,Sixteenth,F4
2289,Left,1,68,110,228.375,0.239583,Sixteenth,G#4
2288,Right,0,84,110,228.375,0.239583,Sixteenth,C6
2290,Left,1,70,110,228.5,0.239583,Sixteenth,A#4
2291,Right,0,86,110,228.5,0.239583,Sixteenth,D6
2293,Right,0,84,110,228.625,0.239583,Sixteenth,C6
2292,Left,1,68,110,228.625,0.239583,Sixteenth,G#4
2295,Right,0,83,110,228.75,0.239583,Sixteenth,B5
2294,Left,1,67,110,228.75,0.239583,Sixteenth,G4
2297,Right,0,84,110,228.875,0.239583,Sixteenth,C6
2296,Left,1,68,110,228.875,0.239583,Sixteenth,G#4
2299,Left,1,53,110,229.0,0.239583,Sixteenth,F3
2298,Right,0,68,110,229.0,0.239583,Sixteenth,G#4
2300,Left,1,56,110,229.125,0.239583,Sixteenth,G#3
2301,Right,0,72,110,229.125,0.239583,Sixteenth,C5
2302,Left,1,60,110,229.25,0.239583,Sixteenth,C4
2303,Right,0,77,110,229.25,0.239583,Sixteenth,F5
2305,Right,0,80,110,229.375,0.239583,Sixteenth,G#5
2304,Left,1,65,110,229.375,0.239583,Sixteenth,F4
2306,Left,1,67,110,229.5,0.239583,Sixteenth,G4
2307,Right,0,82,110,229.5,0.239583,Sixteenth,A#5
2308,Right,0,80,110,229.625,0.239583,Sixteenth,G#5
2309,Left,1,65,110,229.625,0.239583,Sixteenth,F4
2310,Right,0,79,110,229.75,0.239583,Sixteenth,G5
2311,Left,1,64,110,229.75,0.239583,Sixteenth,E4
2312,Right,0,80,110,229.875,0.239583,Sixteenth,G#5
2313,Left,1,65,110,229.875,0.239583,Sixteenth,F4
2314,Right,0,65,110,230.0,0.239583,Sixteenth,F4
2315,Left,1,50,110,230.0,0.239583,Sixteenth,D3
2316,Right,0,71,110,230.125,0.239583,Sixteenth,B4
2317,Left,1,53,110,230.125,0.239583,Sixteenth,F3
2318,Right,0,74,110,230.25,0.239583,Sixteenth,D5
2319,Left,1,59,110,230.25,0.239583,Sixteenth,B3
2321,Right,0,77,110,230.375,0.239583,Sixteenth,F5
2320,Left,1,62,110,230.375,0.239583,Sixteenth,D4
2323,Right,0,79,110,230.5,0.239583,Sixteenth,G5
2322,Left,1,63,110,230.5,0.239583,Sixteenth,D#4
2324,Right,0,77,110,230.625,0.239583,Sixteenth,F5
2325,Left,1,62,110,230.625,0.239583,Sixteenth,D4
2326,Right,0,76,110,230.75,0.239583,Sixteenth,E5
2327,Left,1,61,110,230.75,0.239583,Sixteenth,C#4
2329,Left,1,62,110,230.875,0.239583,Sixteenth,D4
2328,Right,0,77,110,230.875,0.239583,Sixteenth,F5
2330,Left,1,47,110,231.0,0.489583,Eighth,B2
2331,Right,0,65,110,231.0,0.239583,Sixteenth,F4
2332,Right,0,68,109,231.125,0.239583,Sixteenth,G#4
2333,Right,0,73,108,231.25,0.239583,Sixteenth,C#5
2334,Right,0,74,108,231.375,0.239583,Sixteenth,D5
2335,Right,0,75,107,231.5,0.239583,Sixteenth,D#5
2336,Right,0,74,106,231.625,0.239583,Sixteenth,D5
2337,Right,0,73,105,231.75,0.239583,Sixteenth,C#5
2338,Right,0,74,105,231.875,0.239583,Sixteenth,D5
2339,Right,0,65,104,232.0,0.239583,Sixteenth,F4
2340,Right,0,68,103,232.125,0.239583,Sixteenth,G#4
2341,Right,0,73,103,232.25,0.239583,Sixteenth,C#5
2342,Right,0,74,102,232.375,0.239583,Sixteenth,D5
2343,Right,0,75,101,232.5,0.239583,Sixteenth,D#5
2344,Right,0,74,100,232.625,0.239583,Sixteenth,D5
2345,Right,0,73,100,232.75,0.239583,Sixteenth,C#5
2346,Right,0,74,99,232.875,0.239583,Sixteenth,D5
2347,Right,0,65,98,233.0,0.239583,Sixteenth,F4
2348,Right,0,68,97,233.125,0.239583,Sixteenth,G#4
2349,Right,0,73,97,233.25,0.239583,Sixteenth,C#5
2350,Right,0,74,96,233.375,0.239583,Sixteenth,D5
2351,Right,0,75,95,233.5,0.239583,Sixteenth,D#5
2352,Right,0,74,95,233.625,0.239583,Sixteenth,D5
2353,Right,0,73,94,233.75,0.239583,Sixteenth,C#5
2354,Right,0,74,93,233.875,0.239583,Sixteenth,D5
2355,Right,0,65,92,234.0,0.239583,Sixteenth,F4
2356,Right,0,68,92,234.125,0.239583,Sixteenth,G#4
2357,Right,0,73,91,234.25,0.239583,Sixteenth,C#5
2358,Right,0,74,90,234.375,0.239583,Sixteenth,D5
2359,Right,0,75,89,234.5,0.239583,Sixteenth,D#5
2360,Right,0,74,89,234.625,0.239583,Sixteenth,D5
2361,Right,0,73,88,234.75,0.239583,Sixteenth,C#5
2362,Right,0,74,87,234.875,0.239583,Sixteenth,D5
2363,Left,1,46,87,235.0,0.489583,Eighth,A#2_A#1
2365,Right,0,65,87,235.0,0.239583,Sixteenth,F4
2366,Right,0,68,86,235.125,0.239583,Sixteenth,G#4
2367,Right,0,73,85,235.25,0.239583,Sixteenth,C#5
2368,Right,0,74,84,235.375,0.239583,Sixteenth,D5
2369,Right,0,75,84,235.5,0.239583,Sixteenth,D#5
2370,Right,0,74,83,235.625,0.239583,Sixteenth,D5
2371,Right,0,73,82,235.75,0.239583,Sixteenth,C#5
2372,Right,0,74,81,235.875,0.239583,Sixteenth,D5
2373,Right,0,65,81,236.0,0.239583,Sixteenth,F4
2374,Right,0,68,80,236.125,0.239583,Sixteenth,G#4
2375,Right,0,73,79,236.25,0.239583,Sixteenth,C#5
2376,Right,0,74,79,236.375,0.239583,Sixteenth,D5
2377,Right,0,75,78,236.5,0.239583,Sixteenth,D#5
2378,Right,0,74,77,236.625,0.239583,Sixteenth,D5
2379,Right,0,73,76,236.75,0.239583,Sixteenth,C#5
2380,Right,0,74,76,236.875,0.239583,Sixteenth,D5
2381,Right,0,65,75,237.0,0.239583,Sixteenth,F4
2382,Right,0,68,74,237.125,0.239583,Sixteenth,G#4
2383,Right,0,73,73,237.25,0.239583,Sixteenth,C#5
2384,Right,0,74,73,237.375,0.239583,Sixteenth,D5
2385,Right,0,75,72,237.5,0.239583,Sixteenth,D#5
2386,Right,0,74,71,237.625,0.239583,Sixteenth,D5
2387,Right,0,73,71,237.75,0.239583,Sixteenth,C#5
2388,Right,0,74,70,237.875,0.114583,ThirtySecond,D5
2389,Right,0,77,70,238.0,0.739583,DottedEighth,F5
2390,Right,0,75,70,238.75,0.239583,Sixteenth,D#5
2391,Left,1,46,80,239.0,0.239583,Sixteenth,A#2
2392,Right,0,65,80,239.0,1.489583,DottedQuarter,G#4_F4_D#5
2395,Left,1,58,80,239.25,0.239583,Sixteenth,A#3
2396,Left,1,58,80,239.5,0.239583,Sixteenth,A#3
2397,Right,0,74,80,239.5,0.739583,DottedEighth,D5
2398,Left,1,58,80,239.75,0.239583,Sixteenth,A#3
2399,Left,1,58,80,240.0,0.239583,Sixteenth,A#3
2401,Left,1,58,80,240.25,0.239583,Sixteenth,A#3
2400,Right,0,77,80,240.25,0.239583,Sixteenth,F5
2404,Left,1,63,80,240.5,0.489583,Eighth,D#4
2402,Right,0,75,80,240.5,0.489583,Sixteenth,G4_D#5
2405,Right,0,72,80,240.75,0.239583,Sixteenth,C5
2406,Left,1,58,80,240.75,0.239583,Sixteenth,A#3
2409,Left,1,62,80,241.0,0.989583,Quarter,D4
2407,Right,0,72,80,241.0,0.989583,Eighth,F4_C5
2410,Left,1,58,80,241.25,0.239583,Sixteenth,A#3
2412,Right,0,70,80,241.5,0.739583,DottedEighth,A#4
2411,Left,1,58,80,241.5,0.239583,Sixteenth,A#3
2413,Left,1,58,80,241.75,0.239583,Sixteenth,A#3
2414,Left,1,58,80,242.0,0.239583,Sixteenth,A#3
2415,Left,1,58,80,242.25,0.239583,Sixteenth,A#3
2416,Right,0,71,80,242.25,0.239583,Sixteenth,B4
2417,Left,1,50,80,242.5,0.239583,Sixteenth,D3
2418,Right,0,72,80,242.5,0.489583,Sixteenth,F4_C5
2420,Left,1,58,80,242.75,0.239583,Sixteenth,A#3
2421,Right,0,68,80,242.75,0.239583,Sixteenth,G#4
2423,Right,0,68,80,243.0,0.239583,Sixteenth,G#4
2422,Left,1,51,80,243.0,0.239583,Sixteenth,D#3
2424,Right,0,67,80,243.25,0.239583,Sixteenth,G4
2425,Left,1,58,80,243.25,0.239583,Sixteenth,A#3
2427,Right,0,70,80,243.5,0.239583,Sixteenth,A#4
2426,Left,1,55,80,243.5,0.239583,Sixteenth,G3
2429,Right,0,63,80,243.75,0.239583,Sixteenth,D#4
2428,Left,1,58,80,243.75,0.239583,Sixteenth,A#3
2431,Right,0,63,80,244.0,0.239583,Sixteenth,D#4
2430,Left,1,53,80,244.0,0.239583,Sixteenth,G#3_F3
2434,Left,1,58,80,244.25,0.239583,Sixteenth,A#3
2433,Right,0,62,80,244.25,0.239583,Sixteenth,D4
2436,Right,0,65,80,244.5,0.239583,Sixteenth,F4
2435,Left,1,55,80,244.5,0.239583,Sixteenth,G3_D#3
2439,Left,1,58,80,244.75,0.239583,Sixteenth,A#3
2438,Right,0,63,80,244.75,0.739583,DottedEighth,D#4
2440,Right,0,67,80,245.0,0.489583,Eighth,G4
2441,Left,1,46,80,245.0,0.239583,Sixteenth,A#2
2442,Left,1,58,80,245.25,0.239583,Sixteenth,A#3
2444,Left,1,58,80,245.5,0.239583,Sixteenth,A#3
2443,Right,0,62,80,245.5,0.489583,Eighth,F4_D4
2446,Left,1,58,80,245.75,0.239583,Sixteenth,A#3
2449,Right,0,77,80,246.0,0.739583,DottedEighth,F5
2447,Left,1,68,80,246.0,0.239583,Sixteenth,G#4_C5
2450,Left,1,58,80,246.25,0.239583,Sixteenth,A#3
2451,Left,1,70,80,246.5,0.239583,Sixteenth,G4_A#4
2453,Left,1,58,80,246.75,0.239583,Sixteenth,A#3
2454,Right,0,75,80,246.75,0.239583,Sixteenth,D#5
2455,Left,1,65,80,247.0,0.989583,Sixteenth,G#4_F4
2457,Right,0,74,80,247.0,0.052083,SixtyFourth,D5
2458,Right,0,75,80,247.0625,0.052083,SixtyFourth,D#5
2459,Right,0,77,80,247.125,0.052083,SixtyFourth,F5
2460,Right,0,75,80,247.1875,0.302083,Triplet,D#5
2461,Left,1,58,80,247.25,0.239583,Sixteenth,A#3
2462,Right,0,74,80,247.5,0.65625,DottedEighth,D5
2463,Left,1,58,80,247.5,0.239583,Sixteenth,A#3
2464,Left,1,58,80,247.75,0.239583,Sixteenth,A#3
2465,Left,1,65,80,248.0,0.489583,Sixteenth,G#4_F4
2467,Right,0,75,80,248.166667,0.15625,TripletSixteenth,D#5
2468,Left,1,58,80,248.25,0.239583,Sixteenth,A#3
2469,Right,0,74,80,248.333333,0.15625,TripletSixteenth,D5
2470,Left,1,63,80,248.5,0.489583,Sixteenth,G4_D#4
2472,Right,0,77,80,248.5,0.15625,TripletSixteenth,F5
2473,Right,0,75,80,248.666667,0.15625,TripletSixteenth,D#5
2474,Left,1,58,80,248.75,0.239583,Sixteenth,A#3
2475,Right,0,72,80,248.833333,0.15625,TripletSixteenth,C5
2478,Right,0,69,80,249.0,0.489583,Eighth,A4
2476,Left,1,65,80,249.0,0.989583,Quarter,F4_D4
2479,Left,1,58,80,249.25,0.239583,Sixteenth,A#3
2480,Left,1,58,80,249.5,0.239583,Sixteenth,A#3
2481,Right,0,70,80,249.5,0.65625,DottedEighth,A#4
2482,Left,1,58,80,249.75,0.239583,Sixteenth,A#3
2483,Left,1,58,80,250.0,0.239583,Sixteenth,A#3
2484,Right,0,72,80,250.166667,0.15625,TripletSixteenth,C5
2485,Left,1,58,80,250.25,0.239583,Sixteenth,A#3
2486,Right,0,71,80,250.333333,0.15625,TripletSixteenth,B4
2488,Right,0,74,80,250.5,0.15625,TripletSixteenth,D5
2487,Left,1,50,80,250.5,0.239583,Sixteenth,D3
2489,Right,0,72,80,250.666667,0.15625,TripletSixteenth,C5
2490,Left,1,58,80,250.75,0.239583,Sixteenth,A#3
2491,Right,0,68,80,250.833333,0.15625,TripletSixteenth,G#4
2493,Left,1,51,80,251.0,0.239583,Sixteenth,D#3
2492,Right,0,67,80,251.0,0.15625,TripletSixteenth,G4
2494,Right,0,68,80,251.166667,0.15625,TripletSixteenth,G#4
2495,Left,1,55,80,251.25,0.239583,Sixteenth,G3
2496,Right,0,67,80,251.333333,0.15625,TripletSixteenth,G4
2497,Right,0,70,80,251.5,0.489583,TripletSixteenth,C4_A#4
2499,Left,1,44,80,251.5,0.239583,Sixteenth,G#2
2500,Right,0,68,80,251.666667,0.15625,TripletSixteenth,G#4
2501,Left,1,56,80,251.75,0.239583,Sixteenth,G#3
2502,Right,0,65,80,251.833333,0.15625,TripletSixteenth,F4
2504,Right,0,63,80,252.0,0.489583,Sixteenth,G3_D#4
2503,Left,1,46,80,252.0,0.239583,Sixteenth,A#2
2507,Right,0,65,80,252.25,0.114583,ThirtySecond,F4
2506,Left,1,46,80,252.25,0.239583,Sixteenth,A#2
2508,Right,0,63,80,252.3125,0.114583,ThirtySecond,D#4
2509,Right,0,62,80,252.375,0.114583,ThirtySecond,D4
2510,Right,0,63,80,252.4375,0.052083,SixtyFourth,D#4
2511,Right,0,67,80,252.5,0.489583,Eighth,G4_G#3_D4
2514,Left,1,34,80,252.5,0.239583,Sixteenth,A#1
2516,Right,0,65,80,252.75,0.239583,Sixteenth,F4
2515,Left,1,46,80,252.75,0.239583,Sixteenth,A#2
2517,Right,0,63,80,253.0,0.489583,Eighth,G3_D#4
2519,Left,1,39,80,253.0,0.489583,Eighth,D#2
2520,Left,1,51,80,253.5,0.489583,Eighth,D#3
2521,Right,0,55,80,254.0,0.114583,ThirtySecond,G3
2522,Right,0,58,80,254.125,0.114583,ThirtySecond,A#3
2524,Left,1,58,80,254.25,0.239583,Sixteenth,A#3
2523,Right,0,63,80,254.25,0.114583,ThirtySecond,D#4
2525,Right,0,67,81,254.375,0.114583,ThirtySecond,G4
2526,Right,0,70,81,254.5,0.114583,ThirtySecond,A#4
2527,Left,1,55,81,254.5,0.489583,Eighth,G3
2528,Right,0,75,82,254.625,0.114583,ThirtySecond,D#5
2530,Left,1,58,82,254.75,0.239583,Sixteenth,A#3
2529,Right,0,79,82,254.75,0.114583,ThirtySecond,G5
2531,Right,0,77,83,254.875,0.114583,ThirtySecond,F5
2532,Right,0,75,83,255.0,0.489583,Eighth,D#5
2533,Left,1,56,83,255.0,0.489583,Eighth,G#3
2534,Left,1,58,84,255.25,0.239583,Sixteenth,A#3
2536,Left,1,53,85,255.5,0.489583,Eighth,F3
2535,Right,0,74,85,255.5,0.489583,Eighth,D5
2537,Left,1,58,86,255.75,0.239583,Sixteenth,A#3
2539,Right,0,75,87,256.0,0.239583,Sixteenth,D#5
2538,Left,1,55,87,256.0,0.489583,Eighth,G3
2541,Left,1,58,88,256.25,0.239583,Sixteenth,A#3
2540,Right,0,77,88,256.25,0.239583,Sixteenth,F5
2542,Right,0,79,89,256.5,0.239583,Sixteenth,G5
2543,Left,1,51,89,256.5,0.489583,Eighth,D#3
2544,Right,0,81,90,256.75,0.239583,Sixteenth,A5
2545,Left,1,58,90,256.75,0.239583,Sixteenth,A#3
2546,Left,1,46,91,257.0,0.239583,Sixteenth,A#2
2547,Right,0,84,91,257.0,0.489583,Eighth,C6
2548,Left,1,58,92,257.25,0.239583,Sixteenth,A#3
2550,Right,0,82,93,257.5,0.489583,Eighth,A#5
2549,Left,1,58,93,257.5,0.239583,Sixteenth,A#3
2551,Left,1,58,94,257.75,0.239583,Sixteenth,A#3
2552,Right,0,55,95,258.0,0.114583,ThirtySecond,G3
2553,Right,0,58,96,258.125,0.114583,ThirtySecond,A#3
2554,Left,1,58,96,258.25,0.239583,Sixteenth,A#3
2555,Right,0,63,96,258.25,0.114583,ThirtySecond,D#4
2556,Right,0,67,96,258.375,0.114583,ThirtySecond,G4
2557,Left,1,55,97,258.5,0.489583,Eighth,G3
2558,Right,0,70,97,258.5,0.114583,ThirtySecond,A#4
2559,Right,0,75,97,258.625,0.114583,ThirtySecond,D#5
2561,Right,0,79,98,258.75,0.114583,ThirtySecond,G5
2560,Left,1,58,98,258.75,0.239583,Sixteenth,A#3
2562,Right,0,77,98,258.875,0.114583,ThirtySecond,F5
2563,Right,0,75,99,259.0,0.489583,Eighth,D#5
2564,Left,1,56,99,259.0,0.489583,Eighth,G#3
2565,Left,1,58,100,259.25,0.239583,Sixteenth,A#3
2566,Right,0,74,101,259.5,0.114583,ThirtySecond,D5
2567,Left,1,53,101,259.5,0.489583,Eighth,F3
2568,Right,0,75,101,259.625,0.114583,ThirtySecond,D#5
2570,Left,1,58,102,259.75,0.239583,Sixteenth,A#3
2569,Right,0,72,102,259.75,0.114583,ThirtySecond,C5
2571,Right,0,74,102,259.875,0.114583,ThirtySecond,D5
2573,Right,0,75,103,260.0,0.239583,Sixteenth,D#5
2572,Left,1,55,103,260.0,0.489583,Eighth,G3
2575,Right,0,65,104,260.25,0.239583,Sixteenth,F5_F4
2574,Left,1,58,104,260.25,0.239583,Sixteenth,A#3
2578,Right,0,67,105,260.5,0.239583,Sixteenth,G5_G4
2577,Left,1,51,105,260.5,0.489583,Eighth,D#3
2581,Right,0,69,106,260.75,0.239583,Sixteenth,A5_A4
2580,Left,1,58,106,260.75,0.239583,Sixteenth,A#3
2583,Right,0,82,107,261.0,2.989583,DottedHalf,A#5_A#4
2585,Left,1,58,107,261.0,2.989583,DottedHalf,A#3_A#2
2587,Right,0,77,100,264.0,0.739583,DottedEighth,F6_F5
2588,Left,1,72,100,264.0,0.239583,Sixteenth,G#4_C5
2591,Left,1,58,100,264.25,0.239583,Sixteenth,A#3
2592,Left,1,70,100,264.5,0.239583,Sixteenth,G4_A#4
2595,Right,0,87,100,264.75,0.239583,Sixteenth,D#6_D#5
2594,Left,1,58,100,264.75,0.239583,Sixteenth,A#3
2598,Right,0,75,100,265.0,0.489583,Eighth,D#6_D#5
2597,Left,1,65,100,265.0,0.989583,Sixteenth,G#4_F4
2601,Left,1,58,100,265.25,0.239583,Sixteenth,A#3
2602,Left,1,58,100,265.5,0.239583,Sixteenth,A#3
2603,Right,0,86,100,265.5,0.739583,DottedEighth,D6_D5
2605,Left,1,58,100,265.75,0.239583,Sixteenth,A#3
2606,Left,1,68,100,266.0,0.489583,Eighth,G#4_F4
2608,Left,1,58,100,266.25,0.239583,Sixteenth,A#3
2609,Right,0,77,100,266.25,0.239583,Sixteenth,F6_F5
2611,Left,1,67,100,266.5,0.489583,Eighth,G4_D#4
2612,Right,0,87,100,266.5,0.239583,Sixteenth,D#6_D#5
2617,Left,1,58,100,266.75,0.239583,Sixteenth,A#3
2615,Right,0,72,100,266.75,0.239583,Sixteenth,C6_C5
2619,Left,1,65,100,267.0,0.989583,Quarter,F4_D4
2618,Right,0,69,100,267.0,0.489583,Eighth,A5_A4
2622,Left,1,58,100,267.25,0.239583,Sixteenth,A#3
2624,Left,1,58,100,267.5,0.239583,Sixteenth,A#3
2623,Right,0,82,100,267.5,0.739583,DottedEighth,A#5_A#4
2626,Left,1,58,100,267.75,0.239583,Sixteenth,A#3
2627,Left,1,58,100,268.0,0.239583,Sixteenth,A#3
2629,Left,1,58,100,268.25,0.239583,Sixteenth,A#3
2628,Right,0,83,100,268.25,0.239583,Sixteenth,B5_B4
2631,Right,0,84,100,268.5,0.239583,Sixteenth,C6_C5
2632,Left,1,62,100,268.5,0.239583,Sixteenth,D4_D3
2635,Right,0,80,100,268.75,0.239583,Sixteenth,G#5_G#4
2637,Left,1,58,100,268.75,0.239583,Sixteenth,A#3
2639,Left,1,63,100,269.0,0.239583,Sixteenth,D#4_D#3
2638,Right,0,79,100,269.0,0.239583,Sixteenth,G5_G4
2644,Left,1,55,100,269.25,0.239583,Sixteenth,G3
2642,Right,0,70,100,269.25,0.239583,Sixteenth,A#5_A#4
2645,Left,1,44,100,269.5,0.239583,Sixteenth,G#2
2646,Right,0,68,100,269.5,0.239583,Sixteenth,G#5_G#4
2649,Right,0,77,100,269.75,0.239583,Sixteenth,F5_F4
2648,Left,1,56,100,269.75,0.239583,Sixteenth,G#3
2652,Right,0,75,100,270.0,0.489583,Sixteenth,G4_D#5
2651,Left,1,46,100,270.0,0.239583,Sixteenth,A#2
2655,Right,0,77,100,270.25,0.114583,ThirtySecond,F5
2654,Left,1,58,100,270.25,0.239583,Sixteenth,A#3
2656,Right,0,75,100,270.3125,0.114583,ThirtySecond,D#5
2657,Right,0,74,100,270.375,0.114583,ThirtySecond,D5
2658,Right,0,75,100,270.4375,0.052083,SixtyFourth,D#5
2659,Right,0,79,100,270.5,0.489583,Eighth,G5_G#4_D5
2662,Left,1,34,100,270.5,0.239583,Sixteenth,A#1
2664,Right,0,77,100,270.75,0.239583,Sixteenth,F5
2663,Left,1,46,100,270.75,0.239583,Sixteenth,A#2
2666,Right,0,75,100,271.0,0.489583,Eighth,G4_D#5
2665,Left,1,39,100,271.0,0.489583,Eighth,D#2
2668,Left,1,51,100,271.5,0.489583,Eighth,D#3
2669,Left,1,31,111,272.0,0.1875,TripletSixteenth,G1
2670,Left,1,34,111,272.125,0.1875,TripletSixteenth,A#1
2671,Left,1,39,111,272.25,0.239583,TripletSixteenth,D#2_A#3
2673,Left,1,43,112,272.375,0.208333,Sixteenth,G2
2674,Left,1,46,110,272.5,0.239583,TripletSixteenth,A#3_A#2
2676,Left,1,51,110,272.625,0.197917,TripletSixteenth,D#3
2677,Left,1,55,111,272.75,0.239583,Sixteenth,G3_A#3
2679,Left,1,53,110,272.875,0.114583,ThirtySecond,F3
2680,Left,1,51,110,273.0,0.489583,Sixteenth,G#3_D#3_A#3
2683,Left,1,58,100,273.25,0.239583,Sixteenth,G#3_A#3
2685,Left,1,58,100,273.5,0.489583,Sixteenth,G#3_D3_A#3
2688,Left,1,56,100,273.75,0.239583,Sixteenth,G#3_A#3
2690,Left,1,55,100,274.0,0.239583,Sixteenth,G3_A#3
2692,Left,1,58,100,274.25,0.239583,Sixteenth,G3_A#3
2694,Left,1,58,100,274.5,0.239583,Sixteenth,G3_A#3
2696,Right,0,75,100,274.5,0.489583,Eighth,D#5
2697,Left,1,58,100,274.75,0.239583,Sixteenth,G3_A#3
2699,Left,1,58,100,275.0,0.239583,Sixteenth,G#3_A#3
2701,Right,0,75,100,275.0,0.489583,Eighth,D#5
2702,Left,1,56,100,275.25,0.239583,Sixteenth,G#3_A#3
2704,Left,1,58,100,275.5,0.239583,Sixteenth,G#3_A#3
2705,Right,0,74,100,275.5,0.489583,Eighth,D5
2707,Left,1,58,100,275.75,0.239583,Sixteenth,G#3_A#3
2709,Left,1,58,100,276.0,0.239583,Sixteenth,G3_G1_A#3
2712,Left,1,34,110,276.125,0.21875,Sixteenth,A#1
2713,Left,1,55,100,276.25,0.239583,Sixteenth,G3_D#2_A#3
2716,Left,1,43,111,276.375,0.21875,Sixteenth,G2
2717,Left,1,55,100,276.5,0.239583,Sixteenth,G3_A#3_A#2
2720,Left,1,51,110,276.625,0.208333,Sixteenth,D#3
2721,Left,1,55,110,276.75,0.239583,Sixteenth,G3_A#3
2723,Left,1,53,110,276.875,0.114583,ThirtySecond,F3
2724,Left,1,58,100,277.0,0.489583,Sixteenth,G#3_D#3_A#3
2727,Left,1,58,100,277.25,0.239583,Sixteenth,G#3_A#3
2729,Left,1,50,110,277.5,0.489583,Sixteenth,G#3_D3_A#3
2732,Left,1,56,100,277.75,0.239583,Sixteenth,G#3_A#3
2734,Left,1,55,100,278.0,0.239583,Sixteenth,G3_A#3
2736,Left,1,58,100,278.25,0.239583,Sixteenth,G3_A#3
2738,Right,0,75,100,278.5,0.489583,Eighth,D#5
2739,Left,1,55,100,278.5,0.239583,Sixteenth,G3_A#3
2741,Left,1,58,100,278.75,0.239583,Sixteenth,G3_A#3
2743,Right,0,76,100,279.0,0.489583,Eighth,E5
2744,Left,1,55,100,279.0,0.239583,Sixteenth,G3_C4_A#3
2747,Left,1,60,100,279.25,0.239583,Sixteenth,G3_C4_A#3
2750,Left,1,56,100,279.5,0.239583,Sixteenth,G#3_C4
2752,Right,0,77,100,279.5,0.489583,Eighth,F5
2753,Left,1,56,100,279.75,0.239583,Sixteenth,G#3_C4
2755,Left,1,56,100,280.0,0.239583,Sixteenth,G#3_C4
2757,Left,1,36,110,280.125,0.197917,TripletSixteenth,C2
2758,Left,1,60,100,280.25,0.239583,Sixteenth,G#3_F2_C4
2761,Left,1,44,110,280.375,0.21875,Sixteenth,G#2
2762,Left,1,48,110,280.5,0.239583,Sixteenth,G#3_C4_C3
2765,Left,1,53,110,280.625,0.239583,Sixteenth,F3
2766,Left,1,60,100,280.75,0.239583,Sixteenth,G#3_C4
2768,Left,1,55,110,280.875,0.114583,ThirtySecond,G3
2769,Left,1,53,110,281.0,0.489583,Sixteenth,F3_C4_A#3
2772,Left,1,58,100,281.25,0.239583,Sixteenth,C4_A#3
2774,Left,1,58,100,281.5,0.489583,Sixteenth,E3_C4_A#3
2777,Left,1,60,100,281.75,0.239583,Sixteenth,C4_A#3
2779,Left,1,56,100,282.0,0.239583,Sixteenth,G#3_C4
2781,Left,1,56,100,282.25,0.239583,Sixteenth,G#3_C4
2784,Left,1,60,100,282.5,0.239583,Sixteenth,G#3_C4
2783,Right,0,77,100,282.5,0.489583,Eighth,F5
2786,Left,1,56,100,282.75,0.239583,Sixteenth,G#3_C4
2788,Left,1,60,100,283.0,0.239583,Sixteenth,C4_A#3
2789,Right,0,77,100,283.0,0.489583,Eighth,F5
2791,Left,1,58,100,283.25,0.239583,Sixteenth,C4_A#3
2794,Right,0,76,100,283.5,0.489583,Eighth,E5
2793,Left,1,60,100,283.5,0.239583,Sixteenth,C4_A#3
2796,Left,1,58,100,283.75,0.239583,Sixteenth,C4_A#3
2798,Left,1,56,100,284.0,0.239583,Sixteenth,G#3_C4
2800,Left,1,56,100,284.25,0.239583,Sixteenth,G#3_F2_C4
2803,Left,1,56,100,284.5,0.239583,Sixteenth,G#3_F2_C4
2806,Left,1,41,100,284.75,0.239583,Sixteenth,G#3_F2_C4
2809,Left,1,40,100,285.0,0.239583,Sixteenth,E2_C4_A#3
2812,Left,1,41,100,285.125,0.114583,ThirtySecond,F2
2813,Left,1,43,100,285.25,0.239583,Sixteenth,G2_C4_A#3
2816,Left,1,41,100,285.375,0.114583,ThirtySecond,F2
2817,Left,1,58,100,285.5,0.489583,Sixteenth,E2_C4_A#3
2820,Left,1,58,100,285.75,0.239583,Sixteenth,C4_A#3
2822,Left,1,56,100,286.0,0.239583,Sixteenth,G#3_C4
2824,Left,1,56,100,286.25,0.239583,Sixteenth,G#3_F4_C4
2827,Right,0,77,100,286.25,0.239583,Sixteenth,F5
2828,Left,1,60,100,286.5,0.239583,Sixteenth,G#3_F4_C4
2831,Right,0,77,100,286.5,0.239583,Sixteenth,F5
2835,Right,0,77,100,286.75,0.239583,Sixteenth,F5
2832,Left,1,65,100,286.75,0.239583,Sixteenth,G#3_F4_C4
2837,Left,1,67,100,287.0,0.239583,Sixteenth,G4_C4_A#3
2836,Right,0,76,100,287.0,0.229167,Sixteenth,E5
2840,Right,0,77,100,287.125,0.21875,Sixteenth,F5
2842,Left,1,58,100,287.25,0.239583,Sixteenth,G4_C4_A#3
2841,Right,0,79,100,287.25,0.21875,Sixteenth,G5
2845,Right,0,77,100,287.375,0.229167,Sixteenth,F5
2846,Right,0,76,100,287.5,0.489583,Eighth,E5
2847,Left,1,58,100,287.5,0.239583,Sixteenth,G4_C4_A#3
2850,Left,1,67,100,287.75,0.239583,Sixteenth,G4_C4_A#3
2853,Left,1,56,100,288.0,0.239583,Sixteenth,G#3_F4_C4
2856,Left,1,41,100,288.25,0.239583,Sixteenth,G#3_F4_F2_C4
2860,Left,1,56,100,288.5,0.239583,Sixteenth,G#3_F4_F2_C4
2864,Left,1,56,100,288.75,0.239583,Sixteenth,G#3_F4_F2_C4
2868,Left,1,38,100,289.0,0.239583,Sixteenth,G#3_F4_D2_A#3
2872,Left,1,39,100,289.125,0.239583,Sixteenth,D#2
2873,Left,1,65,100,289.25,0.239583,Sixteenth,G#3_F4_F2_A#3
2877,Left,1,39,100,289.375,0.21875,Sixteenth,D#2
2878,Left,1,56,100,289.5,0.489583,Sixteenth,G#3_F4_D2_A#3
2882,Left,1,56,100,289.75,0.239583,Sixteenth,G#3_F4_A#3
2885,Left,1,55,100,290.0,0.239583,Sixteenth,G3_D#4_A#3
2888,Left,1,58,100,290.25,0.239583,Sixteenth,G3_D#4_A#3
2889,Right,0,75,110,290.25,0.239583,Sixteenth,D#5
2892,Left,1,55,100,290.5,0.239583,Sixteenth,G3_D#4_A#3
2894,Right,0,75,110,290.5,0.239583,Sixteenth,D#5
2896,Left,1,63,100,290.75,0.239583,Sixteenth,G3_D#4_A#3
2899,Right,0,75,110,290.75,0.239583,Sixteenth,D#5
2900,Left,1,58,100,291.0,0.239583,Sixteenth,G#3_F4_A#3
2903,Right,0,74,110,291.0,0.239583,Sixteenth,D5
2904,Right,0,75,110,291.125,0.208333,Sixteenth,D#5
2905,Right,0,77,110,291.25,0.208333,Sixteenth,F5
2906,Left,1,65,100,291.25,0.239583,Sixteenth,G#3_F4_A#3
2909,Right,0,75,110,291.375,0.239583,Sixteenth,D#5
2913,Right,0,74,110,291.5,0.489583,Eighth,D5
2910,Left,1,58,100,291.5,0.239583,Sixteenth,G#3_F4_A#3
2914,Left,1,56,100,291.75,0.239583,Sixteenth,G#3_F4_A#3
2917,Left,1,63,110,292.0,0.239583,Sixteenth,G3_D#4_A#3
2920,Left,1,39,110,292.25,0.239583,Sixteenth,G3_D#4_D#2_A#3
2924,Left,1,63,110,292.5,0.239583,Sixteenth,G3_D#4_D#2_A#3
2928,Left,1,58,110,292.75,0.239583,Sixteenth,G3_D#4_D#2_A#3
2934,Left,1,38,110,293.0,0.197917,TripletSixteenth,D2
2932,Right,0,58,110,293.0,0.989583,Quarter,G#4_G#3_A#3
2936,Left,1,39,110,293.125,0.239583,Sixteenth,D#2
2937,Left,1,41,110,293.25,0.21875,Sixteenth,F2
2938,Left,1,39,110,293.375,0.229167,Sixteenth,D#2
2939,Left,1,38,110,293.5,0.239583,Sixteenth,D2
2940,Left,1,34,110,293.75,0.239583,Sixteenth,A#1
2941,Right,0,55,110,294.0,0.989583,Quarter,G4_G3_A#3
2944,Left,1,39,110,294.0,0.239583,Sixteenth,D#2
2945,Left,1,41,110,294.125,0.208333,Sixteenth,F2
2946,Left,1,43,110,294.25,0.208333,Sixteenth,G2
2947,Left,1,41,110,294.375,0.239583,Sixteenth,F2
2948,Left,1,39,110,294.5,0.239583,Sixteenth,D#2
2949,Left,1,34,110,294.75,0.239583,Sixteenth,A#1
2951,Left,1,41,110,295.0,0.989583,Quarter,G#2_F2_D3_A#2
2950,Right,0,62,110,295.0,0.197917,TripletSixteenth,D4
2955,Right,0,63,110,295.125,0.21875,Sixteenth,D#4
2956,Right,0,65,110,295.25,0.197917,TripletSixteenth,F4
2957,Right,0,63,110,295.375,0.197917,TripletSixteenth,D#4
2958,Right,0,62,110,295.5,0.239583,Sixteenth,D4
2959,Right,0,58,110,295.75,0.239583,Sixteenth,A#3
2960,Right,0,63,110,296.0,0.208333,Sixteenth,D#4
2961,Left,1,46,110,296.0,0.739583,DottedEighth,G2_D#3_A#2
2964,Right,0,65,110,296.125,0.208333,Sixteenth,F4
2965,Right,0,67,110,296.25,0.1875,TripletSixteenth,G4
2966,Right,0,65,110,296.375,0.208333,Sixteenth,F4
2967,Right,0,63,110,296.5,0.239583,Sixteenth,D#4
2969,Right,0,58,110,296.75,0.239583,Sixteenth,A#4_A#3
2968,Left,1,46,110,296.75,0.239583,Sixteenth,A#2
2974,Left,1,50,110,297.0,0.208333,Sixteenth,D3
2971,Right,0,80,110,297.0,0.989583,Quarter,G#5_G#4_A#4
2975,Left,1,51,110,297.125,0.239583,Sixteenth,D#3
2976,Left,1,53,110,297.25,0.208333,Sixteenth,F3
2977,Left,1,51,110,297.375,0.177083,TripletSixteenth,D#3
2978,Left,1,50,110,297.5,0.239583,Sixteenth,D3
2979,Left,1,46,110,297.75,0.239583,Sixteenth,A#2
2983,Left,1,51,110,298.0,0.229167,Sixteenth,D#3
2980,Right,0,67,110,298.0,0.739583,DottedEighth,G5_G4_A#4
2984,Left,1,53,110,298.125,0.21875,Sixteenth,F3
2985,Left,1,55,110,298.25,0.21875,Sixteenth,G3
2986,Left,1,53,110,298.375,0.21875,Sixteenth,F3
2987,Left,1,51,110,298.5,0.239583,Sixteenth,D#3
2989,Left,1,46,110,298.75,0.239583,Sixteenth,A#2
2988,Right,0,70,110,298.75,0.239583,Sixteenth,A#4
2991,Left,1,53,110,299.0,0.989583,Quarter,G#3_F3_D4_A#3
2990,Right,0,74,110,299.0,0.197917,TripletSixteenth,D5
2995,Right,0,75,110,299.125,0.229167,Sixteenth,D#5
2996,Right,0,77,110,299.25,0.21875,Sixteenth,F5
2997,Right,0,75,110,299.375,0.21875,Sixteenth,D#5
2998,Right,0,74,110,299.5,0.239583,Sixteenth,D5
2999,Right,0,70,110,299.75,0.239583,Sixteenth,A#4
3001,Right,0,75,110,300.0,0.208333,Sixteenth,D#5
3000,Left,1,63,110,300.0,0.739583,DottedEighth,G3_D#4_A#3
3004,Right,0,77,110,300.125,0.208333,Sixteenth,F5
3005,Right,0,79,110,300.25,0.208333,Sixteenth,G5
3006,Right,0,77,110,300.375,0.197917,TripletSixteenth,F5
3007,Right,0,75,110,300.5,0.239583,Sixteenth,D#5
3008,Right,0,76,110,300.75,0.239583,Sixteenth,E5_E4
3010,Left,1,55,110,300.75,0.239583,Sixteenth,G3_C#4_A#3
3014,Right,0,77,100,301.0,0.21875,Sixteenth,F5_F4
3013,Left,1,56,110,301.0,0.489583,Eighth,G#3_C4
3017,Right,0,67,80,301.125,0.208333,Sixteenth,G4
3018,Right,0,68,80,301.25,0.208333,Sixteenth,G#4
3019,Right,0,67,80,301.375,0.229167,Sixteenth,G4
3020,Right,0,65,80,301.5,0.239583,Sixteenth,F4
3021,Right,0,72,80,301.75,0.239583,Sixteenth,C5
3022,Right,0,68,80,302.0,0.239583,Sixteenth,G#4
3023,Right,0,77,80,302.25,0.239583,Sixteenth,F5
3024,Right,0,72,80,302.5,0.239583,Sixteenth,C5
3025,Right,0,80,80,302.75,0.239583,Sixteenth,G#5
3026,Left,1,62,100,303.0,0.489583,Eighth,D4_A#3
3027,Right,0,65,100,303.0,0.239583,Sixteenth,F4
3029,Right,0,67,80,303.125,0.21875,Sixteenth,G4
3030,Right,0,68,80,303.25,0.208333,Sixteenth,G#4
3031,Right,0,67,80,303.375,0.208333,Sixteenth,G4
3032,Right,0,65,80,303.5,0.239583,Sixteenth,F4
3033,Right,0,72,80,303.75,0.239583,Sixteenth,C5
3034,Right,0,68,80,304.0,0.239583,Sixteenth,G#4
3035,Right,0,77,80,304.25,0.239583,Sixteenth,F5
3036,Right,0,72,80,304.5,0.239583,Sixteenth,C5
3037,Right,0,80,80,304.75,0.239583,Sixteenth,G#5
3038,Left,1,68,70,305.0,0.489583,Eighth,G#4_F4_D4_B3
3042,Right,0,74,70,305.0,0.229167,Sixteenth,D5
3043,Right,0,75,70,305.125,0.21875,Sixteenth,D#5
3044,Right,0,77,70,305.25,0.208333,Sixteenth,F5
3045,Right,0,75,70,305.375,0.208333,Sixteenth,D#5
3046,Right,0,74,70,305.5,0.239583,Sixteenth,D5
3047,Right,0,80,70,305.75,0.239583,Sixteenth,G#5
3048,Right,0,77,70,306.0,0.239583,Sixteenth,F5
3049,Right,0,86,70,306.25,0.239583,Sixteenth,D6
3050,Right,0,80,70,306.5,0.239583,Sixteenth,G#5
3051,Right,0,89,70,306.75,0.239583,Sixteenth,F6
3052,Right,0,87,70,307.0,0.239583,Sixteenth,D#6
3053,Left,1,67,70,307.0,0.489583,Eighth,G4_D#4_C4
3056,Right,0,86,70,307.25,0.239583,Sixteenth,D6
3057,Right,0,87,70,307.5,0.239583,Sixteenth,D#6
3058,Right,0,83,70,307.75,0.239583,Sixteenth,B5
3062,Right,0,84,70,308.0,0.239583,Sixteenth,C6
3059,Left,1,60,70,308.0,0.489583,Eighth,G#3_F4_C4
3063,Right,0,79,70,308.25,0.239583,Sixteenth,G5
3064,Right,0,80,70,308.5,0.239583,Sixteenth,G#5
3065,Right,0,77,70,308.75,0.239583,Sixteenth,F5
3067,Left,1,67,70,309.0,0.489583,Eighth,G4_D#4_A#3
3066,Right,0,82,70,309.0,0.239583,Sixteenth,A#5
3070,Right,0,78,70,309.25,0.239583,Sixteenth,F#5
3071,Right,0,79,70,309.5,0.239583,Sixteenth,G5
3072,Right,0,75,70,309.75,0.239583,Sixteenth,D#5
3073,Right,0,80,70,310.0,0.239583,Sixteenth,G#5
3074,Left,1,58,70,310.0,0.489583,Eighth,A#3_A#2
3076,Right,0,76,70,310.25,0.239583,Sixteenth,E5
3077,Right,0,77,70,310.5,0.239583,Sixteenth,F5
3078,Left,1,72,70,310.5,0.114583,ThirtySecond,C5
3079,Right,0,74,70,310.75,0.239583,Sixteenth,D5
3081,Left,1,51,70,311.0,0.989583,Quarter,D#3_D#2
3080,Right,0,75,70,311.0,0.989583,Quarter,D#5
3083,Left,1,72,100,312.0,0.489583,Eighth,C5
3086,Left,1,72,100,312.5,0.114583,ThirtySecond,C5
3084,Right,0,79,100,312.5,0.489583,Eighth,G5_E5
3087,Left,1,73,100,312.5625,0.114583,ThirtySecond,C#5
3088,Left,1,72,100,312.625,0.114583,ThirtySecond,C5
3089,Left,1,73,100,312.6875,0.114583,ThirtySecond,C#5
3090,Left,1,72,100,312.75,0.114583,ThirtySecond,C5
3091,Left,1,73,100,312.8125,0.114583,ThirtySecond,C#5
3092,Left,1,71,100,312.875,0.114583,ThirtySecond,B4
3093,Left,1,72,100,312.9375,0.052083,SixtyFourth,C5
3095,Right,0,77,100,313.0,0.489583,Eighth,G#5_F5
3094,Left,1,68,100,313.0,0.489583,Eighth,G#4
3099,Left,1,65,100,313.5,0.489583,Eighth,F4
3097,Right,0,80,100,313.5,0.489583,Eighth,G#5_C6
3100,Left,1,70,100,314.0,0.489583,Eighth,A#4
3103,Left,1,70,100,314.5,0.114583,ThirtySecond,A#4
3101,Right,0,74,100,314.5,0.489583,Eighth,F5_D5
3104,Left,1,72,100,314.5625,0.114583,ThirtySecond,C5
3105,Left,1,70,100,314.625,0.114583,ThirtySecond,A#4
3106,Left,1,72,100,314.6875,0.114583,ThirtySecond,C5
3107,Left,1,70,100,314.75,0.114583,ThirtySecond,A#4
3108,Left,1,72,100,314.8125,0.114583,ThirtySecond,C5
3109,Left,1,69,100,314.875,0.114583,ThirtySecond,A4
3110,Left,1,70,100,314.9375,0.052083,SixtyFourth,A#4
3111,Left,1,67,100,315.0,0.489583,Eighth,G4
3112,Right,0,75,100,315.0,0.489583,Eighth,G5_D#5
3116,Left,1,63,100,315.5,0.489583,Eighth,D#4
3114,Right,0,82,100,315.5,0.489583,Eighth,G5_A#5
3117,Left,1,68,100,316.0,0.489583,Eighth,G#4_F4_D4
3120,Right,0,82,100,316.0,0.489583,Eighth,A#5
3124,Right,0,82,100,316.5,0.114583,ThirtySecond,A#5
3121,Left,1,68,100,316.5,0.489583,Eighth,G#4_F4_A#3
3125,Right,0,84,100,316.5625,0.114583,ThirtySecond,C6
3126,Right,0,82,100,316.625,0.114583,ThirtySecond,A#5
3127,Right,0,84,100,316.6875,0.114583,ThirtySecond,C6
3128,Right,0,82,100,316.75,0.114583,ThirtySecond,A#5
3129,Right,0,84,100,316.8125,0.114583,ThirtySecond,C6
3130,Right,0,81,100,316.875,0.114583,ThirtySecond,A5
3131,Right,0,82,100,316.9375,0.052083,SixtyFourth,A#5
3134,Right,0,80,100,317.0,0.239583,Sixteenth,G#5
3132,Left,1,67,100,317.0,0.989583,Quarter,G4_D#4
3135,Right,0,79,100,317.25,0.239583,Sixteenth,G5
3136,Right,0,77,100,317.5,0.239583,Sixteenth,F5
3137,Right,0,75,100,317.75,0.239583,Sixteenth,D#5
3138,Left,1,69,100,318.0,0.989583,Quarter,D#4_C4_A4
3141,Right,0,74,100,318.0,0.239583,Sixteenth,D5
3142,Right,0,75,100,318.25,0.239583,Sixteenth,D#5
3143,Right,0,76,100,318.5,0.239583,Sixteenth,E5
3144,Right,0,77,100,318.75,0.239583,Sixteenth,F5
3145,Left,1,62,100,319.0,0.489583,Eighth,D4_A#3
3147,Right,0,70,100,319.0,0.489583,Eighth,A#4
3148,Left,1,58,110,320.0,0.489583,Eighth,A#3
3149,Right,0,76,110,320.5,0.489583,Eighth,G4_E5_C5
3152,Left,1,58,110,320.5,0.114583,ThirtySecond,A#3
3153,Left,1,60,110,320.5625,0.114583,ThirtySecond,C4
3154,Left,1,58,110,320.625,0.114583,ThirtySecond,A#3
3155,Left,1,60,110,320.6875,0.114583,ThirtySecond,C4
3156,Left,1,58,110,320.75,0.114583,ThirtySecond,A#3
3157,Left,1,60,110,320.8125,0.114583,ThirtySecond,C4
3158,Left,1,57,110,320.875,0.114583,ThirtySecond,A3
3159,Left,1,58,110,320.9375,0.052083,SixtyFourth,A#3
3161,Right,0,84,110,321.0,0.489583,Eighth,C6
3160,Left,1,56,110,321.0,0.489583,Eighth,G#3
3163,Left,1,53,110,321.5,0.489583,Eighth,F3
3162,Right,0,84,110,321.5,0.114583,ThirtySecond,C6
3164,Right,0,85,110,321.5625,0.114583,ThirtySecond,C#6
3165,Right,0,84,110,321.625,0.114583,ThirtySecond,C6
3166,Right,0,85,110,321.6875,0.114583,ThirtySecond,C#6
3167,Right,0,84,110,321.75,0.114583,ThirtySecond,C6
3168,Right,0,85,110,321.8125,0.114583,ThirtySecond,C#6
3169,Right,0,83,110,321.875,0.114583,ThirtySecond,B5
3170,Right,0,84,110,321.9375,0.052083,SixtyFourth,C6
3171,Left,1,56,110,322.0,0.489583,Eighth,G#3
3172,Right,0,74,110,322.5,0.489583,Eighth,F4_D5_A#4
3175,Left,1,56,110,322.5,0.114583,ThirtySecond,G#3
3176,Left,1,58,110,322.5625,0.114583,ThirtySecond,A#3
3177,Left,1,56,110,322.625,0.114583,ThirtySecond,G#3
3178,Left,1,58,110,322.6875,0.114583,ThirtySecond,A#3
3179,Left,1,56,110,322.75,0.114583,ThirtySecond,G#3
3180,Left,1,58,110,322.8125,0.114583,ThirtySecond,A#3
3181,Left,1,55,110,322.875,0.114583,ThirtySecond,G3
3182,Left,1,56,110,322.9375,0.052083,SixtyFourth,G#3
3183,Left,1,55,110,323.0,0.489583,Eighth,G3
3184,Right,0,82,110,323.0,0.489583,Eighth,A#5
3185,Left,1,51,110,323.5,0.489583,Eighth,D#3
3186,Right,0,82,110,323.5,0.114583,ThirtySecond,A#5
3187,Right,0,84,110,323.5625,0.114583,ThirtySecond,C6
3188,Right,0,82,110,323.625,0.114583,ThirtySecond,A#5
3189,Right,0,84,110,323.6875,0.114583,ThirtySecond,C6
3190,Right,0,82,110,323.75,0.114583,ThirtySecond,A#5
3191,Right,0,84,110,323.8125,0.114583,ThirtySecond,C6
3192,Right,0,81,110,323.875,0.114583,ThirtySecond,A5
3193,Right,0,82,110,323.9375,0.052083,SixtyFourth,A#5
3194,Left,1,50,110,324.0,0.989583,Quarter,G#3_F3_D3_A#3
3198,Left,1,46,110,324.5,0.489583,Eighth,A#2
3199,Right,0,82,110,324.5,0.114583,ThirtySecond,A#5
3200,Right,0,84,110,324.5625,0.114583,ThirtySecond,C6
3201,Right,0,82,110,324.625,0.114583,ThirtySecond,A#5
3202,Right,0,84,110,324.6875,0.114583,ThirtySecond,C6
3203,Right,0,82,110,324.75,0.114583,ThirtySecond,A#5
3204,Right,0,84,110,324.8125,0.114583,ThirtySecond,C6
3205,Right,0,81,110,324.875,0.114583,ThirtySecond,A5
3206,Right,0,82,110,324.9375,0.052083,SixtyFourth,A#5
3207,Left,1,51,80,325.0,0.489583,Eighth,G3_D#3_A#3
3210,Right,0,80,80,325.0,0.239583,Sixteenth,G#5
3211,Right,0,79,80,325.25,0.239583,Sixteenth,G5
3213,Left,1,55,80,325.5,0.489583,Eighth,G3_D#4_A#3
3212,Right,0,77,80,325.5,0.114583,ThirtySecond,F5
3216,Right,0,79,80,325.5625,0.114583,ThirtySecond,G5
3217,Right,0,77,80,325.625,0.114583,ThirtySecond,F5
3218,Right,0,75,80,325.75,0.239583,Sixteenth,D#5
3222,Right,0,75,80,326.0,0.114583,ThirtySecond,D#5
3219,Left,1,58,80,326.0,0.489583,Eighth,F4_D4_A#3
3223,Right,0,77,80,326.0625,0.114583,ThirtySecond,F5
3224,Right,0,75,80,326.125,0.114583,ThirtySecond,D#5
3225,Right,0,74,80,326.25,0.239583,Sixteenth,D5
3226,Left,1,58,80,326.5,0.489583,Eighth,G#3_F4_D4_A#3
3230,Right,0,72,80,326.5,0.114583,ThirtySecond,C5
3231,Right,0,74,80,326.5625,0.114583,ThirtySecond,D5
3232,Right,0,72,80,326.625,0.114583,ThirtySecond,C5
3233,Right,0,70,80,326.75,0.239583,Sixteenth,A#4
3234,Left,1,55,80,327.0,0.489583,Eighth,G3_D#4_A#3
3237,Right,0,70,80,327.0,0.239583,Sixteenth,A#4
3238,Right,0,72,80,327.25,0.114583,ThirtySecond,C5
3239,Right,0,74,80,327.375,0.114583,ThirtySecond,D5
3240,Right,0,75,80,327.5,0.114583,ThirtySecond,D#5
3241,Right,0,77,80,327.625,0.114583,ThirtySecond,F5
3242,Right,0,79,80,327.75,0.114583,ThirtySecond,G5
3243,Right,0,80,80,327.875,0.114583,ThirtySecond,G#5
3247,Right,0,82,110,328.0,0.239583,Sixteenth,A#5
3244,Left,1,58,110,328.0,0.989583,Quarter,G#3_F3_D3_A#3
3249,Right,0,81,110,328.25,0.114583,ThirtySecond,A5
3250,Right,0,82,110,328.375,0.114583,ThirtySecond,A#5
3251,Right,0,81,110,328.5,0.114583,ThirtySecond,A5
3252,Left,1,46,110,328.5,0.489583,Eighth,A#2
3253,Right,0,82,110,328.625,0.114583,ThirtySecond,A#5
3254,Right,0,84,110,328.75,0.114583,ThirtySecond,C6
3255,Right,0,82,110,328.875,0.114583,ThirtySecond,A#5
3256,Left,1,58,80,329.0,0.489583,Eighth,G3_D#3_A#3
3259,Right,0,80,80,329.25,0.114583,ThirtySecond,G#5
3260,Right,0,79,80,329.375,0.114583,ThirtySecond,G5
3261,Left,1,63,80,329.5,0.489583,Eighth,G3_D#4_A#3
3264,Right,0,77,80,329.75,0.114583,ThirtySecond,F5
3265,Right,0,75,80,329.875,0.114583,ThirtySecond,D#5
3266,Left,1,58,80,330.0,0.489583,Eighth,F4_D4_A#3
3269,Right,0,75,80,330.25,0.114583,ThirtySecond,D#5
3270,Right,0,74,80,330.375,0.114583,ThirtySecond,D5
3271,Left,1,58,80,330.5,0.489583,Eighth,G#3_F4_D4_A#3
3275,Right,0,72,80,330.75,0.114583,ThirtySecond,C5
3276,Right,0,70,80,330.875,0.114583,ThirtySecond,A#4
3278,Left,1,58,80,331.0,0.489583,Eighth,G3_D#4_A#3
3277,Right,0,69,80,331.0,0.114583,ThirtySecond,A4
3281,Right,0,70,80,331.125,0.114583,ThirtySecond,A#4
3282,Right,0,72,80,331.25,0.114583,ThirtySecond,C5
3283,Right,0,74,80,331.375,0.114583,ThirtySecond,D5
3284,Right,0,75,80,331.5,0.114583,ThirtySecond,D#5
3285,Right,0,77,80,331.625,0.114583,ThirtySecond,F5
3286,Right,0,79,80,331.75,0.114583,ThirtySecond,G5
3287,Right,0,80,80,331.875,0.114583,ThirtySecond,G#5
3288,Left,1,50,110,332.0,0.489583,Eighth,D3_D2
3290,Right,0,81,110,332.0,0.21875,Sixteenth,A5
3291,Right,0,82,110,332.125,0.239583,Sixteenth,A#5
3292,Right,0,81,110,332.25,0.208333,Sixteenth,A5
3293,Right,0,82,110,332.375,0.21875,Sixteenth,A#5
3294,Right,0,81,110,332.5,0.21875,Sixteenth,A5
3295,Left,1,46,110,332.5,0.489583,Eighth,A#2_A#1
3297,Right,0,82,110,332.625,0.21875,Sixteenth,A#5
3298,Right,0,84,110,332.75,0.239583,Sixteenth,C6
3299,Right,0,82,110,332.875,0.229167,Sixteenth,A#5
3300,Left,1,39,110,333.0,0.989583,Quarter,D#3_D#2
3302,Right,0,80,110,333.0,0.229167,Sixteenth,G#5
3303,Right,0,79,110,333.125,0.21875,Sixteenth,G5
3304,Right,0,77,110,333.25,0.208333,Sixteenth,F5
3305,Right,0,75,110,333.375,0.208333,Sixteenth,D#5
3306,Right,0,74,110,333.5,0.229167,Sixteenth,D5
3307,Right,0,75,110,333.625,0.229167,Sixteenth,D#5
3308,Right,0,77,110,333.75,0.197917,TripletSixteenth,F5
3309,Right,0,75,110,333.875,0.197917,TripletSixteenth,D#5
3310,Left,1,36,110,334.0,0.989583,Quarter,C3_C2
3312,Right,0,74,110,334.0,0.1875,TripletSixteenth,D5
3313,Right,0,72,110,334.125,0.21875,Sixteenth,C5
3314,Right,0,70,110,334.25,0.229167,Sixteenth,A#4
3315,Right,0,69,110,334.375,0.208333,Sixteenth,A4
3316,Right,0,75,110,334.5,0.21875,Sixteenth,D#5
3317,Right,0,69,110,334.625,0.21875,Sixteenth,A4
3318,Right,0,75,110,334.75,0.239583,Sixteenth,D#5
3319,Right,0,69,110,334.875,0.239583,Sixteenth,A4
3320,Right,0,72,80,335.0,0.229167,Sixteenth,C5
3321,Right,0,70,80,335.125,0.208333,Sixteenth,A#4
3322,Right,0,69,80,335.25,0.21875,Sixteenth,A4
3323,Right,0,70,80,335.375,0.21875,Sixteenth,A#4
3324,Right,0,71,79,335.5,0.21875,Sixteenth,B4
3325,Right,0,72,79,335.625,0.21875,Sixteenth,C5
3326,Right,0,73,79,335.75,0.208333,Sixteenth,C#5
3327,Right,0,74,78,335.875,0.239583,Sixteenth,D5
3328,Right,0,75,78,336.0,0.21875,Sixteenth,D#5
3329,Right,0,76,78,336.125,0.239583,Sixteenth,E5
3330,Right,0,77,77,336.25,0.208333,Sixteenth,F5
3331,Right,0,78,77,336.375,0.208333,Sixteenth,F#5
3332,Right,0,79,77,336.5,0.208333,Sixteenth,G5
3333,Right,0,80,76,336.625,0.208333,Sixteenth,G#5
3334,Right,0,81,76,336.75,0.197917,TripletSixteenth,A5
3335,Right,0,82,76,336.875,0.197917,TripletSixteenth,A#5
3336,Right,0,83,75,337.0,0.28125,Sixteenth,B5
3337,Right,0,84,75,337.166667,0.3125,Triplet,C6
3338,Right,0,85,74,337.333333,0.291667,Triplet,C#6
3339,Right,0,86,74,337.5,0.302083,Triplet,D6
3340,Right,0,87,73,337.666667,0.260417,Sixteenth,D#6
3341,Right,0,88,73,337.833333,0.15625,TripletSixteenth,E6
3342,Right,0,89,73,338.0,0.739583,DottedEighth,F6
3343,Right,0,87,71,338.75,0.239583,Sixteenth,D#6
3344,Left,1,68,80,339.0,0.989583,Quarter,G#4_F4
3346,Right,0,86,80,339.0,0.114583,ThirtySecond,D6
3347,Right,0,87,80,339.0625,0.114583,ThirtySecond,D#6
3348,Right,0,89,80,339.125,0.114583,ThirtySecond,F6
3349,Right,0,87,80,339.1875,0.302083,Triplet,D#6
3350,Left,1,58,80,339.25,0.239583,Sixteenth,A#3
3352,Right,0,86,80,339.5,0.739583,DottedEighth,D6
3351,Left,1,58,80,339.5,0.239583,Sixteenth,A#3
3353,Left,1,58,80,339.75,0.239583,Sixteenth,A#3
3354,Left,1,65,80,340.0,0.489583,Sixteenth,G#4_F4
3357,Right,0,89,80,340.25,0.239583,Sixteenth,F6
3356,Left,1,58,80,340.25,0.239583,Sixteenth,A#3
3358,Left,1,63,80,340.5,0.489583,Sixteenth,G4_D#4
3360,Right,0,87,80,340.5,0.239583,Sixteenth,D#6
3361,Right,0,84,80,340.75,0.239583,Sixteenth,C6
3362,Left,1,58,80,340.75,0.239583,Sixteenth,A#3
3363,Right,0,83,80,341.0,0.114583,ThirtySecond,B5
3364,Left,1,65,80,341.0,1.489583,DottedQuarter,F4_D4
3366,Right,0,84,80,341.0625,0.114583,ThirtySecond,C6
3367,Right,0,86,80,341.125,0.114583,ThirtySecond,D6
3368,Right,0,84,80,341.1875,0.302083,Triplet,C6
3369,Left,1,58,80,341.25,0.239583,Sixteenth,A#3
3371,Right,0,82,80,341.5,0.739583,DottedEighth,A#5
3370,Left,1,58,80,341.5,0.239583,Sixteenth,A#3
3372,Left,1,58,80,341.75,0.239583,Sixteenth,A#3
3373,Left,1,58,80,342.0,0.239583,Sixteenth,A#3
3375,Right,0,83,80,342.25,0.239583,Sixteenth,B5
3374,Left,1,58,80,342.25,0.239583,Sixteenth,A#3
3376,Right,0,84,80,342.5,0.239583,Sixteenth,C6
3377,Left,1,62,80,342.5,0.489583,Sixteenth,D4_D3
3379,Right,0,80,80,342.75,0.239583,Sixteenth,G#5
3380,Left,1,58,80,342.75,0.239583,Sixteenth,A#3
3382,Right,0,80,80,343.0,0.239583,Sixteenth,G#5
3381,Left,1,51,80,343.0,0.489583,Eighth,D#4_D#3
3384,Right,0,79,80,343.25,0.239583,Sixteenth,G5
3385,Left,1,58,80,343.25,0.239583,Sixteenth,A#3
3386,Right,0,70,80,343.5,0.489583,Eighth,A#5_A#4
3388,Left,1,67,80,343.5,0.489583,Sixteenth,G4_G3
3391,Left,1,58,80,343.75,0.239583,Sixteenth,A#3
3390,Right,0,75,80,343.75,0.239583,Sixteenth,D#5
3392,Left,1,53,80,344.0,0.489583,Eighth,F4_F3
3394,Right,0,75,80,344.0,0.489583,Sixteenth,G#4_D#5
3396,Left,1,58,80,344.25,0.239583,Sixteenth,A#3
3397,Right,0,74,80,344.25,0.239583,Sixteenth,D5
3398,Left,1,51,80,344.5,0.489583,Eighth,D#4_D#3
3399,Right,0,77,80,344.5,0.489583,Sixteenth,F5_F4
3402,Right,0,75,80,344.75,0.239583,Sixteenth,D#5
3403,Left,1,58,80,344.75,0.239583,Sixteenth,A#3
3404,Right,0,79,80,345.0,0.489583,Eighth,G5_D#5
3406,Left,1,46,80,345.0,0.239583,Sixteenth,A#2
3407,Left,1,58,80,345.25,0.239583,Sixteenth,A#3
3408,Left,1,58,80,345.5,0.239583,Sixteenth,A#3
3409,Right,0,77,80,345.5,0.489583,Eighth,F5_D5
3411,Left,1,58,80,345.75,0.239583,Sixteenth,A#3
3412,Left,1,72,80,346.0,0.239583,Sixteenth,G#4_C5
3415,Left,1,58,80,346.25,0.239583,Sixteenth,A#3
3414,Right,0,89,80,346.25,0.489583,Eighth,F6_F5
3417,Left,1,67,81,346.5,0.239583,Sixteenth,G4_A#4
3420,Left,1,58,82,346.75,0.239583,Sixteenth,A#3
3419,Right,0,88,82,346.75,0.489583,Eighth,E6_E5
3422,Left,1,69,83,347.0,0.239583,Sixteenth,F#4_A4
3425,Right,0,87,84,347.25,0.489583,Eighth,D#6_D#5
3424,Left,1,58,84,347.25,0.239583,Sixteenth,A#3
3427,Left,1,68,85,347.5,0.239583,Sixteenth,G#4_F4
3429,Right,0,86,86,347.75,0.489583,Eighth,D6_D5
3430,Left,1,58,86,347.75,0.239583,Sixteenth,A#3
3432,Left,1,64,87,348.0,0.239583,Sixteenth,G4_E4
3434,Right,0,85,88,348.25,0.489583,Eighth,C#6_C#5
3436,Left,1,58,88,348.25,0.239583,Sixteenth,A#3
3437,Left,1,66,89,348.5,0.239583,Sixteenth,F#4_D#4
3440,Right,0,72,90,348.75,0.489583,Eighth,C6_C5
3439,Left,1,58,90,348.75,0.239583,Sixteenth,A#3
3442,Left,1,62,91,349.0,0.239583,Sixteenth,F4_D4
3445,Right,0,71,92,349.25,0.489583,Eighth,B5_B4
3444,Left,1,58,92,349.25,0.239583,Sixteenth,A#3
3447,Left,1,61,93,349.5,0.239583,Sixteenth,E4_C#4
3449,Right,0,82,94,349.75,0.489583,Eighth,A#5_A#4
3450,Left,1,58,94,349.75,0.239583,Sixteenth,A#3
3452,Left,1,63,95,350.0,0.239583,Sixteenth,D#4_C4
3454,Left,1,58,96,350.25,0.239583,Sixteenth,A#3
3455,Right,0,69,96,350.25,0.489583,Eighth,A5_A4
3457,Left,1,62,97,350.5,0.239583,Sixteenth,F4_D4
3460,Right,0,68,98,350.75,0.489583,Eighth,G#5_G#4
3459,Left,1,58,98,350.75,0.239583,Sixteenth,A#3
3462,Left,1,51,99,351.0,0.239583,Sixteenth,D#3
3463,Left,1,63,80,351.25,0.239583,Sixteenth,D#4
3464,Right,0,67,80,351.25,0.239583,Sixteenth,G5_G4
3467,Left,1,44,80,351.5,0.239583,Sixteenth,G#2
3466,Right,0,72,80,351.5,0.489583,Eighth,C5_A#5
3469,Right,0,80,81,351.666667,0.15625,TripletSixteenth,G#5
3470,Left,1,56,81,351.75,0.239583,Sixteenth,G#3
3471,Right,0,77,81,351.833333,0.15625,TripletSixteenth,F5
3473,Right,0,67,82,352.0,0.489583,Eighth,G4_D#5
3472,Left,1,46,82,352.0,0.239583,Sixteenth,A#2
3476,Left,1,58,83,352.25,0.239583,Sixteenth,A#3
3475,Right,0,77,83,352.25,0.114583,ThirtySecond,F5
3477,Right,0,75,83,352.3125,0.114583,ThirtySecond,D#5
3478,Right,0,74,83,352.375,0.114583,ThirtySecond,D5
3479,Right,0,75,83,352.4375,0.114583,ThirtySecond,D#5
3483,Left,1,34,83,352.5,0.239583,Sixteenth,A#1
3480,Right,0,68,83,352.5,0.489583,Eighth,G5_G#4_D5
3485,Right,0,77,84,352.75,0.239583,Sixteenth,F5
3484,Left,1,46,84,352.75,0.239583,Sixteenth,A#2
3488,Right,0,75,85,353.0,0.489583,Eighth,G4_D#5
3486,Left,1,51,85,353.0,0.489583,Sixteenth,D#3_D#2
3490,Left,1,46,86,353.25,0.239583,Sixteenth,A#2
3491,Left,1,46,87,353.5,0.239583,Sixteenth,A#2
3492,Left,1,46,87,353.75,0.239583,Sixteenth,A#2
3494,Right,0,55,88,354.0,0.114583,ThirtySecond,G3
3493,Left,1,46,88,354.0,0.239583,Sixteenth,A#2
3495,Right,0,58,89,354.125,0.114583,ThirtySecond,A#3
3497,Right,0,63,89,354.25,0.114583,ThirtySecond,D#4
3496,Left,1,46,89,354.25,0.239583,Sixteenth,A#2
3498,Right,0,67,89,354.375,0.114583,ThirtySecond,G4
3499,Right,0,70,90,354.5,0.114583,ThirtySecond,A#4
3500,Left,1,43,90,354.5,0.489583,Eighth,G3_G2
3502,Right,0,75,90,354.625,0.114583,ThirtySecond,D#5
3504,Right,0,79,91,354.75,0.114583,ThirtySecond,G5
3503,Left,1,46,91,354.75,0.239583,Sixteenth,A#2
3505,Right,0,77,91,354.875,0.114583,ThirtySecond,F5
3506,Left,1,56,91,355.0,0.489583,Sixteenth,G#3_G#2
3508,Right,0,75,91,355.0,0.489583,Eighth,D#5
3509,Left,1,46,92,355.25,0.239583,Sixteenth,A#2
3510,Left,1,53,93,355.5,0.489583,Sixteenth,F3_F2
3511,Right,0,74,93,355.5,0.489583,Eighth,D5
3513,Left,1,46,94,355.75,0.239583,Sixteenth,A#2
3514,Right,0,75,94,356.0,0.239583,Sixteenth,D#5
3515,Left,1,55,94,356.0,0.489583,Sixteenth,G3_G2
3517,Right,0,77,95,356.25,0.239583,Sixteenth,F5
3518,Left,1,46,95,356.25,0.239583,Sixteenth,A#2
3519,Left,1,39,96,356.5,0.489583,Eighth,D#3_D#2
3521,Right,0,79,96,356.5,0.239583,Sixteenth,G5
3523,Left,1,46,97,356.75,0.239583,Sixteenth,A#2
3522,Right,0,81,97,356.75,0.239583,Sixteenth,A5
3524,Right,0,84,98,357.0,0.489583,Eighth,C6
3525,Left,1,34,98,357.0,0.489583,Eighth,A#1
3526,Left,1,46,98,357.25,0.239583,Sixteenth,A#2
3528,Left,1,46,99,357.5,0.239583,Sixteenth,A#2
3527,Right,0,82,99,357.5,0.489583,Eighth,A#5
3529,Left,1,46,100,357.75,0.239583,Sixteenth,A#2
3531,Left,1,46,101,358.0,0.239583,Sixteenth,A#2
3530,Right,0,55,101,358.0,0.114583,ThirtySecond,G3
3532,Right,0,58,101,358.125,0.114583,ThirtySecond,A#3
3533,Right,0,63,102,358.25,0.114583,ThirtySecond,D#4
3534,Left,1,46,102,358.25,0.239583,Sixteenth,A#2
3535,Right,0,67,102,358.375,0.114583,ThirtySecond,G4
3537,Left,1,55,102,358.5,0.489583,Sixteenth,G3_G2
3536,Right,0,70,102,358.5,0.114583,ThirtySecond,A#4
3539,Right,0,75,103,358.625,0.114583,ThirtySecond,D#5
3541,Left,1,46,103,358.75,0.239583,Sixteenth,A#2
3540,Right,0,79,103,358.75,0.114583,ThirtySecond,G5
3542,Right,0,77,104,358.875,0.114583,ThirtySecond,F5
3544,Left,1,44,104,359.0,0.489583,Eighth,G#3_G#2
3543,Right,0,75,104,359.0,0.114583,ThirtySecond,D#5
3546,Right,0,74,104,359.125,0.114583,ThirtySecond,D5
3547,Right,0,72,105,359.25,0.114583,ThirtySecond,C5
3548,Left,1,46,105,359.25,0.239583,Sixteenth,A#2
3549,Right,0,70,105,359.375,0.114583,ThirtySecond,A#4
3550,Left,1,41,106,359.5,0.489583,Eighth,F3_F2
3552,Right,0,69,106,359.5,0.114583,ThirtySecond,A4
3553,Right,0,70,106,359.625,0.114583,ThirtySecond,A#4
3555,Left,1,46,106,359.75,0.239583,Sixteenth,A#2
3554,Right,0,72,106,359.75,0.114583,ThirtySecond,C5
3556,Right,0,74,107,359.875,0.114583,ThirtySecond,D5
3558,Left,1,43,107,360.0,0.489583,Eighth,G3_G2
3557,Right,0,75,107,360.0,0.239583,Sixteenth,D#5
3560,Left,1,46,108,360.25,0.239583,Sixteenth,A#2
3561,Right,0,77,108,360.25,0.239583,Sixteenth,F5_F4
3564,Right,0,79,109,360.5,0.239583,Sixteenth,G5_G4
3563,Left,1,39,109,360.5,0.489583,Eighth,D#3_D#2
3568,Left,1,46,109,360.75,0.239583,Sixteenth,A#2
3567,Right,0,81,109,360.75,0.239583,Sixteenth,A5_A4
3570,Right,0,70,110,361.0,1.989583,Half,A#5_A#4
3571,Left,1,46,110,361.0,1.989583,Half,A#2_A#1
3574,Right,0,71,70,363.0,0.989583,Quarter,B5_B4
3576,Left,1,47,80,363.0,0.239583,Sixteenth,B2_B1
3578,Left,1,59,80,363.25,0.239583,Sixteenth,B3
3579,Left,1,59,80,363.5,0.239583,Sixteenth,B3
3580,Left,1,59,80,363.75,0.239583,Sixteenth,B3
3581,Left,1,59,80,364.0,0.239583,Sixteenth,B3
3582,Left,1,59,80,364.25,0.239583,Sixteenth,B3
3583,Left,1,59,80,364.5,0.239583,Sixteenth,B3
3584,Left,1,59,80,364.75,0.239583,Sixteenth,B3
3585,Left,1,59,80,365.0,0.239583,Sixteenth,B3
3586,Left,1,59,80,365.25,0.239583,Sixteenth,B3
3587,Left,1,59,80,365.5,0.239583,Sixteenth,B3
3588,Left,1,59,80,365.75,0.239583,Sixteenth,B3
3590,Left,1,59,80,366.0,0.239583,Sixteenth,B3
3589,Right,0,78,70,366.0,2.489583,Half,F#5_F#4_A4
3593,Left,1,59,80,366.25,0.239583,Sixteenth,B3
3594,Left,1,59,80,366.5,0.239583,Sixteenth,B3
3595,Right,0,76,70,366.75,0.239583,Sixteenth,E5
3596,Left,1,59,80,366.75,0.239583,Sixteenth,B3
3598,Right,0,76,70,367.0,0.489583,Eighth,E5
3597,Left,1,47,80,367.0,0.239583,Sixteenth,B2
3599,Left,1,59,80,367.25,0.239583,Sixteenth,B3
3600,Right,0,75,70,367.5,0.739583,DottedEighth,D#5
3601,Left,1,59,80,367.5,0.239583,Sixteenth,B3
3602,Left,1,59,80,367.75,0.239583,Sixteenth,B3
3603,Left,1,59,80,368.0,0.239583,Sixteenth,B3
3604,Left,1,59,80,368.25,0.239583,Sixteenth,B3
3605,Right,0,78,70,368.25,0.239583,Sixteenth,F#5
3606,Left,1,64,80,368.5,0.489583,Eighth,E4
3607,Right,0,76,70,368.5,0.489583,Sixteenth,G#4_E5
3610,Right,0,73,70,368.75,0.239583,Sixteenth,C#5
3609,Left,1,59,80,368.75,0.239583,Sixteenth,B3
3611,Left,1,63,80,369.0,0.989583,Quarter,D#4
3612,Right,0,66,70,369.0,0.989583,Quarter,F#4_C#5
3614,Left,1,59,80,369.25,0.239583,Sixteenth,B3
3616,Left,1,59,80,369.5,0.239583,Sixteenth,B3
3615,Right,0,71,70,369.5,0.739583,DottedEighth,B4
3617,Left,1,59,80,369.75,0.239583,Sixteenth,B3
3618,Left,1,59,80,370.0,0.239583,Sixteenth,B3
3619,Left,1,59,80,370.25,0.239583,Sixteenth,B3
3620,Right,0,72,70,370.25,0.239583,Sixteenth,C5
3623,Left,1,51,80,370.5,0.239583,Sixteenth,D#3
3621,Right,0,73,70,370.5,0.489583,Sixteenth,F#4_C#5
3624,Left,1,59,80,370.75,0.239583,Sixteenth,B3
3625,Right,0,69,70,370.75,0.239583,Sixteenth,A4
3626,Right,0,69,70,371.0,0.239583,Sixteenth,A4
3627,Left,1,52,80,371.0,0.239583,Sixteenth,E3
3628,Right,0,68,70,371.25,0.239583,Sixteenth,G#4
3629,Left,1,59,80,371.25,0.239583,Sixteenth,B3
3631,Right,0,71,70,371.5,0.239583,Sixteenth,B4
3630,Left,1,56,80,371.5,0.239583,Sixteenth,G#3
3633,Right,0,64,70,371.75,0.239583,Sixteenth,E4
3632,Left,1,59,80,371.75,0.239583,Sixteenth,B3
3634,Right,0,64,70,372.0,0.239583,Sixteenth,E4
3635,Left,1,54,80,372.0,0.239583,Sixteenth,F#3_A3
3637,Left,1,59,80,372.25,0.239583,Sixteenth,B3
3638,Right,0,63,70,372.25,0.239583,Sixteenth,D#4
3639,Left,1,52,80,372.5,0.239583,Sixteenth,G#3_E3
3640,Right,0,66,70,372.5,0.239583,Sixteenth,F#4
3642,Left,1,59,80,372.75,0.239583,Sixteenth,B3
3643,Right,0,64,70,372.75,0.239583,Sixteenth,E4
3644,Left,1,51,80,373.0,0.239583,Sixteenth,F#3_D#3
3646,Right,0,68,70,373.0,0.239583,Sixteenth,G#4
3648,Left,1,59,80,373.25,0.239583,Sixteenth,B3
3647,Right,0,66,70,373.25,0.239583,Sixteenth,F#4
3649,Left,1,56,80,373.5,0.239583,Sixteenth,G#3
3650,Right,0,71,70,373.5,0.239583,Sixteenth,B4
3652,Left,1,59,80,373.75,0.239583,Sixteenth,B3
3651,Right,0,64,70,373.75,0.239583,Sixteenth,E4
3653,Left,1,57,80,374.0,0.239583,Sixteenth,F#3_A3
3655,Right,0,64,70,374.0,0.239583,Sixteenth,E4
3657,Right,0,63,70,374.25,0.239583,Sixteenth,D#4
3656,Left,1,59,80,374.25,0.239583,Sixteenth,B3
3658,Left,1,52,80,374.5,0.239583,Sixteenth,G#3_E3
3659,Right,0,66,70,374.5,0.239583,Sixteenth,F#4
3661,Right,0,64,70,374.75,0.239583,Sixteenth,E4
3662,Left,1,59,80,374.75,0.239583,Sixteenth,B3
3663,Left,1,54,80,375.0,0.489583,Sixteenth,F#3_D#3
3665,Left,1,59,80,375.25,0.239583,Sixteenth,B3
3666,Left,1,50,100,375.5,0.989583,Quarter,F3_D3
3668,Left,1,59,80,375.75,0.489583,Eighth,B3
3669,Right,0,80,110,376.0,1.239583,TiedQuarter-Sixteenth,G#5_G#4
3671,Left,1,59,80,376.25,0.239583,Sixteenth,B3
3672,Left,1,50,80,376.5,0.489583,Eighth,F3_D3
3674,Left,1,58,80,376.75,0.239583,Sixteenth,A#3
3675,Left,1,51,80,377.0,0.239583,Sixteenth,D#3
3677,Left,1,58,80,377.25,0.239583,Sixteenth,A#3
3676,Right,0,79,80,377.25,0.239583,Sixteenth,G5_G4
3679,Right,0,70,81,377.5,0.239583,Sixteenth,A#5_A#4
3681,Left,1,55,81,377.5,0.239583,Sixteenth,G3
3684,Left,1,58,82,377.75,0.239583,Sixteenth,A#3
3682,Right,0,75,82,377.75,0.239583,Sixteenth,D#5_D#4
3687,Left,1,56,84,378.0,0.239583,Sixteenth,G#3_F3
3685,Right,0,75,84,378.0,0.239583,Sixteenth,D#5_D#4
3689,Right,0,74,85,378.25,0.239583,Sixteenth,D5_D4
3690,Left,1,58,85,378.25,0.239583,Sixteenth,A#3
3692,Left,1,55,86,378.5,0.239583,Sixteenth,G3_D#3
3693,Right,0,65,86,378.5,0.239583,Sixteenth,F5_F4
3696,Right,0,63,88,378.75,0.239583,Sixteenth,D#5_D#4
3698,Left,1,58,88,378.75,0.239583,Sixteenth,A#3
3700,Right,0,67,89,379.0,0.239583,Sixteenth,G5_G4
3699,Left,1,53,89,379.0,0.239583,Sixteenth,F3_D3
3703,Right,0,77,90,379.25,0.239583,Sixteenth,F5_F4
3705,Left,1,58,90,379.25,0.239583,Sixteenth,A#3
3706,Right,0,82,92,379.5,0.239583,Sixteenth,A#5_A#4
3708,Left,1,55,92,379.5,0.239583,Sixteenth,G3
3710,Left,1,58,93,379.75,0.239583,Sixteenth,A#3
3709,Right,0,75,93,379.75,0.239583,Sixteenth,D#5_D#4
3712,Left,1,56,94,380.0,0.239583,Sixteenth,G#3_F3
3713,Right,0,75,94,380.0,0.239583,Sixteenth,D#5_D#4
3717,Right,0,74,96,380.25,0.239583,Sixteenth,D5_D4
3716,Left,1,58,96,380.25,0.239583,Sixteenth,A#3
3721,Left,1,55,97,380.5,0.239583,Sixteenth,G3_D#3
3719,Right,0,77,97,380.5,0.239583,Sixteenth,F5_F4
3725,Left,1,58,99,380.75,0.239583,Sixteenth,A#3
3723,Right,0,63,99,380.75,0.239583,Sixteenth,D#5_D#4
3727,Left,1,50,100,381.0,0.239583,Sixteenth,F3_D3
3726,Right,0,67,100,381.0,0.239583,Sixteenth,G5_G4
3731,Left,1,58,101,381.25,0.239583,Sixteenth,A#3
3730,Right,0,65,101,381.25,0.239583,Sixteenth,F5_F4
3735,Right,0,80,103,381.5,0.239583,Sixteenth,G#5_G#4
3733,Left,1,49,103,381.5,0.239583,Sixteenth,D#3_C#3
3738,Left,1,58,104,381.75,0.239583,Sixteenth,A#3
3737,Right,0,79,104,381.75,0.239583,Sixteenth,G5_G4
3741,Right,0,70,105,382.0,0.239583,Sixteenth,A#5_A#4
3740,Left,1,48,105,382.0,0.239583,Sixteenth,D#3_C3
3744,Right,0,80,107,382.25,0.239583,Sixteenth,G#5_G#4
3746,Left,1,60,107,382.25,0.239583,Sixteenth,C4
3747,Right,0,84,108,382.5,0.239583,Sixteenth,C6_C5
3749,Left,1,43,108,382.5,0.239583,Sixteenth,G2_D#3
3753,Left,1,55,109,382.75,0.239583,Sixteenth,G3
3751,Right,0,83,109,382.75,0.239583,Sixteenth,B5_B4
3755,Right,0,74,100,383.0,0.239583,Sixteenth,D6_D5
3754,Left,1,44,100,383.0,0.239583,Sixteenth,G#2
3759,Left,1,48,98,383.25,0.239583,Sixteenth,C3
3757,Right,0,72,98,383.25,0.239583,Sixteenth,C6_C5
3760,Right,0,70,95,383.5,0.239583,Sixteenth,A#5_A#4
3761,Left,1,53,95,383.5,0.239583,Sixteenth,F3
3763,Right,0,80,92,383.75,0.239583,Sixteenth,G#5_G#4
3765,Left,1,56,92,383.75,0.239583,Sixteenth,G#3
3768,Left,1,46,89,384.0,0.239583,Sixteenth,A#2
3766,Right,0,79,89,384.0,0.239583,Sixteenth,G5_G4
3771,Left,1,53,86,384.25,0.239583,Sixteenth,G#3_F3
3769,Right,0,77,86,384.25,0.239583,Sixteenth,F5_F4
3775,Left,1,58,83,384.5,0.239583,Sixteenth,A#3
3773,Right,0,68,83,384.5,0.239583,Sixteenth,G#5_G#4
3776,Right,0,62,81,384.75,0.239583,Sixteenth,D5_D4
3778,Left,1,53,81,384.75,0.239583,Sixteenth,G#3_F3
3781,Right,0,75,80,385.0,0.989583,Quarter,D#5_D#4
3780,Left,1,51,80,385.0,0.239583,Sixteenth,D#3
3783,Left,1,55,80,385.125,0.239583,Sixteenth,G3
3784,Left,1,58,80,385.25,0.239583,Sixteenth,A#3
3785,Left,1,63,80,385.375,0.239583,Sixteenth,D#4
3786,Left,1,58,80,385.5,0.239583,Sixteenth,A#3
3787,Left,1,63,80,385.625,0.239583,Sixteenth,D#4
3788,Left,1,58,80,385.75,0.239583,Sixteenth,A#3
3789,Left,1,55,80,385.875,0.239583,Sixteenth,G3
3790,Left,1,51,80,386.0,0.239583,Sixteenth,D#3
3791,Left,1,55,80,386.125,0.239583,Sixteenth,G3
3792,Left,1,58,80,386.25,0.239583,Sixteenth,A#3
3793,Left,1,63,80,386.375,0.239583,Sixteenth,D#4
3795,Left,1,58,80,386.5,0.239583,Sixteenth,A#3
3794,Right,0,67,80,386.5,0.114583,ThirtySecond,G4
3796,Left,1,63,80,386.625,0.239583,Sixteenth,D#4
3797,Right,0,79,80,386.625,0.364583,DottedSixteenth,G5
3798,Left,1,58,80,386.75,0.239583,Sixteenth,A#3
3799,Left,1,55,80,386.875,0.239583,Sixteenth,G3
3800,Left,1,43,80,387.0,0.239583,Sixteenth,G2
3801,Right,0,70,80,387.0,0.114583,ThirtySecond,A#4
3802,Left,1,46,80,387.125,0.239583,Sixteenth,A#2
3803,Right,0,82,80,387.125,0.864583,DottedEighth,A#5
3804,Left,1,51,80,387.25,0.239583,Sixteenth,D#3
3805,Left,1,55,80,387.375,0.239583,Sixteenth,G3
3806,Left,1,51,80,387.5,0.239583,Sixteenth,D#3
3807,Left,1,55,80,387.625,0.239583,Sixteenth,G3
3808,Left,1,51,80,387.75,0.239583,Sixteenth,D#3
3809,Left,1,46,80,387.875,0.239583,Sixteenth,A#2
3810,Left,1,43,80,388.0,0.239583,Sixteenth,G2
3811,Left,1,46,80,388.125,0.239583,Sixteenth,A#2
3812,Left,1,51,80,388.25,0.239583,Sixteenth,D#3
3813,Left,1,55,80,388.375,0.239583,Sixteenth,G3
3814,Left,1,51,80,388.5,0.239583,Sixteenth,D#3
3815,Right,0,75,80,388.5,0.114583,ThirtySecond,D#5
3816,Left,1,55,80,388.625,0.239583,Sixteenth,G3
3817,Right,0,87,80,388.625,0.364583,DottedSixteenth,D#6
3818,Left,1,51,80,388.75,0.239583,Sixteenth,D#3
3819,Left,1,46,80,388.875,0.239583,Sixteenth,A#2
3821,Left,1,44,80,389.0,0.239583,Sixteenth,G#2
3820,Right,0,53,80,389.0,0.114583,ThirtySecond,F3
3823,Left,1,48,80,389.125,0.239583,Sixteenth,C3
3822,Right,0,65,80,389.125,0.864583,DottedEighth,F4
3824,Left,1,51,80,389.25,0.239583,Sixteenth,D#3
3825,Left,1,53,80,389.375,0.239583,Sixteenth,F3
3826,Left,1,51,80,389.5,0.239583,Sixteenth,D#3
3827,Left,1,53,80,389.625,0.239583,Sixteenth,F3
3828,Left,1,51,80,389.75,0.239583,Sixteenth,D#3
3829,Left,1,48,80,389.875,0.239583,Sixteenth,C3
3830,Left,1,44,80,390.0,0.239583,Sixteenth,G#2
3831,Left,1,48,80,390.125,0.239583,Sixteenth,C3
3832,Left,1,51,80,390.25,0.239583,Sixteenth,D#3
3833,Left,1,53,80,390.375,0.239583,Sixteenth,F3
3835,Right,0,72,80,390.5,0.114583,ThirtySecond,C5
3834,Left,1,51,80,390.5,0.239583,Sixteenth,D#3
3837,Right,0,84,80,390.625,0.364583,DottedSixteenth,C6
3836,Left,1,53,80,390.625,0.239583,Sixteenth,F3
3838,Left,1,51,80,390.75,0.239583,Sixteenth,D#3
3839,Left,1,53,80,390.875,0.239583,Sixteenth,F3
3840,Left,1,46,80,391.0,0.239583,Sixteenth,A#2
3841,Right,0,82,80,391.0,1.239583,TiedQuarter-Sixteenth,A#5_A#4
3843,Left,1,56,80,391.125,0.239583,Sixteenth,G#3
3844,Left,1,50,80,391.25,0.239583,Sixteenth,D3
3845,Left,1,56,80,391.375,0.239583,Sixteenth,G#3
3846,Left,1,53,80,391.5,0.239583,Sixteenth,F3
3847,Left,1,56,80,391.625,0.239583,Sixteenth,G#3
3848,Left,1,51,80,391.75,0.239583,Sixteenth,D#3
3849,Left,1,56,80,391.875,0.239583,Sixteenth,G#3
3850,Left,1,46,80,392.0,0.239583,Sixteenth,A#2
3851,Left,1,56,80,392.125,0.239583,Sixteenth,G#3
3853,Right,0,81,80,392.25,0.239583,Sixteenth,A5_A4
3852,Left,1,50,80,392.25,0.239583,Sixteenth,D3
3855,Left,1,56,80,392.375,0.239583,Sixteenth,G#3
3856,Right,0,80,80,392.5,0.239583,Sixteenth,G#5_G#4
3858,Left,1,53,80,392.5,0.239583,Sixteenth,F3
3859,Left,1,56,80,392.625,0.239583,Sixteenth,G#3
3861,Right,0,65,80,392.75,0.239583,Sixteenth,F5_F4
3860,Left,1,51,80,392.75,0.239583,Sixteenth,D#3
3863,Left,1,56,80,392.875,0.239583,Sixteenth,G#3
3865,Right,0,63,80,393.0,0.989583,Quarter,D#5_D#4
3864,Left,1,51,80,393.0,0.239583,Sixteenth,D#3
3867,Left,1,55,80,393.125,0.239583,Sixteenth,G3
3868,Left,1,58,81,393.25,0.239583,Sixteenth,A#3
3869,Left,1,63,81,393.375,0.239583,Sixteenth,D#4
3870,Left,1,58,82,393.5,0.239583,Sixteenth,A#3
3871,Left,1,63,82,393.625,0.239583,Sixteenth,D#4
3872,Left,1,58,83,393.75,0.239583,Sixteenth,A#3
3873,Left,1,55,83,393.875,0.239583,Sixteenth,G3
3874,Left,1,51,84,394.0,0.239583,Sixteenth,D#3
3875,Left,1,55,84,394.125,0.239583,Sixteenth,G3
3876,Left,1,58,85,394.25,0.239583,Sixteenth,A#3
3877,Left,1,63,85,394.375,0.239583,Sixteenth,D#4
3879,Left,1,58,86,394.5,0.239583,Sixteenth,A#3
3878,Right,0,67,86,394.5,0.114583,ThirtySecond,G4
3881,Right,0,79,86,394.625,0.364583,DottedSixteenth,G5
3880,Left,1,63,86,394.625,0.239583,Sixteenth,D#4
3882,Left,1,58,87,394.75,0.239583,Sixteenth,A#3
3883,Left,1,55,87,394.875,0.239583,Sixteenth,G3
3884,Right,0,70,88,395.0,0.114583,ThirtySecond,A#4
3885,Left,1,43,88,395.0,0.239583,Sixteenth,G2
3887,Right,0,82,88,395.125,0.864583,DottedEighth,A#5
3886,Left,1,46,88,395.125,0.239583,Sixteenth,A#2
3888,Left,1,51,89,395.25,0.239583,Sixteenth,D#3
3889,Left,1,55,89,395.375,0.239583,Sixteenth,G3
3890,Left,1,51,89,395.5,0.239583,Sixteenth,D#3
3891,Left,1,55,90,395.625,0.239583,Sixteenth,G3
3892,Left,1,51,90,395.75,0.239583,Sixteenth,D#3
3893,Left,1,46,91,395.875,0.239583,Sixteenth,A#2
3894,Left,1,43,91,396.0,0.239583,Sixteenth,G2
3895,Left,1,46,92,396.125,0.239583,Sixteenth,A#2
3896,Left,1,51,92,396.25,0.239583,Sixteenth,D#3
3897,Left,1,55,93,396.375,0.239583,Sixteenth,G3
3899,Right,0,75,93,396.5,0.114583,ThirtySecond,D#5
3898,Left,1,51,93,396.5,0.239583,Sixteenth,D#3
3901,Right,0,87,94,396.625,0.364583,DottedSixteenth,D#6
3900,Left,1,55,94,396.625,0.239583,Sixteenth,G3
3902,Left,1,51,94,396.75,0.239583,Sixteenth,D#3
3903,Left,1,46,95,396.875,0.239583,Sixteenth,A#2
3905,Right,0,56,95,397.0,0.114583,ThirtySecond,G#3
3904,Left,1,44,95,397.0,0.239583,Sixteenth,G#2
3906,Right,0,68,96,397.125,0.864583,DottedEighth,G#4
3907,Left,1,48,96,397.125,0.239583,Sixteenth,C3
3908,Left,1,51,96,397.25,0.239583,Sixteenth,D#3
3909,Left,1,53,97,397.375,0.239583,Sixteenth,F3
3910,Left,1,51,97,397.5,0.239583,Sixteenth,D#3
3911,Left,1,53,98,397.625,0.239583,Sixteenth,F3
3912,Left,1,51,98,397.75,0.239583,Sixteenth,D#3
3913,Left,1,48,99,397.875,0.239583,Sixteenth,C3
3914,Left,1,44,99,398.0,0.239583,Sixteenth,G#2
3915,Left,1,48,99,398.125,0.239583,Sixteenth,C3
3916,Left,1,51,100,398.25,0.239583,Sixteenth,D#3
3917,Left,1,53,100,398.375,0.239583,Sixteenth,F3
3919,Right,0,75,101,398.5,0.114583,ThirtySecond,D#5
3918,Left,1,51,101,398.5,0.239583,Sixteenth,D#3
3921,Right,0,87,101,398.625,0.364583,DottedSixteenth,D#6
3920,Left,1,53,101,398.625,0.239583,Sixteenth,F3
3922,Left,1,48,102,398.75,0.239583,Sixteenth,C3
3923,Right,0,57,103,399.0,0.114583,ThirtySecond,A3
3924,Left,1,45,103,399.0,0.239583,Sixteenth,A2
3925,Left,1,48,103,399.125,0.239583,Sixteenth,C3
3926,Right,0,69,103,399.125,0.864583,DottedEighth,A4
3927,Left,1,51,104,399.25,0.239583,Sixteenth,D#3
3928,Left,1,53,104,399.375,0.239583,Sixteenth,F3
3929,Left,1,51,105,399.5,0.239583,Sixteenth,D#3
3930,Left,1,53,105,399.625,0.239583,Sixteenth,F3
3931,Left,1,51,106,399.75,0.239583,Sixteenth,D#3
3932,Left,1,48,106,399.875,0.239583,Sixteenth,C3
3933,Left,1,45,107,400.0,0.239583,Sixteenth,A2
3934,Left,1,48,107,400.125,0.239583,Sixteenth,C3
3935,Left,1,51,108,400.25,0.239583,Sixteenth,D#3
3936,Left,1,53,108,400.375,0.239583,Sixteenth,F3
3938,Left,1,51,109,400.5,0.239583,Sixteenth,D#3
3937,Right,0,75,109,400.5,0.114583,ThirtySecond,D#5
3940,Left,1,53,109,400.625,0.239583,Sixteenth,F3
3939,Right,0,87,109,400.625,0.364583,DottedSixteenth,D#6
3941,Left,1,51,109,400.75,0.239583,Sixteenth,D#3
3942,Left,1,48,110,400.875,0.239583,Sixteenth,C3
3945,Left,1,46,110,401.0,0.239583,Sixteenth,A#2
3943,Right,0,70,110,401.0,0.489583,Eighth,A#4_A#3
3946,Left,1,51,109,401.125,0.239583,Sixteenth,D#3
3947,Left,1,55,109,401.25,0.239583,Sixteenth,G3
3948,Left,1,58,108,401.375,0.239583,Sixteenth,A#3
3950,Left,1,55,107,401.5,0.239583,Sixteenth,G3
3949,Right,0,70,107,401.5,0.989583,Quarter,A#5_A#4
3952,Left,1,58,107,401.625,0.239583,Sixteenth,A#3
3953,Left,1,55,106,401.75,0.239583,Sixteenth,G3
3954,Left,1,51,105,401.875,0.239583,Sixteenth,D#3
3955,Left,1,46,105,402.0,0.239583,Sixteenth,A#2
3956,Left,1,51,104,402.125,0.239583,Sixteenth,D#3
3957,Left,1,55,103,402.25,0.239583,Sixteenth,G3
3958,Left,1,58,103,402.375,0.239583,Sixteenth,A#3
3959,Left,1,55,102,402.5,0.239583,Sixteenth,G3
3960,Right,0,80,102,402.5,0.239583,Sixteenth,G#5_G#4
3962,Left,1,58,101,402.625,0.239583,Sixteenth,A#3
3965,Left,1,55,101,402.75,0.239583,Sixteenth,G3
3963,Right,0,67,101,402.75,0.239583,Sixteenth,G5_G4
3966,Left,1,51,90,402.875,0.239583,Sixteenth,D#3
3967,Right,0,67,90,403.0,1.239583,TiedQuarter-Sixteenth,G5_G4
3968,Left,1,46,90,403.0,0.239583,Sixteenth,A#2
3970,Left,1,56,89,403.125,0.239583,Sixteenth,G#3
3971,Left,1,58,89,403.25,0.239583,Sixteenth,A#3
3972,Left,1,56,88,403.375,0.239583,Sixteenth,G#3
3973,Left,1,58,87,403.5,0.239583,Sixteenth,A#3
3974,Left,1,56,87,403.625,0.239583,Sixteenth,G#3
3975,Left,1,58,86,403.75,0.239583,Sixteenth,A#3
3976,Left,1,56,85,403.875,0.239583,Sixteenth,G#3
3977,Left,1,46,85,404.0,0.239583,Sixteenth,A#2
3978,Left,1,56,84,404.125,0.239583,Sixteenth,G#3
3980,Right,0,65,83,404.25,0.239583,Sixteenth,F5_F4
3979,Left,1,58,83,404.25,0.239583,Sixteenth,A#3
3982,Left,1,56,83,404.375,0.239583,Sixteenth,G#3
3983,Right,0,68,82,404.5,0.239583,Sixteenth,G#5_G#4
3985,Left,1,58,82,404.5,0.239583,Sixteenth,A#3
3986,Left,1,56,81,404.625,0.239583,Sixteenth,G#3
3989,Left,1,58,81,404.75,0.239583,Sixteenth,A#3
3987,Right,0,74,81,404.75,0.239583,Sixteenth,D5_D4
3990,Left,1,56,80,404.875,0.239583,Sixteenth,G#3
3991,Left,1,51,80,405.0,0.239583,Sixteenth,D#3
3992,Right,0,75,80,405.0,0.989583,Quarter,D#5_D#4
3994,Left,1,55,80,405.125,0.239583,Sixteenth,G3
3995,Left,1,58,80,405.25,0.239583,Sixteenth,A#3
3996,Left,1,63,80,405.375,0.239583,Sixteenth,D#4
3997,Left,1,58,80,405.5,0.239583,Sixteenth,A#3
3998,Left,1,63,80,405.625,0.239583,Sixteenth,D#4
3999,Left,1,58,80,405.75,0.239583,Sixteenth,A#3
4000,Left,1,55,80,405.875,0.239583,Sixteenth,G3
4001,Left,1,51,80,406.0,0.239583,Sixteenth,D#3
4002,Left,1,55,79,406.125,0.239583,Sixteenth,G3
4003,Left,1,58,79,406.25,0.239583,Sixteenth,A#3
4004,Left,1,63,79,406.375,0.239583,Sixteenth,D#4
4005,Right,0,79,79,406.5,0.989583,Quarter,G5_G4
4006,Left,1,58,79,406.5,0.239583,Sixteenth,A#3
4008,Left,1,63,79,406.625,0.239583,Sixteenth,D#4
4009,Left,1,58,79,406.75,0.239583,Sixteenth,A#3
4010,Left,1,55,79,406.875,0.239583,Sixteenth,G3
4011,Left,1,51,79,407.0,0.239583,Sixteenth,D#3
4012,Left,1,56,79,407.125,0.239583,Sixteenth,G#3
4013,Left,1,58,79,407.25,0.239583,Sixteenth,A#3
4014,Left,1,62,78,407.375,0.239583,Sixteenth,D4
4015,Right,0,77,78,407.5,0.489583,Eighth,F5_F4
4016,Left,1,58,78,407.5,0.239583,Sixteenth,A#3
4018,Left,1,62,78,407.625,0.239583,Sixteenth,D4
4019,Left,1,58,78,407.75,0.239583,Sixteenth,A#3
4020,Left,1,56,78,407.875,0.239583,Sixteenth,G#3
4021,Left,1,51,78,408.0,0.239583,Sixteenth,D#3
4022,Left,1,56,78,408.125,0.239583,Sixteenth,G#3
4023,Left,1,58,78,408.25,0.239583,Sixteenth,A#3
4024,Left,1,62,78,408.375,0.239583,Sixteenth,D4
4025,Left,1,58,77,408.5,0.239583,Sixteenth,A#3
4026,Right,0,70,77,408.5,0.114583,ThirtySecond,A#4
4027,Left,1,62,77,408.625,0.239583,Sixteenth,D4
4028,Right,0,82,77,408.625,0.364583,DottedSixteenth,A#5
4029,Left,1,58,77,408.75,0.239583,Sixteenth,A#3
4030,Left,1,56,77,408.875,0.239583,Sixteenth,G#3
4031,Left,1,51,77,409.0,0.239583,Sixteenth,D#3
4032,Right,0,75,77,409.0,0.114583,ThirtySecond,D#5
4034,Left,1,55,77,409.125,0.239583,Sixteenth,G3
4033,Right,0,87,77,409.125,0.864583,DottedEighth,D#6
4035,Left,1,58,77,409.25,0.239583,Sixteenth,A#3
4036,Left,1,63,77,409.375,0.239583,Sixteenth,D#4
4037,Left,1,58,77,409.5,0.239583,Sixteenth,A#3
4038,Left,1,63,77,409.625,0.239583,Sixteenth,D#4
4039,Left,1,58,76,409.75,0.239583,Sixteenth,A#3
4040,Left,1,55,76,409.875,0.239583,Sixteenth,G3
4041,Left,1,51,76,410.0,0.239583,Sixteenth,D#3
4042,Left,1,55,76,410.125,0.239583,Sixteenth,G3
4043,Left,1,58,76,410.25,0.239583,Sixteenth,A#3
4044,Left,1,63,76,410.375,0.239583,Sixteenth,D#4
4045,Left,1,58,76,410.5,0.239583,Sixteenth,A#3
4046,Right,0,79,76,410.5,0.989583,Quarter,G5_G4
4048,Left,1,63,76,410.625,0.239583,Sixteenth,D#4
4049,Left,1,58,76,410.75,0.239583,Sixteenth,A#3
4050,Left,1,55,76,410.875,0.239583,Sixteenth,G3
4051,Left,1,51,75,411.0,0.239583,Sixteenth,D#3
4052,Left,1,56,75,411.125,0.239583,Sixteenth,G#3
4053,Left,1,58,75,411.25,0.239583,Sixteenth,A#3
4054,Left,1,62,75,411.375,0.239583,Sixteenth,D4
4056,Right,0,65,75,411.5,0.489583,Eighth,F5_F4
4055,Left,1,58,75,411.5,0.239583,Sixteenth,A#3
4058,Left,1,62,75,411.625,0.239583,Sixteenth,D4
4059,Left,1,58,75,411.75,0.239583,Sixteenth,A#3
4060,Left,1,56,75,411.875,0.239583,Sixteenth,G#3
4061,Left,1,51,75,412.0,0.239583,Sixteenth,D#3
4062,Left,1,56,74,412.125,0.239583,Sixteenth,G#3
4063,Left,1,58,74,412.25,0.239583,Sixteenth,A#3
4064,Left,1,62,74,412.375,0.239583,Sixteenth,D4
4066,Left,1,58,74,412.5,0.239583,Sixteenth,A#3
4065,Right,0,70,74,412.5,0.114583,ThirtySecond,A#4
4068,Left,1,62,74,412.625,0.239583,Sixteenth,D4
4067,Right,0,82,74,412.625,0.364583,DottedSixteenth,A#5
4069,Left,1,58,74,412.75,0.239583,Sixteenth,A#3
4070,Left,1,56,74,412.875,0.239583,Sixteenth,G#3
4071,Left,1,51,74,413.0,0.239583,Sixteenth,D#3
4072,Right,0,63,74,413.0,0.114583,ThirtySecond,D#4
4073,Left,1,55,74,413.125,0.239583,Sixteenth,G3
4074,Right,0,75,74,413.125,0.864583,DottedEighth,D#5
4075,Left,1,58,74,413.25,0.239583,Sixteenth,A#3
4076,Left,1,63,73,413.375,0.239583,Sixteenth,D#4
4077,Left,1,58,73,413.5,0.239583,Sixteenth,A#3
4078,Left,1,63,73,413.625,0.239583,Sixteenth,D#4
4079,Left,1,58,73,413.75,0.239583,Sixteenth,A#3
4080,Left,1,55,73,413.875,0.239583,Sixteenth,G3
4081,Left,1,51,73,414.0,0.239583,Sixteenth,D#3
4082,Left,1,55,73,414.125,0.239583,Sixteenth,G3
4083,Left,1,58,73,414.25,0.239583,Sixteenth,A#3
4084,Left,1,63,73,414.375,0.239583,Sixteenth,D#4
4086,Right,0,67,72,414.5,0.114583,ThirtySecond,G4
4085,Left,1,58,72,414.5,0.239583,Sixteenth,A#3
4088,Right,0,79,72,414.625,0.364583,DottedSixteenth,G5
4087,Left,1,63,72,414.625,0.239583,Sixteenth,D#4
4089,Left,1,58,72,414.75,0.239583,Sixteenth,A#3
4090,Left,1,55,72,414.875,0.239583,Sixteenth,G3
4092,Right,0,70,72,415.0,0.114583,ThirtySecond,A#4
4091,Left,1,43,72,415.0,0.239583,Sixteenth,G2
4093,Left,1,46,72,415.125,0.239583,Sixteenth,A#2
4094,Right,0,82,72,415.125,0.364583,DottedSixteenth,A#5
4095,Left,1,51,72,415.25,0.239583,Sixteenth,D#3
4096,Left,1,55,72,415.375,0.239583,Sixteenth,G3
4097,Left,1,51,72,415.5,0.239583,Sixteenth,D#3
4098,Left,1,55,72,415.625,0.239583,Sixteenth,G3
4099,Left,1,51,71,415.75,0.239583,Sixteenth,D#3
4100,Left,1,46,71,415.875,0.239583,Sixteenth,A#2
4101,Left,1,39,71,416.0,0.239583,Sixteenth,D#2
4102,Left,1,43,71,416.125,0.239583,Sixteenth,G2
4103,Left,1,46,71,416.25,0.239583,Sixteenth,A#2
4104,Left,1,51,71,416.375,0.239583,Sixteenth,D#3
4105,Right,0,75,71,416.5,0.114583,ThirtySecond,D#5
4106,Left,1,46,71,416.5,0.239583,Sixteenth,A#2
4108,Right,0,87,71,416.625,0.364583,DottedSixteenth,D#6
4107,Left,1,51,71,416.625,0.239583,Sixteenth,D#3
4109,Left,1,46,71,416.75,0.239583,Sixteenth,A#2
4110,Left,1,43,71,416.875,0.114583,ThirtySecond,G2
4113,Left,1,39,70,417.0,0.239583,Sixteenth,D#2
4111,Right,0,55,70,417.0,0.489583,Eighth,G3_D#4
4114,Left,1,43,70,417.125,0.239583,Sixteenth,G2
4115,Left,1,46,70,417.25,0.239583,Sixteenth,A#2
4116,Left,1,51,70,417.375,0.239583,Sixteenth,D#3
4117,Left,1,46,70,417.5,0.239583,Sixteenth,A#2
4118,Left,1,51,70,417.625,0.239583,Sixteenth,D#3
4119,Left,1,46,70,417.75,0.239583,Sixteenth,A#2
4120,Left,1,43,70,417.875,0.114583,ThirtySecond,G2
4123,Left,1,39,70,418.0,0.239583,Sixteenth,D#2
4121,Right,0,58,70,418.0,0.489583,Eighth,G3_D#4_A#3
4125,Left,1,43,70,418.125,0.239583,Sixteenth,G2
4126,Left,1,46,70,418.25,0.239583,Sixteenth,A#2
4127,Left,1,51,70,418.375,0.239583,Sixteenth,D#3
4128,Left,1,46,70,418.5,0.239583,Sixteenth,A#2
4129,Left,1,51,70,418.625,0.239583,Sixteenth,D#3
4130,Left,1,46,70,418.75,0.239583,Sixteenth,A#2
4131,Left,1,43,70,418.875,0.489583,Eighth,G2
4135,Left,1,39,70,419.25,1.989583,Half,D#2
4132,Right,0,63,70,419.25,1.989583,Half,G3_D#4_A#3
