,hand,channel,note,velocity,start_beat,duration,note_value,chord
1,Left,1,57,80,0.5,0.489583,Eighth,A3
0,Right,0,81,80,0.5,0.489583,Eighth,A5_A4
3,Right,0,76,80,1.0,0.989583,Quarter,E5_E4
5,Left,1,52,80,1.0,0.989583,Quarter,E3
6,Left,1,52,80,2.5,0.114583,ThirtySecond,E3
7,Right,0,64,80,2.5,0.114583,ThirtySecond,E4
8,Left,1,50,80,2.625,0.114583,ThirtySecond,D3
9,Right,0,62,80,2.625,0.114583,ThirtySecond,D4
10,Right,0,61,80,2.75,0.114583,ThirtySecond,C#4
11,Left,1,49,80,2.75,0.114583,ThirtySecond,C#3
13,Right,0,59,80,2.875,0.114583,ThirtySecond,B3
12,Left,1,47,80,2.875,0.114583,ThirtySecond,B2
15,Left,1,45,80,3.0,0.989583,Quarter,A2
14,Right,0,57,80,3.0,0.989583,Quarter,A3
18,Left,1,57,80,4.5,0.489583,Eighth,A3
16,Right,0,69,80,4.5,0.489583,Eighth,A5_A4
20,Right,0,78,80,5.0,0.989583,Quarter,F#5_F#4
19,Left,1,54,80,5.0,0.989583,Quarter,F#3
23,Left,1,54,80,6.5,0.114583,ThirtySecond,F#3
22,Right,0,66,80,6.5,0.114583,ThirtySecond,F#4
25,Right,0,64,80,6.625,0.114583,ThirtySecond,E4
24,Left,1,52,80,6.625,0.114583,ThirtySecond,E3
27,Right,0,62,80,6.75,0.114583,ThirtySecond,D4
26,Left,1,50,80,6.75,0.114583,ThirtySecond,D3
29,Right,0,61,80,6.875,0.114583,ThirtySecond,C#4
28,Left,1,49,80,6.875,0.114583,ThirtySecond,C#3
31,Left,1,47,80,7.0,0.989583,Quarter,B2
30,Right,0,59,80,7.0,0.989583,Quarter,B3
34,Left,1,62,80,8.5,0.489583,Eighth,D4
32,Right,0,86,80,8.5,0.489583,Eighth,D6_D5
35,Left,1,59,80,9.0,0.989583,Quarter,B3
36,Right,0,71,80,9.0,0.989583,Quarter,B5_B4
39,Right,0,80,80,10.0,0.989583,Quarter,G#5_G#4
38,Left,1,56,80,10.0,0.989583,Quarter,G#3
41,Left,1,52,80,11.0,0.989583,Quarter,E3
42,Right,0,76,80,11.0,0.989583,Quarter,E5_E4
44,Right,0,62,80,12.0,0.989583,Quarter,D5_D4
45,Left,1,50,80,12.0,0.989583,Quarter,D3
47,Left,1,47,80,13.0,0.989583,Quarter,B2
48,Right,0,71,80,13.0,0.989583,Quarter,B4_B3
51,Right,0,68,80,14.0,0.989583,Quarter,G#4_G#3
50,Left,1,44,80,14.0,0.989583,Quarter,G#2
53,Right,0,52,80,15.0,0.989583,Quarter,E4_E3
54,Left,1,40,80,15.0,0.989583,Quarter,E2
56,Right,0,57,80,16.5,0.15625,TripletSixteenth,A3
57,Right,0,61,80,16.666667,0.15625,TripletSixteenth,C#4
58,Right,0,64,80,16.833333,0.15625,TripletSixteenth,E4
60,Left,1,45,100,17.0,0.989583,Quarter,A2
59,Right,0,69,100,17.0,0.489583,Eighth,A4
61,Left,1,49,80,17.166667,0.822917,DottedEighth,C#3
62,Left,1,52,80,17.333333,0.65625,DottedEighth,E3
63,Right,0,71,80,17.5,0.489583,Eighth,B4
64,Left,1,57,80,17.5,0.15625,TripletSixteenth,A3
65,Right,0,73,80,18.0,0.489583,Eighth,C#5
66,Right,0,74,80,18.5,0.489583,Eighth,D5
67,Right,0,76,80,19.0,0.489583,Eighth,E5
68,Right,0,78,80,19.5,0.489583,Eighth,F#5
69,Right,0,80,80,20.0,0.489583,Eighth,G#5
70,Right,0,81,80,20.5,0.489583,Eighth,A5
71,Right,0,76,80,21.0,1.489583,DottedQuarter,E5
73,Left,1,52,80,21.5,0.489583,Eighth,E3
72,Right,0,68,80,21.5,0.489583,Eighth,G#4
74,Left,1,54,80,22.0,0.489583,Eighth,F#3
75,Right,0,69,80,22.0,0.489583,Eighth,A4
78,Left,1,56,80,22.5,0.489583,Eighth,G#3
76,Right,0,74,80,22.5,0.489583,Eighth,D5_B4
80,Right,0,73,80,23.0,0.489583,Eighth,E4_C#5
79,Left,1,57,80,23.0,0.489583,Eighth,A3
82,Left,1,45,80,23.5,0.489583,Eighth,A2
83,Left,1,49,80,24.0,0.489583,Eighth,C#3
84,Left,1,50,80,24.5,0.489583,Eighth,D3
85,Left,1,52,80,25.0,1.489583,DottedQuarter,E3
86,Right,0,64,80,25.5,0.489583,Eighth,G#3_E4
88,Right,0,57,80,26.0,0.489583,Eighth,F#4_A3
91,Right,0,59,80,26.5,0.489583,Eighth,G#4_B3
90,Left,1,50,80,26.5,0.489583,Eighth,D3
94,Right,0,61,80,27.0,0.489583,Eighth,C#4_A4
93,Left,1,49,80,27.0,0.489583,Eighth,C#3
96,Left,1,52,80,27.5,0.489583,Eighth,E3
97,Right,0,64,80,27.5,0.489583,Eighth,E4
98,Right,0,69,80,28.0,0.489583,Eighth,A4
99,Left,1,49,80,28.0,0.489583,Eighth,C#3
100,Right,0,73,80,28.5,0.489583,Eighth,C#5
101,Left,1,45,80,28.5,0.489583,Eighth,A2
102,Right,0,71,80,29.0,1.489583,Eighth,E5_B4
103,Left,1,44,80,29.0,0.489583,Eighth,G#2
106,Right,0,68,80,29.5,0.489583,Eighth,G#4
105,Left,1,40,80,29.5,0.489583,Eighth,E2
108,Right,0,69,80,30.0,0.489583,Eighth,A4
107,Left,1,42,80,30.0,0.489583,Eighth,F#2
109,Left,1,44,80,30.5,0.489583,Eighth,G#2
110,Right,0,74,80,30.5,0.489583,Eighth,D5_B4
112,Right,0,64,80,31.0,1.489583,DottedQuarter,E4_C#5
114,Left,1,45,80,31.0,0.489583,Eighth,A2
115,Left,1,44,80,31.5,0.489583,Eighth,G#2
116,Right,0,71,80,31.5,0.489583,Eighth,B4
117,Right,0,69,80,32.0,0.489583,Eighth,A4
118,Left,1,42,80,32.0,0.489583,Eighth,F#2
119,Right,0,71,80,32.5,0.489583,Eighth,D#4_B4
121,Left,1,47,80,32.5,0.489583,Eighth,B2
122,Left,1,52,70,33.0,1.989583,Eighth,E3_E2
123,Right,0,68,70,33.0,0.989583,Eighth,G#4_B3
127,Left,1,47,70,33.5,0.489583,Eighth,B2
126,Right,0,64,70,33.5,0.489583,Eighth,E4
128,Left,1,54,70,34.0,0.489583,Eighth,F#3
129,Right,0,69,70,34.0,0.989583,Quarter,D#4_A4_A3
133,Left,1,47,70,34.5,0.489583,Eighth,B2
132,Right,0,71,70,34.5,0.489583,Eighth,B4
134,Left,1,52,70,35.0,1.989583,Eighth,E3_E2
136,Right,0,68,70,35.0,0.989583,Eighth,G#4_B3
138,Left,1,47,70,35.5,0.489583,Eighth,B2
139,Right,0,64,70,35.5,0.489583,Eighth,E4
143,Left,1,54,70,36.0,0.489583,Eighth,F#3
140,Right,0,57,70,36.0,0.989583,Quarter,D#4_A4_A3
144,Left,1,47,70,36.5,0.489583,Eighth,B2
145,Right,0,71,70,36.5,0.489583,Eighth,B4
148,Right,0,68,70,37.0,0.989583,Quarter,G#4_E4_B3
146,Left,1,40,70,37.0,0.989583,Quarter,E3_E2
151,Right,0,56,70,38.0,0.989583,Quarter,G#3_E4_B3
154,Left,1,40,70,38.0,0.989583,Quarter,E2
155,Right,0,64,70,39.0,0.989583,Quarter,G#3_E4_B3
158,Left,1,40,70,39.0,0.989583,Quarter,E2
160,Right,0,81,110,40.5,0.489583,Eighth,A5_A4
159,Left,1,57,110,40.5,0.489583,Eighth,A3
163,Right,0,76,110,41.0,0.989583,Quarter,E5_E4
162,Left,1,52,110,41.0,0.989583,Quarter,E3
165,Left,1,52,110,42.5,0.114583,ThirtySecond,E3
166,Right,0,64,110,42.5,0.114583,ThirtySecond,E4
167,Left,1,50,110,42.625,0.114583,ThirtySecond,D3
168,Right,0,62,110,42.625,0.114583,ThirtySecond,D4
170,Left,1,49,110,42.75,0.114583,ThirtySecond,C#3
169,Right,0,61,110,42.75,0.114583,ThirtySecond,C#4
171,Right,0,59,110,42.875,0.114583,ThirtySecond,B3
172,Left,1,47,110,42.875,0.114583,ThirtySecond,B2
174,Right,0,57,110,43.0,0.989583,Quarter,A3
173,Left,1,45,110,43.0,0.989583,Quarter,A2
175,Left,1,33,100,44.5,0.322917,Triplet,A1
176,Left,1,37,100,44.666667,0.322917,Triplet,C#2
177,Left,1,40,100,44.833333,0.15625,TripletSixteenth,E2
178,Left,1,45,113,45.0,0.489583,Eighth,A2
179,Left,1,47,80,45.5,0.489583,Eighth,B2
180,Left,1,49,80,46.0,0.489583,Eighth,C#3
181,Left,1,50,80,46.5,0.489583,Eighth,D3
182,Left,1,52,80,47.0,0.489583,Eighth,E3
183,Left,1,54,80,47.5,0.489583,Eighth,F#3
184,Left,1,56,80,48.0,0.489583,Eighth,G#3
185,Left,1,57,80,48.5,0.489583,Eighth,A3
186,Left,1,52,109,49.0,1.489583,DottedQuarter,E3
187,Right,0,64,80,49.5,0.489583,Eighth,G#3_E4
189,Right,0,57,80,50.0,0.489583,Eighth,F#4_A3
193,Left,1,50,80,50.5,0.489583,Eighth,D3
191,Right,0,59,80,50.5,0.489583,Eighth,G#4_B3
196,Left,1,49,80,51.0,0.489583,Eighth,C#3
194,Right,0,69,80,51.0,0.489583,Eighth,C#4_A4
198,Left,1,52,80,51.5,0.489583,Eighth,E3
197,Right,0,64,80,51.5,0.489583,Eighth,E4
200,Right,0,69,80,52.0,0.489583,Eighth,A4
199,Left,1,49,80,52.0,0.489583,Eighth,C#3
202,Left,1,45,80,52.5,0.489583,Eighth,A2
201,Right,0,73,80,52.5,0.489583,Eighth,C#5
205,Left,1,44,80,53.0,0.489583,Eighth,G#2
203,Right,0,71,80,53.0,1.489583,Eighth,E5_B4
207,Left,1,52,80,53.5,0.489583,Eighth,E3
206,Right,0,68,80,53.5,0.489583,Eighth,G#4
208,Right,0,69,80,54.0,0.489583,Eighth,A4
209,Left,1,54,80,54.0,0.489583,Eighth,F#3
210,Right,0,74,80,54.5,0.489583,Eighth,D5_B4
211,Left,1,56,80,54.5,0.489583,Eighth,G#3
213,Left,1,57,80,55.0,0.489583,Eighth,A3
214,Right,0,73,80,55.0,0.989583,Quarter,E4_C#5
216,Left,1,52,80,55.5,0.489583,Eighth,E3
217,Left,1,57,80,56.0,0.489583,Eighth,A3
218,Left,1,61,80,56.5,0.489583,Eighth,C#4
219,Left,1,64,111,57.0,1.489583,DottedQuarter,E4
220,Right,0,68,80,57.5,0.489583,Eighth,G#4_E5
222,Right,0,78,80,58.0,0.489583,Eighth,F#5_A4
225,Left,1,62,80,58.5,0.489583,Eighth,D4
224,Right,0,71,80,58.5,0.489583,Eighth,G#5_B4
228,Left,1,61,80,59.0,0.489583,Eighth,C#4
227,Right,0,73,80,59.0,0.489583,Eighth,C#5_A5
231,Left,1,56,80,59.5,0.489583,Eighth,G#3
230,Right,0,76,80,59.5,0.989583,Quarter,E5_B5
233,Right,0,85,80,60.0,0.489583,Eighth,C#6
234,Left,1,57,80,60.0,0.489583,Eighth,A3
236,Right,0,86,80,60.5,0.489583,Eighth,D6_A5
235,Left,1,54,80,60.5,0.489583,Eighth,F#3
238,Right,0,85,80,61.0,0.989583,Quarter,E6_C#6
240,Left,1,52,80,61.0,0.989583,Quarter,E3
241,Right,0,76,80,62.0,0.989583,Quarter,G#5_E5_D5_B4
242,Left,1,40,80,62.0,0.989583,Quarter,E2
247,Right,0,81,110,63.0,0.989583,Quarter,E5_C#5_A5
246,Left,1,45,110,63.0,0.322917,Triplet,A2
250,Left,1,49,110,63.166667,0.322917,Triplet,C#3
251,Left,1,50,110,63.333333,0.322917,Triplet,D3
252,Left,1,52,110,63.5,0.322917,Triplet,E3
253,Left,1,54,110,63.666667,0.322917,Triplet,F#3
254,Left,1,56,110,63.833333,0.322917,Triplet,G#3
255,Left,1,57,110,64.0,0.322917,Triplet,A3
256,Left,1,61,110,64.166667,0.322917,Triplet,C#4
257,Left,1,62,110,64.333333,0.322917,Triplet,D4
258,Left,1,64,110,64.5,0.322917,Triplet,E4
259,Left,1,66,110,64.666667,0.322917,Triplet,F#4
260,Left,1,68,110,64.833333,0.15625,TripletSixteenth,G#4
261,Left,1,69,110,65.0,0.489583,Eighth,A4
262,Left,1,68,110,65.5,0.489583,Eighth,G#4
263,Left,1,66,110,66.0,0.489583,Eighth,F#4
264,Left,1,64,110,66.5,0.489583,Eighth,E4
265,Left,1,62,110,67.0,0.489583,Eighth,D4
266,Right,0,64,110,67.0,0.322917,Triplet,E4
267,Right,0,68,110,67.166667,0.322917,Triplet,G#4
268,Right,0,69,110,67.333333,0.322917,Triplet,A4
269,Left,1,61,110,67.5,0.489583,Eighth,C#4
270,Right,0,71,110,67.5,0.322917,Triplet,B4
271,Right,0,73,110,67.666667,0.322917,Triplet,C#5
272,Right,0,74,110,67.833333,0.322917,Triplet,D5
274,Left,1,59,110,68.0,0.489583,Eighth,B3
273,Right,0,76,110,68.0,0.322917,Triplet,E5
275,Right,0,80,110,68.166667,0.322917,Triplet,G#5
276,Right,0,81,110,68.333333,0.322917,Triplet,A5
278,Left,1,57,110,68.5,0.489583,Eighth,A3
277,Right,0,83,110,68.5,0.322917,Triplet,B5
279,Right,0,85,110,68.666667,0.322917,Triplet,C#6
280,Right,0,86,110,68.833333,0.15625,TripletSixteenth,D6
282,Left,1,56,110,69.0,0.489583,Eighth,G#3
281,Right,0,88,110,69.0,0.489583,Eighth,E6
284,Left,1,54,110,69.5,0.489583,Eighth,F#3
283,Right,0,86,110,69.5,0.489583,Eighth,D6
286,Left,1,52,110,70.0,0.489583,Eighth,E3
285,Right,0,85,110,70.0,0.489583,Eighth,C#6
288,Left,1,50,110,70.5,0.489583,Eighth,D3
287,Right,0,83,110,70.5,0.489583,Eighth,B5
289,Left,1,49,110,71.0,0.322917,Triplet,C#3
290,Right,0,81,110,71.0,0.989583,Quarter,A5
291,Left,1,52,110,71.166667,0.322917,Triplet,E3
292,Left,1,54,110,71.333333,0.322917,Triplet,F#3
293,Left,1,56,110,71.5,0.322917,Triplet,G#3
294,Left,1,57,110,71.666667,0.322917,Triplet,A3
295,Left,1,59,110,71.833333,0.322917,Triplet,B3
296,Left,1,61,110,72.0,0.322917,Triplet,C#4
297,Left,1,64,110,72.166667,0.322917,Triplet,E4
298,Left,1,66,110,72.333333,0.322917,Triplet,F#4
299,Left,1,68,110,72.5,0.322917,Triplet,G#4
300,Left,1,69,110,72.666667,0.322917,Triplet,A4
301,Left,1,71,110,72.833333,0.15625,TripletSixteenth,B4
302,Left,1,73,110,73.0,0.489583,Eighth,C#5
303,Left,1,71,110,73.5,0.489583,Eighth,B4
304,Left,1,69,110,74.0,0.489583,Eighth,A4
305,Left,1,68,110,74.5,0.489583,Eighth,G#4
306,Left,1,69,110,75.0,0.489583,Eighth,A4
307,Right,0,71,110,75.166667,0.322917,Triplet,B4
308,Right,0,73,110,75.333333,0.322917,Triplet,C#5
310,Right,0,75,110,75.5,0.322917,Triplet,D#5
309,Left,1,68,110,75.5,0.489583,Eighth,G#4
311,Right,0,76,110,75.666667,0.322917,Triplet,E5
312,Right,0,77,110,75.833333,0.322917,Triplet,F5
314,Left,1,66,110,76.0,0.489583,Eighth,F#4
313,Right,0,78,110,76.0,0.322917,Triplet,F#5
315,Right,0,75,110,76.166667,0.322917,Triplet,D#5
316,Right,0,76,110,76.333333,0.322917,Triplet,E5
317,Right,0,78,110,76.5,0.322917,Triplet,F#5
318,Left,1,64,110,76.5,0.489583,Eighth,E4
319,Right,0,80,110,76.666667,0.322917,Triplet,G#5
320,Right,0,81,110,76.833333,0.15625,TripletSixteenth,A5
322,Right,0,83,120,77.0,0.489583,Eighth,B5
321,Left,1,63,120,77.0,0.489583,Eighth,D#4
323,Right,0,81,120,77.5,0.489583,Eighth,A5
324,Left,1,61,120,77.5,0.489583,Eighth,C#4
326,Left,1,59,120,78.0,0.489583,Eighth,B3
325,Right,0,80,120,78.0,0.489583,Eighth,G#5
327,Right,0,78,120,78.5,0.489583,Eighth,F#5
328,Left,1,57,120,78.5,0.489583,Eighth,A3
330,Right,0,76,120,79.0,0.489583,Eighth,E5
329,Left,1,56,120,79.0,0.489583,Eighth,G#3
332,Right,0,75,120,79.5,0.489583,Eighth,D#5
331,Left,1,54,120,79.5,0.489583,Eighth,F#3
334,Left,1,52,120,80.0,0.489583,Eighth,E3
333,Right,0,73,120,80.0,0.489583,Eighth,C#5
335,Right,0,71,120,80.5,0.489583,Eighth,B4
336,Left,1,51,120,80.5,0.489583,Eighth,D#3
337,Left,1,49,120,81.0,0.489583,Eighth,C#3
338,Right,0,70,120,81.0,0.489583,Eighth,A#4
340,Right,0,68,120,81.5,0.489583,Eighth,G#4
339,Left,1,47,120,81.5,0.489583,Eighth,B2
341,Left,1,46,120,82.0,0.489583,Eighth,A#2
342,Right,0,66,120,82.0,0.489583,Eighth,F#4
343,Left,1,42,120,82.5,0.489583,Eighth,F#2
344,Right,0,64,120,82.5,0.489583,Eighth,E4
345,Left,1,47,80,83.0,3.989583,Whole,B2
346,Right,0,63,80,83.0,0.989583,Quarter,D#4
347,Right,0,61,80,83.5,0.489583,Eighth,C#4
348,Right,0,63,80,84.0,0.989583,Quarter,D#4_B3
350,Right,0,57,80,84.5,0.489583,Eighth,A3
351,Right,0,64,80,85.0,0.989583,Quarter,G#3_E4
353,Right,0,54,80,85.5,0.489583,Eighth,F#3
354,Right,0,58,80,86.0,0.989583,Quarter,E3_A#3
356,Right,0,54,80,86.5,0.489583,Eighth,F#3
359,Left,1,35,80,87.0,4.489583,Whole,B1
357,Right,0,51,80,87.0,0.989583,Eighth,D#3_B3
360,Right,0,49,80,87.5,0.489583,Eighth,C#3
361,Right,0,47,80,88.0,0.989583,Eighth,D#3_B2
363,Right,0,45,80,88.5,0.489583,Eighth,A2
364,Right,0,44,80,89.0,0.989583,Eighth,G#2_E3
366,Right,0,42,80,89.5,0.489583,Eighth,F#2
367,Right,0,40,80,90.0,0.989583,Eighth,E2_A#2
369,Right,0,42,80,90.5,0.489583,Eighth,F#2
370,Right,0,47,80,91.0,0.989583,Quarter,D#2_B2
372,Left,1,39,80,91.5,0.489583,Eighth,D#2
373,Left,1,42,80,92.0,0.489583,Eighth,F#2
374,Left,1,46,80,92.5,0.489583,Eighth,A#2
375,Left,1,47,80,93.0,0.489583,Eighth,B2
376,Left,1,51,80,93.5,0.489583,Eighth,D#3
377,Left,1,54,80,94.0,0.489583,Eighth,F#3
378,Left,1,58,80,94.5,0.489583,Eighth,A#3
379,Left,1,59,80,95.0,0.489583,Eighth,B3
380,Left,1,58,80,95.5,0.489583,Eighth,A#3
381,Left,1,59,80,96.0,0.489583,Eighth,B3
382,Right,0,59,80,96.5,0.489583,Eighth,B3
383,Right,0,60,80,97.0,0.489583,Eighth,C4
384,Right,0,59,80,97.5,0.489583,Eighth,B3
385,Right,0,66,80,98.0,0.489583,Eighth,F#4
386,Right,0,63,80,98.5,0.489583,Eighth,D#4
387,Left,1,57,80,99.0,0.489583,Eighth,A3
388,Left,1,56,80,99.5,0.489583,Eighth,G#3
389,Left,1,57,80,100.0,0.489583,Eighth,A3
390,Right,0,59,80,100.5,0.489583,Eighth,B3
391,Right,0,60,80,101.0,0.489583,Eighth,C4
392,Right,0,59,80,101.5,0.489583,Eighth,B3
393,Right,0,66,80,102.0,0.489583,Eighth,F#4
394,Right,0,63,80,102.5,0.489583,Eighth,D#4
395,Left,1,55,80,103.0,0.489583,Eighth,G3
396,Left,1,54,80,103.5,0.489583,Eighth,F#3
397,Left,1,55,80,104.0,0.489583,Eighth,G3
398,Right,0,59,80,104.5,0.489583,Eighth,B3
399,Right,0,60,80,105.0,0.489583,Eighth,C4
400,Right,0,59,80,105.5,0.489583,Eighth,B3
401,Right,0,67,80,106.0,0.489583,Eighth,G4
402,Right,0,64,80,106.5,0.489583,Eighth,E4
403,Left,1,51,80,107.0,7.989583,Unknown,D#3
404,Left,1,54,80,107.5,7.489583,Unknown,F#3
405,Left,1,57,80,108.0,4.989583,Unknown,A3
406,Left,1,59,80,108.5,0.489583,Eighth,B3
407,Right,0,63,115,109.0,0.489583,Eighth,D#4
408,Left,1,60,110,109.0,3.989583,Whole,C4
409,Right,0,66,80,109.5,0.489583,Eighth,F#4
410,Right,0,69,80,110.0,0.489583,Eighth,A4
411,Right,0,71,80,110.5,0.489583,Eighth,B4
412,Right,0,72,80,111.0,0.489583,Eighth,C5
413,Right,0,71,80,111.5,0.489583,Eighth,B4
414,Right,0,74,80,112.0,0.489583,Eighth,D5
415,Right,0,72,80,112.5,0.489583,Eighth,C5
417,Right,0,71,80,113.0,0.489583,Eighth,B4
416,Left,1,59,80,113.0,0.989583,Quarter,B3
418,Right,0,69,80,113.5,0.489583,Eighth,A4
420,Right,0,67,80,114.0,0.489583,Eighth,G4
419,Left,1,57,80,114.0,0.989583,Quarter,A3
421,Right,0,66,80,114.5,0.489583,Eighth,F#4
424,Right,0,64,100,115.0,0.989583,Quarter,E4
422,Left,1,52,100,115.0,0.239583,Sixteenth,G3_E3
425,Left,1,59,100,115.25,0.239583,Sixteenth,B3
426,Left,1,55,100,115.5,0.239583,Sixteenth,G3_E3
428,Left,1,59,100,115.75,0.239583,Sixteenth,B3
429,Left,1,52,100,116.0,0.239583,Sixteenth,G3_E3
431,Left,1,59,100,116.25,0.239583,Sixteenth,B3
432,Left,1,55,100,116.5,0.239583,Sixteenth,G3_E3
434,Right,0,76,100,116.5,0.489583,Eighth,E5
435,Left,1,59,100,116.75,0.239583,Sixteenth,B3
436,Left,1,55,100,117.0,0.239583,Sixteenth,G3_E3
438,Right,0,75,100,117.0,0.489583,Eighth,D#5
439,Left,1,59,100,117.25,0.239583,Sixteenth,B3
441,Left,1,52,100,117.5,0.239583,Sixteenth,G3_E3
440,Right,0,76,100,117.5,0.489583,Eighth,E5
443,Left,1,59,100,117.75,0.239583,Sixteenth,B3
444,Right,0,79,100,118.0,0.489583,Eighth,G5
445,Left,1,55,100,118.0,0.239583,Sixteenth,G3_E3
447,Left,1,59,100,118.25,0.239583,Sixteenth,B3
448,Left,1,55,100,118.5,0.239583,Sixteenth,G3_E3
449,Right,0,76,100,118.5,0.489583,Eighth,E5
451,Left,1,59,100,118.75,0.239583,Sixteenth,B3
454,Right,0,76,100,119.0,0.739583,DottedEighth,E5
452,Left,1,57,100,119.0,0.239583,Sixteenth,F#3_A3
455,Left,1,59,100,119.25,0.239583,Sixteenth,B3
456,Left,1,57,100,119.5,0.239583,Sixteenth,F#3_A3
459,Right,0,78,100,119.75,0.114583,ThirtySecond,F#5
458,Left,1,60,100,119.75,0.239583,Sixteenth,C4
460,Right,0,76,100,119.875,0.114583,ThirtySecond,E5
461,Left,1,57,100,120.0,0.239583,Sixteenth,F#3_A3
463,Right,0,75,100,120.0,1.989583,Half,D#5
464,Left,1,60,100,120.25,0.239583,Sixteenth,C4
465,Left,1,54,100,120.5,0.239583,Sixteenth,F#3_A3
467,Left,1,60,100,120.75,0.239583,Sixteenth,C4
468,Left,1,54,100,121.0,0.239583,Sixteenth,F#3_A3
470,Left,1,60,100,121.25,0.239583,Sixteenth,C4
471,Left,1,57,100,121.5,0.239583,Sixteenth,F#3_A3
473,Left,1,60,100,121.75,0.239583,Sixteenth,C4
475,Right,0,74,100,122.0,0.989583,Quarter,D5
474,Left,1,54,100,122.0,0.239583,Sixteenth,F#3_A3
477,Left,1,60,100,122.25,0.239583,Sixteenth,C4
478,Left,1,57,100,122.5,0.239583,Sixteenth,F#3_A3
480,Left,1,60,100,122.75,0.239583,Sixteenth,C4
483,Right,0,74,100,123.0,1.489583,DottedQuarter,D5
481,Left,1,55,100,123.0,0.239583,Sixteenth,G3_B3
484,Left,1,60,100,123.25,0.239583,Sixteenth,C4
485,Left,1,59,100,123.5,0.239583,Sixteenth,G3_B3
487,Left,1,62,100,123.75,0.239583,Sixteenth,D4
488,Left,1,55,100,124.0,0.239583,Sixteenth,G3_B3
490,Left,1,62,100,124.25,0.239583,Sixteenth,D4
491,Left,1,55,100,124.5,0.239583,Sixteenth,G3_B3
492,Right,0,79,100,124.5,0.489583,Eighth,G5
494,Left,1,62,100,124.75,0.239583,Sixteenth,D4
495,Left,1,55,100,125.0,0.239583,Sixteenth,G3_B3
497,Right,0,78,100,125.0,0.489583,Eighth,F#5
498,Left,1,62,100,125.25,0.239583,Sixteenth,D4
501,Right,0,79,100,125.5,0.489583,Eighth,G5
499,Left,1,55,100,125.5,0.239583,Sixteenth,G3_B3
502,Left,1,62,100,125.75,0.239583,Sixteenth,D4
505,Right,0,83,100,126.0,0.489583,Eighth,B5
503,Left,1,59,100,126.0,0.239583,Sixteenth,G3_B3
506,Left,1,62,100,126.25,0.239583,Sixteenth,D4
508,Left,1,55,100,126.5,0.239583,Sixteenth,G3_B3
507,Right,0,79,100,126.5,0.489583,Eighth,G5
510,Left,1,62,100,126.75,0.239583,Sixteenth,D4
512,Left,1,57,100,127.0,0.239583,Sixteenth,C4_A3
511,Right,0,79,100,127.0,0.739583,DottedEighth,G5
514,Left,1,62,100,127.25,0.239583,Sixteenth,D4
515,Left,1,57,100,127.5,0.239583,Sixteenth,C4_A3
518,Right,0,81,100,127.75,0.114583,ThirtySecond,A5
517,Left,1,63,100,127.75,0.239583,Sixteenth,D#4
519,Right,0,79,100,127.875,0.114583,ThirtySecond,G5
520,Left,1,57,100,128.0,0.239583,Sixteenth,C4_A3
522,Right,0,78,100,128.0,1.989583,Half,F#5
523,Left,1,63,100,128.25,0.239583,Sixteenth,D#4
524,Left,1,60,100,128.5,0.239583,Sixteenth,C4_A3
526,Left,1,63,100,128.75,0.239583,Sixteenth,D#4
527,Left,1,57,100,129.0,0.239583,Sixteenth,C4_A3
529,Left,1,63,100,129.25,0.239583,Sixteenth,D#4
530,Left,1,57,100,129.5,0.239583,Sixteenth,C4_A3
532,Left,1,63,100,129.75,0.239583,Sixteenth,D#4
533,Right,0,77,100,130.0,0.989583,Quarter,F5
534,Left,1,60,100,130.0,0.239583,Sixteenth,C4_A3
536,Left,1,63,100,130.25,0.239583,Sixteenth,D#4
537,Left,1,60,100,130.5,0.239583,Sixteenth,C4_A3
539,Left,1,63,100,130.75,0.239583,Sixteenth,D#4
541,Left,1,58,100,131.0,0.239583,Sixteenth,D4_A#3
540,Right,0,77,100,131.0,1.489583,DottedQuarter,F5
543,Left,1,63,100,131.25,0.239583,Sixteenth,D#4
544,Left,1,58,100,131.5,0.239583,Sixteenth,D4_A#3
546,Left,1,65,100,131.75,0.239583,Sixteenth,F4
547,Left,1,58,100,132.0,0.239583,Sixteenth,D4_A#3
549,Left,1,65,100,132.25,0.239583,Sixteenth,F4
552,Right,0,82,100,132.5,0.489583,Eighth,A#5
550,Left,1,58,100,132.5,0.239583,Sixteenth,D4_A#3
553,Left,1,65,100,132.75,0.239583,Sixteenth,F4
555,Left,1,58,100,133.0,0.239583,Sixteenth,D4_A#3
554,Right,0,81,100,133.0,0.489583,Eighth,A5
557,Left,1,65,100,133.25,0.239583,Sixteenth,F4
558,Left,1,58,100,133.5,0.239583,Sixteenth,D4_A#3
560,Right,0,82,100,133.5,0.489583,Eighth,A#5
561,Left,1,65,100,133.75,0.239583,Sixteenth,F4
562,Left,1,58,100,134.0,0.239583,Sixteenth,D4_A#3
564,Right,0,86,100,134.0,0.489583,Eighth,D6
565,Left,1,65,100,134.25,0.239583,Sixteenth,F4
566,Left,1,58,100,134.5,0.239583,Sixteenth,D4_A#3
568,Right,0,82,100,134.5,0.489583,Eighth,A#5
569,Left,1,65,100,134.75,0.239583,Sixteenth,F4
571,Left,1,60,100,135.0,0.239583,Sixteenth,D#4_C4
570,Right,0,82,100,135.0,0.739583,DottedEighth,A#5
573,Left,1,65,100,135.25,0.239583,Sixteenth,F4
574,Left,1,60,100,135.5,0.239583,Sixteenth,D#4_C4
577,Right,0,84,100,135.75,0.114583,ThirtySecond,C6
576,Left,1,66,100,135.75,0.239583,Sixteenth,F#4
578,Right,0,82,100,135.875,0.114583,ThirtySecond,A#5
580,Right,0,81,100,136.0,1.989583,Half,A5
579,Left,1,63,100,136.0,0.239583,Sixteenth,D#4_C4
582,Left,1,66,100,136.25,0.239583,Sixteenth,F#4
583,Left,1,63,100,136.5,0.239583,Sixteenth,D#4_C4
585,Left,1,66,100,136.75,0.239583,Sixteenth,F#4
586,Left,1,64,100,137.0,0.239583,Sixteenth,E4_C#4
588,Left,1,66,100,137.25,0.239583,Sixteenth,F#4
589,Left,1,61,100,137.5,0.239583,Sixteenth,E4_C#4
591,Left,1,67,100,137.75,0.239583,Sixteenth,G4
592,Right,0,81,100,138.0,0.989583,Quarter,A5
593,Left,1,61,100,138.0,0.239583,Sixteenth,E4_C#4
595,Left,1,67,100,138.25,0.239583,Sixteenth,G4
596,Left,1,61,100,138.5,0.239583,Sixteenth,E4_C#4
598,Left,1,67,100,138.75,0.239583,Sixteenth,G4
600,Left,1,62,100,139.0,0.239583,Sixteenth,F#4_D4
599,Right,0,81,100,139.0,0.489583,Eighth,A5
602,Left,1,67,100,139.25,0.239583,Sixteenth,G4
604,Left,1,66,100,139.5,0.239583,Sixteenth,F#4_D4
603,Right,0,83,100,139.5,0.239583,Sixteenth,B5
606,Right,0,81,100,139.625,0.239583,Sixteenth,A5
607,Right,0,80,100,139.75,0.239583,Sixteenth,G#5
608,Left,1,69,100,139.75,0.239583,Sixteenth,A4
609,Right,0,81,100,139.875,0.114583,ThirtySecond,A5
610,Right,0,84,100,140.0,1.989583,Half,C6_C5
612,Left,1,66,100,140.0,0.239583,Sixteenth,F#4_D4
614,Left,1,69,100,140.25,0.239583,Sixteenth,A4
615,Left,1,66,100,140.5,0.239583,Sixteenth,F#4_D4
617,Left,1,69,100,140.75,0.239583,Sixteenth,A4
618,Left,1,66,100,141.0,0.239583,Sixteenth,F#4_D#4
620,Left,1,69,100,141.25,0.239583,Sixteenth,A4
621,Left,1,66,100,141.5,0.239583,Sixteenth,F#4_D#4
623,Left,1,69,100,141.75,0.239583,Sixteenth,A4
625,Left,1,66,100,142.0,0.239583,Sixteenth,F#4_D#4
624,Right,0,83,100,142.0,0.989583,Quarter,B5_B4
628,Left,1,69,100,142.25,0.239583,Sixteenth,A4
629,Left,1,66,100,142.5,0.239583,Sixteenth,F#4_D#4
631,Left,1,69,100,142.75,0.239583,Sixteenth,A4
633,Left,1,64,100,143.0,0.239583,Sixteenth,G#4_E4
632,Right,0,83,100,143.0,0.489583,Eighth,B5
635,Left,1,69,100,143.25,0.239583,Sixteenth,A4
636,Left,1,64,100,143.5,0.239583,Sixteenth,G#4_E4
638,Right,0,85,100,143.5,0.239583,Sixteenth,C#6
639,Right,0,83,100,143.625,0.239583,Sixteenth,B5
640,Right,0,82,100,143.75,0.239583,Sixteenth,A#5
641,Left,1,71,100,143.75,0.239583,Sixteenth,B4
642,Right,0,83,100,143.875,0.114583,ThirtySecond,B5
643,Right,0,86,100,144.0,1.989583,Half,D6_D5
645,Left,1,68,100,144.0,0.239583,Sixteenth,G#4_E4
647,Left,1,71,100,144.25,0.239583,Sixteenth,B4
648,Left,1,64,100,144.5,0.239583,Sixteenth,G#4_E4
650,Left,1,71,100,144.75,0.239583,Sixteenth,B4
651,Left,1,68,100,145.0,0.239583,Sixteenth,G#4_F4
653,Left,1,71,100,145.25,0.239583,Sixteenth,B4
654,Left,1,65,100,145.5,0.239583,Sixteenth,G#4_F4
656,Left,1,71,100,145.75,0.239583,Sixteenth,B4
658,Left,1,65,100,146.0,0.239583,Sixteenth,G#4_F4
657,Right,0,73,100,146.0,0.989583,Quarter,C#6_C#5
661,Left,1,71,100,146.25,0.239583,Sixteenth,B4
662,Left,1,65,100,146.5,0.239583,Sixteenth,G#4_F4
664,Left,1,71,100,146.75,0.239583,Sixteenth,B4
665,Left,1,66,100,147.0,0.239583,Sixteenth,F#4_A4
667,Right,0,85,100,147.0,0.489583,Eighth,C#6
668,Left,1,71,100,147.25,0.239583,Sixteenth,B4
669,Left,1,66,100,147.5,0.239583,Sixteenth,F#4_A4
670,Right,0,87,100,147.5,0.239583,Sixteenth,D#6
672,Right,0,85,100,147.625,0.239583,Sixteenth,C#6
674,Right,0,84,100,147.75,0.239583,Sixteenth,C6
673,Left,1,71,100,147.75,0.239583,Sixteenth,B4
675,Right,0,85,100,147.875,0.114583,ThirtySecond,C#6
676,Left,1,66,100,148.0,0.239583,Sixteenth,F#4_A4
678,Right,0,88,100,148.0,1.989583,Half,E6_E5
680,Left,1,72,100,148.25,0.239583,Sixteenth,C5
681,Left,1,66,100,148.5,0.239583,Sixteenth,F#4_A4
683,Left,1,72,100,148.75,0.239583,Sixteenth,C5
684,Left,1,66,100,149.0,0.239583,Sixteenth,F#4_A4
686,Left,1,72,100,149.25,0.239583,Sixteenth,C5
687,Left,1,66,100,149.5,0.239583,Sixteenth,F#4_A4
689,Left,1,72,100,149.75,0.239583,Sixteenth,C5
691,Left,1,66,100,150.0,0.239583,Sixteenth,F#4_A4
690,Right,0,87,100,150.0,0.989583,Quarter,D#6_D#5
694,Left,1,72,100,150.25,0.239583,Sixteenth,C5
695,Left,1,69,100,150.5,0.239583,Sixteenth,F#4_A4
697,Left,1,72,100,150.75,0.239583,Sixteenth,C5
700,Left,1,66,100,151.0,0.989583,Quarter,F#4_A4
698,Right,0,87,100,151.0,0.989583,Quarter,D#6_D#5
702,Right,0,60,120,152.5,0.239583,Sixteenth,C4
703,Left,1,48,120,152.5,0.239583,Sixteenth,C3
705,Right,0,59,120,152.625,0.239583,Sixteenth,B3
704,Left,1,47,120,152.625,0.239583,Sixteenth,B2
706,Right,0,57,120,152.75,0.239583,Sixteenth,A3
707,Left,1,45,120,152.75,0.239583,Sixteenth,A2
708,Right,0,55,120,152.875,0.114583,ThirtySecond,G3
709,Left,1,43,120,152.875,0.114583,ThirtySecond,G2
711,Left,1,42,120,153.0,0.989583,Quarter,F#2
710,Right,0,54,120,153.0,0.989583,Quarter,F#3
712,Right,0,76,80,154.5,0.489583,Eighth,E6_E5
714,Right,0,87,80,155.0,0.989583,Quarter,D#6_D#5
716,Right,0,60,120,156.5,0.239583,Sixteenth,C4
717,Left,1,48,120,156.5,0.239583,Sixteenth,C3
719,Right,0,59,120,156.625,0.239583,Sixteenth,B3
718,Left,1,47,120,156.625,0.239583,Sixteenth,B2
720,Left,1,45,120,156.75,0.239583,Sixteenth,A2
721,Right,0,57,120,156.75,0.239583,Sixteenth,A3
723,Left,1,43,120,156.875,0.114583,ThirtySecond,G2
722,Right,0,55,120,156.875,0.114583,ThirtySecond,G3
724,Right,0,54,120,157.0,0.989583,Quarter,F#3
725,Left,1,42,120,157.0,0.989583,Quarter,F#2
726,Right,0,88,70,158.5,0.489583,Eighth,E6
727,Right,0,87,70,159.0,0.989583,Quarter,D#6
728,Left,1,72,70,160.0,0.989583,Quarter,F#4_C5_A4
731,Right,0,88,70,160.5,0.489583,Eighth,E6
732,Right,0,87,70,161.0,0.989583,Quarter,D#6
733,Left,1,66,70,162.0,0.989583,Quarter,F#4_C5_A4
736,Right,0,88,70,162.5,0.489583,Eighth,E6
737,Right,0,87,70,163.0,0.989583,Quarter,D#6
738,Left,1,72,70,164.0,0.989583,Quarter,F#4_C5_A4
741,Right,0,83,90,166.5,0.489583,Eighth,B5
742,Left,1,64,120,167.0,0.989583,Quarter,G#3_E4_B3
745,Right,0,76,120,167.5,0.322917,Triplet,E5
746,Right,0,88,120,167.666667,0.322917,Triplet,E6
747,Right,0,76,120,167.833333,0.322917,Triplet,E5
748,Right,0,71,120,168.0,0.322917,Triplet,B4
749,Right,0,83,120,168.166667,0.322917,Triplet,B5
750,Right,0,71,120,168.333333,0.322917,Triplet,B4
751,Right,0,68,120,168.5,0.322917,Triplet,G#4
752,Right,0,80,120,168.666667,0.322917,Triplet,G#5
753,Right,0,68,120,168.833333,0.322917,Triplet,G#4
754,Right,0,64,120,169.0,0.322917,Triplet,E4
755,Right,0,76,120,169.166667,0.322917,Triplet,E5
756,Right,0,64,120,169.333333,0.322917,Triplet,E4
757,Right,0,59,120,169.5,0.322917,Triplet,B3
758,Right,0,71,120,169.666667,0.322917,Triplet,B4
759,Right,0,59,120,169.833333,0.322917,Triplet,B3
760,Right,0,56,120,170.0,0.322917,Triplet,G#3
761,Right,0,68,120,170.166667,0.322917,Triplet,G#4
762,Right,0,56,120,170.333333,0.322917,Triplet,G#3
763,Right,0,52,120,170.5,0.322917,Triplet,E3
764,Right,0,64,120,170.666667,0.322917,Triplet,E4
765,Right,0,52,120,170.833333,0.15625,TripletSixteenth,E3
766,Left,1,46,120,171.0,1.989583,Half,A#2
767,Right,0,52,120,171.0,1.989583,Half,F#3_E3
771,Right,0,59,120,173.0,1.989583,Half,D#3_B3
769,Left,1,35,120,173.0,1.989583,Half,B1_A2
773,Left,1,44,100,175.0,0.989583,Quarter,G#2_E2
775,Right,0,52,120,175.5,0.302083,Triplet,E3
776,Right,0,64,120,175.666667,0.302083,Triplet,E4
777,Right,0,52,120,175.833333,0.302083,Triplet,E3
778,Right,0,56,120,176.0,0.291667,Triplet,G#3
779,Right,0,68,120,176.166667,0.333333,Triplet,G#4
780,Right,0,56,120,176.333333,0.302083,Triplet,G#3
781,Right,0,59,120,176.5,0.302083,Triplet,B3
782,Right,0,71,120,176.666667,0.302083,Triplet,B4
783,Right,0,59,120,176.833333,0.28125,Sixteenth,B3
784,Right,0,64,120,177.0,0.322917,Triplet,E4
785,Right,0,76,120,177.166667,0.322917,Triplet,E5
786,Right,0,64,120,177.333333,0.322917,Triplet,E4
787,Right,0,68,120,177.5,0.322917,Triplet,G#4
788,Right,0,80,120,177.666667,0.322917,Triplet,G#5
789,Right,0,68,120,177.833333,0.322917,Triplet,G#4
790,Right,0,71,120,178.0,0.322917,Triplet,B4
791,Right,0,83,120,178.166667,0.322917,Triplet,B5
792,Right,0,71,120,178.333333,0.322917,Triplet,B4
793,Right,0,76,120,178.5,0.322917,Triplet,E5
794,Right,0,88,120,178.666667,0.322917,Triplet,E6
795,Right,0,76,120,178.833333,0.15625,TripletSixteenth,E5
796,Right,0,78,120,179.0,1.989583,Half,F#5_E5
798,Left,1,70,120,179.0,1.989583,Half,A#4
799,Left,1,69,120,181.0,1.989583,Half,B3_A4
800,Right,0,75,120,181.0,1.989583,Half,D#5_B5
803,Right,0,76,100,183.0,0.489583,Eighth,E5
804,Left,1,64,100,183.0,0.322917,Triplet,E4
805,Left,1,68,100,183.166667,0.322917,Triplet,G#4
806,Left,1,69,100,183.333333,0.322917,Triplet,A4
807,Left,1,71,100,183.5,0.322917,Triplet,B4
808,Left,1,73,100,183.666667,0.322917,Triplet,C#5
809,Left,1,75,100,183.833333,0.322917,Triplet,D#5
810,Left,1,76,100,184.0,0.489583,Eighth,E5
811,Right,0,80,100,184.166667,0.322917,Triplet,G#5
812,Right,0,81,100,184.333333,0.322917,Triplet,A5
813,Right,0,83,100,184.5,0.322917,Triplet,B5
814,Right,0,85,100,184.666667,0.322917,Triplet,C#6
815,Right,0,87,100,184.833333,0.15625,TripletSixteenth,D#6
816,Right,0,88,100,185.0,0.489583,Eighth,E6
817,Right,0,87,100,185.5,0.489583,Eighth,D#6
818,Right,0,85,100,186.0,0.489583,Eighth,C#6
819,Right,0,83,100,186.5,0.489583,Eighth,B5
821,Left,1,47,100,187.0,0.322917,Triplet,B2
820,Right,0,81,100,187.0,0.489583,Eighth,A5
822,Left,1,51,100,187.166667,0.322917,Triplet,D#3
823,Left,1,52,100,187.333333,0.322917,Triplet,E3
825,Left,1,54,100,187.5,0.322917,Triplet,F#3
824,Right,0,80,100,187.5,0.489583,Eighth,G#5
826,Left,1,56,100,187.666667,0.322917,Triplet,G#3
827,Left,1,57,100,187.833333,0.322917,Triplet,A3
828,Right,0,78,100,188.0,0.489583,Eighth,F#5
829,Left,1,59,100,188.0,0.322917,Triplet,B3
830,Left,1,63,100,188.166667,0.322917,Triplet,D#4
831,Left,1,64,100,188.333333,0.322917,Triplet,E4
833,Left,1,66,100,188.5,0.322917,Triplet,F#4
832,Right,0,76,100,188.5,0.489583,Eighth,E5
834,Left,1,68,100,188.666667,0.322917,Triplet,G#4
835,Left,1,69,100,188.833333,0.15625,TripletSixteenth,A4
837,Left,1,71,100,189.0,0.489583,Eighth,B4
836,Right,0,75,100,189.0,0.489583,Eighth,D#5
838,Left,1,69,100,189.5,0.489583,Eighth,A4
839,Left,1,68,100,190.0,0.489583,Eighth,G#4
840,Left,1,66,100,190.5,0.489583,Eighth,F#4
841,Left,1,40,100,191.0,0.322917,Triplet,E2
842,Right,0,64,100,191.0,0.989583,Quarter,E4
843,Left,1,44,100,191.166667,0.322917,Triplet,G#2
844,Left,1,45,100,191.333333,0.322917,Triplet,A2
845,Left,1,47,100,191.5,0.322917,Triplet,B2
846,Left,1,49,100,191.666667,0.322917,Triplet,C#3
847,Left,1,51,100,191.833333,0.322917,Triplet,D#3
848,Left,1,52,100,192.0,0.322917,Triplet,E3
849,Left,1,56,100,192.166667,0.322917,Triplet,G#3
850,Left,1,57,100,192.333333,0.322917,Triplet,A3
851,Left,1,59,100,192.5,0.322917,Triplet,B3
852,Left,1,61,100,192.666667,0.322917,Triplet,C#4
853,Left,1,63,100,192.833333,0.15625,TripletSixteenth,D#4
854,Left,1,64,100,193.0,0.489583,Eighth,E4
855,Left,1,63,100,193.5,0.489583,Eighth,D#4
856,Left,1,61,100,194.0,0.489583,Eighth,C#4
857,Left,1,59,100,194.5,0.489583,Eighth,B3
858,Right,0,61,110,195.0,0.322917,Triplet,C#4
859,Left,1,57,100,195.0,0.489583,Eighth,A3
860,Right,0,63,110,195.166667,0.322917,Triplet,D#4
861,Right,0,64,110,195.333333,0.322917,Triplet,E4
862,Left,1,56,100,195.5,0.489583,Eighth,G#3
863,Right,0,66,110,195.5,0.322917,Triplet,F#4
864,Right,0,68,110,195.666667,0.322917,Triplet,G#4
865,Right,0,69,110,195.833333,0.322917,Triplet,A4
866,Left,1,54,100,196.0,0.489583,Eighth,F#3
867,Right,0,71,110,196.0,0.322917,Triplet,B4
868,Right,0,75,110,196.166667,0.322917,Triplet,D#5
869,Right,0,76,110,196.333333,0.322917,Triplet,E5
870,Right,0,78,110,196.5,0.322917,Triplet,F#5
871,Left,1,52,100,196.5,0.489583,Eighth,E3
872,Right,0,80,110,196.666667,0.322917,Triplet,G#5
873,Right,0,81,110,196.833333,0.15625,TripletSixteenth,A5
874,Right,0,83,120,197.0,0.489583,Eighth,B5
875,Left,1,51,120,197.0,0.489583,Eighth,D#3
877,Right,0,81,120,197.5,0.489583,Eighth,A5
876,Left,1,49,120,197.5,0.489583,Eighth,C#3
879,Left,1,47,120,198.0,0.489583,Eighth,B2
878,Right,0,80,120,198.0,0.489583,Eighth,G#5
880,Right,0,78,120,198.5,0.489583,Eighth,F#5
881,Left,1,45,120,198.5,0.489583,Eighth,A2
882,Left,1,44,120,199.0,0.489583,Eighth,G#2
883,Right,0,76,120,199.0,0.489583,Eighth,E5
885,Left,1,42,120,199.5,0.489583,Eighth,F#2
884,Right,0,75,120,199.5,0.489583,Eighth,D#5
886,Left,1,40,120,200.0,0.489583,Eighth,E2
887,Right,0,73,120,200.0,0.489583,Eighth,C#5
889,Left,1,39,120,200.5,0.489583,Eighth,D#2
888,Right,0,71,120,200.5,0.489583,Eighth,B4
891,Right,0,69,120,201.0,0.489583,Eighth,A4
890,Left,1,37,120,201.0,0.489583,Eighth,C#2
893,Right,0,68,120,201.5,0.489583,Eighth,G#4
892,Left,1,35,120,201.5,0.489583,Eighth,B1
895,Right,0,66,120,202.0,0.489583,Eighth,F#4
894,Left,1,33,120,202.0,0.489583,Eighth,A1
896,Right,0,64,120,202.5,0.489583,Eighth,E4
897,Left,1,32,120,202.5,0.489583,Eighth,G#1
899,Right,0,63,120,203.0,0.489583,Eighth,D#4
898,Left,1,33,120,203.0,1.989583,Half,A1
900,Right,0,61,120,203.5,0.489583,Eighth,C#4
901,Right,0,59,120,204.0,0.489583,Eighth,B3
902,Right,0,57,120,204.5,0.489583,Eighth,A3
904,Right,0,56,120,205.0,0.489583,Eighth,G#3
903,Left,1,35,120,205.0,1.989583,Half,B1
905,Right,0,54,120,205.5,0.489583,Eighth,F#3
906,Right,0,52,120,206.0,0.489583,Eighth,E3
907,Right,0,51,120,206.5,0.489583,Eighth,D#3
909,Right,0,52,80,207.0,0.489583,Eighth,E3
908,Left,1,40,80,207.0,3.989583,Whole,E2
910,Right,0,54,80,207.5,0.489583,Eighth,F#3
911,Right,0,56,80,208.0,0.489583,Eighth,G#3
912,Right,0,57,80,208.5,0.489583,Eighth,A3
913,Right,0,69,80,209.0,1.989583,Half,B3_A4
915,Right,0,61,80,209.5,0.489583,Eighth,C#4
916,Right,0,62,80,210.0,0.489583,Eighth,D4
917,Right,0,63,80,210.5,0.489583,Eighth,D#4
921,Left,1,40,80,211.0,7.989583,Unknown,E2
918,Right,0,59,80,211.0,1.989583,Half,G#4_E4_B3
922,Left,1,42,80,211.5,0.489583,Eighth,F#2
923,Left,1,44,80,212.0,0.489583,Eighth,G#2
924,Left,1,45,80,212.5,0.489583,Eighth,A2
926,Right,0,59,80,213.0,1.989583,Half,F#4_B3_A3
925,Left,1,47,80,213.0,0.489583,Eighth,B2
929,Left,1,49,80,213.5,0.489583,Eighth,C#3
930,Left,1,50,80,214.0,0.489583,Eighth,D3
931,Left,1,51,80,214.5,0.489583,Eighth,D#3
932,Right,0,56,80,215.0,1.989583,Eighth,G#3_E4
934,Left,1,52,80,215.0,1.989583,Half,E3
935,Right,0,54,80,215.5,0.489583,Eighth,F#3
936,Right,0,56,80,216.0,0.489583,Eighth,G#3
937,Right,0,57,80,216.5,0.489583,Eighth,A3
938,Left,1,51,80,217.0,0.989583,Quarter,D#3
939,Right,0,59,80,217.0,1.989583,Eighth,B3_A4
941,Right,0,61,80,217.5,0.489583,Eighth,C#4
943,Right,0,62,80,218.0,0.489583,Eighth,D4
942,Left,1,54,80,218.0,0.989583,Quarter,F#3
944,Right,0,63,80,218.5,0.489583,Eighth,D#4
945,Right,0,59,80,219.0,1.989583,Half,G#4_E4_B3
946,Left,1,40,80,219.0,3.989583,Whole,E2
949,Left,1,42,80,219.5,0.489583,Eighth,F#2
950,Left,1,44,80,220.0,0.489583,Eighth,G#2
951,Left,1,45,80,220.5,0.489583,Eighth,A2
954,Left,1,47,80,221.0,0.489583,Eighth,B2
952,Right,0,57,80,221.0,1.989583,Half,F#4_B3_A3
956,Left,1,49,80,221.5,0.489583,Eighth,C#3
957,Left,1,50,80,222.0,0.489583,Eighth,D3
958,Left,1,51,80,222.5,0.489583,Eighth,D#3
960,Left,1,52,70,223.0,0.333333,Triplet,E3_E2
959,Right,0,59,70,223.0,0.989583,Quarter,G#3_E4_B3
964,Left,1,49,70,223.5,0.333333,Triplet,C#3
965,Left,1,47,70,224.0,0.333333,Triplet,B2
966,Left,1,45,70,224.5,0.333333,Triplet,A2
969,Left,1,44,70,225.0,0.333333,Triplet,G#2
967,Right,0,59,70,225.0,0.989583,Quarter,G#3_E4_B3
971,Left,1,45,70,225.5,0.333333,Triplet,A2
972,Right,0,56,70,226.0,0.989583,Quarter,G#3_E4_B3
974,Left,1,44,70,226.0,0.333333,Triplet,G#2
976,Left,1,42,70,226.5,0.333333,Triplet,F#2
977,Right,0,56,70,227.0,0.989583,Quarter,G#3_E4_B3
979,Left,1,40,70,227.0,0.666667,DottedEighth,E2
981,Right,0,59,70,229.0,0.989583,Quarter,G#3_B3
983,Left,1,40,70,229.0,0.989583,Quarter,E2
986,Left,1,40,70,231.0,0.989583,Quarter,E2
984,Right,0,52,70,231.0,0.989583,Quarter,G#3_E3
988,Right,0,81,80,234.5,0.489583,Eighth,A5_A4
987,Left,1,57,80,234.5,0.489583,Eighth,A3
992,Left,1,52,80,235.0,0.989583,Quarter,E3
990,Right,0,76,80,235.0,0.989583,Quarter,E5_E4
994,Left,1,52,80,236.5,0.114583,ThirtySecond,E3
993,Right,0,64,80,236.5,0.114583,ThirtySecond,E4
995,Left,1,50,80,236.625,0.114583,ThirtySecond,D3
996,Right,0,62,80,236.625,0.114583,ThirtySecond,D4
998,Right,0,61,80,236.75,0.114583,ThirtySecond,C#4
997,Left,1,49,80,236.75,0.114583,ThirtySecond,C#3
1000,Right,0,59,80,236.875,0.114583,ThirtySecond,B3
999,Left,1,47,80,236.875,0.114583,ThirtySecond,B2
1002,Right,0,57,80,237.0,0.989583,Quarter,A3
1001,Left,1,45,80,237.0,0.989583,Quarter,A2
1004,Right,0,81,80,238.5,0.489583,Eighth,A5_A4
1003,Left,1,57,80,238.5,0.489583,Eighth,A3
1007,Left,1,54,80,239.0,0.989583,Quarter,F#3
1006,Right,0,78,80,239.0,0.989583,Quarter,F#5_F#4
1009,Right,0,66,80,240.5,0.114583,ThirtySecond,F#4
1010,Left,1,54,80,240.5,0.114583,ThirtySecond,F#3
1011,Right,0,64,80,240.625,0.114583,ThirtySecond,E4
1012,Left,1,52,80,240.625,0.114583,ThirtySecond,E3
1013,Right,0,62,80,240.75,0.114583,ThirtySecond,D4
1014,Left,1,50,80,240.75,0.114583,ThirtySecond,D3
1015,Right,0,61,80,240.875,0.114583,ThirtySecond,C#4
1016,Left,1,49,80,240.875,0.114583,ThirtySecond,C#3
1018,Right,0,59,80,241.0,0.989583,Quarter,B3
1017,Left,1,47,80,241.0,0.989583,Quarter,B2
1019,Right,0,86,80,242.5,0.489583,Eighth,D6_D5
1020,Left,1,62,80,242.5,0.489583,Eighth,D4
1022,Right,0,83,80,243.0,0.989583,Quarter,B5_B4
1023,Left,1,59,80,243.0,0.989583,Quarter,B3
1026,Right,0,68,80,244.0,0.989583,Quarter,G#5_G#4
1025,Left,1,56,80,244.0,0.989583,Quarter,G#3
1029,Right,0,64,80,245.0,0.989583,Quarter,E5_E4
1028,Left,1,52,80,245.0,0.989583,Quarter,E3
1031,Left,1,50,80,246.0,0.989583,Quarter,D3
1032,Right,0,74,80,246.0,0.989583,Quarter,D5_D4
1036,Left,1,47,80,247.0,0.989583,Quarter,B2
1034,Right,0,71,80,247.0,0.989583,Quarter,B4_B3
1039,Left,1,44,80,248.0,0.989583,Quarter,G#2
1037,Right,0,56,80,248.0,0.989583,Quarter,G#4_G#3
1040,Right,0,64,80,249.0,0.989583,Quarter,E4_E3
1042,Left,1,40,80,249.0,0.989583,Quarter,E2
1043,Right,0,57,80,250.5,0.15625,TripletSixteenth,A3
1044,Right,0,61,80,250.666667,0.15625,TripletSixteenth,C#4
1045,Right,0,64,80,250.833333,0.15625,TripletSixteenth,E4
1046,Right,0,69,100,251.0,0.489583,Eighth,A4
1047,Left,1,45,100,251.0,0.989583,Quarter,A2
1048,Left,1,49,80,251.166667,0.822917,DottedEighth,C#3
1049,Left,1,52,80,251.333333,0.65625,DottedEighth,E3
1050,Right,0,71,80,251.5,0.489583,Eighth,B4
1051,Left,1,57,80,251.5,0.15625,TripletSixteenth,A3
1052,Right,0,73,80,252.0,0.489583,Eighth,C#5
1053,Right,0,74,80,252.5,0.489583,Eighth,D5
1054,Right,0,76,80,253.0,0.489583,Eighth,E5
1055,Right,0,78,80,253.5,0.489583,Eighth,F#5
1056,Right,0,80,80,254.0,0.489583,Eighth,G#5
1057,Right,0,81,80,254.5,0.489583,Eighth,A5
1058,Right,0,76,80,255.0,1.489583,DottedQuarter,E5
1059,Left,1,52,80,255.5,0.489583,Eighth,E3
1060,Right,0,68,80,255.5,0.489583,Eighth,G#4
1061,Left,1,54,80,256.0,0.489583,Eighth,F#3
1062,Right,0,69,80,256.0,0.489583,Eighth,A4
1064,Left,1,56,80,256.5,0.489583,Eighth,G#3
1063,Right,0,71,80,256.5,0.489583,Eighth,D5_B4
1067,Right,0,73,80,257.0,0.489583,Eighth,E4_C#5
1066,Left,1,57,80,257.0,0.489583,Eighth,A3
1069,Left,1,45,80,257.5,0.489583,Eighth,A2
1070,Left,1,49,80,258.0,0.489583,Eighth,C#3
1071,Left,1,50,80,258.5,0.489583,Eighth,D3
1072,Left,1,52,80,259.0,1.489583,DottedQuarter,E3
1073,Right,0,64,80,259.5,0.489583,Eighth,G#3_E4
1075,Right,0,57,80,260.0,0.489583,Eighth,F#4_A3
1077,Right,0,59,80,260.5,0.489583,Eighth,G#4_B3
1079,Left,1,50,80,260.5,0.489583,Eighth,D3
1080,Left,1,49,80,261.0,0.489583,Eighth,C#3
1081,Right,0,61,80,261.0,0.489583,Eighth,C#4_A4
1083,Right,0,64,80,261.5,0.489583,Eighth,E4
1084,Left,1,52,80,261.5,0.489583,Eighth,E3
1085,Left,1,49,80,262.0,0.489583,Eighth,C#3
1086,Right,0,69,80,262.0,0.489583,Eighth,A4
1087,Right,0,73,80,262.5,0.489583,Eighth,C#5
1088,Left,1,45,80,262.5,0.489583,Eighth,A2
1091,Left,1,44,80,263.0,0.489583,Eighth,G#2
1089,Right,0,76,80,263.0,1.489583,DottedQuarter,E5_B4
1093,Right,0,68,80,263.5,0.489583,Eighth,G#4
1092,Left,1,40,80,263.5,0.489583,Eighth,E2
1094,Right,0,69,80,264.0,0.489583,Eighth,A4
1095,Left,1,42,80,264.0,0.489583,Eighth,F#2
1097,Right,0,74,80,264.5,0.489583,Eighth,D5_B4
1096,Left,1,44,80,264.5,0.489583,Eighth,G#2
1100,Right,0,64,80,265.0,1.489583,DottedQuarter,E4_C#5
1099,Left,1,45,80,265.0,0.489583,Eighth,A2
1103,Left,1,44,80,265.5,0.489583,Eighth,G#2
1102,Right,0,71,80,265.5,0.489583,Eighth,B4
1104,Right,0,69,80,266.0,0.489583,Eighth,A4
1105,Left,1,42,80,266.0,0.489583,Eighth,F#2
1108,Left,1,47,80,266.5,0.489583,Eighth,B2
1106,Right,0,71,80,266.5,0.489583,Eighth,D#4_B4
1109,Left,1,52,70,267.0,1.989583,Eighth,E3_E2
1111,Right,0,68,70,267.0,0.989583,Eighth,G#4_B3
1113,Left,1,47,70,267.5,0.489583,Eighth,B2
1114,Right,0,64,70,267.5,0.489583,Eighth,E4
1115,Right,0,69,70,268.0,0.989583,Quarter,D#4_A4_A3
1116,Left,1,54,70,268.0,0.489583,Eighth,F#3
1119,Left,1,47,70,268.5,0.489583,Eighth,B2
1120,Right,0,71,70,268.5,0.489583,Eighth,B4
1123,Right,0,68,70,269.0,0.989583,Eighth,G#4_B3
1121,Left,1,52,70,269.0,1.989583,Eighth,E3_E2
1125,Left,1,47,70,269.5,0.489583,Eighth,B2
1126,Right,0,64,70,269.5,0.489583,Eighth,E4
1128,Right,0,69,70,270.0,0.989583,Quarter,D#4_A4_A3
1127,Left,1,54,70,270.0,0.489583,Eighth,F#3
1131,Left,1,47,70,270.5,0.489583,Eighth,B2
1132,Right,0,71,70,270.5,0.489583,Eighth,B4
1136,Left,1,52,70,271.0,0.989583,Quarter,E3_E2
1133,Right,0,68,70,271.0,0.989583,Quarter,G#4_E4_B3
1141,Left,1,40,70,272.0,0.989583,Quarter,E2
1138,Right,0,64,70,272.0,0.989583,Quarter,G#3_E4_B3
1142,Left,1,40,70,273.0,0.989583,Quarter,E2
1143,Right,0,64,70,273.0,0.989583,Quarter,G#3_E4_B3
1146,Left,1,57,100,274.5,0.489583,Eighth,A3
1147,Right,0,69,100,274.5,0.489583,Eighth,A5_A4
1149,Right,0,76,100,275.0,0.989583,Quarter,E5_E4
1150,Left,1,52,100,275.0,0.989583,Quarter,E3
1153,Right,0,64,100,276.5,0.114583,ThirtySecond,E4
1152,Left,1,52,100,276.5,0.114583,ThirtySecond,E3
1155,Right,0,62,100,276.625,0.114583,ThirtySecond,D4
1154,Left,1,50,100,276.625,0.114583,ThirtySecond,D3
1156,Right,0,61,100,276.75,0.114583,ThirtySecond,C#4
1157,Left,1,49,100,276.75,0.114583,ThirtySecond,C#3
1159,Right,0,59,100,276.875,0.114583,ThirtySecond,B3
1158,Left,1,47,100,276.875,0.114583,ThirtySecond,B2
1161,Left,1,45,100,277.0,0.989583,Quarter,A2
1160,Right,0,57,100,277.0,0.989583,Quarter,A3
1162,Left,1,33,100,278.5,0.322917,Triplet,A1
1163,Left,1,37,100,278.666667,0.322917,Triplet,C#2
1164,Left,1,40,100,278.833333,0.15625,TripletSixteenth,E2
1165,Left,1,45,100,279.0,0.489583,Eighth,A2
1166,Left,1,47,80,279.5,0.489583,Eighth,B2
1167,Left,1,49,80,280.0,0.489583,Eighth,C#3
1168,Left,1,50,80,280.5,0.489583,Eighth,D3
1169,Left,1,52,80,281.0,0.489583,Eighth,E3
1170,Left,1,54,80,281.5,0.489583,Eighth,F#3
1171,Left,1,56,80,282.0,0.489583,Eighth,G#3
1172,Left,1,57,80,282.5,0.489583,Eighth,A3
1173,Left,1,52,110,283.0,1.489583,DottedQuarter,E3
1174,Right,0,56,80,283.5,0.489583,Eighth,G#3_E4
1176,Right,0,57,80,284.0,0.489583,Eighth,F#4_A3
1178,Left,1,50,80,284.5,0.489583,Eighth,D3
1179,Right,0,68,80,284.5,0.489583,Eighth,G#4_B3
1181,Right,0,61,80,285.0,0.489583,Eighth,C#4_A4
1183,Left,1,49,80,285.0,0.489583,Eighth,C#3
1185,Right,0,64,80,285.5,0.489583,Eighth,E4
1184,Left,1,52,80,285.5,0.489583,Eighth,E3
1187,Right,0,69,80,286.0,0.489583,Eighth,A4
1186,Left,1,49,80,286.0,0.489583,Eighth,C#3
1188,Left,1,45,80,286.5,0.489583,Eighth,A2
1189,Right,0,73,80,286.5,0.489583,Eighth,C#5
1191,Left,1,44,80,287.0,0.489583,Eighth,G#2
1190,Right,0,76,106,287.0,1.489583,DottedQuarter,E5_B4
1194,Left,1,52,80,287.5,0.489583,Eighth,E3
1193,Right,0,68,80,287.5,0.489583,Eighth,G#4
1195,Left,1,54,80,288.0,0.489583,Eighth,F#3
1196,Right,0,69,80,288.0,0.489583,Eighth,A4
1199,Left,1,56,80,288.5,0.489583,Eighth,G#3
1197,Right,0,71,80,288.5,0.489583,Eighth,D5_B4
1202,Left,1,57,80,289.0,0.489583,Eighth,A3
1200,Right,0,64,80,289.0,0.989583,Quarter,E4_C#5
1203,Left,1,52,80,289.5,0.489583,Eighth,E3
1204,Left,1,57,80,290.0,0.489583,Eighth,A3
1205,Left,1,61,80,290.5,0.489583,Eighth,C#4
1206,Left,1,64,104,291.0,1.489583,DottedQuarter,E4
1207,Right,0,76,80,291.5,0.489583,Eighth,G#4_E5
1209,Right,0,69,80,292.0,0.489583,Eighth,F#5_A4
1213,Left,1,62,80,292.5,0.489583,Eighth,D4
1211,Right,0,80,80,292.5,0.489583,Eighth,G#5_B4
1214,Right,0,81,80,293.0,0.489583,Eighth,C#5_A5
1216,Left,1,61,80,293.0,0.489583,Eighth,C#4
1218,Left,1,56,80,293.5,0.489583,Eighth,G#3
1217,Right,0,76,80,293.5,0.989583,Quarter,E5_B5
1220,Left,1,57,80,294.0,0.489583,Eighth,A3
1221,Right,0,85,80,294.0,0.489583,Eighth,C#6
1222,Left,1,54,80,294.5,0.489583,Eighth,F#3
1223,Right,0,86,80,294.5,0.489583,Eighth,D6_A5
1227,Left,1,52,80,295.0,0.989583,Quarter,E3
1225,Right,0,88,80,295.0,0.989583,Quarter,E6_C#6
1229,Right,0,80,80,296.0,0.989583,Quarter,G#5_E5_D5_B4
1228,Left,1,40,80,296.0,0.989583,Quarter,E2
1233,Right,0,76,110,297.0,0.989583,Quarter,E5_C#5_A5
1234,Left,1,45,110,297.0,0.322917,Triplet,A2
1237,Left,1,49,110,297.166667,0.322917,Triplet,C#3
1238,Left,1,50,110,297.333333,0.322917,Triplet,D3
1239,Left,1,52,110,297.5,0.322917,Triplet,E3
1240,Left,1,54,110,297.666667,0.322917,Triplet,F#3
1241,Left,1,56,110,297.833333,0.322917,Triplet,G#3
1242,Left,1,57,110,298.0,0.322917,Triplet,A3
1243,Left,1,61,110,298.166667,0.322917,Triplet,C#4
1244,Left,1,62,110,298.333333,0.322917,Triplet,D4
1245,Left,1,64,110,298.5,0.322917,Triplet,E4
1246,Left,1,66,110,298.666667,0.322917,Triplet,F#4
1247,Left,1,68,110,298.833333,0.15625,TripletSixteenth,G#4
1248,Left,1,69,110,299.0,0.489583,Eighth,A4
1249,Left,1,68,110,299.5,0.489583,Eighth,G#4
1250,Left,1,66,110,300.0,0.489583,Eighth,F#4
1251,Left,1,64,110,300.5,0.489583,Eighth,E4
1253,Left,1,62,110,301.0,0.489583,Eighth,D4
1252,Right,0,64,110,301.0,0.322917,Triplet,E4
1254,Right,0,68,110,301.166667,0.322917,Triplet,G#4
1255,Right,0,69,110,301.333333,0.322917,Triplet,A4
1257,Left,1,61,110,301.5,0.489583,Eighth,C#4
1256,Right,0,71,110,301.5,0.322917,Triplet,B4
1258,Right,0,73,110,301.666667,0.322917,Triplet,C#5
1259,Right,0,74,110,301.833333,0.322917,Triplet,D5
1260,Right,0,76,110,302.0,0.322917,Triplet,E5
1261,Left,1,59,110,302.0,0.489583,Eighth,B3
1262,Right,0,80,110,302.166667,0.322917,Triplet,G#5
1263,Right,0,81,110,302.333333,0.322917,Triplet,A5
1264,Left,1,57,110,302.5,0.489583,Eighth,A3
1265,Right,0,83,110,302.5,0.322917,Triplet,B5
1266,Right,0,85,110,302.666667,0.322917,Triplet,C#6
1267,Right,0,86,110,302.833333,0.15625,TripletSixteenth,D6
1268,Left,1,56,110,303.0,0.489583,Eighth,G#3
1269,Right,0,88,110,303.0,0.489583,Eighth,E6
1270,Right,0,86,110,303.5,0.489583,Eighth,D6
1271,Left,1,54,110,303.5,0.489583,Eighth,F#3
1273,Right,0,85,110,304.0,0.489583,Eighth,C#6
1272,Left,1,52,110,304.0,0.489583,Eighth,E3
1275,Left,1,50,110,304.5,0.489583,Eighth,D3
1274,Right,0,83,110,304.5,0.489583,Eighth,B5
1277,Right,0,81,110,305.0,0.989583,Quarter,A5
1276,Left,1,49,110,305.0,0.322917,Triplet,C#3
1278,Left,1,52,110,305.166667,0.322917,Triplet,E3
1279,Left,1,54,110,305.333333,0.322917,Triplet,F#3
1280,Left,1,56,110,305.5,0.322917,Triplet,G#3
1281,Left,1,57,110,305.666667,0.322917,Triplet,A3
1282,Left,1,59,110,305.833333,0.322917,Triplet,B3
1283,Left,1,61,110,306.0,0.322917,Triplet,C#4
1284,Left,1,64,110,306.166667,0.322917,Triplet,E4
1285,Left,1,66,110,306.333333,0.322917,Triplet,F#4
1286,Left,1,68,110,306.5,0.322917,Triplet,G#4
1287,Left,1,69,110,306.666667,0.322917,Triplet,A4
1288,Left,1,71,110,306.833333,0.15625,TripletSixteenth,B4
1289,Left,1,73,110,307.0,0.489583,Eighth,C#5
1290,Left,1,71,110,307.5,0.489583,Eighth,B4
1291,Left,1,69,110,308.0,0.489583,Eighth,A4
1292,Left,1,68,110,308.5,0.489583,Eighth,G#4
1293,Left,1,69,110,309.0,0.489583,Eighth,A4
1294,Right,0,71,110,309.166667,0.322917,Triplet,B4
1295,Right,0,73,110,309.333333,0.322917,Triplet,C#5
1297,Left,1,68,110,309.5,0.489583,Eighth,G#4
1296,Right,0,75,110,309.5,0.322917,Triplet,D#5
1298,Right,0,76,110,309.666667,0.322917,Triplet,E5
1299,Right,0,77,110,309.833333,0.322917,Triplet,F5
1300,Left,1,66,110,310.0,0.489583,Eighth,F#4
1301,Right,0,78,110,310.0,0.322917,Triplet,F#5
1302,Right,0,75,110,310.166667,0.322917,Triplet,D#5
1303,Right,0,76,110,310.333333,0.322917,Triplet,E5
1304,Left,1,64,110,310.5,0.489583,Eighth,E4
1305,Right,0,78,110,310.5,0.322917,Triplet,F#5
1306,Right,0,80,110,310.666667,0.322917,Triplet,G#5
1307,Right,0,81,110,310.833333,0.15625,TripletSixteenth,A5
1308,Left,1,63,120,311.0,0.489583,Eighth,D#4
1309,Right,0,83,120,311.0,0.489583,Eighth,B5
1311,Left,1,61,120,311.5,0.489583,Eighth,C#4
1310,Right,0,81,120,311.5,0.489583,Eighth,A5
1313,Left,1,59,120,312.0,0.489583,Eighth,B3
1312,Right,0,80,120,312.0,0.489583,Eighth,G#5
1315,Left,1,57,120,312.5,0.489583,Eighth,A3
1314,Right,0,78,120,312.5,0.489583,Eighth,F#5
1317,Left,1,56,120,313.0,0.489583,Eighth,G#3
1316,Right,0,76,120,313.0,0.489583,Eighth,E5
1318,Left,1,54,120,313.5,0.489583,Eighth,F#3
1319,Right,0,75,120,313.5,0.489583,Eighth,D#5
1321,Right,0,73,120,314.0,0.489583,Eighth,C#5
1320,Left,1,52,120,314.0,0.489583,Eighth,E3
1322,Left,1,51,120,314.5,0.489583,Eighth,D#3
1323,Right,0,71,120,314.5,0.489583,Eighth,B4
1324,Left,1,49,120,315.0,0.489583,Eighth,C#3
1325,Right,0,70,120,315.0,0.489583,Eighth,A#4
1326,Right,0,68,120,315.5,0.489583,Eighth,G#4
1327,Left,1,47,120,315.5,0.489583,Eighth,B2
1329,Left,1,46,120,316.0,0.489583,Eighth,A#2
1328,Right,0,66,120,316.0,0.489583,Eighth,F#4
1331,Right,0,64,120,316.5,0.489583,Eighth,E4
1330,Left,1,42,120,316.5,0.489583,Eighth,F#2
1332,Right,0,63,80,317.0,0.989583,Quarter,D#4
1333,Left,1,47,80,317.0,3.989583,Whole,B2
1334,Right,0,61,80,317.5,0.489583,Eighth,C#4
1335,Right,0,59,80,318.0,0.989583,Eighth,D#4_B3
1337,Right,0,57,80,318.5,0.489583,Eighth,A3
1338,Right,0,56,80,319.0,0.989583,Eighth,G#3_E4
1340,Right,0,54,80,319.5,0.489583,Eighth,F#3
1341,Right,0,52,80,320.0,0.989583,Eighth,E3_A#3
1343,Right,0,54,80,320.5,0.489583,Eighth,F#3
1344,Right,0,59,80,321.0,0.989583,Quarter,D#3_B3
1346,Left,1,35,80,321.0,4.489583,Whole,B1
1347,Right,0,49,80,321.5,0.489583,Eighth,C#3
1348,Right,0,47,80,322.0,0.989583,Eighth,D#3_B2
1350,Right,0,45,80,322.5,0.489583,Eighth,A2
1351,Right,0,52,80,323.0,0.989583,Quarter,G#2_E3
1353,Right,0,42,80,323.5,0.489583,Eighth,F#2
1354,Right,0,40,80,324.0,0.989583,Eighth,E2_A#2
1356,Right,0,42,80,324.5,0.489583,Eighth,F#2
1357,Right,0,39,80,325.0,0.989583,Quarter,D#2_B2
1359,Left,1,39,80,325.5,0.489583,Eighth,D#2
1360,Left,1,42,80,326.0,0.489583,Eighth,F#2
1361,Left,1,46,80,326.5,0.489583,Eighth,A#2
1362,Left,1,47,80,327.0,0.489583,Eighth,B2
1363,Left,1,51,80,327.5,0.489583,Eighth,D#3
1364,Left,1,54,80,328.0,0.489583,Eighth,F#3
1365,Left,1,58,80,328.5,0.489583,Eighth,A#3
1366,Left,1,59,80,329.0,0.489583,Eighth,B3
1367,Left,1,58,80,329.5,0.489583,Eighth,A#3
1368,Left,1,59,80,330.0,0.489583,Eighth,B3
1369,Right,0,59,80,330.5,0.489583,Eighth,B3
1370,Right,0,60,80,331.0,0.489583,Eighth,C4
1371,Right,0,59,80,331.5,0.489583,Eighth,B3
1372,Right,0,66,80,332.0,0.489583,Eighth,F#4
1373,Right,0,63,80,332.5,0.489583,Eighth,D#4
1374,Left,1,57,80,333.0,0.489583,Eighth,A3
1375,Left,1,56,80,333.5,0.489583,Eighth,G#3
1376,Left,1,57,80,334.0,0.489583,Eighth,A3
1377,Right,0,59,80,334.5,0.489583,Eighth,B3
1378,Right,0,60,80,335.0,0.489583,Eighth,C4
1379,Right,0,59,80,335.5,0.489583,Eighth,B3
1380,Right,0,66,80,336.0,0.489583,Eighth,F#4
1381,Right,0,63,80,336.5,0.489583,Eighth,D#4
1382,Left,1,55,80,337.0,0.489583,Eighth,G3
1383,Left,1,54,80,337.5,0.489583,Eighth,F#3
1384,Left,1,55,80,338.0,0.489583,Eighth,G3
1385,Right,0,59,80,338.5,0.489583,Eighth,B3
1386,Right,0,60,80,339.0,0.489583,Eighth,C4
1387,Right,0,59,80,339.5,0.489583,Eighth,B3
1388,Right,0,67,80,340.0,0.489583,Eighth,G4
1389,Right,0,64,80,340.5,0.489583,Eighth,E4
1390,Left,1,51,80,341.0,7.989583,Unknown,D#3
1391,Left,1,54,80,341.5,7.489583,Unknown,F#3
1392,Left,1,57,80,342.0,4.989583,Unknown,A3
1393,Left,1,59,80,342.5,0.489583,Eighth,B3
1395,Right,0,63,100,343.0,0.489583,Eighth,D#4
1394,Left,1,60,100,343.0,3.989583,Whole,C4
1396,Right,0,66,100,343.5,0.489583,Eighth,F#4
1397,Right,0,69,100,344.0,0.489583,Eighth,A4
1398,Right,0,71,100,344.5,0.489583,Eighth,B4
1399,Right,0,72,100,345.0,0.489583,Eighth,C5
1400,Right,0,71,100,345.5,0.489583,Eighth,B4
1401,Right,0,74,100,346.0,0.489583,Eighth,D5
1402,Right,0,72,100,346.5,0.489583,Eighth,C5
1404,Right,0,71,100,347.0,0.489583,Eighth,B4
1403,Left,1,59,100,347.0,0.989583,Quarter,B3
1405,Right,0,69,100,347.5,0.489583,Eighth,A4
1406,Right,0,67,100,348.0,0.489583,Eighth,G4
1407,Left,1,57,100,348.0,0.989583,Quarter,A3
1408,Right,0,66,100,348.5,0.489583,Eighth,F#4
1410,Left,1,55,100,349.0,0.239583,Sixteenth,G3_E3
1409,Right,0,64,100,349.0,0.989583,Quarter,E4
1412,Left,1,59,100,349.25,0.239583,Sixteenth,B3
1413,Left,1,52,100,349.5,0.239583,Sixteenth,G3_E3
1415,Left,1,59,100,349.75,0.239583,Sixteenth,B3
1416,Left,1,55,100,350.0,0.239583,Sixteenth,G3_E3
1418,Left,1,59,100,350.25,0.239583,Sixteenth,B3
1420,Left,1,55,100,350.5,0.239583,Sixteenth,G3_E3
1419,Right,0,76,100,350.5,0.489583,Eighth,E5
1422,Left,1,59,100,350.75,0.239583,Sixteenth,B3
1423,Left,1,55,100,351.0,0.239583,Sixteenth,G3_E3
1425,Right,0,75,100,351.0,0.489583,Eighth,D#5
1426,Left,1,59,100,351.25,0.239583,Sixteenth,B3
1427,Left,1,55,100,351.5,0.239583,Sixteenth,G3_E3
1429,Right,0,76,100,351.5,0.489583,Eighth,E5
1430,Left,1,59,100,351.75,0.239583,Sixteenth,B3
1433,Right,0,79,100,352.0,0.489583,Eighth,G5
1431,Left,1,55,100,352.0,0.239583,Sixteenth,G3_E3
1434,Left,1,59,100,352.25,0.239583,Sixteenth,B3
1436,Right,0,76,100,352.5,0.489583,Eighth,E5
1435,Left,1,52,100,352.5,0.239583,Sixteenth,G3_E3
1438,Left,1,59,100,352.75,0.239583,Sixteenth,B3
1440,Right,0,76,100,353.0,0.739583,DottedEighth,E5
1439,Left,1,54,100,353.0,0.239583,Sixteenth,F#3_A3
1442,Left,1,59,100,353.25,0.239583,Sixteenth,B3
1443,Left,1,54,100,353.5,0.239583,Sixteenth,F#3_A3
1446,Left,1,60,100,353.75,0.239583,Sixteenth,C4
1445,Right,0,78,100,353.75,0.114583,ThirtySecond,F#5
1447,Right,0,76,100,353.875,0.114583,ThirtySecond,E5
1449,Left,1,54,100,354.0,0.239583,Sixteenth,F#3_A3
1448,Right,0,75,100,354.0,1.989583,Half,D#5
1451,Left,1,60,100,354.25,0.239583,Sixteenth,C4
1452,Left,1,54,100,354.5,0.239583,Sixteenth,F#3_A3
1454,Left,1,60,100,354.75,0.239583,Sixteenth,C4
1455,Left,1,57,100,355.0,0.239583,Sixteenth,F#3_A3
1457,Left,1,60,100,355.25,0.239583,Sixteenth,C4
1458,Left,1,57,100,355.5,0.239583,Sixteenth,F#3_A3
1460,Left,1,60,100,355.75,0.239583,Sixteenth,C4
1461,Right,0,74,100,356.0,0.989583,Quarter,D5
1462,Left,1,57,100,356.0,0.239583,Sixteenth,F#3_A3
1464,Left,1,60,100,356.25,0.239583,Sixteenth,C4
1465,Left,1,57,100,356.5,0.239583,Sixteenth,F#3_A3
1467,Left,1,60,100,356.75,0.239583,Sixteenth,C4
1468,Left,1,59,100,357.0,0.239583,Sixteenth,G3_B3
1470,Right,0,74,100,357.0,1.489583,DottedQuarter,D5
1471,Left,1,60,100,357.25,0.239583,Sixteenth,C4
1472,Left,1,59,100,357.5,0.239583,Sixteenth,G3_B3
1474,Left,1,62,100,357.75,0.239583,Sixteenth,D4
1475,Left,1,55,100,358.0,0.239583,Sixteenth,G3_B3
1477,Left,1,62,100,358.25,0.239583,Sixteenth,D4
1480,Right,0,79,100,358.5,0.489583,Eighth,G5
1478,Left,1,59,100,358.5,0.239583,Sixteenth,G3_B3
1481,Left,1,62,100,358.75,0.239583,Sixteenth,D4
1483,Left,1,59,100,359.0,0.239583,Sixteenth,G3_B3
1482,Right,0,78,100,359.0,0.489583,Eighth,F#5
1485,Left,1,62,100,359.25,0.239583,Sixteenth,D4
1486,Left,1,59,100,359.5,0.239583,Sixteenth,G3_B3
1487,Right,0,79,100,359.5,0.489583,Eighth,G5
1489,Left,1,62,100,359.75,0.239583,Sixteenth,D4
1492,Right,0,83,100,360.0,0.489583,Eighth,B5
1490,Left,1,55,100,360.0,0.239583,Sixteenth,G3_B3
1493,Left,1,62,100,360.25,0.239583,Sixteenth,D4
1494,Right,0,79,100,360.5,0.489583,Eighth,G5
1495,Left,1,59,100,360.5,0.239583,Sixteenth,G3_B3
1497,Left,1,62,100,360.75,0.239583,Sixteenth,D4
1500,Right,0,79,100,361.0,0.739583,DottedEighth,G5
1498,Left,1,60,100,361.0,0.239583,Sixteenth,C4_A3
1501,Left,1,62,100,361.25,0.239583,Sixteenth,D4
1502,Left,1,57,100,361.5,0.239583,Sixteenth,C4_A3
1504,Left,1,63,100,361.75,0.239583,Sixteenth,D#4
1505,Right,0,81,100,361.75,0.114583,ThirtySecond,A5
1506,Right,0,79,100,361.875,0.114583,ThirtySecond,G5
1507,Left,1,60,100,362.0,0.239583,Sixteenth,C4_A3
1509,Right,0,78,100,362.0,1.989583,Half,F#5
1510,Left,1,63,100,362.25,0.239583,Sixteenth,D#4
1511,Left,1,60,100,362.5,0.239583,Sixteenth,C4_A3
1513,Left,1,63,100,362.75,0.239583,Sixteenth,D#4
1514,Left,1,57,100,363.0,0.239583,Sixteenth,C4_A3
1516,Left,1,63,100,363.25,0.239583,Sixteenth,D#4
1517,Left,1,57,100,363.5,0.239583,Sixteenth,C4_A3
1519,Left,1,63,100,363.75,0.239583,Sixteenth,D#4
1522,Right,0,77,100,364.0,0.989583,Quarter,F5
1520,Left,1,57,100,364.0,0.239583,Sixteenth,C4_A3
1523,Left,1,63,100,364.25,0.239583,Sixteenth,D#4
1524,Left,1,57,100,364.5,0.239583,Sixteenth,C4_A3
1526,Left,1,63,100,364.75,0.239583,Sixteenth,D#4
1529,Right,0,77,100,365.0,1.489583,DottedQuarter,F5
1527,Left,1,58,100,365.0,0.239583,Sixteenth,D4_A#3
1530,Left,1,63,100,365.25,0.239583,Sixteenth,D#4
1531,Left,1,58,100,365.5,0.239583,Sixteenth,D4_A#3
1533,Left,1,65,100,365.75,0.239583,Sixteenth,F4
1534,Left,1,58,100,366.0,0.239583,Sixteenth,D4_A#3
1536,Left,1,65,100,366.25,0.239583,Sixteenth,F4
1537,Right,0,82,100,366.5,0.489583,Eighth,A#5
1538,Left,1,62,100,366.5,0.239583,Sixteenth,D4_A#3
1540,Left,1,65,100,366.75,0.239583,Sixteenth,F4
1543,Right,0,81,100,367.0,0.489583,Eighth,A5
1541,Left,1,58,100,367.0,0.239583,Sixteenth,D4_A#3
1544,Left,1,65,100,367.25,0.239583,Sixteenth,F4
1547,Right,0,82,100,367.5,0.489583,Eighth,A#5
1545,Left,1,62,100,367.5,0.239583,Sixteenth,D4_A#3
1548,Left,1,65,100,367.75,0.239583,Sixteenth,F4
1549,Right,0,86,100,368.0,0.489583,Eighth,D6
1550,Left,1,62,100,368.0,0.239583,Sixteenth,D4_A#3
1552,Left,1,65,100,368.25,0.239583,Sixteenth,F4
1553,Right,0,82,100,368.5,0.489583,Eighth,A#5
1554,Left,1,62,100,368.5,0.239583,Sixteenth,D4_A#3
1556,Left,1,65,100,368.75,0.239583,Sixteenth,F4
1557,Left,1,63,100,369.0,0.239583,Sixteenth,D#4_C4
1558,Right,0,82,100,369.0,0.739583,DottedEighth,A#5
1560,Left,1,65,100,369.25,0.239583,Sixteenth,F4
1561,Left,1,63,100,369.5,0.239583,Sixteenth,D#4_C4
1564,Left,1,66,100,369.75,0.239583,Sixteenth,F#4
1563,Right,0,84,100,369.75,0.114583,ThirtySecond,C6
1565,Right,0,82,100,369.875,0.114583,ThirtySecond,A#5
1567,Left,1,60,100,370.0,0.239583,Sixteenth,D#4_C4
1566,Right,0,81,100,370.0,1.989583,Half,A5
1569,Left,1,66,100,370.25,0.239583,Sixteenth,F#4
1570,Left,1,60,100,370.5,0.239583,Sixteenth,D#4_C4
1572,Left,1,66,100,370.75,0.239583,Sixteenth,F#4
1573,Left,1,61,100,371.0,0.239583,Sixteenth,E4_C#4
1575,Left,1,66,100,371.25,0.239583,Sixteenth,F#4
1576,Left,1,64,100,371.5,0.239583,Sixteenth,E4_C#4
1578,Left,1,67,100,371.75,0.239583,Sixteenth,G4
1579,Right,0,81,100,372.0,0.989583,Quarter,A5
1580,Left,1,61,100,372.0,0.239583,Sixteenth,E4_C#4
1582,Left,1,67,100,372.25,0.239583,Sixteenth,G4
1583,Left,1,61,100,372.5,0.239583,Sixteenth,E4_C#4
1585,Left,1,67,100,372.75,0.239583,Sixteenth,G4
1588,Right,0,81,100,373.0,0.489583,Eighth,A5
1586,Left,1,66,100,373.0,0.239583,Sixteenth,F#4_D4
1589,Left,1,67,100,373.25,0.239583,Sixteenth,G4
1590,Left,1,62,100,373.5,0.239583,Sixteenth,F#4_D4
1591,Right,0,83,100,373.5,0.239583,Sixteenth,B5
1593,Right,0,81,100,373.625,0.239583,Sixteenth,A5
1595,Right,0,80,100,373.75,0.239583,Sixteenth,G#5
1594,Left,1,69,100,373.75,0.239583,Sixteenth,A4
1596,Right,0,81,100,373.875,0.114583,ThirtySecond,A5
1597,Right,0,72,100,374.0,1.989583,Half,C6_C5
1599,Left,1,66,100,374.0,0.239583,Sixteenth,F#4_D4
1601,Left,1,69,100,374.25,0.239583,Sixteenth,A4
1602,Left,1,66,100,374.5,0.239583,Sixteenth,F#4_D4
1604,Left,1,69,100,374.75,0.239583,Sixteenth,A4
1605,Left,1,66,100,375.0,0.239583,Sixteenth,F#4_D#4
1607,Left,1,69,100,375.25,0.239583,Sixteenth,A4
1608,Left,1,66,100,375.5,0.239583,Sixteenth,F#4_D#4
1610,Left,1,69,100,375.75,0.239583,Sixteenth,A4
1612,Right,0,83,100,376.0,0.989583,Quarter,B5_B4
1611,Left,1,66,100,376.0,0.239583,Sixteenth,F#4_D#4
1615,Left,1,69,100,376.25,0.239583,Sixteenth,A4
1616,Left,1,63,100,376.5,0.239583,Sixteenth,F#4_D#4
1618,Left,1,69,100,376.75,0.239583,Sixteenth,A4
1620,Left,1,64,100,377.0,0.239583,Sixteenth,G#4_E4
1619,Right,0,83,100,377.0,0.489583,Eighth,B5
1622,Left,1,69,100,377.25,0.239583,Sixteenth,A4
1624,Left,1,68,100,377.5,0.239583,Sixteenth,G#4_E4
1623,Right,0,85,100,377.5,0.239583,Sixteenth,C#6
1626,Right,0,83,100,377.625,0.239583,Sixteenth,B5
1628,Left,1,71,100,377.75,0.239583,Sixteenth,B4
1627,Right,0,82,100,377.75,0.239583,Sixteenth,A#5
1629,Right,0,83,100,377.875,0.114583,ThirtySecond,B5
1630,Right,0,74,100,378.0,1.989583,Half,D6_D5
1632,Left,1,64,100,378.0,0.239583,Sixteenth,G#4_E4
1634,Left,1,71,100,378.25,0.239583,Sixteenth,B4
1635,Left,1,64,100,378.5,0.239583,Sixteenth,G#4_E4
1637,Left,1,71,100,378.75,0.239583,Sixteenth,B4
1638,Left,1,68,100,379.0,0.239583,Sixteenth,G#4_F4
1640,Left,1,71,100,379.25,0.239583,Sixteenth,B4
1641,Left,1,68,100,379.5,0.239583,Sixteenth,G#4_F4
1643,Left,1,71,100,379.75,0.239583,Sixteenth,B4
1646,Right,0,73,100,380.0,0.989583,Quarter,C#6_C#5
1644,Left,1,65,100,380.0,0.239583,Sixteenth,G#4_F4
1648,Left,1,71,100,380.25,0.239583,Sixteenth,B4
1649,Left,1,65,100,380.5,0.239583,Sixteenth,G#4_F4
1651,Left,1,71,100,380.75,0.239583,Sixteenth,B4
1654,Right,0,85,100,381.0,0.489583,Eighth,C#6
1652,Left,1,66,100,381.0,0.239583,Sixteenth,F#4_A4
1655,Left,1,71,100,381.25,0.239583,Sixteenth,B4
1656,Left,1,69,100,381.5,0.239583,Sixteenth,F#4_A4
1658,Right,0,87,100,381.5,0.239583,Sixteenth,D#6
1659,Right,0,85,100,381.625,0.239583,Sixteenth,C#6
1661,Right,0,84,100,381.75,0.239583,Sixteenth,C6
1660,Left,1,71,100,381.75,0.239583,Sixteenth,B4
1662,Right,0,85,100,381.875,0.114583,ThirtySecond,C#6
1665,Left,1,69,100,382.0,0.239583,Sixteenth,F#4_A4
1663,Right,0,76,100,382.0,1.989583,Half,E6_E5
1667,Left,1,72,100,382.25,0.239583,Sixteenth,C5
1668,Left,1,69,100,382.5,0.239583,Sixteenth,F#4_A4
1670,Left,1,72,100,382.75,0.239583,Sixteenth,C5
1671,Left,1,69,100,383.0,0.239583,Sixteenth,F#4_A4
1673,Left,1,72,100,383.25,0.239583,Sixteenth,C5
1674,Left,1,66,100,383.5,0.239583,Sixteenth,F#4_A4
1676,Left,1,72,100,383.75,0.239583,Sixteenth,C5
1677,Right,0,75,100,384.0,0.989583,Quarter,D#6_D#5
1679,Left,1,69,100,384.0,0.239583,Sixteenth,F#4_A4
1681,Left,1,72,100,384.25,0.239583,Sixteenth,C5
1682,Left,1,69,100,384.5,0.239583,Sixteenth,F#4_A4
1684,Left,1,72,100,384.75,0.239583,Sixteenth,C5
1685,Left,1,69,100,385.0,0.989583,Quarter,F#4_A4
1686,Right,0,75,100,385.0,0.989583,Quarter,D#6_D#5
1690,Right,0,60,120,386.5,0.239583,Sixteenth,C4
1689,Left,1,48,120,386.5,0.239583,Sixteenth,C3
1691,Right,0,59,120,386.625,0.239583,Sixteenth,B3
1692,Left,1,47,120,386.625,0.239583,Sixteenth,B2
1693,Left,1,45,120,386.75,0.239583,Sixteenth,A2
1694,Right,0,57,120,386.75,0.239583,Sixteenth,A3
1696,Left,1,43,120,386.875,0.114583,ThirtySecond,G2
1695,Right,0,55,120,386.875,0.114583,ThirtySecond,G3
1698,Left,1,42,120,387.0,0.989583,Quarter,F#2
1697,Right,0,54,120,387.0,0.989583,Quarter,F#3
1699,Right,0,76,100,388.5,0.489583,Eighth,E6_E5
1701,Right,0,75,100,389.0,0.989583,Quarter,D#6_D#5
1704,Left,1,48,120,390.5,0.239583,Sixteenth,C3
1703,Right,0,60,120,390.5,0.239583,Sixteenth,C4
1705,Right,0,59,120,390.625,0.239583,Sixteenth,B3
1706,Left,1,47,120,390.625,0.239583,Sixteenth,B2
1707,Left,1,45,120,390.75,0.239583,Sixteenth,A2
1708,Right,0,57,120,390.75,0.239583,Sixteenth,A3
1709,Left,1,43,120,390.875,0.114583,ThirtySecond,G2
1710,Right,0,55,120,390.875,0.114583,ThirtySecond,G3
1711,Right,0,54,120,391.0,0.989583,Quarter,F#3
1712,Left,1,42,120,391.0,0.989583,Quarter,F#2
1713,Right,0,88,90,392.5,0.489583,Eighth,E6
1714,Right,0,87,90,393.0,0.989583,Quarter,D#6
1715,Left,1,66,90,394.0,0.989583,Quarter,F#4_C5_A4
1718,Right,0,88,90,394.5,0.489583,Eighth,E6
1719,Right,0,87,90,395.0,0.989583,Quarter,D#6
1720,Left,1,66,90,396.0,0.989583,Quarter,F#4_C5_A4
1723,Right,0,88,90,396.5,0.489583,Eighth,E6
1724,Right,0,87,90,397.0,0.989583,Quarter,D#6
1725,Left,1,72,90,398.0,0.989583,Quarter,F#4_C5_A4
1728,Right,0,83,90,400.5,0.489583,Eighth,B5
1729,Left,1,56,120,401.0,0.989583,Quarter,G#3_E4_B3
1732,Right,0,76,120,401.5,0.322917,Triplet,E5
1733,Right,0,88,120,401.666667,0.322917,Triplet,E6
1734,Right,0,76,120,401.833333,0.322917,Triplet,E5
1735,Right,0,71,120,402.0,0.322917,Triplet,B4
1736,Right,0,83,120,402.166667,0.322917,Triplet,B5
1737,Right,0,71,120,402.333333,0.322917,Triplet,B4
1738,Right,0,68,120,402.5,0.322917,Triplet,G#4
1739,Right,0,80,120,402.666667,0.322917,Triplet,G#5
1740,Right,0,68,120,402.833333,0.322917,Triplet,G#4
1741,Right,0,64,120,403.0,0.322917,Triplet,E4
1742,Right,0,76,120,403.166667,0.322917,Triplet,E5
1743,Right,0,64,120,403.333333,0.322917,Triplet,E4
1744,Right,0,59,120,403.5,0.322917,Triplet,B3
1745,Right,0,71,120,403.666667,0.322917,Triplet,B4
1746,Right,0,59,120,403.833333,0.322917,Triplet,B3
1747,Right,0,56,120,404.0,0.322917,Triplet,G#3
1748,Right,0,68,120,404.166667,0.322917,Triplet,G#4
1749,Right,0,56,120,404.333333,0.322917,Triplet,G#3
1750,Right,0,52,120,404.5,0.322917,Triplet,E3
1751,Right,0,64,120,404.666667,0.322917,Triplet,E4
1752,Right,0,52,120,404.833333,0.15625,TripletSixteenth,E3
1754,Left,1,46,120,405.0,1.989583,Half,A#2
1753,Right,0,54,120,405.0,1.989583,Half,F#3_E3
1757,Left,1,45,120,407.0,1.989583,Half,B1_A2
1756,Right,0,51,120,407.0,1.989583,Half,D#3_B3
1760,Left,1,44,100,409.0,0.989583,Quarter,G#2_E2
1762,Right,0,52,120,409.5,0.302083,Triplet,E3
1763,Right,0,64,120,409.666667,0.302083,Triplet,E4
1764,Right,0,52,120,409.833333,0.302083,Triplet,E3
1765,Right,0,56,120,410.0,0.291667,Triplet,G#3
1766,Right,0,68,120,410.166667,0.333333,Triplet,G#4
1767,Right,0,56,120,410.333333,0.302083,Triplet,G#3
1768,Right,0,59,120,410.5,0.302083,Triplet,B3
1769,Right,0,71,120,410.666667,0.302083,Triplet,B4
1770,Right,0,59,120,410.833333,0.28125,Sixteenth,B3
1771,Right,0,64,120,411.0,0.322917,Triplet,E4
1772,Right,0,76,120,411.166667,0.322917,Triplet,E5
1773,Right,0,64,120,411.333333,0.322917,Triplet,E4
1774,Right,0,68,120,411.5,0.322917,Triplet,G#4
1775,Right,0,80,120,411.666667,0.322917,Triplet,G#5
1776,Right,0,68,120,411.833333,0.322917,Triplet,G#4
1777,Right,0,71,120,412.0,0.322917,Triplet,B4
1778,Right,0,83,120,412.166667,0.322917,Triplet,B5
1779,Right,0,71,120,412.333333,0.322917,Triplet,B4
1780,Right,0,76,120,412.5,0.322917,Triplet,E5
1781,Right,0,88,120,412.666667,0.322917,Triplet,E6
1782,Right,0,76,120,412.833333,0.15625,TripletSixteenth,E5
1784,Right,0,76,120,413.0,1.989583,Half,F#5_E5
1783,Left,1,70,120,413.0,1.989583,Half,A#4
1786,Right,0,75,120,415.0,1.989583,Half,D#5_B5
1788,Left,1,59,120,415.0,1.989583,Half,B3_A4
1791,Left,1,64,100,417.0,0.322917,Triplet,E4
1790,Right,0,76,100,417.0,0.489583,Eighth,E5
1792,Left,1,68,100,417.166667,0.322917,Triplet,G#4
1793,Left,1,69,100,417.333333,0.322917,Triplet,A4
1794,Left,1,71,100,417.5,0.322917,Triplet,B4
1795,Left,1,73,100,417.666667,0.322917,Triplet,C#5
1796,Left,1,75,100,417.833333,0.322917,Triplet,D#5
1797,Left,1,76,100,418.0,0.489583,Eighth,E5
1798,Right,0,80,100,418.166667,0.322917,Triplet,G#5
1799,Right,0,81,100,418.333333,0.322917,Triplet,A5
1800,Right,0,83,100,418.5,0.322917,Triplet,B5
1801,Right,0,85,100,418.666667,0.322917,Triplet,C#6
1802,Right,0,87,100,418.833333,0.15625,TripletSixteenth,D#6
1803,Right,0,88,100,419.0,0.489583,Eighth,E6
1804,Right,0,87,100,419.5,0.489583,Eighth,D#6
1805,Right,0,85,100,420.0,0.489583,Eighth,C#6
1806,Right,0,83,100,420.5,0.489583,Eighth,B5
1808,Right,0,81,100,421.0,0.489583,Eighth,A5
1807,Left,1,47,100,421.0,0.322917,Triplet,B2
1809,Left,1,51,100,421.166667,0.322917,Triplet,D#3
1810,Left,1,52,100,421.333333,0.322917,Triplet,E3
1811,Right,0,80,100,421.5,0.489583,Eighth,G#5
1812,Left,1,54,100,421.5,0.322917,Triplet,F#3
1813,Left,1,56,100,421.666667,0.322917,Triplet,G#3
1814,Left,1,57,100,421.833333,0.322917,Triplet,A3
1815,Right,0,78,100,422.0,0.489583,Eighth,F#5
1816,Left,1,59,100,422.0,0.322917,Triplet,B3
1817,Left,1,63,100,422.166667,0.322917,Triplet,D#4
1818,Left,1,64,100,422.333333,0.322917,Triplet,E4
1819,Right,0,76,100,422.5,0.489583,Eighth,E5
1820,Left,1,66,100,422.5,0.322917,Triplet,F#4
1821,Left,1,68,100,422.666667,0.322917,Triplet,G#4
1822,Left,1,69,100,422.833333,0.15625,TripletSixteenth,A4
1823,Right,0,75,100,423.0,0.489583,Eighth,D#5
1824,Left,1,71,100,423.0,0.489583,Eighth,B4
1825,Left,1,69,100,423.5,0.489583,Eighth,A4
1826,Left,1,68,100,424.0,0.489583,Eighth,G#4
1827,Left,1,66,100,424.5,0.489583,Eighth,F#4
1828,Left,1,40,100,425.0,0.322917,Triplet,E2
1829,Right,0,64,100,425.0,0.989583,Quarter,E4
1830,Left,1,44,100,425.166667,0.322917,Triplet,G#2
1831,Left,1,45,100,425.333333,0.322917,Triplet,A2
1832,Left,1,47,100,425.5,0.322917,Triplet,B2
1833,Left,1,49,100,425.666667,0.322917,Triplet,C#3
1834,Left,1,51,100,425.833333,0.322917,Triplet,D#3
1835,Left,1,52,100,426.0,0.322917,Triplet,E3
1836,Left,1,56,100,426.166667,0.322917,Triplet,G#3
1837,Left,1,57,100,426.333333,0.322917,Triplet,A3
1838,Left,1,59,100,426.5,0.322917,Triplet,B3
1839,Left,1,61,100,426.666667,0.322917,Triplet,C#4
1840,Left,1,63,100,426.833333,0.15625,TripletSixteenth,D#4
1841,Left,1,64,100,427.0,0.489583,Eighth,E4
1842,Left,1,63,100,427.5,0.489583,Eighth,D#4
1843,Left,1,61,100,428.0,0.489583,Eighth,C#4
1844,Left,1,59,100,428.5,0.489583,Eighth,B3
1846,Right,0,61,110,429.0,0.322917,Triplet,C#4
1845,Left,1,57,100,429.0,0.489583,Eighth,A3
1847,Right,0,63,110,429.166667,0.322917,Triplet,D#4
1848,Right,0,64,110,429.333333,0.322917,Triplet,E4
1849,Left,1,56,100,429.5,0.489583,Eighth,G#3
1850,Right,0,66,110,429.5,0.322917,Triplet,F#4
1851,Right,0,68,110,429.666667,0.322917,Triplet,G#4
1852,Right,0,69,110,429.833333,0.322917,Triplet,A4
1853,Left,1,54,100,430.0,0.489583,Eighth,F#3
1854,Right,0,71,110,430.0,0.322917,Triplet,B4
1855,Right,0,75,110,430.166667,0.322917,Triplet,D#5
1856,Right,0,76,110,430.333333,0.322917,Triplet,E5
1858,Left,1,52,100,430.5,0.489583,Eighth,E3
1857,Right,0,78,110,430.5,0.322917,Triplet,F#5
1859,Right,0,80,110,430.666667,0.322917,Triplet,G#5
1860,Right,0,81,110,430.833333,0.15625,TripletSixteenth,A5
1862,Right,0,83,120,431.0,0.489583,Eighth,B5
1861,Left,1,51,120,431.0,0.489583,Eighth,D#3
1864,Left,1,49,120,431.5,0.489583,Eighth,C#3
1863,Right,0,81,120,431.5,0.489583,Eighth,A5
1866,Left,1,47,120,432.0,0.489583,Eighth,B2
1865,Right,0,80,120,432.0,0.489583,Eighth,G#5
1867,Left,1,45,120,432.5,0.489583,Eighth,A2
1868,Right,0,78,120,432.5,0.489583,Eighth,F#5
1869,Left,1,44,120,433.0,0.489583,Eighth,G#2
1870,Right,0,76,120,433.0,0.489583,Eighth,E5
1872,Left,1,42,120,433.5,0.489583,Eighth,F#2
1871,Right,0,75,120,433.5,0.489583,Eighth,D#5
1873,Left,1,40,120,434.0,0.489583,Eighth,E2
1874,Right,0,73,120,434.0,0.489583,Eighth,C#5
1876,Right,0,71,120,434.5,0.489583,Eighth,B4
1875,Left,1,39,120,434.5,0.489583,Eighth,D#2
1878,Right,0,69,120,435.0,0.489583,Eighth,A4
1877,Left,1,37,120,435.0,0.489583,Eighth,C#2
1879,Left,1,35,120,435.5,0.489583,Eighth,B1
1880,Right,0,68,120,435.5,0.489583,Eighth,G#4
1881,Left,1,33,120,436.0,0.489583,Eighth,A1
1882,Right,0,66,120,436.0,0.489583,Eighth,F#4
1883,Left,1,32,120,436.5,0.489583,Eighth,G#1
1884,Right,0,64,120,436.5,0.489583,Eighth,E4
1885,Left,1,33,120,437.0,1.989583,Half,A1
1886,Right,0,63,120,437.0,0.489583,Eighth,D#4
1887,Right,0,61,120,437.5,0.489583,Eighth,C#4
1888,Right,0,59,120,438.0,0.489583,Eighth,B3
1889,Right,0,57,120,438.5,0.489583,Eighth,A3
1891,Left,1,35,120,439.0,1.989583,Half,B1
1890,Right,0,56,120,439.0,0.489583,Eighth,G#3
1892,Right,0,54,120,439.5,0.489583,Eighth,F#3
1893,Right,0,52,120,440.0,0.489583,Eighth,E3
1894,Right,0,51,120,440.5,0.489583,Eighth,D#3
1896,Right,0,52,80,441.0,0.489583,Eighth,E3
1895,Left,1,40,80,441.0,3.989583,Whole,E2
1897,Right,0,54,80,441.5,0.489583,Eighth,F#3
1898,Right,0,56,80,442.0,0.489583,Eighth,G#3
1899,Right,0,57,80,442.5,0.489583,Eighth,A3
1900,Right,0,69,80,443.0,1.989583,Half,B3_A4
1902,Right,0,61,80,443.5,0.489583,Eighth,C#4
1903,Right,0,62,80,444.0,0.489583,Eighth,D4
1904,Right,0,63,80,444.5,0.489583,Eighth,D#4
1907,Left,1,40,80,445.0,7.989583,Unknown,E2
1905,Right,0,64,80,445.0,1.989583,Half,G#4_E4_B3
1909,Left,1,42,80,445.5,0.489583,Eighth,F#2
1910,Left,1,44,80,446.0,0.489583,Eighth,G#2
1911,Left,1,45,80,446.5,0.489583,Eighth,A2
1912,Right,0,66,80,447.0,1.989583,Half,F#4_B3_A3
1915,Left,1,47,80,447.0,0.489583,Eighth,B2
1916,Left,1,49,80,447.5,0.489583,Eighth,C#3
1917,Left,1,50,80,448.0,0.489583,Eighth,D3
1918,Left,1,51,80,448.5,0.489583,Eighth,D#3
1919,Right,0,64,80,449.0,1.989583,Half,G#3_E4
1921,Left,1,52,80,449.0,1.989583,Half,E3
1922,Right,0,54,80,449.5,0.489583,Eighth,F#3
1923,Right,0,56,80,450.0,0.489583,Eighth,G#3
1924,Right,0,57,80,450.5,0.489583,Eighth,A3
1927,Left,1,51,80,451.0,0.989583,Quarter,D#3
1925,Right,0,69,80,451.0,1.989583,Half,B3_A4
1928,Right,0,61,80,451.5,0.489583,Eighth,C#4
1929,Right,0,62,80,452.0,0.489583,Eighth,D4
1930,Left,1,54,80,452.0,0.989583,Quarter,F#3
1931,Right,0,63,80,452.5,0.489583,Eighth,D#4
1933,Right,0,59,80,453.0,1.989583,Half,G#4_E4_B3
1932,Left,1,40,80,453.0,3.989583,Whole,E2
1936,Left,1,42,80,453.5,0.489583,Eighth,F#2
1937,Left,1,44,80,454.0,0.489583,Eighth,G#2
1938,Left,1,45,80,454.5,0.489583,Eighth,A2
1939,Right,0,66,80,455.0,1.989583,Half,F#4_B3_A3
1942,Left,1,47,80,455.0,0.489583,Eighth,B2
1943,Left,1,49,80,455.5,0.489583,Eighth,C#3
1944,Left,1,50,80,456.0,0.489583,Eighth,D3
1945,Left,1,51,80,456.5,0.489583,Eighth,D#3
1946,Left,1,40,70,457.0,0.333333,Triplet,E3_E2
1947,Right,0,59,70,457.0,0.989583,Quarter,G#3_E4_B3
1951,Left,1,49,70,457.5,0.333333,Triplet,C#3
1952,Left,1,47,70,458.0,0.333333,Triplet,B2
1953,Left,1,45,70,458.5,0.333333,Triplet,A2
1955,Left,1,44,70,459.0,0.333333,Triplet,G#2
1954,Right,0,59,70,459.0,0.989583,Quarter,G#3_E4_B3
1958,Left,1,45,70,459.5,0.333333,Triplet,A2
1960,Right,0,56,70,460.0,0.989583,Quarter,G#3_E4_B3
1959,Left,1,44,70,460.0,0.333333,Triplet,G#2
1963,Left,1,42,70,460.5,0.333333,Triplet,F#2
1964,Left,1,40,70,461.0,0.666667,DottedEighth,E2
1965,Right,0,56,70,461.0,0.989583,Quarter,G#3_E4_B3
1968,Left,1,40,70,463.0,0.989583,Quarter,E2
1969,Right,0,56,70,463.0,0.989583,Quarter,G#3_B3
1971,Left,1,40,70,465.0,0.989583,Quarter,E2
1972,Right,0,56,70,465.0,0.989583,Quarter,G#3_E3
1974,Left,1,64,70,469.0,0.989583,Quarter,E4
1975,Right,0,67,70,471.0,0.989583,Quarter,G4_B4
1976,Left,1,64,70,471.0,0.989583,Quarter,E4
1979,Left,1,64,70,473.0,0.989583,Quarter,E4
1978,Right,0,67,70,473.0,0.989583,Quarter,G4
1980,Left,1,60,110,476.5,0.489583,Eighth,C4
1981,Right,0,72,110,476.5,0.489583,Eighth,C6_C5
1983,Left,1,55,110,477.0,0.989583,Quarter,G3
1984,Right,0,79,110,477.0,0.989583,Quarter,G5_G4
1986,Left,1,55,110,478.5,0.239583,Sixteenth,G3
1987,Right,0,67,110,478.5,0.239583,Sixteenth,G4
1989,Left,1,53,110,478.625,0.239583,Sixteenth,F3
1988,Right,0,65,110,478.625,0.239583,Sixteenth,F4
1991,Left,1,52,110,478.75,0.239583,Sixteenth,E3
1990,Right,0,64,110,478.75,0.239583,Sixteenth,E4
1993,Right,0,62,110,478.875,0.114583,ThirtySecond,D4
1992,Left,1,50,110,478.875,0.114583,ThirtySecond,D3
1994,Right,0,60,110,479.0,0.989583,Quarter,C4
1995,Left,1,48,110,479.0,0.989583,Quarter,C3
1996,Right,0,84,110,480.5,0.489583,Eighth,C6_C5
1998,Left,1,60,110,480.5,0.489583,Eighth,C4
2001,Left,1,57,110,481.0,0.989583,Quarter,A3
1999,Right,0,81,110,481.0,0.989583,Quarter,A5_A4
2002,Right,0,69,110,482.5,0.239583,Sixteenth,A4
2003,Left,1,57,110,482.5,0.239583,Sixteenth,A3
2004,Left,1,55,110,482.625,0.239583,Sixteenth,G3
2005,Right,0,67,110,482.625,0.239583,Sixteenth,G4
2007,Left,1,53,110,482.75,0.239583,Sixteenth,F3
2006,Right,0,65,110,482.75,0.239583,Sixteenth,F4
2009,Left,1,52,110,482.875,0.114583,ThirtySecond,E3
2008,Right,0,64,110,482.875,0.114583,ThirtySecond,E4
2011,Right,0,62,110,483.0,0.989583,Quarter,D4
2010,Left,1,50,110,483.0,0.989583,Quarter,D3
2013,Right,0,77,110,484.5,0.489583,Eighth,F6_F5
2012,Left,1,65,110,484.5,0.489583,Eighth,F4
2016,Right,0,86,110,485.0,0.989583,Quarter,D6_D5
2015,Left,1,62,110,485.0,0.989583,Quarter,D4
2018,Left,1,59,110,486.0,0.989583,Quarter,B3
2019,Right,0,71,110,486.0,0.989583,Quarter,B5_B4
2022,Left,1,55,110,487.0,0.989583,Quarter,G3
2021,Right,0,79,110,487.0,0.989583,Quarter,G5_G4
2026,Left,1,53,110,488.0,0.989583,Quarter,F3
2024,Right,0,65,110,488.0,0.989583,Quarter,F5_F4
2028,Right,0,74,110,489.0,0.989583,Quarter,D5_D4
2027,Left,1,50,110,489.0,0.989583,Quarter,D3
2031,Right,0,71,110,490.0,0.989583,Quarter,B4_B3
2030,Left,1,47,110,490.0,0.989583,Quarter,B2
2035,Left,1,43,110,491.0,0.989583,Quarter,G2
2033,Right,0,55,110,491.0,0.989583,Quarter,G4_G3
2038,Left,1,31,120,492.0,0.989583,Quarter,G2_G1
2036,Right,0,55,120,492.0,0.989583,Quarter,G4_G3
2040,Right,0,68,110,493.0,0.489583,DottedSixteenth,G#4_G#3
2041,Left,1,32,120,493.0,0.989583,Quarter,G#2_G#1
2044,Right,0,63,110,493.25,0.447917,Eighth,D#4
2045,Right,0,56,110,493.5,0.479167,Eighth,G#3_C4
2047,Right,0,63,110,493.75,0.458333,Eighth,D#4
2048,Right,0,56,110,494.0,0.427083,DottedSixteenth,G#3_C4
2050,Right,0,63,110,494.25,0.427083,DottedSixteenth,D#4
2051,Left,1,44,120,494.5,0.489583,Eighth,G#2
2052,Right,0,60,110,494.5,0.40625,DottedSixteenth,G#3_C4
2054,Right,0,63,110,494.75,0.4375,Eighth,D#4
2055,Right,0,60,110,495.0,0.479167,Eighth,G#3_C4
2057,Left,1,39,120,495.0,0.989583,Quarter,D#2
2058,Right,0,63,110,495.25,0.4375,Eighth,D#4
2059,Right,0,56,110,495.5,0.416667,DottedSixteenth,G#3_C4
2061,Right,0,63,110,495.75,0.458333,Eighth,D#4
2062,Right,0,56,110,496.0,0.416667,DottedSixteenth,G#3_C4
2064,Right,0,63,110,496.25,0.427083,DottedSixteenth,D#4
2065,Right,0,56,110,496.5,0.479167,DottedSixteenth,G#3_C4
2066,Left,1,39,120,496.5,0.239583,Sixteenth,D#2
2068,Left,1,37,120,496.625,0.239583,Sixteenth,C#2
2070,Right,0,63,110,496.75,0.416667,DottedSixteenth,D#4
2069,Left,1,36,120,496.75,0.239583,Sixteenth,C2
2071,Left,1,34,120,496.875,0.114583,ThirtySecond,A#1
2074,Left,1,32,120,497.0,0.989583,Quarter,G#1
2072,Right,0,60,110,497.0,0.427083,DottedSixteenth,G#3_C4
2075,Right,0,63,110,497.25,0.40625,DottedSixteenth,D#4
2076,Right,0,60,110,497.5,0.458333,DottedSixteenth,G#3_C4
2078,Right,0,63,110,497.75,0.458333,Eighth,D#4
2079,Right,0,56,110,498.0,0.447917,Eighth,G#3_C4
2081,Right,0,63,110,498.25,0.46875,Eighth,D#4
2082,Right,0,56,110,498.5,0.489583,Eighth,G#3_D#6_C4
2085,Right,0,63,110,498.75,0.395833,DottedSixteenth,D#4
2086,Right,0,84,110,499.0,0.989583,DottedSixteenth,G#3_C6_C4
2089,Right,0,63,110,499.25,0.46875,Eighth,D#4
2090,Right,0,56,110,499.5,0.4375,Eighth,G#3_C4
2092,Right,0,63,110,499.75,0.447917,Eighth,D#4
2093,Right,0,56,110,500.0,0.989583,Eighth,G#5_G#3_C4
2096,Right,0,63,110,500.25,0.46875,Eighth,D#4
2097,Right,0,56,110,500.5,0.479167,Eighth,G#3_C4
2099,Right,0,63,110,500.75,0.427083,DottedSixteenth,D#4
2100,Right,0,56,110,501.0,0.989583,Eighth,G#3_D#5
2102,Right,0,63,110,501.25,0.40625,DottedSixteenth,D#4
2103,Right,0,60,110,501.5,0.40625,SixtyFourth,G#3_C4
2105,Right,0,63,110,501.75,0.4375,Eighth,D#4
2106,Right,0,72,110,502.0,0.989583,Quarter,G#3_C5_C4
2109,Right,0,63,110,502.25,0.46875,Eighth,D#4
2110,Right,0,56,110,502.5,0.458333,Eighth,G#3_C4
2112,Right,0,63,110,502.75,0.416667,DottedSixteenth,D#4
2113,Right,0,60,110,503.0,0.989583,DottedSixteenth,G#3_C4_A#4
2116,Right,0,63,110,503.25,0.447917,Eighth,D#4
2117,Right,0,60,110,503.5,0.46875,DottedSixteenth,G#3_C4
2119,Right,0,63,110,503.75,0.4375,Eighth,D#4
2120,Right,0,56,110,504.0,0.989583,DottedSixteenth,G#4_G#3_C4
2123,Right,0,63,110,504.25,0.385417,DottedSixteenth,D#4
2124,Right,0,56,110,504.5,0.447917,DottedSixteenth,G#3_C4
2126,Right,0,63,110,504.75,0.4375,Eighth,D#4
2127,Right,0,58,110,505.0,0.989583,Eighth,G4_G3_C#4_A#3
2131,Right,0,63,110,505.25,0.46875,Eighth,D#4
2132,Right,0,58,110,505.5,0.479167,Eighth,G3_C#4_A#3
2135,Right,0,63,110,505.75,0.395833,DottedSixteenth,D#4
2136,Right,0,55,110,506.0,0.427083,DottedSixteenth,G3_C#4_A#3
2139,Right,0,63,110,506.25,0.375,DottedSixteenth,D#4
2141,Right,0,58,110,506.5,0.4375,DottedSixteenth,G3_C#4_A#3
2140,Left,1,51,120,506.5,0.489583,Eighth,D#3
2144,Right,0,63,110,506.75,0.40625,DottedSixteenth,D#4
2145,Right,0,58,110,507.0,0.458333,DottedSixteenth,G3_C#4_A#3
2147,Left,1,46,120,507.0,0.989583,Quarter,A#2
2149,Right,0,63,110,507.25,0.489583,Eighth,D#4
2150,Right,0,61,110,507.5,0.40625,DottedSixteenth,G3_C#4_A#3
2153,Right,0,63,110,507.75,0.458333,Eighth,D#4
2154,Right,0,61,110,508.0,0.4375,DottedSixteenth,G3_C#4_A#3
2157,Right,0,63,110,508.25,0.447917,Eighth,D#4
2159,Right,0,55,110,508.5,0.4375,DottedSixteenth,G3_C#4_A#3
2158,Left,1,46,120,508.5,0.239583,Sixteenth,A#2
2162,Left,1,44,120,508.625,0.239583,Sixteenth,G#2
2163,Right,0,63,110,508.75,0.46875,Eighth,D#4
2164,Left,1,43,120,508.75,0.239583,Sixteenth,G2
2165,Left,1,41,120,508.875,0.114583,ThirtySecond,F2
2166,Right,0,61,110,509.0,0.416667,DottedSixteenth,G3_C#4_A#3
2167,Left,1,39,120,509.0,0.989583,Quarter,D#2
2170,Right,0,63,110,509.25,0.427083,DottedSixteenth,D#4
2171,Right,0,61,110,509.5,0.416667,DottedSixteenth,G3_C#4_A#3
2174,Right,0,63,110,509.75,0.40625,DottedSixteenth,D#4
2175,Right,0,55,110,510.0,0.489583,DottedSixteenth,G3_C#4_A#3
2178,Right,0,63,110,510.25,0.395833,DottedSixteenth,D#4
2179,Right,0,85,110,510.5,0.489583,DottedSixteenth,G3_C#6_C#4_A#3
2183,Right,0,63,110,510.75,0.4375,Eighth,D#4
2184,Right,0,55,110,511.0,0.989583,DottedSixteenth,G3_C#4_A#5_A#3
2188,Right,0,63,110,511.25,0.40625,DottedSixteenth,D#4
2189,Right,0,58,110,511.5,0.427083,DottedSixteenth,G3_C#4_A#3
2192,Right,0,63,110,511.75,0.416667,DottedSixteenth,D#4
2193,Right,0,79,110,512.0,0.989583,Eighth,G5_G3_C#4_A#3
2197,Right,0,63,110,512.25,0.447917,Eighth,D#4
2198,Right,0,61,110,512.5,0.479167,Eighth,G3_C#4_A#3
2201,Right,0,63,110,512.75,0.427083,DottedSixteenth,D#4
2202,Right,0,73,110,513.0,0.989583,Eighth,G3_C#5_C#4_A#3
2206,Right,0,63,110,513.25,0.447917,Eighth,D#4
2207,Right,0,61,110,513.5,0.458333,Eighth,G3_C#4_A#3
2210,Right,0,63,110,513.75,0.447917,Eighth,D#4
2211,Right,0,70,110,514.0,0.989583,DottedSixteenth,G3_C#4_A#4_A#3
2215,Right,0,63,110,514.25,0.458333,Eighth,D#4
2216,Right,0,58,110,514.5,0.427083,DottedSixteenth,G3_C#4_A#3
2219,Right,0,63,110,514.75,0.416667,DottedSixteenth,D#4
2220,Right,0,67,110,515.0,0.989583,Eighth,G4_G3_A#3
2223,Right,0,61,110,515.25,0.427083,DottedSixteenth,C#4
2224,Right,0,55,110,515.5,0.416667,DottedSixteenth,G3_A#3
2226,Right,0,61,110,515.75,0.40625,DottedSixteenth,C#4
2227,Right,0,65,110,516.0,0.989583,DottedSixteenth,G3_F4_A#3
2230,Right,0,61,110,516.25,0.416667,DottedSixteenth,C#4
2231,Right,0,55,110,516.5,0.40625,DottedSixteenth,G3_A#3
2233,Right,0,61,110,516.75,0.416667,DottedSixteenth,C#4
2234,Right,0,58,110,517.0,0.989583,DottedSixteenth,G3_E4_A#3
2237,Right,0,60,110,517.25,0.385417,DottedSixteenth,C4
2238,Right,0,55,110,517.5,0.4375,DottedSixteenth,G3_A#3
2240,Right,0,60,110,517.75,0.427083,DottedSixteenth,C4
2241,Right,0,55,110,518.0,0.4375,Eighth,G3_A#3
2243,Right,0,60,110,518.25,0.395833,DottedSixteenth,C4
2244,Right,0,55,110,518.5,0.427083,DottedSixteenth,G3_A#3
2246,Left,1,48,120,518.5,0.489583,Eighth,C3
2247,Right,0,60,110,518.75,0.416667,DottedSixteenth,C4
2249,Right,0,58,110,519.0,0.427083,DottedSixteenth,G3_A#3
2248,Left,1,43,120,519.0,0.989583,Quarter,G2
2251,Right,0,60,110,519.25,0.447917,Eighth,C4
2252,Right,0,55,110,519.5,0.458333,Eighth,G3_A#3
2254,Right,0,60,110,519.75,0.416667,DottedSixteenth,C4
2255,Right,0,58,110,520.0,0.395833,DottedSixteenth,G3_A#3
2257,Right,0,60,110,520.25,0.385417,DottedSixteenth,C4
2258,Left,1,43,120,520.5,0.239583,Sixteenth,G2
2259,Right,0,55,110,520.5,0.40625,DottedSixteenth,G3_A#3
2261,Left,1,41,120,520.625,0.239583,Sixteenth,F2
2263,Right,0,60,110,520.75,0.427083,DottedSixteenth,C4
2262,Left,1,40,120,520.75,0.239583,Sixteenth,E2
2264,Left,1,38,120,520.875,0.114583,ThirtySecond,D2
2265,Right,0,55,110,521.0,0.4375,Eighth,G3_A#3
2267,Left,1,36,120,521.0,0.989583,Quarter,C2
2268,Right,0,60,110,521.25,0.4375,Eighth,C4
2269,Right,0,55,110,521.5,0.40625,DottedSixteenth,G3_A#3
2271,Right,0,60,110,521.75,0.40625,DottedSixteenth,C4
2272,Right,0,58,110,522.0,0.4375,DottedSixteenth,G3_A#3
2274,Right,0,60,110,522.25,0.458333,Eighth,C4
2275,Right,0,58,110,522.5,0.489583,DottedSixteenth,G3_A#5_A#3
2278,Right,0,60,110,522.75,0.4375,DottedSixteenth,C4
2279,Right,0,58,110,523.0,0.989583,DottedSixteenth,G5_G3_A#3
2282,Right,0,60,110,523.25,0.427083,DottedSixteenth,C4
2283,Right,0,55,110,523.5,0.427083,DottedSixteenth,G3_A#3
2285,Right,0,60,110,523.75,0.4375,DottedSixteenth,C4
2286,Right,0,55,110,524.0,0.989583,DottedSixteenth,G3_E5_A#3
2289,Right,0,60,110,524.25,0.427083,DottedSixteenth,C4
2290,Right,0,55,110,524.5,0.427083,DottedSixteenth,G3_A#3
2292,Right,0,60,110,524.75,0.458333,Eighth,C4
2293,Right,0,58,110,525.0,0.989583,DottedSixteenth,G3_C5_A#3
2296,Right,0,60,110,525.25,0.385417,DottedSixteenth,C4
2297,Right,0,55,110,525.5,0.427083,DottedSixteenth,G3_A#3
2299,Right,0,60,110,525.75,0.416667,DottedSixteenth,C4
2300,Right,0,70,121,526.0,0.989583,Quarter,G3_A#4_A#3
2303,Right,0,60,110,526.25,0.364583,DottedSixteenth,C4
2304,Right,0,55,110,526.5,0.427083,DottedSixteenth,G3_A#3
2306,Right,0,60,110,526.75,0.40625,DottedSixteenth,C4
2307,Right,0,55,110,527.0,0.989583,DottedSixteenth,G4_G3_A#3
2310,Right,0,60,110,527.25,0.395833,DottedSixteenth,C4
2311,Right,0,55,110,527.5,0.40625,DottedSixteenth,G3_A#3
2313,Right,0,60,110,527.75,0.416667,DottedSixteenth,C4
2314,Right,0,55,110,528.0,0.989583,DottedSixteenth,G3_E4_A#3
2317,Right,0,60,110,528.25,0.364583,DottedSixteenth,C4
2318,Right,0,55,110,528.5,0.489583,DottedSixteenth,G3_A#3
2320,Right,0,60,110,528.75,0.458333,Eighth,C4
2321,Left,1,36,120,529.0,0.989583,Quarter,C2
2322,Right,0,53,110,529.0,0.458333,Eighth,G#3_F3
2324,Left,1,41,120,529.125,0.864583,DottedEighth,F2
2325,Right,0,60,110,529.25,0.416667,DottedSixteenth,C4
2326,Left,1,44,120,529.25,0.739583,DottedEighth,G#2
2327,Left,1,48,120,529.375,0.614583,Eighth,C3
2328,Right,0,53,110,529.5,0.4375,Eighth,G#3_F3
2330,Right,0,60,110,529.75,0.447917,Eighth,C4
2331,Right,0,56,110,530.0,0.4375,DottedSixteenth,G#3_F3
2333,Right,0,60,110,530.25,0.46875,Eighth,C4
2334,Right,0,53,110,530.5,0.489583,Eighth,G#3_F3_C6
2337,Right,0,60,110,530.75,0.427083,DottedSixteenth,C4
2338,Right,0,53,110,531.0,0.989583,DottedSixteenth,G#5_G#3_F3
2341,Right,0,60,110,531.25,0.416667,DottedSixteenth,C4
2342,Right,0,53,110,531.5,0.447917,DottedSixteenth,G#3_F3
2344,Right,0,60,110,531.75,0.395833,DottedSixteenth,C4
2345,Right,0,56,110,532.0,0.989583,DottedSixteenth,G#3_F5_F3
2348,Right,0,60,110,532.25,0.416667,DottedSixteenth,C4
2349,Right,0,56,110,532.5,0.416667,DottedSixteenth,G#3_F3
2351,Right,0,60,110,532.75,0.40625,DottedSixteenth,C4
2352,Right,0,53,110,533.0,0.989583,DottedSixteenth,G#3_F3_C5
2355,Right,0,60,110,533.25,0.354167,DottedSixteenth,C4
2356,Right,0,53,110,533.5,0.385417,DottedSixteenth,G#3_F3
2358,Right,0,60,110,533.75,0.375,DottedSixteenth,C4
2359,Right,0,53,110,534.0,0.989583,DottedSixteenth,G#3_F3_C5
2362,Right,0,60,110,534.25,0.354167,DottedSixteenth,C4
2363,Right,0,53,110,534.5,0.395833,DottedSixteenth,G#3_F3
2365,Right,0,60,110,534.75,0.40625,DottedSixteenth,C4
2366,Right,0,68,121,535.0,0.989583,Quarter,G#4_G#3_F3
2369,Right,0,60,110,535.25,0.375,DottedSixteenth,C4
2370,Right,0,53,110,535.5,0.395833,DottedSixteenth,G#3_F3
2372,Right,0,60,110,535.75,0.395833,DottedSixteenth,C4
2373,Right,0,56,110,536.0,0.989583,DottedSixteenth,G#3_F4_F3
2376,Right,0,60,110,536.25,0.427083,DottedSixteenth,C4
2377,Right,0,53,110,536.5,0.46875,Eighth,G#3_F3
2379,Right,0,60,110,536.75,0.427083,DottedSixteenth,C4
2382,Left,1,36,120,537.0,0.989583,Quarter,C2
2380,Right,0,59,110,537.0,0.40625,DottedSixteenth,G#3_F3_B3
2384,Left,1,41,120,537.125,0.864583,DottedEighth,F2
2386,Left,1,44,120,537.25,0.739583,DottedEighth,G#2
2385,Right,0,62,110,537.25,0.15625,TripletSixteenth,D4
2387,Left,1,48,120,537.375,0.614583,Eighth,C3
2388,Right,0,62,110,537.5,0.427083,DottedSixteenth,G#3_F3_D4_B3
2392,Right,0,62,110,537.75,0.177083,TripletSixteenth,D4
2393,Right,0,53,110,538.0,0.427083,DottedSixteenth,G#3_F3_D4_B3
2397,Right,0,62,110,538.25,0.166667,TripletSixteenth,D4
2398,Right,0,56,110,538.5,0.489583,DottedSixteenth,G#3_F6_F3_D4_B3
2403,Right,0,62,110,538.75,0.15625,TripletSixteenth,D4
2404,Right,0,62,110,539.0,0.989583,DottedSixteenth,G#3_F3_D6_D4_B3
2409,Right,0,62,110,539.25,0.166667,TripletSixteenth,D4
2410,Right,0,62,110,539.5,0.458333,DottedSixteenth,G#3_F3_D4_B3
2414,Right,0,62,110,539.75,0.197917,TripletSixteenth,D4
2415,Right,0,59,110,540.0,0.989583,DottedSixteenth,G#3_F3_D4_B5_B3
2420,Right,0,62,110,540.25,0.15625,TripletSixteenth,D4
2421,Right,0,62,110,540.5,0.427083,DottedSixteenth,G#3_F3_D4_B3
2425,Right,0,62,110,540.75,0.166667,TripletSixteenth,D4
2426,Right,0,62,110,541.0,0.989583,DottedSixteenth,G#5_G#3_F3_D4_B3
2431,Right,0,62,110,541.25,0.145833,TripletSixteenth,D4
2432,Right,0,59,110,541.5,0.4375,DottedSixteenth,G#3_F3_D4_B3
2436,Right,0,62,110,541.75,0.166667,TripletSixteenth,D4
2437,Right,0,62,110,542.0,0.989583,DottedSixteenth,G#3_F5_F3_D4_B3
2442,Right,0,62,110,542.25,0.166667,TripletSixteenth,D4
2443,Right,0,62,110,542.5,0.40625,DottedSixteenth,G#3_F3_D4_B3
2447,Right,0,62,110,542.75,0.1875,TripletSixteenth,D4
2448,Right,0,74,120,543.0,0.989583,DottedSixteenth,G#3_F3_D5_D4_B3
2453,Right,0,62,110,543.25,0.177083,TripletSixteenth,D4
2454,Right,0,56,110,543.5,0.489583,Eighth,G#3_F3_D4_B3
2458,Right,0,62,110,543.75,0.166667,TripletSixteenth,D4
2459,Right,0,53,110,544.0,0.989583,Eighth,G#3_F3_D4_B4_B3
2464,Right,0,62,110,544.25,0.177083,TripletSixteenth,D4
2465,Right,0,53,110,544.5,0.4375,DottedSixteenth,G#3_F3_D4_B3
2469,Right,0,62,110,544.75,0.135417,ThirtySecond,D4
2470,Right,0,55,110,545.0,0.989583,DottedSixteenth,G3_E3_C5
2473,Right,0,60,110,545.25,0.385417,DottedSixteenth,C4
2474,Right,0,55,110,545.5,0.40625,DottedSixteenth,G3_E3
2476,Right,0,60,110,545.75,0.416667,DottedSixteenth,C4
2477,Left,1,48,120,546.0,0.989583,Quarter,C3
2478,Right,0,55,110,546.0,0.416667,DottedSixteenth,G3_E3
2480,Right,0,60,110,546.25,0.427083,DottedSixteenth,C4
2481,Right,0,52,110,546.5,0.4375,DottedSixteenth,G3_E3
2483,Right,0,60,110,546.75,0.46875,Eighth,C4
2484,Right,0,52,110,547.0,0.416667,DottedSixteenth,G3_E3
2486,Left,1,43,120,547.0,0.989583,Quarter,G2
2487,Right,0,60,110,547.25,0.416667,DottedSixteenth,C4
2488,Right,0,52,110,547.5,0.447917,Eighth,G3_E3
2490,Right,0,60,110,547.75,0.416667,DottedSixteenth,C4
2491,Right,0,52,110,548.0,0.4375,DottedSixteenth,G3_E3
2493,Left,1,40,120,548.0,0.989583,Quarter,E2
2494,Right,0,60,110,548.25,0.40625,DottedSixteenth,C4
2495,Right,0,52,110,548.5,0.416667,DottedSixteenth,G3_E3
2497,Right,0,60,110,548.75,0.239583,Sixteenth,C4
2501,Left,1,36,100,549.0,0.989583,Quarter,C3_C2
2498,Right,0,52,100,549.0,0.989583,Quarter,G3_E3_C4
2503,Left,1,48,100,551.0,0.989583,Quarter,G2_E2_C3_C2
2504,Right,0,52,100,551.0,0.989583,Quarter,G3_E3_C4
2512,Left,1,43,100,553.0,3.489583,DottedHalf,G2_E2_C3_C2
2510,Right,0,60,100,553.0,3.489583,DottedHalf,G3_E3_C4
2517,Right,0,53,100,556.5,0.322917,Triplet,F3
2518,Right,0,57,100,556.666667,0.322917,Triplet,A3
2519,Right,0,60,100,556.833333,0.15625,TripletSixteenth,C4
2520,Left,1,53,110,557.0,0.989583,Quarter,F3_F2_C3_A2
2524,Right,0,65,110,557.0,0.489583,Eighth,F4
2525,Right,0,67,100,557.5,0.489583,Eighth,G4
2526,Right,0,69,100,558.0,0.489583,Eighth,A4
2527,Right,0,70,100,558.5,0.489583,Eighth,A#4
2528,Right,0,72,100,559.0,0.489583,Eighth,C5
2529,Right,0,74,100,559.5,0.489583,Eighth,D5
2530,Right,0,76,100,560.0,0.489583,Eighth,E5
2531,Right,0,77,100,560.5,0.489583,Eighth,F5
2532,Right,0,72,100,561.0,1.489583,DottedQuarter,C5
2533,Left,1,48,100,561.5,0.489583,Eighth,C3
2534,Right,0,64,100,561.5,0.489583,Eighth,E4
2536,Left,1,50,100,562.0,0.489583,Eighth,D3
2535,Right,0,65,100,562.0,0.489583,Eighth,F4
2539,Left,1,52,100,562.5,0.489583,Eighth,E3
2537,Right,0,70,100,562.5,0.489583,Eighth,G4_A#4
2540,Right,0,60,100,563.0,0.489583,Eighth,C4_A4
2541,Left,1,53,100,563.0,0.489583,Eighth,F3
2543,Left,1,41,100,563.5,0.489583,Eighth,F2
2544,Left,1,45,100,564.0,0.489583,Eighth,A2
2545,Left,1,46,100,564.5,0.489583,Eighth,A#2
2546,Left,1,48,100,565.0,1.489583,DottedQuarter,C3
2547,Right,0,52,100,565.5,0.489583,Eighth,E3_C4
2549,Right,0,53,100,566.0,0.489583,Eighth,F3_D4
2551,Left,1,46,100,566.5,0.489583,Eighth,A#2
2552,Right,0,64,100,566.5,0.489583,Eighth,G3_E4
2556,Left,1,45,100,567.0,0.489583,Eighth,A2
2554,Right,0,65,100,567.0,0.489583,Eighth,F4_A3
2558,Right,0,60,100,567.5,0.489583,Eighth,C4
2557,Left,1,48,100,567.5,0.489583,Eighth,C3
2559,Right,0,65,100,568.0,0.489583,Eighth,F4
2560,Left,1,45,100,568.0,0.489583,Eighth,A2
2561,Left,1,41,100,568.5,0.489583,Eighth,F2
2562,Right,0,69,100,568.5,0.489583,Eighth,A4
2564,Left,1,40,100,569.0,0.489583,Eighth,E2
2563,Right,0,72,100,569.0,1.489583,DottedQuarter,G4_C5
2566,Left,1,36,100,569.5,0.489583,Eighth,C2
2567,Right,0,64,100,569.5,0.489583,Eighth,E4
2568,Left,1,38,100,570.0,0.489583,Eighth,D2
2569,Right,0,65,100,570.0,0.489583,Eighth,F4
2571,Right,0,67,100,570.5,0.489583,Eighth,G4_A#4
2570,Left,1,40,100,570.5,0.489583,Eighth,E2
2573,Right,0,69,100,571.0,0.489583,Eighth,C4_A4
2574,Left,1,41,100,571.0,0.489583,Eighth,F2
2576,Left,1,45,100,571.5,0.489583,Eighth,A2
2578,Right,0,58,100,572.0,0.489583,Eighth,G4_D4_A#3
2577,Left,1,46,100,572.0,0.489583,Eighth,A#2
2581,Left,1,43,100,572.5,0.489583,Eighth,G2
2583,Left,1,48,100,573.0,0.489583,Eighth,C3
2582,Right,0,65,100,573.0,0.489583,Eighth,F4_C4_A3
2586,Left,1,47,100,573.5,0.489583,Eighth,B2
2587,Right,0,58,100,574.0,0.489583,Eighth,G3_E4_A#3
2590,Left,1,48,100,574.0,0.489583,Eighth,C3
2591,Left,1,41,110,574.5,0.322917,Triplet,F2
2592,Left,1,45,110,574.666667,0.322917,Triplet,A2
2593,Left,1,48,110,574.833333,0.15625,TripletSixteenth,C3
2597,Left,1,53,110,575.0,0.489583,Eighth,F3
2594,Right,0,60,110,575.0,0.989583,Quarter,F4_C4_A3
2598,Left,1,55,100,575.5,0.489583,Eighth,G3
2599,Left,1,57,100,576.0,0.489583,Eighth,A3
2600,Left,1,58,100,576.5,0.489583,Eighth,A#3
2601,Left,1,60,100,577.0,0.489583,Eighth,C4
2602,Left,1,62,100,577.5,0.489583,Eighth,D4
2603,Left,1,64,100,578.0,0.489583,Eighth,E4
2604,Left,1,65,100,578.5,0.489583,Eighth,F4
2605,Left,1,60,100,579.0,1.489583,DottedQuarter,C4
2606,Right,0,72,100,579.5,0.489583,Eighth,E4_C5
2608,Right,0,65,100,580.0,0.489583,Eighth,F4_D5
2611,Left,1,58,100,580.5,0.489583,Eighth,A#3
2610,Right,0,67,100,580.5,0.489583,Eighth,G4_E5
2615,Left,1,57,100,581.0,0.489583,Eighth,A3
2613,Right,0,77,100,581.0,0.489583,Eighth,F5_A4
2616,Left,1,60,100,581.5,0.489583,Eighth,C4
2617,Right,0,72,100,581.5,0.489583,Eighth,C5
2618,Left,1,57,100,582.0,0.489583,Eighth,A3
2619,Right,0,77,100,582.0,0.489583,Eighth,F5
2621,Left,1,53,100,582.5,0.489583,Eighth,F3
2620,Right,0,81,100,582.5,0.489583,Eighth,A5
2622,Right,0,79,100,583.0,1.489583,Eighth,G5_C6
2624,Left,1,52,100,583.0,0.489583,Eighth,E3
2626,Right,0,76,100,583.5,0.489583,Eighth,E5
2625,Left,1,48,100,583.5,0.489583,Eighth,C3
2627,Left,1,50,100,584.0,0.489583,Eighth,D3
2628,Right,0,77,100,584.0,0.489583,Eighth,F5
2630,Left,1,52,100,584.5,0.489583,Eighth,E3
2629,Right,0,82,100,584.5,0.489583,Eighth,G5_A#5
2634,Left,1,53,100,585.0,0.489583,Eighth,F3
2632,Right,0,77,100,585.0,0.989583,Quarter,F5_A5
2635,Left,1,45,100,585.5,0.489583,Eighth,A2
2636,Left,1,50,100,586.0,0.489583,Eighth,D3
2637,Left,1,53,100,586.5,0.489583,Eighth,F3
2638,Left,1,57,110,587.0,1.489583,DottedQuarter,A3
2639,Right,0,73,100,587.5,0.489583,Eighth,C#5_A4
2641,Right,0,74,100,588.0,0.489583,Eighth,D5_B4
2645,Left,1,55,100,588.5,0.489583,Eighth,G3
2643,Right,0,76,100,588.5,0.489583,Eighth,E5_C#5
2648,Left,1,53,100,589.0,0.489583,Eighth,F3
2646,Right,0,74,100,589.0,0.489583,Eighth,F5_D5
2649,Left,1,57,100,589.5,0.489583,Eighth,A3
2650,Right,0,69,100,589.5,0.489583,Eighth,A4
2652,Left,1,53,100,590.0,0.489583,Eighth,F3
2651,Right,0,74,100,590.0,0.489583,Eighth,D5
2654,Right,0,77,100,590.5,0.489583,Eighth,F5
2653,Left,1,50,100,590.5,0.489583,Eighth,D3
2657,Left,1,49,100,591.0,0.489583,Eighth,C#3
2655,Right,0,76,100,591.0,1.489583,Eighth,E5_A5
2659,Right,0,73,100,591.5,0.489583,Eighth,C#5
2658,Left,1,45,100,591.5,0.489583,Eighth,A2
2661,Left,1,47,100,592.0,0.489583,Eighth,B2
2660,Right,0,74,100,592.0,0.489583,Eighth,D5
2664,Left,1,49,100,592.5,0.489583,Eighth,C#3
2662,Right,0,79,100,592.5,0.489583,Eighth,G5_E5
2667,Left,1,50,100,593.0,0.489583,Eighth,D3
2665,Right,0,69,100,593.0,0.489583,Eighth,F5_A4
2668,Left,1,53,100,593.5,0.489583,Eighth,F3
2670,Left,1,55,100,594.0,0.489583,Eighth,G3
2669,Right,0,70,100,594.0,0.489583,Eighth,G4_E5_A#4
2673,Left,1,52,100,594.5,0.489583,Eighth,E3
2674,Left,1,57,100,595.0,0.489583,Eighth,A3
2675,Right,0,74,100,595.0,0.489583,Eighth,F4_D5_A4
2678,Left,1,56,100,595.5,0.489583,Eighth,G#3
2679,Right,0,64,100,596.0,0.489583,Eighth,E4_C#5_A4
2682,Left,1,57,100,596.0,0.489583,Eighth,A3
2683,Right,0,62,110,596.5,0.322917,Triplet,D4
2684,Right,0,65,110,596.666667,0.322917,Triplet,F4
2685,Right,0,69,110,596.833333,0.15625,TripletSixteenth,A4
2686,Right,0,74,110,597.0,0.489583,Eighth,D5
2688,Right,0,76,110,597.5,0.489583,Eighth,E5
2687,Left,1,50,110,597.5,0.322917,Triplet,D3
2689,Left,1,53,110,597.666667,0.322917,Triplet,F3
2690,Left,1,57,110,597.833333,0.322917,Triplet,A3
2692,Right,0,77,110,598.0,0.489583,Eighth,F5
2691,Left,1,62,110,598.0,0.489583,Eighth,D4
2693,Right,0,64,110,598.333333,0.322917,Triplet,E4
2694,Right,0,79,110,598.5,0.489583,Eighth,G5
2695,Left,1,38,110,598.5,0.322917,Triplet,D2
2696,Left,1,41,110,598.666667,0.322917,Triplet,F2
2697,Right,0,65,110,598.833333,0.322917,Triplet,F4
2698,Left,1,45,110,598.833333,0.15625,TripletSixteenth,A2
2699,Right,0,81,110,599.0,0.489583,Eighth,A5
2700,Left,1,50,110,599.0,0.489583,Eighth,D3
2702,Left,1,52,110,599.5,0.489583,Eighth,E3
2701,Right,0,67,110,599.5,0.489583,Eighth,G4
2703,Left,1,53,110,600.0,0.489583,Eighth,F3
2704,Right,0,69,110,600.333333,0.15625,TripletSixteenth,A4
2705,Right,0,70,110,600.666667,0.322917,Triplet,A#4
2706,Right,0,74,110,600.833333,0.15625,TripletSixteenth,D5
2707,Right,0,79,110,601.0,0.489583,Eighth,G5
2709,Right,0,81,110,601.5,0.489583,Eighth,A5
2708,Left,1,55,110,601.5,0.322917,Triplet,G3
2710,Left,1,58,110,601.666667,0.322917,Triplet,A#3
2711,Left,1,62,110,601.833333,0.322917,Triplet,D4
2712,Right,0,82,110,602.0,0.489583,Eighth,A#5
2713,Left,1,67,110,602.0,0.489583,Eighth,G4
2714,Right,0,69,110,602.333333,0.322917,Triplet,A4
2716,Right,0,84,110,602.5,0.489583,Eighth,C6
2715,Left,1,43,110,602.5,0.322917,Triplet,G2
2717,Left,1,46,110,602.666667,0.322917,Triplet,A#2
2719,Right,0,70,110,602.833333,0.322917,Triplet,A#4
2718,Left,1,50,110,602.833333,0.15625,TripletSixteenth,D3
2721,Left,1,55,110,603.0,0.489583,Eighth,G3
2720,Right,0,86,110,603.0,0.989583,Quarter,D6
2723,Right,0,72,110,603.5,0.489583,Eighth,C5
2722,Left,1,57,110,603.5,0.489583,Eighth,A3
2725,Right,0,74,110,604.0,0.489583,Eighth,D5
2724,Left,1,58,110,604.0,0.489583,Eighth,A#3
2726,Right,0,60,110,604.5,0.322917,Triplet,C4
2727,Right,0,64,110,604.666667,0.322917,Triplet,E4
2728,Right,0,67,110,604.833333,0.15625,TripletSixteenth,G4
2729,Right,0,72,110,605.0,0.489583,Eighth,C5
2731,Right,0,74,110,605.5,0.489583,Eighth,D5
2730,Left,1,48,110,605.5,0.322917,Triplet,C3
2732,Left,1,52,110,605.666667,0.322917,Triplet,E3
2733,Left,1,55,110,605.833333,0.322917,Triplet,G3
2735,Left,1,60,110,606.0,0.489583,Eighth,C4
2734,Right,0,76,110,606.0,0.489583,Eighth,E5
2736,Right,0,62,110,606.333333,0.322917,Triplet,D4
2738,Left,1,36,110,606.5,0.322917,Triplet,C2
2737,Right,0,77,110,606.5,0.489583,Eighth,F5
2739,Left,1,40,110,606.666667,0.322917,Triplet,E2
2740,Left,1,43,110,606.833333,0.15625,TripletSixteenth,G2
2741,Right,0,64,110,606.833333,0.322917,Triplet,E4
2743,Right,0,79,110,607.0,0.989583,Quarter,G5
2742,Left,1,48,110,607.0,0.489583,Eighth,C3
2744,Right,0,65,110,607.5,0.489583,Eighth,F4
2745,Left,1,50,110,607.5,0.489583,Eighth,D3
2746,Right,0,67,110,608.0,0.489583,Eighth,G4
2747,Left,1,52,110,608.0,0.489583,Eighth,E3
2748,Right,0,65,110,608.5,0.322917,Triplet,F4
2749,Right,0,69,110,608.666667,0.322917,Triplet,A4
2750,Right,0,72,110,608.833333,0.15625,TripletSixteenth,C5
2751,Right,0,77,110,609.0,0.489583,Eighth,F5
2752,Right,0,79,110,609.5,0.489583,Eighth,G5
2753,Left,1,53,110,609.5,0.322917,Triplet,F3
2754,Left,1,57,110,609.666667,0.322917,Triplet,A3
2755,Left,1,60,110,609.833333,0.322917,Triplet,C4
2756,Left,1,65,110,610.0,0.489583,Eighth,F4
2757,Right,0,81,110,610.0,0.489583,Eighth,A5
2758,Right,0,67,110,610.333333,0.322917,Triplet,G4
2760,Left,1,41,110,610.5,0.322917,Triplet,F2
2759,Right,0,82,110,610.5,0.489583,Eighth,A#5
2761,Left,1,45,110,610.666667,0.322917,Triplet,A2
2763,Right,0,69,110,610.833333,0.322917,Triplet,A4
2762,Left,1,48,110,610.833333,0.15625,TripletSixteenth,C3
2765,Right,0,84,110,611.0,0.989583,Quarter,C6
2764,Left,1,53,110,611.0,0.489583,Eighth,F3
2767,Right,0,70,110,611.5,0.489583,Eighth,A#4
2766,Left,1,55,110,611.5,0.489583,Eighth,G3
2769,Right,0,72,110,612.0,0.489583,Eighth,C5
2768,Left,1,57,110,612.0,0.489583,Eighth,A3
2770,Right,0,84,80,612.5,0.489583,Eighth,C6
2771,Left,1,67,80,613.0,0.489583,Eighth,G4
2772,Right,0,76,80,613.0,0.989583,Quarter,E5_A#4
2775,Left,1,69,80,613.5,0.489583,Eighth,A4
2774,Right,0,72,80,613.5,0.489583,Eighth,C5
2777,Left,1,70,80,614.0,0.489583,Eighth,A#4
2776,Right,0,73,80,614.0,0.489583,Eighth,C#5
2778,Right,0,76,80,614.5,0.489583,Eighth,E5
2781,Left,1,69,80,615.0,0.489583,Eighth,A4
2779,Right,0,72,80,615.0,0.989583,Eighth,F5_C5
2782,Right,0,70,80,615.5,0.489583,Eighth,A#4
2783,Left,1,67,80,615.5,0.489583,Eighth,G4
2784,Right,0,69,80,616.0,0.489583,Eighth,A4
2785,Left,1,65,80,616.0,0.489583,Eighth,F4
2786,Right,0,77,80,616.5,0.489583,Eighth,F5
2787,Right,0,67,80,617.0,0.989583,Eighth,G4_C#5
2788,Left,1,64,80,617.0,0.489583,Eighth,E4
2791,Left,1,65,80,617.5,0.489583,Eighth,F4
2790,Right,0,69,80,617.5,0.489583,Eighth,A4
2792,Left,1,67,80,618.0,0.489583,Eighth,G4
2793,Right,0,70,80,618.0,0.489583,Eighth,A#4
2794,Right,0,62,110,618.5,0.322917,Triplet,D4
2795,Right,0,65,110,618.666667,0.322917,Triplet,F4
2796,Right,0,69,110,618.833333,0.15625,TripletSixteenth,A4
2797,Right,0,74,110,619.0,0.489583,Eighth,D5
2798,Left,1,50,110,619.5,0.322917,Triplet,D3
2799,Right,0,76,110,619.5,0.489583,Eighth,E5
2800,Left,1,53,110,619.666667,0.322917,Triplet,F3
2801,Left,1,57,110,619.833333,0.322917,Triplet,A3
2802,Left,1,62,110,620.0,0.489583,Eighth,D4
2803,Right,0,77,110,620.0,0.489583,Eighth,F5
2804,Right,0,64,110,620.333333,0.322917,Triplet,E4
2805,Right,0,79,110,620.5,0.489583,Eighth,G5
2806,Left,1,38,110,620.5,0.322917,Triplet,D2
2807,Left,1,41,110,620.666667,0.322917,Triplet,F2
2809,Left,1,45,110,620.833333,0.15625,TripletSixteenth,A2
2808,Right,0,65,110,620.833333,0.322917,Triplet,F4
2810,Left,1,50,110,621.0,0.489583,Eighth,D3
2811,Right,0,81,110,621.0,0.989583,Quarter,A5
2813,Left,1,52,110,621.5,0.489583,Eighth,E3
2812,Right,0,67,110,621.5,0.489583,Eighth,G4
2815,Right,0,69,110,622.0,0.489583,Eighth,A4
2814,Left,1,53,110,622.0,0.489583,Eighth,F3
2816,Right,0,81,80,622.5,0.489583,Eighth,A5
2817,Right,0,67,80,623.0,0.989583,Eighth,G4_C#5
2819,Left,1,64,80,623.0,0.489583,Eighth,E4
2820,Right,0,69,80,623.5,0.489583,Eighth,A4
2821,Left,1,65,80,623.5,0.489583,Eighth,F4
2822,Left,1,67,80,624.0,0.489583,Eighth,G4
2823,Right,0,70,80,624.0,0.489583,Eighth,A#4
2824,Right,0,73,80,624.5,0.489583,Eighth,C#5
2827,Left,1,65,80,625.0,0.489583,Eighth,F4
2825,Right,0,69,80,625.0,0.989583,Eighth,D5_A4
2828,Left,1,64,80,625.5,0.489583,Eighth,E4
2829,Right,0,67,80,625.5,0.489583,Eighth,G4
2831,Right,0,65,80,626.0,0.489583,Eighth,F4
2830,Left,1,62,80,626.0,0.489583,Eighth,D4
2832,Right,0,74,80,626.5,0.489583,Eighth,D5
2834,Left,1,62,80,627.0,0.489583,Eighth,D4
2833,Right,0,65,80,627.0,0.989583,Eighth,G#4_F4
2837,Left,1,60,80,627.5,0.489583,Eighth,C4
2836,Right,0,64,80,627.5,0.489583,Eighth,E4
2838,Left,1,59,80,628.0,0.489583,Eighth,B3
2839,Right,0,62,80,628.0,0.489583,Eighth,D4
2840,Right,0,57,110,628.5,0.322917,Triplet,A3
2841,Right,0,60,110,628.666667,0.322917,Triplet,C4
2842,Right,0,64,110,628.833333,0.15625,TripletSixteenth,E4
2843,Right,0,69,110,629.0,0.489583,Eighth,A4
2845,Left,1,45,110,629.5,0.322917,Triplet,A2
2844,Right,0,71,110,629.5,0.489583,Eighth,B4
2846,Left,1,48,110,629.666667,0.322917,Triplet,C3
2847,Left,1,52,110,629.833333,0.322917,Triplet,E3
2848,Right,0,72,110,630.0,0.489583,Eighth,C5
2849,Left,1,57,110,630.0,0.489583,Eighth,A3
2850,Right,0,59,110,630.333333,0.322917,Triplet,B3
2852,Left,1,33,110,630.5,0.322917,Triplet,A1
2851,Right,0,74,110,630.5,0.489583,Eighth,D5
2853,Left,1,36,110,630.666667,0.322917,Triplet,C2
2855,Right,0,60,110,630.833333,0.322917,Triplet,C4
2854,Left,1,40,110,630.833333,0.15625,TripletSixteenth,E2
2857,Right,0,76,110,631.0,0.989583,Quarter,E5
2856,Left,1,45,110,631.0,0.489583,Eighth,A2
2859,Left,1,47,110,631.5,0.489583,Eighth,B2
2858,Right,0,62,110,631.5,0.489583,Eighth,D4
2860,Left,1,48,110,632.0,0.489583,Eighth,C3
2861,Right,0,64,110,632.0,0.489583,Eighth,E4
2862,Right,0,76,80,632.5,0.489583,Eighth,E5
2864,Right,0,68,80,633.0,0.989583,Quarter,G#4_D4
2863,Left,1,59,80,633.0,0.489583,Eighth,B3
2867,Left,1,60,80,633.5,0.489583,Eighth,C4
2866,Right,0,64,80,633.5,0.489583,Eighth,E4
2869,Right,0,65,80,634.0,0.489583,Eighth,F4
2868,Left,1,62,80,634.0,0.489583,Eighth,D4
2870,Right,0,68,80,634.5,0.489583,Eighth,G#4
2872,Left,1,60,80,635.0,0.489583,Eighth,C4
2871,Right,0,64,80,635.0,0.989583,Eighth,E4_A4
2874,Right,0,62,80,635.5,0.489583,Eighth,D4
2875,Left,1,59,80,635.5,0.489583,Eighth,B3
2877,Right,0,60,80,636.0,0.489583,Eighth,C4
2876,Left,1,57,80,636.0,0.489583,Eighth,A3
2878,Right,0,69,80,636.5,0.489583,Eighth,A4
2880,Right,0,63,80,637.0,0.989583,Quarter,D#4_C4
2879,Left,1,57,80,637.0,0.489583,Eighth,A3
2882,Right,0,59,80,637.5,0.489583,Eighth,B3
2883,Left,1,56,80,637.5,0.489583,Eighth,G#3
2884,Left,1,54,80,638.0,0.489583,Eighth,F#3
2885,Right,0,57,80,638.0,0.489583,Eighth,A3
2886,Right,0,63,80,638.5,0.489583,Eighth,D#4
2887,Right,0,56,80,639.0,1.489583,DottedQuarter,G#3_E4
2889,Left,1,40,110,639.5,0.322917,Triplet,E2
2890,Left,1,44,110,639.666667,0.322917,Triplet,G#2
2891,Left,1,47,110,639.833333,0.15625,TripletSixteenth,B2
2892,Left,1,52,110,640.0,2.989583,DottedHalf,E3
2893,Right,0,66,110,640.5,0.489583,Eighth,F#4_E4_A3
2896,Right,0,68,80,641.0,0.489583,Eighth,G#4_E4_B3
2899,Right,0,64,80,641.5,0.489583,Eighth,E4_C4_A4
2902,Right,0,62,80,642.0,0.489583,Eighth,E4_D4_B4
2905,Right,0,59,80,642.5,0.489583,Eighth,G#4_E4_B3
2908,Right,0,64,80,643.0,0.989583,Quarter,E4_C4_A4
2911,Left,1,40,110,643.5,0.322917,Triplet,E2
2912,Left,1,45,110,643.666667,0.322917,Triplet,A2
2913,Left,1,48,110,643.833333,0.15625,TripletSixteenth,C3
2914,Left,1,52,110,644.0,2.989583,DottedHalf,E3
2915,Right,0,72,110,644.5,0.489583,Eighth,E4_C5
2917,Right,0,71,80,645.0,0.489583,Eighth,E4_D4_B4
2920,Right,0,69,80,645.5,0.489583,Eighth,E4_C4_A4
2923,Right,0,68,80,646.0,0.489583,Eighth,G#4_E4_B3
2926,Right,0,64,80,646.5,0.489583,Eighth,F#4_E4_A3
2929,Right,0,64,80,647.0,1.0625,Quarter,G#3_E4
2931,Left,1,40,110,647.5,0.322917,Triplet,E2
2932,Left,1,44,110,647.666667,0.322917,Triplet,G#2
2933,Left,1,47,110,647.833333,0.15625,TripletSixteenth,B2
2934,Left,1,52,110,648.0,2.989583,DottedHalf,E3
2935,Right,0,66,110,648.5,0.489583,Eighth,F#4_E4_A3
2938,Right,0,59,80,649.0,0.489583,Eighth,G#4_E4_B3
2941,Right,0,69,80,649.5,0.489583,Eighth,E4_C4_A4
2944,Right,0,62,80,650.0,0.489583,Eighth,E4_D4_B4
2947,Right,0,68,80,650.5,0.489583,Eighth,G#4_E4_B3
2950,Right,0,60,80,651.0,0.989583,Quarter,E4_C4_A4
2953,Left,1,40,110,651.5,0.322917,Triplet,E2
2954,Left,1,45,110,651.666667,0.322917,Triplet,A2
2955,Left,1,48,110,651.833333,0.15625,TripletSixteenth,C3
2956,Left,1,52,110,652.0,2.989583,DottedHalf,E3
2957,Right,0,72,110,652.5,0.489583,Eighth,E4_C5
2959,Right,0,71,80,653.0,0.489583,Eighth,E4_D4_B4
2962,Right,0,69,80,653.5,0.489583,Eighth,E4_C4_A4
2965,Right,0,68,80,654.0,0.489583,Eighth,G#4_E4_B3
2968,Right,0,66,80,654.5,0.489583,Eighth,F#4_E4_A3
2971,Right,0,64,120,655.0,3.989583,Whole,G#3_E4_B3
2974,Left,1,40,120,655.5,0.489583,Eighth,E2
2975,Left,1,44,120,656.0,0.489583,Eighth,G#2
2976,Left,1,47,120,656.5,0.489583,Eighth,B2
2977,Left,1,49,120,657.0,0.489583,Eighth,C#3
2978,Left,1,51,120,657.5,0.489583,Eighth,D#3
2979,Left,1,52,120,658.0,0.489583,Eighth,E3
2980,Left,1,40,120,658.5,0.489583,Eighth,E2
2981,Right,0,57,120,659.0,3.989583,Whole,F#4_D4_A4_A3
2985,Left,1,42,120,659.5,0.489583,Eighth,F#2
2986,Left,1,45,120,660.0,0.489583,Eighth,A2
2987,Left,1,49,120,660.5,0.489583,Eighth,C#3
2988,Left,1,50,120,661.0,0.489583,Eighth,D3
2989,Left,1,52,120,661.5,0.489583,Eighth,E3
2990,Left,1,54,120,662.0,0.489583,Eighth,F#3
2991,Left,1,42,120,662.5,0.489583,Eighth,F#2
2992,Right,0,71,120,663.0,3.989583,Whole,G#4_E4_D5_D4_B4
2997,Left,1,44,120,663.5,0.489583,Eighth,G#2
2998,Left,1,47,120,664.0,0.489583,Eighth,B2
2999,Left,1,51,120,664.5,0.489583,Eighth,D#3
3000,Left,1,52,120,665.0,0.489583,Eighth,E3
3001,Left,1,54,120,665.5,0.489583,Eighth,F#3
3002,Left,1,56,120,666.0,0.489583,Eighth,G#3
3003,Left,1,57,120,666.5,0.489583,Eighth,A3
3005,Left,1,59,120,667.0,0.489583,Eighth,B3
3004,Right,0,62,120,667.0,0.489583,Eighth,E4_D4
3009,Left,1,57,120,667.5,0.489583,Eighth,A3
3007,Right,0,64,120,667.5,0.489583,Eighth,E4_D4
3010,Left,1,56,120,668.0,0.489583,Eighth,G#3
3011,Right,0,64,120,668.0,0.489583,Eighth,E4_D4
3013,Right,0,62,120,668.5,0.489583,Eighth,E4_D4
3015,Left,1,54,120,668.5,0.489583,Eighth,F#3
3017,Right,0,74,80,669.0,0.489583,Eighth,E4_D5_D4
3016,Left,1,52,80,669.0,0.989583,Quarter,E3
3020,Right,0,73,80,669.5,0.489583,Eighth,E4_D4_C#5
3023,Right,0,64,80,670.0,0.489583,Eighth,E4_D4_B4
3026,Right,0,69,80,670.5,0.489583,Eighth,E4_D4_A4
3029,Right,0,64,80,671.0,0.989583,Eighth,G#4_E4_D4
3031,Left,1,52,80,671.0,0.489583,Eighth,E3
3033,Left,1,54,80,671.5,0.489583,Eighth,F#3
3034,Right,0,62,80,671.5,0.489583,Eighth,E4_D4
3037,Left,1,56,80,672.0,0.489583,Eighth,G#3
3036,Right,0,64,80,672.0,0.489583,Eighth,E4_D4
3039,Left,1,57,80,672.5,0.489583,Eighth,A3
3040,Right,0,62,80,672.5,0.489583,Eighth,E4_D4
3042,Right,0,68,80,673.0,0.489583,Eighth,G#4_E4_D4
3043,Left,1,59,80,673.0,0.989583,Quarter,B3
3046,Right,0,69,80,673.5,0.489583,Eighth,E4_D4_A4
3049,Right,0,62,80,674.0,0.489583,Eighth,E4_D4_B4
3052,Right,0,73,80,674.5,0.489583,Eighth,E4_D4_C#5
3059,Left,1,56,70,675.0,0.489583,Eighth,G#3_E3
3055,Right,0,64,70,675.0,0.489583,Eighth,E4_D5_D4_B4
3062,Right,0,73,70,677.0,0.489583,Eighth,C#5_C#4_A4
3061,Left,1,57,70,677.0,0.489583,Eighth,F#3_A3
3067,Left,1,50,70,679.0,0.489583,Eighth,D3_B3
3066,Right,0,66,70,679.0,0.489583,Eighth,F#5_F#4_A4
3073,Right,0,62,70,681.0,0.989583,Quarter,G#4_D4
3071,Left,1,52,70,681.0,0.989583,Quarter,E3_B3
3075,Left,1,57,100,684.5,0.489583,Eighth,A3
3076,Right,0,69,100,684.5,0.489583,Eighth,A5_A4
3079,Right,0,64,100,685.0,0.989583,Quarter,E5_E4
3078,Left,1,52,100,685.0,0.989583,Quarter,E3
3082,Right,0,64,100,686.5,0.114583,ThirtySecond,E4
3081,Left,1,52,100,686.5,0.114583,ThirtySecond,E3
3083,Right,0,62,100,686.625,0.114583,ThirtySecond,D4
3084,Left,1,50,100,686.625,0.114583,ThirtySecond,D3
3086,Right,0,61,100,686.75,0.114583,ThirtySecond,C#4
3085,Left,1,49,100,686.75,0.114583,ThirtySecond,C#3
3087,Right,0,59,100,686.875,0.114583,ThirtySecond,B3
3088,Left,1,47,100,686.875,0.114583,ThirtySecond,B2
3090,Right,0,57,100,687.0,0.989583,Quarter,A3
3089,Left,1,45,100,687.0,0.989583,Quarter,A2
3091,Right,0,81,100,688.5,0.489583,Eighth,A5_A4
3093,Left,1,57,100,688.5,0.489583,Eighth,A3
3096,Left,1,54,100,689.0,0.989583,Quarter,F#3
3094,Right,0,78,100,689.0,0.989583,Quarter,F#5_F#4
3098,Right,0,66,100,690.5,0.114583,ThirtySecond,F#4
3097,Left,1,54,100,690.5,0.114583,ThirtySecond,F#3
3099,Left,1,52,100,690.625,0.114583,ThirtySecond,E3
3100,Right,0,64,100,690.625,0.114583,ThirtySecond,E4
3101,Right,0,62,100,690.75,0.114583,ThirtySecond,D4
3102,Left,1,50,100,690.75,0.114583,ThirtySecond,D3
3104,Right,0,61,100,690.875,0.114583,ThirtySecond,C#4
3103,Left,1,49,100,690.875,0.114583,ThirtySecond,C#3
3106,Left,1,47,100,691.0,0.989583,Quarter,B2
3105,Right,0,59,100,691.0,0.989583,Quarter,B3
3108,Right,0,86,110,692.5,0.489583,Eighth,D6_D5
3107,Left,1,62,110,692.5,0.489583,Eighth,D4
3110,Right,0,71,110,693.0,0.989583,Quarter,B5_B4
3112,Left,1,59,110,693.0,0.989583,Quarter,B3
3113,Right,0,68,110,694.0,0.989583,Quarter,G#5_G#4
3115,Left,1,56,110,694.0,0.989583,Quarter,G#3
3116,Right,0,76,110,695.0,0.989583,Quarter,E5_E4
3118,Left,1,52,110,695.0,0.989583,Quarter,E3
3120,Right,0,74,80,696.0,0.989583,Quarter,D5_D4
3119,Left,1,50,80,696.0,0.989583,Quarter,D3
3122,Right,0,59,80,697.0,0.989583,Quarter,B4_B3
3123,Left,1,47,80,697.0,0.989583,Quarter,B2
3126,Right,0,56,80,698.0,0.989583,Quarter,G#4_G#3
3125,Left,1,44,80,698.0,0.989583,Quarter,G#2
3130,Left,1,40,80,699.0,0.989583,Quarter,E2
3128,Right,0,64,80,699.0,0.989583,Quarter,E4_E3
3131,Right,0,57,80,700.5,0.15625,TripletSixteenth,A3
3132,Right,0,61,80,700.666667,0.15625,TripletSixteenth,C#4
3133,Right,0,64,80,700.833333,0.15625,TripletSixteenth,E4
3135,Right,0,69,110,701.0,0.489583,Eighth,A4
3134,Left,1,45,110,701.0,0.989583,Quarter,A2
3136,Left,1,49,80,701.166667,0.822917,DottedEighth,C#3
3137,Left,1,52,80,701.333333,0.65625,DottedEighth,E3
3139,Left,1,57,80,701.5,0.15625,TripletSixteenth,A3
3138,Right,0,71,80,701.5,0.489583,Eighth,B4
3140,Right,0,73,80,702.0,0.489583,Eighth,C#5
3141,Right,0,74,80,702.5,0.489583,Eighth,D5
3142,Right,0,76,80,703.0,0.489583,Eighth,E5
3143,Right,0,78,80,703.5,0.489583,Eighth,F#5
3144,Right,0,80,80,704.0,0.489583,Eighth,G#5
3145,Right,0,81,80,704.5,0.489583,Eighth,A5
3146,Right,0,76,80,705.0,1.489583,DottedQuarter,E5
3148,Left,1,52,80,705.5,0.489583,Eighth,E3
3147,Right,0,68,80,705.5,0.489583,Eighth,G#4
3150,Left,1,54,80,706.0,0.489583,Eighth,F#3
3149,Right,0,69,80,706.0,0.489583,Eighth,A4
3152,Right,0,71,80,706.5,0.489583,Eighth,D5_B4
3151,Left,1,56,80,706.5,0.489583,Eighth,G#3
3155,Right,0,73,80,707.0,0.489583,Eighth,E4_C#5
3154,Left,1,57,80,707.0,0.489583,Eighth,A3
3157,Left,1,45,80,707.5,0.489583,Eighth,A2
3158,Left,1,49,80,708.0,0.489583,Eighth,C#3
3159,Left,1,50,80,708.5,0.489583,Eighth,D3
3160,Left,1,52,80,709.0,1.489583,DottedQuarter,E3
3161,Right,0,64,80,709.5,0.489583,Eighth,G#3_E4
3163,Right,0,66,80,710.0,0.489583,Eighth,F#4_A3
3165,Right,0,59,80,710.5,0.489583,Eighth,G#4_B3
3167,Left,1,50,80,710.5,0.489583,Eighth,D3
3168,Right,0,61,80,711.0,0.489583,Eighth,C#4_A4
3170,Left,1,49,80,711.0,0.489583,Eighth,C#3
3172,Right,0,64,80,711.5,0.489583,Eighth,E4
3171,Left,1,52,80,711.5,0.489583,Eighth,E3
3174,Left,1,49,80,712.0,0.489583,Eighth,C#3
3173,Right,0,69,80,712.0,0.489583,Eighth,A4
3176,Left,1,45,80,712.5,0.489583,Eighth,A2
3175,Right,0,73,80,712.5,0.489583,Eighth,C#5
3177,Right,0,71,80,713.0,1.489583,Eighth,E5_B4
3178,Left,1,44,80,713.0,0.489583,Eighth,G#2
3180,Left,1,40,80,713.5,0.489583,Eighth,E2
3181,Right,0,68,80,713.5,0.489583,Eighth,G#4
3183,Left,1,42,80,714.0,0.489583,Eighth,F#2
3182,Right,0,69,80,714.0,0.489583,Eighth,A4
3184,Left,1,44,80,714.5,0.489583,Eighth,G#2
3185,Right,0,71,80,714.5,0.489583,Eighth,D5_B4
3187,Right,0,64,80,715.0,1.489583,DottedQuarter,E4_C#5
3188,Left,1,45,80,715.0,0.489583,Eighth,A2
3190,Left,1,44,80,715.5,0.489583,Eighth,G#2
3191,Right,0,71,80,715.5,0.489583,Eighth,B4
3193,Right,0,69,80,716.0,0.489583,Eighth,A4
3192,Left,1,42,80,716.0,0.489583,Eighth,F#2
3194,Right,0,71,80,716.5,0.489583,Eighth,D#4_B4
3196,Left,1,47,80,716.5,0.489583,Eighth,B2
3199,Right,0,68,70,717.0,0.989583,Eighth,G#4_B3
3197,Left,1,40,70,717.0,1.989583,Half,E3_E2
3201,Right,0,64,70,717.5,0.489583,Eighth,E4
3202,Left,1,47,70,717.5,0.489583,Eighth,B2
3203,Right,0,63,70,718.0,0.989583,Quarter,D#4_A4_A3
3205,Left,1,54,70,718.0,0.489583,Eighth,F#3
3207,Right,0,71,70,718.5,0.489583,Eighth,B4
3208,Left,1,47,70,718.5,0.489583,Eighth,B2
3211,Left,1,52,70,719.0,1.989583,Eighth,E3_E2
3209,Right,0,68,70,719.0,0.989583,Eighth,G#4_B3
3214,Left,1,47,70,719.5,0.489583,Eighth,B2
3213,Right,0,64,70,719.5,0.489583,Eighth,E4
3215,Right,0,69,70,720.0,0.989583,Quarter,D#4_A4_A3
3218,Left,1,54,70,720.0,0.489583,Eighth,F#3
3220,Left,1,47,70,720.5,0.489583,Eighth,B2
3219,Right,0,71,70,720.5,0.489583,Eighth,B4
3221,Left,1,40,70,721.0,0.989583,Quarter,E3_E2
3222,Right,0,59,70,721.0,0.989583,Quarter,G#4_E4_B3
3226,Right,0,64,70,723.5,0.489583,Eighth,E4
3230,Left,1,52,70,724.0,0.989583,Eighth,E3_E2
3227,Right,0,55,70,724.0,0.989583,Quarter,G4_G3_C#4
3232,Left,1,44,70,724.5,0.489583,Eighth,G#2
3233,Right,0,69,70,724.5,0.489583,Eighth,A4
3235,Right,0,66,70,725.0,0.989583,Eighth,F#4_A3
3234,Left,1,50,70,725.0,1.989583,Eighth,D3_D2
3238,Right,0,62,70,725.5,0.489583,Eighth,D4
3239,Left,1,45,70,725.5,0.489583,Eighth,A2
3240,Right,0,67,70,726.0,0.989583,Quarter,G4_G3_C#4
3242,Left,1,52,70,726.0,0.489583,Eighth,E3
3245,Left,1,45,70,726.5,0.489583,Eighth,A2
3244,Right,0,69,70,726.5,0.489583,Eighth,A4
3248,Left,1,38,70,727.0,1.989583,Half,D3_D2
3246,Right,0,57,70,727.0,0.989583,Quarter,F#4_A3
3251,Left,1,45,70,727.5,0.489583,Eighth,A2
3250,Right,0,62,70,727.5,0.489583,Eighth,D4
3252,Left,1,52,70,728.0,0.489583,Eighth,E3
3253,Right,0,67,70,728.0,0.989583,Quarter,G4_G3_C#4
3257,Right,0,69,70,728.5,0.489583,Eighth,A4
3256,Left,1,45,70,728.5,0.489583,Eighth,A2
3258,Right,0,66,70,729.0,0.989583,Quarter,F#4_D4_A3
3261,Left,1,38,70,729.0,0.989583,Quarter,D3_D2
3263,Right,0,69,120,731.5,0.489583,Eighth,A4
3267,Left,1,47,120,732.0,0.989583,Quarter,B3_B2
3264,Right,0,74,120,732.0,0.989583,Quarter,G#4_D5_D4
3269,Right,0,76,120,732.5,0.489583,Eighth,E5
3270,Left,1,52,120,732.5,0.489583,Eighth,E3
3272,Right,0,73,120,733.0,0.989583,Eighth,E4_C#5
3271,Left,1,45,120,733.0,0.989583,Quarter,A3_A2
3275,Right,0,69,120,733.5,0.489583,Eighth,A4
3276,Left,1,52,120,733.5,0.489583,Eighth,E3
3277,Right,0,62,120,734.0,0.989583,Quarter,G#4_D5_D4
3278,Left,1,59,120,734.0,0.989583,Eighth,B3_B2
3283,Right,0,76,120,734.5,0.489583,Eighth,E5
3282,Left,1,52,120,734.5,0.489583,Eighth,E3
3285,Right,0,64,120,735.0,0.989583,Quarter,E4_C#5
3284,Left,1,57,120,735.0,0.989583,Eighth,A3_A2
3289,Left,1,52,120,735.5,0.489583,Eighth,E3
3288,Right,0,69,120,735.5,0.489583,Eighth,A4
3291,Right,0,74,120,736.0,0.989583,Quarter,G#4_D5_D4
3290,Left,1,47,120,736.0,0.989583,Quarter,B3_B2
3295,Right,0,76,120,736.5,0.489583,Eighth,E5
3296,Left,1,52,120,736.5,0.489583,Eighth,E3
3300,Left,1,45,110,737.0,0.322917,Triplet,A2
3297,Right,0,69,120,737.0,0.989583,Quarter,E4_C#5_A4
3301,Left,1,49,110,737.166667,0.322917,Triplet,C#3
3302,Left,1,50,110,737.333333,0.322917,Triplet,D3
3303,Left,1,52,110,737.5,0.322917,Triplet,E3
3304,Left,1,54,110,737.666667,0.322917,Triplet,F#3
3305,Left,1,56,110,737.833333,0.322917,Triplet,G#3
3306,Left,1,57,110,738.0,0.322917,Triplet,A3
3307,Left,1,61,110,738.166667,0.322917,Triplet,C#4
3308,Left,1,62,110,738.333333,0.322917,Triplet,D4
3309,Left,1,64,110,738.5,0.322917,Triplet,E4
3310,Left,1,66,110,738.666667,0.322917,Triplet,F#4
3311,Left,1,68,110,738.833333,0.15625,TripletSixteenth,G#4
3312,Left,1,69,110,739.0,0.489583,Eighth,A4
3313,Left,1,68,110,739.5,0.489583,Eighth,G#4
3314,Left,1,66,110,740.0,0.489583,Eighth,F#4
3315,Left,1,64,110,740.5,0.489583,Eighth,E4
3316,Left,1,62,110,741.0,0.489583,Eighth,D4
3317,Right,0,64,110,741.0,0.322917,Triplet,E4
3318,Right,0,68,110,741.166667,0.322917,Triplet,G#4
3319,Right,0,69,110,741.333333,0.322917,Triplet,A4
3320,Left,1,61,110,741.5,0.489583,Eighth,C#4
3321,Right,0,71,110,741.5,0.322917,Triplet,B4
3322,Right,0,73,110,741.666667,0.322917,Triplet,C#5
3323,Right,0,74,110,741.833333,0.322917,Triplet,D5
3325,Left,1,59,110,742.0,0.489583,Eighth,B3
3324,Right,0,76,110,742.0,0.322917,Triplet,E5
3326,Right,0,80,110,742.166667,0.322917,Triplet,G#5
3327,Right,0,81,110,742.333333,0.322917,Triplet,A5
3328,Right,0,83,110,742.5,0.322917,Triplet,B5
3329,Left,1,57,110,742.5,0.489583,Eighth,A3
3330,Right,0,85,110,742.666667,0.322917,Triplet,C#6
3331,Right,0,86,110,742.833333,0.15625,TripletSixteenth,D6
3333,Left,1,56,110,743.0,0.489583,Eighth,G#3
3332,Right,0,88,110,743.0,0.489583,Eighth,E6
3334,Right,0,86,110,743.5,0.489583,Eighth,D6
3335,Left,1,52,110,743.5,0.489583,Eighth,E3
3337,Left,1,54,110,744.0,0.489583,Eighth,F#3
3336,Right,0,85,110,744.0,0.489583,Eighth,C#6
3339,Right,0,83,110,744.5,0.489583,Eighth,B5
3338,Left,1,56,110,744.5,0.489583,Eighth,G#3
3340,Right,0,81,110,745.0,0.989583,Quarter,A5
3341,Left,1,45,110,745.0,0.322917,Triplet,A2
3342,Left,1,49,110,745.166667,0.322917,Triplet,C#3
3343,Left,1,50,110,745.333333,0.322917,Triplet,D3
3344,Left,1,52,110,745.5,0.322917,Triplet,E3
3345,Left,1,54,110,745.666667,0.322917,Triplet,F#3
3346,Left,1,56,110,745.833333,0.322917,Triplet,G#3
3347,Left,1,57,110,746.0,0.322917,Triplet,A3
3348,Left,1,61,110,746.166667,0.322917,Triplet,C#4
3349,Left,1,62,110,746.333333,0.322917,Triplet,D4
3350,Left,1,64,110,746.5,0.322917,Triplet,E4
3351,Left,1,66,110,746.666667,0.322917,Triplet,F#4
3352,Left,1,68,110,746.833333,0.15625,TripletSixteenth,G#4
3353,Left,1,69,110,747.0,0.489583,Eighth,A4
3354,Left,1,68,110,747.5,0.489583,Eighth,G#4
3355,Left,1,66,110,748.0,0.489583,Eighth,F#4
3356,Left,1,64,110,748.5,0.489583,Eighth,E4
3357,Left,1,62,110,749.0,0.489583,Eighth,D4
3358,Right,0,64,110,749.0,0.322917,Triplet,E4
3359,Right,0,68,110,749.166667,0.322917,Triplet,G#4
3360,Right,0,69,111,749.333333,0.322917,Triplet,A4
3362,Right,0,71,112,749.5,0.322917,Triplet,B4
3361,Left,1,61,112,749.5,0.489583,Eighth,C#4
3363,Right,0,73,113,749.666667,0.322917,Triplet,C#5
3364,Right,0,74,114,749.833333,0.322917,Triplet,D5
3366,Right,0,76,115,750.0,0.322917,Triplet,E5
3365,Left,1,59,115,750.0,0.489583,Eighth,B3
3367,Right,0,80,115,750.166667,0.322917,Triplet,G#5
3368,Right,0,81,116,750.333333,0.322917,Triplet,A5
3369,Right,0,83,117,750.5,0.322917,Triplet,B5
3370,Left,1,57,117,750.5,0.489583,Eighth,A3
3371,Right,0,85,118,750.666667,0.322917,Triplet,C#6
3372,Right,0,86,119,750.833333,0.15625,TripletSixteenth,D6
3373,Right,0,88,120,751.0,0.489583,Eighth,E6
3374,Left,1,56,120,751.0,0.489583,Eighth,G#3
3375,Right,0,86,120,751.5,0.489583,Eighth,D6
3376,Left,1,54,120,751.5,0.489583,Eighth,F#3
3377,Right,0,85,120,752.0,0.489583,Eighth,C#6
3378,Left,1,52,120,752.0,0.489583,Eighth,E3
3380,Left,1,50,120,752.5,0.489583,Eighth,D3
3379,Right,0,83,120,752.5,0.489583,Eighth,B5
3381,Left,1,49,120,753.0,0.489583,Eighth,C#3
3382,Right,0,81,120,753.0,0.489583,Eighth,A5
3384,Left,1,47,120,753.5,0.489583,Eighth,B2
3383,Right,0,80,120,753.5,0.489583,Eighth,G#5
3385,Right,0,78,120,754.0,0.489583,Eighth,F#5
3386,Left,1,45,120,754.0,0.489583,Eighth,A2
3387,Right,0,76,120,754.5,0.489583,Eighth,E5
3388,Left,1,44,120,754.5,0.489583,Eighth,G#2
3390,Left,1,42,120,755.0,0.489583,Eighth,F#2
3389,Right,0,75,120,755.0,0.489583,Eighth,D#5
3391,Right,0,73,120,755.5,0.489583,Eighth,C#5
3392,Left,1,40,120,755.5,0.489583,Eighth,E2
3393,Left,1,39,120,756.0,0.489583,Eighth,D#2
3394,Right,0,71,120,756.0,0.489583,Eighth,B4
3396,Left,1,36,120,756.5,0.489583,Eighth,C2
3395,Right,0,69,120,756.5,0.489583,Eighth,A4
3397,Right,0,68,100,757.0,0.989583,Quarter,G#4
3398,Left,1,40,100,757.0,8.489583,Unknown,E2
3399,Right,0,66,100,757.5,0.489583,Eighth,F#4
3400,Right,0,64,100,758.0,0.989583,Eighth,G#4_E4
3402,Right,0,62,100,758.5,0.489583,Eighth,D4
3403,Right,0,69,100,759.0,0.989583,Quarter,C#4_A4
3405,Right,0,59,100,759.5,0.489583,Eighth,B3
3406,Right,0,57,100,760.0,0.989583,Eighth,D#4_A3
3408,Right,0,59,100,760.5,0.489583,Eighth,B3
3409,Right,0,56,100,761.0,0.989583,Eighth,G#3_E4
3411,Right,0,54,100,761.5,0.489583,Eighth,F#3
3412,Right,0,56,100,762.0,0.989583,Quarter,G#3_E3
3414,Right,0,50,100,762.5,0.489583,Eighth,D3
3415,Right,0,49,100,763.0,0.989583,Eighth,C#3_A3
3417,Right,0,47,100,763.5,0.489583,Eighth,B2
3418,Right,0,45,100,764.0,0.989583,Eighth,D#3_A2
3420,Right,0,47,100,764.5,0.489583,Eighth,B2
3421,Right,0,44,100,765.0,0.989583,Quarter,G#2_E3
3423,Left,1,44,100,765.5,0.489583,Eighth,G#2
3424,Left,1,47,100,766.0,0.489583,Eighth,B2
3425,Left,1,51,100,766.5,0.489583,Eighth,D#3
3426,Left,1,52,100,767.0,0.489583,Eighth,E3
3427,Left,1,56,100,767.5,0.489583,Eighth,G#3
3428,Left,1,59,100,768.0,0.489583,Eighth,B3
3429,Left,1,63,100,768.5,0.489583,Eighth,D#4
3430,Left,1,64,100,769.0,0.489583,Eighth,E4
3431,Left,1,63,100,769.5,0.489583,Eighth,D#4
3432,Left,1,64,100,770.0,0.489583,Eighth,E4
3433,Right,0,64,100,770.5,0.489583,Eighth,E4
3434,Right,0,65,100,771.0,0.489583,Eighth,F4
3435,Right,0,64,100,771.5,0.489583,Eighth,E4
3436,Right,0,71,100,772.0,0.489583,Eighth,B4
3437,Right,0,68,100,772.5,0.489583,Eighth,G#4
3438,Left,1,62,100,773.0,0.489583,Eighth,D4
3439,Left,1,61,100,773.5,0.489583,Eighth,C#4
3440,Left,1,62,100,774.0,0.489583,Eighth,D4
3441,Right,0,64,100,774.5,0.489583,Eighth,E4
3442,Right,0,65,100,775.0,0.489583,Eighth,F4
3443,Right,0,64,100,775.5,0.489583,Eighth,E4
3444,Right,0,71,100,776.0,0.489583,Eighth,B4
3445,Right,0,68,100,776.5,0.489583,Eighth,G#4
3446,Left,1,60,100,777.0,0.489583,Eighth,C4
3447,Left,1,59,100,777.5,0.489583,Eighth,B3
3448,Left,1,60,100,778.0,0.489583,Eighth,C4
3449,Right,0,64,100,778.5,0.489583,Eighth,E4
3450,Right,0,65,100,779.0,0.489583,Eighth,F4
3451,Right,0,64,100,779.5,0.489583,Eighth,E4
3452,Right,0,72,100,780.0,0.489583,Eighth,C5
3453,Right,0,69,100,780.5,0.489583,Eighth,A4
3454,Left,1,56,100,781.0,7.989583,Unknown,G#3
3455,Left,1,59,100,781.5,7.489583,Unknown,B3
3456,Left,1,62,100,782.0,4.989583,Unknown,D4
3457,Left,1,64,100,782.5,0.489583,Eighth,E4
3459,Left,1,65,116,783.0,3.989583,Whole,F4
3458,Right,0,68,100,783.0,0.489583,Eighth,G#4
3460,Right,0,71,100,783.5,0.489583,Eighth,B4
3461,Right,0,74,100,784.0,0.489583,Eighth,D5
3462,Right,0,76,100,784.5,0.489583,Eighth,E5
3463,Right,0,77,100,785.0,0.489583,Eighth,F5
3464,Right,0,76,100,785.5,0.489583,Eighth,E5
3465,Right,0,79,100,786.0,0.489583,Eighth,G5
3466,Right,0,77,100,786.5,0.489583,Eighth,F5
3467,Right,0,76,100,787.0,0.489583,Eighth,E5
3468,Left,1,64,100,787.0,0.989583,Quarter,E4
3469,Right,0,74,100,787.5,0.489583,Eighth,D5
3470,Right,0,72,100,788.0,0.489583,Eighth,C5
3471,Left,1,62,100,788.0,0.989583,Quarter,D4
3472,Right,0,71,100,788.5,0.489583,Eighth,B4
3473,Left,1,57,100,789.0,0.239583,Sixteenth,C4_A3
3475,Right,0,69,100,789.0,0.989583,Quarter,A4
3476,Left,1,64,100,789.25,0.239583,Sixteenth,E4
3477,Left,1,57,100,789.5,0.239583,Sixteenth,C4_A3
3479,Left,1,64,100,789.75,0.239583,Sixteenth,E4
3480,Left,1,60,100,790.0,0.239583,Sixteenth,C4_A3
3482,Left,1,64,100,790.25,0.239583,Sixteenth,E4
3484,Left,1,60,100,790.5,0.239583,Sixteenth,C4_A3
3483,Right,0,81,100,790.5,0.489583,Eighth,A5
3486,Left,1,64,100,790.75,0.239583,Sixteenth,E4
3488,Left,1,60,100,791.0,0.239583,Sixteenth,C4_A3
3487,Right,0,80,100,791.0,0.489583,Eighth,G#5
3490,Left,1,64,100,791.25,0.239583,Sixteenth,E4
3492,Left,1,57,100,791.5,0.239583,Sixteenth,C4_A3
3491,Right,0,81,100,791.5,0.489583,Eighth,A5
3494,Left,1,64,100,791.75,0.239583,Sixteenth,E4
3495,Right,0,84,100,792.0,0.489583,Eighth,C6
3496,Left,1,57,100,792.0,0.239583,Sixteenth,C4_A3
3498,Left,1,64,100,792.25,0.239583,Sixteenth,E4
3501,Right,0,81,100,792.5,0.489583,Eighth,A5
3499,Left,1,60,100,792.5,0.239583,Sixteenth,C4_A3
3502,Left,1,64,100,792.75,0.239583,Sixteenth,E4
3503,Right,0,81,100,793.0,0.739583,DottedEighth,A5
3504,Left,1,59,100,793.0,0.239583,Sixteenth,D4_B3
3506,Left,1,64,100,793.25,0.239583,Sixteenth,E4
3507,Left,1,59,100,793.5,0.239583,Sixteenth,D4_B3
3509,Right,0,83,100,793.75,0.114583,ThirtySecond,B5
3510,Left,1,65,100,793.75,0.239583,Sixteenth,F4
3511,Right,0,81,100,793.875,0.114583,ThirtySecond,A5
3513,Left,1,59,100,794.0,0.239583,Sixteenth,D4_B3
3512,Right,0,80,100,794.0,1.989583,Half,G#5
3515,Left,1,65,100,794.25,0.239583,Sixteenth,F4
3516,Left,1,59,100,794.5,0.239583,Sixteenth,D4_B3
3518,Left,1,65,100,794.75,0.239583,Sixteenth,F4
3519,Left,1,59,100,795.0,0.239583,Sixteenth,D4_B3
3521,Left,1,65,100,795.25,0.239583,Sixteenth,F4
3522,Left,1,62,100,795.5,0.239583,Sixteenth,D4_B3
3524,Left,1,65,100,795.75,0.239583,Sixteenth,F4
3526,Left,1,59,100,796.0,0.239583,Sixteenth,D4_B3
3525,Right,0,79,100,796.0,0.989583,Quarter,G5
3528,Left,1,65,100,796.25,0.239583,Sixteenth,F4
3529,Left,1,59,100,796.5,0.239583,Sixteenth,D4_B3
3531,Left,1,65,100,796.75,0.239583,Sixteenth,F4
3532,Right,0,79,100,797.0,0.989583,Quarter,G5
3533,Left,1,64,100,797.0,0.239583,Sixteenth,E4_C4
3535,Left,1,67,100,797.25,0.239583,Sixteenth,G4
3536,Left,1,60,100,797.5,0.239583,Sixteenth,E4_C4
3538,Left,1,67,100,797.75,0.239583,Sixteenth,G4
3539,Left,1,60,100,798.0,0.239583,Sixteenth,E4_C4
3541,Left,1,67,100,798.25,0.239583,Sixteenth,G4
3544,Right,0,84,100,798.5,0.489583,Eighth,C6
3542,Left,1,60,100,798.5,0.239583,Sixteenth,E4_C4
3545,Left,1,67,100,798.75,0.239583,Sixteenth,G4
3548,Right,0,83,100,799.0,0.489583,Eighth,B5
3546,Left,1,64,100,799.0,0.239583,Sixteenth,E4_C4
3549,Left,1,67,100,799.25,0.239583,Sixteenth,G4
3551,Right,0,84,100,799.5,0.489583,Eighth,C6
3550,Left,1,60,100,799.5,0.239583,Sixteenth,E4_C4
3553,Left,1,67,100,799.75,0.239583,Sixteenth,G4
3554,Left,1,60,100,800.0,0.239583,Sixteenth,E4_C4
3555,Right,0,88,100,800.0,0.489583,Eighth,E6
3557,Left,1,67,100,800.25,0.239583,Sixteenth,G4
3560,Right,0,84,100,800.5,0.489583,Eighth,C6
3558,Left,1,60,100,800.5,0.239583,Sixteenth,E4_C4
3561,Left,1,67,100,800.75,0.239583,Sixteenth,G4
3562,Left,1,65,100,801.0,0.239583,Sixteenth,F4_D4
3564,Right,0,84,100,801.0,0.739583,DottedEighth,C6
3565,Left,1,67,100,801.25,0.239583,Sixteenth,G4
3566,Left,1,62,100,801.5,0.239583,Sixteenth,F4_D4
3569,Right,0,86,100,801.75,0.114583,ThirtySecond,D6
3568,Left,1,68,100,801.75,0.239583,Sixteenth,G#4
3570,Right,0,84,100,801.875,0.114583,ThirtySecond,C6
3573,Right,0,83,100,802.0,1.989583,Half,B5
3571,Left,1,62,100,802.0,0.239583,Sixteenth,F4_D4
3574,Left,1,68,100,802.25,0.239583,Sixteenth,G#4
3575,Left,1,62,100,802.5,0.239583,Sixteenth,F4_D4
3577,Left,1,68,100,802.75,0.239583,Sixteenth,G#4
3578,Left,1,65,100,803.0,0.239583,Sixteenth,F4_D4
3580,Left,1,68,100,803.25,0.239583,Sixteenth,G#4
3581,Left,1,62,100,803.5,0.239583,Sixteenth,F4_D4
3583,Left,1,68,100,803.75,0.239583,Sixteenth,G#4
3584,Right,0,82,100,804.0,0.989583,Quarter,A#5
3585,Left,1,65,100,804.0,0.239583,Sixteenth,F4_D4
3587,Left,1,68,100,804.25,0.239583,Sixteenth,G#4
3588,Left,1,62,100,804.5,0.239583,Sixteenth,F4_D4
3590,Left,1,68,100,804.75,0.239583,Sixteenth,G#4
3592,Right,0,82,100,805.0,0.989583,Quarter,A#5
3591,Left,1,63,100,805.0,0.239583,Sixteenth,D#4
3593,Left,1,67,100,805.25,0.239583,Sixteenth,G4
3594,Left,1,55,100,805.5,0.239583,Sixteenth,G3_D#3
3596,Left,1,58,100,805.75,0.239583,Sixteenth,A#3
3597,Left,1,51,100,806.0,0.239583,Sixteenth,G3_D#3
3599,Left,1,58,100,806.25,0.239583,Sixteenth,A#3
3600,Right,0,75,100,806.5,0.489583,Eighth,D#5
3601,Left,1,51,100,806.5,0.239583,Sixteenth,G3_D#3
3603,Left,1,58,100,806.75,0.239583,Sixteenth,A#3
3604,Right,0,74,100,807.0,0.489583,Eighth,D5
3605,Left,1,55,100,807.0,0.239583,Sixteenth,G3_D#3
3607,Left,1,58,100,807.25,0.239583,Sixteenth,A#3
3608,Left,1,55,100,807.5,0.239583,Sixteenth,G3_D#3
3609,Right,0,75,100,807.5,0.489583,Eighth,D#5
3611,Left,1,58,100,807.75,0.239583,Sixteenth,A#3
3612,Right,0,79,100,808.0,0.489583,Eighth,G5
3613,Left,1,51,100,808.0,0.239583,Sixteenth,G3_D#3
3615,Left,1,58,100,808.25,0.239583,Sixteenth,A#3
3616,Left,1,51,100,808.5,0.239583,Sixteenth,G3_D#3
3617,Right,0,75,100,808.5,0.489583,Eighth,D#5
3619,Left,1,58,100,808.75,0.239583,Sixteenth,A#3
3621,Left,1,53,100,809.0,0.239583,Sixteenth,G#3_F3
3620,Right,0,75,100,809.0,0.739583,DottedEighth,D#5
3623,Left,1,58,100,809.25,0.239583,Sixteenth,A#3
3624,Left,1,53,100,809.5,0.239583,Sixteenth,G#3_F3
3626,Left,1,59,100,809.75,0.239583,Sixteenth,B3
3627,Right,0,77,100,809.75,0.114583,ThirtySecond,F5
3628,Right,0,75,100,809.875,0.114583,ThirtySecond,D#5
3629,Left,1,56,100,810.0,0.239583,Sixteenth,G#3_F3
3631,Right,0,62,100,810.0,1.989583,Half,D5_D4
3633,Left,1,59,100,810.25,0.239583,Sixteenth,B3
3634,Left,1,56,100,810.5,0.239583,Sixteenth,G#3_F3
3636,Left,1,59,100,810.75,0.239583,Sixteenth,B3
3637,Left,1,54,100,811.0,0.239583,Sixteenth,F#3_A3
3639,Left,1,59,100,811.25,0.239583,Sixteenth,B3
3640,Left,1,54,100,811.5,0.239583,Sixteenth,F#3_A3
3642,Left,1,60,100,811.75,0.239583,Sixteenth,C4
3645,Right,0,74,100,812.0,0.989583,Quarter,D5
3643,Left,1,54,100,812.0,0.239583,Sixteenth,F#3_A3
3646,Left,1,60,100,812.25,0.239583,Sixteenth,C4
3647,Left,1,54,100,812.5,0.239583,Sixteenth,F#3_A3
3649,Left,1,60,100,812.75,0.239583,Sixteenth,C4
3651,Left,1,59,100,813.0,0.239583,Sixteenth,G3_B3
3650,Right,0,74,100,813.0,0.489583,Eighth,D5
3653,Left,1,61,100,813.25,0.239583,Sixteenth,C#4
3654,Right,0,76,100,813.5,0.239583,Sixteenth,E5
3655,Left,1,59,100,813.5,0.239583,Sixteenth,G3_B3
3657,Right,0,74,100,813.625,0.239583,Sixteenth,D5
3659,Right,0,73,100,813.75,0.239583,Sixteenth,C#5
3658,Left,1,62,100,813.75,0.239583,Sixteenth,D4
3660,Right,0,74,100,813.875,0.114583,ThirtySecond,D5
3661,Right,0,65,110,814.0,1.989583,Half,F5_F4
3662,Left,1,55,100,814.0,0.239583,Sixteenth,G3_B3
3665,Left,1,62,100,814.25,0.239583,Sixteenth,D4
3666,Left,1,55,100,814.5,0.239583,Sixteenth,G3_B3
3668,Left,1,62,100,814.75,0.239583,Sixteenth,D4
3669,Left,1,56,100,815.0,0.239583,Sixteenth,G#3_B3
3671,Left,1,62,100,815.25,0.239583,Sixteenth,D4
3672,Left,1,59,100,815.5,0.239583,Sixteenth,G#3_B3
3674,Left,1,62,100,815.75,0.239583,Sixteenth,D4
3676,Right,0,64,100,816.0,0.989583,Quarter,E5_E4
3675,Left,1,59,100,816.0,0.239583,Sixteenth,G#3_B3
3679,Left,1,62,100,816.25,0.239583,Sixteenth,D4
3680,Left,1,56,100,816.5,0.239583,Sixteenth,G#3_B3
3682,Left,1,62,100,816.75,0.239583,Sixteenth,D4
3684,Left,1,57,100,817.0,0.239583,Sixteenth,C#4_A3
3683,Right,0,76,100,817.0,0.489583,Eighth,E5
3686,Left,1,62,100,817.25,0.239583,Sixteenth,D4
3687,Right,0,78,100,817.5,0.239583,Sixteenth,F#5
3688,Left,1,61,100,817.5,0.239583,Sixteenth,C#4_A3
3690,Right,0,76,100,817.625,0.239583,Sixteenth,E5
3691,Left,1,64,100,817.75,0.239583,Sixteenth,E4
3692,Right,0,74,100,817.75,0.239583,Sixteenth,D5
3693,Right,0,76,100,817.875,0.114583,ThirtySecond,E5
3696,Right,0,79,110,818.0,1.989583,Half,G5_G4
3694,Left,1,61,100,818.0,0.239583,Sixteenth,C#4_A3
3698,Left,1,64,100,818.25,0.239583,Sixteenth,E4
3699,Left,1,61,100,818.5,0.239583,Sixteenth,C#4_A3
3701,Left,1,64,100,818.75,0.239583,Sixteenth,E4
3702,Left,1,61,100,819.0,0.239583,Sixteenth,C#4_A3
3704,Left,1,64,100,819.25,0.239583,Sixteenth,E4
3705,Left,1,61,100,819.5,0.239583,Sixteenth,C#4_A3
3707,Left,1,64,100,819.75,0.239583,Sixteenth,E4
3708,Left,1,57,100,820.0,0.239583,Sixteenth,C#4_A3
3709,Right,0,66,100,820.0,0.989583,Quarter,F#5_F#4
3712,Left,1,64,100,820.25,0.239583,Sixteenth,E4
3713,Left,1,57,100,820.5,0.239583,Sixteenth,C#4_A3
3715,Left,1,64,100,820.75,0.239583,Sixteenth,E4
3717,Left,1,59,100,821.0,0.239583,Sixteenth,D4_B3
3716,Right,0,78,100,821.0,0.489583,Eighth,F#5
3719,Left,1,64,100,821.25,0.239583,Sixteenth,E4
3720,Left,1,59,100,821.5,0.239583,Sixteenth,D4_B3
3721,Right,0,80,100,821.5,0.239583,Sixteenth,G#5
3723,Right,0,78,100,821.625,0.239583,Sixteenth,F#5
3725,Right,0,77,100,821.75,0.239583,Sixteenth,F5
3724,Left,1,64,100,821.75,0.239583,Sixteenth,E4
3726,Right,0,78,100,821.875,0.114583,ThirtySecond,F#5
3729,Right,0,81,110,822.0,1.989583,Half,A5_A4
3727,Left,1,62,100,822.0,0.239583,Sixteenth,D4_B3
3731,Left,1,65,100,822.25,0.239583,Sixteenth,F4
3732,Left,1,62,100,822.5,0.239583,Sixteenth,D4_B3
3734,Left,1,65,100,822.75,0.239583,Sixteenth,F4
3735,Left,1,59,100,823.0,0.239583,Sixteenth,D4_B3
3737,Left,1,65,100,823.25,0.239583,Sixteenth,F4
3738,Left,1,62,100,823.5,0.239583,Sixteenth,D4_B3
3740,Left,1,65,100,823.75,0.239583,Sixteenth,F4
3742,Right,0,80,100,824.0,0.989583,Quarter,G#5_G#4
3741,Left,1,62,100,824.0,0.239583,Sixteenth,D4_B3
3745,Left,1,65,100,824.25,0.239583,Sixteenth,F4
3746,Left,1,59,100,824.5,0.239583,Sixteenth,D4_B3
3748,Left,1,65,100,824.75,0.239583,Sixteenth,F4
3749,Right,0,80,100,825.0,0.989583,Quarter,G#5_G#4
3751,Left,1,62,100,825.0,0.989583,Quarter,D4_B3
3754,Left,1,53,120,826.5,0.239583,Sixteenth,F3
3753,Right,0,65,120,826.5,0.239583,Sixteenth,F4
3755,Right,0,64,120,826.625,0.239583,Sixteenth,E4
3756,Left,1,52,120,826.625,0.239583,Sixteenth,E3
3758,Right,0,62,120,826.75,0.239583,Sixteenth,D4
3757,Left,1,50,120,826.75,0.239583,Sixteenth,D3
3759,Right,0,60,120,826.875,0.114583,ThirtySecond,C4
3760,Left,1,48,120,826.875,0.114583,ThirtySecond,C3
3762,Left,1,47,120,827.0,0.989583,Quarter,B2
3761,Right,0,59,120,827.0,0.989583,Quarter,B3
3763,Right,0,69,70,828.5,0.489583,Eighth,A5_A4
3765,Right,0,68,70,829.0,0.989583,Quarter,G#5_G#4
3768,Left,1,53,120,830.5,0.239583,Sixteenth,F3
3767,Right,0,65,120,830.5,0.239583,Sixteenth,F4
3770,Left,1,52,120,830.625,0.239583,Sixteenth,E3
3769,Right,0,64,120,830.625,0.239583,Sixteenth,E4
3772,Left,1,50,120,830.75,0.239583,Sixteenth,D3
3771,Right,0,62,120,830.75,0.239583,Sixteenth,D4
3774,Left,1,48,120,830.875,0.114583,ThirtySecond,C3
3773,Right,0,60,120,830.875,0.114583,ThirtySecond,C4
3776,Right,0,59,120,831.0,0.989583,Quarter,B3
3775,Left,1,47,120,831.0,0.989583,Quarter,B2
3777,Right,0,81,70,832.5,0.489583,Eighth,A5
3778,Right,0,80,70,833.0,0.989583,Quarter,G#5
3779,Left,1,59,70,834.0,0.989583,Quarter,F4_D4_B3
3782,Right,0,81,70,834.5,0.489583,Eighth,A5
3783,Right,0,80,70,835.0,0.989583,Quarter,G#5
3784,Left,1,59,70,836.0,0.989583,Quarter,F4_D4_B3
3787,Right,0,81,70,836.5,0.489583,Eighth,A5
3788,Right,0,80,70,837.0,0.989583,Quarter,G#5
3789,Left,1,62,70,838.0,0.989583,Quarter,F4_D4_B3
3792,Right,0,76,100,840.5,0.489583,Eighth,E5
3793,Left,1,49,120,841.0,0.989583,Quarter,E3_C#4_C#3_A3
3797,Right,0,69,120,841.5,0.322917,Triplet,A4
3798,Right,0,81,120,841.666667,0.322917,Triplet,A5
3799,Right,0,69,120,841.833333,0.322917,Triplet,A4
3800,Right,0,64,120,842.0,0.322917,Triplet,E4
3801,Right,0,76,120,842.166667,0.322917,Triplet,E5
3802,Right,0,64,120,842.333333,0.322917,Triplet,E4
3803,Right,0,61,120,842.5,0.322917,Triplet,C#4
3804,Right,0,73,120,842.666667,0.322917,Triplet,C#5
3805,Right,0,61,120,842.833333,0.322917,Triplet,C#4
3806,Right,0,57,120,843.0,0.322917,Triplet,A3
3807,Right,0,69,120,843.166667,0.322917,Triplet,A4
3808,Right,0,57,120,843.333333,0.322917,Triplet,A3
3809,Right,0,52,120,843.5,0.322917,Triplet,E3
3810,Right,0,64,120,843.666667,0.322917,Triplet,E4
3811,Right,0,52,120,843.833333,0.322917,Triplet,E3
3812,Right,0,49,120,844.0,0.322917,Triplet,C#3
3813,Right,0,61,120,844.166667,0.322917,Triplet,C#4
3814,Right,0,49,120,844.333333,0.322917,Triplet,C#3
3815,Right,0,45,120,844.5,0.322917,Triplet,A2
3816,Right,0,57,120,844.666667,0.322917,Triplet,A3
3817,Right,0,45,120,844.833333,0.15625,TripletSixteenth,A2
3819,Right,0,57,120,845.0,1.989583,Half,B3_A3
3818,Left,1,42,120,845.0,1.989583,Half,F#2_D#3
3822,Right,0,64,120,847.0,1.989583,Half,G#3_E4
3824,Left,1,40,120,847.0,1.989583,Half,E2_D3
3826,Left,1,49,120,849.0,0.989583,Quarter,C#3_A2
3828,Right,0,52,120,849.5,0.322917,Triplet,E3
3829,Right,0,64,120,849.666667,0.322917,Triplet,E4
3830,Right,0,52,120,849.833333,0.322917,Triplet,E3
3831,Right,0,57,120,850.0,0.322917,Triplet,A3
3832,Right,0,69,120,850.166667,0.322917,Triplet,A4
3833,Right,0,57,120,850.333333,0.322917,Triplet,A3
3834,Right,0,61,120,850.5,0.322917,Triplet,C#4
3835,Right,0,73,120,850.666667,0.322917,Triplet,C#5
3836,Right,0,61,120,850.833333,0.322917,Triplet,C#4
3837,Right,0,64,120,851.0,0.322917,Triplet,E4
3838,Right,0,76,120,851.166667,0.322917,Triplet,E5
3839,Right,0,64,120,851.333333,0.322917,Triplet,E4
3840,Right,0,69,120,851.5,0.322917,Triplet,A4
3841,Right,0,81,120,851.666667,0.322917,Triplet,A5
3842,Right,0,69,120,851.833333,0.322917,Triplet,A4
3843,Right,0,73,120,852.0,0.322917,Triplet,C#5
3844,Right,0,85,120,852.166667,0.322917,Triplet,C#6
3845,Right,0,73,120,852.333333,0.322917,Triplet,C#5
3846,Right,0,76,120,852.5,0.322917,Triplet,E5
3847,Right,0,88,120,852.666667,0.322917,Triplet,E6
3848,Right,0,76,120,852.833333,0.15625,TripletSixteenth,E5
3849,Right,0,87,120,853.0,1.989583,Half,D#6_D#5_B5_A5
3853,Left,1,69,120,853.0,1.989583,Half,F#4_A4
3855,Right,0,74,120,855.0,1.989583,Half,G#5_E6_D5_B5
3858,Left,1,64,120,855.0,1.989583,Half,G#4_E4
3861,Left,1,57,100,857.0,0.322917,Triplet,A3
3862,Right,0,81,100,857.0,0.489583,Eighth,C#5_A5
3864,Left,1,61,100,857.166667,0.322917,Triplet,C#4
3865,Left,1,62,100,857.333333,0.322917,Triplet,D4
3866,Left,1,64,100,857.5,0.322917,Triplet,E4
3867,Left,1,66,100,857.666667,0.322917,Triplet,F#4
3868,Left,1,68,100,857.833333,0.322917,Triplet,G#4
3869,Left,1,69,100,858.0,0.489583,Eighth,A4
3870,Right,0,73,100,858.166667,0.322917,Triplet,C#5
3871,Right,0,74,100,858.333333,0.322917,Triplet,D5
3872,Right,0,76,100,858.5,0.322917,Triplet,E5
3873,Right,0,78,100,858.666667,0.322917,Triplet,F#5
3874,Right,0,80,100,858.833333,0.15625,TripletSixteenth,G#5
3875,Right,0,81,100,859.0,0.489583,Eighth,A5
3876,Right,0,80,100,859.5,0.489583,Eighth,G#5
3877,Right,0,78,100,860.0,0.489583,Eighth,F#5
3878,Right,0,76,100,860.5,0.489583,Eighth,E5
3880,Right,0,74,100,861.0,0.489583,Eighth,D5
3879,Left,1,40,100,861.0,0.322917,Triplet,E2
3881,Left,1,44,100,861.166667,0.322917,Triplet,G#2
3882,Left,1,45,100,861.333333,0.322917,Triplet,A2
3883,Left,1,47,100,861.5,0.322917,Triplet,B2
3884,Right,0,73,100,861.5,0.489583,Eighth,C#5
3885,Left,1,49,100,861.666667,0.322917,Triplet,C#3
3886,Left,1,50,100,861.833333,0.322917,Triplet,D3
3888,Left,1,52,100,862.0,0.322917,Triplet,E3
3887,Right,0,71,100,862.0,0.489583,Eighth,B4
3889,Left,1,56,100,862.166667,0.322917,Triplet,G#3
3890,Left,1,57,100,862.333333,0.322917,Triplet,A3
3891,Right,0,69,100,862.5,0.489583,Eighth,A4
3892,Left,1,59,100,862.5,0.322917,Triplet,B3
3893,Left,1,61,100,862.666667,0.322917,Triplet,C#4
3894,Left,1,62,100,862.833333,0.15625,TripletSixteenth,D4
3895,Right,0,68,100,863.0,0.489583,Eighth,G#4
3896,Left,1,64,100,863.0,0.489583,Eighth,E4
3897,Left,1,62,100,863.5,0.489583,Eighth,D4
3898,Left,1,61,100,864.0,0.489583,Eighth,C#4
3899,Left,1,59,100,864.5,0.489583,Eighth,B3
3900,Right,0,57,100,865.0,0.489583,Eighth,A3
3901,Left,1,33,110,865.0,0.322917,Triplet,A1
3902,Left,1,37,110,865.166667,0.322917,Triplet,C#2
3903,Left,1,38,110,865.333333,0.322917,Triplet,D2
3904,Left,1,40,110,865.5,0.322917,Triplet,E2
3905,Left,1,42,110,865.666667,0.322917,Triplet,F#2
3906,Left,1,44,110,865.833333,0.322917,Triplet,G#2
3907,Left,1,45,110,866.0,0.322917,Triplet,A2
3908,Left,1,49,110,866.166667,0.322917,Triplet,C#3
3909,Left,1,50,110,866.333333,0.322917,Triplet,D3
3910,Left,1,52,110,866.5,0.322917,Triplet,E3
3911,Left,1,54,110,866.666667,0.322917,Triplet,F#3
3912,Left,1,56,110,866.833333,0.15625,TripletSixteenth,G#3
3913,Left,1,57,110,867.0,0.489583,Eighth,A3
3914,Left,1,56,110,867.5,0.489583,Eighth,G#3
3915,Left,1,54,110,868.0,0.489583,Eighth,F#3
3916,Left,1,52,110,868.5,0.489583,Eighth,E3
3918,Left,1,50,110,869.0,0.489583,Eighth,D3
3917,Right,0,64,120,869.0,0.322917,Triplet,E4
3919,Right,0,68,120,869.166667,0.322917,Triplet,G#4
3920,Right,0,69,120,869.333333,0.322917,Triplet,A4
3921,Right,0,71,120,869.5,0.322917,Triplet,B4
3922,Left,1,49,110,869.5,0.489583,Eighth,C#3
3923,Right,0,73,120,869.666667,0.322917,Triplet,C#5
3924,Right,0,74,120,869.833333,0.322917,Triplet,D5
3925,Right,0,76,120,870.0,0.322917,Triplet,E5
3926,Left,1,47,110,870.0,0.489583,Eighth,B2
3927,Right,0,80,120,870.166667,0.322917,Triplet,G#5
3928,Right,0,81,120,870.333333,0.322917,Triplet,A5
3929,Left,1,45,110,870.5,0.489583,Eighth,A2
3930,Right,0,83,120,870.5,0.322917,Triplet,B5
3931,Right,0,85,120,870.666667,0.322917,Triplet,C#6
3932,Right,0,86,120,870.833333,0.15625,TripletSixteenth,D6
3934,Left,1,44,120,871.0,0.489583,Eighth,G#2
3933,Right,0,88,120,871.0,0.489583,Eighth,E6
3935,Left,1,42,120,871.5,0.489583,Eighth,F#2
3936,Right,0,86,120,871.5,0.489583,Eighth,D6
3938,Left,1,40,120,872.0,0.489583,Eighth,E2
3937,Right,0,85,120,872.0,0.489583,Eighth,C#6
3940,Right,0,83,120,872.5,0.489583,Eighth,B5
3939,Left,1,38,120,872.5,0.489583,Eighth,D2
3941,Right,0,81,120,873.0,0.489583,Eighth,A5
3942,Left,1,37,120,873.0,3.989583,Whole,C#2
3943,Right,0,80,120,873.5,0.489583,Eighth,G#5
3944,Right,0,78,120,874.0,0.489583,Eighth,F#5
3945,Right,0,76,120,874.5,0.489583,Eighth,E5
3946,Right,0,74,120,875.0,0.489583,Eighth,D5
3947,Right,0,73,120,875.5,0.489583,Eighth,C#5
3948,Right,0,71,120,876.0,0.489583,Eighth,B4
3949,Right,0,69,120,876.5,0.489583,Eighth,A4
3951,Right,0,68,120,877.0,0.489583,Eighth,G#4
3950,Left,1,38,120,877.0,1.989583,Half,D2
3952,Right,0,66,120,877.5,0.489583,Eighth,F#4
3953,Right,0,64,120,878.0,0.489583,Eighth,E4
3954,Right,0,62,120,878.5,0.489583,Eighth,D4
3955,Left,1,40,120,879.0,1.989583,Half,E2
3956,Right,0,61,120,879.0,0.489583,Eighth,C#4
3957,Right,0,59,120,879.5,0.489583,Eighth,B3
3958,Right,0,57,120,880.0,0.489583,Eighth,A3
3959,Right,0,56,120,880.5,0.489583,Eighth,G#3
3961,Right,0,45,85,881.0,1.989583,Eighth,A3_A2
3960,Left,1,33,85,881.0,3.989583,Whole,A1
3963,Right,0,47,85,881.5,0.489583,Eighth,B2
3964,Right,0,49,85,882.0,0.489583,Eighth,C#3
3965,Right,0,50,85,882.5,0.489583,Eighth,D3
3966,Right,0,52,85,883.0,1.989583,Eighth,E3_D4
3968,Right,0,54,85,883.5,0.489583,Eighth,F#3
3969,Right,0,55,85,884.0,0.489583,Eighth,G3
3970,Right,0,56,85,884.5,0.489583,Eighth,G#3
3973,Left,1,33,85,885.0,3.989583,Whole,A1
3971,Right,0,52,85,885.0,1.989583,Half,E3_C#4_A3
3975,Left,1,35,85,885.5,0.489583,Eighth,B1
3976,Left,1,37,85,886.0,0.489583,Eighth,C#2
3977,Left,1,38,85,886.5,0.489583,Eighth,D2
3978,Right,0,52,85,887.0,1.989583,Half,E3_D3_B3
3980,Left,1,40,85,887.0,0.489583,Eighth,E2
3982,Left,1,42,85,887.5,0.489583,Eighth,F#2
3983,Left,1,43,85,888.0,0.489583,Eighth,G2
3984,Left,1,44,85,888.5,0.489583,Eighth,G#2
3987,Left,1,45,70,889.0,3.989583,Half,A2_A1
3985,Right,0,57,70,889.0,1.989583,Half,C#3_A3
3989,Right,0,47,70,889.5,0.489583,Eighth,B2
3990,Right,0,49,70,890.0,0.489583,Eighth,C#3
3991,Right,0,50,70,890.5,0.489583,Eighth,D3
3993,Right,0,62,70,891.0,1.989583,Half,E3_D4
3992,Left,1,44,70,891.0,0.989583,Quarter,G#2
3995,Right,0,54,70,891.5,0.489583,Eighth,F#3
3997,Right,0,55,70,892.0,0.489583,Eighth,G3
3996,Left,1,47,70,892.0,0.989583,Quarter,B2
3998,Right,0,56,70,892.5,0.489583,Eighth,G#3
4002,Left,1,33,70,893.0,3.989583,Whole,A1
3999,Right,0,61,70,893.0,1.989583,Half,E3_C#4_A3
4003,Left,1,35,70,893.5,0.489583,Eighth,B1
4004,Left,1,37,70,894.0,0.489583,Eighth,C#2
4005,Left,1,38,70,894.5,0.489583,Eighth,D2
4006,Left,1,40,70,895.0,0.489583,Eighth,E2
4007,Right,0,52,70,895.0,1.989583,Half,E3_D3_B3
4010,Left,1,42,70,895.5,0.489583,Eighth,F#2
4011,Left,1,43,70,896.0,0.489583,Eighth,G2
4012,Left,1,44,70,896.5,0.489583,Eighth,G#2
4013,Left,1,45,70,897.0,0.333333,Triplet,A2_A1
4015,Right,0,49,70,897.0,0.989583,Quarter,E3_C#3_A3
4018,Left,1,42,70,897.5,0.333333,Triplet,F#2
4019,Left,1,40,70,898.0,0.333333,Triplet,E2
4020,Left,1,38,70,898.5,0.333333,Triplet,D2
4021,Right,0,52,70,899.0,0.989583,Quarter,E3_C#3_A3
4023,Left,1,37,70,899.0,0.333333,Triplet,C#2
4025,Left,1,38,70,899.5,0.333333,Triplet,D2
4027,Right,0,57,70,900.0,0.989583,Quarter,E3_C#3_A3
4026,Left,1,37,70,900.0,0.333333,Triplet,C#2
4030,Left,1,35,70,900.5,0.333333,Triplet,B1
4031,Left,1,33,70,901.0,0.666667,DottedEighth,A1
4032,Right,0,57,70,901.0,0.989583,Quarter,E3_C#3_A3
4035,Left,1,33,70,903.0,0.666667,DottedEighth,A1
4036,Right,0,52,70,903.0,0.989583,Quarter,E3_C#3
4040,Left,1,33,70,905.0,1.989583,Half,A1
4038,Right,0,45,70,905.0,1.989583,Half,C#3_A2
4041,Right,0,57,1,908.0,0.989583,Quarter,A3
