,hand,channel,note,velocity,start_beat,duration,note_value,chord
1,Left,1,50,80,0.0,0.989583,Quarter,D3_D2
0,Right,0,66,80,0.0,0.989583,Quarter,F#4_A3
4,Left,1,40,80,0.5,0.239583,Sixteenth,E2
6,Left,1,42,80,1.0,0.989583,Sixteenth,F#2_D3
5,Right,0,57,80,1.0,0.989583,Quarter,F#4_A3
9,Left,1,40,80,1.5,0.239583,Sixteenth,E2
12,Left,1,50,80,2.0,0.989583,Quarter,F#2_D3
10,Right,0,66,80,2.0,0.989583,Quarter,F#4_A3
14,Left,1,38,80,2.5,0.239583,Sixteenth,D2
15,Left,1,43,80,3.0,0.989583,Sixteenth,G2_C#3
16,Right,0,57,80,3.0,0.989583,Quarter,E4_A3
19,Left,1,45,80,3.5,0.239583,Sixteenth,A2
22,Right,0,57,80,4.0,1.989583,Half,F#4_A3
20,Left,1,42,80,4.0,1.989583,Sixteenth,F#2_D3
24,Left,1,40,80,4.5,0.239583,Sixteenth,E2
25,Left,1,42,80,5.0,0.239583,Sixteenth,F#2
26,Left,1,38,80,5.5,0.239583,Sixteenth,D2
28,Right,0,67,80,6.0,1.989583,Half,G4_A3
27,Left,1,37,80,6.0,1.989583,Sixteenth,E3_C#2
31,Left,1,45,80,6.5,0.239583,Sixteenth,A2
32,Left,1,47,80,7.0,0.239583,Sixteenth,B2
33,Left,1,49,80,7.5,0.239583,Sixteenth,C#3
36,Left,1,50,80,8.0,0.989583,Quarter,D3
34,Right,0,57,80,8.0,0.989583,Quarter,F#4_A3
37,Left,1,44,80,8.5,0.239583,Sixteenth,G#2
39,Right,0,57,80,9.0,0.489583,Eighth,E4_A3
38,Left,1,45,80,9.0,0.489583,Eighth,C#3_A2
42,Left,1,45,80,9.5,2.489583,Half,A2
43,Left,1,44,80,10.0,0.489583,Eighth,G#2
44,Left,1,43,80,10.5,0.489583,Eighth,G2
45,Left,1,42,80,11.0,0.489583,Eighth,F#2
46,Left,1,40,80,11.5,0.489583,Eighth,E2
48,Left,1,50,80,12.0,0.989583,Quarter,D3_D2
47,Right,0,66,80,12.0,0.989583,Quarter,F#4_A3
51,Left,1,40,80,12.5,0.239583,Sixteenth,E2
54,Left,1,50,80,13.0,0.989583,Quarter,F#2_D3
52,Right,0,57,80,13.0,0.989583,Quarter,F#4_A3
56,Left,1,40,80,13.5,0.239583,Sixteenth,E2
57,Left,1,50,80,14.0,0.739583,DottedEighth,F#2_D3
58,Right,0,66,80,14.0,0.739583,DottedEighth,F#4_A3
61,Left,1,38,80,14.5,0.239583,Sixteenth,D2
63,Right,0,71,80,14.75,0.239583,Sixteenth,B4
62,Left,1,55,80,14.75,0.239583,Sixteenth,G3
66,Left,1,55,80,15.0,1.989583,Half,G3_G2
64,Right,0,59,80,15.0,1.989583,Eighth,B4_B3
68,Right,0,61,80,15.5,0.489583,Eighth,C#4
69,Left,1,45,80,15.5,0.489583,Eighth,A2
70,Right,0,62,80,16.0,0.489583,Eighth,D4
71,Left,1,47,80,16.0,0.489583,Eighth,B2
73,Left,1,49,80,16.5,0.489583,Eighth,C#3
72,Right,0,64,80,16.5,0.489583,Eighth,E4
75,Right,0,66,80,17.0,0.489583,Eighth,F#4_A4
74,Left,1,54,80,17.0,0.489583,Eighth,F#3_D3
78,Left,1,52,80,17.5,0.489583,Eighth,G3_E3
80,Right,0,67,80,17.5,0.489583,Eighth,G4_C#4
82,Left,1,54,80,18.0,0.489583,Eighth,F#3_A3
83,Right,0,66,80,18.0,0.489583,Eighth,F#4_D4
87,Right,0,59,80,18.5,0.489583,Eighth,E4_B3
86,Left,1,55,80,18.5,0.489583,Eighth,G3_G2
90,Right,0,62,80,19.0,0.989583,Quarter,D4
91,Left,1,54,80,19.0,0.989583,Eighth,F#3_A2
93,Left,1,57,80,19.5,0.489583,Eighth,A3
94,Left,1,55,80,20.0,1.489583,Eighth,G3_A2
97,Left,1,57,80,20.5,0.489583,Eighth,A3
96,Right,0,62,80,20.5,0.239583,Sixteenth,D4
98,Right,0,61,80,20.625,0.239583,Sixteenth,C#4
99,Right,0,59,80,20.75,0.239583,Sixteenth,B3
100,Right,0,61,80,20.875,0.114583,ThirtySecond,C#4
101,Right,0,64,80,21.0,1.489583,Quarter,G3_E4_A3
104,Left,1,38,80,21.0,1.489583,DottedQuarter,D2
105,Left,1,47,80,21.5,0.239583,Sixteenth,B2
106,Left,1,49,80,21.75,0.239583,Sixteenth,C#3
109,Left,1,50,80,22.0,0.489583,Eighth,D3
107,Right,0,54,80,22.0,0.489583,Eighth,F#3_D4
110,Right,0,64,80,22.5,0.489583,Eighth,E4
111,Right,0,66,80,23.0,0.489583,Eighth,F#4
112,Right,0,68,80,23.5,0.489583,Eighth,G#4
113,Right,0,69,80,24.0,1.989583,Half,A4
114,Left,1,64,80,24.5,0.489583,Eighth,E4
115,Left,1,57,80,25.0,0.989583,Quarter,C#4_A3
117,Left,1,64,80,25.5,0.489583,Eighth,E4
119,Left,1,62,80,26.0,0.989583,Eighth,D4_B3
118,Right,0,68,80,26.0,0.114583,ThirtySecond,G#4
121,Right,0,69,80,26.0625,0.114583,ThirtySecond,A4
122,Right,0,68,80,26.125,0.114583,ThirtySecond,G#4
123,Right,0,69,80,26.1875,0.114583,ThirtySecond,A4
124,Right,0,68,80,26.25,0.114583,ThirtySecond,G#4
125,Right,0,69,80,26.3125,0.114583,ThirtySecond,A4
126,Right,0,68,80,26.375,0.114583,ThirtySecond,G#4
127,Right,0,69,80,26.4375,0.114583,ThirtySecond,A4
128,Left,1,64,80,26.5,0.489583,Eighth,E4
129,Right,0,68,80,26.5,0.114583,ThirtySecond,G#4
130,Right,0,69,80,26.5625,0.114583,ThirtySecond,A4
131,Right,0,68,80,26.625,0.114583,ThirtySecond,G#4
132,Right,0,69,80,26.6875,0.114583,ThirtySecond,A4
133,Right,0,68,80,26.75,0.114583,ThirtySecond,G#4
134,Right,0,69,80,26.8125,0.114583,ThirtySecond,A4
135,Right,0,66,80,26.875,0.114583,ThirtySecond,F#4
136,Right,0,68,80,26.9375,0.052083,SixtyFourth,G#4
137,Left,1,57,80,27.0,1.989583,Half,A3
138,Right,0,69,80,27.0,0.489583,Eighth,C#4_A4
140,Right,0,64,80,27.5,0.489583,Eighth,E4
141,Right,0,61,80,28.0,0.489583,Eighth,C#4
142,Right,0,64,80,28.5,0.489583,Eighth,E4
143,Left,1,54,80,28.75,0.239583,Sixteenth,F#3
144,Left,1,56,80,28.875,0.114583,ThirtySecond,G#3
146,Left,1,56,80,29.0,0.114583,ThirtySecond,G#3
145,Right,0,59,80,29.0,0.489583,Eighth,D4_B3
148,Left,1,57,80,29.0625,0.114583,ThirtySecond,A3
149,Left,1,56,80,29.125,0.114583,ThirtySecond,G#3
150,Left,1,57,80,29.1875,0.114583,ThirtySecond,A3
151,Left,1,56,80,29.25,0.114583,ThirtySecond,G#3
152,Left,1,57,80,29.3125,0.114583,ThirtySecond,A3
153,Left,1,56,80,29.375,0.114583,ThirtySecond,G#3
154,Left,1,57,80,29.4375,0.114583,ThirtySecond,A3
156,Right,0,64,80,29.5,0.489583,Eighth,E4
155,Left,1,56,80,29.5,0.114583,ThirtySecond,G#3
157,Left,1,57,80,29.5625,0.114583,ThirtySecond,A3
158,Left,1,56,80,29.625,0.114583,ThirtySecond,G#3
159,Left,1,57,80,29.6875,0.114583,ThirtySecond,A3
160,Left,1,56,80,29.75,0.114583,ThirtySecond,G#3
161,Left,1,57,80,29.8125,0.114583,ThirtySecond,A3
162,Left,1,54,80,29.875,0.114583,ThirtySecond,F#3
163,Left,1,56,80,29.9375,0.052083,SixtyFourth,G#3
165,Right,0,61,80,30.0,1.989583,Eighth,C#4_A4
164,Left,1,57,80,30.0,0.489583,Eighth,A3
168,Right,0,64,80,30.5,0.489583,Eighth,E4
167,Left,1,52,80,30.5,0.489583,Eighth,E3
170,Right,0,57,80,31.0,0.489583,Eighth,A3
169,Left,1,49,80,31.0,0.489583,Eighth,C#3
172,Right,0,64,80,31.5,0.489583,Eighth,E4
171,Left,1,52,80,31.5,0.489583,Eighth,E3
174,Left,1,50,80,32.0,0.489583,Eighth,D3
173,Right,0,68,80,32.0,0.489583,ThirtySecond,G#4_B3
176,Right,0,69,80,32.0625,0.114583,ThirtySecond,A4
177,Right,0,68,80,32.125,0.114583,ThirtySecond,G#4
178,Right,0,69,80,32.1875,0.114583,ThirtySecond,A4
179,Right,0,68,80,32.25,0.114583,ThirtySecond,G#4
180,Right,0,69,80,32.3125,0.114583,ThirtySecond,A4
181,Right,0,68,80,32.375,0.114583,ThirtySecond,G#4
182,Right,0,69,80,32.4375,0.114583,ThirtySecond,A4
183,Right,0,68,80,32.5,0.489583,ThirtySecond,G#4_E4
185,Left,1,52,80,32.5,0.489583,Eighth,E3
186,Right,0,69,80,32.5625,0.114583,ThirtySecond,A4
187,Right,0,68,80,32.625,0.114583,ThirtySecond,G#4
188,Right,0,69,80,32.6875,0.114583,ThirtySecond,A4
189,Right,0,68,80,32.75,0.114583,ThirtySecond,G#4
190,Right,0,69,80,32.8125,0.114583,ThirtySecond,A4
191,Right,0,66,80,32.875,0.114583,ThirtySecond,F#4
192,Right,0,68,80,32.9375,0.052083,SixtyFourth,G#4
193,Right,0,57,80,33.0,0.989583,Eighth,A4_A3
194,Left,1,49,80,33.0,0.489583,Eighth,C#3
197,Right,0,61,80,33.5,0.489583,Eighth,C#4
196,Left,1,45,80,33.5,0.489583,Eighth,A2
198,Right,0,68,80,34.0,0.989583,Quarter,G#4_D4
200,Left,1,47,80,34.0,0.989583,Quarter,B2
201,Right,0,57,80,34.5,0.489583,Eighth,A3
202,Right,0,64,80,35.0,0.989583,Eighth,G4_E4
204,Left,1,49,80,35.0,0.989583,Quarter,C#3
205,Right,0,57,80,35.5,0.489583,Eighth,A3
206,Right,0,66,80,36.0,0.989583,Quarter,F#4_A3
208,Left,1,50,80,36.0,0.989583,Quarter,D3_D2
210,Left,1,40,80,36.5,0.239583,Sixteenth,E2
211,Left,1,42,81,37.0,0.989583,Sixteenth,F#2_D3
213,Right,0,57,81,37.0,0.989583,Quarter,F#4_A3
215,Left,1,40,82,37.5,0.239583,Sixteenth,E2
218,Right,0,57,83,38.0,0.989583,Quarter,F#4_A3
216,Left,1,50,83,38.0,0.989583,Quarter,F#2_D3
220,Left,1,38,84,38.5,0.239583,Sixteenth,D2
221,Right,0,57,84,39.0,0.989583,Quarter,E4_A3
222,Left,1,49,84,39.0,0.989583,Quarter,G2_C#3
225,Left,1,45,85,39.5,0.239583,Sixteenth,A2
226,Right,0,57,86,40.0,1.989583,Half,F#4_A3
228,Left,1,42,86,40.0,1.989583,Sixteenth,F#2_D3
230,Left,1,40,87,40.5,0.239583,Sixteenth,E2
231,Left,1,42,88,41.0,0.239583,Sixteenth,F#2
232,Left,1,38,89,41.5,0.239583,Sixteenth,D2
235,Left,1,51,89,42.0,0.989583,Quarter,D#3_A2
233,Right,0,59,89,42.0,0.989583,Quarter,F#4_B3
237,Left,1,47,90,42.5,0.239583,Sixteenth,B2
238,Left,1,43,91,43.0,1.989583,Sixteenth,G2_E3
240,Right,0,59,91,43.0,1.989583,Half,G4_B3
242,Left,1,42,92,43.5,0.239583,Sixteenth,F#2
243,Left,1,43,93,44.0,0.239583,Sixteenth,G2
244,Left,1,40,94,44.5,0.239583,Sixteenth,E2
245,Left,1,48,94,45.0,0.989583,Sixteenth,F#3_C3
246,Right,0,62,94,45.0,0.989583,Quarter,F#4_D4_A4_A3
251,Left,1,50,95,45.5,0.239583,Sixteenth,D3
255,Left,1,47,96,46.0,1.489583,Sixteenth,G3_B2
252,Right,0,71,96,46.0,2.989583,DottedHalf,D4_B4_B3
257,Left,1,47,97,46.5,0.239583,Sixteenth,B2
258,Left,1,43,98,47.0,0.239583,Sixteenth,G2
259,Right,0,67,98,47.0,1.989583,Half,G4
260,Left,1,42,99,47.5,0.489583,Sixteenth,F#3_F#2
262,Left,1,40,100,48.0,0.489583,Eighth,E3_E2
264,Right,0,64,100,48.0,0.989583,Quarter,E4
265,Left,1,38,103,48.5,0.489583,Eighth,D3_D2
269,Left,1,37,107,49.0,0.489583,Eighth,C#3_C#2
267,Right,0,67,107,49.0,0.489583,Eighth,G4_E4_C#5_C#4
273,Right,0,74,111,49.5,0.489583,Eighth,G4_D5_D4
276,Left,1,47,111,49.5,0.489583,Eighth,B2_B1
278,Left,1,45,115,50.0,0.489583,Eighth,A2_A1
279,Right,0,67,115,50.0,0.989583,Quarter,G4_E5_E4_C#5
285,Left,1,31,119,50.5,0.489583,Eighth,G2_G1
284,Right,0,69,119,50.5,0.489583,Eighth,A4
290,Left,1,42,120,51.0,0.489583,Eighth,F#2_F#1
287,Right,0,78,120,51.0,0.489583,Eighth,F#5_D5_A4
293,Left,1,43,101,51.5,0.489583,Eighth,G2_G1
292,Right,0,76,101,51.5,0.489583,Eighth,G4_E5_B4
298,Right,0,66,80,52.0,0.989583,Eighth,F#4_D5
297,Left,1,33,80,52.0,0.989583,Quarter,A2_A1
301,Right,0,69,80,52.5,0.489583,Eighth,A4
302,Left,1,45,80,53.0,1.489583,DottedQuarter,A2_A1
304,Right,0,64,80,53.0,0.489583,Eighth,E4
305,Right,0,67,80,53.5,0.239583,Sixteenth,G4
306,Right,0,74,80,53.75,0.114583,ThirtySecond,D5
307,Right,0,73,80,53.8125,0.114583,ThirtySecond,C#5
308,Right,0,71,80,53.875,0.114583,ThirtySecond,B4
309,Right,0,73,80,53.9375,0.052083,SixtyFourth,C#5
311,Right,0,76,80,54.0,0.989583,Quarter,G4_E5
310,Left,1,38,80,54.0,1.489583,DottedQuarter,D2
313,Left,1,47,80,54.5,0.239583,Sixteenth,B2
314,Left,1,49,80,54.75,0.239583,Sixteenth,C#3
316,Right,0,74,80,55.0,0.489583,Eighth,F#4_D5
315,Left,1,50,80,55.0,0.489583,Eighth,D3
318,Right,0,66,80,55.5,0.489583,Eighth,F#4
319,Right,0,74,80,56.0,0.489583,Eighth,D5
320,Right,0,71,80,56.5,0.489583,Eighth,F#4_B4
321,Left,1,62,80,56.5,0.489583,Eighth,D4_B3
326,Right,0,66,80,57.0,0.989583,Quarter,F#4_A#4
324,Left,1,61,80,57.0,0.989583,Quarter,E4_C#4
328,Right,0,73,80,57.5,0.489583,Eighth,C#5
330,Right,0,71,80,58.0,0.489583,Eighth,B4
329,Left,1,66,80,58.0,0.489583,Eighth,F#4_D4
332,Right,0,66,80,58.5,0.239583,Sixteenth,F#4
333,Right,0,78,80,58.75,0.239583,Sixteenth,F#5
334,Right,0,76,80,59.0,0.239583,Sixteenth,E5
335,Right,0,74,80,59.25,0.239583,Sixteenth,D5
336,Left,1,59,80,59.5,0.489583,Eighth,D4_B3
338,Right,0,73,80,59.5,0.239583,Sixteenth,C#5
339,Right,0,71,80,59.75,0.239583,Sixteenth,B4
342,Right,0,70,80,60.0,0.239583,Sixteenth,A#4
340,Left,1,61,80,60.0,0.989583,Quarter,E4_C#4
343,Right,0,71,80,60.25,0.114583,ThirtySecond,B4
344,Right,0,70,80,60.3125,0.114583,ThirtySecond,A#4
345,Right,0,68,80,60.375,0.114583,ThirtySecond,G#4
346,Right,0,70,80,60.4375,0.052083,SixtyFourth,A#4
347,Right,0,73,80,60.5,0.239583,Sixteenth,C#5
348,Right,0,71,80,60.75,0.239583,Sixteenth,B4
350,Left,1,66,80,61.0,0.489583,Eighth,F#4_D4
349,Right,0,71,80,61.0,0.489583,Eighth,B4
352,Right,0,66,80,61.5,0.239583,Sixteenth,F#4
353,Right,0,78,80,61.75,0.239583,Sixteenth,F#5
354,Right,0,76,80,62.0,0.239583,Sixteenth,E5
355,Right,0,74,80,62.25,0.239583,Sixteenth,D5
356,Right,0,73,80,62.5,0.239583,Sixteenth,C#5
357,Left,1,54,80,62.5,0.989583,Quarter,F#3_D3
359,Right,0,71,80,62.75,0.239583,Sixteenth,B4
361,Right,0,69,80,63.0,0.239583,Sixteenth,A4
360,Left,1,49,80,63.0,0.989583,Quarter,C#3
362,Right,0,71,80,63.25,0.15625,TripletSixteenth,B4
363,Right,0,69,80,63.333333,0.15625,TripletSixteenth,A4
364,Right,0,68,80,63.416667,0.072917,TripletThirtySecond,G#4
366,Right,0,69,80,63.5,0.239583,Sixteenth,A4
365,Left,1,57,80,63.5,0.489583,Eighth,A3
367,Right,0,73,80,63.75,0.239583,Sixteenth,C#5
368,Left,1,49,80,64.0,0.989583,Quarter,C#3
369,Right,0,66,80,64.0,0.989583,Quarter,F#4
370,Left,1,57,80,64.5,0.489583,Eighth,A3
371,Right,0,61,80,64.5,0.489583,Eighth,C#4
372,Left,1,49,80,65.0,0.989583,Quarter,G#3_C#3
374,Right,0,59,80,65.0,0.989583,Eighth,F4_B3
376,Right,0,61,80,65.5,0.489583,Eighth,C#4
378,Right,0,66,80,66.0,0.489583,Eighth,F#4_A3
377,Left,1,42,80,66.0,0.489583,Eighth,F#3_F#2
381,Left,1,49,80,66.5,0.489583,Eighth,C#3
382,Left,1,50,80,67.0,0.489583,Eighth,D3
383,Left,1,49,80,67.5,0.489583,Eighth,C#3
384,Left,1,57,80,68.0,0.489583,Eighth,A3
386,Right,0,61,80,68.5,0.489583,Eighth,C#5_C#4
385,Left,1,45,80,68.5,0.489583,Eighth,F#3_A2
391,Right,0,73,80,69.0,1.489583,DottedQuarter,C#5_C#4
389,Left,1,44,80,69.0,0.489583,Eighth,G#2_F3
393,Left,1,47,80,69.5,0.489583,Eighth,G#3_B2
395,Left,1,54,80,70.0,0.489583,Sixteenth,F#3_A2
397,Left,1,49,80,70.25,0.239583,Sixteenth,C#3
398,Left,1,57,80,70.5,0.239583,Sixteenth,A3
399,Left,1,56,80,70.75,0.239583,Sixteenth,G#3
400,Left,1,59,80,71.0,0.239583,Sixteenth,B3
401,Left,1,57,80,71.25,0.239583,Sixteenth,A3
404,Left,1,56,80,71.5,0.489583,Sixteenth,G#3_A2
402,Right,0,61,80,71.5,0.489583,Eighth,C#5_C#4
406,Left,1,54,80,71.75,0.239583,Sixteenth,F#3
409,Right,0,73,80,72.0,1.489583,DottedQuarter,C#5_C#4
407,Left,1,53,80,72.0,0.489583,Eighth,G#2_F3
411,Left,1,47,80,72.5,0.489583,Eighth,G#3_B2
413,Left,1,54,80,73.0,0.489583,Sixteenth,F#3_A2
415,Left,1,49,80,73.25,0.239583,Sixteenth,C#3
416,Left,1,57,80,73.5,0.239583,Sixteenth,A3
417,Left,1,56,80,73.75,0.239583,Sixteenth,G#3
418,Left,1,59,80,74.0,0.239583,Sixteenth,B3
419,Left,1,57,80,74.25,0.239583,Sixteenth,A3
420,Left,1,56,80,74.5,0.489583,Sixteenth,G#3_A2
422,Left,1,54,80,74.75,0.239583,Sixteenth,F#3
423,Left,1,47,80,75.0,0.489583,Eighth,F#3_B2
426,Left,1,55,80,75.5,0.489583,Eighth,G3_B2
425,Right,0,62,80,75.5,0.489583,Eighth,D4
429,Right,0,62,80,76.0,0.489583,Eighth,D5_D4
428,Left,1,55,80,76.0,0.489583,Eighth,G3_B2
432,Right,0,62,80,76.5,0.489583,Eighth,D4_B4
434,Left,1,55,80,76.5,0.489583,Eighth,G3_B2
436,Right,0,69,80,77.0,0.489583,Eighth,D4_A4
437,Left,1,47,80,77.0,0.489583,Eighth,G3_B2
440,Right,0,62,80,77.5,0.489583,Eighth,G4_D4
441,Left,1,55,80,77.5,0.489583,Eighth,G3_B2
444,Left,1,57,80,78.0,0.489583,Eighth,C3_A3
445,Right,0,67,80,78.0,0.739583,DottedEighth,G4_D4
448,Left,1,57,80,78.5,0.489583,Eighth,C3_A3
450,Right,0,62,80,78.5,0.489583,Eighth,D4
451,Right,0,66,80,78.75,0.239583,Sixteenth,F#4
454,Left,1,48,80,79.0,0.489583,Eighth,C3_A3
452,Right,0,66,80,79.0,1.989583,Half,F#4_D4
457,Left,1,57,80,79.5,0.489583,Eighth,C3_A3
456,Right,0,62,80,79.5,0.489583,Eighth,D4
461,Right,0,62,80,80.0,0.489583,Eighth,D4
459,Left,1,48,80,80.0,0.489583,Eighth,C3_A3
462,Left,1,57,80,80.5,0.489583,Eighth,C3_A3
464,Right,0,62,80,80.5,0.489583,Eighth,D4
466,Left,1,55,80,81.0,0.489583,Eighth,G3_D3_B2
465,Right,0,67,80,81.0,0.489583,Sixteenth,G4_D4
470,Right,0,69,80,81.25,0.239583,Sixteenth,A4
471,Left,1,55,80,81.5,0.489583,Eighth,G3_D3_B2
474,Right,0,62,80,81.5,0.489583,Eighth,D4_B4
476,Right,0,72,80,81.75,0.239583,Sixteenth,C5
477,Left,1,55,80,82.0,0.489583,Eighth,G3_D3_B2
480,Right,0,62,80,82.0,0.489583,Eighth,D5_D4
482,Right,0,73,80,82.25,0.239583,Sixteenth,C#5
483,Right,0,76,80,82.5,0.489583,Sixteenth,E5_D4
484,Left,1,50,80,82.5,0.489583,Eighth,G3_D3_B2
488,Right,0,74,80,82.75,0.239583,Sixteenth,D5
492,Right,0,74,80,83.0,0.489583,Sixteenth,D5_D4
489,Left,1,55,80,83.0,0.489583,Eighth,G3_D3_B2
494,Right,0,72,80,83.25,0.114583,ThirtySecond,C5
495,Right,0,71,80,83.375,0.114583,ThirtySecond,B4
496,Right,0,62,80,83.5,0.489583,Eighth,D4_B4
497,Left,1,55,80,83.5,0.489583,Eighth,G3_D3_B2
501,Right,0,69,80,83.75,0.114583,ThirtySecond,A4
502,Right,0,67,80,83.875,0.114583,ThirtySecond,G4
505,Right,0,66,80,84.0,0.489583,Sixteenth,F#4_D#4
503,Left,1,48,80,84.0,0.489583,Eighth,C3_A3
507,Right,0,67,80,84.125,0.239583,Sixteenth,G4
508,Right,0,69,81,84.25,0.239583,Sixteenth,A4
509,Right,0,67,82,84.375,0.364583,DottedSixteenth,G4
511,Right,0,63,82,84.5,0.489583,Eighth,D#4
510,Left,1,48,82,84.5,0.489583,Eighth,C3_A3
513,Right,0,66,84,84.75,0.239583,Sixteenth,F#4
514,Right,0,63,85,85.0,1.489583,Eighth,F#4_D#4
516,Left,1,57,85,85.0,0.489583,Eighth,C3_A3
518,Right,0,63,88,85.5,0.489583,Eighth,D#4
519,Left,1,48,88,85.5,0.489583,Eighth,C3_A3
522,Left,1,51,90,86.0,0.489583,Eighth,D#3_B2_A3
521,Right,0,63,90,86.0,0.489583,Eighth,D#4
525,Left,1,51,93,86.5,0.489583,Eighth,D#3_B2_A3
528,Right,0,63,93,86.5,0.489583,Eighth,F#4_D#4
532,Left,1,47,96,87.0,0.489583,Eighth,D#3_B2_A3
530,Right,0,63,96,87.0,0.739583,Eighth,D#4_A4
535,Left,1,57,99,87.5,0.489583,Eighth,D#3_B2_A3
536,Right,0,63,99,87.5,0.489583,Eighth,D#4
539,Right,0,67,100,87.75,0.239583,Sixteenth,G4
540,Right,0,64,101,88.0,1.489583,Eighth,G4_E4
541,Left,1,52,101,88.0,0.489583,Eighth,G3_E3_B2
545,Left,1,55,104,88.5,0.489583,Eighth,G3_E3_B2
547,Right,0,64,104,88.5,0.489583,Eighth,E4
549,Left,1,50,107,89.0,0.489583,Eighth,G3_D3_A#2
552,Right,0,62,107,89.0,0.489583,Eighth,E4_D4
554,Right,0,67,109,89.5,0.489583,Eighth,G4_E4_D4
557,Left,1,50,109,89.5,0.489583,Eighth,G3_D3_A#2
564,Right,0,67,120,90.0,0.489583,Eighth,G4_G3_E4_C#4_A3
560,Left,1,33,120,90.0,2.489583,Half,E2_C#2_A2_A1
569,Right,0,64,80,90.5,0.489583,Eighth,E4
570,Right,0,61,80,91.0,0.489583,Eighth,C#4
571,Right,0,57,80,91.5,0.489583,Eighth,A3
572,Right,0,55,80,92.0,0.489583,Eighth,G3
574,Left,1,47,80,92.5,0.239583,Sixteenth,B2
573,Right,0,52,80,92.5,0.489583,Eighth,E3
575,Left,1,49,80,92.75,0.239583,Sixteenth,C#3
578,Left,1,50,80,93.0,0.989583,Quarter,D3_D2
576,Right,0,66,80,93.0,0.989583,Quarter,F#4_A3
580,Left,1,40,80,93.5,0.239583,Sixteenth,E2
581,Left,1,50,80,94.0,0.989583,Quarter,F#2_D3
583,Right,0,66,80,94.0,0.989583,Quarter,F#4_A3
585,Left,1,40,80,94.5,0.239583,Sixteenth,E2
586,Right,0,57,80,95.0,0.989583,Quarter,F#4_A3
587,Left,1,50,80,95.0,0.989583,Quarter,F#2_D3
590,Left,1,38,80,95.5,0.239583,Sixteenth,D2
592,Right,0,57,80,96.0,0.989583,Quarter,E4_A3
591,Left,1,43,80,96.0,0.989583,Sixteenth,G2_C#3
595,Left,1,45,80,96.5,0.239583,Sixteenth,A2
596,Right,0,66,80,97.0,1.989583,Half,F#4_A3
598,Left,1,50,80,97.0,1.989583,Half,F#2_D3
600,Left,1,40,80,97.5,0.239583,Sixteenth,E2
601,Left,1,42,80,98.0,0.239583,Sixteenth,F#2
602,Left,1,38,80,98.5,0.239583,Sixteenth,D2
605,Left,1,37,80,99.0,1.989583,Sixteenth,E3_C#2
603,Right,0,67,80,99.0,1.989583,Half,G4_A3
607,Left,1,45,80,99.5,0.239583,Sixteenth,A2
608,Left,1,47,80,100.0,0.239583,Sixteenth,B2
609,Left,1,49,80,100.5,0.239583,Sixteenth,C#3
611,Left,1,50,80,101.0,0.989583,Quarter,D3
610,Right,0,66,80,101.0,0.989583,Quarter,F#4_A3
613,Left,1,44,80,101.5,0.239583,Sixteenth,G#2
615,Left,1,45,80,102.0,0.489583,Eighth,C#3_A2
614,Right,0,57,80,102.0,0.489583,Eighth,E4_A3
618,Left,1,45,80,102.5,2.489583,Half,A2
619,Left,1,44,80,103.0,0.489583,Eighth,G#2
620,Left,1,43,80,103.5,0.489583,Eighth,G2
621,Left,1,42,80,104.0,0.489583,Eighth,F#2
622,Left,1,40,80,104.5,0.489583,Eighth,E2
625,Right,0,66,80,105.0,0.989583,Quarter,F#4_A3
623,Left,1,38,80,105.0,0.989583,Sixteenth,D3_D2
627,Left,1,40,80,105.5,0.239583,Sixteenth,E2
628,Right,0,66,80,106.0,0.989583,Quarter,F#4_A3
629,Left,1,42,80,106.0,0.989583,Sixteenth,F#2_D3
632,Left,1,40,80,106.5,0.239583,Sixteenth,E2
635,Left,1,42,80,107.0,0.739583,Sixteenth,F#2_D3
633,Right,0,57,80,107.0,0.739583,DottedEighth,F#4_A3
637,Left,1,38,80,107.5,0.239583,Sixteenth,D2
638,Left,1,55,80,107.75,0.239583,Sixteenth,G3
639,Right,0,71,80,107.75,0.239583,Sixteenth,B4
640,Left,1,43,80,108.0,1.989583,Eighth,G3_G2
641,Right,0,71,80,108.0,1.989583,Half,B4_B3
645,Right,0,61,80,108.5,0.489583,Eighth,C#4
644,Left,1,45,80,108.5,0.489583,Eighth,A2
647,Left,1,47,80,109.0,0.489583,Eighth,B2
646,Right,0,62,80,109.0,0.489583,Eighth,D4
648,Right,0,64,80,109.5,0.489583,Eighth,E4
649,Left,1,49,80,109.5,0.489583,Eighth,C#3
651,Left,1,54,80,110.0,0.489583,Eighth,F#3_D3
650,Right,0,69,80,110.0,0.489583,Eighth,F#4_A4
654,Right,0,61,80,110.5,0.489583,Eighth,G4_C#4
656,Left,1,52,80,110.5,0.489583,Eighth,G3_E3
659,Left,1,54,80,111.0,0.489583,Eighth,F#3_A3
658,Right,0,66,80,111.0,0.489583,Eighth,F#4_D4
662,Right,0,59,80,111.5,0.489583,Eighth,E4_B3
664,Left,1,55,80,111.5,0.489583,Eighth,G3_G2
666,Left,1,45,80,112.0,0.989583,Quarter,F#3_A2
668,Right,0,62,80,112.0,0.989583,Quarter,D4
669,Left,1,57,80,112.5,0.489583,Eighth,A3
670,Left,1,45,80,113.0,1.489583,DottedQuarter,G3_A2
673,Left,1,57,80,113.5,0.489583,Eighth,A3
672,Right,0,62,80,113.5,0.239583,Sixteenth,D4
674,Right,0,61,80,113.625,0.239583,Sixteenth,C#4
675,Right,0,59,80,113.75,0.239583,Sixteenth,B3
676,Right,0,61,80,113.875,0.114583,ThirtySecond,C#4
678,Right,0,55,80,114.0,1.489583,Quarter,G3_E4_A3
677,Left,1,38,80,114.0,1.489583,DottedQuarter,D2
681,Left,1,47,80,114.5,0.239583,Sixteenth,B2
682,Left,1,49,80,114.75,0.239583,Sixteenth,C#3
685,Left,1,50,80,115.0,0.489583,Eighth,D3
683,Right,0,62,80,115.0,0.489583,Eighth,F#3_D4
686,Left,1,52,80,115.5,0.489583,Eighth,E3
687,Left,1,54,80,116.0,0.489583,Eighth,F#3
688,Left,1,56,80,116.5,0.489583,Eighth,G#3
689,Left,1,57,80,117.0,1.989583,Half,A3
690,Right,0,64,80,117.5,0.489583,Eighth,E4
691,Right,0,61,80,118.0,0.489583,Eighth,C#4
692,Right,0,64,80,118.5,0.489583,Eighth,E4
693,Left,1,54,80,118.75,0.239583,Sixteenth,F#3
694,Left,1,56,80,118.875,0.114583,ThirtySecond,G#3
695,Right,0,59,80,119.0,0.489583,Eighth,D4_B3
697,Left,1,56,80,119.0,0.114583,ThirtySecond,G#3
698,Left,1,57,80,119.0625,0.114583,ThirtySecond,A3
699,Left,1,56,80,119.125,0.114583,ThirtySecond,G#3
700,Left,1,57,80,119.1875,0.114583,ThirtySecond,A3
701,Left,1,56,80,119.25,0.114583,ThirtySecond,G#3
702,Left,1,57,80,119.3125,0.114583,ThirtySecond,A3
703,Left,1,56,80,119.375,0.114583,ThirtySecond,G#3
704,Left,1,57,80,119.4375,0.114583,ThirtySecond,A3
706,Right,0,64,80,119.5,0.489583,Eighth,E4
705,Left,1,56,80,119.5,0.114583,ThirtySecond,G#3
707,Left,1,57,80,119.5625,0.114583,ThirtySecond,A3
708,Left,1,56,80,119.625,0.114583,ThirtySecond,G#3
709,Left,1,57,80,119.6875,0.114583,ThirtySecond,A3
710,Left,1,56,80,119.75,0.114583,ThirtySecond,G#3
711,Left,1,57,80,119.8125,0.114583,ThirtySecond,A3
712,Left,1,54,80,119.875,0.114583,ThirtySecond,F#3
713,Left,1,56,80,119.9375,0.052083,SixtyFourth,G#3
714,Left,1,57,80,120.0,0.989583,Quarter,A3
715,Right,0,69,80,120.0,1.989583,Half,C#4_A4
717,Right,0,64,80,120.5,0.489583,Eighth,E4
718,Left,1,52,80,121.0,0.989583,Quarter,E3
719,Right,0,61,80,121.0,0.489583,Eighth,C#4
720,Right,0,64,80,121.5,0.489583,Eighth,E4
721,Right,0,59,80,122.0,0.489583,Eighth,G#4_B3
723,Left,1,50,80,122.0,0.989583,Quarter,D3
724,Right,0,69,80,122.0625,0.114583,ThirtySecond,A4
725,Right,0,68,80,122.125,0.114583,ThirtySecond,G#4
726,Right,0,69,80,122.1875,0.114583,ThirtySecond,A4
727,Right,0,68,80,122.25,0.114583,ThirtySecond,G#4
728,Right,0,69,80,122.3125,0.114583,ThirtySecond,A4
729,Right,0,68,80,122.375,0.114583,ThirtySecond,G#4
730,Right,0,69,80,122.4375,0.114583,ThirtySecond,A4
731,Right,0,68,80,122.5,0.489583,ThirtySecond,G#4_E4
733,Right,0,69,80,122.5625,0.114583,ThirtySecond,A4
734,Right,0,68,80,122.625,0.114583,ThirtySecond,G#4
735,Right,0,69,80,122.6875,0.114583,ThirtySecond,A4
736,Right,0,68,80,122.75,0.114583,ThirtySecond,G#4
737,Right,0,69,80,122.8125,0.114583,ThirtySecond,A4
738,Right,0,66,80,122.875,0.114583,ThirtySecond,F#4
739,Right,0,68,80,122.9375,0.052083,SixtyFourth,G#4
741,Right,0,61,80,123.0,0.489583,Eighth,C#4_A4
740,Left,1,45,80,123.0,1.989583,Half,C#3_A2
744,Right,0,64,80,123.5,0.489583,Eighth,E4_E3
746,Right,0,57,80,124.0,0.489583,Eighth,C#4_A3
748,Right,0,52,80,124.5,0.489583,Eighth,E4_E3
750,Left,1,42,80,124.75,0.239583,Sixteenth,F#2
751,Left,1,44,80,124.875,0.114583,ThirtySecond,G#2
753,Right,0,57,80,125.0,0.489583,Eighth,C#4_A3
752,Left,1,44,80,125.0,0.114583,ThirtySecond,G#2
755,Left,1,45,80,125.0625,0.114583,ThirtySecond,A2
756,Left,1,44,80,125.125,0.114583,ThirtySecond,G#2
757,Left,1,45,80,125.1875,0.114583,ThirtySecond,A2
758,Left,1,44,80,125.25,0.114583,ThirtySecond,G#2
759,Left,1,45,80,125.3125,0.114583,ThirtySecond,A2
760,Left,1,44,80,125.375,0.114583,ThirtySecond,G#2
761,Left,1,45,80,125.4375,0.114583,ThirtySecond,A2
762,Left,1,44,80,125.5,0.114583,ThirtySecond,G#2
763,Right,0,64,80,125.5,0.489583,Eighth,E4_E3
765,Left,1,45,80,125.5625,0.114583,ThirtySecond,A2
766,Left,1,44,80,125.625,0.114583,ThirtySecond,G#2
767,Left,1,45,80,125.6875,0.114583,ThirtySecond,A2
768,Left,1,44,80,125.75,0.114583,ThirtySecond,G#2
769,Left,1,45,80,125.8125,0.114583,ThirtySecond,A2
770,Left,1,42,80,125.875,0.114583,ThirtySecond,F#2
771,Left,1,44,80,125.9375,0.052083,SixtyFourth,G#2
772,Right,0,61,80,126.0,0.989583,Quarter,C#4
773,Left,1,45,80,126.0,2.989583,DottedHalf,A2
775,Right,0,69,80,126.5,0.989583,Quarter,A4_A3
774,Left,1,33,80,126.5,0.489583,Eighth,A1
777,Right,0,62,80,127.0,0.489583,Eighth,D4
778,Left,1,35,80,127.0,0.989583,Quarter,B1
779,Right,0,68,80,127.5,0.989583,Quarter,G#4_A3
781,Left,1,37,80,128.0,0.989583,Quarter,C#2
782,Right,0,64,80,128.0,0.489583,Eighth,E4
783,Right,0,57,80,128.5,0.489583,Eighth,G4_A3
786,Right,0,66,80,129.0,0.989583,Quarter,F#4_A3
785,Left,1,50,80,129.0,0.989583,Quarter,D3_D2
789,Left,1,40,80,129.5,0.239583,Sixteenth,E2
792,Left,1,50,80,130.0,0.989583,Quarter,F#2_D3
790,Right,0,57,80,130.0,0.989583,Quarter,F#4_A3
794,Left,1,40,80,130.5,0.239583,Sixteenth,E2
795,Left,1,42,80,131.0,0.989583,Sixteenth,F#2_D3
796,Right,0,57,80,131.0,0.989583,Quarter,F#4_A3
799,Left,1,38,80,131.5,0.239583,Sixteenth,D2
800,Right,0,64,80,132.0,0.989583,Quarter,E4_A3
802,Left,1,49,80,132.0,0.989583,Quarter,G2_C#3
804,Left,1,45,80,132.5,0.239583,Sixteenth,A2
807,Right,0,66,80,133.0,1.989583,Half,F#4_A3
805,Left,1,50,80,133.0,1.989583,Half,F#2_D3
809,Left,1,40,80,133.5,0.239583,Sixteenth,E2
810,Left,1,42,80,134.0,0.239583,Sixteenth,F#2
811,Left,1,38,80,134.5,0.239583,Sixteenth,D2
814,Right,0,66,80,135.0,0.989583,Quarter,F#4_B3
812,Left,1,51,80,135.0,0.989583,Quarter,D#3_A2
816,Left,1,47,82,135.5,0.239583,Sixteenth,B2
818,Left,1,43,84,136.0,1.989583,Sixteenth,G2_E3
817,Right,0,67,84,136.0,1.989583,Half,G4_B3
821,Left,1,42,87,136.5,0.239583,Sixteenth,F#2
822,Left,1,43,89,137.0,0.239583,Sixteenth,G2
823,Left,1,40,92,137.5,0.239583,Sixteenth,E2
824,Right,0,69,94,138.0,0.989583,Quarter,F#4_D4_A4_A3
828,Left,1,54,94,138.0,0.989583,Quarter,F#3_C3
830,Left,1,50,97,138.5,0.239583,Sixteenth,D3
834,Left,1,55,99,139.0,1.489583,DottedQuarter,G3_B2
831,Right,0,71,99,139.0,2.989583,DottedHalf,D4_B4_B3
836,Left,1,47,102,139.5,0.239583,Sixteenth,B2
837,Left,1,43,104,140.0,0.239583,Sixteenth,G2
838,Right,0,67,104,140.0,1.989583,Half,G4
839,Left,1,42,107,140.5,0.489583,Sixteenth,F#3_F#2
843,Right,0,64,110,141.0,0.989583,Quarter,E4
841,Left,1,52,110,141.0,0.489583,Eighth,E3_E2
844,Left,1,50,111,141.5,0.489583,Eighth,D3_D2
849,Left,1,49,113,142.0,0.489583,Eighth,C#3_C#2
846,Right,0,64,113,142.0,0.489583,Eighth,G4_E4_C#5_C#4
852,Left,1,47,114,142.5,0.489583,Eighth,B2_B1
853,Right,0,74,114,142.5,0.489583,Eighth,G4_D5_D4
861,Left,1,33,116,143.0,0.489583,Eighth,A2_A1
857,Right,0,73,116,143.0,0.989583,Quarter,G4_E5_E4_C#5
863,Left,1,43,118,143.5,0.489583,Eighth,G2_G1
864,Right,0,69,118,143.5,0.489583,Eighth,A4
869,Left,1,30,119,144.0,0.489583,Eighth,F#2_F#1
866,Right,0,74,119,144.0,0.489583,Eighth,F#5_D5_A4
873,Right,0,76,80,144.5,0.489583,Eighth,G4_E5_B4
871,Left,1,43,80,144.5,0.489583,Eighth,G2_G1
877,Left,1,45,80,145.0,0.989583,Quarter,A2_A1
876,Right,0,74,80,145.0,0.989583,Quarter,F#4_D5
880,Right,0,69,80,145.5,0.489583,Eighth,A4
881,Right,0,73,80,146.0,0.489583,ThirtySecond,E4_C#5
883,Left,1,33,80,146.0,0.989583,Quarter,A2_A1
885,Right,0,74,80,146.0625,0.114583,ThirtySecond,D5
886,Right,0,73,80,146.125,0.114583,ThirtySecond,C#5
887,Right,0,74,80,146.1875,0.114583,ThirtySecond,D5
888,Right,0,73,80,146.25,0.114583,ThirtySecond,C#5
889,Right,0,74,80,146.3125,0.114583,ThirtySecond,D5
890,Right,0,73,80,146.375,0.114583,ThirtySecond,C#5
891,Right,0,74,80,146.4375,0.114583,ThirtySecond,D5
892,Right,0,73,80,146.5,0.114583,ThirtySecond,C#5
893,Right,0,74,80,146.5625,0.114583,ThirtySecond,D5
894,Right,0,73,80,146.625,0.114583,ThirtySecond,C#5
895,Right,0,74,80,146.6875,0.114583,ThirtySecond,D5
896,Right,0,73,80,146.75,0.114583,ThirtySecond,C#5
897,Right,0,74,80,146.8125,0.114583,ThirtySecond,D5
898,Right,0,71,80,146.875,0.114583,ThirtySecond,B4
899,Right,0,73,80,146.9375,0.052083,SixtyFourth,C#5
902,Right,0,74,80,147.0,0.989583,Eighth,F#4_D5
900,Left,1,38,80,147.0,1.489583,DottedQuarter,D3_D2
904,Right,0,74,80,147.5,0.489583,Eighth,D5
905,Right,0,73,80,148.0,0.489583,Eighth,C#5
906,Right,0,74,80,148.5,0.489583,Eighth,D5
907,Right,0,71,80,149.0,0.989583,Eighth,G4_B4
909,Right,0,74,80,149.5,0.489583,Eighth,D5
910,Right,0,66,80,150.0,1.489583,Eighth,F#4_A4
912,Right,0,62,80,150.5,0.489583,Eighth,D4
913,Right,0,61,80,151.0,0.489583,Eighth,C#4
914,Right,0,71,80,151.5,0.489583,Sixteenth,D4_B4
916,Right,0,69,80,151.75,0.239583,Sixteenth,A4
917,Right,0,59,80,152.0,0.489583,Eighth,B3_A4
919,Right,0,67,80,152.25,0.239583,Sixteenth,G4
920,Right,0,66,80,152.5,0.489583,Sixteenth,F#4_D4
922,Right,0,67,80,152.75,0.239583,Sixteenth,G4
923,Right,0,66,80,153.0,1.239583,Quarter,F#4_A3
925,Left,1,50,80,153.5,0.489583,Eighth,D3
926,Left,1,49,80,154.0,0.489583,Eighth,C#3
927,Right,0,58,80,154.25,0.239583,Sixteenth,A#3
929,Left,1,50,80,154.5,0.489583,Eighth,D3
928,Right,0,59,80,154.5,0.239583,Sixteenth,B3
930,Right,0,57,80,154.75,0.239583,Sixteenth,A3
932,Left,1,47,80,155.0,0.489583,Eighth,B2
931,Right,0,57,80,155.0,0.239583,Sixteenth,A3
933,Right,0,55,80,155.25,0.239583,Sixteenth,G3
934,Right,0,54,80,155.5,0.239583,Sixteenth,F#3
935,Left,1,50,80,155.5,0.489583,Eighth,D3
936,Right,0,55,80,155.75,0.239583,Sixteenth,G3
939,Right,0,62,80,156.0,0.489583,Eighth,D4
937,Left,1,45,80,156.0,0.489583,Eighth,F#3_A2
940,Left,1,52,80,156.5,0.989583,Quarter,G2_E3
941,Right,0,59,80,156.5,0.989583,Eighth,G4_B3
945,Right,0,61,80,157.0,0.489583,Eighth,C#4
944,Left,1,45,80,157.0,1.989583,Half,A2
946,Right,0,66,80,157.5,0.989583,Eighth,F#4_D4
948,Left,1,54,80,157.5,0.489583,Eighth,F#3
950,Left,1,55,80,158.0,0.989583,Quarter,G3
949,Right,0,64,80,158.0,0.489583,Eighth,E4
951,Right,0,61,80,158.5,0.489583,Eighth,C#4_A4
954,Left,1,54,80,159.0,0.989583,Quarter,F#3_D3
953,Right,0,62,80,159.0,0.239583,Sixteenth,D4
956,Right,0,74,80,159.25,0.239583,Sixteenth,D5
957,Right,0,73,80,159.5,0.239583,Sixteenth,C#5
958,Right,0,74,80,159.75,0.239583,Sixteenth,D5
959,Right,0,76,80,160.0,0.239583,Sixteenth,E5
960,Right,0,74,80,160.25,0.239583,Sixteenth,D5
961,Right,0,71,80,160.5,0.489583,Sixteenth,G4_B4
963,Right,0,74,80,160.75,0.239583,Sixteenth,D5
964,Right,0,69,80,161.0,0.489583,Sixteenth,F#4_A4
966,Right,0,74,80,161.25,0.239583,Sixteenth,D5
967,Right,0,65,80,161.5,0.489583,Eighth,G#4_F4
969,Right,0,74,80,161.75,0.239583,Sixteenth,D5
970,Right,0,69,80,162.0,1.489583,DottedQuarter,A4
971,Left,1,66,80,162.0,0.239583,Sixteenth,F#4
972,Left,1,62,80,162.25,0.239583,Sixteenth,D4
973,Left,1,61,80,162.5,0.239583,Sixteenth,C#4
974,Left,1,62,80,162.75,0.239583,Sixteenth,D4
975,Left,1,64,80,163.0,0.239583,Sixteenth,E4
976,Left,1,62,80,163.25,0.239583,Sixteenth,D4
977,Left,1,59,80,163.5,0.239583,Sixteenth,B3
978,Right,0,67,80,163.5,0.489583,Eighth,G4
979,Left,1,62,80,163.75,0.239583,Sixteenth,D4
980,Right,0,66,80,164.0,0.489583,Eighth,F#4
981,Left,1,57,80,164.0,0.239583,Sixteenth,A3
982,Left,1,62,80,164.25,0.239583,Sixteenth,D4
984,Right,0,65,80,164.5,0.489583,Eighth,F4
983,Left,1,56,80,164.5,0.239583,Sixteenth,G#3
985,Left,1,62,80,164.75,0.239583,Sixteenth,D4
986,Right,0,66,80,165.0,0.989583,Quarter,F#4_A3
988,Left,1,50,80,165.25,0.239583,Sixteenth,D3
989,Left,1,49,80,165.5,0.239583,Sixteenth,C#3
990,Left,1,50,80,165.75,0.239583,Sixteenth,D3
991,Left,1,52,80,166.0,0.239583,Sixteenth,E3
992,Left,1,50,80,166.25,0.239583,Sixteenth,D3
993,Right,0,55,80,166.5,0.489583,Eighth,G4_G3_D4
994,Left,1,47,80,166.5,0.239583,Sixteenth,B2
997,Left,1,50,80,166.75,0.239583,Sixteenth,D3
998,Right,0,62,80,167.0,0.489583,Eighth,F#4_D4_A3
1001,Left,1,45,80,167.0,0.239583,Sixteenth,A2
1002,Left,1,50,80,167.25,0.239583,Sixteenth,D3
1004,Right,0,59,80,167.5,0.489583,Eighth,D4_B4_B3
1003,Left,1,43,80,167.5,0.239583,Sixteenth,G2
1007,Left,1,52,80,167.75,0.239583,Sixteenth,E3
1008,Right,0,57,80,168.0,0.489583,Eighth,D4_A4_A3
1011,Left,1,42,80,168.0,0.239583,Sixteenth,F#2
1012,Left,1,54,80,168.25,0.239583,Sixteenth,F#3
1013,Left,1,43,80,168.5,0.239583,Sixteenth,G2
1014,Right,0,67,80,168.5,0.489583,Eighth,G4_E4_B3
1017,Left,1,55,80,168.75,0.239583,Sixteenth,G3
1019,Right,0,66,80,169.0,0.989583,Quarter,F#4_D4
1018,Left,1,45,80,169.0,0.489583,Eighth,A2
1021,Left,1,57,80,169.5,0.489583,Eighth,A3
1022,Left,1,45,80,170.0,0.489583,Eighth,A2
1023,Right,0,64,80,170.0,0.989583,Quarter,E4_C#4
1025,Left,1,55,80,170.5,0.489583,Eighth,G3
1026,Left,1,50,120,171.0,0.989583,Quarter,D3_D2
1027,Right,0,62,120,171.0,0.989583,Quarter,F4_F3_D4_A3
1032,Left,1,40,120,171.5,0.239583,Sixteenth,E2
1035,Right,0,53,120,172.0,0.989583,Quarter,F4_F3_D4_A3
1033,Left,1,41,120,172.0,0.989583,Sixteenth,F2_D3
1039,Left,1,40,120,172.5,0.239583,Sixteenth,E2
1040,Right,0,53,120,173.0,0.989583,Quarter,F4_F3_D4_A3
1044,Left,1,41,120,173.0,0.989583,Sixteenth,F2_D3
1046,Left,1,38,120,173.5,0.239583,Sixteenth,D2
1047,Right,0,61,120,174.0,0.989583,Quarter,E4_E3_C#4_A3
1049,Left,1,43,120,174.0,0.989583,Sixteenth,G2_C#3
1053,Left,1,45,120,174.5,0.239583,Sixteenth,A2
1057,Left,1,50,120,175.0,1.989583,Half,F2_D3
1054,Right,0,65,120,175.0,1.989583,Half,F4_F3_D4_A3
1060,Left,1,40,120,175.5,0.239583,Sixteenth,E2
1061,Left,1,41,120,176.0,0.239583,Sixteenth,F2
1062,Left,1,38,120,176.5,0.239583,Sixteenth,D2
1063,Right,0,65,120,177.0,0.989583,Quarter,F4_F3_D#4_C4_A3
1068,Left,1,51,120,177.0,0.489583,Eighth,D#3_D#2
1070,Left,1,50,120,177.5,0.489583,Eighth,D3_D2
1075,Left,1,48,120,178.0,0.489583,Eighth,C3_C2
1072,Right,0,57,120,178.0,0.989583,Quarter,F4_F3_D#4_C4_A3
1079,Left,1,46,120,178.5,0.489583,Eighth,A#2_A#1
1081,Right,0,65,120,179.0,0.989583,Quarter,F4_F3_D#4_C4_A3
1083,Left,1,33,120,179.0,0.489583,Eighth,A2_A1
1088,Left,1,29,120,179.5,0.489583,Eighth,F2_F1
1091,Right,0,53,120,180.0,1.989583,Half,F4_F3_D4_A#3
1090,Left,1,34,120,180.0,1.989583,Eighth,A#2_A#1
1096,Left,1,36,120,180.5,0.489583,Eighth,C3_C2
1098,Left,1,50,120,181.0,0.489583,Eighth,D3_D2
1100,Left,1,39,120,181.5,0.489583,Eighth,D#3_D#2
1103,Left,1,53,120,182.0,0.989583,Eighth,F3_F2_A#2
1102,Right,0,62,120,182.0,0.989583,Quarter,F4_D5_D4_A#4
1109,Left,1,55,120,182.5,0.239583,Sixteenth,G3_G2
1111,Left,1,45,120,182.75,0.239583,Sixteenth,A3_A2
1113,Left,1,46,120,183.0,1.989583,Eighth,A#3_A#2
1114,Right,0,62,120,183.0,1.989583,Half,F4_D5_D4_A#4
1119,Left,1,60,120,183.5,0.489583,Eighth,C4_C3
1121,Left,1,62,120,184.0,0.489583,Eighth,D4_D3
1123,Left,1,63,120,184.5,0.489583,Eighth,D#4_D#3
1125,Right,0,74,120,185.0,0.989583,Quarter,F5_D6_D5
1126,Left,1,58,120,185.0,0.989583,Eighth,F4_F3_A#3
1131,Left,1,55,120,185.5,0.239583,Sixteenth,G4_G3
1133,Left,1,57,120,185.75,0.239583,Sixteenth,A4_A3
1137,Left,1,58,120,186.0,0.489583,Eighth,A#4_A#3
1135,Right,0,77,120,186.0,1.989583,Half,F5_D6_D5
1140,Left,1,57,120,186.5,0.489583,Eighth,A4_A3
1142,Left,1,70,120,187.0,0.489583,Eighth,A#4_A#3
1144,Left,1,57,120,187.5,0.489583,Eighth,A4_A3
1146,Right,0,74,120,188.0,0.989583,Quarter,F5_D5
1148,Left,1,56,120,188.0,0.489583,Eighth,G#4_G#3
1150,Left,1,68,120,188.5,0.489583,Eighth,G#4_G#3
1152,Right,0,69,120,189.0,0.989583,Quarter,E5_C#5_A4
1155,Left,1,57,120,189.0,2.989583,DottedHalf,A3
1156,Right,0,68,120,189.5,0.489583,Eighth,G#4
1157,Right,0,69,80,190.0,1.989583,Half,A4
1158,Right,0,76,80,190.5,0.489583,Eighth,G5_E5
1160,Right,0,76,80,191.0,0.489583,Eighth,E5_C#5
1162,Right,0,71,80,191.5,0.489583,Eighth,D5_B4
1164,Right,0,69,80,192.0,0.989583,Quarter,C#5_A4
1166,Left,1,56,80,192.5,0.489583,Eighth,G#3
1167,Left,1,57,80,193.0,1.989583,Half,A3
1168,Right,0,79,80,193.5,0.489583,Eighth,G5_B5
1170,Right,0,76,80,194.0,0.489583,Eighth,G5_E5
1172,Right,0,74,80,194.5,0.489583,Eighth,F#5_D5
1174,Right,0,73,80,195.0,0.989583,Quarter,E5_C#5
1176,Left,1,44,80,195.5,0.489583,Eighth,G#2
1177,Left,1,45,80,196.0,3.489583,DottedHalf,A2
1178,Right,0,79,80,196.5,0.489583,Eighth,G5_E6_B5
1181,Right,0,85,80,197.0,0.489583,Eighth,G5_E5_C#6
1185,Right,0,78,80,197.5,0.489583,Eighth,F#5_D5_B5
1184,Left,1,57,80,197.5,0.489583,Eighth,A3
1191,Left,1,57,80,198.0,0.489583,Eighth,A3
1188,Right,0,81,80,198.0,0.489583,Eighth,E5_C#5_A5
1192,Left,1,57,80,198.5,0.489583,Eighth,A3
1193,Right,0,79,80,198.5,0.489583,Eighth,G5_D5_B4
1196,Right,0,78,80,199.0,0.489583,Eighth,F#5_C#5_A4
1197,Left,1,57,80,199.0,0.489583,Eighth,A3
1202,Left,1,67,80,199.5,0.489583,Eighth,G4_A3
1200,Right,0,76,80,199.5,0.489583,Eighth,E5_B4
1206,Left,1,57,80,200.0,0.489583,Eighth,F#4_A3
1204,Right,0,74,80,200.0,0.489583,Eighth,D5_A4
1208,Left,1,57,80,200.5,0.489583,Eighth,E4_A3
1210,Right,0,76,80,200.5,0.489583,Eighth,G4_E5_C#5
1215,Left,1,50,80,201.0,0.989583,Sixteenth,D4_D3
1213,Right,0,78,80,201.0,0.989583,Quarter,F#5_A4
1217,Right,0,69,80,201.25,0.239583,Sixteenth,A4
1219,Left,1,52,80,201.5,0.239583,Sixteenth,E3
1218,Right,0,68,80,201.5,0.239583,Sixteenth,G#4
1220,Right,0,69,80,201.75,0.239583,Sixteenth,A4
1223,Left,1,62,80,202.0,0.989583,Quarter,F#3_D4
1221,Right,0,69,80,202.0,0.989583,Sixteenth,F#5_A4
1225,Right,0,69,80,202.25,0.239583,Sixteenth,A4
1226,Left,1,52,80,202.5,0.239583,Sixteenth,E3
1227,Right,0,68,80,202.5,0.239583,Sixteenth,G#4
1228,Right,0,69,80,202.75,0.239583,Sixteenth,A4
1229,Left,1,62,80,203.0,0.989583,Quarter,F#3_D4
1230,Right,0,69,80,203.0,0.989583,Sixteenth,F#5_A4
1233,Right,0,69,80,203.25,0.239583,Sixteenth,A4
1235,Right,0,68,80,203.5,0.239583,Sixteenth,G#4
1234,Left,1,50,80,203.5,0.239583,Sixteenth,D3
1236,Right,0,69,80,203.75,0.239583,Sixteenth,A4
1238,Right,0,69,80,204.0,0.989583,Sixteenth,E5_A4
1237,Left,1,61,80,204.0,0.989583,Quarter,G3_C#4
1241,Right,0,69,80,204.25,0.239583,Sixteenth,A4
1242,Right,0,68,80,204.5,0.239583,Sixteenth,G#4
1243,Left,1,57,80,204.5,0.239583,Sixteenth,A3
1244,Right,0,69,80,204.75,0.239583,Sixteenth,A4
1245,Right,0,78,80,205.0,1.989583,Half,F#5_A4
1247,Left,1,62,80,205.0,1.989583,Half,F#3_D4
1249,Right,0,69,80,205.25,0.239583,Sixteenth,A4
1250,Right,0,68,80,205.5,0.239583,Sixteenth,G#4
1251,Left,1,52,80,205.5,0.239583,Sixteenth,E3
1252,Right,0,69,80,205.75,0.239583,Sixteenth,A4
1254,Left,1,54,80,206.0,0.239583,Sixteenth,F#3
1253,Right,0,69,80,206.0,0.239583,Sixteenth,A4
1255,Right,0,69,80,206.25,0.239583,Sixteenth,A4
1256,Right,0,68,80,206.5,0.239583,Sixteenth,G#4
1257,Left,1,50,80,206.5,0.239583,Sixteenth,D3
1258,Right,0,69,80,206.75,0.239583,Sixteenth,A4
1261,Left,1,64,80,207.0,1.989583,Half,E4_C#3
1259,Right,0,79,80,207.0,1.989583,Half,G5_A4
1263,Right,0,69,80,207.25,0.239583,Sixteenth,A4
1265,Left,1,57,80,207.5,0.239583,Sixteenth,A3
1264,Right,0,68,80,207.5,0.239583,Sixteenth,G#4
1266,Right,0,69,80,207.75,0.239583,Sixteenth,A4
1267,Right,0,69,80,208.0,0.239583,Sixteenth,A4
1268,Left,1,59,80,208.0,0.239583,Sixteenth,B3
1269,Right,0,69,80,208.25,0.239583,Sixteenth,A4
1270,Right,0,68,80,208.5,0.239583,Sixteenth,G#4
1271,Left,1,61,80,208.5,0.239583,Sixteenth,C#4
1272,Right,0,69,80,208.75,0.239583,Sixteenth,A4
1275,Right,0,78,80,209.0,0.989583,Quarter,F#5_A4
1273,Left,1,62,80,209.0,0.989583,Sixteenth,F#4_D4
1277,Right,0,69,80,209.25,0.239583,Sixteenth,A4
1279,Right,0,68,80,209.5,0.239583,Sixteenth,G#4
1278,Left,1,56,80,209.5,0.239583,Sixteenth,G#3
1280,Right,0,69,80,209.75,0.239583,Sixteenth,A4
1283,Left,1,57,80,210.0,0.489583,Eighth,E4_C#4_A3
1281,Right,0,76,80,210.0,0.489583,Eighth,E5_A4
1286,Right,0,69,80,210.25,0.239583,Sixteenth,A4
1287,Right,0,68,80,210.5,0.239583,Sixteenth,G#4
1288,Right,0,69,80,210.75,0.239583,Sixteenth,A4
1289,Right,0,68,80,211.0,0.239583,Sixteenth,G#4
1290,Right,0,69,80,211.25,0.239583,Sixteenth,A4
1291,Right,0,71,80,211.5,0.239583,Sixteenth,B4
1292,Right,0,69,80,211.75,0.239583,Sixteenth,A4
1293,Right,0,69,80,212.0,0.239583,Sixteenth,A4
1294,Right,0,67,80,212.25,0.239583,Sixteenth,G4
1295,Right,0,66,80,212.5,0.239583,Sixteenth,F#4
1296,Right,0,64,80,212.75,0.239583,Sixteenth,E4
1298,Left,1,50,80,213.0,0.989583,Quarter,F#2_D3
1297,Right,0,62,80,213.0,0.989583,Sixteenth,D4_A4
1301,Right,0,62,80,213.25,0.239583,Sixteenth,D4
1302,Left,1,41,80,213.5,0.489583,Eighth,F2
1303,Right,0,61,80,213.5,0.239583,Sixteenth,C#4
1304,Right,0,62,80,213.75,0.239583,Sixteenth,D4
1305,Left,1,50,80,214.0,0.989583,Quarter,F#2_D3
1306,Right,0,62,80,214.0,0.989583,Sixteenth,D4_A4
1309,Right,0,62,80,214.25,0.239583,Sixteenth,D4
1310,Right,0,61,80,214.5,0.239583,Sixteenth,C#4
1311,Left,1,41,80,214.5,0.489583,Eighth,F2
1312,Right,0,62,80,214.75,0.239583,Sixteenth,D4
1315,Right,0,62,80,215.0,0.989583,Sixteenth,D4_A#4
1313,Left,1,50,80,215.0,0.989583,Quarter,F#2_D3
1317,Right,0,62,80,215.25,0.239583,Sixteenth,D4
1318,Right,0,61,80,215.5,0.239583,Sixteenth,C#4
1319,Left,1,38,80,215.5,0.489583,Eighth,D2
1320,Right,0,62,80,215.75,0.239583,Sixteenth,D4
1321,Right,0,62,80,216.0,1.989583,Sixteenth,D4_B4
1323,Left,1,43,80,216.0,0.989583,Eighth,G2_D3
1325,Right,0,62,80,216.25,0.239583,Sixteenth,D4
1326,Right,0,61,80,216.5,0.239583,Sixteenth,C#4
1327,Left,1,45,80,216.5,0.489583,Eighth,A2
1328,Right,0,62,80,216.75,0.239583,Sixteenth,D4
1329,Left,1,47,80,217.0,0.489583,Eighth,G3_B2
1331,Right,0,62,80,217.0,0.239583,Sixteenth,D4
1332,Right,0,62,80,217.25,0.239583,Sixteenth,D4
1333,Left,1,55,80,217.5,0.489583,Eighth,G3_C#3
1334,Right,0,64,80,217.5,0.239583,Sixteenth,E4
1336,Right,0,64,80,217.75,0.239583,Sixteenth,E4
1337,Left,1,54,80,218.0,0.489583,Eighth,F#3_D3
1338,Right,0,66,80,218.0,0.489583,Sixteenth,F#4_A4
1341,Right,0,57,80,218.25,0.239583,Sixteenth,A3
1344,Right,0,67,80,218.5,0.489583,Eighth,G4_C#4
1342,Left,1,55,80,218.5,0.489583,Eighth,G3_E3
1346,Right,0,57,80,218.75,0.239583,Sixteenth,A3
1347,Left,1,42,80,219.0,0.489583,Eighth,F#3_F#2
1349,Right,0,66,80,219.0,0.489583,Eighth,F#4_D4
1351,Right,0,57,80,219.25,0.239583,Sixteenth,A3
1352,Right,0,59,80,219.5,0.489583,Sixteenth,E4_B3
1354,Left,1,43,80,219.5,0.489583,Eighth,G2
1355,Right,0,55,80,219.75,0.239583,Sixteenth,G3
1356,Left,1,45,80,220.0,0.989583,Quarter,A2
1357,Right,0,62,80,220.0,0.989583,Quarter,F#3_D4
1359,Right,0,57,80,220.25,0.239583,Sixteenth,A3
1360,Right,0,57,80,220.5,0.239583,Sixteenth,A3
1361,Right,0,57,80,220.75,0.239583,Sixteenth,A3
1362,Left,1,45,80,221.0,0.989583,Quarter,E3_A2
1364,Right,0,61,80,221.0,0.989583,Quarter,G3_C#4
1366,Right,0,57,80,221.25,0.239583,Sixteenth,A3
1367,Right,0,57,80,221.5,0.239583,Sixteenth,A3
1368,Right,0,57,80,221.75,0.239583,Sixteenth,A3
1370,Left,1,38,80,222.0,3.489583,DottedHalf,D2
1369,Right,0,54,80,222.0,0.989583,Quarter,F#3_D4_A3
1373,Left,1,50,80,222.5,0.489583,Eighth,D3
1374,Left,1,49,80,223.0,0.489583,Eighth,C#3
1375,Left,1,47,80,223.5,0.489583,Eighth,B2
1377,Right,0,67,80,224.0,0.989583,Quarter,G4_E4_C#4
1376,Left,1,45,80,224.0,4.489583,Whole,A2
1380,Right,0,69,80,224.75,0.239583,Sixteenth,A4
1381,Right,0,66,80,225.0,0.489583,Eighth,F#4_D4_A3
1384,Left,1,38,80,225.5,0.489583,Eighth,D2
1385,Left,1,37,80,226.0,0.489583,Eighth,C#2
1386,Left,1,35,80,226.5,0.489583,Eighth,B1
1387,Right,0,64,80,227.0,0.989583,Quarter,G3_E4_C#4
1390,Left,1,33,80,227.0,1.489583,DottedQuarter,A1
1391,Right,0,66,80,227.75,0.239583,Sixteenth,F#4
1392,Right,0,62,80,228.0,0.489583,Eighth,F#3_D4_A3
1395,Left,1,50,80,228.5,0.239583,Sixteenth,D3
1396,Left,1,49,80,228.75,0.239583,Sixteenth,C#3
1397,Left,1,52,80,229.0,0.239583,Sixteenth,E3
1398,Left,1,50,80,229.25,0.239583,Sixteenth,D3
1399,Left,1,49,80,229.5,0.239583,Sixteenth,C#3
1400,Left,1,47,80,229.75,0.239583,Sixteenth,B2
1404,Left,1,45,80,230.0,2.989583,DottedHalf,A2
1401,Right,0,67,80,230.0,0.989583,Quarter,G4_E4_C#4
1405,Right,0,71,80,230.25,0.239583,Sixteenth,B4
1406,Right,0,69,80,230.5,0.239583,Sixteenth,A4
1407,Right,0,67,80,230.75,0.239583,Sixteenth,G4
1408,Right,0,62,80,231.0,0.489583,Eighth,F#4_D4_A3
1411,Left,1,38,80,231.5,0.239583,Sixteenth,D2
1412,Left,1,37,80,231.75,0.239583,Sixteenth,C#2
1413,Left,1,40,80,232.0,0.239583,Sixteenth,E2
1414,Left,1,38,80,232.25,0.239583,Sixteenth,D2
1415,Left,1,37,80,232.5,0.239583,Sixteenth,C#2
1416,Left,1,35,80,232.75,0.239583,Sixteenth,B1
1417,Right,0,55,80,233.0,0.989583,Quarter,G3_E4_C#4
1420,Left,1,33,80,233.0,1.489583,DottedQuarter,A1
1421,Right,0,67,80,233.25,0.239583,Sixteenth,G4
1422,Right,0,66,80,233.5,0.239583,Sixteenth,F#4
1423,Right,0,64,80,233.75,0.239583,Sixteenth,E4
1424,Right,0,62,80,234.0,1.989583,Half,F#3_D4
1426,Left,1,35,80,234.5,0.239583,Sixteenth,B1
1427,Left,1,37,80,234.75,0.239583,Sixteenth,C#2
1428,Left,1,38,80,235.0,0.989583,Quarter,D2
1429,Right,0,57,80,235.5,0.489583,Eighth,A3
1430,Right,0,62,80,236.0,0.989583,Quarter,F#3_D4
1432,Left,1,38,80,236.0,0.989583,Quarter,D2
1433,Right,0,57,80,236.5,0.489583,Eighth,A3
1434,Left,1,50,80,237.0,2.989583,DottedHalf,D3_D2_A2
1435,Right,0,54,80,237.0,2.989583,DottedHalf,F#3_D4
