,hand,channel,note,velocity,start_beat,duration,note_value,chord
0,Left,1,45,80,0.0,0.489583,Eighth,A2
1,Left,1,49,80,0.25,0.489583,Eighth,C#3
2,Left,1,52,80,0.5,0.489583,Eighth,E3
3,Left,1,57,80,0.75,0.489583,Eighth,A3
4,Right,0,61,80,1.0,0.322917,Triplet,C#4
5,Right,0,64,80,1.166667,0.322917,Triplet,E4
6,Right,0,69,80,1.333333,0.322917,Triplet,A4
7,Right,0,73,80,1.5,0.239583,Sixteenth,C#5
8,Right,0,76,80,1.625,0.239583,Sixteenth,E5
9,Right,0,81,80,1.75,0.239583,Sixteenth,A5
10,Right,0,85,80,1.875,0.114583,ThirtySecond,C#6
11,Left,1,57,80,2.0,0.489583,Eighth,A3
12,Right,0,88,80,2.0,0.989583,Quarter,E6
13,Left,1,64,80,2.5,0.489583,Eighth,E4
14,Left,1,61,80,3.0,0.489583,Eighth,C#4
15,Right,0,88,80,3.0,0.989583,Quarter,E6
16,Left,1,64,80,3.5,0.489583,Eighth,E4
17,Right,0,88,80,4.0,0.489583,Eighth,E6
18,Left,1,59,80,4.0,0.489583,Eighth,B3
20,Right,0,68,80,4.5,0.239583,Sixteenth,G#4
19,Left,1,64,80,4.5,0.489583,Eighth,E4
21,Right,0,68,80,5.0,1.989583,Half,G#4
22,Left,1,62,80,5.0,0.489583,Eighth,D4
23,Left,1,64,80,5.5,0.489583,Eighth,E4
24,Left,1,59,80,6.0,0.489583,Eighth,B3
25,Left,1,64,80,6.5,0.489583,Eighth,E4
27,Left,1,62,80,7.0,0.489583,Eighth,D4
26,Right,0,68,80,7.0,0.989583,Quarter,G#4
28,Left,1,64,80,7.5,0.489583,Eighth,E4
30,Left,1,61,80,8.0,0.489583,Eighth,C#4
29,Right,0,69,80,8.0,0.989583,Quarter,A4
31,Left,1,64,80,8.5,0.489583,Eighth,E4
33,Right,0,71,80,9.0,0.989583,Quarter,B4
32,Left,1,56,80,9.0,0.489583,Eighth,G#3
34,Left,1,64,80,9.5,0.489583,Eighth,E4
35,Right,0,73,80,10.0,0.989583,Quarter,C#5
36,Left,1,57,80,10.0,0.489583,Eighth,A3
37,Left,1,64,80,10.5,0.489583,Eighth,E4
38,Right,0,74,80,11.0,0.989583,Quarter,D5
39,Left,1,54,80,11.0,0.489583,Eighth,F#3
40,Left,1,57,80,11.5,0.489583,Eighth,A3
42,Left,1,52,80,12.0,0.489583,Eighth,E3
41,Right,0,73,80,12.0,0.114583,ThirtySecond,C#5
43,Right,0,76,101,12.125,1.364583,TiedQuarter-Sixteenth,E5
44,Left,1,61,80,12.5,0.489583,Eighth,C#4
45,Left,1,57,80,13.0,0.489583,Eighth,A3
47,Right,0,74,80,13.5,0.239583,Sixteenth,D5
46,Left,1,61,80,13.5,0.489583,Eighth,C#4
48,Right,0,73,80,13.75,0.239583,Sixteenth,C#5
49,Left,1,52,80,14.0,0.489583,Eighth,E3
50,Right,0,71,80,14.0,0.989583,Quarter,B4
51,Left,1,56,80,14.5,0.489583,Eighth,G#3
52,Left,1,50,80,15.0,0.489583,Eighth,D3
53,Left,1,56,80,15.5,0.489583,Eighth,G#3
54,Left,1,49,80,16.0,0.489583,Eighth,C#3
56,Left,1,57,80,16.5,0.489583,Eighth,A3
55,Right,0,57,80,16.5,0.239583,Sixteenth,A3
57,Right,0,61,80,16.75,0.239583,Sixteenth,C#4
58,Right,0,64,80,17.0,0.322917,Triplet,E4
59,Left,1,52,80,17.0,0.489583,Eighth,E3
60,Right,0,69,80,17.166667,0.322917,Triplet,A4
61,Right,0,73,80,17.333333,0.322917,Triplet,C#5
63,Left,1,57,80,17.5,0.489583,Eighth,A3
62,Right,0,76,80,17.5,0.322917,Triplet,E5
64,Right,0,81,80,17.666667,0.322917,Triplet,A5
65,Right,0,85,80,17.833333,0.15625,TripletSixteenth,C#6
66,Left,1,47,80,18.0,0.489583,Eighth,B2
67,Right,0,88,80,18.0,0.989583,Quarter,E6
68,Left,1,56,80,18.5,0.489583,Eighth,G#3
70,Left,1,52,80,19.0,0.489583,Eighth,E3
69,Right,0,88,80,19.0,0.989583,Quarter,E6
71,Left,1,54,80,19.5,0.489583,Eighth,F#3
72,Right,0,88,80,20.0,0.489583,Eighth,E6
73,Left,1,46,80,20.0,0.489583,Eighth,A#2
75,Right,0,66,80,20.5,0.239583,Sixteenth,F#4
74,Left,1,54,80,20.5,0.489583,Eighth,F#3
77,Right,0,66,80,21.0,1.989583,Half,F#4
76,Left,1,52,80,21.0,0.489583,Eighth,E3
78,Left,1,54,80,21.5,0.489583,Eighth,F#3
79,Left,1,49,80,22.0,0.489583,Eighth,C#3
80,Left,1,58,80,22.5,0.489583,Eighth,A#3
82,Right,0,66,80,23.0,0.989583,Quarter,F#4
81,Left,1,52,80,23.0,0.489583,Eighth,E3
83,Left,1,58,80,23.5,0.489583,Eighth,A#3
85,Left,1,47,80,24.0,2.989583,DottedHalf,E3_B2
84,Right,0,68,80,24.0,0.489583,Eighth,G#4
87,Right,0,69,80,24.5,0.239583,Sixteenth,A4
88,Left,1,59,80,24.5,0.489583,Eighth,B3
89,Right,0,68,80,24.75,0.239583,Sixteenth,G#4
91,Left,1,56,80,25.0,0.489583,Eighth,G#3
90,Right,0,66,80,25.0,0.489583,Eighth,F#4
93,Left,1,59,80,25.5,0.489583,Eighth,B3
92,Right,0,68,80,25.5,0.489583,Eighth,G#4
94,Right,0,71,80,26.0,0.489583,Eighth,B4
95,Left,1,54,80,26.0,0.489583,Eighth,F#3
97,Right,0,69,80,26.5,0.489583,Eighth,A4
96,Left,1,59,80,26.5,0.489583,Eighth,B3
98,Left,1,57,80,27.0,0.989583,Eighth,B2_A3
99,Right,0,66,80,27.0,0.489583,Eighth,F#4
101,Right,0,63,80,27.5,0.489583,Eighth,D#4
102,Left,1,59,80,27.5,0.489583,Eighth,B3
103,Left,1,52,80,28.0,2.989583,DottedHalf,E3
104,Right,0,63,80,28.0,1.989583,Half,F#4_D#4
106,Left,1,57,80,28.5,0.489583,Eighth,A3
107,Left,1,59,80,29.0,0.489583,Eighth,B3
108,Left,1,57,80,29.5,0.489583,Eighth,A3
110,Right,0,64,80,30.0,0.489583,Eighth,E4
109,Left,1,56,80,30.0,0.989583,Quarter,G#3
111,Right,0,76,80,30.5,0.489583,Eighth,E5
112,Right,0,71,80,31.0,0.489583,Eighth,B4
113,Right,0,73,80,31.5,0.489583,Eighth,C#5
115,Right,0,74,80,32.0,1.989583,Half,D5
114,Left,1,52,102,32.0,6.489583,Unknown,E3
116,Right,0,71,80,32.5,0.489583,Eighth,B4
117,Right,0,66,80,33.0,0.489583,Eighth,F#4
118,Right,0,68,80,33.5,0.489583,Eighth,G#4
119,Right,0,73,80,34.0,1.989583,Half,C#5_A4
121,Left,1,57,80,34.5,0.489583,Eighth,A3
122,Left,1,61,80,35.0,0.489583,Eighth,C#4
123,Left,1,63,80,35.5,0.489583,Eighth,D#4
124,Right,0,64,80,36.0,2.989583,DottedHalf,G#4_E4_B4
127,Right,0,63,80,36.5,0.489583,Eighth,D#4
128,Right,0,64,80,37.0,0.489583,Eighth,E4
129,Right,0,66,80,37.5,0.489583,Eighth,F#4
130,Right,0,64,80,38.0,0.989583,Quarter,E4
131,Left,1,52,80,38.5,0.489583,Eighth,E3
132,Left,1,47,80,39.0,0.489583,Eighth,B2
133,Left,1,49,80,39.5,0.489583,Eighth,C#3
136,Right,0,59,103,40.0,1.989583,Half,B3
134,Left,1,40,104,40.0,4.489583,Whole,E2_D3
137,Right,0,71,80,40.5,0.489583,Eighth,B4
138,Right,0,66,80,41.0,0.489583,Eighth,F#4
139,Right,0,68,80,41.5,0.489583,Eighth,G#4
140,Left,1,49,80,42.0,0.989583,Quarter,C#3
141,Right,0,69,80,42.0,1.989583,Half,A4
142,Right,0,57,80,42.5,0.489583,Eighth,A3
143,Right,0,61,80,43.0,0.489583,Eighth,C#4
144,Left,1,54,80,43.0,0.989583,Quarter,F#3
145,Right,0,63,80,43.5,0.489583,Eighth,D#4
147,Right,0,64,80,44.0,0.989583,Quarter,G#4_E4_B3
146,Left,1,52,80,44.0,0.989583,Quarter,E3
150,Left,1,39,70,44.5,0.489583,Eighth,D#2
151,Left,1,40,70,45.0,0.489583,Eighth,E2
152,Left,1,42,70,45.5,0.489583,Eighth,F#2
153,Left,1,40,70,46.0,0.489583,Eighth,E2
154,Left,1,38,70,46.5,0.489583,Eighth,D2
155,Left,1,37,70,47.0,0.489583,Eighth,C#2
156,Left,1,35,70,47.5,0.489583,Eighth,B1
157,Left,1,33,80,48.0,0.489583,Eighth,A1
158,Right,0,57,80,48.5,0.239583,Sixteenth,A3
159,Left,1,52,80,48.5,0.489583,Eighth,E3
160,Right,0,61,80,48.75,0.239583,Sixteenth,C#4
162,Left,1,49,80,49.0,0.489583,Eighth,C#3
161,Right,0,64,80,49.0,0.322917,Triplet,E4
163,Right,0,69,80,49.166667,0.322917,Triplet,A4
164,Right,0,73,80,49.333333,0.322917,Triplet,C#5
165,Left,1,52,80,49.5,0.489583,Eighth,E3
166,Right,0,76,80,49.5,0.322917,Triplet,E5
167,Right,0,81,80,49.666667,0.322917,Triplet,A5
168,Right,0,85,80,49.833333,0.15625,TripletSixteenth,C#6
170,Right,0,88,80,50.0,0.989583,Quarter,E6
169,Left,1,45,80,50.0,0.489583,Eighth,A2
171,Left,1,52,80,50.5,0.489583,Eighth,E3
173,Right,0,88,80,51.0,0.989583,Quarter,E6
172,Left,1,49,80,51.0,0.489583,Eighth,C#3
174,Left,1,52,80,51.5,0.489583,Eighth,E3
175,Right,0,88,80,52.0,0.489583,Eighth,E6
176,Left,1,47,80,52.0,0.489583,Eighth,B2
177,Right,0,68,80,52.5,0.239583,Sixteenth,G#4
178,Left,1,52,80,52.5,0.489583,Eighth,E3
180,Right,0,68,80,53.0,1.989583,Half,G#4
179,Left,1,50,80,53.0,0.489583,Eighth,D3
181,Left,1,52,80,53.5,0.489583,Eighth,E3
182,Left,1,47,80,54.0,0.489583,Eighth,B2
183,Left,1,52,80,54.5,0.489583,Eighth,E3
184,Left,1,49,80,55.0,0.489583,Eighth,C#3
185,Right,0,69,80,55.0,0.989583,Quarter,A4
186,Left,1,57,80,55.5,0.489583,Eighth,A3
187,Left,1,50,80,56.0,0.489583,Eighth,D3
188,Right,0,71,80,56.0,0.239583,Sixteenth,B4
189,Right,0,73,80,56.25,0.15625,TripletSixteenth,C#5
190,Right,0,71,80,56.333333,0.15625,TripletSixteenth,B4
191,Right,0,70,80,56.416667,0.15625,TripletSixteenth,A#4
193,Right,0,71,80,56.5,0.239583,Sixteenth,B4
192,Left,1,59,80,56.5,0.489583,Eighth,B3
194,Right,0,73,80,56.75,0.239583,Sixteenth,C#5
196,Left,1,54,80,57.0,0.489583,Eighth,F#3
195,Right,0,74,80,57.0,0.322917,Triplet,D5
197,Right,0,76,80,57.333333,0.322917,Triplet,E5
198,Left,1,59,80,57.5,0.489583,Eighth,B3
199,Right,0,78,80,57.666667,0.322917,Triplet,F#5
201,Right,0,69,80,58.0,0.989583,Quarter,A4
200,Left,1,52,80,58.0,0.489583,Eighth,E3
202,Left,1,61,80,58.5,0.489583,Eighth,C#4
203,Right,0,73,80,59.0,0.989583,Eighth,G#4_C#5
205,Left,1,52,80,59.0,0.489583,Eighth,E3
206,Right,0,71,80,59.5,0.489583,Eighth,B4
207,Left,1,62,80,59.5,0.489583,Eighth,D4
209,Left,1,57,80,60.0,2.989583,DottedHalf,A3
208,Right,0,71,80,60.0,1.989583,Half,G#4_B4
211,Left,1,62,80,60.5,0.489583,Eighth,D4
212,Left,1,64,80,61.0,0.489583,Eighth,E4
213,Left,1,62,80,61.5,0.489583,Eighth,D4
214,Left,1,61,80,62.0,0.989583,Quarter,C#4
215,Right,0,69,80,62.0,0.489583,Eighth,A4
216,Right,0,78,80,62.5,0.239583,Sixteenth,F#5
217,Right,0,76,80,62.75,0.239583,Sixteenth,E5
218,Right,0,74,80,63.0,0.239583,Sixteenth,D5
219,Right,0,73,80,63.25,0.239583,Sixteenth,C#5
220,Right,0,71,80,63.5,0.239583,Sixteenth,B4
221,Right,0,69,80,63.75,0.239583,Sixteenth,A4
222,Right,0,68,80,64.0,0.239583,Sixteenth,G#4
223,Right,0,69,80,64.25,0.239583,Sixteenth,A4
224,Right,0,71,80,64.5,0.239583,Sixteenth,B4
225,Right,0,69,80,64.75,0.239583,Sixteenth,A4
227,Left,1,59,80,65.0,0.239583,Sixteenth,B3
226,Right,0,68,80,65.0,0.989583,Quarter,G#4
228,Left,1,62,80,65.25,0.239583,Sixteenth,D4
229,Left,1,64,80,65.5,0.239583,Sixteenth,E4
230,Left,1,62,80,65.75,0.239583,Sixteenth,D4
231,Left,1,59,80,66.0,0.989583,Quarter,B3
232,Right,0,76,80,66.5,0.239583,Sixteenth,E5
233,Right,0,74,80,66.75,0.239583,Sixteenth,D5
234,Right,0,73,80,67.0,0.239583,Sixteenth,C#5
235,Right,0,71,80,67.25,0.239583,Sixteenth,B4
236,Right,0,69,80,67.5,0.239583,Sixteenth,A4
237,Right,0,68,80,67.75,0.239583,Sixteenth,G#4
238,Right,0,69,80,68.0,0.239583,Sixteenth,A4
239,Right,0,71,80,68.25,0.239583,Sixteenth,B4
240,Right,0,73,80,68.5,0.239583,Sixteenth,C#5
241,Right,0,71,80,68.75,0.239583,Sixteenth,B4
243,Right,0,69,80,69.0,0.989583,Quarter,A4
242,Left,1,61,80,69.0,0.239583,Sixteenth,C#4
244,Left,1,64,80,69.25,0.239583,Sixteenth,E4
245,Left,1,69,80,69.5,0.239583,Sixteenth,A4
246,Left,1,64,80,69.75,0.239583,Sixteenth,E4
247,Left,1,61,80,70.0,0.989583,Quarter,C#4
248,Right,0,81,100,70.5,0.239583,Sixteenth,A5
249,Right,0,80,100,70.75,0.239583,Sixteenth,G#5
250,Right,0,78,100,71.0,0.239583,Sixteenth,F#5
251,Right,0,76,100,71.25,0.239583,Sixteenth,E5
252,Right,0,74,100,71.5,0.239583,Sixteenth,D5
253,Right,0,73,100,71.75,0.239583,Sixteenth,C#5
254,Right,0,71,100,72.0,0.239583,Sixteenth,B4
255,Left,1,66,100,72.0,0.989583,Quarter,F#4_D4
257,Right,0,74,100,72.25,0.239583,Sixteenth,D5
258,Right,0,78,100,72.5,0.239583,Sixteenth,F#5
259,Right,0,76,100,72.75,0.239583,Sixteenth,E5
260,Right,0,74,100,73.0,0.239583,Sixteenth,D5
261,Right,0,73,100,73.25,0.239583,Sixteenth,C#5
262,Right,0,71,100,73.5,0.239583,Sixteenth,B4
263,Right,0,69,100,73.75,0.239583,Sixteenth,A4
266,Right,0,68,100,74.0,0.239583,Sixteenth,G#4
264,Left,1,59,100,74.0,0.989583,Quarter,E3_D4_B3
268,Right,0,69,100,74.25,0.239583,Sixteenth,A4
269,Right,0,71,100,74.5,0.239583,Sixteenth,B4
270,Right,0,69,100,74.75,0.239583,Sixteenth,A4
271,Right,0,68,100,75.0,0.239583,Sixteenth,G#4
272,Right,0,66,100,75.25,0.239583,Sixteenth,F#4
273,Right,0,64,100,75.5,0.239583,Sixteenth,E4
274,Right,0,62,100,75.75,0.239583,Sixteenth,D4
276,Left,1,57,80,76.0,0.989583,Quarter,A3
275,Right,0,61,80,76.0,0.239583,Sixteenth,C#4
277,Right,0,69,80,76.25,0.239583,Sixteenth,A4
278,Right,0,64,80,76.5,0.239583,Sixteenth,E4
279,Right,0,73,80,76.75,0.239583,Sixteenth,C#5
280,Right,0,69,80,77.0,0.239583,Sixteenth,A4
281,Right,0,76,80,77.25,0.239583,Sixteenth,E5
282,Right,0,73,80,77.5,0.239583,Sixteenth,C#5
283,Right,0,81,80,77.75,0.239583,Sixteenth,A5
284,Right,0,76,80,78.0,0.239583,Sixteenth,E5
285,Right,0,85,80,78.25,0.239583,Sixteenth,C#6
286,Right,0,81,80,78.5,0.239583,Sixteenth,A5
287,Right,0,88,80,78.75,0.239583,Sixteenth,E6
288,Right,0,86,80,79.0,0.239583,Sixteenth,D6
289,Right,0,85,80,79.25,0.239583,Sixteenth,C#6
290,Right,0,83,80,79.5,0.239583,Sixteenth,B5
291,Right,0,81,80,79.75,0.239583,Sixteenth,A5
292,Right,0,80,80,80.0,0.239583,Sixteenth,G#5
293,Right,0,81,80,80.25,0.239583,Sixteenth,A5
294,Right,0,83,80,80.5,0.239583,Sixteenth,B5
295,Right,0,81,80,80.75,0.239583,Sixteenth,A5
297,Right,0,80,80,81.0,0.989583,Quarter,G#5
296,Left,1,71,80,81.0,0.239583,Sixteenth,B4
298,Left,1,74,80,81.25,0.239583,Sixteenth,D5
299,Left,1,76,80,81.5,0.239583,Sixteenth,E5
300,Left,1,74,80,81.75,0.239583,Sixteenth,D5
301,Left,1,71,80,82.0,0.989583,Quarter,B4
302,Right,0,87,80,82.25,0.239583,Sixteenth,D#6
303,Right,0,88,80,82.5,0.239583,Sixteenth,E6
304,Right,0,86,80,82.75,0.239583,Sixteenth,D6
305,Right,0,85,80,83.0,0.239583,Sixteenth,C#6
306,Right,0,83,80,83.25,0.239583,Sixteenth,B5
307,Right,0,81,80,83.5,0.239583,Sixteenth,A5
308,Right,0,80,80,83.75,0.239583,Sixteenth,G#5
309,Right,0,81,80,84.0,0.239583,Sixteenth,A5
310,Right,0,83,80,84.25,0.239583,Sixteenth,B5
311,Right,0,85,80,84.5,0.239583,Sixteenth,C#6
312,Right,0,83,80,84.75,0.239583,Sixteenth,B5
313,Right,0,81,80,85.0,0.989583,Quarter,A5
314,Left,1,73,80,85.0,0.239583,Sixteenth,C#5
315,Left,1,76,80,85.25,0.239583,Sixteenth,E5
316,Left,1,81,80,85.5,0.239583,Sixteenth,A5
317,Left,1,76,80,85.75,0.239583,Sixteenth,E5
318,Left,1,73,80,86.0,0.989583,Quarter,C#5
319,Right,0,85,100,86.5,0.239583,Sixteenth,C#6
320,Right,0,83,100,86.75,0.239583,Sixteenth,B5
321,Right,0,81,100,87.0,0.239583,Sixteenth,A5
322,Right,0,80,100,87.25,0.239583,Sixteenth,G#5
323,Right,0,78,100,87.5,0.239583,Sixteenth,F#5
324,Right,0,76,100,87.75,0.239583,Sixteenth,E5
325,Right,0,75,100,88.0,0.239583,Sixteenth,D#5
326,Left,1,69,100,88.0,0.989583,Quarter,F#4_A4
328,Right,0,78,100,88.25,0.239583,Sixteenth,F#5
329,Right,0,81,100,88.5,0.239583,Sixteenth,A5
330,Right,0,80,100,88.75,0.239583,Sixteenth,G#5
331,Right,0,78,100,89.0,0.239583,Sixteenth,F#5
332,Right,0,76,100,89.25,0.239583,Sixteenth,E5
333,Right,0,75,100,89.5,0.239583,Sixteenth,D#5
334,Right,0,73,100,89.75,0.239583,Sixteenth,C#5
336,Left,1,66,100,90.0,0.989583,Quarter,F#4_D#4
335,Right,0,71,100,90.0,0.239583,Sixteenth,B4
338,Right,0,75,100,90.25,0.239583,Sixteenth,D#5
339,Right,0,78,100,90.5,0.239583,Sixteenth,F#5
340,Right,0,76,100,90.75,0.239583,Sixteenth,E5
341,Right,0,75,100,91.0,0.239583,Sixteenth,D#5
342,Right,0,73,100,91.25,0.239583,Sixteenth,C#5
343,Right,0,71,100,91.5,0.239583,Sixteenth,B4
344,Right,0,69,100,91.75,0.239583,Sixteenth,A4
345,Left,1,64,100,92.0,0.989583,Quarter,E4
346,Right,0,68,100,92.0,0.239583,Sixteenth,G#4
347,Right,0,64,100,92.25,0.239583,Sixteenth,E4
348,Right,0,71,100,92.5,0.239583,Sixteenth,B4
349,Right,0,68,100,92.75,0.239583,Sixteenth,G#4
350,Right,0,76,100,93.0,0.239583,Sixteenth,E5
351,Right,0,71,100,93.25,0.239583,Sixteenth,B4
352,Right,0,80,100,93.5,0.239583,Sixteenth,G#5
353,Right,0,76,100,93.75,0.239583,Sixteenth,E5
354,Right,0,83,100,94.0,0.239583,Sixteenth,B5
355,Right,0,80,100,94.25,0.239583,Sixteenth,G#5
358,Right,0,88,100,94.5,0.239583,Sixteenth,E6
356,Left,1,56,100,94.5,0.489583,Eighth,G#3_E3
359,Right,0,87,100,94.75,0.239583,Sixteenth,D#6
360,Right,0,85,100,95.0,0.239583,Sixteenth,C#6
361,Left,1,54,100,95.0,0.489583,Eighth,F#3_A3
363,Right,0,83,100,95.25,0.239583,Sixteenth,B5
364,Left,1,59,100,95.5,0.489583,Eighth,G#3_B3
365,Right,0,81,100,95.5,0.239583,Sixteenth,A5
367,Right,0,80,100,95.75,0.239583,Sixteenth,G#5
369,Right,0,78,100,96.0,0.239583,Sixteenth,F#5
368,Left,1,61,100,96.0,0.989583,Quarter,C#4_A3
371,Right,0,81,100,96.25,0.239583,Sixteenth,A5
372,Right,0,85,100,96.5,0.239583,Sixteenth,C#6
373,Right,0,83,100,96.75,0.239583,Sixteenth,B5
374,Right,0,81,100,97.0,0.239583,Sixteenth,A5
375,Right,0,80,100,97.25,0.239583,Sixteenth,G#5
376,Right,0,78,100,97.5,0.239583,Sixteenth,F#5
377,Right,0,76,100,97.75,0.239583,Sixteenth,E5
378,Right,0,75,100,98.0,0.239583,Sixteenth,D#5
379,Left,1,57,100,98.0,0.989583,Quarter,F#3_D#3_B2_A3
383,Right,0,76,100,98.25,0.239583,Sixteenth,E5
384,Right,0,75,100,98.5,0.239583,Sixteenth,D#5
385,Right,0,73,100,98.75,0.239583,Sixteenth,C#5
386,Right,0,71,100,99.0,0.239583,Sixteenth,B4
387,Right,0,69,100,99.25,0.239583,Sixteenth,A4
388,Right,0,68,100,99.5,0.239583,Sixteenth,G#4
389,Right,0,66,100,99.75,0.239583,Sixteenth,F#4
391,Left,1,52,80,100.0,0.239583,Sixteenth,E3
390,Right,0,64,80,100.0,0.989583,Quarter,E4
392,Left,1,59,80,100.25,0.239583,Sixteenth,B3
393,Left,1,56,80,100.5,0.239583,Sixteenth,G#3
394,Left,1,59,80,100.75,0.239583,Sixteenth,B3
395,Left,1,64,80,101.0,0.239583,Sixteenth,E4
396,Left,1,59,80,101.25,0.239583,Sixteenth,B3
397,Left,1,56,80,101.5,0.239583,Sixteenth,G#3
398,Left,1,59,80,101.75,0.239583,Sixteenth,B3
399,Left,1,52,80,102.0,0.239583,Sixteenth,E3
400,Left,1,59,80,102.25,0.239583,Sixteenth,B3
401,Left,1,56,80,102.5,0.239583,Sixteenth,G#3
402,Left,1,59,80,102.75,0.239583,Sixteenth,B3
404,Right,0,71,80,103.0,0.489583,Eighth,B4
403,Left,1,52,80,103.0,0.239583,Sixteenth,E3
405,Left,1,59,80,103.25,0.239583,Sixteenth,B3
407,Right,0,76,80,103.5,0.489583,Eighth,E5
406,Left,1,56,80,103.5,0.239583,Sixteenth,G#3
408,Left,1,59,80,103.75,0.239583,Sixteenth,B3
409,Left,1,57,80,104.0,0.239583,Sixteenth,A3
410,Right,0,76,80,104.0,0.489583,Eighth,E5
411,Left,1,59,80,104.25,0.239583,Sixteenth,B3
413,Left,1,54,80,104.5,0.239583,Sixteenth,F#3
412,Right,0,75,80,104.5,0.489583,Eighth,D#5
414,Left,1,59,80,104.75,0.239583,Sixteenth,B3
415,Left,1,51,80,105.0,0.239583,Sixteenth,D#3
416,Right,0,73,80,105.0,0.239583,Sixteenth,C#5
417,Right,0,75,80,105.125,0.239583,Sixteenth,D#5
419,Right,0,73,80,105.25,0.239583,Sixteenth,C#5
418,Left,1,59,80,105.25,0.239583,Sixteenth,B3
420,Right,0,71,80,105.5,0.489583,Eighth,B4
421,Left,1,47,80,105.5,0.239583,Sixteenth,B2
422,Left,1,59,80,105.75,0.239583,Sixteenth,B3
424,Right,0,71,80,106.0,0.989583,Quarter,B4
423,Left,1,45,80,106.0,0.239583,Sixteenth,A2
425,Left,1,59,80,106.25,0.239583,Sixteenth,B3
426,Left,1,47,80,106.5,0.239583,Sixteenth,B2
427,Left,1,59,80,106.75,0.239583,Sixteenth,B3
428,Left,1,45,80,107.0,0.239583,Sixteenth,A2
429,Right,0,71,80,107.0,0.989583,Quarter,B4
430,Left,1,59,80,107.25,0.239583,Sixteenth,B3
431,Left,1,47,80,107.5,0.239583,Sixteenth,B2
432,Left,1,59,80,107.75,0.239583,Sixteenth,B3
434,Right,0,71,80,108.0,0.989583,Quarter,B4
433,Left,1,44,80,108.0,0.239583,Sixteenth,G#2
435,Left,1,59,80,108.25,0.239583,Sixteenth,B3
436,Left,1,47,80,108.5,0.239583,Sixteenth,B2
437,Left,1,59,80,108.75,0.239583,Sixteenth,B3
439,Left,1,52,80,109.0,0.239583,Sixteenth,E3
438,Right,0,71,80,109.0,0.114583,ThirtySecond,B4
440,Right,0,80,101,109.125,1.364583,TiedQuarter-Sixteenth,G#5
441,Left,1,59,80,109.25,0.239583,Sixteenth,B3
442,Left,1,56,80,109.5,0.239583,Sixteenth,G#3
443,Left,1,59,80,109.75,0.239583,Sixteenth,B3
444,Left,1,52,80,110.0,0.239583,Sixteenth,E3
445,Left,1,59,80,110.25,0.239583,Sixteenth,B3
447,Right,0,81,80,110.5,0.239583,Sixteenth,A5
446,Left,1,56,80,110.5,0.239583,Sixteenth,G#3
449,Right,0,80,80,110.75,0.239583,Sixteenth,G#5
448,Left,1,59,80,110.75,0.239583,Sixteenth,B3
451,Left,1,52,80,111.0,0.239583,Sixteenth,E3
450,Right,0,78,80,111.0,0.489583,Eighth,F#5
452,Left,1,59,80,111.25,0.239583,Sixteenth,B3
453,Left,1,56,80,111.5,0.239583,Sixteenth,G#3
454,Right,0,76,80,111.5,0.489583,Eighth,E5
455,Left,1,59,80,111.75,0.239583,Sixteenth,B3
457,Right,0,76,80,112.0,0.489583,Eighth,E5
456,Left,1,57,80,112.0,0.239583,Sixteenth,A3
458,Left,1,59,80,112.25,0.239583,Sixteenth,B3
459,Right,0,75,80,112.5,0.489583,Eighth,D#5
460,Left,1,54,80,112.5,0.239583,Sixteenth,F#3
461,Left,1,59,80,112.75,0.239583,Sixteenth,B3
463,Right,0,73,80,113.0,0.239583,Sixteenth,C#5
462,Left,1,51,80,113.0,0.239583,Sixteenth,D#3
464,Right,0,75,80,113.125,0.239583,Sixteenth,D#5
466,Right,0,73,80,113.25,0.239583,Sixteenth,C#5
465,Left,1,59,80,113.25,0.239583,Sixteenth,B3
468,Right,0,71,80,113.5,0.489583,Eighth,B4
467,Left,1,47,80,113.5,0.239583,Sixteenth,B2
469,Left,1,59,80,113.75,0.239583,Sixteenth,B3
471,Right,0,71,80,114.0,0.989583,Quarter,B4
470,Left,1,45,80,114.0,0.239583,Sixteenth,A2
472,Left,1,59,80,114.25,0.239583,Sixteenth,B3
473,Left,1,47,80,114.5,0.239583,Sixteenth,B2
474,Left,1,59,80,114.75,0.239583,Sixteenth,B3
475,Right,0,71,80,115.0,0.989583,Quarter,B4
476,Left,1,45,80,115.0,0.239583,Sixteenth,A2
477,Left,1,59,80,115.25,0.239583,Sixteenth,B3
478,Left,1,47,80,115.5,0.239583,Sixteenth,B2
479,Left,1,59,80,115.75,0.239583,Sixteenth,B3
481,Right,0,71,80,116.0,0.989583,Quarter,B4
480,Left,1,44,80,116.0,0.239583,Sixteenth,G#2
482,Left,1,59,80,116.25,0.239583,Sixteenth,B3
483,Left,1,47,80,116.5,0.239583,Sixteenth,B2
484,Left,1,59,80,116.75,0.239583,Sixteenth,B3
486,Right,0,71,81,117.0,1.239583,TiedQuarter-Sixteenth,B4
485,Left,1,52,80,117.0,0.239583,Sixteenth,E3
487,Right,0,76,88,117.125,1.114583,TiedQuarter-ThirtySecond,E5
489,Left,1,59,80,117.25,0.239583,Sixteenth,B3
488,Right,0,80,96,117.25,0.989583,Quarter,G#5
490,Right,0,83,104,117.375,0.864583,DottedEighth,B5
491,Left,1,56,80,117.5,0.239583,Sixteenth,G#3
492,Left,1,59,80,117.75,0.239583,Sixteenth,B3
493,Left,1,52,80,118.0,0.239583,Sixteenth,E3
494,Left,1,59,80,118.25,0.239583,Sixteenth,B3
496,Left,1,56,80,118.5,0.239583,Sixteenth,G#3
495,Right,0,85,80,118.5,0.239583,Sixteenth,C#6
498,Left,1,59,80,118.75,0.239583,Sixteenth,B3
497,Right,0,83,80,118.75,0.239583,Sixteenth,B5
500,Left,1,52,80,119.0,0.239583,Sixteenth,E3
499,Right,0,81,80,119.0,0.239583,Sixteenth,A5
501,Right,0,80,80,119.25,0.239583,Sixteenth,G#5
502,Left,1,59,80,119.25,0.239583,Sixteenth,B3
504,Left,1,56,80,119.5,0.239583,Sixteenth,G#3
503,Right,0,78,80,119.5,0.239583,Sixteenth,F#5
506,Left,1,59,80,119.75,0.239583,Sixteenth,B3
505,Right,0,76,80,119.75,0.239583,Sixteenth,E5
508,Left,1,57,80,120.0,0.239583,Sixteenth,A3
507,Right,0,76,80,120.0,0.489583,Eighth,E5
509,Left,1,59,80,120.25,0.239583,Sixteenth,B3
511,Left,1,54,80,120.5,0.239583,Sixteenth,F#3
510,Right,0,75,80,120.5,0.489583,Eighth,D#5
512,Left,1,59,80,120.75,0.239583,Sixteenth,B3
514,Right,0,73,80,121.0,0.239583,Sixteenth,C#5
513,Left,1,51,80,121.0,0.239583,Sixteenth,D#3
515,Right,0,75,80,121.125,0.239583,Sixteenth,D#5
516,Right,0,73,80,121.25,0.239583,Sixteenth,C#5
517,Left,1,59,80,121.25,0.239583,Sixteenth,B3
518,Left,1,47,80,121.5,0.239583,Sixteenth,B2
519,Right,0,71,80,121.5,0.489583,Eighth,B4
520,Left,1,59,80,121.75,0.239583,Sixteenth,B3
522,Right,0,71,80,122.0,0.989583,Quarter,B4
521,Left,1,45,80,122.0,0.239583,Sixteenth,A2
523,Left,1,59,80,122.25,0.239583,Sixteenth,B3
524,Left,1,47,80,122.5,0.239583,Sixteenth,B2
525,Left,1,59,80,122.75,0.239583,Sixteenth,B3
526,Right,0,71,80,123.0,0.989583,Quarter,B4
527,Left,1,45,80,123.0,0.239583,Sixteenth,A2
528,Left,1,59,80,123.25,0.239583,Sixteenth,B3
529,Left,1,47,80,123.5,0.239583,Sixteenth,B2
530,Left,1,59,80,123.75,0.239583,Sixteenth,B3
531,Left,1,44,80,124.0,0.239583,Sixteenth,G#2
532,Right,0,71,80,124.0,0.489583,Eighth,B4
533,Left,1,59,80,124.25,0.239583,Sixteenth,B3
534,Right,0,76,94,124.5,0.989583,Quarter,E5_E4
536,Left,1,56,80,124.5,0.239583,Sixteenth,G#3
537,Left,1,59,80,124.75,0.239583,Sixteenth,B3
538,Left,1,44,80,125.0,0.239583,Sixteenth,G#2
539,Left,1,59,80,125.25,0.239583,Sixteenth,B3
540,Right,0,74,80,125.5,0.489583,Eighth,D5_D4
541,Left,1,56,80,125.5,0.239583,Sixteenth,G#3
543,Left,1,59,80,125.75,0.239583,Sixteenth,B3
544,Right,0,73,80,126.0,1.489583,Eighth,C#5_C#4
545,Left,1,43,80,126.0,0.239583,Sixteenth,G2
547,Left,1,57,80,126.25,0.239583,Sixteenth,A3
549,Right,0,74,80,126.5,0.239583,Sixteenth,D5
548,Left,1,55,80,126.5,0.239583,Sixteenth,G3
550,Right,0,73,80,126.625,0.239583,Sixteenth,C#5
552,Right,0,71,80,126.75,0.239583,Sixteenth,B4
551,Left,1,57,80,126.75,0.239583,Sixteenth,A3
553,Right,0,73,80,126.875,0.114583,ThirtySecond,C#5
554,Right,0,73,80,127.0,0.489583,Eighth,C#5
555,Left,1,43,80,127.0,0.239583,Sixteenth,G2
556,Left,1,57,80,127.25,0.239583,Sixteenth,A3
557,Left,1,55,80,127.5,0.239583,Sixteenth,G3
558,Right,0,76,80,127.5,0.489583,Eighth,E5_E4
560,Left,1,57,80,127.75,0.239583,Sixteenth,A3
561,Right,0,64,80,128.0,0.989583,Quarter,E5_E4
562,Left,1,42,80,128.0,0.239583,Sixteenth,F#2
564,Left,1,57,80,128.25,0.239583,Sixteenth,A3
565,Left,1,54,80,128.5,0.239583,Sixteenth,F#3
566,Left,1,57,80,128.75,0.239583,Sixteenth,A3
567,Left,1,42,80,129.0,0.239583,Sixteenth,F#2
568,Right,0,74,80,129.0,0.989583,Quarter,D5_D4
570,Left,1,57,80,129.25,0.239583,Sixteenth,A3
571,Left,1,54,80,129.5,0.239583,Sixteenth,F#3
572,Left,1,57,80,129.75,0.239583,Sixteenth,A3
573,Left,1,42,80,130.0,0.239583,Sixteenth,F#2
574,Left,1,56,80,130.25,0.239583,Sixteenth,G#3
575,Left,1,54,80,130.5,0.239583,Sixteenth,F#3
576,Left,1,56,80,130.75,0.239583,Sixteenth,G#3
577,Right,0,60,80,131.0,0.989583,Quarter,C5_C4
578,Left,1,42,80,131.0,0.239583,Sixteenth,F#2
580,Left,1,56,80,131.25,0.239583,Sixteenth,G#3
581,Left,1,54,80,131.5,0.239583,Sixteenth,F#3
582,Left,1,56,80,131.75,0.239583,Sixteenth,G#3
583,Left,1,40,80,132.0,0.239583,Sixteenth,E2
584,Right,0,75,80,132.0,0.489583,Eighth,D#5_D#4
586,Left,1,56,80,132.25,0.239583,Sixteenth,G#3
588,Right,0,61,80,132.5,0.989583,Quarter,C#5_C#4
587,Left,1,52,80,132.5,0.239583,Sixteenth,E3
590,Left,1,56,80,132.75,0.239583,Sixteenth,G#3
591,Left,1,40,80,133.0,0.239583,Sixteenth,E2
592,Left,1,56,80,133.25,0.239583,Sixteenth,G#3
593,Right,0,71,80,133.5,0.489583,Eighth,B4_B3
594,Left,1,52,80,133.5,0.239583,Sixteenth,E3
596,Left,1,56,80,133.75,0.239583,Sixteenth,G#3
598,Right,0,58,80,134.0,1.489583,DottedQuarter,A#4_A#3
597,Left,1,40,80,134.0,0.239583,Sixteenth,E2
600,Left,1,54,80,134.25,0.239583,Sixteenth,F#3
602,Right,0,71,80,134.5,0.239583,Sixteenth,B4
601,Left,1,52,80,134.5,0.239583,Sixteenth,E3
603,Right,0,70,80,134.625,0.239583,Sixteenth,A#4
604,Right,0,68,80,134.75,0.239583,Sixteenth,G#4
605,Left,1,54,80,134.75,0.239583,Sixteenth,F#3
606,Right,0,70,80,134.875,0.114583,ThirtySecond,A#4
607,Left,1,40,80,135.0,0.239583,Sixteenth,E2
608,Right,0,70,80,135.0,0.489583,Eighth,A#4
609,Left,1,54,80,135.25,0.239583,Sixteenth,F#3
611,Left,1,52,80,135.5,0.239583,Sixteenth,E3
610,Right,0,73,80,135.5,0.489583,Eighth,C#5_C#4
613,Left,1,54,80,135.75,0.239583,Sixteenth,F#3
616,Left,1,39,80,136.0,0.239583,Sixteenth,D#2
614,Right,0,73,80,136.0,0.989583,Quarter,C#5_C#4
617,Left,1,54,80,136.25,0.239583,Sixteenth,F#3
618,Left,1,51,80,136.5,0.239583,Sixteenth,D#3
619,Left,1,54,80,136.75,0.239583,Sixteenth,F#3
621,Left,1,39,80,137.0,0.239583,Sixteenth,D#2
620,Right,0,71,80,137.0,0.989583,Quarter,B4_B3
623,Left,1,54,80,137.25,0.239583,Sixteenth,F#3
624,Left,1,51,80,137.5,0.239583,Sixteenth,D#3
625,Left,1,54,80,137.75,0.239583,Sixteenth,F#3
626,Left,1,38,80,138.0,0.239583,Sixteenth,D2
627,Left,1,52,80,138.25,0.239583,Sixteenth,E3
628,Left,1,50,80,138.5,0.239583,Sixteenth,D3
629,Left,1,52,80,138.75,0.239583,Sixteenth,E3
630,Right,0,68,80,139.0,0.989583,Quarter,G#4_G#3
632,Left,1,38,80,139.0,0.239583,Sixteenth,D2
633,Left,1,52,80,139.25,0.239583,Sixteenth,E3
634,Left,1,50,80,139.5,0.239583,Sixteenth,D3
635,Left,1,52,80,139.75,0.239583,Sixteenth,E3
638,Left,1,37,80,140.0,0.239583,Sixteenth,C#2
636,Right,0,69,80,140.0,0.489583,Eighth,A4_A3
639,Left,1,52,80,140.25,0.239583,Sixteenth,E3
642,Left,1,49,80,140.5,0.239583,Sixteenth,C#3
640,Right,0,69,80,140.5,0.989583,Quarter,A4_A3
643,Left,1,52,80,140.75,0.239583,Sixteenth,E3
644,Left,1,37,80,141.0,0.239583,Sixteenth,C#2
645,Left,1,52,80,141.25,0.239583,Sixteenth,E3
647,Left,1,49,80,141.5,0.239583,Sixteenth,C#3
646,Right,0,64,80,141.5,0.989583,Quarter,E5_E4
649,Left,1,52,80,141.75,0.239583,Sixteenth,E3
650,Left,1,35,80,142.0,0.239583,Sixteenth,B1
651,Left,1,52,80,142.25,0.239583,Sixteenth,E3
653,Right,0,74,80,142.5,0.989583,Quarter,G#4_D5
652,Left,1,47,80,142.5,0.239583,Sixteenth,B2
655,Left,1,52,80,142.75,0.239583,Sixteenth,E3
656,Left,1,33,80,143.0,0.239583,Sixteenth,A1
657,Left,1,52,80,143.25,0.239583,Sixteenth,E3
659,Left,1,45,80,143.5,0.239583,Sixteenth,A2
658,Right,0,69,80,143.5,0.489583,Eighth,C#5_A4
661,Left,1,52,80,143.75,0.239583,Sixteenth,E3
662,Left,1,40,80,144.0,0.239583,Sixteenth,E2
663,Right,0,68,80,144.0,0.989583,Quarter,G#4_B4
665,Left,1,52,80,144.25,0.239583,Sixteenth,E3
666,Left,1,42,80,144.5,0.239583,Sixteenth,F#2
667,Left,1,52,80,144.75,0.239583,Sixteenth,E3
668,Left,1,44,80,145.0,0.239583,Sixteenth,G#2
669,Left,1,52,80,145.25,0.239583,Sixteenth,E3
670,Left,1,45,80,145.5,0.239583,Sixteenth,A2
671,Left,1,52,80,145.75,0.239583,Sixteenth,E3
672,Left,1,47,80,146.0,0.239583,Sixteenth,B2
673,Left,1,52,80,146.25,0.239583,Sixteenth,E3
674,Left,1,49,80,146.5,0.239583,Sixteenth,C#3
675,Left,1,52,80,146.75,0.239583,Sixteenth,E3
676,Left,1,50,80,147.0,0.239583,Sixteenth,D3
677,Left,1,52,80,147.25,0.239583,Sixteenth,E3
678,Left,1,47,80,147.5,0.239583,Sixteenth,B2
679,Right,0,68,80,147.5,0.489583,Eighth,G#5_G#4
681,Left,1,52,80,147.75,0.239583,Sixteenth,E3
683,Right,0,81,80,148.0,0.489583,Eighth,A5_A4
682,Left,1,49,80,148.0,0.239583,Sixteenth,C#3
685,Left,1,52,80,148.25,0.239583,Sixteenth,E3
686,Right,0,81,80,148.5,0.989583,Quarter,A5_A4
687,Left,1,45,80,148.5,0.239583,Sixteenth,A2
689,Left,1,52,80,148.75,0.239583,Sixteenth,E3
690,Left,1,37,80,149.0,0.239583,Sixteenth,C#2
691,Left,1,52,80,149.25,0.239583,Sixteenth,E3
692,Right,0,64,80,149.5,0.989583,Quarter,E5_E4
693,Left,1,49,80,149.5,0.239583,Sixteenth,C#3
695,Left,1,52,80,149.75,0.239583,Sixteenth,E3
696,Left,1,35,80,150.0,0.239583,Sixteenth,B1
697,Left,1,52,80,150.25,0.239583,Sixteenth,E3
698,Right,0,68,80,150.5,0.989583,Quarter,G#4_D5
700,Left,1,47,80,150.5,0.239583,Sixteenth,B2
701,Left,1,52,80,150.75,0.239583,Sixteenth,E3
702,Left,1,33,80,151.0,0.239583,Sixteenth,A1
703,Left,1,52,80,151.25,0.239583,Sixteenth,E3
704,Left,1,45,80,151.5,0.239583,Sixteenth,A2
705,Right,0,69,80,151.5,0.489583,Eighth,C#5_A4
707,Left,1,52,80,151.75,0.239583,Sixteenth,E3
709,Left,1,40,70,152.0,0.239583,Sixteenth,E2
708,Right,0,68,80,152.0,0.989583,Quarter,G#4_B4
711,Left,1,52,70,152.25,0.239583,Sixteenth,E3
712,Left,1,42,70,152.5,0.239583,Sixteenth,F#2
713,Left,1,52,70,152.75,0.239583,Sixteenth,E3
714,Left,1,44,70,153.0,0.239583,Sixteenth,G#2
715,Left,1,52,70,153.25,0.239583,Sixteenth,E3
716,Left,1,45,70,153.5,0.239583,Sixteenth,A2
717,Left,1,52,70,153.75,0.239583,Sixteenth,E3
718,Left,1,46,70,154.0,0.239583,Sixteenth,A#2
719,Left,1,52,70,154.25,0.239583,Sixteenth,E3
720,Left,1,47,70,154.5,0.239583,Sixteenth,B2
721,Left,1,52,70,154.75,0.239583,Sixteenth,E3
722,Left,1,48,70,155.0,0.239583,Sixteenth,C3
723,Left,1,52,70,155.25,0.239583,Sixteenth,E3
724,Left,1,49,70,155.5,0.239583,Sixteenth,C#3
725,Left,1,52,70,155.75,0.239583,Sixteenth,E3
726,Left,1,50,70,156.0,0.239583,Sixteenth,D3
727,Left,1,52,70,156.25,0.239583,Sixteenth,E3
728,Left,1,49,70,156.5,0.239583,Sixteenth,C#3
729,Left,1,52,70,156.75,0.239583,Sixteenth,E3
730,Left,1,47,70,157.0,0.239583,Sixteenth,B2
731,Left,1,52,70,157.25,0.239583,Sixteenth,E3
732,Left,1,45,70,157.5,0.239583,Sixteenth,A2
733,Left,1,52,70,157.75,0.239583,Sixteenth,E3
734,Left,1,44,70,158.0,0.239583,Sixteenth,G#2
735,Left,1,52,70,158.25,0.239583,Sixteenth,E3
736,Left,1,42,70,158.5,0.239583,Sixteenth,F#2
737,Left,1,52,70,158.75,0.239583,Sixteenth,E3
738,Left,1,44,70,159.0,0.239583,Sixteenth,G#2
739,Left,1,52,70,159.25,0.239583,Sixteenth,E3
740,Left,1,40,70,159.5,0.239583,Sixteenth,E2
741,Left,1,52,70,159.75,0.239583,Sixteenth,E3
742,Left,1,33,80,160.0,0.322917,Triplet,A1
743,Left,1,37,80,160.166667,0.322917,Triplet,C#2
744,Left,1,40,80,160.333333,0.322917,Triplet,E2
745,Left,1,45,80,160.5,0.322917,Triplet,A2
746,Left,1,49,80,160.666667,0.322917,Triplet,C#3
747,Left,1,52,80,160.833333,0.322917,Triplet,E3
748,Left,1,57,80,161.0,0.239583,Sixteenth,A3
749,Right,0,61,80,161.125,0.239583,Sixteenth,C#4
750,Right,0,64,80,161.25,0.239583,Sixteenth,E4
751,Right,0,69,80,161.375,0.239583,Sixteenth,A4
752,Right,0,73,80,161.5,0.239583,Sixteenth,C#5
753,Right,0,76,80,161.625,0.239583,Sixteenth,E5
754,Right,0,81,80,161.75,0.239583,Sixteenth,A5
755,Right,0,85,80,161.875,0.114583,ThirtySecond,C#6
756,Left,1,57,80,162.0,0.489583,Eighth,A3
757,Right,0,88,80,162.0,0.989583,Quarter,E6
758,Left,1,64,80,162.5,0.489583,Eighth,E4
759,Left,1,61,80,163.0,0.489583,Eighth,C#4
760,Right,0,88,80,163.0,0.989583,Quarter,E6
761,Left,1,64,80,163.5,0.489583,Eighth,E4
762,Right,0,88,80,164.0,0.489583,Eighth,E6
763,Left,1,59,80,164.0,0.489583,Eighth,B3
765,Right,0,68,80,164.5,0.239583,Sixteenth,G#4
764,Left,1,64,80,164.5,0.489583,Eighth,E4
767,Left,1,62,80,165.0,0.489583,Eighth,D4
766,Right,0,68,80,165.0,1.989583,Half,G#4
768,Left,1,64,80,165.5,0.489583,Eighth,E4
769,Left,1,59,80,166.0,0.489583,Eighth,B3
770,Left,1,64,80,166.5,0.489583,Eighth,E4
771,Left,1,62,80,167.0,0.489583,Eighth,D4
772,Right,0,68,80,167.0,0.989583,Quarter,G#4
773,Left,1,64,80,167.5,0.489583,Eighth,E4
775,Right,0,69,80,168.0,0.739583,DottedEighth,A4
774,Left,1,61,80,168.0,0.489583,Eighth,C#4
776,Left,1,57,80,168.5,0.489583,Eighth,A3
777,Right,0,64,80,168.75,0.239583,Sixteenth,E4
779,Right,0,71,80,169.0,0.739583,DottedEighth,B4
778,Left,1,56,80,169.0,0.489583,Eighth,G#3
780,Left,1,52,80,169.5,0.489583,Eighth,E3
781,Right,0,64,80,169.75,0.239583,Sixteenth,E4
782,Right,0,73,80,170.0,0.739583,DottedEighth,C#5
783,Left,1,57,80,170.0,0.489583,Eighth,A3
784,Left,1,64,80,170.5,0.489583,Eighth,E4
785,Right,0,69,80,170.75,0.239583,Sixteenth,A4
786,Left,1,54,80,171.0,0.489583,Eighth,F#3
787,Right,0,74,80,171.0,0.739583,DottedEighth,D5
788,Left,1,57,80,171.5,0.489583,Eighth,A3
789,Right,0,69,80,171.75,0.239583,Sixteenth,A4
790,Left,1,52,80,172.0,0.489583,Eighth,E3
791,Right,0,73,92,172.0,0.114583,ThirtySecond,C#5
792,Right,0,76,103,172.125,1.364583,TiedQuarter-Sixteenth,E5
793,Left,1,61,80,172.5,0.489583,Eighth,C#4
794,Left,1,57,80,173.0,0.489583,Eighth,A3
795,Left,1,61,80,173.5,0.489583,Eighth,C#4
796,Right,0,74,80,173.5,0.239583,Sixteenth,D5
797,Right,0,73,80,173.75,0.239583,Sixteenth,C#5
799,Right,0,71,80,174.0,0.989583,Quarter,B4
798,Left,1,52,80,174.0,0.489583,Eighth,E3
800,Left,1,56,80,174.5,0.489583,Eighth,G#3
801,Left,1,50,80,175.0,0.489583,Eighth,D3
802,Left,1,56,80,175.5,0.489583,Eighth,G#3
803,Left,1,49,80,176.0,0.489583,Eighth,C#3
805,Left,1,57,80,176.5,0.489583,Eighth,A3
804,Right,0,57,80,176.5,0.239583,Sixteenth,A3
806,Right,0,61,80,176.75,0.239583,Sixteenth,C#4
807,Left,1,52,80,177.0,0.489583,Eighth,E3
808,Right,0,64,80,177.0,0.322917,Triplet,E4
809,Right,0,69,80,177.166667,0.322917,Triplet,A4
810,Right,0,73,80,177.333333,0.322917,Triplet,C#5
812,Right,0,76,80,177.5,0.322917,Triplet,E5
811,Left,1,57,80,177.5,0.489583,Eighth,A3
813,Right,0,81,80,177.666667,0.322917,Triplet,A5
814,Right,0,85,80,177.833333,0.15625,TripletSixteenth,C#6
815,Right,0,88,80,178.0,0.989583,Quarter,E6
816,Left,1,47,80,178.0,0.489583,Eighth,B2
817,Left,1,56,80,178.5,0.489583,Eighth,G#3
818,Left,1,52,80,179.0,0.489583,Eighth,E3
819,Right,0,88,80,179.0,0.989583,Quarter,E6
820,Left,1,54,80,179.5,0.489583,Eighth,F#3
821,Right,0,88,80,180.0,0.489583,Eighth,E6
822,Left,1,46,80,180.0,0.489583,Eighth,A#2
823,Right,0,66,80,180.5,0.239583,Sixteenth,F#4
824,Left,1,54,80,180.5,0.489583,Eighth,F#3
825,Right,0,66,80,181.0,1.989583,Half,F#4
826,Left,1,52,80,181.0,0.489583,Eighth,E3
827,Left,1,54,80,181.5,0.489583,Eighth,F#3
828,Left,1,49,80,182.0,0.489583,Eighth,C#3
829,Left,1,58,80,182.5,0.489583,Eighth,A#3
831,Left,1,52,80,183.0,0.489583,Eighth,E3
830,Right,0,66,80,183.0,0.989583,Quarter,F#4
832,Left,1,58,80,183.5,0.489583,Eighth,A#3
833,Left,1,52,80,184.0,2.989583,Eighth,E3_B2
834,Right,0,68,80,184.0,0.489583,Eighth,G#4
837,Right,0,69,80,184.5,0.239583,Sixteenth,A4
836,Left,1,59,80,184.5,0.489583,Eighth,B3
838,Right,0,68,80,184.75,0.239583,Sixteenth,G#4
840,Left,1,56,80,185.0,0.489583,Eighth,G#3
839,Right,0,66,80,185.0,0.489583,Eighth,F#4
842,Left,1,59,80,185.5,0.489583,Eighth,B3
841,Right,0,68,80,185.5,0.489583,Eighth,G#4
844,Left,1,54,80,186.0,0.489583,Eighth,F#3
843,Right,0,71,80,186.0,0.489583,Eighth,B4
846,Left,1,59,80,186.5,0.489583,Eighth,B3
845,Right,0,69,80,186.5,0.489583,Eighth,A4
848,Left,1,57,80,187.0,0.989583,Eighth,B2_A3
847,Right,0,66,80,187.0,0.489583,Eighth,F#4
850,Right,0,63,80,187.5,0.489583,Eighth,D#4
851,Left,1,59,80,187.5,0.489583,Eighth,B3
852,Right,0,63,80,188.0,1.989583,Half,F#4_D#4
853,Left,1,52,80,188.0,2.989583,DottedHalf,E3
855,Left,1,57,80,188.5,0.489583,Eighth,A3
856,Left,1,59,80,189.0,0.489583,Eighth,B3
857,Left,1,57,80,189.5,0.489583,Eighth,A3
858,Right,0,64,80,190.0,0.489583,Eighth,E4
859,Left,1,56,80,190.0,0.989583,Quarter,G#3
860,Right,0,76,80,190.5,0.489583,Eighth,E5
861,Right,0,71,80,191.0,0.489583,Eighth,B4
862,Right,0,73,80,191.5,0.489583,Eighth,C#5
863,Left,1,52,104,192.0,6.489583,Unknown,E3
864,Right,0,74,80,192.0,1.989583,Half,D5
865,Right,0,71,80,192.5,0.489583,Eighth,B4
866,Right,0,66,80,193.0,0.489583,Eighth,F#4
867,Right,0,68,80,193.5,0.489583,Eighth,G#4
868,Right,0,69,80,194.0,1.989583,Half,C#5_A4
870,Left,1,57,80,194.5,0.489583,Eighth,A3
871,Left,1,61,80,195.0,0.489583,Eighth,C#4
872,Left,1,63,80,195.5,0.489583,Eighth,D#4
873,Right,0,64,80,196.0,2.989583,DottedHalf,G#4_E4_B4
876,Right,0,63,80,196.5,0.489583,Eighth,D#4
877,Right,0,64,80,197.0,0.489583,Eighth,E4
878,Right,0,66,80,197.5,0.489583,Eighth,F#4
879,Right,0,64,80,198.0,0.989583,Quarter,E4
880,Left,1,52,80,198.5,0.489583,Eighth,E3
881,Left,1,47,80,199.0,0.489583,Eighth,B2
882,Left,1,49,80,199.5,0.489583,Eighth,C#3
883,Left,1,40,104,200.0,4.489583,Whole,E2_D3
884,Right,0,59,101,200.0,1.989583,Half,B3
886,Right,0,71,80,200.5,0.489583,Eighth,B4
887,Right,0,66,80,201.0,0.489583,Eighth,F#4
888,Right,0,68,80,201.5,0.489583,Eighth,G#4
890,Left,1,49,80,202.0,0.989583,Quarter,C#3
889,Right,0,69,80,202.0,1.989583,Half,A4
891,Right,0,57,80,202.5,0.489583,Eighth,A3
893,Left,1,54,80,203.0,0.989583,Quarter,F#3
892,Right,0,61,80,203.0,0.489583,Eighth,C#4
894,Right,0,63,80,203.5,0.489583,Eighth,D#4
896,Left,1,52,80,204.0,0.989583,Quarter,E3
895,Right,0,59,80,204.0,0.989583,Quarter,G#4_E4_B3
899,Left,1,39,70,204.5,0.489583,Eighth,D#2
900,Left,1,40,70,205.0,0.489583,Eighth,E2
901,Left,1,42,70,205.5,0.489583,Eighth,F#2
902,Left,1,40,70,206.0,0.489583,Eighth,E2
903,Left,1,38,70,206.5,0.489583,Eighth,D2
904,Left,1,37,70,207.0,0.489583,Eighth,C#2
905,Left,1,35,70,207.5,0.489583,Eighth,B1
907,Right,0,45,80,208.0,0.322917,Triplet,A2
906,Left,1,33,80,208.0,0.489583,Eighth,A1
908,Right,0,49,80,208.166667,0.322917,Triplet,C#3
909,Right,0,52,80,208.333333,0.322917,Triplet,E3
911,Left,1,52,80,208.5,0.489583,Eighth,E3
910,Right,0,57,80,208.5,0.489583,Eighth,A3
912,Right,0,61,80,208.75,0.489583,Eighth,C#4
913,Left,1,49,81,209.0,0.489583,Eighth,C#3
914,Right,0,64,81,209.0,0.322917,Triplet,E4
915,Right,0,69,81,209.166667,0.322917,Triplet,A4
916,Right,0,73,81,209.333333,0.322917,Triplet,C#5
918,Left,1,52,81,209.5,0.489583,Eighth,E3
917,Right,0,76,81,209.5,0.322917,Triplet,E5
919,Right,0,81,82,209.666667,0.322917,Triplet,A5
920,Right,0,85,82,209.833333,0.15625,TripletSixteenth,C#6
922,Right,0,88,82,210.0,0.989583,Quarter,E6
921,Left,1,45,82,210.0,0.489583,Eighth,A2
923,Left,1,52,83,210.5,0.489583,Eighth,E3
924,Right,0,88,83,211.0,0.989583,Quarter,E6
925,Left,1,49,83,211.0,0.489583,Eighth,C#3
926,Left,1,52,84,211.5,0.489583,Eighth,E3
927,Right,0,88,85,212.0,0.489583,Eighth,E6
928,Left,1,47,85,212.0,0.489583,Eighth,B2
929,Right,0,68,85,212.5,0.239583,Sixteenth,G#4
930,Left,1,52,85,212.5,0.489583,Eighth,E3
931,Right,0,68,86,213.0,1.989583,Half,G#4
932,Left,1,50,86,213.0,0.489583,Eighth,D3
933,Left,1,52,87,213.5,0.489583,Eighth,E3
934,Left,1,47,87,214.0,0.489583,Eighth,B2
935,Left,1,52,88,214.5,0.489583,Eighth,E3
936,Left,1,49,88,215.0,0.489583,Eighth,C#3
937,Right,0,69,88,215.0,0.989583,Quarter,A4
938,Left,1,57,89,215.5,0.489583,Eighth,A3
940,Right,0,71,90,216.0,0.239583,Sixteenth,B4
939,Left,1,50,90,216.0,0.489583,Eighth,D3
941,Right,0,73,90,216.25,0.15625,TripletSixteenth,C#5
942,Right,0,71,90,216.333333,0.15625,TripletSixteenth,B4
943,Right,0,70,90,216.416667,0.15625,TripletSixteenth,A#4
945,Left,1,59,90,216.5,0.489583,Eighth,B3
944,Right,0,71,90,216.5,0.239583,Sixteenth,B4
946,Right,0,73,91,216.75,0.239583,Sixteenth,C#5
947,Left,1,54,91,217.0,0.489583,Eighth,F#3
948,Right,0,74,91,217.0,0.322917,Triplet,D5
949,Right,0,76,91,217.333333,0.322917,Triplet,E5
950,Left,1,59,92,217.5,0.489583,Eighth,B3
951,Right,0,78,92,217.666667,0.322917,Triplet,F#5
952,Right,0,69,92,218.0,0.989583,Quarter,A4
953,Left,1,52,92,218.0,0.489583,Eighth,E3
954,Left,1,61,93,218.5,0.489583,Eighth,C#4
957,Left,1,52,94,219.0,0.489583,Eighth,E3
955,Right,0,68,94,219.0,0.989583,Quarter,G#4_C#5
959,Right,0,71,94,219.5,0.489583,Eighth,B4
958,Left,1,62,94,219.5,0.489583,Eighth,D4
960,Right,0,71,95,220.0,1.989583,Half,G#4_B4
961,Left,1,57,95,220.0,2.989583,DottedHalf,A3
963,Left,1,62,95,220.5,0.489583,Eighth,D4
964,Left,1,64,96,221.0,0.489583,Eighth,E4
965,Left,1,62,97,221.5,0.489583,Eighth,D4
966,Right,0,69,97,222.0,0.322917,Triplet,A4
967,Right,0,64,98,222.333333,0.322917,Triplet,E4
968,Right,0,65,98,222.666667,0.322917,Triplet,F4
969,Right,0,66,99,223.0,0.322917,Triplet,F#4
970,Right,0,67,99,223.333333,0.322917,Triplet,G4
971,Right,0,68,99,223.666667,0.322917,Triplet,G#4
972,Left,1,52,120,224.0,0.989583,Quarter,E3_C3_A3_A2
976,Right,0,69,120,224.333333,0.322917,Triplet,A4
977,Right,0,70,120,224.666667,0.322917,Triplet,A#4
978,Right,0,71,120,225.0,0.322917,Triplet,B4
979,Left,1,60,120,225.0,0.989583,Quarter,E4_C4_A3
982,Right,0,72,120,225.333333,0.322917,Triplet,C5
983,Right,0,73,120,225.666667,0.322917,Triplet,C#5
984,Right,0,74,120,226.0,0.322917,Triplet,D5
985,Right,0,75,120,226.333333,0.322917,Triplet,D#5
986,Right,0,76,120,226.666667,0.322917,Triplet,E5
987,Left,1,57,120,227.0,0.739583,DottedEighth,E4_C4_A3
989,Right,0,77,120,227.0,0.322917,Triplet,F5
991,Right,0,76,120,227.333333,0.322917,Triplet,E5
992,Right,0,69,120,227.666667,0.322917,Triplet,A4
993,Left,1,64,120,227.75,0.239583,Sixteenth,E4_C4_A3
996,Left,1,62,120,228.0,0.989583,Quarter,E4_D4_B3
999,Right,0,68,120,228.333333,0.322917,Triplet,G#4
1000,Right,0,69,120,228.666667,0.322917,Triplet,A4
1001,Right,0,70,120,229.0,0.322917,Triplet,A#4
1002,Left,1,59,120,229.0,0.989583,Quarter,E4_D4_B3
1005,Right,0,71,120,229.333333,0.322917,Triplet,B4
1006,Right,0,72,120,229.666667,0.322917,Triplet,C5
1007,Right,0,73,120,230.0,0.322917,Triplet,C#5
1008,Right,0,74,120,230.333333,0.322917,Triplet,D5
1009,Right,0,75,120,230.666667,0.322917,Triplet,D#5
1010,Left,1,62,120,231.0,0.739583,DottedEighth,E4_D4_B3
1012,Right,0,76,120,231.0,0.322917,Triplet,E5
1014,Right,0,74,120,231.333333,0.322917,Triplet,D5
1015,Right,0,68,120,231.666667,0.322917,Triplet,G#4
1016,Left,1,59,120,231.75,0.239583,Sixteenth,E4_D4_B3
1019,Left,1,64,120,232.0,0.989583,Quarter,E4_C4
1021,Right,0,69,120,232.333333,0.322917,Triplet,A4
1022,Right,0,71,120,232.666667,0.322917,Triplet,B4
1023,Right,0,72,120,233.0,0.322917,Triplet,C5
1024,Right,0,73,120,233.333333,0.322917,Triplet,C#5
1025,Right,0,74,120,233.666667,0.322917,Triplet,D5
1026,Right,0,75,120,234.0,0.322917,Triplet,D#5
1027,Right,0,76,120,234.333333,0.322917,Triplet,E5
1028,Right,0,77,120,234.666667,0.322917,Triplet,F5
1029,Right,0,78,120,235.0,0.322917,Triplet,F#5
1030,Right,0,79,120,235.333333,0.322917,Triplet,G5
1031,Right,0,80,120,235.666667,0.322917,Triplet,G#5
1032,Right,0,81,120,236.0,0.322917,Triplet,A5
1033,Right,0,76,120,236.333333,0.322917,Triplet,E5
1034,Right,0,77,120,236.666667,0.322917,Triplet,F5
1038,Right,0,74,127,237.0,0.322917,Triplet,D5
1035,Left,1,59,120,237.0,0.989583,Quarter,F3_D3_B3
1039,Right,0,77,120,237.333333,0.322917,Triplet,F5
1040,Right,0,71,120,237.666667,0.322917,Triplet,B4
1041,Left,1,57,120,238.0,0.989583,Quarter,E3_C4_A3
1044,Right,0,72,127,238.0,0.322917,Triplet,C5
1045,Right,0,76,120,238.333333,0.322917,Triplet,E5
1046,Right,0,69,120,238.666667,0.322917,Triplet,A4
1048,Left,1,62,120,239.0,0.989583,Quarter,E3_D4_B3
1047,Right,0,71,127,239.0,0.322917,Triplet,B4
1051,Right,0,74,120,239.333333,0.322917,Triplet,D5
1052,Right,0,68,120,239.666667,0.322917,Triplet,G#4
1053,Right,0,60,120,240.0,0.989583,Quarter,E4_C4_A4
1056,Left,1,45,120,240.333333,0.322917,Triplet,A2
1057,Left,1,46,120,240.666667,0.322917,Triplet,A#2
1058,Left,1,47,120,241.0,0.322917,Triplet,B2
1059,Right,0,69,120,241.0,0.989583,Quarter,E4_C4_A4
1062,Left,1,48,120,241.333333,0.322917,Triplet,C3
1063,Left,1,49,120,241.666667,0.322917,Triplet,C#3
1064,Left,1,50,120,242.0,0.322917,Triplet,D3
1065,Left,1,51,120,242.333333,0.322917,Triplet,D#3
1066,Left,1,52,120,242.666667,0.322917,Triplet,E3
1070,Left,1,53,120,243.0,0.322917,Triplet,F3
1067,Right,0,69,120,243.0,0.739583,DottedEighth,E4_C4_A4
1071,Left,1,52,120,243.333333,0.322917,Triplet,E3
1072,Left,1,45,120,243.666667,0.322917,Triplet,A2
1073,Right,0,69,120,243.75,0.239583,Sixteenth,E4_C4_A4
1076,Right,0,77,120,244.0,0.989583,Quarter,F5_F4_D5_A4
1080,Left,1,38,120,244.333333,0.322917,Triplet,D2
1081,Left,1,40,120,244.666667,0.322917,Triplet,E2
1083,Right,0,77,120,245.0,0.989583,Quarter,F5_F4_D5_A4
1082,Left,1,41,120,245.0,0.322917,Triplet,F2
1087,Left,1,42,120,245.333333,0.322917,Triplet,F#2
1088,Left,1,43,120,245.666667,0.322917,Triplet,G2
1089,Left,1,44,120,246.0,0.322917,Triplet,G#2
1090,Left,1,45,120,246.333333,0.322917,Triplet,A2
1091,Left,1,46,120,246.666667,0.322917,Triplet,A#2
1092,Right,0,77,120,247.0,0.739583,DottedEighth,F5_F4_D5_A4
1093,Left,1,47,120,247.0,0.322917,Triplet,B2
1097,Left,1,45,120,247.333333,0.322917,Triplet,A2
1098,Left,1,38,120,247.666667,0.322917,Triplet,D2
1099,Right,0,69,120,247.75,0.239583,Sixteenth,F5_F4_D5_A4
1103,Right,0,74,120,248.0,0.989583,Quarter,G4_F5_F4_D5_B4
1108,Left,1,31,120,248.333333,0.322917,Triplet,G1
1109,Left,1,33,120,248.666667,0.322917,Triplet,A1
1115,Left,1,35,120,249.0,0.322917,Triplet,B1
1110,Right,0,77,120,249.0,0.989583,Quarter,G4_F5_F4_D5_B4
1116,Left,1,36,120,249.333333,0.322917,Triplet,C2
1117,Left,1,38,120,249.666667,0.322917,Triplet,D2
1118,Left,1,40,120,250.0,0.322917,Triplet,E2
1119,Left,1,41,120,250.333333,0.322917,Triplet,F2
1120,Left,1,43,120,250.666667,0.322917,Triplet,G2
1121,Left,1,45,120,251.0,0.322917,Triplet,A2
1122,Right,0,65,120,251.0,0.739583,DottedEighth,G4_F5_F4_D5_B4
1127,Left,1,47,120,251.333333,0.322917,Triplet,B2
1128,Left,1,48,120,251.666667,0.322917,Triplet,C3
1129,Right,0,77,120,251.75,0.239583,Sixteenth,G4_F5_F4_D5_B4
1134,Left,1,50,120,252.0,0.322917,Triplet,D3
1135,Right,0,77,120,252.0,0.989583,Quarter,G4_F5_F4_D5_B4
1140,Left,1,52,120,252.333333,0.322917,Triplet,E3
1141,Left,1,53,120,252.666667,0.322917,Triplet,F3
1142,Right,0,65,120,253.0,0.739583,DottedEighth,G4_F5_F4_D5_B4
1147,Left,1,55,120,253.0,0.322917,Triplet,G3
1148,Left,1,57,120,253.333333,0.322917,Triplet,A3
1149,Left,1,59,120,253.666667,0.322917,Triplet,B3
1150,Right,0,65,120,253.75,0.239583,Sixteenth,G4_F5_F4_D5_B4
1155,Left,1,60,120,254.0,0.322917,Triplet,C4
1156,Right,0,67,120,254.0,0.989583,Quarter,G4_E5_E4_C5
1160,Left,1,59,120,254.333333,0.322917,Triplet,B3
1161,Left,1,57,120,254.666667,0.322917,Triplet,A3
1162,Right,0,76,120,255.0,0.739583,DottedEighth,G4_E5_E4_C5
1165,Left,1,55,120,255.0,0.322917,Triplet,G3
1167,Left,1,53,120,255.333333,0.322917,Triplet,F3
1168,Left,1,52,120,255.666667,0.322917,Triplet,E3
1169,Right,0,72,120,255.75,0.239583,Sixteenth,G4_E5_E4_C5
1174,Right,0,74,120,256.0,0.989583,Quarter,F4_D5_D4_A4
1173,Left,1,53,120,256.0,0.322917,Triplet,F3
1178,Left,1,55,120,256.333333,0.322917,Triplet,G3
1179,Left,1,57,120,256.666667,0.322917,Triplet,A3
1184,Left,1,54,120,257.0,0.322917,Triplet,F#3
1180,Right,0,66,120,257.0,0.739583,DottedEighth,F#4_D#4_C5_C4_A4
1186,Left,1,55,120,257.333333,0.322917,Triplet,G3
1187,Left,1,57,120,257.666667,0.322917,Triplet,A3
1188,Right,0,66,120,257.75,0.239583,Sixteenth,F#4_D#4_C5_C4_A4
1193,Right,0,64,120,258.0,0.989583,Quarter,G4_E4_C5_C4
1196,Left,1,43,120,258.0,0.322917,Triplet,G2
1198,Left,1,48,120,258.333333,0.322917,Triplet,C3
1199,Left,1,52,120,258.666667,0.322917,Triplet,E3
1201,Right,0,59,120,259.0,0.989583,Quarter,G4_F4_D4_B4_B3
1200,Left,1,55,120,259.0,0.322917,Triplet,G3
1206,Left,1,53,120,259.333333,0.322917,Triplet,F3
1207,Left,1,50,120,259.666667,0.322917,Triplet,D3
1208,Left,1,48,120,260.0,0.322917,Triplet,C3
1209,Right,0,60,120,260.0,0.989583,Quarter,G4_E4_C5_C4
1213,Left,1,55,120,260.333333,0.322917,Triplet,G3
1214,Left,1,52,120,260.666667,0.322917,Triplet,E3
1215,Left,1,48,120,261.0,0.322917,Triplet,C3
1216,Left,1,43,120,261.333333,0.322917,Triplet,G2
1217,Left,1,40,120,261.666667,0.322917,Triplet,E2
1218,Left,1,36,120,262.0,0.989583,Quarter,C2
1219,Right,0,64,120,262.333333,0.322917,Triplet,E4
1220,Right,0,65,120,262.666667,0.322917,Triplet,F4
1221,Right,0,66,120,263.0,0.322917,Triplet,F#4
1222,Right,0,67,120,263.333333,0.322917,Triplet,G4
1223,Right,0,68,120,263.666667,0.322917,Triplet,G#4
1224,Left,1,48,120,264.0,0.989583,Quarter,E3_C3_A3_A2
1228,Right,0,69,120,264.333333,0.322917,Triplet,A4
1229,Right,0,70,120,264.666667,0.322917,Triplet,A#4
1231,Left,1,64,120,265.0,0.989583,Quarter,E4_C4_A3
1230,Right,0,71,120,265.0,0.322917,Triplet,B4
1234,Right,0,72,120,265.333333,0.322917,Triplet,C5
1235,Right,0,73,120,265.666667,0.322917,Triplet,C#5
1236,Right,0,74,120,266.0,0.322917,Triplet,D5
1237,Right,0,75,120,266.333333,0.322917,Triplet,D#5
1238,Right,0,76,120,266.666667,0.322917,Triplet,E5
1239,Left,1,57,120,267.0,0.739583,DottedEighth,E4_C4_A3
1242,Right,0,77,120,267.0,0.322917,Triplet,F5
1243,Right,0,76,120,267.333333,0.322917,Triplet,E5
1244,Right,0,69,120,267.666667,0.322917,Triplet,A4
1245,Left,1,64,120,267.75,0.239583,Sixteenth,E4_C4_A3
1248,Left,1,62,120,268.0,0.989583,Quarter,E4_D4_B3
1251,Right,0,68,120,268.333333,0.322917,Triplet,G#4
1252,Right,0,69,120,268.666667,0.322917,Triplet,A4
1254,Left,1,59,120,269.0,0.989583,Quarter,E4_D4_B3
1253,Right,0,70,120,269.0,0.322917,Triplet,A#4
1257,Right,0,71,120,269.333333,0.322917,Triplet,B4
1258,Right,0,72,120,269.666667,0.322917,Triplet,C5
1259,Right,0,73,120,270.0,0.322917,Triplet,C#5
1260,Right,0,74,120,270.333333,0.322917,Triplet,D5
1261,Right,0,75,120,270.666667,0.322917,Triplet,D#5
1264,Right,0,76,120,271.0,0.322917,Triplet,E5
1262,Left,1,59,120,271.0,0.739583,DottedEighth,E4_D4_B3
1266,Right,0,74,120,271.333333,0.322917,Triplet,D5
1267,Right,0,68,120,271.666667,0.322917,Triplet,G#4
1268,Left,1,59,120,271.75,0.239583,Sixteenth,E4_D4_B3
1271,Left,1,64,120,272.0,0.989583,Quarter,E4_C4
1273,Right,0,69,120,272.333333,0.322917,Triplet,A4
1274,Right,0,71,120,272.666667,0.322917,Triplet,B4
1275,Right,0,72,120,273.0,0.322917,Triplet,C5
1276,Right,0,73,120,273.333333,0.322917,Triplet,C#5
1277,Right,0,74,120,273.666667,0.322917,Triplet,D5
1278,Right,0,75,120,274.0,0.322917,Triplet,D#5
1279,Right,0,76,120,274.333333,0.322917,Triplet,E5
1280,Right,0,77,120,274.666667,0.322917,Triplet,F5
1281,Right,0,78,120,275.0,0.322917,Triplet,F#5
1282,Right,0,79,120,275.333333,0.322917,Triplet,G5
1283,Right,0,80,120,275.666667,0.322917,Triplet,G#5
1284,Right,0,81,120,276.0,0.322917,Triplet,A5
1285,Right,0,76,120,276.333333,0.322917,Triplet,E5
1286,Right,0,77,120,276.666667,0.322917,Triplet,F5
1287,Left,1,50,120,277.0,0.989583,Quarter,F3_D3_B3
1289,Right,0,74,120,277.0,0.322917,Triplet,D5
1291,Right,0,77,120,277.333333,0.322917,Triplet,F5
1292,Right,0,71,120,277.666667,0.322917,Triplet,B4
1293,Left,1,57,120,278.0,0.989583,Quarter,E3_C4_A3
1295,Right,0,72,120,278.0,0.322917,Triplet,C5
1297,Right,0,76,120,278.333333,0.322917,Triplet,E5
1298,Right,0,69,120,278.666667,0.322917,Triplet,A4
1299,Right,0,71,120,279.0,0.322917,Triplet,B4
1300,Left,1,52,120,279.0,0.989583,Quarter,E3_D4_B3
1303,Right,0,74,120,279.333333,0.322917,Triplet,D5
1304,Right,0,68,120,279.666667,0.322917,Triplet,G#4
1305,Right,0,60,120,280.0,0.989583,Quarter,E4_C4_A4
1308,Left,1,45,120,280.333333,0.322917,Triplet,A2
1309,Left,1,46,120,280.666667,0.322917,Triplet,A#2
1310,Right,0,69,120,281.0,0.989583,Quarter,E4_C4_A4
1311,Left,1,47,120,281.0,0.322917,Triplet,B2
1314,Left,1,48,120,281.333333,0.322917,Triplet,C3
1315,Left,1,49,120,281.666667,0.322917,Triplet,C#3
1316,Left,1,50,120,282.0,0.322917,Triplet,D3
1317,Left,1,51,120,282.333333,0.322917,Triplet,D#3
1318,Left,1,52,120,282.666667,0.322917,Triplet,E3
1320,Right,0,60,120,283.0,0.739583,DottedEighth,E4_C4_A4
1319,Left,1,53,120,283.0,0.322917,Triplet,F3
1323,Left,1,52,120,283.333333,0.322917,Triplet,E3
1324,Left,1,45,120,283.666667,0.322917,Triplet,A2
1325,Right,0,69,120,283.75,0.239583,Sixteenth,E4_C4_A4
1328,Right,0,77,120,284.0,0.989583,Quarter,F5_F4_D5_A4
1332,Left,1,38,120,284.333333,0.322917,Triplet,D2
1333,Left,1,40,120,284.666667,0.322917,Triplet,E2
1334,Left,1,41,120,285.0,0.322917,Triplet,F2
1335,Right,0,77,120,285.0,0.989583,Quarter,F5_F4_D5_A4
1339,Left,1,42,120,285.333333,0.322917,Triplet,F#2
1340,Left,1,43,120,285.666667,0.322917,Triplet,G2
1341,Left,1,44,120,286.0,0.322917,Triplet,G#2
1342,Left,1,45,120,286.333333,0.322917,Triplet,A2
1343,Left,1,46,120,286.666667,0.322917,Triplet,A#2
1344,Right,0,77,120,287.0,0.739583,DottedEighth,F5_F4_D5_A4
1345,Left,1,47,120,287.0,0.322917,Triplet,B2
1349,Left,1,45,120,287.333333,0.322917,Triplet,A2
1350,Left,1,38,120,287.666667,0.322917,Triplet,D2
1351,Right,0,77,120,287.75,0.239583,Sixteenth,F5_F4_D5_A4
1355,Right,0,67,120,288.0,0.989583,Quarter,G4_F5_F4_D5_B4
1360,Left,1,31,120,288.333333,0.322917,Triplet,G1
1361,Left,1,33,120,288.666667,0.322917,Triplet,A1
1362,Right,0,74,120,289.0,0.989583,Quarter,G4_F5_F4_D5_B4
1367,Left,1,35,120,289.0,0.322917,Triplet,B1
1368,Left,1,36,120,289.333333,0.322917,Triplet,C2
1369,Left,1,38,120,289.666667,0.322917,Triplet,D2
1370,Left,1,40,120,290.0,0.322917,Triplet,E2
1371,Left,1,41,120,290.333333,0.322917,Triplet,F2
1372,Left,1,43,120,290.666667,0.322917,Triplet,G2
1373,Left,1,45,120,291.0,0.322917,Triplet,A2
1374,Right,0,65,120,291.0,0.739583,DottedEighth,G4_F5_F4_D5_B4
1379,Left,1,47,120,291.333333,0.322917,Triplet,B2
1380,Left,1,48,120,291.666667,0.322917,Triplet,C3
1381,Right,0,71,120,291.75,0.239583,Sixteenth,G4_F5_F4_D5_B4
1386,Right,0,74,120,292.0,0.989583,Quarter,G4_F5_F4_D5_B4
1391,Left,1,50,120,292.0,0.322917,Triplet,D3
1392,Left,1,52,120,292.333333,0.322917,Triplet,E3
1393,Left,1,53,120,292.666667,0.322917,Triplet,F3
1394,Right,0,65,120,293.0,0.739583,DottedEighth,G4_F5_F4_D5_B4
1395,Left,1,55,120,293.0,0.322917,Triplet,G3
1400,Left,1,57,120,293.333333,0.322917,Triplet,A3
1401,Left,1,59,120,293.666667,0.322917,Triplet,B3
1402,Right,0,65,120,293.75,0.239583,Sixteenth,G4_F5_F4_D5_B4
1408,Right,0,72,120,294.0,0.989583,Quarter,G4_E5_E4_C5
1407,Left,1,60,120,294.0,0.322917,Triplet,C4
1412,Left,1,59,120,294.333333,0.322917,Triplet,B3
1413,Left,1,57,120,294.666667,0.322917,Triplet,A3
1418,Left,1,55,120,295.0,0.322917,Triplet,G3
1414,Right,0,76,120,295.0,0.739583,DottedEighth,G4_E5_E4_C5
1419,Left,1,53,120,295.333333,0.322917,Triplet,F3
1420,Left,1,52,120,295.666667,0.322917,Triplet,E3
1421,Right,0,76,120,295.75,0.239583,Sixteenth,G4_E5_E4_C5
1425,Left,1,53,120,296.0,0.322917,Triplet,F3
1426,Right,0,74,120,296.0,0.989583,Quarter,F4_D5_D4_A4
1430,Left,1,55,120,296.333333,0.322917,Triplet,G3
1431,Left,1,57,120,296.666667,0.322917,Triplet,A3
1435,Left,1,54,120,297.0,0.322917,Triplet,F#3
1432,Right,0,69,120,297.0,0.739583,DottedEighth,F#4_D#4_C5_C4_A4
1438,Left,1,55,120,297.333333,0.322917,Triplet,G3
1439,Left,1,57,120,297.666667,0.322917,Triplet,A3
1440,Right,0,63,120,297.75,0.239583,Sixteenth,F#4_D#4_C5_C4_A4
1445,Left,1,43,120,298.0,0.322917,Triplet,G2
1446,Right,0,72,120,298.0,0.989583,Quarter,G4_E4_C5_C4
1450,Left,1,48,120,298.333333,0.322917,Triplet,C3
1451,Left,1,52,120,298.666667,0.322917,Triplet,E3
1452,Right,0,62,120,299.0,0.989583,Quarter,G4_F4_D4_B4_B3
1453,Left,1,55,120,299.0,0.322917,Triplet,G3
1458,Left,1,53,120,299.333333,0.322917,Triplet,F3
1459,Left,1,50,120,299.666667,0.322917,Triplet,D3
1464,Left,1,48,120,300.0,0.322917,Triplet,C3
1460,Right,0,72,120,300.0,0.989583,Quarter,G4_E4_C5_C4
1465,Left,1,55,120,300.333333,0.322917,Triplet,G3
1466,Left,1,52,120,300.666667,0.322917,Triplet,E3
1467,Left,1,48,120,301.0,0.322917,Triplet,C3
1468,Left,1,43,120,301.333333,0.322917,Triplet,G2
1469,Left,1,40,120,301.666667,0.322917,Triplet,E2
1470,Left,1,36,120,302.0,0.989583,Quarter,C2
1471,Right,0,55,120,302.333333,0.322917,Triplet,G3
1472,Right,0,56,120,302.666667,0.322917,Triplet,G#3
1473,Right,0,57,120,303.0,0.322917,Triplet,A3
1474,Right,0,58,120,303.333333,0.322917,Triplet,A#3
1475,Right,0,59,120,303.666667,0.322917,Triplet,B3
1476,Right,0,60,120,304.0,0.322917,Triplet,C4
1477,Left,1,48,120,304.0,0.989583,Quarter,G3_E3_C3
1480,Right,0,61,120,304.333333,0.322917,Triplet,C#4
1481,Right,0,62,120,304.666667,0.322917,Triplet,D4
1482,Right,0,63,120,305.0,0.322917,Triplet,D#4
1483,Right,0,64,120,305.333333,0.322917,Triplet,E4
1484,Right,0,65,120,305.666667,0.322917,Triplet,F4
1485,Right,0,66,120,306.0,0.322917,Triplet,F#4
1486,Right,0,67,120,306.333333,0.322917,Triplet,G4
1487,Right,0,68,120,306.666667,0.322917,Triplet,G#4
1488,Right,0,69,120,307.0,0.322917,Triplet,A4
1489,Right,0,70,120,307.333333,0.322917,Triplet,A#4
1490,Right,0,71,120,307.666667,0.322917,Triplet,B4
1491,Right,0,62,120,308.0,1.989583,Half,D4_C5
1493,Left,1,43,120,308.333333,0.322917,Triplet,G2
1494,Left,1,45,120,308.666667,0.322917,Triplet,A2
1496,Left,1,46,120,309.0,0.322917,Triplet,A#2
1495,Right,0,71,120,309.0,0.989583,Quarter,B4
1497,Left,1,47,120,309.333333,0.322917,Triplet,B2
1498,Left,1,48,120,309.666667,0.322917,Triplet,C3
1499,Left,1,49,120,310.0,0.322917,Triplet,C#3
1500,Left,1,50,120,310.333333,0.322917,Triplet,D3
1501,Left,1,51,120,310.666667,0.322917,Triplet,D#3
1502,Left,1,52,120,311.0,0.322917,Triplet,E3
1503,Left,1,53,120,311.333333,0.322917,Triplet,F3
1504,Left,1,54,120,311.666667,0.322917,Triplet,F#3
1505,Left,1,55,120,312.0,1.989583,Quarter,G3_D3
1507,Right,0,62,120,312.333333,0.322917,Triplet,D4
1508,Right,0,64,120,312.666667,0.322917,Triplet,E4
1510,Left,1,53,120,313.0,0.989583,Quarter,F3
1509,Right,0,65,120,313.0,0.322917,Triplet,F4
1511,Right,0,66,120,313.333333,0.322917,Triplet,F#4
1512,Right,0,67,120,313.666667,0.322917,Triplet,G4
1513,Right,0,68,120,314.0,0.322917,Triplet,G#4
1514,Right,0,69,120,314.333333,0.322917,Triplet,A4
1515,Right,0,70,120,314.666667,0.322917,Triplet,A#4
1516,Right,0,71,120,315.0,0.322917,Triplet,B4
1517,Right,0,72,120,315.333333,0.322917,Triplet,C5
1518,Right,0,73,120,315.666667,0.322917,Triplet,C#5
1519,Right,0,64,120,316.0,1.989583,Half,E4_D5
1521,Left,1,45,120,316.333333,0.322917,Triplet,A2
1522,Left,1,47,120,316.666667,0.322917,Triplet,B2
1523,Right,0,72,120,317.0,0.989583,Quarter,C5
1524,Left,1,48,120,317.0,0.322917,Triplet,C3
1525,Left,1,49,120,317.333333,0.322917,Triplet,C#3
1526,Left,1,50,120,317.666667,0.322917,Triplet,D3
1527,Left,1,51,120,318.0,0.322917,Triplet,D#3
1528,Left,1,52,120,318.333333,0.322917,Triplet,E3
1529,Left,1,53,120,318.666667,0.322917,Triplet,F3
1530,Left,1,54,120,319.0,0.322917,Triplet,F#3
1531,Left,1,55,120,319.333333,0.322917,Triplet,G3
1532,Left,1,56,120,319.666667,0.322917,Triplet,G#3
1533,Left,1,57,120,320.0,1.989583,Quarter,E3_A3
1535,Right,0,64,120,320.333333,0.322917,Triplet,E4
1536,Right,0,66,120,320.666667,0.322917,Triplet,F#4
1537,Right,0,67,120,321.0,0.322917,Triplet,G4
1538,Left,1,55,120,321.0,0.989583,Quarter,G3
1539,Right,0,69,120,321.333333,0.322917,Triplet,A4
1540,Right,0,70,120,321.666667,0.322917,Triplet,A#4
1541,Right,0,71,120,322.0,0.322917,Triplet,B4
1542,Right,0,72,120,322.333333,0.322917,Triplet,C5
1543,Right,0,73,120,322.666667,0.322917,Triplet,C#5
1544,Right,0,74,120,323.0,0.322917,Triplet,D5
1545,Right,0,75,120,323.333333,0.322917,Triplet,D#5
1546,Right,0,76,120,323.666667,0.322917,Triplet,E5
1547,Left,1,51,120,324.0,2.989583,DottedHalf,F#3_D#3_B3_A3
1551,Right,0,77,120,324.0,0.322917,Triplet,F5
1552,Right,0,78,120,324.333333,0.322917,Triplet,F#5
1553,Right,0,79,120,324.666667,0.322917,Triplet,G5
1554,Right,0,80,120,325.0,0.322917,Triplet,G#5
1555,Right,0,81,120,325.333333,0.322917,Triplet,A5
1556,Right,0,82,120,325.666667,0.322917,Triplet,A#5
1557,Right,0,83,120,326.0,0.322917,Triplet,B5
1558,Right,0,71,120,326.333333,0.322917,Triplet,B4
1559,Right,0,84,120,326.666667,0.322917,Triplet,C6
1560,Right,0,81,120,327.0,0.322917,Triplet,A5
1561,Left,1,54,120,327.0,0.989583,Quarter,F#3_D#3_B3
1564,Right,0,71,120,327.333333,0.322917,Triplet,B4
1565,Right,0,83,120,327.666667,0.322917,Triplet,B5
1569,Right,0,79,120,328.0,0.322917,Triplet,G5
1566,Left,1,55,120,328.0,0.989583,Quarter,G3_E3_B3
1570,Right,0,71,120,328.333333,0.322917,Triplet,B4
1571,Right,0,81,120,328.666667,0.322917,Triplet,A5
1574,Right,0,78,120,329.0,0.322917,Triplet,F#5
1572,Left,1,60,120,329.0,0.989583,Quarter,C4_A3
1575,Right,0,69,120,329.333333,0.322917,Triplet,A4
1576,Right,0,79,120,329.666667,0.322917,Triplet,G5
1578,Left,1,59,120,330.0,0.989583,Quarter,B3
1577,Right,0,76,120,330.0,0.322917,Triplet,E5
1579,Right,0,67,120,330.333333,0.322917,Triplet,G4
1580,Right,0,78,120,330.666667,0.322917,Triplet,F#5
1582,Left,1,57,120,331.0,0.989583,Quarter,B2_A3
1581,Right,0,75,120,331.0,0.322917,Triplet,D#5
1584,Right,0,66,120,331.333333,0.322917,Triplet,F#4
1585,Right,0,78,120,331.666667,0.322917,Triplet,F#5
1586,Left,1,52,120,332.0,0.989583,Quarter,G#3_E3
1588,Right,0,76,120,332.0,0.322917,Triplet,E5
1589,Right,0,68,120,332.333333,0.322917,Triplet,G#4
1590,Right,0,77,120,332.666667,0.322917,Triplet,F5
1591,Right,0,74,120,333.0,0.322917,Triplet,D5
1592,Right,0,71,120,333.333333,0.322917,Triplet,B4
1593,Right,0,76,120,333.666667,0.322917,Triplet,E5
1594,Right,0,72,120,334.0,0.322917,Triplet,C5
1595,Right,0,69,120,334.333333,0.322917,Triplet,A4
1596,Right,0,74,120,334.666667,0.322917,Triplet,D5
1597,Right,0,71,120,335.0,0.322917,Triplet,B4
1598,Right,0,68,120,335.333333,0.322917,Triplet,G#4
1599,Right,0,72,120,335.666667,0.322917,Triplet,C5
1600,Left,1,45,120,336.0,0.989583,Quarter,E3_C3_A3_A2
1604,Right,0,69,120,336.333333,0.322917,Triplet,A4
1605,Right,0,70,120,336.666667,0.322917,Triplet,A#4
1608,Right,0,71,120,337.0,0.322917,Triplet,B4
1606,Left,1,60,120,337.0,0.989583,Quarter,E4_C4_A3
1610,Right,0,72,120,337.333333,0.322917,Triplet,C5
1611,Right,0,73,120,337.666667,0.322917,Triplet,C#5
1612,Right,0,74,120,338.0,0.322917,Triplet,D5
1613,Right,0,75,120,338.333333,0.322917,Triplet,D#5
1614,Right,0,76,120,338.666667,0.322917,Triplet,E5
1615,Right,0,77,120,339.0,0.322917,Triplet,F5
1616,Left,1,45,120,339.0,0.739583,DottedEighth,E3_C3_A3_A2
1620,Right,0,76,120,339.333333,0.322917,Triplet,E5
1621,Right,0,69,120,339.666667,0.322917,Triplet,A4
1622,Left,1,48,120,339.75,0.239583,Sixteenth,E3_C3_A3_A2
1626,Left,1,56,120,340.0,0.989583,Quarter,G#3_E3_D3_B2
1630,Right,0,68,120,340.333333,0.322917,Triplet,G#4
1631,Right,0,69,120,340.666667,0.322917,Triplet,A4
1632,Right,0,70,120,341.0,0.322917,Triplet,A#4
1633,Left,1,59,120,341.0,0.989583,Quarter,E4_D4_B3
1636,Right,0,71,120,341.333333,0.322917,Triplet,B4
1637,Right,0,72,120,341.666667,0.322917,Triplet,C5
1638,Right,0,73,120,342.0,0.322917,Triplet,C#5
1639,Right,0,74,120,342.333333,0.322917,Triplet,D5
1640,Right,0,75,120,342.666667,0.322917,Triplet,D#5
1641,Right,0,76,120,343.0,0.322917,Triplet,E5
1642,Left,1,56,120,343.0,0.739583,DottedEighth,G#3_E3_D3_B2
1646,Right,0,74,120,343.333333,0.322917,Triplet,D5
1647,Right,0,68,120,343.666667,0.322917,Triplet,G#4
1648,Left,1,52,120,343.75,0.239583,Sixteenth,G#3_E3_D3_B2
1652,Left,1,48,120,344.0,0.989583,Quarter,E3_C3_A3
1655,Right,0,69,120,344.333333,0.322917,Triplet,A4
1656,Right,0,71,120,344.666667,0.322917,Triplet,B4
1657,Left,1,64,120,345.0,0.989583,Quarter,E4_C4_A4
1659,Right,0,72,120,345.0,0.322917,Triplet,C5
1661,Right,0,74,120,345.333333,0.322917,Triplet,D5
1662,Right,0,75,120,345.666667,0.322917,Triplet,D#5
1663,Right,0,76,120,346.0,0.322917,Triplet,E5
1664,Right,0,77,120,346.333333,0.322917,Triplet,F5
1665,Right,0,78,120,346.666667,0.322917,Triplet,F#5
1666,Right,0,79,120,347.0,0.322917,Triplet,G5
1667,Right,0,80,120,347.333333,0.322917,Triplet,G#5
1668,Right,0,81,120,347.666667,0.322917,Triplet,A5
1669,Right,0,82,120,348.0,0.322917,Triplet,A#5
1670,Right,0,83,120,348.333333,0.322917,Triplet,B5
1671,Right,0,84,120,348.666667,0.322917,Triplet,C6
1673,Left,1,57,120,349.0,0.989583,Quarter,F3_A3
1672,Right,0,85,120,349.0,0.322917,Triplet,C#6
1675,Right,0,86,120,349.333333,0.322917,Triplet,D6
1676,Right,0,87,120,349.666667,0.322917,Triplet,D#6
1678,Left,1,57,120,350.0,0.989583,Quarter,E3_C4_A3
1677,Right,0,88,120,350.0,0.322917,Triplet,E6
1681,Right,0,84,120,350.333333,0.322917,Triplet,C6
1682,Right,0,81,120,350.666667,0.322917,Triplet,A5
1684,Left,1,52,120,351.0,0.989583,Quarter,E3_D4_B3
1683,Right,0,86,120,351.0,0.322917,Triplet,D6
1687,Right,0,83,120,351.333333,0.322917,Triplet,B5
1688,Right,0,80,120,351.666667,0.322917,Triplet,G#5
1689,Left,1,60,120,352.0,0.989583,Quarter,C4_A3
1690,Right,0,81,120,352.0,0.322917,Triplet,A5
1692,Right,0,77,120,352.333333,0.322917,Triplet,F5
1693,Right,0,76,120,352.666667,0.322917,Triplet,E5
1694,Right,0,74,120,353.0,0.322917,Triplet,D5
1695,Right,0,72,120,353.333333,0.322917,Triplet,C5
1696,Right,0,71,120,353.666667,0.322917,Triplet,B4
1697,Right,0,69,120,354.0,0.989583,Quarter,A4
1698,Left,1,57,120,354.333333,0.322917,Triplet,A3
1699,Left,1,55,120,354.666667,0.322917,Triplet,G3
1700,Left,1,53,120,355.0,0.322917,Triplet,F3
1701,Left,1,52,120,355.333333,0.322917,Triplet,E3
1702,Left,1,50,120,355.666667,0.322917,Triplet,D3
1703,Right,0,60,80,356.0,0.322917,Triplet,C4
1704,Left,1,48,80,356.0,0.989583,Quarter,C3
1705,Right,0,61,80,356.333333,0.322917,Triplet,C#4
1706,Right,0,62,80,356.666667,0.322917,Triplet,D4
1707,Right,0,63,80,357.0,0.322917,Triplet,D#4
1708,Right,0,64,80,357.333333,0.322917,Triplet,E4
1709,Right,0,65,80,357.666667,0.322917,Triplet,F4
1710,Right,0,66,80,358.0,0.322917,Triplet,F#4
1711,Right,0,67,80,358.333333,0.322917,Triplet,G4
1712,Right,0,68,80,358.666667,0.322917,Triplet,G#4
1713,Right,0,69,80,359.0,0.322917,Triplet,A4
1714,Right,0,70,80,359.333333,0.322917,Triplet,A#4
1715,Right,0,71,80,359.666667,0.322917,Triplet,B4
1716,Right,0,72,80,360.0,1.989583,Quarter,D4_C5
1718,Left,1,43,80,360.333333,0.322917,Triplet,G2
1719,Left,1,45,80,360.666667,0.322917,Triplet,A2
1721,Left,1,46,80,361.0,0.322917,Triplet,A#2
1720,Right,0,71,80,361.0,0.989583,Quarter,B4
1722,Left,1,47,80,361.333333,0.322917,Triplet,B2
1723,Left,1,48,80,361.666667,0.322917,Triplet,C3
1724,Left,1,49,80,362.0,0.322917,Triplet,C#3
1725,Left,1,50,80,362.333333,0.322917,Triplet,D3
1726,Left,1,51,80,362.666667,0.322917,Triplet,D#3
1727,Left,1,52,80,363.0,0.322917,Triplet,E3
1728,Left,1,53,80,363.333333,0.322917,Triplet,F3
1729,Left,1,54,80,363.666667,0.322917,Triplet,F#3
1730,Left,1,55,80,364.0,1.989583,Quarter,G3_D3
1732,Right,0,62,80,364.333333,0.322917,Triplet,D4
1733,Right,0,64,80,364.666667,0.322917,Triplet,E4
1735,Right,0,65,80,365.0,0.322917,Triplet,F4
1734,Left,1,53,80,365.0,0.989583,Quarter,F3
1736,Right,0,66,80,365.333333,0.322917,Triplet,F#4
1737,Right,0,67,80,365.666667,0.322917,Triplet,G4
1738,Right,0,68,80,366.0,0.322917,Triplet,G#4
1739,Right,0,69,80,366.333333,0.322917,Triplet,A4
1740,Right,0,70,80,366.666667,0.322917,Triplet,A#4
1741,Right,0,71,80,367.0,0.322917,Triplet,B4
1742,Right,0,72,80,367.333333,0.322917,Triplet,C5
1743,Right,0,73,80,367.666667,0.322917,Triplet,C#5
1744,Right,0,64,80,368.0,1.989583,Half,E4_D5
1746,Left,1,45,80,368.333333,0.322917,Triplet,A2
1747,Left,1,47,80,368.666667,0.322917,Triplet,B2
1749,Right,0,72,80,369.0,0.989583,Quarter,C5
1748,Left,1,48,80,369.0,0.322917,Triplet,C3
1750,Left,1,49,80,369.333333,0.322917,Triplet,C#3
1751,Left,1,50,80,369.666667,0.322917,Triplet,D3
1752,Left,1,51,80,370.0,0.322917,Triplet,D#3
1753,Left,1,52,80,370.333333,0.322917,Triplet,E3
1754,Left,1,53,80,370.666667,0.322917,Triplet,F3
1755,Left,1,54,80,371.0,0.322917,Triplet,F#3
1756,Left,1,55,80,371.333333,0.322917,Triplet,G3
1757,Left,1,56,80,371.666667,0.322917,Triplet,G#3
1758,Left,1,57,80,372.0,1.989583,Quarter,E3_A3
1760,Right,0,64,80,372.333333,0.322917,Triplet,E4
1761,Right,0,66,81,372.666667,0.322917,Triplet,F#4
1763,Left,1,55,82,373.0,0.989583,Quarter,G3
1762,Right,0,67,82,373.0,0.322917,Triplet,G4
1764,Right,0,69,83,373.333333,0.322917,Triplet,A4
1765,Right,0,70,84,373.666667,0.322917,Triplet,A#4
1766,Right,0,71,85,374.0,0.322917,Triplet,B4
1767,Right,0,72,86,374.333333,0.322917,Triplet,C5
1768,Right,0,73,86,374.666667,0.322917,Triplet,C#5
1769,Right,0,74,87,375.0,0.322917,Triplet,D5
1770,Right,0,75,88,375.333333,0.322917,Triplet,D#5
1771,Right,0,76,89,375.666667,0.322917,Triplet,E5
1773,Left,1,57,90,376.0,2.989583,DottedHalf,F#3_D#3_B3_A3
1772,Right,0,77,90,376.0,0.322917,Triplet,F5
1777,Right,0,78,91,376.333333,0.322917,Triplet,F#5
1778,Right,0,79,92,376.666667,0.322917,Triplet,G5
1779,Right,0,80,93,377.0,0.322917,Triplet,G#5
1780,Right,0,81,93,377.333333,0.322917,Triplet,A5
1781,Right,0,82,94,377.666667,0.322917,Triplet,A#5
1782,Right,0,83,95,378.0,0.322917,Triplet,B5
1783,Right,0,71,96,378.333333,0.322917,Triplet,B4
1784,Right,0,84,97,378.666667,0.322917,Triplet,C6
1785,Left,1,54,98,379.0,0.989583,Quarter,F#3_D#3_B3
1788,Right,0,81,98,379.0,0.322917,Triplet,A5
1789,Right,0,71,99,379.333333,0.322917,Triplet,B4
1790,Right,0,83,99,379.666667,0.322917,Triplet,B5
1791,Right,0,79,100,380.0,0.322917,Triplet,G5
1792,Left,1,59,100,380.0,0.989583,Quarter,G3_E3_B3
1795,Right,0,71,100,380.333333,0.322917,Triplet,B4
1796,Right,0,81,102,380.666667,0.322917,Triplet,A5
1797,Right,0,78,101,381.0,0.322917,Triplet,F#5
1798,Left,1,60,101,381.0,0.989583,Quarter,C4_A3
1800,Right,0,69,102,381.333333,0.322917,Triplet,A4
1801,Right,0,79,104,381.666667,0.322917,Triplet,G5
1802,Left,1,59,103,382.0,0.989583,Quarter,B3
1803,Right,0,76,103,382.0,0.322917,Triplet,E5
1804,Right,0,67,104,382.333333,0.322917,Triplet,G4
1805,Right,0,78,106,382.666667,0.322917,Triplet,F#5
1806,Right,0,75,105,383.0,0.322917,Triplet,D#5
1807,Left,1,47,105,383.0,0.989583,Quarter,B2_A3
1809,Right,0,66,106,383.333333,0.322917,Triplet,F#4
1810,Right,0,78,106,383.666667,0.322917,Triplet,F#5
1812,Left,1,52,107,384.0,0.989583,Quarter,G#3_E3
1811,Right,0,76,107,384.0,0.322917,Triplet,E5
1814,Right,0,68,108,384.333333,0.322917,Triplet,G#4
1815,Right,0,77,117,384.666667,0.322917,Triplet,F5
1816,Right,0,74,109,385.0,0.322917,Triplet,D5
1817,Right,0,71,110,385.333333,0.322917,Triplet,B4
1818,Right,0,76,120,385.666667,0.322917,Triplet,E5
1819,Right,0,72,111,386.0,0.322917,Triplet,C5
1820,Right,0,69,111,386.333333,0.322917,Triplet,A4
1821,Right,0,74,120,386.666667,0.322917,Triplet,D5
1822,Right,0,71,113,387.0,0.322917,Triplet,B4
1823,Right,0,68,113,387.333333,0.322917,Triplet,G#4
1824,Right,0,72,121,387.666667,0.322917,Triplet,C5
1825,Left,1,57,120,388.0,0.989583,Quarter,E3_C3_A3_A2
1829,Right,0,69,120,388.333333,0.322917,Triplet,A4
1830,Right,0,70,120,388.666667,0.322917,Triplet,A#4
1833,Right,0,71,120,389.0,0.322917,Triplet,B4
1831,Left,1,57,120,389.0,0.989583,Quarter,E4_C4_A3
1835,Right,0,72,120,389.333333,0.322917,Triplet,C5
1836,Right,0,73,120,389.666667,0.322917,Triplet,C#5
1837,Right,0,74,120,390.0,0.322917,Triplet,D5
1838,Right,0,75,120,390.333333,0.322917,Triplet,D#5
1839,Right,0,76,120,390.666667,0.322917,Triplet,E5
1840,Left,1,57,120,391.0,0.739583,DottedEighth,E3_C3_A3_A2
1844,Right,0,77,120,391.0,0.322917,Triplet,F5
1845,Right,0,76,120,391.333333,0.322917,Triplet,E5
1846,Right,0,69,120,391.666667,0.322917,Triplet,A4
1847,Left,1,52,120,391.75,0.239583,Sixteenth,E3_C3_A3_A2
1851,Left,1,52,120,392.0,0.989583,Quarter,G#3_E3_D3_B2
1855,Right,0,68,120,392.333333,0.322917,Triplet,G#4
1856,Right,0,69,120,392.666667,0.322917,Triplet,A4
1860,Right,0,70,120,393.0,0.322917,Triplet,A#4
1857,Left,1,62,120,393.0,0.989583,Quarter,E4_D4_B3
1861,Right,0,71,120,393.333333,0.322917,Triplet,B4
1862,Right,0,72,120,393.666667,0.322917,Triplet,C5
1863,Right,0,73,120,394.0,0.322917,Triplet,C#5
1864,Right,0,74,120,394.333333,0.322917,Triplet,D5
1865,Right,0,75,120,394.666667,0.322917,Triplet,D#5
1866,Left,1,52,120,395.0,0.739583,DottedEighth,G#3_E3_D3_B2
1868,Right,0,76,120,395.0,0.322917,Triplet,E5
1871,Right,0,74,120,395.333333,0.322917,Triplet,D5
1872,Right,0,68,120,395.666667,0.322917,Triplet,G#4
1873,Left,1,47,120,395.75,0.239583,Sixteenth,G#3_E3_D3_B2
1877,Left,1,48,120,396.0,0.989583,Quarter,E3_C3_A3
1880,Right,0,69,120,396.333333,0.322917,Triplet,A4
1881,Right,0,71,120,396.666667,0.322917,Triplet,B4
1883,Left,1,64,120,397.0,0.989583,Quarter,E4_C4_A4
1882,Right,0,72,120,397.0,0.322917,Triplet,C5
1886,Right,0,73,120,397.333333,0.322917,Triplet,C#5
1887,Right,0,74,120,397.666667,0.322917,Triplet,D5
1888,Right,0,75,120,398.0,0.322917,Triplet,D#5
1889,Right,0,76,120,398.333333,0.322917,Triplet,E5
1890,Right,0,77,120,398.666667,0.322917,Triplet,F5
1891,Right,0,78,120,399.0,0.322917,Triplet,F#5
1892,Right,0,79,120,399.333333,0.322917,Triplet,G5
1893,Right,0,80,120,399.666667,0.322917,Triplet,G#5
1894,Left,1,69,120,400.0,3.989583,Whole,F4_A4
1895,Right,0,81,120,400.0,0.322917,Triplet,A5
1897,Right,0,82,120,400.333333,0.322917,Triplet,A#5
1898,Right,0,83,120,400.666667,0.322917,Triplet,B5
1899,Right,0,84,120,401.0,0.322917,Triplet,C6
1900,Right,0,83,120,401.333333,0.322917,Triplet,B5
1901,Right,0,86,120,401.666667,0.322917,Triplet,D6
1902,Right,0,84,120,402.0,0.322917,Triplet,C6
1903,Left,1,75,120,402.0,1.989583,Half,D#5
1904,Right,0,83,120,402.333333,0.322917,Triplet,B5
1905,Right,0,86,120,402.666667,0.322917,Triplet,D6
1906,Right,0,84,120,403.0,0.322917,Triplet,C6
1907,Right,0,83,114,403.333333,0.322917,Triplet,B5
1908,Right,0,81,95,403.666667,0.322917,Triplet,A5
1909,Right,0,80,70,404.0,3.989583,Whole,G#5
1910,Left,1,64,70,404.333333,0.322917,Triplet,E4
1911,Left,1,65,70,404.666667,0.322917,Triplet,F4
1912,Left,1,66,70,405.0,0.322917,Triplet,F#4
1913,Left,1,67,70,405.333333,0.322917,Triplet,G4
1914,Left,1,68,70,405.666667,0.322917,Triplet,G#4
1915,Left,1,69,70,406.0,0.322917,Triplet,A4
1916,Right,0,88,70,406.0,1.989583,Half,E6
1917,Left,1,70,70,406.333333,0.322917,Triplet,A#4
1918,Left,1,71,70,406.666667,0.322917,Triplet,B4
1919,Left,1,72,70,407.0,0.322917,Triplet,C5
1920,Left,1,71,70,407.333333,0.322917,Triplet,B4
1921,Left,1,64,70,407.666667,0.322917,Triplet,E4
1922,Right,0,81,70,408.0,3.989583,Whole,F#5_D#6_A5
1925,Left,1,66,70,408.333333,0.322917,Triplet,F#4
1926,Left,1,67,70,408.666667,0.322917,Triplet,G4
1927,Left,1,69,70,409.0,0.322917,Triplet,A4
1928,Left,1,70,70,409.333333,0.322917,Triplet,A#4
1929,Left,1,71,70,409.666667,0.322917,Triplet,B4
1930,Left,1,72,70,410.0,0.322917,Triplet,C5
1931,Left,1,69,70,410.333333,0.322917,Triplet,A4
1932,Left,1,66,70,410.666667,0.322917,Triplet,F#4
1933,Left,1,72,70,411.0,0.322917,Triplet,C5
1934,Left,1,69,70,411.333333,0.322917,Triplet,A4
1935,Left,1,66,70,411.666667,0.322917,Triplet,F#4
1936,Right,0,86,70,412.0,3.989583,Whole,G#5_E5_D6_B5
1940,Left,1,68,70,412.333333,0.322917,Triplet,G#4
1941,Left,1,69,70,412.666667,0.322917,Triplet,A4
1942,Left,1,71,70,413.0,0.322917,Triplet,B4
1943,Left,1,72,70,413.333333,0.322917,Triplet,C5
1944,Left,1,73,70,413.666667,0.322917,Triplet,C#5
1945,Left,1,74,70,414.0,0.322917,Triplet,D5
1946,Left,1,75,70,414.333333,0.322917,Triplet,D#5
1947,Left,1,76,70,414.666667,0.322917,Triplet,E5
1948,Left,1,77,70,415.0,0.322917,Triplet,F5
1949,Left,1,78,70,415.333333,0.322917,Triplet,F#5
1950,Left,1,79,70,415.666667,0.322917,Triplet,G5
1951,Right,0,80,70,416.0,0.322917,Triplet,G#5
1952,Right,0,81,70,416.333333,0.322917,Triplet,A5
1953,Right,0,82,70,416.666667,0.322917,Triplet,A#5
1954,Right,0,83,70,417.0,0.322917,Triplet,B5
1955,Right,0,84,70,417.333333,0.322917,Triplet,C6
1956,Right,0,85,70,417.666667,0.322917,Triplet,C#6
1957,Right,0,86,70,418.0,0.322917,Triplet,D6
1958,Right,0,85,70,418.333333,0.322917,Triplet,C#6
1959,Right,0,83,70,418.666667,0.322917,Triplet,B5
1960,Right,0,81,70,419.0,0.322917,Triplet,A5
1961,Right,0,80,70,419.333333,0.322917,Triplet,G#5
1962,Right,0,78,70,419.666667,0.322917,Triplet,F#5
1963,Right,0,76,70,420.0,0.322917,Triplet,E5
1964,Right,0,74,70,420.333333,0.322917,Triplet,D5
1965,Right,0,73,70,420.666667,0.322917,Triplet,C#5
1966,Right,0,71,70,421.0,0.322917,Triplet,B4
1967,Right,0,69,70,421.333333,0.322917,Triplet,A4
1968,Right,0,68,70,421.666667,0.322917,Triplet,G#4
1969,Right,0,71,70,422.0,0.322917,Triplet,B4
1970,Right,0,69,70,422.333333,0.322917,Triplet,A4
1971,Right,0,68,70,422.666667,0.322917,Triplet,G#4
1972,Right,0,66,70,423.0,0.322917,Triplet,F#4
1973,Right,0,64,70,423.333333,0.322917,Triplet,E4
1974,Right,0,63,70,423.666667,0.322917,Triplet,D#4
1975,Right,0,66,70,424.0,0.322917,Triplet,F#4
1976,Right,0,64,70,424.333333,0.322917,Triplet,E4
1977,Right,0,62,70,424.666667,0.322917,Triplet,D4
1978,Right,0,61,70,425.0,0.322917,Triplet,C#4
1979,Right,0,59,70,425.333333,0.322917,Triplet,B3
1980,Right,0,58,70,425.666667,0.322917,Triplet,A#3
1981,Right,0,62,70,426.0,0.322917,Triplet,D4
1982,Right,0,61,70,426.333333,0.322917,Triplet,C#4
1983,Right,0,59,70,426.666667,0.322917,Triplet,B3
1984,Right,0,57,70,427.0,0.322917,Triplet,A3
1985,Right,0,56,70,427.333333,0.322917,Triplet,G#3
1986,Right,0,54,70,427.666667,0.322917,Triplet,F#3
1987,Right,0,59,70,428.0,0.322917,Triplet,B3
1988,Right,0,57,70,428.333333,0.322917,Triplet,A3
1989,Right,0,56,70,428.666667,0.322917,Triplet,G#3
1990,Right,0,54,70,429.0,0.322917,Triplet,F#3
1991,Right,0,52,70,429.333333,0.322917,Triplet,E3
1992,Right,0,51,70,429.666667,0.322917,Triplet,D#3
1993,Right,0,54,70,430.0,0.322917,Triplet,F#3
1994,Right,0,52,70,430.333333,0.322917,Triplet,E3
1995,Right,0,50,70,430.666667,0.322917,Triplet,D3
1996,Right,0,49,70,431.0,0.322917,Triplet,C#3
1997,Right,0,47,70,431.333333,0.322917,Triplet,B2
1998,Right,0,46,70,431.666667,0.322917,Triplet,A#2
1999,Right,0,50,70,432.0,0.322917,Triplet,D3
2000,Right,0,49,70,432.333333,0.322917,Triplet,C#3
2001,Right,0,47,70,432.666667,0.322917,Triplet,B2
2002,Right,0,45,70,433.0,0.322917,Triplet,A2
2003,Right,0,44,70,433.333333,0.322917,Triplet,G#2
2004,Right,0,42,70,433.666667,0.322917,Triplet,F#2
2005,Right,0,40,70,434.0,0.322917,Triplet,E2
2006,Right,0,42,70,434.333333,0.322917,Triplet,F#2
2007,Right,0,40,70,434.666667,0.322917,Triplet,E2
2008,Right,0,38,70,435.0,0.322917,Triplet,D2
2009,Right,0,37,70,435.333333,0.322917,Triplet,C#2
2010,Right,0,35,70,435.666667,0.322917,Triplet,B1
2011,Left,1,33,80,436.0,0.239583,Sixteenth,A1
2012,Left,1,35,80,436.125,0.239583,Sixteenth,B1
2013,Left,1,37,80,436.25,0.239583,Sixteenth,C#2
2014,Left,1,38,80,436.375,0.239583,Sixteenth,D2
2015,Left,1,40,80,436.5,0.239583,Sixteenth,E2
2016,Left,1,42,80,436.625,0.239583,Sixteenth,F#2
2017,Left,1,44,80,436.75,0.239583,Sixteenth,G#2
2018,Left,1,45,80,436.875,0.239583,Sixteenth,A2
2019,Left,1,47,80,437.0,0.239583,Sixteenth,B2
2020,Left,1,49,80,437.125,0.239583,Sixteenth,C#3
2021,Left,1,50,80,437.25,0.239583,Sixteenth,D3
2022,Left,1,52,80,437.375,0.239583,Sixteenth,E3
2023,Left,1,54,80,437.5,0.239583,Sixteenth,F#3
2024,Left,1,56,80,437.625,0.239583,Sixteenth,G#3
2025,Left,1,57,80,437.75,0.239583,Sixteenth,A3
2026,Left,1,59,80,437.875,0.239583,Sixteenth,B3
2027,Right,0,61,80,438.0,0.239583,Sixteenth,C#4
2028,Right,0,62,80,438.125,0.239583,Sixteenth,D4
2029,Right,0,64,80,438.25,0.239583,Sixteenth,E4
2030,Right,0,66,80,438.375,0.239583,Sixteenth,F#4
2031,Right,0,68,80,438.5,0.239583,Sixteenth,G#4
2032,Right,0,69,80,438.625,0.239583,Sixteenth,A4
2033,Right,0,71,80,438.75,0.239583,Sixteenth,B4
2034,Right,0,73,80,438.875,0.239583,Sixteenth,C#5
2035,Right,0,74,80,439.0,0.239583,Sixteenth,D5
2036,Right,0,76,80,439.125,0.239583,Sixteenth,E5
2037,Right,0,78,80,439.25,0.239583,Sixteenth,F#5
2038,Right,0,80,80,439.375,0.239583,Sixteenth,G#5
2039,Right,0,81,80,439.5,0.239583,Sixteenth,A5
2040,Right,0,83,80,439.625,0.239583,Sixteenth,B5
2041,Right,0,85,80,439.75,0.239583,Sixteenth,C#6
2042,Right,0,86,80,439.875,0.114583,ThirtySecond,D6
2043,Right,0,88,80,440.0,0.489583,Eighth,E6
2044,Left,1,59,80,440.0,0.489583,Eighth,B3
2045,Right,0,68,80,440.5,0.239583,Sixteenth,G#4
2046,Left,1,64,80,440.5,0.489583,Eighth,E4
2048,Right,0,68,80,441.0,1.989583,Half,G#4
2047,Left,1,62,80,441.0,0.489583,Eighth,D4
2049,Left,1,64,80,441.5,0.489583,Eighth,E4
2050,Left,1,59,80,442.0,0.489583,Eighth,B3
2051,Left,1,64,80,442.5,0.489583,Eighth,E4
2052,Right,0,68,80,443.0,0.989583,Quarter,G#4
2053,Left,1,62,80,443.0,0.489583,Eighth,D4
2054,Left,1,64,80,443.5,0.489583,Eighth,E4
2055,Right,0,69,80,444.0,0.739583,DottedEighth,A4
2056,Left,1,61,80,444.0,0.489583,Eighth,C#4
2057,Left,1,57,80,444.5,0.489583,Eighth,A3
2058,Right,0,73,80,444.75,0.239583,Sixteenth,C#5
2059,Right,0,71,80,444.875,0.114583,ThirtySecond,B4
2061,Left,1,56,80,445.0,0.489583,Eighth,G#3
2060,Right,0,71,80,445.0,0.739583,DottedEighth,B4
2062,Left,1,52,80,445.5,0.489583,Eighth,E3
2063,Right,0,74,80,445.75,0.239583,Sixteenth,D5
2064,Right,0,73,80,445.875,0.114583,ThirtySecond,C#5
2066,Left,1,57,80,446.0,0.489583,Eighth,A3
2065,Right,0,73,80,446.0,0.739583,DottedEighth,C#5
2067,Left,1,64,80,446.5,0.489583,Eighth,E4
2068,Right,0,76,80,446.75,0.239583,Sixteenth,E5
2069,Right,0,74,80,446.875,0.114583,ThirtySecond,D5
2071,Left,1,54,80,447.0,0.489583,Eighth,F#3
2070,Right,0,74,80,447.0,0.739583,DottedEighth,D5
2072,Left,1,57,80,447.5,0.489583,Eighth,A3
2073,Right,0,75,80,447.75,0.239583,Sixteenth,D#5
2075,Left,1,52,80,448.0,0.489583,Eighth,E3
2074,Right,0,76,97,448.0,1.489583,DottedQuarter,E5
2076,Left,1,61,80,448.5,0.489583,Eighth,C#4
2077,Left,1,57,80,449.0,0.489583,Eighth,A3
2078,Left,1,61,80,449.5,0.489583,Eighth,C#4
2079,Right,0,74,80,449.5,0.239583,Sixteenth,D5
2080,Right,0,73,80,449.75,0.239583,Sixteenth,C#5
2081,Left,1,52,80,450.0,0.489583,Eighth,E3
2082,Right,0,71,80,450.0,0.989583,Quarter,B4
2083,Left,1,56,80,450.5,0.489583,Eighth,G#3
2084,Left,1,50,80,451.0,0.489583,Eighth,D3
2085,Left,1,56,80,451.5,0.489583,Eighth,G#3
2087,Right,0,57,80,452.0,0.239583,Sixteenth,A3
2086,Left,1,49,80,452.0,0.489583,Eighth,C#3
2088,Right,0,59,80,452.125,0.239583,Sixteenth,B3
2089,Right,0,57,80,452.25,0.239583,Sixteenth,A3
2090,Right,0,56,80,452.375,0.239583,Sixteenth,G#3
2091,Left,1,57,80,452.5,0.489583,Eighth,A3
2092,Right,0,59,80,452.625,0.239583,Sixteenth,B3
2093,Right,0,61,80,452.75,0.239583,Sixteenth,C#4
2094,Right,0,63,80,452.875,0.239583,Sixteenth,D#4
2096,Left,1,52,80,453.0,0.489583,Eighth,E3
2095,Right,0,64,80,453.0,0.239583,Sixteenth,E4
2097,Right,0,66,80,453.125,0.239583,Sixteenth,F#4
2098,Right,0,68,80,453.25,0.239583,Sixteenth,G#4
2099,Right,0,69,80,453.375,0.239583,Sixteenth,A4
2101,Right,0,71,80,453.5,0.239583,Sixteenth,B4
2100,Left,1,57,80,453.5,0.489583,Eighth,A3
2102,Right,0,73,80,453.625,0.239583,Sixteenth,C#5
2103,Right,0,75,80,453.75,0.239583,Sixteenth,D#5
2104,Right,0,76,80,453.875,0.239583,Sixteenth,E5
2106,Right,0,78,80,454.0,0.322917,Triplet,F#5
2105,Left,1,47,80,454.0,0.489583,Eighth,B2
2107,Right,0,80,80,454.166667,0.322917,Triplet,G#5
2108,Right,0,81,80,454.333333,0.322917,Triplet,A5
2109,Left,1,56,80,454.5,0.489583,Eighth,G#3
2110,Right,0,83,80,454.5,0.322917,Triplet,B5
2111,Right,0,85,80,454.666667,0.322917,Triplet,C#6
2112,Right,0,87,80,454.833333,0.15625,TripletSixteenth,D#6
2114,Left,1,52,80,455.0,0.489583,Eighth,E3
2113,Right,0,88,80,455.0,0.489583,Eighth,E6
2115,Left,1,54,80,455.5,0.489583,Eighth,F#3
2116,Right,0,88,80,455.5,0.489583,Eighth,E6
2118,Left,1,46,80,456.0,0.489583,Eighth,A#2
2117,Right,0,88,80,456.0,0.489583,Eighth,E6
2120,Left,1,54,80,456.5,0.489583,Eighth,F#3
2119,Right,0,66,80,456.5,0.239583,Sixteenth,F#4
2121,Left,1,52,80,457.0,0.489583,Eighth,E3
2122,Right,0,66,80,457.0,1.989583,Half,F#4
2123,Left,1,54,80,457.5,0.489583,Eighth,F#3
2124,Left,1,49,80,458.0,0.489583,Eighth,C#3
2125,Left,1,58,80,458.5,0.489583,Eighth,A#3
2126,Left,1,52,80,459.0,0.489583,Eighth,E3
2127,Right,0,66,80,459.0,0.989583,Quarter,F#4
2128,Left,1,58,80,459.5,0.489583,Eighth,A#3
2131,Right,0,68,80,460.0,0.489583,Eighth,G#4
2129,Left,1,47,80,460.0,2.989583,DottedHalf,E3_B2
2133,Right,0,69,80,460.5,0.239583,Sixteenth,A4
2132,Left,1,59,80,460.5,0.489583,Eighth,B3
2134,Right,0,68,80,460.75,0.239583,Sixteenth,G#4
2135,Right,0,66,80,461.0,0.489583,Eighth,F#4
2136,Left,1,56,80,461.0,0.489583,Eighth,G#3
2138,Left,1,59,80,461.5,0.489583,Eighth,B3
2137,Right,0,68,80,461.5,0.489583,Eighth,G#4
2140,Left,1,54,80,462.0,0.489583,Eighth,F#3
2139,Right,0,71,80,462.0,0.489583,Eighth,B4
2141,Left,1,59,80,462.5,0.489583,Eighth,B3
2142,Right,0,69,80,462.5,0.489583,Eighth,A4
2143,Left,1,47,80,463.0,0.989583,Quarter,B2_A3
2145,Right,0,66,80,463.0,0.489583,Eighth,F#4
2146,Left,1,59,80,463.5,0.489583,Eighth,B3
2147,Right,0,63,80,463.5,0.489583,Eighth,D#4
2148,Left,1,52,80,464.0,2.989583,DottedHalf,E3
2149,Right,0,63,80,464.0,1.989583,Half,F#4_D#4
2151,Left,1,57,80,464.5,0.489583,Eighth,A3
2152,Left,1,59,80,465.0,0.489583,Eighth,B3
2153,Left,1,57,80,465.5,0.489583,Eighth,A3
2155,Left,1,56,80,466.0,0.989583,Quarter,G#3
2154,Right,0,64,80,466.0,0.239583,Sixteenth,E4
2156,Right,0,76,80,466.25,0.239583,Sixteenth,E5
2157,Right,0,75,80,466.5,0.239583,Sixteenth,D#5
2158,Right,0,76,80,466.75,0.239583,Sixteenth,E5
2159,Right,0,78,80,467.0,0.239583,Sixteenth,F#5
2160,Right,0,76,80,467.25,0.239583,Sixteenth,E5
2161,Right,0,71,80,467.5,0.239583,Sixteenth,B4
2162,Right,0,73,80,467.75,0.239583,Sixteenth,C#5
2163,Right,0,74,100,468.0,1.989583,Half,D5
2164,Right,0,71,80,468.25,0.239583,Sixteenth,B4
2165,Right,0,70,80,468.5,0.239583,Sixteenth,A#4
2166,Right,0,71,80,468.75,0.239583,Sixteenth,B4
2167,Right,0,73,80,469.0,0.239583,Sixteenth,C#5
2168,Right,0,71,80,469.25,0.239583,Sixteenth,B4
2169,Right,0,66,80,469.5,0.239583,Sixteenth,F#4
2170,Right,0,68,80,469.75,0.239583,Sixteenth,G#4
2171,Right,0,69,80,470.0,1.989583,Half,C#5_A4
2173,Left,1,57,80,470.5,0.239583,Sixteenth,A3
2174,Left,1,56,80,470.75,0.239583,Sixteenth,G#3
2175,Left,1,57,80,471.0,0.239583,Sixteenth,A3
2176,Left,1,59,80,471.25,0.239583,Sixteenth,B3
2177,Left,1,61,80,471.5,0.239583,Sixteenth,C#4
2178,Left,1,63,80,471.75,0.239583,Sixteenth,D#4
2179,Right,0,64,80,472.0,0.989583,Quarter,G#4_E4_B4
2182,Left,1,51,80,472.5,0.239583,Sixteenth,D#3
2183,Left,1,52,80,472.75,0.239583,Sixteenth,E3
2184,Left,1,54,80,473.0,0.239583,Sixteenth,F#3
2185,Left,1,52,80,473.25,0.239583,Sixteenth,E3
2186,Left,1,51,80,473.5,0.239583,Sixteenth,D#3
2187,Left,1,52,80,473.75,0.239583,Sixteenth,E3
2188,Left,1,40,100,474.0,4.489583,Whole,E2
2189,Right,0,64,80,474.25,0.239583,Sixteenth,E4
2190,Right,0,63,80,474.5,0.239583,Sixteenth,D#4
2191,Right,0,64,80,474.75,0.239583,Sixteenth,E4
2192,Right,0,66,80,475.0,0.239583,Sixteenth,F#4
2193,Right,0,64,80,475.25,0.239583,Sixteenth,E4
2194,Right,0,59,80,475.5,0.239583,Sixteenth,B3
2195,Right,0,61,80,475.75,0.239583,Sixteenth,C#4
2196,Right,0,62,100,476.0,1.989583,Half,D4
2197,Right,0,71,80,476.25,0.239583,Sixteenth,B4
2198,Right,0,70,80,476.5,0.239583,Sixteenth,A#4
2199,Right,0,71,80,476.75,0.239583,Sixteenth,B4
2200,Right,0,73,80,477.0,0.239583,Sixteenth,C#5
2201,Right,0,71,80,477.25,0.239583,Sixteenth,B4
2202,Right,0,66,80,477.5,0.239583,Sixteenth,F#4
2203,Right,0,68,80,477.75,0.239583,Sixteenth,G#4
2204,Right,0,61,80,478.0,1.989583,Half,C#4_A4
2206,Left,1,42,80,478.5,0.239583,Sixteenth,F#2
2207,Left,1,44,80,478.75,0.239583,Sixteenth,G#2
2208,Left,1,45,80,479.0,0.239583,Sixteenth,A2
2209,Left,1,47,80,479.25,0.239583,Sixteenth,B2
2210,Left,1,49,80,479.5,0.239583,Sixteenth,C#3
2211,Left,1,51,80,479.75,0.239583,Sixteenth,D#3
2212,Right,0,68,80,480.0,0.989583,Quarter,G#4_B3
2214,Left,1,52,80,480.0,0.239583,Sixteenth,E3
2215,Left,1,54,80,480.25,0.239583,Sixteenth,F#3
2216,Left,1,56,80,480.5,0.239583,Sixteenth,G#3
2217,Left,1,57,80,480.75,0.239583,Sixteenth,A3
2218,Left,1,59,80,481.0,0.239583,Sixteenth,B3
2219,Left,1,57,80,481.25,0.239583,Sixteenth,A3
2220,Left,1,56,80,481.5,0.239583,Sixteenth,G#3
2221,Left,1,54,80,481.75,0.239583,Sixteenth,F#3
2222,Left,1,52,80,482.0,0.239583,Sixteenth,E3
2223,Left,1,54,80,482.25,0.239583,Sixteenth,F#3
2224,Left,1,52,80,482.5,0.239583,Sixteenth,E3
2225,Left,1,50,80,482.75,0.239583,Sixteenth,D3
2226,Left,1,49,80,483.0,0.239583,Sixteenth,C#3
2227,Left,1,50,80,483.25,0.239583,Sixteenth,D3
2228,Left,1,49,80,483.5,0.239583,Sixteenth,C#3
2229,Left,1,47,80,483.75,0.239583,Sixteenth,B2
2230,Right,0,57,80,484.0,0.239583,Sixteenth,A3
2231,Left,1,45,80,484.0,0.489583,Eighth,A2
2232,Right,0,59,80,484.125,0.239583,Sixteenth,B3
2233,Right,0,57,80,484.25,0.239583,Sixteenth,A3
2234,Right,0,56,80,484.375,0.239583,Sixteenth,G#3
2235,Left,1,52,80,484.5,0.489583,Eighth,E3
2236,Right,0,59,80,484.625,0.239583,Sixteenth,B3
2237,Right,0,61,80,484.75,0.239583,Sixteenth,C#4
2238,Right,0,62,80,484.875,0.239583,Sixteenth,D4
2240,Right,0,64,80,485.0,0.239583,Sixteenth,E4
2239,Left,1,49,80,485.0,0.489583,Eighth,C#3
2241,Right,0,66,80,485.125,0.239583,Sixteenth,F#4
2242,Right,0,68,80,485.25,0.239583,Sixteenth,G#4
2243,Right,0,69,80,485.375,0.239583,Sixteenth,A4
2245,Right,0,71,80,485.5,0.239583,Sixteenth,B4
2244,Left,1,52,80,485.5,0.489583,Eighth,E3
2246,Right,0,73,80,485.625,0.239583,Sixteenth,C#5
2247,Right,0,74,80,485.75,0.239583,Sixteenth,D5
2248,Right,0,76,80,485.875,0.239583,Sixteenth,E5
2250,Left,1,45,80,486.0,0.489583,Eighth,A2
2249,Right,0,78,80,486.0,0.322917,Triplet,F#5
2251,Right,0,80,80,486.166667,0.322917,Triplet,G#5
2252,Right,0,81,80,486.333333,0.322917,Triplet,A5
2254,Left,1,52,80,486.5,0.489583,Eighth,E3
2253,Right,0,83,80,486.5,0.322917,Triplet,B5
2255,Right,0,85,80,486.666667,0.322917,Triplet,C#6
2256,Right,0,86,80,486.833333,0.15625,TripletSixteenth,D6
2257,Left,1,49,80,487.0,0.489583,Eighth,C#3
2258,Right,0,88,80,487.0,0.489583,Eighth,E6
2260,Right,0,88,80,487.5,0.489583,Eighth,E6
2259,Left,1,52,80,487.5,0.489583,Eighth,E3
2261,Left,1,47,80,488.0,0.489583,Eighth,B2
2262,Right,0,88,80,488.0,0.489583,Eighth,E6
2263,Right,0,68,80,488.5,0.239583,Sixteenth,G#4
2264,Left,1,52,80,488.5,0.489583,Eighth,E3
2265,Right,0,68,80,489.0,1.989583,Half,G#4
2266,Left,1,50,80,489.0,0.489583,Eighth,D3
2267,Left,1,52,80,489.5,0.489583,Eighth,E3
2268,Left,1,47,80,490.0,0.489583,Eighth,B2
2269,Left,1,52,80,490.5,0.489583,Eighth,E3
2271,Left,1,49,80,491.0,0.489583,Eighth,C#3
2270,Right,0,69,80,491.0,0.989583,Quarter,A4
2272,Left,1,57,80,491.5,0.489583,Eighth,A3
2273,Left,1,50,80,492.0,0.489583,Eighth,D3
2274,Right,0,71,80,492.0,0.239583,Sixteenth,B4
2275,Right,0,73,80,492.25,0.15625,TripletSixteenth,C#5
2276,Right,0,71,80,492.333333,0.15625,TripletSixteenth,B4
2277,Right,0,70,80,492.416667,0.15625,TripletSixteenth,A#4
2278,Left,1,59,80,492.5,0.489583,Eighth,B3
2279,Right,0,71,80,492.5,0.239583,Sixteenth,B4
2280,Right,0,73,80,492.75,0.239583,Sixteenth,C#5
2281,Left,1,54,80,493.0,0.489583,Eighth,F#3
2282,Right,0,74,80,493.0,0.322917,Triplet,D5
2283,Right,0,76,80,493.333333,0.322917,Triplet,E5
2284,Left,1,59,80,493.5,0.489583,Eighth,B3
2285,Right,0,78,80,493.666667,0.322917,Triplet,F#5
2287,Right,0,69,80,494.0,0.989583,Quarter,A4
2286,Left,1,52,80,494.0,0.489583,Eighth,E3
2288,Left,1,61,80,494.5,0.489583,Eighth,C#4
2289,Left,1,52,80,495.0,0.489583,Eighth,E3
2290,Right,0,73,80,495.0,0.989583,Eighth,G#4_C#5
2293,Left,1,62,80,495.5,0.489583,Eighth,D4
2292,Right,0,71,80,495.5,0.489583,Eighth,B4
2296,Left,1,57,80,496.0,2.989583,DottedHalf,A3
2294,Right,0,71,80,496.0,1.989583,Half,G#4_B4
2297,Left,1,62,80,496.5,0.489583,Eighth,D4
2298,Left,1,64,80,497.0,0.489583,Eighth,E4
2299,Left,1,62,80,497.5,0.489583,Eighth,D4
2300,Left,1,61,80,498.0,0.989583,Quarter,C#4
2301,Right,0,69,80,498.0,0.489583,Eighth,A4
2302,Right,0,78,80,498.5,0.239583,Sixteenth,F#5
2303,Right,0,76,80,498.75,0.239583,Sixteenth,E5
2304,Right,0,74,80,499.0,0.239583,Sixteenth,D5
2305,Right,0,73,80,499.25,0.239583,Sixteenth,C#5
2306,Right,0,71,80,499.5,0.239583,Sixteenth,B4
2307,Right,0,69,80,499.75,0.239583,Sixteenth,A4
2308,Right,0,68,80,500.0,0.239583,Sixteenth,G#4
2309,Right,0,69,80,500.25,0.239583,Sixteenth,A4
2310,Right,0,71,80,500.5,0.239583,Sixteenth,B4
2311,Right,0,69,80,500.75,0.239583,Sixteenth,A4
2312,Right,0,68,80,501.0,0.989583,Quarter,G#4
2313,Left,1,59,80,501.0,0.239583,Sixteenth,B3
2314,Left,1,62,80,501.25,0.239583,Sixteenth,D4
2315,Left,1,64,80,501.5,0.239583,Sixteenth,E4
2316,Left,1,62,80,501.75,0.239583,Sixteenth,D4
2317,Left,1,59,80,502.0,0.989583,Quarter,B3
2318,Right,0,76,80,502.5,0.239583,Sixteenth,E5
2319,Right,0,74,80,502.75,0.239583,Sixteenth,D5
2320,Right,0,73,80,503.0,0.239583,Sixteenth,C#5
2321,Right,0,71,80,503.25,0.239583,Sixteenth,B4
2322,Right,0,69,80,503.5,0.239583,Sixteenth,A4
2323,Right,0,68,80,503.75,0.239583,Sixteenth,G#4
2324,Right,0,69,80,504.0,0.239583,Sixteenth,A4
2325,Right,0,71,80,504.25,0.239583,Sixteenth,B4
2326,Right,0,73,80,504.5,0.239583,Sixteenth,C#5
2327,Right,0,71,80,504.75,0.239583,Sixteenth,B4
2328,Left,1,61,80,505.0,0.239583,Sixteenth,C#4
2329,Right,0,69,80,505.0,0.989583,Quarter,A4
2330,Left,1,64,80,505.25,0.239583,Sixteenth,E4
2331,Left,1,69,80,505.5,0.239583,Sixteenth,A4
2332,Left,1,64,80,505.75,0.239583,Sixteenth,E4
2333,Left,1,61,80,506.0,0.989583,Quarter,C#4
2334,Right,0,81,100,506.5,0.239583,Sixteenth,A5
2335,Right,0,80,100,506.75,0.239583,Sixteenth,G#5
2336,Right,0,78,100,507.0,0.239583,Sixteenth,F#5
2337,Right,0,76,100,507.25,0.239583,Sixteenth,E5
2338,Right,0,74,100,507.5,0.239583,Sixteenth,D5
2339,Right,0,73,100,507.75,0.239583,Sixteenth,C#5
2342,Right,0,71,100,508.0,0.239583,Sixteenth,B4
2340,Left,1,66,100,508.0,0.989583,Quarter,F#4_D4
2343,Right,0,74,100,508.25,0.239583,Sixteenth,D5
2344,Right,0,78,100,508.5,0.239583,Sixteenth,F#5
2345,Right,0,76,100,508.75,0.239583,Sixteenth,E5
2346,Right,0,74,100,509.0,0.239583,Sixteenth,D5
2347,Right,0,73,100,509.25,0.239583,Sixteenth,C#5
2348,Right,0,71,100,509.5,0.239583,Sixteenth,B4
2349,Right,0,69,100,509.75,0.239583,Sixteenth,A4
2351,Left,1,52,100,510.0,0.989583,Quarter,E3_D4_B3
2350,Right,0,68,100,510.0,0.239583,Sixteenth,G#4
2354,Right,0,69,100,510.25,0.239583,Sixteenth,A4
2355,Right,0,71,100,510.5,0.239583,Sixteenth,B4
2356,Right,0,69,100,510.75,0.239583,Sixteenth,A4
2357,Right,0,68,100,511.0,0.239583,Sixteenth,G#4
2358,Right,0,66,100,511.25,0.239583,Sixteenth,F#4
2359,Right,0,64,100,511.5,0.239583,Sixteenth,E4
2360,Right,0,62,100,511.75,0.239583,Sixteenth,D4
2362,Right,0,61,100,512.0,0.239583,Sixteenth,C#4
2361,Left,1,57,100,512.0,0.989583,Quarter,A3
2363,Right,0,69,100,512.25,0.239583,Sixteenth,A4
2364,Right,0,64,100,512.5,0.239583,Sixteenth,E4
2365,Right,0,73,100,512.75,0.239583,Sixteenth,C#5
2366,Right,0,69,100,513.0,0.239583,Sixteenth,A4
2367,Right,0,76,100,513.25,0.239583,Sixteenth,E5
2368,Right,0,73,100,513.5,0.239583,Sixteenth,C#5
2369,Right,0,81,100,513.75,0.239583,Sixteenth,A5
2370,Right,0,76,100,514.0,0.239583,Sixteenth,E5
2371,Right,0,85,100,514.25,0.239583,Sixteenth,C#6
2372,Right,0,81,100,514.5,0.239583,Sixteenth,A5
2373,Right,0,88,100,514.75,0.239583,Sixteenth,E6
2374,Right,0,86,100,515.0,0.239583,Sixteenth,D6
2375,Right,0,85,97,515.25,0.239583,Sixteenth,C#6
2376,Right,0,83,93,515.5,0.239583,Sixteenth,B5
2377,Right,0,81,88,515.75,0.239583,Sixteenth,A5
2378,Right,0,80,80,516.0,0.239583,Sixteenth,G#5
2379,Right,0,81,80,516.25,0.239583,Sixteenth,A5
2380,Right,0,83,80,516.5,0.239583,Sixteenth,B5
2381,Right,0,81,80,516.75,0.239583,Sixteenth,A5
2382,Right,0,80,80,517.0,0.989583,Quarter,G#5
2383,Left,1,71,80,517.0,0.239583,Sixteenth,B4
2384,Left,1,74,80,517.25,0.239583,Sixteenth,D5
2385,Left,1,76,80,517.5,0.239583,Sixteenth,E5
2386,Left,1,74,80,517.75,0.239583,Sixteenth,D5
2387,Left,1,71,80,518.0,0.989583,Quarter,B4
2388,Right,0,87,80,518.25,0.239583,Sixteenth,D#6
2389,Right,0,88,80,518.5,0.239583,Sixteenth,E6
2390,Right,0,86,80,518.75,0.239583,Sixteenth,D6
2391,Right,0,85,80,519.0,0.239583,Sixteenth,C#6
2392,Right,0,83,80,519.25,0.239583,Sixteenth,B5
2393,Right,0,81,80,519.5,0.239583,Sixteenth,A5
2394,Right,0,80,80,519.75,0.239583,Sixteenth,G#5
2395,Right,0,81,80,520.0,0.239583,Sixteenth,A5
2396,Right,0,83,80,520.25,0.239583,Sixteenth,B5
2397,Right,0,85,80,520.5,0.239583,Sixteenth,C#6
2398,Right,0,83,80,520.75,0.239583,Sixteenth,B5
2399,Right,0,81,80,521.0,0.989583,Quarter,A5
2400,Left,1,73,80,521.0,0.239583,Sixteenth,C#5
2401,Left,1,76,80,521.25,0.239583,Sixteenth,E5
2402,Left,1,81,80,521.5,0.239583,Sixteenth,A5
2403,Left,1,76,80,521.75,0.239583,Sixteenth,E5
2404,Left,1,73,80,522.0,0.989583,Quarter,C#5
2405,Right,0,85,100,522.5,0.239583,Sixteenth,C#6
2406,Right,0,83,100,522.75,0.239583,Sixteenth,B5
2407,Right,0,81,100,523.0,0.239583,Sixteenth,A5
2408,Right,0,80,100,523.25,0.239583,Sixteenth,G#5
2409,Right,0,78,100,523.5,0.239583,Sixteenth,F#5
2410,Right,0,76,100,523.75,0.239583,Sixteenth,E5
2412,Right,0,75,100,524.0,0.239583,Sixteenth,D#5
2411,Left,1,66,100,524.0,0.989583,Quarter,F#4_A4
2414,Right,0,76,100,524.25,0.239583,Sixteenth,E5
2415,Right,0,78,100,524.5,0.239583,Sixteenth,F#5
2416,Right,0,80,100,524.75,0.239583,Sixteenth,G#5
2417,Right,0,81,100,525.0,0.239583,Sixteenth,A5
2418,Right,0,80,100,525.25,0.239583,Sixteenth,G#5
2419,Right,0,78,100,525.5,0.239583,Sixteenth,F#5
2420,Right,0,76,100,525.75,0.239583,Sixteenth,E5
2421,Right,0,75,100,526.0,0.239583,Sixteenth,D#5
2422,Left,1,54,100,526.0,0.989583,Quarter,F#3_A3
2424,Right,0,73,100,526.25,0.239583,Sixteenth,C#5
2425,Right,0,71,100,526.5,0.239583,Sixteenth,B4
2426,Right,0,69,100,526.75,0.239583,Sixteenth,A4
2427,Right,0,68,100,527.0,0.239583,Sixteenth,G#4
2428,Right,0,66,100,527.25,0.239583,Sixteenth,F#4
2429,Right,0,64,100,527.5,0.239583,Sixteenth,E4
2430,Right,0,63,100,527.75,0.239583,Sixteenth,D#4
2431,Right,0,64,100,528.0,0.989583,Quarter,E4
2432,Left,1,52,100,528.0,0.239583,Sixteenth,E3
2433,Left,1,64,100,528.25,0.239583,Sixteenth,E4
2434,Left,1,54,100,528.5,0.239583,Sixteenth,F#3
2435,Left,1,64,100,528.75,0.239583,Sixteenth,E4
2436,Left,1,56,100,529.0,0.239583,Sixteenth,G#3
2437,Left,1,64,100,529.25,0.239583,Sixteenth,E4
2438,Left,1,57,100,529.5,0.239583,Sixteenth,A3
2439,Left,1,64,100,529.75,0.239583,Sixteenth,E4
2440,Left,1,59,100,530.0,0.239583,Sixteenth,B3
2441,Left,1,64,100,530.25,0.239583,Sixteenth,E4
2442,Left,1,61,100,530.5,0.239583,Sixteenth,C#4
2443,Left,1,64,100,530.75,0.239583,Sixteenth,E4
2444,Left,1,63,100,531.0,0.239583,Sixteenth,D#4
2445,Left,1,64,100,531.25,0.239583,Sixteenth,E4
2446,Left,1,66,100,531.5,0.239583,Sixteenth,F#4
2447,Left,1,64,100,531.75,0.239583,Sixteenth,E4
2448,Left,1,62,100,532.0,0.239583,Sixteenth,D4
2449,Right,0,80,100,532.0,1.989583,Half,G#5
2450,Left,1,64,100,532.25,0.239583,Sixteenth,E4
2451,Left,1,59,100,532.5,0.239583,Sixteenth,B3
2452,Left,1,64,100,532.75,0.239583,Sixteenth,E4
2453,Left,1,56,100,533.0,0.239583,Sixteenth,G#3
2454,Left,1,64,100,533.25,0.239583,Sixteenth,E4
2455,Left,1,52,100,533.5,0.239583,Sixteenth,E3
2456,Left,1,64,100,533.75,0.239583,Sixteenth,E4
2457,Right,0,81,100,534.0,0.489583,Eighth,A5
2458,Left,1,50,100,534.0,0.239583,Sixteenth,D3
2459,Left,1,64,100,534.25,0.239583,Sixteenth,E4
2460,Left,1,52,100,534.5,0.239583,Sixteenth,E3
2461,Right,0,80,100,534.5,0.489583,Eighth,G#5
2462,Left,1,64,100,534.75,0.239583,Sixteenth,E4
2464,Left,1,50,100,535.0,0.239583,Sixteenth,D3
2463,Right,0,78,100,535.0,0.239583,Sixteenth,F#5
2465,Right,0,80,100,535.125,0.239583,Sixteenth,G#5
2467,Left,1,64,100,535.25,0.239583,Sixteenth,E4
2466,Right,0,78,100,535.25,0.239583,Sixteenth,F#5
2469,Right,0,76,100,535.5,0.489583,Eighth,E5
2468,Left,1,52,100,535.5,0.239583,Sixteenth,E3
2470,Left,1,64,100,535.75,0.239583,Sixteenth,E4
2472,Right,0,76,100,536.0,0.989583,Quarter,E5
2471,Left,1,49,100,536.0,0.239583,Sixteenth,C#3
2473,Left,1,64,100,536.25,0.239583,Sixteenth,E4
2474,Left,1,52,100,536.5,0.239583,Sixteenth,E3
2475,Left,1,64,100,536.75,0.239583,Sixteenth,E4
2477,Right,0,76,100,537.0,0.489583,Eighth,E5
2476,Left,1,57,100,537.0,0.239583,Sixteenth,A3
2478,Right,0,85,118,537.125,1.364583,TiedQuarter-Sixteenth,C#6
2479,Left,1,64,100,537.25,0.239583,Sixteenth,E4
2480,Left,1,61,100,537.5,0.239583,Sixteenth,C#4
2481,Left,1,64,100,537.75,0.239583,Sixteenth,E4
2482,Left,1,57,100,538.0,0.239583,Sixteenth,A3
2483,Left,1,64,100,538.25,0.239583,Sixteenth,E4
2485,Left,1,61,100,538.5,0.239583,Sixteenth,C#4
2484,Right,0,86,100,538.5,0.239583,Sixteenth,D6
2486,Right,0,85,100,538.75,0.239583,Sixteenth,C#6
2487,Left,1,64,100,538.75,0.239583,Sixteenth,E4
2489,Right,0,83,100,539.0,0.489583,Eighth,B5
2488,Left,1,57,100,539.0,0.239583,Sixteenth,A3
2490,Left,1,64,100,539.25,0.239583,Sixteenth,E4
2491,Right,0,81,100,539.5,0.489583,Eighth,A5
2492,Left,1,61,100,539.5,0.239583,Sixteenth,C#4
2493,Left,1,64,100,539.75,0.239583,Sixteenth,E4
2494,Right,0,80,100,540.0,1.989583,Half,G#5
2495,Left,1,62,100,540.0,0.239583,Sixteenth,D4
2496,Left,1,64,100,540.25,0.239583,Sixteenth,E4
2497,Left,1,59,100,540.5,0.239583,Sixteenth,B3
2498,Left,1,64,100,540.75,0.239583,Sixteenth,E4
2499,Left,1,56,100,541.0,0.239583,Sixteenth,G#3
2500,Left,1,64,100,541.25,0.239583,Sixteenth,E4
2501,Left,1,52,100,541.5,0.239583,Sixteenth,E3
2502,Left,1,64,100,541.75,0.239583,Sixteenth,E4
2504,Left,1,50,100,542.0,0.239583,Sixteenth,D3
2503,Right,0,81,100,542.0,0.489583,Eighth,A5
2505,Left,1,64,100,542.25,0.239583,Sixteenth,E4
2506,Left,1,52,100,542.5,0.239583,Sixteenth,E3
2507,Right,0,80,100,542.5,0.489583,Eighth,G#5
2508,Left,1,64,100,542.75,0.239583,Sixteenth,E4
2510,Right,0,78,100,543.0,0.239583,Sixteenth,F#5
2509,Left,1,50,100,543.0,0.239583,Sixteenth,D3
2511,Right,0,80,100,543.125,0.239583,Sixteenth,G#5
2513,Left,1,64,100,543.25,0.239583,Sixteenth,E4
2512,Right,0,78,100,543.25,0.239583,Sixteenth,F#5
2514,Left,1,52,100,543.5,0.239583,Sixteenth,E3
2515,Right,0,76,100,543.5,0.489583,Eighth,E5
2516,Left,1,64,100,543.75,0.239583,Sixteenth,E4
2517,Left,1,49,100,544.0,0.239583,Sixteenth,C#3
2518,Right,0,76,100,544.0,0.989583,Quarter,E5
2519,Left,1,64,100,544.25,0.239583,Sixteenth,E4
2520,Left,1,52,100,544.5,0.239583,Sixteenth,E3
2521,Left,1,64,100,544.75,0.239583,Sixteenth,E4
2522,Right,0,76,103,545.0,0.489583,Eighth,E5
2523,Left,1,57,100,545.0,0.239583,Sixteenth,A3
2524,Right,0,81,108,545.125,0.489583,Eighth,A5
2525,Left,1,64,100,545.25,0.239583,Sixteenth,E4
2526,Right,0,85,113,545.25,0.489583,Eighth,C#6
2527,Right,0,88,121,545.375,1.114583,TiedQuarter-ThirtySecond,E6
2528,Left,1,61,100,545.5,0.239583,Sixteenth,C#4
2529,Left,1,64,100,545.75,0.239583,Sixteenth,E4
2530,Left,1,57,100,546.0,0.239583,Sixteenth,A3
2531,Left,1,64,100,546.25,0.239583,Sixteenth,E4
2533,Right,0,87,100,546.5,0.239583,Sixteenth,D#6
2532,Left,1,61,100,546.5,0.239583,Sixteenth,C#4
2535,Left,1,64,100,546.75,0.239583,Sixteenth,E4
2534,Right,0,88,100,546.75,0.239583,Sixteenth,E6
2536,Right,0,86,100,547.0,0.239583,Sixteenth,D6
2537,Left,1,57,100,547.0,0.239583,Sixteenth,A3
2538,Right,0,85,100,547.25,0.239583,Sixteenth,C#6
2539,Left,1,64,100,547.25,0.239583,Sixteenth,E4
2541,Right,0,83,100,547.5,0.239583,Sixteenth,B5
2540,Left,1,61,100,547.5,0.239583,Sixteenth,C#4
2542,Right,0,81,100,547.75,0.239583,Sixteenth,A5
2543,Left,1,64,100,547.75,0.239583,Sixteenth,E4
2544,Left,1,62,100,548.0,0.239583,Sixteenth,D4
2545,Left,1,64,100,548.25,0.239583,Sixteenth,E4
2546,Left,1,59,100,548.5,0.239583,Sixteenth,B3
2547,Left,1,64,100,548.75,0.239583,Sixteenth,E4
2548,Left,1,56,100,549.0,0.239583,Sixteenth,G#3
2549,Left,1,64,100,549.25,0.239583,Sixteenth,E4
2550,Left,1,52,100,549.5,0.239583,Sixteenth,E3
2551,Right,0,81,100,549.5,0.239583,Sixteenth,A5
2552,Right,0,80,100,549.625,0.239583,Sixteenth,G#5
2553,Right,0,78,100,549.75,0.239583,Sixteenth,F#5
2554,Left,1,64,100,549.75,0.239583,Sixteenth,E4
2555,Right,0,80,100,549.875,0.114583,ThirtySecond,G#5
2557,Left,1,50,100,550.0,0.239583,Sixteenth,D3
2556,Right,0,81,100,550.0,0.489583,Eighth,A5
2558,Left,1,64,100,550.25,0.239583,Sixteenth,E4
2559,Left,1,52,100,550.5,0.239583,Sixteenth,E3
2560,Right,0,80,100,550.5,0.489583,Eighth,G#5
2561,Left,1,64,100,550.75,0.239583,Sixteenth,E4
2563,Right,0,78,100,551.0,0.239583,Sixteenth,F#5
2562,Left,1,50,100,551.0,0.239583,Sixteenth,D3
2564,Right,0,80,100,551.125,0.239583,Sixteenth,G#5
2565,Left,1,64,100,551.25,0.239583,Sixteenth,E4
2566,Right,0,78,100,551.25,0.239583,Sixteenth,F#5
2568,Right,0,76,100,551.5,0.489583,Eighth,E5
2567,Left,1,52,100,551.5,0.239583,Sixteenth,E3
2569,Left,1,64,100,551.75,0.239583,Sixteenth,E4
2570,Right,0,76,100,552.0,0.489583,Eighth,E5
2571,Left,1,49,100,552.0,0.239583,Sixteenth,C#3
2572,Left,1,64,100,552.25,0.239583,Sixteenth,E4
2573,Right,0,69,100,552.5,0.989583,Quarter,A5_A4
2575,Left,1,52,100,552.5,0.239583,Sixteenth,E3
2576,Left,1,64,100,552.75,0.239583,Sixteenth,E4
2577,Left,1,49,100,553.0,0.239583,Sixteenth,C#3
2578,Left,1,64,100,553.25,0.239583,Sixteenth,E4
2580,Left,1,52,100,553.5,0.239583,Sixteenth,E3
2579,Right,0,79,100,553.5,0.489583,Eighth,G5_G4
2582,Left,1,64,100,553.75,0.239583,Sixteenth,E4
2583,Left,1,48,100,554.0,0.239583,Sixteenth,C3
2584,Right,0,78,100,554.0,1.489583,Eighth,F#5_F#4
2586,Left,1,64,100,554.25,0.239583,Sixteenth,E4
2587,Left,1,50,100,554.5,0.239583,Sixteenth,D3
2588,Right,0,79,100,554.5,0.239583,Sixteenth,G5
2589,Right,0,78,100,554.625,0.239583,Sixteenth,F#5
2591,Left,1,64,100,554.75,0.239583,Sixteenth,E4
2590,Right,0,76,100,554.75,0.239583,Sixteenth,E5
2593,Right,0,78,100,555.0,0.114583,ThirtySecond,F#5
2592,Left,1,48,100,555.0,0.239583,Sixteenth,C3
2594,Left,1,64,100,555.25,0.239583,Sixteenth,E4
2595,Right,0,81,100,555.5,0.489583,Eighth,A5_A4
2597,Left,1,50,100,555.5,0.239583,Sixteenth,D3
2598,Left,1,64,100,555.75,0.239583,Sixteenth,E4
2599,Right,0,81,100,556.0,0.989583,Quarter,A5_A4
2601,Left,1,47,100,556.0,0.239583,Sixteenth,B2
2602,Left,1,62,100,556.25,0.239583,Sixteenth,D4
2603,Left,1,50,100,556.5,0.239583,Sixteenth,D3
2604,Left,1,62,100,556.75,0.239583,Sixteenth,D4
2605,Left,1,47,100,557.0,0.239583,Sixteenth,B2
2606,Right,0,79,100,557.0,0.989583,Quarter,G5_G4
2608,Left,1,62,100,557.25,0.239583,Sixteenth,D4
2609,Left,1,50,100,557.5,0.239583,Sixteenth,D3
2610,Left,1,62,100,557.75,0.239583,Sixteenth,D4
2611,Left,1,47,100,558.0,0.239583,Sixteenth,B2
2612,Left,1,61,100,558.25,0.239583,Sixteenth,C#4
2613,Left,1,49,100,558.5,0.239583,Sixteenth,C#3
2614,Left,1,61,100,558.75,0.239583,Sixteenth,C#4
2617,Left,1,47,100,559.0,0.239583,Sixteenth,B2
2615,Right,0,77,100,559.0,0.989583,Quarter,F5_F4
2618,Left,1,61,100,559.25,0.239583,Sixteenth,C#4
2619,Left,1,49,100,559.5,0.239583,Sixteenth,C#3
2620,Left,1,61,100,559.75,0.239583,Sixteenth,C#4
2622,Left,1,46,100,560.0,0.239583,Sixteenth,A#2
2621,Right,0,80,100,560.0,0.489583,Eighth,G#5_G#4
2624,Left,1,61,100,560.25,0.239583,Sixteenth,C#4
2625,Right,0,66,100,560.5,0.989583,Quarter,F#5_F#4
2627,Left,1,49,100,560.5,0.239583,Sixteenth,C#3
2628,Left,1,61,100,560.75,0.239583,Sixteenth,C#4
2629,Left,1,46,100,561.0,0.239583,Sixteenth,A#2
2630,Left,1,61,100,561.25,0.239583,Sixteenth,C#4
2632,Left,1,49,100,561.5,0.239583,Sixteenth,C#3
2631,Right,0,76,100,561.5,0.489583,Eighth,E5_E4
2634,Left,1,61,100,561.75,0.239583,Sixteenth,C#4
2637,Left,1,45,100,562.0,0.239583,Sixteenth,A2
2635,Right,0,75,100,562.0,1.489583,Eighth,D#5_D#4
2638,Left,1,59,100,562.25,0.239583,Sixteenth,B3
2639,Left,1,47,100,562.5,0.239583,Sixteenth,B2
2640,Right,0,76,100,562.5,0.239583,Sixteenth,E5
2641,Right,0,75,100,562.625,0.239583,Sixteenth,D#5
2642,Left,1,59,100,562.75,0.239583,Sixteenth,B3
2643,Right,0,73,100,562.75,0.239583,Sixteenth,C#5
2644,Right,0,75,100,562.875,0.114583,ThirtySecond,D#5
2646,Left,1,45,100,563.0,0.239583,Sixteenth,A2
2645,Right,0,75,100,563.0,0.489583,Eighth,D#5
2647,Left,1,59,100,563.25,0.239583,Sixteenth,B3
2648,Right,0,78,100,563.5,0.489583,Eighth,F#5_F#4
2650,Left,1,47,100,563.5,0.239583,Sixteenth,B2
2651,Left,1,59,100,563.75,0.239583,Sixteenth,B3
2652,Left,1,44,100,564.0,0.239583,Sixteenth,G#2
2653,Right,0,78,100,564.0,0.989583,Quarter,F#5_F#4
2655,Left,1,59,100,564.25,0.239583,Sixteenth,B3
2656,Left,1,47,100,564.5,0.239583,Sixteenth,B2
2657,Left,1,59,100,564.75,0.239583,Sixteenth,B3
2658,Right,0,76,100,565.0,0.989583,Quarter,E5_E4
2660,Left,1,44,100,565.0,0.239583,Sixteenth,G#2
2661,Left,1,59,100,565.25,0.239583,Sixteenth,B3
2662,Left,1,47,100,565.5,0.239583,Sixteenth,B2
2663,Left,1,59,100,565.75,0.239583,Sixteenth,B3
2664,Left,1,43,100,566.0,0.239583,Sixteenth,G2
2665,Left,1,57,100,566.25,0.239583,Sixteenth,A3
2666,Left,1,45,100,566.5,0.239583,Sixteenth,A2
2667,Left,1,57,100,566.75,0.239583,Sixteenth,A3
2668,Right,0,73,100,567.0,0.989583,Quarter,C#5_C#4
2669,Left,1,43,100,567.0,0.239583,Sixteenth,G2
2671,Left,1,57,100,567.25,0.239583,Sixteenth,A3
2672,Left,1,45,100,567.5,0.239583,Sixteenth,A2
2673,Left,1,57,100,567.75,0.239583,Sixteenth,A3
2676,Left,1,42,100,568.0,0.239583,Sixteenth,F#2
2674,Right,0,64,100,568.0,0.489583,Eighth,E5_E4
2677,Left,1,57,100,568.25,0.239583,Sixteenth,A3
2678,Right,0,74,100,568.5,0.989583,Quarter,D5_D4
2679,Left,1,45,100,568.5,0.239583,Sixteenth,A2
2681,Left,1,57,100,568.75,0.239583,Sixteenth,A3
2682,Left,1,42,100,569.0,0.239583,Sixteenth,F#2
2683,Left,1,57,100,569.25,0.239583,Sixteenth,A3
2685,Left,1,45,100,569.5,0.239583,Sixteenth,A2
2684,Right,0,73,100,569.5,0.989583,Quarter,C#5_C#4
2687,Left,1,57,100,569.75,0.239583,Sixteenth,A3
2688,Left,1,38,100,570.0,0.239583,Sixteenth,D2
2689,Left,1,57,100,570.25,0.239583,Sixteenth,A3
2691,Right,0,71,100,570.5,0.989583,Quarter,B4_B3
2690,Left,1,45,100,570.5,0.239583,Sixteenth,A2
2693,Left,1,57,100,570.75,0.239583,Sixteenth,A3
2694,Left,1,39,100,571.0,0.239583,Sixteenth,D#2
2695,Left,1,57,100,571.25,0.239583,Sixteenth,A3
2696,Left,1,45,100,571.5,0.239583,Sixteenth,A2
2697,Right,0,78,100,571.5,0.489583,Eighth,F#5_F#4
2699,Left,1,57,100,571.75,0.239583,Sixteenth,A3
2700,Right,0,69,100,572.0,1.489583,DottedQuarter,A4
2701,Left,1,40,100,572.0,0.239583,Sixteenth,E2
2702,Left,1,45,100,572.25,0.239583,Sixteenth,A2
2703,Left,1,49,100,572.5,0.239583,Sixteenth,C#3
2704,Left,1,52,100,572.75,0.239583,Sixteenth,E3
2705,Left,1,40,100,573.0,0.239583,Sixteenth,E2
2706,Left,1,45,100,573.25,0.239583,Sixteenth,A2
2708,Right,0,71,100,573.5,0.239583,Sixteenth,B4
2707,Left,1,49,100,573.5,0.239583,Sixteenth,C#3
2709,Right,0,69,100,573.625,0.239583,Sixteenth,A4
2710,Left,1,52,100,573.75,0.239583,Sixteenth,E3
2711,Right,0,68,100,573.75,0.239583,Sixteenth,G#4
2712,Right,0,69,100,573.875,0.114583,ThirtySecond,A4
2714,Left,1,40,100,574.0,0.239583,Sixteenth,E2
2713,Right,0,73,100,574.0,1.989583,Half,G#4_D4_C#5
2717,Left,1,47,100,574.25,0.239583,Sixteenth,B2
2718,Left,1,50,100,574.5,0.239583,Sixteenth,D3
2719,Left,1,52,100,574.75,0.239583,Sixteenth,E3
2720,Left,1,40,100,575.0,0.239583,Sixteenth,E2
2721,Left,1,47,100,575.25,0.239583,Sixteenth,B2
2723,Left,1,50,100,575.5,0.239583,Sixteenth,D3
2722,Right,0,71,100,575.5,0.489583,Eighth,B4
2724,Left,1,52,100,575.75,0.239583,Sixteenth,E3
2725,Right,0,61,80,576.0,0.989583,Quarter,C#4_A4
2727,Left,1,45,80,576.166667,0.322917,Triplet,A2
2728,Left,1,49,80,576.333333,0.322917,Triplet,C#3
2729,Left,1,52,80,576.5,0.322917,Triplet,E3
2730,Left,1,57,80,576.666667,0.322917,Triplet,A3
2731,Left,1,61,80,576.833333,0.322917,Triplet,C#4
2732,Right,0,64,80,577.0,0.322917,Triplet,E4
2733,Right,0,69,80,577.166667,0.322917,Triplet,A4
2734,Right,0,73,80,577.333333,0.322917,Triplet,C#5
2735,Right,0,76,80,577.5,0.322917,Triplet,E5
2736,Right,0,81,80,577.666667,0.322917,Triplet,A5
2737,Right,0,85,80,577.833333,0.15625,TripletSixteenth,C#6
2738,Left,1,57,80,578.0,0.489583,Eighth,A3
2739,Right,0,88,80,578.0,0.989583,Quarter,E6
2740,Left,1,64,80,578.5,0.489583,Eighth,E4
2741,Right,0,88,80,579.0,0.989583,Quarter,E6
2742,Left,1,61,80,579.0,0.489583,Eighth,C#4
2743,Left,1,64,80,579.5,0.489583,Eighth,E4
2745,Right,0,88,80,580.0,0.489583,Eighth,E6
2744,Left,1,59,80,580.0,0.489583,Eighth,B3
2747,Left,1,64,80,580.5,0.489583,Eighth,E4
2746,Right,0,68,80,580.5,0.239583,Sixteenth,G#4
2748,Right,0,68,80,581.0,1.989583,Half,G#4
2749,Left,1,62,80,581.0,0.489583,Eighth,D4
2750,Left,1,64,80,581.5,0.489583,Eighth,E4
2751,Left,1,59,80,582.0,0.489583,Eighth,B3
2752,Left,1,64,80,582.5,0.489583,Eighth,E4
2753,Left,1,62,80,583.0,0.489583,Eighth,D4
2754,Right,0,68,80,583.0,0.989583,Quarter,G#4
2755,Left,1,64,80,583.5,0.489583,Eighth,E4
2756,Left,1,61,80,584.0,0.489583,Eighth,C#4
2758,Left,1,64,80,584.5,0.489583,Eighth,E4
2757,Right,0,68,80,584.5,0.239583,Sixteenth,G#4
2759,Right,0,69,80,584.75,0.239583,Sixteenth,A4
2760,Left,1,56,80,585.0,0.489583,Eighth,G#3
2762,Left,1,64,80,585.5,0.489583,Eighth,E4
2761,Right,0,70,80,585.5,0.239583,Sixteenth,A#4
2763,Right,0,71,80,585.75,0.239583,Sixteenth,B4
2764,Left,1,57,80,586.0,0.489583,Eighth,A3
2765,Right,0,72,80,586.5,0.239583,Sixteenth,C5
2766,Left,1,64,80,586.5,0.489583,Eighth,E4
2767,Right,0,73,80,586.75,0.239583,Sixteenth,C#5
2768,Left,1,54,80,587.0,0.489583,Eighth,F#3
2769,Right,0,73,80,587.5,0.239583,Sixteenth,C#5
2770,Left,1,57,80,587.5,0.489583,Eighth,A3
2771,Right,0,74,80,587.75,0.239583,Sixteenth,D5
2772,Left,1,52,80,588.0,0.489583,Eighth,E3
2773,Right,0,76,80,588.0,1.239583,TiedQuarter-Sixteenth,E5
2774,Left,1,61,80,588.5,0.489583,Eighth,C#4
2775,Left,1,57,80,589.0,0.489583,Eighth,A3
2776,Right,0,75,80,589.25,0.239583,Sixteenth,D#5
2777,Right,0,76,80,589.375,0.239583,Sixteenth,E5
2779,Left,1,61,80,589.5,0.489583,Eighth,C#4
2778,Right,0,78,80,589.5,0.239583,Sixteenth,F#5
2780,Right,0,76,80,589.625,0.239583,Sixteenth,E5
2781,Right,0,74,80,589.75,0.239583,Sixteenth,D5
2782,Right,0,73,80,589.875,0.114583,ThirtySecond,C#5
2783,Left,1,52,80,590.0,0.489583,Eighth,E3
2784,Right,0,71,80,590.0,0.989583,Quarter,B4
2785,Left,1,56,80,590.5,0.489583,Eighth,G#3
2786,Left,1,50,80,591.0,0.489583,Eighth,D3
2787,Left,1,56,80,591.5,0.489583,Eighth,G#3
2788,Left,1,49,80,592.0,0.489583,Eighth,C#3
2790,Right,0,57,80,592.5,0.239583,Sixteenth,A3
2789,Left,1,57,80,592.5,0.489583,Eighth,A3
2791,Right,0,61,80,592.75,0.239583,Sixteenth,C#4
2792,Right,0,64,80,593.0,0.322917,Triplet,E4
2793,Left,1,52,80,593.0,0.489583,Eighth,E3
2794,Right,0,69,80,593.166667,0.322917,Triplet,A4
2795,Right,0,73,80,593.333333,0.322917,Triplet,C#5
2797,Right,0,76,80,593.5,0.322917,Triplet,E5
2796,Left,1,57,80,593.5,0.489583,Eighth,A3
2798,Right,0,81,80,593.666667,0.322917,Triplet,A5
2799,Right,0,85,80,593.833333,0.15625,TripletSixteenth,C#6
2801,Right,0,88,80,594.0,0.989583,Quarter,E6
2800,Left,1,49,80,594.0,0.489583,Eighth,C#3
2802,Left,1,57,80,594.5,0.489583,Eighth,A3
2804,Right,0,88,80,595.0,0.989583,Quarter,E6
2803,Left,1,52,80,595.0,0.489583,Eighth,E3
2805,Left,1,57,80,595.5,0.489583,Eighth,A3
2807,Left,1,49,80,596.0,0.489583,Eighth,C#3
2806,Right,0,88,80,596.0,0.489583,Eighth,E6
2809,Left,1,58,80,596.5,0.489583,Eighth,A#3
2808,Right,0,70,80,596.5,0.239583,Sixteenth,A#4
2811,Left,1,52,80,597.0,0.489583,Eighth,E3
2810,Right,0,70,80,597.0,1.489583,DottedQuarter,A#4
2812,Left,1,58,80,597.5,0.489583,Eighth,A#3
2813,Left,1,48,80,598.0,0.489583,Eighth,C3
2815,Left,1,58,80,598.5,0.489583,Eighth,A#3
2814,Right,0,79,80,598.5,0.489583,Eighth,G5
2816,Left,1,52,80,599.0,0.489583,Eighth,E3
2817,Right,0,76,80,599.0,0.489583,Eighth,E5
2819,Left,1,58,80,599.5,0.489583,Eighth,A#3
2818,Right,0,70,80,599.5,0.489583,Eighth,A#4
2821,Left,1,48,80,600.0,0.489583,Eighth,C3
2820,Right,0,69,80,600.0,0.489583,Eighth,A4
2822,Right,0,72,80,600.5,0.489583,Eighth,C5
2823,Left,1,57,80,600.5,0.489583,Eighth,A3
2824,Left,1,53,80,601.0,0.489583,Eighth,F3
2825,Right,0,77,80,601.0,0.489583,Eighth,F5
2827,Left,1,57,80,601.5,0.489583,Eighth,A3
2826,Right,0,72,80,601.5,0.489583,Eighth,C5
2829,Left,1,48,80,602.0,0.489583,Eighth,C3
2828,Right,0,81,80,602.0,0.489583,Eighth,A5
2831,Left,1,57,80,602.5,0.489583,Eighth,A3
2830,Right,0,77,80,602.5,0.489583,Eighth,F5
2832,Right,0,72,80,603.0,0.489583,Eighth,C5
2833,Left,1,53,80,603.0,0.489583,Eighth,F3
2834,Left,1,57,80,603.5,0.489583,Eighth,A3
2835,Right,0,69,80,603.5,0.489583,Eighth,A4
2836,Right,0,70,80,604.0,0.239583,Sixteenth,A#4
2837,Left,1,48,80,604.0,0.489583,Eighth,C3
2838,Right,0,72,80,604.125,0.239583,Sixteenth,C5
2839,Right,0,70,80,604.25,0.239583,Sixteenth,A#4
2840,Right,0,72,80,604.375,0.239583,Sixteenth,C5
2842,Right,0,70,80,604.5,0.239583,Sixteenth,A#4
2841,Left,1,58,80,604.5,0.489583,Eighth,A#3
2843,Right,0,72,80,604.625,0.239583,Sixteenth,C5
2844,Right,0,69,80,604.75,0.239583,Sixteenth,A4
2845,Right,0,70,80,604.875,0.114583,ThirtySecond,A#4
2846,Left,1,55,80,605.0,0.489583,Eighth,G3
2847,Right,0,79,80,605.0,1.489583,DottedQuarter,G5
2848,Left,1,58,80,605.5,0.489583,Eighth,A#3
2849,Left,1,48,80,606.0,0.489583,Eighth,C3
2850,Left,1,58,80,606.5,0.489583,Eighth,A#3
2851,Right,0,76,80,606.5,0.489583,Eighth,E5
2853,Right,0,72,80,607.0,0.489583,Eighth,C5
2852,Left,1,52,80,607.0,0.489583,Eighth,E3
2855,Right,0,70,80,607.5,0.489583,Eighth,A#4
2854,Left,1,58,80,607.5,0.489583,Eighth,A#3
2857,Left,1,48,80,608.0,0.489583,Eighth,C3
2856,Right,0,69,80,608.0,0.239583,Sixteenth,A4
2858,Right,0,72,80,608.25,0.239583,Sixteenth,C5
2860,Left,1,57,80,608.5,0.489583,Eighth,A3
2859,Right,0,77,80,608.5,0.239583,Sixteenth,F5
2861,Right,0,76,80,608.75,0.239583,Sixteenth,E5
2863,Right,0,77,80,609.0,0.239583,Sixteenth,F5
2862,Left,1,53,80,609.0,0.489583,Eighth,F3
2864,Right,0,72,80,609.25,0.239583,Sixteenth,C5
2866,Right,0,81,80,609.5,0.239583,Sixteenth,A5
2865,Left,1,57,80,609.5,0.489583,Eighth,A3
2867,Right,0,80,80,609.75,0.239583,Sixteenth,G#5
2869,Right,0,81,80,610.0,0.239583,Sixteenth,A5
2868,Left,1,48,80,610.0,0.489583,Eighth,C3
2870,Right,0,77,80,610.25,0.239583,Sixteenth,F5
2871,Left,1,57,80,610.5,0.489583,Eighth,A3
2872,Right,0,84,80,610.5,0.239583,Sixteenth,C6
2873,Right,0,83,80,610.75,0.239583,Sixteenth,B5
2874,Left,1,53,80,611.0,0.489583,Eighth,F3
2875,Right,0,84,80,611.0,0.239583,Sixteenth,C6
2876,Right,0,81,80,611.25,0.239583,Sixteenth,A5
2877,Right,0,77,80,611.5,0.239583,Sixteenth,F5
2878,Left,1,57,80,611.5,0.489583,Eighth,A3
2879,Right,0,72,80,611.75,0.239583,Sixteenth,C5
2881,Left,1,48,80,612.0,0.489583,Eighth,C3
2880,Right,0,70,80,612.0,0.239583,Sixteenth,A#4
2882,Right,0,72,80,612.125,0.239583,Sixteenth,C5
2883,Right,0,70,80,612.25,0.239583,Sixteenth,A#4
2884,Right,0,72,80,612.375,0.239583,Sixteenth,C5
2885,Right,0,70,80,612.5,0.239583,Sixteenth,A#4
2886,Left,1,58,80,612.5,0.489583,Eighth,A#3
2887,Right,0,72,80,612.625,0.239583,Sixteenth,C5
2888,Right,0,69,80,612.75,0.239583,Sixteenth,A4
2889,Right,0,70,80,612.875,0.114583,ThirtySecond,A#4
2891,Left,1,55,80,613.0,0.489583,Eighth,G3
2890,Right,0,79,101,613.0,1.989583,Half,G5
2892,Left,1,58,80,613.5,0.489583,Eighth,A#3
2893,Left,1,48,80,614.0,0.489583,Eighth,C3
2894,Left,1,58,80,614.5,0.489583,Eighth,A#3
2895,Left,1,52,80,615.0,0.489583,Eighth,E3
2896,Right,0,70,80,615.0,0.989583,Quarter,A#4
2897,Left,1,58,80,615.5,0.489583,Eighth,A#3
2899,Right,0,70,80,616.0,0.989583,Quarter,A#4
2898,Left,1,49,80,616.0,0.489583,Eighth,C#3
2900,Left,1,58,82,616.5,0.489583,Eighth,A#3
2902,Right,0,79,85,617.0,1.989583,Half,G5
2901,Left,1,52,85,617.0,0.489583,Eighth,E3
2903,Left,1,58,88,617.5,0.489583,Eighth,A#3
2904,Left,1,49,91,618.0,0.489583,Eighth,C#3
2905,Left,1,58,94,618.5,0.489583,Eighth,A#3
2907,Right,0,70,97,619.0,0.989583,Quarter,A#4
2906,Left,1,52,97,619.0,0.489583,Eighth,E3
2908,Left,1,58,99,619.5,0.489583,Eighth,A#3
2910,Right,0,71,90,620.0,0.489583,Eighth,B4
2909,Left,1,50,90,620.0,0.489583,Eighth,D3
2911,Right,0,78,88,620.5,0.489583,Eighth,F#5
2912,Left,1,59,88,620.5,0.489583,Eighth,B3
2914,Right,0,77,85,621.0,0.489583,Eighth,F5
2913,Left,1,54,85,621.0,0.489583,Eighth,F#3
2915,Left,1,59,82,621.5,0.489583,Eighth,B3
2916,Right,0,78,82,621.5,0.489583,Eighth,F#5
2917,Left,1,50,79,622.0,0.489583,Eighth,D3
2918,Right,0,76,79,622.0,0.489583,Eighth,E5
2919,Left,1,59,76,622.5,0.489583,Eighth,B3
2920,Right,0,74,76,622.5,0.489583,Eighth,D5
2921,Left,1,54,73,623.0,0.489583,Eighth,F#3
2922,Right,0,73,73,623.0,0.489583,Eighth,C#5
2923,Left,1,59,71,623.5,0.489583,Eighth,B3
2924,Right,0,71,71,623.5,0.489583,Eighth,B4
2926,Left,1,52,70,624.0,0.489583,Eighth,E3
2925,Right,0,69,70,624.0,1.489583,DottedQuarter,A4
2927,Left,1,61,70,624.5,0.489583,Eighth,C#4
2928,Left,1,57,70,625.0,0.489583,Eighth,A3
2930,Left,1,61,70,625.5,0.489583,Eighth,C#4
2929,Right,0,71,70,625.5,0.239583,Sixteenth,B4
2931,Right,0,69,70,625.625,0.239583,Sixteenth,A4
2932,Right,0,68,70,625.75,0.239583,Sixteenth,G#4
2933,Right,0,69,70,625.875,0.114583,ThirtySecond,A4
2935,Left,1,52,70,626.0,0.489583,Eighth,E3
2934,Right,0,73,70,626.0,1.489583,DottedQuarter,C#5
2936,Left,1,62,70,626.5,0.489583,Eighth,D4
2937,Left,1,56,70,627.0,0.489583,Eighth,G#3
2938,Left,1,62,70,627.5,0.489583,Eighth,D4
2939,Right,0,71,70,627.5,0.489583,Eighth,B4
2941,Right,0,69,70,628.0,0.489583,Eighth,A4
2940,Left,1,61,70,628.0,0.989583,Quarter,C#4_A3
2943,Right,0,64,89,628.5,0.489583,Eighth,E4_C#4
2945,Right,0,64,100,629.0,0.489583,Eighth,E4_C#4
2946,Left,1,33,100,629.0,0.322917,Triplet,A1
2948,Left,1,37,100,629.166667,0.322917,Triplet,C#2
2949,Left,1,40,100,629.333333,0.322917,Triplet,E2
2950,Right,0,61,100,629.5,0.489583,Eighth,E4_C#4
2952,Left,1,45,100,629.5,0.322917,Triplet,A2
2953,Left,1,49,100,629.666667,0.322917,Triplet,C#3
2954,Left,1,52,100,629.833333,0.15625,TripletSixteenth,E3
2956,Left,1,57,100,630.0,0.989583,Quarter,A3
2955,Right,0,61,100,630.0,0.489583,Eighth,E4_C#4
2958,Right,0,64,100,630.5,0.489583,Eighth,E4_C#4
2961,Right,0,61,100,631.0,0.489583,Eighth,E4_C#4
2960,Left,1,57,100,631.0,0.989583,Quarter,A3
2963,Right,0,61,100,631.5,0.489583,Eighth,E4_C#4
2965,Left,1,56,100,632.0,0.989583,Eighth,G#3_E4_D4_B3
2969,Left,1,62,100,632.5,0.489583,Eighth,E4_D4_B3
2972,Left,1,64,100,633.0,0.489583,Eighth,E4_D4_B3
2975,Right,0,68,100,633.166667,0.322917,Triplet,G#4
2976,Right,0,71,100,633.333333,0.322917,Triplet,B4
2978,Right,0,76,100,633.5,0.322917,Triplet,E5
2977,Left,1,59,100,633.5,0.489583,Eighth,E4_D4_B3
2981,Right,0,80,100,633.666667,0.322917,Triplet,G#5
2982,Right,0,83,100,633.833333,0.15625,TripletSixteenth,B5
2983,Right,0,86,100,634.0,0.989583,Quarter,D6
2984,Left,1,56,100,634.0,0.489583,Eighth,G#3_E4_B3
2987,Left,1,64,100,634.5,0.489583,Eighth,G#3_E4_B3
2993,Right,0,86,100,635.0,0.989583,Quarter,D6
2990,Left,1,64,100,635.0,0.489583,Eighth,G#3_E4_B3
2994,Left,1,64,100,635.5,0.489583,Eighth,G#3_E4_B3
2997,Left,1,57,100,636.0,0.489583,Eighth,E4_C#4_A3
2999,Right,0,85,100,636.0,0.989583,Quarter,C#6
3001,Left,1,64,100,636.5,0.489583,Eighth,E4_C#4_A3
3005,Right,0,57,100,637.0,0.489583,Eighth,E4_C#4_A3
3004,Left,1,33,100,637.0,0.322917,Triplet,A1
3008,Left,1,37,100,637.166667,0.322917,Triplet,C#2
3009,Left,1,40,100,637.333333,0.322917,Triplet,E2
3011,Right,0,64,100,637.5,0.489583,Eighth,E4_C#4_A3
3010,Left,1,45,100,637.5,0.322917,Triplet,A2
3014,Left,1,49,100,637.666667,0.322917,Triplet,C#3
3015,Left,1,52,100,637.833333,0.15625,TripletSixteenth,E3
3016,Right,0,64,100,638.0,0.489583,Eighth,E4_C#4
3018,Left,1,57,100,638.0,0.989583,Quarter,A3
3019,Right,0,61,100,638.5,0.489583,Eighth,E4_C#4
3023,Left,1,57,100,639.0,0.989583,Quarter,A3
3021,Right,0,64,100,639.0,0.489583,Eighth,E4_C#4
3024,Right,0,61,100,639.5,0.489583,Eighth,E4_C#4
3026,Left,1,64,100,640.0,0.989583,Eighth,G#3_E4_D4_B3
3030,Left,1,64,100,640.5,0.489583,Eighth,E4_D4_B3
3033,Left,1,59,100,641.0,0.489583,Eighth,E4_D4_B3
3036,Right,0,68,100,641.166667,0.322917,Triplet,G#4
3037,Right,0,71,100,641.333333,0.322917,Triplet,B4
3038,Left,1,64,100,641.5,0.489583,Eighth,E4_D4_B3
3041,Right,0,76,100,641.5,0.322917,Triplet,E5
3042,Right,0,80,100,641.666667,0.322917,Triplet,G#5
3043,Right,0,83,100,641.833333,0.15625,TripletSixteenth,B5
3044,Right,0,86,100,642.0,0.989583,Quarter,D6
3045,Left,1,64,100,642.0,0.489583,Eighth,G#3_E4_B3
3048,Left,1,59,100,642.5,0.489583,Eighth,G#3_E4_B3
3051,Left,1,64,100,643.0,0.489583,Eighth,G#3_E4_B3
3052,Right,0,86,100,643.0,0.989583,Quarter,D6
3055,Left,1,56,100,643.5,0.489583,Eighth,G#3_E4_B3
3059,Right,0,85,100,644.0,0.989583,Quarter,C#6
3058,Left,1,64,100,644.0,0.489583,Eighth,E4_C#4_A3
3062,Left,1,57,100,644.5,0.489583,Eighth,E4_C#4_A3
3065,Right,0,61,100,645.0,0.489583,Eighth,E4_C#4_A3
3067,Left,1,33,100,645.0,0.322917,Triplet,A1
3069,Left,1,37,100,645.166667,0.322917,Triplet,C#2
3070,Left,1,40,100,645.333333,0.322917,Triplet,E2
3071,Left,1,45,100,645.5,0.322917,Triplet,A2
3072,Right,0,57,100,645.5,0.489583,Eighth,E4_C#4_A3
3075,Left,1,49,100,645.666667,0.322917,Triplet,C#3
3076,Left,1,52,100,645.833333,0.15625,TripletSixteenth,E3
3077,Right,0,61,100,646.0,0.489583,Eighth,E4_C#4
3079,Left,1,57,100,646.0,0.989583,Quarter,A3
3080,Right,0,64,100,646.5,0.489583,Eighth,E4_C#4
3082,Left,1,57,100,647.0,0.989583,Quarter,A3
3083,Right,0,61,100,647.0,0.489583,Eighth,E4_C#4
3085,Right,0,61,100,647.5,0.489583,Eighth,E4_C#4
3087,Left,1,57,100,648.0,0.489583,Eighth,G3_A3
3088,Right,0,61,100,648.0,0.989583,Quarter,E4_C#4
3091,Left,1,55,100,648.5,0.489583,Eighth,G3_A3
3094,Left,1,57,100,649.0,0.489583,Eighth,G3_A3
3093,Right,0,57,100,649.0,0.322917,Triplet,A3
3096,Right,0,61,100,649.166667,0.322917,Triplet,C#4
3097,Right,0,64,100,649.333333,0.322917,Triplet,E4
3098,Right,0,69,100,649.5,0.322917,Triplet,A4
3099,Left,1,57,100,649.5,0.489583,Eighth,G3_A3
3101,Right,0,73,100,649.666667,0.322917,Triplet,C#5
3102,Right,0,76,100,649.833333,0.15625,TripletSixteenth,E5
3106,Right,0,81,100,650.0,0.989583,Quarter,A5
3103,Left,1,61,100,650.0,0.489583,Eighth,G3_C#4_A3
3107,Left,1,61,100,650.5,0.489583,Eighth,G3_C#4_A3
3113,Right,0,81,100,651.0,0.989583,Quarter,A5
3110,Left,1,61,100,651.0,0.489583,Eighth,G3_C#4_A3
3114,Left,1,55,100,651.5,0.489583,Eighth,G3_C#4_A3
3117,Right,0,81,100,652.0,0.489583,Eighth,A5
3118,Left,1,54,100,652.0,0.489583,Eighth,F#3_A3
3122,Right,0,62,100,652.5,0.239583,Sixteenth,D4
3120,Left,1,54,100,652.5,0.489583,Eighth,F#3_A3
3123,Right,0,62,100,653.0,1.989583,Half,D4
3124,Left,1,57,100,653.0,0.489583,Eighth,F#3_A3
3126,Left,1,57,100,653.5,0.489583,Eighth,F#3_A3
3128,Left,1,57,100,654.0,0.489583,Eighth,F3_A3
3130,Left,1,57,100,654.5,0.489583,Eighth,F3_A3
3132,Left,1,53,100,655.0,0.489583,Eighth,F3_A3
3133,Right,0,63,100,655.0,0.989583,Quarter,D#4
3135,Left,1,57,100,655.5,0.489583,Eighth,F3_A3
3138,Left,1,52,100,656.0,0.489583,Eighth,E3
3137,Right,0,64,100,656.0,1.489583,DottedQuarter,E4_C#4
3140,Left,1,52,100,656.5,0.489583,Eighth,E3
3141,Left,1,40,100,657.0,0.489583,Eighth,E2
3143,Right,0,61,100,657.5,0.489583,Eighth,C#4_A3
3142,Left,1,52,100,657.5,0.489583,Eighth,E3
3146,Right,0,59,100,658.0,1.489583,DottedQuarter,D4_B3
3145,Left,1,40,100,658.0,0.489583,Eighth,E2
3148,Left,1,52,100,658.5,0.489583,Eighth,E3
3149,Left,1,40,100,659.0,0.489583,Eighth,E2
3151,Right,0,59,100,659.5,0.489583,Eighth,G#3_B3
3150,Left,1,52,100,659.5,0.489583,Eighth,E3
3154,Left,1,45,100,660.0,0.489583,Eighth,A2
3153,Right,0,61,100,660.0,0.989583,Quarter,C#4
3155,Left,1,57,100,660.5,0.489583,Eighth,A3
3156,Right,0,57,100,661.0,0.322917,Triplet,A3
3157,Left,1,57,100,661.0,0.489583,Eighth,A3
3158,Right,0,61,100,661.166667,0.322917,Triplet,C#4
3159,Right,0,64,100,661.333333,0.322917,Triplet,E4
3160,Left,1,57,100,661.5,0.489583,Eighth,A3
3161,Right,0,69,100,661.5,0.322917,Triplet,A4
3162,Right,0,73,100,661.666667,0.322917,Triplet,C#5
3163,Right,0,76,100,661.833333,0.15625,TripletSixteenth,E5
3167,Right,0,81,100,662.0,0.989583,Quarter,A5
3164,Left,1,61,100,662.0,0.489583,Eighth,G3_C#4_A3
3168,Left,1,61,100,662.5,0.489583,Eighth,G3_C#4_A3
3172,Left,1,61,100,663.0,0.489583,Eighth,G3_C#4_A3
3171,Right,0,81,100,663.0,0.989583,Quarter,A5
3175,Left,1,61,100,663.5,0.489583,Eighth,G3_C#4_A3
3179,Left,1,57,110,664.0,0.489583,Eighth,F#3_A3
3178,Right,0,81,110,664.0,0.489583,Eighth,A5
3182,Left,1,54,110,664.5,0.489583,Eighth,F#3_A3
3181,Right,0,62,110,664.5,0.239583,Sixteenth,D4
3185,Left,1,54,110,665.0,0.489583,Eighth,F#3_A3
3184,Right,0,62,110,665.0,1.989583,Half,D4
3187,Left,1,54,110,665.5,0.489583,Eighth,F#3_A3
3189,Left,1,54,110,666.0,0.489583,Eighth,F#3_A3
3191,Left,1,54,110,666.5,0.489583,Eighth,F#3_A3
3193,Left,1,57,110,667.0,0.489583,Eighth,F#3_A3
3194,Right,0,81,110,667.0,0.989583,Quarter,A5
3196,Left,1,54,110,667.5,0.489583,Eighth,F#3_A3
3198,Left,1,60,110,668.0,0.489583,Eighth,F3_C4_A3
3201,Right,0,81,110,668.0,0.489583,Eighth,A5
3202,Right,0,63,110,668.5,0.239583,Sixteenth,D#4
3203,Left,1,60,110,668.5,0.489583,Eighth,F3_C4_A3
3206,Left,1,57,110,669.0,0.489583,Eighth,F3_C4_A3
3207,Right,0,63,110,669.0,1.989583,Half,D#4
3210,Left,1,57,110,669.5,0.489583,Eighth,F3_C4_A3
3213,Left,1,57,110,670.0,0.489583,Eighth,F3_C4_A3
3216,Left,1,57,110,670.5,0.489583,Eighth,F3_C4_A3
3222,Right,0,81,110,671.0,0.989583,Quarter,A5
3219,Left,1,63,110,671.0,0.489583,Eighth,F3_D#4_C4
3223,Left,1,60,110,671.5,0.489583,Eighth,F3_D#4_C4
3228,Right,0,82,110,672.0,0.489583,Eighth,A#5
3226,Left,1,58,110,672.0,3.989583,Half,F3_D4_A#3
3230,Right,0,81,110,672.5,0.489583,Eighth,A5
3231,Right,0,79,111,673.0,0.489583,Eighth,G5
3232,Right,0,77,111,673.5,0.489583,Eighth,F5
3234,Left,1,60,112,674.0,1.989583,Half,D#4_C4
3233,Right,0,75,112,674.0,1.989583,Half,D#5
3236,Right,0,69,113,674.5,0.489583,Eighth,A4
3237,Right,0,67,113,675.0,0.489583,Eighth,G4
3238,Right,0,65,114,675.5,0.489583,Eighth,F4
3239,Right,0,70,115,676.0,1.989583,Eighth,D5_A#4
3241,Left,1,53,115,676.0,1.989583,Half,F3_D4_A#3
3244,Right,0,69,115,676.5,0.489583,Eighth,A4
3245,Right,0,67,116,677.0,0.489583,Eighth,G4
3246,Right,0,65,116,677.5,0.489583,Eighth,F4
3247,Left,1,51,117,678.0,1.989583,Half,F2_D#3_C3
3248,Right,0,63,117,678.0,1.989583,Half,D#4
3251,Right,0,69,118,678.5,0.489583,Eighth,A4
3252,Right,0,67,118,679.0,0.489583,Eighth,G4
3253,Right,0,65,119,679.5,0.489583,Eighth,F4
3254,Left,1,50,120,680.0,2.989583,DottedHalf,F2_D3_A#2
3257,Right,0,70,120,680.0,0.322917,Triplet,D4_A#4
3259,Right,0,58,120,680.333333,0.322917,Triplet,A#3
3260,Right,0,59,120,680.666667,0.322917,Triplet,B3
3261,Right,0,60,120,681.0,0.322917,Triplet,C4
3262,Right,0,61,120,681.333333,0.322917,Triplet,C#4
3263,Right,0,62,120,681.666667,0.322917,Triplet,D4
3264,Right,0,63,120,682.0,0.322917,Triplet,D#4
3265,Right,0,64,120,682.333333,0.322917,Triplet,E4
3266,Right,0,65,120,682.666667,0.322917,Triplet,F4
3269,Right,0,67,120,683.0,0.322917,Triplet,G4
3267,Left,1,50,120,683.0,0.739583,DottedEighth,F2_D3_A#2
3271,Right,0,65,120,683.333333,0.322917,Triplet,F4
3272,Right,0,58,120,683.666667,0.322917,Triplet,A#3
3273,Left,1,50,120,683.75,0.239583,Sixteenth,F2_D3_A#2
3276,Left,1,51,120,684.0,2.989583,DottedHalf,F2_D#3_C3
3279,Right,0,57,120,684.333333,0.322917,Triplet,A3
3280,Right,0,58,120,684.666667,0.322917,Triplet,A#3
3281,Right,0,59,120,685.0,0.322917,Triplet,B3
3282,Right,0,60,120,685.333333,0.322917,Triplet,C4
3283,Right,0,61,120,685.666667,0.322917,Triplet,C#4
3284,Right,0,62,120,686.0,0.322917,Triplet,D4
3285,Right,0,63,120,686.333333,0.322917,Triplet,D#4
3286,Right,0,64,120,686.666667,0.322917,Triplet,E4
3287,Left,1,48,120,687.0,0.739583,DottedEighth,F2_D#3_C3
3290,Right,0,65,120,687.0,0.322917,Triplet,F4
3291,Right,0,63,120,687.333333,0.322917,Triplet,D#4
3292,Right,0,57,120,687.666667,0.322917,Triplet,A3
3293,Left,1,51,120,687.75,0.239583,Sixteenth,F2_D#3_C3
3296,Left,1,41,120,688.0,2.989583,DottedHalf,F2_D3_A#2
3299,Right,0,58,120,688.333333,0.322917,Triplet,A#3
3300,Right,0,59,120,688.666667,0.322917,Triplet,B3
3301,Right,0,60,120,689.0,0.322917,Triplet,C4
3302,Right,0,61,120,689.333333,0.322917,Triplet,C#4
3303,Right,0,62,120,689.666667,0.322917,Triplet,D4
3304,Right,0,63,120,690.0,0.322917,Triplet,D#4
3305,Right,0,64,120,690.333333,0.322917,Triplet,E4
3306,Right,0,65,120,690.666667,0.322917,Triplet,F4
3308,Left,1,46,120,691.0,0.739583,DottedEighth,F2_D3_A#2
3307,Right,0,66,120,691.0,0.322917,Triplet,F#4
3311,Right,0,67,120,691.333333,0.322917,Triplet,G4
3312,Right,0,68,120,691.666667,0.322917,Triplet,G#4
3313,Left,1,46,120,691.75,0.239583,Sixteenth,F2_D3_A#2
3316,Left,1,50,120,692.0,2.989583,DottedHalf,F#2_D3_C3_A2
3320,Right,0,69,120,692.333333,0.322917,Triplet,A4
3321,Right,0,71,120,692.666667,0.322917,Triplet,B4
3322,Right,0,72,120,693.0,0.322917,Triplet,C5
3323,Right,0,69,120,693.333333,0.322917,Triplet,A4
3324,Right,0,71,120,693.666667,0.322917,Triplet,B4
3325,Right,0,72,120,694.0,0.322917,Triplet,C5
3326,Right,0,69,120,694.333333,0.322917,Triplet,A4
3327,Right,0,71,120,694.666667,0.322917,Triplet,B4
3329,Left,1,48,120,695.0,0.739583,DottedEighth,F#2_D3_C3_A2
3328,Right,0,72,120,695.0,0.322917,Triplet,C5
3333,Right,0,71,120,695.333333,0.322917,Triplet,B4
3334,Right,0,69,120,695.666667,0.322917,Triplet,A4
3335,Left,1,50,120,695.75,0.239583,Sixteenth,F#2_D3_C3_A2
3342,Right,0,68,120,696.0,0.322917,Triplet,G#4
3339,Left,1,47,120,696.0,0.989583,Quarter,G#2_E3_E2_B2
3344,Right,0,64,120,696.333333,0.322917,Triplet,E4
3345,Right,0,65,120,696.666667,0.322917,Triplet,F4
3347,Right,0,66,120,697.0,0.322917,Triplet,F#4
3346,Left,1,56,120,697.0,0.989583,Quarter,G#3_E3_B3
3350,Right,0,67,120,697.333333,0.322917,Triplet,G4
3351,Right,0,68,120,697.666667,0.322917,Triplet,G#4
3352,Right,0,69,120,698.0,0.322917,Triplet,A4
3353,Right,0,70,120,698.333333,0.322917,Triplet,A#4
3354,Right,0,71,120,698.666667,0.322917,Triplet,B4
3355,Right,0,72,120,699.0,0.322917,Triplet,C5
3356,Left,1,59,120,699.0,0.739583,DottedEighth,G#3_E3_B3
3359,Right,0,71,120,699.333333,0.322917,Triplet,B4
3360,Right,0,64,120,699.666667,0.322917,Triplet,E4
3361,Left,1,59,120,699.75,0.239583,Sixteenth,G#3_E3_B3
3364,Left,1,60,120,700.0,0.989583,Quarter,E3_C4_A3
3367,Right,0,66,120,700.333333,0.322917,Triplet,F#4
3368,Right,0,68,120,700.666667,0.322917,Triplet,G#4
3369,Left,1,57,120,701.0,0.989583,Quarter,E3_C4_A3
3370,Right,0,69,120,701.0,0.322917,Triplet,A4
3373,Right,0,71,120,701.333333,0.322917,Triplet,B4
3374,Right,0,72,120,701.666667,0.322917,Triplet,C5
3375,Right,0,73,120,702.0,0.322917,Triplet,C#5
3376,Right,0,74,120,702.333333,0.322917,Triplet,D5
3377,Right,0,75,120,702.666667,0.322917,Triplet,D#5
3380,Right,0,76,120,703.0,0.322917,Triplet,E5
3378,Left,1,60,120,703.0,0.739583,DottedEighth,E3_C4_A3
3382,Right,0,77,120,703.333333,0.322917,Triplet,F5
3383,Right,0,78,120,703.666667,0.322917,Triplet,F#5
3384,Left,1,52,120,703.75,0.239583,Sixteenth,E3_C4_A3
3387,Left,1,62,120,704.0,0.989583,Quarter,E3_D4_B3
3390,Right,0,68,120,704.333333,0.322917,Triplet,G#4
3391,Right,0,69,120,704.666667,0.322917,Triplet,A4
3395,Right,0,70,120,705.0,0.322917,Triplet,A#4
3392,Left,1,62,120,705.0,0.989583,Quarter,E3_D4_B3
3396,Right,0,71,120,705.333333,0.322917,Triplet,B4
3397,Right,0,72,120,705.666667,0.322917,Triplet,C5
3398,Right,0,73,120,706.0,0.322917,Triplet,C#5
3399,Right,0,74,120,706.333333,0.322917,Triplet,D5
3400,Right,0,75,120,706.666667,0.322917,Triplet,D#5
3402,Left,1,52,120,707.0,0.739583,DottedEighth,E3_D4_B3
3401,Right,0,76,120,707.0,0.322917,Triplet,E5
3405,Right,0,74,120,707.333333,0.322917,Triplet,D5
3406,Right,0,68,120,707.666667,0.322917,Triplet,G#4
3407,Left,1,52,120,707.75,0.239583,Sixteenth,E3_D4_B3
3410,Left,1,61,120,708.0,0.989583,Quarter,E4_E3_C#4
3413,Right,0,69,120,708.333333,0.322917,Triplet,A4
3414,Right,0,71,120,708.666667,0.322917,Triplet,B4
3415,Right,0,73,120,709.0,0.322917,Triplet,C#5
3416,Left,1,64,120,709.0,0.989583,Quarter,E4_E3_C#4
3419,Right,0,74,120,709.333333,0.322917,Triplet,D5
3420,Right,0,75,120,709.666667,0.322917,Triplet,D#5
3421,Right,0,76,120,710.0,0.322917,Triplet,E5
3422,Right,0,77,120,710.333333,0.322917,Triplet,F5
3423,Right,0,78,120,710.666667,0.322917,Triplet,F#5
3424,Left,1,52,120,711.0,0.739583,DottedEighth,E4_E3_C#4
3427,Right,0,79,120,711.0,0.322917,Triplet,G5
3428,Right,0,80,120,711.333333,0.322917,Triplet,G#5
3429,Right,0,81,120,711.666667,0.322917,Triplet,A5
3430,Left,1,52,120,711.75,0.239583,Sixteenth,E4_E3_C#4
3433,Left,1,52,120,712.0,0.989583,Quarter,G#3_E3_D4_B3
3437,Right,0,71,120,712.333333,0.322917,Triplet,B4
3438,Right,0,73,120,712.666667,0.322917,Triplet,C#5
3439,Right,0,74,120,713.0,0.322917,Triplet,D5
3440,Right,0,75,120,713.333333,0.322917,Triplet,D#5
3441,Right,0,76,120,713.666667,0.322917,Triplet,E5
3442,Right,0,77,120,714.0,0.322917,Triplet,F5
3443,Right,0,78,120,714.333333,0.322917,Triplet,F#5
3444,Right,0,79,120,714.666667,0.322917,Triplet,G5
3445,Right,0,80,120,715.0,0.322917,Triplet,G#5
3446,Right,0,81,120,715.333333,0.322917,Triplet,A5
3447,Right,0,82,120,715.666667,0.322917,Triplet,A#5
3448,Right,0,83,120,716.0,0.322917,Triplet,B5
3449,Right,0,84,120,716.333333,0.322917,Triplet,C6
3450,Right,0,85,120,716.666667,0.322917,Triplet,C#6
3451,Right,0,86,120,717.0,0.322917,Triplet,D6
3452,Right,0,85,120,717.333333,0.322917,Triplet,C#6
3453,Right,0,83,119,717.666667,0.322917,Triplet,B5
3454,Right,0,81,119,718.0,0.322917,Triplet,A5
3455,Right,0,80,118,718.333333,0.322917,Triplet,G#5
3456,Right,0,78,117,718.666667,0.322917,Triplet,F#5
3457,Right,0,76,117,719.0,0.322917,Triplet,E5
3458,Right,0,74,116,719.333333,0.322917,Triplet,D5
3459,Right,0,73,116,719.666667,0.322917,Triplet,C#5
3460,Right,0,71,115,720.0,0.322917,Triplet,B4
3461,Right,0,69,114,720.333333,0.322917,Triplet,A4
3462,Right,0,68,114,720.666667,0.322917,Triplet,G#4
3463,Right,0,66,113,721.0,0.322917,Triplet,F#4
3464,Right,0,64,113,721.333333,0.322917,Triplet,E4
3465,Right,0,62,112,721.666667,0.322917,Triplet,D4
3466,Right,0,61,111,722.0,0.322917,Triplet,C#4
3467,Right,0,59,111,722.333333,0.322917,Triplet,B3
3468,Right,0,57,110,722.666667,0.322917,Triplet,A3
3469,Right,0,56,110,723.0,0.322917,Triplet,G#3
3470,Right,0,54,109,723.333333,0.322917,Triplet,F#3
3471,Right,0,52,108,723.666667,0.322917,Triplet,E3
3472,Right,0,50,108,724.0,0.322917,Triplet,D3
3473,Right,0,49,107,724.333333,0.322917,Triplet,C#3
3474,Right,0,47,107,724.666667,0.322917,Triplet,B2
3475,Right,0,45,106,725.0,0.322917,Triplet,A2
3476,Right,0,44,105,725.333333,0.322917,Triplet,G#2
3477,Right,0,42,105,725.666667,0.322917,Triplet,F#2
3478,Right,0,40,104,726.0,0.322917,Triplet,E2
3479,Right,0,42,104,726.333333,0.322917,Triplet,F#2
3480,Right,0,40,103,726.666667,0.322917,Triplet,E2
3481,Right,0,38,102,727.0,0.322917,Triplet,D2
3482,Right,0,37,102,727.333333,0.322917,Triplet,C#2
3483,Right,0,35,101,727.666667,0.322917,Triplet,B1
3484,Left,1,33,80,728.0,0.322917,Triplet,A1
3485,Left,1,37,80,728.166667,0.322917,Triplet,C#2
3486,Left,1,40,80,728.333333,0.322917,Triplet,E2
3487,Left,1,45,80,728.5,0.322917,Triplet,A2
3488,Left,1,49,80,728.666667,0.322917,Triplet,C#3
3489,Left,1,52,80,728.833333,0.322917,Triplet,E3
3490,Left,1,57,80,729.0,0.239583,Sixteenth,A3
3491,Right,0,61,80,729.125,0.239583,Sixteenth,C#4
3492,Right,0,64,80,729.25,0.239583,Sixteenth,E4
3493,Right,0,69,80,729.375,0.239583,Sixteenth,A4
3494,Right,0,73,80,729.5,0.239583,Sixteenth,C#5
3495,Right,0,76,80,729.625,0.239583,Sixteenth,E5
3496,Right,0,81,80,729.75,0.239583,Sixteenth,A5
3497,Right,0,85,80,729.875,0.114583,ThirtySecond,C#6
3499,Left,1,57,80,730.0,0.489583,Eighth,A3
3498,Right,0,88,80,730.0,0.989583,Quarter,E6
3500,Left,1,64,80,730.5,0.489583,Eighth,E4
3502,Left,1,61,80,731.0,0.489583,Eighth,C#4
3501,Right,0,88,80,731.0,0.989583,Quarter,E6
3503,Left,1,64,80,731.5,0.489583,Eighth,E4
3504,Right,0,88,80,732.0,0.489583,Eighth,E6
3505,Left,1,59,80,732.0,0.489583,Eighth,B3
3507,Left,1,64,80,732.5,0.489583,Eighth,E4
3506,Right,0,68,80,732.5,0.239583,Sixteenth,G#4
3508,Right,0,68,80,733.0,1.989583,Half,G#4
3509,Left,1,62,80,733.0,0.489583,Eighth,D4
3510,Left,1,64,80,733.5,0.489583,Eighth,E4
3511,Left,1,59,80,734.0,0.489583,Eighth,B3
3512,Left,1,64,80,734.5,0.489583,Eighth,E4
3514,Right,0,68,80,735.0,0.989583,Quarter,G#4
3513,Left,1,62,80,735.0,0.489583,Eighth,D4
3515,Left,1,64,80,735.5,0.489583,Eighth,E4
3517,Right,0,69,80,736.0,0.322917,Triplet,A4
3516,Left,1,61,80,736.0,0.489583,Eighth,C#4
3518,Right,0,71,80,736.166667,0.322917,Triplet,B4
3519,Left,1,64,80,736.25,0.489583,Eighth,E4
3520,Right,0,69,80,736.333333,0.322917,Triplet,A4
3521,Right,0,68,80,736.5,0.322917,Triplet,G#4
3522,Right,0,69,80,736.666667,0.322917,Triplet,A4
3523,Right,0,70,80,736.833333,0.322917,Triplet,A#4
3524,Left,1,56,80,737.0,0.489583,Eighth,G#3
3525,Right,0,71,80,737.0,0.322917,Triplet,B4
3526,Right,0,73,80,737.166667,0.322917,Triplet,C#5
3527,Right,0,71,80,737.333333,0.322917,Triplet,B4
3528,Right,0,70,80,737.5,0.322917,Triplet,A#4
3529,Left,1,52,80,737.5,0.489583,Eighth,E3
3530,Right,0,71,80,737.666667,0.322917,Triplet,B4
3531,Right,0,72,80,737.833333,0.322917,Triplet,C5
3533,Right,0,73,80,738.0,0.322917,Triplet,C#5
3532,Left,1,57,80,738.0,0.489583,Eighth,A3
3534,Right,0,74,80,738.166667,0.322917,Triplet,D5
3535,Right,0,73,80,738.333333,0.322917,Triplet,C#5
3537,Left,1,64,80,738.5,0.489583,Eighth,E4
3536,Right,0,72,80,738.5,0.322917,Triplet,C5
3538,Right,0,73,80,738.666667,0.322917,Triplet,C#5
3539,Right,0,69,80,738.833333,0.322917,Triplet,A4
3541,Right,0,74,80,739.0,0.322917,Triplet,D5
3540,Left,1,54,80,739.0,0.489583,Eighth,F#3
3542,Right,0,76,80,739.166667,0.322917,Triplet,E5
3543,Right,0,74,80,739.333333,0.322917,Triplet,D5
3544,Right,0,73,80,739.5,0.322917,Triplet,C#5
3545,Left,1,57,80,739.5,0.489583,Eighth,A3
3546,Right,0,74,80,739.666667,0.322917,Triplet,D5
3547,Right,0,75,80,739.833333,0.15625,TripletSixteenth,D#5
3549,Left,1,52,80,740.0,0.489583,Eighth,E3
3548,Right,0,76,80,740.0,0.322917,Triplet,E5
3550,Right,0,78,80,740.166667,0.322917,Triplet,F#5
3551,Right,0,76,80,740.333333,0.322917,Triplet,E5
3553,Left,1,61,80,740.5,0.489583,Eighth,C#4
3552,Right,0,75,80,740.5,0.322917,Triplet,D#5
3554,Right,0,76,80,740.666667,0.322917,Triplet,E5
3555,Right,0,77,80,740.833333,0.322917,Triplet,F5
3556,Left,1,57,80,741.0,0.489583,Eighth,A3
3557,Right,0,78,80,741.0,0.489583,Eighth,F#5
3558,Right,0,76,80,741.25,0.489583,Eighth,E5
3559,Right,0,74,80,741.5,0.489583,Eighth,D5
3560,Left,1,61,80,741.5,0.489583,Eighth,C#4
3561,Right,0,73,80,741.75,0.239583,Sixteenth,C#5
3563,Right,0,71,80,742.0,0.989583,Quarter,B4
3562,Left,1,52,80,742.0,0.489583,Eighth,E3
3564,Left,1,56,80,742.5,0.489583,Eighth,G#3
3565,Left,1,50,80,743.0,0.489583,Eighth,D3
3566,Left,1,56,80,743.5,0.489583,Eighth,G#3
3567,Left,1,49,80,744.0,0.489583,Eighth,C#3
3568,Right,0,57,80,744.5,0.239583,Sixteenth,A3
3569,Left,1,57,80,744.5,0.489583,Eighth,A3
3570,Right,0,61,80,744.75,0.239583,Sixteenth,C#4
3571,Left,1,52,80,745.0,0.489583,Eighth,E3
3572,Right,0,64,80,745.0,0.322917,Triplet,E4
3573,Right,0,69,80,745.166667,0.322917,Triplet,A4
3574,Right,0,73,80,745.333333,0.322917,Triplet,C#5
3576,Right,0,76,80,745.5,0.322917,Triplet,E5
3575,Left,1,57,80,745.5,0.489583,Eighth,A3
3577,Right,0,81,80,745.666667,0.322917,Triplet,A5
3578,Right,0,85,80,745.833333,0.15625,TripletSixteenth,C#6
3579,Left,1,49,80,746.0,0.489583,Eighth,C#3
3580,Right,0,88,80,746.0,0.489583,Eighth,E6
3581,Right,0,87,80,746.5,0.239583,Sixteenth,D#6
3582,Left,1,57,80,746.5,0.489583,Eighth,A3
3583,Right,0,88,80,746.75,0.239583,Sixteenth,E6
3585,Left,1,49,80,747.0,0.489583,Eighth,C#3
3584,Right,0,87,80,747.0,0.239583,Sixteenth,D#6
3586,Right,0,88,80,747.25,0.239583,Sixteenth,E6
3587,Left,1,58,80,747.5,0.489583,Eighth,A#3
3588,Right,0,87,80,747.5,0.239583,Sixteenth,D#6
3589,Right,0,88,80,747.75,0.239583,Sixteenth,E6
3591,Left,1,50,80,748.0,0.489583,Eighth,D3
3590,Right,0,88,102,748.0,0.489583,Eighth,E6
3593,Left,1,58,80,748.5,0.489583,Eighth,A#3
3592,Right,0,66,80,748.5,0.239583,Sixteenth,F#4
3595,Right,0,66,80,749.0,1.489583,DottedQuarter,F#4
3594,Left,1,52,80,749.0,0.489583,Eighth,E3
3596,Left,1,58,80,749.5,0.489583,Eighth,A#3
3597,Left,1,50,80,750.0,0.489583,Eighth,D3
3598,Right,0,74,80,750.5,0.239583,Sixteenth,D5
3599,Left,1,59,80,750.5,0.489583,Eighth,B3
3600,Right,0,73,80,750.75,0.239583,Sixteenth,C#5
3602,Left,1,54,80,751.0,0.489583,Eighth,F#3
3601,Right,0,76,80,751.0,0.239583,Sixteenth,E5
3603,Right,0,74,80,751.25,0.239583,Sixteenth,D5
3604,Left,1,59,80,751.5,0.489583,Eighth,B3
3605,Right,0,73,80,751.5,0.239583,Sixteenth,C#5
3606,Right,0,71,80,751.75,0.239583,Sixteenth,B4
3608,Left,1,52,80,752.0,0.489583,Eighth,E3
3607,Right,0,69,80,752.0,1.489583,DottedQuarter,A4
3609,Left,1,61,80,752.5,0.489583,Eighth,C#4
3610,Left,1,57,80,753.0,0.489583,Eighth,A3
3612,Left,1,61,80,753.5,0.489583,Eighth,C#4
3611,Right,0,71,80,753.5,0.239583,Sixteenth,B4
3613,Right,0,69,80,753.625,0.239583,Sixteenth,A4
3614,Right,0,68,80,753.75,0.239583,Sixteenth,G#4
3615,Right,0,69,80,753.875,0.114583,ThirtySecond,A4
3617,Left,1,52,80,754.0,0.489583,Eighth,E3
3616,Right,0,73,80,754.0,0.489583,Eighth,C#5
3619,Left,1,62,80,754.5,0.489583,Eighth,D4
3618,Right,0,71,80,754.5,0.489583,Eighth,B4
3621,Left,1,59,80,755.0,0.489583,Eighth,B3
3620,Right,0,74,80,755.0,0.489583,Eighth,D5
3623,Right,0,68,80,755.5,0.489583,Eighth,G#4
3622,Left,1,62,80,755.5,0.489583,Eighth,D4
3624,Right,0,69,80,756.0,0.239583,Sixteenth,A4
3625,Left,1,57,80,756.0,0.489583,Eighth,A3
3626,Right,0,68,80,756.25,0.239583,Sixteenth,G#4
3627,Right,0,71,80,756.5,0.239583,Sixteenth,B4
3628,Left,1,64,80,756.5,0.489583,Eighth,E4
3629,Right,0,69,80,756.75,0.239583,Sixteenth,A4
3631,Left,1,61,80,757.0,0.489583,Eighth,C#4
3630,Right,0,73,80,757.0,0.239583,Sixteenth,C#5
3632,Right,0,71,80,757.25,0.239583,Sixteenth,B4
3634,Right,0,74,80,757.5,0.239583,Sixteenth,D5
3633,Left,1,64,80,757.5,0.489583,Eighth,E4
3635,Right,0,73,80,757.75,0.239583,Sixteenth,C#5
3636,Right,0,76,80,758.0,0.239583,Sixteenth,E5
3637,Left,1,57,80,758.0,0.489583,Eighth,A3
3638,Right,0,75,80,758.25,0.239583,Sixteenth,D#5
3639,Right,0,78,80,758.5,0.239583,Sixteenth,F#5
3640,Left,1,64,80,758.5,0.489583,Eighth,E4
3641,Right,0,76,80,758.75,0.239583,Sixteenth,E5
3642,Right,0,74,80,759.0,0.239583,Sixteenth,D5
3643,Left,1,61,80,759.0,0.489583,Eighth,C#4
3644,Right,0,73,80,759.25,0.239583,Sixteenth,C#5
3646,Left,1,64,80,759.5,0.489583,Eighth,E4
3645,Right,0,71,80,759.5,0.239583,Sixteenth,B4
3647,Right,0,69,80,759.75,0.239583,Sixteenth,A4
3648,Right,0,68,80,760.0,0.989583,Quarter,G#4
3649,Left,1,59,80,760.0,0.489583,Eighth,B3
3650,Left,1,64,80,760.5,0.489583,Eighth,E4
3651,Left,1,62,80,761.0,0.489583,Eighth,D4
3652,Right,0,68,100,761.0,0.489583,Eighth,G#4
3653,Right,0,74,101,761.125,1.864583,Half,D5
3654,Left,1,64,80,761.5,0.489583,Eighth,E4
3655,Left,1,52,80,762.0,0.489583,Eighth,E3
3656,Left,1,64,80,762.5,0.489583,Eighth,E4
3657,Left,1,62,80,763.0,0.489583,Eighth,D4
3658,Right,0,71,80,763.0,0.489583,Eighth,B4
3660,Right,0,68,80,763.5,0.489583,Eighth,G#4
3659,Left,1,64,80,763.5,0.489583,Eighth,E4
3661,Left,1,57,80,764.0,0.489583,Eighth,A3
3662,Right,0,69,80,764.0,0.239583,Sixteenth,A4
3663,Right,0,68,80,764.25,0.239583,Sixteenth,G#4
3664,Left,1,64,80,764.5,0.489583,Eighth,E4
3665,Right,0,71,80,764.5,0.239583,Sixteenth,B4
3666,Right,0,69,80,764.75,0.239583,Sixteenth,A4
3668,Right,0,73,80,765.0,0.239583,Sixteenth,C#5
3667,Left,1,61,80,765.0,0.489583,Eighth,C#4
3669,Right,0,71,80,765.25,0.239583,Sixteenth,B4
3671,Left,1,64,80,765.5,0.489583,Eighth,E4
3670,Right,0,74,80,765.5,0.239583,Sixteenth,D5
3672,Right,0,73,80,765.75,0.239583,Sixteenth,C#5
3674,Left,1,57,80,766.0,0.489583,Eighth,A3
3673,Right,0,76,80,766.0,0.239583,Sixteenth,E5
3675,Right,0,75,80,766.25,0.239583,Sixteenth,D#5
3676,Right,0,78,80,766.5,0.239583,Sixteenth,F#5
3677,Left,1,64,80,766.5,0.489583,Eighth,E4
3678,Right,0,76,80,766.75,0.239583,Sixteenth,E5
3679,Left,1,61,80,767.0,0.489583,Eighth,C#4
3680,Right,0,74,80,767.0,0.239583,Sixteenth,D5
3681,Right,0,73,80,767.25,0.239583,Sixteenth,C#5
3682,Right,0,71,80,767.5,0.239583,Sixteenth,B4
3683,Left,1,64,80,767.5,0.489583,Eighth,E4
3684,Right,0,69,80,767.75,0.239583,Sixteenth,A4
3686,Left,1,59,80,768.0,0.489583,Eighth,B3
3685,Right,0,68,80,768.0,0.239583,Sixteenth,G#4
3687,Right,0,69,80,768.125,0.239583,Sixteenth,A4
3688,Right,0,68,80,768.25,0.239583,Sixteenth,G#4
3689,Right,0,69,80,768.375,0.239583,Sixteenth,A4
3691,Left,1,64,80,768.5,0.489583,Eighth,E4
3690,Right,0,68,80,768.5,0.239583,Sixteenth,G#4
3692,Right,0,69,80,768.625,0.239583,Sixteenth,A4
3693,Right,0,66,80,768.75,0.239583,Sixteenth,F#4
3694,Right,0,68,80,768.875,0.114583,ThirtySecond,G#4
3695,Left,1,62,80,769.0,0.489583,Eighth,D4
3696,Right,0,74,103,769.0,1.989583,Half,D5
3697,Left,1,64,80,769.5,0.489583,Eighth,E4
3698,Left,1,52,80,770.0,0.489583,Eighth,E3
3699,Left,1,64,80,770.5,0.489583,Eighth,E4
3700,Right,0,71,80,771.0,0.489583,Eighth,B4
3701,Left,1,62,80,771.0,0.489583,Eighth,D4
3703,Left,1,64,80,771.5,0.489583,Eighth,E4
3702,Right,0,68,80,771.5,0.489583,Eighth,G#4
3704,Left,1,61,80,772.0,0.989583,Quarter,C#4_A3
3706,Right,0,69,80,772.0,0.239583,Sixteenth,A4
3707,Right,0,68,81,772.25,0.239583,Sixteenth,G#4
3708,Right,0,71,83,772.5,0.239583,Sixteenth,B4
3709,Right,0,69,85,772.75,0.239583,Sixteenth,A4
3710,Right,0,73,87,773.0,0.239583,Sixteenth,C#5
3711,Right,0,71,89,773.25,0.239583,Sixteenth,B4
3712,Right,0,74,91,773.5,0.239583,Sixteenth,D5
3713,Right,0,73,93,773.75,0.239583,Sixteenth,C#5
3714,Right,0,76,95,774.0,0.239583,Sixteenth,E5
3715,Right,0,75,97,774.25,0.239583,Sixteenth,D#5
3716,Right,0,78,99,774.5,0.239583,Sixteenth,F#5
3717,Right,0,76,101,774.75,0.239583,Sixteenth,E5
3718,Right,0,81,103,775.0,0.239583,Sixteenth,A5
3719,Right,0,80,105,775.25,0.239583,Sixteenth,G#5
3720,Right,0,83,107,775.5,0.239583,Sixteenth,B5
3721,Right,0,81,109,775.75,0.239583,Sixteenth,A5
3722,Right,0,80,105,776.0,0.239583,Sixteenth,G#5
3723,Right,0,78,103,776.25,0.239583,Sixteenth,F#5
3724,Right,0,76,101,776.5,0.239583,Sixteenth,E5
3725,Right,0,74,99,776.75,0.239583,Sixteenth,D5
3726,Right,0,73,96,777.0,0.239583,Sixteenth,C#5
3727,Right,0,71,94,777.25,0.239583,Sixteenth,B4
3728,Right,0,69,92,777.5,0.239583,Sixteenth,A4
3729,Right,0,68,90,777.75,0.239583,Sixteenth,G#4
3730,Right,0,66,87,778.0,0.239583,Sixteenth,F#4
3731,Right,0,64,85,778.25,0.239583,Sixteenth,E4
3732,Right,0,62,83,778.5,0.239583,Sixteenth,D4
3733,Right,0,61,81,778.75,0.239583,Sixteenth,C#4
3734,Right,0,59,80,779.0,0.239583,Sixteenth,B3
3735,Right,0,57,80,779.25,0.239583,Sixteenth,A3
3736,Right,0,56,80,779.5,0.239583,Sixteenth,G#3
3737,Right,0,54,80,779.75,0.239583,Sixteenth,F#3
3741,Right,0,52,80,780.0,0.989583,Quarter,E3
3738,Left,1,50,80,780.0,3.989583,Whole,E2_D3_B2
3742,Right,0,62,80,781.0,0.989583,Quarter,D4
3743,Right,0,59,80,782.0,0.989583,Quarter,B3
3744,Right,0,56,80,783.0,0.989583,Quarter,G#3
3749,Left,1,33,80,784.0,1.489583,DottedQuarter,A1
3745,Right,0,59,80,784.0,1.989583,Half,G#3_E3_D3_B3
3750,Left,1,37,80,785.5,1.239583,TiedQuarter-Sixteenth,C#2
3751,Left,1,40,80,785.75,0.989583,Quarter,E2
3755,Left,1,45,80,786.25,1.989583,Half,A2
3752,Right,0,49,80,786.25,1.989583,Half,E3_C#3_A3
