,hand,channel,note,velocity,start_beat,duration,note_value,chord
1,Left,1,48,110,0.0,1.489583,DottedQuarter,G3_D#3_C4_C3
0,Right,0,72,110,0.0,1.489583,DottedQuarter,G4_D#4_C5
7,Right,0,67,110,1.75,0.239583,Sixteenth,G4
8,Right,0,75,110,2.0,0.739583,DottedEighth,D#5
9,Right,0,72,110,2.75,0.239583,Sixteenth,C5
10,Right,0,79,110,3.0,0.739583,DottedEighth,G5
11,Right,0,75,110,3.75,0.239583,Sixteenth,D#5
12,Right,0,84,110,4.0,0.739583,DottedEighth,C6
13,Right,0,79,110,4.75,0.239583,Sixteenth,G5
14,Right,0,87,110,5.0,0.989583,Quarter,D#6
15,Right,0,87,110,6.0,0.989583,Quarter,D#6
18,Right,0,72,80,8.0,0.989583,Quarter,G4_C5
16,Left,1,60,80,8.0,0.989583,Quarter,D#4_C4
21,Right,0,72,80,9.0,1.989583,Half,G4_C5
20,Left,1,60,80,9.0,1.989583,Half,D#4_C4
24,Left,1,62,80,11.0,0.989583,Quarter,F4_D4
26,Right,0,67,80,11.0,0.989583,Quarter,G4_B4
28,Left,1,50,110,12.0,1.489583,DottedQuarter,G#3_F3_D4_D3_B3
29,Right,0,65,110,12.0,1.489583,DottedQuarter,G#4_F4_B4
36,Right,0,71,110,13.75,0.239583,Sixteenth,B4
37,Right,0,77,110,14.0,0.739583,DottedEighth,F5
38,Right,0,74,110,14.75,0.239583,Sixteenth,D5
39,Right,0,83,110,15.0,0.739583,DottedEighth,B5
40,Right,0,77,110,15.75,0.239583,Sixteenth,F5
41,Right,0,86,110,16.0,0.739583,DottedEighth,D6
42,Right,0,83,110,16.75,0.239583,Sixteenth,B5
43,Right,0,89,110,17.0,0.989583,Quarter,F6
44,Right,0,89,110,18.0,0.989583,Quarter,F6
45,Left,1,65,80,20.0,0.989583,Quarter,G#4_F4_D4
47,Right,0,71,80,20.0,0.989583,Quarter,D5_B4
53,Right,0,74,81,21.0,1.989583,Half,D5_B4
50,Left,1,62,81,21.0,1.989583,Half,G#4_F4_D4
55,Left,1,63,83,23.0,0.989583,Quarter,G4_D#4
57,Right,0,72,83,23.0,0.989583,Quarter,C5
58,Right,0,72,85,24.0,0.239583,Sixteenth,C5
59,Right,0,75,85,24.125,0.114583,ThirtySecond,D#5
60,Right,0,79,85,24.25,1.239583,TiedQuarter-Sixteenth,G5
61,Right,0,77,87,25.5,0.489583,Eighth,F5
65,Right,0,75,87,26.0,0.989583,Quarter,D#5
62,Left,1,60,87,26.0,0.989583,Quarter,G3_D#3_C4
66,Right,0,74,89,27.0,1.989583,Half,D5
67,Left,1,56,89,27.0,1.989583,Half,G#3_F3_B3
71,Right,0,72,91,29.0,0.989583,Quarter,C5
70,Left,1,60,91,29.0,0.989583,Quarter,G3_D#3_C4
74,Right,0,67,93,30.0,0.239583,Sixteenth,G4
75,Right,0,72,93,30.125,0.239583,Sixteenth,C5
76,Right,0,75,93,30.25,0.114583,ThirtySecond,D#5
77,Right,0,79,93,30.375,1.114583,TiedQuarter-ThirtySecond,G5
78,Right,0,77,95,31.5,0.489583,Eighth,F5
79,Left,1,63,95,32.0,0.989583,Quarter,D#4_C4
81,Right,0,75,95,32.0,0.989583,Quarter,D#5
84,Left,1,62,97,33.0,1.989583,Half,F4_D4
82,Right,0,71,97,33.0,1.989583,Half,D5_B4
88,Right,0,72,99,35.0,0.989583,Quarter,C5
86,Left,1,60,99,35.0,0.989583,Quarter,D#4_C4
89,Right,0,67,100,36.0,0.239583,Sixteenth,G4
90,Right,0,72,100,36.125,0.239583,Sixteenth,C5
91,Right,0,75,100,36.25,0.114583,ThirtySecond,D#5
92,Right,0,67,113,36.375,1.114583,TiedQuarter-ThirtySecond,G5_G4
94,Right,0,65,100,37.5,0.489583,Eighth,F5_F4
96,Right,0,75,100,38.0,1.989583,Half,D#5_D#4
98,Left,1,60,100,38.0,0.989583,Quarter,G3_D#3_C4
101,Left,1,59,100,39.0,1.989583,Half,G#3_F3_B3
104,Right,0,62,100,40.0,0.989583,Quarter,D5_D4
107,Left,1,55,100,41.0,0.989583,Quarter,G3_D#3
106,Right,0,60,100,41.0,1.989583,Half,C5_C4
110,Left,1,50,100,42.0,1.989583,Half,F3_D3
112,Right,0,59,100,43.0,0.989583,Quarter,B4_B3
116,Left,1,51,100,44.0,0.989583,Quarter,D#3_C3
114,Right,0,68,100,44.0,1.989583,Half,G#4_G#3
118,Left,1,50,100,45.0,0.989583,Quarter,D3_B2
120,Right,0,67,100,46.0,0.989583,Quarter,G4_G3
122,Right,0,59,70,49.0,0.322917,Triplet,B3
123,Right,0,62,70,49.333333,0.322917,Triplet,D4
124,Right,0,65,70,49.666667,0.322917,Triplet,F4
125,Left,1,53,70,50.0,0.989583,Quarter,G#3_F3_D3_A#2
127,Right,0,68,70,50.0,0.322917,Triplet,G#4
130,Right,0,67,70,50.333333,0.322917,Triplet,G4
131,Right,0,65,70,50.666667,0.322917,Triplet,F4
132,Left,1,48,70,51.0,0.989583,Quarter,G3_D#3_C3
133,Right,0,63,70,51.0,0.989583,Quarter,D#4
136,Right,0,53,70,55.0,0.322917,Triplet,F3
137,Right,0,56,70,55.333333,0.322917,Triplet,G#3
138,Right,0,60,70,55.666667,0.322917,Triplet,C4
139,Left,1,50,70,56.0,0.989583,Quarter,G#2_F2_D3
142,Right,0,65,70,56.0,0.322917,Triplet,F4
143,Right,0,63,70,56.333333,0.322917,Triplet,D#4
144,Right,0,62,70,56.666667,0.322917,Triplet,D4
146,Left,1,43,70,57.0,0.989583,Quarter,G2_D#3_C3
145,Right,0,60,70,57.0,0.989583,Quarter,C4
149,Right,0,55,120,61.0,0.322917,Triplet,G3
150,Right,0,59,120,61.333333,0.322917,Triplet,B3
151,Right,0,62,120,61.666667,0.322917,Triplet,D4
152,Left,1,31,120,62.0,0.989583,Quarter,G2_G1
154,Right,0,65,120,62.0,0.322917,Triplet,F4
155,Right,0,62,120,62.333333,0.322917,Triplet,D4
156,Right,0,59,120,62.666667,0.322917,Triplet,B3
158,Left,1,36,120,63.0,1.489583,DottedQuarter,G2_D#2_C3_C2
157,Right,0,55,120,63.0,1.489583,DottedQuarter,G3_D#3_C4
164,Right,0,60,120,64.75,0.239583,Sixteenth,C4
165,Right,0,67,120,65.0,0.739583,DottedEighth,G4
166,Right,0,63,120,65.75,0.239583,Sixteenth,D#4
167,Right,0,72,120,66.0,0.739583,DottedEighth,C5
168,Right,0,67,120,66.75,0.239583,Sixteenth,G4
169,Right,0,75,120,67.0,0.739583,DottedEighth,D#5
170,Right,0,72,120,67.75,0.239583,Sixteenth,C5
173,Left,1,51,120,68.0,0.989583,Quarter,G3_D#3_C3
171,Right,0,79,120,68.0,0.989583,Quarter,G5_G4
176,Left,1,55,120,69.0,0.989583,Quarter,G3_D3_B2
177,Right,0,67,120,69.0,0.989583,Quarter,G5_G4
181,Right,0,59,120,70.75,0.239583,Sixteenth,B3
182,Right,0,67,120,71.0,0.739583,DottedEighth,G4
183,Right,0,62,120,71.75,0.239583,Sixteenth,D4
184,Right,0,71,120,72.0,0.739583,DottedEighth,B4
185,Right,0,67,120,72.75,0.239583,Sixteenth,G4
186,Right,0,74,120,73.0,0.739583,DottedEighth,D5
187,Right,0,71,120,73.75,0.239583,Sixteenth,B4
188,Right,0,79,120,74.0,0.989583,Quarter,G5_G4
190,Left,1,50,120,74.0,0.989583,Quarter,G3_D3_B2
193,Left,1,51,120,75.0,0.989583,Quarter,G3_D#3_C3
196,Right,0,67,120,75.0,0.989583,Quarter,G5_G4
198,Right,0,63,120,76.75,0.239583,Sixteenth,D#4
199,Right,0,67,120,77.0,0.739583,DottedEighth,G4
200,Right,0,63,120,77.75,0.239583,Sixteenth,D#4
201,Right,0,72,120,78.0,0.739583,DottedEighth,C5
202,Right,0,67,120,78.75,0.239583,Sixteenth,G4
203,Right,0,75,120,79.0,0.739583,DottedEighth,D#5
204,Right,0,72,120,79.75,0.239583,Sixteenth,C5
208,Right,0,79,120,80.0,0.739583,DottedEighth,G5
205,Left,1,60,120,80.0,0.989583,Quarter,G3_D#3_C4
209,Right,0,75,120,80.75,0.239583,Sixteenth,D#5
213,Right,0,74,120,81.0,0.989583,Quarter,D5
210,Left,1,56,120,81.0,0.989583,Quarter,G#3_F3_D4
214,Right,0,89,120,82.0,0.989583,Quarter,F6
216,Left,1,55,120,84.0,0.989583,Quarter,G3_D4_B3
215,Right,0,71,120,84.0,0.989583,Quarter,B4
219,Right,0,86,120,85.0,0.989583,Quarter,D6
224,Right,0,72,120,87.0,0.989583,Quarter,C5
220,Left,1,48,120,87.0,0.989583,Quarter,G3_D#3_C4_C3
225,Right,0,84,120,88.0,0.989583,Quarter,C6
226,Left,1,63,105,93.0,8.989583,Unknown,D#4
227,Left,1,61,80,96.0,2.989583,DottedHalf,C#4
228,Right,0,67,80,97.0,1.989583,Half,G4
229,Right,0,75,80,98.0,0.989583,Quarter,D#5
230,Right,0,68,80,99.0,2.989583,DottedHalf,G#4_D#5
232,Left,1,60,80,99.0,2.989583,DottedHalf,C4
233,Right,0,75,80,101.0,1.989583,Half,D#5
234,Right,0,67,80,102.0,2.989583,DottedHalf,G4
235,Left,1,61,80,102.0,2.989583,DottedHalf,C#4_A#3
237,Right,0,77,80,103.0,0.989583,Quarter,F5
238,Right,0,73,80,104.0,1.989583,Half,C#5
239,Left,1,63,80,105.0,2.989583,DottedHalf,G#3_D#4
241,Right,0,68,80,105.0,2.989583,DottedHalf,G#4
242,Right,0,71,80,106.0,0.989583,Quarter,B4
243,Right,0,72,80,107.0,0.989583,Quarter,C5
244,Left,1,72,100,108.0,5.989583,Unknown,C5_A#4
246,Right,0,76,80,109.0,1.989583,Half,E5
247,Right,0,84,80,110.0,0.989583,Quarter,C6
249,Right,0,77,80,111.0,2.989583,DottedHalf,F5_C6
248,Left,1,68,80,111.0,2.989583,DottedHalf,G#4
251,Right,0,84,80,113.0,1.989583,Half,C6
253,Right,0,76,80,114.0,2.989583,DottedHalf,E5
252,Left,1,67,80,114.0,2.989583,DottedHalf,G4_A#4
255,Right,0,85,80,115.0,0.989583,Quarter,C#6
256,Right,0,82,80,116.0,1.989583,Half,A#5
257,Left,1,65,80,117.0,2.989583,DottedHalf,G#4_F4
259,Right,0,72,80,117.0,2.989583,DottedHalf,C5
260,Right,0,79,80,118.0,0.989583,Quarter,G5
261,Right,0,80,80,119.0,0.989583,Quarter,G#5
262,Left,1,66,100,120.0,5.989583,DottedHalf,G#4_F#4
264,Right,0,72,80,121.0,1.989583,Half,C5
265,Right,0,80,80,122.0,0.989583,Quarter,G#5
268,Left,1,65,80,123.0,2.989583,DottedHalf,F4
266,Right,0,80,80,123.0,2.989583,Half,G#5_C#5
269,Right,0,80,80,125.0,1.989583,Half,G#5
272,Right,0,72,80,126.0,2.989583,DottedHalf,C5
270,Left,1,63,80,126.0,2.989583,DottedHalf,F#4_D#4
273,Right,0,82,80,127.0,0.989583,Quarter,A#5
274,Right,0,78,80,128.0,1.989583,Half,F#5
275,Left,1,61,80,129.0,2.989583,DottedHalf,F4_C#4
277,Right,0,68,80,129.0,2.989583,DottedHalf,G#4
278,Right,0,76,80,130.0,0.989583,Quarter,E5
279,Right,0,77,80,131.0,1.989583,Half,F5
280,Left,1,59,80,132.0,2.989583,DottedHalf,D#4_B3
281,Right,0,69,80,132.0,2.989583,DottedHalf,A4
283,Right,0,78,80,133.0,0.989583,Quarter,F#5
284,Right,0,75,80,134.0,1.989583,Half,D#5
285,Right,0,65,80,135.0,2.989583,DottedHalf,F4
286,Left,1,58,80,135.0,2.989583,DottedHalf,A#3
287,Right,0,75,80,136.0,0.989583,Quarter,D#5
288,Right,0,74,80,137.0,1.989583,Half,D5
289,Left,1,57,80,138.0,2.989583,DottedHalf,A3
290,Right,0,75,80,139.0,0.989583,Quarter,D#5
291,Right,0,63,80,140.0,0.989583,Quarter,F#4_D#4
294,Right,0,62,80,141.0,0.989583,Quarter,F4_D4
293,Left,1,46,80,141.0,5.989583,Unknown,A#2
296,Left,1,53,80,142.0,0.989583,Quarter,F3
297,Left,1,55,80,143.0,0.989583,Quarter,G3
298,Left,1,56,80,144.0,0.989583,Quarter,G#3
300,Right,0,72,80,145.0,0.989583,Quarter,C5
299,Left,1,52,80,145.0,0.989583,Quarter,E3
301,Right,0,72,80,146.0,0.989583,Quarter,C5
302,Left,1,53,80,146.0,0.989583,Quarter,F3
303,Right,0,72,80,147.0,0.989583,Quarter,C5
304,Left,1,46,80,147.0,5.989583,Unknown,G3_A#2
306,Left,1,50,80,148.0,0.989583,Quarter,D3
307,Right,0,70,80,148.0,0.989583,Quarter,A#4
308,Left,1,51,80,149.0,0.989583,Quarter,D#3
309,Left,1,53,80,150.0,0.989583,Quarter,F3
311,Right,0,68,80,151.0,0.989583,Quarter,G#4
310,Left,1,48,80,151.0,0.989583,Quarter,C3
313,Right,0,68,80,152.0,0.989583,Quarter,G#4
312,Left,1,50,80,152.0,0.989583,Quarter,D3
314,Left,1,46,80,153.0,5.989583,Unknown,D#3_A#2
316,Right,0,68,80,153.0,0.989583,Quarter,G#4
318,Left,1,53,80,154.0,0.989583,Quarter,F3
317,Right,0,67,80,154.0,0.989583,Quarter,G4
319,Left,1,55,80,155.0,0.989583,Quarter,G3
320,Left,1,56,80,156.0,0.989583,Quarter,G#3
321,Right,0,72,80,156.5,0.489583,Eighth,C5
323,Right,0,71,80,157.0,0.489583,Eighth,B4
322,Left,1,52,80,157.0,0.989583,Quarter,E3
324,Right,0,72,80,157.5,0.489583,Eighth,C5
326,Right,0,74,80,158.0,0.489583,Eighth,D5
325,Left,1,53,80,158.0,0.989583,Quarter,F3
327,Right,0,72,80,158.5,0.489583,Eighth,C5
328,Left,1,46,80,159.0,5.989583,Unknown,G3_A#2
330,Right,0,70,80,159.5,0.489583,Eighth,A#4
332,Left,1,50,80,160.0,0.989583,Quarter,D3
331,Right,0,69,80,160.0,0.489583,Eighth,A4
333,Right,0,70,80,160.5,0.489583,Eighth,A#4
335,Right,0,72,80,161.0,0.489583,Eighth,C5
334,Left,1,51,80,161.0,0.989583,Quarter,D#3
336,Right,0,70,80,161.5,0.489583,Eighth,A#4
337,Left,1,53,80,162.0,0.989583,Quarter,F3
338,Right,0,68,80,162.5,0.489583,Eighth,G#4
339,Left,1,48,80,163.0,0.989583,Quarter,C3
340,Right,0,67,80,163.0,0.489583,Eighth,G4
341,Right,0,68,80,163.5,0.489583,Eighth,G#4
342,Left,1,50,80,164.0,0.989583,Quarter,D3
343,Right,0,70,80,164.0,0.489583,Eighth,A#4
344,Right,0,68,80,164.5,0.489583,Eighth,G#4
345,Left,1,51,80,165.0,0.489583,Eighth,D#3
346,Right,0,67,80,165.0,4.489583,Whole,G4
347,Left,1,58,80,165.5,0.489583,Eighth,A#3
348,Left,1,55,80,166.0,0.489583,Eighth,G3
349,Left,1,58,80,166.5,0.489583,Eighth,A#3
350,Left,1,53,80,167.0,0.489583,Eighth,F3
351,Left,1,58,80,167.5,0.489583,Eighth,A#3
352,Left,1,51,80,168.0,0.489583,Eighth,D#3
353,Left,1,58,80,168.5,0.489583,Eighth,A#3
354,Left,1,53,80,169.0,0.489583,Eighth,F3
355,Left,1,58,80,169.5,0.489583,Eighth,A#3
356,Right,0,70,80,169.5,0.489583,Eighth,A#4
357,Left,1,55,80,170.0,0.489583,Eighth,G3
358,Right,0,75,80,170.0,0.989583,Quarter,D#5
359,Left,1,58,80,170.5,0.489583,Eighth,A#3
360,Left,1,53,80,171.0,0.489583,Eighth,F3
361,Right,0,75,80,171.0,2.989583,DottedHalf,D#5
362,Left,1,58,80,171.5,0.489583,Eighth,A#3
363,Left,1,55,80,172.0,0.489583,Eighth,G3
364,Left,1,58,80,172.5,0.489583,Eighth,A#3
365,Left,1,56,80,173.0,0.489583,Eighth,G#3
366,Left,1,58,80,173.5,0.489583,Eighth,A#3
367,Right,0,74,80,174.0,0.989583,Quarter,D5
368,Left,1,53,80,174.0,0.489583,Eighth,F3
369,Left,1,58,80,174.5,0.489583,Eighth,A#3
370,Left,1,55,80,175.0,0.489583,Eighth,G3
371,Left,1,58,80,175.5,0.489583,Eighth,A#3
372,Left,1,56,80,176.0,0.489583,Eighth,G#3
373,Left,1,58,80,176.5,0.489583,Eighth,A#3
375,Left,1,50,80,177.0,0.489583,Eighth,D3
374,Right,0,70,80,177.0,2.989583,DottedHalf,A#4
376,Left,1,58,80,177.5,0.489583,Eighth,A#3
377,Left,1,53,80,178.0,0.489583,Eighth,F3
378,Left,1,58,80,178.5,0.489583,Eighth,A#3
379,Left,1,51,80,179.0,0.489583,Eighth,D#3
380,Left,1,58,80,179.5,0.489583,Eighth,A#3
382,Left,1,50,80,180.0,0.489583,Eighth,D3
381,Right,0,70,80,180.0,0.239583,Sixteenth,A#4
383,Right,0,72,80,180.25,0.239583,Sixteenth,C5
384,Left,1,58,80,180.5,0.489583,Eighth,A#3
385,Right,0,70,80,180.5,0.239583,Sixteenth,A#4
386,Right,0,69,80,180.75,0.239583,Sixteenth,A4
387,Right,0,70,80,181.0,0.489583,Eighth,A#4
388,Left,1,51,80,181.0,0.489583,Eighth,D#3
389,Left,1,58,80,181.5,0.489583,Eighth,A#3
390,Right,0,77,80,181.5,0.489583,Eighth,F5
392,Left,1,53,80,182.0,0.489583,Eighth,F3
391,Right,0,80,94,182.0,0.989583,Quarter,G#5
393,Left,1,58,80,182.5,0.489583,Eighth,A#3
394,Right,0,80,80,183.0,2.989583,DottedHalf,G#5
395,Left,1,51,80,183.0,0.489583,Eighth,D#3
396,Left,1,58,80,183.5,0.489583,Eighth,A#3
397,Left,1,53,80,184.0,0.489583,Eighth,F3
398,Left,1,58,80,184.5,0.489583,Eighth,A#3
399,Left,1,55,80,185.0,0.489583,Eighth,G3
400,Left,1,58,80,185.5,0.489583,Eighth,A#3
402,Left,1,51,80,186.0,0.489583,Eighth,D#3
401,Right,0,79,80,186.0,0.989583,Quarter,G5
403,Left,1,58,80,186.5,0.489583,Eighth,A#3
404,Left,1,53,80,187.0,0.489583,Eighth,F3
405,Left,1,58,80,187.5,0.489583,Eighth,A#3
406,Left,1,55,80,188.0,0.489583,Eighth,G3
407,Left,1,58,80,188.5,0.489583,Eighth,A#3
408,Left,1,51,80,189.0,0.489583,Eighth,D#3
409,Right,0,67,80,189.0,0.489583,Eighth,G4
410,Left,1,58,80,189.5,0.489583,Eighth,A#3
411,Right,0,68,80,189.5,0.489583,Eighth,G#4
412,Left,1,55,80,190.0,0.489583,Eighth,G3
413,Right,0,70,80,190.0,0.489583,Eighth,A#4
414,Left,1,58,80,190.5,0.489583,Eighth,A#3
415,Right,0,72,80,190.5,0.489583,Eighth,C5
416,Left,1,51,80,191.0,0.489583,Eighth,D#3
417,Right,0,74,80,191.0,0.489583,Eighth,D5
418,Left,1,58,80,191.5,0.489583,Eighth,A#3
419,Right,0,75,80,191.5,0.489583,Eighth,D#5
421,Left,1,51,80,192.0,0.489583,Eighth,D#3
420,Right,0,77,80,192.0,0.489583,Eighth,F5
422,Right,0,79,80,192.5,0.489583,Eighth,G5
423,Left,1,58,80,192.5,0.489583,Eighth,A#3
424,Right,0,80,80,193.0,0.489583,Eighth,G#5
425,Left,1,55,80,193.0,0.489583,Eighth,G3
427,Right,0,82,80,193.5,0.489583,Eighth,A#5
426,Left,1,58,80,193.5,0.489583,Eighth,A#3
428,Right,0,84,80,194.0,0.489583,Eighth,C6
429,Left,1,51,80,194.0,0.489583,Eighth,D#3
430,Left,1,58,80,194.5,0.489583,Eighth,A#3
431,Right,0,86,80,194.5,0.489583,Eighth,D6
432,Left,1,53,80,195.0,0.489583,Eighth,F3
433,Right,0,87,106,195.0,2.989583,DottedHalf,D#6
434,Left,1,58,80,195.5,0.489583,Eighth,A#3
435,Left,1,56,80,196.0,0.489583,Eighth,G#3
436,Left,1,58,80,196.5,0.489583,Eighth,A#3
437,Left,1,53,80,197.0,0.489583,Eighth,F3
438,Left,1,58,80,197.5,0.489583,Eighth,A#3
440,Right,0,86,80,198.0,0.989583,Quarter,D6
439,Left,1,53,80,198.0,0.489583,Eighth,F3
441,Left,1,58,80,198.5,0.489583,Eighth,A#3
442,Left,1,56,80,199.0,0.489583,Eighth,G#3
443,Left,1,58,80,199.5,0.489583,Eighth,A#3
444,Left,1,53,80,200.0,0.489583,Eighth,F3
445,Left,1,58,80,200.5,0.489583,Eighth,A#3
446,Left,1,50,80,201.0,0.489583,Eighth,D3
447,Right,0,58,80,201.0,0.489583,Eighth,A#3
448,Left,1,58,80,201.5,0.489583,Eighth,A#3
449,Right,0,60,80,201.5,0.489583,Eighth,C4
451,Right,0,62,80,202.0,0.489583,Eighth,D4
450,Left,1,53,80,202.0,0.489583,Eighth,F3
453,Right,0,63,80,202.5,0.489583,Eighth,D#4
452,Left,1,58,80,202.5,0.489583,Eighth,A#3
454,Right,0,65,80,203.0,0.489583,Eighth,F4
455,Left,1,50,80,203.0,0.489583,Eighth,D3
456,Right,0,67,80,203.5,0.489583,Eighth,G4
457,Left,1,58,80,203.5,0.489583,Eighth,A#3
458,Right,0,68,80,204.0,0.489583,Eighth,G#4
459,Left,1,50,80,204.0,0.489583,Eighth,D3
461,Right,0,70,80,204.5,0.489583,Eighth,A#4
460,Left,1,58,80,204.5,0.489583,Eighth,A#3
463,Left,1,53,80,205.0,0.489583,Eighth,F3
462,Right,0,72,80,205.0,0.489583,Eighth,C5
465,Right,0,74,80,205.5,0.489583,Eighth,D5
464,Left,1,58,80,205.5,0.489583,Eighth,A#3
467,Left,1,50,80,206.0,0.489583,Eighth,D3
466,Right,0,75,80,206.0,0.489583,Eighth,D#5
468,Left,1,58,80,206.5,0.489583,Eighth,A#3
469,Right,0,77,80,206.5,0.489583,Eighth,F5
470,Right,0,79,80,207.0,2.989583,DottedHalf,G5
471,Left,1,51,80,207.5,0.489583,Eighth,D#3
472,Left,1,50,81,208.0,0.489583,Eighth,D3
473,Left,1,51,82,208.5,0.489583,Eighth,D#3
474,Left,1,50,83,209.0,0.489583,Eighth,D3
475,Left,1,51,84,209.5,0.489583,Eighth,D#3
477,Right,0,87,85,210.0,1.989583,Half,D#6
476,Left,1,43,85,210.0,0.489583,Eighth,G2
478,Left,1,51,86,210.5,0.489583,Eighth,D#3
479,Left,1,44,86,211.0,0.489583,Eighth,G#2
480,Left,1,51,87,211.5,0.489583,Eighth,D#3
482,Right,0,55,88,212.0,0.989583,Quarter,G3
481,Left,1,46,88,212.0,0.489583,Eighth,A#2
483,Left,1,51,89,212.5,0.489583,Eighth,D#3
484,Left,1,44,90,213.0,0.489583,Eighth,G#2
485,Right,0,56,90,213.0,2.989583,DottedHalf,G#3
486,Left,1,51,91,213.5,0.489583,Eighth,D#3
487,Left,1,46,92,214.0,0.489583,Eighth,A#2
488,Left,1,51,93,214.5,0.489583,Eighth,D#3
489,Left,1,48,93,215.0,0.489583,Eighth,C3
490,Left,1,51,94,215.5,0.489583,Eighth,D#3
492,Right,0,57,95,216.0,2.989583,DottedHalf,A3
491,Left,1,45,95,216.0,0.489583,Eighth,A2
493,Left,1,51,96,216.5,0.489583,Eighth,D#3
494,Left,1,46,97,217.0,0.489583,Eighth,A#2
495,Left,1,51,98,217.5,0.489583,Eighth,D#3
496,Left,1,48,99,218.0,0.489583,Eighth,C3
497,Left,1,51,99,218.5,0.489583,Eighth,D#3
498,Right,0,58,110,219.0,2.989583,DottedHalf,A#3
499,Left,1,46,110,219.0,0.489583,Eighth,A#2
500,Left,1,55,110,219.5,0.489583,Eighth,G3
501,Left,1,51,110,220.0,0.489583,Eighth,D#3
502,Left,1,55,110,220.5,0.489583,Eighth,G3
503,Left,1,46,110,221.0,0.489583,Eighth,A#2
504,Left,1,55,110,221.5,0.489583,Eighth,G3
506,Right,0,56,110,222.0,0.489583,Eighth,G#3
505,Left,1,46,110,222.0,0.489583,Eighth,A#2
507,Right,0,58,110,222.25,0.489583,Eighth,A#3
508,Left,1,53,110,222.5,0.489583,Eighth,F3
509,Right,0,56,110,222.5,0.489583,Eighth,G#3
510,Right,0,58,110,222.75,0.489583,Eighth,A#3
511,Right,0,56,110,223.0,0.489583,Eighth,G#3
512,Left,1,50,110,223.0,0.489583,Eighth,D3
513,Right,0,58,110,223.25,0.489583,Eighth,A#3
515,Left,1,53,110,223.5,0.489583,Eighth,F3
514,Right,0,56,110,223.5,0.489583,Eighth,G#3
516,Right,0,58,110,223.75,0.489583,Eighth,A#3
517,Right,0,56,110,224.0,0.489583,Eighth,G#3
518,Left,1,46,110,224.0,0.489583,Eighth,A#2
519,Right,0,58,110,224.25,0.489583,Eighth,A#3
520,Left,1,53,110,224.5,0.489583,Eighth,F3
521,Right,0,55,110,224.5,0.489583,Eighth,G3
522,Right,0,56,110,224.75,0.239583,Sixteenth,G#3
523,Left,1,51,100,225.0,0.989583,Quarter,D#3_D#2
524,Right,0,55,100,225.0,0.489583,Eighth,G3
526,Right,0,58,100,225.5,0.489583,Eighth,A#3
527,Right,0,63,100,226.0,0.489583,Eighth,D#4
528,Right,0,58,100,226.5,0.489583,Eighth,A#3
529,Right,0,63,100,227.0,0.489583,Eighth,D#4
530,Right,0,67,100,227.5,0.489583,Eighth,G4
531,Right,0,70,100,228.0,0.489583,Eighth,A#4
532,Right,0,67,100,228.5,0.489583,Eighth,G4
533,Right,0,70,100,229.0,0.489583,Eighth,A#4
534,Right,0,75,100,229.5,0.489583,Eighth,D#5
535,Right,0,79,100,230.0,0.489583,Eighth,G5
536,Right,0,82,100,230.5,0.489583,Eighth,A#5
537,Left,1,43,110,231.0,0.489583,Eighth,G2
538,Right,0,87,110,231.0,0.989583,Quarter,D#6
539,Left,1,51,110,231.5,0.489583,Eighth,D#3
540,Left,1,44,110,232.0,0.489583,Eighth,G#2
541,Left,1,51,110,232.5,0.489583,Eighth,D#3
543,Left,1,46,110,233.0,0.489583,Eighth,A#2
542,Right,0,63,120,233.0,2.989583,DottedHalf,D#4
544,Left,1,51,110,233.5,0.489583,Eighth,D#3
545,Left,1,43,110,234.0,0.489583,Eighth,G2
546,Left,1,51,110,234.5,0.489583,Eighth,D#3
547,Left,1,44,110,235.0,0.489583,Eighth,G#2
548,Left,1,51,110,235.5,0.489583,Eighth,D#3
550,Right,0,55,110,236.0,0.989583,Quarter,G3
549,Left,1,46,110,236.0,0.489583,Eighth,A#2
551,Left,1,51,110,236.5,0.489583,Eighth,D#3
552,Left,1,44,110,237.0,0.489583,Eighth,G#2
553,Right,0,56,110,237.0,1.989583,Half,G#3
554,Left,1,51,110,237.5,0.489583,Eighth,D#3
555,Left,1,46,110,238.0,0.489583,Eighth,A#2
556,Left,1,51,110,238.5,0.489583,Eighth,D#3
557,Left,1,48,110,239.0,0.489583,Eighth,C3
558,Right,0,63,120,239.0,0.989583,Quarter,D#4
559,Left,1,51,110,239.5,0.489583,Eighth,D#3
561,Right,0,57,110,240.0,1.989583,Half,A3
560,Left,1,45,110,240.0,0.489583,Eighth,A2
562,Left,1,51,110,240.5,0.489583,Eighth,D#3
563,Left,1,46,110,241.0,0.489583,Eighth,A#2
564,Left,1,51,110,241.5,0.489583,Eighth,D#3
566,Right,0,63,120,242.0,0.989583,Quarter,D#4
565,Left,1,48,110,242.0,0.489583,Eighth,C3
567,Left,1,51,110,242.5,0.489583,Eighth,D#3
568,Left,1,46,110,243.0,0.489583,Eighth,A#2
569,Right,0,58,110,243.0,0.489583,Eighth,A#3
571,Left,1,51,110,243.5,0.489583,Eighth,D#3
570,Right,0,63,110,243.5,0.489583,Eighth,D#4
572,Left,1,50,111,244.0,0.489583,Eighth,D3
573,Right,0,62,111,244.0,0.489583,Eighth,D4
575,Left,1,51,112,244.5,0.489583,Eighth,D#3
574,Right,0,63,112,244.5,0.489583,Eighth,D#4
576,Right,0,59,113,245.0,0.489583,Eighth,B3
577,Left,1,47,113,245.0,0.489583,Eighth,B2
578,Left,1,51,114,245.5,0.489583,Eighth,D#3
579,Right,0,63,114,245.5,0.489583,Eighth,D#4
581,Left,1,48,115,246.0,0.489583,Eighth,C3
580,Right,0,60,115,246.0,0.489583,Eighth,C4
582,Left,1,51,115,246.5,0.489583,Eighth,D#3
583,Right,0,63,115,246.5,0.489583,Eighth,D#4
584,Left,1,50,116,247.0,0.489583,Eighth,D3
585,Right,0,62,116,247.0,0.489583,Eighth,D4
586,Left,1,51,117,247.5,0.489583,Eighth,D#3
587,Right,0,63,117,247.5,0.489583,Eighth,D#4
588,Left,1,45,118,248.0,0.489583,Eighth,A2
589,Right,0,57,118,248.0,0.489583,Eighth,A3
590,Left,1,51,119,248.5,0.489583,Eighth,D#3
591,Right,0,63,119,248.5,0.489583,Eighth,D#4
592,Right,0,58,120,249.0,0.489583,Eighth,A#3
593,Left,1,46,120,249.0,0.489583,Eighth,A#2
595,Right,0,63,120,249.5,0.489583,Eighth,D#4
594,Left,1,51,120,249.5,0.489583,Eighth,D#3
597,Left,1,49,120,250.0,0.489583,Eighth,C#3
596,Right,0,61,120,250.0,0.489583,Eighth,C#4
598,Left,1,51,120,250.5,0.489583,Eighth,D#3
599,Right,0,63,120,250.5,0.489583,Eighth,D#4
600,Left,1,47,120,251.0,0.489583,Eighth,B2
601,Right,0,59,120,251.0,0.489583,Eighth,B3
602,Left,1,51,120,251.5,0.489583,Eighth,D#3
603,Right,0,63,120,251.5,0.489583,Eighth,D#4
604,Left,1,48,120,252.0,0.489583,Eighth,C3
605,Right,0,60,120,252.0,0.489583,Eighth,C4
606,Right,0,63,120,252.5,0.489583,Eighth,D#4
607,Left,1,51,120,252.5,0.489583,Eighth,D#3
608,Right,0,62,120,253.0,0.489583,Eighth,D4
609,Left,1,50,120,253.0,0.489583,Eighth,D3
611,Right,0,63,120,253.5,0.489583,Eighth,D#4
610,Left,1,51,120,253.5,0.489583,Eighth,D#3
613,Right,0,57,120,254.0,0.489583,Eighth,A3
612,Left,1,45,120,254.0,0.489583,Eighth,A2
614,Left,1,51,120,254.5,0.489583,Eighth,D#3
615,Right,0,63,120,254.5,0.489583,Eighth,D#4
617,Left,1,46,120,255.0,0.989583,Quarter,A#2
616,Right,0,58,120,255.0,0.989583,Quarter,A#3
618,Left,1,46,120,256.0,0.989583,Quarter,G3_D#3_A#2
621,Right,0,63,120,256.75,0.239583,Sixteenth,D#4
622,Right,0,70,120,257.0,0.739583,DottedEighth,A#4
623,Right,0,67,120,257.75,0.239583,Sixteenth,G4
624,Right,0,75,120,258.0,0.989583,Quarter,D#5
625,Left,1,48,120,259.0,0.989583,Quarter,F#3_D#3_C3
628,Right,0,63,120,259.75,0.239583,Sixteenth,D#4
629,Right,0,69,120,260.0,0.739583,DottedEighth,A4
630,Right,0,66,120,260.75,0.239583,Sixteenth,F#4
631,Right,0,75,120,261.0,0.989583,Quarter,D#5
632,Left,1,46,120,262.0,0.989583,Quarter,G3_D#3_A#2
635,Right,0,63,120,262.75,0.239583,Sixteenth,D#4
636,Right,0,70,120,263.0,0.739583,DottedEighth,A#4
637,Right,0,67,120,263.75,0.239583,Sixteenth,G4
638,Right,0,75,120,264.0,0.989583,Quarter,D#5
639,Left,1,45,120,265.0,0.989583,Quarter,F#3_D#3_A3_A2
643,Right,0,72,120,265.75,0.239583,Sixteenth,C5
644,Right,0,78,120,266.0,0.739583,DottedEighth,F#5
645,Right,0,75,120,266.75,0.239583,Sixteenth,D#5
646,Right,0,79,120,267.0,1.489583,DottedQuarter,G5
647,Left,1,46,120,268.0,0.989583,Quarter,G3_D#3_A#3_A#2
651,Right,0,75,120,268.5,0.489583,Eighth,D#5
652,Right,0,75,120,269.0,0.489583,Eighth,D#5
653,Right,0,70,120,269.5,0.489583,Eighth,A#4
654,Right,0,70,120,270.0,0.489583,Eighth,A#4
655,Right,0,67,120,270.5,0.489583,Eighth,G4
656,Right,0,67,120,271.0,0.489583,Eighth,G4
657,Right,0,63,120,271.5,0.489583,Eighth,D#4
658,Right,0,63,120,272.0,0.489583,Eighth,D#4
659,Right,0,58,120,272.5,0.489583,Eighth,A#3
660,Right,0,58,120,273.0,0.489583,Eighth,A#3
661,Right,0,55,120,273.5,0.489583,Eighth,G3
662,Right,0,55,120,274.0,0.489583,Eighth,G3
663,Right,0,51,120,274.5,0.489583,Eighth,D#3
664,Right,0,51,120,275.0,0.489583,Eighth,D#3
665,Right,0,46,120,275.5,0.489583,Eighth,A#2
666,Left,1,46,120,276.0,2.989583,DottedHalf,A#2_A#1
668,Right,0,58,120,278.0,0.989583,Quarter,G#3_F3_D4_A#3
673,Left,1,39,120,279.0,0.989583,Quarter,D#2
672,Right,0,55,120,279.0,0.989583,Quarter,G3_D#4_A#3
676,Left,1,46,120,280.0,4.989583,Unknown,A#2
677,Left,1,45,100,281.0,0.989583,Quarter,A2
678,Left,1,44,100,282.0,0.989583,Quarter,G#2
682,Left,1,43,100,283.0,0.989583,Quarter,G2
679,Right,0,68,100,283.0,0.989583,Quarter,G#4_F4_D4_A#4
684,Left,1,41,100,284.0,0.989583,Quarter,F2
685,Right,0,62,100,284.0,0.989583,Quarter,G#4_F4_D4_A#4
690,Right,0,63,100,285.0,1.989583,Half,G4_D#4_C5
689,Left,1,39,100,285.0,0.989583,Quarter,D#2
693,Right,0,70,100,286.0,0.989583,Quarter,A#4
694,Left,1,43,100,286.0,0.989583,Quarter,G2
695,Left,1,46,100,287.0,0.989583,Quarter,A#2
696,Left,1,34,100,288.0,0.989583,Quarter,A#1
697,Right,0,65,100,289.0,0.989583,Quarter,G#4_F4_D5
699,Left,1,41,100,289.0,0.989583,Quarter,F2
701,Right,0,68,100,290.0,0.989583,Quarter,G#4_F4_D5
703,Left,1,46,100,290.0,0.989583,Quarter,A#2
705,Left,1,39,100,291.0,0.989583,Quarter,D#2
706,Right,0,77,100,291.0,1.989583,Half,G4_F5_A#4
710,Left,1,46,115,292.0,4.989583,Unknown,A#2
709,Right,0,75,100,292.0,0.989583,Quarter,D#5
711,Left,1,45,100,293.0,0.989583,Quarter,A2
712,Left,1,44,100,294.0,0.989583,Quarter,G#2
713,Left,1,43,100,295.0,0.989583,Quarter,G2
714,Right,0,70,100,295.0,0.989583,Quarter,G#4_F4_D4_A#4
718,Right,0,62,100,296.0,0.989583,Quarter,G#4_F4_D4_A#4
721,Left,1,41,100,296.0,0.989583,Quarter,F2
723,Left,1,39,100,297.0,0.989583,Quarter,D#2
724,Right,0,67,100,297.0,1.989583,Half,G4_D#4_C5
728,Left,1,43,100,298.0,0.989583,Quarter,G2
727,Right,0,70,100,298.0,0.989583,Quarter,A#4
729,Left,1,46,100,299.0,0.989583,Quarter,A#2
730,Left,1,34,100,300.0,0.989583,Quarter,A#1
734,Left,1,41,80,301.0,0.989583,Quarter,F2
731,Right,0,53,80,301.0,0.989583,Quarter,G#3_F3_D4
735,Right,0,53,80,302.0,0.989583,Quarter,G#3_F3_D4
736,Left,1,46,80,302.0,0.989583,Quarter,A#2
739,Right,0,65,79,303.0,1.989583,Half,G3_F4_A#3
740,Left,1,39,79,303.0,0.989583,Quarter,D#2
743,Right,0,63,78,304.0,0.989583,Quarter,D#4
744,Left,1,43,78,304.0,0.989583,Quarter,G2
745,Left,1,46,77,305.0,0.989583,Quarter,A#2
746,Left,1,34,76,306.0,0.989583,Quarter,A#1
748,Right,0,62,75,307.0,0.989583,Quarter,G#3_F3_D4
747,Left,1,41,75,307.0,0.989583,Quarter,F2
754,Left,1,46,74,308.0,0.989583,Quarter,A#2
751,Right,0,62,74,308.0,0.989583,Quarter,G#3_F3_D4
755,Right,0,65,73,309.0,2.989583,DottedHalf,G#3_F4_D4
756,Left,1,39,73,309.0,0.989583,Quarter,D#2
759,Left,1,43,72,310.0,0.989583,Quarter,G2
760,Left,1,46,71,311.0,0.989583,Quarter,A#2
762,Left,1,51,71,312.0,0.989583,Quarter,D#3
761,Right,0,63,71,312.0,0.989583,Quarter,G3_D#4_A#3
768,Left,1,48,110,315.0,1.489583,DottedQuarter,G3_D#3_C4_C3
765,Right,0,72,110,315.0,1.489583,DottedQuarter,G4_D#4_C5
772,Right,0,67,110,316.75,0.239583,Sixteenth,G4
773,Right,0,75,110,317.0,0.739583,DottedEighth,D#5
774,Right,0,72,110,317.75,0.239583,Sixteenth,C5
775,Right,0,79,110,318.0,0.739583,DottedEighth,G5
776,Right,0,75,110,318.75,0.239583,Sixteenth,D#5
777,Right,0,84,110,319.0,0.739583,DottedEighth,C6
778,Right,0,79,110,319.75,0.239583,Sixteenth,G5
779,Right,0,87,110,320.0,0.989583,Quarter,D#6
780,Right,0,87,110,321.0,0.989583,Quarter,D#6
781,Left,1,63,80,323.0,0.989583,Quarter,D#4_C4
783,Right,0,67,80,323.0,0.989583,Quarter,G4_C5
787,Right,0,67,80,324.0,1.989583,Half,G4_C5
785,Left,1,63,80,324.0,1.989583,Half,D#4_C4
789,Left,1,65,80,326.0,0.989583,Quarter,F4_D4
790,Right,0,71,80,326.0,0.989583,Quarter,G4_B4
798,Right,0,68,110,327.0,1.489583,DottedQuarter,G#4_F4_B4
793,Left,1,62,110,327.0,1.489583,DottedQuarter,G#3_F3_D4_D3_B3
801,Right,0,71,110,328.75,0.239583,Sixteenth,B4
802,Right,0,77,110,329.0,0.739583,DottedEighth,F5
803,Right,0,74,110,329.75,0.239583,Sixteenth,D5
804,Right,0,83,110,330.0,0.739583,DottedEighth,B5
805,Right,0,77,110,330.75,0.239583,Sixteenth,F5
806,Right,0,86,110,331.0,0.739583,DottedEighth,D6
807,Right,0,83,110,331.75,0.239583,Sixteenth,B5
808,Right,0,89,110,332.0,0.989583,Quarter,F6
809,Right,0,89,110,333.0,0.989583,Quarter,F6
810,Right,0,74,80,335.0,0.989583,Quarter,D5_B4
812,Left,1,68,80,335.0,0.989583,Quarter,G#4_F4_D4
815,Right,0,71,81,336.0,1.989583,Half,D5_B4
817,Left,1,65,81,336.0,1.989583,Half,G#4_F4_D4
822,Right,0,72,83,338.0,0.989583,Quarter,C5
820,Left,1,63,83,338.0,0.989583,Quarter,G4_D#4
823,Right,0,72,85,339.0,0.239583,Sixteenth,C5
824,Right,0,75,85,339.125,0.114583,ThirtySecond,D#5
825,Right,0,79,85,339.25,1.239583,TiedQuarter-Sixteenth,G5
826,Right,0,77,87,340.5,0.489583,Eighth,F5
828,Right,0,75,87,341.0,0.989583,Quarter,D#5
827,Left,1,55,87,341.0,0.989583,Quarter,G3_D#3_C4
831,Left,1,59,89,342.0,1.989583,Half,G#3_F3_B3
834,Right,0,74,89,342.0,1.989583,Half,D5
836,Right,0,72,91,344.0,0.989583,Quarter,C5
835,Left,1,60,91,344.0,0.989583,Quarter,G3_D#3_C4
839,Right,0,67,93,345.0,0.239583,Sixteenth,G4
840,Right,0,72,93,345.125,0.239583,Sixteenth,C5
841,Right,0,75,93,345.25,0.114583,ThirtySecond,D#5
842,Right,0,79,93,345.375,1.114583,TiedQuarter-ThirtySecond,G5
843,Right,0,77,95,346.5,0.489583,Eighth,F5
845,Left,1,60,95,347.0,0.989583,Quarter,D#4_C4
844,Right,0,75,95,347.0,0.989583,Quarter,D#5
848,Left,1,62,97,348.0,1.989583,Half,F4_D4
847,Right,0,74,97,348.0,1.989583,Half,D5_B4
852,Left,1,63,99,350.0,0.989583,Quarter,D#4_C4
851,Right,0,72,99,350.0,0.989583,Quarter,C5
854,Right,0,67,100,351.0,0.239583,Sixteenth,G4
855,Right,0,72,100,351.125,0.239583,Sixteenth,C5
856,Right,0,75,100,351.25,0.114583,ThirtySecond,D#5
857,Right,0,67,113,351.375,1.114583,TiedQuarter-ThirtySecond,G5_G4
859,Right,0,65,100,352.5,0.489583,Eighth,F5_F4
861,Left,1,60,100,353.0,0.989583,Quarter,G3_D#3_C4
862,Right,0,75,100,353.0,1.989583,Half,D#5_D#4
866,Left,1,59,100,354.0,1.989583,Half,G#3_F3_B3
869,Right,0,62,100,355.0,0.989583,Quarter,D5_D4
871,Right,0,72,100,356.0,1.989583,Half,C5_C4
873,Left,1,55,100,356.0,0.989583,Quarter,G3_D#3
875,Left,1,50,100,357.0,1.989583,Half,F3_D3
877,Right,0,59,100,358.0,0.989583,Quarter,B4_B3
881,Left,1,51,100,359.0,0.989583,Quarter,D#3_C3
879,Right,0,68,100,359.0,1.989583,Half,G#4_G#3
883,Left,1,47,100,360.0,0.989583,Quarter,D3_B2
885,Right,0,67,100,361.0,0.989583,Quarter,G4_G3
887,Right,0,59,70,364.0,0.322917,Triplet,B3
888,Right,0,62,70,364.333333,0.322917,Triplet,D4
889,Right,0,65,70,364.666667,0.322917,Triplet,F4
890,Right,0,68,70,365.0,0.322917,Triplet,G#4
891,Left,1,46,70,365.0,0.989583,Quarter,G#3_F3_D3_A#2
895,Right,0,67,70,365.333333,0.322917,Triplet,G4
896,Right,0,65,70,365.666667,0.322917,Triplet,F4
897,Right,0,63,70,366.0,0.989583,Quarter,D#4
898,Left,1,51,70,366.0,0.989583,Quarter,G3_D#3_C3
901,Right,0,53,70,370.0,0.322917,Triplet,F3
902,Right,0,56,70,370.333333,0.322917,Triplet,G#3
903,Right,0,60,70,370.666667,0.322917,Triplet,C4
907,Right,0,65,70,371.0,0.322917,Triplet,F4
904,Left,1,41,70,371.0,0.989583,Quarter,G#2_F2_D3
908,Right,0,63,70,371.333333,0.322917,Triplet,D#4
909,Right,0,62,70,371.666667,0.322917,Triplet,D4
910,Right,0,60,70,372.0,0.989583,Quarter,C4
911,Left,1,51,70,372.0,0.989583,Quarter,G2_D#3_C3
914,Right,0,55,120,376.0,0.322917,Triplet,G3
915,Right,0,59,120,376.333333,0.322917,Triplet,B3
916,Right,0,62,120,376.666667,0.322917,Triplet,D4
918,Left,1,31,120,377.0,0.989583,Quarter,G2_G1
917,Right,0,65,120,377.0,0.322917,Triplet,F4
920,Right,0,62,120,377.333333,0.322917,Triplet,D4
921,Right,0,59,120,377.666667,0.322917,Triplet,B3
926,Right,0,60,120,378.0,1.489583,DottedQuarter,G3_D#3_C4
922,Left,1,43,120,378.0,1.489583,DottedQuarter,G2_D#2_C3_C2
929,Right,0,60,120,379.75,0.239583,Sixteenth,C4
930,Right,0,67,120,380.0,0.739583,DottedEighth,G4
931,Right,0,63,120,380.75,0.239583,Sixteenth,D#4
932,Right,0,72,120,381.0,0.739583,DottedEighth,C5
933,Right,0,67,120,381.75,0.239583,Sixteenth,G4
934,Right,0,75,120,382.0,0.739583,DottedEighth,D#5
935,Right,0,72,120,382.75,0.239583,Sixteenth,C5
936,Right,0,79,120,383.0,0.989583,Quarter,G5_G4
937,Left,1,51,120,383.0,0.989583,Quarter,G3_D#3_C3
943,Right,0,67,120,384.0,0.989583,Quarter,G5_G4
941,Left,1,55,120,384.0,0.989583,Quarter,G3_D3_B2
946,Right,0,59,120,385.75,0.239583,Sixteenth,B3
947,Right,0,67,120,386.0,0.739583,DottedEighth,G4
948,Right,0,62,120,386.75,0.239583,Sixteenth,D4
949,Right,0,71,120,387.0,0.739583,DottedEighth,B4
950,Right,0,67,120,387.75,0.239583,Sixteenth,G4
951,Right,0,74,120,388.0,0.739583,DottedEighth,D5
952,Right,0,71,120,388.75,0.239583,Sixteenth,B4
953,Left,1,55,120,389.0,0.989583,Quarter,G3_D3_B2
956,Right,0,67,120,389.0,0.989583,Quarter,G5_G4
958,Left,1,55,120,390.0,0.989583,Quarter,G3_D#3_C3
961,Right,0,67,120,390.0,0.989583,Quarter,G5_G4
963,Right,0,63,120,391.75,0.239583,Sixteenth,D#4
964,Right,0,67,120,392.0,0.739583,DottedEighth,G4
965,Right,0,63,120,392.75,0.239583,Sixteenth,D#4
966,Right,0,72,120,393.0,0.739583,DottedEighth,C5
967,Right,0,67,120,393.75,0.239583,Sixteenth,G4
968,Right,0,75,120,394.0,0.739583,DottedEighth,D#5
969,Right,0,72,120,394.75,0.239583,Sixteenth,C5
970,Left,1,60,120,395.0,0.989583,Quarter,G3_D#3_C4
972,Right,0,79,120,395.0,0.739583,DottedEighth,G5
974,Right,0,75,120,395.75,0.239583,Sixteenth,D#5
976,Right,0,74,120,396.0,0.989583,Quarter,D5
975,Left,1,56,120,396.0,0.989583,Quarter,G#3_F3_D4
979,Right,0,89,120,397.0,0.989583,Quarter,F6
981,Left,1,55,120,399.0,0.989583,Quarter,G3_D4_B3
980,Right,0,71,120,399.0,0.989583,Quarter,B4
984,Right,0,86,120,400.0,0.989583,Quarter,D6
986,Left,1,60,120,402.0,0.989583,Quarter,G3_D#3_C4_C3
985,Right,0,72,120,402.0,0.989583,Quarter,C5
990,Right,0,84,120,403.0,0.989583,Quarter,C6
991,Left,1,63,101,408.0,8.989583,Unknown,D#4
992,Left,1,61,80,411.0,2.989583,DottedHalf,C#4
993,Right,0,67,80,412.0,1.989583,Half,G4
994,Right,0,75,80,413.0,0.989583,Quarter,D#5
996,Right,0,68,80,414.0,2.989583,DottedHalf,G#4_D#5
995,Left,1,60,80,414.0,2.989583,DottedHalf,C4
998,Right,0,75,80,416.0,1.989583,Half,D#5
1001,Right,0,67,80,417.0,2.989583,DottedHalf,G4
999,Left,1,61,80,417.0,2.989583,DottedHalf,C#4_A#3
1002,Right,0,77,80,418.0,0.989583,Quarter,F5
1003,Right,0,73,80,419.0,1.989583,Half,C#5
1006,Right,0,68,80,420.0,2.989583,DottedHalf,G#4
1004,Left,1,56,80,420.0,2.989583,DottedHalf,G#3_D#4
1007,Right,0,71,80,421.0,0.989583,Quarter,B4
1008,Right,0,72,80,422.0,0.989583,Quarter,C5
1009,Left,1,70,101,423.0,5.989583,DottedHalf,C5_A#4
1011,Right,0,76,80,424.0,1.989583,Half,E5
1012,Right,0,84,80,425.0,0.989583,Quarter,C6
1015,Left,1,68,80,426.0,2.989583,DottedHalf,G#4
1013,Right,0,77,80,426.0,2.989583,DottedHalf,F5_C6
1016,Right,0,84,80,428.0,1.989583,Half,C6
1017,Left,1,67,80,429.0,2.989583,DottedHalf,G4_A#4
1019,Right,0,76,80,429.0,2.989583,DottedHalf,E5
1020,Right,0,85,80,430.0,0.989583,Quarter,C#6
1021,Right,0,82,80,431.0,1.989583,Half,A#5
1022,Right,0,72,80,432.0,2.989583,DottedHalf,C5
1023,Left,1,68,80,432.0,2.989583,DottedHalf,G#4_F4
1025,Right,0,79,80,433.0,0.989583,Quarter,G5
1026,Right,0,80,80,434.0,0.989583,Quarter,G#5
1027,Left,1,68,101,435.0,5.989583,Unknown,G#4_F#4
1029,Right,0,72,80,436.0,1.989583,Half,C5
1030,Right,0,80,80,437.0,0.989583,Quarter,G#5
1032,Right,0,73,80,438.0,2.989583,DottedHalf,G#5_C#5
1031,Left,1,65,80,438.0,2.989583,DottedHalf,F4
1034,Right,0,80,80,440.0,1.989583,Half,G#5
1037,Right,0,72,80,441.0,2.989583,DottedHalf,C5
1035,Left,1,66,80,441.0,2.989583,DottedHalf,F#4_D#4
1038,Right,0,82,80,442.0,0.989583,Quarter,A#5
1039,Right,0,78,80,443.0,1.989583,Half,F#5
1042,Right,0,68,80,444.0,2.989583,DottedHalf,G#4
1040,Left,1,65,80,444.0,2.989583,DottedHalf,F4_C#4
1043,Right,0,76,80,445.0,0.989583,Quarter,E5
1044,Right,0,77,80,446.0,1.989583,Half,F5
1047,Right,0,69,80,447.0,2.989583,DottedHalf,A4
1045,Left,1,63,80,447.0,2.989583,DottedHalf,D#4_B3
1048,Right,0,78,80,448.0,0.989583,Quarter,F#5
1049,Right,0,75,80,449.0,1.989583,Half,D#5
1051,Right,0,65,80,450.0,2.989583,DottedHalf,F4
1050,Left,1,58,80,450.0,2.989583,DottedHalf,A#3
1052,Right,0,75,80,451.0,0.989583,Quarter,D#5
1053,Right,0,74,80,452.0,1.989583,Half,D5
1054,Left,1,57,80,453.0,2.989583,DottedHalf,A3
1055,Right,0,75,80,454.0,0.989583,Quarter,D#5
1056,Right,0,63,80,455.0,0.989583,Quarter,F#4_D#4
1059,Right,0,62,80,456.0,0.989583,Quarter,F4_D4
1058,Left,1,46,80,456.0,5.989583,Unknown,A#2
1061,Left,1,53,80,457.0,0.989583,Quarter,F3
1062,Left,1,55,80,458.0,0.989583,Quarter,G3
1063,Left,1,56,80,459.0,0.989583,Quarter,G#3
1065,Right,0,72,80,460.0,0.989583,Quarter,C5
1064,Left,1,52,80,460.0,0.989583,Quarter,E3
1066,Left,1,53,80,461.0,0.989583,Quarter,F3
1067,Right,0,72,80,461.0,0.989583,Quarter,C5
1069,Left,1,46,80,462.0,5.989583,Unknown,G3_A#2
1068,Right,0,72,80,462.0,0.989583,Quarter,C5
1071,Left,1,50,80,463.0,0.989583,Quarter,D3
1072,Right,0,70,80,463.0,0.989583,Quarter,A#4
1073,Left,1,51,80,464.0,0.989583,Quarter,D#3
1074,Left,1,53,80,465.0,0.989583,Quarter,F3
1075,Left,1,48,80,466.0,0.989583,Quarter,C3
1076,Right,0,68,80,466.0,0.989583,Quarter,G#4
1077,Left,1,50,80,467.0,0.989583,Quarter,D3
1078,Right,0,68,80,467.0,0.989583,Quarter,G#4
1080,Right,0,68,80,468.0,0.989583,Quarter,G#4
1079,Left,1,51,80,468.0,5.989583,Quarter,D#3_A#2
1083,Left,1,53,80,469.0,0.989583,Quarter,F3
1082,Right,0,67,80,469.0,0.989583,Quarter,G4
1084,Left,1,55,80,470.0,0.989583,Quarter,G3
1085,Left,1,56,80,471.0,0.989583,Quarter,G#3
1086,Right,0,72,80,471.5,0.489583,Eighth,C5
1088,Left,1,52,80,472.0,0.989583,Quarter,E3
1087,Right,0,71,80,472.0,0.489583,Eighth,B4
1089,Right,0,72,80,472.5,0.489583,Eighth,C5
1091,Left,1,53,80,473.0,0.989583,Quarter,F3
1090,Right,0,74,80,473.0,0.489583,Eighth,D5
1092,Right,0,72,80,473.5,0.489583,Eighth,C5
1093,Left,1,55,80,474.0,5.989583,Quarter,G3_A#2
1095,Right,0,70,80,474.5,0.489583,Eighth,A#4
1097,Right,0,69,80,475.0,0.489583,Eighth,A4
1096,Left,1,50,80,475.0,0.989583,Quarter,D3
1098,Right,0,70,80,475.5,0.489583,Eighth,A#4
1099,Right,0,72,80,476.0,0.489583,Eighth,C5
1100,Left,1,51,80,476.0,0.989583,Quarter,D#3
1101,Right,0,70,80,476.5,0.489583,Eighth,A#4
1102,Left,1,53,80,477.0,0.989583,Quarter,F3
1103,Right,0,68,80,477.5,0.489583,Eighth,G#4
1104,Right,0,67,80,478.0,0.489583,Eighth,G4
1105,Left,1,48,80,478.0,0.989583,Quarter,C3
1106,Right,0,68,80,478.5,0.489583,Eighth,G#4
1108,Left,1,50,80,479.0,0.989583,Quarter,D3
1107,Right,0,70,80,479.0,0.489583,Eighth,A#4
1109,Right,0,68,80,479.5,0.489583,Eighth,G#4
1110,Right,0,67,80,480.0,4.489583,Whole,G4
1111,Left,1,51,80,480.0,0.489583,Eighth,D#3
1112,Left,1,58,80,480.5,0.489583,Eighth,A#3
1113,Left,1,55,80,481.0,0.489583,Eighth,G3
1114,Left,1,58,80,481.5,0.489583,Eighth,A#3
1115,Left,1,53,80,482.0,0.489583,Eighth,F3
1116,Left,1,58,80,482.5,0.489583,Eighth,A#3
1117,Left,1,51,80,483.0,0.489583,Eighth,D#3
1118,Left,1,58,80,483.5,0.489583,Eighth,A#3
1119,Left,1,53,80,484.0,0.489583,Eighth,F3
1120,Left,1,58,80,484.5,0.489583,Eighth,A#3
1121,Right,0,70,80,484.5,0.489583,Eighth,A#4
1122,Right,0,75,80,485.0,0.989583,Quarter,D#5
1123,Left,1,55,80,485.0,0.489583,Eighth,G3
1124,Left,1,58,80,485.5,0.489583,Eighth,A#3
1125,Left,1,53,80,486.0,0.489583,Eighth,F3
1126,Right,0,75,80,486.0,2.989583,DottedHalf,D#5
1127,Left,1,58,80,486.5,0.489583,Eighth,A#3
1128,Left,1,55,80,487.0,0.489583,Eighth,G3
1129,Left,1,58,80,487.5,0.489583,Eighth,A#3
1130,Left,1,56,80,488.0,0.489583,Eighth,G#3
1131,Left,1,58,80,488.5,0.489583,Eighth,A#3
1132,Right,0,74,80,489.0,0.989583,Quarter,D5
1133,Left,1,53,80,489.0,0.489583,Eighth,F3
1134,Left,1,58,80,489.5,0.489583,Eighth,A#3
1135,Left,1,55,80,490.0,0.489583,Eighth,G3
1136,Left,1,58,80,490.5,0.489583,Eighth,A#3
1137,Left,1,56,80,491.0,0.489583,Eighth,G#3
1138,Left,1,58,80,491.5,0.489583,Eighth,A#3
1139,Right,0,70,80,492.0,2.989583,DottedHalf,A#4
1140,Left,1,50,80,492.0,0.489583,Eighth,D3
1141,Left,1,58,80,492.5,0.489583,Eighth,A#3
1142,Left,1,53,80,493.0,0.489583,Eighth,F3
1143,Left,1,58,80,493.5,0.489583,Eighth,A#3
1144,Left,1,51,80,494.0,0.489583,Eighth,D#3
1145,Left,1,58,80,494.5,0.489583,Eighth,A#3
1147,Right,0,70,80,495.0,0.239583,Sixteenth,A#4
1146,Left,1,50,80,495.0,0.489583,Eighth,D3
1148,Right,0,72,80,495.25,0.239583,Sixteenth,C5
1150,Right,0,70,80,495.5,0.239583,Sixteenth,A#4
1149,Left,1,58,80,495.5,0.489583,Eighth,A#3
1151,Right,0,69,80,495.75,0.239583,Sixteenth,A4
1152,Right,0,70,80,496.0,0.489583,Eighth,A#4
1153,Left,1,51,80,496.0,0.489583,Eighth,D#3
1155,Left,1,58,80,496.5,0.489583,Eighth,A#3
1154,Right,0,77,80,496.5,0.489583,Eighth,F5
1156,Left,1,53,80,497.0,0.489583,Eighth,F3
1157,Right,0,80,95,497.0,0.989583,Quarter,G#5
1158,Left,1,58,80,497.5,0.489583,Eighth,A#3
1159,Right,0,80,80,498.0,2.989583,DottedHalf,G#5
1160,Left,1,51,80,498.0,0.489583,Eighth,D#3
1161,Left,1,58,80,498.5,0.489583,Eighth,A#3
1162,Left,1,53,80,499.0,0.489583,Eighth,F3
1163,Left,1,58,80,499.5,0.489583,Eighth,A#3
1164,Left,1,55,80,500.0,0.489583,Eighth,G3
1165,Left,1,58,80,500.5,0.489583,Eighth,A#3
1167,Right,0,79,80,501.0,0.989583,Quarter,G5
1166,Left,1,51,80,501.0,0.489583,Eighth,D#3
1168,Left,1,58,80,501.5,0.489583,Eighth,A#3
1169,Left,1,53,80,502.0,0.489583,Eighth,F3
1170,Left,1,58,80,502.5,0.489583,Eighth,A#3
1171,Left,1,55,80,503.0,0.489583,Eighth,G3
1172,Left,1,58,80,503.5,0.489583,Eighth,A#3
1173,Right,0,67,80,504.0,0.489583,Eighth,G4
1174,Left,1,51,80,504.0,0.489583,Eighth,D#3
1175,Right,0,68,80,504.5,0.489583,Eighth,G#4
1176,Left,1,58,80,504.5,0.489583,Eighth,A#3
1178,Right,0,70,80,505.0,0.489583,Eighth,A#4
1177,Left,1,55,80,505.0,0.489583,Eighth,G3
1180,Right,0,72,80,505.5,0.489583,Eighth,C5
1179,Left,1,58,80,505.5,0.489583,Eighth,A#3
1181,Left,1,51,80,506.0,0.489583,Eighth,D#3
1182,Right,0,74,80,506.0,0.489583,Eighth,D5
1183,Left,1,58,80,506.5,0.489583,Eighth,A#3
1184,Right,0,75,80,506.5,0.489583,Eighth,D#5
1185,Right,0,77,80,507.0,0.489583,Eighth,F5
1186,Left,1,51,80,507.0,0.489583,Eighth,D#3
1187,Left,1,58,80,507.5,0.489583,Eighth,A#3
1188,Right,0,79,80,507.5,0.489583,Eighth,G5
1190,Left,1,55,80,508.0,0.489583,Eighth,G3
1189,Right,0,80,80,508.0,0.489583,Eighth,G#5
1191,Left,1,58,80,508.5,0.489583,Eighth,A#3
1192,Right,0,82,80,508.5,0.489583,Eighth,A#5
1194,Left,1,51,80,509.0,0.489583,Eighth,D#3
1193,Right,0,84,80,509.0,0.489583,Eighth,C6
1195,Left,1,58,80,509.5,0.489583,Eighth,A#3
1196,Right,0,86,80,509.5,0.489583,Eighth,D6
1198,Right,0,87,104,510.0,2.989583,DottedHalf,D#6
1197,Left,1,53,80,510.0,0.489583,Eighth,F3
1199,Left,1,58,80,510.5,0.489583,Eighth,A#3
1200,Left,1,56,80,511.0,0.489583,Eighth,G#3
1201,Left,1,58,80,511.5,0.489583,Eighth,A#3
1202,Left,1,53,80,512.0,0.489583,Eighth,F3
1203,Left,1,58,80,512.5,0.489583,Eighth,A#3
1204,Left,1,53,80,513.0,0.489583,Eighth,F3
1205,Right,0,86,80,513.0,0.989583,Quarter,D6
1206,Left,1,58,80,513.5,0.489583,Eighth,A#3
1207,Left,1,56,80,514.0,0.489583,Eighth,G#3
1208,Left,1,58,80,514.5,0.489583,Eighth,A#3
1209,Left,1,53,80,515.0,0.489583,Eighth,F3
1210,Left,1,58,80,515.5,0.489583,Eighth,A#3
1211,Right,0,58,80,516.0,0.489583,Eighth,A#3
1212,Left,1,50,80,516.0,0.489583,Eighth,D3
1213,Right,0,60,80,516.5,0.489583,Eighth,C4
1214,Left,1,58,80,516.5,0.489583,Eighth,A#3
1216,Left,1,53,80,517.0,0.489583,Eighth,F3
1215,Right,0,62,80,517.0,0.489583,Eighth,D4
1218,Right,0,63,80,517.5,0.489583,Eighth,D#4
1217,Left,1,58,80,517.5,0.489583,Eighth,A#3
1220,Right,0,65,80,518.0,0.489583,Eighth,F4
1219,Left,1,50,80,518.0,0.489583,Eighth,D3
1222,Left,1,58,80,518.5,0.489583,Eighth,A#3
1221,Right,0,67,80,518.5,0.489583,Eighth,G4
1223,Left,1,50,80,519.0,0.489583,Eighth,D3
1224,Right,0,68,80,519.0,0.489583,Eighth,G#4
1226,Right,0,70,80,519.5,0.489583,Eighth,A#4
1225,Left,1,58,80,519.5,0.489583,Eighth,A#3
1228,Left,1,53,80,520.0,0.489583,Eighth,F3
1227,Right,0,72,80,520.0,0.489583,Eighth,C5
1230,Right,0,74,80,520.5,0.489583,Eighth,D5
1229,Left,1,58,80,520.5,0.489583,Eighth,A#3
1232,Right,0,75,80,521.0,0.489583,Eighth,D#5
1231,Left,1,50,80,521.0,0.489583,Eighth,D3
1233,Left,1,58,80,521.5,0.489583,Eighth,A#3
1234,Right,0,77,80,521.5,0.489583,Eighth,F5
1235,Right,0,79,80,522.0,2.989583,DottedHalf,G5
1236,Left,1,51,80,522.5,0.489583,Eighth,D#3
1237,Left,1,50,81,523.0,0.489583,Eighth,D3
1238,Left,1,51,82,523.5,0.489583,Eighth,D#3
1239,Left,1,50,83,524.0,0.489583,Eighth,D3
1240,Left,1,51,84,524.5,0.489583,Eighth,D#3
1242,Left,1,43,85,525.0,0.489583,Eighth,G2
1241,Right,0,87,85,525.0,1.989583,Half,D#6
1243,Left,1,51,86,525.5,0.489583,Eighth,D#3
1244,Left,1,44,86,526.0,0.489583,Eighth,G#2
1245,Left,1,51,87,526.5,0.489583,Eighth,D#3
1247,Left,1,46,88,527.0,0.489583,Eighth,A#2
1246,Right,0,55,88,527.0,0.989583,Quarter,G3
1248,Left,1,51,89,527.5,0.489583,Eighth,D#3
1250,Right,0,56,90,528.0,2.989583,DottedHalf,G#3
1249,Left,1,44,90,528.0,0.489583,Eighth,G#2
1251,Left,1,51,91,528.5,0.489583,Eighth,D#3
1252,Left,1,46,92,529.0,0.489583,Eighth,A#2
1253,Left,1,51,93,529.5,0.489583,Eighth,D#3
1254,Left,1,48,93,530.0,0.489583,Eighth,C3
1255,Left,1,51,94,530.5,0.489583,Eighth,D#3
1256,Left,1,45,95,531.0,0.489583,Eighth,A2
1257,Right,0,57,95,531.0,2.989583,DottedHalf,A3
1258,Left,1,51,96,531.5,0.489583,Eighth,D#3
1259,Left,1,46,97,532.0,0.489583,Eighth,A#2
1260,Left,1,51,98,532.5,0.489583,Eighth,D#3
1261,Left,1,48,99,533.0,0.489583,Eighth,C3
1262,Left,1,51,99,533.5,0.489583,Eighth,D#3
1264,Right,0,58,110,534.0,2.989583,DottedHalf,A#3
1263,Left,1,46,110,534.0,0.489583,Eighth,A#2
1265,Left,1,55,110,534.5,0.489583,Eighth,G3
1266,Left,1,51,110,535.0,0.489583,Eighth,D#3
1267,Left,1,55,110,535.5,0.489583,Eighth,G3
1268,Left,1,46,110,536.0,0.489583,Eighth,A#2
1269,Left,1,55,110,536.5,0.489583,Eighth,G3
1270,Right,0,56,110,537.0,0.489583,Eighth,G#3
1271,Left,1,46,110,537.0,0.489583,Eighth,A#2
1272,Right,0,58,110,537.25,0.489583,Eighth,A#3
1273,Right,0,56,110,537.5,0.489583,Eighth,G#3
1274,Left,1,53,110,537.5,0.489583,Eighth,F3
1275,Right,0,58,110,537.75,0.489583,Eighth,A#3
1277,Left,1,50,110,538.0,0.489583,Eighth,D3
1276,Right,0,56,110,538.0,0.489583,Eighth,G#3
1278,Right,0,58,110,538.25,0.489583,Eighth,A#3
1279,Left,1,53,110,538.5,0.489583,Eighth,F3
1280,Right,0,56,110,538.5,0.489583,Eighth,G#3
1281,Right,0,58,110,538.75,0.489583,Eighth,A#3
1282,Left,1,46,110,539.0,0.489583,Eighth,A#2
1283,Right,0,56,110,539.0,0.489583,Eighth,G#3
1284,Right,0,58,110,539.25,0.489583,Eighth,A#3
1285,Left,1,53,110,539.5,0.489583,Eighth,F3
1286,Right,0,55,110,539.5,0.489583,Eighth,G3
1287,Right,0,56,110,539.75,0.239583,Sixteenth,G#3
1289,Left,1,39,100,540.0,0.989583,Quarter,D#3_D#2
1288,Right,0,55,100,540.0,0.489583,Eighth,G3
1291,Right,0,58,100,540.5,0.489583,Eighth,A#3
1292,Right,0,63,100,541.0,0.489583,Eighth,D#4
1293,Right,0,58,100,541.5,0.489583,Eighth,A#3
1294,Right,0,63,100,542.0,0.489583,Eighth,D#4
1295,Right,0,67,100,542.5,0.489583,Eighth,G4
1296,Right,0,70,100,543.0,0.489583,Eighth,A#4
1297,Right,0,67,100,543.5,0.489583,Eighth,G4
1298,Right,0,70,100,544.0,0.489583,Eighth,A#4
1299,Right,0,75,100,544.5,0.489583,Eighth,D#5
1300,Right,0,79,100,545.0,0.489583,Eighth,G5
1301,Right,0,82,100,545.5,0.489583,Eighth,A#5
1303,Right,0,87,110,546.0,0.989583,Quarter,D#6
1302,Left,1,43,110,546.0,0.489583,Eighth,G2
1304,Left,1,51,110,546.5,0.489583,Eighth,D#3
1305,Left,1,44,110,547.0,0.489583,Eighth,G#2
1306,Left,1,51,110,547.5,0.489583,Eighth,D#3
1308,Left,1,46,110,548.0,0.489583,Eighth,A#2
1307,Right,0,63,120,548.0,2.989583,DottedHalf,D#4
1309,Left,1,51,110,548.5,0.489583,Eighth,D#3
1310,Left,1,43,110,549.0,0.489583,Eighth,G2
1311,Left,1,51,110,549.5,0.489583,Eighth,D#3
1312,Left,1,44,110,550.0,0.489583,Eighth,G#2
1313,Left,1,51,110,550.5,0.489583,Eighth,D#3
1314,Left,1,46,110,551.0,0.489583,Eighth,A#2
1315,Right,0,55,110,551.0,0.989583,Quarter,G3
1316,Left,1,51,110,551.5,0.489583,Eighth,D#3
1317,Right,0,56,110,552.0,1.989583,Half,G#3
1318,Left,1,44,110,552.0,0.489583,Eighth,G#2
1319,Left,1,51,110,552.5,0.489583,Eighth,D#3
1320,Left,1,46,110,553.0,0.489583,Eighth,A#2
1321,Left,1,51,110,553.5,0.489583,Eighth,D#3
1323,Right,0,63,120,554.0,0.989583,Quarter,D#4
1322,Left,1,48,110,554.0,0.489583,Eighth,C3
1324,Left,1,51,110,554.5,0.489583,Eighth,D#3
1326,Left,1,45,110,555.0,0.489583,Eighth,A2
1325,Right,0,57,110,555.0,1.989583,Half,A3
1327,Left,1,51,110,555.5,0.489583,Eighth,D#3
1328,Left,1,46,110,556.0,0.489583,Eighth,A#2
1329,Left,1,51,110,556.5,0.489583,Eighth,D#3
1330,Right,0,63,120,557.0,0.989583,Quarter,D#4
1331,Left,1,48,110,557.0,0.489583,Eighth,C3
1332,Left,1,51,110,557.5,0.489583,Eighth,D#3
1333,Left,1,46,110,558.0,0.489583,Eighth,A#2
1334,Right,0,58,110,558.0,0.489583,Eighth,A#3
1336,Left,1,51,110,558.5,0.489583,Eighth,D#3
1335,Right,0,63,110,558.5,0.489583,Eighth,D#4
1338,Right,0,62,111,559.0,0.489583,Eighth,D4
1337,Left,1,50,111,559.0,0.489583,Eighth,D3
1340,Right,0,63,112,559.5,0.489583,Eighth,D#4
1339,Left,1,51,112,559.5,0.489583,Eighth,D#3
1341,Left,1,47,113,560.0,0.489583,Eighth,B2
1342,Right,0,59,113,560.0,0.489583,Eighth,B3
1343,Right,0,63,114,560.5,0.489583,Eighth,D#4
1344,Left,1,51,114,560.5,0.489583,Eighth,D#3
1346,Left,1,48,115,561.0,0.489583,Eighth,C3
1345,Right,0,60,115,561.0,0.489583,Eighth,C4
1348,Left,1,51,115,561.5,0.489583,Eighth,D#3
1347,Right,0,63,115,561.5,0.489583,Eighth,D#4
1350,Right,0,62,116,562.0,0.489583,Eighth,D4
1349,Left,1,50,116,562.0,0.489583,Eighth,D3
1352,Right,0,63,117,562.5,0.489583,Eighth,D#4
1351,Left,1,51,117,562.5,0.489583,Eighth,D#3
1354,Right,0,57,118,563.0,0.489583,Eighth,A3
1353,Left,1,45,118,563.0,0.489583,Eighth,A2
1356,Left,1,51,119,563.5,0.489583,Eighth,D#3
1355,Right,0,63,119,563.5,0.489583,Eighth,D#4
1358,Right,0,58,120,564.0,0.489583,Eighth,A#3
1357,Left,1,46,120,564.0,0.489583,Eighth,A#2
1359,Left,1,51,120,564.5,0.489583,Eighth,D#3
1360,Right,0,63,120,564.5,0.489583,Eighth,D#4
1361,Right,0,61,120,565.0,0.489583,Eighth,C#4
1362,Left,1,49,120,565.0,0.489583,Eighth,C#3
1364,Right,0,63,120,565.5,0.489583,Eighth,D#4
1363,Left,1,51,120,565.5,0.489583,Eighth,D#3
1366,Right,0,59,120,566.0,0.489583,Eighth,B3
1365,Left,1,47,120,566.0,0.489583,Eighth,B2
1368,Right,0,63,120,566.5,0.489583,Eighth,D#4
1367,Left,1,51,120,566.5,0.489583,Eighth,D#3
1370,Right,0,60,120,567.0,0.489583,Eighth,C4
1369,Left,1,48,120,567.0,0.489583,Eighth,C3
1372,Right,0,63,120,567.5,0.489583,Eighth,D#4
1371,Left,1,51,120,567.5,0.489583,Eighth,D#3
1373,Left,1,50,120,568.0,0.489583,Eighth,D3
1374,Right,0,62,120,568.0,0.489583,Eighth,D4
1375,Left,1,51,120,568.5,0.489583,Eighth,D#3
1376,Right,0,63,120,568.5,0.489583,Eighth,D#4
1378,Right,0,57,120,569.0,0.489583,Eighth,A3
1377,Left,1,45,120,569.0,0.489583,Eighth,A2
1379,Left,1,51,120,569.5,0.489583,Eighth,D#3
1380,Right,0,63,120,569.5,0.489583,Eighth,D#4
1381,Left,1,46,120,570.0,0.989583,Quarter,A#2
1382,Right,0,58,120,570.0,0.989583,Quarter,A#3
1383,Left,1,55,120,571.0,0.989583,Quarter,G3_D#3_A#2
1386,Right,0,63,120,571.75,0.239583,Sixteenth,D#4
1387,Right,0,70,120,572.0,0.739583,DottedEighth,A#4
1388,Right,0,67,120,572.75,0.239583,Sixteenth,G4
1389,Right,0,75,120,573.0,0.989583,Quarter,D#5
1390,Left,1,51,120,574.0,0.989583,Quarter,F#3_D#3_C3
1393,Right,0,63,120,574.75,0.239583,Sixteenth,D#4
1394,Right,0,69,120,575.0,0.739583,DottedEighth,A4
1395,Right,0,66,120,575.75,0.239583,Sixteenth,F#4
1396,Right,0,75,120,576.0,0.989583,Quarter,D#5
1397,Left,1,46,120,577.0,0.989583,Quarter,G3_D#3_A#2
1400,Right,0,63,120,577.75,0.239583,Sixteenth,D#4
1401,Right,0,70,120,578.0,0.739583,DottedEighth,A#4
1402,Right,0,67,120,578.75,0.239583,Sixteenth,G4
1403,Right,0,75,120,579.0,0.989583,Quarter,D#5
1404,Left,1,45,120,580.0,0.989583,Quarter,F#3_D#3_A3_A2
1408,Right,0,72,120,580.75,0.239583,Sixteenth,C5
1409,Right,0,78,120,581.0,0.739583,DottedEighth,F#5
1410,Right,0,75,120,581.75,0.239583,Sixteenth,D#5
1411,Right,0,79,120,582.0,1.489583,DottedQuarter,G5
1412,Left,1,58,120,583.0,0.989583,Quarter,G3_D#3_A#3_A#2
1416,Right,0,75,120,583.5,0.489583,Eighth,D#5
1417,Right,0,75,120,584.0,0.489583,Eighth,D#5
1418,Right,0,70,120,584.5,0.489583,Eighth,A#4
1419,Right,0,70,120,585.0,0.489583,Eighth,A#4
1420,Right,0,67,120,585.5,0.489583,Eighth,G4
1421,Right,0,67,120,586.0,0.489583,Eighth,G4
1422,Right,0,63,120,586.5,0.489583,Eighth,D#4
1423,Right,0,63,120,587.0,0.489583,Eighth,D#4
1424,Right,0,58,120,587.5,0.489583,Eighth,A#3
1425,Right,0,58,120,588.0,0.489583,Eighth,A#3
1426,Right,0,55,120,588.5,0.489583,Eighth,G3
1427,Right,0,55,120,589.0,0.489583,Eighth,G3
1428,Right,0,51,120,589.5,0.489583,Eighth,D#3
1429,Right,0,51,120,590.0,0.489583,Eighth,D#3
1430,Right,0,46,120,590.5,0.489583,Eighth,A#2
1431,Left,1,46,120,591.0,2.989583,DottedHalf,A#2_A#1
1433,Right,0,53,120,593.0,0.989583,Quarter,G#3_F3_D4_A#3
1437,Left,1,39,120,594.0,0.989583,Quarter,D#2
1438,Right,0,55,120,594.0,0.989583,Quarter,G3_D#4_A#3
1441,Left,1,46,120,595.0,4.989583,Unknown,A#2
1442,Left,1,45,100,596.0,0.989583,Quarter,A2
1443,Left,1,44,100,597.0,0.989583,Quarter,G#2
1444,Right,0,70,100,598.0,0.989583,Quarter,G#4_F4_D4_A#4
1448,Left,1,43,100,598.0,0.989583,Quarter,G2
1450,Right,0,62,100,599.0,0.989583,Quarter,G#4_F4_D4_A#4
1449,Left,1,41,100,599.0,0.989583,Quarter,F2
1454,Left,1,39,100,600.0,0.989583,Quarter,D#2
1455,Right,0,63,100,600.0,1.989583,Half,G4_D#4_C5
1458,Right,0,70,100,601.0,0.989583,Quarter,A#4
1459,Left,1,43,100,601.0,0.989583,Quarter,G2
1460,Left,1,46,100,602.0,0.989583,Quarter,A#2
1461,Left,1,34,100,603.0,0.989583,Quarter,A#1
1465,Left,1,41,100,604.0,0.989583,Quarter,F2
1462,Right,0,74,100,604.0,0.989583,Quarter,G#4_F4_D5
1467,Left,1,46,100,605.0,0.989583,Quarter,A#2
1466,Right,0,74,100,605.0,0.989583,Quarter,G#4_F4_D5
1470,Right,0,67,100,606.0,1.989583,Half,G4_F5_A#4
1472,Left,1,39,100,606.0,0.989583,Quarter,D#2
1475,Left,1,46,115,607.0,4.989583,Unknown,A#2
1474,Right,0,75,100,607.0,0.989583,Quarter,D#5
1476,Left,1,45,100,608.0,0.989583,Quarter,A2
1477,Left,1,44,100,609.0,0.989583,Quarter,G#2
1482,Left,1,43,100,610.0,0.989583,Quarter,G2
1478,Right,0,70,100,610.0,0.989583,Quarter,G#4_F4_D4_A#4
1487,Left,1,41,100,611.0,0.989583,Quarter,F2
1483,Right,0,70,100,611.0,0.989583,Quarter,G#4_F4_D4_A#4
1489,Left,1,39,100,612.0,0.989583,Quarter,D#2
1488,Right,0,67,100,612.0,1.989583,Half,G4_D#4_C5
1493,Left,1,43,100,613.0,0.989583,Quarter,G2
1492,Right,0,70,100,613.0,0.989583,Quarter,A#4
1494,Left,1,46,100,614.0,0.989583,Quarter,A#2
1495,Left,1,34,100,615.0,0.989583,Quarter,A#1
1496,Right,0,62,80,616.0,0.989583,Quarter,G#3_F3_D4
1497,Left,1,41,80,616.0,0.989583,Quarter,F2
1502,Left,1,46,80,617.0,0.989583,Quarter,A#2
1500,Right,0,56,80,617.0,0.989583,Quarter,G#3_F3_D4
1506,Left,1,39,79,618.0,0.989583,Quarter,D#2
1504,Right,0,65,79,618.0,1.989583,Half,G3_F4_A#3
1509,Left,1,43,78,619.0,0.989583,Quarter,G2
1508,Right,0,63,78,619.0,0.989583,Quarter,D#4
1510,Left,1,46,77,620.0,0.989583,Quarter,A#2
1511,Left,1,34,76,621.0,0.989583,Quarter,A#1
1515,Left,1,41,75,622.0,0.989583,Quarter,F2
1512,Right,0,53,75,622.0,0.989583,Quarter,G#3_F3_D4
1516,Right,0,53,74,623.0,0.989583,Quarter,G#3_F3_D4
1519,Left,1,46,74,623.0,0.989583,Quarter,A#2
1520,Right,0,56,73,624.0,2.989583,DottedHalf,G#3_F4_D4
1521,Left,1,39,73,624.0,0.989583,Quarter,D#2
1524,Left,1,43,72,625.0,0.989583,Quarter,G2
1525,Left,1,46,71,626.0,0.989583,Quarter,A#2
1527,Right,0,58,71,627.0,0.989583,Quarter,G3_D#4_A#3
1526,Left,1,51,71,627.0,0.989583,Quarter,D#3
1531,Right,0,67,110,630.0,1.489583,DottedQuarter,G4_E4_C5
1530,Left,1,52,110,630.0,1.489583,DottedQuarter,G3_E3_C4_C3
1537,Right,0,67,110,631.75,0.239583,Sixteenth,G4
1538,Right,0,76,110,632.0,0.739583,DottedEighth,E5
1539,Right,0,72,110,632.75,0.239583,Sixteenth,C5
1540,Right,0,79,110,633.0,0.739583,DottedEighth,G5
1541,Right,0,76,110,633.75,0.239583,Sixteenth,E5
1542,Right,0,84,110,634.0,0.739583,DottedEighth,C6
1543,Right,0,79,110,634.75,0.239583,Sixteenth,G5
1544,Right,0,88,110,635.0,0.989583,Quarter,E6
1545,Right,0,88,110,636.0,0.989583,Quarter,E6
1548,Left,1,64,80,638.0,0.989583,Quarter,G4_E4
1546,Right,0,76,80,638.0,0.989583,Quarter,E5_C5
1550,Left,1,67,80,639.0,1.989583,Half,G4_E4
1552,Right,0,76,80,639.0,1.989583,Half,E5_C5
1554,Left,1,68,80,641.0,0.989583,Quarter,G#4_F4
1556,Right,0,74,80,641.0,0.989583,Quarter,D5_B4
1559,Left,1,68,110,642.0,1.489583,DottedQuarter,G#4_F4
1558,Right,0,71,110,642.0,1.489583,DottedQuarter,D5_B4
1562,Right,0,71,110,643.75,0.239583,Sixteenth,B4
1563,Right,0,77,110,644.0,0.739583,DottedEighth,F5
1564,Right,0,74,110,644.75,0.239583,Sixteenth,D5
1565,Right,0,83,110,645.0,0.739583,DottedEighth,B5
1566,Right,0,77,110,645.75,0.239583,Sixteenth,F5
1567,Right,0,86,110,646.0,0.739583,DottedEighth,D6
1568,Right,0,83,110,646.75,0.239583,Sixteenth,B5
1569,Right,0,89,110,647.0,0.989583,Quarter,F6
1570,Right,0,89,110,648.0,0.989583,Quarter,F6
1571,Right,0,74,80,650.0,0.989583,Quarter,F5_D5
1573,Left,1,65,80,650.0,0.989583,Quarter,G#4_F4
1577,Left,1,68,80,651.0,1.989583,Half,G#4_F4
1575,Right,0,74,80,651.0,1.989583,Half,F5_D5
1580,Left,1,67,80,653.0,0.989583,Quarter,G4_A#4
1579,Right,0,73,80,653.0,0.989583,Quarter,E5_C#5
1583,Right,0,76,110,654.0,1.489583,DottedQuarter,E5_C#5
1585,Left,1,67,110,654.0,1.489583,DottedQuarter,G4_A#4
1587,Right,0,70,110,655.75,0.239583,Sixteenth,A#4
1588,Right,0,76,110,656.0,0.739583,DottedEighth,E5
1589,Right,0,73,110,656.75,0.239583,Sixteenth,C#5
1590,Right,0,79,110,657.0,0.739583,DottedEighth,G5
1591,Right,0,76,110,657.75,0.239583,Sixteenth,E5
1592,Right,0,82,110,658.0,0.739583,DottedEighth,A#5
1593,Right,0,79,110,658.75,0.239583,Sixteenth,G5
1594,Right,0,85,110,659.0,0.989583,Quarter,C#6
1595,Right,0,67,110,660.0,0.989583,Quarter,G4
1596,Right,0,82,110,661.0,0.989583,Quarter,A#5
1597,Right,0,64,110,663.0,0.989583,Quarter,E4
1598,Right,0,79,110,664.0,0.989583,Quarter,G5
1599,Right,0,77,80,666.0,2.989583,DottedHalf,F5_F4
1601,Left,1,53,80,666.0,0.489583,Eighth,F3
1602,Left,1,60,80,666.5,0.489583,Eighth,C4
1603,Left,1,56,80,667.0,0.489583,Eighth,G#3
1604,Left,1,60,80,667.5,0.489583,Eighth,C4
1605,Left,1,53,80,668.0,0.489583,Eighth,F3
1606,Left,1,60,80,668.5,0.489583,Eighth,C4
1607,Right,0,72,80,669.0,1.989583,Half,C6_C5
1609,Left,1,53,80,669.0,0.489583,Eighth,F3
1610,Left,1,60,80,669.5,0.489583,Eighth,C4
1611,Left,1,56,80,670.0,0.489583,Eighth,G#3
1612,Left,1,60,80,670.5,0.489583,Eighth,C4
1615,Left,1,53,80,671.0,0.489583,Eighth,F3
1613,Right,0,84,80,671.0,0.989583,Quarter,C6_C5
1616,Left,1,60,80,671.5,0.489583,Eighth,C4
1618,Right,0,72,80,672.0,0.989583,Quarter,C6_C5
1617,Left,1,55,80,672.0,0.489583,Eighth,G3
1620,Left,1,60,80,672.5,0.489583,Eighth,C4
1621,Right,0,71,80,673.0,0.989583,Quarter,B5_B4
1623,Left,1,58,80,673.0,0.489583,Eighth,A#3
1624,Left,1,60,80,673.5,0.489583,Eighth,C4
1626,Right,0,85,80,674.0,0.989583,Quarter,C#6_C#5
1625,Left,1,55,80,674.0,0.489583,Eighth,G3
1628,Left,1,60,80,674.5,0.489583,Eighth,C4
1629,Right,0,84,80,675.0,0.989583,Quarter,C6_C5
1631,Left,1,52,80,675.0,0.489583,Eighth,E3
1632,Left,1,60,80,675.5,0.489583,Eighth,C4
1633,Right,0,70,80,676.0,0.989583,Quarter,A#5_A#4
1635,Left,1,55,80,676.0,0.489583,Eighth,G3
1636,Left,1,60,80,676.5,0.489583,Eighth,C4
1637,Right,0,67,80,677.0,0.989583,Quarter,G5_G4
1639,Left,1,52,80,677.0,0.489583,Eighth,E3
1640,Left,1,60,80,677.5,0.489583,Eighth,C4
1643,Left,1,48,80,678.0,0.489583,Eighth,C3
1641,Right,0,64,80,678.0,1.989583,Half,E5_E4
1644,Left,1,60,83,678.5,0.489583,Eighth,C4
1645,Left,1,52,87,679.0,0.489583,Eighth,E3
1646,Left,1,60,91,679.5,0.489583,Eighth,C4
1647,Left,1,55,95,680.0,0.489583,Eighth,G3
1648,Right,0,79,95,680.0,0.989583,Quarter,G5_G4
1650,Left,1,60,99,680.5,0.489583,Eighth,C4
1652,Left,1,52,100,681.0,0.489583,Eighth,E3
1651,Right,0,72,100,681.0,1.989583,Half,C6_C5
1654,Left,1,60,97,681.5,0.489583,Eighth,C4
1655,Left,1,55,93,682.0,0.489583,Eighth,G3
1656,Left,1,60,89,682.5,0.489583,Eighth,C4
1657,Left,1,58,85,683.0,0.489583,Eighth,A#3
1658,Right,0,67,85,683.0,0.989583,Quarter,G5_G4
1660,Left,1,60,81,683.5,0.489583,Eighth,C4
1663,Left,1,53,80,684.0,0.489583,Eighth,F3
1661,Right,0,70,80,684.0,2.989583,DottedHalf,A#5_A#4
1664,Left,1,60,80,684.5,0.489583,Eighth,C4
1665,Left,1,56,80,685.0,0.489583,Eighth,G#3
1666,Left,1,60,80,685.5,0.489583,Eighth,C4
1667,Left,1,53,80,686.0,0.489583,Eighth,F3
1668,Left,1,60,80,686.5,0.489583,Eighth,C4
1670,Right,0,80,80,687.0,0.989583,Quarter,G#5_G#4
1669,Left,1,53,80,687.0,0.489583,Eighth,F3
1672,Left,1,60,80,687.5,0.489583,Eighth,C4
1673,Left,1,52,80,688.0,0.489583,Eighth,E3
1674,Left,1,53,80,688.5,0.489583,Eighth,F3
1675,Left,1,51,80,689.0,0.489583,Eighth,D#3
1676,Right,0,69,80,689.0,0.989583,Quarter,A5_A4
1678,Left,1,53,80,689.5,0.489583,Eighth,F3
1679,Left,1,49,80,690.0,0.489583,Eighth,C#3
1680,Right,0,82,80,690.0,2.989583,DottedHalf,A#5_A#4
1682,Left,1,53,81,690.5,0.489583,Eighth,F3
1683,Left,1,48,83,691.0,0.489583,Eighth,C3
1684,Left,1,53,85,691.5,0.489583,Eighth,F3
1685,Left,1,49,87,692.0,0.489583,Eighth,C#3
1686,Left,1,53,89,692.5,0.489583,Eighth,F3
1687,Right,0,89,90,693.0,1.989583,Half,F6_F5
1689,Left,1,46,90,693.0,0.489583,Eighth,A#2
1690,Left,1,53,92,693.5,0.489583,Eighth,F3
1691,Left,1,48,94,694.0,0.489583,Eighth,C3
1692,Left,1,53,96,694.5,0.489583,Eighth,F3
1693,Right,0,89,98,695.0,0.989583,Quarter,F6_F5
1695,Left,1,49,98,695.0,0.489583,Eighth,C#3
1696,Left,1,53,99,695.5,0.489583,Eighth,F3
1699,Left,1,48,100,696.0,0.489583,Eighth,C3
1697,Right,0,89,100,696.0,0.989583,Quarter,F6_F5
1700,Left,1,53,99,696.5,0.489583,Eighth,F3
1701,Left,1,51,97,697.0,0.489583,Eighth,D#3
1702,Right,0,76,97,697.0,0.989583,Quarter,E6_E5
1704,Left,1,53,95,697.5,0.489583,Eighth,F3
1706,Right,0,90,93,698.0,0.989583,Quarter,F#6_F#5
1705,Left,1,48,93,698.0,0.489583,Eighth,C3
1708,Left,1,53,91,698.5,0.489583,Eighth,F3
1711,Left,1,45,90,699.0,0.489583,Eighth,A2
1709,Right,0,77,90,699.0,0.989583,Quarter,F6_F5
1712,Left,1,53,88,699.5,0.489583,Eighth,F3
1713,Right,0,75,86,700.0,0.989583,Quarter,D#6_D#5
1715,Left,1,48,86,700.0,0.489583,Eighth,C3
1716,Left,1,53,84,700.5,0.489583,Eighth,F3
1717,Left,1,45,82,701.0,0.489583,Eighth,A2
1718,Right,0,72,82,701.0,0.989583,Quarter,C6_C5
1720,Left,1,53,81,701.5,0.489583,Eighth,F3
1721,Right,0,81,80,702.0,1.989583,Half,A5_A4
1723,Left,1,41,80,702.0,0.489583,Eighth,F2
1724,Left,1,53,80,702.5,0.489583,Eighth,F3
1725,Left,1,45,80,703.0,0.489583,Eighth,A2
1726,Left,1,53,80,703.5,0.489583,Eighth,F3
1727,Left,1,48,80,704.0,0.489583,Eighth,C3
1728,Right,0,84,80,704.0,0.989583,Quarter,C6_C5
1730,Left,1,53,80,704.5,0.489583,Eighth,F3
1731,Right,0,77,80,705.0,1.989583,Half,F6_F5
1733,Left,1,45,80,705.0,0.489583,Eighth,A2
1734,Left,1,53,80,705.5,0.489583,Eighth,F3
1735,Left,1,48,80,706.0,0.489583,Eighth,C3
1736,Left,1,53,80,706.5,0.489583,Eighth,F3
1739,Left,1,51,80,707.0,0.489583,Eighth,D#3
1737,Right,0,84,80,707.0,0.989583,Quarter,C6_C5
1740,Left,1,53,80,707.5,0.489583,Eighth,F3
1741,Right,0,87,80,708.0,2.989583,DottedHalf,D#6_D#5
1743,Left,1,46,80,708.0,0.489583,Eighth,A#2
1744,Left,1,53,80,708.5,0.489583,Eighth,F3
1745,Left,1,49,80,709.0,0.489583,Eighth,C#3
1746,Left,1,53,80,709.5,0.489583,Eighth,F3
1747,Left,1,46,80,710.0,0.489583,Eighth,A#2
1748,Left,1,53,80,710.5,0.489583,Eighth,F3
1749,Right,0,73,80,711.0,0.989583,Quarter,C#6_C#5
1750,Left,1,46,80,711.0,0.489583,Eighth,A#2
1752,Left,1,53,80,711.5,0.489583,Eighth,F3
1753,Left,1,49,80,712.0,0.489583,Eighth,C#3
1754,Left,1,53,80,712.5,0.489583,Eighth,F3
1755,Left,1,46,80,713.0,0.489583,Eighth,A#2
1756,Right,0,73,80,713.0,0.989583,Quarter,C#5
1757,Left,1,53,80,713.5,0.489583,Eighth,F3
1759,Right,0,72,100,714.0,1.989583,Half,C5
1758,Left,1,44,100,714.0,0.489583,Eighth,G#2
1760,Left,1,54,100,714.5,0.489583,Eighth,F#3
1761,Left,1,51,100,715.0,0.489583,Eighth,D#3
1762,Left,1,54,100,715.5,0.489583,Eighth,F#3
1764,Right,0,77,100,716.0,0.489583,Eighth,F5
1763,Left,1,44,100,716.0,0.489583,Eighth,G#2
1765,Right,0,75,100,716.25,0.489583,Eighth,D#5
1766,Right,0,74,100,716.5,0.489583,Eighth,D5
1767,Left,1,54,100,716.5,0.489583,Eighth,F#3
1768,Right,0,75,100,716.75,0.239583,Sixteenth,D#5
1770,Left,1,44,100,717.0,0.489583,Eighth,G#2
1769,Right,0,80,100,717.0,1.989583,Half,G#5
1771,Left,1,54,100,717.5,0.489583,Eighth,F#3
1772,Left,1,48,100,718.0,0.489583,Eighth,C3
1773,Left,1,54,100,718.5,0.489583,Eighth,F#3
1774,Right,0,75,100,719.0,0.989583,Quarter,D#5
1775,Left,1,44,100,719.0,0.489583,Eighth,G#2
1776,Left,1,54,100,719.5,0.489583,Eighth,F#3
1777,Left,1,49,100,720.0,0.989583,Quarter,F3_C#3
1778,Right,0,77,100,720.0,0.989583,Quarter,F5
1780,Right,0,76,100,721.0,0.989583,Quarter,E5
1781,Right,0,78,100,722.0,0.989583,Quarter,F#5
1783,Right,0,77,100,723.0,0.989583,Quarter,F5
1782,Left,1,68,100,723.0,0.989583,Quarter,G#4
1785,Left,1,66,100,724.0,0.989583,Quarter,F#4
1784,Right,0,75,100,724.0,0.989583,Quarter,D#5
1786,Right,0,72,100,725.0,0.989583,Quarter,C5
1787,Left,1,63,100,725.0,0.989583,Quarter,D#4
1789,Left,1,65,100,726.0,0.989583,Quarter,F4
1788,Right,0,80,100,726.0,0.989583,Quarter,G#5
1791,Left,1,64,100,727.0,0.989583,Quarter,E4
1790,Right,0,79,100,727.0,0.989583,Quarter,G5
1793,Left,1,66,100,728.0,0.989583,Quarter,F#4
1792,Right,0,82,100,728.0,0.989583,Quarter,A#5
1794,Right,0,80,100,729.0,0.989583,Quarter,G#5
1795,Left,1,65,100,729.0,0.989583,Quarter,F4
1796,Right,0,78,100,730.0,0.989583,Quarter,F#5
1797,Left,1,63,100,730.0,0.989583,Quarter,D#4
1798,Right,0,75,100,731.0,0.989583,Quarter,D#5
1799,Left,1,60,100,731.0,0.989583,Quarter,C4
1800,Left,1,61,100,732.0,0.989583,Quarter,C#4
1801,Right,0,77,100,732.0,0.989583,Quarter,F5
1802,Right,0,76,100,733.0,0.989583,Quarter,E5
1803,Left,1,60,100,733.0,0.989583,Quarter,C4
1804,Left,1,63,100,734.0,0.989583,Quarter,D#4
1805,Right,0,78,100,734.0,0.989583,Quarter,F#5
1806,Left,1,61,100,735.0,0.989583,Quarter,C#4
1807,Right,0,77,100,735.0,0.989583,Quarter,F5
1808,Left,1,60,100,736.0,0.989583,Quarter,C4
1809,Right,0,75,100,736.0,0.989583,Quarter,D#5
1811,Right,0,72,100,737.0,0.989583,Quarter,C5
1810,Left,1,57,100,737.0,0.989583,Quarter,A3
1812,Right,0,73,100,738.0,2.989583,DottedHalf,C#5
1813,Left,1,58,100,738.0,0.989583,Quarter,A#3
1814,Left,1,61,100,739.0,0.989583,Quarter,C#4
1815,Left,1,56,100,740.0,0.989583,Quarter,G#3
1817,Right,0,82,100,741.0,1.989583,Half,C#5_A#5
1816,Left,1,55,100,741.0,0.989583,Quarter,G3
1819,Left,1,56,100,742.0,0.989583,Quarter,G#3
1820,Right,0,82,100,743.0,0.989583,Quarter,C#5_A#5
1822,Left,1,53,100,743.0,0.989583,Quarter,F3
1824,Right,0,82,117,744.0,4.989583,Unknown,C5_A#5
1823,Left,1,52,100,744.0,0.989583,Quarter,E3
1826,Left,1,55,100,745.0,0.989583,Quarter,G3
1827,Left,1,50,100,746.0,0.989583,Quarter,D3
1828,Left,1,48,100,747.0,0.989583,Quarter,C3
1829,Left,1,50,100,748.0,0.989583,Quarter,D3
1830,Right,0,67,100,749.0,0.989583,Quarter,G4_A#4
1831,Left,1,52,100,749.0,0.989583,Quarter,E3
1835,Left,1,53,100,750.0,0.989583,Quarter,F3
1833,Right,0,68,100,750.0,2.989583,DottedHalf,G#4_F4
1836,Left,1,56,101,751.0,0.989583,Quarter,G#3
1837,Left,1,51,103,752.0,0.989583,Quarter,D#3
1838,Right,0,77,105,753.0,1.989583,Half,G#5_F5
1840,Left,1,50,105,753.0,0.989583,Quarter,D3
1841,Left,1,53,106,754.0,0.989583,Quarter,F3
1844,Left,1,48,108,755.0,0.989583,Quarter,C3
1842,Right,0,77,108,755.0,0.989583,Quarter,G#5_F5
1845,Left,1,47,110,756.0,0.989583,Quarter,B2
1846,Right,0,77,121,756.0,4.989583,Unknown,G5_F5
1848,Left,1,50,110,757.0,0.989583,Quarter,D3
1849,Left,1,45,110,758.0,0.989583,Quarter,A2
1850,Left,1,43,110,759.0,0.989583,Quarter,G2
1851,Left,1,45,110,760.0,0.989583,Quarter,A2
1852,Right,0,65,110,761.0,0.989583,Quarter,F4_D4
1854,Left,1,47,110,761.0,0.989583,Quarter,B2
1855,Right,0,63,110,762.0,0.989583,Quarter,D#4_C4
1857,Left,1,48,110,762.0,0.989583,Quarter,C3
1858,Left,1,51,110,763.0,0.989583,Quarter,D#3
1859,Left,1,46,110,764.0,0.989583,Quarter,A#2
1862,Left,1,44,110,765.0,0.989583,Quarter,G#2
1860,Right,0,72,110,765.0,1.989583,Half,D#5_C6_C5
1864,Left,1,48,110,766.0,0.989583,Quarter,C3
1866,Left,1,43,110,767.0,0.989583,Quarter,G2
1865,Right,0,84,110,767.0,0.989583,Quarter,D#5_C6_C5
1872,Left,1,41,110,768.0,0.989583,Quarter,F2
1869,Right,0,72,110,768.0,2.989583,DottedHalf,G#5_C6_C5
1873,Left,1,44,110,769.0,0.989583,Quarter,G#2
1874,Left,1,39,110,770.0,0.989583,Quarter,D#2
1875,Left,1,38,110,771.0,0.989583,Quarter,D2
1876,Right,0,77,110,771.0,1.989583,Half,G#5_F6_F5
1879,Left,1,41,110,772.0,0.989583,Quarter,F2
1880,Right,0,77,110,773.0,0.989583,Quarter,G#5_F6_F5
1883,Left,1,36,110,773.0,0.989583,Quarter,C2
1884,Right,0,77,120,774.0,4.989583,Unknown,G5_F6_F5_D6
1886,Left,1,35,120,774.0,0.989583,Quarter,B1
1889,Left,1,38,120,775.0,0.989583,Quarter,D2
1890,Left,1,33,120,776.0,0.989583,Quarter,A1
1891,Left,1,31,120,777.0,0.989583,Quarter,G1
1892,Left,1,33,120,778.0,0.989583,Quarter,A1
1894,Left,1,35,120,779.0,0.989583,Quarter,B1
1893,Right,0,77,120,779.0,0.989583,Quarter,F5_D5
1897,Right,0,75,120,780.0,1.989583,Half,D#5_C5
1896,Left,1,36,120,780.0,0.989583,Quarter,C2
1899,Left,1,38,120,781.0,0.989583,Quarter,D2
1900,Left,1,39,120,782.0,0.989583,Quarter,D#2
1901,Right,0,67,120,782.0,1.989583,Half,G4_D#5
1904,Left,1,41,120,783.0,1.989583,Half,F2
1903,Right,0,68,120,783.0,1.989583,Half,G#4
1905,Right,0,65,120,784.0,0.989583,Quarter,F4_D5
1910,Left,1,42,120,785.0,0.989583,Quarter,F#2
1907,Right,0,72,120,785.0,0.989583,Quarter,D#4_C5_A4
1912,Right,0,67,120,786.0,0.989583,Quarter,G4_D4_B4
1911,Left,1,43,120,786.0,0.989583,Quarter,G2
1915,Left,1,55,80,787.0,0.989583,Quarter,G3
1916,Right,0,71,80,788.0,0.989583,Quarter,G5_D5_B4
1919,Right,0,72,80,789.0,0.989583,Quarter,G#4_F5_C5
1922,Left,1,55,80,790.0,0.989583,Quarter,G3
1923,Right,0,67,80,791.0,0.989583,Quarter,G4_D#5_A#4
1926,Right,0,74,80,792.0,0.989583,Quarter,G#4_F4_D5
1929,Left,1,55,80,793.0,0.989583,Quarter,G3
1930,Right,0,72,80,794.0,0.989583,Quarter,G4_D#4_C5
1933,Right,0,62,80,795.0,0.989583,Quarter,F4_D4_B4
1936,Left,1,55,80,796.0,0.989583,Quarter,G3
1937,Right,0,68,80,797.0,0.989583,Quarter,G#4_D#4_C4
1940,Right,0,62,80,798.0,0.989583,Quarter,G4_D4_B3
1943,Left,1,43,80,799.0,0.989583,Quarter,G2
1944,Right,0,79,80,800.0,0.989583,Quarter,G5_D5_B4
1947,Right,0,77,79,801.0,0.989583,Quarter,G#4_F5_C5
1950,Left,1,43,79,802.0,0.989583,Quarter,G2
1951,Right,0,75,78,803.0,0.989583,Quarter,G4_D#5_A#4
1954,Right,0,74,77,804.0,0.989583,Quarter,G#4_F4_D5
1957,Left,1,43,77,805.0,0.989583,Quarter,G2
1958,Right,0,63,76,806.0,0.989583,Quarter,G4_D#4_C5
1961,Right,0,71,76,807.0,0.989583,Quarter,F4_D4_B4
1964,Left,1,43,75,808.0,0.989583,Quarter,G2
1965,Right,0,68,74,809.0,0.989583,Quarter,G#4_D#4_C4
1968,Right,0,59,74,810.0,0.989583,Quarter,G4_D4_B3
1971,Left,1,43,73,811.0,0.989583,Quarter,G2_G1
1973,Right,0,56,72,812.0,0.989583,Quarter,G#3_F4_C4
1976,Right,0,60,72,813.0,0.989583,Quarter,G3_D#4_C4
1979,Left,1,31,71,814.0,0.989583,Quarter,G2_G1
1981,Right,0,62,71,815.0,0.989583,Quarter,F3_D4_B3
1984,Right,0,60,110,816.0,1.489583,DottedQuarter,G3_D#3_C4
1985,Left,1,36,110,816.0,1.489583,DottedQuarter,G2_D#2_C3_C2
1991,Right,0,67,110,817.75,0.239583,Sixteenth,G4
1992,Right,0,75,110,818.0,0.739583,DottedEighth,D#5
1993,Right,0,72,110,818.75,0.239583,Sixteenth,C5
1994,Right,0,79,110,819.0,0.739583,DottedEighth,G5
1995,Right,0,75,110,819.75,0.239583,Sixteenth,D#5
1996,Right,0,84,110,820.0,0.739583,DottedEighth,C6
1997,Right,0,79,110,820.75,0.239583,Sixteenth,G5
1998,Right,0,87,110,821.0,0.989583,Quarter,D#6
1999,Right,0,87,110,822.0,0.989583,Quarter,D#6
2000,Right,0,67,80,824.0,0.989583,Quarter,G4_C5
2001,Left,1,60,80,824.0,0.989583,Quarter,D#4_C4
2006,Left,1,60,80,825.0,1.989583,Half,D#4_C4
2004,Right,0,67,80,825.0,1.989583,Half,G4_C5
2010,Right,0,71,80,827.0,0.989583,Quarter,G4_B4
2008,Left,1,65,80,827.0,0.989583,Quarter,F4_D4
2012,Right,0,68,110,828.0,1.489583,DottedQuarter,G#4_F4_B4
2013,Left,1,50,110,828.0,1.489583,DottedQuarter,G#3_F3_D4_D3_B3
2020,Right,0,71,110,829.75,0.239583,Sixteenth,B4
2021,Right,0,77,110,830.0,0.739583,DottedEighth,F5
2022,Right,0,74,110,830.75,0.239583,Sixteenth,D5
2023,Right,0,83,110,831.0,0.739583,DottedEighth,B5
2024,Right,0,77,110,831.75,0.239583,Sixteenth,F5
2025,Right,0,86,110,832.0,0.739583,DottedEighth,D6
2026,Right,0,83,110,832.75,0.239583,Sixteenth,B5
2027,Right,0,89,110,833.0,0.989583,Quarter,F6
2028,Right,0,89,110,834.0,0.989583,Quarter,F6
2029,Right,0,74,80,836.0,0.989583,Quarter,D5_B4
2031,Left,1,68,80,836.0,0.989583,Quarter,G#4_F4_D4
2034,Left,1,62,80,837.0,1.989583,Half,G#4_F4_D4
2035,Right,0,74,80,837.0,1.989583,Half,D5_B4
2041,Right,0,72,81,839.0,0.989583,Quarter,C5
2039,Left,1,67,81,839.0,0.989583,Quarter,G4_D#4
2042,Right,0,72,82,840.0,0.239583,Sixteenth,C5
2043,Right,0,75,82,840.125,0.114583,ThirtySecond,D#5
2044,Right,0,79,82,840.25,1.239583,TiedQuarter-Sixteenth,G5
2045,Right,0,77,83,841.5,0.489583,Eighth,F5
2049,Right,0,75,83,842.0,0.989583,Quarter,D#5
2046,Left,1,51,83,842.0,0.989583,Quarter,G3_D#3_C4
2050,Right,0,74,84,843.0,1.989583,Half,D5
2051,Left,1,56,84,843.0,1.989583,Half,G#3_F3_B3
2055,Left,1,60,85,845.0,0.989583,Quarter,G3_D#3_C4
2054,Right,0,72,85,845.0,0.989583,Quarter,C5
2058,Right,0,67,86,846.0,0.239583,Sixteenth,G4
2059,Right,0,72,86,846.125,0.239583,Sixteenth,C5
2060,Right,0,75,86,846.25,0.114583,ThirtySecond,D#5
2061,Right,0,79,86,846.375,1.114583,TiedQuarter-ThirtySecond,G5
2062,Right,0,77,87,847.5,0.489583,Eighth,F5
2064,Left,1,60,87,848.0,0.989583,Quarter,D#4_C4
2063,Right,0,75,87,848.0,0.989583,Quarter,D#5
2066,Left,1,65,88,849.0,1.989583,Half,F4_D4
2068,Right,0,74,88,849.0,1.989583,Half,D5_B4
2070,Left,1,60,89,851.0,0.989583,Quarter,D#4_C4
2072,Right,0,72,89,851.0,0.989583,Quarter,C5
2073,Right,0,67,100,852.0,0.239583,Sixteenth,G4
2074,Right,0,72,100,852.125,0.239583,Sixteenth,C5
2075,Right,0,75,100,852.25,0.114583,ThirtySecond,D#5
2076,Right,0,67,113,852.375,1.114583,TiedQuarter-ThirtySecond,G5_G4
2078,Right,0,77,100,853.5,0.489583,Eighth,F5_F4
2082,Left,1,60,100,854.0,0.989583,Quarter,G3_D#3_C4
2080,Right,0,63,100,854.0,1.989583,Half,D#5_D#4
2085,Left,1,59,100,855.0,1.989583,Half,G#3_F3_B3
2088,Right,0,74,100,856.0,0.989583,Quarter,D5_D4
2092,Right,0,60,100,857.0,1.989583,Half,C5_C4
2090,Left,1,51,100,857.0,0.989583,Quarter,G3_D#3
2094,Left,1,53,100,858.0,1.989583,Half,F3_D3
2096,Right,0,59,100,859.0,0.989583,Quarter,B4_B3
2100,Left,1,48,100,860.0,0.989583,Quarter,D#3_C3
2098,Right,0,68,100,860.0,1.989583,Half,G#4_G#3
2102,Left,1,50,100,861.0,0.989583,Quarter,D3_B2
2104,Right,0,67,100,862.0,0.989583,Quarter,G4_G3
2106,Right,0,59,80,865.0,0.322917,Triplet,B3
2107,Right,0,62,80,865.333333,0.322917,Triplet,D4
2108,Right,0,65,80,865.666667,0.322917,Triplet,F4
2109,Left,1,50,80,866.0,0.989583,Quarter,G#3_F3_D3_A#2
2112,Right,0,68,80,866.0,0.322917,Triplet,G#4
2114,Right,0,67,80,866.333333,0.322917,Triplet,G4
2115,Right,0,65,80,866.666667,0.322917,Triplet,F4
2117,Left,1,55,80,867.0,0.989583,Quarter,G3_D#3_C3
2116,Right,0,63,80,867.0,0.989583,Quarter,D#4
2120,Right,0,53,80,871.0,0.322917,Triplet,F3
2121,Right,0,56,80,871.333333,0.322917,Triplet,G#3
2122,Right,0,60,80,871.666667,0.322917,Triplet,C4
2123,Left,1,44,80,872.0,0.989583,Quarter,G#2_F2_D3
2126,Right,0,65,80,872.0,0.322917,Triplet,F4
2127,Right,0,63,80,872.333333,0.322917,Triplet,D#4
2128,Right,0,62,80,872.666667,0.322917,Triplet,D4
2130,Right,0,60,80,873.0,0.989583,Quarter,C4
2129,Left,1,43,80,873.0,0.989583,Quarter,G2_D#3_C3
2133,Right,0,55,120,877.0,0.322917,Triplet,G3
2134,Right,0,59,120,877.333333,0.322917,Triplet,B3
2135,Right,0,62,120,877.666667,0.322917,Triplet,D4
2136,Left,1,43,120,878.0,0.989583,Quarter,G2_G1
2138,Right,0,65,120,878.0,0.322917,Triplet,F4
2139,Right,0,62,120,878.333333,0.322917,Triplet,D4
2140,Right,0,59,120,878.666667,0.322917,Triplet,B3
2141,Left,1,48,120,879.0,0.989583,Quarter,C3_C2
2143,Right,0,60,120,879.0,0.989583,Quarter,C4
2144,Left,1,61,103,885.0,8.989583,Unknown,C#4
2145,Left,1,59,80,888.0,2.989583,DottedHalf,B3
2146,Right,0,65,80,889.0,1.989583,Half,F4
2147,Right,0,73,80,890.0,0.989583,Quarter,C#5
2148,Right,0,66,80,891.0,2.989583,DottedHalf,F#4_C#5
2150,Left,1,58,80,891.0,2.989583,DottedHalf,A#3
2151,Right,0,73,80,893.0,1.989583,Half,C#5
2152,Left,1,56,80,894.0,2.989583,DottedHalf,G#3_B3
2153,Right,0,65,80,894.0,2.989583,DottedHalf,F4
2155,Right,0,75,80,895.0,0.989583,Quarter,D#5
2156,Right,0,71,80,896.0,1.989583,Half,B4
2157,Right,0,66,80,897.0,2.989583,DottedHalf,F#4
2158,Left,1,54,80,897.0,2.989583,DottedHalf,F#3_C#4
2160,Right,0,69,80,898.0,0.989583,Quarter,A4
2161,Right,0,70,80,899.0,0.989583,Quarter,A#4
2162,Left,1,73,101,900.0,5.989583,Unknown,C#5_B4
2164,Right,0,77,80,901.0,1.989583,Half,F5
2165,Right,0,85,80,902.0,0.989583,Quarter,C#6
2166,Left,1,70,80,903.0,2.989583,DottedHalf,A#4
2167,Right,0,85,80,903.0,2.989583,Half,F#5_C#6
2169,Right,0,85,80,905.0,1.989583,Half,C#6
2172,Right,0,77,80,906.0,2.989583,DottedHalf,F5
2170,Left,1,71,80,906.0,2.989583,DottedHalf,G#4_B4
2173,Right,0,87,80,907.0,0.989583,Quarter,D#6
2174,Right,0,83,80,908.0,1.989583,Half,B5
2175,Right,0,78,80,909.0,2.989583,DottedHalf,F#5
2176,Left,1,66,80,909.0,2.989583,DottedHalf,F#4_C#5
2178,Right,0,81,80,910.0,0.989583,Quarter,A5
2179,Right,0,82,80,911.0,0.989583,Quarter,A#5
2180,Left,1,68,104,912.0,5.989583,DottedHalf,G#4_A#4
2182,Right,0,74,80,913.0,1.989583,Half,D5
2183,Right,0,82,80,914.0,0.989583,Quarter,A#5
2184,Right,0,82,80,915.0,2.989583,Half,D#5_A#5
2186,Left,1,66,80,915.0,2.989583,DottedHalf,F#4
2187,Right,0,82,80,917.0,1.989583,Half,A#5
2188,Left,1,65,80,918.0,2.989583,DottedHalf,G#4_F4
2190,Right,0,74,80,918.0,2.989583,DottedHalf,D5
2191,Right,0,83,80,919.0,0.989583,Quarter,B5
2192,Right,0,80,80,920.0,1.989583,Half,G#5
2194,Left,1,63,80,921.0,2.989583,DottedHalf,F#4_D#4
2193,Right,0,70,80,921.0,2.989583,DottedHalf,A#4
2196,Right,0,77,80,922.0,0.989583,Quarter,F5
2197,Right,0,78,80,923.0,1.989583,Half,F#5
2200,Right,0,71,80,924.0,2.989583,DottedHalf,B4
2198,Left,1,61,80,924.0,2.989583,DottedHalf,F4_C#4
2201,Right,0,80,80,925.0,0.989583,Quarter,G#5
2202,Right,0,77,80,926.0,1.989583,Half,F5
2203,Left,1,60,80,927.0,2.989583,DottedHalf,G4_C4
2205,Right,0,72,80,927.0,2.989583,DottedHalf,C5
2206,Right,0,77,80,928.0,0.989583,Quarter,F5
2207,Right,0,76,80,929.0,1.989583,Half,E5
2208,Left,1,59,80,930.0,2.989583,DottedHalf,B3
2209,Right,0,77,80,931.0,0.989583,Quarter,F5
2210,Right,0,68,80,932.0,0.989583,Quarter,G#4_F4
2212,Left,1,60,80,933.0,5.989583,Quarter,C4_C3
2214,Right,0,64,80,933.0,0.989583,Quarter,G4_E4
2216,Left,1,55,80,934.0,0.989583,Quarter,G3
2217,Left,1,56,80,935.0,0.989583,Quarter,G#3
2218,Left,1,58,80,936.0,0.989583,Quarter,A#3
2220,Right,0,73,80,937.0,0.989583,Quarter,C#5
2219,Left,1,53,80,937.0,0.989583,Quarter,F3
2221,Right,0,73,80,938.0,0.989583,Quarter,C#5
2222,Left,1,55,80,938.0,0.989583,Quarter,G3
2223,Left,1,48,80,939.0,5.989583,Unknown,G#3_C3
2225,Right,0,73,80,939.0,0.989583,Quarter,C#5
2227,Left,1,52,80,940.0,0.989583,Quarter,E3
2226,Right,0,72,80,940.0,0.989583,Quarter,C5
2228,Left,1,53,80,941.0,0.989583,Quarter,F3
2229,Left,1,55,80,942.0,0.989583,Quarter,G3
2231,Right,0,70,80,943.0,0.989583,Quarter,A#4
2230,Left,1,50,80,943.0,0.989583,Quarter,D3
2233,Left,1,52,80,944.0,0.989583,Quarter,E3
2232,Right,0,70,80,944.0,0.989583,Quarter,A#4
2235,Left,1,53,80,945.0,5.989583,Quarter,F3_C3
2234,Right,0,70,80,945.0,0.989583,Quarter,A#4
2238,Left,1,55,80,946.0,0.989583,Quarter,G3
2237,Right,0,69,80,946.0,0.989583,Quarter,A4
2239,Left,1,57,80,947.0,0.989583,Quarter,A3
2240,Left,1,58,80,948.0,0.989583,Quarter,A#3
2241,Right,0,74,80,948.5,0.489583,Eighth,D5
2243,Right,0,73,80,949.0,0.489583,Eighth,C#5
2242,Left,1,54,80,949.0,0.989583,Quarter,F#3
2244,Right,0,74,80,949.5,0.489583,Eighth,D5
2246,Right,0,76,80,950.0,0.489583,Eighth,E5
2245,Left,1,55,80,950.0,0.989583,Quarter,G3
2247,Right,0,74,80,950.5,0.489583,Eighth,D5
2248,Left,1,57,80,951.0,5.989583,Quarter,C3_A3
2250,Right,0,72,80,951.5,0.489583,Eighth,C5
2252,Right,0,71,80,952.0,0.489583,Eighth,B4
2251,Left,1,52,80,952.0,0.989583,Quarter,E3
2253,Right,0,72,80,952.5,0.489583,Eighth,C5
2254,Left,1,53,80,953.0,0.989583,Quarter,F3
2255,Right,0,74,80,953.0,0.489583,Eighth,D5
2256,Right,0,72,80,953.5,0.489583,Eighth,C5
2257,Left,1,55,80,954.0,0.989583,Quarter,G3
2258,Right,0,70,80,954.5,0.489583,Eighth,A#4
2259,Left,1,50,80,955.0,0.989583,Quarter,D3
2260,Right,0,69,80,955.0,0.489583,Eighth,A4
2261,Right,0,70,80,955.5,0.489583,Eighth,A#4
2263,Right,0,72,80,956.0,0.489583,Eighth,C5
2262,Left,1,52,80,956.0,0.989583,Quarter,E3
2264,Right,0,70,80,956.5,0.489583,Eighth,A#4
2266,Right,0,69,80,957.0,4.489583,Whole,A4
2265,Left,1,53,80,957.0,0.489583,Eighth,F3
2267,Left,1,60,80,957.5,0.489583,Eighth,C4
2268,Left,1,57,80,958.0,0.489583,Eighth,A3
2269,Left,1,60,80,958.5,0.489583,Eighth,C4
2270,Left,1,53,80,959.0,0.489583,Eighth,F3
2271,Left,1,60,80,959.5,0.489583,Eighth,C4
2272,Left,1,53,80,960.0,0.489583,Eighth,F3
2273,Left,1,60,80,960.5,0.489583,Eighth,C4
2274,Left,1,55,80,961.0,0.489583,Eighth,G3
2275,Left,1,60,80,961.5,0.489583,Eighth,C4
2276,Right,0,72,80,961.5,0.489583,Eighth,C5
2278,Left,1,57,80,962.0,0.489583,Eighth,A3
2277,Right,0,77,80,962.0,0.989583,Quarter,F5
2279,Left,1,60,80,962.5,0.489583,Eighth,C4
2281,Left,1,55,80,963.0,0.489583,Eighth,G3
2280,Right,0,77,80,963.0,2.989583,DottedHalf,F5
2282,Left,1,60,80,963.5,0.489583,Eighth,C4
2283,Left,1,57,80,964.0,0.489583,Eighth,A3
2284,Left,1,60,80,964.5,0.489583,Eighth,C4
2285,Left,1,58,80,965.0,0.489583,Eighth,A#3
2286,Left,1,60,80,965.5,0.489583,Eighth,C4
2288,Right,0,76,80,966.0,0.989583,Quarter,E5
2287,Left,1,55,80,966.0,0.489583,Eighth,G3
2289,Left,1,60,80,966.5,0.489583,Eighth,C4
2290,Left,1,57,80,967.0,0.489583,Eighth,A3
2291,Left,1,60,80,967.5,0.489583,Eighth,C4
2292,Left,1,58,80,968.0,0.489583,Eighth,A#3
2293,Left,1,60,80,968.5,0.489583,Eighth,C4
2294,Right,0,72,80,969.0,2.989583,DottedHalf,C5
2295,Left,1,52,80,969.0,0.489583,Eighth,E3
2296,Left,1,60,80,969.5,0.489583,Eighth,C4
2297,Left,1,55,80,970.0,0.489583,Eighth,G3
2298,Left,1,60,80,970.5,0.489583,Eighth,C4
2299,Left,1,53,80,971.0,0.489583,Eighth,F3
2300,Left,1,60,80,971.5,0.489583,Eighth,C4
2302,Right,0,72,80,972.0,0.489583,Eighth,C5
2301,Left,1,52,80,972.0,0.489583,Eighth,E3
2303,Right,0,74,80,972.25,0.489583,Eighth,D5
2304,Right,0,72,80,972.5,0.489583,Eighth,C5
2305,Left,1,60,80,972.5,0.489583,Eighth,C4
2306,Right,0,71,80,972.75,0.489583,Eighth,B4
2308,Right,0,72,80,973.0,0.489583,Eighth,C5
2307,Left,1,53,80,973.0,0.489583,Eighth,F3
2309,Left,1,60,80,973.5,0.489583,Eighth,C4
2310,Right,0,79,80,973.5,0.489583,Eighth,G5
2312,Left,1,55,80,974.0,0.489583,Eighth,G3
2311,Right,0,82,105,974.0,0.989583,Quarter,A#5
2313,Left,1,60,80,974.5,0.489583,Eighth,C4
2315,Left,1,53,80,975.0,0.489583,Eighth,F3
2314,Right,0,82,80,975.0,2.989583,DottedHalf,A#5
2316,Left,1,60,80,975.5,0.489583,Eighth,C4
2317,Left,1,55,80,976.0,0.489583,Eighth,G3
2318,Left,1,60,80,976.5,0.489583,Eighth,C4
2319,Left,1,57,80,977.0,0.489583,Eighth,A3
2320,Left,1,60,80,977.5,0.489583,Eighth,C4
2321,Right,0,81,80,978.0,0.989583,Quarter,A5
2322,Left,1,53,80,978.0,0.489583,Eighth,F3
2323,Left,1,60,80,978.5,0.489583,Eighth,C4
2324,Left,1,55,80,979.0,0.489583,Eighth,G3
2325,Left,1,60,80,979.5,0.489583,Eighth,C4
2326,Left,1,57,80,980.0,0.489583,Eighth,A3
2327,Left,1,60,80,980.5,0.489583,Eighth,C4
2329,Right,0,69,80,981.0,0.489583,Eighth,A4
2328,Left,1,53,80,981.0,0.489583,Eighth,F3
2330,Left,1,60,80,981.5,0.489583,Eighth,C4
2331,Right,0,70,80,981.5,0.489583,Eighth,A#4
2333,Right,0,72,80,982.0,0.489583,Eighth,C5
2332,Left,1,57,80,982.0,0.489583,Eighth,A3
2335,Right,0,74,80,982.5,0.489583,Eighth,D5
2334,Left,1,60,80,982.5,0.489583,Eighth,C4
2336,Left,1,53,80,983.0,0.489583,Eighth,F3
2337,Right,0,76,80,983.0,0.489583,Eighth,E5
2339,Right,0,77,80,983.5,0.489583,Eighth,F5
2338,Left,1,60,80,983.5,0.489583,Eighth,C4
2341,Right,0,79,80,984.0,0.489583,Eighth,G5
2340,Left,1,53,80,984.0,0.489583,Eighth,F3
2343,Right,0,81,80,984.5,0.489583,Eighth,A5
2342,Left,1,60,80,984.5,0.489583,Eighth,C4
2345,Left,1,57,80,985.0,0.489583,Eighth,A3
2344,Right,0,82,80,985.0,0.489583,Eighth,A#5
2347,Left,1,60,80,985.5,0.489583,Eighth,C4
2346,Right,0,84,80,985.5,0.489583,Eighth,C6
2348,Right,0,86,80,986.0,0.489583,Eighth,D6
2349,Left,1,53,80,986.0,0.489583,Eighth,F3
2351,Right,0,88,80,986.5,0.489583,Eighth,E6
2350,Left,1,60,80,986.5,0.489583,Eighth,C4
2352,Left,1,55,80,987.0,0.489583,Eighth,G3
2353,Right,0,89,103,987.0,2.989583,DottedHalf,F6
2354,Left,1,60,80,987.5,0.489583,Eighth,C4
2355,Left,1,58,80,988.0,0.489583,Eighth,A#3
2356,Left,1,60,80,988.5,0.489583,Eighth,C4
2357,Left,1,55,80,989.0,0.489583,Eighth,G3
2358,Left,1,60,80,989.5,0.489583,Eighth,C4
2360,Right,0,88,80,990.0,0.989583,Quarter,E6
2359,Left,1,55,80,990.0,0.489583,Eighth,G3
2361,Left,1,60,80,990.5,0.489583,Eighth,C4
2362,Left,1,58,80,991.0,0.489583,Eighth,A#3
2363,Left,1,60,80,991.5,0.489583,Eighth,C4
2364,Left,1,55,80,992.0,0.489583,Eighth,G3
2365,Left,1,60,80,992.5,0.489583,Eighth,C4
2367,Right,0,60,80,993.0,0.489583,Eighth,C4
2366,Left,1,52,80,993.0,0.489583,Eighth,E3
2369,Left,1,60,80,993.5,0.489583,Eighth,C4
2368,Right,0,62,80,993.5,0.489583,Eighth,D4
2370,Right,0,64,80,994.0,0.489583,Eighth,E4
2371,Left,1,55,80,994.0,0.489583,Eighth,G3
2373,Right,0,65,80,994.5,0.489583,Eighth,F4
2372,Left,1,60,80,994.5,0.489583,Eighth,C4
2375,Left,1,52,80,995.0,0.489583,Eighth,E3
2374,Right,0,67,80,995.0,0.489583,Eighth,G4
2377,Right,0,69,80,995.5,0.489583,Eighth,A4
2376,Left,1,60,80,995.5,0.489583,Eighth,C4
2379,Right,0,70,80,996.0,0.489583,Eighth,A#4
2378,Left,1,52,80,996.0,0.489583,Eighth,E3
2381,Right,0,72,80,996.5,0.489583,Eighth,C5
2380,Left,1,60,80,996.5,0.489583,Eighth,C4
2382,Right,0,74,80,997.0,0.489583,Eighth,D5
2383,Left,1,55,80,997.0,0.489583,Eighth,G3
2384,Left,1,60,80,997.5,0.489583,Eighth,C4
2385,Right,0,76,80,997.5,0.489583,Eighth,E5
2387,Left,1,52,80,998.0,0.489583,Eighth,E3
2386,Right,0,77,80,998.0,0.489583,Eighth,F5
2388,Right,0,79,80,998.5,0.489583,Eighth,G5
2389,Left,1,60,80,998.5,0.489583,Eighth,C4
2391,Right,0,80,104,999.0,3.989583,Whole,G#5
2390,Left,1,53,80,999.0,0.489583,Eighth,F3
2392,Left,1,60,80,999.5,0.489583,Eighth,C4
2393,Left,1,55,80,1000.0,0.489583,Eighth,G3
2394,Left,1,60,80,1000.5,0.489583,Eighth,C4
2395,Left,1,56,80,1001.0,0.489583,Eighth,G#3
2396,Left,1,60,80,1001.5,0.489583,Eighth,C4
2397,Left,1,53,80,1002.0,0.489583,Eighth,F3
2398,Left,1,60,80,1002.5,0.489583,Eighth,C4
2399,Right,0,79,80,1003.0,0.989583,Quarter,G5
2400,Left,1,55,80,1003.0,0.489583,Eighth,G3
2401,Left,1,60,80,1003.5,0.489583,Eighth,C4
2403,Right,0,77,80,1004.0,0.989583,Quarter,F5
2402,Left,1,56,80,1004.0,0.489583,Eighth,G#3
2404,Left,1,60,80,1004.5,0.489583,Eighth,C4
2405,Left,1,55,80,1005.0,0.489583,Eighth,G3
2406,Left,1,63,80,1005.5,0.489583,Eighth,D#4
2407,Left,1,60,80,1006.0,0.489583,Eighth,C4
2408,Left,1,63,80,1006.5,0.489583,Eighth,D#4
2410,Right,0,77,80,1007.0,0.489583,Eighth,F5
2409,Left,1,55,80,1007.0,0.489583,Eighth,G3
2411,Right,0,75,80,1007.25,0.489583,Eighth,D#5
2412,Left,1,63,80,1007.5,0.489583,Eighth,D#4
2413,Right,0,74,80,1007.5,0.489583,Eighth,D5
2414,Right,0,75,80,1007.75,0.239583,Sixteenth,D#5
2416,Right,0,79,80,1008.0,0.989583,Quarter,G5
2415,Left,1,55,80,1008.0,0.489583,Eighth,G3
2417,Left,1,62,80,1008.5,0.489583,Eighth,D4
2418,Left,1,59,80,1009.0,0.489583,Eighth,B3
2419,Right,0,77,80,1009.0,0.989583,Quarter,F5
2420,Left,1,62,80,1009.5,0.489583,Eighth,D4
2422,Right,0,74,80,1010.0,0.989583,Quarter,D5
2421,Left,1,55,80,1010.0,0.489583,Eighth,G3
2423,Left,1,62,80,1010.5,0.489583,Eighth,D4
2424,Right,0,75,110,1011.0,4.489583,Whole,D#5_D#4
2425,Left,1,48,110,1011.0,0.489583,Eighth,C3
2427,Left,1,55,110,1011.5,0.489583,Eighth,G3
2428,Left,1,51,110,1012.0,0.489583,Eighth,D#3
2429,Left,1,55,110,1012.5,0.489583,Eighth,G3
2430,Left,1,50,110,1013.0,0.489583,Eighth,D3
2431,Left,1,55,110,1013.5,0.489583,Eighth,G3
2432,Left,1,48,110,1014.0,0.489583,Eighth,C3
2433,Left,1,55,110,1014.5,0.489583,Eighth,G3
2434,Left,1,51,110,1015.0,0.489583,Eighth,D#3
2435,Right,0,79,110,1015.5,0.489583,Eighth,G5_G4
2436,Left,1,55,110,1015.5,0.489583,Eighth,G3
2438,Left,1,50,110,1016.0,0.489583,Eighth,D3
2439,Right,0,72,110,1016.0,0.989583,Quarter,C6_C5
2441,Left,1,55,110,1016.5,0.489583,Eighth,G3
2444,Left,1,50,110,1017.0,0.489583,Eighth,D3
2442,Right,0,84,110,1017.0,2.989583,DottedHalf,C6_C5
2445,Left,1,55,110,1017.5,0.489583,Eighth,G3
2446,Left,1,51,110,1018.0,0.489583,Eighth,D#3
2447,Left,1,55,110,1018.5,0.489583,Eighth,G3
2448,Left,1,53,110,1019.0,0.489583,Eighth,F3
2449,Left,1,55,110,1019.5,0.489583,Eighth,G3
2451,Right,0,83,110,1020.0,0.989583,Quarter,B5_B4
2450,Left,1,50,110,1020.0,0.489583,Eighth,D3
2453,Left,1,55,110,1020.5,0.489583,Eighth,G3
2454,Left,1,51,110,1021.0,0.489583,Eighth,D#3
2455,Left,1,55,110,1021.5,0.489583,Eighth,G3
2456,Left,1,53,110,1022.0,0.489583,Eighth,F3
2457,Left,1,55,110,1022.5,0.489583,Eighth,G3
2458,Right,0,67,110,1023.0,4.489583,Whole,G5_G4
2460,Left,1,47,110,1023.0,0.489583,Eighth,B2
2461,Left,1,55,110,1023.5,0.489583,Eighth,G3
2462,Left,1,50,110,1024.0,0.489583,Eighth,D3
2463,Left,1,55,110,1024.5,0.489583,Eighth,G3
2464,Left,1,48,110,1025.0,0.489583,Eighth,C3
2465,Left,1,55,110,1025.5,0.489583,Eighth,G3
2466,Left,1,47,110,1026.0,0.489583,Eighth,B2
2467,Left,1,55,110,1026.5,0.489583,Eighth,G3
2468,Left,1,50,110,1027.0,0.489583,Eighth,D3
2471,Left,1,55,110,1027.5,0.489583,Eighth,G3
2469,Right,0,86,110,1027.5,0.489583,Eighth,D6_D5
2474,Left,1,48,110,1028.0,0.489583,Eighth,C3
2472,Right,0,89,110,1028.0,0.989583,Quarter,F6_F5
2475,Left,1,55,110,1028.5,0.489583,Eighth,G3
2476,Left,1,48,110,1029.0,0.489583,Eighth,C3
2477,Right,0,89,110,1029.0,2.989583,DottedHalf,F6_F5
2479,Left,1,55,110,1029.5,0.489583,Eighth,G3
2480,Left,1,50,110,1030.0,0.489583,Eighth,D3
2481,Left,1,55,110,1030.5,0.489583,Eighth,G3
2482,Left,1,51,110,1031.0,0.489583,Eighth,D#3
2483,Left,1,55,110,1031.5,0.489583,Eighth,G3
2486,Left,1,48,110,1032.0,0.489583,Eighth,C3
2484,Right,0,87,110,1032.0,0.989583,Quarter,D#6_D#5
2487,Left,1,55,110,1032.5,0.489583,Eighth,G3
2488,Left,1,50,110,1033.0,0.489583,Eighth,D3
2489,Left,1,55,110,1033.5,0.489583,Eighth,G3
2490,Left,1,51,110,1034.0,0.489583,Eighth,D#3
2491,Left,1,55,110,1034.5,0.489583,Eighth,G3
2492,Left,1,48,100,1035.0,0.489583,Eighth,C3
2493,Right,0,63,100,1035.0,0.489583,Eighth,D#4
2494,Left,1,55,100,1035.5,0.489583,Eighth,G3
2495,Right,0,67,100,1035.5,0.489583,Eighth,G4
2496,Right,0,72,100,1036.0,0.489583,Eighth,C5
2497,Left,1,51,100,1036.0,0.489583,Eighth,D#3
2499,Left,1,55,100,1036.5,0.489583,Eighth,G3
2498,Right,0,67,100,1036.5,0.489583,Eighth,G4
2500,Left,1,48,100,1037.0,0.489583,Eighth,C3
2501,Right,0,72,100,1037.0,0.489583,Eighth,C5
2502,Left,1,55,100,1037.5,0.489583,Eighth,G3
2503,Right,0,75,100,1037.5,0.489583,Eighth,D#5
2505,Right,0,72,100,1038.0,0.489583,Eighth,C5
2504,Left,1,48,100,1038.0,0.489583,Eighth,C3
2507,Left,1,55,100,1038.5,0.489583,Eighth,G3
2506,Right,0,75,100,1038.5,0.489583,Eighth,D#5
2508,Right,0,79,100,1039.0,0.489583,Eighth,G5
2509,Left,1,51,100,1039.0,0.489583,Eighth,D#3
2511,Left,1,55,100,1039.5,0.489583,Eighth,G3
2510,Right,0,75,100,1039.5,0.489583,Eighth,D#5
2512,Right,0,79,100,1040.0,0.489583,Eighth,G5
2513,Left,1,48,100,1040.0,0.489583,Eighth,C3
2515,Right,0,84,100,1040.5,0.489583,Eighth,C6
2514,Left,1,55,100,1040.5,0.489583,Eighth,G3
2516,Right,0,84,100,1041.0,2.989583,DottedHalf,C6
2517,Left,1,50,100,1041.0,0.489583,Eighth,D3
2518,Left,1,55,100,1041.5,0.489583,Eighth,G3
2519,Left,1,53,100,1042.0,0.489583,Eighth,F3
2520,Left,1,55,100,1042.5,0.489583,Eighth,G3
2521,Left,1,50,100,1043.0,0.489583,Eighth,D3
2522,Left,1,55,100,1043.5,0.489583,Eighth,G3
2523,Left,1,50,100,1044.0,0.489583,Eighth,D3
2524,Right,0,83,100,1044.0,0.989583,Quarter,B5
2525,Left,1,55,100,1044.5,0.489583,Eighth,G3
2526,Left,1,53,100,1045.0,0.489583,Eighth,F3
2527,Left,1,55,100,1045.5,0.489583,Eighth,G3
2528,Left,1,50,100,1046.0,0.489583,Eighth,D3
2529,Left,1,55,100,1046.5,0.489583,Eighth,G3
2531,Left,1,47,100,1047.0,0.489583,Eighth,B2
2530,Right,0,55,100,1047.0,0.489583,Eighth,G3
2533,Right,0,59,100,1047.5,0.489583,Eighth,B3
2532,Left,1,55,100,1047.5,0.489583,Eighth,G3
2535,Right,0,62,100,1048.0,0.489583,Eighth,D4
2534,Left,1,50,100,1048.0,0.489583,Eighth,D3
2537,Right,0,59,100,1048.5,0.489583,Eighth,B3
2536,Left,1,55,100,1048.5,0.489583,Eighth,G3
2539,Right,0,62,100,1049.0,0.489583,Eighth,D4
2538,Left,1,47,100,1049.0,0.489583,Eighth,B2
2541,Right,0,67,100,1049.5,0.489583,Eighth,G4
2540,Left,1,55,100,1049.5,0.489583,Eighth,G3
2542,Left,1,47,100,1050.0,0.489583,Eighth,B2
2543,Right,0,62,100,1050.0,0.489583,Eighth,D4
2545,Right,0,67,100,1050.5,0.489583,Eighth,G4
2544,Left,1,55,100,1050.5,0.489583,Eighth,G3
2546,Right,0,71,100,1051.0,0.489583,Eighth,B4
2547,Left,1,50,100,1051.0,0.489583,Eighth,D3
2549,Left,1,55,100,1051.5,0.489583,Eighth,G3
2548,Right,0,67,100,1051.5,0.489583,Eighth,G4
2550,Right,0,71,100,1052.0,0.489583,Eighth,B4
2551,Left,1,47,100,1052.0,0.489583,Eighth,B2
2552,Right,0,74,100,1052.5,0.489583,Eighth,D5
2553,Left,1,55,100,1052.5,0.489583,Eighth,G3
2554,Right,0,75,100,1053.0,0.989583,Quarter,D#5
2555,Left,1,48,100,1053.5,0.489583,Eighth,C3
2556,Left,1,47,101,1054.0,0.489583,Eighth,B2
2557,Left,1,48,102,1054.5,0.489583,Eighth,C3
2559,Right,0,84,103,1055.0,2.989583,DottedHalf,C6
2558,Left,1,47,103,1055.0,0.489583,Eighth,B2
2560,Left,1,48,104,1055.5,0.489583,Eighth,C3
2561,Left,1,40,105,1056.0,0.489583,Eighth,E2
2562,Left,1,48,105,1056.5,0.489583,Eighth,C3
2563,Left,1,41,106,1057.0,0.489583,Eighth,F2
2564,Left,1,48,107,1057.5,0.489583,Eighth,C3
2566,Right,0,52,108,1058.0,0.989583,Quarter,E3
2565,Left,1,43,108,1058.0,0.489583,Eighth,G2
2567,Left,1,48,109,1058.5,0.489583,Eighth,C3
2569,Left,1,41,110,1059.0,0.489583,Eighth,F2
2568,Right,0,53,120,1059.0,2.989583,DottedHalf,F3
2570,Left,1,48,110,1059.5,0.489583,Eighth,C3
2571,Left,1,43,110,1060.0,0.489583,Eighth,G2
2572,Left,1,48,110,1060.5,0.489583,Eighth,C3
2573,Left,1,44,110,1061.0,0.489583,Eighth,G#2
2574,Left,1,48,110,1061.5,0.489583,Eighth,C3
2575,Left,1,42,110,1062.0,0.489583,Eighth,F#2
2576,Right,0,54,120,1062.0,2.989583,DottedHalf,F#3
2577,Left,1,48,110,1062.5,0.489583,Eighth,C3
2578,Left,1,43,110,1063.0,0.489583,Eighth,G2
2579,Left,1,48,110,1063.5,0.489583,Eighth,C3
2580,Left,1,45,110,1064.0,0.489583,Eighth,A2
2581,Left,1,48,110,1064.5,0.489583,Eighth,C3
2583,Left,1,43,110,1065.0,0.489583,Eighth,G2
2582,Right,0,55,120,1065.0,2.989583,DottedHalf,G3
2584,Left,1,51,110,1065.5,0.489583,Eighth,D#3
2585,Left,1,48,110,1066.0,0.489583,Eighth,C3
2586,Left,1,51,110,1066.5,0.489583,Eighth,D#3
2587,Left,1,43,110,1067.0,0.489583,Eighth,G2
2588,Left,1,51,110,1067.5,0.489583,Eighth,D#3
2589,Left,1,43,110,1068.0,0.489583,Eighth,G2
2590,Right,0,53,110,1068.0,0.489583,Eighth,F3
2591,Right,0,55,110,1068.25,0.489583,Eighth,G3
2593,Right,0,53,110,1068.5,0.489583,Eighth,F3
2592,Left,1,50,110,1068.5,0.489583,Eighth,D3
2594,Right,0,55,110,1068.75,0.489583,Eighth,G3
2596,Right,0,53,110,1069.0,0.489583,Eighth,F3
2595,Left,1,47,110,1069.0,0.489583,Eighth,B2
2597,Right,0,55,110,1069.25,0.489583,Eighth,G3
2599,Left,1,50,110,1069.5,0.489583,Eighth,D3
2598,Right,0,53,110,1069.5,0.489583,Eighth,F3
2600,Right,0,55,110,1069.75,0.489583,Eighth,G3
2601,Left,1,43,110,1070.0,0.489583,Eighth,G2
2602,Right,0,53,110,1070.0,0.489583,Eighth,F3
2603,Right,0,55,110,1070.25,0.489583,Eighth,G3
2605,Left,1,50,110,1070.5,0.489583,Eighth,D3
2604,Right,0,52,110,1070.5,0.489583,Eighth,E3
2606,Right,0,53,110,1070.75,0.489583,Eighth,F3
2607,Right,0,51,100,1071.0,0.489583,Eighth,D#3
2608,Left,1,36,100,1071.0,0.989583,Quarter,C3_C2
2610,Right,0,55,100,1071.5,0.489583,Eighth,G3
2611,Right,0,60,100,1072.0,0.489583,Eighth,C4
2612,Right,0,55,100,1072.5,0.489583,Eighth,G3
2613,Right,0,60,100,1073.0,0.489583,Eighth,C4
2614,Right,0,63,100,1073.5,0.489583,Eighth,D#4
2615,Right,0,67,100,1074.0,0.489583,Eighth,G4
2616,Right,0,63,100,1074.5,0.489583,Eighth,D#4
2617,Right,0,67,100,1075.0,0.489583,Eighth,G4
2618,Right,0,72,100,1075.5,0.489583,Eighth,C5
2619,Right,0,75,100,1076.0,0.489583,Eighth,D#5
2620,Right,0,79,100,1076.5,0.489583,Eighth,G5
2621,Right,0,84,100,1077.0,0.989583,Quarter,C6
2622,Left,1,39,100,1077.0,0.489583,Eighth,D#2
2623,Left,1,48,100,1077.5,0.489583,Eighth,C3
2624,Left,1,41,100,1078.0,0.489583,Eighth,F2
2625,Left,1,48,102,1078.5,0.489583,Eighth,C3
2627,Right,0,60,100,1079.0,2.989583,DottedHalf,C4
2626,Left,1,43,100,1079.0,0.489583,Eighth,G2
2628,Left,1,48,104,1079.5,0.489583,Eighth,C3
2629,Left,1,40,100,1080.0,0.489583,Eighth,E2
2630,Left,1,48,100,1080.5,0.489583,Eighth,C3
2631,Left,1,41,100,1081.0,0.489583,Eighth,F2
2632,Left,1,48,102,1081.5,0.489583,Eighth,C3
2633,Left,1,43,100,1082.0,0.489583,Eighth,G2
2634,Right,0,52,100,1082.0,0.989583,Quarter,E3
2635,Left,1,48,104,1082.5,0.489583,Eighth,C3
2637,Right,0,53,110,1083.0,1.989583,Half,F3
2636,Left,1,41,110,1083.0,0.489583,Eighth,F2
2638,Left,1,48,110,1083.5,0.489583,Eighth,C3
2639,Left,1,43,110,1084.0,0.489583,Eighth,G2
2640,Left,1,48,110,1084.5,0.489583,Eighth,C3
2642,Left,1,44,110,1085.0,0.489583,Eighth,G#2
2641,Right,0,60,110,1085.0,0.989583,Quarter,C4
2643,Left,1,48,110,1085.5,0.489583,Eighth,C3
2644,Right,0,54,110,1086.0,1.989583,Half,F#3
2645,Left,1,42,110,1086.0,0.489583,Eighth,F#2
2646,Left,1,48,110,1086.5,0.489583,Eighth,C3
2647,Left,1,43,110,1087.0,0.489583,Eighth,G2
2648,Left,1,48,110,1087.5,0.489583,Eighth,C3
2650,Left,1,45,110,1088.0,0.489583,Eighth,A2
2649,Right,0,60,110,1088.0,0.989583,Quarter,C4
2651,Left,1,48,110,1088.5,0.489583,Eighth,C3
2652,Left,1,43,110,1089.0,0.489583,Eighth,G2
2653,Right,0,55,110,1089.0,0.489583,Eighth,G3
2655,Right,0,60,110,1089.5,0.489583,Eighth,C4
2654,Left,1,48,110,1089.5,0.489583,Eighth,C3
2657,Left,1,47,110,1090.0,0.489583,Eighth,B2
2656,Right,0,59,110,1090.0,0.489583,Eighth,B3
2659,Left,1,48,110,1090.5,0.489583,Eighth,C3
2658,Right,0,60,110,1090.5,0.489583,Eighth,C4
2660,Left,1,43,110,1091.0,0.489583,Eighth,G2
2661,Right,0,55,110,1091.0,0.489583,Eighth,G3
2662,Left,1,48,110,1091.5,0.489583,Eighth,C3
2663,Right,0,60,110,1091.5,0.489583,Eighth,C4
2664,Right,0,56,110,1092.0,0.489583,Eighth,G#3
2665,Left,1,44,110,1092.0,0.489583,Eighth,G#2
2667,Left,1,48,110,1092.5,0.489583,Eighth,C3
2666,Right,0,60,110,1092.5,0.489583,Eighth,C4
2668,Left,1,47,110,1093.0,0.489583,Eighth,B2
2669,Right,0,59,110,1093.0,0.489583,Eighth,B3
2671,Right,0,60,110,1093.5,0.489583,Eighth,C4
2670,Left,1,48,110,1093.5,0.489583,Eighth,C3
2673,Left,1,42,110,1094.0,0.489583,Eighth,F#2
2672,Right,0,54,110,1094.0,0.489583,Eighth,F#3
2674,Right,0,60,110,1094.5,0.489583,Eighth,C4
2675,Left,1,48,110,1094.5,0.489583,Eighth,C3
2677,Left,1,43,110,1095.0,0.489583,Eighth,G2
2676,Right,0,55,110,1095.0,0.489583,Eighth,G3
2678,Right,0,60,110,1095.5,0.489583,Eighth,C4
2679,Left,1,48,110,1095.5,0.489583,Eighth,C3
2680,Left,1,47,110,1096.0,0.489583,Eighth,B2
2681,Right,0,59,110,1096.0,0.489583,Eighth,B3
2683,Left,1,48,110,1096.5,0.489583,Eighth,C3
2682,Right,0,60,110,1096.5,0.489583,Eighth,C4
2685,Right,0,52,110,1097.0,0.489583,Eighth,E3
2684,Left,1,40,110,1097.0,0.489583,Eighth,E2
2686,Right,0,60,110,1097.5,0.489583,Eighth,C4
2687,Left,1,48,110,1097.5,0.489583,Eighth,C3
2689,Left,1,41,110,1098.0,0.489583,Eighth,F2
2688,Right,0,53,110,1098.0,0.489583,Eighth,F3
2691,Left,1,48,110,1098.5,0.489583,Eighth,C3
2690,Right,0,60,110,1098.5,0.489583,Eighth,C4
2692,Right,0,56,110,1099.0,0.489583,Eighth,G#3
2693,Left,1,44,110,1099.0,0.489583,Eighth,G#2
2694,Right,0,60,110,1099.5,0.489583,Eighth,C4
2695,Left,1,48,110,1099.5,0.489583,Eighth,C3
2696,Right,0,54,110,1100.0,0.489583,Eighth,F#3
2697,Left,1,42,110,1100.0,0.489583,Eighth,F#2
2699,Right,0,60,110,1100.5,0.489583,Eighth,C4
2698,Left,1,48,110,1100.5,0.489583,Eighth,C3
2700,Left,1,43,110,1101.0,0.989583,Quarter,G2
2701,Right,0,55,110,1101.0,0.989583,Quarter,G3
2702,Left,1,55,110,1102.0,0.989583,Quarter,G3_D#4_C4
2705,Right,0,67,110,1102.75,0.239583,Sixteenth,G4
2706,Right,0,75,110,1103.0,0.739583,DottedEighth,D#5
2707,Right,0,72,110,1103.75,0.239583,Sixteenth,C5
2708,Right,0,78,120,1104.0,0.989583,Quarter,F#5
2709,Left,1,63,110,1105.0,0.989583,Quarter,G#3_D#4_C4
2712,Right,0,66,110,1105.75,0.239583,Sixteenth,F#4
2713,Right,0,75,110,1106.0,0.739583,DottedEighth,D#5
2714,Right,0,72,110,1106.75,0.239583,Sixteenth,C5
2715,Right,0,79,120,1107.0,0.989583,Quarter,G5
2716,Left,1,63,110,1108.0,0.989583,Quarter,G3_D#4_C4
2719,Right,0,67,110,1108.75,0.239583,Sixteenth,G4
2720,Right,0,75,110,1109.0,0.739583,DottedEighth,D#5
2721,Right,0,72,110,1109.75,0.239583,Sixteenth,C5
2722,Right,0,81,120,1110.0,0.989583,Quarter,A5
2723,Left,1,63,110,1111.0,0.989583,Quarter,F#3_D#4_C4
2726,Right,0,69,110,1111.75,0.239583,Sixteenth,A4
2727,Right,0,75,110,1112.0,0.739583,DottedEighth,D#5
2728,Right,0,72,110,1112.75,0.239583,Sixteenth,C5
2729,Right,0,79,120,1113.0,1.489583,DottedQuarter,G5
2730,Left,1,63,120,1114.0,0.989583,Quarter,G3_D#4_C4
2733,Right,0,75,120,1114.5,0.489583,Eighth,D#5
2734,Right,0,75,120,1115.0,0.489583,Eighth,D#5
2735,Right,0,72,120,1115.5,0.489583,Eighth,C5
2736,Right,0,72,120,1116.0,0.489583,Eighth,C5
2737,Right,0,67,120,1116.5,0.489583,Eighth,G4
2738,Right,0,67,120,1117.0,0.489583,Eighth,G4
2739,Right,0,63,120,1117.5,0.489583,Eighth,D#4
2740,Right,0,63,120,1118.0,0.489583,Eighth,D#4
2741,Right,0,60,120,1118.5,0.489583,Eighth,C4
2742,Right,0,60,120,1119.0,0.489583,Eighth,C4
2743,Right,0,55,120,1119.5,0.489583,Eighth,G3
2744,Right,0,55,120,1120.0,0.489583,Eighth,G3
2745,Right,0,51,120,1120.5,0.489583,Eighth,D#3
2746,Right,0,51,120,1121.0,0.489583,Eighth,D#3
2747,Right,0,48,120,1121.5,0.489583,Eighth,C3
2748,Left,1,31,120,1122.0,2.989583,DottedHalf,G2_G1
2750,Right,0,50,110,1124.0,0.989583,Quarter,G3_F3_D3_B3
2755,Right,0,60,110,1125.0,0.989583,Quarter,G3_D#3_C4
2754,Left,1,36,110,1125.0,0.989583,Quarter,C2
2758,Left,1,43,115,1126.0,4.989583,Unknown,G2
2759,Left,1,42,100,1127.0,0.989583,Quarter,F#2
2760,Left,1,41,100,1128.0,0.989583,Quarter,F2
2761,Right,0,62,100,1129.0,0.989583,Quarter,G4_F4_D4_B3
2762,Left,1,39,100,1129.0,0.989583,Quarter,D#2
2766,Right,0,65,100,1130.0,0.989583,Quarter,G4_F4_D4_B3
2770,Left,1,38,100,1130.0,0.989583,Quarter,D2
2771,Right,0,68,100,1131.0,1.989583,Half,G#4_D#4_C4
2772,Left,1,36,100,1131.0,0.989583,Quarter,C2
2776,Right,0,67,100,1132.0,0.989583,Quarter,G4
2775,Left,1,39,100,1132.0,0.989583,Quarter,D#2
2777,Left,1,43,100,1133.0,0.989583,Quarter,G2
2778,Left,1,31,100,1134.0,0.989583,Quarter,G1
2781,Left,1,38,100,1135.0,0.989583,Quarter,D2
2779,Right,0,62,100,1135.0,0.989583,Quarter,F4_D4_B4
2784,Right,0,65,100,1136.0,0.989583,Quarter,F4_D4_B4
2783,Left,1,43,100,1136.0,0.989583,Quarter,G2
2789,Left,1,36,110,1137.0,0.989583,Quarter,C2
2787,Right,0,63,100,1137.0,1.989583,Half,G4_D5_D#4
2792,Left,1,43,117,1138.0,4.989583,Unknown,G2
2791,Right,0,72,100,1138.0,0.989583,Quarter,C5
2793,Left,1,42,90,1139.0,0.989583,Quarter,F#2
2794,Left,1,41,90,1140.0,0.989583,Quarter,F2
2795,Right,0,67,89,1141.0,0.989583,Quarter,G4_F4_D4_B3
2799,Left,1,39,89,1141.0,0.989583,Quarter,D#2
2804,Left,1,38,89,1142.0,0.989583,Quarter,D2
2800,Right,0,59,89,1142.0,0.989583,Quarter,G4_F4_D4_B3
2805,Right,0,63,88,1143.0,1.989583,Half,G#4_D#4_C4
2808,Left,1,36,88,1143.0,0.989583,Quarter,C2
2809,Left,1,39,87,1144.0,0.989583,Quarter,D#2
2810,Right,0,67,87,1144.0,0.989583,Quarter,G4
2811,Left,1,43,87,1145.0,0.989583,Quarter,G2
2812,Left,1,31,86,1146.0,0.989583,Quarter,G1
2813,Left,1,38,86,1147.0,0.989583,Quarter,D2
2814,Right,0,50,86,1147.0,0.989583,Quarter,F3_D3_B3
2817,Right,0,50,85,1148.0,0.989583,Quarter,F3_D3_B3
2818,Left,1,43,85,1148.0,0.989583,Quarter,G2
2821,Left,1,36,84,1149.0,0.989583,Quarter,C2
2822,Right,0,62,84,1149.0,1.989583,Half,G3_D4_D#3
2825,Left,1,39,84,1150.0,0.989583,Quarter,D#2
2826,Right,0,60,84,1150.0,0.989583,Quarter,C4
2827,Left,1,43,83,1151.0,0.989583,Quarter,G2
2828,Left,1,31,82,1152.0,0.989583,Quarter,G1
2832,Left,1,38,82,1153.0,0.989583,Quarter,D2
2829,Right,0,50,82,1153.0,0.989583,Quarter,F3_D3_B3
2835,Left,1,43,81,1154.0,0.989583,Quarter,G2
2833,Right,0,53,81,1154.0,0.989583,Quarter,F3_D3_B3
2837,Left,1,36,81,1155.0,0.989583,Quarter,C2
2838,Right,0,60,81,1155.0,0.989583,Quarter,G3_D#3_C4
2841,Left,1,31,120,1158.0,0.989583,Quarter,G2_G1_D2_B1
2842,Right,0,74,120,1158.0,0.989583,Quarter,G5_G4_D5_B4
2851,Right,0,60,120,1161.0,1.989583,Half,G4_D#4_C5_C4
2849,Left,1,48,120,1161.0,1.989583,Half,G2_D#2_C3_C2
2857,Right,0,60,1,1165.0,0.489583,Eighth,C4
