,hand,channel,note,velocity,start_beat,duration,note_value,chord
1,Left,1,44,80,0.0,0.989583,Quarter,G#3_G#2_D#3
0,Right,0,68,80,0.0,0.989583,Eighth,G#4_C4
5,Right,0,70,80,0.5,0.239583,Sixteenth,A#4
6,Right,0,68,80,0.625,0.239583,Sixteenth,G#4
7,Right,0,67,80,0.75,0.239583,Sixteenth,G4
8,Right,0,68,80,0.875,0.239583,Sixteenth,G#4
12,Right,0,61,80,1.0,0.989583,Quarter,C5_C#4
9,Left,1,43,80,1.0,0.989583,Quarter,G3_G2_D#3
14,Right,0,70,80,1.75,0.239583,Sixteenth,A#4
15,Right,0,68,80,2.0,1.489583,DottedQuarter,G#4_C4
17,Left,1,44,80,2.0,1.489583,DottedQuarter,G#3_G#2_D#3
20,Right,0,69,80,3.5,0.489583,Eighth,A4
23,Right,0,70,80,4.0,0.989583,Eighth,D#4_A#4
21,Left,1,61,80,4.0,0.989583,Eighth,G3_C#4
25,Left,1,58,80,4.5,0.489583,Eighth,A#3
26,Right,0,72,80,4.5,0.239583,Sixteenth,C5
27,Right,0,70,80,4.625,0.239583,Sixteenth,A#4
28,Right,0,69,80,4.75,0.239583,Sixteenth,A4
29,Right,0,70,80,4.875,0.239583,Sixteenth,A#4
31,Right,0,73,80,5.0,0.739583,DottedEighth,D#4_C#5
30,Left,1,56,80,5.0,0.989583,Quarter,G#3
33,Left,1,60,80,5.5,0.489583,Eighth,C4
34,Right,0,68,80,5.5,0.489583,Eighth,G#4
35,Right,0,72,80,5.75,0.239583,Sixteenth,C5
36,Left,1,51,80,6.0,1.489583,DottedQuarter,D#4_D#3
38,Right,0,67,80,6.0,1.489583,DottedQuarter,G4_A#4
40,Right,0,71,80,7.5,0.489583,Eighth,B4
41,Left,1,56,80,8.0,0.989583,Quarter,G#3
42,Right,0,63,80,8.0,0.989583,Quarter,D#4_C5
44,Right,0,68,84,8.875,0.114583,ThirtySecond,G#4
47,Left,1,48,84,9.0,0.989583,Quarter,G#3_C4_C3
45,Right,0,68,84,9.0,0.989583,Quarter,G#4_D#5_D#4
51,Right,0,72,89,9.875,0.114583,ThirtySecond,C5
53,Left,1,56,89,10.0,0.989583,Quarter,G#3_C#4_C#3
52,Right,0,65,89,10.0,0.989583,Quarter,G#4_F5_F4
58,Right,0,73,94,10.875,0.114583,ThirtySecond,C#5
59,Left,1,53,94,11.0,1.989583,Half,F3
60,Left,1,56,95,11.0625,1.927083,Half,G#3
61,Left,1,61,95,11.125,1.864583,Half,C#4
62,Left,1,65,95,11.1875,1.802083,Half,F4
63,Right,0,68,80,11.25,1.739583,DottedQuarter,G#4
64,Right,0,73,80,11.3125,1.677083,DottedQuarter,C#5
65,Right,0,77,80,11.375,0.614583,Eighth,F5
66,Right,0,80,80,11.4375,0.802083,DottedEighth,G#5
67,Right,0,79,80,12.25,0.239583,Sixteenth,G5
68,Right,0,77,80,12.5,0.239583,Sixteenth,F5
69,Right,0,75,80,12.75,0.239583,Sixteenth,D#5
70,Right,0,70,80,13.0,0.489583,Eighth,C#5_A#4
72,Left,1,55,80,13.0,0.489583,Eighth,G3_D#4
76,Right,0,68,80,13.5,0.489583,Eighth,G#4_C5
74,Left,1,56,80,13.5,0.489583,Eighth,G#3_D#4
79,Right,0,75,80,14.0,0.739583,DottedEighth,D#5_D#4
78,Left,1,60,80,14.0,0.989583,DottedEighth,D#3_C4
82,Right,0,63,80,14.5,0.489583,Eighth,D#4
84,Left,1,56,80,14.75,0.239583,Sixteenth,G#3
83,Right,0,72,80,14.75,0.239583,Sixteenth,C5
85,Right,0,70,80,15.0,0.489583,ThirtySecond,D#4_A#4
86,Left,1,51,80,15.0,0.489583,Eighth,G3_D#3
89,Right,0,72,80,15.0625,0.114583,ThirtySecond,C5
90,Right,0,69,80,15.125,0.114583,ThirtySecond,A4
91,Right,0,70,80,15.1875,0.114583,ThirtySecond,A#4
92,Right,0,73,80,15.25,0.114583,ThirtySecond,C#5
93,Right,0,72,80,15.375,0.114583,ThirtySecond,C5
94,Right,0,75,80,15.5,0.114583,ThirtySecond,D#5
95,Right,0,73,80,15.625,0.114583,ThirtySecond,C#5
96,Right,0,72,80,15.75,0.072917,TripletThirtySecond,C5
97,Right,0,73,80,15.833333,0.072917,TripletThirtySecond,C#5
98,Right,0,70,80,15.916667,0.072917,TripletThirtySecond,A#4
100,Right,0,68,80,16.0,0.989583,Eighth,G#4_C4
99,Left,1,44,80,16.0,0.989583,Quarter,G#2
102,Left,1,51,80,16.25,0.239583,Sixteenth,D#3
104,Left,1,51,80,16.5,0.239583,Sixteenth,D#3
103,Right,0,70,80,16.5,0.239583,Sixteenth,A#4
105,Right,0,68,80,16.625,0.239583,Sixteenth,G#4
106,Left,1,51,80,16.75,0.239583,Sixteenth,D#3
107,Right,0,67,80,16.75,0.239583,Sixteenth,G4
108,Right,0,68,80,16.875,0.239583,Sixteenth,G#4
111,Left,1,43,80,17.0,0.989583,Quarter,G2
109,Right,0,61,80,17.0,0.989583,Quarter,C5_C#4
112,Left,1,51,80,17.25,0.239583,Sixteenth,D#3
113,Left,1,51,80,17.5,0.239583,Sixteenth,D#3
115,Right,0,70,80,17.75,0.239583,Sixteenth,A#4
114,Left,1,51,80,17.75,0.239583,Sixteenth,D#3
118,Left,1,44,80,18.0,0.239583,Sixteenth,G#2
116,Right,0,68,80,18.0,0.989583,Quarter,G#4_C4
119,Left,1,51,80,18.25,0.239583,Sixteenth,D#3
120,Left,1,48,80,18.5,0.239583,Sixteenth,C3
121,Left,1,56,80,18.75,0.239583,Sixteenth,G#3
122,Left,1,51,80,19.0,0.239583,Sixteenth,D#3
123,Left,1,60,80,19.25,0.239583,Sixteenth,C4
124,Left,1,56,80,19.5,0.239583,Sixteenth,G#3
125,Left,1,63,80,19.75,0.239583,Sixteenth,D#4
127,Right,0,70,80,20.0,0.489583,Eighth,A#4
126,Left,1,55,80,20.0,0.989583,Quarter,G3
128,Left,1,63,80,20.25,0.239583,Sixteenth,D#4
129,Left,1,63,80,20.5,0.239583,Sixteenth,D#4
130,Right,0,72,80,20.5,0.239583,Sixteenth,C5
131,Right,0,70,80,20.625,0.239583,Sixteenth,A#4
132,Left,1,63,80,20.75,0.239583,Sixteenth,D#4
133,Right,0,69,80,20.75,0.239583,Sixteenth,A4
134,Right,0,70,80,20.875,0.239583,Sixteenth,A#4
135,Left,1,56,80,21.0,0.989583,Quarter,G#3
136,Right,0,68,80,21.0,0.989583,Quarter,G#4_C#5
138,Left,1,63,80,21.25,0.239583,Sixteenth,D#4
139,Left,1,63,80,21.5,0.239583,Sixteenth,D#4
141,Right,0,72,80,21.75,0.239583,Sixteenth,C5
140,Left,1,63,80,21.75,0.239583,Sixteenth,D#4
142,Left,1,51,80,22.0,0.239583,Sixteenth,D#3
143,Right,0,67,80,22.0,0.989583,Quarter,G4_A#4
145,Left,1,63,80,22.25,0.239583,Sixteenth,D#4
146,Left,1,62,80,22.5,0.239583,Sixteenth,D4
147,Left,1,63,80,22.75,0.239583,Sixteenth,D#4
148,Left,1,62,80,23.0,0.239583,Sixteenth,D4
149,Left,1,63,80,23.25,0.239583,Sixteenth,D#4
150,Left,1,65,80,23.5,0.239583,Sixteenth,F4
151,Left,1,61,82,23.75,0.239583,Sixteenth,C#4
152,Right,0,63,80,24.0,0.114583,ThirtySecond,D#4
153,Right,0,72,81,24.125,0.739583,DottedEighth,C5
154,Left,1,56,82,24.25,0.239583,Sixteenth,G#3
155,Left,1,60,85,24.5,0.239583,Sixteenth,C4
156,Left,1,63,87,24.75,0.239583,Sixteenth,D#4
157,Right,0,68,89,24.875,0.114583,ThirtySecond,G#4
158,Right,0,63,90,25.0,0.114583,ThirtySecond,D#4
159,Right,0,75,91,25.125,0.739583,DottedEighth,D#5
160,Left,1,48,93,25.25,0.239583,Sixteenth,C3
161,Left,1,51,95,25.5,0.239583,Sixteenth,D#3
162,Left,1,56,98,25.75,0.239583,Sixteenth,G#3
163,Right,0,72,99,25.875,0.114583,ThirtySecond,C5
164,Right,0,65,100,26.0,0.114583,ThirtySecond,F4
165,Right,0,77,99,26.125,1.364583,TiedQuarter-Sixteenth,F5
166,Left,1,49,98,26.25,1.739583,DottedQuarter,F3_C#3
168,Left,1,55,95,26.5,0.239583,Sixteenth,G3
169,Left,1,56,92,26.75,0.239583,Sixteenth,G#3
170,Left,1,57,89,27.0,0.239583,Sixteenth,A3
171,Left,1,58,86,27.25,0.239583,Sixteenth,A#3
174,Left,1,60,83,27.5,0.239583,Sixteenth,C4
172,Right,0,75,83,27.5,0.239583,Sixteenth,D#5_A4
177,Left,1,61,81,27.75,0.239583,Sixteenth,C#4
175,Right,0,73,81,27.75,0.239583,Sixteenth,C#5_A#4
179,Left,1,63,80,28.0,0.989583,Sixteenth,D#4_D#3
178,Right,0,72,80,28.0,0.989583,Eighth,G#4_C5
182,Left,1,62,80,28.25,0.239583,Sixteenth,D4
183,Right,0,75,80,28.5,0.489583,Eighth,D#5
184,Left,1,61,80,28.5,0.239583,Sixteenth,C#4
185,Left,1,60,80,28.75,0.239583,Sixteenth,C4
188,Right,0,73,80,29.0,0.989583,Eighth,G4_C#5
186,Left,1,51,80,29.0,0.989583,Quarter,D#3_A#3
190,Left,1,60,80,29.25,0.239583,Sixteenth,C4
192,Right,0,70,80,29.5,0.489583,Eighth,A#4
191,Left,1,61,80,29.5,0.239583,Sixteenth,C#4
193,Left,1,55,80,29.75,0.239583,Sixteenth,G3
196,Right,0,70,80,30.0,0.989583,Quarter,C#4_A#4
194,Left,1,55,80,30.0,1.489583,Quarter,G3_G#2
198,Right,0,60,80,30.5,0.239583,Sixteenth,C4
199,Right,0,61,80,30.625,0.239583,Sixteenth,C#4
200,Right,0,63,80,30.75,0.239583,Sixteenth,D#4
201,Right,0,61,80,30.875,0.239583,Sixteenth,C#4
203,Right,0,60,80,31.0,0.489583,Eighth,G#4_C4
202,Left,1,56,80,31.0,0.489583,Eighth,G#3
205,Right,0,77,110,32.0,0.114583,ThirtySecond,F5
206,Left,1,57,110,32.0,0.989583,Quarter,F4_D#4_C4_A3
210,Right,0,89,110,32.0625,0.489583,Eighth,F6
211,Right,0,87,110,32.5625,0.114583,ThirtySecond,D#6
212,Right,0,84,110,32.625,0.114583,ThirtySecond,C6
213,Right,0,81,110,32.6875,0.114583,ThirtySecond,A5
214,Right,0,77,110,32.75,0.114583,ThirtySecond,F5
215,Right,0,75,110,32.8125,0.114583,ThirtySecond,D#5
216,Right,0,72,110,32.875,0.114583,ThirtySecond,C5
217,Right,0,69,110,32.9375,0.114583,ThirtySecond,A4
218,Right,0,65,110,33.0,0.489583,Eighth,F4
219,Right,0,63,80,33.875,0.114583,ThirtySecond,D#4_C4
220,Left,1,45,80,33.875,0.114583,ThirtySecond,F3_A2
224,Left,1,46,80,34.0,1.489583,DottedQuarter,F3_A#2
223,Right,0,63,80,34.0,0.989583,Quarter,D#4_C4
227,Right,0,58,80,35.0,0.489583,Eighth,C#4_A#3
230,Left,1,55,110,36.0,0.989583,Quarter,G3_D#4_C#4_A#3
229,Right,0,75,110,36.0,0.114583,ThirtySecond,D#5
234,Right,0,87,110,36.0625,0.489583,Eighth,D#6
235,Right,0,85,110,36.5625,0.114583,ThirtySecond,C#6
236,Right,0,82,110,36.625,0.114583,ThirtySecond,A#5
237,Right,0,79,110,36.6875,0.114583,ThirtySecond,G5
238,Right,0,75,110,36.75,0.114583,ThirtySecond,D#5
239,Right,0,73,110,36.8125,0.114583,ThirtySecond,C#5
240,Right,0,70,110,36.875,0.114583,ThirtySecond,A#4
241,Right,0,67,110,36.9375,0.114583,ThirtySecond,G4
242,Right,0,63,110,37.0,0.489583,Eighth,D#4
245,Left,1,43,80,37.875,0.114583,ThirtySecond,G2_D#3
243,Right,0,58,80,37.875,0.114583,ThirtySecond,C#4_A#3
247,Left,1,44,80,38.0,1.489583,DottedQuarter,G#2_D#3
249,Right,0,61,80,38.0,0.989583,Quarter,C#4_A#3
251,Right,0,60,80,39.0,0.489583,Eighth,G#3_C4
253,Left,1,47,120,40.0,0.114583,ThirtySecond,B2
254,Left,1,59,120,40.0625,0.552083,Eighth,B3
255,Left,1,59,120,40.625,0.114583,ThirtySecond,B3
256,Left,1,56,120,40.6875,0.114583,ThirtySecond,G#3
257,Left,1,51,120,40.75,0.114583,ThirtySecond,D#3
258,Left,1,47,120,40.8125,0.114583,ThirtySecond,B2
259,Left,1,44,120,40.875,0.114583,ThirtySecond,G#2
260,Left,1,39,120,40.9375,0.114583,ThirtySecond,D#2
261,Left,1,35,120,41.0,0.489583,Eighth,B1
262,Right,0,51,120,41.875,0.114583,ThirtySecond,G#3_D#4_D#3
264,Left,1,47,120,41.875,0.114583,ThirtySecond,B2_B1
270,Left,1,46,120,42.0,1.489583,DottedQuarter,A#2_A#1
267,Right,0,53,120,42.0,1.489583,DottedQuarter,G#3_F3_D#4
272,Right,0,62,80,43.0,0.239583,Sixteenth,D4
273,Right,0,64,80,43.25,0.239583,Sixteenth,E4
274,Right,0,65,80,43.5,0.239583,Sixteenth,F4
275,Right,0,69,80,43.75,0.239583,Sixteenth,A4
276,Right,0,70,80,44.0,0.239583,Sixteenth,A#4
277,Right,0,73,80,44.25,0.239583,Sixteenth,C#5
278,Right,0,74,80,44.5,0.239583,Sixteenth,D5
279,Right,0,76,80,44.75,0.239583,Sixteenth,E5
280,Right,0,77,80,45.0,0.239583,Sixteenth,F5
281,Right,0,79,80,45.25,0.239583,Sixteenth,G5
282,Right,0,80,80,45.5,0.239583,Sixteenth,G#5
283,Right,0,77,80,45.75,0.239583,Sixteenth,F5
286,Right,0,74,70,46.0,1.239583,TiedQuarter-Sixteenth,D5
284,Left,1,56,70,46.0,0.489583,Eighth,G#3_A#3
287,Left,1,58,70,46.5,0.489583,Eighth,G#3_A#3
289,Left,1,56,70,47.0,0.489583,Eighth,G#3_A#3
291,Right,0,75,70,47.25,0.114583,ThirtySecond,D#5
292,Right,0,74,70,47.3125,0.114583,ThirtySecond,D5
293,Right,0,72,70,47.375,0.114583,ThirtySecond,C5
294,Right,0,74,70,47.4375,0.114583,ThirtySecond,D5
295,Left,1,58,70,47.5,0.489583,Eighth,G#3_A#3
297,Right,0,75,70,47.5,0.364583,DottedSixteenth,D#5
298,Right,0,77,70,47.875,0.114583,ThirtySecond,F5
299,Right,0,77,70,48.0,0.489583,Eighth,F5
300,Left,1,58,70,48.0,0.489583,Eighth,G3_A#3
303,Right,0,75,70,48.5,0.989583,Quarter,D#5
302,Left,1,58,70,48.5,0.489583,Eighth,G3_A#3
305,Left,1,58,70,49.0,0.489583,Eighth,G3_A#3
307,Right,0,76,70,49.5,0.489583,Eighth,E5
308,Left,1,55,70,49.5,0.489583,Eighth,G3_A#3
312,Right,0,77,70,50.0,1.239583,TiedQuarter-Sixteenth,F5
310,Left,1,50,70,50.0,0.489583,Eighth,G#3_D3_A#3
314,Left,1,58,70,50.5,0.489583,Eighth,G#3_D3_A#3
317,Left,1,50,70,51.0,0.489583,Eighth,G#3_D3_A#3
320,Right,0,79,70,51.25,0.114583,ThirtySecond,G5
321,Right,0,77,70,51.3125,0.114583,ThirtySecond,F5
322,Right,0,76,70,51.375,0.114583,ThirtySecond,E5
323,Right,0,77,70,51.4375,0.114583,ThirtySecond,F5
325,Left,1,55,70,51.5,0.489583,Eighth,G3_D3_A#3
324,Right,0,79,70,51.5,0.364583,DottedSixteenth,G5
329,Right,0,80,70,51.875,0.114583,ThirtySecond,G#5
328,Left,1,53,70,51.875,0.114583,ThirtySecond,F3
333,Right,0,80,70,52.0,0.489583,Eighth,G#5
330,Left,1,58,70,52.0,0.489583,Eighth,F#3_D#3_A#3
334,Left,1,51,70,52.5,0.489583,Eighth,G3_D#3_A#3
337,Right,0,79,70,52.5,0.239583,Sixteenth,G5
338,Left,1,58,70,53.0,0.489583,Eighth,G3_D#3_A#3
341,Left,1,55,70,53.5,0.489583,Eighth,G3_D#3_A#3
344,Left,1,58,80,54.0,0.739583,DottedEighth,G#3_A#3
346,Right,0,62,80,54.0625,0.114583,ThirtySecond,D4
347,Right,0,63,80,54.125,0.114583,ThirtySecond,D#4
348,Right,0,65,80,54.1875,0.114583,ThirtySecond,F4
349,Right,0,63,80,54.25,0.114583,ThirtySecond,D#4
350,Right,0,62,80,54.3125,0.114583,ThirtySecond,D4
351,Right,0,68,80,54.375,0.114583,ThirtySecond,G#4
352,Right,0,67,80,54.4375,0.114583,ThirtySecond,G4
353,Right,0,65,80,54.5,0.114583,ThirtySecond,F4
354,Right,0,74,80,54.5625,0.114583,ThirtySecond,D5
355,Right,0,72,80,54.625,0.114583,ThirtySecond,C5
356,Right,0,70,80,54.6875,0.114583,ThirtySecond,A#4
357,Left,1,56,80,54.75,0.739583,DottedEighth,G#3_A#3
358,Right,0,77,80,54.75,0.114583,ThirtySecond,F5
360,Right,0,75,80,54.8125,0.114583,ThirtySecond,D#5
361,Right,0,74,80,54.875,0.114583,ThirtySecond,D5
362,Right,0,80,80,54.9375,0.114583,ThirtySecond,G#5
363,Right,0,79,80,55.0,0.114583,ThirtySecond,G5
364,Right,0,77,80,55.0625,0.114583,ThirtySecond,F5
365,Left,1,58,80,55.5,0.489583,Eighth,G#3_A#3
367,Left,1,56,80,56.0,0.489583,Eighth,G#3_A#3
369,Right,0,84,80,56.125,0.114583,ThirtySecond,C6
370,Right,0,82,80,56.177083,0.114583,ThirtySecond,A#5
371,Right,0,80,80,56.229167,0.114583,ThirtySecond,G#5
372,Right,0,79,80,56.28125,0.114583,ThirtySecond,G5
373,Right,0,77,80,56.333333,0.114583,ThirtySecond,F5
374,Right,0,75,80,56.385417,0.114583,ThirtySecond,D#5
375,Right,0,74,80,56.4375,0.114583,ThirtySecond,D5
376,Right,0,77,80,56.5,0.364583,DottedSixteenth,F5
377,Right,0,75,80,56.875,0.114583,ThirtySecond,D#5
378,Right,0,74,80,56.9375,0.177083,TripletSixteenth,D5
379,Left,1,58,80,57.0,0.489583,Eighth,G3_A#3
381,Right,0,75,80,57.1875,0.052083,SixtyFourth,D#5
382,Right,0,77,80,57.25,0.177083,TripletSixteenth,F5
383,Right,0,75,80,57.4375,0.052083,SixtyFourth,D#5
384,Left,1,58,80,57.5,0.489583,Eighth,G3_A#3
386,Right,0,63,80,57.5,0.489583,Eighth,D#4
387,Left,1,55,80,58.0,0.489583,Eighth,G3_A#3
389,Left,1,50,80,58.5,0.739583,DottedEighth,G#3_D3_A#3
392,Right,0,65,80,58.5625,0.114583,ThirtySecond,F4
393,Right,0,67,80,58.625,0.114583,ThirtySecond,G4
394,Right,0,68,80,58.6875,0.114583,ThirtySecond,G#4
395,Right,0,67,80,58.75,0.114583,ThirtySecond,G4
396,Right,0,65,80,58.8125,0.114583,ThirtySecond,F4
397,Right,0,74,80,58.875,0.114583,ThirtySecond,D5
398,Right,0,72,80,58.9375,0.114583,ThirtySecond,C5
399,Right,0,70,80,59.0,0.114583,ThirtySecond,A#4
400,Right,0,77,80,59.0625,0.114583,ThirtySecond,F5
401,Right,0,75,80,59.125,0.114583,ThirtySecond,D#5
402,Right,0,74,80,59.1875,0.114583,ThirtySecond,D5
405,Right,0,80,80,59.25,0.114583,ThirtySecond,G#5
403,Left,1,56,80,59.25,0.739583,DottedEighth,G#3_D3_A#3
407,Right,0,79,80,59.3125,0.114583,ThirtySecond,G5
408,Right,0,77,80,59.375,0.114583,ThirtySecond,F5
409,Right,0,86,80,59.4375,0.114583,ThirtySecond,D6
410,Right,0,84,80,59.5,0.114583,ThirtySecond,C6
411,Right,0,82,80,59.5625,0.114583,ThirtySecond,A#5
412,Right,0,89,80,59.625,0.864583,DottedEighth,F6
413,Left,1,50,80,60.0,0.489583,Eighth,G#3_D3_A#3
419,Right,0,89,80,60.5,0.15625,TripletSixteenth,F6
416,Left,1,50,80,60.5,0.489583,Eighth,G#3_D3_A#3
420,Right,0,87,80,60.583333,0.15625,TripletSixteenth,D#6
421,Right,0,86,80,60.666667,0.15625,TripletSixteenth,D6
422,Right,0,84,80,60.75,0.15625,TripletSixteenth,C6
423,Right,0,82,80,60.833333,0.15625,TripletSixteenth,A#5
424,Right,0,80,80,60.916667,0.072917,TripletThirtySecond,G#5
425,Right,0,79,80,61.0,0.739583,DottedEighth,G5
426,Left,1,55,82,61.5,0.489583,Eighth,G3_D#3_A#3
429,Right,0,79,84,61.875,0.114583,ThirtySecond,G5
430,Right,0,80,85,62.0,0.739583,DottedEighth,G#5
431,Left,1,53,87,62.5,0.489583,Eighth,G#3_F3_D4_A#3
435,Right,0,80,89,62.875,0.114583,ThirtySecond,G#5
436,Right,0,82,90,63.0,0.739583,DottedEighth,A#5
437,Left,1,58,92,63.5,0.489583,Eighth,G3_D#4_A#3
440,Right,0,82,94,63.875,0.114583,ThirtySecond,A#5
441,Right,0,83,95,64.0,0.739583,DottedEighth,B5
442,Left,1,63,97,64.5,0.489583,Eighth,G3_D#4_B3
445,Right,0,83,99,64.875,0.114583,ThirtySecond,B5
446,Right,0,84,100,65.0,0.739583,DottedEighth,C6
447,Left,1,60,102,65.5,0.489583,Eighth,G#3_D#4_C4
450,Right,0,84,104,65.875,0.114583,ThirtySecond,C6
451,Right,0,86,105,66.0,0.739583,DottedEighth,D6
452,Left,1,56,108,66.5,0.489583,Eighth,G#3_F4_D4_B3
456,Right,0,86,109,66.875,0.114583,ThirtySecond,D6
457,Right,0,87,111,67.0,0.739583,DottedEighth,D#6
458,Left,1,66,113,67.5,0.489583,Eighth,F#4_D#4_C4_A3
462,Right,0,89,114,67.75,0.114583,ThirtySecond,F6
463,Right,0,87,114,67.8125,0.114583,ThirtySecond,D#6
464,Right,0,86,114,67.875,0.114583,ThirtySecond,D6
465,Right,0,87,114,67.9375,0.114583,ThirtySecond,D#6
466,Right,0,89,114,68.0,0.239583,Sixteenth,F6
467,Right,0,87,100,68.25,0.239583,Sixteenth,D#6
468,Right,0,86,100,68.5,0.239583,Sixteenth,D6
469,Right,0,84,100,68.75,0.239583,Sixteenth,C6
470,Right,0,82,90,69.0,0.239583,Sixteenth,A#5
471,Right,0,81,89,69.25,0.239583,Sixteenth,A5
472,Left,1,63,88,69.5,0.489583,Eighth,G4_D#4_A#3
475,Right,0,84,88,69.5,0.239583,Sixteenth,C6
476,Right,0,82,86,69.75,0.239583,Sixteenth,A#5
477,Right,0,80,85,70.0,0.239583,Sixteenth,G#5
478,Right,0,79,83,70.25,0.239583,Sixteenth,G5
480,Left,1,62,82,70.5,0.489583,Eighth,G#4_D4_A#3
479,Right,0,77,82,70.5,0.239583,Sixteenth,F5
483,Right,0,82,81,70.75,0.239583,Sixteenth,A#5
484,Right,0,78,70,71.0,0.15625,TripletSixteenth,F#5
485,Right,0,79,70,71.166667,0.15625,TripletSixteenth,G5
486,Left,1,63,70,71.333333,0.15625,TripletSixteenth,D#4
487,Right,0,67,70,71.333333,0.15625,TripletSixteenth,G4
488,Left,1,58,70,71.5,0.15625,TripletSixteenth,A#3
490,Left,1,55,70,71.666667,0.15625,TripletSixteenth,G3
489,Right,0,79,70,71.666667,0.15625,TripletSixteenth,G5
491,Left,1,51,70,71.833333,0.15625,TripletSixteenth,D#3
492,Right,0,67,70,71.833333,0.15625,TripletSixteenth,G4
493,Right,0,79,70,72.0,0.15625,TripletSixteenth,G5
494,Right,0,80,70,72.166667,0.15625,TripletSixteenth,G#5
496,Right,0,68,70,72.333333,0.15625,TripletSixteenth,G#4
495,Left,1,65,70,72.333333,0.15625,TripletSixteenth,F4
497,Left,1,62,70,72.5,0.15625,TripletSixteenth,D4
498,Right,0,80,70,72.666667,0.15625,TripletSixteenth,G#5
499,Left,1,58,70,72.666667,0.15625,TripletSixteenth,A#3
501,Right,0,68,70,72.833333,0.15625,TripletSixteenth,G#4
500,Left,1,53,70,72.833333,0.15625,TripletSixteenth,F3
502,Right,0,81,70,73.0,0.15625,TripletSixteenth,A5
503,Right,0,82,71,73.166667,0.15625,TripletSixteenth,A#5
504,Right,0,70,73,73.333333,0.15625,TripletSixteenth,A#4
505,Left,1,67,73,73.333333,0.15625,TripletSixteenth,G4
506,Left,1,63,75,73.5,0.15625,TripletSixteenth,D#4
508,Left,1,58,76,73.666667,0.15625,TripletSixteenth,A#3
507,Right,0,82,76,73.666667,0.15625,TripletSixteenth,A#5
509,Right,0,70,78,73.833333,0.15625,TripletSixteenth,A#4
510,Left,1,55,78,73.833333,0.15625,TripletSixteenth,G3
511,Right,0,82,80,74.0,0.15625,TripletSixteenth,A#5
512,Right,0,83,82,74.166667,0.15625,TripletSixteenth,B5
513,Left,1,67,83,74.333333,0.15625,TripletSixteenth,G4
514,Right,0,71,83,74.333333,0.15625,TripletSixteenth,B4
515,Left,1,63,85,74.5,0.15625,TripletSixteenth,D#4
516,Right,0,83,87,74.666667,0.15625,TripletSixteenth,B5
517,Left,1,59,87,74.666667,0.15625,TripletSixteenth,B3
519,Left,1,55,89,74.833333,0.15625,TripletSixteenth,G3
518,Right,0,71,89,74.833333,0.15625,TripletSixteenth,B4
520,Right,0,83,90,75.0,0.15625,TripletSixteenth,B5
521,Right,0,84,92,75.166667,0.15625,TripletSixteenth,C6
523,Left,1,68,94,75.333333,0.15625,TripletSixteenth,G#4
522,Right,0,72,94,75.333333,0.15625,TripletSixteenth,C5
524,Left,1,63,96,75.5,0.15625,TripletSixteenth,D#4
525,Left,1,60,97,75.666667,0.15625,TripletSixteenth,C4
526,Right,0,84,97,75.666667,0.15625,TripletSixteenth,C6
528,Right,0,72,99,75.833333,0.15625,TripletSixteenth,C5
527,Left,1,56,99,75.833333,0.15625,TripletSixteenth,G#3
529,Right,0,85,101,76.0,0.15625,TripletSixteenth,C#6
530,Right,0,86,102,76.166667,0.15625,TripletSixteenth,D6
532,Right,0,74,104,76.333333,0.15625,TripletSixteenth,D5
531,Left,1,68,104,76.333333,0.15625,TripletSixteenth,G#4
533,Left,1,65,106,76.5,0.15625,TripletSixteenth,F4
534,Right,0,86,108,76.666667,0.15625,TripletSixteenth,D6
535,Left,1,62,108,76.666667,0.15625,TripletSixteenth,D4
537,Right,0,74,109,76.833333,0.15625,TripletSixteenth,D5
536,Left,1,58,109,76.833333,0.15625,TripletSixteenth,A#3
538,Right,0,86,110,77.0,0.15625,TripletSixteenth,D6
539,Right,0,87,110,77.166667,0.15625,TripletSixteenth,D#6
541,Left,1,69,110,77.333333,1.65625,DottedQuarter,A4
540,Right,0,75,110,77.333333,0.15625,TripletSixteenth,D#5
542,Left,1,66,110,77.5,1.489583,DottedQuarter,F#4
544,Left,1,63,110,77.666667,1.322917,TiedQuarter-Sixteenth,D#4
543,Right,0,87,110,77.666667,0.15625,TripletSixteenth,D#6
545,Right,0,75,110,77.833333,0.15625,TripletSixteenth,D#5
546,Left,1,59,110,77.833333,1.15625,TiedQuarter-ThirtySecond,B3
547,Right,0,87,110,78.0,0.15625,TripletSixteenth,D#6
548,Right,0,78,110,78.166667,0.15625,TripletSixteenth,F#5
549,Right,0,87,110,78.333333,0.15625,TripletSixteenth,D#6
550,Right,0,81,110,78.5,0.15625,TripletSixteenth,A5
551,Right,0,87,110,78.666667,0.15625,TripletSixteenth,D#6
552,Right,0,81,110,78.833333,0.15625,TripletSixteenth,A5
553,Right,0,82,110,79.0,1.15625,TiedQuarter-ThirtySecond,A#5
554,Left,1,46,110,79.166667,0.15625,TripletSixteenth,A#2
555,Left,1,51,110,79.333333,0.15625,TripletSixteenth,D#3
556,Left,1,55,100,79.5,0.15625,TripletSixteenth,G3
557,Left,1,58,99,79.666667,0.15625,TripletSixteenth,A#3
558,Left,1,63,98,79.833333,0.15625,TripletSixteenth,D#4
559,Left,1,67,97,80.0,0.15625,TripletSixteenth,G4
561,Right,0,81,96,80.166667,0.15625,TripletSixteenth,A5
560,Left,1,66,96,80.166667,0.15625,TripletSixteenth,F#4
563,Left,1,68,94,80.333333,0.15625,TripletSixteenth,G#4
562,Right,0,84,94,80.333333,0.15625,TripletSixteenth,C6
564,Left,1,67,93,80.5,0.15625,TripletSixteenth,G4
565,Right,0,82,93,80.5,0.15625,TripletSixteenth,A#5
567,Right,0,80,92,80.666667,0.15625,TripletSixteenth,G#5
566,Left,1,65,92,80.666667,0.15625,TripletSixteenth,F4
568,Left,1,63,91,80.833333,0.15625,TripletSixteenth,D#4
569,Right,0,79,91,80.833333,0.15625,TripletSixteenth,G5
570,Left,1,68,110,81.0,1.989583,Half,G#4_A#3
571,Right,0,75,110,81.0,0.989583,Quarter,F5_D#5
574,Right,0,77,110,81.75,0.114583,ThirtySecond,F5
575,Right,0,79,110,81.8125,0.114583,ThirtySecond,G5
576,Right,0,76,110,81.875,0.114583,ThirtySecond,E5
577,Right,0,77,110,81.9375,0.114583,ThirtySecond,F5
578,Right,0,82,110,82.0,0.989583,DottedEighth,D5_A#5
580,Right,0,82,110,82.875,0.114583,ThirtySecond,A#5
581,Right,0,75,110,83.0,0.489583,Eighth,G4_D#5
583,Left,1,34,110,83.166667,0.15625,TripletSixteenth,A#1
584,Left,1,39,110,83.333333,0.15625,TripletSixteenth,D#2
585,Left,1,43,110,83.5,0.15625,TripletSixteenth,G2
586,Left,1,46,110,83.666667,0.15625,TripletSixteenth,A#2
587,Left,1,51,110,83.833333,0.15625,TripletSixteenth,D#3
588,Left,1,55,110,84.0,0.15625,TripletSixteenth,G3
590,Left,1,54,110,84.166667,0.15625,TripletSixteenth,F#3
589,Right,0,69,110,84.166667,0.15625,TripletSixteenth,A4
591,Left,1,56,110,84.333333,0.15625,TripletSixteenth,G#3
592,Right,0,72,110,84.333333,0.15625,TripletSixteenth,C5
593,Right,0,70,110,84.5,0.15625,TripletSixteenth,A#4
594,Left,1,55,110,84.5,0.15625,TripletSixteenth,G3
595,Right,0,68,110,84.666667,0.15625,TripletSixteenth,G#4
596,Left,1,53,110,84.666667,0.15625,TripletSixteenth,F3
598,Left,1,51,110,84.833333,0.15625,TripletSixteenth,D#3
597,Right,0,67,110,84.833333,0.15625,TripletSixteenth,G4
599,Left,1,56,110,85.0,1.989583,Half,G#3_A#2
600,Right,0,63,110,85.0,0.989583,Quarter,F4_D#4
603,Right,0,65,110,85.75,0.114583,ThirtySecond,F4
604,Right,0,67,110,85.8125,0.114583,ThirtySecond,G4
605,Right,0,64,110,85.875,0.114583,ThirtySecond,E4
606,Right,0,65,110,85.9375,0.114583,ThirtySecond,F4
607,Right,0,62,110,86.0,0.989583,Quarter,D4_A#4
609,Right,0,70,100,86.875,0.114583,ThirtySecond,A#4
610,Right,0,63,100,87.0,0.489583,Eighth,D#4
611,Left,1,55,100,87.0,0.489583,Eighth,G3_D#3
613,Left,1,39,100,89.0,0.989583,Quarter,D#2
614,Left,1,46,100,89.0625,0.927083,Quarter,A#2
615,Left,1,49,100,89.125,0.864583,DottedEighth,C#3
616,Left,1,51,100,89.1875,0.802083,DottedEighth,D#3
617,Right,0,55,100,89.25,0.739583,DottedEighth,G3
618,Right,0,58,100,89.3125,0.614583,Eighth,A#3
619,Right,0,61,100,89.375,0.614583,Eighth,C#4
620,Right,0,63,100,89.4375,0.552083,Eighth,D#4
621,Right,0,67,100,89.5,0.489583,Eighth,G4
622,Right,0,68,80,91.0,0.989583,Eighth,G#4_C4
623,Left,1,44,80,91.0,0.489583,Eighth,G#2
626,Left,1,51,80,91.5,0.489583,Eighth,D#3
625,Right,0,70,80,91.5,0.239583,Sixteenth,A#4
627,Right,0,68,80,91.625,0.239583,Sixteenth,G#4
628,Right,0,67,80,91.75,0.239583,Sixteenth,G4
629,Right,0,68,80,91.875,0.239583,Sixteenth,G#4
630,Right,0,72,80,92.0,0.989583,DottedEighth,C5_C#4
632,Left,1,43,80,92.0,0.489583,Eighth,G2
633,Left,1,51,80,92.5,0.489583,Eighth,D#3
634,Right,0,70,80,92.75,0.239583,Sixteenth,A#4
636,Right,0,60,80,93.0,1.239583,Quarter,G#4_C4
635,Left,1,44,80,93.0,0.489583,Eighth,G#2
638,Left,1,51,80,93.5,0.489583,Eighth,D#3
639,Left,1,56,80,94.0,0.489583,Eighth,G#3
640,Right,0,67,80,94.25,0.239583,Sixteenth,G4
642,Right,0,68,80,94.5,0.239583,Sixteenth,G#4
641,Left,1,60,80,94.5,0.489583,Eighth,C4
643,Right,0,69,80,94.75,0.239583,Sixteenth,A4
646,Left,1,61,80,95.0,0.989583,Eighth,G3_C#4
644,Right,0,63,80,95.0,0.989583,Quarter,D#4_A#4
648,Right,0,72,80,95.5,0.239583,Sixteenth,C5
649,Left,1,58,80,95.5,0.489583,Eighth,A#3
650,Right,0,70,80,95.625,0.239583,Sixteenth,A#4
651,Right,0,69,80,95.75,0.239583,Sixteenth,A4
652,Right,0,70,80,95.875,0.239583,Sixteenth,A#4
653,Right,0,63,80,96.0,0.739583,Eighth,D#4_C#5
655,Left,1,56,80,96.0,0.989583,Quarter,G#3
656,Left,1,60,80,96.5,0.489583,Eighth,C4
657,Right,0,68,80,96.5,0.489583,Eighth,G#4
658,Right,0,72,80,96.75,0.239583,Sixteenth,C5
661,Right,0,67,80,97.0,1.15625,Quarter,G4_A#4
659,Left,1,63,80,97.0,1.989583,Half,D#4_D#3
663,Left,1,61,80,97.5,0.489583,Eighth,C#4
664,Left,1,58,80,98.0,0.489583,Eighth,A#3
665,Right,0,77,80,98.166667,0.15625,TripletSixteenth,F5
666,Right,0,75,80,98.333333,0.15625,TripletSixteenth,D#5
668,Right,0,73,80,98.5,0.15625,TripletSixteenth,C#5
667,Left,1,55,80,98.5,0.489583,Eighth,G3
669,Right,0,72,80,98.666667,0.15625,TripletSixteenth,C5
670,Right,0,71,80,98.833333,0.15625,TripletSixteenth,B4
671,Right,0,72,80,99.0,0.864583,DottedEighth,C5
672,Left,1,56,83,99.375,0.114583,ThirtySecond,G#3
673,Left,1,63,85,99.5,0.489583,Eighth,D#4
674,Right,0,68,89,99.875,0.114583,ThirtySecond,G#4
675,Right,0,75,90,100.0,0.864583,DottedEighth,D#5
676,Left,1,48,94,100.375,0.114583,ThirtySecond,C3
677,Left,1,56,95,100.5,0.489583,Eighth,G#3
678,Right,0,72,99,100.875,0.114583,ThirtySecond,C5
679,Right,0,77,110,101.0,0.864583,DottedEighth,F5
680,Left,1,49,106,101.375,0.114583,ThirtySecond,C#3
681,Left,1,56,105,101.5,0.364583,DottedSixteenth,G#3
682,Left,1,53,101,101.875,1.614583,DottedQuarter,F3
683,Right,0,73,101,101.875,0.114583,ThirtySecond,C#5
685,Right,0,80,100,102.0,1.239583,TiedQuarter-Sixteenth,G#5
684,Left,1,61,100,102.0,0.364583,DottedSixteenth,C#4
686,Left,1,56,96,102.375,0.114583,ThirtySecond,G#3
687,Left,1,65,94,102.5,0.364583,DottedSixteenth,F4
688,Left,1,61,90,102.875,0.114583,ThirtySecond,C#4
690,Right,0,68,89,103.0,0.989583,Quarter,G#4
689,Left,1,56,89,103.0,0.489583,Eighth,G#3
691,Right,0,79,86,103.25,0.239583,Sixteenth,G5
694,Right,0,77,83,103.5,0.239583,Sixteenth,F5
692,Left,1,56,83,103.5,0.489583,Eighth,G#3_F3
695,Right,0,75,81,103.75,0.239583,Sixteenth,D#5
698,Right,0,75,100,104.0,0.489583,Sixteenth,D#5_D#4
696,Left,1,55,100,104.0,0.489583,Eighth,G3_A#3
700,Right,0,73,100,104.25,0.239583,Sixteenth,C#5
701,Right,0,63,100,104.5,0.489583,Eighth,D#4_C#5
703,Left,1,60,100,104.5,0.489583,Eighth,G#3_C4
705,Right,0,72,100,104.75,0.239583,Sixteenth,C5
708,Left,1,51,100,105.0,0.989583,Quarter,D#3_C4
706,Right,0,75,100,105.0,0.739583,DottedEighth,D#5_D#4
710,Right,0,63,100,105.5,0.489583,Eighth,D#4
711,Left,1,56,100,105.75,0.239583,Sixteenth,G#3
712,Right,0,72,100,105.75,0.239583,Sixteenth,C5
714,Left,1,55,100,106.0,0.489583,Eighth,G3_D#3
713,Right,0,70,100,106.0,0.489583,ThirtySecond,D#4_A#4
717,Right,0,72,100,106.0625,0.114583,ThirtySecond,C5
718,Right,0,69,100,106.125,0.114583,ThirtySecond,A4
719,Right,0,70,100,106.1875,0.114583,ThirtySecond,A#4
720,Right,0,73,100,106.25,0.114583,ThirtySecond,C#5
721,Right,0,72,100,106.375,0.114583,ThirtySecond,C5
722,Right,0,75,100,106.5,0.114583,ThirtySecond,D#5
723,Right,0,73,100,106.625,0.114583,ThirtySecond,C#5
724,Right,0,72,100,106.75,0.114583,ThirtySecond,C5
725,Right,0,75,100,106.8125,0.114583,ThirtySecond,D#5
726,Right,0,73,100,106.875,0.114583,ThirtySecond,C#5
727,Right,0,70,100,106.9375,0.052083,SixtyFourth,A#4
728,Right,0,68,100,107.0,0.989583,Eighth,G#4_C4
730,Left,1,44,100,107.0,0.989583,Quarter,G#2
731,Left,1,51,100,107.25,0.239583,Sixteenth,D#3
732,Left,1,51,100,107.5,0.239583,Sixteenth,D#3
733,Right,0,70,100,107.5,0.239583,Sixteenth,A#4
734,Right,0,68,100,107.625,0.239583,Sixteenth,G#4
735,Left,1,51,100,107.75,0.239583,Sixteenth,D#3
736,Right,0,67,100,107.75,0.239583,Sixteenth,G4
737,Right,0,68,100,107.875,0.239583,Sixteenth,G#4
739,Left,1,43,100,108.0,0.989583,Quarter,G2
738,Right,0,72,100,108.0,0.989583,DottedEighth,C5_C#4
741,Left,1,51,100,108.25,0.239583,Sixteenth,D#3
742,Left,1,51,100,108.5,0.239583,Sixteenth,D#3
743,Left,1,51,100,108.75,0.239583,Sixteenth,D#3
744,Right,0,70,100,108.75,0.239583,Sixteenth,A#4
745,Right,0,68,100,109.0,0.989583,Quarter,G#4_C4
747,Left,1,44,100,109.0,0.15625,TripletSixteenth,G#2
748,Left,1,51,100,109.166667,0.15625,TripletSixteenth,D#3
749,Left,1,48,100,109.333333,0.15625,TripletSixteenth,C3
750,Left,1,56,100,109.5,0.15625,TripletSixteenth,G#3
751,Left,1,51,100,109.666667,0.15625,TripletSixteenth,D#3
752,Left,1,60,100,109.833333,0.15625,TripletSixteenth,C4
753,Left,1,56,100,110.0,0.15625,TripletSixteenth,G#3
754,Left,1,63,100,110.166667,0.15625,TripletSixteenth,D#4
755,Left,1,61,100,110.333333,0.15625,TripletSixteenth,C#4
756,Left,1,60,100,110.5,0.15625,TripletSixteenth,C4
757,Left,1,58,100,110.666667,0.15625,TripletSixteenth,A#3
758,Left,1,56,100,110.833333,0.15625,TripletSixteenth,G#3
759,Left,1,55,100,111.0,0.989583,Quarter,G3
760,Right,0,70,100,111.0,0.989583,Eighth,D#4_A#4
762,Left,1,51,100,111.25,0.239583,Sixteenth,D#3
763,Left,1,51,100,111.5,0.239583,Sixteenth,D#3
764,Right,0,72,100,111.5,0.239583,Sixteenth,C5
765,Right,0,70,100,111.625,0.239583,Sixteenth,A#4
766,Right,0,69,100,111.75,0.239583,Sixteenth,A4
767,Left,1,51,100,111.75,0.239583,Sixteenth,D#3
768,Right,0,70,100,111.875,0.239583,Sixteenth,A#4
769,Right,0,73,100,112.0,0.989583,Quarter,G#4_D#4_C#5
772,Left,1,56,100,112.0,0.989583,Quarter,G#3
773,Left,1,51,100,112.25,0.239583,Sixteenth,D#3
774,Left,1,51,100,112.5,0.239583,Sixteenth,D#3
775,Left,1,51,100,112.75,0.239583,Sixteenth,D#3
776,Right,0,72,100,112.75,0.239583,Sixteenth,C5
777,Left,1,39,100,113.0,0.15625,TripletSixteenth,D#2
778,Right,0,67,100,113.0,0.989583,Quarter,G4_D#4_A#4
781,Left,1,43,100,113.166667,0.15625,TripletSixteenth,G2
782,Left,1,46,100,113.333333,0.15625,TripletSixteenth,A#2
783,Left,1,51,100,113.5,0.15625,TripletSixteenth,D#3
784,Left,1,55,100,113.666667,0.15625,TripletSixteenth,G3
785,Left,1,58,100,113.833333,0.15625,TripletSixteenth,A#3
786,Left,1,61,100,114.0,0.15625,TripletSixteenth,C#4
787,Left,1,65,100,114.166667,0.15625,TripletSixteenth,F4
788,Left,1,63,100,114.333333,0.15625,TripletSixteenth,D#4
789,Left,1,61,100,114.5,0.15625,TripletSixteenth,C#4
790,Left,1,60,100,114.666667,0.15625,TripletSixteenth,C4
791,Left,1,58,100,114.833333,0.15625,TripletSixteenth,A#3
792,Left,1,56,100,115.0,0.15625,TripletSixteenth,G#3
793,Right,0,63,100,115.0,0.052083,SixtyFourth,D#4
794,Right,0,72,100,115.0625,0.802083,DottedEighth,C5
795,Left,1,63,101,115.166667,0.15625,TripletSixteenth,D#4
796,Left,1,60,102,115.333333,0.15625,TripletSixteenth,C4
797,Left,1,56,103,115.5,0.15625,TripletSixteenth,G#3
798,Left,1,51,105,115.666667,0.15625,TripletSixteenth,D#3
799,Left,1,48,106,115.833333,0.15625,TripletSixteenth,C3
800,Right,0,68,106,115.875,0.114583,ThirtySecond,G#4
801,Right,0,63,107,116.0,0.052083,SixtyFourth,D#4
802,Right,0,75,108,116.0625,0.802083,DottedEighth,D#5
803,Left,1,60,108,116.166667,0.15625,TripletSixteenth,C4
804,Left,1,56,110,116.333333,0.15625,TripletSixteenth,G#3
805,Left,1,51,111,116.5,0.15625,TripletSixteenth,D#3
806,Left,1,48,112,116.666667,0.15625,TripletSixteenth,C3
807,Left,1,44,113,116.833333,0.15625,TripletSixteenth,G#2
808,Right,0,72,114,116.875,0.114583,ThirtySecond,C5
809,Right,0,65,110,117.0,1.65625,DottedQuarter,F4
810,Right,0,77,110,117.125,1.53125,DottedQuarter,F5
811,Left,1,49,100,117.166667,1.822917,Half,C#3
812,Left,1,51,100,117.333333,0.15625,TripletSixteenth,D#3
813,Left,1,53,100,117.5,0.15625,TripletSixteenth,F3
814,Left,1,54,98,117.666667,0.15625,TripletSixteenth,F#3
815,Left,1,55,96,117.833333,0.15625,TripletSixteenth,G3
816,Left,1,56,93,118.0,0.15625,TripletSixteenth,G#3
817,Left,1,57,91,118.166667,0.15625,TripletSixteenth,A3
818,Left,1,58,88,118.333333,0.15625,TripletSixteenth,A#3
819,Left,1,59,86,118.5,0.15625,TripletSixteenth,B3
820,Left,1,60,83,118.666667,0.15625,TripletSixteenth,C4
821,Right,0,69,83,118.666667,0.15625,TripletSixteenth,D#5_A4
824,Right,0,70,81,118.833333,0.15625,TripletSixteenth,C#5_A#4
823,Left,1,61,81,118.833333,0.15625,TripletSixteenth,C#4
826,Left,1,51,80,119.0,0.989583,Quarter,D#3
827,Right,0,72,80,119.0,0.989583,Eighth,G#4_C5
829,Left,1,63,80,119.166667,0.15625,TripletSixteenth,D#4
830,Left,1,62,80,119.333333,0.15625,TripletSixteenth,D4
831,Right,0,75,80,119.5,0.489583,Eighth,D#5
832,Left,1,61,80,119.666667,0.15625,TripletSixteenth,C#4
833,Left,1,60,80,119.833333,0.15625,TripletSixteenth,C4
834,Right,0,73,80,120.0,0.989583,Eighth,G4_C#5
836,Left,1,51,80,120.0,0.989583,Quarter,D#3
837,Left,1,58,80,120.166667,0.15625,TripletSixteenth,A#3
838,Left,1,60,80,120.333333,0.15625,TripletSixteenth,C4
839,Right,0,70,80,120.5,0.489583,Eighth,A#4
840,Left,1,61,80,120.666667,0.15625,TripletSixteenth,C#4
841,Left,1,55,80,120.833333,0.15625,TripletSixteenth,G3
842,Left,1,55,80,121.0,1.489583,Quarter,G3_G#2
843,Right,0,70,80,121.0,0.989583,Quarter,C#4_A#4
846,Right,0,60,80,121.625,0.114583,ThirtySecond,C4
847,Right,0,61,80,121.6875,0.114583,ThirtySecond,C#4
848,Right,0,63,80,121.75,0.114583,ThirtySecond,D#4
849,Right,0,61,80,121.8125,0.114583,ThirtySecond,C#4
850,Right,0,60,80,121.875,0.114583,ThirtySecond,C4
851,Right,0,61,80,121.9375,0.114583,ThirtySecond,C#4
852,Right,0,60,80,122.0,0.489583,Eighth,G#4_C4
854,Left,1,56,80,122.0,0.489583,Eighth,G#3
859,Right,0,77,120,123.0,0.114583,ThirtySecond,F5
855,Left,1,57,120,123.0,0.989583,Quarter,F4_D#4_C4_A3
860,Right,0,89,120,123.125,0.427083,DottedSixteenth,F6
861,Right,0,87,120,123.5625,0.114583,ThirtySecond,D#6
862,Right,0,84,120,123.625,0.114583,ThirtySecond,C6
863,Right,0,81,120,123.6875,0.114583,ThirtySecond,A5
864,Right,0,77,120,123.75,0.114583,ThirtySecond,F5
865,Right,0,75,120,123.8125,0.114583,ThirtySecond,D#5
866,Right,0,72,120,123.875,0.114583,ThirtySecond,C5
867,Right,0,69,120,123.9375,0.114583,ThirtySecond,A4
868,Right,0,65,120,124.0,0.489583,Eighth,F4
869,Left,1,45,80,124.875,0.114583,ThirtySecond,F3_A2
871,Right,0,60,80,124.875,0.114583,ThirtySecond,D#4_C4
873,Right,0,63,80,125.0,0.989583,Quarter,D#4_C4
875,Left,1,46,80,125.0,1.489583,DottedQuarter,F3_A#2
877,Right,0,61,80,126.0,0.489583,Eighth,C#4_A#3
882,Right,0,75,120,127.0,0.114583,ThirtySecond,D#5
879,Left,1,55,120,127.0,0.989583,Quarter,G3_D#4_C#4_A#3
884,Right,0,87,120,127.125,0.427083,DottedSixteenth,D#6
885,Right,0,85,120,127.5625,0.114583,ThirtySecond,C#6
886,Right,0,82,120,127.625,0.114583,ThirtySecond,A#5
887,Right,0,79,120,127.6875,0.114583,ThirtySecond,G5
888,Right,0,75,120,127.75,0.114583,ThirtySecond,D#5
889,Right,0,73,120,127.8125,0.114583,ThirtySecond,C#5
890,Right,0,70,120,127.875,0.114583,ThirtySecond,A#4
891,Right,0,67,120,127.9375,0.114583,ThirtySecond,G4
892,Right,0,63,120,128.0,0.489583,Eighth,D#4
893,Right,0,61,80,128.875,0.114583,ThirtySecond,C#4_A#3
894,Left,1,51,80,128.875,0.114583,ThirtySecond,G2_D#3
897,Right,0,61,80,129.0,0.989583,Quarter,C#4_A#3
899,Left,1,51,80,129.0,1.489583,DottedQuarter,G#2_D#3
901,Right,0,56,80,130.0,0.489583,Eighth,G#3_B3
903,Left,1,47,100,131.0,0.114583,ThirtySecond,B2
904,Left,1,59,100,131.125,0.489583,Eighth,B3
905,Left,1,59,100,131.625,0.114583,ThirtySecond,B3
906,Left,1,56,100,131.6875,0.114583,ThirtySecond,G#3
907,Left,1,52,100,131.75,0.114583,ThirtySecond,E3
908,Left,1,47,100,131.8125,0.114583,ThirtySecond,B2
909,Left,1,44,100,131.875,0.114583,ThirtySecond,G#2
910,Left,1,40,100,131.9375,0.114583,ThirtySecond,E2
911,Left,1,35,100,132.0,0.489583,Eighth,B1
912,Right,0,64,100,132.875,0.114583,ThirtySecond,G#3_E4_E3
915,Left,1,35,100,132.875,0.114583,ThirtySecond,B2_B1
918,Left,1,35,100,133.0,1.489583,DottedQuarter,B2_B1
917,Right,0,64,100,133.0,1.489583,DottedQuarter,F#3_E4_A3
922,Right,0,63,100,134.0,0.489583,Eighth,D#4
925,Left,1,35,100,134.875,0.114583,ThirtySecond,B2_B1
923,Right,0,63,100,134.875,0.114583,ThirtySecond,G#3_F3_D#4
928,Left,1,47,100,135.0,0.989583,Quarter,B2_B1
930,Right,0,63,100,135.0,1.489583,DottedQuarter,G#3_F3_D#4
934,Left,1,46,100,136.0,0.489583,Eighth,A#2_A#1
933,Right,0,62,100,136.0,0.489583,Eighth,D4
939,Left,1,34,100,136.875,0.114583,ThirtySecond,A#2_A#1
936,Right,0,56,100,136.875,0.114583,ThirtySecond,G#3_F3_D4
943,Right,0,62,100,137.0,0.989583,Quarter,G#3_F3_D4
941,Left,1,34,100,137.0,0.989583,Quarter,A#2_A#1
946,Right,0,61,80,138.0,0.239583,Sixteenth,G3_C#4_A#3
947,Left,1,39,80,138.0,0.489583,Eighth,D#3_D#2
951,Right,0,69,80,138.25,0.239583,Sixteenth,A4
952,Right,0,70,80,138.5,0.239583,Sixteenth,A#4
953,Right,0,72,80,138.75,0.239583,Sixteenth,C5
954,Right,0,73,80,139.0,0.239583,Sixteenth,C#5
955,Right,0,78,80,139.25,0.239583,Sixteenth,F#5
956,Right,0,79,80,139.5,0.239583,Sixteenth,G5
957,Right,0,81,80,139.75,0.239583,Sixteenth,A5
958,Right,0,82,80,140.0,0.239583,Sixteenth,A#5
959,Right,0,84,80,140.25,0.239583,Sixteenth,C6
960,Right,0,85,80,140.5,0.239583,Sixteenth,C#6
961,Right,0,82,80,140.75,0.239583,Sixteenth,A#5
962,Left,1,63,70,141.0,0.489583,Eighth,D#4_C#4
963,Right,0,79,70,141.0,1.239583,TiedQuarter-Sixteenth,G5
965,Left,1,61,70,141.5,0.489583,Eighth,D#4_C#4
967,Left,1,61,70,142.0,0.489583,Eighth,D#4_C#4
969,Right,0,80,70,142.25,0.114583,ThirtySecond,G#5
970,Right,0,79,70,142.3125,0.114583,ThirtySecond,G5
971,Right,0,77,70,142.375,0.114583,ThirtySecond,F5
972,Right,0,79,70,142.4375,0.114583,ThirtySecond,G5
973,Right,0,80,70,142.5,0.364583,DottedSixteenth,G#5
974,Left,1,61,70,142.5,0.489583,Eighth,D#4_C#4
976,Right,0,82,70,142.875,0.114583,ThirtySecond,A#5
978,Left,1,60,70,143.0,0.489583,Eighth,D#4_C4
977,Right,0,82,70,143.0,0.489583,Eighth,A#5
980,Right,0,80,70,143.5,0.989583,Quarter,G#5
981,Left,1,60,70,143.5,0.489583,Eighth,D#4_C4
983,Left,1,60,70,144.0,0.489583,Eighth,D#4_C4
987,Right,0,81,70,144.5,0.489583,Eighth,A5
985,Left,1,60,70,144.5,0.489583,Eighth,D#4_C4
988,Left,1,61,70,145.0,0.489583,Eighth,G3_D#4_C#4
989,Right,0,82,70,145.0,1.239583,TiedQuarter-Sixteenth,A#5
992,Left,1,61,70,145.5,0.489583,Eighth,G3_D#4_C#4
995,Left,1,63,70,146.0,0.489583,Eighth,G3_D#4_C#4
998,Right,0,84,70,146.25,0.114583,ThirtySecond,C6
999,Right,0,82,70,146.3125,0.114583,ThirtySecond,A#5
1000,Right,0,81,70,146.375,0.114583,ThirtySecond,A5
1001,Right,0,82,70,146.4375,0.114583,ThirtySecond,A#5
1002,Left,1,63,70,146.5,0.489583,Eighth,G3_D#4_C4
1005,Right,0,84,70,146.5,0.364583,DottedSixteenth,C6
1007,Left,1,58,70,146.875,0.114583,ThirtySecond,A#3
1006,Right,0,85,70,146.875,0.114583,ThirtySecond,C#6
1009,Right,0,85,70,147.0,0.489583,Eighth,C#6
1008,Left,1,56,70,147.0,0.489583,Eighth,G#3_D#4_B3
1012,Right,0,84,70,147.5,0.239583,Sixteenth,C6
1013,Left,1,56,70,147.5,0.489583,Eighth,G#3_D#4_C4
1016,Left,1,63,70,148.0,0.489583,Eighth,G#3_D#4_C4
1019,Left,1,63,70,148.5,0.489583,Eighth,G#3_D#4_C4
1022,Left,1,61,70,149.0,0.739583,DottedEighth,D#4_C#4
1024,Right,0,67,70,149.0625,0.114583,ThirtySecond,G4
1025,Right,0,68,70,149.125,0.114583,ThirtySecond,G#4
1026,Right,0,70,70,149.1875,0.114583,ThirtySecond,A#4
1027,Right,0,68,70,149.25,0.114583,ThirtySecond,G#4
1028,Right,0,67,70,149.3125,0.114583,ThirtySecond,G4
1029,Right,0,73,70,149.375,0.114583,ThirtySecond,C#5
1030,Right,0,72,70,149.4375,0.114583,ThirtySecond,C5
1031,Right,0,70,70,149.5,0.114583,ThirtySecond,A#4
1032,Right,0,77,70,149.5625,0.114583,ThirtySecond,F5
1033,Right,0,75,70,149.625,0.114583,ThirtySecond,D#5
1034,Right,0,73,70,149.6875,0.114583,ThirtySecond,C#5
1035,Left,1,63,70,149.75,0.739583,DottedEighth,D#4_C#4
1037,Right,0,82,70,149.75,0.114583,ThirtySecond,A#5
1038,Right,0,80,70,149.8125,0.114583,ThirtySecond,G#5
1039,Right,0,79,70,149.875,0.114583,ThirtySecond,G5
1040,Right,0,85,70,149.9375,0.114583,ThirtySecond,C#6
1041,Right,0,84,70,150.0,0.114583,ThirtySecond,C6
1042,Right,0,82,70,150.0625,0.114583,ThirtySecond,A#5
1043,Right,0,89,70,150.125,0.989583,Quarter,F6
1044,Left,1,63,70,150.5,0.489583,Eighth,D#4_C#4
1046,Left,1,61,70,151.0,0.489583,Eighth,D#4_C#4
1048,Right,0,89,70,151.1875,0.114583,ThirtySecond,F6
1049,Right,0,87,70,151.25,0.114583,ThirtySecond,D#6
1050,Right,0,85,70,151.3125,0.114583,ThirtySecond,C#6
1051,Right,0,84,70,151.375,0.114583,ThirtySecond,C6
1052,Right,0,82,70,151.4375,0.114583,ThirtySecond,A#5
1053,Right,0,80,70,151.5,0.114583,ThirtySecond,G#5
1054,Right,0,79,70,151.5625,0.052083,SixtyFourth,G5
1055,Right,0,82,70,151.625,0.364583,DottedSixteenth,A#5
1056,Right,0,80,70,151.875,0.114583,ThirtySecond,G#5
1057,Right,0,79,70,152.0,0.177083,TripletSixteenth,G5
1058,Left,1,63,70,152.0,0.489583,Eighth,D#4_C4
1060,Right,0,80,70,152.1875,0.083333,TripletThirtySecond,G#5
1061,Right,0,82,70,152.25,0.177083,TripletSixteenth,A#5
1062,Right,0,80,70,152.4375,0.052083,SixtyFourth,G#5
1065,Right,0,68,70,152.5,0.489583,Eighth,G#4
1063,Left,1,63,70,152.5,0.489583,Eighth,D#4_C4
1066,Left,1,63,70,153.0,0.489583,Eighth,D#4_C4
1068,Left,1,55,70,153.5,0.739583,DottedEighth,G3_D#4_C#4
1071,Right,0,70,70,153.5625,0.114583,ThirtySecond,A#4
1072,Right,0,72,70,153.625,0.114583,ThirtySecond,C5
1073,Right,0,73,70,153.6875,0.114583,ThirtySecond,C#5
1074,Right,0,72,70,153.75,0.114583,ThirtySecond,C5
1075,Right,0,70,70,153.8125,0.114583,ThirtySecond,A#4
1076,Right,0,77,70,153.875,0.114583,ThirtySecond,F5
1077,Right,0,75,70,153.9375,0.114583,ThirtySecond,D#5
1078,Right,0,73,70,154.0,0.114583,ThirtySecond,C#5
1079,Right,0,82,70,154.0625,0.114583,ThirtySecond,A#5
1080,Right,0,80,70,154.125,0.114583,ThirtySecond,G#5
1081,Right,0,79,70,154.1875,0.114583,ThirtySecond,G5
1082,Right,0,85,70,154.25,1.052083,DottedEighth,C#6
1083,Left,1,63,70,154.25,0.489583,Eighth,G3_D#4_C#4
1086,Left,1,55,70,154.75,0.489583,DottedSixteenth,G3_D#4_C#4_A#3
1090,Left,1,63,70,155.25,0.739583,DottedEighth,G3_D#4_C#4_A#3
1094,Right,0,84,70,155.3125,0.114583,ThirtySecond,C6
1095,Right,0,85,70,155.375,0.114583,ThirtySecond,C#6
1096,Right,0,87,70,155.4375,0.114583,ThirtySecond,D#6
1097,Right,0,85,70,155.5,0.114583,ThirtySecond,C#6
1098,Right,0,84,70,155.5625,0.114583,ThirtySecond,C6
1099,Right,0,82,70,155.625,0.114583,ThirtySecond,A#5
1100,Right,0,80,70,155.6875,0.114583,ThirtySecond,G#5
1101,Right,0,79,70,155.75,0.114583,ThirtySecond,G5
1102,Right,0,77,70,155.8125,0.114583,ThirtySecond,F5
1103,Right,0,75,70,155.875,0.114583,ThirtySecond,D#5
1104,Right,0,73,70,155.9375,0.052083,SixtyFourth,C#5
1105,Right,0,72,70,156.0,0.739583,DottedEighth,C5
1106,Left,1,63,70,156.5,0.489583,Eighth,G#3_D#4_C4
1109,Right,0,72,70,156.875,0.114583,ThirtySecond,C5
1110,Right,0,73,70,157.0,0.739583,DottedEighth,C#5
1111,Left,1,58,70,157.5,0.489583,Eighth,G4_D#4_C#4_A#3
1115,Right,0,73,70,157.875,0.114583,ThirtySecond,C#5
1116,Right,0,75,80,158.0,0.739583,DottedEighth,D#5
1117,Left,1,63,83,158.5,0.489583,Eighth,G#4_D#4_C4
1120,Right,0,75,86,158.875,0.114583,ThirtySecond,D#5
1121,Right,0,76,87,159.0,0.739583,DottedEighth,E5
1122,Left,1,68,91,159.5,0.489583,Eighth,G#4_E4_C4
1125,Right,0,76,94,159.875,0.114583,ThirtySecond,E5
1126,Right,0,77,95,160.0,0.739583,DottedEighth,F5
1127,Left,1,68,99,160.5,0.489583,Eighth,G#4_F4_C#4
1130,Right,0,77,102,160.875,0.114583,ThirtySecond,F5
1131,Right,0,79,103,161.0,0.739583,DottedEighth,G5
1132,Left,1,61,107,161.5,0.489583,Eighth,G4_E4_C#4_A#4
1136,Right,0,79,109,161.875,0.114583,ThirtySecond,G5
1137,Right,0,80,100,162.0,0.739583,DottedEighth,G#5
1138,Left,1,62,100,162.5,0.489583,Eighth,G#4_F4_D4_B4
1142,Right,0,82,110,162.75,0.114583,ThirtySecond,A#5
1143,Right,0,80,110,162.8125,0.114583,ThirtySecond,G#5
1144,Right,0,79,110,162.875,0.114583,ThirtySecond,G5
1145,Right,0,80,110,162.9375,0.114583,ThirtySecond,G#5
1146,Right,0,82,110,163.0,0.239583,Sixteenth,A#5
1147,Right,0,80,100,163.25,0.239583,Sixteenth,G#5
1148,Right,0,79,91,163.5,0.239583,Sixteenth,G5
1149,Right,0,77,81,163.75,0.239583,Sixteenth,F5
1150,Right,0,75,80,164.0,0.239583,Sixteenth,D#5
1151,Right,0,74,80,164.25,0.239583,Sixteenth,D5
1152,Right,0,77,80,164.5,0.239583,Sixteenth,F5
1153,Left,1,51,80,164.5,0.489583,Eighth,G#3_D#3_C4
1156,Right,0,75,80,164.75,0.239583,Sixteenth,D#5
1157,Right,0,73,80,165.0,0.239583,Sixteenth,C#5
1158,Right,0,72,80,165.25,0.239583,Sixteenth,C5
1162,Right,0,70,80,165.5,0.239583,Sixteenth,A#4
1159,Left,1,51,80,165.5,0.489583,Eighth,G3_D#3_C#4
1163,Right,0,75,80,165.75,0.239583,Sixteenth,D#5
1164,Right,0,71,70,166.0,0.15625,TripletSixteenth,B4
1165,Right,0,72,70,166.166667,0.15625,TripletSixteenth,C5
1167,Right,0,60,70,166.333333,0.15625,TripletSixteenth,C4
1166,Left,1,56,70,166.333333,0.15625,TripletSixteenth,G#3
1168,Left,1,51,70,166.5,0.15625,TripletSixteenth,D#3
1169,Left,1,48,70,166.666667,0.15625,TripletSixteenth,C3
1170,Right,0,72,70,166.666667,0.15625,TripletSixteenth,C5
1171,Left,1,44,70,166.833333,0.15625,TripletSixteenth,G#2
1172,Right,0,60,70,166.833333,0.15625,TripletSixteenth,C4
1173,Right,0,72,70,167.0,0.15625,TripletSixteenth,C5
1174,Right,0,73,70,167.166667,0.15625,TripletSixteenth,C#5
1175,Right,0,61,70,167.333333,0.15625,TripletSixteenth,C#4
1176,Left,1,58,70,167.333333,0.15625,TripletSixteenth,A#3
1177,Left,1,55,70,167.5,0.15625,TripletSixteenth,G3
1178,Left,1,51,70,167.666667,0.15625,TripletSixteenth,D#3
1179,Right,0,73,70,167.666667,0.15625,TripletSixteenth,C#5
1181,Right,0,61,70,167.833333,0.15625,TripletSixteenth,C#4
1180,Left,1,46,70,167.833333,0.15625,TripletSixteenth,A#2
1182,Right,0,74,70,168.0,0.15625,TripletSixteenth,D5
1183,Right,0,75,71,168.166667,0.15625,TripletSixteenth,D#5
1184,Left,1,60,73,168.333333,0.15625,TripletSixteenth,C4
1185,Right,0,63,73,168.333333,0.15625,TripletSixteenth,D#4
1186,Left,1,56,75,168.5,0.15625,TripletSixteenth,G#3
1187,Right,0,75,76,168.666667,0.15625,TripletSixteenth,D#5
1188,Left,1,51,76,168.666667,0.15625,TripletSixteenth,D#3
1189,Left,1,48,78,168.833333,0.15625,TripletSixteenth,C3
1190,Right,0,63,78,168.833333,0.15625,TripletSixteenth,D#4
1191,Right,0,75,80,169.0,0.15625,TripletSixteenth,D#5
1192,Right,0,76,82,169.166667,0.15625,TripletSixteenth,E5
1193,Left,1,60,83,169.333333,0.15625,TripletSixteenth,C4
1194,Right,0,64,83,169.333333,0.15625,TripletSixteenth,E4
1195,Left,1,56,85,169.5,0.15625,TripletSixteenth,G#3
1197,Left,1,52,87,169.666667,0.15625,TripletSixteenth,E3
1196,Right,0,76,87,169.666667,0.15625,TripletSixteenth,E5
1199,Right,0,64,89,169.833333,0.15625,TripletSixteenth,E4
1198,Left,1,48,89,169.833333,0.15625,TripletSixteenth,C3
1200,Right,0,76,90,170.0,0.15625,TripletSixteenth,E5
1201,Right,0,77,92,170.166667,0.15625,TripletSixteenth,F5
1203,Left,1,61,94,170.333333,0.15625,TripletSixteenth,C#4
1202,Right,0,65,94,170.333333,0.15625,TripletSixteenth,F4
1204,Left,1,56,96,170.5,0.15625,TripletSixteenth,G#3
1205,Left,1,53,97,170.666667,0.15625,TripletSixteenth,F3
1206,Right,0,77,97,170.666667,0.15625,TripletSixteenth,F5
1208,Right,0,65,99,170.833333,0.15625,TripletSixteenth,F4
1207,Left,1,49,99,170.833333,0.15625,TripletSixteenth,C#3
1209,Right,0,78,101,171.0,0.15625,TripletSixteenth,F#5
1210,Right,0,79,102,171.166667,0.15625,TripletSixteenth,G5
1211,Left,1,61,104,171.333333,0.15625,TripletSixteenth,C#4
1212,Right,0,67,104,171.333333,0.15625,TripletSixteenth,G4
1213,Left,1,58,106,171.5,0.15625,TripletSixteenth,A#3
1215,Right,0,79,108,171.666667,0.15625,TripletSixteenth,G5
1214,Left,1,55,108,171.666667,0.15625,TripletSixteenth,G3
1217,Right,0,67,109,171.833333,0.15625,TripletSixteenth,G4
1216,Left,1,51,109,171.833333,0.15625,TripletSixteenth,D#3
1218,Right,0,79,110,172.0,0.15625,TripletSixteenth,G5
1219,Right,0,80,110,172.166667,0.15625,TripletSixteenth,G#5
1221,Right,0,68,110,172.333333,0.15625,TripletSixteenth,G#4
1220,Left,1,62,110,172.333333,1.65625,DottedQuarter,D4
1222,Left,1,59,111,172.5,1.489583,DottedQuarter,B3
1223,Right,0,80,111,172.666667,0.15625,TripletSixteenth,G#5
1224,Left,1,56,111,172.666667,1.322917,TiedQuarter-Sixteenth,G#3
1225,Right,0,68,112,172.833333,0.15625,TripletSixteenth,G#4
1226,Left,1,52,112,172.833333,1.15625,TiedQuarter-ThirtySecond,E3
1227,Right,0,83,112,173.0,0.15625,TripletSixteenth,B5
1228,Right,0,71,112,173.166667,0.15625,TripletSixteenth,B4
1229,Right,0,83,113,173.333333,0.15625,TripletSixteenth,B5
1230,Right,0,68,113,173.5,0.15625,TripletSixteenth,G#4
1231,Right,0,80,114,173.666667,0.15625,TripletSixteenth,G#5
1232,Right,0,68,114,173.833333,0.15625,TripletSixteenth,G#4
1233,Right,0,75,100,174.0,0.489583,Eighth,D#5
1234,Left,1,51,100,174.166667,0.15625,TripletSixteenth,D#3
1235,Left,1,56,100,174.333333,0.15625,TripletSixteenth,G#3
1236,Left,1,60,100,174.5,0.15625,TripletSixteenth,C4
1237,Left,1,63,100,174.666667,0.15625,TripletSixteenth,D#4
1238,Left,1,68,100,174.833333,0.15625,TripletSixteenth,G#4
1239,Left,1,72,100,175.0,0.15625,TripletSixteenth,C5
1241,Right,0,86,100,175.166667,0.15625,TripletSixteenth,D6
1240,Left,1,71,100,175.166667,0.15625,TripletSixteenth,B4
1243,Right,0,89,100,175.333333,0.15625,TripletSixteenth,F6
1242,Left,1,73,100,175.333333,0.15625,TripletSixteenth,C#5
1244,Right,0,87,100,175.5,0.15625,TripletSixteenth,D#6
1245,Left,1,72,100,175.5,0.15625,TripletSixteenth,C5
1247,Left,1,70,100,175.666667,0.15625,TripletSixteenth,A#4
1246,Right,0,85,100,175.666667,0.15625,TripletSixteenth,C#6
1249,Left,1,68,100,175.833333,0.15625,TripletSixteenth,G#4
1248,Right,0,84,100,175.833333,0.15625,TripletSixteenth,C6
1252,Right,0,80,100,176.0,0.989583,Quarter,G#5_A#5
1250,Left,1,73,100,176.0,1.989583,Half,C#5_C#4
1254,Right,0,82,100,176.75,0.114583,ThirtySecond,A#5
1255,Right,0,84,100,176.8125,0.114583,ThirtySecond,C6
1256,Right,0,81,100,176.875,0.114583,ThirtySecond,A5
1257,Right,0,82,100,176.9375,0.114583,ThirtySecond,A#5
1258,Right,0,87,100,177.0,0.989583,DottedEighth,G5_D#6
1260,Right,0,87,100,177.875,0.114583,ThirtySecond,D#6
1261,Right,0,80,100,178.0,0.489583,Eighth,G#5_C5
1263,Left,1,39,100,178.166667,0.15625,TripletSixteenth,D#2
1264,Left,1,44,100,178.333333,0.15625,TripletSixteenth,G#2
1265,Left,1,48,100,178.5,0.15625,TripletSixteenth,C3
1266,Left,1,51,100,178.666667,0.15625,TripletSixteenth,D#3
1267,Left,1,56,100,178.833333,0.15625,TripletSixteenth,G#3
1268,Left,1,60,100,179.0,0.15625,TripletSixteenth,C4
1269,Left,1,59,100,179.166667,0.15625,TripletSixteenth,B3
1270,Right,0,74,100,179.166667,0.15625,TripletSixteenth,D5
1272,Left,1,61,100,179.333333,0.15625,TripletSixteenth,C#4
1271,Right,0,77,100,179.333333,0.15625,TripletSixteenth,F5
1273,Left,1,60,100,179.5,0.15625,TripletSixteenth,C4
1274,Right,0,75,100,179.5,0.15625,TripletSixteenth,D#5
1275,Left,1,58,100,179.666667,0.15625,TripletSixteenth,A#3
1276,Right,0,73,100,179.666667,0.15625,TripletSixteenth,C#5
1277,Left,1,56,100,179.833333,0.15625,TripletSixteenth,G#3
1278,Right,0,72,100,179.833333,0.15625,TripletSixteenth,C5
1279,Left,1,61,100,180.0,1.989583,Half,C#4_C#3
1281,Right,0,68,100,180.0,0.989583,Quarter,G#4_A#4
1283,Right,0,70,100,180.75,0.114583,ThirtySecond,A#4
1284,Right,0,72,100,180.8125,0.114583,ThirtySecond,C5
1285,Right,0,69,100,180.875,0.114583,ThirtySecond,A4
1286,Right,0,70,100,180.9375,0.114583,ThirtySecond,A#4
1287,Right,0,67,100,181.0,0.989583,Quarter,G4_D#5
1289,Right,0,75,100,181.875,0.114583,ThirtySecond,D#5
1292,Left,1,56,100,182.0,0.489583,Eighth,G#3
1290,Right,0,68,100,182.0,0.989583,Sixteenth,G#4_D#4_C4
1294,Right,0,60,80,182.25,0.489583,Eighth,D#4_C4
1296,Left,1,51,80,182.5,0.489583,Eighth,D#3
1297,Right,0,63,80,182.75,0.239583,Sixteenth,D#4_C4
1302,Left,1,55,80,183.0,0.489583,Eighth,G3
1299,Right,0,63,80,183.0,0.739583,Sixteenth,D#4_C5_C#4
1303,Right,0,63,80,183.25,0.489583,Eighth,D#4_C#4
1305,Left,1,51,80,183.5,0.489583,Eighth,D#3
1306,Right,0,63,80,183.75,0.239583,Sixteenth,D#4_C#4_A#4
1310,Left,1,56,80,184.0,0.489583,Eighth,G#3
1309,Right,0,63,80,184.0,1.739583,Sixteenth,G#4_D#4_C4
1313,Right,0,60,80,184.25,0.489583,Eighth,D#4_C4
1315,Left,1,51,80,184.5,0.489583,Eighth,D#3
1316,Right,0,60,80,184.75,0.489583,Eighth,D#4_C4
1318,Left,1,48,80,185.0,0.489583,Eighth,C3
1319,Right,0,63,80,185.25,0.489583,Eighth,D#4_C4
1321,Left,1,44,80,185.5,0.489583,Eighth,G#2
1322,Right,0,63,80,185.75,0.239583,Sixteenth,D#4_C4_A4
1325,Right,0,70,80,186.0,0.489583,Sixteenth,D#4_C#4_A#4
1328,Left,1,43,80,186.0,0.489583,Eighth,G2
1329,Right,0,63,80,186.25,0.489583,Eighth,D#4
1331,Left,1,39,80,186.5,0.489583,Eighth,D#2
1330,Right,0,72,80,186.5,0.239583,Sixteenth,C5
1332,Right,0,70,80,186.625,0.239583,Sixteenth,A#4
1333,Right,0,69,80,186.75,0.489583,Sixteenth,D#4_A4
1335,Right,0,70,80,186.875,0.239583,Sixteenth,A#4
1336,Right,0,68,80,187.0,0.739583,DottedEighth,G#4_C#5
1337,Left,1,44,80,187.0,0.489583,Eighth,G#2
1339,Right,0,63,80,187.25,0.489583,Eighth,D#4
1340,Left,1,48,80,187.5,0.489583,Eighth,C3
1341,Right,0,72,80,187.75,0.489583,Sixteenth,G#4_D#4_C5
1344,Right,0,70,80,188.0,1.989583,Half,G4_A#4
1346,Left,1,51,80,188.0,0.489583,Eighth,D#3
1347,Right,0,63,80,188.25,0.489583,Eighth,D#4
1348,Left,1,53,80,188.5,0.489583,Eighth,F3
1349,Right,0,63,80,188.75,0.489583,Eighth,D#4
1350,Left,1,51,80,189.0,1.489583,DottedQuarter,D#3
1351,Right,0,63,80,189.25,0.489583,Eighth,D#4
1352,Left,1,49,80,189.5,0.489583,Eighth,C#3
1353,Right,0,63,80,189.75,0.489583,Eighth,D#4
1355,Right,0,75,80,190.0,0.989583,Quarter,D#5
1354,Left,1,48,80,190.0,0.989583,Quarter,C3
1356,Right,0,63,80,190.25,0.489583,Eighth,D#4
1357,Left,1,56,80,190.5,0.989583,Quarter,G#3
1358,Right,0,63,80,190.75,0.489583,Eighth,D#4
1359,Right,0,73,80,191.0,0.989583,Quarter,C#5
1360,Left,1,46,80,191.0,0.989583,Quarter,A#2
1361,Right,0,63,80,191.25,0.489583,Eighth,D#4
1362,Left,1,55,80,191.5,0.989583,Quarter,G3
1363,Right,0,63,80,191.75,0.489583,Eighth,D#4
1365,Right,0,72,80,192.0,0.989583,Quarter,C5
1364,Left,1,44,80,192.0,0.989583,Quarter,G#2
1366,Right,0,63,80,192.25,0.489583,Eighth,D#4
1367,Left,1,56,80,192.5,0.989583,Quarter,G#3
1368,Right,0,64,80,192.75,0.489583,Eighth,E4
1369,Left,1,49,80,193.0,0.989583,Quarter,C#3
1370,Right,0,70,80,193.0,0.489583,Eighth,A#4
1371,Right,0,65,80,193.25,0.489583,Eighth,F4
1372,Right,0,73,80,193.5,0.364583,DottedSixteenth,C#5
1373,Left,1,58,80,193.5,0.239583,Sixteenth,A#3
1374,Left,1,61,80,193.75,0.239583,Sixteenth,C#4
1375,Right,0,65,80,193.75,0.489583,Eighth,F4
1376,Right,0,70,80,193.875,0.114583,ThirtySecond,A#4
1378,Left,1,51,80,194.0,0.989583,Quarter,D#3
1377,Right,0,68,80,194.0,0.989583,Quarter,G#4
1379,Right,0,63,80,194.25,0.489583,Eighth,D#4
1380,Left,1,60,80,194.5,0.989583,Quarter,C4
1381,Right,0,63,80,194.75,0.489583,Eighth,D#4
1383,Left,1,51,80,195.0,0.989583,Quarter,D#3
1382,Right,0,69,80,195.0,0.489583,Eighth,A4
1384,Right,0,63,80,195.25,0.489583,Eighth,D#4
1386,Left,1,55,80,195.5,0.989583,Quarter,G3
1385,Right,0,70,80,195.5,0.489583,Eighth,A#4
1387,Right,0,63,80,195.75,0.489583,Eighth,D#4
1388,Left,1,51,80,196.0,0.989583,Quarter,G#2_D#3
1390,Right,0,71,80,196.0,0.489583,Eighth,B4
1391,Right,0,63,80,196.25,0.489583,Eighth,D#4
1392,Left,1,56,80,196.5,0.489583,Eighth,G#3
1393,Right,0,72,80,196.5,0.489583,Eighth,C5_C4
1395,Right,0,63,80,196.75,0.489583,Eighth,D#4
1396,Right,0,73,80,197.0,0.489583,Eighth,C#5_C#4
1398,Left,1,51,80,197.0,0.489583,Eighth,D#3_A#3_A#2
1401,Right,0,63,80,197.25,0.489583,Eighth,D#4
1405,Right,0,74,80,197.5,0.489583,Eighth,D5_D4
1402,Left,1,51,80,197.5,0.489583,Eighth,D#3_B3_B2
1407,Right,0,63,80,197.75,0.239583,Sixteenth,D#4
1409,Right,0,75,80,198.0,0.989583,Quarter,D#5_D#4
1408,Left,1,51,80,198.0,0.989583,Quarter,D#3_C4_C3
1413,Left,1,56,80,198.25,0.489583,Eighth,G#3
1414,Right,0,63,80,198.5,0.489583,Eighth,D#4
1415,Left,1,56,80,198.75,0.489583,Eighth,G#3
1417,Left,1,51,80,199.0,0.989583,Quarter,D#3_A#2
1416,Right,0,63,80,199.0,0.989583,Eighth,D#4_C#5_C#4
1421,Left,1,55,80,199.25,0.489583,Eighth,G3
1422,Right,0,63,80,199.5,0.489583,Eighth,D#4_C#4
1424,Left,1,55,80,199.75,0.489583,Eighth,G3
1425,Right,0,63,80,200.0,0.989583,Eighth,D#4_C5_C4
1428,Left,1,44,80,200.0,0.989583,Quarter,G#2
1429,Left,1,56,80,200.25,0.489583,Eighth,G#3
1430,Right,0,60,80,200.5,0.489583,Eighth,E4_C4
1432,Left,1,56,80,200.75,0.489583,Eighth,G#3
1434,Right,0,65,80,201.0,0.739583,DottedEighth,F4_A#4
1433,Left,1,49,80,201.0,0.989583,Quarter,C#3
1436,Right,0,72,80,201.25,0.239583,Sixteenth,C5
1437,Left,1,57,80,201.25,0.239583,Sixteenth,A3
1438,Left,1,58,80,201.5,0.239583,Sixteenth,A#3
1439,Right,0,73,80,201.5,0.364583,DottedSixteenth,C#5
1441,Right,0,65,80,201.75,0.239583,Sixteenth,F4
1440,Left,1,61,80,201.75,0.739583,DottedEighth,C#4
1442,Right,0,70,80,201.875,0.114583,ThirtySecond,A#4
1443,Right,0,63,80,202.0,1.489583,DottedQuarter,G#4_D#4
1445,Left,1,51,80,202.0,0.989583,Quarter,D#3
1446,Right,0,75,80,202.25,0.489583,Eighth,D#5
1447,Left,1,60,80,202.5,0.489583,Eighth,C4
1448,Right,0,69,80,202.5,0.489583,Eighth,A4
1449,Right,0,75,80,202.75,0.489583,Eighth,D#5
1450,Right,0,70,80,203.0,0.489583,Eighth,A#4
1451,Left,1,61,80,203.0,0.989583,Eighth,D#3_C#4
1453,Right,0,75,80,203.25,0.489583,Eighth,D#5
1454,Right,0,67,80,203.5,0.489583,Eighth,G4_D#4
1455,Left,1,61,80,203.5,0.489583,Eighth,C#4_A#3
1458,Right,0,75,80,203.75,0.239583,Sixteenth,D#5
1459,Right,0,63,80,204.0,0.489583,Sixteenth,G#4_D#4_C4
1462,Left,1,56,80,204.0,0.489583,Eighth,G#3_G#2
1464,Right,0,63,70,204.25,0.489583,Eighth,D#4
1465,Left,1,48,70,204.5,0.489583,Eighth,C3
1466,Right,0,63,70,204.75,0.489583,Eighth,D#4
1467,Left,1,51,70,205.0,0.489583,Eighth,D#3
1468,Right,0,63,70,205.25,0.489583,Eighth,D#4
1469,Left,1,56,70,205.5,0.489583,Eighth,G#3
1470,Right,0,63,70,205.75,0.489583,Eighth,D#4
1471,Right,0,70,70,206.0,0.989583,Quarter,C#5_A#4
1473,Left,1,55,70,206.0,0.489583,Eighth,G3
1474,Right,0,63,70,206.25,0.489583,Eighth,D#4
1475,Left,1,53,70,206.5,0.489583,Eighth,F3
1476,Right,0,63,70,206.75,0.489583,Eighth,D#4
1477,Right,0,70,70,207.0,0.989583,Quarter,C#5_A#4
1479,Left,1,51,70,207.0,0.489583,Eighth,D#3
1480,Right,0,63,70,207.25,0.489583,Eighth,D#4
1481,Left,1,55,70,207.5,0.489583,Eighth,G3
1482,Right,0,63,70,207.75,0.489583,Eighth,D#4
1483,Right,0,68,70,208.0,0.489583,Eighth,G#4_C5
1484,Left,1,56,70,208.0,0.489583,Eighth,G#3
1486,Right,0,63,70,208.25,0.489583,Eighth,D#4
1487,Left,1,51,70,208.5,0.489583,Eighth,D#3
1488,Right,0,63,70,208.75,0.489583,Eighth,D#4
1489,Left,1,48,70,209.0,0.489583,Eighth,C3
1490,Right,0,63,70,209.25,0.489583,Eighth,D#4
1491,Left,1,44,70,209.5,0.489583,Eighth,G#2
1492,Right,0,63,70,209.75,0.489583,Eighth,D#4
1494,Left,1,43,70,210.0,0.489583,Eighth,G2
1493,Right,0,70,70,210.0,0.989583,Quarter,C#4_A#4
1496,Right,0,63,70,210.25,0.489583,Eighth,D#4
1497,Left,1,41,70,210.5,0.489583,Eighth,F2
1498,Right,0,63,70,210.75,0.489583,Eighth,D#4
1499,Left,1,39,70,211.0,0.489583,Eighth,D#2
1500,Right,0,70,70,211.0,0.989583,Quarter,C#4_A#4
1502,Right,0,63,70,211.25,0.489583,Eighth,D#4
1503,Left,1,43,70,211.5,0.489583,Eighth,G2
1504,Right,0,63,70,211.75,0.239583,Sixteenth,D#4
1505,Left,1,44,70,212.0,0.489583,Eighth,G#2
1506,Right,0,68,70,212.0,0.239583,Sixteenth,G#4_C4
1508,Right,0,63,70,212.25,0.489583,Eighth,D#4_D#3
1510,Left,1,39,70,212.5,0.489583,Eighth,D#2
1511,Right,0,51,70,212.75,0.489583,Eighth,D#4_D#3
1513,Left,1,36,70,213.0,0.489583,Eighth,C2
1514,Right,0,51,70,213.25,0.489583,Eighth,D#4_D#3
1518,Left,1,44,70,213.5,0.489583,Eighth,G#2_G#1
1516,Right,0,56,70,213.5,0.489583,Eighth,G#3_C4
1520,Right,0,63,70,213.75,0.489583,Eighth,D#4_D#3
1523,Right,0,58,70,214.0,0.989583,Quarter,C#4_A#3
1522,Left,1,43,70,214.0,0.489583,Eighth,G2_G1
1526,Right,0,51,70,214.25,0.489583,Eighth,D#4_D#3
1528,Left,1,29,70,214.5,0.489583,Eighth,F2_F1
1530,Right,0,51,70,214.75,0.489583,Eighth,D#4_D#3
1534,Right,0,61,70,215.0,0.989583,Quarter,C#4_A#3
1532,Left,1,43,70,215.0,0.489583,Eighth,G2_G1
1536,Right,0,51,70,215.25,0.489583,Eighth,D#4_D#3
1538,Left,1,39,70,215.5,0.489583,Eighth,D#2_D#1
1540,Right,0,51,70,215.75,0.489583,Eighth,D#4_D#3
1542,Right,0,60,70,216.0,0.239583,Sixteenth,G#3_C4
1544,Left,1,32,70,216.0,0.989583,Quarter,G#1
1545,Right,0,51,70,216.25,0.489583,Eighth,G#3_D#4_D#3_C4
1549,Left,1,44,70,216.5,0.989583,Quarter,G#2
1550,Right,0,56,70,216.75,0.489583,Eighth,G#3_D#4_D#3_C4
1554,Left,1,39,69,217.0,0.989583,Quarter,D#2
1555,Right,0,63,69,217.25,0.489583,Eighth,G#3_D#4_D#3_C4
1559,Left,1,36,68,217.5,0.989583,Quarter,C2
1560,Right,0,60,68,217.75,0.489583,Eighth,G#3_D#4_D#3_C4
1564,Left,1,32,66,218.0,0.989583,Quarter,G#1
1565,Right,0,60,67,218.25,0.489583,Eighth,G#3_D#3_C4
1568,Left,1,44,67,218.5,1.489583,DottedQuarter,G#2
1569,Right,0,60,66,218.75,0.489583,Eighth,G#3_D#3_C4
1572,Left,1,39,66,219.0,1.489583,DottedQuarter,D#2
1573,Right,0,51,65,219.25,0.489583,Eighth,G#3_D#3_C4
1576,Left,1,36,65,219.5,1.489583,DottedQuarter,C2
1577,Right,0,56,64,219.75,0.489583,Eighth,G#3_D#3_C4
1580,Left,1,32,64,220.0,1.489583,DottedQuarter,G#1
1581,Right,0,48,64,220.25,0.489583,Eighth,G#3_D#3_C3
1584,Left,1,44,63,220.5,1.489583,DottedQuarter,G#2
1585,Right,0,51,63,220.75,0.489583,Eighth,G#3_D#3_C3
1588,Left,1,39,62,221.0,1.489583,DottedQuarter,D#2
1589,Right,0,56,62,221.25,0.489583,Eighth,G#3_D#3_C3
1592,Left,1,36,61,221.5,1.489583,DottedQuarter,C2
1593,Right,0,51,61,221.75,0.739583,DottedEighth,G#3_D#3_C3
1596,Left,1,32,61,222.0,0.989583,Quarter,G#1
1599,Left,1,36,60,223.0,0.989583,Quarter,C2
1597,Right,0,48,60,223.0,0.989583,Quarter,D#3_C3
1602,Left,1,32,60,224.0,1.989583,Half,G#1
1600,Right,0,44,60,224.0,1.989583,Half,G#2_C3
