,hand,channel,note,velocity,start_beat,duration,note_value,chord
1,Left,1,48,80,0.5,0.489583,Eighth,C3
0,Right,0,60,80,0.5,0.489583,Eighth,C4
3,Right,0,59,80,1.0,0.489583,Eighth,B3
2,Left,1,47,80,1.0,0.489583,Eighth,B2
4,Left,1,48,80,1.5,0.489583,Eighth,C3
5,Right,0,60,80,1.5,0.489583,Eighth,C4
6,Left,1,53,80,2.0,0.489583,Eighth,F3
7,Right,0,65,80,2.0,0.489583,Eighth,F4
9,Left,1,53,80,2.5,0.489583,Eighth,F3
8,Right,0,65,80,2.5,0.489583,Eighth,F4
11,Left,1,51,80,3.0,0.989583,Quarter,D#3
10,Right,0,63,80,3.0,0.989583,Quarter,D#4
13,Right,0,60,80,4.5,0.489583,Eighth,C4
12,Left,1,48,80,4.5,0.489583,Eighth,C3
15,Left,1,47,80,5.0,0.489583,Eighth,B2
14,Right,0,59,80,5.0,0.489583,Eighth,B3
16,Left,1,48,80,5.5,0.489583,Eighth,C3
17,Right,0,60,80,5.5,0.489583,Eighth,C4
19,Right,0,68,80,6.0,0.489583,Eighth,G#4
18,Left,1,56,80,6.0,0.489583,Eighth,G#3
20,Left,1,56,80,6.5,0.489583,Eighth,G#3
21,Right,0,68,80,6.5,0.489583,Eighth,G#4
23,Right,0,67,80,7.0,0.989583,Quarter,G4
22,Left,1,55,80,7.0,0.989583,Quarter,G3
24,Right,0,60,80,8.5,0.489583,Eighth,C4
25,Right,0,59,80,9.0,0.489583,Eighth,B3
26,Right,0,60,80,9.5,0.489583,Eighth,C4
27,Right,0,72,80,10.0,0.489583,Eighth,C5
28,Right,0,72,80,10.5,0.489583,Eighth,C5
29,Right,0,72,80,11.0,0.489583,Eighth,C5
30,Left,1,66,80,11.0,3.989583,Whole,G#3_F#4_C4
33,Right,0,74,80,11.5,0.239583,Sixteenth,D5
34,Right,0,72,80,11.625,0.239583,Sixteenth,C5
35,Right,0,71,80,11.75,0.239583,Sixteenth,B4
36,Right,0,72,80,11.875,0.114583,ThirtySecond,C5
37,Right,0,75,80,12.0,0.489583,Eighth,D#5
38,Right,0,74,80,12.5,0.489583,Eighth,D5
39,Right,0,77,80,13.0,0.489583,Eighth,F5
40,Right,0,75,80,13.5,0.489583,Eighth,D#5
41,Right,0,74,80,14.0,0.489583,Eighth,D5
42,Right,0,72,80,14.5,0.489583,Eighth,C5
46,Right,0,71,80,15.0,0.989583,Quarter,B4
43,Left,1,67,80,15.0,0.989583,Quarter,G4_G3_D4
47,Right,0,55,80,16.5,0.489583,Eighth,G3
48,Left,1,43,80,16.5,0.489583,Eighth,G2
50,Left,1,42,80,17.0,0.489583,Eighth,F#2
49,Right,0,54,80,17.0,0.489583,Eighth,F#3
51,Right,0,55,80,17.5,0.489583,Eighth,G3
52,Left,1,43,80,17.5,0.489583,Eighth,G2
53,Left,1,48,80,18.0,0.489583,Eighth,C3
54,Right,0,60,80,18.0,0.489583,Eighth,C4
55,Right,0,60,80,18.5,0.489583,Eighth,C4
56,Left,1,48,80,18.5,0.489583,Eighth,C3
58,Left,1,47,80,19.0,0.989583,Quarter,B2
57,Right,0,59,80,19.0,0.989583,Quarter,B3
59,Left,1,43,80,20.5,0.489583,Eighth,G2
60,Right,0,55,80,20.5,0.489583,Eighth,G3
61,Left,1,42,80,21.0,0.489583,Eighth,F#2
62,Right,0,54,80,21.0,0.489583,Eighth,F#3
64,Right,0,55,80,21.5,0.489583,Eighth,G3
63,Left,1,43,80,21.5,0.489583,Eighth,G2
66,Left,1,51,80,22.0,0.489583,Eighth,D#3
65,Right,0,63,80,22.0,0.489583,Eighth,D#4
67,Right,0,63,80,22.5,0.489583,Eighth,D#4
68,Left,1,51,80,22.5,0.489583,Eighth,D#3
69,Right,0,62,80,23.0,0.989583,Quarter,D4
70,Left,1,50,80,23.0,0.989583,Quarter,D3
72,Left,1,43,80,24.5,0.489583,Eighth,G2
71,Right,0,55,80,24.5,0.489583,Eighth,G3
74,Right,0,59,80,25.0,0.489583,Eighth,B3
73,Left,1,47,80,25.0,0.489583,Eighth,B2
75,Left,1,50,80,25.5,0.489583,Eighth,D3
76,Right,0,62,80,25.5,0.489583,Eighth,D4
77,Right,0,65,80,26.0,0.489583,Eighth,F4
78,Left,1,53,80,26.0,0.489583,Eighth,F3
80,Right,0,68,80,26.5,0.489583,Eighth,G#4
79,Left,1,56,80,26.5,0.489583,Eighth,G#3
82,Left,1,59,80,27.0,0.489583,Eighth,B3
81,Right,0,71,80,27.0,0.489583,Eighth,B4
83,Left,1,62,80,27.5,0.489583,Eighth,D4
84,Right,0,74,80,27.5,0.489583,Eighth,D5
85,Left,1,65,80,28.0,0.489583,Eighth,F4
86,Right,0,77,80,28.0,0.489583,Eighth,F5
87,Left,1,68,80,28.5,0.489583,Eighth,G#4
88,Right,0,80,80,28.5,0.489583,Eighth,G#5
89,Left,1,67,80,29.0,0.489583,Eighth,G4
90,Right,0,79,80,29.0,0.489583,Eighth,G5
91,Left,1,65,80,29.5,0.489583,Eighth,F4
92,Right,0,77,80,29.5,0.489583,Eighth,F5
94,Right,0,75,80,30.0,0.489583,Eighth,D#5
93,Left,1,63,80,30.0,0.489583,Eighth,D#4
95,Right,0,74,80,30.5,0.489583,Eighth,D5
96,Left,1,62,80,30.5,0.489583,Eighth,D4
98,Right,0,72,80,31.0,0.989583,Quarter,C5
97,Left,1,60,80,31.0,0.489583,Eighth,C4
99,Left,1,63,80,31.5,0.489583,Eighth,G4_D#4
101,Left,1,63,80,32.0,0.489583,Eighth,G4_D#4
105,Right,0,72,80,32.5,0.489583,Eighth,C5
103,Left,1,63,80,32.5,0.489583,Eighth,G4_D#4
106,Left,1,60,80,33.0,0.489583,Eighth,C4
107,Right,0,71,80,33.0,0.489583,Eighth,B4
110,Right,0,72,80,33.5,0.489583,Eighth,C5
108,Left,1,64,80,33.5,0.489583,Eighth,G4_E4_A#4
115,Right,0,84,80,34.0,0.489583,Eighth,C6
112,Left,1,64,80,34.0,0.489583,Eighth,G4_E4_A#4
116,Left,1,64,80,34.5,0.489583,Eighth,G4_E4_A#4
119,Right,0,84,80,34.5,0.489583,Eighth,C6
120,Right,0,84,80,35.0,0.989583,Quarter,C6
121,Left,1,60,80,35.0,0.489583,Eighth,C4
122,Left,1,65,80,35.5,0.489583,Eighth,G#4_F4
124,Left,1,65,80,36.0,0.489583,Eighth,G#4_F4
127,Left,1,65,80,36.5,0.489583,Eighth,G#4_F4
126,Right,0,89,80,36.5,0.489583,Eighth,F6
130,Left,1,60,80,37.0,0.489583,Eighth,C4
129,Right,0,87,80,37.0,0.489583,Eighth,D#6
131,Left,1,68,80,37.5,0.489583,Eighth,G#4_F4_B4
132,Right,0,86,80,37.5,0.489583,Eighth,D6
136,Left,1,71,80,38.0,0.489583,Eighth,G#4_F4_B4
135,Right,0,84,80,38.0,0.489583,Eighth,C6
140,Left,1,71,80,38.5,0.489583,Eighth,G#4_F4_B4
139,Right,0,83,80,38.5,0.489583,Eighth,B5
144,Left,1,60,80,39.0,0.489583,Eighth,C4
143,Right,0,86,80,39.0,0.489583,Eighth,D6
146,Left,1,67,80,39.5,0.489583,Eighth,G4_D#4
145,Right,0,84,80,39.5,0.489583,Eighth,C6
148,Left,1,67,80,40.0,0.489583,Eighth,G4_D#4
150,Right,0,72,80,40.5,0.489583,Eighth,C5
151,Left,1,67,80,40.5,0.489583,Eighth,G4_D#4
153,Left,1,60,80,41.0,0.489583,Eighth,C4
154,Right,0,71,80,41.0,0.489583,Eighth,B4
155,Right,0,72,80,41.5,0.489583,Eighth,C5
156,Left,1,70,80,41.5,0.489583,Eighth,G4_E4_A#4
160,Left,1,67,80,42.0,0.489583,Eighth,G4_E4_A#4
159,Right,0,84,80,42.0,0.489583,Eighth,C6
164,Left,1,64,80,42.5,0.489583,Eighth,G4_E4_A#4
163,Right,0,84,80,42.5,0.489583,Eighth,C6
167,Left,1,60,80,43.0,0.489583,Eighth,C4
168,Right,0,84,80,43.0,0.489583,Eighth,C6
169,Left,1,68,80,43.5,0.489583,Eighth,G#4_F4
170,Right,0,86,80,43.5,0.15625,TripletSixteenth,D6
172,Right,0,84,80,43.666667,0.15625,TripletSixteenth,C6
173,Right,0,83,80,43.833333,0.15625,TripletSixteenth,B5
174,Left,1,68,80,44.0,0.489583,Eighth,G#4_F4
175,Right,0,84,80,44.0,0.489583,Eighth,C6
178,Left,1,68,80,44.5,0.489583,Eighth,G#4_F4
177,Right,0,89,80,44.5,0.489583,Eighth,F6
180,Right,0,87,80,45.0,0.489583,Eighth,D#6
181,Left,1,60,80,45.0,0.489583,Eighth,C4
183,Left,1,71,80,45.5,0.489583,Eighth,G#4_F4_B4
182,Right,0,86,80,45.5,0.489583,Eighth,D6
186,Left,1,71,80,46.0,0.489583,Eighth,G#4_F4_B4
189,Right,0,84,80,46.0,0.489583,Eighth,C6
191,Left,1,71,80,46.5,0.489583,Eighth,G#4_F4_B4
190,Right,0,83,80,46.5,0.489583,Eighth,B5
195,Right,0,84,80,47.0,0.239583,Sixteenth,C6
194,Left,1,63,80,47.0,0.989583,Quarter,G4_D#4_C5_C4
199,Right,0,86,80,47.25,0.239583,Sixteenth,D6
200,Right,0,84,81,47.5,0.239583,Sixteenth,C6
201,Right,0,83,81,47.75,0.239583,Sixteenth,B5
202,Right,0,84,82,48.0,0.239583,Sixteenth,C6
203,Right,0,87,82,48.25,0.239583,Sixteenth,D#6
204,Right,0,86,83,48.5,0.239583,Sixteenth,D6
205,Left,1,66,83,48.5,0.489583,Eighth,F#4
206,Right,0,84,83,48.75,0.239583,Sixteenth,C6
207,Right,0,83,84,49.0,0.239583,Sixteenth,B5
208,Left,1,67,84,49.0,0.989583,Quarter,G4
209,Right,0,84,84,49.25,0.239583,Sixteenth,C6
210,Right,0,83,85,49.5,0.239583,Sixteenth,B5
211,Right,0,80,85,49.75,0.239583,Sixteenth,G#5
212,Right,0,79,86,50.0,0.239583,Sixteenth,G5
213,Right,0,77,86,50.25,0.239583,Sixteenth,F5
214,Right,0,75,87,50.5,0.239583,Sixteenth,D#5
215,Left,1,59,87,50.5,0.489583,Eighth,B3
216,Right,0,74,87,50.75,0.239583,Sixteenth,D5
218,Left,1,60,88,51.0,0.989583,Quarter,C4
217,Right,0,72,88,51.0,0.239583,Sixteenth,C5
219,Right,0,74,88,51.25,0.239583,Sixteenth,D5
220,Right,0,72,89,51.5,0.239583,Sixteenth,C5
221,Right,0,71,89,51.75,0.239583,Sixteenth,B4
222,Right,0,72,90,52.0,0.239583,Sixteenth,C5
223,Right,0,75,90,52.25,0.239583,Sixteenth,D#5
225,Left,1,54,91,52.5,0.489583,Eighth,F#3
224,Right,0,74,91,52.5,0.239583,Sixteenth,D5
226,Right,0,72,91,52.75,0.239583,Sixteenth,C5
228,Right,0,71,92,53.0,0.239583,Sixteenth,B4
227,Left,1,55,92,53.0,0.989583,Quarter,G3
229,Right,0,72,92,53.25,0.239583,Sixteenth,C5
230,Right,0,71,93,53.5,0.239583,Sixteenth,B4
231,Right,0,68,93,53.75,0.239583,Sixteenth,G#4
232,Right,0,67,94,54.0,0.239583,Sixteenth,G4
233,Right,0,65,94,54.25,0.239583,Sixteenth,F4
234,Left,1,47,95,54.5,0.489583,Eighth,B2
235,Right,0,63,95,54.5,0.239583,Sixteenth,D#4
236,Right,0,62,95,54.75,0.239583,Sixteenth,D4
237,Right,0,60,96,55.0,0.239583,Sixteenth,C4
238,Left,1,48,96,55.0,0.989583,Quarter,C3
239,Right,0,62,96,55.25,0.239583,Sixteenth,D4
240,Right,0,60,97,55.5,0.239583,Sixteenth,C4
241,Right,0,59,97,55.75,0.239583,Sixteenth,B3
242,Right,0,60,98,56.0,0.239583,Sixteenth,C4
243,Right,0,63,98,56.25,0.239583,Sixteenth,D#4
245,Left,1,42,99,56.5,0.489583,Eighth,F#2
244,Right,0,62,99,56.5,0.239583,Sixteenth,D4
246,Right,0,60,99,56.75,0.239583,Sixteenth,C4
247,Right,0,59,110,57.0,0.239583,Sixteenth,B3
248,Left,1,43,110,57.0,0.989583,Quarter,G2
249,Right,0,67,110,57.25,0.239583,Sixteenth,G4
250,Right,0,62,110,57.5,0.239583,Sixteenth,D4
251,Right,0,59,110,57.75,0.239583,Sixteenth,B3
252,Right,0,55,110,58.0,0.239583,Sixteenth,G3
253,Left,1,36,110,58.0,0.989583,Quarter,C3_C2
255,Right,0,67,110,58.25,0.239583,Sixteenth,G4
256,Right,0,63,110,58.5,0.239583,Sixteenth,D#4
257,Right,0,60,110,58.75,0.239583,Sixteenth,C4
258,Left,1,31,110,59.0,0.989583,Quarter,G2_G1
259,Right,0,55,110,59.0,0.239583,Sixteenth,G3
261,Right,0,67,110,59.25,0.239583,Sixteenth,G4
262,Right,0,62,110,59.5,0.239583,Sixteenth,D4
263,Right,0,59,110,59.75,0.239583,Sixteenth,B3
264,Left,1,48,110,60.0,0.989583,Quarter,C3_C2
266,Right,0,55,110,60.0,0.239583,Sixteenth,G3
267,Right,0,67,110,60.25,0.239583,Sixteenth,G4
268,Right,0,63,110,60.5,0.239583,Sixteenth,D#4
269,Right,0,60,110,60.75,0.239583,Sixteenth,C4
270,Right,0,55,110,61.0,0.239583,Sixteenth,G3
271,Left,1,31,110,61.0,0.989583,Quarter,G2_G1
273,Right,0,67,110,61.25,0.239583,Sixteenth,G4
274,Right,0,62,110,61.5,0.239583,Sixteenth,D4
275,Right,0,59,110,61.75,0.239583,Sixteenth,B3
277,Right,0,55,110,62.0,0.239583,Sixteenth,G3
276,Left,1,48,110,62.0,0.989583,Quarter,C3_C2
279,Right,0,67,110,62.25,0.239583,Sixteenth,G4
280,Right,0,63,110,62.5,0.239583,Sixteenth,D#4
281,Right,0,60,110,62.75,0.239583,Sixteenth,C4
284,Left,1,38,120,63.0,5.989583,Unknown,G2_G1_D2_B1
282,Right,0,59,120,63.0,5.989583,Unknown,G4_G3_D4_B3
290,Right,0,58,80,69.5,0.489583,Eighth,A#3
291,Right,0,60,80,70.0,0.489583,Eighth,C4
292,Right,0,62,80,70.5,0.489583,Eighth,D4
293,Right,0,63,80,71.0,1.989583,Half,G3_D#4_A#3
294,Left,1,51,80,71.0,1.989583,Half,D#3_D#2
298,Right,0,65,80,71.5,0.489583,Eighth,F4
299,Right,0,67,80,72.0,0.989583,Quarter,G4
302,Right,0,62,80,73.0,0.989583,Quarter,F4_D4_A#3
300,Left,1,56,80,73.0,0.989583,Quarter,G#3_G#2
305,Right,0,63,80,74.0,0.989583,Quarter,D#4_A#3
307,Left,1,55,80,74.0,0.989583,Quarter,G3_G2
312,Right,0,56,80,75.0,1.989583,Half,G#4_G#3_D4_A#3
309,Left,1,53,80,75.0,1.989583,Half,F3_F2_A#2
316,Right,0,58,80,77.5,0.489583,Eighth,A#3
317,Right,0,60,80,78.0,0.489583,Eighth,C4
318,Right,0,62,80,78.5,0.489583,Eighth,D4
320,Left,1,51,80,79.0,1.989583,Half,D#3_D#2
319,Right,0,55,80,79.0,1.989583,Half,G3_D#4_A#3
324,Right,0,65,80,79.5,0.489583,Eighth,F4
325,Right,0,67,80,80.0,0.989583,Quarter,G4
329,Left,1,44,80,81.0,0.989583,Quarter,G#2_G#1
326,Right,0,60,80,81.0,0.989583,Quarter,F4_F3_C4
331,Left,1,45,80,82.0,0.989583,Quarter,A2_A1
332,Right,0,53,80,82.0,0.989583,Quarter,F3_D#4_C4
337,Left,1,34,80,83.0,1.989583,Half,A#2_A#1
336,Right,0,58,80,83.0,1.989583,Half,F3_D3_A#3
341,Right,0,58,80,85.5,0.489583,Eighth,A#3
342,Right,0,60,80,86.0,0.489583,Eighth,C4
343,Right,0,62,80,86.5,0.489583,Eighth,D4
344,Right,0,63,80,87.0,0.489583,Eighth,D#4
345,Left,1,51,80,87.0,1.989583,Half,D#3_D#2
347,Right,0,65,80,87.5,0.489583,Eighth,F4
348,Right,0,67,80,88.0,0.989583,Quarter,G4
350,Right,0,65,80,89.0,0.989583,Quarter,F4_D4_A#3
349,Left,1,44,80,89.0,0.989583,Quarter,G#3_G#2
356,Right,0,63,80,90.0,0.989583,Quarter,D#4_A#3
354,Left,1,55,80,90.0,0.989583,Quarter,G3_G2
358,Right,0,60,100,91.0,0.364583,DottedSixteenth,C4
359,Left,1,44,100,91.0,0.989583,Quarter,G#2
360,Right,0,63,100,91.125,0.239583,Sixteenth,D#4
361,Left,1,48,100,91.125,0.864583,DottedEighth,C3
362,Left,1,51,100,91.25,0.739583,DottedEighth,D#3
363,Right,0,68,100,91.25,0.114583,ThirtySecond,G#4
364,Left,1,56,100,91.375,0.614583,Eighth,G#3
365,Right,0,72,100,91.375,2.114583,Half,C5
366,Right,0,72,80,93.5,0.489583,Eighth,C5
367,Right,0,70,80,94.0,0.489583,Eighth,A#4
368,Right,0,68,80,94.5,0.489583,Eighth,G#4
370,Left,1,46,80,95.0,7.989583,Unknown,A#2
369,Right,0,67,104,95.0,0.489583,Eighth,G4
371,Right,0,65,80,95.5,0.489583,Eighth,F4
372,Right,0,63,80,96.0,0.489583,Eighth,D#4
373,Right,0,62,80,96.5,0.489583,Eighth,D4
374,Right,0,60,80,97.0,1.989583,Half,G#3_F3_C4
377,Left,1,34,80,97.5,0.489583,Eighth,A#1
378,Right,0,58,80,98.0,0.989583,Quarter,A#3
379,Left,1,36,80,98.0,0.489583,Eighth,C2
380,Left,1,38,80,98.5,0.489583,Eighth,D2
381,Right,0,55,80,99.0,1.989583,Half,G3_D#3_A#3
382,Left,1,39,80,99.0,0.489583,Eighth,D#2
385,Left,1,41,80,99.5,0.489583,Eighth,F2
386,Left,1,43,80,100.0,0.989583,Quarter,G2
387,Left,1,41,80,101.0,0.989583,Quarter,F2
388,Right,0,70,80,101.5,0.489583,Eighth,A#4
390,Right,0,68,80,102.0,0.489583,Eighth,G#4
389,Left,1,39,80,102.0,0.989583,Quarter,D#2
391,Right,0,67,80,102.5,0.489583,Eighth,G4
392,Left,1,46,80,103.0,7.989583,Unknown,A#2
393,Right,0,67,104,103.0,0.489583,Eighth,G4
394,Right,0,65,80,103.5,0.489583,Eighth,F4
395,Right,0,63,80,104.0,0.489583,Eighth,D#4
396,Right,0,62,80,104.5,0.489583,Eighth,D4
397,Right,0,53,80,105.0,1.989583,Half,G#3_F3_C4
400,Left,1,34,80,105.5,0.489583,Eighth,A#1
402,Right,0,58,80,106.0,0.989583,Quarter,A#3
401,Left,1,36,80,106.0,0.489583,Eighth,C2
403,Left,1,38,80,106.5,0.489583,Eighth,D2
407,Left,1,39,80,107.0,0.489583,Eighth,D#2
404,Right,0,51,80,107.0,1.989583,Half,G3_D#3_A#3
408,Left,1,41,80,107.5,0.489583,Eighth,F2
409,Left,1,43,80,108.0,0.989583,Quarter,G2
410,Left,1,41,80,109.0,0.989583,Quarter,F2
411,Right,0,70,80,109.5,0.489583,Eighth,A#5_A#4
413,Left,1,39,80,110.0,0.989583,Quarter,D#2
414,Right,0,68,80,110.0,0.489583,Eighth,G#5_G#4
416,Right,0,67,80,110.5,0.489583,Eighth,G5_G4
418,Left,1,53,80,111.0,0.989583,Quarter,G2_F3_C3
421,Right,0,79,80,111.0,0.489583,Eighth,G5_G4
423,Right,0,77,80,111.5,0.489583,Eighth,F5_F4
425,Right,0,75,80,112.0,0.489583,Eighth,D#5_D#4
427,Right,0,62,80,112.5,0.489583,Eighth,D5_D4
429,Left,1,46,80,113.0,0.989583,Quarter,G#3_F3_A#2
431,Right,0,72,80,113.0,0.489583,Eighth,C5_C4
434,Right,0,70,80,113.5,0.489583,Eighth,A#4_A#3
436,Right,0,60,80,114.0,0.489583,Eighth,C5_C4
438,Right,0,62,80,114.5,0.489583,Eighth,D5_D4
441,Left,1,51,80,115.0,0.989583,Quarter,G3_D#3
440,Right,0,63,80,115.0,0.239583,Sixteenth,D#4
443,Right,0,75,80,115.25,0.239583,Sixteenth,D#5
444,Right,0,63,81,115.5,0.239583,Sixteenth,D#4
445,Right,0,75,81,115.75,0.239583,Sixteenth,D#5
446,Right,0,63,82,116.0,0.239583,Sixteenth,D#4
447,Right,0,75,83,116.25,0.239583,Sixteenth,D#5
449,Right,0,63,83,116.5,0.239583,Sixteenth,D#4
448,Left,1,51,83,116.5,0.489583,Eighth,D#3
450,Right,0,75,84,116.75,0.239583,Sixteenth,D#5
452,Left,1,50,85,117.0,0.489583,Eighth,D3
451,Right,0,63,85,117.0,0.239583,Sixteenth,D#4
453,Right,0,75,85,117.25,0.239583,Sixteenth,D#5
454,Left,1,51,86,117.5,0.489583,Eighth,D#3
455,Right,0,63,86,117.5,0.239583,Sixteenth,D#4
456,Right,0,75,86,117.75,0.239583,Sixteenth,D#5
457,Left,1,48,87,118.0,0.489583,Eighth,G#3_C3
459,Right,0,63,87,118.0,0.239583,Sixteenth,D#4
460,Right,0,75,88,118.25,0.239583,Sixteenth,D#5
463,Right,0,63,88,118.5,0.239583,Sixteenth,D#4
461,Left,1,48,88,118.5,0.489583,Eighth,G#3_C3
464,Right,0,75,89,118.75,0.239583,Sixteenth,D#5
465,Left,1,46,90,119.0,0.989583,Quarter,G3_A#2
467,Right,0,63,90,119.0,0.239583,Sixteenth,D#4
468,Right,0,75,90,119.25,0.239583,Sixteenth,D#5
469,Right,0,63,91,119.5,0.239583,Sixteenth,D#4
470,Right,0,75,91,119.75,0.239583,Sixteenth,D#5
471,Right,0,63,92,120.0,0.239583,Sixteenth,D#4
472,Right,0,75,93,120.25,0.239583,Sixteenth,D#5
473,Right,0,63,93,120.5,0.239583,Sixteenth,D#4
474,Left,1,51,93,120.5,0.489583,Eighth,D#3
475,Right,0,75,94,120.75,0.239583,Sixteenth,D#5
477,Right,0,63,95,121.0,0.239583,Sixteenth,D#4
476,Left,1,50,95,121.0,0.489583,Eighth,D3
478,Right,0,75,95,121.25,0.239583,Sixteenth,D#5
480,Right,0,63,96,121.5,0.239583,Sixteenth,D#4
479,Left,1,51,96,121.5,0.489583,Eighth,D#3
481,Right,0,75,96,121.75,0.239583,Sixteenth,D#5
482,Left,1,56,97,122.0,0.489583,Eighth,G#3_C4
484,Right,0,63,97,122.0,0.239583,Sixteenth,D#4
485,Right,0,75,98,122.25,0.239583,Sixteenth,D#5
486,Right,0,63,98,122.5,0.239583,Sixteenth,D#4
487,Left,1,60,98,122.5,0.489583,Eighth,G#3_C4
489,Right,0,75,99,122.75,0.239583,Sixteenth,D#5
492,Left,1,55,100,123.0,0.489583,Eighth,G3_A#3
490,Right,0,75,100,123.0,0.989583,Quarter,D#5_D#4
494,Left,1,51,101,123.5,0.239583,Sixteenth,D#3
495,Left,1,63,101,123.75,0.239583,Sixteenth,D#4
496,Left,1,51,102,124.0,0.239583,Sixteenth,D#3
497,Left,1,63,103,124.25,0.239583,Sixteenth,D#4
499,Right,0,75,103,124.5,0.489583,Eighth,D#5
498,Left,1,51,103,124.5,0.239583,Sixteenth,D#3
500,Left,1,63,104,124.75,0.239583,Sixteenth,D#4
502,Left,1,51,105,125.0,0.239583,Sixteenth,D#3
501,Right,0,74,105,125.0,0.489583,Eighth,D5
503,Left,1,63,105,125.25,0.239583,Sixteenth,D#4
505,Left,1,51,106,125.5,0.239583,Sixteenth,D#3
504,Right,0,75,106,125.5,0.489583,Eighth,D#5
506,Left,1,63,106,125.75,0.239583,Sixteenth,D#4
507,Right,0,80,107,126.0,0.489583,Eighth,G#5_C6
508,Left,1,51,107,126.0,0.239583,Sixteenth,D#3
510,Left,1,63,108,126.25,0.239583,Sixteenth,D#4
511,Left,1,51,108,126.5,0.239583,Sixteenth,D#3
512,Right,0,84,108,126.5,0.489583,Eighth,G#5_C6
514,Left,1,63,109,126.75,0.239583,Sixteenth,D#4
516,Left,1,53,120,127.0,3.989583,Whole,G#3_F3_D4_D#3_A#3
515,Right,0,84,120,127.0,1.239583,TiedQuarter-Sixteenth,G#5_C6
522,Right,0,82,120,128.25,0.239583,Sixteenth,A#5
523,Right,0,80,120,128.5,0.239583,Sixteenth,G#5
524,Right,0,79,120,128.75,0.239583,Sixteenth,G5
525,Right,0,77,120,129.0,0.239583,Sixteenth,F5
526,Right,0,75,120,129.25,0.239583,Sixteenth,D#5
527,Right,0,74,120,129.5,0.239583,Sixteenth,D5
528,Right,0,72,120,129.75,0.239583,Sixteenth,C5
529,Right,0,71,120,130.0,0.239583,Sixteenth,B4
530,Right,0,70,120,130.25,0.239583,Sixteenth,A#4
531,Right,0,69,120,130.5,0.239583,Sixteenth,A4
532,Right,0,68,120,130.75,0.239583,Sixteenth,G#4
533,Left,1,51,120,131.0,0.989583,Quarter,G3_D#4_D#3_A#3
537,Right,0,67,120,131.0,0.322917,Triplet,G4
538,Right,0,68,120,131.333333,0.322917,Triplet,G#4
539,Right,0,70,120,131.666667,0.322917,Triplet,A#4
540,Right,0,68,120,132.0,0.322917,Triplet,G#4
541,Right,0,67,120,132.333333,0.322917,Triplet,G4
542,Right,0,65,120,132.666667,0.322917,Triplet,F4
543,Right,0,63,120,133.0,0.322917,Triplet,D#4
544,Right,0,62,120,133.333333,0.322917,Triplet,D4
545,Right,0,60,120,133.666667,0.322917,Triplet,C4
546,Right,0,58,120,134.0,0.322917,Triplet,A#3
547,Right,0,56,120,134.333333,0.322917,Triplet,G#3
548,Right,0,55,120,134.666667,0.322917,Triplet,G3
549,Left,1,44,120,135.0,0.989583,Quarter,G#2_G#1
551,Right,0,53,120,135.25,0.239583,Sixteenth,F3
552,Right,0,56,120,135.5,0.239583,Sixteenth,G#3
553,Right,0,60,120,135.75,0.239583,Sixteenth,C4
554,Right,0,65,120,136.0,0.989583,Quarter,F4
555,Left,1,32,120,136.5,0.489583,Eighth,G#2_G#1
557,Left,1,46,120,137.0,0.989583,Quarter,A#2_A#1
559,Right,0,53,120,137.25,0.239583,Sixteenth,F3
560,Right,0,56,120,137.5,0.239583,Sixteenth,G#3
561,Right,0,58,120,137.75,0.239583,Sixteenth,A#3
562,Right,0,62,120,138.0,0.989583,Quarter,D4
563,Left,1,46,120,138.5,0.489583,Eighth,A#2_A#1
565,Right,0,74,120,139.0,0.239583,Sixteenth,D5
566,Right,0,86,120,139.25,0.239583,Sixteenth,D6
567,Right,0,74,120,139.5,0.239583,Sixteenth,D5
568,Left,1,68,120,139.5,0.239583,Sixteenth,G#4
570,Left,1,70,120,139.75,0.239583,Sixteenth,A#4
569,Right,0,86,120,139.75,0.239583,Sixteenth,D6
571,Right,0,74,120,140.0,0.239583,Sixteenth,D5
572,Left,1,72,120,140.0,0.239583,Sixteenth,C5
573,Right,0,86,120,140.25,0.239583,Sixteenth,D6
574,Left,1,70,120,140.25,0.239583,Sixteenth,A#4
576,Right,0,74,120,140.5,0.239583,Sixteenth,D5
575,Left,1,68,120,140.5,0.239583,Sixteenth,G#4
578,Left,1,67,120,140.75,0.239583,Sixteenth,G4
577,Right,0,86,120,140.75,0.239583,Sixteenth,D6
579,Right,0,74,120,141.0,0.239583,Sixteenth,D5
580,Left,1,65,120,141.0,0.322917,Triplet,F4
581,Right,0,86,120,141.25,0.239583,Sixteenth,D6
582,Left,1,63,120,141.333333,0.322917,Triplet,D#4
583,Right,0,74,120,141.5,0.239583,Sixteenth,D5
584,Left,1,62,120,141.666667,0.322917,Triplet,D4
585,Right,0,86,120,141.75,0.239583,Sixteenth,D6
587,Right,0,74,120,142.0,0.239583,Sixteenth,D5
586,Left,1,60,120,142.0,0.322917,Triplet,C4
588,Right,0,86,120,142.25,0.239583,Sixteenth,D6
589,Left,1,58,120,142.333333,0.322917,Triplet,A#3
590,Right,0,74,120,142.5,0.239583,Sixteenth,D5
591,Left,1,56,120,142.666667,0.322917,Triplet,G#3
592,Right,0,86,120,142.75,0.239583,Sixteenth,D6
593,Left,1,55,120,143.0,0.322917,Triplet,G3
594,Right,0,75,120,143.0,0.239583,Sixteenth,D#5
595,Right,0,87,120,143.25,0.239583,Sixteenth,D#6
596,Left,1,56,120,143.333333,0.322917,Triplet,G#3
597,Right,0,75,120,143.5,0.239583,Sixteenth,D#5
598,Left,1,58,120,143.666667,0.322917,Triplet,A#3
599,Right,0,87,120,143.75,0.239583,Sixteenth,D#6
600,Left,1,56,120,144.0,0.322917,Triplet,G#3
601,Right,0,75,120,144.0,0.239583,Sixteenth,D#5
602,Right,0,87,120,144.25,0.239583,Sixteenth,D#6
603,Left,1,55,120,144.333333,0.322917,Triplet,G3
604,Right,0,75,120,144.5,0.239583,Sixteenth,D#5
605,Left,1,53,120,144.666667,0.322917,Triplet,F3
606,Right,0,87,120,144.75,0.239583,Sixteenth,D#6
607,Left,1,51,120,145.0,0.322917,Triplet,D#3
608,Right,0,75,120,145.0,0.239583,Sixteenth,D#5
609,Right,0,87,120,145.25,0.239583,Sixteenth,D#6
610,Left,1,50,120,145.333333,0.322917,Triplet,D3
611,Right,0,75,120,145.5,0.239583,Sixteenth,D#5
612,Left,1,48,120,145.666667,0.322917,Triplet,C3
613,Right,0,87,120,145.75,0.239583,Sixteenth,D#6
615,Left,1,46,120,146.0,0.322917,Triplet,A#2
614,Right,0,76,120,146.0,0.239583,Sixteenth,E5
616,Right,0,88,120,146.25,0.239583,Sixteenth,E6
617,Left,1,44,120,146.333333,0.322917,Triplet,G#2
618,Right,0,76,120,146.5,0.239583,Sixteenth,E5
619,Left,1,43,120,146.666667,0.322917,Triplet,G2
620,Right,0,88,120,146.75,0.239583,Sixteenth,E6
621,Left,1,32,120,147.0,0.989583,Quarter,G#2_G#1
623,Right,0,77,120,147.25,0.239583,Sixteenth,F5
624,Right,0,80,120,147.5,0.239583,Sixteenth,G#5
625,Right,0,84,120,147.75,0.239583,Sixteenth,C6
626,Right,0,89,120,148.0,0.989583,Quarter,F6
627,Left,1,44,120,148.5,0.489583,Eighth,G#2_G#1
629,Left,1,34,120,149.0,0.989583,Quarter,A#2_A#1
631,Right,0,74,120,149.25,0.239583,Sixteenth,D5
632,Right,0,77,120,149.5,0.239583,Sixteenth,F5
633,Right,0,80,120,149.75,0.239583,Sixteenth,G#5
634,Right,0,86,120,150.0,0.989583,Quarter,D6
635,Left,1,46,120,150.5,0.489583,Eighth,A#2_A#1
637,Left,1,46,120,151.0,0.989583,Quarter,G2_D#3_D#2_A#2
639,Right,0,75,120,151.0,0.989583,Quarter,G5_D#6_D#5_A#5
645,Left,1,64,120,152.0,0.489583,Eighth,G4_E4
647,Right,0,82,120,152.0,0.489583,Eighth,A#5
648,Left,1,67,120,152.5,0.489583,Eighth,G4_E4
650,Right,0,82,120,152.5,0.489583,Eighth,A#5
652,Right,0,82,120,153.0,0.989583,Quarter,A#5
651,Left,1,65,120,153.0,0.989583,Quarter,G#4_F4
654,Left,1,64,120,154.0,0.489583,Eighth,G4_E4
655,Right,0,82,120,154.0,0.489583,Eighth,A#5
657,Right,0,82,120,154.5,0.489583,Eighth,A#5
658,Left,1,64,120,154.5,0.489583,Eighth,G4_E4
661,Right,0,82,120,155.0,0.989583,Quarter,A#5
660,Left,1,65,120,155.0,0.989583,Quarter,G#4_F4
663,Right,0,53,120,156.0,0.989583,Quarter,G#3_F3_D4
666,Left,1,34,120,156.0,0.989583,Quarter,A#2_A#1
668,Right,0,62,80,158.0,0.989583,Quarter,G#3_F3_D4
670,Left,1,47,80,158.0,0.989583,Quarter,B2_B1
673,Left,1,48,80,159.0,0.989583,Quarter,C3_C2
675,Right,0,63,80,159.0,0.989583,Quarter,G3_D#4_D#3
678,Left,1,45,80,160.0,0.989583,Quarter,A2_A1
679,Right,0,65,80,160.0,0.989583,Quarter,F4_D#4_C4
685,Right,0,63,80,161.0,0.989583,Quarter,G4_D#4_A#3
683,Left,1,34,80,161.0,0.989583,Quarter,A#2_A#1
688,Right,0,65,80,162.0,0.989583,Quarter,G#3_F4
690,Left,1,34,80,162.0,0.989583,Quarter,A#2_A#1
692,Right,0,63,80,163.0,0.989583,Quarter,G3_D#4
693,Left,1,39,80,163.0,0.989583,Quarter,D#3_D#2
696,Right,0,82,120,164.0,0.239583,Sixteenth,A#5
697,Left,1,67,120,164.0,0.489583,Eighth,G4_E4
699,Right,0,84,120,164.25,0.239583,Sixteenth,C6
702,Right,0,82,120,164.5,0.239583,Sixteenth,A#5
700,Left,1,64,120,164.5,0.489583,Eighth,G4_E4
703,Right,0,81,120,164.75,0.239583,Sixteenth,A5
704,Right,0,82,120,165.0,0.989583,Quarter,A#5
705,Left,1,68,120,165.0,0.989583,Quarter,G#4_F4
707,Left,1,67,120,166.0,0.489583,Eighth,G4_E4
708,Right,0,82,120,166.0,0.239583,Sixteenth,A#5
710,Right,0,84,120,166.25,0.239583,Sixteenth,C6
712,Left,1,67,120,166.5,0.489583,Eighth,G4_E4
711,Right,0,82,120,166.5,0.239583,Sixteenth,A#5
714,Right,0,81,120,166.75,0.239583,Sixteenth,A5
716,Left,1,68,120,167.0,0.989583,Quarter,G#4_F4
715,Right,0,82,120,167.0,0.989583,Quarter,A#5
718,Right,0,56,120,168.0,0.989583,Quarter,G#3_F3_D4
719,Left,1,46,120,168.0,0.989583,Quarter,A#2_A#1
726,Right,0,51,120,170.0,1.989583,Half,F#3_D#4_D#3_A3
723,Left,1,35,120,170.0,1.989583,Half,F#2_D#2_B2_B1
731,Right,0,60,80,172.0,0.989583,Quarter,F4_D#4_C4
734,Left,1,45,80,172.0,0.989583,Quarter,A2_A1
736,Left,1,34,80,173.0,0.989583,Quarter,A#2_A#1
738,Right,0,58,80,173.0,0.989583,Quarter,G4_D#4_A#3
742,Right,0,65,80,174.0,0.989583,Quarter,G#3_F4_D4
741,Left,1,34,80,174.0,0.989583,Quarter,A#2_A#1
747,Right,0,63,80,175.0,0.989583,Quarter,G3_D#4
746,Left,1,39,80,175.0,0.489583,Eighth,D#2
749,Left,1,51,80,175.5,0.489583,Eighth,D#3
750,Right,0,68,80,176.0,0.489583,Eighth,G#4_D4
752,Right,0,67,80,176.5,0.489583,Eighth,G4_D#4
754,Left,1,39,80,177.0,0.489583,Eighth,D#2
755,Left,1,51,80,177.5,0.489583,Eighth,D#3
756,Right,0,68,80,178.0,0.489583,Eighth,G#4_D5
758,Right,0,67,80,178.5,0.489583,Eighth,G4_D#5
760,Left,1,39,80,179.0,0.489583,Eighth,D#2
761,Left,1,51,80,179.5,0.489583,Eighth,D#3
762,Right,0,74,80,180.0,0.489583,Eighth,G#5_D5
764,Right,0,75,80,180.5,0.489583,Eighth,G5_D#5
766,Left,1,39,80,181.0,0.489583,Eighth,D#2
767,Left,1,51,80,181.5,0.489583,Eighth,D#3
768,Right,0,80,80,182.0,0.489583,Eighth,G#5_D6
770,Right,0,79,80,182.5,0.489583,Eighth,G5_D#6
772,Left,1,39,80,183.0,0.989583,Quarter,D#2
773,Right,0,55,80,184.0,0.989583,Quarter,G3_D#4_A#3
777,Right,0,60,80,188.5,0.489583,Eighth,C4
776,Left,1,48,80,188.5,0.489583,Eighth,C3
778,Left,1,47,80,189.0,0.489583,Eighth,B2
779,Right,0,59,80,189.0,0.489583,Eighth,B3
780,Left,1,48,80,189.5,0.489583,Eighth,C3
781,Right,0,60,80,189.5,0.489583,Eighth,C4
783,Left,1,53,80,190.0,0.489583,Eighth,F3
782,Right,0,65,80,190.0,0.489583,Eighth,F4
785,Left,1,53,80,190.5,0.489583,Eighth,F3
784,Right,0,65,80,190.5,0.489583,Eighth,F4
787,Left,1,51,80,191.0,0.989583,Quarter,D#3
786,Right,0,63,80,191.0,0.989583,Quarter,D#4
789,Right,0,60,80,192.5,0.489583,Eighth,C4
788,Left,1,48,80,192.5,0.489583,Eighth,C3
790,Left,1,47,80,193.0,0.489583,Eighth,B2
791,Right,0,59,80,193.0,0.489583,Eighth,B3
792,Left,1,48,80,193.5,0.489583,Eighth,C3
793,Right,0,60,80,193.5,0.489583,Eighth,C4
794,Right,0,68,80,194.0,0.489583,Eighth,G#4
795,Left,1,56,80,194.0,0.489583,Eighth,G#3
796,Left,1,56,80,194.5,0.489583,Eighth,G#3
797,Right,0,68,80,194.5,0.489583,Eighth,G#4
799,Left,1,55,80,195.0,0.989583,Quarter,G3
798,Right,0,67,80,195.0,0.989583,Quarter,G4
800,Right,0,60,80,196.5,0.489583,Eighth,C4
801,Right,0,59,80,197.0,0.489583,Eighth,B3
802,Right,0,60,80,197.5,0.489583,Eighth,C4
803,Right,0,72,80,198.0,0.489583,Eighth,C5
804,Right,0,72,80,198.5,0.489583,Eighth,C5
806,Right,0,72,80,199.0,0.489583,Eighth,C5
805,Left,1,56,80,199.0,3.989583,Whole,G#3_F#4_C4
809,Right,0,74,80,199.5,0.239583,Sixteenth,D5
810,Right,0,72,80,199.625,0.239583,Sixteenth,C5
811,Right,0,71,80,199.75,0.239583,Sixteenth,B4
812,Right,0,72,80,199.875,0.114583,ThirtySecond,C5
813,Right,0,75,80,200.0,0.489583,Eighth,D#5
814,Right,0,74,80,200.5,0.489583,Eighth,D5
815,Right,0,77,80,201.0,0.489583,Eighth,F5
816,Right,0,75,80,201.5,0.489583,Eighth,D#5
817,Right,0,74,80,202.0,0.489583,Eighth,D5
818,Right,0,72,80,202.5,0.489583,Eighth,C5
820,Left,1,67,80,203.0,0.989583,Quarter,G4_G3_D4
819,Right,0,71,80,203.0,0.989583,Quarter,B4
823,Left,1,43,80,204.5,0.489583,Eighth,G2
824,Right,0,55,80,204.5,0.489583,Eighth,G3
825,Right,0,54,80,205.0,0.489583,Eighth,F#3
826,Left,1,42,80,205.0,0.489583,Eighth,F#2
827,Left,1,43,80,205.5,0.489583,Eighth,G2
828,Right,0,55,80,205.5,0.489583,Eighth,G3
830,Left,1,48,80,206.0,0.489583,Eighth,C3
829,Right,0,60,80,206.0,0.489583,Eighth,C4
832,Left,1,48,80,206.5,0.489583,Eighth,C3
831,Right,0,60,80,206.5,0.489583,Eighth,C4
833,Left,1,47,80,207.0,0.989583,Quarter,B2
834,Right,0,59,80,207.0,0.989583,Quarter,B3
835,Left,1,43,80,208.5,0.489583,Eighth,G2
836,Right,0,55,80,208.5,0.489583,Eighth,G3
837,Left,1,42,80,209.0,0.489583,Eighth,F#2
838,Right,0,54,80,209.0,0.489583,Eighth,F#3
840,Right,0,55,80,209.5,0.489583,Eighth,G3
839,Left,1,43,80,209.5,0.489583,Eighth,G2
842,Right,0,63,80,210.0,0.489583,Eighth,D#4
841,Left,1,51,80,210.0,0.489583,Eighth,D#3
843,Left,1,51,80,210.5,0.489583,Eighth,D#3
844,Right,0,63,80,210.5,0.489583,Eighth,D#4
845,Right,0,62,80,211.0,0.989583,Quarter,D4
846,Left,1,50,80,211.0,0.989583,Quarter,D3
847,Left,1,43,80,212.5,0.489583,Eighth,G2
848,Right,0,55,80,212.5,0.489583,Eighth,G3
849,Right,0,59,80,213.0,0.489583,Eighth,B3
850,Left,1,47,80,213.0,0.489583,Eighth,B2
852,Left,1,50,80,213.5,0.489583,Eighth,D3
851,Right,0,62,80,213.5,0.489583,Eighth,D4
853,Right,0,65,80,214.0,0.489583,Eighth,F4
854,Left,1,53,80,214.0,0.489583,Eighth,F3
856,Right,0,68,80,214.5,0.489583,Eighth,G#4
855,Left,1,56,80,214.5,0.489583,Eighth,G#3
858,Right,0,71,80,215.0,0.489583,Eighth,B4
857,Left,1,59,80,215.0,0.489583,Eighth,B3
860,Left,1,62,80,215.5,0.489583,Eighth,D4
859,Right,0,74,80,215.5,0.489583,Eighth,D5
861,Left,1,65,80,216.0,0.489583,Eighth,F4
862,Right,0,77,80,216.0,0.489583,Eighth,F5
863,Left,1,68,80,216.5,0.489583,Eighth,G#4
864,Right,0,80,80,216.5,0.489583,Eighth,G#5
866,Right,0,79,80,217.0,0.489583,Eighth,G5
865,Left,1,67,80,217.0,0.489583,Eighth,G4
868,Right,0,77,80,217.5,0.489583,Eighth,F5
867,Left,1,65,80,217.5,0.489583,Eighth,F4
869,Left,1,63,80,218.0,0.489583,Eighth,D#4
870,Right,0,75,80,218.0,0.489583,Eighth,D#5
871,Right,0,74,80,218.5,0.489583,Eighth,D5
872,Left,1,62,80,218.5,0.489583,Eighth,D4
874,Left,1,60,80,219.0,0.489583,Eighth,C4
873,Right,0,72,80,219.0,0.989583,Quarter,C5
875,Left,1,63,80,219.5,0.489583,Eighth,G4_D#4
877,Left,1,63,80,220.0,0.489583,Eighth,G4_D#4
879,Right,0,72,80,220.5,0.489583,Eighth,C5
880,Left,1,67,80,220.5,0.489583,Eighth,G4_D#4
882,Right,0,71,80,221.0,0.489583,Eighth,B4
883,Left,1,60,80,221.0,0.489583,Eighth,C4
884,Left,1,70,80,221.5,0.489583,Eighth,G4_E4_A#4
885,Right,0,72,80,221.5,0.489583,Eighth,C5
888,Left,1,64,80,222.0,0.489583,Eighth,G4_E4_A#4
891,Right,0,84,80,222.0,0.489583,Eighth,C6
892,Right,0,84,80,222.5,0.489583,Eighth,C6
893,Left,1,70,80,222.5,0.489583,Eighth,G4_E4_A#4
897,Left,1,60,80,223.0,0.489583,Eighth,C4
896,Right,0,84,80,223.0,0.989583,Quarter,C6
898,Left,1,68,80,223.5,0.489583,Eighth,G#4_F4
900,Left,1,68,80,224.0,0.489583,Eighth,G#4_F4
903,Right,0,89,80,224.5,0.489583,Eighth,F6
902,Left,1,68,80,224.5,0.489583,Eighth,G#4_F4
906,Left,1,60,80,225.0,0.489583,Eighth,C4
905,Right,0,87,80,225.0,0.489583,Eighth,D#6
908,Left,1,71,80,225.5,0.489583,Eighth,G#4_F4_B4
907,Right,0,86,80,225.5,0.489583,Eighth,D6
911,Left,1,68,80,226.0,0.489583,Eighth,G#4_F4_B4
913,Right,0,84,80,226.0,0.489583,Eighth,C6
918,Right,0,83,80,226.5,0.489583,Eighth,B5
915,Left,1,65,80,226.5,0.489583,Eighth,G#4_F4_B4
919,Left,1,60,80,227.0,0.489583,Eighth,C4
920,Right,0,86,80,227.0,0.489583,Eighth,D6
922,Left,1,63,80,227.5,0.489583,Eighth,G4_D#4
921,Right,0,84,80,227.5,0.489583,Eighth,C6
924,Left,1,63,80,228.0,0.489583,Eighth,G4_D#4
926,Right,0,72,80,228.5,0.489583,Eighth,C5
927,Left,1,63,80,228.5,0.489583,Eighth,G4_D#4
929,Left,1,60,80,229.0,0.489583,Eighth,C4
930,Right,0,71,80,229.0,0.489583,Eighth,B4
933,Right,0,72,80,229.5,0.489583,Eighth,C5
931,Left,1,70,80,229.5,0.489583,Eighth,G4_E4_A#4
935,Right,0,84,80,230.0,0.489583,Eighth,C6
936,Left,1,67,80,230.0,0.489583,Eighth,G4_E4_A#4
940,Left,1,70,80,230.5,0.489583,Eighth,G4_E4_A#4
939,Right,0,84,80,230.5,0.489583,Eighth,C6
944,Right,0,84,80,231.0,0.489583,Eighth,C6
943,Left,1,60,80,231.0,0.489583,Eighth,C4
946,Right,0,86,80,231.5,0.15625,TripletSixteenth,D6
945,Left,1,65,80,231.5,0.489583,Eighth,G#4_F4
948,Right,0,84,80,231.666667,0.15625,TripletSixteenth,C6
949,Right,0,83,80,231.833333,0.15625,TripletSixteenth,B5
950,Right,0,84,80,232.0,0.489583,Eighth,C6
951,Left,1,68,80,232.0,0.489583,Eighth,G#4_F4
953,Right,0,89,80,232.5,0.489583,Eighth,F6
954,Left,1,68,80,232.5,0.489583,Eighth,G#4_F4
957,Left,1,60,80,233.0,0.489583,Eighth,C4
956,Right,0,87,80,233.0,0.489583,Eighth,D#6
959,Left,1,68,80,233.5,0.489583,Eighth,G#4_F4_B4
958,Right,0,86,80,233.5,0.489583,Eighth,D6
965,Right,0,84,80,234.0,0.489583,Eighth,C6
962,Left,1,65,80,234.0,0.489583,Eighth,G#4_F4_B4
966,Left,1,65,80,234.5,0.489583,Eighth,G#4_F4_B4
969,Right,0,83,80,234.5,0.489583,Eighth,B5
970,Left,1,63,80,235.0,0.989583,Quarter,G4_D#4_C5_C4
973,Right,0,84,80,235.0,0.239583,Sixteenth,C6
975,Right,0,86,80,235.25,0.239583,Sixteenth,D6
976,Right,0,84,81,235.5,0.239583,Sixteenth,C6
977,Right,0,83,82,235.75,0.239583,Sixteenth,B5
978,Right,0,84,83,236.0,0.239583,Sixteenth,C6
979,Right,0,87,83,236.25,0.239583,Sixteenth,D#6
981,Left,1,66,84,236.5,0.489583,Eighth,F#4
980,Right,0,86,84,236.5,0.239583,Sixteenth,D6
982,Right,0,84,85,236.75,0.239583,Sixteenth,C6
984,Left,1,67,86,237.0,0.989583,Quarter,G4
983,Right,0,83,86,237.0,0.239583,Sixteenth,B5
985,Right,0,84,87,237.25,0.239583,Sixteenth,C6
986,Right,0,83,87,237.5,0.239583,Sixteenth,B5
987,Right,0,80,88,237.75,0.239583,Sixteenth,G#5
988,Right,0,79,89,238.0,0.239583,Sixteenth,G5
989,Right,0,77,90,238.25,0.239583,Sixteenth,F5
991,Right,0,75,91,238.5,0.239583,Sixteenth,D#5
990,Left,1,59,91,238.5,0.489583,Eighth,B3
992,Right,0,74,91,238.75,0.239583,Sixteenth,D5
993,Right,0,72,92,239.0,0.239583,Sixteenth,C5
994,Left,1,60,92,239.0,0.989583,Quarter,C4
995,Right,0,74,93,239.25,0.239583,Sixteenth,D5
996,Right,0,72,94,239.5,0.239583,Sixteenth,C5
997,Right,0,71,94,239.75,0.239583,Sixteenth,B4
998,Right,0,72,95,240.0,0.239583,Sixteenth,C5
999,Right,0,75,96,240.25,0.239583,Sixteenth,D#5
1000,Left,1,54,97,240.5,0.489583,Eighth,F#3
1001,Right,0,74,97,240.5,0.239583,Sixteenth,D5
1002,Right,0,72,98,240.75,0.239583,Sixteenth,C5
1004,Right,0,71,98,241.0,0.239583,Sixteenth,B4
1003,Left,1,55,98,241.0,0.989583,Quarter,G3
1005,Right,0,72,99,241.25,0.239583,Sixteenth,C5
1006,Right,0,71,100,241.5,0.239583,Sixteenth,B4
1007,Right,0,68,101,241.75,0.239583,Sixteenth,G#4
1008,Right,0,67,102,242.0,0.239583,Sixteenth,G4
1009,Right,0,65,102,242.25,0.239583,Sixteenth,F4
1010,Right,0,63,103,242.5,0.239583,Sixteenth,D#4
1011,Left,1,47,103,242.5,0.489583,Eighth,B2
1012,Right,0,62,104,242.75,0.239583,Sixteenth,D4
1014,Right,0,60,105,243.0,0.239583,Sixteenth,C4
1013,Left,1,48,105,243.0,0.989583,Quarter,C3
1015,Right,0,62,106,243.25,0.239583,Sixteenth,D4
1016,Right,0,60,106,243.5,0.239583,Sixteenth,C4
1017,Right,0,59,107,243.75,0.239583,Sixteenth,B3
1018,Right,0,60,108,244.0,0.239583,Sixteenth,C4
1019,Right,0,63,109,244.25,0.239583,Sixteenth,D#4
1020,Right,0,62,109,244.5,0.239583,Sixteenth,D4
1021,Left,1,42,109,244.5,0.489583,Eighth,F#2
1022,Right,0,60,110,244.75,0.239583,Sixteenth,C4
1023,Left,1,43,110,245.0,0.989583,Quarter,G2
1024,Right,0,59,110,245.0,0.239583,Sixteenth,B3
1025,Right,0,67,110,245.25,0.239583,Sixteenth,G4
1026,Right,0,62,110,245.5,0.239583,Sixteenth,D4
1027,Right,0,59,110,245.75,0.239583,Sixteenth,B3
1028,Right,0,55,110,246.0,0.239583,Sixteenth,G3
1029,Left,1,48,110,246.0,0.989583,Quarter,C3_C2
1031,Right,0,67,110,246.25,0.239583,Sixteenth,G4
1032,Right,0,63,110,246.5,0.239583,Sixteenth,D#4
1033,Right,0,60,110,246.75,0.239583,Sixteenth,C4
1034,Left,1,43,110,247.0,0.989583,Quarter,G2_G1
1035,Right,0,55,110,247.0,0.239583,Sixteenth,G3
1037,Right,0,67,110,247.25,0.239583,Sixteenth,G4
1038,Right,0,62,110,247.5,0.239583,Sixteenth,D4
1039,Right,0,59,110,247.75,0.239583,Sixteenth,B3
1042,Right,0,55,110,248.0,0.239583,Sixteenth,G3
1040,Left,1,48,110,248.0,0.989583,Quarter,C3_C2
1043,Right,0,67,110,248.25,0.239583,Sixteenth,G4
1044,Right,0,63,110,248.5,0.239583,Sixteenth,D#4
1045,Right,0,60,110,248.75,0.239583,Sixteenth,C4
1046,Left,1,31,110,249.0,0.989583,Quarter,G2_G1
1048,Right,0,55,110,249.0,0.239583,Sixteenth,G3
1049,Right,0,67,110,249.25,0.239583,Sixteenth,G4
1050,Right,0,62,110,249.5,0.239583,Sixteenth,D4
1051,Right,0,59,110,249.75,0.239583,Sixteenth,B3
1052,Right,0,55,110,250.0,0.239583,Sixteenth,G3
1053,Left,1,48,110,250.0,0.989583,Quarter,C3_C2
1055,Right,0,67,110,250.25,0.239583,Sixteenth,G4
1056,Right,0,63,110,250.5,0.239583,Sixteenth,D#4
1057,Right,0,60,110,250.75,0.239583,Sixteenth,C4
1058,Right,0,59,120,251.0,5.989583,Unknown,G4_G3_D4_B3
1062,Left,1,38,120,251.0,5.989583,Unknown,G2_G1_D2_B1
1066,Right,0,58,80,257.5,0.489583,Eighth,A#3
1067,Right,0,60,80,258.0,0.489583,Eighth,C4
1068,Right,0,62,80,258.5,0.489583,Eighth,D4
1072,Left,1,39,80,259.0,1.989583,Half,D#3_D#2
1069,Right,0,55,80,259.0,1.989583,Half,G3_D#4_A#3
1074,Right,0,65,80,259.5,0.489583,Eighth,F4
1075,Right,0,67,80,260.0,0.989583,Quarter,G4
1076,Right,0,58,80,261.0,0.989583,Quarter,F4_D4_A#3
1077,Left,1,44,80,261.0,0.989583,Quarter,G#3_G#2
1081,Right,0,58,80,262.0,0.989583,Quarter,D#4_A#3
1083,Left,1,43,80,262.0,0.989583,Quarter,G3_G2
1087,Right,0,68,80,263.0,1.989583,Half,G#4_G#3_D4_A#3
1085,Left,1,41,80,263.0,1.989583,Half,F3_F2_A#2
1092,Right,0,58,80,265.5,0.489583,Eighth,A#3
1093,Right,0,60,80,266.0,0.489583,Eighth,C4
1094,Right,0,62,80,266.5,0.489583,Eighth,D4
1095,Right,0,63,80,267.0,1.989583,Half,G3_D#4_A#3
1096,Left,1,51,80,267.0,1.989583,Half,D#3_D#2
1100,Right,0,65,80,267.5,0.489583,Eighth,F4
1101,Right,0,67,80,268.0,0.989583,Quarter,G4
1102,Left,1,44,80,269.0,0.989583,Quarter,G#2_G#1
1103,Right,0,65,80,269.0,0.989583,Quarter,F4_F3_C4
1107,Left,1,33,80,270.0,0.989583,Quarter,A2_A1
1108,Right,0,63,80,270.0,0.989583,Quarter,F3_D#4_C4
1114,Left,1,34,80,271.0,1.989583,Half,A#2_A#1
1112,Right,0,58,80,271.0,1.989583,Half,F3_D3_A#3
1117,Right,0,58,80,273.5,0.489583,Eighth,A#3
1118,Right,0,60,80,274.0,0.489583,Eighth,C4
1119,Right,0,62,80,274.5,0.489583,Eighth,D4
1121,Left,1,39,80,275.0,1.989583,Half,D#3_D#2
1120,Right,0,63,80,275.0,0.489583,Eighth,D#4
1123,Right,0,65,80,275.5,0.489583,Eighth,F4
1124,Right,0,67,80,276.0,0.989583,Quarter,G4
1125,Left,1,44,80,277.0,0.989583,Quarter,G#3_G#2
1127,Right,0,65,80,277.0,0.989583,Quarter,F4_D4_A#3
1131,Left,1,43,80,278.0,0.989583,Quarter,G3_G2
1130,Right,0,63,80,278.0,0.989583,Quarter,D#4_A#3
1134,Left,1,44,110,279.0,0.989583,Quarter,G#2
1135,Right,0,60,110,279.0,0.364583,DottedSixteenth,C4
1137,Left,1,48,110,279.125,0.864583,DottedEighth,C3
1136,Right,0,63,110,279.125,0.239583,Sixteenth,D#4
1138,Left,1,51,110,279.25,0.739583,DottedEighth,D#3
1139,Right,0,68,110,279.25,0.114583,ThirtySecond,G#4
1141,Left,1,56,110,279.375,0.614583,Eighth,G#3
1140,Right,0,72,110,279.375,2.114583,Half,C5
1142,Right,0,72,80,281.5,0.489583,Eighth,C5
1143,Right,0,70,80,282.0,0.489583,Eighth,A#4
1144,Right,0,68,80,282.5,0.489583,Eighth,G#4
1146,Right,0,67,102,283.0,0.489583,Eighth,G4
1145,Left,1,46,80,283.0,7.989583,Unknown,A#2
1147,Right,0,65,80,283.5,0.489583,Eighth,F4
1148,Right,0,63,80,284.0,0.489583,Eighth,D#4
1149,Right,0,62,80,284.5,0.489583,Eighth,D4
1150,Right,0,56,80,285.0,1.989583,Half,G#3_F3_C4
1153,Left,1,34,80,285.5,0.489583,Eighth,A#1
1155,Right,0,58,80,286.0,0.989583,Quarter,A#3
1154,Left,1,36,80,286.0,0.489583,Eighth,C2
1156,Left,1,38,80,286.5,0.489583,Eighth,D2
1160,Left,1,39,80,287.0,0.489583,Eighth,D#2
1157,Right,0,58,80,287.0,1.989583,Half,G3_D#3_A#3
1161,Left,1,41,80,287.5,0.489583,Eighth,F2
1162,Left,1,43,80,288.0,0.989583,Quarter,G2
1163,Left,1,41,80,289.0,0.989583,Quarter,F2
1164,Right,0,70,80,289.5,0.489583,Eighth,A#4
1166,Right,0,68,80,290.0,0.489583,Eighth,G#4
1165,Left,1,39,80,290.0,0.989583,Quarter,D#2
1167,Right,0,67,80,290.5,0.489583,Eighth,G4
1169,Right,0,67,103,291.0,0.489583,Eighth,G4
1168,Left,1,46,80,291.0,7.989583,Unknown,A#2
1170,Right,0,65,80,291.5,0.489583,Eighth,F4
1171,Right,0,63,80,292.0,0.489583,Eighth,D#4
1172,Right,0,62,80,292.5,0.489583,Eighth,D4
1173,Right,0,60,80,293.0,1.989583,Half,G#3_F3_C4
1176,Left,1,34,80,293.5,0.489583,Eighth,A#1
1178,Left,1,36,80,294.0,0.489583,Eighth,C2
1177,Right,0,58,80,294.0,0.989583,Quarter,A#3
1179,Left,1,38,80,294.5,0.489583,Eighth,D2
1180,Right,0,51,80,295.0,1.989583,Half,G3_D#3_A#3
1183,Left,1,39,80,295.0,0.489583,Eighth,D#2
1184,Left,1,41,80,295.5,0.489583,Eighth,F2
1185,Left,1,43,80,296.0,0.989583,Quarter,G2
1186,Left,1,41,80,297.0,0.989583,Quarter,F2
1187,Right,0,82,80,297.5,0.489583,Eighth,A#5_A#4
1190,Left,1,39,80,298.0,0.989583,Quarter,D#2
1189,Right,0,80,80,298.0,0.489583,Eighth,G#5_G#4
1192,Right,0,79,80,298.5,0.489583,Eighth,G5_G4
1197,Right,0,79,80,299.0,0.489583,Eighth,G5_G4
1194,Left,1,53,80,299.0,0.989583,Quarter,G2_F3_C3
1199,Right,0,77,80,299.5,0.489583,Eighth,F5_F4
1201,Right,0,75,80,300.0,0.489583,Eighth,D#5_D#4
1203,Right,0,74,80,300.5,0.489583,Eighth,D5_D4
1207,Right,0,72,80,301.0,0.489583,Eighth,C5_C4
1205,Left,1,53,80,301.0,0.989583,Quarter,G#3_F3_A#2
1210,Right,0,70,80,301.5,0.489583,Eighth,A#4_A#3
1212,Right,0,72,80,302.0,0.489583,Eighth,C5_C4
1214,Right,0,74,80,302.5,0.489583,Eighth,D5_D4
1216,Right,0,63,80,303.0,0.239583,Sixteenth,D#4
1217,Left,1,55,80,303.0,0.989583,Quarter,G3_D#3
1219,Right,0,75,80,303.25,0.239583,Sixteenth,D#5
1220,Right,0,63,81,303.5,0.239583,Sixteenth,D#4
1221,Right,0,75,81,303.75,0.239583,Sixteenth,D#5
1222,Right,0,63,82,304.0,0.239583,Sixteenth,D#4
1223,Right,0,75,83,304.25,0.239583,Sixteenth,D#5
1225,Left,1,51,83,304.5,0.489583,Eighth,D#3
1224,Right,0,63,83,304.5,0.239583,Sixteenth,D#4
1226,Right,0,75,84,304.75,0.239583,Sixteenth,D#5
1227,Left,1,50,85,305.0,0.489583,Eighth,D3
1228,Right,0,63,85,305.0,0.239583,Sixteenth,D#4
1229,Right,0,75,85,305.25,0.239583,Sixteenth,D#5
1231,Left,1,51,86,305.5,0.489583,Eighth,D#3
1230,Right,0,63,86,305.5,0.239583,Sixteenth,D#4
1232,Right,0,75,87,305.75,0.239583,Sixteenth,D#5
1233,Right,0,63,87,306.0,0.239583,Sixteenth,D#4
1234,Left,1,56,87,306.0,0.489583,Eighth,G#3_C3
1236,Right,0,75,88,306.25,0.239583,Sixteenth,D#5
1238,Left,1,48,88,306.5,0.489583,Eighth,G#3_C3
1237,Right,0,63,88,306.5,0.239583,Sixteenth,D#4
1240,Right,0,75,89,306.75,0.239583,Sixteenth,D#5
1243,Right,0,63,90,307.0,0.239583,Sixteenth,D#4
1241,Left,1,46,90,307.0,0.989583,Quarter,G3_A#2
1244,Right,0,75,90,307.25,0.239583,Sixteenth,D#5
1245,Right,0,63,91,307.5,0.239583,Sixteenth,D#4
1246,Right,0,75,92,307.75,0.239583,Sixteenth,D#5
1247,Right,0,63,92,308.0,0.239583,Sixteenth,D#4
1248,Right,0,75,93,308.25,0.239583,Sixteenth,D#5
1250,Right,0,63,94,308.5,0.239583,Sixteenth,D#4
1249,Left,1,51,94,308.5,0.489583,Eighth,D#3
1251,Right,0,75,94,308.75,0.239583,Sixteenth,D#5
1252,Right,0,63,95,309.0,0.239583,Sixteenth,D#4
1253,Left,1,50,95,309.0,0.489583,Eighth,D3
1254,Right,0,75,95,309.25,0.239583,Sixteenth,D#5
1256,Right,0,63,96,309.5,0.239583,Sixteenth,D#4
1255,Left,1,51,96,309.5,0.489583,Eighth,D#3
1257,Right,0,75,97,309.75,0.239583,Sixteenth,D#5
1260,Right,0,63,97,310.0,0.239583,Sixteenth,D#4
1258,Left,1,60,97,310.0,0.489583,Eighth,G#3_C4
1261,Right,0,75,98,310.25,0.239583,Sixteenth,D#5
1262,Right,0,63,99,310.5,0.239583,Sixteenth,D#4
1263,Left,1,56,99,310.5,0.489583,Eighth,G#3_C4
1265,Right,0,75,99,310.75,0.239583,Sixteenth,D#5
1266,Left,1,58,100,311.0,0.489583,Eighth,G3_A#3
1267,Right,0,63,100,311.0,0.989583,Quarter,D#5_D#4
1270,Left,1,51,101,311.5,0.239583,Sixteenth,D#3
1271,Left,1,63,102,311.75,0.239583,Sixteenth,D#4
1272,Left,1,51,102,312.0,0.239583,Sixteenth,D#3
1273,Left,1,63,103,312.25,0.239583,Sixteenth,D#4
1274,Right,0,75,104,312.5,0.489583,Eighth,D#5
1275,Left,1,51,104,312.5,0.239583,Sixteenth,D#3
1276,Left,1,63,104,312.75,0.239583,Sixteenth,D#4
1277,Right,0,74,105,313.0,0.489583,Eighth,D5
1278,Left,1,51,105,313.0,0.239583,Sixteenth,D#3
1279,Left,1,63,106,313.25,0.239583,Sixteenth,D#4
1281,Left,1,51,106,313.5,0.239583,Sixteenth,D#3
1280,Right,0,75,106,313.5,0.489583,Eighth,D#5
1282,Left,1,63,107,313.75,0.239583,Sixteenth,D#4
1283,Left,1,51,108,314.0,0.239583,Sixteenth,D#3
1284,Right,0,84,108,314.0,0.489583,Eighth,G#5_C6
1286,Left,1,63,108,314.25,0.239583,Sixteenth,D#4
1287,Right,0,84,109,314.5,0.489583,Eighth,G#5_C6
1289,Left,1,51,109,314.5,0.239583,Sixteenth,D#3
1290,Left,1,63,109,314.75,0.239583,Sixteenth,D#4
1291,Right,0,80,120,315.0,1.239583,Quarter,G#5_C6
1292,Left,1,51,120,315.0,3.989583,Whole,G#3_F3_D4_D#3_A#3
1298,Right,0,82,120,316.25,0.239583,Sixteenth,A#5
1299,Right,0,80,120,316.5,0.239583,Sixteenth,G#5
1300,Right,0,79,120,316.75,0.239583,Sixteenth,G5
1301,Right,0,77,120,317.0,0.239583,Sixteenth,F5
1302,Right,0,75,120,317.25,0.239583,Sixteenth,D#5
1303,Right,0,74,120,317.5,0.239583,Sixteenth,D5
1304,Right,0,72,120,317.75,0.239583,Sixteenth,C5
1305,Right,0,71,120,318.0,0.239583,Sixteenth,B4
1306,Right,0,70,120,318.25,0.239583,Sixteenth,A#4
1307,Right,0,69,120,318.5,0.239583,Sixteenth,A4
1308,Right,0,68,120,318.75,0.239583,Sixteenth,G#4
1309,Left,1,58,120,319.0,0.989583,Quarter,G3_D#4_D#3_A#3
1313,Right,0,67,120,319.0,0.322917,Triplet,G4
1314,Right,0,68,120,319.333333,0.322917,Triplet,G#4
1315,Right,0,70,120,319.666667,0.322917,Triplet,A#4
1316,Right,0,68,120,320.0,0.322917,Triplet,G#4
1317,Right,0,67,120,320.333333,0.322917,Triplet,G4
1318,Right,0,65,120,320.666667,0.322917,Triplet,F4
1319,Right,0,63,120,321.0,0.322917,Triplet,D#4
1320,Right,0,62,120,321.333333,0.322917,Triplet,D4
1321,Right,0,60,120,321.666667,0.322917,Triplet,C4
1322,Right,0,58,120,322.0,0.322917,Triplet,A#3
1323,Right,0,56,120,322.333333,0.322917,Triplet,G#3
1324,Right,0,55,120,322.666667,0.322917,Triplet,G3
1325,Left,1,32,120,323.0,0.989583,Quarter,G#2_G#1
1327,Right,0,53,120,323.25,0.239583,Sixteenth,F3
1328,Right,0,56,120,323.5,0.239583,Sixteenth,G#3
1329,Right,0,60,120,323.75,0.239583,Sixteenth,C4
1330,Right,0,65,120,324.0,0.989583,Quarter,F4
1331,Left,1,44,120,324.5,0.489583,Eighth,G#2_G#1
1333,Left,1,34,120,325.0,0.989583,Quarter,A#2_A#1
1335,Right,0,53,120,325.25,0.239583,Sixteenth,F3
1336,Right,0,56,120,325.5,0.239583,Sixteenth,G#3
1337,Right,0,58,120,325.75,0.239583,Sixteenth,A#3
1338,Right,0,62,120,326.0,0.989583,Quarter,D4
1339,Left,1,46,120,326.5,0.489583,Eighth,A#2_A#1
1341,Right,0,74,120,327.0,0.239583,Sixteenth,D5
1342,Right,0,86,120,327.25,0.239583,Sixteenth,D6
1343,Right,0,74,120,327.5,0.239583,Sixteenth,D5
1344,Left,1,68,120,327.5,0.239583,Sixteenth,G#4
1346,Left,1,70,120,327.75,0.239583,Sixteenth,A#4
1345,Right,0,86,120,327.75,0.239583,Sixteenth,D6
1348,Right,0,74,120,328.0,0.239583,Sixteenth,D5
1347,Left,1,72,120,328.0,0.239583,Sixteenth,C5
1349,Left,1,70,120,328.25,0.239583,Sixteenth,A#4
1350,Right,0,86,120,328.25,0.239583,Sixteenth,D6
1351,Left,1,68,120,328.5,0.239583,Sixteenth,G#4
1352,Right,0,74,120,328.5,0.239583,Sixteenth,D5
1353,Left,1,67,120,328.75,0.239583,Sixteenth,G4
1354,Right,0,86,120,328.75,0.239583,Sixteenth,D6
1355,Left,1,65,120,329.0,0.322917,Triplet,F4
1356,Right,0,74,120,329.0,0.239583,Sixteenth,D5
1357,Right,0,86,120,329.25,0.239583,Sixteenth,D6
1358,Left,1,63,120,329.333333,0.322917,Triplet,D#4
1359,Right,0,74,120,329.5,0.239583,Sixteenth,D5
1360,Left,1,62,120,329.666667,0.322917,Triplet,D4
1361,Right,0,86,120,329.75,0.239583,Sixteenth,D6
1362,Right,0,74,120,330.0,0.239583,Sixteenth,D5
1363,Left,1,60,120,330.0,0.322917,Triplet,C4
1364,Right,0,86,120,330.25,0.239583,Sixteenth,D6
1365,Left,1,58,120,330.333333,0.322917,Triplet,A#3
1366,Right,0,74,120,330.5,0.239583,Sixteenth,D5
1367,Left,1,56,120,330.666667,0.322917,Triplet,G#3
1368,Right,0,86,120,330.75,0.239583,Sixteenth,D6
1369,Right,0,75,120,331.0,0.239583,Sixteenth,D#5
1370,Left,1,55,120,331.0,0.322917,Triplet,G3
1371,Right,0,87,120,331.25,0.239583,Sixteenth,D#6
1372,Left,1,56,120,331.333333,0.322917,Triplet,G#3
1373,Right,0,75,120,331.5,0.239583,Sixteenth,D#5
1374,Left,1,58,120,331.666667,0.322917,Triplet,A#3
1375,Right,0,87,120,331.75,0.239583,Sixteenth,D#6
1376,Right,0,75,120,332.0,0.239583,Sixteenth,D#5
1377,Left,1,56,120,332.0,0.322917,Triplet,G#3
1378,Right,0,87,120,332.25,0.239583,Sixteenth,D#6
1379,Left,1,55,120,332.333333,0.322917,Triplet,G3
1380,Right,0,75,120,332.5,0.239583,Sixteenth,D#5
1381,Left,1,53,120,332.666667,0.322917,Triplet,F3
1382,Right,0,87,120,332.75,0.239583,Sixteenth,D#6
1384,Right,0,75,120,333.0,0.239583,Sixteenth,D#5
1383,Left,1,51,120,333.0,0.322917,Triplet,D#3
1385,Right,0,87,120,333.25,0.239583,Sixteenth,D#6
1386,Left,1,50,120,333.333333,0.322917,Triplet,D3
1387,Right,0,75,120,333.5,0.239583,Sixteenth,D#5
1388,Left,1,48,120,333.666667,0.322917,Triplet,C3
1389,Right,0,87,120,333.75,0.239583,Sixteenth,D#6
1391,Right,0,76,120,334.0,0.239583,Sixteenth,E5
1390,Left,1,46,120,334.0,0.322917,Triplet,A#2
1392,Right,0,88,120,334.25,0.239583,Sixteenth,E6
1393,Left,1,44,120,334.333333,0.322917,Triplet,G#2
1394,Right,0,76,120,334.5,0.239583,Sixteenth,E5
1395,Left,1,43,120,334.666667,0.322917,Triplet,G2
1396,Right,0,88,120,334.75,0.239583,Sixteenth,E6
1397,Left,1,44,120,335.0,0.989583,Quarter,G#2_G#1
1399,Right,0,77,120,335.25,0.239583,Sixteenth,F5
1400,Right,0,80,120,335.5,0.239583,Sixteenth,G#5
1401,Right,0,84,120,335.75,0.239583,Sixteenth,C6
1402,Right,0,89,120,336.0,0.989583,Quarter,F6
1403,Left,1,32,120,336.5,0.489583,Eighth,G#2_G#1
1405,Left,1,34,120,337.0,0.989583,Quarter,A#2_A#1
1407,Right,0,74,120,337.25,0.239583,Sixteenth,D5
1408,Right,0,77,120,337.5,0.239583,Sixteenth,F5
1409,Right,0,80,120,337.75,0.239583,Sixteenth,G#5
1410,Right,0,86,120,338.0,0.989583,Quarter,D6
1411,Left,1,34,120,338.5,0.489583,Eighth,A#2_A#1
1413,Left,1,39,120,339.0,0.989583,Quarter,G2_D#3_D#2_A#2
1417,Right,0,82,120,339.0,0.989583,Quarter,G5_D#6_D#5_A#5
1421,Left,1,64,120,340.0,0.489583,Eighth,G4_E4
1423,Right,0,82,120,340.0,0.489583,Eighth,A#5
1424,Left,1,64,120,340.5,0.489583,Eighth,G4_E4
1426,Right,0,82,120,340.5,0.489583,Eighth,A#5
1428,Left,1,65,120,341.0,0.989583,Quarter,G#4_F4
1427,Right,0,82,120,341.0,0.989583,Quarter,A#5
1431,Left,1,67,120,342.0,0.489583,Eighth,G4_E4
1430,Right,0,82,120,342.0,0.489583,Eighth,A#5
1433,Right,0,82,120,342.5,0.489583,Eighth,A#5
1434,Left,1,67,120,342.5,0.489583,Eighth,G4_E4
1438,Right,0,82,120,343.0,0.989583,Quarter,A#5
1436,Left,1,65,120,343.0,0.989583,Quarter,G#4_F4
1440,Right,0,62,120,344.0,0.989583,Quarter,G#3_F3_D4
1439,Left,1,46,120,344.0,0.989583,Quarter,A#2_A#1
1444,Right,0,56,80,346.0,0.989583,Quarter,G#3_F3_D4
1446,Left,1,35,80,346.0,0.989583,Quarter,B2_B1
1450,Left,1,48,80,347.0,0.989583,Quarter,C3_C2
1449,Right,0,63,80,347.0,0.989583,Quarter,G3_D#4_D#3
1456,Right,0,63,80,348.0,0.989583,Quarter,F4_D#4_C4
1454,Left,1,45,80,348.0,0.989583,Quarter,A2_A1
1459,Right,0,67,80,349.0,0.989583,Quarter,G4_D#4_A#3
1462,Left,1,34,80,349.0,0.989583,Quarter,A#2_A#1
1466,Right,0,56,80,350.0,0.989583,Quarter,G#3_F4
1464,Left,1,46,80,350.0,0.989583,Quarter,A#2_A#1
1469,Left,1,51,80,351.0,0.989583,Quarter,D#3_D#2
1468,Right,0,63,80,351.0,0.989583,Quarter,G3_D#4
1473,Left,1,67,120,352.0,0.489583,Eighth,G4_E4
1472,Right,0,82,120,352.0,0.239583,Sixteenth,A#5
1475,Right,0,84,120,352.25,0.239583,Sixteenth,C6
1476,Right,0,82,120,352.5,0.239583,Sixteenth,A#5
1477,Left,1,67,120,352.5,0.489583,Eighth,G4_E4
1479,Right,0,81,120,352.75,0.239583,Sixteenth,A5
1480,Left,1,68,120,353.0,0.989583,Quarter,G#4_F4
1481,Right,0,82,120,353.0,0.989583,Quarter,A#5
1485,Right,0,82,120,354.0,0.239583,Sixteenth,A#5
1483,Left,1,64,120,354.0,0.489583,Eighth,G4_E4
1486,Right,0,84,120,354.25,0.239583,Sixteenth,C6
1487,Left,1,64,120,354.5,0.489583,Eighth,G4_E4
1489,Right,0,82,120,354.5,0.239583,Sixteenth,A#5
1490,Right,0,81,120,354.75,0.239583,Sixteenth,A5
1491,Right,0,82,120,355.0,0.989583,Quarter,A#5
1492,Left,1,65,120,355.0,0.989583,Quarter,G#4_F4
1496,Right,0,62,120,356.0,0.989583,Quarter,G#3_F3_D4
1494,Left,1,34,120,356.0,0.989583,Quarter,A#2_A#1
1500,Right,0,63,120,358.0,1.989583,Half,F#3_D#4_D#3_A3
1499,Left,1,47,120,358.0,1.989583,Half,F#2_D#2_B2_B1
1509,Right,0,65,80,360.0,0.989583,Quarter,F4_D#4_C4
1507,Left,1,33,80,360.0,0.989583,Quarter,A2_A1
1515,Left,1,46,80,361.0,0.989583,Quarter,A#2_A#1
1512,Right,0,58,80,361.0,0.989583,Quarter,G4_D#4_A#3
1520,Left,1,46,80,362.0,0.989583,Quarter,A#2_A#1
1517,Right,0,62,80,362.0,0.989583,Quarter,G#3_F4_D4
1524,Left,1,39,80,363.0,0.489583,Eighth,D#2
1522,Right,0,63,80,363.0,0.989583,Quarter,G3_D#4
1525,Left,1,51,80,363.5,0.489583,Eighth,D#3
1526,Right,0,62,80,364.0,0.489583,Eighth,G#4_D4
1528,Right,0,63,80,364.5,0.489583,Eighth,G4_D#4
1530,Left,1,39,80,365.0,0.489583,Eighth,D#2
1531,Left,1,51,80,365.5,0.489583,Eighth,D#3
1532,Right,0,68,80,366.0,0.489583,Eighth,G#4_D5
1534,Right,0,67,80,366.5,0.489583,Eighth,G4_D#5
1536,Left,1,39,80,367.0,0.489583,Eighth,D#2
1537,Left,1,51,80,367.5,0.489583,Eighth,D#3
1538,Right,0,80,80,368.0,0.489583,Eighth,G#5_D5
1540,Right,0,75,80,368.5,0.489583,Eighth,G5_D#5
1542,Left,1,39,80,369.0,0.489583,Eighth,D#2
1543,Left,1,51,80,369.5,0.489583,Eighth,D#3
1544,Right,0,80,80,370.0,0.489583,Eighth,G#5_D6
1546,Right,0,79,80,370.5,0.489583,Eighth,G5_D#6
1548,Left,1,39,80,371.0,0.989583,Quarter,D#2
1549,Right,0,58,80,372.0,0.989583,Quarter,G3_D#4_A#3
1552,Left,1,46,80,376.5,0.489583,Eighth,A#2
1553,Left,1,45,80,377.0,0.489583,Eighth,A2
1554,Left,1,46,80,377.5,0.489583,Eighth,A#2
1555,Left,1,55,80,378.0,0.489583,Eighth,G3_A#3
1557,Left,1,58,80,378.5,0.489583,Eighth,G3_A#3
1559,Left,1,55,80,379.0,3.989583,Whole,G3_A#3
1561,Right,0,63,80,380.5,0.489583,Eighth,D#4
1562,Right,0,62,80,381.0,0.489583,Eighth,D4
1563,Right,0,63,80,381.5,0.489583,Eighth,D#4
1564,Right,0,70,80,382.0,0.489583,Eighth,A#4
1565,Right,0,70,80,382.5,0.489583,Eighth,A#4
1567,Left,1,58,80,383.0,0.989583,Quarter,G#3_A#3
1566,Right,0,61,80,383.0,0.489583,Eighth,C#4
1569,Right,0,62,80,383.5,0.489583,Eighth,D4
1570,Right,0,70,80,384.0,0.489583,Eighth,A#4
1572,Right,0,70,80,384.5,0.489583,Eighth,A#4
1571,Left,1,46,80,384.5,0.489583,Eighth,A#2
1573,Left,1,45,80,385.0,0.489583,Eighth,A2
1574,Left,1,46,80,385.5,0.489583,Eighth,A#2
1575,Left,1,58,80,386.0,0.489583,Eighth,G#3_A#3
1577,Left,1,56,80,386.5,0.489583,Eighth,G#3_A#3
1579,Left,1,58,80,387.0,3.989583,Whole,G#3_A#3
1581,Right,0,65,80,388.5,0.489583,Eighth,F4
1582,Right,0,64,80,389.0,0.489583,Eighth,E4
1583,Right,0,65,80,389.5,0.489583,Eighth,F4
1584,Right,0,70,80,390.0,0.489583,Eighth,A#4
1585,Right,0,70,80,390.5,0.489583,Eighth,A#4
1586,Right,0,63,80,391.0,0.489583,Eighth,D#4
1587,Left,1,55,80,391.0,0.989583,Quarter,G3_A#3
1589,Right,0,64,80,391.5,0.489583,Eighth,E4
1590,Right,0,70,80,392.0,0.489583,Eighth,A#4
1591,Right,0,70,80,392.5,0.489583,Eighth,A#4
1592,Left,1,53,80,393.0,0.989583,Quarter,F3_C#4_A#3
1595,Right,0,64,80,393.0,0.489583,Eighth,E4
1596,Right,0,65,80,393.5,0.489583,Eighth,F4
1597,Right,0,73,80,394.0,0.489583,Eighth,C#5
1598,Right,0,73,80,394.5,0.489583,Eighth,C#5
1602,Right,0,66,80,395.0,0.489583,Eighth,F#4
1599,Left,1,58,80,395.0,0.989583,Quarter,G3_E3_C4_A#3
1604,Right,0,67,80,395.5,0.489583,Eighth,G4
1605,Right,0,73,80,396.0,0.489583,Eighth,C#5
1606,Right,0,73,80,396.5,0.489583,Eighth,C#5
1607,Right,0,72,80,397.0,0.489583,Eighth,C5
1608,Right,0,70,80,397.5,0.489583,Eighth,A#4
1609,Right,0,69,80,398.0,0.489583,Eighth,A4
1610,Right,0,70,80,398.5,0.489583,Eighth,A#4
1611,Right,0,67,80,399.0,0.489583,Eighth,G4
1612,Left,1,60,80,399.0,0.989583,Quarter,G#3_F3_C4
1615,Right,0,68,81,399.5,0.489583,Eighth,G#4
1616,Right,0,77,83,400.0,0.489583,Eighth,F5
1617,Right,0,77,85,400.5,0.489583,Eighth,F5
1618,Right,0,71,87,401.0,0.489583,Eighth,B4
1619,Left,1,60,87,401.0,0.989583,Quarter,G#3_F3_D#3_C4
1623,Right,0,72,89,401.5,0.489583,Eighth,C5
1624,Right,0,80,91,402.0,0.489583,Eighth,G#5
1625,Right,0,80,93,402.5,0.489583,Eighth,G#5
1626,Left,1,53,95,403.0,0.989583,Quarter,G#3_F3_D3_B3
1629,Right,0,76,95,403.0,0.489583,Eighth,E5
1631,Right,0,77,97,403.5,0.489583,Eighth,F5
1632,Right,0,83,99,404.0,0.489583,Eighth,B5
1633,Right,0,83,101,404.5,0.489583,Eighth,B5
1635,Right,0,79,103,405.0,0.489583,Eighth,G5
1634,Left,1,53,103,405.0,0.989583,Quarter,G#3_F3_D3_C3
1639,Right,0,80,105,405.5,0.489583,Eighth,G#5
1640,Right,0,86,107,406.0,0.489583,Eighth,D6
1641,Right,0,86,109,406.5,0.489583,Eighth,D6
1642,Left,1,50,120,407.0,0.989583,Quarter,G#3_F3_D3_B2
1644,Right,0,85,120,407.0,0.489583,Eighth,C#6
1647,Right,0,86,120,407.5,0.489583,Eighth,D6
1648,Right,0,89,120,408.0,0.489583,Eighth,F6
1649,Right,0,89,120,408.5,0.489583,Eighth,F6
1650,Right,0,89,120,409.0,1.989583,Half,F6
1651,Left,1,80,120,409.5,0.489583,Eighth,G#5
1652,Left,1,80,120,410.0,0.489583,Eighth,G#5
1653,Left,1,80,120,410.5,0.489583,Eighth,G#5
1654,Left,1,71,120,411.0,1.989583,Half,B4
1655,Right,0,68,120,411.5,0.489583,Eighth,G#4
1656,Right,0,68,120,412.0,0.489583,Eighth,G#4
1657,Right,0,68,120,412.5,0.489583,Eighth,G#4
1658,Right,0,59,120,413.0,1.989583,Half,B3
1659,Left,1,56,120,413.5,0.489583,Eighth,G#3
1660,Left,1,56,120,414.0,0.489583,Eighth,G#3
1661,Left,1,56,120,414.5,0.489583,Eighth,G#3
1662,Left,1,47,120,415.0,0.489583,Eighth,B2
1664,Right,0,44,120,415.5,0.489583,Eighth,G#2
1663,Left,1,56,120,415.5,0.489583,Eighth,G#3
1666,Right,0,44,120,416.0,0.489583,Eighth,G#2
1665,Left,1,56,120,416.0,0.489583,Eighth,G#3
1668,Right,0,44,120,416.5,0.489583,Eighth,G#2
1667,Left,1,56,120,416.5,0.489583,Eighth,G#3
1670,Right,0,35,120,417.0,0.489583,Eighth,B1
1669,Left,1,47,120,417.0,0.489583,Eighth,B2
1671,Right,0,44,120,417.5,0.489583,Eighth,G#2
1672,Left,1,56,120,417.5,0.489583,Eighth,G#3
1673,Right,0,44,120,418.0,0.489583,Eighth,G#2
1674,Left,1,56,120,418.0,0.489583,Eighth,G#3
1676,Left,1,56,120,418.5,0.489583,Eighth,G#3
1675,Right,0,44,120,418.5,0.489583,Eighth,G#2
1677,Right,0,35,120,419.0,5.489583,Unknown,B1
1678,Left,1,47,120,419.0,5.489583,Unknown,B2
1679,Right,0,60,80,424.5,0.489583,Eighth,C4
1680,Left,1,48,80,424.5,0.489583,Eighth,C3
1681,Right,0,59,80,425.0,0.489583,Eighth,B3
1682,Left,1,47,80,425.0,0.489583,Eighth,B2
1684,Right,0,60,80,425.5,0.489583,Eighth,C4
1683,Left,1,48,80,425.5,0.489583,Eighth,C3
1685,Left,1,53,80,426.0,0.489583,Eighth,F3
1686,Right,0,65,80,426.0,0.489583,Eighth,F4
1688,Left,1,53,80,426.5,0.489583,Eighth,F3
1687,Right,0,65,80,426.5,0.489583,Eighth,F4
1690,Left,1,51,80,427.0,0.989583,Quarter,D#3
1689,Right,0,63,80,427.0,0.989583,Quarter,D#4
1691,Left,1,48,80,428.5,0.489583,Eighth,C3
1692,Right,0,60,80,428.5,0.489583,Eighth,C4
1694,Right,0,59,80,429.0,0.489583,Eighth,B3
1693,Left,1,47,80,429.0,0.489583,Eighth,B2
1696,Left,1,48,80,429.5,0.489583,Eighth,C3
1695,Right,0,60,80,429.5,0.489583,Eighth,C4
1697,Right,0,68,80,430.0,0.489583,Eighth,G#4
1698,Left,1,56,80,430.0,0.489583,Eighth,G#3
1700,Right,0,68,80,430.5,0.489583,Eighth,G#4
1699,Left,1,56,80,430.5,0.489583,Eighth,G#3
1701,Right,0,67,80,431.0,0.989583,Quarter,G4
1702,Left,1,55,80,431.0,0.989583,Quarter,G3
1703,Right,0,60,80,432.5,0.489583,Eighth,C4
1704,Right,0,59,80,433.0,0.489583,Eighth,B3
1705,Right,0,60,80,433.5,0.489583,Eighth,C4
1706,Right,0,72,80,434.0,0.489583,Eighth,C5
1707,Right,0,72,80,434.5,0.489583,Eighth,C5
1711,Right,0,72,80,435.0,0.489583,Eighth,C5
1708,Left,1,66,80,435.0,3.989583,Whole,G#3_F#4_C4
1712,Right,0,74,80,435.5,0.239583,Sixteenth,D5
1713,Right,0,72,80,435.625,0.239583,Sixteenth,C5
1714,Right,0,71,80,435.75,0.239583,Sixteenth,B4
1715,Right,0,72,80,435.875,0.114583,ThirtySecond,C5
1716,Right,0,75,80,436.0,0.489583,Eighth,D#5
1717,Right,0,74,80,436.5,0.489583,Eighth,D5
1718,Right,0,77,80,437.0,0.489583,Eighth,F5
1719,Right,0,75,80,437.5,0.489583,Eighth,D#5
1720,Right,0,74,80,438.0,0.489583,Eighth,D5
1721,Right,0,72,80,438.5,0.489583,Eighth,C5
1722,Right,0,71,80,439.0,0.989583,Quarter,B4
1723,Left,1,67,80,439.0,0.989583,Quarter,G4_G3_D4
1726,Left,1,43,80,440.5,0.489583,Eighth,G2
1727,Right,0,55,80,440.5,0.489583,Eighth,G3
1729,Right,0,54,80,441.0,0.489583,Eighth,F#3
1728,Left,1,42,80,441.0,0.489583,Eighth,F#2
1730,Left,1,43,80,441.5,0.489583,Eighth,G2
1731,Right,0,55,80,441.5,0.489583,Eighth,G3
1732,Left,1,48,80,442.0,0.489583,Eighth,C3
1733,Right,0,60,80,442.0,0.489583,Eighth,C4
1735,Left,1,48,80,442.5,0.489583,Eighth,C3
1734,Right,0,60,80,442.5,0.489583,Eighth,C4
1736,Left,1,47,80,443.0,0.989583,Quarter,B2
1737,Right,0,59,80,443.0,0.989583,Quarter,B3
1738,Right,0,55,80,444.5,0.489583,Eighth,G3
1739,Left,1,43,80,444.5,0.489583,Eighth,G2
1740,Left,1,42,80,445.0,0.489583,Eighth,F#2
1741,Right,0,54,80,445.0,0.489583,Eighth,F#3
1743,Left,1,43,80,445.5,0.489583,Eighth,G2
1742,Right,0,55,80,445.5,0.489583,Eighth,G3
1744,Right,0,63,80,446.0,0.489583,Eighth,D#4
1745,Left,1,51,80,446.0,0.489583,Eighth,D#3
1747,Left,1,51,80,446.5,0.489583,Eighth,D#3
1746,Right,0,63,80,446.5,0.489583,Eighth,D#4
1749,Left,1,50,80,447.0,0.989583,Quarter,D3
1748,Right,0,62,80,447.0,0.989583,Quarter,D4
1750,Right,0,55,80,448.5,0.489583,Eighth,G3
1751,Left,1,43,80,448.5,0.489583,Eighth,G2
1752,Right,0,59,80,449.0,0.489583,Eighth,B3
1753,Left,1,47,80,449.0,0.489583,Eighth,B2
1754,Right,0,62,80,449.5,0.489583,Eighth,D4
1755,Left,1,50,80,449.5,0.489583,Eighth,D3
1756,Right,0,65,80,450.0,0.489583,Eighth,F4
1757,Left,1,53,80,450.0,0.489583,Eighth,F3
1759,Right,0,68,80,450.5,0.489583,Eighth,G#4
1758,Left,1,56,80,450.5,0.489583,Eighth,G#3
1760,Right,0,71,80,451.0,0.489583,Eighth,B4
1761,Left,1,59,80,451.0,0.489583,Eighth,B3
1763,Right,0,74,80,451.5,0.489583,Eighth,D5
1762,Left,1,62,80,451.5,0.489583,Eighth,D4
1765,Left,1,65,80,452.0,0.489583,Eighth,F4
1764,Right,0,77,80,452.0,0.489583,Eighth,F5
1766,Left,1,68,80,452.5,0.489583,Eighth,G#4
1767,Right,0,80,80,452.5,0.489583,Eighth,G#5
1768,Left,1,67,80,453.0,0.489583,Eighth,G4
1769,Right,0,79,80,453.0,0.489583,Eighth,G5
1771,Left,1,65,80,453.5,0.489583,Eighth,F4
1770,Right,0,77,80,453.5,0.489583,Eighth,F5
1772,Left,1,63,80,454.0,0.489583,Eighth,D#4
1773,Right,0,75,80,454.0,0.489583,Eighth,D#5
1775,Right,0,74,80,454.5,0.489583,Eighth,D5
1774,Left,1,62,80,454.5,0.489583,Eighth,D4
1776,Left,1,60,80,455.0,0.489583,Eighth,C4
1777,Right,0,72,80,455.0,0.989583,Quarter,C5
1778,Left,1,63,80,455.5,0.489583,Eighth,G4_D#4
1780,Left,1,67,80,456.0,0.489583,Eighth,G4_D#4
1783,Left,1,63,80,456.5,0.489583,Eighth,G4_D#4
1782,Right,0,72,80,456.5,0.489583,Eighth,C5
1786,Left,1,60,80,457.0,0.489583,Eighth,C4
1785,Right,0,71,80,457.0,0.489583,Eighth,B4
1787,Left,1,64,80,457.5,0.489583,Eighth,G4_E4_A#4
1790,Right,0,72,80,457.5,0.489583,Eighth,C5
1792,Left,1,64,80,458.0,0.489583,Eighth,G4_E4_A#4
1791,Right,0,84,80,458.0,0.489583,Eighth,C6
1797,Right,0,84,80,458.5,0.489583,Eighth,C6
1795,Left,1,64,80,458.5,0.489583,Eighth,G4_E4_A#4
1800,Left,1,60,80,459.0,0.489583,Eighth,C4
1799,Right,0,84,80,459.0,0.989583,Quarter,C6
1801,Left,1,68,80,459.5,0.489583,Eighth,G#4_F4
1803,Left,1,68,80,460.0,0.489583,Eighth,G#4_F4
1806,Left,1,68,80,460.5,0.489583,Eighth,G#4_F4
1805,Right,0,89,80,460.5,0.489583,Eighth,F6
1809,Right,0,87,80,461.0,0.489583,Eighth,D#6
1808,Left,1,60,80,461.0,0.489583,Eighth,C4
1810,Right,0,86,80,461.5,0.489583,Eighth,D6
1811,Left,1,71,80,461.5,0.489583,Eighth,G#4_F4_B4
1814,Right,0,84,80,462.0,0.489583,Eighth,C6
1815,Left,1,68,80,462.0,0.489583,Eighth,G#4_F4_B4
1818,Left,1,71,80,462.5,0.489583,Eighth,G#4_F4_B4
1821,Right,0,83,80,462.5,0.489583,Eighth,B5
1822,Right,0,86,80,463.0,0.489583,Eighth,D6
1823,Left,1,60,80,463.0,0.489583,Eighth,C4
1825,Left,1,63,80,463.5,0.489583,Eighth,G4_D#4
1824,Right,0,84,80,463.5,0.489583,Eighth,C6
1827,Left,1,63,80,464.0,0.489583,Eighth,G4_D#4
1830,Left,1,63,80,464.5,0.489583,Eighth,G4_D#4
1829,Right,0,72,80,464.5,0.489583,Eighth,C5
1833,Left,1,60,80,465.0,0.489583,Eighth,C4
1832,Right,0,71,80,465.0,0.239583,Sixteenth,B4
1834,Right,0,72,80,465.197917,0.239583,Sixteenth,C5
1835,Right,0,73,80,465.395833,0.239583,Sixteenth,C#5
1836,Left,1,64,80,465.5,0.489583,Eighth,G4_E4_A#4
1839,Right,0,74,80,465.59375,0.239583,Sixteenth,D5
1840,Right,0,75,80,465.78125,0.239583,Sixteenth,D#5
1843,Right,0,76,80,466.0,0.239583,Sixteenth,E5
1841,Left,1,70,80,466.0,0.489583,Eighth,G4_E4_A#4
1845,Right,0,77,80,466.25,0.239583,Sixteenth,F5
1846,Right,0,78,80,466.5,0.239583,Sixteenth,F#5
1847,Left,1,70,80,466.5,0.489583,Eighth,G4_E4_A#4
1850,Right,0,79,80,466.75,0.239583,Sixteenth,G5
1852,Left,1,60,80,467.0,0.489583,Eighth,C4
1851,Right,0,80,80,467.0,0.239583,Sixteenth,G#5
1853,Right,0,81,80,467.25,0.239583,Sixteenth,A5
1854,Left,1,65,80,467.5,0.489583,Eighth,G#4_F4
1855,Right,0,82,80,467.5,0.239583,Sixteenth,A#5
1857,Right,0,83,80,467.75,0.239583,Sixteenth,B5
1858,Right,0,84,80,468.0,0.489583,Eighth,C6
1859,Left,1,68,80,468.0,0.489583,Eighth,G#4_F4
1861,Right,0,89,80,468.5,0.489583,Eighth,F6
1862,Left,1,68,80,468.5,0.489583,Eighth,G#4_F4
1864,Right,0,87,80,469.0,0.489583,Eighth,D#6
1865,Left,1,60,80,469.0,0.489583,Eighth,C4
1866,Left,1,65,80,469.5,0.489583,Eighth,G#4_F4_B4
1869,Right,0,86,80,469.5,0.489583,Eighth,D6
1873,Right,0,84,80,470.0,0.489583,Eighth,C6
1870,Left,1,65,80,470.0,0.489583,Eighth,G#4_F4_B4
1876,Right,0,83,80,470.5,0.489583,Eighth,B5
1874,Left,1,71,80,470.5,0.489583,Eighth,G#4_F4_B4
1878,Left,1,72,80,471.0,0.989583,Quarter,G4_D#4_C5_C4
1879,Right,0,84,80,471.0,0.239583,Sixteenth,C6
1883,Right,0,86,80,471.25,0.239583,Sixteenth,D6
1884,Right,0,84,81,471.5,0.239583,Sixteenth,C6
1885,Right,0,83,82,471.75,0.239583,Sixteenth,B5
1886,Right,0,84,83,472.0,0.239583,Sixteenth,C6
1887,Right,0,87,83,472.25,0.239583,Sixteenth,D#6
1889,Left,1,66,84,472.5,0.489583,Eighth,F#4
1888,Right,0,86,84,472.5,0.239583,Sixteenth,D6
1890,Right,0,84,85,472.75,0.239583,Sixteenth,C6
1892,Left,1,67,86,473.0,0.989583,Quarter,G4
1891,Right,0,83,86,473.0,0.239583,Sixteenth,B5
1893,Right,0,84,86,473.25,0.239583,Sixteenth,C6
1894,Right,0,83,87,473.5,0.239583,Sixteenth,B5
1895,Right,0,80,88,473.75,0.239583,Sixteenth,G#5
1896,Right,0,79,89,474.0,0.239583,Sixteenth,G5
1897,Right,0,77,89,474.25,0.239583,Sixteenth,F5
1898,Right,0,75,90,474.5,0.239583,Sixteenth,D#5
1899,Left,1,59,90,474.5,0.489583,Eighth,B3
1900,Right,0,74,91,474.75,0.239583,Sixteenth,D5
1902,Left,1,60,92,475.0,0.989583,Quarter,C4
1901,Right,0,72,92,475.0,0.239583,Sixteenth,C5
1903,Right,0,74,93,475.25,0.239583,Sixteenth,D5
1904,Right,0,72,93,475.5,0.239583,Sixteenth,C5
1905,Right,0,71,94,475.75,0.239583,Sixteenth,B4
1906,Right,0,72,95,476.0,0.239583,Sixteenth,C5
1907,Right,0,75,96,476.25,0.239583,Sixteenth,D#5
1909,Left,1,54,96,476.5,0.489583,Eighth,F#3
1908,Right,0,74,96,476.5,0.239583,Sixteenth,D5
1910,Right,0,72,97,476.75,0.239583,Sixteenth,C5
1912,Left,1,55,98,477.0,0.989583,Quarter,G3
1911,Right,0,71,98,477.0,0.239583,Sixteenth,B4
1913,Right,0,72,99,477.25,0.239583,Sixteenth,C5
1914,Right,0,71,99,477.5,0.239583,Sixteenth,B4
1915,Right,0,68,100,477.75,0.239583,Sixteenth,G#4
1916,Right,0,67,101,478.0,0.239583,Sixteenth,G4
1917,Right,0,65,102,478.25,0.239583,Sixteenth,F4
1918,Left,1,47,103,478.5,0.489583,Eighth,B2
1919,Right,0,63,103,478.5,0.239583,Sixteenth,D#4
1920,Right,0,62,103,478.75,0.239583,Sixteenth,D4
1921,Right,0,60,104,479.0,0.239583,Sixteenth,C4
1922,Left,1,48,104,479.0,0.989583,Quarter,C3
1923,Right,0,62,105,479.25,0.239583,Sixteenth,D4
1924,Right,0,60,106,479.5,0.239583,Sixteenth,C4
1925,Right,0,59,106,479.75,0.239583,Sixteenth,B3
1926,Right,0,60,107,480.0,0.239583,Sixteenth,C4
1927,Right,0,63,108,480.25,0.239583,Sixteenth,D#4
1928,Right,0,62,109,480.5,0.239583,Sixteenth,D4
1929,Left,1,42,109,480.5,0.489583,Eighth,F#2
1930,Right,0,60,109,480.75,0.239583,Sixteenth,C4
1932,Right,0,59,110,481.0,0.395833,DottedSixteenth,B3
1931,Left,1,43,110,481.0,0.989583,Quarter,G2
1933,Right,0,67,110,481.25,0.395833,DottedSixteenth,G4
1934,Right,0,62,110,481.5,0.375,DottedSixteenth,D4
1935,Right,0,59,110,481.75,0.46875,Eighth,B3
1937,Right,0,55,110,482.0,0.427083,DottedSixteenth,G3
1936,Left,1,36,110,482.0,0.989583,Quarter,C3_C2
1939,Right,0,67,110,482.25,0.458333,Eighth,G4
1940,Right,0,63,110,482.5,0.395833,DottedSixteenth,D#4
1941,Right,0,60,110,482.75,0.4375,Eighth,C4
1942,Right,0,55,110,483.0,0.427083,DottedSixteenth,G3
1943,Left,1,43,110,483.0,0.989583,Quarter,G2_G1
1945,Right,0,67,110,483.25,0.416667,DottedSixteenth,G4
1946,Right,0,62,110,483.5,0.40625,DottedSixteenth,D4
1947,Right,0,59,110,483.75,0.40625,DottedSixteenth,B3
1948,Right,0,55,110,484.0,0.416667,DottedSixteenth,G3
1949,Left,1,48,110,484.0,0.989583,Quarter,C3_C2
1951,Right,0,67,110,484.25,0.40625,DottedSixteenth,G4
1952,Right,0,63,110,484.5,0.427083,DottedSixteenth,D#4
1953,Right,0,60,110,484.75,0.40625,DottedSixteenth,C4
1954,Left,1,31,110,485.0,0.989583,Quarter,G2_G1
1956,Right,0,55,110,485.0,0.427083,DottedSixteenth,G3
1957,Right,0,67,110,485.25,0.4375,Eighth,G4
1958,Right,0,62,110,485.5,0.416667,DottedSixteenth,D4
1959,Right,0,59,110,485.75,0.40625,DottedSixteenth,B3
1960,Left,1,48,110,486.0,0.989583,Quarter,C3_C2
1961,Right,0,55,110,486.0,0.447917,Eighth,G3
1963,Right,0,67,110,486.25,0.416667,DottedSixteenth,G4
1964,Right,0,63,110,486.5,0.40625,DottedSixteenth,D#4
1965,Right,0,60,110,486.75,0.239583,Sixteenth,C4
1970,Right,0,55,120,487.0,5.989583,Unknown,G4_G3_D4_B3
1966,Left,1,31,120,487.0,5.989583,Unknown,G2_G1_D2_B1
1974,Right,0,67,80,493.5,0.489583,Eighth,G4
1975,Right,0,69,80,494.0,0.489583,Eighth,A4
1976,Right,0,71,80,494.5,0.489583,Eighth,B4
1980,Left,1,48,80,495.0,1.989583,Half,G3_C4_C3
1977,Right,0,64,80,495.0,1.989583,Half,G4_E4_C5
1983,Right,0,74,80,495.5,0.489583,Eighth,D5
1984,Right,0,76,80,496.0,0.989583,Quarter,E5
1986,Right,0,74,80,497.0,0.989583,Quarter,G4_D5_D4
1985,Left,1,53,80,497.0,0.989583,Quarter,G3_F3_B3
1993,Right,0,64,80,498.0,0.989583,Quarter,G4_E4_C5
1991,Left,1,55,80,498.0,0.989583,Quarter,G3_E3_C4
1997,Right,0,77,80,499.0,1.989583,Half,G4_F5_F4_B4
1998,Left,1,62,80,499.0,1.989583,Half,G3_D4_D3
2004,Right,0,67,80,501.5,0.489583,Eighth,G4
2005,Right,0,69,80,502.0,0.489583,Eighth,A4
2006,Right,0,71,80,502.5,0.489583,Eighth,B4
2009,Right,0,72,80,503.0,1.989583,Half,G4_E4_C5
2007,Left,1,60,80,503.0,1.989583,Half,G3_C4_C3
2013,Right,0,74,80,503.5,0.489583,Eighth,D5
2014,Right,0,76,80,504.0,0.989583,Quarter,E5
2016,Right,0,74,80,505.0,0.989583,Quarter,D5_D4_A4
2015,Left,1,53,80,505.0,0.989583,Quarter,F3_A3
2020,Right,0,72,80,506.0,0.989583,Quarter,D4_C5_A4
2023,Left,1,54,80,506.0,0.989583,Quarter,F#3_A3
2027,Right,0,62,80,507.0,1.989583,Half,G4_D4_B3
2025,Left,1,43,80,507.0,1.989583,Half,G3_G2
2030,Right,0,67,80,509.5,0.489583,Eighth,G4
2031,Right,0,69,80,510.0,0.489583,Eighth,A4
2032,Right,0,71,80,510.5,0.489583,Eighth,B4
2033,Right,0,72,80,511.0,1.989583,Half,G4_E4_C5
2034,Left,1,48,80,511.0,1.989583,Half,G3_C4_C3
2039,Right,0,74,80,511.5,0.489583,Eighth,D5
2040,Right,0,76,80,512.0,0.989583,Quarter,E5
2044,Right,0,74,80,513.0,0.989583,Quarter,G4_D5_D4
2041,Left,1,55,80,513.0,0.989583,Quarter,G3_F3_B3
2047,Left,1,55,80,514.0,0.989583,Quarter,G3_E3_C4
2048,Right,0,64,80,514.0,0.989583,Quarter,G4_E4_C5
2053,Right,0,69,110,515.0,0.364583,DottedSixteenth,A4
2054,Left,1,53,110,515.0,0.989583,Quarter,F3
2055,Right,0,72,110,515.125,0.239583,Sixteenth,C5
2056,Left,1,57,110,515.125,0.864583,DottedEighth,A3
2058,Right,0,77,110,515.25,0.114583,ThirtySecond,F5
2057,Left,1,60,110,515.25,0.739583,DottedEighth,C4
2059,Right,0,81,110,515.375,2.114583,Half,A5
2060,Left,1,65,110,515.375,0.614583,Eighth,F4
2061,Right,0,81,80,517.5,0.489583,Eighth,A5
2062,Right,0,79,80,518.0,0.489583,Eighth,G5
2063,Right,0,77,80,518.5,0.489583,Eighth,F5
2064,Right,0,76,80,519.0,0.489583,Eighth,E5
2065,Left,1,55,80,519.0,7.989583,Unknown,G3
2066,Right,0,74,80,519.5,0.489583,Eighth,D5
2067,Right,0,72,80,520.0,0.489583,Eighth,C5
2068,Right,0,71,80,520.5,0.489583,Eighth,B4
2069,Right,0,69,80,521.0,1.989583,Half,F4_D4_A4
2072,Left,1,43,80,521.5,0.489583,Eighth,G2
2074,Left,1,45,80,522.0,0.489583,Eighth,A2
2073,Right,0,67,80,522.0,0.989583,Quarter,G4
2075,Left,1,47,80,522.5,0.489583,Eighth,B2
2077,Left,1,48,80,523.0,0.489583,Eighth,C3
2076,Right,0,64,80,523.0,1.989583,Half,G4_E4_C4
2080,Left,1,50,80,523.5,0.489583,Eighth,D3
2081,Left,1,52,80,524.0,0.989583,Quarter,E3
2082,Left,1,50,80,525.0,0.989583,Quarter,D3
2083,Right,0,79,80,525.5,0.489583,Eighth,G5
2085,Right,0,77,80,526.0,0.489583,Eighth,F5
2084,Left,1,48,80,526.0,0.989583,Quarter,C3
2086,Right,0,76,80,526.5,0.489583,Eighth,E5
2088,Left,1,55,80,527.0,7.989583,Unknown,G3
2087,Right,0,76,80,527.0,0.489583,Eighth,E5
2089,Right,0,74,80,527.5,0.489583,Eighth,D5
2090,Right,0,72,80,528.0,0.489583,Eighth,C5
2091,Right,0,71,80,528.5,0.489583,Eighth,B4
2092,Right,0,62,80,529.0,1.989583,Half,G#4_F4_D4
2095,Left,1,43,80,529.5,0.489583,Eighth,G2
2096,Left,1,45,80,530.0,0.489583,Eighth,A2
2097,Right,0,67,80,530.0,0.989583,Quarter,G4
2098,Left,1,47,80,530.5,0.489583,Eighth,B2
2102,Left,1,48,80,531.0,0.489583,Eighth,C3
2099,Right,0,60,80,531.0,1.989583,Half,G4_D#4_C4
2103,Left,1,50,80,531.5,0.489583,Eighth,D3
2104,Left,1,51,80,532.0,0.989583,Quarter,D#3
2105,Left,1,50,80,533.0,0.989583,Quarter,D3
2106,Right,0,79,80,533.5,0.489583,Eighth,G5_G4
2108,Right,0,77,80,534.0,0.489583,Eighth,F5_F4
2110,Left,1,48,80,534.0,0.989583,Quarter,C3
2111,Right,0,75,80,534.5,0.489583,Eighth,D#5_D#4
2117,Right,0,63,80,535.0,0.489583,Eighth,D#5_D#4
2113,Left,1,50,80,535.0,0.989583,Quarter,G#2_F3_F2_D3
2119,Right,0,62,80,535.5,0.489583,Eighth,D5_D4
2121,Right,0,60,80,536.0,0.489583,Eighth,C5_C4
2123,Right,0,59,80,536.5,0.489583,Eighth,B4_B3
2125,Right,0,56,80,537.0,0.489583,Eighth,G#4_G#3
2127,Left,1,50,80,537.0,0.989583,Quarter,G2_F3_D3_B2
2131,Right,0,55,80,537.5,0.489583,Eighth,G4_G3
2133,Right,0,69,80,538.0,0.489583,Eighth,A4_A3
2135,Right,0,71,80,538.5,0.489583,Eighth,B4_B3
2137,Right,0,72,80,539.0,0.989583,Quarter,C5_C4
2138,Left,1,51,80,539.0,0.489583,Eighth,D#3_C3
2141,Left,1,55,81,539.5,0.489583,Eighth,G3
2142,Left,1,55,83,540.0,0.489583,Eighth,G3
2144,Right,0,72,85,540.5,0.489583,Eighth,C5
2143,Left,1,55,85,540.5,0.489583,Eighth,G3
2145,Left,1,55,87,541.0,0.489583,Eighth,G3
2146,Right,0,71,87,541.0,0.489583,Eighth,B4
2148,Right,0,72,89,541.5,0.489583,Eighth,C5
2147,Left,1,55,89,541.5,0.489583,Eighth,G3
2149,Right,0,77,91,542.0,0.489583,Eighth,F5_D5
2151,Left,1,47,91,542.0,0.489583,Eighth,B2
2152,Right,0,77,93,542.5,0.489583,Eighth,F5_D5
2154,Left,1,55,93,542.5,0.489583,Eighth,G3
2155,Right,0,72,95,543.0,0.989583,Quarter,D#5_C5
2157,Left,1,48,95,543.0,0.489583,Eighth,C3
2158,Left,1,55,97,543.5,0.489583,Eighth,G3
2159,Left,1,55,99,544.0,0.489583,Eighth,G3
2161,Right,0,72,101,544.5,0.489583,Eighth,C5
2160,Left,1,55,101,544.5,0.489583,Eighth,G3
2163,Left,1,55,103,545.0,0.489583,Eighth,G3
2162,Right,0,71,103,545.0,0.489583,Eighth,B4
2164,Right,0,72,105,545.5,0.489583,Eighth,C5
2165,Left,1,55,105,545.5,0.489583,Eighth,G3
2166,Left,1,47,107,546.0,0.489583,Eighth,B2
2167,Right,0,77,107,546.0,0.489583,Eighth,G#5_F5
2171,Left,1,55,109,546.5,0.489583,Eighth,G3
2169,Right,0,77,109,546.5,0.489583,Eighth,G#5_F5
2172,Left,1,48,120,547.0,0.489583,Eighth,C3
2173,Right,0,79,120,547.0,0.989583,Quarter,G5_D#5
2175,Left,1,55,120,547.5,0.489583,Eighth,G3
2176,Left,1,55,120,548.0,0.489583,Eighth,G3
2178,Right,0,84,120,548.5,0.489583,Eighth,C6
2177,Left,1,55,120,548.5,0.489583,Eighth,G3
2180,Left,1,55,120,549.0,0.489583,Eighth,G3
2179,Right,0,83,120,549.0,0.489583,Eighth,B5
2182,Left,1,55,120,549.5,0.489583,Eighth,G3
2181,Right,0,84,120,549.5,0.489583,Eighth,C6
2183,Left,1,47,120,550.0,0.489583,Eighth,G3_F3_D3_B2
2187,Right,0,89,120,550.0,0.489583,Eighth,F6_D6
2189,Right,0,89,120,550.5,0.489583,Eighth,F6_D6
2191,Left,1,47,120,550.5,0.489583,Eighth,G3_F3_D3_B2
2197,Left,1,55,120,551.0,3.989583,Whole,G3_F3_D3_B2
2195,Right,0,86,120,551.0,1.239583,Quarter,F6_D6
2201,Right,0,87,120,552.25,0.239583,Sixteenth,D#6
2202,Right,0,86,120,552.5,0.239583,Sixteenth,D6
2203,Right,0,84,120,552.75,0.239583,Sixteenth,C6
2204,Right,0,83,120,553.0,0.239583,Sixteenth,B5
2205,Right,0,84,120,553.25,0.239583,Sixteenth,C6
2206,Right,0,86,120,553.5,0.239583,Sixteenth,D6
2207,Right,0,84,120,553.75,0.239583,Sixteenth,C6
2208,Right,0,83,120,554.0,0.239583,Sixteenth,B5
2209,Right,0,80,120,554.25,0.239583,Sixteenth,G#5
2210,Right,0,79,120,554.5,0.239583,Sixteenth,G5
2211,Right,0,77,120,554.75,0.239583,Sixteenth,F5
2213,Left,1,48,120,555.0,0.989583,Quarter,G3_D#3_C3
2212,Right,0,75,120,555.0,0.322917,Triplet,D#5
2216,Right,0,77,120,555.333333,0.322917,Triplet,F5
2217,Right,0,79,120,555.666667,0.322917,Triplet,G5
2218,Right,0,77,120,556.0,0.322917,Triplet,F5
2219,Right,0,75,120,556.333333,0.322917,Triplet,D#5
2220,Right,0,74,120,556.666667,0.322917,Triplet,D5
2221,Right,0,72,120,557.0,0.322917,Triplet,C5
2222,Right,0,70,120,557.333333,0.322917,Triplet,A#4
2223,Right,0,68,120,557.666667,0.322917,Triplet,G#4
2224,Right,0,67,120,558.0,0.322917,Triplet,G4
2225,Right,0,65,120,558.333333,0.322917,Triplet,F4
2226,Right,0,63,120,558.666667,0.322917,Triplet,D#4
2227,Left,1,41,120,559.0,0.989583,Quarter,F2
2228,Right,0,62,120,559.25,0.239583,Sixteenth,D4
2229,Right,0,65,120,559.5,0.239583,Sixteenth,F4
2230,Right,0,68,120,559.75,0.239583,Sixteenth,G#4
2231,Right,0,74,120,560.0,0.989583,Quarter,D5
2232,Left,1,53,120,560.5,0.489583,Eighth,F3
2233,Left,1,43,120,561.0,0.989583,Quarter,G2
2234,Right,0,59,120,561.25,0.239583,Sixteenth,B3
2235,Right,0,62,120,561.5,0.239583,Sixteenth,D4
2236,Right,0,65,120,561.75,0.239583,Sixteenth,F4
2237,Right,0,71,120,562.0,0.989583,Quarter,B4
2238,Left,1,55,120,562.5,0.489583,Eighth,G3
2239,Right,0,71,120,563.0,0.239583,Sixteenth,B4
2240,Right,0,83,120,563.25,0.239583,Sixteenth,B5
2241,Right,0,71,120,563.5,0.239583,Sixteenth,B4
2242,Left,1,65,120,563.5,0.239583,Sixteenth,F4
2243,Left,1,67,120,563.75,0.239583,Sixteenth,G4
2244,Right,0,83,120,563.75,0.239583,Sixteenth,B5
2245,Right,0,71,120,564.0,0.239583,Sixteenth,B4
2246,Left,1,68,120,564.0,0.239583,Sixteenth,G#4
2248,Left,1,67,120,564.25,0.239583,Sixteenth,G4
2247,Right,0,83,120,564.25,0.239583,Sixteenth,B5
2249,Right,0,71,120,564.5,0.239583,Sixteenth,B4
2250,Left,1,65,120,564.5,0.239583,Sixteenth,F4
2251,Right,0,83,120,564.75,0.239583,Sixteenth,B5
2252,Left,1,63,120,564.75,0.239583,Sixteenth,D#4
2254,Left,1,62,120,565.0,0.322917,Triplet,D4
2253,Right,0,71,120,565.0,0.239583,Sixteenth,B4
2255,Right,0,83,120,565.25,0.239583,Sixteenth,B5
2256,Left,1,60,120,565.333333,0.322917,Triplet,C4
2257,Right,0,71,120,565.5,0.239583,Sixteenth,B4
2258,Left,1,59,120,565.666667,0.322917,Triplet,B3
2259,Right,0,83,120,565.75,0.239583,Sixteenth,B5
2261,Right,0,71,120,566.0,0.239583,Sixteenth,B4
2260,Left,1,56,120,566.0,0.322917,Triplet,G#3
2262,Right,0,83,120,566.25,0.239583,Sixteenth,B5
2263,Left,1,55,120,566.333333,0.322917,Triplet,G3
2264,Right,0,71,120,566.5,0.239583,Sixteenth,B4
2265,Left,1,53,120,566.666667,0.322917,Triplet,F3
2266,Right,0,83,120,566.75,0.239583,Sixteenth,B5
2267,Left,1,51,120,567.0,0.322917,Triplet,D#3
2268,Right,0,72,120,567.0,0.239583,Sixteenth,C5
2269,Right,0,84,120,567.25,0.239583,Sixteenth,C6
2270,Left,1,53,120,567.333333,0.322917,Triplet,F3
2271,Right,0,72,120,567.5,0.239583,Sixteenth,C5
2272,Left,1,55,120,567.666667,0.322917,Triplet,G3
2273,Right,0,84,120,567.75,0.239583,Sixteenth,C6
2275,Right,0,72,120,568.0,0.239583,Sixteenth,C5
2274,Left,1,53,120,568.0,0.322917,Triplet,F3
2276,Right,0,84,120,568.25,0.239583,Sixteenth,C6
2277,Left,1,51,120,568.333333,0.322917,Triplet,D#3
2278,Right,0,72,120,568.5,0.239583,Sixteenth,C5
2279,Left,1,50,120,568.666667,0.322917,Triplet,D3
2280,Right,0,84,120,568.75,0.239583,Sixteenth,C6
2282,Left,1,48,120,569.0,0.322917,Triplet,C3
2281,Right,0,72,120,569.0,0.239583,Sixteenth,C5
2283,Right,0,84,120,569.25,0.239583,Sixteenth,C6
2284,Left,1,46,120,569.333333,0.322917,Triplet,A#2
2285,Right,0,72,120,569.5,0.239583,Sixteenth,C5
2286,Left,1,44,120,569.666667,0.322917,Triplet,G#2
2287,Right,0,84,120,569.75,0.239583,Sixteenth,C6
2289,Left,1,43,120,570.0,0.322917,Triplet,G2
2288,Right,0,72,120,570.0,0.239583,Sixteenth,C5
2290,Right,0,84,120,570.25,0.239583,Sixteenth,C6
2291,Left,1,41,120,570.333333,0.322917,Triplet,F2
2292,Right,0,72,120,570.5,0.239583,Sixteenth,C5
2293,Left,1,39,120,570.666667,0.322917,Triplet,D#2
2294,Right,0,84,120,570.75,0.239583,Sixteenth,C6
2295,Left,1,41,120,571.0,0.989583,Quarter,F2_F1
2297,Right,0,77,120,571.25,0.239583,Sixteenth,F5
2298,Right,0,80,120,571.5,0.239583,Sixteenth,G#5
2299,Right,0,86,120,571.75,0.239583,Sixteenth,D6
2300,Right,0,89,120,572.0,0.989583,Quarter,F6
2301,Left,1,41,120,572.5,0.489583,Eighth,F2_F1
2303,Left,1,31,120,573.0,0.989583,Quarter,G2_G1
2305,Right,0,74,120,573.25,0.239583,Sixteenth,D5
2306,Right,0,77,120,573.5,0.239583,Sixteenth,F5
2307,Right,0,83,120,573.75,0.239583,Sixteenth,B5
2308,Right,0,86,120,574.0,0.989583,Quarter,D6
2309,Left,1,31,120,574.5,0.489583,Eighth,G2_G1
2315,Left,1,36,120,575.0,0.989583,Quarter,G2_D#2_C3_C2
2311,Right,0,84,120,575.0,0.989583,Quarter,G5_D#5_C6_C5
2320,Right,0,79,120,576.0,0.489583,Eighth,G5
2319,Left,1,61,120,576.0,0.489583,Eighth,E4_C#4
2322,Right,0,79,120,576.5,0.489583,Eighth,G5
2323,Left,1,64,120,576.5,0.489583,Eighth,E4_C#4
2325,Right,0,79,120,577.0,0.989583,Quarter,G5
2326,Left,1,62,120,577.0,0.989583,Quarter,F4_D4
2330,Right,0,79,120,578.0,0.489583,Eighth,G5
2328,Left,1,64,120,578.0,0.489583,Eighth,E4_C#4
2333,Right,0,79,120,578.5,0.489583,Eighth,G5
2331,Left,1,61,120,578.5,0.489583,Eighth,E4_C#4
2334,Right,0,79,120,579.0,0.989583,Quarter,G5
2335,Left,1,65,120,579.0,0.989583,Quarter,F4_D4
2338,Right,0,53,120,580.0,0.989583,Quarter,F3_D3_B3
2337,Left,1,43,120,580.0,0.989583,Quarter,G2_G1
2342,Right,0,50,80,582.0,0.989583,Quarter,F3_D3_B3
2345,Left,1,31,80,582.0,0.989583,Quarter,G2_G1
2348,Right,0,60,80,583.0,0.989583,Quarter,D#3_C4_C3
2347,Left,1,44,80,583.0,0.989583,Quarter,G#2_G#1
2354,Right,0,62,80,584.0,0.989583,Quarter,D4_C4_A3
2352,Left,1,30,80,584.0,0.989583,Quarter,F#2_F#1
2359,Right,0,63,80,585.0,0.989583,Quarter,G3_D#4_C4
2357,Left,1,43,80,585.0,0.989583,Quarter,G2_G1
2364,Right,0,59,80,586.0,0.989583,Quarter,F3_D4_B3
2362,Left,1,31,80,586.0,0.989583,Quarter,G2_G1
2367,Right,0,60,80,587.0,0.989583,Quarter,G3_D#3_C4
2368,Left,1,36,80,587.0,0.989583,Quarter,C3_C2
2374,Right,0,79,120,588.0,0.239583,Sixteenth,G5
2372,Left,1,64,120,588.0,0.489583,Eighth,E4_C#4
2375,Right,0,80,120,588.25,0.239583,Sixteenth,G#5
2376,Right,0,79,120,588.5,0.239583,Sixteenth,G5
2377,Left,1,61,120,588.5,0.489583,Eighth,E4_C#4
2379,Right,0,78,120,588.75,0.239583,Sixteenth,F#5
2380,Left,1,62,120,589.0,0.989583,Quarter,F4_D4
2381,Right,0,79,120,589.0,0.989583,Quarter,G5
2384,Left,1,64,120,590.0,0.489583,Eighth,E4_C#4
2383,Right,0,79,120,590.0,0.239583,Sixteenth,G5
2386,Right,0,80,120,590.25,0.239583,Sixteenth,G#5
2388,Right,0,79,120,590.5,0.239583,Sixteenth,G5
2387,Left,1,61,120,590.5,0.489583,Eighth,E4_C#4
2390,Right,0,78,120,590.75,0.239583,Sixteenth,F#5
2392,Left,1,62,120,591.0,0.989583,Quarter,F4_D4
2391,Right,0,79,120,591.0,0.989583,Quarter,G5
2397,Left,1,43,120,592.0,0.989583,Quarter,G2_G1
2394,Right,0,50,120,592.0,0.989583,Quarter,F3_D3_B3
2399,Left,1,32,120,594.0,1.989583,Half,G#2_G#1_D#2_C2
2403,Right,0,60,120,594.0,1.989583,Half,F#3_D#3_C4_C3
2409,Left,1,30,80,596.0,0.989583,Quarter,F#2_F#1
2407,Right,0,60,80,596.0,0.989583,Quarter,D4_C4_A3
2412,Right,0,55,80,597.0,0.989583,Quarter,G3_D#4_C4
2415,Left,1,31,80,597.0,0.989583,Quarter,G2_G1
2417,Right,0,62,80,598.0,0.989583,Quarter,F3_D4_B3
2420,Left,1,31,80,598.0,0.989583,Quarter,G2_G1
2422,Left,1,36,80,599.0,0.489583,Eighth,C2
2423,Right,0,51,80,599.0,0.989583,Quarter,G3_D#3_C4
2426,Left,1,48,80,599.5,0.489583,Eighth,C3
2427,Right,0,59,80,600.0,0.489583,Eighth,F4_B3
2429,Right,0,60,80,600.5,0.489583,Eighth,D#4_C4
2431,Left,1,36,80,601.0,0.489583,Eighth,C2
2432,Left,1,48,80,601.5,0.489583,Eighth,C3
2433,Right,0,65,80,602.0,0.489583,Eighth,F4_B4
2435,Right,0,63,80,602.5,0.489583,Eighth,D#4_C5
2437,Left,1,36,80,603.0,0.489583,Eighth,C2
2438,Left,1,48,80,603.5,0.489583,Eighth,C3
2439,Right,0,77,80,604.0,0.489583,Eighth,F5_B4
2441,Right,0,75,80,604.5,0.489583,Eighth,D#5_C5
2443,Left,1,36,80,605.0,0.489583,Eighth,C2
2444,Left,1,48,80,605.5,0.489583,Eighth,C3
2445,Right,0,83,80,606.0,0.489583,Eighth,F5_B5
2447,Right,0,75,80,606.5,0.489583,Eighth,D#5_C6
2449,Left,1,32,80,607.0,0.489583,Eighth,G#1
2450,Left,1,44,81,607.5,0.489583,Eighth,G#2
2451,Right,0,60,83,608.0,0.489583,Eighth,F#4_C4
2453,Right,0,61,85,608.5,0.489583,Eighth,F4_C#4
2455,Left,1,32,87,609.0,0.489583,Eighth,G#1
2456,Left,1,44,89,609.5,0.489583,Eighth,G#2
2457,Right,0,65,91,610.0,0.489583,Eighth,F4_C#5
2459,Right,0,72,93,610.5,0.489583,Eighth,F#4_C5
2461,Left,1,32,95,611.0,0.489583,Eighth,G#1
2462,Left,1,44,97,611.5,0.489583,Eighth,G#2
2463,Right,0,77,99,612.0,0.489583,Eighth,F5_C#5
2465,Right,0,78,101,612.5,0.489583,Eighth,F#5_C5
2467,Left,1,32,103,613.0,0.489583,Eighth,G#1
2468,Left,1,44,105,613.5,0.489583,Eighth,G#2
2469,Right,0,85,107,614.0,0.489583,Eighth,F5_C#6
2471,Right,0,78,109,614.5,0.489583,Eighth,F#5_C6
2473,Left,1,32,120,615.0,13.989583,Unknown,G#2_G#1
2475,Right,0,78,120,615.0,3.989583,Whole,F#5_D#6
2477,Right,0,75,100,619.0,1.989583,Half,D#5_C#6
2479,Right,0,84,94,620.0,0.989583,Quarter,C6
2480,Right,0,82,87,621.0,7.989583,Quarter,C5_A#5
2482,Right,0,80,81,622.0,0.989583,Quarter,G#5
2483,Right,0,77,74,623.0,0.239583,Sixteenth,F5
2484,Right,0,78,72,623.25,0.239583,Sixteenth,F#5
2485,Right,0,80,71,623.5,0.489583,Eighth,G#5
2486,Right,0,78,80,624.0,4.989583,Unknown,F#5
2487,Right,0,56,80,629.5,0.489583,Eighth,G#3
2488,Right,0,58,80,630.0,0.489583,Eighth,A#3
2489,Right,0,60,80,630.5,0.489583,Eighth,C4
2492,Left,1,49,80,631.0,1.989583,Half,C#3_C#2
2490,Right,0,61,80,631.0,1.989583,Half,G#3_F3_C#4
2495,Right,0,63,80,631.5,0.489583,Eighth,D#4
2496,Right,0,65,80,632.0,0.989583,Quarter,F4
2497,Right,0,63,80,633.0,0.989583,Quarter,G#3_D#4
2499,Left,1,48,80,633.0,0.989583,Quarter,F#2_C3
2502,Right,0,61,80,634.0,0.989583,Quarter,G#3_C#4
2501,Left,1,41,80,634.0,0.989583,Quarter,F2_C#3
2505,Left,1,51,80,635.0,2.489583,Half,G#2_D#3
2506,Right,0,66,80,635.0,2.489583,Half,G#3_F#4_F#3_C4
2511,Right,0,56,80,637.5,0.489583,Eighth,G#3
2512,Right,0,58,80,638.0,0.489583,Eighth,A#3
2513,Right,0,60,80,638.5,0.489583,Eighth,C4
2516,Right,0,56,80,639.0,1.989583,Half,G#3_F3_C#4
2514,Left,1,49,80,639.0,1.989583,Half,C#3_C#2
2519,Right,0,63,80,639.5,0.489583,Eighth,D#4
2520,Right,0,65,80,640.0,0.989583,Quarter,F4
2521,Right,0,63,80,641.0,0.989583,Quarter,D#4_D#3_A#3
2522,Left,1,42,80,641.0,0.989583,Quarter,F#2_F#1
2527,Right,0,51,80,642.0,0.989583,Quarter,D#3_C#4_A#3
2526,Left,1,43,80,642.0,0.989583,Quarter,G2_G1
2533,Right,0,48,80,643.0,1.989583,Half,G#3_D#3_C3
2531,Left,1,44,80,643.0,1.989583,Half,G#2_G#1
2536,Right,0,56,80,645.5,0.489583,Eighth,G#3
2537,Right,0,58,80,646.0,0.489583,Eighth,A#3
2538,Right,0,60,80,646.5,0.489583,Eighth,C4
2541,Right,0,56,80,647.0,1.989583,Half,G#3_F3_C#4
2539,Left,1,37,80,647.0,1.989583,Half,C#3_C#2
2544,Right,0,63,80,647.5,0.489583,Eighth,D#4
2545,Right,0,65,80,648.0,0.989583,Quarter,F4
2546,Right,0,56,80,649.0,0.989583,Quarter,G#3_D#4
2548,Left,1,48,80,649.0,0.989583,Quarter,F#2_C3
2552,Left,1,49,80,650.0,0.989583,Quarter,F2_C#3
2550,Right,0,56,80,650.0,0.989583,Quarter,G#3_C#4
2556,Left,1,44,80,651.0,3.989583,Whole,G#2_D#3_C3
2554,Right,0,54,80,651.0,3.989583,Whole,G#3_F#4_F#3_C4
2561,Right,0,63,80,652.5,0.489583,Eighth,D#4
2562,Right,0,60,80,653.0,1.989583,Half,C4
2563,Left,1,33,80,655.0,0.239583,Sixteenth,A1
2564,Left,1,36,80,655.125,0.239583,Sixteenth,C2
2565,Left,1,39,80,655.25,0.239583,Sixteenth,D#2
2566,Left,1,42,80,655.375,0.239583,Sixteenth,F#2
2567,Left,1,45,80,655.5,6.28125,Unknown,A2
2568,Left,1,48,80,655.625,6.15625,Unknown,C3
2569,Left,1,51,80,655.75,6.03125,Unknown,D#3
2570,Right,0,54,80,655.875,0.239583,Sixteenth,F#3
2571,Right,0,57,80,656.0,5.78125,Unknown,A3
2572,Right,0,60,80,656.125,0.239583,Sixteenth,C4
2573,Right,0,66,80,656.25,1.739583,DottedQuarter,F#4
2574,Right,0,63,80,658.0,0.989583,Quarter,D#4
2575,Right,0,60,80,659.0,2.78125,DottedHalf,C4
2576,Left,1,31,80,661.875,0.239583,Sixteenth,G1
2577,Left,1,36,80,662.0,0.239583,Sixteenth,C2
2578,Left,1,39,120,662.125,0.239583,Sixteenth,D#2
2579,Left,1,43,120,662.25,0.239583,Sixteenth,G2
2580,Left,1,48,120,662.375,0.239583,Sixteenth,C3
2581,Left,1,51,120,662.5,0.239583,Sixteenth,D#3
2582,Right,0,55,120,662.625,0.239583,Sixteenth,G3
2583,Right,0,60,120,662.75,0.239583,Sixteenth,C4
2584,Right,0,63,120,662.875,0.239583,Sixteenth,D#4
2585,Right,0,67,120,663.0,0.489583,Eighth,G4
2586,Right,0,63,120,663.5,0.489583,Eighth,D#4
2587,Right,0,60,120,664.0,0.489583,Eighth,C4
2588,Right,0,55,120,664.5,0.489583,Eighth,G3
2589,Right,0,51,120,665.0,0.489583,Eighth,D#3
2590,Right,0,48,120,665.5,0.489583,Eighth,C3
2592,Left,1,43,120,666.0,0.989583,Quarter,G2_G1
2591,Right,0,47,120,666.0,0.489583,Eighth,B2
2594,Right,0,50,120,666.5,0.489583,Eighth,D3
2595,Right,0,48,120,667.0,0.489583,Eighth,C3
2596,Left,1,36,120,667.0,0.489583,Eighth,C2
2597,Left,1,48,120,667.5,0.489583,Eighth,C3
2598,Left,1,48,120,668.0,0.489583,Eighth,C3
2599,Left,1,48,120,668.5,0.489583,Eighth,C3
2600,Left,1,48,120,669.0,0.489583,Eighth,C3
2601,Left,1,55,80,669.5,0.489583,Eighth,G3_A#3
2603,Right,0,60,80,669.5,0.489583,Eighth,C4
2606,Right,0,62,80,670.0,0.489583,Eighth,D4
2604,Left,1,55,80,670.0,0.489583,Eighth,G3_A#3
2607,Left,1,55,80,670.5,0.489583,Eighth,G3_A#3
2609,Right,0,64,80,670.5,0.489583,Eighth,E4
2611,Right,0,65,80,671.0,0.489583,Eighth,F4
2610,Left,1,48,80,671.0,0.489583,Eighth,C3
2614,Right,0,67,80,671.5,0.489583,Eighth,G4
2612,Left,1,53,80,671.5,0.489583,Eighth,G#3_F3
2616,Left,1,53,80,672.0,0.489583,Eighth,G#3_F3
2615,Right,0,68,80,672.0,0.489583,Eighth,G#4
2619,Right,0,84,80,672.5,0.489583,Eighth,C6
2618,Left,1,56,80,672.5,0.489583,Eighth,G#3_F3
2622,Left,1,48,80,673.0,0.489583,Eighth,C3
2621,Right,0,83,80,673.0,0.489583,Eighth,B5
2624,Left,1,53,80,673.5,0.489583,Eighth,G#3_F3_B3
2623,Right,0,84,80,673.5,0.489583,Eighth,C6
2627,Left,1,53,80,674.0,0.489583,Eighth,G#3_F3_B3
2629,Right,0,89,80,674.0,0.489583,Eighth,F6
2634,Right,0,89,80,674.5,0.489583,Eighth,F6
2631,Left,1,53,80,674.5,0.489583,Eighth,G#3_F3_B3
2635,Left,1,48,80,675.0,0.489583,Eighth,C3
2636,Right,0,88,80,675.0,0.989583,Quarter,E6
2637,Left,1,60,80,675.5,0.489583,Eighth,G3_E3_C4
2640,Left,1,60,80,676.0,0.489583,Eighth,G3_E3_C4
2643,Left,1,60,80,676.5,0.489583,Eighth,G3_E3_C4
2646,Left,1,48,80,677.0,0.489583,Eighth,C3
2647,Left,1,58,80,677.5,0.489583,Eighth,G3_A#3
2649,Right,0,60,80,677.5,0.489583,Eighth,C4
2650,Left,1,58,80,678.0,0.489583,Eighth,G3_A#3
2652,Right,0,62,80,678.0,0.489583,Eighth,D4
2655,Right,0,64,80,678.5,0.489583,Eighth,E4
2653,Left,1,58,80,678.5,0.489583,Eighth,G3_A#3
2656,Left,1,48,80,679.0,0.489583,Eighth,C3
2657,Right,0,65,80,679.0,0.489583,Eighth,F4
2659,Left,1,53,80,679.5,0.489583,Eighth,G#3_F3
2658,Right,0,67,80,679.5,0.489583,Eighth,G4
2662,Left,1,53,80,680.0,0.489583,Eighth,G#3_F3
2661,Right,0,68,80,680.0,0.489583,Eighth,G#4
2664,Left,1,56,80,680.5,0.489583,Eighth,G#3_F3
2665,Right,0,84,80,680.5,0.489583,Eighth,C6
2668,Left,1,48,80,681.0,0.489583,Eighth,C3
2667,Right,0,83,80,681.0,0.489583,Eighth,B5
2669,Left,1,56,80,681.5,0.489583,Eighth,G#3_F3_B3
2671,Right,0,84,80,681.5,0.489583,Eighth,C6
2673,Left,1,56,80,682.0,0.489583,Eighth,G#3_F3_B3
2676,Right,0,89,80,682.0,0.489583,Eighth,F6
2678,Left,1,59,80,682.5,0.489583,Eighth,G#3_F3_B3
2677,Right,0,89,80,682.5,0.489583,Eighth,F6
2681,Left,1,48,80,683.0,0.489583,Eighth,C3
2682,Right,0,88,80,683.0,0.989583,Quarter,E6
2683,Left,1,60,80,683.5,0.489583,Eighth,G3_E3_C4
2686,Left,1,60,80,684.0,0.489583,Eighth,G3_E3_C4
2689,Left,1,60,80,684.5,0.489583,Eighth,G3_E3_C4
2691,Right,0,72,80,684.5,0.489583,Eighth,C5
2694,Right,0,71,80,685.0,0.489583,Eighth,B4
2693,Left,1,48,80,685.0,0.489583,Eighth,C3
2695,Left,1,55,80,685.5,0.489583,Eighth,G3_A#3
2697,Right,0,72,80,685.5,0.489583,Eighth,C5
2700,Right,0,77,80,686.0,0.489583,Eighth,F5
2698,Left,1,58,80,686.0,0.489583,Eighth,G3_A#3
2701,Left,1,58,79,686.5,0.489583,Eighth,G3_A#3
2703,Right,0,77,79,686.5,0.489583,Eighth,F5
2705,Right,0,76,79,687.0,0.989583,Quarter,E5
2704,Left,1,48,79,687.0,0.489583,Eighth,C3
2706,Left,1,60,78,687.5,0.489583,Eighth,G3_E3_C4
2709,Left,1,60,78,688.0,0.489583,Eighth,G3_E3_C4
2713,Left,1,60,77,688.5,0.489583,Eighth,G3_E3_C4
2712,Right,0,60,77,688.5,0.489583,Eighth,C4
2716,Left,1,48,77,689.0,0.489583,Eighth,C3
2717,Right,0,59,77,689.0,0.489583,Eighth,B3
2718,Left,1,58,76,689.5,0.489583,Eighth,G3_A#3
2720,Right,0,60,76,689.5,0.489583,Eighth,C4
2721,Left,1,58,76,690.0,0.489583,Eighth,G3_A#3
2722,Right,0,65,76,690.0,0.489583,Eighth,F4
2724,Right,0,65,75,690.5,0.489583,Eighth,F4
2725,Left,1,55,75,690.5,0.489583,Eighth,G3_A#3
2728,Right,0,64,75,691.0,0.989583,Quarter,E4
2727,Left,1,48,75,691.0,0.489583,Eighth,C3
2729,Left,1,55,74,691.5,0.489583,Eighth,G3_E3_C4
2732,Left,1,52,74,692.0,0.489583,Eighth,G3_E3_C4
2736,Right,0,36,73,692.5,0.489583,Eighth,C2
2735,Left,1,55,73,692.5,0.489583,Eighth,G3_E3_C4
2740,Left,1,48,73,693.0,0.489583,Eighth,C3
2739,Right,0,36,73,693.0,0.989583,Quarter,C2
2741,Left,1,52,72,693.5,0.489583,Eighth,G3_E3_C4
2744,Left,1,52,72,694.0,0.489583,Eighth,G3_E3_C4
2749,Right,0,36,71,694.5,0.739583,DottedEighth,C2
2747,Left,1,60,71,694.5,0.739583,DottedEighth,G3_E3_C4
2752,Right,0,36,71,695.25,1.989583,Half,C2
2751,Left,1,55,71,695.25,1.989583,Half,G3_E3_C3
2755,Right,0,60,1,700.0,0.489583,Eighth,C4
