,hand,channel,note,velocity,start_beat,duration,note_value,chord
0,Left,1,63,110,0.875,0.114583,ThirtySecond,D#4_D#3
2,Left,1,54,110,1.0,0.864583,DottedEighth,F#3_F#2
6,Right,0,75,110,1.875,0.114583,ThirtySecond,D#5_D#4_C5_A4
4,Left,1,42,110,1.875,0.114583,ThirtySecond,F#2_F#1
12,Left,1,54,110,2.0,1.864583,Half,F#3_F#2
10,Right,0,63,110,2.0,1.864583,Half,D#5_D#4_C5_A4
17,Left,1,54,110,3.875,0.114583,ThirtySecond,F#3_D#4
16,Right,0,69,110,3.875,0.114583,ThirtySecond,C5_A4
20,Left,1,54,107,4.0,0.989583,Quarter,F#3_D#4
22,Right,0,69,107,4.0,0.989583,Quarter,C5_A4
24,Right,0,74,105,4.0625,0.114583,ThirtySecond,D5
25,Right,0,72,103,4.125,0.114583,ThirtySecond,C5
26,Right,0,74,101,4.1875,0.114583,ThirtySecond,D5
27,Right,0,72,99,4.25,0.114583,ThirtySecond,C5
28,Right,0,74,98,4.3125,0.114583,ThirtySecond,D5
29,Right,0,72,96,4.375,0.114583,ThirtySecond,C5
30,Right,0,74,94,4.4375,0.114583,ThirtySecond,D5
31,Right,0,72,92,4.5,0.114583,ThirtySecond,C5
32,Right,0,74,90,4.5625,0.114583,ThirtySecond,D5
33,Right,0,72,88,4.625,0.114583,ThirtySecond,C5
34,Right,0,74,86,4.6875,0.114583,ThirtySecond,D5
35,Right,0,71,85,4.75,0.114583,ThirtySecond,B4
36,Right,0,72,81,4.875,0.114583,ThirtySecond,C5
37,Right,0,67,80,5.0,0.489583,Eighth,G4_B4
39,Left,1,55,80,5.0,0.489583,Eighth,G3_D4
41,Right,0,63,80,6.0,0.489583,Eighth,G4_D#4_C5
42,Left,1,55,80,6.0,0.489583,Eighth,G3_C4_C3
47,Left,1,35,110,6.5,0.208333,Sixteenth,B1
48,Left,1,38,110,6.5625,0.208333,Sixteenth,D2
49,Left,1,43,110,6.625,0.208333,Sixteenth,G2
50,Left,1,47,110,6.6875,0.208333,Sixteenth,B2
51,Left,1,50,110,6.75,0.208333,Sixteenth,D3
52,Left,1,55,110,6.8125,0.208333,Sixteenth,G3
53,Left,1,59,110,6.875,0.208333,Sixteenth,B3
54,Left,1,62,110,6.9375,0.15625,TripletSixteenth,D4
55,Left,1,67,110,7.0,0.104167,ThirtySecond,G4
56,Left,1,71,110,7.0625,0.052083,SixtyFourth,B4
57,Right,0,62,110,7.125,0.364583,DottedSixteenth,G4_D5_D4
58,Left,1,47,110,7.125,0.364583,DottedSixteenth,B2_B1
62,Left,1,68,110,8.875,0.114583,ThirtySecond,G#4_G#3
64,Left,1,59,110,9.0,0.864583,DottedEighth,B3_B2
66,Right,0,77,110,9.875,0.114583,ThirtySecond,G#5_G#4_F5_D5
69,Left,1,47,110,9.875,0.114583,ThirtySecond,B2_B1
72,Right,0,77,110,10.0,1.864583,Half,G#5_G#4_F5_D5
76,Left,1,47,110,10.0,1.864583,Half,B3_B2
80,Right,0,74,110,11.875,0.114583,ThirtySecond,F5_D5
78,Left,1,59,110,11.875,0.114583,ThirtySecond,G#4_B3
83,Right,0,74,107,12.0,0.989583,Quarter,F5_D5
82,Left,1,59,107,12.0,0.989583,Quarter,G#4_B3
86,Right,0,79,105,12.0625,0.114583,ThirtySecond,G5
87,Right,0,77,103,12.125,0.114583,ThirtySecond,F5
88,Right,0,79,101,12.1875,0.114583,ThirtySecond,G5
89,Right,0,77,99,12.25,0.114583,ThirtySecond,F5
90,Right,0,79,98,12.3125,0.114583,ThirtySecond,G5
91,Right,0,77,96,12.375,0.114583,ThirtySecond,F5
92,Right,0,79,94,12.4375,0.114583,ThirtySecond,G5
93,Right,0,77,92,12.5,0.114583,ThirtySecond,F5
94,Right,0,79,90,12.5625,0.114583,ThirtySecond,G5
95,Right,0,77,88,12.625,0.114583,ThirtySecond,F5
96,Right,0,79,86,12.6875,0.114583,ThirtySecond,G5
97,Right,0,76,85,12.75,0.114583,ThirtySecond,E5
98,Right,0,77,81,12.875,0.114583,ThirtySecond,F5
99,Left,1,61,80,13.0,0.489583,Eighth,C#4_A#3
100,Right,0,76,80,13.0,0.489583,Eighth,G4_E5
103,Right,0,77,80,14.0,0.489583,Eighth,F5_F4_C5
106,Left,1,56,80,14.0,0.489583,Eighth,G#3_C4
108,Left,1,40,110,14.5,0.208333,Sixteenth,E2
109,Left,1,43,110,14.5625,0.208333,Sixteenth,G2
110,Left,1,48,110,14.625,0.208333,Sixteenth,C3
111,Left,1,52,110,14.6875,0.208333,Sixteenth,E3
112,Left,1,55,110,14.75,0.208333,Sixteenth,G3
113,Left,1,60,110,14.8125,0.208333,Sixteenth,C4
114,Left,1,64,110,14.875,0.208333,Sixteenth,E4
115,Right,0,67,110,14.9375,0.052083,SixtyFourth,G4
116,Right,0,72,110,15.0,0.052083,SixtyFourth,C5
117,Right,0,76,110,15.0625,0.052083,SixtyFourth,E5
118,Right,0,67,110,15.1875,0.489583,Eighth,G5_G4_C5
119,Left,1,40,110,15.1875,0.489583,Eighth,E3_E2
123,Left,1,61,110,16.875,0.114583,ThirtySecond,C#4_C#3
125,Left,1,52,110,17.0,0.864583,DottedEighth,E3_E2
128,Right,0,77,110,17.875,0.114583,ThirtySecond,F5_C#6_C#5_A#5
127,Left,1,53,110,17.875,0.114583,ThirtySecond,F3_F2
135,Right,0,73,110,18.0,1.864583,Half,F5_C#6_C#5_A#5
133,Left,1,53,110,18.0,1.864583,Half,F3_F2
141,Left,1,58,110,19.875,0.114583,ThirtySecond,F3_C#4_A#3
139,Right,0,73,110,19.875,0.114583,ThirtySecond,C#5_A#5
145,Right,0,82,107,20.0,0.989583,ThirtySecond,C#5_A#5
144,Left,1,61,107,20.0,0.989583,Quarter,F3_C#4_A#3
149,Right,0,84,105,20.0625,0.114583,ThirtySecond,C6
150,Right,0,82,104,20.125,0.114583,ThirtySecond,A#5
151,Right,0,84,102,20.1875,0.114583,ThirtySecond,C6
152,Right,0,82,100,20.25,0.114583,ThirtySecond,A#5
153,Right,0,84,98,20.3125,0.114583,ThirtySecond,C6
154,Right,0,82,97,20.375,0.114583,ThirtySecond,A#5
155,Right,0,84,95,20.4375,0.114583,ThirtySecond,C6
156,Right,0,82,93,20.5,0.114583,ThirtySecond,A#5
157,Right,0,84,91,20.5625,0.114583,ThirtySecond,C6
158,Right,0,82,90,20.625,0.114583,ThirtySecond,A#5
159,Right,0,84,88,20.6875,0.114583,ThirtySecond,C6
160,Right,0,82,86,20.75,0.114583,ThirtySecond,A#5
161,Right,0,84,84,20.8125,0.114583,ThirtySecond,C6
162,Right,0,81,83,20.875,0.114583,ThirtySecond,A5
163,Right,0,82,81,20.9375,0.052083,SixtyFourth,A#5
164,Left,1,61,80,21.0,0.864583,DottedEighth,F#3_C#4_A#3
167,Right,0,73,80,21.0,0.864583,DottedEighth,D#5_C#5_A#5
170,Right,0,75,78,21.875,0.114583,ThirtySecond,D#5_C#5_A#5
171,Left,1,58,78,21.875,0.114583,ThirtySecond,G3_C#4_A#3
179,Right,0,82,78,22.0,1.864583,Half,D#5_C#5_A#5
176,Left,1,61,78,22.0,1.864583,Half,G3_C#4_A#3
184,Right,0,80,73,23.875,0.114583,ThirtySecond,G#5_D#5_C5
182,Left,1,60,73,23.875,0.114583,ThirtySecond,G#3_C4
189,Left,1,56,73,24.0,0.489583,Eighth,G#3_C4
187,Right,0,72,73,24.0,0.739583,Eighth,G#5_D#5_C5
195,Right,0,78,71,24.875,0.114583,ThirtySecond,F#5_D#5_C5
192,Left,1,66,71,24.875,0.114583,ThirtySecond,F#4_D#4_A3
201,Left,1,57,70,25.0,0.864583,DottedEighth,F#4_D#4_A3
198,Right,0,78,70,25.0,0.864583,DottedEighth,F#5_D#5_C5
204,Left,1,58,70,25.875,0.114583,ThirtySecond,F#4_D#4_A#3
206,Right,0,70,70,25.875,0.114583,ThirtySecond,F#5_D#5_A#4
210,Left,1,66,70,26.0,1.864583,Half,F#4_D#4_A#3
211,Right,0,70,70,26.0,1.864583,Half,F#5_D#5_A#4
216,Left,1,63,70,27.875,0.114583,ThirtySecond,F#4_D#4_B3
217,Right,0,78,70,27.875,0.114583,ThirtySecond,F#5_D#5_A4
222,Right,0,78,70,28.0,0.864583,DottedEighth,F#5_D#5_A4
225,Left,1,59,70,28.0,0.864583,DottedEighth,F#4_D#4_B3
228,Right,0,69,70,28.875,0.114583,ThirtySecond,F#5_D#5_A4
229,Left,1,60,70,28.875,0.114583,ThirtySecond,F#4_D#4_C4
234,Right,0,78,70,29.0,0.864583,DottedEighth,F#5_D#5_A4
236,Left,1,60,70,29.0,0.864583,DottedEighth,F#4_D#4_C4
240,Right,0,68,70,29.875,0.114583,ThirtySecond,G#4_F5_C#5
243,Left,1,65,70,29.875,0.114583,ThirtySecond,F4_C#4
245,Left,1,61,70,30.0,1.864583,Half,F4_C#4
247,Right,0,77,70,30.0,1.864583,Half,G#4_F5_C#5
250,Right,0,68,70,31.875,0.114583,ThirtySecond,G#4_F5_B4
253,Left,1,65,70,31.875,0.114583,ThirtySecond,F4_D4
255,Right,0,71,70,32.0,0.864583,DottedEighth,G#4_F5_B4
257,Left,1,62,70,32.0,0.864583,DottedEighth,F4_D4
262,Right,0,68,70,32.875,0.114583,ThirtySecond,G#4_F5_B4
260,Left,1,38,70,32.875,0.114583,ThirtySecond,D3_D2
265,Right,0,68,70,33.0,0.864583,DottedEighth,G#4_F5_B4
266,Left,1,38,70,33.0,0.864583,DottedEighth,D3_D2
271,Left,1,39,70,33.875,0.114583,ThirtySecond,D#3_D#2
270,Right,0,75,70,33.875,0.114583,ThirtySecond,G#4_D#5_C5
275,Right,0,68,70,34.0,1.864583,Half,G#4_D#5_C5
278,Left,1,39,70,34.0,1.864583,Half,D#3_D#2
283,Left,1,39,70,35.875,0.114583,ThirtySecond,D#3_D#2
280,Right,0,72,70,35.875,0.114583,ThirtySecond,G#4_D#5_C5
285,Left,1,51,70,36.0,0.864583,DottedEighth,D#3_D#2
287,Right,0,68,70,36.0,0.864583,DottedEighth,G#4_D#5_C5
293,Left,1,52,70,36.875,0.114583,ThirtySecond,E3_E2
290,Right,0,70,70,36.875,0.114583,ThirtySecond,G4_C#5_A#4
295,Left,1,52,70,37.0,0.864583,DottedEighth,E3_E2
297,Right,0,73,70,37.0,0.864583,DottedEighth,G4_C#5_A#4
302,Right,0,73,85,37.875,0.114583,ThirtySecond,F4_C#5_A#4
300,Left,1,53,85,37.875,0.114583,ThirtySecond,F3_F2
308,Left,1,53,88,38.0,0.864583,DottedEighth,F3_F2
305,Right,0,73,88,38.0,0.864583,DottedEighth,F4_C#5_A#4
310,Right,0,70,104,38.875,0.114583,ThirtySecond,E4_C#5_A#4
311,Left,1,55,104,38.875,0.114583,ThirtySecond,G3_G2
315,Left,1,43,106,39.0,0.489583,Eighth,G3_G2
316,Right,0,70,106,39.0,0.489583,Eighth,E4_C#5_A#4
322,Left,1,44,110,39.5,0.489583,Eighth,G#3_G#2
320,Right,0,65,110,39.5,0.489583,Eighth,F4_C5_C4
325,Right,0,72,110,40.0,0.489583,Eighth,F4_C5_C4
326,Left,1,44,110,40.0,0.489583,Eighth,G#3_G#2
330,Left,1,32,110,40.5,0.489583,Eighth,G#2_G#1
332,Right,0,72,110,40.5,0.489583,Eighth,F#4_C5_C4
335,Right,0,71,110,41.0,0.489583,Eighth,G4_D4_B4
336,Left,1,43,110,41.0,0.489583,Eighth,G2_G1
340,Left,1,55,110,41.5,0.489583,Eighth,G3
341,Left,1,55,80,42.0,0.489583,Eighth,G3
342,Left,1,55,110,42.5,0.489583,Eighth,G3_G#3
344,Left,1,56,80,43.0,0.489583,Eighth,G#3_F3
346,Left,1,55,110,43.5,0.489583,Eighth,G3_F3
348,Left,1,55,80,44.0,0.489583,Eighth,G3_F3
350,Right,0,67,80,44.0,0.989583,Quarter,G4
351,Right,0,60,80,44.5,0.489583,Eighth,C4
352,Left,1,51,80,44.5,0.489583,Eighth,G3_D#3
356,Right,0,69,80,45.0,0.989583,Quarter,F#4_C4_A4
354,Left,1,51,80,45.0,0.989583,Quarter,G3_D#3
359,Left,1,55,80,45.5,0.489583,Eighth,G3
361,Right,0,65,80,46.0,0.989583,Quarter,F4_D4_B4
360,Left,1,50,80,46.0,0.989583,Quarter,G3_D3
365,Left,1,55,80,46.5,0.489583,Eighth,G3
367,Right,0,72,80,47.0,0.989583,Quarter,G4_D#4_C5
366,Left,1,55,80,47.0,0.989583,Eighth,G3_C3
371,Left,1,55,80,47.5,0.489583,Eighth,G3
372,Left,1,42,80,48.0,0.864583,DottedEighth,G3_F#2
373,Right,0,72,80,48.0,0.864583,DottedEighth,D#4_C5_A4
377,Left,1,55,80,48.5,0.989583,Quarter,G3
379,Right,0,67,80,48.875,0.114583,ThirtySecond,G4_D4_B4
378,Left,1,43,80,48.875,0.114583,ThirtySecond,G2
385,Left,1,43,80,49.0,0.489583,Eighth,G2
382,Right,0,71,80,49.0,0.989583,Quarter,G4_D4_B4
386,Left,1,43,110,49.5,0.489583,Eighth,G2
387,Left,1,43,80,50.0,0.489583,Eighth,G2
388,Left,1,43,110,50.5,0.489583,Eighth,G2_G#2
390,Left,1,44,80,51.0,0.489583,Eighth,G#2_F2
392,Left,1,43,110,51.5,0.489583,Eighth,G2_F2
396,Right,0,55,80,52.0,0.989583,Quarter,G3
394,Left,1,43,80,52.0,0.489583,Eighth,G2_F2
397,Left,1,43,80,52.5,0.489583,Eighth,G2_D#2
399,Right,0,48,80,52.5,0.489583,Eighth,C3
400,Right,0,54,80,53.0,0.989583,Quarter,F#3_C3_A3
401,Left,1,43,80,53.0,0.989583,Eighth,G2_D#2
405,Left,1,43,80,53.5,0.489583,Eighth,G2
406,Right,0,50,80,54.0,0.989583,Quarter,F3_D3_B3
407,Left,1,43,80,54.0,0.989583,Eighth,G2_D2
411,Left,1,43,80,54.5,0.489583,Eighth,G2
412,Right,0,55,80,55.0,0.989583,Quarter,G3_D#3_C4
413,Left,1,43,80,55.0,0.989583,Eighth,G2_C2
417,Left,1,43,80,55.5,0.489583,Eighth,G2
418,Left,1,43,80,56.0,0.864583,Eighth,G2_F#1
420,Right,0,60,80,56.0,0.864583,DottedEighth,D#3_C4_A3
423,Left,1,43,80,56.5,0.989583,Quarter,G2
427,Left,1,31,80,56.875,0.114583,ThirtySecond,G1
424,Right,0,50,80,56.875,0.114583,ThirtySecond,G3_D3_B3
428,Left,1,31,80,57.0,1.989583,Half,G1
429,Right,0,55,80,57.0,1.989583,Half,G3_D3_B3
432,Left,1,43,80,57.5,0.489583,Eighth,G2
433,Left,1,43,80,58.0,0.489583,Eighth,G2
434,Left,1,43,80,58.5,0.489583,Eighth,G2
435,Left,1,43,80,59.0,1.989583,Eighth,G2_G1
437,Left,1,43,80,59.5,0.489583,Eighth,G2
438,Left,1,43,80,60.0,0.489583,Eighth,G2
439,Left,1,43,80,60.5,0.489583,Eighth,G2
440,Right,0,50,80,60.75,0.239583,Sixteenth,G3_D3_B3
443,Right,0,59,70,61.0,3.989583,Whole,G3_D3_B3
444,Left,1,31,70,61.0,0.239583,Sixteenth,G1
447,Left,1,32,70,61.125,0.239583,Sixteenth,G#1
448,Left,1,31,70,61.25,0.239583,Sixteenth,G1
449,Left,1,32,70,61.375,0.239583,Sixteenth,G#1
450,Left,1,31,70,61.5,0.239583,Sixteenth,G1
451,Left,1,32,70,61.625,0.239583,Sixteenth,G#1
452,Left,1,31,70,61.75,0.239583,Sixteenth,G1
453,Left,1,32,70,61.875,0.239583,Sixteenth,G#1
454,Left,1,31,70,62.0,0.239583,Sixteenth,G1
455,Left,1,32,70,62.125,0.239583,Sixteenth,G#1
456,Left,1,31,70,62.25,0.239583,Sixteenth,G1
457,Left,1,32,70,62.375,0.239583,Sixteenth,G#1
458,Left,1,31,70,62.5,0.239583,Sixteenth,G1
459,Left,1,32,70,62.625,0.239583,Sixteenth,G#1
460,Left,1,31,70,62.75,0.239583,Sixteenth,G1
461,Left,1,32,70,62.875,0.239583,Sixteenth,G#1
462,Left,1,31,70,63.0,0.239583,Sixteenth,G1
463,Left,1,32,70,63.125,0.239583,Sixteenth,G#1
464,Left,1,31,70,63.25,0.239583,Sixteenth,G1
465,Left,1,32,70,63.375,0.239583,Sixteenth,G#1
466,Left,1,31,70,63.5,0.239583,Sixteenth,G1
467,Left,1,32,70,63.625,0.239583,Sixteenth,G#1
468,Left,1,31,70,63.75,0.239583,Sixteenth,G1
469,Left,1,32,70,63.875,0.239583,Sixteenth,G#1
470,Left,1,31,70,64.0,0.239583,Sixteenth,G1
471,Left,1,32,70,64.125,0.239583,Sixteenth,G#1
472,Left,1,31,70,64.25,0.239583,Sixteenth,G1
473,Left,1,32,70,64.375,0.239583,Sixteenth,G#1
474,Left,1,31,70,64.5,0.239583,Sixteenth,G1
475,Left,1,32,70,64.625,0.239583,Sixteenth,G#1
476,Left,1,31,70,64.75,0.239583,Sixteenth,G1
477,Left,1,32,70,64.875,0.239583,Sixteenth,G#1
478,Right,0,62,70,65.0,3.989583,Whole,G3_D4_D3_B3
482,Left,1,31,70,65.0,0.489583,Eighth,G1
483,Left,1,32,71,65.25,0.489583,Eighth,G#1
484,Left,1,31,73,65.5,0.489583,Eighth,G1
485,Left,1,32,74,65.75,0.489583,Eighth,G#1
486,Left,1,31,75,66.0,0.489583,Eighth,G1
487,Left,1,32,76,66.25,0.489583,Eighth,G#1
488,Left,1,31,78,66.5,0.489583,Eighth,G1
489,Left,1,32,79,66.75,0.489583,Eighth,G#1
490,Left,1,31,80,67.0,0.489583,Eighth,G1
491,Left,1,32,81,67.25,0.489583,Eighth,G#1
492,Left,1,31,83,67.5,0.489583,Eighth,G1
493,Left,1,32,84,67.75,0.489583,Eighth,G#1
494,Left,1,31,85,68.0,0.489583,Eighth,G1
495,Left,1,32,87,68.25,0.489583,Eighth,G#1
496,Left,1,31,88,68.5,0.489583,Eighth,G1
497,Left,1,32,89,68.75,0.489583,Eighth,G#1
502,Left,1,31,90,69.0,0.489583,Eighth,G1
498,Right,0,59,90,69.0,3.489583,Sixteenth,G4_G3_D4_B3
504,Left,1,32,92,69.25,0.489583,Eighth,G#1
503,Right,0,44,92,69.25,0.489583,Eighth,G#2
506,Right,0,43,93,69.5,0.489583,Eighth,G2
505,Left,1,31,93,69.5,0.489583,Eighth,G1
507,Right,0,44,94,69.75,0.489583,Eighth,G#2
508,Left,1,32,94,69.75,0.489583,Eighth,G#1
510,Right,0,43,95,70.0,0.489583,Eighth,G2
509,Left,1,31,95,70.0,0.489583,Eighth,G1
512,Left,1,32,97,70.25,0.489583,Eighth,G#1
511,Right,0,44,97,70.25,0.489583,Eighth,G#2
513,Left,1,31,98,70.5,0.489583,Eighth,G1
514,Right,0,43,98,70.5,0.489583,Eighth,G2
515,Right,0,44,99,70.75,0.489583,Eighth,G#2
516,Left,1,32,99,70.75,0.489583,Eighth,G#1
517,Left,1,31,100,71.0,0.489583,Eighth,G1
518,Right,0,43,100,71.0,0.489583,Eighth,G2
519,Left,1,32,102,71.25,0.489583,Eighth,G#1
520,Right,0,44,102,71.25,0.489583,Eighth,G#2
521,Left,1,31,103,71.5,0.489583,Eighth,G1
522,Right,0,43,103,71.5,0.489583,Eighth,G2
523,Right,0,44,104,71.75,0.489583,Eighth,G#2
524,Left,1,32,104,71.75,0.489583,Eighth,G#1
525,Left,1,31,105,72.0,0.489583,Eighth,G1
526,Right,0,43,105,72.0,0.489583,Eighth,G2
528,Right,0,44,107,72.25,0.239583,Sixteenth,G#2
527,Left,1,32,107,72.25,0.489583,Eighth,G#1
530,Right,0,43,108,72.5,0.239583,Sixteenth,G2
529,Left,1,31,108,72.5,0.489583,Eighth,G1
531,Right,0,45,110,72.75,0.114583,ThirtySecond,A2
532,Left,1,33,110,72.75,0.114583,ThirtySecond,A1
534,Right,0,47,110,72.875,0.114583,ThirtySecond,B2
533,Left,1,35,110,72.875,0.114583,ThirtySecond,B1
535,Right,0,48,110,73.0,0.989583,Quarter,C3
536,Left,1,36,110,73.0,0.989583,Quarter,C2
538,Right,0,43,110,76.5,0.15625,TripletSixteenth,G2
537,Left,1,31,110,76.5,0.15625,TripletSixteenth,G1
539,Left,1,33,110,76.666667,0.15625,TripletSixteenth,A1
540,Right,0,45,110,76.666667,0.15625,TripletSixteenth,A2
542,Right,0,47,110,76.833333,0.15625,TripletSixteenth,B2
541,Left,1,35,110,76.833333,0.15625,TripletSixteenth,B1
543,Right,0,48,110,77.0,0.989583,Quarter,C3
544,Left,1,36,110,77.0,0.989583,Quarter,C2
545,Right,0,51,110,78.0,0.989583,Quarter,D#3
546,Left,1,39,110,78.0,0.989583,Quarter,D#2
547,Right,0,47,120,78.958333,4.989583,Unknown,B2
548,Left,1,35,110,78.958333,4.989583,Unknown,B1
549,Right,0,43,110,84.5,0.15625,TripletSixteenth,G2
550,Left,1,31,110,84.5,0.15625,TripletSixteenth,G1
551,Left,1,33,110,84.666667,0.15625,TripletSixteenth,A1
552,Right,0,45,110,84.666667,0.15625,TripletSixteenth,A2
554,Left,1,35,110,84.833333,0.15625,TripletSixteenth,B1
553,Right,0,47,110,84.833333,0.15625,TripletSixteenth,B2
556,Right,0,48,110,85.0,0.989583,Quarter,C3
555,Left,1,36,110,85.0,0.989583,Quarter,C2
557,Left,1,39,110,86.0,0.989583,Quarter,D#2
558,Right,0,51,110,86.0,0.989583,Quarter,D#3
560,Right,0,47,120,87.0,1.489583,DottedQuarter,B2
559,Left,1,35,110,87.0,1.489583,DottedQuarter,B1
562,Right,0,56,110,88.5,0.489583,Eighth,G#3
561,Left,1,44,110,88.5,0.489583,Eighth,G#2
563,Right,0,55,110,89.0,0.489583,Eighth,G3
564,Left,1,43,110,89.0,0.489583,Eighth,G2
566,Right,0,53,110,89.5,0.489583,Eighth,F3
565,Left,1,41,110,89.5,0.489583,Eighth,F2
567,Right,0,51,110,90.0,0.489583,Eighth,D#3
568,Left,1,39,110,90.0,0.489583,Eighth,D#2
569,Right,0,50,110,90.5,0.489583,Eighth,D3
570,Left,1,38,110,90.5,0.489583,Eighth,D2
571,Right,0,51,110,91.0,0.239583,Sixteenth,D#3
572,Left,1,39,110,91.0,0.239583,Sixteenth,D#2
573,Left,1,41,110,91.25,0.239583,Sixteenth,F2
574,Right,0,53,110,91.25,0.239583,Sixteenth,F3
576,Right,0,51,110,91.5,0.239583,Sixteenth,D#3
575,Left,1,39,110,91.5,0.239583,Sixteenth,D#2
578,Right,0,50,110,91.75,0.239583,Sixteenth,D3
577,Left,1,38,110,91.75,0.239583,Sixteenth,D2
580,Right,0,48,110,92.0,0.489583,Eighth,C3
579,Left,1,36,110,92.0,0.489583,Eighth,C2
581,Right,0,56,110,92.5,0.489583,Eighth,G#3
582,Left,1,44,110,92.5,0.489583,Eighth,G#2
584,Right,0,55,110,93.0,0.489583,Eighth,G3
583,Left,1,43,110,93.0,0.489583,Eighth,G2
585,Right,0,53,101,93.5,0.489583,Eighth,F3
586,Left,1,41,101,93.5,0.489583,Eighth,F2
588,Left,1,39,91,94.0,0.489583,Eighth,D#2
587,Right,0,51,91,94.0,0.489583,Eighth,D#3
589,Left,1,38,81,94.5,0.489583,Eighth,D2
590,Right,0,50,81,94.5,0.489583,Eighth,D3
591,Right,0,51,80,95.0,0.239583,Sixteenth,D#3
592,Left,1,39,80,95.0,0.239583,Sixteenth,D#2
594,Left,1,41,80,95.25,0.239583,Sixteenth,F2
593,Right,0,53,80,95.25,0.239583,Sixteenth,F3
596,Left,1,39,80,95.5,0.239583,Sixteenth,D#2
595,Right,0,51,80,95.5,0.239583,Sixteenth,D#3
597,Left,1,38,80,95.75,0.239583,Sixteenth,D2
598,Right,0,50,80,95.75,0.239583,Sixteenth,D3
600,Left,1,36,80,96.0,0.239583,Sixteenth,C2
599,Right,0,48,80,96.0,0.239583,Sixteenth,C3
601,Left,1,44,80,96.25,0.239583,Sixteenth,G#2
602,Right,0,56,80,96.25,0.239583,Sixteenth,G#3
604,Left,1,46,81,96.5,0.239583,Sixteenth,A#2
603,Right,0,58,81,96.5,0.239583,Sixteenth,A#3
606,Right,0,56,82,96.75,0.239583,Sixteenth,G#3
605,Left,1,44,82,96.75,0.239583,Sixteenth,G#2
607,Left,1,43,82,97.0,0.239583,Sixteenth,G2
608,Right,0,55,82,97.0,0.239583,Sixteenth,G3
609,Left,1,44,83,97.25,0.239583,Sixteenth,G#2
610,Right,0,56,83,97.25,0.239583,Sixteenth,G#3
612,Left,1,43,84,97.5,0.239583,Sixteenth,G2
611,Right,0,55,84,97.5,0.239583,Sixteenth,G3
614,Right,0,53,85,97.75,0.239583,Sixteenth,F3
613,Left,1,41,85,97.75,0.239583,Sixteenth,F2
615,Left,1,39,85,98.0,0.239583,Sixteenth,D#2
616,Right,0,51,85,98.0,0.239583,Sixteenth,D#3
618,Left,1,41,86,98.25,0.239583,Sixteenth,F2
617,Right,0,53,86,98.25,0.239583,Sixteenth,F3
619,Right,0,51,87,98.5,0.239583,Sixteenth,D#3
620,Left,1,39,87,98.5,0.239583,Sixteenth,D#2
622,Left,1,38,87,98.75,0.239583,Sixteenth,D2
621,Right,0,50,87,98.75,0.239583,Sixteenth,D3
624,Left,1,39,88,99.0,0.239583,Sixteenth,D#2
623,Right,0,51,88,99.0,0.239583,Sixteenth,D#3
626,Left,1,41,89,99.25,0.239583,Sixteenth,F2
625,Right,0,53,89,99.25,0.239583,Sixteenth,F3
627,Right,0,51,90,99.5,0.239583,Sixteenth,D#3
628,Left,1,39,90,99.5,0.239583,Sixteenth,D#2
629,Right,0,50,90,99.75,0.239583,Sixteenth,D3
630,Left,1,38,90,99.75,0.239583,Sixteenth,D2
631,Right,0,48,91,100.0,0.239583,Sixteenth,C3
632,Left,1,36,91,100.0,0.239583,Sixteenth,C2
633,Left,1,43,92,100.25,0.239583,Sixteenth,G2
634,Right,0,55,92,100.25,0.239583,Sixteenth,G3
636,Left,1,41,92,100.5,0.239583,Sixteenth,F2
635,Right,0,53,92,100.5,0.239583,Sixteenth,F3
637,Right,0,51,93,100.75,0.239583,Sixteenth,D#3
638,Left,1,39,93,100.75,0.239583,Sixteenth,D#2
639,Right,0,53,94,101.0,0.239583,Sixteenth,F3
640,Left,1,41,94,101.0,0.239583,Sixteenth,F2
641,Right,0,55,95,101.25,0.239583,Sixteenth,G3
642,Left,1,43,95,101.25,0.239583,Sixteenth,G2
644,Left,1,41,95,101.5,0.239583,Sixteenth,F2
643,Right,0,53,95,101.5,0.239583,Sixteenth,F3
646,Left,1,39,96,101.75,0.239583,Sixteenth,D#2
645,Right,0,51,96,101.75,0.239583,Sixteenth,D#3
647,Right,0,50,97,102.0,0.239583,Sixteenth,D3
648,Left,1,38,97,102.0,0.239583,Sixteenth,D2
650,Right,0,56,98,102.25,0.239583,Sixteenth,G#3
649,Left,1,44,98,102.25,0.239583,Sixteenth,G#2
652,Right,0,55,98,102.5,0.239583,Sixteenth,G3
651,Left,1,43,98,102.5,0.239583,Sixteenth,G2
654,Right,0,53,99,102.75,0.239583,Sixteenth,F3
653,Left,1,41,99,102.75,0.239583,Sixteenth,F2
655,Right,0,55,100,103.0,0.239583,Sixteenth,G3
656,Left,1,43,100,103.0,0.239583,Sixteenth,G2
657,Left,1,44,100,103.25,0.239583,Sixteenth,G#2
658,Right,0,56,100,103.25,0.239583,Sixteenth,G#3
659,Right,0,55,101,103.5,0.239583,Sixteenth,G3
660,Left,1,43,101,103.5,0.239583,Sixteenth,G2
661,Left,1,41,102,103.75,0.239583,Sixteenth,F2
662,Right,0,53,102,103.75,0.239583,Sixteenth,F3
664,Right,0,52,103,104.0,0.239583,Sixteenth,E3
663,Left,1,40,103,104.0,0.239583,Sixteenth,E2
665,Right,0,58,103,104.25,0.239583,Sixteenth,A#3
666,Left,1,46,103,104.25,0.239583,Sixteenth,A#2
667,Left,1,44,104,104.5,0.239583,Sixteenth,G#2
668,Right,0,56,104,104.5,0.239583,Sixteenth,G#3
670,Right,0,55,105,104.75,0.239583,Sixteenth,G3
669,Left,1,43,105,104.75,0.239583,Sixteenth,G2
671,Left,1,44,105,105.0,0.239583,Sixteenth,G#2
672,Right,0,56,105,105.0,0.239583,Sixteenth,G#3
673,Left,1,48,106,105.25,0.239583,Sixteenth,C3
674,Right,0,60,106,105.25,0.239583,Sixteenth,C4
676,Right,0,55,107,105.5,0.239583,Sixteenth,G3
675,Left,1,43,107,105.5,0.239583,Sixteenth,G2
678,Right,0,60,108,105.75,0.239583,Sixteenth,C4
677,Left,1,48,108,105.75,0.239583,Sixteenth,C3
680,Left,1,41,108,106.0,0.239583,Sixteenth,F2
679,Right,0,53,108,106.0,0.239583,Sixteenth,F3
681,Left,1,48,109,106.25,0.239583,Sixteenth,C3
682,Right,0,60,109,106.25,0.239583,Sixteenth,C4
683,Right,0,54,110,106.5,0.239583,Sixteenth,F#3
684,Left,1,42,110,106.5,0.239583,Sixteenth,F#2
686,Right,0,60,110,106.75,0.239583,Sixteenth,C4
685,Left,1,48,110,106.75,0.239583,Sixteenth,C3
688,Right,0,59,120,107.0,0.239583,Sixteenth,B3
687,Left,1,47,120,107.0,0.239583,Sixteenth,B2
689,Right,0,57,110,107.25,0.239583,Sixteenth,A3
690,Left,1,45,110,107.25,0.239583,Sixteenth,A2
692,Right,0,55,110,107.5,0.239583,Sixteenth,G3
691,Left,1,43,110,107.5,0.239583,Sixteenth,G2
694,Right,0,62,110,107.75,0.239583,Sixteenth,D4
693,Left,1,50,110,107.75,0.239583,Sixteenth,D3
696,Left,1,48,120,108.0,0.239583,Sixteenth,C3
695,Right,0,60,120,108.0,0.239583,Sixteenth,C4
697,Left,1,47,110,108.25,0.239583,Sixteenth,B2
698,Right,0,59,110,108.25,0.239583,Sixteenth,B3
699,Left,1,53,110,108.5,0.239583,Sixteenth,F3
700,Right,0,65,110,108.5,0.239583,Sixteenth,F4
701,Right,0,63,110,108.75,0.239583,Sixteenth,D#4
702,Left,1,51,110,108.75,0.239583,Sixteenth,D#3
703,Left,1,50,120,109.0,0.239583,Sixteenth,D3
704,Right,0,62,120,109.0,0.239583,Sixteenth,D4
705,Left,1,56,110,109.25,0.239583,Sixteenth,G#3
706,Right,0,68,110,109.25,0.239583,Sixteenth,G#4
707,Left,1,55,110,109.5,0.239583,Sixteenth,G3
708,Right,0,67,110,109.5,0.239583,Sixteenth,G4
709,Left,1,53,110,109.75,0.239583,Sixteenth,F3
710,Right,0,65,110,109.75,0.239583,Sixteenth,F4
712,Left,1,62,120,110.0,0.239583,Sixteenth,D4
711,Right,0,74,120,110.0,0.239583,Sixteenth,D5
714,Left,1,60,110,110.25,0.239583,Sixteenth,C4
713,Right,0,72,110,110.25,0.239583,Sixteenth,C5
715,Right,0,71,110,110.5,0.239583,Sixteenth,B4
716,Left,1,59,110,110.5,0.239583,Sixteenth,B3
717,Right,0,77,110,110.75,0.239583,Sixteenth,F5
718,Left,1,65,110,110.75,0.239583,Sixteenth,F4
720,Left,1,63,120,111.0,0.239583,Sixteenth,D#4
719,Right,0,75,120,111.0,0.239583,Sixteenth,D#5
721,Right,0,74,110,111.25,0.239583,Sixteenth,D5
722,Left,1,62,110,111.25,0.239583,Sixteenth,D4
723,Right,0,80,110,111.5,0.239583,Sixteenth,G#5
724,Left,1,68,110,111.5,0.239583,Sixteenth,G#4
725,Right,0,79,110,111.75,0.239583,Sixteenth,G5
726,Left,1,67,110,111.75,0.239583,Sixteenth,G4
727,Right,0,77,120,112.0,0.239583,Sixteenth,F5
728,Left,1,65,120,112.0,0.239583,Sixteenth,F4
729,Right,0,86,110,112.25,0.239583,Sixteenth,D6
730,Left,1,74,110,112.25,0.239583,Sixteenth,D5
731,Right,0,84,110,112.5,0.239583,Sixteenth,C6
732,Left,1,72,110,112.5,0.239583,Sixteenth,C5
733,Right,0,83,110,112.75,0.239583,Sixteenth,B5
734,Left,1,71,110,112.75,0.239583,Sixteenth,B4
736,Left,1,77,120,113.0,0.239583,Sixteenth,F5
735,Right,0,89,120,113.0,0.239583,Sixteenth,F6
737,Right,0,87,109,113.25,0.239583,Sixteenth,D#6
738,Left,1,75,109,113.25,0.239583,Sixteenth,D#5
739,Left,1,74,107,113.5,0.239583,Sixteenth,D5
740,Right,0,86,107,113.5,0.239583,Sixteenth,D6
742,Right,0,92,105,113.708333,0.239583,Sixteenth,G#6
741,Left,1,80,105,113.708333,0.239583,Sixteenth,G#5
744,Right,0,91,103,114.0,0.239583,Sixteenth,G6
743,Left,1,79,103,114.0,0.239583,Sixteenth,G5
746,Right,0,89,101,114.25,0.239583,Sixteenth,F6
745,Left,1,77,101,114.25,0.239583,Sixteenth,F5
748,Right,0,87,99,114.5,0.239583,Sixteenth,D#6
747,Left,1,75,99,114.5,0.239583,Sixteenth,D#5
749,Left,1,74,97,114.75,0.239583,Sixteenth,D5
750,Right,0,86,97,114.75,0.239583,Sixteenth,D6
751,Left,1,72,95,115.0,0.239583,Sixteenth,C5
752,Right,0,84,95,115.0,0.239583,Sixteenth,C6
753,Right,0,83,93,115.25,0.239583,Sixteenth,B5
754,Left,1,71,93,115.25,0.239583,Sixteenth,B4
755,Left,1,68,91,115.5,0.239583,Sixteenth,G#4
756,Right,0,80,91,115.5,0.239583,Sixteenth,G#5
757,Left,1,67,89,115.75,0.239583,Sixteenth,G4
758,Right,0,79,89,115.75,0.239583,Sixteenth,G5
760,Right,0,77,87,116.0,0.239583,Sixteenth,F5
759,Left,1,65,87,116.0,0.239583,Sixteenth,F4
762,Right,0,75,85,116.25,0.239583,Sixteenth,D#5
761,Left,1,63,85,116.25,0.239583,Sixteenth,D#4
763,Left,1,62,83,116.5,0.239583,Sixteenth,D4
764,Right,0,74,83,116.5,0.239583,Sixteenth,D5
766,Left,1,67,81,116.75,0.239583,Sixteenth,G4
765,Right,0,79,81,116.75,0.239583,Sixteenth,G5
767,Right,0,67,80,117.0,0.989583,Eighth,G4_D#4_C5
770,Left,1,60,80,117.0,0.989583,Quarter,C4
771,Right,0,67,80,117.5,0.489583,Eighth,G4_D#4
773,Right,0,67,80,118.0,0.989583,Eighth,G4_D#5_D#4
775,Left,1,36,80,118.0,0.989583,Quarter,C3_C2
778,Right,0,63,80,118.5,0.489583,Eighth,G4_D#4
780,Right,0,71,80,119.0,1.489583,Eighth,G4_F4_B4
783,Right,0,65,80,119.5,0.489583,Eighth,G4_F4
785,Right,0,67,80,120.0,0.489583,Eighth,G4_F4
786,Left,1,43,80,120.0,0.989583,Quarter,G2_G1
789,Right,0,65,80,120.5,0.489583,Eighth,G4_G#5_F4
792,Right,0,65,80,121.0,0.489583,Eighth,G5_G4_F4
795,Right,0,67,80,121.5,0.489583,Eighth,G4_F5_F4
797,Left,1,62,80,121.5,0.489583,Eighth,G3_D4
800,Right,0,65,80,122.0,0.489583,Eighth,G4_F4_D#5
801,Left,1,55,80,122.0,0.489583,Eighth,G3_C4
806,Right,0,74,80,122.5,0.489583,Eighth,G4_F4_D5
805,Left,1,59,80,122.5,0.489583,Eighth,G3_B3
810,Right,0,75,80,123.0,0.239583,Sixteenth,D#5
811,Right,0,77,80,123.25,0.239583,Sixteenth,F5
812,Right,0,75,80,123.5,0.239583,Sixteenth,D#5
813,Right,0,74,80,123.75,0.239583,Sixteenth,D5
815,Left,1,60,80,124.0,0.489583,Eighth,D#4_C4
814,Right,0,67,80,124.0,0.489583,Eighth,G4_C5
818,Left,1,55,80,124.5,0.489583,Eighth,G3_F4
819,Right,0,80,80,124.5,0.489583,Eighth,G4_G#5
823,Left,1,63,80,125.0,0.489583,Eighth,G3_D#4
822,Right,0,79,80,125.0,0.489583,Eighth,G5_G4
828,Right,0,71,80,125.5,0.489583,Eighth,G4_F5_B4
826,Left,1,55,80,125.5,0.489583,Eighth,G3_D4
833,Left,1,60,80,126.0,0.489583,Eighth,G3_C4
831,Right,0,72,80,126.0,0.489583,Eighth,G4_D#5_C5
838,Right,0,74,80,126.5,0.489583,Eighth,G4_D5
836,Left,1,59,80,126.5,0.489583,Eighth,G3_B3
840,Right,0,75,80,127.0,0.239583,Sixteenth,D#5
841,Right,0,77,80,127.25,0.239583,Sixteenth,F5
842,Left,1,60,80,127.5,0.989583,Quarter,D#4_C4
843,Right,0,67,80,127.5,0.989583,Quarter,G4_D#5
846,Right,0,74,80,127.75,0.239583,Sixteenth,D5
847,Right,0,72,80,128.0,0.489583,Eighth,C5
848,Right,0,89,80,128.5,0.489583,Sixteenth,G#6_F6
849,Left,1,31,80,128.5,0.989583,Quarter,G2_G1
852,Right,0,79,81,128.75,0.239583,Sixteenth,G5
853,Right,0,91,82,129.0,0.489583,Eighth,G6_D#6
855,Right,0,79,83,129.25,0.239583,Sixteenth,G5
856,Left,1,31,84,129.5,0.489583,Eighth,G2_G1
858,Right,0,89,84,129.5,0.489583,Eighth,F6_D6
860,Right,0,79,86,129.75,0.239583,Sixteenth,G5
861,Right,0,87,87,130.0,0.489583,Eighth,D#6_C6
862,Left,1,45,87,130.0,0.489583,Eighth,A2_A1
865,Right,0,79,88,130.25,0.239583,Sixteenth,G5
866,Right,0,86,89,130.5,0.489583,Eighth,D6
867,Left,1,47,89,130.5,0.489583,Eighth,B2_B1
869,Right,0,79,91,130.75,0.239583,Sixteenth,G5_G#5
873,Right,0,87,92,131.0,0.489583,Eighth,D#6
871,Left,1,48,92,131.0,0.489583,Eighth,C3_C2
874,Right,0,79,93,131.25,0.239583,Sixteenth,G5
875,Right,0,86,94,131.5,0.489583,Eighth,D6
876,Left,1,47,94,131.5,0.489583,Eighth,B2_B1
878,Right,0,79,96,131.75,0.239583,Sixteenth,G5
881,Right,0,84,97,132.0,0.489583,Eighth,C6
879,Left,1,36,97,132.0,0.489583,Eighth,C3_C2
882,Right,0,79,98,132.25,0.239583,Sixteenth,G5
883,Left,1,50,99,132.5,0.489583,Eighth,D3_D2
884,Right,0,83,99,132.5,0.489583,Eighth,B5
886,Right,0,79,101,132.75,0.239583,Sixteenth,G5
887,Right,0,84,102,133.0,0.489583,Eighth,G5_C6
889,Left,1,39,102,133.0,0.489583,Eighth,D#3_D#2
891,Right,0,72,103,133.25,0.239583,Sixteenth,C5
892,Right,0,79,104,133.5,0.489583,Sixteenth,G5_A#5
894,Left,1,51,104,133.5,0.489583,Eighth,D#3_D#2
896,Right,0,72,105,133.75,0.239583,Sixteenth,C5
897,Left,1,41,107,134.0,0.489583,Eighth,F3_F2
899,Right,0,80,107,134.0,0.489583,Eighth,G#5
900,Right,0,72,108,134.25,0.239583,Sixteenth,C5
903,Right,0,79,109,134.5,0.489583,Eighth,G5
901,Left,1,51,109,134.5,0.489583,Eighth,D#3_D#2
904,Right,0,72,110,134.75,0.239583,Sixteenth,C5
907,Right,0,80,110,135.0,0.489583,Eighth,G#5
905,Left,1,41,110,135.0,0.489583,Eighth,F3_F2
908,Right,0,72,110,135.25,0.239583,Sixteenth,C5
909,Left,1,65,110,135.5,0.989583,Quarter,G#3_F4_C4
912,Right,0,77,110,135.5,0.489583,Eighth,F5
913,Right,0,72,110,135.75,0.239583,Sixteenth,C5
914,Right,0,75,110,136.0,0.489583,Eighth,D#5
915,Right,0,72,110,136.25,0.239583,Sixteenth,C5
916,Right,0,74,110,136.5,0.489583,Eighth,D5
917,Left,1,65,110,136.5,0.489583,Eighth,G#3_F4_C4
920,Right,0,72,110,136.75,0.239583,Sixteenth,C5
921,Left,1,56,110,137.0,0.989583,Quarter,G#3_C4
922,Right,0,74,110,137.0,0.989583,Eighth,F4_D5
925,Right,0,72,95,137.5,0.489583,Eighth,C5
926,Left,1,63,80,138.0,1.989583,Half,G#3_D#4
927,Right,0,66,80,138.0,1.989583,Quarter,F#4_C5
930,Right,0,67,80,139.0,0.989583,Quarter,G4
931,Left,1,55,80,139.0,0.989583,Quarter,G3
934,Left,1,54,80,140.0,0.989583,Quarter,F#3_D#4
932,Right,0,69,80,140.0,0.989583,Quarter,C5_A4
936,Right,0,72,80,141.0,0.989583,Sixteenth,G4_C5
937,Left,1,55,80,141.0,0.989583,Quarter,G3_D#4
940,Right,0,74,80,141.125,0.239583,Sixteenth,D5
941,Right,0,72,80,141.25,0.239583,Sixteenth,C5
942,Right,0,74,80,141.375,0.239583,Sixteenth,D5
943,Right,0,72,80,141.5,0.239583,Sixteenth,C5
944,Right,0,74,80,141.625,0.239583,Sixteenth,D5
945,Right,0,72,80,141.75,0.239583,Sixteenth,C5
946,Right,0,74,80,141.875,0.239583,Sixteenth,D5
948,Right,0,75,80,142.0,0.489583,Eighth,D#5
947,Left,1,59,80,142.0,1.239583,Quarter,G3_F4_B3
951,Right,0,74,80,142.5,0.489583,Eighth,D5
952,Right,0,60,110,143.0,0.989583,Quarter,C5_C4
954,Left,1,53,110,143.25,0.239583,Sixteenth,F3
955,Left,1,51,110,143.5,0.239583,Sixteenth,D#3
956,Left,1,50,110,143.75,0.239583,Sixteenth,D3
958,Right,0,63,110,144.0,0.989583,Quarter,D#4
957,Left,1,48,110,144.0,0.239583,Sixteenth,C3
959,Left,1,50,110,144.25,0.239583,Sixteenth,D3
960,Left,1,51,110,144.5,0.239583,Sixteenth,D#3
961,Left,1,48,110,144.75,0.239583,Sixteenth,C3
963,Right,0,59,110,145.0,1.239583,TiedQuarter-Sixteenth,B3
962,Left,1,50,110,145.0,0.239583,Sixteenth,D3
964,Left,1,48,110,145.25,0.239583,Sixteenth,C3
965,Left,1,47,110,145.5,0.239583,Sixteenth,B2
966,Left,1,45,110,145.75,0.239583,Sixteenth,A2
967,Left,1,43,110,146.0,0.239583,Sixteenth,G2
968,Right,0,62,110,146.25,0.239583,Sixteenth,D4
969,Left,1,47,110,146.25,0.239583,Sixteenth,B2
970,Right,0,65,110,146.5,0.239583,Sixteenth,F4
971,Left,1,50,110,146.5,0.239583,Sixteenth,D3
972,Right,0,68,110,146.75,0.239583,Sixteenth,G#4
973,Left,1,53,110,146.75,0.239583,Sixteenth,F3
975,Right,0,67,110,147.0,0.239583,Sixteenth,G4
974,Left,1,51,110,147.0,0.489583,Eighth,D#3
976,Right,0,68,110,147.25,0.239583,Sixteenth,G#4
977,Left,1,43,110,147.5,0.489583,Eighth,G2_G1
978,Right,0,67,110,147.5,0.239583,Sixteenth,G4
980,Right,0,65,110,147.75,0.239583,Sixteenth,F4
982,Left,1,48,110,148.0,0.489583,Eighth,C3_C2
981,Right,0,63,110,148.0,0.239583,Sixteenth,D#4
984,Right,0,65,110,148.25,0.239583,Sixteenth,F4
985,Right,0,63,110,148.458333,0.239583,Sixteenth,D#4
986,Left,1,35,110,148.5,0.489583,Eighth,B2_B1
988,Right,0,62,110,148.75,0.239583,Sixteenth,D4
990,Left,1,36,110,149.0,0.489583,Eighth,C3_C2
989,Right,0,63,110,149.0,0.239583,Sixteenth,D#4
992,Right,0,65,110,149.25,0.239583,Sixteenth,F4
993,Left,1,41,110,149.5,0.489583,Eighth,F3_F2
994,Right,0,63,110,149.5,0.239583,Sixteenth,D#4
996,Right,0,62,110,149.75,0.239583,Sixteenth,D4
997,Right,0,60,110,150.0,0.239583,Sixteenth,C4
998,Left,1,51,110,150.0,0.489583,Eighth,D#3_D#2
1000,Right,0,63,110,150.25,0.239583,Sixteenth,D#4
1001,Right,0,67,110,150.5,0.239583,Sixteenth,G4
1002,Left,1,48,110,150.5,0.489583,Eighth,C3_C2
1004,Right,0,70,110,150.75,0.239583,Sixteenth,A#4
1005,Right,0,68,110,151.0,0.239583,Sixteenth,G#4
1006,Right,0,70,110,151.25,0.239583,Sixteenth,A#4
1009,Right,0,68,110,151.5,0.239583,Sixteenth,G#4
1007,Left,1,48,110,151.5,0.489583,Eighth,C3_C2
1010,Right,0,67,110,151.75,0.239583,Sixteenth,G4
1011,Left,1,38,110,152.0,0.489583,Eighth,D3_D2
1013,Right,0,65,110,152.0,0.239583,Sixteenth,F4
1014,Right,0,67,110,152.25,0.239583,Sixteenth,G4
1016,Right,0,65,110,152.5,0.239583,Sixteenth,F4
1015,Left,1,48,110,152.5,0.489583,Eighth,C3_C2
1018,Right,0,63,110,152.75,0.239583,Sixteenth,D#4
1020,Left,1,38,110,153.0,0.489583,Eighth,D3_D2
1019,Right,0,65,110,153.0,0.239583,Sixteenth,F4
1022,Right,0,67,110,153.25,0.239583,Sixteenth,G4
1023,Right,0,65,110,153.5,0.239583,Sixteenth,F4
1024,Left,1,43,110,153.5,0.489583,Eighth,G3_G2
1026,Right,0,63,110,153.75,0.239583,Sixteenth,D#4
1027,Right,0,62,110,154.0,0.239583,Sixteenth,D4
1028,Left,1,41,110,154.0,0.489583,Eighth,F3_F2
1030,Right,0,65,110,154.25,0.239583,Sixteenth,F4
1032,Left,1,39,110,154.5,0.489583,Eighth,D#3_D#2
1031,Right,0,68,110,154.5,0.239583,Sixteenth,G#4
1034,Right,0,72,110,154.75,0.239583,Sixteenth,C5
1035,Left,1,50,110,155.0,0.489583,Eighth,D3_D2
1036,Right,0,70,110,155.0,0.239583,Sixteenth,A#4
1038,Right,0,72,110,155.25,0.239583,Sixteenth,C5
1040,Left,1,34,110,155.5,0.489583,Eighth,A#2_A#1
1039,Right,0,70,110,155.5,0.239583,Sixteenth,A#4
1042,Right,0,68,110,155.75,0.239583,Sixteenth,G#4
1045,Right,0,67,110,156.0,0.239583,Sixteenth,G4
1043,Left,1,36,110,156.0,0.489583,Eighth,C3_C2
1046,Right,0,68,110,156.25,0.239583,Sixteenth,G#4
1047,Left,1,38,110,156.5,0.489583,Eighth,D3_D2
1049,Right,0,67,110,156.5,0.239583,Sixteenth,G4
1050,Right,0,65,110,156.75,0.239583,Sixteenth,F4
1053,Right,0,67,110,157.0,0.239583,Sixteenth,G4
1051,Left,1,51,110,157.0,0.989583,Quarter,D#3_D#2
1054,Right,0,70,110,157.25,0.239583,Sixteenth,A#4
1055,Right,0,68,110,157.5,0.239583,Sixteenth,G#4
1056,Right,0,67,110,157.75,0.239583,Sixteenth,G4
1058,Left,1,55,110,158.0,0.989583,Quarter,G3_G2
1057,Right,0,65,110,158.0,0.239583,Sixteenth,F4
1060,Right,0,63,110,158.25,0.239583,Sixteenth,D#4
1061,Right,0,62,110,158.5,0.239583,Sixteenth,D4
1062,Right,0,63,110,158.75,0.239583,Sixteenth,D#4
1064,Left,1,50,110,159.0,0.489583,Eighth,D3_D2
1063,Right,0,65,110,159.0,0.239583,Sixteenth,F4
1066,Right,0,59,110,159.25,0.239583,Sixteenth,B3
1068,Right,0,58,110,159.5,0.239583,Sixteenth,A#3
1067,Left,1,38,110,159.5,0.739583,DottedEighth,D2
1069,Right,0,59,110,159.75,0.239583,Sixteenth,B3
1070,Right,0,58,110,160.0,0.239583,Sixteenth,A#3
1072,Left,1,41,110,160.25,0.239583,Sixteenth,F2
1071,Right,0,62,110,160.25,0.239583,Sixteenth,D4
1074,Right,0,65,110,160.5,0.239583,Sixteenth,F4
1073,Left,1,44,110,160.5,0.239583,Sixteenth,G#2
1076,Right,0,68,110,160.75,0.239583,Sixteenth,G#4
1075,Left,1,48,110,160.75,0.239583,Sixteenth,C3
1077,Right,0,67,110,161.0,0.489583,Eighth,G4
1078,Left,1,46,110,161.0,0.239583,Sixteenth,A#2
1079,Left,1,48,110,161.25,0.239583,Sixteenth,C3
1082,Left,1,46,110,161.5,0.239583,Sixteenth,A#2
1080,Right,0,65,110,161.5,0.489583,Eighth,F4_F3
1083,Left,1,44,110,161.75,0.239583,Sixteenth,G#2
1084,Left,1,43,110,162.0,0.239583,Sixteenth,G2
1085,Right,0,70,110,162.0,0.489583,Eighth,A#4_A#3
1087,Left,1,44,110,162.25,0.239583,Sixteenth,G#2
1088,Left,1,43,110,162.5,0.239583,Sixteenth,G2
1089,Right,0,68,110,162.5,0.489583,Eighth,G#4_G#3
1091,Left,1,41,110,162.75,0.239583,Sixteenth,F2
1093,Left,1,43,110,163.0,0.239583,Sixteenth,G2
1092,Right,0,58,110,163.0,0.489583,Eighth,A#4_A#3
1095,Left,1,44,110,163.25,0.239583,Sixteenth,G#2
1096,Left,1,43,110,163.5,0.239583,Sixteenth,G2
1097,Right,0,61,110,163.5,0.489583,Eighth,C#5_C#4
1099,Left,1,41,110,163.75,0.239583,Sixteenth,F2
1101,Right,0,60,110,164.0,0.489583,Eighth,C5_C4
1100,Left,1,40,110,164.0,0.239583,Sixteenth,E2
1103,Left,1,43,110,164.25,0.239583,Sixteenth,G2
1106,Left,1,46,110,164.5,0.239583,Sixteenth,A#2
1104,Right,0,55,110,164.5,0.489583,Eighth,G4_G3
1107,Left,1,49,110,164.75,0.239583,Sixteenth,C#3
1108,Left,1,48,110,165.0,0.239583,Sixteenth,C3
1109,Left,1,49,110,165.25,0.239583,Sixteenth,C#3
1112,Left,1,48,110,165.5,0.239583,Sixteenth,C3
1110,Right,0,55,110,165.5,0.489583,Eighth,G4_G3
1113,Left,1,46,110,165.75,0.239583,Sixteenth,A#2
1114,Right,0,60,110,166.0,0.489583,Eighth,C5_C4
1116,Left,1,44,110,166.0,0.239583,Sixteenth,G#2
1117,Left,1,46,110,166.25,0.239583,Sixteenth,A#2
1118,Left,1,44,110,166.5,0.239583,Sixteenth,G#2
1119,Right,0,70,110,166.5,0.489583,Eighth,A#4_A#3
1121,Left,1,43,110,166.75,0.239583,Sixteenth,G2
1124,Left,1,44,110,167.0,0.239583,Sixteenth,G#2
1122,Right,0,60,110,167.0,0.489583,Eighth,C5_C4
1125,Left,1,46,110,167.25,0.239583,Sixteenth,A#2
1126,Right,0,63,110,167.5,0.489583,Eighth,D#5_D#4
1128,Left,1,44,110,167.5,0.239583,Sixteenth,G#2
1129,Left,1,42,110,167.75,0.239583,Sixteenth,F#2
1130,Right,0,75,110,168.0,0.489583,Eighth,D#5_D#4
1131,Left,1,41,110,168.0,0.239583,Sixteenth,F2
1133,Left,1,45,110,168.25,0.239583,Sixteenth,A2
1134,Right,0,57,110,168.5,0.489583,Eighth,A4_A3
1135,Left,1,48,110,168.5,0.239583,Sixteenth,C3
1137,Left,1,51,110,168.75,0.239583,Sixteenth,D#3
1138,Left,1,49,110,169.0,0.239583,Sixteenth,C#3
1139,Left,1,51,110,169.25,0.239583,Sixteenth,D#3
1141,Right,0,70,110,169.5,0.489583,Eighth,A#4_A#3
1140,Left,1,50,110,169.5,0.239583,Sixteenth,D3
1143,Left,1,48,110,169.75,0.239583,Sixteenth,C3
1144,Right,0,61,110,170.0,0.489583,Eighth,C#5_C#4
1146,Left,1,46,110,170.0,0.239583,Sixteenth,A#2
1147,Left,1,48,110,170.25,0.239583,Sixteenth,C3
1148,Right,0,60,110,170.5,0.489583,Eighth,C5_C4
1150,Left,1,46,110,170.5,0.239583,Sixteenth,A#2
1151,Left,1,45,110,170.75,0.239583,Sixteenth,A2
1152,Left,1,46,110,171.0,0.239583,Sixteenth,A#2
1153,Right,0,61,110,171.0,0.489583,Eighth,C#5_C#4
1155,Left,1,48,110,171.25,0.239583,Sixteenth,C3
1156,Left,1,46,110,171.5,0.239583,Sixteenth,A#2
1157,Right,0,65,110,171.5,0.489583,Eighth,F5_F4
1159,Left,1,44,110,171.75,0.239583,Sixteenth,G#2
1162,Left,1,43,110,172.0,0.239583,Sixteenth,G2
1160,Right,0,63,110,172.0,0.489583,Eighth,D#5_D#4
1163,Left,1,46,110,172.25,0.239583,Sixteenth,A#2
1164,Left,1,50,110,172.5,0.239583,Sixteenth,D3
1165,Right,0,70,110,172.5,0.239583,Sixteenth,A#4
1167,Left,1,53,110,172.75,0.239583,Sixteenth,F3
1166,Right,0,68,110,172.75,0.239583,Sixteenth,G#4
1168,Left,1,51,110,173.0,0.239583,Sixteenth,D#3
1169,Right,0,67,110,173.0,0.239583,Sixteenth,G4
1171,Left,1,53,110,173.25,0.239583,Sixteenth,F3
1170,Right,0,63,110,173.25,0.239583,Sixteenth,D#4
1173,Left,1,51,110,173.5,0.239583,Sixteenth,D#3
1172,Right,0,65,110,173.5,0.239583,Sixteenth,F4
1175,Left,1,49,110,173.75,0.239583,Sixteenth,C#3
1174,Right,0,67,110,173.75,0.239583,Sixteenth,G4
1176,Left,1,48,110,174.0,0.239583,Sixteenth,C3
1177,Right,0,68,110,174.0,0.239583,Sixteenth,G#4
1179,Left,1,49,110,174.25,0.239583,Sixteenth,C#3
1178,Right,0,67,110,174.25,0.239583,Sixteenth,G4
1180,Left,1,48,110,174.5,0.239583,Sixteenth,C3
1181,Right,0,68,110,174.5,0.239583,Sixteenth,G#4
1183,Left,1,46,110,174.75,0.239583,Sixteenth,A#2
1182,Right,0,70,110,174.75,0.239583,Sixteenth,A#4
1184,Left,1,44,110,175.0,0.989583,Quarter,G#2
1185,Right,0,80,110,175.0,0.989583,Quarter,G#5_C5
1187,Right,0,73,110,175.25,0.239583,Sixteenth,C#5
1188,Right,0,72,110,175.5,0.239583,Sixteenth,C5
1189,Right,0,70,110,175.75,0.239583,Sixteenth,A#4
1191,Right,0,84,110,176.0,0.989583,Quarter,C6
1190,Left,1,68,110,176.0,0.239583,Sixteenth,G#4
1192,Left,1,72,110,176.25,0.239583,Sixteenth,C5
1193,Left,1,70,110,176.5,0.239583,Sixteenth,A#4
1194,Left,1,68,110,176.75,0.239583,Sixteenth,G#4
1196,Right,0,79,110,177.0,1.239583,TiedQuarter-Sixteenth,G5
1195,Left,1,70,110,177.0,0.239583,Sixteenth,A#4
1197,Left,1,68,110,177.25,0.239583,Sixteenth,G#4
1198,Left,1,67,110,177.5,0.239583,Sixteenth,G4
1199,Left,1,65,110,177.75,0.239583,Sixteenth,F4
1200,Left,1,63,110,178.0,0.239583,Sixteenth,D#4
1201,Right,0,82,110,178.25,0.239583,Sixteenth,A#5
1202,Left,1,67,110,178.25,0.239583,Sixteenth,G4
1204,Right,0,85,110,178.5,0.239583,Sixteenth,C#6
1203,Left,1,70,110,178.5,0.239583,Sixteenth,A#4
1206,Right,0,89,110,178.75,0.239583,Sixteenth,F6
1205,Left,1,73,110,178.75,0.239583,Sixteenth,C#5
1208,Left,1,72,110,179.0,0.489583,Eighth,C5
1207,Right,0,87,110,179.0,0.239583,Sixteenth,D#6
1209,Right,0,89,110,179.25,0.239583,Sixteenth,F6
1210,Right,0,87,110,179.5,0.239583,Sixteenth,D#6
1211,Left,1,55,110,179.5,0.489583,Eighth,G4_G3
1213,Right,0,85,110,179.75,0.239583,Sixteenth,C#6
1214,Right,0,84,110,180.0,0.239583,Sixteenth,C6
1215,Left,1,68,110,180.0,0.489583,Eighth,G#4_G#3
1217,Right,0,85,110,180.25,0.239583,Sixteenth,C#6
1220,Right,0,84,110,180.5,0.239583,Sixteenth,C6
1218,Left,1,55,110,180.5,0.489583,Eighth,G4_G3
1221,Right,0,82,110,180.75,0.239583,Sixteenth,A#5
1224,Right,0,84,110,181.0,0.239583,Sixteenth,C6
1222,Left,1,68,110,181.0,0.489583,Eighth,G#4_G#3
1225,Right,0,85,110,181.25,0.239583,Sixteenth,C#6
1226,Left,1,73,110,181.5,0.489583,Eighth,C#5_C#4
1227,Right,0,84,110,181.5,0.239583,Sixteenth,C6
1229,Right,0,82,110,181.75,0.239583,Sixteenth,A#5
1230,Right,0,81,110,182.0,0.239583,Sixteenth,A5
1231,Left,1,60,110,182.0,0.489583,Eighth,C5_C4
1233,Right,0,84,110,182.25,0.239583,Sixteenth,C6
1234,Left,1,57,110,182.5,0.489583,Eighth,A4_A3
1236,Right,0,87,110,182.5,0.239583,Sixteenth,D#6
1237,Right,0,90,110,182.75,0.239583,Sixteenth,F#6
1238,Right,0,89,110,183.0,0.239583,Sixteenth,F6
1239,Right,0,90,110,183.25,0.239583,Sixteenth,F#6
1240,Left,1,57,110,183.5,0.489583,Eighth,A4_A3
1241,Right,0,89,110,183.5,0.239583,Sixteenth,F6
1243,Right,0,87,110,183.75,0.239583,Sixteenth,D#6
1245,Right,0,85,110,184.0,0.239583,Sixteenth,C#6
1244,Left,1,70,110,184.0,0.489583,Eighth,A#4_A#3
1247,Right,0,87,110,184.25,0.239583,Sixteenth,D#6
1248,Right,0,85,110,184.5,0.239583,Sixteenth,C#6
1249,Left,1,69,110,184.5,0.489583,Eighth,A4_A3
1251,Right,0,84,110,184.75,0.239583,Sixteenth,C6
1252,Left,1,58,110,185.0,0.489583,Eighth,A#4_A#3
1254,Right,0,85,110,185.0,0.239583,Sixteenth,C#6
1255,Right,0,87,110,185.25,0.239583,Sixteenth,D#6
1256,Left,1,75,110,185.5,0.489583,Eighth,D#5_D#4
1257,Right,0,85,110,185.5,0.239583,Sixteenth,C#6
1259,Right,0,84,110,185.75,0.239583,Sixteenth,C6
1260,Right,0,82,110,186.0,0.239583,Sixteenth,A#5
1261,Left,1,73,110,186.0,0.489583,Eighth,C#5_C#4
1263,Right,0,85,110,186.25,0.239583,Sixteenth,C#6
1264,Left,1,70,110,186.5,0.489583,Eighth,A#4_A#3
1266,Right,0,89,110,186.5,0.239583,Sixteenth,F6
1267,Right,0,92,110,186.75,0.239583,Sixteenth,G#6
1268,Right,0,90,110,187.0,0.239583,Sixteenth,F#6
1269,Right,0,92,110,187.25,0.239583,Sixteenth,G#6
1270,Left,1,58,110,187.5,0.489583,Eighth,A#4_A#3
1272,Right,0,90,110,187.5,0.239583,Sixteenth,F#6
1273,Right,0,89,110,187.75,0.239583,Sixteenth,F6
1274,Left,1,60,110,188.0,0.489583,Eighth,C5_C4
1276,Right,0,87,110,188.0,0.239583,Sixteenth,D#6
1277,Right,0,89,110,188.25,0.239583,Sixteenth,F6
1280,Right,0,87,110,188.5,0.239583,Sixteenth,D#6
1278,Left,1,58,110,188.5,0.489583,Eighth,A#4_A#3
1281,Right,0,85,110,188.75,0.239583,Sixteenth,C#6
1282,Left,1,60,110,189.0,0.489583,Eighth,C5_C4
1284,Right,0,87,110,189.0,0.239583,Sixteenth,D#6
1285,Right,0,89,110,189.25,0.239583,Sixteenth,F6
1287,Left,1,65,110,189.5,0.489583,Eighth,F5_F4
1286,Right,0,87,110,189.5,0.239583,Sixteenth,D#6
1289,Right,0,85,110,189.75,0.239583,Sixteenth,C#6
1291,Left,1,63,110,190.0,0.489583,Eighth,D#5_D#4
1290,Right,0,84,110,190.0,0.239583,Sixteenth,C6
1293,Right,0,87,110,190.25,0.239583,Sixteenth,D#6
1296,Right,0,90,110,190.5,0.239583,Sixteenth,F#6
1294,Left,1,60,110,190.5,0.489583,Eighth,C5_C4
1297,Right,0,94,110,190.75,0.239583,Sixteenth,A#6
1298,Right,0,92,110,191.0,0.239583,Sixteenth,G#6
1299,Right,0,94,110,191.25,0.239583,Sixteenth,A#6
1300,Right,0,92,110,191.5,0.239583,Sixteenth,G#6
1301,Left,1,32,110,191.5,0.489583,Eighth,G#2_G#1
1303,Right,0,90,110,191.75,0.239583,Sixteenth,F#6
1304,Left,1,46,110,192.0,0.489583,Eighth,A#2_A#1
1306,Right,0,89,110,192.0,0.239583,Sixteenth,F6
1307,Right,0,90,110,192.25,0.239583,Sixteenth,F#6
1308,Left,1,36,110,192.5,0.489583,Eighth,C3_C2
1310,Right,0,89,110,192.5,0.239583,Sixteenth,F6
1311,Right,0,87,110,192.75,0.239583,Sixteenth,D#6
1313,Right,0,89,120,193.0,3.989583,Whole,F6
1312,Left,1,49,120,193.0,0.489583,Eighth,F3_C#3
1315,Left,1,56,120,193.25,0.489583,Eighth,G#3
1316,Left,1,49,120,193.5,0.489583,Eighth,F3_C#3
1318,Left,1,56,120,193.75,0.489583,Eighth,G#3
1319,Left,1,53,120,194.0,0.489583,Eighth,F3_C#3
1321,Left,1,56,120,194.25,0.489583,Eighth,G#3
1322,Left,1,53,120,194.5,0.489583,Eighth,F3_C#3
1324,Left,1,56,120,194.75,0.489583,Eighth,G#3
1327,Right,0,37,120,195.0,1.989583,Half,C#2
1325,Left,1,53,120,195.0,0.489583,Eighth,F3_C#3
1328,Left,1,56,120,195.25,0.489583,Eighth,G#3
1329,Left,1,49,120,195.5,0.489583,Eighth,F3_C#3
1331,Left,1,56,120,195.75,0.489583,Eighth,G#3
1332,Left,1,53,120,196.0,0.489583,Eighth,F3_C#3
1334,Left,1,56,120,196.25,0.489583,Eighth,G#3
1335,Left,1,53,120,196.5,0.489583,Eighth,F3_C#3
1337,Left,1,56,120,196.75,0.239583,Sixteenth,G#3
1338,Left,1,56,120,197.0,0.489583,Eighth,G#3_F3_D3
1341,Right,0,38,120,197.0,3.989583,Whole,D2
1342,Left,1,59,120,197.25,0.489583,Eighth,B3
1343,Left,1,53,120,197.5,0.489583,Eighth,G#3_F3_D3
1346,Left,1,59,120,197.75,0.489583,Eighth,B3
1347,Left,1,53,120,198.0,0.489583,Eighth,G#3_F3_D3
1350,Left,1,59,120,198.25,0.489583,Eighth,B3
1351,Left,1,56,120,198.5,0.489583,Eighth,G#3_F3_D3
1354,Left,1,59,120,198.75,0.489583,Eighth,B3
1356,Left,1,53,120,199.0,0.489583,Eighth,G#3_F3_D3
1355,Right,0,95,120,199.0,1.989583,Half,B6
1359,Left,1,59,120,199.25,0.489583,Eighth,B3
1360,Left,1,56,120,199.5,0.489583,Eighth,G#3_F3_D3
1363,Left,1,59,120,199.75,0.489583,Eighth,B3
1364,Left,1,53,120,200.0,0.489583,Eighth,G#3_F3_D3
1367,Left,1,59,120,200.25,0.489583,Eighth,B3
1368,Left,1,53,120,200.5,0.489583,Eighth,G#3_F3_D3
1371,Left,1,59,120,200.75,0.239583,Sixteenth,B3
1372,Left,1,39,120,201.0,3.989583,Whole,D#2
1373,Right,0,87,120,202.0,2.989583,DottedHalf,D#6
1374,Right,0,84,80,204.0,0.989583,Quarter,C6
1375,Left,1,60,80,204.75,0.239583,Sixteenth,D#4_D#3_C4
1379,Left,1,51,80,205.0,1.489583,DottedQuarter,D#3_C#4_A#3
1382,Right,0,79,80,206.0,0.489583,Eighth,G5
1383,Left,1,60,80,206.75,0.239583,Sixteenth,G#3_D#3_C4
1385,Right,0,77,80,206.75,0.239583,Sixteenth,F5
1388,Right,0,77,80,207.0,0.989583,Quarter,F5
1387,Left,1,51,80,207.0,0.989583,Quarter,G#3_D#3_C4
1391,Left,1,51,80,208.0,0.489583,Eighth,G3_D#3_A#3
1393,Right,0,75,80,208.0,0.489583,Eighth,D#5
1397,Right,0,73,80,208.75,0.239583,Sixteenth,G5_C#6_C#5
1395,Left,1,55,80,208.75,0.239583,Sixteenth,G3_A#3
1400,Right,0,79,80,209.0,0.989583,Quarter,G5_C#6_C#5
1402,Left,1,55,80,209.0,0.989583,Quarter,G3_D#3_A#3
1406,Left,1,60,80,210.0,0.989583,Quarter,G#3_D#3_C4
1409,Right,0,80,80,210.0,0.989583,Quarter,G#5_C6_C5
1412,Right,0,87,80,211.083333,0.072917,TripletThirtySecond,D#6
1413,Right,0,86,80,211.166667,0.072917,TripletThirtySecond,D6
1414,Right,0,87,80,211.25,0.072917,TripletThirtySecond,D#6
1415,Right,0,89,80,211.333333,0.072917,TripletThirtySecond,F6
1416,Right,0,87,80,211.416667,0.072917,TripletThirtySecond,D#6
1417,Right,0,83,80,211.5,0.072917,TripletThirtySecond,B5
1418,Right,0,84,80,211.583333,0.072917,TripletThirtySecond,C6
1419,Right,0,83,80,211.666667,0.072917,TripletThirtySecond,B5
1420,Right,0,84,80,211.75,0.072917,TripletThirtySecond,C6
1421,Right,0,85,80,211.833333,0.072917,TripletThirtySecond,C#6
1422,Right,0,84,80,211.916667,0.072917,TripletThirtySecond,C6
1423,Right,0,79,80,212.0,0.15625,TripletSixteenth,G5
1424,Right,0,80,80,212.166667,0.15625,TripletSixteenth,G#5
1425,Right,0,82,80,212.333333,0.15625,TripletSixteenth,A#5
1426,Right,0,80,80,212.5,0.15625,TripletSixteenth,G#5
1427,Right,0,79,80,212.666667,0.15625,TripletSixteenth,G5
1428,Right,0,80,80,212.833333,0.15625,TripletSixteenth,G#5
1429,Left,1,61,80,213.0,1.489583,DottedQuarter,D#3_C#4_A#3
1432,Right,0,80,80,213.0,0.1875,TripletSixteenth,G#5
1433,Right,0,79,80,213.197917,0.1875,TripletSixteenth,G5
1434,Right,0,80,80,213.395833,0.1875,TripletSixteenth,G#5
1435,Right,0,82,80,213.59375,0.1875,TripletSixteenth,A#5
1436,Right,0,80,80,213.791667,0.1875,TripletSixteenth,G#5
1437,Right,0,79,80,214.0,0.489583,Eighth,G5
1439,Left,1,51,80,214.75,0.239583,Sixteenth,G#3_D#3_C4
1438,Right,0,77,80,214.75,0.239583,Sixteenth,F5
1442,Left,1,51,80,215.0,1.489583,DottedQuarter,G3_D#3_A#3
1443,Right,0,77,80,215.0,0.1875,TripletSixteenth,F5
1446,Right,0,75,80,215.197917,0.1875,TripletSixteenth,D#5
1447,Right,0,77,80,215.395833,0.1875,TripletSixteenth,F5
1448,Right,0,79,80,215.59375,0.1875,TripletSixteenth,G5
1449,Right,0,77,80,215.791667,0.1875,TripletSixteenth,F5
1450,Right,0,75,80,216.0,0.489583,Eighth,D#5
1454,Right,0,85,80,216.75,0.239583,Sixteenth,G5_C#6_C#5
1451,Left,1,58,80,216.75,0.239583,Sixteenth,G3_E3_A#3
1457,Left,1,52,80,217.0,0.989583,Quarter,G3_E3_A#3
1458,Right,0,79,80,217.0,0.989583,Quarter,G5_C#6_C#5
1466,Left,1,53,80,218.0,0.989583,Quarter,G#3_F3
1463,Right,0,84,80,218.0,0.989583,Quarter,G#5_C6_C5
1471,Right,0,79,80,220.75,0.239583,Sixteenth,G5_F6_A#5
1468,Left,1,67,80,220.75,0.239583,Sixteenth,G4_C#4_A#4
1475,Left,1,67,80,221.0,0.989583,Quarter,G4_C#4_A#4
1474,Right,0,79,80,221.0,0.989583,Quarter,G5_F6_A#5
1482,Left,1,60,80,222.0,0.989583,Quarter,G#4_C5_C4
1480,Right,0,87,80,222.0,0.989583,Quarter,G#5_D#6_D#5
1486,Left,1,65,120,224.5,0.489583,Eighth,G#4_F4_D4_B4
1489,Right,0,92,120,224.5,0.239583,Sixteenth,G#6
1491,Right,0,95,120,224.75,0.239583,Sixteenth,B6
1493,Left,1,71,120,225.0,0.489583,Eighth,G#4_F4_D4_B4
1492,Right,0,92,120,225.0,0.239583,Sixteenth,G#6
1497,Right,0,95,120,225.25,0.239583,Sixteenth,B6
1498,Left,1,77,120,225.5,0.239583,Sixteenth,F5
1499,Right,0,89,120,225.5,0.239583,Sixteenth,F6
1501,Left,1,80,120,225.75,0.239583,Sixteenth,G#5
1500,Right,0,92,120,225.75,0.239583,Sixteenth,G#6
1502,Left,1,74,120,226.0,0.239583,Sixteenth,D5
1503,Right,0,86,120,226.0,0.239583,Sixteenth,D6
1504,Left,1,77,120,226.25,0.239583,Sixteenth,F5
1505,Right,0,89,120,226.25,0.239583,Sixteenth,F6
1506,Left,1,71,120,226.5,0.239583,Sixteenth,B4
1507,Right,0,83,120,226.5,0.239583,Sixteenth,B5
1509,Left,1,74,120,226.75,0.239583,Sixteenth,D5
1508,Right,0,86,120,226.75,0.239583,Sixteenth,D6
1511,Left,1,68,120,227.0,0.239583,Sixteenth,G#4
1510,Right,0,80,120,227.0,0.239583,Sixteenth,G#5
1512,Left,1,71,120,227.25,0.239583,Sixteenth,B4
1513,Right,0,83,120,227.25,0.239583,Sixteenth,B5
1514,Left,1,65,120,227.5,0.239583,Sixteenth,F4
1515,Right,0,77,120,227.5,0.239583,Sixteenth,F5
1516,Left,1,68,120,227.75,0.239583,Sixteenth,G#4
1517,Right,0,80,120,227.75,0.239583,Sixteenth,G#5
1519,Left,1,62,120,228.0,0.239583,Sixteenth,D4
1518,Right,0,74,120,228.0,0.239583,Sixteenth,D5
1520,Left,1,65,120,228.25,0.239583,Sixteenth,F4
1521,Right,0,77,120,228.25,0.239583,Sixteenth,F5
1522,Right,0,71,120,228.5,0.239583,Sixteenth,B4
1523,Left,1,59,120,228.5,0.239583,Sixteenth,B3
1524,Right,0,74,120,228.75,0.260417,Sixteenth,D5
1525,Left,1,62,120,228.75,0.239583,Sixteenth,D4
1526,Right,0,68,120,229.0,0.239583,Sixteenth,G#4
1527,Left,1,56,120,229.0,0.239583,Sixteenth,G#3
1528,Right,0,71,120,229.25,0.239583,Sixteenth,B4
1529,Left,1,59,120,229.25,0.239583,Sixteenth,B3
1531,Right,0,65,120,229.5,0.239583,Sixteenth,F4
1530,Left,1,53,120,229.5,0.239583,Sixteenth,F3
1533,Left,1,56,120,229.75,0.239583,Sixteenth,G#3
1532,Right,0,68,120,229.75,0.239583,Sixteenth,G#4
1534,Right,0,62,80,230.0,0.239583,Sixteenth,D4
1535,Left,1,50,80,230.0,0.239583,Sixteenth,D3
1536,Right,0,63,82,230.25,0.239583,Sixteenth,D#4
1537,Left,1,51,82,230.25,0.239583,Sixteenth,D#3
1539,Left,1,53,85,230.5,0.239583,Sixteenth,F3
1538,Right,0,65,85,230.5,0.239583,Sixteenth,F4
1541,Right,0,67,88,230.75,0.239583,Sixteenth,G4
1540,Left,1,55,88,230.75,0.239583,Sixteenth,G3
1542,Right,0,68,91,231.0,0.239583,Sixteenth,G#4
1543,Left,1,56,91,231.0,0.239583,Sixteenth,G#3
1545,Right,0,70,94,231.25,0.239583,Sixteenth,A#4
1544,Left,1,58,94,231.25,0.239583,Sixteenth,A#3
1546,Left,1,60,96,231.5,0.239583,Sixteenth,C4
1547,Right,0,72,96,231.5,0.239583,Sixteenth,C5
1549,Left,1,61,99,231.75,0.239583,Sixteenth,C#4
1548,Right,0,73,99,231.75,0.239583,Sixteenth,C#5
1551,Right,0,75,102,232.0,0.239583,Sixteenth,D#5
1550,Left,1,63,102,232.0,0.239583,Sixteenth,D#4
1552,Right,0,76,105,232.25,0.239583,Sixteenth,E5
1553,Left,1,64,105,232.25,0.239583,Sixteenth,E4
1554,Left,1,65,108,232.5,0.239583,Sixteenth,F4
1555,Right,0,77,108,232.5,0.239583,Sixteenth,F5
1557,Right,0,75,110,232.75,0.239583,Sixteenth,D#5
1556,Left,1,63,110,232.75,0.239583,Sixteenth,D#4
1560,Right,0,77,120,233.0,0.239583,Sixteenth,F5
1558,Left,1,32,120,233.0,0.989583,Quarter,G#2_G#1
1561,Right,0,75,120,233.208333,0.239583,Sixteenth,D#5
1562,Right,0,72,120,233.5,0.239583,Sixteenth,C5
1563,Right,0,68,120,233.75,0.239583,Sixteenth,G#4
1564,Left,1,36,120,234.0,0.989583,Quarter,C3_C2
1566,Right,0,77,120,234.0,0.239583,Sixteenth,F5
1567,Right,0,75,120,234.25,0.239583,Sixteenth,D#5
1568,Right,0,72,120,234.5,0.239583,Sixteenth,C5
1569,Right,0,68,120,234.75,0.239583,Sixteenth,G#4
1570,Right,0,77,120,235.0,0.239583,Sixteenth,F5
1571,Left,1,31,120,235.0,1.989583,Half,G2_G1
1573,Right,0,75,120,235.25,0.239583,Sixteenth,D#5
1574,Right,0,73,120,235.5,0.239583,Sixteenth,C#5
1575,Right,0,70,120,235.75,0.239583,Sixteenth,A#4
1576,Right,0,77,120,236.0,0.239583,Sixteenth,F5
1577,Right,0,75,120,236.25,0.239583,Sixteenth,D#5
1578,Right,0,73,120,236.5,0.239583,Sixteenth,C#5
1579,Right,0,70,120,236.75,0.239583,Sixteenth,A#4
1580,Right,0,82,120,237.0,0.239583,Sixteenth,A#5
1581,Left,1,30,120,237.0,0.989583,Quarter,F#2_F#1
1583,Right,0,80,120,237.25,0.239583,Sixteenth,G#5
1584,Right,0,75,120,237.5,0.239583,Sixteenth,D#5
1585,Right,0,72,120,237.75,0.239583,Sixteenth,C5
1587,Left,1,32,120,238.0,0.989583,Quarter,G#2_G#1
1586,Right,0,82,120,238.0,0.239583,Sixteenth,A#5
1589,Right,0,80,120,238.25,0.239583,Sixteenth,G#5
1590,Right,0,75,120,238.5,0.239583,Sixteenth,D#5
1591,Right,0,72,120,238.75,0.239583,Sixteenth,C5
1592,Left,1,29,120,239.0,1.989583,Half,F2_F1
1594,Right,0,82,120,239.0,0.239583,Sixteenth,A#5
1595,Right,0,80,120,239.25,0.239583,Sixteenth,G#5
1596,Right,0,77,120,239.5,0.239583,Sixteenth,F5
1597,Right,0,73,120,239.75,0.239583,Sixteenth,C#5
1598,Right,0,87,120,240.0,0.239583,Sixteenth,D#6
1599,Right,0,85,120,240.25,0.239583,Sixteenth,C#6
1600,Right,0,80,120,240.5,0.239583,Sixteenth,G#5
1601,Right,0,73,120,240.75,0.239583,Sixteenth,C#5
1602,Left,1,40,120,241.0,0.989583,Quarter,E2_E1
1604,Right,0,87,120,241.0,0.239583,Sixteenth,D#6
1605,Right,0,85,120,241.25,0.239583,Sixteenth,C#6
1606,Right,0,80,120,241.5,0.239583,Sixteenth,G#5
1607,Right,0,73,120,241.75,0.239583,Sixteenth,C#5
1609,Right,0,87,120,242.0,0.239583,Sixteenth,D#6
1608,Left,1,43,120,242.0,0.989583,Quarter,G2_G1
1611,Right,0,85,120,242.25,0.239583,Sixteenth,C#6
1612,Right,0,80,120,242.5,0.239583,Sixteenth,G#5
1613,Right,0,73,120,242.75,0.239583,Sixteenth,C#5
1616,Right,0,85,120,243.0,0.239583,Sixteenth,C#6
1614,Left,1,27,120,243.0,0.989583,Quarter,D#2_D#1
1617,Right,0,84,120,243.25,0.239583,Sixteenth,C6
1618,Right,0,80,120,243.5,0.239583,Sixteenth,G#5
1619,Right,0,75,120,243.75,0.239583,Sixteenth,D#5
1620,Right,0,85,120,244.0,0.239583,Sixteenth,C#6
1621,Left,1,44,120,244.0,0.739583,DottedEighth,G#2_G#1
1623,Right,0,84,120,244.25,0.239583,Sixteenth,C6
1624,Right,0,80,120,244.5,0.239583,Sixteenth,G#5
1626,Right,0,75,120,244.75,0.239583,Sixteenth,D#5
1625,Left,1,36,120,244.75,0.239583,Sixteenth,C3_C2
1628,Right,0,85,120,245.0,0.239583,Sixteenth,C#6
1629,Left,1,39,120,245.0,0.989583,Quarter,D#3_D#2
1631,Right,0,84,120,245.25,0.239583,Sixteenth,C6
1632,Right,0,80,120,245.5,0.239583,Sixteenth,G#5
1633,Right,0,75,120,245.75,0.239583,Sixteenth,D#5
1636,Right,0,84,120,246.0,0.239583,Sixteenth,C6
1634,Left,1,39,120,246.0,0.989583,Quarter,D#2_D#1
1637,Right,0,82,120,246.25,0.239583,Sixteenth,A#5
1638,Right,0,79,120,246.5,0.239583,Sixteenth,G5
1639,Right,0,73,120,246.75,0.239583,Sixteenth,C#5
1640,Right,0,75,120,247.0,0.989583,Eighth,G#5_D#5_C5
1643,Left,1,60,120,247.25,0.239583,Sixteenth,C4
1644,Right,0,75,120,247.5,0.489583,Eighth,D#5_C5
1645,Left,1,58,120,247.5,0.239583,Sixteenth,A#3
1647,Left,1,56,120,247.75,0.239583,Sixteenth,G#3
1649,Right,0,84,120,248.0,0.989583,Eighth,D#5_C6_C5
1648,Left,1,55,120,248.0,0.239583,Sixteenth,G3
1652,Left,1,56,120,248.25,0.239583,Sixteenth,G#3
1655,Left,1,58,120,248.5,0.239583,Sixteenth,A#3
1653,Right,0,72,120,248.5,0.489583,Eighth,D#5_C5
1656,Left,1,56,120,248.75,0.239583,Sixteenth,G#3
1657,Right,0,70,120,249.0,1.989583,Eighth,G5_D#5_A#4
1660,Left,1,67,120,249.25,0.239583,Sixteenth,G4
1661,Right,0,75,120,249.5,0.489583,Eighth,D#5_A#4
1662,Left,1,65,120,249.5,0.239583,Sixteenth,F4
1664,Left,1,63,120,249.75,0.239583,Sixteenth,D#4
1665,Left,1,62,120,250.0,0.239583,Sixteenth,D4
1666,Right,0,70,120,250.0,0.489583,Eighth,D#5_A#4
1668,Left,1,63,120,250.25,0.239583,Sixteenth,D#4
1669,Right,0,70,120,250.5,0.489583,Eighth,D#5_A#4
1671,Left,1,65,120,250.5,0.239583,Sixteenth,F4
1672,Left,1,63,120,250.75,0.239583,Sixteenth,D#4
1673,Right,0,75,120,251.0,0.989583,Eighth,G#4_F#5_D#5
1676,Left,1,51,120,251.25,0.239583,Sixteenth,D#3
1677,Right,0,75,120,251.5,0.489583,Eighth,G#4_D#5
1678,Left,1,49,120,251.5,0.239583,Sixteenth,C#3
1680,Left,1,48,120,251.75,0.239583,Sixteenth,C3
1683,Left,1,47,120,252.0,0.239583,Sixteenth,B2
1681,Right,0,68,120,252.0,0.989583,Eighth,G#5_G#4_D#5
1685,Left,1,48,120,252.25,0.239583,Sixteenth,C3
1687,Left,1,49,120,252.5,0.239583,Sixteenth,C#3
1686,Right,0,75,120,252.5,0.489583,Eighth,G#4_D#5
1689,Left,1,48,120,252.75,0.239583,Sixteenth,C3
1690,Right,0,77,120,253.0,1.989583,Eighth,G#4_F5_C#5
1693,Left,1,65,120,253.25,0.239583,Sixteenth,F4
1695,Right,0,68,120,253.5,0.489583,Eighth,G#4_C#5
1694,Left,1,63,120,253.5,0.239583,Sixteenth,D#4
1697,Left,1,61,120,253.75,0.239583,Sixteenth,C#4
1699,Right,0,68,120,254.0,0.489583,Eighth,G#4_C#5
1698,Left,1,60,120,254.0,0.239583,Sixteenth,C4
1701,Left,1,61,120,254.25,0.239583,Sixteenth,C#4
1704,Left,1,63,120,254.5,0.239583,Sixteenth,D#4
1702,Right,0,73,120,254.5,0.489583,Eighth,G#4_C#5
1705,Left,1,61,120,254.75,0.239583,Sixteenth,C#4
1706,Right,0,73,120,255.0,0.989583,Eighth,G#4_E5_C#5
1709,Left,1,37,120,255.25,0.239583,Sixteenth,C#2
1710,Left,1,39,120,255.5,0.239583,Sixteenth,D#2
1711,Right,0,73,120,255.5,0.489583,Eighth,G#4_C#5
1713,Left,1,40,120,255.75,0.239583,Sixteenth,E2
1715,Right,0,80,120,256.0,0.989583,Eighth,G#5_G#4_C#5
1714,Left,1,39,120,256.0,0.239583,Sixteenth,D#2
1718,Left,1,37,120,256.25,0.239583,Sixteenth,C#2
1721,Left,1,36,120,256.5,0.239583,Sixteenth,C2
1719,Right,0,73,120,256.5,0.489583,Eighth,G#4_C#5
1722,Left,1,37,120,256.75,0.239583,Sixteenth,C#2
1724,Right,0,68,120,257.0,0.989583,Quarter,G#4_D#5_C5
1723,Left,1,38,120,257.0,0.239583,Sixteenth,D2
1727,Left,1,39,120,257.25,0.239583,Sixteenth,D#2
1728,Left,1,41,120,257.5,0.239583,Sixteenth,F2
1729,Left,1,39,120,257.75,0.239583,Sixteenth,D#2
1731,Left,1,37,120,258.0,0.239583,Sixteenth,C#2
1730,Right,0,68,120,258.0,0.739583,DottedEighth,G#5_G#4
1733,Left,1,36,120,258.25,0.239583,Sixteenth,C2
1734,Left,1,34,120,258.5,0.239583,Sixteenth,A#1
1735,Right,0,72,120,258.75,0.239583,Sixteenth,C6_C5
1736,Left,1,32,120,258.75,0.239583,Sixteenth,G#1
1740,Left,1,31,120,259.0,0.239583,Sixteenth,G1
1738,Right,0,75,120,259.0,0.489583,Eighth,D#6_D#5
1741,Left,1,32,120,259.25,0.239583,Sixteenth,G#1
1742,Left,1,34,120,259.5,0.239583,Sixteenth,A#1
1743,Right,0,87,120,259.5,0.489583,Eighth,D#6
1744,Left,1,36,120,259.75,0.239583,Sixteenth,C2
1746,Right,0,87,120,260.0,0.239583,Sixteenth,D#6
1745,Left,1,37,120,260.0,0.239583,Sixteenth,C#2
1747,Right,0,89,120,260.125,0.239583,Sixteenth,F6
1749,Right,0,87,120,260.25,0.239583,Sixteenth,D#6
1748,Left,1,36,120,260.25,0.239583,Sixteenth,C2
1750,Right,0,89,120,260.375,0.239583,Sixteenth,F6
1751,Right,0,87,120,260.5,0.239583,Sixteenth,D#6
1752,Left,1,37,120,260.5,0.239583,Sixteenth,C#2
1753,Right,0,89,120,260.625,0.239583,Sixteenth,F6
1754,Left,1,35,120,260.75,0.239583,Sixteenth,B1
1755,Right,0,86,120,260.75,0.239583,Sixteenth,D6
1756,Right,0,87,120,261.0,0.114583,ThirtySecond,D#6
1757,Left,1,36,120,261.0,0.239583,Sixteenth,C2
1758,Left,1,37,120,261.25,0.239583,Sixteenth,C#2
1760,Right,0,89,120,261.5,0.239583,Sixteenth,F6
1759,Left,1,39,120,261.5,0.239583,Sixteenth,D#2
1762,Left,1,37,120,261.75,0.239583,Sixteenth,C#2
1761,Right,0,91,120,261.75,0.239583,Sixteenth,G6
1763,Left,1,36,120,262.0,0.239583,Sixteenth,C2
1764,Right,0,91,120,262.0,0.489583,Eighth,G6
1765,Left,1,35,120,262.25,0.239583,Sixteenth,B1
1767,Right,0,92,120,262.5,0.489583,Eighth,G#6
1766,Left,1,36,120,262.5,0.239583,Sixteenth,C2
1768,Left,1,32,120,262.75,0.239583,Sixteenth,G#1
1769,Left,1,31,120,263.0,0.239583,Sixteenth,G1
1770,Left,1,32,120,263.25,0.239583,Sixteenth,G#1
1772,Left,1,34,120,263.5,0.239583,Sixteenth,A#1
1771,Right,0,75,120,263.5,0.489583,Eighth,D#5
1773,Left,1,36,120,263.75,0.239583,Sixteenth,C2
1774,Left,1,37,120,264.0,0.239583,Sixteenth,C#2
1775,Right,0,75,120,264.0,0.239583,Sixteenth,D#5
1776,Right,0,77,120,264.125,0.239583,Sixteenth,F5
1777,Left,1,36,120,264.25,0.239583,Sixteenth,C2
1778,Right,0,75,120,264.25,0.239583,Sixteenth,D#5
1779,Right,0,77,120,264.375,0.239583,Sixteenth,F5
1780,Left,1,37,120,264.5,0.239583,Sixteenth,C#2
1781,Right,0,75,120,264.5,0.239583,Sixteenth,D#5
1782,Right,0,77,120,264.625,0.239583,Sixteenth,F5
1784,Right,0,74,120,264.75,0.239583,Sixteenth,D5
1783,Left,1,35,120,264.75,0.239583,Sixteenth,B1
1785,Right,0,75,120,265.0,0.114583,ThirtySecond,D#5
1786,Left,1,36,120,265.0,0.239583,Sixteenth,C2
1787,Left,1,37,120,265.25,0.239583,Sixteenth,C#2
1788,Right,0,77,120,265.5,0.239583,Sixteenth,F5
1789,Left,1,39,120,265.5,0.239583,Sixteenth,D#2
1790,Right,0,79,120,265.75,0.239583,Sixteenth,G5
1791,Left,1,37,120,265.75,0.239583,Sixteenth,C#2
1792,Right,0,79,120,266.0,0.489583,Eighth,G5
1793,Left,1,36,120,266.0,0.239583,Sixteenth,C2
1794,Left,1,35,120,266.25,0.239583,Sixteenth,B1
1796,Left,1,36,120,266.5,0.239583,Sixteenth,C2
1795,Right,0,80,120,266.5,0.489583,Eighth,G#5
1797,Left,1,32,120,266.75,0.239583,Sixteenth,G#1
1798,Left,1,31,120,267.0,0.239583,Sixteenth,G1
1799,Left,1,32,120,267.25,0.239583,Sixteenth,G#1
1800,Right,0,63,120,267.5,0.489583,Eighth,D#4
1801,Left,1,34,120,267.5,0.239583,Sixteenth,A#1
1802,Left,1,36,120,267.75,0.239583,Sixteenth,C2
1803,Right,0,65,120,268.0,0.239583,Sixteenth,F4
1804,Left,1,37,120,268.0,0.239583,Sixteenth,C#2
1805,Right,0,63,120,268.125,0.239583,Sixteenth,D#4
1806,Left,1,39,120,268.25,0.239583,Sixteenth,D#2
1807,Right,0,65,120,268.25,0.239583,Sixteenth,F4
1808,Right,0,63,120,268.375,0.239583,Sixteenth,D#4
1810,Right,0,65,120,268.5,0.239583,Sixteenth,F4
1809,Left,1,41,120,268.5,0.239583,Sixteenth,F2
1811,Left,1,43,120,268.75,0.239583,Sixteenth,G2
1812,Right,0,67,120,268.75,0.239583,Sixteenth,G4
1814,Right,0,68,120,269.0,0.239583,Sixteenth,G#4
1813,Left,1,44,120,269.0,0.239583,Sixteenth,G#2
1816,Right,0,70,120,269.25,0.239583,Sixteenth,A#4
1815,Left,1,46,120,269.25,0.239583,Sixteenth,A#2
1817,Left,1,48,120,269.5,0.239583,Sixteenth,C3
1818,Right,0,72,120,269.5,0.239583,Sixteenth,C5
1819,Left,1,47,120,269.75,0.239583,Sixteenth,B2
1820,Right,0,71,120,269.75,0.239583,Sixteenth,B4
1821,Left,1,48,120,270.0,0.239583,Sixteenth,C3
1822,Right,0,72,120,270.0,0.239583,Sixteenth,C5
1823,Right,0,73,120,270.25,0.239583,Sixteenth,C#5
1824,Left,1,49,120,270.25,0.239583,Sixteenth,C#3
1825,Right,0,74,120,270.5,0.239583,Sixteenth,D5
1826,Left,1,50,120,270.5,0.239583,Sixteenth,D3
1827,Right,0,73,120,270.75,0.239583,Sixteenth,C#5
1828,Left,1,49,120,270.75,0.239583,Sixteenth,C#3
1830,Right,0,74,120,271.0,0.239583,Sixteenth,D5
1829,Left,1,50,120,271.0,0.239583,Sixteenth,D3
1832,Right,0,75,120,271.25,0.239583,Sixteenth,D#5
1831,Left,1,51,120,271.25,0.239583,Sixteenth,D#3
1833,Left,1,52,120,271.5,0.239583,Sixteenth,E3
1834,Right,0,76,120,271.5,0.239583,Sixteenth,E5
1836,Right,0,75,120,271.75,0.239583,Sixteenth,D#5
1835,Left,1,51,120,271.75,0.239583,Sixteenth,D#3
1838,Right,0,76,120,272.0,0.239583,Sixteenth,E5
1837,Left,1,52,120,272.0,0.239583,Sixteenth,E3
1840,Right,0,77,120,272.25,0.239583,Sixteenth,F5
1839,Left,1,53,120,272.25,0.239583,Sixteenth,F3
1842,Left,1,54,120,272.5,0.239583,Sixteenth,F#3
1841,Right,0,78,120,272.5,0.239583,Sixteenth,F#5
1844,Right,0,79,120,272.75,0.239583,Sixteenth,G5
1843,Left,1,55,120,272.75,0.239583,Sixteenth,G3
1845,Right,0,80,120,273.0,0.239583,Sixteenth,G#5
1846,Left,1,56,120,273.0,0.239583,Sixteenth,G#3
1848,Left,1,58,120,273.25,0.239583,Sixteenth,A#3
1847,Right,0,82,120,273.25,0.239583,Sixteenth,A#5
1849,Left,1,60,120,273.5,0.239583,Sixteenth,C4
1850,Right,0,84,120,273.5,0.239583,Sixteenth,C6
1852,Right,0,83,120,273.75,0.239583,Sixteenth,B5
1851,Left,1,59,120,273.75,0.239583,Sixteenth,B3
1853,Right,0,84,120,274.0,0.239583,Sixteenth,C6
1854,Left,1,60,120,274.0,0.239583,Sixteenth,C4
1856,Right,0,85,120,274.25,0.239583,Sixteenth,C#6
1855,Left,1,61,120,274.25,0.239583,Sixteenth,C#4
1858,Right,0,86,120,274.5,0.239583,Sixteenth,D6
1857,Left,1,62,120,274.5,0.239583,Sixteenth,D4
1859,Left,1,61,120,274.75,0.239583,Sixteenth,C#4
1860,Right,0,85,120,274.75,0.239583,Sixteenth,C#6
1861,Left,1,62,120,275.0,0.239583,Sixteenth,D4
1862,Right,0,86,120,275.0,0.239583,Sixteenth,D6
1864,Right,0,87,120,275.25,0.239583,Sixteenth,D#6
1863,Left,1,63,120,275.25,0.239583,Sixteenth,D#4
1865,Left,1,64,120,275.5,0.239583,Sixteenth,E4
1866,Right,0,88,120,275.5,0.239583,Sixteenth,E6
1868,Right,0,87,120,275.75,0.239583,Sixteenth,D#6
1867,Left,1,63,120,275.75,0.239583,Sixteenth,D#4
1870,Right,0,88,120,276.0,0.239583,Sixteenth,E6
1869,Left,1,64,120,276.0,0.239583,Sixteenth,E4
1871,Left,1,65,120,276.25,0.239583,Sixteenth,F4
1872,Right,0,89,120,276.25,0.239583,Sixteenth,F6
1874,Left,1,66,120,276.5,0.239583,Sixteenth,F#4
1873,Right,0,90,120,276.5,0.239583,Sixteenth,F#6
1875,Right,0,91,120,276.75,0.239583,Sixteenth,G6
1876,Left,1,67,120,276.75,0.239583,Sixteenth,G4
1877,Right,0,80,120,277.0,0.989583,Quarter,G#6_G#5
1879,Left,1,68,120,277.0,0.989583,Quarter,G#4
1880,Right,0,56,120,278.0,0.989583,Quarter,G#4_G#3
1882,Left,1,32,120,278.0,0.989583,Quarter,G#2_G#1
1885,Left,1,31,120,280.5,0.15625,TripletSixteenth,G1
1884,Right,0,43,120,280.5,0.15625,TripletSixteenth,G2
1886,Right,0,45,120,280.666667,0.15625,TripletSixteenth,A2
1887,Left,1,33,120,280.666667,0.15625,TripletSixteenth,A1
1889,Left,1,35,120,280.833333,0.15625,TripletSixteenth,B1
1888,Right,0,47,120,280.833333,0.15625,TripletSixteenth,B2
1890,Right,0,48,120,281.0,0.989583,Quarter,C3
1891,Left,1,36,120,281.0,0.989583,Quarter,C2
1893,Left,1,31,120,284.5,0.15625,TripletSixteenth,G1
1892,Right,0,43,120,284.5,0.15625,TripletSixteenth,G2
1895,Left,1,33,120,284.666667,0.15625,TripletSixteenth,A1
1894,Right,0,45,120,284.666667,0.15625,TripletSixteenth,A2
1897,Left,1,35,120,284.833333,0.15625,TripletSixteenth,B1
1896,Right,0,47,120,284.833333,0.15625,TripletSixteenth,B2
1898,Left,1,36,120,285.0,0.989583,Quarter,C2
1899,Right,0,48,120,285.0,0.989583,Quarter,C3
1900,Right,0,51,120,286.0,0.989583,Quarter,D#3
1901,Left,1,39,120,286.0,0.989583,Quarter,D#2
1903,Left,1,35,120,286.958333,4.989583,Unknown,B1
1902,Right,0,47,120,286.958333,4.989583,Unknown,B2
1904,Right,0,43,120,292.5,0.15625,TripletSixteenth,G2
1905,Left,1,31,120,292.5,0.15625,TripletSixteenth,G1
1906,Left,1,33,120,292.666667,0.15625,TripletSixteenth,A1
1907,Right,0,45,120,292.666667,0.15625,TripletSixteenth,A2
1909,Right,0,47,120,292.833333,0.15625,TripletSixteenth,B2
1908,Left,1,35,120,292.833333,0.15625,TripletSixteenth,B1
1910,Left,1,36,120,293.0,0.989583,Quarter,C2
1911,Right,0,48,120,293.0,0.989583,Quarter,C3
1912,Right,0,51,120,294.0,0.989583,Quarter,D#3
1913,Left,1,39,120,294.0,0.989583,Quarter,D#2
1915,Right,0,47,120,295.0,1.489583,DottedQuarter,B2
1914,Left,1,35,120,295.0,1.489583,DottedQuarter,B1
1917,Left,1,44,120,296.5,0.489583,Eighth,G#2
1916,Right,0,56,120,296.5,0.489583,Eighth,G#3
1919,Left,1,43,120,297.0,0.489583,Eighth,G2
1918,Right,0,55,120,297.0,0.489583,Eighth,G3
1920,Left,1,41,120,297.5,0.489583,Eighth,F2
1921,Right,0,53,120,297.5,0.489583,Eighth,F3
1922,Right,0,51,120,298.0,0.489583,Eighth,D#3
1923,Left,1,39,120,298.0,0.489583,Eighth,D#2
1924,Left,1,38,120,298.5,0.489583,Eighth,D2
1925,Right,0,50,120,298.5,0.489583,Eighth,D3
1927,Left,1,39,120,299.0,0.239583,Sixteenth,D#2
1926,Right,0,51,120,299.0,0.239583,Sixteenth,D#3
1929,Right,0,53,120,299.25,0.239583,Sixteenth,F3
1928,Left,1,41,120,299.25,0.239583,Sixteenth,F2
1931,Right,0,51,120,299.5,0.239583,Sixteenth,D#3
1930,Left,1,39,120,299.5,0.239583,Sixteenth,D#2
1933,Right,0,50,120,299.75,0.239583,Sixteenth,D3
1932,Left,1,38,120,299.75,0.239583,Sixteenth,D2
1934,Left,1,36,120,300.0,0.489583,Eighth,C2
1935,Right,0,48,120,300.0,0.489583,Eighth,C3
1937,Right,0,56,120,300.5,0.489583,Eighth,G#3
1936,Left,1,44,120,300.5,0.489583,Eighth,G#2
1939,Right,0,55,110,301.0,0.489583,Eighth,G3
1938,Left,1,43,110,301.0,0.489583,Eighth,G2
1941,Right,0,53,100,301.5,0.489583,Eighth,F3
1940,Left,1,41,100,301.5,0.489583,Eighth,F2
1942,Left,1,39,90,302.0,0.489583,Eighth,D#2
1943,Right,0,51,90,302.0,0.489583,Eighth,D#3
1944,Right,0,50,80,302.5,0.489583,Eighth,D3
1945,Left,1,38,80,302.5,0.489583,Eighth,D2
1946,Right,0,51,80,303.0,0.239583,Sixteenth,D#3
1947,Left,1,39,80,303.0,0.239583,Sixteenth,D#2
1949,Left,1,41,80,303.25,0.239583,Sixteenth,F2
1948,Right,0,53,80,303.25,0.239583,Sixteenth,F3
1950,Left,1,39,80,303.5,0.239583,Sixteenth,D#2
1951,Right,0,51,80,303.5,0.239583,Sixteenth,D#3
1953,Right,0,50,80,303.75,0.239583,Sixteenth,D3
1952,Left,1,38,80,303.75,0.239583,Sixteenth,D2
1955,Left,1,36,80,304.0,0.239583,Sixteenth,C2
1954,Right,0,48,80,304.0,0.239583,Sixteenth,C3
1956,Right,0,56,80,304.25,0.239583,Sixteenth,G#3
1957,Left,1,44,80,304.25,0.239583,Sixteenth,G#2
1958,Right,0,58,81,304.5,0.239583,Sixteenth,A#3
1959,Left,1,46,81,304.5,0.239583,Sixteenth,A#2
1961,Left,1,44,82,304.75,0.239583,Sixteenth,G#2
1960,Right,0,56,82,304.75,0.239583,Sixteenth,G#3
1963,Left,1,43,82,305.0,0.239583,Sixteenth,G2
1962,Right,0,55,82,305.0,0.239583,Sixteenth,G3
1964,Right,0,56,83,305.25,0.239583,Sixteenth,G#3
1965,Left,1,44,83,305.25,0.239583,Sixteenth,G#2
1967,Right,0,55,84,305.5,0.239583,Sixteenth,G3
1966,Left,1,43,84,305.5,0.239583,Sixteenth,G2
1968,Left,1,41,85,305.75,0.239583,Sixteenth,F2
1969,Right,0,53,85,305.75,0.239583,Sixteenth,F3
1971,Left,1,39,85,306.0,0.239583,Sixteenth,D#2
1970,Right,0,51,85,306.0,0.239583,Sixteenth,D#3
1973,Right,0,53,86,306.25,0.239583,Sixteenth,F3
1972,Left,1,41,86,306.25,0.239583,Sixteenth,F2
1975,Left,1,39,87,306.5,0.239583,Sixteenth,D#2
1974,Right,0,51,87,306.5,0.239583,Sixteenth,D#3
1976,Left,1,38,87,306.75,0.239583,Sixteenth,D2
1977,Right,0,50,87,306.75,0.239583,Sixteenth,D3
1979,Left,1,39,88,307.0,0.239583,Sixteenth,D#2
1978,Right,0,51,88,307.0,0.239583,Sixteenth,D#3
1981,Left,1,41,89,307.25,0.239583,Sixteenth,F2
1980,Right,0,53,89,307.25,0.239583,Sixteenth,F3
1982,Left,1,39,90,307.5,0.239583,Sixteenth,D#2
1983,Right,0,51,90,307.5,0.239583,Sixteenth,D#3
1985,Right,0,50,90,307.75,0.239583,Sixteenth,D3
1984,Left,1,38,90,307.75,0.239583,Sixteenth,D2
1987,Right,0,48,91,308.0,0.239583,Sixteenth,C3
1986,Left,1,36,91,308.0,0.239583,Sixteenth,C2
1989,Right,0,55,92,308.25,0.239583,Sixteenth,G3
1988,Left,1,43,92,308.25,0.239583,Sixteenth,G2
1991,Right,0,53,92,308.5,0.239583,Sixteenth,F3
1990,Left,1,41,92,308.5,0.239583,Sixteenth,F2
1992,Right,0,51,93,308.75,0.239583,Sixteenth,D#3
1993,Left,1,39,93,308.75,0.239583,Sixteenth,D#2
1994,Right,0,53,94,309.0,0.239583,Sixteenth,F3
1995,Left,1,41,94,309.0,0.239583,Sixteenth,F2
1996,Right,0,55,95,309.25,0.239583,Sixteenth,G3
1997,Left,1,43,95,309.25,0.239583,Sixteenth,G2
1999,Left,1,41,95,309.5,0.239583,Sixteenth,F2
1998,Right,0,53,95,309.5,0.239583,Sixteenth,F3
2001,Left,1,39,96,309.75,0.239583,Sixteenth,D#2
2000,Right,0,51,96,309.75,0.239583,Sixteenth,D#3
2002,Right,0,50,97,310.0,0.239583,Sixteenth,D3
2003,Left,1,38,97,310.0,0.239583,Sixteenth,D2
2004,Left,1,44,98,310.25,0.239583,Sixteenth,G#2
2005,Right,0,56,98,310.25,0.239583,Sixteenth,G#3
2007,Left,1,43,98,310.5,0.239583,Sixteenth,G2
2006,Right,0,55,98,310.5,0.239583,Sixteenth,G3
2009,Right,0,53,99,310.75,0.239583,Sixteenth,F3
2008,Left,1,41,99,310.75,0.239583,Sixteenth,F2
2010,Left,1,43,100,311.0,0.239583,Sixteenth,G2
2011,Right,0,55,100,311.0,0.239583,Sixteenth,G3
2012,Left,1,44,100,311.25,0.239583,Sixteenth,G#2
2013,Right,0,56,100,311.25,0.239583,Sixteenth,G#3
2014,Left,1,43,101,311.5,0.239583,Sixteenth,G2
2015,Right,0,55,101,311.5,0.239583,Sixteenth,G3
2016,Left,1,41,102,311.75,0.239583,Sixteenth,F2
2017,Right,0,53,102,311.75,0.239583,Sixteenth,F3
2019,Left,1,40,103,312.0,0.239583,Sixteenth,E2
2018,Right,0,52,103,312.0,0.239583,Sixteenth,E3
2021,Right,0,58,103,312.25,0.239583,Sixteenth,A#3
2020,Left,1,46,103,312.25,0.239583,Sixteenth,A#2
2022,Right,0,56,104,312.5,0.239583,Sixteenth,G#3
2023,Left,1,44,104,312.5,0.239583,Sixteenth,G#2
2025,Right,0,55,105,312.75,0.239583,Sixteenth,G3
2024,Left,1,43,105,312.75,0.239583,Sixteenth,G2
2027,Right,0,56,105,313.0,0.239583,Sixteenth,G#3
2026,Left,1,44,105,313.0,0.239583,Sixteenth,G#2
2028,Right,0,60,106,313.25,0.239583,Sixteenth,C4
2029,Left,1,48,106,313.25,0.239583,Sixteenth,C3
2031,Right,0,55,107,313.5,0.239583,Sixteenth,G3
2030,Left,1,43,107,313.5,0.239583,Sixteenth,G2
2033,Right,0,60,108,313.75,0.239583,Sixteenth,C4
2032,Left,1,48,108,313.75,0.239583,Sixteenth,C3
2034,Left,1,41,108,314.0,0.239583,Sixteenth,F2
2035,Right,0,53,108,314.0,0.239583,Sixteenth,F3
2037,Right,0,60,109,314.25,0.239583,Sixteenth,C4
2036,Left,1,48,109,314.25,0.239583,Sixteenth,C3
2038,Left,1,42,110,314.5,0.239583,Sixteenth,F#2
2039,Right,0,54,110,314.5,0.239583,Sixteenth,F#3
2040,Left,1,48,110,314.75,0.239583,Sixteenth,C3
2041,Right,0,60,110,314.75,0.239583,Sixteenth,C4
2042,Left,1,47,120,315.0,0.239583,Sixteenth,B2
2043,Right,0,59,120,315.0,0.239583,Sixteenth,B3
2045,Left,1,45,110,315.25,0.239583,Sixteenth,A2
2044,Right,0,57,110,315.25,0.239583,Sixteenth,A3
2046,Left,1,43,110,315.5,0.239583,Sixteenth,G2
2047,Right,0,55,110,315.5,0.239583,Sixteenth,G3
2049,Right,0,62,110,315.75,0.239583,Sixteenth,D4
2048,Left,1,50,110,315.75,0.239583,Sixteenth,D3
2051,Right,0,60,120,316.0,0.239583,Sixteenth,C4
2050,Left,1,48,120,316.0,0.239583,Sixteenth,C3
2053,Right,0,59,110,316.25,0.239583,Sixteenth,B3
2052,Left,1,47,110,316.25,0.239583,Sixteenth,B2
2054,Right,0,65,110,316.5,0.239583,Sixteenth,F4
2055,Left,1,53,110,316.5,0.239583,Sixteenth,F3
2057,Right,0,63,110,316.75,0.239583,Sixteenth,D#4
2056,Left,1,51,110,316.75,0.239583,Sixteenth,D#3
2059,Left,1,50,120,317.0,0.239583,Sixteenth,D3
2058,Right,0,62,120,317.0,0.239583,Sixteenth,D4
2060,Right,0,68,110,317.25,0.239583,Sixteenth,G#4
2061,Left,1,56,110,317.25,0.239583,Sixteenth,G#3
2063,Left,1,55,110,317.5,0.239583,Sixteenth,G3
2062,Right,0,67,110,317.5,0.239583,Sixteenth,G4
2065,Left,1,53,110,317.75,0.239583,Sixteenth,F3
2064,Right,0,65,110,317.75,0.239583,Sixteenth,F4
2067,Right,0,74,120,318.0,0.239583,Sixteenth,D5
2066,Left,1,62,120,318.0,0.239583,Sixteenth,D4
2069,Right,0,72,110,318.25,0.239583,Sixteenth,C5
2068,Left,1,60,110,318.25,0.239583,Sixteenth,C4
2071,Left,1,59,110,318.5,0.239583,Sixteenth,B3
2070,Right,0,71,110,318.5,0.239583,Sixteenth,B4
2073,Left,1,65,110,318.75,0.239583,Sixteenth,F4
2072,Right,0,77,110,318.75,0.239583,Sixteenth,F5
2075,Right,0,75,120,319.0,0.239583,Sixteenth,D#5
2074,Left,1,63,120,319.0,0.239583,Sixteenth,D#4
2077,Right,0,74,110,319.25,0.239583,Sixteenth,D5
2076,Left,1,62,110,319.25,0.239583,Sixteenth,D4
2079,Right,0,80,110,319.5,0.239583,Sixteenth,G#5
2078,Left,1,68,110,319.5,0.239583,Sixteenth,G#4
2080,Left,1,67,110,319.75,0.239583,Sixteenth,G4
2081,Right,0,79,110,319.75,0.239583,Sixteenth,G5
2083,Left,1,65,120,320.0,0.239583,Sixteenth,F4
2082,Right,0,77,120,320.0,0.239583,Sixteenth,F5
2085,Left,1,74,110,320.25,0.239583,Sixteenth,D5
2084,Right,0,86,110,320.25,0.239583,Sixteenth,D6
2087,Left,1,72,110,320.5,0.239583,Sixteenth,C5
2086,Right,0,84,110,320.5,0.239583,Sixteenth,C6
2088,Left,1,71,110,320.75,0.239583,Sixteenth,B4
2089,Right,0,83,110,320.75,0.239583,Sixteenth,B5
2090,Left,1,77,120,321.0,0.239583,Sixteenth,F5
2091,Right,0,89,120,321.0,0.239583,Sixteenth,F6
2093,Right,0,87,108,321.25,0.239583,Sixteenth,D#6
2092,Left,1,75,108,321.25,0.239583,Sixteenth,D#5
2094,Left,1,74,106,321.5,0.239583,Sixteenth,D5
2095,Right,0,86,106,321.5,0.239583,Sixteenth,D6
2096,Right,0,92,105,321.708333,0.239583,Sixteenth,G#6
2097,Left,1,80,105,321.708333,0.239583,Sixteenth,G#5
2099,Right,0,91,102,322.0,0.239583,Sixteenth,G6
2098,Left,1,79,102,322.0,0.239583,Sixteenth,G5
2100,Right,0,89,100,322.25,0.239583,Sixteenth,F6
2101,Left,1,77,100,322.25,0.239583,Sixteenth,F5
2102,Right,0,87,98,322.5,0.239583,Sixteenth,D#6
2103,Left,1,75,98,322.5,0.239583,Sixteenth,D#5
2104,Right,0,86,96,322.75,0.239583,Sixteenth,D6
2105,Left,1,74,96,322.75,0.239583,Sixteenth,D5
2106,Left,1,72,94,323.0,0.239583,Sixteenth,C5
2107,Right,0,84,94,323.0,0.239583,Sixteenth,C6
2109,Left,1,71,92,323.25,0.239583,Sixteenth,B4
2108,Right,0,83,92,323.25,0.239583,Sixteenth,B5
2110,Left,1,68,90,323.5,0.239583,Sixteenth,G#4
2111,Right,0,80,90,323.5,0.239583,Sixteenth,G#5
2112,Left,1,67,88,323.75,0.239583,Sixteenth,G4
2113,Right,0,79,88,323.75,0.239583,Sixteenth,G5
2114,Right,0,77,86,324.0,0.239583,Sixteenth,F5
2115,Left,1,65,86,324.0,0.239583,Sixteenth,F4
2116,Right,0,75,84,324.25,0.239583,Sixteenth,D#5
2117,Left,1,63,84,324.25,0.239583,Sixteenth,D#4
2119,Left,1,62,82,324.5,0.239583,Sixteenth,D4
2118,Right,0,74,82,324.5,0.239583,Sixteenth,D5
2120,Left,1,67,80,324.75,0.239583,Sixteenth,G4
2121,Right,0,79,80,324.75,0.239583,Sixteenth,G5
2125,Left,1,60,80,325.0,0.989583,Quarter,C4
2122,Right,0,67,80,325.0,0.989583,Eighth,G4_D#4_C5
2126,Right,0,67,80,325.5,0.489583,Eighth,G4_D#4
2128,Left,1,48,80,326.0,0.989583,Quarter,C3_C2
2130,Right,0,75,80,326.0,0.989583,Eighth,G4_D#5_D#4
2133,Right,0,67,80,326.5,0.489583,Eighth,G4_D#4
2135,Right,0,65,80,327.0,1.489583,Eighth,G4_F4_B4
2138,Right,0,65,80,327.5,0.489583,Eighth,G4_F4
2142,Right,0,67,80,328.0,0.489583,Eighth,G4_F4
2140,Left,1,43,80,328.0,0.989583,Quarter,G2_G1
2144,Right,0,67,80,328.5,0.489583,Eighth,G4_G#5_F4
2147,Right,0,67,80,329.0,0.489583,Eighth,G5_G4_F4
2150,Left,1,55,80,329.5,0.489583,Eighth,G3_D4
2151,Right,0,77,80,329.5,0.489583,Eighth,G4_F5_F4
2157,Right,0,65,80,330.0,0.489583,Eighth,G4_F4_D#5
2155,Left,1,55,80,330.0,0.489583,Eighth,G3_C4
2160,Right,0,67,80,330.5,0.489583,Eighth,G4_F4_D5
2162,Left,1,59,80,330.5,0.489583,Eighth,G3_B3
2165,Right,0,75,80,331.0,0.239583,Sixteenth,D#5
2166,Right,0,77,80,331.25,0.239583,Sixteenth,F5
2167,Right,0,75,80,331.5,0.239583,Sixteenth,D#5
2168,Right,0,74,80,331.75,0.239583,Sixteenth,D5
2169,Left,1,60,80,332.0,0.489583,Eighth,D#4_C4
2170,Right,0,72,80,332.0,0.489583,Eighth,G4_C5
2174,Left,1,55,80,332.5,0.489583,Eighth,G3_F4
2173,Right,0,80,80,332.5,0.489583,Eighth,G4_G#5
2178,Right,0,67,80,333.0,0.489583,Eighth,G5_G4
2177,Left,1,55,80,333.0,0.489583,Eighth,G3_D#4
2181,Left,1,62,80,333.5,0.489583,Eighth,G3_D4
2182,Right,0,71,80,333.5,0.489583,Eighth,G4_F5_B4
2186,Left,1,55,80,334.0,0.489583,Eighth,G3_C4
2187,Right,0,72,80,334.0,0.489583,Eighth,G4_D#5_C5
2191,Right,0,74,80,334.5,0.489583,Eighth,G4_D5
2192,Left,1,59,80,334.5,0.489583,Eighth,G3_B3
2195,Right,0,75,80,335.0,0.239583,Sixteenth,D#5
2196,Right,0,77,80,335.25,0.239583,Sixteenth,F5
2199,Right,0,75,80,335.5,0.989583,Sixteenth,G4_D#5
2197,Left,1,60,80,335.5,0.989583,Quarter,D#4_C4
2201,Right,0,74,80,335.75,0.239583,Sixteenth,D5
2202,Right,0,72,80,336.0,0.489583,Eighth,C5
2203,Right,0,89,80,336.5,0.489583,Sixteenth,G#6_F6
2205,Left,1,31,80,336.5,0.989583,Quarter,G2_G1
2207,Right,0,79,80,336.75,0.239583,Sixteenth,G5
2208,Right,0,87,80,337.0,0.489583,Sixteenth,G6_D#6
2210,Right,0,79,81,337.25,0.239583,Sixteenth,G5
2212,Right,0,89,82,337.5,0.489583,Eighth,F6_D6
2211,Left,1,31,82,337.5,0.489583,Eighth,G2_G1
2215,Right,0,79,83,337.75,0.239583,Sixteenth,G5
2216,Left,1,45,85,338.0,0.489583,Eighth,A2_A1
2217,Right,0,84,85,338.0,0.489583,Sixteenth,D#6_C6
2220,Right,0,79,86,338.25,0.239583,Sixteenth,G5
2223,Right,0,86,87,338.5,0.489583,Eighth,D6
2221,Left,1,47,87,338.5,0.489583,Eighth,B2_B1
2224,Right,0,80,89,338.75,0.239583,Sixteenth,G5_G#5
2226,Left,1,36,90,339.0,0.489583,Eighth,C3_C2
2228,Right,0,87,90,339.0,0.489583,Eighth,D#6
2229,Right,0,79,91,339.25,0.239583,Sixteenth,G5
2230,Left,1,47,93,339.5,0.489583,Eighth,B2_B1
2231,Right,0,86,93,339.5,0.489583,Eighth,D6
2233,Right,0,79,94,339.75,0.239583,Sixteenth,G5
2236,Right,0,84,95,340.0,0.489583,Eighth,C6
2234,Left,1,48,95,340.0,0.489583,Eighth,C3_C2
2237,Right,0,79,96,340.25,0.239583,Sixteenth,G5
2238,Left,1,50,98,340.5,0.489583,Eighth,D3_D2
2240,Right,0,83,98,340.5,0.489583,Eighth,B5
2241,Right,0,79,99,340.75,0.239583,Sixteenth,G5
2244,Left,1,39,100,341.0,0.489583,Eighth,D#3_D#2
2242,Right,0,79,100,341.0,0.489583,Sixteenth,G5_C6
2246,Right,0,72,102,341.25,0.239583,Sixteenth,C5
2249,Left,1,39,103,341.5,0.489583,Eighth,D#3_D#2
2247,Right,0,79,103,341.5,0.489583,Sixteenth,G5_A#5
2251,Right,0,72,104,341.75,0.239583,Sixteenth,C5
2254,Right,0,80,106,342.0,0.489583,Eighth,G#5
2252,Left,1,53,106,342.0,0.489583,Eighth,F3_F2
2255,Right,0,72,107,342.25,0.239583,Sixteenth,C5
2256,Right,0,79,108,342.5,0.489583,Eighth,G5
2257,Left,1,51,108,342.5,0.489583,Eighth,D#3_D#2
2259,Right,0,72,109,342.75,0.239583,Sixteenth,C5
2261,Right,0,80,110,343.0,0.489583,Eighth,G#5
2260,Left,1,53,110,343.0,0.489583,Eighth,F3_F2
2263,Right,0,72,110,343.25,0.239583,Sixteenth,C5
2265,Left,1,60,110,343.5,0.989583,Quarter,G#3_F4_C4
2264,Right,0,77,110,343.5,0.489583,Eighth,F5
2268,Right,0,72,110,343.75,0.239583,Sixteenth,C5
2269,Right,0,75,110,344.0,0.489583,Eighth,D#5
2270,Right,0,72,110,344.25,0.239583,Sixteenth,C5
2273,Right,0,74,110,344.5,0.489583,Eighth,D5
2271,Left,1,65,110,344.5,0.489583,Eighth,G#3_F4_C4
2275,Right,0,72,110,344.75,0.239583,Sixteenth,C5
2276,Right,0,65,110,345.0,0.989583,Quarter,F4_D5
2278,Left,1,56,110,345.0,0.989583,Quarter,G#3_C4
2280,Right,0,72,95,345.5,0.489583,Eighth,C5
2283,Right,0,66,80,346.0,1.989583,Quarter,F#4_C5
2281,Left,1,63,80,346.0,1.989583,Half,G#3_D#4
2286,Left,1,55,80,347.0,0.989583,Quarter,G3
2285,Right,0,67,80,347.0,0.989583,Quarter,G4
2287,Right,0,72,80,348.0,0.989583,Quarter,C5_A4
2289,Left,1,63,80,348.0,0.989583,Quarter,F#3_D#4
2293,Left,1,55,80,349.0,0.989583,Quarter,G3_D#4
2291,Right,0,72,80,349.0,0.989583,Sixteenth,G4_C5
2295,Right,0,74,80,349.125,0.239583,Sixteenth,D5
2296,Right,0,72,80,349.25,0.239583,Sixteenth,C5
2297,Right,0,74,80,349.375,0.239583,Sixteenth,D5
2298,Right,0,72,80,349.5,0.239583,Sixteenth,C5
2299,Right,0,74,80,349.625,0.239583,Sixteenth,D5
2300,Right,0,72,80,349.75,0.239583,Sixteenth,C5
2301,Right,0,74,80,349.875,0.239583,Sixteenth,D5
2302,Right,0,75,80,350.0,0.489583,Eighth,D#5
2303,Left,1,55,80,350.0,1.239583,Quarter,G3_F4_B3
2306,Right,0,74,80,350.5,0.489583,Eighth,D5
2307,Right,0,60,110,351.0,0.989583,Quarter,C5_C4
2309,Left,1,53,110,351.25,0.239583,Sixteenth,F3
2310,Left,1,51,110,351.5,0.239583,Sixteenth,D#3
2311,Left,1,50,110,351.75,0.239583,Sixteenth,D3
2313,Right,0,63,110,352.0,0.989583,Quarter,D#4
2312,Left,1,48,110,352.0,0.239583,Sixteenth,C3
2314,Left,1,50,110,352.25,0.239583,Sixteenth,D3
2315,Left,1,51,110,352.5,0.239583,Sixteenth,D#3
2316,Left,1,48,110,352.75,0.239583,Sixteenth,C3
2318,Right,0,59,110,353.0,1.239583,TiedQuarter-Sixteenth,B3
2317,Left,1,50,110,353.0,0.239583,Sixteenth,D3
2319,Left,1,48,110,353.25,0.239583,Sixteenth,C3
2320,Left,1,47,110,353.5,0.239583,Sixteenth,B2
2321,Left,1,45,110,353.75,0.239583,Sixteenth,A2
2322,Left,1,43,110,354.0,0.239583,Sixteenth,G2
2324,Right,0,62,110,354.25,0.239583,Sixteenth,D4
2323,Left,1,47,110,354.25,0.239583,Sixteenth,B2
2325,Right,0,65,110,354.5,0.239583,Sixteenth,F4
2326,Left,1,50,110,354.5,0.239583,Sixteenth,D3
2327,Left,1,53,110,354.75,0.239583,Sixteenth,F3
2328,Right,0,68,110,354.75,0.239583,Sixteenth,G#4
2330,Left,1,51,110,355.0,0.489583,Eighth,D#3
2329,Right,0,67,110,355.0,0.239583,Sixteenth,G4
2331,Right,0,68,110,355.25,0.239583,Sixteenth,G#4
2333,Right,0,67,110,355.5,0.239583,Sixteenth,G4
2332,Left,1,31,110,355.5,0.489583,Eighth,G2_G1
2335,Right,0,65,110,355.75,0.239583,Sixteenth,F4
2336,Right,0,63,110,356.0,0.239583,Sixteenth,D#4
2337,Left,1,36,110,356.0,0.489583,Eighth,C3_C2
2339,Right,0,65,110,356.25,0.239583,Sixteenth,F4
2340,Right,0,63,110,356.458333,0.239583,Sixteenth,D#4
2341,Left,1,35,110,356.5,0.489583,Eighth,B2_B1
2343,Right,0,62,110,356.75,0.239583,Sixteenth,D4
2344,Left,1,36,110,357.0,0.489583,Eighth,C3_C2
2346,Right,0,63,110,357.0,0.239583,Sixteenth,D#4
2347,Right,0,65,110,357.25,0.239583,Sixteenth,F4
2348,Left,1,41,110,357.5,0.489583,Eighth,F3_F2
2350,Right,0,63,110,357.5,0.239583,Sixteenth,D#4
2351,Right,0,62,110,357.75,0.239583,Sixteenth,D4
2352,Right,0,60,110,358.0,0.239583,Sixteenth,C4
2353,Left,1,51,110,358.0,0.489583,Eighth,D#3_D#2
2355,Right,0,63,110,358.25,0.239583,Sixteenth,D#4
2357,Right,0,67,110,358.5,0.239583,Sixteenth,G4
2356,Left,1,36,110,358.5,0.489583,Eighth,C3_C2
2359,Right,0,70,110,358.75,0.239583,Sixteenth,A#4
2360,Right,0,68,110,359.0,0.239583,Sixteenth,G#4
2361,Right,0,70,110,359.25,0.239583,Sixteenth,A#4
2362,Left,1,48,110,359.5,0.489583,Eighth,C3_C2
2363,Right,0,68,110,359.5,0.239583,Sixteenth,G#4
2365,Right,0,67,110,359.75,0.239583,Sixteenth,G4
2367,Right,0,65,110,360.0,0.239583,Sixteenth,F4
2366,Left,1,50,110,360.0,0.489583,Eighth,D3_D2
2369,Right,0,67,110,360.25,0.239583,Sixteenth,G4
2370,Left,1,36,110,360.5,0.489583,Eighth,C3_C2
2372,Right,0,65,110,360.5,0.239583,Sixteenth,F4
2373,Right,0,63,110,360.75,0.239583,Sixteenth,D#4
2374,Right,0,65,110,361.0,0.239583,Sixteenth,F4
2375,Left,1,50,110,361.0,0.489583,Eighth,D3_D2
2377,Right,0,67,110,361.25,0.239583,Sixteenth,G4
2378,Left,1,55,110,361.5,0.489583,Eighth,G3_G2
2379,Right,0,65,110,361.5,0.239583,Sixteenth,F4
2381,Right,0,63,110,361.75,0.239583,Sixteenth,D#4
2383,Right,0,62,110,362.0,0.239583,Sixteenth,D4
2382,Left,1,53,110,362.0,0.489583,Eighth,F3_F2
2385,Right,0,65,110,362.25,0.239583,Sixteenth,F4
2386,Right,0,68,110,362.5,0.239583,Sixteenth,G#4
2387,Left,1,39,110,362.5,0.489583,Eighth,D#3_D#2
2389,Right,0,72,110,362.75,0.239583,Sixteenth,C5
2391,Left,1,38,110,363.0,0.489583,Eighth,D3_D2
2390,Right,0,70,110,363.0,0.239583,Sixteenth,A#4
2393,Right,0,72,110,363.25,0.239583,Sixteenth,C5
2395,Right,0,70,110,363.5,0.239583,Sixteenth,A#4
2394,Left,1,46,110,363.5,0.489583,Eighth,A#2_A#1
2397,Right,0,68,110,363.75,0.239583,Sixteenth,G#4
2399,Right,0,67,110,364.0,0.239583,Sixteenth,G4
2398,Left,1,48,110,364.0,0.489583,Eighth,C3_C2
2401,Right,0,68,110,364.25,0.239583,Sixteenth,G#4
2402,Right,0,67,110,364.5,0.239583,Sixteenth,G4
2403,Left,1,38,110,364.5,0.489583,Eighth,D3_D2
2405,Right,0,65,110,364.75,0.239583,Sixteenth,F4
2406,Right,0,67,110,365.0,0.239583,Sixteenth,G4
2407,Left,1,39,110,365.0,0.989583,Quarter,D#3_D#2
2409,Right,0,70,110,365.25,0.239583,Sixteenth,A#4
2410,Right,0,68,110,365.5,0.239583,Sixteenth,G#4
2411,Right,0,67,110,365.75,0.239583,Sixteenth,G4
2412,Left,1,43,110,366.0,0.989583,Quarter,G3_G2
2413,Right,0,65,110,366.0,0.239583,Sixteenth,F4
2415,Right,0,63,110,366.25,0.239583,Sixteenth,D#4
2416,Right,0,62,110,366.5,0.239583,Sixteenth,D4
2417,Right,0,63,110,366.75,0.239583,Sixteenth,D#4
2420,Right,0,65,110,367.0,0.239583,Sixteenth,F4
2418,Left,1,50,110,367.0,0.489583,Eighth,D3_D2
2421,Right,0,59,110,367.25,0.239583,Sixteenth,B3
2423,Right,0,58,110,367.5,0.239583,Sixteenth,A#3
2422,Left,1,38,110,367.5,0.739583,DottedEighth,D2
2424,Right,0,59,110,367.75,0.239583,Sixteenth,B3
2425,Right,0,58,110,368.0,0.239583,Sixteenth,A#3
2427,Right,0,62,110,368.25,0.239583,Sixteenth,D4
2426,Left,1,41,110,368.25,0.239583,Sixteenth,F2
2428,Left,1,44,110,368.5,0.239583,Sixteenth,G#2
2429,Right,0,65,110,368.5,0.239583,Sixteenth,F4
2431,Right,0,68,110,368.75,0.239583,Sixteenth,G#4
2430,Left,1,48,110,368.75,0.239583,Sixteenth,C3
2432,Left,1,46,110,369.0,0.239583,Sixteenth,A#2
2433,Right,0,67,110,369.0,0.489583,Eighth,G4
2434,Left,1,48,110,369.25,0.239583,Sixteenth,C3
2436,Left,1,46,110,369.5,0.239583,Sixteenth,A#2
2435,Right,0,53,110,369.5,0.489583,Eighth,F4_F3
2438,Left,1,44,110,369.75,0.239583,Sixteenth,G#2
2440,Left,1,43,110,370.0,0.239583,Sixteenth,G2
2439,Right,0,70,110,370.0,0.489583,Eighth,A#4_A#3
2442,Left,1,44,110,370.25,0.239583,Sixteenth,G#2
2443,Left,1,43,110,370.5,0.239583,Sixteenth,G2
2444,Right,0,68,110,370.5,0.489583,Eighth,G#4_G#3
2446,Left,1,41,110,370.75,0.239583,Sixteenth,F2
2449,Left,1,43,110,371.0,0.239583,Sixteenth,G2
2447,Right,0,70,110,371.0,0.489583,Eighth,A#4_A#3
2450,Left,1,44,110,371.25,0.239583,Sixteenth,G#2
2451,Right,0,61,110,371.5,0.489583,Eighth,C#5_C#4
2452,Left,1,43,110,371.5,0.239583,Sixteenth,G2
2454,Left,1,41,110,371.75,0.239583,Sixteenth,F2
2455,Left,1,40,110,372.0,0.239583,Sixteenth,E2
2456,Right,0,60,110,372.0,0.489583,Eighth,C5_C4
2458,Left,1,43,110,372.25,0.239583,Sixteenth,G2
2461,Left,1,46,110,372.5,0.239583,Sixteenth,A#2
2459,Right,0,67,110,372.5,0.489583,Eighth,G4_G3
2462,Left,1,49,110,372.75,0.239583,Sixteenth,C#3
2463,Left,1,48,110,373.0,0.239583,Sixteenth,C3
2464,Left,1,49,110,373.25,0.239583,Sixteenth,C#3
2467,Left,1,48,110,373.5,0.239583,Sixteenth,C3
2465,Right,0,67,110,373.5,0.489583,Eighth,G4_G3
2468,Left,1,46,110,373.75,0.239583,Sixteenth,A#2
2471,Left,1,44,110,374.0,0.239583,Sixteenth,G#2
2469,Right,0,72,110,374.0,0.489583,Eighth,C5_C4
2472,Left,1,46,110,374.25,0.239583,Sixteenth,A#2
2474,Right,0,58,110,374.5,0.489583,Eighth,A#4_A#3
2473,Left,1,44,110,374.5,0.239583,Sixteenth,G#2
2476,Left,1,43,110,374.75,0.239583,Sixteenth,G2
2477,Left,1,44,110,375.0,0.239583,Sixteenth,G#2
2478,Right,0,60,110,375.0,0.489583,Eighth,C5_C4
2480,Left,1,46,110,375.25,0.239583,Sixteenth,A#2
2482,Right,0,75,110,375.5,0.489583,Eighth,D#5_D#4
2481,Left,1,44,110,375.5,0.239583,Sixteenth,G#2
2484,Left,1,42,110,375.75,0.239583,Sixteenth,F#2
2486,Right,0,63,110,376.0,0.489583,Eighth,D#5_D#4
2485,Left,1,41,110,376.0,0.239583,Sixteenth,F2
2488,Left,1,45,110,376.25,0.239583,Sixteenth,A2
2490,Left,1,48,110,376.5,0.239583,Sixteenth,C3
2489,Right,0,57,110,376.5,0.489583,Eighth,A4_A3
2492,Left,1,51,110,376.75,0.239583,Sixteenth,D#3
2493,Left,1,49,110,377.0,0.239583,Sixteenth,C#3
2494,Left,1,51,110,377.25,0.239583,Sixteenth,D#3
2495,Left,1,50,110,377.5,0.239583,Sixteenth,D3
2496,Right,0,70,110,377.5,0.489583,Eighth,A#4_A#3
2498,Left,1,48,110,377.75,0.239583,Sixteenth,C3
2501,Left,1,46,110,378.0,0.239583,Sixteenth,A#2
2499,Right,0,73,110,378.0,0.489583,Eighth,C#5_C#4
2502,Left,1,48,110,378.25,0.239583,Sixteenth,C3
2504,Left,1,46,110,378.5,0.239583,Sixteenth,A#2
2503,Right,0,60,110,378.5,0.489583,Eighth,C5_C4
2506,Left,1,45,110,378.75,0.239583,Sixteenth,A2
2508,Right,0,61,110,379.0,0.489583,Eighth,C#5_C#4
2507,Left,1,46,110,379.0,0.239583,Sixteenth,A#2
2510,Left,1,48,110,379.25,0.239583,Sixteenth,C3
2511,Right,0,65,110,379.5,0.489583,Eighth,F5_F4
2513,Left,1,46,110,379.5,0.239583,Sixteenth,A#2
2514,Left,1,44,110,379.75,0.239583,Sixteenth,G#2
2515,Right,0,75,110,380.0,0.489583,Eighth,D#5_D#4
2517,Left,1,43,110,380.0,0.239583,Sixteenth,G2
2518,Left,1,46,110,380.25,0.239583,Sixteenth,A#2
2519,Right,0,70,110,380.5,0.239583,Sixteenth,A#4
2520,Left,1,50,110,380.5,0.239583,Sixteenth,D3
2522,Left,1,53,110,380.75,0.239583,Sixteenth,F3
2521,Right,0,68,110,380.75,0.239583,Sixteenth,G#4
2523,Right,0,67,110,381.0,0.239583,Sixteenth,G4
2524,Left,1,51,110,381.0,0.239583,Sixteenth,D#3
2526,Right,0,63,110,381.25,0.239583,Sixteenth,D#4
2525,Left,1,53,110,381.25,0.239583,Sixteenth,F3
2528,Right,0,65,110,381.5,0.239583,Sixteenth,F4
2527,Left,1,51,110,381.5,0.239583,Sixteenth,D#3
2529,Left,1,49,110,381.75,0.239583,Sixteenth,C#3
2530,Right,0,67,110,381.75,0.239583,Sixteenth,G4
2531,Left,1,48,110,382.0,0.239583,Sixteenth,C3
2532,Right,0,68,110,382.0,0.239583,Sixteenth,G#4
2534,Left,1,49,110,382.25,0.239583,Sixteenth,C#3
2533,Right,0,67,110,382.25,0.239583,Sixteenth,G4
2535,Left,1,48,110,382.5,0.239583,Sixteenth,C3
2536,Right,0,68,110,382.5,0.239583,Sixteenth,G#4
2538,Right,0,70,110,382.75,0.239583,Sixteenth,A#4
2537,Left,1,46,110,382.75,0.239583,Sixteenth,A#2
2541,Left,1,44,110,383.0,0.989583,Quarter,G#2
2539,Right,0,80,110,383.0,0.989583,Quarter,G#5_C5
2542,Right,0,73,110,383.25,0.239583,Sixteenth,C#5
2543,Right,0,72,110,383.5,0.239583,Sixteenth,C5
2544,Right,0,70,110,383.75,0.239583,Sixteenth,A#4
2545,Left,1,68,110,384.0,0.239583,Sixteenth,G#4
2546,Right,0,84,110,384.0,0.989583,Quarter,C6
2547,Left,1,72,110,384.25,0.239583,Sixteenth,C5
2548,Left,1,70,110,384.5,0.239583,Sixteenth,A#4
2549,Left,1,68,110,384.75,0.239583,Sixteenth,G#4
2551,Right,0,79,110,385.0,1.239583,TiedQuarter-Sixteenth,G5
2550,Left,1,70,110,385.0,0.239583,Sixteenth,A#4
2552,Left,1,68,110,385.25,0.239583,Sixteenth,G#4
2553,Left,1,67,110,385.5,0.239583,Sixteenth,G4
2554,Left,1,65,110,385.75,0.239583,Sixteenth,F4
2555,Left,1,63,110,386.0,0.239583,Sixteenth,D#4
2556,Right,0,82,110,386.25,0.239583,Sixteenth,A#5
2557,Left,1,67,110,386.25,0.239583,Sixteenth,G4
2559,Left,1,70,110,386.5,0.239583,Sixteenth,A#4
2558,Right,0,85,110,386.5,0.239583,Sixteenth,C#6
2561,Right,0,89,110,386.75,0.239583,Sixteenth,F6
2560,Left,1,73,110,386.75,0.239583,Sixteenth,C#5
2563,Left,1,72,110,387.0,0.489583,Eighth,C5
2562,Right,0,87,110,387.0,0.239583,Sixteenth,D#6
2564,Right,0,89,110,387.25,0.239583,Sixteenth,F6
2565,Left,1,55,110,387.5,0.489583,Eighth,G4_G3
2567,Right,0,87,110,387.5,0.239583,Sixteenth,D#6
2568,Right,0,85,110,387.75,0.239583,Sixteenth,C#6
2571,Right,0,84,110,388.0,0.239583,Sixteenth,C6
2569,Left,1,56,110,388.0,0.489583,Eighth,G#4_G#3
2572,Right,0,85,110,388.25,0.239583,Sixteenth,C#6
2574,Left,1,67,110,388.5,0.489583,Eighth,G4_G3
2573,Right,0,84,110,388.5,0.239583,Sixteenth,C6
2576,Right,0,82,110,388.75,0.239583,Sixteenth,A#5
2579,Right,0,84,110,389.0,0.239583,Sixteenth,C6
2577,Left,1,56,110,389.0,0.489583,Eighth,G#4_G#3
2580,Right,0,85,110,389.25,0.239583,Sixteenth,C#6
2581,Right,0,84,110,389.5,0.239583,Sixteenth,C6
2582,Left,1,73,110,389.5,0.489583,Eighth,C#5_C#4
2584,Right,0,82,110,389.75,0.239583,Sixteenth,A#5
2585,Left,1,60,110,390.0,0.489583,Eighth,C5_C4
2586,Right,0,81,110,390.0,0.239583,Sixteenth,A5
2588,Right,0,84,110,390.25,0.239583,Sixteenth,C6
2589,Left,1,69,110,390.5,0.489583,Eighth,A4_A3
2591,Right,0,87,110,390.5,0.239583,Sixteenth,D#6
2592,Right,0,90,110,390.75,0.239583,Sixteenth,F#6
2593,Right,0,89,110,391.0,0.239583,Sixteenth,F6
2594,Right,0,90,110,391.25,0.239583,Sixteenth,F#6
2596,Right,0,89,110,391.5,0.239583,Sixteenth,F6
2595,Left,1,69,110,391.5,0.489583,Eighth,A4
2597,Left,1,57,110,391.541667,0.489583,Eighth,A3
2598,Right,0,87,110,391.75,0.239583,Sixteenth,D#6
2599,Left,1,58,110,392.0,0.489583,Eighth,A#4_A#3
2601,Right,0,85,110,392.0,0.239583,Sixteenth,C#6
2602,Right,0,87,110,392.25,0.239583,Sixteenth,D#6
2603,Left,1,57,110,392.5,0.489583,Eighth,A4_A3
2605,Right,0,85,110,392.5,0.239583,Sixteenth,C#6
2606,Right,0,84,110,392.75,0.239583,Sixteenth,C6
2607,Right,0,85,110,393.0,0.239583,Sixteenth,C#6
2608,Left,1,70,110,393.0,0.489583,Eighth,A#4_A#3
2610,Right,0,87,110,393.25,0.239583,Sixteenth,D#6
2611,Left,1,75,110,393.5,0.489583,Eighth,D#5_D#4
2613,Right,0,85,110,393.5,0.239583,Sixteenth,C#6
2614,Right,0,84,110,393.75,0.239583,Sixteenth,C6
2616,Left,1,73,110,394.0,0.489583,Eighth,C#5_C#4
2615,Right,0,82,110,394.0,0.239583,Sixteenth,A#5
2618,Right,0,85,110,394.25,0.239583,Sixteenth,C#6
2619,Left,1,70,110,394.5,0.489583,Eighth,A#4_A#3
2621,Right,0,89,110,394.5,0.239583,Sixteenth,F6
2622,Right,0,92,110,394.75,0.239583,Sixteenth,G#6
2623,Right,0,90,110,395.0,0.239583,Sixteenth,F#6
2624,Right,0,92,110,395.25,0.239583,Sixteenth,G#6
2625,Left,1,70,110,395.5,0.489583,Eighth,A#4_A#3
2626,Right,0,90,110,395.5,0.239583,Sixteenth,F#6
2628,Right,0,89,110,395.75,0.239583,Sixteenth,F6
2629,Left,1,72,110,396.0,0.489583,Eighth,C5_C4
2630,Right,0,87,110,396.0,0.239583,Sixteenth,D#6
2632,Right,0,89,110,396.25,0.239583,Sixteenth,F6
2633,Left,1,58,110,396.5,0.489583,Eighth,A#4_A#3
2635,Right,0,87,110,396.5,0.239583,Sixteenth,D#6
2636,Right,0,85,110,396.75,0.239583,Sixteenth,C#6
2638,Left,1,60,110,397.0,0.489583,Eighth,C5_C4
2637,Right,0,87,110,397.0,0.239583,Sixteenth,D#6
2640,Right,0,89,110,397.25,0.239583,Sixteenth,F6
2643,Right,0,87,110,397.5,0.239583,Sixteenth,D#6
2641,Left,1,65,110,397.5,0.489583,Eighth,F5_F4
2644,Right,0,85,110,397.75,0.239583,Sixteenth,C#6
2646,Right,0,84,110,398.0,0.239583,Sixteenth,C6
2645,Left,1,63,110,398.0,0.489583,Eighth,D#5_D#4
2648,Right,0,87,110,398.25,0.239583,Sixteenth,D#6
2649,Left,1,60,110,398.5,0.489583,Eighth,C5_C4
2651,Right,0,90,110,398.5,0.239583,Sixteenth,F#6
2652,Right,0,94,110,398.75,0.239583,Sixteenth,A#6
2653,Right,0,92,110,399.0,0.239583,Sixteenth,G#6
2654,Right,0,94,110,399.25,0.239583,Sixteenth,A#6
2656,Left,1,32,110,399.5,0.489583,Eighth,G#2_G#1
2655,Right,0,92,110,399.5,0.239583,Sixteenth,G#6
2658,Right,0,90,110,399.75,0.239583,Sixteenth,F#6
2661,Right,0,89,110,400.0,0.239583,Sixteenth,F6
2659,Left,1,34,110,400.0,0.489583,Eighth,A#2_A#1
2662,Right,0,90,110,400.25,0.239583,Sixteenth,F#6
2664,Left,1,48,110,400.5,0.489583,Eighth,C3_C2
2663,Right,0,89,110,400.5,0.239583,Sixteenth,F6
2666,Right,0,87,110,400.75,0.239583,Sixteenth,D#6
2667,Right,0,89,120,401.0,3.989583,Whole,F6
2668,Left,1,49,120,401.0,0.489583,Eighth,F3_C#3
2670,Left,1,56,120,401.25,0.489583,Eighth,G#3
2671,Left,1,49,120,401.5,0.489583,Eighth,F3_C#3
2673,Left,1,56,120,401.75,0.489583,Eighth,G#3
2674,Left,1,49,120,402.0,0.489583,Eighth,F3_C#3
2676,Left,1,56,120,402.25,0.489583,Eighth,G#3
2677,Left,1,49,120,402.5,0.489583,Eighth,F3_C#3
2679,Left,1,56,120,402.75,0.489583,Eighth,G#3
2681,Right,0,37,120,403.0,1.989583,Half,C#2
2680,Left,1,53,120,403.0,0.489583,Eighth,F3_C#3
2683,Left,1,56,120,403.25,0.489583,Eighth,G#3
2684,Left,1,49,120,403.5,0.489583,Eighth,F3_C#3
2686,Left,1,56,120,403.75,0.489583,Eighth,G#3
2687,Left,1,53,120,404.0,0.489583,Eighth,F3_C#3
2689,Left,1,56,120,404.25,0.489583,Eighth,G#3
2690,Left,1,49,120,404.5,0.489583,Eighth,F3_C#3
2692,Left,1,56,120,404.75,0.239583,Sixteenth,G#3
2696,Right,0,38,120,405.0,3.989583,Whole,D2
2693,Left,1,53,120,405.0,0.489583,Eighth,G#3_F3_D3
2697,Left,1,59,120,405.25,0.489583,Eighth,B3
2698,Left,1,56,120,405.5,0.489583,Eighth,G#3_F3_D3
2701,Left,1,59,120,405.75,0.489583,Eighth,B3
2702,Left,1,56,120,406.0,0.489583,Eighth,G#3_F3_D3
2705,Left,1,59,120,406.25,0.489583,Eighth,B3
2706,Left,1,56,120,406.5,0.489583,Eighth,G#3_F3_D3
2709,Left,1,59,120,406.75,0.489583,Eighth,B3
2713,Right,0,95,120,407.0,1.989583,Half,B6
2710,Left,1,56,120,407.0,0.489583,Eighth,G#3_F3_D3
2714,Left,1,59,120,407.25,0.489583,Eighth,B3
2715,Left,1,53,120,407.5,0.489583,Eighth,G#3_F3_D3
2718,Left,1,59,120,407.75,0.489583,Eighth,B3
2719,Left,1,50,120,408.0,0.489583,Eighth,G#3_F3_D3
2722,Left,1,59,120,408.25,0.489583,Eighth,B3
2723,Left,1,50,120,408.5,0.489583,Eighth,G#3_F3_D3
2726,Left,1,59,120,408.75,0.239583,Sixteenth,B3
2727,Left,1,39,120,409.0,3.989583,Whole,D#2
2728,Right,0,87,120,410.0,2.989583,DottedHalf,D#6
2729,Right,0,84,80,412.0,0.989583,Quarter,C6
2730,Left,1,63,80,412.75,0.239583,Sixteenth,D#4_D#3_C4
2731,Right,0,80,80,412.75,0.239583,Sixteenth,G#5
2734,Left,1,51,80,413.0,1.489583,DottedQuarter,D#3_C#4_A#3
2737,Right,0,80,80,413.0,0.989583,Quarter,G#5
2738,Right,0,79,80,414.0,0.489583,Eighth,G5
2740,Left,1,60,80,414.75,0.239583,Sixteenth,G#3_D#3_C4
2739,Right,0,77,80,414.75,0.239583,Sixteenth,F5
2743,Right,0,77,80,415.0,0.989583,Quarter,F5
2744,Left,1,60,80,415.0,0.989583,Quarter,G#3_D#3_C4
2750,Right,0,75,80,416.0,0.489583,Eighth,D#5
2747,Left,1,58,80,416.0,0.489583,Eighth,G3_D#3_A#3
2752,Right,0,73,80,416.75,0.239583,Sixteenth,G5_C#6_C#5
2751,Left,1,58,80,416.75,0.239583,Sixteenth,G3_A#3
2756,Left,1,58,80,417.0,0.989583,Quarter,G3_D#3_A#3
2758,Right,0,85,80,417.0,0.989583,Quarter,G5_C#6_C#5
2762,Left,1,60,80,418.0,0.989583,Quarter,G#3_D#3_C4
2765,Right,0,84,80,418.0,0.989583,Quarter,G#5_C6_C5
2768,Right,0,87,80,419.083333,0.072917,TripletThirtySecond,D#6
2769,Right,0,86,80,419.166667,0.072917,TripletThirtySecond,D6
2770,Right,0,87,80,419.25,0.072917,TripletThirtySecond,D#6
2771,Right,0,89,80,419.333333,0.072917,TripletThirtySecond,F6
2772,Right,0,87,80,419.416667,0.072917,TripletThirtySecond,D#6
2773,Right,0,83,80,419.5,0.072917,TripletThirtySecond,B5
2774,Right,0,84,80,419.583333,0.072917,TripletThirtySecond,C6
2775,Right,0,83,80,419.666667,0.072917,TripletThirtySecond,B5
2776,Right,0,84,80,419.75,0.072917,TripletThirtySecond,C6
2777,Right,0,85,80,419.833333,0.072917,TripletThirtySecond,C#6
2778,Right,0,84,80,419.916667,0.072917,TripletThirtySecond,C6
2779,Right,0,79,80,420.0,0.15625,TripletSixteenth,G5
2780,Right,0,80,80,420.166667,0.15625,TripletSixteenth,G#5
2781,Right,0,82,80,420.333333,0.15625,TripletSixteenth,A#5
2782,Right,0,80,80,420.5,0.15625,TripletSixteenth,G#5
2783,Right,0,79,80,420.666667,0.15625,TripletSixteenth,G5
2784,Right,0,80,80,420.833333,0.15625,TripletSixteenth,G#5
2785,Left,1,61,80,421.0,1.489583,DottedQuarter,D#3_C#4_A#3
2788,Right,0,80,80,421.0,0.1875,TripletSixteenth,G#5
2789,Right,0,79,80,421.197917,0.1875,TripletSixteenth,G5
2790,Right,0,80,80,421.395833,0.1875,TripletSixteenth,G#5
2791,Right,0,82,80,421.59375,0.1875,TripletSixteenth,A#5
2792,Right,0,80,80,421.791667,0.1875,TripletSixteenth,G#5
2793,Right,0,79,80,422.0,0.489583,Eighth,G5
2794,Left,1,60,80,422.75,0.239583,Sixteenth,G#3_D#3_C4
2795,Right,0,77,80,422.75,0.239583,Sixteenth,F5
2800,Right,0,77,80,423.0,0.1875,TripletSixteenth,F5
2798,Left,1,55,80,423.0,1.489583,DottedQuarter,G3_D#3_A#3
2802,Right,0,75,80,423.197917,0.1875,TripletSixteenth,D#5
2803,Right,0,77,80,423.395833,0.1875,TripletSixteenth,F5
2804,Right,0,79,80,423.59375,0.1875,TripletSixteenth,G5
2805,Right,0,77,80,423.791667,0.1875,TripletSixteenth,F5
2806,Right,0,75,80,424.0,0.489583,Eighth,D#5
2807,Left,1,52,80,424.75,0.239583,Sixteenth,G3_E3_A#3
2810,Right,0,85,80,424.75,0.239583,Sixteenth,G5_C#6_C#5
2816,Left,1,58,80,425.0,0.989583,Quarter,G3_E3_A#3
2813,Right,0,85,80,425.0,0.989583,Quarter,G5_C#6_C#5
2819,Right,0,80,80,426.0,0.989583,Quarter,G#5_C6_C5
2821,Left,1,56,80,426.0,0.989583,Quarter,G#3_F3
2824,Right,0,89,80,428.75,0.239583,Sixteenth,G5_F6_A#5
2827,Left,1,61,80,428.75,0.239583,Sixteenth,G4_C#4_A#4
2832,Right,0,79,80,429.0,0.989583,Quarter,G5_F6_A#5
2830,Left,1,70,80,429.0,0.989583,Quarter,G4_C#4_A#4
2836,Left,1,60,80,430.0,0.989583,Quarter,G#4_C5_C4
2837,Right,0,80,80,430.0,0.989583,Quarter,G#5_D#6_D#5
2842,Left,1,71,120,432.5,0.489583,Eighth,G#4_F4_D4_B4
2846,Right,0,92,120,432.5,0.239583,Sixteenth,G#6
2847,Right,0,95,120,432.75,0.239583,Sixteenth,B6
2850,Right,0,92,120,433.0,0.239583,Sixteenth,G#6
2848,Left,1,71,120,433.0,0.489583,Eighth,G#4_F4_D4_B4
2853,Right,0,95,120,433.25,0.239583,Sixteenth,B6
2854,Right,0,89,120,433.5,0.239583,Sixteenth,F6
2855,Left,1,77,120,433.5,0.239583,Sixteenth,F5
2856,Right,0,92,120,433.75,0.239583,Sixteenth,G#6
2857,Left,1,80,120,433.75,0.239583,Sixteenth,G#5
2858,Right,0,86,120,434.0,0.239583,Sixteenth,D6
2859,Left,1,74,120,434.0,0.239583,Sixteenth,D5
2860,Right,0,89,120,434.25,0.239583,Sixteenth,F6
2861,Left,1,77,120,434.25,0.239583,Sixteenth,F5
2862,Left,1,71,120,434.5,0.239583,Sixteenth,B4
2863,Right,0,83,120,434.5,0.239583,Sixteenth,B5
2864,Left,1,74,120,434.75,0.239583,Sixteenth,D5
2865,Right,0,86,120,434.75,0.239583,Sixteenth,D6
2867,Left,1,68,120,435.0,0.239583,Sixteenth,G#4
2866,Right,0,80,120,435.0,0.239583,Sixteenth,G#5
2868,Right,0,83,120,435.25,0.239583,Sixteenth,B5
2869,Left,1,71,120,435.25,0.239583,Sixteenth,B4
2871,Right,0,77,120,435.5,0.239583,Sixteenth,F5
2870,Left,1,65,120,435.5,0.239583,Sixteenth,F4
2872,Left,1,68,120,435.75,0.239583,Sixteenth,G#4
2873,Right,0,80,120,435.75,0.239583,Sixteenth,G#5
2874,Right,0,74,120,436.0,0.239583,Sixteenth,D5
2875,Left,1,62,120,436.0,0.239583,Sixteenth,D4
2876,Right,0,77,120,436.25,0.239583,Sixteenth,F5
2877,Left,1,65,120,436.25,0.239583,Sixteenth,F4
2878,Right,0,71,120,436.5,0.239583,Sixteenth,B4
2879,Left,1,59,120,436.5,0.239583,Sixteenth,B3
2880,Left,1,62,120,436.75,0.239583,Sixteenth,D4
2881,Right,0,74,120,436.75,0.239583,Sixteenth,D5
2882,Left,1,56,120,437.0,0.239583,Sixteenth,G#3
2883,Right,0,68,120,437.0,0.239583,Sixteenth,G#4
2885,Right,0,71,120,437.25,0.239583,Sixteenth,B4
2884,Left,1,59,120,437.25,0.239583,Sixteenth,B3
2887,Right,0,65,120,437.5,0.239583,Sixteenth,F4
2886,Left,1,53,120,437.5,0.239583,Sixteenth,F3
2889,Left,1,56,120,437.75,0.239583,Sixteenth,G#3
2888,Right,0,68,120,437.75,0.239583,Sixteenth,G#4
2890,Left,1,50,80,438.0,0.239583,Sixteenth,D3
2891,Right,0,62,80,438.0,0.239583,Sixteenth,D4
2892,Left,1,51,83,438.25,0.239583,Sixteenth,D#3
2893,Right,0,63,83,438.25,0.239583,Sixteenth,D#4
2895,Left,1,53,87,438.5,0.239583,Sixteenth,F3
2894,Right,0,65,87,438.5,0.239583,Sixteenth,F4
2896,Right,0,67,90,438.75,0.239583,Sixteenth,G4
2897,Left,1,55,90,438.75,0.239583,Sixteenth,G3
2899,Right,0,68,94,439.0,0.239583,Sixteenth,G#4
2898,Left,1,56,94,439.0,0.239583,Sixteenth,G#3
2901,Right,0,70,98,439.25,0.239583,Sixteenth,A#4
2900,Left,1,58,98,439.25,0.239583,Sixteenth,A#3
2902,Right,0,72,101,439.5,0.239583,Sixteenth,C5
2903,Left,1,60,101,439.5,0.239583,Sixteenth,C4
2905,Left,1,61,105,439.75,0.239583,Sixteenth,C#4
2904,Right,0,73,105,439.75,0.239583,Sixteenth,C#5
2906,Right,0,75,108,440.0,0.239583,Sixteenth,D#5
2907,Left,1,63,108,440.0,0.239583,Sixteenth,D#4
2908,Right,0,76,112,440.25,0.239583,Sixteenth,E5
2909,Left,1,64,112,440.25,0.239583,Sixteenth,E4
2911,Right,0,77,116,440.5,0.239583,Sixteenth,F5
2910,Left,1,65,116,440.5,0.239583,Sixteenth,F4
2913,Left,1,63,119,440.75,0.239583,Sixteenth,D#4
2912,Right,0,75,119,440.75,0.239583,Sixteenth,D#5
2914,Right,0,77,120,441.0,0.239583,Sixteenth,F5
2915,Left,1,44,120,441.0,0.989583,Quarter,G#2_G#1
2917,Right,0,75,120,441.208333,0.239583,Sixteenth,D#5
2918,Right,0,72,120,441.5,0.239583,Sixteenth,C5
2919,Right,0,68,120,441.75,0.239583,Sixteenth,G#4
2920,Left,1,48,120,442.0,0.989583,Quarter,C3_C2
2921,Right,0,77,120,442.0,0.239583,Sixteenth,F5
2923,Right,0,75,120,442.25,0.239583,Sixteenth,D#5
2924,Right,0,72,120,442.5,0.239583,Sixteenth,C5
2925,Right,0,68,120,442.75,0.239583,Sixteenth,G#4
2926,Left,1,43,120,443.0,1.989583,Half,G2_G1
2927,Right,0,77,120,443.0,0.239583,Sixteenth,F5
2929,Right,0,75,120,443.25,0.239583,Sixteenth,D#5
2930,Right,0,73,120,443.5,0.239583,Sixteenth,C#5
2931,Right,0,70,120,443.75,0.239583,Sixteenth,A#4
2932,Right,0,77,120,444.0,0.239583,Sixteenth,F5
2933,Right,0,75,120,444.25,0.239583,Sixteenth,D#5
2934,Right,0,73,120,444.5,0.239583,Sixteenth,C#5
2935,Right,0,70,120,444.75,0.239583,Sixteenth,A#4
2937,Left,1,42,120,445.0,0.989583,Quarter,F#2_F#1
2936,Right,0,82,120,445.0,0.239583,Sixteenth,A#5
2939,Right,0,80,120,445.25,0.239583,Sixteenth,G#5
2940,Right,0,75,120,445.5,0.239583,Sixteenth,D#5
2941,Right,0,72,120,445.75,0.239583,Sixteenth,C5
2942,Left,1,32,120,446.0,0.989583,Quarter,G#2_G#1
2944,Right,0,82,120,446.0,0.239583,Sixteenth,A#5
2945,Right,0,80,120,446.25,0.239583,Sixteenth,G#5
2946,Right,0,75,120,446.5,0.239583,Sixteenth,D#5
2947,Right,0,72,120,446.75,0.239583,Sixteenth,C5
2948,Right,0,82,120,447.0,0.239583,Sixteenth,A#5
2949,Left,1,41,120,447.0,1.989583,Half,F2_F1
2951,Right,0,80,120,447.25,0.239583,Sixteenth,G#5
2952,Right,0,77,120,447.5,0.239583,Sixteenth,F5
2953,Right,0,73,120,447.75,0.239583,Sixteenth,C#5
2954,Right,0,87,120,448.0,0.239583,Sixteenth,D#6
2955,Right,0,85,120,448.25,0.239583,Sixteenth,C#6
2956,Right,0,80,120,448.5,0.239583,Sixteenth,G#5
2957,Right,0,73,120,448.75,0.239583,Sixteenth,C#5
2959,Left,1,40,120,449.0,0.989583,Quarter,E2_E1
2958,Right,0,87,120,449.0,0.239583,Sixteenth,D#6
2961,Right,0,85,120,449.25,0.239583,Sixteenth,C#6
2962,Right,0,80,120,449.5,0.239583,Sixteenth,G#5
2963,Right,0,73,120,449.75,0.239583,Sixteenth,C#5
2964,Right,0,87,120,450.0,0.239583,Sixteenth,D#6
2965,Left,1,43,120,450.0,0.989583,Quarter,G2_G1
2967,Right,0,85,120,450.25,0.239583,Sixteenth,C#6
2968,Right,0,80,120,450.5,0.239583,Sixteenth,G#5
2969,Right,0,73,120,450.75,0.239583,Sixteenth,C#5
2970,Right,0,85,120,451.0,0.239583,Sixteenth,C#6
2971,Left,1,39,120,451.0,0.989583,Quarter,D#2_D#1
2973,Right,0,84,120,451.25,0.239583,Sixteenth,C6
2974,Right,0,80,120,451.5,0.239583,Sixteenth,G#5
2975,Right,0,75,120,451.75,0.239583,Sixteenth,D#5
2976,Left,1,32,120,452.0,0.739583,DottedEighth,G#2_G#1
2978,Right,0,85,120,452.0,0.239583,Sixteenth,C#6
2979,Right,0,84,120,452.25,0.239583,Sixteenth,C6
2980,Right,0,80,120,452.5,0.239583,Sixteenth,G#5
2981,Left,1,48,120,452.75,0.239583,Sixteenth,C3_C2
2983,Right,0,75,120,452.75,0.239583,Sixteenth,D#5
2985,Left,1,51,120,453.0,0.989583,Quarter,D#3_D#2
2984,Right,0,85,120,453.0,0.239583,Sixteenth,C#6
2987,Right,0,84,120,453.25,0.239583,Sixteenth,C6
2988,Right,0,80,120,453.5,0.239583,Sixteenth,G#5
2989,Right,0,75,120,453.75,0.239583,Sixteenth,D#5
2991,Left,1,27,120,454.0,0.989583,Quarter,D#2_D#1
2990,Right,0,84,120,454.0,0.239583,Sixteenth,C6
2993,Right,0,82,120,454.25,0.239583,Sixteenth,A#5
2994,Right,0,79,120,454.5,0.239583,Sixteenth,G5
2995,Right,0,73,120,454.75,0.239583,Sixteenth,C#5
2996,Right,0,75,120,455.0,0.989583,Eighth,G#5_D#5_C5
2999,Left,1,60,120,455.25,0.239583,Sixteenth,C4
3000,Right,0,72,120,455.5,0.489583,Eighth,D#5_C5
3002,Left,1,58,120,455.5,0.239583,Sixteenth,A#3
3003,Left,1,56,120,455.75,0.239583,Sixteenth,G#3
3004,Right,0,84,120,456.0,0.989583,Eighth,D#5_C6_C5
3006,Left,1,55,120,456.0,0.239583,Sixteenth,G3
3008,Left,1,56,120,456.25,0.239583,Sixteenth,G#3
3009,Right,0,75,120,456.5,0.489583,Eighth,D#5_C5
3011,Left,1,58,120,456.5,0.239583,Sixteenth,A#3
3012,Left,1,56,120,456.75,0.239583,Sixteenth,G#3
3013,Right,0,75,120,457.0,1.989583,Eighth,G5_D#5_A#4
3016,Left,1,67,120,457.25,0.239583,Sixteenth,G4
3017,Right,0,75,120,457.5,0.489583,Eighth,D#5_A#4
3019,Left,1,65,120,457.5,0.239583,Sixteenth,F4
3020,Left,1,63,120,457.75,0.239583,Sixteenth,D#4
3022,Right,0,70,120,458.0,0.489583,Eighth,D#5_A#4
3021,Left,1,62,120,458.0,0.239583,Sixteenth,D4
3024,Left,1,63,120,458.25,0.239583,Sixteenth,D#4
3025,Left,1,65,120,458.5,0.239583,Sixteenth,F4
3026,Right,0,75,120,458.5,0.489583,Eighth,D#5_A#4
3028,Left,1,63,120,458.75,0.239583,Sixteenth,D#4
3029,Right,0,68,120,459.0,0.989583,Eighth,G#4_F#5_D#5
3032,Left,1,51,120,459.25,0.239583,Sixteenth,D#3
3034,Right,0,75,120,459.5,0.489583,Eighth,G#4_D#5
3033,Left,1,49,120,459.5,0.239583,Sixteenth,C#3
3036,Left,1,48,120,459.75,0.239583,Sixteenth,C3
3037,Right,0,80,120,460.0,0.989583,Eighth,G#5_G#4_D#5
3038,Left,1,47,120,460.0,0.239583,Sixteenth,B2
3041,Left,1,48,120,460.25,0.239583,Sixteenth,C3
3043,Right,0,68,120,460.5,0.489583,Eighth,G#4_D#5
3042,Left,1,49,120,460.5,0.239583,Sixteenth,C#3
3045,Left,1,48,120,460.75,0.239583,Sixteenth,C3
3046,Right,0,77,120,461.0,1.989583,Eighth,G#4_F5_C#5
3049,Left,1,65,120,461.25,0.239583,Sixteenth,F4
3050,Left,1,63,120,461.5,0.239583,Sixteenth,D#4
3051,Right,0,73,120,461.5,0.489583,Eighth,G#4_C#5
3053,Left,1,61,120,461.75,0.239583,Sixteenth,C#4
3055,Right,0,68,120,462.0,0.489583,Eighth,G#4_C#5
3054,Left,1,60,120,462.0,0.239583,Sixteenth,C4
3057,Left,1,61,120,462.25,0.239583,Sixteenth,C#4
3059,Right,0,68,120,462.5,0.489583,Eighth,G#4_C#5
3058,Left,1,63,120,462.5,0.239583,Sixteenth,D#4
3061,Left,1,61,120,462.75,0.239583,Sixteenth,C#4
3062,Right,0,76,120,463.0,0.989583,Eighth,G#4_E5_C#5
3065,Left,1,37,120,463.25,0.239583,Sixteenth,C#2
3066,Right,0,73,120,463.5,0.489583,Eighth,G#4_C#5
3068,Left,1,39,120,463.5,0.239583,Sixteenth,D#2
3069,Left,1,40,120,463.75,0.239583,Sixteenth,E2
3070,Left,1,39,120,464.0,0.239583,Sixteenth,D#2
3071,Right,0,73,120,464.0,0.989583,Eighth,G#5_G#4_C#5
3074,Left,1,37,120,464.25,0.239583,Sixteenth,C#2
3076,Right,0,73,120,464.5,0.489583,Eighth,G#4_C#5
3075,Left,1,36,120,464.5,0.239583,Sixteenth,C2
3078,Left,1,37,120,464.75,0.239583,Sixteenth,C#2
3081,Left,1,38,120,465.0,0.239583,Sixteenth,D2
3079,Right,0,72,120,465.0,0.989583,Quarter,G#4_D#5_C5
3083,Left,1,39,120,465.25,0.239583,Sixteenth,D#2
3084,Left,1,41,120,465.5,0.239583,Sixteenth,F2
3085,Left,1,39,120,465.75,0.239583,Sixteenth,D#2
3088,Left,1,37,120,466.0,0.239583,Sixteenth,C#2
3086,Right,0,68,120,466.0,0.739583,DottedEighth,G#5_G#4
3089,Left,1,36,120,466.25,0.239583,Sixteenth,C2
3090,Left,1,34,120,466.5,0.239583,Sixteenth,A#1
3091,Left,1,32,120,466.75,0.239583,Sixteenth,G#1
3092,Right,0,84,120,466.75,0.239583,Sixteenth,C6_C5
3094,Right,0,87,120,467.0,0.489583,Eighth,D#6_D#5
3095,Left,1,31,120,467.0,0.239583,Sixteenth,G1
3097,Left,1,32,120,467.25,0.239583,Sixteenth,G#1
3099,Right,0,87,120,467.5,0.489583,Eighth,D#6
3098,Left,1,34,120,467.5,0.239583,Sixteenth,A#1
3100,Left,1,36,120,467.75,0.239583,Sixteenth,C2
3101,Left,1,37,120,468.0,0.239583,Sixteenth,C#2
3102,Right,0,87,120,468.0,0.239583,Sixteenth,D#6
3103,Right,0,89,120,468.125,0.239583,Sixteenth,F6
3105,Left,1,36,120,468.25,0.239583,Sixteenth,C2
3104,Right,0,87,120,468.25,0.239583,Sixteenth,D#6
3106,Right,0,89,120,468.375,0.239583,Sixteenth,F6
3108,Left,1,37,120,468.5,0.239583,Sixteenth,C#2
3107,Right,0,87,120,468.5,0.239583,Sixteenth,D#6
3109,Right,0,89,120,468.625,0.239583,Sixteenth,F6
3110,Left,1,35,120,468.75,0.239583,Sixteenth,B1
3111,Right,0,86,120,468.75,0.239583,Sixteenth,D6
3113,Left,1,36,120,469.0,0.239583,Sixteenth,C2
3112,Right,0,87,120,469.0,0.114583,ThirtySecond,D#6
3114,Left,1,37,120,469.25,0.239583,Sixteenth,C#2
3115,Left,1,39,120,469.5,0.239583,Sixteenth,D#2
3116,Right,0,89,120,469.5,0.239583,Sixteenth,F6
3118,Right,0,91,120,469.75,0.239583,Sixteenth,G6
3117,Left,1,37,120,469.75,0.239583,Sixteenth,C#2
3120,Right,0,91,120,470.0,0.489583,Eighth,G6
3119,Left,1,36,120,470.0,0.239583,Sixteenth,C2
3121,Left,1,35,120,470.25,0.239583,Sixteenth,B1
3122,Right,0,92,120,470.5,0.489583,Eighth,G#6
3123,Left,1,36,120,470.5,0.239583,Sixteenth,C2
3124,Left,1,32,120,470.75,0.239583,Sixteenth,G#1
3125,Left,1,31,120,471.0,0.239583,Sixteenth,G1
3126,Left,1,32,120,471.25,0.239583,Sixteenth,G#1
3128,Left,1,34,120,471.5,0.239583,Sixteenth,A#1
3127,Right,0,75,120,471.5,0.489583,Eighth,D#5
3129,Left,1,36,120,471.75,0.239583,Sixteenth,C2
3131,Left,1,37,120,472.0,0.239583,Sixteenth,C#2
3130,Right,0,75,120,472.0,0.239583,Sixteenth,D#5
3132,Right,0,77,120,472.125,0.239583,Sixteenth,F5
3134,Left,1,36,120,472.25,0.239583,Sixteenth,C2
3133,Right,0,75,120,472.25,0.239583,Sixteenth,D#5
3135,Right,0,77,120,472.375,0.239583,Sixteenth,F5
3137,Left,1,37,120,472.5,0.239583,Sixteenth,C#2
3136,Right,0,75,120,472.5,0.239583,Sixteenth,D#5
3138,Right,0,77,120,472.625,0.239583,Sixteenth,F5
3139,Left,1,35,120,472.75,0.239583,Sixteenth,B1
3140,Right,0,74,120,472.75,0.239583,Sixteenth,D5
3141,Left,1,36,120,473.0,0.239583,Sixteenth,C2
3142,Right,0,75,120,473.0,0.114583,ThirtySecond,D#5
3143,Left,1,37,120,473.25,0.239583,Sixteenth,C#2
3144,Left,1,39,120,473.5,0.239583,Sixteenth,D#2
3145,Right,0,77,120,473.5,0.239583,Sixteenth,F5
3146,Left,1,37,120,473.75,0.239583,Sixteenth,C#2
3147,Right,0,79,120,473.75,0.239583,Sixteenth,G5
3148,Right,0,79,120,474.0,0.489583,Eighth,G5
3149,Left,1,36,120,474.0,0.239583,Sixteenth,C2
3150,Left,1,35,120,474.25,0.239583,Sixteenth,B1
3152,Right,0,80,120,474.5,0.489583,Eighth,G#5
3151,Left,1,36,120,474.5,0.239583,Sixteenth,C2
3153,Left,1,32,120,474.75,0.239583,Sixteenth,G#1
3154,Left,1,31,120,475.0,0.239583,Sixteenth,G1
3155,Left,1,32,120,475.25,0.239583,Sixteenth,G#1
3156,Right,0,63,120,475.5,0.489583,Eighth,D#4
3157,Left,1,34,120,475.5,0.239583,Sixteenth,A#1
3158,Left,1,36,120,475.75,0.239583,Sixteenth,C2
3159,Right,0,65,120,476.0,0.239583,Sixteenth,F4
3160,Left,1,37,120,476.0,0.239583,Sixteenth,C#2
3161,Right,0,63,120,476.125,0.239583,Sixteenth,D#4
3162,Right,0,65,120,476.25,0.239583,Sixteenth,F4
3163,Left,1,39,120,476.25,0.239583,Sixteenth,D#2
3164,Right,0,63,120,476.375,0.239583,Sixteenth,D#4
3165,Left,1,41,120,476.5,0.239583,Sixteenth,F2
3166,Right,0,65,120,476.5,0.239583,Sixteenth,F4
3167,Left,1,43,120,476.75,0.239583,Sixteenth,G2
3168,Right,0,67,120,476.75,0.239583,Sixteenth,G4
3169,Right,0,68,120,477.0,0.239583,Sixteenth,G#4
3170,Left,1,44,120,477.0,0.239583,Sixteenth,G#2
3171,Left,1,46,120,477.25,0.239583,Sixteenth,A#2
3172,Right,0,70,120,477.25,0.239583,Sixteenth,A#4
3173,Left,1,48,120,477.5,0.239583,Sixteenth,C3
3174,Right,0,72,120,477.5,0.239583,Sixteenth,C5
3175,Right,0,71,120,477.75,0.239583,Sixteenth,B4
3176,Left,1,47,120,477.75,0.239583,Sixteenth,B2
3178,Right,0,72,120,478.0,0.239583,Sixteenth,C5
3177,Left,1,48,120,478.0,0.239583,Sixteenth,C3
3179,Left,1,49,120,478.25,0.239583,Sixteenth,C#3
3180,Right,0,73,120,478.25,0.239583,Sixteenth,C#5
3182,Right,0,74,120,478.5,0.239583,Sixteenth,D5
3181,Left,1,50,120,478.5,0.239583,Sixteenth,D3
3184,Right,0,73,120,478.75,0.239583,Sixteenth,C#5
3183,Left,1,49,120,478.75,0.239583,Sixteenth,C#3
3185,Right,0,74,120,479.0,0.239583,Sixteenth,D5
3186,Left,1,50,120,479.0,0.239583,Sixteenth,D3
3187,Right,0,75,120,479.25,0.239583,Sixteenth,D#5
3188,Left,1,51,120,479.25,0.239583,Sixteenth,D#3
3189,Right,0,76,120,479.5,0.239583,Sixteenth,E5
3190,Left,1,52,120,479.5,0.239583,Sixteenth,E3
3192,Right,0,75,120,479.75,0.239583,Sixteenth,D#5
3191,Left,1,51,120,479.75,0.239583,Sixteenth,D#3
3194,Right,0,76,120,480.0,0.239583,Sixteenth,E5
3193,Left,1,52,120,480.0,0.239583,Sixteenth,E3
3195,Left,1,53,120,480.25,0.239583,Sixteenth,F3
3196,Right,0,77,120,480.25,0.239583,Sixteenth,F5
3198,Right,0,78,120,480.5,0.239583,Sixteenth,F#5
3197,Left,1,54,120,480.5,0.239583,Sixteenth,F#3
3199,Left,1,55,120,480.75,0.239583,Sixteenth,G3
3200,Right,0,79,120,480.75,0.239583,Sixteenth,G5
3201,Right,0,80,120,481.0,0.239583,Sixteenth,G#5
3202,Left,1,56,120,481.0,0.239583,Sixteenth,G#3
3203,Left,1,58,120,481.25,0.239583,Sixteenth,A#3
3204,Right,0,82,120,481.25,0.239583,Sixteenth,A#5
3205,Left,1,60,120,481.5,0.239583,Sixteenth,C4
3206,Right,0,84,120,481.5,0.239583,Sixteenth,C6
3207,Right,0,83,120,481.75,0.239583,Sixteenth,B5
3208,Left,1,59,120,481.75,0.239583,Sixteenth,B3
3210,Right,0,84,120,482.0,0.239583,Sixteenth,C6
3209,Left,1,60,120,482.0,0.239583,Sixteenth,C4
3212,Left,1,61,120,482.25,0.239583,Sixteenth,C#4
3211,Right,0,85,120,482.25,0.239583,Sixteenth,C#6
3214,Left,1,62,120,482.5,0.239583,Sixteenth,D4
3213,Right,0,86,120,482.5,0.239583,Sixteenth,D6
3215,Right,0,85,120,482.75,0.239583,Sixteenth,C#6
3216,Left,1,61,120,482.75,0.239583,Sixteenth,C#4
3217,Right,0,86,120,483.0,0.239583,Sixteenth,D6
3218,Left,1,62,120,483.0,0.239583,Sixteenth,D4
3220,Right,0,87,120,483.25,0.239583,Sixteenth,D#6
3219,Left,1,63,120,483.25,0.239583,Sixteenth,D#4
3222,Right,0,88,120,483.5,0.239583,Sixteenth,E6
3221,Left,1,64,120,483.5,0.239583,Sixteenth,E4
3224,Right,0,87,120,483.75,0.239583,Sixteenth,D#6
3223,Left,1,63,120,483.75,0.239583,Sixteenth,D#4
3226,Right,0,88,120,484.0,0.239583,Sixteenth,E6
3225,Left,1,64,120,484.0,0.239583,Sixteenth,E4
3228,Right,0,89,120,484.25,0.239583,Sixteenth,F6
3227,Left,1,65,120,484.25,0.239583,Sixteenth,F4
3230,Left,1,66,120,484.5,0.239583,Sixteenth,F#4
3229,Right,0,90,120,484.5,0.239583,Sixteenth,F#6
3232,Right,0,91,120,484.75,0.239583,Sixteenth,G6
3231,Left,1,67,120,484.75,0.239583,Sixteenth,G4
3234,Right,0,92,120,485.0,0.989583,Quarter,G#6_G#5
3233,Left,1,68,120,485.0,0.989583,Quarter,G#4
3238,Right,0,68,120,486.0,0.989583,Quarter,G#4_G#3
3236,Left,1,32,120,486.0,0.989583,Quarter,G#2_G#1
3242,Right,0,67,80,490.0,0.989583,Quarter,G4_G3
3240,Left,1,43,80,490.0,0.989583,Quarter,G2_G1
3244,Right,0,69,120,493.5,0.15625,TripletSixteenth,A4
3245,Right,0,71,120,493.666667,0.15625,TripletSixteenth,B4
3246,Right,0,72,120,493.833333,0.15625,TripletSixteenth,C5
3247,Right,0,69,120,494.0,0.989583,Quarter,D5_D4_A4
3249,Left,1,42,120,494.0,0.989583,Quarter,F#2_F#1
3253,Right,0,62,80,498.5,0.15625,TripletSixteenth,D4
3252,Left,1,38,80,498.5,0.15625,TripletSixteenth,D2
3255,Left,1,40,80,498.666667,0.15625,TripletSixteenth,E2
3254,Right,0,64,80,498.666667,0.15625,TripletSixteenth,E4
3257,Left,1,42,80,498.833333,0.15625,TripletSixteenth,F#2
3256,Right,0,66,80,498.833333,0.15625,TripletSixteenth,F#4
3258,Left,1,43,80,499.0,0.989583,Quarter,G2_G1
3259,Right,0,67,80,499.0,0.989583,Quarter,G4_G3
3264,Left,1,34,80,500.0,0.989583,Quarter,A#2_A#1
3262,Right,0,58,80,500.0,0.989583,Quarter,A#4_A#3
3266,Right,0,54,80,501.0,1.989583,Half,F#4_F#3
3268,Left,1,30,80,501.0,1.989583,Half,F#2_F#1
3272,Left,1,29,80,503.0,0.989583,Quarter,F2_F1
3270,Right,0,65,80,503.0,0.989583,Quarter,F4_F3
3276,Right,0,56,80,504.0,0.989583,Quarter,G#4_G#3
3274,Left,1,32,80,504.0,0.989583,Quarter,G#2_G#1
3279,Right,0,64,80,505.0,1.989583,Half,E4_E3
3278,Left,1,40,80,505.0,1.989583,Half,E2_E1
3284,Right,0,63,80,507.0,0.989583,Quarter,D#4_D#3
3282,Left,1,27,80,507.0,0.989583,Quarter,D#2_D#1
3286,Right,0,55,80,508.0,0.989583,Quarter,G4_G3
3288,Left,1,43,80,508.0,0.989583,Quarter,G2_G1
3290,Right,0,50,80,509.0,0.989583,Quarter,D4_D3
3291,Left,1,38,80,509.0,0.989583,Quarter,D2_D1
3294,Right,0,67,80,510.0,0.739583,DottedEighth,G4_G3
3296,Left,1,31,80,510.0,0.739583,DottedEighth,G2_G1
3300,Right,0,58,80,510.75,0.239583,Sixteenth,A#4_A#3
3298,Left,1,46,80,510.75,0.239583,Sixteenth,A#2_A#1
3302,Right,0,62,80,511.0,0.989583,Quarter,D5_D4
3304,Left,1,50,80,511.0,0.989583,Quarter,D3_D2
3306,Right,0,54,80,512.0,0.989583,Quarter,F#3_D4_A3
3308,Left,1,48,80,512.0,0.989583,Quarter,C3_C2
3313,Right,0,62,80,513.0,1.989583,Half,D4
3311,Left,1,35,80,513.0,0.989583,Quarter,B2_B1
3314,Left,1,31,80,514.0,0.989583,Quarter,G2_G1
3316,Right,0,63,80,515.0,1.989583,Half,D#4
3317,Left,1,55,80,515.0,0.989583,Quarter,G3
3318,Left,1,60,80,516.0,0.989583,Quarter,C4
3319,Right,0,57,80,517.0,1.989583,Half,A3
3320,Left,1,54,80,517.0,1.489583,DottedQuarter,F#3
3321,Left,1,63,80,518.458333,0.489583,Eighth,D#4
3322,Left,1,62,80,519.0,0.489583,Eighth,D4
3323,Right,0,66,80,519.0,0.239583,Sixteenth,F#4
3324,Right,0,67,80,519.125,0.239583,Sixteenth,G4
3325,Right,0,66,80,519.25,0.239583,Sixteenth,F#4
3326,Right,0,67,80,519.375,0.239583,Sixteenth,G4
3328,Right,0,66,80,519.5,0.239583,Sixteenth,F#4
3327,Left,1,60,80,519.5,0.489583,Eighth,C4
3329,Right,0,67,80,519.625,0.239583,Sixteenth,G4
3330,Right,0,66,80,519.75,0.239583,Sixteenth,F#4
3331,Right,0,67,80,519.875,0.239583,Sixteenth,G4
3333,Left,1,57,80,520.0,0.989583,Eighth,D3_A3
3332,Right,0,66,80,520.0,0.239583,Sixteenth,F#4
3335,Right,0,67,80,520.125,0.239583,Sixteenth,G4
3336,Right,0,66,80,520.25,0.239583,Sixteenth,F#4
3337,Right,0,67,80,520.375,0.239583,Sixteenth,G4
3339,Left,1,57,80,520.5,0.489583,Eighth,A3
3338,Right,0,66,80,520.5,0.239583,Sixteenth,F#4
3340,Right,0,67,80,520.625,0.239583,Sixteenth,G4
3341,Right,0,64,80,520.75,0.239583,Sixteenth,E4
3342,Right,0,66,80,520.875,0.239583,Sixteenth,F#4
3345,Right,0,67,80,521.0,0.239583,Sixteenth,G4
3343,Left,1,55,80,521.0,1.989583,Half,G3_B3
3346,Right,0,62,80,521.25,0.239583,Sixteenth,D4
3347,Right,0,63,80,521.5,0.239583,Sixteenth,D#4
3348,Right,0,65,80,521.75,0.239583,Sixteenth,F4
3349,Right,0,67,80,522.0,0.239583,Sixteenth,G4
3350,Right,0,65,80,522.25,0.239583,Sixteenth,F4
3351,Right,0,63,80,522.5,0.239583,Sixteenth,D#4
3352,Right,0,62,80,522.75,0.239583,Sixteenth,D4
3353,Left,1,56,80,523.0,1.989583,Half,G#3
3354,Right,0,60,80,523.0,0.989583,Quarter,C4
3355,Right,0,63,80,524.0,0.989583,Quarter,D#4
3357,Right,0,59,80,525.0,1.489583,DottedQuarter,B3
3356,Left,1,50,80,525.0,1.989583,Half,D3
3358,Right,0,68,80,526.5,0.489583,Eighth,G#4
3360,Right,0,67,80,527.0,0.489583,Eighth,G4
3359,Left,1,59,80,527.0,0.239583,Sixteenth,B3
3361,Left,1,60,80,527.125,0.239583,Sixteenth,C4
3362,Left,1,59,80,527.25,0.239583,Sixteenth,B3
3363,Left,1,60,80,527.375,0.239583,Sixteenth,C4
3364,Right,0,65,80,527.5,0.489583,Eighth,F4
3365,Left,1,59,80,527.5,0.239583,Sixteenth,B3
3366,Left,1,60,80,527.625,0.239583,Sixteenth,C4
3367,Left,1,59,80,527.75,0.239583,Sixteenth,B3
3368,Left,1,60,80,527.875,0.239583,Sixteenth,C4
3370,Left,1,59,80,528.0,0.239583,Sixteenth,B3
3369,Right,0,63,80,528.0,0.489583,Eighth,D#4
3371,Left,1,60,80,528.125,0.239583,Sixteenth,C4
3372,Left,1,59,80,528.25,0.239583,Sixteenth,B3
3373,Left,1,60,80,528.375,0.239583,Sixteenth,C4
3374,Left,1,59,80,528.5,0.239583,Sixteenth,B3
3375,Right,0,62,80,528.5,0.489583,Eighth,D4
3376,Left,1,60,80,528.625,0.239583,Sixteenth,C4
3377,Left,1,57,80,528.75,0.239583,Sixteenth,A3
3378,Left,1,59,80,528.875,0.239583,Sixteenth,B3
3379,Right,0,64,80,529.0,1.989583,Sixteenth,E4_C5
3381,Left,1,60,80,529.0,0.989583,Quarter,C4
3382,Right,0,65,80,529.25,0.239583,Sixteenth,F4
3383,Right,0,63,80,529.5,0.239583,Sixteenth,D#4
3384,Right,0,62,80,529.75,0.239583,Sixteenth,D4
3385,Right,0,60,80,530.0,0.239583,Sixteenth,C4
3386,Right,0,67,80,530.25,0.239583,Sixteenth,G4
3387,Left,1,58,80,530.25,0.239583,Sixteenth,A#3
3388,Right,0,65,80,530.5,0.239583,Sixteenth,F4
3389,Left,1,56,80,530.5,0.239583,Sixteenth,G#3
3390,Right,0,63,80,530.75,0.239583,Sixteenth,D#4
3391,Left,1,55,80,530.75,0.239583,Sixteenth,G3
3392,Left,1,56,80,531.0,0.989583,Quarter,G#3
3393,Right,0,73,80,531.0,1.989583,Half,F4_C#5
3395,Left,1,53,80,532.0,0.989583,Quarter,F3
3396,Right,0,68,80,532.0,0.989583,Quarter,G#4
3398,Left,1,58,80,533.0,0.989583,Quarter,A#3
3397,Right,0,64,80,533.0,1.989583,DottedQuarter,G4_E4
3400,Left,1,55,80,534.0,0.989583,Quarter,G3
3401,Right,0,73,80,534.5,0.489583,Eighth,C#5
3403,Left,1,60,80,535.0,0.989583,Quarter,C4
3402,Right,0,72,80,535.0,0.489583,Eighth,E5_C5
3405,Right,0,77,80,535.125,0.239583,Sixteenth,F5
3406,Right,0,76,80,535.25,0.239583,Sixteenth,E5
3407,Right,0,77,80,535.375,0.239583,Sixteenth,F5
3408,Right,0,70,80,535.5,0.489583,Eighth,E5_A#4
3410,Right,0,77,80,535.625,0.239583,Sixteenth,F5
3411,Right,0,76,80,535.75,0.239583,Sixteenth,E5
3412,Right,0,77,80,535.875,0.239583,Sixteenth,F5
3413,Right,0,68,80,536.0,0.489583,Eighth,G#4_E5
3415,Left,1,48,80,536.0,0.989583,Quarter,C3
3416,Right,0,77,80,536.125,0.239583,Sixteenth,F5
3417,Right,0,76,80,536.25,0.239583,Sixteenth,E5
3418,Right,0,77,80,536.375,0.239583,Sixteenth,F5
3419,Right,0,76,80,536.5,0.489583,Sixteenth,G4_E5
3421,Right,0,77,80,536.625,0.239583,Sixteenth,F5
3422,Right,0,74,80,536.75,0.239583,Sixteenth,D5
3423,Right,0,76,80,536.875,0.239583,Sixteenth,E5
3424,Right,0,68,80,537.0,0.989583,Sixteenth,G#4_F5
3425,Left,1,53,80,537.0,1.989583,Half,F3
3427,Right,0,70,80,537.25,0.239583,Sixteenth,A#4
3428,Right,0,68,80,537.5,0.239583,Sixteenth,G#4
3429,Right,0,67,80,537.75,0.239583,Sixteenth,G4
3430,Right,0,65,80,538.0,0.239583,Sixteenth,F4
3431,Right,0,68,80,538.25,0.239583,Sixteenth,G#4
3432,Right,0,73,80,538.5,0.239583,Sixteenth,C#5
3433,Right,0,71,80,538.75,0.239583,Sixteenth,B4
3434,Left,1,52,80,539.0,0.239583,Sixteenth,E3
3435,Right,0,72,80,539.0,0.239583,Sixteenth,C5
3436,Left,1,53,80,539.125,0.239583,Sixteenth,F3
3438,Right,0,71,80,539.25,0.239583,Sixteenth,B4
3437,Left,1,52,80,539.25,0.239583,Sixteenth,E3
3439,Left,1,53,80,539.375,0.239583,Sixteenth,F3
3441,Left,1,52,80,539.5,0.239583,Sixteenth,E3
3440,Right,0,72,80,539.5,0.239583,Sixteenth,C5
3442,Left,1,53,80,539.625,0.239583,Sixteenth,F3
3444,Left,1,52,80,539.75,0.239583,Sixteenth,E3
3443,Right,0,70,80,539.75,0.239583,Sixteenth,A#4
3445,Left,1,53,80,539.875,0.239583,Sixteenth,F3
3447,Left,1,52,80,540.0,0.239583,Sixteenth,E3
3446,Right,0,72,80,540.0,0.239583,Sixteenth,C5
3448,Left,1,53,80,540.125,0.239583,Sixteenth,F3
3450,Left,1,52,80,540.25,0.239583,Sixteenth,E3
3449,Right,0,68,80,540.25,0.239583,Sixteenth,G#4
3451,Left,1,53,80,540.375,0.239583,Sixteenth,F3
3452,Left,1,52,80,540.5,0.239583,Sixteenth,E3
3453,Right,0,72,80,540.5,0.239583,Sixteenth,C5
3454,Left,1,53,80,540.625,0.239583,Sixteenth,F3
3455,Left,1,50,80,540.75,0.239583,Sixteenth,D3
3456,Right,0,67,80,540.75,0.239583,Sixteenth,G4
3457,Left,1,52,80,540.875,0.239583,Sixteenth,E3
3458,Left,1,53,80,541.0,1.989583,Half,F3_F2
3459,Right,0,56,80,541.0,0.239583,Sixteenth,G#4_G#3
3462,Right,0,58,80,541.25,0.239583,Sixteenth,A#3
3463,Right,0,56,80,541.5,0.239583,Sixteenth,G#3
3464,Right,0,55,80,541.75,0.239583,Sixteenth,G3
3465,Right,0,53,80,542.0,0.239583,Sixteenth,F3
3466,Right,0,56,80,542.25,0.239583,Sixteenth,G#3
3467,Right,0,61,80,542.5,0.239583,Sixteenth,C#4
3468,Right,0,59,80,542.75,0.239583,Sixteenth,B3
3469,Left,1,40,80,543.0,0.239583,Sixteenth,E2
3470,Right,0,60,80,543.0,0.239583,Sixteenth,C4
3471,Left,1,41,80,543.125,0.239583,Sixteenth,F2
3472,Right,0,59,80,543.25,0.239583,Sixteenth,B3
3473,Left,1,40,80,543.25,0.239583,Sixteenth,E2
3474,Left,1,41,80,543.375,0.239583,Sixteenth,F2
3476,Right,0,60,80,543.5,0.239583,Sixteenth,C4
3475,Left,1,40,80,543.5,0.239583,Sixteenth,E2
3477,Left,1,41,80,543.625,0.239583,Sixteenth,F2
3479,Left,1,40,80,543.75,0.239583,Sixteenth,E2
3478,Right,0,58,80,543.75,0.239583,Sixteenth,A#3
3480,Left,1,41,80,543.875,0.239583,Sixteenth,F2
3481,Right,0,60,80,544.0,0.239583,Sixteenth,C4
3482,Left,1,40,80,544.0,0.239583,Sixteenth,E2
3483,Left,1,41,80,544.125,0.239583,Sixteenth,F2
3484,Left,1,40,80,544.25,0.239583,Sixteenth,E2
3485,Right,0,56,80,544.25,0.239583,Sixteenth,G#3
3486,Left,1,41,80,544.375,0.239583,Sixteenth,F2
3488,Right,0,60,80,544.5,0.239583,Sixteenth,C4
3487,Left,1,40,80,544.5,0.239583,Sixteenth,E2
3489,Left,1,41,80,544.625,0.239583,Sixteenth,F2
3490,Left,1,38,80,544.75,0.239583,Sixteenth,D2
3491,Right,0,55,80,544.75,0.239583,Sixteenth,G3
3492,Left,1,40,80,544.875,0.239583,Sixteenth,E2
3493,Left,1,41,80,545.0,0.489583,Eighth,F2
3494,Right,0,60,80,545.0,0.239583,Sixteenth,C4
3495,Right,0,56,81,545.25,0.239583,Sixteenth,G#3
3497,Left,1,39,82,545.5,0.489583,Eighth,D#2
3496,Right,0,60,82,545.5,0.239583,Sixteenth,C4
3498,Right,0,55,83,545.75,0.239583,Sixteenth,G3
3500,Left,1,38,85,546.0,0.489583,Eighth,D2
3499,Right,0,59,85,546.0,0.239583,Sixteenth,B3
3501,Right,0,53,86,546.25,0.239583,Sixteenth,F3
3503,Left,1,36,87,546.5,0.489583,Eighth,C2
3502,Right,0,60,87,546.5,0.239583,Sixteenth,C4
3504,Right,0,51,89,546.75,0.239583,Sixteenth,D#3
3505,Right,0,62,90,547.0,0.239583,Sixteenth,D4
3506,Left,1,35,90,547.0,0.489583,Eighth,B1
3507,Right,0,55,91,547.25,0.239583,Sixteenth,G3
3509,Left,1,34,92,547.5,0.489583,Eighth,A#1
3508,Right,0,64,92,547.5,0.239583,Sixteenth,E4
3510,Right,0,60,94,547.75,0.239583,Sixteenth,C4
3512,Left,1,33,95,548.0,0.489583,Eighth,A1
3511,Right,0,65,95,548.0,0.239583,Sixteenth,F4
3513,Right,0,60,96,548.25,0.239583,Sixteenth,C4
3514,Left,1,32,98,548.5,0.489583,Eighth,G#1
3515,Right,0,66,98,548.5,0.239583,Sixteenth,F#4_C5
3517,Right,0,63,99,548.75,0.239583,Sixteenth,D#4
3518,Left,1,31,100,549.0,0.489583,Eighth,G1
3519,Right,0,67,100,549.0,0.239583,Sixteenth,G4_C5
3521,Right,0,63,101,549.25,0.239583,Sixteenth,D#4
3522,Left,1,30,103,549.5,0.989583,Quarter,F#1
3523,Right,0,69,103,549.5,0.239583,Sixteenth,D#5_C5_A4
3526,Right,0,63,104,549.75,0.239583,Sixteenth,D#4
3527,Right,0,72,105,550.0,0.239583,Sixteenth,D#5_C5_A4
3530,Right,0,63,107,550.25,0.239583,Sixteenth,D#4
3531,Left,1,42,108,550.5,0.989583,Quarter,F#2_F#1
3533,Right,0,69,108,550.5,0.239583,Sixteenth,D#5_C5_A4
3536,Right,0,63,109,550.75,0.239583,Sixteenth,D#4
3537,Right,0,75,110,551.0,0.239583,Sixteenth,D#5_C5_A4
3540,Right,0,63,112,551.25,0.239583,Sixteenth,D#4
3541,Right,0,75,113,551.5,0.239583,Sixteenth,D#5_C5_A4
3544,Left,1,30,113,551.5,0.989583,Quarter,F#2_F#1
3546,Right,0,63,114,551.75,0.239583,Sixteenth,D#4
3547,Right,0,72,116,552.0,0.239583,Sixteenth,D#5_C5_A4
3550,Right,0,63,117,552.25,0.239583,Sixteenth,D#4
3551,Right,0,72,118,552.5,0.239583,Sixteenth,D#4_C5_A4
3554,Left,1,30,118,552.5,0.489583,Eighth,F#2_F#1
3556,Right,0,60,119,552.75,0.239583,Sixteenth,C4
3557,Right,0,67,110,553.0,0.989583,Quarter,G4_D4_B3
3560,Left,1,31,110,553.25,0.489583,Eighth,G1
3561,Left,1,33,110,553.5,0.489583,Eighth,A1
3562,Left,1,35,110,553.75,0.489583,Eighth,B1
3563,Right,0,71,110,554.0,0.989583,Quarter,G4_D4_B4_B3
3567,Left,1,43,110,554.25,0.489583,Eighth,G2
3568,Left,1,45,110,554.5,0.489583,Eighth,A2
3569,Left,1,47,110,554.75,0.489583,Eighth,B2
3570,Right,0,63,110,555.0,1.989583,Half,F#4_D#4_C4_A3
3574,Left,1,31,110,555.25,0.489583,Eighth,G1
3575,Left,1,36,110,555.5,0.489583,Eighth,C2
3576,Left,1,39,110,555.75,0.489583,Eighth,D#2
3577,Left,1,42,110,556.0,0.489583,Eighth,F#2
3578,Left,1,45,110,556.25,0.489583,Eighth,A2
3579,Left,1,48,110,556.5,0.489583,Eighth,C3
3580,Left,1,51,110,556.791667,0.489583,Eighth,D#3
3581,Right,0,66,110,557.0,0.989583,Quarter,F#4_D#4_C5_A4
3585,Left,1,31,110,557.25,0.239583,Sixteenth,G1
3586,Left,1,36,110,557.5,0.239583,Sixteenth,C2
3587,Left,1,39,110,557.75,0.239583,Sixteenth,D#2
3588,Right,0,75,110,558.0,0.989583,Quarter,F#4_D#5_D#4_A4
3592,Left,1,43,110,558.25,0.239583,Sixteenth,G2
3593,Left,1,48,110,558.5,0.239583,Sixteenth,C3
3594,Left,1,51,110,558.75,0.239583,Sixteenth,D#3
3595,Right,0,71,110,559.0,1.989583,Half,G#4_F4_D4_B4
3599,Left,1,31,110,559.25,0.239583,Sixteenth,G1
3600,Left,1,38,110,559.5,0.239583,Sixteenth,D2
3601,Left,1,41,110,559.75,0.239583,Sixteenth,F2
3602,Left,1,43,110,560.0,0.239583,Sixteenth,G2
3603,Left,1,47,110,560.25,0.239583,Sixteenth,B2
3604,Left,1,50,110,560.5,0.239583,Sixteenth,D3
3605,Left,1,53,110,560.75,0.239583,Sixteenth,F3
3606,Right,0,68,110,561.0,0.989583,Quarter,G#4_F5_D5_B4
3610,Left,1,31,110,561.25,0.239583,Sixteenth,G1
3611,Left,1,38,110,561.5,0.239583,Sixteenth,D2
3612,Left,1,41,110,561.75,0.239583,Sixteenth,F2
3613,Right,0,74,110,562.0,0.989583,Quarter,G#5_G#4_D5_B4
3617,Left,1,43,110,562.25,0.239583,Sixteenth,G2
3618,Left,1,50,110,562.5,0.239583,Sixteenth,D3
3619,Left,1,53,110,562.75,0.239583,Sixteenth,F3
3620,Right,0,67,110,563.0,1.989583,Half,G4_E5_C#5_A#4
3624,Left,1,31,110,563.25,0.239583,Sixteenth,G1
3625,Left,1,43,110,563.5,0.239583,Sixteenth,G2
3626,Left,1,46,110,563.75,0.239583,Sixteenth,A#2
3627,Left,1,49,110,564.0,0.239583,Sixteenth,C#3
3628,Left,1,52,110,564.25,0.239583,Sixteenth,E3
3629,Left,1,55,110,564.5,0.239583,Sixteenth,G3
3630,Left,1,58,110,564.75,0.239583,Sixteenth,A#3
3631,Right,0,79,110,565.0,0.989583,Quarter,G5_E5_C#5_A#4
3635,Left,1,31,110,565.25,0.239583,Sixteenth,G1
3636,Left,1,43,110,565.5,0.239583,Sixteenth,G2
3637,Left,1,46,110,565.75,0.239583,Sixteenth,A#2
3638,Right,0,70,110,566.0,0.989583,Quarter,E5_C#5_A#5_A#4
3642,Left,1,43,110,566.25,0.239583,Sixteenth,G2
3643,Left,1,55,110,566.5,0.239583,Sixteenth,G3
3644,Left,1,58,110,566.75,0.239583,Sixteenth,A#3
3645,Right,0,69,110,567.0,1.989583,Half,F#5_D#5_C5_A4
3649,Left,1,31,110,567.25,0.239583,Sixteenth,G1
3650,Left,1,45,110,567.5,0.239583,Sixteenth,A2
3651,Left,1,48,110,567.75,0.239583,Sixteenth,C3
3652,Left,1,51,110,568.0,0.239583,Sixteenth,D#3
3653,Left,1,54,110,568.25,0.239583,Sixteenth,F#3
3654,Left,1,57,110,568.5,0.239583,Sixteenth,A3
3655,Left,1,60,110,568.75,0.239583,Sixteenth,C4
3656,Right,0,78,110,569.0,0.989583,Quarter,F#5_D#5_C6_A5
3660,Left,1,31,110,569.25,0.239583,Sixteenth,G1
3661,Left,1,45,110,569.5,0.239583,Sixteenth,A2
3662,Left,1,48,110,569.75,0.239583,Sixteenth,C3
3663,Right,0,87,110,570.0,0.989583,Quarter,F#5_D#6_D#5_A5
3667,Left,1,54,110,570.25,0.239583,Sixteenth,F#3
3668,Left,1,57,110,570.5,0.239583,Sixteenth,A3
3669,Left,1,60,110,570.75,0.239583,Sixteenth,C4
3670,Right,0,77,110,571.0,1.510417,DottedQuarter,F5_D5_B5
3673,Left,1,31,110,571.25,0.239583,Sixteenth,G1
3674,Left,1,47,110,571.5,0.239583,Sixteenth,B2
3675,Left,1,50,110,571.75,0.239583,Sixteenth,D3
3676,Left,1,53,110,572.0,0.239583,Sixteenth,F3
3677,Left,1,56,110,572.25,0.239583,Sixteenth,G#3
3679,Right,0,80,110,572.5,0.489583,Unknown,G#6_G#5
3678,Left,1,53,110,572.5,0.239583,Sixteenth,F3
3681,Left,1,56,110,572.75,0.239583,Sixteenth,G#3
3683,Left,1,55,110,573.0,0.239583,Sixteenth,G3
3682,Right,0,91,110,573.0,0.239583,Sixteenth,G6
3685,Left,1,56,110,573.25,0.239583,Sixteenth,G#3
3684,Right,0,92,110,573.25,0.239583,Sixteenth,G#6
3687,Left,1,55,110,573.5,0.239583,Sixteenth,G3
3686,Right,0,91,110,573.5,0.239583,Sixteenth,G6
3688,Right,0,89,110,573.75,0.239583,Sixteenth,F6
3689,Left,1,53,110,573.75,0.239583,Sixteenth,F3
3690,Right,0,87,110,574.0,0.239583,Sixteenth,D#6
3691,Left,1,51,110,574.0,0.239583,Sixteenth,D#3
3693,Right,0,89,110,574.25,0.239583,Sixteenth,F6
3692,Left,1,53,110,574.25,0.239583,Sixteenth,F3
3694,Right,0,87,110,574.5,0.239583,Sixteenth,D#6
3695,Left,1,51,110,574.5,0.239583,Sixteenth,D#3
3697,Right,0,86,110,574.75,0.239583,Sixteenth,D6
3696,Left,1,50,110,574.75,0.239583,Sixteenth,D3
3698,Right,0,87,110,575.0,0.239583,Sixteenth,D#6
3699,Left,1,51,110,575.0,0.239583,Sixteenth,D#3
3701,Left,1,53,110,575.25,0.239583,Sixteenth,F3
3700,Right,0,89,110,575.25,0.239583,Sixteenth,F6
3703,Left,1,51,110,575.5,0.239583,Sixteenth,D#3
3702,Right,0,87,110,575.5,0.239583,Sixteenth,D#6
3705,Left,1,50,110,575.75,0.239583,Sixteenth,D3
3704,Right,0,86,110,575.75,0.239583,Sixteenth,D6
3706,Left,1,48,110,576.0,0.239583,Sixteenth,C3
3707,Right,0,84,110,576.0,0.239583,Sixteenth,C6
3708,Left,1,43,110,576.25,0.239583,Sixteenth,G2
3709,Right,0,79,110,576.25,0.239583,Sixteenth,G5
3711,Left,1,45,110,576.5,0.239583,Sixteenth,A2
3710,Right,0,81,110,576.5,0.239583,Sixteenth,A5
3713,Left,1,47,110,576.75,0.239583,Sixteenth,B2
3712,Right,0,83,110,576.75,0.239583,Sixteenth,B5
3716,Right,0,72,120,577.0,0.989583,Quarter,C6_C5
3714,Left,1,48,120,577.0,0.989583,Quarter,C3_C2
3719,Left,1,51,120,578.0,0.989583,Quarter,D#3_D#2
3718,Right,0,87,120,578.0,0.989583,Quarter,D#6_D#5
3723,Right,0,71,120,579.0,1.489583,DottedQuarter,B5_B4
3722,Left,1,47,120,579.0,1.489583,DottedQuarter,B2_B1
3726,Left,1,56,120,580.5,0.489583,Eighth,G#3_G#2
3727,Right,0,80,120,580.5,0.489583,Eighth,G#6_G#5
3731,Left,1,55,120,581.0,0.489583,Eighth,G3_G2
3730,Right,0,91,120,581.0,0.489583,Eighth,G6_G5
3734,Left,1,53,120,581.5,0.489583,Eighth,F3_F2
3736,Right,0,89,120,581.5,0.489583,Eighth,F6_F5
3740,Left,1,39,120,582.0,0.489583,Eighth,D#3_D#2
3738,Right,0,87,120,582.0,0.489583,Eighth,D#6_D#5
3742,Left,1,38,120,582.5,0.489583,Eighth,D3_D2
3744,Right,0,86,120,582.5,0.489583,Eighth,D6_D5
3746,Right,0,75,120,583.0,0.239583,Sixteenth,D#6_D#5
3747,Left,1,39,120,583.0,0.239583,Sixteenth,D#2
3750,Left,1,41,120,583.25,0.239583,Sixteenth,F2
3749,Right,0,89,120,583.25,0.239583,Sixteenth,F6
3752,Right,0,87,120,583.5,0.239583,Sixteenth,D#6
3751,Left,1,39,120,583.5,0.239583,Sixteenth,D#2
3754,Right,0,86,120,583.75,0.239583,Sixteenth,D6
3753,Left,1,38,120,583.75,0.239583,Sixteenth,D2
3755,Left,1,48,120,584.0,0.489583,Eighth,C3_C2
3757,Right,0,84,120,584.0,0.489583,Eighth,C6_C5
3759,Right,0,77,80,584.5,0.489583,Eighth,G5_G#6_F5
3762,Right,0,77,80,585.0,0.489583,Eighth,G6_G5_F5
3763,Left,1,55,80,585.0,0.489583,Eighth,G3_B3
3767,Left,1,55,80,585.5,0.489583,Eighth,G3_B3
3769,Right,0,89,80,585.5,0.489583,Eighth,G5_F6_F5
3772,Right,0,87,80,586.0,0.489583,Eighth,G5_F5_D#6
3775,Left,1,60,80,586.0,0.489583,Eighth,G3_C4
3779,Right,0,86,80,586.5,0.489583,Eighth,G5_F5_D6
3777,Left,1,59,80,586.5,0.489583,Eighth,G3_B3
3782,Right,0,87,80,587.0,0.239583,Sixteenth,D#6
3783,Right,0,89,80,587.25,0.239583,Sixteenth,F6
3785,Right,0,87,80,587.5,0.989583,Quarter,G5_D#6_D#5
3784,Left,1,48,80,587.5,0.989583,Quarter,C4_C3
3789,Right,0,86,80,587.75,0.239583,Sixteenth,D6
3790,Right,0,84,80,588.0,0.489583,Eighth,C6
3791,Right,0,67,80,588.5,0.489583,Eighth,G4_G#5_F4
3795,Right,0,65,80,589.0,0.489583,Eighth,G5_G4_F4
3794,Left,1,43,80,589.0,0.489583,Eighth,G2_G1
3801,Left,1,31,80,589.5,0.489583,Eighth,G2_G1
3799,Right,0,77,80,589.5,0.489583,Eighth,G4_F5_F4
3807,Left,1,45,80,590.0,0.489583,Eighth,G1_A2
3804,Right,0,75,80,590.0,0.489583,Eighth,G4_F4_D#5
3809,Left,1,47,80,590.5,0.489583,Eighth,G1_B2
3810,Right,0,67,80,590.5,0.489583,Eighth,G4_F4_D5
3814,Right,0,75,80,591.0,0.239583,Sixteenth,D#5
3815,Right,0,77,80,591.25,0.239583,Sixteenth,F5
3816,Right,0,75,80,591.5,0.989583,Quarter,G4_D#5_D#4
3819,Left,1,48,80,591.5,0.989583,Quarter,C3_C2
3821,Right,0,74,80,591.75,0.239583,Sixteenth,D5
3822,Right,0,72,80,592.0,0.489583,Eighth,C5
3823,Right,0,92,80,592.5,0.239583,Sixteenth,G#6_G#5
3825,Left,1,47,80,592.75,0.239583,Sixteenth,B2_B1
3827,Right,0,79,81,593.0,0.239583,Sixteenth,G6_G5
3829,Left,1,35,81,593.25,0.239583,Sixteenth,B2_B1
3831,Right,0,77,82,593.5,0.239583,Sixteenth,F6_F5
3833,Left,1,47,83,593.75,0.239583,Sixteenth,B2_B1
3835,Right,0,87,83,594.0,0.239583,Sixteenth,D#6_D#5
3837,Left,1,35,84,594.25,0.239583,Sixteenth,B2_B1
3839,Right,0,86,84,594.5,0.239583,Sixteenth,D6_D5
3841,Left,1,35,85,594.75,0.239583,Sixteenth,B2_B1
3843,Right,0,75,86,595.0,0.239583,Sixteenth,D#6_D#5
3845,Left,1,36,86,595.25,0.239583,Sixteenth,C3_C2
3847,Right,0,74,87,595.5,0.239583,Sixteenth,D6_D5
3849,Left,1,38,88,595.75,0.239583,Sixteenth,D3_D2
3851,Right,0,72,88,596.0,0.239583,Sixteenth,C6_C5
3853,Left,1,51,89,596.25,0.239583,Sixteenth,D#3_D#2
3855,Right,0,83,89,596.5,0.239583,Sixteenth,B5_B4
3857,Left,1,50,90,596.75,0.239583,Sixteenth,D3_D2
3859,Right,0,72,91,597.0,0.239583,Sixteenth,C6_C5
3861,Left,1,39,91,597.25,0.239583,Sixteenth,D#3_D#2
3863,Right,0,82,92,597.5,0.239583,Sixteenth,A#5_A#4
3865,Left,1,40,93,597.75,0.239583,Sixteenth,E3_E2
3867,Right,0,80,93,598.0,0.239583,Sixteenth,G#5_G#4
3869,Left,1,41,94,598.25,0.239583,Sixteenth,F3_F2
3871,Right,0,79,94,598.5,0.239583,Sixteenth,G5_G4
3873,Left,1,40,95,598.75,0.239583,Sixteenth,E3_E2
3875,Right,0,68,96,599.0,0.239583,Sixteenth,G#5_G#4
3877,Left,1,41,96,599.25,0.239583,Sixteenth,F3_F2
3879,Right,0,79,97,599.5,0.239583,Sixteenth,G5
3880,Right,0,67,97,599.541667,0.239583,Sixteenth,G4
3881,Left,1,55,97,599.75,0.239583,Sixteenth,G3_G2
3883,Right,0,65,98,600.0,0.239583,Sixteenth,F5_F4
3885,Left,1,56,99,600.25,0.239583,Sixteenth,G#3_G#2
3887,Right,0,63,99,600.5,0.239583,Sixteenth,D#5_D#4
3889,Left,1,56,100,600.75,0.239583,Sixteenth,G#3_F3
3891,Right,0,73,101,601.0,0.489583,Eighth,C#5_C#4
3893,Left,1,53,101,601.25,0.489583,Eighth,G#3_F3
3895,Right,0,80,102,601.5,0.489583,Eighth,G#5_G#4
3897,Left,1,53,102,601.75,0.489583,Eighth,G#3_F3_C#4
3900,Right,0,85,103,602.0,0.489583,Eighth,C#6_C#5
3902,Right,0,89,104,602.5,0.489583,Eighth,F6_F5
3904,Left,1,53,105,602.75,0.03125,TripletSixtyFourth,G#3_F3_C#4
3907,Right,0,80,106,603.0,0.489583,Eighth,G#6_G#5
3909,Left,1,53,106,603.25,0.489583,Eighth,G#3_F3_C#4
3912,Right,0,68,107,603.5,0.489583,Eighth,G#5_G#4
3914,Left,1,53,107,603.75,0.489583,Eighth,G#3_F3_C#4
3917,Right,0,65,108,604.0,0.489583,Eighth,F5_F4
3919,Left,1,61,109,604.25,0.489583,Eighth,G#3_F3_C#4
3922,Right,0,61,109,604.5,0.489583,Eighth,C#5_C#4
3924,Left,1,56,110,604.75,0.239583,Sixteenth,G#3_F3
3926,Right,0,61,110,605.0,0.489583,Eighth,C#5_C#4
3928,Left,1,56,108,605.25,0.239583,Sixteenth,G#3_F3
3930,Right,0,60,106,605.5,0.489583,Eighth,C5_C4
3932,Left,1,55,104,605.75,0.239583,Sixteenth,G3_E3
3934,Right,0,60,102,606.0,0.489583,Eighth,C5_C4
3936,Left,1,55,100,606.25,0.239583,Sixteenth,G3_E3
3938,Right,0,60,98,606.5,0.489583,Eighth,C5_C4
3940,Left,1,55,96,606.75,0.239583,Sixteenth,G3_E3
3942,Left,1,52,94,607.0,0.489583,Eighth,G3_E3
3943,Right,0,60,94,607.0,0.489583,Eighth,G4_C5_C4
3947,Right,0,73,90,607.5,0.989583,Quarter,G4_C4_C#5
3949,Left,1,40,90,607.5,0.989583,Quarter,E2
3951,Right,0,60,82,608.5,0.489583,Eighth,G4_C4_A#4
3952,Left,1,36,110,608.5,0.15625,TripletSixteenth,C2
3955,Left,1,38,110,608.666667,0.15625,TripletSixteenth,D2
3956,Left,1,40,110,608.833333,0.15625,TripletSixteenth,E2
3958,Left,1,29,110,609.0,0.989583,Quarter,F2_F1
3957,Right,0,68,110,609.0,0.239583,Sixteenth,G#4
3960,Right,0,72,110,609.25,0.239583,Sixteenth,C5
3961,Right,0,70,110,609.5,0.239583,Sixteenth,A#4
3962,Right,0,68,110,609.75,0.239583,Sixteenth,G#4
3965,Right,0,67,110,610.0,0.239583,Sixteenth,G4
3963,Left,1,44,110,610.0,0.989583,Quarter,G#2_G#1
3966,Right,0,65,110,610.25,0.239583,Sixteenth,F4
3967,Right,0,64,110,610.5,0.239583,Sixteenth,E4
3968,Right,0,65,110,610.75,0.239583,Sixteenth,F4
3969,Left,1,28,110,611.0,1.239583,TiedQuarter-Sixteenth,E2_E1
3971,Right,0,67,110,611.0,0.239583,Sixteenth,G4
3972,Right,0,68,110,611.25,0.239583,Sixteenth,G#4
3973,Right,0,70,110,611.5,0.239583,Sixteenth,A#4
3974,Right,0,67,110,611.75,0.239583,Sixteenth,G4
3975,Right,0,61,110,612.0,0.239583,Sixteenth,C#4
3977,Left,1,43,110,612.25,0.239583,Sixteenth,G2
3976,Right,0,64,110,612.25,0.239583,Sixteenth,E4
3978,Left,1,46,110,612.5,0.239583,Sixteenth,A#2
3979,Right,0,67,110,612.5,0.239583,Sixteenth,G4
3981,Right,0,70,110,612.75,0.739583,DottedEighth,A#4
3980,Left,1,49,110,612.75,0.239583,Sixteenth,C#3
3982,Left,1,48,110,613.0,0.239583,Sixteenth,C3
3983,Left,1,49,110,613.25,0.239583,Sixteenth,C#3
3984,Left,1,48,110,613.5,0.239583,Sixteenth,C3
3985,Right,0,64,110,613.5,0.489583,Eighth,E4_E3
3987,Left,1,46,110,613.75,0.239583,Sixteenth,A#2
3989,Left,1,44,110,614.0,0.239583,Sixteenth,G#2
3988,Right,0,53,110,614.0,0.489583,Eighth,F4_F3
3991,Left,1,46,110,614.25,0.239583,Sixteenth,A#2
3993,Right,0,52,110,614.5,0.489583,Eighth,E4_E3
3992,Left,1,44,110,614.5,0.239583,Sixteenth,G#2
3995,Left,1,43,110,614.75,0.239583,Sixteenth,G2
3996,Left,1,44,110,615.0,0.239583,Sixteenth,G#2
3997,Right,0,53,110,615.0,0.489583,Eighth,F4_F3
3999,Left,1,46,110,615.25,0.239583,Sixteenth,A#2
4002,Left,1,44,110,615.5,0.239583,Sixteenth,G#2
4000,Right,0,70,110,615.5,0.489583,Eighth,A#4_A#3
4003,Left,1,43,110,615.75,0.239583,Sixteenth,G2
4004,Left,1,41,110,616.0,0.239583,Sixteenth,F2
4005,Right,0,68,110,616.0,0.489583,Eighth,G#4_G#3
4007,Left,1,44,110,616.25,0.239583,Sixteenth,G#2
4008,Left,1,46,110,616.5,0.239583,Sixteenth,A#2
4009,Right,0,65,110,616.5,0.489583,Eighth,F4_F3
4011,Left,1,48,110,616.75,0.239583,Sixteenth,C3
4012,Left,1,49,110,617.0,0.239583,Sixteenth,C#3
4013,Left,1,51,110,617.25,0.239583,Sixteenth,D#3
4014,Left,1,49,110,617.5,0.239583,Sixteenth,C#3
4015,Right,0,53,110,617.5,0.489583,Eighth,F4_F3
4017,Left,1,48,110,617.75,0.239583,Sixteenth,C3
4019,Right,0,67,110,618.0,0.489583,Eighth,G4_G3
4018,Left,1,46,110,618.0,0.239583,Sixteenth,A#2
4021,Left,1,48,110,618.25,0.239583,Sixteenth,C3
4022,Right,0,67,110,618.5,0.989583,Quarter,G4_G3
4023,Left,1,46,110,618.5,0.239583,Sixteenth,A#2
4025,Left,1,45,110,618.75,0.239583,Sixteenth,A2
4026,Left,1,46,110,619.0,0.239583,Sixteenth,A#2
4027,Left,1,48,110,619.25,0.239583,Sixteenth,C3
4028,Right,0,72,110,619.5,0.489583,Eighth,C5_C4
4030,Left,1,46,110,619.5,0.239583,Sixteenth,A#2
4031,Left,1,44,110,619.75,0.239583,Sixteenth,G#2
4033,Left,1,43,110,620.0,0.239583,Sixteenth,G2
4032,Right,0,58,110,620.0,0.489583,Eighth,A#4_A#3
4035,Left,1,46,110,620.25,0.239583,Sixteenth,A#2
4038,Left,1,49,110,620.5,0.239583,Sixteenth,C#3
4036,Right,0,67,110,620.5,0.489583,Eighth,G4_G3
4039,Left,1,53,110,620.75,0.239583,Sixteenth,F3
4040,Left,1,51,110,621.0,0.239583,Sixteenth,D#3
4041,Left,1,53,110,621.25,0.239583,Sixteenth,F3
4042,Left,1,51,110,621.5,0.239583,Sixteenth,D#3
4043,Right,0,67,110,621.5,0.489583,Eighth,G4_G3
4045,Left,1,49,110,621.75,0.239583,Sixteenth,C#3
4046,Right,0,56,110,622.0,0.489583,Eighth,G#4_G#3
4047,Left,1,48,110,622.0,0.239583,Sixteenth,C3
4049,Left,1,49,110,622.25,0.239583,Sixteenth,C#3
4050,Left,1,48,110,622.5,0.239583,Sixteenth,C3
4051,Right,0,56,110,622.5,0.989583,Quarter,G#4_G#3
4053,Left,1,46,110,622.75,0.239583,Sixteenth,A#2
4054,Left,1,48,110,623.0,0.239583,Sixteenth,C3
4055,Left,1,49,110,623.25,0.239583,Sixteenth,C#3
4056,Left,1,48,110,623.5,0.239583,Sixteenth,C3
4057,Right,0,61,110,623.5,0.489583,Eighth,C#5_C#4
4059,Left,1,46,110,623.75,0.239583,Sixteenth,A#2
4060,Right,0,72,110,624.0,0.489583,Eighth,C5_C4
4062,Left,1,45,110,624.0,0.239583,Sixteenth,A2
4063,Left,1,48,110,624.25,0.239583,Sixteenth,C3
4065,Right,0,72,110,624.5,0.239583,Sixteenth,C5_C4
4064,Left,1,51,110,624.5,0.239583,Sixteenth,D#3
4067,Left,1,54,110,624.75,0.239583,Sixteenth,F#3
4068,Right,0,70,110,624.75,0.239583,Sixteenth,A#4
4070,Right,0,69,110,625.0,0.489583,Eighth,A4
4069,Left,1,53,110,625.0,0.239583,Sixteenth,F3
4071,Left,1,54,110,625.25,0.239583,Sixteenth,F#3
4072,Right,0,70,110,625.5,0.239583,Sixteenth,A#4
4073,Left,1,53,110,625.5,0.239583,Sixteenth,F3
4074,Right,0,72,110,625.75,0.239583,Sixteenth,C5
4075,Left,1,51,110,625.75,0.239583,Sixteenth,D#3
4077,Left,1,49,110,626.0,0.239583,Sixteenth,C#3
4076,Right,0,65,110,626.0,0.239583,Sixteenth,F4
4079,Left,1,51,110,626.25,0.239583,Sixteenth,D#3
4078,Right,0,66,110,626.25,0.239583,Sixteenth,F#4
4081,Right,0,65,110,626.5,0.239583,Sixteenth,F4
4080,Left,1,49,110,626.5,0.239583,Sixteenth,C#3
4082,Right,0,63,110,626.75,0.239583,Sixteenth,D#4
4083,Left,1,48,110,626.75,0.239583,Sixteenth,C3
4084,Right,0,65,110,627.0,0.989583,Sixteenth,F4_A#4
4086,Left,1,49,110,627.0,0.239583,Sixteenth,C#3
4087,Right,0,66,110,627.25,0.239583,Sixteenth,F#4
4088,Left,1,51,110,627.25,0.239583,Sixteenth,D#3
4089,Right,0,65,110,627.5,0.239583,Sixteenth,F4
4090,Left,1,49,110,627.5,0.239583,Sixteenth,C#3
4092,Left,1,48,110,627.75,0.239583,Sixteenth,C3
4091,Right,0,63,110,627.75,0.239583,Sixteenth,D#4
4093,Right,0,61,110,628.0,0.989583,Sixteenth,C#5_C#4
4094,Left,1,46,110,628.0,0.239583,Sixteenth,A#2
4096,Right,0,65,110,628.25,0.239583,Sixteenth,F4
4097,Left,1,49,110,628.25,0.239583,Sixteenth,C#3
4099,Right,0,61,110,628.5,0.239583,Sixteenth,C#4
4098,Left,1,46,110,628.5,0.239583,Sixteenth,A#2
4101,Left,1,49,110,628.75,0.239583,Sixteenth,C#3
4100,Right,0,65,110,628.75,0.239583,Sixteenth,F4
4102,Right,0,63,110,629.0,1.489583,Sixteenth,D#4_A4
4103,Left,1,48,110,629.0,0.239583,Sixteenth,C3
4105,Right,0,65,110,629.25,0.239583,Sixteenth,F4
4106,Left,1,49,110,629.25,0.239583,Sixteenth,C#3
4108,Right,0,66,110,629.5,0.239583,Sixteenth,F#4
4107,Left,1,51,110,629.5,0.239583,Sixteenth,D#3
4109,Right,0,65,110,629.75,0.239583,Sixteenth,F4
4110,Left,1,49,110,629.75,0.239583,Sixteenth,C#3
4112,Right,0,63,110,630.0,0.489583,Eighth,D#4
4111,Left,1,48,110,630.0,0.239583,Sixteenth,C3
4113,Left,1,49,110,630.25,0.239583,Sixteenth,C#3
4116,Left,1,48,110,630.5,0.239583,Sixteenth,C3
4114,Right,0,78,110,630.5,0.489583,Eighth,F#5_D#5
4118,Left,1,46,110,630.75,0.239583,Sixteenth,A#2
4117,Right,0,73,110,630.75,0.239583,Sixteenth,C#5
4119,Left,1,45,110,631.0,0.489583,Eighth,A2
4120,Right,0,72,110,631.0,0.989583,Quarter,F5_C5
4122,Right,0,78,110,631.25,0.239583,Sixteenth,F#5
4123,Left,1,41,110,631.5,0.489583,Eighth,F3_F2
4125,Right,0,77,110,631.5,0.239583,Sixteenth,F5
4126,Right,0,75,110,631.75,0.239583,Sixteenth,D#5
4127,Right,0,73,110,632.0,0.239583,Sixteenth,C#5
4128,Left,1,58,110,632.0,0.489583,Eighth,A#3_A#2
4130,Right,0,75,110,632.25,0.239583,Sixteenth,D#5
4131,Left,1,57,110,632.5,0.489583,Eighth,A3_A2
4133,Right,0,73,110,632.5,0.239583,Sixteenth,C#5
4134,Right,0,72,110,632.75,0.239583,Sixteenth,C5
4136,Left,1,58,110,633.0,0.489583,Eighth,A#3_A#2
4135,Right,0,73,110,633.0,0.239583,Sixteenth,C#5
4138,Right,0,75,110,633.25,0.239583,Sixteenth,D#5
4139,Left,1,51,110,633.5,0.489583,Eighth,D#4_D#3
4141,Right,0,73,110,633.5,0.239583,Sixteenth,C#5
4142,Right,0,72,110,633.75,0.239583,Sixteenth,C5
4144,Left,1,61,110,634.0,0.489583,Eighth,C#4_C#3
4143,Right,0,70,110,634.0,0.239583,Sixteenth,A#4
4146,Right,0,73,110,634.25,0.239583,Sixteenth,C#5
4148,Right,0,77,110,634.5,0.239583,Sixteenth,F5
4147,Left,1,58,110,634.5,0.489583,Eighth,A#3_A#2
4150,Right,0,80,110,634.75,0.239583,Sixteenth,G#5
4151,Right,0,78,110,635.0,0.239583,Sixteenth,F#5
4152,Right,0,80,110,635.25,0.239583,Sixteenth,G#5
4155,Right,0,78,110,635.5,0.239583,Sixteenth,F#5
4153,Left,1,46,110,635.5,0.489583,Eighth,A#3_A#2
4156,Right,0,77,110,635.75,0.239583,Sixteenth,F5
4157,Left,1,60,110,636.0,0.489583,Eighth,C4_C3
4159,Right,0,75,110,636.0,0.239583,Sixteenth,D#5
4160,Right,0,77,110,636.25,0.239583,Sixteenth,F5
4161,Left,1,46,110,636.5,0.489583,Eighth,A#3_A#2
4162,Right,0,75,110,636.5,0.239583,Sixteenth,D#5
4164,Right,0,73,110,636.75,0.239583,Sixteenth,C#5
4166,Left,1,60,110,637.0,0.489583,Eighth,C4_C3
4165,Right,0,75,110,637.0,0.239583,Sixteenth,D#5
4168,Right,0,77,110,637.25,0.239583,Sixteenth,F5
4170,Left,1,53,110,637.5,0.489583,Eighth,F4_F3
4169,Right,0,75,110,637.5,0.239583,Sixteenth,D#5
4172,Right,0,73,110,637.75,0.239583,Sixteenth,C#5
4174,Left,1,63,110,638.0,0.489583,Eighth,D#4_D#3
4173,Right,0,72,110,638.0,0.239583,Sixteenth,C5
4176,Right,0,75,110,638.25,0.239583,Sixteenth,D#5
4178,Left,1,48,110,638.5,0.489583,Eighth,C4_C3
4177,Right,0,78,110,638.5,0.239583,Sixteenth,F#5
4180,Right,0,82,110,638.75,0.239583,Sixteenth,A#5
4181,Right,0,80,110,639.0,0.239583,Sixteenth,G#5
4182,Right,0,82,110,639.25,0.239583,Sixteenth,A#5
4184,Right,0,80,110,639.5,0.239583,Sixteenth,G#5
4183,Left,1,48,110,639.5,0.489583,Eighth,C4_C3
4186,Right,0,78,110,639.75,0.239583,Sixteenth,F#5
4187,Right,0,77,110,640.0,0.239583,Sixteenth,F5
4188,Left,1,61,110,640.0,0.489583,Eighth,C#4_C#3
4190,Right,0,78,110,640.25,0.239583,Sixteenth,F#5
4193,Right,0,77,110,640.5,0.239583,Sixteenth,F5
4191,Left,1,48,110,640.5,0.489583,Eighth,C4_C3
4194,Right,0,75,110,640.75,0.239583,Sixteenth,D#5
4196,Left,1,65,110,641.0,0.239583,Sixteenth,F4
4195,Right,0,80,110,641.0,0.989583,Sixteenth,G#5_C#6
4199,Right,0,82,110,641.25,0.239583,Sixteenth,A#5
4198,Left,1,66,110,641.25,0.239583,Sixteenth,F#4
4200,Left,1,65,110,641.5,0.239583,Sixteenth,F4
4201,Right,0,80,110,641.5,0.239583,Sixteenth,G#5
4202,Left,1,63,110,641.75,0.239583,Sixteenth,D#4
4203,Right,0,78,110,641.75,0.239583,Sixteenth,F#5
4204,Right,0,89,110,642.0,0.989583,Quarter,F6_F5
4205,Left,1,61,110,642.0,0.239583,Sixteenth,C#4
4208,Left,1,63,110,642.25,0.239583,Sixteenth,D#4
4207,Right,0,78,110,642.25,0.239583,Sixteenth,F#5
4209,Right,0,80,110,642.5,0.239583,Sixteenth,G#5
4210,Left,1,65,110,642.5,0.239583,Sixteenth,F4
4211,Right,0,77,110,642.75,0.239583,Sixteenth,F5
4212,Left,1,61,110,642.75,0.239583,Sixteenth,C#4
4214,Right,0,75,110,643.0,1.489583,Eighth,D#5_C6
4213,Left,1,68,110,643.0,0.239583,Sixteenth,G#4
4216,Left,1,70,110,643.25,0.239583,Sixteenth,A#4
4217,Left,1,68,110,643.5,0.239583,Sixteenth,G#4
4218,Left,1,67,110,643.75,0.239583,Sixteenth,G4
4219,Left,1,68,110,644.0,0.239583,Sixteenth,G#4
4221,Right,0,87,110,644.25,0.239583,Sixteenth,D#6
4220,Left,1,72,110,644.25,0.239583,Sixteenth,C5
4223,Right,0,90,110,644.5,0.239583,Sixteenth,F#6
4222,Left,1,75,110,644.5,0.239583,Sixteenth,D#5
4225,Left,1,78,110,644.75,0.239583,Sixteenth,F#5
4224,Right,0,94,110,644.75,0.239583,Sixteenth,A#6
4226,Left,1,77,110,645.0,0.239583,Sixteenth,F5
4227,Right,0,92,110,645.0,0.239583,Sixteenth,G#6
4229,Left,1,78,110,645.25,0.239583,Sixteenth,F#5
4228,Right,0,94,110,645.25,0.239583,Sixteenth,A#6
4231,Right,0,92,110,645.5,0.239583,Sixteenth,G#6
4230,Left,1,77,110,645.5,0.239583,Sixteenth,F5
4232,Left,1,75,110,645.75,0.239583,Sixteenth,D#5
4233,Right,0,90,110,645.75,0.239583,Sixteenth,F#6
4235,Right,0,89,110,646.0,0.239583,Sixteenth,F6
4234,Left,1,73,110,646.0,0.239583,Sixteenth,C#5
4236,Left,1,75,110,646.25,0.239583,Sixteenth,D#5
4237,Right,0,90,110,646.25,0.239583,Sixteenth,F#6
4238,Right,0,89,110,646.5,0.239583,Sixteenth,F6
4239,Left,1,73,110,646.5,0.239583,Sixteenth,C#5
4241,Right,0,87,110,646.75,0.239583,Sixteenth,D#6
4240,Left,1,72,110,646.75,0.239583,Sixteenth,C5
4242,Left,1,73,110,647.0,0.239583,Sixteenth,C#5
4243,Right,0,89,110,647.0,0.239583,Sixteenth,F6
4244,Right,0,90,110,647.25,0.239583,Sixteenth,F#6
4245,Left,1,75,110,647.25,0.239583,Sixteenth,D#5
4246,Right,0,89,110,647.5,0.239583,Sixteenth,F6
4247,Left,1,73,110,647.5,0.239583,Sixteenth,C#5
4248,Left,1,71,110,647.75,0.239583,Sixteenth,B4
4249,Right,0,87,110,647.75,0.239583,Sixteenth,D#6
4250,Right,0,86,110,648.0,0.239583,Sixteenth,D6
4251,Left,1,70,110,648.0,0.239583,Sixteenth,A#4
4252,Left,1,74,110,648.25,0.239583,Sixteenth,D5
4253,Right,0,89,110,648.25,0.239583,Sixteenth,F6
4255,Right,0,92,110,648.5,0.239583,Sixteenth,G#6
4254,Left,1,77,110,648.5,0.239583,Sixteenth,F5
4256,Left,1,80,110,648.75,0.239583,Sixteenth,G#5
4257,Right,0,95,110,648.75,0.239583,Sixteenth,B6
4258,Left,1,78,110,649.0,0.239583,Sixteenth,F#5
4259,Right,0,94,110,649.0,0.239583,Sixteenth,A#6
4261,Left,1,80,110,649.25,0.239583,Sixteenth,G#5
4260,Right,0,95,110,649.25,0.239583,Sixteenth,B6
4262,Left,1,78,110,649.5,0.239583,Sixteenth,F#5
4263,Right,0,94,110,649.5,0.239583,Sixteenth,A#6
4264,Left,1,77,110,649.75,0.239583,Sixteenth,F5
4265,Right,0,92,110,649.75,0.239583,Sixteenth,G#6
4266,Left,1,75,110,650.0,0.239583,Sixteenth,D#5
4267,Right,0,90,110,650.0,0.239583,Sixteenth,F#6
4269,Right,0,92,110,650.25,0.239583,Sixteenth,G#6
4268,Left,1,77,110,650.25,0.239583,Sixteenth,F5
4271,Left,1,75,110,650.5,0.239583,Sixteenth,D#5
4270,Right,0,90,110,650.5,0.239583,Sixteenth,F#6
4273,Right,0,89,110,650.75,0.239583,Sixteenth,F6
4272,Left,1,74,110,650.75,0.239583,Sixteenth,D5
4274,Right,0,90,110,651.0,0.239583,Sixteenth,F#6
4275,Left,1,75,110,651.0,0.239583,Sixteenth,D#5
4277,Left,1,77,110,651.25,0.239583,Sixteenth,F5
4276,Right,0,92,110,651.25,0.239583,Sixteenth,G#6
4278,Right,0,90,110,651.5,0.239583,Sixteenth,F#6
4279,Left,1,75,110,651.5,0.239583,Sixteenth,D#5
4281,Left,1,73,110,651.75,0.239583,Sixteenth,C#5
4280,Right,0,89,110,651.75,0.239583,Sixteenth,F6
4282,Left,1,72,110,652.0,0.239583,Sixteenth,C5
4283,Right,0,88,110,652.0,0.239583,Sixteenth,E6
4284,Left,1,76,110,652.25,0.239583,Sixteenth,E5
4285,Right,0,91,110,652.25,0.239583,Sixteenth,G6
4287,Left,1,79,110,652.5,0.239583,Sixteenth,G5
4286,Right,0,94,110,652.5,0.239583,Sixteenth,A#6
4289,Left,1,77,110,652.75,0.239583,Sixteenth,F5
4288,Right,0,85,110,652.75,0.239583,Sixteenth,C#6
4290,Right,0,84,110,653.0,0.239583,Sixteenth,C6
4291,Left,1,76,110,653.0,0.239583,Sixteenth,E5
4293,Right,0,85,110,653.25,0.239583,Sixteenth,C#6
4292,Left,1,77,110,653.25,0.239583,Sixteenth,F5
4295,Right,0,84,110,653.5,0.239583,Sixteenth,C6
4294,Left,1,76,110,653.5,0.239583,Sixteenth,E5
4296,Right,0,82,110,653.75,0.239583,Sixteenth,A#5
4297,Left,1,79,110,653.75,0.239583,Sixteenth,G5
4298,Right,0,80,110,654.0,0.239583,Sixteenth,G#5
4299,Left,1,77,110,654.0,0.239583,Sixteenth,F5
4301,Left,1,79,110,654.25,0.239583,Sixteenth,G5
4300,Right,0,82,110,654.25,0.239583,Sixteenth,A#5
4303,Left,1,77,110,654.5,0.239583,Sixteenth,F5
4302,Right,0,80,110,654.5,0.239583,Sixteenth,G#5
4305,Right,0,79,110,654.75,0.239583,Sixteenth,G5
4304,Left,1,76,110,654.75,0.239583,Sixteenth,E5
4307,Left,1,77,110,655.0,0.239583,Sixteenth,F5
4306,Right,0,80,110,655.0,0.239583,Sixteenth,G#5
4309,Left,1,79,110,655.25,0.239583,Sixteenth,G5
4308,Right,0,82,110,655.25,0.239583,Sixteenth,A#5
4311,Right,0,80,110,655.5,0.239583,Sixteenth,G#5
4310,Left,1,77,110,655.5,0.239583,Sixteenth,F5
4313,Right,0,79,110,655.75,0.239583,Sixteenth,G5
4312,Left,1,75,110,655.75,0.239583,Sixteenth,D#5
4315,Right,0,78,110,656.0,0.239583,Sixteenth,F#5
4314,Left,1,74,110,656.0,0.239583,Sixteenth,D5
4316,Right,0,81,110,656.25,0.239583,Sixteenth,A5
4317,Left,1,78,110,656.25,0.239583,Sixteenth,F#5
4318,Left,1,81,110,656.5,0.239583,Sixteenth,A5
4319,Right,0,84,110,656.5,0.239583,Sixteenth,C6
4321,Right,0,87,110,656.75,0.239583,Sixteenth,D#6
4320,Left,1,84,110,656.75,0.239583,Sixteenth,C6
4322,Left,1,82,110,657.0,0.239583,Sixteenth,A#5
4323,Right,0,86,110,657.0,0.239583,Sixteenth,D6
4324,Left,1,84,110,657.25,0.239583,Sixteenth,C6
4325,Right,0,87,110,657.25,0.239583,Sixteenth,D#6
4326,Left,1,82,110,657.5,0.239583,Sixteenth,A#5
4327,Right,0,86,110,657.5,0.239583,Sixteenth,D6
4328,Right,0,84,110,657.75,0.239583,Sixteenth,C6
4329,Left,1,81,110,657.75,0.239583,Sixteenth,A5
4330,Right,0,82,110,658.0,0.239583,Sixteenth,A#5
4331,Left,1,79,110,658.0,0.239583,Sixteenth,G5
4333,Right,0,84,110,658.25,0.239583,Sixteenth,C6
4332,Left,1,81,110,658.25,0.239583,Sixteenth,A5
4335,Right,0,82,110,658.5,0.239583,Sixteenth,A#5
4334,Left,1,79,110,658.5,0.239583,Sixteenth,G5
4336,Right,0,81,110,658.75,0.239583,Sixteenth,A5
4337,Left,1,78,110,658.75,0.239583,Sixteenth,F#5
4338,Right,0,83,110,659.0,0.239583,Sixteenth,B5
4339,Left,1,79,110,659.0,0.239583,Sixteenth,G5
4340,Right,0,84,110,659.25,0.239583,Sixteenth,C6
4341,Left,1,81,110,659.25,0.239583,Sixteenth,A5
4342,Right,0,83,110,659.5,0.239583,Sixteenth,B5
4343,Left,1,79,110,659.5,0.239583,Sixteenth,G5
4344,Right,0,81,110,659.75,0.239583,Sixteenth,A5
4345,Left,1,78,110,659.75,0.239583,Sixteenth,F#5
4346,Right,0,83,110,660.0,0.239583,Sixteenth,B5
4347,Left,1,79,110,660.0,0.239583,Sixteenth,G5
4348,Left,1,83,110,660.25,0.239583,Sixteenth,B5
4349,Right,0,86,110,660.25,0.239583,Sixteenth,D6
4350,Right,0,89,110,660.5,0.239583,Sixteenth,F6
4351,Left,1,86,110,660.5,0.239583,Sixteenth,D6
4352,Right,0,92,110,660.75,0.239583,Sixteenth,G#6
4353,Left,1,89,110,660.75,0.239583,Sixteenth,F6
4355,Left,1,87,110,661.0,0.239583,Sixteenth,D#6
4354,Right,0,91,110,661.0,0.239583,Sixteenth,G6
4356,Left,1,89,110,661.25,0.239583,Sixteenth,F6
4357,Right,0,92,110,661.25,0.239583,Sixteenth,G#6
4358,Left,1,87,110,661.5,0.239583,Sixteenth,D#6
4359,Right,0,91,110,661.5,0.239583,Sixteenth,G6
4360,Right,0,89,110,661.75,0.239583,Sixteenth,F6
4361,Left,1,86,110,661.75,0.239583,Sixteenth,D6
4363,Right,0,87,110,662.0,0.239583,Sixteenth,D#6
4362,Left,1,84,110,662.0,0.239583,Sixteenth,C6
4364,Right,0,89,110,662.25,0.239583,Sixteenth,F6
4365,Left,1,86,110,662.25,0.239583,Sixteenth,D6
4367,Right,0,87,110,662.5,0.239583,Sixteenth,D#6
4366,Left,1,84,110,662.5,0.239583,Sixteenth,C6
4369,Left,1,83,110,662.75,0.239583,Sixteenth,B5
4368,Right,0,86,110,662.75,0.239583,Sixteenth,D6
4371,Left,1,84,110,663.0,0.239583,Sixteenth,C6
4370,Right,0,87,110,663.0,0.239583,Sixteenth,D#6
4372,Right,0,89,110,663.25,0.239583,Sixteenth,F6
4373,Left,1,86,110,663.25,0.239583,Sixteenth,D6
4375,Left,1,84,110,663.5,0.239583,Sixteenth,C6
4374,Right,0,87,110,663.5,0.239583,Sixteenth,D#6
4376,Left,1,83,110,663.75,0.239583,Sixteenth,B5
4377,Right,0,86,110,663.75,0.239583,Sixteenth,D6
4378,Right,0,87,110,664.0,0.239583,Sixteenth,D#6
4379,Left,1,84,110,664.0,0.489583,Eighth,C6
4380,Right,0,91,110,664.25,0.239583,Sixteenth,G6
4381,Right,0,93,110,664.5,0.239583,Sixteenth,A6
4382,Left,1,43,110,664.5,0.239583,Sixteenth,G2
4384,Left,1,41,110,664.75,0.239583,Sixteenth,F2
4383,Right,0,95,110,664.75,0.239583,Sixteenth,B6
4385,Left,1,43,110,665.0,0.489583,Eighth,G2_D#2
4386,Right,0,96,110,665.0,1.989583,Half,C7
4388,Left,1,48,110,665.25,0.489583,Eighth,C3
4389,Left,1,39,110,665.5,0.489583,Eighth,G2_D#2
4391,Left,1,48,110,665.75,0.489583,Eighth,C3
4392,Left,1,43,110,666.0,0.489583,Eighth,G2_D#2
4394,Left,1,48,110,666.25,0.489583,Eighth,C3
4395,Left,1,43,110,666.5,0.489583,Eighth,G2_D#2
4397,Left,1,48,110,666.75,0.239583,Sixteenth,C3
4401,Right,0,36,110,667.0,1.989583,Half,C2
4398,Left,1,40,110,667.0,0.489583,Eighth,G2_E2_A#2
4402,Left,1,48,110,667.25,0.489583,Eighth,C3
4403,Left,1,46,110,667.5,0.489583,Eighth,G2_E2_A#2
4406,Left,1,48,110,667.75,0.489583,Eighth,C3
4407,Left,1,46,110,668.0,0.489583,Eighth,G2_E2_A#2
4410,Left,1,48,110,668.25,0.489583,Eighth,C3
4411,Left,1,46,110,668.5,0.489583,Eighth,G2_E2_A#2
4414,Left,1,48,110,668.75,0.239583,Sixteenth,C3
4415,Left,1,41,110,669.0,0.489583,Eighth,G#2_F2
4417,Right,0,29,110,669.0,1.989583,Half,F1
4418,Left,1,48,110,669.25,0.489583,Eighth,C3
4419,Left,1,41,110,669.5,0.489583,Eighth,G#2_F2
4421,Left,1,48,110,669.75,0.489583,Eighth,C3
4422,Left,1,44,110,670.0,0.489583,Eighth,G#2_F2
4424,Left,1,48,110,670.25,0.489583,Eighth,C3
4425,Left,1,41,110,670.5,0.489583,Eighth,G#2_F2
4427,Left,1,48,110,670.75,0.239583,Sixteenth,C3
4428,Right,0,99,110,671.0,1.989583,Half,D#7
4429,Left,1,42,110,671.0,0.489583,Eighth,F#2_C3_A2
4432,Left,1,51,110,671.25,0.489583,Eighth,D#3
4433,Left,1,42,110,671.5,0.489583,Eighth,F#2_C3_A2
4436,Left,1,51,110,671.75,0.489583,Eighth,D#3
4437,Left,1,48,110,672.0,0.489583,Eighth,F#2_C3_A2
4440,Left,1,51,110,672.25,0.489583,Eighth,D#3
4441,Left,1,48,110,672.5,0.489583,Eighth,F#2_C3_A2
4444,Left,1,51,110,672.75,0.239583,Sixteenth,D#3
4445,Left,1,43,110,673.0,3.739583,Whole,G2_G1
4447,Right,0,91,110,674.0,2.989583,DottedHalf,G6
4448,Right,0,88,80,676.0,0.989583,Quarter,E6
4450,Left,1,55,80,676.75,0.239583,Sixteenth,G4_G3_E4
4449,Right,0,84,80,676.75,0.239583,Sixteenth,C6
4453,Right,0,84,80,677.0,0.989583,Quarter,C6
4454,Left,1,55,80,677.0,1.489583,DottedQuarter,G3_F4_D4
4457,Right,0,83,80,678.0,0.489583,Eighth,B5
4461,Right,0,81,80,678.75,0.239583,Sixteenth,A5
4458,Left,1,55,80,678.75,0.239583,Sixteenth,G3_E4_C4
4465,Right,0,81,80,679.0,0.989583,Quarter,A5
4462,Left,1,64,80,679.0,0.989583,Quarter,G3_E4_C4
4467,Left,1,62,80,680.0,0.489583,Eighth,G3_D4_B3
4466,Right,0,79,80,680.0,0.489583,Eighth,G5
4472,Left,1,55,80,680.75,0.239583,Sixteenth,G3_D4_B3
4470,Right,0,77,80,680.75,0.239583,Sixteenth,F6_F5_D6
4476,Left,1,59,80,681.0,0.989583,Quarter,G3_D4_B3
4478,Right,0,77,80,681.0,0.989583,Quarter,F6_F5_D6
4485,Left,1,64,80,682.0,0.989583,Quarter,G3_E4_C4
4482,Right,0,76,80,682.0,0.989583,Quarter,E6_E5_C6
4488,Right,0,91,80,683.083333,0.072917,TripletThirtySecond,G6
4489,Right,0,90,80,683.166667,0.072917,TripletThirtySecond,F#6
4490,Right,0,91,80,683.25,0.072917,TripletThirtySecond,G6
4491,Right,0,93,80,683.333333,0.072917,TripletThirtySecond,A6
4492,Right,0,91,80,683.416667,0.072917,TripletThirtySecond,G6
4493,Right,0,87,80,683.5,0.072917,TripletThirtySecond,D#6
4494,Right,0,87,80,683.583333,0.072917,TripletThirtySecond,D#6
4495,Right,0,89,80,683.666667,0.072917,TripletThirtySecond,F6
4496,Right,0,87,80,683.75,0.072917,TripletThirtySecond,D#6
4497,Right,0,83,80,683.833333,0.072917,TripletThirtySecond,B5
4498,Right,0,84,80,683.916667,0.072917,TripletThirtySecond,C6
4499,Right,0,86,80,684.0,0.09375,TripletThirtySecond,D6
4500,Right,0,84,80,684.104167,0.104167,ThirtySecond,C6
4501,Right,0,78,80,684.21875,0.09375,TripletThirtySecond,F#5
4502,Right,0,79,80,684.322917,0.104167,ThirtySecond,G5
4503,Right,0,80,80,684.4375,0.09375,TripletThirtySecond,G#5
4504,Right,0,81,80,684.541667,0.104167,ThirtySecond,A5
4505,Right,0,79,80,684.65625,0.09375,TripletThirtySecond,G5
4506,Right,0,76,80,684.760417,0.104167,ThirtySecond,E5
4507,Right,0,72,80,684.875,0.09375,TripletThirtySecond,C5
4508,Left,1,53,80,685.0,1.489583,DottedQuarter,G2_F3_D3
4511,Right,0,72,80,685.0,0.177083,TripletSixteenth,C5
4512,Right,0,71,80,685.1875,0.177083,TripletSixteenth,B4
4513,Right,0,72,80,685.375,0.1875,TripletSixteenth,C5
4514,Right,0,74,80,685.572917,0.1875,TripletSixteenth,D5
4515,Right,0,72,80,685.770833,0.197917,TripletSixteenth,C5
4516,Right,0,71,80,686.0,0.489583,Eighth,B4
4520,Right,0,60,80,686.75,0.239583,Sixteenth,F4_C4_A4
4517,Left,1,53,80,686.75,0.239583,Sixteenth,G2_F3_C3
4523,Right,0,69,80,687.0,0.177083,TripletSixteenth,A4
4524,Left,1,47,80,687.0,1.489583,DottedQuarter,G2_F3_B2
4527,Right,0,67,80,687.1875,0.177083,TripletSixteenth,G4
4528,Right,0,69,80,687.375,0.1875,TripletSixteenth,A4
4529,Right,0,71,80,687.572917,0.1875,TripletSixteenth,B4
4530,Right,0,69,80,687.770833,0.197917,TripletSixteenth,A4
4531,Right,0,67,80,688.0,0.489583,Eighth,G4
4534,Right,0,71,80,688.75,0.239583,Sixteenth,F5_B4
4532,Left,1,55,80,688.75,0.239583,Sixteenth,G3_D4
4536,Left,1,62,80,689.0,0.989583,Quarter,G#3_D4
4537,Right,0,77,80,689.0,0.989583,Quarter,F5_B4
4542,Left,1,57,80,690.0,0.989583,Quarter,C4_A3
4540,Right,0,76,80,690.0,0.989583,Quarter,E5_C5
4547,Right,0,81,80,692.75,0.239583,Sixteenth,G4_D5_A5
4544,Left,1,53,80,692.75,0.239583,Sixteenth,G3_F3_B3
4553,Left,1,59,80,693.0,0.989583,Quarter,G3_F3_B3
4550,Right,0,74,80,693.0,0.989583,Quarter,G4_D5_A5
4556,Right,0,67,80,694.0,0.989583,Quarter,G5_G4
4557,Left,1,52,80,694.0,0.989583,Quarter,G3_E3_C4
4562,Right,0,80,80,696.75,0.239583,Sixteenth,G#5_D5
4561,Left,1,71,80,696.75,0.239583,Sixteenth,F4_B4
4565,Left,1,65,80,697.0,0.989583,Quarter,F4_B4
4567,Right,0,80,80,697.0,0.989583,Quarter,G#5_D5
4569,Left,1,64,80,698.0,1.989583,Half,E4_A#4
4571,Right,0,79,80,698.0,1.989583,Half,G5_C#5
4575,Right,0,77,80,700.0,1.989583,Half,G5_F5_A#5
4573,Left,1,67,80,700.0,1.989583,Half,G4_C#4_A#4
4581,Left,1,61,80,702.0,2.489583,Half,G4_C#4_A#4
4579,Right,0,79,110,702.0,2.489583,Half,G5_E5_A#5
4585,Right,0,81,104,703.5,0.489583,Eighth,A5
4586,Right,0,82,112,704.0,0.489583,Eighth,A#5
4587,Right,0,77,120,704.5,0.489583,Eighth,G#5_F5_B5
4589,Left,1,61,120,704.5,0.489583,Eighth,G#4_F4_C#4
4593,Left,1,60,80,705.0,2.989583,DottedHalf,C4_C3
4595,Right,0,72,80,705.291667,0.239583,Sixteenth,C5
4596,Right,0,77,80,705.5,0.239583,Sixteenth,F5
4597,Right,0,80,80,705.75,0.239583,Sixteenth,G#5
4598,Right,0,84,80,706.0,0.989583,Quarter,C6
4599,Right,0,72,80,707.291667,0.239583,Sixteenth,C5
4600,Right,0,77,80,707.5,0.239583,Sixteenth,F5
4601,Right,0,80,80,707.75,0.239583,Sixteenth,G#5
4602,Left,1,56,80,708.0,0.739583,DottedEighth,G#3_G#2
4604,Right,0,84,80,708.0,0.989583,Quarter,C6
4605,Left,1,41,80,708.75,0.239583,Sixteenth,F3_F2
4607,Left,1,41,80,709.0,0.989583,Quarter,F3_F2
4609,Right,0,72,80,709.25,0.239583,Sixteenth,C5
4610,Right,0,79,80,709.5,0.239583,Sixteenth,G5
4611,Right,0,82,80,709.75,0.239583,Sixteenth,A#5
4612,Left,1,40,80,710.0,0.489583,Eighth,E3_E2
4613,Right,0,84,80,710.0,0.989583,Quarter,C6
4615,Left,1,49,80,710.75,0.239583,Sixteenth,C#3_C#2
4617,Left,1,49,80,711.0,0.989583,Quarter,C#3_C#2
4619,Right,0,72,80,711.25,0.239583,Sixteenth,C5
4620,Right,0,76,80,711.5,0.239583,Sixteenth,E5
4621,Right,0,79,80,711.75,0.239583,Sixteenth,G5
4622,Left,1,36,80,712.0,0.489583,Eighth,C3_C2
4624,Right,0,84,80,712.0,0.989583,Quarter,C6
4625,Left,1,58,80,712.75,0.239583,Sixteenth,A#3_A#2
4627,Left,1,46,80,713.0,0.989583,Quarter,A#3_A#2
4629,Right,0,72,80,713.25,0.239583,Sixteenth,C5
4630,Right,0,77,80,713.5,0.239583,Sixteenth,F5
4631,Right,0,80,80,713.75,0.239583,Sixteenth,G#5
4633,Left,1,56,80,714.0,0.989583,Quarter,G#3_G#2
4632,Right,0,84,80,714.0,0.239583,Sixteenth,C6
4635,Right,0,88,80,714.25,0.239583,Sixteenth,E6
4636,Right,0,89,80,714.5,0.239583,Sixteenth,F6
4637,Right,0,84,80,714.75,0.239583,Sixteenth,C6
4638,Right,0,87,80,715.0,0.15625,TripletSixteenth,D#6
4639,Right,0,85,80,715.166667,0.15625,TripletSixteenth,C#6
4640,Right,0,82,80,715.333333,0.15625,TripletSixteenth,A#5
4641,Right,0,85,80,715.5,0.15625,TripletSixteenth,C#6
4642,Right,0,84,80,715.666667,0.15625,TripletSixteenth,C6
4643,Right,0,80,80,715.833333,0.15625,TripletSixteenth,G#5
4644,Right,0,84,80,716.0,0.15625,TripletSixteenth,C6
4645,Right,0,82,80,716.166667,0.15625,TripletSixteenth,A#5
4646,Right,0,79,80,716.333333,0.15625,TripletSixteenth,G5
4647,Right,0,82,80,716.5,0.15625,TripletSixteenth,A#5
4648,Right,0,80,80,716.666667,0.15625,TripletSixteenth,G#5
4649,Right,0,77,80,716.833333,0.15625,TripletSixteenth,F5
4650,Right,0,70,80,717.0,1.489583,DottedQuarter,F5_A#4
4652,Left,1,60,80,717.0,1.489583,DottedQuarter,G3_C4_C3
4655,Right,0,76,80,717.1875,0.177083,TripletSixteenth,E5
4656,Right,0,77,80,717.375,0.1875,TripletSixteenth,F5
4657,Right,0,79,80,717.572917,0.1875,TripletSixteenth,G5
4658,Right,0,77,80,717.770833,0.197917,TripletSixteenth,F5
4659,Right,0,76,80,718.0,0.489583,Eighth,E5
4663,Right,0,68,80,718.75,0.239583,Sixteenth,G#4_C#5
4660,Left,1,53,80,718.75,0.239583,Sixteenth,F3_C4_C3
4665,Right,0,67,80,719.0,1.489583,DottedQuarter,G4_C#5
4666,Left,1,48,80,719.0,2.0,DottedQuarter,D#3_C4_C3
4670,Right,0,72,80,719.1875,0.177083,TripletSixteenth,C5
4671,Right,0,73,80,719.375,0.1875,TripletSixteenth,C#5
4672,Right,0,75,80,719.572917,0.1875,TripletSixteenth,D#5
4673,Right,0,73,80,719.770833,0.197917,TripletSixteenth,C#5
4674,Right,0,72,80,720.0,0.489583,Eighth,C5
4675,Left,1,51,80,720.75,0.239583,Sixteenth,G3_D#3_C4
4678,Right,0,82,80,720.75,0.239583,Sixteenth,A#5
4682,Right,0,82,80,721.0,0.177083,TripletSixteenth,A#5
4679,Left,1,60,80,721.0,0.489583,Eighth,G#3_F3_C4
4683,Right,0,80,80,721.1875,0.177083,TripletSixteenth,G#5
4684,Right,0,82,80,721.375,0.1875,TripletSixteenth,A#5
4685,Left,1,56,81,721.5,0.489583,Eighth,G#3_F3_C4
4688,Right,0,84,81,721.572917,0.1875,TripletSixteenth,C6
4689,Right,0,82,82,721.770833,0.197917,TripletSixteenth,A#5
4690,Right,0,80,82,722.0,0.489583,Eighth,G#5
4693,Right,0,84,83,722.5,0.489583,Eighth,C6
4691,Left,1,63,83,722.5,0.489583,Eighth,F#3_D#4_A3
4695,Left,1,62,85,723.0,0.489583,Eighth,G3_D4_B3
4698,Right,0,84,85,723.0,0.177083,TripletSixteenth,C6
4699,Right,0,83,85,723.1875,0.177083,TripletSixteenth,B5
4700,Right,0,84,86,723.375,0.1875,TripletSixteenth,C6
4701,Left,1,55,86,723.5,0.489583,Eighth,G3_D4_B3
4704,Right,0,86,86,723.572917,0.1875,TripletSixteenth,D6
4705,Right,0,84,87,723.770833,0.197917,TripletSixteenth,C6
4706,Right,0,83,87,724.0,0.489583,Eighth,B5
4707,Right,0,86,89,724.5,0.489583,Eighth,D6
4708,Left,1,65,89,724.5,0.489583,Eighth,G3_F4_B3
4711,Right,0,86,90,725.0,0.177083,TripletSixteenth,D6
4712,Left,1,63,90,725.0,0.489583,Eighth,G#3_D#4_C4
4715,Right,0,84,91,725.1875,0.177083,TripletSixteenth,C6
4716,Right,0,86,91,725.375,0.1875,TripletSixteenth,D6
4717,Left,1,56,91,725.5,0.489583,Eighth,G#3_D#4_C4
4720,Right,0,87,92,725.572917,0.1875,TripletSixteenth,D#6
4721,Right,0,86,92,725.770833,0.197917,TripletSixteenth,D6
4722,Right,0,84,93,726.0,0.489583,Eighth,C6
4723,Left,1,57,94,726.5,0.489583,Eighth,F4_C4_A3
4726,Right,0,87,94,726.5,0.489583,Eighth,D#6
4727,Left,1,65,95,727.0,0.489583,Eighth,F4_D4_A#3
4728,Right,0,87,95,727.0,0.177083,TripletSixteenth,D#6
4731,Right,0,86,96,727.1875,0.177083,TripletSixteenth,D6
4732,Right,0,87,96,727.375,0.1875,TripletSixteenth,D#6
4733,Left,1,65,97,727.5,0.489583,Eighth,F4_D4_A#3
4736,Right,0,89,97,727.572917,0.1875,TripletSixteenth,F6
4737,Right,0,87,97,727.770833,0.197917,TripletSixteenth,D#6
4738,Right,0,86,98,728.0,0.489583,Eighth,D6
4739,Left,1,59,99,728.5,0.489583,Eighth,G4_D4_B3
4740,Right,0,89,99,728.5,0.489583,Eighth,F6
4746,Right,0,89,101,729.0,0.177083,TripletSixteenth,F6
4743,Left,1,67,101,729.0,0.489583,Eighth,G4_D#4_C4
4747,Right,0,87,101,729.1875,0.177083,TripletSixteenth,D#6
4748,Right,0,89,102,729.375,0.1875,TripletSixteenth,F6
4749,Left,1,67,102,729.5,0.489583,Eighth,G4_D#4_C4
4752,Right,0,91,102,729.572917,0.1875,TripletSixteenth,G6
4753,Right,0,89,103,729.770833,0.197917,TripletSixteenth,F6
4754,Right,0,87,103,730.0,0.489583,Eighth,D#6
4758,Right,0,91,105,730.5,0.489583,Eighth,G6
4755,Left,1,67,105,730.5,0.489583,Eighth,G4_D#4_C4
4763,Right,0,91,106,731.0,0.177083,TripletSixteenth,G6
4759,Left,1,71,106,731.0,0.489583,Eighth,G#4_F4_D4_B4
4764,Right,0,89,106,731.1875,0.177083,TripletSixteenth,F6
4765,Right,0,91,107,731.375,0.1875,TripletSixteenth,G6
4766,Left,1,68,107,731.5,0.489583,Eighth,G#4_F4_D4_B4
4770,Right,0,92,107,731.572917,0.1875,TripletSixteenth,G#6
4771,Right,0,91,108,731.770833,0.197917,TripletSixteenth,G6
4772,Right,0,89,109,732.0,0.489583,Eighth,F6
4774,Left,1,68,110,732.5,0.489583,Eighth,G#4_F4_D4_B4
4773,Right,0,92,110,732.5,0.489583,Eighth,G#6
4778,Left,1,63,111,733.0,0.489583,Eighth,G4_D#4_C5
4780,Right,0,92,111,733.0,0.177083,TripletSixteenth,G#6
4782,Right,0,91,112,733.1875,0.177083,TripletSixteenth,G6
4783,Right,0,92,112,733.375,0.1875,TripletSixteenth,G#6
4784,Left,1,67,113,733.5,0.489583,Eighth,G4_D#4_C5
4787,Right,0,94,113,733.572917,0.1875,TripletSixteenth,A#6
4788,Right,0,92,113,733.770833,0.197917,TripletSixteenth,G#6
4789,Right,0,91,114,734.0,0.489583,Eighth,G6
4790,Left,1,72,115,734.5,0.489583,Eighth,G4_E4_C5
4793,Right,0,94,115,734.5,0.489583,Eighth,A#6
4794,Left,1,65,117,735.0,0.489583,Eighth,G#4_F4_C5
4797,Right,0,94,117,735.0,0.177083,TripletSixteenth,A#6
4798,Right,0,92,117,735.1875,0.177083,TripletSixteenth,G#6
4799,Right,0,94,117,735.375,0.1875,TripletSixteenth,A#6
4800,Left,1,72,118,735.5,0.489583,Eighth,G#4_F4_C5
4803,Right,0,96,118,735.572917,0.1875,TripletSixteenth,C7
4804,Right,0,94,119,735.770833,0.197917,TripletSixteenth,A#6
4805,Right,0,92,119,736.0,0.489583,Eighth,G#6
4806,Right,0,95,120,736.5,0.489583,Eighth,B6
4807,Left,1,74,120,736.5,0.489583,Eighth,G#4_F4_D5
4810,Right,0,96,120,737.0,0.239583,Sixteenth,C7
4811,Left,1,66,120,737.0,0.489583,Eighth,F#4_D#5_A4
4814,Right,0,99,120,737.25,0.239583,Sixteenth,D#7
4816,Left,1,81,120,737.5,0.239583,Sixteenth,A5
4815,Right,0,93,120,737.5,0.239583,Sixteenth,A6
4817,Right,0,96,120,737.75,0.239583,Sixteenth,C7
4818,Left,1,84,120,737.760417,0.239583,Sixteenth,C6
4819,Right,0,90,120,738.0,0.239583,Sixteenth,F#6
4820,Left,1,78,120,738.0,0.239583,Sixteenth,F#5
4822,Left,1,81,120,738.25,0.239583,Sixteenth,A5
4821,Right,0,93,120,738.25,0.239583,Sixteenth,A6
4823,Right,0,87,120,738.5,0.239583,Sixteenth,D#6
4824,Left,1,75,120,738.5,0.239583,Sixteenth,D#5
4826,Left,1,78,120,738.75,0.239583,Sixteenth,F#5
4825,Right,0,90,120,738.75,0.239583,Sixteenth,F#6
4827,Left,1,72,120,739.0,0.239583,Sixteenth,C5
4828,Right,0,84,120,739.0,0.239583,Sixteenth,C6
4830,Left,1,75,120,739.25,0.239583,Sixteenth,D#5
4829,Right,0,87,120,739.25,0.239583,Sixteenth,D#6
4831,Left,1,69,120,739.5,0.239583,Sixteenth,A4
4832,Right,0,81,120,739.5,0.239583,Sixteenth,A5
4833,Left,1,72,120,739.75,0.239583,Sixteenth,C5
4834,Right,0,84,120,739.75,0.239583,Sixteenth,C6
4835,Left,1,66,120,740.0,0.239583,Sixteenth,F#4
4836,Right,0,78,120,740.0,0.239583,Sixteenth,F#5
4837,Left,1,69,120,740.25,0.239583,Sixteenth,A4
4838,Right,0,81,120,740.25,0.239583,Sixteenth,A5
4840,Left,1,63,120,740.5,0.239583,Sixteenth,D#4
4839,Right,0,75,120,740.5,0.239583,Sixteenth,D#5
4842,Left,1,66,120,740.75,0.239583,Sixteenth,F#4
4841,Right,0,78,120,740.75,0.239583,Sixteenth,F#5
4844,Left,1,62,120,741.0,0.239583,Sixteenth,D4
4843,Right,0,74,120,741.0,0.239583,Sixteenth,D5
4846,Right,0,77,120,741.25,0.239583,Sixteenth,F5
4845,Left,1,65,120,741.25,0.239583,Sixteenth,F4
4848,Right,0,71,120,741.5,0.239583,Sixteenth,B4
4847,Left,1,59,120,741.5,0.239583,Sixteenth,B3
4850,Right,0,74,120,741.75,0.239583,Sixteenth,D5
4849,Left,1,62,120,741.75,0.239583,Sixteenth,D4
4851,Right,0,68,120,742.0,0.239583,Sixteenth,G#4
4852,Left,1,56,120,742.0,0.239583,Sixteenth,G#3
4854,Right,0,71,120,742.25,0.239583,Sixteenth,B4
4853,Left,1,59,120,742.25,0.239583,Sixteenth,B3
4855,Left,1,53,120,742.5,0.239583,Sixteenth,F3
4856,Right,0,65,120,742.5,0.239583,Sixteenth,F4
4858,Left,1,56,120,742.75,0.239583,Sixteenth,G#3
4857,Right,0,68,120,742.75,0.239583,Sixteenth,G#4
4860,Left,1,50,120,743.0,0.239583,Sixteenth,D3
4859,Right,0,62,120,743.0,0.239583,Sixteenth,D4
4861,Right,0,65,120,743.25,0.239583,Sixteenth,F4
4862,Left,1,53,120,743.25,0.239583,Sixteenth,F3
4863,Right,0,59,120,743.5,0.239583,Sixteenth,B3
4864,Left,1,47,120,743.5,0.239583,Sixteenth,B2
4865,Right,0,62,120,743.75,0.239583,Sixteenth,D4
4866,Left,1,50,120,743.75,0.239583,Sixteenth,D3
4867,Right,0,56,120,744.0,0.239583,Sixteenth,G#3
4868,Left,1,44,120,744.0,0.239583,Sixteenth,G#2
4869,Right,0,59,120,744.25,0.239583,Sixteenth,B3
4870,Left,1,47,120,744.25,0.239583,Sixteenth,B2
4872,Right,0,53,120,744.5,0.239583,Sixteenth,F3
4871,Left,1,41,120,744.5,0.239583,Sixteenth,F2
4874,Right,0,56,120,744.75,0.239583,Sixteenth,G#3
4873,Left,1,44,120,744.75,0.239583,Sixteenth,G#2
4876,Right,0,55,80,745.0,0.239583,Sixteenth,G3
4875,Left,1,43,80,745.0,0.239583,Sixteenth,G2
4878,Right,0,59,82,745.25,0.239583,Sixteenth,B3
4877,Left,1,47,82,745.25,0.239583,Sixteenth,B2
4880,Left,1,48,85,745.5,0.239583,Sixteenth,C3
4879,Right,0,60,85,745.5,0.239583,Sixteenth,C4
4881,Right,0,62,88,745.75,0.239583,Sixteenth,D4
4882,Left,1,50,88,745.75,0.239583,Sixteenth,D3
4883,Right,0,63,90,746.0,0.239583,Sixteenth,D#4
4884,Left,1,51,90,746.0,0.239583,Sixteenth,D#3
4885,Right,0,65,93,746.25,0.239583,Sixteenth,F4
4886,Left,1,53,93,746.25,0.239583,Sixteenth,F3
4888,Right,0,67,96,746.5,0.239583,Sixteenth,G4
4887,Left,1,55,96,746.5,0.239583,Sixteenth,G3
4889,Right,0,68,99,746.75,0.239583,Sixteenth,G#4
4890,Left,1,56,99,746.75,0.239583,Sixteenth,G#3
4892,Right,0,71,101,747.0,0.239583,Sixteenth,B4
4891,Left,1,59,101,747.0,0.239583,Sixteenth,B3
4893,Left,1,60,104,747.25,0.239583,Sixteenth,C4
4894,Right,0,72,104,747.25,0.239583,Sixteenth,C5
4896,Left,1,62,107,747.5,0.239583,Sixteenth,D4
4895,Right,0,74,107,747.5,0.239583,Sixteenth,D5
4898,Left,1,63,109,747.75,0.239583,Sixteenth,D#4
4897,Right,0,75,109,747.75,0.239583,Sixteenth,D#5
4900,Left,1,65,112,748.0,0.239583,Sixteenth,F4
4899,Right,0,77,112,748.0,0.239583,Sixteenth,F5
4901,Left,1,66,115,748.25,0.239583,Sixteenth,F#4
4902,Right,0,78,115,748.25,0.239583,Sixteenth,F#5
4903,Left,1,67,118,748.5,0.489583,Eighth,G4
4904,Right,0,79,118,748.5,0.239583,Sixteenth,G5
4905,Right,0,78,120,748.75,0.239583,Sixteenth,F#5
4907,Left,1,36,120,749.0,0.989583,Quarter,C3_C2
4906,Right,0,80,120,749.0,0.239583,Sixteenth,G#5
4909,Right,0,79,120,749.25,0.239583,Sixteenth,G5
4910,Right,0,75,120,749.5,0.239583,Sixteenth,D#5
4911,Right,0,72,120,749.75,0.239583,Sixteenth,C5
4914,Right,0,80,120,750.0,0.239583,Sixteenth,G#5
4912,Left,1,39,120,750.0,0.989583,Quarter,D#3_D#2
4915,Right,0,79,120,750.25,0.239583,Sixteenth,G5
4916,Right,0,75,120,750.5,0.239583,Sixteenth,D#5
4917,Right,0,72,120,750.75,0.239583,Sixteenth,C5
4920,Right,0,80,120,751.0,0.239583,Sixteenth,G#5
4918,Left,1,47,120,751.0,1.989583,Half,B2_B1
4921,Right,0,79,120,751.25,0.239583,Sixteenth,G5
4922,Right,0,77,120,751.5,0.239583,Sixteenth,F5
4923,Right,0,74,120,751.75,0.239583,Sixteenth,D5
4924,Right,0,80,120,752.0,0.239583,Sixteenth,G#5
4925,Right,0,79,120,752.25,0.239583,Sixteenth,G5
4926,Right,0,77,120,752.5,0.239583,Sixteenth,F5
4927,Right,0,74,120,752.75,0.239583,Sixteenth,D5
4928,Right,0,85,120,753.0,0.239583,Sixteenth,C#6
4929,Left,1,46,120,753.0,0.989583,Quarter,A#2_A#1
4931,Right,0,84,120,753.25,0.239583,Sixteenth,C6
4932,Right,0,79,120,753.5,0.239583,Sixteenth,G5
4933,Right,0,76,120,753.75,0.239583,Sixteenth,E5
4936,Right,0,85,120,754.0,0.239583,Sixteenth,C#6
4934,Left,1,48,120,754.0,0.989583,Quarter,C3_C2
4937,Right,0,84,120,754.25,0.239583,Sixteenth,C6
4938,Right,0,79,120,754.5,0.239583,Sixteenth,G5
4939,Right,0,76,120,754.75,0.239583,Sixteenth,E5
4941,Left,1,45,120,755.0,1.989583,Half,A2_A1
4940,Right,0,91,120,755.0,0.239583,Sixteenth,G6
4943,Right,0,89,120,755.25,0.239583,Sixteenth,F6
4944,Right,0,84,120,755.5,0.239583,Sixteenth,C6
4945,Right,0,77,120,755.75,0.239583,Sixteenth,F5
4946,Right,0,91,120,756.0,0.239583,Sixteenth,G6
4947,Right,0,89,120,756.25,0.239583,Sixteenth,F6
4948,Right,0,84,120,756.5,0.239583,Sixteenth,C6
4949,Right,0,77,120,756.75,0.239583,Sixteenth,F5
4951,Right,0,91,120,757.0,0.239583,Sixteenth,G6
4950,Left,1,44,120,757.0,0.989583,Quarter,G#2_G#1
4953,Right,0,90,120,757.25,0.239583,Sixteenth,F#6
4954,Right,0,87,120,757.5,0.239583,Sixteenth,D#6
4955,Right,0,84,120,757.75,0.239583,Sixteenth,C6
4956,Left,1,48,120,758.0,0.989583,Quarter,C3_C2
4958,Right,0,91,120,758.0,0.239583,Sixteenth,G6
4959,Right,0,90,120,758.25,0.239583,Sixteenth,F#6
4960,Right,0,87,120,758.5,0.239583,Sixteenth,D#6
4961,Right,0,84,120,758.75,0.239583,Sixteenth,C6
4963,Left,1,43,120,759.0,0.989583,Quarter,G2_G1
4962,Right,0,92,120,759.0,0.239583,Sixteenth,G#6
4965,Right,0,91,120,759.25,0.239583,Sixteenth,G6
4966,Right,0,87,120,759.5,0.239583,Sixteenth,D#6
4967,Right,0,84,120,759.75,0.239583,Sixteenth,C6
4969,Right,0,89,120,760.0,0.239583,Sixteenth,F6
4968,Left,1,48,120,760.0,0.739583,DottedEighth,C3_C2
4971,Right,0,87,120,760.25,0.239583,Sixteenth,D#6
4972,Right,0,84,120,760.5,0.239583,Sixteenth,C6
4974,Right,0,79,120,760.75,0.239583,Sixteenth,G5
4973,Left,1,51,120,760.75,0.239583,Sixteenth,D#3_D#2
4978,Right,0,89,120,761.0,0.239583,Sixteenth,F6
4976,Left,1,43,120,761.0,0.989583,Quarter,G3_G2
4979,Right,0,87,120,761.25,0.239583,Sixteenth,D#6
4980,Right,0,84,120,761.5,0.239583,Sixteenth,C6
4981,Right,0,79,120,761.75,0.239583,Sixteenth,G5
4982,Right,0,87,120,762.0,0.239583,Sixteenth,D#6
4983,Left,1,31,120,762.0,0.989583,Quarter,G2_G1
4985,Right,0,86,120,762.25,0.239583,Sixteenth,D6
4986,Right,0,83,120,762.5,0.239583,Sixteenth,B5
4987,Right,0,77,120,762.75,0.239583,Sixteenth,F5
4988,Right,0,79,120,763.0,0.989583,Eighth,G5_D#5_C6
4991,Left,1,62,120,763.25,0.239583,Sixteenth,D4
4992,Right,0,79,120,763.5,0.489583,Eighth,G5_D#5
4993,Left,1,60,120,763.5,0.239583,Sixteenth,C4
4995,Left,1,59,120,763.75,0.239583,Sixteenth,B3
4996,Left,1,60,120,764.0,0.239583,Sixteenth,C4
4997,Right,0,75,120,764.0,0.989583,Eighth,G5_D#6_D#5
5000,Left,1,62,120,764.25,0.239583,Sixteenth,D4
5003,Left,1,63,120,764.5,0.239583,Sixteenth,D#4
5001,Right,0,75,120,764.5,0.489583,Eighth,G5_D#5
5004,Left,1,60,120,764.75,0.239583,Sixteenth,C4
5005,Right,0,74,120,765.0,1.989583,Eighth,G5_D5_B5
5008,Left,1,45,120,765.25,0.239583,Sixteenth,A2
5010,Right,0,74,120,765.5,0.489583,Eighth,G5_D5
5009,Left,1,43,120,765.5,0.239583,Sixteenth,G2
5012,Left,1,42,120,765.75,0.239583,Sixteenth,F#2
5013,Right,0,74,120,766.0,0.489583,Eighth,G5_D5
5014,Left,1,43,120,766.0,0.239583,Sixteenth,G2
5016,Left,1,45,120,766.25,0.239583,Sixteenth,A2
5018,Left,1,47,120,766.5,0.239583,Sixteenth,B2
5017,Right,0,74,120,766.5,0.489583,Eighth,G5_D5
5020,Left,1,43,120,766.75,0.239583,Sixteenth,G2
5021,Right,0,79,120,767.0,0.989583,Eighth,G5_C5_A#5
5024,Left,1,65,120,767.25,0.239583,Sixteenth,F4
5025,Right,0,79,120,767.5,0.489583,Eighth,G5_C5
5026,Left,1,64,120,767.5,0.239583,Sixteenth,E4
5028,Left,1,62,120,767.75,0.239583,Sixteenth,D4
5032,Left,1,64,120,768.0,0.239583,Sixteenth,E4
5029,Right,0,72,120,768.0,0.989583,Eighth,G5_C6_C5
5033,Left,1,65,120,768.25,0.239583,Sixteenth,F4
5034,Left,1,67,120,768.5,0.239583,Sixteenth,G4
5035,Right,0,79,120,768.5,0.489583,Eighth,G5_C5
5037,Left,1,64,120,768.75,0.239583,Sixteenth,E4
5038,Right,0,72,120,769.0,1.989583,Eighth,C5_A5
5040,Left,1,43,120,769.25,0.239583,Sixteenth,G2
5041,Left,1,41,120,769.5,0.239583,Sixteenth,F2
5042,Right,0,77,120,769.5,0.489583,TripletSixtyFourth,F5_C5
5044,Left,1,40,120,769.75,0.239583,Sixteenth,E2
5045,Right,0,77,120,770.0,0.489583,Eighth,F5_C5
5046,Left,1,41,120,770.0,0.239583,Sixteenth,F2
5048,Left,1,43,120,770.25,0.239583,Sixteenth,G2
5049,Right,0,72,120,770.5,0.489583,Eighth,F5_C5
5051,Left,1,45,120,770.5,0.239583,Sixteenth,A2
5052,Left,1,41,120,770.75,0.239583,Sixteenth,F2
5053,Right,0,80,120,771.0,0.989583,Eighth,G#5_F5_C5
5056,Left,1,55,120,771.25,0.239583,Sixteenth,G3
5057,Right,0,72,120,771.5,0.489583,Eighth,F5_C5
5059,Left,1,53,120,771.5,0.239583,Sixteenth,F3
5060,Left,1,52,120,771.75,0.239583,Sixteenth,E3
5061,Right,0,84,120,772.0,0.989583,Eighth,F5_C6_C5
5064,Left,1,53,120,772.0,0.239583,Sixteenth,F3
5065,Left,1,55,120,772.25,0.239583,Sixteenth,G3
5066,Right,0,75,120,772.5,0.489583,Eighth,D#5_C5
5068,Left,1,56,120,772.5,0.239583,Sixteenth,G#3
5069,Left,1,54,120,772.75,0.239583,Sixteenth,F#3
5072,Left,1,55,120,773.0,0.239583,Sixteenth,G3
5070,Right,0,72,120,773.0,0.989583,Quarter,G5_D#5_C5
5074,Left,1,51,120,773.25,0.239583,Sixteenth,D#3
5075,Left,1,48,120,773.5,0.239583,Sixteenth,C3
5076,Left,1,43,120,773.75,0.239583,Sixteenth,G2
5077,Left,1,39,120,774.0,0.239583,Sixteenth,D#2
5078,Right,0,84,120,774.0,0.739583,DottedEighth,C6_C5
5080,Left,1,43,120,774.25,0.239583,Sixteenth,G2
5081,Left,1,39,120,774.5,0.239583,Sixteenth,D#2
5083,Right,0,87,120,774.75,0.239583,Sixteenth,D#6_D#5
5082,Left,1,36,120,774.75,0.239583,Sixteenth,C2
5085,Right,0,91,120,775.0,0.489583,Eighth,G6_G5
5087,Left,1,35,120,775.0,0.239583,Sixteenth,B1
5088,Left,1,43,120,775.25,0.239583,Sixteenth,G2
5090,Left,1,38,120,775.5,0.239583,Sixteenth,D2
5089,Right,0,91,120,775.5,0.489583,Eighth,G6
5091,Left,1,43,120,775.75,0.239583,Sixteenth,G2
5093,Left,1,39,120,776.0,0.239583,Sixteenth,D#2
5092,Right,0,91,120,776.0,0.239583,Sixteenth,G6
5094,Right,0,92,120,776.125,0.239583,Sixteenth,G#6
5096,Left,1,43,120,776.25,0.239583,Sixteenth,G2
5095,Right,0,91,120,776.25,0.239583,Sixteenth,G6
5097,Right,0,92,120,776.375,0.239583,Sixteenth,G#6
5098,Right,0,91,120,776.5,0.239583,Sixteenth,G6
5099,Left,1,41,120,776.5,0.239583,Sixteenth,F2
5100,Right,0,92,120,776.625,0.239583,Sixteenth,G#6
5102,Right,0,90,120,776.75,0.239583,Sixteenth,F#6
5101,Left,1,43,120,776.75,0.239583,Sixteenth,G2
5103,Right,0,91,120,776.875,0.114583,ThirtySecond,G6
5104,Left,1,39,120,777.0,0.239583,Sixteenth,D#2
5105,Right,0,91,120,777.0,0.489583,Eighth,G6
5106,Left,1,43,120,777.25,0.239583,Sixteenth,G2
5107,Right,0,95,120,777.5,0.489583,Eighth,B6
5108,Left,1,38,120,777.5,0.239583,Sixteenth,D2
5109,Left,1,43,120,777.75,0.239583,Sixteenth,G2
5110,Right,0,95,110,778.0,0.489583,Eighth,B6
5111,Left,1,39,120,778.0,0.239583,Sixteenth,D#2
5112,Left,1,43,120,778.25,0.239583,Sixteenth,G2
5113,Left,1,36,120,778.5,0.239583,Sixteenth,C2
5114,Right,0,96,100,778.5,0.489583,Eighth,C7
5115,Left,1,43,120,778.75,0.239583,Sixteenth,G2
5116,Left,1,35,120,779.0,0.239583,Sixteenth,B1
5117,Left,1,43,120,779.25,0.239583,Sixteenth,G2
5118,Right,0,79,120,779.5,0.489583,Eighth,G5
5119,Left,1,38,120,779.5,0.239583,Sixteenth,D2
5120,Left,1,43,120,779.75,0.239583,Sixteenth,G2
5122,Left,1,39,120,780.0,0.239583,Sixteenth,D#2
5121,Right,0,79,120,780.0,0.239583,Sixteenth,G5
5123,Right,0,80,120,780.125,0.239583,Sixteenth,G#5
5124,Right,0,79,120,780.25,0.239583,Sixteenth,G5
5125,Left,1,43,120,780.25,0.239583,Sixteenth,G2
5126,Right,0,80,120,780.375,0.239583,Sixteenth,G#5
5128,Left,1,41,120,780.5,0.239583,Sixteenth,F2
5127,Right,0,79,120,780.5,0.239583,Sixteenth,G5
5129,Right,0,80,120,780.625,0.239583,Sixteenth,G#5
5130,Right,0,78,120,780.75,0.239583,Sixteenth,F#5
5131,Left,1,43,120,780.75,0.239583,Sixteenth,G2
5132,Right,0,79,120,780.875,0.114583,ThirtySecond,G5
5134,Right,0,79,120,781.0,0.489583,Eighth,G5
5133,Left,1,39,120,781.0,0.239583,Sixteenth,D#2
5135,Left,1,43,120,781.25,0.239583,Sixteenth,G2
5136,Right,0,83,120,781.5,0.489583,Eighth,B5
5137,Left,1,38,120,781.5,0.239583,Sixteenth,D2
5138,Left,1,43,120,781.75,0.239583,Sixteenth,G2
5139,Right,0,83,110,782.0,0.489583,Eighth,B5
5140,Left,1,39,120,782.0,0.239583,Sixteenth,D#2
5141,Left,1,43,120,782.25,0.239583,Sixteenth,G2
5143,Right,0,84,100,782.5,0.489583,Eighth,C6
5142,Left,1,36,120,782.5,0.239583,Sixteenth,C2
5144,Left,1,43,120,782.75,0.239583,Sixteenth,G2
5145,Left,1,35,120,783.0,0.239583,Sixteenth,B1
5146,Left,1,43,120,783.25,0.239583,Sixteenth,G2
5147,Right,0,67,120,783.5,0.489583,Eighth,G4
5148,Left,1,38,120,783.5,0.239583,Sixteenth,D2
5149,Left,1,43,120,783.75,0.239583,Sixteenth,G2
5150,Left,1,44,120,784.0,0.239583,Sixteenth,G#2
5151,Right,0,68,120,784.0,0.239583,Sixteenth,G#4
5152,Right,0,67,120,784.25,0.239583,Sixteenth,G4
5153,Left,1,43,120,784.25,0.239583,Sixteenth,G2
5155,Right,0,69,120,784.5,0.239583,Sixteenth,A4
5154,Left,1,45,120,784.5,0.239583,Sixteenth,A2
5157,Left,1,47,120,784.75,0.239583,Sixteenth,B2
5156,Right,0,71,120,784.75,0.239583,Sixteenth,B4
5159,Left,1,48,120,785.0,0.239583,Sixteenth,C3
5158,Right,0,72,120,785.0,0.239583,Sixteenth,C5
5160,Right,0,74,120,785.25,0.239583,Sixteenth,D5
5161,Left,1,50,120,785.25,0.239583,Sixteenth,D3
5163,Right,0,75,120,785.5,0.239583,Sixteenth,D#5
5162,Left,1,51,120,785.5,0.239583,Sixteenth,D#3
5164,Right,0,74,120,785.75,0.239583,Sixteenth,D5
5165,Left,1,50,120,785.75,0.239583,Sixteenth,D3
5167,Right,0,75,120,786.0,0.239583,Sixteenth,D#5
5166,Left,1,51,120,786.0,0.239583,Sixteenth,D#3
5168,Left,1,52,120,786.25,0.239583,Sixteenth,E3
5169,Right,0,76,120,786.25,0.239583,Sixteenth,E5
5170,Left,1,53,120,786.5,0.239583,Sixteenth,F3
5171,Right,0,77,120,786.5,0.239583,Sixteenth,F5
5172,Left,1,52,120,786.75,0.239583,Sixteenth,E3
5173,Right,0,76,120,786.75,0.239583,Sixteenth,E5
5175,Right,0,77,120,787.0,0.239583,Sixteenth,F5
5174,Left,1,53,120,787.0,0.239583,Sixteenth,F3
5177,Left,1,54,120,787.25,0.239583,Sixteenth,F#3
5176,Right,0,78,120,787.25,0.239583,Sixteenth,F#5
5179,Left,1,55,120,787.5,0.239583,Sixteenth,G3
5178,Right,0,79,120,787.5,0.239583,Sixteenth,G5
5180,Right,0,78,120,787.75,0.239583,Sixteenth,F#5
5181,Left,1,54,120,787.75,0.239583,Sixteenth,F#3
5182,Right,0,79,120,788.0,0.239583,Sixteenth,G5
5183,Left,1,55,120,788.0,0.239583,Sixteenth,G3
5184,Right,0,81,120,788.25,0.239583,Sixteenth,A5
5185,Left,1,57,120,788.25,0.239583,Sixteenth,A3
5186,Right,0,82,120,788.5,0.239583,Sixteenth,A#5
5187,Left,1,58,120,788.5,0.239583,Sixteenth,A#3
5188,Left,1,59,120,788.75,0.239583,Sixteenth,B3
5189,Right,0,83,120,788.75,0.239583,Sixteenth,B5
5191,Left,1,60,120,789.0,0.239583,Sixteenth,C4
5190,Right,0,84,120,789.0,0.239583,Sixteenth,C6
5192,Left,1,62,120,789.25,0.239583,Sixteenth,D4
5193,Right,0,86,120,789.25,0.239583,Sixteenth,D6
5194,Left,1,63,120,789.5,0.239583,Sixteenth,D#4
5195,Right,0,87,120,789.5,0.239583,Sixteenth,D#6
5196,Right,0,86,120,789.75,0.239583,Sixteenth,D6
5197,Left,1,62,120,789.75,0.239583,Sixteenth,D4
5199,Left,1,63,120,790.0,0.239583,Sixteenth,D#4
5198,Right,0,87,120,790.0,0.239583,Sixteenth,D#6
5200,Right,0,88,120,790.25,0.239583,Sixteenth,E6
5201,Left,1,64,120,790.25,0.239583,Sixteenth,E4
5203,Right,0,89,120,790.5,0.239583,Sixteenth,F6
5202,Left,1,65,120,790.5,0.239583,Sixteenth,F4
5204,Left,1,64,120,790.75,0.239583,Sixteenth,E4
5205,Right,0,88,120,790.75,0.239583,Sixteenth,E6
5207,Right,0,89,120,791.0,0.239583,Sixteenth,F6
5206,Left,1,65,120,791.0,0.239583,Sixteenth,F4
5209,Left,1,66,120,791.25,0.239583,Sixteenth,F#4
5208,Right,0,90,120,791.25,0.239583,Sixteenth,F#6
5211,Right,0,91,120,791.5,0.239583,Sixteenth,G6
5210,Left,1,67,120,791.5,0.239583,Sixteenth,G4
5213,Right,0,90,120,791.75,0.239583,Sixteenth,F#6
5212,Left,1,66,120,791.75,0.239583,Sixteenth,F#4
5215,Right,0,91,120,792.0,0.239583,Sixteenth,G6
5214,Left,1,67,120,792.0,0.239583,Sixteenth,G4
5216,Right,0,93,120,792.25,0.239583,Sixteenth,A6
5217,Left,1,69,120,792.25,0.239583,Sixteenth,A4
5219,Right,0,94,120,792.5,0.239583,Sixteenth,A#6
5218,Left,1,70,120,792.5,0.239583,Sixteenth,A#4
5220,Right,0,95,120,792.75,0.239583,Sixteenth,B6
5221,Left,1,71,120,792.75,0.239583,Sixteenth,B4
5222,Right,0,96,120,793.0,0.989583,Quarter,C7
5223,Left,1,72,120,793.0,0.989583,Quarter,C5
5226,Left,1,48,120,794.0,0.989583,Quarter,C3_C2
5224,Right,0,72,120,794.0,0.989583,Quarter,C5_C4
5230,Right,0,66,120,796.0,0.989583,Quarter,F#4_D#5_D#4_A4
5228,Left,1,36,120,796.0,0.989583,Quarter,C3_C2
5238,Left,1,48,120,798.0,0.989583,Quarter,C3_C2
5234,Right,0,62,120,798.0,0.989583,Quarter,G#4_F4_D4_B4
5244,Left,1,36,120,800.0,0.989583,Quarter,C3_C2
5240,Right,0,71,120,800.0,0.989583,Quarter,G#4_F4_D5_B4
5246,Right,0,70,110,802.0,0.989583,Quarter,G4_E4_C#4_A#4
5248,Left,1,48,110,802.0,0.989583,Quarter,C3_C2
5252,Left,1,36,100,804.0,0.989583,Quarter,C3_C2
5254,Right,0,70,100,804.0,0.989583,Quarter,G4_E4_C#5_A#4
5258,Right,0,60,90,806.0,0.989583,Quarter,F4_C4_A4
5259,Left,1,36,90,806.0,0.989583,Quarter,C3_C2
5264,Left,1,48,80,808.0,0.989583,Quarter,C3_C2
5263,Right,0,65,80,808.0,0.989583,Quarter,F4_C5_A4
5268,Left,1,48,80,809.5,0.239583,Sixteenth,C3
5269,Left,1,49,80,809.75,0.239583,Sixteenth,C#3
5270,Left,1,48,80,810.0,0.239583,Sixteenth,C3
5271,Left,1,46,80,810.25,0.239583,Sixteenth,A#2
5272,Left,1,44,80,810.5,0.239583,Sixteenth,G#2
5273,Left,1,43,80,810.75,0.239583,Sixteenth,G2
5275,Right,0,72,80,811.0,1.989583,Half,G#4_F4_C5
5274,Left,1,41,80,811.0,0.239583,Sixteenth,F2
5278,Left,1,48,80,811.25,0.239583,Sixteenth,C3
5279,Left,1,49,80,811.5,0.239583,Sixteenth,C#3
5280,Left,1,48,80,811.75,0.239583,Sixteenth,C3
5281,Left,1,46,80,812.0,0.239583,Sixteenth,A#2
5282,Left,1,44,80,812.25,0.239583,Sixteenth,G#2
5283,Left,1,43,80,812.5,0.239583,Sixteenth,G2
5284,Left,1,41,80,812.75,0.239583,Sixteenth,F2
5286,Right,0,67,80,813.0,1.989583,Half,G4_C5_A#4
5285,Left,1,40,80,813.0,0.239583,Sixteenth,E2
5289,Left,1,48,80,813.25,0.239583,Sixteenth,C3
5290,Left,1,49,80,813.5,0.239583,Sixteenth,C#3
5291,Left,1,48,80,813.75,0.239583,Sixteenth,C3
5292,Left,1,46,80,814.0,0.239583,Sixteenth,A#2
5293,Left,1,43,80,814.25,0.239583,Sixteenth,G2
5294,Left,1,40,80,814.5,0.239583,Sixteenth,E2
5295,Left,1,48,80,814.75,0.239583,Sixteenth,C3
5297,Right,0,65,80,815.0,1.989583,Half,G#4_F4_C5
5296,Left,1,41,80,815.0,0.239583,Sixteenth,F2
5300,Left,1,48,80,815.25,0.239583,Sixteenth,C3
5301,Left,1,49,80,815.5,0.239583,Sixteenth,C#3
5302,Left,1,48,80,815.75,0.239583,Sixteenth,C3
5303,Left,1,46,80,816.0,0.239583,Sixteenth,A#2
5304,Left,1,44,80,816.25,0.239583,Sixteenth,G#2
5305,Left,1,43,80,816.5,0.239583,Sixteenth,G2
5306,Right,0,71,80,816.5,0.489583,Eighth,D5_B4
5308,Left,1,41,80,816.75,0.239583,Sixteenth,F2
5309,Right,0,72,80,817.0,0.989583,Quarter,G4_E5_E4_C5
5312,Left,1,36,80,817.0,0.239583,Sixteenth,C2
5314,Left,1,38,80,817.25,0.239583,Sixteenth,D2
5315,Left,1,39,80,817.5,0.239583,Sixteenth,D#2
5316,Left,1,41,80,817.75,0.239583,Sixteenth,F2
5317,Right,0,72,80,818.0,0.989583,Quarter,E4_C5
5318,Left,1,43,80,818.0,0.239583,Sixteenth,G2
5320,Left,1,36,80,818.25,0.239583,Sixteenth,C2
5321,Right,0,65,80,818.5,0.239583,Sixteenth,F4
5322,Left,1,38,80,818.5,0.239583,Sixteenth,D2
5324,Right,0,67,80,818.75,0.239583,Sixteenth,G4
5323,Left,1,40,80,818.75,0.239583,Sixteenth,E2
5325,Left,1,41,80,819.0,0.239583,Sixteenth,F2
5326,Right,0,72,80,819.0,1.989583,Half,G#4_F4_C5
5329,Left,1,48,80,819.25,0.239583,Sixteenth,C3
5330,Left,1,49,80,819.5,0.239583,Sixteenth,C#3
5331,Left,1,48,80,819.75,0.239583,Sixteenth,C3
5332,Left,1,46,80,820.0,0.239583,Sixteenth,A#2
5333,Left,1,44,80,820.25,0.239583,Sixteenth,G#2
5334,Left,1,43,80,820.5,0.239583,Sixteenth,G2
5335,Left,1,41,80,820.75,0.239583,Sixteenth,F2
5336,Left,1,40,80,821.0,0.239583,Sixteenth,E2
5337,Right,0,72,80,821.0,1.989583,Half,G4_C5_A#4
5340,Left,1,48,80,821.25,0.239583,Sixteenth,C3
5341,Left,1,49,80,821.5,0.239583,Sixteenth,C#3
5342,Left,1,48,80,821.75,0.239583,Sixteenth,C3
5343,Left,1,46,80,822.0,0.239583,Sixteenth,A#2
5344,Left,1,43,80,822.25,0.239583,Sixteenth,G2
5345,Left,1,40,80,822.5,0.239583,Sixteenth,E2
5346,Left,1,48,80,822.75,0.239583,Sixteenth,C3
5348,Right,0,68,80,823.0,1.989583,Half,G#4_F4_C5
5347,Left,1,41,80,823.0,0.239583,Sixteenth,F2
5351,Left,1,48,80,823.25,0.239583,Sixteenth,C3
5352,Left,1,49,80,823.5,0.239583,Sixteenth,C#3
5353,Left,1,48,80,823.75,0.239583,Sixteenth,C3
5354,Left,1,46,80,824.0,0.239583,Sixteenth,A#2
5355,Left,1,44,80,824.25,0.239583,Sixteenth,G#2
5356,Left,1,43,80,824.5,0.239583,Sixteenth,G2
5357,Right,0,77,80,824.5,0.489583,Eighth,F5
5358,Left,1,41,80,824.75,0.239583,Sixteenth,F2
5360,Left,1,36,80,825.0,0.239583,Sixteenth,C2
5359,Right,0,76,80,825.0,0.989583,Quarter,G5_G4_E5_C5
5364,Left,1,38,80,825.25,0.239583,Sixteenth,D2
5365,Left,1,39,80,825.5,0.239583,Sixteenth,D#2
5366,Left,1,41,80,825.75,0.239583,Sixteenth,F2
5367,Right,0,72,80,826.0,0.989583,Quarter,E4_C5
5368,Left,1,43,80,826.0,0.239583,Sixteenth,G2
5370,Left,1,36,80,826.25,0.239583,Sixteenth,C2
5371,Right,0,65,80,826.5,0.239583,Sixteenth,F4
5372,Left,1,38,80,826.5,0.239583,Sixteenth,D2
5373,Right,0,67,80,826.75,0.239583,Sixteenth,G4
5374,Left,1,40,80,826.75,0.239583,Sixteenth,E2
5376,Right,0,60,80,827.0,1.989583,Half,G#4_F4_C5_C4
5375,Left,1,41,80,827.0,0.239583,Sixteenth,F2
5380,Left,1,48,80,827.25,0.239583,Sixteenth,C3
5381,Left,1,49,80,827.5,0.239583,Sixteenth,C#3
5382,Left,1,48,80,827.75,0.239583,Sixteenth,C3
5383,Left,1,46,80,828.0,0.239583,Sixteenth,A#2
5384,Left,1,44,80,828.25,0.239583,Sixteenth,G#2
5385,Left,1,43,80,828.5,0.239583,Sixteenth,G2
5386,Left,1,41,80,828.75,0.239583,Sixteenth,F2
5387,Left,1,40,80,829.0,0.239583,Sixteenth,E2
5388,Right,0,60,80,829.0,1.989583,Half,G4_C5_C4_A#4
5392,Left,1,48,80,829.25,0.239583,Sixteenth,C3
5393,Left,1,49,80,829.5,0.239583,Sixteenth,C#3
5394,Left,1,48,80,829.75,0.239583,Sixteenth,C3
5395,Left,1,46,80,830.0,0.239583,Sixteenth,A#2
5396,Left,1,43,80,830.25,0.239583,Sixteenth,G2
5397,Left,1,40,80,830.5,0.239583,Sixteenth,E2
5398,Left,1,48,80,830.75,0.239583,Sixteenth,C3
5400,Right,0,72,80,831.0,1.489583,DottedQuarter,G#4_F4_C5_C4
5399,Left,1,41,80,831.0,0.239583,Sixteenth,F2
5404,Left,1,44,80,831.25,0.239583,Sixteenth,G#2
5405,Left,1,41,80,831.5,0.239583,Sixteenth,F2
5406,Left,1,36,80,831.75,0.239583,Sixteenth,C2
5407,Left,1,41,80,832.0,0.239583,Sixteenth,F2
5408,Left,1,44,80,832.25,0.239583,Sixteenth,G#2
5410,Right,0,83,100,832.5,0.489583,Eighth,G#5_F5_D5_B5
5409,Left,1,41,80,832.5,0.239583,Sixteenth,F2
5414,Left,1,36,80,832.75,0.239583,Sixteenth,C2
5419,Left,1,41,80,833.0,0.239583,Sixteenth,F2
5415,Right,0,83,100,833.0,3.989583,Whole,G#5_F5_D5_B5
5420,Left,1,44,80,833.25,0.239583,Sixteenth,G#2
5421,Left,1,41,80,833.5,0.239583,Sixteenth,F2
5422,Left,1,36,80,833.75,0.239583,Sixteenth,C2
5423,Left,1,41,80,834.0,0.239583,Sixteenth,F2
5424,Left,1,44,80,834.25,0.239583,Sixteenth,G#2
5425,Left,1,41,80,834.5,0.239583,Sixteenth,F2
5426,Left,1,36,80,834.75,0.239583,Sixteenth,C2
5427,Left,1,41,80,835.0,0.239583,Sixteenth,F2
5428,Left,1,44,80,835.25,0.239583,Sixteenth,G#2
5429,Left,1,41,80,835.5,0.239583,Sixteenth,F2
5430,Left,1,36,80,835.75,0.239583,Sixteenth,C2
5431,Left,1,41,80,835.958333,0.239583,Sixteenth,F2
5432,Left,1,44,80,836.208333,0.239583,Sixteenth,G#2
5433,Left,1,41,80,836.458333,0.239583,Sixteenth,F2
5434,Left,1,36,80,836.708333,0.239583,Sixteenth,C2
5435,Right,0,76,80,837.0,1.989583,Half,G5_E5_C6
5438,Left,1,48,80,837.25,0.729167,DottedEighth,C3
5439,Left,1,43,79,837.5,0.229167,Sixteenth,G2
5440,Left,1,36,78,837.75,0.729167,DottedEighth,C2
5441,Left,1,43,78,838.0,0.229167,Sixteenth,G2
5442,Left,1,48,77,838.25,0.729167,DottedEighth,C3
5443,Left,1,43,76,838.5,0.229167,Sixteenth,G2
5444,Left,1,36,76,838.75,0.729167,DottedEighth,C2
5445,Right,0,84,75,839.0,1.989583,Half,G5_E5_C6
5446,Left,1,43,75,839.0,0.229167,Sixteenth,G2
5449,Left,1,52,74,839.25,0.729167,DottedEighth,E3
5450,Left,1,43,74,839.5,0.229167,Sixteenth,G2
5451,Left,1,36,73,839.75,0.729167,DottedEighth,C2
5452,Left,1,43,72,840.0,0.229167,Sixteenth,G2
5453,Left,1,52,72,840.25,0.729167,DottedEighth,E3
5454,Left,1,43,71,840.5,0.229167,Sixteenth,G2
5455,Left,1,36,70,840.75,0.239583,Sixteenth,C2
5457,Left,1,36,70,841.0,3.989583,Whole,C2_C1
5456,Right,0,76,70,841.0,3.989583,Whole,G5_E5_C6
