,hand,channel,note,velocity,start_beat,duration,note_value,chord
1,Left,1,36,80,0.0,2.958333,DottedEighth,G2_C2
0,Right,0,72,80,0.0,2.958333,Eighth,E4_C5
4,Right,0,67,80,2.0,0.958333,Sixteenth,G4
5,Left,1,36,80,3.0,2.9375,DottedEighth,G2_C2
7,Right,0,64,80,3.0,5.9375,DottedEighth,G4_E4
10,Left,1,43,80,6.0,2.9375,DottedEighth,G2_D2
9,Right,0,65,80,6.0,2.9375,DottedEighth,F4
14,Left,1,43,80,9.0,2.9375,DottedEighth,G2_C2
12,Right,0,74,80,9.0,2.9375,Eighth,D5_D4
16,Right,0,67,80,11.0,0.9375,Sixteenth,G4
17,Left,1,35,80,12.0,2.958333,DottedEighth,G2_B1
19,Right,0,67,80,12.0,5.958333,DottedQuarter,G4_D4
21,Left,1,36,80,15.0,2.958333,DottedEighth,G2_C2
23,Right,0,64,80,15.0,2.958333,DottedEighth,E4
26,Right,0,67,80,18.0,2.958333,DottedEighth,G4_F4
24,Left,1,38,80,18.0,2.958333,DottedEighth,G2_D2
28,Left,1,43,80,21.0,2.958333,DottedEighth,G2_E2
29,Right,0,67,80,21.0,2.9375,DottedEighth,G4
32,Left,1,36,80,24.0,2.958333,DottedEighth,G2_C2
31,Right,0,64,80,24.0,2.958333,DottedEighth,E5_E4
37,Right,0,67,80,27.0,2.958333,DottedEighth,G4_C5
35,Left,1,43,80,27.0,2.958333,DottedEighth,G2_E2
41,Left,1,31,80,30.0,7.958333,Half,G1
39,Right,0,64,80,30.0,2.958333,DottedEighth,E4_C5
44,Left,1,43,80,33.0,2.958333,DottedEighth,G2
42,Right,0,62,80,33.0,2.958333,DottedEighth,D4_B4
48,Left,1,43,80,36.0,1.958333,Eighth,G2
45,Right,0,67,80,36.0,2.958333,DottedEighth,G4_D4_B4
49,Left,1,29,80,38.0,0.958333,Sixteenth,F2_F1
53,Left,1,40,80,39.0,5.958333,DottedQuarter,E2_E1
51,Right,0,67,80,39.0,5.958333,DottedQuarter,G4_C5
55,Right,0,76,90,42.0,2.958333,DottedEighth,E5
58,Right,0,67,100,45.0,2.958333,DottedEighth,G5_G4
56,Left,1,40,100,45.0,2.958333,DottedEighth,E2_E1
60,Left,1,38,100,48.0,5.958333,DottedQuarter,D2_D1
61,Right,0,69,100,48.0,5.958333,DottedQuarter,G5_A4
64,Right,0,77,93,51.0,2.958333,DottedEighth,F5
65,Left,1,41,85,54.0,1.958333,Eighth,F2_F1
67,Right,0,69,85,54.0,1.958333,Eighth,D5_A4
70,Right,0,62,80,56.0,0.958333,Sixteenth,D4_C5_A4
69,Left,1,30,80,56.0,0.958333,Sixteenth,F#2_F#1
74,Left,1,43,80,57.0,5.958333,DottedEighth,G2_G1
76,Right,0,62,80,57.0,2.958333,DottedEighth,G4_D4_B4
82,Left,1,45,80,60.0,2.958333,DottedEighth,A2
79,Right,0,67,80,60.0,2.958333,DottedEighth,G4_C5_C4
84,Left,1,47,80,63.0,1.958333,Eighth,B2
83,Right,0,62,80,63.0,1.958333,Eighth,G4_D5_D4
88,Right,0,67,80,65.0,2.958333,Sixteenth,G4_D4
87,Left,1,47,80,65.0,2.958333,DottedEighth,B2
90,Right,0,67,80,66.0,5.958333,DottedQuarter,G4
91,Right,0,62,90,68.0,0.958333,Sixteenth,D4
92,Left,1,47,90,68.0,0.958333,Sixteenth,B2
93,Right,0,60,90,69.0,1.958333,Eighth,E4_C4
94,Left,1,48,90,69.0,1.958333,Eighth,C3
98,Left,1,50,80,71.0,0.958333,Sixteenth,D3
96,Right,0,65,80,71.0,0.958333,Sixteenth,F4_B3
99,Left,1,43,80,72.0,2.958333,DottedEighth,G2_C2
100,Right,0,72,80,72.0,2.958333,Eighth,E4_C5
103,Right,0,67,80,74.0,0.958333,Sixteenth,G4
104,Left,1,43,80,75.0,2.9375,DottedEighth,G2_C2
105,Right,0,67,80,75.0,5.9375,DottedQuarter,G4_E4
108,Right,0,65,80,78.0,2.9375,DottedEighth,F4
109,Left,1,43,80,78.0,2.9375,DottedEighth,G2_D2
112,Right,0,74,80,81.0,2.9375,Eighth,D5_D4
111,Left,1,43,80,81.0,2.9375,DottedEighth,G2_C2
115,Right,0,67,80,83.0,0.9375,Sixteenth,G4
117,Right,0,67,80,84.0,5.958333,DottedQuarter,G4_D4
116,Left,1,43,80,84.0,2.958333,DottedEighth,G2_B1
122,Right,0,64,80,87.0,2.958333,DottedEighth,E4
120,Left,1,43,80,87.0,2.958333,DottedEighth,G2_C2
123,Left,1,43,80,90.0,2.958333,DottedEighth,G2_D2
125,Right,0,67,80,90.0,2.958333,DottedEighth,G4_F4
127,Left,1,40,80,93.0,2.958333,DottedEighth,G2_E2
128,Right,0,67,80,93.0,2.9375,DottedEighth,G4
130,Right,0,64,80,96.0,2.958333,DottedEighth,E5_E4
131,Left,1,36,80,96.0,2.958333,DottedEighth,G2_C2
134,Right,0,72,80,99.0,2.958333,DottedEighth,G4_C5
135,Left,1,40,80,99.0,2.958333,DottedEighth,G2_E2
138,Left,1,31,80,102.0,7.958333,Half,G1
139,Right,0,72,80,102.0,2.958333,DottedEighth,E4_C5
142,Right,0,62,80,105.0,2.958333,DottedEighth,D4_B4
141,Left,1,43,80,105.0,2.958333,DottedEighth,G2
144,Right,0,62,80,108.0,2.958333,DottedEighth,G4_D4_B4
147,Left,1,43,80,108.0,1.958333,Eighth,G2
148,Left,1,41,80,110.0,0.958333,Sixteenth,F2_F1
150,Right,0,67,80,111.0,5.958333,DottedQuarter,G4_C5
151,Left,1,40,80,111.0,5.958333,DottedQuarter,E2_E1
154,Right,0,76,90,114.0,2.958333,DottedEighth,E5
155,Right,0,79,100,117.0,2.958333,DottedEighth,G5_G4
157,Left,1,40,100,117.0,2.958333,DottedEighth,E2_E1
159,Left,1,38,100,120.0,5.958333,DottedQuarter,D2_D1
161,Right,0,79,100,120.0,5.958333,DottedEighth,G5_A4
163,Right,0,77,93,123.0,2.958333,DottedEighth,F5
165,Right,0,74,85,126.0,1.958333,Eighth,D5_A4
164,Left,1,29,85,126.0,1.958333,Eighth,F2_F1
169,Right,0,62,80,128.0,0.958333,Sixteenth,D4_C5_A4
168,Left,1,42,80,128.0,0.958333,Sixteenth,F#2_F#1
173,Right,0,62,80,129.0,2.958333,DottedEighth,G4_D4_B4
176,Left,1,31,80,129.0,5.958333,DottedQuarter,G2_G1
179,Right,0,60,80,132.0,2.958333,DottedEighth,G4_C5_C4
178,Left,1,45,80,132.0,2.958333,DottedEighth,A2
183,Left,1,47,80,135.0,1.958333,Eighth,B2
182,Right,0,62,80,135.0,1.958333,Eighth,G4_D5_D4
187,Left,1,47,80,137.0,2.958333,DottedEighth,B2
186,Right,0,62,80,137.0,2.958333,DottedEighth,G4_D4
189,Right,0,67,80,138.0,5.958333,DottedQuarter,G4
192,Left,1,48,90,140.0,0.958333,Sixteenth,C3
190,Right,0,64,90,140.0,0.958333,Sixteenth,E4_C4
193,Right,0,65,90,141.0,1.958333,Eighth,F4_B3
194,Left,1,50,90,141.0,1.958333,Eighth,D3
197,Left,1,48,80,143.0,0.958333,Sixteenth,C3
196,Right,0,64,80,143.0,0.958333,Sixteenth,E4_C4
199,Right,0,64,80,144.0,2.958333,DottedEighth,E4
200,Left,1,52,80,144.0,2.958333,DottedEighth,E3
202,Left,1,45,80,147.0,5.958333,DottedQuarter,A2
201,Right,0,64,80,147.0,5.958333,DottedQuarter,E4_C5
204,Left,1,52,80,150.0,2.958333,DottedEighth,E3
207,Left,1,45,80,153.0,2.958333,DottedEighth,E3_A2
205,Right,0,64,80,153.0,2.958333,DottedEighth,E4_C5
209,Right,0,71,80,155.0,0.958333,Sixteenth,B4
210,Right,0,71,80,156.0,5.958333,DottedQuarter,E4_B4
211,Left,1,44,80,156.0,5.958333,DottedQuarter,G#2
213,Left,1,52,80,159.0,2.958333,DottedEighth,E3
215,Left,1,52,80,162.0,2.958333,DottedEighth,G#2_E3
214,Right,0,71,80,162.0,2.958333,DottedEighth,B4
217,Right,0,76,80,164.0,0.958333,Sixteenth,E5
218,Left,1,44,80,165.0,2.958333,DottedEighth,G#2_E3
220,Right,0,71,80,165.0,2.958333,DottedEighth,E5_B4
222,Left,1,45,80,168.0,2.958333,DottedEighth,E3_A2
224,Right,0,76,80,168.0,2.958333,DottedEighth,E5_C5
228,Right,0,71,80,171.0,1.958333,Eighth,D5_B4
226,Left,1,45,80,171.0,2.958333,DottedEighth,E3_A2
230,Right,0,69,80,173.0,0.958333,Sixteenth,C5_A4
233,Right,0,69,80,174.0,2.958333,DottedEighth,C5_A4
232,Left,1,40,80,174.0,5.958333,DottedQuarter,E2
236,Right,0,68,80,177.0,2.958333,DottedEighth,G#4_B4
235,Left,1,52,80,177.0,2.958333,DottedEighth,E3
238,Left,1,45,80,180.0,2.958333,DottedEighth,A2_A1
239,Right,0,64,80,180.0,2.958333,DottedEighth,E4_C5_A4
243,Right,0,71,80,183.0,5.958333,DottedQuarter,G4_D5_B4
244,Left,1,31,80,183.0,5.958333,DottedQuarter,G2_G1
251,Left,1,31,87,189.0,2.958333,DottedEighth,G2_G1
248,Right,0,67,87,189.0,2.958333,DottedEighth,G4_D5_B4
253,Right,0,67,90,192.0,5.958333,DottedQuarter,G4_E5_C5
256,Left,1,36,90,192.0,5.958333,DottedQuarter,C3_C2
259,Right,0,69,97,198.0,2.958333,DottedEighth,F5_C5_A4
258,Left,1,41,97,198.0,2.958333,DottedEighth,F2_F1
265,Right,0,71,101,201.0,2.958333,DottedEighth,G4_D5_B4
263,Left,1,43,101,201.0,2.958333,DottedEighth,G2_G1
268,Right,0,71,105,204.0,2.958333,DottedEighth,G4_D5_B4
271,Left,1,31,105,204.0,2.958333,DottedEighth,G2_G1
275,Right,0,71,108,207.0,1.958333,Eighth,G4_D5_B4
273,Left,1,31,108,207.0,1.958333,Eighth,G2_G1
279,Left,1,31,110,209.0,0.958333,Sixteenth,G2_G1
278,Right,0,71,110,209.0,0.958333,Sixteenth,G5_D5_B4
285,Right,0,79,110,210.0,1.958333,Eighth,G5_D5_B4
283,Left,1,43,110,210.0,1.958333,Eighth,G2_G1
291,Left,1,48,90,212.0,0.958333,Sixteenth,C3_C2
288,Right,0,76,90,212.0,0.958333,Sixteenth,G4_E5_C5
293,Right,0,67,80,213.0,2.958333,DottedEighth,G4_E5_C5
294,Left,1,48,80,213.0,2.958333,DottedEighth,C3_C2
298,Left,1,52,80,216.0,2.958333,DottedEighth,E3
299,Right,0,64,80,216.0,2.958333,DottedEighth,E4
301,Right,0,64,80,219.0,5.958333,DottedQuarter,E4_C5
300,Left,1,45,80,219.0,5.958333,DottedQuarter,A2
303,Left,1,52,80,222.0,2.958333,DottedEighth,E3
306,Left,1,45,80,225.0,2.958333,DottedEighth,E3_A2
304,Right,0,64,80,225.0,2.958333,DottedEighth,E4_C5
308,Right,0,71,80,227.0,0.958333,Sixteenth,B4
309,Left,1,44,80,228.0,5.958333,DottedQuarter,G#2
310,Right,0,71,80,228.0,5.958333,DottedQuarter,E4_B4
312,Left,1,52,80,231.0,2.958333,DottedEighth,E3
314,Left,1,44,80,234.0,2.958333,DottedEighth,G#2_E3
313,Right,0,71,80,234.0,2.958333,DottedEighth,B4
316,Right,0,76,80,236.0,0.958333,Sixteenth,E5
319,Right,0,71,80,237.0,2.958333,DottedEighth,E5_B4
317,Left,1,44,80,237.0,2.958333,DottedEighth,G#2_E3
323,Left,1,52,80,240.0,2.958333,DottedEighth,E3_A2
321,Right,0,76,80,240.0,2.958333,DottedEighth,E5_C5
325,Left,1,45,80,243.0,2.958333,DottedEighth,E3_A2
327,Right,0,74,80,243.0,1.958333,Eighth,D5_B4
329,Right,0,72,80,245.0,0.958333,Sixteenth,C5_A4
333,Left,1,40,80,246.0,5.958333,DottedQuarter,E2
331,Right,0,72,80,246.0,2.958333,DottedEighth,C5_A4
334,Right,0,71,80,249.0,2.958333,DottedEighth,G#4_B4
336,Left,1,52,80,249.0,2.958333,DottedEighth,E3
339,Right,0,64,80,252.0,2.958333,DottedEighth,E4_C5_A4
337,Left,1,33,80,252.0,2.958333,DottedEighth,A2_A1
342,Right,0,71,80,255.0,5.958333,DottedQuarter,G4_D5_B4
344,Left,1,31,80,255.0,5.958333,DottedQuarter,G2_G1
347,Right,0,74,87,261.0,2.958333,DottedEighth,G4_D5_B4
350,Left,1,31,87,261.0,2.958333,DottedEighth,G2_G1
352,Left,1,36,90,264.0,5.958333,DottedQuarter,C3_C2
354,Right,0,76,90,264.0,5.958333,DottedQuarter,G4_E5_C5
357,Right,0,69,97,270.0,2.958333,DottedEighth,F5_C5_A4
358,Left,1,29,97,270.0,2.958333,DottedEighth,F2_F1
362,Right,0,67,101,273.0,2.958333,DottedEighth,G4_D5_B4
364,Left,1,43,101,273.0,2.958333,DottedEighth,G2_G1
369,Right,0,74,105,276.0,2.958333,DottedEighth,G4_D5_B4
367,Left,1,31,105,276.0,2.958333,DottedEighth,G2_G1
373,Right,0,74,108,279.0,1.958333,Eighth,G4_D5_B4
372,Left,1,43,108,279.0,1.958333,Eighth,G2_G1
377,Right,0,71,110,281.0,0.958333,Sixteenth,G5_D5_B4
380,Left,1,43,110,281.0,0.958333,Sixteenth,G2_G1
383,Left,1,43,110,282.0,1.958333,Eighth,G2_G1
382,Right,0,79,110,282.0,1.958333,Eighth,G5_D5_B4
389,Right,0,67,90,284.0,0.958333,Sixteenth,G4_E5_C5
387,Left,1,48,90,284.0,0.958333,Sixteenth,C3_C2
392,Right,0,72,80,285.0,2.958333,DottedEighth,G4_E5_C5
394,Left,1,36,80,285.0,0.958333,Sixteenth,C3_C2
397,Left,1,55,80,286.0,0.958333,Sixteenth,G3
398,Left,1,53,80,287.0,0.958333,Sixteenth,F3
400,Right,0,72,80,288.0,1.958333,Eighth,C5
399,Left,1,52,80,288.0,0.958333,Sixteenth,E3
401,Left,1,48,80,289.0,0.958333,Sixteenth,C3
402,Left,1,55,80,290.0,1.958333,Eighth,G3
403,Right,0,64,80,290.0,0.958333,Sixteenth,E4
404,Right,0,69,80,291.0,1.958333,Eighth,A4
405,Left,1,49,80,292.0,0.958333,Sixteenth,C#3
406,Right,0,64,80,293.0,0.958333,Sixteenth,E4
407,Left,1,55,80,293.0,1.958333,Eighth,G3
408,Right,0,67,80,294.0,1.958333,Eighth,G4
409,Left,1,50,80,295.0,0.958333,Sixteenth,D3
411,Right,0,65,80,296.0,0.958333,Sixteenth,F4
410,Left,1,55,80,296.0,1.958333,Eighth,G3
412,Right,0,74,80,297.0,1.958333,Eighth,D5
413,Left,1,46,80,298.0,0.958333,Sixteenth,A#2
415,Right,0,62,80,299.0,0.958333,Sixteenth,D4
414,Left,1,55,80,299.0,1.958333,Eighth,G3
416,Right,0,67,80,300.0,1.958333,Eighth,G4
417,Left,1,47,80,301.0,0.958333,Sixteenth,B2
418,Right,0,62,80,302.0,0.958333,Sixteenth,D4
419,Left,1,55,80,302.0,1.958333,Eighth,G3
420,Right,0,65,80,303.0,1.958333,Eighth,F4
421,Left,1,48,80,304.0,0.958333,Sixteenth,C3
423,Left,1,55,80,305.0,0.958333,Sixteenth,G3
422,Right,0,64,80,305.0,0.958333,Sixteenth,E4
424,Right,0,67,80,306.0,1.958333,Eighth,G4
425,Left,1,52,80,306.0,0.958333,Sixteenth,E3
426,Left,1,50,80,307.0,0.958333,Sixteenth,D3
427,Right,0,65,80,308.0,0.958333,Sixteenth,F4
428,Left,1,55,80,308.0,1.958333,Eighth,G3
429,Right,0,69,80,309.0,1.958333,Eighth,A4
430,Left,1,51,80,310.0,0.958333,Sixteenth,D#3
431,Right,0,67,80,311.0,0.958333,Sixteenth,G4
432,Left,1,52,80,311.0,0.958333,Sixteenth,E3
433,Right,0,76,80,312.0,1.958333,Eighth,E5
434,Left,1,55,80,312.0,0.958333,Sixteenth,G3
435,Left,1,48,80,313.0,0.958333,Sixteenth,C3
437,Left,1,55,80,314.0,1.958333,Eighth,G3
436,Right,0,64,80,314.0,0.958333,Sixteenth,E4
438,Right,0,72,80,315.0,1.958333,Eighth,C5
439,Left,1,52,80,316.0,0.958333,Sixteenth,E3
440,Right,0,64,80,317.0,0.958333,Sixteenth,E4
441,Left,1,55,80,317.0,1.958333,Eighth,G3
442,Right,0,72,80,318.0,1.958333,Eighth,D#4_C5
444,Left,1,42,80,319.0,0.958333,Sixteenth,F#2
446,Right,0,71,80,320.0,0.958333,Sixteenth,D4_B4
445,Left,1,55,80,320.0,1.958333,Eighth,G3
448,Right,0,60,80,321.0,1.958333,Eighth,C4_A4
450,Left,1,43,80,322.0,0.958333,Sixteenth,G2
451,Right,0,59,80,323.0,0.958333,Sixteenth,G4_B3
452,Left,1,55,80,323.0,1.958333,Eighth,G3
454,Right,0,69,80,324.0,1.958333,Eighth,C4_A4
456,Left,1,41,80,325.0,0.958333,Sixteenth,F2
458,Right,0,71,80,326.0,0.958333,Sixteenth,D4_B4
457,Left,1,55,80,326.0,1.958333,Eighth,G3
460,Right,0,72,80,327.0,1.958333,Eighth,C5
461,Left,1,40,82,328.0,0.958333,Sixteenth,E2
463,Right,0,64,85,329.0,0.958333,Sixteenth,E4
462,Left,1,55,85,329.0,1.958333,Eighth,G3
464,Right,0,76,87,330.0,1.958333,Eighth,E5
465,Left,1,36,90,331.0,0.958333,Sixteenth,C2
467,Left,1,52,93,332.0,1.958333,Eighth,E3
466,Right,0,67,93,332.0,0.958333,Sixteenth,G4
468,Right,0,79,95,333.0,1.958333,Eighth,G5_A#4
470,Left,1,36,98,334.0,0.958333,Sixteenth,C2
473,Left,1,52,100,335.0,1.958333,Eighth,E3
471,Right,0,70,100,335.0,0.958333,Sixteenth,G4_A#4
474,Right,0,79,100,336.0,1.958333,Eighth,G5_A4
476,Left,1,37,98,337.0,0.958333,Sixteenth,C#2
477,Right,0,69,95,338.0,0.958333,Sixteenth,G4_A4
479,Left,1,52,95,338.0,1.958333,Eighth,E3
480,Right,0,77,93,339.0,1.958333,Eighth,F5_A4
482,Left,1,38,90,340.0,0.958333,Sixteenth,D2
484,Left,1,53,87,341.0,0.958333,Sixteenth,F3
483,Right,0,69,87,341.0,0.958333,Sixteenth,A4
486,Left,1,54,85,342.0,0.958333,Sixteenth,F#3
485,Right,0,74,85,342.0,1.958333,Eighth,D5_A4
488,Left,1,42,82,343.0,0.958333,Sixteenth,F#2
489,Right,0,72,80,344.0,0.958333,Sixteenth,F#4_C5
490,Left,1,57,80,344.0,0.958333,Sixteenth,A3
493,Right,0,62,80,345.0,2.958333,DottedEighth,F4_D4_C5
492,Left,1,56,80,345.0,0.958333,Sixteenth,G#3
496,Left,1,43,80,346.0,0.958333,Sixteenth,G2
498,Right,0,71,80,347.0,0.958333,Sixteenth,B4
497,Left,1,55,80,347.0,0.958333,Sixteenth,G3
500,Right,0,65,80,348.0,3.958333,Quarter,F4_D4_C5
499,Left,1,57,80,348.0,0.958333,Sixteenth,A3
503,Left,1,43,80,349.0,0.958333,Sixteenth,G2
504,Left,1,59,80,350.0,1.958333,Eighth,B3
505,Right,0,73,80,350.0,0.958333,Sixteenth,C#5
506,Right,0,73,80,351.0,0.958333,Sixteenth,C#5
508,Right,0,74,80,352.0,0.958333,Sixteenth,G4_F4_D5_D4
507,Left,1,59,80,352.0,0.958333,Sixteenth,B3
513,Right,0,65,80,353.0,0.958333,Sixteenth,G4_F4_D4
512,Left,1,59,80,353.0,0.958333,Sixteenth,B3
517,Left,1,59,80,354.0,0.958333,Sixteenth,B3
516,Right,0,65,80,354.0,5.958333,Sixteenth,G4_F4_D4
520,Left,1,60,80,355.0,0.958333,Sixteenth,C4
521,Right,0,64,80,355.0,0.958333,Sixteenth,E4
523,Left,1,53,80,356.0,0.958333,Sixteenth,F3
522,Right,0,62,80,356.0,0.958333,Sixteenth,D4
524,Right,0,60,80,357.0,0.958333,Sixteenth,C4
525,Left,1,52,80,357.0,0.958333,Sixteenth,E3
527,Right,0,62,80,358.0,0.958333,Sixteenth,D4
526,Left,1,53,80,358.0,0.958333,Sixteenth,F3
528,Right,0,59,80,359.0,0.958333,Sixteenth,B3
529,Left,1,50,80,359.0,0.958333,Sixteenth,D3
530,Left,1,52,80,360.0,0.958333,Sixteenth,E3
531,Right,0,72,80,360.0,1.958333,Eighth,C5
532,Left,1,48,80,361.0,0.958333,Sixteenth,C3
533,Right,0,64,80,362.0,0.958333,Sixteenth,E4
534,Right,0,69,80,363.0,1.958333,Eighth,A4
535,Left,1,55,80,363.0,0.958333,Sixteenth,G3
536,Left,1,49,80,364.0,0.958333,Sixteenth,C#3
538,Right,0,64,80,365.0,0.958333,Sixteenth,E4
537,Left,1,55,80,365.0,1.958333,Eighth,G3
539,Right,0,67,80,366.0,1.958333,Eighth,G4
540,Left,1,50,80,367.0,0.958333,Sixteenth,D3
542,Right,0,65,80,368.0,0.958333,Sixteenth,F4
541,Left,1,55,80,368.0,1.958333,Eighth,G3
543,Right,0,74,80,369.0,1.958333,Eighth,D5
544,Left,1,46,80,370.0,0.958333,Sixteenth,A#2
546,Left,1,55,80,371.0,1.958333,Eighth,G3
545,Right,0,62,80,371.0,0.958333,Sixteenth,D4
547,Right,0,67,80,372.0,1.958333,Eighth,G4
548,Left,1,47,80,373.0,0.958333,Sixteenth,B2
550,Right,0,62,80,374.0,0.958333,Sixteenth,D4
549,Left,1,55,80,374.0,1.958333,Eighth,G3
551,Right,0,65,80,375.0,1.958333,Eighth,F4
552,Left,1,48,80,376.0,0.958333,Sixteenth,C3
553,Right,0,64,80,377.0,0.958333,Sixteenth,E4
554,Left,1,55,80,377.0,0.958333,Sixteenth,G3
555,Right,0,67,80,378.0,1.958333,Eighth,G4
556,Left,1,52,80,378.0,0.958333,Sixteenth,E3
557,Left,1,50,80,379.0,0.958333,Sixteenth,D3
559,Left,1,55,80,380.0,1.958333,Eighth,G3
558,Right,0,65,80,380.0,0.958333,Sixteenth,F4
560,Right,0,69,80,381.0,1.958333,Eighth,A4
561,Left,1,51,80,382.0,0.958333,Sixteenth,D#3
562,Right,0,67,80,383.0,0.958333,Sixteenth,G4
563,Left,1,52,80,383.0,0.958333,Sixteenth,E3
565,Left,1,55,80,384.0,0.958333,Sixteenth,G3
564,Right,0,76,80,384.0,1.958333,Eighth,E5
566,Left,1,48,80,385.0,0.958333,Sixteenth,C3
567,Left,1,55,80,386.0,1.958333,Eighth,G3
568,Right,0,64,80,386.0,0.958333,Sixteenth,E4
569,Right,0,72,80,387.0,1.958333,Eighth,C5
570,Left,1,52,80,388.0,0.958333,Sixteenth,E3
571,Left,1,55,80,389.0,1.958333,Eighth,G3
572,Right,0,64,80,389.0,0.958333,Sixteenth,E4
573,Right,0,72,80,390.0,1.958333,Eighth,D#4_C5
575,Left,1,42,80,391.0,0.958333,Sixteenth,F#2
577,Right,0,71,80,392.0,0.958333,Sixteenth,D4_B4
576,Left,1,55,80,392.0,1.958333,Eighth,G3
579,Right,0,60,80,393.0,1.958333,Eighth,C4_A4
581,Left,1,43,80,394.0,0.958333,Sixteenth,G2
582,Left,1,55,80,395.0,1.958333,Eighth,G3
583,Right,0,67,80,395.0,0.958333,Sixteenth,G4_B3
585,Right,0,69,80,396.0,1.958333,Eighth,C4_A4
587,Left,1,41,80,397.0,0.958333,Sixteenth,F2
589,Right,0,62,80,398.0,0.958333,Sixteenth,D4_B4
588,Left,1,55,80,398.0,1.958333,Eighth,G3
591,Right,0,72,80,399.0,1.958333,Eighth,C5
592,Left,1,40,82,400.0,0.958333,Sixteenth,E2
593,Left,1,55,85,401.0,1.958333,Eighth,G3
594,Right,0,64,85,401.0,0.958333,Sixteenth,E4
595,Right,0,76,87,402.0,1.958333,Eighth,E5
596,Left,1,36,90,403.0,0.958333,Sixteenth,C2
597,Left,1,52,93,404.0,1.958333,Eighth,E3
598,Right,0,67,93,404.0,0.958333,Sixteenth,G4
599,Right,0,79,95,405.0,1.958333,Eighth,G5_A#4
601,Left,1,36,98,406.0,0.958333,Sixteenth,C2
602,Left,1,52,100,407.0,1.958333,Eighth,E3
603,Right,0,70,100,407.0,0.958333,Sixteenth,G4_A#4
605,Right,0,79,100,408.0,1.958333,Eighth,G5_A4
607,Left,1,37,98,409.0,0.958333,Sixteenth,C#2
609,Right,0,69,95,410.0,0.958333,Sixteenth,G4_A4
608,Left,1,52,95,410.0,1.958333,Eighth,E3
611,Right,0,77,93,411.0,1.958333,Eighth,F5_A4
613,Left,1,38,90,412.0,0.958333,Sixteenth,D2
614,Right,0,69,87,413.0,0.958333,Sixteenth,A4
615,Left,1,53,87,413.0,0.958333,Sixteenth,F3
616,Left,1,54,85,414.0,0.958333,Sixteenth,F#3
617,Right,0,69,85,414.0,1.958333,Eighth,D5_A4
619,Left,1,42,82,415.0,0.958333,Sixteenth,F#2
620,Left,1,57,80,416.0,0.958333,Sixteenth,A3
621,Right,0,66,80,416.0,0.958333,Sixteenth,F#4_C5
626,Left,1,56,80,417.0,0.958333,Sixteenth,G#3
623,Right,0,72,80,417.0,2.958333,DottedEighth,F4_D4_C5
627,Left,1,43,80,418.0,0.958333,Sixteenth,G2
629,Left,1,55,80,419.0,0.958333,Sixteenth,G3
628,Right,0,71,80,419.0,0.958333,Sixteenth,B4
630,Right,0,72,80,420.0,3.958333,Quarter,F4_D4_C5
633,Left,1,57,80,420.0,0.958333,Sixteenth,A3
634,Left,1,43,80,421.0,0.958333,Sixteenth,G2
636,Left,1,59,80,422.0,1.958333,Eighth,B3
635,Right,0,73,80,422.0,0.958333,Sixteenth,C#5
637,Right,0,73,80,423.0,0.958333,Sixteenth,C#5
639,Right,0,65,80,424.0,0.958333,Sixteenth,G4_F4_D5_D4
638,Left,1,59,80,424.0,0.958333,Sixteenth,B3
643,Right,0,65,80,425.0,0.958333,Sixteenth,G4_F4_D4
644,Left,1,59,80,425.0,1.958333,Eighth,B3
647,Right,0,65,80,426.0,2.958333,Sixteenth,G4_F4_D4
650,Right,0,64,80,427.0,0.958333,Sixteenth,E4
651,Left,1,60,80,427.0,0.958333,Sixteenth,C4
652,Right,0,65,80,428.0,0.958333,Sixteenth,F4
653,Left,1,62,80,428.0,0.958333,Sixteenth,D4
654,Right,0,64,80,429.0,0.958333,Sixteenth,G4_E4
655,Left,1,60,80,429.0,0.958333,Sixteenth,C4
658,Right,0,64,80,430.0,0.958333,Sixteenth,G#4_E4_D4
657,Left,1,59,80,430.0,0.958333,Sixteenth,B3
661,Right,0,64,80,431.0,0.958333,Sixteenth,E4_C4_A4
664,Left,1,57,80,431.0,0.958333,Sixteenth,A3
665,Right,0,71,80,432.0,0.958333,Sixteenth,E4_B4_B3
668,Left,1,56,80,432.0,0.958333,Sixteenth,G#3
669,Right,0,64,80,433.0,0.958333,Sixteenth,E4_C4
671,Left,1,57,80,433.0,0.958333,Sixteenth,A3
674,Left,1,59,80,434.0,0.958333,Sixteenth,B3
672,Right,0,62,80,434.0,0.958333,Sixteenth,E4_D4
676,Right,0,72,80,435.0,1.958333,Eighth,C5
675,Left,1,57,80,435.0,0.958333,Sixteenth,A3
677,Left,1,45,80,436.0,0.958333,Sixteenth,A2
679,Right,0,64,80,437.0,0.958333,Sixteenth,E4_C4
678,Left,1,52,80,437.0,1.958333,Eighth,E3
681,Right,0,62,80,438.0,1.958333,Eighth,F4_D4_B3
684,Left,1,44,80,439.0,0.958333,Sixteenth,G#2
686,Left,1,52,80,440.0,1.958333,Eighth,E3
685,Right,0,64,80,440.0,0.958333,Sixteenth,E4
687,Right,0,72,80,441.0,1.958333,Eighth,C5
688,Left,1,45,80,442.0,0.958333,Sixteenth,A2
691,Left,1,52,80,443.0,1.958333,Eighth,E3
689,Right,0,64,80,443.0,0.958333,Sixteenth,E4_C4
692,Right,0,71,80,444.0,1.958333,Eighth,B4
693,Left,1,44,80,445.0,0.958333,Sixteenth,G#2
695,Right,0,59,80,446.0,1.958333,Sixteenth,E4_B3
694,Left,1,52,80,446.0,1.958333,Eighth,E3
697,Right,0,60,80,447.0,0.958333,Sixteenth,C4
698,Right,0,72,80,448.0,0.958333,Sixteenth,C5
699,Left,1,45,80,448.0,0.958333,Sixteenth,A2
700,Right,0,71,80,449.0,0.958333,Sixteenth,B4
701,Left,1,52,80,449.0,1.958333,Eighth,E3
702,Right,0,72,80,450.0,0.958333,Sixteenth,C5
704,Left,1,44,80,451.0,0.958333,Sixteenth,G#2
703,Right,0,64,80,451.0,0.958333,Sixteenth,E4_B4
706,Left,1,56,80,452.0,1.958333,Eighth,G#3
707,Right,0,76,80,452.0,1.958333,Sixteenth,E5_B4
709,Right,0,77,80,453.0,1.958333,Eighth,F5
711,Left,1,56,80,454.0,0.958333,Sixteenth,G#3
710,Right,0,71,80,454.0,0.958333,Sixteenth,B4
714,Left,1,57,80,455.0,1.958333,Eighth,A3
712,Right,0,72,80,455.0,0.958333,Sixteenth,E5_C5
715,Right,0,76,80,456.0,1.958333,Eighth,E5_C5
717,Left,1,57,80,457.0,0.958333,Sixteenth,A3
719,Right,0,74,80,458.0,0.958333,Sixteenth,G#4_D5
718,Left,1,59,80,458.0,1.958333,Eighth,B3
721,Right,0,74,80,459.0,0.958333,Sixteenth,G#4_D5
725,Left,1,60,80,460.0,0.958333,Sixteenth,C4
723,Right,0,72,80,460.0,0.958333,Sixteenth,C5_A4
726,Left,1,62,80,461.0,0.958333,Sixteenth,D4
727,Right,0,69,80,461.0,1.958333,Eighth,C5_A4
729,Left,1,63,80,462.0,0.958333,Sixteenth,D#4
732,Left,1,64,80,463.0,0.958333,Sixteenth,E4
730,Right,0,68,80,463.0,0.958333,Sixteenth,G#4_B4
733,Right,0,68,80,464.0,1.958333,Eighth,G#4_B4
735,Left,1,64,80,464.0,0.958333,Sixteenth,E4
736,Left,1,64,80,465.0,0.958333,Sixteenth,E4
737,Right,0,64,80,466.0,0.958333,Sixteenth,E4_C5
739,Left,1,57,80,466.0,0.958333,Sixteenth,A3
740,Right,0,64,80,467.0,1.958333,Eighth,E4_C5
742,Left,1,57,80,467.0,0.958333,Sixteenth,A3
743,Left,1,57,80,468.0,0.958333,Sixteenth,A3
746,Left,1,55,80,469.0,0.958333,Sixteenth,G3
744,Right,0,71,80,469.0,0.958333,Sixteenth,D5_B4
749,Left,1,55,80,470.0,1.958333,Eighth,G3
747,Right,0,74,80,470.0,0.958333,Sixteenth,D5_B4
750,Right,0,74,80,471.0,5.958333,DottedQuarter,D5_B4
752,Left,1,43,81,472.0,0.958333,Sixteenth,G2
753,Right,0,65,82,473.0,0.958333,Sixteenth,F4
754,Left,1,55,82,473.0,1.958333,Eighth,G3
755,Right,0,64,83,474.0,1.958333,Eighth,E4
756,Left,1,43,84,475.0,0.958333,Sixteenth,G2
758,Right,0,65,85,476.0,0.958333,Sixteenth,F4
757,Left,1,55,85,476.0,1.958333,Eighth,G3
759,Right,0,75,87,477.0,2.958333,DottedEighth,D#5_B4
761,Left,1,43,88,478.0,0.958333,Sixteenth,G2
763,Right,0,65,89,479.0,0.958333,Sixteenth,F4
762,Left,1,55,89,479.0,1.958333,Eighth,G3
764,Right,0,76,90,480.0,2.958333,DottedEighth,E5_A#4
766,Left,1,36,91,481.0,0.958333,Sixteenth,C2
768,Left,1,48,93,482.0,1.958333,Eighth,C3
767,Right,0,64,93,482.0,0.958333,Sixteenth,E4
769,Right,0,67,94,483.0,1.958333,Eighth,G4_E5_A#4
772,Left,1,36,95,484.0,0.958333,Sixteenth,C2
773,Right,0,70,96,485.0,0.958333,Sixteenth,G5_E5_A#4
776,Left,1,48,96,485.0,1.958333,Eighth,C3
777,Right,0,69,97,486.0,2.958333,DottedEighth,G5_A4
779,Left,1,29,99,487.0,0.958333,Sixteenth,F1
781,Right,0,77,100,488.0,0.958333,Sixteenth,F5
780,Left,1,41,100,488.0,0.958333,Sixteenth,F2
783,Left,1,43,101,489.0,0.958333,Sixteenth,G2
782,Right,0,76,101,489.0,2.958333,DottedEighth,F4_E5_B4
786,Left,1,31,102,490.0,0.958333,Sixteenth,G1
788,Right,0,74,103,491.0,0.958333,Sixteenth,D5
787,Left,1,43,103,491.0,1.958333,Eighth,G2
789,Right,0,65,105,492.0,5.958333,DottedQuarter,F4_C#5
791,Left,1,31,106,493.0,0.958333,Sixteenth,G1
792,Right,0,74,107,494.0,0.958333,Sixteenth,D5
793,Left,1,43,107,494.0,1.958333,Eighth,G2
794,Right,0,71,108,495.0,1.958333,Eighth,D5_B4
797,Left,1,31,109,496.0,0.958333,Sixteenth,G1
796,Right,0,81,109,496.0,0.958333,Sixteenth,A5
798,Right,0,79,110,497.0,0.958333,Sixteenth,G5_D5
800,Left,1,47,110,497.0,0.958333,Sixteenth,B2
802,Right,0,74,110,498.0,0.958333,Sixteenth,G5_D5
801,Left,1,47,110,498.0,0.958333,Sixteenth,B2
804,Left,1,55,103,499.0,0.958333,Sixteenth,G3_G2
806,Right,0,71,103,499.0,0.958333,Sixteenth,F5_B4
810,Right,0,72,95,500.0,2.958333,DottedEighth,E5_C5
808,Left,1,55,95,500.0,1.958333,Sixteenth,G3_C3
813,Right,0,77,87,501.0,0.958333,Sixteenth,F5
812,Left,1,57,87,501.0,0.958333,Sixteenth,A3
814,Left,1,55,80,502.0,0.958333,Sixteenth,G3_C3
816,Right,0,76,80,502.0,0.958333,Sixteenth,E5
818,Left,1,52,80,503.0,0.958333,Sixteenth,E3
817,Right,0,64,80,503.0,0.958333,Sixteenth,E4
820,Left,1,53,80,504.0,0.958333,Sixteenth,F3
819,Right,0,65,80,504.0,0.958333,Sixteenth,F4
821,Left,1,52,80,505.0,0.958333,Sixteenth,E3
822,Right,0,64,80,505.0,0.958333,Sixteenth,E4
824,Left,1,52,80,506.0,1.958333,Eighth,E3
823,Right,0,64,80,506.0,0.958333,Sixteenth,E4
825,Right,0,72,80,507.0,1.958333,Eighth,C5
826,Left,1,45,80,508.0,0.958333,Sixteenth,A2
827,Right,0,60,80,509.0,0.958333,Sixteenth,E4_C4
829,Left,1,52,80,509.0,1.958333,Eighth,E3
830,Right,0,65,80,510.0,1.958333,Eighth,F4_D4_B3
833,Left,1,44,80,511.0,0.958333,Sixteenth,G#2
835,Right,0,64,80,512.0,0.958333,Sixteenth,E4
834,Left,1,52,80,512.0,1.958333,Eighth,E3
836,Right,0,72,80,513.0,1.958333,Eighth,C5
837,Left,1,45,80,514.0,0.958333,Sixteenth,A2
838,Right,0,64,80,515.0,0.958333,Sixteenth,E4_C4
840,Left,1,52,80,515.0,1.958333,Eighth,E3
841,Right,0,71,80,516.0,1.958333,Eighth,B4
842,Left,1,44,80,517.0,0.958333,Sixteenth,G#2
843,Right,0,64,80,518.0,1.958333,Eighth,E4_B3
845,Left,1,52,80,518.0,1.958333,Eighth,E3
846,Right,0,60,80,519.0,0.958333,Sixteenth,C4
847,Right,0,72,80,520.0,0.958333,Sixteenth,C5
848,Left,1,45,80,520.0,0.958333,Sixteenth,A2
849,Right,0,71,80,521.0,0.958333,Sixteenth,B4
850,Left,1,52,80,521.0,1.958333,Eighth,E3
851,Right,0,72,80,522.0,0.958333,Sixteenth,C5
853,Right,0,71,80,523.0,0.958333,Sixteenth,E4_B4
852,Left,1,44,80,523.0,0.958333,Sixteenth,G#2
856,Right,0,76,80,524.0,1.958333,Sixteenth,E5_B4
855,Left,1,56,80,524.0,1.958333,Eighth,G#3
858,Right,0,77,80,525.0,1.958333,Eighth,F5
860,Right,0,71,80,526.0,0.958333,Sixteenth,B4
859,Left,1,56,80,526.0,0.958333,Sixteenth,G#3
862,Left,1,57,80,527.0,1.958333,Eighth,A3
861,Right,0,72,80,527.0,0.958333,Sixteenth,E5_C5
864,Right,0,72,80,528.0,1.958333,Eighth,E5_C5
866,Left,1,57,80,529.0,0.958333,Sixteenth,A3
868,Left,1,59,80,530.0,1.958333,Eighth,B3
867,Right,0,74,80,530.0,0.958333,Sixteenth,G#4_D5
870,Right,0,74,80,531.0,0.958333,Sixteenth,G#4_D5
872,Right,0,72,80,532.0,0.958333,Sixteenth,C5_A4
874,Left,1,60,80,532.0,0.958333,Sixteenth,C4
875,Right,0,69,80,533.0,1.958333,Eighth,C5_A4
877,Left,1,62,80,533.0,0.958333,Sixteenth,D4
878,Left,1,63,80,534.0,0.958333,Sixteenth,D#4
881,Left,1,64,80,535.0,0.958333,Sixteenth,E4
879,Right,0,71,80,535.0,0.958333,Sixteenth,G#4_B4
883,Right,0,71,80,536.0,1.958333,Eighth,G#4_B4
882,Left,1,64,80,536.0,0.958333,Sixteenth,E4
885,Left,1,64,80,537.0,0.958333,Sixteenth,E4
886,Right,0,72,80,538.0,0.958333,Sixteenth,E4_C5
888,Left,1,57,80,538.0,0.958333,Sixteenth,A3
889,Right,0,64,80,539.0,1.958333,Eighth,E4_C5
890,Left,1,57,80,539.0,0.958333,Sixteenth,A3
892,Left,1,57,80,540.0,0.958333,Sixteenth,A3
893,Right,0,74,80,541.0,0.958333,Sixteenth,D5_B4
895,Left,1,55,80,541.0,0.958333,Sixteenth,G3
896,Right,0,74,80,542.0,0.958333,Sixteenth,D5_B4
898,Left,1,55,80,542.0,1.958333,Eighth,G3
899,Right,0,71,80,543.0,5.958333,Eighth,D5_B4
901,Left,1,43,81,544.0,0.958333,Sixteenth,G2
903,Right,0,65,82,545.0,0.958333,Sixteenth,F4
902,Left,1,55,82,545.0,1.958333,Eighth,G3
904,Right,0,64,83,546.0,1.958333,Eighth,E4
905,Left,1,43,84,547.0,0.958333,Sixteenth,G2
906,Left,1,55,85,548.0,1.958333,Eighth,G3
907,Right,0,65,85,548.0,0.958333,Sixteenth,F4
908,Right,0,75,87,549.0,2.958333,DottedEighth,D#5_B4
910,Left,1,43,88,550.0,0.958333,Sixteenth,G2
911,Left,1,55,89,551.0,1.958333,Eighth,G3
912,Right,0,65,89,551.0,0.958333,Sixteenth,F4
913,Right,0,70,90,552.0,2.958333,DottedEighth,E5_A#4
915,Left,1,36,91,553.0,0.958333,Sixteenth,C2
916,Right,0,64,93,554.0,0.958333,Sixteenth,E4
917,Left,1,48,93,554.0,1.958333,Eighth,C3
918,Right,0,76,94,555.0,1.958333,Eighth,G4_E5_A#4
921,Left,1,36,95,556.0,0.958333,Sixteenth,C2
925,Left,1,48,96,557.0,1.958333,Eighth,C3
922,Right,0,79,96,557.0,0.958333,Sixteenth,G5_E5_A#4
926,Right,0,69,97,558.0,2.958333,DottedEighth,G5_A4
928,Left,1,29,99,559.0,0.958333,Sixteenth,F1
929,Left,1,41,100,560.0,0.958333,Sixteenth,F2
930,Right,0,77,100,560.0,0.958333,Sixteenth,F5
932,Left,1,43,101,561.0,0.958333,Sixteenth,G2
931,Right,0,71,101,561.0,2.958333,DottedEighth,F4_E5_B4
935,Left,1,31,102,562.0,0.958333,Sixteenth,G1
936,Left,1,43,103,563.0,1.958333,Eighth,G2
937,Right,0,74,103,563.0,0.958333,Sixteenth,D5
938,Right,0,73,105,564.0,5.958333,Quarter,F4_C#5
940,Left,1,31,106,565.0,0.958333,Sixteenth,G1
942,Left,1,43,107,566.0,1.958333,Eighth,G2
941,Right,0,74,107,566.0,0.958333,Sixteenth,D5
943,Right,0,74,108,567.0,2.958333,Sixteenth,D5_B4
946,Left,1,31,109,568.0,0.958333,Sixteenth,G1
945,Right,0,81,109,568.0,0.958333,Sixteenth,A5
947,Left,1,47,110,569.0,0.958333,Sixteenth,B2
948,Right,0,79,110,569.0,0.958333,Sixteenth,G5_D5
950,Left,1,47,110,570.0,0.958333,Sixteenth,B2
951,Right,0,79,110,570.0,0.958333,Sixteenth,G5_D5
953,Left,1,55,104,571.0,0.958333,Sixteenth,G3_G2
954,Right,0,77,104,571.0,0.958333,Sixteenth,F5_B4
957,Right,0,76,98,572.0,2.958333,Sixteenth,E5_C5
958,Left,1,55,98,572.0,1.958333,Sixteenth,G3_C3
962,Left,1,57,92,573.0,0.958333,Sixteenth,A3
961,Right,0,77,92,573.0,0.958333,Sixteenth,F5
965,Right,0,76,86,574.0,0.958333,Sixteenth,E5
963,Left,1,48,86,574.0,0.958333,Sixteenth,G3_C3
966,Right,0,76,80,575.0,0.958333,Sixteenth,E5_C5
968,Left,1,55,80,575.0,0.958333,Sixteenth,G3_C3
970,Left,1,60,80,576.0,0.958333,Sixteenth,C4
971,Left,1,55,80,577.0,0.458333,ThirtySecond,G3
972,Left,1,54,80,577.5,0.958333,Sixteenth,F#3
973,Left,1,55,80,578.5,0.458333,ThirtySecond,G3
975,Right,0,76,80,579.0,0.958333,Sixteenth,G4_E5
974,Left,1,55,80,579.0,1.458333,DottedSixteenth,G3
977,Right,0,64,80,580.0,0.458333,ThirtySecond,E4_C5
980,Right,0,71,80,580.5,0.958333,Sixteenth,D4_B4
979,Left,1,55,80,580.5,2.958333,DottedEighth,G3
982,Right,0,64,80,581.5,0.458333,ThirtySecond,E4_C5
984,Right,0,74,80,582.0,0.958333,Sixteenth,F4_D5
986,Right,0,62,80,583.0,0.458333,ThirtySecond,D4_B4
988,Right,0,70,80,583.5,0.958333,Sixteenth,C#4_A#4
990,Left,1,55,80,583.5,1.458333,DottedSixteenth,G3
991,Right,0,71,80,584.5,0.458333,ThirtySecond,D4_B4
993,Left,1,50,80,585.0,0.958333,Sixteenth,D3
994,Left,1,43,80,586.0,0.458333,ThirtySecond,G2
995,Left,1,42,80,586.5,0.958333,Sixteenth,F#2
996,Left,1,43,80,587.5,0.458333,ThirtySecond,G2
998,Right,0,53,80,588.0,0.958333,Sixteenth,F3
997,Left,1,45,80,588.0,1.458333,DottedSixteenth,A2
999,Right,0,50,80,589.0,0.458333,ThirtySecond,D3
1000,Right,0,49,80,589.5,0.958333,Sixteenth,C#3
1001,Left,1,47,80,589.5,2.958333,DottedEighth,B2
1002,Right,0,50,80,590.5,0.458333,ThirtySecond,D3
1003,Right,0,67,80,591.0,0.958333,Sixteenth,G4
1004,Right,0,64,80,592.0,0.458333,ThirtySecond,E4
1005,Right,0,63,80,592.5,0.958333,Sixteenth,D#4
1006,Left,1,48,80,592.5,1.458333,DottedSixteenth,C3
1007,Right,0,64,80,593.5,0.458333,ThirtySecond,E4
1008,Right,0,67,80,594.0,0.958333,Sixteenth,G4
1009,Left,1,49,80,594.0,1.458333,DottedSixteenth,C#3
1010,Right,0,64,80,595.0,0.458333,ThirtySecond,E4
1011,Right,0,67,80,595.5,0.958333,Sixteenth,G4
1012,Left,1,50,80,595.5,1.458333,DottedSixteenth,D3
1013,Right,0,65,80,596.5,0.458333,ThirtySecond,F4
1014,Right,0,69,80,597.0,0.958333,Sixteenth,A4
1015,Left,1,51,80,597.0,1.458333,DottedSixteenth,D#3
1016,Right,0,66,80,598.0,0.458333,ThirtySecond,F#4
1017,Right,0,69,80,598.5,0.958333,Sixteenth,A4
1018,Left,1,52,80,598.5,1.458333,DottedSixteenth,E3
1019,Right,0,67,80,599.5,0.458333,ThirtySecond,G4
1020,Left,1,50,80,600.0,0.958333,Sixteenth,D3
1021,Right,0,76,80,600.0,2.958333,DottedEighth,G4_E5
1023,Left,1,47,80,601.0,0.458333,ThirtySecond,B2
1024,Left,1,50,80,601.5,0.958333,Sixteenth,D3
1025,Left,1,48,80,602.5,0.458333,ThirtySecond,C3
1026,Left,1,53,80,603.0,0.958333,Sixteenth,F3
1027,Right,0,67,80,603.0,2.958333,DottedEighth,G4_C5
1029,Left,1,51,80,604.0,0.458333,ThirtySecond,D#3
1030,Left,1,53,80,604.5,0.958333,Sixteenth,F3
1031,Left,1,52,80,605.5,0.458333,ThirtySecond,E3
1032,Left,1,55,80,606.0,2.958333,DottedEighth,G3
1033,Right,0,64,80,606.0,0.958333,Sixteenth,E4_C5
1035,Right,0,62,80,607.0,0.458333,ThirtySecond,D4_B4
1037,Right,0,65,80,607.5,0.958333,Sixteenth,F4_D5
1039,Right,0,72,80,608.5,0.458333,ThirtySecond,E4_C5
1041,Right,0,72,80,609.0,0.958333,Sixteenth,E4_C5
1043,Left,1,43,80,609.0,2.958333,DottedEighth,G2
1044,Right,0,70,80,610.0,0.458333,ThirtySecond,C#4_A#4
1046,Right,0,72,80,610.5,0.958333,Sixteenth,E4_C5
1048,Right,0,62,80,611.5,0.458333,ThirtySecond,D4_B4
1053,Left,1,41,80,612.0,0.958333,Sixteenth,F2
1050,Right,0,71,80,612.0,2.958333,DottedEighth,G4_D4_B4
1054,Left,1,40,80,613.0,0.458333,ThirtySecond,E2
1055,Left,1,43,80,613.5,0.958333,Sixteenth,G2
1056,Left,1,41,80,614.5,0.458333,ThirtySecond,F2
1059,Left,1,40,80,615.0,0.958333,Sixteenth,E2
1057,Right,0,72,80,615.0,2.958333,DottedEighth,G4_C5
1060,Left,1,38,82,616.0,0.458333,ThirtySecond,D2
1061,Left,1,41,83,616.5,0.958333,Sixteenth,F2
1062,Left,1,40,86,617.5,0.458333,ThirtySecond,E2
1063,Right,0,76,87,618.0,1.458333,Sixteenth,E5_E4
1064,Left,1,36,87,618.0,0.958333,Sixteenth,C2
1066,Right,0,74,89,619.0,0.458333,ThirtySecond,D5
1067,Left,1,35,89,619.0,0.458333,ThirtySecond,B1
1068,Right,0,77,91,619.5,1.458333,Sixteenth,G4_F5
1070,Left,1,38,91,619.5,0.958333,Sixteenth,D2
1072,Right,0,76,93,620.5,0.458333,ThirtySecond,E5
1071,Left,1,36,93,620.5,0.458333,ThirtySecond,C2
1074,Right,0,74,94,621.0,4.458333,Sixteenth,G5_D5
1073,Left,1,34,94,621.0,0.958333,Sixteenth,A#1
1077,Right,0,73,97,622.0,0.458333,ThirtySecond,C#5
1076,Left,1,33,97,622.0,0.458333,ThirtySecond,A1
1079,Right,0,76,98,622.5,0.958333,Sixteenth,E5
1078,Left,1,36,98,622.5,0.958333,Sixteenth,C2
1081,Left,1,34,100,623.5,0.458333,ThirtySecond,A#1
1080,Right,0,74,100,623.5,0.458333,ThirtySecond,D5
1082,Left,1,33,100,624.0,1.458333,DottedSixteenth,A1
1083,Right,0,73,100,624.0,0.958333,Sixteenth,C#5
1084,Right,0,71,97,625.0,0.458333,ThirtySecond,B4
1085,Left,1,45,95,625.5,1.458333,DottedSixteenth,A2
1086,Right,0,74,95,625.5,2.458333,Sixteenth,G5_D5
1088,Right,0,73,92,626.5,0.458333,ThirtySecond,C#5
1090,Left,1,38,90,627.0,1.458333,DottedSixteenth,D2
1089,Right,0,69,90,627.0,1.458333,DottedSixteenth,A4
1091,Right,0,76,87,628.0,0.458333,ThirtySecond,E5
1094,Left,1,50,85,628.5,1.458333,DottedSixteenth,D3
1092,Right,0,79,85,628.5,2.958333,Sixteenth,G5_A4
1095,Right,0,77,81,629.5,0.458333,ThirtySecond,F5
1097,Left,1,41,80,630.0,1.458333,DottedSixteenth,F2
1096,Right,0,76,80,630.0,0.958333,Sixteenth,E5
1098,Right,0,73,80,631.0,0.458333,ThirtySecond,C#5
1099,Right,0,69,80,631.5,1.458333,DottedSixteenth,E5_A4
1100,Left,1,41,80,631.5,2.458333,Eighth,F2
1102,Right,0,74,80,632.5,0.458333,ThirtySecond,D5
1103,Right,0,72,80,633.0,1.458333,DottedSixteenth,C5_A4
1105,Left,1,42,80,634.0,0.458333,ThirtySecond,F#2
1106,Left,1,45,80,634.5,0.958333,Sixteenth,A2
1107,Right,0,62,80,634.5,1.458333,DottedSixteenth,D4_B4
1109,Left,1,43,80,635.5,0.458333,ThirtySecond,G2
1110,Right,0,67,80,636.0,1.458333,Sixteenth,G4_C5
1111,Left,1,43,80,636.0,4.458333,TiedQuarter-ThirtySecond,G2_A2
1114,Right,0,64,80,637.0,0.458333,ThirtySecond,E4
1116,Left,1,46,80,637.5,2.958333,DottedEighth,A#2
1115,Right,0,67,80,637.5,1.458333,Sixteenth,G4_C#5
1118,Right,0,65,80,638.5,1.458333,DottedSixteenth,F4
1119,Right,0,74,80,639.0,1.458333,DottedSixteenth,D5
1120,Right,0,62,80,640.0,0.458333,ThirtySecond,D4
1121,Right,0,74,80,640.5,0.958333,Sixteenth,G#4_F4_D5
1124,Left,1,43,80,640.5,2.458333,Eighth,G2
1125,Right,0,65,80,641.5,0.458333,ThirtySecond,G4_F4_D4
1128,Right,0,65,80,642.0,1.458333,Sixteenth,G4_F4_D4
1131,Left,1,47,80,643.0,0.458333,ThirtySecond,B2
1132,Right,0,62,80,643.0,0.458333,ThirtySecond,D4
1133,Right,0,67,80,643.5,2.958333,DottedEighth,G4_B3
1135,Left,1,50,80,643.5,0.958333,Sixteenth,D3
1137,Left,1,52,80,644.5,0.458333,ThirtySecond,E3
1136,Right,0,60,80,644.5,0.458333,ThirtySecond,C4
1139,Left,1,53,80,645.0,0.958333,Sixteenth,F3
1138,Right,0,62,80,645.0,0.958333,Sixteenth,D4
1140,Left,1,52,80,646.0,0.458333,ThirtySecond,E3
1141,Right,0,60,80,646.0,0.458333,ThirtySecond,C4
1143,Right,0,65,80,646.5,1.458333,Sixteenth,G4_F4
1142,Left,1,50,80,646.5,0.958333,Sixteenth,D3
1146,Right,0,64,80,647.5,0.458333,ThirtySecond,E4
1145,Left,1,48,80,647.5,0.458333,ThirtySecond,C3
1147,Left,1,60,80,648.0,0.958333,Sixteenth,C4
1148,Left,1,55,80,649.0,0.458333,ThirtySecond,G3
1149,Left,1,54,80,649.5,0.958333,Sixteenth,F#3
1150,Left,1,55,80,650.5,0.458333,ThirtySecond,G3
1152,Right,0,76,80,651.0,0.958333,Sixteenth,G4_E5
1151,Left,1,55,80,651.0,1.458333,DottedSixteenth,G3
1154,Right,0,72,80,652.0,0.458333,ThirtySecond,E4_C5
1157,Left,1,55,80,652.5,2.958333,DottedEighth,G3
1156,Right,0,62,80,652.5,0.958333,Sixteenth,D4_B4
1159,Right,0,72,80,653.5,0.458333,ThirtySecond,E4_C5
1161,Right,0,74,80,654.0,0.958333,Sixteenth,F4_D5
1163,Right,0,71,80,655.0,0.458333,ThirtySecond,D4_B4
1166,Right,0,61,80,655.5,0.958333,Sixteenth,C#4_A#4
1165,Left,1,55,80,655.5,1.458333,DottedSixteenth,G3
1168,Right,0,62,80,656.5,0.458333,ThirtySecond,D4_B4
1170,Left,1,50,80,657.0,0.958333,Sixteenth,D3
1171,Left,1,43,80,658.0,0.458333,ThirtySecond,G2
1172,Left,1,42,80,658.5,0.958333,Sixteenth,F#2
1173,Left,1,43,80,659.5,0.458333,ThirtySecond,G2
1175,Left,1,45,80,660.0,1.458333,DottedSixteenth,A2
1174,Right,0,53,80,660.0,0.958333,Sixteenth,F3
1176,Right,0,50,80,661.0,0.458333,ThirtySecond,D3
1178,Right,0,49,80,661.5,0.958333,Sixteenth,C#3
1177,Left,1,47,80,661.5,2.958333,DottedEighth,B2
1179,Right,0,50,80,662.5,0.458333,ThirtySecond,D3
1180,Right,0,67,80,663.0,0.958333,Sixteenth,G4
1181,Right,0,64,80,664.0,0.458333,ThirtySecond,E4
1183,Left,1,48,80,664.5,1.458333,DottedSixteenth,C3
1182,Right,0,63,80,664.5,0.958333,Sixteenth,D#4
1184,Right,0,64,80,665.5,0.458333,ThirtySecond,E4
1185,Right,0,67,80,666.0,0.958333,Sixteenth,G4
1186,Left,1,49,80,666.0,1.458333,DottedSixteenth,C#3
1187,Right,0,64,80,667.0,0.458333,ThirtySecond,E4
1188,Right,0,67,80,667.5,0.958333,Sixteenth,G4
1189,Left,1,50,80,667.5,1.458333,DottedSixteenth,D3
1190,Right,0,65,80,668.5,0.458333,ThirtySecond,F4
1191,Right,0,69,80,669.0,0.958333,Sixteenth,A4
1192,Left,1,51,80,669.0,1.458333,DottedSixteenth,D#3
1193,Right,0,66,80,670.0,0.458333,ThirtySecond,F#4
1195,Right,0,69,80,670.5,0.958333,Sixteenth,A4
1194,Left,1,52,80,670.5,1.458333,DottedSixteenth,E3
1196,Right,0,67,80,671.5,0.458333,ThirtySecond,G4
1198,Right,0,67,80,672.0,2.958333,DottedEighth,G4_E5
1197,Left,1,50,80,672.0,0.958333,Sixteenth,D3
1200,Left,1,47,80,673.0,0.458333,ThirtySecond,B2
1201,Left,1,50,80,673.5,0.958333,Sixteenth,D3
1202,Left,1,48,80,674.5,0.458333,ThirtySecond,C3
1204,Left,1,53,80,675.0,0.958333,Sixteenth,F3
1203,Right,0,67,80,675.0,2.958333,DottedEighth,G4_C5
1206,Left,1,51,80,676.0,0.458333,ThirtySecond,D#3
1207,Left,1,53,80,676.5,0.958333,Sixteenth,F3
1208,Left,1,52,80,677.5,0.458333,ThirtySecond,E3
1210,Right,0,72,80,678.0,0.958333,Sixteenth,E4_C5
1209,Left,1,55,80,678.0,2.958333,DottedEighth,G3
1212,Right,0,71,80,679.0,0.458333,ThirtySecond,D4_B4
1214,Right,0,65,80,679.5,0.958333,Sixteenth,F4_D5
1216,Right,0,72,80,680.5,0.458333,ThirtySecond,E4_C5
1219,Right,0,64,80,681.0,0.958333,Sixteenth,E4_C5
1218,Left,1,43,80,681.0,2.958333,DottedEighth,G2
1221,Right,0,61,80,682.0,0.458333,ThirtySecond,C#4_A#4
1223,Right,0,64,80,682.5,0.958333,Sixteenth,E4_C5
1225,Right,0,62,80,683.5,0.458333,ThirtySecond,D4_B4
1227,Right,0,71,80,684.0,2.958333,DottedEighth,G4_D4_B4
1230,Left,1,41,80,684.0,0.958333,Sixteenth,F2
1231,Left,1,40,80,685.0,0.458333,ThirtySecond,E2
1232,Left,1,43,80,685.5,0.958333,Sixteenth,G2
1233,Left,1,41,80,686.5,0.458333,ThirtySecond,F2
1235,Right,0,72,80,687.0,2.958333,DottedEighth,G4_C5
1234,Left,1,40,80,687.0,0.958333,Sixteenth,E2
1237,Left,1,38,82,688.0,0.458333,ThirtySecond,D2
1238,Left,1,41,83,688.5,0.958333,Sixteenth,F2
1239,Left,1,40,86,689.5,0.458333,ThirtySecond,E2
1240,Left,1,36,87,690.0,0.958333,Sixteenth,C2
1241,Right,0,76,87,690.0,1.458333,Sixteenth,E5_E4
1244,Left,1,35,89,691.0,0.458333,ThirtySecond,B1
1243,Right,0,74,89,691.0,0.458333,ThirtySecond,D5
1246,Right,0,77,91,691.5,1.458333,Sixteenth,G4_F5
1245,Left,1,38,91,691.5,0.958333,Sixteenth,D2
1248,Right,0,76,93,692.5,0.458333,ThirtySecond,E5
1249,Left,1,36,93,692.5,0.458333,ThirtySecond,C2
1250,Right,0,79,94,693.0,4.458333,TiedQuarter-ThirtySecond,G5_D5
1252,Left,1,34,94,693.0,0.958333,Sixteenth,A#1
1253,Right,0,73,97,694.0,0.458333,ThirtySecond,C#5
1254,Left,1,33,97,694.0,0.458333,ThirtySecond,A1
1256,Left,1,36,98,694.5,0.958333,Sixteenth,C2
1255,Right,0,76,98,694.5,0.958333,Sixteenth,E5
1258,Left,1,34,100,695.5,0.458333,ThirtySecond,A#1
1257,Right,0,74,100,695.5,0.458333,ThirtySecond,D5
1260,Left,1,33,100,696.0,1.458333,DottedSixteenth,A1
1259,Right,0,73,100,696.0,0.958333,Sixteenth,C#5
1261,Right,0,71,97,697.0,0.458333,ThirtySecond,B4
1262,Left,1,45,95,697.5,1.458333,DottedSixteenth,A2
1263,Right,0,74,95,697.5,2.458333,Sixteenth,G5_D5
1265,Right,0,73,92,698.5,0.458333,ThirtySecond,C#5
1266,Right,0,69,90,699.0,1.458333,DottedSixteenth,A4
1267,Left,1,38,90,699.0,1.458333,DottedSixteenth,D2
1268,Right,0,76,87,700.0,0.458333,ThirtySecond,E5
1269,Left,1,50,85,700.5,1.458333,DottedSixteenth,D3
1270,Right,0,79,85,700.5,2.958333,Sixteenth,G5_A4
1272,Right,0,77,81,701.5,0.458333,ThirtySecond,F5
1274,Right,0,76,80,702.0,0.958333,Sixteenth,E5
1273,Left,1,41,80,702.0,1.458333,DottedSixteenth,F2
1275,Right,0,73,80,703.0,0.458333,ThirtySecond,C#5
1278,Left,1,41,80,703.5,2.458333,Eighth,F2
1276,Right,0,76,80,703.5,1.458333,Sixteenth,E5_A4
1279,Right,0,74,80,704.5,0.458333,ThirtySecond,D5
1280,Right,0,72,80,705.0,1.458333,DottedSixteenth,C5_A4
1282,Left,1,42,80,706.0,0.458333,ThirtySecond,F#2
1283,Left,1,45,80,706.5,0.958333,Sixteenth,A2
1284,Right,0,62,80,706.5,1.458333,DottedSixteenth,D4_B4
1286,Left,1,43,80,707.5,0.458333,ThirtySecond,G2
1287,Right,0,67,80,708.0,1.458333,Sixteenth,G4_C5
1288,Left,1,45,80,708.0,4.458333,DottedSixteenth,G2_A2
1291,Right,0,64,80,709.0,0.458333,ThirtySecond,E4
1293,Right,0,73,80,709.5,1.458333,DottedSixteenth,G4_C#5
1292,Left,1,46,80,709.5,2.958333,DottedEighth,A#2
1295,Right,0,65,80,710.5,1.458333,DottedSixteenth,F4
1296,Right,0,74,80,711.0,1.458333,DottedSixteenth,D5
1297,Right,0,62,80,712.0,0.458333,ThirtySecond,D4
1298,Right,0,65,80,712.5,0.958333,Sixteenth,G#4_F4_D5
1300,Left,1,43,80,712.5,2.458333,Eighth,G2
1302,Right,0,67,80,713.5,0.458333,ThirtySecond,G4_F4_D4
1305,Right,0,65,80,714.0,1.458333,Sixteenth,G4_F4_D4
1309,Left,1,47,80,715.0,0.458333,ThirtySecond,B2
1308,Right,0,62,80,715.0,0.458333,ThirtySecond,D4
1310,Right,0,67,80,715.5,2.958333,Sixteenth,G4_F4_B3
1313,Left,1,50,80,715.5,0.958333,Sixteenth,D3
1314,Right,0,60,80,716.5,0.458333,ThirtySecond,E4_C4
1316,Left,1,48,80,716.5,0.458333,ThirtySecond,C3
1317,Right,0,64,80,717.0,0.958333,Sixteenth,E4
1318,Left,1,48,80,717.0,0.958333,Sixteenth,C3
1319,Right,0,68,80,718.0,0.458333,ThirtySecond,G#4_E4_D4
1320,Left,1,47,80,718.0,0.458333,ThirtySecond,B2
1323,Left,1,45,80,718.5,0.958333,Sixteenth,A2
1324,Right,0,69,80,718.5,0.958333,Sixteenth,E4_C4_A4
1329,Left,1,44,80,719.5,1.458333,DottedSixteenth,G#2
1327,Right,0,64,80,719.5,1.458333,ThirtySecond,E4_B4_B3
1331,Right,0,64,80,720.0,0.958333,Sixteenth,E4
1332,Left,1,44,80,721.0,0.458333,ThirtySecond,G#2
1333,Right,0,62,80,721.0,1.458333,ThirtySecond,E4_D4_B3
1338,Left,1,45,80,721.5,0.958333,Sixteenth,A2
1336,Right,0,57,80,721.5,0.958333,Sixteenth,C4_A3
1339,Left,1,47,80,722.5,0.458333,ThirtySecond,B2
1340,Right,0,64,80,722.5,0.458333,ThirtySecond,G#3_E4_D4
1345,Left,1,45,80,723.0,2.458333,Eighth,A2
1343,Right,0,60,80,723.0,2.458333,Sixteenth,C5_C4
1346,Left,1,51,80,724.0,0.458333,ThirtySecond,D#3
1347,Right,0,63,80,724.0,0.458333,ThirtySecond,D#4
1348,Right,0,64,80,724.5,2.458333,Eighth,E4
1349,Left,1,52,80,724.5,1.958333,Eighth,E3
1350,Right,0,71,80,725.5,0.458333,ThirtySecond,B4
1351,Left,1,44,80,725.5,0.458333,ThirtySecond,G#2
1352,Right,0,72,80,726.0,2.458333,Eighth,C5
1353,Left,1,45,80,726.0,2.458333,Eighth,A2
1355,Right,0,63,80,727.0,0.458333,ThirtySecond,D#4
1354,Left,1,51,80,727.0,0.458333,ThirtySecond,D#3
1356,Right,0,64,80,727.5,2.458333,Eighth,E4
1357,Left,1,52,80,727.5,2.458333,Eighth,E3
1358,Right,0,71,80,728.5,0.458333,ThirtySecond,B4
1359,Left,1,44,80,728.5,0.458333,ThirtySecond,G#2
1360,Left,1,45,80,729.0,2.458333,Eighth,A2
1361,Right,0,72,80,729.0,2.458333,Eighth,C5
1362,Left,1,51,80,730.0,0.458333,ThirtySecond,D#3
1363,Right,0,63,80,730.0,0.458333,ThirtySecond,D#4
1364,Right,0,64,80,730.5,2.458333,Eighth,E4
1365,Left,1,52,80,730.5,2.458333,Eighth,E3
1367,Left,1,44,80,731.5,0.458333,ThirtySecond,G#2
1366,Right,0,71,80,731.5,0.458333,ThirtySecond,B4
1368,Left,1,44,80,732.0,2.458333,Eighth,G#2
1369,Right,0,71,80,732.0,2.458333,Eighth,B4
1371,Right,0,65,80,733.0,0.458333,ThirtySecond,F4
1370,Left,1,53,80,733.0,0.458333,ThirtySecond,F3
1373,Right,0,64,80,733.5,2.458333,Eighth,E4
1372,Left,1,52,80,733.5,2.458333,Eighth,E3
1374,Right,0,72,80,734.5,0.458333,ThirtySecond,C5
1375,Left,1,45,80,734.5,0.458333,ThirtySecond,A2
1377,Right,0,71,80,735.0,2.458333,Eighth,B4
1376,Left,1,44,80,735.0,2.458333,Eighth,G#2
1379,Right,0,65,80,736.0,0.458333,ThirtySecond,F4
1378,Left,1,53,80,736.0,0.458333,ThirtySecond,F3
1380,Right,0,64,80,736.5,2.458333,Eighth,E4
1381,Left,1,52,80,736.5,2.458333,Eighth,E3
1382,Right,0,72,80,737.5,0.458333,ThirtySecond,C5
1383,Left,1,45,80,737.5,0.458333,ThirtySecond,A2
1384,Right,0,71,80,738.0,2.458333,Eighth,B4
1385,Left,1,44,80,738.0,2.458333,Eighth,G#2
1386,Right,0,65,80,739.0,0.458333,ThirtySecond,F4
1387,Left,1,53,80,739.0,0.458333,ThirtySecond,F3
1389,Left,1,52,80,739.5,2.458333,Eighth,E3
1388,Right,0,64,80,739.5,2.458333,Eighth,E4
1390,Left,1,45,80,740.5,0.458333,ThirtySecond,A2
1391,Right,0,76,80,740.5,0.458333,ThirtySecond,E5
1392,Right,0,71,80,741.0,2.458333,Eighth,E5_B4
1394,Left,1,32,80,742.0,0.458333,ThirtySecond,G#2_G#1
1396,Right,0,72,80,743.5,0.458333,ThirtySecond,E5_C5
1398,Right,0,76,80,744.0,2.458333,Eighth,E5_C5
1400,Left,1,45,80,745.0,0.458333,ThirtySecond,A2_A1
1402,Left,1,35,80,745.5,0.958333,Sixteenth,B2_B1
1404,Right,0,68,80,746.5,0.458333,ThirtySecond,G#4_D5_B4
1410,Left,1,36,80,747.0,0.958333,Sixteenth,C3_C2
1407,Right,0,74,80,747.0,0.958333,Sixteenth,E4_D5_B4
1414,Left,1,50,80,748.0,0.458333,ThirtySecond,D3_D2
1412,Right,0,69,80,748.0,0.458333,ThirtySecond,F4_C5_A4
1417,Right,0,66,80,748.5,0.958333,Sixteenth,F#4_C5_A4
1419,Left,1,39,80,748.5,0.958333,Sixteenth,D#3_D#2
1424,Right,0,71,80,749.5,0.458333,ThirtySecond,G#4_B4_B3
1422,Left,1,40,80,749.5,0.458333,ThirtySecond,E3_E2
1429,Right,0,71,80,750.0,0.958333,Sixteenth,G#4_B4_B3
1427,Left,1,40,80,750.0,0.958333,Sixteenth,E3_E2
1432,Left,1,40,82,751.0,1.458333,DottedSixteenth,E3_E2
1433,Right,0,68,82,751.0,1.458333,DottedSixteenth,G#4_B4_B3
1437,Left,1,52,87,752.5,1.458333,DottedSixteenth,E3_E2
1438,Right,0,68,87,752.5,1.458333,DottedSixteenth,G#4_B4_B3
1443,Right,0,60,91,754.0,1.458333,DottedSixteenth,C5_C4_A4
1442,Left,1,45,91,754.0,1.458333,DottedSixteenth,A2_A1
1448,Left,1,45,96,755.5,1.458333,DottedSixteenth,A2_A1
1447,Right,0,72,96,755.5,1.458333,DottedSixteenth,C5_C4_A4
1452,Right,0,62,100,757.0,1.458333,DottedSixteenth,D5_D4_B4
1455,Left,1,31,100,757.0,1.458333,DottedSixteenth,G2_G1
1457,Left,1,31,80,758.5,0.458333,ThirtySecond,G2_G1
1458,Right,0,86,80,758.5,0.458333,ThirtySecond,D6_D5_B5
1464,Left,1,43,80,759.0,0.958333,Sixteenth,G2_G1
1462,Right,0,74,80,759.0,0.958333,Sixteenth,D6_D5_B5
1467,Left,1,65,80,760.0,0.458333,ThirtySecond,F4
1468,Right,0,74,80,760.0,0.458333,ThirtySecond,D5
1470,Right,0,73,80,760.5,0.958333,Sixteenth,C#5
1469,Left,1,55,80,760.5,5.958333,DottedQuarter,G3_E4
1472,Left,1,65,81,761.5,0.458333,ThirtySecond,F4
1473,Right,0,74,81,761.5,0.458333,ThirtySecond,D5
1474,Right,0,74,82,762.0,3.958333,Quarter,D5
1475,Left,1,65,82,762.0,0.958333,Sixteenth,F4
1477,Right,0,71,83,763.0,0.458333,ThirtySecond,B4
1476,Left,1,62,83,763.0,0.458333,ThirtySecond,D4
1478,Right,0,70,84,763.5,0.958333,Sixteenth,A#4
1479,Left,1,61,84,763.5,0.958333,Sixteenth,C#4
1481,Left,1,62,85,764.5,0.458333,ThirtySecond,D4
1480,Right,0,71,85,764.5,0.458333,ThirtySecond,B4
1482,Right,0,67,86,765.0,1.458333,DottedSixteenth,G4
1483,Left,1,59,86,765.0,1.458333,DottedSixteenth,B3
1484,Right,0,75,87,766.0,0.458333,ThirtySecond,D#5
1485,Right,0,67,87,766.5,2.458333,Eighth,G4_F5
1487,Left,1,55,87,766.5,2.958333,DottedEighth,G3_D4
1490,Right,0,76,89,767.5,0.458333,ThirtySecond,E5
1489,Left,1,60,89,767.5,0.458333,ThirtySecond,C4
1491,Right,0,76,89,768.0,4.458333,TiedQuarter-ThirtySecond,E5
1492,Left,1,60,89,768.0,0.958333,Sixteenth,C4
1494,Right,0,72,90,769.0,0.458333,ThirtySecond,C5
1493,Left,1,64,90,769.0,0.458333,ThirtySecond,E4
1496,Left,1,60,91,769.5,2.958333,DottedEighth,D4_C4
1495,Right,0,71,91,769.5,0.958333,Sixteenth,B4
1498,Right,0,72,92,770.5,0.458333,ThirtySecond,C5
1499,Left,1,64,92,770.5,1.458333,DottedSixteenth,E4
1500,Right,0,72,93,771.0,0.958333,Sixteenth,C5
1502,Left,1,67,94,772.0,0.458333,ThirtySecond,G4
1501,Right,0,70,94,772.0,0.458333,ThirtySecond,A#4
1503,Right,0,69,95,772.5,2.458333,Sixteenth,E5_A4
1505,Left,1,66,95,772.5,2.958333,Sixteenth,F#4_C4
1508,Right,0,70,96,773.5,0.458333,ThirtySecond,A#4
1507,Left,1,67,96,773.5,1.458333,DottedSixteenth,G4
1509,Right,0,70,97,774.0,1.458333,DottedSixteenth,A#4
1511,Right,0,76,98,775.0,0.458333,ThirtySecond,E5
1510,Left,1,67,98,775.0,0.458333,ThirtySecond,G4
1512,Left,1,64,98,775.5,1.458333,Sixteenth,F3_E4
1514,Right,0,79,98,775.5,0.958333,Sixteenth,G5_A#4
1516,Right,0,69,100,776.5,0.458333,ThirtySecond,F5_A4
1518,Left,1,65,100,776.5,0.458333,ThirtySecond,F4
1519,Right,0,69,100,777.0,0.958333,Sixteenth,D5_A4
1521,Left,1,54,100,777.0,1.458333,Sixteenth,F#3_C4
1523,Right,0,78,101,778.0,0.458333,ThirtySecond,F#5_C5
1525,Left,1,57,101,778.0,0.458333,ThirtySecond,A3
1527,Left,1,60,102,778.5,0.958333,Sixteenth,F#3_C4
1526,Right,0,81,102,778.5,2.958333,Sixteenth,D5_A5
1532,Right,0,79,103,779.5,1.958333,Eighth,G5
1530,Left,1,59,103,779.5,1.958333,DottedSixteenth,G3_B3
1534,Right,0,75,105,781.0,0.458333,ThirtySecond,D#5
1533,Left,1,59,105,781.0,0.458333,ThirtySecond,B3
1535,Right,0,76,106,781.5,0.958333,ThirtySecond,E5_A5
1537,Left,1,55,106,781.5,2.958333,DottedEighth,G3_C4
1539,Right,0,79,107,782.5,1.958333,Eighth,G5
1540,Left,1,61,107,783.0,0.958333,Sixteenth,C#4
1541,Right,0,77,109,784.0,0.458333,ThirtySecond,F5
1542,Left,1,62,109,784.0,0.458333,ThirtySecond,D4
1543,Right,0,77,109,784.5,0.958333,Sixteenth,F5_B4_A5
1546,Left,1,55,109,784.5,0.958333,Sixteenth,G3_F4_D4
1550,Right,0,74,110,785.5,0.458333,ThirtySecond,G5_D5_B4
1549,Left,1,65,110,785.5,0.458333,ThirtySecond,G3_F4_D4
1555,Right,0,74,110,786.0,2.458333,Sixteenth,G5_D5_B4
1558,Left,1,65,110,786.0,0.958333,Sixteenth,G3_F4_D4
1563,Right,0,71,100,787.0,0.458333,ThirtySecond,B4
1561,Left,1,43,100,787.0,0.458333,ThirtySecond,G3_G2
1566,Right,0,72,95,787.5,0.958333,Sixteenth,C5
1564,Left,1,45,95,787.5,0.958333,Sixteenth,A3_A2
1569,Right,0,74,85,788.5,0.458333,ThirtySecond,F5_D5
1567,Left,1,47,85,788.5,0.458333,ThirtySecond,B3_B2
1571,Right,0,76,80,789.0,1.458333,DottedSixteenth,G4_E5
1572,Left,1,48,80,789.0,0.958333,Sixteenth,C4_C3
1575,Left,1,50,80,790.0,0.458333,ThirtySecond,D3
1576,Right,0,59,80,790.0,0.458333,ThirtySecond,B3
1578,Left,1,52,80,790.5,0.958333,Sixteenth,E3
1577,Right,0,60,80,790.5,0.958333,Sixteenth,C4
1580,Left,1,53,80,791.5,0.458333,ThirtySecond,F3
1579,Right,0,62,80,791.5,0.458333,ThirtySecond,D4
1581,Left,1,52,80,792.0,0.958333,Sixteenth,E3
1582,Right,0,60,80,792.0,0.958333,Sixteenth,C4
1585,Left,1,50,80,793.0,0.458333,ThirtySecond,D3
1583,Right,0,59,80,793.0,1.458333,ThirtySecond,E4_B3
1586,Left,1,48,80,793.5,0.958333,Sixteenth,C3
1587,Right,0,57,80,793.5,0.958333,Sixteenth,A3
1588,Left,1,47,80,794.5,0.458333,ThirtySecond,B2
1589,Right,0,56,80,794.5,0.458333,ThirtySecond,G#3_E4_D4
1592,Right,0,60,80,795.0,2.458333,Sixteenth,C5_C4
1594,Left,1,45,80,795.0,2.458333,Eighth,A2
1595,Right,0,63,80,796.0,0.458333,ThirtySecond,D#4
1596,Left,1,51,80,796.0,0.458333,ThirtySecond,D#3
1598,Right,0,64,80,796.5,2.458333,Eighth,E4
1597,Left,1,52,80,796.5,1.958333,Eighth,E3
1599,Left,1,44,80,797.5,0.458333,ThirtySecond,G#2
1600,Right,0,71,80,797.5,0.458333,ThirtySecond,B4
1602,Right,0,72,80,798.0,2.458333,Eighth,C5
1601,Left,1,45,80,798.0,2.458333,Eighth,A2
1603,Right,0,63,80,799.0,0.458333,ThirtySecond,D#4
1604,Left,1,51,80,799.0,0.458333,ThirtySecond,D#3
1605,Right,0,64,80,799.5,2.458333,Eighth,E4
1606,Left,1,52,80,799.5,2.458333,Eighth,E3
1607,Left,1,44,80,800.5,0.458333,ThirtySecond,G#2
1608,Right,0,71,80,800.5,0.458333,ThirtySecond,B4
1609,Right,0,72,80,801.0,2.458333,Eighth,C5
1610,Left,1,45,80,801.0,2.458333,Eighth,A2
1612,Right,0,63,80,802.0,0.458333,ThirtySecond,D#4
1611,Left,1,51,80,802.0,0.458333,ThirtySecond,D#3
1614,Left,1,52,80,802.5,2.458333,Eighth,E3
1613,Right,0,64,80,802.5,2.458333,Eighth,E4
1615,Right,0,71,80,803.5,0.458333,ThirtySecond,B4
1616,Left,1,44,80,803.5,0.458333,ThirtySecond,G#2
1617,Right,0,71,80,804.0,2.458333,Eighth,B4
1618,Left,1,44,80,804.0,2.458333,Eighth,G#2
1619,Left,1,53,80,805.0,0.458333,ThirtySecond,F3
1620,Right,0,65,80,805.0,0.458333,ThirtySecond,F4
1622,Left,1,52,80,805.5,2.458333,Eighth,E3
1621,Right,0,64,80,805.5,2.458333,Eighth,E4
1624,Left,1,45,80,806.5,0.458333,ThirtySecond,A2
1623,Right,0,72,80,806.5,0.458333,ThirtySecond,C5
1625,Right,0,71,80,807.0,2.458333,Eighth,B4
1626,Left,1,44,80,807.0,2.458333,Eighth,G#2
1628,Left,1,53,80,808.0,0.458333,ThirtySecond,F3
1627,Right,0,65,80,808.0,0.458333,ThirtySecond,F4
1630,Right,0,64,80,808.5,2.458333,Eighth,E4
1629,Left,1,52,80,808.5,2.458333,Eighth,E3
1631,Left,1,45,80,809.5,0.458333,ThirtySecond,A2
1632,Right,0,72,80,809.5,0.458333,ThirtySecond,C5
1634,Left,1,44,80,810.0,2.458333,Eighth,G#2
1633,Right,0,71,80,810.0,2.458333,Eighth,B4
1635,Right,0,65,80,811.0,0.458333,ThirtySecond,F4
1636,Left,1,53,80,811.0,0.458333,ThirtySecond,F3
1637,Right,0,64,80,811.5,2.458333,Eighth,E4
1638,Left,1,52,80,811.5,2.458333,Eighth,E3
1639,Right,0,76,80,812.5,0.458333,ThirtySecond,E5
1640,Left,1,45,80,812.5,0.458333,ThirtySecond,A2
1641,Right,0,76,80,813.0,2.458333,Eighth,E5_B4
1643,Left,1,44,80,814.0,0.458333,ThirtySecond,G#2_G#1
1645,Right,0,76,80,815.5,0.458333,ThirtySecond,E5_C5
1647,Right,0,72,80,816.0,2.458333,Eighth,E5_C5
1649,Left,1,33,80,817.0,0.458333,ThirtySecond,A2_A1
1651,Left,1,35,80,817.5,0.958333,Sixteenth,B2_B1
1653,Right,0,71,80,818.5,0.458333,ThirtySecond,G#4_D5_B4
1656,Right,0,74,80,819.0,0.958333,Sixteenth,E4_D5_B4
1657,Left,1,48,80,819.0,0.958333,Sixteenth,C3_C2
1662,Right,0,72,80,820.0,0.458333,ThirtySecond,F4_C5_A4
1661,Left,1,38,80,820.0,0.458333,ThirtySecond,D3_D2
1669,Left,1,51,80,820.5,0.958333,Sixteenth,D#3_D#2
1666,Right,0,69,80,820.5,0.958333,Sixteenth,F#4_C5_A4
1673,Right,0,71,80,821.5,0.458333,ThirtySecond,G#4_B4_B3
1671,Left,1,52,80,821.5,0.458333,ThirtySecond,E3_E2
1676,Left,1,52,80,822.0,0.958333,Sixteenth,E3_E2
1678,Right,0,71,80,822.0,0.958333,Sixteenth,G#4_B4_B3
1681,Right,0,68,82,823.0,1.458333,DottedSixteenth,G#4_B4_B3
1682,Left,1,52,82,823.0,1.458333,DottedSixteenth,E3_E2
1688,Left,1,40,87,824.5,1.458333,DottedSixteenth,E3_E2
1686,Right,0,71,87,824.5,1.458333,DottedSixteenth,G#4_B4_B3
1693,Right,0,72,91,826.0,1.458333,DottedSixteenth,C5_C4_A4
1691,Left,1,33,91,826.0,1.458333,DottedSixteenth,A2_A1
1697,Right,0,72,96,827.5,1.458333,DottedSixteenth,C5_C4_A4
1696,Left,1,45,96,827.5,1.458333,DottedSixteenth,A2_A1
1703,Right,0,62,100,829.0,1.458333,DottedSixteenth,D5_D4_B4
1701,Left,1,31,100,829.0,1.458333,DottedSixteenth,G2_G1
1706,Right,0,74,80,830.5,0.458333,ThirtySecond,D6_D5_B5
1707,Left,1,43,80,830.5,0.458333,ThirtySecond,G2_G1
1711,Right,0,74,80,831.0,0.958333,Sixteenth,D6_D5_B5
1712,Left,1,43,80,831.0,0.958333,Sixteenth,G2_G1
1716,Right,0,74,80,832.0,0.458333,ThirtySecond,D5
1717,Left,1,65,80,832.0,0.458333,ThirtySecond,F4
1719,Left,1,55,80,832.5,5.958333,DottedQuarter,G3_E4
1718,Right,0,73,80,832.5,0.958333,Sixteenth,C#5
1721,Left,1,65,81,833.5,0.458333,ThirtySecond,F4
1722,Right,0,74,81,833.5,0.458333,ThirtySecond,D5
1723,Left,1,65,82,834.0,0.958333,Sixteenth,F4
1724,Right,0,74,82,834.0,3.958333,Quarter,D5
1726,Left,1,62,83,835.0,0.458333,ThirtySecond,D4
1725,Right,0,71,83,835.0,0.458333,ThirtySecond,B4
1727,Left,1,61,84,835.5,0.958333,Sixteenth,C#4
1728,Right,0,70,84,835.5,0.958333,Sixteenth,A#4
1729,Left,1,62,85,836.5,0.458333,ThirtySecond,D4
1730,Right,0,71,85,836.5,0.458333,ThirtySecond,B4
1731,Left,1,59,86,837.0,1.458333,DottedSixteenth,B3
1732,Right,0,67,86,837.0,1.458333,DottedSixteenth,G4
1733,Right,0,75,87,838.0,0.458333,ThirtySecond,D#5
1736,Left,1,62,87,838.5,2.958333,Sixteenth,G3_D4
1734,Right,0,77,87,838.5,2.458333,Sixteenth,G4_F5
1739,Left,1,60,89,839.5,0.458333,ThirtySecond,C4
1738,Right,0,76,89,839.5,0.458333,ThirtySecond,E5
1740,Right,0,76,89,840.0,4.458333,TiedQuarter-ThirtySecond,E5
1741,Left,1,60,89,840.0,0.958333,Sixteenth,C4
1742,Right,0,72,90,841.0,0.458333,ThirtySecond,C5
1743,Left,1,64,90,841.0,0.458333,ThirtySecond,E4
1744,Left,1,60,91,841.5,2.958333,DottedEighth,D4_C4
1746,Right,0,71,91,841.5,0.958333,Sixteenth,B4
1747,Left,1,64,92,842.5,1.458333,DottedSixteenth,E4
1748,Right,0,72,92,842.5,0.458333,ThirtySecond,C5
1749,Right,0,72,93,843.0,0.958333,Sixteenth,C5
1751,Right,0,70,94,844.0,0.458333,ThirtySecond,A#4
1750,Left,1,67,94,844.0,0.458333,ThirtySecond,G4
1752,Right,0,76,95,844.5,2.458333,Eighth,E5_A4
1754,Left,1,60,95,844.5,2.958333,DottedEighth,F#4_C4
1756,Right,0,70,96,845.5,0.458333,ThirtySecond,A#4
1757,Left,1,67,96,845.5,1.458333,DottedSixteenth,G4
1758,Right,0,70,97,846.0,1.458333,DottedSixteenth,A#4
1760,Right,0,76,98,847.0,0.458333,ThirtySecond,E5
1759,Left,1,67,98,847.0,0.458333,ThirtySecond,G4
1763,Right,0,79,98,847.5,0.958333,Sixteenth,G5_A#4
1761,Left,1,64,98,847.5,1.458333,Sixteenth,F3_E4
1766,Right,0,77,100,848.5,0.458333,ThirtySecond,F5_A4
1765,Left,1,65,100,848.5,0.458333,ThirtySecond,F4
1768,Right,0,69,100,849.0,0.958333,Sixteenth,D5_A4
1770,Left,1,54,100,849.0,1.458333,Sixteenth,F#3_C4
1772,Right,0,72,101,850.0,0.458333,ThirtySecond,F#5_C5
1773,Left,1,57,101,850.0,0.458333,ThirtySecond,A3
1775,Right,0,74,102,850.5,2.958333,DottedEighth,D5_A5
1777,Left,1,60,102,850.5,0.958333,Sixteenth,F#3_C4
1780,Right,0,79,103,851.5,1.958333,Eighth,G5
1779,Left,1,59,103,851.5,1.958333,DottedSixteenth,G3_B3
1782,Right,0,75,105,853.0,0.458333,ThirtySecond,D#5
1783,Left,1,59,105,853.0,0.458333,ThirtySecond,B3
1784,Right,0,76,106,853.5,0.958333,ThirtySecond,E5_A5
1786,Left,1,55,106,853.5,2.958333,DottedEighth,G3_C4
1788,Right,0,79,107,854.5,1.958333,Eighth,G5
1789,Left,1,61,107,855.0,0.958333,Sixteenth,C#4
1791,Right,0,77,109,856.0,0.458333,ThirtySecond,F5
1790,Left,1,62,109,856.0,0.458333,ThirtySecond,D4
1795,Left,1,65,109,856.5,0.958333,Sixteenth,G3_F4_D4
1792,Right,0,71,109,856.5,0.958333,Sixteenth,F5_B4_A5
1798,Left,1,55,110,857.5,0.458333,ThirtySecond,G3_F4_D4
1800,Right,0,79,110,857.5,0.458333,ThirtySecond,G5_D5_B4
1804,Right,0,71,110,858.0,2.458333,Sixteenth,G5_D5_B4
1805,Left,1,65,110,858.0,0.958333,Sixteenth,G3_F4_D4
1810,Left,1,55,98,859.0,0.458333,ThirtySecond,G3_G2
1812,Right,0,71,98,859.0,0.458333,ThirtySecond,B4
1814,Right,0,72,92,859.5,0.958333,Sixteenth,C5
1813,Left,1,57,92,859.5,0.958333,Sixteenth,A3_A2
1818,Right,0,74,80,860.5,0.458333,ThirtySecond,F5_D5
1816,Left,1,47,80,860.5,0.458333,ThirtySecond,B3_B2
1821,Left,1,60,80,861.0,0.958333,Sixteenth,C4_C3
1820,Right,0,76,80,861.0,1.458333,DottedSixteenth,G4_E5
1825,Right,0,79,80,862.0,1.458333,DottedSixteenth,G5
1824,Left,1,71,80,862.0,0.458333,ThirtySecond,B4
1826,Left,1,72,80,862.5,0.958333,Sixteenth,C5
1827,Right,0,79,80,863.5,0.458333,ThirtySecond,G5_F5
1829,Left,1,74,80,863.5,0.458333,ThirtySecond,D5
1830,Right,0,84,110,864.0,0.958333,Sixteenth,C6
1831,Right,0,79,110,865.0,0.458333,ThirtySecond,G5
1832,Right,0,76,110,865.5,0.958333,Sixteenth,E5
1833,Right,0,72,110,866.5,0.458333,ThirtySecond,C5
1834,Right,0,67,110,867.0,0.958333,Sixteenth,G4
1835,Right,0,64,110,868.0,0.458333,ThirtySecond,E4
1836,Right,0,60,110,868.5,0.958333,Sixteenth,C4
1837,Right,0,55,110,869.5,0.458333,ThirtySecond,G3
1838,Right,0,67,110,870.0,2.458333,Eighth,G4_E4
1840,Left,1,36,110,870.0,0.958333,Sixteenth,C2
1841,Left,1,40,110,871.0,0.458333,ThirtySecond,E2
1842,Left,1,43,110,871.5,0.958333,Sixteenth,G2
1844,Right,0,67,110,872.5,2.958333,DottedEighth,G4_E4
1843,Left,1,48,110,872.5,0.458333,ThirtySecond,C3
1846,Left,1,52,110,873.0,0.958333,Sixteenth,E3
1847,Left,1,55,110,874.0,0.458333,ThirtySecond,G3
1848,Left,1,59,110,874.5,0.958333,Sixteenth,B3
1850,Left,1,64,110,875.5,0.458333,ThirtySecond,E4
1849,Right,0,64,110,875.5,0.458333,ThirtySecond,G4_E4
1852,Right,0,65,110,876.0,2.458333,Eighth,G4_F4
1854,Left,1,38,110,876.0,0.958333,Sixteenth,D2
1855,Left,1,43,110,877.0,0.458333,ThirtySecond,G2
1856,Left,1,47,110,877.5,0.958333,Sixteenth,B2
1857,Right,0,65,110,878.5,2.958333,DottedEighth,G4_F4
1859,Left,1,50,110,878.5,0.458333,ThirtySecond,D3
1860,Left,1,55,110,879.0,0.958333,Sixteenth,G3
1861,Left,1,59,110,880.0,0.458333,ThirtySecond,B3
1862,Left,1,61,110,880.5,0.958333,Sixteenth,C#4
1865,Left,1,62,110,881.5,0.458333,ThirtySecond,D4
1863,Right,0,67,110,881.5,0.458333,ThirtySecond,G4_F4
1866,Right,0,89,110,882.0,0.958333,Sixteenth,F6
1867,Right,0,86,110,883.0,0.458333,ThirtySecond,D6
1868,Right,0,83,110,883.5,0.958333,Sixteenth,B5
1869,Right,0,79,110,884.5,0.458333,ThirtySecond,G5
1870,Right,0,77,110,885.0,0.958333,Sixteenth,F5
1871,Right,0,74,110,886.0,0.458333,ThirtySecond,D5
1872,Right,0,71,110,886.5,0.958333,Sixteenth,B4
1873,Right,0,67,110,887.5,0.458333,ThirtySecond,G4
1874,Left,1,38,110,888.0,0.958333,Sixteenth,D2
1875,Right,0,67,110,888.0,2.458333,Eighth,G4_F4
1877,Left,1,43,110,889.0,0.458333,ThirtySecond,G2
1878,Left,1,47,110,889.5,0.958333,Sixteenth,B2
1879,Left,1,50,110,890.5,0.458333,ThirtySecond,D3
1880,Right,0,65,110,890.5,2.958333,DottedEighth,G4_F4
1882,Left,1,55,110,891.0,0.958333,Sixteenth,G3
1883,Left,1,59,110,892.0,0.458333,ThirtySecond,B3
1884,Left,1,61,110,892.5,0.958333,Sixteenth,C#4
1886,Left,1,62,110,893.5,0.458333,ThirtySecond,D4
1885,Right,0,67,110,893.5,0.458333,ThirtySecond,G4_F4
1888,Left,1,36,110,894.0,0.958333,Sixteenth,C2
1889,Right,0,67,110,894.0,2.458333,Eighth,G4
1890,Left,1,43,110,895.0,0.458333,ThirtySecond,G2
1891,Left,1,48,110,895.5,0.958333,Sixteenth,C3
1893,Right,0,67,110,896.5,2.958333,DottedEighth,G4
1892,Left,1,52,110,896.5,0.458333,ThirtySecond,E3
1894,Left,1,55,110,897.0,0.958333,Sixteenth,G3
1895,Left,1,60,110,898.0,0.458333,ThirtySecond,C4
1896,Left,1,63,110,898.5,0.958333,Sixteenth,D#4
1898,Right,0,67,110,899.5,0.458333,ThirtySecond,G4
1897,Left,1,64,110,899.5,0.458333,ThirtySecond,E4
1899,Right,0,91,110,900.0,0.958333,Sixteenth,G6
1900,Right,0,88,110,901.0,0.458333,ThirtySecond,E6
1901,Right,0,84,110,901.5,0.958333,Sixteenth,C6
1902,Right,0,79,110,902.5,0.458333,ThirtySecond,G5
1903,Right,0,76,110,903.0,0.958333,Sixteenth,E5
1904,Right,0,72,110,904.0,0.458333,ThirtySecond,C5
1905,Right,0,67,110,904.5,0.958333,Sixteenth,G4
1906,Right,0,79,110,905.5,0.458333,ThirtySecond,G5
1908,Right,0,67,110,906.0,2.458333,Eighth,G5_G4_C#5_A#4
1907,Left,1,40,110,906.0,0.958333,Sixteenth,E2
1912,Left,1,46,110,907.0,0.458333,ThirtySecond,A#2
1913,Left,1,49,110,907.5,0.958333,Sixteenth,C#3
1914,Right,0,79,110,908.5,2.958333,DottedEighth,G5_G4_D5_B4
1918,Left,1,52,110,908.5,0.458333,ThirtySecond,E3
1919,Left,1,53,110,909.0,0.958333,Sixteenth,F3
1920,Left,1,59,110,910.0,0.458333,ThirtySecond,B3
1921,Left,1,62,110,910.5,0.958333,Sixteenth,D4
1924,Left,1,65,110,911.5,0.458333,ThirtySecond,F4
1922,Right,0,74,110,911.5,0.458333,ThirtySecond,G5_G4_D5_B4
1927,Right,0,79,110,912.0,2.458333,Eighth,G5_G4_B4
1930,Left,1,51,110,912.0,0.958333,Sixteenth,D#3
1931,Left,1,55,110,913.0,0.458333,ThirtySecond,G3
1932,Left,1,59,110,913.5,0.958333,Sixteenth,B3
1933,Right,0,79,110,914.5,2.958333,DottedEighth,G5_G4_C5
1936,Left,1,63,110,914.5,0.458333,ThirtySecond,D#4
1937,Left,1,52,110,915.0,0.958333,Sixteenth,E3
1938,Left,1,55,110,916.0,0.458333,ThirtySecond,G3
1939,Left,1,60,110,916.5,0.958333,Sixteenth,C4
1941,Right,0,79,110,917.5,0.458333,ThirtySecond,G5_G4_C5
1940,Left,1,64,110,917.5,0.458333,ThirtySecond,E4
1945,Right,0,88,110,918.0,2.458333,Eighth,G5_E6_E5
1944,Left,1,48,110,918.0,0.958333,Sixteenth,C3
1948,Left,1,52,110,919.0,0.458333,ThirtySecond,E3
1949,Left,1,55,110,919.5,0.958333,Sixteenth,G3
1950,Left,1,59,110,920.5,0.458333,ThirtySecond,B3
1951,Right,0,88,110,920.5,2.958333,DottedEighth,G5_E6_E5
1954,Left,1,36,110,921.0,0.958333,Sixteenth,C2
1955,Left,1,40,110,922.0,0.458333,ThirtySecond,E2
1956,Left,1,43,110,922.5,0.958333,Sixteenth,G2
1957,Left,1,48,110,923.5,0.458333,ThirtySecond,C3
1958,Right,0,84,110,923.5,0.458333,ThirtySecond,E5_C6_C5
1961,Left,1,31,110,924.0,2.458333,Eighth,G2_G1
1963,Right,0,84,110,924.0,0.958333,Sixteenth,C6
1964,Right,0,81,110,925.0,0.458333,ThirtySecond,A5
1965,Right,0,78,110,925.5,0.958333,Sixteenth,F#5
1966,Left,1,31,110,926.5,2.958333,DottedEighth,G2_G1
1968,Right,0,75,110,926.5,0.458333,ThirtySecond,D#5
1969,Right,0,72,110,927.0,0.958333,Sixteenth,C5
1970,Right,0,69,110,928.0,0.458333,ThirtySecond,A4
1971,Right,0,66,110,928.5,0.958333,Sixteenth,F#4
1972,Right,0,72,110,929.5,0.458333,ThirtySecond,D#4_C5
1974,Left,1,43,110,929.5,2.958333,DottedEighth,G2_G1
1976,Right,0,83,110,930.0,0.958333,Sixteenth,B5
1977,Right,0,79,110,931.0,0.458333,ThirtySecond,G5
1978,Right,0,74,110,931.5,0.958333,Sixteenth,D5
1980,Left,1,31,110,932.5,2.958333,DottedEighth,G2_G1
1979,Right,0,71,110,932.5,0.458333,ThirtySecond,B4
1982,Right,0,67,110,933.0,0.958333,Sixteenth,G4
1983,Right,0,62,110,934.0,0.458333,ThirtySecond,D4
1984,Right,0,59,110,934.5,0.958333,Sixteenth,B3
1987,Right,0,71,110,935.5,2.958333,DottedEighth,G#5_D5_B5_B4
1985,Left,1,29,110,935.5,0.458333,ThirtySecond,F2_F1
1991,Left,1,29,110,936.0,0.958333,Sixteenth,F1
1992,Left,1,35,110,937.0,0.458333,ThirtySecond,B1
1993,Left,1,38,110,937.5,0.958333,Sixteenth,D2
1994,Right,0,80,110,938.5,2.958333,DottedEighth,G#5_D5_B5_B4
1997,Left,1,41,110,938.5,0.458333,ThirtySecond,F2
1999,Right,0,79,110,939.0,2.458333,Eighth,G5
2000,Left,1,47,110,939.0,0.958333,Sixteenth,B2
2001,Left,1,50,110,940.0,0.458333,ThirtySecond,D3
2002,Left,1,52,110,940.5,0.958333,Sixteenth,E3
2005,Left,1,53,110,941.5,0.458333,ThirtySecond,F3
2003,Right,0,74,110,941.5,0.458333,ThirtySecond,G5_D5_B5_B4
2010,Right,0,84,110,942.0,0.958333,Sixteenth,C6
2008,Left,1,40,110,942.0,1.458333,DottedSixteenth,E3_E2
2011,Right,0,79,110,943.0,0.458333,ThirtySecond,G5
2012,Right,0,76,123,943.5,0.958333,Sixteenth,E5
2013,Right,0,72,110,944.5,0.458333,ThirtySecond,C5
2014,Right,0,67,110,945.0,0.958333,Sixteenth,G4
2015,Right,0,64,110,946.0,0.458333,ThirtySecond,E4
2016,Right,0,76,110,946.5,0.958333,Sixteenth,E5
2017,Left,1,67,110,946.5,0.958333,Sixteenth,G4
2018,Right,0,72,110,947.5,0.458333,ThirtySecond,C5
2019,Left,1,64,110,947.5,0.458333,ThirtySecond,E4
2020,Right,0,76,110,948.0,0.958333,Sixteenth,E5
2021,Left,1,60,110,948.0,0.958333,Sixteenth,C4
2022,Right,0,72,110,949.0,0.458333,ThirtySecond,C5
2023,Left,1,55,110,949.0,0.458333,ThirtySecond,G3
2024,Right,0,79,122,949.5,0.958333,Sixteenth,G5
2025,Left,1,52,110,949.5,0.958333,Sixteenth,E3
2026,Right,0,76,110,950.5,0.458333,ThirtySecond,E5
2027,Left,1,48,110,950.5,0.458333,ThirtySecond,C3
2028,Right,0,72,110,951.0,0.958333,Sixteenth,C5
2029,Left,1,64,110,951.0,0.958333,Sixteenth,E4
2031,Left,1,60,110,952.0,0.458333,ThirtySecond,C4
2030,Right,0,67,110,952.0,0.458333,ThirtySecond,G4
2033,Left,1,55,110,952.5,0.958333,Sixteenth,G3
2032,Right,0,76,124,952.5,0.958333,Sixteenth,E5
2034,Left,1,52,110,953.5,0.458333,ThirtySecond,E3
2035,Right,0,72,110,953.5,0.458333,ThirtySecond,C5
2037,Right,0,79,110,954.0,0.958333,Sixteenth,G5
2036,Left,1,64,110,954.0,0.958333,Sixteenth,E4
2038,Left,1,60,110,955.0,0.458333,ThirtySecond,C4
2039,Right,0,76,110,955.0,0.458333,ThirtySecond,E5
2040,Left,1,55,110,955.5,0.958333,Sixteenth,G3
2041,Right,0,84,122,955.5,0.958333,Sixteenth,C6
2042,Right,0,79,110,956.5,0.458333,ThirtySecond,G5
2043,Left,1,52,110,956.5,0.458333,ThirtySecond,E3
2044,Right,0,76,110,957.0,0.958333,Sixteenth,E5
2045,Left,1,60,110,957.0,0.958333,Sixteenth,C4
2047,Left,1,55,110,958.0,0.458333,ThirtySecond,G3
2046,Right,0,72,110,958.0,0.458333,ThirtySecond,C5
2048,Left,1,52,110,958.5,0.958333,Sixteenth,E3
2049,Right,0,79,124,958.5,0.958333,Sixteenth,G5
2051,Left,1,48,110,959.5,0.458333,ThirtySecond,C3
2050,Right,0,76,110,959.5,0.458333,ThirtySecond,E5
2052,Left,1,57,110,960.0,0.958333,Sixteenth,A3
2053,Left,1,55,110,961.0,0.458333,ThirtySecond,G3
2054,Left,1,52,110,961.5,0.958333,Sixteenth,E3
2055,Right,0,79,124,961.5,0.958333,Sixteenth,G5
2057,Right,0,76,110,962.5,0.458333,ThirtySecond,E5
2056,Left,1,49,110,962.5,0.458333,ThirtySecond,C#3
2058,Right,0,73,110,963.0,0.958333,Sixteenth,C#5
2059,Left,1,45,110,963.0,0.958333,Sixteenth,A2
2061,Left,1,55,110,964.0,0.458333,ThirtySecond,G3
2060,Right,0,76,110,964.0,0.458333,ThirtySecond,E5
2063,Left,1,52,110,964.5,0.958333,Sixteenth,E3
2062,Right,0,79,123,964.5,0.958333,Sixteenth,G5
2064,Right,0,76,110,965.5,0.458333,ThirtySecond,E5
2065,Left,1,49,110,965.5,0.458333,ThirtySecond,C#3
2067,Right,0,77,110,966.0,0.958333,Sixteenth,F5
2066,Left,1,57,110,966.0,0.958333,Sixteenth,A3
2069,Left,1,53,110,967.0,0.458333,ThirtySecond,F3
2068,Right,0,74,110,967.0,0.458333,ThirtySecond,D5
2070,Left,1,50,110,967.5,0.958333,Sixteenth,D3
2071,Right,0,77,126,967.5,0.958333,Sixteenth,F5
2072,Left,1,53,110,968.5,0.458333,ThirtySecond,F3
2073,Right,0,69,110,968.5,0.458333,ThirtySecond,A4
2074,Left,1,50,110,969.0,0.958333,Sixteenth,D3
2075,Right,0,77,110,969.0,0.958333,Sixteenth,F5
2077,Right,0,65,110,970.0,0.458333,ThirtySecond,F4
2076,Left,1,62,110,970.0,0.458333,ThirtySecond,D4
2078,Left,1,65,110,970.5,0.958333,Sixteenth,F4
2079,Right,0,69,123,970.5,0.958333,Sixteenth,A4
2081,Right,0,65,110,971.5,0.458333,ThirtySecond,F4
2080,Left,1,62,110,971.5,0.458333,ThirtySecond,D4
2083,Left,1,65,110,972.0,0.958333,Sixteenth,F4
2082,Right,0,69,110,972.0,0.958333,Sixteenth,A4
2085,Left,1,62,110,973.0,0.458333,ThirtySecond,D4
2084,Right,0,65,110,973.0,0.458333,ThirtySecond,F4
2086,Right,0,77,124,973.5,0.958333,Sixteenth,F5
2087,Left,1,57,110,973.5,0.958333,Sixteenth,A3
2088,Right,0,74,110,974.5,0.458333,ThirtySecond,D5
2089,Left,1,53,110,974.5,0.458333,ThirtySecond,F3
2091,Left,1,65,110,975.0,0.958333,Sixteenth,F4
2090,Right,0,69,110,975.0,0.958333,Sixteenth,A4
2092,Right,0,81,110,976.0,0.458333,ThirtySecond,A5
2093,Left,1,62,110,976.0,0.458333,ThirtySecond,D4
2095,Right,0,77,126,976.5,0.958333,Sixteenth,F5
2094,Left,1,57,110,976.5,0.958333,Sixteenth,A3
2097,Left,1,53,110,977.5,0.458333,ThirtySecond,F3
2096,Right,0,74,110,977.5,0.458333,ThirtySecond,D5
2098,Left,1,55,110,978.0,0.958333,Sixteenth,G3
2099,Right,0,72,110,978.0,0.958333,Sixteenth,C5
2101,Right,0,71,110,979.0,0.458333,ThirtySecond,B4
2100,Left,1,65,110,979.0,0.458333,ThirtySecond,F4
2103,Right,0,77,122,979.5,0.958333,Sixteenth,F5
2102,Left,1,62,110,979.5,0.958333,Sixteenth,D4
2104,Left,1,59,110,980.5,0.458333,ThirtySecond,B3
2105,Right,0,74,110,980.5,0.458333,ThirtySecond,D5
2106,Right,0,83,110,981.0,0.958333,Sixteenth,B5
2107,Left,1,55,110,981.0,0.958333,Sixteenth,G3
2108,Left,1,59,110,982.0,0.458333,ThirtySecond,B3
2109,Right,0,77,110,982.0,0.458333,ThirtySecond,F5
2110,Left,1,62,110,982.5,0.958333,Sixteenth,D4
2111,Right,0,74,125,982.5,0.958333,Sixteenth,D5
2112,Left,1,65,110,983.5,0.458333,ThirtySecond,F4
2113,Right,0,71,110,983.5,0.458333,ThirtySecond,B4
2114,Right,0,74,110,984.0,0.958333,Sixteenth,D5
2115,Left,1,56,110,984.0,0.958333,Sixteenth,G#3
2117,Right,0,72,110,985.0,0.458333,ThirtySecond,C5
2116,Left,1,68,110,985.0,0.458333,ThirtySecond,G#4
2119,Left,1,65,110,985.5,0.958333,Sixteenth,F4
2118,Right,0,80,124,985.5,0.958333,Sixteenth,G#5
2121,Right,0,77,110,986.5,0.458333,ThirtySecond,F5
2120,Left,1,60,110,986.5,0.458333,ThirtySecond,C4
2123,Right,0,84,110,987.0,0.958333,Sixteenth,C6
2122,Left,1,57,110,987.0,0.958333,Sixteenth,A3
2125,Right,0,81,110,988.0,0.458333,ThirtySecond,A5
2124,Left,1,60,110,988.0,0.458333,ThirtySecond,C4
2127,Left,1,65,110,988.5,0.958333,Sixteenth,F4
2126,Right,0,77,125,988.5,0.958333,Sixteenth,F5
2128,Left,1,69,110,989.5,0.458333,ThirtySecond,A4
2129,Right,0,72,110,989.5,0.458333,ThirtySecond,C5
2131,Left,1,58,110,990.0,0.958333,Sixteenth,A#3
2130,Right,0,75,110,990.0,0.958333,Sixteenth,D#5
2132,Right,0,74,110,991.0,0.458333,ThirtySecond,D5
2133,Left,1,70,110,991.0,0.458333,ThirtySecond,A#4
2135,Left,1,58,110,991.5,0.958333,Sixteenth,A#3
2134,Right,0,86,123,991.5,0.958333,Sixteenth,D6
2136,Right,0,74,110,992.5,0.458333,ThirtySecond,D5
2137,Left,1,70,110,992.5,0.458333,ThirtySecond,A#4
2139,Left,1,58,110,993.0,0.958333,Sixteenth,A#3
2138,Right,0,86,110,993.0,0.958333,Sixteenth,D6
2141,Left,1,70,110,994.0,0.458333,ThirtySecond,A#4
2140,Right,0,74,110,994.0,0.458333,ThirtySecond,D5
2142,Left,1,59,110,994.5,0.958333,Sixteenth,B3
2143,Right,0,86,123,994.5,0.958333,Sixteenth,D6
2144,Right,0,74,110,995.5,0.458333,ThirtySecond,G5_D5
2146,Left,1,71,110,995.5,0.458333,ThirtySecond,B4
2147,Right,0,72,110,996.0,2.458333,Sixteenth,G5_C5
2148,Left,1,59,110,996.0,0.958333,Sixteenth,B3
2150,Right,0,76,110,997.0,0.458333,ThirtySecond,E5
2151,Left,1,60,110,997.0,0.458333,ThirtySecond,C4
2152,Left,1,62,110,997.5,0.958333,Sixteenth,D4
2153,Right,0,77,110,997.5,0.958333,Sixteenth,F5
2157,Left,1,59,110,998.5,0.458333,ThirtySecond,B3
2154,Right,0,77,110,998.5,2.958333,ThirtySecond,G5_F5_D5
2159,Left,1,62,110,999.0,0.958333,Sixteenth,D4
2158,Right,0,71,110,999.0,0.958333,Sixteenth,B4
2161,Left,1,64,110,1000.0,0.458333,ThirtySecond,E4
2160,Right,0,72,110,1000.0,0.458333,ThirtySecond,C5
2162,Left,1,65,110,1000.5,0.958333,Sixteenth,F4
2163,Right,0,74,110,1000.5,0.958333,Sixteenth,D5
2165,Right,0,79,110,1001.5,2.958333,DottedEighth,G5_C5
2164,Left,1,64,110,1001.5,0.458333,ThirtySecond,E4
2168,Left,1,71,110,1002.0,0.958333,Sixteenth,B4
2167,Right,0,74,110,1002.0,0.958333,Sixteenth,D5
2169,Left,1,72,110,1003.0,0.458333,ThirtySecond,C5
2170,Right,0,76,110,1003.0,0.458333,ThirtySecond,E5
2172,Right,0,77,110,1003.5,0.958333,Sixteenth,F5
2171,Left,1,74,110,1003.5,0.958333,Sixteenth,D5
2173,Right,0,79,110,1004.5,0.458333,ThirtySecond,G5_E5
2174,Left,1,72,110,1004.5,0.458333,ThirtySecond,C5
2177,Right,0,77,110,1005.0,0.958333,Sixteenth,F5
2176,Left,1,74,110,1005.0,0.958333,Sixteenth,D5
2178,Left,1,76,110,1006.0,0.458333,ThirtySecond,E5
2179,Right,0,79,110,1006.0,0.458333,ThirtySecond,G5
2180,Left,1,77,110,1006.5,0.958333,Sixteenth,F5
2181,Right,0,81,110,1006.5,0.958333,Sixteenth,A5
2182,Right,0,83,110,1007.5,0.458333,ThirtySecond,B5
2183,Left,1,74,110,1007.5,0.458333,ThirtySecond,D5
2184,Right,0,84,110,1008.0,0.958333,Sixteenth,C6
2185,Right,0,79,110,1009.0,0.458333,ThirtySecond,G5
2186,Right,0,76,110,1009.5,0.958333,Sixteenth,E5
2187,Right,0,72,110,1010.5,0.458333,ThirtySecond,C5
2188,Right,0,67,110,1011.0,0.958333,Sixteenth,G4
2189,Right,0,64,110,1012.0,0.458333,ThirtySecond,E4
2190,Right,0,60,110,1012.5,0.958333,Sixteenth,C4
2191,Right,0,55,110,1013.5,0.458333,ThirtySecond,G3
2193,Right,0,67,110,1014.0,2.458333,Eighth,G4_E4
2192,Left,1,36,110,1014.0,0.958333,Sixteenth,C2
2195,Left,1,40,110,1015.0,0.458333,ThirtySecond,E2
2196,Left,1,43,110,1015.5,0.958333,Sixteenth,G2
2199,Left,1,48,110,1016.5,0.458333,ThirtySecond,C3
2197,Right,0,64,110,1016.5,2.958333,DottedEighth,G4_E4
2200,Left,1,52,110,1017.0,0.958333,Sixteenth,E3
2201,Left,1,55,110,1018.0,0.458333,ThirtySecond,G3
2202,Left,1,59,110,1018.5,0.958333,Sixteenth,B3
2205,Left,1,64,110,1019.5,0.458333,ThirtySecond,E4
2203,Right,0,64,110,1019.5,0.458333,ThirtySecond,G4_E4
2208,Left,1,38,110,1020.0,0.958333,Sixteenth,D2
2206,Right,0,65,110,1020.0,2.458333,Eighth,G4_F4
2209,Left,1,43,110,1021.0,0.458333,ThirtySecond,G2
2210,Left,1,47,110,1021.5,0.958333,Sixteenth,B2
2211,Right,0,67,110,1022.5,2.958333,DottedEighth,G4_F4
2213,Left,1,50,110,1022.5,0.458333,ThirtySecond,D3
2214,Left,1,55,110,1023.0,0.958333,Sixteenth,G3
2215,Left,1,59,110,1024.0,0.458333,ThirtySecond,B3
2216,Left,1,61,110,1024.5,0.958333,Sixteenth,C#4
2217,Left,1,62,110,1025.5,0.458333,ThirtySecond,D4
2218,Right,0,65,110,1025.5,0.458333,ThirtySecond,G4_F4
2220,Right,0,89,110,1026.0,0.958333,Sixteenth,F6
2221,Right,0,86,110,1027.0,0.458333,ThirtySecond,D6
2222,Right,0,83,110,1027.5,0.958333,Sixteenth,B5
2223,Right,0,79,110,1028.5,0.458333,ThirtySecond,G5
2224,Right,0,77,110,1029.0,0.958333,Sixteenth,F5
2225,Right,0,74,110,1030.0,0.458333,ThirtySecond,D5
2226,Right,0,71,110,1030.5,0.958333,Sixteenth,B4
2227,Right,0,67,110,1031.5,0.458333,ThirtySecond,G4
2228,Left,1,38,110,1032.0,0.958333,Sixteenth,D2
2229,Right,0,65,110,1032.0,2.458333,Eighth,G4_F4
2231,Left,1,43,110,1033.0,0.458333,ThirtySecond,G2
2232,Left,1,47,110,1033.5,0.958333,Sixteenth,B2
2234,Right,0,65,110,1034.5,2.958333,DottedEighth,G4_F4
2233,Left,1,50,110,1034.5,0.458333,ThirtySecond,D3
2236,Left,1,55,110,1035.0,0.958333,Sixteenth,G3
2237,Left,1,59,110,1036.0,0.458333,ThirtySecond,B3
2238,Left,1,61,110,1036.5,0.958333,Sixteenth,C#4
2240,Right,0,67,110,1037.5,0.458333,ThirtySecond,G4_F4
2239,Left,1,62,110,1037.5,0.458333,ThirtySecond,D4
2242,Left,1,36,110,1038.0,0.958333,Sixteenth,C2
2243,Right,0,67,110,1038.0,2.458333,Eighth,G4
2244,Left,1,43,110,1039.0,0.458333,ThirtySecond,G2
2245,Left,1,48,110,1039.5,0.958333,Sixteenth,C3
2247,Left,1,52,110,1040.5,0.458333,ThirtySecond,E3
2246,Right,0,67,110,1040.5,2.958333,DottedEighth,G4
2248,Left,1,55,110,1041.0,0.958333,Sixteenth,G3
2249,Left,1,60,110,1042.0,0.458333,ThirtySecond,C4
2250,Left,1,63,110,1042.5,0.958333,Sixteenth,D#4
2252,Left,1,64,110,1043.5,0.458333,ThirtySecond,E4
2251,Right,0,67,110,1043.5,0.458333,ThirtySecond,G4
2253,Right,0,91,110,1044.0,0.958333,Sixteenth,G6
2254,Right,0,88,110,1045.0,0.458333,ThirtySecond,E6
2255,Right,0,84,110,1045.5,0.958333,Sixteenth,C6
2256,Right,0,79,110,1046.5,0.458333,ThirtySecond,G5
2257,Right,0,76,110,1047.0,0.958333,Sixteenth,E5
2258,Right,0,72,110,1048.0,0.458333,ThirtySecond,C5
2259,Right,0,67,110,1048.5,0.958333,Sixteenth,G4
2260,Right,0,79,110,1049.5,0.458333,ThirtySecond,G5
2261,Right,0,67,110,1050.0,2.458333,Eighth,G5_G4_C#5_A#4
2265,Left,1,40,110,1050.0,0.958333,Sixteenth,E2
2266,Left,1,46,110,1051.0,0.458333,ThirtySecond,A#2
2267,Left,1,49,110,1051.5,0.958333,Sixteenth,C#3
2272,Left,1,52,110,1052.5,0.458333,ThirtySecond,E3
2268,Right,0,74,110,1052.5,2.958333,DottedEighth,G5_G4_D5_B4
2273,Left,1,53,110,1053.0,0.958333,Sixteenth,F3
2274,Left,1,59,110,1054.0,0.458333,ThirtySecond,B3
2275,Left,1,62,110,1054.5,0.958333,Sixteenth,D4
2277,Left,1,65,110,1055.5,0.458333,ThirtySecond,F4
2276,Right,0,71,110,1055.5,0.458333,ThirtySecond,G5_G4_D5_B4
2282,Right,0,79,110,1056.0,2.458333,Eighth,G5_G4_B4
2281,Left,1,51,110,1056.0,0.958333,Sixteenth,D#3
2285,Left,1,55,110,1057.0,0.458333,ThirtySecond,G3
2286,Left,1,59,110,1057.5,0.958333,Sixteenth,B3
2290,Left,1,63,110,1058.5,0.458333,ThirtySecond,D#4
2287,Right,0,72,110,1058.5,2.958333,DottedEighth,G5_G4_C5
2291,Left,1,52,110,1059.0,0.958333,Sixteenth,E3
2292,Left,1,55,110,1060.0,0.458333,ThirtySecond,G3
2293,Left,1,60,110,1060.5,0.958333,Sixteenth,C4
2294,Right,0,79,110,1061.5,0.458333,ThirtySecond,G5_G4_C5
2297,Left,1,64,110,1061.5,0.458333,ThirtySecond,E4
2300,Left,1,48,110,1062.0,0.958333,Sixteenth,C3
2298,Right,0,79,110,1062.0,2.458333,Eighth,G5_E6_E5
2302,Left,1,52,110,1063.0,0.458333,ThirtySecond,E3
2303,Left,1,55,110,1063.5,0.958333,Sixteenth,G3
2305,Left,1,59,110,1064.5,0.458333,ThirtySecond,B3
2304,Right,0,79,110,1064.5,2.958333,DottedEighth,G5_E6_E5
2308,Left,1,36,110,1065.0,0.958333,Sixteenth,C2
2309,Left,1,40,110,1066.0,0.458333,ThirtySecond,E2
2310,Left,1,43,110,1066.5,0.958333,Sixteenth,G2
2311,Left,1,48,110,1067.5,0.458333,ThirtySecond,C3
2312,Right,0,84,110,1067.5,0.458333,ThirtySecond,E5_C6_C5
2315,Right,0,84,110,1068.0,0.958333,Sixteenth,C6
2316,Left,1,31,110,1068.0,2.458333,Eighth,G2_G1
2318,Right,0,81,110,1069.0,0.458333,ThirtySecond,A5
2319,Right,0,78,110,1069.5,0.958333,Sixteenth,F#5
2320,Left,1,31,110,1070.5,2.958333,DottedEighth,G2_G1
2322,Right,0,75,110,1070.5,0.458333,ThirtySecond,D#5
2323,Right,0,72,110,1071.0,0.958333,Sixteenth,C5
2324,Right,0,69,110,1072.0,0.458333,ThirtySecond,A4
2325,Right,0,66,110,1072.5,0.958333,Sixteenth,F#4
2326,Left,1,43,110,1073.5,2.958333,DottedEighth,G2_G1
2328,Right,0,63,110,1073.5,0.458333,ThirtySecond,D#4_C5
2330,Right,0,83,110,1074.0,0.958333,Sixteenth,B5
2331,Right,0,79,110,1075.0,0.458333,ThirtySecond,G5
2332,Right,0,74,110,1075.5,0.958333,Sixteenth,D5
2334,Left,1,43,110,1076.5,2.958333,DottedEighth,G2_G1
2333,Right,0,71,110,1076.5,0.458333,ThirtySecond,B4
2336,Right,0,67,110,1077.0,0.958333,Sixteenth,G4
2337,Right,0,62,110,1078.0,0.458333,ThirtySecond,D4
2338,Right,0,59,110,1078.5,0.958333,Sixteenth,B3
2340,Right,0,83,110,1079.5,2.958333,DottedEighth,G#5_D5_B5_B4
2339,Left,1,41,110,1079.5,0.458333,ThirtySecond,F2_F1
2345,Left,1,29,110,1080.0,0.958333,Sixteenth,F1
2346,Left,1,35,110,1081.0,0.458333,ThirtySecond,B1
2347,Left,1,38,110,1081.5,0.958333,Sixteenth,D2
2352,Left,1,41,110,1082.5,0.458333,ThirtySecond,F2
2348,Right,0,71,110,1082.5,2.958333,DottedEighth,G#5_D5_B5_B4
2353,Left,1,47,110,1083.0,0.958333,Sixteenth,B2
2354,Right,0,79,110,1083.0,2.458333,Eighth,G5
2355,Left,1,50,110,1084.0,0.458333,ThirtySecond,D3
2356,Left,1,52,110,1084.5,0.958333,Sixteenth,E3
2360,Left,1,53,110,1085.5,0.458333,ThirtySecond,F3
2357,Right,0,71,110,1085.5,0.458333,ThirtySecond,G5_D5_B5_B4
2364,Right,0,84,110,1086.0,0.958333,Sixteenth,C6
2362,Left,1,40,110,1086.0,1.458333,DottedSixteenth,E3_E2
2365,Right,0,79,110,1087.0,0.458333,ThirtySecond,G5
2366,Right,0,76,123,1087.5,0.958333,Sixteenth,E5
2367,Right,0,72,110,1088.5,0.458333,ThirtySecond,C5
2368,Right,0,67,110,1089.0,0.958333,Sixteenth,G4
2369,Right,0,64,110,1090.0,0.458333,ThirtySecond,E4
2370,Left,1,67,110,1090.5,0.958333,Sixteenth,G4
2371,Right,0,76,110,1090.5,0.958333,Sixteenth,E5
2372,Left,1,64,110,1091.5,0.458333,ThirtySecond,E4
2373,Right,0,72,110,1091.5,0.458333,ThirtySecond,C5
2375,Right,0,76,110,1092.0,0.958333,Sixteenth,E5
2374,Left,1,60,110,1092.0,0.958333,Sixteenth,C4
2377,Left,1,55,110,1093.0,0.458333,ThirtySecond,G3
2376,Right,0,72,110,1093.0,0.458333,ThirtySecond,C5
2378,Right,0,79,122,1093.5,0.958333,Sixteenth,G5
2379,Left,1,52,110,1093.5,0.958333,Sixteenth,E3
2380,Left,1,48,110,1094.5,0.458333,ThirtySecond,C3
2381,Right,0,76,110,1094.5,0.458333,ThirtySecond,E5
2382,Right,0,72,110,1095.0,0.958333,Sixteenth,C5
2383,Left,1,64,110,1095.0,0.958333,Sixteenth,E4
2384,Right,0,67,110,1096.0,0.458333,ThirtySecond,G4
2385,Left,1,60,110,1096.0,0.458333,ThirtySecond,C4
2386,Right,0,76,124,1096.5,0.958333,Sixteenth,E5
2387,Left,1,55,110,1096.5,0.958333,Sixteenth,G3
2389,Left,1,52,110,1097.5,0.458333,ThirtySecond,E3
2388,Right,0,72,110,1097.5,0.458333,ThirtySecond,C5
2391,Left,1,64,110,1098.0,0.958333,Sixteenth,E4
2390,Right,0,79,110,1098.0,0.958333,Sixteenth,G5
2393,Left,1,60,110,1099.0,0.458333,ThirtySecond,C4
2392,Right,0,76,110,1099.0,0.458333,ThirtySecond,E5
2394,Left,1,55,110,1099.5,0.958333,Sixteenth,G3
2395,Right,0,84,122,1099.5,0.958333,Sixteenth,C6
2396,Right,0,79,110,1100.5,0.458333,ThirtySecond,G5
2397,Left,1,52,110,1100.5,0.458333,ThirtySecond,E3
2399,Left,1,60,110,1101.0,0.958333,Sixteenth,C4
2398,Right,0,76,110,1101.0,0.958333,Sixteenth,E5
2400,Right,0,72,110,1102.0,0.458333,ThirtySecond,C5
2401,Left,1,55,110,1102.0,0.458333,ThirtySecond,G3
2402,Right,0,79,124,1102.5,0.958333,Sixteenth,G5
2403,Left,1,52,110,1102.5,0.958333,Sixteenth,E3
2405,Left,1,48,110,1103.5,0.458333,ThirtySecond,C3
2404,Right,0,76,110,1103.5,0.458333,ThirtySecond,E5
2406,Left,1,57,110,1104.0,0.958333,Sixteenth,A3
2407,Left,1,55,110,1105.0,0.458333,ThirtySecond,G3
2408,Left,1,52,110,1105.5,0.958333,Sixteenth,E3
2409,Right,0,79,124,1105.5,0.958333,Sixteenth,G5
2411,Left,1,49,110,1106.5,0.458333,ThirtySecond,C#3
2410,Right,0,76,110,1106.5,0.458333,ThirtySecond,E5
2413,Right,0,73,110,1107.0,0.958333,Sixteenth,C#5
2412,Left,1,45,110,1107.0,0.958333,Sixteenth,A2
2414,Right,0,76,110,1108.0,0.458333,ThirtySecond,E5
2415,Left,1,55,110,1108.0,0.458333,ThirtySecond,G3
2416,Right,0,79,123,1108.5,0.958333,Sixteenth,G5
2417,Left,1,52,110,1108.5,0.958333,Sixteenth,E3
2418,Right,0,76,110,1109.5,0.458333,ThirtySecond,E5
2419,Left,1,49,110,1109.5,0.458333,ThirtySecond,C#3
2420,Right,0,77,110,1110.0,0.958333,Sixteenth,F5
2421,Left,1,57,110,1110.0,0.958333,Sixteenth,A3
2423,Left,1,53,110,1111.0,0.458333,ThirtySecond,F3
2422,Right,0,74,110,1111.0,0.458333,ThirtySecond,D5
2425,Right,0,77,126,1111.5,0.958333,Sixteenth,F5
2424,Left,1,50,110,1111.5,0.958333,Sixteenth,D3
2426,Right,0,69,110,1112.5,0.458333,ThirtySecond,A4
2427,Left,1,53,110,1112.5,0.458333,ThirtySecond,F3
2428,Right,0,77,110,1113.0,0.958333,Sixteenth,F5
2429,Left,1,50,110,1113.0,0.958333,Sixteenth,D3
2430,Left,1,62,110,1114.0,0.458333,ThirtySecond,D4
2431,Right,0,65,110,1114.0,0.458333,ThirtySecond,F4
2433,Left,1,65,110,1114.5,0.958333,Sixteenth,F4
2432,Right,0,69,123,1114.5,0.958333,Sixteenth,A4
2434,Right,0,65,110,1115.5,0.458333,ThirtySecond,F4
2435,Left,1,62,110,1115.5,0.458333,ThirtySecond,D4
2436,Right,0,69,110,1116.0,0.958333,Sixteenth,A4
2437,Left,1,65,110,1116.0,0.958333,Sixteenth,F4
2438,Left,1,62,110,1117.0,0.458333,ThirtySecond,D4
2439,Right,0,65,110,1117.0,0.458333,ThirtySecond,F4
2441,Right,0,77,124,1117.5,0.958333,Sixteenth,F5
2440,Left,1,57,110,1117.5,0.958333,Sixteenth,A3
2443,Left,1,53,110,1118.5,0.458333,ThirtySecond,F3
2442,Right,0,74,110,1118.5,0.458333,ThirtySecond,D5
2444,Right,0,69,110,1119.0,0.958333,Sixteenth,A4
2445,Left,1,65,110,1119.0,0.958333,Sixteenth,F4
2447,Right,0,81,110,1120.0,0.458333,ThirtySecond,A5
2446,Left,1,62,110,1120.0,0.458333,ThirtySecond,D4
2449,Left,1,57,110,1120.5,0.958333,Sixteenth,A3
2448,Right,0,77,126,1120.5,0.958333,Sixteenth,F5
2451,Left,1,53,110,1121.5,0.458333,ThirtySecond,F3
2450,Right,0,74,110,1121.5,0.458333,ThirtySecond,D5
2453,Left,1,55,110,1122.0,0.958333,Sixteenth,G3
2452,Right,0,72,110,1122.0,0.958333,Sixteenth,C5
2455,Right,0,71,110,1123.0,0.458333,ThirtySecond,B4
2454,Left,1,65,110,1123.0,0.458333,ThirtySecond,F4
2456,Left,1,62,110,1123.5,0.958333,Sixteenth,D4
2457,Right,0,77,122,1123.5,0.958333,Sixteenth,F5
2458,Right,0,74,110,1124.5,0.458333,ThirtySecond,D5
2459,Left,1,59,110,1124.5,0.458333,ThirtySecond,B3
2461,Left,1,55,110,1125.0,0.958333,Sixteenth,G3
2460,Right,0,83,110,1125.0,0.958333,Sixteenth,B5
2462,Right,0,77,110,1126.0,0.458333,ThirtySecond,F5
2463,Left,1,59,110,1126.0,0.458333,ThirtySecond,B3
2464,Right,0,74,125,1126.5,0.958333,Sixteenth,D5
2465,Left,1,62,110,1126.5,0.958333,Sixteenth,D4
2467,Left,1,65,110,1127.5,0.458333,ThirtySecond,F4
2466,Right,0,71,110,1127.5,0.458333,ThirtySecond,B4
2468,Right,0,74,110,1128.0,0.958333,Sixteenth,D5
2469,Left,1,56,110,1128.0,0.958333,Sixteenth,G#3
2470,Right,0,72,110,1129.0,0.458333,ThirtySecond,C5
2471,Left,1,68,110,1129.0,0.458333,ThirtySecond,G#4
2473,Left,1,65,110,1129.5,0.958333,Sixteenth,F4
2472,Right,0,80,124,1129.5,0.958333,Sixteenth,G#5
2474,Right,0,77,110,1130.5,0.458333,ThirtySecond,F5
2475,Left,1,60,110,1130.5,0.458333,ThirtySecond,C4
2477,Right,0,84,110,1131.0,0.958333,Sixteenth,C6
2476,Left,1,57,110,1131.0,0.958333,Sixteenth,A3
2479,Left,1,60,110,1132.0,0.458333,ThirtySecond,C4
2478,Right,0,81,110,1132.0,0.458333,ThirtySecond,A5
2480,Right,0,77,125,1132.5,0.958333,Sixteenth,F5
2481,Left,1,65,110,1132.5,0.958333,Sixteenth,F4
2482,Right,0,72,110,1133.5,0.458333,ThirtySecond,C5
2483,Left,1,69,110,1133.5,0.458333,ThirtySecond,A4
2485,Left,1,58,110,1134.0,0.958333,Sixteenth,A#3
2484,Right,0,75,110,1134.0,0.958333,Sixteenth,D#5
2486,Right,0,74,110,1135.0,0.458333,ThirtySecond,D5
2487,Left,1,70,110,1135.0,0.458333,ThirtySecond,A#4
2489,Left,1,58,110,1135.5,0.958333,Sixteenth,A#3
2488,Right,0,86,123,1135.5,0.958333,Sixteenth,D6
2490,Left,1,70,110,1136.5,0.458333,ThirtySecond,A#4
2491,Right,0,74,110,1136.5,0.458333,ThirtySecond,D5
2492,Left,1,58,110,1137.0,0.958333,Sixteenth,A#3
2493,Right,0,86,110,1137.0,0.958333,Sixteenth,D6
2495,Left,1,70,110,1138.0,0.458333,ThirtySecond,A#4
2494,Right,0,74,110,1138.0,0.458333,ThirtySecond,D5
2497,Right,0,86,123,1138.5,0.958333,Sixteenth,D6
2496,Left,1,59,110,1138.5,0.958333,Sixteenth,B3
2498,Right,0,74,110,1139.5,0.458333,ThirtySecond,G5_D5
2499,Left,1,71,110,1139.5,0.458333,ThirtySecond,B4
2501,Right,0,72,110,1140.0,2.458333,Sixteenth,G5_C5
2503,Left,1,59,110,1140.0,0.958333,Sixteenth,B3
2504,Left,1,60,110,1141.0,0.458333,ThirtySecond,C4
2505,Right,0,76,110,1141.0,0.458333,ThirtySecond,E5
2506,Left,1,62,110,1141.5,0.958333,Sixteenth,D4
2507,Right,0,77,110,1141.5,0.958333,Sixteenth,F5
2509,Right,0,74,110,1142.5,2.958333,ThirtySecond,G5_F5_D5
2508,Left,1,59,110,1142.5,0.458333,ThirtySecond,B3
2513,Left,1,62,110,1143.0,0.958333,Sixteenth,D4
2512,Right,0,71,110,1143.0,0.958333,Sixteenth,B4
2515,Left,1,64,110,1144.0,0.458333,ThirtySecond,E4
2514,Right,0,72,110,1144.0,0.458333,ThirtySecond,C5
2516,Right,0,74,110,1144.5,0.958333,Sixteenth,D5
2517,Left,1,65,110,1144.5,0.958333,Sixteenth,F4
2519,Left,1,64,110,1145.5,0.458333,ThirtySecond,E4
2518,Right,0,72,110,1145.5,2.958333,ThirtySecond,G5_C5
2521,Right,0,74,110,1146.0,0.958333,Sixteenth,D5
2522,Left,1,71,110,1146.0,0.958333,Sixteenth,B4
2523,Right,0,76,110,1147.0,0.458333,ThirtySecond,E5
2524,Left,1,72,110,1147.0,0.458333,ThirtySecond,C5
2526,Left,1,74,110,1147.5,0.958333,Sixteenth,D5
2525,Right,0,77,110,1147.5,0.958333,Sixteenth,F5
2527,Left,1,72,110,1148.5,0.458333,ThirtySecond,C5
2528,Right,0,79,110,1148.5,2.958333,DottedEighth,G5_E5
2530,Right,0,77,110,1149.0,0.958333,Sixteenth,F5
2531,Left,1,74,110,1149.0,0.958333,Sixteenth,D5
2533,Right,0,74,110,1150.0,0.458333,ThirtySecond,D5
2532,Left,1,71,110,1150.0,0.458333,ThirtySecond,B4
2535,Right,0,77,110,1150.5,0.958333,Sixteenth,F5
2534,Left,1,74,110,1150.5,0.958333,Sixteenth,D5
2536,Right,0,76,110,1151.5,0.458333,ThirtySecond,G5_E5
2537,Left,1,72,110,1151.5,0.458333,ThirtySecond,C5
2539,Right,0,74,110,1152.0,0.958333,Sixteenth,G#5_D5
2541,Left,1,71,110,1152.0,0.958333,Sixteenth,B4
2542,Right,0,81,110,1153.0,0.458333,ThirtySecond,C5_A5
2543,Left,1,69,110,1153.0,0.458333,ThirtySecond,A4
2547,Left,1,68,110,1153.5,0.958333,Sixteenth,G#4
2545,Right,0,71,110,1153.5,0.958333,Sixteenth,B5_B4
2548,Right,0,64,110,1154.5,2.958333,DottedEighth,E4
2549,Left,1,32,110,1155.0,0.958333,Sixteenth,G#1
2550,Right,0,59,110,1155.0,0.958333,Sixteenth,B3
2551,Left,1,33,110,1156.0,0.458333,ThirtySecond,A1
2552,Right,0,60,110,1156.0,0.458333,ThirtySecond,C4
2554,Right,0,62,110,1156.5,0.958333,Sixteenth,D4
2553,Left,1,35,110,1156.5,0.958333,Sixteenth,B1
2556,Left,1,33,110,1157.5,1.458333,DottedSixteenth,A1
2555,Right,0,60,110,1157.5,0.458333,ThirtySecond,E4_C4
2558,Right,0,72,110,1158.0,2.458333,Eighth,E4_C5
2560,Left,1,36,110,1159.0,0.458333,ThirtySecond,C2
2561,Left,1,40,110,1159.5,0.958333,Sixteenth,E2
2563,Right,0,64,110,1160.5,2.958333,DottedEighth,E4_C5
2562,Left,1,44,110,1160.5,0.458333,ThirtySecond,G#2
2565,Left,1,45,110,1161.0,0.958333,Sixteenth,A2
2566,Left,1,48,110,1162.0,0.458333,ThirtySecond,C3
2567,Left,1,52,110,1162.5,0.958333,Sixteenth,E3
2568,Right,0,64,110,1163.5,0.458333,ThirtySecond,E4_C5
2570,Left,1,56,110,1163.5,0.458333,ThirtySecond,G#3
2571,Right,0,84,80,1164.0,0.958333,Sixteenth,C6
2572,Left,1,57,80,1164.0,2.458333,Eighth,A3
2573,Right,0,80,80,1165.0,0.458333,ThirtySecond,G#5
2574,Right,0,81,80,1165.5,0.958333,Sixteenth,A5
2575,Left,1,60,80,1166.5,2.958333,DottedEighth,E4_C4_A3
2578,Right,0,76,80,1166.5,0.458333,ThirtySecond,E5
2579,Right,0,74,80,1167.0,0.958333,Sixteenth,D5
2580,Right,0,72,80,1168.0,0.458333,ThirtySecond,C5
2581,Right,0,76,80,1168.5,0.958333,Sixteenth,E5
2582,Right,0,72,80,1169.5,0.458333,ThirtySecond,C5
2583,Left,1,64,80,1169.5,2.958333,DottedEighth,E4_C4_A3
2586,Right,0,71,80,1170.0,0.958333,Sixteenth,B4
2587,Right,0,69,80,1171.0,0.458333,ThirtySecond,A4
2588,Right,0,72,80,1171.5,0.958333,Sixteenth,C5
2589,Left,1,60,80,1172.5,2.958333,DottedEighth,E4_C4_A3
2591,Right,0,69,80,1172.5,0.458333,ThirtySecond,A4
2593,Right,0,71,80,1173.0,0.958333,Sixteenth,B4
2594,Right,0,69,80,1174.0,0.458333,ThirtySecond,A4
2595,Right,0,72,80,1174.5,0.958333,Sixteenth,C5
2599,Left,1,45,120,1175.5,0.458333,ThirtySecond,A2_A1
2596,Right,0,71,120,1175.5,0.458333,ThirtySecond,F4_D4_B4
2602,Right,0,62,120,1176.0,2.458333,Eighth,E4_D4_B4
2601,Left,1,31,120,1176.0,0.958333,Sixteenth,G1
2605,Left,1,35,120,1177.0,0.458333,ThirtySecond,B1
2606,Left,1,40,120,1177.5,0.958333,Sixteenth,E2
2607,Right,0,71,120,1178.5,2.958333,DottedEighth,E4_D4_B4
2610,Left,1,44,120,1178.5,0.458333,ThirtySecond,G#2
2611,Left,1,47,120,1179.0,0.958333,Sixteenth,B2
2612,Left,1,52,120,1180.0,0.458333,ThirtySecond,E3
2613,Left,1,56,120,1180.5,0.958333,Sixteenth,G#3
2615,Right,0,71,120,1181.5,0.458333,ThirtySecond,E4_D4_B4
2614,Left,1,57,120,1181.5,0.458333,ThirtySecond,A3
2621,Right,0,84,80,1182.0,0.958333,Sixteenth,C6
2618,Left,1,56,80,1182.0,2.458333,Eighth,G#3_E4_B3
2622,Right,0,83,80,1183.0,0.458333,ThirtySecond,B5
2623,Right,0,88,80,1183.5,0.958333,Sixteenth,E6
2625,Right,0,83,80,1184.5,0.458333,ThirtySecond,B5
2624,Left,1,56,80,1184.5,2.958333,DottedEighth,G#3_E4_B3
2628,Right,0,81,80,1185.0,0.958333,Sixteenth,A5
2629,Right,0,80,80,1186.0,0.458333,ThirtySecond,G#5
2630,Right,0,83,80,1186.5,0.958333,Sixteenth,B5
2631,Left,1,64,80,1187.5,2.958333,DottedEighth,G#3_E4_B3
2632,Right,0,76,80,1187.5,0.458333,ThirtySecond,E5
2635,Right,0,83,80,1188.0,0.958333,Sixteenth,B5
2636,Right,0,76,80,1189.0,0.458333,ThirtySecond,E5
2637,Right,0,77,80,1189.5,0.958333,Sixteenth,F5
2641,Right,0,74,80,1190.5,0.458333,ThirtySecond,D5
2638,Left,1,64,80,1190.5,2.958333,DottedEighth,G#3_E4_B3
2642,Right,0,72,80,1191.0,0.958333,Sixteenth,C5
2643,Right,0,71,80,1192.0,0.458333,ThirtySecond,B4
2644,Right,0,76,80,1192.5,0.958333,Sixteenth,E5
2645,Right,0,71,80,1193.5,0.458333,ThirtySecond,B4
2646,Left,1,64,80,1193.5,0.458333,ThirtySecond,G#3_E4_B3
2650,Right,0,72,80,1194.0,0.958333,Sixteenth,C5
2649,Left,1,44,80,1194.0,2.458333,Eighth,G#2
2651,Right,0,71,81,1195.0,0.458333,ThirtySecond,B4
2652,Right,0,76,82,1195.5,0.958333,Sixteenth,E5
2653,Right,0,71,84,1196.5,0.458333,ThirtySecond,B4
2654,Left,1,56,84,1196.5,0.458333,ThirtySecond,G#3
2655,Right,0,74,85,1197.0,0.958333,Sixteenth,D5
2656,Left,1,45,85,1197.0,2.458333,Eighth,A2
2657,Right,0,72,86,1198.0,0.458333,ThirtySecond,C5
2658,Right,0,76,87,1198.5,0.958333,Sixteenth,E5
2659,Right,0,72,89,1199.5,0.458333,ThirtySecond,C5
2660,Left,1,57,89,1199.5,0.458333,ThirtySecond,A3
2662,Right,0,76,90,1200.0,0.958333,Sixteenth,E5
2661,Left,1,47,90,1200.0,2.458333,Eighth,B2
2663,Right,0,74,92,1201.0,0.458333,ThirtySecond,D5
2664,Right,0,80,92,1201.5,0.958333,Sixteenth,G#5
2665,Right,0,74,94,1202.5,0.458333,ThirtySecond,D5
2666,Left,1,59,94,1202.5,0.458333,ThirtySecond,B3
2668,Left,1,48,95,1203.0,2.458333,Eighth,C3
2667,Right,0,77,95,1203.0,0.958333,Sixteenth,F5
2669,Right,0,76,97,1204.0,0.458333,ThirtySecond,E5
2670,Right,0,81,98,1204.5,0.958333,Sixteenth,A5
2672,Right,0,76,99,1205.5,0.458333,ThirtySecond,E5
2671,Left,1,60,99,1205.5,0.458333,ThirtySecond,C4
2674,Right,0,81,100,1206.0,0.958333,Sixteenth,A5
2673,Left,1,50,100,1206.0,2.458333,Eighth,D3
2675,Right,0,77,102,1207.0,0.458333,ThirtySecond,F5
2676,Right,0,81,103,1207.5,0.958333,Sixteenth,A5
2678,Right,0,71,104,1208.5,0.458333,ThirtySecond,B4
2677,Left,1,62,104,1208.5,0.458333,ThirtySecond,D4
2680,Right,0,81,105,1209.0,0.958333,Sixteenth,A5
2679,Left,1,51,105,1209.0,2.458333,Eighth,D#3
2681,Right,0,78,107,1210.0,0.458333,ThirtySecond,F#5
2682,Right,0,81,108,1210.5,0.958333,Sixteenth,A5
2684,Left,1,63,110,1211.5,0.458333,ThirtySecond,D#4
2683,Right,0,72,110,1211.5,1.458333,DottedSixteenth,C5
2686,Left,1,64,110,1212.0,3.958333,Quarter,E4
2685,Right,0,81,110,1212.0,0.958333,Sixteenth,A5
2687,Right,0,71,110,1213.0,0.458333,ThirtySecond,B4
2688,Right,0,81,110,1213.5,0.958333,Sixteenth,A5
2689,Right,0,80,110,1214.5,0.458333,ThirtySecond,G#5
2690,Right,0,74,123,1215.0,3.958333,Quarter,D5_B5
2692,Left,1,52,110,1216.0,0.458333,ThirtySecond,E3
2693,Left,1,53,110,1216.5,0.958333,Sixteenth,F3
2694,Left,1,52,110,1217.5,0.458333,ThirtySecond,E3
2695,Left,1,57,110,1218.0,3.958333,Quarter,A3
2696,Right,0,72,110,1219.0,0.458333,ThirtySecond,C5
2697,Right,0,83,110,1219.5,0.958333,Sixteenth,B5
2698,Right,0,81,110,1220.5,0.458333,ThirtySecond,A5
2699,Right,0,84,122,1221.0,3.958333,Quarter,E5_C6
2701,Left,1,45,110,1222.0,0.458333,ThirtySecond,A2
2702,Left,1,47,110,1222.5,0.958333,Sixteenth,B2
2703,Left,1,45,110,1223.5,0.458333,ThirtySecond,A2
2704,Left,1,43,124,1224.0,3.958333,Quarter,G2
2705,Right,0,74,110,1225.0,0.458333,ThirtySecond,D5
2706,Right,0,84,110,1225.5,0.958333,Sixteenth,C6
2707,Right,0,83,110,1226.5,0.458333,ThirtySecond,B5
2708,Right,0,77,121,1227.0,2.458333,Eighth,F5_D6
2710,Left,1,31,110,1228.0,0.458333,ThirtySecond,G1
2711,Left,1,32,110,1228.5,0.958333,Sixteenth,G#1
2712,Left,1,31,110,1229.5,1.458333,DottedSixteenth,G1
2713,Right,0,77,110,1229.5,0.458333,ThirtySecond,F5_D6
2715,Right,0,77,110,1230.0,2.458333,Eighth,G5_F5_D6_B5
2719,Left,1,35,110,1231.0,0.458333,ThirtySecond,B1
2720,Left,1,38,110,1231.5,0.958333,Sixteenth,D2
2721,Left,1,43,110,1232.5,0.458333,ThirtySecond,G2
2722,Right,0,86,110,1232.5,2.958333,DottedEighth,G5_F5_D6_B5
2726,Left,1,47,110,1233.0,0.958333,Sixteenth,B2
2727,Left,1,50,110,1234.0,0.458333,ThirtySecond,D3
2728,Left,1,54,110,1234.5,0.958333,Sixteenth,F#3
2732,Left,1,55,110,1235.5,0.458333,ThirtySecond,G3
2729,Right,0,86,110,1235.5,1.458333,DottedSixteenth,G5_F5_D6_B5
2734,Left,1,50,110,1236.0,2.458333,Eighth,G2_F3_D3_B2
2738,Right,0,83,110,1237.0,0.458333,ThirtySecond,B5
2739,Right,0,89,110,1237.5,0.958333,Sixteenth,F6
2741,Left,1,47,110,1238.5,2.958333,DottedEighth,G2_F3_D3_B2
2740,Right,0,86,110,1238.5,0.458333,ThirtySecond,D6
2745,Right,0,84,110,1239.0,0.958333,Sixteenth,C6
2746,Right,0,83,110,1240.0,0.458333,ThirtySecond,B5
2747,Right,0,86,110,1240.5,0.958333,Sixteenth,D6
2749,Left,1,43,110,1241.5,2.958333,DottedEighth,G2_F3_D3_B2
2748,Right,0,83,110,1241.5,0.458333,ThirtySecond,B5
2753,Right,0,79,110,1242.0,0.958333,Sixteenth,G5
2754,Right,0,77,110,1243.0,0.458333,ThirtySecond,F5
2755,Right,0,81,110,1243.5,0.958333,Sixteenth,A5
2756,Left,1,53,110,1244.5,2.958333,DottedEighth,G2_F3_D3_B2
2759,Right,0,77,110,1244.5,0.458333,ThirtySecond,F5
2761,Right,0,76,110,1245.0,0.958333,Sixteenth,E5
2762,Right,0,74,110,1246.0,0.458333,ThirtySecond,D5
2763,Right,0,77,110,1246.5,0.958333,Sixteenth,F5
2764,Left,1,53,110,1247.5,0.458333,ThirtySecond,G2_F3_D3_B2
2768,Right,0,74,110,1247.5,0.458333,ThirtySecond,D5
2772,Left,1,36,110,1248.0,0.958333,Sixteenth,C2
2769,Right,0,67,110,1248.0,2.458333,Eighth,G4_E5_C5
2773,Left,1,40,110,1249.0,0.458333,ThirtySecond,E2
2774,Left,1,43,110,1249.5,0.958333,Sixteenth,G2
2775,Right,0,67,110,1250.5,2.958333,DottedEighth,G4_E5_C5
2777,Left,1,47,110,1250.5,0.458333,ThirtySecond,B2
2779,Left,1,48,110,1251.0,0.958333,Sixteenth,C3
2780,Left,1,52,110,1252.0,0.458333,ThirtySecond,E3
2781,Left,1,55,110,1252.5,0.958333,Sixteenth,G3
2784,Left,1,59,110,1253.5,0.458333,ThirtySecond,B3
2782,Right,0,72,110,1253.5,1.458333,DottedSixteenth,G4_E5_C5
2786,Left,1,60,110,1254.0,0.958333,Sixteenth,C4
2787,Left,1,65,110,1255.0,0.458333,ThirtySecond,F4
2788,Right,0,71,110,1255.0,0.458333,ThirtySecond,G4_B4
2792,Left,1,64,110,1255.5,0.958333,Sixteenth,E4
2790,Right,0,69,110,1255.5,0.958333,Sixteenth,C5_A4
2793,Left,1,62,110,1256.5,0.458333,ThirtySecond,D4
2794,Right,0,74,110,1256.5,0.458333,ThirtySecond,D5_B4
2797,Left,1,60,110,1257.0,0.958333,Sixteenth,C4
2796,Right,0,76,122,1257.0,3.958333,Quarter,G4_E5
2800,Left,1,36,110,1258.0,0.458333,ThirtySecond,C2
2799,Right,0,64,110,1258.0,0.458333,ThirtySecond,E4
2801,Right,0,65,110,1258.5,0.958333,Sixteenth,F4
2802,Left,1,38,110,1258.5,0.958333,Sixteenth,D2
2803,Right,0,67,110,1259.5,0.458333,ThirtySecond,G4
2804,Left,1,40,110,1259.5,0.458333,ThirtySecond,E2
2806,Right,0,69,123,1260.0,3.958333,Quarter,A4
2805,Left,1,41,122,1260.0,0.958333,Sixteenth,F2
2807,Right,0,73,110,1261.0,0.458333,ThirtySecond,C#5
2808,Left,1,55,110,1261.0,0.458333,ThirtySecond,G3
2809,Right,0,74,110,1261.5,0.958333,Sixteenth,D5
2810,Left,1,53,110,1261.5,0.958333,Sixteenth,F3
2812,Right,0,76,110,1262.5,0.458333,ThirtySecond,E5
2811,Left,1,52,110,1262.5,0.458333,ThirtySecond,E3
2813,Left,1,50,123,1263.0,0.958333,Sixteenth,D3
2814,Right,0,77,127,1263.0,3.958333,Quarter,F5
2816,Right,0,65,110,1264.0,0.458333,ThirtySecond,F4
2815,Left,1,38,110,1264.0,0.458333,ThirtySecond,D2
2818,Right,0,67,110,1264.5,0.958333,Sixteenth,G4
2817,Left,1,40,110,1264.5,0.958333,Sixteenth,E2
2819,Left,1,41,110,1265.5,0.458333,ThirtySecond,F2
2820,Right,0,69,110,1265.5,0.458333,ThirtySecond,A4
2822,Right,0,71,122,1266.0,0.958333,Sixteenth,B4
2821,Left,1,43,124,1266.0,2.958333,DottedEighth,G2
2823,Right,0,73,110,1267.0,0.458333,ThirtySecond,C#5_A#4
2825,Right,0,74,110,1267.5,0.958333,Sixteenth,D5_B4
2827,Right,0,76,110,1268.5,0.458333,ThirtySecond,E5_C5
2829,Right,0,74,123,1269.0,3.958333,Quarter,D5_B4
2831,Left,1,55,110,1269.0,0.958333,Sixteenth,G3
2832,Left,1,54,110,1270.0,0.458333,ThirtySecond,F#3
2833,Left,1,55,110,1270.5,0.958333,Sixteenth,G3
2834,Left,1,57,110,1271.5,0.458333,ThirtySecond,A3
2835,Right,0,67,110,1272.0,3.958333,Quarter,G4
2836,Left,1,59,122,1272.0,3.958333,Quarter,B3
2837,Right,0,73,110,1273.0,0.458333,ThirtySecond,C#5
2838,Right,0,74,110,1273.5,0.958333,Sixteenth,D5
2839,Right,0,76,110,1274.5,0.458333,ThirtySecond,E5
2840,Right,0,74,123,1275.0,3.958333,Quarter,D5
2841,Left,1,60,110,1276.0,0.458333,ThirtySecond,C4
2842,Right,0,69,110,1276.0,0.458333,ThirtySecond,A4
2844,Left,1,62,110,1276.5,0.958333,Sixteenth,D4
2843,Right,0,71,110,1276.5,0.958333,Sixteenth,B4
2845,Left,1,64,110,1277.5,0.458333,ThirtySecond,E4
2846,Right,0,72,110,1277.5,0.458333,ThirtySecond,C5
2848,Right,0,71,110,1278.0,2.958333,DottedEighth,B4
2847,Left,1,65,110,1278.0,0.958333,Sixteenth,F4
2849,Left,1,64,110,1279.0,0.458333,ThirtySecond,E4
2850,Right,0,76,110,1279.0,0.458333,ThirtySecond,E5
2852,Right,0,77,110,1279.5,0.958333,Sixteenth,F5
2851,Left,1,62,110,1279.5,0.958333,Sixteenth,D4
2853,Left,1,60,110,1280.5,0.458333,ThirtySecond,C4
2854,Right,0,78,110,1280.5,0.458333,ThirtySecond,F#5
2855,Left,1,59,110,1281.0,0.958333,Sixteenth,B3
2856,Right,0,79,124,1281.0,3.958333,Quarter,G5
2857,Left,1,60,110,1282.0,0.458333,ThirtySecond,C4
2858,Right,0,76,110,1282.0,0.458333,ThirtySecond,E5
2860,Left,1,59,110,1282.5,0.958333,Sixteenth,B3
2859,Right,0,74,110,1282.5,0.958333,Sixteenth,D5
2861,Left,1,57,110,1283.5,0.458333,ThirtySecond,A3
2862,Right,0,72,110,1283.5,0.458333,ThirtySecond,C5
2864,Right,0,74,110,1284.0,0.958333,Sixteenth,D5
2863,Left,1,59,110,1284.0,0.958333,Sixteenth,B3
2865,Left,1,59,110,1285.0,1.458333,DottedSixteenth,B3
2866,Right,0,81,110,1285.0,1.458333,ThirtySecond,D5_A5
2868,Right,0,79,110,1285.5,0.958333,Sixteenth,G5
2870,Right,0,81,110,1286.5,1.458333,ThirtySecond,D5_A5
2869,Left,1,59,110,1286.5,1.458333,DottedSixteenth,B3
2872,Right,0,79,110,1287.0,0.958333,Sixteenth,G5
2873,Right,0,74,110,1288.0,1.458333,ThirtySecond,G4_F5_D5
2875,Left,1,59,110,1288.0,0.458333,ThirtySecond,B3
2878,Left,1,60,110,1288.5,0.958333,Sixteenth,C4
2877,Right,0,76,110,1288.5,0.958333,Sixteenth,E5
2880,Right,0,77,110,1289.5,1.458333,ThirtySecond,G4_F5_D5
2879,Left,1,59,110,1289.5,0.458333,ThirtySecond,B3
2883,Right,0,76,110,1290.0,0.958333,Sixteenth,E5
2884,Left,1,60,110,1290.0,0.958333,Sixteenth,C4
2885,Right,0,77,110,1291.0,1.458333,ThirtySecond,G4_F5_D5
2888,Left,1,59,110,1291.0,0.458333,ThirtySecond,B3
2889,Left,1,60,110,1291.5,0.958333,Sixteenth,C4
2890,Right,0,76,110,1291.5,0.958333,Sixteenth,E5
2891,Left,1,62,110,1292.5,0.458333,ThirtySecond,D4
2892,Right,0,74,110,1292.5,0.458333,ThirtySecond,D5
2893,Left,1,64,110,1293.0,0.958333,Sixteenth,E4
2894,Right,0,72,110,1293.0,0.958333,Sixteenth,C5
2895,Left,1,62,110,1294.0,0.458333,ThirtySecond,D4
2896,Right,0,71,110,1294.0,0.458333,ThirtySecond,B4
2898,Right,0,72,110,1294.5,0.958333,Sixteenth,C5
2897,Left,1,64,110,1294.5,0.958333,Sixteenth,E4
2899,Left,1,60,110,1295.5,0.458333,ThirtySecond,C4
2900,Right,0,76,110,1295.5,0.458333,ThirtySecond,E5
2901,Right,0,64,110,1296.0,0.958333,Sixteenth,E4
2902,Right,0,76,110,1297.0,0.458333,ThirtySecond,E5_C5
2904,Right,0,64,110,1297.5,0.958333,Sixteenth,E4
2905,Left,1,40,110,1298.5,2.958333,DottedEighth,E2
2906,Right,0,74,110,1298.5,0.458333,ThirtySecond,D5_B4
2908,Right,0,64,110,1299.0,0.958333,Sixteenth,E4
2909,Right,0,69,110,1300.0,0.458333,ThirtySecond,C5_A4
2911,Right,0,64,110,1300.5,0.958333,Sixteenth,E4
2913,Right,0,71,110,1301.5,0.458333,ThirtySecond,G#4_B4
2912,Left,1,40,110,1301.5,0.458333,ThirtySecond,E2
2916,Right,0,64,110,1302.0,2.458333,Eighth,E4_C5
2915,Left,1,33,112,1302.0,0.958333,Sixteenth,A1
2918,Left,1,36,110,1303.0,0.458333,ThirtySecond,C2
2919,Left,1,40,110,1303.5,0.958333,Sixteenth,E2
2920,Right,0,72,110,1304.5,2.958333,DottedEighth,E4_C5
2922,Left,1,44,110,1304.5,0.458333,ThirtySecond,G#2
2923,Left,1,45,110,1305.0,0.958333,Sixteenth,A2
2924,Left,1,48,110,1306.0,0.458333,ThirtySecond,C3
2925,Left,1,52,110,1306.5,0.958333,Sixteenth,E3
2928,Left,1,56,110,1307.5,0.458333,ThirtySecond,G#3
2926,Right,0,64,110,1307.5,0.458333,ThirtySecond,E4_C5
2930,Left,1,57,80,1308.0,2.458333,Eighth,A3
2929,Right,0,84,80,1308.0,0.958333,Sixteenth,C6
2931,Right,0,80,80,1309.0,0.458333,ThirtySecond,G#5
2932,Right,0,81,80,1309.5,0.958333,Sixteenth,A5
2934,Right,0,76,80,1310.5,0.458333,ThirtySecond,E5
2933,Left,1,64,80,1310.5,2.958333,DottedEighth,E4_C4_A3
2937,Right,0,74,80,1311.0,0.958333,Sixteenth,D5
2938,Right,0,72,80,1312.0,0.458333,ThirtySecond,C5
2939,Right,0,76,80,1312.5,0.958333,Sixteenth,E5
2943,Right,0,72,80,1313.5,0.458333,ThirtySecond,C5
2940,Left,1,60,80,1313.5,2.958333,DottedEighth,E4_C4_A3
2944,Right,0,71,80,1314.0,0.958333,Sixteenth,B4
2945,Right,0,69,80,1315.0,0.458333,ThirtySecond,A4
2946,Right,0,72,80,1315.5,0.958333,Sixteenth,C5
2947,Right,0,69,80,1316.5,0.458333,ThirtySecond,A4
2948,Left,1,57,80,1316.5,2.958333,DottedEighth,E4_C4_A3
2951,Right,0,71,80,1317.0,0.958333,Sixteenth,B4
2952,Right,0,69,80,1318.0,0.458333,ThirtySecond,A4
2953,Right,0,72,80,1318.5,0.958333,Sixteenth,C5
2954,Right,0,71,120,1319.5,0.458333,ThirtySecond,F4_D4_B4
2956,Left,1,45,120,1319.5,0.458333,ThirtySecond,A2_A1
2959,Left,1,31,120,1320.0,0.958333,Sixteenth,G1
2960,Right,0,62,120,1320.0,2.458333,Eighth,E4_D4_B4
2963,Left,1,35,120,1321.0,0.458333,ThirtySecond,B1
2964,Left,1,40,120,1321.5,0.958333,Sixteenth,E2
2967,Left,1,44,120,1322.5,0.458333,ThirtySecond,G#2
2965,Right,0,62,120,1322.5,2.958333,DottedEighth,E4_D4_B4
2969,Left,1,47,120,1323.0,0.958333,Sixteenth,B2
2970,Left,1,52,120,1324.0,0.458333,ThirtySecond,E3
2971,Left,1,56,120,1324.5,0.958333,Sixteenth,G#3
2973,Left,1,57,120,1325.5,0.458333,ThirtySecond,A3
2972,Right,0,64,120,1325.5,0.458333,ThirtySecond,E4_D4_B4
2977,Left,1,64,80,1326.0,2.458333,Eighth,G#3_E4_B3
2976,Right,0,84,80,1326.0,0.958333,Sixteenth,C6
2980,Right,0,83,80,1327.0,0.458333,ThirtySecond,B5
2981,Right,0,88,80,1327.5,0.958333,Sixteenth,E6
2982,Left,1,56,80,1328.5,2.958333,DottedEighth,G#3_E4_B3
2985,Right,0,83,80,1328.5,0.458333,ThirtySecond,B5
2986,Right,0,81,80,1329.0,0.958333,Sixteenth,A5
2987,Right,0,80,80,1330.0,0.458333,ThirtySecond,G#5
2988,Right,0,83,80,1330.5,0.958333,Sixteenth,B5
2990,Right,0,76,80,1331.5,0.458333,ThirtySecond,E5
2989,Left,1,59,80,1331.5,2.958333,DottedEighth,G#3_E4_B3
2993,Right,0,83,80,1332.0,0.958333,Sixteenth,B5
2994,Right,0,76,80,1333.0,0.458333,ThirtySecond,E5
2995,Right,0,77,80,1333.5,0.958333,Sixteenth,F5
2997,Right,0,74,80,1334.5,0.458333,ThirtySecond,D5
2996,Left,1,59,80,1334.5,2.958333,DottedEighth,G#3_E4_B3
3000,Right,0,72,80,1335.0,0.958333,Sixteenth,C5
3001,Right,0,71,80,1336.0,0.458333,ThirtySecond,B4
3002,Right,0,76,80,1336.5,0.958333,Sixteenth,E5
3006,Right,0,71,80,1337.5,0.458333,ThirtySecond,B4
3003,Left,1,59,80,1337.5,0.458333,ThirtySecond,G#3_E4_B3
3008,Right,0,72,80,1338.0,0.958333,Sixteenth,C5
3007,Left,1,44,80,1338.0,2.458333,Eighth,G#2
3009,Right,0,71,81,1339.0,0.458333,ThirtySecond,B4
3010,Right,0,76,82,1339.5,0.958333,Sixteenth,E5
3012,Right,0,71,84,1340.5,0.458333,ThirtySecond,B4
3011,Left,1,56,84,1340.5,0.458333,ThirtySecond,G#3
3013,Left,1,45,85,1341.0,2.458333,Eighth,A2
3014,Right,0,74,85,1341.0,0.958333,Sixteenth,D5
3015,Right,0,72,86,1342.0,0.458333,ThirtySecond,C5
3016,Right,0,76,87,1342.5,0.958333,Sixteenth,E5
3018,Left,1,57,89,1343.5,0.458333,ThirtySecond,A3
3017,Right,0,72,89,1343.5,0.458333,ThirtySecond,C5
3019,Right,0,76,90,1344.0,0.958333,Sixteenth,E5
3020,Left,1,47,90,1344.0,2.458333,Eighth,B2
3021,Right,0,74,92,1345.0,0.458333,ThirtySecond,D5
3022,Right,0,80,92,1345.5,0.958333,Sixteenth,G#5
3024,Left,1,59,94,1346.5,0.458333,ThirtySecond,B3
3023,Right,0,74,94,1346.5,0.458333,ThirtySecond,D5
3026,Left,1,48,95,1347.0,2.458333,Eighth,C3
3025,Right,0,77,95,1347.0,0.958333,Sixteenth,F5
3027,Right,0,76,97,1348.0,0.458333,ThirtySecond,E5
3028,Right,0,81,98,1348.5,0.958333,Sixteenth,A5
3029,Left,1,60,99,1349.5,0.458333,ThirtySecond,C4
3030,Right,0,76,99,1349.5,0.458333,ThirtySecond,E5
3032,Left,1,50,100,1350.0,2.458333,Eighth,D3
3031,Right,0,81,100,1350.0,0.958333,Sixteenth,A5
3033,Right,0,77,102,1351.0,0.458333,ThirtySecond,F5
3034,Right,0,81,103,1351.5,0.958333,Sixteenth,A5
3035,Right,0,71,104,1352.5,0.458333,ThirtySecond,B4
3036,Left,1,62,104,1352.5,0.458333,ThirtySecond,D4
3037,Left,1,51,105,1353.0,2.458333,Eighth,D#3
3038,Right,0,81,105,1353.0,0.958333,Sixteenth,A5
3039,Right,0,78,107,1354.0,0.458333,ThirtySecond,F#5
3040,Right,0,81,108,1354.5,0.958333,Sixteenth,A5
3042,Left,1,63,110,1355.5,0.458333,ThirtySecond,D#4
3041,Right,0,72,110,1355.5,1.458333,DottedSixteenth,C5
3044,Left,1,64,110,1356.0,3.958333,Quarter,E4
3043,Right,0,81,110,1356.0,0.958333,Sixteenth,A5
3045,Right,0,71,110,1357.0,0.458333,ThirtySecond,B4
3046,Right,0,81,110,1357.5,0.958333,Sixteenth,A5
3047,Right,0,80,110,1358.5,0.458333,ThirtySecond,G#5
3048,Right,0,74,123,1359.0,3.958333,Quarter,D5_B5
3050,Left,1,52,110,1360.0,0.458333,ThirtySecond,E3
3051,Left,1,53,110,1360.5,0.958333,Sixteenth,F3
3052,Left,1,52,110,1361.5,0.458333,ThirtySecond,E3
3053,Left,1,57,110,1362.0,3.958333,Quarter,A3
3054,Right,0,72,110,1363.0,0.458333,ThirtySecond,C5
3055,Right,0,83,110,1363.5,0.958333,Sixteenth,B5
3056,Right,0,81,110,1364.5,0.458333,ThirtySecond,A5
3057,Right,0,84,122,1365.0,3.958333,Quarter,E5_C6
3059,Left,1,45,110,1366.0,0.458333,ThirtySecond,A2
3060,Left,1,47,110,1366.5,0.958333,Sixteenth,B2
3061,Left,1,45,110,1367.5,0.458333,ThirtySecond,A2
3062,Left,1,43,124,1368.0,3.958333,Quarter,G2
3063,Right,0,74,110,1369.0,0.458333,ThirtySecond,D5
3064,Right,0,84,110,1369.5,0.958333,Sixteenth,C6
3065,Right,0,83,110,1370.5,0.458333,ThirtySecond,B5
3066,Right,0,77,121,1371.0,2.458333,Eighth,F5_D6
3068,Left,1,31,110,1372.0,0.458333,ThirtySecond,G1
3069,Left,1,32,110,1372.5,0.958333,Sixteenth,G#1
3071,Left,1,31,110,1373.5,1.458333,DottedSixteenth,G1
3070,Right,0,77,110,1373.5,0.458333,ThirtySecond,F5_D6
3073,Right,0,86,110,1374.0,2.458333,Eighth,G5_F5_D6_B5
3077,Left,1,35,110,1375.0,0.458333,ThirtySecond,B1
3078,Left,1,38,110,1375.5,0.958333,Sixteenth,D2
3083,Left,1,43,110,1376.5,0.458333,ThirtySecond,G2
3079,Right,0,86,110,1376.5,2.958333,DottedEighth,G5_F5_D6_B5
3084,Left,1,47,110,1377.0,0.958333,Sixteenth,B2
3085,Left,1,50,110,1378.0,0.458333,ThirtySecond,D3
3086,Left,1,54,110,1378.5,0.958333,Sixteenth,F#3
3087,Right,0,86,110,1379.5,1.458333,DottedSixteenth,G5_F5_D6_B5
3089,Left,1,55,110,1379.5,0.458333,ThirtySecond,G3
3092,Left,1,53,110,1380.0,2.458333,Eighth,G2_F3_D3_B2
3096,Right,0,83,110,1381.0,0.458333,ThirtySecond,B5
3097,Right,0,89,110,1381.5,0.958333,Sixteenth,F6
3098,Left,1,43,110,1382.5,2.958333,DottedEighth,G2_F3_D3_B2
3102,Right,0,86,110,1382.5,0.458333,ThirtySecond,D6
3103,Right,0,84,110,1383.0,0.958333,Sixteenth,C6
3104,Right,0,83,110,1384.0,0.458333,ThirtySecond,B5
3105,Right,0,86,110,1384.5,0.958333,Sixteenth,D6
3110,Right,0,83,110,1385.5,0.458333,ThirtySecond,B5
3106,Left,1,53,110,1385.5,2.958333,DottedEighth,G2_F3_D3_B2
3111,Right,0,79,110,1386.0,0.958333,Sixteenth,G5
3112,Right,0,77,110,1387.0,0.458333,ThirtySecond,F5
3113,Right,0,81,110,1387.5,0.958333,Sixteenth,A5
3114,Right,0,77,110,1388.5,0.458333,ThirtySecond,F5
3115,Left,1,50,110,1388.5,2.958333,DottedEighth,G2_F3_D3_B2
3119,Right,0,76,110,1389.0,0.958333,Sixteenth,E5
3120,Right,0,74,110,1390.0,0.458333,ThirtySecond,D5
3121,Right,0,77,110,1390.5,0.958333,Sixteenth,F5
3126,Right,0,74,110,1391.5,0.458333,ThirtySecond,D5
3122,Left,1,43,110,1391.5,0.458333,ThirtySecond,G2_F3_D3_B2
3127,Right,0,76,110,1392.0,2.458333,Eighth,G4_E5_C5
3130,Left,1,36,110,1392.0,0.958333,Sixteenth,C2
3131,Left,1,40,110,1393.0,0.458333,ThirtySecond,E2
3132,Left,1,43,110,1393.5,0.958333,Sixteenth,G2
3133,Left,1,47,110,1394.5,0.458333,ThirtySecond,B2
3134,Right,0,76,110,1394.5,2.958333,DottedEighth,G4_E5_C5
3137,Left,1,48,110,1395.0,0.958333,Sixteenth,C3
3138,Left,1,52,110,1396.0,0.458333,ThirtySecond,E3
3139,Left,1,55,110,1396.5,0.958333,Sixteenth,G3
3143,Left,1,59,110,1397.5,0.458333,ThirtySecond,B3
3140,Right,0,67,110,1397.5,1.458333,DottedSixteenth,G4_E5_C5
3144,Left,1,60,110,1398.0,0.958333,Sixteenth,C4
3145,Right,0,71,110,1399.0,0.458333,ThirtySecond,G4_B4
3147,Left,1,65,110,1399.0,0.458333,ThirtySecond,F4
3148,Left,1,64,110,1399.5,0.958333,Sixteenth,E4
3149,Right,0,69,110,1399.5,0.958333,Sixteenth,C5_A4
3153,Left,1,62,110,1400.5,0.458333,ThirtySecond,D4
3151,Right,0,74,110,1400.5,0.458333,ThirtySecond,D5_B4
3155,Right,0,67,124,1401.0,3.958333,Sixteenth,G4_E5
3154,Left,1,60,110,1401.0,0.958333,Sixteenth,C4
3158,Right,0,64,110,1402.0,0.458333,ThirtySecond,E4
3157,Left,1,36,110,1402.0,0.458333,ThirtySecond,C2
3160,Right,0,65,110,1402.5,0.958333,Sixteenth,F4
3159,Left,1,38,110,1402.5,0.958333,Sixteenth,D2
3161,Left,1,40,110,1403.5,0.458333,ThirtySecond,E2
3162,Right,0,67,110,1403.5,0.458333,ThirtySecond,G4
3163,Left,1,41,122,1404.0,0.958333,Sixteenth,F2
3164,Right,0,69,123,1404.0,3.958333,Quarter,A4
3166,Left,1,55,110,1405.0,0.458333,ThirtySecond,G3
3165,Right,0,73,110,1405.0,0.458333,ThirtySecond,C#5
3167,Left,1,53,110,1405.5,0.958333,Sixteenth,F3
3168,Right,0,74,110,1405.5,0.958333,Sixteenth,D5
3169,Left,1,52,110,1406.5,0.458333,ThirtySecond,E3
3170,Right,0,76,110,1406.5,0.458333,ThirtySecond,E5
3172,Right,0,77,127,1407.0,3.958333,Quarter,F5
3171,Left,1,50,123,1407.0,0.958333,Sixteenth,D3
3174,Left,1,38,110,1408.0,0.458333,ThirtySecond,D2
3173,Right,0,65,110,1408.0,0.458333,ThirtySecond,F4
3175,Left,1,40,110,1408.5,0.958333,Sixteenth,E2
3176,Right,0,67,110,1408.5,0.958333,Sixteenth,G4
3178,Left,1,41,110,1409.5,0.458333,ThirtySecond,F2
3177,Right,0,69,110,1409.5,0.458333,ThirtySecond,A4
3180,Left,1,43,124,1410.0,2.958333,DottedEighth,G2
3179,Right,0,71,122,1410.0,0.958333,Sixteenth,B4
3181,Right,0,70,110,1411.0,0.458333,ThirtySecond,C#5_A#4
3183,Right,0,71,110,1411.5,0.958333,Sixteenth,D5_B4
3185,Right,0,72,110,1412.5,0.458333,ThirtySecond,E5_C5
3189,Left,1,55,110,1413.0,0.958333,Sixteenth,G3
3187,Right,0,74,123,1413.0,3.958333,Quarter,D5_B4
3190,Left,1,54,110,1414.0,0.458333,ThirtySecond,F#3
3191,Left,1,55,110,1414.5,0.958333,Sixteenth,G3
3192,Left,1,57,110,1415.5,0.458333,ThirtySecond,A3
3194,Right,0,67,110,1416.0,3.958333,Quarter,G4
3193,Left,1,59,122,1416.0,3.958333,Quarter,B3
3195,Right,0,73,110,1417.0,0.458333,ThirtySecond,C#5
3196,Right,0,74,110,1417.5,0.958333,Sixteenth,D5
3197,Right,0,76,110,1418.5,0.458333,ThirtySecond,E5
3198,Right,0,74,123,1419.0,3.958333,Quarter,D5
3199,Right,0,69,110,1420.0,0.458333,ThirtySecond,A4
3200,Left,1,60,110,1420.0,0.458333,ThirtySecond,C4
3201,Right,0,71,110,1420.5,0.958333,Sixteenth,B4
3202,Left,1,62,110,1420.5,0.958333,Sixteenth,D4
3203,Right,0,72,110,1421.5,0.458333,ThirtySecond,C5
3204,Left,1,64,110,1421.5,0.458333,ThirtySecond,E4
3205,Right,0,71,110,1422.0,2.958333,DottedEighth,B4
3206,Left,1,65,110,1422.0,0.958333,Sixteenth,F4
3207,Right,0,76,110,1423.0,0.458333,ThirtySecond,E5
3208,Left,1,64,110,1423.0,0.458333,ThirtySecond,E4
3209,Left,1,62,110,1423.5,0.958333,Sixteenth,D4
3210,Right,0,77,110,1423.5,0.958333,Sixteenth,F5
3211,Left,1,60,110,1424.5,0.458333,ThirtySecond,C4
3212,Right,0,78,110,1424.5,0.458333,ThirtySecond,F#5
3213,Left,1,59,110,1425.0,0.958333,Sixteenth,B3
3214,Right,0,79,124,1425.0,3.958333,Quarter,G5
3216,Right,0,76,110,1426.0,0.458333,ThirtySecond,E5
3215,Left,1,60,110,1426.0,0.458333,ThirtySecond,C4
3218,Right,0,74,110,1426.5,0.958333,Sixteenth,D5
3217,Left,1,59,110,1426.5,0.958333,Sixteenth,B3
3220,Right,0,72,110,1427.5,0.458333,ThirtySecond,C5
3219,Left,1,57,110,1427.5,0.458333,ThirtySecond,A3
3221,Right,0,74,110,1428.0,0.958333,Sixteenth,D5
3222,Left,1,59,110,1428.0,0.958333,Sixteenth,B3
3223,Right,0,74,110,1429.0,1.458333,DottedSixteenth,D5_A5
3225,Left,1,59,110,1429.0,1.458333,DottedSixteenth,B3
3226,Right,0,79,110,1429.5,0.958333,Sixteenth,G5
3227,Left,1,59,110,1430.5,1.458333,DottedSixteenth,B3
3228,Right,0,74,110,1430.5,1.458333,DottedSixteenth,D5_A5
3230,Right,0,79,110,1431.0,0.958333,Sixteenth,G5
3231,Right,0,74,110,1432.0,1.458333,ThirtySecond,G4_F5_D5
3232,Left,1,59,110,1432.0,0.458333,ThirtySecond,B3
3235,Left,1,60,110,1432.5,0.958333,Sixteenth,C4
3236,Right,0,76,110,1432.5,0.958333,Sixteenth,E5
3237,Left,1,59,110,1433.5,0.458333,ThirtySecond,B3
3238,Right,0,67,110,1433.5,1.458333,ThirtySecond,G4_F5_D5
3241,Right,0,76,80,1434.0,0.958333,Sixteenth,E5
3242,Left,1,60,80,1434.0,0.958333,Sixteenth,C4
3243,Left,1,45,80,1435.0,0.458333,ThirtySecond,A2
3244,Right,0,59,80,1435.5,0.958333,Sixteenth,E4_B3
3245,Left,1,43,80,1435.5,0.958333,Sixteenth,G2
3247,Left,1,41,80,1436.5,0.458333,ThirtySecond,F2
3248,Right,0,60,80,1437.0,2.958333,DottedEighth,G3_C4
3249,Left,1,40,80,1437.0,0.958333,Sixteenth,E2
3251,Left,1,41,80,1438.0,0.458333,ThirtySecond,F2
3252,Right,0,57,80,1438.0,0.458333,ThirtySecond,A3
3254,Right,0,55,80,1438.5,0.958333,Sixteenth,G3
3253,Left,1,40,80,1438.5,0.958333,Sixteenth,E2
3255,Right,0,53,80,1439.5,0.458333,ThirtySecond,F3
3256,Left,1,38,80,1439.5,0.458333,ThirtySecond,D2
3257,Right,0,60,70,1440.0,2.958333,DottedEighth,E3_C4
3259,Left,1,36,70,1440.0,0.958333,Sixteenth,C2
3260,Left,1,43,70,1441.0,0.958333,Sixteenth,G2
3261,Left,1,36,70,1442.0,0.958333,Sixteenth,C2
3262,Right,0,55,70,1443.0,5.958333,DottedQuarter,G3_E3_C4
3265,Left,1,43,70,1443.0,0.958333,Sixteenth,G2
3266,Left,1,36,70,1444.0,0.958333,Sixteenth,C2
3267,Left,1,43,70,1445.0,0.958333,Sixteenth,G2
3268,Left,1,36,70,1446.0,0.958333,Sixteenth,C2
3269,Left,1,43,70,1447.0,0.958333,Sixteenth,G2
3270,Left,1,36,70,1448.0,0.958333,Sixteenth,C2
3271,Left,1,43,70,1449.0,0.958333,Sixteenth,G2
3272,Left,1,36,70,1450.0,0.958333,Sixteenth,C2
3273,Left,1,43,70,1451.0,0.958333,Sixteenth,G2
3278,Left,1,36,70,1452.0,0.958333,Sixteenth,C2
3274,Right,0,55,70,1452.0,5.958333,DottedQuarter,G3_F3_D3_B2
3279,Left,1,43,70,1453.0,0.958333,Sixteenth,G2
3280,Left,1,36,70,1454.0,0.958333,Sixteenth,C2
3281,Left,1,43,70,1455.0,0.958333,Sixteenth,G2
3282,Left,1,36,70,1456.0,0.958333,Sixteenth,C2
3283,Left,1,43,70,1457.0,0.958333,Sixteenth,G2
3284,Left,1,36,70,1458.0,0.958333,Sixteenth,C2
3285,Left,1,43,70,1459.0,0.958333,Sixteenth,G2
3286,Left,1,36,70,1460.0,0.958333,Sixteenth,C2
3291,Left,1,43,70,1461.0,0.958333,Sixteenth,G2
3287,Right,0,55,70,1461.0,5.958333,DottedQuarter,G3_F3_D3_B2
3292,Left,1,36,70,1462.0,0.958333,Sixteenth,C2
3293,Left,1,43,70,1463.0,0.958333,Sixteenth,G2
3294,Left,1,36,70,1464.0,0.958333,Sixteenth,C2
3295,Left,1,43,70,1465.0,0.958333,Sixteenth,G2
3296,Left,1,36,70,1466.0,0.958333,Sixteenth,C2
3297,Left,1,43,70,1467.0,0.958333,Sixteenth,G2
3298,Left,1,36,70,1468.0,0.958333,Sixteenth,C2
3299,Left,1,43,70,1469.0,0.958333,Sixteenth,G2
3300,Right,0,55,70,1470.0,5.958333,DottedQuarter,G3_F3_D4_B3
3303,Left,1,36,70,1470.0,0.958333,Sixteenth,C2
3305,Left,1,43,70,1471.0,0.958333,Sixteenth,G2
3306,Left,1,36,70,1472.0,0.958333,Sixteenth,C2
3307,Left,1,43,70,1473.0,0.958333,Sixteenth,G2
3308,Left,1,36,70,1474.0,0.958333,Sixteenth,C2
3309,Left,1,43,70,1475.0,0.958333,Sixteenth,G2
3310,Left,1,36,70,1476.0,0.958333,Sixteenth,C2
3311,Left,1,43,71,1477.0,0.958333,Sixteenth,G2
3312,Left,1,36,72,1478.0,0.958333,Sixteenth,C2
3313,Right,0,53,73,1479.0,5.958333,DottedEighth,G3_F3_D3
3316,Left,1,43,73,1479.0,0.958333,Sixteenth,G2
3317,Left,1,36,74,1480.0,0.958333,Sixteenth,C2
3318,Left,1,43,76,1481.0,0.958333,Sixteenth,G2
3319,Right,0,52,66,1482.0,2.958333,DottedEighth,E3_C3
3321,Left,1,36,77,1482.0,0.958333,Sixteenth,C2
3322,Left,1,43,78,1483.0,0.958333,Sixteenth,G2
3323,Left,1,36,79,1484.0,0.958333,Sixteenth,C2
3324,Left,1,43,80,1485.0,0.958333,Sixteenth,G2
3325,Left,1,36,80,1486.0,0.958333,Sixteenth,C2
3326,Left,1,43,80,1487.0,0.958333,Sixteenth,G2
3327,Left,1,36,80,1488.0,0.958333,Sixteenth,C2
3328,Right,0,55,80,1488.0,5.958333,DottedQuarter,G3_E3_C3
3331,Left,1,43,80,1489.0,0.958333,Sixteenth,G2
3332,Left,1,36,80,1490.0,0.958333,Sixteenth,C2
3333,Left,1,43,80,1491.0,0.958333,Sixteenth,G2
3334,Left,1,36,80,1492.0,0.958333,Sixteenth,C2
3335,Left,1,43,80,1493.0,0.958333,Sixteenth,G2
3336,Left,1,36,80,1494.0,0.958333,Sixteenth,C2
3337,Left,1,43,80,1495.0,0.958333,Sixteenth,G2
3338,Left,1,36,80,1496.0,0.958333,Sixteenth,C2
3339,Right,0,55,80,1497.0,5.958333,DottedQuarter,G3_F3_D3
3340,Left,1,43,80,1497.0,0.958333,Sixteenth,G2
3343,Left,1,36,80,1498.0,0.958333,Sixteenth,C2
3344,Left,1,43,80,1499.0,0.958333,Sixteenth,G2
3345,Left,1,36,80,1500.0,0.958333,Sixteenth,C2
3346,Left,1,43,80,1501.0,0.958333,Sixteenth,G2
3347,Left,1,36,80,1502.0,0.958333,Sixteenth,C2
3348,Left,1,43,80,1503.0,0.958333,Sixteenth,G2
3349,Left,1,36,80,1504.0,0.958333,Sixteenth,C2
3350,Left,1,43,80,1505.0,0.958333,Sixteenth,G2
3351,Right,0,51,80,1506.0,5.958333,DottedEighth,G3_F#3_D#3
3354,Left,1,36,80,1506.0,0.958333,Sixteenth,C2
3355,Left,1,43,80,1507.0,0.958333,Sixteenth,G2
3356,Left,1,36,80,1508.0,0.958333,Sixteenth,C2
3357,Right,0,52,70,1509.0,2.958333,DottedEighth,E3
3358,Left,1,43,80,1509.0,0.958333,Sixteenth,G2
3359,Left,1,36,80,1510.0,0.958333,Sixteenth,C2
3360,Left,1,43,80,1511.0,0.958333,Sixteenth,G2
3361,Left,1,36,80,1512.0,0.958333,Sixteenth,C2
3362,Left,1,43,80,1513.0,0.958333,Sixteenth,G2
3363,Left,1,36,80,1514.0,0.958333,Sixteenth,C2
3367,Left,1,43,80,1515.0,0.958333,Sixteenth,G2
3364,Right,0,52,80,1515.0,5.958333,DottedQuarter,G3_E4_E3
3368,Left,1,36,80,1516.0,0.958333,Sixteenth,C2
3369,Left,1,43,80,1517.0,0.958333,Sixteenth,G2
3370,Left,1,36,80,1518.0,0.958333,Sixteenth,C2
3371,Left,1,43,80,1519.0,0.958333,Sixteenth,G2
3372,Left,1,36,80,1520.0,0.958333,Sixteenth,C2
3373,Left,1,43,80,1521.0,0.958333,Sixteenth,G2
3374,Left,1,36,80,1522.0,0.958333,Sixteenth,C2
3375,Left,1,43,80,1523.0,0.958333,Sixteenth,G2
3376,Right,0,60,80,1524.0,5.958333,DottedQuarter,F#3_D#3_C4_A3
3378,Left,1,36,80,1524.0,0.958333,Sixteenth,C2
3381,Left,1,43,80,1525.0,0.958333,Sixteenth,G2
3382,Left,1,36,80,1526.0,0.958333,Sixteenth,C2
3383,Left,1,43,80,1527.0,0.958333,Sixteenth,G2
3384,Left,1,36,80,1528.0,0.958333,Sixteenth,C2
3385,Left,1,43,80,1529.0,0.958333,Sixteenth,G2
3386,Left,1,36,80,1530.0,0.958333,Sixteenth,C2
3387,Left,1,43,80,1531.0,0.958333,Sixteenth,G2
3388,Left,1,36,80,1532.0,0.958333,Sixteenth,C2
3390,Right,0,60,80,1533.0,5.958333,DottedQuarter,G#3_F3_D3_C4
3389,Left,1,43,80,1533.0,0.958333,Sixteenth,G2
3394,Left,1,36,80,1534.0,0.958333,Sixteenth,C2
3395,Left,1,43,80,1535.0,0.958333,Sixteenth,G2
3396,Left,1,36,80,1536.0,0.958333,Sixteenth,C2
3397,Left,1,43,80,1537.0,0.958333,Sixteenth,G2
3398,Left,1,36,80,1538.0,0.958333,Sixteenth,C2
3399,Left,1,43,80,1539.0,0.958333,Sixteenth,G2
3400,Left,1,36,80,1540.0,0.958333,Sixteenth,C2
3401,Left,1,43,80,1541.0,0.958333,Sixteenth,G2
3402,Right,0,50,80,1542.0,5.958333,DottedQuarter,F3_D3_B3_A3
3406,Left,1,36,80,1542.0,0.958333,Sixteenth,C2
3407,Left,1,43,80,1543.0,0.958333,Sixteenth,G2
3408,Left,1,36,80,1544.0,0.958333,Sixteenth,C2
3409,Left,1,43,80,1545.0,0.958333,Sixteenth,G2
3410,Left,1,36,80,1546.0,0.958333,Sixteenth,C2
3411,Left,1,43,80,1547.0,0.958333,Sixteenth,G2
3412,Left,1,36,80,1548.0,0.958333,Sixteenth,C2
3413,Left,1,43,80,1549.0,0.958333,Sixteenth,G2
3414,Left,1,36,80,1550.0,0.958333,Sixteenth,C2
3416,Right,0,50,80,1551.0,5.958333,DottedQuarter,G3_F3_D3_B3
3415,Left,1,43,80,1551.0,0.958333,Sixteenth,G2
3420,Left,1,36,80,1552.0,0.958333,Sixteenth,C2
3421,Left,1,43,80,1553.0,0.958333,Sixteenth,G2
3422,Left,1,36,80,1554.0,0.958333,Sixteenth,C2
3423,Left,1,43,80,1555.0,0.958333,Sixteenth,G2
3424,Left,1,36,80,1556.0,0.958333,Sixteenth,C2
3425,Left,1,43,80,1557.0,0.958333,Sixteenth,G2
3426,Left,1,36,80,1558.0,0.958333,Sixteenth,C2
3427,Left,1,43,80,1559.0,0.958333,Sixteenth,G2
3431,Left,1,36,80,1560.0,0.958333,Sixteenth,C2
3428,Right,0,60,80,1560.0,5.958333,DottedEighth,F#3_D#3_C4
3432,Left,1,43,80,1561.0,0.958333,Sixteenth,G2
3433,Left,1,36,80,1562.0,0.958333,Sixteenth,C2
3434,Left,1,43,80,1563.0,0.958333,Sixteenth,G2
3435,Right,0,52,70,1563.0,2.958333,DottedEighth,G3_E3
3437,Left,1,36,80,1564.0,0.958333,Sixteenth,C2
3438,Left,1,43,80,1565.0,0.958333,Sixteenth,G2
3439,Left,1,36,80,1566.0,0.958333,Sixteenth,C2
3440,Left,1,43,80,1567.0,0.958333,Sixteenth,G2
3441,Left,1,36,80,1568.0,0.958333,Sixteenth,C2
3445,Left,1,43,80,1569.0,0.958333,Sixteenth,G2
3442,Right,0,59,80,1569.0,5.958333,DottedQuarter,G3_E4_B3
3446,Left,1,36,80,1570.0,0.958333,Sixteenth,C2
3447,Left,1,43,80,1571.0,0.958333,Sixteenth,G2
3448,Right,0,60,70,1572.0,2.958333,DottedEighth,C4
3449,Left,1,36,80,1572.0,0.958333,Sixteenth,C2
3450,Left,1,43,80,1573.0,0.958333,Sixteenth,G2
3451,Left,1,36,80,1574.0,0.958333,Sixteenth,C2
3452,Left,1,43,80,1575.0,0.958333,Sixteenth,G2
3453,Left,1,36,80,1576.0,0.958333,Sixteenth,C2
3454,Left,1,43,80,1577.0,0.958333,Sixteenth,G2
3458,Left,1,36,80,1578.0,0.958333,Sixteenth,C2
3455,Right,0,64,80,1578.0,5.958333,DottedQuarter,G4_E4_C#4_A#3
3460,Left,1,43,80,1579.0,0.958333,Sixteenth,G2
3461,Left,1,36,80,1580.0,0.958333,Sixteenth,C2
3462,Left,1,43,80,1581.0,0.958333,Sixteenth,G2
3463,Left,1,36,80,1582.0,0.958333,Sixteenth,C2
3464,Left,1,43,80,1583.0,0.958333,Sixteenth,G2
3465,Left,1,36,80,1584.0,0.958333,Sixteenth,C2
3466,Left,1,43,80,1585.0,0.958333,Sixteenth,G2
3467,Left,1,36,80,1586.0,0.958333,Sixteenth,C2
3468,Left,1,43,80,1587.0,0.958333,Sixteenth,G2
3469,Right,0,67,80,1587.0,5.958333,DottedQuarter,G4_E4_C#4_A#3
3473,Left,1,36,80,1588.0,0.958333,Sixteenth,C2
3474,Left,1,43,80,1589.0,0.958333,Sixteenth,G2
3475,Left,1,36,80,1590.0,0.958333,Sixteenth,C2
3476,Left,1,43,80,1591.0,0.958333,Sixteenth,G2
3477,Left,1,36,80,1592.0,0.958333,Sixteenth,C2
3478,Left,1,45,80,1593.0,0.958333,Sixteenth,A2
3479,Left,1,36,80,1594.0,0.958333,Sixteenth,C2
3480,Left,1,45,80,1595.0,0.958333,Sixteenth,A2
3484,Left,1,36,80,1596.0,0.958333,Sixteenth,C2
3481,Right,0,53,80,1596.0,5.958333,DottedQuarter,F4_F3_C4
3485,Left,1,45,80,1597.0,0.958333,Sixteenth,A2
3486,Left,1,36,80,1598.0,0.958333,Sixteenth,C2
3487,Left,1,45,80,1599.0,0.958333,Sixteenth,A2
3488,Left,1,36,80,1600.0,0.958333,Sixteenth,C2
3489,Left,1,45,80,1601.0,0.958333,Sixteenth,A2
3490,Left,1,36,80,1602.0,0.958333,Sixteenth,C2
3491,Left,1,47,80,1603.0,0.958333,Sixteenth,B2
3492,Left,1,36,80,1604.0,0.958333,Sixteenth,C2
3493,Right,0,62,80,1605.0,5.958333,DottedQuarter,G#3_F3_D4
3494,Left,1,47,80,1605.0,0.958333,Sixteenth,B2
3497,Left,1,36,80,1606.0,0.958333,Sixteenth,C2
3498,Left,1,47,80,1607.0,0.958333,Sixteenth,B2
3499,Left,1,36,80,1608.0,0.958333,Sixteenth,C2
3500,Left,1,47,80,1609.0,0.958333,Sixteenth,B2
3501,Left,1,36,80,1610.0,0.958333,Sixteenth,C2
3502,Left,1,50,80,1611.0,0.958333,Sixteenth,D3
3503,Left,1,36,80,1612.0,0.958333,Sixteenth,C2
3504,Left,1,50,80,1613.0,0.958333,Sixteenth,D3
3506,Right,0,56,80,1614.0,5.958333,DottedQuarter,G#3_F3_B3
3505,Left,1,36,80,1614.0,0.958333,Sixteenth,C2
3509,Left,1,50,80,1615.0,0.958333,Sixteenth,D3
3510,Left,1,36,80,1616.0,0.958333,Sixteenth,C2
3511,Left,1,50,80,1617.0,0.958333,Sixteenth,D3
3512,Right,0,55,70,1617.0,2.958333,DottedEighth,G3
3513,Left,1,36,80,1618.0,0.958333,Sixteenth,C2
3514,Left,1,50,80,1619.0,0.958333,Sixteenth,D3
3515,Left,1,36,80,1620.0,0.958333,Sixteenth,C2
3516,Left,1,48,80,1621.0,0.958333,Sixteenth,C3
3517,Left,1,36,80,1622.0,0.958333,Sixteenth,C2
3519,Right,0,53,80,1623.0,5.958333,DottedQuarter,G3_F3_C4
3518,Left,1,48,80,1623.0,0.958333,Sixteenth,C3
3522,Left,1,36,80,1624.0,0.958333,Sixteenth,C2
3523,Left,1,48,80,1625.0,0.958333,Sixteenth,C3
3525,Left,1,36,80,1626.0,0.958333,Sixteenth,C2
3524,Right,0,52,70,1626.0,2.958333,DottedEighth,E3
3526,Left,1,48,80,1627.0,0.958333,Sixteenth,C3
3527,Left,1,36,80,1628.0,0.958333,Sixteenth,C2
3528,Left,1,47,80,1629.0,0.958333,Sixteenth,B2
3529,Left,1,36,80,1630.0,0.958333,Sixteenth,C2
3530,Left,1,47,80,1631.0,0.958333,Sixteenth,B2
3534,Left,1,36,80,1632.0,0.958333,Sixteenth,C2
3531,Right,0,62,80,1632.0,5.958333,DottedEighth,G3_F3_D4
3535,Left,1,47,80,1633.0,0.958333,Sixteenth,B2
3536,Left,1,36,80,1634.0,0.958333,Sixteenth,C2
3539,Left,1,47,80,1635.0,0.958333,Sixteenth,B2
3537,Right,0,55,70,1635.0,2.958333,DottedEighth,G3_D3
3540,Left,1,36,80,1636.0,0.958333,Sixteenth,C2
3541,Left,1,47,80,1637.0,0.958333,Sixteenth,B2
3542,Left,1,47,80,1638.0,0.291667,TripletThirtySecond,B2
3543,Right,0,55,80,1638.0,0.291667,TripletThirtySecond,G3
3545,Left,1,48,80,1638.333333,0.291667,TripletThirtySecond,C3
3544,Right,0,57,80,1638.333333,0.291667,TripletThirtySecond,A3
3546,Left,1,50,80,1638.666667,0.291667,TripletThirtySecond,D3
3547,Right,0,59,80,1638.666667,0.291667,TripletThirtySecond,B3
3548,Left,1,52,80,1639.0,0.291667,TripletThirtySecond,E3
3549,Right,0,60,80,1639.0,0.291667,TripletThirtySecond,C4
3550,Right,0,62,80,1639.333333,0.291667,TripletThirtySecond,D4
3551,Left,1,53,80,1639.333333,0.291667,TripletThirtySecond,F3
3552,Right,0,64,80,1639.666667,0.291667,TripletThirtySecond,E4
3553,Left,1,55,80,1639.666667,0.291667,TripletThirtySecond,G3
3554,Right,0,65,80,1640.0,0.291667,TripletThirtySecond,F4
3555,Left,1,57,80,1640.0,0.291667,TripletThirtySecond,A3
3556,Right,0,67,80,1640.333333,0.291667,TripletThirtySecond,G4
3557,Left,1,59,80,1640.333333,0.291667,TripletThirtySecond,B3
3558,Right,0,69,80,1640.666667,0.291667,TripletThirtySecond,A4
3559,Left,1,60,80,1640.666667,0.291667,TripletThirtySecond,C4
3561,Right,0,71,80,1641.0,0.291667,TripletThirtySecond,B4
3560,Left,1,62,80,1641.0,0.291667,TripletThirtySecond,D4
3562,Right,0,72,80,1641.333333,0.291667,TripletThirtySecond,C5
3563,Left,1,64,80,1641.333333,0.291667,TripletThirtySecond,E4
3564,Right,0,74,80,1641.666667,0.291667,TripletThirtySecond,D5
3565,Left,1,65,80,1641.666667,0.291667,TripletThirtySecond,F4
3566,Left,1,67,80,1642.0,0.291667,TripletThirtySecond,G4
3567,Right,0,76,80,1642.0,0.291667,TripletThirtySecond,E5
3569,Left,1,69,80,1642.333333,0.291667,TripletThirtySecond,A4
3568,Right,0,77,80,1642.333333,0.291667,TripletThirtySecond,F5
3570,Right,0,79,80,1642.666667,0.291667,TripletThirtySecond,G5
3571,Left,1,71,80,1642.666667,0.291667,TripletThirtySecond,B4
3572,Left,1,72,80,1643.0,0.291667,TripletThirtySecond,C5
3573,Right,0,81,80,1643.0,0.291667,TripletThirtySecond,A5
3574,Left,1,76,80,1643.333333,0.291667,TripletThirtySecond,E5
3575,Right,0,79,80,1643.333333,0.291667,TripletThirtySecond,G5
3577,Left,1,74,80,1643.666667,0.291667,TripletThirtySecond,D5
3576,Right,0,83,80,1643.666667,0.291667,TripletThirtySecond,B5
3578,Left,1,76,70,1644.0,0.958333,Sixteenth,E5
3579,Right,0,84,70,1644.0,0.291667,TripletThirtySecond,C6
3580,Right,0,86,70,1644.333333,0.291667,TripletThirtySecond,D6
3581,Right,0,84,70,1644.666667,0.291667,TripletThirtySecond,C6
3583,Left,1,76,70,1645.0,0.958333,Sixteenth,E5
3582,Right,0,83,70,1645.0,0.291667,TripletThirtySecond,B5
3584,Right,0,84,70,1645.333333,0.291667,TripletThirtySecond,C6
3585,Right,0,83,70,1645.666667,0.291667,TripletThirtySecond,B5
3586,Right,0,84,70,1646.0,0.291667,TripletThirtySecond,C6
3587,Left,1,76,70,1646.0,0.958333,Sixteenth,E5
3588,Right,0,86,70,1646.333333,0.291667,TripletThirtySecond,D6
3589,Right,0,84,70,1646.666667,0.291667,TripletThirtySecond,C6
3591,Right,0,79,70,1647.0,0.291667,TripletThirtySecond,G5
3590,Left,1,76,70,1647.0,0.958333,Sixteenth,E5
3592,Right,0,81,70,1647.333333,0.291667,TripletThirtySecond,A5
3593,Right,0,79,70,1647.666667,0.291667,TripletThirtySecond,G5
3594,Right,0,78,70,1648.0,0.291667,TripletThirtySecond,F#5
3595,Left,1,75,70,1648.0,0.958333,Sixteenth,D#5
3596,Right,0,79,70,1648.333333,0.291667,TripletThirtySecond,G5
3597,Right,0,78,70,1648.666667,0.291667,TripletThirtySecond,F#5
3598,Left,1,76,70,1649.0,0.958333,Sixteenth,E5
3599,Right,0,79,70,1649.0,0.291667,TripletThirtySecond,G5
3600,Right,0,81,70,1649.333333,0.291667,TripletThirtySecond,A5
3601,Right,0,79,70,1649.666667,0.291667,TripletThirtySecond,G5
3603,Right,0,78,70,1650.0,0.291667,TripletThirtySecond,F#5
3602,Left,1,74,70,1650.0,0.958333,Sixteenth,D5
3604,Right,0,79,70,1650.333333,0.291667,TripletThirtySecond,G5
3605,Right,0,78,70,1650.666667,0.291667,TripletThirtySecond,F#5
3606,Right,0,79,70,1651.0,0.291667,TripletThirtySecond,G5
3607,Left,1,76,70,1651.0,0.958333,Sixteenth,E5
3608,Right,0,81,70,1651.333333,0.291667,TripletThirtySecond,A5
3609,Right,0,79,70,1651.666667,0.291667,TripletThirtySecond,G5
3611,Left,1,79,70,1652.0,0.958333,Sixteenth,G5_E5
3610,Right,0,85,70,1652.0,0.291667,TripletThirtySecond,C#6
3613,Right,0,86,70,1652.333333,0.291667,TripletThirtySecond,D6
3614,Right,0,85,70,1652.666667,0.291667,TripletThirtySecond,C#6
3617,Right,0,86,70,1653.0,0.291667,TripletThirtySecond,D6
3615,Left,1,79,70,1653.0,0.958333,Sixteenth,G5_F5
3618,Right,0,88,70,1653.333333,0.291667,TripletThirtySecond,E6
3619,Right,0,86,70,1653.666667,0.291667,TripletThirtySecond,D6
3620,Left,1,79,70,1654.0,0.958333,Sixteenth,G5_E5
3622,Right,0,85,70,1654.0,0.291667,TripletThirtySecond,C#6
3623,Right,0,86,70,1654.333333,0.291667,TripletThirtySecond,D6
3624,Right,0,85,70,1654.666667,0.291667,TripletThirtySecond,C#6
3625,Right,0,86,70,1655.0,0.291667,TripletThirtySecond,D6
3626,Left,1,77,70,1655.0,0.958333,Sixteenth,G5_F5
3628,Right,0,88,70,1655.333333,0.291667,TripletThirtySecond,E6
3629,Right,0,86,70,1655.666667,0.291667,TripletThirtySecond,D6
3630,Right,0,85,70,1656.0,0.291667,TripletThirtySecond,C#6
3631,Left,1,76,70,1656.0,0.958333,Sixteenth,G5_E5
3633,Right,0,86,70,1656.333333,0.291667,TripletThirtySecond,D6
3634,Right,0,85,70,1656.666667,0.291667,TripletThirtySecond,C#6
3635,Left,1,77,70,1657.0,0.958333,Sixteenth,G5_F5
3637,Right,0,86,70,1657.0,0.291667,TripletThirtySecond,D6
3638,Right,0,88,70,1657.333333,0.291667,TripletThirtySecond,E6
3639,Right,0,86,70,1657.666667,0.291667,TripletThirtySecond,D6
3642,Right,0,79,70,1658.0,0.291667,TripletThirtySecond,G5
3640,Left,1,71,70,1658.0,0.958333,Sixteenth,F5_B4
3643,Right,0,81,70,1658.333333,0.291667,TripletThirtySecond,A5
3644,Right,0,79,70,1658.666667,0.291667,TripletThirtySecond,G5
3645,Left,1,72,70,1659.0,0.958333,Sixteenth,F5_C5
3646,Right,0,81,70,1659.0,0.291667,TripletThirtySecond,A5
3648,Right,0,83,70,1659.333333,0.291667,TripletThirtySecond,B5
3649,Right,0,81,70,1659.666667,0.291667,TripletThirtySecond,A5
3651,Right,0,79,70,1660.0,0.291667,TripletThirtySecond,G5
3650,Left,1,71,70,1660.0,0.958333,Sixteenth,F5_B4
3653,Right,0,81,70,1660.333333,0.291667,TripletThirtySecond,A5
3654,Right,0,79,70,1660.666667,0.291667,TripletThirtySecond,G5
3655,Left,1,77,70,1661.0,0.958333,Sixteenth,F5_D5
3657,Right,0,83,70,1661.0,0.291667,TripletThirtySecond,B5
3658,Right,0,84,70,1661.333333,0.291667,TripletThirtySecond,C6
3659,Right,0,83,70,1661.666667,0.291667,TripletThirtySecond,B5
3660,Left,1,79,70,1662.0,0.958333,Sixteenth,G5_E5
3662,Right,0,84,70,1662.0,0.291667,TripletThirtySecond,C6
3663,Right,0,86,70,1662.333333,0.291667,TripletThirtySecond,D6
3664,Right,0,84,70,1662.666667,0.291667,TripletThirtySecond,C6
3665,Left,1,77,70,1663.0,0.958333,Sixteenth,G5_F5
3666,Right,0,86,70,1663.0,0.291667,TripletThirtySecond,D6
3668,Right,0,88,70,1663.333333,0.291667,TripletThirtySecond,E6
3669,Right,0,86,70,1663.666667,0.291667,TripletThirtySecond,D6
3672,Right,0,87,70,1664.0,0.291667,TripletThirtySecond,D#6
3670,Left,1,79,70,1664.0,0.958333,Sixteenth,G5_F#5
3673,Right,0,88,70,1664.333333,0.291667,TripletThirtySecond,E6
3674,Right,0,87,70,1664.666667,0.291667,TripletThirtySecond,D#6
3675,Left,1,79,70,1665.0,0.291667,TripletThirtySecond,G5
3676,Right,0,88,70,1665.0,0.291667,TripletThirtySecond,E6
3677,Left,1,77,70,1665.333333,0.291667,TripletThirtySecond,F5
3678,Right,0,81,70,1665.333333,0.291667,TripletThirtySecond,A5
3680,Left,1,76,70,1665.666667,0.291667,TripletThirtySecond,E5
3679,Right,0,79,70,1665.666667,0.291667,TripletThirtySecond,G5
3682,Right,0,78,70,1666.0,0.291667,TripletThirtySecond,F#5
3681,Left,1,75,70,1666.0,0.291667,TripletThirtySecond,D#5
3684,Left,1,77,70,1666.333333,0.291667,TripletThirtySecond,F5
3683,Right,0,81,70,1666.333333,0.291667,TripletThirtySecond,A5
3686,Left,1,76,70,1666.666667,0.291667,TripletThirtySecond,E5
3685,Right,0,79,70,1666.666667,0.291667,TripletThirtySecond,G5
3687,Right,0,78,70,1667.0,0.291667,TripletThirtySecond,F#5
3688,Left,1,75,70,1667.0,0.291667,TripletThirtySecond,D#5
3689,Left,1,77,70,1667.333333,0.291667,TripletThirtySecond,F5
3690,Right,0,81,70,1667.333333,0.291667,TripletThirtySecond,A5
3692,Left,1,76,70,1667.666667,0.291667,TripletThirtySecond,E5
3691,Right,0,79,70,1667.666667,0.291667,TripletThirtySecond,G5
3694,Right,0,77,70,1668.0,0.291667,TripletThirtySecond,F5
3693,Left,1,74,70,1668.0,0.291667,TripletThirtySecond,D5
3696,Left,1,76,70,1668.333333,0.291667,TripletThirtySecond,E5
3695,Right,0,79,70,1668.333333,0.291667,TripletThirtySecond,G5
3697,Right,0,80,70,1668.666667,0.291667,TripletThirtySecond,G#5
3698,Left,1,77,70,1668.677083,0.291667,TripletThirtySecond,F5
3700,Left,1,78,70,1669.0,0.291667,TripletThirtySecond,F#5
3699,Right,0,81,70,1669.0,0.291667,TripletThirtySecond,A5
3701,Left,1,79,70,1669.333333,0.291667,TripletThirtySecond,G5
3702,Right,0,82,70,1669.333333,0.291667,TripletThirtySecond,A#5
3704,Left,1,80,70,1669.666667,0.291667,TripletThirtySecond,G#5
3703,Right,0,83,70,1669.666667,0.291667,TripletThirtySecond,B5
3705,Right,0,84,70,1670.0,0.291667,TripletThirtySecond,C6
3706,Left,1,81,70,1670.0,0.291667,TripletThirtySecond,A5
3708,Left,1,82,70,1670.333333,0.291667,TripletThirtySecond,A#5
3707,Right,0,85,70,1670.333333,0.291667,TripletThirtySecond,C#6
3709,Right,0,86,70,1670.666667,0.291667,TripletThirtySecond,D6
3710,Left,1,83,70,1670.666667,0.291667,TripletThirtySecond,B5
3712,Right,0,88,70,1671.0,0.291667,TripletThirtySecond,E6
3711,Left,1,81,70,1671.0,0.958333,Sixteenth,A5
3713,Right,0,89,70,1671.333333,0.291667,TripletThirtySecond,F6
3714,Right,0,88,70,1671.666667,0.291667,TripletThirtySecond,E6
3716,Right,0,86,70,1672.0,0.291667,TripletThirtySecond,D6
3715,Left,1,79,70,1672.0,0.958333,Sixteenth,G5_F5
3718,Right,0,88,70,1672.333333,0.291667,TripletThirtySecond,E6
3719,Right,0,86,70,1672.666667,0.291667,TripletThirtySecond,D6
3721,Right,0,84,70,1673.0,0.291667,TripletThirtySecond,C6
3720,Left,1,76,70,1673.0,0.958333,Sixteenth,G5_E5
3723,Right,0,86,70,1673.333333,0.291667,TripletThirtySecond,D6
3724,Right,0,84,70,1673.666667,0.291667,TripletThirtySecond,C6
3725,Left,1,76,70,1674.0,0.958333,Sixteenth,G5_E5
3727,Right,0,83,70,1674.0,0.291667,TripletThirtySecond,B5
3728,Right,0,86,70,1674.333333,0.291667,TripletThirtySecond,D6
3729,Right,0,84,70,1674.666667,0.291667,TripletThirtySecond,C6
3731,Right,0,82,70,1675.0,0.291667,TripletThirtySecond,A#5
3730,Left,1,79,70,1675.0,0.958333,Sixteenth,G5_D5
3733,Right,0,84,70,1675.333333,0.291667,TripletThirtySecond,C6
3734,Right,0,83,70,1675.666667,0.291667,TripletThirtySecond,B5
3736,Left,1,79,70,1676.0,0.958333,Sixteenth,G5_E5
3735,Right,0,84,70,1676.0,0.291667,TripletThirtySecond,C6
3738,Right,0,86,70,1676.333333,0.291667,TripletThirtySecond,D6
3739,Right,0,84,70,1676.666667,0.291667,TripletThirtySecond,C6
3741,Left,1,74,70,1677.0,0.958333,Sixteenth,G5_D5
3740,Right,0,83,70,1677.0,0.291667,TripletThirtySecond,B5
3743,Right,0,84,70,1677.333333,0.291667,TripletThirtySecond,C6
3744,Right,0,83,70,1677.666667,0.291667,TripletThirtySecond,B5
3746,Right,0,82,70,1678.0,0.291667,TripletThirtySecond,A#5
3745,Left,1,73,70,1678.0,0.958333,Sixteenth,G5_C#5
3748,Right,0,83,70,1678.333333,0.291667,TripletThirtySecond,B5
3749,Right,0,82,70,1678.666667,0.291667,TripletThirtySecond,A#5
3750,Right,0,83,70,1679.0,0.291667,TripletThirtySecond,B5
3751,Left,1,79,70,1679.0,0.958333,Sixteenth,G5_D5
3753,Right,0,84,70,1679.333333,0.291667,TripletThirtySecond,C6
3754,Right,0,83,70,1679.666667,0.291667,TripletThirtySecond,B5
3755,Right,0,85,70,1680.0,0.291667,TripletThirtySecond,C#6
3756,Left,1,79,70,1680.0,0.958333,Sixteenth,G5_F5
3758,Right,0,88,70,1680.333333,0.291667,TripletThirtySecond,E6
3759,Right,0,86,70,1680.666667,0.291667,TripletThirtySecond,D6
3761,Left,1,72,70,1681.0,0.958333,Sixteenth,G5_C5
3760,Right,0,88,70,1681.0,0.291667,TripletThirtySecond,E6
3763,Right,0,89,70,1681.333333,0.291667,TripletThirtySecond,F6
3764,Right,0,88,70,1681.666667,0.291667,TripletThirtySecond,E6
3765,Left,1,74,70,1682.0,0.958333,Sixteenth,G5_D5
3767,Right,0,89,70,1682.0,0.291667,TripletThirtySecond,F6
3768,Right,0,91,70,1682.333333,0.291667,TripletThirtySecond,G6
3769,Right,0,89,70,1682.666667,0.291667,TripletThirtySecond,F6
3771,Right,0,79,70,1683.0,0.291667,TripletThirtySecond,G5
3770,Left,1,76,70,1683.0,0.958333,Sixteenth,E5
3772,Right,0,91,70,1683.333333,0.291667,TripletThirtySecond,G6
3773,Right,0,79,70,1683.666667,0.291667,TripletThirtySecond,G5
3775,Left,1,76,70,1684.0,0.958333,Sixteenth,E5
3774,Right,0,84,70,1684.0,0.291667,TripletThirtySecond,C6
3776,Right,0,91,70,1684.333333,0.291667,TripletThirtySecond,G6
3777,Right,0,84,70,1684.677083,0.291667,TripletThirtySecond,C6
3778,Left,1,74,70,1685.0,0.958333,Sixteenth,D5
3779,Right,0,83,70,1685.0,0.291667,TripletThirtySecond,B5
3780,Right,0,91,70,1685.333333,0.291667,TripletThirtySecond,G6
3781,Right,0,83,70,1685.666667,0.291667,TripletThirtySecond,B5
3783,Left,1,76,70,1686.0,0.958333,Sixteenth,E5
3782,Right,0,84,70,1686.0,0.291667,TripletThirtySecond,C6
3784,Right,0,91,70,1686.333333,0.291667,TripletThirtySecond,G6
3785,Right,0,86,70,1686.666667,0.291667,TripletThirtySecond,D6
3787,Left,1,84,70,1687.0,0.958333,Sixteenth,C6
3786,Right,0,87,70,1687.0,0.291667,TripletThirtySecond,D#6
3788,Right,0,91,70,1687.333333,0.291667,TripletThirtySecond,G6
3789,Right,0,88,70,1687.666667,0.291667,TripletThirtySecond,E6
3790,Right,0,89,70,1688.0,0.291667,TripletThirtySecond,F6
3791,Left,1,86,70,1688.0,0.958333,Sixteenth,D6
3792,Right,0,91,70,1688.333333,0.291667,TripletThirtySecond,G6
3793,Right,0,90,70,1688.666667,0.291667,TripletThirtySecond,F#6
3794,Left,1,88,70,1689.0,0.958333,Sixteenth,E6
3795,Right,0,91,70,1689.0,0.291667,TripletThirtySecond,G6
3796,Right,0,93,70,1689.333333,0.291667,TripletThirtySecond,A6
3797,Right,0,90,70,1689.666667,0.291667,TripletThirtySecond,F#6
3799,Right,0,91,70,1690.0,0.291667,TripletThirtySecond,G6
3798,Left,1,88,70,1690.0,0.958333,Sixteenth,E6
3800,Right,0,90,70,1690.333333,0.291667,TripletThirtySecond,F#6
3801,Right,0,91,70,1690.666667,0.291667,TripletThirtySecond,G6
3803,Left,1,82,70,1691.0,0.958333,Sixteenth,E5_A#5
3802,Right,0,85,70,1691.0,0.291667,TripletThirtySecond,C#6
3805,Right,0,93,70,1691.333333,0.291667,TripletThirtySecond,A6
3806,Right,0,91,70,1691.666667,0.291667,TripletThirtySecond,G6
3807,Left,1,83,70,1692.0,0.958333,Sixteenth,E5_B5
3809,Right,0,85,70,1692.0,0.291667,TripletThirtySecond,C#6
3810,Right,0,93,70,1692.333333,0.291667,TripletThirtySecond,A6
3811,Right,0,91,70,1692.666667,0.291667,TripletThirtySecond,G6
3812,Left,1,79,70,1693.0,0.958333,Sixteenth,G5_E5
3814,Right,0,85,70,1693.0,0.291667,TripletThirtySecond,C#6
3815,Right,0,89,70,1693.333333,0.291667,TripletThirtySecond,F6
3816,Right,0,88,70,1693.666667,0.291667,TripletThirtySecond,E6
3819,Right,0,85,70,1694.0,0.291667,TripletThirtySecond,C#6
3817,Left,1,76,70,1694.0,0.958333,Sixteenth,E5_B5
3820,Right,0,93,70,1694.333333,0.291667,TripletThirtySecond,A6
3821,Right,0,91,70,1694.666667,0.291667,TripletThirtySecond,G6
3822,Right,0,85,70,1695.0,0.291667,TripletThirtySecond,C#6
3823,Left,1,76,70,1695.0,0.958333,Sixteenth,E5_B5
3825,Right,0,93,70,1695.333333,0.291667,TripletThirtySecond,A6
3826,Right,0,91,70,1695.666667,0.291667,TripletThirtySecond,G6
3827,Right,0,86,70,1696.0,0.291667,TripletThirtySecond,D6
3828,Left,1,81,70,1696.0,0.958333,Sixteenth,F5_A5
3830,Right,0,91,70,1696.333333,0.291667,TripletThirtySecond,G6
3831,Right,0,89,70,1696.666667,0.291667,TripletThirtySecond,F6
3832,Right,0,81,70,1697.0,0.291667,TripletThirtySecond,A5
3833,Left,1,77,70,1697.0,0.958333,Sixteenth,F5
3834,Right,0,88,70,1697.333333,0.291667,TripletThirtySecond,E6
3835,Right,0,86,70,1697.666667,0.291667,TripletThirtySecond,D6
3837,Right,0,80,70,1698.0,0.291667,TripletThirtySecond,G#5
3836,Left,1,77,70,1698.0,0.958333,Sixteenth,F5
3838,Right,0,88,70,1698.333333,0.291667,TripletThirtySecond,E6
3839,Right,0,86,70,1698.666667,0.291667,TripletThirtySecond,D6
3841,Left,1,77,70,1699.0,0.958333,Sixteenth,F5
3840,Right,0,79,70,1699.0,0.291667,TripletThirtySecond,G5
3842,Right,0,88,70,1699.333333,0.291667,TripletThirtySecond,E6
3843,Right,0,86,70,1699.666667,0.291667,TripletThirtySecond,D6
3845,Left,1,76,70,1700.0,0.958333,Sixteenth,E5
3844,Right,0,79,70,1700.0,0.291667,TripletThirtySecond,G5
3846,Right,0,86,70,1700.333333,0.291667,TripletThirtySecond,D6
3847,Right,0,84,70,1700.666667,0.291667,TripletThirtySecond,C6
3849,Left,1,76,70,1701.0,0.958333,Sixteenth,E5
3848,Right,0,79,70,1701.0,0.291667,TripletThirtySecond,G5
3850,Right,0,86,70,1701.333333,0.291667,TripletThirtySecond,D6
3851,Right,0,84,70,1701.666667,0.291667,TripletThirtySecond,C6
3852,Left,1,74,70,1702.0,0.958333,Sixteenth,D5
3853,Right,0,77,70,1702.0,0.291667,TripletThirtySecond,F5
3854,Right,0,84,70,1702.333333,0.291667,TripletThirtySecond,C6
3855,Right,0,83,70,1702.666667,0.291667,TripletThirtySecond,B5
3857,Left,1,76,70,1703.0,0.958333,Sixteenth,E5
3856,Right,0,79,70,1703.0,0.291667,TripletThirtySecond,G5
3858,Right,0,86,70,1703.333333,0.291667,TripletThirtySecond,D6
3859,Right,0,84,70,1703.666667,0.291667,TripletThirtySecond,C6
3860,Left,1,76,70,1704.0,0.958333,Sixteenth,E5
3861,Right,0,79,70,1704.0,0.291667,TripletThirtySecond,G5
3862,Right,0,86,70,1704.333333,0.291667,TripletThirtySecond,D6
3863,Right,0,84,70,1704.666667,0.291667,TripletThirtySecond,C6
3865,Right,0,79,70,1705.0,0.291667,TripletThirtySecond,G5
3864,Left,1,76,70,1705.0,0.958333,Sixteenth,E5
3866,Right,0,86,70,1705.333333,0.291667,TripletThirtySecond,D6
3867,Right,0,85,70,1705.666667,0.291667,TripletThirtySecond,C#6
3868,Right,0,81,70,1706.0,0.291667,TripletThirtySecond,A5
3869,Left,1,77,70,1706.0,0.958333,Sixteenth,F5
3870,Right,0,88,70,1706.333333,0.291667,TripletThirtySecond,E6
3871,Right,0,86,70,1706.666667,0.291667,TripletThirtySecond,D6
3872,Right,0,81,70,1707.0,0.291667,TripletThirtySecond,A5
3873,Left,1,78,70,1707.0,0.958333,Sixteenth,F#5
3874,Right,0,88,70,1707.333333,0.291667,TripletThirtySecond,E6
3875,Right,0,86,70,1707.666667,0.291667,TripletThirtySecond,D6
3877,Left,1,79,70,1708.0,0.958333,Sixteenth,G5
3876,Right,0,83,70,1708.0,0.291667,TripletThirtySecond,B5
3878,Right,0,88,70,1708.333333,0.291667,TripletThirtySecond,E6
3879,Right,0,86,70,1708.666667,0.291667,TripletThirtySecond,D6
3882,Right,0,85,70,1709.0,0.291667,TripletThirtySecond,C#6
3880,Left,1,71,70,1709.0,0.958333,Sixteenth,F5_B4
3883,Right,0,86,70,1709.333333,0.291667,TripletThirtySecond,D6
3884,Right,0,79,70,1709.666667,0.291667,TripletThirtySecond,G5
3886,Left,1,77,70,1710.0,0.958333,Sixteenth,F5_B4
3885,Right,0,81,70,1710.0,0.291667,TripletThirtySecond,A5
3888,Right,0,78,70,1710.333333,0.291667,TripletThirtySecond,F#5
3889,Right,0,79,70,1710.666667,0.291667,TripletThirtySecond,G5
3890,Right,0,81,70,1711.0,0.291667,TripletThirtySecond,A5
3891,Left,1,72,70,1711.0,0.958333,Sixteenth,E5_C5
3893,Right,0,78,70,1711.333333,0.291667,TripletThirtySecond,F#5
3894,Right,0,79,70,1711.666667,0.291667,TripletThirtySecond,G5
3896,Right,0,81,70,1712.0,0.291667,TripletThirtySecond,A5
3895,Left,1,77,70,1712.0,0.958333,Sixteenth,F5_D5
3898,Right,0,78,70,1712.333333,0.291667,TripletThirtySecond,F#5
3899,Right,0,79,70,1712.666667,0.291667,TripletThirtySecond,G5
3901,Left,1,74,70,1713.0,0.958333,Sixteenth,F5_D5
3900,Right,0,81,70,1713.0,0.291667,TripletThirtySecond,A5
3903,Right,0,78,70,1713.333333,0.291667,TripletThirtySecond,F#5
3904,Right,0,79,70,1713.666667,0.291667,TripletThirtySecond,G5
3905,Right,0,81,70,1714.0,0.291667,TripletThirtySecond,A5
3906,Left,1,76,70,1714.0,0.958333,Sixteenth,E5_C5
3908,Right,0,78,70,1714.333333,0.291667,TripletThirtySecond,F#5
3909,Right,0,79,70,1714.666667,0.291667,TripletThirtySecond,G5
3910,Right,0,81,70,1715.0,0.291667,TripletThirtySecond,A5
3911,Left,1,71,70,1715.0,0.958333,Sixteenth,D5_B4
3913,Right,0,80,70,1715.333333,0.291667,TripletThirtySecond,G#5
3914,Right,0,88,70,1715.666667,0.291667,TripletThirtySecond,E6
3915,Left,1,69,70,1716.0,0.958333,Sixteenth,C5_A4
3916,Right,0,83,70,1716.0,0.291667,TripletThirtySecond,B5
3918,Right,0,81,70,1716.333333,0.291667,TripletThirtySecond,A5
3919,Right,0,88,70,1716.666667,0.291667,TripletThirtySecond,E6
3920,Left,1,71,70,1717.0,0.958333,Sixteenth,G#4_B4
3922,Right,0,84,70,1717.0,0.291667,TripletThirtySecond,C6
3923,Right,0,83,70,1717.333333,0.291667,TripletThirtySecond,B5
3924,Right,0,88,70,1717.666667,0.291667,TripletThirtySecond,E6
3925,Left,1,52,70,1718.0,0.4375,ThirtySecond,E3
3926,Left,1,40,70,1718.333333,0.46875,ThirtySecond,E2
3927,Left,1,52,70,1718.666667,0.479167,ThirtySecond,E3
3928,Left,1,40,70,1719.0,0.479167,ThirtySecond,E2
3929,Left,1,52,70,1719.333333,0.46875,ThirtySecond,E3
3930,Left,1,40,70,1719.666667,0.46875,ThirtySecond,E2
3931,Left,1,52,70,1720.0,0.447917,ThirtySecond,E3
3932,Right,0,60,70,1720.0,1.958333,Eighth,C4_B3
3934,Left,1,40,70,1720.333333,0.4375,ThirtySecond,E2
3935,Left,1,52,70,1720.666667,0.427083,ThirtySecond,E3
3937,Right,0,57,60,1721.0,0.958333,Sixteenth,A3
3936,Left,1,40,70,1721.0,0.489583,ThirtySecond,E2
3938,Left,1,52,70,1721.333333,0.447917,ThirtySecond,E3
3939,Left,1,40,70,1721.666667,0.5,ThirtySecond,E2
3940,Left,1,52,70,1722.0,0.479167,ThirtySecond,E3
3941,Left,1,40,70,1722.333333,0.427083,ThirtySecond,E2
3942,Left,1,52,70,1722.666667,0.489583,ThirtySecond,E3
3943,Right,0,60,70,1723.0,1.958333,Eighth,C4_B3
3945,Left,1,40,70,1723.0,0.458333,ThirtySecond,E2
3946,Left,1,52,70,1723.333333,0.4375,ThirtySecond,E3
3947,Left,1,40,70,1723.666667,0.4375,ThirtySecond,E2
3949,Left,1,52,70,1724.0,0.46875,ThirtySecond,E3
3948,Right,0,57,60,1724.0,0.958333,Sixteenth,A3
3950,Left,1,40,70,1724.333333,0.479167,ThirtySecond,E2
3951,Left,1,52,70,1724.666667,0.46875,ThirtySecond,E3
3952,Left,1,40,70,1725.0,0.46875,ThirtySecond,E2
3953,Left,1,52,70,1725.333333,0.46875,ThirtySecond,E3
3954,Left,1,40,70,1725.666667,0.46875,ThirtySecond,E2
3955,Right,0,60,70,1726.0,1.958333,Eighth,C4_B3
3957,Left,1,52,70,1726.0,0.46875,ThirtySecond,E3
3958,Left,1,40,70,1726.333333,0.46875,ThirtySecond,E2
3959,Left,1,52,70,1726.666667,0.458333,ThirtySecond,E3
3961,Right,0,57,60,1727.0,0.958333,Sixteenth,A3
3960,Left,1,40,70,1727.0,0.447917,ThirtySecond,E2
3962,Left,1,52,70,1727.333333,0.479167,ThirtySecond,E3
3963,Left,1,40,70,1727.666667,0.447917,ThirtySecond,E2
3964,Left,1,52,70,1728.0,0.458333,ThirtySecond,E3
3965,Left,1,40,70,1728.333333,0.46875,ThirtySecond,E2
3966,Left,1,52,70,1728.666667,0.479167,ThirtySecond,E3
3968,Left,1,40,70,1729.0,0.479167,ThirtySecond,E2
3967,Right,0,59,70,1729.0,1.958333,Eighth,B3_A3
3970,Left,1,52,70,1729.333333,0.489583,ThirtySecond,E3
3971,Left,1,40,70,1729.666667,0.479167,ThirtySecond,E2
3972,Left,1,52,70,1730.0,0.489583,ThirtySecond,E3
3973,Right,0,56,60,1730.0,0.958333,Sixteenth,G#3
3974,Left,1,40,70,1730.333333,0.479167,ThirtySecond,E2
3975,Left,1,52,70,1730.666667,0.458333,ThirtySecond,E3
3976,Left,1,40,70,1731.0,0.479167,ThirtySecond,E2
3977,Left,1,52,70,1731.333333,0.479167,ThirtySecond,E3
3978,Left,1,40,70,1731.666667,0.46875,ThirtySecond,E2
3981,Left,1,52,70,1732.0,0.46875,ThirtySecond,E3
3979,Right,0,59,70,1732.0,1.958333,Eighth,B3_A3
3982,Left,1,40,70,1732.333333,0.479167,ThirtySecond,E2
3983,Left,1,52,70,1732.666667,0.5625,ThirtySecond,E3
3984,Right,0,56,60,1733.0,0.958333,Sixteenth,G#3
3985,Left,1,40,70,1733.0,0.53125,ThirtySecond,E2
3986,Left,1,52,70,1733.333333,0.479167,ThirtySecond,E3
3987,Left,1,40,70,1733.666667,0.447917,ThirtySecond,E2
3988,Left,1,52,70,1734.0,0.447917,ThirtySecond,E3
3989,Left,1,40,70,1734.333333,0.427083,ThirtySecond,E2
3990,Left,1,52,70,1734.666667,0.458333,ThirtySecond,E3
3994,Left,1,40,70,1735.0,0.447917,ThirtySecond,E2
3991,Right,0,59,70,1735.0,1.958333,Eighth,E4_B3_A3
3995,Left,1,52,70,1735.333333,0.46875,ThirtySecond,E3
3996,Left,1,40,70,1735.666667,0.46875,ThirtySecond,E2
3998,Right,0,56,60,1736.0,0.958333,Sixteenth,G#3
3997,Left,1,52,70,1736.0,0.46875,ThirtySecond,E3
3999,Left,1,40,70,1736.333333,0.4375,ThirtySecond,E2
4000,Left,1,52,70,1736.666667,0.447917,ThirtySecond,E3
4001,Left,1,40,70,1737.0,0.427083,ThirtySecond,E2
4002,Left,1,52,70,1737.333333,0.572917,ThirtySecond,E3
4003,Left,1,40,70,1737.666667,0.520833,ThirtySecond,E2
4005,Right,0,56,70,1738.0,1.958333,Eighth,G#3_E4_C4
4004,Left,1,52,70,1738.0,0.4375,ThirtySecond,E3
4008,Left,1,40,70,1738.333333,0.458333,ThirtySecond,E2
4009,Left,1,52,70,1738.666667,0.447917,ThirtySecond,E3
4011,Left,1,40,70,1739.0,0.458333,ThirtySecond,E2
4010,Right,0,57,60,1739.0,0.958333,Sixteenth,A3
4012,Left,1,52,70,1739.333333,0.489583,ThirtySecond,E3
4013,Left,1,40,70,1739.666667,0.479167,ThirtySecond,E2
4014,Left,1,52,70,1740.0,0.5,ThirtySecond,E3
4015,Left,1,40,70,1740.333333,0.46875,ThirtySecond,E2
4016,Left,1,52,70,1740.666667,0.489583,ThirtySecond,E3
4020,Left,1,40,70,1741.0,0.458333,ThirtySecond,E2
4017,Right,0,60,70,1741.0,1.958333,Eighth,G3_E4_C4
4021,Left,1,52,70,1741.333333,0.489583,ThirtySecond,E3
4022,Left,1,40,70,1741.666667,0.46875,ThirtySecond,E2
4023,Left,1,52,70,1742.0,0.458333,ThirtySecond,E3
4024,Right,0,57,60,1742.0,0.958333,Sixteenth,A3
4025,Left,1,40,70,1742.333333,0.46875,ThirtySecond,E2
4026,Left,1,52,70,1742.666667,0.447917,ThirtySecond,E3
4027,Left,1,40,70,1743.0,0.5,ThirtySecond,E2
4028,Left,1,52,70,1743.333333,0.46875,ThirtySecond,E3
4029,Left,1,40,70,1743.666667,0.447917,ThirtySecond,E2
4030,Left,1,52,70,1744.0,0.458333,ThirtySecond,E3
4031,Right,0,62,70,1744.0,0.958333,Sixteenth,D4_B3
4033,Left,1,40,70,1744.333333,0.46875,ThirtySecond,E2
4034,Left,1,52,70,1744.666667,0.4375,ThirtySecond,E3
4036,Right,0,57,60,1745.0,0.958333,Sixteenth,C4_A3
4035,Left,1,40,70,1745.0,0.427083,ThirtySecond,E2
4038,Left,1,52,70,1745.333333,0.427083,ThirtySecond,E3
4039,Left,1,40,70,1745.666667,0.447917,ThirtySecond,E2
4040,Left,1,52,70,1746.0,0.4375,ThirtySecond,E3
4041,Left,1,40,70,1746.333333,0.4375,ThirtySecond,E2
4042,Left,1,52,70,1746.666667,0.4375,ThirtySecond,E3
4047,Left,1,40,70,1747.0,0.427083,ThirtySecond,E2
4043,Right,0,54,70,1747.0,1.958333,Eighth,F#3_D#3_C4_A3
4048,Left,1,52,70,1747.333333,0.447917,ThirtySecond,E3
4049,Left,1,40,70,1747.666667,0.447917,ThirtySecond,E2
4050,Left,1,52,70,1748.0,0.447917,ThirtySecond,E3
4051,Left,1,40,70,1748.333333,0.46875,ThirtySecond,E2
4052,Left,1,52,70,1748.666667,0.447917,ThirtySecond,E3
4053,Left,1,40,70,1749.0,0.447917,ThirtySecond,E2
4054,Left,1,52,70,1749.333333,0.458333,ThirtySecond,E3
4055,Left,1,40,70,1749.666667,0.46875,ThirtySecond,E2
4056,Right,0,53,70,1750.0,1.958333,Eighth,G#3_F3_D3_B3
4059,Left,1,52,70,1750.0,0.46875,ThirtySecond,E3
4061,Left,1,40,70,1750.333333,0.46875,ThirtySecond,E2
4062,Left,1,52,70,1750.666667,0.458333,ThirtySecond,E3
4063,Left,1,40,70,1751.0,0.46875,ThirtySecond,E2
4064,Left,1,52,70,1751.333333,0.479167,ThirtySecond,E3
4065,Left,1,40,70,1751.666667,0.458333,ThirtySecond,E2
4066,Left,1,45,70,1752.0,0.4375,ThirtySecond,A2
4067,Left,1,33,70,1752.333333,0.479167,ThirtySecond,A1
4068,Left,1,45,70,1752.666667,0.46875,ThirtySecond,A2
4070,Right,0,52,70,1753.0,1.958333,Eighth,E3_C4_A3
4069,Left,1,33,70,1753.0,0.489583,ThirtySecond,A1
4073,Left,1,45,70,1753.333333,0.479167,ThirtySecond,A2
4074,Left,1,33,70,1753.666667,0.541667,ThirtySecond,A1
4075,Left,1,45,70,1754.0,0.53125,ThirtySecond,A2
4076,Left,1,33,70,1754.333333,0.46875,ThirtySecond,A1
4077,Left,1,45,70,1754.666667,0.479167,ThirtySecond,A2
4078,Left,1,31,70,1755.0,0.447917,ThirtySecond,G1
4079,Left,1,43,70,1755.333333,0.479167,ThirtySecond,G2
4080,Left,1,31,70,1755.666667,0.5,ThirtySecond,G1
4081,Right,0,53,70,1756.0,1.958333,Eighth,F3_D4_C4
4084,Left,1,43,70,1756.0,0.510417,ThirtySecond,G2
4085,Left,1,31,70,1756.333333,0.46875,ThirtySecond,G1
4086,Left,1,43,70,1756.666667,0.46875,ThirtySecond,G2
4088,Right,0,59,60,1757.0,0.958333,Sixteenth,B3
4087,Left,1,31,70,1757.0,0.510417,ThirtySecond,G1
4089,Left,1,43,70,1757.333333,0.479167,ThirtySecond,G2
4090,Left,1,31,70,1757.666667,0.4375,ThirtySecond,G1
4091,Left,1,43,70,1758.0,0.510417,ThirtySecond,G2
4092,Left,1,31,70,1758.333333,0.46875,ThirtySecond,G1
4093,Left,1,43,70,1758.666667,0.489583,ThirtySecond,G2
4096,Left,1,31,70,1759.0,0.489583,ThirtySecond,G1
4094,Right,0,48,70,1759.0,1.958333,Sixteenth,D3_C3
4097,Left,1,43,70,1759.333333,0.458333,ThirtySecond,G2
4098,Left,1,31,70,1759.666667,0.479167,ThirtySecond,G1
4100,Left,1,43,70,1760.0,0.479167,ThirtySecond,G2
4099,Right,0,47,60,1760.0,0.958333,Sixteenth,B2
4101,Left,1,31,70,1760.333333,0.5,ThirtySecond,G1
4102,Left,1,43,70,1760.666667,0.458333,ThirtySecond,G2
4103,Left,1,31,70,1761.0,0.427083,ThirtySecond,G1
4104,Left,1,43,70,1761.333333,0.510417,ThirtySecond,G2
4105,Left,1,31,70,1761.666667,0.5,ThirtySecond,G1
4106,Right,0,60,70,1762.0,1.958333,Eighth,F3_D4_C4
4107,Left,1,43,70,1762.0,0.510417,ThirtySecond,G2
4110,Left,1,31,70,1762.333333,0.479167,ThirtySecond,G1
4111,Left,1,43,70,1762.666667,0.479167,ThirtySecond,G2
4112,Right,0,59,60,1763.0,0.958333,Sixteenth,B3
4113,Left,1,31,70,1763.0,0.458333,ThirtySecond,G1
4114,Left,1,43,70,1763.333333,0.479167,ThirtySecond,G2
4115,Left,1,31,70,1763.666667,0.458333,ThirtySecond,G1
4116,Left,1,43,70,1764.0,0.427083,ThirtySecond,G2
4117,Left,1,31,70,1764.333333,0.510417,ThirtySecond,G1
4118,Left,1,43,70,1764.666667,0.510417,ThirtySecond,G2
4122,Left,1,31,70,1765.0,0.489583,ThirtySecond,G1
4119,Right,0,55,70,1765.0,1.958333,Eighth,G3_E4_D4
4123,Left,1,43,70,1765.333333,0.416667,ThirtySecond,G2
4124,Left,1,31,70,1765.666667,0.46875,ThirtySecond,G1
4126,Left,1,43,70,1766.0,0.510417,ThirtySecond,G2
4125,Right,0,60,60,1766.0,0.958333,Sixteenth,C4
4127,Left,1,31,70,1766.333333,0.5,ThirtySecond,G1
4128,Left,1,43,70,1766.666667,0.458333,ThirtySecond,G2
4129,Left,1,31,70,1767.0,0.5625,ThirtySecond,G1
4130,Left,1,43,70,1767.333333,0.53125,ThirtySecond,G2
4131,Left,1,31,70,1767.666667,0.520833,ThirtySecond,G1
4132,Left,1,43,70,1768.0,0.458333,ThirtySecond,G2
4133,Right,0,52,70,1768.0,1.958333,Eighth,E3_D3
4135,Left,1,31,70,1768.333333,0.552083,ThirtySecond,G1
4136,Left,1,43,70,1768.666667,0.46875,ThirtySecond,G2
4137,Left,1,31,70,1769.0,0.510417,ThirtySecond,G1
4138,Right,0,48,60,1769.0,0.958333,Sixteenth,C3
4139,Left,1,43,70,1769.333333,0.489583,ThirtySecond,G2
4140,Left,1,31,70,1769.666667,0.458333,ThirtySecond,G1
4141,Left,1,43,70,1770.0,0.5,ThirtySecond,G2
4142,Left,1,31,70,1770.333333,0.489583,ThirtySecond,G1
4143,Left,1,43,70,1770.666667,0.5,ThirtySecond,G2
4147,Left,1,31,70,1771.0,0.510417,ThirtySecond,G1
4144,Right,0,65,70,1771.0,1.958333,Eighth,G#3_F4_D4_B3
4149,Left,1,43,70,1771.333333,0.447917,ThirtySecond,G2
4150,Left,1,31,70,1771.666667,0.458333,ThirtySecond,G1
4151,Right,0,55,60,1772.0,0.958333,Sixteenth,G3
4152,Left,1,43,70,1772.0,0.46875,ThirtySecond,G2
4153,Left,1,31,70,1772.333333,0.46875,ThirtySecond,G1
4154,Left,1,43,70,1772.666667,0.479167,ThirtySecond,G2
4155,Left,1,31,70,1773.0,0.447917,ThirtySecond,G1
4156,Left,1,43,70,1773.333333,0.5625,ThirtySecond,G2
4157,Left,1,31,70,1773.666667,0.489583,ThirtySecond,G1
4159,Left,1,43,70,1774.0,0.552083,ThirtySecond,G2
4158,Right,0,48,70,1774.0,1.958333,Sixteenth,D3_C3
4161,Left,1,31,70,1774.333333,0.46875,ThirtySecond,G1
4162,Left,1,43,70,1774.666667,0.520833,ThirtySecond,G2
4164,Right,0,47,60,1775.0,0.958333,Sixteenth,B2
4163,Left,1,31,70,1775.0,0.479167,ThirtySecond,G1
4165,Left,1,43,70,1775.333333,0.447917,ThirtySecond,G2
4166,Left,1,31,70,1775.666667,0.479167,ThirtySecond,G1
4167,Left,1,43,70,1776.0,0.489583,ThirtySecond,G2
4168,Left,1,31,70,1776.333333,0.479167,ThirtySecond,G1
4169,Left,1,43,70,1776.666667,0.5,ThirtySecond,G2
4170,Right,0,50,70,1777.0,1.958333,Eighth,G3_D3_C3
4173,Left,1,31,70,1777.0,0.5,ThirtySecond,G1
4174,Left,1,43,70,1777.333333,0.458333,ThirtySecond,G2
4175,Left,1,31,70,1777.666667,0.46875,ThirtySecond,G1
4177,Right,0,47,60,1778.0,0.958333,Sixteenth,B2
4176,Left,1,43,70,1778.0,0.510417,ThirtySecond,G2
4178,Left,1,31,70,1778.333333,0.510417,ThirtySecond,G1
4179,Left,1,43,70,1778.666667,0.4375,ThirtySecond,G2
4180,Left,1,31,70,1779.0,0.416667,ThirtySecond,G1
4181,Left,1,43,70,1779.333333,0.479167,ThirtySecond,G2
4182,Left,1,31,70,1779.666667,0.458333,ThirtySecond,G1
4183,Right,0,67,70,1780.0,1.958333,Eighth,G4_D4_C4
4184,Left,1,43,70,1780.0,0.46875,ThirtySecond,G2
4187,Left,1,31,70,1780.333333,0.46875,ThirtySecond,G1
4188,Left,1,43,70,1780.666667,0.479167,ThirtySecond,G2
4190,Right,0,59,60,1781.0,0.958333,Sixteenth,B3
4189,Left,1,31,70,1781.0,0.489583,ThirtySecond,G1
4191,Left,1,43,70,1781.333333,0.479167,ThirtySecond,G2
4192,Left,1,31,70,1781.666667,0.46875,ThirtySecond,G1
4193,Left,1,43,70,1782.0,0.510417,ThirtySecond,G2
4194,Left,1,31,70,1782.333333,0.489583,ThirtySecond,G1
4195,Left,1,43,70,1782.666667,0.479167,ThirtySecond,G2
4197,Right,0,55,70,1783.0,0.958333,Sixteenth,G3_D3_B2
4196,Left,1,31,70,1783.0,0.5,ThirtySecond,G1
4200,Left,1,43,70,1783.333333,0.46875,ThirtySecond,G2
4201,Left,1,31,70,1783.666667,0.479167,ThirtySecond,G1
4203,Left,1,43,70,1784.0,0.447917,ThirtySecond,G2
4202,Right,0,52,60,1784.0,0.958333,Sixteenth,E3_C3
4205,Left,1,36,70,1784.333333,0.427083,ThirtySecond,C2
4206,Left,1,43,70,1784.666667,0.4375,ThirtySecond,G2
4207,Left,1,36,70,1785.0,0.458333,ThirtySecond,C2
4208,Left,1,43,70,1785.333333,0.458333,ThirtySecond,G2
4209,Left,1,36,70,1785.666667,0.46875,ThirtySecond,C2
4211,Right,0,64,70,1786.0,0.958333,Sixteenth,E4_C4
4210,Left,1,43,70,1786.0,0.489583,ThirtySecond,G2
4213,Left,1,36,70,1786.333333,0.5,ThirtySecond,C2
4214,Left,1,43,70,1786.666667,0.489583,ThirtySecond,G2
4216,Right,0,52,70,1787.0,0.958333,Sixteenth,E3
4215,Left,1,36,70,1787.0,0.458333,ThirtySecond,C2
4217,Left,1,43,70,1787.333333,0.53125,ThirtySecond,G2
4218,Left,1,36,70,1787.666667,0.489583,ThirtySecond,C2
4219,Left,1,44,70,1788.0,0.46875,ThirtySecond,G#2
4220,Left,1,35,70,1788.333333,0.489583,ThirtySecond,B1
4221,Left,1,44,70,1788.666667,0.46875,ThirtySecond,G#2
4223,Right,0,74,70,1789.0,0.958333,Sixteenth,E5_D5
4222,Left,1,35,70,1789.0,0.458333,ThirtySecond,B1
4225,Left,1,44,70,1789.333333,0.447917,ThirtySecond,G#2
4226,Left,1,35,70,1789.666667,0.46875,ThirtySecond,B1
4228,Right,0,64,70,1790.0,0.958333,Sixteenth,E4_D4
4227,Left,1,44,70,1790.0,0.46875,ThirtySecond,G#2
4230,Left,1,35,70,1790.333333,0.5,ThirtySecond,B1
4231,Left,1,44,70,1790.666667,0.322917,TripletThirtySecond,G#2
4232,Left,1,45,70,1791.0,0.958333,Sixteenth,A2_A1
4234,Right,0,72,70,1791.0,0.958333,Sixteenth,E5_E4_C5
4238,Left,1,76,70,1792.0,0.958333,Sixteenth,E5
4237,Right,0,84,70,1792.0,0.291667,TripletThirtySecond,C6
4239,Right,0,86,70,1792.333333,0.291667,TripletThirtySecond,D6
4240,Right,0,83,70,1792.666667,0.291667,TripletThirtySecond,B5
4242,Left,1,76,70,1793.0,0.958333,Sixteenth,E5
4241,Right,0,84,70,1793.0,0.291667,TripletThirtySecond,C6
4243,Right,0,83,70,1793.333333,0.291667,TripletThirtySecond,B5
4244,Right,0,81,70,1793.666667,0.291667,TripletThirtySecond,A5
4245,Left,1,76,70,1794.0,0.958333,Sixteenth,E5
4246,Right,0,80,70,1794.0,0.291667,TripletThirtySecond,G#5
4247,Right,0,81,70,1794.333333,0.291667,TripletThirtySecond,A5
4248,Right,0,83,70,1794.666667,0.291667,TripletThirtySecond,B5
4249,Left,1,76,70,1795.0,0.958333,Sixteenth,E5
4250,Right,0,81,70,1795.0,0.291667,TripletThirtySecond,A5
4251,Right,0,83,70,1795.333333,0.291667,TripletThirtySecond,B5
4252,Right,0,84,70,1795.666667,0.291667,TripletThirtySecond,C6
4254,Right,0,83,70,1796.0,0.291667,TripletThirtySecond,B5
4253,Left,1,76,70,1796.0,0.958333,Sixteenth,E5
4255,Right,0,84,70,1796.333333,0.291667,TripletThirtySecond,C6
4256,Right,0,86,70,1796.666667,0.291667,TripletThirtySecond,D6
4258,Right,0,84,70,1797.0,0.291667,TripletThirtySecond,C6
4257,Left,1,76,70,1797.0,0.958333,Sixteenth,E5
4259,Right,0,86,70,1797.333333,0.291667,TripletThirtySecond,D6
4260,Right,0,84,70,1797.666667,0.291667,TripletThirtySecond,C6
4261,Left,1,76,70,1798.0,0.958333,Sixteenth,E5
4262,Right,0,83,70,1798.0,0.291667,TripletThirtySecond,B5
4263,Right,0,84,70,1798.333333,0.291667,TripletThirtySecond,C6
4264,Right,0,86,70,1798.666667,0.291667,TripletThirtySecond,D6
4266,Right,0,84,70,1799.0,0.291667,TripletThirtySecond,C6
4265,Left,1,76,70,1799.0,0.958333,Sixteenth,E5
4267,Right,0,83,70,1799.333333,0.291667,TripletThirtySecond,B5
4268,Right,0,81,70,1799.666667,0.291667,TripletThirtySecond,A5
4269,Right,0,83,70,1800.0,0.291667,TripletThirtySecond,B5
4270,Left,1,76,70,1800.0,0.958333,Sixteenth,E5
4271,Right,0,84,70,1800.333333,0.291667,TripletThirtySecond,C6
4272,Right,0,86,70,1800.666667,0.291667,TripletThirtySecond,D6
4274,Right,0,84,70,1801.0,0.291667,TripletThirtySecond,C6
4273,Left,1,76,70,1801.0,0.958333,Sixteenth,E5
4275,Right,0,83,70,1801.333333,0.291667,TripletThirtySecond,B5
4276,Right,0,81,70,1801.666667,0.291667,TripletThirtySecond,A5
4277,Left,1,76,70,1802.0,0.958333,Sixteenth,E5
4278,Right,0,80,70,1802.0,0.291667,TripletThirtySecond,G#5
4279,Right,0,81,70,1802.333333,0.291667,TripletThirtySecond,A5
4280,Right,0,83,70,1802.666667,0.291667,TripletThirtySecond,B5
4282,Left,1,76,70,1803.0,0.958333,Sixteenth,E5
4281,Right,0,80,70,1803.0,0.291667,TripletThirtySecond,G#5
4283,Right,0,81,70,1803.333333,0.291667,TripletThirtySecond,A5
4284,Right,0,83,70,1803.666667,0.291667,TripletThirtySecond,B5
4285,Left,1,76,70,1804.0,0.958333,Sixteenth,E5
4286,Right,0,81,70,1804.0,0.291667,TripletThirtySecond,A5
4287,Right,0,83,70,1804.333333,0.291667,TripletThirtySecond,B5
4288,Right,0,84,70,1804.666667,0.291667,TripletThirtySecond,C6
4289,Right,0,83,70,1805.0,0.291667,TripletThirtySecond,B5
4290,Left,1,76,70,1805.0,0.958333,Sixteenth,E5
4291,Right,0,84,70,1805.333333,0.291667,TripletThirtySecond,C6
4292,Right,0,86,70,1805.666667,0.291667,TripletThirtySecond,D6
4293,Left,1,76,70,1806.0,0.958333,Sixteenth,E5
4294,Right,0,83,70,1806.0,0.291667,TripletThirtySecond,B5
4295,Right,0,84,70,1806.333333,0.291667,TripletThirtySecond,C6
4296,Right,0,86,70,1806.666667,0.291667,TripletThirtySecond,D6
4297,Left,1,76,70,1807.0,0.958333,Sixteenth,E5
4298,Right,0,89,70,1807.0,0.291667,TripletThirtySecond,F6
4299,Right,0,88,70,1807.333333,0.291667,TripletThirtySecond,E6
4300,Right,0,86,70,1807.666667,0.291667,TripletThirtySecond,D6
4302,Right,0,84,70,1808.0,0.291667,TripletThirtySecond,C6
4301,Left,1,76,70,1808.0,0.958333,Sixteenth,E5
4303,Right,0,83,70,1808.333333,0.291667,TripletThirtySecond,B5
4304,Right,0,88,70,1808.666667,0.291667,TripletThirtySecond,E6
4305,Right,0,81,70,1809.0,0.291667,TripletThirtySecond,A5
4306,Left,1,76,70,1809.0,0.958333,Sixteenth,E5
4307,Right,0,80,70,1809.333333,0.291667,TripletThirtySecond,G#5
4308,Right,0,88,70,1809.666667,0.291667,TripletThirtySecond,E6
4309,Right,0,83,70,1810.0,0.291667,TripletThirtySecond,B5
4310,Left,1,76,70,1810.0,0.958333,Sixteenth,E5
4311,Right,0,81,70,1810.333333,0.291667,TripletThirtySecond,A5
4312,Right,0,88,70,1810.666667,0.291667,TripletThirtySecond,E6
4313,Right,0,84,70,1811.0,0.291667,TripletThirtySecond,C6
4314,Left,1,76,70,1811.0,0.958333,Sixteenth,E5
4315,Right,0,83,70,1811.333333,0.291667,TripletThirtySecond,B5
4316,Right,0,88,70,1811.666667,0.291667,TripletThirtySecond,E6
4318,Left,1,76,70,1812.0,0.958333,Sixteenth,E5
4317,Right,0,86,70,1812.0,0.291667,TripletThirtySecond,D6
4319,Right,0,84,70,1812.333333,0.291667,TripletThirtySecond,C6
4320,Right,0,88,70,1812.666667,0.291667,TripletThirtySecond,E6
4321,Left,1,76,70,1813.0,0.958333,Sixteenth,E5
4322,Right,0,84,70,1813.0,0.291667,TripletThirtySecond,C6
4323,Right,0,83,70,1813.333333,0.291667,TripletThirtySecond,B5
4324,Right,0,88,70,1813.666667,0.291667,TripletThirtySecond,E6
4325,Left,1,76,70,1814.0,0.958333,Sixteenth,E5
4326,Right,0,86,70,1814.0,0.291667,TripletThirtySecond,D6
4327,Right,0,84,70,1814.333333,0.291667,TripletThirtySecond,C6
4328,Right,0,88,70,1814.666667,0.291667,TripletThirtySecond,E6
4329,Left,1,76,70,1815.0,0.958333,Sixteenth,E5
4330,Right,0,86,70,1815.0,0.291667,TripletThirtySecond,D6
4331,Right,0,84,70,1815.333333,0.291667,TripletThirtySecond,C6
4332,Right,0,88,70,1815.666667,0.291667,TripletThirtySecond,E6
4333,Left,1,76,70,1816.0,0.958333,Sixteenth,E5
4334,Right,0,84,70,1816.0,0.291667,TripletThirtySecond,C6
4335,Right,0,83,70,1816.333333,0.291667,TripletThirtySecond,B5
4336,Right,0,86,70,1816.666667,0.291667,TripletThirtySecond,D6
4338,Left,1,76,70,1817.0,0.958333,Sixteenth,E5
4337,Right,0,83,70,1817.0,0.291667,TripletThirtySecond,B5
4339,Right,0,81,70,1817.333333,0.291667,TripletThirtySecond,A5
4340,Right,0,84,70,1817.666667,0.291667,TripletThirtySecond,C6
4341,Left,1,76,70,1818.0,0.958333,Sixteenth,E5
4342,Right,0,83,70,1818.0,0.291667,TripletThirtySecond,B5
4343,Right,0,81,70,1818.333333,0.291667,TripletThirtySecond,A5
4344,Right,0,84,70,1818.666667,0.291667,TripletThirtySecond,C6
4346,Left,1,76,70,1819.0,0.958333,Sixteenth,E5
4345,Right,0,83,70,1819.0,0.291667,TripletThirtySecond,B5
4347,Right,0,86,70,1819.333333,0.291667,TripletThirtySecond,D6
4348,Right,0,84,70,1819.666667,0.291667,TripletThirtySecond,C6
4349,Left,1,76,70,1820.0,0.958333,Sixteenth,E5
4350,Right,0,83,70,1820.0,0.291667,TripletThirtySecond,B5
4351,Right,0,81,70,1820.333333,0.291667,TripletThirtySecond,A5
4352,Right,0,86,70,1820.666667,0.291667,TripletThirtySecond,D6
4353,Right,0,81,70,1821.0,0.291667,TripletThirtySecond,A5
4354,Left,1,76,70,1821.0,0.958333,Sixteenth,E5
4355,Right,0,80,70,1821.333333,0.291667,TripletThirtySecond,G#5
4356,Right,0,83,70,1821.666667,0.291667,TripletThirtySecond,B5
4357,Left,1,76,70,1822.0,0.958333,Sixteenth,E5
4358,Right,0,81,70,1822.0,0.291667,TripletThirtySecond,A5
4359,Right,0,84,70,1822.333333,0.291667,TripletThirtySecond,C6
4360,Right,0,83,70,1822.666667,0.291667,TripletThirtySecond,B5
4361,Left,1,76,70,1823.0,0.958333,Sixteenth,E5
4362,Right,0,81,70,1823.0,0.291667,TripletThirtySecond,A5
4363,Right,0,80,70,1823.333333,0.291667,TripletThirtySecond,G#5
4364,Right,0,83,70,1823.666667,0.291667,TripletThirtySecond,B5
4365,Right,0,84,70,1824.0,0.291667,TripletThirtySecond,C6
4366,Left,1,69,70,1824.0,0.958333,Sixteenth,A4
4367,Right,0,86,70,1824.333333,0.291667,TripletThirtySecond,D6
4368,Right,0,84,70,1824.666667,0.291667,TripletThirtySecond,C6
4370,Right,0,83,70,1825.0,0.291667,TripletThirtySecond,B5
4369,Left,1,81,70,1825.0,0.958333,Sixteenth,A5
4371,Right,0,84,70,1825.333333,0.291667,TripletThirtySecond,C6
4372,Right,0,83,70,1825.666667,0.291667,TripletThirtySecond,B5
4373,Left,1,80,70,1826.0,0.958333,Sixteenth,G#5
4374,Right,0,84,70,1826.0,0.291667,TripletThirtySecond,C6
4375,Right,0,86,70,1826.333333,0.291667,TripletThirtySecond,D6
4376,Right,0,84,70,1826.666667,0.291667,TripletThirtySecond,C6
4378,Left,1,79,70,1827.0,0.958333,Sixteenth,G5
4377,Right,0,86,70,1827.0,0.291667,TripletThirtySecond,D6
4379,Right,0,88,70,1827.333333,0.291667,TripletThirtySecond,E6
4380,Right,0,85,70,1827.666667,0.291667,TripletThirtySecond,C#6
4381,Right,0,86,70,1828.0,0.291667,TripletThirtySecond,D6
4382,Left,1,79,70,1828.0,0.958333,Sixteenth,G5
4383,Right,0,83,70,1828.333333,0.291667,TripletThirtySecond,B5
4384,Right,0,84,70,1828.666667,0.291667,TripletThirtySecond,C6
4385,Left,1,79,70,1829.0,0.958333,Sixteenth,G5
4386,Right,0,82,70,1829.0,0.291667,TripletThirtySecond,A#5
4387,Right,0,83,70,1829.333333,0.291667,TripletThirtySecond,B5
4388,Right,0,81,70,1829.666667,0.291667,TripletThirtySecond,A5
4390,Right,0,83,70,1830.0,0.291667,TripletThirtySecond,B5
4389,Left,1,79,70,1830.0,0.958333,Sixteenth,G5
4391,Right,0,81,70,1830.333333,0.291667,TripletThirtySecond,A5
4392,Right,0,84,70,1830.666667,0.291667,TripletThirtySecond,C6
4393,Right,0,83,70,1831.0,0.291667,TripletThirtySecond,B5
4394,Left,1,79,70,1831.0,0.958333,Sixteenth,G5
4395,Right,0,86,70,1831.333333,0.291667,TripletThirtySecond,D6
4396,Right,0,84,70,1831.666667,0.291667,TripletThirtySecond,C6
4397,Right,0,86,70,1832.0,0.291667,TripletThirtySecond,D6
4398,Left,1,79,70,1832.0,0.958333,Sixteenth,G5
4399,Right,0,85,70,1832.333333,0.291667,TripletThirtySecond,C#6
4400,Right,0,87,70,1832.666667,0.291667,TripletThirtySecond,D#6
4401,Right,0,86,70,1833.0,0.291667,TripletThirtySecond,D6
4402,Left,1,79,70,1833.0,0.958333,Sixteenth,G5
4403,Right,0,88,70,1833.333333,0.291667,TripletThirtySecond,E6
4404,Right,0,86,70,1833.666667,0.291667,TripletThirtySecond,D6
4405,Left,1,79,70,1834.0,0.958333,Sixteenth,G5
4406,Right,0,89,70,1834.0,0.291667,TripletThirtySecond,F6
4407,Right,0,86,70,1834.333333,0.291667,TripletThirtySecond,D6
4408,Right,0,88,70,1834.666667,0.291667,TripletThirtySecond,E6
4409,Right,0,87,70,1835.0,0.291667,TripletThirtySecond,D#6
4410,Left,1,79,70,1835.0,0.958333,Sixteenth,G5
4411,Right,0,89,70,1835.333333,0.291667,TripletThirtySecond,F6
4412,Right,0,87,70,1835.666667,0.291667,TripletThirtySecond,D#6
4414,Right,0,88,70,1836.0,0.291667,TripletThirtySecond,E6
4413,Left,1,79,70,1836.0,0.958333,Sixteenth,G5
4415,Right,0,89,70,1836.333333,0.291667,TripletThirtySecond,F6
4416,Right,0,87,70,1836.666667,0.291667,TripletThirtySecond,D#6
4417,Right,0,88,70,1837.0,0.291667,TripletThirtySecond,E6
4418,Left,1,79,70,1837.0,0.958333,Sixteenth,G5
4419,Right,0,85,70,1837.333333,0.291667,TripletThirtySecond,C#6
4420,Right,0,86,70,1837.666667,0.291667,TripletThirtySecond,D6
4422,Left,1,79,70,1838.0,0.958333,Sixteenth,G5
4421,Right,0,83,70,1838.0,0.291667,TripletThirtySecond,B5
4423,Right,0,86,70,1838.333333,0.291667,TripletThirtySecond,D6
4424,Right,0,84,70,1838.666667,0.291667,TripletThirtySecond,C6
4425,Left,1,79,70,1839.0,0.958333,Sixteenth,G5
4426,Right,0,86,70,1839.0,0.291667,TripletThirtySecond,D6
4427,Right,0,88,70,1839.333333,0.291667,TripletThirtySecond,E6
4428,Right,0,86,70,1839.666667,0.291667,TripletThirtySecond,D6
4429,Left,1,79,70,1840.0,0.958333,Sixteenth,G5
4430,Right,0,88,70,1840.0,0.291667,TripletThirtySecond,E6
4431,Right,0,89,70,1840.333333,0.291667,TripletThirtySecond,F6
4432,Right,0,88,70,1840.666667,0.291667,TripletThirtySecond,E6
4433,Left,1,79,70,1841.0,0.958333,Sixteenth,G5
4434,Right,0,89,70,1841.0,0.291667,TripletThirtySecond,F6
4435,Right,0,87,70,1841.333333,0.291667,TripletThirtySecond,D#6
4436,Right,0,88,70,1841.666667,0.291667,TripletThirtySecond,E6
4438,Right,0,89,70,1842.0,0.291667,TripletThirtySecond,F6
4437,Left,1,81,70,1842.0,0.958333,Sixteenth,A5
4439,Right,0,91,70,1842.333333,0.291667,TripletThirtySecond,G6
4440,Right,0,88,70,1842.666667,0.291667,TripletThirtySecond,E6
4441,Right,0,89,70,1843.0,0.291667,TripletThirtySecond,F6
4442,Left,1,80,70,1843.0,0.958333,Sixteenth,G#5
4443,Right,0,88,70,1843.333333,0.291667,TripletThirtySecond,E6
4444,Right,0,89,70,1843.666667,0.291667,TripletThirtySecond,F6
4445,Right,0,88,70,1844.0,0.291667,TripletThirtySecond,E6
4446,Left,1,81,70,1844.0,0.958333,Sixteenth,A5
4447,Right,0,91,70,1844.333333,0.291667,TripletThirtySecond,G6
4448,Right,0,89,70,1844.666667,0.291667,TripletThirtySecond,F6
4449,Right,0,86,70,1845.0,0.291667,TripletThirtySecond,D6
4450,Left,1,82,70,1845.0,0.958333,Sixteenth,A#5
4451,Right,0,89,70,1845.333333,0.291667,TripletThirtySecond,F6
4452,Right,0,86,70,1845.666667,0.291667,TripletThirtySecond,D6
4454,Right,0,89,70,1846.0,0.291667,TripletThirtySecond,F6
4453,Left,1,82,70,1846.0,0.958333,Sixteenth,A#5
4455,Right,0,86,70,1846.333333,0.291667,TripletThirtySecond,D6
4456,Right,0,89,70,1846.666667,0.291667,TripletThirtySecond,F6
4457,Right,0,86,70,1847.0,0.291667,TripletThirtySecond,D6
4458,Left,1,82,70,1847.0,0.958333,Sixteenth,A#5
4459,Right,0,89,70,1847.333333,0.291667,TripletThirtySecond,F6
4460,Right,0,86,70,1847.666667,0.291667,TripletThirtySecond,D6
4462,Left,1,83,70,1848.0,0.958333,Sixteenth,B5
4461,Right,0,89,70,1848.0,0.291667,TripletThirtySecond,F6
4463,Right,0,86,70,1848.333333,0.291667,TripletThirtySecond,D6
4464,Right,0,89,70,1848.666667,0.291667,TripletThirtySecond,F6
4466,Left,1,83,70,1849.0,0.958333,Sixteenth,B5
4465,Right,0,86,70,1849.0,0.291667,TripletThirtySecond,D6
4467,Right,0,90,70,1849.333333,0.291667,TripletThirtySecond,F#6
4468,Right,0,86,70,1849.666667,0.291667,TripletThirtySecond,D6
4470,Right,0,90,70,1850.0,0.291667,TripletThirtySecond,F#6
4469,Left,1,83,70,1850.0,0.958333,Sixteenth,B5
4471,Right,0,86,70,1850.333333,0.291667,TripletThirtySecond,D6
4472,Right,0,90,70,1850.666667,0.291667,TripletThirtySecond,F#6
4473,Left,1,83,70,1851.0,0.958333,Sixteenth,B5
4474,Right,0,86,70,1851.0,0.291667,TripletThirtySecond,D6
4475,Right,0,90,70,1851.333333,0.291667,TripletThirtySecond,F#6
4476,Right,0,86,70,1851.666667,0.291667,TripletThirtySecond,D6
4478,Left,1,83,70,1852.0,0.958333,Sixteenth,B5
4477,Right,0,91,70,1852.0,0.291667,TripletThirtySecond,G6
4479,Right,0,86,70,1852.333333,0.291667,TripletThirtySecond,D6
4480,Right,0,91,70,1852.666667,0.291667,TripletThirtySecond,G6
4481,Left,1,83,70,1853.0,0.958333,Sixteenth,B5
4482,Right,0,86,70,1853.0,0.291667,TripletThirtySecond,D6
4483,Right,0,91,70,1853.333333,0.291667,TripletThirtySecond,G6
4484,Right,0,86,70,1853.666667,0.291667,TripletThirtySecond,D6
4485,Right,0,91,70,1854.0,0.291667,TripletThirtySecond,G6
4486,Left,1,83,70,1854.0,0.958333,Sixteenth,B5
4487,Right,0,86,70,1854.333333,0.291667,TripletThirtySecond,D6
4488,Right,0,91,70,1854.666667,0.291667,TripletThirtySecond,G6
4491,Right,0,89,70,1855.0,0.291667,TripletThirtySecond,F6
4489,Left,1,83,70,1855.0,0.958333,Sixteenth,G5_B5
4492,Right,0,91,70,1855.333333,0.291667,TripletThirtySecond,G6
4493,Right,0,86,70,1855.666667,0.291667,TripletThirtySecond,D6
4495,Left,1,84,70,1856.0,0.958333,Sixteenth,C6
4494,Right,0,89,70,1856.0,0.291667,TripletThirtySecond,F6
4496,Right,0,86,70,1856.333333,0.291667,TripletThirtySecond,D6
4497,Right,0,88,70,1856.666667,0.291667,TripletThirtySecond,E6
4499,Left,1,84,70,1857.0,0.958333,Sixteenth,C6
4498,Right,0,91,70,1857.0,0.291667,TripletThirtySecond,G6
4500,Right,0,89,70,1857.333333,0.291667,TripletThirtySecond,F6
4501,Right,0,88,70,1857.666667,0.291667,TripletThirtySecond,E6
4502,Right,0,89,70,1858.0,0.291667,TripletThirtySecond,F6
4503,Left,1,79,70,1858.0,0.958333,Sixteenth,G5_E5_C5
4506,Right,0,88,70,1858.333333,0.291667,TripletThirtySecond,E6
4507,Right,0,86,70,1858.666667,0.291667,TripletThirtySecond,D6
4509,Right,0,89,70,1859.0,0.291667,TripletThirtySecond,F6
4508,Left,1,72,70,1859.0,0.958333,Sixteenth,G5_E5_C5
4512,Right,0,88,70,1859.333333,0.291667,TripletThirtySecond,E6
4513,Right,0,84,70,1859.666667,0.291667,TripletThirtySecond,C6
4517,Right,0,91,70,1860.0,0.291667,TripletThirtySecond,G6
4514,Left,1,72,70,1860.0,0.958333,Sixteenth,G5_E5_C5
4518,Right,0,89,70,1860.333333,0.291667,TripletThirtySecond,F6
4519,Right,0,88,70,1860.666667,0.291667,TripletThirtySecond,E6
4520,Right,0,89,70,1861.0,0.291667,TripletThirtySecond,F6
4521,Left,1,76,70,1861.0,0.958333,Sixteenth,G5_E5_C5
4524,Right,0,88,70,1861.333333,0.291667,TripletThirtySecond,E6
4525,Right,0,86,70,1861.666667,0.291667,TripletThirtySecond,D6
4526,Left,1,76,70,1862.0,0.958333,Sixteenth,G5_E5_C5
4528,Right,0,89,70,1862.0,0.291667,TripletThirtySecond,F6
4530,Right,0,88,70,1862.333333,0.291667,TripletThirtySecond,E6
4531,Right,0,84,70,1862.666667,0.291667,TripletThirtySecond,C6
4533,Right,0,89,70,1863.0,0.291667,TripletThirtySecond,F6
4532,Left,1,77,70,1863.0,0.958333,Sixteenth,G5_F5_D5_C5
4537,Right,0,88,70,1863.333333,0.291667,TripletThirtySecond,E6
4538,Right,0,86,70,1863.666667,0.291667,TripletThirtySecond,D6
4539,Right,0,88,70,1864.0,0.291667,TripletThirtySecond,E6
4540,Left,1,72,70,1864.0,0.958333,Sixteenth,G5_F5_D5_C5
4544,Right,0,86,70,1864.333333,0.291667,TripletThirtySecond,D6
4545,Right,0,83,70,1864.666667,0.291667,TripletThirtySecond,B5
4550,Right,0,86,70,1865.0,0.291667,TripletThirtySecond,D6
4546,Left,1,77,70,1865.0,0.958333,Sixteenth,G5_F5_D5_C5
4551,Right,0,84,70,1865.333333,0.291667,TripletThirtySecond,C6
4552,Right,0,83,70,1865.666667,0.291667,TripletThirtySecond,B5
4553,Left,1,79,70,1866.0,0.958333,Sixteenth,G5_F5_D5_C5
4554,Right,0,89,70,1866.0,0.291667,TripletThirtySecond,F6
4558,Right,0,88,70,1866.333333,0.291667,TripletThirtySecond,E6
4559,Right,0,86,70,1866.666667,0.291667,TripletThirtySecond,D6
4564,Right,0,88,70,1867.0,0.291667,TripletThirtySecond,E6
4560,Left,1,72,70,1867.0,0.958333,Sixteenth,G5_F5_D5_C5
4565,Right,0,86,70,1867.333333,0.291667,TripletThirtySecond,D6
4566,Right,0,83,70,1867.666667,0.291667,TripletThirtySecond,B5
4568,Right,0,86,70,1868.0,0.291667,TripletThirtySecond,D6
4567,Left,1,74,70,1868.0,0.958333,Sixteenth,G5_F5_D5_C5
4572,Right,0,84,70,1868.333333,0.291667,TripletThirtySecond,C6
4573,Right,0,83,70,1868.666667,0.291667,TripletThirtySecond,B5
4577,Right,0,89,70,1869.0,0.291667,TripletThirtySecond,F6
4574,Left,1,77,70,1869.0,0.958333,Sixteenth,G5_F5_D5_C5
4579,Right,0,88,70,1869.333333,0.291667,TripletThirtySecond,E6
4580,Right,0,86,70,1869.666667,0.291667,TripletThirtySecond,D6
4581,Left,1,79,70,1870.0,0.958333,Sixteenth,G5_F5_D5_C5
4585,Right,0,88,70,1870.0,0.291667,TripletThirtySecond,E6
4586,Right,0,86,70,1870.333333,0.291667,TripletThirtySecond,D6
4587,Right,0,83,70,1870.666667,0.291667,TripletThirtySecond,B5
4588,Right,0,86,70,1871.0,0.291667,TripletThirtySecond,D6
4589,Left,1,72,70,1871.0,0.958333,Sixteenth,G5_F5_D5_C5
4593,Right,0,84,70,1871.333333,0.291667,TripletThirtySecond,C6
4594,Right,0,83,70,1871.666667,0.291667,TripletThirtySecond,B5
4595,Right,0,91,70,1872.0,0.291667,TripletThirtySecond,G6
4596,Left,1,72,70,1872.0,0.958333,Sixteenth,G5_E5_C5
4599,Right,0,89,70,1872.333333,0.291667,TripletThirtySecond,F6
4600,Right,0,88,70,1872.666667,0.291667,TripletThirtySecond,E6
4601,Right,0,89,70,1873.0,0.291667,TripletThirtySecond,F6
4602,Left,1,72,70,1873.0,0.958333,Sixteenth,G5_E5_C5
4605,Right,0,88,70,1873.333333,0.291667,TripletThirtySecond,E6
4606,Right,0,86,70,1873.666667,0.291667,TripletThirtySecond,D6
4609,Right,0,89,70,1874.0,0.291667,TripletThirtySecond,F6
4607,Left,1,76,70,1874.0,0.958333,Sixteenth,G5_E5_C5
4611,Right,0,88,70,1874.333333,0.291667,TripletThirtySecond,E6
4612,Right,0,84,70,1874.666667,0.291667,TripletThirtySecond,C6
4613,Left,1,79,70,1875.0,0.291667,TripletThirtySecond,G5
4614,Left,1,77,70,1875.333333,0.291667,TripletThirtySecond,F5
4615,Left,1,76,70,1875.666667,0.291667,TripletThirtySecond,E5
4616,Left,1,77,70,1876.0,0.291667,TripletThirtySecond,F5
4617,Left,1,76,70,1876.333333,0.291667,TripletThirtySecond,E5
4618,Left,1,74,70,1876.666667,0.291667,TripletThirtySecond,D5
4619,Left,1,77,70,1877.0,0.291667,TripletThirtySecond,F5
4620,Left,1,76,70,1877.333333,0.291667,TripletThirtySecond,E5
4621,Left,1,72,70,1877.666667,0.291667,TripletThirtySecond,C5
4623,Right,0,79,70,1878.0,0.291667,TripletThirtySecond,G5
4622,Left,1,72,70,1878.0,0.958333,Sixteenth,C5
4624,Right,0,77,70,1878.333333,0.291667,TripletThirtySecond,F5
4625,Right,0,76,70,1878.666667,0.291667,TripletThirtySecond,E5
4626,Left,1,64,70,1879.0,0.958333,Sixteenth,G4_E4_C4
4627,Right,0,77,70,1879.0,0.291667,TripletThirtySecond,F5
4630,Right,0,76,70,1879.333333,0.291667,TripletThirtySecond,E5
4631,Right,0,74,70,1879.666667,0.291667,TripletThirtySecond,D5
4632,Left,1,60,70,1880.0,0.958333,Sixteenth,G4_E4_C4
4633,Right,0,77,70,1880.0,0.291667,TripletThirtySecond,F5
4636,Right,0,76,70,1880.333333,0.291667,TripletThirtySecond,E5
4637,Right,0,72,70,1880.666667,0.291667,TripletThirtySecond,C5
4638,Left,1,62,70,1881.0,0.958333,Sixteenth,G4_F4_D4_C4
4640,Right,0,77,70,1881.0,0.291667,TripletThirtySecond,F5
4643,Right,0,76,70,1881.333333,0.291667,TripletThirtySecond,E5
4644,Right,0,74,70,1881.666667,0.291667,TripletThirtySecond,D5
4649,Right,0,76,70,1882.0,0.291667,TripletThirtySecond,E5
4645,Left,1,67,70,1882.0,0.958333,Sixteenth,G4_F4_D4_C4
4650,Right,0,74,70,1882.333333,0.291667,TripletThirtySecond,D5
4651,Right,0,71,70,1882.666667,0.291667,TripletThirtySecond,B4
4652,Right,0,74,70,1883.0,0.291667,TripletThirtySecond,D5
4653,Left,1,67,70,1883.0,0.958333,Sixteenth,G4_F4_D4_C4
4657,Right,0,72,70,1883.333333,0.291667,TripletThirtySecond,C5
4658,Right,0,71,70,1883.666667,0.291667,TripletThirtySecond,B4
4660,Left,1,62,70,1884.0,0.958333,Sixteenth,G4_F4_D4_C4
4659,Right,0,77,70,1884.0,0.291667,TripletThirtySecond,F5
4664,Right,0,76,70,1884.333333,0.291667,TripletThirtySecond,E5
4665,Right,0,74,70,1884.666667,0.291667,TripletThirtySecond,D5
4666,Right,0,76,70,1885.0,0.291667,TripletThirtySecond,E5
4667,Left,1,60,70,1885.0,0.958333,Sixteenth,G4_F4_D4_C4
4671,Right,0,74,70,1885.333333,0.291667,TripletThirtySecond,D5
4672,Right,0,71,70,1885.666667,0.291667,TripletThirtySecond,B4
4673,Right,0,74,70,1886.0,0.291667,TripletThirtySecond,D5
4674,Left,1,67,70,1886.0,0.958333,Sixteenth,G4_F4_D4_C4
4678,Right,0,72,70,1886.333333,0.291667,TripletThirtySecond,C5
4679,Right,0,71,70,1886.666667,0.291667,TripletThirtySecond,B4
4684,Right,0,77,70,1887.0,0.291667,TripletThirtySecond,F5
4680,Left,1,67,70,1887.0,0.958333,Sixteenth,G4_F4_D4_C4
4685,Right,0,76,70,1887.333333,0.291667,TripletThirtySecond,E5
4686,Right,0,74,70,1887.666667,0.291667,TripletThirtySecond,D5
4688,Left,1,62,70,1888.0,0.958333,Sixteenth,G4_F4_D4_C4
4687,Right,0,76,70,1888.0,0.291667,TripletThirtySecond,E5
4692,Right,0,74,70,1888.333333,0.291667,TripletThirtySecond,D5
4693,Right,0,71,70,1888.666667,0.291667,TripletThirtySecond,B4
4695,Left,1,65,70,1889.0,0.958333,Sixteenth,G4_F4_D4_C4
4694,Right,0,74,70,1889.0,0.291667,TripletThirtySecond,D5
4699,Right,0,72,70,1889.333333,0.291667,TripletThirtySecond,C5
4700,Right,0,71,70,1889.666667,0.291667,TripletThirtySecond,B4
4701,Left,1,48,70,1890.0,0.958333,Sixteenth,C3
4702,Left,1,60,70,1890.333333,0.614583,TripletSixteenth,C4
4703,Left,1,64,70,1890.666667,0.572917,ThirtySecond,E4
4704,Left,1,52,70,1891.0,0.958333,Sixteenth,E3
4705,Left,1,60,70,1891.333333,0.625,TripletSixteenth,C4
4706,Left,1,64,70,1891.666667,0.5625,ThirtySecond,E4
4707,Left,1,55,70,1892.0,0.958333,Sixteenth,G3
4708,Left,1,60,70,1892.333333,0.635417,TripletSixteenth,C4
4709,Left,1,64,70,1892.666667,0.583333,TripletSixteenth,E4
4710,Right,0,72,70,1893.0,2.958333,DottedEighth,E5_C5
4712,Left,1,59,70,1893.0,0.989583,Sixteenth,B3
4713,Left,1,60,70,1893.333333,0.552083,ThirtySecond,C4
4714,Left,1,64,71,1893.666667,0.5625,ThirtySecond,E4
4715,Left,1,55,71,1894.0,0.979167,Sixteenth,G3
4716,Left,1,60,72,1894.333333,0.635417,TripletSixteenth,C4
4717,Left,1,64,72,1894.666667,0.604167,TripletSixteenth,E4
4718,Left,1,53,73,1895.0,0.989583,Sixteenth,F3
4719,Left,1,60,74,1895.333333,0.541667,ThirtySecond,C4
4720,Left,1,64,74,1895.666667,0.552083,ThirtySecond,E4
4721,Left,1,52,75,1896.0,0.989583,Sixteenth,E3
4722,Right,0,76,75,1896.0,5.958333,DottedQuarter,E5_C5
4724,Left,1,60,75,1896.333333,0.552083,ThirtySecond,C4
4725,Left,1,64,76,1896.666667,0.5625,ThirtySecond,E4
4726,Left,1,50,77,1897.0,0.989583,Sixteenth,D3
4727,Left,1,60,77,1897.333333,0.625,TripletSixteenth,C4
4728,Left,1,64,78,1897.666667,0.5625,ThirtySecond,E4
4729,Left,1,48,78,1898.0,0.989583,Sixteenth,C3
4730,Left,1,60,79,1898.333333,0.5625,ThirtySecond,C4
4731,Left,1,64,79,1898.666667,0.552083,ThirtySecond,E4
4732,Left,1,45,80,1899.0,0.979167,Sixteenth,A2
4733,Left,1,60,81,1899.333333,0.572917,ThirtySecond,C4
4734,Left,1,64,81,1899.666667,0.59375,TripletSixteenth,E4
4735,Left,1,48,82,1900.0,0.989583,Sixteenth,C3
4736,Left,1,57,82,1900.333333,0.614583,TripletSixteenth,A3
4737,Left,1,60,83,1900.666667,0.625,TripletSixteenth,C4
4738,Left,1,52,84,1901.0,0.989583,Sixteenth,E3
4739,Left,1,57,84,1901.333333,0.604167,TripletSixteenth,A3
4740,Left,1,60,85,1901.666667,0.59375,TripletSixteenth,C4
4743,Left,1,56,85,1902.0,0.989583,Sixteenth,G#3
4741,Right,0,76,85,1902.0,2.958333,DottedEighth,E6_E5_C6
4745,Left,1,57,86,1902.333333,0.5625,ThirtySecond,A3
4746,Left,1,60,87,1902.666667,0.5625,ThirtySecond,C4
4747,Left,1,52,87,1903.0,0.989583,Sixteenth,E3
4748,Left,1,57,88,1903.333333,0.604167,TripletSixteenth,A3
4749,Left,1,60,88,1903.666667,0.625,TripletSixteenth,C4
4750,Left,1,50,89,1904.0,0.989583,Sixteenth,D3
4751,Left,1,57,89,1904.333333,0.635417,TripletSixteenth,A3
4752,Left,1,60,90,1904.666667,0.625,TripletSixteenth,C4
4755,Left,1,48,91,1905.0,0.989583,Sixteenth,C3
4753,Right,0,84,91,1905.0,2.958333,DottedEighth,E6_E5_C6
4757,Left,1,57,91,1905.333333,0.5625,ThirtySecond,A3
4758,Left,1,60,92,1905.666667,0.635417,TripletSixteenth,C4
4759,Left,1,47,92,1906.0,0.989583,Sixteenth,B2
4760,Left,1,57,93,1906.333333,0.614583,TripletSixteenth,A3
4761,Left,1,60,94,1906.666667,0.625,TripletSixteenth,C4
4762,Left,1,45,94,1907.0,0.989583,Sixteenth,A2
4763,Left,1,57,95,1907.333333,0.572917,ThirtySecond,A3
4764,Left,1,60,95,1907.666667,0.614583,TripletSixteenth,C4
4765,Left,1,43,96,1908.0,0.989583,Sixteenth,G2
4766,Right,0,76,96,1908.0,2.958333,DottedEighth,E6_E5_C6
4769,Left,1,55,97,1908.333333,0.572917,ThirtySecond,G3
4770,Left,1,60,97,1908.666667,0.635417,TripletSixteenth,C4
4771,Left,1,48,98,1909.0,0.989583,Sixteenth,C3
4772,Left,1,55,98,1909.333333,0.541667,ThirtySecond,G3
4773,Left,1,60,99,1909.666667,0.59375,TripletSixteenth,C4
4774,Left,1,52,99,1910.0,0.989583,Sixteenth,E3
4775,Left,1,55,100,1910.333333,0.5625,ThirtySecond,G3
4776,Left,1,60,101,1910.666667,0.583333,TripletSixteenth,C4
4778,Right,0,77,101,1911.0,2.958333,DottedEighth,F6_F5_D6
4777,Left,1,43,101,1911.0,0.989583,Sixteenth,G2
4781,Left,1,55,102,1911.333333,0.635417,TripletSixteenth,G3
4782,Left,1,59,102,1911.666667,0.572917,ThirtySecond,B3
4783,Left,1,47,103,1912.0,0.989583,Sixteenth,B2
4784,Left,1,55,104,1912.333333,0.625,TripletSixteenth,G3
4785,Left,1,59,104,1912.666667,0.635417,TripletSixteenth,B3
4786,Left,1,50,105,1913.0,0.989583,Sixteenth,D3
4787,Left,1,55,105,1913.333333,0.59375,TripletSixteenth,G3
4788,Left,1,59,106,1913.666667,0.583333,TripletSixteenth,B3
4789,Right,0,86,107,1914.0,1.958333,Eighth,D6_D5_B5
4792,Left,1,43,107,1914.0,0.989583,Sixteenth,G2
4793,Left,1,50,107,1914.333333,0.635417,TripletSixteenth,D3
4794,Left,1,55,108,1914.666667,0.635417,TripletSixteenth,G3
4795,Left,1,43,108,1915.0,0.989583,Sixteenth,G2
4796,Left,1,53,109,1915.333333,0.604167,TripletSixteenth,F3
4797,Left,1,55,109,1915.666667,0.322917,TripletThirtySecond,G3
4799,Right,0,31,110,1916.0,1.291667,Triplet,G1
4798,Left,1,52,110,1916.0,1.291667,Triplet,E3
4800,Right,0,33,110,1916.333333,0.291667,TripletThirtySecond,A1
4801,Left,1,53,110,1916.333333,0.291667,TripletThirtySecond,F3
4802,Right,0,35,110,1916.666667,0.291667,TripletThirtySecond,B1
4803,Left,1,55,110,1916.666667,0.291667,TripletThirtySecond,G3
4804,Right,0,36,110,1917.0,1.291667,Triplet,C2
4805,Right,0,40,110,1917.333333,1.291667,Triplet,E2
4806,Right,0,43,110,1917.666667,1.291667,Triplet,G2
4807,Left,1,48,110,1918.0,1.291667,Triplet,C3
4808,Left,1,52,110,1918.333333,1.291667,Triplet,E3
4809,Left,1,55,110,1918.666667,1.291667,Triplet,G3
4810,Right,0,60,110,1919.0,1.291667,Triplet,C4
4811,Right,0,64,110,1919.333333,1.291667,Triplet,E4
4812,Right,0,67,110,1919.666667,1.291667,Triplet,G4
4813,Right,0,72,110,1920.0,1.291667,Triplet,C5
4814,Right,0,76,110,1921.0,0.625,TripletSixteenth,E5
4815,Right,0,79,110,1921.333333,0.625,TripletSixteenth,G5
4816,Right,0,84,110,1921.677083,1.291667,Triplet,C6
4817,Right,0,88,110,1922.0,1.291667,Triplet,E6
4818,Right,0,83,110,1923.333333,0.291667,TripletThirtySecond,B5
4819,Right,0,84,110,1923.666667,0.291667,TripletThirtySecond,C6
4820,Right,0,86,110,1924.0,0.291667,TripletThirtySecond,D6
4821,Right,0,83,110,1924.333333,0.291667,TripletThirtySecond,B5
4822,Right,0,84,110,1924.666667,0.291667,TripletThirtySecond,C6
4823,Right,0,88,110,1925.0,0.291667,TripletThirtySecond,E6
4824,Right,0,83,110,1925.333333,0.291667,TripletThirtySecond,B5
4825,Right,0,84,110,1925.666667,0.291667,TripletThirtySecond,C6
4826,Left,1,33,110,1926.0,1.291667,Triplet,A1
4827,Left,1,36,110,1926.333333,1.291667,Triplet,C2
4828,Left,1,40,110,1926.666667,1.291667,Triplet,E2
4829,Left,1,45,110,1927.0,1.291667,Triplet,A2
4830,Left,1,48,110,1927.333333,1.291667,Triplet,C3
4831,Left,1,52,110,1927.666667,1.291667,Triplet,E3
4832,Left,1,57,110,1928.0,1.291667,Triplet,A3
4833,Left,1,60,110,1928.333333,1.291667,Triplet,C4
4834,Left,1,64,110,1928.666667,1.291667,Triplet,E4
4835,Right,0,69,110,1929.0,1.291667,Triplet,A4
4836,Right,0,72,110,1930.0,0.625,TripletSixteenth,C5
4837,Right,0,76,110,1930.333333,0.625,TripletSixteenth,E5
4838,Right,0,76,110,1931.0,0.625,TripletSixteenth,E5
4839,Right,0,81,110,1931.25,0.666667,TripletSixteenth,A5
4840,Right,0,84,110,1931.5,0.46875,ThirtySecond,C6
4841,Right,0,88,110,1931.75,0.447917,ThirtySecond,E6
4842,Right,0,83,110,1932.333333,0.291667,TripletThirtySecond,B5
4843,Right,0,84,110,1932.666667,0.291667,TripletThirtySecond,C6
4844,Right,0,76,110,1933.0,0.291667,TripletThirtySecond,E5
4845,Right,0,83,110,1933.333333,0.291667,TripletThirtySecond,B5
4846,Right,0,84,110,1933.677083,0.291667,TripletThirtySecond,C6
4847,Right,0,88,110,1934.0,0.291667,TripletThirtySecond,E6
4848,Right,0,83,110,1934.333333,0.291667,TripletThirtySecond,B5
4849,Right,0,84,110,1934.666667,0.291667,TripletThirtySecond,C6
4850,Left,1,31,110,1935.0,1.291667,Triplet,G1
4851,Left,1,36,110,1935.333333,1.291667,Triplet,C2
4852,Left,1,40,110,1935.666667,1.291667,Triplet,E2
4853,Left,1,43,110,1936.0,1.291667,Triplet,G2
4854,Left,1,48,110,1936.333333,1.291667,Triplet,C3
4855,Left,1,52,110,1936.666667,1.291667,Triplet,E3
4857,Left,1,55,110,1937.0,0.958333,Sixteenth,G3
4856,Right,0,88,110,1937.0,0.291667,TripletThirtySecond,E6
4858,Right,0,84,110,1937.333333,0.291667,TripletThirtySecond,C6
4859,Right,0,76,110,1937.666667,0.291667,TripletThirtySecond,E5
4860,Left,1,31,110,1938.0,1.291667,Triplet,G1
4861,Left,1,35,110,1938.333333,1.291667,Triplet,B1
4862,Left,1,38,110,1938.677083,1.291667,Triplet,D2
4863,Left,1,43,110,1939.0,1.291667,Triplet,G2
4864,Left,1,47,110,1939.333333,1.291667,Triplet,B2
4865,Left,1,50,110,1939.677083,1.291667,Triplet,D3
4866,Right,0,89,110,1940.0,0.291667,TripletThirtySecond,F6
4867,Left,1,55,110,1940.0,0.958333,Sixteenth,G3
4868,Right,0,86,110,1940.333333,0.291667,TripletThirtySecond,D6
4869,Right,0,77,110,1940.677083,0.291667,TripletThirtySecond,F5
4870,Right,0,88,110,1941.0,0.291667,TripletThirtySecond,E6
4871,Right,0,84,110,1941.333333,0.291667,TripletThirtySecond,C6
4872,Right,0,76,110,1941.666667,0.291667,TripletThirtySecond,E5
4873,Right,0,89,110,1942.0,0.291667,TripletThirtySecond,F6
4874,Right,0,86,110,1942.333333,0.291667,TripletThirtySecond,D6
4875,Right,0,77,110,1942.666667,0.291667,TripletThirtySecond,F5
4876,Right,0,86,110,1943.0,0.291667,TripletThirtySecond,D6
4877,Right,0,83,110,1943.333333,0.291667,TripletThirtySecond,B5
4878,Right,0,74,110,1943.666667,0.291667,TripletThirtySecond,D5
4879,Right,0,73,110,1944.0,0.416667,ThirtySecond,C#5
4880,Right,0,74,110,1944.25,0.416667,ThirtySecond,D5
4881,Right,0,76,110,1944.5,0.416667,ThirtySecond,E5
4882,Right,0,74,110,1944.75,0.416667,ThirtySecond,D5
4883,Right,0,76,110,1945.0,0.416667,ThirtySecond,E5
4884,Right,0,74,110,1945.25,0.416667,ThirtySecond,D5
4885,Right,0,76,110,1945.5,0.416667,ThirtySecond,E5
4886,Right,0,74,110,1945.75,0.416667,ThirtySecond,D5
4887,Right,0,76,110,1946.0,0.416667,ThirtySecond,E5
4888,Right,0,74,110,1946.25,0.416667,ThirtySecond,D5
4889,Right,0,76,110,1946.5,0.416667,ThirtySecond,E5
4890,Right,0,74,110,1946.75,0.416667,ThirtySecond,D5
4891,Right,0,76,110,1947.0,0.416667,ThirtySecond,E5
4892,Right,0,74,110,1947.25,0.416667,ThirtySecond,D5
4893,Right,0,76,110,1947.5,0.416667,ThirtySecond,E5
4894,Right,0,74,110,1947.75,0.416667,ThirtySecond,D5
4895,Right,0,76,110,1948.0,0.416667,ThirtySecond,E5
4896,Right,0,74,110,1948.25,0.416667,ThirtySecond,D5
4897,Right,0,76,110,1948.5,0.416667,ThirtySecond,E5
4898,Right,0,74,110,1948.75,0.416667,ThirtySecond,D5
4899,Right,0,76,110,1949.0,0.416667,ThirtySecond,E5
4900,Right,0,74,110,1949.25,0.416667,ThirtySecond,D5
4901,Right,0,76,110,1949.5,0.416667,ThirtySecond,E5
4902,Right,0,74,110,1949.75,0.416667,ThirtySecond,D5
4905,Right,0,76,110,1950.0,0.416667,ThirtySecond,E5
4903,Left,1,36,110,1950.0,1.958333,Eighth,C3_C2
4906,Right,0,74,110,1950.25,0.416667,ThirtySecond,D5
4907,Right,0,76,110,1950.5,0.416667,ThirtySecond,E5
4908,Right,0,74,110,1950.75,0.416667,ThirtySecond,D5
4909,Right,0,76,110,1951.0,0.416667,ThirtySecond,E5
4910,Right,0,74,110,1951.25,0.416667,ThirtySecond,D5
4911,Right,0,76,110,1951.5,0.416667,ThirtySecond,E5
4912,Right,0,74,110,1951.75,0.416667,ThirtySecond,D5
4913,Right,0,76,110,1952.0,0.416667,ThirtySecond,E5
4914,Left,1,31,110,1952.0,0.958333,Sixteenth,G2_G1
4916,Right,0,74,110,1952.25,0.416667,ThirtySecond,D5
4917,Right,0,76,110,1952.5,0.416667,ThirtySecond,E5
4918,Right,0,74,110,1952.75,0.416667,ThirtySecond,D5
4919,Left,1,31,110,1953.0,5.958333,DottedQuarter,G2_G1
4921,Right,0,76,110,1953.0,0.416667,ThirtySecond,E5
4922,Right,0,74,110,1953.25,0.416667,ThirtySecond,D5
4923,Right,0,76,110,1953.5,0.416667,ThirtySecond,E5
4924,Right,0,74,110,1953.75,0.416667,ThirtySecond,D5
4925,Right,0,76,110,1954.0,0.416667,ThirtySecond,E5
4926,Right,0,74,110,1954.25,0.416667,ThirtySecond,D5
4927,Right,0,76,110,1954.5,0.416667,ThirtySecond,E5
4928,Right,0,74,110,1954.75,0.416667,ThirtySecond,D5
4929,Right,0,76,110,1955.0,0.416667,ThirtySecond,E5
4930,Right,0,74,110,1955.25,0.416667,ThirtySecond,D5
4931,Right,0,76,110,1955.5,0.416667,ThirtySecond,E5
4932,Right,0,74,110,1955.75,0.416667,ThirtySecond,D5
4933,Right,0,76,110,1956.0,0.416667,ThirtySecond,E5
4934,Right,0,74,110,1956.25,0.416667,ThirtySecond,D5
4935,Right,0,76,110,1956.5,0.416667,ThirtySecond,E5
4936,Right,0,74,110,1956.75,0.416667,ThirtySecond,D5
4937,Right,0,76,110,1957.0,0.416667,ThirtySecond,E5
4938,Right,0,74,110,1957.25,0.416667,ThirtySecond,D5
4939,Right,0,76,104,1957.5,0.416667,ThirtySecond,E5
4940,Right,0,74,98,1957.75,0.416667,ThirtySecond,D5
4941,Right,0,76,92,1958.0,0.416667,ThirtySecond,E5
4942,Right,0,74,86,1958.25,0.416667,ThirtySecond,D5
4943,Right,0,76,80,1958.5,0.416667,ThirtySecond,E5
4944,Right,0,74,80,1958.75,0.416667,ThirtySecond,D5
4946,Right,0,81,80,1959.0,1.958333,Eighth,E5_A5
4945,Left,1,72,80,1959.0,1.958333,Eighth,C5
4948,Right,0,74,80,1959.25,0.416667,ThirtySecond,D5
4949,Right,0,76,80,1959.5,0.416667,ThirtySecond,E5
4950,Right,0,74,80,1959.75,0.416667,ThirtySecond,D5
4951,Right,0,76,80,1960.0,0.416667,ThirtySecond,E5
4952,Right,0,74,80,1960.25,0.416667,ThirtySecond,D5
4953,Right,0,76,80,1960.5,0.416667,ThirtySecond,E5
4954,Right,0,74,80,1960.75,0.416667,ThirtySecond,D5
4955,Right,0,79,80,1961.0,0.958333,Sixteenth,G5_E5
4956,Left,1,71,80,1961.0,0.958333,Sixteenth,B4
4958,Right,0,74,80,1961.25,0.416667,ThirtySecond,D5
4959,Right,0,76,80,1961.5,0.416667,ThirtySecond,E5
4960,Right,0,74,80,1961.75,0.416667,ThirtySecond,D5
4961,Left,1,71,80,1962.0,5.958333,DottedQuarter,B4
4962,Right,0,79,80,1962.0,5.958333,DottedQuarter,G5_E5
4964,Right,0,74,80,1962.25,0.416667,ThirtySecond,D5
4965,Right,0,76,80,1962.5,0.416667,ThirtySecond,E5
4966,Right,0,74,80,1962.75,0.416667,ThirtySecond,D5
4967,Right,0,76,80,1963.0,0.416667,ThirtySecond,E5
4968,Right,0,74,80,1963.25,0.416667,ThirtySecond,D5
4969,Right,0,76,80,1963.5,0.416667,ThirtySecond,E5
4970,Right,0,74,80,1963.75,0.416667,ThirtySecond,D5
4971,Right,0,76,80,1964.0,0.416667,ThirtySecond,E5
4972,Right,0,74,80,1964.25,0.416667,ThirtySecond,D5
4973,Right,0,76,80,1964.5,0.416667,ThirtySecond,E5
4974,Right,0,74,80,1964.75,0.416667,ThirtySecond,D5
4975,Right,0,75,80,1965.0,0.416667,ThirtySecond,D#5
4976,Right,0,74,80,1965.25,0.416667,ThirtySecond,D5
4977,Right,0,75,80,1965.5,0.416667,ThirtySecond,D#5
4978,Right,0,74,80,1965.75,0.416667,ThirtySecond,D5
4979,Right,0,75,80,1966.0,0.416667,ThirtySecond,D#5
4980,Right,0,74,80,1966.25,0.416667,ThirtySecond,D5
4981,Right,0,75,80,1966.5,0.416667,ThirtySecond,D#5
4982,Right,0,74,80,1966.75,0.416667,ThirtySecond,D5
4983,Right,0,75,80,1967.0,0.416667,ThirtySecond,D#5
4984,Right,0,74,80,1967.25,0.416667,ThirtySecond,D5
4985,Right,0,75,80,1967.5,0.416667,ThirtySecond,D#5
4986,Right,0,74,80,1967.75,0.416667,ThirtySecond,D5
4989,Left,1,72,80,1968.0,1.958333,Eighth,C5
4987,Right,0,75,80,1968.0,1.958333,ThirtySecond,G#5_D#5
4990,Right,0,74,80,1968.25,0.416667,ThirtySecond,D5
4991,Right,0,75,80,1968.5,0.416667,ThirtySecond,D#5
4992,Right,0,74,80,1968.75,0.416667,ThirtySecond,D5
4993,Right,0,75,80,1969.0,0.416667,ThirtySecond,D#5
4994,Right,0,74,80,1969.25,0.416667,ThirtySecond,D5
4995,Right,0,75,80,1969.5,0.416667,ThirtySecond,D#5
4996,Right,0,74,80,1969.75,0.416667,ThirtySecond,D5
4997,Right,0,79,80,1970.0,0.958333,Sixteenth,G5_D#5
4999,Left,1,71,80,1970.0,0.958333,Sixteenth,B4
5000,Right,0,74,80,1970.25,0.416667,ThirtySecond,D5
5001,Right,0,75,80,1970.5,0.416667,ThirtySecond,D#5
5002,Right,0,74,80,1970.75,0.416667,ThirtySecond,D5
5003,Right,0,79,80,1971.0,1.958333,Eighth,G5_D#5
5004,Left,1,71,80,1971.0,1.958333,Eighth,B4
5006,Right,0,74,80,1971.25,0.416667,ThirtySecond,D5
5007,Right,0,75,80,1971.5,0.416667,ThirtySecond,D#5
5008,Right,0,74,80,1971.75,0.416667,ThirtySecond,D5
5009,Right,0,75,80,1972.0,0.416667,ThirtySecond,D#5
5010,Right,0,74,80,1972.25,0.416667,ThirtySecond,D5
5011,Right,0,75,80,1972.5,0.416667,ThirtySecond,D#5
5012,Right,0,74,80,1972.75,0.416667,ThirtySecond,D5
5013,Right,0,75,80,1973.0,0.416667,ThirtySecond,D#5
5014,Right,0,74,80,1973.25,0.416667,ThirtySecond,D5
5015,Right,0,75,80,1973.5,0.416667,ThirtySecond,D#5
5016,Right,0,74,80,1973.75,0.416667,ThirtySecond,D5
5017,Right,0,75,80,1974.0,1.958333,ThirtySecond,G5_D#5
5018,Left,1,71,80,1974.0,1.958333,Eighth,B4
5020,Right,0,74,80,1974.25,0.416667,ThirtySecond,D5
5021,Right,0,75,80,1974.5,0.416667,ThirtySecond,D#5
5022,Right,0,74,80,1974.75,0.416667,ThirtySecond,D5
5023,Right,0,75,80,1975.0,0.416667,ThirtySecond,D#5
5024,Right,0,74,80,1975.25,0.416667,ThirtySecond,D5
5025,Right,0,75,80,1975.5,0.416667,ThirtySecond,D#5
5026,Right,0,74,80,1975.75,0.416667,ThirtySecond,D5
5027,Right,0,75,80,1976.0,0.416667,ThirtySecond,D#5
5028,Right,0,74,80,1976.25,0.416667,ThirtySecond,D5
5029,Right,0,75,80,1976.5,0.416667,ThirtySecond,D#5
5030,Right,0,74,80,1976.75,0.416667,ThirtySecond,D5
5031,Right,0,79,80,1977.0,1.958333,Eighth,G5_D#5
5032,Left,1,71,80,1977.0,1.958333,Eighth,B4
5034,Right,0,74,80,1977.25,0.416667,ThirtySecond,D5
5035,Right,0,75,80,1977.5,0.416667,ThirtySecond,D#5
5036,Right,0,74,80,1977.75,0.416667,ThirtySecond,D5
5037,Right,0,75,80,1978.0,0.416667,ThirtySecond,D#5
5038,Right,0,74,80,1978.25,0.416667,ThirtySecond,D5
5039,Right,0,75,80,1978.5,0.416667,ThirtySecond,D#5
5040,Right,0,74,80,1978.75,0.416667,ThirtySecond,D5
5041,Right,0,75,80,1979.0,0.416667,ThirtySecond,D#5
5042,Right,0,74,80,1979.25,0.416667,ThirtySecond,D5
5043,Right,0,75,80,1979.5,0.416667,ThirtySecond,D#5
5044,Right,0,74,80,1979.75,0.416667,ThirtySecond,D5
5045,Left,1,71,80,1980.0,2.958333,DottedEighth,B4
5046,Right,0,79,80,1980.0,2.958333,DottedEighth,G5_D#5
5048,Right,0,74,80,1980.25,0.416667,ThirtySecond,D5
5049,Right,0,75,80,1980.5,0.416667,ThirtySecond,D#5
5050,Right,0,74,80,1980.75,0.416667,ThirtySecond,D5
5051,Right,0,75,80,1981.0,0.416667,ThirtySecond,D#5
5052,Right,0,74,80,1981.25,0.416667,ThirtySecond,D5
5053,Right,0,75,80,1981.5,0.416667,ThirtySecond,D#5
5054,Right,0,74,80,1981.75,0.416667,ThirtySecond,D5
5055,Right,0,75,80,1982.0,0.416667,ThirtySecond,D#5
5056,Right,0,74,80,1982.25,0.416667,ThirtySecond,D5
5057,Right,0,75,80,1982.5,0.416667,ThirtySecond,D#5
5058,Right,0,74,80,1982.75,0.416667,ThirtySecond,D5
5059,Left,1,70,80,1983.0,2.958333,DottedEighth,A#4
5060,Right,0,75,80,1983.0,2.958333,ThirtySecond,G#5_D#5
5062,Right,0,74,80,1983.25,0.416667,ThirtySecond,D5
5063,Right,0,75,80,1983.5,0.416667,ThirtySecond,D#5
5064,Right,0,74,80,1983.75,0.416667,ThirtySecond,D5
5065,Right,0,75,80,1984.0,0.416667,ThirtySecond,D#5
5066,Right,0,74,80,1984.25,0.416667,ThirtySecond,D5
5067,Right,0,75,80,1984.5,0.416667,ThirtySecond,D#5
5068,Right,0,74,80,1984.75,0.416667,ThirtySecond,D5
5069,Right,0,75,80,1985.0,0.416667,ThirtySecond,D#5
5070,Right,0,74,80,1985.25,0.416667,ThirtySecond,D5
5071,Right,0,75,80,1985.5,0.416667,ThirtySecond,D#5
5072,Right,0,74,80,1985.75,0.416667,ThirtySecond,D5
5073,Right,0,75,80,1986.0,2.958333,ThirtySecond,G#5_D#5
5074,Left,1,41,80,1986.0,1.958333,Eighth,F3_F2
5077,Right,0,74,80,1986.25,0.416667,ThirtySecond,D5
5078,Right,0,75,80,1986.5,0.416667,ThirtySecond,D#5
5079,Right,0,74,80,1986.75,0.416667,ThirtySecond,D5
5080,Right,0,75,80,1987.0,0.416667,ThirtySecond,D#5
5081,Right,0,74,80,1987.25,0.416667,ThirtySecond,D5
5082,Right,0,75,80,1987.5,0.416667,ThirtySecond,D#5
5083,Right,0,74,80,1987.75,0.416667,ThirtySecond,D5
5084,Right,0,75,80,1988.0,0.416667,ThirtySecond,D#5
5085,Left,1,34,80,1988.0,0.958333,Sixteenth,A#2_A#1
5087,Right,0,74,80,1988.25,0.416667,ThirtySecond,D5
5088,Right,0,75,80,1988.5,0.416667,ThirtySecond,D#5
5089,Right,0,74,80,1988.75,0.416667,ThirtySecond,D5
5090,Left,1,46,80,1989.0,5.958333,DottedQuarter,A#2_A#1
5091,Right,0,75,80,1989.0,2.958333,ThirtySecond,G#5_D#5
5094,Right,0,74,80,1989.25,0.416667,ThirtySecond,D5
5095,Right,0,75,80,1989.5,0.416667,ThirtySecond,D#5
5096,Right,0,74,80,1989.75,0.416667,ThirtySecond,D5
5097,Right,0,75,80,1990.0,0.416667,ThirtySecond,D#5
5098,Right,0,74,80,1990.25,0.416667,ThirtySecond,D5
5099,Right,0,75,80,1990.5,0.416667,ThirtySecond,D#5
5100,Right,0,74,80,1990.75,0.416667,ThirtySecond,D5
5101,Right,0,75,80,1991.0,0.416667,ThirtySecond,D#5
5102,Right,0,74,80,1991.25,0.416667,ThirtySecond,D5
5103,Right,0,75,80,1991.5,0.416667,ThirtySecond,D#5
5104,Right,0,74,80,1991.75,0.416667,ThirtySecond,D5
5105,Right,0,75,80,1992.0,2.958333,ThirtySecond,G#5_D#5
5107,Right,0,74,80,1992.25,0.416667,ThirtySecond,D5
5108,Right,0,75,80,1992.5,0.416667,ThirtySecond,D#5
5109,Right,0,74,80,1992.75,0.416667,ThirtySecond,D5
5110,Right,0,75,80,1993.0,0.416667,ThirtySecond,D#5
5111,Right,0,74,80,1993.25,0.416667,ThirtySecond,D5
5112,Right,0,75,80,1993.5,0.416667,ThirtySecond,D#5
5113,Right,0,74,80,1993.75,0.416667,ThirtySecond,D5
5114,Right,0,75,80,1994.0,0.416667,ThirtySecond,D#5
5115,Right,0,74,80,1994.25,0.416667,ThirtySecond,D5
5116,Right,0,75,80,1994.5,0.416667,ThirtySecond,D#5
5117,Right,0,74,80,1994.75,0.416667,ThirtySecond,D5
5118,Right,0,75,80,1995.0,2.958333,ThirtySecond,G#5_D#5
5119,Left,1,65,80,1995.0,1.958333,Eighth,F4
5121,Right,0,74,80,1995.25,0.416667,ThirtySecond,D5
5122,Right,0,75,80,1995.5,0.416667,ThirtySecond,D#5
5123,Right,0,74,80,1995.75,0.416667,ThirtySecond,D5
5124,Right,0,75,80,1996.0,0.416667,ThirtySecond,D#5
5125,Right,0,74,80,1996.25,0.416667,ThirtySecond,D5
5126,Right,0,75,80,1996.5,0.416667,ThirtySecond,D#5
5127,Right,0,74,80,1996.75,0.416667,ThirtySecond,D5
5128,Right,0,75,80,1997.0,0.416667,ThirtySecond,D#5
5129,Left,1,58,80,1997.0,0.958333,Sixteenth,A#3
5130,Right,0,74,80,1997.25,0.416667,ThirtySecond,D5
5131,Right,0,75,80,1997.5,0.416667,ThirtySecond,D#5
5132,Right,0,74,80,1997.75,0.416667,ThirtySecond,D5
5134,Left,1,58,80,1998.0,2.958333,DottedEighth,G4_A#3
5133,Right,0,75,80,1998.0,0.416667,ThirtySecond,D#5_A#5
5139,Left,1,65,80,1998.25,0.416667,ThirtySecond,F4
5137,Right,0,80,80,1998.25,0.416667,ThirtySecond,G#5_D5
5142,Left,1,67,80,1998.5,0.416667,ThirtySecond,G4
5140,Right,0,82,80,1998.5,0.416667,ThirtySecond,D#5_A#5
5143,Left,1,65,81,1998.75,0.416667,ThirtySecond,F4
5144,Right,0,74,81,1998.75,0.416667,ThirtySecond,G#5_D5
5146,Left,1,67,81,1999.0,0.416667,ThirtySecond,G4
5147,Right,0,75,81,1999.0,0.416667,ThirtySecond,D#5_A#5
5149,Left,1,65,81,1999.25,0.416667,ThirtySecond,F4
5150,Right,0,74,81,1999.25,0.416667,ThirtySecond,G#5_D5
5153,Left,1,67,82,1999.5,0.416667,ThirtySecond,G4
5152,Right,0,82,82,1999.5,0.416667,ThirtySecond,D#5_A#5
5156,Right,0,74,82,1999.75,0.416667,ThirtySecond,G#5_D5
5155,Left,1,65,82,1999.75,0.416667,ThirtySecond,F4
5160,Left,1,67,82,2000.0,0.416667,ThirtySecond,G4
5158,Right,0,75,82,2000.0,0.416667,ThirtySecond,D#5_A#5
5163,Left,1,65,83,2000.25,0.416667,ThirtySecond,F4
5161,Right,0,80,83,2000.25,0.416667,ThirtySecond,G#5_D5
5164,Left,1,67,83,2000.5,0.416667,ThirtySecond,G4
5165,Right,0,82,83,2000.5,0.416667,ThirtySecond,D#5_A#5
5167,Left,1,65,83,2000.75,0.416667,ThirtySecond,F4
5168,Right,0,74,83,2000.75,0.416667,ThirtySecond,G#5_D5
5170,Left,1,67,84,2001.0,2.958333,ThirtySecond,G4_A#3
5171,Right,0,82,84,2001.0,0.416667,ThirtySecond,D#5_A#5
5174,Left,1,65,84,2001.25,0.416667,ThirtySecond,F4
5175,Right,0,80,84,2001.25,0.416667,ThirtySecond,G#5_D5
5177,Left,1,67,84,2001.5,0.416667,ThirtySecond,G4
5178,Right,0,75,84,2001.5,0.416667,ThirtySecond,D#5_A#5
5181,Right,0,74,85,2001.75,0.416667,ThirtySecond,G#5_D5
5180,Left,1,65,85,2001.75,0.416667,ThirtySecond,F4
5184,Right,0,75,85,2002.0,0.416667,ThirtySecond,D#5_A#5
5183,Left,1,67,85,2002.0,0.416667,ThirtySecond,G4
5186,Right,0,80,85,2002.25,0.416667,ThirtySecond,G#5_D5
5187,Left,1,65,85,2002.25,0.416667,ThirtySecond,F4
5189,Right,0,75,85,2002.5,0.416667,ThirtySecond,D#5_A#5
5191,Left,1,67,85,2002.5,0.416667,ThirtySecond,G4
5193,Right,0,80,86,2002.75,0.416667,ThirtySecond,G#5_D5
5192,Left,1,65,86,2002.75,0.416667,ThirtySecond,F4
5196,Right,0,82,86,2003.0,0.416667,ThirtySecond,D#5_A#5
5195,Left,1,67,86,2003.0,0.416667,ThirtySecond,G4
5200,Left,1,65,86,2003.25,0.416667,ThirtySecond,F4
5198,Right,0,80,86,2003.25,0.416667,ThirtySecond,G#5_D5
5201,Left,1,67,87,2003.5,0.416667,ThirtySecond,G4
5202,Right,0,82,87,2003.5,0.416667,ThirtySecond,D#5_A#5
5204,Right,0,80,87,2003.75,0.416667,ThirtySecond,G#5_D5
5205,Left,1,65,87,2003.75,0.416667,ThirtySecond,F4
5207,Right,0,75,87,2004.0,0.416667,ThirtySecond,D#5_A#5
5208,Left,1,58,87,2004.0,2.958333,DottedEighth,G4_A#3
5213,Left,1,65,88,2004.25,0.416667,ThirtySecond,F4
5211,Right,0,74,88,2004.25,0.416667,ThirtySecond,G#5_D5
5214,Right,0,75,88,2004.5,0.416667,ThirtySecond,D#5_A#5
5216,Left,1,67,88,2004.5,0.416667,ThirtySecond,G4
5217,Right,0,74,88,2004.75,0.416667,ThirtySecond,G#5_D5
5219,Left,1,65,88,2004.75,0.416667,ThirtySecond,F4
5220,Right,0,75,89,2005.0,0.416667,ThirtySecond,D#5_A#5
5222,Left,1,67,89,2005.0,0.416667,ThirtySecond,G4
5224,Right,0,74,89,2005.25,0.416667,ThirtySecond,G#5_D5
5223,Left,1,65,89,2005.25,0.416667,ThirtySecond,F4
5226,Left,1,67,89,2005.5,0.416667,ThirtySecond,G4
5227,Right,0,75,89,2005.5,0.416667,ThirtySecond,D#5_A#5
5230,Right,0,74,90,2005.75,0.416667,ThirtySecond,G#5_D5
5229,Left,1,65,90,2005.75,0.416667,ThirtySecond,F4
5233,Left,1,67,90,2006.0,0.416667,ThirtySecond,G4
5232,Right,0,82,90,2006.0,0.416667,ThirtySecond,D#5_A#5
5237,Left,1,65,90,2006.25,0.416667,ThirtySecond,F4
5235,Right,0,74,90,2006.25,0.416667,ThirtySecond,G#5_D5
5240,Left,1,67,90,2006.5,0.416667,ThirtySecond,G4
5238,Right,0,75,90,2006.5,0.416667,ThirtySecond,D#5_A#5
5243,Left,1,65,90,2006.75,0.416667,ThirtySecond,F4
5241,Right,0,80,90,2006.75,0.416667,ThirtySecond,G#5_D5
5245,Right,0,75,90,2007.0,0.416667,ThirtySecond,D#5_A#5
5244,Left,1,58,90,2007.0,2.958333,DottedEighth,G4_A#3
5248,Right,0,80,90,2007.25,0.416667,ThirtySecond,G#5_D5
5250,Left,1,65,90,2007.25,0.416667,ThirtySecond,F4
5251,Right,0,82,90,2007.5,0.416667,ThirtySecond,D#5_A#5
5252,Left,1,67,90,2007.5,0.416667,ThirtySecond,G4
5254,Right,0,80,89,2007.75,0.416667,ThirtySecond,G#5_D5
5255,Left,1,65,89,2007.75,0.416667,ThirtySecond,F4
5257,Right,0,75,89,2008.0,0.416667,ThirtySecond,D#5_A#5
5259,Left,1,67,89,2008.0,0.416667,ThirtySecond,G4
5262,Left,1,65,89,2008.25,0.416667,ThirtySecond,F4
5260,Right,0,74,89,2008.25,0.416667,ThirtySecond,G#5_D5
5263,Right,0,82,88,2008.5,0.416667,ThirtySecond,D#5_A#5
5265,Left,1,67,88,2008.5,0.416667,ThirtySecond,G4
5268,Left,1,65,88,2008.75,0.416667,ThirtySecond,F4
5266,Right,0,80,88,2008.75,0.416667,ThirtySecond,G#5_D5
5269,Right,0,82,88,2009.0,0.416667,ThirtySecond,D#5_A#5
5271,Left,1,67,88,2009.0,0.416667,ThirtySecond,G4
5273,Right,0,74,87,2009.25,0.416667,ThirtySecond,G#5_D5
5272,Left,1,65,87,2009.25,0.416667,ThirtySecond,F4
5277,Left,1,67,87,2009.5,0.416667,ThirtySecond,G4
5275,Right,0,82,87,2009.5,0.416667,ThirtySecond,D#5_A#5
5278,Left,1,65,87,2009.75,0.416667,ThirtySecond,F4
5279,Right,0,74,87,2009.75,0.416667,ThirtySecond,G#5_D5
5282,Right,0,75,86,2010.0,0.416667,ThirtySecond,D#5_A#5
5281,Left,1,67,86,2010.0,2.958333,ThirtySecond,G4_A#3
5286,Left,1,65,86,2010.25,0.416667,ThirtySecond,F4
5285,Right,0,74,86,2010.25,0.416667,ThirtySecond,G#5_D5
5289,Left,1,67,86,2010.5,0.416667,ThirtySecond,G4
5288,Right,0,82,86,2010.5,0.416667,ThirtySecond,D#5_A#5
5293,Left,1,65,85,2010.75,0.416667,ThirtySecond,F4
5291,Right,0,74,85,2010.75,0.416667,ThirtySecond,G#5_D5
5294,Right,0,82,85,2011.0,0.416667,ThirtySecond,D#5_A#5
5295,Left,1,67,85,2011.0,0.416667,ThirtySecond,G4
5297,Right,0,80,85,2011.25,0.416667,ThirtySecond,G#5_D5
5299,Left,1,65,85,2011.25,0.416667,ThirtySecond,F4
5300,Right,0,75,85,2011.5,0.416667,ThirtySecond,D#5_A#5
5301,Left,1,67,85,2011.5,0.416667,ThirtySecond,G4
5304,Right,0,74,84,2011.75,0.416667,ThirtySecond,G#5_D5
5303,Left,1,65,84,2011.75,0.416667,ThirtySecond,F4
5306,Right,0,75,84,2012.0,0.416667,ThirtySecond,D#5_A#5
5307,Left,1,67,84,2012.0,0.416667,ThirtySecond,G4
5309,Right,0,80,84,2012.25,0.416667,ThirtySecond,G#5_D5
5310,Left,1,65,84,2012.25,0.416667,ThirtySecond,F4
5312,Left,1,67,83,2012.5,0.416667,ThirtySecond,G4
5313,Right,0,82,83,2012.5,0.416667,ThirtySecond,D#5_A#5
5317,Left,1,65,83,2012.75,0.416667,ThirtySecond,F4
5315,Right,0,80,83,2012.75,0.416667,ThirtySecond,G#5_D5
5318,Right,0,75,83,2013.0,0.416667,ThirtySecond,D#5_A#5
5320,Left,1,67,83,2013.0,2.958333,ThirtySecond,G4_A#3
5322,Right,0,74,82,2013.25,0.416667,ThirtySecond,G#5_D5
5323,Left,1,65,82,2013.25,0.416667,ThirtySecond,F4
5326,Left,1,67,82,2013.5,0.416667,ThirtySecond,G4
5325,Right,0,82,82,2013.5,0.416667,ThirtySecond,D#5_A#5
5328,Right,0,74,82,2013.75,0.416667,ThirtySecond,G#5_D5
5330,Left,1,65,82,2013.75,0.416667,ThirtySecond,F4
5333,Left,1,67,81,2014.0,0.416667,ThirtySecond,G4
5331,Right,0,82,81,2014.0,0.416667,ThirtySecond,D#5_A#5
5334,Left,1,65,81,2014.25,0.416667,ThirtySecond,F4
5335,Right,0,74,81,2014.25,0.416667,ThirtySecond,G#5_D5
5338,Left,1,67,81,2014.5,0.416667,ThirtySecond,G4
5337,Right,0,82,81,2014.5,0.416667,ThirtySecond,D#5_A#5
5340,Right,0,74,80,2014.75,0.416667,ThirtySecond,G#5_D5
5341,Left,1,65,80,2014.75,0.416667,ThirtySecond,F4
5343,Right,0,75,80,2015.0,0.416667,ThirtySecond,D#5_A#5
5344,Left,1,67,80,2015.0,0.416667,ThirtySecond,G4
5346,Right,0,74,80,2015.25,0.416667,ThirtySecond,G#5_D5
5348,Left,1,65,80,2015.25,0.416667,ThirtySecond,F4
5349,Right,0,82,80,2015.5,0.416667,ThirtySecond,D#5_A#5
5351,Left,1,67,80,2015.5,0.416667,ThirtySecond,G4
5352,Right,0,80,80,2015.75,0.416667,ThirtySecond,G#5_D5
5354,Left,1,67,80,2016.0,2.958333,ThirtySecond,G4_F4_A#3
5356,Right,0,82,80,2016.0,0.416667,ThirtySecond,D#5_A#5
5359,Right,0,74,80,2016.25,0.416667,ThirtySecond,G#5_D5
5361,Left,1,65,80,2016.25,0.416667,ThirtySecond,F4
5362,Right,0,82,80,2016.5,0.416667,ThirtySecond,D#5_A#5
5364,Left,1,67,80,2016.5,0.416667,ThirtySecond,G4
5367,Left,1,65,80,2016.75,0.416667,ThirtySecond,F4
5365,Right,0,74,80,2016.75,0.416667,ThirtySecond,G#5_D5
5368,Right,0,75,80,2017.0,0.416667,ThirtySecond,D#5_A#5
5369,Left,1,67,80,2017.0,0.416667,ThirtySecond,G4
5371,Right,0,80,80,2017.25,0.416667,ThirtySecond,G#5_D5
5372,Left,1,65,80,2017.25,0.416667,ThirtySecond,F4
5374,Right,0,75,80,2017.5,0.416667,ThirtySecond,D#5_A#5
5376,Left,1,67,80,2017.5,0.416667,ThirtySecond,G4
5379,Left,1,65,80,2017.75,0.416667,ThirtySecond,F4
5377,Right,0,74,80,2017.75,0.416667,ThirtySecond,G#5_D5
5381,Right,0,75,80,2018.0,0.416667,ThirtySecond,D#5_A#5
5380,Left,1,67,80,2018.0,0.416667,ThirtySecond,G4
5383,Left,1,65,80,2018.25,0.416667,ThirtySecond,F4
5384,Right,0,74,80,2018.25,0.416667,ThirtySecond,G#5_D5
5386,Left,1,67,80,2018.5,0.416667,ThirtySecond,G4
5387,Right,0,82,80,2018.5,0.416667,ThirtySecond,D#5_A#5
5391,Left,1,65,80,2018.75,0.416667,ThirtySecond,F4
5389,Right,0,74,80,2018.75,0.416667,ThirtySecond,G#5_D5
5392,Right,0,81,80,2019.0,0.416667,ThirtySecond,A5
5393,Right,0,82,80,2019.25,0.416667,ThirtySecond,A#5
5394,Right,0,81,80,2019.5,0.416667,ThirtySecond,A5
5395,Right,0,82,80,2019.75,0.416667,ThirtySecond,A#5
5396,Right,0,81,80,2020.0,0.416667,ThirtySecond,A5
5397,Right,0,82,80,2020.25,0.416667,ThirtySecond,A#5
5398,Right,0,81,80,2020.5,0.416667,ThirtySecond,A5
5399,Right,0,82,80,2020.75,0.416667,ThirtySecond,A#5
5400,Right,0,81,80,2021.0,0.416667,ThirtySecond,A5
5401,Right,0,82,80,2021.25,0.416667,ThirtySecond,A#5
5402,Right,0,81,80,2021.5,0.416667,ThirtySecond,A5
5403,Right,0,82,80,2022.0,0.166667,TripletSixtyFourth,A#5
5404,Right,0,84,80,2022.25,0.416667,ThirtySecond,C6
5405,Right,0,82,81,2022.5,0.416667,ThirtySecond,A#5
5406,Right,0,84,81,2022.75,0.416667,ThirtySecond,C6
5407,Right,0,82,82,2023.0,0.416667,ThirtySecond,A#5
5408,Right,0,84,82,2023.25,0.416667,ThirtySecond,C6
5409,Right,0,82,83,2023.5,0.416667,ThirtySecond,A#5
5410,Right,0,84,83,2023.75,0.416667,ThirtySecond,C6
5411,Right,0,82,83,2024.0,0.416667,ThirtySecond,A#5
5412,Right,0,84,84,2024.25,0.416667,ThirtySecond,C6
5413,Right,0,82,84,2024.5,0.416667,ThirtySecond,A#5
5414,Right,0,84,85,2024.75,0.416667,ThirtySecond,C6
5415,Right,0,82,85,2025.0,0.416667,ThirtySecond,A#5
5416,Right,0,84,86,2025.25,0.416667,ThirtySecond,C6
5417,Right,0,82,86,2025.5,0.416667,ThirtySecond,A#5
5418,Right,0,84,86,2025.75,0.416667,ThirtySecond,C6
5419,Right,0,82,87,2026.0,0.416667,ThirtySecond,A#5
5420,Right,0,84,87,2026.25,0.416667,ThirtySecond,C6
5421,Right,0,82,88,2026.5,0.416667,ThirtySecond,A#5
5422,Right,0,84,88,2026.75,0.416667,ThirtySecond,C6
5423,Right,0,82,89,2027.0,0.416667,ThirtySecond,A#5
5424,Right,0,84,89,2027.25,0.416667,ThirtySecond,C6
5425,Right,0,82,90,2027.5,0.416667,ThirtySecond,A#5
5426,Right,0,84,90,2027.75,0.416667,ThirtySecond,C6
5427,Right,0,83,90,2028.0,0.416667,ThirtySecond,B5
5428,Right,0,84,91,2028.25,0.416667,ThirtySecond,C6
5429,Right,0,83,91,2028.5,0.416667,ThirtySecond,B5
5430,Right,0,84,92,2028.75,0.416667,ThirtySecond,C6
5431,Right,0,83,92,2029.0,0.416667,ThirtySecond,B5
5432,Right,0,84,93,2029.25,0.416667,ThirtySecond,C6
5433,Right,0,83,93,2029.5,0.416667,ThirtySecond,B5
5434,Right,0,84,93,2029.75,0.416667,ThirtySecond,C6
5435,Right,0,83,94,2030.0,0.416667,ThirtySecond,B5
5436,Right,0,84,94,2030.25,0.416667,ThirtySecond,C6
5437,Right,0,83,95,2030.5,0.416667,ThirtySecond,B5
5438,Right,0,84,96,2031.0,0.166667,TripletSixtyFourth,C6
5439,Right,0,86,96,2031.25,0.416667,ThirtySecond,D6
5440,Right,0,84,97,2031.5,0.416667,ThirtySecond,C6
5441,Right,0,86,97,2031.75,0.416667,ThirtySecond,D6
5442,Right,0,84,97,2032.0,0.416667,ThirtySecond,C6
5443,Right,0,86,98,2032.25,0.416667,ThirtySecond,D6
5444,Right,0,84,98,2032.5,0.416667,ThirtySecond,C6
5445,Right,0,86,99,2032.75,0.416667,ThirtySecond,D6
5446,Right,0,84,99,2033.0,0.416667,ThirtySecond,C6
5447,Right,0,86,100,2033.25,0.416667,ThirtySecond,D6
5448,Right,0,84,100,2033.5,0.416667,ThirtySecond,C6
5449,Right,0,86,100,2033.75,0.416667,ThirtySecond,D6
5450,Right,0,84,101,2034.0,0.416667,ThirtySecond,C6
5451,Right,0,86,101,2034.25,0.416667,ThirtySecond,D6
5452,Right,0,84,102,2034.5,0.416667,ThirtySecond,C6
5453,Right,0,86,102,2034.75,0.416667,ThirtySecond,D6
5454,Right,0,84,103,2035.0,0.416667,ThirtySecond,C6
5455,Right,0,86,103,2035.25,0.416667,ThirtySecond,D6
5456,Right,0,84,104,2035.5,0.416667,ThirtySecond,C6
5457,Right,0,86,104,2035.75,0.416667,ThirtySecond,D6
5458,Right,0,84,104,2036.0,0.416667,ThirtySecond,C6
5459,Right,0,86,105,2036.25,0.416667,ThirtySecond,D6
5460,Right,0,84,105,2036.5,0.416667,ThirtySecond,C6
5461,Right,0,86,106,2036.75,0.416667,ThirtySecond,D6
5462,Right,0,85,106,2037.0,0.416667,ThirtySecond,C#6
5463,Right,0,86,107,2037.25,0.416667,ThirtySecond,D6
5464,Right,0,85,107,2037.5,0.416667,ThirtySecond,C#6
5465,Right,0,86,107,2037.75,0.416667,ThirtySecond,D6
5466,Right,0,85,108,2038.0,0.416667,ThirtySecond,C#6
5467,Right,0,86,108,2038.25,0.416667,ThirtySecond,D6
5468,Right,0,85,109,2038.5,0.416667,ThirtySecond,C#6
5469,Right,0,86,109,2038.75,0.416667,ThirtySecond,D6
5470,Right,0,85,110,2039.0,0.416667,ThirtySecond,C#6
5471,Right,0,86,110,2039.25,0.416667,ThirtySecond,D6
5472,Right,0,85,110,2039.5,0.416667,ThirtySecond,C#6
5473,Left,1,34,110,2040.0,10.958333,DottedHalf,A#1
5474,Right,0,86,110,2040.0,0.166667,TripletSixtyFourth,D6
5475,Right,0,87,109,2040.25,0.416667,ThirtySecond,D#6
5476,Right,0,86,109,2040.5,0.416667,ThirtySecond,D6
5477,Right,0,87,108,2040.75,0.416667,ThirtySecond,D#6
5478,Right,0,86,107,2041.0,0.416667,ThirtySecond,D6
5479,Right,0,87,107,2041.25,0.416667,ThirtySecond,D#6
5480,Right,0,86,106,2041.5,0.416667,ThirtySecond,D6
5481,Right,0,87,105,2041.75,0.416667,ThirtySecond,D#6
5482,Right,0,86,105,2042.0,0.416667,ThirtySecond,D6
5483,Right,0,87,104,2042.25,0.416667,ThirtySecond,D#6
5484,Right,0,86,103,2042.5,0.416667,ThirtySecond,D6
5485,Right,0,87,103,2042.75,0.416667,ThirtySecond,D#6
5486,Right,0,86,102,2043.0,0.416667,ThirtySecond,D6
5487,Right,0,87,102,2043.25,0.416667,ThirtySecond,D#6
5488,Right,0,86,101,2043.5,0.416667,ThirtySecond,D6
5489,Right,0,87,100,2043.75,0.416667,ThirtySecond,D#6
5490,Right,0,86,100,2044.0,0.416667,ThirtySecond,D6
5491,Right,0,87,99,2044.25,0.416667,ThirtySecond,D#6
5492,Right,0,86,98,2044.5,0.416667,ThirtySecond,D6
5493,Right,0,87,98,2044.75,0.416667,ThirtySecond,D#6
5494,Right,0,86,97,2045.0,0.416667,ThirtySecond,D6
5495,Right,0,87,96,2045.25,0.416667,ThirtySecond,D#6
5496,Right,0,86,96,2045.5,0.416667,ThirtySecond,D6
5497,Right,0,87,95,2045.75,0.416667,ThirtySecond,D#6
5498,Right,0,86,95,2046.0,0.416667,ThirtySecond,D6
5499,Right,0,87,94,2046.25,0.416667,ThirtySecond,D#6
5500,Right,0,86,93,2046.5,0.416667,ThirtySecond,D6
5501,Right,0,87,93,2046.75,0.416667,ThirtySecond,D#6
5502,Right,0,86,92,2047.0,0.416667,ThirtySecond,D6
5503,Right,0,87,91,2047.25,0.416667,ThirtySecond,D#6
5504,Right,0,86,91,2047.5,0.416667,ThirtySecond,D6
5505,Right,0,87,90,2047.75,0.416667,ThirtySecond,D#6
5506,Right,0,86,89,2048.0,0.416667,ThirtySecond,D6
5507,Right,0,87,89,2048.25,0.416667,ThirtySecond,D#6
5508,Right,0,86,88,2048.5,0.416667,ThirtySecond,D6
5509,Right,0,87,88,2048.75,0.416667,ThirtySecond,D#6
5510,Right,0,86,87,2049.0,0.416667,ThirtySecond,D6
5511,Right,0,87,86,2049.25,0.416667,ThirtySecond,D#6
5512,Right,0,86,86,2049.5,0.416667,ThirtySecond,D6
5513,Right,0,87,85,2049.75,0.416667,ThirtySecond,D#6
5514,Right,0,86,84,2050.0,0.416667,ThirtySecond,D6
5515,Right,0,87,84,2050.25,0.416667,ThirtySecond,D#6
5516,Right,0,86,83,2050.5,0.416667,ThirtySecond,D6
5517,Right,0,87,82,2050.75,0.416667,ThirtySecond,D#6
5518,Left,1,32,82,2051.0,0.958333,Sixteenth,G#1
5519,Right,0,86,82,2051.0,0.416667,ThirtySecond,D6
5520,Right,0,87,81,2051.25,0.416667,ThirtySecond,D#6
5521,Right,0,84,81,2051.5,0.416667,ThirtySecond,C6
5522,Right,0,86,80,2051.75,0.416667,ThirtySecond,D6
5524,Right,0,87,80,2052.0,2.989583,DottedEighth,D#6
5523,Left,1,31,80,2052.0,5.958333,DottedQuarter,G1
5525,Right,0,91,80,2055.0,2.989583,DottedEighth,G6
5527,Left,1,30,80,2058.0,2.958333,DottedEighth,F#1
5526,Right,0,94,80,2058.0,4.989583,TiedQuarter-Sixteenth,A#6
5528,Left,1,29,80,2061.0,4.958333,TiedQuarter-Sixteenth,F1
5529,Right,0,93,80,2063.0,0.989583,Sixteenth,A6
5530,Right,0,92,80,2064.0,0.989583,Sixteenth,G#6
5531,Right,0,80,80,2065.0,0.989583,Sixteenth,G#5
5533,Left,1,31,80,2066.0,0.958333,Sixteenth,G1
5532,Right,0,79,80,2066.0,0.989583,Sixteenth,G5_A#4
5535,Left,1,32,80,2067.0,1.958333,Eighth,G#1
5536,Right,0,72,80,2067.0,1.989583,Eighth,G5_C5
5538,Right,0,77,80,2068.0,0.989583,Sixteenth,F5
5541,Left,1,33,80,2069.0,0.958333,Sixteenth,A1
5539,Right,0,75,80,2069.0,0.989583,Sixteenth,D#5_C5
5542,Right,0,75,80,2070.0,0.989583,Sixteenth,G#4_F4_D#5
5545,Left,1,34,80,2070.0,1.958333,Eighth,A#1
5546,Right,0,65,80,2071.0,1.989583,Sixteenth,G#4_F4_D5
5549,Right,0,68,80,2072.0,0.989583,Sixteenth,G#4_F4
5551,Right,0,65,80,2073.0,0.989583,Sixteenth,G#4_F4
5553,Right,0,75,80,2074.0,1.958333,Sixteenth,G#4_F4_D#5
5556,Right,0,65,80,2075.0,0.958333,Sixteenth,G#4_F4
5558,Right,0,65,80,2076.0,0.958333,Sixteenth,G#4_F4
5560,Right,0,65,80,2077.0,0.958333,Sixteenth,G#4_F5_F4
5563,Right,0,68,80,2078.0,0.958333,Sixteenth,G#4_F4_A#4
5566,Right,0,70,80,2079.0,1.958333,Eighth,G4_A#4
5569,Left,1,39,80,2080.0,1.958333,Eighth,D#3_D#2
5568,Right,0,67,80,2080.0,0.958333,Sixteenth,G4
5571,Right,0,67,80,2081.0,0.958333,Sixteenth,G4
5572,Right,0,67,80,2082.0,0.958333,Sixteenth,G4
5575,Right,0,67,80,2083.0,0.958333,Sixteenth,G4
5573,Left,1,41,80,2083.0,1.958333,Eighth,F3_F2
5576,Right,0,67,80,2084.0,0.958333,Sixteenth,G4
5577,Right,0,63,80,2085.0,0.958333,Sixteenth,G4_D#4
5581,Left,1,43,80,2086.0,0.958333,Sixteenth,G3_G2
5579,Right,0,63,80,2086.0,0.958333,Sixteenth,G4_D#4
5583,Left,1,36,80,2087.0,0.958333,Sixteenth,C3_C2
5585,Right,0,63,80,2087.0,0.958333,Sixteenth,G4_D#4
5587,Left,1,47,80,2088.0,1.958333,Eighth,B2_B1
5589,Right,0,65,80,2088.0,0.958333,Sixteenth,G4_F4
5591,Right,0,67,80,2089.0,1.958333,Sixteenth,G4_F4_B4
5594,Right,0,67,80,2090.0,0.958333,Sixteenth,G4_F4
5596,Right,0,65,80,2091.0,0.958333,Sixteenth,G4_F4
5598,Right,0,67,80,2092.0,1.958333,Sixteenth,G4_F4_C5
5601,Right,0,67,80,2093.0,0.958333,Sixteenth,G4_F4
5603,Right,0,67,80,2094.0,0.958333,Sixteenth,G4_F4
5605,Right,0,74,80,2095.0,0.958333,Sixteenth,G4_F4_D5
5608,Right,0,67,80,2096.0,0.958333,Sixteenth,G4_F4
5610,Right,0,67,80,2097.0,1.958333,Eighth,G4_D#4
5613,Left,1,48,80,2098.0,1.958333,Eighth,C3_C2
5612,Right,0,63,80,2098.0,0.958333,Sixteenth,D#4
5615,Right,0,63,80,2099.0,0.958333,Sixteenth,D#4
5616,Right,0,63,80,2100.0,0.958333,Sixteenth,D#4
5618,Left,1,49,80,2101.0,1.958333,Eighth,C#3_C#2
5617,Right,0,63,80,2101.0,0.958333,Sixteenth,D#4
5620,Right,0,63,80,2102.0,0.958333,Sixteenth,D#4
5621,Right,0,63,80,2103.0,0.958333,Sixteenth,D#4_C4
5625,Left,1,51,80,2104.0,0.958333,Sixteenth,D#3_D#2
5623,Right,0,63,80,2104.0,0.958333,Sixteenth,D#4_C4
5628,Right,0,63,80,2105.0,0.958333,Sixteenth,D#4_C4
5627,Left,1,44,80,2105.0,0.958333,Sixteenth,G#2_G#1
5632,Right,0,63,80,2106.0,0.958333,Sixteenth,D#4_C#4
5631,Left,1,43,80,2106.0,1.958333,Eighth,G2_G1
5635,Right,0,67,80,2107.0,1.958333,Sixteenth,G4_D#4_C#4
5638,Right,0,61,80,2108.0,0.958333,Sixteenth,D#4_C#4
5640,Right,0,61,80,2109.0,0.958333,Sixteenth,D#4_C#4
5642,Right,0,61,80,2110.0,1.958333,Sixteenth,G#4_D#4_C#4
5645,Right,0,61,80,2111.0,0.958333,Sixteenth,D#4_C#4
5647,Right,0,61,80,2112.0,0.958333,Sixteenth,D#4_C#4
5649,Right,0,61,80,2113.0,0.958333,Sixteenth,D#4_C#4_A#4
5652,Right,0,61,80,2114.0,0.958333,Sixteenth,D#4_C#4
5654,Right,0,63,80,2115.0,1.958333,Eighth,D#4_C#4
5657,Left,1,56,80,2116.0,1.958333,Eighth,G#3_G#2
5656,Right,0,60,80,2116.0,0.958333,Sixteenth,C4
5659,Right,0,63,80,2117.0,0.958333,Sixteenth,D#4_C4
5661,Right,0,60,80,2118.0,0.958333,Sixteenth,D#4_C4
5663,Right,0,69,80,2119.0,0.958333,Sixteenth,D4_C4_A4
5664,Left,1,42,80,2119.0,1.958333,Eighth,F#3_F#2
5668,Right,0,62,80,2120.0,0.958333,Sixteenth,D4_C4
5670,Right,0,60,80,2121.0,1.958333,Sixteenth,D4_C4
5672,Left,1,43,80,2122.0,1.958333,Eighth,G3_G2
5674,Right,0,59,80,2122.0,0.958333,Sixteenth,B3
5675,Right,0,59,80,2123.0,0.958333,Sixteenth,D4_B3
5677,Right,0,61,80,2124.0,0.958333,Sixteenth,C#4_A#3
5679,Right,0,58,80,2125.0,0.958333,Sixteenth,G4_C#4_A#3
5682,Left,1,76,80,2125.0,1.958333,Eighth,E5
5683,Right,0,60,80,2126.0,0.958333,Sixteenth,C4_A#3
5685,Right,0,58,80,2127.0,1.958333,Sixteenth,C4_A#3
5688,Right,0,57,80,2128.0,0.958333,Sixteenth,A3
5687,Left,1,77,80,2128.0,1.958333,Eighth,F5
5689,Right,0,57,80,2129.0,0.958333,Sixteenth,C4_A3
5691,Right,0,59,80,2130.0,0.958333,Sixteenth,G#3_B3
5693,Right,0,65,80,2131.0,0.958333,Sixteenth,G#3_F4_A#3
5696,Left,1,74,80,2131.0,1.958333,Eighth,D5
5697,Right,0,58,80,2132.0,0.958333,Sixteenth,G#3_A#3
5699,Right,0,56,80,2133.0,1.958333,Sixteenth,G#3_A#3
5703,Right,0,55,80,2134.0,0.958333,Sixteenth,G3
5701,Left,1,39,80,2134.0,1.958333,Eighth,D#3_D#2
5704,Right,0,58,80,2135.0,0.958333,Sixteenth,G3_A#3
5706,Right,0,55,80,2136.0,0.958333,Sixteenth,G3_A#3
5708,Right,0,55,80,2137.0,0.958333,Sixteenth,G3_D#4
5710,Left,1,48,80,2137.0,1.958333,Eighth,C3_C2
5712,Right,0,57,80,2138.0,0.958333,Sixteenth,G3_A3
5714,Right,0,55,80,2139.0,1.958333,Sixteenth,G3_A3
5716,Left,1,38,80,2140.0,0.958333,Sixteenth,D3_D2
5718,Right,0,54,80,2140.0,0.958333,Sixteenth,F#3
5720,Right,0,56,80,2141.0,0.958333,Sixteenth,G#3_F#3_D4
5719,Left,1,36,80,2141.0,0.958333,Sixteenth,C3_C2
5725,Left,1,47,80,2142.0,0.958333,Sixteenth,B2_B1
5724,Right,0,56,80,2142.0,0.958333,Sixteenth,G#3_F3_D4
5732,Left,1,71,80,2143.0,1.958333,Eighth,B4
5729,Right,0,62,80,2143.0,0.958333,Sixteenth,G3_F3_D4
5733,Right,0,55,80,2144.0,0.958333,Sixteenth,G3_F3
5735,Right,0,55,80,2145.0,0.958333,Sixteenth,G3_F3
5737,Left,1,72,80,2146.0,1.958333,Eighth,C5
5738,Right,0,51,80,2146.0,0.958333,Sixteenth,G3_D#3
5740,Right,0,55,80,2147.0,0.958333,Sixteenth,G3_D#3_C4
5743,Right,0,54,80,2148.0,0.958333,Sixteenth,F#3_D#3_C4
5746,Right,0,53,80,2149.0,0.958333,Sixteenth,F3_D#3_C4
5748,Left,1,69,80,2149.0,1.958333,Eighth,A4
5750,Right,0,53,80,2150.0,0.958333,Sixteenth,F3_D#3
5752,Right,0,53,80,2151.0,0.958333,Sixteenth,F3_D#3
5755,Left,1,34,80,2152.0,1.958333,Eighth,A#2_A#1
5754,Right,0,49,80,2152.0,0.958333,Sixteenth,F3_C#3
5758,Right,0,49,80,2153.0,0.958333,Sixteenth,F3_C#3_A#3
5761,Right,0,58,80,2154.0,0.958333,Sixteenth,D#3_C#3_A#3
5764,Right,0,58,80,2155.0,0.958333,Sixteenth,D#3_C#3_A#3
5767,Left,1,43,80,2155.0,1.958333,Eighth,G2_G1
5769,Right,0,49,80,2156.0,0.958333,Sixteenth,D#3_C#3
5772,Left,1,32,80,2157.0,0.635417,TripletSixteenth,G#1
5771,Right,0,51,80,2157.0,0.958333,Sixteenth,D#3_C3
5774,Left,1,44,80,2157.333333,0.625,TripletSixteenth,G#2
5775,Left,1,32,80,2157.666667,0.635417,TripletSixteenth,G#1
5776,Right,0,51,80,2158.0,0.958333,Sixteenth,D#3_C3
5777,Left,1,44,80,2158.0,0.635417,TripletSixteenth,G#2
5779,Left,1,32,80,2158.333333,0.59375,TripletSixteenth,G#1
5780,Left,1,44,81,2158.666667,0.614583,TripletSixteenth,G#2
5782,Right,0,60,81,2159.0,0.958333,Sixteenth,D#3_C4
5781,Left,1,32,81,2159.0,0.614583,TripletSixteenth,G#1
5784,Left,1,44,81,2159.333333,0.59375,TripletSixteenth,G#2
5785,Left,1,32,81,2159.666667,0.59375,TripletSixteenth,G#1
5786,Right,0,63,81,2160.0,0.958333,Sixteenth,D#4_C4
5788,Left,1,42,81,2160.0,0.65625,TripletSixteenth,F#2
5789,Left,1,30,82,2160.333333,0.635417,TripletSixteenth,F#1
5790,Left,1,42,82,2160.666667,0.635417,TripletSixteenth,F#2
5791,Right,0,63,82,2161.0,0.958333,Sixteenth,D#4_C4
5793,Left,1,30,82,2161.0,0.65625,TripletSixteenth,F#1
5794,Left,1,42,82,2161.333333,0.614583,TripletSixteenth,F#2
5795,Left,1,30,82,2161.666667,0.572917,ThirtySecond,F#1
5796,Left,1,42,83,2162.0,0.604167,TripletSixteenth,F#2
5797,Right,0,63,83,2162.0,0.958333,Sixteenth,D#4_C5
5799,Left,1,30,83,2162.333333,0.604167,TripletSixteenth,F#1
5800,Left,1,42,83,2162.666667,0.291667,TripletThirtySecond,F#2
5802,Left,1,31,83,2163.0,0.583333,TripletSixteenth,G1
5801,Right,0,62,83,2163.0,0.958333,Sixteenth,D4_C5
5804,Left,1,43,83,2163.333333,0.572917,ThirtySecond,G2
5805,Left,1,31,84,2163.666667,0.625,TripletSixteenth,G1
5806,Right,0,72,84,2164.0,0.958333,Sixteenth,D4_C5
5807,Left,1,43,84,2164.0,0.625,TripletSixteenth,G2
5809,Left,1,31,84,2164.333333,0.635417,TripletSixteenth,G1
5810,Left,1,43,84,2164.666667,0.635417,TripletSixteenth,G2
5811,Right,0,62,85,2165.0,0.958333,Sixteenth,D4_B4
5813,Left,1,31,85,2165.0,0.583333,TripletSixteenth,G1
5814,Left,1,43,85,2165.333333,0.625,TripletSixteenth,G2
5815,Left,1,31,90,2165.666667,0.604167,TripletSixteenth,G1
5819,Left,1,43,80,2166.0,0.604167,TripletSixteenth,G2
5816,Right,0,72,85,2166.0,1.958333,Sixteenth,E4_C5_C4
5820,Left,1,36,80,2166.333333,0.59375,TripletSixteenth,C2
5821,Left,1,40,81,2166.666667,0.625,TripletSixteenth,E2
5822,Right,0,64,86,2167.0,0.958333,Sixteenth,E4_C4
5823,Left,1,43,81,2167.0,0.625,TripletSixteenth,G2
5825,Left,1,48,81,2167.333333,0.572917,ThirtySecond,C3
5826,Left,1,52,81,2167.666667,0.5625,ThirtySecond,E3
5827,Right,0,64,86,2168.0,0.958333,Sixteenth,G4_E4_C4
5830,Left,1,48,81,2168.0,0.614583,TripletSixteenth,C3
5831,Left,1,52,82,2168.333333,0.552083,ThirtySecond,E3
5832,Left,1,55,82,2168.666667,0.645833,TripletSixteenth,G3
5833,Right,0,64,87,2169.0,5.958333,Sixteenth,G4_E4
5835,Left,1,48,82,2169.0,0.625,TripletSixteenth,C3
5836,Left,1,52,82,2169.333333,0.59375,TripletSixteenth,E3
5837,Left,1,55,82,2169.666667,0.645833,TripletSixteenth,G3
5839,Right,0,62,88,2170.0,0.958333,Sixteenth,D4
5838,Left,1,47,83,2170.0,0.635417,TripletSixteenth,B2
5840,Left,1,50,83,2170.333333,0.635417,TripletSixteenth,D3
5841,Left,1,55,83,2170.666667,0.645833,TripletSixteenth,G3
5842,Right,0,64,88,2171.0,0.958333,Sixteenth,E4
5843,Left,1,48,83,2171.0,0.604167,TripletSixteenth,C3
5844,Left,1,52,84,2171.333333,0.572917,ThirtySecond,E3
5845,Left,1,55,84,2171.666667,0.625,TripletSixteenth,G3
5846,Left,1,50,84,2172.0,0.645833,TripletSixteenth,D3
5847,Right,0,65,89,2172.0,0.958333,Sixteenth,F4
5848,Left,1,53,84,2172.333333,0.625,TripletSixteenth,F3
5849,Left,1,55,84,2172.666667,0.645833,TripletSixteenth,G3
5850,Right,0,64,90,2173.0,0.958333,Sixteenth,E4
5851,Left,1,48,85,2173.0,0.645833,TripletSixteenth,C3
5852,Left,1,52,85,2173.333333,0.552083,ThirtySecond,E3
5853,Left,1,55,85,2173.666667,0.625,TripletSixteenth,G3
5854,Left,1,50,85,2174.0,0.635417,TripletSixteenth,D3
5855,Right,0,65,90,2174.0,0.958333,Sixteenth,F4
5856,Left,1,53,85,2174.333333,0.645833,TripletSixteenth,F3
5857,Left,1,55,86,2174.666667,0.583333,TripletSixteenth,G3
5858,Right,0,74,91,2175.0,1.958333,Eighth,D5_D4
5859,Left,1,47,86,2175.0,0.572917,ThirtySecond,B2
5861,Left,1,53,86,2175.333333,0.572917,ThirtySecond,F3
5862,Left,1,55,86,2175.666667,0.645833,TripletSixteenth,G3
5864,Right,0,60,91,2176.0,0.958333,Sixteenth,C4
5863,Left,1,45,86,2176.0,0.583333,TripletSixteenth,A2
5865,Left,1,48,87,2176.333333,0.65625,TripletSixteenth,C3
5866,Left,1,55,87,2176.666667,0.572917,ThirtySecond,G3
5867,Right,0,67,92,2177.0,0.958333,Sixteenth,G4_F4_D4
5868,Left,1,47,87,2177.0,0.604167,TripletSixteenth,B2
5871,Left,1,50,87,2177.333333,0.5625,ThirtySecond,D3
5872,Left,1,55,88,2177.666667,0.59375,TripletSixteenth,G3
5873,Left,1,47,88,2178.0,0.5625,ThirtySecond,B2
5874,Right,0,62,93,2178.0,5.958333,Sixteenth,G4_D4
5876,Left,1,50,88,2178.333333,0.53125,ThirtySecond,D3
5877,Left,1,55,88,2178.666667,0.572917,ThirtySecond,G3
5878,Right,0,64,93,2179.0,0.958333,Sixteenth,E4
5879,Left,1,48,88,2179.0,0.645833,TripletSixteenth,C3
5880,Left,1,52,89,2179.333333,0.645833,TripletSixteenth,E3
5881,Left,1,55,89,2179.666667,0.625,TripletSixteenth,G3
5883,Left,1,47,89,2180.0,0.604167,TripletSixteenth,B2
5882,Right,0,62,94,2180.0,0.958333,Sixteenth,D4
5884,Left,1,50,89,2180.333333,0.645833,TripletSixteenth,D3
5885,Left,1,55,89,2180.666667,0.614583,TripletSixteenth,G3
5887,Right,0,64,95,2181.0,0.958333,Sixteenth,E4
5886,Left,1,48,90,2181.0,0.5625,ThirtySecond,C3
5888,Left,1,52,90,2181.333333,0.541667,ThirtySecond,E3
5889,Left,1,55,90,2181.666667,0.5625,ThirtySecond,G3
5890,Right,0,65,95,2182.0,0.958333,Sixteenth,F4
5891,Left,1,52,90,2182.0,0.59375,TripletSixteenth,E3
5892,Left,1,53,90,2182.333333,0.583333,TripletSixteenth,F3
5893,Left,1,55,91,2182.666667,0.552083,ThirtySecond,G3
5895,Right,0,64,96,2183.0,0.958333,Sixteenth,E4
5894,Left,1,48,91,2183.0,0.5625,ThirtySecond,C3
5896,Left,1,52,91,2183.333333,0.614583,TripletSixteenth,E3
5897,Left,1,55,91,2183.666667,0.5625,ThirtySecond,G3
5899,Right,0,65,96,2184.0,2.958333,Sixteenth,G4_F4
5898,Left,1,50,91,2184.0,0.59375,TripletSixteenth,D3
5901,Left,1,53,92,2184.333333,0.572917,ThirtySecond,F3
5902,Left,1,55,92,2184.666667,0.645833,TripletSixteenth,G3
5904,Right,0,64,97,2185.0,0.958333,Sixteenth,E4
5903,Left,1,49,92,2185.0,0.635417,TripletSixteenth,C#3
5905,Left,1,52,92,2185.333333,0.572917,ThirtySecond,E3
5906,Left,1,55,93,2185.666667,0.625,TripletSixteenth,G3
5907,Right,0,65,98,2186.0,0.958333,Sixteenth,F4
5908,Left,1,50,93,2186.0,0.541667,ThirtySecond,D3
5909,Left,1,53,93,2186.333333,0.604167,TripletSixteenth,F3
5910,Left,1,55,93,2186.666667,0.583333,TripletSixteenth,G3
5911,Right,0,60,98,2187.0,2.958333,Sixteenth,G4_C4
5913,Left,1,52,93,2187.0,0.53125,ThirtySecond,E3
5914,Left,1,55,94,2187.333333,0.645833,TripletSixteenth,G3
5915,Left,1,52,94,2187.677083,0.614583,TripletSixteenth,E3
5917,Right,0,59,99,2188.0,0.958333,Sixteenth,B3
5916,Left,1,55,94,2188.0,0.5625,ThirtySecond,G3
5918,Left,1,52,94,2188.333333,0.604167,TripletSixteenth,E3
5919,Left,1,55,94,2188.666667,0.59375,TripletSixteenth,G3
5920,Left,1,52,95,2189.0,0.59375,TripletSixteenth,E3
5921,Right,0,60,100,2189.0,0.958333,Sixteenth,C4
5922,Left,1,55,95,2189.333333,0.552083,ThirtySecond,G3
5923,Left,1,52,95,2189.666667,0.666667,TripletSixteenth,E3
5924,Right,0,64,100,2190.0,2.958333,Sixteenth,E5_E4
5926,Left,1,48,95,2190.0,0.614583,TripletSixteenth,C3
5927,Left,1,55,95,2190.333333,0.635417,TripletSixteenth,G3
5928,Left,1,48,96,2190.666667,0.5625,ThirtySecond,C3
5929,Right,0,62,101,2191.0,0.958333,Sixteenth,D4
5930,Left,1,55,96,2191.0,0.604167,TripletSixteenth,G3
5931,Left,1,48,96,2191.333333,0.5625,ThirtySecond,C3
5932,Left,1,55,96,2191.666667,0.65625,TripletSixteenth,G3
5933,Left,1,48,97,2192.0,0.625,TripletSixteenth,C3
5934,Right,0,64,102,2192.0,0.958333,Sixteenth,E4
5935,Left,1,55,97,2192.333333,0.604167,TripletSixteenth,G3
5936,Left,1,48,97,2192.666667,0.625,TripletSixteenth,C3
5939,Left,1,52,100,2193.0,0.635417,TripletSixteenth,E3
5937,Right,0,67,102,2193.0,2.958333,Sixteenth,G4_C5
5940,Left,1,55,100,2193.333333,0.59375,TripletSixteenth,G3
5941,Left,1,52,100,2193.666667,0.635417,TripletSixteenth,E3
5942,Left,1,55,101,2194.0,0.625,TripletSixteenth,G3
5943,Right,0,65,103,2194.0,0.958333,Sixteenth,F4
5944,Left,1,50,101,2194.333333,0.625,TripletSixteenth,D3
5945,Left,1,55,102,2194.666667,0.614583,TripletSixteenth,G3
5946,Left,1,48,102,2195.0,0.625,TripletSixteenth,C3
5947,Right,0,64,103,2195.0,0.958333,Sixteenth,E4
5948,Left,1,55,102,2195.333333,0.604167,TripletSixteenth,G3
5949,Left,1,48,103,2195.666667,0.625,TripletSixteenth,C3
5952,Left,1,43,103,2196.0,0.635417,TripletSixteenth,G2
5950,Right,0,72,104,2196.0,2.958333,DottedEighth,E4_C5
5953,Left,1,54,104,2196.333333,0.59375,TripletSixteenth,F#3
5954,Left,1,55,104,2196.666667,0.5625,ThirtySecond,G3
5956,Right,0,63,105,2197.0,0.958333,Sixteenth,D#4
5955,Left,1,42,104,2197.0,0.604167,TripletSixteenth,F#2
5957,Left,1,54,105,2197.333333,0.59375,TripletSixteenth,F#3
5958,Left,1,55,105,2197.666667,0.5625,ThirtySecond,G3
5960,Left,1,43,106,2198.0,0.604167,TripletSixteenth,G2
5959,Right,0,64,105,2198.0,0.958333,Sixteenth,E4
5961,Left,1,54,106,2198.333333,0.572917,ThirtySecond,F#3
5962,Left,1,55,107,2198.666667,0.635417,TripletSixteenth,G3
5964,Left,1,43,107,2199.0,0.59375,TripletSixteenth,G2
5963,Right,0,71,106,2199.0,2.958333,DottedEighth,D4_B4
5966,Left,1,54,107,2199.333333,0.625,TripletSixteenth,F#3
5967,Left,1,55,108,2199.666667,0.604167,TripletSixteenth,G3
5969,Right,0,62,107,2200.0,0.958333,Sixteenth,D4
5968,Left,1,42,108,2200.0,0.645833,TripletSixteenth,F#2
5970,Left,1,54,109,2200.333333,0.635417,TripletSixteenth,F#3
5971,Left,1,55,109,2200.666667,0.635417,TripletSixteenth,G3
5973,Left,1,43,109,2201.0,0.635417,TripletSixteenth,G2
5972,Right,0,62,107,2201.0,0.958333,Sixteenth,D4
5974,Left,1,54,110,2201.333333,0.635417,TripletSixteenth,F#3
5975,Left,1,55,110,2201.666667,0.614583,TripletSixteenth,G3
5976,Right,0,71,108,2202.0,2.958333,Sixteenth,G4_D4_B4
5979,Left,1,42,111,2202.0,0.635417,TripletSixteenth,F#2
5980,Left,1,54,111,2202.333333,0.614583,TripletSixteenth,F#3
5981,Left,1,55,112,2202.666667,0.625,TripletSixteenth,G3
5983,Right,0,62,108,2203.0,0.958333,Sixteenth,G4_D4
5982,Left,1,42,112,2203.0,0.65625,TripletSixteenth,F#2
5985,Left,1,54,112,2203.333333,0.625,TripletSixteenth,F#3
5986,Left,1,55,113,2203.677083,0.583333,TripletSixteenth,G3
5987,Right,0,62,109,2204.0,0.958333,Sixteenth,G4_D4
5989,Left,1,41,113,2204.0,0.65625,TripletSixteenth,F2
5990,Left,1,54,114,2204.333333,0.572917,ThirtySecond,F#3
5991,Left,1,55,114,2204.677083,0.583333,TripletSixteenth,G3
5993,Right,0,72,110,2205.0,2.958333,DottedEighth,G4_C5
5992,Left,1,40,114,2205.0,0.583333,TripletSixteenth,E2
5995,Left,1,48,105,2205.333333,0.645833,TripletSixteenth,C3
5996,Left,1,55,105,2205.666667,0.604167,TripletSixteenth,G3
5997,Left,1,39,105,2206.0,0.65625,TripletSixteenth,D#2
5998,Right,0,66,110,2206.0,0.958333,Sixteenth,F#4
5999,Left,1,48,105,2206.333333,0.614583,TripletSixteenth,C3
6000,Left,1,55,105,2206.666667,0.59375,TripletSixteenth,G3
6001,Left,1,40,105,2207.0,0.604167,TripletSixteenth,E2
6002,Right,0,67,110,2207.0,0.958333,Sixteenth,G4
6003,Left,1,48,105,2207.333333,0.59375,TripletSixteenth,C3
6004,Left,1,55,105,2207.666667,0.572917,ThirtySecond,G3
6005,Left,1,48,105,2208.0,0.625,TripletSixteenth,C3
6006,Right,0,64,110,2208.0,2.958333,Sixteenth,E5_E4
6008,Left,1,52,105,2208.333333,0.65625,TripletSixteenth,E3
6009,Left,1,55,105,2208.666667,0.583333,TripletSixteenth,G3
6011,Right,0,67,110,2209.0,0.958333,Sixteenth,G4
6010,Left,1,47,105,2209.0,0.645833,TripletSixteenth,B2
6012,Left,1,50,105,2209.333333,0.635417,TripletSixteenth,D3
6013,Left,1,55,105,2209.666667,0.65625,TripletSixteenth,G3
6015,Left,1,48,105,2210.0,0.614583,TripletSixteenth,C3
6014,Right,0,67,110,2210.0,0.958333,Sixteenth,G4
6016,Left,1,52,105,2210.333333,0.65625,TripletSixteenth,E3
6017,Left,1,55,105,2210.666667,0.645833,TripletSixteenth,G3
6020,Left,1,46,105,2211.0,0.635417,TripletSixteenth,A#2
6018,Right,0,74,110,2211.0,2.958333,Sixteenth,G5_D5
6021,Left,1,50,105,2211.333333,0.635417,TripletSixteenth,D3
6022,Left,1,55,105,2211.666667,0.645833,TripletSixteenth,G3
6023,Left,1,45,105,2212.0,0.635417,TripletSixteenth,A2
6024,Right,0,73,110,2212.0,0.958333,Sixteenth,C#5
6025,Left,1,52,105,2212.333333,0.625,TripletSixteenth,E3
6026,Left,1,55,105,2212.666667,0.604167,TripletSixteenth,G3
6028,Left,1,46,105,2213.0,0.5625,ThirtySecond,A#2
6027,Right,0,74,110,2213.0,0.958333,Sixteenth,D5
6029,Left,1,50,105,2213.333333,0.645833,TripletSixteenth,D3
6030,Left,1,55,105,2213.666667,0.5625,ThirtySecond,G3
6032,Right,0,79,110,2214.0,2.958333,DottedEighth,G5_C#5
6031,Left,1,45,105,2214.0,0.541667,ThirtySecond,A2
6034,Left,1,52,104,2214.333333,0.604167,TripletSixteenth,E3
6035,Left,1,55,103,2214.666667,0.635417,TripletSixteenth,G3
6036,Right,0,71,107,2215.0,0.958333,Sixteenth,B4
6037,Left,1,57,102,2215.0,0.572917,ThirtySecond,A3
6038,Left,1,55,101,2215.333333,0.59375,TripletSixteenth,G3
6039,Left,1,52,100,2215.666667,0.625,TripletSixteenth,E3
6041,Left,1,45,99,2216.0,0.5625,ThirtySecond,A2
6040,Right,0,73,104,2216.0,0.958333,Sixteenth,C#5
6042,Left,1,52,97,2216.333333,0.59375,TripletSixteenth,E3
6043,Left,1,55,96,2216.666667,0.59375,TripletSixteenth,G3
6046,Left,1,45,95,2217.0,0.572917,ThirtySecond,A2
6044,Right,0,74,100,2217.0,2.958333,Sixteenth,F5_D5
6047,Left,1,50,94,2217.333333,0.635417,TripletSixteenth,D3
6048,Left,1,53,93,2217.666667,0.59375,TripletSixteenth,F3
6050,Left,1,57,92,2218.0,0.625,TripletSixteenth,A3
6049,Right,0,73,97,2218.0,0.958333,Sixteenth,C#5
6051,Left,1,53,91,2218.333333,0.635417,TripletSixteenth,F3
6052,Left,1,50,89,2218.666667,0.604167,TripletSixteenth,D3
6053,Left,1,45,88,2219.0,0.635417,TripletSixteenth,A2
6054,Right,0,74,93,2219.0,0.958333,Sixteenth,D5
6055,Left,1,50,87,2219.333333,0.625,TripletSixteenth,D3
6056,Left,1,53,86,2219.666667,0.625,TripletSixteenth,F3
6057,Right,0,65,90,2220.0,1.958333,Sixteenth,F4_D5
6058,Left,1,45,85,2220.0,0.583333,TripletSixteenth,A2
6060,Left,1,50,84,2220.333333,0.635417,TripletSixteenth,D3
6061,Left,1,53,82,2220.666667,0.635417,TripletSixteenth,F3
6063,Right,0,65,86,2221.0,0.958333,Sixteenth,F4
6062,Left,1,45,81,2221.0,0.65625,TripletSixteenth,A2
6064,Left,1,50,80,2221.333333,0.645833,TripletSixteenth,D3
6065,Left,1,53,79,2221.666667,0.625,TripletSixteenth,F3
6066,Left,1,44,78,2222.0,0.645833,TripletSixteenth,G#2
6067,Right,0,72,83,2222.0,0.958333,Sixteenth,F#4_C5
6069,Left,1,50,77,2222.333333,0.635417,TripletSixteenth,D3
6070,Left,1,54,76,2222.666667,0.635417,TripletSixteenth,F#3
6072,Right,0,67,80,2223.0,2.958333,Sixteenth,G4_B4
6071,Left,1,43,75,2223.0,0.572917,ThirtySecond,G2
6074,Left,1,50,75,2223.333333,0.635417,TripletSixteenth,D3
6075,Left,1,55,76,2223.666667,0.645833,TripletSixteenth,G3
6076,Left,1,43,76,2224.0,0.625,TripletSixteenth,G2
6077,Right,0,69,81,2224.0,0.958333,Sixteenth,A4
6078,Left,1,50,77,2224.333333,0.625,TripletSixteenth,D3
6079,Left,1,55,78,2224.666667,0.645833,TripletSixteenth,G3
6080,Left,1,43,78,2225.0,0.552083,ThirtySecond,G2
6081,Right,0,67,89,2225.0,0.958333,Sixteenth,G4
6082,Left,1,50,79,2225.333333,0.635417,TripletSixteenth,D3
6083,Left,1,55,80,2225.666667,0.645833,TripletSixteenth,G3
6084,Left,1,43,80,2226.0,0.59375,TripletSixteenth,G2
6085,Right,0,72,91,2226.0,2.958333,DottedEighth,F#4_C5
6087,Left,1,50,81,2226.333333,0.645833,TripletSixteenth,D3
6088,Left,1,57,82,2226.666667,0.625,TripletSixteenth,A3
6089,Left,1,43,82,2227.0,0.65625,TripletSixteenth,G2
6090,Right,0,67,94,2227.0,0.958333,Sixteenth,G4
6091,Left,1,50,83,2227.333333,0.614583,TripletSixteenth,D3
6092,Left,1,57,84,2227.666667,0.625,TripletSixteenth,A3
6093,Left,1,43,84,2228.0,0.635417,TripletSixteenth,G2
6094,Right,0,66,97,2228.0,0.958333,Sixteenth,F#4
6095,Left,1,50,75,2228.333333,0.635417,TripletSixteenth,D3
6096,Left,1,57,75,2228.666667,0.635417,TripletSixteenth,A3
6097,Right,0,65,80,2229.0,1.958333,Sixteenth,F4_D5
6098,Left,1,43,75,2229.0,0.65625,TripletSixteenth,G2
6100,Left,1,55,75,2229.333333,0.645833,TripletSixteenth,G3
6101,Left,1,59,75,2229.666667,0.625,TripletSixteenth,B3
6103,Right,0,65,80,2230.0,0.958333,Sixteenth,F4
6102,Left,1,45,75,2230.0,0.635417,TripletSixteenth,A2
6104,Left,1,55,75,2230.333333,0.625,TripletSixteenth,G3
6105,Left,1,60,75,2230.677083,0.614583,TripletSixteenth,C4
6107,Right,0,67,80,2231.0,0.958333,Sixteenth,G4_F4
6106,Left,1,47,75,2231.0,0.5625,ThirtySecond,B2
6109,Left,1,55,75,2231.333333,0.635417,TripletSixteenth,G3
6110,Left,1,62,75,2231.666667,0.541667,ThirtySecond,D4
6111,Right,0,67,80,2232.0,4.958333,Sixteenth,G4_F4_D4
6114,Left,1,47,75,2232.0,0.583333,TripletSixteenth,B2
6115,Left,1,55,75,2232.333333,0.614583,TripletSixteenth,G3
6116,Left,1,59,75,2232.666667,0.583333,TripletSixteenth,B3
6119,Left,1,48,75,2233.0,0.625,TripletSixteenth,C3
6117,Right,0,60,80,2233.0,0.958333,Sixteenth,E4_C4
6120,Left,1,52,75,2233.333333,0.625,TripletSixteenth,E3
6121,Left,1,55,75,2233.666667,0.625,TripletSixteenth,G3
6122,Left,1,50,75,2234.0,0.583333,TripletSixteenth,D3
6123,Right,0,59,80,2234.0,0.958333,Sixteenth,F4_B3
6125,Left,1,53,75,2234.333333,0.572917,ThirtySecond,F3
6126,Left,1,55,75,2234.666667,0.635417,TripletSixteenth,G3
6127,Left,1,50,75,2235.0,0.572917,ThirtySecond,D3
6128,Right,0,59,80,2235.0,0.958333,Sixteenth,F4_B3
6130,Left,1,53,75,2235.333333,0.625,TripletSixteenth,F3
6131,Left,1,55,75,2235.666667,0.625,TripletSixteenth,G3
6132,Right,0,64,80,2236.0,0.958333,Sixteenth,E4_C4
6134,Left,1,48,75,2236.0,0.583333,TripletSixteenth,C3
6135,Left,1,52,75,2236.333333,0.583333,TripletSixteenth,E3
6136,Left,1,55,75,2236.666667,0.572917,ThirtySecond,G3
6138,Right,0,62,80,2237.0,0.958333,Sixteenth,E4_D4
6137,Left,1,47,75,2237.0,0.59375,TripletSixteenth,B2
6140,Left,1,52,75,2237.333333,0.635417,TripletSixteenth,E3
6141,Left,1,56,75,2237.666667,0.625,TripletSixteenth,G#3
6142,Right,0,64,80,2238.0,1.958333,Eighth,E4_D4
6144,Left,1,47,75,2238.0,0.645833,TripletSixteenth,B2
6145,Left,1,52,75,2238.333333,0.635417,TripletSixteenth,E3
6146,Left,1,56,75,2238.666667,0.645833,TripletSixteenth,G#3
6147,Right,0,60,80,2239.0,0.958333,Sixteenth,C4
6148,Left,1,45,75,2239.0,0.625,TripletSixteenth,A2
6149,Left,1,52,75,2239.333333,0.65625,TripletSixteenth,E3
6150,Left,1,57,75,2239.666667,0.614583,TripletSixteenth,A3
6153,Left,1,44,75,2240.0,0.65625,TripletSixteenth,G#2
6151,Right,0,64,80,2240.0,0.958333,Sixteenth,E4_B3
6154,Left,1,52,75,2240.333333,0.572917,ThirtySecond,E3
6155,Left,1,56,75,2240.666667,0.572917,ThirtySecond,G#3
6159,Left,1,45,75,2241.0,0.614583,TripletSixteenth,A2
6156,Right,0,72,80,2241.0,5.958333,Sixteenth,E4_C5_C4
6160,Left,1,52,75,2241.333333,0.572917,ThirtySecond,E3
6161,Left,1,57,75,2241.666667,0.572917,ThirtySecond,A3
6163,Left,1,44,76,2242.0,0.604167,TripletSixteenth,G#2
6162,Right,0,64,81,2242.0,0.958333,Sixteenth,E4
6164,Left,1,52,76,2242.333333,0.604167,TripletSixteenth,E3
6165,Left,1,56,76,2242.666667,0.572917,ThirtySecond,G#3
6167,Right,0,64,82,2243.0,0.958333,Sixteenth,E4
6166,Left,1,45,77,2243.0,0.572917,ThirtySecond,A2
6168,Left,1,52,77,2243.333333,0.583333,TripletSixteenth,E3
6169,Left,1,57,78,2243.677083,0.59375,TripletSixteenth,A3
6171,Right,0,64,83,2244.0,0.958333,Sixteenth,E4
6170,Left,1,45,78,2244.0,0.572917,ThirtySecond,A2
6172,Left,1,52,78,2244.333333,0.520833,ThirtySecond,E3
6173,Left,1,57,79,2244.666667,0.625,TripletSixteenth,A3
6175,Right,0,64,84,2245.0,0.958333,Sixteenth,E4
6174,Left,1,44,79,2245.0,0.635417,TripletSixteenth,G#2
6176,Left,1,52,79,2245.333333,0.614583,TripletSixteenth,E3
6177,Left,1,56,80,2245.666667,0.65625,TripletSixteenth,G#3
6178,Left,1,45,80,2246.0,0.583333,TripletSixteenth,A2
6179,Right,0,64,85,2246.0,0.958333,Sixteenth,E4
6180,Left,1,52,80,2246.333333,0.65625,TripletSixteenth,E3
6181,Left,1,57,81,2246.666667,0.645833,TripletSixteenth,A3
6182,Left,1,45,81,2247.0,0.604167,TripletSixteenth,A2
6183,Right,0,72,86,2247.0,1.958333,Eighth,E4_C5
6185,Left,1,52,82,2247.333333,0.604167,TripletSixteenth,E3
6186,Left,1,57,82,2247.666667,0.572917,ThirtySecond,A3
6188,Left,1,45,82,2248.0,0.625,TripletSixteenth,A2
6187,Right,0,64,87,2248.0,0.958333,Sixteenth,E4
6189,Left,1,52,83,2248.333333,0.635417,TripletSixteenth,E3
6190,Left,1,57,83,2248.677083,0.65625,TripletSixteenth,A3
6193,Left,1,44,83,2249.0,0.614583,TripletSixteenth,G#2
6191,Right,0,71,88,2249.0,0.958333,Sixteenth,E4_B4
6194,Left,1,52,84,2249.333333,0.572917,ThirtySecond,E3
6195,Left,1,59,84,2249.677083,0.65625,TripletSixteenth,B3
6198,Left,1,44,85,2250.0,0.645833,TripletSixteenth,G#2
6196,Right,0,71,90,2250.0,5.958333,DottedQuarter,E4_B4
6199,Left,1,52,85,2250.333333,0.65625,TripletSixteenth,E3
6200,Left,1,59,85,2250.666667,0.625,TripletSixteenth,B3
6201,Left,1,45,86,2251.0,0.65625,TripletSixteenth,A2
6202,Right,0,64,91,2251.0,0.958333,Sixteenth,E4
6203,Left,1,52,86,2251.333333,0.65625,TripletSixteenth,E3
6204,Left,1,59,86,2251.666667,0.65625,TripletSixteenth,B3
6205,Right,0,64,92,2252.0,0.958333,Sixteenth,E4
6206,Left,1,44,87,2252.0,0.625,TripletSixteenth,G#2
6207,Left,1,52,87,2252.333333,0.645833,TripletSixteenth,E3
6208,Left,1,59,88,2252.666667,0.614583,TripletSixteenth,B3
6210,Left,1,44,88,2253.0,0.635417,TripletSixteenth,G#2
6209,Right,0,64,93,2253.0,0.958333,Sixteenth,E4
6211,Left,1,52,88,2253.333333,0.635417,TripletSixteenth,E3
6212,Left,1,59,89,2253.666667,0.59375,TripletSixteenth,B3
6213,Right,0,64,94,2254.0,0.958333,Sixteenth,E4
6214,Left,1,45,89,2254.0,0.625,TripletSixteenth,A2
6215,Left,1,52,89,2254.333333,0.635417,TripletSixteenth,E3
6216,Left,1,59,90,2254.666667,0.635417,TripletSixteenth,B3
6217,Right,0,64,95,2255.0,0.958333,Sixteenth,E4
6218,Left,1,44,90,2255.0,0.625,TripletSixteenth,G#2
6219,Left,1,52,91,2255.333333,0.572917,ThirtySecond,E3
6220,Left,1,59,91,2255.666667,0.625,TripletSixteenth,B3
6223,Left,1,44,91,2256.0,0.552083,ThirtySecond,G#2
6221,Right,0,64,96,2256.0,1.958333,Sixteenth,E4_B4
6224,Left,1,52,92,2256.333333,0.614583,TripletSixteenth,E3
6225,Left,1,59,92,2256.666667,0.614583,TripletSixteenth,B3
6226,Left,1,45,92,2257.0,0.5625,ThirtySecond,A2
6227,Right,0,64,97,2257.0,0.958333,Sixteenth,E4
6228,Left,1,52,93,2257.333333,0.5625,ThirtySecond,E3
6229,Left,1,59,93,2257.666667,0.614583,TripletSixteenth,B3
6232,Left,1,44,94,2258.0,0.5625,ThirtySecond,G#2
6230,Right,0,76,99,2258.0,0.958333,Sixteenth,E5_E4
6233,Left,1,52,94,2258.333333,0.625,TripletSixteenth,E3
6234,Left,1,59,94,2258.666667,0.5625,ThirtySecond,B3
6236,Left,1,44,95,2259.0,0.541667,ThirtySecond,G#2
6235,Right,0,71,100,2259.0,2.958333,Sixteenth,E5_E4_B4
6239,Left,1,52,95,2259.333333,0.625,TripletSixteenth,E3
6240,Left,1,59,95,2259.666667,0.65625,TripletSixteenth,B3
6242,Right,0,71,101,2260.0,0.958333,Sixteenth,E4_B4
6241,Left,1,45,96,2260.0,0.572917,ThirtySecond,A2
6244,Left,1,52,96,2260.333333,0.645833,TripletSixteenth,E3
6245,Left,1,59,97,2260.666667,0.635417,TripletSixteenth,B3
6247,Right,0,71,102,2261.0,0.958333,Sixteenth,E4_B4
6246,Left,1,44,97,2261.0,0.625,TripletSixteenth,G#2
6249,Left,1,52,97,2261.333333,0.65625,TripletSixteenth,E3
6250,Left,1,59,98,2261.666667,0.625,TripletSixteenth,B3
6254,Left,1,45,98,2262.0,0.5625,ThirtySecond,A2
6251,Right,0,76,103,2262.0,2.958333,Sixteenth,E5_E4_C5
6255,Left,1,52,98,2262.333333,0.625,TripletSixteenth,E3
6256,Left,1,60,99,2262.666667,0.59375,TripletSixteenth,C4
6257,Right,0,64,104,2263.0,0.958333,Sixteenth,E4_C5
6259,Left,1,47,99,2263.0,0.541667,ThirtySecond,B2
6260,Left,1,52,100,2263.333333,0.625,TripletSixteenth,E3
6261,Left,1,60,100,2263.666667,0.5625,ThirtySecond,C4
6262,Left,1,45,100,2264.0,0.5625,ThirtySecond,A2
6263,Right,0,64,105,2264.0,0.958333,Sixteenth,E4_C5
6265,Left,1,52,101,2264.333333,0.583333,TripletSixteenth,E3
6266,Left,1,60,101,2264.666667,0.552083,ThirtySecond,C4
6267,Left,1,41,101,2265.0,0.614583,TripletSixteenth,F2
6268,Right,0,74,106,2265.0,1.958333,Eighth,D5_B4
6270,Left,1,53,102,2265.333333,0.583333,TripletSixteenth,F3
6271,Left,1,41,102,2265.666667,0.614583,TripletSixteenth,F2
6272,Right,0,68,108,2266.0,0.958333,Sixteenth,G#4
6273,Left,1,53,103,2266.0,0.572917,ThirtySecond,F3
6274,Left,1,41,103,2266.333333,0.614583,TripletSixteenth,F2
6275,Left,1,53,103,2266.666667,0.635417,TripletSixteenth,F3
6277,Right,0,72,109,2267.0,0.958333,Sixteenth,C5_A4
6276,Left,1,39,104,2267.0,0.604167,TripletSixteenth,D#2
6279,Left,1,51,104,2267.333333,0.552083,ThirtySecond,D#3
6280,Left,1,39,104,2267.666667,0.625,TripletSixteenth,D#2
6282,Right,0,72,110,2268.0,2.958333,Sixteenth,E4_C5_A4
6281,Left,1,40,105,2268.0,0.635417,TripletSixteenth,E2
6285,Left,1,51,104,2268.333333,0.614583,TripletSixteenth,D#3
6286,Left,1,52,102,2268.666667,0.65625,TripletSixteenth,E3
6289,Left,1,39,100,2269.0,0.645833,TripletSixteenth,D#2
6287,Right,0,69,105,2269.0,0.958333,Sixteenth,E4_A4
6290,Left,1,51,98,2269.333333,0.59375,TripletSixteenth,D#3
6291,Left,1,52,97,2269.666667,0.59375,TripletSixteenth,E3
6293,Left,1,40,95,2270.0,0.65625,TripletSixteenth,E2
6292,Right,0,64,100,2270.0,0.958333,Sixteenth,E4_A4
6295,Left,1,51,93,2270.333333,0.625,TripletSixteenth,D#3
6296,Left,1,52,91,2270.666667,0.59375,TripletSixteenth,E3
6297,Right,0,64,95,2271.0,2.958333,Sixteenth,G#4_E4_B4
6299,Left,1,40,90,2271.0,0.635417,TripletSixteenth,E2
6301,Left,1,51,88,2271.333333,0.625,TripletSixteenth,D#3
6302,Left,1,52,86,2271.666667,0.635417,TripletSixteenth,E3
6305,Left,1,39,84,2272.0,0.635417,TripletSixteenth,D#2
6303,Right,0,64,89,2272.0,0.958333,Sixteenth,G#4_E4
6306,Left,1,51,83,2272.333333,0.635417,TripletSixteenth,D#3
6307,Left,1,52,81,2272.666667,0.645833,TripletSixteenth,E3
6308,Left,1,40,79,2273.0,0.604167,TripletSixteenth,E2
6309,Right,0,64,84,2273.0,0.958333,Sixteenth,G#4_E4
6311,Left,1,51,77,2273.333333,0.645833,TripletSixteenth,D#3
6312,Left,1,52,76,2273.666667,0.635417,TripletSixteenth,E3
6314,Right,0,72,80,2274.0,2.958333,Sixteenth,E4_C5_A4
6313,Left,1,33,75,2274.0,0.645833,TripletSixteenth,A1
6317,Left,1,44,75,2274.333333,0.65625,TripletSixteenth,G#2
6318,Left,1,45,75,2274.666667,0.614583,TripletSixteenth,A2
6321,Left,1,32,76,2275.0,0.65625,TripletSixteenth,G#1
6319,Right,0,69,81,2275.0,0.958333,Sixteenth,E4_A4
6322,Left,1,44,76,2275.333333,0.604167,TripletSixteenth,G#2
6323,Left,1,45,76,2275.666667,0.604167,TripletSixteenth,A2
6324,Left,1,33,77,2276.0,0.572917,ThirtySecond,A1
6325,Right,0,69,82,2276.0,0.958333,Sixteenth,E4_A4
6327,Left,1,44,77,2276.333333,0.59375,TripletSixteenth,G#2
6328,Left,1,45,77,2276.666667,0.65625,TripletSixteenth,A2
6330,Left,1,31,78,2277.0,0.65625,TripletSixteenth,G1
6329,Right,0,74,83,2277.0,5.958333,Sixteenth,G4_D5_B4
6333,Left,1,42,78,2277.333333,0.635417,TripletSixteenth,F#2
6334,Left,1,43,78,2277.666667,0.5625,ThirtySecond,G2
6336,Right,0,71,84,2278.0,0.958333,Sixteenth,G4_B4
6335,Left,1,30,79,2278.0,0.625,TripletSixteenth,F#1
6338,Left,1,42,79,2278.333333,0.614583,TripletSixteenth,F#2
6339,Left,1,43,79,2278.666667,0.583333,TripletSixteenth,G2
6342,Left,1,31,80,2279.0,0.645833,TripletSixteenth,G1
6340,Right,0,71,85,2279.0,0.958333,Sixteenth,G4_B4
6343,Left,1,42,80,2279.333333,0.645833,TripletSixteenth,F#2
6344,Left,1,43,80,2279.666667,0.614583,TripletSixteenth,G2
6345,Right,0,67,86,2280.0,0.958333,Sixteenth,G4_B4
6347,Left,1,31,81,2280.0,0.604167,TripletSixteenth,G1
6348,Left,1,42,81,2280.333333,0.604167,TripletSixteenth,F#2
6349,Left,1,43,81,2280.666667,0.635417,TripletSixteenth,G2
6350,Right,0,67,87,2281.0,0.958333,Sixteenth,G4_B4
6352,Left,1,30,82,2281.0,0.572917,ThirtySecond,F#1
6353,Left,1,42,82,2281.333333,0.614583,TripletSixteenth,F#2
6354,Left,1,43,82,2281.666667,0.604167,TripletSixteenth,G2
6355,Right,0,67,88,2282.0,0.958333,Sixteenth,G4_B4
6357,Left,1,31,83,2282.0,0.552083,ThirtySecond,G1
6358,Left,1,42,83,2282.333333,0.604167,TripletSixteenth,F#2
6359,Left,1,43,83,2282.666667,0.625,TripletSixteenth,G2
6360,Left,1,31,84,2283.0,0.59375,TripletSixteenth,G1
6361,Right,0,74,89,2283.0,2.958333,Sixteenth,F4_D5_B4
6364,Left,1,42,84,2283.333333,0.572917,ThirtySecond,F#2
6365,Left,1,43,84,2283.666667,0.625,TripletSixteenth,G2
6366,Right,0,65,90,2284.0,0.958333,Sixteenth,F4_B4
6368,Left,1,30,85,2284.0,0.572917,ThirtySecond,F#1
6369,Left,1,42,85,2284.333333,0.65625,TripletSixteenth,F#2
6370,Left,1,43,85,2284.666667,0.5625,ThirtySecond,G2
6371,Left,1,31,86,2285.0,0.583333,TripletSixteenth,G1
6372,Right,0,65,91,2285.0,0.958333,Sixteenth,F4_B4
6374,Left,1,42,86,2285.333333,0.635417,TripletSixteenth,F#2
6375,Left,1,43,86,2285.666667,0.625,TripletSixteenth,G2
6376,Left,1,31,87,2286.0,0.583333,TripletSixteenth,G1
6377,Right,0,76,92,2286.0,5.958333,Sixteenth,E5_E4_A#4
6380,Left,1,36,87,2286.333333,0.625,TripletSixteenth,C2
6381,Left,1,43,87,2286.666667,0.65625,TripletSixteenth,G2
6382,Left,1,30,88,2287.0,0.625,TripletSixteenth,F#1
6383,Right,0,70,93,2287.0,0.958333,Sixteenth,E4_A#4
6385,Left,1,36,88,2287.333333,0.572917,ThirtySecond,C2
6386,Left,1,42,88,2287.666667,0.645833,TripletSixteenth,F#2
6389,Left,1,31,89,2288.0,0.635417,TripletSixteenth,G1
6387,Right,0,70,94,2288.0,0.958333,Sixteenth,E4_A#4
6390,Left,1,36,89,2288.333333,0.614583,TripletSixteenth,C2
6391,Left,1,43,89,2288.666667,0.635417,TripletSixteenth,G2
6393,Right,0,64,95,2289.0,0.958333,Sixteenth,E4_A#4
6392,Left,1,31,90,2289.0,0.5625,ThirtySecond,G1
6395,Left,1,36,90,2289.333333,0.65625,TripletSixteenth,C2
6396,Left,1,43,90,2289.666667,0.645833,TripletSixteenth,G2
6397,Right,0,64,96,2290.0,0.958333,Sixteenth,E4_A#4
6399,Left,1,30,91,2290.0,0.645833,TripletSixteenth,F#1
6400,Left,1,36,91,2290.333333,0.59375,TripletSixteenth,C2
6401,Left,1,42,91,2290.666667,0.614583,TripletSixteenth,F#2
6403,Left,1,31,92,2291.0,0.625,TripletSixteenth,G1
6402,Right,0,70,97,2291.0,0.958333,Sixteenth,E4_A#4
6405,Left,1,36,92,2291.333333,0.614583,TripletSixteenth,C2
6406,Left,1,43,92,2291.666667,0.635417,TripletSixteenth,G2
6410,Left,1,29,93,2292.0,0.65625,TripletSixteenth,F1
6407,Right,0,69,98,2292.0,2.958333,Sixteenth,F5_F4_A4
6411,Left,1,36,93,2292.333333,0.625,TripletSixteenth,C2
6412,Left,1,41,93,2292.666667,0.625,TripletSixteenth,F2
6413,Right,0,69,99,2293.0,0.958333,Sixteenth,C5_A4
6415,Left,1,29,94,2293.0,0.635417,TripletSixteenth,F1
6416,Left,1,36,94,2293.333333,0.625,TripletSixteenth,C2
6417,Left,1,41,94,2293.666667,0.65625,TripletSixteenth,F2
6418,Left,1,29,95,2294.0,0.645833,TripletSixteenth,F1
6419,Right,0,72,100,2294.0,0.958333,Sixteenth,G#4_C5
6421,Left,1,36,95,2294.333333,0.65625,TripletSixteenth,C2
6422,Left,1,41,95,2294.666667,0.572917,ThirtySecond,F2
6424,Right,0,74,101,2295.0,2.958333,Sixteenth,G4_D5_C5
6423,Left,1,31,96,2295.0,0.625,TripletSixteenth,G1
6427,Left,1,36,96,2295.333333,0.572917,ThirtySecond,C2
6428,Left,1,38,96,2295.666667,0.635417,TripletSixteenth,D2
6431,Left,1,43,97,2296.0,0.583333,TripletSixteenth,G2
6429,Right,0,67,102,2296.0,0.958333,Sixteenth,G4_C5
6432,Left,1,48,97,2296.333333,0.59375,TripletSixteenth,C3
6433,Left,1,50,97,2296.666667,0.645833,TripletSixteenth,D3
6434,Left,1,55,98,2297.0,0.625,TripletSixteenth,G3
6435,Right,0,72,103,2297.0,0.958333,Sixteenth,G4_C5
6437,Left,1,52,98,2297.333333,0.604167,TripletSixteenth,E3
6438,Left,1,48,98,2297.666667,0.645833,TripletSixteenth,C3
6439,Left,1,43,99,2298.0,0.625,TripletSixteenth,G2
6440,Right,0,72,104,2298.0,2.958333,Sixteenth,G4_D5_C5
6443,Left,1,48,99,2298.333333,0.59375,TripletSixteenth,C3
6444,Left,1,50,99,2298.666667,0.614583,TripletSixteenth,D3
6446,Right,0,72,105,2299.0,0.958333,Sixteenth,G4_C5
6445,Left,1,55,100,2299.0,0.65625,TripletSixteenth,G3
6448,Left,1,50,100,2299.333333,0.635417,TripletSixteenth,D3
6449,Left,1,48,100,2299.666667,0.583333,TripletSixteenth,C3
6450,Left,1,43,101,2300.0,0.65625,TripletSixteenth,G2
6451,Right,0,72,106,2300.0,0.958333,Sixteenth,G4_C5
6453,Left,1,55,101,2300.333333,0.635417,TripletSixteenth,G3
6454,Left,1,60,101,2300.666667,0.625,TripletSixteenth,C4
6455,Left,1,43,102,2301.0,0.614583,TripletSixteenth,G2
6456,Right,0,71,107,2301.0,1.958333,Sixteenth,G4_D5_B4
6459,Left,1,55,102,2301.333333,0.65625,TripletSixteenth,G3
6460,Left,1,59,102,2301.666667,0.65625,TripletSixteenth,B3
6463,Left,1,45,103,2302.0,0.625,TripletSixteenth,A2
6461,Right,0,67,108,2302.0,0.958333,Sixteenth,G4_C5
6464,Left,1,55,103,2302.333333,0.65625,TripletSixteenth,G3
6465,Left,1,60,103,2302.666667,0.614583,TripletSixteenth,C4
6469,Left,1,47,104,2303.0,0.583333,TripletSixteenth,B2
6466,Right,0,79,109,2303.0,0.958333,Sixteenth,G5_G4_C5
6470,Left,1,55,104,2303.333333,0.572917,ThirtySecond,G3
6471,Left,1,62,104,2303.666667,0.583333,TripletSixteenth,D4
6472,Left,1,47,105,2304.0,0.604167,TripletSixteenth,B2
6473,Right,0,74,110,2304.0,1.958333,Sixteenth,G5_D5
6475,Left,1,55,102,2304.333333,0.583333,TripletSixteenth,G3
6476,Left,1,59,98,2304.666667,0.625,TripletSixteenth,B3
6478,Left,1,43,94,2305.0,0.59375,TripletSixteenth,G2
6477,Right,0,71,99,2305.0,0.958333,Sixteenth,B4
6479,Left,1,55,91,2305.333333,0.625,TripletSixteenth,G3
6480,Left,1,62,87,2305.666667,0.59375,TripletSixteenth,D4
6482,Right,0,76,88,2306.0,0.958333,Sixteenth,G4_E5
6481,Left,1,48,83,2306.0,0.59375,TripletSixteenth,C3
6484,Left,1,55,79,2306.333333,0.604167,TripletSixteenth,G3
6485,Left,1,60,76,2306.666667,0.625,TripletSixteenth,C4
6487,Right,0,64,80,2307.0,2.958333,Sixteenth,E5_E4
6486,Left,1,48,75,2307.0,0.552083,ThirtySecond,C3
6489,Left,1,55,75,2307.333333,0.5625,ThirtySecond,G3
6490,Left,1,60,75,2307.666667,0.625,TripletSixteenth,C4
6492,Right,0,63,80,2308.0,0.958333,Sixteenth,D#4
6491,Left,1,47,75,2308.0,0.59375,TripletSixteenth,B2
6493,Left,1,55,75,2308.333333,0.583333,TripletSixteenth,G3
6494,Left,1,59,75,2308.666667,0.583333,TripletSixteenth,B3
6495,Left,1,48,75,2309.0,0.65625,TripletSixteenth,C3
6496,Right,0,64,80,2309.0,0.958333,Sixteenth,E4
6497,Left,1,55,75,2309.333333,0.552083,ThirtySecond,G3
6498,Left,1,60,75,2309.666667,0.625,TripletSixteenth,C4
6500,Right,0,71,110,2310.0,1.958333,Sixteenth,E5_B4
6499,Left,1,44,75,2310.0,0.614583,TripletSixteenth,G#2
6502,Left,1,52,75,2310.333333,0.572917,ThirtySecond,E3
6503,Left,1,56,75,2310.666667,0.59375,TripletSixteenth,G#3
6504,Left,1,40,75,2311.0,0.5625,ThirtySecond,E2
6505,Right,0,68,99,2311.0,0.958333,Sixteenth,G#4
6506,Left,1,52,75,2311.333333,0.614583,TripletSixteenth,E3
6507,Left,1,59,75,2311.666667,0.572917,ThirtySecond,B3
6508,Left,1,45,75,2312.0,0.604167,TripletSixteenth,A2
6509,Right,0,72,88,2312.0,0.958333,Sixteenth,E4_C5
6511,Left,1,52,75,2312.333333,0.635417,TripletSixteenth,E3
6512,Left,1,57,75,2312.666667,0.572917,ThirtySecond,A3
6513,Right,0,72,80,2313.0,2.958333,DottedEighth,E4_C5
6515,Left,1,45,75,2313.0,0.604167,TripletSixteenth,A2
6516,Left,1,52,75,2313.333333,0.59375,TripletSixteenth,E3
6517,Left,1,57,75,2313.666667,0.604167,TripletSixteenth,A3
6519,Left,1,44,75,2314.0,0.604167,TripletSixteenth,G#2
6518,Right,0,64,80,2314.0,0.958333,Sixteenth,E4
6520,Left,1,52,75,2314.333333,0.635417,TripletSixteenth,E3
6521,Left,1,56,75,2314.666667,0.604167,TripletSixteenth,G#3
6523,Right,0,64,80,2315.0,0.958333,Sixteenth,E4
6522,Left,1,45,75,2315.0,0.625,TripletSixteenth,A2
6524,Left,1,52,75,2315.333333,0.65625,TripletSixteenth,E3
6525,Left,1,57,75,2315.666667,0.635417,TripletSixteenth,A3
6526,Right,0,79,110,2316.0,1.958333,Sixteenth,G5_C6
6528,Left,1,40,75,2316.0,0.635417,TripletSixteenth,E2
6529,Left,1,48,75,2316.333333,0.604167,TripletSixteenth,C3
6530,Left,1,52,75,2316.666667,0.625,TripletSixteenth,E3
6531,Right,0,76,103,2317.0,0.958333,Sixteenth,E5
6532,Left,1,36,75,2317.0,0.635417,TripletSixteenth,C2
6533,Left,1,48,75,2317.333333,0.65625,TripletSixteenth,C3
6534,Left,1,55,75,2317.666667,0.625,TripletSixteenth,G3
6535,Right,0,81,96,2318.0,0.958333,Sixteenth,C5_A5
6536,Left,1,41,75,2318.0,0.59375,TripletSixteenth,F2
6538,Left,1,48,75,2318.333333,0.572917,ThirtySecond,C3
6539,Left,1,53,75,2318.666667,0.65625,TripletSixteenth,F3
6542,Left,1,41,75,2319.0,0.635417,TripletSixteenth,F2
6540,Right,0,81,80,2319.0,2.958333,DottedEighth,C5_A5
6543,Left,1,48,75,2319.333333,0.635417,TripletSixteenth,C3
6544,Left,1,53,75,2319.666667,0.645833,TripletSixteenth,F3
6545,Left,1,40,75,2320.0,0.614583,TripletSixteenth,E2
6546,Right,0,79,80,2320.0,0.958333,Sixteenth,G5_C#5
6548,Left,1,45,75,2320.333333,0.5625,ThirtySecond,A2
6549,Left,1,52,75,2320.666667,0.583333,TripletSixteenth,E3
6551,Right,0,74,80,2321.0,0.958333,Sixteenth,F5_D5
6550,Left,1,38,75,2321.0,0.5625,ThirtySecond,D2
6553,Left,1,45,75,2321.333333,0.59375,TripletSixteenth,A2
6554,Left,1,50,75,2321.666667,0.614583,TripletSixteenth,D3
6555,Right,0,81,110,2322.0,1.958333,Eighth,E5_A5
6556,Left,1,37,75,2322.0,0.635417,TripletSixteenth,C#2
6558,Left,1,45,75,2322.333333,0.625,TripletSixteenth,A2
6559,Left,1,49,75,2322.666667,0.604167,TripletSixteenth,C#3
6560,Right,0,73,103,2323.0,0.958333,Sixteenth,C#5
6561,Left,1,33,75,2323.0,0.625,TripletSixteenth,A1
6562,Left,1,45,75,2323.333333,0.635417,TripletSixteenth,A2
6563,Left,1,52,75,2323.677083,0.635417,TripletSixteenth,E3
6566,Left,1,38,75,2324.0,0.65625,TripletSixteenth,D2
6564,Right,0,77,96,2324.0,0.958333,Sixteenth,F5_A4
6567,Left,1,45,75,2324.333333,0.645833,TripletSixteenth,A2
6568,Left,1,50,75,2324.666667,0.625,TripletSixteenth,D3
6570,Right,0,74,80,2325.0,2.958333,DottedEighth,F5_D5_A4
6569,Left,1,38,75,2325.0,0.635417,TripletSixteenth,D2
6573,Left,1,45,75,2325.333333,0.645833,TripletSixteenth,A2
6574,Left,1,50,75,2325.666667,0.645833,TripletSixteenth,D3
6575,Left,1,37,75,2326.0,0.65625,TripletSixteenth,C#2
6576,Right,0,69,80,2326.0,0.958333,Sixteenth,A4
6577,Left,1,45,75,2326.333333,0.635417,TripletSixteenth,A2
6578,Left,1,49,75,2326.666667,0.635417,TripletSixteenth,C#3
6579,Right,0,69,80,2327.0,0.958333,Sixteenth,A4
6580,Left,1,38,75,2327.0,0.625,TripletSixteenth,D2
6581,Left,1,45,75,2327.333333,0.635417,TripletSixteenth,A2
6582,Left,1,50,75,2327.666667,0.645833,TripletSixteenth,D3
6584,Right,0,68,80,2328.0,2.958333,DottedEighth,G#4_F5_D5
6583,Left,1,36,75,2328.0,0.614583,TripletSixteenth,C2
6587,Left,1,41,75,2328.333333,0.625,TripletSixteenth,F2
6588,Left,1,48,75,2328.666667,0.65625,TripletSixteenth,C3
6590,Left,1,35,76,2329.0,0.614583,TripletSixteenth,B1
6589,Right,0,68,81,2329.0,0.958333,Sixteenth,G#4
6591,Left,1,41,76,2329.333333,0.635417,TripletSixteenth,F2
6592,Left,1,47,76,2329.666667,0.645833,TripletSixteenth,B2
6594,Right,0,68,82,2330.0,0.958333,Sixteenth,G#4
6593,Left,1,36,77,2330.0,0.635417,TripletSixteenth,C2
6595,Left,1,41,77,2330.333333,0.625,TripletSixteenth,F2
6596,Left,1,48,77,2330.666667,0.604167,TripletSixteenth,C3
6598,Right,0,74,83,2331.0,5.958333,DottedQuarter,G4_F5_D5
6597,Left,1,35,78,2331.0,0.614583,TripletSixteenth,B1
6601,Left,1,43,78,2331.333333,0.65625,TripletSixteenth,G2
6602,Left,1,47,79,2331.666667,0.59375,TripletSixteenth,B2
6604,Right,0,67,84,2332.0,0.958333,Sixteenth,G4
6603,Left,1,34,79,2332.0,0.635417,TripletSixteenth,A#1
6605,Left,1,43,79,2332.333333,0.645833,TripletSixteenth,G2
6606,Left,1,46,80,2332.666667,0.635417,TripletSixteenth,A#2
6608,Right,0,67,85,2333.0,0.958333,Sixteenth,G4
6607,Left,1,35,80,2333.0,0.625,TripletSixteenth,B1
6609,Left,1,43,80,2333.333333,0.645833,TripletSixteenth,G2
6610,Left,1,47,81,2333.666667,0.604167,TripletSixteenth,B2
6611,Right,0,67,86,2334.0,0.958333,Sixteenth,G4
6612,Left,1,35,81,2334.0,0.625,TripletSixteenth,B1
6613,Left,1,43,82,2334.333333,0.572917,ThirtySecond,G2
6614,Left,1,47,82,2334.666667,0.59375,TripletSixteenth,B2
6616,Left,1,34,82,2335.0,0.645833,TripletSixteenth,A#1
6615,Right,0,67,87,2335.0,0.958333,Sixteenth,G4
6617,Left,1,43,83,2335.333333,0.59375,TripletSixteenth,G2
6618,Left,1,46,83,2335.666667,0.625,TripletSixteenth,A#2
6619,Left,1,35,83,2336.0,0.625,TripletSixteenth,B1
6620,Right,0,67,88,2336.0,0.958333,Sixteenth,G4
6621,Left,1,43,84,2336.333333,0.635417,TripletSixteenth,G2
6622,Left,1,47,84,2336.666667,0.572917,ThirtySecond,B2
6624,Right,0,77,90,2337.0,2.958333,Sixteenth,G4_F5_B4
6623,Left,1,31,85,2337.0,0.625,TripletSixteenth,G1
6627,Left,1,42,85,2337.333333,0.614583,TripletSixteenth,F#2
6628,Left,1,43,85,2337.666667,0.625,TripletSixteenth,G2
6630,Right,0,72,91,2338.0,0.958333,Sixteenth,G4_C5
6629,Left,1,33,86,2338.0,0.635417,TripletSixteenth,A1
6632,Left,1,43,86,2338.333333,0.614583,TripletSixteenth,G2
6633,Left,1,45,86,2338.666667,0.645833,TripletSixteenth,A2
6636,Left,1,35,87,2339.0,0.583333,TripletSixteenth,B1
6634,Right,0,67,92,2339.0,0.958333,Sixteenth,G4_D5
6637,Left,1,43,87,2339.333333,0.604167,TripletSixteenth,G2
6638,Left,1,47,88,2339.666667,0.635417,TripletSixteenth,B2
6639,Left,1,36,88,2340.0,0.614583,TripletSixteenth,C2
6640,Right,0,67,93,2340.0,2.958333,Sixteenth,G4_E5
6642,Left,1,43,88,2340.333333,0.604167,TripletSixteenth,G2
6643,Left,1,48,89,2340.666667,0.604167,TripletSixteenth,C3
6645,Right,0,67,94,2341.0,0.958333,Sixteenth,G4
6644,Left,1,35,89,2341.0,0.614583,TripletSixteenth,B1
6646,Left,1,43,89,2341.333333,0.583333,TripletSixteenth,G2
6647,Left,1,47,90,2341.666667,0.604167,TripletSixteenth,B2
6648,Left,1,36,90,2342.0,0.583333,TripletSixteenth,C2
6649,Right,0,67,95,2342.0,0.958333,Sixteenth,G4
6650,Left,1,43,91,2342.333333,0.625,TripletSixteenth,G2
6651,Left,1,48,91,2342.666667,0.5625,ThirtySecond,C3
6653,Right,0,79,96,2343.0,2.958333,Sixteenth,G5_G4_B4
6652,Left,1,36,91,2343.0,0.635417,TripletSixteenth,C2
6656,Left,1,47,92,2343.333333,0.645833,TripletSixteenth,B2
6657,Left,1,48,92,2343.666667,0.645833,TripletSixteenth,C3
6660,Left,1,38,92,2344.0,0.65625,TripletSixteenth,D2
6658,Right,0,71,97,2344.0,0.958333,Sixteenth,G4_B4
6661,Left,1,48,93,2344.333333,0.65625,TripletSixteenth,C3
6662,Left,1,50,93,2344.666667,0.645833,TripletSixteenth,D3
6665,Left,1,40,94,2345.0,0.625,TripletSixteenth,E2
6663,Right,0,71,99,2345.0,0.958333,Sixteenth,G4_B4
6666,Left,1,48,94,2345.333333,0.625,TripletSixteenth,C3
6667,Left,1,52,94,2345.666667,0.614583,TripletSixteenth,E3
6668,Left,1,41,95,2346.0,0.572917,ThirtySecond,F2
6669,Right,0,79,100,2346.0,0.958333,Sixteenth,G5_A4
6671,Left,1,48,95,2346.333333,0.65625,TripletSixteenth,C3
6672,Left,1,53,95,2346.666667,0.635417,TripletSixteenth,F3
6675,Left,1,41,96,2347.0,0.604167,TripletSixteenth,F2
6673,Right,0,69,101,2347.0,0.958333,Sixteenth,F5_A4
6676,Left,1,48,96,2347.333333,0.5625,ThirtySecond,C3
6677,Left,1,53,97,2347.666667,0.552083,ThirtySecond,F3
6679,Right,0,74,102,2348.0,0.958333,Sixteenth,D5_C5_A4
6678,Left,1,42,97,2348.0,0.572917,ThirtySecond,F#2
6682,Left,1,48,97,2348.333333,0.645833,TripletSixteenth,C3
6683,Left,1,54,98,2348.666667,0.645833,TripletSixteenth,F#3
6687,Left,1,43,98,2349.0,0.65625,TripletSixteenth,G2
6684,Right,0,64,103,2349.0,2.958333,Sixteenth,G4_E4_C5
6688,Left,1,48,98,2349.333333,0.65625,TripletSixteenth,C3
6689,Left,1,55,99,2349.666667,0.635417,TripletSixteenth,G3
6690,Right,0,64,104,2350.0,0.958333,Sixteenth,G4_E4
6692,Left,1,43,99,2350.0,0.614583,TripletSixteenth,G2
6693,Left,1,47,100,2350.333333,0.625,TripletSixteenth,B2
6694,Left,1,55,100,2350.666667,0.625,TripletSixteenth,G3
6695,Left,1,43,100,2351.0,0.645833,TripletSixteenth,G2
6696,Right,0,64,105,2351.0,0.958333,Sixteenth,G4_E4
6698,Left,1,48,101,2351.333333,0.635417,TripletSixteenth,C3
6699,Left,1,55,101,2351.666667,0.614583,TripletSixteenth,G3
6700,Right,0,76,106,2352.0,1.958333,Sixteenth,G4_F4_E5
6702,Left,1,43,101,2352.0,0.65625,TripletSixteenth,G2
6704,Left,1,47,102,2352.333333,0.614583,TripletSixteenth,B2
6705,Left,1,55,102,2352.666667,0.604167,TripletSixteenth,G3
6707,Right,0,65,108,2353.0,0.958333,Sixteenth,G4_F4
6706,Left,1,43,103,2353.0,0.583333,TripletSixteenth,G2
6709,Left,1,48,103,2353.333333,0.645833,TripletSixteenth,C3
6710,Left,1,55,103,2353.666667,0.614583,TripletSixteenth,G3
6714,Left,1,43,104,2354.0,0.635417,TripletSixteenth,G2
6711,Right,0,65,109,2354.0,0.958333,Sixteenth,G4_F4_D5
6715,Left,1,47,104,2354.333333,0.625,TripletSixteenth,B2
6716,Left,1,55,104,2354.666667,0.333333,TripletThirtySecond,G3
6719,Right,0,71,110,2355.0,0.635417,TripletSixteenth,B4
6717,Left,1,55,115,2355.0,1.989583,Eighth,G4_G3
6720,Right,0,74,108,2355.333333,0.583333,TripletSixteenth,D5
6721,Right,0,83,106,2355.666667,0.59375,TripletSixteenth,B5
6722,Right,0,71,103,2356.0,0.614583,TripletSixteenth,B4
6723,Right,0,74,101,2356.333333,0.614583,TripletSixteenth,D5
6724,Right,0,79,98,2356.666667,0.59375,TripletSixteenth,G5
6726,Left,1,64,96,2357.0,0.989583,Sixteenth,E4_E3
6725,Right,0,72,96,2357.0,0.625,TripletSixteenth,C5
6728,Right,0,79,93,2357.333333,0.625,TripletSixteenth,G5
6729,Right,0,84,91,2357.666667,0.625,TripletSixteenth,C6
6731,Left,1,64,80,2358.0,2.989583,DottedEighth,E4_E3
6730,Right,0,72,80,2358.0,0.645833,TripletSixteenth,C5
6733,Right,0,79,80,2358.333333,0.635417,TripletSixteenth,G5
6734,Right,0,84,80,2358.666667,0.65625,TripletSixteenth,C6
6735,Right,0,71,80,2359.0,0.59375,TripletSixteenth,B4
6736,Right,0,79,80,2359.333333,0.625,TripletSixteenth,G5
6737,Right,0,83,80,2359.666667,0.645833,TripletSixteenth,B5
6738,Right,0,72,80,2360.0,0.59375,TripletSixteenth,C5
6739,Right,0,79,80,2360.333333,0.604167,TripletSixteenth,G5
6740,Right,0,84,80,2360.666667,0.5625,ThirtySecond,C6
6742,Left,1,64,110,2361.0,1.989583,Eighth,E4_E3
6741,Right,0,80,110,2361.0,0.59375,TripletSixteenth,G#5
6744,Right,0,83,108,2361.333333,0.604167,TripletSixteenth,B5
6745,Right,0,92,106,2361.666667,0.5625,ThirtySecond,G#6
6746,Right,0,80,103,2362.0,0.635417,TripletSixteenth,G#5
6747,Right,0,83,101,2362.333333,0.635417,TripletSixteenth,B5
6748,Right,0,88,98,2362.666667,0.604167,TripletSixteenth,E6
6750,Left,1,60,96,2363.0,0.989583,Sixteenth,C4_C3
6749,Right,0,81,96,2363.0,0.583333,TripletSixteenth,A5
6752,Right,0,88,93,2363.333333,0.65625,TripletSixteenth,E6
6753,Right,0,93,91,2363.666667,0.614583,TripletSixteenth,A6
6755,Left,1,60,80,2364.0,2.989583,DottedEighth,C4_C3
6754,Right,0,81,80,2364.0,0.604167,TripletSixteenth,A5
6757,Right,0,88,80,2364.333333,0.572917,ThirtySecond,E6
6758,Right,0,93,80,2364.666667,0.59375,TripletSixteenth,A6
6759,Right,0,80,80,2365.0,0.5625,ThirtySecond,G#5
6760,Right,0,88,80,2365.333333,0.583333,TripletSixteenth,E6
6761,Right,0,92,80,2365.666667,0.583333,TripletSixteenth,G#6
6762,Right,0,81,80,2366.0,0.572917,ThirtySecond,A5
6763,Right,0,84,80,2366.333333,0.59375,TripletSixteenth,C6
6764,Right,0,93,80,2366.666667,0.604167,TripletSixteenth,A6
6765,Right,0,76,110,2367.0,0.5625,ThirtySecond,E5
6766,Left,1,48,110,2367.0,1.989583,Eighth,C4_C3
6768,Right,0,79,108,2367.333333,0.583333,TripletSixteenth,G5
6769,Right,0,88,106,2367.666667,0.572917,ThirtySecond,E6
6770,Right,0,76,103,2368.0,0.65625,TripletSixteenth,E5
6771,Right,0,79,101,2368.333333,0.614583,TripletSixteenth,G5
6772,Right,0,84,98,2368.666667,0.604167,TripletSixteenth,C6
6773,Left,1,57,96,2369.0,0.958333,Sixteenth,A3_A2
6775,Right,0,77,96,2369.0,0.5625,ThirtySecond,F5
6776,Right,0,84,93,2369.333333,0.65625,TripletSixteenth,C6
6777,Right,0,89,91,2369.666667,0.614583,TripletSixteenth,F6
6778,Left,1,45,80,2370.0,2.958333,DottedEighth,A3_A2
6779,Right,0,77,80,2370.0,0.625,TripletSixteenth,F5
6781,Right,0,84,80,2370.333333,0.625,TripletSixteenth,C6
6782,Right,0,89,80,2370.666667,0.645833,TripletSixteenth,F6
6783,Right,0,76,80,2371.0,0.645833,TripletSixteenth,E5
6784,Right,0,84,80,2371.333333,0.645833,TripletSixteenth,C6
6785,Right,0,88,80,2371.666667,0.625,TripletSixteenth,E6
6786,Right,0,77,80,2372.0,0.604167,TripletSixteenth,F5
6787,Right,0,84,80,2372.333333,0.645833,TripletSixteenth,C6
6788,Right,0,89,80,2372.666667,0.322917,TripletThirtySecond,F6
6790,Left,1,49,80,2373.0,0.572917,ThirtySecond,C#3
6789,Right,0,93,80,2373.0,1.989583,Eighth,E6_A6
6792,Left,1,57,80,2373.333333,0.572917,ThirtySecond,A3
6793,Left,1,61,80,2373.666667,0.625,TripletSixteenth,C#4
6794,Right,0,85,80,2374.0,0.989583,Sixteenth,C#6
6795,Left,1,45,80,2374.0,0.583333,TripletSixteenth,A2
6796,Left,1,57,80,2374.333333,0.572917,ThirtySecond,A3
6797,Left,1,64,80,2374.666667,0.572917,ThirtySecond,E4
6798,Right,0,81,80,2375.0,0.989583,Sixteenth,F6_A5
6800,Left,1,50,80,2375.0,0.604167,TripletSixteenth,D3
6801,Left,1,57,80,2375.333333,0.59375,TripletSixteenth,A3
6802,Left,1,62,80,2375.666667,0.5625,ThirtySecond,D4
6805,Left,1,50,80,2376.0,0.5625,ThirtySecond,D3
6803,Right,0,89,80,2376.0,2.989583,DottedEighth,F6_A5
6806,Left,1,57,80,2376.333333,0.59375,TripletSixteenth,A3
6807,Left,1,62,80,2376.666667,0.625,TripletSixteenth,D4
6809,Left,1,49,80,2377.0,0.59375,TripletSixteenth,C#3
6808,Right,0,81,80,2377.0,0.989583,Sixteenth,A5
6810,Left,1,57,81,2377.333333,0.583333,TripletSixteenth,A3
6811,Left,1,61,81,2377.666667,0.614583,TripletSixteenth,C#4
6812,Left,1,50,81,2378.0,0.583333,TripletSixteenth,D3
6813,Right,0,81,81,2378.0,0.989583,Sixteenth,A5
6814,Left,1,57,81,2378.333333,0.645833,TripletSixteenth,A3
6815,Left,1,62,82,2378.666667,0.635417,TripletSixteenth,D4
6816,Left,1,50,82,2379.0,0.635417,TripletSixteenth,D3
6817,Right,0,89,82,2379.0,2.989583,Sixteenth,F6_D6_A5
6820,Left,1,57,82,2379.333333,0.635417,TripletSixteenth,A3
6821,Left,1,62,83,2379.666667,0.5625,ThirtySecond,D4
6822,Right,0,81,83,2380.0,0.989583,Sixteenth,D6_A5
6824,Left,1,48,83,2380.0,0.635417,TripletSixteenth,C3
6825,Left,1,57,83,2380.333333,0.625,TripletSixteenth,A3
6826,Left,1,60,83,2380.666667,0.625,TripletSixteenth,C4
6828,Right,0,86,84,2381.0,0.989583,Sixteenth,D6_A5
6827,Left,1,50,84,2381.0,0.645833,TripletSixteenth,D3
6830,Left,1,57,84,2381.333333,0.645833,TripletSixteenth,A3
6831,Left,1,62,84,2381.666667,0.635417,TripletSixteenth,D4
6832,Left,1,48,85,2382.0,0.645833,TripletSixteenth,C3
6833,Right,0,86,85,2382.0,2.989583,Sixteenth,G#5_F6_D6
6836,Left,1,53,85,2382.333333,0.625,TripletSixteenth,F3
6837,Left,1,60,85,2382.666667,0.645833,TripletSixteenth,C4
6839,Left,1,47,85,2383.0,0.625,TripletSixteenth,B2
6838,Right,0,80,85,2383.0,0.989583,Sixteenth,G#5_D6
6841,Left,1,53,86,2383.333333,0.572917,ThirtySecond,F3
6842,Left,1,59,86,2383.666667,0.645833,TripletSixteenth,B3
6843,Right,0,86,86,2384.0,0.989583,Sixteenth,G#5_D6
6845,Left,1,48,86,2384.0,0.614583,TripletSixteenth,C3
6846,Left,1,53,87,2384.333333,0.635417,TripletSixteenth,F3
6847,Left,1,60,87,2384.666667,0.645833,TripletSixteenth,C4
6851,Left,1,47,87,2385.0,0.645833,TripletSixteenth,B2
6848,Right,0,86,87,2385.0,5.958333,Sixteenth,G5_F6_D6
6852,Left,1,55,87,2385.333333,0.625,TripletSixteenth,G3
6853,Left,1,59,88,2385.666667,0.635417,TripletSixteenth,B3
6854,Right,0,86,88,2386.0,0.958333,Sixteenth,G5_D6
6856,Left,1,46,88,2386.0,0.614583,TripletSixteenth,A#2
6857,Left,1,55,88,2386.333333,0.572917,ThirtySecond,G3
6858,Left,1,58,88,2386.666667,0.65625,TripletSixteenth,A#3
6859,Right,0,86,89,2387.0,0.958333,Sixteenth,G5_D6
6861,Left,1,47,89,2387.0,0.583333,TripletSixteenth,B2
6862,Left,1,55,89,2387.333333,0.604167,TripletSixteenth,G3
6863,Left,1,59,89,2387.666667,0.59375,TripletSixteenth,B3
6864,Right,0,79,90,2388.0,0.958333,Sixteenth,G5_D6
6865,Left,1,47,90,2388.0,0.65625,TripletSixteenth,B2
6867,Left,1,55,90,2388.333333,0.604167,TripletSixteenth,G3
6868,Left,1,59,90,2388.666667,0.583333,TripletSixteenth,B3
6869,Right,0,79,90,2389.0,0.958333,Sixteenth,G5_D6
6870,Left,1,46,90,2389.0,0.5625,ThirtySecond,A#2
6872,Left,1,55,91,2389.333333,0.572917,ThirtySecond,G3
6873,Left,1,58,91,2389.666667,0.572917,ThirtySecond,A#3
6875,Right,0,86,91,2390.0,0.958333,Sixteenth,G5_D6
6874,Left,1,47,91,2390.0,0.635417,TripletSixteenth,B2
6877,Left,1,55,92,2390.333333,0.583333,TripletSixteenth,G3
6878,Left,1,59,92,2390.666667,0.635417,TripletSixteenth,B3
6879,Right,0,89,92,2391.0,2.958333,Sixteenth,G5_F6_D6
6880,Left,1,47,92,2391.0,0.635417,TripletSixteenth,B2
6883,Left,1,55,92,2391.333333,0.65625,TripletSixteenth,G3
6884,Left,1,59,93,2391.666667,0.65625,TripletSixteenth,B3
6885,Right,0,79,93,2392.0,0.958333,Sixteenth,G5_D6
6886,Left,1,46,93,2392.0,0.65625,TripletSixteenth,A#2
6888,Left,1,55,93,2392.333333,0.614583,TripletSixteenth,G3
6889,Left,1,58,94,2392.666667,0.635417,TripletSixteenth,A#3
6892,Left,1,47,94,2393.0,0.645833,TripletSixteenth,B2
6890,Right,0,86,94,2393.0,0.958333,Sixteenth,G5_D6
6893,Left,1,55,94,2393.333333,0.625,TripletSixteenth,G3
6894,Left,1,59,94,2393.666667,0.572917,ThirtySecond,B3
6895,Left,1,45,95,2394.0,0.65625,TripletSixteenth,A2
6896,Right,0,86,95,2394.0,5.958333,Sixteenth,F#6_D6_C6
6899,Left,1,50,95,2394.333333,0.614583,TripletSixteenth,D3
6900,Left,1,57,95,2394.666667,0.625,TripletSixteenth,A3
6901,Right,0,84,95,2395.0,0.958333,Sixteenth,D6_C6
6903,Left,1,44,95,2395.0,0.614583,TripletSixteenth,G#2
6904,Left,1,50,96,2395.333333,0.625,TripletSixteenth,D3
6905,Left,1,56,96,2395.666667,0.645833,TripletSixteenth,G#3
6907,Left,1,45,96,2396.0,0.625,TripletSixteenth,A2
6906,Right,0,84,96,2396.0,0.958333,Sixteenth,D6_C6
6909,Left,1,50,97,2396.333333,0.645833,TripletSixteenth,D3
6910,Left,1,57,97,2396.666667,0.65625,TripletSixteenth,A3
6912,Right,0,84,97,2397.0,0.958333,Sixteenth,D6_C6
6911,Left,1,45,97,2397.0,0.59375,TripletSixteenth,A2
6914,Left,1,50,97,2397.333333,0.604167,TripletSixteenth,D3
6915,Left,1,57,98,2397.666667,0.552083,ThirtySecond,A3
6918,Left,1,44,98,2398.0,0.635417,TripletSixteenth,G#2
6916,Right,0,84,98,2398.0,0.958333,Sixteenth,D6_C6
6919,Left,1,50,98,2398.333333,0.65625,TripletSixteenth,D3
6920,Left,1,56,99,2398.666667,0.604167,TripletSixteenth,G#3
6921,Left,1,45,99,2399.0,0.604167,TripletSixteenth,A2
6922,Right,0,84,99,2399.0,0.958333,Sixteenth,D6_C6
6924,Left,1,50,99,2399.333333,0.625,TripletSixteenth,D3
6925,Left,1,57,99,2399.666667,0.645833,TripletSixteenth,A3
6927,Right,0,86,100,2400.0,2.958333,Sixteenth,F#6_D6_C6
6926,Left,1,45,100,2400.0,0.635417,TripletSixteenth,A2
6930,Left,1,50,100,2400.333333,0.572917,ThirtySecond,D3
6931,Left,1,57,100,2400.666667,0.645833,TripletSixteenth,A3
6932,Right,0,84,101,2401.0,0.958333,Sixteenth,D6_C6
6934,Left,1,44,101,2401.0,0.635417,TripletSixteenth,G#2
6935,Left,1,50,101,2401.333333,0.635417,TripletSixteenth,D3
6936,Left,1,56,101,2401.666667,0.635417,TripletSixteenth,G#3
6937,Left,1,45,101,2402.0,0.625,TripletSixteenth,A2
6938,Right,0,86,101,2402.0,0.958333,Sixteenth,D6_C6
6940,Left,1,50,102,2402.333333,0.625,TripletSixteenth,D3
6941,Left,1,57,102,2402.666667,0.552083,ThirtySecond,A3
6943,Right,0,84,102,2403.0,2.958333,Sixteenth,G6_E6_C6
6942,Left,1,43,102,2403.0,0.604167,TripletSixteenth,G2
6946,Left,1,48,102,2403.333333,0.583333,TripletSixteenth,C3
6947,Left,1,55,103,2403.666667,0.5625,ThirtySecond,G3
6948,Right,0,79,103,2404.0,0.958333,Sixteenth,G5_E6_C6
6951,Left,1,43,103,2404.0,0.572917,ThirtySecond,G2
6952,Left,1,47,103,2404.333333,0.583333,TripletSixteenth,B2
6953,Left,1,55,104,2404.666667,0.614583,TripletSixteenth,G3
6954,Right,0,88,104,2405.0,0.958333,Sixteenth,G5_E6_C6
6956,Left,1,43,104,2405.0,0.604167,TripletSixteenth,G2
6958,Left,1,48,104,2405.333333,0.572917,ThirtySecond,C3
6959,Left,1,55,104,2405.666667,0.645833,TripletSixteenth,G3
6960,Left,1,43,105,2406.0,0.625,TripletSixteenth,G2
6961,Right,0,89,105,2406.0,2.958333,Sixteenth,G5_F6_B5
6964,Left,1,50,105,2406.333333,0.65625,TripletSixteenth,D3
6965,Left,1,55,105,2406.666667,0.614583,TripletSixteenth,G3
6966,Left,1,43,106,2407.0,0.5625,ThirtySecond,G2
6967,Right,0,79,106,2407.0,0.958333,Sixteenth,G5_B5
6969,Left,1,49,106,2407.333333,0.572917,ThirtySecond,C#3
6970,Left,1,55,106,2407.666667,0.5625,ThirtySecond,G3
6973,Left,1,43,106,2408.0,0.604167,TripletSixteenth,G2
6971,Right,0,83,106,2408.0,0.958333,Sixteenth,G5_B5
6974,Left,1,50,107,2408.333333,0.572917,ThirtySecond,D3
6975,Left,1,55,107,2408.666667,0.572917,ThirtySecond,G3
6976,Right,0,91,107,2409.0,1.958333,Sixteenth,G6_G5_B5
6978,Left,1,43,107,2409.0,0.614583,TripletSixteenth,G2
6980,Left,1,52,108,2409.333333,0.604167,TripletSixteenth,E3
6981,Left,1,55,108,2409.666667,0.572917,ThirtySecond,G3
6984,Left,1,43,108,2410.0,0.604167,TripletSixteenth,G2
6982,Right,0,83,108,2410.0,0.958333,Sixteenth,G5_B5
6985,Left,1,52,108,2410.333333,0.614583,TripletSixteenth,E3
6986,Left,1,55,109,2410.666667,0.65625,TripletSixteenth,G3
6990,Left,1,43,109,2411.0,0.635417,TripletSixteenth,G2
6987,Right,0,93,109,2411.0,0.958333,Sixteenth,G5_B5_A6
6991,Left,1,53,109,2411.333333,0.65625,TripletSixteenth,F3
6992,Left,1,55,109,2411.666667,0.625,TripletSixteenth,G3
6996,Left,1,43,110,2412.0,0.572917,ThirtySecond,G2
6993,Right,0,83,110,2412.0,3.958333,Sixteenth,G5_B5_A6
6997,Left,1,53,110,2412.333333,0.645833,TripletSixteenth,F3
6998,Left,1,55,110,2412.666667,0.65625,TripletSixteenth,G3
6999,Left,1,43,110,2413.0,0.583333,TripletSixteenth,G2
7000,Right,0,83,110,2413.0,0.958333,Sixteenth,G5_B5
7002,Left,1,52,110,2413.333333,0.65625,TripletSixteenth,E3
7003,Left,1,55,110,2413.666667,0.614583,TripletSixteenth,G3
7006,Left,1,43,110,2414.0,0.614583,TripletSixteenth,G2
7004,Right,0,79,110,2414.0,0.958333,Sixteenth,G5_B5
7007,Left,1,53,110,2414.333333,0.645833,TripletSixteenth,F3
7008,Left,1,55,110,2414.666667,0.635417,TripletSixteenth,G3
7009,Right,0,79,110,2415.0,0.958333,Sixteenth,G5_B5
7010,Left,1,43,110,2415.0,0.625,TripletSixteenth,G2
7012,Left,1,53,110,2415.333333,0.614583,TripletSixteenth,F3
7013,Left,1,55,110,2415.666667,0.5625,ThirtySecond,G3
7017,Left,1,43,110,2416.0,0.552083,ThirtySecond,G2
7014,Right,0,93,110,2416.0,0.958333,Sixteenth,G5_B5_A6
7018,Left,1,53,110,2416.333333,0.625,TripletSixteenth,F3
7019,Left,1,55,110,2416.666667,0.59375,TripletSixteenth,G3
7023,Left,1,43,110,2417.0,0.5625,ThirtySecond,G2
7020,Right,0,91,110,2417.0,0.958333,Sixteenth,G6_G5_C6
7024,Left,1,52,110,2417.333333,0.635417,TripletSixteenth,E3
7025,Left,1,55,110,2417.666667,0.614583,TripletSixteenth,G3
7026,Right,0,84,110,2418.0,0.958333,Sixteenth,G6_G5_C6
7027,Left,1,43,110,2418.0,0.614583,TripletSixteenth,G2
7030,Left,1,52,110,2418.333333,0.645833,TripletSixteenth,E3
7031,Left,1,55,110,2418.666667,0.604167,TripletSixteenth,G3
7033,Left,1,43,110,2419.0,0.635417,TripletSixteenth,G2
7032,Right,0,79,110,2419.0,0.958333,Sixteenth,G5_F6_B5
7036,Left,1,50,110,2419.333333,0.635417,TripletSixteenth,D3
7037,Left,1,55,110,2419.666667,0.583333,TripletSixteenth,G3
7041,Left,1,43,110,2420.0,0.645833,TripletSixteenth,G2
7038,Right,0,84,110,2420.0,0.958333,Sixteenth,G5_E6_C6
7042,Left,1,48,110,2420.333333,0.625,TripletSixteenth,C3
7043,Left,1,55,110,2420.666667,0.635417,TripletSixteenth,G3
7044,Right,0,88,110,2421.0,1.958333,Eighth,G5_E6_C6
7046,Left,1,43,110,2421.0,0.572917,ThirtySecond,G2
7048,Left,1,48,110,2421.333333,0.625,TripletSixteenth,C3
7049,Left,1,55,110,2421.666667,0.645833,TripletSixteenth,G3
7050,Right,0,79,110,2422.0,0.958333,Sixteenth,G5
7051,Left,1,43,110,2422.0,0.614583,TripletSixteenth,G2
7052,Left,1,47,110,2422.333333,0.645833,TripletSixteenth,B2
7053,Left,1,55,110,2422.666667,0.65625,TripletSixteenth,G3
7054,Right,0,91,110,2423.0,0.958333,Sixteenth,G6_G5_E6
7055,Left,1,43,110,2423.0,0.604167,TripletSixteenth,G2
7058,Left,1,48,110,2423.333333,0.625,TripletSixteenth,C3
7059,Left,1,55,110,2423.666667,0.59375,TripletSixteenth,G3
7063,Left,1,43,110,2424.0,0.625,TripletSixteenth,G2
7060,Right,0,87,110,2424.0,1.958333,Eighth,G5_F#6_D#6
7064,Left,1,45,110,2424.333333,0.604167,TripletSixteenth,A2
7065,Left,1,55,110,2424.666667,0.625,TripletSixteenth,G3
7067,Right,0,79,110,2425.0,0.958333,Sixteenth,G5
7066,Left,1,43,110,2425.0,0.625,TripletSixteenth,G2
7068,Left,1,45,110,2425.333333,0.552083,ThirtySecond,A2
7069,Left,1,55,110,2425.666667,0.614583,TripletSixteenth,G3
7070,Right,0,79,110,2426.0,0.958333,Sixteenth,G5_F6_D6
7073,Left,1,43,110,2426.0,0.583333,TripletSixteenth,G2
7074,Left,1,47,110,2426.333333,0.625,TripletSixteenth,B2
7075,Left,1,55,110,2426.666667,0.572917,ThirtySecond,G3
7077,Right,0,79,110,2427.0,0.958333,Sixteenth,G5_E6_A#5
7076,Left,1,43,110,2427.0,0.604167,TripletSixteenth,G2
7080,Left,1,49,110,2427.333333,0.583333,TripletSixteenth,C#3
7081,Left,1,55,110,2427.666667,0.604167,TripletSixteenth,G3
7082,Right,0,83,110,2428.0,0.958333,Sixteenth,G5_F6_B5
7085,Left,1,43,110,2428.0,0.604167,TripletSixteenth,G2
7086,Left,1,50,110,2428.333333,0.572917,ThirtySecond,D3
7087,Left,1,55,110,2428.666667,0.604167,TripletSixteenth,G3
7088,Right,0,83,110,2429.0,0.958333,Sixteenth,G5_D6_B5
7089,Left,1,43,110,2429.0,0.489583,ThirtySecond,G2
7092,Left,1,47,110,2429.25,0.489583,ThirtySecond,B2
7093,Left,1,50,110,2429.5,0.489583,ThirtySecond,D3
7094,Left,1,53,110,2429.75,0.239583,SixtyFourth,F3
7096,Right,0,86,110,2430.0,0.416667,ThirtySecond,D6
7095,Left,1,55,110,2430.0,0.489583,ThirtySecond,G3
7098,Right,0,88,110,2430.25,0.416667,ThirtySecond,E6
7097,Left,1,59,110,2430.25,0.489583,ThirtySecond,B3
7099,Left,1,62,110,2430.5,0.489583,ThirtySecond,D4
7100,Right,0,86,110,2430.5,0.416667,ThirtySecond,D6
7102,Left,1,65,110,2430.75,0.489583,ThirtySecond,F4
7101,Right,0,88,110,2430.75,0.416667,ThirtySecond,E6
7103,Right,0,86,110,2431.0,0.416667,ThirtySecond,D6
7104,Right,0,88,110,2431.25,0.416667,ThirtySecond,E6
7105,Right,0,86,110,2431.5,0.416667,ThirtySecond,D6
7106,Right,0,88,110,2431.75,0.416667,ThirtySecond,E6
7107,Right,0,86,110,2432.0,0.416667,ThirtySecond,D6
7108,Right,0,88,110,2432.25,0.416667,ThirtySecond,E6
7109,Right,0,85,110,2432.5,0.416667,ThirtySecond,C#6
7110,Right,0,86,120,2432.75,0.416667,ThirtySecond,D6
7111,Right,0,90,127,2433.0,0.416667,ThirtySecond,F#6
7112,Right,0,91,127,2433.25,0.416667,ThirtySecond,G6
7113,Right,0,93,126,2433.5,0.416667,ThirtySecond,A6
7114,Right,0,91,120,2433.75,0.416667,ThirtySecond,G6
7115,Right,0,93,118,2434.0,0.416667,ThirtySecond,A6
7116,Right,0,91,115,2434.25,0.416667,ThirtySecond,G6
7117,Right,0,93,115,2434.5,0.416667,ThirtySecond,A6
7118,Right,0,91,114,2434.75,0.416667,ThirtySecond,G6
7119,Right,0,93,113,2435.0,0.416667,ThirtySecond,A6
7120,Right,0,91,112,2435.25,0.416667,ThirtySecond,G6
7121,Right,0,93,111,2435.5,0.416667,ThirtySecond,A6
7122,Right,0,91,110,2435.75,0.416667,ThirtySecond,G6
7123,Right,0,93,109,2436.0,0.416667,ThirtySecond,A6
7124,Right,0,91,109,2436.25,0.416667,ThirtySecond,G6
7125,Right,0,93,108,2436.5,0.416667,ThirtySecond,A6
7126,Right,0,91,107,2436.75,0.416667,ThirtySecond,G6
7127,Right,0,93,106,2437.0,0.416667,ThirtySecond,A6
7128,Right,0,91,105,2437.25,0.416667,ThirtySecond,G6
7129,Right,0,93,104,2437.5,0.416667,ThirtySecond,A6
7130,Right,0,91,103,2437.75,0.416667,ThirtySecond,G6
7131,Right,0,93,103,2438.0,0.416667,ThirtySecond,A6
7132,Right,0,91,102,2438.25,0.416667,ThirtySecond,G6
7133,Right,0,93,101,2438.5,0.416667,ThirtySecond,A6
7134,Right,0,91,100,2438.75,0.416667,ThirtySecond,G6
7135,Right,0,93,99,2439.0,0.416667,ThirtySecond,A6
7136,Right,0,91,98,2439.25,0.416667,ThirtySecond,G6
7137,Right,0,93,98,2439.5,0.416667,ThirtySecond,A6
7138,Right,0,91,97,2439.75,0.416667,ThirtySecond,G6
7139,Right,0,93,96,2440.0,0.416667,ThirtySecond,A6
7140,Right,0,91,95,2440.25,0.416667,ThirtySecond,G6
7141,Right,0,93,94,2440.5,0.416667,ThirtySecond,A6
7142,Right,0,91,93,2440.75,0.416667,ThirtySecond,G6
7143,Right,0,93,92,2441.0,0.416667,ThirtySecond,A6
7144,Right,0,91,92,2441.25,0.416667,ThirtySecond,G6
7145,Right,0,93,91,2441.5,0.416667,ThirtySecond,A6
7146,Right,0,91,90,2441.75,0.416667,ThirtySecond,G6
7147,Right,0,93,89,2442.0,0.416667,ThirtySecond,A6
7148,Right,0,91,88,2442.25,0.416667,ThirtySecond,G6
7149,Right,0,93,87,2442.5,0.416667,ThirtySecond,A6
7150,Right,0,91,86,2442.75,0.416667,ThirtySecond,G6
7151,Right,0,93,86,2443.0,0.416667,ThirtySecond,A6
7152,Right,0,91,85,2443.25,0.416667,ThirtySecond,G6
7153,Right,0,93,84,2443.5,0.416667,ThirtySecond,A6
7154,Right,0,91,83,2443.75,0.416667,ThirtySecond,G6
7155,Right,0,93,82,2444.0,0.416667,ThirtySecond,A6
7156,Right,0,91,81,2444.25,0.416667,ThirtySecond,G6
7157,Right,0,93,81,2444.5,0.416667,ThirtySecond,A6
7158,Right,0,91,80,2444.75,0.416667,ThirtySecond,G6
7160,Left,1,76,80,2445.0,0.645833,TripletSixteenth,E5
7159,Right,0,93,80,2445.0,1.958333,ThirtySecond,C6_A6
7162,Right,0,91,80,2445.25,0.416667,ThirtySecond,G6
7163,Left,1,72,80,2445.333333,0.625,TripletSixteenth,C5
7164,Right,0,93,80,2445.5,0.416667,ThirtySecond,A6
7165,Left,1,76,80,2445.666667,0.645833,TripletSixteenth,E5
7166,Right,0,91,80,2445.75,0.416667,ThirtySecond,G6
7168,Right,0,93,80,2446.0,0.416667,ThirtySecond,A6
7167,Left,1,72,80,2446.0,0.5625,ThirtySecond,C5
7169,Right,0,91,80,2446.25,0.416667,ThirtySecond,G6
7170,Left,1,76,80,2446.333333,0.614583,TripletSixteenth,E5
7171,Right,0,93,80,2446.5,0.416667,ThirtySecond,A6
7172,Left,1,72,80,2446.666667,0.635417,TripletSixteenth,C5
7173,Right,0,91,80,2446.75,0.416667,ThirtySecond,G6
7174,Right,0,93,80,2447.0,0.958333,ThirtySecond,G5_A6
7175,Left,1,76,80,2447.0,0.625,TripletSixteenth,E5
7177,Right,0,91,80,2447.25,0.416667,ThirtySecond,G6
7178,Left,1,72,80,2447.333333,0.645833,TripletSixteenth,C5
7179,Right,0,93,80,2447.5,0.416667,ThirtySecond,A6
7180,Left,1,76,80,2447.666667,0.614583,TripletSixteenth,E5
7181,Right,0,91,80,2447.75,0.416667,ThirtySecond,G6
7182,Right,0,93,80,2448.0,5.958333,ThirtySecond,G5_A6
7184,Left,1,72,80,2448.0,0.625,TripletSixteenth,C5
7185,Right,0,91,80,2448.25,0.416667,ThirtySecond,G6
7186,Left,1,76,80,2448.333333,0.59375,TripletSixteenth,E5
7187,Right,0,93,80,2448.5,0.416667,ThirtySecond,A6
7188,Left,1,72,80,2448.666667,0.59375,TripletSixteenth,C5
7189,Right,0,91,80,2448.75,0.416667,ThirtySecond,G6
7190,Left,1,76,80,2449.0,0.614583,TripletSixteenth,E5
7191,Right,0,93,80,2449.0,0.416667,ThirtySecond,A6
7192,Right,0,91,80,2449.25,0.416667,ThirtySecond,G6
7193,Left,1,72,80,2449.333333,0.65625,TripletSixteenth,C5
7194,Right,0,93,80,2449.5,0.416667,ThirtySecond,A6
7195,Left,1,76,80,2449.666667,0.625,TripletSixteenth,E5
7196,Right,0,91,80,2449.75,0.416667,ThirtySecond,G6
7197,Left,1,72,80,2450.0,0.645833,TripletSixteenth,C5
7198,Right,0,93,80,2450.0,0.416667,ThirtySecond,A6
7199,Right,0,91,80,2450.25,0.416667,ThirtySecond,G6
7200,Left,1,76,80,2450.333333,0.65625,TripletSixteenth,E5
7201,Right,0,93,80,2450.5,0.416667,ThirtySecond,A6
7202,Left,1,72,80,2450.666667,0.604167,TripletSixteenth,C5
7203,Right,0,91,80,2450.75,0.416667,ThirtySecond,G6
7205,Left,1,76,80,2451.0,0.604167,TripletSixteenth,E5
7204,Right,0,93,80,2451.0,0.416667,ThirtySecond,A6
7206,Right,0,91,80,2451.25,0.416667,ThirtySecond,G6
7207,Left,1,73,80,2451.333333,0.614583,TripletSixteenth,C#5
7208,Right,0,93,80,2451.5,0.416667,ThirtySecond,A6
7209,Left,1,76,80,2451.666667,0.614583,TripletSixteenth,E5
7210,Right,0,91,80,2451.75,0.416667,ThirtySecond,G6
7212,Right,0,93,80,2452.0,0.416667,ThirtySecond,A6
7211,Left,1,73,80,2452.0,0.635417,TripletSixteenth,C#5
7213,Right,0,91,80,2452.25,0.416667,ThirtySecond,G6
7214,Left,1,76,80,2452.333333,0.604167,TripletSixteenth,E5
7215,Right,0,93,80,2452.5,0.416667,ThirtySecond,A6
7216,Left,1,73,80,2452.666667,0.614583,TripletSixteenth,C#5
7217,Right,0,91,80,2452.75,0.416667,ThirtySecond,G6
7219,Left,1,76,80,2453.0,0.625,TripletSixteenth,E5
7218,Right,0,93,80,2453.0,0.416667,ThirtySecond,A6
7220,Right,0,91,80,2453.25,0.416667,ThirtySecond,G6
7221,Left,1,73,80,2453.333333,0.614583,TripletSixteenth,C#5
7222,Right,0,93,80,2453.5,0.416667,ThirtySecond,A6
7223,Left,1,76,80,2453.666667,0.635417,TripletSixteenth,E5
7224,Right,0,91,80,2453.75,0.416667,ThirtySecond,G6
7225,Right,0,86,80,2454.0,1.958333,Eighth,D6_A6
7226,Left,1,71,80,2454.0,0.65625,TripletSixteenth,B4
7228,Right,0,91,80,2454.25,0.416667,ThirtySecond,G6
7229,Left,1,77,80,2454.333333,0.65625,TripletSixteenth,F5
7230,Right,0,93,80,2454.5,0.416667,ThirtySecond,A6
7231,Left,1,71,80,2454.666667,0.625,TripletSixteenth,B4
7232,Right,0,91,80,2454.75,0.416667,ThirtySecond,G6
7234,Left,1,77,80,2455.0,0.614583,TripletSixteenth,F5
7233,Right,0,93,80,2455.0,0.416667,ThirtySecond,A6
7235,Right,0,91,80,2455.25,0.416667,ThirtySecond,G6
7236,Left,1,71,80,2455.333333,0.59375,TripletSixteenth,B4
7237,Right,0,93,80,2455.5,0.416667,ThirtySecond,A6
7238,Left,1,77,80,2455.666667,0.635417,TripletSixteenth,F5
7239,Right,0,91,80,2455.75,0.416667,ThirtySecond,G6
7242,Left,1,71,80,2456.0,0.645833,TripletSixteenth,B4
7240,Right,0,93,80,2456.0,0.958333,ThirtySecond,G5_A6
7243,Right,0,91,80,2456.25,0.416667,ThirtySecond,G6
7244,Left,1,77,80,2456.333333,0.645833,TripletSixteenth,F5
7245,Right,0,93,80,2456.5,0.416667,ThirtySecond,A6
7246,Left,1,71,80,2456.666667,0.65625,TripletSixteenth,B4
7247,Right,0,91,80,2456.75,0.416667,ThirtySecond,G6
7249,Left,1,77,80,2457.0,0.59375,TripletSixteenth,F5
7248,Right,0,79,80,2457.0,5.958333,DottedQuarter,G5_A6
7251,Right,0,91,80,2457.25,0.416667,ThirtySecond,G6
7252,Left,1,71,80,2457.333333,0.65625,TripletSixteenth,B4
7253,Right,0,93,80,2457.5,0.416667,ThirtySecond,A6
7254,Left,1,77,80,2457.666667,0.625,TripletSixteenth,F5
7255,Right,0,91,80,2457.75,0.416667,ThirtySecond,G6
7257,Left,1,71,80,2458.0,0.625,TripletSixteenth,B4
7256,Right,0,93,80,2458.0,0.416667,ThirtySecond,A6
7258,Right,0,91,80,2458.25,0.416667,ThirtySecond,G6
7259,Left,1,77,80,2458.333333,0.65625,TripletSixteenth,F5
7260,Right,0,93,80,2458.5,0.416667,ThirtySecond,A6
7261,Left,1,71,80,2458.666667,0.614583,TripletSixteenth,B4
7262,Right,0,91,80,2458.75,0.416667,ThirtySecond,G6
7264,Left,1,77,80,2459.0,0.625,TripletSixteenth,F5
7263,Right,0,93,80,2459.0,0.416667,ThirtySecond,A6
7265,Right,0,91,80,2459.25,0.416667,ThirtySecond,G6
7266,Left,1,71,80,2459.333333,0.645833,TripletSixteenth,B4
7267,Right,0,93,80,2459.5,0.416667,ThirtySecond,A6
7268,Left,1,77,80,2459.666667,0.604167,TripletSixteenth,F5
7269,Right,0,91,80,2459.75,0.416667,ThirtySecond,G6
7270,Left,1,72,80,2460.0,0.604167,TripletSixteenth,C5
7271,Right,0,93,80,2460.0,0.416667,ThirtySecond,A6
7272,Right,0,91,80,2460.25,0.416667,ThirtySecond,G6
7273,Left,1,76,80,2460.333333,0.583333,TripletSixteenth,E5
7274,Right,0,93,80,2460.5,0.416667,ThirtySecond,A6
7275,Left,1,72,80,2460.666667,0.583333,TripletSixteenth,C5
7276,Right,0,91,80,2460.75,0.416667,ThirtySecond,G6
7277,Right,0,93,80,2461.0,0.416667,ThirtySecond,A6
7278,Left,1,76,80,2461.0,0.5625,ThirtySecond,E5
7279,Right,0,91,80,2461.25,0.416667,ThirtySecond,G6
7280,Left,1,72,80,2461.333333,0.65625,TripletSixteenth,C5
7281,Right,0,93,80,2461.5,0.416667,ThirtySecond,A6
7282,Left,1,76,80,2461.666667,0.65625,TripletSixteenth,E5
7283,Right,0,91,80,2461.75,0.416667,ThirtySecond,G6
7284,Right,0,93,80,2462.0,0.416667,ThirtySecond,A6
7285,Left,1,73,80,2462.0,0.614583,TripletSixteenth,C#5
7286,Right,0,91,80,2462.25,0.416667,ThirtySecond,G6
7287,Left,1,76,80,2462.333333,0.625,TripletSixteenth,E5
7288,Right,0,93,80,2462.5,0.416667,ThirtySecond,A6
7289,Left,1,73,80,2462.666667,0.635417,TripletSixteenth,C#5
7290,Right,0,91,80,2462.75,0.416667,ThirtySecond,G6
7291,Right,0,93,80,2463.0,2.958333,ThirtySecond,G5_A6
7292,Left,1,77,80,2463.0,0.645833,TripletSixteenth,F5
7294,Right,0,91,80,2463.25,0.416667,ThirtySecond,G6
7295,Left,1,74,80,2463.333333,0.645833,TripletSixteenth,D5
7296,Right,0,93,80,2463.5,0.416667,ThirtySecond,A6
7297,Left,1,77,80,2463.666667,0.583333,TripletSixteenth,F5
7298,Right,0,91,80,2463.75,0.416667,ThirtySecond,G6
7299,Right,0,93,80,2464.0,0.416667,ThirtySecond,A6
7300,Left,1,75,80,2464.0,0.614583,TripletSixteenth,D#5
7301,Right,0,91,80,2464.25,0.416667,ThirtySecond,G6
7302,Left,1,78,80,2464.333333,0.583333,TripletSixteenth,F#5
7303,Right,0,93,80,2464.5,0.416667,ThirtySecond,A6
7304,Left,1,75,80,2464.666667,0.59375,TripletSixteenth,D#5
7305,Right,0,91,80,2464.75,0.416667,ThirtySecond,G6
7307,Left,1,76,80,2465.0,0.625,TripletSixteenth,E5
7306,Right,0,93,80,2465.0,0.416667,ThirtySecond,A6
7308,Right,0,91,80,2465.25,0.416667,ThirtySecond,G6
7309,Left,1,75,80,2465.333333,0.604167,TripletSixteenth,D#5
7310,Right,0,93,80,2465.5,0.416667,ThirtySecond,A6
7311,Left,1,76,80,2465.666667,0.604167,TripletSixteenth,E5
7312,Right,0,91,80,2465.75,0.416667,ThirtySecond,G6
7314,Left,1,64,80,2466.0,0.59375,TripletSixteenth,E4
7313,Right,0,93,80,2466.0,2.958333,ThirtySecond,G5_A6
7316,Right,0,91,80,2466.25,0.416667,ThirtySecond,G6
7317,Left,1,76,80,2466.333333,0.604167,TripletSixteenth,E5
7318,Right,0,93,80,2466.5,0.416667,ThirtySecond,A6
7319,Left,1,64,80,2466.666667,0.583333,TripletSixteenth,E4
7320,Right,0,91,80,2466.75,0.416667,ThirtySecond,G6
7322,Left,1,76,80,2467.0,0.614583,TripletSixteenth,E5
7321,Right,0,93,80,2467.0,0.416667,ThirtySecond,A6
7323,Right,0,91,80,2467.25,0.416667,ThirtySecond,G6
7324,Left,1,64,80,2467.333333,0.645833,TripletSixteenth,E4
7325,Right,0,93,80,2467.5,0.416667,ThirtySecond,A6
7326,Left,1,76,80,2467.666667,0.635417,TripletSixteenth,E5
7327,Right,0,91,80,2467.75,0.416667,ThirtySecond,G6
7329,Left,1,64,80,2468.0,0.59375,TripletSixteenth,E4
7328,Right,0,93,80,2468.0,0.416667,ThirtySecond,A6
7330,Right,0,91,80,2468.25,0.416667,ThirtySecond,G6
7331,Left,1,76,80,2468.333333,0.59375,TripletSixteenth,E5
7332,Right,0,93,80,2468.5,0.416667,ThirtySecond,A6
7333,Left,1,64,80,2468.666667,0.635417,TripletSixteenth,E4
7334,Right,0,91,80,2468.75,0.416667,ThirtySecond,G6
7335,Right,0,93,80,2469.0,2.958333,ThirtySecond,E6_A6
7337,Left,1,72,80,2469.0,0.635417,TripletSixteenth,C5
7338,Right,0,91,80,2469.25,0.416667,ThirtySecond,G6
7339,Left,1,60,80,2469.333333,0.583333,TripletSixteenth,C4
7340,Right,0,93,80,2469.5,0.416667,ThirtySecond,A6
7341,Left,1,72,80,2469.666667,0.625,TripletSixteenth,C5
7342,Right,0,91,80,2469.75,0.416667,ThirtySecond,G6
7343,Left,1,60,80,2470.0,0.645833,TripletSixteenth,C4
7344,Right,0,93,80,2470.0,0.416667,ThirtySecond,A6
7345,Right,0,91,80,2470.25,0.416667,ThirtySecond,G6
7346,Left,1,72,80,2470.333333,0.635417,TripletSixteenth,C5
7347,Right,0,93,80,2470.5,0.416667,ThirtySecond,A6
7348,Left,1,60,80,2470.666667,0.635417,TripletSixteenth,C4
7349,Right,0,91,80,2470.75,0.416667,ThirtySecond,G6
7351,Left,1,72,80,2471.0,0.614583,TripletSixteenth,C5
7350,Right,0,93,80,2471.0,0.416667,ThirtySecond,A6
7352,Right,0,91,80,2471.25,0.416667,ThirtySecond,G6
7353,Left,1,60,80,2471.333333,0.59375,TripletSixteenth,C4
7354,Right,0,93,80,2471.5,0.416667,ThirtySecond,A6
7355,Left,1,72,80,2471.666667,0.635417,TripletSixteenth,C5
7356,Right,0,91,80,2471.75,0.416667,ThirtySecond,G6
7357,Right,0,93,80,2472.0,2.958333,ThirtySecond,C6_A6
7358,Left,1,64,80,2472.0,0.625,TripletSixteenth,E4
7360,Right,0,91,80,2472.25,0.416667,ThirtySecond,G6
7361,Left,1,76,80,2472.333333,0.604167,TripletSixteenth,E5
7362,Right,0,93,80,2472.5,0.416667,ThirtySecond,A6
7363,Left,1,64,80,2472.666667,0.645833,TripletSixteenth,E4
7364,Right,0,91,80,2472.75,0.416667,ThirtySecond,G6
7366,Right,0,93,80,2473.0,0.416667,ThirtySecond,A6
7365,Left,1,76,80,2473.0,0.635417,TripletSixteenth,E5
7367,Right,0,91,80,2473.25,0.416667,ThirtySecond,G6
7368,Left,1,64,80,2473.333333,0.604167,TripletSixteenth,E4
7369,Right,0,93,80,2473.5,0.416667,ThirtySecond,A6
7370,Left,1,76,80,2473.666667,0.645833,TripletSixteenth,E5
7371,Right,0,91,80,2473.75,0.416667,ThirtySecond,G6
7372,Left,1,64,80,2474.0,0.583333,TripletSixteenth,E4
7373,Right,0,93,80,2474.0,0.416667,ThirtySecond,A6
7374,Right,0,91,80,2474.25,0.416667,ThirtySecond,G6
7375,Left,1,76,80,2474.333333,0.65625,TripletSixteenth,E5
7376,Right,0,93,80,2474.5,0.416667,ThirtySecond,A6
7377,Left,1,64,80,2474.666667,0.65625,TripletSixteenth,E4
7378,Right,0,91,80,2474.75,0.416667,ThirtySecond,G6
7379,Right,0,93,80,2475.0,2.958333,ThirtySecond,C6_A6
7380,Left,1,76,80,2475.0,0.65625,TripletSixteenth,E5
7382,Right,0,91,80,2475.25,0.416667,ThirtySecond,G6
7383,Left,1,67,80,2475.333333,0.614583,TripletSixteenth,G4
7384,Right,0,93,80,2475.5,0.416667,ThirtySecond,A6
7385,Left,1,76,80,2475.666667,0.645833,TripletSixteenth,E5
7386,Right,0,91,80,2475.75,0.416667,ThirtySecond,G6
7387,Right,0,93,80,2476.0,0.416667,ThirtySecond,A6
7388,Left,1,67,80,2476.0,0.65625,TripletSixteenth,G4
7389,Right,0,91,80,2476.25,0.416667,ThirtySecond,G6
7390,Left,1,76,80,2476.333333,0.65625,TripletSixteenth,E5
7391,Right,0,93,80,2476.5,0.416667,ThirtySecond,A6
7392,Left,1,67,80,2476.666667,0.625,TripletSixteenth,G4
7393,Right,0,91,80,2476.75,0.416667,ThirtySecond,G6
7395,Left,1,76,80,2477.0,0.65625,TripletSixteenth,E5
7394,Right,0,93,80,2477.0,0.416667,ThirtySecond,A6
7396,Right,0,91,80,2477.25,0.416667,ThirtySecond,G6
7397,Left,1,67,80,2477.333333,0.635417,TripletSixteenth,G4
7398,Right,0,93,80,2477.5,0.416667,ThirtySecond,A6
7399,Left,1,76,80,2477.666667,0.65625,TripletSixteenth,E5
7400,Right,0,91,80,2477.75,0.416667,ThirtySecond,G6
7401,Right,0,93,80,2478.0,2.958333,ThirtySecond,B5_A6
7403,Left,1,67,80,2478.0,0.65625,TripletSixteenth,G4
7404,Right,0,91,80,2478.25,0.416667,ThirtySecond,G6
7405,Left,1,74,80,2478.333333,0.552083,ThirtySecond,D5
7406,Right,0,93,80,2478.5,0.416667,ThirtySecond,A6
7407,Left,1,67,80,2478.666667,0.5625,ThirtySecond,G4
7408,Right,0,91,80,2478.75,0.416667,ThirtySecond,G6
7410,Left,1,74,80,2479.0,0.583333,TripletSixteenth,D5
7409,Right,0,93,80,2479.0,0.416667,ThirtySecond,A6
7411,Right,0,91,80,2479.25,0.416667,ThirtySecond,G6
7412,Left,1,67,80,2479.333333,0.604167,TripletSixteenth,G4
7413,Right,0,93,80,2479.5,0.416667,ThirtySecond,A6
7414,Left,1,74,80,2479.666667,0.635417,TripletSixteenth,D5
7415,Right,0,91,80,2479.75,0.416667,ThirtySecond,G6
7417,Left,1,67,80,2480.0,0.59375,TripletSixteenth,G4
7416,Right,0,93,80,2480.0,0.416667,ThirtySecond,A6
7418,Right,0,91,80,2480.25,0.416667,ThirtySecond,G6
7419,Left,1,74,80,2480.333333,0.625,TripletSixteenth,D5
7420,Right,0,93,80,2480.5,0.416667,ThirtySecond,A6
7421,Left,1,67,80,2480.666667,0.614583,TripletSixteenth,G4
7422,Right,0,91,80,2480.75,0.208333,SixtyFourth,G6
7424,Right,0,81,80,2481.0,2.958333,ThirtySecond,B5_A5
7423,Left,1,74,80,2481.0,0.583333,TripletSixteenth,D5
7426,Right,0,79,80,2481.25,0.416667,ThirtySecond,G5
7427,Left,1,65,80,2481.333333,0.635417,TripletSixteenth,F4
7428,Right,0,81,80,2481.5,0.416667,ThirtySecond,A5
7429,Left,1,74,80,2481.666667,0.59375,TripletSixteenth,D5
7430,Right,0,79,80,2481.75,0.416667,ThirtySecond,G5
7431,Left,1,65,80,2482.0,0.59375,TripletSixteenth,F4
7432,Right,0,81,80,2482.0,0.416667,ThirtySecond,A5
7433,Right,0,79,80,2482.25,0.416667,ThirtySecond,G5
7434,Left,1,74,80,2482.333333,0.583333,TripletSixteenth,D5
7435,Right,0,81,80,2482.5,0.416667,ThirtySecond,A5
7436,Left,1,65,80,2482.666667,0.614583,TripletSixteenth,F4
7437,Right,0,79,80,2482.75,0.416667,ThirtySecond,G5
7438,Left,1,74,80,2483.0,0.604167,TripletSixteenth,D5
7439,Right,0,81,80,2483.0,0.416667,ThirtySecond,A5
7440,Right,0,79,80,2483.25,0.416667,ThirtySecond,G5
7441,Left,1,65,80,2483.333333,0.645833,TripletSixteenth,F4
7442,Right,0,81,80,2483.5,0.416667,ThirtySecond,A5
7443,Left,1,74,80,2483.666667,0.625,TripletSixteenth,D5
7446,Left,1,64,80,2484.0,0.625,TripletSixteenth,E4
7444,Right,0,84,80,2484.0,2.958333,DottedEighth,C6_A5
7447,Right,0,79,80,2484.25,0.416667,ThirtySecond,G5
7448,Left,1,67,80,2484.333333,0.625,TripletSixteenth,G4
7449,Right,0,81,80,2484.5,0.416667,ThirtySecond,A5
7450,Left,1,64,80,2484.666667,0.625,TripletSixteenth,E4
7451,Right,0,79,80,2484.75,0.46875,ThirtySecond,G5
7453,Right,0,81,80,2485.0,0.416667,ThirtySecond,A5
7452,Left,1,67,80,2485.0,0.65625,TripletSixteenth,G4
7454,Right,0,79,80,2485.25,0.46875,ThirtySecond,G5
7455,Left,1,64,80,2485.333333,0.59375,TripletSixteenth,E4
7456,Right,0,81,80,2485.5,0.416667,ThirtySecond,A5
7457,Left,1,67,80,2485.666667,0.604167,TripletSixteenth,G4
7458,Right,0,79,80,2485.75,0.479167,ThirtySecond,G5
7459,Left,1,64,80,2486.0,0.614583,TripletSixteenth,E4
7460,Right,0,81,80,2486.0,0.416667,ThirtySecond,A5
7461,Right,0,79,80,2486.25,0.479167,ThirtySecond,G5
7462,Left,1,67,80,2486.333333,0.614583,TripletSixteenth,G4
7463,Right,0,81,80,2486.5,0.416667,ThirtySecond,A5
7464,Left,1,64,80,2486.666667,0.635417,TripletSixteenth,E4
7465,Right,0,79,80,2486.75,0.458333,ThirtySecond,G5
7467,Right,0,81,80,2487.0,2.958333,ThirtySecond,E6_A5
7466,Left,1,60,80,2487.0,0.65625,TripletSixteenth,C4
7469,Right,0,79,80,2487.25,0.46875,ThirtySecond,G5
7470,Left,1,64,80,2487.333333,0.625,TripletSixteenth,E4
7471,Right,0,81,80,2487.5,0.416667,ThirtySecond,A5
7472,Left,1,60,80,2487.666667,0.645833,TripletSixteenth,C4
7473,Right,0,79,80,2487.75,0.479167,ThirtySecond,G5
7474,Right,0,81,80,2488.0,0.416667,ThirtySecond,A5
7475,Left,1,64,80,2488.0,0.65625,TripletSixteenth,E4
7476,Right,0,79,80,2488.25,0.46875,ThirtySecond,G5
7477,Left,1,60,80,2488.333333,0.65625,TripletSixteenth,C4
7478,Right,0,81,80,2488.5,0.416667,ThirtySecond,A5
7479,Left,1,64,80,2488.666667,0.604167,TripletSixteenth,E4
7480,Right,0,79,80,2488.75,0.479167,ThirtySecond,G5
7482,Right,0,81,80,2489.0,0.416667,ThirtySecond,A5
7481,Left,1,60,80,2489.0,0.65625,TripletSixteenth,C4
7483,Right,0,79,80,2489.25,0.479167,ThirtySecond,G5
7484,Left,1,64,80,2489.333333,0.645833,TripletSixteenth,E4
7485,Right,0,81,80,2489.5,0.416667,ThirtySecond,A5
7486,Left,1,60,80,2489.666667,0.614583,TripletSixteenth,C4
7487,Right,0,79,80,2489.75,0.458333,ThirtySecond,G5
7489,Right,0,91,80,2490.0,0.479167,ThirtySecond,G6_A5
7488,Left,1,58,80,2490.0,0.635417,TripletSixteenth,A#3
7491,Right,0,79,80,2490.25,0.46875,ThirtySecond,G5
7492,Left,1,60,80,2490.333333,0.645833,TripletSixteenth,C4
7493,Right,0,81,80,2490.5,0.416667,ThirtySecond,A5
7494,Left,1,58,80,2490.666667,0.645833,TripletSixteenth,A#3
7495,Right,0,79,80,2490.75,0.46875,ThirtySecond,G5
7497,Left,1,60,80,2491.0,0.645833,TripletSixteenth,C4
7496,Right,0,81,80,2491.0,0.416667,ThirtySecond,A5
7498,Right,0,79,80,2491.25,0.489583,ThirtySecond,G5
7499,Left,1,58,80,2491.333333,0.625,TripletSixteenth,A#3
7500,Right,0,81,80,2491.5,0.416667,ThirtySecond,A5
7501,Left,1,60,80,2491.666667,0.65625,TripletSixteenth,C4
7502,Right,0,79,80,2491.75,0.489583,ThirtySecond,G5
7504,Right,0,81,80,2492.0,0.416667,ThirtySecond,A5
7503,Left,1,58,80,2492.0,0.614583,TripletSixteenth,A#3
7505,Right,0,79,80,2492.25,0.46875,ThirtySecond,G5
7506,Left,1,60,80,2492.333333,0.625,TripletSixteenth,C4
7507,Right,0,81,80,2492.5,0.416667,ThirtySecond,A5
7508,Left,1,58,80,2492.666667,0.635417,TripletSixteenth,A#3
7509,Right,0,79,80,2492.75,0.416667,ThirtySecond,G5
7510,Right,0,81,80,2493.0,0.458333,ThirtySecond,G6_A5
7511,Left,1,57,80,2493.0,0.635417,TripletSixteenth,A3
7513,Right,0,79,80,2493.25,0.489583,ThirtySecond,G5
7514,Left,1,60,80,2493.333333,0.65625,TripletSixteenth,C4
7515,Right,0,81,80,2493.5,0.416667,ThirtySecond,A5
7516,Left,1,57,80,2493.666667,0.625,TripletSixteenth,A3
7517,Right,0,79,80,2493.75,0.489583,ThirtySecond,G5
7518,Right,0,81,80,2494.0,0.416667,ThirtySecond,A5
7519,Left,1,60,80,2494.0,0.604167,TripletSixteenth,C4
7520,Right,0,79,80,2494.25,0.479167,ThirtySecond,G5
7521,Left,1,57,80,2494.333333,0.65625,TripletSixteenth,A3
7522,Right,0,81,80,2494.5,0.416667,ThirtySecond,A5
7523,Left,1,60,80,2494.666667,0.604167,TripletSixteenth,C4
7524,Right,0,79,80,2494.75,0.458333,ThirtySecond,G5
7526,Left,1,57,80,2495.0,0.625,TripletSixteenth,A3
7525,Right,0,81,80,2495.0,0.416667,ThirtySecond,A5
7527,Right,0,79,80,2495.25,0.479167,ThirtySecond,G5
7528,Left,1,60,80,2495.333333,0.625,TripletSixteenth,C4
7529,Right,0,81,80,2495.5,0.416667,ThirtySecond,A5
7530,Left,1,57,80,2495.666667,0.625,TripletSixteenth,A3
7531,Right,0,79,80,2495.75,0.427083,ThirtySecond,G5
7532,Left,1,60,80,2496.0,0.614583,TripletSixteenth,C4
7533,Right,0,81,80,2496.0,2.958333,ThirtySecond,F6_A5
7535,Right,0,79,80,2496.25,0.458333,ThirtySecond,G5
7536,Left,1,57,80,2496.333333,0.645833,TripletSixteenth,A3
7537,Right,0,81,80,2496.5,0.416667,ThirtySecond,A5
7538,Left,1,60,80,2496.666667,0.65625,TripletSixteenth,C4
7539,Right,0,79,80,2496.75,0.489583,ThirtySecond,G5
7541,Left,1,59,80,2497.0,0.645833,TripletSixteenth,B3
7540,Right,0,81,80,2497.0,0.416667,ThirtySecond,A5
7542,Right,0,79,80,2497.25,0.479167,ThirtySecond,G5
7543,Left,1,62,80,2497.333333,0.625,TripletSixteenth,D4
7544,Right,0,81,80,2497.5,0.416667,ThirtySecond,A5
7545,Left,1,59,80,2497.666667,0.645833,TripletSixteenth,B3
7546,Right,0,79,80,2497.75,0.458333,ThirtySecond,G5
7548,Right,0,81,80,2498.0,0.416667,ThirtySecond,A5
7547,Left,1,62,80,2498.0,0.635417,TripletSixteenth,D4
7549,Right,0,79,80,2498.25,0.489583,ThirtySecond,G5
7550,Left,1,59,80,2498.333333,0.604167,TripletSixteenth,B3
7551,Right,0,81,80,2498.5,0.416667,ThirtySecond,A5
7552,Left,1,62,80,2498.666667,0.625,TripletSixteenth,D4
7553,Right,0,79,80,2498.75,0.447917,ThirtySecond,G5
7554,Right,0,81,80,2499.0,1.958333,ThirtySecond,D6_A5
7555,Left,1,59,80,2499.0,0.604167,TripletSixteenth,B3
7557,Right,0,79,80,2499.25,0.458333,ThirtySecond,G5
7558,Left,1,65,80,2499.333333,0.604167,TripletSixteenth,F4
7559,Right,0,81,80,2499.5,0.46875,ThirtySecond,A5
7560,Left,1,59,80,2499.666667,0.59375,TripletSixteenth,B3
7561,Right,0,79,80,2499.75,0.458333,ThirtySecond,G5
7563,Left,1,65,80,2500.0,0.614583,TripletSixteenth,F4
7562,Right,0,81,80,2500.0,0.416667,ThirtySecond,A5
7564,Right,0,79,80,2500.25,0.447917,ThirtySecond,G5
7565,Left,1,59,80,2500.333333,0.614583,TripletSixteenth,B3
7566,Right,0,81,80,2500.5,0.416667,ThirtySecond,A5
7567,Left,1,65,80,2500.666667,0.583333,TripletSixteenth,F4
7568,Right,0,79,80,2500.75,0.479167,ThirtySecond,G5
7570,Right,0,84,80,2501.0,0.958333,Sixteenth,C6_A5
7569,Left,1,64,80,2501.0,0.635417,TripletSixteenth,E4
7572,Right,0,79,80,2501.25,0.46875,ThirtySecond,G5
7573,Left,1,60,80,2501.333333,0.645833,TripletSixteenth,C4
7574,Right,0,81,80,2501.5,0.416667,ThirtySecond,A5
7575,Left,1,64,80,2501.666667,0.604167,TripletSixteenth,E4
7576,Right,0,79,80,2501.75,0.447917,ThirtySecond,G5
7578,Left,1,62,80,2502.0,0.625,TripletSixteenth,D4
7577,Right,0,81,80,2502.0,2.958333,ThirtySecond,B5_A5
7580,Right,0,79,80,2502.25,0.46875,ThirtySecond,G5
7581,Left,1,65,80,2502.333333,0.635417,TripletSixteenth,F4
7582,Right,0,81,80,2502.5,0.416667,ThirtySecond,A5
7583,Left,1,62,80,2502.666667,0.625,TripletSixteenth,D4
7584,Right,0,79,80,2502.75,0.489583,ThirtySecond,G5
7585,Right,0,81,80,2503.0,0.416667,ThirtySecond,A5
7586,Left,1,67,80,2503.0,0.625,TripletSixteenth,G4
7587,Right,0,79,80,2503.25,0.46875,ThirtySecond,G5
7588,Left,1,64,80,2503.333333,0.614583,TripletSixteenth,E4
7589,Right,0,81,80,2503.5,0.416667,ThirtySecond,A5
7590,Left,1,67,80,2503.666667,0.645833,TripletSixteenth,G4
7591,Right,0,79,80,2503.75,0.458333,ThirtySecond,G5
7592,Right,0,81,80,2504.0,0.416667,ThirtySecond,A5
7593,Left,1,62,80,2504.0,0.614583,TripletSixteenth,D4
7594,Right,0,79,80,2504.25,0.479167,ThirtySecond,G5
7595,Left,1,65,80,2504.333333,0.65625,TripletSixteenth,F4
7596,Right,0,81,80,2504.5,0.416667,ThirtySecond,A5
7597,Left,1,62,80,2504.666667,0.614583,TripletSixteenth,D4
7598,Right,0,79,80,2504.75,0.458333,ThirtySecond,G5
7600,Left,1,60,80,2505.0,0.635417,TripletSixteenth,C4
7599,Right,0,84,80,2505.0,2.958333,DottedEighth,C6_A5
7602,Right,0,79,80,2505.25,0.46875,ThirtySecond,G5
7603,Left,1,64,80,2505.333333,0.625,TripletSixteenth,E4
7604,Right,0,81,80,2505.5,0.416667,ThirtySecond,A5
7605,Left,1,60,80,2505.666667,0.614583,TripletSixteenth,C4
7606,Right,0,79,80,2505.75,0.489583,ThirtySecond,G5
7608,Right,0,81,80,2506.0,0.416667,ThirtySecond,A5
7607,Left,1,65,80,2506.0,0.65625,TripletSixteenth,F4
7609,Right,0,79,80,2506.25,0.458333,ThirtySecond,G5
7610,Left,1,62,80,2506.333333,0.645833,TripletSixteenth,D4
7611,Right,0,81,80,2506.5,0.416667,ThirtySecond,A5
7612,Left,1,65,80,2506.666667,0.65625,TripletSixteenth,F4
7613,Right,0,79,80,2506.75,0.458333,ThirtySecond,G5
7614,Left,1,60,80,2507.0,0.645833,TripletSixteenth,C4
7615,Right,0,81,80,2507.0,0.416667,ThirtySecond,A5
7616,Right,0,79,80,2507.25,0.479167,ThirtySecond,G5
7617,Left,1,64,80,2507.333333,0.635417,TripletSixteenth,E4
7618,Right,0,81,80,2507.5,0.416667,ThirtySecond,A5
7619,Left,1,60,80,2507.666667,0.625,TripletSixteenth,C4
7620,Right,0,79,80,2507.75,0.46875,ThirtySecond,G5
7621,Right,0,86,80,2508.0,1.958333,Eighth,D6_A5
7623,Left,1,59,80,2508.0,0.614583,TripletSixteenth,B3
7624,Right,0,79,80,2508.25,0.489583,ThirtySecond,G5
7625,Left,1,62,80,2508.333333,0.625,TripletSixteenth,D4
7626,Right,0,81,80,2508.5,0.416667,ThirtySecond,A5
7627,Left,1,59,80,2508.666667,0.635417,TripletSixteenth,B3
7628,Right,0,79,80,2508.75,0.489583,ThirtySecond,G5
7630,Right,0,81,80,2509.0,0.416667,ThirtySecond,A5
7629,Left,1,60,80,2509.0,0.635417,TripletSixteenth,C4
7631,Right,0,79,80,2509.25,0.4375,ThirtySecond,G5
7632,Left,1,57,80,2509.333333,0.645833,TripletSixteenth,A3
7633,Right,0,81,80,2509.5,0.416667,ThirtySecond,A5
7634,Left,1,60,80,2509.666667,0.65625,TripletSixteenth,C4
7635,Right,0,79,80,2509.75,0.239583,SixtyFourth,G5
7637,Left,1,59,80,2510.0,0.65625,TripletSixteenth,B3
7636,Right,0,81,80,2510.0,0.416667,ThirtySecond,G5_A5
7639,Right,0,79,80,2510.25,0.46875,ThirtySecond,G5
7640,Left,1,62,80,2510.333333,0.635417,TripletSixteenth,D4
7641,Right,0,81,80,2510.5,0.416667,ThirtySecond,A5
7642,Left,1,59,80,2510.666667,0.645833,TripletSixteenth,B3
7643,Right,0,79,80,2510.75,0.489583,ThirtySecond,G5
7645,Left,1,48,80,2511.0,0.65625,TripletSixteenth,C3
7644,Right,0,81,80,2511.0,0.416667,ThirtySecond,A5
7646,Right,0,79,80,2511.25,0.489583,ThirtySecond,G5
7647,Left,1,64,80,2511.333333,0.635417,TripletSixteenth,E4
7648,Right,0,81,80,2511.5,0.416667,ThirtySecond,A5
7649,Left,1,60,80,2511.666667,0.645833,TripletSixteenth,C4
7650,Right,0,79,80,2511.75,0.489583,ThirtySecond,G5
7651,Right,0,81,80,2512.0,0.416667,ThirtySecond,A5
7652,Left,1,64,80,2512.0,0.635417,TripletSixteenth,E4
7653,Right,0,79,80,2512.25,0.46875,ThirtySecond,G5
7654,Left,1,60,80,2512.333333,0.65625,TripletSixteenth,C4
7655,Right,0,81,80,2512.5,0.416667,ThirtySecond,A5
7656,Left,1,64,80,2512.666667,0.65625,TripletSixteenth,E4
7657,Right,0,79,80,2512.75,0.46875,ThirtySecond,G5
7658,Right,0,81,80,2513.0,0.416667,ThirtySecond,A5
7659,Left,1,60,80,2513.0,0.65625,TripletSixteenth,C4
7660,Right,0,79,80,2513.25,0.458333,ThirtySecond,G5
7661,Left,1,64,80,2513.333333,0.614583,TripletSixteenth,E4
7662,Right,0,81,80,2513.5,0.416667,ThirtySecond,A5
7663,Left,1,60,80,2513.666667,0.625,TripletSixteenth,C4
7664,Right,0,79,80,2513.75,0.489583,ThirtySecond,G5
7666,Left,1,48,80,2514.0,0.65625,TripletSixteenth,C3
7665,Right,0,81,80,2514.0,0.416667,ThirtySecond,A5
7667,Right,0,79,80,2514.25,0.479167,ThirtySecond,G5
7668,Left,1,64,80,2514.333333,0.65625,TripletSixteenth,E4
7669,Right,0,81,80,2514.5,0.416667,ThirtySecond,A5
7670,Left,1,60,80,2514.666667,0.65625,TripletSixteenth,C4
7671,Right,0,79,80,2514.75,0.46875,ThirtySecond,G5
7672,Left,1,64,80,2515.0,0.65625,TripletSixteenth,E4
7673,Right,0,81,80,2515.0,0.416667,ThirtySecond,A5
7674,Right,0,79,80,2515.25,0.46875,ThirtySecond,G5
7675,Left,1,60,80,2515.333333,0.645833,TripletSixteenth,C4
7676,Right,0,81,80,2515.5,0.416667,ThirtySecond,A5
7677,Left,1,64,80,2515.666667,0.635417,TripletSixteenth,E4
7678,Right,0,79,80,2515.75,0.489583,ThirtySecond,G5
7680,Right,0,81,80,2516.0,0.416667,ThirtySecond,A5
7679,Left,1,60,80,2516.0,0.65625,TripletSixteenth,C4
7681,Right,0,79,80,2516.25,0.46875,ThirtySecond,G5
7682,Left,1,64,80,2516.333333,0.552083,ThirtySecond,E4
7683,Right,0,81,80,2516.5,0.416667,ThirtySecond,A5
7684,Left,1,60,80,2516.666667,0.65625,TripletSixteenth,C4
7685,Right,0,79,80,2516.75,0.479167,ThirtySecond,G5
7687,Right,0,74,80,2517.0,1.958333,Eighth,D5_A5
7686,Left,1,48,80,2517.0,0.625,TripletSixteenth,C3
7689,Right,0,79,80,2517.25,0.4375,ThirtySecond,G5
7690,Left,1,65,80,2517.333333,0.604167,TripletSixteenth,F4
7691,Right,0,81,80,2517.5,0.416667,ThirtySecond,A5
7692,Left,1,60,80,2517.666667,0.645833,TripletSixteenth,C4
7693,Right,0,79,80,2517.75,0.458333,ThirtySecond,G5
7694,Right,0,81,80,2518.0,0.416667,ThirtySecond,A5
7695,Left,1,65,80,2518.0,0.614583,TripletSixteenth,F4
7696,Right,0,79,80,2518.25,0.447917,ThirtySecond,G5
7697,Left,1,60,80,2518.333333,0.645833,TripletSixteenth,C4
7698,Right,0,81,80,2518.5,0.416667,ThirtySecond,A5
7699,Left,1,65,80,2518.666667,0.65625,TripletSixteenth,F4
7700,Right,0,79,80,2518.75,0.489583,ThirtySecond,G5
7702,Left,1,60,80,2519.0,0.614583,TripletSixteenth,C4
7701,Right,0,81,80,2519.0,0.958333,ThirtySecond,G4_A5
7704,Right,0,79,80,2519.25,0.489583,ThirtySecond,G5
7705,Left,1,65,80,2519.333333,0.625,TripletSixteenth,F4
7706,Right,0,81,80,2519.5,0.416667,ThirtySecond,A5
7707,Left,1,60,80,2519.666667,0.59375,TripletSixteenth,C4
7708,Right,0,79,80,2519.75,0.46875,ThirtySecond,G5
7710,Right,0,67,80,2520.0,4.958333,TiedQuarter-Sixteenth,G4_A5
7709,Left,1,48,80,2520.0,0.645833,TripletSixteenth,C3
7712,Right,0,79,80,2520.25,0.479167,ThirtySecond,G5
7713,Left,1,64,80,2520.333333,0.65625,TripletSixteenth,E4
7714,Right,0,81,80,2520.5,0.416667,ThirtySecond,A5
7715,Left,1,60,80,2520.666667,0.604167,TripletSixteenth,C4
7716,Right,0,79,80,2520.75,0.479167,ThirtySecond,G5
7718,Left,1,64,80,2521.0,0.614583,TripletSixteenth,E4
7717,Right,0,81,80,2521.0,0.416667,ThirtySecond,A5
7719,Right,0,79,80,2521.25,0.427083,ThirtySecond,G5
7720,Left,1,60,80,2521.333333,0.635417,TripletSixteenth,C4
7721,Right,0,81,80,2521.5,0.416667,ThirtySecond,A5
7722,Left,1,64,80,2521.666667,0.645833,TripletSixteenth,E4
7723,Right,0,79,80,2521.75,0.46875,ThirtySecond,G5
7725,Left,1,60,80,2522.0,0.635417,TripletSixteenth,C4
7724,Right,0,81,80,2522.0,0.416667,ThirtySecond,A5
7726,Right,0,79,80,2522.25,0.479167,ThirtySecond,G5
7727,Left,1,64,80,2522.333333,0.625,TripletSixteenth,E4
7728,Right,0,81,80,2522.5,0.416667,ThirtySecond,A5
7729,Left,1,60,80,2522.666667,0.65625,TripletSixteenth,C4
7730,Right,0,79,80,2522.75,0.46875,ThirtySecond,G5
7731,Right,0,81,80,2523.0,0.416667,ThirtySecond,A5
7732,Left,1,48,80,2523.0,0.583333,TripletSixteenth,C3
7733,Right,0,79,80,2523.25,0.489583,ThirtySecond,G5
7734,Left,1,52,80,2523.333333,0.614583,TripletSixteenth,E3
7735,Right,0,81,80,2523.5,0.416667,ThirtySecond,A5
7736,Left,1,48,80,2523.666667,0.59375,TripletSixteenth,C3
7737,Right,0,79,80,2523.75,0.489583,ThirtySecond,G5
7739,Left,1,52,80,2524.0,0.625,TripletSixteenth,E3
7738,Right,0,81,80,2524.0,0.416667,ThirtySecond,A5
7740,Right,0,79,80,2524.25,0.46875,ThirtySecond,G5
7741,Left,1,48,80,2524.333333,0.59375,TripletSixteenth,C3
7742,Right,0,81,80,2524.5,0.416667,ThirtySecond,A5
7743,Left,1,52,80,2524.666667,0.625,TripletSixteenth,E3
7744,Right,0,79,80,2524.75,0.458333,ThirtySecond,G5
7746,Left,1,48,80,2525.0,0.625,TripletSixteenth,C3
7745,Right,0,81,80,2525.0,0.9375,ThirtySecond,C6_A5
7748,Right,0,79,80,2525.25,0.46875,ThirtySecond,G5
7749,Left,1,52,80,2525.333333,0.614583,TripletSixteenth,E3
7750,Right,0,81,80,2525.5,0.416667,ThirtySecond,A5
7751,Left,1,48,80,2525.666667,0.635417,TripletSixteenth,C3
7752,Right,0,79,80,2525.75,0.489583,ThirtySecond,G5
7753,Left,1,36,80,2526.0,0.65625,TripletSixteenth,C2
7754,Right,0,81,80,2526.0,0.958333,ThirtySecond,C#6_A5
7756,Right,0,79,80,2526.25,0.489583,ThirtySecond,G5
7757,Left,1,53,80,2526.333333,0.604167,TripletSixteenth,F3
7758,Right,0,81,80,2526.5,0.416667,ThirtySecond,A5
7759,Left,1,48,80,2526.666667,0.65625,TripletSixteenth,C3
7760,Right,0,79,80,2526.75,0.46875,ThirtySecond,G5
7763,Left,1,53,80,2527.0,0.625,TripletSixteenth,F3
7761,Right,0,81,80,2527.0,0.958333,ThirtySecond,D6_A5
7764,Right,0,79,80,2527.25,0.46875,ThirtySecond,G5
7765,Left,1,48,80,2527.333333,0.635417,TripletSixteenth,C3
7766,Right,0,81,80,2527.5,0.416667,ThirtySecond,A5
7767,Left,1,53,80,2527.666667,0.635417,TripletSixteenth,F3
7768,Right,0,79,80,2527.75,0.239583,SixtyFourth,G5
7771,Left,1,48,80,2528.0,0.59375,TripletSixteenth,C3
7769,Right,0,81,80,2528.0,0.416667,ThirtySecond,G5_A5
7772,Right,0,79,80,2528.25,0.46875,ThirtySecond,G5
7773,Left,1,53,80,2528.333333,0.65625,TripletSixteenth,F3
7774,Right,0,81,80,2528.5,0.416667,ThirtySecond,A5
7775,Left,1,48,80,2528.666667,0.65625,TripletSixteenth,C3
7776,Right,0,79,80,2528.75,0.479167,ThirtySecond,G5
7777,Left,1,36,80,2529.0,0.645833,TripletSixteenth,C2
7778,Right,0,81,80,2529.0,0.416667,ThirtySecond,A5
7779,Right,0,79,80,2529.25,0.458333,ThirtySecond,G5
7780,Left,1,52,80,2529.333333,0.625,TripletSixteenth,E3
7781,Right,0,81,80,2529.5,0.416667,ThirtySecond,A5
7782,Left,1,48,80,2529.666667,0.65625,TripletSixteenth,C3
7783,Right,0,79,80,2529.75,0.489583,ThirtySecond,G5
7785,Left,1,52,80,2530.0,0.65625,TripletSixteenth,E3
7784,Right,0,81,80,2530.0,0.416667,ThirtySecond,A5
7786,Right,0,79,80,2530.25,0.479167,ThirtySecond,G5
7787,Left,1,48,80,2530.333333,0.614583,TripletSixteenth,C3
7788,Right,0,81,80,2530.5,0.416667,ThirtySecond,A5
7789,Left,1,52,80,2530.666667,0.614583,TripletSixteenth,E3
7790,Right,0,79,80,2530.75,0.489583,ThirtySecond,G5
7791,Right,0,81,80,2531.0,0.416667,ThirtySecond,A5
7792,Left,1,48,80,2531.0,0.65625,TripletSixteenth,C3
7793,Right,0,79,80,2531.25,0.489583,ThirtySecond,G5
7794,Left,1,52,80,2531.333333,0.572917,ThirtySecond,E3
7795,Right,0,81,80,2531.5,0.416667,ThirtySecond,A5
7796,Left,1,48,80,2531.666667,0.65625,TripletSixteenth,C3
7797,Right,0,79,80,2531.75,0.489583,ThirtySecond,G5
7799,Right,0,81,80,2532.0,0.416667,ThirtySecond,A5
7798,Left,1,36,80,2532.0,0.614583,TripletSixteenth,C2
7800,Right,0,79,80,2532.25,0.479167,ThirtySecond,G5
7801,Left,1,52,80,2532.333333,0.65625,TripletSixteenth,E3
7802,Right,0,81,80,2532.5,0.416667,ThirtySecond,A5
7803,Left,1,48,80,2532.666667,0.65625,TripletSixteenth,C3
7804,Right,0,79,80,2532.75,0.458333,ThirtySecond,G5
7806,Left,1,52,80,2533.0,0.59375,TripletSixteenth,E3
7805,Right,0,81,80,2533.0,0.416667,ThirtySecond,A5
7807,Right,0,79,80,2533.25,0.489583,ThirtySecond,G5
7808,Left,1,48,80,2533.333333,0.65625,TripletSixteenth,C3
7809,Right,0,81,80,2533.5,0.416667,ThirtySecond,A5
7810,Left,1,52,80,2533.666667,0.614583,TripletSixteenth,E3
7811,Right,0,79,80,2533.75,0.46875,ThirtySecond,G5
7814,Left,1,48,80,2534.0,0.614583,TripletSixteenth,C3
7812,Right,0,81,80,2534.0,0.958333,ThirtySecond,C5_A5
7815,Right,0,79,80,2534.25,0.489583,ThirtySecond,G5
7816,Left,1,52,80,2534.333333,0.65625,TripletSixteenth,E3
7817,Right,0,81,80,2534.5,0.416667,ThirtySecond,A5
7818,Left,1,48,80,2534.666667,0.625,TripletSixteenth,C3
7819,Right,0,79,80,2534.75,0.489583,ThirtySecond,G5
7820,Right,0,73,80,2535.0,0.958333,Sixteenth,C#5_A5
7822,Left,1,36,80,2535.0,0.65625,TripletSixteenth,C2
7823,Right,0,79,80,2535.25,0.479167,ThirtySecond,G5
7824,Left,1,53,80,2535.333333,0.614583,TripletSixteenth,F3
7825,Right,0,81,80,2535.5,0.416667,ThirtySecond,A5
7826,Left,1,48,80,2535.666667,0.65625,TripletSixteenth,C3
7827,Right,0,79,80,2535.75,0.458333,ThirtySecond,G5
7828,Left,1,53,80,2536.0,0.65625,TripletSixteenth,F3
7829,Right,0,81,80,2536.0,0.958333,ThirtySecond,D5_A5
7831,Right,0,79,80,2536.25,0.489583,ThirtySecond,G5
7832,Left,1,48,80,2536.333333,0.65625,TripletSixteenth,C3
7833,Right,0,81,80,2536.5,0.416667,ThirtySecond,A5
7834,Left,1,53,80,2536.666667,0.625,TripletSixteenth,F3
7835,Right,0,79,80,2536.75,0.479167,ThirtySecond,G5
7836,Right,0,67,80,2537.0,0.666667,TripletSixteenth,G4_A5
7838,Left,1,48,80,2537.0,0.614583,TripletSixteenth,C3
7839,Right,0,79,80,2537.25,0.479167,ThirtySecond,G5
7840,Left,1,53,80,2537.333333,0.65625,TripletSixteenth,F3
7841,Right,0,81,80,2537.5,0.416667,ThirtySecond,A5
7842,Left,1,48,80,2537.666667,0.65625,TripletSixteenth,C3
7843,Right,0,79,80,2538.0,0.208333,SixtyFourth,G5
7844,Right,0,81,80,2538.333333,0.552083,ThirtySecond,A5
7845,Right,0,79,80,2538.666667,0.59375,TripletSixteenth,G5
7846,Right,0,78,80,2539.0,0.625,TripletSixteenth,F#5
7847,Right,0,79,80,2539.333333,0.614583,TripletSixteenth,G5
7848,Right,0,81,80,2539.666667,0.572917,ThirtySecond,A5
7849,Right,0,83,80,2540.0,0.625,TripletSixteenth,B5
7850,Right,0,84,80,2540.333333,0.604167,TripletSixteenth,C6
7851,Right,0,81,80,2540.666667,0.572917,ThirtySecond,A5
7853,Right,0,83,80,2541.0,0.614583,TripletSixteenth,B5
7852,Left,1,79,80,2541.0,0.614583,TripletSixteenth,G5
7855,Right,0,84,80,2541.333333,0.625,TripletSixteenth,C6
7854,Left,1,81,80,2541.333333,0.635417,TripletSixteenth,A5
7857,Right,0,83,80,2541.666667,0.614583,TripletSixteenth,B5
7856,Left,1,79,80,2541.666667,0.65625,TripletSixteenth,G5
7858,Right,0,81,80,2542.0,0.614583,TripletSixteenth,A5
7859,Left,1,78,80,2542.0,0.65625,TripletSixteenth,F#5
7861,Right,0,83,80,2542.333333,0.59375,TripletSixteenth,B5
7860,Left,1,79,80,2542.333333,0.645833,TripletSixteenth,G5
7862,Right,0,84,80,2542.666667,0.65625,TripletSixteenth,C6
7863,Left,1,81,80,2542.666667,0.604167,TripletSixteenth,A5
7865,Left,1,83,80,2543.0,0.65625,TripletSixteenth,B5
7864,Right,0,86,80,2543.0,0.614583,TripletSixteenth,D6
7866,Right,0,88,80,2543.333333,0.625,TripletSixteenth,E6
7867,Left,1,84,80,2543.333333,0.614583,TripletSixteenth,C6
7868,Right,0,84,80,2543.666667,0.625,TripletSixteenth,C6
7869,Left,1,81,80,2543.666667,0.625,TripletSixteenth,A5
7870,Left,1,83,80,2544.0,0.635417,TripletSixteenth,B5
7871,Right,0,86,80,2544.0,0.604167,TripletSixteenth,D6
7873,Right,0,88,80,2544.333333,0.583333,TripletSixteenth,E6
7872,Left,1,84,80,2544.333333,0.625,TripletSixteenth,C6
7874,Right,0,86,80,2544.666667,0.625,TripletSixteenth,D6
7875,Left,1,83,80,2544.666667,0.604167,TripletSixteenth,B5
7877,Right,0,85,80,2545.0,0.583333,TripletSixteenth,C#6
7876,Left,1,82,80,2545.0,0.635417,TripletSixteenth,A#5
7878,Left,1,83,80,2545.333333,0.614583,TripletSixteenth,B5
7879,Right,0,86,80,2545.333333,0.59375,TripletSixteenth,D6
7880,Left,1,84,80,2545.666667,0.625,TripletSixteenth,C6
7881,Right,0,88,80,2545.666667,0.614583,TripletSixteenth,E6
7883,Right,0,89,80,2546.0,0.625,TripletSixteenth,F6
7882,Left,1,86,80,2546.0,0.625,TripletSixteenth,D6
7884,Right,0,91,80,2546.333333,0.614583,TripletSixteenth,G6
7885,Left,1,88,80,2546.333333,0.635417,TripletSixteenth,E6
7887,Right,0,88,80,2546.666667,0.635417,TripletSixteenth,E6
7886,Left,1,85,80,2546.666667,0.614583,TripletSixteenth,C#6
7888,Right,0,89,80,2547.0,0.604167,TripletSixteenth,F6
7889,Left,1,86,80,2547.0,0.604167,TripletSixteenth,D6
7890,Right,0,91,80,2547.333333,0.635417,TripletSixteenth,G6
7891,Left,1,88,80,2547.333333,0.572917,ThirtySecond,E6
7892,Right,0,89,80,2547.666667,0.65625,TripletSixteenth,F6
7893,Left,1,86,80,2547.666667,0.65625,TripletSixteenth,D6
7894,Right,0,88,80,2548.0,0.65625,TripletSixteenth,E6
7895,Left,1,84,80,2548.0,0.635417,TripletSixteenth,C6
7896,Left,1,86,80,2548.333333,0.625,TripletSixteenth,D6
7897,Right,0,89,80,2548.333333,0.625,TripletSixteenth,F6
7899,Left,1,84,80,2548.666667,0.635417,TripletSixteenth,C6
7898,Right,0,88,80,2548.666667,0.635417,TripletSixteenth,E6
7900,Right,0,86,80,2549.0,0.614583,TripletSixteenth,D6
7901,Left,1,83,80,2549.0,0.65625,TripletSixteenth,B5
7902,Right,0,88,80,2549.333333,0.65625,TripletSixteenth,E6
7903,Left,1,84,80,2549.333333,0.5625,ThirtySecond,C6
7904,Right,0,86,80,2549.666667,0.625,TripletSixteenth,D6
7905,Left,1,83,80,2549.666667,0.604167,TripletSixteenth,B5
7906,Right,0,84,80,2550.0,0.635417,TripletSixteenth,C6
7907,Left,1,81,80,2550.0,0.572917,ThirtySecond,A5
7908,Right,0,86,80,2550.333333,0.65625,TripletSixteenth,D6
7909,Left,1,83,80,2550.333333,0.604167,TripletSixteenth,B5
7911,Right,0,84,80,2550.666667,0.65625,TripletSixteenth,C6
7910,Left,1,81,80,2550.666667,0.583333,TripletSixteenth,A5
7913,Right,0,83,80,2551.0,0.65625,TripletSixteenth,B5
7912,Left,1,79,80,2551.0,0.59375,TripletSixteenth,G5
7914,Left,1,81,80,2551.333333,0.625,TripletSixteenth,A5
7915,Right,0,84,80,2551.333333,0.65625,TripletSixteenth,C6
7916,Right,0,83,80,2551.666667,0.635417,TripletSixteenth,B5
7917,Left,1,79,80,2551.666667,0.583333,TripletSixteenth,G5
7918,Right,0,84,80,2552.0,0.625,TripletSixteenth,C6
7919,Left,1,81,80,2552.0,0.625,TripletSixteenth,A5
7921,Right,0,86,80,2552.333333,0.65625,TripletSixteenth,D6
7920,Left,1,83,80,2552.333333,0.645833,TripletSixteenth,B5
7922,Left,1,81,80,2552.666667,0.65625,TripletSixteenth,A5
7923,Right,0,84,80,2552.666667,0.583333,TripletSixteenth,C6
7925,Left,1,83,80,2553.0,0.65625,TripletSixteenth,B5
7924,Right,0,86,80,2553.0,0.65625,TripletSixteenth,D6
7926,Left,1,84,80,2553.333333,0.65625,TripletSixteenth,C6
7927,Right,0,88,80,2553.333333,0.645833,TripletSixteenth,E6
7929,Left,1,83,80,2553.666667,0.635417,TripletSixteenth,B5
7928,Right,0,86,80,2553.666667,0.59375,TripletSixteenth,D6
7930,Left,1,84,80,2554.0,0.65625,TripletSixteenth,C6
7931,Right,0,88,80,2554.0,0.645833,TripletSixteenth,E6
7933,Left,1,86,80,2554.333333,0.625,TripletSixteenth,D6
7932,Right,0,89,80,2554.333333,0.614583,TripletSixteenth,F6
7934,Right,0,91,80,2554.666667,0.645833,TripletSixteenth,G6
7935,Left,1,88,80,2554.666667,0.635417,TripletSixteenth,E6
7936,Right,0,93,80,2555.0,0.65625,TripletSixteenth,A6
7937,Left,1,89,80,2555.0,0.625,TripletSixteenth,F6
7938,Left,1,88,80,2555.333333,0.625,TripletSixteenth,E6
7939,Right,0,91,80,2555.333333,0.65625,TripletSixteenth,G6
7941,Right,0,95,80,2555.666667,0.604167,TripletSixteenth,B6
7940,Left,1,86,80,2555.666667,0.635417,TripletSixteenth,D6
7943,Right,0,96,80,2556.0,0.645833,TripletSixteenth,C7
7942,Left,1,88,80,2556.0,0.65625,TripletSixteenth,E6
7944,Left,1,86,81,2556.333333,0.635417,TripletSixteenth,D6
7945,Right,0,95,81,2556.333333,0.625,TripletSixteenth,B6
7947,Left,1,84,82,2556.666667,0.645833,TripletSixteenth,C6
7946,Right,0,93,82,2556.666667,0.59375,TripletSixteenth,A6
7948,Left,1,83,83,2557.0,0.65625,TripletSixteenth,B5
7949,Right,0,91,83,2557.0,0.65625,TripletSixteenth,G6
7950,Left,1,81,84,2557.333333,0.635417,TripletSixteenth,A5
7951,Right,0,89,84,2557.333333,0.572917,ThirtySecond,F6
7952,Left,1,79,85,2557.666667,0.604167,TripletSixteenth,G5
7953,Right,0,88,85,2557.666667,0.65625,TripletSixteenth,E6
7955,Right,0,86,86,2558.0,0.583333,TripletSixteenth,D6
7954,Left,1,77,86,2558.0,0.625,TripletSixteenth,F5
7956,Right,0,84,88,2558.333333,0.59375,TripletSixteenth,C6
7957,Left,1,76,88,2558.333333,0.65625,TripletSixteenth,E5
7958,Left,1,74,89,2558.666667,0.635417,TripletSixteenth,D5
7959,Right,0,83,89,2558.666667,0.572917,ThirtySecond,B5
7961,Left,1,76,90,2559.0,0.583333,TripletSixteenth,E5
7960,Right,0,84,90,2559.0,0.635417,TripletSixteenth,C6
7963,Left,1,74,91,2559.333333,0.625,TripletSixteenth,D5
7962,Right,0,83,91,2559.333333,0.635417,TripletSixteenth,B5
7965,Left,1,72,92,2559.666667,0.614583,TripletSixteenth,C5
7964,Right,0,81,92,2559.666667,0.645833,TripletSixteenth,A5
7967,Left,1,71,93,2560.0,0.65625,TripletSixteenth,B4
7966,Right,0,79,93,2560.0,0.65625,TripletSixteenth,G5
7968,Right,0,77,94,2560.333333,0.65625,TripletSixteenth,F5
7969,Left,1,69,94,2560.333333,0.625,TripletSixteenth,A4
7970,Right,0,76,96,2560.666667,0.572917,ThirtySecond,E5
7971,Left,1,67,96,2560.666667,0.645833,TripletSixteenth,G4
7973,Left,1,65,97,2561.0,0.635417,TripletSixteenth,F4
7972,Right,0,74,97,2561.0,0.583333,TripletSixteenth,D5
7974,Right,0,72,98,2561.333333,0.625,TripletSixteenth,C5
7975,Left,1,64,98,2561.333333,0.645833,TripletSixteenth,E4
7976,Right,0,71,99,2561.666667,0.614583,TripletSixteenth,B4
7977,Left,1,62,99,2561.666667,0.635417,TripletSixteenth,D4
7978,Left,1,64,100,2562.0,0.625,TripletSixteenth,E4
7979,Right,0,72,100,2562.0,0.625,TripletSixteenth,C5
7981,Left,1,62,101,2562.333333,0.65625,TripletSixteenth,D4
7980,Right,0,71,101,2562.333333,0.583333,TripletSixteenth,B4
7983,Left,1,60,102,2562.666667,0.59375,TripletSixteenth,C4
7982,Right,0,69,102,2562.666667,0.604167,TripletSixteenth,A4
7985,Left,1,59,104,2563.0,0.5625,ThirtySecond,B3
7984,Right,0,67,104,2563.0,0.614583,TripletSixteenth,G4
7987,Right,0,65,105,2563.333333,0.65625,TripletSixteenth,F4
7986,Left,1,57,105,2563.333333,0.59375,TripletSixteenth,A3
7988,Left,1,55,106,2563.666667,0.604167,TripletSixteenth,G3
7989,Right,0,64,106,2563.666667,0.604167,TripletSixteenth,E4
7991,Right,0,62,107,2564.0,0.625,TripletSixteenth,D4
7990,Left,1,53,107,2564.0,0.614583,TripletSixteenth,F3
7993,Right,0,60,108,2564.333333,0.541667,ThirtySecond,C4
7992,Left,1,52,108,2564.333333,0.604167,TripletSixteenth,E3
7995,Right,0,59,109,2564.666667,0.479167,ThirtySecond,B3
7994,Left,1,50,109,2564.666667,0.520833,ThirtySecond,D3
7996,Right,0,60,110,2565.0,1.958333,Eighth,C4
7997,Right,0,55,110,2567.0,0.958333,Sixteenth,G3
7999,Right,0,55,110,2568.0,2.958333,DottedEighth,G3
7998,Left,1,36,120,2568.0,1.958333,Eighth,C2
8000,Left,1,31,110,2570.0,0.958333,Sixteenth,G1
8001,Right,0,77,120,2571.0,1.958333,Eighth,F5
8002,Left,1,31,110,2571.0,6.958333,DottedQuarter,G1
8003,Right,0,71,110,2573.0,0.958333,Sixteenth,B4
8004,Right,0,89,120,2574.0,1.958333,Eighth,F6
8005,Right,0,83,100,2576.0,0.958333,Sixteenth,B5
8006,Right,0,74,80,2577.0,1.958333,Eighth,F5_D6_D5
8009,Left,1,31,80,2578.0,0.958333,Sixteenth,G2_G1
8014,Left,1,36,80,2579.0,0.958333,Sixteenth,C3_C2
8011,Right,0,84,80,2579.0,0.958333,Sixteenth,E5_C6_C5
8016,Right,0,84,80,2580.0,1.958333,Eighth,E5_C6_C5
8019,Left,1,43,80,2581.0,0.958333,Sixteenth,G3_G2
8021,Left,1,48,80,2582.0,0.958333,Sixteenth,C4_C3
8023,Right,0,84,70,2583.0,1.958333,Eighth,E5_C6_C5
8026,Left,1,31,70,2584.0,0.958333,Sixteenth,G2_G1
8028,Left,1,36,70,2585.0,0.958333,Sixteenth,C3_C2
8033,Left,1,36,70,2586.0,4.958333,TiedQuarter-Sixteenth,C3_C2
8030,Right,0,60,70,2586.0,4.958333,TiedQuarter-Sixteenth,G3_E3_C4
