,hand,channel,note,velocity,start_beat,duration,note_value,chord
1,Left,1,43,100,0.0,1.989583,Half,G3_G2
0,Right,0,67,100,0.0,1.989583,Half,G4_D4_B3
5,Right,0,62,100,2.0,0.322917,Triplet,D4
6,Right,0,67,100,2.333333,0.322917,Triplet,G4
7,Right,0,71,100,2.666667,0.322917,Triplet,B4
8,Right,0,74,100,3.0,0.322917,Triplet,D5
9,Right,0,72,100,3.333333,0.322917,Triplet,C5
10,Right,0,69,100,3.666667,0.322917,Triplet,A4
11,Right,0,67,100,4.0,0.989583,Quarter,G4
13,Left,1,59,80,5.0,0.989583,Quarter,B3
12,Right,0,67,80,5.0,0.989583,Quarter,G4
15,Left,1,57,80,6.0,0.989583,Quarter,A3
14,Right,0,66,80,6.0,0.989583,Quarter,F#4
17,Left,1,55,80,7.0,0.989583,Quarter,G3
16,Right,0,67,80,7.0,0.989583,Quarter,G4
18,Left,1,54,80,8.0,0.989583,Quarter,F#3
19,Right,0,69,80,8.0,1.489583,DottedQuarter,A4
20,Left,1,50,80,9.0,0.989583,Quarter,D3
21,Right,0,69,80,9.5,0.489583,Eighth,A4
22,Left,1,55,80,10.0,0.989583,Quarter,G3
23,Right,0,71,80,10.0,1.489583,DottedQuarter,B4
24,Left,1,53,80,11.0,0.989583,Quarter,F3
25,Right,0,71,80,11.5,0.489583,Eighth,B4
27,Right,0,74,80,12.0,0.989583,Quarter,D5
26,Left,1,52,80,12.0,0.989583,Quarter,E3
29,Right,0,72,80,13.0,0.1875,TripletSixteenth,C5
28,Left,1,54,80,13.0,0.989583,Quarter,F#3
30,Right,0,74,80,13.125,0.197917,TripletSixteenth,D5
31,Right,0,72,80,13.25,0.208333,Sixteenth,C5
32,Right,0,74,80,13.375,0.1875,TripletSixteenth,D5
33,Right,0,72,80,13.5,0.1875,TripletSixteenth,C5
34,Right,0,74,80,13.625,0.208333,Sixteenth,D5
35,Right,0,71,80,13.75,0.208333,Sixteenth,B4
36,Right,0,72,80,13.875,0.114583,ThirtySecond,C5
37,Left,1,55,80,14.0,0.489583,Eighth,G3
38,Right,0,71,80,14.0,0.989583,Quarter,B4
39,Left,1,55,80,14.5,0.489583,Eighth,G3
40,Left,1,59,80,15.0,0.489583,Eighth,B3
41,Left,1,62,80,15.5,0.489583,Eighth,D4
42,Right,0,71,110,16.0,1.989583,Half,G5_D5_B4
43,Left,1,55,110,16.0,1.989583,Half,G4_G3
47,Right,0,74,106,18.0,0.322917,Triplet,D5
48,Right,0,79,105,18.333333,0.322917,Triplet,G5
49,Right,0,83,104,18.666667,0.322917,Triplet,B5
50,Right,0,86,103,19.0,0.322917,Triplet,D6
51,Right,0,84,102,19.333333,0.322917,Triplet,C6
52,Right,0,81,101,19.666667,0.322917,Triplet,A5
53,Right,0,79,101,20.0,0.989583,Quarter,G5
54,Right,0,79,80,21.0,0.989583,Quarter,G5
55,Left,1,71,80,21.0,0.489583,Eighth,B4
56,Left,1,74,80,21.5,0.489583,Eighth,D5
57,Left,1,69,80,22.0,0.489583,Eighth,A4
58,Right,0,78,80,22.0,0.989583,Quarter,F#5
59,Left,1,74,80,22.5,0.489583,Eighth,D5
60,Right,0,79,80,23.0,0.989583,Quarter,G5
61,Left,1,67,80,23.0,0.489583,Eighth,G4
62,Left,1,74,80,23.5,0.489583,Eighth,D5
63,Right,0,81,80,24.0,1.489583,DottedQuarter,A5
64,Left,1,66,80,24.0,0.489583,Eighth,F#4
65,Left,1,74,80,24.5,0.489583,Eighth,D5
66,Left,1,62,80,25.0,0.489583,Eighth,D4
67,Right,0,81,80,25.5,0.489583,Eighth,A5
68,Left,1,74,80,25.5,0.489583,Eighth,D5
70,Left,1,67,80,26.0,0.489583,Eighth,G4
69,Right,0,83,80,26.0,1.489583,DottedQuarter,B5
71,Left,1,74,80,26.5,0.489583,Eighth,D5
72,Left,1,65,80,27.0,0.489583,Eighth,F4
74,Left,1,74,80,27.5,0.489583,Eighth,D5
73,Right,0,83,80,27.5,0.489583,Eighth,B5
76,Right,0,86,80,28.0,0.989583,Quarter,D6
75,Left,1,64,80,28.0,0.489583,Eighth,E4
77,Left,1,67,80,28.5,0.489583,Eighth,G4
79,Left,1,66,80,29.0,0.489583,Eighth,F#4
78,Right,0,84,80,29.0,0.1875,TripletSixteenth,C6
80,Right,0,86,80,29.125,0.197917,TripletSixteenth,D6
81,Right,0,84,80,29.25,0.208333,Sixteenth,C6
82,Right,0,86,80,29.375,0.1875,TripletSixteenth,D6
84,Left,1,69,80,29.5,0.489583,Eighth,A4
83,Right,0,84,80,29.5,0.1875,TripletSixteenth,C6
85,Right,0,86,80,29.625,0.208333,Sixteenth,D6
86,Right,0,83,80,29.75,0.208333,Sixteenth,B5
87,Right,0,84,80,29.875,0.114583,ThirtySecond,C6
89,Right,0,83,80,30.0,0.489583,Eighth,B5
88,Left,1,67,80,30.0,0.989583,Quarter,G4
90,Right,0,84,80,30.5,0.489583,Eighth,C6
91,Right,0,85,80,31.0,0.489583,Eighth,C#6
92,Right,0,86,80,31.5,0.489583,Eighth,D6
93,Right,0,87,80,32.0,0.489583,Eighth,D#6
94,Right,0,88,80,32.5,0.489583,Eighth,E6
95,Left,1,64,80,33.0,0.989583,Quarter,E4_C4_A4
98,Right,0,88,80,33.5,0.489583,Eighth,E6
99,Right,0,86,80,34.0,0.489583,Eighth,D6
100,Right,0,84,80,34.5,0.489583,Eighth,C6
101,Right,0,83,80,35.0,0.489583,Eighth,B5
102,Right,0,81,80,35.5,0.489583,Eighth,A5
103,Right,0,85,80,36.0,0.489583,Eighth,C#6
104,Right,0,86,80,36.5,0.489583,Eighth,D6
105,Left,1,67,80,37.0,0.989583,Quarter,G4_D4_B3
108,Right,0,86,80,37.5,0.489583,Eighth,D6
109,Right,0,84,80,38.0,0.489583,Eighth,C6
110,Right,0,83,80,38.5,0.489583,Eighth,B5
111,Right,0,81,80,39.0,0.489583,Eighth,A5
112,Right,0,79,80,39.5,0.489583,Eighth,G5
114,Right,0,78,80,40.0,0.489583,Eighth,F#5
113,Left,1,60,80,40.0,0.989583,Quarter,C4
115,Right,0,76,80,40.5,0.489583,Eighth,E5
116,Right,0,74,80,41.0,0.489583,Eighth,D5
117,Right,0,72,80,41.5,0.489583,Eighth,C5
119,Right,0,71,80,42.0,0.489583,Eighth,B4
118,Left,1,62,80,42.0,0.989583,Quarter,D4
120,Right,0,69,80,42.5,0.489583,Eighth,A4
121,Right,0,67,80,43.0,0.489583,Eighth,G4
122,Right,0,66,80,43.5,0.489583,Eighth,F#4
123,Left,1,55,80,44.0,0.989583,Quarter,G3
124,Right,0,67,80,44.0,0.489583,Eighth,G4
125,Right,0,69,80,44.5,0.15625,TripletSixteenth,A4
126,Right,0,67,80,44.666667,0.15625,TripletSixteenth,G4
127,Right,0,66,80,44.833333,0.15625,TripletSixteenth,F#4
128,Right,0,67,80,45.0,0.489583,Eighth,G4
129,Right,0,69,80,45.5,0.489583,Eighth,A4
130,Right,0,71,80,46.0,0.489583,Eighth,B4
131,Right,0,72,80,46.5,0.489583,Eighth,C5
132,Right,0,73,80,47.0,0.489583,Eighth,C#5
133,Right,0,74,80,47.5,0.489583,Eighth,D5
134,Right,0,75,80,48.0,0.489583,Eighth,D#5
135,Right,0,76,80,48.5,0.489583,Eighth,E5
136,Left,1,48,80,49.0,0.989583,Quarter,E3_C3_A3
139,Right,0,76,80,49.5,0.489583,Eighth,E5
140,Right,0,74,80,50.0,0.489583,Eighth,D5
141,Right,0,72,80,50.5,0.489583,Eighth,C5
142,Right,0,71,80,51.0,0.489583,Eighth,B4
143,Right,0,69,80,51.5,0.489583,Eighth,A4
144,Right,0,75,80,52.0,0.489583,Eighth,D#5
145,Right,0,76,80,52.5,0.489583,Eighth,E5
146,Left,1,49,80,53.0,0.989583,Quarter,E3_C#3_A3
149,Right,0,76,80,53.5,0.489583,Eighth,E5
150,Right,0,76,80,54.0,0.489583,Eighth,E5
151,Right,0,73,80,54.5,0.489583,Eighth,C#5
152,Right,0,69,80,55.0,0.489583,Eighth,A4
153,Right,0,67,80,55.5,0.489583,Eighth,G4
154,Left,1,50,100,56.0,0.322917,Triplet,D3
155,Right,0,66,100,56.0,0.989583,Quarter,F#4
156,Left,1,54,100,56.333333,0.322917,Triplet,F#3
157,Left,1,57,100,56.666667,0.322917,Triplet,A3
158,Right,0,81,110,57.0,0.322917,Triplet,A5
159,Left,1,50,100,57.0,0.322917,Triplet,D3
160,Right,0,78,110,57.333333,0.322917,Triplet,F#5
161,Left,1,54,100,57.333333,0.322917,Triplet,F#3
163,Left,1,57,100,57.666667,0.322917,Triplet,A3
162,Right,0,74,110,57.666667,0.322917,Triplet,D5
165,Left,1,50,100,58.0,0.322917,Triplet,D3
164,Right,0,72,110,58.0,0.989583,Quarter,C5
166,Left,1,54,100,58.333333,0.322917,Triplet,F#3
167,Left,1,57,100,58.666667,0.322917,Triplet,A3
169,Left,1,50,100,59.0,0.322917,Triplet,D3
168,Right,0,81,110,59.0,0.322917,Triplet,A5
170,Left,1,54,100,59.333333,0.322917,Triplet,F#3
171,Right,0,78,110,59.333333,0.322917,Triplet,F#5
173,Right,0,72,110,59.666667,0.322917,Triplet,C5
172,Left,1,57,100,59.666667,0.322917,Triplet,A3
175,Right,0,71,110,60.0,0.989583,Quarter,B4
174,Left,1,50,100,60.0,0.322917,Triplet,D3
176,Left,1,55,100,60.333333,0.322917,Triplet,G3
177,Left,1,59,100,60.666667,0.322917,Triplet,B3
179,Left,1,50,100,61.0,0.322917,Triplet,D3
178,Right,0,79,110,61.0,0.322917,Triplet,G5
181,Right,0,74,110,61.333333,0.322917,Triplet,D5
180,Left,1,55,100,61.333333,0.322917,Triplet,G3
183,Left,1,59,100,61.666667,0.322917,Triplet,B3
182,Right,0,71,110,61.666667,0.322917,Triplet,B4
184,Left,1,50,100,62.0,0.322917,Triplet,D3
185,Right,0,67,110,62.0,0.989583,Quarter,G4
186,Left,1,55,100,62.333333,0.322917,Triplet,G3
187,Left,1,59,100,62.666667,0.322917,Triplet,B3
189,Right,0,74,110,63.0,0.322917,Triplet,D5
188,Left,1,50,100,63.0,0.322917,Triplet,D3
190,Left,1,55,100,63.333333,0.322917,Triplet,G3
191,Right,0,71,110,63.333333,0.322917,Triplet,B4
192,Left,1,59,100,63.666667,0.322917,Triplet,B3
193,Right,0,67,110,63.666667,0.322917,Triplet,G4
194,Left,1,50,100,64.0,0.322917,Triplet,D3
195,Right,0,66,110,64.0,0.989583,Quarter,F#4
196,Left,1,54,100,64.333333,0.322917,Triplet,F#3
197,Left,1,57,100,64.666667,0.322917,Triplet,A3
199,Right,0,81,110,65.0,0.322917,Triplet,A5
198,Left,1,50,100,65.0,0.322917,Triplet,D3
201,Left,1,54,100,65.333333,0.322917,Triplet,F#3
200,Right,0,78,110,65.333333,0.322917,Triplet,F#5
202,Right,0,74,110,65.666667,0.322917,Triplet,D5
203,Left,1,57,100,65.666667,0.322917,Triplet,A3
205,Left,1,50,100,66.0,0.322917,Triplet,D3
204,Right,0,72,110,66.0,0.989583,Quarter,C5
206,Left,1,54,100,66.333333,0.322917,Triplet,F#3
207,Left,1,57,100,66.666667,0.322917,Triplet,A3
208,Left,1,50,100,67.0,0.322917,Triplet,D3
209,Right,0,81,110,67.0,0.322917,Triplet,A5
211,Left,1,54,100,67.333333,0.322917,Triplet,F#3
210,Right,0,78,110,67.333333,0.322917,Triplet,F#5
213,Left,1,57,100,67.666667,0.322917,Triplet,A3
212,Right,0,72,110,67.666667,0.322917,Triplet,C5
215,Left,1,50,100,68.0,0.322917,Triplet,D3
214,Right,0,71,110,68.0,0.989583,Quarter,B4
216,Left,1,55,100,68.333333,0.322917,Triplet,G3
217,Left,1,59,100,68.666667,0.322917,Triplet,B3
218,Left,1,50,100,69.0,0.322917,Triplet,D3
219,Right,0,79,110,69.0,0.322917,Triplet,G5
221,Left,1,55,100,69.333333,0.322917,Triplet,G3
220,Right,0,74,110,69.333333,0.322917,Triplet,D5
222,Left,1,59,100,69.666667,0.322917,Triplet,B3
223,Right,0,71,110,69.666667,0.322917,Triplet,B4
224,Left,1,50,100,70.0,0.322917,Triplet,D3
225,Right,0,67,110,70.0,0.989583,Quarter,G4
226,Left,1,55,100,70.333333,0.322917,Triplet,G3
227,Left,1,59,100,70.666667,0.322917,Triplet,B3
228,Right,0,74,110,71.0,0.322917,Triplet,D5
229,Left,1,50,100,71.0,0.322917,Triplet,D3
230,Right,0,71,110,71.333333,0.322917,Triplet,B4
231,Left,1,55,100,71.333333,0.322917,Triplet,G3
233,Right,0,67,110,71.666667,0.322917,Triplet,G4
232,Left,1,59,100,71.666667,0.322917,Triplet,B3
235,Right,0,62,110,72.0,0.989583,Quarter,D4
234,Left,1,50,100,72.0,0.322917,Triplet,D3
236,Left,1,54,100,72.333333,0.322917,Triplet,F#3
237,Left,1,57,100,72.666667,0.322917,Triplet,A3
238,Left,1,50,100,73.0,0.322917,Triplet,D3
239,Right,0,74,110,73.0,0.322917,Triplet,D5
240,Left,1,55,100,73.333333,0.322917,Triplet,G3
241,Right,0,71,110,73.333333,0.322917,Triplet,B4
243,Right,0,67,110,73.666667,0.322917,Triplet,G4
242,Left,1,59,100,73.666667,0.322917,Triplet,B3
245,Right,0,62,110,74.0,0.989583,Quarter,D4
244,Left,1,50,100,74.0,0.322917,Triplet,D3
246,Left,1,54,100,74.333333,0.322917,Triplet,F#3
247,Left,1,57,100,74.666667,0.322917,Triplet,A3
248,Left,1,50,100,75.0,0.322917,Triplet,D3
249,Right,0,74,110,75.0,0.322917,Triplet,D5
251,Left,1,55,100,75.333333,0.322917,Triplet,G3
250,Right,0,71,110,75.333333,0.322917,Triplet,B4
252,Right,0,67,110,75.666667,0.322917,Triplet,G4
253,Left,1,59,100,75.666667,0.322917,Triplet,B3
255,Left,1,50,100,76.0,0.989583,Quarter,F#3_D3
254,Right,0,62,110,76.0,0.989583,Quarter,D4
257,Right,0,69,80,78.5,0.489583,Eighth,A4
258,Right,0,69,80,79.0,0.489583,Eighth,A4
259,Right,0,69,80,79.5,0.489583,Eighth,A4
261,Left,1,66,80,80.0,0.489583,Eighth,F#4
260,Right,0,74,80,80.0,0.989583,Quarter,D5
262,Left,1,69,80,80.5,0.489583,Eighth,A4
264,Left,1,67,80,81.0,0.489583,Eighth,G4
263,Right,0,73,80,81.0,0.989583,Quarter,C#5
265,Left,1,69,80,81.5,0.489583,Eighth,A4
267,Right,0,74,80,82.0,0.989583,Quarter,D5
266,Left,1,66,80,82.0,0.489583,Eighth,F#4
268,Left,1,69,80,82.5,0.489583,Eighth,A4
270,Right,0,76,80,83.0,0.989583,Quarter,E5
269,Left,1,61,80,83.0,0.489583,Eighth,C#4
271,Left,1,69,80,83.5,0.489583,Eighth,A4
272,Right,0,79,80,84.0,0.489583,Eighth,G5
273,Left,1,62,80,84.0,0.489583,Eighth,D4
275,Left,1,69,80,84.5,0.489583,Eighth,A4
274,Right,0,78,80,84.5,0.489583,Eighth,F#5
276,Right,0,76,80,85.0,0.989583,Quarter,E5
277,Left,1,61,80,85.0,0.489583,Eighth,C#4
278,Left,1,69,80,85.5,0.489583,Eighth,A4
279,Left,1,57,80,86.0,0.989583,Quarter,A3
280,Right,0,69,80,86.5,0.489583,Eighth,A4
281,Right,0,69,80,87.0,0.489583,Eighth,A4
282,Right,0,69,80,87.5,0.489583,Eighth,A4
284,Right,0,76,80,88.0,0.989583,Quarter,E5
283,Left,1,67,80,88.0,0.489583,Eighth,G4
285,Left,1,69,80,88.5,0.489583,Eighth,A4
286,Right,0,74,80,89.0,0.989583,Quarter,D5
287,Left,1,66,80,89.0,0.489583,Eighth,F#4
288,Left,1,69,80,89.5,0.489583,Eighth,A4
289,Right,0,76,80,90.0,0.989583,Quarter,E5_C#5
291,Left,1,64,80,90.0,0.489583,Eighth,E4
292,Left,1,69,80,90.5,0.489583,Eighth,A4
293,Right,0,78,80,91.0,0.989583,Quarter,F#5_D5
295,Left,1,62,80,91.0,0.489583,Eighth,D4
296,Left,1,69,80,91.5,0.489583,Eighth,A4
297,Left,1,61,80,92.0,0.489583,Eighth,C#4
298,Right,0,81,80,92.0,0.489583,Eighth,E5_A5
300,Right,0,79,80,92.5,0.489583,Eighth,G5
301,Left,1,69,80,92.5,0.489583,Eighth,A4
302,Right,0,74,80,93.0,0.989583,Quarter,F#5_D5
303,Left,1,62,80,93.0,0.489583,Eighth,D4
305,Left,1,69,80,93.5,0.489583,Eighth,A4
306,Left,1,62,80,94.0,0.989583,Quarter,D4
307,Right,0,81,80,94.5,0.489583,Eighth,A5
308,Right,0,79,80,95.0,0.489583,Eighth,G5
309,Right,0,78,80,95.5,0.489583,Eighth,F#5
311,Right,0,78,80,96.0,0.489583,Eighth,F#5
310,Left,1,71,80,96.0,1.989583,Half,G4_B4
313,Right,0,76,80,96.5,0.489583,Eighth,E5
314,Right,0,76,80,97.0,0.489583,Eighth,E5
315,Right,0,76,80,97.5,0.489583,Eighth,E5
316,Left,1,69,80,98.0,0.989583,Quarter,F#4_A4
318,Right,0,74,80,98.0,0.489583,Eighth,D5
319,Right,0,81,80,98.5,0.489583,Eighth,A5
320,Right,0,79,80,99.0,0.489583,Eighth,G5
321,Right,0,78,80,99.5,0.489583,Eighth,F#5
323,Left,1,67,80,100.0,1.989583,Half,G4_B4
322,Right,0,78,80,100.0,0.489583,Eighth,F#5
325,Right,0,76,80,100.5,0.489583,Eighth,E5
326,Right,0,76,80,101.0,0.489583,Eighth,E5
327,Right,0,76,80,101.5,0.489583,Eighth,E5
329,Left,1,66,80,102.0,0.989583,Quarter,F#4_A4
328,Right,0,74,80,102.0,0.489583,Eighth,D5
331,Right,0,81,80,102.5,0.489583,Eighth,A5
332,Right,0,79,80,103.0,0.489583,Eighth,G5
333,Right,0,78,80,103.5,0.489583,Eighth,F#5
334,Right,0,78,80,104.0,0.489583,Eighth,F#5
335,Right,0,76,80,104.5,0.489583,Eighth,E5
336,Left,1,67,80,105.0,0.989583,Quarter,G4
337,Right,0,76,80,105.5,0.489583,Eighth,E5
338,Right,0,76,80,106.0,0.489583,Eighth,E5
339,Right,0,74,80,106.5,0.489583,Eighth,D5
340,Left,1,68,80,107.0,0.989583,Quarter,G#4
341,Right,0,74,80,107.5,0.489583,Eighth,D5
343,Right,0,74,80,108.0,0.489583,Eighth,D5
342,Left,1,69,80,108.0,0.989583,Quarter,A4
344,Right,0,73,80,108.5,0.489583,Eighth,C#5
345,Right,0,71,80,109.0,0.489583,Eighth,B4
346,Left,1,57,80,109.0,0.989583,Quarter,A3
347,Right,0,69,80,109.5,0.489583,Eighth,A4
348,Right,0,68,80,110.0,0.489583,Eighth,G#4
349,Right,0,69,80,110.5,0.489583,Eighth,A4
350,Right,0,71,80,111.0,0.489583,Eighth,B4
351,Right,0,73,80,111.5,0.489583,Eighth,C#5
352,Right,0,74,80,112.0,0.989583,Quarter,D5
353,Left,1,66,80,112.0,0.489583,Eighth,F#4
354,Left,1,69,80,112.5,0.489583,Eighth,A4
356,Left,1,67,80,113.0,0.489583,Eighth,G4
355,Right,0,73,80,113.0,0.989583,Quarter,C#5
357,Left,1,69,80,113.5,0.489583,Eighth,A4
358,Left,1,66,80,114.0,0.489583,Eighth,F#4
359,Right,0,74,80,114.0,0.989583,Quarter,D5
360,Left,1,69,80,114.5,0.489583,Eighth,A4
361,Right,0,76,80,115.0,0.989583,Quarter,E5
362,Left,1,61,80,115.0,0.489583,Eighth,C#4
363,Left,1,69,80,115.5,0.489583,Eighth,A4
364,Right,0,79,80,116.0,0.489583,Eighth,G5_D5
366,Left,1,62,80,116.0,0.489583,Eighth,D4
368,Left,1,69,80,116.5,0.489583,Eighth,A4
367,Right,0,78,80,116.5,0.489583,Eighth,F#5
370,Right,0,76,80,117.0,0.989583,Quarter,E5_C#5
369,Left,1,57,80,117.0,0.489583,Eighth,A3
372,Left,1,69,80,117.5,0.489583,Eighth,A4
373,Left,1,57,80,118.0,0.989583,Quarter,A3
374,Right,0,69,80,118.5,0.489583,Eighth,A4
375,Right,0,69,80,119.0,0.489583,Eighth,A4
376,Right,0,69,80,119.5,0.489583,Eighth,A4
378,Left,1,67,80,120.0,0.489583,Eighth,G4
377,Right,0,76,80,120.0,0.989583,Quarter,E5
379,Left,1,69,80,120.5,0.489583,Eighth,A4
381,Left,1,66,80,121.0,0.489583,Eighth,F#4
380,Right,0,74,80,121.0,0.989583,Quarter,D5
382,Left,1,69,80,121.5,0.489583,Eighth,A4
385,Left,1,64,80,122.0,0.489583,Eighth,E4
383,Right,0,76,80,122.0,0.989583,Quarter,E5_C#5
386,Left,1,69,80,122.5,0.489583,Eighth,A4
387,Left,1,62,80,123.0,0.489583,Eighth,D4
388,Right,0,74,80,123.0,0.989583,Quarter,F#5_D5
390,Left,1,69,80,123.5,0.489583,Eighth,A4
392,Left,1,61,80,124.0,0.489583,Eighth,C#4
391,Right,0,81,80,124.0,0.489583,Eighth,E5_A5
395,Right,0,79,80,124.5,0.489583,Eighth,G5
394,Left,1,69,80,124.5,0.489583,Eighth,A4
396,Left,1,62,80,125.0,0.489583,Eighth,D4
397,Right,0,78,80,125.0,0.989583,Quarter,F#5_D5
399,Left,1,69,80,125.5,0.489583,Eighth,A4
400,Left,1,62,80,126.0,0.989583,Quarter,D4
401,Right,0,81,80,126.5,0.489583,Eighth,A5
402,Right,0,79,80,127.0,0.489583,Eighth,G5
403,Right,0,78,80,127.5,0.489583,Eighth,F#5
404,Left,1,71,80,128.0,1.989583,Half,G4_B4
405,Right,0,78,80,128.0,0.489583,Eighth,F#5
407,Right,0,76,80,128.5,0.489583,Eighth,E5
408,Right,0,76,80,129.0,0.489583,Eighth,E5
409,Right,0,76,80,129.5,0.489583,Eighth,E5
411,Right,0,74,80,130.0,0.489583,Eighth,D5
410,Left,1,66,80,130.0,0.989583,Quarter,F#4_A4
413,Right,0,81,80,130.5,0.489583,Eighth,A5
414,Right,0,79,80,131.0,0.489583,Eighth,G5
415,Right,0,78,80,131.5,0.489583,Eighth,F#5
417,Right,0,78,80,132.0,0.489583,Eighth,F#5
416,Left,1,71,80,132.0,1.989583,Half,G4_B4
419,Right,0,76,80,132.5,0.489583,Eighth,E5
420,Right,0,76,80,133.0,0.489583,Eighth,E5
421,Right,0,76,80,133.5,0.489583,Eighth,E5
422,Left,1,69,80,134.0,0.989583,Quarter,F#4_A4
423,Right,0,74,80,134.0,0.489583,Eighth,D5
425,Right,0,81,80,134.5,0.489583,Eighth,A5
426,Right,0,79,80,135.0,0.489583,Eighth,G5
427,Right,0,78,80,135.5,0.489583,Eighth,F#5
428,Right,0,78,80,136.0,0.489583,Eighth,F#5
429,Right,0,76,80,136.5,0.489583,Eighth,E5
431,Left,1,55,80,137.0,0.989583,Quarter,G3
430,Right,0,79,80,137.0,0.489583,Eighth,G5
432,Right,0,76,80,137.5,0.489583,Eighth,E5
434,Right,0,76,80,138.0,0.489583,Eighth,E5
433,Left,1,57,80,138.0,0.989583,Quarter,A3
435,Right,0,74,80,138.5,0.489583,Eighth,D5
436,Right,0,74,80,139.0,0.489583,Eighth,D5
437,Left,1,45,80,139.0,0.989583,Quarter,A2
438,Right,0,73,80,139.5,0.489583,Eighth,C#5
440,Left,1,50,110,140.0,0.989583,Quarter,D3
439,Right,0,74,110,140.0,0.072917,TripletThirtySecond,D5
441,Right,0,81,110,140.083333,0.239583,Sixteenth,A5
442,Right,0,79,110,140.333333,0.322917,Triplet,G5
443,Right,0,78,110,140.666667,0.322917,Triplet,F#5
444,Right,0,76,110,141.0,0.322917,Triplet,E5
445,Right,0,74,110,141.333333,0.322917,Triplet,D5
446,Right,0,73,110,141.666667,0.322917,Triplet,C#5
447,Right,0,71,110,142.0,0.322917,Triplet,B4
448,Right,0,69,110,142.333333,0.322917,Triplet,A4
449,Right,0,67,110,142.666667,0.322917,Triplet,G4
450,Right,0,66,110,143.0,0.322917,Triplet,F#4
451,Right,0,64,110,143.333333,0.322917,Triplet,E4
452,Right,0,62,110,143.666667,0.322917,Triplet,D4
454,Left,1,52,110,144.0,0.322917,Triplet,E3
453,Right,0,61,110,144.0,0.989583,Quarter,C#4
455,Left,1,55,110,144.333333,0.322917,Triplet,G3
456,Left,1,57,110,144.666667,0.322917,Triplet,A3
458,Right,0,61,110,145.0,0.989583,Quarter,C#4
457,Left,1,52,110,145.0,0.322917,Triplet,E3
459,Left,1,55,110,145.333333,0.322917,Triplet,G3
460,Left,1,57,110,145.666667,0.322917,Triplet,A3
462,Right,0,61,110,146.0,0.989583,Quarter,C#4
461,Left,1,52,110,146.0,0.322917,Triplet,E3
463,Left,1,55,110,146.333333,0.322917,Triplet,G3
464,Left,1,57,110,146.666667,0.322917,Triplet,A3
465,Left,1,52,110,147.0,0.322917,Triplet,E3
466,Right,0,61,110,147.0,0.989583,Quarter,C#4
467,Left,1,55,110,147.333333,0.322917,Triplet,G3
468,Left,1,57,110,147.666667,0.322917,Triplet,A3
471,Right,0,62,110,148.0,0.322917,Triplet,D4
469,Left,1,50,110,148.0,0.989583,Quarter,F#3_D3
472,Right,0,64,110,148.333333,0.322917,Triplet,E4
473,Right,0,66,110,148.666667,0.322917,Triplet,F#4
474,Right,0,67,110,149.0,0.322917,Triplet,G4
475,Right,0,69,110,149.333333,0.322917,Triplet,A4
476,Right,0,71,110,149.666667,0.322917,Triplet,B4
477,Right,0,73,110,150.0,0.322917,Triplet,C#5
478,Right,0,74,110,150.333333,0.322917,Triplet,D5
479,Right,0,76,110,150.666667,0.322917,Triplet,E5
480,Right,0,78,110,151.0,0.322917,Triplet,F#5
481,Right,0,79,110,151.333333,0.322917,Triplet,G5
482,Right,0,81,110,151.666667,0.322917,Triplet,A5
483,Right,0,79,110,152.0,0.989583,Quarter,G5
484,Left,1,49,110,152.0,0.322917,Triplet,C#3
485,Left,1,52,110,152.333333,0.322917,Triplet,E3
486,Left,1,57,110,152.666667,0.322917,Triplet,A3
488,Left,1,49,110,153.0,0.322917,Triplet,C#3
487,Right,0,79,110,153.0,0.989583,Quarter,G5
489,Left,1,52,110,153.333333,0.322917,Triplet,E3
490,Left,1,57,110,153.666667,0.322917,Triplet,A3
492,Right,0,79,110,154.0,0.989583,Quarter,G5
491,Left,1,49,110,154.0,0.322917,Triplet,C#3
493,Left,1,52,110,154.333333,0.322917,Triplet,E3
494,Left,1,57,110,154.666667,0.322917,Triplet,A3
496,Left,1,49,110,155.0,0.322917,Triplet,C#3
495,Right,0,79,110,155.0,0.989583,Quarter,G5
497,Left,1,52,110,155.333333,0.322917,Triplet,E3
498,Left,1,57,110,155.666667,0.322917,Triplet,A3
499,Left,1,50,110,156.0,0.989583,Quarter,D3
500,Right,0,78,110,156.0,0.072917,TripletThirtySecond,F#5
501,Right,0,81,110,156.083333,0.239583,Sixteenth,A5
502,Right,0,79,110,156.333333,0.322917,Triplet,G5
503,Right,0,78,110,156.666667,0.322917,Triplet,F#5
504,Right,0,76,110,157.0,0.322917,Triplet,E5
505,Right,0,74,110,157.333333,0.322917,Triplet,D5
506,Right,0,73,110,157.666667,0.322917,Triplet,C#5
507,Right,0,71,110,158.0,0.322917,Triplet,B4
508,Right,0,69,110,158.333333,0.322917,Triplet,A4
509,Right,0,67,110,158.666667,0.322917,Triplet,G4
510,Right,0,66,110,159.0,0.322917,Triplet,F#4
511,Right,0,64,110,159.333333,0.322917,Triplet,E4
512,Right,0,62,110,159.666667,0.322917,Triplet,D4
513,Right,0,60,110,160.0,0.989583,Quarter,C4
514,Left,1,50,110,160.0,0.322917,Triplet,D3
515,Left,1,54,110,160.333333,0.322917,Triplet,F#3
516,Left,1,57,110,160.666667,0.322917,Triplet,A3
517,Left,1,50,110,161.0,0.322917,Triplet,D3
518,Right,0,60,110,161.0,0.989583,Quarter,C4
519,Left,1,54,110,161.333333,0.322917,Triplet,F#3
520,Left,1,57,110,161.666667,0.322917,Triplet,A3
522,Right,0,60,110,162.0,0.989583,Quarter,C4
521,Left,1,50,110,162.0,0.322917,Triplet,D3
523,Left,1,54,110,162.333333,0.322917,Triplet,F#3
524,Left,1,57,110,162.666667,0.322917,Triplet,A3
526,Left,1,50,110,163.0,0.322917,Triplet,D3
525,Right,0,60,110,163.0,0.989583,Quarter,C4
527,Left,1,54,110,163.333333,0.322917,Triplet,F#3
528,Left,1,57,110,163.666667,0.322917,Triplet,A3
529,Right,0,59,110,164.0,0.322917,Triplet,B3
530,Left,1,43,110,164.0,1.989583,Half,G2
531,Right,0,64,110,164.333333,0.322917,Triplet,E4
532,Right,0,67,110,164.666667,0.322917,Triplet,G4
534,Left,1,55,110,165.0,0.989583,Quarter,G3
533,Right,0,71,110,165.0,0.322917,Triplet,B4
535,Right,0,67,110,165.333333,0.322917,Triplet,G4
536,Right,0,64,110,165.666667,0.322917,Triplet,E4
539,Right,0,62,110,166.0,0.989583,Quarter,D4
537,Left,1,54,110,166.0,0.989583,Quarter,F#3_A2
541,Left,1,55,110,167.0,0.989583,Quarter,G3_A2
540,Right,0,66,110,167.0,0.489583,Eighth,F#4
543,Right,0,64,110,167.5,0.489583,Eighth,E4
545,Left,1,54,110,168.0,0.989583,Quarter,F#3_D3
544,Right,0,62,110,168.0,0.322917,Triplet,D4
547,Right,0,64,110,168.333333,0.322917,Triplet,E4
548,Right,0,66,110,168.666667,0.322917,Triplet,F#4
549,Right,0,67,110,169.0,0.322917,Triplet,G4
550,Right,0,69,110,169.333333,0.322917,Triplet,A4
551,Right,0,71,110,169.666667,0.322917,Triplet,B4
552,Right,0,73,110,170.0,0.322917,Triplet,C#5
553,Right,0,74,110,170.333333,0.322917,Triplet,D5
554,Right,0,76,110,170.666667,0.322917,Triplet,E5
555,Right,0,78,110,171.0,0.322917,Triplet,F#5
556,Right,0,79,110,171.333333,0.322917,Triplet,G5
557,Right,0,81,110,171.666667,0.322917,Triplet,A5
558,Right,0,79,110,172.0,3.989583,Whole,G5_B5
560,Left,1,55,110,172.333333,0.322917,Triplet,G3
561,Left,1,57,110,172.666667,0.322917,Triplet,A3
562,Left,1,59,110,173.0,0.322917,Triplet,B3
563,Left,1,61,110,173.333333,0.322917,Triplet,C#4
564,Left,1,62,110,173.666667,0.322917,Triplet,D4
565,Left,1,64,110,174.0,0.322917,Triplet,E4
566,Left,1,66,110,174.333333,0.322917,Triplet,F#4
567,Left,1,67,110,174.666667,0.322917,Triplet,G4
568,Left,1,69,110,175.0,0.322917,Triplet,A4
569,Left,1,71,110,175.333333,0.322917,Triplet,B4
570,Left,1,73,110,175.666667,0.322917,Triplet,C#5
573,Left,1,74,110,176.0,0.989583,Quarter,D5
571,Right,0,81,110,176.0,0.989583,Quarter,F#5_A5
575,Right,0,79,110,177.0,0.989583,Quarter,G5_E5
574,Left,1,67,110,177.0,0.989583,Quarter,G4
577,Right,0,78,110,178.0,0.989583,Quarter,F#5_D5
578,Left,1,69,110,178.0,0.989583,Quarter,A4
582,Left,1,57,110,179.0,0.989583,Quarter,A3
580,Right,0,76,110,179.0,0.989583,Quarter,E5_C#5
583,Right,0,81,110,180.0,0.322917,Triplet,A5
584,Right,0,79,110,180.333333,0.322917,Triplet,G5
585,Right,0,78,110,180.666667,0.322917,Triplet,F#5
586,Right,0,76,110,181.0,0.322917,Triplet,E5
587,Right,0,74,110,181.333333,0.322917,Triplet,D5
588,Right,0,73,110,181.666667,0.322917,Triplet,C#5
589,Right,0,71,110,182.0,0.322917,Triplet,B4
590,Right,0,69,110,182.333333,0.322917,Triplet,A4
591,Right,0,67,110,182.666667,0.322917,Triplet,G4
592,Right,0,66,110,183.0,0.322917,Triplet,F#4
593,Right,0,64,110,183.333333,0.322917,Triplet,E4
594,Right,0,62,110,183.666667,0.322917,Triplet,D4
595,Right,0,71,110,184.0,3.989583,Whole,G4_B4
597,Left,1,43,110,184.333333,0.322917,Triplet,G2
598,Left,1,45,110,184.666667,0.322917,Triplet,A2
599,Left,1,47,110,185.0,0.322917,Triplet,B2
600,Left,1,49,110,185.333333,0.322917,Triplet,C#3
601,Left,1,50,110,185.666667,0.322917,Triplet,D3
602,Left,1,52,110,186.0,0.322917,Triplet,E3
603,Left,1,54,110,186.333333,0.322917,Triplet,F#3
604,Left,1,55,110,186.666667,0.322917,Triplet,G3
605,Left,1,57,110,187.0,0.322917,Triplet,A3
606,Left,1,59,110,187.333333,0.322917,Triplet,B3
607,Left,1,61,110,187.666667,0.322917,Triplet,C#4
609,Right,0,66,110,188.0,0.989583,Quarter,F#4_A4
608,Left,1,62,110,188.0,0.989583,Quarter,D4
612,Right,0,67,110,189.0,0.989583,Quarter,G4_E4
611,Left,1,55,110,189.0,0.989583,Quarter,G3
616,Left,1,57,110,190.0,0.989583,Quarter,A3
614,Right,0,66,110,190.0,0.989583,Quarter,F#4_D4
617,Right,0,61,110,191.0,0.989583,Quarter,E4_C#4
618,Left,1,45,110,191.0,0.989583,Quarter,A2
620,Right,0,62,110,192.0,0.989583,Quarter,D4
621,Left,1,50,110,192.0,0.322917,Triplet,D3
622,Left,1,54,110,192.333333,0.322917,Triplet,F#3
623,Left,1,57,110,192.666667,0.322917,Triplet,A3
624,Right,0,81,110,193.0,0.322917,Triplet,A5
625,Left,1,50,110,193.0,0.322917,Triplet,D3
626,Left,1,54,110,193.333333,0.322917,Triplet,F#3
627,Right,0,78,110,193.333333,0.322917,Triplet,F#5
628,Left,1,57,110,193.666667,0.322917,Triplet,A3
629,Right,0,74,110,193.666667,0.322917,Triplet,D5
630,Right,0,73,110,194.0,0.989583,Quarter,C#5
631,Left,1,50,110,194.0,0.322917,Triplet,D3
632,Left,1,55,110,194.333333,0.322917,Triplet,G3
633,Left,1,57,110,194.666667,0.322917,Triplet,A3
634,Left,1,50,110,195.0,0.322917,Triplet,D3
635,Right,0,79,110,195.0,0.322917,Triplet,G5
636,Right,0,76,110,195.333333,0.322917,Triplet,E5
637,Left,1,55,110,195.333333,0.322917,Triplet,G3
639,Right,0,73,110,195.666667,0.322917,Triplet,C#5
638,Left,1,57,110,195.666667,0.322917,Triplet,A3
640,Right,0,74,110,196.0,0.989583,Quarter,D5
641,Left,1,50,110,196.0,0.322917,Triplet,D3
642,Left,1,54,110,196.333333,0.322917,Triplet,F#3
643,Left,1,57,110,196.666667,0.322917,Triplet,A3
644,Right,0,69,110,197.0,0.322917,Triplet,A4
645,Left,1,50,110,197.0,0.322917,Triplet,D3
647,Left,1,54,110,197.333333,0.322917,Triplet,F#3
646,Right,0,66,110,197.333333,0.322917,Triplet,F#4
648,Left,1,57,110,197.666667,0.322917,Triplet,A3
649,Right,0,62,110,197.666667,0.322917,Triplet,D4
650,Right,0,61,110,198.0,0.989583,Quarter,C#4
651,Left,1,50,110,198.0,0.322917,Triplet,D3
652,Left,1,55,110,198.333333,0.322917,Triplet,G3
653,Left,1,57,110,198.666667,0.322917,Triplet,A3
655,Left,1,50,110,199.0,0.322917,Triplet,D3
654,Right,0,67,110,199.0,0.322917,Triplet,G4
657,Left,1,55,110,199.333333,0.322917,Triplet,G3
656,Right,0,64,110,199.333333,0.322917,Triplet,E4
658,Left,1,57,110,199.666667,0.322917,Triplet,A3
659,Right,0,61,110,199.666667,0.322917,Triplet,C#4
660,Right,0,62,110,200.0,0.989583,Quarter,D4
661,Left,1,50,110,200.0,0.322917,Triplet,D3
662,Left,1,54,110,200.333333,0.322917,Triplet,F#3
663,Left,1,57,110,200.666667,0.322917,Triplet,A3
664,Right,0,67,110,201.0,0.322917,Triplet,G4
665,Left,1,50,110,201.0,0.322917,Triplet,D3
667,Right,0,64,110,201.333333,0.322917,Triplet,E4
666,Left,1,55,110,201.333333,0.322917,Triplet,G3
668,Right,0,61,110,201.666667,0.322917,Triplet,C#4
669,Left,1,57,110,201.666667,0.322917,Triplet,A3
670,Right,0,62,110,202.0,0.989583,Quarter,D4
671,Left,1,50,110,202.0,0.322917,Triplet,D3
672,Left,1,54,110,202.333333,0.322917,Triplet,F#3
673,Left,1,57,110,202.666667,0.322917,Triplet,A3
675,Right,0,67,110,203.0,0.322917,Triplet,G4
674,Left,1,50,110,203.0,0.322917,Triplet,D3
676,Left,1,55,110,203.333333,0.322917,Triplet,G3
677,Right,0,64,110,203.333333,0.322917,Triplet,E4
678,Right,0,61,110,203.666667,0.322917,Triplet,C#4
679,Left,1,57,110,203.666667,0.322917,Triplet,A3
680,Right,0,62,110,204.0,0.989583,Quarter,D4
681,Left,1,54,110,204.0,0.989583,Quarter,F#3_D3
684,Left,1,50,110,205.0,0.989583,Quarter,D3_D2
683,Right,0,54,110,205.0,0.989583,Quarter,F#3_D4_A3
688,Left,1,50,110,206.0,0.989583,Quarter,D3_D2
690,Right,0,62,110,206.0,0.989583,Quarter,F#3_D4_A3
693,Left,1,55,100,208.0,1.989583,Half,G3_G2
695,Right,0,67,100,208.0,1.989583,Half,G4_D4_B3
698,Right,0,62,100,210.0,0.322917,Triplet,D4
699,Right,0,67,100,210.333333,0.322917,Triplet,G4
700,Right,0,71,100,210.666667,0.322917,Triplet,B4
701,Right,0,74,100,211.0,0.322917,Triplet,D5
702,Right,0,72,100,211.333333,0.322917,Triplet,C5
703,Right,0,69,100,211.666667,0.322917,Triplet,A4
704,Right,0,67,100,212.0,0.989583,Quarter,G4
706,Left,1,59,80,213.0,0.989583,Quarter,B3
705,Right,0,67,80,213.0,0.989583,Quarter,G4
708,Left,1,57,80,214.0,0.989583,Quarter,A3
707,Right,0,66,80,214.0,0.989583,Quarter,F#4
709,Left,1,55,80,215.0,0.989583,Quarter,G3
710,Right,0,67,80,215.0,0.989583,Quarter,G4
712,Left,1,54,80,216.0,0.989583,Quarter,F#3
711,Right,0,69,80,216.0,1.489583,DottedQuarter,A4
713,Left,1,50,80,217.0,0.989583,Quarter,D3
714,Right,0,69,80,217.5,0.489583,Eighth,A4
716,Left,1,55,80,218.0,0.989583,Quarter,G3
715,Right,0,71,80,218.0,1.489583,DottedQuarter,B4
717,Left,1,53,80,219.0,0.989583,Quarter,F3
718,Right,0,71,80,219.5,0.489583,Eighth,B4
719,Right,0,74,80,220.0,0.989583,Quarter,D5
720,Left,1,52,80,220.0,0.989583,Quarter,E3
721,Right,0,72,80,221.0,0.1875,TripletSixteenth,C5
722,Left,1,54,80,221.0,0.989583,Quarter,F#3
723,Right,0,74,80,221.125,0.197917,TripletSixteenth,D5
724,Right,0,72,80,221.25,0.208333,Sixteenth,C5
725,Right,0,74,80,221.375,0.1875,TripletSixteenth,D5
726,Right,0,72,80,221.5,0.1875,TripletSixteenth,C5
727,Right,0,74,80,221.625,0.208333,Sixteenth,D5
728,Right,0,71,80,221.75,0.208333,Sixteenth,B4
729,Right,0,72,80,221.875,0.114583,ThirtySecond,C5
730,Left,1,55,80,222.0,0.489583,Eighth,G3
731,Right,0,71,80,222.0,0.989583,Quarter,B4
732,Left,1,55,80,222.5,0.489583,Eighth,G3
733,Left,1,59,80,223.0,0.489583,Eighth,B3
734,Left,1,62,80,223.5,0.489583,Eighth,D4
737,Right,0,79,110,224.0,1.989583,Half,G5_D5_B4
735,Left,1,67,110,224.0,1.989583,Half,G4_G3
740,Right,0,74,106,226.0,0.322917,Triplet,D5
741,Right,0,79,105,226.333333,0.322917,Triplet,G5
742,Right,0,83,104,226.666667,0.322917,Triplet,B5
743,Right,0,86,103,227.0,0.322917,Triplet,D6
744,Right,0,84,102,227.333333,0.322917,Triplet,C6
745,Right,0,81,101,227.666667,0.322917,Triplet,A5
746,Right,0,79,101,228.0,0.989583,Quarter,G5
748,Left,1,71,80,229.0,0.489583,Eighth,B4
747,Right,0,79,80,229.0,0.989583,Quarter,G5
749,Left,1,74,80,229.5,0.489583,Eighth,D5
751,Right,0,78,80,230.0,0.989583,Quarter,F#5
750,Left,1,69,80,230.0,0.489583,Eighth,A4
752,Left,1,74,80,230.5,0.489583,Eighth,D5
754,Left,1,67,80,231.0,0.489583,Eighth,G4
753,Right,0,79,80,231.0,0.989583,Quarter,G5
755,Left,1,74,80,231.5,0.489583,Eighth,D5
756,Right,0,81,80,232.0,1.489583,DottedQuarter,A5
757,Left,1,66,80,232.0,0.489583,Eighth,F#4
758,Left,1,74,80,232.5,0.489583,Eighth,D5
759,Left,1,62,80,233.0,0.489583,Eighth,D4
760,Right,0,81,80,233.5,0.489583,Eighth,A5
761,Left,1,74,80,233.5,0.489583,Eighth,D5
762,Left,1,67,80,234.0,0.489583,Eighth,G4
763,Right,0,83,80,234.0,1.489583,DottedQuarter,B5
764,Left,1,74,80,234.5,0.489583,Eighth,D5
765,Left,1,65,80,235.0,0.489583,Eighth,F4
766,Right,0,83,80,235.5,0.489583,Eighth,B5
767,Left,1,74,80,235.5,0.489583,Eighth,D5
769,Right,0,86,80,236.0,0.989583,Quarter,D6
768,Left,1,64,80,236.0,0.489583,Eighth,E4
770,Left,1,67,80,236.5,0.489583,Eighth,G4
772,Right,0,84,80,237.0,0.1875,TripletSixteenth,C6
771,Left,1,66,80,237.0,0.489583,Eighth,F#4
773,Right,0,86,80,237.125,0.197917,TripletSixteenth,D6
774,Right,0,84,80,237.25,0.208333,Sixteenth,C6
775,Right,0,86,80,237.375,0.1875,TripletSixteenth,D6
777,Right,0,84,80,237.5,0.1875,TripletSixteenth,C6
776,Left,1,69,80,237.5,0.489583,Eighth,A4
778,Right,0,86,80,237.625,0.208333,Sixteenth,D6
779,Right,0,83,80,237.75,0.208333,Sixteenth,B5
780,Right,0,84,80,237.875,0.114583,ThirtySecond,C6
782,Left,1,67,80,238.0,0.989583,Quarter,G4
781,Right,0,83,80,238.0,0.489583,Eighth,B5
783,Right,0,84,80,238.5,0.489583,Eighth,C6
784,Right,0,85,80,239.0,0.489583,Eighth,C#6
785,Right,0,86,80,239.5,0.489583,Eighth,D6
786,Right,0,87,80,240.0,0.489583,Eighth,D#6
787,Right,0,88,80,240.5,0.489583,Eighth,E6
788,Left,1,69,80,241.0,0.989583,Quarter,E4_C4_A4
791,Right,0,88,80,241.5,0.489583,Eighth,E6
792,Right,0,86,80,242.0,0.489583,Eighth,D6
793,Right,0,84,80,242.5,0.489583,Eighth,C6
794,Right,0,83,80,243.0,0.489583,Eighth,B5
795,Right,0,81,80,243.5,0.489583,Eighth,A5
796,Right,0,85,80,244.0,0.489583,Eighth,C#6
797,Right,0,86,80,244.5,0.489583,Eighth,D6
798,Left,1,67,80,245.0,0.989583,Quarter,G4_D4_B3
801,Right,0,86,80,245.5,0.489583,Eighth,D6
802,Right,0,84,80,246.0,0.489583,Eighth,C6
803,Right,0,83,80,246.5,0.489583,Eighth,B5
804,Right,0,81,80,247.0,0.489583,Eighth,A5
805,Right,0,79,80,247.5,0.489583,Eighth,G5
807,Left,1,60,80,248.0,0.989583,Quarter,C4
806,Right,0,78,80,248.0,0.489583,Eighth,F#5
808,Right,0,76,80,248.5,0.489583,Eighth,E5
809,Right,0,74,80,249.0,0.489583,Eighth,D5
810,Right,0,72,80,249.5,0.489583,Eighth,C5
812,Left,1,62,80,250.0,0.989583,Quarter,D4
811,Right,0,71,80,250.0,0.489583,Eighth,B4
813,Right,0,69,80,250.5,0.489583,Eighth,A4
814,Right,0,67,80,251.0,0.489583,Eighth,G4
815,Right,0,66,80,251.5,0.489583,Eighth,F#4
816,Left,1,55,80,252.0,0.989583,Quarter,G3
817,Right,0,67,80,252.0,0.489583,Eighth,G4
818,Right,0,69,80,252.5,0.15625,TripletSixteenth,A4
819,Right,0,67,80,252.666667,0.15625,TripletSixteenth,G4
820,Right,0,66,80,252.833333,0.15625,TripletSixteenth,F#4
821,Right,0,67,80,253.0,0.489583,Eighth,G4
822,Right,0,69,80,253.5,0.489583,Eighth,A4
823,Right,0,71,80,254.0,0.489583,Eighth,B4
824,Right,0,72,80,254.5,0.489583,Eighth,C5
825,Right,0,73,80,255.0,0.489583,Eighth,C#5
826,Right,0,74,80,255.5,0.489583,Eighth,D5
827,Right,0,75,80,256.0,0.489583,Eighth,D#5
828,Right,0,76,80,256.5,0.489583,Eighth,E5
829,Left,1,52,80,257.0,0.989583,Quarter,E3_C3_A3
832,Right,0,76,80,257.5,0.489583,Eighth,E5
833,Right,0,74,80,258.0,0.489583,Eighth,D5
834,Right,0,72,80,258.5,0.489583,Eighth,C5
835,Right,0,71,80,259.0,0.489583,Eighth,B4
836,Right,0,69,80,259.5,0.489583,Eighth,A4
837,Right,0,75,80,260.0,0.489583,Eighth,D#5
838,Right,0,76,80,260.5,0.489583,Eighth,E5
839,Left,1,57,80,261.0,0.989583,Quarter,E3_C#3_A3
842,Right,0,76,80,261.5,0.489583,Eighth,E5
843,Right,0,76,80,262.0,0.489583,Eighth,E5
844,Right,0,73,80,262.5,0.489583,Eighth,C#5
845,Right,0,69,80,263.0,0.489583,Eighth,A4
846,Right,0,67,80,263.5,0.489583,Eighth,G4
848,Right,0,66,100,264.0,0.989583,Quarter,F#4
847,Left,1,50,100,264.0,0.322917,Triplet,D3
849,Left,1,54,100,264.333333,0.322917,Triplet,F#3
850,Left,1,57,100,264.666667,0.322917,Triplet,A3
852,Left,1,50,100,265.0,0.322917,Triplet,D3
851,Right,0,81,110,265.0,0.322917,Triplet,A5
853,Left,1,54,100,265.333333,0.322917,Triplet,F#3
854,Right,0,78,110,265.333333,0.322917,Triplet,F#5
855,Left,1,57,100,265.666667,0.322917,Triplet,A3
856,Right,0,74,110,265.666667,0.322917,Triplet,D5
857,Left,1,50,100,266.0,0.322917,Triplet,D3
858,Right,0,72,110,266.0,0.989583,Quarter,C5
859,Left,1,54,100,266.333333,0.322917,Triplet,F#3
860,Left,1,57,100,266.666667,0.322917,Triplet,A3
861,Left,1,50,100,267.0,0.322917,Triplet,D3
862,Right,0,81,110,267.0,0.322917,Triplet,A5
863,Right,0,78,110,267.333333,0.322917,Triplet,F#5
864,Left,1,54,100,267.333333,0.322917,Triplet,F#3
866,Left,1,57,100,267.666667,0.322917,Triplet,A3
865,Right,0,72,110,267.666667,0.322917,Triplet,C5
867,Left,1,50,100,268.0,0.322917,Triplet,D3
868,Right,0,71,110,268.0,0.989583,Quarter,B4
869,Left,1,55,100,268.333333,0.322917,Triplet,G3
870,Left,1,59,100,268.666667,0.322917,Triplet,B3
871,Right,0,79,110,269.0,0.322917,Triplet,G5
872,Left,1,50,100,269.0,0.322917,Triplet,D3
874,Right,0,74,110,269.333333,0.322917,Triplet,D5
873,Left,1,55,100,269.333333,0.322917,Triplet,G3
876,Right,0,71,110,269.666667,0.322917,Triplet,B4
875,Left,1,59,100,269.666667,0.322917,Triplet,B3
878,Left,1,50,100,270.0,0.322917,Triplet,D3
877,Right,0,67,110,270.0,0.989583,Quarter,G4
879,Left,1,55,100,270.333333,0.322917,Triplet,G3
880,Left,1,59,100,270.666667,0.322917,Triplet,B3
881,Left,1,50,100,271.0,0.322917,Triplet,D3
882,Right,0,74,110,271.0,0.322917,Triplet,D5
884,Right,0,71,110,271.333333,0.322917,Triplet,B4
883,Left,1,55,100,271.333333,0.322917,Triplet,G3
885,Left,1,59,100,271.666667,0.322917,Triplet,B3
886,Right,0,67,110,271.666667,0.322917,Triplet,G4
887,Left,1,50,100,272.0,0.322917,Triplet,D3
888,Right,0,66,110,272.0,0.989583,Quarter,F#4
889,Left,1,54,100,272.333333,0.322917,Triplet,F#3
890,Left,1,57,100,272.666667,0.322917,Triplet,A3
891,Right,0,81,110,273.0,0.322917,Triplet,A5
892,Left,1,50,100,273.0,0.322917,Triplet,D3
894,Right,0,78,110,273.333333,0.322917,Triplet,F#5
893,Left,1,54,100,273.333333,0.322917,Triplet,F#3
895,Right,0,74,110,273.666667,0.322917,Triplet,D5
896,Left,1,57,100,273.666667,0.322917,Triplet,A3
897,Right,0,72,110,274.0,0.989583,Quarter,C5
898,Left,1,50,100,274.0,0.322917,Triplet,D3
899,Left,1,54,100,274.333333,0.322917,Triplet,F#3
900,Left,1,57,100,274.666667,0.322917,Triplet,A3
902,Right,0,81,110,275.0,0.322917,Triplet,A5
901,Left,1,50,100,275.0,0.322917,Triplet,D3
903,Left,1,54,100,275.333333,0.322917,Triplet,F#3
904,Right,0,78,110,275.333333,0.322917,Triplet,F#5
905,Left,1,57,100,275.666667,0.322917,Triplet,A3
906,Right,0,72,110,275.666667,0.322917,Triplet,C5
907,Left,1,50,100,276.0,0.322917,Triplet,D3
908,Right,0,71,110,276.0,0.989583,Quarter,B4
909,Left,1,55,100,276.333333,0.322917,Triplet,G3
910,Left,1,59,100,276.666667,0.322917,Triplet,B3
911,Left,1,50,100,277.0,0.322917,Triplet,D3
912,Right,0,79,110,277.0,0.322917,Triplet,G5
914,Left,1,55,100,277.333333,0.322917,Triplet,G3
913,Right,0,74,110,277.333333,0.322917,Triplet,D5
915,Right,0,71,110,277.666667,0.322917,Triplet,B4
916,Left,1,59,100,277.666667,0.322917,Triplet,B3
917,Right,0,67,110,278.0,0.989583,Quarter,G4
918,Left,1,50,100,278.0,0.322917,Triplet,D3
919,Left,1,55,100,278.333333,0.322917,Triplet,G3
920,Left,1,59,100,278.666667,0.322917,Triplet,B3
922,Right,0,74,110,279.0,0.322917,Triplet,D5
921,Left,1,50,100,279.0,0.322917,Triplet,D3
924,Left,1,55,100,279.333333,0.322917,Triplet,G3
923,Right,0,71,110,279.333333,0.322917,Triplet,B4
925,Left,1,59,100,279.666667,0.322917,Triplet,B3
926,Right,0,67,110,279.666667,0.322917,Triplet,G4
928,Right,0,62,110,280.0,0.989583,Quarter,D4
927,Left,1,50,100,280.0,0.322917,Triplet,D3
929,Left,1,54,100,280.333333,0.322917,Triplet,F#3
930,Left,1,57,100,280.666667,0.322917,Triplet,A3
932,Right,0,74,110,281.0,0.322917,Triplet,D5
931,Left,1,50,100,281.0,0.322917,Triplet,D3
933,Right,0,71,110,281.333333,0.322917,Triplet,B4
934,Left,1,55,100,281.333333,0.322917,Triplet,G3
935,Right,0,67,110,281.666667,0.322917,Triplet,G4
936,Left,1,59,100,281.666667,0.322917,Triplet,B3
937,Right,0,62,110,282.0,0.989583,Quarter,D4
938,Left,1,50,100,282.0,0.322917,Triplet,D3
939,Left,1,54,100,282.333333,0.322917,Triplet,F#3
940,Left,1,57,100,282.666667,0.322917,Triplet,A3
942,Right,0,74,110,283.0,0.322917,Triplet,D5
941,Left,1,50,100,283.0,0.322917,Triplet,D3
943,Right,0,71,110,283.333333,0.322917,Triplet,B4
944,Left,1,55,100,283.333333,0.322917,Triplet,G3
946,Left,1,59,100,283.666667,0.322917,Triplet,B3
945,Right,0,67,110,283.666667,0.322917,Triplet,G4
948,Right,0,62,110,284.0,0.989583,Quarter,D4
947,Left,1,54,100,284.0,0.989583,Quarter,F#3_D3
950,Right,0,69,80,286.5,0.489583,Eighth,A4
951,Right,0,69,80,287.0,0.489583,Eighth,A4
952,Right,0,69,80,287.5,0.489583,Eighth,A4
953,Left,1,66,80,288.0,0.489583,Eighth,F#4
954,Right,0,74,80,288.0,0.989583,Quarter,D5
955,Left,1,69,80,288.5,0.489583,Eighth,A4
957,Right,0,73,80,289.0,0.989583,Quarter,C#5
956,Left,1,67,80,289.0,0.489583,Eighth,G4
958,Left,1,69,80,289.5,0.489583,Eighth,A4
959,Left,1,66,80,290.0,0.489583,Eighth,F#4
960,Right,0,74,80,290.0,0.989583,Quarter,D5
961,Left,1,69,80,290.5,0.489583,Eighth,A4
962,Left,1,61,80,291.0,0.489583,Eighth,C#4
963,Right,0,76,80,291.0,0.989583,Quarter,E5
964,Left,1,69,80,291.5,0.489583,Eighth,A4
965,Right,0,79,80,292.0,0.489583,Eighth,G5
966,Left,1,62,80,292.0,0.489583,Eighth,D4
967,Left,1,69,80,292.5,0.489583,Eighth,A4
968,Right,0,78,80,292.5,0.489583,Eighth,F#5
969,Right,0,76,80,293.0,0.989583,Quarter,E5
970,Left,1,61,80,293.0,0.489583,Eighth,C#4
971,Left,1,69,80,293.5,0.489583,Eighth,A4
972,Left,1,57,80,294.0,0.989583,Quarter,A3
973,Right,0,69,80,294.5,0.489583,Eighth,A4
974,Right,0,69,80,295.0,0.489583,Eighth,A4
975,Right,0,69,80,295.5,0.489583,Eighth,A4
976,Left,1,67,80,296.0,0.489583,Eighth,G4
977,Right,0,76,80,296.0,0.989583,Quarter,E5
978,Left,1,69,80,296.5,0.489583,Eighth,A4
980,Left,1,66,80,297.0,0.489583,Eighth,F#4
979,Right,0,74,80,297.0,0.989583,Quarter,D5
981,Left,1,69,80,297.5,0.489583,Eighth,A4
982,Left,1,64,80,298.0,0.489583,Eighth,E4
983,Right,0,76,80,298.0,0.989583,Quarter,E5_C#5
985,Left,1,69,80,298.5,0.489583,Eighth,A4
986,Right,0,74,80,299.0,0.989583,Quarter,F#5_D5
987,Left,1,62,80,299.0,0.489583,Eighth,D4
989,Left,1,69,80,299.5,0.489583,Eighth,A4
990,Right,0,81,80,300.0,0.489583,Eighth,E5_A5
992,Left,1,61,80,300.0,0.489583,Eighth,C#4
993,Right,0,79,80,300.5,0.489583,Eighth,G5
994,Left,1,69,80,300.5,0.489583,Eighth,A4
997,Left,1,62,80,301.0,0.489583,Eighth,D4
995,Right,0,78,80,301.0,0.989583,Quarter,F#5_D5
998,Left,1,69,80,301.5,0.489583,Eighth,A4
999,Left,1,62,80,302.0,0.989583,Quarter,D4
1000,Right,0,81,80,302.5,0.489583,Eighth,A5
1001,Right,0,79,80,303.0,0.489583,Eighth,G5
1002,Right,0,78,80,303.5,0.489583,Eighth,F#5
1003,Left,1,71,80,304.0,1.989583,Half,G4_B4
1005,Right,0,78,80,304.0,0.489583,Eighth,F#5
1006,Right,0,76,80,304.5,0.489583,Eighth,E5
1007,Right,0,76,80,305.0,0.489583,Eighth,E5
1008,Right,0,76,80,305.5,0.489583,Eighth,E5
1009,Right,0,74,80,306.0,0.489583,Eighth,D5
1010,Left,1,66,80,306.0,0.989583,Quarter,F#4_A4
1012,Right,0,81,80,306.5,0.489583,Eighth,A5
1013,Right,0,79,80,307.0,0.489583,Eighth,G5
1014,Right,0,78,80,307.5,0.489583,Eighth,F#5
1015,Left,1,67,80,308.0,1.989583,Half,G4_B4
1017,Right,0,78,80,308.0,0.489583,Eighth,F#5
1018,Right,0,76,80,308.5,0.489583,Eighth,E5
1019,Right,0,76,80,309.0,0.489583,Eighth,E5
1020,Right,0,76,80,309.5,0.489583,Eighth,E5
1022,Right,0,74,80,310.0,0.489583,Eighth,D5
1021,Left,1,69,80,310.0,0.989583,Quarter,F#4_A4
1024,Right,0,81,80,310.5,0.489583,Eighth,A5
1025,Right,0,79,80,311.0,0.489583,Eighth,G5
1026,Right,0,78,80,311.5,0.489583,Eighth,F#5
1027,Right,0,78,80,312.0,0.489583,Eighth,F#5
1028,Right,0,76,80,312.5,0.489583,Eighth,E5
1029,Left,1,67,80,313.0,0.989583,Quarter,G4
1030,Right,0,76,80,313.5,0.489583,Eighth,E5
1031,Right,0,76,80,314.0,0.489583,Eighth,E5
1032,Right,0,74,80,314.5,0.489583,Eighth,D5
1033,Left,1,68,80,315.0,0.989583,Quarter,G#4
1034,Right,0,74,80,315.5,0.489583,Eighth,D5
1036,Left,1,69,80,316.0,0.989583,Quarter,A4
1035,Right,0,74,80,316.0,0.489583,Eighth,D5
1037,Right,0,73,80,316.5,0.489583,Eighth,C#5
1039,Left,1,57,80,317.0,0.989583,Quarter,A3
1038,Right,0,71,80,317.0,0.489583,Eighth,B4
1040,Right,0,69,80,317.5,0.489583,Eighth,A4
1041,Right,0,68,80,318.0,0.489583,Eighth,G#4
1042,Right,0,69,80,318.5,0.489583,Eighth,A4
1043,Right,0,71,80,319.0,0.489583,Eighth,B4
1044,Right,0,73,80,319.5,0.489583,Eighth,C#5
1045,Left,1,66,80,320.0,0.489583,Eighth,F#4
1046,Right,0,74,80,320.0,0.989583,Quarter,D5
1047,Left,1,69,80,320.5,0.489583,Eighth,A4
1048,Right,0,73,80,321.0,0.989583,Quarter,C#5
1049,Left,1,67,80,321.0,0.489583,Eighth,G4
1050,Left,1,69,80,321.5,0.489583,Eighth,A4
1051,Right,0,74,80,322.0,0.989583,Quarter,D5
1052,Left,1,66,80,322.0,0.489583,Eighth,F#4
1053,Left,1,69,80,322.5,0.489583,Eighth,A4
1055,Right,0,76,80,323.0,0.989583,Quarter,E5
1054,Left,1,61,80,323.0,0.489583,Eighth,C#4
1056,Left,1,69,80,323.5,0.489583,Eighth,A4
1057,Right,0,79,80,324.0,0.489583,Eighth,G5_D5
1059,Left,1,62,80,324.0,0.489583,Eighth,D4
1061,Left,1,69,80,324.5,0.489583,Eighth,A4
1060,Right,0,78,80,324.5,0.489583,Eighth,F#5
1064,Left,1,57,80,325.0,0.489583,Eighth,A3
1062,Right,0,76,80,325.0,0.989583,Quarter,E5_C#5
1065,Left,1,69,80,325.5,0.489583,Eighth,A4
1066,Left,1,57,80,326.0,0.989583,Quarter,A3
1067,Right,0,69,80,326.5,0.489583,Eighth,A4
1068,Right,0,69,80,327.0,0.489583,Eighth,A4
1069,Right,0,69,80,327.5,0.489583,Eighth,A4
1071,Left,1,67,80,328.0,0.489583,Eighth,G4
1070,Right,0,76,80,328.0,0.989583,Quarter,E5
1072,Left,1,69,80,328.5,0.489583,Eighth,A4
1074,Right,0,74,80,329.0,0.989583,Quarter,D5
1073,Left,1,66,80,329.0,0.489583,Eighth,F#4
1075,Left,1,69,80,329.5,0.489583,Eighth,A4
1078,Left,1,64,80,330.0,0.489583,Eighth,E4
1076,Right,0,76,80,330.0,0.989583,Quarter,E5_C#5
1079,Left,1,69,80,330.5,0.489583,Eighth,A4
1082,Left,1,62,80,331.0,0.489583,Eighth,D4
1080,Right,0,74,80,331.0,0.989583,Quarter,F#5_D5
1083,Left,1,69,80,331.5,0.489583,Eighth,A4
1084,Left,1,61,80,332.0,0.489583,Eighth,C#4
1085,Right,0,76,80,332.0,0.489583,Eighth,E5_A5
1087,Left,1,69,80,332.5,0.489583,Eighth,A4
1088,Right,0,79,80,332.5,0.489583,Eighth,G5
1090,Left,1,62,80,333.0,0.489583,Eighth,D4
1089,Right,0,78,80,333.0,0.989583,Quarter,F#5_D5
1092,Left,1,69,80,333.5,0.489583,Eighth,A4
1093,Left,1,62,80,334.0,0.989583,Quarter,D4
1094,Right,0,81,80,334.5,0.489583,Eighth,A5
1095,Right,0,79,80,335.0,0.489583,Eighth,G5
1096,Right,0,78,80,335.5,0.489583,Eighth,F#5
1098,Left,1,71,80,336.0,1.989583,Half,G4_B4
1097,Right,0,78,80,336.0,0.489583,Eighth,F#5
1100,Right,0,76,80,336.5,0.489583,Eighth,E5
1101,Right,0,76,80,337.0,0.489583,Eighth,E5
1102,Right,0,76,80,337.5,0.489583,Eighth,E5
1103,Left,1,66,80,338.0,0.989583,Quarter,F#4_A4
1105,Right,0,74,80,338.0,0.489583,Eighth,D5
1106,Right,0,81,80,338.5,0.489583,Eighth,A5
1107,Right,0,79,80,339.0,0.489583,Eighth,G5
1108,Right,0,78,80,339.5,0.489583,Eighth,F#5
1109,Left,1,67,80,340.0,1.989583,Half,G4_B4
1111,Right,0,78,80,340.0,0.489583,Eighth,F#5
1112,Right,0,76,80,340.5,0.489583,Eighth,E5
1113,Right,0,76,80,341.0,0.489583,Eighth,E5
1114,Right,0,76,80,341.5,0.489583,Eighth,E5
1115,Left,1,69,80,342.0,0.989583,Quarter,F#4_A4
1116,Right,0,74,80,342.0,0.489583,Eighth,D5
1118,Right,0,81,80,342.5,0.489583,Eighth,A5
1119,Right,0,79,80,343.0,0.489583,Eighth,G5
1120,Right,0,78,80,343.5,0.489583,Eighth,F#5
1121,Right,0,78,80,344.0,0.489583,Eighth,F#5
1122,Right,0,76,80,344.5,0.489583,Eighth,E5
1124,Left,1,55,80,345.0,0.989583,Quarter,G3
1123,Right,0,79,80,345.0,0.489583,Eighth,G5
1125,Right,0,76,80,345.5,0.489583,Eighth,E5
1127,Right,0,76,80,346.0,0.489583,Eighth,E5
1126,Left,1,57,80,346.0,0.989583,Quarter,A3
1128,Right,0,74,80,346.5,0.489583,Eighth,D5
1129,Right,0,74,80,347.0,0.489583,Eighth,D5
1130,Left,1,45,80,347.0,0.989583,Quarter,A2
1131,Right,0,73,80,347.5,0.489583,Eighth,C#5
1133,Right,0,74,110,348.0,0.072917,TripletThirtySecond,D5
1132,Left,1,50,110,348.0,0.989583,Quarter,D3
1134,Right,0,81,110,348.083333,0.239583,Sixteenth,A5
1135,Right,0,79,110,348.333333,0.322917,Triplet,G5
1136,Right,0,78,110,348.666667,0.322917,Triplet,F#5
1137,Right,0,76,110,349.0,0.322917,Triplet,E5
1138,Right,0,74,110,349.333333,0.322917,Triplet,D5
1139,Right,0,73,110,349.666667,0.322917,Triplet,C#5
1140,Right,0,71,110,350.0,0.322917,Triplet,B4
1141,Right,0,69,110,350.333333,0.322917,Triplet,A4
1142,Right,0,67,110,350.666667,0.322917,Triplet,G4
1143,Right,0,66,110,351.0,0.322917,Triplet,F#4
1144,Right,0,64,110,351.333333,0.322917,Triplet,E4
1145,Right,0,62,110,351.666667,0.322917,Triplet,D4
1147,Right,0,61,110,352.0,0.989583,Quarter,C#4
1146,Left,1,52,110,352.0,0.322917,Triplet,E3
1148,Left,1,55,110,352.333333,0.322917,Triplet,G3
1149,Left,1,57,110,352.666667,0.322917,Triplet,A3
1151,Left,1,52,110,353.0,0.322917,Triplet,E3
1150,Right,0,61,110,353.0,0.989583,Quarter,C#4
1152,Left,1,55,110,353.333333,0.322917,Triplet,G3
1153,Left,1,57,110,353.666667,0.322917,Triplet,A3
1154,Right,0,61,110,354.0,0.989583,Quarter,C#4
1155,Left,1,52,110,354.0,0.322917,Triplet,E3
1156,Left,1,55,110,354.333333,0.322917,Triplet,G3
1157,Left,1,57,110,354.666667,0.322917,Triplet,A3
1158,Right,0,61,110,355.0,0.989583,Quarter,C#4
1159,Left,1,52,110,355.0,0.322917,Triplet,E3
1160,Left,1,55,110,355.333333,0.322917,Triplet,G3
1161,Left,1,57,110,355.666667,0.322917,Triplet,A3
1162,Left,1,50,110,356.0,0.989583,Quarter,F#3_D3
1164,Right,0,62,110,356.0,0.322917,Triplet,D4
1165,Right,0,64,110,356.333333,0.322917,Triplet,E4
1166,Right,0,66,110,356.666667,0.322917,Triplet,F#4
1167,Right,0,67,110,357.0,0.322917,Triplet,G4
1168,Right,0,69,110,357.333333,0.322917,Triplet,A4
1169,Right,0,71,110,357.666667,0.322917,Triplet,B4
1170,Right,0,73,110,358.0,0.322917,Triplet,C#5
1171,Right,0,74,110,358.333333,0.322917,Triplet,D5
1172,Right,0,76,110,358.666667,0.322917,Triplet,E5
1173,Right,0,78,110,359.0,0.322917,Triplet,F#5
1174,Right,0,79,110,359.333333,0.322917,Triplet,G5
1175,Right,0,81,110,359.666667,0.322917,Triplet,A5
1176,Left,1,49,110,360.0,0.322917,Triplet,C#3
1177,Right,0,79,110,360.0,0.989583,Quarter,G5
1178,Left,1,52,110,360.333333,0.322917,Triplet,E3
1179,Left,1,57,110,360.666667,0.322917,Triplet,A3
1180,Left,1,49,110,361.0,0.322917,Triplet,C#3
1181,Right,0,79,110,361.0,0.989583,Quarter,G5
1182,Left,1,52,110,361.333333,0.322917,Triplet,E3
1183,Left,1,57,110,361.666667,0.322917,Triplet,A3
1184,Left,1,49,110,362.0,0.322917,Triplet,C#3
1185,Right,0,79,110,362.0,0.989583,Quarter,G5
1186,Left,1,52,110,362.333333,0.322917,Triplet,E3
1187,Left,1,57,110,362.666667,0.322917,Triplet,A3
1188,Right,0,79,110,363.0,0.989583,Quarter,G5
1189,Left,1,49,110,363.0,0.322917,Triplet,C#3
1190,Left,1,52,110,363.333333,0.322917,Triplet,E3
1191,Left,1,57,110,363.666667,0.322917,Triplet,A3
1192,Right,0,78,110,364.0,0.072917,TripletThirtySecond,F#5
1193,Left,1,50,110,364.0,0.989583,Quarter,D3
1194,Right,0,81,110,364.083333,0.239583,Sixteenth,A5
1195,Right,0,79,110,364.333333,0.322917,Triplet,G5
1196,Right,0,78,110,364.666667,0.322917,Triplet,F#5
1197,Right,0,76,110,365.0,0.322917,Triplet,E5
1198,Right,0,74,110,365.333333,0.322917,Triplet,D5
1199,Right,0,73,110,365.666667,0.322917,Triplet,C#5
1200,Right,0,71,110,366.0,0.322917,Triplet,B4
1201,Right,0,69,110,366.333333,0.322917,Triplet,A4
1202,Right,0,67,110,366.666667,0.322917,Triplet,G4
1203,Right,0,66,110,367.0,0.322917,Triplet,F#4
1204,Right,0,64,110,367.333333,0.322917,Triplet,E4
1205,Right,0,62,110,367.666667,0.322917,Triplet,D4
1206,Right,0,60,110,368.0,0.989583,Quarter,C4
1207,Left,1,50,110,368.0,0.322917,Triplet,D3
1208,Left,1,54,110,368.333333,0.322917,Triplet,F#3
1209,Left,1,57,110,368.666667,0.322917,Triplet,A3
1210,Right,0,60,110,369.0,0.989583,Quarter,C4
1211,Left,1,50,110,369.0,0.322917,Triplet,D3
1212,Left,1,54,110,369.333333,0.322917,Triplet,F#3
1213,Left,1,57,110,369.666667,0.322917,Triplet,A3
1214,Right,0,60,110,370.0,0.989583,Quarter,C4
1215,Left,1,50,110,370.0,0.322917,Triplet,D3
1216,Left,1,54,110,370.333333,0.322917,Triplet,F#3
1217,Left,1,57,110,370.666667,0.322917,Triplet,A3
1219,Left,1,50,110,371.0,0.322917,Triplet,D3
1218,Right,0,60,110,371.0,0.989583,Quarter,C4
1220,Left,1,54,110,371.333333,0.322917,Triplet,F#3
1221,Left,1,57,110,371.666667,0.322917,Triplet,A3
1222,Left,1,43,110,372.0,1.989583,Half,G2
1223,Right,0,59,110,372.0,0.322917,Triplet,B3
1224,Right,0,64,110,372.333333,0.322917,Triplet,E4
1225,Right,0,67,110,372.666667,0.322917,Triplet,G4
1226,Left,1,55,110,373.0,0.989583,Quarter,G3
1227,Right,0,71,110,373.0,0.322917,Triplet,B4
1228,Right,0,67,110,373.333333,0.322917,Triplet,G4
1229,Right,0,64,110,373.666667,0.322917,Triplet,E4
1230,Left,1,54,110,374.0,0.989583,Quarter,F#3_A2
1232,Right,0,62,110,374.0,0.989583,Quarter,D4
1233,Left,1,55,110,375.0,0.989583,Quarter,G3_A2
1235,Right,0,66,110,375.0,0.489583,Eighth,F#4
1236,Right,0,64,110,375.5,0.489583,Eighth,E4
1238,Right,0,62,110,376.0,0.322917,Triplet,D4
1237,Left,1,50,110,376.0,0.989583,Quarter,F#3_D3
1240,Right,0,64,110,376.333333,0.322917,Triplet,E4
1241,Right,0,66,110,376.666667,0.322917,Triplet,F#4
1242,Right,0,67,110,377.0,0.322917,Triplet,G4
1243,Right,0,69,110,377.333333,0.322917,Triplet,A4
1244,Right,0,71,110,377.666667,0.322917,Triplet,B4
1245,Right,0,73,110,378.0,0.322917,Triplet,C#5
1246,Right,0,74,110,378.333333,0.322917,Triplet,D5
1247,Right,0,76,110,378.666667,0.322917,Triplet,E5
1248,Right,0,78,110,379.0,0.322917,Triplet,F#5
1249,Right,0,79,110,379.333333,0.322917,Triplet,G5
1250,Right,0,81,110,379.666667,0.322917,Triplet,A5
1251,Right,0,79,110,380.0,3.989583,Whole,G5_B5
1253,Left,1,55,110,380.333333,0.322917,Triplet,G3
1254,Left,1,57,110,380.666667,0.322917,Triplet,A3
1255,Left,1,59,110,381.0,0.322917,Triplet,B3
1256,Left,1,61,110,381.333333,0.322917,Triplet,C#4
1257,Left,1,62,110,381.666667,0.322917,Triplet,D4
1258,Left,1,64,110,382.0,0.322917,Triplet,E4
1259,Left,1,66,110,382.333333,0.322917,Triplet,F#4
1260,Left,1,67,110,382.666667,0.322917,Triplet,G4
1261,Left,1,69,110,383.0,0.322917,Triplet,A4
1262,Left,1,71,110,383.333333,0.322917,Triplet,B4
1263,Left,1,73,110,383.666667,0.322917,Triplet,C#5
1264,Left,1,74,110,384.0,0.989583,Quarter,D5
1265,Right,0,81,110,384.0,0.989583,Quarter,F#5_A5
1269,Left,1,67,110,385.0,0.989583,Quarter,G4
1267,Right,0,79,110,385.0,0.989583,Quarter,G5_E5
1270,Right,0,74,110,386.0,0.989583,Quarter,F#5_D5
1272,Left,1,69,110,386.0,0.989583,Quarter,A4
1274,Right,0,73,110,387.0,0.989583,Quarter,E5_C#5
1273,Left,1,57,110,387.0,0.989583,Quarter,A3
1276,Right,0,81,110,388.0,0.322917,Triplet,A5
1277,Right,0,79,110,388.333333,0.322917,Triplet,G5
1278,Right,0,78,110,388.666667,0.322917,Triplet,F#5
1279,Right,0,76,110,389.0,0.322917,Triplet,E5
1280,Right,0,74,110,389.333333,0.322917,Triplet,D5
1281,Right,0,73,110,389.666667,0.322917,Triplet,C#5
1282,Right,0,71,110,390.0,0.322917,Triplet,B4
1283,Right,0,69,110,390.333333,0.322917,Triplet,A4
1284,Right,0,67,110,390.666667,0.322917,Triplet,G4
1285,Right,0,66,110,391.0,0.322917,Triplet,F#4
1286,Right,0,64,110,391.333333,0.322917,Triplet,E4
1287,Right,0,62,110,391.666667,0.322917,Triplet,D4
1288,Right,0,71,110,392.0,3.989583,Whole,G4_B4
1290,Left,1,43,110,392.333333,0.322917,Triplet,G2
1291,Left,1,45,110,392.666667,0.322917,Triplet,A2
1292,Left,1,47,110,393.0,0.322917,Triplet,B2
1293,Left,1,49,110,393.333333,0.322917,Triplet,C#3
1294,Left,1,50,110,393.666667,0.322917,Triplet,D3
1295,Left,1,52,110,394.0,0.322917,Triplet,E3
1296,Left,1,54,110,394.333333,0.322917,Triplet,F#3
1297,Left,1,55,110,394.666667,0.322917,Triplet,G3
1298,Left,1,57,110,395.0,0.322917,Triplet,A3
1299,Left,1,59,110,395.333333,0.322917,Triplet,B3
1300,Left,1,61,110,395.666667,0.322917,Triplet,C#4
1303,Left,1,62,110,396.0,0.989583,Quarter,D4
1301,Right,0,69,110,396.0,0.989583,Quarter,F#4_A4
1306,Left,1,55,110,397.0,0.989583,Quarter,G3
1304,Right,0,64,110,397.0,0.989583,Quarter,G4_E4
1307,Right,0,62,110,398.0,0.989583,Quarter,F#4_D4
1309,Left,1,57,110,398.0,0.989583,Quarter,A3
1310,Right,0,64,110,399.0,0.989583,Quarter,E4_C#4
1312,Left,1,45,110,399.0,0.989583,Quarter,A2
1313,Left,1,50,110,400.0,0.322917,Triplet,D3
1314,Right,0,62,110,400.0,0.989583,Quarter,D4
1315,Left,1,54,110,400.333333,0.322917,Triplet,F#3
1316,Left,1,57,110,400.666667,0.322917,Triplet,A3
1317,Right,0,81,110,401.0,0.322917,Triplet,A5
1318,Left,1,50,110,401.0,0.322917,Triplet,D3
1319,Left,1,54,110,401.333333,0.322917,Triplet,F#3
1320,Right,0,78,110,401.333333,0.322917,Triplet,F#5
1322,Left,1,57,110,401.666667,0.322917,Triplet,A3
1321,Right,0,74,110,401.666667,0.322917,Triplet,D5
1323,Right,0,73,110,402.0,0.989583,Quarter,C#5
1324,Left,1,50,110,402.0,0.322917,Triplet,D3
1325,Left,1,55,110,402.333333,0.322917,Triplet,G3
1326,Left,1,57,110,402.666667,0.322917,Triplet,A3
1327,Right,0,79,110,403.0,0.322917,Triplet,G5
1328,Left,1,50,110,403.0,0.322917,Triplet,D3
1329,Left,1,55,110,403.333333,0.322917,Triplet,G3
1330,Right,0,76,110,403.333333,0.322917,Triplet,E5
1331,Right,0,73,110,403.666667,0.322917,Triplet,C#5
1332,Left,1,57,110,403.666667,0.322917,Triplet,A3
1334,Left,1,50,110,404.0,0.322917,Triplet,D3
1333,Right,0,74,110,404.0,0.989583,Quarter,D5
1335,Left,1,54,110,404.333333,0.322917,Triplet,F#3
1336,Left,1,57,110,404.666667,0.322917,Triplet,A3
1337,Right,0,69,110,405.0,0.322917,Triplet,A4
1338,Left,1,50,110,405.0,0.322917,Triplet,D3
1339,Right,0,66,110,405.333333,0.322917,Triplet,F#4
1340,Left,1,54,110,405.333333,0.322917,Triplet,F#3
1341,Right,0,62,110,405.666667,0.322917,Triplet,D4
1342,Left,1,57,110,405.666667,0.322917,Triplet,A3
1343,Right,0,61,110,406.0,0.989583,Quarter,C#4
1344,Left,1,50,110,406.0,0.322917,Triplet,D3
1345,Left,1,55,110,406.333333,0.322917,Triplet,G3
1346,Left,1,57,110,406.666667,0.322917,Triplet,A3
1347,Left,1,50,110,407.0,0.322917,Triplet,D3
1348,Right,0,67,110,407.0,0.322917,Triplet,G4
1350,Left,1,55,110,407.333333,0.322917,Triplet,G3
1349,Right,0,64,110,407.333333,0.322917,Triplet,E4
1351,Left,1,57,110,407.666667,0.322917,Triplet,A3
1352,Right,0,61,110,407.666667,0.322917,Triplet,C#4
1354,Left,1,50,110,408.0,0.322917,Triplet,D3
1353,Right,0,62,110,408.0,0.989583,Quarter,D4
1355,Left,1,54,110,408.333333,0.322917,Triplet,F#3
1356,Left,1,57,110,408.666667,0.322917,Triplet,A3
1357,Right,0,67,110,409.0,0.322917,Triplet,G4
1358,Left,1,50,110,409.0,0.322917,Triplet,D3
1360,Right,0,64,110,409.333333,0.322917,Triplet,E4
1359,Left,1,55,110,409.333333,0.322917,Triplet,G3
1362,Left,1,57,110,409.666667,0.322917,Triplet,A3
1361,Right,0,61,110,409.666667,0.322917,Triplet,C#4
1363,Right,0,62,110,410.0,0.989583,Quarter,D4
1364,Left,1,50,110,410.0,0.322917,Triplet,D3
1365,Left,1,54,110,410.333333,0.322917,Triplet,F#3
1366,Left,1,57,110,410.666667,0.322917,Triplet,A3
1367,Left,1,50,110,411.0,0.322917,Triplet,D3
1368,Right,0,67,110,411.0,0.322917,Triplet,G4
1369,Right,0,64,110,411.333333,0.322917,Triplet,E4
1370,Left,1,55,110,411.333333,0.322917,Triplet,G3
1371,Left,1,57,110,411.666667,0.322917,Triplet,A3
1372,Right,0,61,110,411.666667,0.322917,Triplet,C#4
1375,Right,0,62,110,412.0,0.989583,Quarter,D4
1373,Left,1,50,110,412.0,0.989583,Quarter,F#3_D3
1378,Right,0,57,110,413.0,0.989583,Quarter,F#3_D4_A3
1376,Left,1,38,110,413.0,0.989583,Quarter,D3_D2
1381,Right,0,57,110,414.0,0.989583,Quarter,F#3_D4_A3
1383,Left,1,38,110,414.0,0.989583,Quarter,D3_D2
1389,Left,1,62,110,416.0,1.989583,Half,D4_D3
1386,Right,0,65,110,416.0,2.322917,Half,F4_D5_A4
1391,Right,0,77,80,418.333333,0.322917,Triplet,F5
1392,Right,0,76,80,418.666667,0.322917,Triplet,E5
1393,Right,0,74,80,419.0,0.322917,Triplet,D5
1394,Right,0,72,80,419.333333,0.322917,Triplet,C5
1395,Right,0,71,80,419.666667,0.322917,Triplet,B4
1396,Right,0,69,80,420.0,0.989583,Quarter,A4
1397,Left,1,64,80,420.5,0.489583,Eighth,E4
1399,Right,0,68,80,421.0,0.989583,Quarter,G#4
1398,Left,1,62,80,421.0,0.489583,Eighth,D4
1400,Left,1,64,80,421.5,0.489583,Eighth,E4
1402,Right,0,69,80,422.0,0.989583,Quarter,A4
1401,Left,1,60,80,422.0,0.489583,Eighth,C4
1403,Left,1,64,80,422.5,0.489583,Eighth,E4
1404,Left,1,56,80,423.0,0.489583,Eighth,G#3
1405,Right,0,71,80,423.0,0.989583,Quarter,B4
1406,Left,1,64,80,423.5,0.489583,Eighth,E4
1407,Right,0,72,80,424.0,0.989583,Quarter,C5
1408,Left,1,57,80,424.0,0.489583,Eighth,A3
1409,Left,1,64,80,424.5,0.489583,Eighth,E4
1410,Right,0,74,80,425.0,0.989583,Quarter,D5
1411,Left,1,59,80,425.0,0.489583,Eighth,B3
1412,Left,1,64,80,425.5,0.489583,Eighth,E4
1414,Right,0,76,91,426.0,0.989583,Quarter,E5
1413,Left,1,60,80,426.0,0.489583,Eighth,C4
1415,Left,1,64,86,426.5,0.489583,Eighth,E4
1417,Right,0,74,100,427.0,0.989583,Quarter,D5
1416,Left,1,59,93,427.0,0.489583,Eighth,B3
1418,Left,1,64,100,427.5,0.489583,Eighth,E4
1419,Right,0,72,110,428.0,0.239583,Sixteenth,C5
1420,Left,1,57,110,428.0,0.322917,Triplet,A3
1421,Right,0,76,110,428.25,0.239583,Sixteenth,E5
1422,Left,1,60,110,428.333333,0.322917,Triplet,C4
1423,Right,0,81,110,428.5,1.822917,Half,A5
1424,Left,1,64,110,428.666667,0.322917,Triplet,E4
1425,Left,1,69,110,429.0,0.322917,Triplet,A4
1426,Left,1,64,110,429.333333,0.322917,Triplet,E4
1427,Left,1,60,110,429.666667,0.322917,Triplet,C4
1428,Left,1,57,110,430.0,0.989583,Quarter,A3
1429,Right,0,84,80,430.333333,0.322917,Triplet,C6
1430,Right,0,83,80,430.666667,0.322917,Triplet,B5
1431,Right,0,81,80,431.0,0.322917,Triplet,A5
1432,Right,0,79,80,431.333333,0.322917,Triplet,G5
1433,Right,0,78,80,431.666667,0.322917,Triplet,F#5
1434,Right,0,76,80,432.0,0.989583,Quarter,E5
1435,Left,1,71,80,432.5,0.489583,Eighth,B4
1436,Right,0,75,80,433.0,0.989583,Quarter,D#5
1437,Left,1,69,80,433.0,0.489583,Eighth,A4
1438,Left,1,71,80,433.5,0.489583,Eighth,B4
1440,Left,1,67,80,434.0,0.489583,Eighth,G4
1439,Right,0,76,80,434.0,0.989583,Quarter,E5
1441,Left,1,71,80,434.5,0.489583,Eighth,B4
1442,Right,0,78,80,435.0,0.989583,Quarter,F#5
1443,Left,1,63,80,435.0,0.489583,Eighth,D#4
1444,Left,1,71,80,435.5,0.489583,Eighth,B4
1445,Left,1,64,80,436.0,0.489583,Eighth,E4
1446,Right,0,79,80,436.0,1.489583,DottedQuarter,G5
1447,Left,1,71,80,436.5,0.489583,Eighth,B4
1448,Left,1,64,80,437.0,0.489583,Eighth,E4
1449,Right,0,78,80,437.5,0.239583,Sixteenth,F#5
1450,Left,1,71,80,437.5,0.489583,Eighth,B4
1451,Right,0,79,80,437.75,0.239583,Sixteenth,G5
1453,Left,1,60,80,438.0,0.489583,Eighth,C4
1452,Right,0,81,80,438.0,0.489583,Eighth,A5
1454,Right,0,79,80,438.5,0.489583,Eighth,G5
1455,Left,1,69,80,438.5,0.489583,Eighth,A4
1457,Left,1,61,80,439.0,0.489583,Eighth,C#4
1456,Right,0,78,80,439.0,0.489583,Eighth,F#5
1458,Right,0,76,80,439.5,0.489583,Eighth,E5
1459,Left,1,69,80,439.5,0.489583,Eighth,A4
1461,Right,0,75,80,440.0,0.989583,Quarter,D#5
1460,Left,1,59,80,440.0,0.489583,Eighth,B3
1462,Left,1,71,80,440.5,0.489583,Eighth,B4
1463,Left,1,71,80,441.0,0.489583,Eighth,B4
1465,Right,0,79,80,441.5,0.489583,Eighth,G5_B5
1464,Left,1,71,80,441.5,0.489583,Eighth,B4
1468,Right,0,81,80,442.0,0.989583,Quarter,F#5_A5
1467,Left,1,71,80,442.0,0.489583,Eighth,B4
1470,Left,1,71,80,442.5,0.489583,Eighth,B4
1471,Left,1,71,80,443.0,0.489583,Eighth,B4
1472,Right,0,78,80,443.5,0.489583,Eighth,F#5_D#5
1473,Left,1,71,80,443.5,0.489583,Eighth,B4
1477,Left,1,71,80,444.0,0.489583,Eighth,B4
1475,Right,0,76,80,444.0,0.989583,Quarter,G5_E5
1478,Left,1,71,80,444.5,0.489583,Eighth,B4
1479,Left,1,71,80,445.0,0.489583,Eighth,B4
1481,Right,0,76,80,445.5,0.489583,Eighth,G5_E5
1480,Left,1,71,80,445.5,0.489583,Eighth,B4
1483,Right,0,78,80,446.0,0.989583,Quarter,F#5_D#5
1485,Left,1,71,80,446.0,0.489583,Eighth,B4
1486,Left,1,71,80,446.5,0.489583,Eighth,B4
1488,Right,0,76,80,447.0,0.989583,Quarter,G5_E5
1487,Left,1,71,80,447.0,0.489583,Eighth,B4
1490,Left,1,71,80,447.5,0.489583,Eighth,B4
1493,Left,1,59,80,448.0,0.489583,Eighth,B3
1491,Right,0,78,80,448.0,0.989583,Quarter,F#5_D#5
1494,Left,1,71,80,448.5,0.489583,Eighth,B4
1495,Left,1,71,80,449.0,0.489583,Eighth,B4
1496,Right,0,83,80,449.5,0.489583,Eighth,G5_B5
1498,Left,1,71,80,449.5,0.489583,Eighth,B4
1500,Right,0,81,80,450.0,0.989583,Quarter,F#5_A5
1499,Left,1,71,80,450.0,0.489583,Eighth,B4
1502,Left,1,71,80,450.5,0.489583,Eighth,B4
1503,Left,1,71,80,451.0,0.489583,Eighth,B4
1504,Right,0,75,80,451.5,0.489583,Eighth,F#5_D#5
1506,Left,1,71,80,451.5,0.489583,Eighth,B4
1508,Right,0,79,80,452.0,0.989583,Quarter,G5_E5
1507,Left,1,71,80,452.0,0.489583,Eighth,B4
1510,Left,1,71,80,452.5,0.489583,Eighth,B4
1511,Left,1,71,80,453.0,0.489583,Eighth,B4
1513,Right,0,76,80,453.5,0.489583,Eighth,G5_E5
1512,Left,1,71,80,453.5,0.489583,Eighth,B4
1517,Left,1,71,80,454.0,0.489583,Eighth,B4
1515,Right,0,78,80,454.0,0.989583,Quarter,F#5_D#5
1518,Left,1,71,80,454.5,0.489583,Eighth,B4
1521,Left,1,71,80,455.0,0.489583,Eighth,B4
1519,Right,0,76,80,455.0,0.989583,Quarter,G5_E5
1522,Left,1,71,80,455.5,0.489583,Eighth,B4
1523,Left,1,71,80,456.0,0.489583,Eighth,B4
1524,Right,0,75,80,456.0,0.989583,Quarter,F#5_D#5
1526,Left,1,70,80,456.5,0.489583,Eighth,A#4
1527,Left,1,71,80,457.0,0.489583,Eighth,B4
1528,Left,1,70,80,457.5,0.489583,Eighth,A#4
1529,Left,1,71,80,458.0,0.489583,Eighth,B4
1530,Left,1,69,80,458.5,0.489583,Eighth,A4
1531,Left,1,67,80,459.0,0.489583,Eighth,G4
1532,Left,1,66,80,459.5,0.489583,Eighth,F#4
1534,Right,0,76,80,460.0,0.989583,Quarter,G5_E5
1533,Left,1,64,80,460.0,0.489583,Eighth,E4
1536,Left,1,63,80,460.5,0.489583,Eighth,D#4
1537,Left,1,64,80,461.0,0.489583,Eighth,E4
1538,Left,1,63,80,461.5,0.489583,Eighth,D#4
1539,Left,1,64,80,462.0,0.489583,Eighth,E4
1540,Left,1,62,80,462.5,0.489583,Eighth,D4
1541,Left,1,60,80,463.0,0.489583,Eighth,C4
1542,Left,1,59,80,463.5,0.489583,Eighth,B3
1544,Right,0,84,80,464.0,0.489583,Eighth,C6
1543,Left,1,57,80,464.0,0.489583,Eighth,A3
1546,Right,0,83,81,464.5,0.489583,Eighth,B5
1545,Left,1,56,81,464.5,0.489583,Eighth,G#3
1547,Left,1,57,83,465.0,0.489583,Eighth,A3
1548,Right,0,84,83,465.0,0.489583,Eighth,C6
1550,Right,0,83,85,465.5,0.489583,Eighth,B5
1549,Left,1,56,85,465.5,0.489583,Eighth,G#3
1551,Left,1,57,87,466.0,0.489583,Eighth,A3
1552,Right,0,84,87,466.0,0.489583,Eighth,C6
1554,Right,0,83,89,466.5,0.489583,Eighth,B5
1553,Left,1,55,89,466.5,0.489583,Eighth,G3
1555,Right,0,81,91,467.0,0.489583,Eighth,A5
1556,Left,1,54,91,467.0,0.489583,Eighth,F#3
1558,Right,0,79,93,467.5,0.489583,Eighth,G5
1557,Left,1,52,93,467.5,0.489583,Eighth,E3
1560,Right,0,78,95,468.0,0.489583,Eighth,F#5
1559,Left,1,50,95,468.0,3.989583,Whole,D3
1561,Right,0,76,97,468.5,0.489583,Eighth,E5
1562,Right,0,74,99,469.0,0.489583,Eighth,D5
1563,Right,0,72,101,469.5,0.489583,Eighth,C5
1565,Left,1,60,103,470.0,1.989583,Half,C4
1564,Right,0,71,103,470.0,0.489583,Eighth,B4
1566,Right,0,69,105,470.5,0.489583,Eighth,A4
1567,Right,0,67,107,471.0,0.489583,Eighth,G4
1568,Right,0,66,109,471.5,0.489583,Eighth,F#4
1569,Left,1,55,110,472.0,1.989583,Half,G3_G2
1570,Right,0,67,110,472.0,1.989583,Half,G4_D4_B3
1574,Right,0,62,110,474.0,0.322917,Triplet,D4
1575,Right,0,67,110,474.333333,0.322917,Triplet,G4
1576,Right,0,71,110,474.666667,0.322917,Triplet,B4
1577,Right,0,74,110,475.0,0.322917,Triplet,D5
1578,Right,0,72,110,475.333333,0.322917,Triplet,C5
1579,Right,0,69,110,475.666667,0.322917,Triplet,A4
1580,Right,0,67,110,476.0,0.989583,Quarter,G4
1581,Right,0,67,80,477.0,0.989583,Quarter,G4
1582,Left,1,59,80,477.0,0.989583,Quarter,B3
1583,Left,1,57,80,478.0,0.989583,Quarter,A3
1584,Right,0,66,80,478.0,0.989583,Quarter,F#4
1586,Left,1,55,80,479.0,0.989583,Quarter,G3
1585,Right,0,67,80,479.0,0.989583,Quarter,G4
1588,Right,0,69,80,480.0,1.489583,DottedQuarter,A4
1587,Left,1,54,80,480.0,0.989583,Quarter,F#3
1589,Left,1,50,80,481.0,0.989583,Quarter,D3
1590,Right,0,69,80,481.5,0.489583,Eighth,A4
1591,Left,1,55,80,482.0,0.989583,Quarter,G3
1592,Right,0,71,80,482.0,1.489583,DottedQuarter,B4
1593,Left,1,53,80,483.0,0.989583,Quarter,F3
1594,Right,0,71,80,483.5,0.489583,Eighth,B4
1595,Left,1,52,80,484.0,0.989583,Quarter,E3
1596,Right,0,74,80,484.0,0.989583,Quarter,D5
1597,Left,1,54,80,485.0,0.989583,Quarter,F#3
1598,Right,0,72,80,485.0,0.1875,TripletSixteenth,C5
1599,Right,0,74,80,485.125,0.197917,TripletSixteenth,D5
1600,Right,0,72,80,485.25,0.208333,Sixteenth,C5
1601,Right,0,74,80,485.375,0.1875,TripletSixteenth,D5
1602,Right,0,72,80,485.5,0.1875,TripletSixteenth,C5
1603,Right,0,74,80,485.625,0.208333,Sixteenth,D5
1604,Right,0,71,80,485.75,0.208333,Sixteenth,B4
1605,Right,0,72,80,485.875,0.114583,ThirtySecond,C5
1607,Right,0,71,80,486.0,0.989583,Quarter,B4
1606,Left,1,55,80,486.0,0.489583,Eighth,G3
1608,Left,1,55,80,486.5,0.489583,Eighth,G3
1609,Left,1,59,80,487.0,0.489583,Eighth,B3
1610,Left,1,62,80,487.5,0.489583,Eighth,D4
1611,Left,1,67,110,488.0,1.989583,Half,G4_G3
1612,Right,0,71,110,488.0,1.989583,Half,G5_D5_B4
1616,Right,0,74,110,490.0,0.322917,Triplet,D5
1617,Right,0,79,110,490.333333,0.322917,Triplet,G5
1618,Right,0,83,110,490.666667,0.322917,Triplet,B5
1619,Right,0,86,110,491.0,0.322917,Triplet,D6
1620,Right,0,84,110,491.333333,0.322917,Triplet,C6
1621,Right,0,81,110,491.666667,0.322917,Triplet,A5
1622,Right,0,79,110,492.0,0.989583,Quarter,G5
1623,Left,1,71,80,493.0,0.489583,Eighth,B4
1624,Right,0,79,80,493.0,0.989583,Quarter,G5
1625,Left,1,74,80,493.5,0.489583,Eighth,D5
1626,Right,0,78,80,494.0,0.989583,Quarter,F#5
1627,Left,1,69,80,494.0,0.489583,Eighth,A4
1628,Left,1,74,80,494.5,0.489583,Eighth,D5
1629,Left,1,67,80,495.0,0.489583,Eighth,G4
1630,Right,0,79,80,495.0,0.989583,Quarter,G5
1631,Left,1,74,80,495.5,0.489583,Eighth,D5
1632,Left,1,66,80,496.0,0.489583,Eighth,F#4
1633,Right,0,81,80,496.0,1.489583,DottedQuarter,A5
1634,Left,1,74,80,496.5,0.489583,Eighth,D5
1635,Left,1,62,80,497.0,0.489583,Eighth,D4
1636,Left,1,74,80,497.5,0.489583,Eighth,D5
1637,Right,0,81,80,497.5,0.489583,Eighth,A5
1639,Left,1,67,80,498.0,0.489583,Eighth,G4
1638,Right,0,83,80,498.0,1.489583,DottedQuarter,B5
1640,Left,1,74,80,498.5,0.489583,Eighth,D5
1641,Left,1,65,80,499.0,0.489583,Eighth,F4
1642,Left,1,74,80,499.5,0.489583,Eighth,D5
1643,Right,0,83,80,499.5,0.489583,Eighth,B5
1645,Right,0,84,80,500.0,0.489583,Eighth,C6
1644,Left,1,64,80,500.0,0.989583,Quarter,E4
1646,Right,0,79,80,500.5,0.489583,Eighth,G5
1648,Left,1,65,80,501.0,0.989583,Quarter,F4
1647,Right,0,81,80,501.0,0.489583,Eighth,A5
1649,Right,0,77,80,501.5,0.489583,Eighth,F5
1651,Left,1,67,80,502.0,0.989583,Quarter,G4
1650,Right,0,76,80,502.0,0.489583,Eighth,E5
1652,Right,0,79,80,502.5,0.489583,Eighth,G5
1654,Left,1,55,80,503.0,0.989583,Quarter,G3
1653,Right,0,77,80,503.0,0.489583,Eighth,F5
1655,Right,0,74,80,503.5,0.489583,Eighth,D5
1656,Right,0,72,80,504.0,0.072917,TripletThirtySecond,C5
1657,Left,1,60,80,504.0,0.989583,Quarter,C4
1658,Right,0,79,80,504.083333,0.239583,Sixteenth,G5
1659,Right,0,77,80,504.333333,0.322917,Triplet,F5
1660,Right,0,76,80,504.666667,0.322917,Triplet,E5
1661,Right,0,74,80,505.0,0.322917,Triplet,D5
1662,Right,0,72,80,505.333333,0.322917,Triplet,C5
1663,Right,0,71,80,505.666667,0.322917,Triplet,B4
1664,Right,0,69,80,506.0,0.322917,Triplet,A4
1665,Right,0,67,80,506.333333,0.322917,Triplet,G4
1666,Right,0,65,80,506.666667,0.322917,Triplet,F4
1667,Right,0,64,80,507.0,0.322917,Triplet,E4
1668,Right,0,62,80,507.333333,0.322917,Triplet,D4
1669,Right,0,60,80,507.666667,0.322917,Triplet,C4
1671,Left,1,50,80,508.0,0.322917,Triplet,D3
1670,Right,0,59,80,508.0,0.989583,Quarter,B3
1672,Left,1,53,80,508.333333,0.322917,Triplet,F3
1673,Left,1,55,80,508.666667,0.322917,Triplet,G3
1674,Left,1,50,80,509.0,0.322917,Triplet,D3
1675,Right,0,59,80,509.0,0.989583,Quarter,B3
1676,Left,1,53,80,509.333333,0.322917,Triplet,F3
1677,Left,1,55,80,509.666667,0.322917,Triplet,G3
1678,Left,1,50,80,510.0,0.322917,Triplet,D3
1679,Right,0,59,80,510.0,0.989583,Quarter,B3
1680,Left,1,53,80,510.333333,0.322917,Triplet,F3
1681,Left,1,55,80,510.666667,0.322917,Triplet,G3
1683,Left,1,50,80,511.0,0.322917,Triplet,D3
1682,Right,0,59,80,511.0,0.989583,Quarter,B3
1684,Left,1,53,80,511.333333,0.322917,Triplet,F3
1685,Left,1,55,80,511.666667,0.322917,Triplet,G3
1688,Right,0,60,80,512.0,0.322917,Triplet,C4
1686,Left,1,48,80,512.0,0.989583,Quarter,E3_C3
1689,Right,0,62,80,512.333333,0.322917,Triplet,D4
1690,Right,0,64,80,512.666667,0.322917,Triplet,E4
1691,Right,0,65,80,513.0,0.322917,Triplet,F4
1692,Right,0,67,80,513.333333,0.322917,Triplet,G4
1693,Right,0,69,80,513.666667,0.322917,Triplet,A4
1694,Right,0,71,80,514.0,0.322917,Triplet,B4
1695,Right,0,72,80,514.333333,0.322917,Triplet,C5
1696,Right,0,74,80,514.666667,0.322917,Triplet,D5
1697,Right,0,76,80,515.0,0.322917,Triplet,E5
1698,Right,0,77,80,515.333333,0.322917,Triplet,F5
1699,Right,0,79,80,515.666667,0.322917,Triplet,G5
1700,Right,0,77,80,516.0,0.989583,Quarter,F5
1701,Left,1,47,80,516.0,0.322917,Triplet,B2
1702,Left,1,50,80,516.333333,0.322917,Triplet,D3
1703,Left,1,55,80,516.666667,0.322917,Triplet,G3
1705,Right,0,77,80,517.0,0.989583,Quarter,F5
1704,Left,1,47,80,517.0,0.322917,Triplet,B2
1706,Left,1,50,80,517.333333,0.322917,Triplet,D3
1707,Left,1,55,80,517.666667,0.322917,Triplet,G3
1708,Left,1,47,80,518.0,0.322917,Triplet,B2
1709,Right,0,77,80,518.0,0.989583,Quarter,F5
1710,Left,1,50,80,518.333333,0.322917,Triplet,D3
1711,Left,1,55,80,518.666667,0.322917,Triplet,G3
1713,Right,0,77,80,519.0,0.989583,Quarter,F5
1712,Left,1,47,80,519.0,0.322917,Triplet,B2
1714,Left,1,50,80,519.333333,0.322917,Triplet,D3
1715,Left,1,55,80,519.666667,0.322917,Triplet,G3
1717,Right,0,76,80,520.0,0.322917,Triplet,E5
1716,Left,1,48,80,520.0,0.989583,Quarter,C3
1718,Right,0,74,80,520.333333,0.322917,Triplet,D5
1719,Right,0,72,81,520.666667,0.322917,Triplet,C5
1720,Right,0,71,82,521.0,0.322917,Triplet,B4
1721,Right,0,69,83,521.333333,0.322917,Triplet,A4
1722,Right,0,67,84,521.666667,0.322917,Triplet,G4
1723,Right,0,65,85,522.0,0.322917,Triplet,F4
1724,Right,0,64,86,522.333333,0.322917,Triplet,E4
1725,Right,0,62,87,522.666667,0.322917,Triplet,D4
1726,Right,0,60,87,523.0,0.322917,Triplet,C4
1727,Right,0,59,88,523.333333,0.322917,Triplet,B3
1728,Right,0,57,89,523.666667,0.322917,Triplet,A3
1729,Left,1,47,90,524.0,0.322917,Triplet,B2
1730,Right,0,56,90,524.0,0.989583,Quarter,G#3
1731,Left,1,50,91,524.333333,0.322917,Triplet,D3
1732,Left,1,52,92,524.666667,0.322917,Triplet,E3
1734,Left,1,47,93,525.0,0.322917,Triplet,B2
1733,Right,0,56,93,525.0,0.989583,Quarter,G#3
1735,Left,1,50,94,525.333333,0.322917,Triplet,D3
1736,Left,1,52,95,525.666667,0.322917,Triplet,E3
1737,Left,1,47,95,526.0,0.322917,Triplet,B2
1738,Right,0,56,95,526.0,0.989583,Quarter,G#3
1739,Left,1,50,96,526.333333,0.322917,Triplet,D3
1740,Left,1,52,97,526.666667,0.322917,Triplet,E3
1741,Left,1,47,98,527.0,0.322917,Triplet,B2
1742,Right,0,56,98,527.0,0.989583,Quarter,G#3
1743,Left,1,50,99,527.333333,0.322917,Triplet,D3
1744,Left,1,52,100,527.666667,0.322917,Triplet,E3
1746,Right,0,57,101,528.0,0.989583,Quarter,A3
1745,Left,1,48,101,528.0,0.322917,Triplet,C3
1747,Left,1,52,102,528.333333,0.322917,Triplet,E3
1748,Left,1,57,103,528.666667,0.322917,Triplet,A3
1749,Left,1,48,103,529.0,0.322917,Triplet,C3
1750,Right,0,69,103,529.0,1.989583,Half,A4
1751,Left,1,52,104,529.333333,0.322917,Triplet,E3
1752,Left,1,57,105,529.666667,0.322917,Triplet,A3
1753,Left,1,49,106,530.0,0.322917,Triplet,C#3
1754,Left,1,52,107,530.333333,0.322917,Triplet,E3
1755,Left,1,57,108,530.666667,0.322917,Triplet,A3
1756,Left,1,49,109,531.0,0.322917,Triplet,C#3
1757,Right,0,67,109,531.0,0.989583,Quarter,G4
1758,Left,1,52,110,531.333333,0.322917,Triplet,E3
1759,Left,1,57,110,531.666667,0.322917,Triplet,A3
1761,Left,1,50,110,532.0,0.322917,Triplet,D3
1760,Right,0,66,110,532.0,0.989583,Quarter,F#4
1762,Left,1,54,110,532.333333,0.322917,Triplet,F#3
1763,Left,1,57,110,532.666667,0.322917,Triplet,A3
1765,Left,1,50,110,533.0,0.322917,Triplet,D3
1764,Right,0,81,110,533.0,0.322917,Triplet,A5
1767,Left,1,54,110,533.333333,0.322917,Triplet,F#3
1766,Right,0,78,110,533.333333,0.322917,Triplet,F#5
1768,Right,0,74,110,533.666667,0.322917,Triplet,D5
1769,Left,1,57,110,533.666667,0.322917,Triplet,A3
1770,Right,0,72,110,534.0,0.989583,Quarter,C5
1771,Left,1,50,110,534.0,0.322917,Triplet,D3
1772,Left,1,54,110,534.333333,0.322917,Triplet,F#3
1773,Left,1,57,110,534.666667,0.322917,Triplet,A3
1774,Left,1,50,110,535.0,0.322917,Triplet,D3
1775,Right,0,81,110,535.0,0.322917,Triplet,A5
1776,Right,0,78,110,535.333333,0.322917,Triplet,F#5
1777,Left,1,54,110,535.333333,0.322917,Triplet,F#3
1779,Right,0,72,110,535.666667,0.322917,Triplet,C5
1778,Left,1,57,110,535.666667,0.322917,Triplet,A3
1781,Left,1,50,110,536.0,0.322917,Triplet,D3
1780,Right,0,71,110,536.0,0.989583,Quarter,B4
1782,Left,1,55,110,536.333333,0.322917,Triplet,G3
1783,Left,1,59,110,536.666667,0.322917,Triplet,B3
1785,Left,1,50,110,537.0,0.322917,Triplet,D3
1784,Right,0,79,110,537.0,0.322917,Triplet,G5
1786,Left,1,55,110,537.333333,0.322917,Triplet,G3
1787,Right,0,74,110,537.333333,0.322917,Triplet,D5
1788,Left,1,59,110,537.666667,0.322917,Triplet,B3
1789,Right,0,71,110,537.666667,0.322917,Triplet,B4
1790,Left,1,50,110,538.0,0.322917,Triplet,D3
1791,Right,0,67,110,538.0,0.989583,Quarter,G4
1792,Left,1,55,110,538.333333,0.322917,Triplet,G3
1793,Left,1,59,110,538.666667,0.322917,Triplet,B3
1795,Left,1,50,110,539.0,0.322917,Triplet,D3
1794,Right,0,74,110,539.0,0.322917,Triplet,D5
1797,Right,0,71,110,539.333333,0.322917,Triplet,B4
1796,Left,1,55,110,539.333333,0.322917,Triplet,G3
1798,Right,0,67,110,539.666667,0.322917,Triplet,G4
1799,Left,1,59,110,539.666667,0.322917,Triplet,B3
1801,Right,0,66,110,540.0,0.989583,Quarter,F#4
1800,Left,1,50,110,540.0,0.322917,Triplet,D3
1802,Left,1,54,110,540.333333,0.322917,Triplet,F#3
1803,Left,1,57,110,540.666667,0.322917,Triplet,A3
1805,Right,0,81,110,541.0,0.322917,Triplet,A5
1804,Left,1,50,110,541.0,0.322917,Triplet,D3
1806,Right,0,78,110,541.333333,0.322917,Triplet,F#5
1807,Left,1,54,110,541.333333,0.322917,Triplet,F#3
1809,Left,1,57,110,541.666667,0.322917,Triplet,A3
1808,Right,0,74,110,541.666667,0.322917,Triplet,D5
1810,Left,1,50,110,542.0,0.322917,Triplet,D3
1811,Right,0,72,110,542.0,0.989583,Quarter,C5
1812,Left,1,54,110,542.333333,0.322917,Triplet,F#3
1813,Left,1,57,110,542.666667,0.322917,Triplet,A3
1815,Left,1,50,110,543.0,0.322917,Triplet,D3
1814,Right,0,81,110,543.0,0.322917,Triplet,A5
1816,Left,1,54,110,543.333333,0.322917,Triplet,F#3
1817,Right,0,78,110,543.333333,0.322917,Triplet,F#5
1819,Left,1,57,110,543.666667,0.322917,Triplet,A3
1818,Right,0,72,110,543.666667,0.322917,Triplet,C5
1821,Left,1,50,110,544.0,0.322917,Triplet,D3
1820,Right,0,71,110,544.0,0.989583,Quarter,B4
1822,Left,1,55,110,544.333333,0.322917,Triplet,G3
1823,Left,1,59,110,544.666667,0.322917,Triplet,B3
1825,Left,1,50,110,545.0,0.322917,Triplet,D3
1824,Right,0,79,110,545.0,0.322917,Triplet,G5
1826,Left,1,55,110,545.333333,0.322917,Triplet,G3
1827,Right,0,74,110,545.333333,0.322917,Triplet,D5
1829,Left,1,59,110,545.666667,0.322917,Triplet,B3
1828,Right,0,71,110,545.666667,0.322917,Triplet,B4
1831,Right,0,67,110,546.0,0.989583,Quarter,G4
1830,Left,1,50,110,546.0,0.322917,Triplet,D3
1832,Left,1,55,110,546.333333,0.322917,Triplet,G3
1833,Left,1,59,110,546.666667,0.322917,Triplet,B3
1834,Right,0,74,110,547.0,0.322917,Triplet,D5
1835,Left,1,50,110,547.0,0.322917,Triplet,D3
1837,Right,0,71,110,547.333333,0.322917,Triplet,B4
1836,Left,1,55,110,547.333333,0.322917,Triplet,G3
1838,Left,1,59,110,547.666667,0.322917,Triplet,B3
1839,Right,0,67,110,547.666667,0.322917,Triplet,G4
1841,Left,1,50,110,548.0,0.322917,Triplet,D3
1840,Right,0,62,110,548.0,0.989583,Quarter,D4
1842,Left,1,54,110,548.333333,0.322917,Triplet,F#3
1843,Left,1,57,110,548.666667,0.322917,Triplet,A3
1844,Left,1,50,110,549.0,0.322917,Triplet,D3
1845,Right,0,74,110,549.0,0.322917,Triplet,D5
1847,Left,1,55,110,549.333333,0.322917,Triplet,G3
1846,Right,0,71,110,549.333333,0.322917,Triplet,B4
1848,Left,1,59,110,549.666667,0.322917,Triplet,B3
1849,Right,0,67,110,549.666667,0.322917,Triplet,G4
1851,Right,0,62,110,550.0,0.989583,Quarter,D4
1850,Left,1,50,110,550.0,0.322917,Triplet,D3
1852,Left,1,54,110,550.333333,0.322917,Triplet,F#3
1853,Left,1,57,110,550.666667,0.322917,Triplet,A3
1854,Left,1,50,110,551.0,0.322917,Triplet,D3
1855,Right,0,74,110,551.0,0.322917,Triplet,D5
1856,Right,0,71,110,551.333333,0.322917,Triplet,B4
1857,Left,1,55,110,551.333333,0.322917,Triplet,G3
1858,Right,0,67,110,551.666667,0.322917,Triplet,G4
1859,Left,1,59,110,551.666667,0.322917,Triplet,B3
1860,Right,0,62,110,552.0,0.989583,Quarter,D4
1861,Left,1,50,110,552.0,0.989583,Quarter,F#3_D3
1863,Right,0,62,80,554.5,0.489583,Eighth,D4
1864,Right,0,62,80,555.0,0.489583,Eighth,D4
1865,Right,0,62,80,555.5,0.489583,Eighth,D4
1866,Right,0,67,80,556.0,0.989583,Quarter,G4
1867,Left,1,59,80,556.0,0.489583,Eighth,B3
1868,Left,1,62,80,556.5,0.489583,Eighth,D4
1869,Right,0,66,80,557.0,0.989583,Quarter,F#4
1870,Left,1,60,80,557.0,0.489583,Eighth,C4
1871,Left,1,62,80,557.5,0.489583,Eighth,D4
1872,Left,1,59,80,558.0,0.489583,Eighth,B3
1873,Right,0,67,80,558.0,0.989583,Quarter,G4
1874,Left,1,62,80,558.5,0.489583,Eighth,D4
1876,Right,0,69,80,559.0,0.989583,Quarter,A4
1875,Left,1,54,80,559.0,0.489583,Eighth,F#3
1877,Left,1,62,80,559.5,0.489583,Eighth,D4
1878,Left,1,55,80,560.0,0.489583,Eighth,G3
1879,Right,0,72,80,560.0,0.489583,Eighth,C5
1880,Left,1,62,80,560.5,0.489583,Eighth,D4
1881,Right,0,71,80,560.5,0.489583,Eighth,B4
1882,Left,1,54,80,561.0,0.489583,Eighth,F#3
1883,Right,0,69,80,561.0,0.989583,Quarter,A4
1884,Left,1,62,80,561.5,0.489583,Eighth,D4
1885,Left,1,50,80,562.0,0.989583,Quarter,D3
1886,Right,0,62,80,562.5,0.489583,Eighth,D4
1887,Right,0,62,80,563.0,0.489583,Eighth,D4
1888,Right,0,62,80,563.5,0.489583,Eighth,D4
1889,Left,1,60,80,564.0,0.489583,Eighth,C4
1890,Right,0,69,80,564.0,0.989583,Quarter,A4
1891,Left,1,62,80,564.5,0.489583,Eighth,D4
1892,Left,1,59,80,565.0,0.489583,Eighth,B3
1893,Right,0,67,80,565.0,0.989583,Quarter,G4
1894,Left,1,62,80,565.5,0.489583,Eighth,D4
1896,Left,1,57,80,566.0,0.489583,Eighth,A3
1895,Right,0,69,80,566.0,0.989583,Quarter,F#4_A4
1898,Left,1,62,80,566.5,0.489583,Eighth,D4
1899,Right,0,67,80,567.0,0.989583,Quarter,G4_B4
1901,Left,1,55,80,567.0,0.489583,Eighth,G3
1902,Left,1,62,80,567.5,0.489583,Eighth,D4
1904,Right,0,74,80,568.0,0.489583,Eighth,D5_A4
1903,Left,1,54,80,568.0,0.489583,Eighth,F#3
1906,Left,1,62,80,568.5,0.489583,Eighth,D4
1907,Right,0,72,80,568.5,0.489583,Eighth,C5
1908,Left,1,55,80,569.0,0.489583,Eighth,G3
1909,Right,0,71,80,569.0,0.989583,Quarter,G4_B4
1911,Left,1,62,80,569.5,0.489583,Eighth,D4
1912,Left,1,55,80,570.0,0.989583,Quarter,G3
1913,Right,0,74,80,570.5,0.489583,Eighth,D5
1914,Right,0,72,80,571.0,0.489583,Eighth,C5
1915,Right,0,71,80,571.5,0.489583,Eighth,B4
1918,Right,0,71,80,572.0,0.489583,Eighth,B4
1916,Left,1,60,80,572.0,1.989583,Half,E4_C4
1919,Right,0,69,80,572.5,0.489583,Eighth,A4
1920,Right,0,69,80,573.0,0.489583,Eighth,A4
1921,Right,0,69,80,573.5,0.489583,Eighth,A4
1923,Right,0,67,80,574.0,0.489583,Eighth,G4
1922,Left,1,59,80,574.0,0.989583,Quarter,D4_B3
1925,Right,0,74,80,574.5,0.489583,Eighth,D5
1926,Right,0,72,80,575.0,0.489583,Eighth,C5
1927,Right,0,71,80,575.5,0.489583,Eighth,B4
1930,Right,0,71,80,576.0,0.489583,Eighth,B4
1928,Left,1,60,80,576.0,1.989583,Half,E4_C4
1931,Right,0,69,80,576.5,0.489583,Eighth,A4
1932,Right,0,69,80,577.0,0.489583,Eighth,A4
1933,Right,0,69,80,577.5,0.489583,Eighth,A4
1936,Right,0,67,80,578.0,0.489583,Eighth,G4
1934,Left,1,59,80,578.0,0.989583,Quarter,D4_B3
1937,Right,0,74,80,578.5,0.489583,Eighth,D5
1938,Right,0,72,80,579.0,0.489583,Eighth,C5
1939,Right,0,71,80,579.5,0.489583,Eighth,B4
1940,Right,0,71,80,580.0,0.489583,Eighth,B4
1941,Right,0,69,80,580.5,0.489583,Eighth,A4
1942,Left,1,64,80,581.0,0.989583,Quarter,E4_C4
1944,Right,0,69,80,581.5,0.489583,Eighth,A4
1945,Right,0,69,80,582.0,0.489583,Eighth,A4
1946,Right,0,67,80,582.5,0.489583,Eighth,G4
1947,Left,1,61,80,583.0,0.989583,Quarter,E4_C#4
1949,Right,0,67,80,583.5,0.489583,Eighth,G4
1950,Left,1,62,80,584.0,0.989583,Quarter,D4
1951,Right,0,66,80,584.0,0.489583,Eighth,F#4
1952,Right,0,67,80,584.5,0.489583,Eighth,G4
1953,Right,0,69,80,585.0,0.489583,Eighth,A4
1954,Right,0,71,80,585.5,0.489583,Eighth,B4
1955,Right,0,72,80,586.0,0.489583,Eighth,C5
1956,Right,0,74,80,586.5,0.489583,Eighth,D5
1957,Right,0,76,80,587.0,0.489583,Eighth,E5
1958,Right,0,78,80,587.5,0.489583,Eighth,F#5
1959,Left,1,71,80,588.0,0.489583,Eighth,B4
1960,Right,0,79,80,588.0,0.989583,Quarter,G5
1961,Left,1,74,80,588.5,0.489583,Eighth,D5
1963,Right,0,78,80,589.0,0.989583,Quarter,F#5
1962,Left,1,72,80,589.0,0.489583,Eighth,C5
1964,Left,1,74,80,589.5,0.489583,Eighth,D5
1966,Left,1,71,80,590.0,0.489583,Eighth,B4
1965,Right,0,79,80,590.0,0.989583,Quarter,G5
1967,Left,1,74,80,590.5,0.489583,Eighth,D5
1969,Right,0,81,80,591.0,0.989583,Quarter,A5
1968,Left,1,66,80,591.0,0.489583,Eighth,F#4
1970,Left,1,74,80,591.5,0.489583,Eighth,D5
1972,Left,1,67,80,592.0,0.489583,Eighth,G4
1971,Right,0,84,80,592.0,0.489583,Eighth,C6
1974,Right,0,83,80,592.5,0.489583,Eighth,B5
1973,Left,1,74,80,592.5,0.489583,Eighth,D5
1975,Left,1,66,80,593.0,0.489583,Eighth,F#4
1976,Right,0,81,80,593.0,0.989583,Quarter,A5
1977,Left,1,74,80,593.5,0.489583,Eighth,D5
1978,Left,1,62,80,594.0,0.989583,Quarter,D4
1979,Right,0,74,80,594.5,0.489583,Eighth,D5
1980,Right,0,74,80,595.0,0.489583,Eighth,D5
1981,Right,0,74,80,595.5,0.489583,Eighth,D5
1983,Left,1,72,80,596.0,0.489583,Eighth,C5
1982,Right,0,81,80,596.0,0.989583,Quarter,A5
1984,Left,1,74,80,596.5,0.489583,Eighth,D5
1985,Right,0,79,80,597.0,0.989583,Quarter,G5
1986,Left,1,71,80,597.0,0.489583,Eighth,B4
1987,Left,1,74,80,597.5,0.489583,Eighth,D5
1990,Left,1,69,80,598.0,0.489583,Eighth,A4
1988,Right,0,81,80,598.0,0.989583,Quarter,F#5_A5
1991,Left,1,74,80,598.5,0.489583,Eighth,D5
1992,Right,0,79,80,599.0,0.989583,Quarter,G5_B5
1994,Left,1,67,80,599.0,0.489583,Eighth,G4
1995,Left,1,74,80,599.5,0.489583,Eighth,D5
1996,Left,1,66,80,600.0,0.489583,Eighth,F#4
1997,Right,0,86,80,600.0,0.489583,Eighth,D6_A5
2000,Right,0,84,80,600.5,0.489583,Eighth,C6
1999,Left,1,74,80,600.5,0.489583,Eighth,D5
2002,Right,0,83,80,601.0,0.989583,Quarter,G5_B5
2001,Left,1,67,80,601.0,0.489583,Eighth,G4
2004,Left,1,74,80,601.5,0.489583,Eighth,D5
2005,Left,1,67,80,602.0,0.989583,Quarter,G4
2006,Right,0,86,80,602.5,0.489583,Eighth,D6
2007,Right,0,84,80,603.0,0.489583,Eighth,C6
2008,Right,0,83,80,603.5,0.489583,Eighth,B5
2011,Right,0,83,80,604.0,0.489583,Eighth,B5
2009,Left,1,72,80,604.0,1.989583,Half,E5_C5
2012,Right,0,81,80,604.5,0.489583,Eighth,A5
2013,Right,0,81,80,605.0,0.489583,Eighth,A5
2014,Left,1,78,80,605.0,0.989583,Quarter,F#5
2015,Right,0,81,80,605.5,0.489583,Eighth,A5
2017,Left,1,74,80,606.0,0.989583,Quarter,D5_B4
2016,Right,0,79,80,606.0,0.489583,Eighth,G5
2019,Right,0,86,80,606.5,0.489583,Eighth,D6
2020,Right,0,84,80,607.0,0.489583,Eighth,C6
2021,Right,0,83,80,607.5,0.489583,Eighth,B5
2022,Right,0,83,80,608.0,0.489583,Eighth,B5
2023,Left,1,72,80,608.0,1.989583,Half,E5_C5
2025,Right,0,81,80,608.5,0.489583,Eighth,A5
2027,Right,0,81,80,609.0,0.489583,Eighth,A5
2026,Left,1,78,80,609.0,0.989583,Quarter,F#5
2028,Right,0,81,80,609.5,0.489583,Eighth,A5
2031,Right,0,79,80,610.0,0.489583,Eighth,G5
2029,Left,1,74,80,610.0,0.989583,Quarter,D5_B4
2032,Right,0,86,80,610.5,0.489583,Eighth,D6
2033,Right,0,84,80,611.0,0.489583,Eighth,C6
2034,Right,0,83,80,611.5,0.489583,Eighth,B5
2035,Right,0,83,80,612.0,0.489583,Eighth,B5
2036,Right,0,81,80,612.5,0.489583,Eighth,A5
2037,Right,0,84,80,613.0,0.489583,Eighth,C6
2038,Left,1,72,80,613.0,0.989583,Quarter,C5
2039,Right,0,81,80,613.5,0.489583,Eighth,A5
2041,Left,1,74,80,614.0,0.989583,Quarter,D5
2040,Right,0,81,80,614.0,0.489583,Eighth,A5
2042,Right,0,79,80,614.5,0.489583,Eighth,G5
2044,Right,0,79,80,615.0,0.489583,Eighth,G5
2043,Left,1,62,80,615.0,0.989583,Quarter,D4
2045,Right,0,78,80,615.5,0.489583,Eighth,F#5
2046,Right,0,79,110,616.0,0.072917,TripletThirtySecond,G5
2047,Left,1,67,110,616.0,0.989583,Quarter,G4
2048,Right,0,86,110,616.083333,0.239583,Sixteenth,D6
2049,Right,0,84,110,616.333333,0.322917,Triplet,C6
2050,Right,0,83,110,616.666667,0.322917,Triplet,B5
2051,Right,0,81,110,617.0,0.322917,Triplet,A5
2052,Right,0,79,110,617.333333,0.322917,Triplet,G5
2053,Right,0,78,110,617.666667,0.322917,Triplet,F#5
2054,Right,0,76,110,618.0,0.322917,Triplet,E5
2055,Right,0,74,110,618.333333,0.322917,Triplet,D5
2056,Right,0,72,110,618.666667,0.322917,Triplet,C5
2057,Right,0,71,110,619.0,0.322917,Triplet,B4
2058,Right,0,69,110,619.333333,0.322917,Triplet,A4
2059,Right,0,67,110,619.666667,0.322917,Triplet,G4
2061,Right,0,66,110,620.0,0.989583,Quarter,F#4
2060,Left,1,57,110,620.0,0.322917,Triplet,A3
2062,Left,1,60,110,620.333333,0.322917,Triplet,C4
2063,Left,1,62,110,620.666667,0.322917,Triplet,D4
2065,Left,1,57,110,621.0,0.322917,Triplet,A3
2064,Right,0,66,110,621.0,0.989583,Quarter,F#4
2066,Left,1,60,110,621.333333,0.322917,Triplet,C4
2067,Left,1,62,110,621.666667,0.322917,Triplet,D4
2069,Right,0,66,110,622.0,0.989583,Quarter,F#4
2068,Left,1,57,110,622.0,0.322917,Triplet,A3
2070,Left,1,60,110,622.333333,0.322917,Triplet,C4
2071,Left,1,62,110,622.666667,0.322917,Triplet,D4
2073,Right,0,66,110,623.0,0.989583,Quarter,F#4
2072,Left,1,57,110,623.0,0.322917,Triplet,A3
2074,Left,1,60,110,623.333333,0.322917,Triplet,C4
2075,Left,1,62,110,623.666667,0.322917,Triplet,D4
2077,Right,0,67,110,624.0,0.322917,Triplet,G4
2076,Left,1,55,110,624.0,0.989583,Quarter,G3_B3
2079,Right,0,69,110,624.333333,0.322917,Triplet,A4
2080,Right,0,71,110,624.666667,0.322917,Triplet,B4
2081,Right,0,72,110,625.0,0.322917,Triplet,C5
2082,Right,0,74,110,625.333333,0.322917,Triplet,D5
2083,Right,0,76,110,625.666667,0.322917,Triplet,E5
2084,Right,0,78,110,626.0,0.322917,Triplet,F#5
2085,Right,0,79,110,626.333333,0.322917,Triplet,G5
2086,Right,0,81,110,626.666667,0.322917,Triplet,A5
2087,Right,0,83,110,627.0,0.322917,Triplet,B5
2088,Right,0,84,110,627.333333,0.322917,Triplet,C6
2089,Right,0,86,110,627.666667,0.322917,Triplet,D6
2091,Right,0,84,110,628.0,0.989583,Quarter,C6
2090,Left,1,54,110,628.0,0.322917,Triplet,F#3
2092,Left,1,57,110,628.333333,0.322917,Triplet,A3
2093,Left,1,62,110,628.666667,0.322917,Triplet,D4
2094,Left,1,54,110,629.0,0.322917,Triplet,F#3
2095,Right,0,84,110,629.0,0.989583,Quarter,C6
2096,Left,1,57,110,629.333333,0.322917,Triplet,A3
2097,Left,1,62,110,629.666667,0.322917,Triplet,D4
2098,Right,0,84,110,630.0,0.989583,Quarter,C6
2099,Left,1,54,110,630.0,0.322917,Triplet,F#3
2100,Left,1,57,110,630.333333,0.322917,Triplet,A3
2101,Left,1,62,110,630.666667,0.322917,Triplet,D4
2102,Right,0,84,110,631.0,0.989583,Quarter,C6
2103,Left,1,54,110,631.0,0.322917,Triplet,F#3
2104,Left,1,57,110,631.333333,0.322917,Triplet,A3
2105,Left,1,62,110,631.666667,0.322917,Triplet,D4
2108,Right,0,83,110,632.0,0.072917,TripletThirtySecond,B5
2106,Left,1,55,110,632.0,0.989583,Quarter,G3_B3
2109,Right,0,86,110,632.083333,0.239583,Sixteenth,D6
2110,Right,0,84,110,632.333333,0.322917,Triplet,C6
2111,Right,0,83,110,632.666667,0.322917,Triplet,B5
2112,Right,0,81,110,633.0,0.322917,Triplet,A5
2113,Right,0,79,110,633.333333,0.322917,Triplet,G5
2114,Right,0,78,110,633.666667,0.322917,Triplet,F#5
2115,Right,0,76,110,634.0,0.322917,Triplet,E5
2116,Right,0,74,110,634.333333,0.322917,Triplet,D5
2117,Right,0,72,110,634.666667,0.322917,Triplet,C5
2118,Right,0,71,110,635.0,0.322917,Triplet,B4
2119,Right,0,69,110,635.333333,0.322917,Triplet,A4
2120,Right,0,67,110,635.666667,0.322917,Triplet,G4
2122,Right,0,65,110,636.0,0.989583,Quarter,F4
2121,Left,1,47,110,636.0,0.322917,Triplet,B2
2123,Left,1,50,110,636.333333,0.322917,Triplet,D3
2124,Left,1,55,110,636.666667,0.322917,Triplet,G3
2126,Left,1,47,110,637.0,0.322917,Triplet,B2
2125,Right,0,65,110,637.0,0.989583,Quarter,F4
2127,Left,1,50,110,637.333333,0.322917,Triplet,D3
2128,Left,1,55,110,637.666667,0.322917,Triplet,G3
2129,Left,1,47,110,638.0,0.322917,Triplet,B2
2130,Right,0,65,110,638.0,0.989583,Quarter,F4
2131,Left,1,50,110,638.333333,0.322917,Triplet,D3
2132,Left,1,56,110,638.666667,0.322917,Triplet,G#3
2134,Left,1,47,110,639.0,0.322917,Triplet,B2
2133,Right,0,65,110,639.0,0.989583,Quarter,F4
2135,Left,1,50,110,639.333333,0.322917,Triplet,D3
2136,Left,1,56,110,639.666667,0.322917,Triplet,G#3
2138,Left,1,48,110,640.0,0.322917,Triplet,C3
2137,Right,0,64,110,640.0,0.322917,Triplet,E4
2140,Left,1,52,110,640.333333,0.322917,Triplet,E3
2139,Right,0,69,110,640.333333,0.322917,Triplet,A4
2141,Left,1,57,110,640.666667,0.322917,Triplet,A3
2142,Right,0,72,110,640.666667,0.322917,Triplet,C5
2144,Right,0,76,110,641.0,0.322917,Triplet,E5
2143,Left,1,48,110,641.0,0.322917,Triplet,C3
2145,Right,0,72,110,641.333333,0.322917,Triplet,C5
2146,Left,1,52,110,641.333333,0.322917,Triplet,E3
2147,Right,0,69,110,641.666667,0.322917,Triplet,A4
2148,Left,1,57,110,641.666667,0.322917,Triplet,A3
2149,Left,1,50,110,642.0,0.322917,Triplet,D3
2150,Right,0,67,110,642.0,0.989583,Quarter,G4
2151,Left,1,55,110,642.333333,0.322917,Triplet,G3
2152,Left,1,59,110,642.666667,0.322917,Triplet,B3
2154,Right,0,69,110,643.0,0.21875,Sixteenth,A4
2153,Left,1,50,110,643.0,0.322917,Triplet,D3
2155,Right,0,71,110,643.125,0.21875,Sixteenth,B4
2156,Right,0,69,110,643.25,0.197917,TripletSixteenth,A4
2157,Left,1,54,110,643.333333,0.322917,Triplet,F#3
2158,Right,0,71,110,643.375,0.197917,TripletSixteenth,B4
2159,Right,0,69,110,643.5,0.1875,TripletSixteenth,A4
2160,Right,0,71,110,643.625,0.197917,TripletSixteenth,B4
2161,Left,1,60,110,643.666667,0.322917,Triplet,C4
2162,Right,0,67,110,643.75,0.229167,Sixteenth,G4
2163,Right,0,69,110,643.875,0.114583,ThirtySecond,A4
2165,Left,1,55,110,644.0,0.989583,Quarter,G3_B3
2164,Right,0,67,110,644.0,0.322917,Triplet,G4
2167,Right,0,69,110,644.333333,0.322917,Triplet,A4
2168,Right,0,71,110,644.666667,0.322917,Triplet,B4
2169,Right,0,72,110,645.0,0.322917,Triplet,C5
2170,Right,0,74,110,645.333333,0.322917,Triplet,D5
2171,Right,0,76,110,645.666667,0.322917,Triplet,E5
2172,Right,0,78,110,646.0,0.322917,Triplet,F#5
2173,Right,0,79,110,646.333333,0.322917,Triplet,G5
2174,Right,0,81,110,646.666667,0.322917,Triplet,A5
2175,Right,0,83,110,647.0,0.322917,Triplet,B5
2176,Right,0,84,110,647.333333,0.322917,Triplet,C6
2177,Right,0,86,110,647.666667,0.322917,Triplet,D6
2178,Right,0,88,110,648.0,3.989583,Whole,E6_C6
2180,Left,1,60,110,648.333333,0.322917,Triplet,C4
2181,Left,1,62,110,648.666667,0.322917,Triplet,D4
2182,Left,1,64,110,649.0,0.322917,Triplet,E4
2183,Left,1,66,110,649.333333,0.322917,Triplet,F#4
2184,Left,1,67,110,649.666667,0.322917,Triplet,G4
2185,Left,1,69,110,650.0,0.322917,Triplet,A4
2186,Left,1,71,110,650.333333,0.322917,Triplet,B4
2187,Left,1,72,110,650.666667,0.322917,Triplet,C5
2188,Left,1,74,110,651.0,0.322917,Triplet,D5
2189,Left,1,76,110,651.333333,0.322917,Triplet,E5
2190,Left,1,78,110,651.666667,0.322917,Triplet,F#5
2191,Left,1,79,110,652.0,0.989583,Quarter,G5
2192,Right,0,83,110,652.0,0.989583,Quarter,D6_B5
2196,Left,1,72,110,653.0,0.989583,Quarter,C5
2194,Right,0,84,110,653.0,0.989583,Quarter,C6_A5
2198,Left,1,74,110,654.0,0.989583,Quarter,D5
2197,Right,0,79,110,654.0,0.989583,Quarter,G5_B5
2200,Left,1,62,110,655.0,0.989583,Quarter,D4
2201,Right,0,78,110,655.0,0.989583,Quarter,F#5_A5
2203,Right,0,86,110,656.0,0.322917,Triplet,D6
2204,Right,0,84,110,656.333333,0.322917,Triplet,C6
2205,Right,0,83,110,656.666667,0.322917,Triplet,B5
2206,Right,0,81,110,657.0,0.322917,Triplet,A5
2207,Right,0,79,110,657.333333,0.322917,Triplet,G5
2208,Right,0,78,110,657.666667,0.322917,Triplet,F#5
2209,Right,0,76,110,658.0,0.322917,Triplet,E5
2210,Right,0,74,110,658.333333,0.322917,Triplet,D5
2211,Right,0,72,110,658.666667,0.322917,Triplet,C5
2212,Right,0,71,110,659.0,0.322917,Triplet,B4
2213,Right,0,69,110,659.333333,0.322917,Triplet,A4
2214,Right,0,67,110,659.666667,0.322917,Triplet,G4
2215,Right,0,76,110,660.0,3.989583,Whole,E5_C5
2217,Left,1,48,110,660.333333,0.322917,Triplet,C3
2218,Left,1,50,110,660.666667,0.322917,Triplet,D3
2219,Left,1,52,110,661.0,0.322917,Triplet,E3
2220,Left,1,54,110,661.333333,0.322917,Triplet,F#3
2221,Left,1,55,110,661.666667,0.322917,Triplet,G3
2222,Left,1,57,110,662.0,0.322917,Triplet,A3
2223,Left,1,59,110,662.333333,0.322917,Triplet,B3
2224,Left,1,60,110,662.666667,0.322917,Triplet,C4
2225,Left,1,62,110,663.0,0.322917,Triplet,D4
2226,Left,1,64,110,663.333333,0.322917,Triplet,E4
2227,Left,1,66,110,663.666667,0.322917,Triplet,F#4
2228,Right,0,71,80,664.0,0.989583,Quarter,D5_B4
2230,Left,1,67,111,664.0,0.989583,Quarter,G4
2233,Left,1,60,80,665.0,0.989583,Quarter,C4
2231,Right,0,69,80,665.0,0.989583,Quarter,C5_A4
2235,Right,0,71,80,666.0,0.989583,Quarter,G4_B4
2234,Left,1,62,80,666.0,0.989583,Quarter,D4
2237,Right,0,66,80,667.0,0.989583,Quarter,F#4_A4
2239,Left,1,50,80,667.0,0.989583,Quarter,D3
2240,Right,0,67,110,668.0,0.989583,Quarter,G4
2241,Left,1,43,110,668.0,0.322917,Triplet,G2
2242,Left,1,47,110,668.333333,0.322917,Triplet,B2
2243,Left,1,50,110,668.666667,0.322917,Triplet,D3
2244,Right,0,86,110,669.0,0.322917,Triplet,D6
2245,Left,1,43,110,669.0,0.322917,Triplet,G2
2247,Right,0,83,110,669.333333,0.322917,Triplet,B5
2246,Left,1,47,110,669.333333,0.322917,Triplet,B2
2249,Right,0,79,110,669.666667,0.322917,Triplet,G5
2248,Left,1,50,110,669.666667,0.322917,Triplet,D3
2251,Right,0,78,110,670.0,0.989583,Quarter,F#5
2250,Left,1,43,110,670.0,0.322917,Triplet,G2
2252,Left,1,48,110,670.333333,0.322917,Triplet,C3
2253,Left,1,50,110,670.666667,0.322917,Triplet,D3
2254,Right,0,84,110,671.0,0.322917,Triplet,C6
2255,Left,1,43,110,671.0,0.322917,Triplet,G2
2256,Left,1,48,110,671.333333,0.322917,Triplet,C3
2257,Right,0,81,110,671.333333,0.322917,Triplet,A5
2258,Left,1,50,110,671.666667,0.322917,Triplet,D3
2259,Right,0,78,110,671.666667,0.322917,Triplet,F#5
2261,Right,0,79,110,672.0,0.989583,Quarter,G5
2260,Left,1,43,110,672.0,0.322917,Triplet,G2
2262,Left,1,47,110,672.333333,0.322917,Triplet,B2
2263,Left,1,50,110,672.666667,0.322917,Triplet,D3
2264,Left,1,43,110,673.0,0.322917,Triplet,G2
2265,Right,0,74,110,673.0,0.322917,Triplet,D5
2266,Right,0,71,110,673.333333,0.322917,Triplet,B4
2267,Left,1,47,110,673.333333,0.322917,Triplet,B2
2269,Right,0,67,110,673.666667,0.322917,Triplet,G4
2268,Left,1,50,110,673.666667,0.322917,Triplet,D3
2270,Left,1,43,110,674.0,0.322917,Triplet,G2
2271,Right,0,66,110,674.0,0.989583,Quarter,F#4
2272,Left,1,48,110,674.333333,0.322917,Triplet,C3
2273,Left,1,50,110,674.666667,0.322917,Triplet,D3
2275,Right,0,72,110,675.0,0.322917,Triplet,C5
2274,Left,1,43,110,675.0,0.322917,Triplet,G2
2277,Right,0,69,110,675.333333,0.322917,Triplet,A4
2276,Left,1,48,110,675.333333,0.322917,Triplet,C3
2278,Left,1,50,110,675.666667,0.322917,Triplet,D3
2279,Right,0,66,110,675.666667,0.322917,Triplet,F#4
2281,Left,1,43,110,676.0,0.322917,Triplet,G2
2280,Right,0,67,110,676.0,0.989583,Quarter,G4
2282,Left,1,47,110,676.333333,0.322917,Triplet,B2
2283,Left,1,50,110,676.666667,0.322917,Triplet,D3
2284,Right,0,86,110,677.0,0.322917,Triplet,D6
2285,Left,1,43,110,677.0,0.322917,Triplet,G2
2286,Left,1,47,110,677.333333,0.322917,Triplet,B2
2287,Right,0,83,110,677.333333,0.322917,Triplet,B5
2288,Left,1,50,110,677.666667,0.322917,Triplet,D3
2289,Right,0,79,110,677.666667,0.322917,Triplet,G5
2291,Right,0,78,110,678.0,0.989583,Quarter,F#5
2290,Left,1,43,110,678.0,0.322917,Triplet,G2
2292,Left,1,48,110,678.333333,0.322917,Triplet,C3
2293,Left,1,50,110,678.666667,0.322917,Triplet,D3
2295,Right,0,84,110,679.0,0.322917,Triplet,C6
2294,Left,1,43,110,679.0,0.322917,Triplet,G2
2296,Right,0,81,110,679.333333,0.322917,Triplet,A5
2297,Left,1,48,110,679.333333,0.322917,Triplet,C3
2298,Left,1,50,110,679.666667,0.322917,Triplet,D3
2299,Right,0,78,110,679.666667,0.322917,Triplet,F#5
2300,Right,0,79,110,680.0,0.989583,Quarter,G5
2301,Left,1,43,110,680.0,0.322917,Triplet,G2
2302,Left,1,47,110,680.333333,0.322917,Triplet,B2
2303,Left,1,50,110,680.666667,0.322917,Triplet,D3
2305,Right,0,74,110,681.0,0.322917,Triplet,D5
2304,Left,1,43,110,681.0,0.322917,Triplet,G2
2307,Right,0,71,110,681.333333,0.322917,Triplet,B4
2306,Left,1,47,110,681.333333,0.322917,Triplet,B2
2308,Left,1,50,110,681.666667,0.322917,Triplet,D3
2309,Right,0,67,110,681.666667,0.322917,Triplet,G4
2311,Right,0,66,110,682.0,0.989583,Quarter,F#4
2310,Left,1,43,110,682.0,0.322917,Triplet,G2
2312,Left,1,48,110,682.333333,0.322917,Triplet,C3
2313,Left,1,50,110,682.666667,0.322917,Triplet,D3
2314,Left,1,43,110,683.0,0.322917,Triplet,G2
2315,Right,0,72,110,683.0,0.322917,Triplet,C5
2317,Right,0,69,110,683.333333,0.322917,Triplet,A4
2316,Left,1,48,110,683.333333,0.322917,Triplet,C3
2318,Right,0,66,110,683.666667,0.322917,Triplet,F#4
2319,Left,1,50,110,683.666667,0.322917,Triplet,D3
2320,Left,1,43,110,684.0,0.322917,Triplet,G2
2321,Right,0,67,110,684.0,0.989583,Quarter,G4
2322,Left,1,47,110,684.333333,0.322917,Triplet,B2
2323,Left,1,50,110,684.666667,0.322917,Triplet,D3
2324,Left,1,43,110,685.0,0.322917,Triplet,G2
2325,Right,0,72,110,685.0,0.322917,Triplet,C5
2326,Right,0,69,110,685.333333,0.322917,Triplet,A4
2327,Left,1,48,110,685.333333,0.322917,Triplet,C3
2328,Left,1,50,110,685.666667,0.322917,Triplet,D3
2329,Right,0,66,110,685.666667,0.322917,Triplet,F#4
2331,Right,0,67,110,686.0,0.989583,Quarter,G4
2330,Left,1,43,110,686.0,0.322917,Triplet,G2
2332,Left,1,47,110,686.333333,0.322917,Triplet,B2
2333,Left,1,50,110,686.666667,0.322917,Triplet,D3
2335,Right,0,72,110,687.0,0.322917,Triplet,C5
2334,Left,1,43,110,687.0,0.322917,Triplet,G2
2336,Left,1,48,110,687.333333,0.322917,Triplet,C3
2337,Right,0,69,110,687.333333,0.322917,Triplet,A4
2339,Left,1,50,110,687.666667,0.322917,Triplet,D3
2338,Right,0,66,110,687.666667,0.322917,Triplet,F#4
2340,Left,1,43,110,688.0,0.989583,Quarter,G2
2341,Right,0,67,110,688.0,0.989583,Quarter,G4
2342,Right,0,74,110,690.0,0.989583,Quarter,F#5_D5_C5_A4
2345,Left,1,50,110,690.0,0.989583,Quarter,D3_D2
2349,Left,1,43,110,692.0,1.989583,Half,G2_G1
2348,Right,0,71,110,692.0,1.989583,Half,G5_D5_B4
2353,Right,0,67,1,697.0,0.989583,Quarter,G4
