,hand,channel,note,velocity,start_beat,duration,note_value,chord
1,Left,1,55,80,0.0,0.489583,Eighth,G3_B3
0,Right,0,67,80,0.0,0.739583,DottedEighth,G4
3,Left,1,62,80,0.5,0.489583,Eighth,D4
4,Right,0,66,80,0.75,0.239583,Sixteenth,F#4
6,Left,1,57,80,1.0,0.489583,Eighth,C4_A3
5,Right,0,66,80,1.0,1.989583,Half,F#4
8,Left,1,62,80,1.5,0.489583,Eighth,D4
9,Left,1,50,80,2.0,0.489583,Eighth,D3
10,Left,1,62,80,2.5,0.489583,Eighth,D4
11,Right,0,66,80,3.0,0.739583,DottedEighth,F#4
12,Left,1,57,80,3.0,0.489583,Eighth,C4_A3
14,Left,1,62,80,3.5,0.489583,Eighth,D4
15,Right,0,67,80,3.75,0.239583,Sixteenth,G4
16,Left,1,59,80,4.0,0.489583,Eighth,G3_B3
18,Right,0,67,80,4.0,1.989583,Half,G4
19,Left,1,62,80,4.5,0.489583,Eighth,D4
20,Left,1,50,80,5.0,0.489583,Eighth,D3
21,Left,1,62,80,5.5,0.489583,Eighth,D4
22,Right,0,67,80,6.0,0.739583,DottedEighth,G4
23,Left,1,59,80,6.0,0.489583,Eighth,G3_B3
25,Left,1,62,80,6.5,0.489583,Eighth,D4
26,Right,0,71,80,6.75,0.239583,Sixteenth,B4
27,Left,1,57,80,7.0,0.489583,Eighth,F#3_A3
28,Right,0,74,80,7.0,1.489583,DottedQuarter,D5
30,Left,1,62,80,7.5,0.489583,Eighth,D4
31,Left,1,50,80,8.0,0.489583,Eighth,D3
32,Left,1,62,80,8.5,0.489583,Eighth,D4
33,Right,0,76,80,8.5,0.489583,Eighth,E5
35,Right,0,74,80,9.0,0.489583,Eighth,D5
34,Left,1,57,80,9.0,0.489583,Eighth,F#3_A3
37,Right,0,72,80,9.5,0.489583,Eighth,C5
38,Left,1,62,80,9.5,0.489583,Eighth,D4
41,Right,0,71,80,10.0,0.989583,Quarter,B4
39,Left,1,55,80,10.0,0.489583,Eighth,G3_B3
42,Left,1,62,80,10.5,0.489583,Eighth,D4
43,Left,1,50,80,11.0,0.489583,Eighth,D3
44,Right,0,67,80,11.0,0.489583,Eighth,G4
45,Left,1,62,80,11.5,0.489583,Eighth,D4
46,Left,1,55,80,12.0,0.489583,Eighth,G3_B3
47,Right,0,67,80,12.0,0.739583,DottedEighth,G4
49,Left,1,62,80,12.5,0.489583,Eighth,D4
50,Right,0,66,80,12.75,0.239583,Sixteenth,F#4
52,Left,1,57,80,13.0,0.489583,Eighth,C4_A3
51,Right,0,66,80,13.0,1.989583,Half,F#4
54,Left,1,62,80,13.5,0.489583,Eighth,D4
55,Left,1,50,80,14.0,0.489583,Eighth,D3
56,Left,1,62,80,14.5,0.489583,Eighth,D4
58,Right,0,66,80,15.0,0.739583,DottedEighth,F#4
57,Left,1,57,80,15.0,0.489583,Eighth,C4_A3
60,Left,1,62,80,15.5,0.489583,Eighth,D4
61,Right,0,67,80,15.75,0.239583,Sixteenth,G4
62,Left,1,59,80,16.0,0.489583,Eighth,G3_B3
64,Right,0,67,80,16.0,1.989583,Half,G4
65,Left,1,62,80,16.5,0.489583,Eighth,D4
66,Left,1,50,80,17.0,0.489583,Eighth,D3
67,Left,1,62,80,17.5,0.489583,Eighth,D4
70,Right,0,67,80,18.0,0.739583,DottedEighth,G4
68,Left,1,55,80,18.0,0.489583,Eighth,G3_B3
71,Left,1,62,80,18.5,0.489583,Eighth,D4
72,Right,0,71,80,18.75,0.239583,Sixteenth,B4
73,Right,0,74,80,19.0,1.489583,DottedQuarter,D5
74,Left,1,50,80,20.0,0.989583,Quarter,D3_C4
76,Right,0,73,80,20.5,0.489583,Eighth,C#5
77,Left,1,50,80,21.0,0.989583,Quarter,D3_C4
79,Right,0,72,80,21.0,0.489583,Eighth,C5
80,Right,0,69,80,21.5,0.489583,Eighth,A4
83,Right,0,67,80,22.0,0.989583,Quarter,G4
81,Left,1,55,80,22.0,0.989583,Quarter,G3_B3
84,Left,1,43,80,23.0,0.989583,Quarter,G2
85,Right,0,71,80,24.0,0.739583,DottedEighth,B4
86,Right,0,71,80,24.75,0.239583,Sixteenth,B4
88,Right,0,71,80,25.0,0.989583,Quarter,B4
87,Left,1,63,80,25.0,0.989583,Quarter,F#4_D#4
91,Right,0,72,80,26.0,0.489583,Eighth,C5
90,Left,1,64,80,26.0,0.489583,Eighth,G4_E4
93,Right,0,72,80,27.0,0.739583,DottedEighth,C5
94,Right,0,72,80,27.75,0.239583,Sixteenth,C5
97,Right,0,72,80,28.0,0.989583,Quarter,C5
95,Left,1,64,80,28.0,0.989583,Quarter,G4_E4
98,Right,0,71,80,29.0,0.489583,Eighth,B4
99,Left,1,66,80,29.0,0.489583,Eighth,F#4_D4
101,Right,0,71,80,30.0,0.739583,DottedEighth,B4
102,Right,0,71,80,30.75,0.239583,Sixteenth,B4
103,Right,0,71,80,31.0,0.489583,Eighth,B4
104,Right,0,69,80,31.5,0.489583,Eighth,A4
105,Right,0,68,80,32.0,0.489583,Eighth,G#4
106,Left,1,60,80,32.0,0.989583,Quarter,C4
107,Right,0,69,80,32.5,0.489583,Eighth,A4
108,Left,1,60,80,33.0,0.989583,Quarter,C4
109,Right,0,75,80,33.0,0.489583,Eighth,D#5
110,Right,0,76,80,33.5,0.489583,Eighth,E5
111,Left,1,59,80,34.0,1.489583,Quarter,D3_B3
113,Right,0,67,80,34.0,0.989583,Quarter,G4
115,Right,0,66,80,35.0,0.489583,Eighth,F#4
114,Left,1,57,80,35.0,0.489583,Eighth,A3
116,Right,0,79,80,36.0,0.739583,DottedEighth,G5
117,Right,0,78,80,36.75,0.239583,Sixteenth,F#5
120,Right,0,78,80,37.0,1.989583,Half,F#5
118,Left,1,60,80,37.0,0.489583,Eighth,C4_A3
121,Left,1,62,80,37.5,0.489583,Eighth,D4
122,Left,1,50,80,38.0,0.489583,Eighth,D3
123,Left,1,62,80,38.5,0.489583,Eighth,D4
125,Left,1,60,80,39.0,0.489583,Eighth,C4_A3
124,Right,0,78,80,39.0,0.739583,DottedEighth,F#5
127,Left,1,62,80,39.5,0.489583,Eighth,D4
128,Right,0,79,80,39.75,0.239583,Sixteenth,G5
130,Left,1,59,80,40.0,0.489583,Eighth,G3_B3
129,Right,0,79,80,40.0,1.989583,Half,G5
132,Left,1,62,80,40.5,0.489583,Eighth,D4
133,Left,1,50,80,41.0,0.489583,Eighth,D3
134,Left,1,62,80,41.5,0.489583,Eighth,D4
136,Left,1,59,80,42.0,0.489583,Eighth,G3_B3
135,Right,0,79,80,42.0,0.739583,DottedEighth,G5
138,Left,1,62,80,42.5,0.489583,Eighth,D4
139,Right,0,83,80,42.75,0.239583,Sixteenth,B5
140,Right,0,86,80,43.0,1.489583,DottedQuarter,D6
141,Left,1,57,80,43.0,0.489583,Eighth,F#3_A3
143,Left,1,62,80,43.5,0.489583,Eighth,D4
144,Left,1,50,80,44.0,0.489583,Eighth,D3
146,Left,1,62,80,44.5,0.489583,Eighth,D4
145,Right,0,88,80,44.5,0.489583,Eighth,E6
147,Left,1,57,80,45.0,0.489583,Eighth,F#3_A3
149,Right,0,86,80,45.0,0.489583,Eighth,D6
151,Right,0,84,80,45.5,0.489583,Eighth,C6
150,Left,1,62,80,45.5,0.489583,Eighth,D4
153,Left,1,59,80,46.0,0.489583,Eighth,G3_B3
152,Right,0,83,80,46.0,0.989583,Quarter,B5
155,Left,1,62,80,46.5,0.489583,Eighth,D4
156,Left,1,50,80,47.0,0.489583,Eighth,D3
157,Right,0,79,80,47.0,0.489583,Eighth,G5
158,Left,1,62,80,47.5,0.489583,Eighth,D4
159,Right,0,79,80,48.0,0.739583,DottedEighth,G5
160,Left,1,55,80,48.0,0.489583,Eighth,G3_B3
162,Left,1,62,80,48.5,0.489583,Eighth,D4
163,Right,0,78,80,48.75,0.239583,Sixteenth,F#5
165,Left,1,60,80,49.0,0.489583,Eighth,C4_A3
164,Right,0,78,80,49.0,1.989583,Half,F#5
167,Left,1,62,81,49.5,0.489583,Eighth,D4
168,Left,1,50,83,50.0,0.489583,Eighth,D3
169,Left,1,62,85,50.5,0.489583,Eighth,D4
171,Right,0,78,86,51.0,0.739583,DottedEighth,F#5
170,Left,1,57,86,51.0,0.489583,Eighth,C4_A3
173,Left,1,62,88,51.5,0.489583,Eighth,D4
174,Right,0,79,89,51.75,0.239583,Sixteenth,G5
177,Right,0,79,90,52.0,1.989583,Half,G5
175,Left,1,55,90,52.0,0.489583,Eighth,G3_B3
178,Left,1,62,92,52.5,0.489583,Eighth,D4
179,Left,1,50,93,53.0,0.489583,Eighth,D3
180,Left,1,62,95,53.5,0.489583,Eighth,D4
183,Right,0,79,97,54.0,0.739583,DottedEighth,G5
181,Left,1,55,97,54.0,0.489583,Eighth,G3_B3
184,Left,1,62,99,54.5,0.489583,Eighth,D4
185,Right,0,83,99,54.75,0.239583,Sixteenth,B5
186,Right,0,86,100,55.0,0.989583,Quarter,D6
188,Left,1,60,103,56.0,0.989583,Quarter,D3_C4
187,Right,0,86,103,56.0,0.239583,Sixteenth,D6
190,Right,0,85,104,56.25,0.239583,Sixteenth,C#6
191,Right,0,86,105,56.5,0.239583,Sixteenth,D6
192,Right,0,85,106,56.75,0.239583,Sixteenth,C#6
195,Right,0,86,107,57.0,0.239583,Sixteenth,D6
193,Left,1,50,107,57.0,0.989583,Quarter,D3_C4
196,Right,0,84,108,57.25,0.239583,Sixteenth,C6
197,Right,0,83,109,57.5,0.239583,Sixteenth,B5
198,Right,0,81,110,57.75,0.239583,Sixteenth,A5
199,Right,0,79,110,58.0,0.989583,Quarter,G5
200,Left,1,55,110,58.0,0.989583,Quarter,G3_B3
202,Left,1,43,80,59.0,0.989583,Quarter,G2
203,Right,0,71,80,60.0,0.989583,Quarter,D5_B4
205,Right,0,76,80,61.0,0.989583,Quarter,G5_E5
207,Left,1,55,80,61.25,0.239583,Sixteenth,G3
208,Left,1,57,80,61.5,0.239583,Sixteenth,A3
209,Left,1,59,80,61.75,0.239583,Sixteenth,B3
210,Left,1,60,80,62.0,0.239583,Sixteenth,C4
211,Left,1,62,80,62.25,0.239583,Sixteenth,D4
212,Left,1,64,80,62.5,0.239583,Sixteenth,E4
213,Left,1,66,80,62.75,0.239583,Sixteenth,F#4
214,Left,1,67,80,63.0,0.489583,Eighth,G4
215,Right,0,78,80,63.0,0.989583,Quarter,F#5_D5
217,Left,1,67,80,63.5,0.489583,Eighth,G4
218,Right,0,72,80,64.0,0.989583,Quarter,E5_C5
220,Left,1,55,80,64.25,0.239583,Sixteenth,G3
221,Left,1,57,80,64.5,0.239583,Sixteenth,A3
222,Left,1,59,80,64.75,0.239583,Sixteenth,B3
223,Left,1,60,80,65.0,0.239583,Sixteenth,C4
224,Left,1,62,80,65.25,0.239583,Sixteenth,D4
225,Left,1,64,80,65.5,0.239583,Sixteenth,E4
226,Left,1,66,80,65.75,0.239583,Sixteenth,F#4
227,Right,0,74,80,66.0,0.989583,Quarter,D5_B4
229,Left,1,67,80,66.0,0.489583,Eighth,G4
230,Left,1,67,80,66.5,0.489583,Eighth,G4
231,Right,0,74,80,67.0,0.989583,Quarter,D5_C5
233,Left,1,66,80,67.0,0.489583,Eighth,F#4
234,Left,1,64,80,67.5,0.489583,Eighth,E4
235,Right,0,74,80,68.0,0.989583,Quarter,D5_C5
236,Left,1,66,80,68.0,0.489583,Eighth,F#4
238,Left,1,62,80,68.5,0.489583,Eighth,D4
240,Right,0,74,80,69.0,0.989583,Quarter,D5_C5
239,Left,1,64,80,69.0,0.489583,Eighth,E4
242,Left,1,66,80,69.5,0.489583,Eighth,F#4
244,Right,0,71,80,70.0,0.989583,Quarter,D5_B4
243,Left,1,67,80,70.0,0.489583,Eighth,G4
246,Left,1,62,80,70.5,0.489583,Eighth,D4
247,Left,1,64,80,71.0,0.489583,Eighth,E4
248,Left,1,66,80,71.5,0.489583,Eighth,F#4
249,Left,1,67,80,72.0,0.489583,Eighth,G4
250,Left,1,69,80,72.5,0.489583,Eighth,A4
251,Left,1,71,80,73.0,0.989583,Quarter,G4_B4
253,Right,0,74,80,73.25,0.239583,Sixteenth,D5
254,Right,0,76,80,73.5,0.239583,Sixteenth,E5
255,Right,0,78,80,73.75,0.239583,Sixteenth,F#5
256,Right,0,79,80,74.0,0.239583,Sixteenth,G5
257,Right,0,81,80,74.25,0.239583,Sixteenth,A5
258,Right,0,83,80,74.5,0.239583,Sixteenth,B5
259,Right,0,85,80,74.75,0.239583,Sixteenth,C#6
260,Right,0,86,80,75.0,0.489583,Eighth,D6
261,Left,1,66,80,75.0,0.989583,Quarter,F#4_A4
263,Right,0,86,80,75.5,0.489583,Eighth,D6
264,Left,1,67,80,76.0,0.989583,Quarter,G4_E4
266,Right,0,74,81,76.25,0.239583,Sixteenth,D5
267,Right,0,76,82,76.5,0.239583,Sixteenth,E5
268,Right,0,78,83,76.75,0.239583,Sixteenth,F#5
269,Right,0,79,85,77.0,0.239583,Sixteenth,G5
270,Right,0,81,86,77.25,0.239583,Sixteenth,A5
271,Right,0,83,87,77.5,0.239583,Sixteenth,B5
272,Right,0,85,89,77.75,0.239583,Sixteenth,C#6
274,Right,0,86,90,78.0,0.489583,Eighth,D6
273,Left,1,66,90,78.0,0.989583,Quarter,F#4_D4
276,Right,0,86,92,78.5,0.489583,Eighth,D6
277,Right,0,83,95,79.0,0.489583,Eighth,B5
278,Right,0,81,98,79.5,0.489583,Eighth,A5
279,Left,1,55,100,80.0,0.989583,Quarter,G3
280,Right,0,79,100,80.0,0.489583,Eighth,G5
281,Right,0,78,103,80.5,0.489583,Eighth,F#5
283,Left,1,56,105,81.0,0.989583,Quarter,G#3
282,Right,0,76,105,81.0,0.489583,Eighth,E5
284,Right,0,74,108,81.5,0.489583,Eighth,D5
285,Right,0,73,110,82.0,0.239583,Sixteenth,C#5
286,Left,1,57,110,82.0,0.239583,Sixteenth,A3
287,Right,0,81,110,82.25,1.239583,TiedQuarter-Sixteenth,A5
288,Left,1,61,110,82.25,0.239583,Sixteenth,C#4
289,Left,1,64,110,82.5,0.239583,Sixteenth,E4
290,Left,1,61,110,82.75,0.239583,Sixteenth,C#4
291,Left,1,57,110,83.0,0.239583,Sixteenth,A3
292,Left,1,61,110,83.25,0.239583,Sixteenth,C#4
293,Right,0,83,110,83.5,0.239583,Sixteenth,B5
294,Left,1,64,110,83.5,0.239583,Sixteenth,E4
296,Right,0,81,110,83.75,0.239583,Sixteenth,A5
295,Left,1,61,110,83.75,0.239583,Sixteenth,C#4
297,Left,1,57,110,84.0,0.239583,Sixteenth,A3
298,Right,0,79,110,84.0,0.489583,Eighth,G5
299,Left,1,61,110,84.25,0.239583,Sixteenth,C#4
301,Right,0,81,110,84.5,0.239583,Sixteenth,A5
300,Left,1,64,110,84.5,0.239583,Sixteenth,E4
303,Right,0,79,110,84.75,0.239583,Sixteenth,G5
302,Left,1,61,110,84.75,0.239583,Sixteenth,C#4
305,Right,0,78,110,85.0,0.489583,Eighth,F#5
304,Left,1,57,110,85.0,0.239583,Sixteenth,A3
306,Left,1,62,110,85.25,0.239583,Sixteenth,D4
308,Left,1,66,110,85.5,0.239583,Sixteenth,F#4
307,Right,0,79,110,85.5,0.239583,Sixteenth,G5
310,Left,1,62,110,85.75,0.239583,Sixteenth,D4
309,Right,0,78,110,85.75,0.239583,Sixteenth,F#5
311,Left,1,57,110,86.0,0.239583,Sixteenth,A3
312,Right,0,76,110,86.0,0.489583,Eighth,E5
313,Left,1,62,110,86.25,0.239583,Sixteenth,D4
314,Right,0,78,110,86.5,0.239583,Sixteenth,F#5
315,Left,1,66,110,86.5,0.239583,Sixteenth,F#4
316,Right,0,76,110,86.75,0.239583,Sixteenth,E5
317,Left,1,62,110,86.75,0.239583,Sixteenth,D4
319,Right,0,74,110,87.0,0.489583,Eighth,D5
318,Left,1,57,110,87.0,0.239583,Sixteenth,A3
320,Left,1,62,110,87.25,0.239583,Sixteenth,D4
321,Right,0,76,110,87.5,0.239583,Sixteenth,E5
322,Left,1,66,110,87.5,0.239583,Sixteenth,F#4
323,Right,0,74,110,87.75,0.239583,Sixteenth,D5
324,Left,1,62,110,87.75,0.239583,Sixteenth,D4
325,Left,1,57,110,88.0,0.239583,Sixteenth,A3
326,Right,0,73,110,88.0,0.989583,Quarter,C#5
327,Left,1,64,110,88.25,0.239583,Sixteenth,E4
328,Left,1,67,110,88.5,0.239583,Sixteenth,G4
329,Left,1,64,110,88.75,0.239583,Sixteenth,E4
330,Left,1,57,110,89.0,0.239583,Sixteenth,A3
331,Left,1,64,110,89.25,0.239583,Sixteenth,E4
332,Left,1,67,110,89.5,0.239583,Sixteenth,G4
333,Right,0,73,110,89.5,0.489583,Eighth,C#5
334,Left,1,64,110,89.75,0.239583,Sixteenth,E4
335,Left,1,57,110,90.0,0.239583,Sixteenth,A3
336,Right,0,74,110,90.0,0.239583,Sixteenth,D5
338,Left,1,64,110,90.25,0.239583,Sixteenth,E4
337,Right,0,73,110,90.25,0.239583,Sixteenth,C#5
339,Left,1,67,110,90.5,0.239583,Sixteenth,G4
340,Right,0,71,110,90.5,0.239583,Sixteenth,B4
342,Left,1,64,110,90.75,0.239583,Sixteenth,E4
341,Right,0,73,110,90.75,0.239583,Sixteenth,C#5
344,Left,1,57,110,91.0,0.239583,Sixteenth,A3
343,Right,0,74,110,91.0,0.989583,Quarter,D5
345,Left,1,62,110,91.25,0.239583,Sixteenth,D4
346,Left,1,66,110,91.5,0.239583,Sixteenth,F#4
347,Left,1,62,110,91.75,0.239583,Sixteenth,D4
348,Left,1,57,110,92.0,0.239583,Sixteenth,A3
349,Left,1,62,110,92.25,0.239583,Sixteenth,D4
350,Left,1,66,110,92.5,0.239583,Sixteenth,F#4
351,Right,0,74,110,92.5,0.489583,Eighth,D5
352,Left,1,62,110,92.75,0.239583,Sixteenth,D4
353,Left,1,57,110,93.0,0.239583,Sixteenth,A3
354,Right,0,76,110,93.0,0.239583,Sixteenth,E5
355,Left,1,62,110,93.25,0.239583,Sixteenth,D4
356,Right,0,74,110,93.25,0.239583,Sixteenth,D5
358,Left,1,66,110,93.5,0.239583,Sixteenth,F#4
357,Right,0,73,110,93.5,0.239583,Sixteenth,C#5
359,Left,1,62,110,93.75,0.239583,Sixteenth,D4
360,Right,0,74,110,93.75,0.239583,Sixteenth,D5
362,Left,1,57,110,94.0,0.239583,Sixteenth,A3
361,Right,0,81,110,94.0,1.489583,DottedQuarter,A5
363,Left,1,61,110,94.25,0.239583,Sixteenth,C#4
364,Left,1,64,110,94.5,0.239583,Sixteenth,E4
365,Left,1,61,110,94.75,0.239583,Sixteenth,C#4
366,Left,1,57,110,95.0,0.239583,Sixteenth,A3
367,Left,1,61,110,95.25,0.239583,Sixteenth,C#4
368,Right,0,83,110,95.5,0.239583,Sixteenth,B5
369,Left,1,64,110,95.5,0.239583,Sixteenth,E4
370,Right,0,81,110,95.75,0.239583,Sixteenth,A5
371,Left,1,61,110,95.75,0.239583,Sixteenth,C#4
373,Right,0,79,110,96.0,0.489583,Eighth,G5
372,Left,1,57,110,96.0,0.239583,Sixteenth,A3
374,Left,1,61,110,96.25,0.239583,Sixteenth,C#4
375,Right,0,81,110,96.5,0.239583,Sixteenth,A5
376,Left,1,64,110,96.5,0.239583,Sixteenth,E4
377,Left,1,61,110,96.75,0.239583,Sixteenth,C#4
378,Right,0,79,110,96.75,0.239583,Sixteenth,G5
379,Left,1,57,110,97.0,0.239583,Sixteenth,A3
380,Right,0,78,110,97.0,0.489583,Eighth,F#5
381,Left,1,62,110,97.25,0.239583,Sixteenth,D4
383,Left,1,66,110,97.5,0.239583,Sixteenth,F#4
382,Right,0,79,110,97.5,0.239583,Sixteenth,G5
385,Left,1,62,110,97.75,0.239583,Sixteenth,D4
384,Right,0,78,110,97.75,0.239583,Sixteenth,F#5
386,Right,0,76,110,98.0,0.489583,Eighth,E5
387,Left,1,57,110,98.0,0.239583,Sixteenth,A3
388,Left,1,62,110,98.25,0.239583,Sixteenth,D4
389,Left,1,66,110,98.5,0.239583,Sixteenth,F#4
390,Right,0,78,110,98.5,0.239583,Sixteenth,F#5
392,Left,1,62,110,98.75,0.239583,Sixteenth,D4
391,Right,0,76,110,98.75,0.239583,Sixteenth,E5
393,Left,1,57,110,99.0,0.239583,Sixteenth,A3
394,Right,0,74,110,99.0,0.489583,Eighth,D5
395,Left,1,62,110,99.25,0.239583,Sixteenth,D4
396,Right,0,76,110,99.5,0.239583,Sixteenth,E5
397,Left,1,66,110,99.5,0.239583,Sixteenth,F#4
398,Left,1,62,110,99.75,0.239583,Sixteenth,D4
399,Right,0,74,110,99.75,0.239583,Sixteenth,D5
400,Right,0,73,110,100.0,0.989583,Quarter,C#5
401,Left,1,57,110,100.0,0.239583,Sixteenth,A3
402,Left,1,64,110,100.25,0.239583,Sixteenth,E4
403,Left,1,67,110,100.5,0.239583,Sixteenth,G4
404,Left,1,64,110,100.75,0.239583,Sixteenth,E4
405,Left,1,58,110,101.0,0.239583,Sixteenth,A#3
406,Left,1,64,110,101.25,0.239583,Sixteenth,E4
408,Right,0,73,110,101.5,0.489583,Eighth,C#5
407,Left,1,67,110,101.5,0.239583,Sixteenth,G4
409,Left,1,64,110,101.75,0.239583,Sixteenth,E4
410,Right,0,76,110,102.0,0.239583,Sixteenth,E5
411,Left,1,59,110,102.0,0.239583,Sixteenth,B3
413,Left,1,64,110,102.25,0.239583,Sixteenth,E4
412,Right,0,74,110,102.25,0.239583,Sixteenth,D5
414,Left,1,67,110,102.5,0.239583,Sixteenth,G4
415,Right,0,73,110,102.5,0.239583,Sixteenth,C#5
416,Right,0,74,110,102.75,0.239583,Sixteenth,D5
417,Left,1,64,110,102.75,0.239583,Sixteenth,E4
419,Right,0,76,110,103.0,0.739583,DottedEighth,E5
418,Left,1,55,110,103.0,0.489583,Eighth,G3
420,Left,1,67,110,103.5,0.489583,Eighth,G4
421,Right,0,79,110,103.75,0.239583,Sixteenth,G5
424,Right,0,74,110,104.0,0.989583,Quarter,D5
422,Left,1,67,110,104.0,0.989583,Quarter,G4_A3
425,Right,0,73,110,105.0,0.989583,Quarter,C#5
426,Left,1,64,110,105.0,0.989583,Quarter,E4_A3
429,Left,1,62,110,106.0,0.989583,Quarter,F#4_D4
428,Right,0,74,110,106.0,0.489583,Eighth,D5
431,Right,0,76,110,106.5,0.239583,Sixteenth,E5
432,Right,0,78,110,106.75,0.239583,Sixteenth,F#5
433,Right,0,79,110,107.0,0.239583,Sixteenth,G5
434,Right,0,81,110,107.25,0.239583,Sixteenth,A5
435,Right,0,83,110,107.5,0.239583,Sixteenth,B5
436,Right,0,85,110,107.75,0.239583,Sixteenth,C#6
437,Right,0,86,110,108.0,0.489583,Eighth,D6
438,Right,0,86,110,108.5,0.489583,Eighth,D6
439,Right,0,86,110,109.0,0.489583,Eighth,D6
440,Right,0,81,110,109.5,0.489583,Eighth,A5
441,Right,0,81,110,110.0,0.489583,Eighth,A5
442,Right,0,78,110,110.5,0.489583,Eighth,F#5
443,Right,0,78,110,111.0,0.489583,Eighth,F#5
444,Right,0,74,110,111.5,0.489583,Eighth,D5
445,Right,0,74,110,112.0,1.989583,Half,D5
446,Left,1,57,110,113.0,0.989583,Quarter,F#4_A3
450,Right,0,76,110,114.0,0.739583,DottedEighth,E5
448,Left,1,67,110,114.0,0.989583,Quarter,G4_A3
451,Right,0,73,110,114.75,0.239583,Sixteenth,C#5
454,Right,0,74,110,115.0,0.489583,Eighth,D5
452,Left,1,66,110,115.0,0.989583,Quarter,F#4_D4
455,Right,0,76,80,115.5,0.239583,Sixteenth,E5
456,Right,0,78,80,115.75,0.239583,Sixteenth,F#5
457,Right,0,79,80,116.0,0.239583,Sixteenth,G5
458,Right,0,81,80,116.25,0.239583,Sixteenth,A5
459,Right,0,83,80,116.5,0.239583,Sixteenth,B5
460,Right,0,85,80,116.75,0.239583,Sixteenth,C#6
461,Right,0,86,80,117.0,0.489583,Eighth,D6
462,Right,0,86,80,117.5,0.489583,Eighth,D6
463,Right,0,86,80,118.0,0.322917,Triplet,D6
464,Right,0,81,80,118.333333,0.322917,Triplet,A5
465,Right,0,81,80,118.666667,0.322917,Triplet,A5
466,Right,0,81,80,119.0,0.322917,Triplet,A5
467,Right,0,78,80,119.333333,0.322917,Triplet,F#5
468,Right,0,78,80,119.666667,0.322917,Triplet,F#5
469,Right,0,78,80,120.0,0.322917,Triplet,F#5
470,Right,0,74,80,120.333333,0.322917,Triplet,D5
471,Right,0,74,80,120.666667,0.322917,Triplet,D5
472,Right,0,74,80,121.0,1.989583,Half,D5
473,Left,1,66,80,122.0,0.989583,Quarter,F#4_A3
475,Left,1,57,80,123.0,0.989583,Quarter,G4_A3
477,Right,0,76,80,123.0,0.739583,DottedEighth,E5
478,Right,0,73,80,123.75,0.239583,Sixteenth,C#5
479,Left,1,66,80,124.0,0.989583,Quarter,F#4_D4
481,Right,0,74,80,124.0,0.739583,DottedEighth,D5
482,Right,0,74,80,124.75,0.239583,Sixteenth,D5
483,Right,0,73,80,125.0,0.739583,DottedEighth,C#5
484,Right,0,74,80,125.75,0.239583,Sixteenth,D5
486,Left,1,66,80,126.0,0.989583,Quarter,F#4_D4
485,Right,0,72,80,126.0,0.739583,DottedEighth,C5
488,Right,0,74,80,126.75,0.239583,Sixteenth,D5
489,Left,1,67,80,127.0,0.989583,Quarter,G4_D4
491,Right,0,71,80,127.0,0.739583,DottedEighth,B4
492,Right,0,74,80,127.75,0.239583,Sixteenth,D5
493,Right,0,71,80,128.0,0.739583,DottedEighth,B4
494,Right,0,74,80,128.75,0.239583,Sixteenth,D5
495,Right,0,73,80,129.0,0.739583,DottedEighth,C#5
496,Left,1,64,80,129.0,0.989583,Quarter,E4_D4
498,Right,0,76,80,129.75,0.239583,Sixteenth,E5
500,Left,1,62,80,130.0,0.989583,Quarter,F#4_D4
499,Right,0,74,80,130.0,0.739583,DottedEighth,D5
502,Right,0,74,80,130.75,0.239583,Sixteenth,D5
503,Right,0,73,80,131.0,0.739583,DottedEighth,C#5
504,Right,0,74,80,131.75,0.239583,Sixteenth,D5
506,Right,0,72,80,132.0,0.739583,DottedEighth,C5
505,Left,1,66,80,132.0,0.989583,Quarter,F#4_D4
508,Right,0,74,80,132.75,0.239583,Sixteenth,D5
510,Right,0,71,80,133.0,0.739583,DottedEighth,B4
509,Left,1,67,80,133.0,0.989583,Quarter,G4_D4
512,Right,0,74,80,133.75,0.239583,Sixteenth,D5
513,Right,0,71,80,134.0,0.739583,DottedEighth,B4
514,Right,0,74,80,134.75,0.239583,Sixteenth,D5
516,Left,1,62,80,135.0,0.989583,Quarter,E4_D4
515,Right,0,73,80,135.0,0.739583,DottedEighth,C#5
518,Right,0,76,80,135.75,0.239583,Sixteenth,E5
519,Right,0,74,80,136.0,0.739583,DottedEighth,D5
520,Left,1,66,80,136.0,0.989583,Quarter,F#4_D4
522,Right,0,74,79,136.75,0.239583,Sixteenth,D5
523,Right,0,73,78,137.0,0.739583,DottedEighth,C#5
524,Right,0,74,77,137.75,0.239583,Sixteenth,D5
525,Right,0,72,76,138.0,0.739583,DottedEighth,C5
526,Right,0,74,75,138.75,0.239583,Sixteenth,D5
527,Right,0,71,74,139.0,0.739583,DottedEighth,B4
528,Right,0,74,73,139.75,0.239583,Sixteenth,D5
529,Right,0,69,72,140.0,0.739583,DottedEighth,A4
530,Right,0,74,71,140.75,0.239583,Sixteenth,D5
531,Right,0,67,80,141.0,0.739583,DottedEighth,G4
532,Left,1,59,80,141.0,0.489583,Eighth,G3_B3
534,Left,1,62,80,141.5,0.489583,Eighth,D4
535,Right,0,66,80,141.75,0.239583,Sixteenth,F#4
537,Right,0,66,80,142.0,1.989583,Half,F#4
536,Left,1,60,80,142.0,0.489583,Eighth,C4_A3
539,Left,1,62,80,142.5,0.489583,Eighth,D4
540,Left,1,50,80,143.0,0.489583,Eighth,D3
541,Left,1,62,80,143.5,0.489583,Eighth,D4
542,Right,0,66,80,144.0,0.739583,DottedEighth,F#4
543,Left,1,57,80,144.0,0.489583,Eighth,C4_A3
545,Left,1,62,80,144.5,0.489583,Eighth,D4
546,Right,0,67,80,144.75,0.239583,Sixteenth,G4
548,Right,0,67,80,145.0,1.989583,Half,G4
547,Left,1,55,80,145.0,0.489583,Eighth,G3_B3
550,Left,1,62,80,145.5,0.489583,Eighth,D4
551,Left,1,50,80,146.0,0.489583,Eighth,D3
552,Left,1,62,80,146.5,0.489583,Eighth,D4
554,Left,1,59,80,147.0,0.489583,Eighth,G3_B3
553,Right,0,67,80,147.0,0.739583,DottedEighth,G4
556,Left,1,62,80,147.5,0.489583,Eighth,D4
557,Right,0,71,80,147.75,0.239583,Sixteenth,B4
558,Left,1,57,80,148.0,0.489583,Eighth,F#3_A3
560,Right,0,74,80,148.0,1.489583,DottedQuarter,D5
561,Left,1,62,80,148.5,0.489583,Eighth,D4
562,Left,1,50,80,149.0,0.489583,Eighth,D3
564,Left,1,62,80,149.5,0.489583,Eighth,D4
563,Right,0,76,80,149.5,0.489583,Eighth,E5
565,Left,1,57,80,150.0,0.489583,Eighth,F#3_A3
567,Right,0,74,80,150.0,0.489583,Eighth,D5
568,Right,0,72,80,150.5,0.489583,Eighth,C5
569,Left,1,62,80,150.5,0.489583,Eighth,D4
572,Right,0,71,80,151.0,0.989583,Quarter,B4
570,Left,1,55,80,151.0,0.489583,Eighth,G3_B3
573,Left,1,62,80,151.5,0.489583,Eighth,D4
574,Right,0,67,80,152.0,0.489583,Eighth,G4
575,Left,1,50,80,152.0,0.489583,Eighth,D3
576,Left,1,62,80,152.5,0.489583,Eighth,D4
578,Left,1,59,80,153.0,0.489583,Eighth,G3_B3
577,Right,0,67,80,153.0,0.739583,DottedEighth,G4
580,Left,1,62,80,153.5,0.489583,Eighth,D4
581,Right,0,66,80,153.75,0.239583,Sixteenth,F#4
582,Left,1,60,80,154.0,0.489583,Eighth,C4_A3
584,Right,0,66,80,154.0,1.989583,Half,F#4
585,Left,1,62,80,154.5,0.489583,Eighth,D4
586,Left,1,50,80,155.0,0.489583,Eighth,D3
587,Left,1,62,80,155.5,0.489583,Eighth,D4
589,Left,1,57,80,156.0,0.489583,Eighth,C4_A3
588,Right,0,66,80,156.0,0.739583,DottedEighth,F#4
591,Left,1,62,80,156.5,0.489583,Eighth,D4
592,Right,0,67,80,156.75,0.239583,Sixteenth,G4
593,Right,0,67,80,157.0,1.989583,Half,G4
594,Left,1,55,80,157.0,0.489583,Eighth,G3_B3
596,Left,1,62,80,157.5,0.489583,Eighth,D4
597,Left,1,50,80,158.0,0.489583,Eighth,D3
598,Left,1,62,80,158.5,0.489583,Eighth,D4
599,Right,0,67,80,159.0,0.739583,DottedEighth,G4
600,Left,1,55,80,159.0,0.489583,Eighth,G3_B3
602,Left,1,62,80,159.5,0.489583,Eighth,D4
603,Right,0,71,80,159.75,0.239583,Sixteenth,B4
604,Right,0,74,80,160.0,1.489583,DottedQuarter,D5
605,Left,1,50,80,161.0,0.989583,Quarter,D3_C4
607,Right,0,73,80,161.5,0.489583,Eighth,C#5
609,Left,1,50,80,162.0,0.989583,Quarter,D3_C4
608,Right,0,72,80,162.0,0.489583,Eighth,C5
611,Right,0,69,80,162.5,0.489583,Eighth,A4
612,Right,0,67,80,163.0,0.989583,Quarter,G4
613,Left,1,59,80,163.0,0.989583,Quarter,G3_B3
615,Left,1,43,80,164.0,0.989583,Quarter,G2
616,Right,0,71,80,165.0,0.739583,DottedEighth,B4
617,Right,0,71,80,165.75,0.239583,Sixteenth,B4
620,Right,0,71,80,166.0,0.989583,Quarter,B4
618,Left,1,66,80,166.0,0.989583,Quarter,F#4_D#4
623,Right,0,72,80,167.0,0.489583,Eighth,C5
621,Left,1,64,80,167.0,0.489583,Eighth,G4_E4
624,Right,0,72,80,168.0,0.739583,DottedEighth,C5
625,Right,0,72,80,168.75,0.239583,Sixteenth,C5
628,Right,0,72,80,169.0,0.989583,Quarter,C5
626,Left,1,64,80,169.0,0.989583,Quarter,G4_E4
629,Right,0,71,80,170.0,0.489583,Eighth,B4
630,Left,1,66,80,170.0,0.489583,Eighth,F#4_D4
632,Right,0,71,80,171.0,0.739583,DottedEighth,B4
633,Right,0,71,80,171.75,0.239583,Sixteenth,B4
634,Right,0,71,80,172.0,0.489583,Eighth,B4
635,Right,0,69,80,172.5,0.489583,Eighth,A4
637,Right,0,68,80,173.0,0.489583,Eighth,G#4
636,Left,1,60,80,173.0,0.989583,Quarter,C4
638,Right,0,69,80,173.5,0.489583,Eighth,A4
640,Left,1,60,80,174.0,0.989583,Quarter,C4
639,Right,0,75,80,174.0,0.489583,Eighth,D#5
641,Right,0,76,80,174.5,0.489583,Eighth,E5
642,Right,0,67,80,175.0,0.989583,Quarter,G4
643,Left,1,59,80,175.0,1.489583,Quarter,D3_B3
645,Right,0,66,80,176.0,0.489583,Eighth,F#4
646,Left,1,57,80,176.0,0.489583,Eighth,A3
647,Right,0,79,95,177.0,0.739583,DottedEighth,G5
648,Right,0,78,95,177.75,0.239583,Sixteenth,F#5
649,Right,0,78,95,178.0,1.989583,Half,F#5
650,Left,1,57,95,178.0,0.489583,Eighth,C4_A3
652,Left,1,62,95,178.5,0.489583,Eighth,D4
653,Left,1,50,95,179.0,0.489583,Eighth,D3
654,Left,1,62,95,179.5,0.489583,Eighth,D4
655,Left,1,60,95,180.0,0.489583,Eighth,C4_A3
656,Right,0,78,95,180.0,0.739583,DottedEighth,F#5
658,Left,1,62,95,180.5,0.489583,Eighth,D4
659,Right,0,79,95,180.75,0.239583,Sixteenth,G5
661,Right,0,79,95,181.0,1.989583,Half,G5
660,Left,1,55,95,181.0,0.489583,Eighth,G3_B3
663,Left,1,62,95,181.5,0.489583,Eighth,D4
664,Left,1,50,95,182.0,0.489583,Eighth,D3
665,Left,1,62,95,182.5,0.489583,Eighth,D4
667,Left,1,59,95,183.0,0.489583,Eighth,G3_B3
666,Right,0,79,95,183.0,0.739583,DottedEighth,G5
669,Left,1,62,95,183.5,0.489583,Eighth,D4
670,Right,0,83,95,183.75,0.239583,Sixteenth,B5
671,Left,1,54,95,184.0,0.489583,Eighth,F#3_A3
673,Right,0,86,95,184.0,1.489583,DottedQuarter,D6
674,Left,1,62,95,184.5,0.489583,Eighth,D4
675,Left,1,50,95,185.0,0.489583,Eighth,D3
676,Left,1,62,95,185.5,0.489583,Eighth,D4
677,Right,0,88,95,185.5,0.489583,Eighth,E6
678,Left,1,54,95,186.0,0.489583,Eighth,F#3_A3
680,Right,0,86,95,186.0,0.489583,Eighth,D6
681,Left,1,62,95,186.5,0.489583,Eighth,D4
682,Right,0,84,95,186.5,0.489583,Eighth,C6
683,Right,0,83,95,187.0,0.989583,Quarter,B5
684,Left,1,59,95,187.0,0.489583,Eighth,G3_B3
686,Left,1,62,95,187.5,0.489583,Eighth,D4
687,Right,0,79,95,188.0,0.489583,Eighth,G5
688,Left,1,50,95,188.0,0.489583,Eighth,D3
689,Left,1,62,95,188.5,0.489583,Eighth,D4
690,Left,1,59,95,189.0,0.489583,Eighth,G3_B3
691,Right,0,79,95,189.0,0.739583,DottedEighth,G5
693,Left,1,62,95,189.5,0.489583,Eighth,D4
694,Right,0,78,95,189.75,0.239583,Sixteenth,F#5
697,Right,0,78,95,190.0,1.989583,Half,F#5
695,Left,1,57,95,190.0,0.489583,Eighth,C4_A3
698,Left,1,62,95,190.5,0.489583,Eighth,D4
699,Left,1,50,95,191.0,0.489583,Eighth,D3
700,Left,1,62,95,191.5,0.489583,Eighth,D4
701,Left,1,57,95,192.0,0.489583,Eighth,C4_A3
703,Right,0,78,95,192.0,0.739583,DottedEighth,F#5
704,Left,1,62,95,192.5,0.489583,Eighth,D4
705,Right,0,79,95,192.75,0.239583,Sixteenth,G5
706,Left,1,55,95,193.0,0.489583,Eighth,G3_B3
707,Right,0,79,95,193.0,1.989583,Half,G5
709,Left,1,62,95,193.5,0.489583,Eighth,D4
710,Left,1,50,95,194.0,0.489583,Eighth,D3
711,Left,1,62,95,194.5,0.489583,Eighth,D4
713,Left,1,55,95,195.0,0.489583,Eighth,G3_B3
712,Right,0,79,95,195.0,0.739583,DottedEighth,G5
715,Left,1,62,95,195.5,0.489583,Eighth,D4
716,Right,0,83,95,195.75,0.239583,Sixteenth,B5
717,Right,0,86,95,196.0,0.989583,Quarter,D6
718,Right,0,86,95,197.0,0.239583,Sixteenth,D6
719,Left,1,60,95,197.0,0.989583,Quarter,D3_C4
721,Right,0,85,95,197.25,0.239583,Sixteenth,C#6
722,Right,0,86,95,197.5,0.239583,Sixteenth,D6
723,Right,0,85,95,197.75,0.239583,Sixteenth,C#6
725,Right,0,86,95,198.0,0.239583,Sixteenth,D6
724,Left,1,60,95,198.0,0.989583,Quarter,D3_C4
727,Right,0,84,95,198.25,0.239583,Sixteenth,C6
728,Right,0,83,95,198.5,0.239583,Sixteenth,B5
729,Right,0,81,95,198.75,0.239583,Sixteenth,A5
731,Left,1,55,95,199.0,0.989583,Quarter,G3_B3
730,Right,0,79,95,199.0,0.989583,Quarter,G5
733,Left,1,43,95,200.0,0.989583,Quarter,G2
734,Right,0,72,110,201.0,0.739583,DottedEighth,C5
735,Right,0,76,110,201.75,0.239583,Sixteenth,E5
737,Left,1,48,110,202.0,0.489583,Eighth,C3
736,Right,0,76,110,202.0,1.489583,DottedQuarter,G5_E5
739,Left,1,60,110,202.5,0.489583,Eighth,C4
740,Left,1,48,110,203.0,0.489583,Eighth,C3
741,Right,0,76,110,203.5,0.489583,Eighth,G4_E5
743,Left,1,60,110,203.5,0.489583,Eighth,C4
745,Left,1,48,110,204.0,0.489583,Eighth,C3
744,Right,0,77,110,204.0,0.489583,Eighth,F5_A4
748,Right,0,65,110,204.5,0.489583,Eighth,F4_D5
747,Left,1,60,110,204.5,0.489583,Eighth,C4
752,Left,1,48,110,205.0,0.489583,Eighth,C3
750,Right,0,72,110,205.0,0.989583,Quarter,E4_C5
753,Left,1,60,110,205.5,0.489583,Eighth,C4
756,Left,1,48,110,206.0,0.489583,Eighth,C3
754,Right,0,72,110,206.0,0.489583,Eighth,E4_C5
758,Left,1,60,110,206.5,0.489583,Eighth,C4
757,Right,0,67,110,206.5,0.489583,Eighth,G4
759,Right,0,72,110,207.0,0.489583,Eighth,C5
760,Left,1,48,110,207.0,0.489583,Eighth,C3
761,Right,0,76,110,207.5,0.489583,Eighth,E5
762,Left,1,60,110,207.5,0.489583,Eighth,C4
764,Right,0,76,110,208.0,1.489583,DottedQuarter,G5_E5
763,Left,1,48,110,208.0,0.489583,Eighth,C3
766,Left,1,60,110,208.5,0.489583,Eighth,C4
767,Left,1,48,110,209.0,0.489583,Eighth,C3
770,Left,1,60,110,209.5,0.489583,Eighth,C4
768,Right,0,67,110,209.5,0.489583,Eighth,G4_E5
771,Left,1,48,110,210.0,0.489583,Eighth,C3
772,Right,0,69,110,210.0,0.489583,Eighth,F5_A4
774,Left,1,60,110,210.5,0.489583,Eighth,C4
775,Right,0,65,110,210.5,0.489583,Eighth,F4_D5
777,Left,1,48,110,211.0,0.489583,Eighth,C3
778,Right,0,72,110,211.0,0.989583,Quarter,E4_C5
780,Left,1,60,110,211.5,0.489583,Eighth,C4
781,Left,1,48,110,212.0,0.489583,Eighth,C3
782,Right,0,72,80,212.5,0.489583,Eighth,C5
783,Right,0,71,80,213.0,0.489583,Eighth,B4
784,Right,0,72,80,213.5,0.489583,Eighth,C5
785,Right,0,74,80,214.0,0.489583,Eighth,D5
786,Right,0,71,80,214.5,0.489583,Eighth,B4
787,Left,1,59,80,215.0,0.989583,Quarter,G3_D4_B3
789,Right,0,67,80,215.0,0.489583,Eighth,G4
791,Right,0,74,80,215.5,0.489583,Eighth,D5
792,Right,0,72,80,216.0,0.489583,Eighth,C5
793,Right,0,74,80,216.5,0.489583,Eighth,D5
794,Right,0,76,80,217.0,0.489583,Eighth,E5
795,Right,0,72,80,217.5,0.489583,Eighth,C5
797,Left,1,60,80,218.0,0.989583,Quarter,E4_C4
796,Right,0,67,80,218.0,0.489583,Eighth,G4
799,Right,0,76,80,218.5,0.489583,Eighth,E5
800,Right,0,74,80,219.0,0.489583,Eighth,D5
801,Right,0,76,80,219.5,0.489583,Eighth,E5
802,Right,0,77,80,220.0,0.489583,Eighth,F5
803,Right,0,79,80,220.5,0.489583,Eighth,G5
804,Right,0,81,80,221.0,0.489583,Eighth,A5
806,Left,1,61,80,221.5,0.489583,Eighth,C#4
805,Right,0,76,80,221.5,0.489583,Eighth,E5
807,Right,0,77,80,222.0,0.489583,Eighth,F5
808,Left,1,62,80,222.0,0.489583,Eighth,D4
809,Right,0,74,80,222.5,0.489583,Eighth,D5
810,Left,1,65,80,222.5,0.489583,Eighth,F4
812,Left,1,64,80,223.0,1.489583,Quarter,G3_E4
811,Right,0,72,80,223.0,0.989583,Quarter,C5
814,Right,0,71,80,224.0,0.489583,Eighth,B4
815,Left,1,62,80,224.0,0.489583,Eighth,D4
816,Right,0,67,110,224.5,0.489583,Eighth,G4
817,Right,0,72,110,225.0,0.489583,Eighth,C5
818,Right,0,76,110,225.5,0.489583,Eighth,E5
819,Left,1,48,110,226.0,0.489583,Eighth,C3
820,Right,0,76,110,226.0,1.489583,DottedQuarter,G5_E5
822,Left,1,60,110,226.5,0.489583,Eighth,C4
823,Left,1,48,110,227.0,0.489583,Eighth,C3
825,Right,0,67,110,227.5,0.489583,Eighth,G4_E5
824,Left,1,60,110,227.5,0.489583,Eighth,C4
828,Right,0,77,110,228.0,0.489583,Eighth,F5_A4
827,Left,1,48,110,228.0,0.489583,Eighth,C3
830,Right,0,74,110,228.5,0.489583,Eighth,F4_D5
831,Left,1,60,110,228.5,0.489583,Eighth,C4
834,Right,0,72,110,229.0,0.989583,Quarter,E4_C5
833,Left,1,48,110,229.0,0.489583,Eighth,C3
836,Left,1,60,110,229.5,0.489583,Eighth,C4
838,Right,0,64,110,230.0,0.489583,Eighth,E4_C5
837,Left,1,48,110,230.0,0.489583,Eighth,C3
841,Right,0,67,110,230.5,0.489583,Eighth,G4
840,Left,1,60,110,230.5,0.489583,Eighth,C4
842,Left,1,48,110,231.0,0.489583,Eighth,C3
843,Right,0,72,110,231.0,0.489583,Eighth,C5
845,Left,1,60,110,231.5,0.489583,Eighth,C4
844,Right,0,76,110,231.5,0.489583,Eighth,E5
847,Left,1,48,110,232.0,0.489583,Eighth,C3
846,Right,0,79,110,232.0,1.489583,DottedQuarter,G5_E5
849,Left,1,60,110,232.5,0.489583,Eighth,C4
850,Left,1,48,110,233.0,0.489583,Eighth,C3
851,Right,0,76,110,233.5,0.489583,Eighth,G4_E5
852,Left,1,60,110,233.5,0.489583,Eighth,C4
855,Left,1,48,110,234.0,0.489583,Eighth,C3
854,Right,0,77,110,234.0,0.489583,Eighth,F5_A4
859,Left,1,60,110,234.5,0.489583,Eighth,C4
857,Right,0,74,110,234.5,0.489583,Eighth,F4_D5
860,Right,0,72,110,235.0,0.989583,Quarter,E4_C5
862,Left,1,48,110,235.0,0.489583,Eighth,C3
863,Left,1,60,110,235.5,0.489583,Eighth,C4
864,Left,1,48,110,236.0,0.489583,Eighth,C3
865,Right,0,72,80,236.5,0.489583,Eighth,C5
866,Right,0,71,80,237.0,0.489583,Eighth,B4
867,Right,0,72,80,237.5,0.489583,Eighth,C5
868,Right,0,74,80,238.0,0.489583,Eighth,D5
869,Right,0,71,80,238.5,0.489583,Eighth,B4
870,Left,1,62,80,239.0,0.989583,Quarter,G3_D4_B3
871,Right,0,67,80,239.0,0.489583,Eighth,G4
874,Right,0,74,80,239.5,0.489583,Eighth,D5
875,Right,0,72,80,240.0,0.489583,Eighth,C5
876,Right,0,74,80,240.5,0.489583,Eighth,D5
877,Right,0,76,80,241.0,0.489583,Eighth,E5
878,Right,0,72,80,241.5,0.489583,Eighth,C5
881,Right,0,67,80,242.0,0.489583,Eighth,G4
879,Left,1,64,80,242.0,0.989583,Quarter,E4_C4
882,Right,0,76,80,242.5,0.489583,Eighth,E5
883,Right,0,74,80,243.0,0.489583,Eighth,D5
884,Right,0,76,80,243.5,0.489583,Eighth,E5
885,Right,0,78,80,244.0,0.489583,Eighth,F#5
886,Right,0,72,80,244.5,0.489583,Eighth,C5
887,Left,1,60,80,245.0,0.989583,Quarter,D4_C4
889,Right,0,69,80,245.0,0.489583,Eighth,A4
890,Right,0,78,80,245.5,0.489583,Eighth,F#5
891,Right,0,76,80,246.0,0.489583,Eighth,E5
892,Right,0,78,80,246.5,0.489583,Eighth,F#5
893,Right,0,79,80,247.0,0.489583,Eighth,G5
894,Right,0,74,80,247.5,0.489583,Eighth,D5
895,Left,1,62,80,248.0,0.989583,Quarter,D4_B3
896,Right,0,71,80,248.0,0.489583,Eighth,B4
898,Right,0,79,80,248.5,0.489583,Eighth,G5
899,Right,0,81,80,249.0,0.489583,Eighth,A5
900,Right,0,83,80,249.5,0.489583,Eighth,B5
901,Right,0,84,80,250.0,0.489583,Eighth,C6
902,Right,0,83,80,250.5,0.489583,Eighth,B5
903,Right,0,81,80,251.0,0.489583,Eighth,A5
904,Right,0,79,80,251.5,0.489583,Eighth,G5
905,Right,0,78,80,252.0,0.489583,Eighth,F#5
906,Right,0,76,80,252.5,0.489583,Eighth,E5
907,Right,0,74,80,253.0,0.489583,Eighth,D5
908,Right,0,72,80,253.5,0.489583,Eighth,C5
909,Right,0,71,80,254.0,0.489583,Eighth,B4
910,Right,0,69,80,254.5,0.489583,Eighth,A4
911,Right,0,67,80,255.0,0.489583,Eighth,G4
912,Right,0,66,80,255.5,0.489583,Eighth,F#4
913,Right,0,64,80,256.0,0.489583,Eighth,E4
914,Right,0,62,80,256.5,0.489583,Eighth,D4
915,Left,1,61,70,257.0,0.489583,Eighth,C#4
916,Left,1,62,70,257.5,0.489583,Eighth,D4
917,Left,1,61,70,258.0,0.489583,Eighth,C#4
918,Left,1,62,70,258.5,0.489583,Eighth,D4
919,Left,1,60,70,259.0,0.489583,Eighth,C4
920,Left,1,62,70,259.5,0.489583,Eighth,D4
921,Left,1,60,70,260.0,0.489583,Eighth,C4
922,Left,1,62,70,260.5,0.489583,Eighth,D4
923,Left,1,55,80,261.0,0.489583,Eighth,G3_B3
925,Right,0,67,80,261.0,0.739583,DottedEighth,G4
926,Left,1,62,80,261.5,0.489583,Eighth,D4
927,Right,0,66,80,261.75,0.239583,Sixteenth,F#4
928,Left,1,60,80,262.0,0.489583,Eighth,C4_A3
930,Right,0,66,80,262.0,1.989583,Half,F#4
931,Left,1,62,80,262.5,0.489583,Eighth,D4
932,Left,1,50,80,263.0,0.489583,Eighth,D3
933,Left,1,62,80,263.5,0.489583,Eighth,D4
936,Right,0,66,80,264.0,0.739583,DottedEighth,F#4
934,Left,1,60,80,264.0,0.489583,Eighth,C4_A3
937,Left,1,62,80,264.5,0.489583,Eighth,D4
938,Right,0,67,80,264.75,0.239583,Sixteenth,G4
939,Left,1,59,80,265.0,0.489583,Eighth,G3_B3
940,Right,0,67,80,265.0,1.989583,Half,G4
942,Left,1,62,80,265.5,0.489583,Eighth,D4
943,Left,1,50,80,266.0,0.489583,Eighth,D3
944,Left,1,62,80,266.5,0.489583,Eighth,D4
947,Right,0,67,80,267.0,0.739583,DottedEighth,G4
945,Left,1,55,80,267.0,0.489583,Eighth,G3_B3
948,Left,1,62,80,267.5,0.489583,Eighth,D4
949,Right,0,71,80,267.75,0.239583,Sixteenth,B4
950,Right,0,74,80,268.0,1.489583,DottedQuarter,D5
951,Left,1,57,80,268.0,0.489583,Eighth,F#3_A3
953,Left,1,62,80,268.5,0.489583,Eighth,D4
954,Left,1,50,80,269.0,0.489583,Eighth,D3
955,Right,0,76,80,269.5,0.489583,Eighth,E5
956,Left,1,62,80,269.5,0.489583,Eighth,D4
957,Left,1,57,80,270.0,0.489583,Eighth,F#3_A3
959,Right,0,74,80,270.0,0.489583,Eighth,D5
961,Left,1,62,80,270.5,0.489583,Eighth,D4
960,Right,0,72,80,270.5,0.489583,Eighth,C5
962,Right,0,71,80,271.0,0.989583,Quarter,B4
963,Left,1,59,80,271.0,0.489583,Eighth,G3_B3
965,Left,1,62,80,271.5,0.489583,Eighth,D4
966,Right,0,67,80,272.0,0.489583,Eighth,G4
967,Left,1,50,80,272.0,0.489583,Eighth,D3
968,Left,1,62,80,272.5,0.489583,Eighth,D4
969,Left,1,59,80,273.0,0.489583,Eighth,G3_B3
971,Right,0,67,80,273.0,0.739583,DottedEighth,G4
972,Left,1,62,80,273.5,0.489583,Eighth,D4
973,Right,0,66,80,273.75,0.239583,Sixteenth,F#4
974,Left,1,57,80,274.0,0.489583,Eighth,C4_A3
976,Right,0,66,80,274.0,1.989583,Half,F#4
977,Left,1,62,80,274.5,0.489583,Eighth,D4
978,Left,1,50,80,275.0,0.489583,Eighth,D3
979,Left,1,62,80,275.5,0.489583,Eighth,D4
981,Right,0,66,80,276.0,0.739583,DottedEighth,F#4
980,Left,1,57,80,276.0,0.489583,Eighth,C4_A3
983,Left,1,62,80,276.5,0.489583,Eighth,D4
984,Right,0,67,80,276.75,0.239583,Sixteenth,G4
987,Right,0,67,80,277.0,1.989583,Half,G4
985,Left,1,59,80,277.0,0.489583,Eighth,G3_B3
988,Left,1,62,80,277.5,0.489583,Eighth,D4
989,Left,1,50,80,278.0,0.489583,Eighth,D3
990,Left,1,62,80,278.5,0.489583,Eighth,D4
992,Left,1,59,80,279.0,0.489583,Eighth,G3_B3
991,Right,0,67,80,279.0,0.739583,DottedEighth,G4
994,Left,1,62,80,279.5,0.489583,Eighth,D4
995,Right,0,71,80,279.75,0.239583,Sixteenth,B4
996,Right,0,74,80,280.0,1.489583,DottedQuarter,D5
997,Left,1,50,80,281.0,0.989583,Quarter,D3_C4
999,Right,0,73,80,281.5,0.489583,Eighth,C#5
1001,Right,0,72,80,282.0,0.489583,Eighth,C5
1000,Left,1,60,80,282.0,0.989583,Quarter,D3_C4
1003,Right,0,69,80,282.5,0.489583,Eighth,A4
1004,Right,0,67,80,283.0,0.989583,Quarter,G4
1005,Left,1,59,80,283.0,0.989583,Quarter,G3_B3
1007,Left,1,43,80,284.0,0.989583,Quarter,G2
1008,Right,0,71,80,285.0,0.739583,DottedEighth,B4
1009,Right,0,71,80,285.75,0.239583,Sixteenth,B4
1012,Right,0,71,80,286.0,0.989583,Quarter,B4
1010,Left,1,63,80,286.0,0.989583,Quarter,F#4_D#4
1015,Right,0,72,80,287.0,0.489583,Eighth,C5
1013,Left,1,64,80,287.0,0.489583,Eighth,G4_E4
1016,Right,0,72,80,288.0,0.739583,DottedEighth,C5
1017,Right,0,72,80,288.75,0.239583,Sixteenth,C5
1018,Left,1,64,80,289.0,0.989583,Quarter,G4_E4
1019,Right,0,72,80,289.0,0.989583,Quarter,C5
1021,Right,0,71,80,290.0,0.489583,Eighth,B4
1022,Left,1,62,80,290.0,0.489583,Eighth,F#4_D4
1024,Right,0,71,80,291.0,0.739583,DottedEighth,B4
1025,Right,0,71,80,291.75,0.239583,Sixteenth,B4
1026,Right,0,71,80,292.0,0.489583,Eighth,B4
1027,Right,0,69,80,292.5,0.489583,Eighth,A4
1029,Right,0,68,80,293.0,0.489583,Eighth,G#4
1028,Left,1,60,80,293.0,0.989583,Quarter,C4
1030,Right,0,69,80,293.5,0.489583,Eighth,A4
1031,Left,1,60,80,294.0,0.989583,Quarter,C4
1032,Right,0,75,80,294.0,0.489583,Eighth,D#5
1033,Right,0,76,80,294.5,0.489583,Eighth,E5
1036,Right,0,67,80,295.0,0.989583,Quarter,G4
1034,Left,1,59,80,295.0,1.489583,Quarter,D3_B3
1038,Left,1,57,80,296.0,0.489583,Eighth,A3
1037,Right,0,66,80,296.0,0.489583,Eighth,F#4
1039,Left,1,55,95,297.0,0.489583,Eighth,G3_B3
1040,Right,0,79,95,297.0,0.739583,DottedEighth,G5
1042,Left,1,62,95,297.5,0.489583,Eighth,D4
1043,Right,0,78,95,297.75,0.239583,Sixteenth,F#5
1044,Right,0,78,95,298.0,1.989583,Half,F#5
1045,Left,1,57,95,298.0,0.489583,Eighth,C4_A3
1047,Left,1,62,95,298.5,0.489583,Eighth,D4
1048,Left,1,50,95,299.0,0.489583,Eighth,D3
1049,Left,1,62,95,299.5,0.489583,Eighth,D4
1052,Right,0,78,95,300.0,0.739583,DottedEighth,F#5
1050,Left,1,57,95,300.0,0.489583,Eighth,C4_A3
1053,Left,1,62,95,300.5,0.489583,Eighth,D4
1054,Right,0,79,95,300.75,0.239583,Sixteenth,G5
1055,Right,0,79,95,301.0,1.989583,Half,G5
1056,Left,1,59,95,301.0,0.489583,Eighth,G3_B3
1058,Left,1,62,95,301.5,0.489583,Eighth,D4
1059,Left,1,50,95,302.0,0.489583,Eighth,D3
1060,Left,1,62,95,302.5,0.489583,Eighth,D4
1061,Left,1,59,95,303.0,0.489583,Eighth,G3_B3
1063,Right,0,79,95,303.0,0.739583,DottedEighth,G5
1064,Left,1,62,95,303.5,0.489583,Eighth,D4
1065,Right,0,83,95,303.75,0.239583,Sixteenth,B5
1068,Right,0,86,95,304.0,1.489583,DottedQuarter,D6
1066,Left,1,57,95,304.0,0.489583,Eighth,F#3_A3
1069,Left,1,62,95,304.5,0.489583,Eighth,D4
1070,Left,1,50,95,305.0,0.489583,Eighth,D3
1071,Left,1,62,95,305.5,0.489583,Eighth,D4
1072,Right,0,88,95,305.5,0.489583,Eighth,E6
1073,Left,1,54,95,306.0,0.489583,Eighth,F#3_A3
1075,Right,0,86,95,306.0,0.489583,Eighth,D6
1077,Left,1,62,95,306.5,0.489583,Eighth,D4
1076,Right,0,84,95,306.5,0.489583,Eighth,C6
1078,Right,0,83,95,307.0,0.989583,Quarter,B5
1079,Left,1,55,95,307.0,0.489583,Eighth,G3_B3
1081,Left,1,62,95,307.5,0.489583,Eighth,D4
1083,Left,1,50,95,308.0,0.489583,Eighth,D3
1082,Right,0,79,95,308.0,0.489583,Eighth,G5
1084,Left,1,62,95,308.5,0.489583,Eighth,D4
1086,Left,1,55,95,309.0,0.489583,Eighth,G3_B3
1085,Right,0,79,95,309.0,0.739583,DottedEighth,G5
1088,Left,1,62,95,309.5,0.489583,Eighth,D4
1089,Right,0,78,95,309.75,0.239583,Sixteenth,F#5
1090,Right,0,78,95,310.0,1.989583,Half,F#5
1091,Left,1,60,95,310.0,0.489583,Eighth,C4_A3
1093,Left,1,62,95,310.5,0.489583,Eighth,D4
1094,Left,1,50,95,311.0,0.489583,Eighth,D3
1095,Left,1,62,95,311.5,0.489583,Eighth,D4
1096,Right,0,78,95,312.0,0.739583,DottedEighth,F#5
1097,Left,1,60,95,312.0,0.489583,Eighth,C4_A3
1099,Left,1,62,95,312.5,0.489583,Eighth,D4
1100,Right,0,79,95,312.75,0.239583,Sixteenth,G5
1101,Left,1,59,95,313.0,0.489583,Eighth,G3_B3
1103,Right,0,79,95,313.0,1.989583,Half,G5
1104,Left,1,62,95,313.5,0.489583,Eighth,D4
1105,Left,1,50,95,314.0,0.489583,Eighth,D3
1106,Left,1,62,95,314.5,0.489583,Eighth,D4
1107,Left,1,55,95,315.0,0.489583,Eighth,G3_B3
1109,Right,0,79,95,315.0,0.739583,DottedEighth,G5
1110,Left,1,62,95,315.5,0.489583,Eighth,D4
1111,Right,0,83,95,315.75,0.239583,Sixteenth,B5
1112,Right,0,86,110,316.0,0.989583,Quarter,D6
1113,Left,1,50,110,317.0,0.989583,Quarter,D3_C4
1114,Right,0,86,110,317.0,0.239583,Sixteenth,D6
1116,Right,0,85,110,317.25,0.239583,Sixteenth,C#6
1117,Right,0,86,110,317.5,0.239583,Sixteenth,D6
1118,Right,0,85,110,317.75,0.239583,Sixteenth,C#6
1119,Right,0,86,110,318.0,0.239583,Sixteenth,D6
1120,Left,1,50,110,318.0,0.989583,Quarter,D3_C4
1122,Right,0,84,110,318.25,0.239583,Sixteenth,C6
1123,Right,0,83,110,318.5,0.239583,Sixteenth,B5
1124,Right,0,81,110,318.75,0.239583,Sixteenth,A5
1127,Right,0,79,110,319.0,0.989583,Quarter,G5
1125,Left,1,59,110,319.0,0.989583,Quarter,G3_B3
1128,Left,1,43,110,320.0,0.989583,Quarter,G2
1129,Right,0,79,80,321.0,0.739583,DottedEighth,G5
1130,Right,0,77,80,321.75,0.239583,Sixteenth,F5
1131,Left,1,59,80,322.0,0.489583,Eighth,B3
1132,Right,0,77,80,322.0,0.989583,Quarter,F5
1133,Left,1,67,80,322.5,0.489583,Eighth,G4
1134,Left,1,62,80,323.0,0.489583,Eighth,D4
1135,Left,1,67,80,323.5,0.489583,Eighth,G4
1137,Right,0,77,80,324.0,0.739583,DottedEighth,F5
1136,Left,1,59,80,324.0,0.489583,Eighth,B3
1138,Left,1,67,80,324.5,0.489583,Eighth,G4
1139,Right,0,76,80,324.75,0.239583,Sixteenth,E5
1141,Right,0,76,80,325.0,0.989583,Quarter,E5
1140,Left,1,60,80,325.0,0.489583,Eighth,C4
1142,Left,1,64,80,325.5,0.489583,Eighth,E4
1143,Left,1,60,80,326.0,0.489583,Eighth,C4
1144,Left,1,64,80,326.5,0.489583,Eighth,E4
1146,Left,1,60,80,327.0,0.489583,Eighth,C4
1145,Right,0,76,80,327.0,0.739583,DottedEighth,E5
1147,Left,1,64,80,327.5,0.489583,Eighth,E4
1148,Right,0,74,80,327.75,0.239583,Sixteenth,D5
1150,Left,1,56,80,328.0,0.489583,Eighth,G#3
1149,Right,0,74,80,328.0,0.989583,Quarter,D5
1151,Left,1,64,80,328.5,0.489583,Eighth,E4
1152,Left,1,59,80,329.0,0.489583,Eighth,B3
1153,Left,1,64,80,329.5,0.489583,Eighth,E4
1155,Left,1,56,80,330.0,0.489583,Eighth,G#3
1154,Right,0,74,80,330.0,0.739583,DottedEighth,D5
1156,Left,1,64,80,330.5,0.489583,Eighth,E4
1157,Right,0,72,80,330.75,0.239583,Sixteenth,C5
1158,Right,0,72,80,331.0,0.989583,Quarter,C5
1159,Left,1,57,80,331.0,0.489583,Eighth,A3
1160,Left,1,64,80,331.5,0.489583,Eighth,E4
1161,Left,1,60,80,332.0,0.489583,Eighth,C4
1162,Left,1,64,80,332.5,0.489583,Eighth,E4
1163,Left,1,60,80,333.0,0.489583,Eighth,C4
1164,Right,0,72,80,333.0,0.739583,DottedEighth,C5
1165,Left,1,64,80,333.5,0.489583,Eighth,E4
1166,Right,0,69,80,333.75,0.239583,Sixteenth,A4
1167,Left,1,60,80,334.0,0.489583,Eighth,C4_A3
1169,Right,0,67,80,334.0,0.489583,Eighth,G4
1171,Right,0,66,80,334.5,0.489583,Eighth,F#4
1170,Left,1,62,80,334.5,0.489583,Eighth,D4
1173,Right,0,74,97,335.0,1.489583,DottedQuarter,D5
1172,Left,1,57,80,335.0,0.489583,Eighth,F#3_A3
1175,Left,1,62,80,335.5,0.489583,Eighth,D4
1176,Left,1,55,80,336.0,0.489583,Eighth,G3_B3
1179,Right,0,67,80,336.5,0.489583,Eighth,G4
1178,Left,1,62,80,336.5,0.489583,Eighth,D4
1182,Right,0,67,80,337.0,0.489583,Eighth,G4
1180,Left,1,60,80,337.0,0.489583,Eighth,C4_A3
1183,Right,0,66,80,337.5,0.489583,Eighth,F#4
1184,Left,1,62,80,337.5,0.489583,Eighth,D4
1185,Right,0,74,95,338.0,1.489583,DottedQuarter,D5
1186,Left,1,57,80,338.0,0.489583,Eighth,F#3_A3
1188,Left,1,62,80,338.5,0.489583,Eighth,D4
1189,Left,1,55,80,339.0,0.489583,Eighth,G3_B3
1191,Left,1,62,80,339.5,0.489583,Eighth,D4
1192,Right,0,71,80,339.5,0.489583,Eighth,B4
1193,Left,1,48,80,340.0,0.989583,Quarter,C3
1194,Right,0,69,81,340.5,0.239583,Sixteenth,A4
1195,Right,0,72,82,340.75,0.239583,Sixteenth,C5
1196,Left,1,50,83,341.0,0.989583,Quarter,D3
1197,Right,0,67,85,341.5,0.239583,Sixteenth,G4
1198,Right,0,71,86,341.75,0.239583,Sixteenth,B4
1199,Left,1,50,87,342.0,0.989583,Quarter,D3
1200,Right,0,66,89,342.5,0.239583,Sixteenth,F#4
1201,Right,0,69,89,342.75,0.239583,Sixteenth,A4
1202,Left,1,55,90,343.0,0.989583,Quarter,G3
1203,Right,0,67,91,343.25,0.239583,Sixteenth,G4
1204,Right,0,69,93,343.5,0.239583,Sixteenth,A4
1205,Right,0,71,95,343.75,0.239583,Sixteenth,B4
1206,Right,0,72,96,344.0,0.239583,Sixteenth,C5
1207,Right,0,74,98,344.25,0.239583,Sixteenth,D5
1208,Right,0,76,100,344.5,0.239583,Sixteenth,E5
1209,Right,0,78,102,344.75,0.239583,Sixteenth,F#5
1210,Right,0,79,103,345.0,0.239583,Sixteenth,G5
1211,Right,0,81,105,345.25,0.239583,Sixteenth,A5
1212,Left,1,71,107,345.5,0.489583,Eighth,G4_B4
1214,Right,0,83,107,345.5,0.239583,Sixteenth,B5
1215,Right,0,79,109,345.75,0.239583,Sixteenth,G5
1218,Right,0,78,110,346.0,0.489583,Eighth,F#5
1216,Left,1,69,110,346.0,0.489583,Eighth,C5_A4
1220,Left,1,74,110,346.5,0.489583,Eighth,D5
1219,Right,0,86,110,346.5,0.989583,Quarter,D6
1221,Left,1,69,110,347.0,0.489583,Eighth,F#4_A4
1224,Right,0,86,110,347.5,0.489583,Eighth,D6
1223,Left,1,74,110,347.5,0.489583,Eighth,D5
1227,Right,0,84,110,348.0,0.239583,Sixteenth,C6
1225,Left,1,71,110,348.0,0.489583,Eighth,G4_B4
1228,Right,0,83,110,348.25,0.239583,Sixteenth,B5
1229,Left,1,74,110,348.5,0.489583,Eighth,D5
1230,Right,0,81,110,348.5,0.239583,Sixteenth,A5
1231,Right,0,79,110,348.75,0.239583,Sixteenth,G5
1232,Left,1,72,110,349.0,0.489583,Eighth,C5_A4
1234,Right,0,78,110,349.0,0.239583,Sixteenth,F#5
1235,Right,0,86,110,349.25,0.239583,Sixteenth,D6
1237,Right,0,85,110,349.5,0.239583,Sixteenth,C#6
1236,Left,1,74,110,349.5,0.489583,Eighth,D5
1238,Right,0,86,110,349.75,0.239583,Sixteenth,D6
1239,Left,1,66,110,350.0,0.489583,Eighth,F#4_A4
1241,Right,0,85,110,350.0,0.239583,Sixteenth,C#6
1242,Right,0,86,110,350.25,0.239583,Sixteenth,D6
1244,Right,0,85,110,350.5,0.239583,Sixteenth,C#6
1243,Left,1,74,110,350.5,0.489583,Eighth,D5
1245,Right,0,86,110,350.75,0.239583,Sixteenth,D6
1246,Right,0,84,110,351.0,0.239583,Sixteenth,C6
1247,Left,1,71,110,351.0,0.489583,Eighth,G4_B4
1249,Right,0,83,110,351.25,0.239583,Sixteenth,B5
1250,Right,0,81,110,351.5,0.239583,Sixteenth,A5
1251,Left,1,74,110,351.5,0.489583,Eighth,D5
1252,Right,0,79,110,351.75,0.239583,Sixteenth,G5
1253,Right,0,87,110,352.0,0.239583,Sixteenth,D#6
1254,Left,1,60,110,352.0,0.989583,Quarter,C4
1255,Right,0,88,110,352.25,0.239583,Sixteenth,E6
1256,Right,0,87,110,352.5,0.239583,Sixteenth,D#6
1257,Right,0,88,110,352.75,0.239583,Sixteenth,E6
1259,Left,1,62,110,353.0,0.989583,Quarter,D4_B4
1258,Right,0,79,110,353.0,0.989583,Quarter,G5
1261,Left,1,72,110,354.0,0.989583,Quarter,D4_C5
1263,Right,0,83,110,354.0,0.239583,Sixteenth,B5
1264,Right,0,81,110,354.25,0.239583,Sixteenth,A5
1265,Right,0,79,110,354.5,0.239583,Sixteenth,G5
1266,Right,0,81,110,354.75,0.239583,Sixteenth,A5
1267,Left,1,71,110,355.0,0.989583,Quarter,G4_B4
1268,Right,0,79,110,355.0,0.989583,Quarter,G5
1272,Left,1,57,80,357.0,0.989583,Quarter,D3_A3
1270,Right,0,66,80,357.0,0.989583,Quarter,F#4_C4
1274,Left,1,43,80,358.0,1.989583,Half,G3_G2
1275,Right,0,67,80,358.0,1.989583,Half,G4_B3
