,hand,channel,note,velocity,start_beat,duration,note_value,chord
2,Left,1,52,80,0.0,8.979167,Quarter,E3_E2
0,Right,0,64,80,0.0,1.979167,Eighth,G#4_E4
4,Right,0,59,80,1.0,0.979167,Eighth,B3
7,Left,1,51,80,2.0,0.979167,Eighth,D#3
5,Right,0,69,80,2.0,0.979167,Eighth,F#4_A4
10,Left,1,50,80,3.0,1.979167,Quarter,D3
8,Right,0,68,80,3.0,1.979167,Eighth,G#4_B4
11,Right,0,64,80,4.0,0.979167,Eighth,E4
14,Left,1,49,80,5.0,0.979167,Eighth,C#3
12,Right,0,73,80,5.0,1.979167,Eighth,C#5_A4
15,Right,0,76,80,6.0,1.979167,Quarter,E5
16,Left,1,47,80,6.0,2.979167,DottedQuarter,B2
17,Right,0,66,80,7.0,0.979167,Eighth,F#4
18,Right,0,71,80,8.0,0.979167,Eighth,D5_B4
20,Left,1,40,80,9.0,1.979167,Quarter,E3_E2
22,Right,0,71,80,9.0,1.979167,Quarter,B4
23,Right,0,69,80,11.0,1.979167,Quarter,A4
24,Left,1,66,80,12.0,1.979167,Quarter,F#4
25,Right,0,81,80,12.0,1.979167,Quarter,A5
26,Right,0,69,80,13.0,2.979167,DottedQuarter,A4
27,Left,1,64,80,14.0,0.979167,Eighth,E4
28,Right,0,80,80,14.0,0.979167,Eighth,G#5
31,Right,0,78,80,15.0,1.979167,Quarter,F#5
29,Left,1,57,80,15.0,2.979167,DottedQuarter,D4_A3
32,Right,0,69,80,16.0,2.979167,DottedQuarter,A4
34,Left,1,61,80,17.0,0.979167,Eighth,C#4
33,Right,0,76,80,17.0,0.979167,Eighth,E5
35,Left,1,61,80,18.0,3.979167,Half,C#4_C#3
37,Right,0,78,80,18.0,1.979167,Quarter,F#5
38,Right,0,69,80,19.0,2.979167,DottedQuarter,A4
39,Left,1,50,80,20.0,0.979167,Eighth,D3
40,Right,0,76,80,20.0,1.979167,Quarter,E5
41,Left,1,52,80,21.0,2.979167,DottedQuarter,E3
42,Left,1,57,80,22.0,0.979167,Eighth,A3
43,Right,0,64,80,22.0,0.979167,Eighth,E4_C#5
45,Right,0,64,80,23.0,0.979167,Eighth,E4_B4
47,Left,1,56,80,23.0,0.979167,Eighth,G#3
48,Right,0,68,80,24.0,1.979167,Quarter,G#4_E4
50,Left,1,52,80,24.0,7.979167,Quarter,E3_E2
52,Right,0,59,80,25.0,0.979167,Eighth,B3
53,Left,1,51,80,26.0,0.979167,Eighth,D#3
54,Right,0,66,80,26.0,0.979167,Eighth,F#4_A4
57,Right,0,71,80,27.0,1.979167,Quarter,G#4_B4
56,Left,1,50,80,27.0,1.979167,Quarter,D3
59,Right,0,64,80,28.0,0.979167,Eighth,E4
60,Right,0,69,80,29.0,1.979167,Quarter,C#5_A4
62,Left,1,49,80,29.0,0.979167,Eighth,C#3
64,Right,0,76,80,30.0,1.979167,Quarter,E5
63,Left,1,47,80,30.0,0.979167,Eighth,B2
65,Right,0,68,80,31.0,0.979167,Eighth,G#4
66,Left,1,52,80,31.0,0.979167,Eighth,E3
69,Right,0,68,80,32.0,0.979167,Eighth,G#4_D5_B4
67,Left,1,53,80,32.0,0.979167,Eighth,F3_F2
72,Right,0,73,80,33.0,2.979167,DottedQuarter,C#5_A4
74,Left,1,42,80,33.0,2.979167,DottedQuarter,F#3_F#2
78,Right,0,69,80,36.0,1.979167,Eighth,C#5_A4
76,Left,1,42,80,36.0,2.979167,DottedQuarter,F#3_F#2
80,Right,0,63,81,37.0,0.979167,Eighth,D#4
81,Right,0,75,83,38.0,0.979167,Eighth,D#5_B4_A4
84,Right,0,76,85,39.0,1.979167,Quarter,E5_B4
85,Left,1,40,85,39.0,1.979167,Quarter,E3_E2
88,Right,0,64,87,40.0,0.979167,Eighth,E4
91,Right,0,66,89,41.0,0.979167,Eighth,F#5_F#4_B4
89,Left,1,51,89,41.0,0.979167,Eighth,D#3_D#2
96,Right,0,71,90,42.0,1.979167,Quarter,G#5_B4
94,Left,1,52,90,42.0,1.979167,Quarter,E3_E2
98,Right,0,68,92,43.0,0.979167,Eighth,G#4
99,Right,0,69,94,44.0,0.979167,Eighth,E5_A5_A4
100,Left,1,37,94,44.0,0.979167,Eighth,C#3_C#2
104,Left,1,44,96,45.0,1.979167,Quarter,G#2_G#1
106,Right,0,76,96,45.0,1.979167,Quarter,E5_B5
108,Right,0,71,98,46.0,0.979167,Eighth,B4
111,Right,0,84,99,47.0,0.979167,Eighth,F#5_D#5_C6
109,Left,1,32,99,47.0,0.979167,Eighth,G#2_G#1
114,Right,0,84,100,48.0,3.979167,DottedQuarter,F#5_D#5_C6
117,Left,1,32,100,48.0,2.979167,DottedQuarter,G#2_G#1
119,Left,1,33,100,51.0,2.979167,DottedQuarter,A2_A1
121,Right,0,76,100,51.0,2.979167,DottedQuarter,E5_C#5
123,Right,0,87,100,52.0,0.979167,Eighth,D#6
124,Right,0,85,100,53.0,0.979167,Eighth,C#6
125,Left,1,34,100,54.0,2.979167,DottedQuarter,A#2_A#1
127,Right,0,73,100,54.0,3.979167,DottedQuarter,F#5_E5_C#5
131,Left,1,35,100,57.0,2.979167,DottedQuarter,B2_B1
130,Right,0,75,100,57.0,2.979167,DottedQuarter,D#5_A4
134,Right,0,80,100,58.0,0.979167,Eighth,G#5
135,Right,0,81,100,59.0,0.979167,Eighth,A5
139,Left,1,49,100,60.0,2.979167,DottedQuarter,C#3_C#2
136,Right,0,76,100,60.0,2.979167,DottedQuarter,E5_E4_A4
141,Right,0,75,97,62.0,0.979167,Eighth,D#5
143,Right,0,73,95,63.0,1.979167,Quarter,F#4_C#5_A4
142,Left,1,51,95,63.0,1.979167,Quarter,D#3_D#2
147,Right,0,71,91,65.0,0.979167,Eighth,D#4_B4_A4
150,Left,1,54,91,65.0,0.979167,Eighth,F#3_F#2
152,Left,1,59,90,66.0,3.979167,Half,F#3_B3
154,Right,0,71,90,66.0,3.979167,Half,D#4_B4_A4
157,Right,0,75,84,69.0,0.979167,Eighth,D#5
158,Right,0,69,82,70.0,0.979167,Eighth,F#5_F#4_A4
159,Left,1,51,82,70.0,0.979167,Eighth,D#3_B3
163,Right,0,68,81,71.0,0.979167,Eighth,G#4_E5_E4
164,Left,1,59,81,71.0,0.979167,Eighth,E3_B3
168,Right,0,69,80,72.0,2.979167,DottedQuarter,A4
169,Left,1,63,80,72.0,3.979167,Half,F#3_D#4_B3
172,Right,0,73,80,73.0,0.479167,Sixteenth,C#5
173,Right,0,71,80,73.5,0.479167,Sixteenth,B4
174,Right,0,70,80,74.0,0.479167,Sixteenth,A#4
175,Right,0,71,80,74.5,0.479167,Sixteenth,B4
176,Right,0,83,80,75.0,0.979167,Eighth,B5
177,Left,1,54,80,76.0,0.979167,Eighth,F#3_D#4_B3
180,Right,0,71,80,76.0,0.979167,Eighth,B4_A5
182,Left,1,59,80,77.0,0.979167,Eighth,G#3_E4_B3
185,Right,0,71,80,77.0,0.979167,Eighth,G#5_B4
190,Right,0,80,80,78.0,1.979167,Eighth,G#5_C#5
187,Left,1,61,80,78.0,1.979167,Quarter,F#3_C#4_A3
192,Right,0,78,80,79.0,0.979167,Eighth,F#5
194,Left,1,58,80,80.0,0.979167,Eighth,F#4_C#4_A#3
193,Right,0,76,80,80.0,0.979167,Eighth,E5_C#5
201,Right,0,76,80,81.0,1.979167,Eighth,E5_B4
198,Left,1,63,80,81.0,1.979167,Quarter,F#4_D#4_B3
203,Right,0,75,80,82.0,0.979167,Eighth,D#5
204,Left,1,64,80,83.0,0.979167,Eighth,E4_C#4
206,Right,0,76,80,83.0,0.979167,Eighth,F#4_E5_A#4
210,Right,0,71,80,84.0,1.979167,Quarter,F#4_B4_A4
209,Left,1,63,80,84.0,1.979167,Quarter,D#4
213,Right,0,68,80,86.0,0.979167,Eighth,G#4_B4
215,Left,1,64,80,86.0,0.979167,Eighth,E4
216,Right,0,63,80,87.0,1.979167,Quarter,F#4_D#4_B4
219,Left,1,59,80,87.0,1.979167,Quarter,B3
220,Right,0,63,80,89.0,0.979167,Eighth,F#4_D#4_A4
223,Left,1,47,80,89.0,0.979167,Eighth,B2
224,Right,0,68,80,90.0,2.979167,DottedQuarter,G#4_E4
226,Left,1,49,80,90.0,2.979167,DottedQuarter,C#3
227,Left,1,64,80,93.0,0.979167,Eighth,E4
228,Left,1,66,80,94.0,0.979167,Eighth,F#4
229,Left,1,68,80,95.0,0.979167,Eighth,G#4
230,Left,1,58,80,96.0,2.979167,DottedQuarter,A#3
231,Left,1,63,80,99.0,2.979167,Eighth,D#4_A3
232,Right,0,78,80,99.0,0.979167,Eighth,F#5
235,Left,1,61,80,100.0,0.979167,Eighth,C#4
234,Right,0,76,80,100.0,0.979167,Eighth,E5
236,Right,0,75,80,101.0,0.979167,Eighth,D#5
237,Left,1,59,80,101.0,0.979167,Eighth,B3
238,Left,1,65,80,102.0,2.979167,DottedQuarter,G#3_F4
240,Right,0,74,80,102.0,2.979167,DottedQuarter,D5_B5
242,Left,1,42,80,105.0,0.979167,Eighth,F#2
243,Right,0,85,80,105.0,2.979167,DottedQuarter,C#6_A5
245,Left,1,44,80,106.0,0.979167,Eighth,G#2
246,Left,1,45,80,107.0,0.979167,Eighth,A2
250,Left,1,47,80,108.0,0.979167,Eighth,B2
247,Right,0,76,80,108.0,3.979167,Half,G#5_G#4_E5
251,Left,1,58,83,109.0,0.979167,Eighth,A#3
252,Left,1,59,86,110.0,0.979167,Eighth,B3
253,Left,1,64,89,111.0,1.979167,Quarter,E4
254,Right,0,67,93,112.0,0.979167,Eighth,G4
255,Right,0,68,96,113.0,0.979167,Eighth,G#4
256,Right,0,71,99,114.0,0.979167,Eighth,B4
259,Left,1,47,80,116.0,2.979167,DottedQuarter,B2_B1
257,Right,0,64,80,116.0,0.979167,Eighth,G#3_E4_B3
262,Right,0,59,80,117.0,1.979167,Quarter,G#4_E4_B3
265,Left,1,45,80,119.0,0.979167,Eighth,A2_A1
266,Right,0,66,80,119.0,0.979167,Eighth,F#4_D#4_B3
270,Left,1,44,80,120.0,0.979167,Eighth,G#2_G#1
271,Right,0,64,80,120.0,3.979167,DottedQuarter,E4_B4_B3
275,Left,1,58,83,121.0,0.979167,Eighth,A#3
276,Left,1,59,86,122.0,0.979167,Eighth,B3
277,Left,1,68,89,123.0,1.979167,Quarter,G#4
278,Right,0,70,93,124.0,0.979167,Eighth,A#4
279,Right,0,71,96,125.0,0.979167,Eighth,B4
280,Right,0,80,99,126.0,0.979167,Eighth,G#5
284,Left,1,47,80,128.0,2.979167,DottedQuarter,B2_B1
281,Right,0,64,80,128.0,0.979167,Eighth,G#3_E4_B3
286,Right,0,68,80,129.0,1.979167,Quarter,G#4_E4_B3
289,Right,0,59,80,131.0,0.979167,Eighth,F#4_D#4_B3
290,Left,1,45,80,131.0,0.979167,Eighth,A2_A1
296,Right,0,71,80,132.0,2.979167,DottedQuarter,E4_B4_B3
294,Left,1,32,80,132.0,0.979167,Eighth,G#2_G#1
299,Left,1,58,82,133.0,0.979167,Eighth,A#3
300,Left,1,59,85,134.0,0.979167,Eighth,B3
301,Left,1,71,88,135.0,0.979167,Eighth,B4
302,Right,0,70,91,136.0,0.979167,Eighth,A#4
303,Right,0,71,94,137.0,0.979167,Eighth,B4
304,Right,0,76,97,138.0,0.979167,Eighth,E5
305,Right,0,80,100,139.0,0.979167,Eighth,G#5
306,Right,0,83,103,140.0,0.479167,Sixteenth,B5
307,Left,1,47,103,140.0,2.979167,DottedQuarter,B2_B1
309,Right,0,88,105,140.5,0.479167,Sixteenth,E6
310,Right,0,92,120,141.0,0.979167,Eighth,G#6
311,Right,0,95,110,142.0,0.979167,Eighth,B6
312,Left,1,59,80,143.0,0.979167,Eighth,B3_B2
314,Right,0,66,80,143.0,0.979167,Eighth,F#4_D#5_A4
318,Right,0,76,80,144.0,1.979167,Quarter,G#4_E5_E4
317,Left,1,40,80,144.0,1.979167,Quarter,E3_E2
322,Left,1,59,80,147.0,2.979167,DottedQuarter,B3_B2
324,Right,0,68,80,149.0,0.979167,Eighth,G#4_E4_B4
327,Right,0,71,80,150.0,1.979167,Quarter,E4_B4
328,Left,1,56,80,150.0,2.979167,DottedQuarter,G#3_G#2_B2
332,Left,1,54,80,153.0,2.979167,DottedQuarter,F#3_F#2_B2
335,Right,0,69,80,155.0,0.979167,Eighth,D#5_D#4_A4
338,Right,0,76,80,156.0,1.979167,Quarter,G#4_E5_E4
339,Left,1,52,80,156.0,2.979167,DottedQuarter,E3_E2_B2
344,Left,1,47,80,159.0,2.979167,DottedQuarter,B2
345,Right,0,83,80,161.0,0.979167,Eighth,B5_B4
347,Right,0,83,80,162.0,1.979167,Quarter,B5_B4
349,Left,1,47,80,162.0,2.979167,DottedQuarter,G#2_B2
351,Left,1,47,80,165.0,2.979167,DottedQuarter,F#2_B2
353,Right,0,87,80,167.0,0.979167,Eighth,D#6_D#5_A5
359,Left,1,40,80,168.0,1.979167,Quarter,E2_B2
356,Right,0,80,80,168.0,1.979167,Quarter,G#5_E6_E5
361,Left,1,40,80,170.0,2.979167,DottedQuarter,E3_E2_B2
364,Right,0,78,80,170.0,2.979167,DottedQuarter,F#6_F#5_A5
367,Right,0,88,80,173.0,2.979167,DottedQuarter,G#5_E6_E5
370,Left,1,40,80,173.0,2.979167,DottedQuarter,E3_E2_B2
373,Right,0,81,80,176.0,2.979167,DottedQuarter,F#6_F#5_A5
374,Left,1,52,80,176.0,2.979167,DottedQuarter,E3_E2_B2
382,Right,0,76,80,179.0,2.979167,DottedQuarter,G#5_E6_E5
379,Left,1,47,80,179.0,2.979167,DottedQuarter,E3_E2_B2
385,Left,1,40,80,182.0,2.979167,DottedQuarter,E2_D#3_B2
387,Right,0,81,80,182.0,2.979167,DottedQuarter,F#6_A6_A5
391,Left,1,52,80,185.0,2.979167,DottedQuarter,E3_E2_B2
394,Right,0,80,80,185.0,2.979167,DottedQuarter,G#6_G#5_E6
400,Right,0,81,80,188.0,2.979167,DottedQuarter,F#6_F#5_D#6_A5
397,Left,1,47,80,188.0,2.979167,DottedQuarter,E3_E2_B2
404,Left,1,52,80,191.0,2.979167,DottedQuarter,E3_E2_B2
406,Right,0,76,80,191.0,2.979167,DottedQuarter,G#5_E6_E5
410,Left,1,52,80,194.0,2.979167,DottedQuarter,G#3_E3_B3
413,Right,0,68,80,194.0,2.979167,DottedQuarter,G#4_B4
415,Right,0,68,80,197.0,2.979167,DottedQuarter,G#4_B4
416,Left,1,56,80,197.0,2.979167,DottedQuarter,G#3_E3_B3
420,Right,0,71,70,200.0,2.979167,DottedQuarter,G#4_B4
422,Right,0,71,70,203.0,0.979167,Eighth,G#4_B4
426,Left,1,52,70,204.0,1.979167,Quarter,E3
424,Right,0,68,70,204.0,10.979167,Unknown,G#4_B4
427,Left,1,47,70,205.0,2.979167,DottedQuarter,B2
428,Left,1,54,70,206.0,0.979167,Eighth,F#3
429,Left,1,56,70,207.0,0.979167,Eighth,G#3
430,Left,1,52,70,208.0,2.979167,DottedQuarter,E3
431,Left,1,57,70,209.0,0.979167,Eighth,A3
432,Left,1,61,70,210.0,1.979167,Quarter,C#4
433,Left,1,52,70,211.0,3.979167,Half,E3
434,Left,1,59,70,212.0,0.979167,Eighth,B3
435,Left,1,56,70,213.0,1.979167,Quarter,G#3
436,Right,0,71,70,215.0,2.979167,DottedQuarter,G#4_C#5_B4
439,Right,0,68,70,218.0,2.979167,DottedQuarter,G#4_C#5_B4
442,Right,0,68,70,221.0,0.979167,Eighth,G#4_C#5_B4
448,Left,1,53,70,222.0,1.979167,Quarter,F3
445,Right,0,71,70,222.0,10.979167,Unknown,G#4_C#5_B4
449,Left,1,49,70,223.0,2.979167,DottedQuarter,C#3
450,Left,1,54,70,224.0,0.979167,Eighth,F#3
451,Left,1,56,70,225.0,1.979167,Quarter,G#3
452,Left,1,49,70,226.0,2.979167,DottedQuarter,C#3
453,Left,1,57,70,227.0,0.979167,Eighth,A3
454,Left,1,61,70,228.0,1.979167,Quarter,C#4
455,Left,1,49,70,229.0,3.979167,Half,C#3
456,Left,1,59,70,230.0,0.979167,Eighth,B3
457,Left,1,56,70,231.0,1.979167,Quarter,G#3
458,Right,0,71,70,233.0,2.979167,DottedQuarter,G#4_C#5_B4
461,Right,0,73,70,236.0,2.979167,DottedQuarter,G#4_C#5_B4
464,Left,1,42,80,239.0,2.979167,DottedQuarter,F#2_F#1
465,Right,0,69,80,239.0,0.979167,Eighth,C#5_A4
468,Right,0,69,82,240.0,1.979167,Eighth,F#5_C#5_A4
471,Right,0,73,85,241.0,2.979167,DottedQuarter,C#5
474,Left,1,30,88,242.0,2.979167,DottedQuarter,F#2_F#1
472,Right,0,80,88,242.0,0.979167,Eighth,G#5_F5
476,Right,0,81,90,243.0,1.979167,Quarter,F#5_A5
478,Right,0,73,93,244.0,2.979167,DottedQuarter,C#5
481,Right,0,83,96,245.0,0.979167,Eighth,G#5_B5
479,Left,1,42,96,245.0,2.979167,DottedQuarter,F#2_F#1
483,Right,0,81,99,246.0,1.979167,Quarter,D6_A5
485,Right,0,73,101,247.0,2.979167,DottedQuarter,C#5
488,Left,1,30,104,248.0,2.979167,DottedQuarter,F#2_F#1
486,Right,0,85,104,248.0,0.979167,Eighth,C#6_A5
490,Right,0,81,107,249.0,1.979167,Quarter,A5
491,Right,0,73,109,250.0,2.979167,DottedQuarter,C#5
492,Left,1,66,80,251.0,2.979167,DottedQuarter,F#4_A4
493,Right,0,81,80,251.0,0.979167,Eighth,A5
495,Right,0,86,80,252.0,1.979167,Quarter,D6
496,Right,0,73,80,253.0,2.979167,DottedQuarter,C#5
497,Right,0,85,80,254.0,0.979167,Eighth,C#6
498,Left,1,66,80,254.0,2.979167,DottedQuarter,F#4_A4
500,Right,0,81,80,255.0,1.979167,Quarter,A5
501,Right,0,73,80,256.0,2.979167,DottedQuarter,C#5
504,Left,1,28,110,257.0,2.979167,DottedQuarter,E2_E1
502,Right,0,81,110,257.0,0.979167,Eighth,G5_A5
506,Right,0,86,110,258.0,1.979167,Quarter,D6
507,Right,0,73,110,259.0,2.979167,DottedQuarter,C#5
509,Left,1,40,110,260.0,2.979167,DottedQuarter,E2_E1
508,Right,0,79,110,260.0,2.979167,DottedQuarter,G5_C#6
512,Right,0,81,110,261.0,1.979167,Quarter,A5
513,Right,0,73,110,262.0,2.979167,DottedQuarter,C#5
514,Left,1,67,80,263.0,2.979167,DottedQuarter,G4_E4_A4
516,Right,0,79,80,263.0,2.979167,DottedQuarter,G5_A5
519,Right,0,86,80,264.0,1.979167,Quarter,D6
520,Right,0,73,80,265.0,2.979167,DottedQuarter,C#5
524,Right,0,79,80,266.0,2.979167,DottedQuarter,G5_C#6
521,Left,1,69,80,266.0,2.979167,DottedQuarter,G4_E4_A4
526,Right,0,81,80,267.0,1.979167,Quarter,A5
527,Right,0,73,80,268.0,0.979167,Eighth,C#5
530,Left,1,69,81,269.0,2.979167,DottedQuarter,F#4_D4_A4
528,Right,0,81,81,269.0,1.979167,Eighth,F#5_A5
533,Right,0,88,83,270.0,1.979167,Quarter,E6
534,Right,0,78,84,271.0,2.979167,DottedQuarter,F#5
535,Right,0,86,86,272.0,0.979167,Eighth,D6
536,Left,1,66,86,272.0,2.979167,DottedQuarter,F#4_D4
538,Right,0,81,87,273.0,1.979167,Quarter,A5
539,Right,0,78,89,274.0,2.979167,DottedQuarter,F#5
543,Right,0,85,91,275.0,0.979167,Eighth,C#6
540,Left,1,58,91,275.0,2.979167,DottedQuarter,F#4_C#4_A#3
544,Right,0,91,92,276.0,1.979167,Quarter,G6
545,Right,0,78,94,277.0,2.979167,DottedQuarter,F#5
548,Right,0,90,95,278.0,0.979167,Eighth,F#6
546,Left,1,58,95,278.0,2.979167,DottedQuarter,F#4_C#4_A#3
550,Right,0,85,97,279.0,1.979167,Quarter,C#6
551,Right,0,78,98,280.0,2.979167,DottedQuarter,F#5
554,Right,0,86,100,281.0,0.979167,Eighth,D6
552,Left,1,66,100,281.0,2.979167,DottedQuarter,F#4_D4_B3
556,Right,0,91,102,282.0,1.979167,Quarter,G6
557,Right,0,78,103,283.0,2.979167,DottedQuarter,F#5
561,Right,0,90,105,284.0,0.979167,Eighth,F#6
558,Left,1,59,105,284.0,0.979167,Eighth,F#4_D4_B3
564,Right,0,84,106,285.0,1.979167,Quarter,C6
562,Left,1,58,106,285.0,1.979167,Quarter,F#4_C#4_A#3
566,Right,0,78,108,286.0,1.979167,Quarter,F#5
567,Left,1,58,109,287.0,0.979167,Eighth,F#4_C#4_A#3
569,Right,0,85,109,287.0,0.979167,Eighth,C#6
572,Left,1,57,110,288.0,1.979167,Quarter,F#4_C#4_A3
571,Right,0,73,110,288.0,1.979167,Eighth,F5_C#5
576,Right,0,72,110,289.0,0.979167,Eighth,C5
577,Left,1,57,110,290.0,0.979167,Eighth,F#4_C#4_A3
580,Right,0,78,110,290.0,0.979167,Eighth,F#5_C#5
584,Left,1,56,110,291.0,1.979167,Quarter,G#3_D#4
582,Right,0,73,110,291.0,1.979167,Quarter,F#4_C#5
586,Right,0,65,110,292.0,0.979167,Eighth,F4
587,Right,0,72,110,293.0,0.979167,Eighth,F#4_C5
589,Left,1,56,110,293.0,0.979167,Eighth,G#3_D#4
591,Right,0,78,110,294.0,1.979167,Quarter,F#5_C6_C5
594,Left,1,32,110,295.0,0.979167,Eighth,G#2_G#1
596,Right,0,69,110,296.0,0.979167,Eighth,F#5_D#5_A5_A4
600,Left,1,36,110,296.0,0.979167,Eighth,C3_C2
602,Right,0,80,110,297.0,1.979167,Quarter,G#5_G#4_E5
605,Left,1,49,110,298.0,0.979167,Eighth,C#3_C#2
609,Right,0,78,110,299.0,0.979167,Eighth,F#5_F#4_D#5_A4
607,Left,1,51,110,299.0,0.979167,Eighth,D#3_D#2
613,Right,0,68,110,300.0,1.979167,Quarter,G#4_E5_E4
616,Left,1,40,110,301.0,0.979167,Eighth,E3_E2
620,Left,1,54,110,302.0,0.979167,Eighth,F#3_F#2
618,Right,0,69,110,302.0,0.979167,Eighth,D#5_D#4_A4
623,Right,0,73,110,303.0,1.979167,Quarter,E4_C#5_C#4
626,Left,1,43,100,304.0,0.979167,Eighth,G3_G2
631,Left,1,56,90,305.0,0.979167,Eighth,G#3_G#2
628,Right,0,72,90,305.0,0.979167,Eighth,D#4_C5_C4
636,Left,1,48,80,306.0,2.979167,DottedQuarter,C3_C2
633,Right,0,63,80,306.0,2.979167,DottedQuarter,G#4_F#4_D#5_D#4
641,Left,1,66,80,309.0,1.979167,Quarter,F#4_C4
639,Right,0,75,80,309.0,1.979167,Quarter,G#4_D#5
643,Left,1,64,80,311.0,0.979167,Eighth,E4_C#4
644,Right,0,68,80,311.0,0.979167,Eighth,G#4_E5
647,Left,1,56,80,312.0,1.979167,Quarter,G#3_E3_C#3
650,Right,0,76,80,312.0,2.979167,DottedQuarter,G#4_E5_E4
654,Right,0,69,80,314.0,0.979167,Eighth,A4
653,Left,1,49,80,314.0,0.979167,Eighth,E3_C#3_A3
658,Right,0,76,80,315.0,1.979167,Quarter,E5
657,Left,1,64,80,315.0,1.979167,Quarter,E4_C#4
660,Left,1,66,80,317.0,0.979167,Eighth,F#4_D#4
662,Right,0,69,80,317.0,0.979167,Eighth,F#5_B4_A4
665,Left,1,58,80,318.0,2.979167,Quarter,D#3_A#3
667,Right,0,78,80,318.0,2.979167,DottedQuarter,F#5_F#4_A#4
670,Right,0,71,80,320.0,0.979167,Eighth,B4
671,Left,1,59,80,320.0,0.979167,Eighth,B3
673,Right,0,69,80,321.0,1.979167,Quarter,F#5_B4_A4
672,Left,1,66,80,321.0,1.979167,Quarter,F#4_D#4
677,Right,0,71,80,323.0,0.979167,Eighth,G#5_G#4_B4
680,Left,1,64,80,323.0,0.979167,Eighth,E4
681,Right,0,77,80,324.0,1.979167,Quarter,G#5_F5
683,Left,1,74,80,324.0,1.979167,Quarter,D5
684,Left,1,64,80,325.0,2.979167,DottedQuarter,E4
685,Left,1,72,80,326.0,0.979167,Eighth,C5
686,Right,0,76,80,326.0,0.979167,Eighth,E5_A5
689,Right,0,74,80,327.0,1.979167,Quarter,D5_B5
688,Left,1,71,80,327.0,1.979167,Quarter,B4
691,Left,1,64,80,328.0,1.979167,Quarter,E4
694,Left,1,69,80,329.0,0.979167,Eighth,A4
692,Right,0,72,80,329.0,0.979167,Eighth,C6_C5
695,Left,1,52,80,330.0,1.979167,Quarter,E3
696,Right,0,74,80,330.0,1.979167,Quarter,G#5_E6_D5
699,Right,0,74,80,332.0,0.979167,Eighth,D6_D5_A5
702,Left,1,53,80,332.0,0.979167,Eighth,F3
704,Right,0,74,80,333.0,4.979167,Half,E5_D5_B5
703,Left,1,56,80,333.0,1.979167,Quarter,G#3
707,Left,1,57,80,335.0,0.979167,Eighth,A3
708,Left,1,59,80,336.0,1.979167,Quarter,B3
709,Left,1,68,80,337.0,0.979167,Eighth,G#4
711,Left,1,60,80,338.0,0.979167,Eighth,C4_A4
710,Right,0,81,80,338.0,0.979167,Eighth,A5
715,Right,0,71,80,339.0,1.979167,Quarter,G#5_B4
713,Left,1,62,80,339.0,1.979167,Quarter,F4_D4
717,Left,1,66,80,341.0,0.979167,Eighth,F#4_D#4
718,Right,0,72,80,341.0,0.979167,Eighth,C5_A5
722,Left,1,52,80,342.0,6.979167,DottedHalf,E4_E3
721,Right,0,80,80,342.0,1.979167,Quarter,G#5
724,Right,0,71,80,343.0,1.979167,Quarter,B4
725,Left,1,63,80,344.0,0.979167,Eighth,D#4
726,Right,0,81,80,344.0,0.979167,Eighth,F#5_A5
730,Left,1,62,80,345.0,1.979167,Quarter,D4
728,Right,0,80,80,345.0,1.979167,Eighth,G#5_B5
731,Right,0,76,80,346.0,1.979167,Quarter,E5
732,Left,1,61,80,347.0,0.979167,Eighth,C#4
733,Right,0,81,80,347.0,0.979167,Eighth,C#6_A5
736,Right,0,76,80,348.0,1.979167,Quarter,G#5_E6_E5
735,Left,1,59,80,348.0,0.979167,Eighth,B3
739,Left,1,52,80,349.0,2.979167,DottedQuarter,E3
740,Left,1,57,80,350.0,0.979167,Eighth,F#3_A3
742,Right,0,74,80,350.0,0.979167,Eighth,D6_D5_A5
747,Left,1,59,80,351.0,0.979167,Eighth,G#3_B3
745,Right,0,71,80,351.0,0.979167,Eighth,B5_B4
750,Left,1,52,82,352.0,0.979167,Eighth,G#3_G#2_E3
749,Right,0,71,82,352.0,0.979167,Eighth,E4_B4_B3
758,Right,0,61,84,353.0,0.979167,Eighth,E4_C#5_C#4
755,Left,1,57,84,353.0,0.979167,Eighth,E3_A3_A2
761,Right,0,74,87,354.0,1.979167,Quarter,D5_D4_A4
763,Left,1,47,87,354.0,0.979167,Eighth,B3_B2
766,Left,1,47,89,355.0,0.979167,Eighth,B2_B1
769,Left,1,36,92,356.0,0.979167,Eighth,C3_C2
768,Right,0,69,92,356.0,0.979167,Eighth,D#5_D#4_A4
774,Left,1,37,94,357.0,1.979167,Quarter,C#3_C#2
773,Right,0,76,94,357.0,1.979167,Quarter,E5_E4_A4
778,Left,1,49,99,359.0,0.979167,Eighth,C#3_C#2
780,Right,0,77,99,359.0,0.979167,Eighth,G#4_F5_B4
783,Left,1,49,100,360.0,2.979167,DottedQuarter,C#3_C#2
785,Right,0,71,100,360.0,3.979167,DottedQuarter,G#4_F5_B4
789,Right,0,66,100,363.0,2.979167,DottedQuarter,F#4_A4
788,Left,1,50,100,363.0,2.979167,DottedQuarter,D3_D2
792,Right,0,80,100,364.0,0.979167,Eighth,G#5
793,Right,0,78,100,365.0,0.979167,Eighth,F#5
796,Right,0,69,100,366.0,3.979167,DottedQuarter,F#4_B4_A4
794,Left,1,51,100,366.0,2.979167,DottedQuarter,D#3_D#2
799,Right,0,68,100,369.0,2.979167,DottedQuarter,G#4
800,Left,1,40,100,369.0,2.979167,DottedQuarter,E3_E2
802,Right,0,73,100,370.0,0.979167,Eighth,C#5
803,Right,0,74,100,371.0,0.979167,Eighth,D5
804,Right,0,69,100,372.0,2.979167,DottedQuarter,D4_A4_A3
807,Left,1,54,100,372.0,2.979167,DottedQuarter,F#3_F#2
809,Right,0,68,97,374.0,0.979167,Eighth,G#4
810,Left,1,44,95,375.0,2.979167,DottedQuarter,G#3_G#2
812,Right,0,59,95,375.0,2.979167,DottedQuarter,F#4_D4_B3
815,Right,0,64,91,377.0,0.979167,Eighth,E4
816,Left,1,47,90,378.0,3.979167,Half,E3_B3_B2
817,Right,0,64,90,378.0,3.979167,DottedQuarter,E4_D4
821,Right,0,68,84,381.0,0.979167,Eighth,G#4
823,Right,0,62,82,382.0,0.979167,Eighth,D4_B4
822,Left,1,56,82,382.0,0.979167,Eighth,G#3_G#2_E3
827,Right,0,69,81,383.0,0.979167,Eighth,C#4_A4
828,Left,1,52,81,383.0,0.979167,Eighth,E3_A3_A2
834,Left,1,47,80,384.0,3.979167,Half,G#3_E3_B2
832,Right,0,64,80,384.0,0.979167,Eighth,E4_D4
837,Right,0,66,80,385.0,0.479167,Sixteenth,F#4
838,Right,0,64,80,385.5,0.479167,Sixteenth,E4
839,Right,0,63,80,386.0,0.479167,Sixteenth,D#4
840,Right,0,64,80,386.5,0.479167,Sixteenth,E4
841,Right,0,76,80,387.0,0.979167,Eighth,E5
844,Left,1,56,80,388.0,0.979167,Eighth,G#3_E3_B2
842,Right,0,74,80,388.0,0.979167,Eighth,E4_D5
849,Left,1,57,80,389.0,0.979167,Eighth,E3_C#3_A3
847,Right,0,73,80,389.0,0.979167,Eighth,E4_C#5
852,Right,0,73,80,390.0,1.979167,Eighth,F#4_C#5
854,Left,1,50,80,390.0,1.979167,Quarter,F#3_D3_A3
857,Right,0,71,83,391.0,0.979167,Eighth,B4
861,Right,0,59,87,392.0,0.979167,Eighth,F#4_B3_A4
858,Left,1,57,87,392.0,0.979167,Eighth,F#3_D#3_A3
865,Left,1,52,91,393.0,1.979167,Quarter,G#3_E3
864,Right,0,64,91,393.0,1.979167,Quarter,E4_B3_A4
869,Right,0,68,95,394.0,0.979167,Eighth,G#4
872,Left,1,54,99,395.0,0.979167,Eighth,F#3_A3
870,Right,0,69,99,395.0,0.979167,Eighth,D#4_B3_A4
875,Left,1,56,100,396.0,1.979167,Quarter,G#3
876,Right,0,59,100,396.0,1.979167,Quarter,E4_D4_B3
880,Left,1,57,93,398.0,0.979167,Eighth,A3
879,Right,0,64,93,398.0,0.979167,Eighth,E4_C#4
883,Right,0,64,89,399.0,1.979167,Quarter,G#3_E4_B3
882,Left,1,52,89,399.0,0.979167,Eighth,E3
886,Left,1,40,85,400.0,0.979167,Eighth,E2
888,Right,0,56,81,401.0,0.979167,Eighth,G#3_D4_B3
887,Left,1,41,81,401.0,0.979167,Eighth,F2
892,Left,1,42,80,402.0,2.979167,DottedQuarter,F#2
891,Right,0,57,80,402.0,2.979167,DottedQuarter,C#4_A3
894,Left,1,69,80,405.0,0.979167,Eighth,A4
895,Left,1,71,80,406.0,0.979167,Eighth,B4
896,Left,1,73,80,407.0,0.979167,Eighth,C#5
897,Left,1,63,80,408.0,2.979167,DottedQuarter,D#4
898,Left,1,68,80,411.0,2.979167,Eighth,G#4_D4
899,Right,0,83,80,411.0,0.979167,Eighth,B5
902,Right,0,81,80,412.0,0.979167,Eighth,A5
901,Left,1,69,80,412.0,0.979167,Eighth,A4
903,Left,1,71,80,413.0,0.979167,Eighth,B4
904,Right,0,80,80,413.0,0.979167,Eighth,G#5
906,Right,0,79,80,414.0,2.979167,DottedQuarter,G5_E6
905,Left,1,70,80,414.0,2.979167,DottedQuarter,C#4_A#4
909,Left,1,47,80,417.0,0.979167,Eighth,B2
910,Right,0,86,80,417.0,2.979167,DottedQuarter,F#6_D6
912,Left,1,49,80,418.0,0.979167,Eighth,C#3
913,Left,1,50,80,419.0,0.979167,Eighth,D3
916,Left,1,52,80,420.0,0.979167,Eighth,E3
914,Right,0,81,80,420.0,3.979167,Half,C#6_C#5_A5
918,Left,1,63,83,421.0,0.979167,Eighth,D#4
919,Left,1,64,86,422.0,0.979167,Eighth,E4
920,Left,1,69,89,423.0,1.979167,Quarter,A4
921,Right,0,72,93,424.0,0.979167,Eighth,C5
922,Right,0,73,96,425.0,0.979167,Eighth,C#5
923,Right,0,76,99,426.0,0.979167,Eighth,E5
926,Right,0,64,80,428.0,0.979167,Eighth,E4_C#4_A4
924,Left,1,52,80,428.0,2.979167,DottedQuarter,E3_E2
929,Right,0,64,80,429.0,1.979167,Quarter,E4_C#5_A4
934,Right,0,64,80,431.0,0.979167,Eighth,G#4_E4_B4
932,Left,1,38,80,431.0,0.979167,Eighth,D3_D2
938,Right,0,69,80,432.0,3.979167,DottedQuarter,E5_E4_A4
937,Left,1,49,80,432.0,0.979167,Eighth,C#3_C#2
942,Left,1,63,83,433.0,0.979167,Eighth,D#4
943,Left,1,64,86,434.0,0.979167,Eighth,E4
944,Left,1,73,89,435.0,1.979167,Quarter,C#5
945,Right,0,75,93,436.0,0.979167,Eighth,D#5
946,Right,0,76,96,437.0,0.979167,Eighth,E5
947,Right,0,81,99,438.0,0.979167,Eighth,A5
950,Left,1,52,80,440.0,2.979167,DottedQuarter,E3_E2
948,Right,0,69,80,440.0,0.979167,Eighth,E4_C#4_A4
953,Right,0,64,80,441.0,1.979167,Quarter,E4_C#5_A4
958,Right,0,64,80,443.0,0.979167,Eighth,G#4_E4_B4
956,Left,1,50,80,443.0,0.979167,Eighth,D3_D2
961,Right,0,76,80,444.0,2.979167,DottedQuarter,E5_E4_A4
962,Left,1,37,80,444.0,0.979167,Eighth,C#3_C#2
966,Left,1,63,82,445.0,0.979167,Eighth,D#4
967,Left,1,64,85,446.0,0.979167,Eighth,E4
968,Left,1,76,88,447.0,0.979167,Eighth,E5
969,Right,0,75,91,448.0,0.979167,Eighth,D#5
970,Right,0,76,94,449.0,0.979167,Eighth,E5
971,Right,0,80,97,450.0,0.979167,Eighth,G#5
972,Right,0,81,100,451.0,0.979167,Eighth,A5
975,Right,0,85,103,452.0,0.979167,Eighth,C#6
973,Left,1,52,103,452.0,2.979167,DottedQuarter,E3_E2
976,Right,0,88,120,453.0,0.979167,Eighth,E6
977,Right,0,93,110,454.0,0.979167,Eighth,A6
978,Right,0,62,80,455.0,0.979167,Eighth,G#4_D4_B3
981,Left,1,40,80,455.0,0.979167,Eighth,E3_E2
985,Left,1,45,80,456.0,2.979167,DottedQuarter,A2_A1
983,Right,0,61,80,456.0,1.979167,Quarter,C#4_A4
987,Left,1,40,80,459.0,2.979167,DottedQuarter,E3_E2
989,Right,0,64,80,461.0,0.979167,Eighth,E4_C#4
994,Right,0,64,80,462.0,1.979167,Quarter,E4_A3
991,Left,1,49,80,462.0,2.979167,DottedQuarter,E2_C#3_C#2
996,Left,1,35,80,465.0,2.979167,DottedQuarter,E2_B2_B1
999,Right,0,68,80,467.0,0.979167,Eighth,G#4_E4_D4
1002,Right,0,64,80,468.0,1.979167,Quarter,E4_C#4_A4
1005,Left,1,33,80,468.0,2.979167,DottedQuarter,E2_A2_A1
1008,Left,1,40,80,471.0,2.979167,DottedQuarter,E2
1010,Left,1,52,80,473.0,0.979167,Eighth,E3
1009,Right,0,76,80,473.0,0.979167,Eighth,E5_E4_C#5
1015,Right,0,69,80,474.0,1.979167,Quarter,E5_E4_A4
1013,Left,1,49,80,474.0,2.979167,DottedQuarter,E2_C#3_C#2
1019,Left,1,47,80,477.0,2.979167,DottedQuarter,E2_B2_B1
1022,Right,0,74,80,479.0,0.979167,Eighth,G#5_G#4_E5_D5
1026,Right,0,69,80,480.0,1.979167,Quarter,C#5_A5_A4
1028,Left,1,45,80,480.0,1.979167,Quarter,E2_A2_A1
1032,Left,1,45,80,482.0,2.979167,DottedQuarter,E2_A2_A1
1035,Right,0,83,80,482.0,2.979167,DottedQuarter,D5_B5_B4
1038,Right,0,69,80,485.0,2.979167,DottedQuarter,C#5_A5_A4
1041,Left,1,40,80,485.0,2.979167,DottedQuarter,E2_A2_A1
1045,Right,0,71,80,488.0,2.979167,DottedQuarter,D5_B5_B4
1044,Left,1,33,80,488.0,2.979167,DottedQuarter,E2_A2_A1
1052,Left,1,33,80,491.0,2.979167,DottedQuarter,E2_A2_A1
1050,Right,0,73,80,491.0,2.979167,DottedQuarter,C#5_A5_A4
1056,Left,1,56,80,494.0,2.979167,DottedQuarter,G#3_E3_A2
1057,Right,0,83,80,494.0,2.979167,DottedQuarter,D6_D5_B5
1064,Right,0,73,80,497.0,2.979167,DottedQuarter,C#6_C#5_A5
1062,Left,1,52,80,497.0,2.979167,DottedQuarter,E3_A3_A2
1071,Right,0,80,80,500.0,2.979167,DottedQuarter,G#5_B5_B4
1068,Left,1,56,80,500.0,2.979167,DottedQuarter,G#3_E3_D3_A2
1077,Left,1,45,80,503.0,2.979167,DottedQuarter,E3_C#3_A3_A2
1075,Right,0,73,80,503.0,2.979167,DottedQuarter,C#5_A5_A4
1082,Left,1,55,93,506.0,2.979167,DottedQuarter,G3_E3_C#3_A2_A#3
1086,Right,0,67,93,506.0,2.979167,DottedQuarter,G5_G4_E5_A#4
1091,Left,1,50,106,509.0,2.979167,DottedQuarter,F3_D3_B3_A2
1092,Right,0,68,106,509.0,2.979167,DottedQuarter,G#4_F5_F4_D5_B4
1103,Left,1,45,119,512.0,2.979167,DottedQuarter,F3_D3_B3_A2
1100,Right,0,68,119,512.0,2.979167,DottedQuarter,G#4_F5_F4_D5_B4
1109,Left,1,59,120,515.0,7.979167,Whole,F3_D3_B3_A2
1113,Right,0,71,120,515.0,9.979167,Unknown,G#4_F5_F4_D5_B4
1118,Left,1,57,80,523.0,0.979167,Eighth,A3
1119,Left,1,59,80,524.0,0.979167,Eighth,B3
1122,Left,1,61,80,525.0,0.979167,Eighth,C#4
1120,Right,0,69,80,525.0,2.979167,DottedQuarter,E5_A4
1123,Left,1,62,80,526.0,0.979167,Eighth,D4
1124,Left,1,64,80,527.0,0.979167,Eighth,E4
1125,Right,0,75,80,528.0,5.979167,DottedHalf,D#5_A4
1127,Left,1,54,80,528.0,2.979167,DottedQuarter,F#3
1128,Left,1,53,80,531.0,2.979167,DottedQuarter,F3
1129,Right,0,71,80,532.0,0.979167,Eighth,B4
1130,Right,0,72,80,533.0,0.979167,Eighth,C5
1131,Right,0,76,80,534.0,3.979167,Half,E5_C#5_C#4
1132,Left,1,52,80,534.0,8.979167,Whole,E3_A3
1136,Left,1,59,80,535.0,0.979167,Eighth,B3
1137,Right,0,62,80,535.0,0.979167,Eighth,D4
1139,Right,0,64,80,536.0,0.979167,Eighth,E4
1138,Left,1,61,80,536.0,0.979167,Eighth,C#4
1140,Left,1,61,80,537.0,0.979167,Eighth,C#4
1141,Right,0,64,80,537.0,0.979167,Eighth,E4
1142,Left,1,62,80,538.0,0.979167,Eighth,D4
1143,Right,0,74,80,538.0,0.979167,Eighth,F#4_D5_B4
1146,Left,1,63,80,539.0,0.979167,Eighth,D#4
1147,Right,0,66,80,539.0,0.979167,Eighth,F#4_C#5_A4
1152,Left,1,64,80,540.0,0.979167,Eighth,E4
1150,Right,0,69,80,540.0,1.979167,Quarter,C#5_A4
1153,Right,0,71,80,541.0,0.979167,Eighth,B4
1154,Left,1,62,80,541.0,0.979167,Eighth,D4
1155,Right,0,64,80,542.0,0.979167,Eighth,E4_A4
1156,Left,1,61,80,542.0,0.979167,Eighth,C#4
1160,Right,0,62,80,543.0,2.979167,Eighth,G#4_D4
1158,Left,1,59,80,543.0,2.979167,Eighth,E3_B3
1162,Left,1,62,80,544.0,0.979167,Eighth,D4
1163,Right,0,66,80,544.0,0.979167,Eighth,F#4
1164,Left,1,61,80,545.0,0.479167,Sixteenth,C#4
1165,Right,0,64,80,545.0,0.479167,Sixteenth,E4
1167,Left,1,59,80,545.5,0.479167,Sixteenth,B3
1166,Right,0,62,80,545.5,0.479167,Sixteenth,D4
1168,Left,1,57,80,546.0,2.979167,DottedQuarter,A3_A2
1170,Right,0,61,80,546.0,0.979167,Eighth,C#4_A4
1172,Right,0,71,80,547.0,0.979167,Eighth,B4
1173,Right,0,73,80,548.0,0.979167,Eighth,C#5
1176,Right,0,81,80,549.0,2.979167,DottedQuarter,C#5_A5
1174,Left,1,69,80,549.0,2.979167,DottedQuarter,F#4_A4
1178,Right,0,83,89,552.0,2.979167,DottedQuarter,G#5_D5_B5
1180,Left,1,65,89,552.0,2.979167,DottedQuarter,G#4_F4
1183,Right,0,84,99,555.0,2.979167,DottedQuarter,F#5_C6_C5
1184,Left,1,57,99,555.0,2.979167,DottedQuarter,F#4_D#4_A3
1189,Left,1,62,109,558.0,2.979167,DottedQuarter,G#3_E4_D4_B3
1192,Right,0,83,109,558.0,2.979167,DottedQuarter,E6_E5_B5
1196,Left,1,64,100,561.0,2.979167,DottedQuarter,E4_C#4_A3
1198,Right,0,85,100,561.0,0.979167,Eighth,C#6
1200,Right,0,81,96,562.0,0.979167,Eighth,A5
1201,Right,0,76,91,563.0,0.979167,Eighth,E5
1202,Right,0,78,80,564.0,0.979167,Eighth,F#5
1203,Left,1,62,80,564.0,2.979167,Eighth,D4_D3
1206,Left,1,59,80,565.0,0.979167,Eighth,B3
1205,Right,0,74,80,565.0,0.979167,Eighth,D5
1208,Right,0,73,80,566.0,0.979167,Eighth,C#5
1207,Left,1,57,80,566.0,0.979167,Eighth,A3
1209,Right,0,71,80,567.0,1.979167,Quarter,B4
1210,Left,1,56,80,567.0,1.979167,Quarter,G#3_E3
1212,Right,0,64,80,568.0,0.979167,Eighth,E4
1213,Left,1,56,80,569.0,2.979167,DottedQuarter,G#3_E3_B3
1215,Right,0,76,80,569.0,2.979167,DottedQuarter,G#4_E5_E4_B4
1221,Right,0,69,80,575.0,2.979167,DottedQuarter,E4_C#5_A4
1220,Left,1,57,80,575.0,2.979167,DottedQuarter,C#4_A3
1225,Left,1,52,80,581.0,2.979167,DottedQuarter,E3_E2
1226,Right,0,59,80,581.0,2.979167,DottedQuarter,G#3_E4_B3
1230,Left,1,57,80,583.0,0.979167,Eighth,A3
1231,Left,1,56,80,584.0,0.979167,Eighth,G#3
1232,Left,1,57,80,585.0,0.979167,Eighth,A3
1233,Left,1,59,80,586.0,0.979167,Eighth,B3
1234,Left,1,61,80,587.0,0.979167,Eighth,C#4
1235,Left,1,51,80,588.0,2.979167,DottedQuarter,D#3
1237,Right,0,59,80,591.0,0.979167,Eighth,B3
1236,Left,1,52,80,591.0,2.979167,DottedQuarter,E3_D3
1239,Right,0,57,80,592.0,0.979167,Eighth,A3
1240,Right,0,56,80,593.0,0.979167,Eighth,G#3
1242,Left,1,49,80,594.0,2.979167,DottedQuarter,E3_C#3
1241,Right,0,64,80,594.0,2.979167,DottedQuarter,E4
1244,Right,0,76,80,597.0,0.979167,Eighth,E5_D5_B4
1246,Left,1,52,80,597.0,2.979167,DottedQuarter,E3_B2
1249,Right,0,76,82,598.0,0.979167,Eighth,E5_C#5_A4
1252,Right,0,71,84,599.0,0.979167,Eighth,G#4_E5_B4
1255,Right,0,81,87,600.0,1.979167,Quarter,E5_C#5_A5
1256,Left,1,45,87,600.0,2.979167,DottedQuarter,E3_A2
1260,Right,0,83,89,601.0,0.979167,Eighth,B5
1261,Right,0,88,92,602.0,0.979167,Eighth,E6_C#6_A5
1265,Left,1,40,94,603.0,1.979167,Quarter,E3_E2
1264,Right,0,86,94,603.0,1.979167,Quarter,E6_D6_B5
1269,Right,0,90,97,604.0,0.979167,Eighth,F#6
1273,Left,1,40,99,605.0,2.979167,DottedQuarter,E2
1270,Right,0,83,99,605.0,0.979167,Eighth,G#6_D6_B5
1275,Right,0,83,110,606.0,2.979167,DottedQuarter,G#6_D6_B5
1274,Left,1,33,101,606.0,2.979167,DottedQuarter,A1
1278,Left,1,40,80,608.0,3.979167,Half,E2
1282,Left,1,45,80,609.0,2.979167,DottedQuarter,A2_A1
1279,Right,0,93,80,609.0,2.979167,DottedQuarter,C#6_A6_A5
