,hand,channel,note,velocity,start_beat,duration,note_value,chord
1,Left,1,50,110,0.0,1.489583,DottedQuarter,F#3_D3
0,Right,0,72,110,0.0,1.489583,DottedQuarter,F#4_C5
5,Left,1,49,110,1.5,0.489583,Eighth,G#3_C#3
4,Right,0,73,110,1.5,0.489583,Eighth,F4_C#5
10,Left,1,49,110,2.0,0.489583,Eighth,C#3_B2
8,Right,0,68,110,2.0,0.489583,Eighth,G#4_F4
13,Left,1,49,80,3.5,0.489583,Eighth,C#3_A#2
12,Right,0,66,80,3.5,0.489583,Eighth,F#4_A#4
17,Right,0,71,80,4.0,0.739583,DottedEighth,D#4_B4
16,Left,1,44,80,4.0,0.739583,DottedEighth,G#2
19,Right,0,70,80,4.75,0.239583,Sixteenth,C#4_A#4
21,Left,1,46,80,4.75,0.239583,Sixteenth,A#2
22,Right,0,68,80,5.0,0.489583,Eighth,G#4_B3
24,Left,1,47,80,5.0,0.489583,Eighth,B2
25,Right,0,66,80,5.5,0.489583,Eighth,F#4_A#3
27,Left,1,48,80,5.5,0.489583,Eighth,C3
28,Right,0,65,80,6.0,0.989583,Quarter,G#3_F4
30,Left,1,49,80,6.0,0.989583,Quarter,C#3
31,Left,1,67,110,8.0,1.489583,DottedQuarter,G4_E4
33,Right,0,73,110,8.0,1.489583,DottedQuarter,C#5_A#4
36,Left,1,63,110,9.5,0.489583,Eighth,F#4_D#4
35,Right,0,75,110,9.5,0.489583,Eighth,D#5_B4
41,Right,0,76,110,10.0,0.989583,Quarter,E5_C#5
39,Left,1,61,110,10.0,0.989583,Quarter,E4_C#4
43,Right,0,78,80,11.5,0.489583,Eighth,F#5_D#5
45,Left,1,59,80,11.5,0.489583,Eighth,D#4_B3
47,Left,1,56,80,12.0,0.989583,DottedEighth,G#3_E3
49,Right,0,80,80,12.0,0.739583,DottedEighth,G#5_E5
53,Left,1,61,80,12.75,0.239583,Sixteenth,C#4
51,Right,0,76,80,12.75,0.239583,Sixteenth,E5_C#5
54,Left,1,63,80,13.0,0.489583,Eighth,F#3_D#4
56,Right,0,75,80,13.0,0.489583,Eighth,D#5_B4
58,Left,1,54,80,13.5,0.489583,Eighth,F#3_E4
59,Right,0,73,80,13.5,0.489583,Eighth,C#5_A#4
64,Left,1,59,80,14.0,0.989583,Quarter,D#4_B3
62,Right,0,71,80,14.0,0.989583,Quarter,D#5_B4
66,Right,0,66,80,16.0,1.489583,DottedQuarter,F#4_B4
68,Left,1,63,80,16.0,1.489583,DottedQuarter,D#4
70,Right,0,66,80,17.5,0.489583,Eighth,F#4_A#4
69,Left,1,61,80,17.5,0.489583,Eighth,C#4
73,Left,1,59,80,18.0,0.989583,Quarter,B3
72,Right,0,66,80,18.0,0.989583,Quarter,F#4_D#5
75,Right,0,66,80,19.5,0.489583,Eighth,F#4_C#5
77,Left,1,58,80,19.5,0.489583,Eighth,A#3
80,Left,1,56,80,20.0,0.739583,DottedEighth,G#3
78,Right,0,71,80,20.0,0.989583,DottedEighth,F#4_B4
82,Right,0,70,80,20.75,0.239583,Sixteenth,A#4
81,Left,1,58,80,20.75,0.239583,Sixteenth,A#3
85,Left,1,59,80,21.0,0.489583,Eighth,B3
83,Right,0,68,80,21.0,0.489583,Eighth,G#4_F#4
86,Left,1,49,80,21.5,0.489583,Eighth,C#3
87,Right,0,65,80,21.5,0.489583,Eighth,F4_C#5
89,Left,1,54,80,22.0,0.489583,Eighth,F#3
90,Right,0,70,80,22.0,0.239583,Sixteenth,A#4
91,Right,0,66,81,22.25,0.239583,Sixteenth,F#4
92,Left,1,61,82,22.5,0.489583,Eighth,C#4
93,Right,0,65,82,22.5,0.239583,Sixteenth,F4
94,Right,0,66,83,22.75,0.239583,Sixteenth,F#4
96,Left,1,63,85,23.0,0.489583,Eighth,D#4
95,Right,0,71,85,23.0,0.239583,Sixteenth,B4
97,Right,0,78,86,23.25,0.239583,Sixteenth,F#5
98,Right,0,70,87,23.5,0.239583,Sixteenth,A#4
99,Left,1,61,87,23.5,0.489583,Eighth,C#4
100,Right,0,78,89,23.75,0.239583,Sixteenth,F#5
101,Right,0,75,90,24.0,0.239583,Sixteenth,D#5
102,Left,1,59,90,24.0,0.489583,Eighth,B3
103,Right,0,78,91,24.25,0.239583,Sixteenth,F#5
105,Right,0,73,93,24.5,0.239583,Sixteenth,C#5
104,Left,1,58,93,24.5,0.489583,Eighth,A#3
106,Right,0,78,94,24.75,0.239583,Sixteenth,F#5
108,Left,1,56,95,25.0,0.489583,Eighth,G#3
107,Right,0,77,95,25.0,0.239583,Sixteenth,F5
109,Right,0,80,97,25.25,0.239583,Sixteenth,G#5
111,Right,0,77,98,25.5,0.239583,Sixteenth,F5
110,Left,1,49,98,25.5,0.489583,Eighth,C#3
112,Right,0,85,99,25.75,0.239583,Sixteenth,C#6
114,Right,0,78,110,26.0,0.239583,Sixteenth,F#5
113,Left,1,54,110,26.0,0.489583,Eighth,F#3
115,Right,0,82,110,26.25,0.239583,Sixteenth,A#5
116,Right,0,78,110,26.5,0.239583,Sixteenth,F#5
117,Left,1,49,110,26.5,0.489583,Eighth,C#3
118,Right,0,85,110,26.75,0.239583,Sixteenth,C#6
119,Right,0,78,110,27.0,0.239583,Sixteenth,F#5
120,Left,1,46,110,27.0,0.489583,Eighth,A#2
121,Right,0,85,110,27.25,0.239583,Sixteenth,C#6
123,Left,1,49,110,27.5,0.489583,Eighth,C#3
122,Right,0,82,110,27.5,0.239583,Sixteenth,A#5
124,Right,0,85,110,27.75,0.239583,Sixteenth,C#6
126,Left,1,42,110,28.0,0.489583,Eighth,F#2
125,Right,0,82,110,28.0,0.239583,Sixteenth,A#5
127,Right,0,85,110,28.25,0.239583,Sixteenth,C#6
129,Right,0,82,110,28.5,0.239583,Sixteenth,A#5
128,Left,1,49,110,28.5,0.489583,Eighth,C#3
130,Right,0,85,110,28.75,0.239583,Sixteenth,C#6
132,Left,1,37,110,29.0,0.489583,Eighth,C#2
131,Right,0,80,110,29.0,0.239583,Sixteenth,G#5
133,Right,0,83,110,29.25,0.239583,Sixteenth,B5
135,Left,1,49,110,29.5,0.489583,Eighth,C#3
134,Right,0,77,110,29.5,0.239583,Sixteenth,F5
136,Right,0,85,110,29.75,0.239583,Sixteenth,C#6
138,Right,0,82,110,30.0,0.239583,Sixteenth,A#5
137,Left,1,42,110,30.0,0.489583,Eighth,F#2
139,Right,0,78,110,30.25,0.239583,Sixteenth,F#5
141,Right,0,70,110,30.5,0.239583,Sixteenth,A#4
140,Left,1,61,110,30.5,0.489583,Eighth,C#4
142,Right,0,78,110,30.75,0.239583,Sixteenth,F#5
144,Right,0,71,110,31.0,0.239583,Sixteenth,B4
143,Left,1,63,110,31.0,0.489583,Eighth,D#4
145,Right,0,78,110,31.25,0.239583,Sixteenth,F#5
147,Left,1,61,110,31.5,0.489583,Eighth,C#4
146,Right,0,70,110,31.5,0.239583,Sixteenth,A#4
148,Right,0,78,110,31.75,0.239583,Sixteenth,F#5
149,Left,1,59,110,32.0,0.489583,Eighth,B3
150,Right,0,75,110,32.0,0.239583,Sixteenth,D#5
151,Right,0,78,110,32.25,0.239583,Sixteenth,F#5
152,Right,0,73,110,32.5,0.239583,Sixteenth,C#5
153,Left,1,58,110,32.5,0.489583,Eighth,A#3
154,Right,0,78,110,32.75,0.239583,Sixteenth,F#5
155,Left,1,56,110,33.0,0.489583,Eighth,G#3
156,Right,0,77,110,33.0,0.239583,Sixteenth,F5
157,Right,0,80,110,33.25,0.239583,Sixteenth,G#5
159,Right,0,77,110,33.5,0.239583,Sixteenth,F5
158,Left,1,49,110,33.5,0.489583,Eighth,C#3
160,Right,0,85,110,33.75,0.239583,Sixteenth,C#6
161,Left,1,54,110,34.0,0.489583,Eighth,F#3
162,Right,0,78,110,34.0,0.239583,Sixteenth,F#5
163,Right,0,82,110,34.25,0.239583,Sixteenth,A#5
164,Left,1,49,110,34.5,0.489583,Eighth,C#3
165,Right,0,78,110,34.5,0.239583,Sixteenth,F#5
166,Right,0,85,110,34.75,0.239583,Sixteenth,C#6
168,Left,1,46,110,35.0,0.489583,Eighth,A#2
167,Right,0,78,110,35.0,0.239583,Sixteenth,F#5
169,Right,0,85,110,35.25,0.239583,Sixteenth,C#6
171,Right,0,82,110,35.5,0.239583,Sixteenth,A#5
170,Left,1,49,110,35.5,0.489583,Eighth,C#3
172,Right,0,85,110,35.75,0.239583,Sixteenth,C#6
173,Right,0,82,110,36.0,0.239583,Sixteenth,A#5
174,Left,1,42,110,36.0,0.489583,Eighth,F#2
175,Right,0,85,110,36.25,0.239583,Sixteenth,C#6
177,Right,0,82,110,36.5,0.239583,Sixteenth,A#5
176,Left,1,49,110,36.5,0.489583,Eighth,C#3
178,Right,0,85,110,36.75,0.239583,Sixteenth,C#6
180,Right,0,80,110,37.0,0.239583,Sixteenth,G#5
179,Left,1,37,110,37.0,0.489583,Eighth,C#2
181,Right,0,83,110,37.25,0.239583,Sixteenth,B5
183,Right,0,77,110,37.5,0.239583,Sixteenth,F5
182,Left,1,49,110,37.5,0.489583,Eighth,C#3
184,Right,0,85,110,37.75,0.239583,Sixteenth,C#6
186,Right,0,82,110,38.0,0.239583,Sixteenth,A#5
185,Left,1,42,110,38.0,0.489583,Eighth,F#2
187,Right,0,85,110,38.25,0.239583,Sixteenth,C#6
189,Right,0,82,110,38.5,0.239583,Sixteenth,F#5_A#5
188,Left,1,54,110,38.5,0.489583,Eighth,F#3
191,Right,0,85,110,38.75,0.239583,Sixteenth,C#6
193,Left,1,39,110,39.0,0.489583,Eighth,D#2
192,Right,0,78,110,39.0,0.239583,Sixteenth,F#5
194,Right,0,80,110,39.25,0.239583,Sixteenth,G#5
196,Left,1,51,110,39.5,0.489583,Eighth,D#3
195,Right,0,78,110,39.5,0.239583,Sixteenth,F#5
197,Right,0,83,110,39.75,0.239583,Sixteenth,B5
198,Right,0,78,110,40.0,0.239583,Sixteenth,F#5
199,Left,1,35,110,40.0,0.489583,Eighth,B1
200,Right,0,80,110,40.25,0.239583,Sixteenth,G#5
202,Left,1,47,110,40.5,0.489583,Eighth,B2
201,Right,0,78,110,40.5,0.239583,Sixteenth,F#5
203,Right,0,87,110,40.75,0.239583,Sixteenth,D#6
204,Right,0,78,110,41.0,0.239583,Sixteenth,F#5
205,Left,1,32,110,41.0,0.489583,Eighth,G#1
206,Right,0,80,110,41.25,0.239583,Sixteenth,G#5
207,Left,1,44,110,41.5,0.489583,Eighth,G#2
208,Right,0,78,110,41.5,0.239583,Sixteenth,F#5
209,Right,0,87,110,41.75,0.239583,Sixteenth,D#6
211,Right,0,85,110,42.0,0.489583,Eighth,G#5_F5_C#6
210,Left,1,37,110,42.0,0.489583,Eighth,C#3_C#2
215,Right,0,60,110,42.5,0.239583,Sixteenth,C4
216,Right,0,61,110,42.75,0.239583,Sixteenth,C#4
217,Left,1,60,110,43.0,0.239583,Sixteenth,C4
218,Left,1,61,110,43.25,0.239583,Sixteenth,C#4
219,Right,0,64,110,43.5,0.239583,Sixteenth,E4
220,Right,0,65,110,43.75,0.239583,Sixteenth,F4
221,Left,1,64,110,44.0,0.239583,Sixteenth,E4
222,Left,1,65,110,44.25,0.239583,Sixteenth,F4
223,Right,0,67,110,44.5,0.239583,Sixteenth,G4
224,Right,0,68,110,44.75,0.239583,Sixteenth,G#4
225,Left,1,67,110,45.0,0.239583,Sixteenth,G4
226,Left,1,68,110,45.25,0.239583,Sixteenth,G#4
227,Right,0,72,110,45.5,0.239583,Sixteenth,C5
228,Right,0,73,110,45.75,0.239583,Sixteenth,C#5
229,Left,1,72,110,46.0,0.239583,Sixteenth,C5
230,Left,1,73,110,46.25,0.239583,Sixteenth,C#5
231,Right,0,76,110,46.5,0.239583,Sixteenth,E5
232,Right,0,77,110,46.75,0.239583,Sixteenth,F5
233,Left,1,76,110,47.0,0.239583,Sixteenth,E5
234,Left,1,77,110,47.25,0.239583,Sixteenth,F5
235,Right,0,79,110,47.5,0.239583,Sixteenth,G5
236,Right,0,80,110,47.75,0.239583,Sixteenth,G#5
237,Left,1,79,110,48.0,0.239583,Sixteenth,G5
238,Left,1,80,110,48.25,0.239583,Sixteenth,G#5
239,Right,0,84,110,48.5,0.239583,Sixteenth,C6
240,Right,0,85,110,48.75,0.239583,Sixteenth,C#6
241,Left,1,84,110,49.0,0.239583,Sixteenth,C6
242,Left,1,85,110,49.25,0.239583,Sixteenth,C#6
243,Right,0,88,110,49.5,0.239583,Sixteenth,E6
244,Right,0,89,110,49.75,0.239583,Sixteenth,F6
245,Left,1,88,80,50.0,0.239583,Sixteenth,E6
246,Left,1,89,80,50.25,0.239583,Sixteenth,F6
247,Right,0,91,80,50.5,0.239583,Sixteenth,G6
248,Right,0,92,80,50.75,0.239583,Sixteenth,G#6
249,Left,1,84,80,51.0,0.239583,Sixteenth,C6
250,Left,1,85,80,51.25,0.239583,Sixteenth,C#6
251,Right,0,88,80,51.5,0.239583,Sixteenth,E6
252,Right,0,89,80,51.75,0.239583,Sixteenth,F6
253,Left,1,79,80,52.0,0.239583,Sixteenth,G5
254,Left,1,80,80,52.25,0.239583,Sixteenth,G#5
255,Right,0,84,80,52.5,0.239583,Sixteenth,C6
256,Right,0,85,80,52.75,0.239583,Sixteenth,C#6
257,Left,1,76,80,53.0,0.239583,Sixteenth,E5
258,Left,1,77,80,53.25,0.239583,Sixteenth,F5
259,Right,0,79,80,53.5,0.239583,Sixteenth,G5
260,Right,0,80,80,53.75,0.239583,Sixteenth,G#5
261,Left,1,72,80,54.0,0.239583,Sixteenth,C5
262,Left,1,73,80,54.25,0.239583,Sixteenth,C#5
263,Right,0,76,80,54.5,0.239583,Sixteenth,E5
264,Right,0,77,80,54.75,0.239583,Sixteenth,F5
265,Left,1,67,80,55.0,0.239583,Sixteenth,G4
266,Left,1,68,80,55.25,0.239583,Sixteenth,G#4
267,Right,0,72,80,55.5,0.239583,Sixteenth,C5
268,Right,0,73,80,55.75,0.239583,Sixteenth,C#5
269,Left,1,64,80,56.0,0.239583,Sixteenth,E4
270,Left,1,65,80,56.25,0.239583,Sixteenth,F4
271,Right,0,72,80,56.5,0.239583,Sixteenth,C5
272,Right,0,73,80,56.75,0.239583,Sixteenth,C#5
273,Left,1,60,80,57.0,0.239583,Sixteenth,C4
274,Left,1,61,80,57.25,0.239583,Sixteenth,C#4
275,Right,0,72,80,57.5,0.239583,Sixteenth,C5
276,Right,0,73,80,57.75,0.239583,Sixteenth,C#5
277,Left,1,60,70,58.0,0.239583,Sixteenth,C4
278,Left,1,61,70,58.25,0.239583,Sixteenth,C#4
279,Right,0,72,70,58.5,0.239583,Sixteenth,C5
280,Right,0,73,70,58.75,0.239583,Sixteenth,C#5
281,Left,1,48,70,59.0,0.239583,Sixteenth,C3
282,Left,1,49,70,59.25,0.239583,Sixteenth,C#3
283,Right,0,60,70,59.5,0.239583,Sixteenth,C4
284,Right,0,61,70,59.75,0.239583,Sixteenth,C#4
285,Left,1,60,70,60.0,0.239583,Sixteenth,C4
286,Left,1,61,70,60.25,0.239583,Sixteenth,C#4
287,Right,0,72,70,60.5,0.239583,Sixteenth,C5
288,Right,0,73,70,60.75,0.239583,Sixteenth,C#5
289,Left,1,48,70,61.0,0.239583,Sixteenth,C3
290,Left,1,49,70,61.25,0.239583,Sixteenth,C#3
291,Right,0,60,70,61.5,0.239583,Sixteenth,C4
292,Right,0,61,70,61.75,0.239583,Sixteenth,C#4
293,Right,0,72,110,62.0,1.489583,DottedQuarter,F#4_C5
295,Left,1,54,110,62.0,1.489583,DottedQuarter,F#3_D3
297,Right,0,65,110,63.5,0.489583,Eighth,F4_C#5
299,Left,1,56,110,63.5,0.489583,Eighth,G#3_C#3
303,Left,1,47,110,64.0,0.989583,Quarter,C#3_B2
301,Right,0,65,110,64.0,0.989583,Quarter,G#4_F4
305,Right,0,70,80,65.5,0.489583,Eighth,F#4_A#4
306,Left,1,46,80,65.5,0.489583,Eighth,C#3_A#2
309,Right,0,71,80,66.0,0.739583,DottedEighth,D#4_B4
311,Left,1,44,80,66.0,0.739583,DottedEighth,G#2
312,Right,0,61,80,66.75,0.239583,Sixteenth,C#4_A#4
313,Left,1,46,80,66.75,0.239583,Sixteenth,A#2
315,Left,1,47,80,67.0,0.489583,Eighth,B2
316,Right,0,59,80,67.0,0.489583,Eighth,G#4_B3
319,Right,0,58,80,67.5,0.489583,Eighth,F#4_A#3
318,Left,1,48,80,67.5,0.489583,Eighth,C3
321,Left,1,49,80,68.0,0.989583,Quarter,C#3
322,Right,0,56,80,68.0,0.989583,Quarter,G#3_F4
325,Left,1,64,110,70.0,1.489583,DottedQuarter,G4_E4
324,Right,0,70,110,70.0,1.489583,DottedQuarter,C#5_A#4
328,Right,0,71,110,71.5,0.489583,Eighth,D#5_B4
329,Left,1,63,110,71.5,0.489583,Eighth,F#4_D#4
333,Left,1,64,110,72.0,0.989583,Quarter,E4_C#4
332,Right,0,73,110,72.0,0.989583,Quarter,E5_C#5
336,Left,1,59,80,73.5,0.489583,Eighth,D#4_B3
337,Right,0,75,80,73.5,0.489583,Eighth,F#5_D#5
342,Left,1,56,80,74.0,0.989583,DottedEighth,G#3_E3
340,Right,0,80,80,74.0,0.739583,DottedEighth,G#5_E5
344,Right,0,76,80,74.75,0.239583,Sixteenth,E5_C#5
346,Left,1,61,80,74.75,0.239583,Sixteenth,C#4
347,Right,0,71,80,75.0,0.489583,Eighth,D#5_B4
349,Left,1,63,80,75.0,0.489583,Eighth,F#3_D#4
353,Right,0,70,80,75.5,0.489583,Eighth,C#5_A#4
351,Left,1,64,80,75.5,0.489583,Eighth,F#3_E4
356,Right,0,71,80,76.0,0.989583,Quarter,D#5_B4
355,Left,1,59,80,76.0,0.989583,Quarter,D#4_B3
360,Right,0,71,70,78.0,1.489583,DottedQuarter,F#4_B4
359,Left,1,63,70,78.0,1.489583,DottedQuarter,D#4
364,Left,1,61,70,79.5,0.489583,Eighth,C#4
362,Right,0,66,70,79.5,0.489583,Eighth,F#4_A#4
365,Left,1,59,70,80.0,0.989583,Quarter,B3
366,Right,0,75,70,80.0,0.989583,Quarter,F#4_D#5
370,Left,1,58,70,81.5,0.489583,Eighth,A#3
368,Right,0,66,70,81.5,0.489583,Eighth,F#4_C#5
371,Left,1,56,70,82.0,0.739583,DottedEighth,G#3
372,Right,0,71,70,82.0,0.989583,DottedEighth,F#4_B4
375,Right,0,70,70,82.75,0.239583,Sixteenth,A#4
374,Left,1,58,70,82.75,0.239583,Sixteenth,A#3
377,Right,0,68,70,83.0,0.489583,Eighth,G#4_F#4
376,Left,1,59,70,83.0,0.489583,Eighth,B3
379,Right,0,65,80,83.5,0.489583,Eighth,F4_C#5
380,Left,1,49,80,83.5,0.489583,Eighth,C#3
383,Right,0,70,70,84.0,0.239583,Sixteenth,A#4
382,Left,1,54,70,84.0,0.489583,Eighth,F#3
384,Right,0,66,72,84.25,0.239583,Sixteenth,F#4
385,Right,0,65,75,84.5,0.239583,Sixteenth,F4
386,Left,1,61,75,84.5,0.489583,Eighth,C#4
387,Right,0,66,77,84.75,0.239583,Sixteenth,F#4
389,Right,0,71,80,85.0,0.239583,Sixteenth,B4
388,Left,1,63,80,85.0,0.489583,Eighth,D#4
390,Right,0,78,83,85.25,0.239583,Sixteenth,F#5
392,Left,1,61,85,85.5,0.489583,Eighth,C#4
391,Right,0,70,85,85.5,0.239583,Sixteenth,A#4
393,Right,0,78,88,85.75,0.239583,Sixteenth,F#5
394,Right,0,75,91,86.0,0.239583,Sixteenth,D#5
395,Left,1,59,91,86.0,0.489583,Eighth,B3
396,Right,0,78,93,86.25,0.239583,Sixteenth,F#5
398,Right,0,73,96,86.5,0.239583,Sixteenth,C#5
397,Left,1,58,96,86.5,0.489583,Eighth,A#3
399,Right,0,78,99,86.75,0.239583,Sixteenth,F#5
401,Right,0,77,101,87.0,0.239583,Sixteenth,F5
400,Left,1,56,101,87.0,0.489583,Eighth,G#3
402,Right,0,80,104,87.25,0.239583,Sixteenth,G#5
404,Left,1,49,107,87.5,0.489583,Eighth,C#3
403,Right,0,77,107,87.5,0.239583,Sixteenth,F5
405,Right,0,85,109,87.75,0.239583,Sixteenth,C#6
407,Right,0,78,110,88.0,0.239583,Sixteenth,F#5
406,Left,1,54,110,88.0,0.489583,Eighth,F#3
408,Right,0,82,110,88.25,0.239583,Sixteenth,A#5
409,Right,0,78,110,88.5,0.239583,Sixteenth,F#5
410,Left,1,49,110,88.5,0.489583,Eighth,C#3
411,Right,0,85,110,88.75,0.239583,Sixteenth,C#6
412,Left,1,46,110,89.0,0.489583,Eighth,A#2
413,Right,0,78,110,89.0,0.239583,Sixteenth,F#5
414,Right,0,85,110,89.25,0.239583,Sixteenth,C#6
415,Right,0,82,110,89.5,0.239583,Sixteenth,A#5
416,Left,1,49,110,89.5,0.489583,Eighth,C#3
417,Right,0,85,110,89.75,0.239583,Sixteenth,C#6
419,Left,1,42,110,90.0,0.489583,Eighth,F#2
418,Right,0,82,110,90.0,0.239583,Sixteenth,A#5
420,Right,0,85,110,90.25,0.239583,Sixteenth,C#6
422,Left,1,49,110,90.5,0.489583,Eighth,C#3
421,Right,0,82,110,90.5,0.239583,Sixteenth,A#5
423,Right,0,85,110,90.75,0.239583,Sixteenth,C#6
425,Right,0,80,110,91.0,0.239583,Sixteenth,G#5
424,Left,1,37,110,91.0,0.489583,Eighth,C#2
426,Right,0,83,110,91.25,0.239583,Sixteenth,B5
428,Right,0,77,110,91.5,0.239583,Sixteenth,F5
427,Left,1,49,110,91.5,0.489583,Eighth,C#3
429,Right,0,85,110,91.75,0.239583,Sixteenth,C#6
430,Right,0,82,110,92.0,0.239583,Sixteenth,A#5
431,Left,1,42,110,92.0,0.489583,Eighth,F#2
432,Right,0,78,110,92.25,0.239583,Sixteenth,F#5
433,Right,0,70,110,92.5,0.239583,Sixteenth,A#4
434,Left,1,61,110,92.5,0.489583,Eighth,C#4
435,Right,0,78,110,92.75,0.239583,Sixteenth,F#5
436,Right,0,71,110,93.0,0.239583,Sixteenth,B4
437,Left,1,63,110,93.0,0.489583,Eighth,D#4
438,Right,0,78,110,93.25,0.239583,Sixteenth,F#5
440,Right,0,70,110,93.5,0.239583,Sixteenth,A#4
439,Left,1,61,110,93.5,0.489583,Eighth,C#4
441,Right,0,78,110,93.75,0.239583,Sixteenth,F#5
443,Right,0,75,110,94.0,0.239583,Sixteenth,D#5
442,Left,1,59,110,94.0,0.489583,Eighth,B3
444,Right,0,78,110,94.25,0.239583,Sixteenth,F#5
446,Left,1,58,110,94.5,0.489583,Eighth,A#3
445,Right,0,73,110,94.5,0.239583,Sixteenth,C#5
447,Right,0,78,110,94.75,0.239583,Sixteenth,F#5
449,Left,1,56,110,95.0,0.489583,Eighth,G#3
448,Right,0,77,110,95.0,0.239583,Sixteenth,F5
450,Right,0,80,110,95.25,0.239583,Sixteenth,G#5
451,Right,0,77,110,95.5,0.239583,Sixteenth,F5
452,Left,1,49,110,95.5,0.489583,Eighth,C#3
453,Right,0,85,110,95.75,0.239583,Sixteenth,C#6
454,Left,1,54,110,96.0,0.489583,Eighth,F#3
455,Right,0,78,110,96.0,0.239583,Sixteenth,F#5
456,Right,0,82,110,96.25,0.239583,Sixteenth,A#5
458,Right,0,78,110,96.5,0.239583,Sixteenth,F#5
457,Left,1,42,110,96.5,0.489583,Eighth,F#2
459,Right,0,85,110,96.75,0.239583,Sixteenth,C#6
460,Left,1,51,110,97.0,0.489583,Eighth,D#3
461,Right,0,78,110,97.0,0.239583,Sixteenth,F#5
462,Right,0,82,110,97.25,0.239583,Sixteenth,A#5
464,Left,1,39,110,97.5,0.489583,Eighth,D#2
463,Right,0,78,110,97.5,0.239583,Sixteenth,F#5
465,Right,0,87,110,97.75,0.239583,Sixteenth,D#6
466,Left,1,47,110,98.0,0.489583,Eighth,B2
467,Right,0,78,110,98.0,0.239583,Sixteenth,F#5
468,Right,0,87,110,98.25,0.239583,Sixteenth,D#6
470,Left,1,35,110,98.5,0.489583,Eighth,B1
469,Right,0,78,110,98.5,0.239583,Sixteenth,F#5
471,Right,0,87,110,98.75,0.239583,Sixteenth,D#6
472,Left,1,45,110,99.0,0.489583,Eighth,A2
473,Right,0,78,110,99.0,0.239583,Sixteenth,F#5
474,Right,0,87,110,99.25,0.239583,Sixteenth,D#6
476,Right,0,78,110,99.5,0.239583,Sixteenth,F#5
475,Left,1,33,110,99.5,0.489583,Eighth,A1
477,Right,0,87,110,99.75,0.239583,Sixteenth,D#6
478,Right,0,86,110,100.0,0.489583,Eighth,F5_D6
480,Left,1,46,110,100.0,0.489583,Eighth,A#2_A#1
482,Right,0,71,110,100.5,0.427083,DottedSixteenth,B4
483,Right,0,70,110,100.75,0.239583,Sixteenth,A#4
484,Left,1,70,110,101.0,0.489583,Eighth,A#4
485,Left,1,68,110,101.25,0.239583,Sixteenth,G#4
486,Right,0,70,110,101.5,0.458333,Eighth,A#4
487,Right,0,68,110,101.75,0.239583,Sixteenth,G#4
488,Left,1,68,110,102.0,0.458333,Eighth,G#4
489,Left,1,66,110,102.25,0.239583,Sixteenth,F#4
490,Right,0,68,110,102.5,0.447917,Eighth,G#4
491,Right,0,66,110,102.75,0.239583,Sixteenth,F#4
492,Left,1,66,110,103.0,0.46875,Eighth,F#4
493,Left,1,65,110,103.25,0.239583,Sixteenth,F4
494,Right,0,66,110,103.5,0.458333,Eighth,F#4
495,Right,0,65,110,103.75,0.239583,Sixteenth,F4
496,Left,1,65,110,104.0,0.458333,Eighth,F4
497,Left,1,63,110,104.25,0.239583,Sixteenth,D#4
498,Right,0,65,110,104.5,0.479167,Eighth,F4
499,Right,0,63,110,104.75,0.239583,Sixteenth,D#4
500,Left,1,63,110,105.0,0.46875,Eighth,D#4
501,Left,1,61,110,105.25,0.239583,Sixteenth,C#4
502,Right,0,63,110,105.5,0.46875,Eighth,D#4
503,Right,0,61,110,105.75,0.239583,Sixteenth,C#4
504,Left,1,61,110,106.0,0.4375,Eighth,C#4
505,Left,1,59,110,106.25,0.239583,Sixteenth,B3
506,Right,0,61,110,106.5,0.447917,Eighth,C#4
507,Right,0,59,110,106.75,0.239583,Sixteenth,B3
508,Left,1,59,110,107.0,0.427083,DottedSixteenth,B3
509,Left,1,58,110,107.25,0.239583,Sixteenth,A#3
510,Right,0,59,110,107.5,0.447917,Eighth,B3
511,Right,0,58,110,107.75,0.239583,Sixteenth,A#3
512,Left,1,58,110,108.0,0.239583,Sixteenth,A#3
513,Left,1,57,109,108.25,0.239583,Sixteenth,A3
514,Right,0,58,107,108.5,0.489583,Eighth,A#3
515,Right,0,57,105,108.75,0.239583,Sixteenth,A3
516,Left,1,58,103,109.0,0.239583,Sixteenth,A#3
517,Left,1,56,101,109.25,0.239583,Sixteenth,G#3
518,Right,0,58,99,109.5,0.447917,Eighth,A#3
519,Right,0,56,97,109.75,0.239583,Sixteenth,G#3
520,Left,1,58,95,110.0,0.239583,Sixteenth,A#3
521,Left,1,54,93,110.25,0.239583,Sixteenth,F#3
522,Right,0,58,91,110.5,0.239583,Sixteenth,A#3
523,Right,0,54,89,110.75,0.239583,Sixteenth,F#3
524,Left,1,58,87,111.0,0.239583,Sixteenth,A#3
525,Left,1,53,85,111.25,0.239583,Sixteenth,F3
526,Right,0,58,83,111.5,0.239583,Sixteenth,A#3
527,Right,0,53,81,111.75,0.239583,Sixteenth,F3
528,Left,1,39,110,112.0,1.989583,Half,D#2
530,Left,1,55,110,112.5,1.489583,DottedQuarter,G3
529,Right,0,58,110,112.5,0.489583,Eighth,A#3
531,Right,0,63,110,112.75,0.239583,Sixteenth,D#4
533,Left,1,58,110,113.0,1.489583,DottedQuarter,A#3
532,Right,0,63,110,113.0,0.489583,Eighth,D#4
534,Right,0,67,110,113.25,0.239583,Sixteenth,G4
535,Right,0,67,110,113.5,0.489583,Eighth,G4
536,Left,1,63,110,113.5,1.489583,DottedQuarter,D#4
537,Right,0,70,110,113.75,0.239583,Sixteenth,A#4
539,Left,1,67,110,114.0,1.489583,DottedQuarter,G4
538,Right,0,70,110,114.0,0.489583,Eighth,A#4
540,Right,0,75,110,114.25,0.239583,Sixteenth,D#5
542,Left,1,70,110,114.5,1.489583,DottedQuarter,A#4
541,Right,0,75,110,114.5,0.489583,Eighth,D#5
543,Right,0,79,110,114.75,0.239583,Sixteenth,G5
544,Right,0,79,110,115.0,0.489583,Eighth,G5
545,Left,1,75,110,115.0,0.989583,Quarter,D#5
546,Right,0,82,110,115.25,0.239583,Sixteenth,A#5
547,Right,0,82,110,115.5,0.489583,Eighth,A#5
548,Left,1,79,110,115.5,0.989583,Quarter,G5
549,Right,0,87,110,115.75,0.489583,Eighth,D#6
551,Right,0,91,110,116.0,0.489583,Eighth,G6
550,Left,1,82,110,116.0,0.489583,Eighth,A#5
553,Right,0,66,80,116.5,0.239583,Sixteenth,F#4
552,Left,1,51,80,116.5,0.489583,Eighth,D#3
554,Right,0,70,80,116.75,0.239583,Sixteenth,A#4
555,Right,0,63,80,117.0,0.239583,Sixteenth,D#4
556,Left,1,54,80,117.0,0.489583,Eighth,F#3
557,Right,0,70,80,117.25,0.239583,Sixteenth,A#4
558,Right,0,66,80,117.5,0.239583,Sixteenth,F#4
559,Left,1,51,80,117.5,0.489583,Eighth,D#3
560,Right,0,70,80,117.75,0.239583,Sixteenth,A#4
561,Right,0,63,80,118.0,0.239583,Sixteenth,D#4
562,Left,1,54,80,118.0,0.489583,Eighth,F#3
563,Right,0,70,80,118.25,0.239583,Sixteenth,A#4
564,Right,0,66,80,118.5,0.239583,Sixteenth,F#4
565,Left,1,51,80,118.5,0.489583,Eighth,D#3
566,Right,0,70,80,118.75,0.239583,Sixteenth,A#4
568,Left,1,46,80,119.0,0.989583,Quarter,F3_A#2
567,Right,0,68,80,119.0,0.239583,Sixteenth,G#4
570,Right,0,70,80,119.25,0.239583,Sixteenth,A#4
572,Right,0,65,80,119.5,0.239583,Sixteenth,F4
571,Left,1,50,80,119.5,0.489583,Eighth,D3
573,Right,0,70,80,119.75,0.239583,Sixteenth,A#4
574,Left,1,39,110,120.0,1.989583,Half,D#2
576,Left,1,55,110,120.5,1.489583,DottedQuarter,G3
575,Right,0,58,110,120.5,0.489583,Eighth,A#3
577,Right,0,63,110,120.75,0.239583,Sixteenth,D#4
579,Right,0,63,110,121.0,0.489583,Eighth,D#4
578,Left,1,58,110,121.0,1.489583,DottedQuarter,A#3
580,Right,0,67,110,121.25,0.239583,Sixteenth,G4
582,Right,0,67,110,121.5,0.489583,Eighth,G4
581,Left,1,63,110,121.5,1.489583,DottedQuarter,D#4
583,Right,0,70,110,121.75,0.239583,Sixteenth,A#4
584,Left,1,67,110,122.0,1.489583,DottedQuarter,G4
585,Right,0,70,110,122.0,0.489583,Eighth,A#4
586,Right,0,75,110,122.25,0.239583,Sixteenth,D#5
587,Left,1,70,110,122.5,1.489583,DottedQuarter,A#4
588,Right,0,75,110,122.5,0.489583,Eighth,D#5
589,Right,0,79,110,122.75,0.239583,Sixteenth,G5
590,Right,0,79,110,123.0,0.489583,Eighth,G5
591,Left,1,75,110,123.0,0.989583,Quarter,D#5
592,Right,0,82,110,123.25,0.239583,Sixteenth,A#5
594,Right,0,82,110,123.5,0.489583,Eighth,A#5
593,Left,1,79,110,123.5,0.989583,Quarter,G5
595,Right,0,87,110,123.75,0.489583,Eighth,D#6
597,Left,1,82,110,124.0,0.489583,Eighth,A#5
596,Right,0,91,110,124.0,0.489583,Eighth,G6
599,Left,1,51,80,124.5,0.489583,Eighth,D#3
598,Right,0,66,80,124.5,0.239583,Sixteenth,F#4
600,Right,0,70,80,124.75,0.239583,Sixteenth,A#4
601,Right,0,63,80,125.0,0.239583,Sixteenth,D#4
602,Left,1,54,80,125.0,0.489583,Eighth,F#3
603,Right,0,70,80,125.25,0.239583,Sixteenth,A#4
604,Right,0,66,80,125.5,0.239583,Sixteenth,F#4
605,Left,1,51,80,125.5,0.489583,Eighth,D#3
606,Right,0,70,80,125.75,0.239583,Sixteenth,A#4
607,Right,0,63,80,126.0,0.239583,Sixteenth,D#4
608,Left,1,54,80,126.0,0.489583,Eighth,F#3
609,Right,0,70,80,126.25,0.239583,Sixteenth,A#4
610,Left,1,51,80,126.5,0.489583,Eighth,D#3
611,Right,0,66,80,126.5,0.239583,Sixteenth,F#4
612,Right,0,70,80,126.75,0.239583,Sixteenth,A#4
614,Right,0,68,80,127.0,0.239583,Sixteenth,G#4
613,Left,1,46,80,127.0,0.989583,Quarter,F3_A#2
616,Right,0,70,80,127.25,0.239583,Sixteenth,A#4
618,Right,0,65,80,127.5,0.239583,Sixteenth,F4
617,Left,1,50,80,127.5,0.489583,Eighth,D3
619,Right,0,70,80,127.75,0.239583,Sixteenth,A#4
620,Left,1,51,80,128.0,0.489583,Eighth,D#3
621,Right,0,63,80,128.0,0.239583,Sixteenth,D#4
622,Right,0,66,81,128.25,0.239583,Sixteenth,F#4
624,Right,0,66,83,128.5,0.239583,Sixteenth,F#4
623,Left,1,51,83,128.5,0.489583,Eighth,D#3
625,Right,0,75,85,128.75,0.239583,Sixteenth,D#5
627,Right,0,65,87,129.0,0.239583,Sixteenth,F4
626,Left,1,58,87,129.0,0.489583,Eighth,A#3
628,Right,0,74,89,129.25,0.239583,Sixteenth,D5
629,Right,0,74,91,129.5,0.239583,Sixteenth,D5
630,Left,1,46,91,129.5,0.489583,Eighth,A#2
631,Right,0,77,93,129.75,0.239583,Sixteenth,F5
632,Right,0,66,95,130.0,0.239583,Sixteenth,F#4
633,Left,1,51,95,130.0,0.489583,Eighth,D#3
634,Right,0,75,97,130.25,0.239583,Sixteenth,D#5
636,Left,1,39,99,130.5,0.489583,Eighth,D#2
635,Right,0,75,99,130.5,0.239583,Sixteenth,D#5
637,Right,0,78,101,130.75,0.239583,Sixteenth,F#5
638,Left,1,46,103,131.0,0.489583,Eighth,A#2
639,Right,0,74,103,131.0,0.239583,Sixteenth,D5
640,Right,0,77,105,131.25,0.239583,Sixteenth,F5
641,Left,1,34,107,131.5,0.489583,Eighth,A#1
642,Right,0,77,107,131.5,0.239583,Sixteenth,F5
643,Right,0,80,109,131.75,0.239583,Sixteenth,G#5
644,Right,0,66,110,132.0,0.239583,Sixteenth,F#4
645,Left,1,39,110,132.0,0.489583,Eighth,D#2
646,Right,0,75,110,132.25,0.239583,Sixteenth,D#5
647,Left,1,51,110,132.5,0.489583,Eighth,D#3
648,Right,0,75,110,132.5,0.239583,Sixteenth,D#5
649,Right,0,78,110,132.75,0.239583,Sixteenth,F#5
650,Right,0,74,110,133.0,0.239583,Sixteenth,D5
651,Left,1,58,110,133.0,0.489583,Eighth,A#3
652,Right,0,77,110,133.25,0.239583,Sixteenth,F5
653,Right,0,77,110,133.5,0.239583,Sixteenth,F5
654,Left,1,46,110,133.5,0.489583,Eighth,A#2
655,Right,0,80,110,133.75,0.239583,Sixteenth,G#5
656,Left,1,51,110,134.0,0.489583,Eighth,D#3
657,Right,0,75,110,134.0,0.239583,Sixteenth,D#5
658,Right,0,78,110,134.25,0.239583,Sixteenth,F#5
659,Right,0,78,110,134.5,0.239583,Sixteenth,F#5
660,Left,1,39,110,134.5,0.489583,Eighth,D#2
661,Right,0,87,110,134.75,0.239583,Sixteenth,D#6
662,Left,1,46,110,135.0,0.489583,Eighth,A#2
663,Right,0,77,110,135.0,0.239583,Sixteenth,F5
664,Right,0,86,110,135.25,0.239583,Sixteenth,D6
665,Right,0,80,110,135.5,0.239583,Sixteenth,G#5
666,Left,1,34,110,135.5,0.489583,Eighth,A#1
667,Right,0,89,110,135.75,0.239583,Sixteenth,F6
668,Left,1,39,80,136.0,0.489583,Eighth,D#2
669,Right,0,63,80,136.0,0.239583,Sixteenth,D#4
670,Right,0,66,81,136.25,0.239583,Sixteenth,F#4
672,Left,1,51,83,136.5,0.489583,Eighth,D#3
671,Right,0,66,83,136.5,0.239583,Sixteenth,F#4
673,Right,0,75,85,136.75,0.239583,Sixteenth,D#5
675,Right,0,65,87,137.0,0.239583,Sixteenth,F4
674,Left,1,58,87,137.0,0.489583,Eighth,A#3
676,Right,0,74,89,137.25,0.239583,Sixteenth,D5
677,Left,1,46,91,137.5,0.489583,Eighth,A#2
678,Right,0,74,91,137.5,0.239583,Sixteenth,D5
679,Right,0,77,93,137.75,0.239583,Sixteenth,F5
681,Left,1,51,95,138.0,0.489583,Eighth,D#3
680,Right,0,66,95,138.0,0.239583,Sixteenth,F#4
682,Right,0,75,97,138.25,0.239583,Sixteenth,D#5
684,Right,0,75,99,138.5,0.239583,Sixteenth,D#5
683,Left,1,39,99,138.5,0.489583,Eighth,D#2
685,Right,0,78,101,138.75,0.239583,Sixteenth,F#5
687,Right,0,74,103,139.0,0.239583,Sixteenth,D5
686,Left,1,46,103,139.0,0.489583,Eighth,A#2
688,Right,0,77,105,139.25,0.239583,Sixteenth,F5
690,Left,1,34,107,139.5,0.489583,Eighth,A#1
689,Right,0,77,107,139.5,0.239583,Sixteenth,F5
691,Right,0,80,109,139.75,0.239583,Sixteenth,G#5
692,Left,1,39,110,140.0,0.489583,Eighth,D#2
693,Right,0,66,110,140.0,0.239583,Sixteenth,F#4
694,Right,0,75,110,140.25,0.239583,Sixteenth,D#5
695,Left,1,51,110,140.5,0.489583,Eighth,D#3
696,Right,0,75,110,140.5,0.239583,Sixteenth,D#5
697,Right,0,78,110,140.75,0.239583,Sixteenth,F#5
698,Left,1,58,110,141.0,0.489583,Eighth,A#3
699,Right,0,74,110,141.0,0.239583,Sixteenth,D5
700,Right,0,77,110,141.25,0.239583,Sixteenth,F5
701,Right,0,77,110,141.5,0.239583,Sixteenth,F5
702,Left,1,46,110,141.5,0.489583,Eighth,A#2
703,Right,0,80,110,141.75,0.239583,Sixteenth,G#5
705,Left,1,51,110,142.0,0.489583,Eighth,D#3
704,Right,0,75,110,142.0,0.239583,Sixteenth,D#5
706,Right,0,78,110,142.25,0.239583,Sixteenth,F#5
708,Left,1,39,110,142.5,0.489583,Eighth,D#2
707,Right,0,78,110,142.5,0.239583,Sixteenth,F#5
709,Right,0,87,110,142.75,0.239583,Sixteenth,D#6
711,Left,1,49,110,143.0,0.489583,Eighth,C#3
710,Right,0,76,110,143.0,0.239583,Sixteenth,E5
712,Right,0,78,110,143.25,0.239583,Sixteenth,F#5
713,Right,0,78,110,143.5,0.239583,Sixteenth,F#5
714,Left,1,37,110,143.5,0.489583,Eighth,C#2
715,Right,0,88,110,143.75,0.239583,Sixteenth,E6
716,Right,0,75,110,144.0,0.479167,Eighth,D#5
717,Left,1,47,110,144.0,0.489583,Eighth,B2
718,Right,0,78,110,144.25,0.4375,DottedSixteenth,F#5
719,Right,0,83,110,144.5,0.458333,Eighth,B5
720,Left,1,35,110,144.5,0.489583,Eighth,B1
721,Right,0,87,110,144.75,0.46875,Eighth,D#6
722,Right,0,83,110,145.0,0.447917,Eighth,B5
723,Left,1,47,110,145.0,0.489583,Eighth,B2
724,Right,0,87,110,145.25,0.458333,Eighth,D#6
726,Left,1,35,110,145.5,0.489583,Eighth,B1
725,Right,0,83,110,145.5,0.447917,Eighth,B5
727,Right,0,87,110,145.75,0.239583,Sixteenth,D#6
728,Right,0,77,120,146.0,1.489583,DottedQuarter,F6_F5_D6_B5
732,Left,1,43,120,146.0,1.489583,DottedQuarter,G2_G1
734,Right,0,58,120,147.5,0.46875,Eighth,A#3
735,Right,0,59,120,147.75,0.447917,Eighth,B3
736,Left,1,58,120,148.0,0.458333,Eighth,A#3
737,Left,1,59,120,148.25,0.458333,Eighth,B3
738,Right,0,58,120,148.5,0.458333,Eighth,A#3
739,Right,0,59,120,148.75,0.447917,Eighth,B3
740,Left,1,61,120,149.0,0.447917,Eighth,C#4
741,Left,1,62,120,149.25,0.46875,Eighth,D4
742,Right,0,61,120,149.5,0.458333,Eighth,C#4
743,Right,0,62,120,149.75,0.46875,Eighth,D4
744,Left,1,64,120,150.0,0.46875,Eighth,E4
745,Left,1,65,120,150.25,0.447917,Eighth,F4
746,Right,0,64,120,150.5,0.479167,Eighth,E4
747,Right,0,65,120,150.75,0.46875,Eighth,F4
748,Left,1,70,120,151.0,0.447917,Eighth,A#4
749,Left,1,71,120,151.25,0.4375,Eighth,B4
750,Right,0,70,120,151.5,0.416667,DottedSixteenth,A#4
751,Right,0,71,120,151.75,0.4375,Eighth,B4
752,Left,1,73,120,152.0,0.4375,Eighth,C#5
753,Left,1,74,120,152.25,0.416667,DottedSixteenth,D5
754,Right,0,73,120,152.5,0.458333,Eighth,C#5
755,Right,0,74,120,152.75,0.427083,DottedSixteenth,D5
756,Left,1,76,120,153.0,0.479167,Eighth,E5
757,Left,1,77,120,153.25,0.427083,DottedSixteenth,F5
758,Right,0,76,120,153.5,0.479167,Eighth,E5
759,Right,0,77,120,153.75,0.427083,DottedSixteenth,F5
760,Left,1,82,120,154.0,0.416667,DottedSixteenth,A#5
761,Left,1,83,120,154.25,0.458333,Eighth,B5
762,Right,0,82,120,154.5,0.416667,DottedSixteenth,A#5
763,Right,0,83,120,154.75,0.4375,Eighth,B5
764,Left,1,85,120,155.0,0.479167,Eighth,C#6
765,Left,1,86,120,155.25,0.447917,Eighth,D6
766,Right,0,85,120,155.5,0.416667,DottedSixteenth,C#6
767,Right,0,86,120,155.75,0.4375,Eighth,D6
768,Left,1,85,80,156.0,0.458333,Eighth,C#6
769,Left,1,86,80,156.25,0.447917,Eighth,D6
770,Right,0,88,80,156.5,0.458333,Eighth,E6
771,Right,0,89,80,156.75,0.416667,DottedSixteenth,F6
772,Left,1,82,80,157.0,0.427083,DottedSixteenth,A#5
773,Left,1,83,80,157.25,0.489583,Eighth,B5
774,Right,0,86,80,157.5,0.479167,Eighth,D6
775,Right,0,89,80,157.75,0.4375,Eighth,F6
776,Left,1,85,80,158.0,0.4375,Eighth,C#6
777,Left,1,86,80,158.25,0.458333,Eighth,D6
778,Right,0,88,80,158.5,0.427083,DottedSixteenth,E6
779,Right,0,89,80,158.75,0.479167,Eighth,F6
780,Left,1,82,80,159.0,0.416667,DottedSixteenth,A#5
781,Left,1,83,80,159.25,0.447917,Eighth,B5
782,Right,0,86,80,159.5,0.458333,Eighth,D6
783,Right,0,89,80,159.75,0.46875,Eighth,F6
784,Left,1,85,80,160.0,0.427083,DottedSixteenth,C#6
785,Left,1,86,80,160.25,0.447917,Eighth,D6
786,Right,0,88,80,160.5,0.427083,DottedSixteenth,E6
787,Right,0,89,80,160.75,0.46875,Eighth,F6
788,Left,1,82,80,161.0,0.427083,DottedSixteenth,A#5
789,Left,1,83,80,161.25,0.46875,Eighth,B5
790,Right,0,86,80,161.5,0.427083,DottedSixteenth,D6
791,Right,0,89,80,161.75,0.46875,Eighth,F6
792,Left,1,78,80,162.0,0.458333,Eighth,F#5
793,Left,1,79,80,162.25,0.427083,DottedSixteenth,G5
794,Right,0,86,80,162.5,0.46875,Eighth,D6
795,Right,0,89,80,162.75,0.447917,Eighth,F6
796,Left,1,76,80,163.0,0.416667,DottedSixteenth,E5
797,Left,1,77,80,163.25,0.447917,Eighth,F5
798,Right,0,76,80,163.5,0.458333,Eighth,E5
799,Right,0,77,80,163.75,0.427083,DottedSixteenth,F5
800,Left,1,73,80,164.0,0.447917,Eighth,C#5
801,Left,1,74,80,164.25,0.458333,Eighth,D5
802,Right,0,76,80,164.5,0.427083,DottedSixteenth,E5
803,Right,0,77,80,164.75,0.479167,Eighth,F5
804,Left,1,70,80,165.0,0.447917,Eighth,A#4
805,Left,1,71,80,165.25,0.479167,Eighth,B4
806,Right,0,74,80,165.5,0.447917,Eighth,D5
807,Right,0,77,80,165.75,0.4375,Eighth,F5
808,Left,1,73,80,166.0,0.4375,Eighth,C#5
809,Left,1,74,80,166.25,0.4375,Eighth,D5
810,Right,0,76,80,166.5,0.46875,Eighth,E5
811,Right,0,77,80,166.75,0.458333,Eighth,F5
812,Left,1,70,80,167.0,0.479167,Eighth,A#4
813,Left,1,71,80,167.25,0.427083,DottedSixteenth,B4
814,Right,0,74,80,167.5,0.447917,Eighth,D5
815,Right,0,77,80,167.75,0.458333,Eighth,F5
816,Left,1,73,70,168.0,0.447917,Eighth,C#5
817,Left,1,74,70,168.25,0.427083,DottedSixteenth,D5
818,Right,0,76,70,168.5,0.489583,Eighth,E5
819,Right,0,77,70,168.75,0.46875,Eighth,F5
820,Left,1,82,70,169.0,0.4375,Eighth,A#5
821,Left,1,83,70,169.25,0.447917,Eighth,B5
822,Right,0,74,70,169.5,0.447917,Eighth,D5
823,Right,0,77,70,169.75,0.458333,Eighth,F5
824,Left,1,85,70,170.0,0.447917,Eighth,C#6
825,Left,1,86,70,170.25,0.458333,Eighth,D6
826,Right,0,74,70,170.5,0.447917,Eighth,D5
827,Right,0,77,70,170.75,0.489583,Eighth,F5
828,Left,1,82,70,171.0,0.489583,Eighth,A#5
829,Left,1,83,70,171.25,0.458333,Eighth,B5
830,Right,0,74,70,171.5,0.458333,Eighth,D5
831,Right,0,77,70,171.75,0.458333,Eighth,F5
832,Left,1,73,70,172.0,0.479167,Eighth,C#5
833,Left,1,74,70,172.25,0.447917,Eighth,D5
834,Right,0,85,70,172.5,0.479167,Eighth,C#6
835,Right,0,86,70,172.75,0.4375,Eighth,D6
836,Left,1,70,70,173.0,0.447917,Eighth,A#4
837,Left,1,71,70,173.25,0.427083,DottedSixteenth,B4
838,Right,0,82,70,173.5,0.46875,Eighth,A#5
839,Right,0,83,70,173.75,0.4375,Eighth,B5
840,Left,1,73,70,174.0,0.458333,Eighth,C#5
841,Left,1,74,70,174.25,0.458333,Eighth,D5
842,Right,0,85,70,174.5,0.479167,Eighth,C#6
843,Right,0,86,70,174.75,0.427083,DottedSixteenth,D6
844,Left,1,70,70,175.0,0.447917,Eighth,A#4
845,Left,1,71,70,175.25,0.447917,Eighth,B4
846,Right,0,82,70,175.5,0.416667,DottedSixteenth,A#5
847,Right,0,83,70,175.75,0.239583,Sixteenth,B5
850,Right,0,83,110,176.0,1.489583,DottedQuarter,F6_F5_B5
848,Left,1,71,110,176.0,1.489583,DottedQuarter,G4_B4
854,Left,1,73,110,177.5,0.489583,Eighth,F#4_C#5_A#4
853,Right,0,78,110,177.5,0.489583,Eighth,F#6_F#5_A#5
859,Right,0,82,110,178.0,0.489583,Eighth,F#5_C#6_A#5
862,Left,1,73,110,178.0,0.489583,Eighth,F#4_C#5_A#4
865,Right,0,63,80,179.5,0.489583,Eighth,D#4_B3
867,Left,1,35,80,179.5,0.489583,Eighth,B1
869,Right,0,64,80,180.0,0.739583,DottedEighth,G#3_E4
868,Left,1,37,80,180.0,0.739583,DottedEighth,C#2
871,Right,0,63,80,180.75,0.239583,Sixteenth,F#3_D#4
873,Left,1,39,80,180.75,0.239583,Sixteenth,D#2
875,Right,0,52,80,181.0,0.489583,Eighth,E3_C#4
874,Left,1,40,80,181.0,0.489583,Eighth,E2
877,Right,0,59,80,181.5,0.489583,Eighth,D#3_B3
879,Left,1,41,80,181.5,0.489583,Eighth,F2
880,Right,0,58,80,182.0,0.989583,Quarter,C#3_A#3
881,Left,1,42,80,182.0,0.989583,Quarter,F#2
887,Left,1,69,110,184.0,1.489583,DottedQuarter,B4_A4
883,Right,0,87,110,184.0,1.489583,DottedQuarter,F#5_D#6_D#5_B5
889,Right,0,88,110,185.5,0.489583,Eighth,G#5_E6_E5_B5
890,Left,1,71,110,185.5,0.489583,Eighth,G#4_B4
898,Right,0,90,110,186.0,0.989583,Quarter,F#6_F#5_D#6_A5
895,Left,1,71,110,186.0,0.989583,Quarter,F#4_B4_A4
902,Right,0,56,80,187.5,0.489583,Eighth,G#3_B3
903,Left,1,40,80,187.5,0.489583,Eighth,E2
906,Right,0,57,80,188.0,0.739583,DottedEighth,C#4_A3
905,Left,1,33,80,188.0,0.739583,DottedEighth,A1
908,Right,0,54,80,188.75,0.239583,Sixteenth,F#3_A3
909,Left,1,45,80,188.75,0.239583,Sixteenth,A2
912,Right,0,52,80,189.0,0.489583,Eighth,G#3_E3
911,Left,1,47,80,189.0,0.489583,Eighth,B2
915,Right,0,54,80,189.5,0.489583,Eighth,F#3_D#3
914,Left,1,35,80,189.5,0.489583,Eighth,B1
917,Left,1,40,80,190.0,0.989583,Quarter,E2
918,Right,0,56,80,190.0,0.989583,Quarter,G#3_E3
922,Left,1,71,110,192.0,1.489583,DottedQuarter,G#4_B4
920,Right,0,76,110,192.0,1.489583,DottedQuarter,E6_E5_B5
927,Right,0,75,110,193.5,0.489583,Eighth,D#6_D#5_B5
925,Left,1,71,110,193.5,0.489583,Eighth,F#4_B4
932,Left,1,64,110,194.0,0.489583,Eighth,E4_B4
930,Right,0,80,110,194.0,0.489583,Eighth,G#6_G#5_B5
938,Left,1,39,80,195.5,0.489583,Eighth,D#2
935,Right,0,66,80,195.5,0.489583,Eighth,F#4_F#3_B3
940,Right,0,64,80,196.0,0.989583,Quarter,G#3_E4_B3
939,Left,1,37,80,196.0,0.739583,DottedEighth,C#2
944,Left,1,39,80,196.75,0.239583,Sixteenth,D#2
943,Right,0,63,80,196.75,0.239583,Sixteenth,D#4
948,Left,1,40,80,197.0,0.489583,Eighth,E2
945,Right,0,56,80,197.0,0.489583,Eighth,G#3_C#4_B3
949,Left,1,42,80,197.5,0.489583,Eighth,F#2
950,Right,0,58,80,197.5,0.489583,Eighth,F#4_A#3
952,Left,1,47,80,198.0,0.489583,Eighth,B2
953,Right,0,63,80,198.0,0.239583,Sixteenth,D#4
954,Right,0,59,81,198.25,0.239583,Sixteenth,B3
956,Right,0,58,83,198.5,0.239583,Sixteenth,A#3
955,Left,1,54,83,198.5,0.489583,Eighth,F#3
957,Right,0,59,85,198.75,0.239583,Sixteenth,B3
959,Left,1,56,87,199.0,0.489583,Eighth,G#3
958,Right,0,64,87,199.0,0.239583,Sixteenth,E4
960,Right,0,71,89,199.25,0.239583,Sixteenth,B4
962,Left,1,54,91,199.5,0.489583,Eighth,F#3
961,Right,0,63,91,199.5,0.239583,Sixteenth,D#4
963,Right,0,71,93,199.75,0.239583,Sixteenth,B4
965,Left,1,52,95,200.0,0.489583,Eighth,E3
964,Right,0,68,95,200.0,0.239583,Sixteenth,G#4
966,Right,0,71,97,200.25,0.239583,Sixteenth,B4
967,Right,0,66,99,200.5,0.239583,Sixteenth,F#4
968,Left,1,51,99,200.5,0.489583,Eighth,D#3
969,Right,0,71,101,200.75,0.239583,Sixteenth,B4
970,Right,0,70,103,201.0,0.239583,Sixteenth,A#4
971,Left,1,49,103,201.0,0.489583,Eighth,C#3
972,Right,0,73,105,201.25,0.239583,Sixteenth,C#5
974,Right,0,70,107,201.5,0.239583,Sixteenth,A#4
973,Left,1,42,107,201.5,0.489583,Eighth,F#2
975,Right,0,78,109,201.75,0.239583,Sixteenth,F#5
977,Left,1,47,110,202.0,0.489583,Eighth,B2
976,Right,0,71,110,202.0,0.239583,Sixteenth,B4
978,Right,0,75,110,202.25,0.239583,Sixteenth,D#5
979,Left,1,42,110,202.5,0.489583,Eighth,F#2
980,Right,0,71,110,202.5,0.239583,Sixteenth,B4
981,Right,0,78,110,202.75,0.239583,Sixteenth,F#5
983,Left,1,39,110,203.0,0.489583,Eighth,D#2
982,Right,0,71,110,203.0,0.239583,Sixteenth,B4
984,Right,0,78,110,203.25,0.239583,Sixteenth,F#5
985,Left,1,42,110,203.5,0.489583,Eighth,F#2
986,Right,0,75,110,203.5,0.239583,Sixteenth,D#5
987,Right,0,78,110,203.75,0.239583,Sixteenth,F#5
988,Right,0,75,110,204.0,0.239583,Sixteenth,D#5
989,Left,1,35,110,204.0,0.489583,Eighth,B1
990,Right,0,78,110,204.25,0.239583,Sixteenth,F#5
991,Right,0,75,110,204.5,0.239583,Sixteenth,D#5
992,Left,1,42,110,204.5,0.489583,Eighth,F#2
993,Right,0,78,110,204.75,0.239583,Sixteenth,F#5
994,Right,0,73,110,205.0,0.239583,Sixteenth,C#5
995,Left,1,30,110,205.0,0.489583,Eighth,F#1
996,Right,0,76,110,205.25,0.239583,Sixteenth,E5
998,Left,1,42,110,205.5,0.489583,Eighth,F#2
997,Right,0,73,110,205.5,0.239583,Sixteenth,C#5
999,Right,0,78,110,205.75,0.239583,Sixteenth,F#5
1001,Left,1,35,110,206.0,0.489583,Eighth,B1
1000,Right,0,75,110,206.0,0.239583,Sixteenth,D#5
1002,Right,0,71,110,206.25,0.239583,Sixteenth,B4
1003,Left,1,54,110,206.5,0.489583,Eighth,F#3
1004,Right,0,63,110,206.5,0.239583,Sixteenth,D#4
1005,Right,0,71,110,206.75,0.239583,Sixteenth,B4
1007,Right,0,64,110,207.0,0.239583,Sixteenth,E4
1006,Left,1,56,110,207.0,0.489583,Eighth,G#3
1008,Right,0,71,110,207.25,0.239583,Sixteenth,B4
1010,Left,1,54,110,207.5,0.489583,Eighth,F#3
1009,Right,0,63,110,207.5,0.239583,Sixteenth,D#4
1011,Right,0,71,110,207.75,0.239583,Sixteenth,B4
1013,Left,1,52,110,208.0,0.489583,Eighth,E3
1012,Right,0,68,110,208.0,0.239583,Sixteenth,G#4
1014,Right,0,71,110,208.25,0.239583,Sixteenth,B4
1015,Right,0,66,110,208.5,0.239583,Sixteenth,F#4
1016,Left,1,51,110,208.5,0.489583,Eighth,D#3
1017,Right,0,71,110,208.75,0.239583,Sixteenth,B4
1018,Left,1,49,110,209.0,0.489583,Eighth,C#3
1019,Right,0,70,110,209.0,0.239583,Sixteenth,A#4
1020,Right,0,73,110,209.25,0.239583,Sixteenth,C#5
1021,Right,0,70,110,209.5,0.239583,Sixteenth,A#4
1022,Left,1,42,110,209.5,0.489583,Eighth,F#2
1023,Right,0,78,110,209.75,0.239583,Sixteenth,F#5
1024,Left,1,47,110,210.0,0.489583,Eighth,B2
1025,Right,0,71,110,210.0,0.239583,Sixteenth,B4
1026,Right,0,75,110,210.25,0.239583,Sixteenth,D#5
1027,Right,0,71,110,210.5,0.239583,Sixteenth,B4
1028,Left,1,42,110,210.5,0.489583,Eighth,F#2
1029,Right,0,78,110,210.75,0.239583,Sixteenth,F#5
1030,Right,0,71,110,211.0,0.239583,Sixteenth,B4
1031,Left,1,38,110,211.0,0.489583,Eighth,D2
1032,Right,0,78,110,211.25,0.239583,Sixteenth,F#5
1033,Right,0,74,110,211.5,0.239583,Sixteenth,D5
1034,Left,1,42,110,211.5,0.489583,Eighth,F#2
1035,Right,0,78,110,211.75,0.239583,Sixteenth,F#5
1037,Left,1,35,110,212.0,0.489583,Eighth,B1
1036,Right,0,74,110,212.0,0.239583,Sixteenth,D5
1038,Right,0,83,110,212.25,0.239583,Sixteenth,B5
1040,Left,1,42,110,212.5,0.489583,Eighth,F#2
1039,Right,0,74,110,212.5,0.239583,Sixteenth,D5
1041,Right,0,83,110,212.75,0.239583,Sixteenth,B5
1044,Left,1,37,110,213.0,0.489583,Eighth,C#2
1042,Right,0,77,110,213.0,0.239583,Sixteenth,F5_C#5
1045,Right,0,83,110,213.25,0.239583,Sixteenth,B5
1046,Right,0,73,110,213.5,0.239583,Sixteenth,G#5_C#5
1047,Left,1,41,110,213.5,0.489583,Eighth,F2
1049,Right,0,83,110,213.75,0.239583,Sixteenth,B5
1052,Left,1,42,110,214.0,0.489583,Eighth,F#2
1050,Right,0,78,110,214.0,0.239583,Sixteenth,F#5_C#5
1053,Right,0,81,110,214.25,0.239583,Sixteenth,A5
1054,Right,0,78,110,214.5,0.239583,Sixteenth,F#5_C#5
1056,Left,1,49,110,214.5,0.489583,Eighth,C#3
1057,Right,0,81,110,214.75,0.239583,Sixteenth,A5
1060,Left,1,45,110,215.0,0.489583,Eighth,A2
1058,Right,0,78,110,215.0,0.239583,Sixteenth,F#5_C#5
1061,Right,0,81,110,215.25,0.239583,Sixteenth,A5
1064,Left,1,49,110,215.5,0.489583,Eighth,C#3
1062,Right,0,78,110,215.5,0.239583,Sixteenth,F#5_C#5
1065,Right,0,81,110,215.75,0.239583,Sixteenth,A5
1068,Left,1,42,110,216.0,0.489583,Eighth,F#2
1066,Right,0,78,110,216.0,0.239583,Sixteenth,F#5_C#5
1069,Right,0,81,110,216.25,0.239583,Sixteenth,A5
1070,Right,0,73,110,216.5,0.239583,Sixteenth,C#5_A4
1072,Left,1,54,110,216.5,0.489583,Eighth,F#3
1073,Right,0,78,110,216.75,0.239583,Sixteenth,F#5
1075,Right,0,73,110,217.0,0.239583,Sixteenth,F#4_C#5
1074,Left,1,38,110,217.0,0.489583,Eighth,D2
1077,Right,0,78,110,217.25,0.239583,Sixteenth,F#5
1079,Right,0,72,110,217.5,0.239583,Sixteenth,F#4_C5
1078,Left,1,50,110,217.5,0.489583,Eighth,D3
1081,Right,0,78,110,217.75,0.239583,Sixteenth,F#5
1082,Left,1,49,110,218.0,0.489583,Eighth,C#3_C#2
1083,Right,0,73,110,218.0,0.489583,Eighth,F5_F4_C#5
1087,Right,0,73,110,218.5,0.427083,DottedSixteenth,C#5
1088,Right,0,71,110,218.75,0.239583,Sixteenth,B4
1089,Left,1,71,110,219.0,0.427083,DottedSixteenth,B4
1090,Left,1,69,110,219.25,0.239583,Sixteenth,A4
1091,Right,0,71,110,219.5,0.4375,Eighth,B4
1092,Right,0,69,110,219.75,0.239583,Sixteenth,A4
1093,Left,1,69,110,220.0,0.458333,Eighth,A4
1094,Left,1,68,110,220.25,0.239583,Sixteenth,G#4
1095,Right,0,69,110,220.5,0.46875,Eighth,A4
1096,Right,0,68,110,220.75,0.239583,Sixteenth,G#4
1097,Left,1,68,110,221.0,0.46875,Eighth,G#4
1098,Left,1,66,110,221.25,0.239583,Sixteenth,F#4
1099,Right,0,68,110,221.5,0.447917,Eighth,G#4
1100,Right,0,66,110,221.75,0.239583,Sixteenth,F#4
1101,Left,1,66,110,222.0,0.4375,Eighth,F#4
1102,Left,1,65,110,222.25,0.239583,Sixteenth,F4
1103,Right,0,66,110,222.5,0.458333,Eighth,F#4
1104,Right,0,65,110,222.75,0.239583,Sixteenth,F4
1105,Left,1,65,110,223.0,0.427083,DottedSixteenth,F4
1106,Left,1,62,110,223.25,0.239583,Sixteenth,D4
1107,Right,0,65,110,223.5,0.479167,Eighth,F4
1108,Right,0,62,110,223.75,0.239583,Sixteenth,D4
1109,Left,1,62,110,224.0,0.479167,Eighth,D4
1110,Left,1,61,110,224.25,0.239583,Sixteenth,C#4
1111,Right,0,62,110,224.5,0.458333,Eighth,D4
1112,Right,0,61,110,224.75,0.239583,Sixteenth,C#4
1113,Left,1,61,110,225.0,0.479167,Eighth,C#4
1114,Left,1,60,110,225.25,0.239583,Sixteenth,C4
1115,Right,0,61,110,225.5,0.479167,Eighth,C#4
1116,Right,0,60,110,225.75,0.239583,Sixteenth,C4
1117,Left,1,61,100,226.0,0.427083,DottedSixteenth,C#4
1118,Left,1,60,99,226.25,0.239583,Sixteenth,C4
1119,Right,0,61,98,226.5,0.458333,Eighth,C#4
1120,Right,0,60,96,226.75,0.239583,Sixteenth,C4
1121,Left,1,61,95,227.0,0.489583,Eighth,C#4
1122,Left,1,59,93,227.25,0.239583,Sixteenth,B3
1123,Right,0,61,92,227.5,0.46875,Eighth,C#4
1124,Right,0,59,91,227.75,0.239583,Sixteenth,B3
1125,Left,1,61,80,228.0,0.46875,Eighth,C#4
1126,Left,1,57,80,228.25,0.239583,Sixteenth,A3
1127,Right,0,61,80,228.5,0.458333,Eighth,C#4
1128,Right,0,57,80,228.75,0.239583,Sixteenth,A3
1129,Left,1,61,80,229.0,0.447917,Eighth,C#4
1130,Left,1,56,80,229.25,0.239583,Sixteenth,G#3
1131,Right,0,61,80,229.5,0.479167,Eighth,C#4
1132,Right,0,56,80,229.75,0.239583,Sixteenth,G#3
1133,Left,1,42,110,230.0,1.989583,Half,F#2
1134,Left,1,58,110,230.5,1.489583,DottedQuarter,A#3
1135,Right,0,58,110,230.5,0.489583,Eighth,A#3
1136,Right,0,66,110,230.75,0.239583,Sixteenth,F#4
1137,Left,1,61,110,231.0,1.489583,DottedQuarter,C#4
1138,Right,0,66,110,231.0,0.489583,Eighth,F#4
1139,Right,0,70,110,231.25,0.239583,Sixteenth,A#4
1140,Left,1,66,110,231.5,1.489583,DottedQuarter,F#4
1141,Right,0,70,110,231.5,0.489583,Eighth,A#4
1142,Right,0,73,110,231.75,0.239583,Sixteenth,C#5
1144,Right,0,73,110,232.0,0.489583,Eighth,C#5
1143,Left,1,70,110,232.0,1.489583,DottedQuarter,A#4
1145,Right,0,78,110,232.25,0.239583,Sixteenth,F#5
1147,Left,1,73,110,232.5,1.489583,DottedQuarter,C#5
1146,Right,0,78,110,232.5,0.489583,Eighth,F#5
1148,Right,0,82,110,232.75,0.239583,Sixteenth,A#5
1149,Left,1,78,110,233.0,0.989583,Quarter,F#5
1150,Right,0,82,110,233.0,0.489583,Eighth,A#5
1151,Right,0,85,110,233.25,0.239583,Sixteenth,C#6
1152,Right,0,85,110,233.5,0.489583,Eighth,C#6
1153,Left,1,82,110,233.5,0.989583,Quarter,A#5
1154,Right,0,94,110,233.75,0.239583,Sixteenth,A#6
1156,Left,1,85,110,234.0,0.489583,Eighth,C#6
1155,Right,0,94,110,234.0,0.489583,Eighth,A#6
1157,Left,1,54,80,234.5,0.489583,Eighth,F#3
1158,Right,0,70,80,234.5,0.239583,Sixteenth,A#4
1159,Right,0,73,80,234.75,0.239583,Sixteenth,C#5
1160,Right,0,66,80,235.0,0.239583,Sixteenth,F#4
1161,Left,1,57,80,235.0,0.489583,Eighth,A3
1162,Right,0,73,80,235.25,0.239583,Sixteenth,C#5
1164,Right,0,69,80,235.5,0.239583,Sixteenth,A4
1163,Left,1,54,80,235.5,0.489583,Eighth,F#3
1165,Right,0,73,80,235.75,0.239583,Sixteenth,C#5
1166,Right,0,66,80,236.0,0.239583,Sixteenth,F#4
1167,Left,1,57,80,236.0,0.489583,Eighth,A3
1168,Right,0,73,80,236.25,0.239583,Sixteenth,C#5
1169,Left,1,54,80,236.5,0.489583,Eighth,F#3
1170,Right,0,69,80,236.5,0.239583,Sixteenth,A4
1171,Right,0,73,80,236.75,0.239583,Sixteenth,C#5
1172,Right,0,71,80,237.0,0.239583,Sixteenth,B4
1173,Left,1,56,80,237.0,0.989583,Eighth,G#3_C#3
1175,Right,0,73,80,237.25,0.239583,Sixteenth,C#5
1176,Left,1,53,80,237.5,0.489583,Eighth,F3
1177,Right,0,68,80,237.5,0.239583,Sixteenth,G#4
1178,Right,0,73,80,237.75,0.239583,Sixteenth,C#5
1179,Left,1,42,110,238.0,1.989583,Half,F#2
1181,Left,1,58,110,238.5,1.489583,DottedQuarter,A#3
1180,Right,0,58,110,238.5,0.489583,Eighth,A#3
1182,Right,0,66,110,238.75,0.239583,Sixteenth,F#4
1184,Left,1,61,110,239.0,1.489583,DottedQuarter,C#4
1183,Right,0,66,110,239.0,0.489583,Eighth,F#4
1185,Right,0,70,110,239.25,0.239583,Sixteenth,A#4
1187,Left,1,66,110,239.5,1.489583,DottedQuarter,F#4
1186,Right,0,70,110,239.5,0.489583,Eighth,A#4
1188,Right,0,73,110,239.75,0.239583,Sixteenth,C#5
1189,Left,1,70,110,240.0,1.489583,DottedQuarter,A#4
1190,Right,0,73,110,240.0,0.489583,Eighth,C#5
1191,Right,0,78,110,240.25,0.239583,Sixteenth,F#5
1193,Right,0,78,110,240.5,0.489583,Eighth,F#5
1192,Left,1,73,110,240.5,1.489583,DottedQuarter,C#5
1194,Right,0,82,110,240.75,0.239583,Sixteenth,A#5
1196,Right,0,82,110,241.0,0.489583,Eighth,A#5
1195,Left,1,78,110,241.0,0.989583,Quarter,F#5
1197,Right,0,85,110,241.25,0.239583,Sixteenth,C#6
1199,Right,0,85,110,241.5,0.489583,Eighth,C#6
1198,Left,1,82,110,241.5,0.989583,Quarter,A#5
1200,Right,0,94,110,241.75,0.239583,Sixteenth,A#6
1202,Left,1,85,110,242.0,0.489583,Eighth,C#6
1201,Right,0,94,110,242.0,0.489583,Eighth,A#6
1204,Right,0,70,80,242.5,0.239583,Sixteenth,A#4
1203,Left,1,54,80,242.5,0.489583,Eighth,F#3
1205,Right,0,73,80,242.75,0.239583,Sixteenth,C#5
1207,Right,0,66,80,243.0,0.239583,Sixteenth,F#4
1206,Left,1,57,80,243.0,0.489583,Eighth,A3
1208,Right,0,73,80,243.25,0.239583,Sixteenth,C#5
1210,Left,1,54,80,243.5,0.489583,Eighth,F#3
1209,Right,0,69,80,243.5,0.239583,Sixteenth,A4
1211,Right,0,73,80,243.75,0.239583,Sixteenth,C#5
1213,Right,0,66,80,244.0,0.239583,Sixteenth,F#4
1212,Left,1,57,80,244.0,0.489583,Eighth,A3
1214,Right,0,73,80,244.25,0.239583,Sixteenth,C#5
1215,Left,1,54,80,244.5,0.489583,Eighth,F#3
1216,Right,0,69,80,244.5,0.239583,Sixteenth,A4
1217,Right,0,73,80,244.75,0.239583,Sixteenth,C#5
1218,Left,1,56,80,245.0,0.989583,Eighth,G#3_C#3
1219,Right,0,71,80,245.0,0.239583,Sixteenth,B4
1221,Right,0,73,80,245.25,0.239583,Sixteenth,C#5
1223,Left,1,53,80,245.5,0.489583,Eighth,F3
1222,Right,0,68,80,245.5,0.239583,Sixteenth,G#4
1224,Right,0,73,80,245.75,0.239583,Sixteenth,C#5
1226,Right,0,66,80,246.0,0.239583,Sixteenth,F#4
1225,Left,1,54,80,246.0,0.489583,Eighth,F#3
1227,Right,0,69,81,246.25,0.239583,Sixteenth,A4
1228,Left,1,54,83,246.5,0.489583,Eighth,F#3
1229,Right,0,69,83,246.5,0.239583,Sixteenth,A4
1230,Right,0,78,85,246.75,0.239583,Sixteenth,F#5
1231,Left,1,61,87,247.0,0.489583,Eighth,C#4
1232,Right,0,68,87,247.0,0.239583,Sixteenth,G#4
1233,Right,0,77,89,247.25,0.239583,Sixteenth,F5
1235,Right,0,77,91,247.5,0.239583,Sixteenth,F5
1234,Left,1,49,91,247.5,0.489583,Eighth,C#3
1236,Right,0,80,93,247.75,0.239583,Sixteenth,G#5
1238,Right,0,69,95,248.0,0.239583,Sixteenth,A4
1237,Left,1,54,95,248.0,0.489583,Eighth,F#3
1239,Right,0,78,97,248.25,0.239583,Sixteenth,F#5
1241,Left,1,42,99,248.5,0.489583,Eighth,F#2
1240,Right,0,78,99,248.5,0.239583,Sixteenth,F#5
1242,Right,0,81,101,248.75,0.239583,Sixteenth,A5
1243,Left,1,49,103,249.0,0.489583,Eighth,C#3
1244,Right,0,77,103,249.0,0.239583,Sixteenth,F5
1245,Right,0,80,105,249.25,0.239583,Sixteenth,G#5
1247,Left,1,37,107,249.5,0.489583,Eighth,C#2
1246,Right,0,80,107,249.5,0.239583,Sixteenth,G#5
1248,Right,0,83,109,249.75,0.239583,Sixteenth,B5
1250,Left,1,42,110,250.0,0.489583,Eighth,F#2
1249,Right,0,69,110,250.0,0.239583,Sixteenth,A4
1251,Right,0,78,110,250.25,0.239583,Sixteenth,F#5
1253,Left,1,54,110,250.5,0.489583,Eighth,F#3
1252,Right,0,78,110,250.5,0.239583,Sixteenth,F#5
1254,Right,0,81,110,250.75,0.239583,Sixteenth,A5
1256,Left,1,61,110,251.0,0.489583,Eighth,C#4
1255,Right,0,77,110,251.0,0.239583,Sixteenth,F5
1257,Right,0,80,110,251.25,0.239583,Sixteenth,G#5
1259,Left,1,49,110,251.5,0.489583,Eighth,C#3
1258,Right,0,80,110,251.5,0.239583,Sixteenth,G#5
1260,Right,0,83,110,251.75,0.239583,Sixteenth,B5
1262,Right,0,78,110,252.0,0.239583,Sixteenth,F#5
1261,Left,1,54,110,252.0,0.489583,Eighth,F#3
1263,Right,0,81,110,252.25,0.239583,Sixteenth,A5
1265,Right,0,81,110,252.5,0.239583,Sixteenth,A5
1264,Left,1,42,110,252.5,0.489583,Eighth,F#2
1266,Right,0,90,110,252.75,0.239583,Sixteenth,F#6
1268,Right,0,80,110,253.0,0.239583,Sixteenth,G#5
1267,Left,1,49,110,253.0,0.489583,Eighth,C#3
1269,Right,0,89,110,253.25,0.239583,Sixteenth,F6
1271,Left,1,37,110,253.5,0.489583,Eighth,C#2
1270,Right,0,83,110,253.5,0.239583,Sixteenth,B5
1272,Right,0,92,110,253.75,0.239583,Sixteenth,G#6
1273,Right,0,66,80,254.0,0.239583,Sixteenth,F#4
1274,Left,1,42,80,254.0,0.489583,Eighth,F#2
1275,Right,0,69,81,254.25,0.239583,Sixteenth,A4
1277,Right,0,69,83,254.5,0.239583,Sixteenth,A4
1276,Left,1,54,83,254.5,0.489583,Eighth,F#3
1278,Right,0,78,85,254.75,0.239583,Sixteenth,F#5
1279,Right,0,68,87,255.0,0.239583,Sixteenth,G#4
1280,Left,1,61,87,255.0,0.489583,Eighth,C#4
1281,Right,0,77,89,255.25,0.239583,Sixteenth,F5
1283,Left,1,49,91,255.5,0.489583,Eighth,C#3
1282,Right,0,77,91,255.5,0.239583,Sixteenth,F5
1284,Right,0,80,93,255.75,0.239583,Sixteenth,G#5
1286,Left,1,54,95,256.0,0.489583,Eighth,F#3
1285,Right,0,69,95,256.0,0.239583,Sixteenth,A4
1287,Right,0,78,97,256.25,0.239583,Sixteenth,F#5
1289,Right,0,78,99,256.5,0.239583,Sixteenth,F#5
1288,Left,1,42,99,256.5,0.489583,Eighth,F#2
1290,Right,0,81,101,256.75,0.239583,Sixteenth,A5
1291,Right,0,77,103,257.0,0.239583,Sixteenth,F5
1292,Left,1,49,103,257.0,0.489583,Eighth,C#3
1293,Right,0,80,105,257.25,0.239583,Sixteenth,G#5
1294,Left,1,37,107,257.5,0.489583,Eighth,C#2
1295,Right,0,80,107,257.5,0.239583,Sixteenth,G#5
1296,Right,0,83,109,257.75,0.239583,Sixteenth,B5
1298,Right,0,69,110,258.0,0.239583,Sixteenth,A4
1297,Left,1,42,110,258.0,0.489583,Eighth,F#2
1299,Right,0,78,110,258.25,0.239583,Sixteenth,F#5
1300,Left,1,54,110,258.5,0.489583,Eighth,F#3
1301,Right,0,78,110,258.5,0.239583,Sixteenth,F#5
1302,Right,0,81,110,258.75,0.239583,Sixteenth,A5
1304,Right,0,77,110,259.0,0.239583,Sixteenth,F5
1303,Left,1,61,110,259.0,0.489583,Eighth,C#4
1305,Right,0,80,110,259.25,0.239583,Sixteenth,G#5
1307,Left,1,49,110,259.5,0.489583,Eighth,C#3
1306,Right,0,80,110,259.5,0.239583,Sixteenth,G#5
1308,Right,0,83,110,259.75,0.239583,Sixteenth,B5
1310,Left,1,54,110,260.0,0.489583,Eighth,F#3
1309,Right,0,78,110,260.0,0.239583,Sixteenth,F#5
1311,Right,0,81,110,260.25,0.239583,Sixteenth,A5
1312,Left,1,42,110,260.5,0.489583,Eighth,F#2
1313,Right,0,81,110,260.5,0.239583,Sixteenth,A5
1314,Right,0,90,110,260.75,0.239583,Sixteenth,F#6
1316,Left,1,52,110,261.0,0.489583,Eighth,E3
1315,Right,0,78,110,261.0,0.239583,Sixteenth,F#5
1317,Right,0,81,110,261.25,0.239583,Sixteenth,A5
1319,Left,1,40,110,261.5,0.489583,Eighth,E2
1318,Right,0,81,110,261.5,0.239583,Sixteenth,A5
1320,Right,0,90,110,261.75,0.239583,Sixteenth,F#6
1322,Left,1,50,110,262.0,0.489583,Eighth,D3
1321,Right,0,78,110,262.0,0.239583,Sixteenth,F#5
1323,Right,0,81,110,262.25,0.239583,Sixteenth,A5
1325,Left,1,38,110,262.5,0.489583,Eighth,D2
1324,Right,0,81,110,262.5,0.239583,Sixteenth,A5
1326,Right,0,90,110,262.75,0.239583,Sixteenth,F#6
1328,Right,0,78,110,263.0,0.239583,Sixteenth,F#5
1327,Left,1,50,110,263.0,0.489583,Eighth,D3
1329,Right,0,81,110,263.25,0.239583,Sixteenth,A5
1331,Left,1,38,110,263.5,0.489583,Eighth,D2
1330,Right,0,81,110,263.5,0.239583,Sixteenth,A5
1332,Right,0,90,110,263.75,0.239583,Sixteenth,F#6
1335,Right,0,81,120,264.0,1.489583,DottedQuarter,F#6_F#5_C6_A5
1333,Left,1,50,120,264.0,1.489583,DottedQuarter,D3_D2
1339,Right,0,59,120,265.5,0.46875,Eighth,B3
1340,Right,0,60,120,265.75,0.479167,Eighth,C4
1341,Left,1,59,120,266.0,0.46875,Eighth,B3
1342,Left,1,60,120,266.25,0.447917,Eighth,C4
1343,Right,0,59,119,266.5,0.489583,Eighth,B3
1344,Right,0,60,119,266.75,0.4375,Eighth,C4
1345,Left,1,65,119,267.0,0.416667,DottedSixteenth,F4
1346,Left,1,66,118,267.25,0.447917,Eighth,F#4
1347,Right,0,65,118,267.5,0.447917,Eighth,F4
1348,Right,0,66,118,267.75,0.4375,Eighth,F#4
1349,Left,1,68,117,268.0,0.479167,Eighth,G#4
1350,Left,1,69,117,268.25,0.458333,Eighth,A4
1351,Right,0,68,117,268.5,0.46875,Eighth,G#4
1352,Right,0,69,117,268.75,0.4375,Eighth,A4
1353,Left,1,71,116,269.0,0.458333,Eighth,B4
1354,Left,1,72,116,269.25,0.4375,Eighth,C5
1355,Right,0,71,116,269.5,0.479167,Eighth,B4
1356,Right,0,72,115,269.75,0.458333,Eighth,C5
1357,Left,1,77,115,270.0,0.447917,Eighth,F5
1358,Left,1,78,115,270.25,0.489583,Eighth,F#5
1359,Right,0,77,114,270.5,0.4375,Eighth,F5
1360,Right,0,78,114,270.75,0.416667,DottedSixteenth,F#5
1361,Left,1,80,114,271.0,0.46875,Eighth,G#5
1362,Left,1,81,114,271.25,0.4375,Eighth,A5
1363,Right,0,80,113,271.5,0.427083,DottedSixteenth,G#5
1364,Right,0,81,113,271.75,0.447917,Eighth,A5
1365,Left,1,83,113,272.0,0.46875,Eighth,B5
1366,Left,1,84,112,272.25,0.447917,Eighth,C6
1367,Right,0,83,112,272.5,0.4375,Eighth,B5
1368,Right,0,84,112,272.75,0.458333,Eighth,C6
1369,Left,1,89,111,273.0,0.427083,DottedSixteenth,F6
1370,Left,1,90,111,273.25,0.458333,Eighth,F#6
1371,Right,0,89,111,273.5,0.447917,Eighth,F6
1372,Right,0,90,111,273.75,0.479167,Eighth,F#6
1373,Left,1,92,80,274.0,0.427083,DottedSixteenth,G#6
1374,Left,1,93,80,274.25,0.46875,Eighth,A6
1375,Right,0,92,80,274.5,0.479167,Eighth,G#6
1376,Right,0,93,80,274.75,0.416667,DottedSixteenth,A6
1377,Left,1,89,80,275.0,0.447917,Eighth,F6
1378,Left,1,90,80,275.25,0.46875,Eighth,F#6
1379,Right,0,89,80,275.5,0.416667,DottedSixteenth,F6
1380,Right,0,90,80,275.75,0.427083,DottedSixteenth,F#6
1381,Left,1,83,80,276.0,0.458333,Eighth,B5
1382,Left,1,84,80,276.25,0.46875,Eighth,C6
1383,Right,0,92,80,276.5,0.416667,DottedSixteenth,G#6
1384,Right,0,93,80,276.75,0.489583,Eighth,A6
1385,Left,1,80,80,277.0,0.479167,Eighth,G#5
1386,Left,1,81,80,277.25,0.489583,Eighth,A5
1387,Right,0,89,80,277.5,0.458333,Eighth,F6
1388,Right,0,90,80,277.75,0.46875,Eighth,F#6
1389,Left,1,80,80,278.0,0.46875,Eighth,G#5
1390,Left,1,81,80,278.25,0.4375,Eighth,A5
1391,Right,0,83,80,278.5,0.4375,Eighth,B5
1392,Right,0,84,80,278.75,0.479167,Eighth,C6
1393,Left,1,77,80,279.0,0.458333,Eighth,F5
1394,Left,1,78,80,279.25,0.447917,Eighth,F#5
1395,Right,0,81,80,279.5,0.458333,Eighth,A5
1396,Right,0,84,80,279.75,0.479167,Eighth,C6
1397,Left,1,71,80,280.0,0.447917,Eighth,B4
1398,Left,1,72,80,280.25,0.458333,Eighth,C5
1399,Right,0,83,80,280.5,0.427083,DottedSixteenth,B5
1400,Right,0,84,80,280.75,0.4375,Eighth,C6
1401,Left,1,68,80,281.0,0.46875,Eighth,G#4
1402,Left,1,69,80,281.25,0.427083,DottedSixteenth,A4
1403,Right,0,83,80,281.5,0.416667,DottedSixteenth,B5
1404,Right,0,84,80,281.75,0.427083,DottedSixteenth,C6
1405,Left,1,65,80,282.0,0.447917,Eighth,F4
1406,Left,1,66,80,282.25,0.46875,Eighth,F#4
1407,Right,0,81,80,282.5,0.4375,Eighth,A5
1408,Right,0,84,80,282.75,0.458333,Eighth,C6
1409,Left,1,68,80,283.0,0.46875,Eighth,G#4
1410,Left,1,69,80,283.25,0.489583,Eighth,A4
1411,Right,0,83,80,283.5,0.427083,DottedSixteenth,B5
1412,Right,0,84,80,283.75,0.4375,Eighth,C6
1413,Left,1,65,80,284.0,0.447917,Eighth,F4
1414,Left,1,66,80,284.25,0.458333,Eighth,F#4
1415,Right,0,81,80,284.5,0.458333,Eighth,A5
1416,Right,0,84,80,284.75,0.447917,Eighth,C6
1417,Left,1,80,80,285.0,0.46875,Eighth,G#5
1418,Left,1,81,80,285.25,0.458333,Eighth,A5
1419,Right,0,71,80,285.5,0.458333,Eighth,B4
1420,Right,0,72,80,285.75,0.447917,Eighth,C5
1421,Left,1,77,80,286.0,0.489583,Eighth,F5
1422,Left,1,78,80,286.25,0.479167,Eighth,F#5
1423,Right,0,69,80,286.5,0.427083,DottedSixteenth,A4
1424,Right,0,72,80,286.75,0.416667,DottedSixteenth,C5
1425,Left,1,80,80,287.0,0.458333,Eighth,G#5
1426,Left,1,81,80,287.25,0.489583,Eighth,A5
1427,Right,0,71,80,287.5,0.489583,Eighth,B4
1428,Right,0,72,80,287.75,0.4375,Eighth,C5
1429,Left,1,77,80,288.0,0.4375,Eighth,F5
1430,Left,1,78,80,288.25,0.447917,Eighth,F#5
1431,Right,0,69,80,288.5,0.447917,Eighth,A4
1432,Right,0,72,80,288.75,0.427083,DottedSixteenth,C5
1433,Left,1,80,80,289.0,0.427083,DottedSixteenth,G#5
1434,Left,1,81,80,289.25,0.447917,Eighth,A5
1435,Right,0,71,80,289.5,0.479167,Eighth,B4
1436,Right,0,72,80,289.75,0.447917,Eighth,C5
1437,Left,1,77,80,290.0,0.458333,Eighth,F5
1438,Left,1,78,80,290.25,0.458333,Eighth,F#5
1439,Right,0,69,80,290.5,0.479167,Eighth,A4
1440,Right,0,72,80,290.75,0.46875,Eighth,C5
1441,Left,1,80,80,291.0,0.4375,Eighth,G#5
1442,Left,1,81,80,291.25,0.447917,Eighth,A5
1443,Right,0,69,80,291.5,0.447917,Eighth,A4
1444,Right,0,72,80,291.75,0.479167,Eighth,C5
1445,Left,1,77,80,292.0,0.489583,Eighth,F5
1446,Left,1,78,80,292.25,0.416667,DottedSixteenth,F#5
1447,Right,0,69,80,292.5,0.46875,Eighth,A4
1448,Right,0,72,80,292.75,0.427083,DottedSixteenth,C5
1449,Left,1,80,80,293.0,0.447917,Eighth,G#5
1450,Left,1,81,80,293.25,0.4375,Eighth,A5
1451,Right,0,69,80,293.5,0.46875,Eighth,A4
1452,Right,0,72,80,293.75,0.447917,Eighth,C5
1453,Left,1,68,70,294.0,0.458333,Eighth,G#4
1454,Left,1,69,70,294.25,0.489583,Eighth,A4
1455,Right,0,80,70,294.5,0.479167,Eighth,G#5
1456,Right,0,81,70,294.75,0.427083,DottedSixteenth,A5
1457,Left,1,71,70,295.0,0.479167,Eighth,B4
1458,Left,1,72,70,295.25,0.46875,Eighth,C5
1459,Right,0,83,70,295.5,0.489583,Eighth,B5
1460,Right,0,84,70,295.75,0.479167,Eighth,C6
1461,Left,1,68,70,296.0,0.4375,Eighth,G#4
1462,Left,1,69,70,296.25,0.458333,Eighth,A4
1463,Right,0,80,70,296.5,0.427083,DottedSixteenth,G#5
1464,Right,0,81,70,296.75,0.458333,Eighth,A5
1465,Left,1,71,70,297.0,0.447917,Eighth,B4
1466,Left,1,72,70,297.25,0.427083,DottedSixteenth,C5
1467,Right,0,83,70,297.5,0.458333,Eighth,B5
1468,Right,0,84,70,297.75,0.239583,Sixteenth,C6
1471,Left,1,66,110,298.0,1.489583,DottedQuarter,F#4_D4
1469,Right,0,84,110,298.0,1.489583,DottedQuarter,F#5_C6_C5
1477,Left,1,68,110,299.5,0.489583,Eighth,G#4_F4_C#4
1474,Right,0,85,110,299.5,0.489583,Eighth,F5_C#6_C#5
1480,Right,0,80,110,300.0,0.989583,Quarter,G#5_F5_C#5
1483,Left,1,65,110,300.0,0.989583,Quarter,G#4_F4_C#4
1486,Right,0,49,80,301.5,0.489583,Eighth,C#3_A#3
1488,Left,1,42,80,301.5,0.489583,Eighth,F#2
1491,Left,1,35,80,302.0,0.739583,DottedEighth,B1
1489,Right,0,51,80,302.0,0.739583,DottedEighth,D#3_B3
1493,Right,0,49,80,302.75,0.239583,Sixteenth,C#3_A#3
1492,Left,1,37,80,302.75,0.239583,Sixteenth,C#2
1495,Right,0,47,80,303.0,0.489583,Eighth,G#3_B2
1497,Left,1,39,80,303.0,0.489583,Eighth,D#2
1498,Right,0,46,80,303.5,0.489583,Eighth,F#3_A#2
1499,Left,1,36,80,303.5,0.489583,Eighth,C2
1502,Right,0,44,80,304.0,0.989583,Quarter,G#2_F3
1501,Left,1,37,80,304.0,0.989583,Quarter,C#2
1504,Left,1,64,110,306.0,1.489583,DottedQuarter,F#4_E4_C#4
1507,Right,0,73,110,306.0,1.489583,DottedQuarter,C#6_C#5_A#5
1512,Left,1,59,110,307.5,0.489583,Eighth,F#4_D#4_B3
1510,Right,0,75,110,307.5,0.489583,Eighth,D#6_D#5_B5
1516,Left,1,58,110,308.0,0.989583,Quarter,F#4_C#4_A#3
1517,Right,0,85,110,308.0,0.989583,Quarter,E6_E5_C#6
1523,Left,1,35,80,309.5,0.489583,Eighth,B1
1522,Right,0,54,80,309.5,0.489583,Eighth,F#3_D#3
1525,Right,0,52,80,310.0,0.739583,DottedEighth,G#3_E3
1527,Left,1,40,80,310.0,0.739583,DottedEighth,E2
1528,Right,0,52,80,310.75,0.239583,Sixteenth,E3_C#3
1529,Left,1,37,80,310.75,0.239583,Sixteenth,C#2
1531,Right,0,51,80,311.0,0.489583,Eighth,D#3_B2
1532,Left,1,42,80,311.0,0.489583,Eighth,F#2
1534,Right,0,46,80,311.5,0.489583,Eighth,C#3_A#2
1535,Left,1,42,80,311.5,0.489583,Eighth,F#2
1538,Right,0,51,80,312.0,0.989583,Quarter,D#3_B2
1537,Left,1,35,80,312.0,0.989583,Quarter,B1
1540,Right,0,71,80,314.0,1.489583,DottedQuarter,B5_B4
1541,Left,1,63,80,314.0,1.489583,DottedQuarter,F#4_D#4
1544,Right,0,82,80,315.5,0.489583,Eighth,A#5_A#4
1546,Left,1,66,80,315.5,0.489583,Eighth,F#4_C#4
1548,Right,0,87,80,316.0,0.989583,Quarter,D#6_D#5
1549,Left,1,66,80,316.0,0.989583,Quarter,F#4_B3
1554,Left,1,46,80,317.5,0.489583,Eighth,A#2
1552,Right,0,61,80,317.5,0.489583,Eighth,F#3_C#4
1555,Right,0,54,80,318.0,1.489583,DottedQuarter,F#3_B3
1556,Left,1,44,80,318.0,0.739583,DottedEighth,G#2
1558,Right,0,58,80,318.75,0.239583,Sixteenth,A#3
1559,Left,1,46,80,318.75,0.239583,Sixteenth,A#2
1560,Right,0,56,80,319.0,0.489583,Eighth,G#3
1561,Left,1,47,80,319.0,0.489583,Eighth,B2
1563,Right,0,53,80,319.5,0.489583,Eighth,F3_C#4
1562,Left,1,49,80,319.5,0.489583,Eighth,C#3
1566,Left,1,42,80,320.0,0.739583,DottedEighth,F#2
1565,Right,0,58,80,320.0,1.489583,DottedQuarter,F#3_A#3
1568,Left,1,44,80,320.75,0.239583,Sixteenth,G#2
1569,Left,1,46,80,321.0,0.489583,Eighth,A#2
1571,Right,0,54,80,321.5,0.489583,Eighth,F#3_D#4
1570,Left,1,47,80,321.5,0.489583,Eighth,B2
1573,Left,1,44,80,322.0,0.739583,DottedEighth,G#2
1574,Right,0,54,80,322.0,1.489583,DottedQuarter,F#3_B3
1576,Left,1,46,80,322.75,0.239583,Sixteenth,A#2
1577,Right,0,58,80,322.75,0.239583,Sixteenth,A#3
1578,Left,1,47,80,323.0,0.489583,Eighth,B2
1579,Right,0,56,80,323.0,0.489583,Eighth,G#3
1582,Left,1,49,80,323.5,0.489583,Eighth,C#3
1580,Right,0,53,80,323.5,0.489583,Eighth,F3_C#4
1583,Right,0,58,80,324.0,1.489583,DottedQuarter,F#3_A#3
1585,Left,1,42,80,324.0,0.739583,DottedEighth,F#2
1586,Left,1,44,80,324.75,0.239583,Sixteenth,G#2
1587,Left,1,46,80,325.0,0.489583,Eighth,A#2
1588,Right,0,66,80,325.5,0.489583,Eighth,F#4_F#3_D#4
1591,Left,1,47,80,325.5,0.489583,Eighth,B2
1592,Right,0,64,82,326.0,1.489583,DottedQuarter,F#3_E4_A#3
1594,Left,1,49,82,326.0,0.739583,DottedEighth,C#3
1597,Left,1,51,86,326.75,0.239583,Sixteenth,D#3
1596,Right,0,63,86,326.75,0.239583,Sixteenth,D#4
1598,Left,1,52,87,327.0,0.489583,Eighth,E3
1599,Right,0,61,87,327.0,0.489583,Eighth,C#4
1600,Right,0,66,89,327.5,0.489583,Eighth,F#4_C#4_A#3
1603,Left,1,54,89,327.5,0.489583,Eighth,F#3
1604,Right,0,58,92,328.0,1.489583,DottedQuarter,E4_C#4_A#3
1607,Left,1,56,92,328.0,0.739583,DottedEighth,G#3
1608,Left,1,58,96,328.75,0.239583,Sixteenth,A#3
1609,Left,1,59,97,329.0,0.489583,Eighth,B3
1611,Right,0,70,99,329.5,0.489583,Eighth,F#5_E5_A#4
1610,Left,1,61,99,329.5,0.489583,Eighth,C#4
1616,Left,1,63,102,330.0,0.739583,DottedEighth,D#4
1614,Right,0,71,102,330.0,1.489583,DottedQuarter,F#5_B4
1617,Left,1,64,106,330.75,0.239583,Sixteenth,E4
1618,Right,0,76,106,330.75,0.239583,Sixteenth,E5
1620,Left,1,66,107,331.0,0.489583,Eighth,F#4
1619,Right,0,75,107,331.0,0.489583,Eighth,D#5
1621,Right,0,78,109,331.5,0.489583,Eighth,F#5_D#5
1622,Left,1,71,109,331.5,0.489583,Eighth,B4
1624,Right,0,80,110,332.0,1.489583,DottedQuarter,G#5_C#5_B4
1627,Left,1,65,110,332.0,0.739583,DottedEighth,F4
1629,Left,1,66,110,332.75,0.239583,Sixteenth,F#4
1628,Right,0,78,110,332.75,0.239583,Sixteenth,F#5
1630,Left,1,68,110,333.0,0.489583,Eighth,G#4
1631,Right,0,77,110,333.0,0.489583,Eighth,F5
1632,Right,0,77,110,333.5,0.489583,Eighth,G#5_F5
1633,Left,1,73,110,333.5,0.489583,Eighth,C#5
1635,Right,0,80,110,334.0,0.739583,DottedEighth,G#5
1636,Left,1,65,110,334.0,0.739583,DottedEighth,F4
1637,Right,0,78,110,334.75,0.239583,Sixteenth,F#5
1638,Left,1,66,110,334.75,0.239583,Sixteenth,F#4
1639,Right,0,77,110,335.0,0.489583,Eighth,F5
1640,Left,1,68,110,335.0,0.489583,Eighth,G#4
1641,Right,0,85,110,335.5,0.489583,Eighth,C#6
1642,Left,1,73,110,335.5,0.489583,Eighth,C#5
1643,Right,0,82,110,336.0,0.739583,DottedEighth,A#5
1644,Left,1,66,110,336.0,0.739583,DottedEighth,F#4
1645,Left,1,68,110,336.75,0.239583,Sixteenth,G#4
1646,Right,0,80,110,336.75,0.239583,Sixteenth,G#5
1647,Left,1,70,110,337.0,0.489583,Eighth,A#4
1648,Right,0,78,110,337.0,0.489583,Eighth,F#5
1649,Left,1,73,110,337.5,0.489583,Eighth,C#5
1650,Right,0,85,110,337.5,0.489583,Eighth,C#6
1651,Right,0,80,110,338.0,0.739583,DottedEighth,G#5
1652,Left,1,65,110,338.0,0.739583,DottedEighth,F4
1654,Left,1,66,110,338.75,0.239583,Sixteenth,F#4
1653,Right,0,78,110,338.75,0.239583,Sixteenth,F#5
1655,Right,0,77,110,339.0,0.489583,Eighth,F5
1656,Left,1,68,110,339.0,0.489583,Eighth,G#4
1657,Right,0,85,110,339.5,0.489583,Eighth,C#6
1658,Left,1,73,110,339.5,0.489583,Eighth,C#5
1659,Right,0,78,110,340.0,0.739583,DottedEighth,F#5
1660,Left,1,63,110,340.0,0.739583,DottedEighth,D#4
1662,Left,1,65,110,340.75,0.239583,Sixteenth,F4
1661,Right,0,77,110,340.75,0.239583,Sixteenth,F5
1663,Right,0,75,110,341.0,0.489583,Eighth,D#5
1664,Left,1,66,110,341.0,0.489583,Eighth,F#4
1665,Right,0,85,110,341.5,0.489583,Eighth,C#6
1666,Left,1,73,110,341.5,0.489583,Eighth,C#5
1667,Left,1,61,110,342.0,0.739583,DottedEighth,C#4
1668,Right,0,77,110,342.0,0.739583,DottedEighth,F5
1669,Left,1,63,110,342.75,0.239583,Sixteenth,D#4
1670,Right,0,75,110,342.75,0.239583,Sixteenth,D#5
1671,Right,0,85,110,343.0,0.489583,Eighth,C#6_C#5
1673,Left,1,65,110,343.0,0.489583,Eighth,F4
1674,Right,0,83,110,343.5,0.489583,Eighth,B5_B4
1676,Left,1,65,110,343.5,0.489583,Eighth,G#4_F4
1678,Right,0,83,110,344.0,1.489583,DottedEighth,C#5_B5
1679,Left,1,68,110,344.0,0.739583,DottedEighth,G#4_F4
1684,Right,0,82,80,344.75,0.239583,Sixteenth,A#5
1682,Left,1,70,80,344.75,0.239583,Sixteenth,F#4_A#4
1687,Right,0,80,80,345.0,0.489583,Eighth,G#5
1685,Left,1,71,80,345.0,0.489583,Eighth,G#4_B4
1690,Right,0,71,80,345.5,0.489583,Eighth,C#5_B4
1688,Left,1,56,80,345.5,0.489583,Eighth,G#3_F3
1692,Right,0,73,80,346.0,0.989583,Quarter,C#5_B4
1694,Left,1,56,80,346.0,0.739583,DottedEighth,G#3_F3
1696,Right,0,70,80,346.75,0.239583,Sixteenth,A#4
1697,Left,1,54,80,346.75,0.239583,Sixteenth,F#3_A#3
1699,Left,1,56,80,347.0,0.489583,Eighth,G#3_B3
1701,Right,0,71,80,347.0,0.489583,Eighth,G#4_C#5_B4
1706,Left,1,61,80,347.5,0.489583,Eighth,C#4_A#3
1704,Right,0,66,80,347.5,0.489583,Eighth,F#4_C#5_A#4
1709,Left,1,61,80,348.0,1.989583,Half,C#4_B3
1710,Right,0,68,80,348.0,1.989583,Half,G#4_F4_C#5
1717,Left,1,57,70,350.0,1.989583,Half,C4_A3
1714,Right,0,69,70,350.0,1.989583,Half,F#4_D#5_A4
1719,Left,1,37,90,352.0,0.427083,DottedSixteenth,C#2
1720,Left,1,41,90,352.125,0.489583,Eighth,F2
1721,Left,1,44,91,352.25,0.5,Eighth,G#2
1722,Left,1,47,91,352.375,0.489583,Eighth,B2
1723,Left,1,49,92,352.5,0.458333,Eighth,C#3
1724,Left,1,53,93,352.625,0.458333,Eighth,F3
1725,Left,1,56,93,352.75,0.510417,Eighth,G#3
1726,Left,1,59,94,352.875,0.541667,Eighth,B3
1727,Left,1,61,94,353.0,0.5,Eighth,C#4
1728,Left,1,65,95,353.125,0.458333,Eighth,F4
1729,Left,1,49,96,353.25,0.46875,Eighth,C#3
1730,Left,1,53,96,353.375,0.489583,Eighth,F3
1731,Left,1,56,97,353.5,0.5,Eighth,G#3
1732,Left,1,59,98,353.625,0.447917,Eighth,B3
1733,Left,1,61,98,353.75,0.489583,Eighth,C#4
1734,Left,1,65,99,353.875,0.5,Eighth,F4
1735,Right,0,68,99,354.0,0.489583,Eighth,G#4
1736,Right,0,71,100,354.125,0.510417,Eighth,B4
1737,Right,0,73,101,354.25,0.53125,Eighth,C#5
1738,Right,0,77,101,354.375,0.447917,Eighth,F5
1739,Right,0,61,102,354.5,0.46875,Eighth,C#4
1740,Right,0,65,103,354.625,0.5,Eighth,F4
1741,Right,0,68,103,354.75,0.5,Eighth,G#4
1742,Right,0,71,104,354.875,0.510417,Eighth,B4
1743,Right,0,73,104,355.0,2.989583,DottedHalf,C#5
1744,Right,0,77,105,355.125,2.864583,DottedHalf,F5
1745,Right,0,80,106,355.25,2.739583,DottedHalf,G#5
1746,Right,0,83,106,355.375,2.614583,DottedHalf,B5
1747,Right,0,85,107,355.5,2.4375,Half,C#6
1748,Right,0,89,108,355.625,2.364583,Half,F6
1750,Right,0,57,110,358.0,0.479167,Eighth,A3
1749,Left,1,42,110,358.0,3.989583,Whole,F#2_C3
1752,Right,0,66,110,358.25,0.46875,Eighth,F#4
1753,Right,0,57,110,358.5,0.479167,Eighth,A3
1754,Right,0,66,110,358.75,0.489583,Eighth,F#4
1755,Right,0,57,110,359.0,0.46875,Eighth,A3
1756,Right,0,66,110,359.25,0.447917,Eighth,F#4
1758,Left,1,49,110,359.5,0.489583,Eighth,C#3
1757,Right,0,58,110,359.5,0.479167,Eighth,A#3
1759,Right,0,66,110,359.75,0.458333,Eighth,F#4
1761,Right,0,59,110,360.0,0.458333,Eighth,B3
1760,Left,1,51,110,360.0,0.489583,Eighth,D#3
1762,Right,0,66,110,360.25,0.479167,Eighth,F#4
1763,Right,0,63,110,360.5,0.458333,Eighth,D#4
1764,Left,1,47,110,360.5,0.489583,Eighth,B2
1765,Right,0,71,110,360.75,0.4375,Eighth,B4
1767,Left,1,53,110,361.0,0.489583,Eighth,F3
1766,Right,0,68,110,361.0,0.458333,Eighth,G#4
1768,Right,0,71,110,361.25,0.46875,Eighth,B4
1769,Left,1,49,110,361.5,0.489583,Eighth,C#3
1770,Right,0,65,110,361.5,0.479167,Eighth,F4
1771,Right,0,73,110,361.75,0.458333,Eighth,C#5
1772,Right,0,69,120,362.0,0.479167,Eighth,A4
1773,Left,1,60,120,362.0,3.989583,DottedQuarter,F#3_C4
1775,Right,0,78,120,362.25,0.46875,Eighth,F#5
1776,Right,0,69,120,362.5,0.479167,Eighth,A4
1777,Right,0,78,120,362.75,0.458333,Eighth,F#5
1778,Right,0,69,120,363.0,0.489583,Eighth,A4
1779,Right,0,78,120,363.25,0.427083,DottedSixteenth,F#5
1780,Left,1,61,120,363.5,0.489583,Eighth,C#4
1781,Right,0,70,120,363.5,0.447917,Eighth,A#4
1782,Right,0,78,120,363.75,0.46875,Eighth,F#5
1783,Left,1,63,120,364.0,0.489583,Eighth,D#4
1784,Right,0,71,120,364.0,0.416667,DottedSixteenth,B4
1785,Right,0,78,120,364.25,0.447917,Eighth,F#5
1787,Left,1,59,120,364.5,0.489583,Eighth,B3
1786,Right,0,75,120,364.5,0.46875,Eighth,D#5
1788,Right,0,83,120,364.75,0.4375,Eighth,B5
1790,Right,0,80,120,365.0,0.447917,Eighth,G#5
1789,Left,1,65,120,365.0,0.489583,Eighth,F4
1791,Right,0,83,120,365.25,0.447917,Eighth,B5
1793,Right,0,77,120,365.5,0.4375,Eighth,F5
1792,Left,1,61,120,365.5,0.489583,Eighth,C#4
1794,Right,0,85,120,365.75,0.447917,Eighth,C#6
1795,Right,0,78,120,366.0,0.458333,Eighth,F#5
1796,Left,1,66,120,366.0,0.489583,Eighth,F#4
1797,Right,0,82,120,366.5,0.197917,TripletSixteenth,A#5
1798,Left,1,61,120,366.5,0.489583,Eighth,C#4
1799,Right,0,85,120,366.75,0.447917,Eighth,C#6
1800,Right,0,82,120,367.0,0.4375,Eighth,A#5
1801,Left,1,54,120,367.0,0.489583,Eighth,F#3
1802,Right,0,85,120,367.25,0.458333,Eighth,C#6
1804,Right,0,83,120,367.5,0.479167,Eighth,G#5_B5
1803,Left,1,49,120,367.5,0.489583,Eighth,C#3
1806,Right,0,89,120,367.75,0.239583,Sixteenth,F6
1810,Left,1,42,120,368.0,1.489583,DottedQuarter,F#2
1807,Right,0,78,120,368.0,1.489583,DottedQuarter,F#6_F#5_A#5
