,hand,channel,note,velocity,start_beat,duration,note_value,chord
0,Right,0,68,80,0.0,0.989583,Quarter,G#4
1,Right,0,71,80,0.25,0.739583,DottedEighth,B4
2,Left,1,52,80,0.5,0.239583,Sixteenth,E3
3,Left,1,59,80,0.75,0.239583,Sixteenth,B3
4,Right,0,71,80,1.0,0.989583,Quarter,B4
5,Right,0,66,80,1.25,0.739583,DottedEighth,F#4
6,Left,1,63,80,1.5,0.239583,Sixteenth,D#4
7,Left,1,51,80,1.75,0.239583,Sixteenth,D#3
8,Right,0,64,80,2.0,0.989583,Quarter,E4
9,Right,0,68,80,2.25,0.739583,DottedEighth,G#4
10,Left,1,49,80,2.5,0.239583,Sixteenth,C#3
11,Left,1,56,80,2.75,0.239583,Sixteenth,G#3
12,Right,0,68,80,3.0,0.989583,Quarter,G#4
13,Right,0,63,80,3.25,0.739583,DottedEighth,D#4
14,Left,1,59,80,3.5,0.239583,Sixteenth,B3
15,Left,1,47,80,3.75,0.239583,Sixteenth,B2
16,Right,0,61,80,4.0,0.989583,Quarter,C#4
17,Right,0,64,80,4.25,0.739583,DottedEighth,E4
18,Left,1,45,80,4.5,0.239583,Sixteenth,A2
19,Left,1,52,80,4.75,0.239583,Sixteenth,E3
20,Right,0,64,80,5.0,0.989583,Quarter,E4
21,Right,0,59,80,5.25,0.739583,DottedEighth,B3
22,Left,1,56,80,5.5,0.239583,Sixteenth,G#3
23,Left,1,44,80,5.75,0.239583,Sixteenth,G#2
24,Right,0,66,80,6.0,0.989583,Quarter,F#4_D#4_A3
27,Right,0,59,80,6.25,0.739583,DottedEighth,B3
28,Left,1,35,80,6.5,0.239583,Sixteenth,B1
29,Left,1,47,80,6.75,0.239583,Sixteenth,B2
30,Right,0,56,80,7.0,0.989583,Quarter,G#4_G#3_E4
33,Right,0,59,80,7.25,0.739583,DottedEighth,B3
34,Left,1,52,80,7.5,0.239583,Sixteenth,E3
35,Left,1,40,80,7.75,0.239583,Sixteenth,E2
36,Right,0,68,80,8.0,0.989583,Quarter,G#4
37,Right,0,71,80,8.25,0.739583,DottedEighth,B4
38,Left,1,52,81,8.5,0.239583,Sixteenth,E3
39,Left,1,59,82,8.75,0.239583,Sixteenth,B3
40,Right,0,71,83,9.0,0.989583,Quarter,B4
41,Right,0,66,84,9.25,0.739583,DottedEighth,F#4
42,Left,1,63,85,9.5,0.239583,Sixteenth,D#4
43,Left,1,51,85,9.75,0.239583,Sixteenth,D#3
44,Right,0,70,86,10.0,0.989583,Sixteenth,E4_A#4
46,Right,0,76,87,10.25,0.739583,DottedEighth,E5
47,Left,1,49,88,10.5,0.239583,Sixteenth,C#3
48,Left,1,54,89,10.75,0.239583,Sixteenth,F#3
49,Right,0,63,90,11.0,0.989583,Quarter,D#5_D#4
51,Right,0,71,91,11.25,0.739583,DottedEighth,B4
52,Left,1,59,91,11.5,0.239583,Sixteenth,B3
53,Left,1,47,92,11.75,0.239583,Sixteenth,B2
54,Right,0,71,93,12.0,0.989583,Quarter,B4
55,Right,0,75,94,12.25,0.739583,DottedEighth,D#5
56,Left,1,54,95,12.5,0.239583,Sixteenth,F#3
57,Left,1,66,96,12.75,0.239583,Sixteenth,F#4
58,Right,0,76,97,13.0,0.989583,Quarter,E5
59,Right,0,71,97,13.25,0.739583,DottedEighth,B4
60,Left,1,68,98,13.5,0.239583,Sixteenth,G#4
61,Left,1,56,99,13.75,0.239583,Sixteenth,G#3
62,Right,0,71,100,14.0,0.989583,Quarter,G#4_B4
64,Right,0,80,101,14.25,0.739583,DottedEighth,G#5
65,Left,1,52,102,14.5,0.239583,Sixteenth,E3
66,Left,1,64,103,14.75,0.239583,Sixteenth,E4
67,Right,0,78,103,15.0,0.989583,Quarter,F#5
68,Right,0,71,104,15.25,0.739583,DottedEighth,D#5_B4
70,Left,1,66,105,15.5,0.239583,Sixteenth,F#4
71,Left,1,54,106,15.75,0.239583,Sixteenth,F#3
72,Right,0,73,107,16.0,0.989583,Sixteenth,C#5_A#4
74,Right,0,82,108,16.25,0.739583,DottedEighth,A#5
75,Left,1,42,109,16.5,0.239583,Sixteenth,F#2
76,Left,1,54,109,16.75,0.239583,Sixteenth,F#3
77,Right,0,69,110,17.0,1.0,Quarter,A4
78,Right,0,72,110,17.0625,0.9375,Quarter,C5
79,Right,0,75,110,17.125,1.364583,TiedQuarter-Sixteenth,D#5
80,Right,0,78,110,17.1875,1.302083,TiedQuarter-Sixteenth,F#5
81,Right,0,81,110,17.25,1.239583,TiedQuarter-Sixteenth,A5
82,Left,1,60,110,17.5,0.489583,Eighth,F#3_D#4_C4_A3
86,Left,1,64,110,17.75,0.239583,Sixteenth,E4
87,Left,1,66,110,18.0,0.239583,Sixteenth,F#4
88,Left,1,68,110,18.25,0.239583,Sixteenth,G#4
89,Left,1,69,80,18.5,0.489583,Eighth,D#4_C4_A4
92,Right,0,80,80,18.5,0.239583,Sixteenth,G#5
93,Right,0,78,80,18.75,0.239583,Sixteenth,F#5
94,Right,0,76,80,19.0,0.239583,Sixteenth,E5_C#5
96,Left,1,68,80,19.0,0.239583,Sixteenth,G#4_E4_C#4
101,Left,1,69,89,19.25,0.239583,Sixteenth,F#4_A4
99,Right,0,72,89,19.25,0.239583,Sixteenth,D#5_C5
103,Left,1,64,99,19.5,0.239583,Sixteenth,G#4_E4
105,Right,0,73,99,19.5,0.239583,Sixteenth,E5_C#5
107,Left,1,63,109,19.75,0.239583,Sixteenth,F#4_D#4
109,Right,0,78,109,19.75,0.239583,Sixteenth,G#4_F#5_C5
112,Right,0,79,110,20.0,0.489583,Eighth,G5
113,Left,1,52,110,20.25,0.239583,Sixteenth,E3
118,Left,1,61,110,20.5,0.489583,Eighth,E3_C#4_C#3
114,Right,0,68,110,20.5,0.989583,Quarter,G#5_G#4_E5_C#5
121,Left,1,63,110,20.75,0.239583,Sixteenth,D#4
122,Left,1,64,110,21.0,0.239583,Sixteenth,E4
123,Left,1,66,110,21.25,0.239583,Sixteenth,F#4
126,Right,0,73,80,21.5,0.489583,Eighth,F#5_C#5
124,Left,1,58,80,21.5,0.489583,Eighth,G4_A#3
128,Right,0,76,80,21.75,0.239583,Sixteenth,E5
130,Left,1,63,80,22.0,0.239583,Sixteenth,D#4_B3
129,Right,0,66,80,22.0,0.239583,Sixteenth,F#4_D#5
133,Right,0,66,86,22.25,0.239583,Sixteenth,F#4_E4_C#5
135,Left,1,58,86,22.25,0.239583,Sixteenth,C#4_A#3
138,Right,0,66,93,22.5,0.239583,Sixteenth,F#4_D#5_D#4
140,Left,1,59,93,22.5,0.239583,Sixteenth,B3
142,Right,0,64,99,22.75,0.239583,Sixteenth,E5_E4
143,Left,1,59,99,22.75,0.239583,Sixteenth,G#3_B3
146,Left,1,59,80,23.0,0.489583,Eighth,D#3_B3
147,Right,0,78,80,23.0,0.239583,Sixteenth,F#5
149,Right,0,71,80,23.25,0.239583,Sixteenth,B4
150,Left,1,56,80,23.5,0.489583,Eighth,G#3_B3
152,Right,0,78,80,23.5,0.239583,Sixteenth,F#5
153,Right,0,76,80,23.75,0.239583,Sixteenth,E5
155,Left,1,54,80,24.0,0.489583,Eighth,F#3_B3
154,Right,0,75,80,24.0,0.989583,Quarter,D#5
157,Left,1,54,80,24.5,0.489583,Eighth,F#3_D#4_B3
163,Right,0,73,80,25.0,0.083333,TripletThirtySecond,C#5
160,Left,1,54,80,25.0,0.489583,Eighth,F#3_C#4_A#3
164,Right,0,75,83,25.09375,0.083333,TripletThirtySecond,D#5
165,Right,0,73,86,25.1875,0.083333,TripletThirtySecond,C#5
166,Right,0,72,89,25.291667,0.09375,TripletThirtySecond,C5
167,Right,0,73,92,25.395833,0.09375,TripletThirtySecond,C#5
168,Right,0,75,96,25.5,0.072917,TripletThirtySecond,D#5
169,Left,1,57,96,25.5,0.489583,Eighth,F#3_D#4_C4_A3
173,Right,0,76,98,25.583333,0.072917,TripletThirtySecond,E5
174,Right,0,77,101,25.666667,0.072917,TripletThirtySecond,F5
175,Right,0,78,104,25.75,0.072917,TripletThirtySecond,F#5
176,Right,0,79,106,25.833333,0.072917,TripletThirtySecond,G5
177,Right,0,80,109,25.916667,0.072917,TripletThirtySecond,G#5
178,Right,0,81,110,26.0,0.34375,Triplet,A5
179,Left,1,42,110,26.0,2.489583,Half,F#2_F#1
181,Right,0,93,110,26.125,0.34375,Triplet,A6
182,Right,0,87,110,26.25,0.385417,DottedSixteenth,D#6
183,Right,0,84,110,26.375,0.375,DottedSixteenth,C6
184,Right,0,81,110,26.5,0.375,DottedSixteenth,A5
185,Right,0,75,110,26.625,0.34375,Triplet,D#5
186,Right,0,72,110,26.75,0.385417,DottedSixteenth,C5
187,Right,0,69,110,26.875,0.34375,Triplet,A4
188,Right,0,63,110,27.0,0.333333,Triplet,D#4
189,Right,0,60,110,27.125,0.3125,Triplet,C4
190,Right,0,57,110,27.25,0.333333,Triplet,A3
191,Right,0,51,110,27.375,0.322917,Triplet,D#3
192,Right,0,45,80,27.583333,0.208333,Sixteenth,A2
193,Right,0,48,80,27.666667,0.041667,TripletSixtyFourth,C3
194,Right,0,51,80,27.75,0.25,Sixteenth,D#3
195,Right,0,57,80,27.833333,0.21875,Sixteenth,A3
196,Right,0,60,80,27.916667,0.25,Sixteenth,C4
197,Right,0,63,80,28.0,0.177083,TripletSixteenth,D#4
198,Right,0,69,80,28.0625,0.166667,TripletSixteenth,A4
199,Right,0,72,80,28.125,0.1875,TripletSixteenth,C5
200,Right,0,75,80,28.1875,0.177083,TripletSixteenth,D#5
201,Right,0,81,80,28.25,0.1875,TripletSixteenth,A5
202,Right,0,84,80,28.3125,0.15625,TripletSixteenth,C6
203,Right,0,87,80,28.375,0.104167,ThirtySecond,D#6
204,Right,0,93,80,28.4375,0.052083,SixtyFourth,A6
205,Left,1,29,80,28.5,0.239583,Sixteenth,F2_F1
207,Right,0,92,80,28.5,0.239583,Sixteenth,G#6_G#5
211,Left,1,27,80,28.75,0.239583,Sixteenth,D#2_D#1
209,Right,0,91,80,28.75,0.239583,Sixteenth,G6_G5
213,Right,0,91,110,29.0,0.15625,TripletSixteenth,G6
214,Left,1,27,110,29.0,1.989583,Half,D#1
215,Right,0,87,110,29.083333,0.166667,TripletSixteenth,D#6
216,Right,0,82,110,29.166667,0.177083,TripletSixteenth,A#5
217,Right,0,79,110,29.25,0.197917,TripletSixteenth,G5
218,Right,0,75,110,29.333333,0.197917,TripletSixteenth,D#5
219,Right,0,70,110,29.416667,0.197917,TripletSixteenth,A#4
220,Right,0,67,110,29.5,0.1875,TripletSixteenth,G4
221,Right,0,63,110,29.583333,0.177083,TripletSixteenth,D#4
222,Right,0,58,110,29.666667,0.1875,TripletSixteenth,A#3
223,Right,0,55,110,29.75,0.166667,TripletSixteenth,G3
224,Right,0,51,110,29.833333,0.177083,TripletSixteenth,D#3
225,Right,0,46,110,29.916667,0.1875,TripletSixteenth,A#2
226,Left,1,39,110,30.0,0.114583,ThirtySecond,D#2
227,Left,1,43,110,30.0625,0.114583,ThirtySecond,G2
228,Left,1,46,110,30.125,0.114583,ThirtySecond,A#2
229,Left,1,51,110,30.1875,0.239583,Sixteenth,D#3
230,Right,0,55,110,30.25,0.166667,TripletSixteenth,G3
231,Right,0,58,110,30.3125,0.114583,ThirtySecond,A#3
232,Right,0,63,110,30.375,0.135417,ThirtySecond,D#4
233,Right,0,67,109,30.4375,0.135417,ThirtySecond,G4
234,Left,1,55,107,30.5,0.135417,ThirtySecond,G3
235,Left,1,58,105,30.5625,0.15625,TripletSixteenth,A#3
236,Left,1,63,103,30.625,0.15625,TripletSixteenth,D#4
237,Left,1,67,101,30.6875,0.145833,TripletSixteenth,G4
238,Right,0,67,99,30.75,0.135417,ThirtySecond,G4
239,Right,0,70,97,30.8125,0.135417,ThirtySecond,A#4
240,Right,0,75,95,30.875,0.135417,ThirtySecond,D#5
241,Right,0,79,93,30.9375,0.125,ThirtySecond,G5
242,Left,1,63,91,31.0,0.135417,ThirtySecond,D#4
243,Left,1,67,89,31.0625,0.135417,ThirtySecond,G4
244,Left,1,70,87,31.125,0.114583,ThirtySecond,A#4
245,Left,1,75,85,31.1875,0.135417,ThirtySecond,D#5
246,Right,0,79,83,31.25,0.145833,TripletSixteenth,G5
247,Right,0,82,81,31.3125,0.145833,TripletSixteenth,A#5
248,Right,0,87,80,31.375,0.114583,ThirtySecond,D#6
249,Right,0,91,80,31.4375,0.052083,SixtyFourth,G6
252,Right,0,79,80,31.5,0.239583,Sixteenth,G6_G5
250,Left,1,39,80,31.5,0.489583,Eighth,D#3_D#2_A2
255,Right,0,78,80,31.75,0.239583,Sixteenth,F#6_F#5
259,Right,0,78,80,32.0,0.114583,ThirtySecond,F#6_F#5
257,Left,1,51,80,32.0,0.239583,Sixteenth,F#3_D#3_D#2
262,Right,0,83,80,32.125,0.114583,ThirtySecond,B5
263,Right,0,82,80,32.25,0.114583,ThirtySecond,A#5
264,Left,1,51,80,32.25,0.239583,Sixteenth,D#3_B3
266,Right,0,83,80,32.375,0.114583,ThirtySecond,B5
267,Right,0,82,80,32.5,0.114583,ThirtySecond,A#5
268,Right,0,83,80,32.625,0.114583,ThirtySecond,B5
269,Left,1,59,80,32.75,0.239583,Sixteenth,G#3_E4_B3
272,Right,0,90,80,32.75,0.114583,ThirtySecond,F#6
273,Right,0,88,80,32.875,0.114583,ThirtySecond,E6
274,Right,0,75,80,33.0,0.114583,ThirtySecond,D#5
275,Right,0,94,80,33.125,0.114583,ThirtySecond,A#6
276,Right,0,95,80,33.25,0.114583,ThirtySecond,B6
277,Left,1,63,80,33.25,0.239583,Sixteenth,F#3_D#4_B3
280,Right,0,94,80,33.375,0.114583,ThirtySecond,A#6
282,Left,1,87,80,33.5,0.072917,TripletThirtySecond,D#6
281,Right,0,94,80,33.5,0.072917,TripletThirtySecond,A#6
284,Left,1,85,80,33.583333,0.072917,TripletThirtySecond,C#6
283,Right,0,92,80,33.583333,0.072917,TripletThirtySecond,G#6
286,Left,1,82,80,33.666667,0.072917,TripletThirtySecond,A#5
285,Right,0,90,80,33.666667,0.072917,TripletThirtySecond,F#6
287,Left,1,85,80,33.75,0.072917,TripletThirtySecond,C#6
288,Right,0,94,80,33.75,0.072917,TripletThirtySecond,A#6
290,Left,1,83,80,33.833333,0.072917,TripletThirtySecond,B5
289,Right,0,92,80,33.833333,0.072917,TripletThirtySecond,G#6
291,Left,1,80,80,33.916667,0.072917,TripletThirtySecond,G#5
292,Right,0,88,80,33.916667,0.072917,TripletThirtySecond,E6
293,Right,0,92,80,34.0,0.072917,TripletThirtySecond,G#6
294,Left,1,83,80,34.0,0.072917,TripletThirtySecond,B5
295,Left,1,81,80,34.083333,0.072917,TripletThirtySecond,A5
296,Right,0,90,80,34.083333,0.072917,TripletThirtySecond,F#6
297,Left,1,78,81,34.166667,0.072917,TripletThirtySecond,F#5
298,Right,0,87,81,34.166667,0.072917,TripletThirtySecond,D#6
300,Right,0,90,82,34.25,0.072917,TripletThirtySecond,F#6
299,Left,1,82,82,34.25,0.072917,TripletThirtySecond,A#5
302,Right,0,88,83,34.333333,0.072917,TripletThirtySecond,E6
301,Left,1,80,83,34.333333,0.072917,TripletThirtySecond,G#5
304,Right,0,85,84,34.416667,0.072917,TripletThirtySecond,C#6
303,Left,1,76,84,34.416667,0.072917,TripletThirtySecond,E5
306,Left,1,80,85,34.5,0.072917,TripletThirtySecond,G#5
305,Right,0,88,85,34.5,0.072917,TripletThirtySecond,E6
308,Left,1,78,85,34.583333,0.072917,TripletThirtySecond,F#5
307,Right,0,87,85,34.583333,0.072917,TripletThirtySecond,D#6
309,Right,0,83,86,34.666667,0.072917,TripletThirtySecond,B5
310,Left,1,75,86,34.666667,0.072917,TripletThirtySecond,D#5
312,Right,0,87,87,34.75,0.072917,TripletThirtySecond,D#6
311,Left,1,78,87,34.75,0.072917,TripletThirtySecond,F#5
313,Left,1,76,88,34.833333,0.072917,TripletThirtySecond,E5
314,Right,0,85,88,34.833333,0.072917,TripletThirtySecond,C#6
315,Right,0,82,89,34.916667,0.072917,TripletThirtySecond,A#5
316,Left,1,73,89,34.916667,0.072917,TripletThirtySecond,C#5
318,Right,0,83,90,35.0,0.072917,TripletThirtySecond,B5
317,Left,1,71,90,35.0,0.239583,Sixteenth,D#5_B4
320,Right,0,82,91,35.083333,0.072917,TripletThirtySecond,A#5
321,Right,0,80,91,35.166667,0.072917,TripletThirtySecond,G#5
323,Right,0,78,92,35.25,0.072917,TripletThirtySecond,F#5
322,Left,1,54,92,35.25,0.239583,Sixteenth,F#3
324,Right,0,76,93,35.333333,0.072917,TripletThirtySecond,E5
325,Right,0,75,94,35.416667,0.072917,TripletThirtySecond,D#5
326,Right,0,73,95,35.5,0.072917,TripletThirtySecond,C#5
327,Left,1,56,95,35.5,0.239583,Sixteenth,G#3
328,Right,0,71,96,35.583333,0.072917,TripletThirtySecond,B4
329,Right,0,70,97,35.666667,0.072917,TripletThirtySecond,A#4
330,Left,1,58,97,35.75,0.239583,Sixteenth,A#3
331,Right,0,68,97,35.75,0.072917,TripletThirtySecond,G#4
332,Right,0,66,98,35.833333,0.072917,TripletThirtySecond,F#4
333,Right,0,64,99,35.916667,0.072917,TripletThirtySecond,E4
335,Left,1,59,100,36.0,0.239583,Sixteenth,B3
334,Right,0,63,100,36.0,0.072917,TripletThirtySecond,D#4
336,Right,0,61,101,36.083333,0.072917,TripletThirtySecond,C#4
337,Right,0,59,102,36.166667,0.072917,TripletThirtySecond,B3
338,Right,0,58,103,36.25,0.072917,TripletThirtySecond,A#3
339,Right,0,56,103,36.333333,0.072917,TripletThirtySecond,G#3
340,Right,0,54,104,36.416667,0.072917,TripletThirtySecond,F#3
341,Left,1,35,105,36.5,0.239583,Sixteenth,B1
342,Right,0,52,105,36.5,0.072917,TripletThirtySecond,E3
343,Right,0,51,106,36.583333,0.072917,TripletThirtySecond,D#3
344,Right,0,49,107,36.666667,0.072917,TripletThirtySecond,C#3
345,Right,0,47,108,36.75,0.072917,TripletThirtySecond,B2
346,Right,0,46,109,36.833333,0.072917,TripletThirtySecond,A#2
347,Right,0,47,109,36.916667,0.072917,TripletThirtySecond,B2
348,Right,0,49,110,37.0,0.072917,TripletThirtySecond,C#3
349,Right,0,51,110,37.083333,0.072917,TripletThirtySecond,D#3
350,Right,0,52,109,37.166667,0.072917,TripletThirtySecond,E3
351,Right,0,54,108,37.25,0.072917,TripletThirtySecond,F#3
352,Right,0,56,107,37.333333,0.072917,TripletThirtySecond,G#3
353,Right,0,58,106,37.416667,0.072917,TripletThirtySecond,A#3
354,Right,0,59,105,37.5,0.072917,TripletThirtySecond,B3
355,Right,0,61,104,37.583333,0.072917,TripletThirtySecond,C#4
356,Right,0,63,103,37.666667,0.072917,TripletThirtySecond,D#4
357,Right,0,64,102,37.75,0.072917,TripletThirtySecond,E4
358,Right,0,66,101,37.833333,0.072917,TripletThirtySecond,F#4
359,Right,0,68,101,37.916667,0.072917,TripletThirtySecond,G#4
360,Right,0,70,100,38.0,0.239583,Sixteenth,A#4
361,Right,0,71,97,38.25,0.239583,Sixteenth,B4
362,Right,0,73,94,38.5,0.239583,Sixteenth,C#5
363,Right,0,75,91,38.75,0.239583,Sixteenth,D#5
364,Right,0,76,89,39.0,0.239583,Sixteenth,E5
365,Right,0,78,86,39.25,0.239583,Sixteenth,F#5
366,Right,0,80,83,39.5,0.239583,Sixteenth,G#5
367,Right,0,82,81,39.75,0.239583,Sixteenth,A#5
368,Right,0,83,80,40.0,0.489583,Eighth,B5
369,Left,1,63,80,40.0,0.989583,Quarter,D#4
370,Left,1,66,80,40.25,0.739583,DottedEighth,F#4
371,Right,0,73,80,40.5,0.239583,Sixteenth,C#5
372,Right,0,78,80,40.75,0.239583,Sixteenth,F#5
373,Left,1,66,80,41.0,0.989583,Quarter,F#4
374,Left,1,61,80,41.25,0.739583,DottedEighth,C#4
375,Right,0,71,80,41.5,0.239583,Sixteenth,B4
376,Right,0,70,80,41.75,0.239583,Sixteenth,A#4
377,Left,1,64,80,42.0,0.989583,Quarter,E4
378,Left,1,68,80,42.25,0.739583,DottedEighth,G#4
379,Right,0,73,80,42.5,0.239583,Sixteenth,C#5
380,Right,0,80,80,42.75,0.239583,Sixteenth,G#5
381,Left,1,68,80,43.0,0.989583,Quarter,G#4
382,Left,1,63,80,43.25,0.739583,DottedEighth,D#4
383,Right,0,73,80,43.5,0.239583,Sixteenth,C#5
384,Right,0,72,80,43.75,0.239583,Sixteenth,C5
385,Left,1,66,80,44.0,0.989583,Quarter,F#4
386,Left,1,69,80,44.25,0.739583,DottedEighth,A4
387,Right,0,75,80,44.5,0.239583,Sixteenth,D#5_C5
389,Right,0,84,80,44.75,0.239583,Sixteenth,C6
390,Left,1,64,80,45.0,0.989583,Quarter,E4
391,Left,1,68,80,45.25,0.739583,DottedEighth,G#4
392,Right,0,73,80,45.5,0.239583,Sixteenth,E5_C#5
394,Right,0,85,80,45.75,0.239583,Sixteenth,C#6
395,Left,1,66,80,46.0,0.989583,Sixteenth,F#4_D#4
397,Left,1,68,80,46.25,0.739583,DottedEighth,G#4
398,Right,0,84,80,46.5,0.239583,Sixteenth,C6
399,Right,0,87,80,46.75,0.239583,Sixteenth,D#6
400,Left,1,61,80,47.0,0.989583,Quarter,E4_C#4
402,Left,1,68,80,47.25,0.739583,DottedEighth,G#4
403,Right,0,80,80,47.5,0.239583,Sixteenth,G#5
404,Right,0,88,80,47.75,0.239583,Sixteenth,E6
405,Left,1,63,80,48.0,0.989583,Sixteenth,D#4_C4
407,Left,1,68,80,48.25,0.739583,DottedEighth,G#4
408,Right,0,87,80,48.5,0.239583,Sixteenth,F#5_D#6
410,Right,0,80,80,48.75,0.239583,Sixteenth,G#5
411,Left,1,64,80,49.0,0.989583,Sixteenth,E4_C#4
413,Left,1,68,80,49.25,0.739583,DottedEighth,G#4
414,Right,0,80,80,49.5,0.239583,Sixteenth,G#5_E5
416,Right,0,88,80,49.75,0.239583,Sixteenth,E6
417,Left,1,57,80,50.0,0.989583,Quarter,C#4_A3
419,Left,1,66,80,50.25,0.739583,DottedEighth,F#4
420,Right,0,78,80,50.5,0.239583,Sixteenth,F#5_C#6
422,Right,0,90,80,50.75,0.239583,Sixteenth,F#6
423,Left,1,63,80,51.0,0.989583,Sixteenth,G#3_D#4
425,Left,1,68,80,51.25,0.739583,DottedEighth,G#4
426,Right,0,80,80,51.5,0.239583,Sixteenth,G#5_C6
428,Right,0,92,80,51.75,0.239583,Sixteenth,G#6
429,Right,0,75,80,52.0,0.989583,Quarter,D#5_A#4
431,Right,0,63,80,52.25,0.739583,DottedEighth,D#4
432,Left,1,55,81,52.5,0.239583,Sixteenth,G3
433,Left,1,58,82,52.75,0.239583,Sixteenth,A#3
434,Right,0,75,82,53.0,0.989583,Quarter,D#5_B4
436,Right,0,63,83,53.25,0.739583,DottedEighth,D#4
437,Left,1,56,84,53.5,0.239583,Sixteenth,G#3
438,Left,1,59,85,53.75,0.239583,Sixteenth,B3
439,Right,0,73,85,54.0,0.989583,Quarter,G4_C#5
441,Right,0,63,86,54.25,0.739583,DottedEighth,D#4
442,Left,1,46,87,54.5,0.239583,Sixteenth,A#2
443,Left,1,49,88,54.75,0.239583,Sixteenth,C#3
444,Right,0,71,88,55.0,0.989583,Quarter,G#4_B4
446,Right,0,63,89,55.25,0.739583,DottedEighth,D#4
447,Left,1,47,90,55.5,0.239583,Sixteenth,B2
448,Left,1,51,91,55.75,0.239583,Sixteenth,D#3
449,Right,0,64,91,56.0,0.989583,Quarter,G4_E4_A#4
452,Right,0,61,92,56.25,0.739583,DottedEighth,C#4
453,Left,1,49,93,56.5,0.239583,Sixteenth,C#3
454,Left,1,52,94,56.75,0.239583,Sixteenth,E3
455,Right,0,65,94,57.0,0.989583,Quarter,G#4_F4_B4
458,Right,0,59,95,57.25,0.739583,DottedEighth,B3
459,Left,1,50,96,57.5,0.239583,Sixteenth,D3
460,Left,1,53,97,57.75,0.239583,Sixteenth,F3
461,Right,0,59,97,58.0,0.989583,Quarter,G#4_F4_B3
464,Right,0,56,98,58.25,0.739583,DottedEighth,G#3
465,Left,1,38,99,58.5,0.239583,Sixteenth,D2
466,Left,1,50,99,58.75,0.239583,Sixteenth,D3
467,Right,0,58,80,59.0,0.989583,Quarter,G4_D#4_A#3
470,Right,0,55,80,59.25,0.739583,DottedEighth,G3
471,Left,1,39,80,59.5,0.239583,Sixteenth,D#2
472,Left,1,51,80,59.75,0.239583,Sixteenth,D#3
473,Right,0,63,80,60.0,0.989583,Quarter,G4_D#4_A#3
476,Right,0,55,80,60.25,0.739583,DottedEighth,G3
477,Left,1,39,80,60.5,0.239583,Sixteenth,D#2
478,Left,1,51,80,60.75,0.239583,Sixteenth,D#3
479,Right,0,59,80,61.0,0.989583,Quarter,G#4_D#4_B3
482,Right,0,56,80,61.25,0.739583,DottedEighth,G#3
483,Left,1,44,80,61.5,0.239583,Sixteenth,G#2
484,Left,1,51,80,61.75,0.239583,Sixteenth,D#3
485,Right,0,63,80,62.0,0.989583,Quarter,G4_D#4_A#4
488,Right,0,58,80,62.25,0.739583,DottedEighth,A#3
489,Left,1,39,80,62.5,0.239583,Sixteenth,D#2
490,Left,1,51,80,62.75,0.239583,Sixteenth,D#3
491,Right,0,63,80,63.0,0.989583,Quarter,G#4_D#4_B4
494,Right,0,59,80,63.25,0.739583,DottedEighth,B3
495,Left,1,32,80,63.5,0.239583,Sixteenth,G#1
496,Left,1,44,81,63.75,0.239583,Sixteenth,G#2
497,Right,0,63,81,64.0,0.989583,Quarter,G4_D#4_A#4
500,Right,0,58,81,64.25,0.739583,DottedEighth,A#3
501,Left,1,39,82,64.5,0.239583,Sixteenth,D#2
502,Left,1,51,82,64.75,0.239583,Sixteenth,D#3
503,Right,0,63,83,65.0,0.989583,Quarter,G#4_D#4_B4
506,Right,0,59,83,65.25,0.739583,DottedEighth,B3
507,Left,1,44,83,65.5,0.239583,Sixteenth,G#2
508,Left,1,56,84,65.75,0.239583,Sixteenth,G#3
509,Right,0,73,84,66.0,0.989583,Quarter,F#4_C#5_A#4
512,Right,0,61,84,66.25,0.739583,DottedEighth,C#4
513,Left,1,42,85,66.5,0.239583,Sixteenth,F#2
514,Left,1,54,85,66.75,0.239583,Sixteenth,F#3
515,Right,0,66,86,67.0,0.989583,Quarter,F#4_D#5_B4
518,Right,0,63,86,67.25,0.739583,DottedEighth,D#4
519,Left,1,35,86,67.5,0.239583,Sixteenth,B1
520,Left,1,47,87,67.75,0.239583,Sixteenth,B2
521,Right,0,66,87,68.0,0.989583,Quarter,F#4_C#5_A#4
524,Right,0,61,88,68.25,0.739583,DottedEighth,C#4
525,Left,1,42,88,68.5,0.239583,Sixteenth,F#2
526,Left,1,54,88,68.75,0.239583,Sixteenth,F#3
527,Right,0,66,89,69.0,0.989583,Quarter,F#4_D#5_B4
530,Right,0,63,89,69.25,0.739583,DottedEighth,D#4
531,Left,1,47,89,69.5,0.239583,Sixteenth,B2
532,Left,1,59,90,69.75,0.239583,Sixteenth,B3
533,Right,0,74,90,70.0,0.989583,Quarter,F5_D5_A#4
536,Right,0,65,91,70.25,0.739583,DottedEighth,F4
537,Left,1,46,91,70.5,0.239583,Sixteenth,A#2
538,Left,1,58,91,70.75,0.239583,Sixteenth,A#3
539,Right,0,78,92,71.0,0.989583,Quarter,F#5_D#5_A#4
542,Right,0,66,92,71.25,0.739583,DottedEighth,F#4
543,Left,1,39,93,71.5,0.239583,Sixteenth,D#2
544,Left,1,51,93,71.75,0.239583,Sixteenth,D#3
545,Right,0,77,93,72.0,0.989583,Quarter,F5_D5_A#4
548,Right,0,65,94,72.25,0.739583,DottedEighth,F4
549,Left,1,46,94,72.5,0.239583,Sixteenth,A#2
550,Left,1,58,94,72.75,0.239583,Sixteenth,A#3
551,Right,0,70,95,73.0,0.989583,Quarter,F#5_D#5_A#4
554,Right,0,66,95,73.25,0.739583,DottedEighth,F#4
555,Left,1,51,96,73.5,0.239583,Sixteenth,D#3
556,Left,1,63,96,73.75,0.239583,Sixteenth,D#4
557,Right,0,73,96,74.0,0.989583,Quarter,G#5_F5_C#5
560,Right,0,68,97,74.25,0.739583,DottedEighth,G#4
561,Left,1,49,97,74.5,0.239583,Sixteenth,C#3
562,Left,1,61,98,74.75,0.239583,Sixteenth,C#4
563,Right,0,82,98,75.0,0.989583,Quarter,F#5_C#5_A#5
566,Right,0,70,98,75.25,0.739583,DottedEighth,A#4
567,Left,1,42,99,75.5,0.239583,Sixteenth,F#2
568,Left,1,54,99,75.75,0.239583,Sixteenth,F#3
569,Right,0,78,99,76.0,0.989583,Quarter,F#5_D#5_B5
572,Right,0,71,80,76.25,0.739583,DottedEighth,B4
573,Left,1,66,80,76.5,0.239583,Sixteenth,F#4
574,Left,1,54,80,76.75,0.239583,Sixteenth,F#3
575,Right,0,78,80,77.0,0.989583,Quarter,G#5_F#5_B4
578,Right,0,68,80,77.25,0.739583,DottedEighth,G#4
579,Left,1,42,80,77.5,0.239583,Sixteenth,F#2
580,Left,1,54,80,77.75,0.239583,Sixteenth,F#3
581,Right,0,73,80,78.0,0.989583,Quarter,F#5_C#5_A#5
584,Right,0,70,80,78.25,0.739583,DottedEighth,A#4
585,Left,1,66,80,78.5,0.239583,Sixteenth,F#4
586,Left,1,54,80,78.75,0.239583,Sixteenth,F#3
587,Right,0,75,80,79.0,0.989583,Quarter,F#5_D#5_B5
590,Right,0,71,80,79.25,0.739583,DottedEighth,B4
591,Left,1,42,80,79.5,0.239583,Sixteenth,F#2
592,Left,1,54,80,79.75,0.239583,Sixteenth,F#3
593,Right,0,78,80,80.0,0.989583,Quarter,F#5_C#6_A#5
596,Right,0,73,80,80.25,0.739583,DottedEighth,C#5
597,Left,1,66,80,80.5,0.239583,Sixteenth,F#4
598,Left,1,54,80,80.75,0.239583,Sixteenth,F#3
599,Right,0,87,80,81.0,0.989583,Quarter,F#5_D#6_B5
602,Right,0,75,80,81.25,0.739583,DottedEighth,D#5
603,Left,1,35,80,81.5,0.239583,Sixteenth,B1
604,Left,1,47,80,81.75,0.239583,Sixteenth,B2
605,Right,0,88,80,82.0,0.989583,Quarter,G#5_E6_B5
608,Right,0,76,80,82.25,0.739583,DottedEighth,E5
609,Left,1,59,80,82.5,0.239583,Sixteenth,B3
610,Left,1,47,80,82.75,0.239583,Sixteenth,B2
611,Right,0,83,80,83.0,0.989583,Quarter,E5_C#6_B5
614,Right,0,73,80,83.25,0.739583,DottedEighth,C#5
615,Left,1,35,80,83.5,0.239583,Sixteenth,B1
616,Left,1,47,80,83.75,0.239583,Sixteenth,B2
617,Right,0,78,80,84.0,0.989583,Quarter,F#5_D#6_B5
620,Right,0,75,80,84.25,0.739583,DottedEighth,D#5
621,Left,1,59,80,84.5,0.239583,Sixteenth,B3
622,Left,1,47,80,84.75,0.239583,Sixteenth,B2
623,Right,0,80,80,85.0,0.989583,Quarter,G#5_E6_B5
626,Right,0,76,80,85.25,0.739583,DottedEighth,E5
627,Left,1,35,80,85.5,0.239583,Sixteenth,B1
628,Left,1,47,80,85.75,0.239583,Sixteenth,B2
629,Right,0,83,80,86.0,0.989583,Quarter,F#6_D#6_B5
632,Right,0,78,80,86.25,0.739583,DottedEighth,F#5
633,Left,1,59,80,86.5,0.239583,Sixteenth,B3
634,Left,1,47,80,86.75,0.239583,Sixteenth,B2
635,Right,0,83,80,87.0,0.989583,Quarter,F#5_D#6_B5
638,Right,0,75,80,87.25,0.739583,DottedEighth,D#5
639,Left,1,45,80,87.5,0.239583,Sixteenth,A2
640,Left,1,57,80,87.75,0.239583,Sixteenth,A3
641,Right,0,80,80,88.0,0.989583,Quarter,G#5_E6_B5
644,Right,0,76,80,88.25,0.739583,DottedEighth,E5
645,Left,1,56,80,88.5,0.239583,Sixteenth,G#3
646,Left,1,44,80,88.75,0.239583,Sixteenth,G#2
647,Right,0,83,80,89.0,0.989583,Quarter,F#6_D#6_B5
650,Right,0,81,80,89.25,0.739583,DottedEighth,A5
651,Left,1,42,80,89.5,0.239583,Sixteenth,F#2
652,Left,1,54,80,89.75,0.239583,Sixteenth,F#3
653,Right,0,88,80,90.0,0.989583,Quarter,G#6_E6_B5
656,Right,0,80,80,90.25,0.739583,DottedEighth,G#5
657,Left,1,52,80,90.5,0.239583,Sixteenth,E3
658,Left,1,40,80,90.75,0.239583,Sixteenth,E2
659,Right,0,84,80,91.0,0.989583,Quarter,F#6_C6_A6
662,Right,0,81,80,91.25,0.739583,DottedEighth,A5
663,Left,1,39,80,91.5,0.239583,Sixteenth,D#2
664,Left,1,51,80,91.75,0.239583,Sixteenth,D#3
665,Right,0,88,80,92.0,0.989583,Quarter,G6_E6_A#6
668,Right,0,82,80,92.25,0.739583,DottedEighth,A#5
669,Left,1,49,80,92.5,0.239583,Sixteenth,C#3
670,Left,1,37,80,92.75,0.239583,Sixteenth,C#2
671,Right,0,87,80,93.0,0.989583,Quarter,D#6_B6
673,Right,0,83,80,93.25,0.739583,DottedEighth,B5
674,Left,1,35,81,93.5,0.239583,Sixteenth,B1
675,Left,1,47,81,93.75,0.239583,Sixteenth,B2
676,Right,0,92,82,94.0,0.989583,Quarter,G#6_B6
678,Right,0,83,82,94.25,0.739583,DottedEighth,B5
679,Left,1,53,83,94.5,0.239583,Sixteenth,F3
680,Left,1,41,84,94.75,0.239583,Sixteenth,F2
681,Right,0,93,84,95.0,0.989583,Quarter,B6_A6
683,Right,0,83,85,95.25,0.739583,DottedEighth,B5
684,Left,1,42,85,95.5,0.239583,Sixteenth,F#2
685,Left,1,54,86,95.75,0.239583,Sixteenth,F#3
686,Right,0,95,87,96.0,0.989583,Quarter,F#6_B6
688,Right,0,83,87,96.25,0.739583,DottedEighth,B5
689,Left,1,51,88,96.5,0.239583,Sixteenth,D#3
690,Left,1,39,88,96.75,0.239583,Sixteenth,D#2
691,Right,0,87,89,97.0,0.989583,Quarter,D#6_B6
693,Right,0,83,89,97.25,0.739583,DottedEighth,B5
694,Left,1,35,90,97.5,0.239583,Sixteenth,B1
695,Left,1,47,91,97.75,0.239583,Sixteenth,B2
696,Right,0,95,91,98.0,0.989583,Quarter,G#6_B6
698,Right,0,83,92,98.25,0.739583,DottedEighth,B5
699,Left,1,53,92,98.5,0.239583,Sixteenth,F3
700,Left,1,41,93,98.75,0.239583,Sixteenth,F2
701,Right,0,95,94,99.0,0.989583,Quarter,B6_A6
703,Right,0,83,94,99.25,0.739583,DottedEighth,B5
704,Left,1,42,95,99.5,0.239583,Sixteenth,F#2
705,Left,1,54,95,99.75,0.239583,Sixteenth,F#3
706,Right,0,90,96,100.0,0.989583,Quarter,F#6_B6
708,Right,0,83,97,100.25,0.739583,DottedEighth,B5
709,Left,1,51,97,100.5,0.239583,Sixteenth,D#3
710,Left,1,39,98,100.75,0.239583,Sixteenth,D#2
711,Right,0,87,98,101.0,0.989583,Quarter,D#6_B6
713,Right,0,83,99,101.25,0.739583,DottedEighth,B5
714,Left,1,35,99,101.5,0.239583,Sixteenth,B1
715,Left,1,47,100,101.75,0.239583,Sixteenth,B2
716,Right,0,92,101,102.0,0.989583,Quarter,G#6_B6
718,Right,0,83,101,102.25,0.739583,DottedEighth,B5
719,Left,1,53,102,102.5,0.239583,Sixteenth,F3
720,Left,1,41,102,102.75,0.239583,Sixteenth,F2
721,Right,0,93,103,103.0,0.989583,Quarter,B6_A6
723,Right,0,83,104,103.25,0.739583,DottedEighth,B5
724,Left,1,42,104,103.5,0.239583,Sixteenth,F#2
725,Left,1,54,105,103.75,0.239583,Sixteenth,F#3
726,Right,0,88,105,104.0,0.989583,Quarter,E6_B6
728,Right,0,83,106,104.25,0.739583,DottedEighth,B5
729,Left,1,49,107,104.5,0.239583,Sixteenth,C#3
730,Left,1,37,107,104.75,0.239583,Sixteenth,C#2
731,Right,0,90,108,105.0,0.989583,Quarter,F#6_B6
733,Right,0,83,108,105.25,0.739583,DottedEighth,B5
734,Left,1,39,109,105.5,0.239583,Sixteenth,D#2
735,Left,1,51,109,105.75,0.239583,Sixteenth,D#3
736,Right,0,92,110,106.0,0.989583,Quarter,G#6
737,Right,0,95,110,106.25,0.739583,DottedEighth,B6
738,Left,1,40,110,106.5,0.239583,Sixteenth,E2
739,Left,1,52,110,106.75,0.739583,DottedEighth,E3
740,Right,0,95,110,107.0,0.989583,Quarter,B6
741,Right,0,90,110,107.25,0.739583,DottedEighth,F#6
742,Left,1,39,110,107.5,0.239583,Sixteenth,D#2
743,Left,1,51,110,107.75,0.739583,DottedEighth,D#3
744,Right,0,88,110,108.0,0.989583,Quarter,E6
745,Right,0,92,110,108.25,0.739583,DottedEighth,G#6
746,Left,1,37,110,108.5,0.239583,Sixteenth,C#2
747,Left,1,49,110,108.75,0.739583,DottedEighth,C#3
748,Right,0,92,110,109.0,0.989583,Quarter,G#6
749,Right,0,87,110,109.25,0.739583,DottedEighth,D#6
750,Left,1,35,110,109.5,0.239583,Sixteenth,B1
751,Left,1,47,110,109.75,0.739583,DottedEighth,B2
752,Right,0,85,110,110.0,0.989583,Quarter,C#6
753,Right,0,88,110,110.25,0.739583,DottedEighth,E6
754,Left,1,33,110,110.5,0.239583,Sixteenth,A1
755,Left,1,45,110,110.75,0.739583,DottedEighth,A2
756,Right,0,88,110,111.0,0.989583,Quarter,E6
757,Right,0,83,110,111.25,0.739583,DottedEighth,B5
758,Left,1,32,110,111.5,0.239583,Sixteenth,G#1
759,Left,1,44,110,111.75,0.739583,DottedEighth,G#2
760,Right,0,83,110,112.0,0.989583,Quarter,F#6_D#6_B5
763,Right,0,81,110,112.25,0.739583,DottedEighth,A5
764,Left,1,30,110,112.5,0.239583,Sixteenth,F#1
765,Left,1,42,110,112.75,0.739583,DottedEighth,F#2
766,Right,0,88,110,113.0,0.989583,Quarter,G#6_E6_B5
769,Right,0,80,110,113.25,0.739583,DottedEighth,G#5
770,Left,1,28,110,113.5,0.239583,Sixteenth,E1
771,Left,1,40,110,113.75,0.239583,Sixteenth,E2
772,Left,1,56,80,114.0,0.989583,Sixteenth,G#3_E3
774,Left,1,59,80,114.25,0.739583,DottedEighth,B3
775,Right,0,68,80,114.5,0.239583,Sixteenth,G#4
776,Right,0,71,80,114.75,0.239583,Sixteenth,B4
777,Left,1,59,80,115.0,0.989583,Sixteenth,D#3_B3
779,Left,1,54,80,115.25,0.739583,DottedEighth,F#3
780,Right,0,71,80,115.5,0.239583,Sixteenth,B4
781,Right,0,78,80,115.75,0.239583,Sixteenth,F#5
782,Left,1,58,80,116.0,0.989583,Sixteenth,C#3_A#3
784,Left,1,64,80,116.25,0.739583,DottedEighth,E4
785,Right,0,76,80,116.5,0.239583,Sixteenth,F#5_E5
787,Right,0,82,80,116.75,0.239583,Sixteenth,A#5
788,Left,1,63,80,117.0,0.239583,Sixteenth,D#4
789,Left,1,59,80,117.25,1.239583,TiedQuarter-Sixteenth,B3
790,Right,0,82,80,117.5,0.239583,Sixteenth,A#5
791,Right,0,83,80,117.75,0.239583,Sixteenth,B5
792,Right,0,85,80,118.0,0.989583,Quarter,C#6
793,Right,0,88,81,118.25,0.739583,DottedEighth,E6
794,Left,1,45,82,118.5,0.239583,Sixteenth,A2
795,Left,1,57,83,118.75,0.739583,DottedEighth,A3
796,Right,0,88,84,119.0,0.989583,Quarter,E6
797,Right,0,83,85,119.25,0.739583,DottedEighth,B5
798,Left,1,44,87,119.5,0.239583,Sixteenth,G#2
799,Left,1,56,88,119.75,0.739583,DottedEighth,G#3
800,Right,0,81,89,120.0,0.989583,Quarter,D#6_A5
802,Right,0,93,90,120.25,0.739583,DottedEighth,A6
803,Left,1,42,91,120.5,0.239583,Sixteenth,F#2
804,Left,1,54,93,120.75,0.739583,DottedEighth,F#3
805,Right,0,83,94,121.0,0.989583,Quarter,G#6_G#5_B5
808,Right,0,88,95,121.25,0.739583,DottedEighth,E6
809,Left,1,40,96,121.5,0.239583,Sixteenth,E2
810,Left,1,52,97,121.75,0.239583,Sixteenth,E3
811,Right,0,76,99,122.0,0.989583,Quarter,E5_C#6_A5
814,Right,0,88,100,122.25,0.739583,DottedEighth,E6
815,Left,1,57,101,122.5,0.239583,Sixteenth,A3
816,Left,1,45,102,122.75,0.239583,Sixteenth,A2
817,Right,0,76,103,123.0,0.989583,Quarter,G#5_E5
819,Right,0,88,105,123.25,0.739583,DottedEighth,E6
820,Left,1,47,106,123.5,0.239583,Sixteenth,B2
821,Left,1,59,107,123.75,0.239583,Sixteenth,B3
822,Right,0,75,108,124.0,0.989583,Quarter,F#5_D#5
824,Right,0,87,109,124.25,0.739583,DottedEighth,D#6
825,Left,1,47,80,124.5,0.239583,Sixteenth,B2
826,Left,1,35,80,124.75,0.239583,Sixteenth,B1
827,Right,0,74,80,125.0,0.364583,DottedSixteenth,D5
828,Right,0,77,90,125.0625,0.302083,Triplet,F5
829,Right,0,80,100,125.125,0.239583,Sixteenth,G#5
830,Right,0,83,105,125.1875,0.802083,DottedEighth,B5
831,Right,0,86,110,125.25,1.239583,TiedQuarter-Sixteenth,D6
832,Left,1,59,110,125.5,0.489583,Eighth,G#4_F4_D4_B3
836,Left,1,69,106,125.75,0.239583,Sixteenth,A4
837,Left,1,71,101,126.0,0.239583,Sixteenth,B4
838,Left,1,73,96,126.25,0.239583,Sixteenth,C#5
839,Left,1,74,80,126.5,0.489583,Eighth,G#4_F4_D5
842,Right,0,85,80,126.5,0.239583,Sixteenth,C#6
843,Right,0,83,80,126.75,0.239583,Sixteenth,B5
844,Left,1,66,80,127.0,0.239583,Sixteenth,F#4_A4
846,Right,0,73,80,127.0,0.489583,Sixteenth,F#5_C#5_A5
850,Right,0,77,89,127.25,0.239583,Sixteenth,G#5_F5
849,Left,1,68,89,127.25,0.239583,Sixteenth,G#4_B4
854,Right,0,78,99,127.5,0.239583,Sixteenth,F#5_C#5_A5
853,Left,1,69,99,127.5,0.239583,Sixteenth,F#4_A4
858,Right,0,83,109,127.75,0.239583,Sixteenth,G#5_F5_C#5_B5
862,Left,1,68,109,127.75,0.239583,Sixteenth,G#4_F4_C#4
865,Right,0,84,110,128.0,0.489583,Eighth,C6
866,Left,1,66,103,128.5,0.489583,Eighth,F#4_C#4_A3
869,Right,0,85,110,128.5,0.989583,Quarter,C#6
870,Left,1,65,101,128.625,0.114583,ThirtySecond,F4
871,Left,1,66,99,128.75,0.114583,ThirtySecond,F#4
872,Left,1,68,97,128.875,0.114583,ThirtySecond,G#4
873,Left,1,69,95,129.0,0.114583,ThirtySecond,A4
874,Left,1,68,93,129.125,0.114583,ThirtySecond,G#4
875,Left,1,69,91,129.25,0.114583,ThirtySecond,A4
876,Left,1,71,80,129.375,0.114583,ThirtySecond,B4
877,Left,1,66,80,129.5,0.489583,Eighth,F#4_D#4_C5
879,Right,0,83,80,129.5,0.489583,Sixteenth,F#5_B5
882,Right,0,81,80,129.75,0.239583,Sixteenth,A5
885,Right,0,80,80,130.0,0.239583,Sixteenth,G#5_B4
883,Left,1,68,80,130.0,0.239583,Sixteenth,G#4_E4
887,Right,0,69,80,130.25,0.239583,Sixteenth,F#5_B4_A4
890,Left,1,63,80,130.25,0.239583,Sixteenth,F#4_D#4
893,Right,0,80,80,130.5,0.239583,Sixteenth,G#5_G#4_B4
892,Left,1,64,80,130.5,0.239583,Sixteenth,E4
896,Right,0,76,80,130.75,0.239583,Sixteenth,E5_A5_A4
897,Left,1,64,80,130.75,0.239583,Sixteenth,E4_C#4
901,Left,1,64,80,131.0,0.489583,Eighth,G#3_E4
902,Right,0,83,80,131.0,0.239583,Sixteenth,B5
904,Right,0,76,80,131.25,0.239583,Sixteenth,E5
905,Left,1,69,80,131.5,0.489583,Eighth,E4_C#4_A4
908,Right,0,83,80,131.5,0.239583,Sixteenth,B5
909,Right,0,81,80,131.75,0.239583,Sixteenth,A5
910,Left,1,68,80,132.0,0.489583,Eighth,G#4_E4_B3
913,Right,0,80,80,132.0,0.989583,Quarter,G#5
914,Left,1,59,80,132.5,0.489583,Eighth,E4_B3_A#4
920,Right,0,78,80,133.0,0.041667,TripletSixtyFourth,F#5
917,Left,1,59,80,133.0,0.239583,Sixteenth,D#4_B4_B3
921,Right,0,80,82,133.052083,0.041667,TripletSixtyFourth,G#5
922,Right,0,78,84,133.104167,0.041667,TripletSixtyFourth,F#5
923,Right,0,77,86,133.15625,0.041667,TripletSixtyFourth,F5
924,Right,0,78,88,133.208333,0.03125,TripletSixtyFourth,F#5
925,Left,1,68,89,133.25,0.239583,Sixteenth,G#4_F4_D4_B3
926,Right,0,80,89,133.25,0.052083,SixtyFourth,G#5
930,Right,0,81,92,133.3125,0.052083,SixtyFourth,A5
931,Right,0,83,94,133.375,0.052083,SixtyFourth,B5
932,Right,0,85,97,133.4375,0.052083,SixtyFourth,C#6
934,Right,0,86,99,133.5,0.489583,Eighth,F5_D6_D5_B5
933,Left,1,32,99,133.5,0.489583,Eighth,G#2_G#1
939,Left,1,43,110,134.0,0.989583,Quarter,G2_G1_F#2_D#2
941,Right,0,74,110,134.0,0.270833,Sixteenth,F5_D6_D5
946,Right,0,83,110,134.125,0.114583,ThirtySecond,B5
947,Right,0,79,110,134.25,0.229167,Sixteenth,G5
948,Right,0,77,110,134.375,0.239583,Sixteenth,F5
949,Right,0,74,110,134.5,0.239583,Sixteenth,D5
950,Right,0,71,110,134.625,0.239583,Sixteenth,B4
951,Right,0,67,110,134.75,0.229167,Sixteenth,G4
952,Right,0,65,110,134.875,0.21875,Sixteenth,F4
953,Right,0,62,110,135.0,0.1875,TripletSixteenth,D4
954,Right,0,59,110,135.083333,0.145833,TripletSixteenth,B3
955,Right,0,55,110,135.166667,0.135417,ThirtySecond,G3
956,Left,1,53,110,135.25,0.125,ThirtySecond,F3
957,Left,1,50,110,135.333333,0.15625,TripletSixteenth,D3
958,Left,1,47,110,135.416667,0.114583,ThirtySecond,B2
959,Left,1,43,110,135.5,0.104167,ThirtySecond,G2
960,Left,1,47,110,135.5625,0.104167,ThirtySecond,B2
961,Left,1,50,110,135.625,0.104167,ThirtySecond,D3
962,Left,1,53,110,135.6875,0.114583,ThirtySecond,F3
963,Right,0,55,110,135.75,0.114583,ThirtySecond,G3
964,Right,0,59,110,135.8125,0.09375,TripletThirtySecond,B3
965,Right,0,62,110,135.875,0.114583,ThirtySecond,D4
966,Right,0,65,110,135.9375,0.114583,ThirtySecond,F4
967,Left,1,67,110,136.0,0.114583,ThirtySecond,G4
968,Left,1,71,110,136.0625,0.104167,ThirtySecond,B4
969,Left,1,74,110,136.125,0.125,ThirtySecond,D5
970,Left,1,77,110,136.1875,0.114583,ThirtySecond,F5
971,Right,0,74,110,136.25,0.104167,ThirtySecond,D5
972,Right,0,77,110,136.3125,0.114583,ThirtySecond,F5
973,Right,0,79,110,136.375,0.114583,ThirtySecond,G5
974,Right,0,83,110,136.4375,0.052083,SixtyFourth,B5
975,Right,0,77,100,136.5,0.239583,Sixteenth,F5_D6_D5
976,Left,1,31,100,136.5,0.239583,Sixteenth,G2_G1
980,Left,1,48,91,136.75,0.239583,Sixteenth,C3_C2
982,Right,0,84,91,136.75,0.239583,Sixteenth,E5_C6_C5
985,Left,1,48,120,137.0,0.989583,Quarter,G2_E2_C3_C2
989,Right,0,84,120,137.0,0.145833,TripletSixteenth,C6
990,Right,0,79,120,137.083333,0.135417,ThirtySecond,G5
991,Right,0,76,120,137.166667,0.15625,TripletSixteenth,E5
992,Right,0,72,120,137.25,0.145833,TripletSixteenth,C5
993,Right,0,67,120,137.333333,0.145833,TripletSixteenth,G4
994,Right,0,64,120,137.416667,0.15625,TripletSixteenth,E4
995,Right,0,60,120,137.5,0.15625,TripletSixteenth,C4
996,Right,0,55,120,137.583333,0.135417,ThirtySecond,G3
997,Right,0,52,120,137.666667,0.145833,TripletSixteenth,E3
998,Right,0,48,120,137.75,0.135417,ThirtySecond,C3
999,Right,0,43,120,137.833333,0.135417,ThirtySecond,G2
1000,Right,0,40,120,137.916667,0.145833,TripletSixteenth,E2
1001,Left,1,36,120,138.0,0.072917,TripletThirtySecond,C2
1002,Left,1,40,120,138.041667,0.072917,TripletThirtySecond,E2
1003,Left,1,43,120,138.083333,0.072917,TripletThirtySecond,G2
1004,Right,0,48,120,138.125,0.072917,TripletThirtySecond,C3
1005,Right,0,52,120,138.166667,0.072917,TripletThirtySecond,E3
1006,Right,0,55,120,138.208333,0.072917,TripletThirtySecond,G3
1007,Left,1,60,120,138.25,0.072917,TripletThirtySecond,C4
1008,Left,1,64,120,138.291667,0.072917,TripletThirtySecond,E4
1009,Left,1,67,120,138.333333,0.072917,TripletThirtySecond,G4
1010,Right,0,72,120,138.375,0.072917,TripletThirtySecond,C5
1011,Right,0,76,120,138.416667,0.072917,TripletThirtySecond,E5
1012,Right,0,79,120,138.458333,0.03125,TripletSixtyFourth,G5
1015,Left,1,31,110,138.5,0.239583,Sixteenth,G2_G1
1013,Right,0,72,110,138.5,0.239583,Sixteenth,E5_C6_C5
1018,Right,0,76,100,138.75,0.239583,Sixteenth,E5_B5_B4
1020,Left,1,32,100,138.75,0.239583,Sixteenth,G#2_G#1
1023,Right,0,83,80,139.0,0.489583,Eighth,E5_B5_B4
1025,Left,1,44,80,139.0,0.489583,Eighth,G#2_G#1_E2
1029,Right,0,95,80,139.5,0.614583,Eighth,E6_B6_B5
1030,Left,1,44,80,139.5,0.739583,DottedEighth,G#2_G#1_E2
1035,Right,0,88,80,140.125,0.114583,ThirtySecond,E6
1036,Right,0,87,80,140.25,0.114583,ThirtySecond,D#6
1037,Left,1,44,80,140.25,0.489583,Eighth,G#2_E3_B2
1040,Right,0,88,80,140.375,0.114583,ThirtySecond,E6
1041,Right,0,87,80,140.5,0.114583,ThirtySecond,D#6
1042,Right,0,88,80,140.625,0.114583,ThirtySecond,E6
1044,Left,1,49,80,140.75,0.239583,Sixteenth,E3_C#3_A3
1043,Right,0,95,80,140.75,0.114583,ThirtySecond,B6
1047,Right,0,93,80,140.875,0.114583,ThirtySecond,A6
1048,Right,0,92,80,141.0,0.114583,ThirtySecond,G#6
1049,Right,0,87,80,141.125,0.114583,ThirtySecond,D#6
1051,Left,1,47,80,141.25,0.239583,Sixteenth,G#3_E3_B2
1050,Right,0,88,80,141.25,0.114583,ThirtySecond,E6
1054,Right,0,87,80,141.375,0.114583,ThirtySecond,D#6
1056,Left,1,80,80,141.5,0.072917,TripletThirtySecond,G#5
1055,Right,0,88,80,141.5,0.072917,TripletThirtySecond,E6
1057,Right,0,85,80,141.583333,0.072917,TripletThirtySecond,C#6
1058,Left,1,76,80,141.583333,0.072917,TripletThirtySecond,E5
1060,Left,1,78,80,141.666667,0.072917,TripletThirtySecond,F#5
1059,Right,0,87,80,141.666667,0.072917,TripletThirtySecond,D#6
1062,Right,0,83,80,141.75,0.072917,TripletThirtySecond,B5
1061,Left,1,75,80,141.75,0.072917,TripletThirtySecond,D#5
1064,Right,0,85,80,141.833333,0.072917,TripletThirtySecond,C#6
1063,Left,1,76,80,141.833333,0.072917,TripletThirtySecond,E5
1065,Right,0,81,80,141.916667,0.072917,TripletThirtySecond,A5
1066,Left,1,73,80,141.916667,0.072917,TripletThirtySecond,C#5
1067,Left,1,75,80,142.0,0.072917,TripletThirtySecond,D#5
1068,Right,0,83,80,142.0,0.072917,TripletThirtySecond,B5
1069,Right,0,80,80,142.083333,0.072917,TripletThirtySecond,G#5
1070,Left,1,71,80,142.083333,0.072917,TripletThirtySecond,B4
1072,Right,0,81,80,142.166667,0.072917,TripletThirtySecond,A5
1071,Left,1,73,80,142.166667,0.072917,TripletThirtySecond,C#5
1074,Right,0,78,80,142.25,0.072917,TripletThirtySecond,F#5
1073,Left,1,69,80,142.25,0.072917,TripletThirtySecond,A4
1075,Right,0,80,80,142.333333,0.072917,TripletThirtySecond,G#5
1076,Left,1,71,80,142.333333,0.072917,TripletThirtySecond,B4
1078,Left,1,68,80,142.416667,0.072917,TripletThirtySecond,G#4
1077,Right,0,76,80,142.416667,0.072917,TripletThirtySecond,E5
1080,Right,0,78,80,142.5,0.072917,TripletThirtySecond,F#5
1079,Left,1,69,80,142.5,0.072917,TripletThirtySecond,A4
1081,Left,1,66,80,142.583333,0.072917,TripletThirtySecond,F#4
1082,Right,0,75,80,142.583333,0.072917,TripletThirtySecond,D#5
1084,Right,0,76,80,142.666667,0.072917,TripletThirtySecond,E5
1083,Left,1,68,80,142.666667,0.072917,TripletThirtySecond,G#4
1085,Right,0,73,80,142.75,0.072917,TripletThirtySecond,C#5
1086,Left,1,64,80,142.75,0.072917,TripletThirtySecond,E4
1088,Left,1,66,80,142.833333,0.072917,TripletThirtySecond,F#4
1087,Right,0,75,80,142.833333,0.072917,TripletThirtySecond,D#5
1089,Left,1,63,80,142.916667,0.072917,TripletThirtySecond,D#4
1090,Right,0,71,80,142.916667,0.072917,TripletThirtySecond,B4
1092,Left,1,64,80,143.0,0.072917,TripletThirtySecond,E4
1091,Right,0,73,80,143.0,0.072917,TripletThirtySecond,C#5
1094,Right,0,69,80,143.083333,0.072917,TripletThirtySecond,A4
1093,Left,1,61,80,143.083333,0.072917,TripletThirtySecond,C#4
1096,Left,1,63,80,143.166667,0.072917,TripletThirtySecond,D#4
1095,Right,0,71,80,143.166667,0.072917,TripletThirtySecond,B4
1097,Left,1,59,80,143.25,0.072917,TripletThirtySecond,B3
1098,Right,0,68,80,143.25,0.072917,TripletThirtySecond,G#4
1099,Right,0,69,80,143.333333,0.072917,TripletThirtySecond,A4
1100,Left,1,61,80,143.333333,0.072917,TripletThirtySecond,C#4
1101,Left,1,57,80,143.416667,0.072917,TripletThirtySecond,A3
1102,Right,0,66,80,143.416667,0.072917,TripletThirtySecond,F#4
1104,Left,1,59,80,143.5,0.072917,TripletThirtySecond,B3
1103,Right,0,68,80,143.5,0.072917,TripletThirtySecond,G#4
1106,Left,1,56,80,143.583333,0.072917,TripletThirtySecond,G#3
1105,Right,0,64,80,143.583333,0.072917,TripletThirtySecond,E4
1107,Left,1,57,80,143.666667,0.072917,TripletThirtySecond,A3
1108,Right,0,66,80,143.666667,0.072917,TripletThirtySecond,F#4
1109,Left,1,54,80,143.75,0.072917,TripletThirtySecond,F#3
1110,Right,0,63,80,143.75,0.072917,TripletThirtySecond,D#4
1111,Left,1,56,80,143.833333,0.072917,TripletThirtySecond,G#3
1112,Right,0,64,80,143.833333,0.072917,TripletThirtySecond,E4
1114,Right,0,61,80,143.916667,0.072917,TripletThirtySecond,C#4
1113,Left,1,52,80,143.916667,0.072917,TripletThirtySecond,E3
1115,Left,1,54,80,144.0,0.072917,TripletThirtySecond,F#3
1116,Right,0,63,80,144.0,0.072917,TripletThirtySecond,D#4
1118,Right,0,59,80,144.083333,0.072917,TripletThirtySecond,B3
1117,Left,1,51,80,144.083333,0.072917,TripletThirtySecond,D#3
1120,Left,1,52,80,144.166667,0.072917,TripletThirtySecond,E3
1119,Right,0,61,80,144.166667,0.072917,TripletThirtySecond,C#4
1121,Left,1,49,80,144.25,0.072917,TripletThirtySecond,C#3
1122,Right,0,57,80,144.25,0.072917,TripletThirtySecond,A3
1123,Right,0,59,80,144.333333,0.072917,TripletThirtySecond,B3
1124,Left,1,51,80,144.333333,0.072917,TripletThirtySecond,D#3
1126,Left,1,47,80,144.416667,0.072917,TripletThirtySecond,B2
1125,Right,0,56,80,144.416667,0.072917,TripletThirtySecond,G#3
1127,Left,1,49,80,144.5,0.072917,TripletThirtySecond,C#3
1128,Right,0,57,80,144.5,0.072917,TripletThirtySecond,A3
1130,Right,0,54,80,144.583333,0.072917,TripletThirtySecond,F#3
1129,Left,1,45,80,144.583333,0.072917,TripletThirtySecond,A2
1131,Right,0,56,80,144.666667,0.072917,TripletThirtySecond,G#3
1132,Left,1,47,80,144.666667,0.072917,TripletThirtySecond,B2
1133,Right,0,52,80,144.75,0.072917,TripletThirtySecond,E3
1134,Left,1,44,80,144.75,0.072917,TripletThirtySecond,G#2
1135,Right,0,54,80,144.833333,0.072917,TripletThirtySecond,F#3
1136,Left,1,45,80,144.833333,0.072917,TripletThirtySecond,A2
1137,Right,0,51,80,144.916667,0.072917,TripletThirtySecond,D#3
1138,Left,1,42,80,144.916667,0.072917,TripletThirtySecond,F#2
1139,Right,0,52,80,145.0,0.072917,TripletThirtySecond,E3
1140,Left,1,44,80,145.0,0.072917,TripletThirtySecond,G#2
1141,Left,1,40,80,145.083333,0.072917,TripletThirtySecond,E2
1142,Right,0,49,80,145.083333,0.072917,TripletThirtySecond,C#3
1143,Left,1,42,80,145.166667,0.072917,TripletThirtySecond,F#2
1144,Right,0,51,80,145.166667,0.072917,TripletThirtySecond,D#3
1146,Right,0,47,80,145.25,0.072917,TripletThirtySecond,B2
1145,Left,1,39,80,145.25,0.072917,TripletThirtySecond,D#2
1148,Right,0,49,80,145.333333,0.072917,TripletThirtySecond,C#3
1147,Left,1,40,80,145.333333,0.072917,TripletThirtySecond,E2
1150,Left,1,37,80,145.416667,0.072917,TripletThirtySecond,C#2
1149,Right,0,46,80,145.416667,0.072917,TripletThirtySecond,A#2
1151,Left,1,35,80,145.5,0.15625,TripletSixteenth,B1
1152,Right,0,47,80,145.5,0.072917,TripletThirtySecond,B2
1153,Right,0,45,80,145.583333,0.072917,TripletThirtySecond,A2
1155,Left,1,37,80,145.666667,0.15625,TripletSixteenth,C#2
1154,Right,0,47,80,145.666667,0.072917,TripletThirtySecond,B2
1156,Right,0,44,80,145.75,0.072917,TripletThirtySecond,G#2
1158,Left,1,39,80,145.833333,0.15625,TripletSixteenth,D#2
1157,Right,0,47,80,145.833333,0.072917,TripletThirtySecond,B2
1159,Right,0,42,80,145.916667,0.072917,TripletThirtySecond,F#2
1160,Right,0,40,80,146.0,0.427083,DottedSixteenth,E2
1161,Left,1,32,80,146.0,1.989583,Half,G#1
1162,Right,0,47,80,146.166667,0.447917,Eighth,B2
1163,Right,0,44,80,146.333333,0.479167,Eighth,G#2
1164,Right,0,52,80,146.5,0.479167,Eighth,E3
1165,Right,0,47,80,146.666667,0.447917,Eighth,B2
1166,Right,0,56,80,146.833333,0.458333,Eighth,G#3
1167,Right,0,52,80,147.0,0.40625,DottedSixteenth,E3
1168,Right,0,59,80,147.166667,0.40625,DottedSixteenth,B3
1169,Right,0,56,80,147.333333,0.458333,Eighth,G#3
1170,Right,0,64,80,147.5,0.354167,DottedSixteenth,E4
1171,Right,0,59,80,147.666667,0.40625,DottedSixteenth,B3
1172,Right,0,64,80,148.0,0.385417,DottedSixteenth,E4
1173,Right,0,71,80,148.166667,0.4375,Eighth,B4
1174,Right,0,68,80,148.333333,0.03125,TripletSixtyFourth,G#4
1175,Right,0,76,80,148.5,0.489583,Eighth,E5
1176,Right,0,71,80,148.666667,0.479167,Eighth,B4
1177,Right,0,78,80,149.0,0.291667,Triplet,F#5
1178,Right,0,83,80,149.125,0.25,Sixteenth,B5
1179,Right,0,80,80,149.25,0.072917,TripletThirtySecond,G#5
1180,Right,0,88,80,149.375,0.322917,Triplet,E6
1181,Right,0,83,80,149.5,0.260417,Sixteenth,B5
1182,Right,0,92,80,149.75,0.989583,Quarter,G#6
1183,Right,0,88,80,150.25,0.989583,Quarter,E6
1184,Right,0,83,80,150.75,0.989583,Quarter,B5
1185,Right,0,84,80,151.25,0.739583,DottedEighth,C6
1186,Right,0,85,80,152.0,0.989583,Quarter,C#6
1187,Right,0,88,80,152.25,0.739583,DottedEighth,E6
1188,Left,1,69,80,152.5,0.239583,Sixteenth,A4
1189,Left,1,76,80,152.75,0.239583,Sixteenth,E5
1190,Right,0,88,80,153.0,0.989583,Quarter,E6
1191,Right,0,83,80,153.25,0.739583,DottedEighth,B5
1192,Left,1,76,80,153.5,0.239583,Sixteenth,E5
1193,Left,1,68,80,153.75,0.239583,Sixteenth,G#4
1194,Right,0,81,80,154.0,0.989583,Quarter,A5
1195,Right,0,83,80,154.25,0.739583,DottedEighth,B5
1196,Left,1,66,80,154.5,0.239583,Sixteenth,F#4
1197,Left,1,75,80,154.75,0.239583,Sixteenth,D#5
1198,Right,0,83,80,155.0,0.989583,Quarter,B5
1199,Right,0,80,80,155.25,0.739583,DottedEighth,G#5
1200,Left,1,76,80,155.5,0.239583,Sixteenth,E5
1201,Left,1,64,80,155.75,0.239583,Sixteenth,E4
1202,Left,1,69,80,156.0,0.989583,Quarter,C#5_A4
1204,Left,1,76,80,156.25,0.739583,DottedEighth,E5
1205,Right,0,85,80,156.5,0.239583,Sixteenth,C#6
1206,Right,0,88,80,156.75,0.239583,Sixteenth,E6
1207,Left,1,68,80,157.0,0.989583,Quarter,G#4_E5
1209,Left,1,71,80,157.25,0.739583,DottedEighth,B4
1210,Right,0,88,80,157.5,0.239583,Sixteenth,E6
1211,Right,0,83,80,157.75,0.239583,Sixteenth,B5
1212,Left,1,66,80,158.0,0.989583,Quarter,F#4_A4
1214,Left,1,71,80,158.25,0.739583,DottedEighth,B4
1215,Right,0,83,80,158.5,0.239583,Sixteenth,B5
1216,Right,0,87,80,158.75,0.239583,Sixteenth,F#6_D#6
1218,Left,1,71,80,159.0,0.989583,Sixteenth,E4_B4
1220,Left,1,68,80,159.25,0.739583,DottedEighth,G#4
1221,Right,0,88,80,159.5,0.239583,Sixteenth,G#6_E6
1223,Right,0,83,80,159.75,0.239583,Sixteenth,B5
1224,Right,0,78,80,160.0,0.989583,Quarter,F#5
1225,Right,0,83,80,160.25,0.739583,DottedEighth,B5
1226,Left,1,75,80,160.5,0.239583,Sixteenth,D#5
1227,Left,1,71,80,160.75,0.239583,Sixteenth,B4
1228,Right,0,80,80,161.0,0.989583,Quarter,G#5
1229,Right,0,83,80,161.25,0.739583,DottedEighth,B5
1230,Left,1,76,80,161.5,0.239583,Sixteenth,E5
1231,Left,1,71,80,161.75,0.239583,Sixteenth,B4
1232,Right,0,81,80,162.0,0.989583,Quarter,A5
1233,Right,0,83,80,162.25,0.739583,DottedEighth,B5
1234,Left,1,78,80,162.5,0.239583,Sixteenth,F#5
1235,Left,1,71,80,162.75,0.239583,Sixteenth,B4
1236,Right,0,83,80,163.0,0.989583,Quarter,B5
1237,Right,0,88,80,163.25,0.739583,DottedEighth,E6
1238,Left,1,80,80,163.5,0.239583,Sixteenth,G#5
1239,Left,1,71,80,163.75,0.239583,Sixteenth,B4
1240,Left,1,66,80,164.0,0.989583,Sixteenth,F#4_D#4
1242,Left,1,71,80,164.25,0.739583,DottedEighth,B4
1243,Right,0,83,80,164.5,0.239583,Sixteenth,B5
1244,Right,0,78,80,164.75,0.239583,Sixteenth,F#5
1245,Left,1,68,80,165.0,0.989583,Sixteenth,G#4_E4
1247,Left,1,71,80,165.25,0.739583,DottedEighth,B4
1248,Right,0,83,80,165.5,0.239583,Sixteenth,B5
1249,Right,0,80,80,165.75,0.239583,Sixteenth,G#5
1250,Left,1,66,80,166.0,0.989583,Quarter,F#4_A4
1252,Left,1,71,80,166.25,0.739583,DottedEighth,B4
1253,Right,0,83,80,166.5,0.239583,Sixteenth,B5
1254,Right,0,81,80,166.75,0.239583,Sixteenth,A5
1255,Left,1,71,80,167.0,0.989583,Sixteenth,G#4_B4
1257,Left,1,76,80,167.25,0.739583,DottedEighth,E5
1258,Right,0,83,80,167.5,0.239583,Sixteenth,B5
1259,Right,0,80,80,167.75,0.239583,Sixteenth,G#5
1260,Right,0,71,80,168.0,0.989583,Quarter,F#5_D#5_B4
1263,Right,0,83,82,168.25,0.739583,DottedEighth,B5
1264,Left,1,66,85,168.5,0.239583,Sixteenth,F#4_A4
1266,Left,1,59,88,168.75,0.239583,Sixteenth,B3
1267,Right,0,71,91,169.0,0.989583,Quarter,G#5_E5_B4
1270,Right,0,83,94,169.25,0.739583,DottedEighth,B5
1271,Left,1,68,96,169.5,0.239583,Sixteenth,G#4_E4
1273,Left,1,61,99,169.75,0.239583,Sixteenth,C#4
1274,Right,0,78,102,170.0,0.989583,Quarter,F#5_B4_A5
1277,Right,0,83,105,170.25,0.739583,DottedEighth,B5
1278,Left,1,63,108,170.5,0.239583,Sixteenth,F#4_D#4
1280,Left,1,59,110,170.75,0.239583,Sixteenth,B3
1281,Right,0,63,80,172.0,0.989583,Quarter,F#4_D#4_B3
1282,Left,1,57,80,172.0,0.989583,Quarter,F#3_B2_A3
1287,Left,1,47,80,174.0,0.989583,Quarter,G#3_E3_B2
1288,Right,0,68,80,174.0,0.989583,Quarter,G#4_E4_B3
1297,Left,1,57,80,176.0,0.989583,Quarter,F#3_D#3_C3_A3
1293,Right,0,69,80,176.0,0.989583,Quarter,F#4_D#4_C4_A4
1304,Right,0,68,80,177.0,0.989583,Quarter,G#4_E4_C#4
1301,Left,1,56,80,177.0,0.989583,Quarter,G#3_E3_C#3
1307,Right,0,61,80,178.0,1.989583,Half,F4_C#5_C#4
1308,Left,1,53,80,178.0,5.989583,Quarter,F3_C#3_A2
1313,Left,1,54,80,179.0,0.989583,Quarter,F#3
1314,Right,0,66,80,179.0,0.989583,Quarter,F#4
1315,Right,0,71,80,180.0,0.989583,Quarter,G#4_F4_D4_B4_B3
1318,Left,1,50,80,180.0,0.989583,Quarter,G#3_F3_D3
1323,Right,0,69,80,181.0,0.989583,Quarter,F#4_C#4_A4_A3
1327,Left,1,49,80,181.0,0.989583,Quarter,F#3_C#3
1329,Right,0,56,80,182.0,0.989583,Quarter,G#4_G#3_F4_D4_B3
1334,Left,1,47,80,182.0,0.989583,Quarter,F3_D3_B2
1338,Left,1,54,80,183.0,0.989583,Quarter,F#3_C#3
1337,Right,0,69,80,183.0,0.989583,Quarter,F#4_C#4_A4_A3
1345,Left,1,46,80,184.0,0.989583,Quarter,A#2_A#1
1343,Right,0,54,80,184.0,0.989583,Quarter,F#3_C#4
1347,Left,1,47,80,185.0,0.989583,Quarter,B2_B1
1348,Right,0,64,80,185.0,0.989583,Quarter,G#3_E4_E3_B3
1354,Left,1,36,80,186.0,0.989583,Quarter,C3_C2
1353,Right,0,57,80,186.0,0.989583,Quarter,F#3_D#4_A3
1359,Left,1,35,80,187.0,0.989583,Quarter,B2_B1
1358,Right,0,56,80,187.0,0.989583,Quarter,G#3_E4_B3
1365,Right,0,54,80,188.0,0.989583,Quarter,F#4_F#3_D#4_C4
1363,Left,1,33,80,188.0,0.989583,Quarter,A2_A1
1369,Right,0,64,80,189.0,0.989583,Quarter,G#4_E4_B3
1370,Left,1,32,80,189.0,0.989583,Quarter,G#2_G#1
1377,Left,1,42,80,190.0,0.989583,DottedEighth,F#2_F#1
1374,Right,0,64,80,190.0,1.989583,Quarter,E4_C#5_A#3
1379,Left,1,44,80,190.75,0.239583,Sixteenth,G#2
1380,Left,1,45,80,191.0,1.989583,Quarter,B1_A2
1381,Right,0,63,80,191.0,1.989583,Half,F#4_D#4
1384,Left,1,47,80,192.0,0.989583,Quarter,B2
1385,Right,0,71,80,192.0,0.989583,Quarter,B4
1386,Right,0,68,80,193.0,0.989583,Quarter,G#4
1387,Right,0,59,80,193.25,0.739583,DottedEighth,B3
1388,Left,1,40,80,193.5,0.239583,Sixteenth,E2
1389,Left,1,52,80,193.75,0.239583,Sixteenth,E3
1390,Right,0,57,80,194.0,0.989583,Quarter,A3
1391,Right,0,69,80,194.25,0.739583,DottedEighth,A4
1392,Left,1,48,81,194.5,0.239583,Sixteenth,C3
1393,Left,1,40,83,194.75,0.239583,Sixteenth,E2
1394,Right,0,66,85,195.0,0.989583,Quarter,F#4
1395,Right,0,60,86,195.25,0.739583,DottedEighth,C4_A3
1397,Left,1,40,88,195.5,0.239583,Sixteenth,E2
1398,Left,1,51,90,195.75,0.239583,Sixteenth,D#3
1399,Right,0,56,92,196.0,0.989583,Quarter,G#3_B3
1401,Right,0,64,93,196.25,0.739583,DottedEighth,E4
1402,Left,1,52,95,196.5,0.239583,Sixteenth,E3
1403,Left,1,40,97,196.75,0.239583,Sixteenth,E2
1404,Right,0,63,98,197.0,0.989583,Quarter,D#4
1405,Right,0,57,100,197.25,0.739583,DottedEighth,F#3_A3
1407,Left,1,40,102,197.5,0.239583,Sixteenth,E2
1408,Left,1,48,104,197.75,0.239583,Sixteenth,C3
1409,Right,0,56,105,198.0,0.989583,Sixteenth,G#3_E3
1411,Right,0,64,107,198.25,0.739583,DottedEighth,E4
1412,Left,1,47,109,198.5,0.239583,Sixteenth,B2
1413,Left,1,40,110,198.75,0.239583,Sixteenth,E2
1414,Right,0,60,100,199.0,0.989583,Quarter,C4_A3
1416,Right,0,52,99,199.25,0.739583,DottedEighth,E3
1417,Left,1,40,98,199.5,0.239583,Sixteenth,E2
1418,Left,1,48,97,199.75,0.239583,Sixteenth,C3
1419,Right,0,59,95,200.0,0.989583,Quarter,B3_A3
1421,Right,0,54,94,200.25,0.739583,DottedEighth,F#3
1422,Left,1,51,93,200.5,0.239583,Sixteenth,D#3
1423,Left,1,40,91,200.75,0.239583,Sixteenth,E2
1424,Right,0,61,90,201.0,0.989583,Quarter,C#4
1425,Right,0,56,89,201.25,0.739583,DottedEighth,G#3
1426,Left,1,40,87,201.5,0.239583,Sixteenth,E2
1427,Left,1,52,86,201.75,0.239583,Sixteenth,E3
1428,Right,0,59,85,202.0,0.989583,Quarter,B3
1429,Right,0,56,83,202.25,0.739583,DottedEighth,G#3
1430,Left,1,52,82,202.5,0.239583,Sixteenth,E3
1431,Left,1,40,81,202.75,0.239583,Sixteenth,E2
1432,Right,0,57,70,203.0,0.989583,Sixteenth,C4_A3
1434,Right,0,54,70,203.25,0.739583,DottedEighth,F#3
1435,Left,1,40,70,203.5,0.239583,Sixteenth,E2
1436,Left,1,51,70,203.75,0.239583,Sixteenth,D#3
1437,Right,0,57,70,204.0,0.989583,Sixteenth,B3_A3
1439,Right,0,54,70,204.25,0.739583,DottedEighth,F#3
1440,Left,1,51,70,204.5,0.239583,Sixteenth,D#3
1441,Left,1,40,70,204.75,0.239583,Sixteenth,E2
1442,Right,0,61,70,205.0,0.989583,Quarter,C#4
1443,Right,0,56,71,205.25,0.739583,DottedEighth,G#3
1444,Left,1,40,72,205.5,0.239583,Sixteenth,E2
1445,Left,1,52,73,205.75,0.239583,Sixteenth,E3
1446,Right,0,59,74,206.0,0.989583,Quarter,B3
1447,Right,0,56,75,206.25,0.739583,DottedEighth,G#3
1448,Left,1,51,76,206.5,0.239583,Sixteenth,D#3
1449,Left,1,52,77,206.75,0.239583,Sixteenth,E3
1450,Right,0,69,78,207.0,0.989583,Quarter,A4
1451,Right,0,59,79,207.25,0.739583,DottedEighth,B3
1452,Left,1,51,80,207.5,0.239583,Sixteenth,D#3
1453,Left,1,52,81,207.75,0.239583,Sixteenth,E3
1454,Right,0,68,82,208.0,0.989583,Quarter,G#4
1455,Right,0,59,83,208.25,0.739583,DottedEighth,B3
1456,Left,1,63,84,208.5,0.239583,Sixteenth,D#4
1457,Left,1,64,85,208.75,0.239583,Sixteenth,E4
1458,Right,0,73,86,209.0,0.989583,Quarter,C#5
1459,Right,0,68,87,209.25,0.739583,DottedEighth,G#4
1460,Left,1,52,88,209.5,0.239583,Sixteenth,E3
1461,Left,1,64,89,209.75,0.239583,Sixteenth,E4
1462,Right,0,71,91,210.0,0.989583,Quarter,B4
1463,Right,0,68,92,210.25,0.739583,DottedEighth,G#4
1464,Left,1,63,93,210.5,0.239583,Sixteenth,D#4
1465,Left,1,64,94,210.75,0.239583,Sixteenth,E4
1466,Right,0,81,95,211.0,0.989583,Quarter,A5
1467,Right,0,71,96,211.25,0.739583,DottedEighth,B4
1468,Left,1,63,97,211.5,0.239583,Sixteenth,D#4
1469,Left,1,64,98,211.75,0.239583,Sixteenth,E4
1470,Right,0,80,99,212.0,0.989583,Quarter,G#5
1471,Right,0,71,100,212.25,0.739583,DottedEighth,B4
1472,Left,1,75,101,212.5,0.239583,Sixteenth,D#5
1473,Left,1,76,102,212.75,0.239583,Sixteenth,E5
1474,Right,0,85,103,213.0,0.989583,Quarter,C#6
1475,Right,0,80,104,213.25,0.739583,DottedEighth,G#5
1476,Left,1,64,105,213.5,0.239583,Sixteenth,E4
1477,Left,1,76,106,213.75,0.239583,Sixteenth,E5
1478,Right,0,83,107,214.0,0.989583,Quarter,B5
1479,Right,0,80,108,214.25,0.739583,DottedEighth,G#5
1480,Left,1,75,109,214.5,0.239583,Sixteenth,D#5
1481,Left,1,76,110,214.75,0.239583,Sixteenth,E5
1482,Right,0,85,121,215.0,0.989583,Quarter,C#6
1483,Right,0,80,111,215.25,0.739583,DottedEighth,G#5
1484,Left,1,87,100,215.5,0.239583,Sixteenth,D#6
1485,Left,1,88,90,215.75,0.239583,Sixteenth,E6
1486,Right,0,83,80,216.0,0.989583,Quarter,B5
1487,Right,0,80,80,216.25,0.739583,DottedEighth,G#5
1488,Left,1,95,80,216.5,0.239583,Sixteenth,B6
1489,Left,1,99,80,216.75,0.239583,Sixteenth,D#7
1490,Left,1,40,80,218.0,2.989583,DottedHalf,G#2_E2_B2
1491,Right,0,59,80,218.0,2.989583,DottedHalf,G#3_E3_B3
