,hand,channel,note,velocity,start_beat,duration,note_value,chord
0,Left,1,58,70,0.0,0.979167,Eighth,G3_D#3_A#3
3,Left,1,58,70,1.0,0.979167,Eighth,G3_D#3_A#3
6,Left,1,58,70,2.0,0.979167,Eighth,G3_D#3_A#3
9,Left,1,55,70,3.0,0.979167,Eighth,G3_D#3_A#3
12,Left,1,55,70,4.0,0.979167,Eighth,G3_D#3_A#3
15,Left,1,58,70,5.0,0.979167,Eighth,G3_D#3_A#3
21,Right,0,67,80,6.0,0.979167,Eighth,G4
18,Left,1,55,70,6.0,0.979167,Eighth,G3_D#3_A#3
23,Left,1,51,70,7.0,0.979167,Eighth,G3_D#3_A#3
22,Right,0,68,80,7.0,0.104167,SixtyFourth,G#4
26,Right,0,67,80,7.114583,0.375,TripletSixteenth,G4
27,Right,0,65,80,7.5,0.479167,Sixteenth,F4
31,Right,0,67,80,8.0,0.479167,Sixteenth,G4
28,Left,1,51,70,8.0,0.979167,Eighth,G3_D#3_A#3
32,Right,0,68,80,8.5,0.479167,Sixteenth,G#4
33,Right,0,69,80,9.0,2.979167,DottedQuarter,A4
34,Left,1,55,70,9.0,0.979167,Eighth,G3_D#3_A#3
37,Left,1,58,70,10.0,0.979167,Eighth,G3_D#3_A#3
40,Left,1,58,70,11.0,0.979167,Eighth,G3_D#3_A#3
43,Left,1,58,70,12.0,0.979167,Eighth,G3_D#3_A#3
44,Right,0,70,80,12.0,3.979167,Half,A#4
47,Left,1,51,70,13.0,0.979167,Eighth,G3_D#3_A#3
50,Left,1,55,70,14.0,0.979167,Eighth,G3_D#3_A#3
53,Left,1,58,70,15.0,0.979167,Eighth,G3_D#3_A#3
56,Left,1,51,70,16.0,0.979167,Eighth,G3_D#3_A#3
59,Right,0,72,80,16.0,0.104167,SixtyFourth,C5
60,Right,0,70,80,16.114583,0.375,TripletSixteenth,A#4
61,Right,0,69,80,16.5,0.479167,Sixteenth,A4
62,Left,1,55,70,17.0,0.979167,Eighth,G3_D#3_A#3
64,Right,0,70,80,17.0,0.479167,Sixteenth,A#4
66,Right,0,71,80,17.5,0.479167,Sixteenth,B4
70,Right,0,71,80,18.0,0.979167,Eighth,B4
67,Left,1,58,70,18.0,0.979167,Eighth,G#3_D3_A#3
71,Left,1,58,70,19.0,0.979167,Eighth,G#3_D3_A#3
74,Right,0,72,80,19.0,0.479167,Sixteenth,C5
75,Right,0,71,80,19.25,0.479167,Sixteenth,B4
76,Right,0,69,80,19.5,0.479167,Sixteenth,A4
77,Right,0,71,80,19.75,0.479167,Sixteenth,B4
78,Right,0,74,80,20.0,0.729167,DottedSixteenth,D5
79,Left,1,50,70,20.0,0.979167,Eighth,G#3_D3_A#3
82,Right,0,72,80,20.75,0.229167,ThirtySecond,C5
84,Left,1,58,70,21.0,0.979167,Eighth,G#3_D3_A#3
83,Right,0,65,80,21.0,3.979167,Half,F4
87,Left,1,58,70,22.0,0.979167,Eighth,G#3_D3_A#3
90,Left,1,58,70,23.0,0.979167,Eighth,G#3_D3_A#3
93,Left,1,58,70,24.0,0.979167,Eighth,G#3_D3_A#3
96,Right,0,67,80,25.0,0.104167,SixtyFourth,G4
97,Left,1,50,70,25.0,0.979167,Eighth,G#3_D3_A#3
100,Right,0,65,80,25.114583,0.364583,TripletSixteenth,F4
101,Right,0,64,80,25.5,0.479167,Sixteenth,E4
105,Right,0,65,80,26.0,0.479167,Sixteenth,F4
102,Left,1,50,70,26.0,0.979167,Eighth,G#3_D3_A#3
106,Right,0,67,80,26.5,0.479167,Sixteenth,G4
111,Right,0,68,80,27.0,3.479167,DottedQuarter,G#4
107,Left,1,58,70,27.0,0.979167,Eighth,G#3_F3_D3_A#3
112,Left,1,50,70,28.0,0.979167,Eighth,G#3_F3_D3_A#3
116,Left,1,58,70,29.0,0.979167,Eighth,G#3_F3_D3_A#3
120,Left,1,53,70,30.0,0.979167,Eighth,G#3_F3_D3_A#3
124,Right,0,67,80,30.5,0.479167,Sixteenth,G4
125,Left,1,58,70,31.0,0.979167,Eighth,G#3_F3_D3_A#3
129,Right,0,65,80,31.0,0.479167,Sixteenth,F4
130,Right,0,64,80,31.5,0.479167,Sixteenth,E4
132,Right,0,65,80,32.0,0.479167,Sixteenth,F4
131,Left,1,58,70,32.0,0.979167,Eighth,G#3_F3_D3_A#3
136,Right,0,67,80,32.5,0.479167,Sixteenth,G4
137,Left,1,56,70,33.0,0.979167,Eighth,G#3_F3_D3_A#3
140,Right,0,68,80,33.0,0.479167,Sixteenth,G#4
142,Right,0,70,80,33.5,0.479167,Sixteenth,A#4
143,Left,1,53,70,34.0,0.979167,Eighth,G#3_F3_D3_A#3
146,Right,0,72,80,34.0,0.479167,Sixteenth,C5
148,Right,0,71,80,34.5,0.479167,Sixteenth,B4
149,Right,0,72,80,35.0,0.479167,Sixteenth,C5
150,Left,1,50,70,35.0,0.979167,Eighth,G#3_F3_D3_A#3
154,Right,0,68,80,35.5,0.479167,Sixteenth,G#4
156,Left,1,51,70,36.0,0.979167,Eighth,G#3_D#3_A#3
155,Right,0,66,80,36.0,2.979167,DottedQuarter,F#4
159,Left,1,51,70,37.0,0.979167,Eighth,G#3_D#3_A#3
162,Left,1,56,70,38.0,0.979167,Eighth,G#3_D#3_A#3
165,Left,1,51,70,39.0,0.979167,Eighth,G3_D#3_A#3
168,Right,0,67,80,39.0,3.479167,DottedQuarter,G4
169,Left,1,51,70,40.0,0.979167,Eighth,G3_D#3_A#3
172,Left,1,51,70,41.0,0.979167,Eighth,G3_D#3_A#3
175,Left,1,51,70,42.0,0.979167,Eighth,D#3
176,Right,0,63,80,42.5,0.479167,Sixteenth,D#4
177,Left,1,46,70,43.0,0.979167,Eighth,A#2
178,Right,0,67,83,43.0,0.479167,Sixteenth,G4
179,Right,0,70,87,43.5,0.479167,Sixteenth,A#4
180,Left,1,44,70,44.0,0.979167,Eighth,G#2
181,Right,0,75,91,44.0,0.479167,Sixteenth,D#5
182,Right,0,79,95,44.5,0.479167,Sixteenth,G5
183,Left,1,43,80,45.0,0.979167,Eighth,G2
184,Right,0,82,99,45.0,3.979167,Half,A#5
185,Left,1,43,80,46.0,0.979167,Eighth,G2_D#3_A#2
188,Left,1,43,80,47.0,0.979167,Eighth,G2_D#3_A#2
191,Left,1,51,80,48.0,0.979167,Eighth,G2_D#3_A#2
194,Right,0,79,90,49.0,0.979167,Eighth,G5
195,Left,1,43,80,49.0,0.979167,Eighth,G2_D#3_A#2
198,Right,0,75,90,50.0,0.979167,Eighth,D#5
199,Left,1,43,80,50.0,0.979167,Eighth,G2_D#3_A#2
203,Right,0,70,90,51.0,0.979167,Eighth,A#4
202,Left,1,43,80,51.0,0.979167,Eighth,G2_D#3_A#2
207,Left,1,51,80,52.0,0.979167,Eighth,G2_D#3_A#2
206,Right,0,67,90,52.0,0.979167,Eighth,G4
210,Right,0,63,90,53.0,0.979167,Eighth,D#4
211,Left,1,51,80,53.0,0.979167,Eighth,G2_D#3_A#2
215,Right,0,60,90,54.0,2.979167,DottedQuarter,C4
214,Left,1,51,80,54.0,0.979167,Eighth,G#2_D#3_C3
218,Left,1,51,80,55.0,0.979167,Eighth,G#2_D#3_C3
221,Left,1,44,80,56.0,0.979167,Eighth,G#2_D#3_C3
224,Left,1,48,80,57.0,0.979167,Eighth,G#2_E3_C3
226,Right,0,84,106,57.0,3.979167,Half,C6
228,Left,1,44,80,58.0,0.979167,Eighth,G#2_E3_C3
231,Left,1,48,80,59.0,0.979167,Eighth,G#2_E3_C3
234,Left,1,53,80,60.0,0.979167,Eighth,G#2_F3_C3
237,Left,1,53,80,61.0,0.979167,Eighth,G#2_F3_C3
240,Right,0,82,90,61.0,0.479167,Sixteenth,A#5
241,Right,0,80,90,61.5,0.479167,Sixteenth,G#5
242,Left,1,53,80,62.0,0.979167,Eighth,G#2_F3_C3
245,Right,0,79,90,62.0,0.479167,Sixteenth,G5
246,Right,0,77,90,62.5,0.479167,Sixteenth,F5
247,Left,1,46,80,63.0,0.979167,Eighth,G3_D#3_A#2
249,Right,0,77,90,63.0,0.979167,Eighth,F5
251,Left,1,51,80,64.0,0.979167,Eighth,G3_D#3_A#2
254,Right,0,75,90,64.0,2.979167,DottedQuarter,D#5
255,Left,1,46,80,65.0,0.979167,Eighth,G3_D#3_A#2
258,Left,1,46,80,66.0,0.979167,Eighth,G3_D#3_A#2
264,Right,0,75,90,67.0,0.979167,Eighth,D#5
261,Left,1,46,80,67.0,0.979167,Eighth,G3_D#3_A#2
266,Left,1,55,80,68.0,0.979167,Eighth,G3_D#3_A#2
265,Right,0,75,90,68.0,0.979167,Eighth,D#5
271,Right,0,75,90,69.0,0.229167,ThirtySecond,D#5
269,Left,1,46,80,69.0,0.979167,Eighth,G#3_F3_A#2
273,Right,0,77,90,69.125,0.229167,ThirtySecond,F5
274,Right,0,75,90,69.25,0.229167,ThirtySecond,D#5
275,Right,0,77,90,69.375,0.229167,ThirtySecond,F5
276,Right,0,75,90,69.5,0.229167,ThirtySecond,D#5
277,Right,0,77,90,69.625,0.229167,ThirtySecond,F5
278,Right,0,74,90,69.75,0.229167,ThirtySecond,D5
279,Right,0,75,90,69.875,0.229167,ThirtySecond,D#5
283,Right,0,77,90,70.0,0.979167,Eighth,F5
280,Left,1,56,80,70.0,0.979167,Eighth,G#3_F3_A#2
285,Left,1,53,80,71.0,0.979167,Eighth,G#3_F3_A#2
284,Right,0,74,90,71.0,0.979167,Eighth,D5
290,Right,0,75,90,72.0,0.979167,Eighth,D#5
288,Left,1,51,80,72.0,1.979167,Quarter,G3_D#3
291,Right,0,70,80,73.0,0.979167,Eighth,A#4
292,Right,0,70,80,74.0,0.979167,Eighth,A#4
293,Right,0,70,80,75.0,0.979167,Eighth,A#4
294,Right,0,72,80,76.0,0.979167,Eighth,C5
295,Right,0,68,80,77.0,0.979167,Eighth,G#4
296,Left,1,58,80,78.0,2.979167,Quarter,A#3_A#2
297,Right,0,63,80,78.0,1.979167,Quarter,G4_D#4
300,Right,0,68,80,79.0,0.979167,Eighth,G#4
301,Right,0,65,80,80.0,0.979167,Eighth,F4_D4
302,Left,1,56,80,80.0,0.979167,Eighth,G#3
305,Left,1,55,80,81.0,1.979167,Quarter,G3_D#3
304,Right,0,63,80,81.0,0.979167,Eighth,D#4
307,Right,0,58,80,82.0,0.979167,Eighth,A#3
308,Right,0,58,80,83.0,0.979167,Eighth,A#3
309,Right,0,58,80,84.0,0.229167,ThirtySecond,A#3
310,Right,0,60,80,84.125,0.229167,ThirtySecond,C4
311,Right,0,58,80,84.25,0.229167,ThirtySecond,A#3
312,Right,0,60,80,84.375,0.229167,ThirtySecond,C4
313,Right,0,58,80,84.5,0.229167,ThirtySecond,A#3
314,Right,0,60,80,84.625,0.229167,ThirtySecond,C4
315,Right,0,57,80,84.75,0.229167,ThirtySecond,A3
316,Right,0,58,80,84.875,0.229167,ThirtySecond,A#3
317,Right,0,60,80,85.0,0.979167,Eighth,C4
318,Right,0,56,80,86.0,0.979167,Eighth,G#3
321,Right,0,51,80,87.0,1.979167,Quarter,G3_D#3
319,Left,1,46,80,87.0,2.979167,Quarter,A#2_A#1
323,Right,0,56,80,87.125,0.229167,ThirtySecond,G#3
324,Right,0,55,80,87.25,0.229167,ThirtySecond,G3
325,Right,0,56,80,87.375,0.229167,ThirtySecond,G#3
326,Right,0,55,80,87.5,0.229167,ThirtySecond,G3
327,Right,0,56,80,87.625,0.229167,ThirtySecond,G#3
328,Right,0,53,80,87.75,0.229167,ThirtySecond,F3
329,Right,0,55,80,87.875,0.229167,ThirtySecond,G3
330,Right,0,56,80,88.0,0.979167,Eighth,G#3
332,Right,0,53,80,89.0,0.979167,Eighth,F3_D3
331,Left,1,44,80,89.0,0.979167,Eighth,G#2
336,Right,0,51,80,90.0,1.979167,Quarter,D#3
334,Left,1,39,80,90.0,1.979167,Quarter,G2_D#2
338,Right,0,53,90,92.0,0.979167,Eighth,F3_D3
337,Left,1,44,90,92.0,0.979167,Eighth,G#2_A#1
342,Right,0,51,80,93.0,1.979167,Quarter,D#3
341,Left,1,39,80,93.0,1.979167,Quarter,G2_D#2
344,Right,0,53,90,95.0,0.979167,Eighth,F3_D3
346,Left,1,34,90,95.0,0.979167,Eighth,G#2_A#1
348,Left,1,43,80,96.0,1.979167,Quarter,G2_D#2
350,Right,0,51,80,96.0,1.979167,Quarter,D#3
351,Left,1,44,90,98.0,0.979167,Eighth,G#2_A#1
353,Right,0,53,90,98.0,0.979167,Eighth,F3_D3_A#3
356,Left,1,44,80,99.0,4.979167,DottedQuarter,G#2_D#2
358,Right,0,58,80,99.0,2.979167,DottedQuarter,F3_D3_A#3
361,Left,1,43,70,102.0,1.979167,Quarter,G2
362,Right,0,51,71,102.0,1.979167,Quarter,D#3
363,Right,0,55,80,105.0,0.979167,Eighth,G3
364,Right,0,58,80,106.0,0.979167,Eighth,A#3
365,Right,0,63,80,107.0,0.979167,Eighth,D#4
369,Left,1,39,80,108.0,0.979167,Eighth,D#2
366,Right,0,55,80,108.0,3.979167,Half,G4_G3_D#4_A#3
371,Left,1,43,80,109.0,0.979167,Eighth,G2
372,Left,1,46,80,110.0,0.979167,Eighth,A#2
373,Left,1,51,80,111.0,0.979167,Eighth,D#3
374,Right,0,67,80,112.0,0.979167,Eighth,G4_D#4_A#3
377,Left,1,55,80,112.0,0.979167,Eighth,G3
378,Left,1,58,80,113.0,0.979167,Eighth,A#3
379,Right,0,67,80,113.0,0.979167,Eighth,G4_D#4
383,Left,1,58,80,114.0,1.979167,Quarter,A#3_A#2
381,Right,0,63,80,114.0,0.979167,Eighth,G4_D#4
385,Right,0,68,80,114.125,0.229167,ThirtySecond,G#4
386,Right,0,67,80,114.25,0.229167,ThirtySecond,G4
387,Right,0,68,80,114.375,0.229167,ThirtySecond,G#4
388,Right,0,67,80,114.5,0.229167,ThirtySecond,G4
389,Right,0,68,80,114.625,0.229167,ThirtySecond,G#4
390,Right,0,65,80,114.75,0.229167,ThirtySecond,F4
391,Right,0,67,80,114.875,0.229167,ThirtySecond,G4
392,Right,0,68,80,115.0,0.979167,Eighth,G#4_F4
397,Left,1,56,80,116.0,0.979167,Eighth,G#3_A#2
394,Right,0,65,80,116.0,0.979167,Eighth,F4_D4_A#3
399,Right,0,65,80,117.0,2.979167,DottedQuarter,F4_D4_A#3
402,Left,1,56,80,117.0,4.979167,DottedQuarter,G#3_D#3
404,Right,0,58,80,120.0,1.979167,Quarter,D#4_A#3
406,Left,1,55,80,120.0,1.979167,Quarter,G3
407,Right,0,58,80,123.0,0.979167,Eighth,G3_A#3
409,Right,0,63,80,124.0,0.979167,Eighth,D#4_A#3
411,Right,0,67,80,125.0,0.979167,Eighth,G4_D#4
415,Left,1,39,80,126.0,0.979167,Eighth,D#2
413,Right,0,67,80,126.0,6.979167,DottedHalf,G4_A#4
416,Left,1,43,80,127.0,0.979167,Eighth,G2
417,Left,1,46,80,128.0,0.979167,Eighth,A#2
418,Left,1,51,80,129.0,0.979167,Eighth,D#3
420,Right,0,75,80,130.0,0.979167,Eighth,D#5
419,Left,1,55,80,130.0,0.979167,Eighth,G3
422,Left,1,58,85,131.0,0.979167,Eighth,A#3
421,Right,0,75,85,131.0,0.979167,Eighth,D#5
424,Left,1,63,91,132.0,0.979167,Eighth,D#4
423,Right,0,75,91,132.0,0.979167,Eighth,D#5
425,Left,1,60,97,133.0,0.979167,Eighth,C4
426,Right,0,75,97,133.0,0.979167,Eighth,F#4_D#5_A4
429,Left,1,58,103,134.0,0.979167,Eighth,A#3
430,Right,0,75,103,134.0,0.979167,Eighth,F#4_D#5_A#4
433,Right,0,72,109,135.0,2.979167,DottedQuarter,F#4_D#5_C5
434,Left,1,57,109,135.0,2.979167,DottedQuarter,A3
437,Right,0,65,80,137.0,0.979167,Eighth,F4
438,Left,1,57,80,138.0,2.979167,DottedQuarter,A3
439,Right,0,72,80,139.0,1.979167,Quarter,F#4_D#5_C5
442,Right,0,65,80,140.0,0.979167,Eighth,F4
443,Left,1,58,80,141.0,2.979167,DottedQuarter,A#3
444,Right,0,66,80,142.0,1.979167,Quarter,F#4_C#5_A#4
447,Right,0,65,80,143.0,0.979167,Eighth,F4
448,Left,1,51,80,144.0,2.979167,DottedQuarter,D#3
449,Right,0,63,79,145.0,1.979167,Quarter,F#4_D#4_C#5
452,Right,0,71,78,146.0,0.979167,Eighth,B4
453,Left,1,52,77,147.0,2.979167,DottedQuarter,E3
454,Right,0,71,76,148.0,1.979167,Quarter,G4_C#4_B4
457,Right,0,70,74,149.0,0.979167,Eighth,A#4
458,Left,1,53,73,150.0,2.979167,DottedQuarter,F3
459,Right,0,70,72,151.0,1.979167,Quarter,D#4_C4_A#4
462,Right,0,69,71,152.0,0.979167,Eighth,A4
464,Right,0,70,70,153.0,1.979167,Quarter,D4_A#4
463,Left,1,34,80,153.0,8.979167,Whole,A#1
466,Left,1,46,80,154.0,0.979167,Eighth,A#2
467,Left,1,46,80,155.0,0.979167,Eighth,A#2
468,Left,1,46,80,156.0,0.979167,Eighth,A#2
469,Left,1,46,80,157.0,0.979167,Eighth,A#2
470,Left,1,46,80,158.0,0.979167,Eighth,A#2
472,Left,1,46,80,159.0,0.979167,Eighth,A#2
471,Right,0,74,80,159.0,1.979167,Quarter,D5
473,Left,1,46,80,160.0,0.979167,Eighth,A#2
475,Left,1,46,80,161.0,0.979167,Eighth,A#2
474,Right,0,72,80,161.0,0.479167,Sixteenth,C5
476,Right,0,70,80,161.5,0.479167,Sixteenth,A#4
480,Left,1,46,80,162.0,0.979167,Eighth,A#2
477,Right,0,60,80,162.0,1.979167,Quarter,D#4_C4_A#4
481,Right,0,69,80,163.0,0.979167,Eighth,A4
482,Left,1,46,80,163.0,0.979167,Eighth,A#2
485,Right,0,63,80,164.0,0.979167,Eighth,G4_D#4
483,Left,1,46,80,164.0,0.979167,Eighth,A#3_A#2
487,Right,0,65,80,164.5,0.479167,Sixteenth,F4
488,Left,1,57,80,164.5,0.479167,Sixteenth,A3
491,Left,1,46,80,165.0,1.979167,Eighth,A3_A#2
489,Right,0,65,80,165.0,3.979167,Half,F4_D#4
493,Left,1,46,80,166.0,0.979167,Eighth,A#2
494,Left,1,55,80,167.0,0.979167,Sixteenth,G3_A#2
496,Left,1,53,80,167.5,0.479167,Sixteenth,F3
497,Left,1,46,80,168.0,1.479167,Eighth,F3_A#2
500,Right,0,67,80,169.0,0.979167,Eighth,G4
499,Left,1,46,80,169.0,0.979167,Eighth,A#2
501,Left,1,51,80,169.5,0.479167,Sixteenth,D#3
503,Left,1,46,80,170.0,0.979167,Eighth,D3_A#2
502,Right,0,69,80,170.0,0.979167,Eighth,A4
505,Left,1,51,80,170.5,0.479167,Sixteenth,D#3
506,Left,1,46,80,171.0,1.979167,Eighth,D3_A#2
507,Right,0,70,80,171.0,0.479167,Sixteenth,A#4
509,Right,0,72,80,171.5,0.145833,TripletThirtySecond,C5
510,Right,0,70,80,171.666667,0.145833,TripletThirtySecond,A#4
511,Right,0,69,80,171.833333,0.145833,TripletThirtySecond,A4
512,Right,0,70,80,172.0,0.479167,Sixteenth,A#4
513,Left,1,46,80,172.0,0.979167,Eighth,A#2
514,Right,0,72,80,172.5,0.479167,Sixteenth,C5
515,Right,0,74,80,173.0,0.479167,Sixteenth,D5
516,Left,1,46,80,173.0,0.979167,Eighth,A#2
517,Right,0,75,80,173.5,0.479167,Sixteenth,D#5
518,Right,0,74,80,174.0,0.104167,SixtyFourth,D5
519,Left,1,46,80,174.0,0.979167,Eighth,A#2
520,Right,0,77,80,174.114583,2.864583,DottedQuarter,F5
521,Left,1,46,80,175.0,0.979167,Eighth,A#2
522,Left,1,46,80,176.0,0.979167,Eighth,A#2
524,Left,1,46,80,177.0,0.979167,Eighth,A#2
523,Right,0,76,80,177.0,0.479167,Sixteenth,E5
525,Right,0,77,80,177.5,0.479167,Sixteenth,F5
526,Right,0,79,80,178.0,0.479167,Sixteenth,G5
527,Left,1,46,80,178.0,0.979167,Eighth,A#2
528,Right,0,77,80,178.5,0.479167,Sixteenth,F5
530,Right,0,75,80,179.0,0.479167,Sixteenth,D#5
529,Left,1,46,80,179.0,0.979167,Eighth,A#2
531,Right,0,74,80,179.5,0.479167,Sixteenth,D5
532,Right,0,74,80,180.0,1.979167,Quarter,G4_D5_D#4
535,Left,1,46,80,180.0,0.979167,Eighth,A#2
537,Right,0,72,80,181.0,0.979167,Eighth,C5
536,Left,1,46,80,181.0,0.979167,Eighth,A#2
538,Right,0,70,80,182.0,0.479167,Sixteenth,F4_D4_A#4
541,Left,1,46,80,182.0,0.979167,Eighth,A#2
542,Right,0,63,80,182.5,0.479167,Sixteenth,D#4_C4_A4
545,Left,1,46,80,183.0,0.979167,Eighth,A#2
546,Right,0,69,80,183.0,1.979167,Quarter,D#4_C4_A4
549,Left,1,46,80,184.0,0.979167,Eighth,A#2
550,Right,0,63,80,185.0,0.979167,Eighth,G4_D#4
551,Left,1,58,80,185.0,0.979167,Sixteenth,A#3_A#2
555,Right,0,65,80,185.5,0.479167,Sixteenth,F4
554,Left,1,57,80,185.5,0.479167,Sixteenth,A3
558,Right,0,65,80,186.0,2.979167,Eighth,F4_D#4
556,Left,1,57,80,186.0,0.979167,Sixteenth,A3_A#2
560,Left,1,55,80,186.5,0.479167,Sixteenth,G3
561,Left,1,46,80,187.0,0.979167,Eighth,F3_A#2
563,Right,0,67,80,187.0,0.979167,Eighth,G4
564,Left,1,51,80,187.5,0.479167,Sixteenth,D#3
565,Left,1,46,80,188.0,0.979167,Eighth,D3_A#2
566,Right,0,69,80,188.0,0.979167,Eighth,A4
568,Left,1,48,80,188.5,0.479167,Sixteenth,C3
569,Left,1,46,80,189.0,1.979167,Quarter,A#2
570,Right,0,62,80,189.0,0.979167,Eighth,D4_A#4
572,Right,0,73,80,190.0,0.979167,Eighth,C#5
573,Right,0,74,80,191.0,0.979167,Eighth,D5
574,Left,1,50,80,192.0,1.979167,Quarter,F3_D3_A#3
577,Right,0,76,80,193.0,0.979167,Eighth,E5
578,Right,0,77,80,194.0,0.979167,Eighth,F5
579,Left,1,70,80,195.0,1.979167,Quarter,F4_D4_A#4
582,Right,0,81,80,196.0,0.979167,Eighth,A5
583,Right,0,82,80,197.0,0.979167,Eighth,A#5
584,Left,1,67,80,198.0,1.979167,Quarter,G4_D#4_A#4
587,Right,0,78,80,199.0,0.979167,Eighth,F#5
588,Right,0,79,80,200.0,0.979167,Eighth,G5
589,Left,1,55,80,201.0,1.979167,Quarter,G3_D#4_A#3
592,Right,0,74,80,202.0,0.979167,Eighth,D5
593,Right,0,75,80,203.0,0.979167,Eighth,D#5
594,Left,1,58,80,204.0,1.979167,Quarter,E3_C4_A#3
597,Right,0,71,80,205.0,0.979167,Eighth,B4
598,Right,0,72,80,206.0,0.979167,Eighth,C5
599,Left,1,53,80,207.0,5.979167,DottedHalf,F3
601,Right,0,77,80,208.0,2.479167,TiedQuarter-Sixteenth,F5
600,Left,1,62,80,208.0,0.979167,Eighth,D4_A#3
603,Left,1,58,80,209.0,0.979167,Eighth,D4_A#3
605,Left,1,58,80,210.0,0.979167,Eighth,D4_A#3
607,Right,0,79,80,210.5,0.479167,Sixteenth,G5
608,Right,0,81,83,210.75,0.479167,Sixteenth,A5
610,Left,1,58,80,211.0,0.979167,Eighth,D4_A#3
609,Right,0,82,86,211.0,0.479167,Sixteenth,A#5
612,Right,0,84,90,211.25,0.479167,Sixteenth,C6
613,Right,0,86,93,211.5,0.479167,Sixteenth,D6
614,Right,0,87,96,211.75,0.479167,Sixteenth,D#6
615,Left,1,62,80,212.0,0.979167,Eighth,D4_A#3
616,Right,0,89,114,212.0,1.979167,Quarter,F6
618,Left,1,63,80,213.0,2.979167,Eighth,F3_D#4_A3
621,Left,1,57,80,214.0,0.979167,Eighth,D#4_A3
622,Right,0,87,100,214.0,0.979167,Eighth,D#6
626,Right,0,84,100,215.0,0.979167,Eighth,C6
624,Left,1,57,80,215.0,0.979167,Eighth,D#4_A3
629,Right,0,82,80,216.0,1.479167,DottedEighth,A#5
627,Left,1,58,80,216.0,1.979167,Quarter,D4_A#3
630,Right,0,81,80,217.25,0.479167,Sixteenth,A5
631,Right,0,86,80,217.5,0.479167,Sixteenth,D6
632,Right,0,84,80,217.75,0.479167,Sixteenth,C6
633,Right,0,82,80,218.0,0.479167,Sixteenth,A#5
634,Right,0,81,80,218.25,0.479167,Sixteenth,A5
635,Right,0,79,80,218.5,0.479167,Sixteenth,G5
636,Right,0,77,80,218.75,0.479167,Sixteenth,F5
637,Right,0,76,80,219.0,0.479167,Sixteenth,E5
638,Right,0,77,80,219.25,0.479167,Sixteenth,F5
639,Right,0,82,80,219.5,0.479167,Sixteenth,A#5
640,Right,0,81,80,219.75,0.479167,Sixteenth,A5
641,Right,0,79,80,220.0,0.479167,Sixteenth,G5
642,Right,0,77,80,220.25,0.479167,Sixteenth,F5
643,Right,0,75,80,220.5,0.479167,Sixteenth,D#5
644,Right,0,74,80,220.75,0.479167,Sixteenth,D5
645,Right,0,73,80,221.0,0.479167,Sixteenth,C#5
646,Right,0,74,80,221.25,0.479167,Sixteenth,D5
647,Right,0,79,80,221.5,0.479167,Sixteenth,G5
648,Right,0,77,80,221.75,0.479167,Sixteenth,F5
649,Right,0,75,80,222.0,0.479167,Sixteenth,D#5
650,Right,0,74,80,222.25,0.479167,Sixteenth,D5
651,Right,0,72,80,222.5,0.479167,Sixteenth,C5
652,Right,0,70,80,222.75,0.479167,Sixteenth,A#4
653,Right,0,69,80,223.0,0.479167,Sixteenth,A4
654,Right,0,70,80,223.25,0.479167,Sixteenth,A#4
655,Right,0,75,80,223.5,0.479167,Sixteenth,D#5
656,Right,0,74,80,223.75,0.479167,Sixteenth,D5
657,Right,0,72,80,224.0,0.479167,Sixteenth,C5
658,Right,0,70,80,224.25,0.479167,Sixteenth,A#4
659,Right,0,69,80,224.5,0.479167,Sixteenth,A4
660,Right,0,67,80,224.75,0.479167,Sixteenth,G4
661,Left,1,41,80,225.0,5.979167,DottedHalf,F2
662,Right,0,64,80,225.0,0.479167,Sixteenth,E4
663,Right,0,65,81,225.25,0.479167,Sixteenth,F4
664,Right,0,66,82,225.5,0.479167,Sixteenth,F#4
665,Right,0,67,83,225.75,0.479167,Sixteenth,G4
666,Right,0,68,84,226.0,0.479167,Sixteenth,G#4
667,Left,1,46,80,226.0,0.979167,Eighth,D3_A#2
669,Right,0,69,86,226.25,0.479167,Sixteenth,A4
670,Right,0,70,87,226.5,0.479167,Sixteenth,A#4
671,Right,0,71,88,226.75,0.479167,Sixteenth,B4
672,Left,1,46,80,227.0,0.979167,Eighth,D3_A#2
674,Right,0,72,89,227.0,0.479167,Sixteenth,C5
675,Right,0,73,91,227.25,0.479167,Sixteenth,C#5
676,Right,0,74,92,227.5,0.479167,Sixteenth,D5
677,Right,0,75,93,227.75,0.479167,Sixteenth,D#5
679,Left,1,46,80,228.0,0.979167,Eighth,D3_A#2
678,Right,0,76,94,228.0,0.479167,Sixteenth,E5
681,Right,0,77,96,228.25,0.479167,Sixteenth,F5
682,Right,0,78,97,228.5,0.479167,Sixteenth,F#5
683,Right,0,79,98,228.75,0.479167,Sixteenth,G5
686,Right,0,80,99,229.0,0.479167,Sixteenth,G#5
684,Left,1,46,80,229.0,0.979167,Eighth,D3_A#2
687,Right,0,81,101,229.25,0.479167,Sixteenth,A5
688,Right,0,82,102,229.5,0.479167,Sixteenth,A#5
689,Right,0,83,103,229.75,0.479167,Sixteenth,B5
690,Right,0,84,104,230.0,0.479167,Sixteenth,C6
691,Left,1,46,80,230.0,0.979167,Eighth,D3_A#2
693,Right,0,85,105,230.1875,0.479167,Sixteenth,C#6
694,Right,0,86,106,230.385417,0.479167,Sixteenth,D6
695,Right,0,87,107,230.583333,0.479167,Sixteenth,D#6
696,Right,0,88,108,230.770833,0.479167,Sixteenth,E6
698,Left,1,41,80,231.0,2.979167,Eighth,F2_D#3_A2
697,Right,0,89,123,231.0,1.479167,DottedEighth,F6
701,Left,1,51,80,232.0,0.979167,Eighth,D#3_C3
703,Right,0,87,110,232.25,0.479167,Sixteenth,D#6
704,Right,0,84,108,232.5,0.479167,Sixteenth,C6
705,Right,0,81,105,232.75,0.479167,Sixteenth,A5
706,Left,1,48,80,233.0,0.979167,Eighth,D#3_C3
708,Right,0,77,102,233.0,0.479167,Sixteenth,F5
709,Right,0,75,99,233.25,0.479167,Sixteenth,D#5
710,Right,0,72,96,233.5,0.479167,Sixteenth,C5
711,Right,0,69,93,233.75,0.479167,Sixteenth,A4
712,Right,0,70,91,234.0,1.979167,Quarter,A#4
713,Left,1,46,80,234.0,0.979167,Eighth,A#2
714,Left,1,50,80,235.0,0.979167,Eighth,D3
715,Left,1,53,80,236.0,0.979167,Eighth,F3
716,Left,1,58,80,237.0,0.979167,Eighth,A#3
717,Left,1,62,80,238.0,0.979167,Eighth,D4
718,Right,0,70,80,239.0,2.979167,DottedQuarter,C#5_A#4
719,Left,1,64,80,239.0,0.979167,Eighth,E4
721,Left,1,65,80,240.0,1.979167,Quarter,F4
722,Right,0,74,80,241.0,0.979167,Eighth,D5
725,Right,0,69,80,242.0,0.979167,Eighth,D#5_A4
723,Left,1,53,80,242.0,0.979167,Eighth,F3_C4
727,Right,0,72,80,242.75,0.229167,ThirtySecond,C5
728,Left,1,63,80,242.75,0.229167,ThirtySecond,D#4
729,Left,1,34,80,243.0,0.979167,Eighth,A#1
730,Right,0,62,80,243.0,1.979167,Quarter,D4_A#4
732,Left,1,38,80,244.0,0.979167,Eighth,D2
733,Left,1,41,80,245.0,0.979167,Eighth,F2
734,Left,1,46,80,246.0,0.979167,Eighth,A#2
735,Left,1,50,80,247.0,0.979167,Eighth,D3
737,Right,0,58,80,248.0,2.979167,DottedQuarter,C#4_A#3
736,Left,1,52,80,248.0,0.979167,Eighth,E3
739,Left,1,53,80,249.0,1.979167,Quarter,F3
740,Right,0,62,80,250.0,0.979167,Eighth,D4
743,Left,1,48,80,251.0,0.979167,DottedSixteenth,F2_C3
741,Right,0,63,80,251.0,0.979167,DottedSixteenth,D#4_A3
745,Left,1,51,80,251.75,0.229167,ThirtySecond,D#3
746,Right,0,60,80,251.75,0.229167,ThirtySecond,C4
747,Right,0,58,80,252.0,0.979167,Eighth,A#3
748,Left,1,46,80,252.0,0.979167,Eighth,D3_A#2
750,Left,1,41,80,253.0,1.979167,Quarter,F2_C3
751,Right,0,63,80,253.0,1.979167,DottedEighth,D#4_A3
754,Left,1,51,80,254.5,0.479167,Sixteenth,D#3
755,Right,0,60,80,254.5,0.479167,Sixteenth,C4
756,Left,1,46,80,255.0,0.979167,Eighth,D3_A#2
758,Right,0,58,80,255.0,0.979167,Eighth,A#3
759,Left,1,48,80,256.0,1.979167,DottedEighth,F2_C3
761,Right,0,63,80,256.0,1.979167,DottedEighth,D#4_A3
763,Left,1,51,80,257.5,0.479167,Sixteenth,D#3
764,Right,0,60,80,257.5,0.479167,Sixteenth,C4
765,Left,1,50,80,258.0,0.979167,Eighth,D3_A#2
766,Right,0,58,80,258.0,0.979167,Eighth,A#3
770,Left,1,41,80,259.0,0.979167,Eighth,F2_C3
768,Right,0,57,80,259.0,0.979167,Eighth,D#4_A3
772,Left,1,47,80,259.5,0.479167,Sixteenth,B2
773,Right,0,62,80,259.5,0.479167,Sixteenth,D4
774,Left,1,41,80,260.0,0.979167,Eighth,F2_C3
776,Right,0,63,80,260.0,0.979167,Sixteenth,D#4_A3
778,Left,1,51,80,260.5,0.479167,Sixteenth,D#3
779,Right,0,60,80,260.5,0.479167,Sixteenth,C4
780,Right,0,59,80,261.0,0.3125,TripletSixteenth,B3
781,Right,0,60,80,261.166667,0.3125,TripletSixteenth,C4
782,Right,0,62,80,261.333333,0.3125,TripletSixteenth,D4
783,Left,1,46,80,261.5,2.479167,TiedQuarter-Sixteenth,D#3_A#2
784,Right,0,57,80,261.5,2.479167,TiedQuarter-Sixteenth,C4_A3
787,Left,1,46,80,264.0,1.979167,Quarter,D3_A#2
789,Right,0,58,80,264.0,1.979167,Quarter,A#3
790,Left,1,43,80,270.0,0.979167,Eighth,G2_G1
792,Left,1,31,80,271.0,0.979167,Eighth,G2_G1
794,Left,1,43,80,272.0,0.979167,Eighth,G2_G1
796,Left,1,43,80,273.0,0.979167,Eighth,G2_G1
798,Left,1,31,80,274.0,0.979167,Eighth,G2_G1
800,Left,1,43,80,275.0,0.979167,Eighth,G2_G1
803,Left,1,31,80,276.0,0.979167,Eighth,G2_G1
802,Right,0,59,80,276.0,0.979167,Eighth,B3
807,Right,0,60,80,277.0,0.104167,SixtyFourth,C4
805,Left,1,43,80,277.0,0.979167,Eighth,G2_G1
808,Right,0,59,80,277.114583,0.375,TripletSixteenth,B3
809,Right,0,57,80,277.5,0.479167,Sixteenth,A3
810,Left,1,31,80,278.0,0.979167,Eighth,G2_G1
812,Right,0,59,80,278.0,0.479167,Sixteenth,B3
813,Right,0,60,80,278.5,0.479167,Sixteenth,C4
814,Left,1,43,80,279.0,0.979167,Eighth,G2_G1
815,Right,0,61,80,279.0,4.979167,Half,G#3_F3_C#4_B3
820,Left,1,43,80,280.0,0.979167,Eighth,G2_G1
822,Left,1,43,80,281.0,0.979167,Eighth,G2_G1
826,Right,0,62,80,282.0,1.979167,Quarter,D4
824,Left,1,43,80,282.0,0.979167,Eighth,G2_G1
827,Left,1,31,80,283.0,0.979167,Eighth,G2_G1
829,Left,1,43,80,284.0,0.979167,Eighth,G2_G1
831,Left,1,31,80,285.0,0.979167,Eighth,G2_G1
834,Left,1,43,80,286.0,0.979167,Eighth,G2_G1
833,Right,0,63,80,286.0,0.104167,SixtyFourth,D#4
836,Right,0,62,80,286.114583,0.375,TripletSixteenth,D4
837,Right,0,61,80,286.5,0.479167,Sixteenth,C#4
840,Right,0,62,80,287.0,0.479167,Sixteenth,D4
838,Left,1,31,80,287.0,0.979167,Eighth,G2_G1
841,Right,0,63,80,287.5,0.479167,Sixteenth,D#4
842,Right,0,59,80,288.0,4.979167,Half,G#3_E4_D4_B3
846,Left,1,43,80,288.0,0.979167,Eighth,G2_G1
848,Left,1,31,80,289.0,0.979167,Eighth,G2_G1
850,Left,1,31,80,290.0,0.979167,Eighth,G2_G1
852,Left,1,43,80,291.0,0.979167,Eighth,G2_G1
854,Right,0,55,80,291.0,1.979167,Quarter,G3_F4
856,Left,1,43,80,292.0,0.979167,Eighth,G2_G1
858,Left,1,31,80,293.0,0.979167,Eighth,G2_G1
860,Left,1,31,80,294.0,0.979167,Eighth,G2_G1
862,Right,0,72,80,295.0,0.104167,SixtyFourth,C5_C4
864,Left,1,43,80,295.0,0.979167,Eighth,G2_G1
866,Right,0,71,81,295.114583,0.375,TripletSixteenth,B4_B3
868,Right,0,69,84,295.5,0.479167,Sixteenth,A4_A3
870,Left,1,43,80,296.0,0.979167,Eighth,G2_G1
872,Right,0,71,89,296.0,0.479167,Sixteenth,B4_B3
874,Right,0,72,94,296.5,0.479167,Sixteenth,C5_C4
877,Right,0,73,99,297.0,2.979167,DottedQuarter,C#5_C#4
876,Left,1,43,80,297.0,0.979167,Eighth,G2_G1
880,Left,1,43,80,298.0,0.979167,Eighth,G2_F3_D3_B2
884,Left,1,53,80,299.0,0.979167,Eighth,G2_F3_D3_B2
892,Right,0,74,80,300.0,0.979167,Eighth,D5_D4
888,Left,1,47,80,300.0,0.979167,Eighth,G2_F3_D3_B2
898,Right,0,75,80,301.0,0.104167,SixtyFourth,D#5
894,Left,1,53,80,301.0,0.979167,Eighth,G2_F3_D3_B2
899,Right,0,74,80,301.114583,0.375,TripletSixteenth,D5
900,Right,0,73,80,301.5,0.479167,Sixteenth,C#5
901,Left,1,53,80,302.0,0.979167,Eighth,G2_F3_D3_B2
903,Right,0,74,80,302.0,0.479167,Sixteenth,D5
906,Right,0,75,80,302.5,0.479167,Sixteenth,D#5
907,Left,1,53,80,303.0,0.979167,Eighth,G2_F3_D3_B2
908,Right,0,77,80,303.0,0.479167,Sixteenth,F5
912,Right,0,79,80,303.5,0.479167,Sixteenth,G5
914,Left,1,53,80,304.0,0.979167,Eighth,G2_F3_D3_B2
913,Right,0,80,80,304.0,0.479167,Sixteenth,G#5
918,Right,0,79,80,304.5,0.479167,Sixteenth,G5
920,Right,0,80,80,305.0,0.479167,Sixteenth,G#5
919,Left,1,53,80,305.0,0.979167,Eighth,G2_F3_D3_B2
924,Right,0,77,80,305.5,0.479167,Sixteenth,F5
926,Left,1,36,80,306.0,0.979167,Eighth,C3_C2
925,Right,0,77,80,306.0,2.979167,DottedQuarter,F5
928,Left,1,58,80,307.0,0.979167,Eighth,G3_C3_A#3
931,Left,1,58,80,308.0,0.979167,Eighth,G3_C3_A#3
935,Left,1,48,80,309.0,0.979167,Eighth,G3_C3_A#3
934,Right,0,76,80,309.0,1.979167,Quarter,G4_E5
939,Left,1,58,80,310.0,0.979167,Eighth,G3_C3_A#3
942,Right,0,68,80,310.0,0.104167,SixtyFourth,G#4
943,Right,0,67,80,310.114583,0.375,TripletSixteenth,G4
944,Right,0,66,80,310.5,0.479167,Sixteenth,F#4
946,Left,1,58,80,311.0,0.979167,Eighth,G3_C3_A#3
945,Right,0,67,80,311.0,0.479167,Sixteenth,G4
949,Right,0,69,80,311.5,0.479167,Sixteenth,A4
950,Left,1,55,80,312.0,0.979167,Eighth,G3_C3_A#3
951,Right,0,70,80,312.0,0.479167,Sixteenth,A#4
954,Right,0,72,80,312.5,0.479167,Sixteenth,C5
956,Left,1,48,80,313.0,0.979167,Eighth,G3_C3_A#3
955,Right,0,73,80,313.0,0.479167,Sixteenth,C#5
959,Right,0,72,80,313.5,0.479167,Sixteenth,C5
960,Left,1,48,80,314.0,0.979167,Eighth,G3_C3_A#3
963,Right,0,73,80,314.0,0.479167,Sixteenth,C#5
964,Right,0,70,80,314.5,0.479167,Sixteenth,A#4
965,Left,1,41,80,315.0,0.979167,Eighth,F3_F2
967,Right,0,70,80,315.0,2.979167,DottedQuarter,A#4
968,Left,1,60,80,316.0,0.979167,Eighth,F3_D#4_C4
971,Left,1,63,80,317.0,0.979167,Eighth,F3_D#4_C4
975,Left,1,63,80,318.0,0.979167,Eighth,F3_D#4_C4
974,Right,0,72,80,318.0,1.979167,Eighth,C5_A4
980,Left,1,53,80,319.0,0.979167,Eighth,F3_D#4_C4
979,Right,0,73,80,319.0,0.104167,SixtyFourth,C#5
983,Right,0,72,80,319.114583,0.375,TripletSixteenth,C5
984,Right,0,71,80,319.5,0.479167,Sixteenth,B4
986,Left,1,60,80,320.0,0.979167,Eighth,F3_D#4_C4
985,Right,0,72,80,320.0,0.479167,Sixteenth,C5
989,Right,0,74,80,320.5,0.479167,Sixteenth,D5
990,Left,1,60,80,321.0,0.979167,Eighth,F3_D#4_C4
991,Right,0,75,80,321.0,0.479167,Sixteenth,D#5
994,Right,0,77,80,321.5,0.479167,Sixteenth,F5
996,Left,1,60,80,322.0,0.979167,Eighth,F3_D#4_C4
995,Right,0,78,80,322.0,0.479167,Sixteenth,F#5
999,Right,0,77,80,322.5,0.479167,Sixteenth,F5
1001,Left,1,60,80,323.0,0.979167,Eighth,F3_D#4_C4
1000,Right,0,78,80,323.0,0.479167,Sixteenth,F#5
1004,Right,0,75,80,323.5,0.479167,Sixteenth,D#5
1007,Right,0,75,80,324.0,2.979167,DottedQuarter,D#5
1005,Left,1,34,80,324.0,0.979167,Eighth,A#2_A#1
1008,Left,1,46,80,325.0,0.979167,Eighth,G#3_F3_A#2
1011,Left,1,53,80,326.0,0.979167,Eighth,G#3_F3_A#2
1014,Left,1,46,80,327.0,0.979167,Eighth,G#3_F3_A#2
1017,Right,0,74,80,327.0,1.979167,Quarter,F4_D5
1019,Right,0,66,80,328.0,0.104167,SixtyFourth,F#4
1020,Left,1,56,80,328.0,0.979167,Eighth,G#3_F3_A#2
1023,Right,0,65,80,328.114583,0.375,TripletSixteenth,F4
1024,Right,0,64,80,328.5,0.479167,Sixteenth,E4
1027,Right,0,65,80,329.0,0.479167,Sixteenth,F4
1025,Left,1,46,80,329.0,0.979167,Eighth,G#3_F3_A#2
1029,Right,0,67,80,329.5,0.479167,Sixteenth,G4
1030,Left,1,53,80,330.0,0.979167,Eighth,G#3_F3_A#2
1033,Right,0,68,80,330.0,0.479167,Sixteenth,G#4
1034,Right,0,70,80,330.5,0.479167,Sixteenth,A#4
1036,Right,0,71,80,331.0,0.479167,Sixteenth,B4
1035,Left,1,46,80,331.0,0.979167,Eighth,G#3_F3_A#2
1039,Right,0,70,80,331.5,0.479167,Sixteenth,A#4
1040,Left,1,53,80,332.0,0.979167,Eighth,G#3_F3_A#2
1041,Right,0,71,80,332.0,0.479167,Sixteenth,B4
1044,Right,0,68,80,332.5,0.479167,Sixteenth,G#4
1045,Left,1,39,80,333.0,0.979167,Eighth,D#2
1046,Right,0,68,80,333.0,2.979167,DottedQuarter,G#4
1047,Left,1,51,80,334.0,0.979167,Eighth,D#3_C#4_A#3
1050,Left,1,51,80,335.0,0.979167,Eighth,D#3_C#4_A#3
1053,Left,1,58,80,336.0,0.979167,Eighth,D#3_C#4_A#3
1055,Right,0,70,80,336.0,3.979167,Eighth,G4_A#4
1058,Left,1,51,80,337.0,0.979167,Eighth,D#3_C#4_A#3
1061,Right,0,71,80,337.0,0.104167,SixtyFourth,B4
1062,Right,0,70,80,337.114583,0.375,TripletSixteenth,A#4
1063,Right,0,69,80,337.5,0.479167,Sixteenth,A4
1064,Right,0,70,80,338.0,0.479167,Sixteenth,A#4
1065,Left,1,61,80,338.0,0.979167,Eighth,D#3_C#4_A#3
1068,Right,0,71,80,338.5,0.479167,Sixteenth,B4
1071,Right,0,73,80,339.0,0.479167,Sixteenth,C#5
1069,Left,1,58,80,339.0,0.979167,Eighth,D#3_C#4_A#3
1073,Right,0,75,80,339.5,0.479167,Sixteenth,D#5
1074,Left,1,58,80,340.0,0.979167,Eighth,D#3_C#4_A#3
1077,Right,0,76,80,340.0,0.979167,Sixteenth,G4_E5
1079,Right,0,75,80,340.5,0.479167,Sixteenth,D#5
1080,Right,0,76,80,341.0,0.979167,Sixteenth,G4_E5
1082,Left,1,61,80,341.0,0.979167,Eighth,D#3_C#4_A#3
1085,Right,0,73,80,341.5,0.479167,Sixteenth,C#5
1086,Left,1,51,80,342.0,1.979167,Quarter,D#4_D#3_B3
1087,Right,0,68,80,342.0,1.979167,Quarter,G#4_B4
1091,Right,0,73,80,342.5,0.479167,Sixteenth,C#5
1092,Right,0,75,80,343.0,0.479167,Sixteenth,D#5
1093,Right,0,73,80,343.5,0.479167,Sixteenth,C#5
1094,Right,0,75,80,344.0,0.479167,Sixteenth,D#5
1095,Right,0,71,80,344.5,0.479167,Sixteenth,B4
1097,Left,1,61,80,345.0,0.479167,Sixteenth,C#4
1096,Right,0,70,80,345.0,0.479167,Sixteenth,A#4
1098,Right,0,71,80,345.5,0.479167,Sixteenth,B4
1099,Left,1,63,80,345.5,0.479167,Sixteenth,D#4
1100,Right,0,73,80,346.0,0.479167,Sixteenth,C#5
1101,Left,1,64,80,346.0,0.479167,Sixteenth,E4
1102,Right,0,71,80,346.5,0.479167,Sixteenth,B4
1103,Left,1,63,80,346.5,0.479167,Sixteenth,D#4
1105,Right,0,73,80,347.0,0.479167,Sixteenth,C#5
1104,Left,1,64,80,347.0,0.479167,Sixteenth,E4
1107,Right,0,70,80,347.5,0.479167,Sixteenth,A#4
1106,Left,1,61,80,347.5,0.479167,Sixteenth,C#4
1108,Left,1,59,80,348.0,0.479167,Sixteenth,B3
1109,Right,0,68,80,348.0,0.479167,Sixteenth,G#4
1110,Left,1,61,80,348.5,0.479167,Sixteenth,C#4
1111,Right,0,70,80,348.5,0.479167,Sixteenth,A#4
1114,Left,1,63,80,349.0,0.479167,Sixteenth,D#4
1112,Right,0,71,80,349.0,0.979167,Sixteenth,D#5_B4
1115,Right,0,70,80,349.5,0.479167,Sixteenth,A#4
1116,Left,1,61,80,349.5,0.479167,Sixteenth,C#4
1117,Right,0,75,80,350.0,0.979167,Eighth,D#5_B4
1119,Left,1,63,80,350.0,0.479167,Sixteenth,D#4
1121,Right,0,68,80,350.5,0.479167,Sixteenth,G#4
1120,Left,1,59,80,350.5,0.479167,Sixteenth,B3
1122,Right,0,76,80,351.0,1.979167,Quarter,G4_E5
1123,Left,1,58,80,351.0,0.479167,Sixteenth,A#3
1126,Right,0,68,80,351.5,0.479167,Sixteenth,G#4
1125,Left,1,59,80,351.5,0.479167,Sixteenth,B3
1127,Right,0,70,80,352.0,0.479167,Sixteenth,A#4
1128,Left,1,61,80,352.0,0.479167,Sixteenth,C#4
1130,Left,1,59,80,352.5,0.479167,Sixteenth,B3
1129,Right,0,68,80,352.5,0.479167,Sixteenth,G#4
1132,Left,1,61,80,353.0,0.479167,Sixteenth,C#4
1131,Right,0,70,80,353.0,0.979167,Sixteenth,D#5_A#4
1135,Left,1,58,80,353.5,0.479167,Sixteenth,A#3
1134,Right,0,67,80,353.5,0.479167,Sixteenth,G4
1137,Left,1,59,80,354.0,0.479167,Sixteenth,B3
1136,Right,0,68,80,354.0,0.479167,Sixteenth,G#4
1139,Left,1,61,80,354.5,0.479167,Sixteenth,C#4
1138,Right,0,70,80,354.5,0.479167,Sixteenth,A#4
1141,Left,1,63,80,355.0,0.479167,Sixteenth,D#4
1140,Right,0,71,80,355.0,0.479167,Sixteenth,B4
1142,Left,1,61,80,355.5,0.479167,Sixteenth,C#4
1143,Right,0,70,80,355.5,0.479167,Sixteenth,A#4
1144,Right,0,71,80,356.0,0.479167,Sixteenth,B4
1145,Left,1,63,80,356.0,0.479167,Sixteenth,D#4
1146,Right,0,68,80,356.5,0.479167,Sixteenth,G#4
1147,Left,1,59,80,356.5,0.479167,Sixteenth,B3
1148,Left,1,56,80,357.0,0.479167,Sixteenth,G#3
1149,Right,0,65,80,357.0,0.479167,Sixteenth,F4
1151,Right,0,66,80,357.5,0.479167,Sixteenth,F#4
1150,Left,1,58,80,357.5,0.479167,Sixteenth,A#3
1153,Right,0,68,80,358.0,0.979167,Sixteenth,G#4_D5
1152,Left,1,59,80,358.0,0.479167,Sixteenth,B3
1155,Right,0,66,80,358.5,0.479167,Sixteenth,F#4
1156,Left,1,58,80,358.5,0.479167,Sixteenth,A#3
1157,Left,1,59,80,359.0,0.479167,Sixteenth,B3
1158,Right,0,74,80,359.0,0.979167,Eighth,G#4_D5
1161,Right,0,65,80,359.5,0.479167,Sixteenth,F4
1160,Left,1,56,80,359.5,0.479167,Sixteenth,G#3
1163,Right,0,75,80,360.0,1.979167,Quarter,D#5_D#4
1162,Left,1,54,80,360.0,0.479167,Sixteenth,F#3
1166,Right,0,65,80,360.5,0.479167,Sixteenth,F4
1165,Left,1,56,80,360.5,0.479167,Sixteenth,G#3
1168,Right,0,66,80,361.0,0.479167,Sixteenth,F#4
1167,Left,1,58,80,361.0,0.479167,Sixteenth,A#3
1169,Left,1,56,80,361.5,0.479167,Sixteenth,G#3
1170,Right,0,65,80,361.5,0.479167,Sixteenth,F4
1171,Right,0,70,80,362.0,0.979167,Eighth,F#4_A#4
1173,Left,1,58,80,362.0,0.479167,Sixteenth,A#3
1174,Left,1,54,80,362.5,0.479167,Sixteenth,F#3
1175,Right,0,63,80,362.5,0.479167,Sixteenth,D#4
1176,Left,1,53,80,363.0,0.479167,Sixteenth,F3
1177,Right,0,62,80,363.0,0.479167,Sixteenth,D4
1178,Left,1,54,80,363.5,0.479167,Sixteenth,F#3
1179,Right,0,63,80,363.5,0.479167,Sixteenth,D#4
1180,Right,0,65,80,364.0,0.479167,Sixteenth,F4
1181,Left,1,56,80,364.0,0.479167,Sixteenth,G#3
1183,Left,1,54,80,364.5,0.479167,Sixteenth,F#3
1182,Right,0,63,80,364.5,0.479167,Sixteenth,D#4
1184,Right,0,65,80,365.0,0.479167,Sixteenth,F4
1185,Left,1,56,80,365.0,0.479167,Sixteenth,G#3
1186,Left,1,53,80,365.5,0.479167,Sixteenth,F3
1187,Right,0,62,80,365.5,0.479167,Sixteenth,D4
1189,Left,1,54,80,366.0,0.479167,Sixteenth,F#3
1188,Right,0,63,80,366.0,0.479167,Sixteenth,D#4
1190,Left,1,56,80,366.5,0.479167,Sixteenth,G#3
1191,Right,0,65,80,366.5,0.479167,Sixteenth,F4
1193,Right,0,66,80,367.0,0.979167,Sixteenth,F#4_A#4
1192,Left,1,58,80,367.0,0.479167,Sixteenth,A#3
1196,Right,0,65,80,367.5,0.479167,Sixteenth,F4
1195,Left,1,56,80,367.5,0.479167,Sixteenth,G#3
1197,Right,0,66,80,368.0,0.979167,Sixteenth,F#4_A#4
1199,Left,1,58,80,368.0,0.479167,Sixteenth,A#3
1200,Right,0,63,80,368.5,0.479167,Sixteenth,D#4
1201,Left,1,54,80,368.5,0.479167,Sixteenth,F#3
1204,Left,1,50,80,369.0,0.479167,Sixteenth,D3
1202,Right,0,71,80,369.0,1.979167,Quarter,F4_B4
1206,Right,0,66,80,369.5,0.479167,Sixteenth,F#4
1205,Left,1,51,80,369.5,0.479167,Sixteenth,D#3
1207,Left,1,53,80,370.0,0.479167,Sixteenth,F3
1208,Right,0,68,80,370.0,0.479167,Sixteenth,G#4
1209,Left,1,51,80,370.5,0.479167,Sixteenth,D#3
1210,Right,0,66,80,370.5,0.479167,Sixteenth,F#4
1212,Left,1,53,80,371.0,0.479167,Sixteenth,F3
1211,Right,0,68,80,371.0,0.979167,Sixteenth,G#4_A#4
1215,Right,0,65,80,371.5,0.479167,Sixteenth,F4
1214,Left,1,50,80,371.5,0.479167,Sixteenth,D3
1216,Right,0,66,80,372.0,0.479167,Sixteenth,F#4
1217,Left,1,51,80,372.0,0.479167,Sixteenth,D#3
1219,Right,0,68,80,372.5,0.479167,Sixteenth,G#4
1218,Left,1,53,80,372.5,0.479167,Sixteenth,F3
1221,Right,0,70,80,373.0,0.479167,Sixteenth,A#4
1220,Left,1,54,80,373.0,0.479167,Sixteenth,F#3
1222,Left,1,53,80,373.5,0.479167,Sixteenth,F3
1223,Right,0,68,80,373.5,0.479167,Sixteenth,G#4
1224,Left,1,54,80,374.0,0.479167,Sixteenth,F#3
1225,Right,0,70,80,374.0,0.479167,Sixteenth,A#4
1226,Right,0,66,80,374.5,0.479167,Sixteenth,F#4
1227,Left,1,51,80,374.5,0.479167,Sixteenth,D#3
1228,Left,1,48,80,375.0,0.479167,Sixteenth,C3
1229,Right,0,63,80,375.0,0.479167,Sixteenth,D#4
1231,Right,0,65,80,375.5,0.479167,Sixteenth,F4
1230,Left,1,50,80,375.5,0.479167,Sixteenth,D3
1232,Right,0,69,80,376.0,0.979167,Eighth,F#4_A4
1233,Left,1,51,80,376.0,0.479167,Sixteenth,D#3
1235,Right,0,65,80,376.5,0.479167,Sixteenth,F4
1236,Left,1,50,80,376.5,0.479167,Sixteenth,D3
1238,Right,0,66,80,377.0,0.979167,Sixteenth,F#4_A4
1237,Left,1,51,80,377.0,0.479167,Sixteenth,D#3
1241,Right,0,63,80,377.5,0.479167,Sixteenth,D#4
1240,Left,1,47,80,377.5,0.479167,Sixteenth,B2
1242,Right,0,70,80,378.0,6.979167,DottedHalf,D4_A#4
1245,Left,1,48,80,378.5,0.479167,Sixteenth,C3
1244,Right,0,63,80,378.5,0.479167,Sixteenth,D#4
1246,Right,0,65,80,379.0,0.479167,Sixteenth,F4
1247,Left,1,50,80,379.0,0.479167,Sixteenth,D3
1249,Right,0,63,80,379.5,0.479167,Sixteenth,D#4
1248,Left,1,48,80,379.5,0.479167,Sixteenth,C3
1251,Right,0,62,80,380.0,0.479167,Sixteenth,D4
1250,Left,1,46,80,380.0,0.479167,Sixteenth,A#2
1252,Left,1,48,80,380.5,0.479167,Sixteenth,C3
1253,Right,0,63,80,380.5,0.479167,Sixteenth,D#4
1255,Right,0,65,80,381.0,0.479167,Sixteenth,F4
1254,Left,1,50,80,381.0,0.479167,Sixteenth,D3
1256,Left,1,51,80,381.5,0.479167,Sixteenth,D#3
1257,Right,0,66,80,381.5,0.479167,Sixteenth,F#4
1258,Left,1,53,80,382.0,0.479167,Sixteenth,F3
1259,Right,0,68,80,382.0,0.479167,Sixteenth,G#4
1261,Left,1,51,80,382.5,0.479167,Sixteenth,D#3
1260,Right,0,66,80,382.5,0.479167,Sixteenth,F#4
1263,Left,1,50,80,383.0,0.479167,Sixteenth,D3
1262,Right,0,65,80,383.0,0.479167,Sixteenth,F4
1264,Right,0,68,80,383.5,0.479167,Sixteenth,G#4
1265,Left,1,53,80,383.5,0.479167,Sixteenth,F3
1266,Right,0,66,80,384.0,0.479167,Sixteenth,F#4
1267,Left,1,51,80,384.0,0.479167,Sixteenth,D#3
1269,Right,0,65,80,384.5,0.479167,Sixteenth,F4
1268,Left,1,50,80,384.5,0.479167,Sixteenth,D3
1271,Left,1,46,80,385.0,0.979167,Eighth,C3_A#2
1270,Right,0,63,80,385.0,0.979167,Sixteenth,D#4_A4
1275,Right,0,65,80,385.5,0.479167,Sixteenth,F4
1274,Left,1,50,80,385.5,0.479167,Sixteenth,D3
1278,Right,0,66,80,386.0,0.979167,Sixteenth,F#4_A4
1276,Left,1,51,80,386.0,0.979167,Sixteenth,D#3_A#2
1281,Right,0,63,80,386.5,0.479167,Sixteenth,D#4
1280,Left,1,48,80,386.5,0.479167,Sixteenth,C3
1283,Right,0,58,80,387.0,6.979167,Sixteenth,A#4_A#3
1282,Left,1,50,80,387.0,6.979167,Sixteenth,D3_A#2
1287,Left,1,51,80,387.5,0.479167,Sixteenth,D#3
1286,Right,0,60,80,387.5,0.479167,Sixteenth,C4
1288,Right,0,62,80,388.0,0.479167,Sixteenth,D4
1289,Left,1,53,80,388.0,0.479167,Sixteenth,F3
1290,Right,0,60,80,388.5,0.479167,Sixteenth,C4
1291,Left,1,51,80,388.5,0.479167,Sixteenth,D#3
1293,Left,1,50,80,389.0,0.479167,Sixteenth,D3
1292,Right,0,58,80,389.0,0.479167,Sixteenth,A#3
1295,Left,1,51,80,389.5,0.479167,Sixteenth,D#3
1294,Right,0,60,80,389.5,0.479167,Sixteenth,C4
1296,Left,1,53,80,390.0,0.479167,Sixteenth,F3
1297,Right,0,62,80,390.0,0.479167,Sixteenth,D4
1299,Left,1,54,80,390.5,0.479167,Sixteenth,F#3
1298,Right,0,63,80,390.5,0.479167,Sixteenth,D#4
1301,Right,0,65,80,391.0,0.479167,Sixteenth,F4
1300,Left,1,56,80,391.0,0.479167,Sixteenth,G#3
1303,Left,1,54,80,391.5,0.479167,Sixteenth,F#3
1302,Right,0,63,80,391.5,0.479167,Sixteenth,D#4
1304,Left,1,53,80,392.0,0.479167,Sixteenth,F3
1305,Right,0,62,80,392.0,0.479167,Sixteenth,D4
1306,Left,1,56,80,392.5,0.479167,Sixteenth,G#3
1307,Right,0,65,80,392.5,0.479167,Sixteenth,F4
1308,Left,1,54,80,393.0,0.479167,Sixteenth,F#3
1309,Right,0,63,80,393.0,0.479167,Sixteenth,D#4
1311,Left,1,53,80,393.5,0.479167,Sixteenth,F3
1310,Right,0,62,80,393.5,0.479167,Sixteenth,D4
1314,Right,0,60,80,394.0,0.979167,Sixteenth,C4_A4
1312,Left,1,46,80,394.0,0.979167,Eighth,D#3_A#2
1317,Right,0,62,80,394.5,0.479167,Sixteenth,D4
1316,Left,1,53,80,394.5,0.479167,Sixteenth,F3
1319,Right,0,63,80,395.0,0.979167,Sixteenth,D#4_A4
1318,Left,1,46,80,395.0,0.979167,Eighth,F#3_A#2
1322,Right,0,60,80,395.5,0.479167,Sixteenth,C4
1323,Left,1,51,80,395.5,0.479167,Sixteenth,D#3
1325,Right,0,70,80,396.0,1.979167,Quarter,A#4_A#3
1324,Left,1,50,80,396.0,1.979167,Quarter,F3_D3_A#2
1329,Right,0,60,80,396.5,0.479167,Sixteenth,C4
1330,Right,0,62,80,397.0,0.479167,Sixteenth,D4
1331,Right,0,61,80,397.5,0.479167,Sixteenth,C#4
1332,Right,0,62,80,398.0,0.479167,Sixteenth,D4
1333,Right,0,58,80,398.5,0.479167,Sixteenth,A#3
1334,Right,0,62,80,399.0,0.479167,Sixteenth,D4
1335,Right,0,64,80,399.5,0.479167,Sixteenth,E4
1336,Right,0,65,80,400.0,0.479167,Sixteenth,F4
1337,Right,0,64,80,400.5,0.479167,Sixteenth,E4
1338,Right,0,65,80,401.0,0.479167,Sixteenth,F4
1339,Right,0,62,80,401.5,0.479167,Sixteenth,D4
1340,Right,0,65,80,402.0,0.479167,Sixteenth,F4
1341,Right,0,67,80,402.5,0.479167,Sixteenth,G4
1342,Right,0,68,80,403.0,0.479167,Sixteenth,G#4
1343,Right,0,67,80,403.5,0.479167,Sixteenth,G4
1344,Right,0,68,80,404.0,0.479167,Sixteenth,G#4
1345,Right,0,65,80,404.5,0.479167,Sixteenth,F4
1346,Right,0,68,80,405.0,0.479167,Sixteenth,G#4
1347,Right,0,71,80,405.5,0.479167,Sixteenth,B4
1348,Right,0,72,80,406.0,0.479167,Sixteenth,C5
1349,Right,0,71,80,406.5,0.479167,Sixteenth,B4
1350,Right,0,74,80,407.0,0.479167,Sixteenth,D5
1351,Right,0,72,80,407.5,0.479167,Sixteenth,C5
1352,Right,0,70,80,408.0,0.479167,Sixteenth,A#4
1353,Right,0,68,80,408.5,0.479167,Sixteenth,G#4
1354,Right,0,67,80,409.0,0.479167,Sixteenth,G4
1355,Right,0,65,80,409.5,0.479167,Sixteenth,F4
1356,Right,0,64,80,410.0,0.479167,Sixteenth,E4
1357,Right,0,65,80,410.5,0.479167,Sixteenth,F4
1358,Right,0,67,80,411.0,0.479167,Sixteenth,G4
1359,Right,0,65,80,411.5,0.479167,Sixteenth,F4
1360,Right,0,68,80,412.0,0.479167,Sixteenth,G#4
1361,Right,0,65,80,412.5,0.479167,Sixteenth,F4
1362,Right,0,60,80,413.0,0.479167,Sixteenth,C4
1363,Right,0,62,80,413.5,0.479167,Sixteenth,D4
1366,Right,0,63,80,414.0,1.979167,Quarter,D#4
1364,Left,1,51,70,414.0,0.979167,Eighth,G3_D#3_A#3
1368,Left,1,55,70,415.0,0.979167,Eighth,G3_D#3_A#3
1371,Left,1,51,70,416.0,0.979167,Eighth,G3_D#3_A#3
1374,Left,1,55,70,417.0,0.979167,Eighth,G3_D#3_A#3
1377,Left,1,55,70,418.0,0.979167,Eighth,G3_D#3_A#3
1380,Left,1,58,70,419.0,0.979167,Eighth,G3_D#3_A#3
1383,Left,1,58,70,420.0,0.979167,Eighth,G3_D#3_A#3
1386,Right,0,67,80,420.0,0.979167,Eighth,G4
1390,Right,0,68,80,421.0,0.104167,SixtyFourth,G#4
1387,Left,1,58,70,421.0,0.979167,Eighth,G3_D#3_A#3
1391,Right,0,67,80,421.114583,0.375,TripletSixteenth,G4
1392,Right,0,65,80,421.5,0.479167,Sixteenth,F4
1396,Right,0,67,80,422.0,0.479167,Sixteenth,G4
1393,Left,1,51,70,422.0,0.979167,Eighth,G3_D#3_A#3
1397,Right,0,68,80,422.5,0.479167,Sixteenth,G#4
1398,Right,0,69,80,423.0,2.979167,DottedQuarter,A4
1399,Left,1,58,70,423.0,0.979167,Eighth,G3_D#3_A#3
1402,Left,1,51,70,424.0,0.979167,Eighth,G3_D#3_A#3
1405,Left,1,55,70,425.0,0.979167,Eighth,G3_D#3_A#3
1411,Right,0,70,80,426.0,3.979167,Half,A#4
1408,Left,1,55,70,426.0,0.979167,Eighth,G3_D#3_A#3
1412,Left,1,55,70,427.0,0.979167,Eighth,G3_D#3_A#3
1415,Left,1,51,70,428.0,0.979167,Eighth,G3_D#3_A#3
1418,Left,1,55,70,429.0,0.979167,Eighth,G3_D#3_A#3
1421,Left,1,55,70,430.0,0.979167,Eighth,G3_D#3_A#3
1423,Right,0,72,80,430.0,0.104167,SixtyFourth,C5
1425,Right,0,70,80,430.114583,0.375,TripletSixteenth,A#4
1426,Right,0,69,80,430.5,0.479167,Sixteenth,A4
1430,Right,0,70,80,431.0,0.479167,Sixteenth,A#4
1427,Left,1,55,70,431.0,0.979167,Eighth,G3_D#3_A#3
1431,Right,0,71,80,431.5,0.479167,Sixteenth,B4
1432,Right,0,71,80,432.0,0.979167,Eighth,B4
1433,Left,1,58,70,432.0,0.979167,Eighth,G#3_D3_A#3
1439,Right,0,72,80,433.0,0.479167,Sixteenth,C5
1436,Left,1,58,70,433.0,0.979167,Eighth,G#3_D3_A#3
1440,Right,0,71,80,433.25,0.479167,Sixteenth,B4
1441,Right,0,69,80,433.5,0.479167,Sixteenth,A4
1442,Right,0,71,80,433.75,0.479167,Sixteenth,B4
1443,Right,0,74,80,434.0,0.729167,DottedSixteenth,D5
1444,Left,1,58,70,434.0,0.979167,Eighth,G#3_D3_A#3
1447,Right,0,72,80,434.75,0.229167,ThirtySecond,C5
1448,Right,0,65,80,435.0,3.979167,Half,F4
1449,Left,1,58,70,435.0,0.979167,Eighth,G#3_D3_A#3
1452,Left,1,58,70,436.0,0.979167,Eighth,G#3_D3_A#3
1455,Left,1,58,70,437.0,0.979167,Eighth,G#3_D3_A#3
1458,Left,1,58,70,438.0,0.979167,Eighth,G#3_D3_A#3
1462,Left,1,50,70,439.0,0.979167,Eighth,G#3_D3_A#3
1461,Right,0,67,80,439.0,0.104167,SixtyFourth,G4
1465,Right,0,65,80,439.114583,0.364583,TripletSixteenth,F4
1466,Right,0,64,80,439.5,0.479167,Sixteenth,E4
1468,Right,0,65,80,440.0,0.479167,Sixteenth,F4
1467,Left,1,56,70,440.0,0.979167,Eighth,G#3_D3_A#3
1471,Right,0,67,80,440.5,0.479167,Sixteenth,G4
1472,Left,1,58,70,441.0,0.979167,Eighth,G#3_F3_D3_A#3
1473,Right,0,68,80,441.0,3.479167,DottedQuarter,G#4
1477,Left,1,50,70,442.0,0.979167,Eighth,G#3_F3_D3_A#3
1481,Left,1,50,70,443.0,0.979167,Eighth,G#3_F3_D3_A#3
1485,Left,1,50,70,444.0,0.979167,Eighth,G#3_F3_D3_A#3
1489,Right,0,67,80,444.25,0.479167,Sixteenth,G4
1490,Right,0,65,81,444.5,0.479167,Sixteenth,F4
1491,Right,0,64,82,444.75,0.479167,Sixteenth,E4
1493,Right,0,65,83,445.0,0.479167,Sixteenth,F4
1492,Left,1,56,70,445.0,0.979167,Eighth,G#3_F3_D3_A#3
1497,Right,0,67,85,445.25,0.479167,Sixteenth,G4
1498,Right,0,68,86,445.5,0.479167,Sixteenth,G#4
1499,Right,0,70,87,445.75,0.479167,Sixteenth,A#4
1500,Left,1,53,70,446.0,0.979167,Eighth,G#3_F3_D3_A#3
1504,Right,0,72,89,446.0,0.479167,Sixteenth,C5
1505,Right,0,74,90,446.25,0.479167,Sixteenth,D5
1506,Right,0,75,91,446.5,0.479167,Sixteenth,D#5
1507,Right,0,76,93,446.75,0.479167,Sixteenth,E5
1509,Right,0,77,94,447.0,0.479167,Sixteenth,F5
1508,Left,1,53,70,447.0,0.979167,Eighth,G#3_F3_D3_A#3
1513,Right,0,79,95,447.25,0.479167,Sixteenth,G5
1514,Right,0,80,96,447.5,0.479167,Sixteenth,G#5
1515,Right,0,82,98,447.75,0.479167,Sixteenth,A#5
1516,Left,1,58,70,448.0,0.979167,Eighth,G#3_F3_D3_A#3
1520,Right,0,84,99,448.0,0.479167,Sixteenth,C6
1521,Right,0,82,100,448.25,0.479167,Sixteenth,A#5
1522,Right,0,86,102,448.5,0.479167,Sixteenth,D6
1523,Right,0,84,103,448.75,0.479167,Sixteenth,C6
1525,Left,1,56,70,449.0,0.979167,Eighth,G#3_F3_D3_A#3
1524,Right,0,82,104,449.0,0.479167,Sixteenth,A#5
1529,Right,0,80,106,449.25,0.479167,Sixteenth,G#5
1530,Right,0,79,107,449.5,0.479167,Sixteenth,G5
1531,Right,0,77,108,449.75,0.479167,Sixteenth,F5
1534,Right,0,78,109,450.0,2.979167,DottedQuarter,F#5
1532,Left,1,58,70,450.0,0.979167,Eighth,G#3_D#3_A#3
1536,Left,1,58,70,451.0,0.979167,Eighth,G#3_D#3_A#3
1539,Left,1,51,70,452.0,0.979167,Eighth,G#3_D#3_A#3
1543,Right,0,79,80,453.0,3.479167,DottedQuarter,G5
1542,Left,1,58,70,453.0,0.979167,Eighth,G3_D#3_A#3
1546,Left,1,58,70,454.0,0.979167,Eighth,G3_D#3_A#3
1549,Left,1,55,70,455.0,0.979167,Eighth,G3_D#3_A#3
1552,Left,1,51,70,456.0,0.979167,Eighth,D#3
1553,Right,0,63,80,456.5,0.479167,Sixteenth,D#4
1555,Right,0,67,80,457.0,0.479167,Sixteenth,G4
1554,Left,1,46,70,457.0,0.979167,Eighth,A#2
1556,Right,0,70,80,457.5,0.479167,Sixteenth,A#4
1557,Right,0,75,80,458.0,0.479167,Sixteenth,D#5
1558,Left,1,44,70,458.0,0.979167,Eighth,G#2
1559,Right,0,79,80,458.5,0.479167,Sixteenth,G5
1561,Left,1,43,70,459.0,0.979167,Eighth,G2
1560,Right,0,82,80,459.0,3.479167,DottedQuarter,A#5
1562,Left,1,43,70,460.0,0.979167,Eighth,G2_D#3_A#2
1565,Left,1,43,70,461.0,0.979167,Eighth,G2_D#3_A#2
1568,Left,1,43,70,462.0,0.979167,Eighth,G2_D#3_A#2
1571,Right,0,78,80,462.5,0.479167,Sixteenth,F#5
1572,Left,1,51,70,463.0,0.979167,Eighth,G2_D#3_A#2
1573,Right,0,79,80,463.0,0.479167,Sixteenth,G5
1576,Right,0,74,80,463.5,0.479167,Sixteenth,D5
1579,Right,0,75,80,464.0,0.479167,Sixteenth,D#5
1577,Left,1,46,70,464.0,0.979167,Eighth,G2_D#3_A#2
1581,Right,0,69,80,464.5,0.479167,Sixteenth,A4
1583,Right,0,70,80,465.0,0.479167,Sixteenth,A#4
1582,Left,1,51,70,465.0,0.979167,Eighth,G2_D#3_A#2
1586,Right,0,66,80,465.5,0.479167,Sixteenth,F#4
1588,Left,1,46,70,466.0,0.979167,Eighth,G2_D#3_A#2
1587,Right,0,67,80,466.0,0.479167,Sixteenth,G4
1591,Right,0,62,80,466.5,0.479167,Sixteenth,D4
1595,Right,0,63,80,467.0,0.479167,Sixteenth,D#4
1592,Left,1,51,70,467.0,0.979167,Eighth,G2_D#3_A#2
1596,Right,0,67,80,467.5,0.479167,Sixteenth,G4
1597,Left,1,44,70,468.0,0.979167,Eighth,G#2_D#3_C3
1599,Right,0,67,80,468.0,0.979167,Eighth,G4
1601,Right,0,60,80,469.0,2.979167,DottedQuarter,C4
1602,Left,1,44,70,469.0,0.979167,Eighth,G#2_D#3_C3
1605,Left,1,44,70,470.0,0.979167,Eighth,G#2_D#3_C3
1608,Left,1,52,70,471.0,0.979167,Eighth,G#2_E3_C3
1611,Right,0,72,80,472.0,2.979167,DottedQuarter,C5
1612,Left,1,52,70,472.0,0.979167,Eighth,G#2_E3_C3
1615,Left,1,44,70,473.0,0.979167,Eighth,G#2_E3_C3
1618,Left,1,44,70,474.0,0.979167,Eighth,G#2_F3_C3
1621,Left,1,44,70,475.0,0.979167,Eighth,G#2_F3_C3
1624,Right,0,84,80,475.0,0.479167,Sixteenth,C6
1625,Right,0,83,80,475.25,0.479167,Sixteenth,B5
1626,Right,0,86,80,475.5,0.479167,Sixteenth,D6
1627,Right,0,84,80,475.75,0.479167,Sixteenth,C6
1629,Left,1,53,70,476.0,0.979167,Eighth,G#2_F3_C3
1628,Right,0,82,80,476.0,0.479167,Sixteenth,A#5
1632,Right,0,80,80,476.25,0.479167,Sixteenth,G#5
1633,Right,0,79,80,476.5,0.479167,Sixteenth,G5
1634,Right,0,77,80,476.75,0.239583,ThirtySecond,F5
1635,Right,0,77,80,477.0,1.354167,DottedEighth,F5
1636,Left,1,46,70,477.0,0.979167,Eighth,G3_D#3_A#2
1639,Left,1,55,70,478.0,0.979167,Eighth,G3_D#3_A#2
1642,Right,0,75,80,478.0,2.979167,DottedQuarter,D#5
1643,Left,1,55,70,479.0,0.979167,Eighth,G3_D#3_A#2
1646,Left,1,55,70,480.0,0.979167,Eighth,G3_D#3_A#2
1652,Right,0,75,80,481.0,0.979167,Eighth,D#5
1649,Left,1,51,70,481.0,0.979167,Eighth,G3_D#3_A#2
1653,Right,0,75,80,482.0,0.979167,Eighth,D#5
1654,Left,1,55,70,482.0,0.979167,Eighth,G3_D#3_A#2
1658,Left,1,46,70,483.0,0.979167,Eighth,G#3_F3_A#2
1657,Right,0,75,80,483.0,0.239583,ThirtySecond,D#5
1661,Right,0,77,80,483.125,0.239583,ThirtySecond,F5
1662,Right,0,75,80,483.25,0.239583,ThirtySecond,D#5
1663,Right,0,77,80,483.375,0.239583,ThirtySecond,F5
1664,Right,0,75,80,483.5,0.239583,ThirtySecond,D#5
1665,Right,0,77,80,483.625,0.239583,ThirtySecond,F5
1666,Right,0,74,80,483.75,0.239583,ThirtySecond,D5
1667,Right,0,75,80,483.875,0.239583,ThirtySecond,D#5
1668,Right,0,77,80,484.0,1.479167,DottedEighth,F5
1669,Left,1,56,70,484.0,0.979167,Eighth,G#3_F3_A#2
1672,Left,1,46,70,485.0,0.979167,Eighth,G#3_F3_A#2
1675,Right,0,74,80,485.0,0.979167,Eighth,D5
1677,Left,1,51,80,486.0,1.979167,Quarter,G3_D#3
1676,Right,0,75,80,486.0,0.979167,Eighth,D#5
1679,Right,0,70,80,487.0,0.979167,Eighth,A#4
1680,Right,0,70,80,488.0,0.979167,Eighth,A#4
1681,Right,0,70,80,489.0,0.979167,Eighth,A#4
1682,Right,0,72,80,490.0,0.979167,Eighth,C5
1683,Right,0,68,80,491.0,0.979167,Eighth,G#4
1684,Left,1,46,80,492.0,2.979167,DottedQuarter,A#3_A#2
1685,Right,0,63,80,492.0,1.979167,Quarter,G4_D#4
1688,Right,0,68,80,493.0,0.979167,Eighth,G#4
1689,Right,0,65,80,494.0,0.979167,Eighth,F4_D4
1690,Left,1,56,80,494.0,0.979167,Eighth,G#3
1693,Right,0,63,80,495.0,0.979167,Eighth,D#4
1692,Left,1,55,80,495.0,1.979167,Quarter,G3_D#3
1695,Right,0,58,80,496.0,0.979167,Eighth,A#3
1696,Right,0,58,80,497.0,0.979167,Eighth,A#3
1697,Right,0,58,80,498.0,0.229167,ThirtySecond,A#3
1698,Right,0,60,80,498.125,0.229167,ThirtySecond,C4
1699,Right,0,58,80,498.25,0.229167,ThirtySecond,A#3
1700,Right,0,60,80,498.375,0.229167,ThirtySecond,C4
1701,Right,0,58,80,498.5,0.229167,ThirtySecond,A#3
1702,Right,0,60,80,498.625,0.229167,ThirtySecond,C4
1703,Right,0,57,80,498.75,0.229167,ThirtySecond,A3
1704,Right,0,58,80,498.875,0.229167,ThirtySecond,A#3
1705,Right,0,60,80,499.0,0.979167,Eighth,C4
1706,Right,0,56,80,500.0,0.979167,Eighth,G#3
1708,Left,1,34,80,501.0,2.979167,DottedQuarter,A#2_A#1
1707,Right,0,51,80,501.0,1.979167,Quarter,G3_D#3
1711,Right,0,56,80,501.125,0.229167,ThirtySecond,G#3
1712,Right,0,55,80,501.25,0.229167,ThirtySecond,G3
1713,Right,0,56,80,501.375,0.229167,ThirtySecond,G#3
1714,Right,0,55,80,501.5,0.229167,ThirtySecond,G3
1715,Right,0,56,80,501.625,0.229167,ThirtySecond,G#3
1716,Right,0,53,80,501.75,0.229167,ThirtySecond,F3
1717,Right,0,55,80,501.875,0.229167,ThirtySecond,G3
1718,Right,0,56,80,502.0,0.979167,Eighth,G#3
1720,Left,1,44,80,503.0,0.979167,Eighth,G#2
1719,Right,0,50,80,503.0,0.979167,Eighth,F3_D3
1724,Right,0,51,80,504.0,0.979167,Eighth,D#3
1722,Left,1,39,80,504.0,1.979167,Quarter,G2_D#2
1725,Right,0,55,80,505.0,0.979167,Eighth,G3
1726,Right,0,58,80,506.0,0.979167,Eighth,A#3
1727,Right,0,55,80,507.0,0.979167,Eighth,G3
1728,Right,0,58,80,508.0,0.979167,Eighth,A#3
1729,Right,0,63,80,509.0,0.979167,Eighth,D#4
1730,Right,0,58,80,510.0,0.979167,Eighth,A#3
1731,Right,0,63,80,511.0,0.979167,Eighth,D#4
1732,Right,0,67,80,512.0,0.979167,Eighth,G4
1734,Right,0,55,80,513.0,3.979167,Half,G4_G3_D#4_A#3
1733,Left,1,39,80,513.0,0.979167,Eighth,D#2
1738,Left,1,43,80,514.0,0.979167,Eighth,G2
1739,Left,1,46,80,515.0,0.979167,Eighth,A#2
1740,Left,1,51,80,516.0,0.979167,Eighth,D#3
1741,Left,1,55,80,517.0,0.979167,Eighth,G3
1742,Right,0,67,80,517.0,0.979167,Eighth,G4_D#4_A#3
1747,Left,1,58,80,518.0,0.979167,Eighth,A#3
1745,Right,0,67,80,518.0,0.979167,Eighth,G4_D#4
1748,Right,0,67,80,519.0,0.979167,ThirtySecond,G4_D#4
1750,Left,1,58,80,519.0,1.979167,Quarter,A#3
1751,Right,0,68,80,519.125,0.229167,ThirtySecond,G#4
1752,Right,0,67,80,519.25,0.229167,ThirtySecond,G4
1753,Right,0,68,80,519.375,0.229167,ThirtySecond,G#4
1754,Right,0,67,80,519.5,0.229167,ThirtySecond,G4
1755,Right,0,68,80,519.625,0.229167,ThirtySecond,G#4
1756,Right,0,65,80,519.75,0.229167,ThirtySecond,F4
1757,Right,0,67,80,519.875,0.229167,ThirtySecond,G4
1758,Right,0,65,80,520.0,0.979167,Eighth,G#4_F4
1760,Left,1,46,80,521.0,0.979167,Eighth,G#3_A#2
1762,Right,0,62,80,521.0,0.979167,Eighth,F4_D4_A#3
1768,Left,1,56,80,522.0,2.979167,DottedQuarter,G#3_D#3
1765,Right,0,65,80,522.0,2.979167,DottedQuarter,F4_D4_A#3
1770,Right,0,58,80,525.0,1.979167,Quarter,D#4_A#3
1771,Left,1,55,80,525.0,1.979167,Quarter,G3_D#3
1774,Right,0,58,80,528.0,0.979167,Eighth,F#3_A#3
1776,Right,0,63,80,529.0,0.979167,Eighth,D#4_A#3
1778,Right,0,66,80,530.0,0.979167,Eighth,F#4_D#4
1780,Right,0,66,80,531.0,6.979167,DottedHalf,F#4_A#4
1781,Left,1,39,80,531.0,0.979167,Eighth,D#2
1783,Left,1,42,80,532.0,0.979167,Eighth,F#2
1784,Left,1,46,80,533.0,0.979167,Eighth,A#2
1785,Left,1,51,80,534.0,0.979167,Eighth,D#3
1787,Right,0,75,80,535.0,0.979167,Eighth,D#5
1786,Left,1,54,80,535.0,0.979167,Eighth,F#3
1788,Left,1,58,80,536.0,0.979167,Eighth,A#3
1789,Right,0,75,80,536.0,0.979167,Eighth,D#5
1790,Left,1,63,80,537.0,0.979167,Eighth,D#4
1791,Right,0,75,80,537.0,0.979167,Eighth,D#5
1792,Left,1,59,80,538.0,0.979167,Eighth,B3
1793,Right,0,68,80,538.0,0.979167,Eighth,G#4_D#5
1795,Left,1,58,80,539.0,0.979167,Eighth,A#3
1796,Right,0,66,80,539.0,0.979167,Eighth,F#4_D#5_A#4
1799,Right,0,75,80,540.0,2.979167,DottedQuarter,F4_D#5_B4
1802,Left,1,56,80,540.0,2.979167,DottedQuarter,G#3
1803,Right,0,73,80,542.0,0.979167,Eighth,C#5
1804,Left,1,53,80,543.0,2.979167,DottedQuarter,F3
1805,Right,0,68,80,544.0,1.979167,Quarter,G#4_D#5_B4
1808,Right,0,73,80,545.0,0.979167,Eighth,C#5
1809,Left,1,54,80,546.0,2.979167,DottedQuarter,F#3
1810,Right,0,75,80,547.0,1.979167,Quarter,F#4_D#5_A#4
1813,Right,0,73,80,548.0,0.979167,Eighth,C#5
1814,Left,1,47,80,549.0,2.979167,DottedQuarter,B2
1815,Right,0,68,80,550.0,1.979167,Quarter,G#4_D#4_C#5
1818,Right,0,71,80,551.0,0.979167,Eighth,B4
1819,Left,1,49,80,552.0,2.979167,DottedQuarter,C#3
1820,Right,0,66,80,553.0,1.979167,Quarter,F#4_C#4_B4
1823,Right,0,70,80,554.0,0.979167,Eighth,A#4
1824,Left,1,37,80,555.0,2.979167,DottedQuarter,C#2
1825,Right,0,65,80,556.0,1.979167,Quarter,F4_B3_A#4
1828,Right,0,68,80,557.0,0.979167,Eighth,G#4
1829,Right,0,65,80,558.0,2.979167,DottedQuarter,G#4_F4_B3
1831,Left,1,38,80,558.0,2.979167,DottedQuarter,D2
1833,Right,0,58,80,560.0,0.979167,Eighth,A#3
1834,Left,1,50,80,561.0,2.979167,DottedQuarter,D3
1835,Right,0,65,80,562.0,1.979167,Quarter,G#4_F4_B3
1838,Right,0,58,80,563.0,0.979167,Eighth,A#3
1839,Left,1,51,80,564.0,2.979167,DottedQuarter,D#3
1840,Right,0,66,80,565.0,1.979167,Quarter,F#4_D#4_B3
1843,Right,0,58,80,566.0,0.979167,Eighth,A#3
1844,Left,1,44,80,567.0,2.979167,DottedQuarter,G#2
1845,Right,0,56,80,568.0,1.979167,Quarter,G#3_F#4_B3
1848,Right,0,64,80,569.0,0.979167,Eighth,E4
1849,Left,1,45,80,570.0,2.979167,DottedQuarter,A2
1850,Right,0,60,80,571.0,1.979167,Quarter,F#3_E4_C4
1853,Right,0,63,80,572.0,0.979167,Eighth,D#4
1854,Left,1,46,80,573.0,2.979167,DottedQuarter,A#2
1855,Right,0,53,80,574.0,1.979167,Quarter,G#3_F3_D#4
1858,Right,0,62,80,575.0,0.979167,Eighth,D4
1859,Right,0,55,80,576.0,1.979167,Quarter,G3_D#4
1861,Left,1,39,80,576.0,8.979167,Whole,D#2
1862,Left,1,51,80,577.0,0.979167,Eighth,D#3
1863,Left,1,51,80,578.0,0.979167,Eighth,D#3
1864,Left,1,51,80,579.0,0.979167,Eighth,D#3
1865,Left,1,51,80,580.0,0.979167,Eighth,D#3
1866,Left,1,51,80,581.0,0.979167,Eighth,D#3
1868,Right,0,79,80,582.0,1.979167,Quarter,G5
1867,Left,1,51,80,582.0,0.979167,Eighth,D#3
1869,Left,1,51,80,583.0,0.979167,Eighth,D#3
1870,Right,0,77,80,584.0,0.8125,DottedSixteenth,F5
1871,Left,1,51,80,584.0,0.979167,Eighth,D#3
1872,Right,0,75,80,584.5,0.479167,Sixteenth,D#5
1875,Left,1,51,80,585.0,0.979167,Eighth,D#3
1873,Right,0,68,80,585.0,1.979167,Quarter,G#4_F4_D#5
1878,Left,1,51,80,586.0,0.979167,Eighth,D#3
1877,Right,0,74,80,586.0,0.979167,Eighth,D5
1879,Left,1,63,80,587.0,0.979167,Sixteenth,D#4_D#3
1880,Right,0,72,80,587.0,0.979167,Sixteenth,G#4_C5
1884,Left,1,62,80,587.5,0.479167,Sixteenth,D4
1883,Right,0,70,80,587.5,0.479167,Sixteenth,A#4
1885,Right,0,70,80,588.0,5.979167,Half,G#4_A#4
1886,Left,1,62,80,588.0,1.979167,Quarter,D4_D#3
1889,Left,1,51,80,589.0,0.979167,Eighth,D#3
1890,Left,1,51,80,590.0,0.979167,Eighth,D#3_C4
1892,Left,1,58,80,590.5,0.479167,Sixteenth,A#3
1893,Left,1,58,80,591.0,1.479167,DottedEighth,D#3_A#3
1896,Left,1,51,80,592.0,0.979167,Eighth,D#3
1895,Right,0,72,80,592.0,0.979167,Eighth,C5
1897,Left,1,56,80,592.5,0.479167,Sixteenth,G#3
1899,Left,1,55,80,593.0,0.979167,Sixteenth,G3_D#3
1898,Right,0,74,80,593.0,0.979167,Eighth,D5
1901,Left,1,56,80,593.5,0.479167,Sixteenth,G#3
1902,Right,0,75,80,594.0,0.479167,Sixteenth,D#5
1903,Left,1,55,80,594.0,1.979167,Quarter,G3_D#3
1905,Right,0,75,80,594.666667,0.3125,TripletSixteenth,D#5
1906,Right,0,74,80,594.833333,0.3125,TripletSixteenth,D5
1907,Left,1,51,80,595.0,0.979167,Eighth,D#3
1908,Right,0,75,80,595.0,0.479167,Sixteenth,D#5
1909,Right,0,77,80,595.5,0.479167,Sixteenth,F5
1910,Left,1,51,80,596.0,0.979167,Eighth,D#3
1911,Right,0,79,80,596.0,0.479167,Sixteenth,G5
1912,Right,0,80,80,596.5,0.479167,Sixteenth,G#5
1913,Left,1,51,80,597.0,0.979167,Eighth,D#3
1914,Right,0,79,80,597.0,0.104167,SixtyFourth,G5
1915,Right,0,82,80,597.114583,2.864583,DottedQuarter,A#5
1916,Left,1,51,80,598.0,0.979167,Eighth,D#3
1917,Left,1,51,80,599.0,0.979167,Eighth,D#3
1919,Left,1,51,80,600.0,0.979167,Eighth,D#3
1918,Right,0,81,80,600.0,0.479167,Sixteenth,A5
1920,Right,0,82,80,600.5,0.479167,Sixteenth,A#5
1921,Right,0,84,80,601.0,0.479167,Sixteenth,C6
1922,Left,1,51,80,601.0,0.979167,Eighth,D#3
1923,Right,0,82,80,601.5,0.479167,Sixteenth,A#5
1924,Left,1,51,80,602.0,0.979167,Eighth,D#3
1925,Right,0,80,80,602.0,0.479167,Sixteenth,G#5
1926,Right,0,79,80,602.5,0.479167,Sixteenth,G5
1927,Right,0,72,80,603.0,1.979167,Quarter,G5_G#4_C5
1929,Left,1,51,80,603.0,0.979167,Eighth,D#3
1932,Right,0,77,80,604.0,0.989583,Eighth,F5
1931,Left,1,51,80,604.0,0.979167,Eighth,D#3
1933,Left,1,51,80,605.0,0.979167,Eighth,D#3
1934,Right,0,67,80,605.0,0.479167,Sixteenth,G4_D#5_A#4
1937,Right,0,74,80,605.5,0.479167,Sixteenth,G#4_F4_D5
1940,Right,0,65,80,606.0,1.979167,Quarter,G#4_F4_D5
1942,Left,1,51,80,606.0,0.979167,Eighth,D#3
1944,Left,1,51,80,607.0,0.979167,Eighth,D#3
1945,Right,0,68,80,608.0,0.979167,Eighth,G#4_C5
1946,Left,1,51,80,608.0,0.979167,Eighth,D#4_D#3
1949,Right,0,70,80,608.5,0.479167,Sixteenth,A#4
1950,Left,1,62,80,608.5,0.479167,Sixteenth,D4
1951,Right,0,70,80,609.0,2.979167,Eighth,G#4_A#4
1953,Left,1,62,80,609.0,0.979167,Sixteenth,D4_D#3
1955,Left,1,60,80,609.5,0.479167,Sixteenth,C4
1956,Right,0,72,80,610.0,0.979167,Eighth,C5
1957,Left,1,51,80,610.0,0.979167,Eighth,D#3_A#3
1959,Left,1,56,80,610.5,0.479167,Sixteenth,G#3
1961,Right,0,74,80,611.0,0.979167,Eighth,D5
1960,Left,1,51,80,611.0,0.979167,Eighth,G3_D#3
1963,Left,1,53,80,611.5,0.479167,Sixteenth,F3
1965,Right,0,67,80,612.0,0.979167,Eighth,G4_D#5
1964,Left,1,51,80,612.0,1.979167,Quarter,D#3
1967,Right,0,78,80,613.0,0.979167,Eighth,F#5
1968,Right,0,79,80,614.0,0.979167,Eighth,G5
1969,Left,1,58,80,615.0,1.979167,Quarter,G3_D#4_A#3
1972,Right,0,81,80,616.0,0.979167,Eighth,A5
1973,Right,0,82,80,617.0,0.979167,Eighth,A#5
1974,Left,1,67,80,618.0,1.979167,Quarter,G4_D#5_A#4
1977,Right,0,86,80,619.0,0.979167,Eighth,D6
1978,Right,0,87,80,620.0,0.979167,Eighth,D#6
1979,Left,1,68,80,621.0,1.979167,Quarter,G#4_D#5_C5
1982,Right,0,83,80,622.0,0.979167,Eighth,B5
1983,Right,0,84,80,623.0,0.979167,Eighth,C6
1984,Left,1,63,80,624.0,1.979167,Quarter,G#3_D#4_C4
1987,Right,0,71,80,625.0,0.979167,Eighth,B4
1988,Right,0,72,80,626.0,0.979167,Eighth,C5
1989,Left,1,63,80,627.0,1.979167,Quarter,D#4_C4_A3
1992,Right,0,64,80,628.0,0.979167,Eighth,E4
1993,Right,0,65,80,629.0,0.979167,Eighth,F4
1994,Left,1,58,80,630.0,5.979167,DottedHalf,A#3
1997,Right,0,70,80,631.0,2.489583,TiedQuarter-Sixteenth,A#4
1995,Left,1,67,80,631.0,0.979167,Eighth,G4_D#4
1998,Left,1,67,80,632.0,0.979167,Eighth,G4_D#4
2000,Left,1,67,80,633.0,0.979167,Eighth,G4_D#4
2002,Right,0,72,80,633.5,0.489583,Sixteenth,C5
2003,Right,0,74,84,633.75,0.489583,Sixteenth,D5
2004,Right,0,75,89,634.0,0.489583,Sixteenth,D#5
2005,Left,1,67,80,634.0,0.979167,Eighth,G4_D#4
2007,Right,0,77,94,634.25,0.489583,Sixteenth,F5
2008,Right,0,79,99,634.5,0.489583,Sixteenth,G5
2009,Right,0,80,104,634.75,0.489583,Sixteenth,G#5
2012,Right,0,82,109,635.0,1.979167,Quarter,A#5
2010,Left,1,63,80,635.0,0.979167,Eighth,G4_D#4
2013,Left,1,68,80,636.0,2.979167,Eighth,G#4_D4_A#3
2016,Left,1,62,80,637.0,0.979167,Eighth,G#4_D4
2017,Right,0,80,100,637.0,0.989583,Eighth,G#5
2021,Right,0,77,100,638.0,0.989583,Eighth,F5
2019,Left,1,68,80,638.0,0.979167,Eighth,G#4_D4
2022,Left,1,63,80,639.0,1.979167,Quarter,G4_D#4
2024,Right,0,75,100,639.0,1.489583,DottedEighth,D#5
2025,Right,0,74,80,640.25,0.489583,Sixteenth,D5
2026,Right,0,79,80,640.5,0.489583,Sixteenth,G5
2027,Right,0,77,80,640.75,0.489583,Sixteenth,F5
2028,Right,0,75,80,641.0,0.489583,Sixteenth,D#5
2029,Right,0,74,80,641.25,0.489583,Sixteenth,D5
2030,Right,0,72,80,641.5,0.489583,Sixteenth,C5
2031,Right,0,70,80,641.75,0.489583,Sixteenth,A#4
2032,Right,0,69,80,642.0,0.489583,Sixteenth,A4
2033,Right,0,70,80,642.25,0.479167,Sixteenth,A#4
2034,Right,0,75,80,642.5,0.479167,Sixteenth,D#5
2035,Right,0,74,80,642.75,0.479167,Sixteenth,D5
2036,Right,0,72,80,643.0,0.479167,Sixteenth,C5
2037,Right,0,70,80,643.25,0.479167,Sixteenth,A#4
2038,Right,0,68,80,643.5,0.479167,Sixteenth,G#4
2039,Right,0,67,80,643.75,0.479167,Sixteenth,G4
2040,Right,0,66,80,644.0,0.479167,Sixteenth,F#4
2041,Right,0,67,80,644.25,0.479167,Sixteenth,G4
2042,Right,0,72,80,644.5,0.479167,Sixteenth,C5
2043,Right,0,70,80,644.75,0.479167,Sixteenth,A#4
2044,Right,0,68,80,645.0,0.479167,Sixteenth,G#4
2045,Right,0,67,80,645.25,0.479167,Sixteenth,G4
2046,Right,0,65,80,645.5,0.479167,Sixteenth,F4
2047,Right,0,63,80,645.75,0.479167,Sixteenth,D#4
2048,Right,0,62,80,646.0,0.479167,Sixteenth,D4
2049,Right,0,63,80,646.25,0.479167,Sixteenth,D#4
2050,Right,0,68,80,646.5,0.479167,Sixteenth,G#4
2051,Right,0,67,80,646.75,0.479167,Sixteenth,G4
2052,Right,0,65,80,647.0,0.479167,Sixteenth,F4
2053,Right,0,63,80,647.25,0.479167,Sixteenth,D#4
2054,Right,0,62,80,647.5,0.479167,Sixteenth,D4
2055,Right,0,60,80,647.75,0.479167,Sixteenth,C4
2057,Right,0,57,80,648.0,0.479167,Sixteenth,A3
2056,Left,1,58,80,648.0,5.979167,DottedHalf,A#3
2058,Right,0,58,81,648.25,0.479167,Sixteenth,A#3
2059,Right,0,59,83,648.5,0.479167,Sixteenth,B3
2060,Right,0,60,84,648.75,0.479167,Sixteenth,C4
2061,Right,0,61,86,649.0,0.479167,Sixteenth,C#4
2062,Left,1,67,80,649.0,0.979167,Eighth,G4_D#4
2064,Right,0,62,88,649.25,0.479167,Sixteenth,D4
2065,Right,0,63,89,649.5,0.479167,Sixteenth,D#4
2066,Right,0,64,91,649.75,0.479167,Sixteenth,E4
2067,Right,0,65,93,650.0,0.479167,Sixteenth,F4
2068,Left,1,63,80,650.0,0.979167,Eighth,G4_D#4
2070,Right,0,66,94,650.25,0.479167,Sixteenth,F#4
2071,Right,0,67,96,650.5,0.479167,Sixteenth,G4
2072,Right,0,68,98,650.75,0.479167,Sixteenth,G#4
2073,Left,1,63,80,651.0,0.979167,Eighth,G4_D#4
2075,Right,0,69,99,651.0,0.479167,Sixteenth,A4
2076,Right,0,70,101,651.25,0.479167,Sixteenth,A#4
2077,Right,0,71,103,651.5,0.479167,Sixteenth,B4
2078,Right,0,72,104,651.75,0.479167,Sixteenth,C5
2080,Left,1,67,80,652.0,0.979167,Eighth,G4_D#4
2079,Right,0,73,106,652.0,0.479167,Sixteenth,C#5
2082,Right,0,74,108,652.25,0.479167,Sixteenth,D5
2083,Right,0,75,109,652.5,0.479167,Sixteenth,D#5
2084,Right,0,76,111,652.75,0.479167,Sixteenth,E5
2085,Right,0,77,113,653.0,0.489583,Sixteenth,F5
2086,Left,1,67,80,653.0,0.979167,Eighth,G4_D#4
2088,Right,0,78,114,653.1875,0.479167,Sixteenth,F#5
2089,Right,0,79,115,653.385417,0.479167,Sixteenth,G5
2090,Right,0,80,117,653.583333,0.479167,Sixteenth,G#5
2091,Right,0,81,118,653.770833,0.479167,Sixteenth,A5
2092,Right,0,82,119,654.0,1.479167,DottedEighth,A#5
2093,Left,1,58,80,654.0,2.979167,Eighth,G#4_D4_A#3
2096,Left,1,62,80,655.0,0.979167,Eighth,G#4_D4
2098,Right,0,80,110,655.25,0.479167,Sixteenth,G#5
2099,Right,0,77,108,655.5,0.479167,Sixteenth,F5
2100,Right,0,74,105,655.75,0.479167,Sixteenth,D5
2101,Left,1,62,80,656.0,0.979167,Eighth,G#4_D4
2102,Right,0,70,102,656.0,0.479167,Sixteenth,A#4
2104,Right,0,68,99,656.25,0.479167,Sixteenth,G#4
2105,Right,0,65,96,656.5,0.479167,Sixteenth,F4
2106,Right,0,62,93,656.75,0.479167,Sixteenth,D4
2108,Right,0,63,91,657.0,1.979167,Quarter,D#4
2107,Left,1,51,80,657.0,0.979167,Eighth,D#3
2109,Left,1,55,80,658.0,0.979167,Eighth,G3
2110,Left,1,58,80,659.0,0.979167,Eighth,A#3
2111,Left,1,63,80,660.0,0.979167,Eighth,D#4
2112,Left,1,67,80,661.0,0.979167,Eighth,G4
2114,Right,0,78,100,662.0,1.979167,Quarter,F#5_D#5
2113,Left,1,69,80,662.0,0.979167,Eighth,A4
2116,Left,1,70,80,663.0,1.979167,Quarter,A#4
2117,Right,0,79,80,664.0,0.979167,Eighth,G5
2118,Right,0,80,80,665.0,0.979167,DottedSixteenth,G#5_A#4
2119,Left,1,65,80,665.0,0.979167,DottedSixteenth,F4_A#3
2123,Left,1,68,80,665.75,0.229167,ThirtySecond,G#4
2122,Right,0,77,80,665.75,0.25,ThirtySecond,F5
2124,Right,0,75,80,666.0,1.979167,Quarter,G4_D#5
2126,Left,1,39,80,666.0,0.979167,Eighth,D#2
2127,Left,1,43,80,667.0,0.979167,Eighth,G2
2128,Left,1,46,80,668.0,0.979167,Eighth,A#2
2129,Left,1,51,80,669.0,0.979167,Eighth,D#3
2130,Left,1,55,80,670.0,0.979167,Eighth,G3
2133,Left,1,57,80,671.0,0.979167,Eighth,A3
2131,Right,0,63,100,671.0,1.979167,Quarter,F#4_D#4
2134,Left,1,58,80,672.0,1.979167,Quarter,A#3
2135,Right,0,67,80,673.0,0.979167,Eighth,G4
2136,Left,1,46,80,674.0,0.979167,Eighth,F3_A#2
2137,Right,0,58,80,674.0,0.979167,Eighth,G#4_A#3
2140,Right,0,65,80,674.75,0.229167,ThirtySecond,F4
2141,Left,1,56,80,674.75,0.229167,ThirtySecond,G#3
2143,Left,1,51,80,675.0,0.979167,Eighth,G3_D#3
2142,Right,0,63,80,675.0,0.979167,Eighth,D#4
2145,Right,0,62,80,676.0,1.979167,Quarter,G#4_D4
2146,Left,1,46,80,676.0,1.979167,Quarter,F3_A#2
2150,Right,0,65,80,677.5,0.479167,Sixteenth,F4
2149,Left,1,56,80,677.5,0.479167,Sixteenth,G#3
2151,Left,1,55,80,678.0,0.979167,Eighth,G3_D#3
2153,Right,0,63,80,678.0,0.979167,Eighth,D#4
2155,Left,1,46,80,679.0,1.979167,Quarter,F3_A#2
2154,Right,0,62,80,679.0,1.979167,Quarter,G#4_D4
2159,Left,1,56,80,680.5,0.479167,Sixteenth,G#3
2158,Right,0,65,80,680.5,0.479167,Sixteenth,F4
2162,Right,0,63,80,681.0,0.979167,Eighth,D#4
2160,Left,1,51,80,681.0,0.979167,Eighth,G3_D#3
2164,Right,0,56,80,682.0,0.979167,Eighth,G#4_G#3
2163,Left,1,53,80,682.0,0.979167,Sixteenth,F3_A#2
2167,Left,1,52,80,682.5,0.479167,Sixteenth,E3
2168,Right,0,67,80,682.5,0.479167,Sixteenth,G4
2171,Left,1,46,80,683.0,0.979167,Eighth,F3_A#2
2169,Right,0,56,80,683.0,0.979167,Eighth,G#4_G#3
2173,Left,1,50,80,683.5,0.479167,Sixteenth,D3
2174,Right,0,65,80,683.5,0.479167,Sixteenth,F4
2175,Right,0,64,80,684.0,0.3125,TripletSixteenth,E4
2176,Right,0,65,80,684.333333,0.3125,TripletSixteenth,F4
2177,Right,0,67,80,684.666667,0.3125,TripletSixteenth,G4
2178,Left,1,39,80,685.0,4.979167,Half,D3_D#2_A#2
2179,Right,0,65,80,685.0,1.979167,Quarter,G#3_F4
2183,Left,1,51,80,687.0,2.979167,DottedQuarter,D#3
2184,Right,0,55,80,687.0,2.979167,DottedQuarter,G3_D#4
