,hand,channel,note,velocity,start_beat,duration,note_value,chord
0,Right,0,77,80,0.25,0.239583,Sixteenth,F5
1,Right,0,79,80,0.5,0.239583,Sixteenth,G5
2,Right,0,77,80,0.75,0.239583,Sixteenth,F5
4,Right,0,75,80,1.0,0.239583,Sixteenth,D#5
3,Left,1,58,80,1.0,0.489583,Eighth,A#3
5,Right,0,74,80,1.25,0.239583,Sixteenth,D5
6,Left,1,65,80,1.25,0.239583,Sixteenth,F4
7,Left,1,62,80,1.5,0.489583,Eighth,D4
8,Right,0,72,80,1.5,0.239583,Sixteenth,C5
9,Right,0,70,80,1.75,0.239583,Sixteenth,A#4
10,Left,1,65,80,1.75,0.239583,Sixteenth,F4
11,Right,0,69,80,2.0,0.489583,Eighth,A4
12,Left,1,60,80,2.0,0.489583,Eighth,C4
13,Left,1,65,80,2.25,0.239583,Sixteenth,F4
15,Left,1,58,80,2.5,0.489583,Eighth,A#3
14,Right,0,70,80,2.5,0.489583,Eighth,A#4
16,Left,1,65,80,2.75,0.239583,Sixteenth,F4
17,Right,0,71,80,3.0,0.489583,Eighth,B4
18,Left,1,57,80,3.0,1.989583,Half,D#4_A3
20,Left,1,65,80,3.25,0.239583,Sixteenth,F4
21,Right,0,72,80,3.5,0.739583,DottedEighth,C5
22,Left,1,65,80,3.5,0.239583,Sixteenth,F4
23,Left,1,65,80,3.75,0.239583,Sixteenth,F4
24,Left,1,65,80,4.0,0.239583,Sixteenth,F4
25,Right,0,78,80,4.25,0.239583,Sixteenth,F#5
26,Left,1,65,80,4.25,0.239583,Sixteenth,F4
28,Left,1,65,80,4.5,0.239583,Sixteenth,F4
27,Right,0,81,80,4.5,0.239583,Sixteenth,A5
29,Left,1,65,80,4.75,0.239583,Sixteenth,F4
30,Right,0,79,80,4.75,0.239583,Sixteenth,G5
32,Left,1,57,80,5.0,0.489583,Eighth,A3
31,Right,0,77,80,5.0,0.239583,Sixteenth,F5
34,Left,1,65,80,5.25,0.239583,Sixteenth,F4
33,Right,0,75,80,5.25,0.239583,Sixteenth,D#5
35,Right,0,74,80,5.5,0.239583,Sixteenth,D5
36,Left,1,63,80,5.5,0.489583,Eighth,D#4
38,Left,1,65,80,5.75,0.239583,Sixteenth,F4
37,Right,0,72,80,5.75,0.239583,Sixteenth,C5
39,Right,0,70,80,6.0,0.489583,Eighth,A#4
40,Left,1,62,80,6.0,0.489583,Eighth,D4
41,Left,1,65,80,6.25,0.239583,Sixteenth,F4
42,Right,0,72,80,6.5,0.489583,Eighth,C5
43,Left,1,57,80,6.5,0.489583,Eighth,A3
44,Left,1,65,80,6.75,0.239583,Sixteenth,F4
45,Right,0,73,80,7.0,0.489583,Eighth,C#5
46,Left,1,58,80,7.0,1.489583,DottedQuarter,A#3
47,Left,1,65,80,7.25,0.239583,Sixteenth,F4
48,Left,1,65,80,7.5,0.239583,Sixteenth,F4
49,Right,0,74,80,7.5,0.739583,DottedEighth,D5
50,Left,1,65,80,7.75,0.239583,Sixteenth,F4
51,Left,1,65,80,8.0,0.239583,Sixteenth,F4
52,Right,0,77,80,8.25,0.239583,Sixteenth,F5
53,Left,1,65,80,8.25,0.239583,Sixteenth,F4
55,Left,1,58,80,8.5,0.489583,Eighth,A#3
54,Right,0,79,80,8.5,0.239583,Sixteenth,G5
56,Left,1,65,80,8.75,0.239583,Sixteenth,F4
57,Right,0,74,80,8.75,0.239583,Sixteenth,D5
58,Left,1,60,80,9.0,0.489583,Eighth,C4
59,Right,0,77,80,9.0,0.239583,Sixteenth,F5
60,Left,1,65,80,9.25,0.239583,Sixteenth,F4
61,Right,0,75,80,9.25,0.239583,Sixteenth,D#5
62,Left,1,57,80,9.5,0.489583,Eighth,A3
63,Right,0,77,80,9.5,0.239583,Sixteenth,F5
65,Right,0,72,80,9.75,0.239583,Sixteenth,C5
64,Left,1,65,80,9.75,0.239583,Sixteenth,F4
67,Right,0,75,80,10.0,0.239583,Sixteenth,D#5
66,Left,1,58,80,10.0,0.489583,Eighth,A#3
69,Right,0,74,80,10.25,0.239583,Sixteenth,D5
68,Left,1,65,80,10.25,0.239583,Sixteenth,F4
71,Left,1,59,80,10.5,0.489583,Eighth,B3
70,Right,0,79,80,10.5,0.239583,Sixteenth,G5
73,Left,1,65,80,10.75,0.239583,Sixteenth,F4
72,Right,0,74,80,10.75,0.239583,Sixteenth,D5
75,Left,1,60,80,11.0,0.489583,Eighth,C4
74,Right,0,77,80,11.0,0.239583,Sixteenth,F5
76,Right,0,75,80,11.25,0.239583,Sixteenth,D#5
77,Left,1,65,80,11.25,0.239583,Sixteenth,F4
79,Left,1,57,80,11.5,0.489583,Eighth,A3
78,Right,0,77,80,11.5,0.239583,Sixteenth,F5
81,Right,0,72,80,11.75,0.239583,Sixteenth,C5
80,Left,1,65,80,11.75,0.239583,Sixteenth,F4
82,Right,0,74,80,12.0,0.239583,Sixteenth,D5
83,Left,1,58,80,12.0,0.489583,Eighth,A#3
84,Left,1,62,80,12.25,0.239583,Sixteenth,D4
85,Right,0,75,80,12.25,0.239583,Sixteenth,D#5
87,Left,1,57,80,12.5,0.489583,Eighth,A3
86,Right,0,76,80,12.5,0.239583,Sixteenth,E5
89,Right,0,77,80,12.75,0.239583,Sixteenth,F5
88,Left,1,60,80,12.75,0.239583,Sixteenth,C4
90,Right,0,78,80,13.0,0.239583,Sixteenth,F#5
91,Left,1,55,80,13.0,0.489583,Eighth,G3
93,Right,0,79,80,13.25,0.239583,Sixteenth,G5
92,Left,1,58,80,13.25,0.239583,Sixteenth,A#3
95,Right,0,81,80,13.5,0.239583,Sixteenth,A5
94,Left,1,55,80,13.5,0.489583,Eighth,G3
97,Left,1,58,80,13.75,0.239583,Sixteenth,A#3
96,Right,0,82,80,13.75,0.239583,Sixteenth,A#5
99,Left,1,48,80,14.0,0.489583,Eighth,C3
98,Right,0,84,80,14.0,0.239583,Sixteenth,C6
101,Left,1,58,80,14.25,0.239583,Sixteenth,A#3
100,Right,0,85,80,14.25,0.239583,Sixteenth,C#6
103,Left,1,48,80,14.5,0.489583,Eighth,C3
102,Right,0,86,80,14.5,0.239583,Sixteenth,D6
105,Right,0,76,80,14.75,0.239583,Sixteenth,E5
104,Left,1,58,80,14.75,0.239583,Sixteenth,A#3
107,Right,0,79,80,15.0,0.489583,Eighth,G5
106,Left,1,53,80,15.0,1.489583,DottedQuarter,F3
108,Left,1,58,80,15.25,0.239583,Sixteenth,A#3
110,Right,0,77,80,15.5,0.489583,Eighth,F5
109,Left,1,57,80,15.5,0.239583,Sixteenth,A3
111,Left,1,55,80,15.75,0.239583,Sixteenth,G3
112,Left,1,57,80,16.0,0.489583,Eighth,A3
113,Right,0,65,80,16.25,0.239583,Sixteenth,F5_F4
115,Right,0,79,80,16.5,0.239583,Sixteenth,G5_G4
117,Right,0,65,80,16.75,0.239583,Sixteenth,F5_F4
119,Left,1,46,80,17.0,0.489583,Eighth,A#2
120,Right,0,75,80,17.0,0.239583,Sixteenth,D#5_D#4
122,Left,1,53,80,17.25,0.239583,Sixteenth,F3
123,Right,0,62,80,17.25,0.239583,Sixteenth,D5_D4
126,Left,1,50,80,17.5,0.489583,Eighth,D3
125,Right,0,60,80,17.5,0.239583,Sixteenth,C5_C4
129,Left,1,53,80,17.75,0.239583,Sixteenth,F3
128,Right,0,58,80,17.75,0.239583,Sixteenth,A#4_A#3
132,Right,0,69,80,18.0,0.489583,Eighth,A4_A3
131,Left,1,48,80,18.0,0.489583,Eighth,C3
134,Left,1,53,80,18.25,0.239583,Sixteenth,F3
136,Right,0,58,80,18.5,0.489583,Eighth,A#4_A#3
135,Left,1,46,80,18.5,0.489583,Eighth,A#2
138,Left,1,53,80,18.75,0.239583,Sixteenth,F3
141,Right,0,59,80,19.0,0.489583,Eighth,B4_B3
139,Left,1,51,80,19.0,1.989583,Half,D#3_A2
143,Left,1,53,80,19.25,0.239583,Sixteenth,F3
144,Right,0,60,80,19.5,0.739583,DottedEighth,C5_C4
146,Left,1,53,80,19.5,0.239583,Sixteenth,F3
147,Left,1,53,80,19.75,0.239583,Sixteenth,F3
148,Left,1,53,80,20.0,0.239583,Sixteenth,F3
149,Left,1,53,80,20.25,0.239583,Sixteenth,F3
150,Right,0,66,80,20.25,0.239583,Sixteenth,F#5_F#4
152,Left,1,53,80,20.5,0.239583,Sixteenth,F3
153,Right,0,69,80,20.5,0.239583,Sixteenth,A5_A4
156,Right,0,67,80,20.75,0.239583,Sixteenth,G5_G4
155,Left,1,53,80,20.75,0.239583,Sixteenth,F3
159,Right,0,65,80,21.0,0.239583,Sixteenth,F5_F4
158,Left,1,45,80,21.0,0.489583,Eighth,A2
161,Left,1,53,80,21.25,0.239583,Sixteenth,F3
162,Right,0,63,80,21.25,0.239583,Sixteenth,D#5_D#4
164,Left,1,51,80,21.5,0.489583,Eighth,D#3
165,Right,0,62,80,21.5,0.239583,Sixteenth,D5_D4
168,Left,1,53,80,21.75,0.239583,Sixteenth,F3
167,Right,0,72,80,21.75,0.239583,Sixteenth,C5_C4
172,Left,1,50,80,22.0,0.489583,Eighth,D3
170,Right,0,58,80,22.0,0.489583,Eighth,A#4_A#3
173,Left,1,53,80,22.25,0.239583,Sixteenth,F3
174,Right,0,72,80,22.5,0.489583,Eighth,C5_C4
176,Left,1,45,80,22.5,0.489583,Eighth,A2
177,Left,1,53,80,22.75,0.239583,Sixteenth,F3
178,Right,0,73,80,23.0,0.489583,Eighth,C#5_C#4
180,Left,1,46,80,23.0,1.489583,DottedQuarter,A#2
181,Left,1,53,80,23.25,0.239583,Sixteenth,F3
182,Right,0,62,80,23.5,0.739583,DottedEighth,D5_D4
183,Left,1,53,80,23.5,0.239583,Sixteenth,F3
185,Left,1,53,80,23.75,0.239583,Sixteenth,F3
186,Left,1,53,80,24.0,0.239583,Sixteenth,F3
188,Left,1,53,80,24.25,0.239583,Sixteenth,F3
187,Right,0,77,80,24.25,0.239583,Sixteenth,F5
190,Right,0,68,80,24.5,0.989583,Quarter,G5_G#4
189,Left,1,46,80,24.5,0.489583,Eighth,A#2
193,Left,1,53,80,24.75,0.239583,Sixteenth,F3
192,Right,0,74,80,24.75,0.239583,Sixteenth,D5
195,Right,0,77,80,25.0,0.239583,Sixteenth,F5
194,Left,1,48,80,25.0,0.489583,Eighth,C3
196,Left,1,53,81,25.25,0.239583,Sixteenth,F3
197,Right,0,75,81,25.25,0.239583,Sixteenth,D#5
198,Right,0,69,82,25.5,0.489583,Eighth,F5_A4
200,Left,1,45,82,25.5,0.489583,Eighth,A2
201,Right,0,72,83,25.75,0.239583,Sixteenth,C5
202,Left,1,53,83,25.75,0.239583,Sixteenth,F3
204,Left,1,46,84,26.0,0.489583,Eighth,A#2
203,Right,0,70,84,26.0,0.489583,Eighth,D#5_A#4
207,Left,1,53,85,26.25,0.239583,Sixteenth,F3
206,Right,0,74,85,26.25,0.239583,Sixteenth,D5
208,Right,0,79,86,26.5,0.989583,Sixteenth,G5_G#4
210,Left,1,47,86,26.5,0.489583,Eighth,B2
211,Right,0,74,87,26.75,0.239583,Sixteenth,D5
212,Left,1,53,87,26.75,0.239583,Sixteenth,F3
214,Right,0,77,88,27.0,0.239583,Sixteenth,F5
213,Left,1,48,88,27.0,0.489583,Eighth,C3
215,Right,0,75,89,27.25,0.239583,Sixteenth,D#5
216,Left,1,53,89,27.25,0.239583,Sixteenth,F3
218,Right,0,69,90,27.5,0.489583,Eighth,F5_A4
217,Left,1,45,90,27.5,0.489583,Eighth,A2
220,Right,0,72,91,27.75,0.239583,Sixteenth,C5
221,Left,1,53,91,27.75,0.239583,Sixteenth,F3
223,Right,0,75,92,28.0,0.239583,Sixteenth,D#5_A#4
222,Left,1,46,92,28.0,0.489583,Eighth,A#2
225,Right,0,74,93,28.25,0.239583,Sixteenth,D5_D4
227,Left,1,53,93,28.25,0.239583,Sixteenth,F3
229,Right,0,75,94,28.5,0.239583,Sixteenth,D#5_D#4
228,Left,1,44,94,28.5,0.489583,Eighth,G#2
232,Left,1,46,95,28.75,0.239583,Sixteenth,A#2
231,Right,0,65,95,28.75,0.239583,Sixteenth,F5_F4
234,Right,0,78,96,29.0,0.239583,Sixteenth,F#5_F#4
236,Left,1,43,96,29.0,0.489583,Eighth,G2
237,Right,0,79,97,29.25,0.239583,Sixteenth,G5_G4
238,Left,1,46,97,29.25,0.239583,Sixteenth,A#2
240,Right,0,69,98,29.5,0.239583,Sixteenth,A5_A4
242,Left,1,39,98,29.5,0.489583,Eighth,D#2
245,Left,1,51,99,29.75,0.239583,Sixteenth,D#3
243,Right,0,70,99,29.75,0.239583,Sixteenth,A#5_A#4
247,Left,1,41,100,30.0,0.489583,Eighth,F2
246,Right,0,70,100,30.0,0.489583,Eighth,A#4_A#3
249,Left,1,50,100,30.25,0.239583,Sixteenth,D3
252,Left,1,41,100,30.5,0.489583,Eighth,F2
250,Right,0,60,100,30.5,0.489583,Eighth,C5_C4
253,Left,1,45,100,30.75,0.239583,Sixteenth,A2
256,Left,1,38,80,31.0,0.239583,Sixteenth,D2
254,Right,0,73,80,31.0,0.489583,Eighth,C#5_C#4
257,Left,1,46,80,31.25,1.239583,TiedQuarter-Sixteenth,A#2
259,Left,1,58,80,31.5,0.239583,Sixteenth,A#3
258,Right,0,62,80,31.5,0.614583,Eighth,D5_D4
261,Left,1,58,80,31.75,0.239583,Sixteenth,A#3
262,Left,1,58,80,32.0,0.239583,Sixteenth,A#3
263,Right,0,70,80,32.125,0.239583,Sixteenth,A#4
265,Right,0,69,80,32.25,0.239583,Sixteenth,A4
264,Left,1,58,80,32.25,0.239583,Sixteenth,A#3
266,Right,0,70,80,32.375,0.239583,Sixteenth,A#4
268,Left,1,57,80,32.5,0.489583,Eighth,A3
267,Right,0,71,80,32.5,0.239583,Sixteenth,B4
269,Right,0,72,80,32.625,0.239583,Sixteenth,C5
270,Left,1,58,80,32.75,0.239583,Sixteenth,A#3
271,Right,0,73,80,32.75,0.239583,Sixteenth,C#5
272,Right,0,74,80,32.875,0.239583,Sixteenth,D5
274,Right,0,75,80,33.0,0.239583,Sixteenth,D#5
273,Left,1,55,80,33.0,0.489583,Eighth,G3
275,Right,0,76,80,33.125,0.239583,Sixteenth,E5
277,Left,1,58,80,33.25,0.239583,Sixteenth,A#3
276,Right,0,77,80,33.25,0.239583,Sixteenth,F5
278,Right,0,78,80,33.375,0.239583,Sixteenth,F#5
279,Left,1,53,80,33.5,0.489583,Eighth,F3
280,Right,0,79,80,33.5,0.239583,Sixteenth,G5
281,Right,0,80,80,33.625,0.239583,Sixteenth,G#5
283,Left,1,63,80,33.75,0.239583,Sixteenth,D#4
282,Right,0,81,80,33.75,0.239583,Sixteenth,A5
284,Right,0,82,80,33.875,0.239583,Sixteenth,A#5
286,Left,1,53,80,34.0,0.489583,Eighth,F3
285,Right,0,70,80,34.0,0.239583,Sixteenth,A#4
287,Right,0,72,80,34.125,0.239583,Sixteenth,C5
289,Left,1,62,80,34.25,0.239583,Sixteenth,D4
288,Right,0,69,80,34.25,0.239583,Sixteenth,A4
290,Right,0,70,80,34.375,0.239583,Sixteenth,A#4
291,Left,1,53,80,34.5,0.489583,Eighth,F3
292,Right,0,74,80,34.5,0.489583,DottedSixteenth,D5_D#4
294,Left,1,57,80,34.75,0.239583,Sixteenth,A3
295,Right,0,72,80,34.875,0.114583,ThirtySecond,C5
298,Right,0,70,80,35.0,0.489583,Eighth,D4_A#4
296,Left,1,58,80,35.0,0.489583,Eighth,A#3_A#2
302,Right,0,74,80,36.0,0.989583,Quarter,F4_D5
300,Left,1,62,80,36.0,0.989583,Quarter,D4_A#3
305,Left,1,60,80,37.0,1.489583,DottedQuarter,D#3_C4
304,Right,0,72,80,37.0,0.239583,Sixteenth,C5
307,Right,0,74,80,37.125,0.239583,Sixteenth,D5
308,Right,0,72,80,37.25,0.239583,Sixteenth,C5
309,Right,0,74,80,37.375,0.239583,Sixteenth,D5
310,Right,0,71,80,37.5,0.239583,Sixteenth,B4
311,Right,0,72,80,37.625,0.239583,Sixteenth,C5
312,Right,0,74,80,37.75,0.239583,Sixteenth,D5
313,Right,0,75,80,37.875,0.239583,Sixteenth,D#5
314,Right,0,67,80,38.0,0.489583,Eighth,G4
315,Left,1,60,80,38.5,0.489583,Eighth,F3_C4
317,Right,0,63,80,38.5,0.489583,Eighth,D#4_A4
321,Right,0,70,80,39.0,0.989583,Eighth,D4_A#4
319,Left,1,46,80,39.0,0.989583,Quarter,A#3_A#2
323,Right,0,65,80,39.5,0.239583,Sixteenth,F4
326,Right,0,65,80,40.0,0.989583,Quarter,F4_D5
324,Left,1,62,80,40.0,0.989583,Quarter,D4_A#3
329,Left,1,52,80,41.0,0.989583,Quarter,G3_E3
328,Right,0,72,80,41.0,0.989583,Sixteenth,G4_C5
332,Right,0,74,80,41.25,0.15625,TripletSixteenth,D5
333,Right,0,72,80,41.333333,0.15625,TripletSixteenth,C5
334,Right,0,71,80,41.416667,0.15625,TripletSixteenth,B4
335,Right,0,72,80,41.5,0.239583,Sixteenth,C5
336,Right,0,74,80,41.75,0.239583,Sixteenth,D5
339,Right,0,70,80,42.0,0.989583,Sixteenth,E4_A#4
337,Left,1,60,80,42.0,0.989583,Quarter,C4_C3
341,Right,0,72,80,42.25,0.15625,TripletSixteenth,C5
342,Right,0,70,80,42.333333,0.15625,TripletSixteenth,A#4
343,Right,0,69,80,42.416667,0.15625,TripletSixteenth,A4
344,Right,0,70,80,42.5,0.239583,Sixteenth,A#4
345,Right,0,72,80,42.75,0.239583,Sixteenth,C5
347,Right,0,65,80,43.0,0.989583,Quarter,F4_A#4
346,Left,1,60,80,43.0,0.989583,Quarter,F3_C4
350,Right,0,69,80,43.5,0.239583,Sixteenth,A4
351,Left,1,45,80,44.0,0.989583,Quarter,A2
352,Left,1,53,80,44.125,0.864583,DottedEighth,F3
353,Left,1,57,80,44.25,0.739583,DottedEighth,A3
354,Right,0,69,80,44.5,0.989583,Quarter,A4
355,Right,0,77,81,44.625,0.864583,DottedEighth,F5
356,Right,0,81,82,44.75,0.739583,DottedEighth,A5
357,Left,1,46,84,45.0,0.989583,Quarter,A#2
358,Left,1,53,85,45.125,0.864583,DottedEighth,F3
359,Left,1,57,86,45.25,0.739583,DottedEighth,A3
360,Right,0,69,89,45.5,0.989583,Quarter,A4
361,Right,0,77,90,45.625,0.864583,DottedEighth,F5
362,Right,0,81,91,45.75,0.739583,DottedEighth,A5
363,Left,1,48,93,46.0,0.989583,Quarter,C3
364,Left,1,53,94,46.125,0.864583,DottedEighth,F3
365,Left,1,57,96,46.25,0.739583,DottedEighth,A3
366,Right,0,69,98,46.5,0.989583,Quarter,A4
367,Right,0,81,100,46.75,0.739583,DottedEighth,A5
368,Left,1,50,103,47.0,0.989583,Quarter,D3
369,Left,1,53,104,47.125,0.864583,DottedEighth,F3
370,Left,1,57,105,47.25,0.739583,DottedEighth,A3
371,Right,0,69,107,47.5,0.989583,Quarter,A4
372,Right,0,77,108,47.625,0.385417,DottedSixteenth,F5
373,Right,0,81,109,47.75,0.739583,DottedEighth,A5
374,Left,1,65,110,48.0,0.989583,Quarter,F4_D4_A4
378,Right,0,89,110,48.5,0.989583,Quarter,F6_F5
377,Left,1,71,110,48.5,0.989583,Quarter,B4
380,Left,1,67,110,49.0,0.989583,Quarter,G4_C4
382,Left,1,72,110,49.5,0.239583,Sixteenth,C5
383,Right,0,88,110,49.5,0.239583,Sixteenth,E6_E5
385,Left,1,65,110,50.0,0.989583,Eighth,F4_D4_A#3
388,Right,0,86,110,50.5,0.989583,Quarter,D6_D5
390,Left,1,64,110,50.5,0.989583,Quarter,G4_E4
392,Left,1,57,110,51.0,0.989583,Quarter,A3
393,Right,0,72,110,51.5,0.239583,Sixteenth,C6_C5
395,Left,1,65,110,51.5,0.239583,Sixteenth,F4_A4
397,Left,1,62,110,52.0,0.989583,Quarter,G3_D4_A#3
402,Left,1,64,110,52.5,0.489583,Eighth,E4
400,Right,0,70,110,52.5,0.739583,DottedEighth,A#5_A#4
403,Left,1,60,110,53.0,0.489583,Eighth,F4_F3_C4
406,Right,0,69,110,53.25,0.489583,Eighth,A5_A4
408,Left,1,58,110,53.5,0.489583,Eighth,A#3_A#2
410,Right,0,79,110,53.75,0.489583,Eighth,G5_G4
412,Left,1,57,110,54.0,0.489583,Eighth,C3_A3
414,Right,0,77,110,54.25,0.489583,Eighth,F5_F4
416,Left,1,48,110,54.5,0.489583,Eighth,E3_C3
418,Right,0,79,110,54.75,0.239583,Sixteenth,G5_G4
422,Left,1,53,110,55.0,0.489583,Eighth,F3_F2
420,Right,0,80,110,55.0,0.489583,Eighth,G#5_G#4
424,Right,0,69,110,55.5,0.239583,Sixteenth,A5_A4
427,Left,1,53,110,56.0,0.989583,Eighth,F3_D3
426,Right,0,65,110,56.0,1.489583,DottedQuarter,F4_A4
431,Right,0,71,110,56.5,0.989583,Quarter,B4
430,Left,1,56,110,56.5,0.989583,Quarter,G#3
432,Left,1,48,110,57.0,0.989583,Quarter,C3
435,Left,1,57,110,57.5,0.489583,Eighth,A3
433,Right,0,72,110,57.5,0.489583,Eighth,E4_C5
437,Right,0,62,110,58.0,1.489583,DottedQuarter,F4_D4
436,Left,1,46,110,58.0,0.989583,Quarter,D3_A#2
441,Left,1,52,110,58.5,0.989583,Quarter,E3
440,Right,0,67,110,58.5,0.489583,Eighth,G4
443,Left,1,45,110,59.0,0.989583,Quarter,A2
442,Right,0,68,110,59.0,0.489583,Eighth,G#4
446,Left,1,53,110,59.5,0.489583,Eighth,F3
444,Right,0,60,110,59.5,0.489583,Eighth,C4_A4
448,Right,0,62,110,60.0,1.239583,Eighth,D4_A#3
447,Left,1,50,110,60.0,0.989583,Eighth,G2_D3
452,Left,1,49,110,60.5,0.739583,DottedEighth,C#3
451,Right,0,64,110,60.5,0.489583,Eighth,E4
453,Right,0,65,110,61.0,0.239583,Sixteenth,F4
454,Left,1,41,110,61.0,0.489583,Eighth,F2
456,Right,0,57,110,61.25,0.489583,Eighth,A3
455,Left,1,48,110,61.25,0.489583,Eighth,C3
457,Left,1,34,110,61.5,0.489583,Eighth,A#1
458,Right,0,55,110,61.75,0.489583,Eighth,G3
459,Left,1,46,110,61.75,0.489583,Eighth,A#2
460,Left,1,36,110,62.0,0.489583,Eighth,C2
462,Right,0,53,110,62.25,0.489583,Eighth,F3
461,Left,1,45,110,62.25,0.489583,Eighth,A2
463,Left,1,36,110,62.5,0.489583,Eighth,C2
464,Left,1,43,110,62.75,0.239583,Sixteenth,G2
465,Right,0,52,110,62.75,0.239583,Sixteenth,E3
466,Right,0,53,110,63.0,0.239583,Sixteenth,F3
467,Left,1,29,110,63.0,0.489583,Eighth,F1
468,Right,0,45,80,63.125,0.239583,Sixteenth,A2
469,Right,0,48,80,63.25,0.239583,Sixteenth,C3
470,Right,0,53,80,63.375,0.239583,Sixteenth,F3
472,Right,0,57,80,63.5,0.239583,Sixteenth,A3
471,Left,1,41,80,63.5,1.489583,DottedQuarter,F2
473,Right,0,60,80,63.625,0.239583,Sixteenth,C4
474,Right,0,65,80,63.75,0.239583,Sixteenth,F4
475,Right,0,69,80,63.875,0.239583,Sixteenth,A4
476,Left,1,45,80,64.0,0.989583,Quarter,A2
477,Right,0,60,80,64.0,0.239583,Sixteenth,C4
478,Right,0,65,80,64.125,0.239583,Sixteenth,F4
479,Right,0,69,80,64.25,0.239583,Sixteenth,A4
480,Right,0,72,80,64.375,0.239583,Sixteenth,C5
481,Right,0,65,80,64.5,0.239583,Sixteenth,F4
482,Left,1,48,80,64.5,0.489583,Eighth,C3
483,Right,0,69,80,64.625,0.239583,Sixteenth,A4
484,Right,0,72,80,64.75,0.239583,Sixteenth,C5
485,Right,0,77,80,64.875,0.239583,Sixteenth,F5
487,Left,1,43,80,65.0,1.989583,Half,G2_F2
486,Right,0,76,80,65.0,0.239583,Sixteenth,E5
489,Right,0,82,80,65.125,0.239583,Sixteenth,A#5
490,Right,0,79,80,65.25,0.239583,Sixteenth,G5
491,Right,0,76,80,65.375,0.239583,Sixteenth,E5
492,Left,1,46,80,65.5,1.489583,DottedQuarter,A#2
493,Right,0,72,80,65.5,0.239583,Sixteenth,C5
494,Right,0,79,80,65.625,0.239583,Sixteenth,G5
495,Right,0,76,80,65.75,0.239583,Sixteenth,E5
496,Right,0,72,80,65.875,0.239583,Sixteenth,C5
497,Right,0,70,80,66.0,0.239583,Sixteenth,A#4
498,Left,1,48,80,66.0,0.989583,Quarter,C3
499,Right,0,76,80,66.125,0.239583,Sixteenth,E5
500,Right,0,72,80,66.25,0.239583,Sixteenth,C5
501,Right,0,70,80,66.375,0.239583,Sixteenth,A#4
502,Right,0,67,80,66.5,0.239583,Sixteenth,G4
503,Left,1,52,80,66.5,0.489583,Eighth,E3
504,Right,0,72,80,66.625,0.239583,Sixteenth,C5
505,Right,0,70,80,66.75,0.239583,Sixteenth,A#4
506,Right,0,67,80,66.875,0.239583,Sixteenth,G4
507,Left,1,41,80,67.0,0.489583,Eighth,F2
508,Right,0,53,80,67.0,0.239583,Sixteenth,F3
509,Right,0,45,80,67.125,0.239583,Sixteenth,A2
510,Right,0,48,80,67.25,0.239583,Sixteenth,C3
511,Right,0,53,80,67.375,0.239583,Sixteenth,F3
512,Left,1,53,80,67.5,1.489583,DottedQuarter,F3
513,Right,0,57,80,67.5,0.239583,Sixteenth,A3
514,Right,0,60,80,67.625,0.239583,Sixteenth,C4
515,Right,0,65,80,67.75,0.239583,Sixteenth,F4
516,Right,0,69,80,67.875,0.239583,Sixteenth,A4
518,Right,0,60,80,68.0,0.239583,Sixteenth,C4
517,Left,1,57,80,68.0,0.989583,Quarter,A3
519,Right,0,65,80,68.125,0.239583,Sixteenth,F4
520,Right,0,69,80,68.25,0.239583,Sixteenth,A4
521,Right,0,72,80,68.375,0.239583,Sixteenth,C5
523,Right,0,65,80,68.5,0.239583,Sixteenth,F4
522,Left,1,60,80,68.5,0.489583,Eighth,C4
524,Right,0,69,80,68.625,0.239583,Sixteenth,A4
525,Right,0,72,80,68.75,0.239583,Sixteenth,C5
526,Right,0,77,80,68.875,0.239583,Sixteenth,F5
528,Left,1,55,80,69.0,1.989583,Half,G3_F3
527,Right,0,76,80,69.0,0.239583,Sixteenth,E5
530,Right,0,82,80,69.125,0.239583,Sixteenth,A#5
531,Right,0,79,80,69.25,0.239583,Sixteenth,G5
532,Right,0,76,80,69.375,0.239583,Sixteenth,E5
534,Right,0,72,80,69.5,0.239583,Sixteenth,C5
533,Left,1,58,80,69.5,1.489583,DottedQuarter,A#3
535,Right,0,79,80,69.625,0.239583,Sixteenth,G5
536,Right,0,76,80,69.75,0.239583,Sixteenth,E5
537,Right,0,72,80,69.875,0.239583,Sixteenth,C5
538,Left,1,60,80,70.0,0.989583,Quarter,C4
539,Right,0,70,80,70.0,0.239583,Sixteenth,A#4
540,Right,0,76,80,70.125,0.239583,Sixteenth,E5
541,Right,0,72,80,70.25,0.239583,Sixteenth,C5
542,Right,0,70,80,70.375,0.239583,Sixteenth,A#4
543,Right,0,67,80,70.5,0.239583,Sixteenth,G4
544,Left,1,64,80,70.5,0.489583,Eighth,E4
545,Right,0,72,80,70.625,0.239583,Sixteenth,C5
546,Right,0,70,80,70.75,0.239583,Sixteenth,A#4
547,Right,0,67,80,70.875,0.239583,Sixteenth,G4
548,Right,0,69,80,71.0,0.239583,Sixteenth,A4
549,Left,1,41,80,71.0,0.489583,Eighth,F2
550,Right,0,57,81,71.125,0.239583,Sixteenth,A3
551,Right,0,60,81,71.25,0.239583,Sixteenth,C4
552,Right,0,65,82,71.375,0.239583,Sixteenth,F4
554,Right,0,69,83,71.5,0.239583,Sixteenth,A4
553,Left,1,53,83,71.5,1.489583,DottedQuarter,F3
555,Right,0,72,83,71.625,0.239583,Sixteenth,C5
556,Right,0,81,85,71.875,0.239583,Sixteenth,A5
557,Left,1,57,85,72.0,0.989583,Quarter,A3
558,Right,0,72,85,72.0,0.239583,Sixteenth,C5
559,Right,0,77,86,72.125,0.239583,Sixteenth,F5
560,Right,0,81,87,72.25,0.239583,Sixteenth,A5
561,Right,0,84,87,72.375,0.239583,Sixteenth,C6
563,Left,1,60,88,72.5,0.489583,Eighth,C4
562,Right,0,77,88,72.5,0.239583,Sixteenth,F5
564,Right,0,81,88,72.625,0.239583,Sixteenth,A5
565,Right,0,84,89,72.75,0.239583,Sixteenth,C6
566,Right,0,89,90,72.875,0.239583,Sixteenth,F6
567,Left,1,39,90,73.0,0.489583,Eighth,D#2
568,Right,0,57,91,73.125,0.239583,Sixteenth,A3
569,Right,0,60,92,73.25,0.239583,Sixteenth,C4
570,Right,0,65,92,73.375,0.239583,Sixteenth,F4
571,Left,1,51,93,73.5,1.489583,DottedQuarter,D#3
572,Right,0,69,93,73.5,0.239583,Sixteenth,A4
573,Right,0,72,94,73.625,0.239583,Sixteenth,C5
574,Right,0,81,95,73.875,0.239583,Sixteenth,A5
576,Right,0,72,95,74.0,0.239583,Sixteenth,C5
575,Left,1,57,95,74.0,0.989583,Quarter,A3
577,Right,0,77,96,74.125,0.239583,Sixteenth,F5
578,Right,0,81,97,74.25,0.239583,Sixteenth,A5
579,Right,0,84,97,74.375,0.239583,Sixteenth,C6
580,Right,0,77,98,74.5,0.239583,Sixteenth,F5
581,Left,1,60,98,74.5,0.489583,Eighth,C4
582,Right,0,81,99,74.625,0.239583,Sixteenth,A5
583,Right,0,84,99,74.75,0.239583,Sixteenth,C6
584,Right,0,89,100,74.875,0.239583,Sixteenth,F6
585,Left,1,37,101,75.0,0.489583,Eighth,C#2
586,Right,0,58,101,75.125,0.239583,Sixteenth,A#3
587,Right,0,61,102,75.25,0.239583,Sixteenth,C#4
588,Right,0,65,102,75.375,0.239583,Sixteenth,F4
589,Left,1,49,103,75.5,1.489583,DottedQuarter,C#3
590,Right,0,70,103,75.5,0.239583,Sixteenth,A#4
591,Right,0,73,104,75.625,0.239583,Sixteenth,C#5
592,Right,0,82,105,75.875,0.239583,Sixteenth,A#5
594,Left,1,53,106,76.0,0.989583,Quarter,F3
593,Right,0,73,106,76.0,0.239583,Sixteenth,C#5
595,Right,0,77,106,76.125,0.239583,Sixteenth,F5
596,Right,0,82,107,76.25,0.239583,Sixteenth,A#5
597,Right,0,85,108,76.375,0.239583,Sixteenth,C#6
599,Left,1,58,108,76.5,0.489583,Eighth,A#3
598,Right,0,77,108,76.5,0.239583,Sixteenth,F5
600,Right,0,82,109,76.625,0.239583,Sixteenth,A#5
601,Right,0,85,109,76.75,0.239583,Sixteenth,C#6
602,Right,0,89,110,76.875,0.239583,Sixteenth,F6
604,Right,0,76,110,77.0,0.239583,Sixteenth,E5
603,Left,1,42,110,77.0,1.989583,Half,F#2
605,Right,0,88,110,77.125,0.239583,Sixteenth,E6
606,Right,0,85,110,77.25,0.239583,Sixteenth,C#6
607,Right,0,82,110,77.375,0.239583,Sixteenth,A#5
608,Right,0,76,110,77.5,0.239583,Sixteenth,E5
609,Left,1,46,110,77.5,0.489583,Eighth,A#2
610,Right,0,73,110,77.625,0.239583,Sixteenth,C#5
611,Right,0,70,110,77.75,0.239583,Sixteenth,A#4
612,Right,0,64,110,77.875,0.239583,Sixteenth,E4
613,Left,1,49,110,78.0,0.489583,Eighth,C#3
614,Right,0,61,110,78.0,0.239583,Sixteenth,C#4
615,Right,0,63,110,78.125,0.239583,Sixteenth,D#4
616,Right,0,61,110,78.25,0.239583,Sixteenth,C#4
617,Right,0,60,110,78.375,0.239583,Sixteenth,C4
619,Right,0,58,110,78.5,0.239583,Sixteenth,A#3
618,Left,1,52,110,78.5,0.489583,Eighth,E3
620,Right,0,61,110,78.625,0.239583,Sixteenth,C#4
621,Right,0,60,110,78.75,0.239583,Sixteenth,C4
622,Right,0,58,110,78.875,0.239583,Sixteenth,A#3
623,Right,0,57,110,79.0,0.489583,Eighth,A3
624,Left,1,41,110,79.0,0.989583,Quarter,F3_F2
626,Left,1,48,80,80.25,0.239583,Sixteenth,C3
627,Left,1,50,80,80.5,0.239583,Sixteenth,D3
628,Left,1,48,80,80.75,0.239583,Sixteenth,C3
629,Left,1,46,80,81.0,0.239583,Sixteenth,A#2
630,Left,1,45,80,81.25,0.239583,Sixteenth,A2
631,Left,1,43,80,81.5,0.239583,Sixteenth,G2
632,Left,1,41,80,81.75,0.239583,Sixteenth,F2
633,Left,1,41,80,82.0,0.489583,Eighth,F2
634,Right,0,60,80,82.25,0.239583,Sixteenth,C4
635,Right,0,62,80,82.5,0.239583,Sixteenth,D4
636,Right,0,60,80,82.75,0.239583,Sixteenth,C4
637,Right,0,58,80,83.0,0.239583,Sixteenth,A#3
638,Right,0,57,80,83.25,0.239583,Sixteenth,A3
639,Right,0,55,80,83.5,0.239583,Sixteenth,G3
640,Right,0,53,80,83.75,0.239583,Sixteenth,F3
641,Right,0,53,80,84.0,0.489583,Eighth,F3
642,Left,1,51,80,84.25,0.15625,TripletSixteenth,D#3
643,Left,1,53,80,84.333333,0.15625,TripletSixteenth,F3
644,Left,1,51,80,84.416667,0.15625,TripletSixteenth,D#3
645,Left,1,53,80,84.5,0.239583,Sixteenth,F3
646,Left,1,51,80,84.75,0.239583,Sixteenth,D#3
647,Left,1,50,80,85.0,0.239583,Sixteenth,D3
648,Left,1,48,80,85.25,0.239583,Sixteenth,C3
649,Left,1,46,80,85.5,0.239583,Sixteenth,A#2
650,Left,1,45,80,85.75,0.239583,Sixteenth,A2
651,Left,1,45,80,86.0,0.489583,Eighth,A2
652,Right,0,63,80,86.25,0.15625,TripletSixteenth,D#4
653,Right,0,65,80,86.333333,0.15625,TripletSixteenth,F4
654,Right,0,63,80,86.416667,0.15625,TripletSixteenth,D#4
655,Right,0,65,80,86.5,0.239583,Sixteenth,F4
656,Right,0,63,80,86.75,0.239583,Sixteenth,D#4
657,Right,0,62,80,87.0,0.239583,Sixteenth,D4
658,Right,0,60,80,87.25,0.239583,Sixteenth,C4
659,Right,0,58,80,87.5,0.239583,Sixteenth,A#3
660,Right,0,57,80,87.75,0.239583,Sixteenth,A3
661,Right,0,57,80,88.0,0.489583,Eighth,A3
662,Left,1,60,80,88.25,0.239583,Sixteenth,C4
663,Left,1,62,80,88.5,0.239583,Sixteenth,D4
665,Right,0,72,80,88.75,0.239583,Sixteenth,C5
664,Left,1,60,80,88.75,0.239583,Sixteenth,C4
667,Right,0,74,80,89.0,0.239583,Sixteenth,D5
666,Left,1,58,80,89.0,0.239583,Sixteenth,A#3
668,Right,0,72,80,89.25,0.239583,Sixteenth,C5
669,Left,1,57,80,89.25,0.239583,Sixteenth,A3
670,Left,1,55,80,89.5,0.239583,Sixteenth,G3
671,Right,0,70,80,89.5,0.239583,Sixteenth,A#4
673,Right,0,69,80,89.75,0.239583,Sixteenth,A4
672,Left,1,53,80,89.75,0.239583,Sixteenth,F3
674,Right,0,67,80,90.0,0.239583,Sixteenth,G4
676,Left,1,63,80,90.25,0.239583,Sixteenth,D#4
675,Right,0,65,80,90.25,0.239583,Sixteenth,F4
677,Left,1,65,80,90.5,0.239583,Sixteenth,F4
678,Right,0,75,80,90.75,0.239583,Sixteenth,D#5
679,Left,1,63,80,90.75,0.239583,Sixteenth,D#4
680,Left,1,62,80,91.0,0.239583,Sixteenth,D4
682,Left,1,60,80,91.25,0.239583,Sixteenth,C4
681,Right,0,75,80,91.25,0.239583,Sixteenth,D#5
683,Right,0,74,80,91.5,0.239583,Sixteenth,D5
684,Left,1,58,80,91.5,0.239583,Sixteenth,A#3
686,Left,1,57,80,91.75,0.239583,Sixteenth,A3
685,Right,0,72,80,91.75,0.239583,Sixteenth,C5
687,Right,0,70,80,92.0,0.239583,Sixteenth,A#4
688,Right,0,69,80,92.25,0.239583,Sixteenth,A4
689,Right,0,77,80,92.5,0.239583,Sixteenth,F5
690,Right,0,75,80,92.75,0.239583,Sixteenth,D#5
691,Right,0,74,80,93.0,0.239583,Sixteenth,D5
692,Right,0,72,80,93.25,0.239583,Sixteenth,C5
693,Right,0,70,80,93.5,0.239583,Sixteenth,A#4
694,Right,0,69,80,93.75,0.239583,Sixteenth,A4
695,Right,0,77,80,94.0,0.239583,Sixteenth,F5
696,Right,0,75,80,94.25,0.239583,Sixteenth,D#5
697,Right,0,74,80,94.5,0.239583,Sixteenth,D5
698,Right,0,72,80,94.75,0.239583,Sixteenth,C5
699,Right,0,70,80,95.0,0.239583,Sixteenth,A#4
700,Right,0,69,80,95.166667,0.239583,Sixteenth,A4
701,Right,0,77,80,95.333333,0.239583,Sixteenth,F5
702,Right,0,75,80,95.5,0.239583,Sixteenth,D#5
703,Right,0,74,80,95.666667,0.239583,Sixteenth,D5
704,Right,0,72,80,95.833333,0.239583,Sixteenth,C5
705,Right,0,70,80,96.0,0.239583,Sixteenth,A#4
706,Right,0,69,80,96.125,0.239583,Sixteenth,A4
707,Right,0,77,80,96.25,0.239583,Sixteenth,F5
708,Right,0,75,80,96.375,0.239583,Sixteenth,D#5
709,Right,0,74,80,96.5,0.239583,Sixteenth,D5
710,Right,0,72,80,96.625,0.239583,Sixteenth,C5
711,Right,0,70,80,96.75,0.239583,Sixteenth,A#4
712,Right,0,69,80,96.875,0.239583,Sixteenth,A4
713,Right,0,77,80,97.0,0.239583,Sixteenth,F5
714,Right,0,75,80,97.125,0.239583,Sixteenth,D#5
715,Right,0,74,80,97.25,0.239583,Sixteenth,D5
716,Right,0,72,80,97.375,0.239583,Sixteenth,C5
717,Right,0,70,80,97.5,0.239583,Sixteenth,A#4
718,Right,0,69,80,97.625,0.239583,Sixteenth,A4
719,Right,0,78,80,97.75,0.239583,Sixteenth,F#5
720,Right,0,75,80,98.0,0.239583,Sixteenth,D#5
721,Right,0,74,80,98.104167,0.239583,Sixteenth,D5
722,Right,0,72,80,98.208333,0.239583,Sixteenth,C5
723,Right,0,70,80,98.3125,0.239583,Sixteenth,A#4
724,Right,0,69,80,98.40625,0.239583,Sixteenth,A4
725,Right,0,79,80,98.5,0.239583,Sixteenth,G5
726,Right,0,77,80,98.75,0.239583,Sixteenth,F5
728,Right,0,75,80,99.0,0.239583,Sixteenth,D#5
727,Left,1,58,80,99.0,0.489583,Eighth,A#3
729,Right,0,74,80,99.25,0.239583,Sixteenth,D5
730,Left,1,65,80,99.25,0.239583,Sixteenth,F4
731,Right,0,72,80,99.5,0.239583,Sixteenth,C5
732,Left,1,62,80,99.5,0.489583,Eighth,D4
734,Right,0,70,80,99.75,0.239583,Sixteenth,A#4
733,Left,1,65,80,99.75,0.239583,Sixteenth,F4
736,Right,0,69,80,100.0,0.489583,Eighth,A4
735,Left,1,60,80,100.0,0.489583,Eighth,C4
737,Left,1,65,80,100.25,0.239583,Sixteenth,F4
738,Right,0,70,80,100.5,0.489583,Eighth,A#4
739,Left,1,58,80,100.5,0.489583,Eighth,A#3
740,Left,1,65,80,100.75,0.239583,Sixteenth,F4
742,Left,1,57,80,101.0,1.989583,Half,D#4_A3
741,Right,0,71,80,101.0,0.489583,Eighth,B4
744,Left,1,65,80,101.25,0.239583,Sixteenth,F4
746,Left,1,65,80,101.5,0.239583,Sixteenth,F4
745,Right,0,72,80,101.5,0.739583,DottedEighth,C5
747,Left,1,65,80,101.75,0.239583,Sixteenth,F4
748,Left,1,65,80,102.0,0.239583,Sixteenth,F4
749,Right,0,78,80,102.25,0.239583,Sixteenth,F#5
750,Left,1,65,80,102.25,0.239583,Sixteenth,F4
751,Right,0,81,80,102.5,0.239583,Sixteenth,A5
752,Left,1,65,80,102.5,0.239583,Sixteenth,F4
754,Right,0,79,80,102.75,0.239583,Sixteenth,G5
753,Left,1,65,80,102.75,0.239583,Sixteenth,F4
755,Left,1,57,80,103.0,0.489583,Eighth,A3
756,Left,1,65,80,103.25,0.239583,Sixteenth,F4
757,Right,0,75,80,103.25,0.239583,Sixteenth,D#5
758,Right,0,74,80,103.5,0.239583,Sixteenth,D5
759,Left,1,63,80,103.5,0.489583,Eighth,D#4
761,Left,1,65,80,103.75,0.239583,Sixteenth,F4
760,Right,0,72,80,103.75,0.239583,Sixteenth,C5
763,Left,1,62,80,104.0,0.489583,Eighth,D4
762,Right,0,69,80,104.0,0.239583,Sixteenth,A4
764,Right,0,70,80,104.25,0.239583,Sixteenth,A#4
765,Left,1,65,80,104.25,0.239583,Sixteenth,F4
766,Right,0,71,80,104.5,0.239583,Sixteenth,B4
767,Left,1,57,80,104.5,0.489583,Eighth,A3
769,Left,1,65,80,104.75,0.239583,Sixteenth,F4
768,Right,0,72,80,104.75,0.239583,Sixteenth,C5
770,Right,0,73,80,105.0,0.489583,Eighth,C#5
771,Left,1,58,80,105.0,1.489583,DottedQuarter,A#3
772,Left,1,65,80,105.25,0.239583,Sixteenth,F4
773,Left,1,65,80,105.5,0.239583,Sixteenth,F4
774,Right,0,74,80,105.5,0.739583,DottedEighth,D5
775,Left,1,65,80,105.75,0.239583,Sixteenth,F4
776,Left,1,65,80,106.0,0.239583,Sixteenth,F4
777,Right,0,77,80,106.25,0.239583,Sixteenth,F5
778,Left,1,65,80,106.25,0.239583,Sixteenth,F4
779,Left,1,58,80,106.5,0.489583,Eighth,A#3
780,Right,0,79,80,106.5,0.239583,Sixteenth,G5
782,Left,1,65,80,106.75,0.239583,Sixteenth,F4
781,Right,0,74,80,106.75,0.239583,Sixteenth,D5
783,Left,1,60,80,107.0,0.489583,Eighth,C4
784,Right,0,75,80,107.25,0.239583,Sixteenth,D#5
785,Left,1,65,80,107.25,0.239583,Sixteenth,F4
787,Left,1,57,80,107.5,0.489583,Eighth,A3
786,Right,0,77,80,107.5,0.239583,Sixteenth,F5
789,Left,1,65,80,107.75,0.239583,Sixteenth,F4
788,Right,0,72,80,107.75,0.239583,Sixteenth,C5
791,Right,0,75,80,108.0,0.239583,Sixteenth,D#5
790,Left,1,58,80,108.0,0.489583,Eighth,A#3
792,Left,1,65,80,108.25,0.239583,Sixteenth,F4
793,Right,0,74,80,108.25,0.239583,Sixteenth,D5
795,Left,1,59,80,108.5,0.489583,Eighth,B3
794,Right,0,79,80,108.5,0.239583,Sixteenth,G5
797,Right,0,74,80,108.75,0.239583,Sixteenth,D5
796,Left,1,65,80,108.75,0.239583,Sixteenth,F4
798,Left,1,60,80,109.0,0.489583,Eighth,C4
799,Left,1,65,81,109.25,0.239583,Sixteenth,F4
800,Right,0,75,81,109.25,0.239583,Sixteenth,D#5
801,Left,1,57,82,109.5,0.489583,Eighth,A3
802,Right,0,77,82,109.5,0.239583,Sixteenth,F5
804,Left,1,65,83,109.75,0.239583,Sixteenth,F4
803,Right,0,72,83,109.75,0.239583,Sixteenth,C5
806,Left,1,58,85,110.0,0.489583,Eighth,A#3
805,Right,0,74,85,110.0,0.239583,Sixteenth,D5
807,Left,1,62,86,110.25,0.239583,Sixteenth,D4
808,Right,0,75,86,110.25,0.239583,Sixteenth,D#5
809,Left,1,57,87,110.5,0.489583,Eighth,A3
810,Right,0,76,87,110.5,0.239583,Sixteenth,E5
812,Right,0,77,89,110.75,0.239583,Sixteenth,F5
811,Left,1,60,89,110.75,0.239583,Sixteenth,C4
814,Right,0,78,90,111.0,0.239583,Sixteenth,F#5
813,Left,1,55,90,111.0,0.489583,Eighth,G3
816,Right,0,79,91,111.25,0.239583,Sixteenth,G5
815,Left,1,58,91,111.25,0.239583,Sixteenth,A#3
817,Right,0,81,93,111.5,0.239583,Sixteenth,A5
818,Left,1,55,93,111.5,0.489583,Eighth,G3
820,Right,0,82,94,111.75,0.239583,Sixteenth,A#5
819,Left,1,58,94,111.75,0.239583,Sixteenth,A#3
821,Left,1,48,95,112.0,0.489583,Eighth,C3
822,Right,0,84,95,112.0,0.239583,Sixteenth,C6
823,Left,1,58,97,112.25,0.239583,Sixteenth,A#3
824,Right,0,85,97,112.25,0.239583,Sixteenth,C#6
826,Left,1,48,98,112.5,0.489583,Eighth,C3
825,Right,0,86,98,112.5,0.239583,Sixteenth,D6
828,Left,1,58,99,112.75,0.239583,Sixteenth,A#3
827,Right,0,76,99,112.75,0.239583,Sixteenth,E5
829,Left,1,53,80,113.0,1.489583,DottedQuarter,F3
830,Right,0,79,80,113.0,0.489583,Eighth,G5
831,Left,1,58,80,113.25,0.239583,Sixteenth,A#3
832,Left,1,57,80,113.5,0.239583,Sixteenth,A3
833,Left,1,55,80,113.75,0.239583,Sixteenth,G3
834,Left,1,57,80,114.0,0.489583,Eighth,A3
835,Right,0,77,80,114.25,0.239583,Sixteenth,F5_F4
837,Right,0,67,80,114.5,0.239583,Sixteenth,G5_G4
839,Right,0,77,80,114.75,0.239583,Sixteenth,F5_F4
841,Right,0,63,80,115.0,0.239583,Sixteenth,D#5_D#4
843,Left,1,46,80,115.0,0.489583,Eighth,A#2
844,Left,1,53,80,115.25,0.239583,Sixteenth,F3
845,Right,0,62,80,115.25,0.239583,Sixteenth,D5_D4
847,Left,1,50,80,115.5,0.489583,Eighth,D3
848,Right,0,72,80,115.5,0.239583,Sixteenth,C5_C4
850,Right,0,70,80,115.75,0.239583,Sixteenth,A#4_A#3
851,Left,1,53,80,115.75,0.239583,Sixteenth,F3
853,Right,0,69,80,116.0,0.489583,Eighth,A4_A3
855,Left,1,48,80,116.0,0.489583,Eighth,C3
856,Left,1,53,80,116.25,0.239583,Sixteenth,F3
859,Left,1,46,80,116.5,0.489583,Eighth,A#2
857,Right,0,70,80,116.5,0.489583,Eighth,A#4_A#3
860,Left,1,53,80,116.75,0.239583,Sixteenth,F3
861,Left,1,51,80,117.0,1.989583,Half,D#3_A2
863,Right,0,59,80,117.0,0.489583,Eighth,B4_B3
865,Left,1,53,80,117.25,0.239583,Sixteenth,F3
868,Left,1,53,80,117.5,0.239583,Sixteenth,F3
866,Right,0,60,80,117.5,0.739583,DottedEighth,C5_C4
869,Left,1,53,80,117.75,0.239583,Sixteenth,F3
870,Left,1,53,80,118.0,0.239583,Sixteenth,F3
871,Right,0,66,80,118.25,0.239583,Sixteenth,F#5_F#4
872,Left,1,53,80,118.25,0.239583,Sixteenth,F3
875,Right,0,69,80,118.5,0.239583,Sixteenth,A5_A4
874,Left,1,53,80,118.5,0.239583,Sixteenth,F3
877,Right,0,79,80,118.75,0.239583,Sixteenth,G5_G4
879,Left,1,53,80,118.75,0.239583,Sixteenth,F3
880,Left,1,45,80,119.0,0.489583,Eighth,A2
881,Right,0,77,80,119.0,0.239583,Sixteenth,F5_F4
883,Left,1,53,80,119.25,0.239583,Sixteenth,F3
884,Right,0,63,80,119.25,0.239583,Sixteenth,D#5_D#4
887,Right,0,62,80,119.5,0.239583,Sixteenth,D5_D4
886,Left,1,51,80,119.5,0.489583,Eighth,D#3
890,Left,1,53,80,119.75,0.239583,Sixteenth,F3
889,Right,0,60,80,119.75,0.239583,Sixteenth,C5_C4
894,Left,1,50,80,120.0,0.489583,Eighth,D3
892,Right,0,69,80,120.0,0.239583,Sixteenth,A4_A3
897,Left,1,53,80,120.25,0.239583,Sixteenth,F3
895,Right,0,70,80,120.25,0.239583,Sixteenth,A#4_A#3
899,Left,1,45,80,120.5,0.489583,Eighth,A2
898,Right,0,59,80,120.5,0.239583,Sixteenth,B4_B3
902,Right,0,72,80,120.75,0.239583,Sixteenth,C5_C4
901,Left,1,53,80,120.75,0.239583,Sixteenth,F3
904,Right,0,61,80,121.0,0.489583,Eighth,C#5_C#4
906,Left,1,46,80,121.0,1.489583,DottedQuarter,A#2
907,Left,1,53,80,121.25,0.239583,Sixteenth,F3
908,Right,0,62,80,121.5,0.739583,DottedEighth,D5_D4
910,Left,1,53,80,121.5,0.239583,Sixteenth,F3
911,Left,1,53,80,121.75,0.239583,Sixteenth,F3
912,Left,1,53,80,122.0,0.239583,Sixteenth,F3
913,Left,1,53,80,122.25,0.239583,Sixteenth,F3
915,Right,0,79,80,122.5,0.989583,Sixteenth,G5_G#4
914,Left,1,46,80,122.5,0.489583,Eighth,A#2
918,Right,0,74,80,122.75,0.239583,Sixteenth,D5
917,Left,1,53,80,122.75,0.239583,Sixteenth,F3
919,Left,1,48,80,123.0,0.489583,Eighth,C3
920,Right,0,77,80,123.0,0.239583,Sixteenth,F5
921,Right,0,75,80,123.25,0.239583,Sixteenth,D#5
922,Left,1,53,80,123.25,0.239583,Sixteenth,F3
924,Right,0,69,80,123.5,0.489583,Eighth,F5_A4
923,Left,1,45,80,123.5,0.489583,Eighth,A2
926,Right,0,72,80,123.75,0.239583,Sixteenth,C5
927,Left,1,53,80,123.75,0.239583,Sixteenth,F3
930,Left,1,46,80,124.0,0.489583,Eighth,A#2
928,Right,0,75,80,124.0,0.489583,Sixteenth,D#5_A#4
932,Left,1,53,80,124.25,0.239583,Sixteenth,F3
931,Right,0,74,80,124.25,0.239583,Sixteenth,D5
933,Left,1,47,80,124.5,0.489583,Eighth,B2
934,Right,0,79,80,124.5,0.989583,Sixteenth,G5_G#4
936,Left,1,53,80,124.75,0.239583,Sixteenth,F3
937,Right,0,74,80,124.75,0.239583,Sixteenth,D5
939,Left,1,48,80,125.0,0.489583,Eighth,C3
938,Right,0,77,80,125.0,0.239583,Sixteenth,F5
940,Right,0,75,80,125.25,0.239583,Sixteenth,D#5
941,Left,1,53,80,125.25,0.239583,Sixteenth,F3
944,Left,1,45,80,125.5,0.489583,Eighth,A2
942,Right,0,69,80,125.5,0.489583,Eighth,F5_A4
945,Right,0,72,80,125.75,0.239583,Sixteenth,C5
946,Left,1,53,80,125.75,0.239583,Sixteenth,F3
948,Left,1,46,80,126.0,0.489583,Eighth,A#2
947,Right,0,75,80,126.0,0.239583,Sixteenth,D#5_A#4
950,Left,1,53,80,126.25,0.239583,Sixteenth,F3
951,Right,0,74,80,126.25,0.239583,Sixteenth,D5_D4
953,Left,1,44,80,126.5,0.489583,Eighth,G#2
954,Right,0,75,80,126.5,0.239583,Sixteenth,D#5_D#4
956,Left,1,46,80,126.75,0.239583,Sixteenth,A#2
957,Right,0,65,80,126.75,0.239583,Sixteenth,F5_F4
959,Right,0,78,80,127.0,0.239583,Sixteenth,F#5_F#4
960,Left,1,43,80,127.0,0.489583,Eighth,G2
963,Left,1,46,80,127.25,0.239583,Sixteenth,A#2
962,Right,0,79,80,127.25,0.239583,Sixteenth,G5_G4
966,Left,1,39,80,127.5,0.489583,Eighth,D#2
965,Right,0,69,80,127.5,0.239583,Sixteenth,A5_A4
970,Left,1,51,80,127.75,0.239583,Sixteenth,D#3
968,Right,0,70,80,127.75,0.239583,Sixteenth,A#5_A#4
972,Right,0,58,80,128.0,0.489583,Eighth,A#4_A#3
971,Left,1,41,80,128.0,0.489583,Eighth,F2
974,Left,1,50,80,128.25,0.239583,Sixteenth,D3
975,Left,1,41,80,128.5,0.489583,Eighth,F2
976,Right,0,60,80,128.5,0.489583,Eighth,C5_C4
978,Left,1,45,80,128.75,0.239583,Sixteenth,A2
980,Right,0,73,80,129.0,0.489583,Eighth,C#5_C#4
979,Left,1,38,80,129.0,0.239583,Sixteenth,D2
982,Left,1,46,80,129.25,1.239583,TiedQuarter-Sixteenth,A#2
983,Right,0,74,80,129.5,0.614583,Eighth,D5_D4
985,Left,1,58,80,129.5,0.239583,Sixteenth,A#3
986,Left,1,58,80,129.75,0.239583,Sixteenth,A#3
987,Left,1,58,80,130.0,0.239583,Sixteenth,A#3
988,Right,0,70,80,130.125,0.239583,Sixteenth,A#4
990,Right,0,69,80,130.25,0.239583,Sixteenth,A4
989,Left,1,58,80,130.25,0.239583,Sixteenth,A#3
991,Right,0,70,80,130.375,0.239583,Sixteenth,A#4
993,Right,0,71,80,130.5,0.239583,Sixteenth,B4
992,Left,1,57,80,130.5,0.489583,Eighth,A3
994,Right,0,72,80,130.625,0.239583,Sixteenth,C5
996,Left,1,58,80,130.75,0.239583,Sixteenth,A#3
995,Right,0,73,80,130.75,0.239583,Sixteenth,C#5
997,Right,0,74,80,130.875,0.239583,Sixteenth,D5
998,Right,0,75,80,131.0,0.239583,Sixteenth,D#5
999,Left,1,55,80,131.0,0.489583,Eighth,G3
1000,Right,0,76,80,131.125,0.239583,Sixteenth,E5
1001,Right,0,77,80,131.25,0.239583,Sixteenth,F5
1002,Left,1,58,80,131.25,0.239583,Sixteenth,A#3
1003,Right,0,78,80,131.375,0.239583,Sixteenth,F#5
1004,Right,0,79,80,131.5,0.239583,Sixteenth,G5
1005,Left,1,53,80,131.5,0.489583,Eighth,F3
1006,Right,0,80,80,131.625,0.239583,Sixteenth,G#5
1007,Right,0,81,80,131.75,0.239583,Sixteenth,A5
1008,Left,1,63,80,131.75,0.239583,Sixteenth,D#4
1009,Right,0,82,80,131.875,0.239583,Sixteenth,A#5
1010,Right,0,70,80,132.0,0.239583,Sixteenth,A#4
1011,Left,1,53,80,132.0,0.489583,Eighth,F3
1012,Right,0,72,80,132.125,0.239583,Sixteenth,C5
1014,Right,0,69,80,132.25,0.239583,Sixteenth,A4
1013,Left,1,62,80,132.25,0.239583,Sixteenth,D4
1015,Right,0,70,80,132.375,0.239583,Sixteenth,A#4
1016,Left,1,53,80,132.5,0.489583,Eighth,F3
1017,Right,0,63,80,132.5,0.489583,Eighth,D5_D#4
1019,Left,1,57,80,132.75,0.239583,Sixteenth,A3
1020,Right,0,72,80,132.875,0.114583,ThirtySecond,C5
1023,Left,1,46,80,133.0,0.489583,Eighth,A#3_A#2
1021,Right,0,70,80,133.0,0.489583,Eighth,D4_A#4
1025,Left,1,46,110,134.0,0.989583,Quarter,C#3_A#2
1027,Right,0,53,110,134.0,0.989583,Quarter,F3_C#4
1029,Right,0,54,110,135.0,0.989583,Quarter,F#3_B3
1031,Left,1,47,110,135.0,1.489583,DottedEighth,D#2_B2
1034,Right,0,61,110,135.75,0.114583,ThirtySecond,C#4
1033,Left,1,49,110,135.75,0.114583,ThirtySecond,C#3
1035,Right,0,63,110,135.875,0.114583,ThirtySecond,D#4
1036,Left,1,51,110,135.875,0.114583,ThirtySecond,D#3
1037,Left,1,42,110,136.0,0.489583,Eighth,F#2
1038,Right,0,54,110,136.0,0.489583,Eighth,F#3
1040,Right,0,57,110,136.5,0.489583,Eighth,F3_A3
1039,Left,1,41,110,136.5,0.489583,Eighth,F2_A2
1043,Right,0,58,110,137.0,0.489583,Eighth,C#3_A#3
1044,Left,1,46,110,137.0,0.989583,Quarter,A#2_A#1
1047,Right,0,53,110,137.5,0.239583,Sixteenth,F3
1050,Right,0,61,110,138.0,0.989583,Quarter,F3_C#4
1048,Left,1,46,110,138.0,0.989583,Quarter,C#3_A#2
1052,Left,1,40,110,139.0,0.989583,Quarter,E2_C3
1054,Right,0,60,110,139.0,0.989583,Quarter,G3_C4
1058,Left,1,52,110,140.0,0.989583,Quarter,G3_E3
1056,Right,0,60,110,140.0,0.989583,Quarter,C4_A#4
1060,Right,0,60,110,141.0,0.489583,Eighth,G#4_C4
1061,Left,1,53,110,141.0,0.489583,Eighth,G#3_F3
1064,Right,0,68,110,141.5,0.989583,Quarter,G#4_F4
1066,Left,1,59,110,141.5,0.489583,Eighth,B3_B2
1068,Left,1,60,110,142.0,0.489583,Eighth,C4_C3
1073,Left,1,48,110,142.5,0.489583,Eighth,C3_C2
1070,Right,0,76,110,142.5,0.489583,Eighth,G4_E5_E4
1075,Right,0,65,110,143.0,0.239583,Sixteenth,G#4_F5_F4
1077,Left,1,41,110,143.0,0.239583,Sixteenth,F3_F2
1081,Left,1,43,80,143.25,0.239583,Sixteenth,G2_E2
1080,Right,0,60,80,143.25,0.114583,ThirtySecond,C4
1083,Right,0,58,80,143.375,0.114583,ThirtySecond,A#3
1084,Right,0,60,80,143.5,0.114583,ThirtySecond,C4
1085,Left,1,44,80,143.5,0.239583,Sixteenth,G#2_F2
1087,Right,0,56,80,143.625,0.114583,ThirtySecond,G#3
1088,Right,0,60,80,143.75,0.114583,ThirtySecond,C4
1089,Left,1,46,80,143.75,0.239583,Sixteenth,G2_A#2
1091,Right,0,55,80,143.875,0.114583,ThirtySecond,G3
1093,Right,0,60,80,144.0,0.114583,ThirtySecond,C4
1092,Left,1,44,80,144.0,0.239583,Sixteenth,G#2_C3
1095,Right,0,53,80,144.125,0.114583,ThirtySecond,F3
1096,Left,1,49,80,144.25,0.239583,Sixteenth,C#3_A#2
1098,Right,0,60,80,144.25,0.114583,ThirtySecond,C4
1099,Right,0,52,80,144.375,0.114583,ThirtySecond,E3
1101,Right,0,60,80,144.5,0.114583,ThirtySecond,C4
1100,Left,1,48,80,144.5,0.239583,Sixteenth,G#2_C3
1103,Right,0,53,80,144.625,0.114583,ThirtySecond,F3
1105,Right,0,60,80,144.75,0.114583,ThirtySecond,C4
1104,Left,1,43,80,144.75,0.239583,Sixteenth,G2_A#2
1107,Right,0,55,80,144.875,0.114583,ThirtySecond,G3
1109,Left,1,41,80,145.0,0.239583,Sixteenth,G#2_F2
1108,Right,0,60,80,145.0,0.239583,Sixteenth,C4
1111,Right,0,56,80,145.125,0.239583,Sixteenth,G#3
1113,Left,1,45,80,145.25,0.239583,Sixteenth,C3_A2
1112,Right,0,65,80,145.25,0.239583,Sixteenth,F4
1115,Right,0,63,80,145.375,0.239583,Sixteenth,D#4
1116,Right,0,65,80,145.5,0.239583,Sixteenth,F4
1117,Left,1,46,80,145.5,0.239583,Sixteenth,C#3_A#2
1119,Right,0,61,80,145.625,0.239583,Sixteenth,C#4
1121,Left,1,51,80,145.75,0.239583,Sixteenth,D#3_C3
1120,Right,0,65,80,145.75,0.239583,Sixteenth,F4
1123,Right,0,60,80,145.875,0.239583,Sixteenth,C4
1124,Left,1,53,80,146.0,0.239583,Sixteenth,F3_C#3
1126,Right,0,65,80,146.0,0.239583,Sixteenth,F4
1127,Right,0,58,80,146.125,0.239583,Sixteenth,A#3
1128,Right,0,65,80,146.25,0.239583,Sixteenth,F4
1129,Left,1,54,80,146.25,0.239583,Sixteenth,F#3_D#3
1131,Right,0,57,80,146.375,0.239583,Sixteenth,A3
1133,Left,1,49,80,146.5,0.239583,Sixteenth,F3_C#3
1132,Right,0,65,80,146.5,0.239583,Sixteenth,F4
1135,Right,0,58,80,146.625,0.239583,Sixteenth,A#3
1137,Left,1,51,80,146.75,0.239583,Sixteenth,D#3_C3
1136,Right,0,65,80,146.75,0.239583,Sixteenth,F4
1139,Right,0,60,80,146.875,0.239583,Sixteenth,C4
1140,Left,1,49,80,147.0,0.239583,Sixteenth,C#3_A#2
1141,Right,0,65,80,147.0,0.239583,Sixteenth,F4
1143,Right,0,61,80,147.125,0.239583,Sixteenth,C#4
1144,Left,1,49,81,147.25,0.239583,Sixteenth,C#3_A#2
1146,Right,0,65,81,147.25,0.239583,Sixteenth,F4
1147,Right,0,61,81,147.375,0.239583,Sixteenth,C#4
1149,Left,1,47,82,147.5,0.239583,Sixteenth,D3_B2
1148,Right,0,67,82,147.5,0.239583,Sixteenth,G4
1151,Right,0,65,82,147.625,0.239583,Sixteenth,F4
1154,Right,0,67,83,147.75,0.239583,Sixteenth,G4
1152,Left,1,47,83,147.75,0.239583,Sixteenth,D3_B2
1155,Right,0,65,83,147.875,0.239583,Sixteenth,F4
1156,Right,0,68,84,148.0,0.239583,Sixteenth,G#4
1157,Left,1,48,84,148.0,0.239583,Sixteenth,F3_C3
1159,Right,0,65,84,148.125,0.239583,Sixteenth,F4
1162,Right,0,68,85,148.25,0.239583,Sixteenth,G#4
1160,Left,1,53,85,148.25,0.239583,Sixteenth,F3_C3
1163,Right,0,65,85,148.375,0.239583,Sixteenth,F4
1164,Left,1,48,85,148.5,0.239583,Sixteenth,G3_C3
1166,Right,0,70,85,148.5,0.239583,Sixteenth,A#4
1167,Right,0,64,86,148.625,0.239583,Sixteenth,E4
1168,Right,0,70,86,148.75,0.239583,Sixteenth,A#4
1169,Left,1,55,86,148.75,0.239583,Sixteenth,G3_C3
1171,Right,0,64,87,148.875,0.239583,Sixteenth,E4
1172,Right,0,65,87,149.0,0.239583,Sixteenth,F4
1173,Left,1,53,87,149.0,0.239583,Sixteenth,F3_A3
1175,Right,0,72,88,149.25,0.239583,Sixteenth,C5_C4
1177,Left,1,40,88,149.25,0.239583,Sixteenth,E3_E2
1179,Right,0,70,89,149.375,0.239583,Sixteenth,A#4
1182,Left,1,41,89,149.5,0.239583,Sixteenth,F3_F2
1180,Right,0,72,89,149.5,0.239583,Sixteenth,C5_C4
1184,Right,0,68,90,149.625,0.239583,Sixteenth,G#4
1186,Right,0,60,90,149.75,0.239583,Sixteenth,C5_C4
1185,Left,1,55,90,149.75,0.239583,Sixteenth,G3_G2
1189,Right,0,67,91,149.875,0.239583,Sixteenth,G4
1190,Right,0,72,91,150.0,0.239583,Sixteenth,C5_C4
1191,Left,1,44,91,150.0,0.239583,Sixteenth,G#3_G#2
1194,Right,0,65,91,150.125,0.239583,Sixteenth,F4
1197,Left,1,46,92,150.25,0.239583,Sixteenth,A#3_A#2
1195,Right,0,60,92,150.25,0.239583,Sixteenth,C5_C4
1199,Right,0,64,92,150.375,0.239583,Sixteenth,E4
1200,Left,1,56,93,150.5,0.239583,Sixteenth,G#3_G#2
1202,Right,0,60,93,150.5,0.239583,Sixteenth,C5_C4
1204,Right,0,65,93,150.625,0.239583,Sixteenth,F4
1205,Left,1,43,94,150.75,0.239583,Sixteenth,G3_G2
1206,Right,0,60,94,150.75,0.239583,Sixteenth,C5_C4
1209,Right,0,67,94,150.875,0.239583,Sixteenth,G4
1210,Right,0,72,95,151.0,0.239583,Sixteenth,C5_C4
1211,Left,1,53,95,151.0,0.239583,Sixteenth,F3_F2
1214,Right,0,68,95,151.125,0.239583,Sixteenth,G#4
1215,Left,1,57,96,151.25,0.239583,Sixteenth,A3_A2
1217,Right,0,65,96,151.25,0.239583,Sixteenth,F4
1218,Right,0,75,96,151.375,0.239583,Sixteenth,D#5
1219,Left,1,58,97,151.5,0.239583,Sixteenth,A#3_A#2
1220,Right,0,77,97,151.5,0.239583,Sixteenth,F5_F4
1223,Right,0,73,97,151.625,0.239583,Sixteenth,C#5
1224,Left,1,60,97,151.75,0.239583,Sixteenth,C4_C3
1226,Right,0,77,97,151.75,0.239583,Sixteenth,F5_F4
1228,Right,0,72,98,151.875,0.239583,Sixteenth,C5
1230,Right,0,65,98,152.0,0.239583,Sixteenth,F5_F4
1229,Left,1,61,98,152.0,0.239583,Sixteenth,C#4_C#3
1233,Right,0,70,99,152.125,0.239583,Sixteenth,A#4
1236,Left,1,63,99,152.25,0.239583,Sixteenth,D#4_D#3
1234,Right,0,77,99,152.25,0.239583,Sixteenth,F5_F4
1238,Right,0,69,100,152.375,0.239583,Sixteenth,A4
1241,Left,1,61,100,152.5,0.239583,Sixteenth,C#4_C#3
1239,Right,0,65,100,152.5,0.239583,Sixteenth,F5_F4
1243,Right,0,70,101,152.625,0.239583,Sixteenth,A#4
1245,Right,0,65,101,152.75,0.239583,Sixteenth,F5_F4
1244,Left,1,60,101,152.75,0.239583,Sixteenth,C4_C3
1248,Right,0,72,102,152.875,0.239583,Sixteenth,C5
1249,Left,1,50,102,153.0,0.239583,Sixteenth,D3_A#3
1251,Right,0,77,102,153.0,0.239583,Sixteenth,F5_F4
1253,Right,0,73,103,153.125,0.239583,Sixteenth,C#5
1255,Left,1,58,103,153.25,0.239583,Sixteenth,C#4_A#3
1254,Right,0,77,103,153.25,0.239583,Sixteenth,F5_F4
1258,Right,0,73,103,153.375,0.239583,Sixteenth,C#5
1260,Left,1,59,104,153.5,0.239583,Sixteenth,D4_B3
1259,Right,0,79,104,153.5,0.239583,Sixteenth,G5_G4
1263,Right,0,77,104,153.625,0.239583,Sixteenth,F5
1264,Right,0,79,105,153.75,0.239583,Sixteenth,G5_G4
1266,Left,1,59,105,153.75,0.239583,Sixteenth,D4_B3
1268,Right,0,77,105,153.875,0.239583,Sixteenth,F5
1269,Left,1,65,106,154.0,0.239583,Sixteenth,F4_C4
1270,Right,0,80,106,154.0,0.239583,Sixteenth,G#5_G#4
1273,Right,0,77,106,154.125,0.239583,Sixteenth,F5
1275,Right,0,68,107,154.25,0.239583,Sixteenth,G#5_G#4
1274,Left,1,60,107,154.25,0.239583,Sixteenth,F4_C4
1278,Right,0,77,107,154.375,0.239583,Sixteenth,F5
1279,Left,1,60,108,154.5,0.239583,Sixteenth,G4_C4
1281,Right,0,82,108,154.5,0.239583,Sixteenth,A#5_A#4
1283,Right,0,76,108,154.625,0.239583,Sixteenth,E5
1284,Right,0,82,109,154.75,0.239583,Sixteenth,A#5_A#4
1286,Left,1,60,109,154.75,0.239583,Sixteenth,G4_C4
1288,Right,0,76,120,154.875,0.239583,Sixteenth,E5
1289,Right,0,77,120,155.0,0.239583,Sixteenth,F5
1290,Left,1,65,120,155.0,0.239583,Sixteenth,G#3_F4_F3_C4
1298,Right,0,89,120,155.25,0.489583,Eighth,F6
1294,Left,1,65,120,155.25,0.239583,Sixteenth,G#3_F4_F3_C4
1299,Left,1,53,120,155.5,0.239583,Sixteenth,G#3_F4_F3_C4
1303,Left,1,65,120,155.75,0.239583,Sixteenth,G#3_F4_F3_C4
1306,Right,0,89,120,155.75,0.239583,Sixteenth,F6
1308,Right,0,88,120,156.0,0.114583,ThirtySecond,E6
1309,Left,1,53,120,156.0,0.239583,Sixteenth,G3_F3_E4_C4_A#3
1314,Right,0,85,120,156.125,0.114583,ThirtySecond,C#6
1320,Right,0,82,120,156.25,0.114583,ThirtySecond,A#5
1315,Left,1,64,120,156.25,0.239583,Sixteenth,G3_F3_E4_C4_A#3
1321,Right,0,79,120,156.375,0.114583,ThirtySecond,G5
1322,Right,0,76,120,156.5,0.239583,Sixteenth,E5_C#5
1324,Left,1,64,120,156.5,0.239583,Sixteenth,G3_F3_E4_C4_A#3
1329,Right,0,72,120,156.625,0.114583,ThirtySecond,C5
1332,Left,1,60,120,156.75,0.239583,Sixteenth,G3_F3_E4_C4_A#3
1330,Right,0,73,120,156.75,0.239583,ThirtySecond,E5_C#5
1337,Right,0,70,120,156.875,0.114583,ThirtySecond,A#4
1339,Right,0,68,120,157.0,0.239583,Sixteenth,G#4
1338,Left,1,41,120,157.0,0.239583,Sixteenth,G#2_F3_F2_C3
1343,Left,1,41,120,157.25,0.239583,Sixteenth,G#2_F3_F2_C3
1347,Right,0,77,120,157.25,0.489583,Eighth,F5
1348,Left,1,41,120,157.5,0.239583,Sixteenth,G#2_F3_F2_C3
1352,Left,1,44,120,157.75,0.239583,Sixteenth,G#2_F3_F2_C3
1356,Right,0,77,120,157.75,0.989583,Quarter,F5
1357,Left,1,41,120,158.0,0.239583,Sixteenth,G2_F2_E3_C3_A#2
1359,Right,0,76,120,158.0,0.114583,ThirtySecond,E5
1363,Right,0,73,120,158.125,0.114583,ThirtySecond,C#5
1364,Left,1,46,120,158.25,0.239583,Sixteenth,G2_F2_E3_C3_A#2
1365,Right,0,70,120,158.25,0.114583,ThirtySecond,A#4
1370,Right,0,67,120,158.375,0.114583,ThirtySecond,G4
1371,Left,1,41,120,158.5,0.239583,Sixteenth,G2_F2_E3_C3_A#2
1374,Right,0,61,120,158.5,0.239583,ThirtySecond,E4_C#4
1378,Right,0,60,120,158.625,0.114583,ThirtySecond,C4
1380,Left,1,52,120,158.75,0.239583,Sixteenth,G2_F2_E3_C3_A#2
1379,Right,0,61,120,158.75,0.239583,ThirtySecond,E4_C#4
1386,Right,0,58,120,158.875,0.114583,ThirtySecond,A#3
1389,Right,0,65,120,159.0,0.489583,Eighth,G#3_F4
1387,Left,1,53,120,159.0,0.989583,Quarter,F3_F2
1391,Left,1,44,110,160.0,0.989583,Quarter,G#2
1392,Left,1,43,110,161.0,0.739583,DottedEighth,G2
1393,Right,0,58,110,161.5,1.114583,TiedQuarter-ThirtySecond,A#3
1394,Left,1,44,110,161.75,0.114583,ThirtySecond,G#2
1395,Left,1,46,110,161.875,0.114583,ThirtySecond,A#2
1396,Left,1,38,110,162.0,0.489583,Eighth,D2
1397,Left,1,40,110,162.5,0.489583,Eighth,E2
1398,Right,0,61,110,162.625,0.114583,ThirtySecond,C#4
1399,Right,0,60,110,162.75,0.114583,ThirtySecond,C4
1400,Right,0,58,110,162.875,0.114583,ThirtySecond,A#3
1401,Right,0,56,110,163.0,0.489583,Eighth,G#3
1402,Left,1,41,110,163.0,0.489583,Eighth,F2
1403,Right,0,53,110,163.5,0.489583,Eighth,F3
1404,Left,1,49,110,164.0,0.989583,Quarter,C#3
1405,Left,1,48,110,165.0,0.739583,DottedEighth,C3
1406,Right,0,63,110,165.5,1.114583,TiedQuarter-ThirtySecond,D#4
1407,Left,1,49,110,165.75,0.114583,ThirtySecond,C#3
1408,Left,1,51,110,165.875,0.114583,ThirtySecond,D#3
1409,Left,1,43,110,166.0,0.489583,Eighth,G2
1410,Left,1,45,110,166.5,0.489583,Eighth,A2
1411,Right,0,66,110,166.625,0.114583,ThirtySecond,F#4
1412,Right,0,65,110,166.75,0.114583,ThirtySecond,F4
1413,Right,0,63,110,166.875,0.114583,ThirtySecond,D#4
1415,Left,1,46,110,167.0,0.489583,Eighth,A#2
1414,Right,0,61,110,167.0,0.489583,Eighth,C#4
1416,Right,0,58,110,167.5,0.489583,Eighth,A#3
1417,Right,0,73,110,168.0,0.989583,Quarter,C#5
1418,Right,0,72,110,169.0,1.614583,DottedEighth,D#4_C5
1420,Right,0,73,110,169.75,0.114583,ThirtySecond,C#5
1421,Right,0,75,110,169.875,0.114583,ThirtySecond,D#5
1422,Left,1,53,110,170.0,0.989583,Quarter,F3
1423,Right,0,67,110,170.0,0.489583,Eighth,G4
1424,Right,0,69,110,170.5,0.489583,Eighth,A4
1425,Right,0,66,110,170.625,0.114583,ThirtySecond,F#4
1426,Right,0,65,110,170.75,0.114583,ThirtySecond,F4
1427,Right,0,63,110,170.875,0.114583,ThirtySecond,D#4
1430,Left,1,46,110,171.0,0.489583,Eighth,A#2
1428,Right,0,61,110,171.0,0.989583,Eighth,C#4_A#4
1431,Right,0,58,110,171.5,0.489583,Eighth,A#3
1432,Right,0,78,110,172.0,0.989583,Quarter,F#5
1433,Right,0,77,110,173.0,1.989583,Half,G#4_F5
1435,Right,0,78,110,173.75,0.114583,ThirtySecond,F#5
1436,Right,0,80,110,173.875,0.114583,ThirtySecond,G#5
1438,Left,1,58,110,174.0,0.989583,Quarter,A#3
1437,Right,0,72,110,174.0,0.489583,Eighth,C5
1439,Right,0,74,110,174.5,0.489583,Eighth,D5
1440,Right,0,71,110,174.625,0.114583,ThirtySecond,B4
1441,Right,0,70,110,174.75,0.114583,ThirtySecond,A#4
1442,Right,0,68,110,174.875,0.114583,ThirtySecond,G#4
1445,Left,1,51,110,175.0,0.489583,Eighth,D#3
1443,Right,0,66,110,175.0,0.989583,Eighth,F#4_D#5
1446,Right,0,63,110,175.5,0.489583,Eighth,D#4
1447,Left,1,54,110,176.0,0.989583,Quarter,F#3_A#3
1449,Left,1,53,110,177.0,0.739583,DottedEighth,G#3_F3
1451,Right,0,83,110,177.5,1.239583,TiedQuarter-Sixteenth,G#5_B5
1453,Left,1,54,110,177.75,0.114583,ThirtySecond,F#3_A#3
1455,Left,1,56,110,177.875,0.114583,ThirtySecond,G#3_B3
1457,Left,1,48,110,178.0,0.489583,Eighth,D#3_C3
1459,Left,1,50,110,178.5,0.489583,Eighth,F3_D3
1461,Right,0,82,110,178.75,0.114583,ThirtySecond,F#5_A#5
1463,Right,0,80,110,178.875,0.114583,ThirtySecond,G#5
1464,Right,0,75,110,179.0,0.489583,Eighth,F#5_D#5
1466,Left,1,54,110,179.0,0.739583,DottedEighth,F#3_D#3
1468,Right,0,78,110,179.5,1.239583,TiedQuarter-Sixteenth,F#5_A#5
1470,Left,1,53,110,179.75,0.114583,ThirtySecond,G#3_F3
1472,Left,1,58,110,179.875,0.114583,ThirtySecond,F#3_A#3
1474,Left,1,46,110,180.0,0.489583,Eighth,C#3_A#2
1476,Left,1,53,110,180.5,0.489583,Eighth,F3_C#3
1478,Right,0,77,110,180.75,0.114583,ThirtySecond,G#5_F5
1480,Right,0,78,110,180.875,0.114583,ThirtySecond,F#5_D#5
1482,Left,1,53,110,181.0,0.489583,Eighth,F3_C#3
1484,Right,0,73,110,181.0,0.739583,DottedEighth,F5_C#5
1486,Left,1,53,110,181.5,1.239583,TiedQuarter-Sixteenth,G#3_F3
1488,Right,0,75,110,181.75,0.114583,ThirtySecond,F#5_D#5
1490,Right,0,77,110,181.875,0.114583,ThirtySecond,G#5_F5
1492,Right,0,68,110,182.0,0.489583,Eighth,G#4_C5
1494,Right,0,70,110,182.5,0.489583,Eighth,C#5_A#4
1496,Left,1,54,110,182.75,0.114583,ThirtySecond,F#3_D#3
1498,Left,1,53,110,182.875,0.114583,ThirtySecond,F3_C#3
1500,Left,1,48,110,183.0,0.489583,Eighth,D#3_C3
1502,Right,0,72,110,183.0,0.739583,DottedEighth,D#5_C5
1504,Left,1,63,110,183.5,1.239583,TiedQuarter-Sixteenth,F#4_D#4
1506,Right,0,73,110,183.75,0.989583,ThirtySecond,F5_C#5
1508,Right,0,78,110,183.875,0.114583,ThirtySecond,F#5_D#5
1510,Right,0,67,110,184.0,0.489583,Eighth,G4_A#4
1512,Right,0,69,110,184.5,0.489583,Eighth,C5_A4
1514,Left,1,65,110,184.75,0.114583,ThirtySecond,F4_C#4
1516,Left,1,60,110,184.875,0.114583,ThirtySecond,D#4_C4
1520,Left,1,58,110,185.0,0.739583,DottedEighth,C#4_A#3
1518,Right,0,70,110,185.0,0.989583,Quarter,C#5_A#4
1524,Right,0,75,112,185.75,0.114583,ThirtySecond,D#5
1522,Left,1,56,112,185.75,0.239583,Sixteenth,G#3_C4
1525,Right,0,77,112,185.875,0.614583,Eighth,F5
1526,Right,0,78,112,186.0,0.989583,DottedEighth,F#5_C#5
1527,Left,1,58,112,186.0,0.739583,DottedEighth,F#3_A#3
1530,Left,1,53,114,186.75,0.239583,Sixteenth,G#3_F3
1532,Right,0,80,114,186.75,0.114583,ThirtySecond,G#5
1533,Right,0,82,115,186.875,0.114583,ThirtySecond,A#5
1534,Right,0,78,115,187.0,0.989583,Quarter,F#5_B5
1536,Left,1,54,115,187.0,0.989583,Eighth,F#3_D#3
1538,Left,1,63,117,187.5,0.489583,Eighth,D#4
1539,Right,0,85,117,187.75,0.114583,ThirtySecond,C#6
1540,Right,0,87,118,187.875,0.114583,ThirtySecond,D#6
1543,Left,1,53,118,188.0,0.489583,Eighth,F3_C#4
1541,Right,0,70,118,188.0,0.489583,Eighth,F4_A#4
1546,Right,0,63,119,188.5,0.489583,Eighth,D#4_A4
1545,Left,1,53,119,188.5,0.489583,Eighth,F3_C4
1549,Right,0,70,120,189.0,0.239583,Sixteenth,C#4_A#4
1550,Left,1,46,120,189.0,0.239583,Sixteenth,A#3_A#2
1553,Left,1,45,80,189.25,0.239583,Sixteenth,C3_A2
1555,Right,0,65,80,189.25,0.239583,Sixteenth,F4
1556,Right,0,63,80,189.375,0.239583,Sixteenth,D#4
1558,Right,0,65,80,189.5,0.239583,Sixteenth,F4
1557,Left,1,49,80,189.5,0.239583,Sixteenth,C#3_A#2
1560,Right,0,61,80,189.625,0.239583,Sixteenth,C#4
1562,Right,0,65,80,189.75,0.239583,Sixteenth,F4
1561,Left,1,48,80,189.75,0.239583,Sixteenth,D#3_C3
1564,Right,0,60,80,189.875,0.239583,Sixteenth,C4
1566,Left,1,49,80,190.0,0.239583,Sixteenth,F3_C#3
1565,Right,0,65,80,190.0,0.239583,Sixteenth,F4
1568,Right,0,58,80,190.125,0.239583,Sixteenth,A#3
1570,Left,1,51,80,190.25,0.239583,Sixteenth,F#3_D#3
1569,Right,0,65,80,190.25,0.239583,Sixteenth,F4
1572,Right,0,57,80,190.375,0.239583,Sixteenth,A3
1574,Left,1,49,80,190.5,0.239583,Sixteenth,F3_C#3
1573,Right,0,65,80,190.5,0.239583,Sixteenth,F4
1576,Right,0,58,80,190.625,0.239583,Sixteenth,A#3
1578,Left,1,51,80,190.75,0.239583,Sixteenth,D#3_C3
1577,Right,0,65,80,190.75,0.239583,Sixteenth,F4
1580,Right,0,60,80,190.875,0.239583,Sixteenth,C4
1583,Right,0,65,80,191.0,0.239583,Sixteenth,F4
1581,Left,1,46,80,191.0,0.239583,Sixteenth,C#3_A#2
1584,Right,0,61,80,191.125,0.239583,Sixteenth,C#4
1586,Right,0,70,80,191.25,0.239583,Sixteenth,A#4
1585,Left,1,53,80,191.25,0.239583,Sixteenth,F3_D3
1588,Right,0,68,80,191.375,0.239583,Sixteenth,G#4
1589,Right,0,70,80,191.5,0.239583,Sixteenth,A#4
1590,Left,1,54,80,191.5,0.239583,Sixteenth,F#3_D#3
1592,Right,0,66,80,191.625,0.239583,Sixteenth,F#4
1593,Right,0,70,80,191.75,0.239583,Sixteenth,A#4
1594,Left,1,56,80,191.75,0.239583,Sixteenth,G#3_F3
1596,Right,0,65,80,191.875,0.239583,Sixteenth,F4
1598,Right,0,70,80,192.0,0.239583,Sixteenth,A#4
1597,Left,1,58,80,192.0,0.239583,Sixteenth,F#3_A#3
1600,Right,0,63,80,192.125,0.239583,Sixteenth,D#4
1603,Right,0,70,80,192.25,0.239583,Sixteenth,A#4
1601,Left,1,56,80,192.25,0.239583,Sixteenth,G#3_B3
1604,Right,0,62,80,192.375,0.239583,Sixteenth,D4
1606,Right,0,70,80,192.5,0.239583,Sixteenth,A#4
1605,Left,1,58,80,192.5,0.239583,Sixteenth,F#3_A#3
1608,Right,0,63,80,192.625,0.239583,Sixteenth,D#4
1609,Left,1,56,80,192.75,0.239583,Sixteenth,G#3_F3
1610,Right,0,70,80,192.75,0.239583,Sixteenth,A#4
1612,Right,0,65,80,192.875,0.239583,Sixteenth,F4
1613,Left,1,51,80,193.0,0.239583,Sixteenth,F#3_D#3
1615,Right,0,70,80,193.0,0.239583,Sixteenth,A#4
1616,Right,0,66,80,193.125,0.239583,Sixteenth,F#4
1617,Left,1,51,80,193.25,0.239583,Sixteenth,F#3_D#3
1619,Right,0,70,80,193.25,0.239583,Sixteenth,A#4
1620,Right,0,66,80,193.375,0.239583,Sixteenth,F#4
1622,Left,1,52,80,193.5,0.239583,Sixteenth,G3_E3
1621,Right,0,72,80,193.5,0.239583,Sixteenth,C5
1624,Right,0,70,80,193.625,0.239583,Sixteenth,A#4
1626,Left,1,52,80,193.75,0.239583,Sixteenth,G3_E3
1625,Right,0,72,80,193.75,0.239583,Sixteenth,C5
1628,Right,0,70,80,193.875,0.239583,Sixteenth,A#4
1630,Left,1,58,80,194.0,0.239583,Sixteenth,F3_A#3
1629,Right,0,73,80,194.0,0.239583,Sixteenth,C#5
1632,Right,0,70,80,194.125,0.239583,Sixteenth,A#4
1633,Left,1,58,80,194.25,0.239583,Sixteenth,F3_A#3
1634,Right,0,73,80,194.25,0.239583,Sixteenth,C#5
1636,Right,0,70,80,194.375,0.239583,Sixteenth,A#4
1639,Right,0,75,80,194.5,0.239583,Sixteenth,D#5
1637,Left,1,53,80,194.5,0.239583,Sixteenth,F3_C4
1640,Right,0,69,80,194.625,0.239583,Sixteenth,A4
1643,Right,0,75,80,194.75,0.239583,Sixteenth,D#5
1641,Left,1,53,80,194.75,0.239583,Sixteenth,F3_C4
1644,Right,0,69,80,194.875,0.239583,Sixteenth,A4
1645,Left,1,58,80,195.0,0.239583,Sixteenth,A#3_A#2
1647,Right,0,70,80,195.0,0.239583,Sixteenth,A#4
1648,Left,1,45,81,195.25,0.239583,Sixteenth,A3_A2
1649,Right,0,65,81,195.25,0.239583,Sixteenth,F4
1651,Right,0,75,82,195.375,0.239583,Sixteenth,D#5
1654,Left,1,58,83,195.5,0.239583,Sixteenth,A#3_A#2
1652,Right,0,77,83,195.5,0.239583,Sixteenth,F5_F4
1656,Right,0,73,83,195.625,0.239583,Sixteenth,C#5
1657,Right,0,77,84,195.75,0.239583,Sixteenth,F5_F4
1658,Left,1,60,84,195.75,0.239583,Sixteenth,C4_C3
1661,Right,0,72,85,195.875,0.239583,Sixteenth,C5
1662,Left,1,61,85,196.0,0.239583,Sixteenth,C#4_C#3
1663,Right,0,77,85,196.0,0.239583,Sixteenth,F5_F4
1666,Right,0,70,86,196.125,0.239583,Sixteenth,A#4
1667,Left,1,51,87,196.25,0.239583,Sixteenth,D#4_D#3
1669,Right,0,77,87,196.25,0.239583,Sixteenth,F5_F4
1671,Right,0,69,87,196.375,0.239583,Sixteenth,A4
1673,Right,0,77,88,196.5,0.239583,Sixteenth,F5_F4
1672,Left,1,49,88,196.5,0.239583,Sixteenth,C#4_C#3
1676,Right,0,70,88,196.625,0.239583,Sixteenth,A#4
1677,Right,0,65,89,196.75,0.239583,Sixteenth,F5_F4
1678,Left,1,48,89,196.75,0.239583,Sixteenth,C4_C3
1681,Right,0,72,90,196.875,0.239583,Sixteenth,C5
1682,Left,1,58,90,197.0,0.239583,Sixteenth,A#3_A#2
1684,Right,0,77,90,197.0,0.239583,Sixteenth,F5_F4
1686,Right,0,73,91,197.125,0.239583,Sixteenth,C#5
1688,Right,0,82,92,197.25,0.239583,Sixteenth,A#5_A#4
1687,Left,1,62,92,197.25,0.239583,Sixteenth,D4_D3
1691,Right,0,80,92,197.375,0.239583,Sixteenth,G#5
1692,Right,0,70,93,197.5,0.239583,Sixteenth,A#5_A#4
1694,Left,1,51,93,197.5,0.239583,Sixteenth,D#4_D#3
1696,Right,0,78,94,197.625,0.239583,Sixteenth,F#5
1697,Left,1,65,94,197.75,0.239583,Sixteenth,F4_F3
1698,Right,0,70,94,197.75,0.239583,Sixteenth,A#5_A#4
1701,Right,0,77,95,197.875,0.239583,Sixteenth,F5
1702,Left,1,66,95,198.0,0.239583,Sixteenth,F#4_F#3
1703,Right,0,70,95,198.0,0.239583,Sixteenth,A#5_A#4
1706,Right,0,75,96,198.125,0.239583,Sixteenth,D#5
1707,Left,1,68,97,198.25,0.239583,Sixteenth,G#4_G#3
1709,Right,0,70,97,198.25,0.239583,Sixteenth,A#5_A#4
1711,Right,0,74,97,198.375,0.239583,Sixteenth,D5
1713,Left,1,66,98,198.5,0.239583,Sixteenth,F#4_F#3
1712,Right,0,70,98,198.5,0.239583,Sixteenth,A#5_A#4
1716,Right,0,75,99,198.625,0.239583,Sixteenth,D#5
1717,Left,1,65,99,198.75,0.239583,Sixteenth,F4_F3
1719,Right,0,82,99,198.75,0.239583,Sixteenth,A#5_A#4
1721,Right,0,77,100,198.875,0.239583,Sixteenth,F5
1722,Left,1,63,101,199.0,0.239583,Sixteenth,D#4_D#3
1724,Right,0,70,101,199.0,0.239583,Sixteenth,A#5_A#4
1726,Right,0,78,101,199.125,0.239583,Sixteenth,F#5
1727,Left,1,66,102,199.25,0.239583,Sixteenth,F#4_D#4
1728,Right,0,70,102,199.25,0.239583,Sixteenth,A#5_A#4
1731,Right,0,78,102,199.375,0.239583,Sixteenth,F#5
1733,Left,1,67,103,199.5,0.239583,Sixteenth,G4_E4
1732,Right,0,72,103,199.5,0.239583,Sixteenth,C6_C5
1736,Right,0,82,104,199.625,0.239583,Sixteenth,A#5
1739,Left,1,64,104,199.75,0.239583,Sixteenth,G4_E4
1737,Right,0,84,104,199.75,0.239583,Sixteenth,C6_C5
1741,Right,0,82,105,199.875,0.239583,Sixteenth,A#5
1743,Left,1,65,106,200.0,0.239583,Sixteenth,F4_A#4
1742,Right,0,85,106,200.0,0.239583,Sixteenth,C#6_C#5
1746,Right,0,82,106,200.125,0.239583,Sixteenth,A#5
1748,Left,1,70,107,200.25,0.239583,Sixteenth,F4_A#4
1747,Right,0,73,107,200.25,0.239583,Sixteenth,C#6_C#5
1751,Right,0,82,108,200.375,0.239583,Sixteenth,A#5
1752,Right,0,75,108,200.5,0.239583,Sixteenth,D#6_D#5
1754,Left,1,65,108,200.5,0.239583,Sixteenth,F4_C5
1756,Right,0,81,109,200.625,0.239583,Sixteenth,A5
1758,Left,1,72,109,200.75,0.239583,Sixteenth,F4_C5
1757,Right,0,75,109,200.75,0.239583,Sixteenth,D#6_D#5
1761,Right,0,81,120,200.875,0.239583,Sixteenth,A5
1762,Left,1,70,120,201.0,0.239583,Sixteenth,F4_C#4_A#4_A#3
1766,Right,0,82,120,201.0,0.239583,Sixteenth,A#5
1767,Left,1,70,120,201.25,0.239583,Sixteenth,F4_C#4_A#4_A#3
1771,Right,0,89,120,201.25,0.489583,Eighth,F6
1772,Left,1,58,120,201.5,0.239583,Sixteenth,F4_C#4_A#4_A#3
1780,Right,0,89,120,201.75,0.239583,Sixteenth,F6
1776,Left,1,58,120,201.75,0.239583,Sixteenth,F4_C#4_A#4_A#3
1782,Left,1,69,120,202.0,0.239583,Sixteenth,F4_D#4_C4_A4_A#3
1781,Right,0,87,120,202.0,0.239583,Sixteenth,D#6
1787,Right,0,84,120,202.125,0.239583,Sixteenth,C6
1788,Left,1,63,120,202.25,0.239583,Sixteenth,F4_D#4_C4_A4_A#3
1789,Right,0,81,120,202.25,0.239583,Sixteenth,A5
1794,Right,0,77,120,202.375,0.239583,Sixteenth,F5
1796,Left,1,69,120,202.5,0.239583,Sixteenth,F4_D#4_C4_A4_A#3
1795,Right,0,75,120,202.5,0.239583,Sixteenth,D#5
1801,Right,0,74,120,202.625,0.239583,Sixteenth,D5
1802,Right,0,75,120,202.75,0.239583,Sixteenth,D#5
1803,Left,1,58,120,202.75,0.239583,Sixteenth,F4_D#4_C4_A4_A#3
1808,Right,0,72,120,202.875,0.114583,ThirtySecond,C5
1811,Right,0,70,120,203.0,0.239583,Sixteenth,A#4
1809,Left,1,53,120,203.0,0.239583,Sixteenth,F3_C#3_A#3_A#2
1815,Left,1,58,120,203.25,0.239583,Sixteenth,F3_C#3_A#3_A#2
1814,Right,0,77,120,203.25,0.489583,Eighth,F5
1819,Left,1,46,120,203.5,0.239583,Sixteenth,F3_C#3_A#3_A#2
1824,Left,1,49,120,203.75,0.239583,Sixteenth,F3_C#3_A#3_A#2
1823,Right,0,77,120,203.75,0.239583,Sixteenth,F5
1828,Right,0,75,120,204.0,0.239583,Sixteenth,D#5
1829,Left,1,57,120,204.0,0.239583,Sixteenth,F3_D#3_C3_A3_A#2
1834,Right,0,72,120,204.125,0.239583,Sixteenth,C5
1836,Left,1,53,120,204.25,0.239583,Sixteenth,F3_D#3_C3_A3_A#2
1835,Right,0,69,120,204.25,0.239583,Sixteenth,A4
1841,Right,0,65,120,204.375,0.239583,Sixteenth,F4
1842,Left,1,48,120,204.5,0.239583,Sixteenth,F3_D#3_C3_A3_A#2
1847,Right,0,63,120,204.5,0.239583,Sixteenth,D#4
1848,Right,0,62,120,204.625,0.239583,Sixteenth,D4
1849,Right,0,63,120,204.75,0.239583,Sixteenth,D#4
1850,Left,1,46,120,204.75,0.239583,Sixteenth,F3_D#3_C3_A3_A#2
1855,Right,0,60,120,204.875,0.114583,ThirtySecond,C4
1857,Right,0,58,120,205.0,0.489583,Eighth,A#3
1856,Left,1,46,120,205.0,1.239583,TiedQuarter-Sixteenth,A#2
1858,Left,1,49,80,206.25,0.239583,Sixteenth,C#3
1859,Left,1,51,80,206.5,0.239583,Sixteenth,D#3
1860,Left,1,49,80,206.75,0.239583,Sixteenth,C#3
1861,Left,1,47,80,207.0,0.239583,Sixteenth,B2
1862,Left,1,46,80,207.25,0.239583,Sixteenth,A#2
1863,Left,1,44,80,207.5,0.239583,Sixteenth,G#2
1864,Left,1,42,80,207.75,0.239583,Sixteenth,F#2
1865,Left,1,41,80,208.0,0.489583,Eighth,F2
1866,Left,1,42,80,208.5,0.489583,Eighth,F#2
1870,Left,1,43,80,209.0,0.489583,Eighth,G2
1867,Right,0,61,80,209.0,0.989583,Eighth,D#4_C#4_A#3
1873,Left,1,44,80,209.5,0.739583,DottedEighth,G#2
1871,Right,0,59,80,209.5,0.489583,Eighth,G#3_B3
1874,Left,1,51,80,210.25,0.239583,Sixteenth,D#3
1875,Left,1,52,80,210.5,0.239583,Sixteenth,E3
1876,Left,1,51,80,210.75,0.239583,Sixteenth,D#3
1877,Left,1,49,80,211.0,0.239583,Sixteenth,C#3
1878,Left,1,47,80,211.25,0.239583,Sixteenth,B2
1879,Left,1,46,80,211.5,0.239583,Sixteenth,A#2
1880,Left,1,44,80,211.75,0.239583,Sixteenth,G#2
1881,Left,1,43,80,212.0,0.489583,Eighth,G2
1882,Left,1,44,80,212.5,0.489583,Eighth,G#2
1883,Left,1,45,80,213.0,1.989583,Half,A2
1884,Right,0,60,80,213.0,1.989583,Half,F#4_D#4_C4
1887,Right,0,65,80,213.5,0.739583,DottedEighth,F4
1888,Right,0,65,80,214.25,0.239583,Sixteenth,F4
1889,Right,0,66,80,214.5,0.239583,Sixteenth,F#4
1890,Right,0,65,80,214.75,0.239583,Sixteenth,F4
1892,Right,0,66,80,215.0,1.989583,Half,F#4_D#4_C4
1891,Left,1,46,80,215.0,1.989583,Half,A#2
1895,Right,0,65,80,215.5,0.739583,DottedEighth,F4
1896,Right,0,65,80,216.25,0.239583,Sixteenth,F4
1897,Right,0,66,80,216.5,0.239583,Sixteenth,F#4
1898,Right,0,65,80,216.75,0.239583,Sixteenth,F4
1899,Left,1,45,80,217.0,0.489583,Eighth,A2
1900,Right,0,66,80,217.0,0.739583,DottedEighth,F#4_D#4_C4
1903,Right,0,65,80,217.75,0.239583,Sixteenth,F4
1904,Right,0,66,80,218.0,0.739583,DottedEighth,F#4
1905,Right,0,65,80,218.75,0.239583,Sixteenth,F4
1906,Right,0,66,80,219.0,0.239583,Sixteenth,F#4
1907,Right,0,65,80,219.125,0.239583,Sixteenth,F4
1908,Right,0,66,80,219.25,0.239583,Sixteenth,F#4
1909,Right,0,65,80,219.375,0.239583,Sixteenth,F4
1910,Right,0,66,80,219.5,0.239583,Sixteenth,F#4
1911,Right,0,65,80,219.625,0.239583,Sixteenth,F4
1912,Right,0,66,80,219.75,0.239583,Sixteenth,F#4
1913,Right,0,65,80,219.875,0.239583,Sixteenth,F4
1914,Right,0,66,80,220.0,0.239583,Sixteenth,F#4
1915,Right,0,65,80,220.125,0.239583,Sixteenth,F4
1916,Right,0,66,80,220.25,0.239583,Sixteenth,F#4
1917,Right,0,65,80,220.375,0.239583,Sixteenth,F4
1918,Right,0,66,80,220.5,0.239583,Sixteenth,F#4
1919,Right,0,65,80,220.625,0.239583,Sixteenth,F4
1920,Right,0,66,80,220.75,0.239583,Sixteenth,F#4
1921,Right,0,65,80,220.875,0.239583,Sixteenth,F4
1922,Right,0,67,80,221.0,0.239583,Sixteenth,G4
1923,Right,0,65,80,221.125,0.239583,Sixteenth,F4
1924,Right,0,67,80,221.25,0.239583,Sixteenth,G4
1925,Right,0,65,80,221.375,0.239583,Sixteenth,F4
1926,Right,0,67,80,221.5,0.239583,Sixteenth,G4
1927,Right,0,65,80,221.625,0.239583,Sixteenth,F4
1928,Right,0,67,80,221.75,0.239583,Sixteenth,G4
1929,Right,0,65,80,221.875,0.239583,Sixteenth,F4
1930,Right,0,67,80,222.0,0.239583,Sixteenth,G4
1931,Right,0,65,80,222.125,0.239583,Sixteenth,F4
1932,Right,0,67,80,222.25,0.239583,Sixteenth,G4
1933,Right,0,65,80,222.375,0.239583,Sixteenth,F4
1934,Right,0,67,80,222.5,0.239583,Sixteenth,G4
1935,Right,0,65,80,222.625,0.239583,Sixteenth,F4
1936,Right,0,67,80,222.75,0.239583,Sixteenth,G4
1937,Right,0,65,80,222.875,0.239583,Sixteenth,F4
1938,Left,1,55,80,223.0,0.239583,Sixteenth,G3_D#4
1941,Right,0,65,80,223.25,0.239583,Sixteenth,F4
1940,Left,1,53,80,223.25,0.239583,Sixteenth,F3_D4
1943,Right,0,77,80,223.5,0.239583,Sixteenth,F5
1944,Left,1,60,80,223.5,0.239583,Sixteenth,D#3_C4
1946,Right,0,65,80,223.75,0.239583,Sixteenth,F4
1947,Left,1,58,80,223.75,0.239583,Sixteenth,D3_A#3
1949,Left,1,57,80,224.0,0.489583,Eighth,C3_A3
1951,Right,0,65,80,224.25,0.239583,Sixteenth,F4
1953,Right,0,77,80,224.5,0.239583,Sixteenth,F5
1952,Left,1,58,80,224.5,0.489583,Eighth,D3_A#3
1955,Right,0,65,80,224.75,0.239583,Sixteenth,F4
1956,Left,1,59,80,225.0,0.489583,Eighth,G#3_B3
1958,Right,0,65,80,225.25,0.239583,Sixteenth,F4
1959,Right,0,77,80,225.5,0.239583,Sixteenth,F5
1960,Left,1,57,80,225.5,0.739583,DottedEighth,C4_A3
1962,Right,0,65,80,225.75,0.239583,Sixteenth,F4
1963,Right,0,77,80,226.0,0.489583,Eighth,F5
1964,Left,1,66,80,226.25,0.239583,Sixteenth,F#4
1965,Left,1,69,80,226.5,0.239583,Sixteenth,A4
1966,Left,1,67,80,226.75,0.239583,Sixteenth,G4
1967,Left,1,65,80,227.0,0.239583,Sixteenth,F4
1968,Left,1,55,80,227.25,0.239583,Sixteenth,G3_D#4
1970,Right,0,65,80,227.25,0.239583,Sixteenth,F4
1971,Left,1,62,80,227.5,0.239583,Sixteenth,F3_D4
1974,Left,1,51,80,227.75,0.239583,Sixteenth,D#3_C4
1973,Right,0,65,80,227.75,0.239583,Sixteenth,F4
1976,Left,1,50,80,228.0,0.489583,Eighth,D3_A#3
1978,Right,0,65,80,228.25,0.239583,Sixteenth,F4
1980,Left,1,60,80,228.5,0.489583,Eighth,C4_A3
1979,Right,0,77,80,228.5,0.239583,Sixteenth,F5
1982,Right,0,65,80,228.75,0.239583,Sixteenth,F4
1983,Left,1,57,80,229.0,0.489583,Eighth,C#4_A3
1985,Right,0,65,80,229.25,0.239583,Sixteenth,F4
1986,Left,1,62,80,229.5,0.739583,DottedEighth,D4_A#3
1988,Right,0,65,80,229.75,0.239583,Sixteenth,F4
1989,Right,0,77,80,230.0,0.489583,Eighth,F5
1990,Left,1,65,80,230.25,0.239583,Sixteenth,F4
1991,Left,1,67,80,230.5,0.489583,Sixteenth,G4_B3
1993,Left,1,62,80,230.75,0.239583,Sixteenth,D4
1994,Left,1,65,80,231.0,0.489583,Sixteenth,F4_C4
1996,Left,1,63,80,231.25,0.239583,Sixteenth,D#4
1997,Left,1,57,80,231.5,0.489583,Eighth,F4_A3
1999,Right,0,89,80,231.5,0.489583,Eighth,F6
2000,Left,1,60,80,231.75,0.239583,Sixteenth,C4
2001,Left,1,63,80,232.0,0.489583,Sixteenth,D#4_A#3
2003,Left,1,62,80,232.25,0.239583,Sixteenth,D4
2004,Right,0,65,80,232.25,0.239583,Sixteenth,F4
2006,Left,1,59,80,232.5,0.489583,Eighth,G4_B3
2005,Right,0,77,80,232.5,0.489583,Eighth,F5
2008,Left,1,62,80,232.75,0.239583,Sixteenth,D4
2009,Left,1,65,80,233.0,0.489583,Sixteenth,F4_C4
2011,Left,1,63,80,233.25,0.239583,Sixteenth,D#4
2012,Right,0,89,80,233.5,0.739583,DottedEighth,F6
2013,Left,1,65,80,233.5,0.489583,Sixteenth,F4_A3
2015,Left,1,60,80,233.75,0.239583,Sixteenth,C4
2016,Left,1,63,80,234.0,0.489583,Sixteenth,D#4_A#3
2018,Left,1,62,80,234.25,0.489583,Eighth,D4
2019,Right,0,77,80,234.25,0.489583,Eighth,F5
2020,Left,1,57,80,234.5,0.489583,Eighth,A3
2021,Left,1,60,80,234.75,0.739583,DottedEighth,C4
2022,Right,0,79,95,234.75,0.239583,Sixteenth,G5
2023,Right,0,81,95,234.875,0.239583,Sixteenth,A5
2024,Left,1,55,80,235.0,0.989583,Quarter,G3
2025,Right,0,82,95,235.0,0.239583,Sixteenth,A#5
2026,Right,0,84,95,235.125,0.239583,Sixteenth,C6
2027,Right,0,86,95,235.25,0.239583,Sixteenth,D6
2028,Right,0,84,95,235.375,0.239583,Sixteenth,C6
2029,Left,1,58,80,235.5,0.989583,Quarter,A#3
2030,Right,0,82,95,235.5,0.239583,Sixteenth,A#5
2031,Right,0,81,95,235.625,0.239583,Sixteenth,A5
2032,Right,0,79,95,235.75,0.239583,Sixteenth,G5
2033,Right,0,77,95,235.875,0.239583,Sixteenth,F5
2035,Right,0,76,95,236.0,0.239583,Sixteenth,E5
2034,Left,1,48,80,236.0,0.989583,Quarter,C3
2036,Right,0,74,95,236.125,0.239583,Sixteenth,D5
2037,Right,0,72,95,236.25,0.239583,Sixteenth,C5
2038,Right,0,70,95,236.375,0.239583,Sixteenth,A#4
2040,Right,0,69,95,236.5,0.239583,Sixteenth,A4
2039,Left,1,58,80,236.5,0.989583,Quarter,A#3
2041,Right,0,67,95,236.625,0.239583,Sixteenth,G4
2042,Right,0,65,95,236.75,0.239583,Sixteenth,F4
2043,Right,0,64,80,236.875,0.239583,Sixteenth,E4
2045,Left,1,53,80,237.0,0.989583,Quarter,F3
2044,Right,0,67,80,237.0,0.239583,Sixteenth,G4
2046,Right,0,65,80,237.125,0.239583,Sixteenth,F4
2047,Right,0,69,80,237.25,0.239583,Sixteenth,A4
2048,Right,0,67,80,237.375,0.239583,Sixteenth,G4
2050,Left,1,57,80,237.5,0.489583,Eighth,A3
2049,Right,0,70,80,237.5,0.239583,Sixteenth,A#4
2051,Right,0,69,80,237.625,0.239583,Sixteenth,A4
2052,Right,0,72,80,237.75,0.239583,Sixteenth,C5
2053,Right,0,70,80,237.875,0.239583,Sixteenth,A#4
2054,Right,0,74,80,238.0,0.239583,Sixteenth,D5
2055,Right,0,72,80,238.125,0.239583,Sixteenth,C5
2056,Right,0,75,80,238.25,0.239583,Sixteenth,D#5
2057,Right,0,74,80,238.375,0.239583,Sixteenth,D5
2058,Right,0,77,80,238.5,0.239583,Sixteenth,F5
2059,Right,0,76,80,238.625,0.239583,Sixteenth,E5
2060,Right,0,79,80,238.75,0.239583,Sixteenth,G5
2061,Right,0,77,80,238.875,0.114583,ThirtySecond,F5
2062,Right,0,63,80,239.0,0.239583,Sixteenth,D#5_D#4
2063,Left,1,46,80,239.0,0.489583,Eighth,A#2
2066,Left,1,53,80,239.25,0.239583,Sixteenth,F3
2065,Right,0,74,80,239.25,0.239583,Sixteenth,D5_D4
2070,Left,1,50,80,239.5,0.489583,Eighth,D3
2068,Right,0,72,80,239.5,0.239583,Sixteenth,C5_C4
2073,Left,1,53,80,239.75,0.239583,Sixteenth,F3
2071,Right,0,70,80,239.75,0.239583,Sixteenth,A#4_A#3
2076,Right,0,57,80,240.0,0.489583,Eighth,A4_A3
2074,Left,1,51,80,240.0,0.489583,Sixteenth,D#3_C3
2078,Left,1,53,80,240.25,0.239583,Sixteenth,F3
2080,Left,1,50,80,240.5,0.489583,Sixteenth,D3_A#2
2079,Right,0,70,80,240.5,0.489583,Eighth,A#4_A#3
2083,Left,1,53,80,240.75,0.239583,Sixteenth,F3
2085,Left,1,45,80,241.0,1.989583,Half,D#3_A2
2084,Right,0,71,80,241.0,0.489583,Eighth,B4_B3
2088,Left,1,53,80,241.25,0.239583,Sixteenth,F3
2089,Right,0,72,80,241.5,0.739583,DottedEighth,C5_C4
2091,Left,1,53,80,241.5,0.239583,Sixteenth,F3
2092,Left,1,53,80,241.75,0.239583,Sixteenth,F3
2093,Left,1,53,80,242.0,0.239583,Sixteenth,F3
2094,Left,1,53,80,242.25,0.239583,Sixteenth,F3
2095,Right,0,66,80,242.25,0.239583,Sixteenth,F#4
2096,Right,0,78,80,242.375,0.239583,Sixteenth,F#5
2098,Right,0,69,80,242.5,0.239583,Sixteenth,A4
2097,Left,1,53,80,242.5,0.239583,Sixteenth,F3
2099,Right,0,81,80,242.625,0.239583,Sixteenth,A5
2100,Left,1,53,80,242.75,0.239583,Sixteenth,F3
2101,Right,0,67,80,242.75,0.239583,Sixteenth,G4
2102,Right,0,79,80,242.875,0.239583,Sixteenth,G5
2104,Right,0,65,80,243.0,0.239583,Sixteenth,F4
2103,Left,1,45,80,243.0,0.489583,Eighth,A2
2105,Right,0,77,80,243.125,0.15625,TripletSixteenth,F5
2106,Left,1,53,80,243.25,0.239583,Sixteenth,F3
2107,Right,0,63,80,243.25,0.239583,Sixteenth,D#4
2108,Right,0,75,80,243.375,0.239583,Sixteenth,D#5
2110,Right,0,62,80,243.5,0.239583,Sixteenth,D4
2109,Left,1,51,80,243.5,0.489583,Eighth,D#3
2111,Right,0,74,80,243.625,0.239583,Sixteenth,D5
2112,Right,0,60,80,243.75,0.239583,Sixteenth,C4
2113,Left,1,53,80,243.75,0.239583,Sixteenth,F3
2114,Right,0,72,80,243.875,0.239583,Sixteenth,C5
2115,Left,1,50,80,244.0,0.489583,Eighth,D3
2116,Right,0,57,80,244.0,0.239583,Sixteenth,A3
2117,Right,0,69,80,244.125,0.239583,Sixteenth,A4
2119,Right,0,58,80,244.25,0.239583,Sixteenth,A#3
2118,Left,1,53,80,244.25,0.239583,Sixteenth,F3
2120,Right,0,70,80,244.375,0.239583,Sixteenth,A#4
2122,Right,0,59,80,244.5,0.239583,Sixteenth,B3
2121,Left,1,45,80,244.5,0.489583,Eighth,A2
2123,Right,0,71,80,244.625,0.239583,Sixteenth,B4
2124,Left,1,53,80,244.75,0.239583,Sixteenth,F3
2125,Right,0,60,80,244.75,0.239583,Sixteenth,C4
2126,Right,0,72,80,244.875,0.239583,Sixteenth,C5
2128,Left,1,46,80,245.0,1.489583,DottedQuarter,A#2
2127,Right,0,73,80,245.0,0.489583,Eighth,C#5_C#4
2130,Left,1,53,80,245.25,0.239583,Sixteenth,F3
2131,Left,1,53,80,245.5,0.239583,Sixteenth,F3
2132,Right,0,62,80,245.5,0.739583,DottedEighth,D5_D4
2134,Left,1,53,80,245.75,0.239583,Sixteenth,F3
2135,Left,1,53,80,246.0,0.239583,Sixteenth,F3
2137,Left,1,53,80,246.25,0.239583,Sixteenth,F3
2136,Right,0,65,80,246.25,0.239583,Sixteenth,F4
2138,Right,0,77,80,246.375,0.239583,Sixteenth,F5
2140,Left,1,47,80,246.5,0.489583,Eighth,F3_B2
2139,Right,0,67,80,246.5,0.239583,Sixteenth,G4
2142,Right,0,79,80,246.625,0.239583,Sixteenth,G5
2143,Right,0,62,80,246.75,0.239583,Sixteenth,D4
2144,Left,1,53,80,246.75,0.239583,Sixteenth,F3
2145,Right,0,74,80,246.875,0.239583,Sixteenth,D5
2147,Right,0,65,80,247.0,0.239583,Sixteenth,F4
2146,Left,1,48,80,247.0,0.489583,Eighth,C3
2148,Right,0,77,80,247.125,0.239583,Sixteenth,F5
2150,Left,1,53,80,247.25,0.239583,Sixteenth,F3
2149,Right,0,63,80,247.25,0.239583,Sixteenth,D#4
2151,Right,0,75,80,247.375,0.239583,Sixteenth,D#5
2153,Left,1,45,80,247.5,0.489583,Eighth,A2
2152,Right,0,65,80,247.5,0.239583,Sixteenth,F4
2154,Right,0,77,80,247.625,0.239583,Sixteenth,F5
2155,Right,0,60,80,247.75,0.239583,Sixteenth,C4
2156,Left,1,53,80,247.75,0.239583,Sixteenth,F3
2157,Right,0,72,80,247.875,0.239583,Sixteenth,C5
2159,Left,1,46,80,248.0,0.489583,Eighth,A#2
2158,Right,0,63,80,248.0,0.239583,Sixteenth,D#4
2160,Right,0,75,80,248.125,0.239583,Sixteenth,D#5
2161,Left,1,53,80,248.25,0.239583,Sixteenth,F3
2162,Right,0,62,80,248.25,0.239583,Sixteenth,D4
2163,Right,0,74,80,248.375,0.239583,Sixteenth,D5
2164,Left,1,47,80,248.5,0.489583,Eighth,B2
2165,Right,0,67,80,248.5,0.239583,Sixteenth,G4
2166,Right,0,79,80,248.625,0.239583,Sixteenth,G5
2167,Left,1,53,80,248.75,0.239583,Sixteenth,F3
2168,Right,0,62,80,248.75,0.239583,Sixteenth,D4
2169,Right,0,74,80,248.875,0.239583,Sixteenth,D5
2170,Left,1,48,80,249.0,0.489583,Eighth,C3
2171,Right,0,65,80,249.0,0.239583,Sixteenth,F4
2172,Right,0,77,80,249.125,0.239583,Sixteenth,F5
2173,Left,1,53,80,249.25,0.239583,Sixteenth,F3
2174,Right,0,63,80,249.25,0.239583,Sixteenth,D#4
2175,Right,0,75,80,249.375,0.239583,Sixteenth,D#5
2176,Left,1,45,80,249.5,0.489583,Eighth,A2
2177,Right,0,65,80,249.5,0.239583,Sixteenth,F4
2178,Right,0,77,80,249.625,0.239583,Sixteenth,F5
2180,Left,1,53,80,249.75,0.239583,Sixteenth,F3
2179,Right,0,60,80,249.75,0.239583,Sixteenth,C4
2181,Right,0,72,80,249.875,0.239583,Sixteenth,C5
2183,Right,0,63,80,250.0,0.239583,Sixteenth,D#4
2182,Left,1,46,80,250.0,0.489583,Eighth,A#2
2184,Right,0,75,80,250.125,0.239583,Sixteenth,D#5
2185,Right,0,62,80,250.25,0.239583,Sixteenth,D4
2186,Left,1,53,80,250.25,0.239583,Sixteenth,F3
2187,Right,0,74,80,250.375,0.239583,Sixteenth,D5
2188,Right,0,63,80,250.5,0.239583,Sixteenth,D#4
2189,Left,1,44,80,250.5,0.489583,Eighth,G#2
2190,Right,0,75,80,250.625,0.239583,Sixteenth,D#5
2192,Left,1,46,80,250.75,0.239583,Sixteenth,A#2
2191,Right,0,65,80,250.75,0.239583,Sixteenth,F4
2193,Right,0,77,80,250.875,0.239583,Sixteenth,F5
2194,Right,0,66,80,251.0,0.239583,Sixteenth,F#4
2195,Left,1,43,80,251.0,0.489583,Eighth,G2
2196,Right,0,78,80,251.125,0.239583,Sixteenth,F#5
2197,Left,1,46,80,251.25,0.239583,Sixteenth,A#2
2198,Right,0,67,80,251.25,0.239583,Sixteenth,G4
2199,Right,0,79,80,251.375,0.239583,Sixteenth,G5
2201,Right,0,69,80,251.5,0.239583,Sixteenth,A4
2200,Left,1,39,80,251.5,0.489583,Eighth,D#2
2202,Right,0,81,80,251.625,0.239583,Sixteenth,A5
2203,Left,1,51,80,251.75,0.239583,Sixteenth,D#3
2204,Right,0,70,80,251.75,0.239583,Sixteenth,A#4
2205,Right,0,82,80,251.875,0.239583,Sixteenth,A#5
2206,Left,1,41,80,252.0,0.489583,Eighth,F2
2207,Right,0,70,80,252.0,0.489583,Eighth,A#4_A#3
2209,Left,1,50,80,252.25,0.239583,Sixteenth,D3
2212,Left,1,41,80,252.5,0.489583,Eighth,F2
2210,Right,0,72,80,252.5,0.489583,Eighth,C5_C4
2213,Left,1,45,80,252.75,0.239583,Sixteenth,A2
2214,Right,0,61,80,253.0,0.489583,Eighth,C#5_C#4
2216,Left,1,34,80,253.0,0.239583,Sixteenth,A#1
2217,Left,1,46,80,253.25,1.239583,TiedQuarter-Sixteenth,A#2
2218,Right,0,62,80,253.5,0.739583,DottedEighth,D5_D4
2220,Left,1,58,80,253.5,0.239583,Sixteenth,A#3
2221,Left,1,58,80,253.75,0.239583,Sixteenth,A#3
2222,Left,1,58,80,254.0,0.239583,Sixteenth,A#3
2223,Right,0,70,80,254.125,0.239583,Sixteenth,A#4
2224,Left,1,58,80,254.25,0.239583,Sixteenth,A#3
2225,Right,0,69,80,254.25,0.239583,Sixteenth,A4
2226,Right,0,70,80,254.375,0.239583,Sixteenth,A#4
2228,Left,1,56,80,254.5,0.489583,Eighth,G#3
2227,Right,0,71,80,254.5,0.239583,Sixteenth,B4
2229,Right,0,72,80,254.625,0.239583,Sixteenth,C5
2231,Left,1,58,80,254.75,0.239583,Sixteenth,A#3
2230,Right,0,73,80,254.75,0.239583,Sixteenth,C#5
2232,Right,0,74,80,254.875,0.239583,Sixteenth,D5
2234,Right,0,75,80,255.0,0.239583,Sixteenth,D#5
2233,Left,1,55,80,255.0,0.489583,Eighth,G3
2235,Right,0,76,80,255.125,0.239583,Sixteenth,E5
2236,Right,0,77,80,255.25,0.239583,Sixteenth,F5
2237,Left,1,58,80,255.25,0.239583,Sixteenth,A#3
2238,Right,0,78,80,255.375,0.239583,Sixteenth,F#5
2240,Left,1,51,80,255.5,0.489583,Eighth,D#3
2239,Right,0,79,80,255.5,0.239583,Sixteenth,G5
2241,Right,0,80,80,255.625,0.239583,Sixteenth,G#5
2243,Left,1,63,80,255.75,0.239583,Sixteenth,D#4
2242,Right,0,81,80,255.75,0.239583,Sixteenth,A5
2244,Right,0,82,80,255.875,0.239583,Sixteenth,A#5
2246,Right,0,70,80,256.0,0.239583,Sixteenth,A#4
2245,Left,1,53,80,256.0,0.489583,Eighth,F3
2247,Right,0,72,80,256.125,0.239583,Sixteenth,C5
2249,Right,0,69,80,256.25,0.239583,Sixteenth,A4
2248,Left,1,62,80,256.25,0.239583,Sixteenth,D4
2250,Right,0,70,80,256.375,0.239583,Sixteenth,A#4
2251,Left,1,53,80,256.5,0.489583,Eighth,F3
2252,Right,0,74,80,256.5,0.489583,DottedSixteenth,D5_D#4
2254,Left,1,57,80,256.75,0.239583,Sixteenth,A3
2255,Right,0,72,80,256.875,0.114583,ThirtySecond,C5
2257,Left,1,46,80,257.0,0.489583,Eighth,A#3_A#2
2256,Right,0,62,80,257.0,0.489583,Eighth,D4_A#4
2261,Right,0,74,95,258.0,0.989583,Quarter,F4_D5
2260,Left,1,58,95,258.0,0.989583,Quarter,D4_A#3
2264,Left,1,51,80,259.0,1.489583,DottedQuarter,D#3_C4
2265,Right,0,67,80,259.0,0.989583,Quarter,G4_C5
2268,Right,0,74,80,259.125,0.239583,Sixteenth,D5
2269,Right,0,72,80,259.25,0.239583,Sixteenth,C5
2270,Right,0,74,80,259.375,0.239583,Sixteenth,D5
2271,Right,0,71,80,259.5,0.239583,Sixteenth,B4
2272,Right,0,72,80,259.625,0.239583,Sixteenth,C5
2273,Right,0,74,80,259.75,0.239583,Sixteenth,D5
2274,Right,0,75,80,259.875,0.239583,Sixteenth,D#5
2275,Right,0,67,80,260.0,0.489583,Eighth,G4
2276,Left,1,60,80,260.5,0.489583,Eighth,F3_C4
2278,Right,0,69,80,260.5,0.489583,Eighth,D#4_A4
2281,Left,1,58,80,261.0,0.989583,Quarter,A#3_A#2
2280,Right,0,62,80,261.0,0.989583,Quarter,D4_A#4
2284,Right,0,65,80,261.5,0.239583,Sixteenth,F4
2287,Right,0,74,80,262.0,0.989583,Quarter,F4_D5
2285,Left,1,62,80,262.0,0.989583,Quarter,D4_A#3
2290,Left,1,52,80,263.0,0.989583,Quarter,G3_E3
2289,Right,0,67,80,263.0,0.989583,Quarter,G4
2292,Right,0,74,80,263.25,0.15625,TripletSixteenth,D5
2293,Right,0,72,80,263.333333,0.15625,TripletSixteenth,C5
2294,Right,0,71,80,263.416667,0.15625,TripletSixteenth,B4
2295,Right,0,72,80,263.5,0.364583,DottedSixteenth,C5
2296,Right,0,74,80,263.875,0.114583,ThirtySecond,D5
2298,Right,0,64,80,264.0,0.989583,Quarter,E4
2297,Left,1,60,80,264.0,0.989583,Quarter,C4_C3
2300,Right,0,72,80,264.25,0.15625,TripletSixteenth,C5
2301,Right,0,70,80,264.333333,0.15625,TripletSixteenth,A#4
2302,Right,0,69,80,264.416667,0.15625,TripletSixteenth,A4
2303,Right,0,70,80,264.5,0.364583,DottedSixteenth,A#4
2304,Right,0,72,80,264.875,0.114583,ThirtySecond,C5
2305,Right,0,65,80,265.0,0.989583,Quarter,F4_A#4
2306,Left,1,60,80,265.0,0.989583,Quarter,F3_C4
2309,Right,0,69,80,265.5,0.489583,Eighth,A4
2311,Left,1,62,80,266.0,0.989583,Quarter,D4_A#3
2310,Right,0,79,80,266.0,0.989583,Quarter,G5_G4
2316,Right,0,72,80,267.0,0.989583,Quarter,C5
2314,Left,1,57,80,267.0,0.989583,Quarter,C4_A3
2317,Right,0,79,80,267.25,0.15625,TripletSixteenth,G5
2318,Right,0,77,80,267.333333,0.15625,TripletSixteenth,F5
2319,Right,0,76,80,267.416667,0.15625,TripletSixteenth,E5
2320,Right,0,77,80,267.5,0.364583,DottedSixteenth,F5
2321,Right,0,79,80,267.875,0.114583,ThirtySecond,G5
2324,Right,0,69,80,268.0,0.989583,Quarter,A4
2322,Left,1,53,80,268.0,0.989583,Quarter,F4_F3
2325,Right,0,77,80,268.25,0.15625,TripletSixteenth,F5
2326,Right,0,75,80,268.333333,0.15625,TripletSixteenth,D#5
2327,Right,0,74,80,268.416667,0.15625,TripletSixteenth,D5
2328,Right,0,75,80,268.5,0.364583,DottedSixteenth,D#5
2329,Right,0,77,80,268.875,0.114583,ThirtySecond,F5
2332,Right,0,75,80,269.0,0.989583,Eighth,D#5_A#4
2330,Left,1,65,80,269.0,0.989583,Quarter,F4_A#3
2334,Right,0,74,80,269.5,0.489583,Eighth,D5
2335,Left,1,50,80,270.0,0.989583,Quarter,D3
2336,Left,1,58,80,270.125,0.864583,DottedEighth,A#3
2337,Left,1,62,81,270.25,0.739583,DottedEighth,D4
2338,Right,0,74,83,270.5,0.989583,Quarter,D5
2339,Right,0,82,84,270.625,0.864583,DottedEighth,A#5
2340,Right,0,86,85,270.75,0.739583,DottedEighth,D6
2341,Left,1,51,87,271.0,0.989583,Quarter,D#3
2342,Left,1,58,88,271.125,0.864583,DottedEighth,A#3
2343,Left,1,62,89,271.25,0.739583,DottedEighth,D4
2344,Right,0,74,91,271.5,0.989583,Quarter,D5
2345,Right,0,82,92,271.625,0.864583,DottedEighth,A#5
2346,Right,0,86,93,271.75,0.739583,DottedEighth,D6
2347,Left,1,53,95,272.0,0.989583,Quarter,F3
2348,Left,1,58,96,272.125,0.864583,DottedEighth,A#3
2349,Left,1,62,97,272.25,0.739583,DottedEighth,D4
2350,Right,0,74,99,272.5,0.989583,Quarter,D5
2351,Right,0,82,100,272.625,0.864583,DottedEighth,A#5
2352,Right,0,86,101,272.75,0.739583,DottedEighth,D6
2353,Left,1,55,103,273.0,0.989583,Quarter,G3
2354,Left,1,58,104,273.125,0.864583,DottedEighth,A#3
2355,Left,1,62,105,273.25,0.739583,DottedEighth,D4
2356,Right,0,74,107,273.5,0.989583,Quarter,D5
2357,Right,0,82,108,273.625,0.864583,DottedEighth,A#5
2358,Right,0,86,109,273.75,0.739583,DottedEighth,D6
2359,Left,1,62,110,274.0,0.489583,Eighth,F4_D4_A#4
2362,Left,1,67,110,274.5,0.989583,Eighth,G4_E4_A#4
2364,Right,0,74,110,274.5,0.989583,Quarter,D6_D5
2367,Left,1,65,110,275.0,0.989583,Quarter,F4
2368,Left,1,69,110,275.5,0.489583,Eighth,A4
2369,Right,0,72,110,275.5,0.239583,Sixteenth,C6_C5
2371,Left,1,67,110,276.0,0.489583,Eighth,G4_D4_A#3
2375,Left,1,61,110,276.5,0.989583,Quarter,G4_E4_C#4
2374,Right,0,70,110,276.5,0.989583,Quarter,A#5_A#4
2379,Left,1,62,110,277.0,0.739583,DottedEighth,D4
2380,Right,0,81,110,277.5,0.239583,Sixteenth,A5_A4
2382,Left,1,65,110,277.5,0.489583,Eighth,F4
2383,Left,1,63,110,278.0,0.489583,Eighth,G3_D#4_A#3
2389,Right,0,67,110,278.5,0.739583,DottedEighth,G5_G4
2386,Left,1,63,110,278.5,0.739583,Eighth,D#4_C4_A3
2391,Left,1,58,110,279.0,0.489583,Eighth,A#3
2393,Right,0,77,110,279.25,0.489583,Eighth,F5_F4
2392,Left,1,62,110,279.25,0.489583,Eighth,D4
2395,Left,1,51,110,279.5,0.489583,Eighth,D#3
2396,Right,0,63,110,279.75,0.489583,Eighth,D#5_D#4
2397,Left,1,60,110,279.75,0.489583,Eighth,C4
2399,Left,1,53,110,280.0,0.489583,Eighth,F3
2402,Left,1,58,110,280.25,0.489583,Eighth,A#3
2400,Right,0,62,110,280.25,0.489583,Eighth,D5_D4
2403,Left,1,53,110,280.5,0.489583,Eighth,F3
2404,Left,1,57,110,280.75,0.739583,DottedEighth,A3
2405,Right,0,60,110,280.75,0.239583,Sixteenth,C5_C4
2408,Right,0,61,110,281.0,0.489583,Eighth,C#5_C#4
2407,Left,1,46,110,281.0,0.739583,DottedEighth,A#2
2411,Right,0,74,110,281.5,0.239583,Sixteenth,D5
2410,Left,1,58,110,281.5,0.489583,Eighth,A#3
2412,Left,1,46,110,282.0,0.989583,Quarter,F3_A#2
2415,Left,1,55,110,282.5,0.989583,Quarter,G3
2414,Right,0,74,110,282.5,0.989583,Quarter,E4_D5
2417,Left,1,45,110,283.0,0.989583,Quarter,A2
2419,Right,0,72,110,283.5,0.489583,Eighth,F4_C5
2418,Left,1,57,110,283.5,0.489583,Eighth,A3
2421,Left,1,43,110,284.0,0.989583,Quarter,G2
2423,Right,0,70,110,284.5,0.989583,Quarter,C#4_A#4
2422,Left,1,52,110,284.5,0.989583,Quarter,E3
2425,Left,1,41,110,285.0,0.989583,Quarter,F2
2428,Left,1,53,110,285.5,0.489583,Eighth,F3
2426,Right,0,62,110,285.5,0.489583,Eighth,D4_A4
2429,Left,1,39,110,286.0,0.989583,Quarter,D#2_A#2
2431,Right,0,67,110,286.0,0.489583,Eighth,G4_G3
2435,Left,1,48,110,286.5,0.489583,Eighth,C3
2433,Right,0,57,110,286.5,0.739583,Eighth,F#4_A3
2437,Right,0,58,110,287.0,0.489583,Eighth,A#3
2436,Left,1,38,110,287.0,0.489583,Eighth,D3_D2
2439,Right,0,65,80,287.25,0.489583,Eighth,F4
2442,Left,1,39,80,287.5,0.489583,Eighth,D#2
2440,Right,0,60,80,287.5,0.489583,Eighth,G3_C4
2443,Right,0,63,80,287.75,0.489583,Eighth,D#4
2445,Right,0,58,80,288.0,0.489583,Eighth,F3_A#3
2444,Left,1,41,80,288.0,0.489583,Eighth,F2
2447,Right,0,62,80,288.25,0.489583,Eighth,D4
2448,Right,0,51,80,288.5,0.489583,Eighth,D#3_A3
2449,Left,1,29,80,288.5,0.489583,Eighth,F1
2451,Right,0,60,80,288.75,0.239583,Sixteenth,C4
2452,Right,0,58,80,289.0,0.239583,Sixteenth,A#3
2453,Left,1,34,80,289.0,0.489583,Eighth,A#1
2454,Right,0,50,80,289.125,0.239583,Sixteenth,D3
2455,Right,0,53,80,289.25,0.239583,Sixteenth,F3
2456,Right,0,58,80,289.375,0.239583,Sixteenth,A#3
2458,Right,0,62,80,289.5,0.239583,Sixteenth,D4
2457,Left,1,46,80,289.5,1.489583,DottedQuarter,A#2
2459,Right,0,65,80,289.625,0.239583,Sixteenth,F4
2460,Right,0,70,80,289.75,0.239583,Sixteenth,A#4
2461,Right,0,74,80,289.875,0.239583,Sixteenth,D5
2462,Right,0,65,80,290.0,0.239583,Sixteenth,F4
2463,Left,1,50,80,290.0,0.989583,Quarter,D3
2464,Right,0,70,80,290.125,0.239583,Sixteenth,A#4
2465,Right,0,74,80,290.25,0.239583,Sixteenth,D5
2466,Right,0,77,80,290.375,0.239583,Sixteenth,F5
2467,Left,1,53,80,290.5,0.489583,Eighth,F3
2468,Right,0,70,80,290.5,0.239583,Sixteenth,A#4
2469,Right,0,74,80,290.625,0.239583,Sixteenth,D5
2470,Right,0,77,80,290.75,0.239583,Sixteenth,F5
2471,Right,0,82,80,290.875,0.239583,Sixteenth,A#5
2472,Left,1,46,80,291.0,1.989583,Half,C3_A#2
2473,Right,0,81,80,291.0,0.239583,Sixteenth,A5
2475,Right,0,87,80,291.125,0.239583,Sixteenth,D#6
2476,Right,0,84,80,291.25,0.239583,Sixteenth,C6
2477,Right,0,81,80,291.375,0.239583,Sixteenth,A5
2478,Left,1,51,80,291.5,1.489583,DottedQuarter,D#3
2479,Right,0,84,80,291.625,0.239583,Sixteenth,C6
2480,Right,0,81,80,291.75,0.239583,Sixteenth,A5
2481,Right,0,77,80,291.875,0.239583,Sixteenth,F5
2482,Right,0,75,80,292.0,0.239583,Sixteenth,D#5
2483,Left,1,53,80,292.0,0.989583,Quarter,F3
2484,Right,0,81,80,292.125,0.239583,Sixteenth,A5
2485,Right,0,77,80,292.25,0.239583,Sixteenth,F5
2486,Right,0,75,80,292.375,0.239583,Sixteenth,D#5
2488,Left,1,57,80,292.5,0.489583,Eighth,A3
2487,Right,0,72,80,292.5,0.239583,Sixteenth,C5
2489,Right,0,77,80,292.625,0.239583,Sixteenth,F5
2490,Right,0,75,80,292.75,0.239583,Sixteenth,D#5
2491,Right,0,72,80,292.875,0.239583,Sixteenth,C5
2493,Right,0,58,80,293.0,0.239583,Sixteenth,A#3
2492,Left,1,34,80,293.0,0.489583,Eighth,A#1
2494,Right,0,50,80,293.125,0.239583,Sixteenth,D3
2495,Right,0,53,80,293.25,0.239583,Sixteenth,F3
2496,Right,0,58,80,293.375,0.239583,Sixteenth,A#3
2497,Left,1,46,80,293.5,1.489583,DottedQuarter,A#2
2498,Right,0,62,80,293.5,0.239583,Sixteenth,D4
2499,Right,0,65,80,293.625,0.239583,Sixteenth,F4
2500,Right,0,70,80,293.75,0.239583,Sixteenth,A#4
2501,Right,0,74,80,293.875,0.239583,Sixteenth,D5
2502,Left,1,50,80,294.0,0.989583,Quarter,D3
2503,Right,0,65,80,294.0,0.239583,Sixteenth,F4
2504,Right,0,70,80,294.125,0.239583,Sixteenth,A#4
2505,Right,0,74,80,294.25,0.239583,Sixteenth,D5
2506,Right,0,77,80,294.375,0.239583,Sixteenth,F5
2507,Left,1,53,80,294.5,0.489583,Eighth,F3
2508,Right,0,70,80,294.5,0.239583,Sixteenth,A#4
2509,Right,0,74,80,294.625,0.239583,Sixteenth,D5
2510,Right,0,77,80,294.75,0.239583,Sixteenth,F5
2511,Right,0,82,80,294.875,0.239583,Sixteenth,A#5
2512,Right,0,81,80,295.0,0.239583,Sixteenth,A5
2513,Left,1,48,80,295.0,1.989583,Half,C3_A#2
2515,Right,0,87,80,295.125,0.239583,Sixteenth,D#6
2516,Right,0,84,80,295.25,0.239583,Sixteenth,C6
2517,Right,0,81,80,295.375,0.239583,Sixteenth,A5
2518,Left,1,51,80,295.5,1.489583,DottedQuarter,D#3
2519,Right,0,84,80,295.625,0.239583,Sixteenth,C6
2520,Right,0,81,80,295.75,0.239583,Sixteenth,A5
2521,Right,0,77,80,295.875,0.239583,Sixteenth,F5
2522,Left,1,53,80,296.0,0.989583,Quarter,F3
2523,Right,0,75,80,296.0,0.239583,Sixteenth,D#5
2524,Right,0,81,80,296.125,0.239583,Sixteenth,A5
2525,Right,0,77,80,296.25,0.239583,Sixteenth,F5
2526,Right,0,75,80,296.375,0.239583,Sixteenth,D#5
2528,Right,0,72,80,296.5,0.239583,Sixteenth,C5
2527,Left,1,57,80,296.5,0.489583,Eighth,A3
2529,Right,0,77,80,296.625,0.239583,Sixteenth,F5
2530,Right,0,75,80,296.75,0.239583,Sixteenth,D#5
2531,Right,0,72,80,296.875,0.239583,Sixteenth,C5
2533,Left,1,34,80,297.0,0.489583,Eighth,A#1
2532,Right,0,70,80,297.0,0.239583,Sixteenth,A#4
2534,Right,0,50,80,297.125,0.239583,Sixteenth,D3
2535,Right,0,53,80,297.25,0.239583,Sixteenth,F3
2536,Right,0,58,81,297.375,0.239583,Sixteenth,A#3
2538,Right,0,62,81,297.5,0.239583,Sixteenth,D4
2537,Left,1,46,81,297.5,1.489583,DottedQuarter,A#2
2539,Right,0,65,82,297.625,0.239583,Sixteenth,F4
2540,Right,0,70,82,297.75,0.239583,Sixteenth,A#4
2541,Right,0,74,83,297.875,0.239583,Sixteenth,D5
2542,Left,1,50,83,298.0,0.989583,Quarter,D3
2543,Right,0,65,83,298.0,0.239583,Sixteenth,F4
2544,Right,0,70,84,298.125,0.239583,Sixteenth,A#4
2545,Right,0,74,84,298.25,0.239583,Sixteenth,D5
2546,Right,0,77,85,298.375,0.239583,Sixteenth,F5
2548,Right,0,70,85,298.5,0.239583,Sixteenth,A#4
2547,Left,1,53,85,298.5,0.489583,Eighth,F3
2549,Right,0,74,86,298.625,0.239583,Sixteenth,D5
2550,Right,0,77,86,298.75,0.239583,Sixteenth,F5
2551,Right,0,82,87,298.875,0.239583,Sixteenth,A#5
2552,Left,1,32,87,299.0,0.489583,Eighth,G#1
2553,Right,0,50,87,299.125,0.239583,Sixteenth,D3
2554,Right,0,53,88,299.25,0.239583,Sixteenth,F3
2555,Right,0,58,88,299.375,0.239583,Sixteenth,A#3
2557,Right,0,62,89,299.5,0.239583,Sixteenth,D4
2556,Left,1,44,89,299.5,1.489583,DottedQuarter,G#2
2558,Right,0,65,89,299.625,0.239583,Sixteenth,F4
2559,Right,0,70,90,299.75,0.239583,Sixteenth,A#4
2560,Right,0,74,90,299.875,0.239583,Sixteenth,D5
2562,Right,0,65,91,300.0,0.239583,Sixteenth,F4
2561,Left,1,50,91,300.0,0.989583,Quarter,D3
2563,Right,0,70,91,300.125,0.239583,Sixteenth,A#4
2564,Right,0,74,92,300.25,0.239583,Sixteenth,D5
2565,Right,0,77,92,300.375,0.239583,Sixteenth,F5
2566,Left,1,53,93,300.5,0.489583,Eighth,F3
2567,Right,0,70,93,300.5,0.239583,Sixteenth,A#4
2568,Right,0,74,93,300.625,0.239583,Sixteenth,D5
2569,Right,0,77,94,300.75,0.239583,Sixteenth,F5
2570,Right,0,82,94,300.875,0.239583,Sixteenth,A#5
2571,Left,1,31,95,301.0,0.489583,Eighth,G1
2572,Right,0,51,95,301.125,0.239583,Sixteenth,D#3
2573,Right,0,55,95,301.25,0.239583,Sixteenth,G3
2574,Right,0,58,96,301.375,0.239583,Sixteenth,A#3
2575,Right,0,63,96,301.5,0.239583,Sixteenth,D#4
2576,Left,1,43,96,301.5,1.489583,DottedQuarter,G2
2577,Right,0,67,97,301.625,0.239583,Sixteenth,G4
2578,Right,0,70,97,301.75,0.239583,Sixteenth,A#4
2579,Right,0,75,98,301.875,0.239583,Sixteenth,D#5
2580,Left,1,46,98,302.0,0.989583,Quarter,A#2
2581,Right,0,67,98,302.0,0.239583,Sixteenth,G4
2582,Right,0,70,99,302.125,0.239583,Sixteenth,A#4
2583,Right,0,75,99,302.25,0.239583,Sixteenth,D#5
2584,Right,0,79,100,302.375,0.239583,Sixteenth,G5
2585,Left,1,51,100,302.5,0.489583,Eighth,D#3
2586,Right,0,70,100,302.5,0.239583,Sixteenth,A#4
2587,Right,0,75,101,302.625,0.239583,Sixteenth,D#5
2588,Right,0,79,101,302.75,0.239583,Sixteenth,G5
2589,Right,0,82,102,302.875,0.239583,Sixteenth,A#5
2590,Left,1,38,102,303.0,0.239583,Sixteenth,D2
2591,Left,1,41,103,303.125,0.239583,Sixteenth,F2
2592,Left,1,44,103,303.25,0.239583,Sixteenth,G#2
2593,Left,1,46,103,303.375,0.239583,Sixteenth,A#2
2594,Left,1,50,104,303.5,0.239583,Sixteenth,D3
2595,Left,1,53,104,303.625,0.239583,Sixteenth,F3
2596,Left,1,56,105,303.75,0.239583,Sixteenth,G#3
2597,Left,1,58,105,303.875,0.239583,Sixteenth,A#3
2598,Right,0,62,106,304.0,0.239583,Sixteenth,D4
2599,Right,0,65,106,304.125,0.239583,Sixteenth,F4
2600,Right,0,68,107,304.25,0.239583,Sixteenth,G#4
2601,Right,0,70,107,304.375,0.239583,Sixteenth,A#4
2602,Right,0,74,108,304.5,0.239583,Sixteenth,D5
2603,Right,0,77,108,304.59375,0.21875,Sixteenth,F5
2604,Right,0,80,108,304.6875,0.239583,Sixteenth,G#5
2605,Right,0,84,109,304.78125,0.239583,Sixteenth,C6
2606,Right,0,82,109,304.875,0.239583,Sixteenth,A#5
2607,Left,1,63,80,305.0,0.489583,Eighth,D#4
2608,Right,0,80,80,305.0,0.239583,Sixteenth,G#5
2609,Right,0,79,80,305.25,0.239583,Sixteenth,G5
2610,Left,1,70,80,305.25,0.239583,Sixteenth,A#4
2612,Left,1,67,80,305.5,0.489583,Eighth,G4
2611,Right,0,77,80,305.5,0.239583,Sixteenth,F5
2614,Right,0,75,80,305.75,0.239583,Sixteenth,D#5
2613,Left,1,70,80,305.75,0.239583,Sixteenth,A#4
2615,Right,0,74,80,306.0,0.489583,Eighth,D5
2616,Left,1,65,80,306.0,0.489583,Eighth,G#4_F4
2618,Left,1,70,80,306.25,0.239583,Sixteenth,A#4
2620,Left,1,67,80,306.5,0.489583,Sixteenth,G4_D#4
2619,Right,0,75,80,306.5,0.489583,Eighth,D#5
2622,Left,1,70,80,306.75,0.239583,Sixteenth,A#4
2624,Left,1,68,80,307.0,1.989583,Half,G#4_D4
2623,Right,0,76,80,307.0,0.489583,Eighth,E5
2626,Left,1,70,80,307.25,0.239583,Sixteenth,A#4
2627,Left,1,70,80,307.5,0.239583,Sixteenth,A#4
2628,Right,0,77,80,307.5,0.489583,Eighth,F5
2629,Left,1,70,80,307.75,0.239583,Sixteenth,A#4
2630,Left,1,70,80,308.0,0.239583,Sixteenth,A#4
2632,Left,1,70,80,308.25,0.239583,Sixteenth,A#4
2631,Right,0,83,80,308.25,0.114583,ThirtySecond,B5
2633,Right,0,84,80,308.3125,0.114583,ThirtySecond,C6
2634,Right,0,81,80,308.375,0.114583,ThirtySecond,A5
2635,Right,0,83,80,308.4375,0.114583,ThirtySecond,B5
2636,Right,0,86,80,308.5,0.239583,Sixteenth,D6
2637,Left,1,70,80,308.5,0.239583,Sixteenth,A#4
2638,Right,0,84,80,308.75,0.239583,Sixteenth,C6
2639,Left,1,70,80,308.75,0.239583,Sixteenth,A#4
2640,Right,0,82,80,309.0,0.239583,Sixteenth,A#5
2641,Left,1,62,80,309.0,0.489583,Eighth,D4
2643,Left,1,70,80,309.25,0.239583,Sixteenth,A#4
2642,Right,0,80,80,309.25,0.239583,Sixteenth,G#5
2644,Right,0,79,80,309.5,0.239583,Sixteenth,G5
2645,Left,1,69,80,309.5,0.489583,Eighth,A4
2646,Left,1,70,80,309.75,0.239583,Sixteenth,A#4
2648,Left,1,67,80,310.0,0.489583,Eighth,G4
2647,Right,0,74,80,310.0,0.239583,Sixteenth,D5
2649,Right,0,75,80,310.25,0.239583,Sixteenth,D#5
2650,Left,1,70,80,310.25,0.239583,Sixteenth,A#4
2652,Left,1,62,80,310.5,0.489583,Eighth,D4
2651,Right,0,76,80,310.5,0.239583,Sixteenth,E5
2653,Right,0,77,80,310.75,0.239583,Sixteenth,F5
2654,Left,1,70,80,310.75,0.239583,Sixteenth,A#4
2656,Left,1,63,80,311.0,0.489583,Eighth,D#4
2655,Right,0,78,80,311.0,0.489583,Eighth,F#5
2657,Left,1,70,80,311.25,0.239583,Sixteenth,A#4
2658,Left,1,63,80,311.5,0.489583,Eighth,D#4
2659,Right,0,79,80,311.5,0.739583,DottedEighth,G5
2660,Left,1,71,80,311.75,0.239583,Sixteenth,B4
2661,Left,1,63,80,312.0,0.489583,Eighth,D#4
2662,Left,1,72,80,312.25,0.239583,Sixteenth,C5
2663,Right,0,79,80,312.25,0.239583,Sixteenth,G5
2664,Right,0,80,80,312.5,0.239583,Sixteenth,G#5
2665,Right,0,79,80,312.75,0.239583,Sixteenth,G5
2666,Right,0,77,80,313.0,0.239583,Sixteenth,F5
2668,Left,1,67,80,313.25,0.239583,Sixteenth,G4
2667,Right,0,75,80,313.25,0.239583,Sixteenth,D#5
2669,Left,1,63,80,313.5,0.489583,Eighth,D#4
2670,Right,0,74,80,313.5,0.239583,Sixteenth,D5
2672,Left,1,67,80,313.75,0.239583,Sixteenth,G4
2671,Right,0,72,80,313.75,0.239583,Sixteenth,C5
2674,Left,1,65,80,314.0,0.489583,Sixteenth,F4_D4
2673,Right,0,71,80,314.0,0.489583,Eighth,B4
2676,Left,1,67,80,314.25,0.239583,Sixteenth,G4
2677,Right,0,72,80,314.5,0.489583,Eighth,C5
2678,Left,1,63,80,314.5,0.489583,Sixteenth,D#4_C4
2680,Left,1,67,80,314.75,0.239583,Sixteenth,G4
2682,Left,1,65,80,315.0,1.239583,TiedQuarter-Sixteenth,F4_B3
2681,Right,0,73,80,315.0,0.489583,Eighth,C#5
2684,Left,1,67,80,315.25,0.239583,Sixteenth,G4
2686,Right,0,74,80,315.5,0.489583,Eighth,D5
2685,Left,1,67,80,315.5,0.239583,Sixteenth,G4
2687,Left,1,67,80,315.75,0.239583,Sixteenth,G4
2688,Left,1,67,80,316.0,0.239583,Sixteenth,G4
2689,Right,0,79,80,316.25,0.239583,Sixteenth,G5
2690,Right,0,80,80,316.5,0.239583,Sixteenth,G#5
2691,Right,0,79,80,316.75,0.239583,Sixteenth,G5
2692,Right,0,77,80,317.0,0.239583,Sixteenth,F5
2693,Right,0,75,80,317.25,0.239583,Sixteenth,D#5
2694,Right,0,74,80,317.5,0.239583,Sixteenth,D5
2695,Right,0,72,80,317.75,0.239583,Sixteenth,C5
2697,Left,1,67,80,318.25,0.239583,Sixteenth,G4
2696,Right,0,75,80,318.25,0.239583,Sixteenth,D#5
2698,Right,0,77,80,318.5,0.239583,Sixteenth,F5
2699,Left,1,68,80,318.5,0.239583,Sixteenth,G#4
2701,Right,0,75,80,318.75,0.239583,Sixteenth,D#5
2700,Left,1,67,80,318.75,0.239583,Sixteenth,G4
2703,Right,0,74,80,319.0,0.239583,Sixteenth,D5
2702,Left,1,65,80,319.0,0.239583,Sixteenth,F4
2704,Right,0,72,80,319.25,0.239583,Sixteenth,C5
2705,Left,1,63,80,319.25,0.239583,Sixteenth,D#4
2707,Right,0,70,80,319.5,0.239583,Sixteenth,A#4
2706,Left,1,62,80,319.5,0.239583,Sixteenth,D4
2709,Right,0,69,80,319.75,0.239583,Sixteenth,A4
2708,Left,1,60,80,319.75,0.239583,Sixteenth,C4
2710,Left,1,63,80,320.25,0.239583,Sixteenth,D#4
2711,Left,1,65,80,320.5,0.239583,Sixteenth,F4
2712,Left,1,63,80,320.75,0.239583,Sixteenth,D#4
2713,Left,1,62,80,321.0,0.239583,Sixteenth,D4
2714,Left,1,60,80,321.25,0.239583,Sixteenth,C4
2715,Left,1,58,80,321.5,0.239583,Sixteenth,A#3
2716,Left,1,57,80,321.75,0.239583,Sixteenth,A3
2717,Left,1,55,80,322.0,0.239583,Sixteenth,G3
2718,Left,1,53,80,322.25,0.239583,Sixteenth,F3
2719,Left,1,51,80,322.5,0.239583,Sixteenth,D#3
2720,Left,1,50,80,322.75,0.239583,Sixteenth,D3
2721,Left,1,48,80,323.0,0.239583,Sixteenth,C3
2722,Right,0,57,80,323.125,0.239583,Sixteenth,A3
2723,Left,1,46,80,323.25,0.239583,Sixteenth,A#2
2724,Right,0,58,80,323.25,0.239583,Sixteenth,A#3
2725,Right,0,60,80,323.375,0.239583,Sixteenth,C4
2726,Left,1,45,80,323.5,0.239583,Sixteenth,A2
2727,Right,0,62,80,323.5,0.239583,Sixteenth,D4
2728,Right,0,63,80,323.625,0.239583,Sixteenth,D#4
2730,Right,0,65,80,323.75,0.239583,Sixteenth,F4
2729,Left,1,43,80,323.75,0.239583,Sixteenth,G2
2731,Right,0,67,80,323.875,0.239583,Sixteenth,G4
2733,Right,0,69,80,324.0,0.239583,Sixteenth,A4
2732,Left,1,41,80,324.0,4.989583,Unknown,F2
2734,Right,0,70,80,324.166667,0.239583,Sixteenth,A#4
2735,Right,0,71,80,324.333333,0.239583,Sixteenth,B4
2736,Right,0,72,80,324.5,0.239583,Sixteenth,C5
2737,Right,0,73,80,324.666667,0.239583,Sixteenth,C#5
2738,Right,0,74,80,324.833333,0.208333,Sixteenth,D5
2739,Right,0,75,80,325.0,0.15625,TripletSixteenth,D#5
2740,Right,0,69,80,325.166667,0.15625,TripletSixteenth,A4
2741,Right,0,70,80,325.333333,0.15625,TripletSixteenth,A#4
2742,Right,0,71,80,325.5,0.15625,TripletSixteenth,B4
2743,Right,0,72,80,325.666667,0.15625,TripletSixteenth,C5
2744,Right,0,74,80,325.833333,0.15625,TripletSixteenth,D5
2745,Right,0,75,80,326.0,0.15625,TripletSixteenth,D#5
2746,Right,0,69,80,326.166667,0.15625,TripletSixteenth,A4
2747,Right,0,70,80,326.333333,0.15625,TripletSixteenth,A#4
2748,Right,0,71,80,326.5,0.15625,TripletSixteenth,B4
2749,Right,0,72,80,326.666667,0.15625,TripletSixteenth,C5
2750,Right,0,74,80,326.833333,0.15625,TripletSixteenth,D5
2751,Right,0,75,80,327.0,0.239583,Sixteenth,D#5
2752,Right,0,69,80,327.125,0.239583,Sixteenth,A4
2753,Right,0,68,80,327.25,0.239583,Sixteenth,G#4
2754,Right,0,69,80,327.375,0.239583,Sixteenth,A4
2755,Right,0,70,80,327.5,0.239583,Sixteenth,A#4
2756,Right,0,71,80,327.625,0.239583,Sixteenth,B4
2757,Right,0,72,80,327.75,0.239583,Sixteenth,C5
2758,Right,0,73,80,327.875,0.239583,Sixteenth,C#5
2759,Right,0,74,80,328.0,0.15625,TripletSixteenth,D5
2760,Right,0,75,80,328.166667,0.15625,TripletSixteenth,D#5
2761,Right,0,76,80,328.333333,0.15625,TripletSixteenth,E5
2762,Right,0,79,80,328.5,0.239583,Sixteenth,G5
2763,Right,0,77,80,328.75,0.239583,Sixteenth,F5
2764,Right,0,77,80,329.0,0.239583,Sixteenth,F5
2765,Left,1,46,80,329.0,0.239583,Sixteenth,A#2
2766,Right,0,75,80,329.166667,0.15625,TripletSixteenth,D#5
2767,Left,1,65,80,329.25,0.239583,Sixteenth,F4
2768,Right,0,74,80,329.333333,0.15625,TripletSixteenth,D5
2770,Left,1,62,80,329.5,0.489583,Eighth,D4
2769,Right,0,74,80,329.5,0.15625,TripletSixteenth,D5
2771,Right,0,72,80,329.666667,0.15625,TripletSixteenth,C5
2772,Left,1,65,80,329.75,0.239583,Sixteenth,F4
2773,Right,0,70,80,329.833333,0.15625,TripletSixteenth,A#4
2774,Left,1,60,80,330.0,0.489583,Eighth,C4
2775,Right,0,70,80,330.0,0.15625,TripletSixteenth,A#4
2776,Right,0,68,80,330.166667,0.15625,TripletSixteenth,G#4
2777,Left,1,65,80,330.25,0.239583,Sixteenth,F4
2778,Right,0,69,80,330.333333,0.15625,TripletSixteenth,A4
2780,Left,1,58,80,330.5,0.489583,Eighth,A#3
2779,Right,0,72,80,330.5,0.15625,TripletSixteenth,C5
2781,Right,0,69,80,330.666667,0.15625,TripletSixteenth,A4
2782,Left,1,65,80,330.75,0.239583,Sixteenth,F4
2783,Right,0,70,80,330.833333,0.15625,TripletSixteenth,A#4
2786,Right,0,71,80,331.0,0.489583,Eighth,B4
2784,Left,1,57,80,331.0,1.989583,Half,D#4_A3
2787,Left,1,65,80,331.25,0.239583,Sixteenth,F4
2789,Right,0,72,80,331.5,0.739583,DottedEighth,C5
2788,Left,1,65,80,331.5,0.239583,Sixteenth,F4
2790,Left,1,65,80,331.75,0.239583,Sixteenth,F4
2791,Left,1,65,80,332.0,0.239583,Sixteenth,F4
2792,Right,0,78,80,332.25,0.239583,Sixteenth,F#5
2793,Left,1,65,80,332.25,0.239583,Sixteenth,F4
2794,Right,0,81,80,332.5,0.239583,Sixteenth,A5
2795,Left,1,65,80,332.5,0.239583,Sixteenth,F4
2796,Right,0,79,80,332.75,0.239583,Sixteenth,G5
2797,Left,1,65,80,332.75,0.239583,Sixteenth,F4
2799,Right,0,79,80,333.0,0.270833,Sixteenth,G5
2798,Left,1,57,80,333.0,0.489583,Eighth,A3
2800,Right,0,77,80,333.166667,0.270833,Sixteenth,F5
2801,Left,1,65,80,333.25,0.239583,Sixteenth,F4
2802,Right,0,75,80,333.333333,0.15625,TripletSixteenth,D#5
2803,Right,0,75,80,333.5,0.21875,Sixteenth,D#5
2804,Left,1,63,80,333.5,0.489583,Eighth,D#4
2805,Right,0,74,80,333.666667,0.270833,Sixteenth,D5
2806,Left,1,65,80,333.75,0.239583,Sixteenth,F4
2807,Right,0,72,80,333.833333,0.15625,TripletSixteenth,C5
2809,Right,0,72,80,334.0,0.260417,Sixteenth,C5
2808,Left,1,62,80,334.0,0.489583,Eighth,D4
2810,Right,0,69,80,334.166667,0.3125,Triplet,A4
2811,Left,1,65,80,334.25,0.239583,Sixteenth,F4
2812,Right,0,70,80,334.333333,0.3125,Triplet,A#4
2814,Left,1,57,80,334.5,0.489583,Eighth,A3
2813,Right,0,74,80,334.5,0.28125,Sixteenth,D5
2815,Right,0,71,80,334.666667,0.15625,TripletSixteenth,B4
2816,Left,1,65,80,334.75,0.239583,Sixteenth,F4
2817,Right,0,72,80,334.833333,0.260417,Sixteenth,C5
2819,Left,1,58,80,335.0,1.489583,DottedQuarter,A#3
2818,Right,0,73,80,335.0,0.489583,Eighth,C#5
2820,Left,1,65,80,335.25,0.239583,Sixteenth,F4
2822,Left,1,65,80,335.5,0.239583,Sixteenth,F4
2821,Right,0,74,80,335.5,0.65625,DottedEighth,D5
2823,Left,1,65,80,335.75,0.239583,Sixteenth,F4
2824,Left,1,65,80,336.0,0.239583,Sixteenth,F4
2825,Right,0,77,80,336.166667,0.3125,Triplet,F5
2826,Left,1,65,80,336.25,0.239583,Sixteenth,F4
2827,Right,0,76,80,336.333333,0.15625,TripletSixteenth,E5
2828,Left,1,59,80,336.5,0.489583,Eighth,F4_B3
2830,Right,0,77,80,336.5,0.291667,Triplet,F5
2831,Right,0,79,80,336.666667,0.28125,Sixteenth,G5
2832,Left,1,65,80,336.75,0.239583,Sixteenth,F4
2833,Right,0,74,80,336.833333,0.302083,Triplet,D5
2835,Left,1,60,80,337.0,0.489583,Eighth,C4
2834,Right,0,77,80,337.0,0.3125,Triplet,F5
2836,Right,0,75,80,337.166667,0.15625,TripletSixteenth,D#5
2837,Left,1,65,80,337.25,0.239583,Sixteenth,F4
2838,Right,0,74,80,337.333333,0.15625,TripletSixteenth,D5
2840,Left,1,57,80,337.5,0.489583,Eighth,A3
2839,Right,0,75,80,337.5,0.15625,TripletSixteenth,D#5
2841,Left,1,65,80,337.75,0.239583,Sixteenth,F4
2842,Right,0,72,80,337.833333,0.15625,TripletSixteenth,C5
2844,Left,1,58,80,338.0,0.489583,Eighth,A#3
2843,Right,0,75,80,338.0,0.15625,TripletSixteenth,D#5
2845,Right,0,74,80,338.166667,0.15625,TripletSixteenth,D5
2846,Left,1,65,80,338.25,0.239583,Sixteenth,F4
2847,Right,0,73,80,338.333333,0.15625,TripletSixteenth,C#5
2848,Left,1,58,80,338.5,0.489583,Eighth,A#3
2849,Right,0,74,80,338.5,0.15625,TripletSixteenth,D5
2850,Right,0,79,80,338.666667,0.15625,TripletSixteenth,G5
2851,Left,1,65,80,338.75,0.239583,Sixteenth,F4
2852,Right,0,74,80,338.833333,0.15625,TripletSixteenth,D5
2853,Left,1,60,80,339.0,0.489583,Eighth,C4
2854,Right,0,77,80,339.0,0.15625,TripletSixteenth,F5
2855,Right,0,75,80,339.166667,0.15625,TripletSixteenth,D#5
2856,Left,1,65,80,339.25,0.239583,Sixteenth,F4
2857,Right,0,74,80,339.333333,0.15625,TripletSixteenth,D5
2858,Right,0,75,80,339.5,0.15625,TripletSixteenth,D#5
2859,Left,1,57,80,339.5,0.489583,Eighth,A3
2860,Right,0,77,80,339.666667,0.15625,TripletSixteenth,F5
2861,Left,1,65,80,339.75,0.239583,Sixteenth,F4
2862,Right,0,72,80,339.833333,0.15625,TripletSixteenth,C5
2864,Left,1,58,80,340.0,0.489583,Eighth,A#3
2863,Right,0,75,80,340.0,0.239583,Sixteenth,D#5
2865,Right,0,74,80,340.125,0.239583,Sixteenth,D5
2866,Right,0,73,80,340.25,0.239583,Sixteenth,C#5
2867,Left,1,62,80,340.25,0.239583,Sixteenth,D4
2868,Right,0,74,80,340.375,0.239583,Sixteenth,D5
2869,Right,0,75,80,340.5,0.239583,Sixteenth,D#5
2870,Left,1,57,80,340.5,0.489583,Eighth,A3
2871,Right,0,76,80,340.625,0.239583,Sixteenth,E5
2873,Left,1,60,80,340.75,0.239583,Sixteenth,C4
2872,Right,0,77,80,340.75,0.239583,Sixteenth,F5
2874,Right,0,78,80,340.875,0.239583,Sixteenth,F#5
2875,Right,0,79,80,341.0,0.239583,Sixteenth,G5
2876,Left,1,55,80,341.0,0.489583,Eighth,G3
2877,Right,0,80,80,341.125,0.239583,Sixteenth,G#5
2878,Left,1,58,80,341.25,0.239583,Sixteenth,A#3
2879,Right,0,81,80,341.25,0.239583,Sixteenth,A5
2880,Right,0,82,80,341.375,0.239583,Sixteenth,A#5
2882,Left,1,55,80,341.5,0.489583,Eighth,G3
2881,Right,0,83,80,341.5,0.239583,Sixteenth,B5
2883,Right,0,84,80,341.625,0.239583,Sixteenth,C6
2885,Right,0,85,80,341.75,0.239583,Sixteenth,C#6
2884,Left,1,58,80,341.75,0.239583,Sixteenth,A#3
2886,Right,0,86,80,341.875,0.239583,Sixteenth,D6
2888,Right,0,87,80,342.0,0.239583,Sixteenth,D#6
2887,Left,1,48,80,342.0,0.489583,Eighth,C3
2889,Right,0,86,80,342.125,0.239583,Sixteenth,D6
2891,Right,0,84,80,342.25,0.239583,Sixteenth,C6
2890,Left,1,58,80,342.25,0.239583,Sixteenth,A#3
2892,Right,0,82,80,342.375,0.239583,Sixteenth,A#5
2894,Left,1,48,80,342.5,0.489583,Eighth,C3
2893,Right,0,81,80,342.5,0.239583,Sixteenth,A5
2895,Right,0,79,80,342.625,0.239583,Sixteenth,G5
2897,Left,1,58,80,342.75,0.489583,Eighth,A#3
2896,Right,0,77,80,342.75,0.239583,Sixteenth,F5
2898,Right,0,76,80,342.875,0.239583,Sixteenth,E5
2900,Left,1,53,80,343.0,1.489583,DottedQuarter,F3
2899,Right,0,79,80,343.0,0.489583,Eighth,G5
2901,Left,1,58,80,343.25,0.239583,Sixteenth,A#3
2903,Left,1,57,80,343.5,0.239583,Sixteenth,A3
2902,Right,0,77,80,343.5,0.739583,DottedEighth,F5
2904,Left,1,55,80,343.75,0.239583,Sixteenth,G3
2905,Left,1,57,80,344.0,0.489583,Eighth,A3
2906,Right,0,65,80,344.25,0.239583,Sixteenth,F5_F4
2908,Right,0,67,80,344.5,0.239583,Sixteenth,G5_G4
2910,Right,0,65,80,344.75,0.239583,Sixteenth,F5_F4
2912,Left,1,46,80,345.0,0.489583,Eighth,A#2
2913,Right,0,75,80,345.166667,0.15625,TripletSixteenth,D#5_D#4
2915,Left,1,53,80,345.25,0.239583,Sixteenth,F3
2916,Right,0,62,80,345.333333,0.15625,TripletSixteenth,D5_D4
2918,Left,1,50,80,345.5,0.489583,Eighth,D3
2919,Right,0,72,80,345.666667,0.15625,TripletSixteenth,C5_C4
2921,Left,1,53,80,345.75,0.239583,Sixteenth,F3
2922,Right,0,70,80,345.833333,0.15625,TripletSixteenth,A#4_A#3
2924,Left,1,48,80,346.0,0.489583,Eighth,D#3_C3
2926,Right,0,68,80,346.166667,0.15625,TripletSixteenth,G#4_G#3
2928,Left,1,53,80,346.25,0.239583,Sixteenth,F3
2929,Right,0,69,80,346.333333,0.15625,TripletSixteenth,A4_A3
2931,Left,1,46,80,346.5,0.489583,Eighth,D3_A#2
2933,Right,0,69,80,346.666667,0.15625,TripletSixteenth,A4_A3
2935,Left,1,53,80,346.75,0.239583,Sixteenth,F3
2936,Right,0,70,80,346.833333,0.15625,TripletSixteenth,A#4_A#3
2938,Right,0,71,80,347.0,0.489583,Eighth,B4_B3
2940,Left,1,51,80,347.0,1.989583,Half,D#3_A2
2942,Left,1,53,80,347.25,0.239583,Sixteenth,F3
2945,Left,1,53,80,347.5,0.239583,Sixteenth,F3
2943,Right,0,60,80,347.5,0.739583,DottedEighth,C5_C4
2946,Left,1,53,80,347.75,0.239583,Sixteenth,F3
2947,Left,1,53,80,348.0,0.239583,Sixteenth,F3
2948,Right,0,66,80,348.25,0.239583,Sixteenth,F#5_F#4
2950,Left,1,53,80,348.25,0.239583,Sixteenth,F3
2951,Right,0,81,80,348.5,0.239583,Sixteenth,A5_A4
2952,Left,1,53,80,348.5,0.239583,Sixteenth,F3
2956,Left,1,53,80,348.75,0.239583,Sixteenth,F3
2954,Right,0,67,80,348.75,0.239583,Sixteenth,G5_G4
2957,Left,1,45,80,349.0,0.489583,Eighth,A2
2958,Right,0,65,80,349.166667,0.15625,TripletSixteenth,F5_F4
2960,Left,1,53,80,349.25,0.239583,Sixteenth,F3
2961,Right,0,75,80,349.333333,0.15625,TripletSixteenth,D#5_D#4
2963,Left,1,51,80,349.5,0.489583,Eighth,D#3
2964,Right,0,74,80,349.666667,0.15625,TripletSixteenth,D5_D4
2966,Left,1,53,80,349.75,0.239583,Sixteenth,F3
2967,Right,0,72,80,349.833333,0.15625,TripletSixteenth,C5_C4
2969,Left,1,50,80,350.0,0.489583,Eighth,D3
2970,Right,0,69,80,350.166667,0.15625,TripletSixteenth,A4_A3
2972,Left,1,53,80,350.25,0.239583,Sixteenth,F3
2973,Right,0,58,80,350.333333,0.15625,TripletSixteenth,A#4_A#3
2975,Left,1,45,80,350.5,0.489583,Eighth,A2
2976,Right,0,59,80,350.666667,0.15625,TripletSixteenth,B4_B3
2978,Left,1,53,80,350.75,0.239583,Sixteenth,F3
2979,Right,0,72,80,350.833333,0.15625,TripletSixteenth,C5_C4
2981,Right,0,73,80,351.0,0.489583,Eighth,C#5_C#4
2983,Left,1,46,80,351.0,1.489583,DottedQuarter,A#2
2984,Left,1,53,80,351.25,0.239583,Sixteenth,F3
2986,Right,0,62,80,351.5,0.989583,Quarter,D5_D4
2985,Left,1,53,80,351.5,0.239583,Sixteenth,F3
2988,Left,1,53,80,351.75,0.239583,Sixteenth,F3
2989,Left,1,53,80,352.0,0.239583,Sixteenth,F3
2990,Right,0,77,80,352.166667,0.15625,TripletSixteenth,F5
2991,Left,1,53,80,352.25,0.239583,Sixteenth,F3
2992,Right,0,76,80,352.333333,0.15625,TripletSixteenth,E5
2993,Right,0,77,80,352.5,0.989583,Triplet,G#4_F5
2994,Left,1,47,80,352.5,0.489583,Eighth,B2
2996,Right,0,79,80,352.666667,0.15625,TripletSixteenth,G5
2997,Left,1,53,80,352.75,0.239583,Sixteenth,F3
2998,Right,0,74,80,352.833333,0.15625,TripletSixteenth,D5
3000,Left,1,48,80,353.0,0.489583,Eighth,C3
2999,Right,0,77,80,353.0,0.3125,Triplet,F5
3001,Right,0,75,80,353.166667,0.15625,TripletSixteenth,D#5
3002,Left,1,53,80,353.25,0.239583,Sixteenth,F3
3003,Right,0,74,80,353.333333,0.15625,TripletSixteenth,D5
3004,Right,0,75,80,353.5,0.489583,TripletSixteenth,D#5_A4
3006,Left,1,41,80,353.5,0.489583,Eighth,F2
3007,Right,0,77,80,353.666667,0.3125,Triplet,F5
3008,Left,1,53,80,353.75,0.239583,Sixteenth,F3
3009,Right,0,72,80,353.833333,0.15625,TripletSixteenth,C5
3010,Right,0,75,80,354.0,0.489583,TripletSixteenth,D#5_A#4
3012,Left,1,46,80,354.0,0.489583,Eighth,A#2
3013,Right,0,74,80,354.166667,0.15625,TripletSixteenth,D5
3014,Left,1,53,80,354.25,0.239583,Sixteenth,F3
3015,Right,0,73,80,354.333333,0.15625,TripletSixteenth,C#5
3017,Right,0,74,80,354.5,0.989583,TripletSixteenth,G#4_D5
3016,Left,1,46,80,354.5,0.489583,Eighth,A#2
3019,Right,0,79,80,354.666667,0.15625,TripletSixteenth,G5
3020,Left,1,53,80,354.75,0.239583,Sixteenth,F3
3021,Right,0,74,80,354.833333,0.15625,TripletSixteenth,D5
3023,Left,1,48,80,355.0,0.489583,Eighth,C3
3022,Right,0,77,80,355.0,0.3125,Triplet,F5
3024,Right,0,75,80,355.166667,0.15625,TripletSixteenth,D#5
3025,Left,1,53,80,355.25,0.239583,Sixteenth,F3
3026,Right,0,74,80,355.333333,0.15625,TripletSixteenth,D5
3028,Right,0,69,80,355.5,0.489583,Eighth,D#5_A4
3027,Left,1,41,80,355.5,0.489583,Eighth,F2
3030,Right,0,77,80,355.666667,0.270833,Sixteenth,F5
3031,Left,1,53,80,355.75,0.239583,Sixteenth,F3
3032,Right,0,72,80,355.833333,0.15625,TripletSixteenth,C5
3033,Left,1,46,80,356.0,0.489583,Eighth,A#2
3034,Right,0,75,80,356.0,0.15625,TripletSixteenth,D#5_A#4
3036,Right,0,74,80,356.166667,0.15625,TripletSixteenth,D5_D4
3038,Left,1,53,80,356.25,0.239583,Sixteenth,F3
3039,Right,0,61,80,356.333333,0.15625,TripletSixteenth,C#5_C#4
3041,Right,0,74,80,356.5,0.15625,TripletSixteenth,D5_D4
3043,Left,1,44,80,356.5,0.489583,Eighth,G#2
3044,Right,0,75,80,356.666667,0.15625,TripletSixteenth,D#5_D#4
3046,Left,1,46,80,356.75,0.239583,Sixteenth,A#2
3047,Right,0,76,80,356.833333,0.15625,TripletSixteenth,E5_E4
3049,Right,0,65,80,357.0,0.302083,TripletSixteenth,F5_F4
3050,Left,1,43,80,357.0,0.489583,Eighth,G2
3052,Right,0,66,80,357.166667,0.15625,TripletSixteenth,F#5_F#4
3054,Left,1,46,80,357.25,0.239583,Sixteenth,A#2
3055,Right,0,67,80,357.333333,0.15625,TripletSixteenth,G5_G4
3058,Right,0,68,80,357.5,0.15625,TripletSixteenth,G#5_G#4
3057,Left,1,39,80,357.5,0.489583,Eighth,D#2
3060,Right,0,69,80,357.666667,0.15625,TripletSixteenth,A5_A4
3062,Left,1,51,80,357.75,0.239583,Sixteenth,D#3
3063,Right,0,70,80,357.833333,0.15625,TripletSixteenth,A#5_A#4
3065,Right,0,58,80,358.0,0.489583,Eighth,A#4_A#3
3067,Left,1,41,80,358.0,0.489583,Eighth,F2
3068,Left,1,50,80,358.25,0.239583,Sixteenth,D3
3070,Right,0,72,80,358.5,0.489583,Eighth,C5_C4
3069,Left,1,41,80,358.5,0.489583,Eighth,F2
3072,Left,1,45,80,358.75,0.239583,Sixteenth,A2
3073,Left,1,34,80,359.0,0.239583,Sixteenth,A#1
3074,Right,0,61,80,359.0,0.489583,Eighth,C#5_C#4
3076,Left,1,46,80,359.25,1.239583,TiedQuarter-Sixteenth,A#2
3077,Right,0,62,80,359.5,0.739583,DottedEighth,D5_D4
3078,Left,1,58,80,359.5,0.239583,Sixteenth,A#3
3080,Left,1,58,80,359.75,0.239583,Sixteenth,A#3
3081,Left,1,58,80,360.0,0.239583,Sixteenth,A#3
3082,Right,0,70,80,360.125,0.239583,Sixteenth,A#4
3083,Right,0,69,80,360.25,0.239583,Sixteenth,A4
3084,Left,1,58,80,360.25,0.239583,Sixteenth,A#3
3085,Right,0,70,80,360.375,0.239583,Sixteenth,A#4
3087,Right,0,71,80,360.5,0.239583,Sixteenth,B4
3086,Left,1,56,80,360.5,0.489583,Eighth,G#3
3088,Right,0,72,80,360.625,0.239583,Sixteenth,C5
3090,Right,0,73,80,360.75,0.239583,Sixteenth,C#5
3089,Left,1,58,80,360.75,0.239583,Sixteenth,A#3
3091,Right,0,74,80,360.875,0.239583,Sixteenth,D5
3093,Left,1,55,80,361.0,0.489583,Eighth,G3
3092,Right,0,75,80,361.0,0.239583,Sixteenth,D#5
3094,Right,0,76,80,361.125,0.239583,Sixteenth,E5
3096,Left,1,58,80,361.25,0.239583,Sixteenth,A#3
3095,Right,0,77,80,361.25,0.239583,Sixteenth,F5
3097,Right,0,78,80,361.375,0.239583,Sixteenth,F#5
3099,Left,1,51,80,361.5,0.489583,Eighth,D#3
3098,Right,0,79,80,361.5,0.239583,Sixteenth,G5
3100,Right,0,80,80,361.625,0.239583,Sixteenth,G#5
3102,Left,1,63,80,361.75,0.239583,Sixteenth,D#4
3101,Right,0,81,80,361.75,0.239583,Sixteenth,A5
3103,Right,0,82,80,361.875,0.239583,Sixteenth,A#5
3104,Left,1,53,80,362.0,0.489583,Eighth,F3
3105,Right,0,70,80,362.0,0.239583,Sixteenth,A#4
3106,Right,0,72,80,362.125,0.239583,Sixteenth,C5
3108,Left,1,62,80,362.25,0.239583,Sixteenth,D4
3107,Right,0,69,80,362.25,0.239583,Sixteenth,A4
3109,Right,0,70,80,362.375,0.239583,Sixteenth,A#4
3110,Left,1,53,80,362.5,0.489583,Eighth,F3
3111,Right,0,74,80,362.5,0.489583,DottedSixteenth,D5_D#4
3113,Left,1,57,80,362.75,0.239583,Sixteenth,A3
3114,Right,0,72,80,362.875,0.114583,ThirtySecond,C5
3115,Right,0,70,80,363.0,0.489583,Sixteenth,D4_A#4
3117,Left,1,58,80,363.0,0.489583,Eighth,A#3_A#2
3119,Right,0,65,80,363.125,0.239583,Sixteenth,F4
3120,Right,0,67,80,363.25,0.239583,Sixteenth,G4
3121,Right,0,69,80,363.375,0.239583,Sixteenth,A4
3122,Right,0,70,80,363.5,0.239583,Sixteenth,A#4
3123,Right,0,72,80,363.625,0.239583,Sixteenth,C5
3124,Right,0,74,80,363.75,0.239583,Sixteenth,D5
3125,Right,0,75,80,363.875,0.239583,Sixteenth,D#5
3126,Left,1,62,80,364.0,0.989583,Quarter,F4_D4
3128,Right,0,77,80,364.0,0.989583,Quarter,F5_A#4
3130,Left,1,60,100,365.0,0.989583,Quarter,F4_D#4_C4
3131,Right,0,77,100,365.0,0.989583,Quarter,F5_A#4
3135,Left,1,65,100,366.0,0.989583,Quarter,F4_D4_A#3
3136,Right,0,70,100,366.0,0.989583,DottedEighth,F5_A#4
3140,Right,0,72,100,366.75,0.114583,ThirtySecond,C5
3141,Right,0,74,100,366.875,0.114583,ThirtySecond,D5
3143,Right,0,77,100,367.0,0.989583,Quarter,F5_D#5
3142,Left,1,57,100,367.0,0.989583,Quarter,F4_C4_A3
3148,Left,1,56,100,368.0,1.489583,Quarter,G#3_F4_A#3
3147,Right,0,82,100,368.0,0.989583,Quarter,D5_A#5
3152,Right,0,75,100,368.75,0.114583,ThirtySecond,D#5
3153,Right,0,77,100,368.875,0.489583,Eighth,F5
3156,Left,1,63,100,369.0,0.489583,Eighth,G3_D#4
3154,Right,0,79,100,369.0,0.489583,Eighth,G5_A#5
3159,Left,1,52,100,369.5,0.489583,Eighth,E3_C4_A#3
3158,Right,0,84,100,369.5,0.489583,Eighth,G5_C6_C5
3164,Left,1,53,100,370.0,0.489583,Eighth,F3_D4_A#3
3167,Right,0,74,100,370.0,0.989583,Eighth,F5_D6_D5
3171,Left,1,60,100,370.5,0.489583,Eighth,F3_C4_A3
3170,Right,0,87,100,370.5,0.489583,Eighth,D#6_D#5
3175,Left,1,46,100,371.0,0.489583,Eighth,A#3_A#2
3177,Right,0,74,100,371.0,0.989583,Quarter,D6_D5
3179,Right,0,82,100,371.5,0.489583,Eighth,A#5
3180,Right,0,70,100,372.0,0.989583,Quarter,F5_A#4
3181,Left,1,62,100,372.0,0.239583,Sixteenth,D4
3183,Left,1,61,100,372.125,0.239583,Sixteenth,C#4
3184,Left,1,62,100,372.25,0.239583,Sixteenth,D4
3185,Left,1,61,100,372.375,0.239583,Sixteenth,C#4
3186,Left,1,62,100,372.5,0.239583,Sixteenth,D4
3187,Left,1,65,100,372.625,0.239583,Sixteenth,F4
3188,Left,1,63,100,372.75,0.239583,Sixteenth,D#4
3189,Left,1,62,100,372.875,0.239583,Sixteenth,D4
3192,Left,1,60,100,373.0,0.239583,Sixteenth,C4
3190,Right,0,77,100,373.0,0.989583,Quarter,F5_A#4
3193,Left,1,59,100,373.125,0.239583,Sixteenth,B3
3194,Left,1,60,100,373.25,0.239583,Sixteenth,C4
3195,Left,1,59,100,373.375,0.239583,Sixteenth,B3
3196,Left,1,60,100,373.5,0.239583,Sixteenth,C4
3197,Left,1,63,100,373.625,0.239583,Sixteenth,D#4
3198,Left,1,62,100,373.75,0.239583,Sixteenth,D4
3199,Left,1,60,100,373.875,0.239583,Sixteenth,C4
3200,Right,0,70,100,374.0,0.989583,DottedEighth,F5_A#4
3201,Left,1,58,100,374.0,0.239583,Sixteenth,A#3
3203,Left,1,57,100,374.125,0.239583,Sixteenth,A3
3204,Left,1,58,100,374.25,0.239583,Sixteenth,A#3
3205,Left,1,57,100,374.375,0.239583,Sixteenth,A3
3206,Left,1,58,100,374.5,0.239583,Sixteenth,A#3
3207,Left,1,62,100,374.625,0.239583,Sixteenth,D4
3209,Left,1,60,100,374.75,0.239583,Sixteenth,C4
3208,Right,0,72,100,374.75,0.114583,ThirtySecond,C5
3210,Left,1,58,100,374.875,0.239583,Sixteenth,A#3
3211,Right,0,74,100,374.875,0.114583,ThirtySecond,D5
3213,Left,1,57,100,375.0,0.239583,Sixteenth,A3
3212,Right,0,75,100,375.0,0.989583,Quarter,F5_D#5
3215,Left,1,56,100,375.125,0.239583,Sixteenth,G#3
3216,Left,1,57,100,375.25,0.239583,Sixteenth,A3
3217,Left,1,56,100,375.375,0.239583,Sixteenth,G#3
3218,Left,1,57,100,375.5,0.239583,Sixteenth,A3
3219,Left,1,60,100,375.625,0.239583,Sixteenth,C4
3220,Left,1,58,100,375.75,0.239583,Sixteenth,A#3
3221,Left,1,57,100,375.875,0.239583,Sixteenth,A3
3222,Right,0,82,100,376.0,0.989583,Quarter,D5_A#5
3223,Left,1,56,100,376.0,0.239583,Sixteenth,G#3
3225,Left,1,55,100,376.125,0.239583,Sixteenth,G3
3226,Left,1,56,100,376.25,0.239583,Sixteenth,G#3
3227,Left,1,55,100,376.375,0.239583,Sixteenth,G3
3228,Left,1,56,100,376.5,0.239583,Sixteenth,G#3
3229,Left,1,60,100,376.625,0.239583,Sixteenth,C4
3231,Right,0,75,100,376.75,0.114583,ThirtySecond,D#5
3230,Left,1,58,100,376.75,0.239583,Sixteenth,A#3
3232,Left,1,56,100,376.875,0.239583,Sixteenth,G#3
3233,Right,0,77,100,376.875,0.489583,Eighth,F5
3234,Right,0,79,100,377.0,0.489583,Eighth,G5_A#5
3236,Left,1,55,100,377.0,0.239583,Sixteenth,G3
3237,Left,1,58,100,377.125,0.239583,Sixteenth,A#3
3238,Left,1,57,100,377.25,0.239583,Sixteenth,A3
3239,Left,1,58,100,377.375,0.239583,Sixteenth,A#3
3243,Left,1,52,101,377.5,0.239583,Sixteenth,E3
3240,Right,0,72,101,377.5,0.489583,Eighth,G5_C6_C5
3244,Left,1,58,101,377.625,0.239583,Sixteenth,A#3
3245,Left,1,57,101,377.75,0.239583,Sixteenth,A3
3246,Left,1,58,101,377.875,0.239583,Sixteenth,A#3
3247,Left,1,53,102,378.0,0.239583,Sixteenth,F3
3248,Right,0,77,102,378.0,0.989583,Eighth,F5_D6_D5
3251,Left,1,58,102,378.125,0.239583,Sixteenth,A#3
3252,Left,1,57,102,378.25,0.239583,Sixteenth,A3
3253,Left,1,58,102,378.375,0.239583,Sixteenth,A#3
3255,Left,1,53,103,378.5,0.239583,Sixteenth,F3
3254,Right,0,75,103,378.5,0.489583,Eighth,D#6_D#5
3257,Left,1,57,103,378.625,0.239583,Sixteenth,A3
3258,Left,1,56,103,378.75,0.239583,Sixteenth,G#3
3259,Left,1,57,103,378.875,0.239583,Sixteenth,A3
3262,Left,1,58,104,379.0,0.239583,Sixteenth,A#3
3260,Right,0,86,104,379.0,0.989583,Eighth,D6_D5
3263,Left,1,60,104,379.125,0.239583,Sixteenth,C4
3264,Left,1,62,104,379.25,0.239583,Sixteenth,D4
3265,Left,1,63,104,379.375,0.239583,Sixteenth,D#4
3266,Left,1,65,105,379.5,0.239583,Sixteenth,F4
3267,Right,0,82,105,379.5,0.489583,Eighth,A#5
3268,Left,1,67,105,379.625,0.239583,Sixteenth,G4
3269,Left,1,69,105,379.75,0.239583,Sixteenth,A4
3270,Left,1,70,105,379.875,0.239583,Sixteenth,A#4
3272,Right,0,82,106,380.0,0.989583,DottedEighth,D5_A#5_A#4
3271,Left,1,68,106,380.0,0.239583,Sixteenth,G#4
3275,Left,1,67,106,380.125,0.239583,Sixteenth,G4
3276,Left,1,65,106,380.25,0.239583,Sixteenth,F4
3277,Left,1,63,106,380.375,0.239583,Sixteenth,D#4
3278,Left,1,62,107,380.5,0.239583,Sixteenth,D4
3279,Left,1,60,107,380.625,0.239583,Sixteenth,C4
3281,Left,1,58,107,380.75,0.239583,Sixteenth,A#3
3280,Right,0,72,107,380.75,0.114583,ThirtySecond,D#5_C5
3283,Right,0,74,107,380.875,0.489583,ThirtySecond,F5_D5
3285,Left,1,56,107,380.875,0.239583,Sixteenth,G#3
3286,Right,0,82,108,381.0,0.489583,Eighth,G5_A#5
3288,Left,1,55,108,381.0,0.239583,Sixteenth,G3
3289,Left,1,58,108,381.125,0.239583,Sixteenth,A#3
3290,Left,1,57,108,381.25,0.239583,Sixteenth,A3
3291,Left,1,58,108,381.375,0.239583,Sixteenth,A#3
3295,Left,1,52,109,381.5,0.239583,Sixteenth,E3
3292,Right,0,84,109,381.5,0.489583,Eighth,G5_C6_C5
3296,Left,1,58,109,381.625,0.239583,Sixteenth,A#3
3297,Left,1,57,109,381.75,0.239583,Sixteenth,A3
3298,Left,1,58,109,381.875,0.239583,Sixteenth,A#3
3299,Right,0,74,110,382.0,0.989583,Eighth,F5_D6_D5
3302,Left,1,53,110,382.0,0.239583,Sixteenth,F3
3303,Left,1,58,110,382.125,0.239583,Sixteenth,A#3
3304,Left,1,57,110,382.25,0.239583,Sixteenth,A3
3305,Left,1,58,110,382.375,0.239583,Sixteenth,A#3
3307,Right,0,75,111,382.5,0.489583,Eighth,D#6_D#5
3306,Left,1,53,111,382.5,0.239583,Sixteenth,F3
3309,Left,1,57,111,382.625,0.239583,Sixteenth,A3
3310,Left,1,56,111,382.75,0.239583,Sixteenth,G#3
3311,Left,1,57,111,382.875,0.239583,Sixteenth,A3
3313,Left,1,58,112,383.0,0.239583,Sixteenth,A#3
3312,Right,0,74,112,383.0,0.989583,Quarter,D6_D5
3315,Left,1,57,112,383.125,0.239583,Sixteenth,A3
3316,Left,1,55,112,383.25,0.239583,Sixteenth,G3
3317,Left,1,53,112,383.375,0.239583,Sixteenth,F3
3318,Left,1,51,113,383.5,0.239583,Sixteenth,D#3
3319,Right,0,82,113,383.5,0.489583,Eighth,A#5
3320,Left,1,50,113,383.625,0.239583,Sixteenth,D3
3321,Left,1,48,113,383.75,0.239583,Sixteenth,C3
3322,Left,1,46,113,383.875,0.239583,Sixteenth,A#2
3326,Left,1,44,114,384.0,0.239583,Sixteenth,G#2
3323,Right,0,82,114,384.0,0.989583,DottedEighth,D5_A#5_A#4
3327,Left,1,43,114,384.125,0.239583,Sixteenth,G2
3328,Left,1,41,114,384.25,0.239583,Sixteenth,F2
3329,Left,1,39,114,384.375,0.239583,Sixteenth,D#2
3330,Left,1,38,115,384.5,0.239583,Sixteenth,D2
3331,Left,1,36,115,384.625,0.239583,Sixteenth,C2
3332,Right,0,72,115,384.75,0.114583,ThirtySecond,D#5_C5
3334,Left,1,34,115,384.75,0.239583,Sixteenth,A#1
3335,Right,0,77,115,384.875,0.489583,Eighth,F5_D5
3337,Left,1,32,115,384.875,0.239583,Sixteenth,G#1
3341,Left,1,31,116,385.0,0.239583,Sixteenth,G1
3338,Right,0,75,116,385.0,0.489583,Eighth,G5_D#5_A#5
3342,Left,1,43,116,385.125,0.239583,Sixteenth,G2
3343,Left,1,42,116,385.25,0.239583,Sixteenth,F#2
3344,Left,1,43,116,385.375,0.239583,Sixteenth,G2
3349,Left,1,30,117,385.5,0.239583,Sixteenth,F#1
3345,Right,0,82,117,385.5,0.489583,Eighth,E5_C6_C5_A#5
3350,Left,1,42,117,385.625,0.239583,Sixteenth,F#2
3351,Left,1,41,117,385.75,0.239583,Sixteenth,F2
3352,Left,1,43,117,385.875,0.239583,Sixteenth,G2
3353,Right,0,82,118,386.0,0.489583,Eighth,F5_D6_D5_A#5
3354,Left,1,29,118,386.0,0.239583,Sixteenth,F1
3358,Left,1,41,118,386.125,0.239583,Sixteenth,F2
3359,Left,1,40,118,386.25,0.239583,Sixteenth,E2
3360,Left,1,41,118,386.375,0.239583,Sixteenth,F2
3361,Right,0,69,118,386.5,0.489583,Eighth,D#5_A5_A4
3363,Left,1,29,118,386.5,0.239583,Sixteenth,F1
3365,Left,1,41,119,386.625,0.239583,Sixteenth,F2
3366,Left,1,40,119,386.75,0.239583,Sixteenth,E2
3367,Left,1,41,119,386.875,0.239583,Sixteenth,F2
3369,Right,0,74,119,387.0,0.489583,Eighth,D5_A#5_A#4
3368,Left,1,34,119,387.0,0.489583,Eighth,A#1
3372,Right,0,77,80,387.25,0.239583,Sixteenth,F5
3373,Right,0,79,80,387.5,0.239583,Sixteenth,G5
3374,Right,0,77,80,387.75,0.239583,Sixteenth,F5
3375,Left,1,65,80,387.75,0.239583,Sixteenth,F4
3377,Left,1,67,80,388.0,0.239583,Sixteenth,G4
3376,Right,0,75,80,388.0,0.239583,Sixteenth,D#5
3379,Left,1,65,80,388.25,0.239583,Sixteenth,F4
3378,Right,0,74,80,388.25,0.239583,Sixteenth,D5
3381,Left,1,63,80,388.5,0.239583,Sixteenth,D#4
3380,Right,0,72,80,388.5,0.239583,Sixteenth,C5
3382,Left,1,62,80,388.75,0.239583,Sixteenth,D4
3383,Right,0,70,80,388.75,0.239583,Sixteenth,A#4
3384,Left,1,53,80,389.0,0.989583,Quarter,F3_C4
3385,Right,0,63,80,389.0,1.489583,DottedQuarter,D#4_A4
3389,Right,0,67,80,389.25,0.239583,Sixteenth,G4
3388,Left,1,58,80,389.25,0.239583,Sixteenth,A#3
3391,Right,0,65,80,389.5,0.989583,Quarter,F4
3390,Left,1,57,80,389.5,0.239583,Sixteenth,A3
3392,Left,1,55,80,389.75,0.239583,Sixteenth,G3
3393,Left,1,41,80,390.0,0.989583,Quarter,F3_F2
3395,Left,1,51,80,390.25,0.239583,Sixteenth,D#3
3398,Left,1,50,80,390.5,0.239583,Sixteenth,D3
3396,Right,0,63,80,390.5,0.489583,Eighth,G4_D#4
3399,Right,0,69,80,390.75,0.239583,Sixteenth,A4
3400,Left,1,48,80,390.75,0.239583,Sixteenth,C3
3401,Right,0,62,80,391.0,0.239583,Sixteenth,D4_A#4
3403,Left,1,46,80,391.0,0.489583,Eighth,A#2
3404,Right,0,65,80,391.25,0.239583,Sixteenth,F4
3405,Right,0,67,80,391.5,0.239583,Sixteenth,G4
3406,Left,1,53,80,391.75,0.239583,Sixteenth,F3
3407,Right,0,65,80,391.75,0.239583,Sixteenth,F4
3409,Right,0,63,80,392.0,0.239583,Sixteenth,D#4
3408,Left,1,55,80,392.0,0.239583,Sixteenth,G3
3410,Left,1,53,80,392.25,0.239583,Sixteenth,F3
3411,Right,0,62,80,392.25,0.239583,Sixteenth,D4
3413,Right,0,60,80,392.5,0.239583,Sixteenth,C4
3412,Left,1,51,80,392.5,0.239583,Sixteenth,D#3
3415,Right,0,58,80,392.75,0.239583,Sixteenth,A#3
3414,Left,1,50,80,392.75,0.239583,Sixteenth,D3
3416,Right,0,51,80,393.0,1.489583,DottedQuarter,D#3_A3
3417,Left,1,41,80,393.0,0.989583,Quarter,F2_C3
3420,Right,0,55,80,393.25,0.239583,Sixteenth,G3
3421,Left,1,46,80,393.25,0.239583,Sixteenth,A#2
3422,Left,1,45,80,393.5,0.239583,Sixteenth,A2
3423,Right,0,53,80,393.5,0.989583,Quarter,F3
3424,Left,1,43,80,393.75,0.239583,Sixteenth,G2
3425,Left,1,41,80,394.0,0.989583,Sixteenth,F2_F1
3427,Left,1,39,80,394.25,0.239583,Sixteenth,D#2
3428,Right,0,51,80,394.5,0.489583,Eighth,G3_D#3
3430,Left,1,38,80,394.5,0.239583,Sixteenth,D2
3432,Right,0,57,80,394.75,0.239583,Sixteenth,A3
3431,Left,1,36,80,394.75,0.239583,Sixteenth,C2
3433,Right,0,50,80,395.0,0.489583,Eighth,D3_A#3
3434,Left,1,34,80,395.0,0.489583,Eighth,A#1
3437,Right,0,69,80,395.5,0.489583,Eighth,D#4_A4
3436,Left,1,60,80,395.5,0.489583,Eighth,F3_C4
3440,Left,1,58,80,396.0,0.489583,Eighth,A#3
3441,Right,0,70,80,396.0,0.489583,Eighth,D4_A#4
3446,Left,1,53,120,396.5,0.739583,DottedEighth,F3_F2
3443,Right,0,81,120,396.5,0.739583,DottedEighth,D#5_C5_A5
3449,Left,1,34,120,397.25,1.489583,DottedQuarter,A#2_A#1
3448,Right,0,82,120,397.25,1.489583,DottedQuarter,D5_A#5_A#4
3453,Right,0,82,1,399.5,0.489583,Eighth,A#5
