,hand,channel,note,velocity,start_beat,duration,note_value,chord
4,Left,1,40,110,0.0,0.489583,Eighth,E3_E2
0,Right,0,67,110,0.0,0.489583,Eighth,G4_G3_E4_B3
6,Left,1,52,110,1.0,1.989583,Half,E3_E2
8,Right,0,55,110,1.0,1.989583,Half,G4_G3_E4_B3
12,Right,0,66,110,2.5,0.489583,Eighth,F#4
15,Left,1,40,110,3.0,0.489583,Eighth,E3_E2
13,Right,0,64,110,3.0,0.489583,Eighth,E4_E3
19,Right,0,69,110,4.0,0.489583,Eighth,F#4_A4_A3
17,Left,1,50,110,4.0,0.489583,Eighth,D3_D2
23,Right,0,69,80,6.0,0.989583,Quarter,F#4_A4
22,Left,1,62,80,6.0,0.989583,Quarter,D4
27,Right,0,69,80,7.0,1.489583,DottedQuarter,F#4_A4
25,Left,1,60,80,7.0,1.489583,DottedQuarter,D4_C4
29,Right,0,67,80,8.5,0.489583,Eighth,G4
30,Left,1,59,80,8.5,0.489583,Eighth,D4_B3
32,Right,0,69,80,9.0,0.989583,Quarter,F#4_A4
33,Left,1,57,80,9.0,0.989583,Quarter,C4_A3
36,Right,0,71,80,10.0,0.989583,Quarter,G4_B4
38,Left,1,59,80,10.0,0.989583,Quarter,G3_B3
40,Right,0,67,110,12.0,0.489583,Eighth,G4_D4_B4_B3
43,Left,1,55,110,12.0,0.489583,Eighth,G3_G2
48,Right,0,67,110,13.0,1.989583,Half,G4_D4_B4_B3
46,Left,1,55,110,13.0,1.989583,Half,G3_G2
52,Right,0,69,110,14.5,0.489583,Eighth,A4
53,Left,1,43,110,15.0,0.489583,Eighth,G2_G1
55,Right,0,67,110,15.0,0.489583,Eighth,G4_B3
58,Left,1,42,110,16.0,0.489583,Eighth,F#2_F#1
57,Right,0,73,110,16.0,0.489583,Eighth,C#5_C#4_A#4
62,Right,0,70,80,18.0,0.989583,Quarter,C#5_A#4
63,Left,1,66,80,18.0,0.989583,Quarter,F#4
65,Left,1,64,80,19.0,1.489583,DottedQuarter,F#4_E4
67,Right,0,70,80,19.0,1.489583,DottedQuarter,C#5_A#4
71,Right,0,71,80,20.5,0.489583,Eighth,B4
69,Left,1,62,80,20.5,0.489583,Eighth,F#4_D4
72,Right,0,73,80,21.0,0.989583,Quarter,C#5_A#4
74,Left,1,64,80,21.0,0.989583,Quarter,E4_C#4
78,Left,1,62,80,22.0,0.989583,Quarter,D4_B3
76,Right,0,74,80,22.0,0.989583,Quarter,D5_B4
80,Right,0,74,80,24.0,1.989583,Half,D5
81,Left,1,62,80,25.0,4.989583,Half,G4_D4_B3
84,Right,0,79,80,26.0,0.989583,Quarter,G5
86,Right,0,76,80,27.0,0.989583,Quarter,E5
85,Left,1,64,80,27.0,2.989583,DottedHalf,E4
88,Right,0,74,80,28.0,0.989583,Quarter,D5
87,Left,1,57,80,28.0,1.989583,Half,A3
89,Right,0,72,80,29.0,0.989583,Quarter,C5
90,Right,0,72,80,30.0,1.989583,Half,C5
91,Left,1,66,80,30.0,2.989583,DottedHalf,F#4_D#4
93,Left,1,62,80,31.0,1.989583,Half,D4
94,Right,0,81,80,32.0,0.989583,Quarter,A5
96,Left,1,66,80,33.0,0.989583,Quarter,F#4
95,Right,0,72,80,33.0,1.989583,Half,C5
97,Left,1,67,80,34.0,1.989583,Half,G4
98,Right,0,71,80,35.0,0.989583,Quarter,B4
100,Right,0,71,80,36.0,1.989583,Half,B4
99,Left,1,55,80,36.0,0.989583,Quarter,G3
101,Left,1,52,80,37.0,1.989583,Half,E3
102,Right,0,67,80,38.0,0.989583,Quarter,G4
104,Left,1,64,79,39.0,0.989583,Quarter,E4
103,Right,0,67,79,39.0,1.989583,Half,G4
105,Left,1,60,77,40.0,1.989583,Half,C4
106,Right,0,64,75,41.0,0.989583,Quarter,E4
107,Right,0,64,73,42.0,1.989583,Half,E4
108,Left,1,48,73,42.0,3.989583,Whole,C3
109,Left,1,36,71,43.0,2.989583,DottedHalf,C2
110,Left,1,55,70,44.0,0.989583,Quarter,G3
111,Left,1,52,70,45.0,0.989583,Quarter,E3
112,Left,1,47,70,46.0,1.989583,Half,B2_B1
113,Right,0,59,70,46.0,1.989583,Half,D#3_B3
116,Right,0,76,80,48.0,2.489583,Half,E6_E5
118,Left,1,43,80,49.0,2.989583,DottedHalf,G2_E3_B3
121,Right,0,87,80,50.5,0.489583,Eighth,D#6_D#5
123,Right,0,76,80,51.0,0.989583,Quarter,E6_E5
125,Left,1,52,80,52.0,2.989583,DottedHalf,E3_A2
127,Right,0,66,80,52.0,1.989583,Half,F#4_E4_C4
130,Right,0,66,85,54.0,0.989583,Quarter,F#4_E4_C#4
133,Left,1,46,85,54.0,0.989583,Quarter,A#2
134,Left,1,47,88,55.0,2.989583,DottedHalf,B2
135,Right,0,66,88,55.0,2.989583,DottedHalf,F#4_D#4_A3
138,Right,0,67,92,56.5,0.489583,Eighth,G4
139,Right,0,69,93,57.0,0.489583,Eighth,A4
140,Right,0,67,94,57.5,0.489583,Eighth,G4
141,Right,0,66,80,58.0,0.989583,Quarter,F#4
142,Left,1,48,80,58.0,1.989583,Half,G3_C3
144,Right,0,64,80,59.0,0.989583,Quarter,E4
145,Left,1,47,80,60.0,0.489583,Eighth,B2
146,Right,0,76,80,60.0,2.489583,Half,E6_E5
148,Left,1,45,83,60.5,0.489583,Eighth,A2
149,Left,1,52,86,61.0,2.989583,DottedHalf,G2_E3_B3
152,Right,0,87,97,62.5,0.489583,Eighth,D#6_D#5
154,Left,1,44,100,63.0,0.989583,Quarter,G#2
155,Right,0,88,100,63.0,0.989583,Quarter,E6_E5
157,Right,0,66,101,64.0,1.989583,Half,F#4_E4_C4
158,Left,1,45,101,64.0,1.989583,Half,A2
161,Right,0,66,80,66.0,0.989583,Quarter,F#4_E4_C#4
162,Left,1,46,80,66.0,0.989583,Quarter,A#2
167,Left,1,35,80,67.0,2.989583,DottedHalf,B2_B1
165,Right,0,66,80,67.0,2.989583,DottedHalf,F#4_D#4_A3
170,Right,0,69,80,68.5,0.489583,Eighth,A4
171,Right,0,67,80,69.0,0.489583,Eighth,G4
172,Right,0,66,80,69.5,0.489583,Eighth,F#4
175,Left,1,52,80,70.0,0.989583,Quarter,E3_E2
173,Right,0,64,80,70.0,0.989583,Quarter,G3_E4
178,Right,0,59,70,72.0,0.989583,Quarter,B4_B3
177,Left,1,35,70,72.0,0.989583,Quarter,B2_B1
181,Right,0,59,70,73.0,1.989583,Half,B4_B3
183,Left,1,47,70,73.0,1.989583,Half,B2_B1
185,Right,0,76,72,75.0,0.989583,Quarter,E5_E4
187,Left,1,52,72,75.0,0.989583,Quarter,E3_E2
191,Right,0,64,73,76.0,1.989583,Half,E5_E4
189,Left,1,52,73,76.0,1.989583,Half,E3_E2
193,Left,1,59,75,78.0,0.989583,Quarter,B3_B2
195,Right,0,83,75,78.0,0.989583,Quarter,B5_B4
197,Left,1,59,76,79.0,1.989583,Half,B3_B2
199,Right,0,83,76,79.0,1.989583,Half,B5_B4
202,Left,1,64,78,81.0,0.989583,Quarter,E4_E3
201,Right,0,88,78,81.0,0.989583,Quarter,E6_E5
205,Left,1,64,79,82.0,1.989583,Half,E4_E3
207,Right,0,88,79,82.0,1.989583,Half,E6_E5
209,Left,1,59,110,84.0,0.489583,Eighth,G3_F4_D4_B3
213,Right,0,86,110,84.0,0.489583,Eighth,F6_F5_D6_B5
217,Right,0,89,110,85.0,1.489583,DottedQuarter,F6_F5_D6_B5
218,Left,1,65,110,85.0,1.489583,DottedQuarter,G3_F4_D4_B3
225,Right,0,88,110,86.5,0.427083,DottedSixteenth,E6
226,Right,0,86,110,86.75,0.4375,Eighth,D6
227,Right,0,84,110,87.0,0.427083,DottedSixteenth,C6
228,Right,0,83,110,87.25,0.427083,DottedSixteenth,B5
229,Right,0,81,110,87.5,0.458333,Eighth,A5
230,Right,0,79,110,87.75,0.447917,Eighth,G5
231,Right,0,77,110,88.0,0.427083,DottedSixteenth,F5
232,Right,0,76,110,88.25,0.427083,DottedSixteenth,E5
233,Right,0,74,110,88.5,0.427083,DottedSixteenth,D5
234,Right,0,72,110,88.75,0.427083,DottedSixteenth,C5
235,Right,0,71,110,89.0,0.322917,Triplet,B4
236,Right,0,69,110,89.166667,0.3125,Triplet,A4
237,Right,0,67,110,89.333333,0.302083,Triplet,G4
238,Right,0,65,110,89.5,0.322917,Triplet,F4
239,Right,0,64,110,89.666667,0.302083,Triplet,E4
240,Right,0,62,110,89.833333,0.322917,Triplet,D4
241,Right,0,60,110,90.0,0.333333,Triplet,C4
242,Right,0,59,110,90.197917,0.34375,Triplet,B3
243,Right,0,57,110,90.395833,0.354167,DottedSixteenth,A3
244,Right,0,55,110,90.59375,0.354167,DottedSixteenth,G3
245,Right,0,54,110,90.791667,0.197917,TripletSixteenth,F#3
246,Right,0,55,110,91.0,0.489583,Eighth,G3
247,Left,1,47,80,93.0,0.489583,Eighth,B2_B1
248,Right,0,55,80,93.0,0.489583,Eighth,G3_F4_D4
252,Right,0,64,80,94.0,0.489583,Eighth,G3_E4_C4
253,Left,1,36,80,94.0,0.489583,Eighth,C3_C2
259,Left,1,52,110,96.0,0.489583,Eighth,G#3_E3_D4_B3
257,Right,0,74,110,96.0,0.489583,Eighth,G#5_D6_D5_B5
265,Right,0,86,110,97.0,1.489583,DottedQuarter,G#5_D6_D5_B5
269,Left,1,62,110,97.0,1.489583,DottedQuarter,G#3_E3_D4_B3
273,Right,0,84,110,98.5,0.416667,DottedSixteenth,C6
274,Right,0,83,110,98.75,0.4375,Eighth,B5
275,Right,0,81,110,99.0,0.458333,Eighth,A5
276,Right,0,80,110,99.25,0.46875,Eighth,G#5
277,Right,0,78,110,99.5,0.427083,DottedSixteenth,F#5
278,Right,0,76,110,99.75,0.447917,Eighth,E5
279,Right,0,74,110,100.0,0.447917,Eighth,D5
280,Right,0,72,110,100.25,0.427083,DottedSixteenth,C5
281,Right,0,71,110,100.5,0.427083,DottedSixteenth,B4
282,Right,0,69,110,100.75,0.416667,DottedSixteenth,A4
283,Right,0,68,110,101.0,0.302083,Triplet,G#4
284,Right,0,66,110,101.166667,0.322917,Triplet,F#4
285,Right,0,64,110,101.333333,0.322917,Triplet,E4
286,Right,0,62,110,101.5,0.3125,Triplet,D4
287,Right,0,60,110,101.666667,0.322917,Triplet,C4
288,Right,0,59,110,101.833333,0.25,Sixteenth,B3
289,Right,0,57,110,102.0,0.322917,Triplet,A3
290,Right,0,56,110,102.197917,0.34375,Triplet,G#3
291,Right,0,54,110,102.395833,0.3125,Triplet,F#3
292,Right,0,52,110,102.59375,0.34375,Triplet,E3
293,Right,0,51,110,102.791667,0.197917,TripletSixteenth,D#3
294,Right,0,52,110,103.0,0.989583,Quarter,E3
295,Left,1,32,110,105.0,0.489583,Eighth,G#2_G#1
297,Right,0,52,110,105.0,0.489583,Eighth,E3_D4_B3
301,Right,0,57,110,106.0,0.489583,Eighth,E3_C4_A3
300,Left,1,33,110,106.0,0.489583,Eighth,A2_A1
305,Right,0,82,80,108.0,0.989583,Quarter,A#5
306,Left,1,58,80,108.0,0.989583,Quarter,A#3
308,Right,0,82,80,109.0,1.489583,DottedQuarter,A#5
307,Left,1,58,80,109.0,3.989583,Whole,A#3
309,Right,0,81,80,110.5,0.479167,Eighth,A5
310,Right,0,79,80,110.75,0.4375,DottedSixteenth,G5
311,Right,0,77,80,111.0,0.4375,Eighth,F5
312,Right,0,75,80,111.25,0.489583,Eighth,D#5
313,Right,0,74,80,111.5,0.447917,Eighth,D5
314,Right,0,72,80,111.75,0.447917,Eighth,C5
315,Right,0,70,80,112.0,0.4375,Eighth,A#4
316,Right,0,69,80,112.25,0.4375,Eighth,A4
317,Right,0,67,80,112.5,0.447917,Eighth,G4
318,Right,0,65,80,112.75,0.447917,Eighth,F4
319,Right,0,63,80,113.0,0.541667,Eighth,D#4
320,Right,0,62,80,113.333333,0.5625,Eighth,D4
321,Right,0,60,80,113.666667,0.5,Eighth,C4
322,Right,0,58,80,114.0,0.989583,Quarter,A#3
323,Right,0,58,80,115.0,4.989583,Unknown,A#3
324,Left,1,64,80,117.0,0.989583,Quarter,E4
325,Left,1,64,80,118.0,1.989583,Half,E4
328,Right,0,67,80,120.0,0.989583,Quarter,G4
326,Left,1,58,80,120.0,0.989583,Quarter,E4_A#3
331,Right,0,67,80,121.0,1.989583,Half,G4
329,Left,1,64,80,121.0,1.989583,Half,E4_A#3
332,Right,0,73,80,123.0,0.989583,Quarter,G4_C#5
334,Left,1,64,80,123.0,0.989583,Quarter,E4_A#3
338,Left,1,64,80,124.0,1.989583,Half,E4_A#3
336,Right,0,67,80,124.0,1.989583,Half,G4_C#5
341,Left,1,64,95,126.0,0.989583,Quarter,G4_E4_C#4_A#3
340,Right,0,76,95,126.0,0.989583,Quarter,G5_E5_C#5
347,Left,1,67,97,127.0,4.989583,Unknown,G4_E4_C#4_A#3
351,Right,0,73,97,127.0,4.989583,Unknown,G5_E5_C#5
354,Right,0,78,102,129.0,0.989583,Quarter,F#5
355,Left,1,66,102,129.0,0.989583,Quarter,F#4
357,Left,1,65,104,130.0,1.989583,Half,F4
356,Right,0,77,104,130.0,1.989583,Half,F5
361,Left,1,58,109,132.0,0.989583,Quarter,F#4_E4_C#4_A#3
358,Right,0,78,109,132.0,0.989583,Quarter,F#5_E5_C#5
365,Right,0,78,110,133.0,2.989583,DottedHalf,F#5_D5_B4
368,Left,1,62,110,133.0,0.489583,Eighth,F#4_D4_B3
371,Left,1,62,110,133.5,0.489583,Eighth,F#4_D4_B3
374,Left,1,62,110,134.0,0.489583,Eighth,F#4_D4_B3
377,Left,1,66,110,134.5,0.489583,Eighth,F#4_D4_B3
380,Left,1,66,110,135.0,0.489583,Eighth,F#4_D4_B3
383,Left,1,59,110,135.5,0.489583,Eighth,F#4_D4_B3
389,Right,0,83,110,136.0,2.989583,DottedHalf,F#5_B5_B4
386,Left,1,50,110,136.0,0.489583,Eighth,F#3_D3_B3
392,Left,1,59,110,136.5,0.489583,Eighth,F#3_D3_B3
395,Left,1,59,110,137.0,0.489583,Eighth,F#3_D3_B3
398,Left,1,59,110,137.5,0.489583,Eighth,F#3_D3_B3
401,Left,1,59,110,138.0,0.489583,Eighth,F#3_D3_B3
404,Left,1,59,110,138.5,0.489583,Eighth,F#3_D3_B3
407,Left,1,54,110,139.0,0.489583,Eighth,F#3_D#3_A3
408,Right,0,71,110,139.0,0.489583,Eighth,F#4_B4
412,Left,1,51,110,139.5,0.489583,Eighth,F#3_D#3_A3
416,Right,0,72,110,140.0,0.489583,Eighth,C5_C4
415,Left,1,52,110,140.0,0.489583,Eighth,G3_E3
419,Left,1,55,110,140.5,0.489583,Eighth,G3_E3
421,Left,1,55,110,141.0,0.489583,Eighth,G3_E3
423,Left,1,52,110,141.5,0.489583,Eighth,G3_E3
425,Right,0,72,110,142.0,0.489583,Eighth,G4_C5
427,Left,1,59,110,142.0,0.489583,Eighth,G3_E3_B3
430,Left,1,59,110,142.5,0.489583,Eighth,G3_E3_B3
433,Right,0,63,110,143.0,0.489583,Eighth,D#5_D#4
435,Left,1,57,110,143.0,0.489583,Eighth,F#3_A3
437,Left,1,57,110,143.5,0.489583,Eighth,F#3_A3
439,Left,1,57,110,144.0,0.489583,Eighth,F#3_A3
441,Left,1,57,110,144.5,0.489583,Eighth,F#3_A3
443,Right,0,75,110,145.0,0.489583,Eighth,D#5_A4
445,Left,1,54,110,145.0,0.489583,Eighth,F#3_C4_A3
448,Left,1,54,110,145.5,0.489583,Eighth,F#3_C4_A3
453,Left,1,59,110,146.0,0.489583,Eighth,G3_B3
451,Right,0,64,110,146.0,0.489583,Eighth,E5_E4
455,Left,1,55,110,146.5,0.489583,Eighth,G3_B3
457,Left,1,55,110,147.0,0.489583,Eighth,G3_B3
459,Left,1,55,110,147.5,0.489583,Eighth,G3_B3
463,Right,0,76,110,148.0,0.489583,Eighth,E5_B4
461,Left,1,59,110,148.0,0.489583,Eighth,G#3_B3
465,Left,1,56,110,148.5,0.489583,Eighth,G#3_D4_B3
469,Left,1,59,110,149.0,0.489583,Eighth,G#3_C#4_B3
468,Right,0,77,110,149.0,0.489583,Eighth,F5_F4
473,Left,1,59,110,149.5,0.489583,Eighth,G#3_C#4_B3
476,Left,1,61,110,150.0,0.489583,Eighth,G#3_C#4_B3
479,Left,1,56,110,150.5,0.489583,Eighth,G#3_C#4_B3
484,Left,1,61,70,151.0,0.489583,Eighth,C#4
482,Right,0,68,70,151.0,0.489583,Eighth,G#4_E5_B4
487,Right,0,77,70,151.5,0.489583,Eighth,G#4_F5_B4
486,Left,1,61,70,151.5,0.489583,Eighth,C#4
490,Right,0,71,70,152.0,0.489583,Eighth,G#4_F5_B4
491,Left,1,61,70,152.0,0.489583,Eighth,C#4
494,Right,0,77,70,152.5,0.489583,Eighth,G#4_F5_B4
497,Left,1,61,70,152.5,0.489583,Eighth,C#4
498,Right,0,68,70,153.0,0.489583,Eighth,G#4_F5_B4
500,Left,1,61,70,153.0,0.489583,Eighth,C#4
503,Left,1,61,70,153.5,0.489583,Eighth,C#4
502,Right,0,77,70,153.5,0.489583,Eighth,G#4_F5_B4
506,Right,0,71,70,154.0,0.489583,Eighth,G#4_F5_B4
508,Left,1,61,70,154.0,0.489583,Eighth,C#4
513,Left,1,61,76,154.5,0.489583,Eighth,C#4
510,Right,0,77,76,154.5,0.489583,Eighth,G#4_F5_B4
514,Left,1,61,82,155.0,0.489583,Eighth,C#4
515,Right,0,77,82,155.0,0.489583,Eighth,G#4_F5_B4
519,Right,0,71,88,155.5,0.489583,Eighth,G#4_F5_B4
518,Left,1,61,88,155.5,0.489583,Eighth,C#4
524,Left,1,61,94,156.0,0.489583,Eighth,C#4
522,Right,0,71,94,156.0,0.489583,Eighth,G#4_F5_B4
529,Left,1,61,100,156.5,0.489583,Eighth,C#4
526,Right,0,77,100,156.5,0.489583,Eighth,G#4_F5_B4
530,Right,0,82,120,157.0,0.489583,Eighth,F#6_F#5_E6_C#6_A#5
531,Left,1,64,120,157.0,0.489583,Eighth,F#3_E4_C#4_A#3
539,Right,0,88,120,157.5,0.489583,Eighth,G6_G5_E6_C#6_A#5
542,Left,1,54,120,157.5,0.489583,Eighth,F#3_E4_C#4_A#3
550,Left,1,64,120,158.0,0.489583,Eighth,F#3_E4_C#4_A#3
548,Right,0,82,120,158.0,0.489583,Eighth,G6_G5_E6_C#6_A#5
557,Left,1,54,120,158.5,0.489583,Eighth,F#3_E4_C#4_A#3
561,Right,0,91,120,158.5,0.489583,Eighth,G6_G5_E6_C#6_A#5
567,Left,1,54,120,159.0,0.489583,Eighth,F#3_E4_C#4_A#3
566,Right,0,85,120,159.0,0.489583,Eighth,G6_G5_E6_C#6_A#5
577,Left,1,58,120,159.5,0.489583,Eighth,F#3_E4_C#4_A#3
575,Right,0,79,120,159.5,0.489583,Eighth,G6_G5_E6_C#6_A#5
584,Left,1,64,115,160.0,0.489583,Eighth,F#3_E4_C#4_A#3
585,Right,0,82,115,160.0,0.489583,Eighth,G6_G5_E6_C#6_A#5
594,Left,1,58,111,160.5,0.489583,Eighth,F#3_E4_C#4_A#3
593,Right,0,82,111,160.5,0.489583,Eighth,G6_G5_E6_C#6_A#5
607,Left,1,61,106,161.0,0.489583,Eighth,F#3_E4_C#4_A#3
602,Right,0,91,106,161.0,0.489583,Eighth,G6_G5_E6_C#6_A#5
615,Right,0,85,101,161.5,0.489583,Eighth,G6_G5_E6_C#6_A#5
611,Left,1,54,101,161.5,0.489583,Eighth,F#3_E4_C#4_A#3
620,Left,1,58,96,162.0,0.489583,Eighth,F#3_E4_C#4_A#3
624,Right,0,91,96,162.0,0.489583,Eighth,G6_G5_E6_C#6_A#5
630,Left,1,61,91,162.5,0.489583,Eighth,F#3_E4_C#4_A#3
629,Right,0,91,91,162.5,0.489583,Eighth,G6_G5_E6_C#6_A#5
639,Left,1,47,80,163.0,0.46875,Eighth,B2
638,Right,0,91,80,163.0,0.989583,Quarter,G6_G5
641,Left,1,62,80,163.25,0.46875,Eighth,D4
642,Left,1,54,80,163.5,0.46875,Eighth,F#3
643,Left,1,62,80,163.75,0.458333,Eighth,D4
644,Right,0,90,80,164.0,2.989583,DottedHalf,F#6_F#5
645,Left,1,49,80,164.0,0.458333,Eighth,C#3
647,Left,1,64,80,164.25,0.46875,Eighth,E4
648,Left,1,54,80,164.5,0.46875,Eighth,F#3
649,Left,1,64,80,164.75,0.489583,Eighth,E4
650,Left,1,50,80,165.0,0.458333,Eighth,D3
651,Left,1,66,80,165.25,0.447917,Eighth,F#4
652,Left,1,54,80,165.5,0.46875,Eighth,F#3
653,Left,1,66,80,165.75,0.479167,Eighth,F#4
654,Left,1,47,80,166.0,0.458333,Eighth,B2
655,Left,1,62,80,166.25,0.489583,Eighth,D4
656,Left,1,54,80,166.5,0.46875,Eighth,F#3
657,Left,1,62,80,166.75,0.4375,DottedSixteenth,D4
659,Left,1,49,80,167.0,0.479167,Eighth,C#3
658,Right,0,83,80,167.0,2.989583,DottedHalf,B5_B4
661,Left,1,64,80,167.25,0.458333,Eighth,E4
662,Left,1,54,80,167.5,0.46875,Eighth,F#3
663,Left,1,64,80,167.75,0.46875,Eighth,E4
664,Left,1,50,80,168.0,0.479167,Eighth,D3
665,Left,1,66,80,168.25,0.46875,Eighth,F#4
666,Left,1,54,80,168.5,0.4375,DottedSixteenth,F#3
667,Left,1,66,80,168.75,0.46875,Eighth,F#4
668,Left,1,47,80,169.0,0.479167,Eighth,B2
669,Left,1,62,80,169.25,0.427083,DottedSixteenth,D4
670,Left,1,54,80,169.5,0.479167,Eighth,F#3
671,Left,1,62,80,169.75,0.46875,Eighth,D4
673,Right,0,78,80,170.0,2.989583,DottedHalf,F#5_F#4
672,Left,1,49,80,170.0,0.458333,Eighth,C#3
675,Left,1,64,80,170.25,0.447917,Eighth,E4
676,Left,1,54,80,170.5,0.489583,Eighth,F#3
677,Left,1,64,80,170.75,0.447917,Eighth,E4
678,Left,1,50,80,171.0,0.479167,Eighth,D3
679,Left,1,66,80,171.25,0.447917,Eighth,F#4
680,Left,1,54,80,171.5,0.458333,Eighth,F#3
681,Left,1,66,80,171.75,0.46875,Eighth,F#4
682,Left,1,47,80,172.0,0.479167,Eighth,B2
683,Left,1,62,80,172.25,0.46875,Eighth,D4
684,Left,1,54,80,172.5,0.46875,Eighth,F#3
685,Left,1,62,80,172.75,0.479167,Eighth,D4
687,Right,0,71,80,173.0,2.989583,DottedHalf,B4_B3
686,Left,1,49,80,173.0,0.458333,Eighth,C#3
689,Left,1,64,80,173.25,0.46875,Eighth,E4
690,Left,1,54,80,173.5,0.479167,Eighth,F#3
691,Left,1,64,80,173.75,0.479167,Eighth,E4
692,Left,1,50,80,174.0,0.4375,DottedSixteenth,D3
693,Left,1,66,80,174.25,0.4375,Eighth,F#4
694,Left,1,54,80,174.5,0.447917,Eighth,F#3
695,Left,1,66,80,174.75,0.427083,DottedSixteenth,F#4
696,Left,1,52,80,175.0,0.458333,Eighth,E3
697,Left,1,62,80,175.25,0.4375,DottedSixteenth,D4
698,Left,1,59,80,175.5,0.489583,Eighth,B3
699,Left,1,62,80,175.75,0.458333,Eighth,D4
701,Right,0,67,80,176.0,0.989583,Quarter,G4
700,Left,1,53,80,176.0,0.447917,Eighth,F3
702,Left,1,62,80,176.25,0.447917,Eighth,D4
703,Left,1,59,80,176.5,0.4375,Eighth,B3
704,Left,1,62,80,176.75,0.427083,DottedSixteenth,D4
706,Right,0,66,80,177.0,0.989583,Quarter,F#4
705,Left,1,54,80,177.0,0.4375,Eighth,F#3
707,Left,1,62,80,177.25,0.489583,Eighth,D4
708,Left,1,59,80,177.5,0.479167,Eighth,B3
709,Left,1,62,80,177.75,0.46875,Eighth,D4
711,Left,1,54,80,178.0,0.458333,Eighth,F#3
710,Right,0,66,80,178.0,1.989583,Half,F#4
712,Left,1,62,80,178.25,0.447917,Eighth,D4
713,Left,1,59,80,178.5,0.458333,Eighth,B3
714,Left,1,62,80,178.75,0.46875,Eighth,D4
715,Left,1,54,80,179.0,0.427083,DottedSixteenth,F#3
716,Left,1,62,80,179.25,0.427083,DottedSixteenth,D4
717,Left,1,59,80,179.5,0.416667,DottedSixteenth,B3
718,Left,1,62,80,179.75,0.489583,Eighth,D4
720,Right,0,70,80,180.0,0.989583,Quarter,A#4
719,Left,1,54,80,180.0,0.458333,Eighth,F#3
721,Left,1,64,80,180.25,0.458333,Eighth,E4
722,Left,1,61,80,180.5,0.489583,Eighth,C#4
723,Left,1,64,80,180.75,0.46875,Eighth,E4
724,Left,1,47,80,181.0,0.46875,Eighth,B2
725,Left,1,62,80,181.25,0.447917,Eighth,D4
726,Left,1,54,80,181.5,0.46875,Eighth,F#3
727,Right,0,79,80,181.5,0.489583,Eighth,G5
728,Left,1,62,80,181.75,0.458333,Eighth,D4
729,Left,1,49,80,182.0,0.447917,Eighth,C#3
730,Right,0,91,80,182.0,1.489583,DottedQuarter,G6
731,Left,1,64,80,182.25,0.4375,Eighth,E4
732,Left,1,54,80,182.5,0.447917,Eighth,F#3
733,Left,1,64,80,182.75,0.447917,Eighth,E4
734,Left,1,50,80,183.0,0.458333,Eighth,D3
735,Left,1,66,80,183.25,0.4375,DottedSixteenth,F#4
737,Left,1,54,80,183.5,0.447917,Eighth,F#3
736,Right,0,90,80,183.5,0.489583,Eighth,F#6
738,Left,1,66,80,183.75,0.447917,Eighth,F#4
739,Left,1,47,80,184.0,0.46875,Eighth,B2
740,Left,1,62,80,184.25,0.447917,Eighth,D4
741,Left,1,54,80,184.5,0.46875,Eighth,F#3
742,Right,0,90,80,184.5,0.489583,Eighth,F#6
743,Left,1,62,80,184.75,0.479167,Eighth,D4
745,Right,0,85,80,185.0,1.489583,DottedQuarter,C#6
744,Left,1,49,80,185.0,0.479167,Eighth,C#3
746,Left,1,64,80,185.25,0.4375,DottedSixteenth,E4
747,Left,1,54,80,185.5,0.4375,Eighth,F#3
748,Left,1,64,80,185.75,0.489583,Eighth,E4
749,Left,1,50,80,186.0,0.4375,Eighth,D3
750,Left,1,66,80,186.25,0.4375,Eighth,F#4
752,Left,1,54,80,186.5,0.479167,Eighth,F#3
751,Right,0,83,80,186.5,0.489583,Eighth,B5
753,Left,1,66,80,186.75,0.479167,Eighth,F#4
754,Left,1,47,80,187.0,0.427083,DottedSixteenth,B2
755,Left,1,62,80,187.25,0.489583,Eighth,D4
756,Right,0,83,80,187.5,0.489583,Eighth,B5
757,Left,1,54,80,187.5,0.427083,DottedSixteenth,F#3
758,Left,1,62,80,187.75,0.447917,Eighth,D4
760,Right,0,79,80,188.0,1.489583,DottedQuarter,G5
759,Left,1,49,80,188.0,0.447917,Eighth,C#3
761,Left,1,64,80,188.25,0.447917,Eighth,E4
762,Left,1,54,80,188.5,0.4375,Eighth,F#3
763,Left,1,64,80,188.75,0.479167,Eighth,E4
764,Left,1,50,80,189.0,0.427083,DottedSixteenth,D3
765,Left,1,66,80,189.25,0.489583,Eighth,F#4
766,Left,1,54,80,189.5,0.458333,Eighth,F#3
767,Right,0,78,80,189.5,0.489583,Eighth,F#5
768,Left,1,66,80,189.75,0.447917,Eighth,F#4
769,Left,1,47,80,190.0,0.447917,Eighth,B2
770,Left,1,62,80,190.25,0.458333,Eighth,D4
772,Left,1,54,80,190.5,0.489583,Eighth,F#3
771,Right,0,78,80,190.5,0.489583,Eighth,F#5
773,Left,1,62,80,190.75,0.427083,DottedSixteenth,D4
774,Left,1,49,80,191.0,0.447917,Eighth,C#3
775,Right,0,73,80,191.0,1.489583,DottedQuarter,C#5
776,Left,1,64,80,191.25,0.458333,Eighth,E4
777,Left,1,54,80,191.5,0.489583,Eighth,F#3
778,Left,1,64,80,191.75,0.458333,Eighth,E4
779,Left,1,50,80,192.0,0.489583,Eighth,D3
780,Left,1,66,80,192.25,0.458333,Eighth,F#4
781,Left,1,54,80,192.5,0.46875,Eighth,F#3
782,Right,0,71,80,192.5,0.489583,Eighth,B4
783,Left,1,66,80,192.75,0.4375,Eighth,F#4
785,Left,1,52,80,193.0,0.447917,Eighth,E3
784,Right,0,71,80,193.0,0.989583,Quarter,B4
786,Left,1,62,80,193.25,0.427083,DottedSixteenth,D4
787,Left,1,59,80,193.5,0.458333,Eighth,B3
788,Left,1,62,80,193.75,0.479167,Eighth,D4
790,Left,1,53,80,194.0,0.46875,Eighth,F3
789,Right,0,67,80,194.0,0.989583,Quarter,G4
791,Left,1,62,80,194.25,0.427083,DottedSixteenth,D4
792,Left,1,59,80,194.5,0.427083,DottedSixteenth,B3
793,Left,1,62,80,194.75,0.489583,Eighth,D4
794,Left,1,54,80,195.0,0.447917,Eighth,F#3
795,Right,0,66,80,195.0,0.989583,Quarter,F#4
796,Left,1,62,80,195.25,0.447917,Eighth,D4
797,Left,1,59,80,195.5,0.458333,Eighth,B3
798,Left,1,62,80,195.75,0.239583,Sixteenth,D4
800,Right,0,66,80,196.0,0.489583,Eighth,F#4
799,Left,1,54,80,196.0,1.989583,Half,F#3
801,Right,0,62,80,196.5,0.489583,Eighth,D4
802,Right,0,59,80,197.0,0.489583,Eighth,B3
803,Right,0,55,80,197.5,0.489583,Eighth,G3
804,Left,1,30,80,198.0,0.989583,Quarter,F#2_F#1
805,Right,0,54,80,198.0,0.489583,Eighth,F#3
807,Right,0,58,80,198.5,0.489583,Eighth,A#3
808,Right,0,59,110,199.0,0.989583,Quarter,B3
809,Left,1,47,110,199.0,0.489583,Eighth,B2_B1
811,Left,1,49,110,199.5,0.489583,Eighth,C#3_C#2
813,Left,1,50,110,200.0,0.489583,Eighth,D3_D2
815,Left,1,52,110,200.5,0.489583,Eighth,E3_E2
817,Left,1,54,121,201.0,3.989583,Whole,F#3_F#2
819,Right,0,59,110,202.0,2.989583,DottedHalf,G3_B3
821,Left,1,40,80,205.0,2.989583,DottedHalf,E3_E2
823,Right,0,55,80,205.0,2.989583,DottedHalf,G3_C4
825,Right,0,67,80,207.0,2.989583,DottedHalf,G4
826,Left,1,42,80,208.0,2.989583,DottedHalf,F#3_F#2
827,Right,0,64,80,208.0,2.989583,DottedHalf,E4_C#4_A#3
831,Right,0,66,80,210.0,0.989583,Quarter,F#4
834,Right,0,59,80,211.0,0.989583,Quarter,F#4_D4_B3
832,Left,1,35,110,211.0,0.489583,Eighth,B2_B1
837,Left,1,49,110,211.5,0.489583,Eighth,C#3_C#2
839,Left,1,50,110,212.0,0.489583,Eighth,D3_D2
841,Left,1,52,110,212.5,0.489583,Eighth,E3_E2
843,Left,1,42,120,213.0,3.989583,Whole,F#3_F#2
845,Right,0,55,80,214.0,2.989583,DottedHalf,G3_B3
848,Right,0,55,80,217.0,2.989583,DottedHalf,G3_C4
847,Left,1,40,80,217.0,2.989583,DottedHalf,E3_E2
851,Right,0,67,80,219.0,2.989583,DottedHalf,G4
854,Right,0,58,80,220.0,2.989583,DottedHalf,E4_C#4_A#3
852,Left,1,42,80,220.0,2.989583,DottedHalf,F#3_F#2
857,Right,0,66,80,222.0,0.989583,Quarter,F#4
858,Right,0,67,80,225.0,2.989583,DottedHalf,G4
859,Right,0,62,79,226.0,2.989583,DottedHalf,D4_B3
860,Left,1,35,79,226.0,2.989583,DottedHalf,B2_B1
863,Right,0,66,77,228.0,0.989583,Quarter,F#4
864,Right,0,67,74,231.0,2.989583,DottedHalf,G4
865,Right,0,61,73,232.0,2.989583,DottedHalf,E4_C#4
866,Left,1,42,73,232.0,2.989583,DottedHalf,F#2_F#1
869,Right,0,70,71,234.0,0.989583,Quarter,A#4
871,Left,1,35,70,235.0,0.989583,Quarter,B2_B1
870,Right,0,71,70,235.0,0.989583,Quarter,D4_B4_B3
875,Right,0,62,70,238.0,0.989583,Quarter,D4_B4_B3
878,Left,1,47,70,238.0,0.989583,Quarter,B2_B1
883,Left,1,47,70,241.0,0.989583,Quarter,B2_B1
880,Right,0,71,70,241.0,0.989583,Quarter,D4_B4_B3
885,Right,0,71,70,244.0,2.989583,DottedHalf,B4
886,Right,0,71,70,247.0,2.989583,DottedHalf,B4
887,Right,0,71,70,250.0,1.989583,Half,B4
890,Right,0,81,80,252.0,0.989583,Quarter,B4_A5
888,Left,1,69,80,252.0,0.989583,Quarter,F#4_A4
892,Right,0,71,80,252.5,0.489583,Eighth,B4
895,Right,0,81,80,253.0,1.489583,DottedQuarter,B4_A5
893,Left,1,69,80,253.0,0.989583,Quarter,F#4_A4
897,Right,0,71,80,253.5,0.489583,Eighth,B4
898,Right,0,71,80,254.0,0.489583,Eighth,B4
899,Right,0,71,80,254.5,0.489583,Eighth,G5_B4
903,Right,0,78,80,255.0,0.489583,Eighth,F#5_B4
901,Left,1,66,80,255.0,0.489583,Eighth,F#4_A4
905,Right,0,71,80,255.5,0.489583,Eighth,B4
908,Left,1,64,80,256.0,0.989583,Quarter,G4_E4
906,Right,0,83,80,256.0,0.989583,Quarter,G5_B5_B4
911,Right,0,71,80,256.5,0.489583,Eighth,B4
912,Right,0,71,80,257.0,0.489583,Eighth,B4
913,Right,0,71,80,257.5,0.489583,Eighth,B4
914,Left,1,67,80,258.0,0.989583,Quarter,G4_E4
915,Right,0,79,80,258.0,0.989583,Quarter,G5_B5_B4
919,Right,0,71,80,258.5,0.489583,Eighth,B4
922,Left,1,62,80,259.0,0.989583,Quarter,F4_D4
920,Right,0,83,80,259.0,1.489583,DottedQuarter,G#5_B5_B4
925,Right,0,71,80,259.5,0.489583,Eighth,B4
926,Right,0,71,80,260.0,0.489583,Eighth,B4
927,Right,0,71,80,260.5,0.489583,Eighth,B4_A5
932,Left,1,62,80,261.0,0.489583,Eighth,F4_D4
929,Right,0,80,80,261.0,0.489583,Eighth,G#5_B5_B4
934,Right,0,71,80,261.5,0.489583,Eighth,B4
936,Left,1,64,80,262.0,0.489583,Eighth,E4_C4
935,Right,0,72,80,262.0,0.989583,Quarter,C6_C5_A5
940,Left,1,64,80,262.5,0.489583,Eighth,E4
941,Left,1,64,80,263.0,0.489583,Eighth,E4
942,Left,1,64,80,263.5,0.489583,Eighth,E4
945,Left,1,64,80,264.0,0.489583,Eighth,E4
943,Right,0,84,80,264.0,0.989583,Quarter,C6_C5
946,Left,1,64,81,264.5,0.489583,Eighth,E4
947,Left,1,64,83,265.0,0.989583,Quarter,E4_C4_A3
950,Right,0,84,83,265.0,1.489583,DottedQuarter,C6_C5
952,Left,1,64,84,265.5,0.489583,Eighth,E4
953,Left,1,64,86,266.0,0.489583,Eighth,E4
954,Right,0,71,87,266.5,0.489583,Eighth,B5_B4
956,Left,1,64,87,266.5,0.489583,Eighth,E4
958,Right,0,81,89,267.0,0.489583,Eighth,A5_A4
957,Left,1,60,89,267.0,0.489583,Eighth,E4_C4_A3
962,Left,1,64,91,267.5,0.489583,Eighth,E4
964,Left,1,59,92,268.0,0.989583,Quarter,G#3_F4_B3
963,Right,0,74,92,268.0,0.989583,Quarter,D6_D5
968,Left,1,65,94,268.5,0.489583,Eighth,F4
969,Left,1,65,95,269.0,0.489583,Eighth,F4
970,Left,1,65,97,269.5,0.489583,Eighth,F4
971,Left,1,65,98,270.0,0.989583,Quarter,G#3_F4_B3
973,Right,0,74,98,270.0,0.989583,Quarter,D6_D5
976,Left,1,65,100,270.5,0.489583,Eighth,F4
978,Left,1,58,102,271.0,0.989583,Quarter,G#3_F4_A#3
977,Right,0,74,102,271.0,1.489583,DottedQuarter,D6_D5
982,Left,1,65,103,271.5,0.489583,Eighth,F4
983,Left,1,65,105,272.0,0.489583,Eighth,F4
985,Right,0,84,106,272.5,0.489583,Eighth,C6_C5
984,Left,1,65,106,272.5,0.489583,Eighth,F4
988,Right,0,74,108,273.0,0.489583,Eighth,D6_D5
987,Left,1,58,108,273.0,0.489583,Eighth,G#3_F4_A#3
992,Left,1,65,109,273.5,0.489583,Eighth,F4
993,Right,0,87,110,274.0,1.489583,DottedQuarter,D#6_D#5
994,Left,1,63,110,274.0,0.489583,Eighth,G3_D#4_A#3
998,Left,1,63,110,274.5,0.489583,Eighth,G3_D#4_A#3
1001,Left,1,63,110,275.0,0.489583,Eighth,G3_D#4_A#3
1004,Right,0,74,110,275.5,0.489583,Eighth,D6_D5
1005,Left,1,55,110,275.5,0.489583,Eighth,G3_D#4_A#3
1011,Right,0,75,110,276.0,0.489583,Eighth,D#6_D#5
1009,Left,1,58,110,276.0,0.489583,Eighth,G3_D#4_A#3
1014,Left,1,63,110,276.5,0.489583,Eighth,G3_D#4_A#3
1017,Left,1,54,110,277.0,0.489583,Eighth,F#3_A#3
1019,Right,0,63,110,277.0,1.489583,DottedQuarter,D#4
1020,Left,1,58,110,277.5,0.489583,Eighth,F#3_A#3
1022,Left,1,58,110,278.0,0.489583,Eighth,F#3_A#3
1024,Left,1,58,110,278.5,0.489583,Eighth,F#3_A#3
1026,Right,0,62,110,278.5,0.489583,Eighth,D4
1028,Left,1,58,110,279.0,0.489583,Eighth,F#3_A#3
1027,Right,0,63,110,279.0,0.489583,Eighth,D#4
1030,Left,1,58,110,279.5,0.489583,Eighth,F#3_A#3
1032,Left,1,51,110,280.0,0.489583,Eighth,F#3_D#3
1033,Right,0,63,110,280.0,1.489583,DottedQuarter,F#4_D#4
1036,Left,1,51,110,280.5,0.489583,Eighth,F#3_D#3
1038,Left,1,54,110,281.0,0.489583,Eighth,F#3_D#3
1040,Left,1,54,110,281.5,0.489583,Eighth,F#3_D#3
1042,Right,0,62,110,281.5,0.489583,Eighth,F4_D4
1044,Left,1,54,110,282.0,0.489583,Eighth,F#3_D#3
1045,Right,0,63,110,282.0,0.489583,Eighth,F#4_D#4
1048,Left,1,51,110,282.5,0.489583,Eighth,F#3_D#3
1050,Left,1,51,110,283.0,0.489583,Eighth,D#3_C3
1052,Right,0,75,110,283.0,1.489583,DottedQuarter,F#5_D#5
1054,Left,1,48,110,283.5,0.489583,Eighth,D#3_C3
1056,Left,1,48,110,284.0,0.489583,Eighth,D#3_C3
1059,Left,1,51,110,284.5,0.489583,Eighth,D#3_C3
1058,Right,0,77,110,284.5,0.489583,Eighth,F5_D5
1064,Right,0,78,110,285.0,0.489583,Eighth,F#5_D#5
1062,Left,1,51,110,285.0,0.489583,Eighth,D#3_C3
1066,Left,1,48,110,285.5,0.489583,Eighth,D#3_C3
1068,Right,0,72,110,286.0,1.489583,DottedQuarter,C6_C5
1070,Left,1,48,110,286.0,0.489583,Eighth,C3_A2
1072,Left,1,45,110,286.5,0.489583,Eighth,C3_A2
1074,Left,1,45,110,287.0,0.489583,Eighth,C3_A2
1077,Right,0,83,110,287.5,0.489583,Eighth,B5_B4
1076,Left,1,48,110,287.5,0.489583,Eighth,C3_A2
1081,Right,0,72,110,288.0,0.489583,Eighth,C6_C5
1080,Left,1,45,110,288.0,0.489583,Eighth,C3_A2
1084,Left,1,48,110,288.5,0.489583,Eighth,C3_A2
1086,Right,0,57,110,289.0,1.489583,DottedQuarter,A3
1087,Left,1,48,110,289.0,0.489583,Eighth,F#2_C3_A2
1090,Left,1,45,110,289.5,0.489583,Eighth,F#2_C3_A2
1093,Left,1,42,110,290.0,0.489583,Eighth,F#2_C3_A2
1098,Right,0,56,110,290.5,0.489583,Eighth,G#3
1096,Left,1,42,110,290.5,0.489583,Eighth,F#2_C3_A2
1101,Left,1,42,110,291.0,0.489583,Eighth,F#2_C3_A2
1100,Right,0,57,110,291.0,0.489583,Eighth,A3
1104,Left,1,45,110,291.5,0.489583,Eighth,F#2_C3_A2
1107,Left,1,39,110,292.0,0.489583,Eighth,F#2_D#2_C3_A2
1109,Right,0,90,110,292.0,1.489583,DottedQuarter,F#6_F#5
1113,Left,1,42,110,292.5,0.489583,Eighth,F#2_D#2_C3_A2
1117,Left,1,45,110,293.0,0.489583,Eighth,F#2_D#2_C3_A2
1121,Right,0,77,110,293.5,0.489583,Eighth,F6_F5
1122,Left,1,45,110,293.5,0.489583,Eighth,F#2_D#2_C3_A2
1127,Left,1,48,110,294.0,0.489583,Eighth,F#2_D#2_C3_A2
1131,Right,0,90,110,294.0,0.489583,Eighth,F#6_F#5
1133,Left,1,48,110,294.5,0.489583,Eighth,F#2_D#2_C3_A2
1137,Right,0,72,110,295.0,1.489583,DottedQuarter,F#4_C5_A4
1139,Left,1,38,110,295.0,0.489583,Eighth,F#2_D2_C3_A2
1144,Left,1,45,110,295.5,0.489583,Eighth,F#2_D2_C3_A2
1148,Left,1,45,110,296.0,0.489583,Eighth,F#2_D2_C3_A2
1152,Right,0,71,110,296.5,0.489583,Eighth,F#4_B4_A4
1153,Left,1,48,110,296.5,0.489583,Eighth,F#2_D2_C3_A2
1160,Right,0,66,110,297.0,0.489583,Eighth,F#4_C5_A4
1159,Left,1,48,110,297.0,0.489583,Eighth,F#2_D2_C3_A2
1166,Left,1,38,110,297.5,0.489583,Eighth,F#2_D2_C3_A2
1170,Right,0,71,110,298.0,0.989583,Quarter,G#4_F4_B4
1171,Left,1,31,110,298.0,0.489583,Eighth,G2_G1
1175,Left,1,43,110,298.5,0.489583,Eighth,G2_G1
1177,Left,1,31,110,299.0,0.489583,Eighth,G2_G1
1179,Right,0,68,80,299.5,0.489583,Eighth,G#4_F5_B4
1182,Right,0,67,80,300.0,0.989583,Quarter,G4_E5_C5
1185,Right,0,69,80,301.0,0.989583,Quarter,F#4_D#5_A4
1188,Left,1,43,80,301.5,0.489583,Eighth,G2_G1
1190,Left,1,43,80,302.0,0.489583,Eighth,G2_G1
1192,Right,0,69,80,302.5,0.489583,Eighth,F#4_D#5_A4
1195,Right,0,74,80,303.0,0.989583,Quarter,F4_D5_B4
1198,Right,0,64,80,304.0,0.989583,Quarter,G4_E4_C#5
1201,Left,1,43,80,304.5,0.489583,Eighth,G2_G1
1203,Left,1,43,80,305.0,0.489583,Eighth,G2_G1
1205,Right,0,63,80,305.5,0.489583,Eighth,G4_D#4_C5
1208,Right,0,62,80,306.0,0.989583,Quarter,G4_D4_B4
1211,Right,0,64,80,307.0,0.489583,Eighth,E4_C#4_A#4
1214,Left,1,43,80,307.5,0.489583,Eighth,G2_G1
1216,Right,0,69,80,308.0,0.489583,Eighth,E4_C#4_A4
1219,Left,1,31,80,308.5,0.489583,Eighth,G2_G1
1221,Right,0,68,80,309.0,0.489583,Eighth,G#4_D#4_C#4
1224,Left,1,43,80,309.5,0.489583,Eighth,G2_G1
1226,Right,0,67,80,310.0,0.489583,Eighth,G4
1227,Left,1,43,81,310.5,0.489583,Eighth,G2_G1
1229,Right,0,66,82,311.0,0.489583,Eighth,F#4
1230,Left,1,45,83,311.5,0.489583,Eighth,A2_A1
1232,Right,0,65,84,312.0,0.489583,Eighth,F4
1233,Left,1,47,86,312.5,0.489583,Eighth,B2_B1
1235,Right,0,64,87,313.0,0.489583,Eighth,E4
1236,Left,1,36,88,313.5,0.489583,Eighth,C3_C2
1238,Right,0,63,89,314.0,0.489583,Eighth,D#4
1239,Left,1,37,91,314.5,0.489583,Eighth,C#3_C#2
1241,Right,0,62,92,315.0,0.489583,Eighth,D4
1242,Left,1,50,93,315.5,0.489583,Eighth,D3_D2
1244,Right,0,61,94,316.0,0.489583,Eighth,C#4
1245,Left,1,51,96,316.5,0.489583,Eighth,D#3_D#2
1247,Right,0,60,97,317.0,0.489583,Eighth,C4
1248,Left,1,52,98,317.5,0.489583,Eighth,E3_E2
1250,Right,0,59,99,318.0,0.489583,Eighth,B3
1251,Left,1,53,100,318.5,0.489583,Eighth,F3_F2
1253,Right,0,58,95,319.0,0.489583,Eighth,A#3
1254,Left,1,54,93,319.5,0.489583,Eighth,F#3_F#2
1256,Right,0,57,90,320.0,0.489583,Eighth,A3
1257,Left,1,55,87,320.5,0.489583,Eighth,G3_G2
1259,Right,0,56,84,321.0,0.489583,Eighth,G#3
1260,Left,1,43,81,321.5,0.489583,Eighth,G3_G2
1262,Right,0,56,80,322.0,0.489583,Eighth,G#3
1263,Right,0,55,80,322.5,0.489583,Eighth,G3
1264,Right,0,67,80,323.0,3.989583,Whole,G4
1265,Left,1,65,80,325.0,1.989583,Half,F4
1267,Right,0,67,80,327.0,1.989583,Half,G4
1266,Left,1,59,80,327.0,0.989583,Quarter,F4_B3
1269,Left,1,64,80,328.0,0.989583,Quarter,E4_C4
1271,Right,0,72,80,329.0,0.989583,Quarter,C5
1272,Left,1,60,80,329.0,0.989583,Quarter,C4
1273,Right,0,69,80,330.0,0.989583,Quarter,A4
1274,Left,1,61,80,330.0,0.989583,Quarter,C#4
1275,Left,1,62,80,331.0,0.989583,Quarter,D4
1276,Right,0,67,80,331.0,0.989583,Quarter,G4
1278,Right,0,65,80,332.0,0.989583,Quarter,F4
1277,Left,1,57,80,332.0,0.989583,Quarter,A3
1279,Left,1,58,80,333.0,0.989583,Quarter,A#3
1280,Right,0,65,80,333.0,1.989583,Half,F4
1281,Left,1,59,80,334.0,0.989583,Quarter,B3
1283,Right,0,74,80,335.0,0.989583,Quarter,D5
1282,Left,1,55,80,335.0,0.989583,Quarter,G3
1284,Right,0,65,80,336.0,1.989583,Half,F4
1285,Left,1,62,80,336.0,0.989583,Quarter,D4
1286,Left,1,61,80,337.0,0.989583,Quarter,C#4
1288,Right,0,64,80,338.0,0.989583,Quarter,E4
1287,Left,1,60,80,338.0,0.989583,Quarter,C4
1289,Right,0,64,80,339.0,0.427083,DottedSixteenth,E4
1290,Left,1,60,80,339.0,1.989583,Half,C4_A#3
1292,Right,0,67,80,339.25,0.489583,Eighth,G4
1293,Right,0,72,80,339.5,0.458333,Eighth,C5
1294,Right,0,76,80,339.75,0.4375,Eighth,E5
1295,Left,1,57,80,340.0,0.989583,Quarter,A3
1296,Right,0,77,80,340.0,0.416667,DottedSixteenth,F5
1297,Right,0,72,80,340.25,0.427083,DottedSixteenth,C5
1298,Right,0,69,80,340.5,0.447917,Eighth,A4
1299,Right,0,65,80,340.75,0.416667,DottedSixteenth,F4
1302,Right,0,69,80,341.0,0.447917,Eighth,A4
1300,Left,1,65,80,341.0,0.989583,Quarter,F4_F3
1303,Right,0,72,80,341.25,0.458333,Eighth,C5
1304,Right,0,77,80,341.5,0.479167,Eighth,F5
1305,Left,1,54,80,342.0,0.989583,Quarter,F#3_D4
1307,Right,0,81,80,342.0,0.208333,Sixteenth,A5
1308,Right,0,74,80,342.25,0.4375,DottedSixteenth,D5
1309,Right,0,81,80,342.5,0.458333,Eighth,A5
1310,Right,0,86,80,342.75,0.4375,Eighth,D6
1311,Left,1,55,80,343.0,0.989583,Quarter,G3_C4
1313,Right,0,81,80,343.0,0.489583,Eighth,A5
1314,Right,0,74,80,343.25,0.46875,Eighth,D5
1315,Right,0,81,80,343.5,0.489583,Eighth,A5
1316,Right,0,82,80,343.75,0.458333,Eighth,A#5
1318,Left,1,50,80,344.0,0.989583,Quarter,D3_A#3
1317,Right,0,79,80,344.0,0.46875,Eighth,G5
1320,Right,0,74,80,344.25,0.458333,Eighth,D5
1321,Right,0,79,80,344.5,0.489583,Eighth,G5
1322,Right,0,82,80,344.75,0.447917,Eighth,A#5
1324,Left,1,53,80,345.0,1.989583,Quarter,F3_A#3
1323,Right,0,79,80,345.0,0.458333,Eighth,G5
1326,Right,0,73,80,345.25,0.447917,Eighth,C#5
1327,Right,0,79,80,345.5,0.46875,Eighth,G5
1328,Right,0,82,80,345.75,0.4375,Eighth,A#5
1329,Left,1,52,80,346.0,0.989583,Quarter,E3
1330,Right,0,79,80,346.0,0.447917,Eighth,G5
1331,Right,0,72,80,346.25,0.4375,Eighth,C5
1332,Right,0,79,80,346.5,0.458333,Eighth,G5
1333,Right,0,82,80,346.75,0.447917,Eighth,A#5
1335,Right,0,76,80,347.0,0.447917,Eighth,E5
1334,Left,1,67,80,347.0,0.989583,Quarter,G4
1336,Right,0,72,80,347.25,0.458333,Eighth,C5
1337,Right,0,76,80,347.5,0.447917,Eighth,E5
1338,Right,0,79,80,348.0,0.197917,TripletSixteenth,G5
1339,Left,1,48,80,348.0,1.989583,Quarter,C3_A#3
1341,Right,0,76,80,348.25,0.458333,Eighth,E5
1342,Right,0,79,80,348.5,0.447917,Eighth,G5
1343,Right,0,84,80,348.75,0.458333,Eighth,C6
1345,Left,1,53,80,349.0,0.989583,Quarter,F3
1344,Right,0,79,80,349.0,0.427083,DottedSixteenth,G5
1346,Right,0,76,80,349.25,0.4375,DottedSixteenth,E5
1347,Right,0,79,80,349.5,0.489583,Eighth,G5
1348,Right,0,84,80,349.75,0.4375,Eighth,C6
1349,Left,1,53,80,350.0,0.989583,Quarter,F3_A3
1350,Right,0,81,80,350.0,0.46875,Eighth,A5
1352,Right,0,77,80,350.25,0.447917,Eighth,F5
1353,Right,0,81,80,350.5,0.479167,Eighth,A5
1354,Right,0,84,80,350.75,0.447917,Eighth,C6
1356,Left,1,45,80,351.0,1.989583,Half,A2
1355,Right,0,81,80,351.0,0.447917,Eighth,A5
1357,Right,0,77,80,351.25,0.427083,DottedSixteenth,F5
1358,Right,0,81,80,351.5,0.458333,Eighth,A5
1359,Right,0,84,80,351.75,0.46875,Eighth,C6
1360,Right,0,81,80,352.0,0.458333,Eighth,A5
1361,Right,0,77,81,352.25,0.46875,Eighth,F5
1362,Right,0,81,81,352.5,0.458333,Eighth,A5
1363,Right,0,86,81,352.75,0.447917,Eighth,D6
1364,Right,0,81,81,353.0,0.4375,Eighth,A5
1365,Left,1,50,81,353.0,0.989583,Quarter,D3
1366,Right,0,77,82,353.25,0.4375,DottedSixteenth,F5
1367,Right,0,81,82,353.5,0.479167,Eighth,A5
1368,Right,0,86,82,353.75,0.46875,Eighth,D6
1369,Right,0,82,82,354.0,0.427083,DottedSixteenth,A#5
1370,Left,1,46,82,354.0,0.989583,Quarter,A#2
1371,Right,0,77,83,354.25,0.458333,Eighth,F5
1372,Right,0,82,83,354.5,0.447917,Eighth,A#5
1373,Right,0,86,83,354.75,0.46875,Eighth,D6
1375,Right,0,83,83,355.0,0.46875,Eighth,B5
1374,Left,1,45,83,355.0,0.989583,Quarter,A2
1376,Right,0,78,83,355.25,0.46875,Eighth,F#5
1377,Right,0,83,84,355.5,0.4375,Eighth,B5
1378,Right,0,86,84,355.75,0.447917,Eighth,D6
1380,Left,1,44,84,356.0,0.989583,Quarter,G#2
1379,Right,0,83,84,356.0,0.46875,Eighth,B5
1381,Right,0,76,84,356.25,0.458333,Eighth,E5
1382,Right,0,83,85,356.5,0.447917,Eighth,B5
1383,Right,0,86,85,356.75,0.46875,Eighth,D6
1385,Right,0,83,85,357.0,0.4375,Eighth,B5
1384,Left,1,44,85,357.0,0.989583,Quarter,G#2
1386,Right,0,76,85,357.25,0.447917,Eighth,E5
1387,Right,0,83,86,357.5,0.458333,Eighth,B5
1388,Right,0,86,86,357.75,0.416667,DottedSixteenth,D6
1389,Left,1,44,86,358.0,0.989583,Quarter,G#2
1390,Right,0,83,86,358.0,0.4375,DottedSixteenth,B5
1391,Right,0,76,86,358.25,0.447917,Eighth,E5
1392,Right,0,83,87,358.5,0.427083,DottedSixteenth,B5
1393,Right,0,86,87,358.75,0.479167,Eighth,D6
1395,Left,1,52,87,359.0,1.989583,Half,E3
1394,Right,0,83,87,359.0,0.447917,Eighth,B5
1396,Right,0,76,87,359.25,0.458333,Eighth,E5
1397,Right,0,83,87,359.5,0.4375,DottedSixteenth,B5
1398,Right,0,86,88,359.75,0.458333,Eighth,D6
1399,Right,0,83,88,360.0,0.458333,Eighth,B5
1400,Left,1,44,88,360.0,0.989583,Quarter,G#2
1401,Right,0,76,88,360.25,0.479167,Eighth,E5
1402,Right,0,83,88,360.5,0.458333,Eighth,B5
1403,Right,0,86,89,360.75,0.4375,Eighth,D6
1405,Right,0,83,89,361.0,0.458333,Eighth,B5
1404,Left,1,45,89,361.0,0.989583,Quarter,A2
1406,Right,0,76,89,361.25,0.46875,Eighth,E5
1407,Right,0,83,89,361.5,0.46875,Eighth,B5
1408,Right,0,84,90,361.75,0.46875,Eighth,C6
1410,Right,0,81,90,362.0,0.46875,Eighth,A5
1409,Left,1,52,90,362.0,1.989583,Half,E3
1411,Right,0,76,90,362.25,0.46875,Eighth,E5
1412,Right,0,81,90,362.5,0.46875,Eighth,A5
1413,Right,0,84,90,362.75,0.489583,Eighth,C6
1414,Right,0,81,91,363.0,0.458333,Eighth,A5
1415,Left,1,45,91,363.0,0.989583,Quarter,A2
1416,Right,0,76,91,363.25,0.458333,Eighth,E5
1417,Right,0,81,91,363.5,0.427083,DottedSixteenth,A5
1418,Right,0,84,91,363.75,0.46875,Eighth,C6
1419,Left,1,47,92,364.0,0.989583,Quarter,B2
1420,Right,0,81,92,364.0,0.447917,Eighth,A5
1421,Right,0,74,92,364.25,0.427083,DottedSixteenth,D5
1422,Right,0,81,92,364.5,0.4375,DottedSixteenth,A5
1423,Right,0,83,92,364.75,0.4375,Eighth,B5
1424,Left,1,52,93,365.0,1.989583,Half,E3
1425,Right,0,80,93,365.0,0.416667,DottedSixteenth,G#5
1426,Right,0,74,93,365.25,0.46875,Eighth,D5
1427,Right,0,80,93,365.5,0.479167,Eighth,G#5
1428,Right,0,83,93,365.75,0.4375,DottedSixteenth,B5
1429,Right,0,80,94,366.0,0.447917,Eighth,G#5
1430,Left,1,47,94,366.0,0.989583,Quarter,B2
1431,Right,0,74,94,366.25,0.4375,Eighth,D5
1432,Right,0,80,94,366.5,0.46875,Eighth,G#5
1433,Right,0,83,94,366.75,0.416667,DottedSixteenth,B5
1434,Left,1,48,94,367.0,0.989583,Quarter,C3
1435,Right,0,80,94,367.0,0.447917,Eighth,G#5
1436,Right,0,74,95,367.25,0.416667,DottedSixteenth,D5
1437,Right,0,80,95,367.5,0.447917,Eighth,G#5
1438,Right,0,83,95,367.75,0.447917,Eighth,B5
1440,Right,0,80,95,368.0,0.458333,Eighth,G#5
1439,Left,1,52,106,368.0,1.989583,Half,E3
1441,Right,0,81,96,368.25,0.4375,DottedSixteenth,A5
1442,Right,0,72,96,368.5,0.427083,DottedSixteenth,C5
1443,Right,0,81,96,368.75,0.427083,DottedSixteenth,A5
1445,Right,0,80,96,369.0,0.427083,DottedSixteenth,G#5
1444,Left,1,48,96,369.0,0.989583,Quarter,C3
1446,Right,0,81,97,369.25,0.447917,Eighth,A5
1447,Right,0,72,97,369.5,0.489583,Eighth,C5
1448,Left,1,51,97,370.0,0.989583,Quarter,D#3
1449,Right,0,81,97,370.0,0.239583,Sixteenth,A5
1450,Right,0,71,98,370.25,0.479167,Eighth,B4
1451,Right,0,81,98,370.5,0.4375,DottedSixteenth,A5
1452,Right,0,83,98,370.75,0.458333,Eighth,B5
1453,Left,1,59,110,371.0,1.989583,Half,B3
1454,Right,0,81,98,371.0,0.46875,Eighth,A5
1455,Right,0,71,98,371.25,0.458333,Eighth,B4
1456,Right,0,81,99,371.5,0.447917,Eighth,A5
1457,Right,0,83,99,371.75,0.447917,Eighth,B5
1459,Left,1,51,99,372.0,0.989583,Quarter,D#3
1458,Right,0,81,99,372.0,0.46875,Eighth,A5
1460,Right,0,71,99,372.25,0.4375,Eighth,B4
1461,Right,0,81,100,372.5,0.4375,DottedSixteenth,A5
1462,Right,0,83,100,372.75,0.489583,Eighth,B5
1463,Left,1,52,100,373.0,0.989583,Quarter,E3
1464,Right,0,81,100,373.0,0.489583,Eighth,A5
1465,Right,0,71,100,373.25,0.458333,Eighth,B4
1466,Right,0,81,101,373.5,0.458333,Eighth,A5
1467,Right,0,83,101,373.75,0.46875,Eighth,B5
1469,Right,0,81,101,374.0,0.447917,Eighth,A5
1468,Left,1,60,111,374.0,1.989583,Half,C4
1470,Right,0,71,101,374.25,0.458333,Eighth,B4
1471,Right,0,81,101,374.5,0.46875,Eighth,A5
1472,Right,0,83,102,374.75,0.458333,Eighth,B5
1474,Right,0,81,102,375.0,0.4375,DottedSixteenth,A5
1473,Left,1,52,102,375.0,0.989583,Quarter,E3
1475,Right,0,71,102,375.25,0.427083,DottedSixteenth,B4
1476,Right,0,81,102,375.5,0.458333,Eighth,A5
1477,Right,0,83,103,375.75,0.489583,Eighth,B5
1478,Left,1,54,103,376.0,0.989583,Quarter,F#3
1479,Right,0,81,103,376.0,0.458333,Eighth,A5
1480,Right,0,71,103,376.25,0.489583,Eighth,B4
1481,Right,0,81,103,376.5,0.447917,Eighth,A5
1482,Right,0,83,104,376.75,0.479167,Eighth,B5
1483,Right,0,81,104,377.0,0.447917,Eighth,A5
1484,Left,1,63,118,377.0,1.989583,Half,D#4
1485,Right,0,71,104,377.25,0.489583,Eighth,B4
1486,Right,0,81,104,377.5,0.458333,Eighth,A5
1487,Right,0,83,105,377.75,0.46875,Eighth,B5
1489,Right,0,81,105,378.0,0.479167,Eighth,A5
1488,Left,1,54,105,378.0,0.989583,Quarter,F#3
1490,Right,0,71,105,378.25,0.489583,Eighth,B4
1491,Right,0,81,105,378.5,0.489583,Eighth,A5
1492,Right,0,83,105,378.75,0.458333,Eighth,B5
1494,Right,0,79,106,379.0,0.46875,Eighth,G5
1493,Left,1,55,106,379.0,0.989583,Quarter,G3
1495,Right,0,71,106,379.25,0.46875,Eighth,B4
1496,Right,0,79,106,379.5,0.458333,Eighth,G5
1497,Right,0,83,106,379.75,0.447917,Eighth,B5
1499,Left,1,64,121,380.0,1.989583,Half,E4
1498,Right,0,79,107,380.0,0.479167,Eighth,G5
1500,Right,0,71,107,380.25,0.46875,Eighth,B4
1501,Right,0,79,107,380.5,0.427083,DottedSixteenth,G5
1502,Right,0,83,108,381.0,0.208333,Sixteenth,B5
1503,Left,1,55,108,381.0,0.989583,Quarter,G3
1504,Right,0,76,108,381.25,0.447917,Eighth,E5
1505,Right,0,83,108,381.5,0.46875,Eighth,B5
1506,Right,0,88,108,381.75,0.416667,DottedSixteenth,E6
1508,Right,0,84,108,382.0,0.447917,Eighth,C6
1507,Left,1,57,108,382.0,0.989583,Quarter,A3
1509,Right,0,76,109,382.25,0.4375,Eighth,E5
1510,Right,0,84,109,382.5,0.458333,Eighth,C6
1511,Right,0,88,109,382.75,0.479167,Eighth,E6
1513,Right,0,84,109,383.0,0.4375,Eighth,C6
1512,Left,1,66,120,383.0,1.989583,Half,F#4
1514,Right,0,76,110,383.25,0.458333,Eighth,E5
1515,Right,0,84,110,383.5,0.458333,Eighth,C6
1516,Right,0,88,110,383.75,0.46875,Eighth,E6
1518,Right,0,84,110,384.0,0.447917,Eighth,C6
1517,Left,1,57,110,384.0,0.989583,Quarter,A3
1519,Right,0,76,111,384.25,0.458333,Eighth,E5
1520,Right,0,84,111,384.5,0.447917,Eighth,C6
1521,Right,0,88,111,384.75,0.458333,Eighth,E6
1523,Right,0,85,111,385.0,0.458333,Eighth,C#6
1522,Left,1,58,111,385.0,0.989583,Quarter,A#3
1524,Right,0,79,112,385.25,0.4375,Eighth,G5
1525,Right,0,85,112,385.5,0.46875,Eighth,C#6
1526,Right,0,88,112,385.75,0.447917,Eighth,E6
1527,Right,0,85,112,386.0,0.458333,Eighth,C#6
1528,Left,1,67,121,386.0,1.989583,Half,G4
1529,Right,0,79,112,386.25,0.479167,Eighth,G5
1530,Right,0,85,113,386.5,0.46875,Eighth,C#6
1531,Right,0,88,113,386.75,0.447917,Eighth,E6
1533,Left,1,58,113,387.0,0.989583,Quarter,A#3
1532,Right,0,85,113,387.0,0.447917,Eighth,C#6
1534,Right,0,79,113,387.25,0.458333,Eighth,G5
1535,Right,0,85,114,387.5,0.458333,Eighth,C#6
1536,Right,0,88,114,387.75,0.489583,Eighth,E6
1537,Left,1,59,114,388.0,2.989583,DottedHalf,B3
1538,Right,0,83,114,388.0,0.479167,Eighth,B5
1539,Right,0,79,114,388.25,0.489583,Eighth,G5
1540,Right,0,83,115,388.5,0.447917,Eighth,B5
1541,Right,0,88,115,388.75,0.46875,Eighth,E6
1542,Left,1,64,115,389.0,0.989583,Quarter,E4
1543,Right,0,91,115,389.0,0.427083,DottedSixteenth,G6
1544,Right,0,90,115,389.25,0.458333,Eighth,F#6
1545,Right,0,88,116,389.5,0.479167,Eighth,E6
1546,Right,0,87,116,389.75,0.46875,Eighth,D#6
1548,Left,1,67,116,390.0,0.989583,Quarter,G4
1547,Right,0,88,116,390.0,0.447917,Eighth,E6
1549,Right,0,87,116,390.25,0.46875,Eighth,D#6
1550,Right,0,88,116,390.5,0.447917,Eighth,E6
1551,Right,0,90,117,390.75,0.458333,Eighth,F#6
1552,Right,0,91,117,391.0,0.458333,Eighth,G6
1553,Left,1,71,117,391.0,0.989583,Quarter,B4
1554,Right,0,90,117,391.25,0.447917,Eighth,F#6
1555,Right,0,88,117,391.5,0.479167,Eighth,E6
1556,Right,0,87,118,391.75,0.4375,Eighth,D#6
1557,Left,1,76,118,392.0,0.989583,Quarter,E5
1558,Right,0,91,118,392.0,0.447917,Eighth,G6
1559,Right,0,90,118,392.25,0.4375,Eighth,F#6
1560,Right,0,88,118,392.5,0.46875,Eighth,E6
1561,Right,0,87,119,392.75,0.4375,Eighth,D#6
1563,Left,1,79,119,393.0,0.989583,Quarter,G5
1562,Right,0,91,119,393.0,0.458333,Eighth,G6
1564,Right,0,90,119,393.25,0.447917,Eighth,F#6
1565,Right,0,88,119,393.5,0.46875,Eighth,E6
1566,Right,0,87,119,393.75,0.239583,Sixteenth,D#6
1567,Right,0,91,120,394.0,0.239583,Sixteenth,G6
1568,Right,0,90,120,394.25,0.239583,Sixteenth,F#6
1569,Right,0,88,120,394.5,0.239583,Sixteenth,E6
1570,Right,0,87,120,394.75,0.239583,Sixteenth,D#6
1571,Right,0,88,120,395.0,0.489583,Eighth,E6
1572,Left,1,79,120,395.0,0.239583,Sixteenth,G5
1573,Left,1,78,120,395.25,0.239583,Sixteenth,F#5
1574,Left,1,76,120,395.5,0.239583,Sixteenth,E5
1575,Left,1,75,120,395.75,0.239583,Sixteenth,D#5
1576,Left,1,76,120,396.0,0.489583,Eighth,E5
1577,Right,0,91,80,397.0,0.489583,Eighth,G6
1578,Right,0,90,80,397.5,0.489583,Eighth,F#6
1580,Left,1,79,80,398.0,0.489583,Eighth,G5
1579,Right,0,88,80,398.0,0.489583,Eighth,E6
1581,Right,0,87,80,398.5,0.489583,Eighth,D#6
1582,Left,1,78,80,398.5,0.489583,Eighth,F#5
1583,Right,0,88,80,399.0,0.989583,Quarter,E6
1584,Left,1,76,80,399.0,0.489583,Eighth,E5
1585,Left,1,75,80,399.5,0.489583,Eighth,D#5
1587,Right,0,91,80,400.0,0.989583,Quarter,G6
1586,Left,1,76,80,400.0,0.989583,Quarter,E5
1588,Right,0,90,80,401.0,0.989583,Quarter,F#6
1590,Left,1,79,80,402.0,0.989583,Quarter,G5
1589,Right,0,88,80,402.0,0.989583,Quarter,E6
1592,Right,0,87,80,403.0,0.989583,Quarter,D#6
1591,Left,1,78,80,403.0,0.989583,Quarter,F#5
1594,Right,0,88,80,404.0,0.989583,Quarter,E6
1593,Left,1,76,80,404.0,0.989583,Quarter,E5
1595,Left,1,75,79,405.0,0.989583,Quarter,D#5
1597,Right,0,91,79,406.0,1.989583,Half,G6
1596,Left,1,76,79,406.0,0.989583,Quarter,E5
1598,Right,0,90,77,408.0,1.989583,Half,F#6
1599,Left,1,79,77,409.0,1.989583,Half,G5
1600,Right,0,88,76,410.0,0.989583,Quarter,E6
1601,Left,1,78,75,411.0,1.989583,Half,F#5
1602,Right,0,67,75,412.0,1.989583,Half,G4
1603,Left,1,76,74,413.0,0.989583,Quarter,E5
1604,Right,0,66,73,414.0,0.489583,Eighth,F#4
1605,Right,0,64,73,414.5,0.489583,Eighth,E4
1606,Right,0,64,73,415.0,0.989583,Quarter,E4
1607,Left,1,67,73,415.0,1.989583,Half,G4
1608,Left,1,66,71,417.0,0.489583,Eighth,F#4
1609,Left,1,64,71,417.5,0.489583,Eighth,E4
1610,Left,1,64,71,418.0,0.989583,Quarter,E4
1611,Right,0,67,70,419.0,0.989583,Quarter,G4
1613,Left,1,67,70,420.0,0.989583,Quarter,G4
1612,Right,0,66,70,420.0,0.489583,Eighth,F#4
1614,Right,0,64,70,420.5,0.489583,Eighth,E4
1616,Left,1,66,70,421.0,0.489583,Eighth,F#4
1615,Right,0,64,70,421.0,0.489583,Eighth,E4
1617,Left,1,64,70,421.5,0.489583,Eighth,E4
1618,Left,1,64,70,422.0,0.489583,Eighth,E4
1619,Right,0,67,80,422.5,0.489583,Eighth,G4
1620,Right,0,66,82,423.0,0.489583,Eighth,F#4
1622,Left,1,79,85,423.5,0.489583,Eighth,G5
1621,Right,0,64,85,423.5,0.489583,Eighth,E4
1623,Left,1,78,87,424.0,0.489583,Eighth,F#5
1625,Left,1,76,90,424.5,0.489583,Eighth,E5
1624,Right,0,91,90,424.5,0.489583,Eighth,G6
1626,Right,0,90,92,425.0,0.489583,Eighth,F#6
1628,Right,0,88,95,425.5,0.489583,Eighth,E6
1627,Left,1,79,95,425.5,0.489583,Eighth,G5
1629,Left,1,78,98,426.0,0.489583,Eighth,F#5
1630,Left,1,76,100,426.5,0.489583,Eighth,E5
1631,Right,0,67,100,426.5,0.489583,Eighth,G4
1632,Right,0,66,103,427.0,0.489583,Eighth,F#4
1633,Right,0,64,105,427.5,0.489583,Eighth,E4
1634,Left,1,55,105,427.5,0.489583,Eighth,G3
1635,Left,1,54,108,428.0,0.489583,Eighth,F#3
1636,Left,1,52,110,428.5,0.489583,Eighth,E3
1637,Right,0,67,110,429.0,0.489583,Eighth,G4
1638,Left,1,52,110,429.0,0.989583,Quarter,E3
1642,Left,1,52,110,430.0,1.989583,Half,E3_E2
1639,Right,0,59,110,430.0,1.989583,Half,G4_G3_E4_B3
1645,Right,0,66,110,431.5,0.489583,Eighth,F#4
1646,Right,0,55,110,432.0,0.489583,Eighth,G3_E4
1648,Left,1,40,110,432.0,0.489583,Eighth,E3_E2
1650,Right,0,69,110,433.0,0.489583,Eighth,F#4_A4_A3
1652,Left,1,50,110,433.0,0.489583,Eighth,D3_D2
1655,Right,0,69,80,435.0,0.989583,Quarter,F#4_A4
1656,Left,1,62,80,435.0,0.989583,Quarter,D4
1660,Left,1,60,80,436.0,1.489583,DottedQuarter,D4_C4
1658,Right,0,69,80,436.0,1.489583,DottedQuarter,F#4_A4
1662,Left,1,62,80,437.5,0.489583,Eighth,D4_B3
1663,Right,0,67,80,437.5,0.489583,Eighth,G4
1665,Left,1,57,80,438.0,0.989583,Quarter,C4_A3
1666,Right,0,69,80,438.0,0.989583,Quarter,F#4_A4
1670,Left,1,59,80,439.0,0.989583,Quarter,G3_B3
1669,Right,0,71,80,439.0,0.989583,Quarter,G4_B4
1674,Right,0,59,110,441.0,0.489583,Eighth,G4_D4_B4_B3
1673,Left,1,43,110,441.0,0.489583,Eighth,G3_G2
1679,Right,0,71,110,442.0,1.989583,Half,G4_D4_B4_B3
1682,Left,1,55,110,442.0,1.989583,Half,G3_G2
1685,Right,0,69,110,443.5,0.489583,Eighth,A4
1688,Right,0,59,110,444.0,0.489583,Eighth,G4_B3
1686,Left,1,43,110,444.0,0.489583,Eighth,G2_G1
1692,Right,0,73,110,445.0,0.489583,Eighth,C#5_C#4_A#4
1690,Left,1,42,110,445.0,0.989583,Quarter,F#2_F#1
1697,Left,1,66,80,447.0,0.989583,Quarter,F#4
1695,Right,0,73,80,447.0,0.989583,Quarter,C#5_A#4
1698,Right,0,73,80,448.0,1.489583,DottedQuarter,C#5_A#4
1700,Left,1,64,80,448.0,1.489583,DottedQuarter,F#4_E4
1702,Right,0,71,80,449.5,0.489583,Eighth,B4
1703,Left,1,66,80,449.5,0.489583,Eighth,F#4_D4
1707,Left,1,61,80,450.0,0.989583,Quarter,E4_C#4
1705,Right,0,73,80,450.0,0.989583,Quarter,C#5_A#4
1711,Left,1,59,80,451.0,0.989583,Quarter,D4_B3
1709,Right,0,74,80,451.0,0.989583,Quarter,D5_B4
1713,Right,0,74,80,453.0,1.989583,Half,D5
1714,Left,1,67,80,454.0,4.989583,Unknown,G4_D4_B3
1717,Right,0,79,80,455.0,0.989583,Quarter,G5
1719,Left,1,64,80,456.0,2.989583,DottedHalf,E4
1718,Right,0,76,80,456.0,0.989583,Quarter,E5
1721,Left,1,57,80,457.0,1.989583,Half,A3
1720,Right,0,74,80,457.0,0.989583,Quarter,D5
1722,Right,0,72,80,458.0,0.989583,Quarter,C5
1724,Left,1,66,80,459.0,2.989583,DottedHalf,F#4_D#4
1723,Right,0,72,80,459.0,1.989583,Half,C5
1726,Left,1,62,80,460.0,1.989583,Half,D4
1727,Right,0,81,80,461.0,0.989583,Quarter,A5
1728,Right,0,72,80,462.0,1.989583,Half,C5
1729,Left,1,66,80,462.0,0.989583,Quarter,F#4
1730,Left,1,67,80,463.0,1.989583,Half,G4
1731,Right,0,71,80,464.0,0.989583,Quarter,B4
1732,Right,0,71,80,465.0,1.989583,Half,B4
1733,Left,1,55,80,465.0,0.989583,Quarter,G3
1734,Left,1,52,80,466.0,1.989583,Half,E3
1735,Right,0,67,80,467.0,0.989583,Quarter,G4
1737,Right,0,67,80,468.0,1.989583,Half,G4
1736,Left,1,64,80,468.0,0.989583,Quarter,E4
1738,Left,1,60,80,469.0,1.989583,Half,C4
1739,Right,0,64,80,470.0,0.989583,Quarter,E4
1740,Left,1,48,80,471.0,3.989583,Whole,C3
1741,Right,0,64,80,471.0,1.989583,Half,E4
1742,Left,1,36,80,472.0,2.989583,DottedHalf,C2
1743,Left,1,55,80,473.0,0.989583,Quarter,G3
1744,Left,1,52,80,474.0,0.989583,Quarter,E3
1745,Left,1,35,80,475.0,1.989583,Half,B2_B1
1746,Right,0,51,80,475.0,1.989583,Half,D#3_B3
1749,Right,0,88,80,477.0,2.489583,Half,E6_E5
1751,Left,1,59,82,478.0,2.989583,DottedHalf,G2_E3_B3
1754,Right,0,87,85,479.5,0.489583,Eighth,D#6_D#5
1756,Right,0,76,86,480.0,0.989583,Quarter,E6_E5
1758,Right,0,66,88,481.0,1.989583,Half,F#4_E4_C4
1761,Left,1,45,88,481.0,2.989583,Half,E3_A2
1763,Right,0,61,93,483.0,0.989583,Quarter,F#4_E4_C#4
1766,Left,1,46,93,483.0,0.989583,Quarter,A#2
1767,Right,0,63,95,484.0,2.989583,DottedHalf,F#4_D#4_A3
1770,Left,1,47,95,484.0,2.989583,DottedHalf,B2
1771,Right,0,67,98,485.5,0.489583,Eighth,G4
1772,Right,0,69,99,486.0,0.489583,Eighth,A4
1773,Right,0,67,100,486.5,0.489583,Eighth,G4
1776,Right,0,66,80,487.0,0.989583,Quarter,F#4
1774,Left,1,48,80,487.0,1.989583,Half,G3_C3
1777,Right,0,64,80,488.0,0.989583,Quarter,E4
1778,Right,0,76,80,489.0,2.489583,Half,E6_E5
1780,Left,1,47,80,489.0,0.489583,Eighth,B2
1781,Left,1,45,80,489.5,0.489583,Eighth,A2
1782,Left,1,59,80,490.0,2.989583,DottedHalf,G2_E3_B3
1785,Right,0,75,80,491.5,0.489583,Eighth,D#6_D#5
1789,Left,1,44,80,492.0,0.989583,Quarter,G#2
1787,Right,0,88,80,492.0,0.989583,Quarter,E6_E5
1791,Right,0,60,80,493.0,1.989583,Half,F#4_E4_C4
1790,Left,1,45,80,493.0,1.989583,Half,A2
1795,Right,0,61,80,495.0,0.989583,Quarter,F#4_E4_C#4
1794,Left,1,46,80,495.0,0.989583,Quarter,A#2
1799,Right,0,66,80,496.0,2.989583,DottedHalf,F#4_D#4_A3
1798,Left,1,47,80,496.0,2.989583,DottedHalf,B2_B1
1803,Right,0,69,80,497.5,0.489583,Eighth,A4
1804,Right,0,67,80,498.0,0.489583,Eighth,G4
1805,Right,0,66,80,498.5,0.489583,Eighth,F#4
1806,Left,1,40,80,499.0,0.989583,Quarter,E3_E2
1807,Right,0,55,80,499.0,0.989583,Quarter,G3_E4
1812,Left,1,43,80,501.0,0.989583,Quarter,G2_G1
1810,Right,0,55,80,501.0,0.989583,Quarter,G4_G3
1816,Right,0,55,80,502.0,1.989583,Half,G4_G3
1814,Left,1,43,80,502.0,1.989583,Half,G2_G1
1818,Right,0,60,80,504.0,0.989583,Quarter,C5_C4
1819,Left,1,48,80,504.0,0.989583,Quarter,C3_C2
1822,Right,0,72,80,505.0,1.989583,Half,C5_C4
1823,Left,1,48,80,505.0,1.989583,Half,C3_C2
1826,Right,0,79,80,507.0,0.989583,Quarter,G5_G4
1827,Left,1,43,80,507.0,0.989583,Quarter,G3_G2
1830,Right,0,67,80,508.0,1.989583,Half,G5_G4
1832,Left,1,55,80,508.0,1.989583,Half,G3_G2
1834,Right,0,72,80,510.0,0.989583,Quarter,C6_C5
1835,Left,1,60,80,510.0,0.989583,Quarter,C4_C3
1838,Right,0,72,80,511.0,1.989583,Half,C6_C5
1839,Left,1,48,80,511.0,1.989583,Half,C4_C3
1844,Left,1,65,110,513.0,0.489583,Eighth,G4_F4_D4_B3
1842,Right,0,86,110,513.0,0.489583,Eighth,F6_F5_D6
1849,Left,1,59,110,514.0,1.489583,DottedQuarter,G4_F4_D4_B3
1853,Right,0,89,110,514.0,1.489583,DottedQuarter,F6_F5_D6
1856,Right,0,88,110,515.5,0.46875,Eighth,E6
1857,Right,0,86,110,515.75,0.489583,Eighth,D6
1858,Right,0,84,110,516.0,0.489583,Eighth,C6
1859,Right,0,83,110,516.25,0.427083,DottedSixteenth,B5
1860,Right,0,81,110,516.5,0.458333,Eighth,A5
1861,Right,0,79,110,516.75,0.458333,Eighth,G5
1862,Right,0,77,110,517.0,0.458333,Eighth,F5
1863,Right,0,76,110,517.25,0.479167,Eighth,E5
1864,Right,0,74,110,517.5,0.46875,Eighth,D5
1865,Right,0,72,110,517.75,0.4375,DottedSixteenth,C5
1866,Right,0,71,110,518.0,0.3125,Triplet,B4
1867,Right,0,69,110,518.166667,0.3125,Triplet,A4
1868,Right,0,67,110,518.333333,0.3125,Triplet,G4
1869,Right,0,65,110,518.5,0.322917,Triplet,F4
1870,Right,0,64,110,518.666667,0.322917,Triplet,E4
1871,Right,0,62,110,518.833333,0.302083,Triplet,D4
1872,Right,0,60,110,519.0,0.354167,DottedSixteenth,C4
1873,Right,0,59,110,519.197917,0.354167,DottedSixteenth,B3
1874,Right,0,57,110,519.395833,0.364583,DottedSixteenth,A3
1875,Right,0,55,110,519.59375,0.333333,Triplet,G3
1876,Right,0,54,110,519.791667,0.197917,TripletSixteenth,F#3
1877,Right,0,55,110,520.0,0.489583,Eighth,G3
1878,Left,1,35,110,522.0,0.489583,Eighth,B2_B1
1880,Right,0,62,110,522.0,0.489583,Eighth,G3_F4_D4
1884,Left,1,36,110,523.0,0.489583,Eighth,C3_C2
1883,Right,0,64,110,523.0,0.489583,Eighth,G3_E4_C4
1891,Left,1,62,110,525.0,0.489583,Eighth,G#3_E3_D4_B3
1888,Right,0,83,110,525.0,0.489583,Eighth,G#5_D6_D5_B5
1896,Left,1,59,110,526.0,1.489583,DottedQuarter,G#3_E3_D4_B3
1900,Right,0,83,110,526.0,1.489583,DottedQuarter,G#5_D6_D5_B5
1904,Right,0,84,110,527.5,0.458333,Eighth,C6
1905,Right,0,83,110,527.75,0.447917,Eighth,B5
1906,Right,0,81,110,528.0,0.458333,Eighth,A5
1907,Right,0,80,110,528.25,0.427083,DottedSixteenth,G#5
1908,Right,0,78,110,528.5,0.4375,DottedSixteenth,F#5
1909,Right,0,76,110,528.75,0.4375,Eighth,E5
1910,Right,0,74,110,529.0,0.4375,Eighth,D5
1911,Right,0,72,110,529.25,0.4375,Eighth,C5
1912,Right,0,71,110,529.5,0.447917,Eighth,B4
1913,Right,0,69,110,529.75,0.4375,Eighth,A4
1914,Right,0,68,110,530.0,0.3125,Triplet,G#4
1915,Right,0,66,110,530.166667,0.3125,Triplet,F#4
1916,Right,0,64,110,530.333333,0.322917,Triplet,E4
1917,Right,0,62,110,530.5,0.322917,Triplet,D4
1918,Right,0,60,110,530.666667,0.322917,Triplet,C4
1919,Right,0,59,110,530.833333,0.322917,Triplet,B3
1920,Right,0,57,110,531.0,0.333333,Triplet,A3
1921,Right,0,56,110,531.197917,0.364583,DottedSixteenth,G#3
1922,Right,0,54,110,531.395833,0.364583,DottedSixteenth,F#3
1923,Right,0,52,110,531.59375,0.354167,DottedSixteenth,E3
1924,Right,0,51,110,531.791667,0.197917,TripletSixteenth,D#3
1925,Right,0,52,110,532.0,0.989583,Quarter,E3
1926,Left,1,32,110,534.0,0.489583,Eighth,G#2_G#1
1927,Right,0,52,110,534.0,0.489583,Eighth,E3_D4_B3
1931,Left,1,33,110,535.0,0.489583,Eighth,A2_A1
1933,Right,0,52,110,535.0,0.489583,Eighth,E3_C4_A3
1936,Left,1,41,80,537.0,0.489583,Eighth,F2_C3_A3
1939,Right,0,84,80,537.0,0.989583,Quarter,C6
1943,Right,0,84,80,538.0,1.489583,DottedQuarter,C6
1940,Left,1,41,80,538.0,4.989583,Unknown,F2_C3_A3
1944,Right,0,82,80,539.5,0.479167,Eighth,A#5
1945,Right,0,81,80,539.75,0.4375,Eighth,A5
1946,Right,0,79,80,540.0,0.447917,Eighth,G5
1947,Right,0,77,80,540.25,0.447917,Eighth,F5
1948,Right,0,76,80,540.5,0.458333,Eighth,E5
1949,Right,0,74,80,540.75,0.447917,Eighth,D5
1950,Right,0,72,80,541.0,0.427083,DottedSixteenth,C5
1951,Right,0,70,80,541.25,0.427083,DottedSixteenth,A#4
1952,Right,0,69,80,541.5,0.458333,Eighth,A4
1953,Right,0,67,80,541.75,0.46875,Eighth,G4
1954,Right,0,65,80,542.0,0.385417,DottedSixteenth,F4
1955,Right,0,64,80,542.197917,0.333333,Triplet,E4
1956,Right,0,62,80,542.395833,0.395833,DottedSixteenth,D4
1957,Right,0,60,80,542.59375,0.354167,DottedSixteenth,C4
1958,Right,0,58,80,542.791667,0.197917,TripletSixteenth,A#3
1959,Left,1,48,80,543.0,0.989583,Quarter,F2_C3
1961,Right,0,57,80,543.0,0.989583,Quarter,A3
1963,Left,1,48,80,544.0,1.989583,Half,F2_C3
1962,Right,0,57,80,544.0,1.989583,Half,A3
1965,Right,0,63,80,546.0,0.989583,Quarter,D#4_A3
1966,Left,1,48,80,546.0,0.989583,Quarter,F2_C3
1969,Right,0,57,80,547.0,1.989583,Half,D#4_A3
1971,Left,1,48,80,547.0,1.989583,Half,F2_C3
1976,Right,0,69,80,549.0,0.989583,Quarter,D#4_A4
1973,Left,1,57,80,549.0,0.989583,Quarter,F#2_C3_A3
1979,Left,1,48,80,550.0,1.989583,Half,F#2_C3_A3
1978,Right,0,63,80,550.0,1.989583,Half,D#4_A4
1984,Left,1,42,80,552.0,0.989583,Quarter,F#2_C3_A3
1983,Right,0,75,80,552.0,0.989583,Quarter,D#5_D#4_A4
1991,Right,0,63,80,553.0,1.989583,Half,D#5_D#4_A4
1989,Left,1,42,80,553.0,1.989583,Half,F#2_C3_A3
1995,Right,0,75,80,555.0,0.989583,Quarter,D#5_C6_C5_A5
1998,Left,1,57,80,555.0,0.989583,Quarter,F#2_C3_A3
2002,Left,1,42,80,556.0,4.989583,Unknown,F#2_B2_A3
2003,Right,0,72,80,556.0,1.989583,Half,D#5_C6_C5_A5
2009,Right,0,71,92,558.0,0.989583,Quarter,D#5_B5_B4_A5
2013,Right,0,70,98,559.0,1.989583,Half,D#5_A#5_A#4
2017,Right,0,81,110,561.0,0.989583,Quarter,D#5_B5_B4_A5
2016,Left,1,47,110,561.0,0.989583,Quarter,F#2_B2_A3
2024,Left,1,55,110,562.0,0.489583,Eighth,G3_G2_B2
2023,Right,0,71,110,562.0,2.989583,DottedHalf,E5_B5_B4
2029,Left,1,55,110,562.5,0.489583,Eighth,G3_B3
2031,Left,1,55,110,563.0,0.489583,Eighth,G3_B3
2033,Left,1,59,110,563.5,0.489583,Eighth,G3_B3
2035,Left,1,55,110,564.0,0.489583,Eighth,G3_B3
2037,Left,1,55,110,564.5,0.489583,Eighth,G3_B3
2039,Left,1,56,110,565.0,0.489583,Eighth,G#3_B3
2041,Right,0,76,110,565.0,2.989583,DottedHalf,E6_E5
2043,Left,1,56,110,565.5,0.489583,Eighth,G#3_B3
2045,Left,1,56,110,566.0,0.489583,Eighth,G#3_B3
2047,Left,1,56,110,566.5,0.489583,Eighth,G#3_B3
2049,Left,1,56,110,567.0,0.489583,Eighth,G#3_B3
2051,Left,1,56,110,567.5,0.489583,Eighth,G#3_B3
2056,Right,0,76,110,568.0,0.489583,Eighth,E5_D5_B4
2053,Left,1,56,110,568.0,0.489583,Eighth,G#3_D4_B3
2059,Left,1,56,110,568.5,0.489583,Eighth,G#3_D4_B3
2062,Right,0,65,110,569.0,0.489583,Eighth,F5_F4_C5
2065,Left,1,57,110,569.0,0.489583,Eighth,C4_A3
2067,Left,1,57,110,569.5,0.489583,Eighth,C4_A3
2069,Left,1,57,110,570.0,0.489583,Eighth,C4_A3
2071,Left,1,60,110,570.5,0.489583,Eighth,C4_A3
2074,Right,0,76,110,571.0,0.489583,Eighth,F5_E5_C5
2073,Left,1,60,110,571.0,0.489583,Eighth,E4_C4_A3
2079,Left,1,64,110,571.5,0.489583,Eighth,E4_C4_A3
2082,Left,1,62,110,572.0,0.489583,Eighth,D4_B3
2084,Right,0,74,110,572.0,0.489583,Eighth,G#5_G#4_D5
2087,Left,1,62,110,572.5,0.489583,Eighth,D4_B3
2089,Left,1,59,110,573.0,0.489583,Eighth,D4_B3
2091,Left,1,59,110,573.5,0.489583,Eighth,D4_B3
2093,Right,0,80,110,574.0,0.489583,Eighth,G#5_G#4_E5_D5
2096,Left,1,64,110,574.0,0.489583,Eighth,E4_D4_B3
2100,Left,1,64,110,574.5,0.489583,Eighth,E4_D4_B3
2103,Right,0,81,110,575.0,0.489583,Eighth,E5_A5_A4
2106,Left,1,64,110,575.0,0.489583,Eighth,E4_C4
2108,Left,1,64,110,575.5,0.489583,Eighth,E4_C4
2110,Left,1,64,110,576.0,0.489583,Eighth,E4_C4
2112,Left,1,60,110,576.5,0.489583,Eighth,E4_C4
2117,Left,1,60,110,577.0,0.489583,Eighth,E4_C4
2114,Right,0,69,110,577.0,0.489583,Eighth,E5_A5_A4
2119,Left,1,60,110,577.5,0.489583,Eighth,E4_C4
2121,Right,0,76,110,578.0,0.489583,Eighth,G5_E5_A#5_A#4
2122,Left,1,61,110,578.0,0.489583,Eighth,E4_C#4
2127,Left,1,64,110,578.5,0.489583,Eighth,E4_C#4
2129,Left,1,64,110,579.0,0.489583,Eighth,E4_C#4
2131,Left,1,64,110,579.5,0.489583,Eighth,E4_C#4
2133,Right,0,73,70,580.0,0.489583,Eighth,E5_C#5_A5
2136,Left,1,66,70,580.0,0.489583,Eighth,F#4
2137,Right,0,82,70,580.5,0.489583,Eighth,E5_C#5_A#5
2140,Left,1,66,70,580.5,0.489583,Eighth,F#4
2142,Right,0,76,70,581.0,0.489583,Eighth,E5_C#5_A#5
2141,Left,1,66,70,581.0,0.489583,Eighth,F#4
2145,Right,0,76,70,581.5,0.489583,Eighth,E5_C#5_A#5
2146,Left,1,66,70,581.5,0.489583,Eighth,F#4
2149,Right,0,82,70,582.0,0.489583,Eighth,E5_C#5_A#5
2152,Left,1,66,70,582.0,0.489583,Eighth,F#4
2153,Right,0,82,70,582.5,0.489583,Eighth,E5_C#5_A#5
2156,Left,1,66,70,582.5,0.489583,Eighth,F#4
2157,Right,0,82,70,583.0,0.489583,Eighth,E5_C#5_A#5
2160,Left,1,66,70,583.0,0.489583,Eighth,F#4
2161,Left,1,66,78,583.5,0.489583,Eighth,F#4
2162,Right,0,82,78,583.5,0.489583,Eighth,E5_C#5_A#5
2165,Right,0,73,86,584.0,0.489583,Eighth,E5_C#5_A#5
2168,Left,1,66,86,584.0,0.489583,Eighth,F#4
2171,Left,1,66,94,584.5,0.489583,Eighth,F#4
2169,Right,0,76,94,584.5,0.489583,Eighth,E5_C#5_A#5
2174,Right,0,73,102,585.0,0.489583,Eighth,E5_C#5_A#5
2173,Left,1,66,102,585.0,0.489583,Eighth,F#4
2177,Left,1,66,110,585.5,0.489583,Eighth,F#4
2178,Right,0,73,110,585.5,0.489583,Eighth,E5_C#5_A#5
2181,Left,1,69,120,586.0,0.489583,Eighth,F#4_D#4_B3_A4
2183,Right,0,83,120,586.0,0.489583,Eighth,B6_B5
2189,Left,1,69,120,586.5,0.489583,Eighth,F#4_D#4_B3_A4
2187,Right,0,96,120,586.5,0.489583,Eighth,C7_C6
2195,Left,1,69,120,587.0,0.489583,Eighth,F#4_D#4_B3_A4
2193,Right,0,84,120,587.0,0.489583,Eighth,C7_C6
2200,Left,1,66,120,587.5,0.489583,Eighth,F#4_D#4_B3_A4
2199,Right,0,96,120,587.5,0.489583,Eighth,C7_C6
2209,Right,0,96,120,588.0,0.489583,Eighth,C7_C6
2205,Left,1,69,120,588.0,0.489583,Eighth,F#4_D#4_B3_A4
2212,Right,0,84,120,588.5,0.489583,Eighth,C7_C6
2211,Left,1,69,120,588.5,0.489583,Eighth,F#4_D#4_B3_A4
2217,Left,1,69,115,589.0,0.489583,Eighth,F#4_D#4_B3_A4
2221,Right,0,96,115,589.0,0.489583,Eighth,C7_C6
2223,Left,1,59,111,589.5,0.489583,Eighth,F#4_D#4_B3_A4
2227,Right,0,84,111,589.5,0.489583,Eighth,C7_C6
2230,Left,1,66,106,590.0,0.489583,Eighth,F#4_D#4_B3_A4
2229,Right,0,96,106,590.0,0.489583,Eighth,C7_C6
2239,Right,0,84,101,590.5,0.489583,Eighth,C7_C6
2235,Left,1,69,101,590.5,0.489583,Eighth,F#4_D#4_B3_A4
2244,Right,0,84,96,591.0,0.489583,Eighth,C7_C6
2241,Left,1,59,96,591.0,0.489583,Eighth,F#4_D#4_B3_A4
2250,Right,0,84,91,591.5,0.489583,Eighth,C7_C6
2247,Left,1,69,91,591.5,0.489583,Eighth,F#4_D#4_B3_A4
2253,Left,1,52,80,592.0,0.458333,Eighth,E3
2254,Right,0,84,80,592.0,0.989583,Quarter,C7_C6
2256,Left,1,67,80,592.25,0.447917,Eighth,G4
2257,Left,1,59,80,592.5,0.447917,Eighth,B3
2258,Left,1,67,80,592.75,0.4375,Eighth,G4
2259,Left,1,54,80,593.0,0.479167,Eighth,F#3
2260,Right,0,95,80,593.0,2.989583,DottedHalf,B6_B5
2262,Left,1,69,80,593.25,0.458333,Eighth,A4
2263,Left,1,59,80,593.5,0.479167,Eighth,B3
2264,Left,1,69,80,593.75,0.447917,Eighth,A4
2265,Left,1,55,80,594.0,0.46875,Eighth,G3
2266,Left,1,71,80,594.25,0.4375,DottedSixteenth,B4
2267,Left,1,59,80,594.5,0.447917,Eighth,B3
2268,Left,1,71,80,594.75,0.4375,Eighth,B4
2269,Left,1,52,80,595.0,0.4375,Eighth,E3
2270,Left,1,67,80,595.25,0.4375,Eighth,G4
2271,Left,1,59,80,595.5,0.427083,DottedSixteenth,B3
2272,Left,1,67,80,595.75,0.479167,Eighth,G4
2273,Right,0,76,80,596.0,2.989583,DottedHalf,E6_E5
2275,Left,1,54,80,596.0,0.46875,Eighth,F#3
2276,Left,1,69,80,596.25,0.458333,Eighth,A4
2277,Left,1,59,80,596.5,0.416667,DottedSixteenth,B3
2278,Left,1,69,80,596.75,0.489583,Eighth,A4
2279,Left,1,55,80,597.0,0.4375,Eighth,G3
2280,Left,1,71,80,597.25,0.479167,Eighth,B4
2281,Left,1,59,80,597.5,0.479167,Eighth,B3
2282,Left,1,71,80,597.75,0.46875,Eighth,B4
2283,Left,1,52,80,598.0,0.427083,DottedSixteenth,E3
2284,Left,1,67,80,598.25,0.479167,Eighth,G4
2285,Left,1,59,80,598.5,0.4375,Eighth,B3
2286,Left,1,67,80,598.75,0.458333,Eighth,G4
2287,Left,1,54,80,599.0,0.4375,Eighth,F#3
2288,Right,0,71,80,599.0,2.989583,DottedHalf,B5_B4
2290,Left,1,69,80,599.25,0.489583,Eighth,A4
2291,Left,1,59,80,599.5,0.447917,Eighth,B3
2292,Left,1,69,80,599.75,0.4375,Eighth,A4
2293,Left,1,55,80,600.0,0.489583,Eighth,G3
2294,Left,1,71,80,600.25,0.427083,DottedSixteenth,B4
2295,Left,1,59,80,600.5,0.46875,Eighth,B3
2296,Left,1,71,80,600.75,0.489583,Eighth,B4
2297,Left,1,52,80,601.0,0.416667,DottedSixteenth,E3
2298,Left,1,67,80,601.25,0.416667,DottedSixteenth,G4
2299,Left,1,59,80,601.5,0.447917,Eighth,B3
2300,Left,1,67,80,601.75,0.458333,Eighth,G4
2302,Left,1,54,80,602.0,0.458333,Eighth,F#3
2301,Right,0,76,80,602.0,2.989583,DottedHalf,E5_E4
2304,Left,1,69,80,602.25,0.4375,Eighth,A4
2305,Left,1,59,80,602.5,0.447917,Eighth,B3
2306,Left,1,69,80,602.75,0.458333,Eighth,A4
2307,Left,1,55,80,603.0,0.4375,Eighth,G3
2308,Left,1,71,80,603.25,0.447917,Eighth,B4
2309,Left,1,59,80,603.5,0.447917,Eighth,B3
2310,Left,1,71,80,603.75,0.447917,Eighth,B4
2311,Left,1,57,80,604.0,0.447917,Eighth,A3
2312,Left,1,67,80,604.25,0.458333,Eighth,G4
2313,Left,1,64,80,604.5,0.4375,Eighth,E4
2314,Left,1,67,80,604.75,0.458333,Eighth,G4
2315,Left,1,58,80,605.0,0.447917,Eighth,A#3
2316,Right,0,72,80,605.0,0.989583,Quarter,C5
2317,Left,1,67,80,605.25,0.458333,Eighth,G4
2318,Left,1,64,80,605.5,0.489583,Eighth,E4
2319,Left,1,67,80,605.75,0.489583,Eighth,G4
2321,Left,1,59,80,606.0,0.46875,Eighth,B3
2320,Right,0,71,80,606.0,0.989583,Quarter,B4
2322,Left,1,67,80,606.25,0.489583,Eighth,G4
2323,Left,1,64,80,606.5,0.46875,Eighth,E4
2324,Left,1,67,80,606.75,0.447917,Eighth,G4
2325,Left,1,59,80,607.0,0.4375,Eighth,B3
2326,Right,0,71,80,607.0,1.989583,Half,B4
2327,Left,1,67,80,607.25,0.427083,DottedSixteenth,G4
2328,Left,1,64,80,607.5,0.416667,DottedSixteenth,E4
2329,Left,1,67,80,607.75,0.447917,Eighth,G4
2330,Left,1,59,80,608.0,0.4375,Eighth,B3
2331,Left,1,67,80,608.25,0.447917,Eighth,G4
2332,Left,1,64,80,608.5,0.447917,Eighth,E4
2333,Left,1,67,80,608.75,0.458333,Eighth,G4
2335,Right,0,75,80,609.0,0.989583,Quarter,D#5
2334,Left,1,59,80,609.0,0.458333,Eighth,B3
2336,Left,1,69,80,609.25,0.458333,Eighth,A4
2337,Left,1,66,80,609.5,0.4375,Eighth,F#4
2338,Left,1,69,80,609.75,0.479167,Eighth,A4
2339,Right,0,76,80,610.0,0.489583,Eighth,E5
2340,Left,1,40,80,610.0,0.479167,Eighth,E2
2341,Left,1,55,80,610.25,0.46875,Eighth,G3
2342,Right,0,72,80,610.5,0.489583,Eighth,C5
2343,Left,1,47,80,610.5,0.479167,Eighth,B2
2344,Left,1,55,80,610.75,0.479167,Eighth,G3
2346,Right,0,84,80,611.0,1.489583,DottedQuarter,C6
2345,Left,1,42,80,611.0,0.46875,Eighth,F#2
2347,Left,1,57,80,611.25,0.458333,Eighth,A3
2348,Left,1,47,80,611.5,0.489583,Eighth,B2
2349,Left,1,57,80,611.75,0.46875,Eighth,A3
2350,Left,1,43,80,612.0,0.46875,Eighth,G2
2351,Left,1,59,80,612.25,0.4375,Eighth,B3
2353,Right,0,83,80,612.5,0.489583,Eighth,B5
2352,Left,1,47,80,612.5,0.427083,DottedSixteenth,B2
2354,Left,1,59,80,612.75,0.46875,Eighth,B3
2355,Left,1,40,80,613.0,0.479167,Eighth,E2
2356,Left,1,55,80,613.25,0.447917,Eighth,G3
2358,Right,0,83,80,613.5,0.489583,Eighth,B5
2357,Left,1,47,80,613.5,0.427083,DottedSixteenth,B2
2359,Left,1,55,80,613.75,0.427083,DottedSixteenth,G3
2361,Left,1,42,80,614.0,0.489583,Eighth,F#2
2360,Right,0,78,80,614.0,1.489583,DottedQuarter,F#5
2362,Left,1,57,80,614.25,0.4375,Eighth,A3
2363,Left,1,47,80,614.5,0.458333,Eighth,B2
2364,Left,1,57,80,614.75,0.447917,Eighth,A3
2365,Left,1,43,80,615.0,0.458333,Eighth,G2
2366,Left,1,59,80,615.25,0.4375,Eighth,B3
2367,Right,0,76,80,615.5,0.489583,Eighth,E5
2368,Left,1,47,80,615.5,0.447917,Eighth,B2
2369,Left,1,59,80,615.75,0.447917,Eighth,B3
2370,Left,1,40,80,616.0,0.458333,Eighth,E2
2371,Left,1,55,80,616.25,0.4375,Eighth,G3
2372,Right,0,76,80,616.5,0.489583,Eighth,E5
2373,Left,1,47,80,616.5,0.46875,Eighth,B2
2374,Left,1,55,80,616.75,0.4375,Eighth,G3
2375,Right,0,72,80,617.0,1.489583,DottedQuarter,C5
2376,Left,1,42,80,617.0,0.458333,Eighth,F#2
2377,Left,1,57,80,617.25,0.458333,Eighth,A3
2378,Left,1,47,80,617.5,0.427083,DottedSixteenth,B2
2379,Left,1,57,80,617.75,0.479167,Eighth,A3
2380,Left,1,43,80,618.0,0.458333,Eighth,G2
2381,Left,1,59,80,618.25,0.4375,Eighth,B3
2382,Left,1,47,80,618.5,0.427083,DottedSixteenth,B2
2383,Right,0,71,80,618.5,0.489583,Eighth,B4
2384,Left,1,59,80,618.75,0.447917,Eighth,B3
2385,Left,1,40,80,619.0,0.4375,Eighth,E2
2386,Left,1,55,80,619.25,0.458333,Eighth,G3
2387,Right,0,71,80,619.5,0.489583,Eighth,B4
2388,Left,1,47,80,619.5,0.479167,Eighth,B2
2389,Left,1,55,80,619.75,0.489583,Eighth,G3
2391,Left,1,42,80,620.0,0.458333,Eighth,F#2
2390,Right,0,66,80,620.0,1.489583,DottedQuarter,F#4
2392,Left,1,57,80,620.25,0.46875,Eighth,A3
2393,Left,1,47,80,620.5,0.458333,Eighth,B2
2394,Left,1,57,80,620.75,0.416667,DottedSixteenth,A3
2395,Left,1,43,80,621.0,0.427083,DottedSixteenth,G2
2396,Left,1,59,80,621.25,0.427083,DottedSixteenth,B3
2398,Left,1,47,80,621.5,0.427083,DottedSixteenth,B2
2397,Right,0,64,80,621.5,0.489583,Eighth,E4
2399,Left,1,59,80,621.75,0.427083,DottedSixteenth,B3
2400,Right,0,64,80,622.0,0.989583,Quarter,E4
2401,Left,1,45,80,622.0,0.4375,DottedSixteenth,A2
2402,Left,1,55,80,622.25,0.447917,Eighth,G3
2403,Left,1,52,80,622.5,0.447917,Eighth,E3
2404,Left,1,55,80,622.75,0.46875,Eighth,G3
2406,Left,1,46,80,623.0,0.447917,Eighth,A#2
2405,Right,0,60,80,623.0,0.989583,Quarter,C4
2407,Left,1,55,80,623.25,0.427083,DottedSixteenth,G3
2408,Left,1,52,80,623.5,0.46875,Eighth,E3
2409,Left,1,55,80,623.75,0.447917,Eighth,G3
2410,Left,1,47,80,624.0,0.4375,Eighth,B2
2411,Right,0,59,80,624.0,0.989583,Quarter,B3
2412,Left,1,55,80,624.25,0.447917,Eighth,G3
2413,Left,1,52,80,624.5,0.458333,Eighth,E3
2414,Left,1,55,80,624.75,0.239583,Sixteenth,G3
2415,Right,0,59,80,625.0,0.489583,Eighth,B3
2416,Left,1,47,80,625.0,1.989583,Half,B2
2417,Right,0,55,80,625.5,0.489583,Eighth,G3
2418,Right,0,52,80,626.0,0.489583,Eighth,E3
2419,Right,0,48,80,626.5,0.489583,Eighth,C3
2421,Left,1,35,80,627.0,0.989583,Quarter,B1
2420,Right,0,47,80,627.0,0.489583,Eighth,B2
2422,Right,0,51,80,627.5,0.489583,Eighth,D#3
2424,Left,1,40,110,628.0,0.489583,Eighth,E2
2423,Right,0,52,80,628.0,0.989583,Quarter,E3
2425,Left,1,42,110,628.5,0.489583,Eighth,F#3_F#2
2427,Left,1,43,110,629.0,0.489583,Eighth,G3_G2
2429,Left,1,45,110,629.5,0.489583,Eighth,A3_A2
2431,Left,1,47,120,630.0,3.989583,Whole,B3_B2
2433,Right,0,64,80,631.0,2.989583,DottedHalf,E4_C4
2435,Right,0,60,80,634.0,2.989583,DottedHalf,F4_C4
2436,Left,1,57,80,634.0,2.989583,DottedHalf,A3_A2
2439,Right,0,72,80,636.0,2.989583,DottedHalf,C5
2440,Left,1,59,80,637.0,2.989583,DottedHalf,B3_B2
2442,Right,0,69,80,637.0,2.989583,DottedHalf,F#4_D#4_A4
2445,Right,0,71,80,639.0,0.989583,Quarter,B4
2447,Left,1,40,110,640.0,0.489583,Eighth,E2_E1
2446,Right,0,67,80,640.0,0.989583,Quarter,G4_E4_B4
2451,Left,1,42,110,640.5,0.489583,Eighth,F#2_F#1
2453,Left,1,31,110,641.0,0.489583,Eighth,G2_G1
2455,Left,1,45,110,641.5,0.489583,Eighth,A2_A1
2457,Left,1,35,120,642.0,3.989583,Whole,B2_B1
2459,Right,0,52,80,643.0,2.989583,DottedHalf,E3_C3
2461,Right,0,53,80,646.0,2.989583,Half,F3_C3
2463,Left,1,33,80,646.0,2.989583,DottedHalf,A2_A1
2465,Right,0,60,80,648.0,2.989583,DottedHalf,C4
2466,Right,0,57,80,649.0,2.989583,DottedHalf,F#3_D#3_A3
2469,Left,1,35,80,649.0,2.989583,DottedHalf,B2_B1
2471,Right,0,59,80,651.0,0.989583,Quarter,B3
2472,Right,0,60,80,654.0,2.989583,DottedHalf,C4
2473,Right,0,52,80,655.0,2.989583,DottedHalf,G3_E3
2475,Left,1,47,80,655.0,2.989583,DottedHalf,E2_B2
2477,Right,0,59,80,657.0,0.989583,Quarter,B3
2478,Right,0,60,79,660.0,2.989583,DottedHalf,C4
2479,Right,0,54,78,661.0,2.989583,DottedHalf,F#3_A3
2481,Left,1,47,78,661.0,2.989583,DottedHalf,B2_B1
2483,Right,0,63,78,663.0,0.989583,Quarter,D#4
2486,Left,1,40,77,664.0,0.989583,Quarter,E2
2484,Right,0,55,77,664.0,0.989583,Quarter,G3_E4
2487,Right,0,72,77,666.0,2.989583,DottedHalf,C5
2489,Right,0,69,77,667.0,2.989583,DottedHalf,F#4_D#4_A4
2488,Left,1,59,77,667.0,2.989583,DottedHalf,B3_B2
2493,Right,0,71,76,669.0,0.989583,Quarter,B4
2494,Right,0,72,75,672.0,2.989583,DottedHalf,C5
2495,Right,0,64,75,673.0,2.989583,DottedHalf,G4_E4
2497,Left,1,59,75,673.0,2.989583,DottedHalf,E3_B3
2499,Right,0,71,74,675.0,0.989583,Quarter,B4
2500,Right,0,72,73,678.0,2.989583,DottedHalf,C5
2501,Left,1,59,73,679.0,2.989583,DottedHalf,B3_B2
2503,Right,0,69,73,679.0,2.989583,DottedHalf,F#4_A4
2505,Right,0,75,72,681.0,0.989583,Quarter,D#5
2508,Left,1,52,72,682.0,0.989583,Quarter,E3
2506,Right,0,67,72,682.0,0.989583,Quarter,G4_E5
2509,Right,0,84,71,684.0,2.989583,DottedHalf,C6
2511,Right,0,81,71,685.0,2.989583,DottedHalf,F#5_D#5_A5
2510,Left,1,71,71,685.0,2.989583,DottedHalf,B4
2514,Right,0,83,71,687.0,0.989583,Quarter,B5
2515,Left,1,72,80,690.0,1.989583,Half,C5
2516,Left,1,71,80,692.0,0.989583,Quarter,B4
2517,Right,0,75,80,693.0,0.989583,Quarter,F#5_D#5
2518,Left,1,66,80,693.0,0.989583,Quarter,F#4_A4
2523,Right,0,76,80,694.0,1.489583,DottedQuarter,G5_E5
2521,Left,1,67,80,694.0,1.489583,DottedQuarter,G4_E4
2527,Right,0,78,80,695.5,0.489583,Eighth,F#5_D#5
2525,Left,1,69,80,695.5,0.489583,Eighth,F#4_A4
2529,Left,1,67,80,696.0,0.989583,Quarter,G4
2530,Right,0,76,80,696.0,0.989583,Quarter,E5
2531,Right,0,81,80,697.0,0.989583,Quarter,F#5_A5
2533,Left,1,69,80,697.0,0.989583,Quarter,F#4_D4_A4
2537,Left,1,74,80,699.0,0.989583,Quarter,D5
2536,Right,0,81,80,699.0,0.989583,Quarter,F#5_A5
2539,Left,1,74,80,700.0,1.489583,DottedQuarter,D5_C5
2541,Right,0,78,80,700.0,1.489583,DottedQuarter,F#5_A5
2543,Right,0,79,80,701.5,0.489583,Eighth,G5
2544,Left,1,71,80,701.5,0.489583,Eighth,D5_B4
2546,Left,1,72,80,702.0,0.989583,Quarter,C5_A4
2547,Right,0,78,80,702.0,0.989583,Quarter,F#5_A5
2550,Left,1,67,80,703.0,0.989583,Quarter,G4_B4
2551,Right,0,83,80,703.0,0.989583,Quarter,G5_B5
2554,Left,1,79,80,705.0,0.989583,Quarter,G5
2555,Right,0,83,80,705.0,0.989583,Quarter,B5
2557,Right,0,83,80,706.0,1.489583,DottedQuarter,B5
2556,Left,1,79,80,706.0,1.489583,DottedQuarter,G5
2558,Right,0,81,80,707.5,0.489583,Eighth,A5
2559,Left,1,78,80,707.5,0.489583,Eighth,F#5
2560,Right,0,79,80,708.0,0.989583,Quarter,G5_B5
2561,Left,1,76,80,708.0,0.989583,Quarter,E5
2563,Right,0,84,80,709.0,0.989583,Quarter,C6_A5
2565,Left,1,75,80,709.0,0.989583,Quarter,D#5
2566,Right,0,76,80,711.0,2.489583,Half,E6_E5
2568,Left,1,43,80,712.0,2.989583,DottedHalf,G2_E3_B3
2571,Right,0,87,80,713.5,0.489583,Eighth,D#6_D#5
2573,Right,0,76,80,714.0,0.989583,Quarter,E6_E5
2575,Left,1,45,85,715.0,1.989583,Half,A2
2576,Right,0,60,85,715.0,1.989583,Half,F#4_E4_C4
2579,Right,0,66,95,717.0,0.989583,Quarter,F#4_E4_C#4
2582,Left,1,46,95,717.0,0.989583,Quarter,A#2
2584,Right,0,66,100,718.0,2.989583,DottedHalf,F#4_D#4_A3
2583,Left,1,47,100,718.0,2.989583,DottedHalf,B2
2587,Right,0,67,93,719.5,0.489583,Eighth,G4
2588,Right,0,69,91,720.0,0.489583,Eighth,A4
2589,Right,0,67,88,720.5,0.489583,Eighth,G4
2592,Right,0,66,86,721.0,0.989583,Quarter,F#4
2590,Left,1,55,86,721.0,1.989583,Half,G3_C3
2593,Right,0,64,81,722.0,0.989583,Quarter,E4
2594,Left,1,35,80,723.0,0.489583,Eighth,B2_B1
2596,Right,0,88,80,723.0,2.489583,Half,E6_E5
2598,Left,1,45,83,723.5,0.489583,Eighth,A2_A1
2600,Left,1,43,86,724.0,1.989583,Half,G2_G1
2602,Right,0,87,97,725.5,0.489583,Eighth,D#6_D#5
2605,Left,1,44,100,726.0,0.989583,Quarter,G#2_G#1
2604,Right,0,88,100,726.0,0.989583,Quarter,E6_E5
2610,Left,1,45,100,727.0,1.989583,Half,A2_A1
2608,Right,0,60,100,727.0,1.989583,Half,F#4_E4_C4
2614,Right,0,66,81,729.0,0.989583,Quarter,F#4_E4_C#4
2613,Left,1,34,81,729.0,0.989583,Quarter,A#2_A#1
2619,Right,0,66,70,730.0,2.989583,DottedHalf,F#4_D#4_A3
2618,Left,1,47,70,730.0,2.989583,DottedHalf,B2_B1
2623,Right,0,69,70,731.5,0.489583,Eighth,A4
2624,Right,0,67,70,732.0,0.489583,Eighth,G4
2625,Right,0,66,70,732.5,0.489583,Eighth,F#4
2626,Left,1,40,70,733.0,2.989583,DottedHalf,E2
2627,Right,0,55,70,733.0,2.989583,DottedHalf,G3_E4
