,hand,channel,note,velocity,start_beat,duration,note_value,chord
0,Right,0,64,80,0.5,0.239583,Sixteenth,E4
1,Right,0,66,80,0.75,0.239583,Sixteenth,F#4
3,Right,0,68,80,1.0,0.989583,Quarter,G#4_E4
2,Left,1,40,80,1.0,0.489583,Eighth,E3_E2
6,Right,0,59,80,1.25,0.239583,Sixteenth,B3
7,Right,0,64,80,1.5,0.239583,Sixteenth,E4
8,Right,0,59,80,1.75,0.239583,Sixteenth,B3
9,Right,0,68,80,2.0,0.489583,Sixteenth,G#4_B4
11,Right,0,59,80,2.25,0.239583,Sixteenth,B3
12,Right,0,66,80,2.5,0.489583,Sixteenth,F#4_A4
14,Right,0,59,80,2.75,0.239583,Sixteenth,B3
17,Right,0,64,80,3.0,0.489583,Sixteenth,G#4_E4
15,Left,1,35,80,3.0,0.489583,Eighth,B2_B1
19,Right,0,59,80,3.25,0.239583,Sixteenth,B3
20,Right,0,66,80,3.5,0.489583,Eighth,F#4_D#4
22,Right,0,59,80,3.75,0.239583,Sixteenth,B3
23,Right,0,66,80,4.0,0.489583,Eighth,F#4_D#4
25,Right,0,59,80,4.25,0.239583,Sixteenth,B3
26,Right,0,64,80,4.5,0.489583,Sixteenth,G#4_E4
28,Right,0,59,80,4.75,0.239583,Sixteenth,B3
30,Left,1,49,80,5.0,0.489583,Eighth,C#3_C#2
29,Right,0,64,80,5.0,0.489583,Sixteenth,E4_A4
33,Right,0,59,80,5.25,0.239583,Sixteenth,B3
34,Right,0,64,80,5.5,0.489583,Sixteenth,E4_C#5
36,Right,0,59,80,5.75,0.239583,Sixteenth,B3
37,Right,0,66,80,6.0,0.489583,Sixteenth,F#4_B4
39,Left,1,51,80,6.0,0.489583,Eighth,D#3_D#2
41,Right,0,59,80,6.25,0.239583,Sixteenth,B3
42,Right,0,63,80,6.5,0.489583,Sixteenth,F#4_D#4
43,Left,1,47,80,6.5,0.489583,Eighth,B2_B1
46,Right,0,59,80,6.75,0.239583,Sixteenth,B3
47,Left,1,52,80,7.0,0.239583,Sixteenth,E3_E2
48,Right,0,68,80,7.0,0.989583,Quarter,G#4_E4_B3
52,Left,1,56,80,7.25,0.239583,Sixteenth,G#3
53,Left,1,59,80,7.5,0.239583,Sixteenth,B3
54,Left,1,57,80,7.75,0.239583,Sixteenth,A3
55,Left,1,56,80,8.0,0.239583,Sixteenth,G#3
56,Left,1,57,80,8.25,0.239583,Sixteenth,A3
58,Right,0,76,80,8.5,0.239583,Sixteenth,E5
57,Left,1,56,80,8.5,0.239583,Sixteenth,G#3
60,Right,0,78,80,8.75,0.239583,Sixteenth,F#5
59,Left,1,54,80,8.75,0.239583,Sixteenth,F#3
61,Right,0,68,80,9.0,0.989583,Quarter,G#5_G#4
63,Left,1,52,80,9.0,0.239583,Sixteenth,E3
64,Left,1,59,80,9.25,0.239583,Sixteenth,B3
65,Left,1,47,80,9.5,0.239583,Sixteenth,B2
66,Left,1,59,80,9.75,0.239583,Sixteenth,B3
68,Left,1,52,80,10.0,0.239583,Sixteenth,E3
67,Right,0,83,80,10.0,0.489583,Eighth,B5_B4
70,Left,1,59,80,10.25,0.239583,Sixteenth,B3
73,Left,1,47,80,10.5,0.239583,Sixteenth,B2
71,Right,0,69,80,10.5,0.489583,Eighth,A5_A4
74,Left,1,59,80,10.75,0.239583,Sixteenth,B3
76,Right,0,80,80,11.0,0.489583,Eighth,G#5_G#4
75,Left,1,51,80,11.0,0.239583,Sixteenth,D#3
78,Left,1,59,80,11.25,0.239583,Sixteenth,B3
79,Left,1,47,80,11.5,0.239583,Sixteenth,B2
80,Right,0,78,80,11.5,0.489583,Eighth,F#5_F#4
82,Left,1,59,80,11.75,0.239583,Sixteenth,B3
83,Left,1,51,80,12.0,0.239583,Sixteenth,D#3
84,Right,0,78,80,12.0,0.489583,Eighth,F#5_F#4
86,Left,1,59,80,12.25,0.239583,Sixteenth,B3
87,Right,0,68,80,12.5,0.489583,Eighth,G#5_G#4
89,Left,1,53,80,12.5,0.239583,Sixteenth,F3
90,Left,1,59,80,12.75,0.239583,Sixteenth,B3
91,Right,0,69,80,13.0,0.489583,Eighth,A5_A4
92,Left,1,54,80,13.0,0.239583,Sixteenth,F#3
94,Left,1,59,80,13.25,0.239583,Sixteenth,B3
95,Left,1,57,80,13.5,0.239583,Sixteenth,A3
96,Right,0,85,80,13.5,0.489583,Eighth,C#6_C#5
98,Left,1,59,80,13.75,0.239583,Sixteenth,B3
101,Left,1,56,80,14.0,0.239583,Sixteenth,G#3
99,Right,0,83,80,14.0,0.489583,Eighth,B5_B4
102,Left,1,59,80,14.25,0.239583,Sixteenth,B3
105,Left,1,54,80,14.5,0.239583,Sixteenth,F#3_B2
103,Right,0,75,80,14.5,0.489583,Eighth,D#6_D#5
107,Left,1,57,80,14.75,0.239583,Sixteenth,A3
110,Left,1,52,80,15.0,0.239583,Sixteenth,G#3_E3
108,Right,0,76,80,15.0,0.989583,Quarter,E6_E5
112,Left,1,59,80,15.25,0.239583,Sixteenth,B3
113,Left,1,56,80,15.5,0.239583,Sixteenth,G#3
114,Left,1,52,80,15.75,0.239583,Sixteenth,E3
115,Left,1,51,80,16.0,0.239583,Sixteenth,D#3
116,Left,1,59,80,16.25,0.239583,Sixteenth,B3
117,Right,0,71,80,16.5,0.489583,Eighth,B4
118,Left,1,54,80,16.5,0.239583,Sixteenth,F#3
119,Left,1,51,80,16.75,0.239583,Sixteenth,D#3
121,Left,1,49,80,17.0,0.239583,Sixteenth,C#3
120,Right,0,70,80,17.0,0.989583,Quarter,A#4
122,Left,1,58,80,17.25,0.239583,Sixteenth,A#3
123,Left,1,54,80,17.5,0.239583,Sixteenth,F#3
124,Left,1,49,80,17.75,0.239583,Sixteenth,C#3
126,Right,0,76,80,18.0,0.989583,Quarter,E5
125,Left,1,42,80,18.0,0.239583,Sixteenth,F#2
127,Left,1,58,80,18.25,0.239583,Sixteenth,A#3
128,Left,1,54,80,18.5,0.239583,Sixteenth,F#3
129,Left,1,49,80,18.75,0.239583,Sixteenth,C#3
131,Left,1,47,80,19.0,0.239583,Sixteenth,B2
130,Right,0,75,80,19.0,1.489583,DottedQuarter,D#5
132,Left,1,59,80,19.25,0.239583,Sixteenth,B3
133,Left,1,54,80,19.5,0.239583,Sixteenth,F#3
134,Left,1,51,80,19.75,0.239583,Sixteenth,D#3
135,Left,1,47,80,20.0,0.239583,Sixteenth,B2
136,Left,1,59,80,20.25,0.239583,Sixteenth,B3
138,Left,1,49,80,20.5,0.239583,Sixteenth,C#3
137,Right,0,69,80,20.5,0.489583,Eighth,A4
139,Left,1,57,80,20.75,0.239583,Sixteenth,A3
140,Left,1,47,80,21.0,0.239583,Sixteenth,B2
141,Right,0,68,80,21.0,0.989583,Quarter,G#4
142,Left,1,56,80,21.25,0.239583,Sixteenth,G#3
143,Left,1,52,80,21.5,0.239583,Sixteenth,E3
144,Left,1,47,80,21.75,0.239583,Sixteenth,B2
146,Left,1,40,80,22.0,0.239583,Sixteenth,E2
145,Right,0,74,80,22.0,0.989583,Quarter,D5
147,Left,1,56,80,22.25,0.239583,Sixteenth,G#3
148,Left,1,52,80,22.5,0.239583,Sixteenth,E3
149,Left,1,47,80,22.75,0.239583,Sixteenth,B2
151,Left,1,45,80,23.0,0.239583,Sixteenth,A2
150,Right,0,73,80,23.0,1.489583,DottedQuarter,C#5
152,Left,1,57,80,23.25,0.239583,Sixteenth,A3
153,Left,1,52,80,23.5,0.239583,Sixteenth,E3
154,Left,1,49,80,23.75,0.239583,Sixteenth,C#3
155,Left,1,45,80,24.0,0.239583,Sixteenth,A2
156,Left,1,52,80,24.25,0.239583,Sixteenth,E3
158,Left,1,44,80,24.5,0.239583,Sixteenth,G#2
157,Right,0,73,80,24.5,0.489583,Eighth,C#5
159,Left,1,52,81,24.75,0.239583,Sixteenth,E3
161,Right,0,72,82,25.0,0.489583,Eighth,C5
160,Left,1,44,82,25.0,0.239583,Sixteenth,G#2
162,Left,1,52,83,25.25,0.239583,Sixteenth,E3
163,Left,1,45,84,25.5,0.239583,Sixteenth,A2
164,Right,0,73,84,25.5,0.489583,Eighth,C#5
165,Left,1,52,85,25.75,0.239583,Sixteenth,E3
166,Right,0,61,87,26.0,0.489583,Eighth,E4_C#4_A4
169,Left,1,45,87,26.0,0.239583,Sixteenth,A2
170,Left,1,52,88,26.25,0.239583,Sixteenth,E3
171,Left,1,47,89,26.5,0.239583,Sixteenth,B2
172,Right,0,59,89,26.5,0.489583,Eighth,G#4_E4_B3
175,Left,1,52,90,26.75,0.239583,Sixteenth,E3
177,Right,0,58,91,27.0,0.989583,Quarter,G#4_E4_A#3
176,Left,1,49,91,27.0,0.239583,Sixteenth,C#3
180,Left,1,52,92,27.25,0.239583,Sixteenth,E3
181,Left,1,49,94,27.5,0.239583,Sixteenth,C#3
182,Right,0,66,94,27.5,0.989583,Quarter,F#4
183,Left,1,52,95,27.75,0.239583,Sixteenth,E3
184,Left,1,48,96,28.0,0.239583,Sixteenth,C3
185,Right,0,57,96,28.0,0.989583,Quarter,E4_A3
187,Left,1,52,97,28.25,0.239583,Sixteenth,E3
189,Right,0,66,98,28.5,0.489583,Eighth,F#4
188,Left,1,48,98,28.5,0.239583,Sixteenth,C3
190,Left,1,52,88,28.75,0.239583,Sixteenth,E3
191,Right,0,63,80,29.0,0.489583,Eighth,F#4_D#4_A3
194,Left,1,47,80,29.0,0.239583,Sixteenth,B2
195,Left,1,54,80,29.25,0.239583,Sixteenth,F#3
196,Right,0,63,80,29.5,0.489583,Eighth,D#4_B4
198,Left,1,47,80,29.5,0.239583,Sixteenth,B2
199,Left,1,54,80,29.75,0.239583,Sixteenth,F#3_A3
202,Left,1,47,80,30.0,0.239583,Sixteenth,B2
201,Right,0,70,80,30.0,0.489583,Eighth,A#4
203,Left,1,54,80,30.25,0.239583,Sixteenth,F#3_A3
206,Left,1,47,80,30.5,0.239583,Sixteenth,B2
205,Right,0,63,80,30.5,0.489583,Eighth,D#4_B4
208,Left,1,54,80,30.75,0.239583,Sixteenth,F#3_A3
212,Right,0,64,80,31.0,0.989583,Quarter,E4
210,Left,1,56,80,31.0,0.239583,Sixteenth,G#3_E3
213,Left,1,59,80,31.25,0.239583,Sixteenth,B3
214,Left,1,56,80,31.5,0.239583,Sixteenth,G#3
215,Left,1,52,80,31.75,0.239583,Sixteenth,E3
216,Left,1,51,80,32.0,0.239583,Sixteenth,D#3
217,Left,1,59,80,32.25,0.239583,Sixteenth,B3
219,Right,0,71,80,32.5,0.489583,Eighth,B5_B4
218,Left,1,54,80,32.5,0.239583,Sixteenth,F#3
221,Left,1,51,80,32.75,0.239583,Sixteenth,D#3
222,Left,1,49,80,33.0,0.239583,Sixteenth,C#3
223,Right,0,70,80,33.0,0.989583,Quarter,A#5_A#4
225,Left,1,58,80,33.25,0.239583,Sixteenth,A#3
226,Left,1,54,80,33.5,0.239583,Sixteenth,F#3
227,Left,1,49,80,33.75,0.239583,Sixteenth,C#3
228,Right,0,76,80,34.0,0.989583,Quarter,E6_E5
230,Left,1,42,80,34.0,0.239583,Sixteenth,F#2
231,Left,1,58,80,34.25,0.239583,Sixteenth,A#3
232,Left,1,54,80,34.5,0.239583,Sixteenth,F#3
233,Left,1,49,80,34.75,0.239583,Sixteenth,C#3
234,Right,0,75,80,35.0,1.489583,DottedQuarter,D#6_D#5
236,Left,1,47,80,35.0,0.239583,Sixteenth,B2
237,Left,1,59,80,35.25,0.239583,Sixteenth,B3
238,Left,1,54,80,35.5,0.239583,Sixteenth,F#3
239,Left,1,51,80,35.75,0.239583,Sixteenth,D#3
240,Left,1,47,80,36.0,0.239583,Sixteenth,B2
241,Left,1,59,80,36.25,0.239583,Sixteenth,B3
242,Left,1,49,80,36.5,0.239583,Sixteenth,C#3
243,Right,0,69,80,36.5,0.489583,Eighth,A5_A4
245,Left,1,57,80,36.75,0.239583,Sixteenth,A3
246,Right,0,80,80,37.0,0.989583,Quarter,G#5_G#4
248,Left,1,47,80,37.0,0.239583,Sixteenth,B2
249,Left,1,56,80,37.25,0.239583,Sixteenth,G#3
250,Left,1,52,80,37.5,0.239583,Sixteenth,E3
251,Left,1,47,80,37.75,0.239583,Sixteenth,B2
252,Right,0,86,80,38.0,0.989583,Quarter,D6_D5
253,Left,1,40,80,38.0,0.239583,Sixteenth,E2
255,Left,1,56,80,38.25,0.239583,Sixteenth,G#3
256,Left,1,52,80,38.5,0.239583,Sixteenth,E3
257,Left,1,47,80,38.75,0.239583,Sixteenth,B2
258,Right,0,73,80,39.0,1.489583,DottedQuarter,C#6_C#5
260,Left,1,45,80,39.0,0.239583,Sixteenth,A2
261,Left,1,57,80,39.25,0.239583,Sixteenth,A3
262,Left,1,52,80,39.5,0.239583,Sixteenth,E3
263,Left,1,49,80,39.75,0.239583,Sixteenth,C#3
264,Left,1,45,80,40.0,0.239583,Sixteenth,A2
265,Left,1,52,80,40.25,0.239583,Sixteenth,E3
266,Right,0,73,80,40.5,0.489583,Eighth,C#6_C#5
268,Left,1,44,80,40.5,0.239583,Sixteenth,G#2
269,Left,1,52,81,40.75,0.239583,Sixteenth,E3
270,Right,0,84,82,41.0,0.489583,Eighth,C6_C5
272,Left,1,44,82,41.0,0.239583,Sixteenth,G#2
273,Left,1,52,83,41.25,0.239583,Sixteenth,E3
275,Right,0,85,84,41.5,0.489583,Eighth,C#6_C#5
274,Left,1,45,84,41.5,0.239583,Sixteenth,A2
277,Left,1,52,85,41.75,0.239583,Sixteenth,E3
278,Left,1,49,87,42.0,0.239583,Sixteenth,C#3_A2
279,Right,0,69,87,42.0,0.489583,Eighth,A5_A4
282,Left,1,52,88,42.25,0.239583,Sixteenth,E3
285,Left,1,52,89,42.5,0.239583,Sixteenth,E3_B2
283,Right,0,68,89,42.5,0.489583,Eighth,G#5_G#4
287,Left,1,56,90,42.75,0.239583,Sixteenth,G#3
290,Left,1,49,91,43.0,0.239583,Sixteenth,E3_C#3
288,Right,0,68,91,43.0,0.489583,Eighth,G#5_G#4
292,Left,1,58,92,43.25,0.239583,Sixteenth,A#3
295,Right,0,66,94,43.5,0.989583,Quarter,F#5_F#4
293,Left,1,49,94,43.5,0.239583,Sixteenth,E3_C#3
297,Left,1,58,95,43.75,0.239583,Sixteenth,A#3
298,Left,1,52,96,44.0,0.239583,Sixteenth,E3_C3
300,Left,1,57,97,44.25,0.239583,Sixteenth,A3
301,Right,0,66,98,44.5,0.489583,Eighth,F#5_F#4
303,Left,1,52,100,44.5,0.239583,Sixteenth,E3_C3
305,Left,1,57,89,44.75,0.239583,Sixteenth,A3
307,Right,0,78,80,45.0,0.489583,Eighth,F#5_F#4
306,Left,1,47,80,45.0,0.239583,Sixteenth,D#3_B2
310,Left,1,57,80,45.25,0.239583,Sixteenth,A3
311,Right,0,83,80,45.5,0.489583,Eighth,B5_B4
313,Left,1,47,80,45.5,0.239583,Sixteenth,D#3_B2
315,Left,1,57,80,45.75,0.239583,Sixteenth,A3
316,Right,0,82,80,46.0,0.489583,Eighth,A#5_A#4
317,Left,1,47,80,46.0,0.239583,Sixteenth,D#3_B2
320,Left,1,57,80,46.25,0.239583,Sixteenth,A3
323,Right,0,71,80,46.5,0.489583,Eighth,B5_B4
321,Left,1,47,80,46.5,0.239583,Sixteenth,D#3_B2
325,Left,1,57,80,46.75,0.239583,Sixteenth,A3
327,Right,0,64,80,47.0,0.989583,Quarter,E5_E4
326,Left,1,56,80,47.0,0.239583,Sixteenth,G#3_E3
330,Left,1,52,80,47.25,0.239583,Sixteenth,E3
331,Left,1,51,80,47.5,0.239583,Sixteenth,D#3
332,Left,1,49,80,47.75,0.239583,Sixteenth,C#3
333,Left,1,47,80,48.0,0.239583,Sixteenth,B2
334,Left,1,45,80,48.25,0.239583,Sixteenth,A2
336,Left,1,44,80,48.5,0.239583,Sixteenth,G#2
335,Right,0,64,80,48.5,0.239583,Sixteenth,E4
337,Left,1,42,80,48.75,0.239583,Sixteenth,F#2
338,Right,0,66,80,48.75,0.239583,Sixteenth,F#4
339,Right,0,64,80,49.0,0.989583,Sixteenth,G#4_E4
341,Left,1,40,80,49.0,0.489583,Eighth,E2
342,Right,0,59,80,49.25,0.239583,Sixteenth,B3
343,Right,0,64,80,49.5,0.239583,Sixteenth,E4
344,Right,0,59,80,49.75,0.239583,Sixteenth,B3
345,Right,0,68,80,50.0,0.489583,Sixteenth,G#4_B4
347,Right,0,59,80,50.25,0.239583,Sixteenth,B3
348,Right,0,66,80,50.5,0.489583,Sixteenth,F#4_A4
350,Right,0,59,80,50.75,0.239583,Sixteenth,B3
353,Left,1,35,80,51.0,0.489583,Eighth,B1
351,Right,0,64,80,51.0,0.489583,Sixteenth,G#4_E4
354,Right,0,59,80,51.25,0.239583,Sixteenth,B3
355,Right,0,66,80,51.5,0.489583,Eighth,F#4_D#4
357,Right,0,59,80,51.75,0.239583,Sixteenth,B3
358,Right,0,63,80,52.0,0.489583,Sixteenth,F#4_D#4
360,Right,0,59,80,52.25,0.239583,Sixteenth,B3
361,Right,0,64,80,52.5,0.489583,Sixteenth,G#4_E4
363,Right,0,59,80,52.75,0.239583,Sixteenth,B3
364,Left,1,37,80,53.0,0.489583,Eighth,C#2
365,Right,0,69,80,53.0,0.489583,Eighth,E4_A4
367,Right,0,59,80,53.25,0.239583,Sixteenth,B3
368,Right,0,64,80,53.5,0.489583,Sixteenth,E4_C#5
370,Right,0,59,80,53.75,0.239583,Sixteenth,B3
371,Right,0,66,80,54.0,0.489583,Sixteenth,F#4_B4
372,Left,1,39,80,54.0,0.489583,Eighth,D#2
374,Right,0,59,80,54.25,0.239583,Sixteenth,B3
375,Right,0,63,80,54.5,0.489583,Sixteenth,F#4_D#4
377,Left,1,35,80,54.5,0.489583,Eighth,B1
378,Right,0,59,80,54.75,0.239583,Sixteenth,B3
381,Left,1,40,80,55.0,0.489583,Eighth,E2
379,Right,0,68,80,55.0,0.989583,Quarter,G#4_E4_B3
383,Left,1,64,80,55.5,0.239583,Sixteenth,E4
384,Left,1,59,80,55.75,0.239583,Sixteenth,B3
386,Left,1,64,80,56.0,0.239583,Sixteenth,E4
385,Right,0,78,80,56.0,0.072917,TripletThirtySecond,F#5
387,Right,0,76,80,56.083333,0.15625,TripletSixteenth,E5
389,Left,1,59,81,56.25,0.239583,Sixteenth,B3
388,Right,0,75,81,56.25,0.239583,Sixteenth,D#5
391,Left,1,64,82,56.5,0.239583,Sixteenth,E4
390,Right,0,76,82,56.5,0.239583,Sixteenth,E5
393,Left,1,59,83,56.75,0.239583,Sixteenth,B3
392,Right,0,78,83,56.75,0.239583,Sixteenth,F#5
395,Left,1,64,84,57.0,0.239583,Sixteenth,E4
394,Right,0,81,84,57.0,0.072917,TripletThirtySecond,A5
396,Right,0,80,85,57.083333,0.15625,TripletSixteenth,G#5
398,Left,1,59,85,57.25,0.239583,Sixteenth,B3
397,Right,0,78,85,57.25,0.239583,Sixteenth,F#5
399,Left,1,64,87,57.5,0.239583,Sixteenth,E4
400,Right,0,80,87,57.5,0.239583,Sixteenth,G#5
402,Left,1,59,88,57.75,0.239583,Sixteenth,B3
401,Right,0,81,88,57.75,0.239583,Sixteenth,A5
403,Right,0,71,89,58.0,0.489583,Eighth,B5_B4
404,Left,1,68,89,58.0,0.239583,Sixteenth,G#4
406,Left,1,59,90,58.25,0.239583,Sixteenth,B3
408,Right,0,81,91,58.5,0.489583,Eighth,A5_A4
407,Left,1,66,91,58.5,0.239583,Sixteenth,F#4
410,Left,1,59,93,58.75,0.239583,Sixteenth,B3
411,Left,1,64,94,59.0,0.239583,Sixteenth,E4
412,Right,0,68,94,59.0,0.489583,Eighth,G#5_G#4
414,Left,1,59,95,59.25,0.239583,Sixteenth,B3
415,Right,0,66,96,59.5,0.489583,Eighth,F#5_F#4
417,Left,1,63,96,59.5,0.239583,Sixteenth,D#4
418,Left,1,59,97,59.75,0.239583,Sixteenth,B3
420,Left,1,63,99,60.0,0.239583,Sixteenth,D#4
419,Right,0,66,99,60.0,0.489583,Eighth,F#5_F#4
422,Left,1,59,100,60.25,0.239583,Sixteenth,B3
425,Left,1,65,101,60.5,0.239583,Sixteenth,F4
423,Right,0,80,101,60.5,0.489583,Eighth,G#5_G#4
426,Left,1,59,102,60.75,0.239583,Sixteenth,B3
429,Left,1,66,103,61.0,0.239583,Sixteenth,F#4
427,Right,0,81,103,61.0,0.489583,Eighth,A5_A4
430,Left,1,59,105,61.25,0.239583,Sixteenth,B3
433,Left,1,69,106,61.5,0.239583,Sixteenth,A4
431,Right,0,85,106,61.5,0.489583,Eighth,C#6_C#5
434,Left,1,59,107,61.75,0.239583,Sixteenth,B3
436,Right,0,83,108,62.0,0.489583,Eighth,B5_B4
435,Left,1,68,108,62.0,0.239583,Sixteenth,G#4
438,Left,1,59,109,62.25,0.239583,Sixteenth,B3
439,Right,0,81,110,62.5,0.489583,Eighth,D#6_D#5_A5
440,Left,1,66,110,62.5,0.239583,Sixteenth,F#4
443,Left,1,59,110,62.75,0.239583,Sixteenth,B3
444,Right,0,80,110,63.0,0.989583,Quarter,G#5_E6_E5
446,Left,1,64,110,63.0,0.239583,Sixteenth,E4
448,Left,1,59,110,63.25,0.239583,Sixteenth,B3
449,Left,1,56,110,63.5,0.239583,Sixteenth,G#3
450,Left,1,59,110,63.75,0.239583,Sixteenth,B3
451,Left,1,52,110,64.0,0.489583,Eighth,E3
452,Right,0,68,110,64.5,0.489583,Eighth,G#4_E4
455,Right,0,64,110,65.0,1.489583,DottedQuarter,G#4_E4
454,Left,1,61,110,65.0,0.239583,Sixteenth,C#4
457,Left,1,56,110,65.25,0.239583,Sixteenth,G#3
458,Left,1,52,110,65.5,0.239583,Sixteenth,E3
459,Left,1,56,110,65.75,0.239583,Sixteenth,G#3
460,Left,1,49,110,66.0,0.489583,Eighth,C#3
463,Left,1,61,80,66.5,0.489583,Eighth,C#4
461,Right,0,76,80,66.5,0.489583,Eighth,G#4_E5_E4
466,Right,0,63,80,67.0,1.489583,DottedQuarter,G#4_F#4_D#5_D#4
465,Left,1,60,80,67.0,0.239583,Sixteenth,C4
470,Left,1,56,80,67.25,0.239583,Sixteenth,G#3
471,Left,1,51,80,67.5,0.239583,Sixteenth,D#3
472,Left,1,56,80,67.75,0.239583,Sixteenth,G#3
473,Left,1,48,80,68.0,0.489583,Eighth,C3
474,Right,0,63,110,68.5,0.489583,Eighth,G#4_F#4_D#4
477,Left,1,60,110,68.5,0.489583,Eighth,C4
478,Right,0,66,110,69.0,1.489583,DottedQuarter,G#4_F#4_D#4
479,Left,1,56,110,69.0,0.239583,Sixteenth,G#3
482,Left,1,51,110,69.25,0.239583,Sixteenth,D#3
483,Left,1,48,110,69.5,0.239583,Sixteenth,C3
484,Left,1,51,110,69.75,0.239583,Sixteenth,D#3
485,Left,1,44,110,70.0,0.489583,Eighth,G#2
486,Right,0,68,80,70.5,0.489583,Eighth,G#4_F#4_D#5_D#4
490,Left,1,60,80,70.5,0.489583,Eighth,C4
492,Right,0,64,80,71.0,1.489583,DottedQuarter,G#4_E5_E4
491,Left,1,61,80,71.0,0.239583,Sixteenth,C#4
495,Left,1,56,80,71.25,0.239583,Sixteenth,G#3
496,Left,1,52,80,71.5,0.239583,Sixteenth,E3
497,Left,1,56,80,71.75,0.239583,Sixteenth,G#3
498,Left,1,49,80,72.0,0.489583,Eighth,C#3
499,Left,1,61,110,72.5,0.489583,Eighth,C#4
500,Right,0,64,110,72.5,0.489583,Eighth,G#4_E4
502,Left,1,59,110,73.0,0.239583,Sixteenth,B3
503,Right,0,64,110,73.0,1.489583,DottedQuarter,G#4_E4
505,Left,1,56,110,73.25,0.239583,Sixteenth,G#3
506,Left,1,52,110,73.5,0.239583,Sixteenth,E3
507,Left,1,56,110,73.75,0.239583,Sixteenth,G#3
508,Left,1,47,110,74.0,0.489583,Eighth,B2
510,Right,0,64,80,74.5,0.489583,Eighth,G#4_E5_E4
509,Left,1,59,80,74.5,0.489583,Eighth,B3
514,Right,0,76,80,75.0,1.489583,DottedQuarter,F#4_E5_E4
513,Left,1,58,80,75.0,0.239583,Sixteenth,A#3
517,Left,1,54,80,75.25,0.239583,Sixteenth,F#3
518,Left,1,49,80,75.5,0.239583,Sixteenth,C#3
519,Left,1,54,80,75.75,0.239583,Sixteenth,F#3
520,Left,1,46,80,76.0,0.489583,Eighth,A#2
523,Left,1,46,110,76.5,0.489583,Eighth,A#2
521,Right,0,61,110,76.5,0.489583,Eighth,E4_C#4
525,Left,1,44,110,77.0,0.239583,Sixteenth,G#2
524,Right,0,64,110,77.0,1.489583,DottedQuarter,E4_B3
527,Left,1,40,110,77.25,0.239583,Sixteenth,E2
528,Left,1,35,110,77.5,0.239583,Sixteenth,B1
529,Left,1,40,110,77.75,0.239583,Sixteenth,E2
530,Left,1,32,110,78.0,0.489583,Eighth,G#1
532,Right,0,64,110,78.5,0.489583,Eighth,E5_E4_B4
531,Left,1,32,110,78.5,0.489583,Eighth,G#2_G#1
540,Left,1,42,110,79.0,0.489583,Eighth,F#2_F#1
536,Right,0,76,110,79.0,0.489583,Eighth,E5_E4_C#5_A#4
542,Left,1,66,80,79.5,0.239583,Sixteenth,F#4
543,Left,1,68,80,79.75,0.239583,Sixteenth,G#4
544,Left,1,66,80,80.0,0.239583,Sixteenth,F#4
545,Left,1,68,80,80.25,0.239583,Sixteenth,G#4
546,Left,1,66,80,80.5,0.239583,Sixteenth,F#4
547,Left,1,68,80,80.75,0.239583,Sixteenth,G#4
549,Left,1,61,80,81.0,1.489583,DottedQuarter,F#4_C#4_A#3
548,Right,0,76,80,81.0,1.489583,DottedQuarter,E5_C#6
553,Left,1,68,80,81.25,0.239583,Sixteenth,G#4
554,Left,1,66,80,81.5,0.239583,Sixteenth,F#4
555,Left,1,68,80,81.75,0.239583,Sixteenth,G#4
556,Left,1,66,80,82.0,0.239583,Sixteenth,F#4
557,Left,1,68,80,82.25,0.239583,Sixteenth,G#4
558,Left,1,66,80,82.5,0.489583,Eighth,F#4_D#4_B3
561,Right,0,75,80,82.5,0.489583,Eighth,D#5_B5
563,Left,1,68,80,82.75,0.239583,Sixteenth,G#4
564,Right,0,75,80,83.0,0.489583,Eighth,D#5_B5
565,Left,1,66,80,83.0,0.489583,Eighth,F#4_D#4_B3
569,Left,1,68,80,83.25,0.239583,Sixteenth,G#4
570,Right,0,73,80,83.5,0.489583,Eighth,C#5_A#5
571,Left,1,61,80,83.5,0.489583,Eighth,F#4_E4_C#4
575,Left,1,68,80,83.75,0.239583,Sixteenth,G#4
578,Left,1,61,80,84.0,0.489583,Eighth,F#4_E4_C#4
576,Right,0,73,80,84.0,0.489583,Eighth,C#5_A#5
581,Left,1,68,80,84.25,0.239583,Sixteenth,G#4
585,Right,0,83,80,84.5,0.489583,Eighth,D#5_B5
582,Left,1,59,80,84.5,0.489583,Eighth,F#4_D#4_B3
587,Left,1,68,80,84.75,0.239583,Sixteenth,G#4
588,Right,0,85,80,85.0,1.489583,DottedQuarter,E5_C#6
590,Left,1,58,80,85.0,1.489583,DottedQuarter,F#4_C#4_A#3
593,Left,1,68,80,85.25,0.239583,Sixteenth,G#4
594,Left,1,66,80,85.5,0.239583,Sixteenth,F#4
595,Left,1,68,80,85.75,0.239583,Sixteenth,G#4
596,Left,1,66,80,86.0,0.239583,Sixteenth,F#4
597,Left,1,68,80,86.25,0.239583,Sixteenth,G#4
598,Right,0,83,80,86.5,0.489583,Eighth,D#5_B5
599,Left,1,59,80,86.5,0.489583,Eighth,F#4_D#4_B3
603,Left,1,68,80,86.75,0.239583,Sixteenth,G#4
604,Right,0,73,80,87.0,0.489583,Eighth,C#5_A#5
605,Left,1,61,80,87.0,0.489583,Eighth,F#4_E4_C#4
609,Left,1,68,80,87.25,0.239583,Sixteenth,G#4
610,Left,1,61,80,87.5,0.489583,Eighth,F#4_C#4_A#3
613,Right,0,76,80,87.5,0.489583,Eighth,E5_C#6
615,Left,1,68,80,87.75,0.239583,Sixteenth,G#4
616,Left,1,59,80,88.0,0.489583,Eighth,F#4_D#4_B3
619,Right,0,83,80,88.0,0.489583,Eighth,D#5_B5
621,Left,1,68,80,88.25,0.239583,Sixteenth,G#4
622,Right,0,82,80,88.5,0.489583,Eighth,C#5_A#5
623,Left,1,66,80,88.5,0.489583,Eighth,F#4_E4_C#4
627,Left,1,68,80,88.75,0.239583,Sixteenth,G#4
628,Right,0,83,80,89.0,0.489583,Eighth,F#5_B5
630,Left,1,63,80,89.0,0.239583,Sixteenth,F#4_D#4
632,Left,1,71,80,89.25,0.239583,Sixteenth,B4
634,Right,0,82,80,89.5,0.489583,Eighth,A#5
633,Left,1,66,80,89.5,0.239583,Sixteenth,F#4
635,Left,1,71,80,89.75,0.239583,Sixteenth,B4
637,Left,1,64,80,90.0,0.239583,Sixteenth,E4
636,Right,0,80,80,90.0,0.489583,Eighth,G#5
638,Left,1,71,80,90.25,0.239583,Sixteenth,B4
639,Right,0,78,80,90.5,0.489583,Eighth,F#5
640,Left,1,63,80,90.5,0.239583,Sixteenth,D#4
641,Left,1,71,80,90.75,0.239583,Sixteenth,B4
642,Left,1,64,80,91.0,0.239583,Sixteenth,E4
643,Right,0,80,80,91.0,0.489583,Eighth,G#5
644,Left,1,71,80,91.25,0.239583,Sixteenth,B4
645,Left,1,66,80,91.5,0.239583,Sixteenth,F#4
646,Right,0,78,80,91.5,0.489583,Eighth,F#5
647,Left,1,71,80,91.75,0.239583,Sixteenth,B4
648,Left,1,68,80,92.0,0.239583,Sixteenth,G#4
649,Right,0,76,80,92.0,0.489583,Eighth,E5
650,Left,1,71,80,92.25,0.239583,Sixteenth,B4
652,Left,1,65,80,92.5,0.239583,Sixteenth,F4
651,Right,0,75,80,92.5,0.489583,Eighth,D#5
653,Left,1,71,80,92.75,0.239583,Sixteenth,B4
654,Left,1,66,80,93.0,1.989583,Half,F#4
655,Right,0,75,80,93.0,1.489583,DottedQuarter,D#5
656,Left,1,68,80,93.25,0.239583,Sixteenth,G#4
657,Left,1,70,80,93.5,0.239583,Sixteenth,A#4
658,Left,1,71,80,93.75,0.239583,Sixteenth,B4
659,Left,1,70,80,94.0,0.239583,Sixteenth,A#4
660,Left,1,71,80,94.25,0.239583,Sixteenth,B4
661,Right,0,76,80,94.5,0.239583,Sixteenth,E5
662,Left,1,73,80,94.5,0.239583,Sixteenth,C#5
663,Right,0,78,80,94.75,0.239583,Sixteenth,F#5
664,Left,1,75,80,94.75,0.239583,Sixteenth,D#5
665,Right,0,73,80,95.0,0.489583,Eighth,C#5
666,Left,1,66,80,95.0,0.489583,Eighth,F#4_A#4
668,Right,0,78,80,95.5,0.239583,Sixteenth,F#5
669,Left,1,68,80,95.5,0.239583,Sixteenth,G#4
670,Left,1,66,80,95.75,0.239583,Sixteenth,F#4
671,Right,0,80,80,95.75,0.239583,Sixteenth,G#5
673,Left,1,68,80,96.0,0.239583,Sixteenth,G#4
672,Right,0,78,80,96.0,0.239583,Sixteenth,F#5
674,Left,1,66,80,96.25,0.239583,Sixteenth,F#4
675,Right,0,80,80,96.25,0.239583,Sixteenth,G#5
676,Left,1,68,80,96.5,0.239583,Sixteenth,G#4
677,Right,0,78,80,96.5,0.239583,Sixteenth,F#5
679,Right,0,80,80,96.75,0.239583,Sixteenth,G#5
678,Left,1,66,80,96.75,0.239583,Sixteenth,F#4
680,Left,1,61,80,97.0,1.489583,DottedQuarter,G#4_C#4_A#3
682,Right,0,85,80,97.0,1.489583,DottedQuarter,F#5_E6_C#6
686,Right,0,80,80,97.25,0.239583,Sixteenth,G#5
687,Left,1,66,80,97.25,0.239583,Sixteenth,F#4
689,Left,1,68,80,97.5,0.239583,Sixteenth,G#4
688,Right,0,78,80,97.5,0.239583,Sixteenth,F#5
691,Right,0,80,80,97.75,0.239583,Sixteenth,G#5
690,Left,1,66,80,97.75,0.239583,Sixteenth,F#4
692,Right,0,78,80,98.0,0.239583,Sixteenth,F#5
693,Left,1,68,80,98.0,0.239583,Sixteenth,G#4
694,Left,1,66,80,98.25,0.239583,Sixteenth,F#4
695,Right,0,80,80,98.25,0.239583,Sixteenth,G#5
699,Left,1,68,80,98.5,0.489583,Eighth,G#4_D#4_B3
696,Right,0,83,80,98.5,0.489583,Eighth,F#5_D#6_B5
702,Right,0,80,80,98.75,0.239583,Sixteenth,G#5
703,Left,1,66,80,98.75,0.239583,Sixteenth,F#4
705,Right,0,78,80,99.0,0.489583,Eighth,F#5_D#6_B5
704,Left,1,68,80,99.0,0.489583,Eighth,G#4_D#4_B3
710,Right,0,80,80,99.25,0.239583,Sixteenth,G#5
711,Left,1,66,80,99.25,0.239583,Sixteenth,F#4
713,Left,1,64,80,99.5,0.489583,Eighth,G#4_E4_C#4
712,Right,0,82,80,99.5,0.489583,Eighth,F#5_C#6_A#5
719,Left,1,66,80,99.75,0.239583,Sixteenth,F#4
718,Right,0,80,80,99.75,0.239583,Sixteenth,G#5
720,Left,1,61,80,100.0,0.489583,Eighth,G#4_E4_C#4
723,Right,0,82,80,100.0,0.489583,Eighth,F#5_C#6_A#5
727,Left,1,66,80,100.25,0.239583,Sixteenth,F#4
726,Right,0,80,80,100.25,0.239583,Sixteenth,G#5
728,Right,0,78,80,100.5,0.489583,Eighth,F#5_D#6_B5
731,Left,1,59,80,100.5,0.489583,Eighth,G#4_D#4_B3
735,Left,1,66,80,100.75,0.239583,Sixteenth,F#4
734,Right,0,80,80,100.75,0.239583,Sixteenth,G#5
736,Left,1,68,80,101.0,1.489583,DottedQuarter,G#4_C#4_A#3
738,Right,0,85,80,101.0,1.489583,DottedQuarter,F#5_E6_C#6
743,Left,1,66,81,101.25,0.239583,Sixteenth,F#4
742,Right,0,80,81,101.25,0.239583,Sixteenth,G#5
745,Right,0,78,83,101.5,0.239583,Sixteenth,F#5
744,Left,1,68,83,101.5,0.239583,Sixteenth,G#4
746,Right,0,80,85,101.75,0.239583,Sixteenth,G#5
747,Left,1,66,85,101.75,0.239583,Sixteenth,F#4
748,Right,0,78,87,102.0,0.239583,Sixteenth,F#5
749,Left,1,68,87,102.0,0.239583,Sixteenth,G#4
751,Right,0,80,89,102.25,0.239583,Sixteenth,G#5
750,Left,1,66,89,102.25,0.239583,Sixteenth,F#4
752,Left,1,68,91,102.5,0.489583,Eighth,G#4_D#4_B3
754,Right,0,83,91,102.5,0.489583,Eighth,F#5_D#6_B5
759,Right,0,80,93,102.75,0.239583,Sixteenth,G#5
758,Left,1,66,93,102.75,0.239583,Sixteenth,F#4
760,Left,1,64,95,103.0,0.239583,Sixteenth,E4_C#4
761,Right,0,82,95,103.0,0.489583,Eighth,C#6_A#5
764,Left,1,66,97,103.25,0.239583,Sixteenth,F#4
765,Right,0,78,97,103.25,0.239583,Sixteenth,F#5
766,Left,1,54,99,103.5,0.239583,Sixteenth,F#3_A#3
768,Right,0,88,99,103.5,0.489583,Eighth,G#6_E6
770,Left,1,66,101,103.75,0.239583,Sixteenth,F#4
771,Right,0,78,101,103.75,0.239583,Sixteenth,F#5
773,Left,1,56,103,104.0,0.239583,Sixteenth,G#3_B3
772,Right,0,90,103,104.0,0.489583,Eighth,F#6_D#6
777,Right,0,78,105,104.25,0.239583,Sixteenth,F#5
776,Left,1,66,105,104.25,0.239583,Sixteenth,F#4
779,Right,0,85,107,104.5,0.489583,Eighth,E6_C#6
778,Left,1,61,107,104.5,0.239583,Sixteenth,C#4_A#3
783,Right,0,78,109,104.75,0.239583,Sixteenth,F#5
782,Left,1,66,109,104.75,0.239583,Sixteenth,F#4
785,Left,1,59,110,105.0,0.239583,Sixteenth,D#4_B3
784,Right,0,83,110,105.0,0.489583,Eighth,D#6_B5
788,Left,1,66,109,105.25,0.239583,Sixteenth,F#4
789,Right,0,78,109,105.25,0.239583,Sixteenth,F#5
792,Right,0,87,108,105.5,0.489583,Eighth,F#6_D#6
790,Left,1,56,108,105.5,0.239583,Sixteenth,G#3_B3
795,Right,0,78,107,105.75,0.239583,Sixteenth,F#5
794,Left,1,66,107,105.75,0.239583,Sixteenth,F#4
796,Left,1,58,105,106.0,0.239583,Sixteenth,C#4_A#3
798,Right,0,88,105,106.0,0.489583,Eighth,E6_C#6
800,Right,0,78,104,106.25,0.239583,Sixteenth,F#5
801,Left,1,66,104,106.25,0.239583,Sixteenth,F#4
803,Right,0,87,103,106.5,0.489583,Eighth,D#6_B5
802,Left,1,59,103,106.5,0.239583,Sixteenth,D#4_B3
806,Right,0,78,101,106.75,0.239583,Sixteenth,F#5
807,Left,1,66,101,106.75,0.239583,Sixteenth,F#4
810,Right,0,85,100,107.0,0.489583,Eighth,C#6_A#5
808,Left,1,64,100,107.0,0.239583,Sixteenth,E4_C#4
812,Left,1,66,99,107.25,0.239583,Sixteenth,F#4
813,Right,0,78,99,107.25,0.239583,Sixteenth,F#5
814,Left,1,58,97,107.5,0.239583,Sixteenth,C#4_A#3
816,Right,0,88,97,107.5,0.489583,Eighth,E6_C#6
818,Left,1,66,96,107.75,0.239583,Sixteenth,F#4
819,Right,0,78,96,107.75,0.239583,Sixteenth,F#5
821,Left,1,59,95,108.0,0.239583,Sixteenth,D#4_B3
820,Right,0,87,95,108.0,0.489583,Eighth,D#6_B5
825,Left,1,66,94,108.25,0.239583,Sixteenth,F#4
824,Right,0,78,94,108.25,0.239583,Sixteenth,F#5
827,Left,1,61,92,108.5,0.239583,Sixteenth,E4_C#4
826,Right,0,82,92,108.5,0.489583,Eighth,C#6_A#5
831,Right,0,78,91,108.75,0.239583,Sixteenth,F#5
830,Left,1,66,91,108.75,0.239583,Sixteenth,F#4
832,Right,0,83,90,109.0,0.489583,Eighth,B5
833,Left,1,63,90,109.0,0.239583,Sixteenth,D#4
835,Right,0,78,88,109.25,0.239583,Sixteenth,F#5
834,Left,1,66,88,109.25,0.239583,Sixteenth,F#4
837,Right,0,81,87,109.5,0.489583,Eighth,A5
836,Left,1,63,87,109.5,0.239583,Sixteenth,D#4
839,Right,0,72,86,109.75,0.239583,Sixteenth,C5
838,Left,1,66,86,109.75,0.239583,Sixteenth,F#4
841,Left,1,63,84,110.0,0.239583,Sixteenth,D#4
840,Right,0,80,84,110.0,0.489583,Eighth,G#5
842,Left,1,66,83,110.25,0.239583,Sixteenth,F#4
843,Right,0,72,83,110.25,0.239583,Sixteenth,C5
844,Right,0,80,82,110.5,0.489583,Eighth,G#5
845,Left,1,63,82,110.5,0.239583,Sixteenth,D#4
847,Right,0,72,81,110.75,0.239583,Sixteenth,C5
846,Left,1,66,81,110.75,0.239583,Sixteenth,F#4
849,Right,0,72,70,111.0,0.239583,Sixteenth,G#5_C5
848,Left,1,63,70,111.0,0.489583,Eighth,F#4_D#4
852,Right,0,68,70,111.25,0.239583,Sixteenth,G#4
853,Right,0,70,70,111.5,0.239583,Sixteenth,A#4
854,Right,0,72,70,111.75,0.239583,Sixteenth,C5
855,Right,0,75,70,112.0,0.072917,TripletThirtySecond,D#5
856,Right,0,73,70,112.083333,0.15625,TripletSixteenth,C#5
857,Right,0,72,70,112.25,0.239583,Sixteenth,C5
858,Left,1,56,70,112.25,0.239583,Sixteenth,G#3
860,Left,1,58,70,112.5,0.239583,Sixteenth,A#3
859,Right,0,73,70,112.5,0.239583,Sixteenth,C#5
861,Left,1,60,70,112.75,0.239583,Sixteenth,C4
862,Right,0,75,70,112.75,0.239583,Sixteenth,D#5
864,Left,1,61,70,113.0,0.239583,Sixteenth,C#4
863,Right,0,76,70,113.0,0.239583,Sixteenth,E5
866,Left,1,56,70,113.25,0.239583,Sixteenth,G#3
865,Right,0,72,70,113.25,0.239583,Sixteenth,C5
868,Left,1,58,70,113.5,0.239583,Sixteenth,A#3
867,Right,0,73,70,113.5,0.239583,Sixteenth,C#5
870,Left,1,60,70,113.75,0.239583,Sixteenth,C4
869,Right,0,75,70,113.75,0.239583,Sixteenth,D#5
872,Right,0,78,70,114.0,0.072917,TripletThirtySecond,F#5
871,Left,1,63,70,114.0,0.072917,TripletThirtySecond,D#4
874,Left,1,61,70,114.083333,0.15625,TripletSixteenth,C#4
873,Right,0,76,70,114.083333,0.15625,TripletSixteenth,E5
875,Right,0,75,70,114.25,0.239583,Sixteenth,D#5
876,Left,1,60,70,114.25,0.239583,Sixteenth,C4
878,Right,0,76,70,114.5,0.239583,Sixteenth,E5
877,Left,1,61,70,114.5,0.239583,Sixteenth,C#4
879,Right,0,78,70,114.75,0.239583,Sixteenth,F#5
880,Left,1,63,70,114.75,0.239583,Sixteenth,D#4
881,Right,0,80,70,115.0,0.239583,Sixteenth,G#5
882,Left,1,64,70,115.0,0.239583,Sixteenth,E4
884,Right,0,78,70,115.25,0.239583,Sixteenth,F#5
883,Left,1,63,70,115.25,0.239583,Sixteenth,D#4
886,Left,1,64,70,115.5,0.239583,Sixteenth,E4
885,Right,0,76,70,115.5,0.239583,Sixteenth,E5
888,Left,1,66,70,115.75,0.239583,Sixteenth,F#4
887,Right,0,75,70,115.75,0.239583,Sixteenth,D#5
889,Left,1,68,70,116.0,0.239583,Sixteenth,G#4
890,Right,0,76,70,116.0,0.239583,Sixteenth,E5
892,Right,0,75,70,116.25,0.239583,Sixteenth,D#5
891,Left,1,66,70,116.25,0.239583,Sixteenth,F#4
893,Right,0,73,70,116.5,0.239583,Sixteenth,C#5
894,Left,1,64,70,116.5,0.239583,Sixteenth,E4
895,Right,0,80,70,116.75,0.239583,Sixteenth,G#5
896,Left,1,65,70,116.75,0.239583,Sixteenth,F4
897,Right,0,75,70,117.0,0.239583,Sixteenth,D#5
898,Left,1,66,70,117.0,0.489583,Eighth,F#4
899,Right,0,73,70,117.25,0.239583,Sixteenth,C#5
900,Right,0,71,70,117.5,0.239583,Sixteenth,B4
901,Right,0,78,70,117.75,0.239583,Sixteenth,F#5
902,Left,1,54,70,118.0,0.489583,Eighth,F#3
903,Right,0,73,70,118.0,0.239583,Sixteenth,C#5
904,Right,0,71,70,118.25,0.239583,Sixteenth,B4
905,Right,0,70,70,118.5,0.239583,Sixteenth,A#4
906,Right,0,78,70,118.75,0.239583,Sixteenth,F#5
907,Right,0,78,80,119.0,1.989583,Half,F#5_F#4_D#5
910,Left,1,47,80,119.0,0.322917,Triplet,B2
911,Left,1,54,80,119.333333,0.322917,Triplet,F#3
912,Left,1,51,80,119.666667,0.322917,Triplet,D#3
913,Left,1,47,80,120.0,0.322917,Triplet,B2
914,Left,1,59,80,120.333333,0.322917,Triplet,B3
915,Left,1,54,80,120.666667,0.322917,Triplet,F#3
918,Left,1,49,80,121.0,0.322917,Triplet,C#3
916,Right,0,76,80,121.0,0.989583,Quarter,E5_E4_C#5
920,Left,1,58,80,121.333333,0.322917,Triplet,A#3
921,Left,1,54,80,121.666667,0.322917,Triplet,F#3
922,Left,1,51,80,122.0,0.322917,Triplet,D#3
923,Right,0,71,80,122.0,0.989583,Quarter,D#5_D#4_B4
926,Left,1,59,80,122.333333,0.322917,Triplet,B3
927,Left,1,54,80,122.666667,0.322917,Triplet,F#3
928,Right,0,68,80,123.0,0.989583,Quarter,G#4_C#5
930,Left,1,52,80,123.0,0.322917,Triplet,E3
931,Left,1,61,80,123.333333,0.322917,Triplet,C#4
932,Left,1,56,80,123.666667,0.322917,Triplet,G#3
933,Left,1,53,80,124.0,0.322917,Triplet,F3
934,Right,0,71,80,124.0,1.989583,Half,G#4_B4
936,Left,1,62,80,124.333333,0.322917,Triplet,D4
937,Left,1,56,80,124.666667,0.322917,Triplet,G#3
938,Left,1,54,80,125.0,0.322917,Triplet,F#3
939,Right,0,66,80,125.0,0.989583,Quarter,F#4
940,Left,1,63,80,125.333333,0.322917,Triplet,D#4
941,Left,1,59,80,125.666667,0.322917,Triplet,B3
942,Left,1,52,80,126.0,0.322917,Triplet,E3
943,Right,0,70,80,126.0,0.989583,Eighth,F#4_A#4
945,Left,1,61,80,126.333333,0.322917,Triplet,C#4
946,Right,0,78,80,126.5,0.489583,Eighth,F#5
947,Left,1,58,80,126.666667,0.322917,Triplet,A#3
949,Right,0,69,80,127.0,1.989583,Half,F#5_F#4_A4
948,Left,1,51,80,127.0,0.239583,Sixteenth,D#3
952,Left,1,59,80,127.25,0.239583,Sixteenth,B3
953,Left,1,54,81,127.5,0.239583,Sixteenth,F#3
954,Left,1,51,82,127.75,0.239583,Sixteenth,D#3
955,Left,1,47,83,128.0,0.239583,Sixteenth,B2
956,Left,1,54,84,128.25,0.239583,Sixteenth,F#3
957,Left,1,51,85,128.5,0.239583,Sixteenth,D#3
958,Left,1,47,86,128.75,0.239583,Sixteenth,B2
959,Left,1,49,87,129.0,0.239583,Sixteenth,C#3
960,Right,0,64,87,129.0,0.989583,Quarter,E5_E4_A4
963,Left,1,57,88,129.25,0.239583,Sixteenth,A3
964,Left,1,52,89,129.5,0.239583,Sixteenth,E3
965,Left,1,49,90,129.75,0.239583,Sixteenth,C#3
966,Left,1,51,91,130.0,0.239583,Sixteenth,D#3
967,Right,0,69,91,130.0,0.989583,Quarter,F#4_D#5_D#4_A4
971,Left,1,59,92,130.25,0.239583,Sixteenth,B3
972,Left,1,54,93,130.5,0.239583,Sixteenth,F#3
973,Left,1,51,94,130.75,0.239583,Sixteenth,D#3
974,Right,0,69,95,131.0,0.989583,Quarter,C#5_A4
976,Left,1,52,95,131.0,0.239583,Sixteenth,E3
977,Left,1,61,96,131.25,0.239583,Sixteenth,C#4
978,Left,1,57,97,131.5,0.239583,Sixteenth,A3
979,Left,1,52,98,131.75,0.239583,Sixteenth,E3
980,Right,0,63,99,132.0,1.989583,Half,D#4_B4_A4
981,Left,1,54,99,132.0,0.239583,Sixteenth,F#3
984,Left,1,59,100,132.25,0.239583,Sixteenth,B3
985,Left,1,57,101,132.5,0.239583,Sixteenth,A3
986,Left,1,54,102,132.75,0.239583,Sixteenth,F#3
987,Left,1,54,103,133.0,0.239583,Sixteenth,F#3
988,Left,1,59,104,133.25,0.239583,Sixteenth,B3
989,Left,1,57,105,133.5,0.239583,Sixteenth,A3
990,Left,1,54,106,133.75,0.239583,Sixteenth,F#3
993,Left,1,48,107,134.0,0.239583,Sixteenth,C3
991,Right,0,63,107,134.0,0.989583,Quarter,F#4_D#4_A4
995,Left,1,57,108,134.25,0.239583,Sixteenth,A3
996,Left,1,54,108,134.5,0.239583,Sixteenth,F#3
997,Left,1,51,109,134.75,0.239583,Sixteenth,D#3
998,Left,1,48,110,135.0,0.239583,Sixteenth,C3
999,Right,0,69,110,135.0,0.239583,Sixteenth,A4
1000,Right,0,75,106,135.25,0.239583,Sixteenth,D#5
1001,Left,1,57,106,135.25,0.239583,Sixteenth,A3
1002,Left,1,54,102,135.5,0.239583,Sixteenth,F#3
1003,Right,0,78,102,135.5,0.239583,Sixteenth,F#5
1005,Right,0,75,98,135.75,0.239583,Sixteenth,D#5
1004,Left,1,51,98,135.75,0.239583,Sixteenth,D#3
1007,Right,0,81,93,136.0,0.239583,Sixteenth,A5
1006,Left,1,48,93,136.0,0.239583,Sixteenth,C3
1008,Left,1,57,89,136.25,0.239583,Sixteenth,A3
1009,Right,0,87,89,136.25,0.239583,Sixteenth,D#6
1011,Right,0,90,85,136.5,0.239583,Sixteenth,F#6
1010,Left,1,54,85,136.5,0.239583,Sixteenth,F#3
1012,Left,1,51,81,136.75,0.239583,Sixteenth,D#3
1013,Right,0,87,81,136.75,0.239583,Sixteenth,D#6
1014,Left,1,47,80,137.0,0.239583,Sixteenth,B2
1015,Right,0,93,80,137.0,0.989583,Quarter,A6
1016,Left,1,57,80,137.25,0.239583,Sixteenth,A3
1017,Left,1,54,80,137.5,0.239583,Sixteenth,F#3
1018,Left,1,51,80,137.75,0.239583,Sixteenth,D#3
1019,Left,1,47,80,138.0,0.239583,Sixteenth,B2
1021,Left,1,57,80,138.25,0.239583,Sixteenth,A3
1020,Right,0,63,80,138.25,0.239583,Sixteenth,D#4
1023,Left,1,56,80,138.5,0.239583,Sixteenth,G#3
1022,Right,0,64,80,138.5,0.239583,Sixteenth,E4
1024,Left,1,54,80,138.75,0.239583,Sixteenth,F#3
1025,Right,0,66,80,138.75,0.239583,Sixteenth,F#4
1028,Left,1,52,80,139.0,0.489583,Eighth,E3_E2
1026,Right,0,68,80,139.0,0.989583,Quarter,G#4_E4
1030,Right,0,59,80,139.25,0.239583,Sixteenth,B3
1031,Right,0,64,80,139.5,0.239583,Sixteenth,E4
1032,Right,0,59,80,139.75,0.239583,Sixteenth,B3
1033,Right,0,71,80,140.0,0.489583,Eighth,G#4_B4
1035,Right,0,59,80,140.25,0.239583,Sixteenth,B3
1036,Right,0,66,80,140.5,0.489583,Sixteenth,F#4_A4
1038,Right,0,59,80,140.75,0.239583,Sixteenth,B3
1039,Left,1,47,80,141.0,0.489583,Eighth,B2_B1
1041,Right,0,68,80,141.0,0.489583,Eighth,G#4_E4
1043,Right,0,59,80,141.25,0.239583,Sixteenth,B3
1044,Right,0,63,80,141.5,0.489583,Sixteenth,F#4_D#4
1046,Right,0,59,80,141.75,0.239583,Sixteenth,B3
1047,Right,0,63,80,142.0,0.489583,Sixteenth,F#4_D#4
1049,Right,0,59,80,142.25,0.239583,Sixteenth,B3
1050,Right,0,68,80,142.5,0.489583,Eighth,G#4_E4
1052,Right,0,59,80,142.75,0.239583,Sixteenth,B3
1054,Left,1,49,80,143.0,0.489583,Eighth,C#3_C#2
1053,Right,0,69,80,143.0,0.489583,Eighth,E4_A4
1057,Right,0,59,80,143.25,0.239583,Sixteenth,B3
1058,Right,0,64,80,143.5,0.489583,Sixteenth,E4_C#5
1060,Right,0,59,80,143.75,0.239583,Sixteenth,B3
1063,Left,1,51,80,144.0,0.489583,Eighth,D#3_D#2
1061,Right,0,66,80,144.0,0.489583,Sixteenth,F#4_B4
1065,Right,0,59,80,144.25,0.239583,Sixteenth,B3
1066,Left,1,35,80,144.5,0.489583,Eighth,B2_B1
1067,Right,0,66,80,144.5,0.489583,Eighth,F#4_D#4
1070,Right,0,59,80,144.75,0.239583,Sixteenth,B3
1071,Right,0,68,80,145.0,0.989583,Quarter,G#4_E4_B3
1074,Left,1,52,80,145.0,0.239583,Sixteenth,E3_E2
1076,Left,1,56,80,145.25,0.239583,Sixteenth,G#3
1077,Left,1,59,80,145.5,0.239583,Sixteenth,B3
1078,Left,1,57,80,145.75,0.239583,Sixteenth,A3
1079,Left,1,56,80,146.0,0.239583,Sixteenth,G#3
1080,Left,1,57,80,146.25,0.239583,Sixteenth,A3
1081,Left,1,56,80,146.5,0.239583,Sixteenth,G#3
1082,Right,0,76,80,146.5,0.239583,Sixteenth,E5
1083,Left,1,54,80,146.75,0.239583,Sixteenth,F#3
1084,Right,0,78,80,146.75,0.239583,Sixteenth,F#5
1085,Left,1,52,80,147.0,0.239583,Sixteenth,E3
1086,Right,0,68,80,147.0,0.989583,Quarter,G#5_G#4
1088,Left,1,59,80,147.25,0.239583,Sixteenth,B3
1089,Left,1,47,80,147.5,0.239583,Sixteenth,B2
1090,Left,1,59,80,147.75,0.239583,Sixteenth,B3
1091,Right,0,71,80,148.0,0.489583,Eighth,B5_B4
1093,Left,1,52,80,148.0,0.239583,Sixteenth,E3
1094,Left,1,59,80,148.25,0.239583,Sixteenth,B3
1096,Left,1,47,80,148.5,0.239583,Sixteenth,B2
1095,Right,0,69,80,148.5,0.489583,Eighth,A5_A4
1098,Left,1,59,80,148.75,0.239583,Sixteenth,B3
1100,Right,0,80,80,149.0,0.489583,Eighth,G#5_G#4
1099,Left,1,51,80,149.0,0.239583,Sixteenth,D#3
1102,Left,1,59,80,149.25,0.239583,Sixteenth,B3
1105,Left,1,47,80,149.5,0.239583,Sixteenth,B2
1103,Right,0,78,80,149.5,0.489583,Eighth,F#5_F#4
1106,Left,1,59,80,149.75,0.239583,Sixteenth,B3
1109,Left,1,51,80,150.0,0.239583,Sixteenth,D#3
1107,Right,0,78,80,150.0,0.489583,Eighth,F#5_F#4
1110,Left,1,59,80,150.25,0.239583,Sixteenth,B3
1111,Right,0,80,80,150.5,0.489583,Eighth,G#5_G#4
1113,Left,1,53,80,150.5,0.239583,Sixteenth,F3
1114,Left,1,59,80,150.75,0.239583,Sixteenth,B3
1117,Left,1,54,80,151.0,0.239583,Sixteenth,F#3
1115,Right,0,69,80,151.0,0.489583,Eighth,A5_A4
1118,Left,1,59,84,151.25,0.239583,Sixteenth,B3
1120,Right,0,85,89,151.5,0.489583,Eighth,C#6_C#5
1119,Left,1,57,89,151.5,0.239583,Sixteenth,A3
1122,Left,1,59,94,151.75,0.239583,Sixteenth,B3
1125,Left,1,56,99,152.0,0.239583,Sixteenth,G#3
1123,Right,0,83,99,152.0,0.489583,Eighth,B5_B4
1126,Left,1,59,80,152.25,0.239583,Sixteenth,B3
1128,Right,0,87,80,152.5,0.489583,Eighth,D#6_D#5
1127,Left,1,47,80,152.5,0.239583,Sixteenth,F#3_B2
1131,Left,1,57,80,152.75,0.239583,Sixteenth,A3
1133,Left,1,56,80,153.0,0.239583,Sixteenth,G#3_E3
1132,Right,0,88,80,153.0,0.989583,Quarter,E6_E5
1136,Left,1,59,80,153.25,0.239583,Sixteenth,B3
1137,Left,1,56,80,153.5,0.239583,Sixteenth,G#3
1138,Left,1,52,80,153.75,0.239583,Sixteenth,E3
1139,Left,1,51,80,154.0,0.239583,Sixteenth,D#3
1140,Left,1,59,80,154.25,0.239583,Sixteenth,B3
1142,Left,1,54,80,154.5,0.239583,Sixteenth,F#3
1141,Right,0,71,80,154.5,0.489583,Eighth,B4
1143,Left,1,51,80,154.75,0.239583,Sixteenth,D#3
1145,Right,0,70,80,155.0,0.989583,Quarter,A#4
1144,Left,1,49,80,155.0,0.239583,Sixteenth,C#3
1146,Left,1,58,80,155.25,0.239583,Sixteenth,A#3
1147,Left,1,54,80,155.5,0.239583,Sixteenth,F#3
1148,Left,1,49,80,155.75,0.239583,Sixteenth,C#3
1150,Left,1,42,80,156.0,0.239583,Sixteenth,F#2
1149,Right,0,76,80,156.0,0.989583,Quarter,E5
1151,Left,1,58,80,156.25,0.239583,Sixteenth,A#3
1152,Left,1,54,80,156.5,0.239583,Sixteenth,F#3
1153,Left,1,49,80,156.75,0.239583,Sixteenth,C#3
1155,Left,1,47,80,157.0,0.239583,Sixteenth,B2
1154,Right,0,75,80,157.0,1.489583,DottedQuarter,D#5
1156,Left,1,59,80,157.25,0.239583,Sixteenth,B3
1157,Left,1,54,80,157.5,0.239583,Sixteenth,F#3
1158,Left,1,51,80,157.75,0.239583,Sixteenth,D#3
1159,Left,1,47,80,158.0,0.239583,Sixteenth,B2
1160,Left,1,59,80,158.25,0.239583,Sixteenth,B3
1162,Right,0,69,80,158.5,0.489583,Eighth,A4
1161,Left,1,49,80,158.5,0.239583,Sixteenth,C#3
1163,Left,1,57,80,158.75,0.239583,Sixteenth,A3
1165,Right,0,68,80,159.0,0.989583,Quarter,G#4
1164,Left,1,47,80,159.0,0.239583,Sixteenth,B2
1166,Left,1,56,80,159.25,0.239583,Sixteenth,G#3
1167,Left,1,52,80,159.5,0.239583,Sixteenth,E3
1168,Left,1,47,80,159.75,0.239583,Sixteenth,B2
1170,Right,0,74,80,160.0,0.989583,Quarter,D5
1169,Left,1,40,80,160.0,0.239583,Sixteenth,E2
1171,Left,1,56,80,160.25,0.239583,Sixteenth,G#3
1172,Left,1,52,80,160.5,0.239583,Sixteenth,E3
1173,Left,1,47,80,160.75,0.239583,Sixteenth,B2
1175,Left,1,45,80,161.0,0.239583,Sixteenth,A2
1174,Right,0,73,80,161.0,1.489583,DottedQuarter,C#5
1176,Left,1,57,80,161.25,0.239583,Sixteenth,A3
1177,Left,1,52,80,161.5,0.239583,Sixteenth,E3
1178,Left,1,49,80,161.75,0.239583,Sixteenth,C#3
1179,Left,1,45,80,162.0,0.239583,Sixteenth,A2
1180,Left,1,52,80,162.25,0.239583,Sixteenth,E3
1181,Right,0,73,80,162.5,0.489583,Eighth,C#5
1182,Left,1,44,80,162.5,0.239583,Sixteenth,G#2
1183,Left,1,52,81,162.75,0.239583,Sixteenth,E3
1185,Left,1,44,82,163.0,0.239583,Sixteenth,G#2
1184,Right,0,72,82,163.0,0.489583,Eighth,C5
1186,Left,1,52,83,163.25,0.239583,Sixteenth,E3
1187,Right,0,73,84,163.5,0.489583,Eighth,C#5
1188,Left,1,45,84,163.5,0.239583,Sixteenth,A2
1189,Left,1,52,85,163.75,0.239583,Sixteenth,E3
1190,Left,1,45,87,164.0,0.239583,Sixteenth,A2
1191,Right,0,64,87,164.0,0.489583,Eighth,E4_C#4_A4
1194,Left,1,52,88,164.25,0.239583,Sixteenth,E3
1197,Left,1,47,89,164.5,0.239583,Sixteenth,B2
1195,Right,0,59,89,164.5,0.489583,Eighth,G#4_E4_B3
1199,Left,1,52,90,164.75,0.239583,Sixteenth,E3
1203,Left,1,49,91,165.0,0.239583,Sixteenth,C#3
1200,Right,0,68,91,165.0,0.989583,Quarter,G#4_E4_A#3
1204,Left,1,52,92,165.25,0.239583,Sixteenth,E3
1205,Right,0,66,94,165.5,0.989583,Quarter,F#4
1206,Left,1,49,94,165.5,0.239583,Sixteenth,C#3
1207,Left,1,52,95,165.75,0.239583,Sixteenth,E3
1208,Right,0,57,96,166.0,0.989583,Quarter,E4_A3
1210,Left,1,48,96,166.0,0.239583,Sixteenth,C3
1211,Left,1,52,97,166.25,0.239583,Sixteenth,E3
1212,Right,0,66,98,166.5,0.489583,Eighth,F#4
1213,Left,1,48,98,166.5,0.239583,Sixteenth,C3
1214,Left,1,52,90,166.75,0.239583,Sixteenth,E3
1215,Right,0,66,80,167.0,0.489583,Eighth,F#4_D#4_A3
1218,Left,1,47,80,167.0,0.239583,Sixteenth,B2
1219,Left,1,54,80,167.25,0.239583,Sixteenth,F#3
1221,Right,0,71,80,167.5,0.489583,Eighth,D#4_B4
1220,Left,1,47,80,167.5,0.239583,Sixteenth,B2
1223,Left,1,57,80,167.75,0.239583,Sixteenth,F#3_A3
1226,Right,0,70,80,168.0,0.489583,Eighth,A#4
1225,Left,1,47,80,168.0,0.239583,Sixteenth,B2
1227,Left,1,57,80,168.25,0.239583,Sixteenth,F#3_A3
1229,Left,1,47,80,168.5,0.239583,Sixteenth,B2
1230,Right,0,63,80,168.5,0.489583,Eighth,D#4_B4
1232,Left,1,57,80,168.75,0.239583,Sixteenth,F#3_A3
1235,Left,1,56,80,169.0,0.239583,Sixteenth,G#3_E3
1234,Right,0,64,80,169.0,0.989583,Quarter,E4
1237,Left,1,59,80,169.25,0.239583,Sixteenth,B3
1238,Left,1,56,80,169.5,0.239583,Sixteenth,G#3
1239,Left,1,52,80,169.75,0.239583,Sixteenth,E3
1240,Left,1,51,80,170.0,0.239583,Sixteenth,D#3
1241,Left,1,59,80,170.25,0.239583,Sixteenth,B3
1242,Right,0,71,80,170.5,0.489583,Eighth,B5_B4
1244,Left,1,54,80,170.5,0.239583,Sixteenth,F#3
1245,Left,1,51,80,170.75,0.239583,Sixteenth,D#3
1246,Right,0,70,80,171.0,0.989583,Quarter,A#5_A#4
1248,Left,1,49,80,171.0,0.239583,Sixteenth,C#3
1249,Left,1,58,80,171.25,0.239583,Sixteenth,A#3
1250,Left,1,54,80,171.5,0.239583,Sixteenth,F#3
1251,Left,1,49,80,171.75,0.239583,Sixteenth,C#3
1252,Left,1,42,80,172.0,0.239583,Sixteenth,F#2
1253,Right,0,76,80,172.0,0.989583,Quarter,E6_E5
1255,Left,1,58,80,172.25,0.239583,Sixteenth,A#3
1256,Left,1,54,80,172.5,0.239583,Sixteenth,F#3
1257,Left,1,49,80,172.75,0.239583,Sixteenth,C#3
1260,Left,1,47,80,173.0,0.239583,Sixteenth,B2
1258,Right,0,75,80,173.0,1.489583,DottedQuarter,D#6_D#5
1261,Left,1,59,80,173.25,0.239583,Sixteenth,B3
1262,Left,1,54,80,173.5,0.239583,Sixteenth,F#3
1263,Left,1,51,80,173.75,0.239583,Sixteenth,D#3
1264,Left,1,47,80,174.0,0.239583,Sixteenth,B2
1265,Left,1,59,80,174.25,0.239583,Sixteenth,B3
1266,Left,1,49,80,174.5,0.239583,Sixteenth,C#3
1267,Right,0,69,80,174.5,0.489583,Eighth,A5_A4
1269,Left,1,57,80,174.75,0.239583,Sixteenth,A3
1270,Left,1,47,80,175.0,0.239583,Sixteenth,B2
1271,Right,0,68,80,175.0,0.989583,Quarter,G#5_G#4
1273,Left,1,56,80,175.25,0.239583,Sixteenth,G#3
1274,Left,1,52,80,175.5,0.239583,Sixteenth,E3
1275,Left,1,47,80,175.75,0.239583,Sixteenth,B2
1276,Left,1,40,80,176.0,0.239583,Sixteenth,E2
1277,Right,0,74,80,176.0,0.989583,Quarter,D6_D5
1279,Left,1,56,80,176.25,0.239583,Sixteenth,G#3
1280,Left,1,52,80,176.5,0.239583,Sixteenth,E3
1281,Left,1,47,80,176.75,0.239583,Sixteenth,B2
1283,Right,0,73,80,177.0,1.489583,DottedQuarter,C#6_C#5
1282,Left,1,45,80,177.0,0.239583,Sixteenth,A2
1285,Left,1,57,80,177.25,0.239583,Sixteenth,A3
1286,Left,1,52,80,177.5,0.239583,Sixteenth,E3
1287,Left,1,49,80,177.75,0.239583,Sixteenth,C#3
1288,Left,1,45,80,178.0,0.239583,Sixteenth,A2
1289,Left,1,52,80,178.25,0.239583,Sixteenth,E3
1290,Right,0,85,80,178.5,0.489583,Eighth,C#6_C#5
1292,Left,1,44,80,178.5,0.239583,Sixteenth,G#2
1293,Left,1,52,81,178.75,0.239583,Sixteenth,E3
1295,Left,1,44,82,179.0,0.239583,Sixteenth,G#2
1294,Right,0,72,82,179.0,0.489583,Eighth,C6_C5
1297,Left,1,52,83,179.25,0.239583,Sixteenth,E3
1300,Left,1,45,84,179.5,0.239583,Sixteenth,A2
1298,Right,0,85,84,179.5,0.489583,Eighth,C#6_C#5
1301,Left,1,52,85,179.75,0.239583,Sixteenth,E3
1302,Right,0,81,87,180.0,0.489583,Eighth,A5_A4
1304,Left,1,49,87,180.0,0.239583,Sixteenth,C#3_A2
1306,Left,1,52,88,180.25,0.239583,Sixteenth,E3
1309,Left,1,47,89,180.5,0.239583,Sixteenth,E3_B2
1307,Right,0,80,89,180.5,0.489583,Eighth,G#5_G#4
1311,Left,1,56,90,180.75,0.239583,Sixteenth,G#3
1314,Left,1,49,91,181.0,0.239583,Sixteenth,E3_C#3
1312,Right,0,68,91,181.0,0.489583,Eighth,G#5_G#4
1316,Left,1,58,92,181.25,0.239583,Sixteenth,A#3
1317,Left,1,52,94,181.5,0.239583,Sixteenth,E3_C#3
1318,Right,0,66,94,181.5,0.989583,Quarter,F#5_F#4
1321,Left,1,58,95,181.75,0.239583,Sixteenth,A#3
1322,Left,1,48,96,182.0,0.239583,Sixteenth,E3_C3
1324,Left,1,57,97,182.25,0.239583,Sixteenth,A3
1325,Right,0,78,98,182.5,0.489583,Eighth,F#5_F#4
1327,Left,1,48,98,182.5,0.239583,Sixteenth,E3_C3
1329,Left,1,57,92,182.75,0.239583,Sixteenth,A3
1330,Left,1,51,80,183.0,0.239583,Sixteenth,D#3_B2
1332,Right,0,78,80,183.0,0.489583,Eighth,F#5_F#4
1334,Left,1,57,80,183.25,0.239583,Sixteenth,A3
1335,Left,1,47,80,183.5,0.239583,Sixteenth,D#3_B2
1337,Right,0,83,80,183.5,0.489583,Eighth,B5_B4
1339,Left,1,57,80,183.75,0.239583,Sixteenth,A3
1340,Right,0,82,80,184.0,0.489583,Eighth,A#5_A#4
1341,Left,1,51,80,184.0,0.239583,Sixteenth,D#3_B2
1344,Left,1,57,80,184.25,0.239583,Sixteenth,A3
1345,Left,1,51,80,184.5,0.239583,Sixteenth,D#3_B2
1346,Right,0,83,80,184.5,0.489583,Eighth,B5_B4
1349,Left,1,57,80,184.75,0.239583,Sixteenth,A3
1351,Right,0,64,80,185.0,0.989583,Quarter,E5_E4
1350,Left,1,52,80,185.0,0.239583,Sixteenth,G#3_E3
1354,Left,1,52,80,185.25,0.239583,Sixteenth,E3
1355,Left,1,51,80,185.5,0.239583,Sixteenth,D#3
1356,Left,1,49,80,185.75,0.239583,Sixteenth,C#3
1357,Left,1,47,80,186.0,0.239583,Sixteenth,B2
1358,Left,1,45,80,186.25,0.239583,Sixteenth,A2
1360,Left,1,44,80,186.5,0.239583,Sixteenth,G#2
1359,Right,0,64,80,186.5,0.239583,Sixteenth,E4
1361,Right,0,66,80,186.75,0.239583,Sixteenth,F#4
1362,Left,1,42,80,186.75,0.239583,Sixteenth,F#2
1364,Right,0,64,80,187.0,0.989583,Sixteenth,G#4_E4
1363,Left,1,40,80,187.0,0.489583,Eighth,E2
1366,Right,0,59,80,187.25,0.239583,Sixteenth,B3
1367,Right,0,64,80,187.5,0.239583,Sixteenth,E4
1368,Right,0,59,80,187.75,0.239583,Sixteenth,B3
1369,Right,0,71,80,188.0,0.489583,Eighth,G#4_B4
1371,Right,0,59,80,188.25,0.239583,Sixteenth,B3
1372,Right,0,69,80,188.5,0.489583,Eighth,F#4_A4
1374,Right,0,59,80,188.75,0.239583,Sixteenth,B3
1375,Right,0,68,80,189.0,0.489583,Eighth,G#4_E4
1377,Left,1,35,80,189.0,0.489583,Eighth,B1
1378,Right,0,59,80,189.25,0.239583,Sixteenth,B3
1379,Right,0,66,80,189.5,0.489583,Eighth,F#4_D#4
1381,Right,0,59,80,189.75,0.239583,Sixteenth,B3
1382,Right,0,66,80,190.0,0.489583,Eighth,F#4_D#4
1384,Right,0,59,80,190.25,0.239583,Sixteenth,B3
1385,Right,0,68,80,190.5,0.489583,Eighth,G#4_E4
1387,Right,0,59,80,190.75,0.239583,Sixteenth,B3
1389,Right,0,69,80,191.0,0.489583,Eighth,E4_A4
1388,Left,1,37,80,191.0,0.489583,Eighth,C#2
1391,Right,0,59,80,191.25,0.239583,Sixteenth,B3
1392,Right,0,73,80,191.5,0.489583,Eighth,E4_C#5
1394,Right,0,59,80,191.75,0.239583,Sixteenth,B3
1397,Left,1,39,80,192.0,0.489583,Eighth,D#2
1395,Right,0,71,80,192.0,0.489583,Eighth,F#4_B4
1398,Right,0,59,80,192.25,0.239583,Sixteenth,B3
1400,Left,1,35,80,192.5,0.489583,Eighth,B1
1399,Right,0,63,80,192.5,0.489583,Sixteenth,F#4_D#4
1402,Right,0,59,80,192.75,0.239583,Sixteenth,B3
1403,Left,1,40,80,193.0,0.489583,Eighth,E2
1404,Right,0,68,80,193.0,0.989583,Quarter,G#4_E4_B3
1407,Left,1,64,80,193.5,0.239583,Sixteenth,E4
1408,Left,1,59,80,193.75,0.239583,Sixteenth,B3
1410,Right,0,78,80,194.0,0.072917,TripletThirtySecond,F#5
1409,Left,1,64,80,194.0,0.239583,Sixteenth,E4
1411,Right,0,76,80,194.083333,0.15625,TripletSixteenth,E5
1413,Left,1,59,81,194.25,0.239583,Sixteenth,B3
1412,Right,0,75,81,194.25,0.239583,Sixteenth,D#5
1415,Left,1,64,82,194.5,0.239583,Sixteenth,E4
1414,Right,0,76,82,194.5,0.239583,Sixteenth,E5
1417,Right,0,78,83,194.75,0.239583,Sixteenth,F#5
1416,Left,1,59,83,194.75,0.239583,Sixteenth,B3
1418,Left,1,64,84,195.0,0.239583,Sixteenth,E4
1419,Right,0,81,84,195.0,0.072917,TripletThirtySecond,A5
1420,Right,0,80,84,195.083333,0.15625,TripletSixteenth,G#5
1422,Right,0,78,85,195.25,0.239583,Sixteenth,F#5
1421,Left,1,59,85,195.25,0.239583,Sixteenth,B3
1424,Right,0,80,86,195.5,0.239583,Sixteenth,G#5
1423,Left,1,64,86,195.5,0.239583,Sixteenth,E4
1426,Left,1,59,87,195.75,0.239583,Sixteenth,B3
1425,Right,0,81,87,195.75,0.239583,Sixteenth,A5
1428,Left,1,68,88,196.0,0.239583,Sixteenth,G#4
1427,Right,0,71,88,196.0,0.489583,Eighth,B5_B4
1430,Left,1,59,89,196.25,0.239583,Sixteenth,B3
1433,Left,1,66,91,196.5,0.239583,Sixteenth,F#4
1431,Right,0,81,91,196.5,0.489583,Eighth,A5_A4
1434,Left,1,59,92,196.75,0.239583,Sixteenth,B3
1435,Right,0,68,93,197.0,0.489583,Eighth,G#5_G#4
1436,Left,1,64,93,197.0,0.239583,Sixteenth,E4
1438,Left,1,59,94,197.25,0.239583,Sixteenth,B3
1440,Right,0,66,95,197.5,0.489583,Eighth,F#5_F#4
1439,Left,1,63,95,197.5,0.239583,Sixteenth,D#4
1442,Left,1,59,96,197.75,0.239583,Sixteenth,B3
1444,Right,0,78,97,198.0,0.489583,Eighth,F#5_F#4
1443,Left,1,63,97,198.0,0.239583,Sixteenth,D#4
1446,Left,1,59,98,198.25,0.239583,Sixteenth,B3
1447,Right,0,68,99,198.5,0.489583,Eighth,G#5_G#4
1448,Left,1,65,99,198.5,0.239583,Sixteenth,F4
1450,Left,1,59,101,198.75,0.239583,Sixteenth,B3
1451,Right,0,81,102,199.0,0.489583,Eighth,A5_A4
1453,Left,1,66,102,199.0,0.239583,Sixteenth,F#4
1454,Left,1,59,103,199.25,0.239583,Sixteenth,B3
1457,Left,1,69,104,199.5,0.239583,Sixteenth,A4
1455,Right,0,85,104,199.5,0.489583,Eighth,C#6_C#5
1458,Left,1,59,105,199.75,0.239583,Sixteenth,B3
1460,Right,0,71,106,200.0,0.489583,Eighth,B5_B4
1459,Left,1,68,106,200.0,0.239583,Sixteenth,G#4
1462,Left,1,59,107,200.25,0.239583,Sixteenth,B3
1464,Right,0,87,108,200.5,0.489583,Eighth,D#6_D#5_A5
1463,Left,1,66,108,200.5,0.239583,Sixteenth,F#4
1467,Left,1,59,109,200.75,0.239583,Sixteenth,B3
1468,Right,0,88,110,201.0,0.989583,Quarter,G#5_E6_E5
1471,Left,1,64,110,201.0,0.239583,Sixteenth,E4
1472,Left,1,59,110,201.25,0.239583,Sixteenth,B3
1473,Left,1,56,110,201.5,0.239583,Sixteenth,G#3
1474,Left,1,59,110,201.75,0.239583,Sixteenth,B3
1475,Left,1,52,100,202.0,0.239583,Sixteenth,E3
1476,Left,1,59,90,202.25,0.239583,Sixteenth,B3
1477,Left,1,47,80,202.5,0.239583,Sixteenth,B2
1478,Right,0,68,80,202.5,0.489583,Eighth,G#4_E4
1480,Left,1,59,80,202.75,0.239583,Sixteenth,B3
1481,Left,1,54,80,203.0,0.239583,Sixteenth,F#3
1482,Right,0,63,80,203.0,0.989583,Quarter,D#4_A4
1484,Left,1,59,80,203.25,0.239583,Sixteenth,B3
1485,Right,0,73,80,203.5,0.489583,Eighth,C#5
1486,Left,1,57,80,203.5,0.239583,Sixteenth,A3
1487,Left,1,59,80,203.75,0.239583,Sixteenth,B3
1489,Right,0,64,80,204.0,0.489583,Eighth,E4_B4
1488,Left,1,56,80,204.0,0.239583,Sixteenth,G#3
1491,Left,1,59,80,204.25,0.239583,Sixteenth,B3
1493,Right,0,69,80,204.5,0.489583,Eighth,D#5_A4
1492,Left,1,54,80,204.5,0.239583,Sixteenth,F#3
1495,Left,1,59,80,204.75,0.239583,Sixteenth,B3
1496,Right,0,68,80,205.0,1.489583,Eighth,G#4_E5
1498,Left,1,52,80,205.0,0.239583,Sixteenth,E3
1499,Left,1,59,80,205.25,0.239583,Sixteenth,B3
1501,Left,1,64,80,205.5,0.239583,Sixteenth,E4
1500,Right,0,67,80,205.5,0.989583,Quarter,G4
1502,Left,1,59,80,205.75,0.239583,Sixteenth,B3
1503,Left,1,64,80,206.0,0.239583,Sixteenth,E4
1504,Left,1,59,80,206.25,0.239583,Sixteenth,B3
1505,Left,1,64,80,206.5,0.239583,Sixteenth,E4
1506,Right,0,79,80,206.5,0.489583,Eighth,G5
1507,Left,1,59,80,206.75,0.239583,Sixteenth,B3
1508,Left,1,66,80,207.0,0.239583,Sixteenth,F#4
1509,Right,0,81,80,207.0,0.489583,Eighth,A5
1510,Left,1,59,84,207.25,0.239583,Sixteenth,B3
1511,Left,1,69,88,207.5,0.239583,Sixteenth,A4
1512,Right,0,84,88,207.5,0.489583,Eighth,C6
1513,Left,1,59,92,207.75,0.239583,Sixteenth,B3
1515,Right,0,83,97,208.0,0.489583,Eighth,B5
1514,Left,1,67,97,208.0,0.239583,Sixteenth,G4
1516,Left,1,59,101,208.25,0.239583,Sixteenth,B3
1518,Right,0,81,105,208.5,0.489583,Eighth,D#6_D#5_A5
1517,Left,1,66,105,208.5,0.239583,Sixteenth,F#4
1521,Left,1,59,109,208.75,0.239583,Sixteenth,B3
1522,Left,1,64,110,209.0,0.239583,Sixteenth,E4
1523,Right,0,88,110,209.0,0.989583,Quarter,G5_E6_E5
1526,Left,1,59,110,209.25,0.239583,Sixteenth,B3
1527,Left,1,55,110,209.5,0.239583,Sixteenth,G3
1528,Left,1,59,110,209.75,0.239583,Sixteenth,B3
1529,Left,1,52,100,210.0,0.239583,Sixteenth,E3
1530,Left,1,59,90,210.25,0.239583,Sixteenth,B3
1532,Left,1,47,80,210.5,0.239583,Sixteenth,B2
1531,Right,0,67,80,210.5,0.489583,Eighth,G4
1533,Left,1,59,80,210.75,0.239583,Sixteenth,B3
1535,Left,1,54,80,211.0,0.239583,Sixteenth,F#3
1534,Right,0,69,80,211.0,0.489583,Eighth,A4
1536,Left,1,59,80,211.25,0.239583,Sixteenth,B3
1538,Left,1,57,81,211.5,0.239583,Sixteenth,A3
1537,Right,0,72,81,211.5,0.489583,Eighth,C5
1539,Left,1,59,82,211.75,0.239583,Sixteenth,B3
1540,Left,1,55,83,212.0,0.239583,Sixteenth,G3
1541,Right,0,71,83,212.0,0.489583,Eighth,B4
1542,Left,1,59,84,212.25,0.239583,Sixteenth,B3
1543,Left,1,54,85,212.5,0.239583,Sixteenth,F#3
1544,Right,0,69,85,212.5,0.489583,Eighth,D#5_A4
1546,Left,1,59,86,212.75,0.239583,Sixteenth,B3
1548,Right,0,67,87,213.0,0.489583,Eighth,G4_E5
1547,Left,1,52,87,213.0,0.239583,Sixteenth,E3
1550,Left,1,64,88,213.25,0.239583,Sixteenth,E4
1551,Right,0,76,89,213.5,0.489583,Eighth,G5_E5
1553,Left,1,50,89,213.5,0.239583,Sixteenth,D3
1554,Left,1,62,90,213.75,0.239583,Sixteenth,D4
1555,Right,0,76,91,214.0,0.489583,Eighth,E5_C6
1557,Left,1,48,91,214.0,0.239583,Sixteenth,C3
1558,Left,1,60,92,214.25,0.239583,Sixteenth,C4
1559,Right,0,76,93,214.5,0.489583,Eighth,E5_C6
1561,Left,1,47,93,214.5,0.239583,Sixteenth,B2
1562,Left,1,59,94,214.75,0.239583,Sixteenth,B3
1563,Left,1,45,95,215.0,0.239583,Sixteenth,A2
1564,Right,0,84,95,215.0,0.489583,Eighth,E5_C6
1566,Left,1,57,96,215.25,0.239583,Sixteenth,A3
1567,Left,1,43,97,215.5,0.239583,Sixteenth,G2
1568,Right,0,84,97,215.5,0.489583,Eighth,C6_A5
1570,Left,1,55,98,215.75,0.239583,Sixteenth,G3
1572,Right,0,86,99,216.0,0.489583,Eighth,F6_D6
1571,Left,1,41,99,216.0,0.239583,Sixteenth,F2
1574,Left,1,53,100,216.25,0.239583,Sixteenth,F3
1575,Right,0,86,101,216.5,0.489583,Eighth,F6_D6
1577,Left,1,40,101,216.5,0.239583,Sixteenth,E2
1578,Left,1,52,102,216.75,0.239583,Sixteenth,E3
1580,Right,0,89,103,217.0,0.489583,Eighth,F6_D6
1579,Left,1,38,103,217.0,0.239583,Sixteenth,D2
1582,Left,1,50,104,217.25,0.239583,Sixteenth,D3
1583,Right,0,86,105,217.5,0.489583,Eighth,F6_D6
1584,Left,1,36,105,217.5,0.239583,Sixteenth,C2
1586,Left,1,48,106,217.75,0.239583,Sixteenth,C3
1588,Right,0,89,107,218.0,0.489583,Eighth,F6_D6
1587,Left,1,35,107,218.0,0.239583,Sixteenth,B1
1590,Left,1,47,108,218.25,0.239583,Sixteenth,B2
1592,Right,0,89,108,218.5,0.489583,Eighth,F6_D6
1591,Left,1,33,108,218.5,0.239583,Sixteenth,A1
1594,Left,1,45,109,218.75,0.239583,Sixteenth,A2
1595,Left,1,31,80,219.0,0.239583,Sixteenth,G1
1596,Right,0,89,80,219.0,4.489583,Whole,F6_D6
1598,Left,1,43,80,219.25,0.239583,Sixteenth,G2
1599,Left,1,35,80,219.5,0.239583,Sixteenth,B1
1600,Left,1,47,80,219.75,0.239583,Sixteenth,B2
1601,Left,1,38,80,220.0,0.239583,Sixteenth,D2
1602,Left,1,50,80,220.25,0.239583,Sixteenth,D3
1603,Left,1,42,80,220.5,0.239583,Sixteenth,F#2
1604,Left,1,54,80,220.75,0.239583,Sixteenth,F#3
1605,Left,1,43,80,221.0,0.239583,Sixteenth,G2
1606,Left,1,55,80,221.25,0.239583,Sixteenth,G3
1607,Left,1,47,80,221.5,0.239583,Sixteenth,B2
1608,Left,1,59,80,221.75,0.239583,Sixteenth,B3
1609,Left,1,50,80,222.0,0.239583,Sixteenth,D3
1610,Left,1,62,80,222.25,0.239583,Sixteenth,D4
1611,Left,1,54,80,222.5,0.239583,Sixteenth,F#3
1612,Left,1,66,80,222.75,0.239583,Sixteenth,F#4
1613,Left,1,55,80,223.0,0.239583,Sixteenth,G3
1614,Left,1,67,80,223.25,0.239583,Sixteenth,G4
1615,Right,0,86,80,223.5,0.989583,Quarter,F6_D6
1616,Left,1,57,80,223.5,0.239583,Sixteenth,A3
1618,Left,1,69,80,223.75,0.239583,Sixteenth,A4
1619,Left,1,59,80,224.0,0.239583,Sixteenth,B3
1620,Left,1,71,80,224.25,0.239583,Sixteenth,B4
1621,Right,0,88,80,224.5,0.489583,Eighth,E6_C6
1623,Left,1,60,80,224.5,0.239583,Sixteenth,C4
1624,Left,1,72,80,224.75,0.239583,Sixteenth,C5
1625,Left,1,65,80,225.0,0.239583,Sixteenth,F4
1626,Right,0,86,80,225.0,0.489583,Eighth,D6
1627,Left,1,72,80,225.25,0.239583,Sixteenth,C5
1628,Right,0,81,80,225.5,0.489583,Eighth,D5_A5
1630,Left,1,66,80,225.5,0.239583,Sixteenth,F#4
1631,Left,1,72,80,225.75,0.239583,Sixteenth,C5
1633,Left,1,67,80,226.0,0.239583,Sixteenth,G4
1632,Right,0,79,80,226.0,0.489583,Eighth,G5_E5
1635,Left,1,72,80,226.25,0.239583,Sixteenth,C5
1637,Right,0,79,80,226.5,0.239583,Sixteenth,G5_D5_B4
1636,Left,1,55,80,226.5,0.489583,Eighth,G3
1640,Right,0,67,80,226.75,0.239583,Sixteenth,G4
1642,Right,0,79,80,227.0,1.989583,Half,G5_G4_E5
1641,Left,1,48,80,227.0,0.322917,Triplet,C3
1645,Left,1,55,80,227.333333,0.322917,Triplet,G3
1646,Left,1,52,80,227.666667,0.322917,Triplet,E3
1647,Left,1,48,80,228.0,0.322917,Triplet,C3
1648,Left,1,60,80,228.333333,0.322917,Triplet,C4
1649,Left,1,55,80,228.666667,0.322917,Triplet,G3
1650,Right,0,77,80,229.0,0.989583,Quarter,F5_F4_D5
1653,Left,1,50,80,229.0,0.322917,Triplet,D3
1654,Left,1,59,80,229.333333,0.322917,Triplet,B3
1655,Left,1,55,80,229.666667,0.322917,Triplet,G3
1656,Right,0,76,80,230.0,0.989583,Quarter,G4_E5_C5
1657,Left,1,52,80,230.0,0.322917,Triplet,E3
1660,Left,1,60,80,230.333333,0.322917,Triplet,C4
1661,Left,1,55,80,230.666667,0.322917,Triplet,G3
1663,Right,0,74,80,231.0,0.989583,Quarter,D5_A4
1662,Left,1,53,80,231.0,0.322917,Triplet,F3
1665,Left,1,62,80,231.333333,0.322917,Triplet,D4
1666,Left,1,57,80,231.666667,0.322917,Triplet,A3
1667,Left,1,54,80,232.0,0.322917,Triplet,F#3
1668,Right,0,72,80,232.0,1.989583,Half,C5_A4
1670,Left,1,63,80,232.333333,0.322917,Triplet,D#4
1671,Left,1,60,80,232.666667,0.322917,Triplet,C4
1672,Right,0,67,80,233.0,0.989583,Quarter,G4
1673,Left,1,55,80,233.0,0.322917,Triplet,G3
1674,Left,1,64,80,233.333333,0.322917,Triplet,E4
1675,Left,1,60,80,233.666667,0.322917,Triplet,C4
1676,Left,1,55,80,234.0,0.322917,Triplet,G3
1677,Right,0,71,80,234.0,0.989583,Eighth,G4_B4
1679,Left,1,65,80,234.333333,0.322917,Triplet,F4
1680,Right,0,79,80,234.5,0.489583,Eighth,G5
1681,Left,1,62,80,234.666667,0.322917,Triplet,D4_B3
1684,Left,1,48,80,235.0,0.239583,Sixteenth,C4_C3
1683,Right,0,79,80,235.0,1.989583,Half,G5_G4_D#5
1688,Left,1,55,80,235.25,0.239583,Sixteenth,G3
1689,Left,1,51,80,235.5,0.239583,Sixteenth,D#3
1690,Left,1,55,80,235.75,0.239583,Sixteenth,G3
1691,Left,1,48,80,236.0,0.239583,Sixteenth,C3
1692,Left,1,60,80,236.25,0.239583,Sixteenth,C4
1693,Left,1,55,80,236.5,0.239583,Sixteenth,G3
1694,Left,1,48,80,236.75,0.239583,Sixteenth,C3
1698,Left,1,50,80,237.0,0.239583,Sixteenth,D3
1695,Right,0,74,80,237.0,0.989583,Quarter,F5_F4_D5
1699,Left,1,59,80,237.25,0.239583,Sixteenth,B3
1700,Left,1,55,80,237.5,0.239583,Sixteenth,G3
1701,Left,1,50,80,237.75,0.239583,Sixteenth,D3
1706,Left,1,51,80,238.0,0.239583,Sixteenth,D#3
1702,Right,0,67,80,238.0,0.989583,Quarter,G4_D#5_D#4_C5
1707,Left,1,60,80,238.25,0.239583,Sixteenth,C4
1708,Left,1,55,80,238.5,0.239583,Sixteenth,G3
1709,Left,1,51,80,238.75,0.239583,Sixteenth,D#3
1711,Right,0,68,80,239.0,0.989583,Quarter,G#4_D5
1710,Left,1,53,80,239.0,0.239583,Sixteenth,F3
1713,Left,1,62,80,239.25,0.239583,Sixteenth,D4
1714,Left,1,56,80,239.5,0.239583,Sixteenth,G#3
1715,Left,1,53,80,239.75,0.239583,Sixteenth,F3
1716,Left,1,54,80,240.0,0.239583,Sixteenth,F#3
1717,Right,0,72,80,240.0,1.989583,Half,C5_A4
1719,Left,1,63,80,240.25,0.239583,Sixteenth,D#4
1720,Left,1,60,80,240.5,0.239583,Sixteenth,C4
1721,Left,1,54,80,240.75,0.239583,Sixteenth,F#3
1722,Right,0,67,80,241.0,0.989583,Quarter,G4
1723,Left,1,55,80,241.0,0.239583,Sixteenth,G3
1724,Left,1,63,80,241.25,0.239583,Sixteenth,D#4
1725,Left,1,60,80,241.5,0.239583,Sixteenth,C4
1726,Left,1,55,80,241.75,0.239583,Sixteenth,G3
1727,Right,0,66,80,242.0,0.489583,Eighth,F#4_C5
1729,Left,1,56,80,242.0,0.239583,Sixteenth,G#3
1730,Left,1,63,80,242.25,0.239583,Sixteenth,D#4
1731,Right,0,80,80,242.5,0.489583,Eighth,G#5
1732,Left,1,60,80,242.5,0.239583,Sixteenth,C4
1733,Left,1,63,80,242.75,0.239583,Sixteenth,D#4
1737,Left,1,49,80,243.0,0.322917,Triplet,C#4_C#3
1734,Right,0,80,80,243.0,1.989583,Half,G#5_G#4_E5
1739,Left,1,56,80,243.333333,0.322917,Triplet,G#3
1740,Left,1,52,80,243.666667,0.322917,Triplet,E3
1741,Left,1,49,80,244.0,0.322917,Triplet,C#3
1742,Left,1,61,80,244.333333,0.322917,Triplet,C#4
1743,Left,1,56,80,244.666667,0.322917,Triplet,G#3
1744,Left,1,51,80,245.0,0.322917,Triplet,D#3
1745,Right,0,78,80,245.0,0.989583,Quarter,F#5_F#4_D#5
1748,Left,1,60,80,245.333333,0.322917,Triplet,C4
1749,Left,1,56,80,245.666667,0.322917,Triplet,G#3
1753,Left,1,52,80,246.0,0.322917,Triplet,E3
1750,Right,0,76,80,246.0,0.989583,Quarter,G#4_E5_C#5
1754,Left,1,61,80,246.333333,0.322917,Triplet,C#4
1755,Left,1,56,80,246.666667,0.322917,Triplet,G#3
1757,Right,0,69,80,247.0,0.989583,Quarter,D#5_A4
1756,Left,1,54,80,247.0,0.322917,Triplet,F#3
1759,Left,1,63,80,247.333333,0.322917,Triplet,D#4
1760,Left,1,57,80,247.666667,0.322917,Triplet,A3
1761,Right,0,70,80,248.0,1.989583,Quarter,C#5_A#4
1763,Left,1,55,80,248.0,0.322917,Triplet,G3
1764,Left,1,64,80,248.333333,0.322917,Triplet,E4
1765,Left,1,61,80,248.666667,0.322917,Triplet,C#4
1766,Left,1,56,80,249.0,0.322917,Triplet,G#3
1767,Right,0,68,80,249.0,0.989583,Quarter,G#4
1768,Left,1,64,80,249.333333,0.322917,Triplet,E4
1769,Left,1,61,80,249.666667,0.322917,Triplet,C#4
1770,Right,0,72,80,250.0,0.989583,Eighth,G#4_C5
1772,Left,1,56,80,250.0,0.239583,Sixteenth,G#3
1773,Left,1,63,80,250.25,0.239583,Sixteenth,D#4
1775,Left,1,60,80,250.5,0.239583,Sixteenth,C4
1774,Right,0,80,80,250.5,0.489583,Eighth,G#5
1776,Left,1,63,80,250.75,0.239583,Sixteenth,D#4
1777,Right,0,68,80,251.0,1.989583,Half,G#5_G#4_F5
1779,Left,1,61,80,251.0,0.239583,Sixteenth,C#4_C#3
1782,Left,1,56,80,251.25,0.239583,Sixteenth,G#3
1783,Left,1,53,81,251.5,0.239583,Sixteenth,F3
1784,Left,1,56,82,251.75,0.239583,Sixteenth,G#3
1785,Left,1,49,83,252.0,0.239583,Sixteenth,C#3
1786,Left,1,61,84,252.25,0.239583,Sixteenth,C#4
1787,Left,1,56,85,252.5,0.239583,Sixteenth,G#3
1788,Left,1,49,86,252.75,0.239583,Sixteenth,C#3
1790,Right,0,66,87,253.0,0.989583,Quarter,F#5_F#4_D#5
1789,Left,1,51,87,253.0,0.239583,Sixteenth,D#3
1793,Left,1,60,88,253.25,0.239583,Sixteenth,C4
1794,Left,1,56,89,253.5,0.239583,Sixteenth,G#3
1795,Left,1,51,90,253.75,0.239583,Sixteenth,D#3
1800,Left,1,53,91,254.0,0.239583,Sixteenth,F3
1796,Right,0,77,91,254.0,0.989583,Quarter,G#4_F5_F4_C#5
1801,Left,1,61,92,254.25,0.239583,Sixteenth,C#4
1802,Left,1,56,93,254.5,0.239583,Sixteenth,G#3
1803,Left,1,53,94,254.75,0.239583,Sixteenth,F3
1806,Left,1,54,95,255.0,0.239583,Sixteenth,F#3
1804,Right,0,75,95,255.0,0.989583,Quarter,D#5_A4
1807,Left,1,61,96,255.25,0.239583,Sixteenth,C#4
1808,Left,1,57,97,255.5,0.239583,Sixteenth,A3
1809,Left,1,54,98,255.75,0.239583,Sixteenth,F#3
1811,Right,0,73,99,256.0,1.989583,Quarter,C#5_A4
1810,Left,1,54,99,256.0,0.239583,Sixteenth,F#3
1813,Left,1,61,100,256.25,0.239583,Sixteenth,C#4
1814,Left,1,57,101,256.5,0.239583,Sixteenth,A3
1815,Left,1,54,102,256.75,0.239583,Sixteenth,F#3
1817,Right,0,72,103,257.0,0.989583,Quarter,C5
1816,Left,1,54,103,257.0,0.239583,Sixteenth,F#3
1818,Left,1,61,104,257.25,0.239583,Sixteenth,C#4
1819,Left,1,57,105,257.5,0.239583,Sixteenth,A3
1820,Left,1,54,106,257.75,0.239583,Sixteenth,F#3
1822,Right,0,73,107,258.0,0.489583,Eighth,C#5_A4
1821,Left,1,52,107,258.0,0.239583,Sixteenth,E3
1824,Left,1,61,108,258.25,0.239583,Sixteenth,C#4
1826,Right,0,78,108,258.5,0.489583,Eighth,F#5_A5
1825,Left,1,57,108,258.5,0.239583,Sixteenth,A3
1828,Left,1,52,109,258.75,0.239583,Sixteenth,E3
1830,Right,0,69,110,259.0,3.989583,Whole,F#5_A5_A4
1829,Left,1,59,110,259.0,0.489583,Eighth,D#3_B3
1834,Left,1,57,110,259.5,0.239583,Sixteenth,A3
1835,Left,1,60,110,259.75,0.239583,Sixteenth,C4
1836,Left,1,59,110,260.0,0.239583,Sixteenth,B3
1837,Left,1,58,110,260.25,0.239583,Sixteenth,A#3
1838,Left,1,59,110,260.5,0.239583,Sixteenth,B3
1839,Left,1,54,110,260.75,0.239583,Sixteenth,F#3
1840,Left,1,51,110,261.0,0.239583,Sixteenth,D#3
1841,Left,1,49,110,261.25,0.239583,Sixteenth,C#3
1842,Left,1,51,110,261.5,0.239583,Sixteenth,D#3
1843,Left,1,47,110,261.75,0.239583,Sixteenth,B2
1844,Left,1,51,110,262.0,0.489583,Eighth,D#3
1845,Left,1,54,110,262.5,0.489583,Eighth,F#3
1846,Right,0,78,110,263.0,3.989583,Whole,F#5_D#6_D#5_A5
1850,Left,1,57,110,263.5,0.239583,Sixteenth,A3
1851,Left,1,60,110,263.75,0.239583,Sixteenth,C4
1852,Left,1,59,110,264.0,0.239583,Sixteenth,B3
1853,Left,1,58,110,264.25,0.239583,Sixteenth,A#3
1854,Left,1,59,110,264.5,0.239583,Sixteenth,B3
1855,Left,1,54,110,264.75,0.239583,Sixteenth,F#3
1856,Left,1,51,110,265.0,0.239583,Sixteenth,D#3
1857,Left,1,49,110,265.25,0.239583,Sixteenth,C#3
1858,Left,1,51,110,265.5,0.239583,Sixteenth,D#3
1859,Left,1,47,110,265.75,0.239583,Sixteenth,B2
1860,Left,1,51,110,266.0,0.489583,Eighth,D#3
1861,Left,1,54,110,266.5,0.489583,Eighth,F#3
1862,Right,0,81,110,267.0,3.989583,Whole,F#6_F#5_D#6_A5
1866,Left,1,57,110,267.5,0.239583,Sixteenth,A3
1867,Left,1,60,110,267.75,0.239583,Sixteenth,C4
1868,Left,1,59,110,268.0,0.239583,Sixteenth,B3
1869,Left,1,58,110,268.25,0.239583,Sixteenth,A#3
1870,Left,1,59,110,268.5,0.239583,Sixteenth,B3
1871,Left,1,54,110,268.75,0.239583,Sixteenth,F#3
1872,Left,1,51,110,269.0,0.239583,Sixteenth,D#3
1873,Left,1,49,110,269.25,0.239583,Sixteenth,C#3
1874,Left,1,51,110,269.5,0.239583,Sixteenth,D#3
1875,Left,1,47,110,269.75,0.239583,Sixteenth,B2
1876,Left,1,51,110,270.0,0.239583,Sixteenth,D#3
1877,Left,1,49,110,270.25,0.239583,Sixteenth,C#3
1878,Left,1,51,110,270.5,0.239583,Sixteenth,D#3
1879,Left,1,54,110,270.75,0.239583,Sixteenth,F#3
1880,Left,1,57,110,271.0,0.489583,Eighth,A3
1881,Right,0,78,110,271.0,0.489583,Eighth,F#5
1882,Left,1,51,80,271.5,0.489583,Eighth,D#3
1883,Right,0,69,80,271.5,0.239583,Sixteenth,A4
1884,Right,0,72,80,271.75,0.239583,Sixteenth,C5
1886,Left,1,54,80,272.0,0.489583,Eighth,F#3
1885,Right,0,71,80,272.0,0.239583,Sixteenth,B4
1887,Right,0,70,80,272.25,0.239583,Sixteenth,A#4
1889,Left,1,59,80,272.5,0.489583,Eighth,B3
1888,Right,0,71,80,272.5,0.239583,Sixteenth,B4
1890,Right,0,68,80,272.75,0.239583,Sixteenth,G#4
1891,Right,0,78,100,273.0,0.489583,Eighth,F#5
1892,Left,1,57,80,273.0,0.489583,Eighth,A3
1894,Right,0,69,80,273.5,0.239583,Sixteenth,A4
1893,Left,1,51,80,273.5,0.489583,Eighth,D#3
1895,Right,0,72,80,273.75,0.239583,Sixteenth,C5
1897,Right,0,71,80,274.0,0.239583,Sixteenth,B4
1896,Left,1,54,80,274.0,0.489583,Eighth,F#3
1898,Right,0,70,80,274.25,0.239583,Sixteenth,A#4
1900,Right,0,71,80,274.5,0.239583,Sixteenth,B4
1899,Left,1,59,80,274.5,0.489583,Eighth,B3
1901,Right,0,68,80,274.75,0.239583,Sixteenth,G#4
1902,Left,1,57,80,275.0,0.489583,Eighth,A3
1903,Right,0,78,100,275.0,0.489583,Eighth,F#5
1904,Right,0,69,80,275.5,0.239583,Sixteenth,A4
1905,Left,1,51,80,275.5,0.489583,Eighth,D#3
1906,Right,0,72,80,275.75,0.239583,Sixteenth,C5
1908,Left,1,54,80,276.0,0.489583,Eighth,F#3
1907,Right,0,71,80,276.0,0.239583,Sixteenth,B4
1909,Right,0,70,80,276.25,0.239583,Sixteenth,A#4
1910,Right,0,71,80,276.5,0.239583,Sixteenth,B4
1911,Left,1,59,80,276.5,0.739583,DottedEighth,B3
1912,Right,0,69,80,276.75,0.239583,Sixteenth,A4
1913,Right,0,68,80,277.0,0.239583,Sixteenth,G#4
1915,Left,1,57,80,277.25,0.239583,Sixteenth,A3
1914,Right,0,66,80,277.25,0.239583,Sixteenth,F#4
1916,Left,1,59,80,277.5,0.239583,Sixteenth,B3
1917,Right,0,68,80,277.5,0.239583,Sixteenth,G#4
1918,Left,1,57,80,277.75,0.239583,Sixteenth,A3
1919,Right,0,66,80,277.75,0.239583,Sixteenth,F#4
1920,Right,0,64,80,278.0,0.239583,Sixteenth,E4
1921,Left,1,56,80,278.0,0.239583,Sixteenth,G#3
1922,Left,1,57,80,278.25,0.239583,Sixteenth,A3
1923,Right,0,63,80,278.25,0.239583,Sixteenth,D#4
1925,Right,0,64,80,278.5,0.239583,Sixteenth,E4
1924,Left,1,56,80,278.5,0.239583,Sixteenth,G#3
1926,Left,1,54,80,278.75,0.239583,Sixteenth,F#3
1927,Right,0,66,80,278.75,0.239583,Sixteenth,F#4
1928,Left,1,52,80,279.0,0.489583,Eighth,E3_E2
1930,Right,0,64,80,279.0,0.989583,Sixteenth,G#4_E4
1932,Right,0,59,80,279.25,0.239583,Sixteenth,B3
1933,Right,0,64,80,279.5,0.239583,Sixteenth,E4
1934,Right,0,59,80,279.75,0.239583,Sixteenth,B3
1935,Right,0,68,80,280.0,0.489583,Sixteenth,G#4_B4
1937,Right,0,59,80,280.25,0.239583,Sixteenth,B3
1938,Right,0,66,80,280.5,0.489583,Sixteenth,F#4_A4
1940,Right,0,59,80,280.75,0.239583,Sixteenth,B3
1941,Right,0,64,80,281.0,0.489583,Sixteenth,G#4_E4
1943,Left,1,35,80,281.0,0.489583,Eighth,B2_B1
1945,Right,0,59,80,281.25,0.239583,Sixteenth,B3
1946,Right,0,66,80,281.5,0.489583,Eighth,F#4_D#4
1948,Right,0,59,80,281.75,0.239583,Sixteenth,B3
1949,Right,0,66,80,282.0,0.489583,Eighth,F#4_D#4
1951,Right,0,59,80,282.25,0.239583,Sixteenth,B3
1952,Right,0,64,80,282.5,0.489583,Sixteenth,G#4_E4
1954,Right,0,59,80,282.75,0.239583,Sixteenth,B3
1955,Right,0,64,80,283.0,0.489583,Sixteenth,E4_A4
1956,Left,1,37,80,283.0,0.489583,Eighth,C#3_C#2
1959,Right,0,59,80,283.25,0.239583,Sixteenth,B3
1960,Right,0,73,80,283.5,0.489583,Eighth,E4_C#5
1962,Right,0,59,80,283.75,0.239583,Sixteenth,B3
1965,Right,0,66,80,284.0,0.489583,Sixteenth,F#4_B4
1963,Left,1,39,80,284.0,0.489583,Eighth,D#3_D#2
1967,Right,0,59,80,284.25,0.239583,Sixteenth,B3
1968,Left,1,35,80,284.5,0.489583,Eighth,B2_B1
1970,Right,0,63,80,284.5,0.489583,Sixteenth,F#4_D#4
1972,Right,0,59,80,284.75,0.239583,Sixteenth,B3
1974,Left,1,40,80,285.0,0.239583,Sixteenth,E3_E2
1973,Right,0,68,80,285.0,0.989583,Quarter,G#4_E4_B3
1978,Left,1,56,80,285.25,0.239583,Sixteenth,G#3
1979,Left,1,59,80,285.5,0.239583,Sixteenth,B3
1980,Left,1,57,80,285.75,0.239583,Sixteenth,A3
1981,Left,1,56,80,286.0,0.239583,Sixteenth,G#3
1982,Left,1,57,80,286.25,0.239583,Sixteenth,A3
1984,Left,1,56,80,286.5,0.239583,Sixteenth,G#3
1983,Right,0,76,80,286.5,0.239583,Sixteenth,E5
1985,Left,1,54,80,286.75,0.239583,Sixteenth,F#3
1986,Right,0,78,80,286.75,0.239583,Sixteenth,F#5
1988,Left,1,52,80,287.0,0.239583,Sixteenth,E3
1987,Right,0,68,80,287.0,0.989583,Quarter,G#5_G#4
1990,Left,1,59,80,287.25,0.239583,Sixteenth,B3
1991,Left,1,47,80,287.5,0.239583,Sixteenth,B2
1992,Left,1,59,80,287.75,0.239583,Sixteenth,B3
1995,Left,1,52,80,288.0,0.239583,Sixteenth,E3
1993,Right,0,71,80,288.0,0.489583,Eighth,B5_B4
1996,Left,1,59,80,288.25,0.239583,Sixteenth,B3
1998,Right,0,81,80,288.5,0.489583,Eighth,A5_A4
1997,Left,1,47,80,288.5,0.239583,Sixteenth,B2
2000,Left,1,59,80,288.75,0.239583,Sixteenth,B3
2002,Right,0,80,80,289.0,0.489583,Eighth,G#5_G#4
2001,Left,1,51,80,289.0,0.239583,Sixteenth,D#3
2004,Left,1,59,80,289.25,0.239583,Sixteenth,B3
2005,Left,1,47,80,289.5,0.239583,Sixteenth,B2
2006,Right,0,66,80,289.5,0.489583,Eighth,F#5_F#4
2008,Left,1,59,80,289.75,0.239583,Sixteenth,B3
2009,Right,0,66,80,290.0,0.489583,Eighth,F#5_F#4
2011,Left,1,51,80,290.0,0.239583,Sixteenth,D#3
2012,Left,1,59,80,290.25,0.239583,Sixteenth,B3
2014,Right,0,68,80,290.5,0.489583,Eighth,G#5_G#4
2013,Left,1,53,80,290.5,0.239583,Sixteenth,F3
2016,Left,1,59,80,290.75,0.239583,Sixteenth,B3
2017,Right,0,81,80,291.0,0.489583,Eighth,A5_A4
2019,Left,1,54,80,291.0,0.239583,Sixteenth,F#3
2020,Left,1,59,84,291.25,0.239583,Sixteenth,B3
2021,Right,0,73,89,291.5,0.489583,Eighth,C#6_C#5
2023,Left,1,57,89,291.5,0.239583,Sixteenth,A3
2024,Left,1,59,94,291.75,0.239583,Sixteenth,B3
2026,Right,0,71,99,292.0,0.489583,Eighth,B5_B4
2025,Left,1,56,99,292.0,0.239583,Sixteenth,G#3
2028,Left,1,59,89,292.25,0.239583,Sixteenth,B3
2030,Left,1,54,80,292.5,0.239583,Sixteenth,F#3_B2
2029,Right,0,87,80,292.5,0.489583,Eighth,D#6_D#5
2033,Left,1,57,80,292.75,0.239583,Sixteenth,A3
2034,Right,0,88,80,293.0,0.989583,Quarter,E6_E5
2036,Left,1,56,80,293.0,0.239583,Sixteenth,G#3_E3
2038,Left,1,59,80,293.25,0.239583,Sixteenth,B3
2039,Left,1,56,80,293.5,0.239583,Sixteenth,G#3
2040,Left,1,52,80,293.75,0.239583,Sixteenth,E3
2041,Left,1,51,80,294.0,0.239583,Sixteenth,D#3
2042,Left,1,59,80,294.25,0.239583,Sixteenth,B3
2044,Left,1,54,80,294.5,0.239583,Sixteenth,F#3
2043,Right,0,71,80,294.5,0.489583,Eighth,B4
2045,Left,1,51,80,294.75,0.239583,Sixteenth,D#3
2046,Left,1,49,80,295.0,0.239583,Sixteenth,C#3
2047,Right,0,70,80,295.0,0.989583,Quarter,A#4
2048,Left,1,58,80,295.25,0.239583,Sixteenth,A#3
2049,Left,1,54,80,295.5,0.239583,Sixteenth,F#3
2050,Left,1,49,80,295.75,0.239583,Sixteenth,C#3
2052,Right,0,76,80,296.0,0.989583,Quarter,E5
2051,Left,1,42,80,296.0,0.239583,Sixteenth,F#2
2053,Left,1,58,80,296.25,0.239583,Sixteenth,A#3
2054,Left,1,54,80,296.5,0.239583,Sixteenth,F#3
2055,Left,1,49,80,296.75,0.239583,Sixteenth,C#3
2057,Right,0,75,80,297.0,1.489583,DottedQuarter,D#5
2056,Left,1,47,80,297.0,0.239583,Sixteenth,B2
2058,Left,1,59,80,297.25,0.239583,Sixteenth,B3
2059,Left,1,54,80,297.5,0.239583,Sixteenth,F#3
2060,Left,1,51,80,297.75,0.239583,Sixteenth,D#3
2061,Left,1,47,80,298.0,0.239583,Sixteenth,B2
2062,Left,1,59,80,298.25,0.239583,Sixteenth,B3
2064,Right,0,69,80,298.5,0.489583,Eighth,A4
2063,Left,1,49,80,298.5,0.239583,Sixteenth,C#3
2065,Left,1,57,80,298.75,0.239583,Sixteenth,A3
2066,Left,1,47,80,299.0,0.239583,Sixteenth,B2
2067,Right,0,68,80,299.0,0.989583,Quarter,G#4
2068,Left,1,56,80,299.25,0.239583,Sixteenth,G#3
2069,Left,1,52,80,299.5,0.239583,Sixteenth,E3
2070,Left,1,47,80,299.75,0.239583,Sixteenth,B2
2071,Left,1,40,80,300.0,0.239583,Sixteenth,E2
2072,Right,0,74,80,300.0,0.989583,Quarter,D5
2073,Left,1,56,80,300.25,0.239583,Sixteenth,G#3
2074,Left,1,52,80,300.5,0.239583,Sixteenth,E3
2075,Left,1,47,80,300.75,0.239583,Sixteenth,B2
2077,Right,0,73,80,301.0,1.489583,DottedQuarter,C#5
2076,Left,1,45,80,301.0,0.239583,Sixteenth,A2
2078,Left,1,57,80,301.25,0.239583,Sixteenth,A3
2079,Left,1,52,80,301.5,0.239583,Sixteenth,E3
2080,Left,1,49,80,301.75,0.239583,Sixteenth,C#3
2081,Left,1,45,80,302.0,0.239583,Sixteenth,A2
2082,Left,1,52,80,302.25,0.239583,Sixteenth,E3
2084,Left,1,44,80,302.5,0.239583,Sixteenth,G#2
2083,Right,0,73,80,302.5,0.489583,Eighth,C#5
2085,Left,1,52,81,302.75,0.239583,Sixteenth,E3
2087,Left,1,44,82,303.0,0.239583,Sixteenth,G#2
2086,Right,0,72,82,303.0,0.489583,Eighth,C5
2088,Left,1,52,83,303.25,0.239583,Sixteenth,E3
2089,Left,1,45,84,303.5,0.239583,Sixteenth,A2
2090,Right,0,73,84,303.5,0.489583,Eighth,C#5
2091,Left,1,52,85,303.75,0.239583,Sixteenth,E3
2092,Right,0,61,87,304.0,0.489583,Eighth,E4_C#4_A4
2093,Left,1,45,87,304.0,0.239583,Sixteenth,A2
2096,Left,1,52,88,304.25,0.239583,Sixteenth,E3
2097,Right,0,68,89,304.5,0.489583,Eighth,G#4_E4_B3
2098,Left,1,47,89,304.5,0.239583,Sixteenth,B2
2101,Left,1,52,90,304.75,0.239583,Sixteenth,E3
2102,Right,0,68,91,305.0,0.989583,Quarter,G#4_E4_A#3
2105,Left,1,49,91,305.0,0.239583,Sixteenth,C#3
2106,Left,1,52,92,305.25,0.239583,Sixteenth,E3
2107,Left,1,49,94,305.5,0.239583,Sixteenth,C#3
2108,Right,0,66,94,305.5,0.989583,Quarter,F#4
2109,Left,1,52,95,305.75,0.239583,Sixteenth,E3
2112,Left,1,48,96,306.0,0.239583,Sixteenth,C3
2110,Right,0,57,96,306.0,0.989583,Quarter,E4_A3
2113,Left,1,52,97,306.25,0.239583,Sixteenth,E3
2114,Right,0,66,98,306.5,0.489583,Eighth,F#4
2115,Left,1,48,98,306.5,0.239583,Sixteenth,C3
2116,Left,1,52,90,306.75,0.239583,Sixteenth,E3
2120,Left,1,47,80,307.0,0.239583,Sixteenth,B2
2117,Right,0,57,80,307.0,0.489583,Eighth,F#4_D#4_A3
2121,Left,1,54,80,307.25,0.239583,Sixteenth,F#3
2124,Left,1,47,80,307.5,0.239583,Sixteenth,B2
2122,Right,0,63,80,307.5,0.489583,Eighth,D#4_B4
2125,Left,1,57,80,307.75,0.239583,Sixteenth,F#3_A3
2127,Left,1,47,80,308.0,0.239583,Sixteenth,B2
2128,Right,0,70,80,308.0,0.489583,Eighth,A#4
2129,Left,1,54,80,308.25,0.239583,Sixteenth,F#3_A3
2132,Right,0,63,80,308.5,0.489583,Eighth,D#4_B4
2131,Left,1,47,80,308.5,0.239583,Sixteenth,B2
2134,Left,1,54,80,308.75,0.239583,Sixteenth,F#3_A3
2137,Left,1,56,80,309.0,0.239583,Sixteenth,G#3_E3
2136,Right,0,64,80,309.0,0.989583,Quarter,E4
2139,Left,1,59,80,309.25,0.239583,Sixteenth,B3
2140,Left,1,56,80,309.5,0.239583,Sixteenth,G#3
2141,Left,1,52,80,309.75,0.239583,Sixteenth,E3
2142,Left,1,51,80,310.0,0.239583,Sixteenth,D#3
2143,Left,1,59,80,310.25,0.239583,Sixteenth,B3
2144,Right,0,83,80,310.5,0.489583,Eighth,B5_B4
2145,Left,1,54,80,310.5,0.239583,Sixteenth,F#3
2147,Left,1,51,80,310.75,0.239583,Sixteenth,D#3
2150,Left,1,49,80,311.0,0.239583,Sixteenth,C#3
2148,Right,0,82,80,311.0,0.989583,Quarter,A#5_A#4
2151,Left,1,58,80,311.25,0.239583,Sixteenth,A#3
2152,Left,1,54,80,311.5,0.239583,Sixteenth,F#3
2153,Left,1,49,80,311.75,0.239583,Sixteenth,C#3
2156,Left,1,42,80,312.0,0.239583,Sixteenth,F#2
2154,Right,0,76,80,312.0,0.989583,Quarter,E6_E5
2157,Left,1,58,80,312.25,0.239583,Sixteenth,A#3
2158,Left,1,54,80,312.5,0.239583,Sixteenth,F#3
2159,Left,1,49,80,312.75,0.239583,Sixteenth,C#3
2160,Left,1,47,80,313.0,0.239583,Sixteenth,B2
2161,Right,0,75,80,313.0,1.489583,DottedQuarter,D#6_D#5
2163,Left,1,59,80,313.25,0.239583,Sixteenth,B3
2164,Left,1,54,80,313.5,0.239583,Sixteenth,F#3
2165,Left,1,51,80,313.75,0.239583,Sixteenth,D#3
2166,Left,1,47,80,314.0,0.239583,Sixteenth,B2
2167,Left,1,59,80,314.25,0.239583,Sixteenth,B3
2168,Right,0,69,80,314.5,0.489583,Eighth,A5_A4
2170,Left,1,49,80,314.5,0.239583,Sixteenth,C#3
2171,Left,1,57,80,314.75,0.239583,Sixteenth,A3
2172,Right,0,80,80,315.0,0.989583,Quarter,G#5_G#4
2174,Left,1,47,80,315.0,0.239583,Sixteenth,B2
2175,Left,1,56,80,315.25,0.239583,Sixteenth,G#3
2176,Left,1,52,80,315.5,0.239583,Sixteenth,E3
2177,Left,1,47,80,315.75,0.239583,Sixteenth,B2
2178,Right,0,86,80,316.0,0.989583,Quarter,D6_D5
2180,Left,1,40,80,316.0,0.239583,Sixteenth,E2
2181,Left,1,56,80,316.25,0.239583,Sixteenth,G#3
2182,Left,1,52,80,316.5,0.239583,Sixteenth,E3
2183,Left,1,47,80,316.75,0.239583,Sixteenth,B2
2186,Left,1,45,80,317.0,0.239583,Sixteenth,A2
2184,Right,0,73,80,317.0,1.489583,DottedQuarter,C#6_C#5
2187,Left,1,57,80,317.25,0.239583,Sixteenth,A3
2188,Left,1,52,80,317.5,0.239583,Sixteenth,E3
2189,Left,1,49,80,317.75,0.239583,Sixteenth,C#3
2190,Left,1,45,80,318.0,0.239583,Sixteenth,A2
2191,Left,1,52,80,318.25,0.239583,Sixteenth,E3
2192,Right,0,73,80,318.5,0.489583,Eighth,C#6_C#5
2194,Left,1,44,80,318.5,0.239583,Sixteenth,G#2
2195,Left,1,52,81,318.75,0.239583,Sixteenth,E3
2196,Right,0,84,82,319.0,0.489583,Eighth,C6_C5
2198,Left,1,44,82,319.0,0.239583,Sixteenth,G#2
2199,Left,1,52,83,319.25,0.239583,Sixteenth,E3
2201,Right,0,73,84,319.5,0.489583,Eighth,C#6_C#5
2200,Left,1,45,84,319.5,0.239583,Sixteenth,A2
2203,Left,1,52,85,319.75,0.239583,Sixteenth,E3
2205,Right,0,69,87,320.0,0.489583,Eighth,A5_A4
2204,Left,1,45,87,320.0,0.239583,Sixteenth,C#3_A2
2208,Left,1,52,88,320.25,0.239583,Sixteenth,E3
2209,Right,0,80,89,320.5,0.489583,Eighth,G#5_G#4
2211,Left,1,47,89,320.5,0.239583,Sixteenth,E3_B2
2213,Left,1,56,90,320.75,0.239583,Sixteenth,G#3
2216,Left,1,49,91,321.0,0.239583,Sixteenth,E3_C#3
2214,Right,0,80,91,321.0,0.489583,Eighth,G#5_G#4
2218,Left,1,58,92,321.25,0.239583,Sixteenth,A#3
2221,Left,1,49,94,321.5,0.239583,Sixteenth,E3_C#3
2219,Right,0,78,94,321.5,0.989583,Quarter,F#5_F#4
2223,Left,1,58,95,321.75,0.239583,Sixteenth,A#3
2224,Left,1,52,96,322.0,0.239583,Sixteenth,E3_C3
2226,Left,1,57,97,322.25,0.239583,Sixteenth,A3
2229,Left,1,48,100,322.5,0.239583,Sixteenth,E3_C3
2227,Right,0,78,100,322.5,0.489583,Eighth,F#5_F#4
2231,Left,1,57,90,322.75,0.239583,Sixteenth,A3
2233,Left,1,51,80,323.0,0.239583,Sixteenth,D#3_B2
2232,Right,0,66,80,323.0,0.489583,Eighth,F#5_F#4
2236,Left,1,57,80,323.25,0.239583,Sixteenth,A3
2239,Left,1,51,80,323.5,0.239583,Sixteenth,D#3_B2
2237,Right,0,83,80,323.5,0.489583,Eighth,B5_B4
2241,Left,1,57,80,323.75,0.239583,Sixteenth,A3
2243,Left,1,47,80,324.0,0.239583,Sixteenth,D#3_B2
2242,Right,0,82,80,324.0,0.489583,Eighth,A#5_A#4
2246,Left,1,57,80,324.25,0.239583,Sixteenth,A3
2249,Left,1,47,80,324.5,0.239583,Sixteenth,D#3_B2
2247,Right,0,71,80,324.5,0.489583,Eighth,B5_B4
2251,Left,1,57,80,324.75,0.239583,Sixteenth,A3
2254,Left,1,52,80,325.0,0.239583,Sixteenth,G#3_E3
2252,Right,0,64,80,325.0,0.989583,Quarter,E5_E4
2256,Left,1,52,80,325.25,0.239583,Sixteenth,E3
2257,Left,1,51,80,325.5,0.239583,Sixteenth,D#3
2258,Left,1,49,80,325.75,0.239583,Sixteenth,C#3
2259,Left,1,47,80,326.0,0.239583,Sixteenth,B2
2260,Left,1,45,80,326.25,0.239583,Sixteenth,A2
2262,Right,0,64,80,326.5,0.239583,Sixteenth,E4
2261,Left,1,44,80,326.5,0.239583,Sixteenth,G#2
2263,Left,1,42,80,326.75,0.239583,Sixteenth,F#2
2264,Right,0,66,80,326.75,0.239583,Sixteenth,F#4
2267,Left,1,40,80,327.0,0.489583,Eighth,E2
2265,Right,0,68,80,327.0,0.989583,Quarter,G#4_E4
2268,Right,0,59,80,327.25,0.239583,Sixteenth,B3
2269,Right,0,64,80,327.5,0.239583,Sixteenth,E4
2270,Right,0,59,80,327.75,0.239583,Sixteenth,B3
2271,Right,0,68,80,328.0,0.489583,Sixteenth,G#4_B4
2273,Right,0,59,80,328.25,0.239583,Sixteenth,B3
2274,Right,0,66,80,328.5,0.489583,Sixteenth,F#4_A4
2276,Right,0,59,80,328.75,0.239583,Sixteenth,B3
2279,Left,1,35,80,329.0,0.489583,Eighth,B1
2277,Right,0,64,80,329.0,0.489583,Sixteenth,G#4_E4
2280,Right,0,59,80,329.25,0.239583,Sixteenth,B3
2281,Right,0,66,80,329.5,0.489583,Eighth,F#4_D#4
2283,Right,0,59,80,329.75,0.239583,Sixteenth,B3
2284,Right,0,66,80,330.0,0.489583,Eighth,F#4_D#4
2286,Right,0,59,80,330.25,0.239583,Sixteenth,B3
2287,Right,0,64,80,330.5,0.489583,Sixteenth,G#4_E4
2289,Right,0,59,80,330.75,0.239583,Sixteenth,B3
2290,Right,0,64,80,331.0,0.489583,Sixteenth,E4_A4
2292,Left,1,37,80,331.0,0.489583,Eighth,C#2
2293,Right,0,59,80,331.25,0.239583,Sixteenth,B3
2294,Right,0,64,80,331.5,0.489583,Sixteenth,E4_C#5
2296,Right,0,59,80,331.75,0.239583,Sixteenth,B3
2298,Left,1,39,80,332.0,0.489583,Eighth,D#2
2297,Right,0,71,80,332.0,0.489583,Eighth,F#4_B4
2300,Right,0,59,80,332.25,0.239583,Sixteenth,B3
2302,Right,0,66,80,332.5,0.489583,Eighth,F#4_D#4
2301,Left,1,35,80,332.5,0.489583,Eighth,B1
2304,Right,0,59,80,332.75,0.239583,Sixteenth,B3
2308,Left,1,40,80,333.0,0.489583,Eighth,E2
2305,Right,0,68,80,333.0,0.989583,Quarter,G#4_E4_B3
2309,Left,1,64,80,333.5,0.239583,Sixteenth,E4
2310,Left,1,59,80,333.75,0.239583,Sixteenth,B3
2312,Right,0,78,80,334.0,0.072917,TripletThirtySecond,F#5
2311,Left,1,64,80,334.0,0.239583,Sixteenth,E4
2313,Right,0,76,80,334.083333,0.15625,TripletSixteenth,E5
2315,Right,0,75,81,334.25,0.239583,Sixteenth,D#5
2314,Left,1,59,81,334.25,0.239583,Sixteenth,B3
2316,Right,0,76,82,334.5,0.239583,Sixteenth,E5
2317,Left,1,64,82,334.5,0.239583,Sixteenth,E4
2319,Right,0,78,83,334.75,0.239583,Sixteenth,F#5
2318,Left,1,59,83,334.75,0.239583,Sixteenth,B3
2320,Right,0,81,84,335.0,0.072917,TripletThirtySecond,A5
2321,Left,1,64,84,335.0,0.239583,Sixteenth,E4
2322,Right,0,80,84,335.083333,0.15625,TripletSixteenth,G#5
2323,Right,0,78,85,335.25,0.239583,Sixteenth,F#5
2324,Left,1,59,85,335.25,0.239583,Sixteenth,B3
2326,Right,0,80,86,335.5,0.239583,Sixteenth,G#5
2325,Left,1,64,86,335.5,0.239583,Sixteenth,E4
2328,Right,0,81,87,335.75,0.239583,Sixteenth,A5
2327,Left,1,59,87,335.75,0.239583,Sixteenth,B3
2329,Right,0,71,88,336.0,0.489583,Eighth,B5_B4
2331,Left,1,68,88,336.0,0.239583,Sixteenth,G#4
2332,Left,1,59,89,336.25,0.239583,Sixteenth,B3
2333,Right,0,69,91,336.5,0.489583,Eighth,A5_A4
2334,Left,1,66,91,336.5,0.239583,Sixteenth,F#4
2336,Left,1,59,92,336.75,0.239583,Sixteenth,B3
2337,Left,1,64,93,337.0,0.239583,Sixteenth,E4
2338,Right,0,80,93,337.0,0.489583,Eighth,G#5_G#4
2340,Left,1,59,94,337.25,0.239583,Sixteenth,B3
2341,Right,0,78,95,337.5,0.489583,Eighth,F#5_F#4
2342,Left,1,63,95,337.5,0.239583,Sixteenth,D#4
2344,Left,1,59,96,337.75,0.239583,Sixteenth,B3
2346,Right,0,78,97,338.0,0.489583,Eighth,F#5_F#4
2345,Left,1,63,97,338.0,0.239583,Sixteenth,D#4
2348,Left,1,59,98,338.25,0.239583,Sixteenth,B3
2350,Right,0,80,99,338.5,0.489583,Eighth,G#5_G#4
2349,Left,1,65,99,338.5,0.239583,Sixteenth,F4
2352,Left,1,59,101,338.75,0.239583,Sixteenth,B3
2353,Right,0,81,102,339.0,0.489583,Eighth,A5_A4
2355,Left,1,66,102,339.0,0.239583,Sixteenth,F#4
2356,Left,1,59,103,339.25,0.239583,Sixteenth,B3
2357,Right,0,73,104,339.5,0.489583,Eighth,C#6_C#5
2359,Left,1,69,104,339.5,0.239583,Sixteenth,A4
2360,Left,1,59,105,339.75,0.239583,Sixteenth,B3
2361,Right,0,71,106,340.0,0.489583,Eighth,B5_B4
2363,Left,1,68,106,340.0,0.239583,Sixteenth,G#4
2364,Left,1,59,107,340.25,0.239583,Sixteenth,B3
2366,Right,0,87,108,340.5,0.489583,Eighth,D#6_D#5_A5
2365,Left,1,66,108,340.5,0.239583,Sixteenth,F#4
2369,Left,1,59,109,340.75,0.239583,Sixteenth,B3
2373,Left,1,64,110,341.0,0.239583,Sixteenth,E4
2370,Right,0,88,110,341.0,0.989583,Quarter,G#5_E6_E5
2374,Left,1,59,110,341.25,0.239583,Sixteenth,B3
2375,Left,1,56,110,341.5,0.239583,Sixteenth,G#3
2376,Left,1,59,110,341.75,0.239583,Sixteenth,B3
2377,Left,1,52,110,342.0,0.489583,Eighth,E3
2378,Right,0,68,110,342.5,0.489583,Eighth,G#4_E4
2381,Right,0,64,110,343.0,1.489583,DottedQuarter,G#4_E4
2380,Left,1,61,110,343.0,0.239583,Sixteenth,C#4
2383,Left,1,56,110,343.25,0.239583,Sixteenth,G#3
2384,Left,1,52,110,343.5,0.239583,Sixteenth,E3
2385,Left,1,56,110,343.75,0.239583,Sixteenth,G#3
2386,Left,1,49,110,344.0,0.489583,Eighth,C#3
2387,Right,0,76,80,344.5,0.489583,Eighth,G#4_E5_E4
2389,Left,1,61,80,344.5,0.489583,Eighth,C#4
2395,Left,1,60,80,345.0,0.239583,Sixteenth,C4
2391,Right,0,63,80,345.0,1.489583,DottedQuarter,G#4_F#4_D#5_D#4
2396,Left,1,56,80,345.25,0.239583,Sixteenth,G#3
2397,Left,1,51,80,345.5,0.239583,Sixteenth,D#3
2398,Left,1,56,80,345.75,0.239583,Sixteenth,G#3
2399,Left,1,48,80,346.0,0.489583,Eighth,C3
2401,Right,0,63,110,346.5,0.489583,Eighth,G#4_D#4
2400,Left,1,60,110,346.5,0.489583,Eighth,C4
2403,Right,0,62,110,347.0,1.489583,DottedQuarter,G#4_E4_D4
2406,Left,1,59,110,347.0,0.239583,Sixteenth,B3
2407,Left,1,56,110,347.25,0.239583,Sixteenth,G#3
2408,Left,1,52,110,347.5,0.239583,Sixteenth,E3
2409,Left,1,56,110,347.75,0.239583,Sixteenth,G#3
2410,Left,1,47,110,348.0,0.489583,Eighth,B2
2413,Left,1,59,80,348.5,0.489583,Eighth,B3
2411,Right,0,64,80,348.5,0.489583,Eighth,E4_D5_D4
2416,Left,1,57,80,349.0,0.239583,Sixteenth,A3
2415,Right,0,61,80,349.0,1.489583,DottedQuarter,E4_C#5_C#4
2419,Left,1,52,80,349.25,0.239583,Sixteenth,E3
2420,Left,1,49,80,349.5,0.239583,Sixteenth,C#3
2421,Left,1,52,80,349.75,0.239583,Sixteenth,E3
2422,Left,1,45,80,350.0,0.489583,Eighth,A2
2423,Left,1,57,110,350.5,0.489583,Eighth,A3
2424,Right,0,61,110,350.5,0.489583,Eighth,C#4
2426,Left,1,56,110,351.0,0.239583,Sixteenth,G#3
2425,Right,0,61,110,351.0,1.489583,DottedQuarter,C#4_B3
2428,Left,1,53,110,351.25,0.239583,Sixteenth,F3
2429,Left,1,49,110,351.5,0.239583,Sixteenth,C#3
2430,Left,1,53,110,351.75,0.239583,Sixteenth,F3
2431,Left,1,44,110,352.0,0.489583,Eighth,G#2
2432,Right,0,71,80,352.5,0.489583,Eighth,C#4_B4_B3
2435,Left,1,56,80,352.5,0.489583,Eighth,G#3
2437,Right,0,57,80,353.0,1.489583,DottedQuarter,C#4_A4_A3
2436,Left,1,54,80,353.0,0.239583,Sixteenth,F#3
2440,Left,1,49,80,353.25,0.239583,Sixteenth,C#3
2441,Left,1,45,80,353.5,0.239583,Sixteenth,A2
2442,Left,1,49,80,353.75,0.239583,Sixteenth,C#3
2443,Left,1,42,80,354.0,0.489583,Eighth,F#2
2444,Right,0,73,110,354.5,0.489583,Eighth,F#5_C#5_A5
2447,Left,1,66,110,354.5,0.489583,Eighth,F#4
2451,Left,1,63,110,355.0,0.239583,Sixteenth,D#4
2448,Right,0,71,110,355.0,1.489583,DottedQuarter,F#5_B4_A5
2452,Left,1,59,110,355.25,0.239583,Sixteenth,B3
2453,Left,1,54,110,355.5,0.239583,Sixteenth,F#3
2454,Left,1,59,110,355.75,0.239583,Sixteenth,B3
2455,Left,1,51,110,356.0,0.489583,Eighth,D#3
2456,Left,1,51,110,356.5,0.489583,Eighth,D#3
2457,Right,0,66,110,356.5,0.489583,Eighth,F#4_A4
2459,Right,0,64,110,357.0,1.489583,DottedQuarter,E4_A4
2460,Left,1,48,110,357.0,0.239583,Sixteenth,C3
2462,Left,1,45,110,357.25,0.239583,Sixteenth,A2
2463,Left,1,40,110,357.5,0.239583,Sixteenth,E2
2464,Left,1,45,110,357.75,0.239583,Sixteenth,A2
2465,Left,1,36,110,358.0,0.489583,Eighth,C2
2468,Left,1,60,110,358.5,0.489583,Eighth,C4_C3
2466,Right,0,76,110,358.5,0.489583,Eighth,E5_A5_A4
2471,Left,1,47,110,359.0,0.489583,Eighth,B3_B2
2473,Right,0,81,110,359.0,0.489583,Eighth,F#5_D#5_A5_A4
2477,Left,1,71,80,359.5,0.239583,Sixteenth,B4
2478,Left,1,73,80,359.75,0.239583,Sixteenth,C#5
2479,Left,1,71,80,360.0,0.239583,Sixteenth,B4
2480,Left,1,73,80,360.25,0.239583,Sixteenth,C#5
2481,Left,1,71,80,360.5,0.239583,Sixteenth,B4
2482,Left,1,73,80,360.75,0.239583,Sixteenth,C#5
2483,Left,1,63,80,361.0,1.489583,DottedQuarter,F#4_D#4_B4
2484,Right,0,81,80,361.0,1.489583,DottedQuarter,F#6_A5
2488,Left,1,73,80,361.25,0.239583,Sixteenth,C#5
2489,Left,1,71,80,361.5,0.239583,Sixteenth,B4
2490,Left,1,73,80,361.75,0.239583,Sixteenth,C#5
2491,Left,1,71,80,362.0,0.239583,Sixteenth,B4
2492,Left,1,73,80,362.25,0.239583,Sixteenth,C#5
2495,Left,1,71,80,362.5,0.489583,Eighth,G#4_E4_B4
2493,Right,0,80,80,362.5,0.489583,Eighth,G#5_E6
2498,Left,1,73,80,362.75,0.239583,Sixteenth,C#5
2499,Left,1,71,80,363.0,0.489583,Eighth,G#4_E4_B4
2500,Right,0,80,80,363.0,0.489583,Eighth,G#5_E6
2504,Left,1,73,80,363.25,0.239583,Sixteenth,C#5
2507,Left,1,69,80,363.5,0.489583,Eighth,F#4_B4_A4
2505,Right,0,87,80,363.5,0.489583,Eighth,F#5_D#6
2510,Left,1,73,80,363.75,0.239583,Sixteenth,C#5
2514,Right,0,78,80,364.0,0.489583,Eighth,F#5_D#6
2511,Left,1,66,80,364.0,0.489583,Eighth,F#4_B4_A4
2516,Left,1,73,80,364.25,0.239583,Sixteenth,C#5
2517,Left,1,71,80,364.5,0.489583,Eighth,G#4_E4_B4
2518,Right,0,88,80,364.5,0.489583,Eighth,G#5_E6
2522,Left,1,73,80,364.75,0.239583,Sixteenth,C#5
2524,Left,1,71,80,365.0,1.489583,DottedQuarter,F#4_D#4_B4
2523,Right,0,81,80,365.0,1.489583,DottedQuarter,F#6_A5
2528,Left,1,73,80,365.25,0.239583,Sixteenth,C#5
2529,Left,1,71,80,365.5,0.239583,Sixteenth,B4
2530,Left,1,73,80,365.75,0.239583,Sixteenth,C#5
2531,Left,1,71,80,366.0,0.239583,Sixteenth,B4
2532,Left,1,73,80,366.25,0.239583,Sixteenth,C#5
2533,Left,1,71,80,366.5,0.489583,Eighth,G#4_E4_B4
2536,Right,0,80,80,366.5,0.489583,Eighth,G#5_E6
2538,Left,1,73,80,366.75,0.239583,Sixteenth,C#5
2539,Left,1,71,80,367.0,0.489583,Eighth,F#4_B4_A4
2542,Right,0,87,80,367.0,0.489583,Eighth,F#5_D#6
2544,Left,1,73,80,367.25,0.239583,Sixteenth,C#5
2547,Left,1,63,80,367.5,0.489583,Eighth,F#4_D#4_B4
2545,Right,0,90,80,367.5,0.489583,Eighth,F#6_A5
2550,Left,1,73,80,367.75,0.239583,Sixteenth,C#5
2551,Right,0,88,80,368.0,0.489583,Eighth,G#5_E6
2552,Left,1,68,80,368.0,0.489583,Eighth,G#4_E4_B4
2556,Left,1,73,80,368.25,0.239583,Sixteenth,C#5
2557,Right,0,87,80,368.5,0.489583,Eighth,F#5_D#6
2559,Left,1,66,80,368.5,0.489583,Eighth,F#4_B4_A4
2562,Left,1,73,80,368.75,0.239583,Sixteenth,C#5
2563,Right,0,83,80,369.0,0.489583,Eighth,E6_B5
2565,Left,1,71,80,369.0,0.239583,Sixteenth,G#4_B4
2567,Left,1,76,80,369.25,0.239583,Sixteenth,E5
2568,Right,0,87,80,369.5,0.489583,Eighth,D#6
2569,Left,1,71,80,369.5,0.239583,Sixteenth,B4
2570,Left,1,76,80,369.75,0.239583,Sixteenth,E5
2571,Left,1,69,80,370.0,0.239583,Sixteenth,A4
2572,Right,0,85,80,370.0,0.489583,Eighth,C#6
2573,Left,1,76,80,370.25,0.239583,Sixteenth,E5
2574,Right,0,83,80,370.5,0.489583,Eighth,B5
2575,Left,1,68,80,370.5,0.239583,Sixteenth,G#4
2576,Left,1,76,80,370.75,0.239583,Sixteenth,E5
2578,Right,0,85,80,371.0,0.489583,Eighth,C#6
2577,Left,1,69,80,371.0,0.239583,Sixteenth,A4
2579,Left,1,76,80,371.25,0.239583,Sixteenth,E5
2581,Right,0,83,80,371.5,0.489583,Eighth,B5
2580,Left,1,71,80,371.5,0.239583,Sixteenth,B4
2582,Left,1,76,80,371.75,0.239583,Sixteenth,E5
2584,Right,0,81,80,372.0,0.489583,Eighth,A5
2583,Left,1,73,80,372.0,0.239583,Sixteenth,C#5
2585,Left,1,76,80,372.25,0.239583,Sixteenth,E5
2586,Right,0,80,80,372.5,0.489583,Eighth,G#5
2587,Left,1,70,80,372.5,0.239583,Sixteenth,A#4
2588,Left,1,76,80,372.75,0.239583,Sixteenth,E5
2590,Left,1,71,80,373.0,1.989583,Half,B4
2589,Right,0,80,80,373.0,1.489583,DottedQuarter,G#5
2591,Left,1,73,80,373.25,0.239583,Sixteenth,C#5
2592,Left,1,75,80,373.5,0.239583,Sixteenth,D#5
2593,Left,1,76,80,373.75,0.239583,Sixteenth,E5
2594,Left,1,75,80,374.0,0.239583,Sixteenth,D#5
2595,Left,1,76,80,374.25,0.239583,Sixteenth,E5
2597,Left,1,78,80,374.5,0.239583,Sixteenth,F#5
2596,Right,0,81,80,374.5,0.239583,Sixteenth,A5
2598,Right,0,83,80,374.75,0.239583,Sixteenth,B5
2599,Left,1,80,80,374.75,0.239583,Sixteenth,G#5
2600,Right,0,78,80,375.0,0.489583,Eighth,F#5
2601,Left,1,71,80,375.0,0.489583,Eighth,D#5_B4
2603,Left,1,61,80,375.5,0.239583,Sixteenth,C#4
2604,Right,0,71,80,375.5,0.239583,Sixteenth,B4
2605,Left,1,59,80,375.75,0.239583,Sixteenth,B3
2606,Right,0,73,80,375.75,0.239583,Sixteenth,C#5
2608,Left,1,61,80,376.0,0.239583,Sixteenth,C#4
2607,Right,0,71,80,376.0,0.239583,Sixteenth,B4
2610,Left,1,59,80,376.25,0.239583,Sixteenth,B3
2609,Right,0,73,80,376.25,0.239583,Sixteenth,C#5
2611,Right,0,71,80,376.5,0.239583,Sixteenth,B4
2612,Left,1,61,80,376.5,0.239583,Sixteenth,C#4
2613,Right,0,73,80,376.75,0.239583,Sixteenth,C#5
2614,Left,1,59,80,376.75,0.239583,Sixteenth,B3
2615,Right,0,71,80,377.0,1.489583,DottedQuarter,F#5_B4_A5
2618,Left,1,61,80,377.0,1.489583,DottedQuarter,F#3_D#3_C#4
2622,Left,1,59,80,377.25,0.239583,Sixteenth,B3
2621,Right,0,73,80,377.25,0.239583,Sixteenth,C#5
2624,Left,1,61,80,377.5,0.239583,Sixteenth,C#4
2623,Right,0,71,80,377.5,0.239583,Sixteenth,B4
2626,Left,1,59,80,377.75,0.239583,Sixteenth,B3
2625,Right,0,73,80,377.75,0.239583,Sixteenth,C#5
2627,Right,0,71,80,378.0,0.239583,Sixteenth,B4
2628,Left,1,61,80,378.0,0.239583,Sixteenth,C#4
2629,Right,0,73,80,378.25,0.239583,Sixteenth,C#5
2630,Left,1,59,80,378.25,0.239583,Sixteenth,B3
2631,Left,1,52,80,378.5,0.489583,Eighth,G#3_E3_C#4
2632,Right,0,76,80,378.5,0.489583,Eighth,G#5_E5_B4
2638,Left,1,59,80,378.75,0.239583,Sixteenth,B3
2637,Right,0,73,80,378.75,0.239583,Sixteenth,C#5
2640,Left,1,52,80,379.0,0.489583,Eighth,G#3_E3_C#4
2639,Right,0,71,80,379.0,0.489583,Eighth,G#5_E5_B4
2646,Right,0,73,80,379.25,0.239583,Sixteenth,C#5
2645,Left,1,59,80,379.25,0.239583,Sixteenth,B3
2649,Left,1,54,80,379.5,0.489583,Eighth,F#3_C#4_A3
2647,Right,0,71,80,379.5,0.489583,Eighth,F#5_D#5_B4
2653,Left,1,59,80,379.75,0.239583,Sixteenth,B3
2654,Right,0,73,80,379.75,0.239583,Sixteenth,C#5
2657,Left,1,61,80,380.0,0.489583,Eighth,F#3_C#4_A3
2655,Right,0,75,80,380.0,0.489583,Eighth,F#5_D#5_B4
2662,Left,1,59,80,380.25,0.239583,Sixteenth,B3
2661,Right,0,73,80,380.25,0.239583,Sixteenth,C#5
2665,Left,1,52,80,380.5,0.489583,Eighth,G#3_E3_C#4
2663,Right,0,80,80,380.5,0.489583,Eighth,G#5_E5_B4
2670,Left,1,59,80,380.75,0.239583,Sixteenth,B3
2669,Right,0,73,80,380.75,0.239583,Sixteenth,C#5
2671,Right,0,81,80,381.0,1.489583,DottedQuarter,F#5_B4_A5
2672,Left,1,51,80,381.0,1.489583,DottedQuarter,F#3_D#3_C#4
2677,Right,0,73,81,381.25,0.239583,Sixteenth,C#5
2678,Left,1,59,81,381.25,0.239583,Sixteenth,B3
2680,Right,0,71,83,381.5,0.239583,Sixteenth,B4
2679,Left,1,61,83,381.5,0.239583,Sixteenth,C#4
2681,Right,0,73,85,381.75,0.239583,Sixteenth,C#5
2682,Left,1,59,85,381.75,0.239583,Sixteenth,B3
2683,Left,1,61,87,382.0,0.239583,Sixteenth,C#4
2684,Right,0,71,87,382.0,0.239583,Sixteenth,B4
2686,Right,0,73,89,382.25,0.239583,Sixteenth,C#5
2685,Left,1,59,89,382.25,0.239583,Sixteenth,B3
2690,Right,0,80,91,382.5,0.489583,Eighth,G#5_E5_B4
2687,Left,1,52,91,382.5,0.489583,Eighth,G#3_E3_C#4
2694,Left,1,59,93,382.75,0.239583,Sixteenth,B3
2693,Right,0,73,93,382.75,0.239583,Sixteenth,C#5
2697,Left,1,54,95,383.0,0.489583,Eighth,F#3_A3
2695,Right,0,78,95,383.0,0.489583,Eighth,F#5_D#5
2700,Left,1,59,97,383.25,0.239583,Sixteenth,B3
2699,Right,0,71,97,383.25,0.239583,Sixteenth,B4
2703,Right,0,81,99,383.5,0.489583,Eighth,C#6_A5
2701,Left,1,47,99,383.5,0.489583,Eighth,D#3_B2
2705,Left,1,59,101,383.75,0.239583,Sixteenth,B3
2706,Right,0,71,101,383.75,0.239583,Sixteenth,B4
2707,Right,0,80,103,384.0,0.489583,Eighth,G#5_B5
2709,Left,1,49,103,384.0,0.489583,Eighth,E3_C#3
2712,Right,0,71,105,384.25,0.239583,Sixteenth,B4
2711,Left,1,59,105,384.25,0.239583,Sixteenth,B3
2713,Left,1,51,107,384.5,0.489583,Eighth,F#3_D#3
2715,Right,0,81,107,384.5,0.489583,Eighth,F#5_A5
2717,Left,1,59,109,384.75,0.239583,Sixteenth,B3
2718,Right,0,71,109,384.75,0.239583,Sixteenth,B4
2720,Left,1,52,110,385.0,0.489583,Eighth,G#3_E3
2719,Right,0,76,110,385.0,0.489583,Eighth,G#5_E5
2724,Left,1,59,109,385.25,0.239583,Sixteenth,B3
2723,Right,0,71,109,385.25,0.239583,Sixteenth,B4
2727,Left,1,52,107,385.5,0.489583,Sixteenth,E3_C#3
2725,Right,0,83,107,385.5,0.489583,Eighth,G#5_B5
2730,Left,1,59,106,385.75,0.239583,Sixteenth,B3
2729,Right,0,71,106,385.75,0.239583,Sixteenth,B4
2731,Right,0,81,104,386.0,0.489583,Eighth,F#5_A5
2732,Left,1,51,104,386.0,0.489583,Eighth,F#3_D#3
2736,Left,1,59,102,386.25,0.239583,Sixteenth,B3
2735,Right,0,71,102,386.25,0.239583,Sixteenth,B4
2738,Right,0,76,101,386.5,0.489583,Eighth,G#5_E5
2737,Left,1,52,101,386.5,0.489583,Eighth,G#3_E3
2741,Left,1,59,99,386.75,0.239583,Sixteenth,B3
2742,Right,0,71,99,386.75,0.239583,Sixteenth,B4
2743,Left,1,57,97,387.0,0.489583,Sixteenth,F#3_A3
2745,Right,0,75,97,387.0,0.489583,Eighth,F#5_D#5
2747,Left,1,59,96,387.25,0.239583,Sixteenth,B3
2748,Right,0,71,96,387.25,0.239583,Sixteenth,B4
2751,Right,0,78,94,387.5,0.489583,Eighth,F#5_A5
2749,Left,1,54,94,387.5,0.489583,Sixteenth,F#3_D#3
2753,Left,1,59,92,387.75,0.239583,Sixteenth,B3
2754,Right,0,71,92,387.75,0.239583,Sixteenth,B4
2757,Right,0,80,91,388.0,0.489583,Eighth,G#5_E5
2755,Left,1,52,91,388.0,0.489583,Eighth,G#3_E3
2759,Right,0,71,89,388.25,0.239583,Sixteenth,B4
2760,Left,1,59,89,388.25,0.239583,Sixteenth,B3
2763,Left,1,54,87,388.5,0.489583,Eighth,F#3_A3
2761,Right,0,78,87,388.5,0.489583,Eighth,F#5_D#5
2765,Right,0,71,86,388.75,0.239583,Sixteenth,B4
2766,Left,1,59,86,388.75,0.239583,Sixteenth,B3
2767,Right,0,76,84,389.0,0.489583,Eighth,E5_B4
2768,Left,1,56,84,389.0,0.239583,Sixteenth,G#3
2770,Left,1,59,82,389.25,0.239583,Sixteenth,B3
2771,Right,0,68,82,389.25,0.239583,Sixteenth,G#4
2773,Left,1,56,81,389.5,0.239583,Sixteenth,G#3
2772,Right,0,71,81,389.5,0.489583,Eighth,D5_B4
2776,Right,0,65,79,389.75,0.239583,Sixteenth,F4
2775,Left,1,59,79,389.75,0.239583,Sixteenth,B3
2777,Right,0,71,77,390.0,0.489583,Eighth,C#5_B4
2778,Left,1,56,77,390.0,0.239583,Sixteenth,G#3
2781,Right,0,65,76,390.25,0.239583,Sixteenth,F4
2780,Left,1,59,76,390.25,0.239583,Sixteenth,B3
2783,Right,0,73,74,390.5,0.489583,Eighth,C#5_B4
2782,Left,1,56,74,390.5,0.239583,Sixteenth,G#3
2786,Right,0,65,72,390.75,0.239583,Sixteenth,F4
2785,Left,1,59,72,390.75,0.239583,Sixteenth,B3
2788,Right,0,73,71,391.0,0.239583,Sixteenth,F4_C#5
2787,Left,1,59,71,391.0,0.489583,Eighth,G#3_B3
2791,Right,0,73,80,391.25,0.239583,Sixteenth,C#5
2792,Right,0,75,80,391.5,0.239583,Sixteenth,D#5
2793,Right,0,77,80,391.75,0.239583,Sixteenth,F5
2794,Right,0,80,80,392.0,0.072917,TripletThirtySecond,G#5
2795,Right,0,78,80,392.083333,0.15625,TripletSixteenth,F#5
2796,Left,1,61,80,392.25,0.239583,Sixteenth,C#4
2797,Right,0,77,80,392.25,0.239583,Sixteenth,F5
2798,Right,0,78,80,392.5,0.239583,Sixteenth,F#5
2799,Left,1,63,80,392.5,0.239583,Sixteenth,D#4
2800,Left,1,65,80,392.75,0.239583,Sixteenth,F4
2801,Right,0,80,80,392.75,0.239583,Sixteenth,G#5
2803,Left,1,66,80,393.0,0.239583,Sixteenth,F#4
2802,Right,0,81,80,393.0,0.239583,Sixteenth,A5
2805,Left,1,61,80,393.25,0.239583,Sixteenth,C#4
2804,Right,0,77,80,393.25,0.239583,Sixteenth,F5
2807,Left,1,63,80,393.5,0.239583,Sixteenth,D#4
2806,Right,0,78,80,393.5,0.239583,Sixteenth,F#5
2809,Left,1,65,80,393.75,0.239583,Sixteenth,F4
2808,Right,0,80,80,393.75,0.239583,Sixteenth,G#5
2811,Right,0,83,80,394.0,0.072917,TripletThirtySecond,B5
2810,Left,1,68,80,394.0,0.072917,TripletThirtySecond,G#4
2813,Right,0,81,80,394.083333,0.15625,TripletSixteenth,A5
2812,Left,1,66,80,394.083333,0.15625,TripletSixteenth,F#4
2814,Right,0,80,80,394.25,0.239583,Sixteenth,G#5
2815,Left,1,65,80,394.25,0.239583,Sixteenth,F4
2817,Right,0,81,80,394.5,0.239583,Sixteenth,A5
2816,Left,1,66,80,394.5,0.239583,Sixteenth,F#4
2819,Left,1,68,80,394.75,0.239583,Sixteenth,G#4
2818,Right,0,83,80,394.75,0.239583,Sixteenth,B5
2820,Left,1,69,80,395.0,0.239583,Sixteenth,A4
2821,Right,0,85,80,395.0,0.239583,Sixteenth,C#6
2822,Right,0,83,80,395.25,0.239583,Sixteenth,B5
2823,Left,1,68,80,395.25,0.239583,Sixteenth,G#4
2824,Right,0,81,80,395.5,0.239583,Sixteenth,A5
2825,Left,1,69,80,395.5,0.239583,Sixteenth,A4
2826,Right,0,80,80,395.75,0.239583,Sixteenth,G#5
2827,Left,1,71,80,395.75,0.239583,Sixteenth,B4
2828,Left,1,73,80,396.0,0.239583,Sixteenth,C#5
2829,Right,0,81,80,396.0,0.239583,Sixteenth,A5
2830,Right,0,80,80,396.25,0.239583,Sixteenth,G#5
2831,Left,1,71,80,396.25,0.239583,Sixteenth,B4
2833,Right,0,78,80,396.5,0.239583,Sixteenth,F#5
2832,Left,1,69,80,396.5,0.239583,Sixteenth,A4
2834,Right,0,85,80,396.75,0.239583,Sixteenth,C#6
2835,Left,1,70,80,396.75,0.239583,Sixteenth,A#4
2837,Left,1,71,80,397.0,0.489583,Eighth,B4
2836,Right,0,80,80,397.0,0.239583,Sixteenth,G#5
2838,Right,0,78,80,397.25,0.239583,Sixteenth,F#5
2839,Right,0,76,80,397.5,0.239583,Sixteenth,E5
2840,Right,0,83,80,397.75,0.239583,Sixteenth,B5
2841,Left,1,59,80,398.0,0.489583,Eighth,B3
2842,Right,0,78,80,398.0,0.239583,Sixteenth,F#5
2843,Right,0,76,80,398.25,0.239583,Sixteenth,E5
2844,Right,0,75,80,398.5,0.239583,Sixteenth,D#5
2845,Right,0,83,80,398.75,0.239583,Sixteenth,B5
2846,Left,1,52,80,399.0,0.322917,Triplet,E3
2847,Right,0,71,80,399.0,1.989583,Half,G#5_B5_B4
2850,Left,1,59,80,399.333333,0.322917,Triplet,B3
2851,Left,1,56,80,399.666667,0.322917,Triplet,G#3
2852,Left,1,52,80,400.0,0.322917,Triplet,E3
2853,Left,1,64,80,400.333333,0.322917,Triplet,E4
2854,Left,1,59,80,400.666667,0.322917,Triplet,B3
2855,Left,1,54,80,401.0,0.322917,Triplet,F#3
2856,Right,0,69,80,401.0,0.989583,Quarter,F#5_A5_A4
2859,Left,1,63,80,401.333333,0.322917,Triplet,D#4
2860,Left,1,59,80,401.666667,0.322917,Triplet,B3
2864,Left,1,56,80,402.0,0.322917,Triplet,G#3
2861,Right,0,71,80,402.0,0.989583,Quarter,G#5_E5_B4
2865,Left,1,64,80,402.333333,0.322917,Triplet,E4
2866,Left,1,59,80,402.666667,0.322917,Triplet,B3
2867,Right,0,73,80,403.0,0.989583,Quarter,F#5_C#5
2869,Left,1,57,80,403.0,0.322917,Triplet,A3
2870,Left,1,66,80,403.333333,0.322917,Triplet,F#4
2871,Left,1,61,80,403.666667,0.322917,Triplet,C#4
2872,Right,0,76,80,404.0,1.989583,Half,E5_C#5
2873,Left,1,58,80,404.0,0.322917,Triplet,A#3
2875,Left,1,67,80,404.333333,0.322917,Triplet,G4
2876,Left,1,64,80,404.666667,0.322917,Triplet,E4
2877,Left,1,59,80,405.0,0.322917,Triplet,B3
2878,Right,0,71,80,405.0,0.989583,Quarter,B4
2879,Left,1,68,80,405.333333,0.322917,Triplet,G#4
2880,Left,1,64,80,405.666667,0.322917,Triplet,E4
2883,Left,1,57,80,406.0,0.322917,Triplet,A3
2881,Right,0,71,80,406.0,0.989583,Quarter,D#5_B4
2884,Left,1,66,80,406.333333,0.322917,Triplet,F#4
2885,Right,0,83,80,406.5,0.489583,Eighth,B5
2886,Left,1,63,80,406.666667,0.322917,Triplet,D#4
2887,Right,0,74,80,407.0,1.989583,Half,D5_B5_B4
2888,Left,1,56,80,407.0,0.239583,Sixteenth,G#3
2891,Left,1,64,81,407.25,0.239583,Sixteenth,E4
2892,Left,1,59,82,407.5,0.239583,Sixteenth,B3
2893,Left,1,56,83,407.75,0.239583,Sixteenth,G#3
2894,Left,1,52,85,408.0,0.239583,Sixteenth,E3
2895,Left,1,59,86,408.25,0.239583,Sixteenth,B3
2896,Left,1,56,87,408.5,0.239583,Sixteenth,G#3
2897,Left,1,52,89,408.75,0.239583,Sixteenth,E3
2899,Right,0,69,90,409.0,0.989583,Quarter,D5_A5_A4
2898,Left,1,54,90,409.0,0.239583,Sixteenth,F#3
2902,Left,1,62,91,409.25,0.239583,Sixteenth,D4
2903,Left,1,57,93,409.5,0.239583,Sixteenth,A3
2904,Left,1,54,94,409.75,0.239583,Sixteenth,F#3
2905,Left,1,56,95,410.0,0.239583,Sixteenth,G#3
2906,Right,0,68,95,410.0,0.989583,Quarter,G#5_G#4_D5_B4
2910,Left,1,64,96,410.25,0.239583,Sixteenth,E4
2911,Left,1,59,98,410.5,0.239583,Sixteenth,B3
2912,Left,1,56,99,410.75,0.239583,Sixteenth,G#3
2915,Left,1,57,100,411.0,0.239583,Sixteenth,A3
2913,Right,0,74,100,411.0,0.989583,Quarter,F#5_D5
2916,Left,1,66,102,411.25,0.239583,Sixteenth,F#4
2917,Left,1,62,103,411.5,0.239583,Sixteenth,D4
2918,Left,1,57,104,411.75,0.239583,Sixteenth,A3
2920,Left,1,59,106,412.0,0.239583,Sixteenth,B3
2919,Right,0,74,106,412.0,0.989583,Quarter,E5_D5
2922,Left,1,68,107,412.25,0.239583,Sixteenth,G#4
2923,Left,1,62,108,412.5,0.239583,Sixteenth,D4
2924,Left,1,59,109,412.75,0.239583,Sixteenth,B3
2925,Right,0,76,110,413.0,0.989583,Quarter,E5_D5_B4
2928,Left,1,56,110,413.0,0.239583,Sixteenth,G#3
2929,Left,1,62,110,413.25,0.239583,Sixteenth,D4
2930,Left,1,59,110,413.5,0.239583,Sixteenth,B3
2931,Left,1,56,110,413.75,0.239583,Sixteenth,G#3
2934,Left,1,53,110,414.0,0.239583,Sixteenth,F3
2932,Right,0,74,110,414.0,0.989583,Quarter,D6_D5
2935,Left,1,62,110,414.25,0.239583,Sixteenth,D4
2936,Left,1,59,110,414.5,0.239583,Sixteenth,B3
2937,Left,1,56,110,414.75,0.239583,Sixteenth,G#3
2939,Left,1,53,110,415.0,0.239583,Sixteenth,F3
2938,Right,0,86,110,415.0,1.989583,Half,D6_D5
2941,Left,1,62,110,415.25,0.239583,Sixteenth,D4
2942,Left,1,59,110,415.5,0.239583,Sixteenth,B3
2943,Left,1,56,110,415.75,0.239583,Sixteenth,G#3
2944,Left,1,53,110,416.0,0.239583,Sixteenth,F3
2945,Left,1,62,110,416.25,0.239583,Sixteenth,D4
2946,Left,1,59,110,416.5,0.239583,Sixteenth,B3
2947,Left,1,56,110,416.75,0.239583,Sixteenth,G#3
2949,Right,0,77,110,417.0,2.239583,Half,F6_F5
2948,Left,1,50,110,417.0,0.239583,Sixteenth,D3
2951,Left,1,59,110,417.25,0.239583,Sixteenth,B3
2952,Left,1,56,110,417.5,0.239583,Sixteenth,G#3
2953,Left,1,53,110,417.75,0.239583,Sixteenth,F3
2954,Left,1,50,110,418.0,0.239583,Sixteenth,D3
2955,Left,1,59,110,418.25,0.239583,Sixteenth,B3
2956,Left,1,56,110,418.5,0.239583,Sixteenth,G#3
2957,Left,1,53,110,418.75,0.239583,Sixteenth,F3
2958,Left,1,47,110,419.0,0.239583,Sixteenth,B2
2960,Left,1,56,106,419.25,0.239583,Sixteenth,G#3
2959,Right,0,65,106,419.25,0.239583,Sixteenth,F4
2962,Right,0,71,102,419.5,0.239583,Sixteenth,B4
2961,Left,1,53,102,419.5,0.239583,Sixteenth,F3
2964,Right,0,74,98,419.75,0.239583,Sixteenth,D5
2963,Left,1,50,98,419.75,0.239583,Sixteenth,D3
2965,Right,0,77,93,420.0,0.239583,Sixteenth,F5
2966,Left,1,47,93,420.0,0.239583,Sixteenth,B2
2968,Right,0,83,89,420.25,0.239583,Sixteenth,B5
2967,Left,1,56,89,420.25,0.239583,Sixteenth,G#3
2969,Left,1,53,85,420.5,0.239583,Sixteenth,F3
2970,Right,0,86,85,420.5,0.239583,Sixteenth,D6
2971,Left,1,50,81,420.75,0.239583,Sixteenth,D3
2972,Right,0,83,81,420.75,0.239583,Sixteenth,B5
2973,Left,1,47,80,421.0,0.239583,Sixteenth,B2
2974,Right,0,89,80,421.0,0.989583,Quarter,F6
2975,Left,1,55,80,421.25,0.239583,Sixteenth,G3
2976,Left,1,53,80,421.5,0.239583,Sixteenth,F3
2977,Left,1,50,80,421.75,0.239583,Sixteenth,D3
2978,Left,1,47,80,422.0,0.239583,Sixteenth,B2
2979,Left,1,55,80,422.25,0.239583,Sixteenth,G3
2981,Left,1,47,80,422.5,0.239583,Sixteenth,B2
2980,Right,0,76,80,422.5,0.489583,Eighth,E5
2982,Left,1,55,80,422.75,0.239583,Sixteenth,G3
2983,Right,0,77,80,423.0,0.489583,Eighth,F5
2984,Left,1,47,80,423.0,0.989583,Quarter,G3_B2
2986,Right,0,80,80,423.5,0.489583,Eighth,G#5
2987,Right,0,79,80,424.0,0.489583,Eighth,G5
2988,Left,1,67,80,424.5,0.489583,Eighth,G4
2989,Right,0,74,80,424.5,0.489583,Eighth,D5
2991,Left,1,67,80,425.0,0.489583,Eighth,G4
2990,Right,0,76,80,425.0,0.489583,Eighth,E5
2992,Left,1,68,80,425.5,0.489583,Eighth,G#4
2993,Right,0,77,80,425.5,0.489583,Eighth,F5
2994,Left,1,67,80,426.0,0.489583,Eighth,G4
2995,Right,0,76,80,426.0,0.489583,Eighth,E5
2998,Right,0,71,80,426.5,0.489583,Eighth,B4
2996,Left,1,55,80,426.5,0.489583,Eighth,G3_D4
3000,Left,1,55,80,427.0,0.489583,Eighth,G3
2999,Right,0,64,80,427.0,1.989583,Half,E4_C5
3002,Left,1,58,80,427.5,0.489583,Eighth,A#3
3004,Left,1,57,80,428.0,0.489583,Eighth,A3
3003,Right,0,73,80,428.0,0.989583,Quarter,C#5
3005,Left,1,55,80,428.5,0.489583,Eighth,G3_E3
3007,Right,0,62,80,429.0,0.989583,Quarter,D5_D4
3009,Left,1,57,80,429.0,0.489583,Eighth,F3_A3
3011,Left,1,58,80,429.5,0.489583,Eighth,G3_A#3
3013,Right,0,81,80,430.0,1.489583,DottedQuarter,A5
3014,Left,1,57,80,430.0,0.489583,Eighth,F3_A3
3016,Left,1,52,80,430.5,0.489583,Eighth,E3_C#3
3018,Left,1,53,80,431.0,0.489583,Eighth,F3_D3
3020,Right,0,82,80,431.5,0.489583,Eighth,A#5
3021,Left,1,65,80,431.5,0.989583,Quarter,F4_D4
3023,Right,0,81,80,432.0,0.489583,Eighth,A5
3024,Left,1,63,80,432.5,0.989583,Quarter,D#4_C4
3025,Right,0,77,80,432.5,0.489583,Eighth,F5
3027,Right,0,82,80,433.0,0.489583,Eighth,A#5
3028,Left,1,61,80,433.5,0.489583,Eighth,C#4_A#3
3030,Right,0,77,80,433.5,0.489583,Eighth,F5
3032,Left,1,58,80,434.0,0.489583,Eighth,C#4_A#3
3031,Right,0,77,80,434.0,0.489583,Eighth,F5
3035,Left,1,59,80,434.5,0.989583,Quarter,G#3_B3
3034,Right,0,73,80,434.5,0.489583,Eighth,C#5
3037,Right,0,78,80,435.0,0.489583,Eighth,F#5
3040,Right,0,73,80,435.5,0.489583,Eighth,C#5
3038,Left,1,54,80,435.5,0.989583,Quarter,F#3_A#3
3041,Right,0,73,80,436.0,0.489583,Eighth,C#5
3043,Left,1,54,80,436.5,0.989583,Quarter,F#3_A#3
3042,Right,0,70,80,436.5,0.489583,Eighth,A#4
3045,Right,0,82,80,437.0,0.489583,Eighth,A#5
3046,Left,1,58,80,437.5,0.989583,Quarter,F#3_A#3
3047,Right,0,78,80,437.5,0.489583,Eighth,F#5
3049,Right,0,78,80,438.0,0.489583,Eighth,F#5
3052,Right,0,73,80,438.5,0.489583,Eighth,C#5
3050,Left,1,58,80,438.5,0.989583,Quarter,F#3_A#3
3053,Right,0,85,80,439.0,0.489583,Eighth,C#6
3054,Right,0,81,85,439.5,0.489583,Eighth,A5
3055,Left,1,61,85,439.5,0.989583,Quarter,F#3_C#4_A#3
3058,Right,0,81,91,440.0,0.489583,Eighth,A5
3059,Left,1,52,97,440.5,0.989583,Quarter,F#3_E3_C#4_A3
3063,Right,0,78,97,440.5,0.489583,Eighth,F#5
3064,Right,0,84,103,441.0,0.489583,Eighth,C6
3066,Left,1,57,109,441.5,0.489583,Eighth,F#3_D#3_B3_A3
3065,Right,0,78,109,441.5,0.489583,Eighth,F#5
3070,Right,0,83,110,442.0,0.489583,Eighth,B5
3071,Left,1,51,110,442.0,0.239583,Sixteenth,D#3
3072,Left,1,59,110,442.25,0.239583,Sixteenth,B3
3074,Right,0,78,110,442.5,0.239583,Sixteenth,F#5
3073,Left,1,51,110,442.5,0.239583,Sixteenth,D#3
3075,Left,1,52,110,442.75,0.239583,Sixteenth,E3
3076,Left,1,54,110,443.0,0.239583,Sixteenth,F#3
3077,Left,1,59,110,443.25,0.239583,Sixteenth,B3
3078,Left,1,54,110,443.5,0.239583,Sixteenth,F#3
3079,Left,1,56,110,443.75,0.239583,Sixteenth,G#3
3081,Right,0,75,110,444.0,0.239583,Sixteenth,D#5
3080,Left,1,57,110,444.0,0.239583,Sixteenth,A3
3083,Left,1,59,110,444.25,0.239583,Sixteenth,B3
3082,Right,0,83,110,444.25,0.239583,Sixteenth,B5
3084,Right,0,75,110,444.5,0.239583,Sixteenth,D#5
3085,Left,1,57,110,444.5,0.239583,Sixteenth,A3
3087,Right,0,76,110,444.75,0.239583,Sixteenth,E5
3086,Left,1,56,110,444.75,0.239583,Sixteenth,G#3
3089,Right,0,78,110,445.0,0.239583,Sixteenth,F#5
3088,Left,1,54,110,445.0,0.239583,Sixteenth,F#3
3090,Right,0,83,110,445.25,0.239583,Sixteenth,B5
3091,Left,1,59,110,445.25,0.239583,Sixteenth,B3
3092,Left,1,54,110,445.5,0.239583,Sixteenth,F#3
3093,Right,0,78,110,445.5,0.239583,Sixteenth,F#5
3095,Left,1,52,110,445.75,0.239583,Sixteenth,E3
3094,Right,0,80,110,445.75,0.239583,Sixteenth,G#5
3096,Right,0,81,110,446.0,0.239583,Sixteenth,A5
3097,Left,1,51,110,446.0,0.239583,Sixteenth,D#3
3098,Right,0,83,110,446.25,0.239583,Sixteenth,B5
3099,Left,1,59,110,446.25,0.239583,Sixteenth,B3
3100,Right,0,81,110,446.5,0.239583,Sixteenth,A5
3101,Left,1,51,110,446.5,0.239583,Sixteenth,D#3
3102,Left,1,52,110,446.75,0.239583,Sixteenth,E3
3103,Right,0,80,110,446.75,0.239583,Sixteenth,G#5
3104,Left,1,54,110,447.0,0.239583,Sixteenth,F#3
3105,Right,0,78,110,447.0,0.239583,Sixteenth,F#5
3106,Left,1,59,110,447.25,0.239583,Sixteenth,B3
3107,Right,0,83,110,447.25,0.239583,Sixteenth,B5
3109,Left,1,54,110,447.5,0.239583,Sixteenth,F#3
3108,Right,0,78,110,447.5,0.239583,Sixteenth,F#5
3111,Left,1,56,110,447.75,0.239583,Sixteenth,G#3
3110,Right,0,76,110,447.75,0.239583,Sixteenth,E5
3112,Right,0,75,110,448.0,0.239583,Sixteenth,D#5
3113,Left,1,57,110,448.0,0.239583,Sixteenth,A3
3115,Left,1,59,109,448.25,0.239583,Sixteenth,B3
3114,Right,0,83,109,448.25,0.239583,Sixteenth,B5
3117,Left,1,57,107,448.5,0.239583,Sixteenth,A3
3116,Right,0,75,107,448.5,0.239583,Sixteenth,D#5
3119,Left,1,56,105,448.75,0.239583,Sixteenth,G#3
3118,Right,0,76,105,448.75,0.239583,Sixteenth,E5
3121,Left,1,54,103,449.0,0.239583,Sixteenth,F#3
3120,Right,0,78,103,449.0,0.239583,Sixteenth,F#5
3122,Left,1,59,101,449.25,0.239583,Sixteenth,B3
3123,Right,0,83,101,449.25,0.239583,Sixteenth,B5
3125,Left,1,54,99,449.5,0.239583,Sixteenth,F#3
3124,Right,0,78,99,449.5,0.239583,Sixteenth,F#5
3126,Left,1,52,97,449.75,0.239583,Sixteenth,E3
3127,Right,0,80,97,449.75,0.239583,Sixteenth,G#5
3129,Left,1,51,95,450.0,0.239583,Sixteenth,D#3
3128,Right,0,81,95,450.0,0.239583,Sixteenth,A5
3130,Left,1,59,93,450.25,0.239583,Sixteenth,B3
3131,Right,0,83,93,450.25,0.239583,Sixteenth,B5
3132,Right,0,81,91,450.5,0.239583,Sixteenth,A5
3133,Left,1,51,91,450.5,0.239583,Sixteenth,D#3
3134,Right,0,80,89,450.75,0.239583,Sixteenth,G#5
3135,Left,1,52,89,450.75,0.239583,Sixteenth,E3
3136,Left,1,54,87,451.0,0.239583,Sixteenth,F#3
3137,Right,0,78,87,451.0,0.239583,Sixteenth,F#5
3139,Right,0,83,85,451.25,0.239583,Sixteenth,B5
3138,Left,1,59,85,451.25,0.239583,Sixteenth,B3
3140,Right,0,78,83,451.5,0.239583,Sixteenth,F#5
3141,Left,1,54,83,451.5,0.239583,Sixteenth,F#3
3143,Left,1,56,81,451.75,0.239583,Sixteenth,G#3
3142,Right,0,76,81,451.75,0.239583,Sixteenth,E5
3145,Right,0,75,80,452.0,0.239583,Sixteenth,D#5
3144,Left,1,57,80,452.0,0.239583,Sixteenth,A3
3146,Right,0,83,80,452.25,0.239583,Sixteenth,B5
3147,Left,1,59,80,452.25,0.239583,Sixteenth,B3
3148,Right,0,75,80,452.5,0.239583,Sixteenth,D#5
3149,Left,1,57,80,452.5,0.239583,Sixteenth,A3
3151,Right,0,76,80,452.75,0.239583,Sixteenth,E5
3150,Left,1,56,80,452.75,0.239583,Sixteenth,G#3
3153,Left,1,54,80,453.0,0.239583,Sixteenth,F#3
3152,Right,0,78,80,453.0,0.239583,Sixteenth,F#5
3154,Right,0,83,80,453.25,0.239583,Sixteenth,B5
3155,Left,1,59,80,453.25,0.239583,Sixteenth,B3
3157,Right,0,78,80,453.5,0.239583,Sixteenth,F#5
3156,Left,1,54,80,453.5,0.239583,Sixteenth,F#3
3158,Right,0,80,80,453.75,0.239583,Sixteenth,G#5
3159,Left,1,52,80,453.75,0.239583,Sixteenth,E3
3161,Left,1,51,80,454.0,0.239583,Sixteenth,D#3
3160,Right,0,81,80,454.0,0.239583,Sixteenth,A5
3162,Left,1,59,80,454.25,0.239583,Sixteenth,B3
3163,Right,0,83,80,454.25,0.239583,Sixteenth,B5
3164,Left,1,51,80,454.5,0.239583,Sixteenth,D#3
3165,Right,0,81,80,454.5,0.239583,Sixteenth,A5
3166,Right,0,80,80,454.75,0.239583,Sixteenth,G#5
3167,Left,1,52,80,454.75,0.239583,Sixteenth,E3
3169,Left,1,54,80,455.0,0.239583,Sixteenth,F#3
3168,Right,0,78,80,455.0,0.239583,Sixteenth,F#5
3171,Left,1,59,80,455.25,0.239583,Sixteenth,B3
3170,Right,0,83,80,455.25,0.239583,Sixteenth,B5
3173,Left,1,54,80,455.5,0.239583,Sixteenth,F#3
3172,Right,0,78,80,455.5,0.239583,Sixteenth,F#5
3174,Right,0,76,80,455.75,0.239583,Sixteenth,E5
3175,Left,1,56,80,455.75,0.239583,Sixteenth,G#3
3177,Right,0,75,80,456.0,0.239583,Sixteenth,D#5
3176,Left,1,57,80,456.0,0.239583,Sixteenth,A3
3179,Right,0,76,80,456.25,0.239583,Sixteenth,E5
3178,Left,1,56,80,456.25,0.239583,Sixteenth,G#3
3181,Right,0,75,80,456.5,0.239583,Sixteenth,D#5
3180,Left,1,57,80,456.5,0.239583,Sixteenth,A3
3183,Left,1,57,80,456.75,0.239583,Sixteenth,A3
3182,Right,0,73,80,456.75,0.239583,Sixteenth,C#5
3184,Left,1,59,80,457.0,0.239583,Sixteenth,B3
3185,Right,0,71,80,457.0,0.239583,Sixteenth,B4
3187,Left,1,58,80,457.25,0.239583,Sixteenth,A#3
3186,Right,0,73,80,457.25,0.239583,Sixteenth,C#5
3189,Right,0,63,80,457.5,0.239583,Sixteenth,D#4
3188,Left,1,57,80,457.5,0.239583,Sixteenth,A3
3190,Right,0,64,80,457.75,0.239583,Sixteenth,E4
3191,Left,1,56,80,457.75,0.239583,Sixteenth,G#3
3192,Left,1,54,80,458.0,0.239583,Sixteenth,F#3
3193,Right,0,66,80,458.0,0.239583,Sixteenth,F#4
3194,Left,1,51,80,458.25,0.239583,Sixteenth,D#3_B2
3196,Right,0,69,80,458.25,0.239583,Sixteenth,A4
3199,Right,0,68,80,458.5,0.239583,Sixteenth,G#4
3197,Left,1,52,80,458.5,0.239583,Sixteenth,E3_C#3
3200,Right,0,66,80,458.75,0.239583,Sixteenth,F#4
3201,Left,1,51,80,458.75,0.239583,Sixteenth,F#3_D#3
3204,Right,0,68,80,459.0,0.239583,Sixteenth,G#4
3203,Left,1,52,80,459.0,0.989583,Eighth,G#3_E3
3206,Right,0,71,80,459.25,0.239583,Sixteenth,B4
3207,Right,0,59,80,459.5,0.239583,Sixteenth,B3
3208,Right,0,71,80,459.75,0.239583,Sixteenth,B4
3210,Left,1,59,80,460.0,0.489583,Eighth,B3
3209,Right,0,68,80,460.0,0.239583,Sixteenth,G#4
3211,Right,0,71,80,460.25,0.239583,Sixteenth,B4
3213,Left,1,57,80,460.5,0.489583,Eighth,A3
3212,Right,0,66,80,460.5,0.239583,Sixteenth,F#4
3214,Right,0,71,80,460.75,0.239583,Sixteenth,B4
3216,Left,1,56,80,461.0,0.489583,Eighth,G#3_B2
3215,Right,0,64,80,461.0,0.239583,Sixteenth,E4
3218,Right,0,71,80,461.25,0.239583,Sixteenth,B4
3219,Right,0,63,80,461.5,0.239583,Sixteenth,D#4
3220,Left,1,54,80,461.5,0.489583,Eighth,F#3
3221,Right,0,71,80,461.75,0.239583,Sixteenth,B4
3222,Right,0,63,80,462.0,0.239583,Sixteenth,D#4
3223,Left,1,54,80,462.0,0.489583,Eighth,F#3
3224,Right,0,71,80,462.25,0.239583,Sixteenth,B4
3226,Right,0,65,80,462.5,0.239583,Sixteenth,F4
3225,Left,1,56,80,462.5,0.489583,Eighth,G#3
3227,Right,0,71,80,462.75,0.239583,Sixteenth,B4
3230,Right,0,66,80,463.0,0.239583,Sixteenth,F#4
3228,Left,1,57,80,463.0,0.489583,Eighth,B2_A3
3231,Right,0,71,80,463.25,0.239583,Sixteenth,B4
3233,Left,1,61,80,463.5,0.489583,Eighth,C#4
3232,Right,0,69,80,463.5,0.239583,Sixteenth,A4
3234,Right,0,71,80,463.75,0.239583,Sixteenth,B4
3237,Right,0,68,80,464.0,0.239583,Sixteenth,G#4
3235,Left,1,59,80,464.0,0.489583,Eighth,B3_B2
3238,Right,0,71,80,464.25,0.239583,Sixteenth,B4
3239,Left,1,54,80,464.5,0.489583,Eighth,F#3_A2
3240,Right,0,71,80,464.5,0.239583,Sixteenth,B4
3242,Right,0,75,80,464.75,0.239583,Sixteenth,D#5
3243,Right,0,71,80,465.0,0.239583,Sixteenth,B4
3244,Left,1,56,80,465.0,0.489583,Eighth,G#3_G#2
3246,Right,0,76,80,465.25,0.239583,Sixteenth,E5
3247,Right,0,71,80,465.5,0.239583,Sixteenth,B4
3248,Right,0,78,80,465.75,0.239583,Sixteenth,F#5
3249,Right,0,71,80,466.0,0.239583,Sixteenth,B4
3250,Right,0,79,80,466.25,0.239583,Sixteenth,G5
3251,Right,0,71,80,466.5,0.239583,Sixteenth,B4
3252,Right,0,80,80,466.75,0.239583,Sixteenth,G#5
3253,Left,1,52,80,467.0,0.239583,Sixteenth,E3
3254,Right,0,80,80,467.0,0.989583,Quarter,G#5_B4
3256,Left,1,64,80,467.25,0.239583,Sixteenth,E4
3257,Right,0,76,80,467.25,0.239583,Sixteenth,E5
3259,Left,1,52,80,467.5,0.239583,Sixteenth,E3
3258,Right,0,71,80,467.5,0.239583,Sixteenth,B4
3261,Right,0,76,80,467.75,0.239583,Sixteenth,E5
3260,Left,1,64,80,467.75,0.239583,Sixteenth,E4
3262,Right,0,76,80,468.0,0.489583,Sixteenth,E5_B5
3264,Left,1,49,80,468.0,0.239583,Sixteenth,C#3
3266,Left,1,61,80,468.25,0.239583,Sixteenth,C#4
3265,Right,0,69,80,468.25,0.239583,Sixteenth,A4
3269,Left,1,45,80,468.5,0.239583,Sixteenth,A2
3267,Right,0,81,80,468.5,0.489583,Eighth,C#5_A5
3271,Left,1,57,80,468.75,0.239583,Sixteenth,A3
3270,Right,0,76,80,468.75,0.239583,Sixteenth,E5
3272,Left,1,47,80,469.0,0.239583,Sixteenth,B2
3273,Right,0,76,80,469.0,0.489583,Sixteenth,G#5_E5
3275,Left,1,59,80,469.25,0.239583,Sixteenth,B3
3276,Right,0,71,80,469.25,0.239583,Sixteenth,B4
3279,Left,1,47,80,469.5,0.239583,Sixteenth,B2
3277,Right,0,78,80,469.5,0.489583,Eighth,F#5_D#5
3280,Left,1,59,80,469.75,0.239583,Sixteenth,B3
3281,Right,0,71,80,469.75,0.239583,Sixteenth,B4
3282,Left,1,57,80,470.0,0.239583,Sixteenth,A3
3283,Right,0,75,80,470.0,0.489583,Sixteenth,F#5_D#5
3286,Left,1,69,80,470.25,0.239583,Sixteenth,A4
3285,Right,0,71,80,470.25,0.239583,Sixteenth,B4
3287,Right,0,76,80,470.5,0.489583,Sixteenth,G#5_E5
3289,Left,1,56,80,470.5,0.239583,Sixteenth,G#3
3291,Left,1,68,80,470.75,0.239583,Sixteenth,G#4
3290,Right,0,71,80,470.75,0.239583,Sixteenth,B4
3292,Right,0,81,80,471.0,0.489583,Eighth,F#5_A5
3293,Left,1,54,80,471.0,0.239583,Sixteenth,F#3
3295,Right,0,71,80,471.25,0.239583,Sixteenth,B4
3296,Left,1,66,80,471.25,0.239583,Sixteenth,F#4
3298,Left,1,52,80,471.5,0.239583,Sixteenth,E3
3297,Right,0,80,80,471.5,0.489583,Sixteenth,G#5_C#6
3300,Left,1,64,80,471.75,0.239583,Sixteenth,E4
3301,Right,0,71,80,471.75,0.239583,Sixteenth,B4
3302,Left,1,51,80,472.0,0.239583,Sixteenth,D#3
3303,Right,0,83,80,472.0,0.489583,Eighth,F#5_B5
3306,Left,1,63,80,472.25,0.239583,Sixteenth,D#4
3305,Right,0,71,80,472.25,0.239583,Sixteenth,B4
3308,Left,1,47,80,472.5,0.239583,Sixteenth,B2
3307,Right,0,75,80,472.5,0.489583,Eighth,D#6_D#5_A5
3311,Left,1,59,80,472.75,0.239583,Sixteenth,B3
3314,Right,0,88,80,473.0,0.239583,Sixteenth,G#5_E6_E5
3312,Left,1,64,80,473.0,0.989583,Quarter,E4_E3
3317,Right,0,76,80,473.25,0.239583,Sixteenth,E5
3318,Right,0,71,80,473.5,0.239583,Sixteenth,B4
3319,Right,0,68,80,473.75,0.239583,Sixteenth,G#4
3320,Right,0,71,80,474.0,0.239583,Sixteenth,B4
3321,Right,0,68,80,474.25,0.239583,Sixteenth,G#4
3322,Left,1,51,80,474.5,0.489583,Eighth,D#3_B3
3324,Right,0,66,80,474.5,0.239583,Sixteenth,F#4
3325,Right,0,75,80,474.75,0.239583,Sixteenth,D#5
3326,Right,0,66,80,475.0,0.239583,Sixteenth,F#4
3327,Left,1,49,80,475.0,0.989583,Quarter,C#3_A#3
3329,Right,0,76,80,475.25,0.239583,Sixteenth,E5
3330,Right,0,73,80,475.5,0.239583,Sixteenth,C#5
3331,Right,0,66,80,475.75,0.239583,Sixteenth,F#4
3333,Right,0,66,80,476.0,0.239583,Sixteenth,F#4
3332,Left,1,58,80,476.0,0.989583,Quarter,E4_A#3
3335,Right,0,78,80,476.25,0.239583,Sixteenth,F#5
3336,Right,0,73,80,476.5,0.239583,Sixteenth,C#5
3337,Right,0,66,80,476.75,0.239583,Sixteenth,F#4
3340,Right,0,66,80,477.0,0.239583,Sixteenth,F#4
3338,Left,1,63,80,477.0,0.989583,Quarter,D#4_B3
3341,Right,0,75,80,477.25,0.239583,Sixteenth,D#5
3342,Right,0,71,80,477.5,0.239583,Sixteenth,B4
3343,Right,0,66,80,477.75,0.239583,Sixteenth,F#4
3346,Right,0,63,80,478.0,0.239583,Sixteenth,D#4
3344,Left,1,59,80,478.0,0.489583,Eighth,B3_B2
3347,Right,0,71,80,478.25,0.239583,Sixteenth,B4
3348,Left,1,49,80,478.5,0.489583,Eighth,C#3_A3
3350,Right,0,64,80,478.5,0.239583,Sixteenth,E4
3351,Right,0,69,80,478.75,0.239583,Sixteenth,A4
3352,Left,1,50,80,479.0,0.989583,Quarter,G#3_D3
3354,Right,0,64,80,479.0,0.239583,Sixteenth,E4
3355,Right,0,71,80,479.25,0.239583,Sixteenth,B4
3356,Right,0,68,80,479.5,0.239583,Sixteenth,G#4
3357,Right,0,64,80,479.75,0.239583,Sixteenth,E4
3360,Right,0,64,80,480.0,0.239583,Sixteenth,E4
3358,Left,1,56,80,480.0,0.989583,Quarter,G#3_D4
3361,Right,0,76,80,480.25,0.239583,Sixteenth,E5
3362,Right,0,71,80,480.5,0.239583,Sixteenth,B4
3363,Right,0,64,80,480.75,0.239583,Sixteenth,E4
3364,Left,1,57,80,481.0,1.489583,DottedQuarter,C#4_A3
3366,Right,0,64,80,481.0,0.239583,Sixteenth,E4
3367,Right,0,76,80,481.25,0.239583,Sixteenth,E5
3368,Right,0,73,80,481.5,0.239583,Sixteenth,C#5
3369,Right,0,69,80,481.75,0.239583,Sixteenth,A4
3370,Right,0,64,80,482.0,0.239583,Sixteenth,E4
3371,Right,0,76,80,482.25,0.239583,Sixteenth,E5
3373,Left,1,61,80,482.5,0.489583,Eighth,C#4_A3
3372,Right,0,64,80,482.5,0.239583,Sixteenth,E4
3375,Right,0,76,81,482.75,0.239583,Sixteenth,E5
3376,Left,1,60,83,483.0,0.489583,Eighth,G#3_C4
3377,Right,0,64,83,483.0,0.239583,Sixteenth,E4
3379,Right,0,76,85,483.25,0.239583,Sixteenth,E5
3381,Left,1,61,87,483.5,0.489583,Eighth,C#4_A3
3380,Right,0,64,87,483.5,0.239583,Sixteenth,E4
3383,Right,0,76,88,483.75,0.239583,Sixteenth,E5
3384,Left,1,49,90,484.0,0.489583,Eighth,C#3_A3
3386,Right,0,64,90,484.0,0.239583,Sixteenth,E4
3387,Right,0,76,92,484.25,0.239583,Sixteenth,E5
3388,Left,1,47,94,484.5,0.489583,Eighth,G#3_B2
3390,Right,0,64,94,484.5,0.239583,Sixteenth,E4
3391,Right,0,76,95,484.75,0.239583,Sixteenth,E5
3392,Left,1,56,97,485.0,0.489583,Eighth,G#3_B2
3394,Right,0,64,97,485.0,0.239583,Sixteenth,E4
3395,Right,0,76,99,485.25,0.239583,Sixteenth,E5
3398,Right,0,64,101,485.5,0.239583,Sixteenth,E4
3396,Left,1,46,101,485.5,0.989583,Quarter,F#3_A#2
3399,Right,0,76,102,485.75,0.239583,Sixteenth,E5
3400,Right,0,64,104,486.0,0.239583,Sixteenth,E4
3401,Right,0,76,106,486.25,0.239583,Sixteenth,E5
3404,Right,0,64,108,486.5,0.239583,Sixteenth,E4
3402,Left,1,54,108,486.5,0.489583,Eighth,F#3_A#2
3405,Right,0,76,93,486.75,0.239583,Sixteenth,E5
3406,Right,0,63,80,487.0,0.239583,Sixteenth,D#4
3407,Left,1,54,80,487.0,1.989583,Eighth,F#3_B2
3409,Right,0,75,80,487.25,0.239583,Sixteenth,D#5
3410,Right,0,71,80,487.5,0.239583,Sixteenth,B4
3411,Left,1,59,80,487.5,0.489583,Eighth,B3
3412,Right,0,66,80,487.75,0.239583,Sixteenth,F#4
3414,Right,0,66,80,488.0,0.239583,Sixteenth,F#4
3413,Left,1,58,80,488.0,0.489583,Eighth,A#3
3415,Right,0,78,80,488.25,0.239583,Sixteenth,F#5
3416,Left,1,59,80,488.5,0.489583,Eighth,B3
3417,Right,0,75,80,488.5,0.239583,Sixteenth,D#5
3418,Right,0,69,80,488.75,0.239583,Sixteenth,A4
3419,Left,1,56,80,489.0,0.239583,Sixteenth,G#3_E3
3420,Right,0,68,80,489.0,0.989583,Quarter,G#4
3422,Left,1,59,80,489.25,0.239583,Sixteenth,B3
3423,Left,1,56,80,489.5,0.239583,Sixteenth,G#3
3424,Left,1,52,80,489.75,0.239583,Sixteenth,E3
3425,Left,1,51,80,490.0,0.239583,Sixteenth,D#3
3426,Left,1,59,80,490.25,0.239583,Sixteenth,B3
3427,Right,0,71,80,490.5,0.489583,Eighth,B5_B4
3429,Left,1,54,80,490.5,0.239583,Sixteenth,F#3
3430,Left,1,51,80,490.75,0.239583,Sixteenth,D#3
3432,Right,0,82,80,491.0,0.989583,Quarter,A#5_A#4
3431,Left,1,49,80,491.0,0.239583,Sixteenth,C#3
3434,Left,1,58,80,491.25,0.239583,Sixteenth,A#3
3435,Left,1,54,80,491.5,0.239583,Sixteenth,F#3
3436,Left,1,49,80,491.75,0.239583,Sixteenth,C#3
3439,Left,1,42,80,492.0,0.239583,Sixteenth,F#2
3437,Right,0,88,80,492.0,0.989583,Quarter,E6_E5
3440,Left,1,58,80,492.25,0.239583,Sixteenth,A#3
3441,Left,1,54,80,492.5,0.239583,Sixteenth,F#3
3442,Left,1,49,80,492.75,0.239583,Sixteenth,C#3
3445,Left,1,47,80,493.0,0.239583,Sixteenth,B2
3443,Right,0,87,80,493.0,1.489583,DottedQuarter,D#6_D#5
3446,Left,1,59,80,493.25,0.239583,Sixteenth,B3
3447,Left,1,54,80,493.5,0.239583,Sixteenth,F#3
3448,Left,1,51,80,493.75,0.239583,Sixteenth,D#3
3449,Left,1,47,80,494.0,0.239583,Sixteenth,B2
3450,Left,1,59,80,494.25,0.239583,Sixteenth,B3
3453,Left,1,49,80,494.5,0.239583,Sixteenth,C#3
3451,Right,0,69,80,494.5,0.489583,Eighth,A5_A4
3454,Left,1,57,80,494.75,0.239583,Sixteenth,A3
3457,Left,1,47,80,495.0,0.239583,Sixteenth,B2
3455,Right,0,80,80,495.0,0.989583,Quarter,G#5_G#4
3458,Left,1,56,80,495.25,0.239583,Sixteenth,G#3
3459,Left,1,52,80,495.5,0.239583,Sixteenth,E3
3460,Left,1,47,80,495.75,0.239583,Sixteenth,B2
3462,Right,0,86,80,496.0,0.989583,Quarter,D6_D5
3461,Left,1,40,80,496.0,0.239583,Sixteenth,E2
3464,Left,1,56,80,496.25,0.239583,Sixteenth,G#3
3465,Left,1,52,80,496.5,0.239583,Sixteenth,E3
3466,Left,1,47,80,496.75,0.239583,Sixteenth,B2
3469,Left,1,45,80,497.0,0.239583,Sixteenth,A2
3467,Right,0,85,80,497.0,1.489583,DottedQuarter,C#6_C#5
3470,Left,1,57,80,497.25,0.239583,Sixteenth,A3
3471,Left,1,52,80,497.5,0.239583,Sixteenth,E3
3472,Left,1,49,80,497.75,0.239583,Sixteenth,C#3
3473,Left,1,45,80,498.0,0.239583,Sixteenth,A2
3474,Left,1,52,80,498.25,0.239583,Sixteenth,E3
3475,Right,0,73,80,498.5,0.489583,Eighth,C#6_C#5
3477,Left,1,44,80,498.5,0.239583,Sixteenth,G#2
3478,Left,1,52,81,498.75,0.239583,Sixteenth,E3
3481,Left,1,44,83,499.0,0.239583,Sixteenth,G#2
3479,Right,0,84,83,499.0,0.489583,Eighth,C6_C5
3482,Left,1,52,85,499.25,0.239583,Sixteenth,E3
3483,Left,1,45,87,499.5,0.239583,Sixteenth,A2
3484,Right,0,73,87,499.5,0.489583,Eighth,C#6_C#5
3486,Left,1,52,88,499.75,0.239583,Sixteenth,E3
3489,Left,1,45,90,500.0,0.239583,Sixteenth,C#3_A2
3487,Right,0,81,90,500.0,0.489583,Eighth,A5_A4
3491,Left,1,52,92,500.25,0.239583,Sixteenth,E3
3493,Left,1,47,94,500.5,0.239583,Sixteenth,E3_B2
3492,Right,0,80,94,500.5,0.489583,Eighth,G#5_G#4
3496,Left,1,56,95,500.75,0.239583,Sixteenth,G#3
3499,Right,0,68,97,501.0,0.489583,Eighth,G#5_G#4
3497,Left,1,49,97,501.0,0.239583,Sixteenth,E3_C#3
3501,Left,1,58,99,501.25,0.239583,Sixteenth,A#3
3502,Left,1,49,101,501.5,0.239583,Sixteenth,E3_C#3
3503,Right,0,66,101,501.5,0.989583,Quarter,F#5_F#4
3506,Left,1,58,102,501.75,0.239583,Sixteenth,A#3
3507,Left,1,52,104,502.0,0.239583,Sixteenth,E3_C3
3509,Left,1,57,106,502.25,0.239583,Sixteenth,A3
3512,Right,0,66,108,502.5,0.489583,Eighth,F#5_F#4
3510,Left,1,48,108,502.5,0.239583,Sixteenth,E3_C3
3514,Left,1,57,96,502.75,0.239583,Sixteenth,A3
3515,Left,1,47,80,503.0,0.239583,Sixteenth,B2
3516,Right,0,66,80,503.0,0.489583,Eighth,F#5_F#4
3518,Left,1,54,80,503.25,0.239583,Sixteenth,F#3_D#3_A3
3521,Left,1,47,80,503.5,0.239583,Sixteenth,B2
3522,Right,0,83,80,503.5,0.489583,Eighth,B5_B4
3524,Left,1,54,80,503.75,0.239583,Sixteenth,F#3_D#3_A3
3529,Left,1,47,80,504.0,0.239583,Sixteenth,B2
3527,Right,0,70,80,504.0,0.489583,Eighth,A#5_A#4
3530,Left,1,57,80,504.25,0.239583,Sixteenth,F#3_D#3_A3
3534,Right,0,71,80,504.5,0.489583,Eighth,B5_B4
3533,Left,1,47,80,504.5,0.239583,Sixteenth,B2
3536,Left,1,54,80,504.75,0.239583,Sixteenth,F#3_D#3_A3
3539,Left,1,47,80,505.0,0.239583,Sixteenth,B2
3540,Right,0,64,80,505.0,0.489583,Eighth,E5_E4
3542,Left,1,52,80,505.25,0.239583,Sixteenth,G#3_E3
3544,Left,1,47,80,505.5,0.239583,Sixteenth,B2
3545,Right,0,71,80,505.5,0.489583,Eighth,B5_B4
3547,Left,1,52,80,505.75,0.239583,Sixteenth,G#3_E3
3550,Right,0,70,80,506.0,0.489583,Eighth,A#5_A#4
3549,Left,1,47,80,506.0,0.239583,Sixteenth,B2
3552,Left,1,56,80,506.25,0.239583,Sixteenth,G#3_E3
3554,Left,1,47,80,506.5,0.239583,Sixteenth,B2
3555,Right,0,71,80,506.5,0.489583,Eighth,B5_B4
3557,Left,1,52,80,506.75,0.239583,Sixteenth,G#3_E3
3559,Left,1,47,80,507.0,1.989583,Half,F#3_B2
3561,Right,0,75,80,507.25,0.239583,Sixteenth,D#5
3562,Right,0,83,80,507.5,0.239583,Sixteenth,B5
3563,Left,1,59,80,507.5,0.489583,Eighth,B3
3564,Right,0,81,80,507.75,0.239583,Sixteenth,A5
3565,Right,0,78,80,508.0,0.239583,Sixteenth,F#5
3566,Left,1,58,80,508.0,0.489583,Eighth,A#3
3567,Right,0,75,80,508.25,0.239583,Sixteenth,D#5
3568,Left,1,59,80,508.5,0.489583,Eighth,B3
3569,Right,0,71,80,508.5,0.239583,Sixteenth,B4
3570,Right,0,69,80,508.75,0.239583,Sixteenth,A4
3571,Left,1,47,80,509.0,1.989583,Half,E3_B2
3573,Right,0,68,80,509.25,0.239583,Sixteenth,G#4
3574,Right,0,83,80,509.5,0.239583,Sixteenth,B5
3575,Left,1,59,80,509.5,0.489583,Eighth,B3
3576,Right,0,80,80,509.75,0.239583,Sixteenth,G#5
3578,Right,0,76,80,510.0,0.239583,Sixteenth,E5
3577,Left,1,58,80,510.0,0.489583,Eighth,A#3
3579,Right,0,71,80,510.25,0.239583,Sixteenth,B4
3581,Right,0,69,80,510.5,0.239583,Sixteenth,A4
3580,Left,1,59,80,510.5,0.489583,Eighth,B3
3582,Right,0,68,80,510.75,0.239583,Sixteenth,G#4
3583,Right,0,66,80,511.0,0.489583,Eighth,F#5_F#4
3584,Left,1,47,80,511.0,0.239583,Sixteenth,B2
3586,Left,1,57,81,511.25,0.239583,Sixteenth,F#3_D#3_A3
3590,Left,1,47,82,511.5,0.239583,Sixteenth,B2
3589,Right,0,83,82,511.5,0.489583,Eighth,B5_B4
3592,Left,1,57,83,511.75,0.239583,Sixteenth,F#3_D#3_A3
3595,Left,1,47,85,512.0,0.239583,Sixteenth,B2
3596,Right,0,70,85,512.0,0.489583,Eighth,A#5_A#4
3598,Left,1,51,86,512.25,0.239583,Sixteenth,F#3_D#3_A3
3603,Left,1,47,87,512.5,0.239583,Sixteenth,B2
3601,Right,0,83,87,512.5,0.489583,Eighth,B5_B4
3604,Left,1,57,89,512.75,0.239583,Sixteenth,F#3_D#3_A3
3609,Left,1,47,90,513.0,0.239583,Sixteenth,B2
3607,Right,0,65,90,513.0,0.489583,Eighth,F5_F4
3610,Left,1,50,91,513.25,0.239583,Sixteenth,G#3_F3_D3
3613,Left,1,47,93,513.5,0.239583,Sixteenth,B2
3614,Right,0,74,93,513.5,0.489583,Eighth,D6_D5
3616,Left,1,53,94,513.75,0.239583,Sixteenth,G#3_F3_D3
3621,Left,1,47,95,514.0,0.239583,Sixteenth,B2
3619,Right,0,85,95,514.0,0.489583,Eighth,C#6_C#5
3622,Left,1,50,96,514.25,0.239583,Sixteenth,G#3_F3_D3
3626,Right,0,86,98,514.5,0.489583,Eighth,D6_D5
3625,Left,1,47,98,514.5,0.239583,Sixteenth,B2
3628,Left,1,56,99,514.75,0.239583,Sixteenth,G#3_F3_D3
3632,Right,0,85,100,515.0,0.489583,Eighth,C#6
3631,Left,1,45,100,515.0,0.239583,Sixteenth,A2
3633,Left,1,49,102,515.25,0.239583,Sixteenth,F#3_C#3
3636,Right,0,78,103,515.5,0.489583,Eighth,F#5
3635,Left,1,45,103,515.5,0.239583,Sixteenth,A2
3637,Left,1,49,104,515.75,0.239583,Sixteenth,F#3_C#3
3639,Right,0,81,106,516.0,0.489583,Eighth,A5
3640,Left,1,45,106,516.0,0.239583,Sixteenth,A2
3641,Left,1,49,107,516.25,0.239583,Sixteenth,F#3_C#3
3644,Right,0,73,108,516.5,0.489583,Eighth,C#5
3643,Left,1,45,108,516.5,0.239583,Sixteenth,A2
3645,Left,1,54,109,516.75,0.239583,Sixteenth,F#3_C#3
3647,Right,0,78,110,517.0,0.489583,Eighth,F#5
3648,Left,1,46,110,517.0,0.239583,Sixteenth,A#2
3649,Left,1,52,109,517.25,0.239583,Sixteenth,F#3_E3_C#3
3652,Left,1,46,107,517.5,0.239583,Sixteenth,A#2
3653,Right,0,73,107,517.5,0.489583,Eighth,C#5
3654,Left,1,49,105,517.75,0.239583,Sixteenth,F#3_E3_C#3
3658,Left,1,46,103,518.0,0.239583,Sixteenth,A#2
3657,Right,0,76,103,518.0,0.489583,Eighth,E5
3659,Left,1,49,101,518.25,0.239583,Sixteenth,F#3_E3_C#3
3663,Left,1,46,99,518.5,0.239583,Sixteenth,A#2
3662,Right,0,66,99,518.5,0.489583,Eighth,F#4
3664,Left,1,54,97,518.75,0.239583,Sixteenth,F#3_E3_C#3
3668,Left,1,47,95,519.0,0.239583,Sixteenth,B2
3667,Right,0,71,95,519.0,0.489583,Eighth,B4
3669,Left,1,52,93,519.25,0.239583,Sixteenth,G#3_E3
3671,Left,1,47,91,519.5,0.239583,Sixteenth,B2
3672,Right,0,68,91,519.5,0.489583,Eighth,G#4
3673,Left,1,52,89,519.75,0.239583,Sixteenth,G#3_E3
3676,Right,0,71,87,520.0,0.489583,Eighth,B4
3675,Left,1,47,87,520.0,0.239583,Sixteenth,B2
3677,Left,1,52,85,520.25,0.239583,Sixteenth,G#3_E3
3679,Right,0,64,83,520.5,0.489583,Eighth,E4
3680,Left,1,47,83,520.5,0.239583,Sixteenth,B2
3681,Left,1,52,81,520.75,0.239583,Sixteenth,G#3_E3
3683,Left,1,47,80,521.0,0.239583,Sixteenth,B2
3684,Right,0,63,80,521.0,0.489583,Eighth,D#4
3685,Left,1,54,80,521.25,0.239583,Sixteenth,F#3
3687,Left,1,47,80,521.5,0.239583,Sixteenth,B2
3686,Right,0,71,80,521.5,0.489583,Eighth,B4
3688,Left,1,51,80,521.75,0.239583,Sixteenth,D#3
3691,Left,1,47,80,522.0,0.239583,Sixteenth,B2
3689,Right,0,66,80,522.0,0.489583,Eighth,F#4_D#4
3692,Left,1,59,80,522.25,0.239583,Sixteenth,B3
3695,Left,1,47,80,522.5,0.239583,Sixteenth,B2
3693,Right,0,71,80,522.5,0.489583,Eighth,D#4_B4
3696,Left,1,59,80,522.75,0.239583,Sixteenth,B3
3697,Left,1,59,80,523.0,0.989583,Quarter,B3
3698,Right,0,62,81,523.25,0.239583,Sixteenth,D4
3699,Right,0,68,83,523.5,0.239583,Sixteenth,G#4
3700,Right,0,65,85,523.75,0.239583,Sixteenth,F4
3701,Left,1,57,87,524.0,0.989583,Quarter,A3
3702,Right,0,61,89,524.25,0.239583,Sixteenth,C#4
3703,Right,0,69,91,524.5,0.239583,Sixteenth,A4
3704,Right,0,66,93,524.75,0.239583,Sixteenth,F#4
3705,Left,1,56,95,525.0,0.989583,Quarter,G#3_B3
3707,Right,0,71,97,525.25,0.239583,Sixteenth,B4
3708,Right,0,83,99,525.5,0.239583,Sixteenth,B5
3709,Right,0,80,101,525.75,0.239583,Sixteenth,G#5
3710,Left,1,54,103,526.0,0.989583,Quarter,F#3_A3
3712,Right,0,73,105,526.25,0.239583,Sixteenth,C#5
3713,Right,0,85,107,526.5,0.239583,Sixteenth,C#6
3714,Right,0,81,109,526.75,0.239583,Sixteenth,A5
3715,Left,1,53,110,527.0,0.489583,Eighth,G#3_F3
3717,Right,0,74,110,527.25,0.239583,Sixteenth,D5
3718,Right,0,86,110,527.5,0.239583,Sixteenth,D6
3719,Right,0,83,110,527.75,0.239583,Sixteenth,B5
3720,Left,1,56,110,528.0,0.489583,Eighth,G#3_F3
3722,Right,0,73,110,528.25,0.239583,Sixteenth,C#5
3723,Right,0,85,110,528.5,0.239583,Sixteenth,C#6
3724,Right,0,83,110,528.75,0.239583,Sixteenth,B5
3725,Left,1,61,80,530.5,0.239583,Sixteenth,C#4
3726,Left,1,63,80,530.75,0.239583,Sixteenth,D#4
3727,Left,1,58,80,531.0,1.989583,Half,E4_A#3
3729,Left,1,67,80,531.5,0.489583,Eighth,G4
3730,Left,1,66,80,532.0,0.489583,Eighth,F#4
3731,Left,1,61,80,532.5,0.489583,Eighth,C#4
3732,Left,1,59,80,533.0,7.489583,Unknown,D#4_B3
3733,Right,0,78,80,533.0,0.489583,Eighth,F#5
3735,Right,0,85,80,533.5,0.489583,Eighth,C#6
3736,Right,0,83,80,534.0,0.489583,Eighth,B5
3737,Right,0,78,80,534.5,0.489583,Eighth,F#5
3738,Right,0,81,80,535.0,2.489583,Half,A5
3739,Left,1,66,80,535.5,0.489583,Eighth,F#4
3740,Left,1,64,80,536.0,0.489583,Eighth,E4
3741,Left,1,61,80,536.5,0.489583,Eighth,C#4
3742,Left,1,64,80,537.0,2.489583,Half,E4
3743,Right,0,81,80,537.5,0.489583,Eighth,A5
3744,Right,0,80,80,538.0,0.489583,Eighth,G#5
3745,Right,0,76,80,538.5,0.489583,Eighth,E5
3746,Right,0,80,80,539.0,2.489583,Half,G#5
3747,Left,1,64,80,539.5,0.489583,Eighth,E4
3748,Left,1,63,80,540.0,0.489583,Eighth,D#4
3749,Left,1,59,80,540.5,0.489583,Eighth,B3
3750,Left,1,63,80,541.0,0.489583,Eighth,D#4
3751,Left,1,58,80,541.5,0.489583,Eighth,A#3
3752,Right,0,80,80,541.5,0.489583,Eighth,G#5_E5
3756,Left,1,59,80,542.0,0.489583,Eighth,B3
3754,Right,0,78,80,542.0,0.489583,Eighth,F#5_D#5
3758,Right,0,75,80,542.5,0.489583,Eighth,D#5_B4
3757,Left,1,63,80,542.5,0.489583,Eighth,D#4
3761,Left,1,59,80,543.0,0.489583,Eighth,B3
3760,Right,0,78,80,543.0,0.489583,Eighth,F#5_D#5
3765,Left,1,56,80,543.5,0.489583,Eighth,G#3
3763,Right,0,78,80,543.5,0.489583,Eighth,F#5_C5
3768,Right,0,73,80,544.0,0.489583,Eighth,E5_C#5
3766,Left,1,57,80,544.0,0.489583,Eighth,B2_A3
3770,Right,0,69,80,544.5,0.489583,Eighth,C#5_A4
3771,Left,1,61,80,544.5,0.489583,Eighth,C#4
3775,Left,1,57,80,545.0,0.489583,Eighth,A3
3773,Right,0,73,80,545.0,0.489583,Eighth,E5_C#5
3778,Left,1,55,80,545.5,0.489583,Eighth,G3
3776,Right,0,76,80,545.5,0.489583,Eighth,E5_A#4
3779,Left,1,47,80,546.0,0.489583,Eighth,G#3_B2
3780,Right,0,71,80,546.0,0.489583,Eighth,D#5_B4
3783,Right,0,68,80,546.5,0.489583,Eighth,G#4_B4
3785,Left,1,59,80,546.5,0.489583,Eighth,B3
3786,Right,0,74,80,547.0,0.489583,Eighth,D5_B4
3787,Left,1,56,80,547.0,0.489583,Eighth,G#3
3789,Left,1,53,80,547.5,0.489583,Eighth,F3
3790,Right,0,68,80,547.5,0.489583,Eighth,G#4_D5
3793,Left,1,47,80,548.0,0.489583,Eighth,F#3_B2
3792,Right,0,73,80,548.0,0.489583,Eighth,C#5_A4
3796,Left,1,57,80,548.5,0.989583,Eighth,B2_A3
3798,Right,0,72,80,548.5,0.489583,Eighth,D#4_C5
3801,Right,0,71,80,549.0,0.489583,Eighth,E4_B4
3800,Left,1,56,80,549.0,0.489583,Eighth,G#3
3805,Right,0,61,80,549.5,0.489583,Eighth,C#4_B4
3803,Left,1,52,80,549.5,0.989583,Eighth,E3_B2
3809,Left,1,54,80,550.0,0.239583,Sixteenth,F#3
3807,Right,0,63,80,550.0,0.239583,Sixteenth,D#4_A4
3810,Right,0,66,80,550.25,0.239583,Sixteenth,F#4
3811,Left,1,57,80,550.25,0.239583,Sixteenth,A3
3814,Right,0,64,80,550.5,0.239583,Sixteenth,E4
3812,Left,1,47,80,550.5,0.489583,Eighth,G#3_B2
3816,Right,0,66,80,550.75,0.239583,Sixteenth,F#4
3815,Left,1,54,80,550.75,0.239583,Sixteenth,F#3
3817,Right,0,68,80,551.0,0.989583,Quarter,G#4_E4
3818,Left,1,40,80,551.0,0.489583,Eighth,E3_E2
3821,Right,0,59,80,551.25,0.239583,Sixteenth,B3
3822,Right,0,64,80,551.5,0.239583,Sixteenth,E4
3823,Right,0,59,80,551.75,0.239583,Sixteenth,B3
3824,Right,0,68,80,552.0,0.489583,Sixteenth,G#4_B4
3826,Right,0,59,80,552.25,0.239583,Sixteenth,B3
3827,Right,0,66,80,552.5,0.489583,Sixteenth,F#4_A4
3829,Right,0,59,80,552.75,0.239583,Sixteenth,B3
3832,Left,1,47,80,553.0,0.489583,Eighth,B2_B1
3830,Right,0,64,80,553.0,0.489583,Sixteenth,G#4_E4
3834,Right,0,59,80,553.25,0.239583,Sixteenth,B3
3835,Right,0,63,80,553.5,0.489583,Sixteenth,F#4_D#4
3837,Right,0,59,80,553.75,0.239583,Sixteenth,B3
3838,Right,0,63,80,554.0,0.489583,Sixteenth,F#4_D#4
3840,Right,0,59,80,554.25,0.239583,Sixteenth,B3
3841,Right,0,68,80,554.5,0.489583,Eighth,G#4_E4
3843,Right,0,59,80,554.75,0.239583,Sixteenth,B3
3846,Right,0,69,80,555.0,0.489583,Eighth,E4_A4
3844,Left,1,37,80,555.0,0.489583,Eighth,C#3_C#2
3848,Right,0,59,80,555.25,0.239583,Sixteenth,B3
3849,Right,0,73,80,555.5,0.489583,Eighth,E4_C#5
3851,Right,0,59,80,555.75,0.239583,Sixteenth,B3
3854,Left,1,51,80,556.0,0.489583,Eighth,D#3_D#2
3852,Right,0,71,80,556.0,0.489583,Eighth,F#4_B4
3856,Right,0,59,80,556.25,0.239583,Sixteenth,B3
3857,Right,0,63,80,556.5,0.489583,Sixteenth,F#4_D#4
3858,Left,1,47,80,556.5,0.489583,Eighth,B2_B1
3861,Right,0,59,80,556.75,0.489583,Eighth,B3
3864,Right,0,68,80,557.0,0.989583,Quarter,G#4
3862,Left,1,52,80,557.0,0.989583,Quarter,E3_E2
3865,Right,0,59,80,557.25,0.239583,Sixteenth,B3
3866,Right,0,64,80,557.5,0.239583,Sixteenth,E4
3867,Right,0,59,80,557.75,0.239583,Sixteenth,B3
3868,Right,0,64,80,558.0,0.239583,Sixteenth,E4
3869,Right,0,59,80,558.25,0.239583,Sixteenth,B3
3870,Left,1,47,80,558.5,0.489583,Eighth,B2
3871,Right,0,68,80,558.5,0.489583,Eighth,G#4_E4
3873,Right,0,59,80,558.75,0.239583,Sixteenth,B3
3874,Left,1,49,80,559.0,0.989583,Quarter,C#3
3875,Right,0,64,80,559.0,0.489583,Sixteenth,E4_A4
3877,Right,0,59,80,559.25,0.239583,Sixteenth,B3
3878,Right,0,64,80,559.5,0.489583,Sixteenth,E4_C#5
3880,Right,0,59,80,559.75,0.239583,Sixteenth,B3
3883,Left,1,51,80,560.0,0.489583,Eighth,D#3
3881,Right,0,66,80,560.0,0.489583,Sixteenth,F#4_B4
3884,Right,0,59,80,560.25,0.239583,Sixteenth,B3
3885,Left,1,47,80,560.5,0.489583,Eighth,B2_A3
3887,Right,0,63,80,560.5,0.489583,Sixteenth,F#4_D#4
3889,Right,0,59,80,560.75,0.239583,Sixteenth,B3
3893,Left,1,52,80,561.0,0.239583,Sixteenth,G#3_E3
3890,Right,0,68,80,561.0,0.989583,Quarter,G#4_E4_B3
3895,Left,1,47,80,561.25,0.239583,Sixteenth,B2
3896,Left,1,56,80,561.5,0.239583,Sixteenth,G#3_E3
3898,Left,1,47,80,561.75,0.239583,Sixteenth,B2
3899,Left,1,56,80,562.0,0.239583,Sixteenth,G#3_E3
3901,Left,1,47,80,562.25,0.239583,Sixteenth,B2
3902,Right,0,68,80,562.5,0.489583,Eighth,G#5_G#4
3904,Left,1,56,80,562.5,0.239583,Sixteenth,G#3_F3
3906,Left,1,47,80,562.75,0.239583,Sixteenth,B2
3909,Left,1,57,80,563.0,0.239583,Sixteenth,F#3_A3
3907,Right,0,69,80,563.0,0.489583,Eighth,A5_A4
3911,Left,1,47,80,563.25,0.239583,Sixteenth,B2
3913,Right,0,73,80,563.5,0.489583,Eighth,C#6_C#5
3912,Left,1,57,80,563.5,0.239583,Sixteenth,C#4_A3
3916,Left,1,47,80,563.75,0.239583,Sixteenth,B2
3917,Right,0,71,80,564.0,0.489583,Eighth,B5_B4
3919,Left,1,59,80,564.0,0.239583,Sixteenth,G#3_B3
3921,Left,1,47,80,564.25,0.239583,Sixteenth,B2
3922,Right,0,87,80,564.5,0.489583,Eighth,D#6_D#5
3924,Left,1,57,80,564.5,0.239583,Sixteenth,F#3_A3
3926,Left,1,47,80,564.75,0.239583,Sixteenth,B2
3927,Left,1,56,80,565.0,0.489583,Eighth,G#3_E3
3929,Right,0,88,80,565.0,0.989583,Quarter,E6_E5
3931,Left,1,42,80,565.5,0.489583,Eighth,F#2
3932,Left,1,40,80,566.0,0.489583,Eighth,E2
3933,Left,1,49,80,566.5,0.489583,Eighth,C#3
3934,Left,1,47,80,567.0,1.489583,DottedQuarter,B2
3935,Right,0,57,80,567.5,0.489583,Eighth,A3
3936,Right,0,56,80,568.0,0.489583,Eighth,G#3
3938,Right,0,64,80,568.5,0.489583,Eighth,G#4_E4
3937,Left,1,49,80,568.5,0.239583,Sixteenth,C#3
3940,Left,1,47,80,568.75,0.239583,Sixteenth,B2
3942,Right,0,66,80,569.0,0.489583,Eighth,F#4_E4
3941,Left,1,46,80,569.0,0.989583,Quarter,A#2
3944,Right,0,76,80,569.5,0.489583,Eighth,F#5_E5_C#5
3949,Right,0,76,80,570.0,0.989583,Eighth,E5_C#5
3947,Left,1,64,80,570.0,0.989583,Quarter,F#4_E4_A#3
3952,Right,0,85,80,570.5,0.489583,Eighth,C#6
3953,Right,0,85,80,571.0,0.239583,Sixteenth,C#6
3954,Left,1,59,80,571.0,0.489583,Eighth,G#4_E4_B3
3957,Right,0,83,81,571.25,0.239583,Sixteenth,B5
3958,Right,0,80,82,571.5,0.239583,Sixteenth,G#5
3959,Right,0,76,83,571.75,0.239583,Sixteenth,E5
3962,Right,0,75,84,572.0,0.239583,Sixteenth,D#5
3960,Left,1,59,84,572.0,0.489583,Eighth,F#4_B3
3963,Right,0,73,85,572.25,0.239583,Sixteenth,C#5
3964,Right,0,71,86,572.5,0.239583,Sixteenth,B4
3965,Right,0,69,87,572.75,0.239583,Sixteenth,A4
3966,Right,0,68,88,573.0,0.239583,Sixteenth,G#4
3967,Left,1,64,88,573.0,0.489583,Eighth,E4_C#4
3969,Right,0,66,89,573.25,0.239583,Sixteenth,F#4
3970,Right,0,64,91,573.5,0.239583,Sixteenth,E4
3971,Right,0,76,92,573.75,0.239583,Sixteenth,E5
3972,Right,0,75,93,574.0,0.239583,Sixteenth,D#5
3973,Left,1,57,93,574.0,0.489583,Eighth,C#4_A3
3975,Right,0,73,94,574.25,0.239583,Sixteenth,C#5
3976,Right,0,85,95,574.5,0.239583,Sixteenth,C#6
3977,Right,0,83,96,574.75,0.239583,Sixteenth,B5
3979,Right,0,83,97,575.0,0.239583,Sixteenth,B5
3978,Left,1,54,97,575.0,0.489583,Eighth,F#3_A3
3981,Right,0,81,98,575.25,0.239583,Sixteenth,A5
3982,Right,0,93,99,575.5,0.239583,Sixteenth,A6
3983,Right,0,92,101,575.75,0.239583,Sixteenth,G#6
3986,Right,0,92,102,576.0,0.239583,Sixteenth,G#6
3984,Left,1,54,102,576.0,0.489583,Eighth,F#3_D#3
3987,Right,0,90,103,576.25,0.239583,Sixteenth,F#6
3988,Right,0,93,104,576.5,0.239583,Sixteenth,A6
3989,Right,0,90,105,576.75,0.239583,Sixteenth,F#6
3992,Right,0,88,106,577.0,0.239583,Sixteenth,E6
3990,Left,1,63,106,577.0,0.489583,Eighth,D#4_B3
3993,Right,0,87,107,577.25,0.239583,Sixteenth,D#6
3994,Right,0,90,110,577.5,0.239583,Sixteenth,F#6
3995,Right,0,81,110,577.75,0.239583,Sixteenth,A5
3998,Right,0,81,100,578.0,0.239583,Sixteenth,A5
3996,Left,1,61,80,578.0,0.489583,Eighth,E4_C#4
3999,Right,0,80,90,578.25,0.239583,Sixteenth,G#5
4000,Left,1,64,80,578.5,0.489583,Eighth,E4_C#4
4002,Right,0,88,80,578.5,0.239583,Sixteenth,E6
4003,Right,0,80,80,578.75,0.239583,Sixteenth,G#5
4004,Right,0,78,80,579.0,0.239583,Sixteenth,F#5
4005,Left,1,57,80,579.0,0.489583,Eighth,A3
4006,Right,0,85,80,579.25,0.239583,Sixteenth,C#6
4008,Right,0,83,80,579.5,0.239583,Sixteenth,B5
4007,Left,1,59,80,579.5,0.489583,Eighth,B3
4009,Right,0,75,80,579.75,0.239583,Sixteenth,D#5
4010,Left,1,52,80,580.0,0.989583,Quarter,E3
4011,Right,0,76,80,580.0,0.989583,Quarter,E5
