,hand,channel,note,velocity,start_beat,duration,note_value,chord
2,Left,1,44,80,0.0,0.989583,Quarter,G#2
0,Right,0,56,80,0.0,0.989583,Sixteenth,G#3_C4
3,Right,0,51,80,0.25,0.239583,Sixteenth,D#3
4,Right,0,56,80,0.5,0.239583,Sixteenth,G#3
5,Right,0,51,80,0.75,0.239583,Sixteenth,D#3
6,Right,0,55,80,1.0,0.989583,Sixteenth,G3_A#3
8,Left,1,49,80,1.0,0.989583,Quarter,C#3
9,Right,0,51,80,1.25,0.239583,Sixteenth,D#3
10,Right,0,55,80,1.5,0.239583,Sixteenth,G3
11,Right,0,51,80,1.75,0.239583,Sixteenth,D#3
12,Right,0,56,80,2.0,1.489583,Sixteenth,G#3_D#4
13,Left,1,48,80,2.0,0.989583,Quarter,C3
15,Right,0,51,80,2.25,0.239583,Sixteenth,D#3
16,Right,0,56,80,2.5,0.239583,Sixteenth,G#3
17,Right,0,51,80,2.75,0.239583,Sixteenth,D#3
18,Right,0,58,80,3.0,0.239583,Sixteenth,A#3
19,Left,1,43,80,3.0,0.989583,Quarter,G2
20,Right,0,51,80,3.25,0.239583,Sixteenth,D#3
21,Right,0,61,80,3.5,0.489583,Eighth,C#4_A#3
23,Right,0,51,80,3.75,0.239583,Sixteenth,D#3
24,Left,1,44,80,4.0,0.489583,Eighth,G#2
25,Right,0,56,80,4.0,0.489583,Sixteenth,G#3_C4
27,Right,0,51,80,4.25,0.239583,Sixteenth,D#3
28,Right,0,58,80,4.5,0.489583,Sixteenth,D#4_A#3
30,Left,1,43,80,4.5,0.489583,Eighth,G2
31,Right,0,51,80,4.75,0.239583,Sixteenth,D#3
34,Left,1,41,80,5.0,0.489583,Eighth,F2
32,Right,0,60,80,5.0,0.489583,Sixteenth,G#4_C4
35,Right,0,51,80,5.25,0.239583,Sixteenth,D#3
36,Left,1,53,80,5.5,0.489583,Eighth,F3
37,Right,0,62,80,5.5,0.489583,Sixteenth,D4_A#4
39,Right,0,51,80,5.75,0.239583,Sixteenth,D#3
40,Right,0,63,80,6.0,1.489583,DottedQuarter,G3_D#4
41,Left,1,51,80,6.0,0.989583,Quarter,D#3
43,Right,0,58,80,6.25,0.239583,Sixteenth,A#3
44,Right,0,55,80,6.5,0.239583,Sixteenth,G3
45,Right,0,58,80,6.75,0.239583,Sixteenth,A#3
46,Left,1,39,80,7.0,0.989583,Quarter,D#2
47,Right,0,55,80,7.0,0.239583,Sixteenth,G3
48,Right,0,58,80,7.25,0.239583,Sixteenth,A#3
49,Right,0,64,80,7.5,0.489583,Eighth,G3_E4
51,Right,0,58,80,7.75,0.239583,Sixteenth,A#3
54,Left,1,37,80,8.0,0.989583,Quarter,C#2
52,Right,0,55,80,8.0,0.989583,Sixteenth,G3_F4
55,Right,0,58,80,8.25,0.239583,Sixteenth,A#3
56,Right,0,55,80,8.5,0.239583,Sixteenth,G3
57,Right,0,58,80,8.75,0.239583,Sixteenth,A#3
59,Right,0,58,80,9.0,0.739583,DottedEighth,G3_A#3
58,Left,1,49,80,9.0,0.989583,Quarter,C#3
61,Right,0,51,80,9.25,0.239583,Sixteenth,D#3
62,Right,0,55,80,9.5,0.239583,Sixteenth,G3
63,Right,0,51,80,9.75,0.239583,Sixteenth,D#3_C4
65,Right,0,61,80,9.875,0.114583,ThirtySecond,C#4
67,Right,0,63,80,10.0,0.989583,Quarter,G#3_D#4
66,Left,1,48,80,10.0,0.989583,Quarter,C3
69,Right,0,51,80,10.25,0.239583,Sixteenth,D#3
70,Right,0,56,80,10.5,0.239583,Sixteenth,G#3
71,Right,0,51,80,10.75,0.239583,Sixteenth,D#3
72,Right,0,57,80,11.0,0.989583,Quarter,D#3_A3
73,Left,1,41,80,11.0,0.989583,Quarter,F2
75,Right,0,48,80,11.25,0.239583,Sixteenth,C3
76,Right,0,51,80,11.5,0.239583,Sixteenth,D#3
77,Right,0,48,80,11.75,0.239583,Sixteenth,C3
78,Right,0,61,80,12.0,0.989583,Quarter,F3_C#4
80,Left,1,34,80,12.0,0.989583,Quarter,A#1
81,Right,0,49,80,12.25,0.239583,Sixteenth,C#3
82,Right,0,53,80,12.5,0.239583,Sixteenth,F3
83,Right,0,49,80,12.75,0.239583,Sixteenth,C#3
85,Right,0,49,80,13.0,0.239583,Sixteenth,C4_C#3
84,Left,1,39,80,13.0,0.989583,Quarter,D#2
87,Right,0,49,80,13.25,0.239583,Sixteenth,C#3_A#3
89,Right,0,49,80,13.5,0.239583,Sixteenth,G#3_C#3
91,Right,0,49,80,13.75,0.239583,Sixteenth,G3_C#3
93,Left,1,32,80,14.0,0.489583,Eighth,G#1
94,Right,0,49,80,14.0,0.989583,Quarter,G3_C#3_A#3
97,Right,0,51,80,14.25,0.239583,Sixteenth,D#3
98,Left,1,46,80,14.5,0.489583,Eighth,A#2
99,Right,0,49,80,14.5,0.239583,Sixteenth,C#3
100,Right,0,51,80,14.75,0.239583,Sixteenth,D#3
101,Right,0,48,80,15.0,0.15625,TripletSixteenth,G#3_C3
103,Left,1,32,80,15.0,0.489583,Eighth,G#1
104,Right,0,51,80,15.166667,0.15625,TripletSixteenth,D#3
105,Right,0,56,80,15.333333,0.15625,TripletSixteenth,G#3
106,Right,0,60,80,15.5,0.15625,TripletSixteenth,C4
107,Right,0,63,80,15.666667,0.15625,TripletSixteenth,D#4
108,Right,0,68,80,15.833333,0.15625,TripletSixteenth,G#4
111,Right,0,72,92,16.0,0.989583,Quarter,C5_C4
109,Left,1,44,80,16.0,0.989583,Quarter,G#3_G#2
114,Right,0,63,80,16.25,0.239583,Sixteenth,D#4
113,Left,1,51,80,16.25,0.239583,Sixteenth,D#3
116,Right,0,60,80,16.5,0.239583,Sixteenth,C4
115,Left,1,56,80,16.5,0.239583,Sixteenth,G#3
117,Left,1,51,80,16.75,0.239583,Sixteenth,D#3
118,Right,0,63,80,16.75,0.239583,Sixteenth,D#4
121,Right,0,58,80,17.0,0.989583,Sixteenth,A#4_A#3
119,Left,1,49,80,17.0,0.989583,Quarter,G3_C#3
124,Right,0,63,80,17.25,0.239583,Sixteenth,D#4
123,Left,1,51,80,17.25,0.239583,Sixteenth,D#3
126,Right,0,58,80,17.5,0.239583,Sixteenth,A#3
125,Left,1,55,80,17.5,0.239583,Sixteenth,G3
128,Left,1,51,80,17.75,0.239583,Sixteenth,D#3
127,Right,0,63,80,17.75,0.239583,Sixteenth,D#4
131,Left,1,56,80,18.0,0.989583,Sixteenth,G#3_C3
129,Right,0,63,80,18.0,1.489583,Sixteenth,D#5_D#4
134,Left,1,51,80,18.25,0.239583,Sixteenth,D#3
133,Right,0,68,80,18.25,0.239583,Sixteenth,G#4
136,Left,1,56,80,18.5,0.239583,Sixteenth,G#3
135,Right,0,63,80,18.5,0.239583,Sixteenth,D#4
138,Left,1,51,80,18.75,0.239583,Sixteenth,D#3
137,Right,0,68,80,18.75,0.239583,Sixteenth,G#4
139,Left,1,43,80,19.0,0.989583,Quarter,G3_G2
141,Right,0,63,80,19.0,0.239583,Sixteenth,D#4
143,Right,0,70,80,19.25,0.239583,Sixteenth,A#4
142,Left,1,51,80,19.25,0.239583,Sixteenth,D#3
144,Right,0,63,80,19.5,0.489583,Sixteenth,D#4_C#5
146,Left,1,55,80,19.5,0.239583,Sixteenth,G3
147,Right,0,70,80,19.75,0.239583,Sixteenth,A#4
148,Left,1,51,80,19.75,0.239583,Sixteenth,D#3
149,Right,0,72,90,20.0,0.489583,Eighth,D#4_C5
150,Left,1,56,80,20.0,0.489583,Sixteenth,G#3_G#2
154,Right,0,68,80,20.25,0.239583,Sixteenth,G#4
153,Left,1,51,80,20.25,0.239583,Sixteenth,D#3
155,Left,1,55,80,20.5,0.489583,Sixteenth,G3_G2
157,Right,0,75,92,20.5,0.489583,Eighth,D#5_D#4
159,Right,0,70,80,20.75,0.239583,Sixteenth,A#4
160,Left,1,51,80,20.75,0.239583,Sixteenth,D#3
161,Right,0,68,80,21.0,0.489583,Sixteenth,G#5_G#4
162,Left,1,53,80,21.0,0.489583,Sixteenth,F3_F2
165,Right,0,72,80,21.25,0.239583,Sixteenth,C5
166,Left,1,44,80,21.25,0.239583,Sixteenth,G#2
169,Right,0,82,94,21.5,0.489583,Eighth,G#4_A#5
167,Left,1,41,80,21.5,0.489583,Eighth,F3_F2
171,Right,0,74,80,21.75,0.239583,Sixteenth,D5
172,Left,1,44,80,21.75,0.239583,Sixteenth,G#2
175,Left,1,39,80,22.0,0.239583,Sixteenth,D#2
173,Right,0,75,94,22.0,1.489583,DottedQuarter,G4_D#5
177,Left,1,43,80,22.25,0.239583,Sixteenth,G2
176,Right,0,70,80,22.25,0.239583,Sixteenth,A#4
178,Right,0,67,80,22.5,0.239583,Sixteenth,G4
179,Left,1,46,80,22.5,0.239583,Sixteenth,A#2
181,Right,0,70,80,22.75,0.239583,Sixteenth,A#4
180,Left,1,51,80,22.75,0.239583,Sixteenth,D#3
183,Right,0,67,80,23.0,0.239583,Sixteenth,G4
182,Left,1,55,80,23.0,0.239583,Sixteenth,G3
184,Left,1,58,80,23.25,0.239583,Sixteenth,A#3
185,Right,0,70,81,23.25,0.239583,Sixteenth,A#4
186,Right,0,67,80,23.5,0.489583,Sixteenth,G4_E5
187,Left,1,55,80,23.5,0.239583,Sixteenth,G3
189,Right,0,70,80,23.75,0.239583,Sixteenth,A#4
190,Left,1,58,80,23.75,0.239583,Sixteenth,A#3
191,Left,1,37,80,24.0,0.239583,Sixteenth,C#2
192,Right,0,67,80,24.0,0.989583,Sixteenth,G4_F5
194,Right,0,70,80,24.25,0.239583,Sixteenth,A#4
195,Left,1,43,80,24.25,0.239583,Sixteenth,G2
197,Left,1,46,80,24.5,0.239583,Sixteenth,A#2
196,Right,0,67,80,24.5,0.239583,Sixteenth,G4
199,Left,1,49,80,24.75,0.239583,Sixteenth,C#3
198,Right,0,70,80,24.75,0.239583,Sixteenth,A#4
202,Left,1,55,80,25.0,0.239583,Sixteenth,G3
200,Right,0,70,93,25.0,0.739583,DottedEighth,G4_A#4
204,Left,1,58,80,25.25,0.239583,Sixteenth,A#3
203,Right,0,63,80,25.25,0.239583,Sixteenth,D#4
205,Left,1,55,80,25.5,0.239583,Sixteenth,G3
206,Right,0,67,80,25.5,0.239583,Sixteenth,G4
207,Left,1,49,80,25.75,0.239583,Sixteenth,C#3
208,Right,0,72,93,25.75,0.239583,ThirtySecond,D#4_C5
210,Right,0,73,91,25.875,0.114583,ThirtySecond,C#5
211,Right,0,68,80,26.0,0.989583,Sixteenth,G#4_D#5
214,Left,1,51,80,26.25,0.239583,Sixteenth,D#3
213,Right,0,63,80,26.25,0.239583,Sixteenth,D#4
216,Right,0,68,80,26.5,0.239583,Sixteenth,G#4
215,Left,1,48,80,26.5,0.239583,Sixteenth,C3
218,Left,1,51,80,26.75,0.239583,Sixteenth,D#3
217,Right,0,63,80,26.75,0.239583,Sixteenth,D#4
219,Right,0,63,80,27.0,0.989583,Sixteenth,D#4_A4
220,Left,1,48,80,27.0,0.989583,Sixteenth,F2_C3
223,Right,0,60,80,27.25,0.239583,Sixteenth,C4
224,Left,1,53,80,27.25,0.239583,Sixteenth,F3
226,Left,1,48,80,27.5,0.239583,Sixteenth,C3
225,Right,0,63,80,27.5,0.239583,Sixteenth,D#4
227,Left,1,53,80,27.75,0.239583,Sixteenth,F3
228,Right,0,60,80,27.75,0.239583,Sixteenth,C4
229,Right,0,73,92,28.0,0.989583,Quarter,F4_C#5
231,Left,1,46,80,28.0,0.989583,Quarter,C#3_A#2
234,Left,1,53,80,28.25,0.239583,Sixteenth,F3
233,Right,0,61,80,28.25,0.239583,Sixteenth,C#4
236,Left,1,49,80,28.5,0.239583,Sixteenth,C#3
235,Right,0,65,80,28.5,0.239583,Sixteenth,F4
238,Left,1,53,80,28.75,0.239583,Sixteenth,F3
237,Right,0,61,80,28.75,0.239583,Sixteenth,C#4
241,Left,1,46,80,29.0,0.989583,Sixteenth,D#2_A#2
239,Right,0,72,90,29.0,0.239583,Sixteenth,C5_C#4
244,Left,1,51,80,29.25,0.239583,Sixteenth,D#3
243,Right,0,61,80,29.25,0.239583,Sixteenth,C#4_A#4
246,Right,0,68,90,29.5,0.239583,Sixteenth,G#4_C#4
247,Left,1,46,80,29.5,0.239583,Sixteenth,A#2
250,Right,0,67,90,29.75,0.239583,Sixteenth,G4_C#4
249,Left,1,51,80,29.75,0.239583,Sixteenth,D#3
252,Right,0,61,80,30.0,0.989583,Sixteenth,C#4_A#4
254,Left,1,44,80,30.0,1.489583,DottedQuarter,G#2
255,Right,0,63,80,30.25,0.239583,Sixteenth,D#4
256,Left,1,51,80,30.25,0.239583,Sixteenth,D#3
257,Right,0,61,80,30.5,0.239583,Sixteenth,C#4
258,Left,1,55,80,30.5,0.239583,Sixteenth,G3
259,Right,0,63,80,30.75,0.239583,Sixteenth,D#4
260,Left,1,51,80,30.75,0.239583,Sixteenth,D#3
262,Left,1,56,80,31.0,0.489583,Eighth,G#3
261,Right,0,68,91,31.0,0.489583,Eighth,G#4_C4
264,Right,0,60,90,31.75,0.239583,Sixteenth,C4
265,Right,0,72,90,32.0,1.239583,TiedQuarter-Sixteenth,C5
266,Left,1,60,80,32.25,0.239583,Sixteenth,C4
267,Left,1,60,80,32.5,0.239583,Sixteenth,C4
268,Left,1,60,80,32.75,0.239583,Sixteenth,C4
269,Left,1,60,80,33.0,0.239583,Sixteenth,C4
270,Left,1,60,80,33.25,0.239583,Sixteenth,C4
271,Right,0,80,90,33.25,0.239583,Sixteenth,G#5
272,Left,1,60,80,33.5,0.239583,Sixteenth,C4
273,Right,0,79,90,33.5,0.239583,Sixteenth,G5
274,Left,1,60,80,33.75,0.239583,Sixteenth,C4
275,Right,0,77,90,33.75,0.239583,Sixteenth,F5
277,Left,1,52,80,34.0,0.239583,Sixteenth,G3_E3_C4
276,Right,0,84,90,34.0,1.239583,TiedQuarter-Sixteenth,C6
280,Left,1,52,80,34.25,0.239583,Sixteenth,G3_E3_C4
283,Left,1,60,80,34.5,0.239583,Sixteenth,G3_E3_C4
286,Left,1,55,80,34.75,0.239583,Sixteenth,G3_E3_C4
289,Left,1,56,80,35.0,0.239583,Sixteenth,G#3_F3_C4
295,Right,0,80,90,35.25,0.239583,Sixteenth,G#5
292,Left,1,60,80,35.25,0.239583,Sixteenth,G#3_F3_C4
296,Right,0,79,90,35.5,0.239583,Sixteenth,G5
297,Left,1,56,80,35.5,0.239583,Sixteenth,G#3_F3_C4
301,Left,1,60,80,35.75,0.239583,Sixteenth,G#3_F3_C4
300,Right,0,77,90,35.75,0.239583,Sixteenth,F5
304,Left,1,55,80,36.0,0.239583,Sixteenth,G3_E4_A#3
307,Right,0,72,90,36.0,1.239583,TiedQuarter-Sixteenth,C5
308,Left,1,55,80,36.25,0.239583,Sixteenth,G3_E4_A#3
311,Left,1,55,80,36.5,0.239583,Sixteenth,G3_E4_A#3
314,Left,1,64,80,36.75,0.239583,Sixteenth,G3_E4_A#3
317,Left,1,65,80,37.0,0.239583,Sixteenth,G#3_F4_C4
322,Right,0,80,90,37.25,0.239583,Sixteenth,G#5
320,Left,1,65,80,37.25,0.239583,Sixteenth,G#3_F4_C4
327,Right,0,79,90,37.5,0.239583,Sixteenth,G5
324,Left,1,65,80,37.5,0.239583,Sixteenth,G#3_F4_C4
328,Right,0,77,90,37.75,0.239583,Sixteenth,F5
329,Left,1,65,80,37.75,0.239583,Sixteenth,G#3_F4_C4
332,Right,0,75,90,38.0,0.489583,Eighth,D#5
333,Left,1,58,80,38.0,0.239583,Sixteenth,G#4_F4_A#3
336,Left,1,58,80,38.25,0.239583,Sixteenth,G#4_F4_A#3
339,Left,1,58,80,38.5,0.239583,Sixteenth,G#4_F4_A#3
342,Right,0,74,90,38.5,0.739583,DottedEighth,D5
343,Left,1,65,80,38.75,0.239583,Sixteenth,G#4_F4_A#3
346,Left,1,65,80,39.0,0.239583,Sixteenth,G#4_F4_B3
352,Right,0,75,90,39.25,0.114583,ThirtySecond,D#5
349,Left,1,65,80,39.25,0.239583,Sixteenth,G#4_F4_B3
353,Right,0,74,90,39.3125,0.114583,ThirtySecond,D5
354,Right,0,72,90,39.375,0.114583,ThirtySecond,C5
355,Right,0,74,90,39.4375,0.052083,SixtyFourth,D5
356,Left,1,68,80,39.5,0.239583,Sixteenth,G#4_D4_B3
357,Right,0,77,90,39.5,0.364583,DottedSixteenth,F5
360,Left,1,68,80,39.75,0.239583,Sixteenth,G#4_D4_B3
363,Right,0,75,90,39.875,0.114583,ThirtySecond,D#5
364,Left,1,60,80,40.0,0.239583,Sixteenth,G4_D#4_C4
366,Right,0,75,90,40.0,0.989583,Quarter,D#5
368,Left,1,63,80,40.25,0.239583,Sixteenth,G4_D#4_C4
371,Left,1,63,80,40.5,0.239583,Sixteenth,G4_D#4_C4
374,Left,1,63,80,40.75,0.239583,Sixteenth,G4_D#4_C4
378,Left,1,63,80,41.0,0.239583,Sixteenth,G#3_D#4
377,Right,0,65,90,41.0,0.489583,Eighth,F4
380,Left,1,63,80,41.25,0.239583,Sixteenth,G#3_D#4
382,Left,1,56,80,41.5,0.239583,Sixteenth,G#3_D#4
383,Right,0,67,90,41.5,0.114583,ThirtySecond,G4
385,Right,0,65,90,41.5625,0.114583,ThirtySecond,F4
386,Right,0,64,90,41.625,0.114583,ThirtySecond,E4
387,Right,0,65,90,41.6875,0.052083,SixtyFourth,F4
388,Right,0,68,90,41.75,0.114583,ThirtySecond,G#4
389,Left,1,56,80,41.75,0.239583,Sixteenth,G#3_D#4
391,Right,0,72,90,41.875,0.114583,ThirtySecond,C5
392,Right,0,71,90,42.0,0.072917,TripletThirtySecond,B4
393,Right,0,72,90,42.041667,0.072917,TripletThirtySecond,C5
394,Right,0,74,90,42.083333,0.072917,TripletThirtySecond,D5
395,Right,0,72,90,42.125,0.114583,ThirtySecond,C5
396,Right,0,70,90,42.1875,0.052083,SixtyFourth,A#4
400,Right,0,79,90,42.25,0.489583,Eighth,G5
397,Left,1,67,80,42.25,0.239583,Sixteenth,G4_D#4_A#3
401,Left,1,58,80,42.5,0.239583,Sixteenth,G4_D#4_A#3
405,Left,1,58,80,42.75,0.239583,Sixteenth,G4_D#4_A#3
404,Right,0,77,90,42.75,0.114583,ThirtySecond,F5
408,Right,0,75,90,42.875,0.114583,ThirtySecond,D#5
409,Right,0,74,90,43.0,0.114583,ThirtySecond,D5
410,Right,0,72,90,43.125,0.114583,ThirtySecond,C5
411,Left,1,46,80,43.25,0.239583,Sixteenth,G#3_D3_A#2
412,Right,0,70,90,43.25,0.114583,ThirtySecond,A#4
415,Right,0,69,90,43.375,0.114583,ThirtySecond,A4
416,Right,0,72,90,43.5,0.114583,ThirtySecond,C5
417,Left,1,56,80,43.5,0.239583,Sixteenth,G#3_D3_A#2
420,Right,0,70,90,43.625,0.114583,ThirtySecond,A#4
421,Left,1,56,80,43.75,0.239583,Sixteenth,G#3_D3_A#2
424,Right,0,68,90,43.75,0.114583,ThirtySecond,G#4
425,Right,0,65,90,43.875,0.114583,ThirtySecond,F4
426,Left,1,55,80,44.0,0.489583,Eighth,G3_D#3
428,Right,0,63,80,44.0,0.489583,Eighth,D#4
429,Right,0,58,80,44.75,0.239583,Sixteenth,A#3
430,Right,0,55,80,45.0,0.239583,Sixteenth,G3
431,Right,0,58,80,45.25,0.239583,Sixteenth,A#3
432,Right,0,55,80,45.5,0.239583,Sixteenth,G3
433,Right,0,51,80,45.75,0.239583,Sixteenth,D#3
434,Right,0,56,80,46.0,0.489583,Eighth,G#3_F3_D#3
436,Left,1,34,80,46.0,1.989583,Half,A#1
438,Right,0,50,91,46.25,0.239583,Sixteenth,D3
439,Right,0,50,92,46.5,0.489583,Eighth,G#3_F3_D3
442,Right,0,48,92,46.75,0.239583,Sixteenth,C3
443,Right,0,53,80,47.0,0.489583,Eighth,G#3_F3_C3
446,Right,0,47,92,47.25,0.239583,Sixteenth,B2
447,Right,0,53,80,47.5,0.489583,Eighth,G#3_F3_B2
450,Right,0,46,95,47.75,0.239583,Sixteenth,A#2
454,Left,1,39,80,48.0,0.489583,Eighth,D#2
451,Right,0,46,80,48.0,0.489583,Eighth,G3_D#3_A#2
455,Left,1,46,80,48.75,0.239583,Sixteenth,A#2
456,Left,1,43,80,49.0,0.239583,Sixteenth,G2
457,Left,1,46,80,49.25,0.239583,Sixteenth,A#2
459,Left,1,43,80,49.5,0.239583,Sixteenth,G2
458,Right,0,58,80,49.5,0.364583,DottedSixteenth,A#3
460,Left,1,39,80,49.75,0.239583,Sixteenth,D#2
461,Right,0,63,80,49.875,0.114583,ThirtySecond,D#4
463,Right,0,53,80,50.0,0.989583,Quarter,G#3_F3_D#4
462,Left,1,34,80,50.0,0.989583,Quarter,A#1
466,Right,0,62,80,50.25,0.239583,Sixteenth,D4
467,Right,0,62,80,50.5,0.239583,Sixteenth,D4
468,Right,0,60,80,50.75,0.239583,Sixteenth,C4
469,Left,1,46,80,51.0,0.989583,Quarter,A#2
470,Right,0,60,80,51.0,0.989583,Quarter,G#3_F3_C4
473,Right,0,59,80,51.25,0.239583,Sixteenth,B3
474,Right,0,59,80,51.5,0.239583,Sixteenth,B3
475,Right,0,58,80,51.75,0.239583,Sixteenth,A#3
477,Right,0,53,80,52.0,3.989583,Whole,G3_F3_A#3
476,Left,1,39,80,52.0,3.989583,Whole,D#2
480,Right,0,52,81,52.25,0.239583,Sixteenth,E3
481,Right,0,52,82,52.5,0.239583,Sixteenth,E3
482,Right,0,51,84,52.75,0.239583,Sixteenth,D#3
483,Right,0,51,85,53.0,0.239583,Sixteenth,D#3
484,Right,0,50,87,53.25,0.239583,Sixteenth,D3
485,Right,0,50,88,53.5,0.239583,Sixteenth,D3
486,Right,0,51,89,53.75,0.239583,Sixteenth,D#3
487,Right,0,51,90,54.0,0.239583,Sixteenth,D#3
488,Right,0,52,88,54.25,0.239583,Sixteenth,E3
489,Right,0,52,85,54.5,0.239583,Sixteenth,E3
490,Right,0,51,82,54.75,0.239583,Sixteenth,D#3
491,Right,0,51,79,55.0,0.239583,Sixteenth,D#3
492,Right,0,50,76,55.25,0.239583,Sixteenth,D3
493,Right,0,50,73,55.5,0.239583,Sixteenth,D3
494,Right,0,49,71,55.75,0.239583,Sixteenth,C#3
496,Left,1,32,80,56.0,0.989583,Quarter,G#2_G#1
495,Right,0,56,80,56.0,0.989583,Sixteenth,G#3_C4_C3
500,Right,0,51,80,56.25,0.239583,Sixteenth,D#3
501,Right,0,56,80,56.5,0.239583,Sixteenth,G#3
502,Right,0,51,80,56.75,0.239583,Sixteenth,D#3
503,Right,0,58,80,57.0,0.989583,Quarter,G3_A#3
504,Left,1,49,80,57.0,0.989583,Quarter,C#3
506,Right,0,51,80,57.25,0.239583,Sixteenth,D#3
507,Right,0,55,80,57.5,0.239583,Sixteenth,G3
508,Right,0,51,80,57.75,0.239583,Sixteenth,D#3
511,Left,1,48,80,58.0,0.989583,Quarter,C3
509,Right,0,63,80,58.0,1.489583,DottedQuarter,G#3_D#4
512,Right,0,51,80,58.25,0.239583,Sixteenth,D#3
513,Right,0,56,80,58.5,0.239583,Sixteenth,G#3
514,Right,0,51,80,58.75,0.239583,Sixteenth,D#3
516,Left,1,43,80,59.0,0.989583,Quarter,G2
515,Right,0,58,80,59.0,0.239583,Sixteenth,A#3
517,Right,0,51,80,59.25,0.239583,Sixteenth,D#3
518,Right,0,58,80,59.5,0.489583,Sixteenth,C#4_A#3
520,Right,0,51,80,59.75,0.239583,Sixteenth,D#3
521,Left,1,44,80,60.0,0.489583,Eighth,G#2
522,Right,0,60,80,60.0,0.489583,Eighth,G#3_C4
524,Right,0,51,80,60.25,0.239583,Sixteenth,D#3
526,Right,0,58,80,60.5,0.489583,Sixteenth,D#4_A#3
525,Left,1,43,80,60.5,0.489583,Eighth,G2
528,Right,0,51,80,60.75,0.239583,Sixteenth,D#3
529,Right,0,68,80,61.0,0.489583,Eighth,G#4_C4
530,Left,1,41,80,61.0,0.489583,Eighth,F2
532,Right,0,51,80,61.25,0.239583,Sixteenth,D#3
533,Right,0,70,80,61.5,0.489583,Eighth,D4_A#4
534,Left,1,53,80,61.5,0.489583,Eighth,F3
536,Right,0,51,80,61.75,0.239583,Sixteenth,D#3
537,Right,0,63,80,62.0,1.489583,DottedQuarter,G3_D#4
539,Left,1,51,80,62.0,0.989583,Quarter,D#3
540,Right,0,58,80,62.25,0.239583,Sixteenth,A#3
541,Right,0,55,80,62.5,0.239583,Sixteenth,G3
542,Right,0,58,80,62.75,0.239583,Sixteenth,A#3
543,Right,0,55,80,63.0,0.239583,Sixteenth,G3
544,Left,1,39,80,63.0,0.989583,Quarter,D#2
545,Right,0,58,80,63.25,0.239583,Sixteenth,A#3
546,Right,0,55,80,63.5,0.489583,Sixteenth,G3_E4
548,Right,0,58,80,63.75,0.239583,Sixteenth,A#3
549,Left,1,37,80,64.0,0.989583,Quarter,C#2
550,Right,0,65,80,64.0,0.989583,Quarter,G3_F4
552,Right,0,58,80,64.25,0.239583,Sixteenth,A#3
553,Right,0,55,80,64.5,0.239583,Sixteenth,G3
554,Right,0,58,80,64.75,0.239583,Sixteenth,A#3
556,Left,1,49,80,65.0,0.989583,Quarter,C#3
555,Right,0,58,80,65.0,0.739583,DottedEighth,G3_A#3
558,Right,0,51,80,65.25,0.239583,Sixteenth,D#3
559,Right,0,55,80,65.5,0.239583,Sixteenth,G3
560,Right,0,60,80,65.75,0.239583,ThirtySecond,D#3_C4
562,Right,0,61,80,65.875,0.114583,ThirtySecond,C#4
564,Right,0,63,80,66.0,0.989583,Quarter,G#3_D#4
563,Left,1,48,80,66.0,0.989583,Quarter,C3
566,Right,0,51,80,66.25,0.239583,Sixteenth,D#3
567,Right,0,56,80,66.5,0.239583,Sixteenth,G#3
568,Right,0,51,80,66.75,0.239583,Sixteenth,D#3
570,Left,1,41,80,67.0,0.989583,Quarter,F2
569,Right,0,57,80,67.0,0.989583,Quarter,D#3_A3
572,Right,0,48,80,67.25,0.239583,Sixteenth,C3
573,Right,0,51,80,67.5,0.239583,Sixteenth,D#3
574,Right,0,48,80,67.75,0.239583,Sixteenth,C3
577,Left,1,34,80,68.0,0.989583,Quarter,A#1
575,Right,0,53,80,68.0,0.989583,Sixteenth,F3_C#4
578,Right,0,49,80,68.25,0.239583,Sixteenth,C#3
579,Right,0,53,80,68.5,0.239583,Sixteenth,F3
580,Right,0,49,80,68.75,0.239583,Sixteenth,C#3
582,Right,0,49,80,69.0,0.239583,Sixteenth,C4_C#3
581,Left,1,39,80,69.0,0.989583,Quarter,D#2
584,Right,0,58,80,69.25,0.239583,Sixteenth,C#3_A#3
586,Right,0,49,80,69.5,0.239583,Sixteenth,G#3_C#3
588,Right,0,55,80,69.75,0.239583,Sixteenth,G3_C#3
593,Left,1,32,80,70.0,0.489583,Eighth,G#1
590,Right,0,55,80,70.0,0.989583,Quarter,G3_C#3_A#3
594,Right,0,51,80,70.25,0.239583,Sixteenth,D#3
595,Right,0,49,80,70.5,0.239583,Sixteenth,C#3
596,Left,1,46,80,70.5,0.489583,Eighth,A#2
597,Right,0,51,80,70.75,0.239583,Sixteenth,D#3
599,Left,1,32,80,71.0,0.489583,Eighth,G#1
598,Right,0,48,80,71.0,0.489583,Eighth,G#3_C3
601,Right,0,63,80,71.5,0.489583,Eighth,D#4
602,Left,1,44,80,72.0,0.989583,Quarter,G#3_G#2
603,Right,0,63,80,72.0,0.489583,TripletSixteenth,G#4_D#4_B3
607,Right,0,63,80,72.166667,0.15625,TripletSixteenth,D#4_B3
609,Right,0,63,80,72.333333,0.15625,TripletSixteenth,D#4_B3
611,Right,0,71,91,72.5,0.489583,TripletSixteenth,D#4_B4_B3
614,Right,0,63,80,72.666667,0.15625,TripletSixteenth,D#4_B3
616,Right,0,63,80,72.833333,0.15625,TripletSixteenth,D#4_B3
618,Right,0,63,80,73.0,0.489583,TripletSixteenth,D#4_B3_A#4
621,Right,0,63,80,73.166667,0.15625,TripletSixteenth,D#4_B3
623,Right,0,63,80,73.333333,0.15625,TripletSixteenth,D#4_B3
625,Right,0,59,80,73.5,0.489583,TripletSixteenth,G#4_D#4_B3
628,Right,0,59,80,73.666667,0.15625,TripletSixteenth,D#4_B3
630,Right,0,59,80,73.833333,0.15625,TripletSixteenth,D#4_B3
632,Right,0,67,92,74.0,0.489583,TripletSixteenth,G4_D#4_C#4
635,Left,1,58,80,74.0,0.65625,DottedEighth,A#3
636,Right,0,63,80,74.166667,0.15625,TripletSixteenth,D#4_C#4
638,Right,0,63,80,74.333333,0.15625,TripletSixteenth,D#4_C#4
640,Right,0,61,80,74.5,0.489583,TripletSixteenth,D#4_C#5_C#4
643,Right,0,61,80,74.666667,0.15625,TripletSixteenth,D#4_C#4
645,Left,1,58,80,74.666667,0.15625,TripletSixteenth,A#3
648,Left,1,57,80,74.833333,0.15625,TripletSixteenth,A3
646,Right,0,61,80,74.833333,0.15625,TripletSixteenth,D#4_C#4
649,Right,0,63,80,75.0,0.15625,TripletSixteenth,D#4_C#4
651,Left,1,58,80,75.0,0.15625,TripletSixteenth,A#3
652,Right,0,61,80,75.166667,0.15625,TripletSixteenth,D#4_C#4
653,Left,1,58,80,75.166667,0.15625,TripletSixteenth,A#3
656,Right,0,63,80,75.333333,0.15625,TripletSixteenth,D#4_C#4
655,Left,1,56,80,75.333333,0.15625,TripletSixteenth,G#3
659,Right,0,63,80,75.5,0.15625,TripletSixteenth,D#4_C#4
658,Left,1,55,80,75.5,0.15625,TripletSixteenth,G3
662,Right,0,61,80,75.666667,0.15625,TripletSixteenth,D#4_C#4
661,Left,1,53,80,75.666667,0.15625,TripletSixteenth,F3
665,Right,0,61,80,75.833333,0.15625,TripletSixteenth,D#4_C#4
664,Left,1,51,80,75.833333,0.15625,TripletSixteenth,D#3
668,Right,0,63,80,76.0,0.489583,TripletSixteenth,G#4_D#4_B3
667,Left,1,56,80,76.0,0.489583,Eighth,G#3
671,Right,0,63,80,76.166667,0.15625,TripletSixteenth,D#4_B3
673,Right,0,63,80,76.333333,0.15625,TripletSixteenth,D#4_B3
675,Right,0,63,80,76.5,0.489583,TripletSixteenth,D#4_B4_B3
678,Right,0,63,80,76.666667,0.15625,TripletSixteenth,D#4_B3
680,Right,0,63,80,76.833333,0.15625,TripletSixteenth,D#4_B3
682,Right,0,70,90,77.0,0.489583,TripletSixteenth,D#4_B3_A#4
685,Right,0,63,80,77.166667,0.15625,TripletSixteenth,D#4_B3
687,Right,0,63,80,77.333333,0.15625,TripletSixteenth,D#4_B3
689,Right,0,63,80,77.5,0.489583,TripletSixteenth,G#4_D#4_B3
692,Right,0,63,80,77.666667,0.15625,TripletSixteenth,D#4_B3
694,Right,0,63,80,77.833333,0.15625,TripletSixteenth,D#4_B3
699,Left,1,51,80,78.0,0.65625,DottedEighth,D#3
696,Right,0,58,80,78.0,0.489583,TripletSixteenth,G#4_D#4_A#3
700,Right,0,63,80,78.166667,0.15625,TripletSixteenth,D#4_A#3
702,Right,0,63,80,78.333333,0.15625,TripletSixteenth,D#4_A#3
704,Right,0,63,80,78.5,0.489583,TripletSixteenth,G4_D#4_A#3
707,Right,0,58,80,78.666667,0.15625,TripletSixteenth,D#4_A#3
708,Left,1,51,80,78.666667,0.15625,TripletSixteenth,D#3
710,Left,1,50,80,78.833333,0.15625,TripletSixteenth,D3
711,Right,0,58,80,78.833333,0.15625,TripletSixteenth,D#4_A#3
716,Left,1,51,80,79.0,0.15625,TripletSixteenth,D#3
713,Right,0,58,80,79.0,0.15625,TripletSixteenth,G3_D#4_A#3
717,Left,1,52,80,79.166667,0.15625,TripletSixteenth,E3
718,Right,0,63,80,79.166667,0.15625,TripletSixteenth,G3_D#4_A#3
721,Left,1,51,80,79.333333,0.15625,TripletSixteenth,D#3
722,Right,0,63,80,79.333333,0.15625,TripletSixteenth,G3_D#4_A#3
725,Left,1,49,80,79.5,0.15625,TripletSixteenth,C#3
726,Right,0,63,80,79.5,0.15625,TripletSixteenth,G3_D#4_A#3
729,Right,0,63,80,79.666667,0.15625,TripletSixteenth,G3_D#4_A#3
732,Left,1,47,80,79.666667,0.15625,TripletSixteenth,B2
733,Left,1,46,80,79.833333,0.15625,TripletSixteenth,A#2
734,Right,0,63,80,79.833333,0.15625,TripletSixteenth,G3_D#4_A#3
737,Right,0,68,70,80.0,0.489583,TripletSixteenth,G#4_D#4_B3
740,Left,1,44,70,80.0,0.489583,Eighth,G#2
741,Right,0,59,71,80.166667,0.15625,TripletSixteenth,D#4_B3
743,Right,0,63,73,80.333333,0.15625,TripletSixteenth,D#4_B3
745,Right,0,63,75,80.5,0.489583,TripletSixteenth,D#4_B4_B3
748,Right,0,63,77,80.666667,0.15625,TripletSixteenth,D#4_B3
750,Right,0,63,79,80.833333,0.15625,TripletSixteenth,D#4_B3
752,Right,0,70,80,81.0,0.489583,TripletSixteenth,D#4_B3_A#4
755,Right,0,59,82,81.166667,0.15625,TripletSixteenth,D#4_B3
757,Right,0,59,84,81.333333,0.15625,TripletSixteenth,D#4_B3
759,Right,0,68,86,81.5,0.489583,TripletSixteenth,G#4_D#4_B3
762,Right,0,63,88,81.666667,0.15625,TripletSixteenth,D#4_B3
764,Right,0,63,89,81.833333,0.15625,TripletSixteenth,D#4_B3
767,Right,0,66,100,82.0,0.65625,Eighth,F#5_F#4
766,Left,1,47,100,82.0,0.15625,TripletSixteenth,F#3_D#3_B2_A2
772,Left,1,54,100,82.166667,0.15625,TripletSixteenth,F#3_D#3_B2_A2
776,Left,1,47,100,82.333333,0.15625,TripletSixteenth,F#3_D#3_B2_A2
780,Left,1,51,100,82.5,0.15625,TripletSixteenth,F#3_D#3_B2_A2
787,Right,0,75,100,82.666667,0.15625,TripletSixteenth,D#5
784,Left,1,45,100,82.666667,0.15625,TripletSixteenth,F#3_D#3_B2_A2
789,Left,1,45,100,82.833333,0.15625,TripletSixteenth,F#3_D#3_B2_A2
793,Right,0,71,100,82.833333,0.15625,TripletSixteenth,B4
795,Left,1,56,100,83.0,0.15625,TripletSixteenth,G#3_G#2_E3_B2
794,Right,0,83,100,83.0,0.489583,Eighth,B5_B4
800,Left,1,52,100,83.166667,0.15625,TripletSixteenth,G#3_G#2_E3_B2
804,Left,1,56,100,83.333333,0.15625,TripletSixteenth,G#3_G#2_E3_B2
808,Left,1,47,100,83.5,0.15625,TripletSixteenth,G#3_G#2_E3_B2
812,Right,0,80,100,83.666667,0.15625,TripletSixteenth,G#5
813,Left,1,44,100,83.666667,0.15625,TripletSixteenth,G#3_G#2_E3_B2
817,Left,1,44,100,83.833333,0.15625,TripletSixteenth,G#3_G#2_E3_B2
819,Right,0,76,100,83.833333,0.15625,TripletSixteenth,E5
822,Right,0,76,100,84.0,0.65625,Eighth,E6_E5
823,Left,1,49,100,84.0,0.15625,TripletSixteenth,F#3_E3_C#3_A#3
828,Left,1,54,100,84.166667,0.15625,TripletSixteenth,F#3_E3_C#3_A#3
832,Left,1,58,100,84.333333,0.15625,TripletSixteenth,F#3_E3_C#3_A#3
836,Left,1,54,100,84.5,0.15625,TripletSixteenth,F#3_E3_C#3_A#3
840,Left,1,58,100,84.666667,0.15625,TripletSixteenth,F#3_E3_C#3_A#3
844,Right,0,85,100,84.666667,0.15625,TripletSixteenth,C#6
845,Left,1,49,100,84.833333,0.15625,TripletSixteenth,F#3_E3_C#3_A#3
848,Right,0,82,100,84.833333,0.15625,TripletSixteenth,A#5
850,Left,1,47,100,85.0,0.15625,TripletSixteenth,G#3_E3_B3_B2
853,Right,0,71,100,85.0,0.489583,Eighth,B5_B4
856,Left,1,59,100,85.166667,0.15625,TripletSixteenth,G#3_E3_B3_B2
860,Left,1,47,100,85.333333,0.15625,TripletSixteenth,G#3_E3_B3_B2
868,Left,1,35,100,85.5,0.15625,TripletSixteenth,B2_B1
864,Right,0,59,100,85.5,0.489583,Eighth,F#3_D#4_B3_A3
870,Left,1,35,100,85.666667,0.15625,TripletSixteenth,B2_B1
872,Left,1,47,100,85.833333,0.15625,TripletSixteenth,B2_B1
876,Right,0,64,100,86.0,0.15625,TripletSixteenth,G#3_E4_B3
874,Left,1,52,100,86.0,0.489583,Eighth,E3_E2
879,Right,0,56,80,86.166667,0.15625,TripletSixteenth,G#3_B3
881,Right,0,59,80,86.333333,0.15625,TripletSixteenth,G#3_B3
883,Right,0,59,80,86.5,0.15625,TripletSixteenth,G#3_B3
885,Right,0,59,80,86.666667,0.15625,TripletSixteenth,G#3_B3
887,Right,0,59,80,86.833333,0.15625,TripletSixteenth,G#3_B3
889,Right,0,59,80,87.0,0.15625,TripletSixteenth,G#3_B3
891,Right,0,59,80,87.166667,0.15625,TripletSixteenth,G#3_B3
893,Right,0,59,80,87.333333,0.15625,TripletSixteenth,G#3_B3
895,Right,0,59,80,87.5,0.15625,TripletSixteenth,G#3_B3
897,Right,0,59,80,87.666667,0.15625,TripletSixteenth,G#3_B3
899,Right,0,59,80,87.833333,0.15625,TripletSixteenth,G#3_B3
903,Left,1,40,70,88.0,0.989583,Quarter,E3_E2
901,Right,0,59,70,88.0,0.489583,TripletSixteenth,G#3_E4_B3
906,Right,0,56,70,88.166667,0.15625,TripletSixteenth,G#3_B3
908,Right,0,59,70,88.333333,0.15625,TripletSixteenth,G#3_B3
910,Right,0,59,70,88.5,0.489583,TripletSixteenth,G#4_G#3_B3
913,Right,0,59,70,88.666667,0.15625,TripletSixteenth,G#3_B3
915,Right,0,56,70,88.833333,0.15625,TripletSixteenth,G#3_B3
917,Right,0,59,70,89.0,0.489583,TripletSixteenth,G#3_F#4_B3
920,Right,0,59,70,89.166667,0.15625,TripletSixteenth,G#3_B3
922,Right,0,59,70,89.333333,0.15625,TripletSixteenth,G#3_B3
924,Right,0,59,70,89.5,0.489583,TripletSixteenth,G#3_E4_B3
927,Right,0,59,70,89.666667,0.15625,TripletSixteenth,G#3_B3
929,Right,0,59,70,89.833333,0.15625,TripletSixteenth,G#3_B3
931,Right,0,57,70,90.0,0.489583,TripletSixteenth,D#4_B3_A3
933,Left,1,54,70,90.0,0.65625,DottedEighth,F#3
935,Right,0,57,70,90.166667,0.15625,TripletSixteenth,B3_A3
937,Right,0,57,70,90.333333,0.15625,TripletSixteenth,B3_A3
939,Right,0,59,70,90.5,0.489583,TripletSixteenth,B3_A4_A3
943,Left,1,54,70,90.666667,0.15625,TripletSixteenth,F#3
942,Right,0,59,70,90.666667,0.15625,TripletSixteenth,B3_A3
947,Left,1,53,70,90.833333,0.15625,TripletSixteenth,F3
945,Right,0,59,70,90.833333,0.15625,TripletSixteenth,B3_A3
948,Right,0,57,70,91.0,0.15625,TripletSixteenth,B3_A3
950,Left,1,54,70,91.0,0.15625,TripletSixteenth,F#3
953,Left,1,54,70,91.166667,0.15625,TripletSixteenth,F#3
951,Right,0,57,70,91.166667,0.15625,TripletSixteenth,B3_A3
956,Left,1,52,70,91.333333,0.15625,TripletSixteenth,E3
954,Right,0,57,70,91.333333,0.15625,TripletSixteenth,B3_A3
959,Left,1,51,70,91.5,0.15625,TripletSixteenth,D#3
957,Right,0,59,70,91.5,0.15625,TripletSixteenth,B3_A3
961,Right,0,57,70,91.666667,0.15625,TripletSixteenth,B3_A3
960,Left,1,49,70,91.666667,0.15625,TripletSixteenth,C#3
963,Left,1,47,70,91.833333,0.15625,TripletSixteenth,B2
964,Right,0,57,70,91.833333,0.15625,TripletSixteenth,B3_A3
966,Left,1,52,70,92.0,0.489583,Eighth,E3
967,Right,0,59,70,92.0,0.489583,TripletSixteenth,G#3_E4_B3
970,Right,0,59,70,92.166667,0.15625,TripletSixteenth,G#3_B3
972,Right,0,59,70,92.333333,0.15625,TripletSixteenth,G#3_B3
974,Right,0,56,70,92.5,0.489583,TripletSixteenth,G#4_G#3_B3
977,Right,0,56,70,92.666667,0.15625,TripletSixteenth,G#3_B3
979,Right,0,56,70,92.833333,0.15625,TripletSixteenth,G#3_B3
981,Right,0,64,84,93.0,0.489583,TripletSixteenth,G#3_E4_B3
984,Right,0,56,70,93.166667,0.15625,TripletSixteenth,G#3_B3
986,Right,0,56,70,93.333333,0.15625,TripletSixteenth,G#3_B3
988,Right,0,59,70,93.5,0.489583,TripletSixteenth,G#3_D#4_B3
991,Right,0,59,70,93.666667,0.15625,TripletSixteenth,G#3_B3
993,Right,0,59,70,93.833333,0.15625,TripletSixteenth,G#3_B3
995,Right,0,59,70,94.0,1.489583,TripletSixteenth,G#3_D4_D3_B3
999,Right,0,59,70,94.166667,0.15625,TripletSixteenth,G#3_D3_B3
1001,Left,1,29,85,94.166667,0.15625,TripletSixteenth,F1
1003,Right,0,59,70,94.333333,0.15625,TripletSixteenth,G#3_D3_B3
1006,Left,1,32,85,94.333333,0.15625,TripletSixteenth,G#1
1007,Right,0,50,70,94.5,0.15625,TripletSixteenth,G#3_D3_B3
1010,Left,1,35,85,94.5,0.15625,TripletSixteenth,B1
1014,Left,1,38,85,94.666667,0.15625,TripletSixteenth,D2
1011,Right,0,50,70,94.666667,0.15625,TripletSixteenth,G#3_D3_B3
1016,Right,0,59,70,94.833333,0.15625,TripletSixteenth,G#3_D3_B3
1015,Left,1,41,85,94.833333,0.15625,TripletSixteenth,F2
1019,Right,0,59,70,95.0,0.15625,TripletSixteenth,G#3_D3_B3
1022,Left,1,44,85,95.0,0.489583,Eighth,G#2
1023,Right,0,59,70,95.166667,0.15625,TripletSixteenth,G#3_D3_B3
1026,Right,0,50,70,95.333333,0.15625,TripletSixteenth,G#3_D3_B3
1029,Right,0,62,85,95.5,0.489583,TripletSixteenth,G#3_D4_D3_B3
1033,Right,0,50,70,95.666667,0.15625,TripletSixteenth,G#3_D3_B3
1036,Right,0,50,70,95.833333,0.15625,TripletSixteenth,G#3_D3_B3
1039,Right,0,62,83,96.0,1.489583,TripletSixteenth,G#3_D4_D3_B3
1043,Right,0,56,70,96.166667,0.15625,TripletSixteenth,G#3_D3_B3
1044,Left,1,29,85,96.166667,0.15625,TripletSixteenth,F1
1047,Right,0,50,70,96.333333,0.15625,TripletSixteenth,G#3_D3_B3
1050,Left,1,32,85,96.333333,0.15625,TripletSixteenth,G#1
1051,Left,1,35,85,96.5,0.15625,TripletSixteenth,B1
1052,Right,0,59,70,96.5,0.15625,TripletSixteenth,G#3_D3_B3
1057,Left,1,38,85,96.666667,0.15625,TripletSixteenth,D2
1055,Right,0,59,70,96.666667,0.15625,TripletSixteenth,G#3_D3_B3
1059,Right,0,59,70,96.833333,0.15625,TripletSixteenth,G#3_D3_B3
1062,Left,1,41,85,96.833333,0.15625,TripletSixteenth,F2
1063,Left,1,44,85,97.0,0.489583,Eighth,G#2
1064,Right,0,59,70,97.0,0.15625,TripletSixteenth,G#3_D3_B3
1067,Right,0,59,70,97.166667,0.15625,TripletSixteenth,G#3_D3_B3
1070,Right,0,59,70,97.333333,0.15625,TripletSixteenth,G#3_D3_B3
1073,Right,0,62,83,97.5,0.489583,TripletSixteenth,G#3_D4_D3_B3
1077,Right,0,59,70,97.666667,0.15625,TripletSixteenth,G#3_D3_B3
1080,Right,0,59,70,97.833333,0.15625,TripletSixteenth,G#3_D3_B3
1083,Right,0,61,80,98.0,1.489583,TripletSixteenth,G#3_C#4_C#3_A#3
1088,Right,0,58,70,98.166667,0.15625,TripletSixteenth,G#3_C#3_A#3
1087,Left,1,40,85,98.166667,0.15625,TripletSixteenth,E2
1091,Right,0,58,70,98.333333,0.15625,TripletSixteenth,G#3_C#3_A#3
1092,Left,1,44,85,98.333333,0.15625,TripletSixteenth,G#2
1095,Right,0,49,70,98.5,0.15625,TripletSixteenth,G#3_C#3_A#3
1098,Left,1,46,85,98.5,0.489583,Eighth,A#2
1099,Right,0,49,70,98.666667,0.15625,TripletSixteenth,G#3_C#3_A#3
1102,Right,0,49,70,98.833333,0.15625,TripletSixteenth,G#3_C#3_A#3
1105,Right,0,49,70,99.0,0.15625,TripletSixteenth,G3_C#3_A#3
1108,Right,0,58,70,99.166667,0.15625,TripletSixteenth,G3_C#3_A#3
1110,Left,1,39,85,99.166667,0.15625,TripletSixteenth,D#2
1113,Left,1,43,85,99.333333,0.15625,TripletSixteenth,G2
1112,Right,0,49,70,99.333333,0.15625,TripletSixteenth,G3_C#3_A#3
1121,Left,1,46,85,99.5,0.489583,Eighth,A#2
1116,Right,0,58,70,99.5,0.489583,TripletSixteenth,G3_D#3_C#4_C#3_A#3
1122,Right,0,58,70,99.666667,0.15625,TripletSixteenth,G3_D#3_C#3_A#3
1126,Right,0,55,70,99.833333,0.15625,TripletSixteenth,G3_D#3_C#3_A#3
1131,Right,0,60,80,100.0,0.989583,Quarter,C4_C3
1130,Left,1,44,80,100.0,0.989583,Quarter,G#2_G#1
1134,Right,0,51,80,100.166667,0.15625,TripletSixteenth,D#3
1135,Right,0,51,80,100.333333,0.15625,TripletSixteenth,D#3
1136,Right,0,56,80,100.5,0.15625,TripletSixteenth,G#3
1137,Right,0,51,80,100.666667,0.15625,TripletSixteenth,D#3
1138,Right,0,51,80,100.833333,0.15625,TripletSixteenth,D#3
1140,Left,1,49,80,101.0,0.989583,Quarter,C#3
1139,Right,0,58,80,101.0,0.989583,Quarter,G3_A#3
1142,Right,0,51,80,101.166667,0.15625,TripletSixteenth,D#3
1143,Right,0,51,80,101.333333,0.15625,TripletSixteenth,D#3
1144,Right,0,55,80,101.5,0.15625,TripletSixteenth,G3
1145,Right,0,51,80,101.666667,0.15625,TripletSixteenth,D#3
1146,Right,0,51,80,101.833333,0.15625,TripletSixteenth,D#3
1147,Left,1,48,80,102.0,0.989583,Quarter,C3
1148,Right,0,56,80,102.0,1.489583,TripletSixteenth,G#3_D#4
1150,Right,0,51,80,102.166667,0.15625,TripletSixteenth,D#3
1151,Right,0,51,80,102.333333,0.15625,TripletSixteenth,D#3
1152,Right,0,56,80,102.5,0.15625,TripletSixteenth,G#3
1153,Right,0,51,80,102.666667,0.15625,TripletSixteenth,D#3
1154,Right,0,51,80,102.833333,0.15625,TripletSixteenth,D#3
1155,Right,0,58,80,103.0,0.15625,TripletSixteenth,A#3
1156,Left,1,43,80,103.0,0.989583,Quarter,G2
1157,Right,0,51,80,103.166667,0.15625,TripletSixteenth,D#3
1158,Right,0,51,80,103.333333,0.15625,TripletSixteenth,D#3
1159,Right,0,61,80,103.5,0.489583,Eighth,C#4_A#3
1161,Right,0,51,80,103.666667,0.15625,TripletSixteenth,D#3
1162,Right,0,51,80,103.833333,0.15625,TripletSixteenth,D#3
1164,Right,0,56,80,104.0,0.489583,TripletSixteenth,G#3_C4
1163,Left,1,44,80,104.0,0.489583,Eighth,G#2
1166,Right,0,51,80,104.166667,0.15625,TripletSixteenth,D#3
1167,Right,0,51,80,104.333333,0.15625,TripletSixteenth,D#3
1170,Left,1,43,80,104.5,0.489583,Eighth,G2
1168,Right,0,63,80,104.5,0.489583,Eighth,D#4_A#3
1171,Right,0,51,80,104.666667,0.15625,TripletSixteenth,D#3
1172,Right,0,51,80,104.833333,0.15625,TripletSixteenth,D#3
1173,Right,0,60,80,105.0,0.489583,TripletSixteenth,G#4_C4
1175,Left,1,41,80,105.0,0.489583,Eighth,F2
1176,Right,0,56,80,105.166667,0.15625,TripletSixteenth,G#3
1177,Right,0,56,80,105.333333,0.15625,TripletSixteenth,G#3
1178,Right,0,62,80,105.5,0.489583,TripletSixteenth,D4_A#4
1180,Left,1,53,80,105.5,0.489583,Eighth,F3
1181,Right,0,56,80,105.666667,0.15625,TripletSixteenth,G#3
1182,Right,0,56,80,105.833333,0.15625,TripletSixteenth,G#3
1185,Left,1,51,80,106.0,0.989583,Quarter,D#3
1183,Right,0,63,80,106.0,1.489583,DottedQuarter,G3_D#4
1186,Right,0,58,80,106.166667,0.15625,TripletSixteenth,A#3
1187,Right,0,58,80,106.333333,0.15625,TripletSixteenth,A#3
1188,Right,0,55,80,106.5,0.15625,TripletSixteenth,G3
1189,Right,0,58,80,106.666667,0.15625,TripletSixteenth,A#3
1190,Right,0,58,80,106.833333,0.15625,TripletSixteenth,A#3
1192,Left,1,39,80,107.0,0.989583,Quarter,D#2
1191,Right,0,55,80,107.0,0.15625,TripletSixteenth,G3
1193,Right,0,58,80,107.166667,0.15625,TripletSixteenth,A#3
1194,Right,0,58,80,107.333333,0.15625,TripletSixteenth,A#3
1195,Right,0,64,80,107.5,0.489583,Eighth,G3_E4
1197,Right,0,58,80,107.666667,0.15625,TripletSixteenth,A#3
1198,Right,0,58,80,107.833333,0.15625,TripletSixteenth,A#3
1199,Right,0,55,80,108.0,0.989583,TripletSixteenth,G3_F4
1200,Left,1,37,80,108.0,0.989583,Quarter,C#2
1202,Right,0,58,80,108.166667,0.15625,TripletSixteenth,A#3
1203,Right,0,58,80,108.333333,0.15625,TripletSixteenth,A#3
1204,Right,0,55,80,108.5,0.15625,TripletSixteenth,G3
1205,Right,0,58,80,108.666667,0.15625,TripletSixteenth,A#3
1206,Right,0,58,80,108.833333,0.15625,TripletSixteenth,A#3
1209,Left,1,49,80,109.0,0.989583,Quarter,C#3
1207,Right,0,55,80,109.0,0.739583,TripletSixteenth,G3_A#3
1210,Right,0,51,80,109.166667,0.15625,TripletSixteenth,D#3
1211,Right,0,51,80,109.333333,0.15625,TripletSixteenth,D#3
1212,Right,0,55,80,109.5,0.15625,TripletSixteenth,G3
1213,Right,0,51,80,109.666667,0.15625,TripletSixteenth,D#3
1214,Right,0,60,80,109.75,0.114583,ThirtySecond,C4
1215,Right,0,51,80,109.833333,0.15625,TripletSixteenth,D#3
1216,Right,0,61,80,109.875,0.114583,ThirtySecond,C#4
1218,Left,1,48,80,110.0,0.989583,Quarter,C3
1217,Right,0,63,80,110.0,0.989583,Quarter,G#3_D#4
1220,Right,0,51,80,110.166667,0.15625,TripletSixteenth,D#3
1221,Right,0,51,80,110.333333,0.15625,TripletSixteenth,D#3
1222,Right,0,56,80,110.5,0.15625,TripletSixteenth,G#3
1223,Right,0,51,80,110.666667,0.15625,TripletSixteenth,D#3
1224,Right,0,51,80,110.833333,0.15625,TripletSixteenth,D#3
1227,Left,1,41,80,111.0,0.989583,Quarter,F2
1225,Right,0,57,80,111.0,0.989583,Quarter,D#3_A3
1228,Right,0,48,80,111.166667,0.15625,TripletSixteenth,C3
1229,Right,0,48,80,111.333333,0.15625,TripletSixteenth,C3
1230,Right,0,51,80,111.5,0.15625,TripletSixteenth,D#3
1231,Right,0,48,80,111.666667,0.15625,TripletSixteenth,C3
1232,Right,0,48,80,111.833333,0.15625,TripletSixteenth,C3
1233,Right,0,53,80,112.0,0.989583,TripletSixteenth,F3_C#4
1235,Left,1,34,80,112.0,0.989583,Quarter,A#1
1236,Right,0,49,80,112.166667,0.15625,TripletSixteenth,C#3
1237,Right,0,49,80,112.333333,0.15625,TripletSixteenth,C#3
1238,Right,0,53,80,112.5,0.15625,TripletSixteenth,F3
1239,Right,0,49,80,112.666667,0.15625,TripletSixteenth,C#3
1240,Right,0,49,80,112.833333,0.15625,TripletSixteenth,C#3
1241,Left,1,39,80,113.0,0.989583,Quarter,D#2
1242,Right,0,61,80,113.0,0.15625,TripletSixteenth,G3_C#4
1244,Right,0,49,80,113.166667,0.15625,TripletSixteenth,C4_C#3
1246,Right,0,58,80,113.333333,0.15625,TripletSixteenth,C#3_A#3
1248,Right,0,58,80,113.5,0.15625,TripletSixteenth,C#3_A#3
1250,Right,0,56,80,113.666667,0.15625,TripletSixteenth,G#3_C#3
1252,Right,0,55,80,113.833333,0.15625,TripletSixteenth,G3_C#3
1254,Right,0,55,80,114.0,0.989583,Quarter,G3_C#3_A#3
1257,Left,1,32,80,114.0,0.489583,Eighth,G#1
1258,Right,0,51,80,114.166667,0.15625,TripletSixteenth,D#3
1259,Right,0,51,80,114.333333,0.15625,TripletSixteenth,D#3
1261,Right,0,49,80,114.5,0.15625,TripletSixteenth,C#3
1260,Left,1,44,80,114.5,0.489583,Eighth,G#2
1262,Right,0,51,80,114.666667,0.15625,TripletSixteenth,D#3
1263,Right,0,51,80,114.833333,0.15625,TripletSixteenth,D#3
1265,Right,0,56,80,115.0,0.15625,TripletSixteenth,G#3_C3
1264,Left,1,32,80,115.0,0.489583,Eighth,G#1
1267,Right,0,51,80,115.166667,0.15625,TripletSixteenth,D#3
1268,Right,0,56,80,115.333333,0.15625,TripletSixteenth,G#3
1269,Right,0,60,80,115.5,0.15625,TripletSixteenth,C4
1270,Right,0,63,80,115.666667,0.15625,TripletSixteenth,D#4
1271,Right,0,68,80,115.833333,0.15625,TripletSixteenth,G#4
1272,Right,0,60,80,116.0,0.989583,TripletSixteenth,C5_C4
1273,Left,1,44,80,116.0,0.989583,Quarter,G#3_G#2
1277,Right,0,63,80,116.166667,0.15625,TripletSixteenth,D#4
1276,Left,1,51,80,116.166667,0.15625,TripletSixteenth,D#3
1278,Left,1,51,80,116.333333,0.15625,TripletSixteenth,D#3
1279,Right,0,63,80,116.333333,0.15625,TripletSixteenth,D#4
1281,Left,1,56,80,116.5,0.15625,TripletSixteenth,G#3
1280,Right,0,60,80,116.5,0.15625,TripletSixteenth,C4
1283,Right,0,63,80,116.666667,0.15625,TripletSixteenth,D#4
1282,Left,1,51,80,116.666667,0.15625,TripletSixteenth,D#3
1284,Right,0,63,80,116.833333,0.15625,TripletSixteenth,D#4
1285,Left,1,51,80,116.833333,0.15625,TripletSixteenth,D#3
1287,Right,0,58,80,117.0,0.989583,TripletSixteenth,A#4_A#3
1286,Left,1,49,80,117.0,0.989583,Quarter,G3_C#3
1291,Right,0,63,80,117.166667,0.15625,TripletSixteenth,D#4
1290,Left,1,51,80,117.166667,0.15625,TripletSixteenth,D#3
1293,Left,1,51,80,117.333333,0.15625,TripletSixteenth,D#3
1292,Right,0,63,80,117.333333,0.15625,TripletSixteenth,D#4
1295,Left,1,55,80,117.5,0.15625,TripletSixteenth,G3
1294,Right,0,58,80,117.5,0.15625,TripletSixteenth,A#3
1297,Left,1,51,80,117.666667,0.15625,TripletSixteenth,D#3
1296,Right,0,63,80,117.666667,0.15625,TripletSixteenth,D#4
1298,Right,0,63,80,117.833333,0.15625,TripletSixteenth,D#4
1299,Left,1,51,80,117.833333,0.15625,TripletSixteenth,D#3
1300,Left,1,48,80,118.0,0.989583,Quarter,G#3_C3
1301,Right,0,63,80,118.0,1.489583,TripletSixteenth,D#5_D#4
1305,Left,1,51,80,118.166667,0.15625,TripletSixteenth,D#3
1304,Right,0,68,80,118.166667,0.15625,TripletSixteenth,G#4
1307,Left,1,51,80,118.333333,0.15625,TripletSixteenth,D#3
1306,Right,0,68,80,118.333333,0.15625,TripletSixteenth,G#4
1309,Right,0,63,80,118.5,0.15625,TripletSixteenth,D#4
1308,Left,1,56,80,118.5,0.15625,TripletSixteenth,G#3
1310,Left,1,51,80,118.666667,0.15625,TripletSixteenth,D#3
1311,Right,0,68,80,118.666667,0.15625,TripletSixteenth,G#4
1313,Right,0,68,80,118.833333,0.15625,TripletSixteenth,G#4
1312,Left,1,51,80,118.833333,0.15625,TripletSixteenth,D#3
1314,Left,1,55,80,119.0,0.989583,TripletSixteenth,G3_G2
1315,Right,0,63,80,119.0,0.15625,TripletSixteenth,D#4
1317,Left,1,51,80,119.166667,0.15625,TripletSixteenth,D#3
1318,Right,0,70,80,119.166667,0.15625,TripletSixteenth,A#4
1320,Left,1,51,80,119.333333,0.15625,TripletSixteenth,D#3
1319,Right,0,70,80,119.333333,0.15625,TripletSixteenth,A#4
1323,Left,1,55,80,119.5,0.15625,TripletSixteenth,G3
1321,Right,0,63,80,119.5,0.489583,TripletSixteenth,D#4_C#5
1325,Left,1,51,80,119.666667,0.15625,TripletSixteenth,D#3
1324,Right,0,70,80,119.666667,0.15625,TripletSixteenth,A#4
1326,Right,0,70,80,119.833333,0.15625,TripletSixteenth,A#4
1327,Left,1,51,80,119.833333,0.15625,TripletSixteenth,D#3
1330,Right,0,63,80,120.0,0.489583,TripletSixteenth,D#4_C5
1328,Left,1,56,80,120.0,0.489583,TripletSixteenth,G#3_G#2
1333,Right,0,68,80,120.166667,0.15625,TripletSixteenth,G#4
1332,Left,1,51,80,120.166667,0.15625,TripletSixteenth,D#3
1334,Left,1,51,80,120.333333,0.15625,TripletSixteenth,D#3
1335,Right,0,68,80,120.333333,0.15625,TripletSixteenth,G#4
1336,Left,1,43,80,120.5,0.489583,Eighth,G2_G#3
1338,Right,0,63,80,120.5,0.489583,TripletSixteenth,D#5_D#4
1341,Right,0,70,80,120.666667,0.15625,TripletSixteenth,A#4
1340,Left,1,51,80,120.666667,0.15625,TripletSixteenth,D#3
1343,Right,0,70,80,120.833333,0.15625,TripletSixteenth,A#4
1342,Left,1,51,80,120.833333,0.15625,TripletSixteenth,D#3
1345,Right,0,68,80,121.0,0.489583,TripletSixteenth,G#5_G#4
1344,Left,1,53,80,121.0,0.489583,TripletSixteenth,F3_F2
1349,Right,0,72,80,121.166667,0.15625,TripletSixteenth,C5
1348,Left,1,44,80,121.166667,0.15625,TripletSixteenth,G#2
1351,Right,0,72,80,121.333333,0.15625,TripletSixteenth,C5
1350,Left,1,44,80,121.333333,0.15625,TripletSixteenth,G#2
1354,Right,0,68,80,121.5,0.489583,TripletSixteenth,G#4_A#5
1352,Left,1,53,80,121.5,0.489583,TripletSixteenth,F3_F2
1356,Right,0,74,80,121.666667,0.15625,TripletSixteenth,D5
1357,Left,1,44,80,121.666667,0.15625,TripletSixteenth,G#2
1358,Left,1,44,80,121.833333,0.15625,TripletSixteenth,G#2
1359,Right,0,74,80,121.833333,0.15625,TripletSixteenth,D5
1361,Left,1,39,80,122.0,0.15625,TripletSixteenth,D#2
1360,Right,0,67,80,122.0,1.489583,TripletSixteenth,G4_D#5
1363,Right,0,70,80,122.166667,0.15625,TripletSixteenth,A#4
1364,Left,1,43,80,122.166667,0.15625,TripletSixteenth,G2
1365,Right,0,70,80,122.333333,0.15625,TripletSixteenth,A#4
1366,Left,1,46,80,122.333333,0.15625,TripletSixteenth,A#2
1368,Left,1,51,80,122.5,0.15625,TripletSixteenth,D#3
1367,Right,0,67,80,122.5,0.15625,TripletSixteenth,G4
1369,Right,0,70,80,122.666667,0.15625,TripletSixteenth,A#4
1370,Left,1,55,80,122.666667,0.15625,TripletSixteenth,G3
1371,Right,0,70,80,122.833333,0.15625,TripletSixteenth,A#4
1372,Left,1,58,80,122.833333,0.15625,TripletSixteenth,A#3
1374,Left,1,63,80,123.0,0.989583,Quarter,D#4
1373,Right,0,67,80,123.0,0.15625,TripletSixteenth,G4
1375,Right,0,70,80,123.166667,0.15625,TripletSixteenth,A#4
1376,Right,0,70,80,123.333333,0.15625,TripletSixteenth,A#4
1377,Right,0,67,80,123.5,0.489583,TripletSixteenth,G4_E5
1379,Right,0,70,80,123.666667,0.15625,TripletSixteenth,A#4
1380,Right,0,70,80,123.833333,0.15625,TripletSixteenth,A#4
1383,Left,1,37,80,124.0,0.15625,TripletSixteenth,C#2
1381,Right,0,67,80,124.0,0.989583,TripletSixteenth,G4_F5
1385,Left,1,43,80,124.166667,0.15625,TripletSixteenth,G2
1384,Right,0,70,80,124.166667,0.15625,TripletSixteenth,A#4
1386,Right,0,70,80,124.333333,0.15625,TripletSixteenth,A#4
1387,Left,1,46,80,124.333333,0.15625,TripletSixteenth,A#2
1388,Left,1,49,80,124.5,0.15625,TripletSixteenth,C#3
1389,Right,0,67,80,124.5,0.15625,TripletSixteenth,G4
1390,Left,1,55,80,124.666667,0.15625,TripletSixteenth,G3
1391,Right,0,70,80,124.666667,0.15625,TripletSixteenth,A#4
1392,Right,0,70,80,124.833333,0.15625,TripletSixteenth,A#4
1393,Left,1,58,80,124.833333,0.15625,TripletSixteenth,A#3
1395,Right,0,67,80,125.0,0.739583,TripletSixteenth,G4_A#4
1394,Left,1,61,80,125.0,0.989583,Quarter,C#4
1397,Right,0,63,80,125.166667,0.15625,TripletSixteenth,D#4
1398,Right,0,63,80,125.333333,0.15625,TripletSixteenth,D#4
1399,Right,0,67,80,125.5,0.15625,TripletSixteenth,G4
1400,Right,0,63,80,125.666667,0.15625,TripletSixteenth,D#4
1401,Right,0,72,97,125.75,0.114583,ThirtySecond,C5
1402,Right,0,63,80,125.833333,0.15625,TripletSixteenth,D#4
1403,Right,0,73,94,125.875,0.114583,ThirtySecond,C#5
1405,Right,0,68,80,126.0,0.989583,TripletSixteenth,G#4_D#5
1404,Left,1,60,80,126.0,0.989583,Quarter,C4
1407,Right,0,63,80,126.166667,0.15625,TripletSixteenth,D#4
1408,Right,0,63,80,126.333333,0.15625,TripletSixteenth,D#4
1409,Right,0,68,80,126.5,0.15625,TripletSixteenth,G#4
1410,Right,0,63,80,126.666667,0.15625,TripletSixteenth,D#4
1411,Right,0,63,80,126.833333,0.15625,TripletSixteenth,D#4
1412,Right,0,63,80,127.0,0.989583,TripletSixteenth,D#4_A4
1413,Left,1,53,80,127.0,0.989583,Quarter,F3
1415,Right,0,60,80,127.166667,0.15625,TripletSixteenth,C4
1416,Right,0,60,80,127.333333,0.15625,TripletSixteenth,C4
1417,Right,0,63,80,127.5,0.15625,TripletSixteenth,D#4
1418,Right,0,60,80,127.666667,0.15625,TripletSixteenth,C4
1419,Right,0,60,80,127.833333,0.15625,TripletSixteenth,C4
1420,Left,1,46,80,128.0,0.989583,Quarter,A#2
1421,Right,0,73,101,128.0,0.989583,Quarter,F4_C#5
1423,Right,0,61,80,128.166667,0.15625,TripletSixteenth,C#4
1424,Right,0,61,80,128.333333,0.15625,TripletSixteenth,C#4
1425,Right,0,65,80,128.5,0.15625,TripletSixteenth,F4
1426,Right,0,61,80,128.666667,0.15625,TripletSixteenth,C#4
1427,Right,0,61,80,128.833333,0.15625,TripletSixteenth,C#4
1430,Left,1,46,80,129.0,0.489583,TripletSixteenth,D#2_A#2
1428,Right,0,73,96,129.0,0.15625,TripletSixteenth,G4_C#5
1432,Left,1,51,80,129.166667,0.15625,TripletSixteenth,D#3
1433,Right,0,61,80,129.166667,0.15625,TripletSixteenth,C5_C#4
1437,Left,1,51,80,129.333333,0.15625,TripletSixteenth,D#3
1435,Right,0,70,91,129.333333,0.15625,TripletSixteenth,C#4_A#4
1439,Left,1,39,80,129.5,0.489583,Eighth,D#2
1438,Right,0,61,80,129.5,0.15625,TripletSixteenth,C#4_A#4
1443,Left,1,51,80,129.666667,0.15625,TripletSixteenth,D#3
1441,Right,0,68,92,129.666667,0.15625,TripletSixteenth,G#4_C#4
1445,Right,0,67,93,129.833333,0.15625,TripletSixteenth,G4_C#4
1444,Left,1,51,80,129.833333,0.15625,TripletSixteenth,D#3
1447,Right,0,60,80,130.0,0.489583,Eighth,G#4_C4
1448,Left,1,44,80,130.0,0.15625,TripletSixteenth,G#2
1450,Left,1,51,70,130.166667,0.15625,TripletSixteenth,D#3
1451,Left,1,51,70,130.333333,0.15625,TripletSixteenth,D#3
1452,Left,1,51,70,130.5,0.15625,TripletSixteenth,D#3
1453,Left,1,51,70,130.666667,0.15625,TripletSixteenth,D#3
1454,Left,1,51,70,130.833333,0.15625,TripletSixteenth,D#3
1455,Left,1,51,70,131.0,0.15625,TripletSixteenth,D#3
1456,Left,1,51,70,131.166667,0.15625,TripletSixteenth,D#3
1457,Left,1,51,70,131.333333,0.15625,TripletSixteenth,D#3
1458,Right,0,75,80,131.5,0.364583,DottedSixteenth,D#5
1459,Left,1,51,70,131.5,0.15625,TripletSixteenth,D#3
1460,Left,1,51,70,131.666667,0.15625,TripletSixteenth,D#3
1461,Left,1,51,70,131.833333,0.15625,TripletSixteenth,D#3
1462,Right,0,76,80,131.875,0.114583,ThirtySecond,E5
1464,Right,0,77,80,132.0,0.65625,DottedEighth,F5
1463,Left,1,49,70,132.0,0.15625,TripletSixteenth,D#3_D#2_C#3
1467,Left,1,39,70,132.166667,0.15625,TripletSixteenth,D#3_D#2_C#3
1470,Left,1,51,70,132.333333,0.15625,TripletSixteenth,D#3_D#2_C#3
1473,Left,1,39,70,132.5,0.15625,TripletSixteenth,D#3_D#2_C#3
1479,Right,0,75,80,132.666667,0.15625,TripletSixteenth,D#5
1476,Left,1,39,70,132.666667,0.15625,TripletSixteenth,D#3_D#2_C#3
1480,Left,1,39,70,132.833333,0.15625,TripletSixteenth,D#3_D#2_C#3
1483,Right,0,73,80,132.833333,0.15625,TripletSixteenth,C#5
1485,Left,1,51,70,133.0,0.15625,TripletSixteenth,D#3_D#2_C#3
1484,Right,0,72,80,133.0,0.15625,TripletSixteenth,C5
1489,Left,1,39,70,133.166667,0.15625,TripletSixteenth,D#3_D#2_C#3
1488,Right,0,70,80,133.166667,0.15625,TripletSixteenth,A#4
1493,Left,1,39,70,133.333333,0.15625,TripletSixteenth,D#3_D#2_C#3
1492,Right,0,68,80,133.333333,0.15625,TripletSixteenth,G#4
1499,Right,0,67,80,133.5,0.114583,ThirtySecond,G4
1496,Left,1,39,70,133.5,0.15625,TripletSixteenth,D#3_D#2_C#3
1500,Right,0,73,80,133.625,0.114583,ThirtySecond,C#5
1501,Left,1,39,70,133.666667,0.15625,TripletSixteenth,D#3_D#2_C#3
1504,Right,0,70,80,133.75,0.114583,ThirtySecond,A#4
1505,Left,1,39,70,133.833333,0.15625,TripletSixteenth,D#3_D#2_C#3
1508,Right,0,67,80,133.875,0.114583,ThirtySecond,G4
1512,Right,0,68,80,134.0,0.114583,ThirtySecond,G#4
1509,Left,1,44,70,134.0,0.15625,TripletSixteenth,G#2_D#3_C3
1513,Right,0,70,80,134.125,0.072917,TripletThirtySecond,A#4
1514,Right,0,68,80,134.166667,0.072917,TripletThirtySecond,G#4
1515,Left,1,51,70,134.166667,0.15625,TripletSixteenth,D#3
1516,Right,0,67,80,134.208333,0.072917,TripletThirtySecond,G4
1517,Right,0,68,80,134.25,0.114583,ThirtySecond,G#4
1518,Left,1,51,70,134.333333,0.15625,TripletSixteenth,D#3
1519,Right,0,72,80,134.375,0.114583,ThirtySecond,C5
1520,Right,0,63,80,134.5,0.489583,Eighth,D#4
1521,Left,1,51,70,134.5,0.15625,TripletSixteenth,D#3
1522,Left,1,51,70,134.666667,0.15625,TripletSixteenth,D#3
1523,Left,1,51,70,134.833333,0.15625,TripletSixteenth,D#3
1524,Left,1,51,70,135.0,0.15625,TripletSixteenth,D#3
1525,Left,1,51,70,135.166667,0.15625,TripletSixteenth,D#3
1526,Left,1,51,70,135.333333,0.15625,TripletSixteenth,D#3
1528,Right,0,75,80,135.5,0.364583,DottedSixteenth,D#6_D#5
1527,Left,1,51,70,135.5,0.15625,TripletSixteenth,D#3
1530,Left,1,51,70,135.666667,0.15625,TripletSixteenth,D#3
1531,Left,1,51,70,135.833333,0.15625,TripletSixteenth,D#3
1532,Right,0,88,92,135.875,0.114583,ThirtySecond,E6_E5
1534,Right,0,77,105,136.0,0.65625,DottedEighth,F6_F5
1536,Left,1,51,70,136.0,0.15625,TripletSixteenth,D#3_D#2_C#3
1539,Left,1,51,73,136.166667,0.15625,TripletSixteenth,D#3_D#2_C#3
1542,Left,1,39,77,136.333333,0.15625,TripletSixteenth,D#3_D#2_C#3
1545,Left,1,49,81,136.5,0.15625,TripletSixteenth,D#3_D#2_C#3
1550,Left,1,51,85,136.666667,0.15625,TripletSixteenth,D#3_D#2_C#3
1548,Right,0,75,91,136.666667,0.15625,TripletSixteenth,D#6_D#5
1555,Left,1,51,89,136.833333,0.15625,TripletSixteenth,D#3_D#2_C#3
1553,Right,0,73,84,136.833333,0.15625,TripletSixteenth,C#6_C#5
1558,Left,1,49,90,137.0,0.15625,TripletSixteenth,D#3_D#2_C#3
1559,Right,0,84,90,137.0,0.15625,TripletSixteenth,C6_C5
1564,Left,1,51,89,137.166667,0.15625,TripletSixteenth,D#3_D#2_C#3
1563,Right,0,82,89,137.166667,0.15625,TripletSixteenth,A#5_A#4
1569,Left,1,39,87,137.333333,0.15625,TripletSixteenth,D#3_D#2_C#3
1568,Right,0,80,87,137.333333,0.15625,TripletSixteenth,G#5_G#4
1573,Left,1,49,85,137.5,0.15625,TripletSixteenth,D#3_D#2_C#3
1575,Right,0,67,85,137.5,0.15625,TripletSixteenth,G5_G4
1578,Right,0,73,83,137.666667,0.15625,TripletSixteenth,C#6_C#5
1580,Left,1,49,83,137.666667,0.15625,TripletSixteenth,D#3_D#2_C#3
1585,Right,0,67,81,137.833333,0.15625,TripletSixteenth,G5_G4
1583,Left,1,39,81,137.833333,0.15625,TripletSixteenth,D#3_D#2_C#3
1591,Right,0,80,80,138.0,0.489583,Eighth,G#5_G#4
1588,Left,1,44,80,138.0,0.489583,Eighth,G#2_D#3_C3
1595,Right,0,75,80,139.0,0.03125,TripletSixtyFourth,D#5
1593,Left,1,67,80,139.0,0.989583,Quarter,G4_D#4
1596,Right,0,73,80,139.041667,0.114583,ThirtySecond,C#5
1597,Right,0,72,80,139.166667,0.15625,TripletSixteenth,C5
1598,Right,0,73,80,139.333333,0.15625,TripletSixteenth,C#5
1599,Right,0,77,80,139.5,0.15625,TripletSixteenth,F5
1600,Right,0,75,80,139.666667,0.15625,TripletSixteenth,D#5
1601,Right,0,73,80,139.833333,0.15625,TripletSixteenth,C#5
1603,Right,0,72,80,140.0,0.489583,Eighth,C5
1602,Left,1,56,80,140.0,0.489583,Eighth,G#4_G#3
1607,Left,1,51,80,141.0,0.989583,Quarter,D#3_C#4
1605,Right,0,72,80,141.0,0.989583,TripletSixtyFourth,G4_C5
1609,Right,0,70,80,141.041667,0.114583,ThirtySecond,A#4
1610,Right,0,69,80,141.166667,0.15625,TripletSixteenth,A4
1611,Right,0,70,80,141.333333,0.15625,TripletSixteenth,A#4
1612,Right,0,73,80,141.5,0.15625,TripletSixteenth,C#5
1613,Right,0,72,80,141.666667,0.15625,TripletSixteenth,C5
1614,Right,0,70,80,141.833333,0.15625,TripletSixteenth,A#4
1615,Right,0,68,80,142.0,0.489583,Eighth,G#4
1616,Left,1,56,80,142.0,0.489583,Eighth,G#3_C4
1618,Right,0,60,80,143.0,0.989583,TripletSixtyFourth,G3_C4
1620,Left,1,49,80,143.0,0.989583,Quarter,D#2_C#3
1622,Right,0,58,80,143.041667,0.114583,ThirtySecond,A#3
1623,Right,0,57,80,143.166667,0.15625,TripletSixteenth,A3
1624,Right,0,58,80,143.333333,0.15625,TripletSixteenth,A#3
1625,Right,0,61,80,143.5,0.15625,TripletSixteenth,C#4
1626,Right,0,60,80,143.666667,0.15625,TripletSixteenth,C4
1627,Right,0,58,80,143.833333,0.15625,TripletSixteenth,A#3
1629,Right,0,56,80,144.0,0.239583,Sixteenth,G#3
1628,Left,1,48,80,144.0,0.239583,Sixteenth,G#2_C3
1634,Left,1,32,70,144.5,0.239583,Sixteenth,G#1
1631,Right,0,48,70,144.5,0.239583,Sixteenth,G#3_D#3_C3
1637,Left,1,44,70,145.0,0.989583,Quarter,G#2_G#1
1635,Right,0,48,70,145.0,0.989583,Quarter,G#3_C3
