,hand,channel,note,velocity,start_beat,duration,note_value,chord
0,Right,0,67,80,0.5,0.489583,Eighth,G4
1,Right,0,72,80,1.0,0.489583,Eighth,C5
2,Right,0,74,80,1.5,0.489583,Eighth,D5
3,Right,0,75,80,2.0,1.489583,DottedQuarter,D#5
4,Left,1,48,80,2.0,0.489583,Eighth,C3
5,Left,1,51,80,2.5,0.489583,Eighth,D#3
6,Left,1,55,80,3.0,0.489583,Eighth,G3
8,Left,1,60,80,3.5,0.489583,Eighth,C4
7,Right,0,77,80,3.5,0.489583,Eighth,F5
9,Left,1,48,80,4.0,0.489583,Eighth,C3
10,Right,0,74,80,4.0,1.489583,DottedQuarter,D5
11,Left,1,53,80,4.5,0.489583,Eighth,F3
12,Left,1,55,80,5.0,0.489583,Eighth,G3
14,Left,1,59,80,5.5,0.489583,Eighth,B3
13,Right,0,75,80,5.5,0.489583,Eighth,D#5
16,Left,1,48,80,6.0,0.489583,Eighth,C3
15,Right,0,72,80,6.0,1.989583,Half,C5
17,Left,1,51,80,6.5,0.489583,Eighth,D#3
18,Left,1,55,80,7.0,0.489583,Eighth,G3
19,Left,1,60,80,7.5,0.489583,Eighth,C4
20,Left,1,63,80,8.0,0.489583,Eighth,D#4
21,Right,0,74,80,8.0,0.114583,ThirtySecond,D5
22,Right,0,72,80,8.125,0.364583,DottedSixteenth,C5
23,Left,1,67,80,8.5,0.489583,Eighth,G4
24,Right,0,71,80,8.5,0.489583,Eighth,B4
25,Right,0,72,80,9.0,0.489583,Eighth,C5
26,Left,1,63,80,9.0,0.489583,Eighth,D#4
27,Left,1,62,80,9.5,0.489583,Eighth,D4
28,Right,0,74,80,9.5,0.489583,Eighth,D5
30,Right,0,77,80,10.0,0.114583,ThirtySecond,F5
29,Left,1,60,80,10.0,0.489583,Eighth,C4
31,Right,0,75,80,10.125,0.364583,DottedSixteenth,D#5
32,Right,0,74,80,10.5,0.489583,Eighth,D5
33,Left,1,67,80,10.5,0.489583,Eighth,G4
36,Right,0,75,80,11.0,0.489583,Eighth,D#5
34,Left,1,60,80,11.0,0.489583,Eighth,D#4_C4
38,Right,0,77,80,11.5,0.489583,Eighth,F5
37,Left,1,67,80,11.5,0.489583,Eighth,G4
41,Right,0,79,80,12.0,0.989583,Quarter,G5
39,Left,1,59,80,12.0,0.489583,Eighth,D4_B3
42,Left,1,67,80,12.5,0.489583,Eighth,G4
44,Left,1,56,80,13.0,0.489583,Eighth,G#3_C4
43,Right,0,79,80,13.0,0.989583,Quarter,G5
46,Left,1,67,80,13.5,0.489583,Eighth,G4
48,Right,0,79,80,14.0,2.989583,DottedHalf,G5
47,Left,1,55,80,14.0,0.489583,Eighth,G3
49,Left,1,59,80,14.5,0.489583,Eighth,B3
50,Left,1,62,80,15.0,0.489583,Eighth,D4
51,Left,1,67,80,15.5,0.489583,Eighth,G4
52,Left,1,55,80,16.0,0.489583,Eighth,G3
53,Left,1,59,80,16.5,0.489583,Eighth,B3
55,Left,1,62,80,17.0,0.489583,Eighth,D4
54,Right,0,77,80,17.0,0.489583,Eighth,F5
56,Right,0,79,80,17.5,0.489583,Eighth,G5
57,Left,1,67,80,17.5,0.489583,Eighth,G4
59,Left,1,53,80,18.0,0.489583,Eighth,F3
58,Right,0,77,80,18.0,0.239583,Sixteenth,F5
60,Right,0,79,80,18.25,0.239583,Sixteenth,G5
61,Right,0,80,80,18.5,1.489583,DottedQuarter,G#5
62,Left,1,56,80,18.5,0.489583,Eighth,G#3
63,Left,1,59,80,19.0,0.489583,Eighth,B3
64,Left,1,62,80,19.5,0.489583,Eighth,D4
66,Left,1,53,80,20.0,0.489583,Eighth,F3
65,Right,0,74,80,20.0,0.989583,Quarter,D5
67,Left,1,56,80,20.5,0.489583,Eighth,G#3
68,Left,1,59,80,21.0,0.489583,Eighth,B3
69,Right,0,75,80,21.0,0.489583,Eighth,D#5
71,Right,0,77,80,21.5,0.489583,Eighth,F5
70,Left,1,62,80,21.5,0.489583,Eighth,D4
72,Right,0,75,80,22.0,0.239583,Sixteenth,D#5
73,Left,1,51,80,22.0,0.489583,Eighth,D#3
74,Right,0,77,80,22.25,0.239583,Sixteenth,F5
76,Right,0,79,80,22.5,1.489583,DottedQuarter,G5
75,Left,1,56,80,22.5,0.489583,Eighth,G#3
77,Left,1,60,80,23.0,0.489583,Eighth,C4
78,Left,1,63,80,23.5,0.489583,Eighth,D#4
80,Right,0,72,80,24.0,0.989583,Quarter,C5
79,Left,1,56,80,24.0,0.489583,Eighth,G#3
81,Left,1,60,80,24.5,0.489583,Eighth,C4
82,Left,1,63,80,25.0,0.489583,Eighth,D#4
83,Right,0,72,80,25.0,0.489583,Eighth,C5
84,Left,1,66,80,25.5,0.489583,Eighth,F#4
85,Right,0,74,80,25.5,0.489583,Eighth,D5
86,Left,1,55,80,26.0,0.489583,Eighth,G3
87,Right,0,75,80,26.0,0.989583,Quarter,D#5
88,Left,1,60,80,26.5,0.489583,Eighth,C4
89,Left,1,63,80,27.0,0.489583,Eighth,D#4
90,Right,0,75,80,27.0,0.489583,Eighth,D#5
92,Right,0,77,80,27.5,0.489583,Eighth,F5
91,Left,1,67,80,27.5,0.489583,Eighth,G4
94,Left,1,55,80,28.0,0.489583,Eighth,G3
93,Right,0,74,80,28.0,0.989583,Quarter,D5
95,Left,1,59,80,28.5,0.489583,Eighth,B3
96,Right,0,74,80,29.0,0.489583,Eighth,D5
97,Left,1,62,80,29.0,0.489583,Eighth,D4
98,Left,1,67,80,29.5,0.489583,Eighth,G4
99,Right,0,75,80,29.5,0.489583,Eighth,D#5
100,Right,0,72,80,30.0,0.989583,Quarter,C5
101,Left,1,48,80,30.5,0.489583,Eighth,C3
102,Left,1,51,80,31.0,0.489583,Eighth,D#3
103,Left,1,55,80,31.5,0.489583,Eighth,G3
104,Left,1,60,80,32.0,0.989583,Quarter,C4
105,Right,0,77,80,33.0,0.489583,Eighth,F5
106,Right,0,79,80,33.5,0.489583,Eighth,G5
107,Right,0,68,80,34.0,1.989583,Half,G#5_G#4
109,Left,1,41,80,34.5,0.489583,Eighth,F2
110,Left,1,47,80,35.0,0.489583,Eighth,B2
111,Left,1,50,80,35.5,0.489583,Eighth,D3
113,Right,0,74,80,36.0,0.989583,Quarter,D5
112,Left,1,53,80,36.0,0.489583,Eighth,F3
114,Left,1,56,80,36.5,0.489583,Eighth,G#3
116,Right,0,75,80,37.0,0.489583,Eighth,D#5
115,Left,1,55,80,37.0,0.489583,Eighth,G3
117,Right,0,77,80,37.5,0.489583,Eighth,F5
118,Left,1,53,80,37.5,0.489583,Eighth,F3
119,Right,0,67,80,38.0,1.989583,Half,G5_G4
121,Left,1,39,80,38.5,0.489583,Eighth,D#2
122,Left,1,43,80,39.0,0.489583,Eighth,G2
123,Left,1,48,80,39.5,0.489583,Eighth,C3
124,Right,0,72,80,40.0,0.989583,Quarter,C5
125,Left,1,51,80,40.0,0.489583,Eighth,D#3
126,Left,1,55,80,40.5,0.489583,Eighth,G3
127,Right,0,72,80,41.0,0.489583,Eighth,C5
128,Left,1,56,80,41.0,0.489583,Eighth,G#3
129,Right,0,74,80,41.5,0.489583,Eighth,D5
130,Left,1,54,80,41.5,0.489583,Eighth,F#3
132,Right,0,75,80,42.0,0.989583,Quarter,D#5
131,Left,1,43,80,42.0,0.489583,Eighth,G2
133,Left,1,55,80,42.5,0.489583,Eighth,G3
135,Left,1,60,80,43.0,0.489583,Eighth,C4
134,Right,0,75,80,43.0,0.489583,Eighth,D#5
136,Left,1,55,80,43.5,0.489583,Eighth,G3
137,Right,0,77,80,43.5,0.489583,Eighth,F5
139,Right,0,74,80,44.0,0.989583,Quarter,D5
138,Left,1,43,80,44.0,0.489583,Eighth,G2
140,Left,1,55,80,44.5,0.489583,Eighth,G3
142,Left,1,59,80,45.0,0.489583,Eighth,B3
141,Right,0,74,80,45.0,0.489583,Eighth,D5
144,Right,0,75,80,45.5,0.489583,Eighth,D#5
143,Left,1,55,80,45.5,0.489583,Eighth,G3
146,Right,0,72,80,46.0,0.989583,Quarter,C5
145,Left,1,48,80,46.0,0.489583,Eighth,C3
147,Left,1,60,80,46.5,0.489583,Eighth,C4
149,Left,1,59,81,47.0,0.489583,Eighth,B3
148,Right,0,82,81,47.0,1.989583,Half,A#5
150,Left,1,60,82,47.5,0.489583,Eighth,C4
151,Left,1,52,83,48.0,0.489583,Eighth,E3
152,Left,1,60,84,48.5,0.489583,Eighth,C4
153,Left,1,55,85,49.0,0.489583,Eighth,G3
154,Right,0,82,85,49.0,1.489583,DottedQuarter,A#5
155,Left,1,60,86,49.5,0.489583,Eighth,C4
156,Left,1,53,87,50.0,0.489583,Eighth,F3
157,Right,0,80,88,50.5,0.489583,Eighth,G#5
158,Left,1,60,88,50.5,0.489583,Eighth,C4
160,Right,0,79,89,51.0,0.489583,Eighth,G5
159,Left,1,56,89,51.0,0.489583,Eighth,G#3
162,Right,0,77,90,51.5,0.489583,Eighth,F5
161,Left,1,60,90,51.5,0.489583,Eighth,C4
164,Right,0,75,91,52.0,0.489583,Eighth,D#5
163,Left,1,55,91,52.0,0.489583,Eighth,G3
166,Right,0,74,92,52.5,0.489583,Eighth,D5
165,Left,1,65,92,52.5,0.489583,Eighth,F4
168,Right,0,72,93,53.0,0.489583,Eighth,C5
167,Left,1,59,93,53.0,0.489583,Eighth,B3
169,Right,0,71,94,53.5,0.489583,Eighth,B4
170,Left,1,65,94,53.5,0.489583,Eighth,F4
172,Right,0,72,95,54.0,0.989583,Quarter,C5
171,Left,1,56,95,54.0,0.489583,Eighth,G#3
173,Left,1,63,96,54.5,0.489583,Eighth,D#4
174,Right,0,72,97,55.0,1.989583,Half,C6_C5
176,Left,1,60,97,55.0,0.489583,Eighth,C4
177,Left,1,63,98,55.5,0.489583,Eighth,D#4
178,Left,1,55,99,56.0,0.489583,Eighth,G3
179,Left,1,64,100,56.5,0.489583,Eighth,E4
181,Left,1,60,101,57.0,0.489583,Eighth,C4
180,Right,0,82,101,57.0,1.489583,DottedQuarter,A#5
182,Left,1,64,102,57.5,0.489583,Eighth,E4
183,Left,1,53,103,58.0,0.489583,Eighth,F3
185,Right,0,80,104,58.5,0.489583,Eighth,G#5
184,Left,1,65,104,58.5,0.489583,Eighth,F4
187,Left,1,60,105,59.0,0.489583,Eighth,C4
186,Right,0,79,105,59.0,0.489583,Eighth,G5
188,Left,1,65,106,59.5,0.489583,Eighth,F4
189,Right,0,77,106,59.5,0.489583,Eighth,F5
191,Right,0,75,107,60.0,0.489583,Eighth,D#5
190,Left,1,55,107,60.0,0.489583,Eighth,G3
193,Left,1,67,108,60.5,0.489583,Eighth,G4
192,Right,0,74,108,60.5,0.489583,Eighth,D5
195,Left,1,55,109,61.0,0.489583,Eighth,G3
194,Right,0,72,109,61.0,0.489583,Eighth,C5
196,Left,1,67,109,61.5,0.489583,Eighth,G4
197,Right,0,71,109,61.5,0.489583,Eighth,B4
199,Right,0,72,110,62.0,0.989583,Quarter,C5
198,Left,1,60,110,62.0,0.989583,Quarter,C4
200,Right,0,74,110,63.0,0.239583,Sixteenth,D5
201,Left,1,55,110,63.0,0.989583,Quarter,G3_B3
203,Right,0,75,110,63.25,0.239583,Sixteenth,D#5
204,Right,0,72,110,63.5,0.239583,Sixteenth,C5
205,Right,0,74,110,63.75,0.239583,Sixteenth,D5
206,Left,1,60,110,64.0,0.989583,Quarter,C4_C3
207,Right,0,75,110,64.0,0.989583,Quarter,D#5
212,Left,1,43,110,65.0,0.989583,Quarter,G3_G2
209,Right,0,71,110,65.0,0.989583,Quarter,D5_B5_B4
214,Left,1,48,110,66.0,0.989583,Quarter,C3_C2
215,Right,0,84,110,66.0,0.989583,Quarter,D#5_C6_C5
221,Right,0,55,110,70.0,3.989583,Whole,G3_E4_C4
219,Left,1,34,110,70.0,3.989583,Whole,A#2_A#1
224,Left,1,44,80,74.0,0.989583,Quarter,G#2_G#1
226,Right,0,65,80,74.0,0.489583,Eighth,F4
227,Right,0,72,80,74.5,0.489583,Eighth,C5
228,Right,0,68,80,75.0,0.489583,Eighth,G#4
229,Right,0,77,80,75.5,0.489583,Eighth,F5
230,Right,0,72,80,76.0,0.489583,Eighth,C5
231,Right,0,80,80,76.5,0.489583,Eighth,G#5
232,Right,0,77,80,77.0,0.489583,Eighth,F5
233,Right,0,84,80,77.5,0.489583,Eighth,C6
234,Right,0,82,80,78.0,0.489583,Eighth,A#5
235,Right,0,79,80,78.5,0.489583,Eighth,G5
237,Left,1,60,80,79.0,0.989583,Quarter,E3_C4
236,Right,0,76,80,79.0,0.489583,Eighth,E5
239,Right,0,72,80,79.5,0.489583,Eighth,C5
240,Left,1,52,80,80.0,0.989583,Quarter,E3_C4
242,Right,0,70,80,80.0,0.489583,Eighth,A#4
243,Right,0,71,80,80.5,0.489583,Eighth,B4
245,Left,1,60,80,81.0,0.989583,Quarter,E3_C4
244,Right,0,72,80,81.0,0.489583,Eighth,C5
247,Right,0,67,80,81.5,0.489583,Eighth,G4
248,Right,0,70,80,82.0,1.989583,Half,A#4
249,Left,1,53,80,82.0,2.989583,DottedHalf,F3_C4
251,Right,0,68,80,84.0,0.989583,Quarter,G#4
254,Left,1,32,110,86.0,3.989583,Whole,G#2_G#1
252,Right,0,58,110,86.0,3.989583,Whole,F3_D4_A#3
259,Right,0,63,80,90.0,0.489583,Eighth,D#4
257,Left,1,31,80,90.0,0.989583,Quarter,G2_G1
260,Right,0,70,80,90.5,0.489583,Eighth,A#4
261,Right,0,67,80,91.0,0.489583,Eighth,G4
262,Right,0,75,80,91.5,0.489583,Eighth,D#5
263,Right,0,70,80,92.0,0.489583,Eighth,A#4
264,Right,0,79,80,92.5,0.489583,Eighth,G5
265,Right,0,75,80,93.0,0.489583,Eighth,D#5
266,Right,0,82,80,93.5,0.489583,Eighth,A#5
267,Right,0,80,80,94.0,0.489583,Eighth,G#5
268,Right,0,79,80,94.5,0.489583,Eighth,G5
271,Right,0,77,80,95.0,0.489583,Eighth,F5
269,Left,1,50,80,95.0,0.989583,Quarter,D3_A#3
272,Right,0,75,80,95.5,0.489583,Eighth,D#5
273,Left,1,50,80,96.0,0.989583,Quarter,D3_A#3
274,Right,0,74,80,96.0,0.489583,Eighth,D5
276,Right,0,72,80,96.5,0.489583,Eighth,C5
277,Right,0,70,80,97.0,0.489583,Eighth,A#4
278,Left,1,50,80,97.0,0.989583,Quarter,D3_A#3
280,Right,0,68,80,97.5,0.489583,Eighth,G#4
282,Right,0,67,80,98.0,0.989583,Quarter,G4
281,Left,1,51,80,98.0,0.489583,Eighth,D#3
283,Left,1,58,80,98.5,0.489583,Eighth,A#3
285,Left,1,63,80,99.0,0.489583,Eighth,D#4
284,Right,0,70,80,99.0,1.989583,Half,A#4
286,Left,1,58,80,99.5,0.489583,Eighth,A#3
287,Left,1,56,80,100.0,0.489583,Eighth,G#3
288,Left,1,58,80,100.5,0.489583,Eighth,A#3
290,Right,0,70,80,101.0,1.489583,DottedQuarter,A#4
289,Left,1,62,80,101.0,0.489583,Eighth,D4
291,Left,1,58,80,101.5,0.489583,Eighth,A#3
292,Left,1,55,80,102.0,0.489583,Eighth,G3
293,Right,0,72,80,102.5,0.489583,Eighth,C5
294,Left,1,58,80,102.5,0.489583,Eighth,A#3
296,Right,0,74,80,103.0,0.489583,Eighth,D5
295,Left,1,63,80,103.0,0.489583,Eighth,D#4
297,Left,1,58,80,103.5,0.489583,Eighth,A#3
298,Right,0,75,80,103.5,0.489583,Eighth,D#5
300,Left,1,50,80,104.0,0.489583,Eighth,D3
299,Right,0,77,80,104.0,0.489583,Eighth,F5
301,Left,1,58,80,104.5,0.489583,Eighth,A#3
302,Right,0,79,80,104.5,0.489583,Eighth,G5
303,Left,1,62,80,105.0,0.489583,Eighth,D4
304,Right,0,80,80,105.0,0.489583,Eighth,G#5
305,Right,0,77,80,105.5,0.489583,Eighth,F5
306,Left,1,58,80,105.5,0.489583,Eighth,A#3
308,Right,0,80,80,106.0,0.489583,Eighth,G#5
307,Left,1,51,80,106.0,0.489583,Eighth,D#3
310,Right,0,79,80,106.5,0.489583,Eighth,G5
309,Left,1,58,80,106.5,0.489583,Eighth,A#3
311,Right,0,77,80,107.0,0.489583,Eighth,F5
312,Left,1,63,80,107.0,0.489583,Eighth,D#4
314,Right,0,75,80,107.5,0.489583,Eighth,D#5
313,Left,1,58,80,107.5,0.489583,Eighth,A#3
316,Right,0,75,80,108.0,0.489583,Eighth,D#5
315,Left,1,56,80,108.0,0.489583,Eighth,G#3
318,Right,0,74,80,108.5,0.489583,Eighth,D5
317,Left,1,58,80,108.5,0.489583,Eighth,A#3
320,Right,0,72,80,109.0,0.489583,Eighth,C5
319,Left,1,65,80,109.0,0.489583,Eighth,F4
322,Right,0,74,80,109.5,0.489583,Eighth,D5
321,Left,1,58,80,109.5,0.489583,Eighth,A#3
324,Left,1,55,80,110.0,0.489583,Eighth,G3
323,Right,0,77,80,110.0,0.489583,Eighth,F5
325,Right,0,75,80,110.5,0.489583,Eighth,D#5
326,Left,1,58,80,110.5,0.489583,Eighth,A#3
328,Left,1,63,80,111.0,0.489583,Eighth,D#4
327,Right,0,74,80,111.0,0.489583,Eighth,D5
329,Right,0,72,80,111.5,0.489583,Eighth,C5
330,Left,1,58,80,111.5,0.489583,Eighth,A#3
332,Right,0,68,80,112.0,0.989583,Quarter,G#4_A#4
331,Left,1,50,80,112.0,0.489583,Eighth,D3
334,Left,1,58,80,112.5,0.489583,Eighth,A#3
336,Left,1,50,80,113.0,0.489583,Eighth,D3
335,Right,0,70,80,113.0,0.989583,Quarter,G#4_A#4
338,Left,1,58,80,113.5,0.489583,Eighth,A#3
341,Left,1,51,80,114.0,0.489583,Eighth,D#3
339,Right,0,68,80,114.0,4.489583,Eighth,G#4_A#4
342,Right,0,67,80,114.5,0.489583,Eighth,G4
343,Left,1,58,80,114.5,0.489583,Eighth,A#3
345,Left,1,51,80,115.0,0.489583,Eighth,D#3
344,Right,0,65,80,115.0,0.489583,Eighth,F4
347,Left,1,58,80,115.5,0.489583,Eighth,A#3
346,Right,0,63,80,115.5,0.489583,Eighth,D#4
349,Left,1,56,80,116.0,0.489583,Eighth,G#3
348,Right,0,63,80,116.0,0.489583,Eighth,D#4
351,Left,1,58,80,116.5,0.489583,Eighth,A#3
350,Right,0,62,80,116.5,0.489583,Eighth,D4
352,Left,1,56,80,117.0,0.489583,Eighth,G#3
353,Right,0,60,80,117.0,0.489583,Eighth,C4
354,Left,1,58,80,117.5,0.489583,Eighth,A#3
355,Right,0,62,80,117.5,0.489583,Eighth,D4
357,Left,1,54,80,118.0,0.489583,Eighth,F#3
356,Right,0,63,80,118.0,0.489583,Eighth,D#4
358,Left,1,58,80,118.5,0.489583,Eighth,A#3
359,Right,0,72,80,118.5,0.489583,Eighth,C5
361,Left,1,54,80,119.0,0.489583,Eighth,F#3
360,Right,0,74,80,119.0,0.489583,Eighth,D5
363,Left,1,58,80,119.5,0.489583,Eighth,A#3
362,Right,0,75,80,119.5,0.489583,Eighth,D#5
364,Right,0,77,80,120.0,0.489583,Eighth,F5
365,Left,1,50,80,120.0,0.489583,Eighth,D3
367,Right,0,78,80,120.5,0.489583,Eighth,F#5
366,Left,1,58,80,120.5,0.489583,Eighth,A#3
369,Right,0,80,80,121.0,0.489583,Eighth,G#5
368,Left,1,50,80,121.0,0.489583,Eighth,D3
371,Right,0,77,80,121.5,0.489583,Eighth,F5
370,Left,1,58,80,121.5,0.489583,Eighth,A#3
372,Right,0,78,80,122.0,0.989583,Quarter,F#5
373,Left,1,51,80,122.0,0.489583,Eighth,D#3
374,Left,1,58,80,122.5,0.489583,Eighth,A#3
375,Right,0,82,81,123.0,1.989583,Half,A#5
376,Left,1,54,81,123.0,0.489583,Eighth,F#3
377,Left,1,58,82,123.5,0.489583,Eighth,A#3
378,Left,1,46,83,124.0,0.489583,Eighth,A#2
379,Left,1,58,84,124.5,0.489583,Eighth,A#3
381,Right,0,82,85,125.0,1.989583,Half,A#5
380,Left,1,50,85,125.0,0.489583,Eighth,D3
382,Left,1,58,86,125.5,0.489583,Eighth,A#3
383,Left,1,47,87,126.0,0.489583,Eighth,B2
384,Left,1,58,88,126.5,0.489583,Eighth,A#3
386,Left,1,51,89,127.0,0.489583,Eighth,D#3
385,Right,0,87,89,127.0,1.989583,Half,D#6
387,Left,1,58,90,127.5,0.489583,Eighth,A#3
388,Left,1,48,91,128.0,0.489583,Eighth,C3
389,Left,1,57,92,128.5,0.489583,Eighth,A3
391,Left,1,51,93,129.0,0.489583,Eighth,D#3
390,Right,0,81,93,129.0,0.989583,Quarter,A5
392,Left,1,57,94,129.5,0.489583,Eighth,A3
394,Left,1,46,80,130.0,0.989583,Quarter,A#2
393,Right,0,82,80,130.0,2.322917,Half,A#5
395,Left,1,62,80,131.0,0.989583,Quarter,F4_D4_A#3
398,Left,1,63,100,132.0,1.989583,Half,F#4_D#4_A#3
401,Right,0,81,80,132.333333,0.322917,Triplet,A5
402,Right,0,82,80,132.666667,0.322917,Triplet,A#5
403,Right,0,84,80,133.0,0.322917,Triplet,C6
404,Right,0,82,80,133.333333,0.322917,Triplet,A#5
405,Right,0,81,80,133.666667,0.322917,Triplet,A5
406,Right,0,82,80,134.0,2.322917,Half,A#5
407,Left,1,58,80,135.0,0.989583,Quarter,F4_D4_A#3
410,Left,1,58,90,136.0,1.989583,Half,F#4_D#4_A#3
413,Right,0,81,80,136.333333,0.322917,Triplet,A5
414,Right,0,82,80,136.666667,0.322917,Triplet,A#5
415,Right,0,84,80,137.0,0.322917,Triplet,C6
416,Right,0,82,80,137.333333,0.322917,Triplet,A#5
417,Right,0,81,80,137.666667,0.322917,Triplet,A5
418,Left,1,62,80,138.0,0.989583,Quarter,F4_D4_A#3
421,Right,0,82,80,138.333333,0.322917,Triplet,A#5
422,Right,0,84,80,138.666667,0.322917,Triplet,C6
423,Right,0,86,80,139.0,0.322917,Triplet,D6
424,Right,0,84,80,139.333333,0.322917,Triplet,C6
425,Right,0,82,80,139.666667,0.322917,Triplet,A#5
426,Left,1,58,80,140.0,0.989583,Quarter,G#4_F4_A#3
429,Right,0,86,80,140.333333,0.322917,Triplet,D6
430,Right,0,87,80,140.666667,0.322917,Triplet,D#6
431,Right,0,89,80,141.0,0.322917,Triplet,F6
432,Right,0,87,80,141.333333,0.322917,Triplet,D#6
433,Right,0,86,80,141.666667,0.322917,Triplet,D6
434,Right,0,89,80,142.0,0.322917,Triplet,F6
435,Left,1,62,80,142.0,0.989583,Quarter,G#4_F4_D4_A#3
439,Right,0,87,80,142.333333,0.322917,Triplet,D#6
440,Right,0,86,80,142.666667,0.322917,Triplet,D6
441,Right,0,84,80,143.0,0.322917,Triplet,C6
442,Right,0,82,80,143.333333,0.322917,Triplet,A#5
443,Right,0,80,80,143.666667,0.322917,Triplet,G#5
444,Right,0,79,80,144.0,0.322917,Triplet,G5
445,Right,0,77,80,144.333333,0.322917,Triplet,F5
446,Right,0,75,80,144.666667,0.322917,Triplet,D#5
447,Right,0,74,80,145.0,0.239583,Sixteenth,D5
448,Right,0,72,80,145.25,0.239583,Sixteenth,C5
449,Right,0,70,80,145.5,0.239583,Sixteenth,A#4
450,Right,0,68,80,145.75,0.239583,Sixteenth,G#4
451,Left,1,51,80,146.0,0.989583,Quarter,D#3
452,Right,0,67,80,146.0,0.322917,Triplet,G4
453,Right,0,63,80,146.333333,0.322917,Triplet,D#4
454,Right,0,65,80,146.666667,0.322917,Triplet,F4
455,Right,0,67,80,147.0,0.322917,Triplet,G4
456,Right,0,65,80,147.333333,0.322917,Triplet,F4
457,Right,0,63,80,147.666667,0.322917,Triplet,D#4
458,Right,0,68,80,148.0,1.989583,Half,G#4
459,Left,1,58,80,148.333333,0.322917,Triplet,A#3
460,Left,1,60,80,148.666667,0.322917,Triplet,C4
461,Left,1,62,80,149.0,0.322917,Triplet,D4
462,Left,1,60,80,149.333333,0.322917,Triplet,C4
463,Left,1,58,80,149.666667,0.322917,Triplet,A#3
464,Right,0,67,80,150.0,0.322917,Triplet,G4
465,Left,1,63,80,150.0,0.989583,Quarter,D#4
466,Right,0,75,80,150.333333,0.322917,Triplet,D#5
467,Right,0,77,80,150.666667,0.322917,Triplet,F5
468,Right,0,79,80,151.0,0.322917,Triplet,G5
469,Right,0,77,80,151.333333,0.322917,Triplet,F5
470,Right,0,75,80,151.666667,0.322917,Triplet,D#5
471,Right,0,80,80,152.0,1.989583,Half,G#5
472,Left,1,58,80,152.333333,0.322917,Triplet,A#3
473,Left,1,60,80,152.666667,0.322917,Triplet,C4
474,Left,1,62,80,153.0,0.322917,Triplet,D4
475,Left,1,60,80,153.333333,0.322917,Triplet,C4
476,Left,1,58,80,153.666667,0.322917,Triplet,A#3
477,Right,0,79,80,154.0,0.322917,Triplet,G5
478,Left,1,63,80,154.0,0.989583,Quarter,D#4
479,Right,0,75,80,154.333333,0.322917,Triplet,D#5
480,Right,0,77,80,154.666667,0.322917,Triplet,F5
481,Right,0,79,80,155.0,0.322917,Triplet,G5
482,Right,0,77,80,155.333333,0.322917,Triplet,F5
483,Right,0,75,80,155.666667,0.322917,Triplet,D#5
485,Right,0,82,80,156.0,0.322917,Triplet,A#5
484,Left,1,63,80,156.0,0.989583,Quarter,D#4
486,Right,0,79,80,156.333333,0.322917,Triplet,G5
487,Right,0,80,80,156.666667,0.322917,Triplet,G#5
488,Right,0,82,80,157.0,0.322917,Triplet,A#5
489,Right,0,80,80,157.333333,0.322917,Triplet,G#5
490,Right,0,79,80,157.666667,0.322917,Triplet,G5
491,Right,0,85,80,158.0,0.322917,Triplet,C#6
492,Left,1,58,80,158.0,0.989583,Quarter,G3_D#4_C#4_A#3
496,Right,0,84,80,158.333333,0.322917,Triplet,C6
497,Right,0,82,80,158.666667,0.322917,Triplet,A#5
498,Right,0,80,80,159.0,0.322917,Triplet,G#5
499,Right,0,79,80,159.333333,0.322917,Triplet,G5
500,Right,0,77,80,159.666667,0.322917,Triplet,F5
501,Right,0,75,80,160.0,0.322917,Triplet,D#5
502,Right,0,74,80,160.333333,0.322917,Triplet,D5
503,Right,0,75,80,160.666667,0.322917,Triplet,D#5
504,Right,0,76,80,161.0,0.322917,Triplet,E5
505,Right,0,77,80,161.333333,0.322917,Triplet,F5
506,Right,0,73,80,161.666667,0.322917,Triplet,C#5
507,Left,1,44,80,162.0,0.322917,Triplet,G#2
508,Left,1,48,80,162.333333,0.322917,Triplet,C3
509,Left,1,51,80,162.666667,0.322917,Triplet,D#3
510,Right,0,60,80,163.0,0.322917,Triplet,C4
511,Left,1,56,80,163.0,0.989583,Quarter,G#3
512,Right,0,63,80,163.333333,0.322917,Triplet,D#4
513,Right,0,68,80,163.666667,0.322917,Triplet,G#4
514,Right,0,72,80,164.0,0.322917,Triplet,C5
515,Right,0,75,80,164.333333,0.322917,Triplet,D#5
516,Right,0,80,80,164.666667,0.322917,Triplet,G#5
517,Right,0,84,80,165.0,0.489583,Eighth,C6
518,Right,0,84,80,165.5,0.489583,Eighth,C6
519,Right,0,84,80,166.0,0.489583,Eighth,C6
520,Left,1,58,80,166.0,0.989583,Quarter,G4_D#4_A#3
523,Right,0,82,80,166.5,0.489583,Eighth,A#5
524,Right,0,80,80,167.0,0.489583,Eighth,G#5
525,Right,0,79,80,167.5,0.489583,Eighth,G5
526,Left,1,65,80,168.0,0.989583,Quarter,G#4_F4_A#3
528,Right,0,79,80,168.0,0.489583,Eighth,G5
530,Right,0,77,80,168.5,0.489583,Eighth,F5
531,Right,0,75,80,169.0,0.489583,Eighth,D#5
532,Right,0,74,80,169.5,0.489583,Eighth,D5
533,Left,1,67,80,170.0,0.989583,Quarter,G4_D#4
534,Right,0,75,80,170.0,0.989583,Quarter,D#5
536,Right,0,58,80,173.0,0.989583,Quarter,A#3
537,Left,1,58,80,174.0,0.989583,Quarter,G#3_A#3
539,Right,0,65,80,174.0,0.989583,Quarter,F4_D4
543,Right,0,65,80,175.0,0.989583,Quarter,F4_D4
541,Left,1,58,80,175.0,0.989583,Quarter,G#3_A#3
545,Right,0,65,80,176.0,0.989583,Quarter,F4_D4
546,Left,1,56,80,176.0,0.989583,Quarter,G#3_A#3
550,Left,1,56,80,177.0,0.989583,Quarter,G#3_A#3
549,Right,0,62,80,177.0,0.989583,Quarter,F4_D4
554,Left,1,55,80,178.0,2.989583,DottedHalf,G3_A#3
553,Right,0,63,80,178.0,2.989583,DottedHalf,D#4_A#4
557,Left,1,55,80,181.0,0.989583,Quarter,G3
558,Right,0,63,80,181.0,0.989583,Quarter,D#4_A#4
562,Left,1,60,80,182.0,1.989583,Half,C4
560,Right,0,63,80,182.0,1.989583,Half,G#4_D#4
563,Left,1,59,80,184.0,1.989583,Half,B3
564,Right,0,69,80,184.0,1.989583,Half,F4_D#4_A4
568,Right,0,70,80,186.0,2.989583,DottedHalf,F4_D4_A#4
567,Left,1,58,80,186.0,2.989583,DottedHalf,A#3
571,Right,0,70,80,189.0,0.989583,Quarter,A#4
574,Right,0,70,80,190.0,0.989583,Quarter,F5_A#4
572,Left,1,56,80,190.0,0.989583,Quarter,G#3_D4
577,Left,1,56,84,191.0,0.989583,Quarter,G#3_D4
576,Right,0,77,84,191.0,0.989583,Quarter,F5_A#4
580,Left,1,62,88,192.0,0.989583,Quarter,G#3_D4
582,Right,0,77,88,192.0,0.989583,Quarter,F5_A#4
584,Left,1,56,92,193.0,0.989583,Quarter,G#3_D4
586,Right,0,77,92,193.0,0.989583,Quarter,F5_A#4
588,Left,1,63,97,194.0,3.989583,Whole,G3_D#4
589,Right,0,70,97,194.0,2.989583,Half,A#5_A#4
592,Right,0,73,105,196.0,1.989583,Half,C#5
593,Right,0,83,109,197.0,0.989583,Quarter,B5
595,Left,1,56,110,198.0,0.989583,Quarter,G#3_D#4
594,Right,0,84,110,198.0,0.989583,Quarter,C6_C5
598,Right,0,68,110,200.0,0.989583,Quarter,G#4_F4_D5
600,Left,1,46,110,200.0,0.989583,Quarter,A#3_A#2
603,Right,0,67,80,202.0,0.989583,Quarter,G4_D#5
605,Left,1,63,80,202.333333,0.322917,Triplet,D#4
606,Left,1,65,80,202.666667,0.322917,Triplet,F4
607,Left,1,67,80,203.0,0.322917,Triplet,G4
608,Left,1,65,80,203.333333,0.322917,Triplet,F4
609,Left,1,63,80,203.666667,0.322917,Triplet,D#4
610,Left,1,68,80,204.0,1.989583,Half,G#4
611,Right,0,70,80,204.333333,0.322917,Triplet,A#4
612,Right,0,72,80,204.666667,0.322917,Triplet,C5
613,Right,0,74,80,205.0,0.322917,Triplet,D5
614,Right,0,72,80,205.333333,0.322917,Triplet,C5
615,Right,0,70,80,205.666667,0.322917,Triplet,A#4
617,Right,0,75,80,206.0,0.989583,Quarter,D#5
616,Left,1,67,80,206.0,0.322917,Triplet,G4
618,Left,1,63,80,206.333333,0.322917,Triplet,D#4
619,Left,1,65,80,206.666667,0.322917,Triplet,F4
620,Left,1,67,80,207.0,0.322917,Triplet,G4
621,Left,1,65,80,207.333333,0.322917,Triplet,F4
622,Left,1,63,80,207.666667,0.322917,Triplet,D#4
623,Left,1,68,80,208.0,1.989583,Half,G#4
624,Right,0,70,80,208.333333,0.322917,Triplet,A#4
625,Right,0,72,80,208.666667,0.322917,Triplet,C5
626,Right,0,74,80,209.0,0.322917,Triplet,D5
627,Right,0,72,80,209.333333,0.322917,Triplet,C5
628,Right,0,70,80,209.666667,0.322917,Triplet,A#4
630,Right,0,75,80,210.0,0.322917,Triplet,D#5
629,Left,1,67,80,210.0,0.989583,Quarter,G4_D#4
632,Right,0,79,80,210.333333,0.322917,Triplet,G5
633,Right,0,77,80,210.666667,0.322917,Triplet,F5
635,Right,0,75,80,211.0,0.322917,Triplet,D#5
634,Left,1,60,80,211.0,0.989583,Quarter,C4
636,Right,0,74,80,211.333333,0.322917,Triplet,D5
637,Right,0,72,80,211.666667,0.322917,Triplet,C5
638,Right,0,71,80,212.0,0.322917,Triplet,B4
639,Left,1,56,80,212.0,0.989583,Quarter,G#3
640,Right,0,72,80,212.333333,0.322917,Triplet,C5
641,Right,0,70,80,212.666667,0.322917,Triplet,A#4
642,Left,1,58,80,213.0,0.989583,Quarter,A#3
643,Right,0,68,80,213.0,0.322917,Triplet,G#4
644,Right,0,67,80,213.333333,0.322917,Triplet,G4
645,Right,0,65,80,213.666667,0.322917,Triplet,F4
646,Right,0,63,80,214.0,0.989583,Quarter,D#4
647,Left,1,39,80,214.333333,0.322917,Triplet,D#2
648,Left,1,41,80,214.666667,0.322917,Triplet,F2
649,Left,1,43,80,215.0,0.322917,Triplet,G2
650,Left,1,41,80,215.333333,0.322917,Triplet,F2
651,Left,1,39,80,215.666667,0.322917,Triplet,D#2
652,Left,1,44,104,216.0,1.989583,Half,G#2
653,Right,0,58,80,216.333333,0.322917,Triplet,A#3
654,Right,0,60,80,216.666667,0.322917,Triplet,C4
655,Right,0,62,80,217.0,0.322917,Triplet,D4
656,Right,0,60,80,217.333333,0.322917,Triplet,C4
657,Right,0,58,80,217.666667,0.322917,Triplet,A#3
659,Left,1,43,80,218.0,0.322917,Triplet,G2
658,Right,0,63,80,218.0,0.989583,Quarter,D#4
660,Left,1,39,80,218.333333,0.322917,Triplet,D#2
661,Left,1,41,80,218.666667,0.322917,Triplet,F2
662,Left,1,43,80,219.0,0.322917,Triplet,G2
663,Left,1,41,80,219.333333,0.322917,Triplet,F2
664,Left,1,39,80,219.666667,0.322917,Triplet,D#2
665,Left,1,44,105,220.0,1.989583,Half,G#2
666,Right,0,58,80,220.333333,0.322917,Triplet,A#3
667,Right,0,60,80,220.666667,0.322917,Triplet,C4
668,Right,0,62,80,221.0,0.322917,Triplet,D4
669,Right,0,60,80,221.333333,0.322917,Triplet,C4
670,Right,0,58,80,221.666667,0.322917,Triplet,A#3
671,Left,1,43,80,222.0,0.322917,Triplet,G2
672,Right,0,63,80,222.0,0.989583,Quarter,D#4
673,Left,1,39,81,222.333333,0.322917,Triplet,D#2
674,Left,1,41,82,222.666667,0.322917,Triplet,F2
675,Left,1,43,83,223.0,0.322917,Triplet,G2
676,Left,1,41,85,223.333333,0.322917,Triplet,F2
677,Left,1,39,86,223.666667,0.322917,Triplet,D#2
678,Left,1,44,87,224.0,1.989583,Half,G#2
679,Right,0,59,89,224.333333,0.322917,Triplet,B3
680,Right,0,60,90,224.666667,0.322917,Triplet,C4
681,Right,0,62,91,225.0,0.322917,Triplet,D4
682,Right,0,60,93,225.333333,0.322917,Triplet,C4
683,Right,0,59,94,225.666667,0.322917,Triplet,B3
684,Right,0,65,95,226.0,0.322917,Triplet,F4
685,Right,0,63,96,226.333333,0.322917,Triplet,D#4
686,Right,0,62,98,226.666667,0.322917,Triplet,D4
687,Right,0,68,99,227.0,0.322917,Triplet,G#4
688,Right,0,67,100,227.333333,0.322917,Triplet,G4
689,Right,0,65,102,227.666667,0.322917,Triplet,F4
690,Right,0,74,103,228.0,0.322917,Triplet,D5
691,Right,0,72,104,228.333333,0.322917,Triplet,C5
692,Right,0,71,106,228.666667,0.322917,Triplet,B4
693,Right,0,77,107,229.0,0.322917,Triplet,F5
694,Right,0,75,108,229.333333,0.322917,Triplet,D#5
695,Right,0,74,109,229.666667,0.322917,Triplet,D5
696,Right,0,89,120,230.0,2.989583,DottedHalf,F6
697,Left,1,43,120,230.0,7.989583,Unknown,G2_G1
699,Right,0,87,120,233.0,0.322917,Triplet,D#6
700,Right,0,86,120,233.333333,0.322917,Triplet,D6
701,Right,0,84,120,233.666667,0.322917,Triplet,C6
702,Right,0,83,120,234.0,0.322917,Triplet,B5
703,Right,0,80,120,234.333333,0.322917,Triplet,G#5
704,Right,0,79,120,234.666667,0.322917,Triplet,G5
705,Right,0,77,120,235.0,0.322917,Triplet,F5
706,Right,0,75,120,235.333333,0.322917,Triplet,D#5
707,Right,0,74,120,235.666667,0.322917,Triplet,D5
708,Right,0,72,120,236.0,0.322917,Triplet,C5
709,Right,0,71,120,236.333333,0.322917,Triplet,B4
710,Right,0,68,120,236.666667,0.322917,Triplet,G#4
711,Right,0,67,120,237.0,0.239583,Sixteenth,G4
712,Right,0,65,120,237.1875,0.239583,Sixteenth,F4
713,Right,0,63,120,237.385417,0.239583,Sixteenth,D#4
714,Right,0,62,120,237.583333,0.239583,Sixteenth,D4
715,Right,0,60,120,237.770833,0.208333,Sixteenth,C4
716,Right,0,59,120,238.0,9.989583,Unknown,B3
717,Left,1,53,120,238.0,9.989583,Unknown,G2_F3_D3
720,Right,0,67,80,248.5,0.489583,Eighth,G4
721,Right,0,72,80,249.0,0.489583,Eighth,C5
722,Right,0,74,80,249.5,0.489583,Eighth,D5
723,Right,0,75,80,250.0,1.489583,DottedQuarter,D#5
724,Left,1,48,80,250.0,0.489583,Eighth,C3
725,Left,1,51,80,250.5,0.489583,Eighth,D#3
726,Left,1,55,80,251.0,0.489583,Eighth,G3
728,Left,1,60,80,251.5,0.489583,Eighth,C4
727,Right,0,77,80,251.5,0.489583,Eighth,F5
730,Right,0,74,80,252.0,1.489583,DottedQuarter,D5
729,Left,1,48,80,252.0,0.489583,Eighth,C3
731,Left,1,53,80,252.5,0.489583,Eighth,F3
732,Left,1,55,80,253.0,0.489583,Eighth,G3
734,Left,1,59,80,253.5,0.489583,Eighth,B3
733,Right,0,75,80,253.5,0.489583,Eighth,D#5
736,Left,1,48,80,254.0,0.489583,Eighth,C3
735,Right,0,72,80,254.0,1.989583,Half,C5
737,Left,1,51,80,254.5,0.489583,Eighth,D#3
738,Left,1,55,80,255.0,0.489583,Eighth,G3
739,Left,1,60,80,255.5,0.489583,Eighth,C4
741,Right,0,74,80,256.0,0.114583,ThirtySecond,D5
740,Left,1,63,80,256.0,0.489583,Eighth,D#4
742,Right,0,72,80,256.125,0.364583,DottedSixteenth,C5
744,Left,1,67,80,256.5,0.489583,Eighth,G4
743,Right,0,71,80,256.5,0.489583,Eighth,B4
745,Left,1,63,80,257.0,0.489583,Eighth,D#4
746,Right,0,72,80,257.0,0.489583,Eighth,C5
747,Left,1,62,80,257.5,0.489583,Eighth,D4
748,Right,0,74,80,257.5,0.489583,Eighth,D5
749,Left,1,60,80,258.0,0.489583,Eighth,C4
750,Right,0,77,80,258.0,0.114583,ThirtySecond,F5
751,Right,0,75,80,258.125,0.364583,DottedSixteenth,D#5
752,Left,1,67,80,258.5,0.489583,Eighth,G4
753,Right,0,74,80,258.5,0.489583,Eighth,D5
755,Right,0,75,80,259.0,0.489583,Eighth,D#5
754,Left,1,60,80,259.0,0.489583,Eighth,D#4_C4
758,Right,0,77,80,259.5,0.489583,Eighth,F5
757,Left,1,67,80,259.5,0.489583,Eighth,G4
760,Right,0,79,80,260.0,0.989583,Quarter,G5
759,Left,1,62,80,260.0,0.489583,Eighth,D4_B3
762,Left,1,67,80,260.5,0.489583,Eighth,G4
763,Left,1,56,80,261.0,0.489583,Eighth,G#3_C4
764,Right,0,79,80,261.0,0.989583,Quarter,G5
766,Left,1,67,80,261.5,0.489583,Eighth,G4
767,Right,0,79,80,262.0,2.989583,DottedHalf,G5
768,Left,1,55,80,262.0,0.489583,Eighth,G3
769,Left,1,59,80,262.5,0.489583,Eighth,B3
770,Left,1,62,80,263.0,0.489583,Eighth,D4
771,Left,1,67,80,263.5,0.489583,Eighth,G4
772,Left,1,55,80,264.0,0.489583,Eighth,G3
773,Left,1,59,80,264.5,0.489583,Eighth,B3
774,Right,0,77,80,265.0,0.489583,Eighth,F5
775,Left,1,62,80,265.0,0.489583,Eighth,D4
777,Left,1,67,80,265.5,0.489583,Eighth,G4
776,Right,0,79,80,265.5,0.489583,Eighth,G5
779,Left,1,53,80,266.0,0.489583,Eighth,F3
778,Right,0,77,80,266.0,0.239583,Sixteenth,F5
780,Right,0,79,80,266.25,0.239583,Sixteenth,G5
782,Left,1,56,80,266.5,0.489583,Eighth,G#3
781,Right,0,80,80,266.5,1.489583,DottedQuarter,G#5
783,Left,1,59,80,267.0,0.489583,Eighth,B3
784,Left,1,62,80,267.5,0.489583,Eighth,D4
786,Right,0,74,80,268.0,0.989583,Quarter,D5
785,Left,1,53,80,268.0,0.489583,Eighth,F3
787,Left,1,56,80,268.5,0.489583,Eighth,G#3
788,Right,0,75,80,269.0,0.489583,Eighth,D#5
789,Left,1,59,80,269.0,0.489583,Eighth,B3
791,Left,1,62,80,269.5,0.489583,Eighth,D4
790,Right,0,77,80,269.5,0.489583,Eighth,F5
793,Left,1,51,80,270.0,0.489583,Eighth,D#3
792,Right,0,75,80,270.0,0.239583,Sixteenth,D#5
794,Right,0,77,80,270.25,0.239583,Sixteenth,F5
795,Left,1,56,80,270.5,0.489583,Eighth,G#3
796,Right,0,79,80,270.5,1.489583,DottedQuarter,G5
797,Left,1,60,80,271.0,0.489583,Eighth,C4
798,Left,1,63,80,271.5,0.489583,Eighth,D#4
799,Left,1,56,80,272.0,0.489583,Eighth,G#3
800,Right,0,72,80,272.0,0.989583,Quarter,C5
801,Left,1,60,80,272.5,0.489583,Eighth,C4
802,Left,1,63,80,273.0,0.489583,Eighth,D#4
803,Right,0,72,80,273.0,0.489583,Eighth,C5
804,Left,1,66,80,273.5,0.489583,Eighth,F#4
805,Right,0,74,80,273.5,0.489583,Eighth,D5
806,Left,1,55,80,274.0,0.489583,Eighth,G3
807,Right,0,75,80,274.0,0.989583,Quarter,D#5
808,Left,1,60,80,274.5,0.489583,Eighth,C4
810,Left,1,63,80,275.0,0.489583,Eighth,D#4
809,Right,0,75,80,275.0,0.489583,Eighth,D#5
812,Left,1,67,80,275.5,0.489583,Eighth,G4
811,Right,0,77,80,275.5,0.489583,Eighth,F5
813,Left,1,55,80,276.0,0.489583,Eighth,G3
814,Right,0,74,80,276.0,0.989583,Quarter,D5
815,Left,1,59,80,276.5,0.489583,Eighth,B3
816,Right,0,74,80,277.0,0.489583,Eighth,D5
817,Left,1,62,80,277.0,0.489583,Eighth,D4
818,Right,0,75,80,277.5,0.489583,Eighth,D#5
819,Left,1,67,80,277.5,0.489583,Eighth,G4
820,Right,0,72,80,278.0,0.989583,Quarter,C5
821,Left,1,48,80,278.5,0.489583,Eighth,C3
822,Left,1,51,80,279.0,0.489583,Eighth,D#3
823,Left,1,55,80,279.5,0.489583,Eighth,G3
824,Left,1,60,80,280.0,0.989583,Quarter,C4
825,Right,0,77,80,281.0,0.489583,Eighth,F5
826,Right,0,79,80,281.5,0.489583,Eighth,G5
827,Right,0,68,80,282.0,1.989583,Half,G#5_G#4
829,Left,1,41,80,282.5,0.489583,Eighth,F2
830,Left,1,47,80,283.0,0.489583,Eighth,B2
831,Left,1,50,80,283.5,0.489583,Eighth,D3
833,Right,0,74,80,284.0,0.989583,Quarter,D5
832,Left,1,53,80,284.0,0.489583,Eighth,F3
834,Left,1,56,80,284.5,0.489583,Eighth,G#3
836,Right,0,75,80,285.0,0.489583,Eighth,D#5
835,Left,1,55,80,285.0,0.489583,Eighth,G3
837,Right,0,77,80,285.5,0.489583,Eighth,F5
838,Left,1,53,80,285.5,0.489583,Eighth,F3
839,Right,0,79,80,286.0,1.989583,Half,G5_G4
841,Left,1,39,80,286.5,0.489583,Eighth,D#2
842,Left,1,43,80,287.0,0.489583,Eighth,G2
843,Left,1,48,80,287.5,0.489583,Eighth,C3
845,Right,0,72,80,288.0,0.989583,Quarter,C5
844,Left,1,51,80,288.0,0.489583,Eighth,D#3
846,Left,1,55,80,288.5,0.489583,Eighth,G3
847,Left,1,56,80,289.0,0.489583,Eighth,G#3
848,Right,0,72,80,289.0,0.489583,Eighth,C5
849,Left,1,54,80,289.5,0.489583,Eighth,F#3
850,Right,0,74,80,289.5,0.489583,Eighth,D5
851,Left,1,43,80,290.0,0.489583,Eighth,G2
852,Right,0,75,80,290.0,0.989583,Quarter,D#5
853,Left,1,55,80,290.5,0.489583,Eighth,G3
854,Right,0,75,80,291.0,0.489583,Eighth,D#5
855,Left,1,60,80,291.0,0.489583,Eighth,C4
857,Right,0,77,80,291.5,0.489583,Eighth,F5
856,Left,1,55,80,291.5,0.489583,Eighth,G3
858,Right,0,74,80,292.0,0.989583,Quarter,D5
859,Left,1,43,80,292.0,0.489583,Eighth,G2
860,Left,1,55,80,292.5,0.489583,Eighth,G3
861,Right,0,74,80,293.0,0.489583,Eighth,D5
862,Left,1,59,80,293.0,0.489583,Eighth,B3
863,Right,0,75,80,293.5,0.489583,Eighth,D#5
864,Left,1,55,80,293.5,0.489583,Eighth,G3
866,Right,0,72,80,294.0,0.989583,Quarter,C5
865,Left,1,48,80,294.0,0.489583,Eighth,C3
867,Left,1,60,80,294.5,0.489583,Eighth,C4
869,Right,0,82,81,295.0,1.989583,Half,A#5
868,Left,1,59,81,295.0,0.489583,Eighth,B3
870,Left,1,60,82,295.5,0.489583,Eighth,C4
871,Left,1,52,83,296.0,0.489583,Eighth,E3
872,Left,1,60,84,296.5,0.489583,Eighth,C4
874,Right,0,82,85,297.0,1.489583,DottedQuarter,A#5
873,Left,1,55,85,297.0,0.489583,Eighth,G3
875,Left,1,60,86,297.5,0.489583,Eighth,C4
876,Left,1,53,87,298.0,0.489583,Eighth,F3
878,Left,1,60,88,298.5,0.489583,Eighth,C4
877,Right,0,80,88,298.5,0.489583,Eighth,G#5
879,Right,0,79,89,299.0,0.489583,Eighth,G5
880,Left,1,56,89,299.0,0.489583,Eighth,G#3
881,Left,1,60,90,299.5,0.489583,Eighth,C4
882,Right,0,77,90,299.5,0.489583,Eighth,F5
883,Left,1,55,91,300.0,0.489583,Eighth,G3
884,Right,0,75,91,300.0,0.489583,Eighth,D#5
885,Left,1,65,92,300.5,0.489583,Eighth,F4
886,Right,0,74,92,300.5,0.489583,Eighth,D5
888,Right,0,72,93,301.0,0.489583,Eighth,C5
887,Left,1,59,93,301.0,0.489583,Eighth,B3
890,Right,0,71,94,301.5,0.489583,Eighth,B4
889,Left,1,65,94,301.5,0.489583,Eighth,F4
892,Left,1,56,95,302.0,0.489583,Eighth,G#3
891,Right,0,72,95,302.0,0.989583,Quarter,C5
893,Left,1,63,96,302.5,0.489583,Eighth,D#4
894,Right,0,72,97,303.0,1.989583,Half,C6_C5
896,Left,1,60,97,303.0,0.489583,Eighth,C4
897,Left,1,63,98,303.5,0.489583,Eighth,D#4
898,Left,1,55,99,304.0,0.489583,Eighth,G3
899,Left,1,64,100,304.5,0.489583,Eighth,E4
901,Left,1,60,101,305.0,0.489583,Eighth,C4
900,Right,0,82,101,305.0,1.489583,DottedQuarter,A#5
902,Left,1,64,102,305.5,0.489583,Eighth,E4
903,Left,1,53,103,306.0,0.489583,Eighth,F3
905,Left,1,65,104,306.5,0.489583,Eighth,F4
904,Right,0,80,104,306.5,0.489583,Eighth,G#5
907,Left,1,60,105,307.0,0.489583,Eighth,C4
906,Right,0,79,105,307.0,0.489583,Eighth,G5
908,Left,1,65,106,307.5,0.489583,Eighth,F4
909,Right,0,77,106,307.5,0.489583,Eighth,F5
911,Right,0,75,107,308.0,0.489583,Eighth,D#5
910,Left,1,55,107,308.0,0.489583,Eighth,G3
913,Right,0,74,108,308.5,0.489583,Eighth,D5
912,Left,1,67,108,308.5,0.489583,Eighth,G4
914,Right,0,72,109,309.0,0.489583,Eighth,C5
915,Left,1,55,109,309.0,0.489583,Eighth,G3
916,Right,0,71,109,309.5,0.489583,Eighth,B4
917,Left,1,67,109,309.5,0.489583,Eighth,G4
919,Right,0,72,110,310.0,0.989583,Quarter,C5
918,Left,1,60,110,310.0,0.989583,Quarter,C4
920,Left,1,59,110,311.0,0.989583,Quarter,G3_B3
922,Right,0,74,110,311.0,0.239583,Sixteenth,D5
923,Right,0,75,110,311.25,0.239583,Sixteenth,D#5
924,Right,0,72,110,311.5,0.239583,Sixteenth,C5
925,Right,0,74,110,311.75,0.239583,Sixteenth,D5
927,Right,0,75,110,312.0,0.989583,Quarter,D#5
926,Left,1,60,110,312.0,0.989583,Quarter,C4_C3
930,Right,0,83,110,313.0,0.989583,Quarter,D5_B5_B4
929,Left,1,43,110,313.0,0.989583,Quarter,G3_G2
934,Left,1,36,110,314.0,0.989583,Quarter,C3_C2
936,Right,0,72,110,314.0,0.989583,Quarter,D#5_C6_C5
939,Left,1,44,80,316.5,0.489583,Eighth,G#2
940,Left,1,48,80,317.0,0.489583,Eighth,C3
941,Left,1,51,80,317.5,0.489583,Eighth,D#3
943,Right,0,60,80,318.0,1.989583,Half,C4
942,Left,1,56,80,318.0,1.989583,Half,G#3
944,Left,1,49,80,320.0,1.989583,Half,C#3
945,Right,0,65,80,320.0,1.989583,Half,F4
947,Left,1,55,80,322.0,1.989583,Half,G3
946,Right,0,58,80,322.0,1.989583,Half,A#3
948,Right,0,63,80,324.0,1.989583,Half,D#4
949,Left,1,48,80,324.0,1.989583,Half,C3
950,Right,0,56,80,326.0,1.989583,Half,G#3
951,Left,1,53,80,326.0,0.989583,Quarter,F3
952,Left,1,46,80,327.0,1.989583,Half,A#2
953,Right,0,61,80,328.0,0.989583,Quarter,C#4
954,Right,0,60,80,329.0,0.989583,Quarter,C4
955,Left,1,48,80,329.0,0.989583,Quarter,C3
956,Right,0,58,80,330.0,0.989583,Quarter,A#3
957,Left,1,49,80,330.0,0.989583,Quarter,C#3
959,Left,1,50,80,331.0,0.989583,Quarter,D3
958,Right,0,56,80,331.0,0.989583,Quarter,G#3
960,Left,1,51,80,332.0,0.989583,Quarter,D#3
961,Right,0,55,80,332.0,0.989583,Quarter,G3
962,Left,1,39,80,333.0,0.989583,Quarter,D#2
963,Left,1,44,80,334.0,1.989583,Half,G#2
964,Right,0,72,80,335.0,1.989583,Half,C5
965,Left,1,49,80,336.0,1.989583,Half,C#3
966,Right,0,65,80,337.0,1.989583,Half,F4
967,Left,1,43,80,338.0,1.989583,Half,G2
968,Right,0,70,80,339.0,1.989583,Half,A#4
969,Left,1,48,80,340.0,1.989583,Half,C3
970,Right,0,63,80,341.0,1.989583,Half,D#4
971,Left,1,41,80,342.0,1.989583,Half,F2
972,Right,0,68,80,343.0,0.989583,Quarter,G#4
974,Right,0,67,80,344.0,0.989583,Quarter,G4
973,Left,1,43,80,344.0,0.989583,Quarter,G2
976,Left,1,44,80,345.0,0.989583,Quarter,G#2
975,Right,0,65,80,345.0,0.989583,Quarter,F4
978,Left,1,45,80,346.0,0.989583,Quarter,A2
977,Right,0,63,80,346.0,0.989583,Quarter,D#4
980,Right,0,62,80,347.0,0.989583,Quarter,D4
979,Left,1,46,80,347.0,0.989583,Quarter,A#2
982,Left,1,39,80,348.0,0.989583,Quarter,D#2
981,Right,0,65,80,348.0,0.989583,Quarter,F4
983,Right,0,63,80,349.0,0.989583,Quarter,D#4
984,Right,0,72,80,350.0,1.989583,Half,C5
985,Left,1,56,80,351.0,1.989583,Half,G#3_C4
987,Right,0,77,80,352.0,1.989583,Half,F5_F4
989,Left,1,49,80,353.0,1.989583,Half,F3_C#3
991,Right,0,70,80,354.0,1.989583,Half,A#4
992,Left,1,58,80,355.0,1.989583,Half,G3_A#3
994,Right,0,63,80,356.0,2.989583,DottedHalf,D#5_D#4
996,Left,1,51,80,357.0,1.989583,Half,D#3_C3
998,Right,0,68,80,358.0,1.989583,Half,G#4
1001,Right,0,60,80,359.0,0.989583,Quarter,C4
999,Left,1,56,80,359.0,0.989583,Quarter,G#3_F3
1002,Left,1,46,80,360.0,0.989583,Quarter,A#2
1003,Right,0,65,80,360.0,0.989583,Quarter,F4_C#5
1007,Left,1,48,80,361.0,0.989583,Quarter,C3
1005,Right,0,63,80,361.0,0.989583,Quarter,D#4_C5
1008,Right,0,61,80,362.0,0.989583,Quarter,C#4_A#4
1010,Left,1,49,80,362.0,0.989583,Quarter,C#3
1013,Left,1,50,80,363.0,0.989583,Quarter,D3
1011,Right,0,60,80,363.0,0.989583,Quarter,G#4_C4
1014,Right,0,67,80,364.0,0.989583,Quarter,G4_A#3
1015,Left,1,51,80,364.0,0.989583,Quarter,D#3
1017,Right,0,63,80,365.0,0.989583,Quarter,D#4
1018,Left,1,56,80,366.0,1.989583,Half,G#3_C4
1020,Right,0,84,80,367.0,1.989583,Half,C6_C5
1022,Left,1,65,80,368.0,1.989583,Half,F4_C#4
1024,Right,0,77,80,369.0,1.989583,Half,F5
1025,Left,1,58,80,370.0,1.989583,Half,G3_A#3
1027,Right,0,70,80,371.0,1.989583,Half,A#5_A#4
1029,Left,1,60,80,372.0,1.989583,Half,D#4_C4
1031,Right,0,75,80,373.0,1.989583,Half,D#5
1033,Right,0,72,80,374.0,1.989583,Half,C5
1032,Left,1,53,80,374.0,1.989583,Half,F3
1034,Right,0,80,80,375.0,0.989583,Quarter,G#5
1035,Left,1,55,80,376.0,0.989583,Quarter,G3
1036,Right,0,70,80,376.0,0.989583,Quarter,G5_A#4
1038,Left,1,56,80,377.0,0.989583,Quarter,G#3
1039,Right,0,77,80,377.0,0.989583,Quarter,G#4_F5
1041,Right,0,67,80,378.0,0.989583,Quarter,G4_D#5
1042,Left,1,57,80,378.0,0.989583,Quarter,A3
1044,Left,1,58,80,379.0,0.989583,Quarter,A#3
1045,Right,0,65,80,379.0,0.989583,Quarter,F4_D5
1047,Right,0,77,80,380.0,0.989583,Quarter,G#4_F5
1048,Left,1,51,80,380.0,0.989583,Quarter,D#3
1051,Right,0,67,80,381.0,0.989583,Quarter,G4_D#5
1050,Left,1,63,80,381.0,0.989583,Quarter,D#4
1053,Left,1,62,80,382.0,0.989583,Quarter,D4
1054,Left,1,63,80,383.0,0.989583,Quarter,D#4
1055,Left,1,66,80,384.0,0.989583,Quarter,F#4
1056,Right,0,75,80,385.0,0.989583,Quarter,D#5
1057,Left,1,56,80,385.0,0.989583,Quarter,G#3
1059,Left,1,58,80,386.0,0.989583,Quarter,A#3
1058,Right,0,72,80,386.0,0.989583,Quarter,C5
1060,Right,0,73,80,387.0,0.989583,Quarter,C#5
1061,Right,0,77,80,388.0,0.989583,Quarter,F5
1062,Left,1,51,80,389.0,0.989583,Quarter,D#3_C#4
1063,Right,0,67,80,389.0,0.989583,Quarter,G4
1066,Right,0,70,80,390.0,0.989583,Quarter,A#4
1065,Left,1,56,80,390.0,0.989583,Quarter,G#3_C4
1068,Right,0,68,80,391.0,0.989583,Quarter,G#4
1069,Right,0,72,80,392.0,0.989583,Quarter,C5
1070,Left,1,56,80,393.0,0.989583,Quarter,G#3_A#2
1072,Right,0,62,80,393.0,0.989583,Quarter,D4
1074,Right,0,63,80,394.0,0.989583,Quarter,D#4
1073,Left,1,55,80,394.0,0.989583,Quarter,G3_D#3
1076,Right,0,82,80,395.0,0.989583,Quarter,A#5
1077,Right,0,87,80,396.0,0.989583,Quarter,D#6
1078,Left,1,75,80,396.5,0.489583,Eighth,D#5
1079,Right,0,85,80,397.0,0.989583,Quarter,C#6
1080,Left,1,77,80,397.0,0.489583,Eighth,F5
1081,Left,1,79,80,397.5,0.489583,Eighth,G5
1082,Right,0,84,80,398.0,1.989583,Half,C6
1083,Left,1,80,80,398.0,0.489583,Eighth,G#5
1084,Left,1,79,80,398.5,0.489583,Eighth,G5
1085,Left,1,77,80,399.0,0.489583,Eighth,F5
1086,Left,1,75,80,399.5,0.489583,Eighth,D#5
1087,Right,0,89,80,400.0,1.989583,Half,F6
1088,Left,1,73,80,400.0,0.489583,Eighth,C#5
1089,Left,1,72,80,400.5,0.489583,Eighth,C5
1090,Left,1,70,80,401.0,0.489583,Eighth,A#4
1091,Left,1,68,80,401.5,0.489583,Eighth,G#4
1092,Right,0,82,80,402.0,1.989583,Half,A#5
1093,Left,1,67,80,402.0,0.489583,Eighth,G4
1094,Left,1,65,80,402.5,0.489583,Eighth,F4
1095,Left,1,63,80,403.0,0.489583,Eighth,D#4
1096,Left,1,61,80,403.5,0.489583,Eighth,C#4
1098,Left,1,60,80,404.0,0.489583,Eighth,C4
1097,Right,0,87,80,404.0,1.989583,Half,D#6
1099,Left,1,58,80,404.5,0.489583,Eighth,A#3
1100,Left,1,56,80,405.0,0.489583,Eighth,G#3
1101,Left,1,55,80,405.5,0.489583,Eighth,G3
1102,Right,0,80,80,406.0,1.989583,Half,G#5
1103,Left,1,53,80,406.0,0.489583,Eighth,F3
1104,Left,1,51,81,406.5,0.489583,Eighth,D#3
1105,Left,1,49,83,407.0,0.489583,Eighth,C#3
1106,Left,1,48,85,407.5,0.489583,Eighth,C3
1107,Right,0,85,87,408.0,0.989583,Quarter,C#6_C#5
1108,Left,1,46,87,408.0,0.489583,Eighth,A#2
1110,Left,1,45,89,408.5,0.489583,Eighth,A2
1112,Right,0,72,91,409.0,0.989583,Quarter,C6_C5
1111,Left,1,46,91,409.0,0.489583,Eighth,A#2
1114,Left,1,48,93,409.5,0.489583,Eighth,C3
1115,Left,1,49,95,410.0,0.489583,Eighth,C#3
1116,Right,0,82,95,410.0,0.989583,Quarter,A#5_A#4
1118,Left,1,48,97,410.5,0.489583,Eighth,C3
1119,Left,1,49,99,411.0,0.489583,Eighth,C#3
1120,Right,0,68,99,411.0,0.989583,Quarter,G#5_G#4
1122,Left,1,50,101,411.5,0.489583,Eighth,D3
1124,Left,1,51,103,412.0,0.489583,Eighth,D#3
1123,Right,0,67,103,412.0,0.989583,Quarter,G5_G4
1126,Left,1,53,105,412.5,0.489583,Eighth,F3
1128,Left,1,54,107,413.0,0.489583,Eighth,F#3
1127,Right,0,73,107,413.0,0.989583,Quarter,C#5
1129,Left,1,55,109,413.5,0.489583,Eighth,G3
1131,Right,0,84,110,414.0,0.489583,Eighth,C6
1130,Left,1,44,110,414.0,1.989583,Half,G#2
1132,Right,0,82,110,414.5,0.489583,Eighth,A#5
1133,Right,0,80,110,415.0,0.489583,Eighth,G#5
1134,Right,0,79,110,415.5,0.489583,Eighth,G5
1136,Right,0,77,110,416.0,0.489583,Eighth,F5
1135,Left,1,49,110,416.0,1.989583,Half,C#3
1137,Right,0,75,110,416.5,0.489583,Eighth,D#5
1138,Right,0,73,110,417.0,0.489583,Eighth,C#5
1139,Right,0,72,110,417.5,0.489583,Eighth,C5
1140,Right,0,70,110,418.0,0.489583,Eighth,A#4
1141,Left,1,43,110,418.0,1.989583,Half,G2
1142,Right,0,68,110,418.5,0.489583,Eighth,G#4
1143,Right,0,67,110,419.0,0.489583,Eighth,G4
1144,Right,0,65,110,419.5,0.489583,Eighth,F4
1145,Right,0,64,110,420.0,0.489583,Eighth,E4
1146,Left,1,48,110,420.0,1.989583,Half,C3
1147,Right,0,61,110,420.5,0.489583,Eighth,C#4
1148,Right,0,60,110,421.0,0.489583,Eighth,C4
1149,Right,0,58,110,421.5,0.489583,Eighth,A#3
1150,Right,0,56,110,422.0,0.489583,Eighth,G#3
1151,Left,1,41,110,422.0,1.989583,Half,F2
1152,Right,0,55,110,422.5,0.489583,Eighth,G3
1153,Right,0,53,110,423.0,0.489583,Eighth,F3
1154,Right,0,52,110,423.5,0.489583,Eighth,E3
1156,Left,1,41,119,424.0,3.989583,Whole,F2_F1
1155,Right,0,53,123,424.0,0.489583,Eighth,F3
1158,Right,0,55,109,424.5,0.489583,Eighth,G3
1159,Right,0,56,107,425.0,0.489583,Eighth,G#3
1160,Right,0,55,105,425.5,0.489583,Eighth,G3
1161,Right,0,53,103,426.0,0.489583,Eighth,F3
1162,Right,0,51,101,426.5,0.489583,Eighth,D#3
1163,Right,0,50,100,427.0,0.489583,Eighth,D3
1164,Right,0,48,98,427.5,0.489583,Eighth,C3
1165,Left,1,30,96,428.0,1.989583,Half,F#2_F#1
1167,Right,0,47,96,428.0,0.489583,Eighth,B2
1168,Right,0,48,94,428.5,0.489583,Eighth,C3
1169,Right,0,50,92,429.0,0.489583,Eighth,D3
1170,Right,0,48,91,429.5,0.489583,Eighth,C3
1171,Left,1,31,75,430.0,0.989583,Quarter,G1
1172,Right,0,43,75,430.25,0.239583,Sixteenth,G2
1173,Right,0,47,76,430.5,0.239583,Sixteenth,B2
1174,Right,0,50,76,430.75,0.239583,Sixteenth,D3
1175,Right,0,55,77,431.0,0.989583,Quarter,G3
1176,Left,1,38,78,431.5,0.239583,Sixteenth,D2
1177,Left,1,35,78,431.75,0.239583,Sixteenth,B1
1178,Left,1,31,79,432.0,0.989583,Quarter,G1
1179,Right,0,43,79,432.25,0.239583,Sixteenth,G2
1180,Right,0,48,80,432.5,0.239583,Sixteenth,C3
1181,Right,0,51,81,432.75,0.239583,Sixteenth,D#3
1182,Right,0,55,81,433.0,0.989583,Quarter,G3
1183,Left,1,39,82,433.5,0.239583,Sixteenth,D#2
1184,Left,1,36,83,433.75,0.239583,Sixteenth,C2
1185,Left,1,31,83,434.0,0.989583,Quarter,G1
1186,Right,0,43,84,434.25,0.239583,Sixteenth,G2
1187,Right,0,50,84,434.5,0.239583,Sixteenth,D3
1188,Right,0,53,85,434.75,0.239583,Sixteenth,F3
1189,Right,0,55,86,435.0,0.989583,Quarter,G3
1190,Left,1,41,87,435.5,0.239583,Sixteenth,F2
1191,Left,1,38,87,435.75,0.239583,Sixteenth,D2
1192,Left,1,31,88,436.0,0.989583,Quarter,G1
1193,Right,0,43,88,436.25,0.239583,Sixteenth,G2
1194,Right,0,48,89,436.5,0.239583,Sixteenth,C3
1195,Right,0,51,89,436.75,0.239583,Sixteenth,D#3
1196,Right,0,55,90,437.0,0.989583,Quarter,G3
1197,Left,1,39,91,437.5,0.239583,Sixteenth,D#2
1198,Left,1,36,92,437.75,0.239583,Sixteenth,C2
1199,Left,1,31,92,438.0,0.989583,Quarter,G1
1200,Right,0,55,93,438.25,0.239583,Sixteenth,G3
1201,Right,0,59,93,438.5,0.239583,Sixteenth,B3
1202,Right,0,62,94,438.75,0.239583,Sixteenth,D4
1203,Right,0,67,94,439.0,0.989583,Quarter,G4
1204,Left,1,50,96,439.5,0.239583,Sixteenth,D3
1205,Left,1,47,96,439.75,0.239583,Sixteenth,B2
1206,Left,1,43,97,440.0,0.989583,Quarter,G2
1207,Right,0,55,97,440.25,0.239583,Sixteenth,G3
1208,Right,0,60,98,440.5,0.239583,Sixteenth,C4
1209,Right,0,63,98,440.75,0.239583,Sixteenth,D#4
1210,Right,0,67,99,441.0,0.989583,Quarter,G4
1211,Left,1,51,100,441.5,0.239583,Sixteenth,D#3
1212,Left,1,48,101,441.75,0.239583,Sixteenth,C3
1213,Left,1,43,101,442.0,0.989583,Quarter,G2
1214,Right,0,55,102,442.25,0.239583,Sixteenth,G3
1215,Right,0,62,102,442.5,0.239583,Sixteenth,D4
1216,Right,0,65,103,442.75,0.239583,Sixteenth,F4
1217,Right,0,67,103,443.0,0.989583,Quarter,G4
1218,Left,1,53,104,443.5,0.239583,Sixteenth,F3
1219,Left,1,50,105,443.75,0.239583,Sixteenth,D3
1220,Left,1,43,106,444.0,0.989583,Quarter,G2
1221,Right,0,55,106,444.25,0.239583,Sixteenth,G3
1222,Right,0,60,107,444.5,0.239583,Sixteenth,C4
1223,Right,0,63,107,444.75,0.239583,Sixteenth,D#4
1224,Right,0,67,108,445.0,0.989583,Quarter,G4
1225,Left,1,51,109,445.5,0.239583,Sixteenth,D#3
1226,Left,1,48,109,445.75,0.239583,Sixteenth,C3
1227,Left,1,43,120,446.0,0.989583,Quarter,G2
1228,Right,0,67,120,446.25,0.239583,Sixteenth,G4
1229,Right,0,71,120,446.5,0.239583,Sixteenth,B4
1230,Right,0,74,120,446.75,0.239583,Sixteenth,D5
1231,Right,0,79,120,447.0,0.989583,Quarter,G5
1232,Left,1,62,120,447.5,0.239583,Sixteenth,D4
1233,Left,1,59,120,447.75,0.239583,Sixteenth,B3
1234,Left,1,55,120,448.0,0.989583,Quarter,G3
1235,Right,0,67,120,448.25,0.239583,Sixteenth,G4
1236,Right,0,72,120,448.5,0.239583,Sixteenth,C5
1237,Right,0,75,120,448.75,0.239583,Sixteenth,D#5
1238,Right,0,79,120,449.0,0.989583,Quarter,G5
1239,Left,1,63,120,449.5,0.239583,Sixteenth,D#4
1240,Left,1,60,120,449.75,0.239583,Sixteenth,C4
1241,Left,1,55,120,450.0,0.989583,Quarter,G3
1242,Right,0,67,120,450.25,0.239583,Sixteenth,G4
1243,Right,0,74,120,450.5,0.239583,Sixteenth,D5
1244,Right,0,77,120,450.75,0.239583,Sixteenth,F5
1245,Right,0,79,120,451.0,0.989583,Quarter,G5
1246,Left,1,65,120,451.5,0.239583,Sixteenth,F4
1247,Left,1,62,120,451.75,0.239583,Sixteenth,D4
1248,Left,1,55,120,452.0,0.989583,Quarter,G3
1249,Right,0,67,120,452.25,0.239583,Sixteenth,G4
1250,Right,0,72,120,452.5,0.239583,Sixteenth,C5
1251,Right,0,75,120,452.75,0.239583,Sixteenth,D#5
1252,Right,0,79,120,453.0,0.989583,Quarter,G5
1253,Left,1,63,120,453.5,0.239583,Sixteenth,D#4
1254,Left,1,60,120,453.75,0.239583,Sixteenth,C4
1255,Left,1,55,120,454.0,0.989583,Quarter,G3
1256,Right,0,67,120,454.333333,0.322917,Triplet,G4
1257,Right,0,66,120,454.666667,0.322917,Triplet,F#4
1258,Right,0,67,120,455.0,0.322917,Triplet,G4
1259,Right,0,71,120,455.333333,0.322917,Triplet,B4
1260,Right,0,74,120,455.666667,0.322917,Triplet,D5
1261,Right,0,79,127,456.0,0.322917,Triplet,G5
1262,Right,0,74,120,456.333333,0.322917,Triplet,D5
1263,Right,0,71,120,456.666667,0.322917,Triplet,B4
1265,Right,0,67,120,457.0,0.989583,Quarter,G4
1264,Left,1,55,120,457.0,0.322917,Triplet,G3
1266,Left,1,50,120,457.333333,0.322917,Triplet,D3
1267,Left,1,47,120,457.666667,0.322917,Triplet,B2
1268,Left,1,43,120,458.0,0.989583,Quarter,G2
1269,Right,0,71,120,458.333333,0.322917,Triplet,B4
1270,Right,0,70,120,458.666667,0.322917,Triplet,A#4
1271,Right,0,71,120,459.0,0.322917,Triplet,B4
1272,Right,0,74,120,459.333333,0.322917,Triplet,D5
1273,Right,0,79,120,459.666667,0.322917,Triplet,G5
1274,Right,0,83,127,460.0,0.322917,Triplet,B5
1275,Right,0,79,120,460.333333,0.322917,Triplet,G5
1276,Right,0,74,120,460.666667,0.322917,Triplet,D5
1278,Left,1,55,120,461.0,0.322917,Triplet,G3
1277,Right,0,71,120,461.0,0.989583,Quarter,B4
1279,Left,1,50,120,461.333333,0.322917,Triplet,D3
1280,Left,1,47,120,461.666667,0.322917,Triplet,B2
1281,Left,1,43,120,462.0,0.989583,Quarter,G2
1282,Right,0,74,120,462.333333,0.322917,Triplet,D5
1283,Right,0,73,120,462.666667,0.322917,Triplet,C#5
1284,Right,0,74,120,463.0,0.322917,Triplet,D5
1285,Right,0,77,120,463.333333,0.322917,Triplet,F5
1286,Right,0,83,120,463.666667,0.322917,Triplet,B5
1287,Right,0,86,127,464.0,0.322917,Triplet,D6
1288,Right,0,83,120,464.333333,0.322917,Triplet,B5
1289,Right,0,77,120,464.666667,0.322917,Triplet,F5
1291,Right,0,74,120,465.0,0.989583,Quarter,D5
1290,Left,1,43,120,465.0,0.322917,Triplet,G2
1292,Left,1,38,120,465.333333,0.322917,Triplet,D2
1293,Left,1,35,120,465.666667,0.322917,Triplet,B1
1294,Left,1,31,120,466.0,0.989583,Quarter,G1
1295,Right,0,77,120,466.333333,0.322917,Triplet,F5
1296,Right,0,76,120,466.666667,0.322917,Triplet,E5
1297,Right,0,77,120,467.0,0.322917,Triplet,F5
1298,Right,0,83,120,467.333333,0.322917,Triplet,B5
1299,Right,0,86,120,467.666667,0.322917,Triplet,D6
1300,Right,0,89,120,468.0,0.322917,Triplet,F6
1301,Right,0,86,120,468.333333,0.322917,Triplet,D6
1302,Right,0,83,120,468.666667,0.322917,Triplet,B5
1303,Right,0,89,120,469.0,0.322917,Triplet,F6
1304,Right,0,86,120,469.333333,0.322917,Triplet,D6
1305,Right,0,83,120,469.666667,0.322917,Triplet,B5
1306,Left,1,31,127,470.0,7.989583,Unknown,G2_G1
1308,Right,0,89,127,470.0,2.989583,DottedHalf,F6
1309,Right,0,87,120,473.0,0.322917,Triplet,D#6
1310,Right,0,86,120,473.333333,0.322917,Triplet,D6
1311,Right,0,84,120,473.666667,0.322917,Triplet,C6
1312,Right,0,83,120,474.0,0.322917,Triplet,B5
1313,Right,0,80,120,474.333333,0.322917,Triplet,G#5
1314,Right,0,79,120,474.666667,0.322917,Triplet,G5
1315,Right,0,77,120,475.0,0.322917,Triplet,F5
1316,Right,0,75,120,475.333333,0.322917,Triplet,D#5
1317,Right,0,74,120,475.666667,0.322917,Triplet,D5
1318,Right,0,72,120,476.0,0.322917,Triplet,C5
1319,Right,0,71,120,476.333333,0.322917,Triplet,B4
1320,Right,0,68,120,476.666667,0.322917,Triplet,G#4
1321,Right,0,67,120,477.0,0.239583,Sixteenth,G4
1322,Right,0,65,120,477.1875,0.239583,Sixteenth,F4
1323,Right,0,63,120,477.385417,0.239583,Sixteenth,D#4
1324,Right,0,62,120,477.583333,0.239583,Sixteenth,D4
1325,Right,0,60,120,477.770833,0.208333,Sixteenth,C4
1326,Right,0,59,120,478.0,9.989583,Unknown,B3
1327,Left,1,53,120,478.0,9.989583,Unknown,G2_F3_D3
1330,Right,0,67,80,488.5,0.489583,Eighth,G4
1331,Right,0,72,80,489.0,0.489583,Eighth,C5
1332,Right,0,74,80,489.5,0.489583,Eighth,D5
1333,Right,0,75,80,490.0,1.489583,DottedQuarter,D#5
1334,Left,1,48,80,490.0,0.489583,Eighth,C3
1335,Left,1,51,80,490.5,0.489583,Eighth,D#3
1336,Left,1,55,80,491.0,0.489583,Eighth,G3
1338,Right,0,77,80,491.5,0.489583,Eighth,F5
1337,Left,1,60,80,491.5,0.489583,Eighth,C4
1339,Left,1,48,80,492.0,0.489583,Eighth,C3
1340,Right,0,74,80,492.0,1.489583,DottedQuarter,D5
1341,Left,1,53,80,492.5,0.489583,Eighth,F3
1342,Left,1,55,80,493.0,0.489583,Eighth,G3
1343,Left,1,59,80,493.5,0.489583,Eighth,B3
1344,Right,0,75,80,493.5,0.489583,Eighth,D#5
1346,Left,1,48,80,494.0,0.489583,Eighth,C3
1345,Right,0,72,80,494.0,1.989583,Half,C5
1347,Left,1,51,80,494.5,0.489583,Eighth,D#3
1348,Left,1,55,80,495.0,0.489583,Eighth,G3
1349,Left,1,60,80,495.5,0.489583,Eighth,C4
1351,Left,1,63,80,496.0,0.489583,Eighth,D#4
1352,Right,0,72,80,496.125,0.364583,DottedSixteenth,C5
1353,Right,0,71,80,496.5,0.489583,Eighth,B4
1354,Left,1,67,80,496.5,0.489583,Eighth,G4
1355,Left,1,63,80,497.0,0.489583,Eighth,D#4
1356,Right,0,72,80,497.0,0.489583,Eighth,C5
1357,Left,1,62,80,497.5,0.489583,Eighth,D4
1358,Right,0,74,80,497.5,0.489583,Eighth,D5
1359,Left,1,60,80,498.0,0.489583,Eighth,C4
1360,Right,0,77,80,498.0,0.114583,ThirtySecond,F5
1361,Right,0,75,80,498.125,0.364583,DottedSixteenth,D#5
1363,Left,1,67,80,498.5,0.489583,Eighth,G4
1362,Right,0,74,80,498.5,0.489583,Eighth,D5
1365,Left,1,60,80,499.0,0.489583,Eighth,D#4_C4
1364,Right,0,75,80,499.0,0.489583,Eighth,D#5
1367,Left,1,67,80,499.5,0.489583,Eighth,G4
1368,Right,0,77,80,499.5,0.489583,Eighth,F5
1371,Right,0,79,80,500.0,0.989583,Quarter,G5
1369,Left,1,62,80,500.0,0.489583,Eighth,D4_B3
1372,Left,1,67,80,500.5,0.489583,Eighth,G4
1374,Left,1,56,80,501.0,0.489583,Eighth,G#3_C4
1373,Right,0,79,80,501.0,0.989583,Quarter,G5
1376,Left,1,67,80,501.5,0.489583,Eighth,G4
1378,Right,0,79,80,502.0,2.989583,DottedHalf,G5
1377,Left,1,55,80,502.0,0.489583,Eighth,G3
1379,Left,1,59,80,502.5,0.489583,Eighth,B3
1380,Left,1,62,80,503.0,0.489583,Eighth,D4
1381,Left,1,67,80,503.5,0.489583,Eighth,G4
1382,Left,1,55,80,504.0,0.489583,Eighth,G3
1383,Left,1,59,80,504.5,0.489583,Eighth,B3
1384,Left,1,62,80,505.0,0.489583,Eighth,D4
1385,Right,0,77,80,505.0,0.489583,Eighth,F5
1387,Right,0,79,80,505.5,0.489583,Eighth,G5
1386,Left,1,67,80,505.5,0.489583,Eighth,G4
1389,Right,0,77,80,506.0,0.239583,Sixteenth,F5
1388,Left,1,53,80,506.0,0.489583,Eighth,F3
1390,Right,0,79,80,506.25,0.239583,Sixteenth,G5
1392,Right,0,80,80,506.5,1.489583,DottedQuarter,G#5
1391,Left,1,56,80,506.5,0.489583,Eighth,G#3
1393,Left,1,59,80,507.0,0.489583,Eighth,B3
1394,Left,1,62,80,507.5,0.489583,Eighth,D4
1396,Left,1,53,80,508.0,0.489583,Eighth,F3
1395,Right,0,74,80,508.0,0.989583,Quarter,D5
1397,Left,1,56,80,508.5,0.489583,Eighth,G#3
1398,Right,0,75,80,509.0,0.489583,Eighth,D#5
1399,Left,1,59,80,509.0,0.489583,Eighth,B3
1401,Right,0,77,80,509.5,0.489583,Eighth,F5
1400,Left,1,62,80,509.5,0.489583,Eighth,D4
1402,Right,0,75,80,510.0,0.239583,Sixteenth,D#5
1403,Left,1,51,80,510.0,0.489583,Eighth,D#3
1404,Right,0,77,80,510.25,0.239583,Sixteenth,F5
1406,Right,0,79,80,510.5,1.489583,DottedQuarter,G5
1405,Left,1,56,80,510.5,0.489583,Eighth,G#3
1407,Left,1,60,80,511.0,0.489583,Eighth,C4
1408,Left,1,63,80,511.5,0.489583,Eighth,D#4
1409,Right,0,72,80,512.0,0.989583,Quarter,C5
1410,Left,1,56,80,512.0,0.489583,Eighth,G#3
1411,Left,1,60,80,512.5,0.489583,Eighth,C4
1413,Left,1,63,80,513.0,0.489583,Eighth,D#4
1412,Right,0,72,80,513.0,0.489583,Eighth,C5
1415,Left,1,66,80,513.5,0.489583,Eighth,F#4
1414,Right,0,74,80,513.5,0.489583,Eighth,D5
1416,Left,1,55,80,514.0,0.489583,Eighth,G3
1417,Right,0,75,80,514.0,0.989583,Quarter,D#5
1418,Left,1,60,80,514.5,0.489583,Eighth,C4
1420,Left,1,63,80,515.0,0.489583,Eighth,D#4
1419,Right,0,75,80,515.0,0.489583,Eighth,D#5
1422,Right,0,77,80,515.5,0.489583,Eighth,F5
1421,Left,1,67,80,515.5,0.489583,Eighth,G4
1424,Right,0,74,80,516.0,0.989583,Quarter,D5
1423,Left,1,55,80,516.0,0.489583,Eighth,G3
1425,Left,1,59,80,516.5,0.489583,Eighth,B3
1426,Left,1,62,80,517.0,0.489583,Eighth,D4
1427,Right,0,74,80,517.0,0.489583,Eighth,D5
1429,Left,1,67,80,517.5,0.489583,Eighth,G4
1428,Right,0,75,80,517.5,0.489583,Eighth,D#5
1430,Right,0,72,80,518.0,0.989583,Quarter,C5
1431,Left,1,36,80,518.5,0.489583,Eighth,C2
1432,Left,1,39,80,519.0,0.489583,Eighth,D#2
1433,Left,1,43,80,519.5,0.489583,Eighth,G2
1434,Left,1,48,80,520.0,0.489583,Eighth,C3
1435,Left,1,51,80,520.5,0.489583,Eighth,D#3
1436,Left,1,53,80,521.0,0.489583,Eighth,F3
1437,Left,1,55,80,521.5,0.489583,Eighth,G3
1438,Left,1,56,80,522.0,1.989583,Half,G#3
1439,Right,0,59,80,522.5,0.489583,Eighth,B3
1440,Right,0,62,80,523.0,0.489583,Eighth,D4
1441,Right,0,65,80,523.5,0.489583,Eighth,F4
1442,Left,1,50,80,524.0,0.989583,Quarter,D3
1443,Right,0,77,80,524.5,0.489583,Eighth,F5
1445,Left,1,51,80,525.0,0.489583,Eighth,D#3
1444,Right,0,74,80,525.0,0.489583,Eighth,D5
1446,Right,0,71,80,525.5,0.489583,Eighth,B4
1447,Left,1,53,80,525.5,0.489583,Eighth,F3
1448,Left,1,55,80,526.0,1.989583,Half,G3
1449,Right,0,60,80,526.5,0.489583,Eighth,C4
1450,Right,0,63,80,527.0,0.489583,Eighth,D#4
1451,Right,0,67,80,527.5,0.489583,Eighth,G4
1452,Left,1,48,80,528.0,0.989583,Quarter,C3
1453,Right,0,79,80,528.5,0.489583,Eighth,G5
1455,Left,1,58,80,529.0,0.489583,Eighth,A#3
1454,Right,0,75,80,529.0,0.489583,Eighth,D#5
1457,Left,1,60,80,529.5,0.489583,Eighth,C4
1456,Right,0,72,80,529.5,0.489583,Eighth,C5
1458,Left,1,61,80,530.0,1.989583,Half,C#4
1459,Right,0,63,80,530.5,0.489583,Eighth,D#4
1460,Right,0,67,80,531.0,0.489583,Eighth,G4
1461,Right,0,70,80,531.5,0.489583,Eighth,A#4
1462,Left,1,55,80,532.0,0.989583,Quarter,G3
1463,Right,0,82,80,532.5,0.489583,Eighth,A#5
1464,Right,0,79,80,533.0,0.489583,Eighth,G5
1465,Left,1,56,80,533.0,0.489583,Eighth,G#3
1467,Left,1,58,80,533.5,0.489583,Eighth,A#3
1466,Right,0,75,80,533.5,0.489583,Eighth,D#5
1468,Left,1,60,80,534.0,1.989583,Half,C4
1469,Right,0,65,80,534.5,0.489583,Eighth,F4
1470,Right,0,68,80,535.0,0.489583,Eighth,G#4
1471,Right,0,72,80,535.5,0.489583,Eighth,C5
1472,Left,1,53,80,536.0,0.989583,Quarter,F3
1473,Right,0,77,80,536.0,0.489583,Eighth,F5
1474,Right,0,80,80,536.5,0.489583,Eighth,G#5
1475,Right,0,84,80,537.0,0.489583,Eighth,C6
1476,Right,0,89,115,537.5,1.489583,DottedQuarter,F6
1477,Left,1,56,80,538.0,1.989583,Half,G#3_C4
1479,Left,1,65,80,539.0,0.989583,Quarter,F4
1480,Right,0,87,100,539.0,0.989583,Quarter,D#6
1483,Right,0,86,100,540.0,0.989583,Quarter,D6
1481,Left,1,60,80,540.0,1.989583,Quarter,G#3_C4
1484,Left,1,66,80,541.0,0.989583,Quarter,F#4
1485,Right,0,84,100,541.0,0.989583,Quarter,C6
1486,Left,1,55,80,542.0,0.989583,Quarter,G3
1487,Right,0,83,80,542.0,0.989583,Quarter,B5
1488,Left,1,67,80,543.0,0.989583,Quarter,G4
1489,Right,0,79,80,543.0,1.989583,Half,G5
1490,Left,1,65,80,544.0,0.989583,Quarter,F4
1491,Right,0,79,80,545.0,1.489583,DottedQuarter,G5
1492,Left,1,67,80,545.0,0.989583,Quarter,G4
1493,Left,1,64,80,546.0,0.989583,Quarter,E4
1494,Right,0,81,80,546.5,0.489583,Eighth,A5
1495,Left,1,67,80,547.0,0.989583,Quarter,G4
1496,Right,0,83,80,547.0,0.489583,Eighth,B5
1497,Right,0,84,80,547.5,0.489583,Eighth,C6
1498,Right,0,86,80,548.0,0.489583,Eighth,D6
1499,Left,1,59,80,548.0,0.989583,Quarter,B3
1500,Right,0,88,80,548.5,0.489583,Eighth,E6
1501,Right,0,89,80,549.0,0.489583,Eighth,F6
1502,Left,1,67,80,549.0,0.989583,Quarter,G4
1503,Right,0,86,80,549.5,0.489583,Eighth,D6
1504,Right,0,89,80,550.0,0.489583,Eighth,F6
1505,Left,1,60,80,550.0,0.989583,Quarter,C4
1506,Right,0,88,80,550.5,0.489583,Eighth,E6
1507,Right,0,86,80,551.0,0.489583,Eighth,D6
1508,Left,1,67,80,551.0,0.989583,Quarter,G4
1509,Right,0,84,80,551.5,0.489583,Eighth,C6
1512,Right,0,84,80,552.0,0.489583,Eighth,C6
1510,Left,1,65,80,552.0,1.989583,Quarter,F4_D5
1513,Right,0,83,80,552.5,0.489583,Eighth,B5
1515,Left,1,67,80,553.0,0.989583,Quarter,G4
1514,Right,0,81,80,553.0,0.489583,Eighth,A5
1516,Right,0,83,80,553.5,0.489583,Eighth,B5
1517,Left,1,64,80,554.0,1.989583,Quarter,E4_C5
1518,Right,0,86,80,554.0,0.489583,Eighth,D6
1520,Right,0,84,80,554.5,0.489583,Eighth,C6
1521,Right,0,83,80,555.0,0.489583,Eighth,B5
1522,Left,1,67,80,555.0,0.989583,Quarter,G4
1523,Right,0,81,80,555.5,0.489583,Eighth,A5
1525,Right,0,77,80,556.0,0.989583,Quarter,G5_F5
1524,Left,1,59,80,556.0,0.989583,Quarter,B3
1528,Right,0,77,80,557.0,0.989583,Quarter,G5_F5
1527,Left,1,67,80,557.0,0.989583,Quarter,G4
1530,Right,0,79,80,558.0,4.489583,Whole,G5_F5
1531,Left,1,60,80,558.0,0.989583,Quarter,C4
1533,Right,0,76,80,558.5,0.489583,Eighth,E5
1535,Right,0,74,80,559.0,0.489583,Eighth,D5
1534,Left,1,67,80,559.0,0.989583,Quarter,G4
1536,Right,0,72,80,559.5,0.489583,Eighth,C5
1537,Left,1,65,80,560.0,0.989583,Quarter,F4
1538,Right,0,72,80,560.0,0.489583,Eighth,C5
1539,Right,0,71,80,560.5,0.489583,Eighth,B4
1540,Left,1,67,80,561.0,0.989583,Quarter,G4
1541,Right,0,69,80,561.0,0.489583,Eighth,A4
1542,Right,0,71,80,561.5,0.489583,Eighth,B4
1544,Left,1,64,80,562.0,0.989583,Quarter,E4
1543,Right,0,72,80,562.0,0.489583,Eighth,C5
1545,Right,0,81,80,562.5,0.489583,Eighth,A5
1547,Right,0,83,80,563.0,0.489583,Eighth,B5
1546,Left,1,67,80,563.0,0.989583,Quarter,G4
1548,Right,0,84,80,563.5,0.489583,Eighth,C6
1550,Right,0,86,80,564.0,0.489583,Eighth,D6
1549,Left,1,59,80,564.0,0.989583,Quarter,B3
1551,Right,0,88,80,564.5,0.489583,Eighth,E6
1553,Right,0,89,80,565.0,0.489583,Eighth,F6
1552,Left,1,67,80,565.0,0.989583,Quarter,G4
1554,Right,0,86,80,565.5,0.489583,Eighth,D6
1555,Left,1,60,80,566.0,0.989583,Quarter,C4
1556,Right,0,89,80,566.0,0.489583,Eighth,F6
1557,Right,0,88,80,566.5,0.489583,Eighth,E6
1558,Right,0,86,80,567.0,0.489583,Eighth,D6
1559,Left,1,67,80,567.0,0.989583,Quarter,G4
1560,Right,0,84,80,567.5,0.489583,Eighth,C6
1563,Right,0,83,80,568.0,0.489583,Eighth,B5
1561,Left,1,72,80,568.0,1.989583,Quarter,E4_C5
1564,Right,0,84,80,568.5,0.489583,Eighth,C6
1566,Right,0,88,81,569.0,0.489583,Eighth,E6
1565,Left,1,67,81,569.0,0.989583,Quarter,G4
1567,Right,0,84,82,569.5,0.489583,Eighth,C6
1568,Left,1,65,83,570.0,1.989583,Half,F4_C5
1569,Right,0,83,83,570.0,0.489583,Eighth,B5
1571,Right,0,81,83,570.5,0.489583,Eighth,A5
1573,Left,1,69,84,571.0,0.989583,Quarter,A4
1572,Right,0,84,84,571.0,0.489583,Eighth,C6
1574,Right,0,81,85,571.5,0.489583,Eighth,A5
1576,Left,1,73,86,572.0,1.989583,Quarter,F4_C#5
1575,Right,0,79,86,572.0,0.489583,Eighth,G5
1578,Right,0,77,87,572.5,0.489583,Eighth,F5
1580,Left,1,69,87,573.0,0.989583,Quarter,A4
1579,Right,0,81,87,573.0,0.489583,Eighth,A5
1581,Right,0,77,88,573.5,0.489583,Eighth,F5
1582,Left,1,74,89,574.0,0.989583,Quarter,F4_D5
1584,Right,0,76,89,574.0,0.489583,Eighth,E5
1585,Right,0,74,90,574.5,0.489583,Eighth,D5
1586,Left,1,69,91,575.0,0.989583,Quarter,A4
1587,Right,0,77,91,575.0,0.489583,Eighth,F5
1588,Right,0,74,91,575.5,0.489583,Eighth,D5
1589,Left,1,65,92,576.0,0.989583,Quarter,F4
1590,Right,0,81,92,576.0,0.489583,Eighth,A5
1591,Right,0,77,93,576.5,0.489583,Eighth,F5
1592,Right,0,74,94,577.0,0.489583,Eighth,D5
1593,Left,1,66,94,577.0,0.989583,Quarter,F#4
1594,Right,0,72,94,577.5,0.489583,Eighth,C5
1596,Left,1,67,80,578.0,0.489583,Eighth,G4
1595,Right,0,71,80,578.0,0.322917,Triplet,B4
1597,Right,0,67,80,578.333333,0.322917,Triplet,G4
1598,Right,0,69,80,578.666667,0.322917,Triplet,A4
1599,Right,0,71,80,579.0,0.322917,Triplet,B4
1600,Right,0,69,80,579.333333,0.322917,Triplet,A4
1601,Right,0,67,80,579.666667,0.322917,Triplet,G4
1602,Right,0,72,80,580.0,1.989583,Half,C5
1603,Left,1,62,80,580.333333,0.322917,Triplet,D4
1604,Left,1,64,80,580.666667,0.322917,Triplet,E4
1605,Left,1,66,80,581.0,0.322917,Triplet,F#4
1606,Left,1,64,80,581.333333,0.322917,Triplet,E4
1607,Left,1,62,80,581.666667,0.322917,Triplet,D4
1609,Left,1,67,80,582.0,0.489583,Eighth,G4
1608,Right,0,71,80,582.0,0.322917,Triplet,B4
1610,Right,0,67,80,582.333333,0.322917,Triplet,G4
1611,Right,0,69,80,582.666667,0.322917,Triplet,A4
1612,Right,0,71,80,583.0,0.322917,Triplet,B4
1613,Right,0,69,80,583.333333,0.322917,Triplet,A4
1614,Right,0,67,80,583.666667,0.322917,Triplet,G4
1615,Right,0,72,80,584.0,1.989583,Half,C5
1616,Left,1,62,80,584.333333,0.322917,Triplet,D4
1617,Left,1,64,80,584.666667,0.322917,Triplet,E4
1618,Left,1,66,80,585.0,0.322917,Triplet,F#4
1619,Left,1,64,80,585.333333,0.322917,Triplet,E4
1620,Left,1,62,80,585.666667,0.322917,Triplet,D4
1621,Right,0,71,80,586.0,0.322917,Triplet,B4
1622,Left,1,67,80,586.0,0.489583,Eighth,G4
1623,Right,0,67,80,586.333333,0.322917,Triplet,G4
1624,Right,0,69,80,586.666667,0.322917,Triplet,A4
1625,Right,0,71,80,587.0,0.322917,Triplet,B4
1626,Right,0,69,80,587.333333,0.322917,Triplet,A4
1627,Right,0,67,80,587.666667,0.322917,Triplet,G4
1628,Left,1,67,80,588.0,0.989583,Quarter,G4
1629,Right,0,74,80,588.0,0.322917,Triplet,D5
1630,Right,0,71,80,588.333333,0.322917,Triplet,B4
1631,Right,0,72,80,588.666667,0.322917,Triplet,C5
1632,Right,0,74,80,589.0,0.322917,Triplet,D5
1633,Right,0,72,80,589.333333,0.322917,Triplet,C5
1634,Right,0,71,80,589.666667,0.322917,Triplet,B4
1639,Right,0,77,80,590.0,0.322917,Triplet,F5
1635,Left,1,65,80,590.0,0.989583,Quarter,G3_F4_D4_B3
1640,Right,0,76,80,590.333333,0.322917,Triplet,E5
1641,Right,0,74,80,590.666667,0.322917,Triplet,D5
1642,Right,0,72,80,591.0,0.322917,Triplet,C5
1643,Right,0,71,80,591.333333,0.322917,Triplet,B4
1644,Right,0,69,80,591.666667,0.322917,Triplet,A4
1645,Right,0,67,80,592.0,0.322917,Triplet,G4
1646,Right,0,69,80,592.333333,0.322917,Triplet,A4
1647,Right,0,67,80,592.666667,0.322917,Triplet,G4
1648,Right,0,65,80,593.0,0.322917,Triplet,F4
1649,Right,0,64,80,593.333333,0.322917,Triplet,E4
1650,Right,0,62,80,593.666667,0.322917,Triplet,D4
1651,Right,0,64,80,594.0,0.322917,Triplet,E4
1652,Left,1,48,80,594.0,0.989583,Quarter,C3
1653,Right,0,60,80,594.333333,0.322917,Triplet,C4
1654,Right,0,62,80,594.666667,0.322917,Triplet,D4
1655,Right,0,64,80,595.0,0.322917,Triplet,E4
1656,Right,0,62,80,595.333333,0.322917,Triplet,D4
1657,Right,0,60,80,595.666667,0.322917,Triplet,C4
1658,Right,0,65,80,596.0,1.989583,Half,F4
1659,Left,1,55,80,596.333333,0.322917,Triplet,G3
1660,Left,1,57,80,596.666667,0.322917,Triplet,A3
1661,Left,1,59,80,597.0,0.322917,Triplet,B3
1662,Left,1,57,80,597.333333,0.322917,Triplet,A3
1663,Left,1,55,80,597.666667,0.322917,Triplet,G3
1665,Right,0,64,80,598.0,0.322917,Triplet,E4
1664,Left,1,60,80,598.0,0.989583,Quarter,C4
1666,Right,0,72,80,598.333333,0.322917,Triplet,C5
1667,Right,0,74,80,598.666667,0.322917,Triplet,D5
1668,Right,0,76,80,599.0,0.322917,Triplet,E5
1669,Right,0,74,80,599.333333,0.322917,Triplet,D5
1670,Right,0,72,80,599.666667,0.322917,Triplet,C5
1671,Right,0,77,80,600.0,1.989583,Half,F5
1672,Left,1,55,80,600.333333,0.322917,Triplet,G3
1673,Left,1,57,80,600.666667,0.322917,Triplet,A3
1674,Left,1,59,80,601.0,0.322917,Triplet,B3
1675,Left,1,57,80,601.333333,0.322917,Triplet,A3
1676,Left,1,55,80,601.666667,0.322917,Triplet,G3
1677,Left,1,60,80,602.0,0.989583,Quarter,C4
1678,Right,0,76,80,602.0,0.322917,Triplet,E5
1679,Right,0,72,80,602.333333,0.322917,Triplet,C5
1680,Right,0,74,80,602.666667,0.322917,Triplet,D5
1681,Right,0,76,80,603.0,0.322917,Triplet,E5
1682,Right,0,74,80,603.333333,0.322917,Triplet,D5
1683,Right,0,72,80,603.666667,0.322917,Triplet,C5
1684,Right,0,79,80,604.0,0.322917,Triplet,G5
1685,Left,1,60,80,604.0,0.989583,Quarter,C4
1686,Right,0,76,80,604.333333,0.322917,Triplet,E5
1687,Right,0,77,80,604.666667,0.322917,Triplet,F5
1688,Right,0,79,80,605.0,0.322917,Triplet,G5
1689,Right,0,77,80,605.333333,0.322917,Triplet,F5
1690,Right,0,76,80,605.666667,0.322917,Triplet,E5
1692,Left,1,60,80,606.0,0.989583,Quarter,G3_E3_C4_A#3
1691,Right,0,82,80,606.0,0.322917,Triplet,A#5
1696,Right,0,81,80,606.333333,0.322917,Triplet,A5
1697,Right,0,79,80,606.666667,0.322917,Triplet,G5
1698,Right,0,77,80,607.0,0.322917,Triplet,F5
1699,Right,0,76,80,607.333333,0.322917,Triplet,E5
1700,Right,0,74,80,607.666667,0.322917,Triplet,D5
1701,Right,0,72,80,608.0,0.322917,Triplet,C5
1702,Right,0,71,80,608.333333,0.322917,Triplet,B4
1703,Right,0,72,80,608.666667,0.322917,Triplet,C5
1704,Right,0,73,80,609.0,0.322917,Triplet,C#5
1705,Right,0,74,80,609.333333,0.322917,Triplet,D5
1706,Right,0,70,80,609.666667,0.322917,Triplet,A#4
1707,Left,1,41,80,610.0,0.322917,Triplet,F2
1708,Left,1,45,80,610.333333,0.322917,Triplet,A2
1709,Left,1,48,80,610.666667,0.322917,Triplet,C3
1710,Left,1,53,80,611.0,0.989583,Quarter,F3
1711,Right,0,57,80,611.0,0.322917,Triplet,A3
1712,Right,0,60,80,611.333333,0.322917,Triplet,C4
1713,Right,0,65,80,611.666667,0.322917,Triplet,F4
1714,Right,0,69,80,612.0,0.322917,Triplet,A4
1715,Right,0,72,80,612.333333,0.322917,Triplet,C5
1716,Right,0,77,80,612.666667,0.322917,Triplet,F5
1717,Right,0,81,80,613.0,0.489583,Eighth,A5
1718,Right,0,81,80,613.5,0.489583,Eighth,A5
1719,Right,0,81,80,614.0,0.489583,Eighth,A5
1720,Left,1,64,80,614.0,0.989583,Quarter,G3_E4_C4
1723,Right,0,79,80,614.5,0.489583,Eighth,G5
1724,Right,0,77,80,615.0,0.489583,Eighth,F5
1725,Right,0,76,80,615.5,0.489583,Eighth,E5
1726,Right,0,76,80,616.0,0.489583,Eighth,E5
1727,Left,1,55,80,616.0,0.989583,Quarter,G3_F4_D4
1730,Right,0,74,80,616.5,0.489583,Eighth,D5
1731,Right,0,72,80,617.0,0.489583,Eighth,C5
1732,Right,0,71,80,617.5,0.489583,Eighth,B4
1733,Left,1,60,80,618.0,0.989583,Quarter,E4_C4
1735,Right,0,72,80,618.0,0.989583,Quarter,C5
1736,Right,0,67,80,621.0,0.989583,Quarter,G4
1737,Left,1,65,80,622.0,0.989583,Quarter,G4_F4
1738,Right,0,74,80,622.0,0.989583,Quarter,D5_B4
1743,Left,1,67,80,623.0,0.989583,Quarter,G4_F4
1741,Right,0,74,80,623.0,0.989583,Quarter,D5_B4
1745,Left,1,67,80,624.0,0.989583,Quarter,G4_F4
1747,Right,0,74,80,624.0,0.989583,Quarter,D5_B4
1749,Left,1,67,80,625.0,0.989583,Quarter,G4_F4
1750,Right,0,74,80,625.0,0.989583,Quarter,D5_B4
1755,Left,1,64,80,626.0,2.989583,DottedHalf,G4_E4
1753,Right,0,79,80,626.0,2.989583,DottedHalf,G5_C5
1757,Right,0,79,80,629.0,0.989583,Quarter,G5_C5
1759,Left,1,64,80,629.0,0.989583,Quarter,E4
1760,Left,1,69,80,630.0,1.989583,Half,A4
1761,Right,0,72,80,630.0,1.989583,Half,F#5_D#5_C5
1764,Right,0,78,80,632.0,1.989583,Half,F#5_D5_C5
1767,Left,1,69,80,632.0,1.989583,Half,A4
1768,Right,0,71,80,634.0,0.989583,Quarter,G5_D5_B4
1771,Left,1,67,80,634.0,0.989583,Quarter,G4
1772,Right,0,55,80,637.0,0.989583,Quarter,G3
1775,Right,0,59,80,638.0,0.989583,Quarter,D4_B3
1773,Left,1,53,80,638.0,0.989583,Quarter,G3_F3
1779,Right,0,59,80,639.0,0.989583,Quarter,D4_B3
1777,Left,1,55,80,639.0,0.989583,Quarter,G3_F3
1783,Left,1,55,80,640.0,0.989583,Quarter,G3_F3
1781,Right,0,62,80,640.0,0.989583,Quarter,D4_B3
1787,Right,0,62,80,641.0,0.989583,Quarter,D4_B3
1785,Left,1,55,80,641.0,0.989583,Quarter,G3_F3
1791,Right,0,67,80,642.0,2.989583,DottedHalf,G4
1789,Left,1,51,80,642.0,2.989583,DottedHalf,G3_D#3
1792,Right,0,59,80,643.0,0.989583,Quarter,B3
1793,Right,0,60,80,644.0,1.989583,Half,C4
1794,Right,0,67,80,645.0,0.989583,Quarter,G4
1795,Left,1,51,80,645.0,0.989583,Quarter,D#3
1796,Left,1,56,80,646.0,0.989583,Quarter,G#3
1797,Right,0,60,80,646.0,0.989583,Quarter,F4_C4
1799,Left,1,56,80,647.0,0.989583,Quarter,G#3
1800,Right,0,60,80,647.0,0.989583,Quarter,F4_C4
1804,Left,1,56,80,648.0,0.989583,Quarter,G#3_A#3
1802,Right,0,62,80,648.0,0.989583,Quarter,F4_D4
1806,Left,1,58,80,649.0,0.989583,Quarter,G#3_A#3
1807,Right,0,65,80,649.0,1.989583,Quarter,F4_D4
1810,Left,1,55,80,650.0,2.989583,DottedHalf,G3_A#3
1812,Right,0,70,80,650.0,2.989583,DottedHalf,A#4
1813,Right,0,62,80,651.0,0.989583,Quarter,D4
1814,Right,0,63,80,652.0,1.989583,Half,D#4
1815,Left,1,55,80,653.0,0.989583,Quarter,G3
1816,Right,0,70,80,653.0,0.989583,Quarter,A#4
1817,Right,0,63,80,654.0,0.989583,Quarter,D#4_A4
1819,Left,1,60,80,654.0,0.989583,Quarter,C4
1822,Right,0,66,80,655.0,0.989583,Quarter,F#4_A4
1820,Left,1,60,80,655.0,0.989583,Quarter,D#4_C4
1826,Left,1,60,80,656.0,0.989583,Quarter,D#4_C4
1824,Right,0,66,80,656.0,0.989583,Quarter,F#4_A4
1828,Right,0,66,80,657.0,1.989583,Half,F#4_A4
1830,Left,1,60,80,657.0,0.989583,Quarter,D#4_C4
1832,Right,0,74,80,658.0,2.989583,DottedHalf,D5
1833,Left,1,59,80,658.0,2.989583,DottedHalf,D4_B3
1835,Right,0,66,84,659.0,0.989583,Quarter,F#4
1836,Right,0,67,89,660.0,0.989583,Quarter,G4
1839,Left,1,60,94,661.0,0.989583,Quarter,D#4_C4
1837,Right,0,69,94,661.0,1.989583,Quarter,F#4_A4
1841,Left,1,59,90,662.0,2.989583,DottedHalf,D4_B3
1843,Right,0,74,90,662.0,2.989583,DottedHalf,D5
1844,Right,0,66,87,663.0,0.989583,Quarter,F#4
1845,Right,0,67,84,664.0,0.989583,Quarter,G4
1846,Left,1,65,81,665.0,0.989583,Quarter,G#4_F4
1847,Right,0,74,81,665.0,1.989583,Quarter,D5_B4
1852,Right,0,79,80,666.0,2.989583,DottedHalf,G5
1850,Left,1,63,80,666.0,2.989583,DottedHalf,G4_D#4
1853,Right,0,71,84,667.0,0.989583,Quarter,B4
1854,Right,0,72,89,668.0,0.989583,Quarter,C5
1855,Right,0,74,94,669.0,1.989583,Quarter,D5_B4
1856,Left,1,65,94,669.0,0.989583,Quarter,G#4_F4
1859,Left,1,63,90,670.0,2.989583,DottedHalf,G4_D#4
1861,Right,0,79,90,670.0,2.989583,DottedHalf,G5
1862,Right,0,71,87,671.0,0.989583,Quarter,B4
1863,Right,0,72,84,672.0,0.989583,Quarter,C5
1864,Left,1,68,81,673.0,0.989583,Quarter,G#4_F4
1865,Right,0,71,81,673.0,1.989583,Half,D5_B4
1868,Right,0,80,80,674.0,3.989583,Whole,G#5
1869,Right,0,70,80,675.0,0.989583,Quarter,A#4
1870,Right,0,71,80,676.0,0.989583,Quarter,B4
1871,Right,0,74,80,677.0,0.989583,Quarter,D5
1872,Right,0,79,80,678.0,3.989583,Whole,G5
1873,Right,0,70,80,679.0,0.989583,Quarter,A#4
1874,Right,0,71,80,680.0,0.989583,Quarter,B4
1875,Right,0,74,80,681.0,0.989583,Quarter,D5
1876,Right,0,78,80,682.0,3.989583,Whole,F#5
1877,Right,0,70,80,683.0,0.989583,Quarter,A#4
1878,Right,0,71,80,684.0,0.989583,Quarter,B4
1879,Right,0,74,80,685.0,0.989583,Quarter,D5
1880,Right,0,77,80,686.0,3.989583,Whole,F5
1881,Right,0,70,80,687.0,0.989583,Quarter,A#4
1882,Right,0,71,80,688.0,1.989583,Half,B4
1883,Left,1,43,80,689.0,0.989583,Quarter,G2
1887,Left,1,48,80,690.0,0.489583,Eighth,C3
1884,Right,0,75,80,690.0,1.489583,DottedQuarter,G4_D#5_C5
1888,Left,1,51,80,690.5,0.489583,Eighth,D#3
1889,Left,1,55,80,691.0,0.489583,Eighth,G3
1891,Left,1,60,80,691.5,0.489583,Eighth,C4
1890,Right,0,77,80,691.5,0.489583,Eighth,F5
1893,Left,1,48,80,692.0,0.489583,Eighth,C3
1892,Right,0,74,80,692.0,1.489583,DottedQuarter,D5
1894,Left,1,53,80,692.5,0.489583,Eighth,F3
1895,Left,1,55,80,693.0,0.489583,Eighth,G3
1896,Left,1,59,80,693.5,0.489583,Eighth,B3
1897,Right,0,75,80,693.5,0.489583,Eighth,D#5
1899,Left,1,48,80,694.0,0.489583,Eighth,C3
1898,Right,0,72,80,694.0,1.989583,Half,C5
1900,Left,1,51,80,694.5,0.489583,Eighth,D#3
1901,Left,1,55,80,695.0,0.489583,Eighth,G3
1902,Left,1,60,80,695.5,0.489583,Eighth,C4
1903,Right,0,74,80,696.0,0.114583,ThirtySecond,D5
1904,Left,1,63,80,696.0,0.489583,Eighth,D#4
1905,Right,0,72,80,696.125,0.364583,DottedSixteenth,C5
1906,Right,0,71,80,696.5,0.489583,Eighth,B4
1907,Left,1,67,80,696.5,0.489583,Eighth,G4
1908,Right,0,72,80,697.0,0.489583,Eighth,C5
1909,Left,1,63,80,697.0,0.489583,Eighth,D#4
1910,Left,1,62,80,697.5,0.489583,Eighth,D4
1911,Right,0,74,80,697.5,0.489583,Eighth,D5
1913,Left,1,60,80,698.0,0.489583,Eighth,C4
1912,Right,0,77,80,698.0,0.114583,ThirtySecond,F5
1914,Right,0,75,80,698.125,0.364583,DottedSixteenth,D#5
1916,Left,1,67,80,698.5,0.489583,Eighth,G4
1915,Right,0,74,80,698.5,0.489583,Eighth,D5
1917,Left,1,60,80,699.0,0.489583,Eighth,D#4_C4
1919,Right,0,75,80,699.0,0.489583,Eighth,D#5
1921,Left,1,67,80,699.5,0.489583,Eighth,G4
1920,Right,0,77,80,699.5,0.489583,Eighth,F5
1922,Left,1,59,80,700.0,0.489583,Eighth,D4_B3
1924,Right,0,79,80,700.0,0.989583,Quarter,G5
1925,Left,1,67,80,700.5,0.489583,Eighth,G4
1928,Right,0,79,80,701.0,0.989583,Quarter,G5
1926,Left,1,56,80,701.0,0.489583,Eighth,G#3_C4
1929,Left,1,67,80,701.5,0.489583,Eighth,G4
1931,Left,1,55,80,702.0,0.489583,Eighth,G3
1930,Right,0,79,80,702.0,2.989583,DottedHalf,G5
1932,Left,1,59,80,702.5,0.489583,Eighth,B3
1933,Left,1,62,80,703.0,0.489583,Eighth,D4
1934,Left,1,67,80,703.5,0.489583,Eighth,G4
1935,Left,1,55,80,704.0,0.489583,Eighth,G3
1936,Left,1,59,80,704.5,0.489583,Eighth,B3
1938,Right,0,77,80,705.0,0.489583,Eighth,F5
1937,Left,1,62,80,705.0,0.489583,Eighth,D4
1940,Right,0,79,80,705.5,0.489583,Eighth,G5
1939,Left,1,67,80,705.5,0.489583,Eighth,G4
1941,Right,0,77,80,706.0,0.239583,Sixteenth,F5
1942,Left,1,53,80,706.0,0.489583,Eighth,F3
1943,Right,0,79,80,706.25,0.239583,Sixteenth,G5
1945,Left,1,56,80,706.5,0.489583,Eighth,G#3
1944,Right,0,80,80,706.5,1.489583,DottedQuarter,G#5
1946,Left,1,59,80,707.0,0.489583,Eighth,B3
1947,Left,1,62,80,707.5,0.489583,Eighth,D4
1948,Left,1,53,80,708.0,0.489583,Eighth,F3
1949,Right,0,74,80,708.0,0.989583,Quarter,D5
1950,Left,1,56,80,708.5,0.489583,Eighth,G#3
1952,Right,0,75,80,709.0,0.489583,Eighth,D#5
1951,Left,1,59,80,709.0,0.489583,Eighth,B3
1953,Left,1,62,80,709.5,0.489583,Eighth,D4
1954,Right,0,77,80,709.5,0.489583,Eighth,F5
1955,Right,0,75,80,710.0,0.239583,Sixteenth,D#5
1956,Left,1,51,80,710.0,0.489583,Eighth,D#3
1957,Right,0,77,80,710.25,0.239583,Sixteenth,F5
1959,Right,0,79,80,710.5,1.489583,DottedQuarter,G5
1958,Left,1,56,80,710.5,0.489583,Eighth,G#3
1960,Left,1,60,80,711.0,0.489583,Eighth,C4
1961,Left,1,63,80,711.5,0.489583,Eighth,D#4
1962,Left,1,56,80,712.0,0.489583,Eighth,G#3
1963,Right,0,72,80,712.0,0.989583,Quarter,C5
1964,Left,1,60,80,712.5,0.489583,Eighth,C4
1966,Right,0,72,80,713.0,0.489583,Eighth,C5
1965,Left,1,63,80,713.0,0.489583,Eighth,D#4
1967,Left,1,66,80,713.5,0.489583,Eighth,F#4
1968,Right,0,74,80,713.5,0.489583,Eighth,D5
1970,Left,1,55,80,714.0,0.489583,Eighth,G3
1969,Right,0,75,80,714.0,0.989583,Quarter,D#5
1971,Left,1,60,80,714.5,0.489583,Eighth,C4
1973,Right,0,75,80,715.0,0.489583,Eighth,D#5
1972,Left,1,63,80,715.0,0.489583,Eighth,D#4
1975,Left,1,67,80,715.5,0.489583,Eighth,G4
1974,Right,0,77,80,715.5,0.489583,Eighth,F5
1976,Left,1,55,80,716.0,0.489583,Eighth,G3
1977,Right,0,74,80,716.0,0.989583,Quarter,D5
1978,Left,1,59,80,716.5,0.489583,Eighth,B3
1980,Right,0,74,80,717.0,0.489583,Eighth,D5
1979,Left,1,62,80,717.0,0.489583,Eighth,D4
1981,Right,0,75,80,717.5,0.489583,Eighth,D#5
1982,Left,1,67,80,717.5,0.489583,Eighth,G4
1984,Right,0,72,90,718.0,0.489583,Eighth,C5
1983,Left,1,60,90,718.0,0.989583,Quarter,C4
1985,Right,0,71,90,718.5,0.489583,Eighth,B4
1986,Right,0,72,91,719.0,0.489583,Eighth,C5
1987,Right,0,74,92,719.5,0.489583,Eighth,D5
1988,Right,0,75,93,720.0,0.489583,Eighth,D#5
1989,Right,0,76,94,720.5,0.489583,Eighth,E5
1990,Right,0,77,95,721.0,0.489583,Eighth,F5
1991,Right,0,79,96,721.5,0.489583,Eighth,G5
1993,Left,1,41,96,722.0,0.489583,Eighth,F2
1992,Right,0,80,96,722.0,0.489583,Eighth,G#5
1995,Left,1,44,97,722.5,0.489583,Eighth,G#2
1994,Right,0,79,97,722.5,0.489583,Eighth,G5
1996,Left,1,47,98,723.0,0.489583,Eighth,B2
1997,Right,0,82,98,723.0,0.489583,Eighth,A#5
1998,Left,1,50,99,723.5,0.489583,Eighth,D3
1999,Right,0,80,99,723.5,0.489583,Eighth,G#5
2001,Left,1,41,100,724.0,0.489583,Eighth,F2
2000,Right,0,79,100,724.0,0.489583,Eighth,G5
2002,Left,1,44,101,724.5,0.489583,Eighth,G#2
2003,Right,0,77,101,724.5,0.489583,Eighth,F5
2005,Left,1,47,102,725.0,0.489583,Eighth,B2
2004,Right,0,75,102,725.0,0.489583,Eighth,D#5
2007,Right,0,74,103,725.5,0.489583,Eighth,D5
2006,Left,1,50,103,725.5,0.489583,Eighth,D3
2008,Left,1,39,103,726.0,0.489583,Eighth,D#2
2009,Right,0,79,103,726.0,0.489583,Eighth,G5
2010,Left,1,43,104,726.5,0.489583,Eighth,G2
2011,Right,0,78,104,726.5,0.489583,Eighth,F#5
2012,Left,1,48,105,727.0,0.489583,Eighth,C3
2013,Right,0,80,105,727.0,0.489583,Eighth,G#5
2015,Right,0,79,106,727.5,0.489583,Eighth,G5
2014,Left,1,51,106,727.5,0.489583,Eighth,D#3
2016,Left,1,44,107,728.0,0.489583,Eighth,G#2
2017,Right,0,77,107,728.0,0.489583,Eighth,F5
2018,Left,1,48,108,728.5,0.489583,Eighth,C3
2019,Right,0,75,108,728.5,0.489583,Eighth,D#5
2021,Right,0,74,109,729.0,0.489583,Eighth,D5
2020,Left,1,51,109,729.0,0.489583,Eighth,D#3
2023,Left,1,54,109,729.5,0.489583,Eighth,F#3
2022,Right,0,72,109,729.5,0.489583,Eighth,C5
2025,Left,1,43,100,730.0,0.489583,Eighth,G2
2024,Right,0,75,100,730.0,0.489583,Eighth,D#5
2026,Left,1,48,100,730.5,0.489583,Eighth,C3
2027,Right,0,74,100,730.5,0.489583,Eighth,D5
2028,Right,0,77,100,731.0,0.489583,Eighth,F5
2029,Left,1,51,100,731.0,0.489583,Eighth,D#3
2031,Left,1,55,100,731.5,0.489583,Eighth,G3
2030,Right,0,75,100,731.5,0.489583,Eighth,D#5
2033,Left,1,43,100,732.0,0.489583,Eighth,G2
2032,Right,0,74,100,732.0,0.489583,Eighth,D5
2034,Right,0,73,100,732.5,0.489583,Eighth,C#5
2035,Left,1,55,100,732.5,0.489583,Eighth,G3
2037,Right,0,75,100,733.0,0.489583,Eighth,D#5
2036,Left,1,43,100,733.0,0.489583,Eighth,G2
2039,Right,0,74,100,733.5,0.489583,Eighth,D5
2038,Left,1,55,100,733.5,0.489583,Eighth,G3
2040,Right,0,72,80,734.0,0.989583,Quarter,C5
2041,Left,1,48,80,734.0,0.489583,Eighth,C3
2042,Left,1,60,80,734.5,0.489583,Eighth,C4
2043,Left,1,59,80,735.0,0.489583,Eighth,B3
2044,Left,1,60,80,735.5,0.489583,Eighth,C4
2045,Left,1,58,80,736.0,0.489583,Eighth,A#3
2046,Right,0,84,81,736.333333,0.322917,Triplet,C6
2047,Left,1,60,81,736.5,0.489583,Eighth,C4
2048,Right,0,86,82,736.666667,0.322917,Triplet,D6
2049,Right,0,88,83,737.0,0.322917,Triplet,E6
2050,Left,1,55,83,737.0,0.489583,Eighth,G3
2051,Right,0,86,85,737.333333,0.322917,Triplet,D6
2052,Left,1,60,85,737.5,0.489583,Eighth,C4
2053,Right,0,84,86,737.666667,0.322917,Triplet,C6
2055,Left,1,56,87,738.0,0.489583,Eighth,G#3
2054,Right,0,89,98,738.0,0.989583,Quarter,F6
2056,Left,1,60,89,738.5,0.489583,Eighth,C4
2057,Left,1,53,91,739.0,0.489583,Eighth,F3
2058,Left,1,60,93,739.5,0.489583,Eighth,C4
2059,Left,1,58,95,740.0,0.489583,Eighth,A#3
2060,Right,0,84,97,740.333333,0.322917,Triplet,C6
2061,Left,1,60,97,740.5,0.489583,Eighth,C4
2062,Right,0,86,98,740.666667,0.322917,Triplet,D6
2063,Right,0,88,99,741.0,0.322917,Triplet,E6
2064,Left,1,55,99,741.0,0.489583,Eighth,G3
2065,Right,0,86,101,741.333333,0.322917,Triplet,D6
2066,Left,1,60,101,741.5,0.489583,Eighth,C4
2067,Right,0,84,102,741.666667,0.322917,Triplet,C6
2068,Left,1,56,103,742.0,0.489583,Eighth,G#3
2069,Right,0,89,117,742.0,0.989583,Quarter,F6
2070,Left,1,60,105,742.5,0.489583,Eighth,C4
2071,Left,1,53,107,743.0,0.489583,Eighth,F3
2072,Left,1,60,109,743.5,0.489583,Eighth,C4
2073,Left,1,58,111,744.0,0.489583,Eighth,A#3
2074,Right,0,84,113,744.333333,0.322917,Triplet,C6
2075,Left,1,60,113,744.5,0.489583,Eighth,C4
2076,Right,0,86,114,744.666667,0.322917,Triplet,D6
2078,Left,1,55,115,745.0,0.489583,Eighth,G3
2077,Right,0,88,115,745.0,0.322917,Triplet,E6
2079,Right,0,86,117,745.333333,0.322917,Triplet,D6
2080,Left,1,60,117,745.5,0.489583,Eighth,C4
2081,Right,0,84,118,745.666667,0.322917,Triplet,C6
2082,Right,0,89,119,746.0,0.989583,Quarter,F6
2083,Left,1,56,119,746.0,0.989583,Quarter,G#3
2084,Right,0,84,120,747.0,0.989583,Quarter,F#5_D#5_C6_C5
2088,Left,1,48,120,747.0,0.989583,Quarter,G#3_G#2_D#3_C3
2096,Right,0,84,120,748.0,0.989583,Quarter,G5_D#5_C6_C5
2092,Left,1,55,120,748.0,0.989583,Quarter,G3_G2_D#3_C3
2102,Right,0,71,120,749.0,0.989583,Quarter,G5_D5_B5_B4
2100,Left,1,55,120,749.0,0.989583,Quarter,G3_G2_D3_B2
2108,Left,1,36,120,750.0,0.489583,Eighth,C2
2109,Right,0,75,120,750.0,0.989583,Quarter,G5_D#5_C6_C5
2113,Left,1,48,100,750.5,0.489583,Eighth,C3
2114,Left,1,47,100,751.0,0.489583,Eighth,B2
2115,Left,1,48,100,751.5,0.489583,Eighth,C3
2116,Left,1,46,100,752.0,0.489583,Eighth,A#2
2117,Right,0,72,100,752.333333,0.322917,Triplet,C5
2118,Left,1,48,100,752.5,0.489583,Eighth,C3
2119,Right,0,74,100,752.666667,0.322917,Triplet,D5
2121,Right,0,76,100,753.0,0.322917,Triplet,E5
2120,Left,1,43,100,753.0,0.489583,Eighth,G2
2122,Right,0,74,100,753.333333,0.322917,Triplet,D5
2123,Left,1,48,100,753.5,0.489583,Eighth,C3
2124,Right,0,72,100,753.666667,0.322917,Triplet,C5
2125,Right,0,77,113,754.0,0.989583,Quarter,F5
2126,Left,1,44,100,754.0,0.489583,Eighth,G#2
2127,Left,1,48,100,754.5,0.489583,Eighth,C3
2128,Left,1,41,100,755.0,0.489583,Eighth,F2
2129,Left,1,48,100,755.5,0.489583,Eighth,C3
2130,Left,1,46,100,756.0,0.489583,Eighth,A#2
2131,Right,0,72,100,756.333333,0.322917,Triplet,C5
2132,Left,1,48,100,756.5,0.489583,Eighth,C3
2133,Right,0,74,100,756.666667,0.322917,Triplet,D5
2134,Right,0,76,100,757.0,0.322917,Triplet,E5
2135,Left,1,43,100,757.0,0.489583,Eighth,G2
2136,Right,0,74,100,757.333333,0.322917,Triplet,D5
2137,Left,1,48,100,757.5,0.489583,Eighth,C3
2138,Right,0,72,100,757.666667,0.322917,Triplet,C5
2139,Right,0,77,118,758.0,0.989583,Quarter,F5
2140,Left,1,44,100,758.0,0.489583,Eighth,G#2
2141,Left,1,48,100,758.5,0.489583,Eighth,C3
2142,Left,1,41,100,759.0,0.489583,Eighth,F2
2143,Left,1,48,100,759.5,0.489583,Eighth,C3
2144,Left,1,46,100,760.0,0.489583,Eighth,A#2
2145,Right,0,60,100,760.333333,0.322917,Triplet,C4
2146,Left,1,48,100,760.5,0.489583,Eighth,C3
2147,Right,0,62,100,760.666667,0.322917,Triplet,D4
2149,Left,1,43,100,761.0,0.489583,Eighth,G2
2148,Right,0,64,100,761.0,0.322917,Triplet,E4
2150,Right,0,62,100,761.333333,0.322917,Triplet,D4
2151,Left,1,48,100,761.5,0.489583,Eighth,C3
2152,Right,0,60,100,761.666667,0.322917,Triplet,C4
2153,Left,1,44,80,762.0,0.989583,Quarter,G#2
2154,Right,0,65,80,762.0,0.322917,Triplet,F4
2155,Right,0,60,80,762.333333,0.322917,Triplet,C4
2156,Right,0,62,80,762.666667,0.322917,Triplet,D4
2157,Left,1,56,81,763.0,0.989583,Quarter,G#3_G#2
2159,Right,0,63,81,763.0,0.322917,Triplet,D#4
2160,Right,0,62,81,763.333333,0.322917,Triplet,D4
2161,Right,0,60,82,763.666667,0.322917,Triplet,C4
2162,Right,0,66,82,764.0,0.322917,Triplet,F#4
2163,Right,0,60,82,764.333333,0.322917,Triplet,C4
2164,Right,0,62,83,764.666667,0.322917,Triplet,D4
2168,Right,0,63,83,765.0,0.322917,Triplet,D#4
2165,Left,1,56,83,765.0,0.989583,Quarter,G#3_G#2_D#3_C3
2170,Right,0,62,84,765.333333,0.322917,Triplet,D4
2171,Right,0,60,84,765.666667,0.322917,Triplet,C4
2172,Right,0,67,85,766.0,0.322917,Triplet,G4
2173,Right,0,60,85,766.333333,0.322917,Triplet,C4
2174,Right,0,62,85,766.666667,0.322917,Triplet,D4
2175,Right,0,63,86,767.0,0.322917,Triplet,D#4
2176,Left,1,43,86,767.0,0.989583,Quarter,G3_G2_D#3_C3
2180,Right,0,62,86,767.333333,0.322917,Triplet,D4
2181,Right,0,60,87,767.666667,0.322917,Triplet,C4
2182,Right,0,69,87,768.0,0.322917,Triplet,A4
2183,Right,0,60,88,768.333333,0.322917,Triplet,C4
2184,Right,0,62,88,768.666667,0.322917,Triplet,D4
2185,Left,1,48,88,769.0,0.989583,Quarter,F#3_F#2_D#3_C3
2189,Right,0,63,88,769.0,0.322917,Triplet,D#4
2190,Right,0,62,89,769.333333,0.322917,Triplet,D4
2191,Right,0,60,89,769.666667,0.322917,Triplet,C4
2192,Right,0,71,90,770.0,0.322917,Triplet,B4
2193,Right,0,59,90,770.333333,0.322917,Triplet,B3
2194,Right,0,60,91,770.666667,0.322917,Triplet,C4
2195,Right,0,62,91,771.0,0.322917,Triplet,D4
2196,Left,1,41,91,771.0,0.989583,Quarter,F3_F2_D3_B2
2200,Right,0,60,91,771.333333,0.322917,Triplet,C4
2201,Right,0,59,92,771.666667,0.322917,Triplet,B3
2202,Right,0,72,92,772.0,0.322917,Triplet,C5
2203,Right,0,60,93,772.333333,0.322917,Triplet,C4
2204,Right,0,62,93,772.666667,0.322917,Triplet,D4
2209,Right,0,63,94,773.0,0.322917,Triplet,D#4
2205,Left,1,39,94,773.0,0.989583,Quarter,G2_D#3_D#2_C3
2210,Right,0,62,94,773.333333,0.322917,Triplet,D4
2211,Right,0,60,94,773.666667,0.322917,Triplet,C4
2212,Right,0,74,95,774.0,0.322917,Triplet,D5
2213,Right,0,62,95,774.333333,0.322917,Triplet,D4
2214,Right,0,63,96,774.666667,0.322917,Triplet,D#4
2219,Right,0,65,96,775.0,0.322917,Triplet,F4
2215,Left,1,44,96,775.0,0.989583,Quarter,G#2_F3_F2_D3
2220,Right,0,63,97,775.333333,0.322917,Triplet,D#4
2221,Right,0,62,97,775.666667,0.322917,Triplet,D4
2222,Right,0,71,97,776.0,0.322917,Triplet,B4
2223,Right,0,59,98,776.333333,0.322917,Triplet,B3
2224,Right,0,60,98,776.666667,0.322917,Triplet,C4
2228,Right,0,62,99,777.0,0.322917,Triplet,D4
2225,Left,1,50,99,777.0,0.989583,Quarter,G3_G2_D3_B2
2230,Right,0,60,99,777.333333,0.322917,Triplet,C4
2231,Right,0,59,99,777.666667,0.322917,Triplet,B3
2232,Left,1,48,110,778.0,0.989583,Quarter,C3_C2
2234,Right,0,72,110,778.0,0.989583,Quarter,C5_C4
2236,Left,1,55,110,779.0,2.989583,DottedHalf,G3_D#3_C4
2239,Right,0,79,123,780.0,0.989583,Quarter,G5
2240,Right,0,77,110,781.0,0.239583,Sixteenth,F5
2241,Right,0,75,110,781.25,0.239583,Sixteenth,D#5
2242,Right,0,74,110,781.5,0.239583,Sixteenth,D5
2243,Right,0,72,110,781.75,0.239583,Sixteenth,C5
2244,Right,0,74,110,782.0,0.989583,Quarter,D5
2245,Left,1,60,110,782.0,0.989583,Quarter,G#3_F3_D4_C4
2249,Left,1,62,110,783.0,2.989583,DottedHalf,G3_D4_B3
2252,Right,0,77,120,784.0,0.989583,Quarter,F5
2253,Right,0,75,110,785.0,0.239583,Sixteenth,D#5
2254,Right,0,74,110,785.25,0.239583,Sixteenth,D5
2255,Right,0,72,110,785.5,0.239583,Sixteenth,C5
2256,Right,0,71,110,785.75,0.239583,Sixteenth,B4
2258,Right,0,72,110,786.0,0.989583,Quarter,C5_C4
2257,Left,1,55,110,786.0,0.989583,Quarter,G3_D#3_C4
2262,Left,1,60,110,787.0,2.989583,DottedHalf,G3_D#3_C4
2265,Right,0,79,124,788.0,0.989583,Quarter,G5
2266,Right,0,77,110,789.0,0.239583,Sixteenth,F5
2267,Right,0,75,110,789.25,0.239583,Sixteenth,D#5
2268,Right,0,74,110,789.5,0.239583,Sixteenth,D5
2269,Right,0,72,110,789.75,0.239583,Sixteenth,C5
2270,Left,1,62,110,790.0,0.989583,Quarter,G#3_F3_D4_C4
2274,Right,0,74,110,790.0,0.989583,Quarter,D5
2275,Left,1,62,110,791.0,2.989583,DottedHalf,G3_D4_B3
2278,Right,0,77,123,792.0,0.989583,Quarter,F5
2279,Right,0,75,110,793.0,0.239583,Sixteenth,D#5
2280,Right,0,74,110,793.25,0.239583,Sixteenth,D5
2281,Right,0,72,110,793.5,0.239583,Sixteenth,C5
2282,Right,0,71,110,793.75,0.239583,Sixteenth,B4
2285,Left,1,55,110,794.0,0.989583,Quarter,G3_D#3_C4
2283,Right,0,72,110,794.0,0.989583,Quarter,C5_C4
2288,Left,1,51,110,795.0,2.989583,DottedHalf,G3_D#3_C4
2291,Right,0,79,120,796.0,0.989583,Quarter,G5
2292,Right,0,77,110,797.0,0.239583,Sixteenth,F5
2293,Right,0,75,110,797.25,0.239583,Sixteenth,D#5
2294,Right,0,74,110,797.5,0.239583,Sixteenth,D5
2295,Right,0,72,110,797.75,0.239583,Sixteenth,C5
2299,Right,0,73,110,798.0,0.989583,Quarter,C#5
2296,Left,1,56,110,798.0,0.989583,Quarter,G#3_F3_C#4
2300,Left,1,56,110,799.0,1.989583,Half,G#3_F3_C#4
2303,Right,0,89,120,800.0,4.989583,Unknown,F6
2304,Left,1,56,120,801.0,0.989583,Quarter,G#3_F3_C#4
2307,Left,1,55,120,802.0,5.989583,Unknown,G3_D#4_C#4_A#3
2311,Right,0,87,120,805.0,0.520833,Eighth,D#6
2312,Right,0,85,120,805.333333,0.510417,Eighth,C#6
2313,Right,0,84,120,805.666667,0.5,Eighth,C6
2314,Right,0,82,120,806.0,0.5,Eighth,A#5
2315,Right,0,80,120,806.333333,0.53125,Eighth,G#5
2316,Right,0,79,120,806.666667,0.479167,Eighth,G5
2317,Right,0,77,120,807.0,0.510417,Eighth,F5
2318,Right,0,75,120,807.333333,0.458333,Eighth,D#5
2319,Right,0,73,120,807.666667,0.458333,Eighth,C#5
2320,Right,0,72,120,808.0,0.270833,Sixteenth,C5
2321,Right,0,70,120,808.166667,0.239583,Sixteenth,A#4
2322,Right,0,68,120,808.333333,0.239583,Sixteenth,G#4
2323,Right,0,67,120,808.5,0.239583,Sixteenth,G4
2324,Right,0,65,120,808.666667,0.239583,Sixteenth,F4
2325,Right,0,63,120,808.833333,0.260417,Sixteenth,D#4
2326,Right,0,61,120,809.0,0.239583,Sixteenth,C#4
2327,Right,0,60,120,809.15625,0.260417,Sixteenth,C4
2328,Right,0,58,120,809.3125,0.260417,Sixteenth,A#3
2329,Right,0,56,120,809.458333,0.260417,Sixteenth,G#3
2330,Right,0,55,120,809.604167,0.270833,Sixteenth,G3
2331,Right,0,53,120,809.760417,0.21875,Sixteenth,F3
2332,Right,0,51,120,809.854167,0.125,ThirtySecond,D#3
2334,Left,1,39,120,810.0,10.989583,Unknown,G2_G1_D#2
2333,Right,0,49,120,810.0,10.989583,Unknown,C#3
2337,Right,0,56,80,821.0,0.489583,Eighth,G#3
2338,Right,0,58,80,821.5,0.489583,Eighth,A#3
2340,Left,1,44,80,822.0,4.0,Whole,G#2_D#3
2339,Right,0,60,80,822.0,1.489583,DottedQuarter,C4
2342,Right,0,61,80,823.5,0.489583,Eighth,C#4
2343,Left,1,49,80,824.0,1.989583,Half,C#3
2344,Right,0,58,80,824.0,1.489583,DottedQuarter,A#3
2345,Right,0,60,80,825.5,0.489583,Eighth,C4
2346,Left,1,48,80,826.0,0.989583,Quarter,C3
2347,Right,0,56,80,826.0,0.989583,Quarter,G#3
2348,Right,0,68,80,829.0,0.489583,Eighth,G#4
2349,Right,0,70,80,829.5,0.489583,Eighth,A#4
2351,Left,1,56,79,830.0,4.989583,Unknown,G#3_D#4
2350,Right,0,72,79,830.0,1.489583,DottedQuarter,C5
2353,Right,0,73,76,831.5,0.489583,Eighth,C#5
2354,Right,0,70,75,832.0,1.489583,DottedQuarter,A#4
2355,Left,1,61,75,832.0,1.989583,Half,C#4
2356,Right,0,72,72,833.5,0.489583,Eighth,C5
2358,Right,0,68,71,834.0,0.989583,Quarter,G#4
2357,Left,1,60,71,834.0,0.989583,Quarter,C4
2359,Right,0,72,70,837.0,0.989583,Quarter,C5
2362,Left,1,68,70,838.0,0.989583,Quarter,G#4
2360,Right,0,75,70,838.0,0.989583,Quarter,F#5_D#5
2363,Right,0,72,60,841.0,0.989583,Quarter,C5
2364,Left,1,67,60,842.0,0.989583,Quarter,G4
2365,Right,0,75,60,842.0,0.989583,Quarter,G5_D#5
2367,Right,0,87,120,845.0,0.322917,Triplet,D#6
2368,Right,0,86,120,845.333333,0.322917,Triplet,D6
2369,Right,0,84,120,845.666667,0.322917,Triplet,C6
2370,Right,0,89,120,846.0,0.322917,Triplet,F6
2371,Left,1,50,120,846.0,0.989583,Quarter,G3_G2_D3_A#2
2375,Right,0,87,120,846.333333,0.322917,Triplet,D#6
2376,Right,0,86,120,846.666667,0.322917,Triplet,D6
2377,Right,0,84,120,847.0,0.322917,Triplet,C6
2378,Right,0,83,120,847.333333,0.322917,Triplet,B5
2379,Right,0,80,120,847.666667,0.322917,Triplet,G#5
2380,Right,0,79,120,848.0,0.322917,Triplet,G5
2381,Right,0,77,120,848.333333,0.322917,Triplet,F5
2382,Right,0,75,120,848.666667,0.322917,Triplet,D#5
2383,Right,0,74,120,849.0,0.322917,Triplet,D5
2384,Right,0,72,120,849.333333,0.322917,Triplet,C5
2385,Right,0,71,120,849.666667,0.322917,Triplet,B4
2386,Left,1,43,120,850.0,0.989583,Quarter,G2_D#2_C3_C2
2388,Right,0,72,120,850.0,0.989583,Quarter,C5
2391,Right,0,60,1,855.0,0.989583,Quarter,C4
