,hand,channel,note,velocity,start_beat,duration,note_value,chord
0,Right,0,48,80,0.0,0.739583,DottedEighth,C3
1,Right,0,52,80,0.75,0.239583,Sixteenth,E3
3,Right,0,53,80,1.0,1.989583,Half,F3_A2
2,Left,1,41,80,1.0,1.489583,DottedQuarter,F2_F1
7,Left,1,31,80,2.0,0.489583,Eighth,G1
6,Right,0,46,80,2.0,0.489583,Eighth,A#2
8,Right,0,60,80,3.0,0.739583,DottedEighth,C4
9,Right,0,64,80,3.75,0.239583,Sixteenth,E4
10,Right,0,65,80,4.0,1.989583,Half,F4_C4
12,Left,1,45,80,4.0,1.489583,Quarter,F3_A2
14,Right,0,62,80,5.0,0.489583,Eighth,D4
15,Left,1,46,80,5.0,0.489583,Eighth,A#2
16,Right,0,72,80,6.0,0.739583,DottedEighth,C5
17,Right,0,77,80,6.75,0.239583,Sixteenth,F5
18,Right,0,81,80,7.0,1.739583,DottedQuarter,A5
19,Left,1,65,80,7.0,1.989583,DottedEighth,F4_C4
21,Left,1,69,80,7.75,0.239583,Sixteenth,A4
22,Left,1,72,80,8.0,0.739583,DottedEighth,C5
23,Right,0,77,80,8.75,0.239583,Sixteenth,F5
24,Left,1,69,80,8.75,0.239583,Sixteenth,A4
26,Right,0,79,80,9.0,0.739583,DottedEighth,G5
25,Left,1,60,80,9.0,0.989583,Quarter,C4_A#4
29,Right,0,76,80,9.75,0.239583,Sixteenth,E5
28,Left,1,67,80,9.75,0.239583,Sixteenth,G4
30,Right,0,77,80,10.0,0.989583,Quarter,F5
31,Left,1,65,80,10.0,0.989583,Quarter,F4_A4
33,Right,0,48,80,12.0,0.739583,DottedEighth,C3
34,Right,0,52,80,12.75,0.239583,Sixteenth,E3
35,Right,0,53,80,13.0,1.989583,Half,F3_A2
36,Left,1,29,80,13.0,1.489583,Quarter,F2_F1
40,Left,1,31,80,14.0,0.489583,Eighth,G1
39,Right,0,46,80,14.0,0.489583,Eighth,A#2
41,Right,0,60,80,15.0,0.739583,DottedEighth,C4
42,Right,0,64,80,15.75,0.239583,Sixteenth,E4
45,Right,0,60,80,16.0,1.989583,Quarter,F4_C4
43,Left,1,53,80,16.0,1.489583,DottedQuarter,F3_A2
47,Left,1,46,80,17.0,0.489583,Eighth,A#2
48,Right,0,62,80,17.0,0.489583,Eighth,D4
49,Right,0,72,80,18.0,0.739583,DottedEighth,C5
50,Right,0,77,80,18.75,0.239583,Sixteenth,F5
53,Right,0,81,80,19.0,1.739583,DottedQuarter,A5
51,Left,1,60,80,19.0,1.989583,Half,F4_C4
54,Left,1,69,80,19.75,0.239583,Sixteenth,A4
55,Left,1,72,80,20.0,0.739583,DottedEighth,C5
57,Left,1,69,80,20.75,0.239583,Sixteenth,A4
56,Right,0,77,80,20.75,0.239583,Sixteenth,F5
58,Left,1,60,80,21.0,0.989583,Quarter,C4_A#4
60,Right,0,79,80,21.0,0.739583,DottedEighth,G5
61,Right,0,76,80,21.75,0.239583,Sixteenth,E5
62,Left,1,67,80,21.75,0.239583,Sixteenth,G4
63,Right,0,77,80,22.0,0.989583,Quarter,F5
64,Left,1,69,80,22.0,0.989583,Quarter,F4_A4
66,Right,0,53,80,24.0,0.739583,DottedEighth,F3
67,Right,0,57,80,24.75,0.239583,Sixteenth,A3
69,Left,1,41,80,25.0,2.989583,DottedHalf,F2
68,Right,0,61,80,25.0,0.989583,Quarter,C#4
70,Right,0,62,80,26.0,1.739583,DottedQuarter,D4
71,Left,1,46,80,26.0,0.989583,Quarter,A#2
72,Left,1,43,80,27.0,0.989583,Quarter,G2_E3
74,Right,0,59,80,27.75,0.239583,Sixteenth,B3
75,Right,0,60,80,28.0,0.739583,DottedEighth,C4
76,Left,1,41,80,28.0,1.489583,DottedQuarter,F2_A2
78,Right,0,57,80,28.75,0.239583,Sixteenth,A3
80,Right,0,53,80,29.0,0.489583,Eighth,F3
79,Left,1,48,80,29.0,0.489583,Eighth,C3
81,Right,0,65,80,30.0,0.739583,DottedEighth,F4
82,Right,0,69,80,30.75,0.239583,Sixteenth,A4
84,Left,1,53,80,31.0,2.989583,DottedHalf,F3
83,Right,0,73,80,31.0,0.989583,Quarter,C#5
86,Left,1,58,80,32.0,0.989583,Quarter,A#3
85,Right,0,74,80,32.0,1.739583,DottedQuarter,D5
87,Left,1,55,80,33.0,0.989583,Quarter,G3_E4
89,Right,0,71,80,33.75,0.239583,Sixteenth,B4
90,Right,0,72,80,34.0,0.739583,DottedEighth,C5
91,Left,1,57,80,34.0,1.489583,DottedQuarter,F3_A3
93,Right,0,69,80,34.75,0.239583,Sixteenth,A4
94,Left,1,60,80,35.0,0.489583,Eighth,C4
95,Right,0,65,80,35.0,0.489583,Eighth,F4
96,Right,0,77,80,36.0,0.739583,DottedEighth,F5
97,Right,0,81,80,36.75,0.239583,Sixteenth,A5
98,Right,0,85,80,37.0,0.989583,Quarter,C#6
101,Right,0,86,83,38.0,1.739583,DottedQuarter,D6_D5
99,Left,1,70,83,38.0,1.739583,DottedQuarter,F4_A#4
103,Left,1,67,86,39.0,0.739583,DottedEighth,G4
105,Right,0,83,89,39.75,0.239583,Sixteenth,D5_B5
104,Left,1,65,89,39.75,0.239583,Sixteenth,G4_F4
108,Right,0,84,90,40.0,0.739583,DottedEighth,C6_C5
110,Left,1,64,90,40.0,0.739583,DottedEighth,G4_E4
114,Right,0,81,93,40.75,0.239583,Sixteenth,C5_A5
112,Left,1,65,93,40.75,0.239583,Sixteenth,F4_A4
116,Right,0,70,93,41.0,1.739583,DottedQuarter,A#5_A#4
117,Left,1,62,93,41.0,0.989583,Quarter,F4_D4
120,Left,1,67,97,42.0,0.739583,DottedEighth,G4_E4
123,Right,0,79,99,42.75,0.239583,Sixteenth,G5_A#4
122,Left,1,62,99,42.75,0.239583,Sixteenth,F4_D4
128,Left,1,61,100,43.0,0.739583,DottedEighth,E4_C#4
126,Right,0,69,100,43.0,0.739583,DottedEighth,A5_A4
132,Left,1,62,100,43.75,0.239583,Sixteenth,F4_D4
130,Right,0,77,100,43.75,0.239583,Sixteenth,F5_A4
134,Left,1,58,100,44.0,1.989583,Half,D4_A#3
135,Right,0,79,100,44.0,1.739583,DottedQuarter,G5_G4
138,Right,0,70,100,45.0,0.989583,Quarter,A#4
139,Left,1,67,100,45.75,0.239583,Sixteenth,G4
140,Right,0,74,100,45.75,0.239583,Sixteenth,D5
141,Left,1,67,90,46.0,0.989583,DottedEighth,G4_C4
143,Right,0,70,90,46.0,0.989583,Quarter,F5_A#4
145,Right,0,76,89,46.125,0.114583,ThirtySecond,E5
146,Right,0,74,88,46.25,0.114583,ThirtySecond,D5
147,Right,0,76,87,46.375,0.364583,DottedSixteenth,E5
148,Left,1,64,83,46.75,0.239583,Sixteenth,E4
149,Right,0,79,83,46.75,0.239583,Sixteenth,G5
150,Left,1,53,81,47.0,0.489583,Eighth,F4_F3
151,Right,0,69,81,47.0,0.489583,Eighth,F5_A4
154,Right,0,53,80,48.0,0.739583,DottedEighth,F3
155,Right,0,57,80,48.75,0.239583,Sixteenth,A3
157,Right,0,61,80,49.0,0.989583,Quarter,C#4
156,Left,1,41,80,49.0,2.989583,DottedHalf,F2
159,Right,0,62,80,50.0,1.739583,DottedQuarter,D4
158,Left,1,46,80,50.0,0.989583,Quarter,A#2
160,Left,1,43,80,51.0,0.989583,Quarter,G2_E3
162,Right,0,59,80,51.75,0.239583,Sixteenth,B3
163,Left,1,45,80,52.0,1.489583,DottedQuarter,F2_A2
165,Right,0,60,80,52.0,0.739583,DottedEighth,C4
166,Right,0,57,80,52.75,0.239583,Sixteenth,A3
168,Right,0,53,80,53.0,0.489583,Eighth,F3
167,Left,1,48,80,53.0,0.489583,Eighth,C3
169,Right,0,67,80,54.0,0.114583,ThirtySecond,G4
170,Right,0,65,80,54.125,0.114583,ThirtySecond,F4
171,Right,0,64,80,54.25,0.114583,ThirtySecond,E4
172,Right,0,65,80,54.375,0.364583,DottedSixteenth,F4
173,Right,0,69,80,54.75,0.239583,Sixteenth,A4
174,Left,1,53,80,55.0,2.989583,DottedHalf,F3
175,Right,0,73,80,55.0,0.989583,Quarter,C#5
177,Left,1,58,80,56.0,0.989583,Quarter,A#3
176,Right,0,74,80,56.0,1.739583,DottedQuarter,D5
178,Left,1,55,80,57.0,0.989583,Quarter,G3_E4
180,Right,0,71,80,57.75,0.239583,Sixteenth,B4
181,Left,1,53,80,58.0,1.489583,DottedQuarter,F3_A3
182,Right,0,72,80,58.0,0.739583,DottedEighth,C5
184,Right,0,69,80,58.75,0.239583,Sixteenth,A4
186,Right,0,65,80,59.0,0.489583,Eighth,F4
185,Left,1,60,80,59.0,0.489583,Eighth,C4
187,Right,0,79,80,60.0,0.114583,ThirtySecond,G5
188,Right,0,77,80,60.125,0.114583,ThirtySecond,F5
189,Right,0,76,80,60.25,0.114583,ThirtySecond,E5
190,Right,0,77,80,60.375,0.364583,DottedSixteenth,F5
191,Right,0,81,80,60.75,0.239583,Sixteenth,A5
192,Right,0,85,80,61.0,0.989583,Quarter,C#6
193,Left,1,65,84,62.0,1.739583,Quarter,F4_A#4
195,Right,0,86,84,62.0,1.739583,DottedQuarter,D6_D5
197,Left,1,67,88,63.0,0.739583,DottedEighth,G4
200,Left,1,67,92,63.75,0.239583,Sixteenth,G4_F4
198,Right,0,83,92,63.75,0.239583,Sixteenth,D5_B5
202,Right,0,84,93,64.0,0.739583,DottedEighth,C6_C5
204,Left,1,67,93,64.0,0.739583,DottedEighth,G4_E4
206,Right,0,81,96,64.75,0.239583,Sixteenth,C5_A5
208,Left,1,65,96,64.75,0.239583,Sixteenth,F4_A4
212,Left,1,62,97,65.0,0.989583,Quarter,F4_D4
210,Right,0,70,97,65.0,1.739583,DottedQuarter,A#5_A#4
214,Left,1,64,102,66.0,0.739583,DottedEighth,G4_E4
218,Right,0,70,105,66.75,0.239583,Sixteenth,G5_A#4
216,Left,1,62,105,66.75,0.239583,Sixteenth,F4_D4
220,Left,1,64,106,67.0,0.739583,DottedEighth,E4_C#4
221,Right,0,69,106,67.0,0.739583,DottedEighth,A5_A4
226,Left,1,62,109,67.75,0.239583,Sixteenth,F4_D4
224,Right,0,77,109,67.75,0.239583,Sixteenth,F5_A4
228,Left,1,58,110,68.0,1.989583,Half,D4_A#3
229,Right,0,67,110,68.0,1.739583,Quarter,G5_G4
232,Right,0,70,99,69.0,0.989583,Quarter,A#4
233,Left,1,67,91,69.75,0.239583,Sixteenth,G4
234,Right,0,74,91,69.75,0.239583,Sixteenth,D5
236,Right,0,70,80,70.0,0.989583,Quarter,F5_A#4
235,Left,1,67,80,70.0,0.989583,DottedEighth,G4_C4
239,Right,0,76,80,70.125,0.114583,ThirtySecond,E5
240,Right,0,74,80,70.25,0.114583,ThirtySecond,D5
241,Right,0,76,80,70.375,0.364583,DottedSixteenth,E5
242,Right,0,79,80,70.75,0.239583,Sixteenth,G5
243,Left,1,64,80,70.75,0.239583,Sixteenth,E4
245,Left,1,65,80,71.0,0.489583,Eighth,F4_F3
244,Right,0,69,80,71.0,0.489583,Eighth,F5_A4
248,Left,1,36,110,72.0,0.322917,Triplet,C3_C2
250,Left,1,60,110,72.333333,0.322917,Triplet,C4_C3
252,Left,1,59,110,72.666667,0.322917,Triplet,B3_B2
254,Left,1,60,110,73.0,0.322917,Triplet,C4_C3
256,Left,1,46,110,73.333333,0.322917,Triplet,A#3_A#2
258,Left,1,45,110,73.666667,0.322917,Triplet,A3_A2
260,Left,1,43,110,74.0,0.322917,Triplet,G3_G2
262,Left,1,57,110,74.333333,0.322917,Triplet,A3_A2
264,Left,1,46,110,74.666667,0.322917,Triplet,A#3_A#2
266,Left,1,57,110,75.0,0.322917,Triplet,A3_A2
268,Right,0,60,110,75.0,0.322917,Triplet,C5_C4
271,Right,0,72,110,75.333333,0.322917,Triplet,C6_C5
270,Left,1,45,110,75.333333,0.322917,Triplet,A3_A2
275,Left,1,44,110,75.666667,0.322917,Triplet,G#3_G#2
274,Right,0,83,110,75.666667,0.322917,Triplet,B5_B4
278,Right,0,72,110,76.0,0.322917,Triplet,C6_C5
280,Left,1,45,110,76.0,0.322917,Triplet,A3_A2
282,Right,0,70,110,76.333333,0.322917,Triplet,A#5_A#4
284,Left,1,58,110,76.333333,0.322917,Triplet,A#3_A#2
286,Left,1,60,110,76.666667,0.322917,Triplet,C4_C3
287,Right,0,81,110,76.666667,0.322917,Triplet,A5_A4
291,Left,1,58,110,77.0,0.322917,Triplet,A#3_A#2
290,Right,0,67,110,77.0,0.322917,Triplet,G5_G4
294,Left,1,45,110,77.333333,0.322917,Triplet,A3_A2
296,Right,0,69,110,77.333333,0.322917,Triplet,A5_A4
299,Left,1,43,110,77.666667,0.322917,Triplet,G3_G2
298,Right,0,82,110,77.666667,0.322917,Triplet,A#5_A#4
302,Left,1,41,110,78.0,0.322917,Triplet,F3_F2
304,Right,0,81,110,78.0,0.322917,Triplet,A5_A4
308,Left,1,43,110,78.333333,0.322917,Triplet,G3_G2
306,Right,0,67,110,78.333333,0.322917,Triplet,G5_G4
311,Right,0,65,110,78.666667,0.322917,Triplet,F5_F4
310,Left,1,45,110,78.666667,0.322917,Triplet,A3_A2
314,Right,0,64,110,79.0,0.322917,Triplet,E5_E4
316,Left,1,43,110,79.0,0.322917,Triplet,G3_G2
319,Left,1,53,110,79.333333,0.322917,Triplet,F3_F2
318,Right,0,77,110,79.333333,0.322917,Triplet,F5_F4
322,Left,1,52,110,79.666667,0.322917,Triplet,E3_E2
324,Right,0,67,110,79.666667,0.322917,Triplet,G5_G4
326,Left,1,38,110,80.0,0.322917,Triplet,D3_D2
327,Right,0,77,110,80.0,0.322917,Triplet,F5_F4
330,Right,0,76,110,80.333333,0.322917,Triplet,E5_E4
332,Left,1,40,110,80.333333,0.322917,Triplet,E3_E2
336,Left,1,41,110,80.666667,0.322917,Triplet,F3_F2
334,Right,0,74,110,80.666667,0.322917,Triplet,D5_D4
339,Left,1,52,110,81.0,0.322917,Triplet,E3_E2
338,Right,0,73,110,81.0,0.322917,Triplet,C#5_C#4
344,Right,0,74,110,81.333333,0.322917,Triplet,D5_D4
342,Left,1,38,110,81.333333,0.322917,Triplet,D3_D2
346,Left,1,48,110,81.666667,0.322917,Triplet,C3_C2
348,Right,0,76,110,81.666667,0.322917,Triplet,E5_E4
350,Left,1,34,110,82.0,0.322917,Triplet,A#2_A#1
351,Right,0,74,110,82.0,0.322917,Triplet,D5_D4
354,Left,1,33,110,82.333333,0.322917,Triplet,A2_A1
356,Right,0,72,110,82.333333,0.322917,Triplet,C5_C4
359,Right,0,58,110,82.666667,0.322917,Triplet,A#4_A#3
358,Left,1,46,110,82.666667,0.322917,Triplet,A#2_A#1
363,Right,0,57,110,83.0,0.322917,Triplet,A4_A3
362,Left,1,47,110,83.0,0.322917,Triplet,B2_B1
366,Left,1,33,110,83.333333,0.322917,Triplet,A2_A1
368,Right,0,55,110,83.333333,0.322917,Triplet,G4_G3
371,Left,1,47,110,83.666667,0.322917,Triplet,B2_B1
370,Right,0,65,110,83.666667,0.322917,Triplet,F4_F3
375,Left,1,48,110,84.0,0.489583,Eighth,C3_C2
374,Right,0,64,110,84.0,0.322917,Triplet,E4_E3
378,Right,0,72,110,84.333333,0.322917,Triplet,C5_C4
380,Right,0,59,110,84.666667,0.322917,Triplet,B4_B3
382,Right,0,60,110,85.0,0.322917,Triplet,C5_C4
384,Right,0,58,110,85.333333,0.322917,Triplet,A#4_A#3
386,Right,0,69,110,85.666667,0.322917,Triplet,A4_A3
388,Right,0,67,110,86.0,0.322917,Triplet,G4_G3
390,Right,0,69,110,86.333333,0.322917,Triplet,A4_A3
392,Right,0,70,110,86.666667,0.322917,Triplet,A#4_A#3
394,Left,1,48,110,87.0,0.322917,Triplet,C3
395,Right,0,57,110,87.0,0.322917,Triplet,A4_A3
398,Left,1,60,110,87.333333,0.322917,Triplet,C4
397,Right,0,69,110,87.333333,0.322917,Triplet,A5_A4
402,Left,1,60,110,87.666667,0.322917,Triplet,C4_B3
400,Right,0,68,110,87.666667,0.322917,Triplet,G#5_G#4
404,Right,0,81,110,88.0,0.322917,Triplet,A5_A4
406,Left,1,60,110,88.0,0.322917,Triplet,C4
408,Right,0,67,110,88.333333,0.322917,Triplet,G5_G4
407,Left,1,58,110,88.333333,0.322917,Triplet,C4_A#3
413,Right,0,77,110,88.666667,0.322917,Triplet,F5_F4
411,Left,1,60,110,88.666667,0.322917,Triplet,C4_A3
415,Left,1,60,110,89.0,0.322917,Triplet,C4_A#3
416,Right,0,76,110,89.0,0.322917,Triplet,G4_E5
419,Right,0,69,110,89.333333,0.322917,Triplet,F5_A4
421,Left,1,60,110,89.333333,0.322917,Triplet,C4_A3
423,Left,1,55,110,89.666667,0.322917,Triplet,G3_C4
424,Right,0,70,110,89.666667,0.322917,Triplet,G5_A#4
429,Left,1,60,110,90.0,0.322917,Triplet,C4_A3
427,Right,0,77,110,90.0,0.322917,Triplet,F5_A4
432,Right,0,79,110,90.333333,0.322917,Triplet,G5_A#4
431,Left,1,60,110,90.333333,0.322917,Triplet,G3_C4
435,Right,0,81,110,90.666667,0.322917,Triplet,C5_A5
436,Left,1,53,110,90.666667,0.322917,Triplet,F3_C4
439,Left,1,57,110,91.0,0.322917,Triplet,G3_A3
440,Right,0,73,110,91.0,0.322917,Triplet,E4_C#5
445,Left,1,53,110,91.333333,0.322917,Triplet,F3_A3
443,Right,0,65,110,91.333333,0.322917,Triplet,F4_D5
448,Left,1,52,110,91.666667,0.322917,Triplet,E3_A3
447,Right,0,67,110,91.666667,0.322917,Triplet,G4_E5
451,Left,1,53,110,92.0,0.322917,Triplet,F3_A3
453,Right,0,74,110,92.0,0.322917,Triplet,F4_D5
455,Left,1,57,110,92.333333,0.322917,Triplet,E3_A3
456,Right,0,76,110,92.333333,0.322917,Triplet,G4_E5
459,Left,1,50,110,92.666667,0.322917,Triplet,D3_A3
460,Right,0,77,110,92.666667,0.322917,Triplet,F5_A4
464,Left,1,53,110,93.0,0.322917,Triplet,G3_F3
463,Right,0,71,110,93.0,0.322917,Triplet,D4_B4
467,Right,0,72,110,93.333333,0.322917,Triplet,E4_C5
469,Left,1,55,110,93.333333,0.322917,Triplet,G3_E3
473,Right,0,74,110,93.666667,0.322917,Triplet,F4_D5
471,Left,1,50,110,93.666667,0.322917,Triplet,G3_D3
475,Left,1,52,110,94.0,0.322917,Triplet,G3_E3
477,Right,0,72,110,94.0,0.322917,Triplet,E4_C5
479,Right,0,74,110,94.333333,0.322917,Triplet,F4_D5
481,Left,1,55,110,94.333333,0.322917,Triplet,G3_D3
485,Left,1,55,110,94.666667,0.322917,Triplet,G3_C3
483,Right,0,76,110,94.666667,0.322917,Triplet,G4_E5
487,Right,0,73,110,95.0,0.322917,Triplet,E4_C#5
489,Left,1,57,110,95.0,0.322917,Triplet,G3_A3
493,Left,1,57,110,95.333333,0.322917,Triplet,F3_A3
491,Right,0,74,110,95.333333,0.322917,Triplet,F4_D5
495,Right,0,76,110,95.666667,0.322917,Triplet,G4_E5
497,Left,1,57,110,95.666667,0.322917,Triplet,E3_A3
499,Left,1,53,110,96.0,0.322917,Triplet,F3_A3
500,Right,0,74,110,96.0,0.322917,Triplet,F4_D5
505,Left,1,52,110,96.333333,0.322917,Triplet,E3_A3
503,Right,0,67,110,96.333333,0.322917,Triplet,G4_E5
509,Right,0,69,110,96.666667,0.322917,Triplet,F5_A4
507,Left,1,50,110,96.666667,0.322917,Triplet,D3_A3
511,Right,0,62,110,97.0,0.322917,Triplet,D4_B4
512,Left,1,53,110,97.0,0.322917,Triplet,G3_F3
515,Left,1,52,110,97.333333,0.322917,Triplet,G3_E3
517,Right,0,64,110,97.333333,0.322917,Triplet,E4_C5
519,Right,0,65,110,97.666667,0.322917,Triplet,F4_D5
521,Left,1,50,110,97.666667,0.322917,Triplet,G3_D3
523,Left,1,55,110,98.0,0.322917,Triplet,G3_E3
525,Right,0,72,110,98.0,0.322917,Triplet,E4_C5
528,Left,1,50,110,98.333333,0.322917,Triplet,G3_D3
527,Right,0,74,110,98.333333,0.322917,Triplet,F4_D5
532,Right,0,76,110,98.666667,0.322917,Triplet,G4_E5
531,Left,1,55,110,98.666667,0.322917,Triplet,G3_C3
535,Right,0,72,110,99.0,0.322917,Triplet,C5_C4
537,Left,1,52,110,99.0,0.322917,Triplet,E3
538,Right,0,74,110,99.333333,0.322917,Triplet,D5_D4
540,Left,1,50,110,99.333333,0.322917,Triplet,D3
541,Right,0,64,110,99.666667,0.322917,Triplet,E5_E4
543,Left,1,48,110,99.666667,0.322917,Triplet,C3
545,Left,1,47,110,100.0,0.322917,Triplet,B2
544,Right,0,65,110,100.0,0.322917,Triplet,F5_F4
547,Right,0,67,110,100.333333,0.322917,Triplet,G5_G4
549,Left,1,45,110,100.333333,0.322917,Triplet,A2
551,Right,0,81,110,100.666667,0.322917,Triplet,A5_A4
550,Left,1,43,110,100.666667,0.322917,Triplet,G2
553,Right,0,83,110,101.0,0.322917,Triplet,B5_B4
555,Left,1,41,110,101.0,0.322917,Triplet,F2
558,Left,1,40,110,101.333333,0.322917,Triplet,E2
556,Right,0,72,110,101.333333,0.322917,Triplet,C6_C5
559,Right,0,74,110,101.666667,0.322917,Triplet,D6_D5
561,Left,1,38,110,101.666667,0.322917,Triplet,D2
564,Left,1,36,110,102.0,0.322917,Triplet,G2_C2
562,Right,0,76,110,102.0,0.322917,Triplet,E6_E5
566,Right,0,86,110,102.333333,0.322917,Triplet,D6_D5
568,Left,1,38,110,102.333333,0.322917,Triplet,G2_D2
572,Left,1,40,110,102.666667,0.322917,Triplet,G2_E2
570,Right,0,84,110,102.666667,0.322917,Triplet,C6_C5
575,Right,0,71,110,103.0,0.322917,Triplet,B5_B4
574,Left,1,41,110,103.0,0.322917,Triplet,G2_F2
578,Right,0,72,110,103.333333,0.322917,Triplet,C6_C5
579,Left,1,43,110,103.333333,0.322917,Triplet,G2_E2
582,Left,1,43,110,103.666667,0.322917,Triplet,G2_D2
584,Right,0,74,110,103.666667,0.322917,Triplet,D6_D5
586,Right,0,88,110,104.0,0.322917,Triplet,E6_E5
587,Left,1,43,110,104.0,0.322917,Triplet,G2_C2
590,Right,0,74,110,104.333333,0.322917,Triplet,D6_D5
592,Left,1,43,110,104.333333,0.322917,Triplet,G2_D2
594,Right,0,72,110,104.666667,0.322917,Triplet,C6_C5
596,Left,1,43,110,104.666667,0.322917,Triplet,G2_E2
599,Right,0,71,110,105.0,0.322917,Triplet,B5_B4
598,Left,1,43,110,105.0,0.322917,Triplet,G2_F2
602,Right,0,84,110,105.333333,0.322917,Triplet,C6_C5
603,Left,1,40,110,105.333333,0.322917,Triplet,G2_E2
608,Left,1,43,110,105.666667,0.322917,Triplet,G2_D2
606,Right,0,74,110,105.666667,0.322917,Triplet,D6_D5
610,Right,0,88,110,106.0,0.322917,Triplet,E6_E5
612,Left,1,36,110,106.0,0.322917,Triplet,C2
614,Left,1,38,110,106.333333,0.322917,Triplet,D2
613,Right,0,86,110,106.333333,0.322917,Triplet,D6_D5
616,Right,0,72,110,106.666667,0.322917,Triplet,C6_C5
618,Left,1,40,110,106.666667,0.322917,Triplet,E2
620,Left,1,41,110,107.0,0.322917,Triplet,F2
619,Right,0,88,110,107.0,0.322917,Triplet,E6_E5
623,Left,1,42,110,107.333333,0.322917,Triplet,F#2
622,Right,0,74,110,107.333333,0.322917,Triplet,D6_D5
626,Right,0,72,110,107.666667,0.322917,Triplet,C6_C5
625,Left,1,43,110,107.666667,0.322917,Triplet,G2
629,Right,0,88,110,108.0,0.322917,Triplet,E6_E5
628,Left,1,44,110,108.0,0.322917,Triplet,G#2
632,Right,0,86,110,108.333333,0.322917,Triplet,D6_D5
631,Left,1,45,110,108.333333,0.322917,Triplet,A2
634,Right,0,72,110,108.666667,0.322917,Triplet,C6_C5
635,Left,1,44,110,108.666667,0.322917,Triplet,G#2
638,Right,0,83,110,109.0,0.322917,Triplet,B5_B4
637,Left,1,43,110,109.0,0.322917,Triplet,G2
640,Right,0,69,110,109.333333,0.322917,Triplet,A5_A4
642,Left,1,43,110,109.333333,0.322917,Triplet,G2
643,Right,0,67,110,109.666667,0.322917,Triplet,G5_G4
645,Left,1,45,110,109.666667,0.322917,Triplet,A2
646,Right,0,65,110,110.0,0.322917,Triplet,F5_F4
648,Left,1,47,110,110.0,0.322917,Triplet,B2
650,Right,0,76,110,110.333333,0.322917,Triplet,E5_E4
649,Left,1,48,110,110.333333,0.322917,Triplet,C3
653,Right,0,62,110,110.666667,0.322917,Triplet,D5_D4
652,Left,1,50,110,110.666667,0.322917,Triplet,D3
657,Left,1,52,110,111.0,0.322917,Triplet,E3
655,Right,0,60,110,111.0,0.322917,Triplet,C5_C4
658,Right,0,62,110,111.333333,0.322917,Triplet,D5_D4
660,Left,1,53,110,111.333333,0.322917,Triplet,F3
663,Left,1,55,110,111.666667,0.322917,Triplet,G3
661,Right,0,71,110,111.666667,0.322917,Triplet,B4_B3
664,Left,1,48,110,112.0,0.322917,Triplet,C4_C3
665,Right,0,72,110,112.0,0.322917,Triplet,C5
667,Left,1,50,110,112.333333,0.322917,Triplet,D3
668,Left,1,47,110,112.666667,0.322917,Triplet,B2
669,Left,1,48,110,113.0,0.489583,Eighth,C3
670,Left,1,51,110,114.0,0.322917,Triplet,D#3_D#2
672,Left,1,63,110,114.333333,0.322917,Triplet,D#4_D#3
674,Left,1,50,110,114.666667,0.322917,Triplet,D4_D3
676,Left,1,63,110,115.0,0.322917,Triplet,D#4_D#3
678,Left,1,49,110,115.333333,0.322917,Triplet,C#4_C#3
680,Left,1,48,110,115.666667,0.322917,Triplet,C4_C3
682,Left,1,46,110,116.0,0.322917,Triplet,A#3_A#2
684,Left,1,48,110,116.333333,0.322917,Triplet,C4_C3
686,Left,1,49,110,116.666667,0.322917,Triplet,C#4_C#3
688,Left,1,48,110,117.0,0.322917,Triplet,C4_C3
689,Right,0,75,110,117.0,0.322917,Triplet,D#5_D#4
693,Left,1,60,110,117.333333,0.322917,Triplet,C4_C3
692,Right,0,75,110,117.333333,0.322917,Triplet,D#6_D#5
696,Left,1,47,110,117.666667,0.322917,Triplet,B3_B2
697,Right,0,74,110,117.666667,0.322917,Triplet,D6_D5
701,Left,1,48,110,118.0,0.322917,Triplet,C4_C3
700,Right,0,75,110,118.0,0.322917,Triplet,D#6_D#5
706,Left,1,61,110,118.333333,0.322917,Triplet,C#4_C#3
704,Right,0,73,110,118.333333,0.322917,Triplet,C#6_C#5
710,Left,1,63,110,118.666667,0.322917,Triplet,D#4_D#3
708,Right,0,84,110,118.666667,0.322917,Triplet,C6_C5
713,Right,0,70,110,119.0,0.322917,Triplet,A#5_A#4
712,Left,1,49,110,119.0,0.322917,Triplet,C#4_C#3
718,Right,0,84,110,119.333333,0.322917,Triplet,C6_C5
716,Left,1,48,110,119.333333,0.322917,Triplet,C4_C3
720,Right,0,73,110,119.666667,0.322917,Triplet,C#6_C#5
721,Left,1,58,110,119.666667,0.322917,Triplet,A#3_A#2
726,Left,1,56,110,120.0,0.322917,Triplet,G#3_G#2
724,Right,0,72,110,120.0,0.322917,Triplet,C6_C5
729,Left,1,46,110,120.333333,0.322917,Triplet,A#3_A#2
728,Right,0,82,110,120.333333,0.322917,Triplet,A#5_A#4
733,Right,0,68,110,120.666667,0.322917,Triplet,G#5_G#4
732,Left,1,48,110,120.666667,0.322917,Triplet,C4_C3
737,Left,1,46,110,121.0,0.322917,Triplet,A#3_A#2
736,Right,0,67,110,121.0,0.322917,Triplet,G5_G4
742,Left,1,56,110,121.333333,0.322917,Triplet,G#3_G#2
740,Right,0,68,110,121.333333,0.322917,Triplet,G#5_G#4
745,Left,1,55,110,121.666667,0.322917,Triplet,G3_G2
744,Right,0,70,110,121.666667,0.322917,Triplet,A#5_A#4
749,Left,1,53,110,122.0,0.322917,Triplet,F3_F2
748,Right,0,68,110,122.0,0.322917,Triplet,G#5_G#4
752,Right,0,67,110,122.333333,0.322917,Triplet,G5_G4
754,Left,1,55,110,122.333333,0.322917,Triplet,G3_G2
758,Left,1,44,110,122.666667,0.322917,Triplet,G#3_G#2
756,Right,0,65,110,122.666667,0.322917,Triplet,F5_F4
760,Left,1,43,110,123.0,0.322917,Triplet,G3_G2
761,Right,0,63,110,123.0,0.322917,Triplet,D#5_D#4
764,Left,1,41,110,123.333333,0.322917,Triplet,F3_F2
766,Right,0,77,110,123.333333,0.322917,Triplet,F5_F4
769,Left,1,51,110,123.666667,0.322917,Triplet,D#3_D#2
768,Right,0,67,110,123.666667,0.322917,Triplet,G5_G4
773,Left,1,49,110,124.0,0.322917,Triplet,C#3_C#2
772,Right,0,65,110,124.0,0.322917,Triplet,F5_F4
776,Right,0,75,110,124.333333,0.322917,Triplet,D#5_D#4
777,Left,1,36,110,124.333333,0.322917,Triplet,C3_C2
780,Left,1,37,110,124.666667,0.322917,Triplet,C#3_C#2
782,Right,0,61,110,124.666667,0.322917,Triplet,C#5_C#4
784,Right,0,72,110,125.0,0.322917,Triplet,C5_C4
786,Left,1,38,110,125.0,0.322917,Triplet,D3_D2
789,Right,0,70,110,125.333333,0.322917,Triplet,A#4_A#3
788,Left,1,48,110,125.333333,0.322917,Triplet,C3_C2
793,Right,0,56,110,125.666667,0.322917,Triplet,G#4_G#3
792,Left,1,50,110,125.666667,0.322917,Triplet,D3_D2
796,Right,0,55,110,126.0,0.322917,Triplet,G4_G3
798,Left,1,51,110,126.0,0.489583,Eighth,D#3_D#2
800,Right,0,63,110,126.333333,0.322917,Triplet,D#5_D#4
802,Right,0,74,110,126.666667,0.322917,Triplet,D5_D4
804,Right,0,75,110,127.0,0.322917,Triplet,D#5_D#4
806,Right,0,61,110,127.333333,0.322917,Triplet,C#5_C#4
808,Right,0,60,110,127.666667,0.322917,Triplet,C5_C4
810,Right,0,70,110,128.0,0.322917,Triplet,A#4_A#3
812,Right,0,72,110,128.333333,0.322917,Triplet,C5_C4
814,Right,0,61,110,128.666667,0.322917,Triplet,C#5_C#4
818,Right,0,60,110,129.0,0.322917,Triplet,C5_C4
816,Left,1,51,110,129.0,0.322917,Triplet,D#3_D#2
820,Right,0,84,110,129.333333,0.322917,Triplet,C6_C5
822,Left,1,63,110,129.333333,0.322917,Triplet,D#4_D#3
824,Right,0,71,110,129.666667,0.322917,Triplet,B5_B4
825,Left,1,50,110,129.666667,0.322917,Triplet,D4_D3_D#4_D#3
831,Right,0,72,110,130.0,0.322917,Triplet,C6_C5
830,Left,1,63,110,130.0,0.322917,Triplet,D#4
833,Left,1,63,110,130.333333,0.322917,Triplet,D#4_C#4
835,Right,0,70,110,130.333333,0.322917,Triplet,A#5_A#4
837,Right,0,68,110,130.666667,0.322917,Triplet,G#5_G#4
839,Left,1,63,110,130.666667,0.322917,Triplet,D#4_C4
841,Right,0,70,110,131.0,0.322917,Triplet,G5_A#4
842,Left,1,63,110,131.0,0.322917,Triplet,D#4_C#4
847,Right,0,80,110,131.333333,0.322917,Triplet,G#5_C5
845,Left,1,60,110,131.333333,0.322917,Triplet,D#4_C4
851,Left,1,63,110,131.666667,0.322917,Triplet,D#4_A#3
849,Right,0,73,110,131.666667,0.322917,Triplet,C#5_A#5
853,Left,1,63,110,132.0,0.322917,Triplet,D#4_C4
854,Right,0,72,110,132.0,0.322917,Triplet,G#5_C5
859,Left,1,58,110,132.333333,0.322917,Triplet,D#4_A#3
857,Right,0,82,110,132.333333,0.322917,Triplet,C#5_A#5
863,Left,1,56,110,132.666667,0.322917,Triplet,G#3_D#4
861,Right,0,84,110,132.666667,0.322917,Triplet,D#5_C6
865,Left,1,58,110,133.0,0.322917,Triplet,C4_A#3
866,Right,0,76,110,133.0,0.322917,Triplet,G4_E5
869,Left,1,60,110,133.333333,0.322917,Triplet,G#3_C4
871,Right,0,77,110,133.333333,0.322917,Triplet,G#4_F5
875,Left,1,55,110,133.666667,0.322917,Triplet,G3_C4
873,Right,0,70,110,133.666667,0.322917,Triplet,G5_A#4
879,Right,0,68,110,134.0,0.322917,Triplet,G#4_F5
877,Left,1,60,110,134.0,0.322917,Triplet,G#3_C4
883,Right,0,70,110,134.333333,0.322917,Triplet,G5_A#4
881,Left,1,60,110,134.333333,0.322917,Triplet,G3_C4
885,Right,0,80,110,134.666667,0.322917,Triplet,G#5_C5
887,Left,1,53,110,134.666667,0.322917,Triplet,F3_C4
889,Right,0,63,110,135.0,0.322917,Triplet,D#4_C5
890,Left,1,54,110,135.0,0.322917,Triplet,G#3_F#3
895,Right,0,65,110,135.333333,0.322917,Triplet,F4_C#5
893,Left,1,53,110,135.333333,0.322917,Triplet,G#3_F3
897,Right,0,75,110,135.666667,0.322917,Triplet,F#4_D#5
899,Left,1,51,110,135.666667,0.322917,Triplet,G#3_D#3
903,Right,0,73,110,136.0,0.322917,Triplet,F4_C#5
901,Left,1,53,110,136.0,0.322917,Triplet,G#3_F3
905,Left,1,56,110,136.333333,0.322917,Triplet,G#3_D#3
906,Right,0,75,110,136.333333,0.322917,Triplet,F#4_D#5
911,Left,1,49,110,136.666667,0.322917,Triplet,G#3_C#3
909,Right,0,68,110,136.666667,0.322917,Triplet,G#4_F5
915,Right,0,60,110,137.0,0.322917,Triplet,C4_A4
913,Left,1,53,110,137.0,0.322917,Triplet,F3_D#3
918,Left,1,53,110,137.333333,0.322917,Triplet,F3_C#3
917,Right,0,61,110,137.333333,0.322917,Triplet,C#4_A#4
922,Left,1,48,110,137.666667,0.322917,Triplet,F3_C3
921,Right,0,63,110,137.666667,0.322917,Triplet,D#4_C5
927,Left,1,53,110,138.0,0.322917,Triplet,F3_C#3
925,Right,0,61,110,138.0,0.322917,Triplet,C#4_A#4
929,Right,0,63,110,138.333333,0.322917,Triplet,D#4_C5
931,Left,1,53,110,138.333333,0.322917,Triplet,F3_C3
935,Left,1,53,110,138.666667,0.322917,Triplet,F3_A#2
933,Right,0,65,110,138.666667,0.322917,Triplet,F4_C#5
937,Right,0,67,110,139.0,0.322917,Triplet,G4_A#3
939,Left,1,51,110,139.0,0.322917,Triplet,D#3_C#3
943,Left,1,48,110,139.333333,0.322917,Triplet,D#3_C3
941,Right,0,60,110,139.333333,0.322917,Triplet,G#4_C4
946,Left,1,46,110,139.666667,0.322917,Triplet,D#3_A#2
945,Right,0,61,110,139.666667,0.322917,Triplet,C#4_A#4
949,Left,1,51,110,140.0,0.322917,Triplet,D#3_C3
951,Right,0,60,110,140.0,0.322917,Triplet,G#4_C4
955,Left,1,51,110,140.333333,0.322917,Triplet,D#3_A#2
953,Right,0,70,110,140.333333,0.322917,Triplet,C#4_A#4
959,Right,0,63,110,140.666667,0.322917,Triplet,D#4_C5
957,Left,1,51,110,140.666667,0.322917,Triplet,G#2_D#3
963,Left,1,53,110,141.0,0.322917,Triplet,F3_D#3
961,Right,0,60,110,141.0,0.322917,Triplet,C4_A4
965,Right,0,70,110,141.333333,0.322917,Triplet,C#4_A#4
966,Left,1,53,110,141.333333,0.322917,Triplet,F3_C#3
969,Right,0,63,110,141.666667,0.322917,Triplet,D#4_C5
970,Left,1,53,110,141.666667,0.322917,Triplet,F3_C3
975,Right,0,70,110,142.0,0.322917,Triplet,C#4_A#4
973,Left,1,53,110,142.0,0.322917,Triplet,F3_C#3
979,Left,1,53,110,142.333333,0.322917,Triplet,F3_C3
977,Right,0,72,110,142.333333,0.322917,Triplet,D#4_C5
982,Left,1,46,110,142.666667,0.322917,Triplet,F3_A#2
981,Right,0,73,110,142.666667,0.322917,Triplet,F4_C#5
985,Left,1,49,110,143.0,0.322917,Triplet,D#3_C#3
987,Right,0,58,110,143.0,0.322917,Triplet,G4_A#3
989,Right,0,68,110,143.333333,0.322917,Triplet,G#4_C4
991,Left,1,48,110,143.333333,0.322917,Triplet,D#3_C3
995,Left,1,51,110,143.666667,0.322917,Triplet,D#3_A#2
993,Right,0,70,110,143.666667,0.322917,Triplet,C#4_A#4
997,Left,1,48,110,144.0,0.322917,Triplet,D#3_C3
999,Right,0,60,110,144.0,0.322917,Triplet,G#4_C4
1001,Left,1,46,110,144.333333,0.322917,Triplet,D#3_A#2
1003,Right,0,61,110,144.333333,0.322917,Triplet,C#4_A#4
1006,Left,1,44,110,144.666667,0.322917,Triplet,G#2_D#3
1005,Right,0,72,110,144.666667,0.322917,Triplet,D#4_C5
1010,Left,1,49,110,145.0,0.322917,Triplet,D#3_C#3
1009,Right,0,67,110,145.0,0.322917,Triplet,G4_A#3
1015,Right,0,60,110,145.333333,0.322917,Triplet,G#4_C4
1013,Left,1,51,110,145.333333,0.322917,Triplet,D#3_C3
1019,Left,1,51,110,145.666667,0.322917,Triplet,D#3_A#2
1017,Right,0,61,110,145.666667,0.322917,Triplet,C#4_A#4
1023,Left,1,48,110,146.0,0.322917,Triplet,D#3_C3
1021,Right,0,60,110,146.0,0.322917,Triplet,G#4_C4
1027,Right,0,61,110,146.333333,0.322917,Triplet,C#4_A#4
1025,Left,1,46,110,146.333333,0.322917,Triplet,D#3_A#2
1030,Left,1,51,110,146.666667,0.322917,Triplet,G#2_D#3
1029,Right,0,63,110,146.666667,0.322917,Triplet,D#4_C5
1033,Left,1,51,110,147.0,0.322917,Triplet,D#3_C3
1034,Right,0,56,110,147.0,0.322917,Triplet,G#4_G#3
1037,Left,1,51,110,147.333333,0.322917,Triplet,D#3_A#2
1038,Right,0,58,110,147.333333,0.322917,Triplet,A#4_A#3
1043,Right,0,60,110,147.666667,0.322917,Triplet,C5_C4
1041,Left,1,51,110,147.666667,0.322917,Triplet,G#2_D#3
1046,Right,0,73,110,148.0,0.322917,Triplet,C#5_C#4
1045,Left,1,43,110,148.0,0.322917,Triplet,G2
1049,Right,0,75,110,148.333333,0.322917,Triplet,D#5_D#4
1048,Left,1,41,110,148.333333,0.322917,Triplet,F2
1051,Right,0,77,110,148.666667,0.322917,Triplet,F5_F4
1052,Left,1,39,110,148.666667,0.322917,Triplet,D#2
1055,Right,0,79,110,149.0,0.322917,Triplet,G5_G4
1054,Left,1,37,110,149.0,0.322917,Triplet,C#2
1058,Right,0,80,110,149.333333,0.322917,Triplet,G#5_G#4
1057,Left,1,36,110,149.333333,0.322917,Triplet,C2
1061,Left,1,34,110,149.666667,0.322917,Triplet,A#1
1060,Right,0,70,110,149.666667,0.322917,Triplet,A#5_A#4
1065,Left,1,39,110,150.0,0.322917,Triplet,G#1_D#2
1063,Right,0,84,110,150.0,0.322917,Triplet,C6_C5
1067,Left,1,39,110,150.333333,0.322917,Triplet,D#2_A#1
1069,Right,0,82,110,150.333333,0.322917,Triplet,A#5_A#4
1072,Right,0,80,110,150.666667,0.322917,Triplet,G#5_G#4
1071,Left,1,39,110,150.666667,0.322917,Triplet,D#2_C2
1075,Left,1,37,110,151.0,0.322917,Triplet,D#2_C#2
1076,Right,0,79,110,151.0,0.322917,Triplet,G5_G4
1079,Left,1,36,110,151.333333,0.322917,Triplet,D#2_C2
1081,Right,0,80,110,151.333333,0.322917,Triplet,G#5_G#4
1084,Left,1,34,110,151.666667,0.322917,Triplet,D#2_A#1
1083,Right,0,70,110,151.666667,0.322917,Triplet,A#5_A#4
1087,Right,0,84,110,152.0,0.322917,Triplet,C6_C5
1088,Left,1,39,110,152.0,0.322917,Triplet,G#1_D#2
1091,Left,1,39,110,152.333333,0.322917,Triplet,D#2_A#1
1092,Right,0,82,110,152.333333,0.322917,Triplet,A#5_A#4
1095,Left,1,39,110,152.666667,0.322917,Triplet,D#2_C2
1097,Right,0,80,110,152.666667,0.322917,Triplet,G#5_G#4
1101,Right,0,67,110,153.0,0.322917,Triplet,G5_G4
1099,Left,1,39,110,153.0,0.322917,Triplet,D#2_C#2
1105,Right,0,80,110,153.333333,0.322917,Triplet,G#5_G#4
1103,Left,1,36,110,153.333333,0.322917,Triplet,D#2_C2
1107,Right,0,82,110,153.666667,0.322917,Triplet,A#5_A#4
1109,Left,1,34,110,153.666667,0.322917,Triplet,D#2_A#1
1111,Left,1,32,110,154.0,0.322917,Triplet,G#1
1112,Right,0,84,110,154.0,0.322917,Triplet,C6_C5
1115,Right,0,82,110,154.333333,0.322917,Triplet,A#5_A#4
1114,Left,1,34,110,154.333333,0.322917,Triplet,A#1
1117,Right,0,68,110,154.666667,0.322917,Triplet,G#5_G#4
1118,Left,1,36,110,154.666667,0.322917,Triplet,C2
1120,Left,1,37,110,155.0,0.322917,Triplet,C#2
1121,Right,0,84,110,155.0,0.322917,Triplet,C6_C5
1124,Right,0,70,110,155.333333,0.322917,Triplet,A#5_A#4
1123,Left,1,38,110,155.333333,0.322917,Triplet,D2
1127,Right,0,68,110,155.666667,0.322917,Triplet,G#5_G#4
1126,Left,1,39,110,155.666667,0.322917,Triplet,D#2
1129,Right,0,84,110,156.0,0.322917,Triplet,C6_C5
1131,Left,1,40,110,156.0,0.322917,Triplet,E2
1134,Left,1,41,110,156.333333,0.322917,Triplet,F2
1132,Right,0,82,110,156.333333,0.322917,Triplet,A#5_A#4
1135,Right,0,80,110,156.666667,0.322917,Triplet,G#5_G#4
1137,Left,1,38,110,156.666667,0.322917,Triplet,D2
1138,Right,0,79,110,157.0,0.322917,Triplet,G5_G4
1140,Left,1,39,110,157.0,0.322917,Triplet,D#2
1142,Right,0,77,110,157.333333,0.322917,Triplet,F5_F4
1141,Left,1,39,110,157.333333,0.322917,Triplet,D#2
1144,Right,0,63,110,157.666667,0.322917,Triplet,D#5_D#4
1145,Left,1,41,110,157.666667,0.322917,Triplet,F2
1147,Right,0,73,110,158.0,0.322917,Triplet,C#5_C#4
1149,Left,1,43,110,158.0,0.322917,Triplet,G2
1150,Right,0,72,110,158.333333,0.322917,Triplet,C5_C4
1152,Left,1,44,110,158.333333,0.322917,Triplet,G#2
1153,Right,0,70,110,158.666667,0.322917,Triplet,A#4_A#3
1155,Left,1,46,110,158.666667,0.322917,Triplet,A#2
1158,Left,1,48,110,159.0,0.322917,Triplet,C3
1156,Right,0,56,110,159.0,0.322917,Triplet,G#4_G#3
1159,Right,0,58,110,159.333333,0.322917,Triplet,A#4_A#3
1160,Left,1,49,110,159.333333,0.322917,Triplet,C#3
1163,Right,0,67,110,159.666667,0.322917,Triplet,G4_G3
1162,Left,1,51,110,159.666667,0.322917,Triplet,D#3
1167,Left,1,44,110,160.0,0.322917,Triplet,G#2
1165,Right,0,56,110,160.0,0.322917,Triplet,G#4_G#3
1168,Left,1,46,110,160.333333,0.322917,Triplet,A#2
1169,Left,1,43,110,160.666667,0.322917,Triplet,G2
1170,Left,1,44,110,161.0,0.322917,Triplet,G#2
1171,Right,0,77,110,161.333333,0.322917,Triplet,F5
1172,Right,0,79,110,161.666667,0.322917,Triplet,G5
1174,Left,1,41,80,162.0,0.322917,Triplet,F2
1173,Right,0,80,80,162.0,0.322917,Triplet,G#5
1175,Left,1,43,80,162.333333,0.322917,Triplet,G2
1176,Right,0,79,80,162.333333,0.322917,Triplet,G5
1177,Left,1,44,80,162.666667,0.322917,Triplet,G#2
1178,Right,0,77,80,162.666667,0.322917,Triplet,F5
1180,Left,1,46,80,163.0,0.322917,Triplet,A#2
1179,Right,0,75,80,163.0,0.322917,Triplet,D#5
1182,Left,1,48,80,163.333333,0.322917,Triplet,C3
1181,Right,0,73,80,163.333333,0.322917,Triplet,C#5
1183,Right,0,72,80,163.666667,0.322917,Triplet,C5
1184,Left,1,49,80,163.666667,0.322917,Triplet,C#3
1185,Right,0,70,80,164.0,0.322917,Triplet,A#4
1186,Left,1,51,80,164.0,0.322917,Triplet,D#3
1187,Right,0,68,80,164.333333,0.322917,Triplet,G#4
1188,Left,1,53,80,164.333333,0.322917,Triplet,F3
1190,Right,0,67,80,164.666667,0.322917,Triplet,G4
1189,Left,1,55,80,164.666667,0.322917,Triplet,G3
1192,Right,0,65,80,165.0,0.322917,Triplet,F4
1191,Left,1,56,80,165.0,0.322917,Triplet,G#3
1194,Right,0,67,80,165.333333,0.322917,Triplet,G4
1193,Left,1,58,80,165.333333,0.322917,Triplet,A#3
1195,Right,0,64,80,165.666667,0.322917,Triplet,E4
1196,Left,1,60,80,165.666667,0.322917,Triplet,C4
1197,Left,1,53,80,166.0,0.322917,Triplet,F3
1198,Right,0,65,80,166.0,0.322917,Triplet,F4
1199,Left,1,43,80,166.333333,0.322917,Triplet,G2
1200,Left,1,40,80,166.666667,0.322917,Triplet,E2
1201,Left,1,41,80,167.0,0.322917,Triplet,F2
1202,Right,0,73,80,167.333333,0.322917,Triplet,C#5
1203,Right,0,75,80,167.666667,0.322917,Triplet,D#5
1204,Right,0,77,80,168.0,0.322917,Triplet,F5
1205,Left,1,37,80,168.0,0.322917,Triplet,C#2
1206,Left,1,39,80,168.333333,0.322917,Triplet,D#2
1207,Right,0,75,80,168.333333,0.322917,Triplet,D#5
1209,Left,1,41,80,168.666667,0.322917,Triplet,F2
1208,Right,0,73,80,168.666667,0.322917,Triplet,C#5
1211,Left,1,42,80,169.0,0.322917,Triplet,F#2
1210,Right,0,72,80,169.0,0.322917,Triplet,C5
1212,Left,1,44,80,169.333333,0.322917,Triplet,G#2
1213,Right,0,70,80,169.333333,0.322917,Triplet,A#4
1215,Left,1,46,80,169.666667,0.322917,Triplet,A#2
1214,Right,0,68,80,169.666667,0.322917,Triplet,G#4
1216,Left,1,48,80,170.0,0.322917,Triplet,C3
1217,Right,0,66,80,170.0,0.322917,Triplet,F#4
1219,Right,0,65,80,170.333333,0.322917,Triplet,F4
1218,Left,1,49,80,170.333333,0.322917,Triplet,C#3
1220,Left,1,51,80,170.666667,0.322917,Triplet,D#3
1221,Right,0,63,80,170.666667,0.322917,Triplet,D#4
1222,Left,1,53,80,171.0,0.322917,Triplet,F3
1223,Right,0,61,80,171.0,0.322917,Triplet,C#4
1225,Right,0,63,80,171.333333,0.322917,Triplet,D#4
1224,Left,1,54,80,171.333333,0.322917,Triplet,F#3
1227,Right,0,60,80,171.666667,0.322917,Triplet,C4
1226,Left,1,56,80,171.666667,0.322917,Triplet,G#3
1229,Left,1,49,80,172.0,0.322917,Triplet,C#3
1228,Right,0,61,80,172.0,0.489583,Eighth,C#4
1230,Left,1,39,80,172.333333,0.322917,Triplet,D#2
1231,Left,1,36,80,172.666667,0.322917,Triplet,C2
1232,Left,1,37,80,173.0,0.489583,Eighth,C#2
1233,Right,0,65,80,175.0,0.989583,Quarter,F4_F3
1235,Left,1,39,80,175.333333,0.322917,Triplet,D#2
1236,Left,1,36,80,175.666667,0.322917,Triplet,C2
1237,Left,1,37,80,176.0,0.489583,Eighth,C#2
1238,Right,0,58,80,178.0,0.989583,Quarter,F4_A#4_A#3
1241,Left,1,51,80,178.333333,0.322917,Triplet,D#3
1242,Left,1,48,80,178.666667,0.322917,Triplet,C3
1243,Left,1,49,80,179.0,0.489583,Eighth,C#3
1244,Right,0,59,80,181.0,0.989583,Quarter,F4_B4_B3
1247,Left,1,39,80,181.333333,0.322917,Triplet,D#2
1248,Left,1,36,80,181.666667,0.322917,Triplet,C2
1249,Left,1,37,80,182.0,0.489583,Eighth,C#2
1250,Right,0,60,80,184.0,0.322917,Triplet,E4_C5_C4
1253,Right,0,61,80,184.333333,0.322917,Triplet,C#4
1254,Right,0,59,80,184.666667,0.322917,Triplet,B3
1255,Right,0,60,80,185.0,0.322917,Triplet,C4
1256,Right,0,73,80,185.333333,0.322917,Triplet,C#5
1257,Right,0,71,80,185.666667,0.322917,Triplet,B4
1258,Right,0,72,80,186.0,0.322917,Triplet,C5
1259,Right,0,85,80,186.333333,0.322917,Triplet,C#6
1260,Right,0,83,80,186.666667,0.322917,Triplet,B5
1261,Right,0,84,80,187.0,0.322917,Triplet,C6
1262,Right,0,85,80,187.333333,0.322917,Triplet,C#6
1263,Right,0,83,80,187.666667,0.322917,Triplet,B5
1264,Right,0,84,80,188.0,0.322917,Triplet,C6
1265,Right,0,85,80,188.333333,0.322917,Triplet,C#6
1266,Right,0,83,80,188.666667,0.322917,Triplet,B5
1267,Right,0,84,80,189.0,0.322917,Triplet,C6
1268,Right,0,85,80,189.333333,0.322917,Triplet,C#6
1269,Right,0,83,80,189.666667,0.322917,Triplet,B5
1270,Right,0,84,80,190.0,0.989583,Quarter,C6
1271,Right,0,84,80,192.0,0.322917,Triplet,C6
1272,Right,0,85,80,192.333333,0.322917,Triplet,C#6
1273,Right,0,83,80,192.666667,0.322917,Triplet,B5
1274,Right,0,84,80,193.0,0.989583,Quarter,C6
1275,Right,0,84,80,195.0,0.322917,Triplet,C6
1276,Right,0,85,80,195.333333,0.322917,Triplet,C#6
1277,Right,0,83,80,195.666667,0.322917,Triplet,B5
1278,Left,1,36,80,196.0,0.322917,Triplet,C2
1279,Right,0,84,80,196.0,0.989583,Quarter,C6
1280,Left,1,37,80,196.333333,0.322917,Triplet,C#2
1281,Left,1,35,80,196.666667,0.322917,Triplet,B1
1282,Left,1,36,80,197.0,0.322917,Triplet,C2
1283,Left,1,37,80,197.333333,0.322917,Triplet,C#2
1284,Left,1,35,80,197.666667,0.322917,Triplet,B1
1285,Left,1,36,80,198.0,0.322917,Triplet,C2
1286,Left,1,37,80,198.333333,0.322917,Triplet,C#2
1287,Left,1,35,80,198.666667,0.322917,Triplet,B1
1288,Left,1,36,80,199.0,0.322917,Triplet,C2
1289,Left,1,37,80,199.333333,0.322917,Triplet,C#2
1290,Left,1,35,80,199.666667,0.322917,Triplet,B1
1291,Left,1,36,80,200.0,0.322917,Triplet,C2
1292,Left,1,37,80,200.333333,0.322917,Triplet,C#2
1293,Left,1,35,80,200.666667,0.322917,Triplet,B1
1294,Left,1,36,80,201.0,0.322917,Triplet,C2
1295,Left,1,38,80,201.333333,0.322917,Triplet,D2
1296,Left,1,35,80,201.666667,0.322917,Triplet,B1
1297,Left,1,36,80,202.0,0.322917,Triplet,C2
1298,Left,1,38,80,202.333333,0.322917,Triplet,D2
1299,Left,1,35,80,202.666667,0.322917,Triplet,B1
1301,Left,1,38,80,203.333333,0.322917,Triplet,D2
1302,Left,1,35,80,203.666667,0.322917,Triplet,B1
1303,Left,1,36,80,204.0,0.322917,Triplet,C2
1304,Left,1,38,80,204.333333,0.322917,Triplet,D2
1305,Left,1,33,80,204.666667,0.322917,Triplet,A1
1306,Left,1,34,80,205.0,0.322917,Triplet,A#1
1307,Left,1,36,80,205.333333,0.322917,Triplet,C2
1308,Left,1,33,80,205.666667,0.322917,Triplet,A1
1309,Left,1,34,80,206.0,0.322917,Triplet,A#1
1310,Left,1,38,80,206.333333,0.322917,Triplet,D2
1311,Left,1,36,80,206.666667,0.322917,Triplet,C2
1313,Right,0,48,80,207.0,0.739583,DottedEighth,C3
1312,Left,1,34,80,207.0,0.322917,Triplet,A#1
1314,Left,1,33,80,207.333333,0.322917,Triplet,A1
1315,Left,1,31,80,207.666667,0.322917,Triplet,G1
1316,Right,0,52,80,207.75,0.239583,Sixteenth,E3
1319,Right,0,45,80,208.0,1.989583,Quarter,F3_A2
1317,Left,1,41,80,208.0,1.489583,DottedQuarter,F2_F1
1322,Right,0,46,80,209.0,0.489583,Eighth,A#2
1321,Left,1,31,80,209.0,0.489583,Eighth,G1
1323,Right,0,60,80,210.0,0.489583,Eighth,C4
1324,Right,0,64,80,210.75,0.239583,Sixteenth,E4
1325,Left,1,45,80,211.0,1.489583,Quarter,F3_A2
1326,Right,0,65,80,211.0,1.989583,Half,F4_C4
1330,Right,0,62,80,212.0,0.489583,Eighth,D4
1329,Left,1,46,80,212.0,0.489583,Eighth,A#2
1331,Right,0,72,80,213.0,0.739583,DottedEighth,C5
1332,Right,0,77,80,213.75,0.239583,Sixteenth,F5
1333,Left,1,60,80,214.0,1.989583,Half,F4_C4
1334,Right,0,81,80,214.0,1.739583,DottedQuarter,A5
1336,Left,1,69,80,214.75,0.239583,Sixteenth,A4
1337,Left,1,72,80,215.0,0.739583,DottedEighth,C5
1338,Right,0,77,80,215.75,0.239583,Sixteenth,F5
1339,Left,1,69,80,215.75,0.239583,Sixteenth,A4
1340,Left,1,60,80,216.0,0.989583,Quarter,C4_A#4
1342,Right,0,79,80,216.0,0.739583,DottedEighth,G5
1344,Right,0,76,80,216.75,0.239583,Sixteenth,E5
1343,Left,1,67,80,216.75,0.239583,Sixteenth,G4
1347,Right,0,77,80,217.0,0.989583,Quarter,F5
1345,Left,1,65,80,217.0,0.989583,Quarter,F4_A4
1348,Right,0,50,80,219.0,0.09375,TripletThirtySecond,D3
1349,Right,0,48,80,219.104167,0.135417,ThirtySecond,C3
1350,Right,0,47,80,219.25,0.239583,Sixteenth,B2
1351,Right,0,48,80,219.5,0.239583,Sixteenth,C3
1352,Right,0,52,80,219.75,0.239583,Sixteenth,E3
1353,Left,1,41,80,220.0,1.489583,DottedQuarter,F2_F1
1355,Right,0,55,80,220.0,0.489583,Eighth,G3
1356,Right,0,53,80,220.5,1.489583,DottedQuarter,F3
1357,Left,1,31,80,221.0,0.489583,Eighth,G1
1358,Right,0,45,80,221.0,0.489583,Eighth,A2
1359,Right,0,46,80,221.5,0.489583,Eighth,A#2
1360,Right,0,62,80,222.0,0.09375,TripletThirtySecond,D4
1361,Right,0,60,80,222.104167,0.135417,ThirtySecond,C4
1362,Right,0,59,80,222.25,0.239583,Sixteenth,B3
1363,Right,0,60,80,222.5,0.239583,Sixteenth,C4
1364,Right,0,64,80,222.75,0.239583,Sixteenth,E4
1365,Left,1,53,80,223.0,1.489583,DottedQuarter,F3_F2
1367,Right,0,67,80,223.0,0.489583,Eighth,G4
1368,Right,0,65,80,223.5,1.489583,DottedQuarter,F4
1370,Right,0,61,80,224.0,0.489583,Eighth,C#4
1369,Left,1,43,80,224.0,0.489583,Eighth,G2
1371,Right,0,62,80,224.5,0.489583,Eighth,D4
1372,Right,0,74,80,225.0,0.09375,TripletThirtySecond,D5
1373,Right,0,72,80,225.104167,0.135417,ThirtySecond,C5
1374,Right,0,71,80,225.25,0.239583,Sixteenth,B4
1375,Right,0,72,80,225.5,0.239583,Sixteenth,C5
1376,Right,0,76,80,225.75,0.239583,Sixteenth,E5
1378,Right,0,81,80,226.0,1.239583,TiedQuarter-Sixteenth,A5
1377,Left,1,60,80,226.0,1.989583,Half,G4_C4
1380,Left,1,65,80,226.145833,0.09375,TripletThirtySecond,F4
1381,Left,1,64,80,226.25,0.239583,Sixteenth,E4
1382,Left,1,65,80,226.5,0.239583,Sixteenth,F4
1383,Left,1,69,80,226.75,0.239583,Sixteenth,A4
1384,Left,1,72,80,227.0,0.739583,DottedEighth,C5
1385,Right,0,79,80,227.25,0.239583,Sixteenth,G5
1386,Right,0,81,80,227.5,0.239583,Sixteenth,A5
1388,Left,1,69,80,227.75,0.239583,Sixteenth,A4
1387,Right,0,77,80,227.75,0.239583,Sixteenth,F5
1391,Right,0,81,80,228.0,0.145833,TripletSixteenth,A5
1389,Left,1,60,80,228.0,0.989583,Quarter,C4_A#4
1392,Right,0,79,80,228.15625,0.083333,TripletThirtySecond,G5
1393,Right,0,78,80,228.25,0.239583,Sixteenth,F#5
1394,Right,0,79,80,228.5,0.239583,Sixteenth,G5
1396,Left,1,67,80,228.75,0.239583,Sixteenth,G4
1395,Right,0,76,80,228.75,0.239583,Sixteenth,E5
1398,Left,1,69,80,229.0,0.989583,Quarter,F4_A4
1397,Right,0,77,80,229.0,0.989583,Quarter,F5
1400,Right,0,53,80,231.0,0.739583,DottedEighth,F3
1401,Right,0,57,80,231.75,0.239583,Sixteenth,A3
1403,Right,0,61,80,232.0,0.989583,Quarter,C#4
1402,Left,1,41,80,232.0,2.989583,DottedHalf,F2
1405,Left,1,46,80,233.0,0.989583,Quarter,A#2
1404,Right,0,62,80,233.0,1.739583,DottedQuarter,D4
1406,Left,1,52,80,234.0,0.989583,Quarter,G2_E3
1408,Right,0,59,80,234.75,0.239583,Sixteenth,B3
1409,Left,1,45,80,235.0,1.489583,DottedQuarter,F2_A2
1411,Right,0,60,80,235.0,0.739583,DottedEighth,C4
1412,Right,0,57,80,235.75,0.239583,Sixteenth,A3
1414,Right,0,53,80,236.0,0.489583,Eighth,F3
1413,Left,1,48,80,236.0,0.489583,Eighth,C3
1415,Right,0,65,80,237.0,0.739583,DottedEighth,F4
1416,Right,0,69,80,237.75,0.239583,Sixteenth,A4
1417,Right,0,73,80,238.0,0.989583,Quarter,C#5
1418,Left,1,53,80,238.0,2.989583,DottedHalf,F3
1420,Left,1,58,80,239.0,0.989583,Quarter,A#3
1419,Right,0,74,80,239.0,1.739583,DottedQuarter,D5
1421,Left,1,64,80,240.0,0.989583,Quarter,G3_E4
1423,Right,0,71,80,240.75,0.239583,Sixteenth,B4
1425,Left,1,57,80,241.0,1.489583,DottedQuarter,F3_A3
1424,Right,0,72,80,241.0,0.739583,DottedEighth,C5
1427,Right,0,69,80,241.75,0.239583,Sixteenth,A4
1428,Left,1,60,80,242.0,0.489583,Eighth,C4
1429,Right,0,65,80,242.0,0.489583,Eighth,F4
1430,Right,0,77,80,243.0,0.739583,DottedEighth,F5
1431,Right,0,81,80,243.75,0.239583,Sixteenth,A5
1432,Right,0,85,80,244.0,0.989583,Quarter,C#6
1434,Left,1,70,80,245.0,1.739583,DottedQuarter,F4_A#4
1433,Right,0,86,80,245.0,1.739583,DottedQuarter,D6_D5
1437,Left,1,67,80,246.0,0.739583,DottedEighth,G4
1438,Right,0,74,80,246.75,0.239583,Sixteenth,D5_B5
1439,Left,1,65,80,246.75,0.239583,Sixteenth,G4_F4
1444,Left,1,67,80,247.0,0.739583,DottedEighth,G4_E4
1442,Right,0,72,80,247.0,0.739583,DottedEighth,C6_C5
1447,Left,1,65,80,247.75,0.239583,Sixteenth,F4_A4
1446,Right,0,72,80,247.75,0.239583,Sixteenth,C5_A5
1450,Left,1,62,80,248.0,0.989583,Quarter,F4_D4
1452,Right,0,82,80,248.0,1.739583,DottedQuarter,A#5_A#4
1454,Left,1,64,80,249.0,0.739583,DottedEighth,G4_E4
1458,Right,0,79,80,249.75,0.239583,Sixteenth,G5_A#4
1456,Left,1,65,80,249.75,0.239583,Sixteenth,F4_D4
1462,Left,1,61,80,250.0,0.739583,DottedEighth,E4_C#4
1460,Right,0,69,80,250.0,0.739583,DottedEighth,A5_A4
1464,Right,0,77,80,250.75,0.239583,Sixteenth,F5_A4
1466,Left,1,65,80,250.75,0.239583,Sixteenth,F4_D4
1468,Right,0,67,80,251.0,1.739583,Quarter,G5_G4
1470,Left,1,62,80,251.0,1.989583,DottedQuarter,D4_A#3
1472,Right,0,70,80,252.0,0.989583,Quarter,A#4
1474,Left,1,67,80,252.75,0.239583,Sixteenth,G4
1473,Right,0,74,80,252.75,0.239583,Sixteenth,D5
1475,Left,1,60,80,253.0,0.989583,Quarter,G4_C4
1476,Right,0,77,80,253.0,0.989583,ThirtySecond,F5_A#4
1479,Right,0,76,80,253.125,0.114583,ThirtySecond,E5
1480,Right,0,74,80,253.25,0.114583,ThirtySecond,D5
1481,Right,0,76,80,253.375,0.364583,DottedSixteenth,E5
1482,Right,0,79,80,253.75,0.239583,Sixteenth,G5
1483,Left,1,64,80,253.75,0.239583,Sixteenth,E4
1485,Left,1,65,80,254.0,0.489583,Eighth,F4_F3
1484,Right,0,77,80,254.0,0.489583,Eighth,F5_A4
1488,Right,0,55,80,255.0,0.145833,TripletSixteenth,G3
1489,Right,0,53,80,255.15625,0.083333,TripletThirtySecond,F3
1490,Right,0,52,80,255.25,0.239583,Sixteenth,E3
1491,Right,0,53,80,255.5,0.239583,Sixteenth,F3
1492,Right,0,57,80,255.75,0.239583,Sixteenth,A3
1493,Left,1,41,80,256.0,2.989583,DottedHalf,F2
1494,Right,0,61,80,256.0,0.489583,Eighth,C#4
1495,Right,0,62,80,256.5,0.989583,Quarter,D4
1496,Left,1,46,80,257.0,0.989583,Quarter,A#2
1497,Right,0,62,80,257.5,0.739583,DottedEighth,D4
1498,Left,1,43,80,258.0,0.989583,Quarter,G2_E3
1500,Right,0,61,80,258.25,0.239583,Sixteenth,C#4
1501,Right,0,62,80,258.5,0.239583,Sixteenth,D4
1502,Right,0,59,80,258.75,0.239583,Sixteenth,B3
1503,Right,0,62,80,259.0,0.09375,TripletThirtySecond,D4
1504,Left,1,41,80,259.0,1.489583,DottedQuarter,F2_A2
1506,Right,0,60,80,259.09375,0.15625,TripletSixteenth,C4
1507,Right,0,59,80,259.25,0.239583,Sixteenth,B3
1508,Right,0,60,80,259.5,0.239583,Sixteenth,C4
1509,Right,0,57,80,259.75,0.239583,Sixteenth,A3
1510,Right,0,53,80,260.0,0.239583,Sixteenth,F3
1511,Left,1,48,80,260.0,0.489583,Eighth,C3
1512,Right,0,64,80,260.25,0.239583,Sixteenth,E4
1513,Right,0,65,80,260.5,0.239583,Sixteenth,F4
1514,Right,0,64,80,260.75,0.239583,Sixteenth,E4
1515,Right,0,67,80,261.0,0.09375,TripletThirtySecond,G4
1516,Right,0,65,80,261.09375,0.15625,TripletSixteenth,F4
1517,Right,0,64,80,261.25,0.239583,Sixteenth,E4
1518,Right,0,65,80,261.5,0.239583,Sixteenth,F4
1519,Right,0,69,80,261.75,0.239583,Sixteenth,A4
1521,Right,0,73,80,262.0,0.239583,Sixteenth,C#5
1520,Left,1,53,80,262.0,2.989583,DottedHalf,F3
1522,Right,0,74,80,262.25,0.489583,Eighth,D5
1523,Right,0,74,80,262.75,0.489583,Eighth,D5
1524,Left,1,58,80,263.0,0.989583,Quarter,A#3
1525,Right,0,74,80,263.25,0.489583,Eighth,D5
1526,Right,0,74,80,263.75,0.489583,Eighth,D5
1527,Left,1,55,80,264.0,0.989583,Quarter,G3_E4
1529,Right,0,73,80,264.25,0.239583,Sixteenth,C#5
1530,Right,0,74,80,264.5,0.239583,Sixteenth,D5
1531,Right,0,71,80,264.75,0.239583,Sixteenth,B4
1532,Left,1,53,80,265.0,1.489583,DottedQuarter,F3_A3
1534,Right,0,74,80,265.0,0.09375,TripletThirtySecond,D5
1535,Right,0,72,80,265.09375,0.15625,TripletSixteenth,C5
1536,Right,0,71,80,265.25,0.239583,Sixteenth,B4
1537,Right,0,72,80,265.5,0.239583,Sixteenth,C5
1538,Right,0,69,80,265.75,0.239583,Sixteenth,A4
1539,Right,0,65,80,266.0,0.239583,Sixteenth,F4
1540,Left,1,60,80,266.0,0.489583,Eighth,C4
1541,Right,0,76,80,266.25,0.239583,Sixteenth,E5
1542,Right,0,77,80,266.5,0.239583,Sixteenth,F5
1543,Right,0,76,80,266.75,0.239583,Sixteenth,E5
1544,Right,0,79,80,267.0,0.09375,TripletThirtySecond,G5
1545,Right,0,77,80,267.09375,0.15625,TripletSixteenth,F5
1546,Right,0,76,80,267.25,0.239583,Sixteenth,E5
1547,Right,0,77,80,267.5,0.239583,Sixteenth,F5
1548,Right,0,81,80,267.75,0.239583,Sixteenth,A5
1549,Right,0,85,80,268.0,0.239583,Sixteenth,C#6
1550,Right,0,86,81,268.25,0.489583,Eighth,D6
1551,Right,0,86,83,268.75,0.489583,Eighth,D6
1552,Left,1,70,85,269.0,1.989583,DottedQuarter,F4_D5_A#4
1555,Right,0,86,86,269.25,0.489583,Eighth,D6
1556,Right,0,86,89,269.75,0.239583,Sixteenth,D6
1558,Right,0,88,90,270.0,0.09375,TripletThirtySecond,E6
1557,Left,1,67,90,270.0,0.739583,DottedEighth,G4
1559,Right,0,86,90,270.09375,0.15625,TripletSixteenth,D6
1560,Right,0,85,91,270.25,0.239583,Sixteenth,C#6
1561,Right,0,86,93,270.5,0.239583,Sixteenth,D6
1563,Left,1,65,94,270.75,0.239583,Sixteenth,G4_F4
1562,Right,0,83,94,270.75,0.239583,Sixteenth,B5
1566,Left,1,67,95,271.0,0.989583,DottedEighth,G4_E4_C5
1565,Right,0,86,95,271.0,0.09375,TripletThirtySecond,D6
1569,Right,0,84,96,271.09375,0.15625,TripletSixteenth,C6
1570,Right,0,83,96,271.25,0.239583,Sixteenth,B5
1571,Right,0,84,98,271.5,0.239583,Sixteenth,C6
1572,Left,1,69,99,271.75,0.239583,Sixteenth,F4_A4
1574,Right,0,81,99,271.75,0.239583,Sixteenth,A5
1575,Right,0,82,100,272.0,0.239583,Sixteenth,A#5
1576,Left,1,65,100,272.0,1.989583,Quarter,F4_D4_A#4
1579,Right,0,82,102,272.25,0.489583,Eighth,A#5
1580,Right,0,82,104,272.75,0.239583,Sixteenth,A#5
1582,Left,1,67,106,273.0,0.739583,DottedEighth,G4_E4
1581,Right,0,84,106,273.0,0.09375,TripletThirtySecond,C6
1584,Right,0,82,106,273.09375,0.15625,TripletSixteenth,A#5
1585,Right,0,81,107,273.25,0.239583,Sixteenth,A5
1586,Right,0,82,108,273.5,0.239583,Sixteenth,A#5
1589,Right,0,80,109,273.75,0.239583,Sixteenth,G#5
1587,Left,1,62,109,273.75,0.239583,Sixteenth,F4_D4
1590,Right,0,82,110,274.0,0.09375,TripletThirtySecond,A#5
1591,Left,1,69,110,274.0,0.989583,DottedEighth,E4_C#4_A4
1594,Right,0,81,110,274.09375,0.15625,TripletSixteenth,A5
1595,Right,0,80,110,274.25,0.239583,Sixteenth,G#5
1596,Right,0,81,110,274.5,0.239583,Sixteenth,A5
1599,Right,0,77,110,274.75,0.239583,Sixteenth,F5
1597,Left,1,62,110,274.75,0.239583,Sixteenth,F4_D4
1600,Left,1,62,110,275.0,1.989583,Quarter,G4_D4_A#3
1602,Right,0,79,110,275.0,0.239583,Sixteenth,G5
1604,Right,0,79,110,275.25,0.489583,Eighth,G5
1605,Right,0,79,110,275.75,0.239583,Sixteenth,G5
1606,Right,0,81,100,276.0,0.09375,TripletThirtySecond,A5
1607,Left,1,62,100,276.0,0.739583,DottedEighth,D4
1608,Right,0,79,99,276.09375,0.15625,TripletSixteenth,G5
1609,Right,0,78,97,276.25,0.239583,Sixteenth,F#5
1610,Right,0,79,94,276.5,0.239583,Sixteenth,G5
1612,Right,0,74,91,276.75,0.239583,Sixteenth,D5
1611,Left,1,67,91,276.75,0.239583,Sixteenth,G4
1613,Left,1,60,80,277.0,0.989583,Quarter,G4_C4
1615,Right,0,70,80,277.0,0.989583,Quarter,F5_A#4
1617,Right,0,76,80,277.09375,0.15625,TripletSixteenth,E5
1618,Right,0,74,80,277.25,0.239583,Sixteenth,D5
1619,Right,0,76,80,277.5,0.239583,Sixteenth,E5
1621,Left,1,64,80,277.75,0.239583,Sixteenth,E4
1620,Right,0,79,80,277.75,0.239583,Sixteenth,G5
1622,Left,1,53,80,278.0,0.489583,Eighth,F4_F3
1623,Right,0,77,80,278.0,0.489583,Eighth,F5_A4
1626,Left,1,48,110,279.0,0.322917,Triplet,C3_C2
1628,Left,1,48,110,279.333333,0.322917,Triplet,C4_C3
1630,Left,1,59,110,279.666667,0.322917,Triplet,B3_B2
1632,Left,1,60,110,280.0,0.322917,Triplet,C4_C3
1634,Left,1,58,110,280.333333,0.322917,Triplet,A#3_A#2
1636,Left,1,45,110,280.666667,0.322917,Triplet,A3_A2
1638,Left,1,43,110,281.0,0.322917,Triplet,G3_G2
1640,Left,1,45,110,281.333333,0.322917,Triplet,A3_A2
1642,Left,1,46,110,281.666667,0.322917,Triplet,A#3_A#2
1646,Right,0,60,110,282.0,0.322917,Triplet,C5_C4
1644,Left,1,45,110,282.0,0.322917,Triplet,A3_A2
1648,Left,1,57,110,282.333333,0.322917,Triplet,A3_A2
1650,Right,0,84,110,282.333333,0.322917,Triplet,C6_C5
1652,Right,0,83,110,282.666667,0.322917,Triplet,B5_B4
1654,Left,1,56,110,282.666667,0.322917,Triplet,G#3_G#2
1656,Right,0,84,110,283.0,0.322917,Triplet,C6_C5
1658,Left,1,57,110,283.0,0.322917,Triplet,A3_A2
1661,Left,1,58,110,283.333333,0.322917,Triplet,A#3_A#2
1660,Right,0,70,110,283.333333,0.322917,Triplet,A#5_A#4
1666,Left,1,48,110,283.666667,0.322917,Triplet,C4_C3
1664,Right,0,69,110,283.666667,0.322917,Triplet,A5_A4
1668,Left,1,46,110,284.0,0.322917,Triplet,A#3_A#2
1670,Right,0,67,110,284.0,0.322917,Triplet,G5_G4
1672,Left,1,45,110,284.333333,0.322917,Triplet,A3_A2
1674,Right,0,69,110,284.333333,0.322917,Triplet,A5_A4
1676,Left,1,43,110,284.666667,0.322917,Triplet,G3_G2
1678,Right,0,70,110,284.666667,0.322917,Triplet,A#5_A#4
1680,Left,1,41,110,285.0,0.322917,Triplet,F3_F2
1681,Right,0,81,110,285.0,0.322917,Triplet,A5_A4
1686,Left,1,55,110,285.333333,0.322917,Triplet,G3_G2
1684,Right,0,67,110,285.333333,0.322917,Triplet,G5_G4
1689,Left,1,57,110,285.666667,0.322917,Triplet,A3_A2
1688,Right,0,77,110,285.666667,0.322917,Triplet,F5_F4
1692,Right,0,64,110,286.0,0.322917,Triplet,E5_E4
1693,Left,1,55,110,286.0,0.322917,Triplet,G3_G2
1698,Right,0,65,110,286.333333,0.322917,Triplet,F5_F4
1696,Left,1,53,110,286.333333,0.322917,Triplet,F3_F2
1702,Right,0,67,110,286.666667,0.322917,Triplet,G5_G4
1700,Left,1,40,110,286.666667,0.322917,Triplet,E3_E2
1705,Left,1,50,110,287.0,0.322917,Triplet,D3_D2
1704,Right,0,77,110,287.0,0.322917,Triplet,F5_F4
1708,Right,0,76,110,287.333333,0.322917,Triplet,E5_E4
1709,Left,1,52,110,287.333333,0.322917,Triplet,E3_E2
1712,Right,0,74,110,287.666667,0.322917,Triplet,D5_D4
1714,Left,1,53,110,287.666667,0.322917,Triplet,F3_F2
1718,Left,1,52,110,288.0,0.322917,Triplet,E3_E2
1716,Right,0,73,110,288.0,0.322917,Triplet,C#5_C#4
1720,Left,1,50,110,288.333333,0.322917,Triplet,D3_D2
1721,Right,0,74,110,288.333333,0.322917,Triplet,D5_D4
1725,Right,0,76,110,288.666667,0.322917,Triplet,E5_E4
1724,Left,1,48,110,288.666667,0.322917,Triplet,C3_C2
1728,Right,0,62,110,289.0,0.322917,Triplet,D5_D4
1729,Left,1,34,110,289.0,0.322917,Triplet,A#2_A#1
1734,Left,1,33,110,289.333333,0.322917,Triplet,A2_A1
1732,Right,0,60,110,289.333333,0.322917,Triplet,C5_C4
1736,Right,0,70,110,289.666667,0.322917,Triplet,A#4_A#3
1737,Left,1,46,110,289.666667,0.322917,Triplet,A#2_A#1
1742,Left,1,47,110,290.0,0.322917,Triplet,B2_B1
1740,Right,0,57,110,290.0,0.322917,Triplet,A4_A3
1746,Left,1,45,110,290.333333,0.322917,Triplet,A2_A1
1744,Right,0,67,110,290.333333,0.322917,Triplet,G4_G3
1748,Right,0,65,110,290.666667,0.322917,Triplet,F4_F3
1750,Left,1,47,110,290.666667,0.322917,Triplet,B2_B1
1753,Left,1,48,110,291.0,0.489583,Eighth,C3_C2
1752,Right,0,64,110,291.0,0.322917,Triplet,E4_E3
1756,Right,0,65,110,291.333333,0.322917,Triplet,F4_F3
1758,Right,0,62,110,291.666667,0.322917,Triplet,D4_D3
1760,Right,0,48,110,292.0,0.322917,Triplet,C4_C3
1762,Right,0,50,110,292.333333,0.322917,Triplet,D4_D3
1764,Right,0,64,110,292.666667,0.322917,Triplet,E4_E3
1766,Right,0,65,110,293.0,0.322917,Triplet,F4_F3
1768,Right,0,55,110,293.333333,0.322917,Triplet,G4_G3
1770,Right,0,64,110,293.666667,0.322917,Triplet,E4_E3
1772,Right,0,50,110,294.0,0.322917,Triplet,D4_D3
1774,Right,0,64,110,294.333333,0.322917,Triplet,E4_E3
1776,Right,0,53,110,294.666667,0.322917,Triplet,F4_F3
1778,Left,1,52,110,295.0,0.322917,Triplet,E3_E2
1780,Right,0,55,110,295.0,0.322917,Triplet,G4_G3
1784,Right,0,57,110,295.333333,0.322917,Triplet,A4_A3
1782,Left,1,41,110,295.333333,0.322917,Triplet,F3_F2
1786,Left,1,38,110,295.666667,0.322917,Triplet,D3_D2
1788,Right,0,65,110,295.666667,0.322917,Triplet,F4_F3
1791,Left,1,48,110,296.0,0.322917,Triplet,C3_C2
1790,Right,0,64,110,296.0,0.322917,Triplet,E4_E3
1796,Left,1,50,110,296.333333,0.322917,Triplet,D3_D2
1794,Right,0,53,110,296.333333,0.322917,Triplet,F4_F3
1798,Right,0,55,110,296.666667,0.322917,Triplet,G4_G3
1799,Left,1,40,110,296.666667,0.322917,Triplet,E3_E2
1803,Left,1,41,110,297.0,0.322917,Triplet,F3_F2
1802,Right,0,57,110,297.0,0.322917,Triplet,A4_A3
1806,Right,0,58,110,297.333333,0.322917,Triplet,A#4_A#3
1808,Left,1,43,110,297.333333,0.322917,Triplet,G3_G2
1811,Left,1,40,110,297.666667,0.322917,Triplet,E3_E2
1810,Right,0,55,110,297.666667,0.322917,Triplet,G4_G3
1814,Right,0,65,110,298.0,0.322917,Triplet,F4_F3
1815,Left,1,38,110,298.0,0.322917,Triplet,D3_D2
1818,Left,1,40,110,298.333333,0.322917,Triplet,E3_E2
1819,Right,0,67,110,298.333333,0.322917,Triplet,G4_G3
1823,Right,0,69,110,298.666667,0.322917,Triplet,A4_A3
1822,Left,1,41,110,298.666667,0.322917,Triplet,F3_F2
1826,Left,1,43,110,299.0,0.322917,Triplet,G3_G2
1827,Right,0,70,110,299.0,0.322917,Triplet,A#4_A#3
1831,Right,0,60,110,299.333333,0.322917,Triplet,C5_C4
1830,Left,1,45,110,299.333333,0.322917,Triplet,A3_A2
1834,Right,0,62,110,299.666667,0.322917,Triplet,D5_D4
1836,Left,1,46,110,299.666667,0.322917,Triplet,A#3_A#2
1840,Left,1,48,110,300.0,0.322917,Triplet,C4_C3
1838,Right,0,76,110,300.0,0.322917,Triplet,E5_E4
1842,Right,0,77,110,300.333333,0.322917,Triplet,F5_F4
1844,Left,1,50,110,300.333333,0.322917,Triplet,D4_D3
1847,Right,0,67,110,300.666667,0.322917,Triplet,G5_G4
1846,Left,1,52,110,300.666667,0.322917,Triplet,E4_E3
1852,Left,1,65,110,301.0,0.322917,Triplet,F4_F3
1850,Right,0,81,110,301.0,0.322917,Triplet,A5_A4
1854,Right,0,82,110,301.333333,0.322917,Triplet,A#5_A#4
1856,Left,1,67,110,301.333333,0.322917,Triplet,G4_G3
1858,Right,0,70,80,301.666667,0.322917,Triplet,A#5_A#4
1859,Left,1,64,80,301.666667,0.322917,Triplet,E4
1862,Left,1,60,80,302.0,0.322917,Triplet,C4
1861,Right,0,70,80,302.0,0.322917,Triplet,A#5_A#4
1866,Left,1,55,80,302.333333,0.322917,Triplet,G3
1864,Right,0,70,80,302.333333,0.322917,Triplet,A#5_A#4
1868,Left,1,52,80,302.666667,0.322917,Triplet,E3
1867,Right,0,70,80,302.666667,0.322917,Triplet,A#5_A#4
1872,Left,1,48,80,303.0,0.322917,Triplet,C3
1870,Right,0,82,80,303.0,0.322917,Triplet,A#5_A#4
1875,Left,1,43,80,303.333333,0.322917,Triplet,G2
1873,Right,0,82,80,303.333333,0.322917,Triplet,A#5_A#4
1876,Left,1,40,80,303.666667,0.322917,Triplet,E2
1877,Right,0,70,80,303.666667,0.322917,Triplet,A#5_A#4
1879,Right,0,79,120,304.0,0.322917,Triplet,G5_E5_A#5_A#4
1880,Left,1,36,120,304.0,0.322917,Triplet,C2
1888,Left,1,40,120,304.333333,0.322917,Triplet,E2
1884,Right,0,82,120,304.333333,0.322917,Triplet,G5_E5_A#5_A#4
1890,Left,1,43,120,304.666667,0.322917,Triplet,G2
1889,Right,0,70,120,304.666667,0.322917,Triplet,G5_E5_A#5_A#4
1894,Right,0,82,120,305.0,0.322917,Triplet,G5_E5_A#5_A#4
1898,Left,1,48,120,305.0,0.322917,Triplet,C3
1899,Left,1,43,120,305.333333,0.322917,Triplet,G2
1900,Right,0,82,120,305.333333,0.322917,Triplet,G5_E5_A#5_A#4
1908,Left,1,40,120,305.666667,0.322917,Triplet,E2
1904,Right,0,82,120,305.666667,0.322917,Triplet,G5_E5_A#5_A#4
1909,Right,0,82,120,306.0,0.322917,Triplet,G5_E5_A#5_A#4
1913,Left,1,36,120,306.0,0.322917,Triplet,C2
1917,Left,1,40,120,306.333333,0.322917,Triplet,E2
1914,Right,0,70,120,306.333333,0.322917,Triplet,G5_E5_A#5_A#4
1920,Right,0,76,120,306.666667,0.322917,Triplet,G5_E5_A#5_A#4
1919,Left,1,43,120,306.666667,0.322917,Triplet,G2
1924,Right,0,82,120,307.0,2.989583,DottedHalf,G5_E5_A#5_A#4
1925,Left,1,36,120,307.0,2.989583,DottedHalf,C3_C2
1930,Left,1,34,80,310.0,0.322917,Triplet,A#1
1931,Left,1,40,80,310.333333,0.322917,Triplet,E2
1932,Left,1,43,80,310.666667,0.322917,Triplet,G2
1936,Left,1,46,80,311.0,0.322917,Triplet,A#2
1933,Right,0,52,80,311.0,0.322917,Triplet,G3_E3_C4_C3
1938,Right,0,60,80,311.333333,0.322917,Triplet,G3_E3_C4_C3
1942,Left,1,43,80,311.333333,0.322917,Triplet,G2
1943,Left,1,40,80,311.666667,0.322917,Triplet,E2
1944,Right,0,48,80,311.666667,0.322917,Triplet,G3_E3_C4_C3
1948,Right,0,48,80,312.0,0.322917,Triplet,G3_E3_C4_C3
1951,Left,1,34,80,312.0,0.322917,Triplet,A#1
1957,Left,1,40,80,312.333333,0.322917,Triplet,E2
1953,Right,0,48,80,312.333333,0.322917,Triplet,G3_E3_C4_C3
1961,Left,1,43,80,312.666667,0.322917,Triplet,G2
1958,Right,0,55,80,312.666667,0.322917,Triplet,G3_E3_C4_C3
1963,Right,0,48,80,313.0,1.989583,Half,G3_E3_C4_C3
1967,Left,1,46,80,313.0,1.989583,Half,A#2_A#1
1969,Right,0,48,80,315.0,0.739583,DottedEighth,C3
1970,Right,0,52,80,315.75,0.239583,Sixteenth,E3
1973,Right,0,48,80,316.0,1.989583,Quarter,F3_C3
1971,Left,1,33,80,316.0,1.489583,Quarter,F2_A1
1976,Right,0,50,80,317.0,0.489583,Eighth,D3
1975,Left,1,34,80,317.0,0.489583,Eighth,A#1
1977,Right,0,60,80,318.0,0.739583,DottedEighth,C4
1978,Right,0,64,80,318.75,0.239583,Sixteenth,E4
1979,Left,1,48,80,319.0,1.489583,Quarter,F3_C3
1980,Right,0,57,80,319.0,1.989583,Quarter,F4_A3
1983,Left,1,49,80,320.0,0.489583,Eighth,C#3
1984,Right,0,58,80,320.0,0.489583,Eighth,A#3
1985,Right,0,72,80,321.0,0.739583,DottedEighth,C5
1986,Right,0,77,80,321.75,0.239583,Sixteenth,F5
1987,Left,1,65,80,322.0,1.989583,DottedEighth,F4_C4
1989,Right,0,81,80,322.0,1.739583,DottedQuarter,A5
1990,Left,1,69,80,322.75,0.239583,Sixteenth,A4
1991,Left,1,72,80,323.0,0.739583,DottedEighth,C5
1992,Right,0,77,80,323.75,0.239583,Sixteenth,F5
1993,Left,1,69,80,323.75,0.239583,Sixteenth,A4
1995,Left,1,60,80,324.0,0.989583,Quarter,C4_A#4
1994,Right,0,79,80,324.0,0.739583,DottedEighth,G5
1998,Left,1,67,80,324.75,0.239583,Sixteenth,G4
1997,Right,0,76,80,324.75,0.239583,Sixteenth,E5
1999,Right,0,77,80,325.0,0.989583,Quarter,F5
2000,Left,1,69,80,325.0,0.989583,Quarter,F4_A4
2002,Right,0,50,80,327.0,0.09375,TripletThirtySecond,D3
2003,Right,0,48,80,327.09375,0.15625,TripletSixteenth,C3
2004,Right,0,47,80,327.25,0.239583,Sixteenth,B2
2005,Right,0,48,80,327.5,0.239583,Sixteenth,C3
2006,Right,0,52,80,327.75,0.239583,Sixteenth,E3
2009,Right,0,55,80,328.0,0.239583,Sixteenth,G3
2007,Left,1,33,80,328.0,1.489583,Quarter,F2_A1
2010,Right,0,53,80,328.25,0.239583,Sixteenth,F3
2011,Right,0,52,80,328.5,0.239583,Sixteenth,E3
2012,Right,0,53,80,328.75,1.239583,TiedQuarter-Sixteenth,F3
2014,Left,1,34,80,329.0,0.489583,Eighth,A#1
2013,Right,0,49,80,329.0,0.239583,Sixteenth,C#3
2015,Right,0,50,80,329.25,0.239583,Sixteenth,D3
2016,Right,0,49,80,329.5,0.239583,Sixteenth,C#3
2017,Right,0,50,80,329.75,0.239583,Sixteenth,D3
2018,Right,0,62,80,330.0,0.09375,TripletThirtySecond,D4
2019,Right,0,60,80,330.09375,0.15625,TripletSixteenth,C4
2020,Right,0,59,80,330.25,0.239583,Sixteenth,B3
2021,Right,0,60,80,330.5,0.239583,Sixteenth,C4
2022,Right,0,64,80,330.75,0.239583,Sixteenth,E4
2023,Left,1,53,80,331.0,1.489583,DottedQuarter,F3_C3
2024,Right,0,67,80,331.0,0.239583,Sixteenth,G4
2026,Right,0,65,80,331.25,0.239583,Sixteenth,F4
2027,Right,0,64,80,331.5,0.239583,Sixteenth,E4
2028,Right,0,65,80,331.75,1.239583,TiedQuarter-Sixteenth,F4
2029,Right,0,57,80,332.0,0.239583,Sixteenth,A3
2030,Left,1,49,80,332.0,0.489583,Eighth,C#3
2031,Right,0,58,80,332.25,0.239583,Sixteenth,A#3
2032,Right,0,57,80,332.5,0.239583,Sixteenth,A3
2033,Right,0,58,80,332.75,0.239583,Sixteenth,A#3
2034,Right,0,74,80,333.0,0.09375,TripletThirtySecond,D5
2035,Right,0,72,80,333.09375,0.15625,TripletSixteenth,C5
2036,Right,0,71,80,333.25,0.239583,Sixteenth,B4
2037,Right,0,72,80,333.5,0.239583,Sixteenth,C5
2038,Right,0,77,80,333.75,0.239583,Sixteenth,F5
2039,Right,0,81,80,334.0,1.239583,TiedQuarter-Sixteenth,A5
2040,Left,1,67,80,334.0,1.989583,TripletThirtySecond,G4_C4
2042,Left,1,65,80,334.09375,0.15625,TripletSixteenth,F4
2043,Left,1,64,80,334.25,0.239583,Sixteenth,E4
2044,Left,1,65,80,334.5,0.239583,Sixteenth,F4
2045,Left,1,69,80,334.75,0.239583,Sixteenth,A4
2046,Left,1,72,80,335.0,0.239583,Sixteenth,C5
2048,Right,0,80,80,335.25,0.239583,Sixteenth,G#5
2047,Left,1,71,80,335.25,0.239583,Sixteenth,B4
2050,Right,0,81,80,335.5,0.239583,Sixteenth,A5
2049,Left,1,72,80,335.5,0.239583,Sixteenth,C5
2052,Right,0,77,80,335.75,0.239583,Sixteenth,F5
2051,Left,1,69,80,335.75,0.239583,Sixteenth,A4
2053,Left,1,70,80,336.0,0.989583,Sixteenth,C4_A#4
2055,Right,0,81,80,336.0,0.09375,TripletThirtySecond,A5
2056,Right,0,79,80,336.09375,0.15625,TripletSixteenth,G5
2057,Left,1,69,80,336.25,0.239583,Sixteenth,A4
2058,Right,0,78,80,336.25,0.239583,Sixteenth,F#5
2060,Right,0,79,80,336.5,0.239583,Sixteenth,G5
2059,Left,1,70,80,336.5,0.239583,Sixteenth,A#4
2061,Left,1,67,80,336.75,0.239583,Sixteenth,G4
2062,Right,0,76,80,336.75,0.239583,Sixteenth,E5
2063,Right,0,69,80,337.0,0.989583,Quarter,F5_A4
2065,Left,1,65,80,337.0,0.239583,Sixteenth,F4
2066,Left,1,60,80,337.25,0.239583,Sixteenth,C4
2067,Left,1,57,80,337.5,0.239583,Sixteenth,A3
2068,Left,1,60,80,337.75,0.239583,Sixteenth,C4
2069,Left,1,53,80,338.0,0.239583,Sixteenth,F3
2070,Left,1,48,80,338.25,0.239583,Sixteenth,C3
2071,Left,1,45,80,338.5,0.239583,Sixteenth,A2
2072,Left,1,48,80,338.75,0.239583,Sixteenth,C3
2073,Left,1,41,80,339.0,0.489583,Eighth,F2
2074,Right,0,53,80,339.0,0.114583,ThirtySecond,F3
2075,Right,0,55,80,339.125,0.114583,ThirtySecond,G3
2076,Right,0,53,80,339.25,0.114583,ThirtySecond,F3
2077,Right,0,52,80,339.375,0.114583,ThirtySecond,E3
2078,Right,0,50,80,339.5,0.114583,ThirtySecond,D3
2079,Right,0,52,80,339.625,0.114583,ThirtySecond,E3
2080,Right,0,53,80,339.75,0.114583,ThirtySecond,F3
2081,Right,0,57,80,339.875,0.114583,ThirtySecond,A3
2082,Right,0,61,80,340.0,0.989583,Quarter,C#4
2083,Left,1,41,80,340.0,2.989583,DottedHalf,F2
2084,Left,1,46,80,341.0,0.989583,Quarter,A#2
2085,Right,0,62,80,341.0,1.739583,DottedQuarter,D4
2086,Left,1,43,80,342.0,0.989583,Quarter,G2_E3
2088,Right,0,59,80,342.75,0.239583,Sixteenth,B3
2089,Left,1,45,80,343.0,1.489583,DottedQuarter,F2_A2
2091,Right,0,60,80,343.0,0.739583,DottedEighth,C4
2092,Right,0,57,80,343.75,0.239583,Sixteenth,A3
2094,Left,1,48,80,344.0,0.489583,Eighth,C3
2093,Right,0,53,80,344.0,0.489583,Eighth,F3
2095,Right,0,67,80,345.0,0.09375,TripletThirtySecond,G4
2096,Right,0,65,80,345.09375,0.15625,TripletSixteenth,F4
2097,Right,0,64,80,345.25,0.239583,Sixteenth,E4
2098,Right,0,65,80,345.5,0.239583,Sixteenth,F4
2099,Right,0,69,80,345.75,0.239583,Sixteenth,A4
2100,Left,1,53,80,346.0,2.989583,DottedHalf,F3
2101,Right,0,73,80,346.0,0.489583,Eighth,C#5
2102,Right,0,74,80,346.5,0.989583,Quarter,D5
2103,Left,1,58,80,347.0,0.989583,Quarter,A#3
2104,Right,0,74,80,347.5,0.739583,DottedEighth,D5
2105,Left,1,64,80,348.0,0.989583,Quarter,G3_E4
2107,Right,0,73,80,348.25,0.239583,Sixteenth,C#5
2108,Right,0,74,80,348.5,0.239583,Sixteenth,D5
2109,Right,0,71,80,348.75,0.239583,Sixteenth,B4
2110,Left,1,53,80,349.0,1.489583,DottedQuarter,F3_A3
2111,Right,0,74,80,349.0,0.09375,TripletThirtySecond,D5
2113,Right,0,72,80,349.09375,0.15625,TripletSixteenth,C5
2114,Right,0,71,80,349.25,0.239583,Sixteenth,B4
2115,Right,0,72,80,349.5,0.239583,Sixteenth,C5
2116,Right,0,69,80,349.75,0.239583,Sixteenth,A4
2118,Right,0,65,80,350.0,0.239583,Sixteenth,F4
2117,Left,1,60,80,350.0,0.489583,Eighth,C4
2119,Right,0,76,80,350.25,0.239583,Sixteenth,E5
2120,Right,0,77,80,350.5,0.239583,Sixteenth,F5
2121,Right,0,76,80,350.75,0.239583,Sixteenth,E5
2122,Right,0,79,80,351.0,0.09375,TripletThirtySecond,G5
2123,Right,0,77,80,351.09375,0.15625,TripletSixteenth,F5
2124,Right,0,76,80,351.25,0.239583,Sixteenth,E5
2125,Right,0,77,80,351.5,0.239583,Sixteenth,F5
2126,Right,0,81,80,351.75,0.239583,Sixteenth,A5
2127,Right,0,85,80,352.0,0.239583,Sixteenth,C#6
2128,Right,0,86,81,352.25,0.239583,Sixteenth,D6
2129,Right,0,86,82,352.5,0.239583,Sixteenth,D6
2130,Right,0,86,83,352.75,0.239583,Sixteenth,D6
2132,Right,0,86,85,353.0,0.239583,Sixteenth,D6
2131,Left,1,65,85,353.0,1.989583,Quarter,F4_D5_A#4
2135,Right,0,86,86,353.25,0.239583,Sixteenth,D6
2136,Right,0,86,87,353.5,0.239583,Sixteenth,D6
2137,Right,0,86,89,353.75,0.239583,Sixteenth,D6
2138,Left,1,67,90,354.0,0.739583,DottedEighth,G4
2139,Right,0,88,90,354.0,0.09375,TripletThirtySecond,E6
2140,Right,0,86,90,354.09375,0.15625,TripletSixteenth,D6
2141,Right,0,85,91,354.25,0.239583,Sixteenth,C#6
2142,Right,0,86,93,354.5,0.239583,Sixteenth,D6
2145,Right,0,83,94,354.75,0.239583,Sixteenth,B5
2143,Left,1,67,94,354.75,0.239583,Sixteenth,G4_F4
2149,Right,0,86,95,355.0,0.09375,TripletThirtySecond,D6
2146,Left,1,67,95,355.0,0.989583,DottedEighth,G4_E4_C5
2150,Right,0,84,96,355.09375,0.15625,TripletSixteenth,C6
2151,Right,0,83,96,355.25,0.239583,Sixteenth,B5
2152,Right,0,84,98,355.5,0.239583,Sixteenth,C6
2153,Right,0,81,99,355.75,0.239583,Sixteenth,A5
2154,Left,1,69,99,355.75,0.239583,Sixteenth,F4_A4
2156,Right,0,82,100,356.0,0.239583,Sixteenth,A#5
2157,Left,1,65,100,356.0,1.989583,Quarter,F4_D4_A#4
2160,Right,0,82,102,356.25,0.239583,Sixteenth,A#5
2161,Right,0,82,103,356.5,0.239583,Sixteenth,A#5
2162,Right,0,82,104,356.75,0.239583,Sixteenth,A#5
2163,Left,1,67,106,357.0,0.739583,DottedEighth,G4_E4
2164,Right,0,84,106,357.0,0.09375,TripletThirtySecond,C6
2166,Right,0,82,106,357.09375,0.15625,TripletSixteenth,A#5
2167,Right,0,81,107,357.25,0.239583,Sixteenth,A5
2168,Right,0,82,108,357.5,0.239583,Sixteenth,A#5
2171,Right,0,80,109,357.75,0.239583,Sixteenth,G#5
2169,Left,1,62,109,357.75,0.239583,Sixteenth,F4_D4
2172,Right,0,82,110,358.0,0.09375,TripletThirtySecond,A#5
2173,Left,1,69,110,358.0,0.989583,DottedEighth,E4_C#4_A4
2176,Right,0,81,110,358.09375,0.15625,TripletSixteenth,A5
2177,Right,0,80,110,358.25,0.239583,Sixteenth,G#5
2178,Right,0,81,110,358.5,0.239583,Sixteenth,A5
2180,Left,1,65,110,358.75,0.239583,Sixteenth,F4_D4
2179,Right,0,77,110,358.75,0.239583,Sixteenth,F5
2182,Left,1,58,110,359.0,1.989583,Quarter,G4_D4_A#3
2184,Right,0,79,110,359.0,0.239583,Sixteenth,G5
2186,Right,0,79,110,359.25,0.239583,Sixteenth,G5
2187,Right,0,79,110,359.5,0.239583,Sixteenth,G5
2188,Right,0,79,110,359.75,0.239583,Sixteenth,G5
2189,Right,0,81,100,360.0,0.09375,TripletThirtySecond,A5
2190,Left,1,62,100,360.0,0.739583,DottedEighth,D4
2191,Right,0,79,99,360.09375,0.15625,TripletSixteenth,G5
2192,Right,0,78,97,360.25,0.239583,Sixteenth,F#5
2193,Right,0,79,94,360.5,0.239583,Sixteenth,G5
2194,Left,1,67,91,360.75,0.239583,Sixteenth,G4
2195,Right,0,74,91,360.75,0.239583,Sixteenth,D5
2196,Right,0,77,80,361.0,0.989583,TripletThirtySecond,F5_A#4
2197,Left,1,67,80,361.0,0.989583,DottedEighth,G4_C4
2200,Right,0,76,80,361.09375,0.15625,TripletSixteenth,E5
2201,Right,0,74,80,361.25,0.239583,Sixteenth,D5
2202,Right,0,76,80,361.5,0.239583,Sixteenth,E5
2203,Right,0,79,80,361.75,0.239583,Sixteenth,G5
2204,Left,1,64,80,361.75,0.239583,Sixteenth,E4
2207,Right,0,77,80,362.0,0.489583,Eighth,F5_A4
2205,Left,1,65,80,362.0,0.489583,Eighth,F4_F3
2209,Right,0,53,80,363.0,0.114583,ThirtySecond,F3
2210,Right,0,55,80,363.125,0.114583,ThirtySecond,G3
2211,Right,0,53,80,363.25,0.114583,ThirtySecond,F3
2212,Right,0,52,80,363.375,0.114583,ThirtySecond,E3
2213,Right,0,53,80,363.5,0.083333,TripletThirtySecond,F3
2214,Right,0,55,80,363.59375,0.083333,TripletThirtySecond,G3
2215,Right,0,57,80,363.6875,0.09375,TripletThirtySecond,A3
2216,Right,0,58,80,363.791667,0.09375,TripletThirtySecond,A#3
2217,Right,0,60,80,363.90625,0.09375,TripletThirtySecond,C4
2218,Left,1,41,80,364.0,2.989583,DottedHalf,F2
2219,Right,0,61,80,364.0,0.239583,Sixteenth,C#4
2220,Right,0,62,80,364.25,0.239583,Sixteenth,D4
2221,Right,0,62,80,364.5,0.239583,Sixteenth,D4
2222,Right,0,62,80,364.75,0.239583,Sixteenth,D4
2224,Right,0,62,80,365.0,0.239583,Sixteenth,D4
2223,Left,1,46,80,365.0,0.989583,Quarter,A#2
2225,Right,0,62,80,365.25,0.239583,Sixteenth,D4
2226,Right,0,62,80,365.5,0.239583,Sixteenth,D4
2227,Right,0,62,80,365.75,0.239583,Sixteenth,D4
2229,Left,1,43,80,366.0,0.989583,Quarter,G2_E3
2228,Right,0,64,80,366.0,0.09375,TripletThirtySecond,E4
2231,Right,0,62,80,366.09375,0.15625,TripletSixteenth,D4
2232,Right,0,60,80,366.25,0.239583,Sixteenth,C4
2233,Right,0,62,80,366.5,0.239583,Sixteenth,D4
2234,Right,0,59,80,366.75,0.239583,Sixteenth,B3
2235,Right,0,62,80,367.0,0.09375,TripletThirtySecond,D4
2236,Left,1,45,80,367.0,1.489583,DottedQuarter,F2_A2
2238,Right,0,60,80,367.09375,0.15625,TripletSixteenth,C4
2239,Right,0,59,80,367.25,0.239583,Sixteenth,B3
2240,Right,0,60,80,367.5,0.239583,Sixteenth,C4
2241,Right,0,57,80,367.75,0.239583,Sixteenth,A3
2243,Right,0,53,80,368.0,0.15625,TripletSixteenth,F3
2242,Left,1,48,80,368.0,0.489583,Eighth,C3
2244,Right,0,55,80,368.166667,0.15625,TripletSixteenth,G3
2245,Right,0,57,80,368.333333,0.15625,TripletSixteenth,A3
2246,Right,0,58,80,368.5,0.15625,TripletSixteenth,A#3
2247,Right,0,60,80,368.666667,0.15625,TripletSixteenth,C4
2248,Right,0,62,80,368.833333,0.15625,TripletSixteenth,D4
2249,Right,0,64,80,369.0,0.15625,TripletSixteenth,E4
2250,Right,0,65,80,369.166667,0.15625,TripletSixteenth,F4
2251,Right,0,67,80,369.333333,0.15625,TripletSixteenth,G4
2252,Right,0,69,80,369.5,0.15625,TripletSixteenth,A4
2253,Right,0,70,80,369.666667,0.15625,TripletSixteenth,A#4
2254,Right,0,72,80,369.833333,0.15625,TripletSixteenth,C5
2256,Right,0,73,80,370.0,0.15625,TripletSixteenth,C#5
2255,Left,1,53,80,370.0,2.989583,DottedHalf,F3
2257,Right,0,74,80,370.166667,0.15625,TripletSixteenth,D5
2258,Right,0,73,80,370.333333,0.15625,TripletSixteenth,C#5
2259,Right,0,74,80,370.5,0.15625,TripletSixteenth,D5
2260,Right,0,73,80,370.666667,0.15625,TripletSixteenth,C#5
2261,Right,0,74,80,370.833333,0.15625,TripletSixteenth,D5
2262,Left,1,58,80,371.0,0.989583,Quarter,A#3
2263,Right,0,73,80,371.0,0.15625,TripletSixteenth,C#5
2264,Right,0,74,80,371.166667,0.15625,TripletSixteenth,D5
2265,Right,0,73,80,371.333333,0.15625,TripletSixteenth,C#5
2266,Right,0,74,80,371.5,0.114583,ThirtySecond,D5
2267,Right,0,73,80,371.625,0.114583,ThirtySecond,C#5
2268,Right,0,74,80,371.75,0.114583,ThirtySecond,D5
2269,Right,0,73,80,371.875,0.114583,ThirtySecond,C#5
2270,Left,1,55,80,372.0,0.989583,Quarter,G3_E4
2272,Right,0,74,80,372.0,0.15625,TripletSixteenth,D5
2273,Right,0,76,80,372.166667,0.15625,TripletSixteenth,E5
2274,Right,0,74,80,372.333333,0.15625,TripletSixteenth,D5
2275,Right,0,73,80,372.5,0.15625,TripletSixteenth,C#5
2276,Right,0,74,80,372.666667,0.15625,TripletSixteenth,D5
2277,Right,0,71,80,372.833333,0.15625,TripletSixteenth,B4
2278,Left,1,53,80,373.0,1.489583,DottedQuarter,F3_A3
2279,Right,0,72,80,373.0,0.15625,TripletSixteenth,C5
2281,Right,0,74,80,373.166667,0.15625,TripletSixteenth,D5
2282,Right,0,72,80,373.333333,0.15625,TripletSixteenth,C5
2283,Right,0,71,80,373.5,0.15625,TripletSixteenth,B4
2284,Right,0,72,80,373.666667,0.15625,TripletSixteenth,C5
2285,Right,0,69,80,373.833333,0.15625,TripletSixteenth,A4
2287,Right,0,65,80,374.0,0.15625,TripletSixteenth,F4
2286,Left,1,60,80,374.0,0.489583,Eighth,C4
2288,Right,0,67,80,374.166667,0.15625,TripletSixteenth,G4
2289,Right,0,69,80,374.333333,0.15625,TripletSixteenth,A4
2290,Right,0,70,80,374.5,0.15625,TripletSixteenth,A#4
2291,Right,0,72,80,374.666667,0.15625,TripletSixteenth,C5
2292,Right,0,74,80,374.833333,0.15625,TripletSixteenth,D5
2293,Right,0,76,80,375.0,0.15625,TripletSixteenth,E5
2294,Right,0,77,80,375.166667,0.15625,TripletSixteenth,F5
2295,Right,0,79,80,375.333333,0.15625,TripletSixteenth,G5
2296,Right,0,81,80,375.5,0.15625,TripletSixteenth,A5
2297,Right,0,82,80,375.666667,0.15625,TripletSixteenth,A#5
2298,Right,0,84,80,375.833333,0.15625,TripletSixteenth,C6
2299,Right,0,85,80,376.0,0.15625,TripletSixteenth,C#6
2300,Right,0,86,80,376.166667,0.15625,TripletSixteenth,D6
2301,Right,0,85,81,376.333333,0.15625,TripletSixteenth,C#6
2302,Right,0,86,81,376.5,0.15625,TripletSixteenth,D6
2303,Right,0,85,82,376.666667,0.15625,TripletSixteenth,C#6
2304,Right,0,86,82,376.833333,0.15625,TripletSixteenth,D6
2306,Left,1,74,83,377.0,1.989583,Half,F4_D5_A#4
2305,Right,0,85,83,377.0,0.15625,TripletSixteenth,C#6
2309,Right,0,86,83,377.166667,0.15625,TripletSixteenth,D6
2310,Right,0,85,84,377.333333,0.15625,TripletSixteenth,C#6
2311,Right,0,86,85,377.5,0.114583,ThirtySecond,D6
2312,Right,0,85,85,377.625,0.114583,ThirtySecond,C#6
2313,Right,0,86,85,377.75,0.114583,ThirtySecond,D6
2314,Right,0,85,86,377.875,0.114583,ThirtySecond,C#6
2316,Right,0,86,86,378.0,0.15625,TripletSixteenth,D6
2315,Left,1,67,86,378.0,0.739583,DottedEighth,G4
2317,Right,0,88,87,378.166667,0.15625,TripletSixteenth,E6
2318,Right,0,86,87,378.333333,0.15625,TripletSixteenth,D6
2319,Right,0,85,88,378.5,0.15625,TripletSixteenth,C#6
2320,Right,0,86,89,378.666667,0.15625,TripletSixteenth,D6
2321,Left,1,67,89,378.75,0.239583,Sixteenth,G4_F4
2323,Right,0,83,89,378.833333,0.15625,TripletSixteenth,B5
2324,Left,1,67,90,379.0,0.989583,DottedEighth,G4_E4_C5
2326,Right,0,84,90,379.0,0.15625,TripletSixteenth,C6
2328,Right,0,86,90,379.166667,0.15625,TripletSixteenth,D6
2329,Right,0,84,91,379.333333,0.15625,TripletSixteenth,C6
2330,Right,0,83,91,379.5,0.15625,TripletSixteenth,B5
2331,Right,0,84,92,379.666667,0.15625,TripletSixteenth,C6
2332,Left,1,69,92,379.75,0.239583,Sixteenth,F4_A4
2334,Right,0,81,93,379.833333,0.15625,TripletSixteenth,A5
2337,Right,0,82,93,380.0,0.15625,TripletSixteenth,A#5
2335,Left,1,65,93,380.0,1.989583,Quarter,F4_D4_A#4
2339,Right,0,81,94,380.166667,0.15625,TripletSixteenth,A5
2340,Right,0,82,94,380.333333,0.15625,TripletSixteenth,A#5
2341,Right,0,81,95,380.5,0.15625,TripletSixteenth,A5
2342,Right,0,82,95,380.666667,0.15625,TripletSixteenth,A#5
2343,Right,0,81,96,380.833333,0.15625,TripletSixteenth,A5
2345,Left,1,64,96,381.0,0.739583,DottedEighth,G4_E4
2344,Right,0,82,96,381.0,0.15625,TripletSixteenth,A#5
2347,Right,0,84,97,381.166667,0.15625,TripletSixteenth,C6
2348,Right,0,82,98,381.333333,0.15625,TripletSixteenth,A#5
2349,Right,0,81,98,381.5,0.15625,TripletSixteenth,A5
2350,Right,0,82,99,381.666667,0.15625,TripletSixteenth,A#5
2351,Left,1,65,99,381.75,0.239583,Sixteenth,F4_D4
2353,Right,0,80,99,381.833333,0.15625,TripletSixteenth,G#5
2356,Right,0,81,100,382.0,0.15625,TripletSixteenth,A5
2354,Left,1,64,100,382.0,0.989583,DottedEighth,E4_C#4_A4
2358,Right,0,82,100,382.166667,0.15625,TripletSixteenth,A#5
2359,Right,0,81,101,382.333333,0.15625,TripletSixteenth,A5
2360,Right,0,80,102,382.5,0.15625,TripletSixteenth,G#5
2361,Right,0,81,102,382.666667,0.15625,TripletSixteenth,A5
2362,Left,1,62,102,382.75,0.239583,Sixteenth,F4_D4
2364,Right,0,77,103,382.833333,0.15625,TripletSixteenth,F5
2365,Left,1,62,103,383.0,0.739583,DottedEighth,G4_D4_B3
2367,Right,0,79,103,383.0,0.15625,TripletSixteenth,G5
2369,Right,0,81,104,383.166667,0.15625,TripletSixteenth,A5
2370,Right,0,79,104,383.333333,0.15625,TripletSixteenth,G5
2371,Right,0,78,105,383.5,0.15625,TripletSixteenth,F#5
2372,Right,0,79,106,383.666667,0.15625,TripletSixteenth,G5
2373,Left,1,59,106,383.75,0.239583,Sixteenth,D4_B3
2375,Right,0,74,106,383.833333,0.15625,TripletSixteenth,D5
2376,Right,0,76,107,384.0,0.15625,TripletSixteenth,E5
2377,Left,1,60,107,384.0,0.739583,DottedEighth,E4_C4
2379,Right,0,77,107,384.166667,0.15625,TripletSixteenth,F5
2380,Right,0,76,108,384.333333,0.15625,TripletSixteenth,E5
2381,Right,0,74,108,384.5,0.15625,TripletSixteenth,D5
2382,Right,0,76,109,384.666667,0.15625,TripletSixteenth,E5
2383,Left,1,58,109,384.75,0.239583,Sixteenth,G4_A#3
2385,Right,0,79,109,384.833333,0.15625,TripletSixteenth,G5
2386,Right,0,77,110,385.0,0.15625,TripletSixteenth,F5
2387,Left,1,65,110,385.0,0.739583,DottedEighth,F4_A3
2389,Right,0,79,110,385.166667,0.15625,TripletSixteenth,G5
2390,Right,0,77,110,385.333333,0.15625,TripletSixteenth,F5
2391,Right,0,76,110,385.5,0.15625,TripletSixteenth,E5
2392,Right,0,77,110,385.666667,0.15625,TripletSixteenth,F5
2393,Left,1,64,110,385.75,0.239583,Sixteenth,E4_C4
2395,Right,0,76,110,385.833333,0.15625,TripletSixteenth,E5
2396,Left,1,62,110,386.0,0.739583,DottedEighth,D4_A#3
2397,Right,0,74,110,386.0,0.15625,TripletSixteenth,D5
2399,Right,0,76,110,386.166667,0.15625,TripletSixteenth,E5
2400,Right,0,74,110,386.333333,0.15625,TripletSixteenth,D5
2401,Right,0,73,110,386.5,0.15625,TripletSixteenth,C#5
2402,Right,0,74,110,386.666667,0.15625,TripletSixteenth,D5
2403,Left,1,65,110,386.75,0.239583,Sixteenth,F4_A3
2405,Right,0,77,110,386.833333,0.15625,TripletSixteenth,F5
2407,Left,1,55,110,387.0,0.739583,DottedEighth,G3_E4
2406,Right,0,76,110,387.0,0.15625,TripletSixteenth,E5
2409,Right,0,77,110,387.166667,0.15625,TripletSixteenth,F5
2410,Right,0,76,110,387.333333,0.15625,TripletSixteenth,E5
2411,Right,0,74,110,387.5,0.15625,TripletSixteenth,D5
2412,Right,0,76,110,387.666667,0.15625,TripletSixteenth,E5
2413,Left,1,62,110,387.75,0.239583,Sixteenth,D4_A#3
2415,Right,0,74,110,387.833333,0.15625,TripletSixteenth,D5
2416,Right,0,72,110,388.0,0.15625,TripletSixteenth,C5
2417,Left,1,60,110,388.0,0.739583,DottedEighth,C4_A3
2419,Right,0,74,110,388.166667,0.15625,TripletSixteenth,D5
2420,Right,0,72,110,388.333333,0.15625,TripletSixteenth,C5
2421,Right,0,71,110,388.5,0.15625,TripletSixteenth,B4
2422,Right,0,72,110,388.666667,0.15625,TripletSixteenth,C5
2423,Left,1,64,110,388.75,0.239583,Sixteenth,G3_E4
2425,Right,0,76,110,388.833333,0.15625,TripletSixteenth,E5
2426,Left,1,54,110,389.0,0.739583,DottedEighth,F#3_D4
2427,Right,0,74,110,389.0,0.15625,TripletSixteenth,D5
2429,Right,0,76,110,389.166667,0.15625,TripletSixteenth,E5
2430,Right,0,74,110,389.333333,0.15625,TripletSixteenth,D5
2431,Right,0,72,110,389.5,0.15625,TripletSixteenth,C5
2432,Right,0,74,110,389.666667,0.15625,TripletSixteenth,D5
2433,Left,1,60,110,389.75,0.239583,Sixteenth,C4_A3
2435,Right,0,72,110,389.833333,0.15625,TripletSixteenth,C5
2438,Right,0,70,110,390.0,0.15625,TripletSixteenth,A#4
2436,Left,1,58,110,390.0,0.739583,DottedEighth,G3_A#3
2439,Right,0,72,110,390.166667,0.15625,TripletSixteenth,C5
2440,Right,0,70,110,390.333333,0.15625,TripletSixteenth,A#4
2441,Right,0,69,110,390.5,0.15625,TripletSixteenth,A4
2442,Right,0,70,110,390.666667,0.15625,TripletSixteenth,A#4
2443,Left,1,53,110,390.75,0.239583,Sixteenth,F3_D4
2445,Right,0,74,110,390.833333,0.15625,TripletSixteenth,D5
2446,Left,1,52,110,391.0,0.739583,DottedEighth,E3_C4
2447,Right,0,72,110,391.0,0.15625,TripletSixteenth,C5
2449,Right,0,74,110,391.166667,0.15625,TripletSixteenth,D5
2450,Right,0,72,110,391.333333,0.15625,TripletSixteenth,C5
2451,Right,0,70,110,391.5,0.15625,TripletSixteenth,A#4
2452,Right,0,72,110,391.666667,0.15625,TripletSixteenth,C5
2453,Left,1,58,110,391.75,0.239583,Sixteenth,G3_A#3
2455,Right,0,70,110,391.833333,0.15625,TripletSixteenth,A#4
2458,Right,0,69,110,392.0,0.15625,TripletSixteenth,A4
2456,Left,1,53,110,392.0,0.739583,DottedEighth,F3_A3
2459,Right,0,70,110,392.166667,0.15625,TripletSixteenth,A#4
2460,Right,0,72,110,392.333333,0.15625,TripletSixteenth,C5
2461,Right,0,70,110,392.5,0.15625,TripletSixteenth,A#4
2462,Right,0,69,110,392.666667,0.15625,TripletSixteenth,A4
2463,Left,1,58,110,392.75,0.239583,Sixteenth,G3_A#3
2465,Right,0,67,110,392.833333,0.15625,TripletSixteenth,G4
2466,Left,1,60,110,393.0,0.739583,DottedEighth,C4_A3
2468,Right,0,65,110,393.0,0.15625,TripletSixteenth,F4
2469,Right,0,67,110,393.166667,0.15625,TripletSixteenth,G4
2470,Right,0,69,110,393.333333,0.15625,TripletSixteenth,A4
2471,Right,0,67,110,393.5,0.15625,TripletSixteenth,G4
2472,Right,0,65,110,393.666667,0.15625,TripletSixteenth,F4
2473,Left,1,48,110,393.75,0.239583,Sixteenth,C3_A2
2475,Right,0,64,110,393.833333,0.15625,TripletSixteenth,E4
2477,Left,1,46,110,394.0,0.989583,Quarter,D3_A#2
2476,Right,0,62,110,394.0,0.125,ThirtySecond,D4
2479,Right,0,64,80,394.083333,0.135417,ThirtySecond,E4
2480,Right,0,62,80,394.166667,0.135417,ThirtySecond,D4
2481,Right,0,61,80,394.25,0.229167,Sixteenth,C#4
2482,Right,0,62,80,394.375,0.197917,TripletSixteenth,D4
2483,Right,0,67,80,394.5,0.166667,TripletSixteenth,G4
2484,Right,0,69,80,394.583333,0.145833,TripletSixteenth,A4
2485,Right,0,67,80,394.666667,0.145833,TripletSixteenth,G4
2486,Right,0,66,80,394.75,0.166667,TripletSixteenth,F#4
2487,Right,0,67,80,394.875,0.197917,TripletSixteenth,G4
2488,Right,0,70,80,395.0,0.114583,ThirtySecond,A#4
2489,Right,0,72,80,395.083333,0.135417,ThirtySecond,C5
2490,Right,0,70,80,395.166667,0.125,ThirtySecond,A#4
2491,Right,0,69,80,395.25,0.15625,TripletSixteenth,A4
2492,Right,0,70,80,395.375,0.15625,TripletSixteenth,A#4
2493,Right,0,74,80,395.5,0.125,ThirtySecond,D5
2494,Right,0,76,80,395.583333,0.125,ThirtySecond,E5
2495,Right,0,74,80,395.666667,0.135417,ThirtySecond,D5
2496,Right,0,73,80,395.75,0.166667,TripletSixteenth,C#5
2497,Right,0,74,80,395.875,0.208333,Sixteenth,D5
2498,Right,0,79,80,396.0,0.135417,ThirtySecond,G5
2499,Right,0,81,80,396.083333,0.135417,ThirtySecond,A5
2500,Right,0,79,80,396.166667,0.135417,ThirtySecond,G5
2501,Right,0,78,80,396.25,0.177083,TripletSixteenth,F#5
2502,Right,0,79,80,396.375,0.197917,TripletSixteenth,G5
2503,Right,0,82,80,396.5,0.145833,TripletSixteenth,A#5
2504,Right,0,84,80,396.583333,0.135417,ThirtySecond,C6
2505,Right,0,82,80,396.666667,0.145833,TripletSixteenth,A#5
2506,Right,0,81,80,396.75,0.229167,Sixteenth,A5
2507,Right,0,82,80,396.875,0.114583,ThirtySecond,A#5
2508,Right,0,85,80,397.0,0.1875,TripletSixteenth,C#6
2509,Right,0,86,80,397.125,0.208333,Sixteenth,D6
2510,Right,0,88,80,397.25,0.21875,Sixteenth,E6
2511,Right,0,86,80,397.375,0.208333,Sixteenth,D6
2512,Right,0,88,80,397.5,0.208333,Sixteenth,E6
2513,Right,0,86,80,397.625,0.21875,Sixteenth,D6
2514,Right,0,88,80,397.75,0.21875,Sixteenth,E6
2515,Right,0,86,80,397.875,0.208333,Sixteenth,D6
2518,Right,0,88,80,398.0,0.208333,Sixteenth,E6
2516,Left,1,67,80,398.0,0.989583,Quarter,G4_D4_A#3
2520,Right,0,86,80,398.125,0.21875,Sixteenth,D6
2521,Right,0,88,80,398.25,0.21875,Sixteenth,E6
2522,Right,0,86,80,398.375,0.208333,Sixteenth,D6
2523,Right,0,88,80,398.5,0.208333,Sixteenth,E6
2524,Right,0,86,80,398.625,0.21875,Sixteenth,D6
2525,Right,0,88,80,398.75,0.21875,Sixteenth,E6
2526,Right,0,86,80,398.875,0.208333,Sixteenth,D6
2527,Right,0,88,80,399.0,0.208333,Sixteenth,E6
2528,Right,0,86,80,399.125,0.21875,Sixteenth,D6
2529,Right,0,88,80,399.25,0.21875,Sixteenth,E6
2530,Right,0,86,80,399.375,0.208333,Sixteenth,D6
2531,Right,0,88,80,399.5,0.208333,Sixteenth,E6
2532,Right,0,86,80,399.625,0.21875,Sixteenth,D6
2533,Right,0,85,80,399.75,0.21875,Sixteenth,C#6
2534,Right,0,86,80,399.875,0.114583,ThirtySecond,D6
2535,Right,0,62,80,400.0,0.208333,Sixteenth,D4
2536,Right,0,64,80,400.125,0.239583,Sixteenth,E4
2537,Right,0,65,80,400.25,0.21875,Sixteenth,F4
2538,Right,0,64,80,400.375,0.197917,TripletSixteenth,E4
2539,Right,0,65,80,400.5,0.229167,Sixteenth,F4
2540,Right,0,64,80,400.625,0.21875,Sixteenth,E4
2541,Right,0,65,80,400.75,0.239583,Sixteenth,F4
2542,Right,0,64,80,400.875,0.229167,Sixteenth,E4
2543,Right,0,65,80,401.0,0.229167,Sixteenth,F4
2544,Left,1,55,80,401.0,0.989583,Quarter,G3_C3_A#3
2547,Right,0,64,80,401.125,0.21875,Sixteenth,E4
2548,Right,0,65,80,401.25,0.239583,Sixteenth,F4
2549,Right,0,64,80,401.375,0.229167,Sixteenth,E4
2550,Right,0,65,80,401.5,0.229167,Sixteenth,F4
2551,Right,0,64,80,401.625,0.21875,Sixteenth,E4
2552,Right,0,65,80,401.75,0.239583,Sixteenth,F4
2553,Right,0,64,80,401.875,0.229167,Sixteenth,E4
2554,Right,0,65,80,402.0,0.229167,Sixteenth,F4
2555,Right,0,64,80,402.125,0.21875,Sixteenth,E4
2556,Right,0,65,80,402.25,0.239583,Sixteenth,F4
2557,Right,0,64,80,402.375,0.229167,Sixteenth,E4
2558,Right,0,65,80,402.5,0.229167,Sixteenth,F4
2559,Right,0,64,80,402.625,0.21875,Sixteenth,E4
2560,Right,0,62,80,402.75,0.239583,Sixteenth,D4
2561,Right,0,64,80,402.875,0.114583,ThirtySecond,E4
2562,Right,0,71,80,403.0,0.177083,TripletSixteenth,B4
2563,Right,0,72,80,403.125,0.197917,TripletSixteenth,C5
2564,Right,0,74,80,403.25,0.197917,TripletSixteenth,D5
2565,Right,0,72,80,403.375,0.197917,TripletSixteenth,C5
2566,Right,0,74,80,403.5,0.208333,Sixteenth,D5
2567,Right,0,72,80,403.625,0.197917,TripletSixteenth,C5
2568,Right,0,74,80,403.75,0.21875,Sixteenth,D5
2569,Right,0,72,80,403.875,0.21875,Sixteenth,C5
2570,Right,0,74,80,404.0,0.208333,Sixteenth,D5
2571,Right,0,72,80,404.125,0.197917,TripletSixteenth,C5
2572,Right,0,74,80,404.25,0.21875,Sixteenth,D5
2573,Right,0,72,80,404.375,0.21875,Sixteenth,C5
2574,Right,0,74,80,404.5,0.208333,Sixteenth,D5
2575,Right,0,72,80,404.625,0.197917,TripletSixteenth,C5
2576,Right,0,74,80,404.75,0.21875,Sixteenth,D5
2577,Right,0,72,80,404.875,0.21875,Sixteenth,C5
2578,Right,0,74,80,405.0,0.208333,Sixteenth,D5
2579,Right,0,72,80,405.125,0.197917,TripletSixteenth,C5
2580,Right,0,74,80,405.25,0.21875,Sixteenth,D5
2581,Right,0,72,80,405.375,0.21875,Sixteenth,C5
2582,Right,0,74,80,405.5,0.208333,Sixteenth,D5
2583,Right,0,72,80,405.625,0.197917,TripletSixteenth,C5
2584,Right,0,74,80,405.75,0.21875,Sixteenth,D5
2585,Right,0,72,80,405.875,0.114583,ThirtySecond,C5
2586,Right,0,72,80,406.0,0.989583,Quarter,C5
2587,Right,0,70,80,407.0,0.15625,TripletSixteenth,A#4
2588,Right,0,69,80,407.166667,0.15625,TripletSixteenth,A4
2589,Right,0,67,80,407.333333,0.15625,TripletSixteenth,G4
2590,Right,0,65,80,407.5,0.15625,TripletSixteenth,F4
2591,Right,0,64,80,407.666667,0.15625,TripletSixteenth,E4
2592,Right,0,62,80,407.833333,0.15625,TripletSixteenth,D4
2593,Right,0,60,80,408.0,0.322917,Triplet,C4
2594,Right,0,59,80,408.333333,0.322917,Triplet,B3
2595,Right,0,60,80,408.666667,0.322917,Triplet,C4
2596,Right,0,61,80,409.0,0.239583,Sixteenth,C#4
2597,Right,0,62,80,409.25,0.364583,DottedSixteenth,D4
2598,Right,0,63,80,409.625,0.864583,DottedEighth,D#4
2599,Right,0,64,80,410.5,1.489583,DottedQuarter,E4
2600,Right,0,60,80,412.0,0.739583,DottedEighth,C4
2601,Right,0,65,80,412.75,0.239583,Sixteenth,F4
2602,Right,0,69,80,413.0,1.989583,DottedQuarter,C4_A4
2603,Left,1,29,80,413.0,2.989583,DottedHalf,F1
2605,Left,1,41,80,413.333333,0.322917,Triplet,F2
2606,Left,1,41,80,413.666667,0.322917,Triplet,F2
2607,Left,1,41,80,414.0,0.322917,Triplet,F2
2608,Left,1,41,80,414.333333,0.322917,Triplet,F2
2609,Left,1,41,80,414.666667,0.322917,Triplet,F2
2610,Right,0,65,80,414.75,0.239583,Sixteenth,F4
2612,Right,0,58,80,415.0,0.989583,Quarter,G4_A#3
2611,Left,1,41,80,415.0,0.322917,Triplet,F2
2614,Left,1,41,80,415.333333,0.322917,Triplet,F2
2615,Left,1,41,80,415.666667,0.322917,Triplet,F2
2616,Right,0,64,80,415.75,0.239583,Sixteenth,E4
2617,Right,0,57,80,416.0,1.489583,DottedQuarter,F4_A3
2619,Left,1,29,80,416.0,2.989583,DottedHalf,F1
2620,Left,1,41,80,416.333333,0.322917,Triplet,F2
2621,Left,1,41,80,416.666667,0.322917,Triplet,F2
2622,Right,0,60,80,417.0,0.489583,Eighth,C4
2623,Left,1,41,80,417.0,0.322917,Triplet,F2
2624,Left,1,41,80,417.333333,0.322917,Triplet,F2
2625,Left,1,41,80,417.666667,0.322917,Triplet,F2
2627,Right,0,65,80,418.0,0.739583,DottedEighth,F4
2626,Left,1,41,80,418.0,0.322917,Triplet,F2
2628,Left,1,41,80,418.333333,0.322917,Triplet,F2
2629,Left,1,41,80,418.666667,0.322917,Triplet,F2
2630,Right,0,69,80,418.75,0.239583,Sixteenth,A4
2631,Left,1,29,80,419.0,2.989583,DottedHalf,F1
2632,Right,0,69,80,419.0,1.739583,DottedQuarter,F4_C5_A4
2635,Left,1,41,80,419.333333,0.322917,Triplet,F2
2636,Left,1,41,80,419.666667,0.322917,Triplet,F2
2637,Left,1,41,80,420.0,0.322917,Triplet,F2
2638,Left,1,41,80,420.333333,0.322917,Triplet,F2
2639,Left,1,41,80,420.666667,0.322917,Triplet,F2
2640,Right,0,62,80,420.75,0.239583,Sixteenth,F4_D5_D4
2646,Left,1,41,80,421.0,0.322917,Triplet,F2
2643,Right,0,67,80,421.0,0.739583,DottedEighth,G4_E4_A#4
2647,Left,1,41,80,421.333333,0.322917,Triplet,F2
2648,Left,1,41,80,421.666667,0.322917,Triplet,F2
2649,Right,0,60,80,421.75,0.239583,Sixteenth,E4_C5_C4
2652,Right,0,65,80,422.0,0.989583,Quarter,F4_C4_A4
2655,Left,1,29,80,422.0,2.989583,DottedHalf,F1
2656,Left,1,41,80,422.333333,0.322917,Triplet,F2
2657,Left,1,41,80,422.666667,0.322917,Triplet,F2
2658,Left,1,41,80,423.0,0.322917,Triplet,F2
2659,Left,1,41,80,423.333333,0.322917,Triplet,F2
2660,Left,1,41,80,423.666667,0.322917,Triplet,F2
2662,Right,0,62,80,424.0,0.09375,TripletThirtySecond,D4
2661,Left,1,41,80,424.0,0.322917,Triplet,F2
2663,Right,0,60,80,424.09375,0.15625,TripletSixteenth,C4
2664,Right,0,59,80,424.25,0.239583,Sixteenth,B3
2665,Left,1,41,80,424.333333,0.322917,Triplet,F2
2666,Right,0,60,80,424.5,0.239583,Sixteenth,C4
2667,Left,1,41,80,424.666667,0.322917,Triplet,F2
2668,Right,0,65,80,424.75,0.239583,Sixteenth,F4
2669,Left,1,29,80,425.0,2.989583,DottedHalf,F1
2670,Right,0,60,80,425.0,1.989583,Half,C4_A4
2672,Right,0,68,80,425.25,0.239583,Sixteenth,G#4
2673,Left,1,41,80,425.333333,0.322917,Triplet,F2
2674,Right,0,69,80,425.5,0.239583,Sixteenth,A4
2675,Left,1,41,80,425.666667,0.322917,Triplet,F2
2676,Right,0,68,80,425.75,0.239583,Sixteenth,G#4
2678,Left,1,41,80,426.0,0.322917,Triplet,F2
2677,Right,0,69,80,426.0,0.239583,Sixteenth,A4
2679,Right,0,68,80,426.25,0.239583,Sixteenth,G#4
2680,Left,1,41,80,426.333333,0.322917,Triplet,F2
2681,Right,0,69,80,426.5,0.239583,Sixteenth,A4
2682,Left,1,41,80,426.666667,0.322917,Triplet,F2
2683,Right,0,65,80,426.75,0.239583,Sixteenth,F4
2686,Left,1,41,80,427.0,0.322917,Triplet,F2
2684,Right,0,58,80,427.0,0.989583,Quarter,A4_A#3
2687,Right,0,67,80,427.09375,0.15625,TripletSixteenth,G4
2688,Right,0,66,80,427.25,0.239583,Sixteenth,F#4
2689,Left,1,41,80,427.333333,0.322917,Triplet,F2
2690,Right,0,67,80,427.5,0.239583,Sixteenth,G4
2691,Left,1,41,80,427.666667,0.322917,Triplet,F2
2692,Right,0,64,80,427.75,0.239583,Sixteenth,E4
2695,Left,1,29,80,428.0,2.989583,DottedHalf,F1
2693,Right,0,57,80,428.0,1.489583,DottedQuarter,G4_A3
2696,Right,0,65,80,428.09375,0.15625,TripletSixteenth,F4
2697,Right,0,64,80,428.25,0.239583,Sixteenth,E4
2698,Left,1,41,80,428.333333,0.322917,Triplet,F2
2699,Right,0,65,80,428.5,0.239583,Sixteenth,F4
2700,Left,1,41,80,428.666667,0.322917,Triplet,F2
2701,Right,0,69,80,428.75,0.239583,Sixteenth,A4
2702,Left,1,41,80,429.0,0.322917,Triplet,F2
2703,Right,0,60,80,429.0,0.489583,Eighth,C4
2704,Left,1,41,80,429.333333,0.322917,Triplet,F2
2705,Left,1,41,80,429.666667,0.322917,Triplet,F2
2706,Left,1,41,80,430.0,0.322917,Triplet,F2
2707,Right,0,67,80,430.0,0.09375,TripletThirtySecond,G4
2708,Right,0,65,80,430.09375,0.15625,TripletSixteenth,F4
2709,Right,0,64,80,430.25,0.239583,Sixteenth,E4
2710,Left,1,41,80,430.333333,0.322917,Triplet,F2
2711,Right,0,65,80,430.5,0.239583,Sixteenth,F4
2712,Left,1,41,80,430.666667,0.322917,Triplet,F2
2713,Right,0,69,80,430.75,0.239583,Sixteenth,A4
2715,Right,0,72,80,431.0,0.489583,Eighth,F4_C5_A4
2714,Left,1,29,80,431.0,2.989583,DottedHalf,F1
2718,Right,0,74,80,431.25,0.239583,Sixteenth,D5
2719,Left,1,41,80,431.333333,0.322917,Triplet,F2
2720,Right,0,64,80,431.5,0.489583,Eighth,G#4_E4_C5
2723,Left,1,41,80,431.666667,0.322917,Triplet,F2
2724,Right,0,74,80,431.75,0.239583,Sixteenth,D5
2726,Right,0,72,80,432.0,0.489583,Eighth,F4_C5_A4
2725,Left,1,41,80,432.0,0.322917,Triplet,F2
2729,Right,0,74,80,432.25,0.239583,Sixteenth,D5
2730,Left,1,41,80,432.333333,0.322917,Triplet,F2
2731,Right,0,72,80,432.5,0.489583,Eighth,F4_D4_C5
2734,Left,1,41,80,432.666667,0.322917,Triplet,F2
2735,Right,0,74,80,432.75,0.239583,Sixteenth,D5
2739,Left,1,41,80,433.0,0.322917,Triplet,F2
2736,Right,0,64,80,433.0,0.489583,Eighth,G4_E4_A#4
2740,Right,0,72,80,433.25,0.239583,Sixteenth,C5
2741,Left,1,41,80,433.333333,0.322917,Triplet,F2
2742,Right,0,64,80,433.5,0.489583,Eighth,E4_C4_A#4
2745,Left,1,41,80,433.666667,0.322917,Triplet,F2
2746,Right,0,72,80,433.75,0.239583,Sixteenth,C5
2750,Left,1,29,80,434.0,0.989583,Quarter,F1
2747,Right,0,69,80,434.0,0.989583,Quarter,F4_C4_A4
2751,Left,1,41,80,434.333333,0.322917,Triplet,F2
2752,Left,1,41,80,434.666667,0.322917,Triplet,F2
2753,Left,1,33,80,435.0,0.989583,Quarter,A1
2754,Left,1,41,80,435.333333,0.322917,Triplet,F2
2755,Left,1,41,80,435.666667,0.322917,Triplet,F2
2756,Right,0,60,80,436.0,0.739583,DottedEighth,C4
2757,Left,1,36,80,436.0,0.989583,Quarter,C2
2758,Left,1,41,80,436.333333,0.322917,Triplet,F2
2759,Left,1,41,80,436.666667,0.322917,Triplet,F2
2760,Right,0,65,80,436.75,0.239583,Sixteenth,F4
2761,Left,1,29,80,437.0,0.989583,Quarter,F1
2762,Right,0,69,80,437.0,1.989583,Half,A4
2763,Left,1,41,80,437.333333,0.322917,Triplet,F2
2764,Left,1,41,80,437.666667,0.322917,Triplet,F2
2765,Left,1,33,80,438.0,0.989583,Quarter,A1
2766,Left,1,41,80,438.333333,0.322917,Triplet,F2
2767,Left,1,41,80,438.666667,0.322917,Triplet,F2
2769,Left,1,36,80,439.0,0.989583,Quarter,C2
2768,Right,0,65,80,439.0,0.739583,DottedEighth,F4_C4
2771,Left,1,41,80,439.333333,0.322917,Triplet,F2
2772,Left,1,41,80,439.666667,0.322917,Triplet,F2
2773,Right,0,69,80,439.75,0.239583,Sixteenth,F4_A4
2775,Right,0,69,80,440.0,1.989583,Half,C5_A4
2777,Left,1,29,80,440.0,0.989583,Quarter,F1
2778,Left,1,41,80,440.333333,0.322917,Triplet,F2
2779,Left,1,41,80,440.666667,0.322917,Triplet,F2
2780,Left,1,33,80,441.0,0.989583,Quarter,A1
2781,Left,1,41,80,441.333333,0.322917,Triplet,F2
2782,Left,1,41,80,441.666667,0.322917,Triplet,F2
2783,Left,1,36,80,442.0,0.989583,Quarter,C2
2784,Right,0,60,80,442.0,0.739583,DottedEighth,F4_C4_A4
2787,Left,1,41,82,442.333333,0.322917,Triplet,F2
2788,Left,1,41,85,442.666667,0.322917,Triplet,F2
2789,Right,0,72,86,442.75,0.239583,Sixteenth,F4_C5_A4
2792,Left,1,41,88,443.0,0.322917,Triplet,F2
2793,Right,0,72,88,443.0,1.489583,DottedQuarter,F5_C5_A4
2796,Left,1,60,90,443.333333,0.322917,Triplet,C4
2797,Left,1,57,93,443.666667,0.322917,Triplet,A3
2798,Left,1,53,96,444.0,0.322917,Triplet,F3
2799,Left,1,48,99,444.333333,0.322917,Triplet,C3
2800,Right,0,81,100,444.5,0.489583,Eighth,F5_C5_A5
2803,Left,1,45,101,444.666667,0.322917,Triplet,A2
2804,Right,0,77,104,445.0,0.489583,Eighth,F5_C6_A5
2807,Left,1,41,104,445.0,0.989583,Quarter,F2
2808,Left,1,53,107,445.333333,0.322917,Triplet,F3
2809,Right,0,89,108,445.5,0.489583,Eighth,F6_C6_A5
2812,Left,1,53,109,445.666667,0.322917,Triplet,F3
2813,Right,0,88,120,446.0,0.322917,Triplet,G5_E6_C#6_A#5
2817,Left,1,41,120,446.0,0.322917,Triplet,F2
2818,Right,0,79,120,446.333333,0.322917,Triplet,G5_E6_C#6_A#5
2821,Left,1,64,120,446.333333,0.322917,Triplet,G3_F3_E4_C#4_A#3
2828,Right,0,79,120,446.666667,0.322917,Triplet,G5_E6_C#6_A#5
2827,Left,1,53,120,446.666667,0.322917,Triplet,G3_F3_E4_C#4_A#3
2836,Right,0,79,120,447.0,0.322917,Triplet,G5_E6_C#6_A#5
2839,Left,1,53,120,447.0,0.322917,Triplet,G3_F3_E4_C#4_A#3
2845,Right,0,82,120,447.333333,0.322917,Triplet,G5_E6_C#6_A#5
2849,Left,1,55,120,447.333333,0.322917,Triplet,G3_F3_E4_C#4_A#3
2858,Left,1,55,120,447.666667,0.322917,Triplet,G3_F3_E4_C#4_A#3
2854,Right,0,79,120,447.666667,0.322917,Triplet,G5_E6_C#6_A#5
2863,Left,1,64,120,448.0,0.322917,Triplet,G3_F3_E4_C#4_A#3
2866,Right,0,88,120,448.0,0.322917,Triplet,G5_E6_C#6_A#5
2873,Left,1,61,120,448.333333,0.322917,Triplet,G3_F3_E4_C#4_A#3
2872,Right,0,82,120,448.333333,0.322917,Triplet,G5_E6_C#6_A#5
2881,Left,1,64,120,448.666667,0.322917,Triplet,G3_F3_E4_C#4_A#3
2886,Right,0,82,120,448.666667,0.322917,Triplet,G5_E6_C#6_A#5
2895,Right,0,79,115,449.0,0.489583,Eighth,G5_E6_C#6_A#5
2890,Left,1,64,115,449.0,0.489583,Eighth,G3_F3_E4_C#4_A#3
2899,Left,1,61,111,449.5,0.489583,Eighth,G3_F3_E4_C#4_A#3
2901,Right,0,79,111,449.5,0.489583,Eighth,G5_E6_C#6_A#5
2908,Left,1,53,107,450.0,0.489583,Eighth,G3_F3_E4_C#4_A#3
2909,Right,0,88,107,450.0,0.489583,Eighth,G5_E6_C#6_A#5
2919,Left,1,58,103,450.5,0.489583,Eighth,G3_F3_E4_C#4_A#3
2917,Right,0,82,103,450.5,0.489583,Eighth,G5_E6_C#6_A#5
2926,Left,1,58,99,451.0,0.489583,Eighth,G3_F3_E4_C#4_A#3
2927,Right,0,79,99,451.0,0.489583,Eighth,G5_E6_C#6_A#5
2940,Right,0,79,95,451.5,0.489583,Eighth,G5_E6_C#6_A#5
2935,Left,1,64,95,451.5,0.489583,Eighth,G3_F3_E4_C#4_A#3
2945,Right,0,79,91,452.0,0.489583,Eighth,G5_E6_C6_A#5
2944,Left,1,53,91,452.0,0.489583,Eighth,G3_F3_E4_C4_A#3
2954,Right,0,79,87,452.5,0.489583,Eighth,G5_E6_C6_A#5
2953,Left,1,60,87,452.5,0.489583,Eighth,G3_F3_E4_C4_A#3
2962,Right,0,79,83,453.0,0.489583,Eighth,G5_E6_C6_A#5
2965,Left,1,64,83,453.0,0.489583,Eighth,G3_F3_E4_C4_A#3
2971,Right,0,88,79,453.5,0.489583,Eighth,G5_E6_C6_A#5
2975,Left,1,58,79,453.5,0.489583,Eighth,G3_F3_E4_C4_A#3
2982,Right,0,79,75,454.0,0.489583,Eighth,G5_E6_C6_A#5
2980,Left,1,64,75,454.0,0.489583,Eighth,G3_F3_E4_C4_A#3
2993,Left,1,64,71,454.5,0.489583,Eighth,G3_F3_E4_C4_A#3
2989,Right,0,88,71,454.5,0.489583,Eighth,G5_E6_C6_A#5
3001,Right,0,89,70,455.0,0.989583,Quarter,F6_F5_C6_A5
2998,Left,1,53,70,455.0,0.989583,Quarter,F4_F3_C4_A3
3007,Left,1,48,70,457.0,0.989583,Quarter,G3_C3
3006,Right,0,72,70,457.0,0.989583,Quarter,G4_E4_C5_C4
3013,Right,0,69,70,458.0,0.989583,Quarter,F4_C4_A4
3012,Left,1,57,70,458.0,0.989583,Quarter,F3_A3
3018,Right,0,55,70,460.0,0.989583,Quarter,G3_E3_C4_C3
3017,Left,1,36,70,460.0,0.989583,Quarter,C2
3026,Left,1,36,70,461.0,2.989583,DottedHalf,C2
3022,Right,0,60,70,461.0,2.989583,DottedHalf,G3_E3_C4_C3
3030,Left,1,41,70,464.0,1.489583,DottedQuarter,F2_F1
3027,Right,0,48,70,464.0,1.489583,DottedQuarter,F3_C3_A3
