,hand,channel,note,velocity,start_beat,duration,note_value,chord
0,Left,1,41,80,0.0,0.239583,Sixteenth,F2
1,Left,1,45,80,0.25,0.239583,Sixteenth,A2
2,Left,1,48,80,0.5,0.239583,Sixteenth,C3
3,Left,1,53,80,0.75,0.239583,Sixteenth,F3
4,Left,1,43,80,1.0,0.239583,Sixteenth,G2
5,Left,1,52,80,1.25,0.239583,Sixteenth,E3
6,Left,1,45,80,1.5,0.239583,Sixteenth,A2
7,Left,1,53,80,1.75,0.239583,Sixteenth,F3
8,Left,1,46,80,2.0,0.239583,Sixteenth,A#2
9,Left,1,55,80,2.25,0.239583,Sixteenth,G3
10,Left,1,48,80,2.5,0.239583,Sixteenth,C3
11,Left,1,57,80,2.75,0.239583,Sixteenth,A3
12,Left,1,50,80,3.0,0.239583,Sixteenth,D3
13,Left,1,58,80,3.25,0.239583,Sixteenth,A#3
14,Left,1,52,80,3.5,0.239583,Sixteenth,E3
15,Left,1,60,80,3.75,0.239583,Sixteenth,C4
16,Left,1,57,80,4.0,0.239583,Sixteenth,A3
18,Right,0,57,80,4.25,0.239583,Sixteenth,A3
17,Left,1,53,101,4.25,3.739583,Whole,F3
19,Right,0,60,80,4.5,0.239583,Sixteenth,C4
20,Right,0,65,80,4.75,0.239583,Sixteenth,F4
21,Right,0,55,80,5.0,0.239583,Sixteenth,G3
22,Right,0,64,80,5.25,0.239583,Sixteenth,E4
23,Right,0,57,80,5.5,0.239583,Sixteenth,A3
24,Right,0,65,80,5.75,0.239583,Sixteenth,F4
25,Right,0,58,80,6.0,0.239583,Sixteenth,A#3
26,Right,0,67,80,6.25,0.239583,Sixteenth,G4
27,Right,0,60,80,6.5,0.239583,Sixteenth,C4
28,Right,0,69,80,6.75,0.239583,Sixteenth,A4
29,Right,0,62,80,7.0,0.239583,Sixteenth,D4
30,Right,0,70,80,7.25,0.239583,Sixteenth,A#4
31,Right,0,64,80,7.5,0.239583,Sixteenth,E4
32,Right,0,72,80,7.75,0.239583,Sixteenth,C5
33,Right,0,69,80,8.0,0.239583,Sixteenth,A4
34,Left,1,53,80,8.0,0.239583,Sixteenth,F3
36,Left,1,57,80,8.25,0.239583,Sixteenth,A3
35,Right,0,65,80,8.25,0.239583,Sixteenth,F4
38,Right,0,72,101,8.5,3.489583,DottedHalf,C5
37,Left,1,60,80,8.5,0.239583,Sixteenth,C4
39,Left,1,65,80,8.75,0.239583,Sixteenth,F4
40,Left,1,55,80,9.0,0.239583,Sixteenth,G3
41,Left,1,64,80,9.25,0.239583,Sixteenth,E4
42,Left,1,57,80,9.5,0.239583,Sixteenth,A3
43,Left,1,65,80,9.75,0.239583,Sixteenth,F4
44,Left,1,58,80,10.0,0.239583,Sixteenth,A#3
45,Left,1,67,80,10.25,0.239583,Sixteenth,G4
46,Left,1,60,80,10.5,0.239583,Sixteenth,C4
47,Left,1,69,80,10.75,0.239583,Sixteenth,A4
48,Left,1,62,80,11.0,0.239583,Sixteenth,D4
49,Left,1,70,80,11.25,0.239583,Sixteenth,A#4
50,Left,1,64,80,11.5,0.239583,Sixteenth,E4
51,Left,1,72,80,11.75,0.239583,Sixteenth,C5
52,Left,1,69,80,12.0,0.239583,Sixteenth,A4
53,Right,0,69,80,12.25,0.239583,Sixteenth,A4
54,Left,1,65,100,12.25,3.739583,Whole,F4
55,Right,0,72,80,12.5,0.239583,Sixteenth,C5
56,Right,0,77,80,12.75,0.239583,Sixteenth,F5
57,Right,0,67,80,13.0,0.239583,Sixteenth,G4
58,Right,0,76,80,13.25,0.239583,Sixteenth,E5
59,Right,0,69,80,13.5,0.239583,Sixteenth,A4
60,Right,0,77,80,13.75,0.239583,Sixteenth,F5
61,Right,0,70,80,14.0,0.239583,Sixteenth,A#4
62,Right,0,79,80,14.25,0.239583,Sixteenth,G5
63,Right,0,72,80,14.5,0.239583,Sixteenth,C5
64,Right,0,81,80,14.75,0.239583,Sixteenth,A5
65,Right,0,74,80,15.0,0.239583,Sixteenth,D5
66,Right,0,82,80,15.25,0.239583,Sixteenth,A#5
67,Right,0,76,80,15.5,0.239583,Sixteenth,E5
68,Right,0,84,80,15.75,0.239583,Sixteenth,C6
69,Left,1,65,80,16.0,0.239583,Sixteenth,F4
70,Right,0,81,80,16.0,0.239583,Sixteenth,A5
71,Right,0,77,80,16.25,0.239583,Sixteenth,F5
72,Left,1,69,80,16.25,0.239583,Sixteenth,A4
73,Left,1,60,80,16.5,0.239583,Sixteenth,C4
74,Right,0,84,80,16.5,0.239583,Sixteenth,C6
76,Right,0,76,80,16.75,0.239583,Sixteenth,E5
75,Left,1,67,80,16.75,0.239583,Sixteenth,G4
78,Right,0,77,80,17.0,0.239583,Sixteenth,F5
77,Left,1,62,80,17.0,0.239583,Sixteenth,D4
80,Right,0,74,80,17.25,0.239583,Sixteenth,D5
79,Left,1,65,80,17.25,0.239583,Sixteenth,F4
82,Left,1,57,80,17.5,0.239583,Sixteenth,A3
81,Right,0,81,80,17.5,0.239583,Sixteenth,A5
84,Right,0,72,80,17.75,0.239583,Sixteenth,C5
83,Left,1,64,80,17.75,0.239583,Sixteenth,E4
86,Left,1,58,80,18.0,0.239583,Sixteenth,A#3
85,Right,0,74,80,18.0,0.239583,Sixteenth,D5
87,Left,1,62,80,18.25,0.239583,Sixteenth,D4
88,Right,0,70,80,18.25,0.239583,Sixteenth,A#4
90,Right,0,77,80,18.5,0.239583,Sixteenth,F5
89,Left,1,53,80,18.5,0.239583,Sixteenth,F3
92,Left,1,60,80,18.75,0.239583,Sixteenth,C4
91,Right,0,69,80,18.75,0.239583,Sixteenth,A4
94,Right,0,70,80,19.0,0.239583,Sixteenth,A#4
93,Left,1,55,80,19.0,0.239583,Sixteenth,G3
95,Left,1,58,80,19.25,0.239583,Sixteenth,A#3
96,Right,0,67,80,19.25,0.239583,Sixteenth,G4
98,Left,1,50,80,19.5,0.239583,Sixteenth,D3
97,Right,0,74,80,19.5,0.239583,Sixteenth,D5
100,Left,1,57,80,19.75,0.239583,Sixteenth,A3
99,Right,0,65,80,19.75,0.239583,Sixteenth,F4
102,Left,1,46,80,20.0,0.239583,Sixteenth,A#2
101,Right,0,67,80,20.0,0.239583,Sixteenth,G4
104,Left,1,55,80,20.25,0.239583,Sixteenth,G3
103,Right,0,62,80,20.25,0.239583,Sixteenth,D4
105,Right,0,70,81,20.5,0.239583,Sixteenth,A#4
106,Left,1,46,81,20.5,0.239583,Sixteenth,A#2
107,Right,0,62,81,20.75,0.239583,Sixteenth,D4
108,Left,1,55,81,20.75,0.239583,Sixteenth,G3
109,Right,0,67,82,21.0,0.239583,Sixteenth,G4
110,Left,1,46,82,21.0,0.239583,Sixteenth,A#2
112,Right,0,62,83,21.25,0.239583,Sixteenth,D4
111,Left,1,55,83,21.25,0.239583,Sixteenth,G3
114,Right,0,65,83,21.5,0.239583,Sixteenth,F4
113,Left,1,47,83,21.5,0.239583,Sixteenth,B2
115,Left,1,55,84,21.75,0.239583,Sixteenth,G3
116,Right,0,62,84,21.75,0.239583,Sixteenth,D4
117,Right,0,64,85,22.0,0.239583,Sixteenth,E4
118,Left,1,48,85,22.0,0.239583,Sixteenth,C3
120,Left,1,55,85,22.25,0.239583,Sixteenth,G3
119,Right,0,60,85,22.25,0.239583,Sixteenth,C4
122,Right,0,57,86,22.5,0.239583,Sixteenth,A3
121,Left,1,41,86,22.5,0.239583,Sixteenth,F2
123,Right,0,62,87,22.75,0.239583,Sixteenth,D4
124,Left,1,53,87,22.75,0.239583,Sixteenth,F3
125,Right,0,55,87,23.0,0.239583,Sixteenth,G3
126,Left,1,43,87,23.0,0.239583,Sixteenth,G2
128,Right,0,60,88,23.25,0.239583,Sixteenth,C4
127,Left,1,52,88,23.25,0.239583,Sixteenth,E3
130,Right,0,53,89,23.5,0.239583,Sixteenth,F3
129,Left,1,43,89,23.5,0.239583,Sixteenth,G2
132,Right,0,59,89,23.75,0.239583,Sixteenth,B3
131,Left,1,50,89,23.75,0.239583,Sixteenth,D3
133,Left,1,36,80,24.0,0.239583,Sixteenth,C2
134,Right,0,48,80,24.0,0.239583,Sixteenth,C3
136,Right,0,52,80,24.25,0.239583,Sixteenth,E3
135,Left,1,48,100,24.25,1.739583,DottedQuarter,C3
137,Right,0,55,80,24.5,0.239583,Sixteenth,G3
138,Right,0,60,80,24.75,0.239583,Sixteenth,C4
139,Right,0,51,80,25.0,0.239583,Sixteenth,D#3
140,Right,0,59,80,25.25,0.239583,Sixteenth,B3
141,Right,0,52,80,25.5,0.239583,Sixteenth,E3
142,Right,0,60,80,25.75,0.239583,Sixteenth,C4
143,Left,1,36,80,26.0,0.239583,Sixteenth,C2
144,Right,0,52,80,26.0,0.239583,Sixteenth,E3
146,Left,1,48,101,26.25,1.739583,DottedQuarter,C3
145,Right,0,55,80,26.25,0.239583,Sixteenth,G3
147,Right,0,60,80,26.5,0.239583,Sixteenth,C4
148,Right,0,64,80,26.75,0.239583,Sixteenth,E4
149,Right,0,59,80,27.0,0.239583,Sixteenth,B3
150,Right,0,63,80,27.25,0.239583,Sixteenth,D#4
151,Right,0,60,80,27.5,0.239583,Sixteenth,C4
152,Right,0,64,80,27.75,0.239583,Sixteenth,E4
153,Right,0,60,80,28.0,0.239583,Sixteenth,C4
154,Left,1,36,80,28.0,0.239583,Sixteenth,C2
156,Right,0,64,80,28.25,0.239583,Sixteenth,E4
155,Left,1,48,100,28.25,0.739583,DottedEighth,C3
157,Right,0,67,81,28.5,0.239583,Sixteenth,G4
158,Right,0,72,81,28.75,0.239583,Sixteenth,C5
160,Right,0,63,82,29.0,0.239583,Sixteenth,D#4
159,Left,1,36,83,29.0,0.239583,Sixteenth,C2
162,Right,0,71,83,29.25,0.239583,Sixteenth,B4
161,Left,1,48,102,29.25,0.739583,DottedEighth,C3
163,Right,0,64,83,29.5,0.239583,Sixteenth,E4
164,Right,0,72,84,29.75,0.239583,Sixteenth,C5
166,Left,1,36,80,30.0,0.239583,Sixteenth,C2
165,Right,0,71,85,30.0,0.239583,Sixteenth,B4
167,Left,1,48,101,30.25,0.739583,DottedEighth,C3
168,Right,0,75,85,30.25,0.239583,Sixteenth,D#5
169,Right,0,72,86,30.5,0.239583,Sixteenth,C5
170,Right,0,76,87,30.75,0.239583,Sixteenth,E5
172,Left,1,36,80,31.0,0.239583,Sixteenth,C2
171,Right,0,75,87,31.0,0.239583,Sixteenth,D#5
174,Left,1,48,100,31.25,0.739583,DottedEighth,C3
173,Right,0,78,88,31.25,0.239583,Sixteenth,F#5
175,Right,0,76,89,31.5,0.239583,Sixteenth,E5
176,Right,0,79,89,31.75,0.239583,Sixteenth,G5
178,Right,0,84,80,32.0,0.239583,Sixteenth,C6
177,Left,1,36,80,32.0,1.239583,TiedQuarter-Sixteenth,C2
179,Right,0,72,80,32.25,0.239583,Sixteenth,C5
180,Right,0,74,80,32.5,0.239583,Sixteenth,D5
181,Right,0,76,80,32.75,0.239583,Sixteenth,E5
182,Right,0,77,80,33.0,0.239583,Sixteenth,F5
183,Right,0,79,80,33.25,0.239583,Sixteenth,G5
184,Left,1,48,80,33.25,0.239583,Sixteenth,C3
186,Left,1,47,80,33.5,0.239583,Sixteenth,B2
185,Right,0,81,80,33.5,0.239583,Sixteenth,A5
188,Left,1,45,80,33.75,0.239583,Sixteenth,A2
187,Right,0,83,80,33.75,0.239583,Sixteenth,B5
189,Left,1,43,80,34.0,0.239583,Sixteenth,G2
190,Right,0,84,80,34.0,0.239583,Sixteenth,C6
191,Right,0,72,80,34.25,0.239583,Sixteenth,C5
192,Left,1,41,80,34.25,0.239583,Sixteenth,F2
193,Right,0,74,80,34.5,0.239583,Sixteenth,D5
194,Left,1,40,80,34.5,0.239583,Sixteenth,E2
196,Right,0,76,80,34.75,0.239583,Sixteenth,E5
195,Left,1,38,80,34.75,0.239583,Sixteenth,D2
197,Right,0,77,80,35.0,0.239583,Sixteenth,F5
198,Left,1,36,80,35.0,0.239583,Sixteenth,C2
200,Left,1,48,80,35.25,0.239583,Sixteenth,C3
199,Right,0,79,80,35.25,0.239583,Sixteenth,G5
201,Right,0,81,80,35.5,0.239583,Sixteenth,A5
202,Left,1,47,80,35.5,0.239583,Sixteenth,B2
204,Left,1,45,80,35.75,0.239583,Sixteenth,A2
203,Right,0,83,80,35.75,0.239583,Sixteenth,B5
206,Left,1,43,80,36.0,0.239583,Sixteenth,G2
205,Right,0,84,80,36.0,0.489583,Eighth,C6
207,Left,1,41,80,36.25,0.239583,Sixteenth,F2
208,Left,1,40,80,36.5,0.239583,Sixteenth,E2
209,Left,1,38,80,36.75,0.239583,Sixteenth,D2
210,Left,1,36,80,37.0,0.239583,Sixteenth,C2
211,Right,0,52,80,37.0,0.489583,Eighth,G3_E3_C4
214,Left,1,38,80,37.25,0.239583,Sixteenth,D2
215,Left,1,40,80,37.5,0.239583,Sixteenth,E2
216,Left,1,41,80,37.75,0.239583,Sixteenth,F2
217,Left,1,43,80,38.0,0.239583,Sixteenth,G2
218,Left,1,45,80,38.25,0.239583,Sixteenth,A2
219,Left,1,46,80,38.5,0.239583,Sixteenth,A#2
220,Left,1,45,80,38.75,0.239583,Sixteenth,A2
221,Left,1,48,80,39.0,0.239583,Sixteenth,C3
222,Left,1,46,80,39.25,0.239583,Sixteenth,A#2
223,Left,1,45,80,39.5,0.239583,Sixteenth,A2
224,Left,1,43,80,39.75,0.239583,Sixteenth,G2
225,Left,1,41,80,40.0,0.239583,Sixteenth,F2
226,Left,1,45,80,40.25,0.239583,Sixteenth,A2
227,Left,1,48,80,40.5,0.239583,Sixteenth,C3
228,Left,1,53,80,40.75,0.239583,Sixteenth,F3
229,Left,1,43,80,41.0,0.239583,Sixteenth,G2
230,Left,1,52,80,41.25,0.239583,Sixteenth,E3
231,Left,1,45,80,41.5,0.239583,Sixteenth,A2
232,Left,1,53,80,41.75,0.239583,Sixteenth,F3
233,Left,1,46,80,42.0,0.239583,Sixteenth,A#2
234,Left,1,55,80,42.25,0.239583,Sixteenth,G3
235,Left,1,48,80,42.5,0.239583,Sixteenth,C3
236,Left,1,57,80,42.75,0.239583,Sixteenth,A3
237,Left,1,50,80,43.0,0.239583,Sixteenth,D3
238,Left,1,58,80,43.25,0.239583,Sixteenth,A#3
239,Left,1,52,80,43.5,0.239583,Sixteenth,E3
240,Left,1,60,80,43.75,0.239583,Sixteenth,C4
241,Left,1,57,80,44.0,0.239583,Sixteenth,A3
243,Right,0,57,80,44.25,0.239583,Sixteenth,A3
242,Left,1,53,101,44.25,3.739583,Whole,F3
244,Right,0,60,80,44.5,0.239583,Sixteenth,C4
245,Right,0,65,80,44.75,0.239583,Sixteenth,F4
246,Right,0,55,80,45.0,0.239583,Sixteenth,G3
247,Right,0,64,80,45.25,0.239583,Sixteenth,E4
248,Right,0,57,80,45.5,0.239583,Sixteenth,A3
249,Right,0,65,80,45.75,0.239583,Sixteenth,F4
250,Right,0,58,80,46.0,0.239583,Sixteenth,A#3
251,Right,0,67,80,46.25,0.239583,Sixteenth,G4
252,Right,0,60,80,46.5,0.239583,Sixteenth,C4
253,Right,0,69,80,46.75,0.239583,Sixteenth,A4
254,Right,0,62,80,47.0,0.239583,Sixteenth,D4
255,Right,0,70,80,47.25,0.239583,Sixteenth,A#4
256,Right,0,64,80,47.5,0.239583,Sixteenth,E4
257,Right,0,72,80,47.75,0.239583,Sixteenth,C5
259,Right,0,69,80,48.0,0.239583,Sixteenth,A4
258,Left,1,53,80,48.0,0.239583,Sixteenth,F3
260,Left,1,57,80,48.25,0.239583,Sixteenth,A3
261,Right,0,65,80,48.25,0.239583,Sixteenth,F4
263,Right,0,72,103,48.5,3.489583,DottedHalf,C5
262,Left,1,60,80,48.5,0.239583,Sixteenth,C4
264,Left,1,65,80,48.75,0.239583,Sixteenth,F4
265,Left,1,55,80,49.0,0.239583,Sixteenth,G3
266,Left,1,64,80,49.25,0.239583,Sixteenth,E4
267,Left,1,57,80,49.5,0.239583,Sixteenth,A3
268,Left,1,65,80,49.75,0.239583,Sixteenth,F4
269,Left,1,58,80,50.0,0.239583,Sixteenth,A#3
270,Left,1,67,80,50.25,0.239583,Sixteenth,G4
271,Left,1,60,80,50.5,0.239583,Sixteenth,C4
272,Left,1,69,80,50.75,0.239583,Sixteenth,A4
273,Left,1,62,80,51.0,0.239583,Sixteenth,D4
274,Left,1,70,80,51.25,0.239583,Sixteenth,A#4
275,Left,1,64,80,51.5,0.239583,Sixteenth,E4
276,Left,1,72,80,51.75,0.239583,Sixteenth,C5
277,Left,1,69,80,52.0,0.239583,Sixteenth,A4
279,Left,1,65,102,52.25,3.739583,Whole,F4
278,Right,0,69,80,52.25,0.239583,Sixteenth,A4
280,Right,0,72,80,52.5,0.239583,Sixteenth,C5
281,Right,0,77,80,52.75,0.239583,Sixteenth,F5
282,Right,0,67,80,53.0,0.239583,Sixteenth,G4
283,Right,0,76,80,53.25,0.239583,Sixteenth,E5
284,Right,0,69,80,53.5,0.239583,Sixteenth,A4
285,Right,0,77,80,53.75,0.239583,Sixteenth,F5
286,Right,0,70,80,54.0,0.239583,Sixteenth,A#4
287,Right,0,79,80,54.25,0.239583,Sixteenth,G5
288,Right,0,72,80,54.5,0.239583,Sixteenth,C5
289,Right,0,81,80,54.75,0.239583,Sixteenth,A5
290,Right,0,74,80,55.0,0.239583,Sixteenth,D5
291,Right,0,82,80,55.25,0.239583,Sixteenth,A#5
292,Right,0,76,80,55.5,0.239583,Sixteenth,E5
293,Right,0,84,80,55.75,0.239583,Sixteenth,C6
294,Right,0,81,80,56.0,0.239583,Sixteenth,A5
295,Left,1,65,80,56.0,0.239583,Sixteenth,F4
297,Left,1,69,80,56.25,0.239583,Sixteenth,A4
296,Right,0,77,80,56.25,0.239583,Sixteenth,F5
299,Left,1,60,80,56.5,0.239583,Sixteenth,C4
298,Right,0,84,80,56.5,0.239583,Sixteenth,C6
300,Left,1,67,80,56.75,0.239583,Sixteenth,G4
301,Right,0,76,80,56.75,0.239583,Sixteenth,E5
302,Left,1,62,80,57.0,0.239583,Sixteenth,D4
303,Right,0,77,80,57.0,0.239583,Sixteenth,F5
305,Left,1,65,80,57.25,0.239583,Sixteenth,F4
304,Right,0,74,80,57.25,0.239583,Sixteenth,D5
306,Right,0,81,80,57.5,0.239583,Sixteenth,A5
307,Left,1,57,80,57.5,0.239583,Sixteenth,A3
309,Left,1,64,80,57.75,0.239583,Sixteenth,E4
308,Right,0,72,80,57.75,0.239583,Sixteenth,C5
311,Left,1,58,80,58.0,0.239583,Sixteenth,A#3
310,Right,0,74,80,58.0,0.239583,Sixteenth,D5
312,Right,0,70,80,58.25,0.239583,Sixteenth,A#4
313,Left,1,62,80,58.25,0.239583,Sixteenth,D4
315,Left,1,53,80,58.5,0.239583,Sixteenth,F3
314,Right,0,77,80,58.5,0.239583,Sixteenth,F5
316,Right,0,69,80,58.75,0.239583,Sixteenth,A4
317,Left,1,60,80,58.75,0.239583,Sixteenth,C4
318,Right,0,70,80,59.0,0.239583,Sixteenth,A#4
319,Left,1,55,80,59.0,0.239583,Sixteenth,G3
320,Right,0,67,80,59.25,0.239583,Sixteenth,G4
321,Left,1,58,80,59.25,0.239583,Sixteenth,A#3
322,Right,0,74,80,59.5,0.239583,Sixteenth,D5
323,Left,1,50,80,59.5,0.239583,Sixteenth,D3
324,Right,0,65,80,59.75,0.239583,Sixteenth,F4
325,Left,1,57,80,59.75,0.239583,Sixteenth,A3
326,Right,0,67,80,60.0,0.239583,Sixteenth,G4
327,Left,1,46,80,60.0,0.239583,Sixteenth,A#2
329,Left,1,55,80,60.25,0.239583,Sixteenth,G3
328,Right,0,62,80,60.25,0.239583,Sixteenth,D4
331,Left,1,46,80,60.5,0.239583,Sixteenth,A#2
330,Right,0,70,80,60.5,0.239583,Sixteenth,A#4
333,Left,1,55,80,60.75,0.239583,Sixteenth,G3
332,Right,0,62,80,60.75,0.239583,Sixteenth,D4
335,Right,0,67,80,61.0,0.239583,Sixteenth,G4
334,Left,1,46,80,61.0,0.239583,Sixteenth,A#2
336,Left,1,55,80,61.25,0.239583,Sixteenth,G3
337,Right,0,62,80,61.25,0.239583,Sixteenth,D4
338,Left,1,47,80,61.5,0.239583,Sixteenth,B2
339,Right,0,65,80,61.5,0.239583,Sixteenth,F4
340,Left,1,55,80,61.75,0.239583,Sixteenth,G3
341,Right,0,62,80,61.75,0.239583,Sixteenth,D4
343,Left,1,48,80,62.0,0.239583,Sixteenth,C3
342,Right,0,64,80,62.0,0.239583,Sixteenth,E4
344,Left,1,55,80,62.25,0.239583,Sixteenth,G3
345,Right,0,60,80,62.25,0.239583,Sixteenth,C4
347,Left,1,41,80,62.5,0.239583,Sixteenth,F2
346,Right,0,57,80,62.5,0.239583,Sixteenth,A3
348,Left,1,53,80,62.75,0.239583,Sixteenth,F3
349,Right,0,62,80,62.75,0.239583,Sixteenth,D4
351,Right,0,55,80,63.0,0.239583,Sixteenth,G3
350,Left,1,43,80,63.0,0.239583,Sixteenth,G2
352,Left,1,52,80,63.25,0.239583,Sixteenth,E3
353,Right,0,60,80,63.25,0.239583,Sixteenth,C4
355,Right,0,53,80,63.5,0.239583,Sixteenth,F3
354,Left,1,43,80,63.5,0.239583,Sixteenth,G2
357,Right,0,59,80,63.75,0.239583,Sixteenth,B3
356,Left,1,50,80,63.75,0.239583,Sixteenth,D3
359,Right,0,48,80,64.0,0.239583,Sixteenth,C3
358,Left,1,36,80,64.0,0.239583,Sixteenth,C2
361,Right,0,52,80,64.25,0.239583,Sixteenth,E3
360,Left,1,48,95,64.25,1.739583,DottedQuarter,C3
362,Right,0,55,80,64.5,0.239583,Sixteenth,G3
363,Right,0,60,80,64.75,0.239583,Sixteenth,C4
364,Right,0,51,80,65.0,0.239583,Sixteenth,D#3
365,Right,0,59,80,65.25,0.239583,Sixteenth,B3
366,Right,0,52,80,65.5,0.239583,Sixteenth,E3
367,Right,0,60,80,65.75,0.239583,Sixteenth,C4
368,Left,1,36,80,66.0,0.239583,Sixteenth,C2
369,Right,0,52,80,66.0,0.239583,Sixteenth,E3
371,Right,0,55,80,66.25,0.239583,Sixteenth,G3
370,Left,1,48,95,66.25,1.739583,DottedQuarter,C3
372,Right,0,60,80,66.5,0.239583,Sixteenth,C4
373,Right,0,64,80,66.75,0.239583,Sixteenth,E4
374,Right,0,59,80,67.0,0.239583,Sixteenth,B3
375,Right,0,63,80,67.25,0.239583,Sixteenth,D#4
376,Right,0,60,80,67.5,0.239583,Sixteenth,C4
377,Right,0,64,80,67.75,0.239583,Sixteenth,E4
378,Left,1,36,80,68.0,0.239583,Sixteenth,C2
379,Right,0,60,80,68.0,0.239583,Sixteenth,C4
380,Left,1,48,90,68.25,0.739583,DottedEighth,C3
381,Right,0,64,81,68.25,0.239583,Sixteenth,E4
382,Right,0,67,82,68.5,0.239583,Sixteenth,G4
383,Right,0,72,83,68.75,0.239583,Sixteenth,C5
385,Right,0,63,85,69.0,0.239583,Sixteenth,D#4
384,Left,1,36,85,69.0,0.239583,Sixteenth,C2
387,Right,0,71,86,69.25,0.239583,Sixteenth,B4
386,Left,1,48,98,69.25,0.739583,DottedEighth,C3
388,Right,0,64,87,69.5,0.239583,Sixteenth,E4
389,Right,0,72,89,69.75,0.239583,Sixteenth,C5
391,Left,1,36,90,70.0,0.239583,Sixteenth,C2
390,Right,0,71,90,70.0,0.239583,Sixteenth,B4
393,Left,1,48,103,70.25,0.739583,DottedEighth,C3
392,Right,0,75,91,70.25,0.239583,Sixteenth,D#5
394,Right,0,72,93,70.5,0.239583,Sixteenth,C5
395,Right,0,76,94,70.75,0.239583,Sixteenth,E5
396,Left,1,36,95,71.0,0.239583,Sixteenth,C2
397,Right,0,75,95,71.0,0.239583,Sixteenth,D#5
398,Right,0,78,97,71.25,0.239583,Sixteenth,F#5
399,Left,1,48,110,71.25,0.739583,DottedEighth,C3
400,Right,0,76,98,71.5,0.239583,Sixteenth,E5
401,Right,0,79,99,71.75,0.239583,Sixteenth,G5
403,Right,0,84,80,72.0,0.239583,Sixteenth,C6
402,Left,1,36,80,72.0,1.239583,TiedQuarter-Sixteenth,C2
404,Right,0,72,80,72.25,0.239583,Sixteenth,C5
405,Right,0,74,80,72.5,0.239583,Sixteenth,D5
406,Right,0,76,80,72.75,0.239583,Sixteenth,E5
407,Right,0,77,80,73.0,0.239583,Sixteenth,F5
409,Left,1,48,80,73.25,0.239583,Sixteenth,C3
408,Right,0,79,80,73.25,0.239583,Sixteenth,G5
410,Left,1,47,80,73.5,0.239583,Sixteenth,B2
411,Right,0,81,80,73.5,0.239583,Sixteenth,A5
412,Right,0,83,80,73.75,0.239583,Sixteenth,B5
413,Left,1,45,80,73.75,0.239583,Sixteenth,A2
414,Right,0,84,80,74.0,0.239583,Sixteenth,C6
415,Left,1,43,80,74.0,0.239583,Sixteenth,G2
416,Left,1,41,80,74.25,0.239583,Sixteenth,F2
417,Right,0,72,80,74.25,0.239583,Sixteenth,C5
419,Left,1,40,80,74.5,0.239583,Sixteenth,E2
418,Right,0,74,80,74.5,0.239583,Sixteenth,D5
420,Left,1,38,80,74.75,0.239583,Sixteenth,D2
421,Right,0,76,80,74.75,0.239583,Sixteenth,E5
422,Left,1,36,80,75.0,0.239583,Sixteenth,C2
423,Right,0,77,80,75.0,0.239583,Sixteenth,F5
424,Left,1,48,80,75.25,0.239583,Sixteenth,C3
425,Right,0,79,80,75.25,0.239583,Sixteenth,G5
427,Right,0,81,80,75.5,0.239583,Sixteenth,A5
426,Left,1,47,80,75.5,0.239583,Sixteenth,B2
429,Right,0,83,80,75.75,0.239583,Sixteenth,B5
428,Left,1,45,80,75.75,0.239583,Sixteenth,A2
430,Right,0,84,80,76.0,0.489583,Eighth,C6
431,Left,1,43,80,76.0,0.239583,Sixteenth,G2
432,Left,1,41,80,76.25,0.239583,Sixteenth,F2
433,Left,1,40,80,76.5,0.239583,Sixteenth,E2
434,Left,1,38,80,76.75,0.239583,Sixteenth,D2
438,Left,1,36,80,77.0,0.239583,Sixteenth,C2
435,Right,0,52,80,77.0,0.489583,Eighth,G3_E3_C4
439,Left,1,38,80,77.25,0.239583,Sixteenth,D2
440,Left,1,40,80,77.5,0.239583,Sixteenth,E2
441,Left,1,41,80,77.75,0.239583,Sixteenth,F2
442,Left,1,43,80,78.0,0.239583,Sixteenth,G2
443,Left,1,45,80,78.25,0.239583,Sixteenth,A2
444,Left,1,46,80,78.5,0.239583,Sixteenth,A#2
445,Left,1,45,80,78.75,0.239583,Sixteenth,A2
446,Left,1,46,80,79.0,0.166667,TripletSixteenth,A#2
447,Left,1,48,80,79.125,0.197917,TripletSixteenth,C3
448,Left,1,46,80,79.25,0.1875,TripletSixteenth,A#2
449,Left,1,48,80,79.375,0.1875,TripletSixteenth,C3
450,Left,1,46,80,79.5,0.1875,TripletSixteenth,A#2
451,Left,1,48,80,79.625,0.208333,Sixteenth,C3
452,Left,1,45,80,79.75,0.208333,Sixteenth,A2
453,Left,1,46,80,79.875,0.114583,ThirtySecond,A#2
454,Left,1,45,80,80.0,0.239583,Sixteenth,A2
455,Left,1,49,80,80.25,0.239583,Sixteenth,C#3
456,Left,1,52,80,80.5,0.239583,Sixteenth,E3
457,Left,1,57,80,80.75,0.239583,Sixteenth,A3
458,Left,1,47,80,81.0,0.239583,Sixteenth,B2
459,Left,1,56,80,81.25,0.239583,Sixteenth,G#3
460,Left,1,49,80,81.5,0.239583,Sixteenth,C#3
461,Left,1,57,80,81.75,0.239583,Sixteenth,A3
462,Left,1,50,80,82.0,0.239583,Sixteenth,D3
463,Left,1,59,80,82.25,0.239583,Sixteenth,B3
464,Left,1,52,80,82.5,0.239583,Sixteenth,E3
465,Left,1,61,80,82.75,0.239583,Sixteenth,C#4
466,Left,1,54,80,83.0,0.239583,Sixteenth,F#3
467,Left,1,62,80,83.25,0.239583,Sixteenth,D4
468,Left,1,56,80,83.5,0.239583,Sixteenth,G#3
469,Left,1,64,80,83.75,0.239583,Sixteenth,E4
471,Left,1,61,80,84.0,0.239583,Sixteenth,C#4
470,Right,0,57,80,84.0,0.239583,Sixteenth,A3
472,Left,1,57,103,84.25,3.739583,Whole,A3
473,Right,0,61,80,84.25,0.239583,Sixteenth,C#4
474,Right,0,64,80,84.5,0.239583,Sixteenth,E4
475,Right,0,69,80,84.75,0.239583,Sixteenth,A4
476,Right,0,59,80,85.0,0.239583,Sixteenth,B3
477,Right,0,68,80,85.25,0.239583,Sixteenth,G#4
478,Right,0,61,80,85.5,0.239583,Sixteenth,C#4
479,Right,0,69,80,85.75,0.239583,Sixteenth,A4
480,Right,0,62,80,86.0,0.239583,Sixteenth,D4
481,Right,0,71,80,86.25,0.239583,Sixteenth,B4
482,Right,0,64,80,86.5,0.239583,Sixteenth,E4
483,Right,0,73,80,86.75,0.239583,Sixteenth,C#5
484,Right,0,66,80,87.0,0.239583,Sixteenth,F#4
485,Right,0,74,80,87.25,0.239583,Sixteenth,D5
486,Right,0,68,80,87.5,0.239583,Sixteenth,G#4
487,Right,0,76,80,87.75,0.239583,Sixteenth,E5
489,Right,0,73,80,88.0,0.239583,Sixteenth,C#5
488,Left,1,57,80,88.0,0.239583,Sixteenth,A3
490,Right,0,69,80,88.25,0.239583,Sixteenth,A4
491,Left,1,61,80,88.25,0.239583,Sixteenth,C#4
492,Right,0,76,101,88.5,3.489583,DottedHalf,E5
493,Left,1,64,80,88.5,0.239583,Sixteenth,E4
494,Left,1,69,80,88.75,0.239583,Sixteenth,A4
495,Left,1,59,80,89.0,0.239583,Sixteenth,B3
496,Left,1,68,80,89.25,0.239583,Sixteenth,G#4
497,Left,1,61,80,89.5,0.239583,Sixteenth,C#4
498,Left,1,69,80,89.75,0.239583,Sixteenth,A4
499,Left,1,62,80,90.0,0.239583,Sixteenth,D4
500,Left,1,71,80,90.25,0.239583,Sixteenth,B4
501,Left,1,64,80,90.5,0.239583,Sixteenth,E4
502,Left,1,73,80,90.75,0.239583,Sixteenth,C#5
503,Left,1,66,80,91.0,0.239583,Sixteenth,F#4
504,Left,1,74,80,91.25,0.239583,Sixteenth,D5
505,Left,1,68,80,91.5,0.239583,Sixteenth,G#4
506,Left,1,76,80,91.75,0.239583,Sixteenth,E5
507,Left,1,73,80,92.0,0.239583,Sixteenth,C#5
509,Left,1,69,80,92.25,2.239583,Half,A4
508,Right,0,73,80,92.25,0.239583,Sixteenth,C#5
510,Right,0,76,80,92.5,0.239583,Sixteenth,E5
511,Right,0,81,80,92.75,0.239583,Sixteenth,A5
512,Right,0,71,80,93.0,0.239583,Sixteenth,B4
513,Right,0,80,80,93.25,0.239583,Sixteenth,G#5
514,Right,0,73,80,93.5,0.239583,Sixteenth,C#5
515,Right,0,81,80,93.75,0.239583,Sixteenth,A5
516,Right,0,74,80,94.0,0.239583,Sixteenth,D5
517,Right,0,83,80,94.25,0.239583,Sixteenth,B5
519,Right,0,76,80,94.5,0.239583,Sixteenth,E5
518,Left,1,79,80,94.5,0.489583,Eighth,G5
520,Right,0,85,80,94.75,0.239583,Sixteenth,C#6
521,Left,1,77,80,95.0,0.489583,Eighth,F5
522,Right,0,81,80,95.0,0.239583,Sixteenth,A5
523,Right,0,86,80,95.25,0.239583,Sixteenth,D6
524,Left,1,73,80,95.5,0.489583,Eighth,C#5
525,Right,0,81,80,95.5,0.239583,Sixteenth,A5
526,Right,0,88,80,95.75,0.239583,Sixteenth,E6
527,Right,0,89,80,96.0,0.239583,Sixteenth,F6
528,Left,1,74,80,96.0,0.239583,Sixteenth,D5
530,Left,1,77,80,96.25,0.239583,Sixteenth,F5
529,Right,0,81,80,96.25,0.239583,Sixteenth,A5
532,Left,1,69,80,96.5,0.239583,Sixteenth,A4
531,Right,0,88,80,96.5,0.239583,Sixteenth,E6
533,Right,0,84,80,96.75,0.239583,Sixteenth,C6
534,Left,1,76,80,96.75,0.239583,Sixteenth,E5
536,Right,0,86,80,97.0,0.239583,Sixteenth,D6
535,Left,1,70,80,97.0,0.239583,Sixteenth,A#4
538,Left,1,74,80,97.25,0.239583,Sixteenth,D5
537,Right,0,77,80,97.25,0.239583,Sixteenth,F5
540,Right,0,84,80,97.5,0.239583,Sixteenth,C6
539,Left,1,65,80,97.5,0.239583,Sixteenth,F4
542,Left,1,72,80,97.75,0.239583,Sixteenth,C5
541,Right,0,81,80,97.75,0.239583,Sixteenth,A5
544,Right,0,82,80,98.0,0.239583,Sixteenth,A#5
543,Left,1,67,80,98.0,0.239583,Sixteenth,G4
546,Right,0,74,80,98.25,0.239583,Sixteenth,D5
545,Left,1,70,80,98.25,0.239583,Sixteenth,A#4
548,Right,0,81,80,98.5,0.239583,Sixteenth,A5
547,Left,1,62,80,98.5,0.239583,Sixteenth,D4
549,Left,1,69,80,98.75,0.239583,Sixteenth,A4
550,Right,0,77,80,98.75,0.239583,Sixteenth,F5
551,Left,1,63,80,99.0,0.239583,Sixteenth,D#4
552,Right,0,79,80,99.0,0.239583,Sixteenth,G5
554,Left,1,67,80,99.25,0.239583,Sixteenth,G4
553,Right,0,70,80,99.25,0.239583,Sixteenth,A#4
556,Right,0,82,80,99.5,0.239583,Sixteenth,A#5
555,Left,1,62,80,99.5,0.239583,Sixteenth,D4
557,Right,0,77,80,99.75,0.239583,Sixteenth,F5
558,Left,1,65,80,99.75,0.239583,Sixteenth,F4
559,Right,0,81,80,100.0,0.239583,Sixteenth,A5
560,Left,1,61,80,100.0,0.239583,Sixteenth,C#4
561,Right,0,76,80,100.25,0.239583,Sixteenth,E5
562,Left,1,64,80,100.25,0.239583,Sixteenth,E4
563,Left,1,57,80,100.5,0.239583,Sixteenth,A3
564,Right,0,73,80,100.5,0.239583,Sixteenth,C#5
566,Right,0,79,80,100.75,0.239583,Sixteenth,G5
565,Left,1,64,80,100.75,0.239583,Sixteenth,E4
567,Right,0,77,80,101.0,0.239583,Sixteenth,F5
568,Left,1,58,80,101.0,0.239583,Sixteenth,A#3
570,Right,0,74,80,101.25,0.239583,Sixteenth,D5
569,Left,1,62,80,101.25,0.239583,Sixteenth,D4
572,Right,0,70,80,101.5,0.239583,Sixteenth,A#4
571,Left,1,55,80,101.5,0.239583,Sixteenth,G3
573,Left,1,67,80,101.75,0.239583,Sixteenth,G4
574,Right,0,76,80,101.75,0.239583,Sixteenth,E5
575,Right,0,69,80,102.0,0.239583,Sixteenth,A4
576,Left,1,57,80,102.0,0.239583,Sixteenth,A3
577,Right,0,74,80,102.25,0.239583,Sixteenth,D5
578,Left,1,65,80,102.25,0.239583,Sixteenth,F4
579,Left,1,57,80,102.5,0.239583,Sixteenth,A3
580,Right,0,68,80,102.5,0.239583,Sixteenth,G#4
582,Left,1,65,80,102.75,0.239583,Sixteenth,F4
581,Right,0,74,80,102.75,0.239583,Sixteenth,D5
583,Right,0,67,80,103.0,0.239583,Sixteenth,G4
584,Left,1,57,80,103.0,0.239583,Sixteenth,A3
586,Right,0,74,80,103.25,0.239583,Sixteenth,D5
585,Left,1,64,80,103.25,0.239583,Sixteenth,E4
588,Right,0,73,80,103.5,0.239583,Sixteenth,C#5
587,Left,1,57,80,103.5,0.239583,Sixteenth,A3
589,Left,1,64,80,103.75,0.239583,Sixteenth,E4
590,Right,0,79,80,103.75,0.239583,Sixteenth,G5
591,Right,0,77,80,104.0,0.239583,Sixteenth,F5
592,Left,1,62,80,104.0,0.239583,Sixteenth,D4
594,Right,0,74,80,104.25,0.239583,Sixteenth,D5
593,Left,1,65,80,104.25,0.239583,Sixteenth,F4
595,Right,0,81,80,104.5,0.239583,Sixteenth,A5
596,Left,1,57,80,104.5,0.239583,Sixteenth,A3
598,Right,0,72,80,104.75,0.239583,Sixteenth,C5
597,Left,1,64,80,104.75,0.239583,Sixteenth,E4
599,Left,1,58,80,105.0,0.239583,Sixteenth,A#3
600,Right,0,74,80,105.0,0.239583,Sixteenth,D5
602,Right,0,70,80,105.25,0.239583,Sixteenth,A#4
601,Left,1,62,80,105.25,0.239583,Sixteenth,D4
604,Right,0,77,80,105.5,0.239583,Sixteenth,F5
603,Left,1,53,80,105.5,0.239583,Sixteenth,F3
606,Left,1,60,80,105.75,0.239583,Sixteenth,C4
605,Right,0,69,80,105.75,0.239583,Sixteenth,A4
607,Right,0,70,80,106.0,0.239583,Sixteenth,A#4
608,Left,1,55,80,106.0,0.239583,Sixteenth,G3
610,Right,0,67,80,106.25,0.239583,Sixteenth,G4
609,Left,1,58,80,106.25,0.239583,Sixteenth,A#3
611,Right,0,74,80,106.5,0.239583,Sixteenth,D5
612,Left,1,50,80,106.5,0.239583,Sixteenth,D3
614,Right,0,65,80,106.75,0.239583,Sixteenth,F4
613,Left,1,57,80,106.75,0.239583,Sixteenth,A3
615,Left,1,51,80,107.0,0.239583,Sixteenth,D#3
616,Right,0,67,80,107.0,0.239583,Sixteenth,G4
618,Left,1,55,80,107.25,0.239583,Sixteenth,G3
617,Right,0,63,80,107.25,0.239583,Sixteenth,D#4
619,Left,1,50,80,107.5,0.239583,Sixteenth,D3
620,Right,0,70,80,107.5,0.239583,Sixteenth,A#4
621,Left,1,53,80,107.75,0.239583,Sixteenth,F3
622,Right,0,58,80,107.75,0.239583,Sixteenth,A#3
623,Right,0,69,80,108.0,0.239583,Sixteenth,A4
624,Left,1,49,80,108.0,0.239583,Sixteenth,C#3
626,Right,0,64,81,108.25,0.239583,Sixteenth,E4
625,Left,1,52,81,108.25,0.239583,Sixteenth,E3
627,Right,0,61,82,108.5,0.239583,Sixteenth,C#4
628,Left,1,45,82,108.5,0.239583,Sixteenth,A2
629,Right,0,67,83,108.75,0.239583,Sixteenth,G4
630,Left,1,52,83,108.75,0.239583,Sixteenth,E3
631,Left,1,46,85,109.0,0.239583,Sixteenth,A#2
632,Right,0,65,85,109.0,0.239583,Sixteenth,F4
633,Right,0,62,86,109.25,0.239583,Sixteenth,D4
634,Left,1,50,86,109.25,0.239583,Sixteenth,D3
635,Left,1,43,87,109.5,0.239583,Sixteenth,G2
636,Right,0,58,87,109.5,0.239583,Sixteenth,A#3
638,Left,1,55,89,109.75,0.239583,Sixteenth,G3
637,Right,0,64,89,109.75,0.239583,Sixteenth,E4
639,Left,1,45,90,110.0,0.239583,Sixteenth,A2
640,Right,0,62,90,110.0,0.239583,Sixteenth,D4
641,Right,0,57,91,110.25,0.239583,Sixteenth,A3
642,Left,1,53,91,110.25,0.239583,Sixteenth,F3
643,Left,1,45,93,110.5,0.239583,Sixteenth,A2
644,Right,0,56,93,110.5,0.239583,Sixteenth,G#3
645,Left,1,53,94,110.75,0.239583,Sixteenth,F3
646,Right,0,62,94,110.75,0.239583,Sixteenth,D4
647,Left,1,45,95,111.0,0.239583,Sixteenth,A2
648,Right,0,55,95,111.0,0.239583,Sixteenth,G3
649,Right,0,62,97,111.25,0.239583,Sixteenth,D4
650,Left,1,52,97,111.25,0.239583,Sixteenth,E3
651,Left,1,45,98,111.5,0.239583,Sixteenth,A2
652,Right,0,55,98,111.5,0.239583,Sixteenth,G3
653,Left,1,52,99,111.75,0.239583,Sixteenth,E3
654,Right,0,61,99,111.75,0.239583,Sixteenth,C#4
656,Right,0,48,110,112.0,0.239583,Sixteenth,C3
655,Left,1,44,110,112.0,1.989583,Half,G#2_G#1
658,Right,0,51,110,112.25,0.239583,Sixteenth,D#3
659,Right,0,54,110,112.5,0.239583,Sixteenth,F#3
660,Right,0,60,110,112.75,0.239583,Sixteenth,C4
661,Right,0,59,110,113.0,0.239583,Sixteenth,B3
662,Right,0,60,110,113.25,0.239583,Sixteenth,C4
663,Right,0,51,110,113.5,0.239583,Sixteenth,D#3
664,Right,0,54,110,113.75,0.239583,Sixteenth,F#3
665,Left,1,31,110,114.0,1.989583,Half,G2_G1
667,Right,0,51,110,114.0,0.239583,Sixteenth,D#3
668,Right,0,55,110,114.25,0.239583,Sixteenth,G3
669,Right,0,60,110,114.5,0.239583,Sixteenth,C4
670,Right,0,63,110,114.75,0.239583,Sixteenth,D#4
671,Right,0,62,110,115.0,0.239583,Sixteenth,D4
672,Right,0,63,110,115.25,0.239583,Sixteenth,D#4
673,Right,0,55,110,115.5,0.239583,Sixteenth,G3
674,Right,0,60,110,115.75,0.239583,Sixteenth,C4
675,Right,0,57,110,116.0,0.239583,Sixteenth,A3
676,Left,1,42,110,116.0,1.989583,Half,F#2_F#1
678,Right,0,60,110,116.25,0.239583,Sixteenth,C4
679,Right,0,63,110,116.5,0.239583,Sixteenth,D#4
680,Right,0,69,110,116.75,0.239583,Sixteenth,A4
681,Right,0,68,110,117.0,0.239583,Sixteenth,G#4
682,Right,0,69,110,117.25,0.239583,Sixteenth,A4
683,Right,0,60,110,117.5,0.239583,Sixteenth,C4
684,Right,0,63,110,117.75,0.239583,Sixteenth,D#4
685,Left,1,29,110,118.0,1.989583,Half,F2_F1
687,Right,0,60,110,118.0,0.239583,Sixteenth,C4
688,Right,0,63,110,118.25,0.239583,Sixteenth,D#4
689,Right,0,69,110,118.5,0.239583,Sixteenth,A4
690,Right,0,72,110,118.75,0.239583,Sixteenth,C5
691,Right,0,71,110,119.0,0.239583,Sixteenth,B4
692,Right,0,72,110,119.25,0.239583,Sixteenth,C5
693,Right,0,64,110,119.5,0.239583,Sixteenth,E4
694,Right,0,69,110,119.75,0.239583,Sixteenth,A4
696,Right,0,64,110,120.0,0.239583,Sixteenth,E4
695,Left,1,40,110,120.0,1.989583,Half,E2_E1
698,Right,0,69,110,120.25,0.239583,Sixteenth,A4
699,Right,0,72,110,120.5,0.239583,Sixteenth,C5
700,Right,0,76,110,120.75,0.239583,Sixteenth,E5
701,Right,0,75,110,121.0,0.239583,Sixteenth,D#5
702,Right,0,76,110,121.25,0.239583,Sixteenth,E5
703,Right,0,69,110,121.5,0.239583,Sixteenth,A4
704,Right,0,72,110,121.75,0.239583,Sixteenth,C5
705,Left,1,27,110,122.0,1.989583,Half,D#2_D#1
707,Right,0,66,110,122.0,0.239583,Sixteenth,F#4
708,Right,0,69,110,122.25,0.239583,Sixteenth,A4
709,Right,0,72,110,122.5,0.239583,Sixteenth,C5
710,Right,0,78,110,122.75,0.239583,Sixteenth,F#5
711,Right,0,77,110,123.0,0.239583,Sixteenth,F5
712,Right,0,78,110,123.25,0.239583,Sixteenth,F#5
713,Right,0,69,110,123.5,0.239583,Sixteenth,A4
714,Right,0,72,110,123.75,0.239583,Sixteenth,C5
716,Right,0,69,110,124.0,0.239583,Sixteenth,A4
715,Left,1,38,110,124.0,1.989583,Half,D2_D1
718,Right,0,72,110,124.25,0.239583,Sixteenth,C5
719,Right,0,78,110,124.5,0.239583,Sixteenth,F#5
720,Right,0,81,110,124.75,0.239583,Sixteenth,A5
721,Right,0,80,110,125.0,0.239583,Sixteenth,G#5
722,Right,0,81,110,125.25,0.239583,Sixteenth,A5
723,Right,0,72,110,125.5,0.239583,Sixteenth,C5
724,Right,0,78,110,125.75,0.239583,Sixteenth,F#5
726,Left,1,38,110,126.0,1.989583,Half,D3_D2
725,Right,0,72,110,126.0,0.239583,Sixteenth,C5
728,Right,0,78,110,126.25,0.239583,Sixteenth,F#5
729,Right,0,81,110,126.5,0.239583,Sixteenth,A5
730,Right,0,84,110,126.75,0.239583,Sixteenth,C6
731,Right,0,83,110,127.0,0.239583,Sixteenth,B5
732,Right,0,84,110,127.25,0.239583,Sixteenth,C6
733,Right,0,78,110,127.5,0.239583,Sixteenth,F#5
734,Right,0,81,110,127.75,0.239583,Sixteenth,A5
737,Left,1,31,110,128.0,0.239583,Sixteenth,G1
735,Right,0,79,110,128.0,0.489583,Eighth,G5_D5_B5_B4
740,Left,1,35,110,128.25,0.239583,Sixteenth,B1
741,Left,1,38,110,128.5,0.239583,Sixteenth,D2
742,Left,1,43,110,128.75,0.239583,Sixteenth,G2
745,Left,1,33,110,129.0,0.239583,Sixteenth,A1
743,Right,0,74,110,129.0,0.489583,Eighth,D5_D4
746,Left,1,42,110,129.25,0.239583,Sixteenth,F#2
748,Right,0,62,110,129.5,0.989583,Quarter,D5_D4
747,Left,1,35,110,129.5,0.239583,Sixteenth,B1
750,Left,1,43,110,129.75,0.239583,Sixteenth,G2
751,Left,1,36,110,130.0,0.239583,Sixteenth,C2
752,Left,1,45,110,130.25,0.239583,Sixteenth,A2
754,Right,0,74,110,130.5,0.989583,Quarter,D5_D4
753,Left,1,38,110,130.5,0.239583,Sixteenth,D2
756,Left,1,47,110,130.75,0.239583,Sixteenth,B2
757,Left,1,40,110,131.0,0.239583,Sixteenth,E2
758,Left,1,48,110,131.25,0.239583,Sixteenth,C3
759,Left,1,42,110,131.5,0.239583,Sixteenth,F#2
760,Right,0,74,110,131.5,0.489583,Eighth,D5_D4
762,Left,1,50,110,131.75,0.239583,Sixteenth,D3
763,Right,0,55,80,132.0,0.239583,Sixteenth,G3
764,Left,1,46,80,132.0,0.239583,Sixteenth,A#2
766,Left,1,43,80,132.25,0.739583,DottedEighth,G2
765,Right,0,59,80,132.25,0.239583,Sixteenth,B3
767,Right,0,62,80,132.5,0.239583,Sixteenth,D4
768,Right,0,67,80,132.75,0.239583,Sixteenth,G4
769,Right,0,57,80,133.0,0.239583,Sixteenth,A3
770,Left,1,50,80,133.0,0.489583,Eighth,D3
771,Right,0,66,80,133.25,0.239583,Sixteenth,F#4
773,Left,1,50,80,133.5,0.989583,Quarter,D3
772,Right,0,59,80,133.5,0.239583,Sixteenth,B3
774,Right,0,67,80,133.75,0.239583,Sixteenth,G4
775,Right,0,60,80,134.0,0.239583,Sixteenth,C4
776,Right,0,69,80,134.25,0.239583,Sixteenth,A4
778,Left,1,50,80,134.5,0.989583,Quarter,D3
777,Right,0,62,80,134.5,0.239583,Sixteenth,D4
779,Right,0,71,80,134.75,0.239583,Sixteenth,B4
780,Right,0,64,80,135.0,0.239583,Sixteenth,E4
781,Right,0,72,80,135.25,0.239583,Sixteenth,C5
782,Right,0,66,80,135.5,0.239583,Sixteenth,F#4
783,Left,1,50,80,135.5,0.489583,Eighth,D3
784,Right,0,74,80,135.75,0.239583,Sixteenth,D5
785,Right,0,71,110,136.0,0.239583,Sixteenth,B4
786,Left,1,43,110,136.0,0.239583,Sixteenth,G2
788,Right,0,67,110,136.25,0.239583,Sixteenth,G4
787,Left,1,47,110,136.25,0.239583,Sixteenth,B2
790,Left,1,50,110,136.5,0.239583,Sixteenth,D3
789,Right,0,74,121,136.5,0.989583,Quarter,D5
791,Left,1,55,110,136.75,0.239583,Sixteenth,G3
792,Left,1,45,110,137.0,0.239583,Sixteenth,A2
793,Left,1,54,110,137.25,0.239583,Sixteenth,F#3
794,Right,0,86,110,137.5,0.989583,Quarter,D6_D5
796,Left,1,47,110,137.5,0.239583,Sixteenth,B2
797,Left,1,55,110,137.75,0.239583,Sixteenth,G3
798,Left,1,48,110,138.0,0.239583,Sixteenth,C3
799,Left,1,57,110,138.25,0.239583,Sixteenth,A3
800,Right,0,74,110,138.5,0.989583,Quarter,D6_D5
802,Left,1,50,110,138.5,0.239583,Sixteenth,D3
803,Left,1,59,110,138.75,0.239583,Sixteenth,B3
804,Left,1,52,110,139.0,0.239583,Sixteenth,E3
805,Left,1,60,110,139.25,0.239583,Sixteenth,C4
808,Left,1,54,110,139.5,0.239583,Sixteenth,F#3
806,Right,0,74,110,139.5,0.489583,Eighth,D6_D5
809,Left,1,62,110,139.75,0.239583,Sixteenth,D4
811,Left,1,59,80,140.0,0.239583,Sixteenth,B3
810,Right,0,67,80,140.0,0.239583,Sixteenth,G4
812,Left,1,55,80,140.25,1.239583,TiedQuarter-Sixteenth,G3
813,Right,0,71,80,140.25,0.239583,Sixteenth,B4
814,Right,0,74,80,140.5,0.239583,Sixteenth,D5
815,Right,0,79,80,140.75,0.239583,Sixteenth,G5
816,Right,0,68,80,141.0,0.239583,Sixteenth,G#4
817,Right,0,77,80,141.25,0.239583,Sixteenth,F5
819,Right,0,67,80,141.5,0.239583,Sixteenth,G4
818,Left,1,55,80,141.5,0.989583,Quarter,G3
820,Right,0,75,80,141.75,0.239583,Sixteenth,D#5
821,Right,0,65,80,142.0,0.239583,Sixteenth,F4
822,Right,0,74,80,142.25,0.239583,Sixteenth,D5
823,Left,1,55,80,142.5,0.989583,Quarter,G3
824,Right,0,63,80,142.5,0.239583,Sixteenth,D#4
825,Right,0,72,80,142.75,0.239583,Sixteenth,C5
826,Right,0,62,80,143.0,0.239583,Sixteenth,D4
827,Right,0,72,80,143.25,0.239583,Sixteenth,C5
828,Right,0,62,80,143.5,0.239583,Sixteenth,D4
829,Left,1,55,80,143.5,0.489583,Eighth,G3
830,Right,0,71,80,143.75,0.239583,Sixteenth,B4
831,Right,0,60,110,144.0,0.489583,Eighth,G4_D#4_C5_C4
834,Left,1,36,110,144.0,0.239583,Sixteenth,C2
836,Left,1,39,110,144.25,0.239583,Sixteenth,D#2
837,Left,1,43,110,144.5,0.239583,Sixteenth,G2
838,Left,1,48,110,144.75,0.239583,Sixteenth,C3
839,Right,0,67,110,145.0,0.489583,Eighth,G4
840,Left,1,38,110,145.0,0.239583,Sixteenth,D2
841,Left,1,47,110,145.25,0.239583,Sixteenth,B2
843,Left,1,39,110,145.5,0.239583,Sixteenth,D#2
842,Right,0,67,110,145.5,0.989583,Quarter,G4
844,Left,1,48,110,145.75,0.239583,Sixteenth,C3
845,Left,1,41,110,146.0,0.239583,Sixteenth,F2
846,Left,1,50,110,146.25,0.239583,Sixteenth,D3
848,Left,1,43,110,146.5,0.239583,Sixteenth,G2
847,Right,0,67,110,146.5,0.989583,Quarter,G4
849,Left,1,51,110,146.75,0.239583,Sixteenth,D#3
850,Left,1,45,110,147.0,0.239583,Sixteenth,A2
851,Left,1,53,110,147.25,0.239583,Sixteenth,F3
852,Left,1,47,110,147.5,0.239583,Sixteenth,B2
853,Right,0,67,110,147.5,0.489583,Eighth,G4
854,Left,1,55,110,147.75,0.239583,Sixteenth,G3
855,Left,1,51,100,148.0,0.239583,Sixteenth,D#3
856,Right,0,60,100,148.0,0.239583,Sixteenth,C4
857,Right,0,63,94,148.25,0.239583,Sixteenth,D#4
858,Left,1,48,94,148.25,0.739583,DottedEighth,C3
859,Right,0,67,87,148.5,0.239583,Sixteenth,G4
860,Right,0,72,81,148.75,0.239583,Sixteenth,C5
862,Left,1,55,80,149.0,0.489583,Eighth,G3
861,Right,0,62,80,149.0,0.239583,Sixteenth,D4
863,Right,0,71,80,149.25,0.239583,Sixteenth,B4
864,Left,1,55,80,149.5,0.989583,Quarter,G3
865,Right,0,63,80,149.5,0.239583,Sixteenth,D#4
866,Right,0,72,80,149.75,0.239583,Sixteenth,C5
867,Right,0,65,80,150.0,0.239583,Sixteenth,F4
868,Right,0,74,80,150.25,0.239583,Sixteenth,D5
870,Right,0,67,80,150.5,0.239583,Sixteenth,G4
869,Left,1,55,80,150.5,0.989583,Quarter,G3
871,Right,0,75,80,150.75,0.239583,Sixteenth,D#5
872,Right,0,69,80,151.0,0.239583,Sixteenth,A4
873,Right,0,77,80,151.25,0.239583,Sixteenth,F5
875,Right,0,71,80,151.5,0.239583,Sixteenth,B4
874,Left,1,55,80,151.5,0.489583,Eighth,G3
876,Right,0,79,80,151.75,0.239583,Sixteenth,G5
878,Right,0,75,110,152.0,0.239583,Sixteenth,D#5
877,Left,1,48,110,152.0,0.239583,Sixteenth,C3
880,Right,0,72,110,152.25,0.239583,Sixteenth,C5
879,Left,1,51,110,152.25,0.239583,Sixteenth,D#3
881,Right,0,79,110,152.5,0.989583,Quarter,G5
882,Left,1,55,110,152.5,0.239583,Sixteenth,G3
883,Left,1,60,110,152.75,0.239583,Sixteenth,C4
884,Left,1,50,110,153.0,0.239583,Sixteenth,D3
885,Left,1,59,110,153.25,0.239583,Sixteenth,B3
887,Left,1,51,110,153.5,0.239583,Sixteenth,D#3
886,Right,0,79,110,153.5,0.989583,Quarter,G5_G4
889,Left,1,60,110,153.75,0.239583,Sixteenth,C4
890,Left,1,53,110,154.0,0.239583,Sixteenth,F3
891,Left,1,62,110,154.25,0.239583,Sixteenth,D4
894,Left,1,55,110,154.5,0.239583,Sixteenth,G3
892,Right,0,79,110,154.5,0.989583,Quarter,G5_G4
895,Left,1,63,110,154.75,0.239583,Sixteenth,D#4
896,Left,1,57,110,155.0,0.239583,Sixteenth,A3
897,Left,1,65,110,155.25,0.239583,Sixteenth,F4
898,Left,1,59,110,155.5,0.239583,Sixteenth,B3
899,Right,0,79,110,155.5,0.489583,Eighth,G5
900,Left,1,67,110,155.75,0.239583,Sixteenth,G4
902,Right,0,72,110,156.0,0.239583,Sixteenth,C5
901,Left,1,65,110,156.0,0.239583,Sixteenth,F4
904,Right,0,76,110,156.25,0.239583,Sixteenth,E5
903,Left,1,60,110,156.25,1.239583,TiedQuarter-Sixteenth,C4
905,Right,0,79,110,156.5,0.239583,Sixteenth,G5
906,Right,0,84,110,156.75,0.239583,Sixteenth,C6
907,Right,0,73,110,157.0,0.239583,Sixteenth,C#5
908,Right,0,82,110,157.25,0.239583,Sixteenth,A#5
909,Left,1,60,110,157.5,0.989583,Quarter,C4
910,Right,0,72,110,157.5,0.239583,Sixteenth,C5
911,Right,0,80,110,157.75,0.239583,Sixteenth,G#5
912,Right,0,70,110,158.0,0.239583,Sixteenth,A#4
913,Right,0,79,110,158.25,0.239583,Sixteenth,G5
915,Right,0,68,110,158.5,0.239583,Sixteenth,G#4
914,Left,1,60,110,158.5,0.989583,Quarter,C4
916,Right,0,77,110,158.75,0.239583,Sixteenth,F5
917,Right,0,67,110,159.0,0.239583,Sixteenth,G4
918,Right,0,76,110,159.25,0.239583,Sixteenth,E5
919,Right,0,76,110,159.5,0.239583,Sixteenth,E5
920,Left,1,60,110,159.5,0.239583,Sixteenth,C4
922,Left,1,70,110,159.75,0.239583,Sixteenth,A#4
921,Right,0,79,110,159.75,0.239583,Sixteenth,G5
924,Right,0,80,110,160.0,0.239583,Sixteenth,G#5
923,Left,1,65,110,160.0,0.239583,Sixteenth,F4
926,Right,0,77,110,160.25,0.239583,Sixteenth,F5
925,Left,1,68,110,160.25,0.239583,Sixteenth,G#4
928,Left,1,60,110,160.5,0.239583,Sixteenth,C4
927,Right,0,84,110,160.5,0.239583,Sixteenth,C6
930,Right,0,75,110,160.75,0.239583,Sixteenth,D#5
929,Left,1,67,110,160.75,0.239583,Sixteenth,G4
931,Left,1,61,110,161.0,0.239583,Sixteenth,C#4
932,Right,0,77,110,161.0,0.239583,Sixteenth,F5
934,Right,0,73,110,161.25,0.239583,Sixteenth,C#5
933,Left,1,65,110,161.25,0.239583,Sixteenth,F4
935,Right,0,80,110,161.5,0.239583,Sixteenth,G#5
936,Left,1,56,110,161.5,0.239583,Sixteenth,G#3
938,Right,0,72,110,161.75,0.239583,Sixteenth,C5
937,Left,1,63,110,161.75,0.239583,Sixteenth,D#4
939,Left,1,58,110,162.0,0.239583,Sixteenth,A#3
940,Right,0,73,110,162.0,0.239583,Sixteenth,C#5
941,Left,1,61,110,162.25,0.239583,Sixteenth,C#4
942,Right,0,70,110,162.25,0.239583,Sixteenth,A#4
944,Right,0,77,110,162.5,0.239583,Sixteenth,F5
943,Left,1,53,110,162.5,0.239583,Sixteenth,F3
946,Right,0,68,110,162.75,0.239583,Sixteenth,G#4
945,Left,1,60,110,162.75,0.239583,Sixteenth,C4
947,Right,0,70,110,163.0,0.239583,Sixteenth,A#4
948,Left,1,54,110,163.0,0.239583,Sixteenth,F#3
949,Left,1,58,110,163.25,0.239583,Sixteenth,A#3
950,Right,0,66,110,163.25,0.239583,Sixteenth,F#4
951,Left,1,49,110,163.5,0.239583,Sixteenth,C#3
952,Right,0,73,110,163.5,0.239583,Sixteenth,C#5
953,Left,1,56,110,163.75,0.239583,Sixteenth,G#3
954,Right,0,65,110,163.75,0.239583,Sixteenth,F4
955,Left,1,51,110,164.0,0.239583,Sixteenth,D#3
956,Right,0,66,110,164.0,0.239583,Sixteenth,F#4
958,Left,1,54,110,164.25,0.239583,Sixteenth,F#3
957,Right,0,63,110,164.25,0.239583,Sixteenth,D#4
959,Left,1,49,111,164.5,0.239583,Sixteenth,C#3
960,Right,0,70,111,164.5,0.239583,Sixteenth,A#4
961,Right,0,58,111,164.75,0.239583,Sixteenth,A#3
962,Left,1,53,111,164.75,0.239583,Sixteenth,F3
963,Right,0,68,112,165.0,0.239583,Sixteenth,G#4
964,Left,1,48,112,165.0,0.239583,Sixteenth,C3
966,Left,1,51,113,165.25,0.239583,Sixteenth,D#3
965,Right,0,63,113,165.25,0.239583,Sixteenth,D#4
968,Left,1,44,113,165.5,0.239583,Sixteenth,G#2
967,Right,0,60,113,165.5,0.239583,Sixteenth,C4
969,Left,1,51,114,165.75,0.239583,Sixteenth,D#3
970,Right,0,66,114,165.75,0.239583,Sixteenth,F#4
971,Left,1,49,115,166.0,0.239583,Sixteenth,C#3
972,Right,0,65,115,166.0,0.239583,Sixteenth,F4
973,Left,1,53,115,166.25,0.239583,Sixteenth,F3
974,Right,0,61,115,166.25,0.239583,Sixteenth,C#4
975,Left,1,42,116,166.5,0.239583,Sixteenth,F#2
976,Right,0,58,116,166.5,0.239583,Sixteenth,A#3
978,Right,0,63,117,166.75,0.239583,Sixteenth,D#4
977,Left,1,54,117,166.75,0.239583,Sixteenth,F#3
979,Left,1,44,117,167.0,0.239583,Sixteenth,G#2
980,Right,0,61,117,167.0,0.239583,Sixteenth,C#4
982,Right,0,56,118,167.25,0.239583,Sixteenth,G#3
981,Left,1,53,118,167.25,0.239583,Sixteenth,F3
983,Right,0,54,119,167.5,0.239583,Sixteenth,F#3
984,Left,1,44,119,167.5,0.239583,Sixteenth,G#2
985,Right,0,60,119,167.75,0.239583,Sixteenth,C4
986,Left,1,51,119,167.75,0.239583,Sixteenth,D#3
988,Right,0,53,120,168.0,0.239583,Sixteenth,F3
987,Left,1,44,120,168.0,0.239583,Sixteenth,G#2
989,Left,1,50,119,168.25,0.239583,Sixteenth,D3
990,Right,0,60,119,168.25,0.239583,Sixteenth,C4
992,Right,0,53,118,168.5,0.239583,Sixteenth,F3
991,Left,1,44,118,168.5,0.239583,Sixteenth,G#2
994,Right,0,59,116,168.75,0.239583,Sixteenth,B3
993,Left,1,50,116,168.75,0.239583,Sixteenth,D3
996,Right,0,53,115,169.0,0.239583,Sixteenth,F3
995,Left,1,44,115,169.0,0.239583,Sixteenth,G#2
998,Left,1,50,113,169.25,0.239583,Sixteenth,D3
997,Right,0,59,113,169.25,0.239583,Sixteenth,B3
999,Right,0,53,112,169.5,0.239583,Sixteenth,F3
1000,Left,1,44,112,169.5,0.239583,Sixteenth,G#2
1001,Right,0,59,111,169.75,0.239583,Sixteenth,B3
1002,Left,1,50,111,169.75,0.239583,Sixteenth,D3
1003,Right,0,53,80,170.0,0.239583,Sixteenth,F3
1004,Left,1,43,80,170.0,0.239583,Sixteenth,G2
1005,Left,1,50,80,170.25,0.239583,Sixteenth,D3
1006,Right,0,59,80,170.25,0.239583,Sixteenth,B3
1007,Left,1,43,80,170.5,0.239583,Sixteenth,G2
1008,Right,0,53,80,170.5,0.239583,Sixteenth,F3
1009,Left,1,50,80,170.75,0.239583,Sixteenth,D3
1010,Right,0,59,80,170.75,0.239583,Sixteenth,B3
1011,Left,1,43,80,171.0,0.239583,Sixteenth,G2
1012,Right,0,53,80,171.0,0.239583,Sixteenth,F3
1013,Right,0,59,80,171.25,0.239583,Sixteenth,B3
1014,Left,1,50,80,171.25,0.239583,Sixteenth,D3
1016,Right,0,53,80,171.5,0.239583,Sixteenth,F3
1015,Left,1,43,80,171.5,0.239583,Sixteenth,G2
1018,Right,0,59,80,171.75,0.239583,Sixteenth,B3
1017,Left,1,50,80,171.75,0.239583,Sixteenth,D3
1020,Left,1,43,110,172.0,0.239583,Sixteenth,G2
1019,Right,0,53,110,172.0,0.239583,Sixteenth,F3
1021,Left,1,49,110,172.25,0.239583,Sixteenth,C#3
1022,Right,0,58,110,172.25,0.239583,Sixteenth,A#3
1024,Right,0,52,110,172.5,0.239583,Sixteenth,E3
1023,Left,1,43,110,172.5,0.239583,Sixteenth,G2
1025,Right,0,58,110,172.75,0.239583,Sixteenth,A#3
1026,Left,1,48,110,172.75,0.239583,Sixteenth,C3
1027,Left,1,43,110,173.0,0.239583,Sixteenth,G2
1028,Right,0,52,110,173.0,0.239583,Sixteenth,E3
1029,Right,0,58,110,173.25,0.239583,Sixteenth,A#3
1030,Left,1,48,110,173.25,0.239583,Sixteenth,C3
1032,Left,1,43,110,173.5,0.239583,Sixteenth,G2
1031,Right,0,52,110,173.5,0.239583,Sixteenth,E3
1034,Right,0,58,110,173.75,0.239583,Sixteenth,A#3
1033,Left,1,48,110,173.75,0.239583,Sixteenth,C3
1035,Left,1,42,80,174.0,0.239583,Sixteenth,F#2
1036,Right,0,51,80,174.0,0.239583,Sixteenth,D#3
1038,Left,1,48,80,174.25,0.239583,Sixteenth,C3
1037,Right,0,58,80,174.25,0.239583,Sixteenth,A#3
1040,Left,1,42,80,174.5,0.239583,Sixteenth,F#2
1039,Right,0,51,80,174.5,0.239583,Sixteenth,D#3
1041,Left,1,48,80,174.75,0.239583,Sixteenth,C3
1042,Right,0,58,80,174.75,0.239583,Sixteenth,A#3
1044,Right,0,51,80,175.0,0.239583,Sixteenth,D#3
1043,Left,1,42,80,175.0,0.239583,Sixteenth,F#2
1046,Right,0,58,80,175.25,0.239583,Sixteenth,A#3
1045,Left,1,48,80,175.25,0.239583,Sixteenth,C3
1047,Right,0,51,80,175.5,0.239583,Sixteenth,D#3
1048,Left,1,42,80,175.5,0.239583,Sixteenth,F#2
1050,Right,0,58,80,175.75,0.239583,Sixteenth,A#3
1049,Left,1,48,80,175.75,0.239583,Sixteenth,C3
1052,Right,0,51,80,176.0,0.239583,Sixteenth,D#3
1051,Left,1,42,80,176.0,0.239583,Sixteenth,F#2
1054,Right,0,58,80,176.25,0.239583,Sixteenth,A#3
1053,Left,1,48,80,176.25,0.239583,Sixteenth,C3
1055,Left,1,41,80,176.5,0.239583,Sixteenth,F2
1056,Right,0,51,80,176.5,0.239583,Sixteenth,D#3
1057,Left,1,48,80,176.75,0.239583,Sixteenth,C3
1058,Right,0,57,80,176.75,0.239583,Sixteenth,A3
1059,Right,0,56,80,177.0,0.239583,Sixteenth,G#3
1060,Left,1,47,80,177.0,0.239583,Sixteenth,B2
1061,Left,1,53,80,177.25,0.239583,Sixteenth,F3
1062,Right,0,63,80,177.25,0.239583,Sixteenth,D#4
1064,Left,1,47,80,177.5,0.239583,Sixteenth,B2
1063,Right,0,56,80,177.5,0.239583,Sixteenth,G#3
1066,Right,0,63,80,177.75,0.239583,Sixteenth,D#4
1065,Left,1,53,80,177.75,0.239583,Sixteenth,F3
1067,Left,1,47,80,178.0,0.239583,Sixteenth,B2
1068,Right,0,56,80,178.0,0.239583,Sixteenth,G#3
1070,Right,0,63,80,178.25,0.239583,Sixteenth,D#4
1069,Left,1,53,80,178.25,0.239583,Sixteenth,F3
1071,Right,0,56,80,178.5,0.239583,Sixteenth,G#3
1072,Left,1,46,80,178.5,0.239583,Sixteenth,A#2
1074,Right,0,62,80,178.75,0.239583,Sixteenth,D4
1073,Left,1,53,80,178.75,0.239583,Sixteenth,F3
1076,Right,0,49,80,179.0,0.239583,Sixteenth,C#3
1075,Left,1,40,80,179.0,0.239583,Sixteenth,E2
1077,Right,0,56,80,179.25,0.239583,Sixteenth,G#3
1078,Left,1,46,80,179.25,0.239583,Sixteenth,A#2
1080,Left,1,40,80,179.5,0.239583,Sixteenth,E2
1079,Right,0,49,80,179.5,0.239583,Sixteenth,C#3
1081,Left,1,46,80,179.75,0.239583,Sixteenth,A#2
1082,Right,0,56,80,179.75,0.239583,Sixteenth,G#3
1083,Right,0,50,80,180.0,0.239583,Sixteenth,D3
1084,Left,1,40,80,180.0,0.239583,Sixteenth,E2
1086,Right,0,56,80,180.25,0.239583,Sixteenth,G#3
1085,Left,1,46,80,180.25,0.239583,Sixteenth,A#2
1088,Right,0,50,80,180.5,0.239583,Sixteenth,D3
1087,Left,1,39,80,180.5,0.239583,Sixteenth,D#2
1090,Left,1,46,80,180.75,0.239583,Sixteenth,A#2
1089,Right,0,55,80,180.75,0.239583,Sixteenth,G3
1092,Left,1,45,80,181.0,0.239583,Sixteenth,A2
1091,Right,0,54,80,181.0,0.239583,Sixteenth,F#3
1093,Left,1,51,80,181.25,0.239583,Sixteenth,D#3
1094,Right,0,62,80,181.25,0.239583,Sixteenth,D4
1096,Left,1,45,80,181.5,0.239583,Sixteenth,A2
1095,Right,0,54,80,181.5,0.239583,Sixteenth,F#3
1098,Right,0,62,80,181.75,0.239583,Sixteenth,D4
1097,Left,1,51,80,181.75,0.239583,Sixteenth,D#3
1100,Left,1,45,80,182.0,0.239583,Sixteenth,A2
1099,Right,0,54,80,182.0,0.239583,Sixteenth,F#3
1101,Right,0,62,80,182.25,0.239583,Sixteenth,D4
1102,Left,1,51,80,182.25,0.239583,Sixteenth,D#3
1103,Left,1,44,80,182.5,0.239583,Sixteenth,G#2
1104,Right,0,54,80,182.5,0.239583,Sixteenth,F#3
1106,Right,0,60,80,182.75,0.239583,Sixteenth,C4
1105,Left,1,51,80,182.75,0.239583,Sixteenth,D#3
1108,Right,0,48,80,183.0,0.239583,Sixteenth,C3
1107,Left,1,32,80,183.0,0.239583,Sixteenth,G#1
1109,Right,0,54,80,183.25,0.239583,Sixteenth,F#3
1110,Left,1,44,80,183.25,0.239583,Sixteenth,G#2
1111,Right,0,48,80,183.5,0.239583,Sixteenth,C3
1112,Left,1,32,80,183.5,0.239583,Sixteenth,G#1
1113,Right,0,54,80,183.75,0.239583,Sixteenth,F#3
1114,Left,1,44,80,183.75,0.239583,Sixteenth,G#2
1115,Right,0,48,80,184.0,0.239583,Sixteenth,C3
1116,Left,1,32,80,184.0,0.239583,Sixteenth,G#1
1118,Left,1,44,80,184.25,0.239583,Sixteenth,G#2
1117,Right,0,54,80,184.25,0.239583,Sixteenth,F#3
1119,Left,1,33,80,184.5,0.239583,Sixteenth,A1
1120,Right,0,50,80,184.5,0.239583,Sixteenth,D3
1121,Left,1,45,80,184.75,0.239583,Sixteenth,A2
1122,Right,0,52,80,184.75,0.239583,Sixteenth,E3
1123,Left,1,31,110,185.0,0.239583,Sixteenth,G1
1124,Right,0,52,110,185.0,0.239583,Sixteenth,E3
1125,Left,1,43,110,185.25,0.239583,Sixteenth,G2
1126,Right,0,61,110,185.25,0.239583,Sixteenth,C#4
1128,Right,0,52,110,185.5,0.239583,Sixteenth,E3
1127,Left,1,31,110,185.5,0.239583,Sixteenth,G1
1129,Right,0,61,110,185.75,0.239583,Sixteenth,C#4
1130,Left,1,43,110,185.75,0.239583,Sixteenth,G2
1131,Right,0,52,110,186.0,0.239583,Sixteenth,E3
1132,Left,1,31,110,186.0,0.239583,Sixteenth,G1
1133,Right,0,61,110,186.25,0.239583,Sixteenth,C#4
1134,Left,1,43,110,186.25,0.239583,Sixteenth,G2
1135,Right,0,52,110,186.5,0.239583,Sixteenth,E3
1136,Left,1,31,110,186.5,0.239583,Sixteenth,G1
1138,Left,1,43,110,186.75,0.239583,Sixteenth,G2
1137,Right,0,61,110,186.75,0.239583,Sixteenth,C#4
1139,Right,0,50,110,187.0,0.239583,Sixteenth,D3
1140,Left,1,33,110,187.0,0.239583,Sixteenth,A1
1141,Left,1,45,110,187.25,0.239583,Sixteenth,A2
1142,Right,0,55,110,187.25,0.239583,Sixteenth,G3
1144,Left,1,33,110,187.5,0.239583,Sixteenth,A1
1143,Right,0,50,110,187.5,0.239583,Sixteenth,D3
1145,Left,1,45,110,187.75,0.239583,Sixteenth,A2
1146,Right,0,55,110,187.75,0.239583,Sixteenth,G3
1149,Left,1,44,110,188.0,0.489583,Eighth,G#2
1147,Right,0,48,110,188.0,0.239583,Sixteenth,G#3_C3
1150,Right,0,60,104,188.25,0.239583,Sixteenth,C4
1151,Right,0,63,97,188.5,0.239583,Sixteenth,D#4
1152,Right,0,68,91,188.75,0.239583,Sixteenth,G#4
1154,Right,0,61,80,189.0,0.239583,Sixteenth,C#4
1153,Left,1,57,80,189.0,0.489583,Eighth,A3
1155,Right,0,67,80,189.25,0.239583,Sixteenth,G4
1156,Left,1,56,80,189.5,0.489583,Eighth,G#3
1157,Right,0,60,80,189.5,0.239583,Sixteenth,C4
1158,Right,0,68,80,189.75,0.239583,Sixteenth,G#4
1159,Right,0,56,80,190.0,0.239583,Sixteenth,G#3
1160,Left,1,44,80,190.0,0.489583,Eighth,G#2
1161,Right,0,60,80,190.25,0.239583,Sixteenth,C4
1162,Right,0,63,80,190.5,0.239583,Sixteenth,D#4
1163,Right,0,68,80,190.75,0.239583,Sixteenth,G#4
1165,Right,0,61,80,191.0,0.239583,Sixteenth,C#4
1164,Left,1,57,80,191.0,0.489583,Eighth,A3
1166,Right,0,67,80,191.25,0.239583,Sixteenth,G4
1167,Right,0,60,80,191.5,0.239583,Sixteenth,C4
1168,Left,1,56,80,191.5,0.489583,Eighth,G#3
1169,Right,0,68,80,191.75,0.239583,Sixteenth,G#4
1171,Left,1,44,80,192.0,0.489583,Eighth,G#2
1170,Right,0,56,80,192.0,0.239583,Sixteenth,G#3
1172,Right,0,60,80,192.25,0.239583,Sixteenth,C4
1173,Right,0,63,80,192.5,0.239583,Sixteenth,D#4
1174,Right,0,68,80,192.75,0.239583,Sixteenth,G#4
1176,Left,1,57,80,193.0,0.489583,Eighth,A3
1175,Right,0,61,80,193.0,0.239583,Sixteenth,C#4
1177,Right,0,67,80,193.25,0.239583,Sixteenth,G4
1179,Right,0,60,80,193.5,0.239583,Sixteenth,C4
1178,Left,1,56,80,193.5,0.489583,Eighth,G#3
1180,Right,0,68,80,193.75,0.239583,Sixteenth,G#4
1181,Right,0,61,80,194.0,0.239583,Sixteenth,C#4
1182,Left,1,57,80,194.0,0.489583,Eighth,A3
1183,Right,0,67,80,194.25,0.239583,Sixteenth,G4
1184,Right,0,60,80,194.5,0.239583,Sixteenth,C4
1185,Left,1,56,80,194.5,0.489583,Eighth,G#3
1186,Right,0,68,80,194.75,0.239583,Sixteenth,G#4
1187,Right,0,63,80,195.0,0.239583,Sixteenth,D#4
1188,Left,1,60,80,195.0,0.489583,Eighth,C4
1189,Right,0,68,80,195.25,0.239583,Sixteenth,G#4
1190,Right,0,66,80,195.5,0.239583,Sixteenth,F#4
1191,Left,1,63,80,195.5,0.489583,Eighth,D#4
1192,Right,0,68,80,195.75,0.239583,Sixteenth,G#4
1194,Left,1,49,80,196.0,0.489583,Eighth,C#3
1193,Right,0,61,80,196.0,0.239583,Sixteenth,C#4
1195,Right,0,65,80,196.25,0.239583,Sixteenth,F4
1196,Right,0,68,80,196.5,0.239583,Sixteenth,G#4
1197,Right,0,73,80,196.75,0.239583,Sixteenth,C#5
1199,Right,0,66,80,197.0,0.239583,Sixteenth,F#4
1198,Left,1,63,80,197.0,0.489583,Eighth,D#4
1200,Right,0,72,80,197.25,0.239583,Sixteenth,C5
1201,Left,1,61,80,197.5,0.489583,Eighth,C#4
1202,Right,0,65,80,197.5,0.239583,Sixteenth,F4
1203,Right,0,73,80,197.75,0.239583,Sixteenth,C#5
1205,Right,0,61,80,198.0,0.239583,Sixteenth,C#4
1204,Left,1,49,80,198.0,0.489583,Eighth,C#3
1206,Right,0,65,80,198.25,0.239583,Sixteenth,F4
1207,Right,0,68,80,198.5,0.239583,Sixteenth,G#4
1208,Right,0,73,80,198.75,0.239583,Sixteenth,C#5
1210,Left,1,63,80,199.0,0.489583,Eighth,D#4
1209,Right,0,66,80,199.0,0.239583,Sixteenth,F#4
1211,Right,0,72,80,199.25,0.239583,Sixteenth,C5
1212,Right,0,65,80,199.5,0.239583,Sixteenth,F4
1213,Left,1,61,80,199.5,0.489583,Eighth,C#4
1214,Right,0,73,80,199.75,0.239583,Sixteenth,C#5
1215,Right,0,61,80,200.0,0.239583,Sixteenth,C#4
1216,Left,1,49,80,200.0,0.489583,Eighth,C#3
1217,Right,0,65,80,200.25,0.239583,Sixteenth,F4
1218,Right,0,68,80,200.5,0.239583,Sixteenth,G#4
1219,Right,0,73,80,200.75,0.239583,Sixteenth,C#5
1220,Left,1,63,80,201.0,0.489583,Eighth,D#4
1221,Right,0,66,80,201.0,0.239583,Sixteenth,F#4
1222,Right,0,72,80,201.25,0.239583,Sixteenth,C5
1223,Right,0,65,80,201.5,0.239583,Sixteenth,F4
1224,Left,1,61,80,201.5,0.489583,Eighth,C#4
1225,Right,0,73,80,201.75,0.239583,Sixteenth,C#5
1227,Right,0,66,80,202.0,0.239583,Sixteenth,F#4
1226,Left,1,63,80,202.0,0.489583,Eighth,D#4
1228,Right,0,72,80,202.25,0.239583,Sixteenth,C5
1230,Right,0,65,80,202.5,0.239583,Sixteenth,F4
1229,Left,1,61,80,202.5,0.489583,Eighth,C#4
1231,Right,0,73,80,202.75,0.239583,Sixteenth,C#5
1232,Left,1,60,80,203.0,0.489583,Eighth,C4
1233,Right,0,63,80,203.0,0.239583,Sixteenth,D#4
1234,Right,0,68,80,203.25,0.239583,Sixteenth,G#4
1236,Right,0,63,80,203.5,0.239583,Sixteenth,D#4
1235,Left,1,58,80,203.5,0.489583,Eighth,A#3
1237,Right,0,66,80,203.75,0.239583,Sixteenth,F#4
1238,Right,0,56,80,204.0,0.239583,Sixteenth,G#3
1239,Left,1,44,80,204.0,0.489583,Eighth,G#2
1240,Right,0,60,80,204.25,0.239583,Sixteenth,C4
1241,Right,0,63,80,204.5,0.239583,Sixteenth,D#4
1242,Right,0,68,80,204.75,0.239583,Sixteenth,G#4
1243,Left,1,57,80,205.0,0.489583,Eighth,A3
1244,Right,0,61,80,205.0,0.239583,Sixteenth,C#4
1245,Right,0,67,80,205.25,0.239583,Sixteenth,G4
1246,Left,1,56,80,205.5,0.489583,Eighth,G#3
1247,Right,0,60,80,205.5,0.239583,Sixteenth,C4
1248,Right,0,68,80,205.75,0.239583,Sixteenth,G#4
1250,Left,1,44,80,206.0,0.489583,Eighth,G#2
1249,Right,0,56,80,206.0,0.239583,Sixteenth,G#3
1251,Right,0,60,80,206.25,0.239583,Sixteenth,C4
1252,Right,0,63,80,206.5,0.239583,Sixteenth,D#4
1253,Right,0,68,80,206.75,0.239583,Sixteenth,G#4
1254,Right,0,61,80,207.0,0.239583,Sixteenth,C#4
1255,Left,1,57,80,207.0,0.489583,Eighth,A3
1256,Right,0,67,80,207.25,0.239583,Sixteenth,G4
1257,Left,1,56,80,207.5,0.489583,Eighth,G#3
1258,Right,0,60,80,207.5,0.239583,Sixteenth,C4
1259,Right,0,68,80,207.75,0.239583,Sixteenth,G#4
1260,Right,0,56,80,208.0,0.239583,Sixteenth,G#3
1261,Left,1,44,80,208.0,0.489583,Eighth,G#2
1262,Right,0,60,80,208.25,0.239583,Sixteenth,C4
1263,Right,0,63,80,208.5,0.239583,Sixteenth,D#4
1264,Right,0,68,80,208.75,0.239583,Sixteenth,G#4
1266,Right,0,61,80,209.0,0.239583,Sixteenth,C#4
1265,Left,1,57,80,209.0,0.489583,Eighth,A3
1267,Right,0,67,80,209.25,0.239583,Sixteenth,G4
1269,Right,0,60,80,209.5,0.239583,Sixteenth,C4
1268,Left,1,56,80,209.5,0.489583,Eighth,G#3
1270,Right,0,68,80,209.75,0.239583,Sixteenth,G#4
1272,Right,0,61,80,210.0,0.239583,Sixteenth,C#4
1271,Left,1,57,80,210.0,0.489583,Eighth,A3
1273,Right,0,67,80,210.25,0.239583,Sixteenth,G4
1274,Right,0,60,80,210.5,0.239583,Sixteenth,C4
1275,Left,1,56,80,210.5,0.489583,Eighth,G#3
1276,Right,0,68,80,210.75,0.239583,Sixteenth,G#4
1277,Right,0,63,80,211.0,0.239583,Sixteenth,D#4
1278,Left,1,60,80,211.0,0.489583,Eighth,C4
1279,Right,0,68,80,211.25,0.239583,Sixteenth,G#4
1280,Left,1,63,80,211.5,0.489583,Eighth,D#4
1281,Right,0,66,80,211.5,0.239583,Sixteenth,F#4
1282,Right,0,68,80,211.75,0.239583,Sixteenth,G#4
1283,Left,1,62,80,212.0,0.489583,Eighth,D4
1284,Right,0,66,80,212.0,0.239583,Sixteenth,F#4
1285,Right,0,72,80,212.25,0.239583,Sixteenth,C5
1287,Right,0,65,80,212.5,0.239583,Sixteenth,F4
1286,Left,1,61,80,212.5,0.489583,Eighth,C#4
1288,Right,0,73,80,212.75,0.239583,Sixteenth,C#5
1290,Left,1,65,80,213.0,0.489583,Eighth,F4
1289,Right,0,68,80,213.0,0.239583,Sixteenth,G#4
1291,Right,0,73,80,213.25,0.239583,Sixteenth,C#5
1292,Right,0,71,80,213.5,0.239583,Sixteenth,B4
1293,Left,1,68,80,213.5,0.489583,Eighth,G#4
1294,Right,0,73,80,213.75,0.239583,Sixteenth,C#5
1296,Left,1,67,80,214.0,0.489583,Eighth,G4
1295,Right,0,71,80,214.0,0.239583,Sixteenth,B4
1297,Right,0,76,80,214.25,0.239583,Sixteenth,E5
1298,Left,1,66,80,214.5,0.489583,Eighth,F#4
1299,Right,0,70,80,214.5,0.239583,Sixteenth,A#4
1300,Right,0,76,80,214.75,0.239583,Sixteenth,E5
1302,Left,1,70,80,215.0,0.489583,Eighth,A#4
1301,Right,0,73,80,215.0,0.239583,Sixteenth,C#5
1303,Right,0,76,80,215.25,0.239583,Sixteenth,E5
1305,Left,1,58,80,215.5,0.489583,Eighth,A#3
1304,Right,0,66,80,215.5,0.239583,Sixteenth,F#4
1306,Right,0,76,80,215.75,0.239583,Sixteenth,E5
1307,Right,0,76,80,216.0,0.239583,Sixteenth,E5
1308,Left,1,72,80,216.0,0.489583,Eighth,C5
1309,Right,0,81,80,216.25,0.239583,Sixteenth,A5
1311,Left,1,71,80,216.5,0.489583,Eighth,B4
1310,Right,0,75,80,216.5,0.239583,Sixteenth,D#5
1312,Right,0,81,80,216.75,0.239583,Sixteenth,A5
1313,Right,0,78,80,217.0,0.239583,Sixteenth,F#5
1314,Left,1,75,80,217.0,0.489583,Eighth,D#5
1315,Right,0,81,80,217.25,0.239583,Sixteenth,A5
1316,Right,0,71,80,217.5,0.239583,Sixteenth,B4
1317,Left,1,63,80,217.5,0.489583,Eighth,D#4
1318,Right,0,81,80,217.75,0.239583,Sixteenth,A5
1319,Left,1,77,80,218.0,0.489583,Eighth,F5
1320,Right,0,81,80,218.0,0.239583,Sixteenth,A5
1321,Right,0,86,80,218.25,0.239583,Sixteenth,D6
1323,Left,1,76,80,218.5,0.489583,Eighth,E5
1322,Right,0,80,80,218.5,0.239583,Sixteenth,G#5
1324,Right,0,86,80,218.75,0.239583,Sixteenth,D6
1325,Right,0,83,80,219.0,0.239583,Sixteenth,B5
1326,Left,1,80,80,219.0,0.489583,Eighth,G#5
1327,Right,0,86,80,219.25,0.239583,Sixteenth,D6
1328,Left,1,68,80,219.5,0.489583,Eighth,G#4
1329,Right,0,76,80,219.5,0.239583,Sixteenth,E5
1330,Right,0,84,80,219.75,0.239583,Sixteenth,C6
1332,Right,0,74,80,220.0,0.239583,Sixteenth,D5
1331,Left,1,70,80,220.0,0.489583,Eighth,A#4
1333,Right,0,79,80,220.25,0.239583,Sixteenth,G5
1334,Right,0,73,80,220.5,0.239583,Sixteenth,C#5
1335,Left,1,69,80,220.5,0.489583,Eighth,A4
1336,Right,0,79,80,220.75,0.239583,Sixteenth,G5
1337,Right,0,76,80,221.0,0.239583,Sixteenth,E5
1338,Left,1,73,80,221.0,0.489583,Eighth,C#5
1339,Right,0,79,80,221.25,0.239583,Sixteenth,G5
1340,Left,1,61,80,221.5,0.489583,Eighth,C#4
1341,Right,0,69,80,221.5,0.239583,Sixteenth,A4
1342,Right,0,79,80,221.75,0.239583,Sixteenth,G5
1344,Left,1,75,80,222.0,0.489583,Eighth,D#5
1343,Right,0,79,80,222.0,0.239583,Sixteenth,G5
1345,Right,0,84,80,222.25,0.239583,Sixteenth,C6
1347,Left,1,74,80,222.5,0.489583,Eighth,D5
1346,Right,0,78,80,222.5,0.239583,Sixteenth,F#5
1348,Right,0,84,80,222.75,0.239583,Sixteenth,C6
1349,Right,0,81,80,223.0,0.239583,Sixteenth,A5
1350,Left,1,78,80,223.0,0.489583,Eighth,F#5
1351,Right,0,84,80,223.25,0.239583,Sixteenth,C6
1353,Right,0,74,80,223.5,0.239583,Sixteenth,D5
1352,Left,1,66,80,223.5,0.489583,Eighth,F#4
1354,Right,0,84,80,223.75,0.239583,Sixteenth,C6
1356,Right,0,72,80,224.0,0.239583,Sixteenth,C5
1355,Left,1,68,80,224.0,0.489583,Eighth,G#4
1357,Right,0,77,80,224.25,0.239583,Sixteenth,F5
1358,Right,0,71,80,224.5,0.239583,Sixteenth,B4
1359,Left,1,67,80,224.5,0.489583,Eighth,G4
1360,Right,0,77,80,224.75,0.239583,Sixteenth,F5
1361,Left,1,70,80,225.0,0.489583,Eighth,A#4
1362,Right,0,74,80,225.0,0.239583,Sixteenth,D5
1363,Right,0,77,80,225.25,0.239583,Sixteenth,F5
1364,Left,1,58,80,225.5,0.489583,Eighth,A#3
1365,Right,0,67,80,225.5,0.239583,Sixteenth,G4
1366,Right,0,77,80,225.75,0.239583,Sixteenth,F5
1368,Right,0,77,80,226.0,0.239583,Sixteenth,F5
1367,Left,1,73,80,226.0,0.489583,Eighth,C#5
1369,Right,0,82,80,226.25,0.239583,Sixteenth,A#5
1371,Right,0,76,80,226.5,0.239583,Sixteenth,E5
1370,Left,1,72,80,226.5,0.489583,Eighth,C5
1372,Right,0,82,80,226.75,0.239583,Sixteenth,A#5
1373,Right,0,79,80,227.0,0.239583,Sixteenth,G5
1374,Left,1,76,80,227.0,0.489583,Eighth,E5
1375,Right,0,82,80,227.25,0.239583,Sixteenth,A#5
1376,Left,1,64,80,227.5,0.489583,Eighth,E4
1377,Right,0,73,80,227.5,0.239583,Sixteenth,C#5
1378,Right,0,82,80,227.75,0.239583,Sixteenth,A#5
1379,Right,0,72,80,228.0,0.239583,Sixteenth,C5
1380,Left,1,65,80,228.0,0.489583,Eighth,F4
1381,Right,0,81,81,228.25,0.239583,Sixteenth,A5
1383,Right,0,79,82,228.5,0.239583,Sixteenth,G5
1382,Left,1,61,82,228.5,0.489583,Eighth,C#4
1384,Right,0,70,83,228.75,0.239583,Sixteenth,A#4
1385,Left,1,62,85,229.0,0.489583,Eighth,D4
1386,Right,0,69,85,229.0,0.239583,Sixteenth,A4
1387,Right,0,77,86,229.25,0.239583,Sixteenth,F5
1388,Right,0,76,87,229.5,0.239583,Sixteenth,E5
1389,Left,1,57,87,229.5,0.489583,Eighth,A3
1390,Right,0,67,89,229.75,0.239583,Sixteenth,G4
1391,Left,1,58,90,230.0,0.489583,Eighth,A#3
1392,Right,0,65,90,230.0,0.239583,Sixteenth,F4
1393,Right,0,74,91,230.25,0.239583,Sixteenth,D5
1395,Left,1,54,93,230.5,0.489583,Eighth,F#3
1394,Right,0,72,93,230.5,0.239583,Sixteenth,C5
1396,Right,0,63,94,230.75,0.239583,Sixteenth,D#4
1398,Left,1,55,95,231.0,0.489583,Eighth,G3
1397,Right,0,62,95,231.0,0.239583,Sixteenth,D4
1399,Right,0,70,96,231.25,0.239583,Sixteenth,A#4
1400,Left,1,45,98,231.5,0.489583,Eighth,A2
1401,Right,0,60,98,231.5,0.239583,Sixteenth,C4
1402,Right,0,69,99,231.75,0.239583,Sixteenth,A4
1403,Right,0,62,100,232.0,0.239583,Sixteenth,D4
1404,Left,1,46,100,232.0,0.489583,Eighth,A#2
1405,Right,0,67,102,232.25,0.239583,Sixteenth,G4
1406,Left,1,47,103,232.5,0.489583,Eighth,B2
1407,Right,0,55,103,232.5,0.239583,Sixteenth,G3
1408,Right,0,65,104,232.75,0.239583,Sixteenth,F4
1409,Left,1,48,106,233.0,0.489583,Eighth,C3
1410,Right,0,55,106,233.0,0.239583,Sixteenth,G3
1411,Right,0,64,107,233.25,0.239583,Sixteenth,E4
1412,Left,1,50,108,233.5,0.489583,Eighth,D3
1413,Right,0,53,108,233.5,0.239583,Sixteenth,F3
1414,Right,0,59,109,233.75,0.239583,Sixteenth,B3
1415,Left,1,36,110,234.0,0.239583,Sixteenth,C2
1416,Right,0,60,110,234.0,0.489583,Eighth,E3_C4
1418,Left,1,40,110,234.25,0.239583,Sixteenth,E2
1419,Left,1,43,110,234.5,0.239583,Sixteenth,G2
1420,Left,1,48,110,234.75,0.239583,Sixteenth,C3
1421,Left,1,38,110,235.0,0.239583,Sixteenth,D2
1422,Right,0,67,110,235.0,0.489583,Eighth,G4
1423,Left,1,47,110,235.25,0.239583,Sixteenth,B2
1425,Right,0,67,110,235.5,0.989583,Quarter,G4
1424,Left,1,40,110,235.5,0.239583,Sixteenth,E2
1426,Left,1,48,110,235.75,0.239583,Sixteenth,C3
1427,Left,1,41,110,236.0,0.239583,Sixteenth,F2
1428,Left,1,50,110,236.25,0.239583,Sixteenth,D3
1430,Left,1,43,110,236.5,0.239583,Sixteenth,G2
1429,Right,0,67,110,236.5,0.989583,Quarter,G4
1431,Left,1,52,110,236.75,0.239583,Sixteenth,E3
1432,Left,1,45,110,237.0,0.239583,Sixteenth,A2
1433,Left,1,53,110,237.25,0.239583,Sixteenth,F3
1435,Left,1,47,110,237.5,0.239583,Sixteenth,B2
1434,Right,0,67,110,237.5,0.489583,Eighth,G4
1436,Left,1,55,110,237.75,0.239583,Sixteenth,G3
1437,Left,1,52,100,238.0,0.239583,Sixteenth,E3
1438,Right,0,60,100,238.0,0.239583,Sixteenth,C4
1440,Left,1,48,94,238.25,0.739583,DottedEighth,C3
1439,Right,0,64,94,238.25,0.239583,Sixteenth,E4
1441,Right,0,67,87,238.5,0.239583,Sixteenth,G4
1442,Right,0,72,81,238.75,0.239583,Sixteenth,C5
1443,Left,1,55,80,239.0,0.489583,Eighth,G3
1444,Right,0,62,80,239.0,0.239583,Sixteenth,D4
1445,Right,0,71,80,239.25,0.239583,Sixteenth,B4
1447,Right,0,64,80,239.5,0.239583,Sixteenth,E4
1446,Left,1,55,80,239.5,0.989583,Quarter,G3
1448,Right,0,72,80,239.75,0.239583,Sixteenth,C5
1449,Right,0,65,80,240.0,0.239583,Sixteenth,F4
1450,Right,0,74,80,240.25,0.239583,Sixteenth,D5
1451,Right,0,67,80,240.5,0.239583,Sixteenth,G4
1452,Left,1,55,80,240.5,0.989583,Quarter,G3
1453,Right,0,76,80,240.75,0.239583,Sixteenth,E5
1454,Right,0,69,80,241.0,0.239583,Sixteenth,A4
1455,Right,0,77,80,241.25,0.239583,Sixteenth,F5
1457,Right,0,71,80,241.5,0.239583,Sixteenth,B4
1456,Left,1,55,80,241.5,0.489583,Eighth,G3
1458,Right,0,79,80,241.75,0.239583,Sixteenth,G5
1460,Right,0,76,110,242.0,0.239583,Sixteenth,E5
1459,Left,1,48,110,242.0,0.239583,Sixteenth,C3
1462,Right,0,72,110,242.25,0.239583,Sixteenth,C5
1461,Left,1,52,110,242.25,0.239583,Sixteenth,E3
1464,Right,0,79,110,242.5,0.989583,Quarter,G5
1463,Left,1,55,110,242.5,0.239583,Sixteenth,G3
1465,Left,1,60,110,242.75,0.239583,Sixteenth,C4
1466,Left,1,50,110,243.0,0.239583,Sixteenth,D3
1467,Left,1,59,110,243.25,0.239583,Sixteenth,B3
1468,Right,0,79,110,243.5,0.989583,Quarter,G5
1469,Left,1,52,110,243.5,0.239583,Sixteenth,E3
1470,Left,1,60,110,243.75,0.239583,Sixteenth,C4
1471,Left,1,53,110,244.0,0.239583,Sixteenth,F3
1472,Left,1,62,110,244.25,0.239583,Sixteenth,D4
1474,Left,1,55,110,244.5,0.239583,Sixteenth,G3
1473,Right,0,79,110,244.5,0.989583,Quarter,G5
1475,Left,1,64,110,244.75,0.239583,Sixteenth,E4
1476,Left,1,57,110,245.0,0.239583,Sixteenth,A3
1477,Left,1,65,110,245.25,0.239583,Sixteenth,F4
1479,Left,1,59,110,245.5,0.239583,Sixteenth,B3
1478,Right,0,79,110,245.5,0.489583,Eighth,G5
1480,Left,1,67,110,245.75,0.239583,Sixteenth,G4
1481,Right,0,67,100,246.0,0.239583,Sixteenth,G4
1482,Left,1,60,100,246.0,0.489583,Eighth,E4_C4
1484,Right,0,76,94,246.25,0.239583,Sixteenth,E5
1485,Right,0,69,87,246.5,0.239583,Sixteenth,A4
1486,Right,0,77,81,246.75,0.239583,Sixteenth,F5
1487,Right,0,65,80,247.0,0.239583,Sixteenth,F4
1488,Right,0,74,80,247.25,0.239583,Sixteenth,D5
1489,Right,0,67,80,247.5,0.239583,Sixteenth,G4
1490,Right,0,76,80,247.75,0.239583,Sixteenth,E5
1491,Right,0,64,80,248.0,0.239583,Sixteenth,E4
1492,Left,1,55,80,248.0,0.239583,Sixteenth,G3
1494,Left,1,64,80,248.25,0.239583,Sixteenth,E4
1493,Right,0,72,80,248.25,0.239583,Sixteenth,C5
1495,Left,1,57,80,248.5,0.239583,Sixteenth,A3
1496,Left,1,65,80,248.75,0.239583,Sixteenth,F4
1497,Left,1,53,80,249.0,0.239583,Sixteenth,F3
1498,Left,1,62,80,249.25,0.239583,Sixteenth,D4
1499,Left,1,55,80,249.5,0.239583,Sixteenth,G3
1500,Left,1,64,80,249.75,0.239583,Sixteenth,E4
1502,Right,0,76,80,250.0,0.239583,Sixteenth,E5
1501,Left,1,52,80,250.0,0.239583,Sixteenth,E3
1504,Right,0,79,80,250.25,0.239583,Sixteenth,G5
1503,Left,1,60,80,250.25,0.239583,Sixteenth,C4
1505,Right,0,77,80,250.5,0.239583,Sixteenth,F5
1506,Right,0,81,80,250.75,0.239583,Sixteenth,A5
1507,Right,0,74,80,251.0,0.239583,Sixteenth,D5
1508,Right,0,77,80,251.25,0.239583,Sixteenth,F5
1509,Right,0,76,80,251.5,0.239583,Sixteenth,E5
1510,Right,0,79,80,251.75,0.239583,Sixteenth,G5
1511,Right,0,72,80,252.0,0.239583,Sixteenth,C5
1512,Left,1,64,80,252.0,0.239583,Sixteenth,E4
1514,Right,0,76,80,252.25,0.239583,Sixteenth,E5
1513,Left,1,67,80,252.25,0.239583,Sixteenth,G4
1515,Left,1,65,80,252.5,0.239583,Sixteenth,F4
1516,Left,1,69,80,252.75,0.239583,Sixteenth,A4
1517,Left,1,62,80,253.0,0.239583,Sixteenth,D4
1518,Left,1,65,80,253.25,0.239583,Sixteenth,F4
1519,Left,1,64,80,253.5,0.239583,Sixteenth,E4
1520,Left,1,67,80,253.75,0.239583,Sixteenth,G4
1521,Right,0,82,80,254.0,0.239583,Sixteenth,A#5
1522,Left,1,60,80,254.0,0.239583,Sixteenth,C4
1524,Right,0,79,80,254.25,0.239583,Sixteenth,G5
1523,Left,1,64,80,254.25,0.239583,Sixteenth,E4
1525,Right,0,84,80,254.5,0.239583,Sixteenth,C6
1526,Right,0,81,80,254.75,0.239583,Sixteenth,A5
1527,Right,0,81,80,255.0,0.239583,Sixteenth,A5
1528,Right,0,77,80,255.25,0.239583,Sixteenth,F5
1529,Right,0,82,80,255.5,0.239583,Sixteenth,A#5
1530,Right,0,79,80,255.75,0.239583,Sixteenth,G5
1531,Left,1,64,80,256.0,0.239583,Sixteenth,E4
1532,Right,0,79,80,256.0,0.239583,Sixteenth,G5
1534,Left,1,67,80,256.25,0.239583,Sixteenth,G4
1533,Right,0,76,80,256.25,0.239583,Sixteenth,E5
1535,Left,1,65,80,256.5,0.239583,Sixteenth,F4
1536,Right,0,81,80,256.5,0.239583,Sixteenth,A5
1537,Left,1,69,80,256.75,0.239583,Sixteenth,A4
1538,Right,0,77,80,256.75,0.239583,Sixteenth,F5
1539,Left,1,62,80,257.0,0.239583,Sixteenth,D4
1540,Right,0,77,80,257.0,0.239583,Sixteenth,F5
1541,Left,1,65,80,257.25,0.239583,Sixteenth,F4
1542,Right,0,74,80,257.25,0.239583,Sixteenth,D5
1543,Left,1,64,80,257.5,0.239583,Sixteenth,E4
1544,Right,0,79,80,257.5,0.239583,Sixteenth,G5
1546,Left,1,67,80,257.75,0.239583,Sixteenth,G4
1545,Right,0,76,80,257.75,0.239583,Sixteenth,E5
1547,Right,0,76,80,258.0,0.239583,Sixteenth,E5
1548,Left,1,60,80,258.0,0.239583,Sixteenth,C4
1550,Left,1,64,80,258.25,0.239583,Sixteenth,E4
1549,Right,0,72,80,258.25,0.239583,Sixteenth,C5
1552,Left,1,62,81,258.5,0.239583,Sixteenth,D4
1551,Right,0,77,81,258.5,0.239583,Sixteenth,F5
1554,Left,1,65,82,258.75,0.239583,Sixteenth,F4
1553,Right,0,74,82,258.75,0.239583,Sixteenth,D5
1556,Left,1,58,83,259.0,0.239583,Sixteenth,A#3
1555,Right,0,74,83,259.0,0.239583,Sixteenth,D5
1558,Left,1,62,84,259.25,0.239583,Sixteenth,D4
1557,Right,0,70,84,259.25,0.239583,Sixteenth,A#4
1560,Right,0,76,85,259.5,0.239583,Sixteenth,E5
1559,Left,1,60,85,259.5,0.239583,Sixteenth,C4
1561,Left,1,64,86,259.75,0.239583,Sixteenth,E4
1562,Right,0,72,86,259.75,0.239583,Sixteenth,C5
1563,Left,1,57,86,260.0,0.239583,Sixteenth,A3
1564,Right,0,72,86,260.0,0.239583,Sixteenth,C5
1566,Left,1,60,87,260.25,0.239583,Sixteenth,C4
1565,Right,0,69,87,260.25,0.239583,Sixteenth,A4
1567,Left,1,58,88,260.5,0.239583,Sixteenth,A#3
1568,Right,0,74,88,260.5,0.239583,Sixteenth,D5
1570,Right,0,70,89,260.75,0.239583,Sixteenth,A#4
1569,Left,1,62,89,260.75,0.239583,Sixteenth,D4
1571,Left,1,55,90,261.0,0.239583,Sixteenth,G3
1572,Right,0,70,90,261.0,0.239583,Sixteenth,A#4
1574,Right,0,67,91,261.25,0.239583,Sixteenth,G4
1573,Left,1,58,91,261.25,0.239583,Sixteenth,A#3
1576,Right,0,72,92,261.5,0.239583,Sixteenth,C5
1575,Left,1,57,92,261.5,0.239583,Sixteenth,A3
1578,Right,0,69,93,261.75,0.239583,Sixteenth,A4
1577,Left,1,60,93,261.75,0.239583,Sixteenth,C4
1579,Right,0,69,93,262.0,0.239583,Sixteenth,A4
1580,Left,1,53,93,262.0,0.239583,Sixteenth,F3
1582,Right,0,65,94,262.25,0.239583,Sixteenth,F4
1581,Left,1,57,94,262.25,0.239583,Sixteenth,A3
1583,Left,1,55,95,262.5,0.239583,Sixteenth,G3
1584,Right,0,70,95,262.5,0.239583,Sixteenth,A#4
1586,Right,0,67,96,262.75,0.239583,Sixteenth,G4
1585,Left,1,58,96,262.75,0.239583,Sixteenth,A#3
1588,Right,0,72,97,263.0,0.239583,Sixteenth,C5
1587,Left,1,57,97,263.0,0.239583,Sixteenth,A3
1590,Right,0,69,98,263.25,0.239583,Sixteenth,A4
1589,Left,1,60,98,263.25,0.239583,Sixteenth,C4
1591,Right,0,74,99,263.5,0.239583,Sixteenth,D5
1592,Left,1,58,99,263.5,0.239583,Sixteenth,A#3
1593,Right,0,70,99,263.75,0.239583,Sixteenth,A#4
1594,Left,1,62,99,263.75,0.239583,Sixteenth,D4
1596,Left,1,57,100,264.0,0.239583,Sixteenth,A3
1595,Right,0,72,100,264.0,0.239583,Sixteenth,C5
1597,Right,0,69,98,264.25,0.239583,Sixteenth,A4
1598,Left,1,60,98,264.25,0.239583,Sixteenth,C4
1600,Left,1,55,95,264.5,0.239583,Sixteenth,G3
1599,Right,0,70,95,264.5,0.239583,Sixteenth,A#4
1601,Left,1,58,92,264.75,0.239583,Sixteenth,A#3
1602,Right,0,67,92,264.75,0.239583,Sixteenth,G4
1604,Left,1,53,89,265.0,0.239583,Sixteenth,F3
1603,Right,0,69,89,265.0,0.239583,Sixteenth,A4
1605,Left,1,57,86,265.25,0.239583,Sixteenth,A3
1606,Right,0,65,86,265.25,0.239583,Sixteenth,F4
1607,Right,0,67,83,265.5,0.239583,Sixteenth,G4
1608,Left,1,48,83,265.5,0.239583,Sixteenth,C3
1609,Right,0,60,81,265.75,0.239583,Sixteenth,C4
1610,Left,1,55,81,265.75,0.239583,Sixteenth,G3
1611,Right,0,53,80,266.0,0.239583,Sixteenth,F3
1612,Left,1,29,80,266.0,0.239583,Sixteenth,F1
1614,Left,1,41,80,266.25,0.239583,Sixteenth,F2
1613,Right,0,57,80,266.25,0.239583,Sixteenth,A3
1616,Right,0,60,81,266.5,0.239583,Sixteenth,C4
1615,Left,1,29,81,266.5,0.239583,Sixteenth,F1
1618,Left,1,41,82,266.75,0.239583,Sixteenth,F2
1617,Right,0,65,82,266.75,0.239583,Sixteenth,F4
1619,Right,0,55,83,267.0,0.239583,Sixteenth,G3
1620,Left,1,29,83,267.0,0.239583,Sixteenth,F1
1621,Right,0,64,84,267.25,0.239583,Sixteenth,E4
1622,Left,1,41,84,267.25,0.239583,Sixteenth,F2
1623,Right,0,57,85,267.5,0.239583,Sixteenth,A3
1624,Left,1,29,85,267.5,0.239583,Sixteenth,F1
1625,Right,0,65,86,267.75,0.239583,Sixteenth,F4
1626,Left,1,41,86,267.75,0.239583,Sixteenth,F2
1627,Left,1,29,87,268.0,0.239583,Sixteenth,F1
1628,Right,0,58,87,268.0,0.239583,Sixteenth,A#3
1630,Right,0,67,88,268.25,0.239583,Sixteenth,G4
1629,Left,1,41,88,268.25,0.239583,Sixteenth,F2
1631,Left,1,29,89,268.5,0.239583,Sixteenth,F1
1632,Right,0,60,89,268.5,0.239583,Sixteenth,C4
1634,Right,0,69,90,268.75,0.239583,Sixteenth,A4
1633,Left,1,41,90,268.75,0.239583,Sixteenth,F2
1635,Right,0,62,91,269.0,0.239583,Sixteenth,D4
1636,Left,1,29,91,269.0,0.239583,Sixteenth,F1
1638,Left,1,41,92,269.25,0.239583,Sixteenth,F2
1637,Right,0,70,92,269.25,0.239583,Sixteenth,A#4
1639,Left,1,29,93,269.5,0.239583,Sixteenth,F1
1640,Right,0,64,93,269.5,0.239583,Sixteenth,E4
1642,Right,0,72,94,269.75,0.239583,Sixteenth,C5
1641,Left,1,41,94,269.75,0.239583,Sixteenth,F2
1644,Right,0,65,95,270.0,0.239583,Sixteenth,F4
1643,Left,1,29,95,270.0,0.239583,Sixteenth,F1
1645,Left,1,41,96,270.25,0.239583,Sixteenth,F2
1646,Right,0,69,96,270.25,0.239583,Sixteenth,A4
1647,Right,0,72,97,270.5,0.239583,Sixteenth,C5
1648,Left,1,29,97,270.5,0.239583,Sixteenth,F1
1650,Left,1,41,98,270.75,0.239583,Sixteenth,F2
1649,Right,0,77,98,270.75,0.239583,Sixteenth,F5
1652,Left,1,29,99,271.0,0.239583,Sixteenth,F1
1651,Right,0,67,99,271.0,0.239583,Sixteenth,G4
1653,Left,1,41,100,271.25,0.239583,Sixteenth,F2
1654,Right,0,76,100,271.25,0.239583,Sixteenth,E5
1655,Right,0,69,101,271.5,0.239583,Sixteenth,A4
1656,Left,1,29,101,271.5,0.239583,Sixteenth,F1
1657,Right,0,77,102,271.75,0.239583,Sixteenth,F5
1658,Left,1,41,102,271.75,0.239583,Sixteenth,F2
1660,Right,0,70,103,272.0,0.239583,Sixteenth,A#4
1659,Left,1,29,103,272.0,0.239583,Sixteenth,F1
1661,Right,0,79,104,272.25,0.239583,Sixteenth,G5
1662,Left,1,41,104,272.25,0.239583,Sixteenth,F2
1664,Right,0,72,105,272.5,0.239583,Sixteenth,C5
1663,Left,1,29,105,272.5,0.239583,Sixteenth,F1
1666,Right,0,81,106,272.75,0.239583,Sixteenth,A5
1665,Left,1,41,106,272.75,0.239583,Sixteenth,F2
1667,Left,1,29,107,273.0,0.239583,Sixteenth,F1
1668,Right,0,74,107,273.0,0.239583,Sixteenth,D5
1669,Left,1,41,108,273.25,0.239583,Sixteenth,F2
1670,Right,0,82,108,273.25,0.239583,Sixteenth,A#5
1671,Right,0,76,108,273.5,0.239583,Sixteenth,E5
1672,Left,1,29,108,273.5,0.239583,Sixteenth,F1
1674,Left,1,41,109,273.75,0.239583,Sixteenth,F2
1673,Right,0,84,109,273.75,0.239583,Sixteenth,C6
1675,Right,0,81,110,274.0,0.239583,Sixteenth,A5
1676,Left,1,41,110,274.0,0.239583,Sixteenth,F2
1678,Left,1,45,110,274.25,0.239583,Sixteenth,A2
1677,Right,0,77,110,274.25,0.239583,Sixteenth,F5
1679,Right,0,84,110,274.5,0.239583,Sixteenth,C6
1680,Left,1,48,110,274.5,0.239583,Sixteenth,C3
1681,Right,0,72,110,274.75,0.239583,Sixteenth,C5
1682,Left,1,53,110,274.75,0.239583,Sixteenth,F3
1684,Right,0,84,110,275.0,0.239583,Sixteenth,C6
1683,Left,1,43,110,275.0,0.239583,Sixteenth,G2
1685,Right,0,72,110,275.25,0.239583,Sixteenth,C5
1686,Left,1,52,110,275.25,0.239583,Sixteenth,E3
1688,Right,0,84,110,275.5,0.239583,Sixteenth,C6
1687,Left,1,45,110,275.5,0.239583,Sixteenth,A2
1690,Right,0,72,110,275.75,0.239583,Sixteenth,C5
1689,Left,1,53,110,275.75,0.239583,Sixteenth,F3
1691,Left,1,46,110,276.0,0.239583,Sixteenth,A#2
1692,Right,0,84,110,276.0,0.239583,Sixteenth,C6
1693,Left,1,55,110,276.25,0.239583,Sixteenth,G3
1694,Right,0,72,110,276.25,0.239583,Sixteenth,C5
1695,Left,1,48,110,276.5,0.239583,Sixteenth,C3
1696,Right,0,84,110,276.5,0.239583,Sixteenth,C6
1698,Right,0,72,110,276.75,0.239583,Sixteenth,C5
1697,Left,1,57,110,276.75,0.239583,Sixteenth,A3
1699,Right,0,84,110,277.0,0.239583,Sixteenth,C6
1700,Left,1,50,110,277.0,0.239583,Sixteenth,D3
1701,Right,0,72,110,277.25,0.239583,Sixteenth,C5
1702,Left,1,58,110,277.25,0.239583,Sixteenth,A#3
1703,Left,1,52,110,277.5,0.239583,Sixteenth,E3
1704,Right,0,84,110,277.5,0.239583,Sixteenth,C6
1706,Right,0,72,110,277.75,0.239583,Sixteenth,C5
1705,Left,1,60,110,277.75,0.239583,Sixteenth,C4
1708,Right,0,69,110,278.0,0.239583,Sixteenth,A4
1707,Left,1,53,110,278.0,0.239583,Sixteenth,F3
1710,Right,0,72,110,278.25,0.239583,Sixteenth,C5
1709,Left,1,57,110,278.25,0.239583,Sixteenth,A3
1711,Right,0,77,110,278.5,0.239583,Sixteenth,F5
1712,Left,1,60,110,278.5,0.239583,Sixteenth,C4
1713,Right,0,81,110,278.75,0.239583,Sixteenth,A5
1714,Left,1,65,110,278.75,0.239583,Sixteenth,F4
1715,Right,0,72,110,279.0,0.239583,Sixteenth,C5
1716,Left,1,63,110,279.0,0.239583,Sixteenth,D#4
1718,Right,0,81,110,279.25,0.239583,Sixteenth,A5
1717,Left,1,65,110,279.25,0.239583,Sixteenth,F4
1719,Left,1,62,110,279.5,0.239583,Sixteenth,D4
1720,Right,0,74,110,279.5,0.239583,Sixteenth,D5
1722,Left,1,65,110,279.75,0.239583,Sixteenth,F4
1721,Right,0,82,110,279.75,0.239583,Sixteenth,A#5
1723,Left,1,60,110,280.0,0.239583,Sixteenth,C4
1724,Right,0,75,110,280.0,0.239583,Sixteenth,D#5
1725,Left,1,65,110,280.25,0.239583,Sixteenth,F4
1726,Right,0,84,110,280.25,0.239583,Sixteenth,C6
1727,Left,1,58,110,280.5,0.239583,Sixteenth,A#3
1728,Right,0,77,110,280.5,0.239583,Sixteenth,F5
1729,Left,1,65,110,280.75,0.239583,Sixteenth,F4
1730,Right,0,86,110,280.75,0.239583,Sixteenth,D6
1732,Left,1,57,110,281.0,0.239583,Sixteenth,A3
1731,Right,0,84,110,281.0,0.239583,Sixteenth,C6
1733,Right,0,87,110,281.25,0.239583,Sixteenth,D#6
1734,Left,1,65,110,281.25,0.239583,Sixteenth,F4
1735,Right,0,81,110,281.5,0.239583,Sixteenth,A5
1736,Left,1,53,110,281.5,0.239583,Sixteenth,F3
1737,Right,0,89,110,281.75,0.239583,Sixteenth,F6
1738,Left,1,60,110,281.75,0.239583,Sixteenth,C4
1739,Right,0,86,100,282.0,0.239583,Sixteenth,D6
1740,Left,1,58,100,282.0,0.239583,Sixteenth,A#3
1742,Left,1,62,94,282.25,0.239583,Sixteenth,D4
1741,Right,0,82,94,282.25,0.239583,Sixteenth,A#5
1744,Left,1,53,87,282.5,0.239583,Sixteenth,F3
1743,Right,0,89,87,282.5,0.239583,Sixteenth,F6
1746,Left,1,60,81,282.75,0.239583,Sixteenth,C4
1745,Right,0,81,81,282.75,0.239583,Sixteenth,A5
1747,Right,0,82,80,283.0,0.239583,Sixteenth,A#5
1748,Left,1,55,80,283.0,0.239583,Sixteenth,G3
1749,Right,0,79,80,283.25,0.239583,Sixteenth,G5
1750,Left,1,58,80,283.25,0.239583,Sixteenth,A#3
1752,Right,0,86,80,283.5,0.239583,Sixteenth,D6
1751,Left,1,50,80,283.5,0.239583,Sixteenth,D3
1754,Left,1,57,80,283.75,0.239583,Sixteenth,A3
1753,Right,0,77,80,283.75,0.239583,Sixteenth,F5
1756,Left,1,51,80,284.0,0.239583,Sixteenth,D#3
1755,Right,0,79,80,284.0,0.239583,Sixteenth,G5
1758,Left,1,55,80,284.25,0.239583,Sixteenth,G3
1757,Right,0,75,80,284.25,0.239583,Sixteenth,D#5
1760,Right,0,82,80,284.5,0.239583,Sixteenth,A#5
1759,Left,1,46,80,284.5,0.239583,Sixteenth,A#2
1762,Right,0,74,80,284.75,0.239583,Sixteenth,D5
1761,Left,1,53,80,284.75,0.239583,Sixteenth,F3
1764,Left,1,48,80,285.0,0.239583,Sixteenth,C3
1763,Right,0,75,80,285.0,0.239583,Sixteenth,D#5
1766,Left,1,51,80,285.25,0.239583,Sixteenth,D#3
1765,Right,0,72,80,285.25,0.239583,Sixteenth,C5
1767,Left,1,43,80,285.5,0.239583,Sixteenth,G2
1768,Right,0,79,80,285.5,0.239583,Sixteenth,G5
1770,Left,1,50,80,285.75,0.239583,Sixteenth,D3
1769,Right,0,70,80,285.75,0.239583,Sixteenth,A#4
1771,Right,0,77,80,286.0,0.239583,Sixteenth,F5
1772,Left,1,45,80,286.0,0.239583,Sixteenth,A2
1773,Right,0,72,81,286.25,0.239583,Sixteenth,C5
1774,Left,1,48,81,286.25,0.239583,Sixteenth,C3
1776,Right,0,69,83,286.5,0.239583,Sixteenth,A4
1775,Left,1,41,83,286.5,0.239583,Sixteenth,F2
1777,Right,0,75,85,286.75,0.239583,Sixteenth,D#5
1778,Left,1,53,85,286.75,0.239583,Sixteenth,F3
1780,Right,0,74,87,287.0,0.239583,Sixteenth,D5
1779,Left,1,43,87,287.0,0.239583,Sixteenth,G2
1782,Right,0,70,89,287.25,0.239583,Sixteenth,A#4
1781,Left,1,55,89,287.25,0.239583,Sixteenth,G3
1784,Right,0,67,91,287.5,0.239583,Sixteenth,G4
1783,Left,1,39,91,287.5,0.239583,Sixteenth,D#2
1785,Right,0,72,93,287.75,0.239583,Sixteenth,C5
1786,Left,1,51,93,287.75,0.239583,Sixteenth,D#3
1788,Right,0,65,95,288.0,0.239583,Sixteenth,F4_D4
1787,Left,1,41,95,288.0,0.239583,Sixteenth,F2
1790,Left,1,53,97,288.25,0.239583,Sixteenth,F3
1791,Right,0,72,97,288.25,0.239583,Sixteenth,C5
1792,Right,0,61,99,288.5,0.239583,Sixteenth,F4_C#4
1794,Left,1,41,99,288.5,0.239583,Sixteenth,F2
1796,Left,1,53,101,288.75,0.239583,Sixteenth,F3
1795,Right,0,70,101,288.75,0.239583,Sixteenth,A#4
1797,Left,1,41,103,289.0,0.239583,Sixteenth,F2
1798,Right,0,63,103,289.0,0.239583,Sixteenth,D#4_C4
1800,Right,0,70,105,289.25,0.239583,Sixteenth,A#4
1801,Left,1,53,105,289.25,0.239583,Sixteenth,F3
1802,Right,0,63,107,289.5,0.239583,Sixteenth,D#4_C4
1804,Left,1,41,107,289.5,0.239583,Sixteenth,F2
1805,Right,0,69,109,289.75,0.239583,Sixteenth,A4
1806,Left,1,53,109,289.75,0.239583,Sixteenth,F3
1807,Left,1,58,80,290.0,0.239583,Sixteenth,A#3
1808,Right,0,73,80,290.0,0.239583,Sixteenth,C#5
1810,Left,1,61,80,290.25,0.239583,Sixteenth,C#4
1809,Right,0,70,80,290.25,0.239583,Sixteenth,A#4
1811,Left,1,53,80,290.5,0.239583,Sixteenth,F3
1812,Right,0,77,80,290.5,0.239583,Sixteenth,F5
1813,Left,1,60,80,290.75,0.239583,Sixteenth,C4
1814,Right,0,68,80,290.75,0.239583,Sixteenth,G#4
1816,Left,1,54,80,291.0,0.239583,Sixteenth,F#3
1815,Right,0,70,80,291.0,0.239583,Sixteenth,A#4
1817,Right,0,66,80,291.25,0.239583,Sixteenth,F#4
1818,Left,1,58,80,291.25,0.239583,Sixteenth,A#3
1819,Right,0,73,80,291.5,0.239583,Sixteenth,C#5
1820,Left,1,49,80,291.5,0.239583,Sixteenth,C#3
1822,Left,1,56,80,291.75,0.239583,Sixteenth,G#3
1821,Right,0,65,80,291.75,0.239583,Sixteenth,F4
1824,Right,0,66,80,292.0,0.239583,Sixteenth,F#4
1823,Left,1,51,80,292.0,0.239583,Sixteenth,D#3
1826,Right,0,63,80,292.25,0.239583,Sixteenth,D#4
1825,Left,1,54,80,292.25,0.239583,Sixteenth,F#3
1827,Left,1,46,80,292.5,0.239583,Sixteenth,A#2
1828,Right,0,70,80,292.5,0.239583,Sixteenth,A#4
1829,Left,1,53,80,292.75,0.239583,Sixteenth,F3
1830,Right,0,61,80,292.75,0.239583,Sixteenth,C#4
1831,Right,0,68,80,293.0,0.239583,Sixteenth,G#4
1832,Left,1,48,80,293.0,0.239583,Sixteenth,C3
1834,Left,1,51,80,293.25,0.239583,Sixteenth,D#3
1833,Right,0,63,80,293.25,0.239583,Sixteenth,D#4
1836,Left,1,44,80,293.5,0.239583,Sixteenth,G#2
1835,Right,0,60,80,293.5,0.239583,Sixteenth,C4
1837,Left,1,51,80,293.75,0.239583,Sixteenth,D#3
1838,Right,0,66,80,293.75,0.239583,Sixteenth,F#4
1840,Left,1,37,80,294.0,0.239583,Sixteenth,C#2
1839,Right,0,65,80,294.0,0.239583,Sixteenth,F4
1841,Left,1,49,84,294.25,0.239583,Sixteenth,C#3
1842,Right,0,56,84,294.25,0.239583,Sixteenth,G#3
1843,Left,1,37,88,294.5,0.239583,Sixteenth,C#2
1844,Right,0,58,88,294.5,0.239583,Sixteenth,F#3_A#3
1846,Right,0,63,92,294.75,0.239583,Sixteenth,D#4
1847,Left,1,49,92,294.75,0.239583,Sixteenth,C#3
1848,Left,1,37,97,295.0,0.239583,Sixteenth,C#2
1849,Right,0,53,97,295.0,0.239583,Sixteenth,G#3_F3
1851,Left,1,49,101,295.25,0.239583,Sixteenth,C#3
1852,Right,0,61,101,295.25,0.239583,Sixteenth,C#4
1853,Right,0,51,105,295.5,0.239583,Sixteenth,F#3_D#3
1855,Left,1,37,105,295.5,0.239583,Sixteenth,C#2
1856,Left,1,49,109,295.75,0.239583,Sixteenth,C#3
1857,Right,0,60,109,295.75,0.239583,Sixteenth,C4
1858,Left,1,37,110,296.0,1.989583,Half,C#2
1859,Right,0,53,110,296.0,0.239583,Sixteenth,F3
1860,Right,0,59,110,296.25,0.239583,Sixteenth,B3
1861,Right,0,53,110,296.5,0.239583,Sixteenth,F3
1862,Right,0,55,110,296.75,0.239583,Sixteenth,G3
1863,Right,0,56,110,297.0,0.239583,Sixteenth,G#3
1864,Right,0,55,110,297.25,0.239583,Sixteenth,G3
1865,Right,0,56,110,297.5,0.239583,Sixteenth,G#3
1866,Right,0,53,110,297.75,0.239583,Sixteenth,F3
1867,Left,1,38,110,298.0,1.989583,Half,D2
1868,Right,0,59,110,298.25,0.239583,Sixteenth,B3
1869,Right,0,53,110,298.5,0.239583,Sixteenth,F3
1870,Right,0,55,110,298.75,0.239583,Sixteenth,G3
1871,Right,0,56,110,299.0,0.239583,Sixteenth,G#3
1872,Right,0,55,110,299.25,0.239583,Sixteenth,G3
1873,Right,0,56,110,299.5,0.239583,Sixteenth,G#3
1874,Right,0,53,110,299.75,0.239583,Sixteenth,F3
1875,Left,1,36,110,300.0,1.989583,Half,C2
1876,Right,0,60,110,300.25,0.239583,Sixteenth,C4
1877,Right,0,53,110,300.5,0.239583,Sixteenth,F3
1878,Right,0,55,110,300.75,0.239583,Sixteenth,G3
1879,Right,0,56,110,301.0,0.239583,Sixteenth,G#3
1880,Right,0,55,110,301.25,0.239583,Sixteenth,G3
1881,Right,0,56,110,301.5,0.239583,Sixteenth,G#3
1882,Right,0,53,110,301.75,0.239583,Sixteenth,F3
1883,Left,1,35,110,302.0,0.989583,Quarter,B1
1884,Right,0,53,110,302.25,0.239583,Sixteenth,F3
1885,Right,0,56,110,302.5,0.239583,Sixteenth,G#3
1886,Right,0,62,110,302.75,0.239583,Sixteenth,D4
1887,Left,1,35,110,303.0,0.989583,Quarter,B1
1888,Right,0,53,110,303.25,0.239583,Sixteenth,F3
1889,Right,0,56,110,303.5,0.239583,Sixteenth,G#3
1890,Right,0,62,110,303.75,0.239583,Sixteenth,D4
1891,Right,0,48,100,304.0,0.239583,Sixteenth,C3
1893,Left,1,36,94,304.25,0.239583,Sixteenth,C2
1892,Right,0,52,94,304.25,0.239583,Sixteenth,E3
1894,Right,0,55,87,304.5,0.239583,Sixteenth,G3
1895,Left,1,40,87,304.5,0.239583,Sixteenth,E2
1896,Left,1,36,81,304.75,0.239583,Sixteenth,C2
1897,Right,0,60,81,304.75,0.239583,Sixteenth,C4
1899,Right,0,49,80,305.0,0.239583,Sixteenth,C#3
1898,Left,1,41,80,305.0,0.239583,Sixteenth,F2
1900,Right,0,59,80,305.25,0.239583,Sixteenth,B3
1901,Left,1,36,80,305.25,0.239583,Sixteenth,C2
1903,Left,1,40,80,305.5,0.239583,Sixteenth,E2
1902,Right,0,48,80,305.5,0.239583,Sixteenth,C3
1904,Left,1,36,80,305.75,0.239583,Sixteenth,C2
1905,Right,0,60,80,305.75,0.239583,Sixteenth,C4
1906,Right,0,60,80,306.0,0.239583,Sixteenth,C4
1907,Right,0,64,80,306.25,0.239583,Sixteenth,E4
1908,Left,1,48,80,306.25,0.239583,Sixteenth,C3
1910,Left,1,52,80,306.5,0.239583,Sixteenth,E3
1909,Right,0,67,80,306.5,0.239583,Sixteenth,G4
1911,Left,1,48,80,306.75,0.239583,Sixteenth,C3
1912,Right,0,72,80,306.75,0.239583,Sixteenth,C5
1913,Left,1,53,80,307.0,0.239583,Sixteenth,F3
1914,Right,0,61,80,307.0,0.239583,Sixteenth,C#4
1915,Right,0,71,80,307.25,0.239583,Sixteenth,B4
1916,Left,1,48,80,307.25,0.239583,Sixteenth,C3
1917,Right,0,60,80,307.5,0.239583,Sixteenth,C4
1918,Left,1,52,80,307.5,0.239583,Sixteenth,E3
1919,Right,0,72,80,307.75,0.239583,Sixteenth,C5
1920,Left,1,48,80,307.75,0.239583,Sixteenth,C3
1921,Right,0,72,80,308.0,0.239583,Sixteenth,C5
1923,Left,1,67,80,308.25,0.239583,Sixteenth,G4
1922,Right,0,76,80,308.25,0.239583,Sixteenth,E5
1924,Right,0,79,80,308.5,0.239583,Sixteenth,G5
1925,Left,1,64,80,308.5,0.239583,Sixteenth,E4
1927,Left,1,67,80,308.75,0.239583,Sixteenth,G4
1926,Right,0,84,80,308.75,0.239583,Sixteenth,C6
1929,Left,1,65,80,309.0,0.239583,Sixteenth,F4
1928,Right,0,73,80,309.0,0.239583,Sixteenth,C#5
1931,Left,1,67,80,309.25,0.239583,Sixteenth,G4
1930,Right,0,83,80,309.25,0.239583,Sixteenth,B5
1932,Left,1,64,80,309.5,0.239583,Sixteenth,E4
1933,Right,0,72,80,309.5,0.239583,Sixteenth,C5
1934,Left,1,67,80,309.75,0.239583,Sixteenth,G4
1935,Right,0,84,80,309.75,0.239583,Sixteenth,C6
1936,Left,1,65,80,310.0,0.239583,Sixteenth,F4
1937,Right,0,73,80,310.0,0.239583,Sixteenth,C#5
1939,Right,0,83,80,310.25,0.239583,Sixteenth,B5
1938,Left,1,67,80,310.25,0.239583,Sixteenth,G4
1941,Right,0,72,80,310.5,0.239583,Sixteenth,C5
1940,Left,1,64,80,310.5,0.239583,Sixteenth,E4
1943,Left,1,67,80,310.75,0.239583,Sixteenth,G4
1942,Right,0,84,80,310.75,0.239583,Sixteenth,C6
1944,Right,0,71,80,311.0,0.239583,Sixteenth,B4
1945,Left,1,63,80,311.0,0.239583,Sixteenth,D#4
1947,Left,1,65,80,311.25,0.239583,Sixteenth,F4
1946,Right,0,81,80,311.25,0.239583,Sixteenth,A5
1949,Left,1,62,80,311.5,0.239583,Sixteenth,D4
1948,Right,0,70,80,311.5,0.239583,Sixteenth,A#4
1951,Right,0,82,80,311.75,0.239583,Sixteenth,A#5
1950,Left,1,65,80,311.75,0.239583,Sixteenth,F4
1952,Right,0,46,80,312.0,0.239583,Sixteenth,A#2
1954,Left,1,34,80,312.25,0.239583,Sixteenth,A#1
1953,Right,0,50,80,312.25,0.239583,Sixteenth,D3
1956,Left,1,38,80,312.5,0.239583,Sixteenth,D2
1955,Right,0,53,80,312.5,0.239583,Sixteenth,F3
1957,Left,1,34,80,312.75,0.239583,Sixteenth,A#1
1958,Right,0,58,80,312.75,0.239583,Sixteenth,A#3
1960,Right,0,47,80,313.0,0.239583,Sixteenth,B2
1959,Left,1,39,80,313.0,0.239583,Sixteenth,D#2
1961,Left,1,34,80,313.25,0.239583,Sixteenth,A#1
1962,Right,0,57,80,313.25,0.239583,Sixteenth,A3
1963,Left,1,38,80,313.5,0.239583,Sixteenth,D2
1964,Right,0,46,80,313.5,0.239583,Sixteenth,A#2
1965,Right,0,58,80,313.75,0.239583,Sixteenth,A#3
1966,Left,1,34,80,313.75,0.239583,Sixteenth,A#1
1967,Right,0,58,80,314.0,0.239583,Sixteenth,A#3
1968,Left,1,46,80,314.25,0.239583,Sixteenth,A#2
1969,Right,0,62,80,314.25,0.239583,Sixteenth,D4
1970,Left,1,50,80,314.5,0.239583,Sixteenth,D3
1971,Right,0,65,80,314.5,0.239583,Sixteenth,F4
1972,Left,1,46,80,314.75,0.239583,Sixteenth,A#2
1973,Right,0,70,80,314.75,0.239583,Sixteenth,A#4
1974,Left,1,51,80,315.0,0.239583,Sixteenth,D#3
1975,Right,0,59,80,315.0,0.239583,Sixteenth,B3
1977,Left,1,46,80,315.25,0.239583,Sixteenth,A#2
1976,Right,0,69,80,315.25,0.239583,Sixteenth,A4
1978,Left,1,50,80,315.5,0.239583,Sixteenth,D3
1979,Right,0,58,80,315.5,0.239583,Sixteenth,A#3
1980,Right,0,70,80,315.75,0.239583,Sixteenth,A#4
1981,Left,1,46,80,315.75,0.239583,Sixteenth,A#2
1982,Right,0,70,80,316.0,0.239583,Sixteenth,A#4
1984,Right,0,74,80,316.25,0.239583,Sixteenth,D5
1983,Left,1,65,80,316.25,0.239583,Sixteenth,F4
1986,Right,0,77,80,316.5,0.239583,Sixteenth,F5
1985,Left,1,62,80,316.5,0.239583,Sixteenth,D4
1988,Right,0,82,80,316.75,0.239583,Sixteenth,A#5
1987,Left,1,65,80,316.75,0.239583,Sixteenth,F4
1989,Left,1,63,80,317.0,0.239583,Sixteenth,D#4
1990,Right,0,71,80,317.0,0.239583,Sixteenth,B4
1992,Left,1,65,80,317.25,0.239583,Sixteenth,F4
1991,Right,0,81,80,317.25,0.239583,Sixteenth,A5
1993,Left,1,62,80,317.5,0.239583,Sixteenth,D4
1994,Right,0,70,80,317.5,0.239583,Sixteenth,A#4
1996,Left,1,65,80,317.75,0.239583,Sixteenth,F4
1995,Right,0,82,80,317.75,0.239583,Sixteenth,A#5
1998,Left,1,63,80,318.0,0.239583,Sixteenth,D#4
1997,Right,0,71,80,318.0,0.239583,Sixteenth,B4
1999,Left,1,65,80,318.25,0.239583,Sixteenth,F4
2000,Right,0,81,80,318.25,0.239583,Sixteenth,A5
2002,Left,1,62,80,318.5,0.239583,Sixteenth,D4
2001,Right,0,70,80,318.5,0.239583,Sixteenth,A#4
2003,Right,0,82,80,318.75,0.239583,Sixteenth,A#5
2004,Left,1,65,80,318.75,0.239583,Sixteenth,F4
2005,Left,1,61,80,319.0,0.239583,Sixteenth,C#4
2006,Right,0,69,80,319.0,0.239583,Sixteenth,A4
2008,Right,0,79,80,319.25,0.239583,Sixteenth,G5
2007,Left,1,63,80,319.25,0.239583,Sixteenth,D#4
2009,Left,1,60,80,319.5,0.239583,Sixteenth,C4
2010,Right,0,68,80,319.5,0.239583,Sixteenth,G#4
2012,Left,1,61,80,319.75,0.239583,Sixteenth,C#4
2011,Right,0,80,80,319.75,0.239583,Sixteenth,G#5
2013,Right,0,44,80,320.0,0.239583,Sixteenth,G#2
2014,Left,1,32,80,320.25,0.239583,Sixteenth,G#1
2015,Right,0,48,80,320.25,0.239583,Sixteenth,C3
2016,Left,1,36,80,320.5,0.239583,Sixteenth,C2
2017,Right,0,51,80,320.5,0.239583,Sixteenth,D#3
2018,Left,1,32,80,320.75,0.239583,Sixteenth,G#1
2019,Right,0,56,80,320.75,0.239583,Sixteenth,G#3
2020,Left,1,37,80,321.0,0.239583,Sixteenth,C#2
2021,Right,0,45,80,321.0,0.239583,Sixteenth,A2
2022,Left,1,32,80,321.25,0.239583,Sixteenth,G#1
2023,Right,0,55,80,321.25,0.239583,Sixteenth,G3
2025,Left,1,36,80,321.5,0.239583,Sixteenth,C2
2024,Right,0,44,80,321.5,0.239583,Sixteenth,G#2
2027,Right,0,56,80,321.75,0.239583,Sixteenth,G#3
2026,Left,1,32,80,321.75,0.239583,Sixteenth,G#1
2028,Right,0,56,80,322.0,0.239583,Sixteenth,G#3
2029,Left,1,44,80,322.25,0.239583,Sixteenth,G#2
2030,Right,0,60,80,322.25,0.239583,Sixteenth,C4
2032,Left,1,48,80,322.5,0.239583,Sixteenth,C3
2031,Right,0,63,80,322.5,0.239583,Sixteenth,D#4
2034,Left,1,44,80,322.75,0.239583,Sixteenth,G#2
2033,Right,0,68,80,322.75,0.239583,Sixteenth,G#4
2036,Left,1,49,80,323.0,0.239583,Sixteenth,C#3
2035,Right,0,57,80,323.0,0.239583,Sixteenth,A3
2038,Left,1,44,80,323.25,0.239583,Sixteenth,G#2
2037,Right,0,67,80,323.25,0.239583,Sixteenth,G4
2039,Right,0,56,80,323.5,0.239583,Sixteenth,G#3
2040,Left,1,48,80,323.5,0.239583,Sixteenth,C3
2042,Left,1,44,80,323.75,0.239583,Sixteenth,G#2
2041,Right,0,68,80,323.75,0.239583,Sixteenth,G#4
2043,Right,0,68,80,324.0,0.239583,Sixteenth,G#4
2044,Right,0,72,81,324.25,0.239583,Sixteenth,C5
2045,Left,1,63,81,324.25,0.239583,Sixteenth,D#4
2047,Right,0,75,82,324.5,0.239583,Sixteenth,D#5
2046,Left,1,60,82,324.5,0.239583,Sixteenth,C4
2048,Right,0,80,83,324.75,0.239583,Sixteenth,G#5
2049,Left,1,63,83,324.75,0.239583,Sixteenth,D#4
2050,Right,0,69,85,325.0,0.239583,Sixteenth,A4
2051,Left,1,61,85,325.0,0.239583,Sixteenth,C#4
2052,Left,1,63,86,325.25,0.239583,Sixteenth,D#4
2053,Right,0,79,86,325.25,0.239583,Sixteenth,G5
2054,Left,1,60,87,325.5,0.239583,Sixteenth,C4
2055,Right,0,68,87,325.5,0.239583,Sixteenth,G#4
2056,Left,1,63,89,325.75,0.239583,Sixteenth,D#4
2057,Right,0,80,89,325.75,0.239583,Sixteenth,G#5
2058,Left,1,61,90,326.0,0.239583,Sixteenth,C#4
2059,Right,0,69,90,326.0,0.239583,Sixteenth,A4
2060,Left,1,63,91,326.25,0.239583,Sixteenth,D#4
2061,Right,0,79,91,326.25,0.239583,Sixteenth,G5
2063,Left,1,60,93,326.5,0.239583,Sixteenth,C4
2062,Right,0,68,93,326.5,0.239583,Sixteenth,G#4
2065,Left,1,63,94,326.75,0.239583,Sixteenth,D#4
2064,Right,0,80,94,326.75,0.239583,Sixteenth,G#5
2066,Right,0,68,95,327.0,0.239583,Sixteenth,G#4
2067,Left,1,59,95,327.0,0.239583,Sixteenth,B3
2068,Right,0,77,96,327.25,0.239583,Sixteenth,F5
2069,Left,1,61,96,327.25,0.239583,Sixteenth,C#4
2070,Right,0,68,98,327.5,0.239583,Sixteenth,G#4
2071,Left,1,59,98,327.5,0.239583,Sixteenth,B3
2072,Right,0,77,99,327.75,0.239583,Sixteenth,F5
2073,Left,1,61,99,327.75,0.239583,Sixteenth,C#4
2074,Right,0,68,100,328.0,0.239583,Sixteenth,G#4
2075,Left,1,59,100,328.0,0.239583,Sixteenth,B3
2076,Right,0,77,102,328.25,0.239583,Sixteenth,F5
2077,Left,1,61,102,328.25,0.239583,Sixteenth,C#4
2079,Right,0,66,103,328.5,0.239583,Sixteenth,F#4
2078,Left,1,58,103,328.5,0.239583,Sixteenth,A#3
2080,Right,0,78,104,328.75,0.239583,Sixteenth,F#5
2081,Left,1,61,104,328.75,0.239583,Sixteenth,C#4
2082,Right,0,68,106,329.0,0.239583,Sixteenth,G#4
2083,Left,1,59,106,329.0,0.239583,Sixteenth,B3
2085,Left,1,61,107,329.25,0.239583,Sixteenth,C#4
2084,Right,0,77,107,329.25,0.239583,Sixteenth,F5
2087,Right,0,66,108,329.5,0.239583,Sixteenth,F#4
2086,Left,1,58,108,329.5,0.239583,Sixteenth,A#3
2088,Left,1,61,109,329.75,0.239583,Sixteenth,C#4
2089,Right,0,78,109,329.75,0.239583,Sixteenth,F#5
2091,Right,0,68,110,330.0,0.239583,Sixteenth,G#4
2090,Left,1,59,110,330.0,0.239583,Sixteenth,B3
2092,Left,1,61,110,330.25,0.239583,Sixteenth,C#4
2093,Right,0,77,110,330.25,0.239583,Sixteenth,F5
2095,Right,0,66,110,330.5,0.239583,Sixteenth,F#4
2094,Left,1,58,110,330.5,0.239583,Sixteenth,A#3
2097,Right,0,78,110,330.75,0.239583,Sixteenth,F#5
2096,Left,1,61,110,330.75,0.239583,Sixteenth,C#4
2098,Left,1,58,110,331.0,0.239583,Sixteenth,A#3
2099,Right,0,66,110,331.0,0.239583,Sixteenth,F#4
2101,Right,0,75,110,331.25,0.239583,Sixteenth,D#5
2100,Left,1,59,110,331.25,0.239583,Sixteenth,B3
2102,Right,0,66,110,331.5,0.239583,Sixteenth,F#4
2103,Left,1,58,110,331.5,0.239583,Sixteenth,A#3
2104,Right,0,75,110,331.75,0.239583,Sixteenth,D#5
2105,Left,1,59,110,331.75,0.239583,Sixteenth,B3
2107,Right,0,66,110,332.0,0.239583,Sixteenth,F#4
2106,Left,1,58,110,332.0,0.239583,Sixteenth,A#3
2109,Right,0,75,110,332.25,0.239583,Sixteenth,D#5
2108,Left,1,59,110,332.25,0.239583,Sixteenth,B3
2111,Right,0,65,110,332.5,0.239583,Sixteenth,F4
2110,Left,1,56,110,332.5,0.239583,Sixteenth,G#3
2113,Right,0,77,110,332.75,0.239583,Sixteenth,F5
2112,Left,1,59,110,332.75,0.239583,Sixteenth,B3
2115,Right,0,65,110,333.0,0.239583,Sixteenth,F4
2114,Left,1,56,110,333.0,0.239583,Sixteenth,G#3
2116,Left,1,58,110,333.25,0.239583,Sixteenth,A#3
2117,Right,0,74,110,333.25,0.239583,Sixteenth,D5
2119,Right,0,63,110,333.5,0.239583,Sixteenth,D#4
2118,Left,1,54,110,333.5,0.239583,Sixteenth,F#3
2121,Left,1,58,110,333.75,0.239583,Sixteenth,A#3
2120,Right,0,75,110,333.75,0.239583,Sixteenth,D#5
2122,Right,0,63,110,334.0,0.239583,Sixteenth,D#4
2123,Left,1,54,110,334.0,0.239583,Sixteenth,F#3
2124,Right,0,72,110,334.25,0.239583,Sixteenth,C5
2125,Left,1,56,110,334.25,0.239583,Sixteenth,G#3
2127,Left,1,53,110,334.5,0.239583,Sixteenth,F3
2126,Right,0,61,110,334.5,0.239583,Sixteenth,C#4
2129,Left,1,56,110,334.75,0.239583,Sixteenth,G#3
2128,Right,0,73,110,334.75,0.239583,Sixteenth,C#5
2131,Left,1,53,110,335.0,0.239583,Sixteenth,F3
2130,Right,0,61,110,335.0,0.239583,Sixteenth,C#4
2133,Left,1,54,110,335.25,0.239583,Sixteenth,F#3
2132,Right,0,70,110,335.25,0.239583,Sixteenth,A#4
2134,Right,0,59,110,335.5,0.239583,Sixteenth,B3
2135,Left,1,51,110,335.5,0.239583,Sixteenth,D#3
2137,Left,1,54,110,335.75,0.239583,Sixteenth,F#3
2136,Right,0,71,110,335.75,0.239583,Sixteenth,B4
2138,Right,0,60,110,336.0,0.239583,Sixteenth,C4
2139,Left,1,51,110,336.0,0.239583,Sixteenth,D#3
2141,Right,0,69,110,336.25,0.239583,Sixteenth,A4
2140,Left,1,53,110,336.25,0.239583,Sixteenth,F3
2143,Left,1,49,110,336.5,0.239583,Sixteenth,C#3
2142,Right,0,58,110,336.5,0.239583,Sixteenth,A#3
2144,Left,1,53,110,336.75,0.239583,Sixteenth,F3
2145,Right,0,70,110,336.75,0.239583,Sixteenth,A#4
2146,Left,1,49,120,337.0,0.239583,Sixteenth,C#3
2147,Right,0,65,120,337.0,0.239583,Sixteenth,F4
2148,Left,1,53,120,337.25,0.239583,Sixteenth,F3
2149,Right,0,70,120,337.25,0.239583,Sixteenth,A#4
2151,Left,1,49,120,337.5,0.239583,Sixteenth,C#3
2150,Right,0,65,120,337.5,0.239583,Sixteenth,F4
2153,Left,1,53,120,337.75,0.239583,Sixteenth,F3
2152,Right,0,70,120,337.75,0.239583,Sixteenth,A#4
2155,Left,1,49,120,338.0,0.239583,Sixteenth,C#3
2154,Right,0,65,120,338.0,0.239583,Sixteenth,F4
2156,Right,0,71,120,338.25,0.239583,Sixteenth,B4
2157,Left,1,53,120,338.25,0.239583,Sixteenth,F3
2158,Right,0,65,120,338.5,0.239583,Sixteenth,F4
2159,Left,1,49,120,338.5,0.239583,Sixteenth,C#3
2161,Left,1,53,120,338.75,0.239583,Sixteenth,F3
2160,Right,0,71,120,338.75,0.239583,Sixteenth,B4
2162,Right,0,59,120,339.0,0.239583,Sixteenth,B3
2163,Left,1,37,120,339.0,0.239583,Sixteenth,C#2
2165,Right,0,65,120,339.25,0.239583,Sixteenth,F4
2164,Left,1,49,120,339.25,0.239583,Sixteenth,C#3
2167,Left,1,37,120,339.5,0.239583,Sixteenth,C#2
2166,Right,0,59,120,339.5,0.239583,Sixteenth,B3
2168,Left,1,49,120,339.75,0.239583,Sixteenth,C#3
2169,Right,0,65,120,339.75,0.239583,Sixteenth,F4
2170,Left,1,36,120,340.0,0.489583,Eighth,C3_C2
2172,Right,0,64,80,340.25,0.239583,Sixteenth,G3_E4_A#3
2175,Left,1,61,80,340.5,0.489583,Eighth,C#4
2176,Right,0,64,80,340.75,0.239583,Sixteenth,G3_E4_A#3
2179,Left,1,59,80,341.0,0.489583,Eighth,B3
2180,Right,0,55,80,341.25,0.239583,Sixteenth,G3_E4_A#3
2183,Left,1,60,80,341.5,0.489583,Eighth,C4
2184,Right,0,64,80,341.75,0.239583,Sixteenth,G3_E4_A#3
2187,Left,1,48,80,342.0,0.489583,Eighth,C3
2188,Right,0,65,80,342.25,0.239583,Sixteenth,F4_A3
2190,Left,1,61,80,342.5,0.489583,Eighth,C#4
2191,Right,0,57,80,342.75,0.239583,Sixteenth,F4_A3
2193,Left,1,59,80,343.0,0.489583,Eighth,B3
2194,Right,0,57,80,343.25,0.239583,Sixteenth,F4_A3
2196,Left,1,60,80,343.5,0.489583,Eighth,C4
2197,Right,0,65,80,343.75,0.239583,Sixteenth,F4_A3
2199,Left,1,48,80,344.0,0.489583,Eighth,C3
2200,Right,0,58,80,344.25,0.239583,Sixteenth,G4_E4_A#3
2203,Left,1,61,80,344.5,0.489583,Eighth,C#4
2204,Right,0,58,80,344.75,0.239583,Sixteenth,G4_E4_A#3
2207,Left,1,59,80,345.0,0.489583,Eighth,B3
2208,Right,0,67,80,345.25,0.239583,Sixteenth,G4_E4_A#3
2211,Left,1,60,80,345.5,0.489583,Eighth,C4
2212,Right,0,67,80,345.75,0.239583,Sixteenth,G4_E4_A#3
2215,Left,1,48,80,346.0,0.489583,Eighth,C3
2216,Right,0,56,80,346.25,0.239583,Sixteenth,G#3_F4
2218,Left,1,61,80,346.5,0.489583,Eighth,C#4
2219,Right,0,56,80,346.75,0.239583,Sixteenth,G#3_F4
2221,Left,1,59,80,347.0,0.489583,Eighth,B3
2222,Right,0,56,80,347.25,0.239583,Sixteenth,G#3_F4
2224,Left,1,60,80,347.5,0.489583,Eighth,C4
2225,Right,0,65,80,347.75,0.239583,Sixteenth,G#3_F4
2227,Left,1,52,80,348.0,0.489583,Eighth,E3
2228,Right,0,64,80,348.25,0.239583,Sixteenth,G3_E4_A#3
2231,Left,1,62,80,348.5,0.489583,Eighth,D4
2232,Right,0,64,80,348.75,0.239583,Sixteenth,G3_E4
2234,Left,1,59,80,349.0,0.239583,Sixteenth,B3
2235,Right,0,64,80,349.25,0.239583,Sixteenth,G3_E4
2237,Left,1,62,80,349.5,0.489583,Eighth,D4
2238,Right,0,55,80,349.75,0.239583,Sixteenth,G3_E4
2240,Left,1,59,80,350.0,0.239583,Sixteenth,B3
2241,Right,0,64,80,350.25,0.239583,Sixteenth,G3_E4
2243,Left,1,62,80,350.5,0.489583,Eighth,D4
2244,Right,0,55,80,350.75,0.239583,Sixteenth,G3_E4
2246,Left,1,59,80,351.0,0.239583,Sixteenth,B3
2247,Right,0,64,80,351.25,0.239583,Sixteenth,G3_E4
2249,Left,1,62,80,351.5,0.489583,Eighth,D4
2250,Right,0,64,80,351.75,0.239583,Sixteenth,G3_E4
2252,Left,1,59,80,352.0,0.239583,Sixteenth,B3
2253,Right,0,64,80,352.25,0.239583,Sixteenth,G3_E4
2255,Left,1,60,80,352.5,0.489583,Eighth,C4
2256,Right,0,64,80,352.75,0.239583,Sixteenth,G3_E4
2258,Left,1,59,80,353.0,0.239583,Sixteenth,B3
2259,Right,0,64,80,353.25,0.239583,Sixteenth,G3_E4
2261,Left,1,60,80,353.5,0.489583,Eighth,C4
2262,Right,0,55,80,353.75,0.239583,Sixteenth,G3_E4
2264,Left,1,59,80,354.0,0.239583,Sixteenth,B3
2265,Right,0,64,80,354.25,0.239583,Sixteenth,G3_E4
2267,Left,1,60,80,354.5,0.489583,Eighth,C4
2268,Right,0,64,80,354.75,0.239583,Sixteenth,G3_E4
2270,Left,1,59,80,355.0,0.239583,Sixteenth,B3
2271,Right,0,55,80,355.25,0.239583,Sixteenth,G3_E4
2273,Left,1,60,80,355.5,0.489583,Eighth,C4
2274,Right,0,55,80,355.75,0.239583,Sixteenth,G3_E4
2276,Left,1,58,80,356.0,0.239583,Sixteenth,A#3
2277,Right,0,64,80,356.0,0.489583,Eighth,G3_E4
2279,Left,1,60,80,356.125,0.197917,TripletSixteenth,C4
2280,Left,1,58,80,356.25,0.208333,Sixteenth,A#3
2281,Left,1,60,80,356.375,0.21875,Sixteenth,C4
2283,Right,0,64,80,356.5,0.489583,Eighth,G3_E4
2282,Left,1,58,80,356.5,0.239583,Sixteenth,A#3
2285,Left,1,60,80,356.625,0.197917,TripletSixteenth,C4
2286,Left,1,58,80,356.75,0.208333,Sixteenth,A#3
2287,Left,1,60,80,356.875,0.21875,Sixteenth,C4
2288,Left,1,58,80,357.0,0.239583,Sixteenth,A#3
2289,Right,0,55,80,357.0,0.489583,Eighth,G3_E4
2291,Left,1,60,80,357.125,0.197917,TripletSixteenth,C4
2292,Left,1,58,80,357.25,0.208333,Sixteenth,A#3
2293,Left,1,60,80,357.375,0.21875,Sixteenth,C4
2294,Right,0,64,80,357.5,0.489583,Eighth,G3_E4
2295,Left,1,58,80,357.5,0.239583,Sixteenth,A#3
2297,Left,1,60,80,357.625,0.197917,TripletSixteenth,C4
2298,Left,1,58,80,357.75,0.208333,Sixteenth,A#3
2299,Left,1,60,80,357.875,0.21875,Sixteenth,C4
2300,Right,0,55,80,358.0,0.489583,Eighth,G3_E4
2301,Left,1,58,80,358.0,0.239583,Sixteenth,A#3
2303,Left,1,60,80,358.125,0.197917,TripletSixteenth,C4
2304,Left,1,58,80,358.25,0.208333,Sixteenth,A#3
2305,Left,1,60,80,358.375,0.21875,Sixteenth,C4
2306,Left,1,58,80,358.5,0.239583,Sixteenth,A#3
2307,Right,0,64,80,358.5,0.489583,Eighth,G3_E4
2309,Left,1,60,80,358.625,0.197917,TripletSixteenth,C4
2310,Left,1,58,80,358.75,0.208333,Sixteenth,A#3
2311,Left,1,60,80,358.875,0.21875,Sixteenth,C4
2313,Right,0,64,80,359.0,0.489583,Eighth,G3_E4
2312,Left,1,58,80,359.0,0.239583,Sixteenth,A#3
2315,Left,1,60,80,359.125,0.197917,TripletSixteenth,C4
2316,Left,1,58,80,359.25,0.208333,Sixteenth,A#3
2317,Left,1,60,80,359.375,0.21875,Sixteenth,C4
2320,Left,1,58,80,359.5,0.239583,Sixteenth,A#3
2318,Right,0,55,80,359.5,0.489583,Eighth,G3_E4
2321,Left,1,60,80,359.625,0.197917,TripletSixteenth,C4
2322,Left,1,57,80,359.75,0.208333,Sixteenth,A3
2323,Left,1,58,80,359.875,0.114583,ThirtySecond,A#3
2326,Left,1,45,80,360.0,0.239583,Sixteenth,A2
2324,Right,0,61,80,360.0,0.489583,Eighth,E4_C#4
2327,Left,1,49,80,360.25,0.239583,Sixteenth,C#3
2328,Left,1,52,80,360.5,0.239583,Sixteenth,E3
2329,Left,1,57,80,360.75,0.239583,Sixteenth,A3
2330,Left,1,47,80,361.0,0.239583,Sixteenth,B2
2331,Left,1,56,80,361.25,0.239583,Sixteenth,G#3
2332,Left,1,49,80,361.5,0.239583,Sixteenth,C#3
2333,Left,1,57,80,361.75,0.239583,Sixteenth,A3
2334,Left,1,50,80,362.0,0.239583,Sixteenth,D3
2335,Left,1,59,80,362.25,0.239583,Sixteenth,B3
2336,Left,1,52,80,362.5,0.239583,Sixteenth,E3
2337,Left,1,61,80,362.75,0.239583,Sixteenth,C#4
2338,Left,1,54,80,363.0,0.239583,Sixteenth,F#3
2339,Left,1,62,80,363.25,0.239583,Sixteenth,D4
2340,Left,1,56,80,363.5,0.239583,Sixteenth,G#3
2341,Left,1,64,80,363.75,0.239583,Sixteenth,E4
2343,Left,1,61,80,364.0,0.239583,Sixteenth,C#4
2342,Right,0,57,80,364.0,0.239583,Sixteenth,A3
2344,Left,1,57,103,364.25,3.739583,Whole,A3
2345,Right,0,61,80,364.25,0.239583,Sixteenth,C#4
2346,Right,0,64,80,364.5,0.239583,Sixteenth,E4
2347,Right,0,69,80,364.75,0.239583,Sixteenth,A4
2348,Right,0,59,80,365.0,0.239583,Sixteenth,B3
2349,Right,0,68,80,365.25,0.239583,Sixteenth,G#4
2350,Right,0,61,80,365.5,0.239583,Sixteenth,C#4
2351,Right,0,69,80,365.75,0.239583,Sixteenth,A4
2352,Right,0,62,80,366.0,0.239583,Sixteenth,D4
2353,Right,0,71,80,366.25,0.239583,Sixteenth,B4
2354,Right,0,64,80,366.5,0.239583,Sixteenth,E4
2355,Right,0,73,80,366.75,0.239583,Sixteenth,C#5
2356,Right,0,66,80,367.0,0.239583,Sixteenth,F#4
2357,Right,0,74,80,367.25,0.239583,Sixteenth,D5
2358,Right,0,68,80,367.5,0.239583,Sixteenth,G#4
2359,Right,0,76,80,367.75,0.239583,Sixteenth,E5
2361,Right,0,73,80,368.0,0.239583,Sixteenth,C#5
2360,Left,1,57,80,368.0,0.239583,Sixteenth,A3
2363,Right,0,69,80,368.25,0.239583,Sixteenth,A4
2362,Left,1,61,80,368.25,0.239583,Sixteenth,C#4
2364,Left,1,64,80,368.5,0.239583,Sixteenth,E4
2365,Right,0,76,101,368.5,3.489583,DottedHalf,E5
2366,Left,1,69,80,368.75,0.239583,Sixteenth,A4
2367,Left,1,59,80,369.0,0.239583,Sixteenth,B3
2368,Left,1,68,80,369.25,0.239583,Sixteenth,G#4
2369,Left,1,61,80,369.5,0.239583,Sixteenth,C#4
2370,Left,1,69,80,369.75,0.239583,Sixteenth,A4
2371,Left,1,62,80,370.0,0.239583,Sixteenth,D4
2372,Left,1,71,80,370.25,0.239583,Sixteenth,B4
2373,Left,1,64,80,370.5,0.239583,Sixteenth,E4
2374,Left,1,73,80,370.75,0.239583,Sixteenth,C#5
2375,Left,1,66,80,371.0,0.239583,Sixteenth,F#4
2376,Left,1,74,80,371.25,0.239583,Sixteenth,D5
2377,Left,1,68,80,371.5,0.239583,Sixteenth,G#4
2378,Left,1,76,80,371.75,0.239583,Sixteenth,E5
2379,Left,1,73,80,372.0,0.239583,Sixteenth,C#5
2380,Left,1,69,80,372.25,2.239583,Half,A4
2381,Right,0,73,80,372.25,0.239583,Sixteenth,C#5
2382,Right,0,76,80,372.5,0.239583,Sixteenth,E5
2383,Right,0,81,80,372.75,0.239583,Sixteenth,A5
2384,Right,0,71,80,373.0,0.239583,Sixteenth,B4
2385,Right,0,80,80,373.25,0.239583,Sixteenth,G#5
2386,Right,0,73,80,373.5,0.239583,Sixteenth,C#5
2387,Right,0,81,80,373.75,0.239583,Sixteenth,A5
2388,Right,0,74,80,374.0,0.239583,Sixteenth,D5
2389,Right,0,83,80,374.25,0.239583,Sixteenth,B5
2391,Right,0,76,80,374.5,0.239583,Sixteenth,E5
2390,Left,1,79,80,374.5,0.489583,Eighth,G5
2392,Right,0,85,80,374.75,0.239583,Sixteenth,C#6
2394,Left,1,77,80,375.0,0.489583,Eighth,F5
2393,Right,0,81,80,375.0,0.239583,Sixteenth,A5
2395,Right,0,86,80,375.25,0.239583,Sixteenth,D6
2397,Left,1,73,80,375.5,0.489583,Eighth,C#5
2396,Right,0,81,80,375.5,0.239583,Sixteenth,A5
2398,Right,0,88,80,375.75,0.239583,Sixteenth,E6
2399,Left,1,74,80,376.0,0.239583,Sixteenth,D5
2400,Right,0,89,80,376.0,0.239583,Sixteenth,F6
2402,Right,0,81,80,376.25,0.239583,Sixteenth,A5
2401,Left,1,77,80,376.25,0.239583,Sixteenth,F5
2404,Right,0,88,80,376.5,0.239583,Sixteenth,E6
2403,Left,1,69,80,376.5,0.239583,Sixteenth,A4
2405,Right,0,84,80,376.75,0.239583,Sixteenth,C6
2406,Left,1,76,80,376.75,0.239583,Sixteenth,E5
2407,Left,1,70,80,377.0,0.239583,Sixteenth,A#4
2408,Right,0,86,80,377.0,0.239583,Sixteenth,D6
2410,Right,0,77,80,377.25,0.239583,Sixteenth,F5
2409,Left,1,74,80,377.25,0.239583,Sixteenth,D5
2412,Right,0,84,80,377.5,0.239583,Sixteenth,C6
2411,Left,1,65,80,377.5,0.239583,Sixteenth,F4
2413,Left,1,72,80,377.75,0.239583,Sixteenth,C5
2414,Right,0,81,80,377.75,0.239583,Sixteenth,A5
2416,Right,0,82,80,378.0,0.239583,Sixteenth,A#5
2415,Left,1,67,80,378.0,0.239583,Sixteenth,G4
2417,Left,1,70,80,378.25,0.239583,Sixteenth,A#4
2418,Right,0,74,80,378.25,0.239583,Sixteenth,D5
2420,Left,1,62,80,378.5,0.239583,Sixteenth,D4
2419,Right,0,81,80,378.5,0.239583,Sixteenth,A5
2422,Left,1,69,80,378.75,0.239583,Sixteenth,A4
2421,Right,0,77,80,378.75,0.239583,Sixteenth,F5
2424,Left,1,63,80,379.0,0.239583,Sixteenth,D#4
2423,Right,0,79,80,379.0,0.239583,Sixteenth,G5
2426,Left,1,67,80,379.25,0.239583,Sixteenth,G4
2425,Right,0,70,80,379.25,0.239583,Sixteenth,A#4
2427,Left,1,62,80,379.5,0.239583,Sixteenth,D4
2428,Right,0,82,80,379.5,0.239583,Sixteenth,A#5
2429,Right,0,77,80,379.75,0.239583,Sixteenth,F5
2430,Left,1,65,80,379.75,0.239583,Sixteenth,F4
2432,Left,1,61,80,380.0,0.239583,Sixteenth,C#4
2431,Right,0,81,80,380.0,0.239583,Sixteenth,A5
2434,Right,0,76,80,380.25,0.239583,Sixteenth,E5
2433,Left,1,64,80,380.25,0.239583,Sixteenth,E4
2435,Left,1,57,80,380.5,0.239583,Sixteenth,A3
2436,Right,0,73,80,380.5,0.239583,Sixteenth,C#5
2437,Left,1,64,80,380.75,0.239583,Sixteenth,E4
2438,Right,0,79,80,380.75,0.239583,Sixteenth,G5
2439,Right,0,77,80,381.0,0.239583,Sixteenth,F5
2440,Left,1,58,80,381.0,0.239583,Sixteenth,A#3
2442,Left,1,62,80,381.25,0.239583,Sixteenth,D4
2441,Right,0,74,80,381.25,0.239583,Sixteenth,D5
2444,Left,1,55,80,381.5,0.239583,Sixteenth,G3
2443,Right,0,70,80,381.5,0.239583,Sixteenth,A#4
2446,Left,1,67,80,381.75,0.239583,Sixteenth,G4
2445,Right,0,76,80,381.75,0.239583,Sixteenth,E5
2447,Left,1,57,80,382.0,0.239583,Sixteenth,A3
2448,Right,0,69,80,382.0,0.239583,Sixteenth,A4
2449,Left,1,65,80,382.25,0.239583,Sixteenth,F4
2450,Right,0,74,80,382.25,0.239583,Sixteenth,D5
2452,Left,1,57,80,382.5,0.239583,Sixteenth,A3
2451,Right,0,68,80,382.5,0.239583,Sixteenth,G#4
2453,Right,0,74,80,382.75,0.239583,Sixteenth,D5
2454,Left,1,65,80,382.75,0.239583,Sixteenth,F4
2455,Left,1,57,80,383.0,0.239583,Sixteenth,A3
2456,Right,0,67,80,383.0,0.239583,Sixteenth,G4
2457,Left,1,64,80,383.25,0.239583,Sixteenth,E4
2458,Right,0,74,80,383.25,0.239583,Sixteenth,D5
2459,Left,1,57,80,383.5,0.239583,Sixteenth,A3
2460,Right,0,73,80,383.5,0.239583,Sixteenth,C#5
2461,Left,1,64,80,383.75,0.239583,Sixteenth,E4
2462,Right,0,79,80,383.75,0.239583,Sixteenth,G5
2463,Left,1,62,80,384.0,0.239583,Sixteenth,D4
2464,Right,0,77,80,384.0,0.239583,Sixteenth,F5
2466,Left,1,65,80,384.25,0.239583,Sixteenth,F4
2465,Right,0,74,80,384.25,0.239583,Sixteenth,D5
2468,Left,1,57,80,384.5,0.239583,Sixteenth,A3
2467,Right,0,81,80,384.5,0.239583,Sixteenth,A5
2470,Left,1,64,80,384.75,0.239583,Sixteenth,E4
2469,Right,0,72,80,384.75,0.239583,Sixteenth,C5
2471,Left,1,58,80,385.0,0.239583,Sixteenth,A#3
2472,Right,0,74,80,385.0,0.239583,Sixteenth,D5
2474,Right,0,70,80,385.25,0.239583,Sixteenth,A#4
2473,Left,1,62,80,385.25,0.239583,Sixteenth,D4
2476,Right,0,77,80,385.5,0.239583,Sixteenth,F5
2475,Left,1,53,80,385.5,0.239583,Sixteenth,F3
2478,Right,0,69,80,385.75,0.239583,Sixteenth,A4
2477,Left,1,60,80,385.75,0.239583,Sixteenth,C4
2480,Right,0,70,80,386.0,0.239583,Sixteenth,A#4
2479,Left,1,55,80,386.0,0.239583,Sixteenth,G3
2482,Right,0,67,80,386.25,0.239583,Sixteenth,G4
2481,Left,1,58,80,386.25,0.239583,Sixteenth,A#3
2483,Left,1,50,80,386.5,0.239583,Sixteenth,D3
2484,Right,0,74,80,386.5,0.239583,Sixteenth,D5
2485,Right,0,65,80,386.75,0.239583,Sixteenth,F4
2486,Left,1,57,80,386.75,0.239583,Sixteenth,A3
2487,Left,1,51,80,387.0,0.239583,Sixteenth,D#3
2488,Right,0,67,80,387.0,0.239583,Sixteenth,G4
2490,Right,0,63,80,387.25,0.239583,Sixteenth,D#4
2489,Left,1,55,80,387.25,0.239583,Sixteenth,G3
2492,Left,1,50,80,387.5,0.239583,Sixteenth,D3
2491,Right,0,70,80,387.5,0.239583,Sixteenth,A#4
2494,Right,0,58,80,387.75,0.239583,Sixteenth,A#3
2493,Left,1,53,80,387.75,0.239583,Sixteenth,F3
2496,Left,1,49,80,388.0,0.239583,Sixteenth,C#3
2495,Right,0,69,80,388.0,0.239583,Sixteenth,A4
2497,Left,1,52,81,388.25,0.239583,Sixteenth,E3
2498,Right,0,64,81,388.25,0.239583,Sixteenth,E4
2499,Left,1,45,82,388.5,0.239583,Sixteenth,A2
2500,Right,0,61,82,388.5,0.239583,Sixteenth,C#4
2501,Left,1,52,83,388.75,0.239583,Sixteenth,E3
2502,Right,0,67,83,388.75,0.239583,Sixteenth,G4
2503,Right,0,65,85,389.0,0.239583,Sixteenth,F4
2504,Left,1,46,85,389.0,0.239583,Sixteenth,A#2
2506,Left,1,50,86,389.25,0.239583,Sixteenth,D3
2505,Right,0,62,86,389.25,0.239583,Sixteenth,D4
2508,Left,1,43,87,389.5,0.239583,Sixteenth,G2
2507,Right,0,58,87,389.5,0.239583,Sixteenth,A#3
2510,Left,1,55,89,389.75,0.239583,Sixteenth,G3
2509,Right,0,64,89,389.75,0.239583,Sixteenth,E4
2511,Right,0,62,90,390.0,0.239583,Sixteenth,D4
2512,Left,1,45,90,390.0,0.239583,Sixteenth,A2
2514,Left,1,53,91,390.25,0.239583,Sixteenth,F3
2513,Right,0,57,91,390.25,0.239583,Sixteenth,A3
2515,Right,0,56,93,390.5,0.239583,Sixteenth,G#3
2516,Left,1,45,93,390.5,0.239583,Sixteenth,A2
2518,Right,0,62,94,390.75,0.239583,Sixteenth,D4
2517,Left,1,53,94,390.75,0.239583,Sixteenth,F3
2520,Left,1,45,95,391.0,0.239583,Sixteenth,A2
2519,Right,0,55,95,391.0,0.239583,Sixteenth,G3
2522,Right,0,62,97,391.25,0.239583,Sixteenth,D4
2521,Left,1,52,97,391.25,0.239583,Sixteenth,E3
2523,Right,0,55,98,391.5,0.239583,Sixteenth,G3
2524,Left,1,45,98,391.5,0.239583,Sixteenth,A2
2526,Left,1,52,99,391.75,0.239583,Sixteenth,E3
2525,Right,0,61,99,391.75,0.239583,Sixteenth,C#4
2528,Left,1,32,110,392.0,1.989583,Half,G#2_G#1
2527,Right,0,48,110,392.0,0.239583,Sixteenth,C3
2530,Right,0,51,110,392.25,0.239583,Sixteenth,D#3
2531,Right,0,54,110,392.5,0.239583,Sixteenth,F#3
2532,Right,0,60,110,392.75,0.239583,Sixteenth,C4
2533,Right,0,59,110,393.0,0.239583,Sixteenth,B3
2534,Right,0,60,110,393.25,0.239583,Sixteenth,C4
2535,Right,0,51,110,393.5,0.239583,Sixteenth,D#3
2536,Right,0,54,110,393.75,0.239583,Sixteenth,F#3
2538,Left,1,31,110,394.0,1.989583,Half,G2_G1
2537,Right,0,51,110,394.0,0.239583,Sixteenth,D#3
2540,Right,0,55,110,394.25,0.239583,Sixteenth,G3
2541,Right,0,60,110,394.5,0.239583,Sixteenth,C4
2542,Right,0,63,110,394.75,0.239583,Sixteenth,D#4
2543,Right,0,62,110,395.0,0.239583,Sixteenth,D4
2544,Right,0,63,110,395.25,0.239583,Sixteenth,D#4
2545,Right,0,55,110,395.5,0.239583,Sixteenth,G3
2546,Right,0,60,110,395.75,0.239583,Sixteenth,C4
2547,Right,0,57,110,396.0,0.239583,Sixteenth,A3
2548,Left,1,30,110,396.0,1.989583,Half,F#2_F#1
2550,Right,0,60,110,396.25,0.239583,Sixteenth,C4
2551,Right,0,63,110,396.5,0.239583,Sixteenth,D#4
2552,Right,0,69,110,396.75,0.239583,Sixteenth,A4
2553,Right,0,68,110,397.0,0.239583,Sixteenth,G#4
2554,Right,0,69,110,397.25,0.239583,Sixteenth,A4
2555,Right,0,60,110,397.5,0.239583,Sixteenth,C4
2556,Right,0,63,110,397.75,0.239583,Sixteenth,D#4
2558,Left,1,41,110,398.0,1.989583,Half,F2_F1
2557,Right,0,60,110,398.0,0.239583,Sixteenth,C4
2560,Right,0,63,110,398.25,0.239583,Sixteenth,D#4
2561,Right,0,69,110,398.5,0.239583,Sixteenth,A4
2562,Right,0,72,110,398.75,0.239583,Sixteenth,C5
2563,Right,0,71,110,399.0,0.239583,Sixteenth,B4
2564,Right,0,72,110,399.25,0.239583,Sixteenth,C5
2565,Right,0,64,110,399.5,0.239583,Sixteenth,E4
2566,Right,0,69,110,399.75,0.239583,Sixteenth,A4
2568,Left,1,40,110,400.0,1.989583,Half,E2_E1
2567,Right,0,64,110,400.0,0.239583,Sixteenth,E4
2570,Right,0,69,110,400.25,0.239583,Sixteenth,A4
2571,Right,0,72,110,400.5,0.239583,Sixteenth,C5
2572,Right,0,76,110,400.75,0.239583,Sixteenth,E5
2573,Right,0,75,110,401.0,0.239583,Sixteenth,D#5
2574,Right,0,76,110,401.25,0.239583,Sixteenth,E5
2575,Right,0,69,110,401.5,0.239583,Sixteenth,A4
2576,Right,0,72,110,401.75,0.239583,Sixteenth,C5
2579,Right,0,66,110,402.0,0.239583,Sixteenth,F#4
2577,Left,1,27,110,402.0,1.989583,Half,D#2_D#1
2580,Right,0,69,110,402.25,0.239583,Sixteenth,A4
2581,Right,0,72,110,402.5,0.239583,Sixteenth,C5
2582,Right,0,78,110,402.75,0.239583,Sixteenth,F#5
2583,Right,0,77,110,403.0,0.239583,Sixteenth,F5
2584,Right,0,78,110,403.25,0.239583,Sixteenth,F#5
2585,Right,0,69,110,403.5,0.239583,Sixteenth,A4
2586,Right,0,72,110,403.75,0.239583,Sixteenth,C5
2588,Left,1,26,110,404.0,1.989583,Half,D2_D1
2587,Right,0,69,110,404.0,0.239583,Sixteenth,A4
2590,Right,0,72,110,404.25,0.239583,Sixteenth,C5
2591,Right,0,78,110,404.5,0.239583,Sixteenth,F#5
2592,Right,0,81,110,404.75,0.239583,Sixteenth,A5
2593,Right,0,80,110,405.0,0.239583,Sixteenth,G#5
2594,Right,0,81,110,405.25,0.239583,Sixteenth,A5
2595,Right,0,72,110,405.5,0.239583,Sixteenth,C5
2596,Right,0,78,110,405.75,0.239583,Sixteenth,F#5
2598,Right,0,72,110,406.0,0.239583,Sixteenth,C5
2597,Left,1,50,110,406.0,1.989583,Half,D3_D2
2600,Right,0,78,110,406.25,0.239583,Sixteenth,F#5
2601,Right,0,81,110,406.5,0.239583,Sixteenth,A5
2602,Right,0,84,110,406.75,0.239583,Sixteenth,C6
2603,Right,0,83,110,407.0,0.239583,Sixteenth,B5
2604,Right,0,84,110,407.25,0.239583,Sixteenth,C6
2605,Right,0,78,110,407.5,0.239583,Sixteenth,F#5
2606,Right,0,81,110,407.75,0.239583,Sixteenth,A5
2611,Left,1,31,110,408.0,0.239583,Sixteenth,G1
2607,Right,0,83,110,408.0,0.489583,Eighth,G5_D5_B5_B4
2612,Left,1,35,110,408.25,0.239583,Sixteenth,B1
2613,Left,1,38,110,408.5,0.239583,Sixteenth,D2
2614,Left,1,43,110,408.75,0.239583,Sixteenth,G2
2615,Right,0,62,110,409.0,0.489583,Eighth,D5_D4
2617,Left,1,33,110,409.0,0.239583,Sixteenth,A1
2618,Left,1,42,110,409.25,0.239583,Sixteenth,F#2
2621,Left,1,35,110,409.5,0.239583,Sixteenth,B1
2619,Right,0,74,110,409.5,0.989583,Quarter,D5_D4
2622,Left,1,43,110,409.75,0.239583,Sixteenth,G2
2623,Left,1,36,110,410.0,0.239583,Sixteenth,C2
2624,Left,1,45,110,410.25,0.239583,Sixteenth,A2
2626,Right,0,74,110,410.5,0.989583,Quarter,D5_D4
2625,Left,1,38,110,410.5,0.239583,Sixteenth,D2
2628,Left,1,47,110,410.75,0.239583,Sixteenth,B2
2629,Left,1,40,110,411.0,0.239583,Sixteenth,E2
2630,Left,1,48,110,411.25,0.239583,Sixteenth,C3
2633,Left,1,42,110,411.5,0.239583,Sixteenth,F#2
2631,Right,0,62,110,411.5,0.489583,Eighth,D5_D4
2634,Left,1,50,110,411.75,0.239583,Sixteenth,D3
2635,Left,1,46,80,412.0,0.239583,Sixteenth,A#2
2636,Right,0,55,80,412.0,0.239583,Sixteenth,G3
2638,Left,1,43,80,412.25,0.739583,DottedEighth,G2
2637,Right,0,59,80,412.25,0.239583,Sixteenth,B3
2639,Right,0,62,80,412.5,0.239583,Sixteenth,D4
2640,Right,0,67,80,412.75,0.239583,Sixteenth,G4
2641,Right,0,57,80,413.0,0.239583,Sixteenth,A3
2642,Left,1,50,80,413.0,0.489583,Eighth,D3
2643,Right,0,66,80,413.25,0.239583,Sixteenth,F#4
2645,Right,0,59,80,413.5,0.239583,Sixteenth,B3
2644,Left,1,50,80,413.5,0.989583,Quarter,D3
2646,Right,0,67,80,413.75,0.239583,Sixteenth,G4
2647,Right,0,60,80,414.0,0.239583,Sixteenth,C4
2648,Right,0,69,80,414.25,0.239583,Sixteenth,A4
2650,Right,0,62,80,414.5,0.239583,Sixteenth,D4
2649,Left,1,50,80,414.5,0.989583,Quarter,D3
2651,Right,0,71,80,414.75,0.239583,Sixteenth,B4
2652,Right,0,64,80,415.0,0.239583,Sixteenth,E4
2653,Right,0,72,80,415.25,0.239583,Sixteenth,C5
2655,Right,0,66,80,415.5,0.239583,Sixteenth,F#4
2654,Left,1,50,80,415.5,0.489583,Eighth,D3
2656,Right,0,74,80,415.75,0.239583,Sixteenth,D5
2658,Left,1,43,110,416.0,0.239583,Sixteenth,G2
2657,Right,0,71,110,416.0,0.239583,Sixteenth,B4
2659,Left,1,47,110,416.25,0.239583,Sixteenth,B2
2660,Right,0,67,110,416.25,0.239583,Sixteenth,G4
2661,Left,1,50,110,416.5,0.239583,Sixteenth,D3
2662,Right,0,74,121,416.5,0.989583,Quarter,D5
2663,Left,1,55,110,416.75,0.239583,Sixteenth,G3
2664,Left,1,45,110,417.0,0.239583,Sixteenth,A2
2665,Left,1,54,110,417.25,0.239583,Sixteenth,F#3
2668,Left,1,47,110,417.5,0.239583,Sixteenth,B2
2666,Right,0,86,110,417.5,0.989583,Quarter,D6_D5
2669,Left,1,55,110,417.75,0.239583,Sixteenth,G3
2670,Left,1,48,110,418.0,0.239583,Sixteenth,C3
2671,Left,1,57,110,418.25,0.239583,Sixteenth,A3
2672,Right,0,74,110,418.5,0.989583,Quarter,D6_D5
2674,Left,1,50,110,418.5,0.239583,Sixteenth,D3
2675,Left,1,59,110,418.75,0.239583,Sixteenth,B3
2676,Left,1,52,110,419.0,0.239583,Sixteenth,E3
2677,Left,1,60,110,419.25,0.239583,Sixteenth,C4
2678,Right,0,74,110,419.5,0.489583,Eighth,D6_D5
2680,Left,1,54,110,419.5,0.239583,Sixteenth,F#3
2681,Left,1,62,110,419.75,0.239583,Sixteenth,D4
2683,Left,1,59,80,420.0,0.239583,Sixteenth,B3
2682,Right,0,67,80,420.0,0.239583,Sixteenth,G4
2685,Right,0,71,80,420.25,0.239583,Sixteenth,B4
2684,Left,1,55,80,420.25,1.239583,TiedQuarter-Sixteenth,G3
2686,Right,0,74,80,420.5,0.239583,Sixteenth,D5
2687,Right,0,79,80,420.75,0.239583,Sixteenth,G5
2688,Right,0,68,80,421.0,0.239583,Sixteenth,G#4
2689,Right,0,77,80,421.25,0.239583,Sixteenth,F5
2691,Left,1,55,80,421.5,0.989583,Quarter,G3
2690,Right,0,67,80,421.5,0.239583,Sixteenth,G4
2692,Right,0,75,80,421.75,0.239583,Sixteenth,D#5
2693,Right,0,65,80,422.0,0.239583,Sixteenth,F4
2694,Right,0,74,80,422.25,0.239583,Sixteenth,D5
2696,Left,1,55,80,422.5,0.989583,Quarter,G3
2695,Right,0,63,80,422.5,0.239583,Sixteenth,D#4
2697,Right,0,72,80,422.75,0.239583,Sixteenth,C5
2698,Right,0,62,80,423.0,0.239583,Sixteenth,D4
2699,Right,0,72,80,423.25,0.239583,Sixteenth,C5
2700,Right,0,62,80,423.5,0.239583,Sixteenth,D4
2701,Left,1,55,80,423.5,0.489583,Eighth,G3
2702,Right,0,71,80,423.75,0.239583,Sixteenth,B4
2704,Right,0,60,110,424.0,0.489583,Eighth,G4_D#4_C5_C4
2703,Left,1,36,110,424.0,0.239583,Sixteenth,C2
2708,Left,1,39,110,424.25,0.239583,Sixteenth,D#2
2709,Left,1,43,110,424.5,0.239583,Sixteenth,G2
2710,Left,1,48,110,424.75,0.239583,Sixteenth,C3
2712,Right,0,67,110,425.0,0.489583,Eighth,G4
2711,Left,1,38,110,425.0,0.239583,Sixteenth,D2
2713,Left,1,47,110,425.25,0.239583,Sixteenth,B2
2715,Right,0,67,110,425.5,0.989583,Quarter,G4
2714,Left,1,39,110,425.5,0.239583,Sixteenth,D#2
2716,Left,1,48,110,425.75,0.239583,Sixteenth,C3
2717,Left,1,41,110,426.0,0.239583,Sixteenth,F2
2718,Left,1,50,110,426.25,0.239583,Sixteenth,D3
2719,Right,0,67,110,426.5,0.989583,Quarter,G4
2720,Left,1,43,110,426.5,0.239583,Sixteenth,G2
2721,Left,1,51,110,426.75,0.239583,Sixteenth,D#3
2722,Left,1,45,110,427.0,0.239583,Sixteenth,A2
2723,Left,1,53,110,427.25,0.239583,Sixteenth,F3
2725,Left,1,47,110,427.5,0.239583,Sixteenth,B2
2724,Right,0,67,110,427.5,0.489583,Eighth,G4
2726,Left,1,55,110,427.75,0.239583,Sixteenth,G3
2728,Right,0,60,100,428.0,0.239583,Sixteenth,C4
2727,Left,1,51,100,428.0,0.239583,Sixteenth,D#3
2729,Right,0,63,94,428.25,0.239583,Sixteenth,D#4
2730,Left,1,48,94,428.25,0.739583,DottedEighth,C3
2731,Right,0,67,87,428.5,0.239583,Sixteenth,G4
2732,Right,0,72,81,428.75,0.239583,Sixteenth,C5
2734,Right,0,62,80,429.0,0.239583,Sixteenth,D4
2733,Left,1,55,80,429.0,0.489583,Eighth,G3
2735,Right,0,71,80,429.25,0.239583,Sixteenth,B4
2737,Right,0,63,80,429.5,0.239583,Sixteenth,D#4
2736,Left,1,55,80,429.5,0.989583,Quarter,G3
2738,Right,0,72,80,429.75,0.239583,Sixteenth,C5
2739,Right,0,65,80,430.0,0.239583,Sixteenth,F4
2740,Right,0,74,80,430.25,0.239583,Sixteenth,D5
2741,Left,1,55,80,430.5,0.989583,Quarter,G3
2742,Right,0,67,80,430.5,0.239583,Sixteenth,G4
2743,Right,0,75,80,430.75,0.239583,Sixteenth,D#5
2744,Right,0,69,80,431.0,0.239583,Sixteenth,A4
2745,Right,0,77,80,431.25,0.239583,Sixteenth,F5
2747,Left,1,55,80,431.5,0.489583,Eighth,G3
2746,Right,0,71,80,431.5,0.239583,Sixteenth,B4
2748,Right,0,79,80,431.75,0.239583,Sixteenth,G5
2750,Left,1,48,110,432.0,0.239583,Sixteenth,C3
2749,Right,0,75,110,432.0,0.239583,Sixteenth,D#5
2751,Right,0,72,110,432.25,0.239583,Sixteenth,C5
2752,Left,1,51,110,432.25,0.239583,Sixteenth,D#3
2753,Left,1,55,110,432.5,0.239583,Sixteenth,G3
2754,Right,0,79,110,432.5,0.989583,Quarter,G5
2755,Left,1,60,110,432.75,0.239583,Sixteenth,C4
2756,Left,1,50,110,433.0,0.239583,Sixteenth,D3
2757,Left,1,59,110,433.25,0.239583,Sixteenth,B3
2759,Left,1,51,110,433.5,0.239583,Sixteenth,D#3
2758,Right,0,67,110,433.5,0.989583,Quarter,G5_G4
2761,Left,1,60,110,433.75,0.239583,Sixteenth,C4
2762,Left,1,53,110,434.0,0.239583,Sixteenth,F3
2763,Left,1,62,110,434.25,0.239583,Sixteenth,D4
2765,Left,1,55,110,434.5,0.239583,Sixteenth,G3
2764,Right,0,67,110,434.5,0.989583,Quarter,G5_G4
2767,Left,1,63,110,434.75,0.239583,Sixteenth,D#4
2768,Left,1,57,110,435.0,0.239583,Sixteenth,A3
2769,Left,1,65,110,435.25,0.239583,Sixteenth,F4
2770,Right,0,79,110,435.5,0.489583,Eighth,G5
2771,Left,1,59,110,435.5,0.239583,Sixteenth,B3
2772,Left,1,67,110,435.75,0.239583,Sixteenth,G4
2774,Left,1,65,110,436.0,0.239583,Sixteenth,F4
2773,Right,0,72,110,436.0,0.239583,Sixteenth,C5
2776,Right,0,76,110,436.25,0.239583,Sixteenth,E5
2775,Left,1,60,110,436.25,1.239583,TiedQuarter-Sixteenth,C4
2777,Right,0,79,110,436.5,0.239583,Sixteenth,G5
2778,Right,0,84,110,436.75,0.239583,Sixteenth,C6
2779,Right,0,73,110,437.0,0.239583,Sixteenth,C#5
2780,Right,0,82,110,437.25,0.239583,Sixteenth,A#5
2781,Left,1,60,110,437.5,0.989583,Quarter,C4
2782,Right,0,72,110,437.5,0.239583,Sixteenth,C5
2783,Right,0,80,110,437.75,0.239583,Sixteenth,G#5
2784,Right,0,70,110,438.0,0.239583,Sixteenth,A#4
2785,Right,0,79,110,438.25,0.239583,Sixteenth,G5
2787,Left,1,60,110,438.5,0.989583,Quarter,C4
2786,Right,0,68,110,438.5,0.239583,Sixteenth,G#4
2788,Right,0,77,110,438.75,0.239583,Sixteenth,F5
2789,Right,0,67,110,439.0,0.239583,Sixteenth,G4
2790,Right,0,76,110,439.25,0.239583,Sixteenth,E5
2791,Left,1,60,110,439.5,0.239583,Sixteenth,C4
2792,Right,0,76,110,439.5,0.239583,Sixteenth,E5
2793,Right,0,79,110,439.75,0.239583,Sixteenth,G5
2794,Left,1,70,110,439.75,0.239583,Sixteenth,A#4
2796,Left,1,65,110,440.0,0.239583,Sixteenth,F4
2795,Right,0,80,110,440.0,0.239583,Sixteenth,G#5
2798,Right,0,77,110,440.25,0.239583,Sixteenth,F5
2797,Left,1,68,110,440.25,0.239583,Sixteenth,G#4
2799,Left,1,60,110,440.5,0.239583,Sixteenth,C4
2800,Right,0,84,110,440.5,0.239583,Sixteenth,C6
2801,Right,0,75,110,440.75,0.239583,Sixteenth,D#5
2802,Left,1,67,110,440.75,0.239583,Sixteenth,G4
2803,Left,1,61,110,441.0,0.239583,Sixteenth,C#4
2804,Right,0,77,110,441.0,0.239583,Sixteenth,F5
2806,Left,1,65,110,441.25,0.239583,Sixteenth,F4
2805,Right,0,73,110,441.25,0.239583,Sixteenth,C#5
2807,Right,0,80,110,441.5,0.239583,Sixteenth,G#5
2808,Left,1,56,110,441.5,0.239583,Sixteenth,G#3
2810,Left,1,63,110,441.75,0.239583,Sixteenth,D#4
2809,Right,0,72,110,441.75,0.239583,Sixteenth,C5
2812,Left,1,58,110,442.0,0.239583,Sixteenth,A#3
2811,Right,0,73,110,442.0,0.239583,Sixteenth,C#5
2814,Left,1,61,110,442.25,0.239583,Sixteenth,C#4
2813,Right,0,70,110,442.25,0.239583,Sixteenth,A#4
2816,Left,1,53,110,442.5,0.239583,Sixteenth,F3
2815,Right,0,77,110,442.5,0.239583,Sixteenth,F5
2817,Left,1,60,110,442.75,0.239583,Sixteenth,C4
2818,Right,0,68,110,442.75,0.239583,Sixteenth,G#4
2819,Left,1,54,110,443.0,0.239583,Sixteenth,F#3
2820,Right,0,70,110,443.0,0.239583,Sixteenth,A#4
2821,Right,0,66,110,443.25,0.239583,Sixteenth,F#4
2822,Left,1,58,110,443.25,0.239583,Sixteenth,A#3
2824,Left,1,49,110,443.5,0.239583,Sixteenth,C#3
2823,Right,0,73,110,443.5,0.239583,Sixteenth,C#5
2825,Right,0,65,110,443.75,0.239583,Sixteenth,F4
2826,Left,1,56,110,443.75,0.239583,Sixteenth,G#3
2827,Right,0,66,110,444.0,0.239583,Sixteenth,F#4
2828,Left,1,51,110,444.0,0.239583,Sixteenth,D#3
2830,Right,0,63,110,444.25,0.239583,Sixteenth,D#4
2829,Left,1,54,110,444.25,0.239583,Sixteenth,F#3
2832,Right,0,70,111,444.5,0.239583,Sixteenth,A#4
2831,Left,1,49,111,444.5,0.239583,Sixteenth,C#3
2833,Left,1,53,111,444.75,0.239583,Sixteenth,F3
2834,Right,0,58,111,444.75,0.239583,Sixteenth,A#3
2836,Right,0,68,112,445.0,0.239583,Sixteenth,G#4
2835,Left,1,48,112,445.0,0.239583,Sixteenth,C3
2837,Left,1,51,113,445.25,0.239583,Sixteenth,D#3
2838,Right,0,63,113,445.25,0.239583,Sixteenth,D#4
2840,Right,0,60,113,445.5,0.239583,Sixteenth,C4
2839,Left,1,44,113,445.5,0.239583,Sixteenth,G#2
2841,Right,0,66,114,445.75,0.239583,Sixteenth,F#4
2842,Left,1,51,114,445.75,0.239583,Sixteenth,D#3
2844,Left,1,49,115,446.0,0.239583,Sixteenth,C#3
2843,Right,0,65,115,446.0,0.239583,Sixteenth,F4
2845,Right,0,61,115,446.25,0.239583,Sixteenth,C#4
2846,Left,1,53,115,446.25,0.239583,Sixteenth,F3
2848,Left,1,42,116,446.5,0.239583,Sixteenth,F#2
2847,Right,0,58,116,446.5,0.239583,Sixteenth,A#3
2850,Left,1,54,117,446.75,0.239583,Sixteenth,F#3
2849,Right,0,63,117,446.75,0.239583,Sixteenth,D#4
2852,Left,1,44,117,447.0,0.239583,Sixteenth,G#2
2851,Right,0,61,117,447.0,0.239583,Sixteenth,C#4
2853,Left,1,53,118,447.25,0.239583,Sixteenth,F3
2854,Right,0,56,118,447.25,0.239583,Sixteenth,G#3
2856,Left,1,44,119,447.5,0.239583,Sixteenth,G#2
2855,Right,0,54,119,447.5,0.239583,Sixteenth,F#3
2858,Left,1,51,119,447.75,0.239583,Sixteenth,D#3
2857,Right,0,60,119,447.75,0.239583,Sixteenth,C4
2860,Right,0,53,120,448.0,0.239583,Sixteenth,F3
2859,Left,1,44,120,448.0,0.239583,Sixteenth,G#2
2862,Right,0,60,119,448.25,0.239583,Sixteenth,C4
2861,Left,1,50,119,448.25,0.239583,Sixteenth,D3
2864,Right,0,53,118,448.5,0.239583,Sixteenth,F3
2863,Left,1,44,118,448.5,0.239583,Sixteenth,G#2
2866,Left,1,50,116,448.75,0.239583,Sixteenth,D3
2865,Right,0,59,116,448.75,0.239583,Sixteenth,B3
2867,Right,0,53,115,449.0,0.239583,Sixteenth,F3
2868,Left,1,44,115,449.0,0.239583,Sixteenth,G#2
2870,Left,1,50,113,449.25,0.239583,Sixteenth,D3
2869,Right,0,59,113,449.25,0.239583,Sixteenth,B3
2872,Left,1,44,112,449.5,0.239583,Sixteenth,G#2
2871,Right,0,53,112,449.5,0.239583,Sixteenth,F3
2874,Right,0,59,111,449.75,0.239583,Sixteenth,B3
2873,Left,1,50,111,449.75,0.239583,Sixteenth,D3
2876,Left,1,43,80,450.0,0.239583,Sixteenth,G2
2875,Right,0,53,80,450.0,0.239583,Sixteenth,F3
2878,Left,1,50,80,450.25,0.239583,Sixteenth,D3
2877,Right,0,59,80,450.25,0.239583,Sixteenth,B3
2879,Left,1,43,80,450.5,0.239583,Sixteenth,G2
2880,Right,0,53,80,450.5,0.239583,Sixteenth,F3
2881,Left,1,50,80,450.75,0.239583,Sixteenth,D3
2882,Right,0,59,80,450.75,0.239583,Sixteenth,B3
2884,Left,1,43,80,451.0,0.239583,Sixteenth,G2
2883,Right,0,53,80,451.0,0.239583,Sixteenth,F3
2885,Right,0,59,80,451.25,0.239583,Sixteenth,B3
2886,Left,1,50,80,451.25,0.239583,Sixteenth,D3
2888,Left,1,43,80,451.5,0.239583,Sixteenth,G2
2887,Right,0,53,80,451.5,0.239583,Sixteenth,F3
2889,Left,1,50,80,451.75,0.239583,Sixteenth,D3
2890,Right,0,59,80,451.75,0.239583,Sixteenth,B3
2891,Left,1,43,110,452.0,0.239583,Sixteenth,G2
2892,Right,0,53,110,452.0,0.239583,Sixteenth,F3
2893,Left,1,49,110,452.25,0.239583,Sixteenth,C#3
2894,Right,0,58,110,452.25,0.239583,Sixteenth,A#3
2895,Left,1,43,110,452.5,0.239583,Sixteenth,G2
2896,Right,0,52,110,452.5,0.239583,Sixteenth,E3
2897,Left,1,48,110,452.75,0.239583,Sixteenth,C3
2898,Right,0,58,110,452.75,0.239583,Sixteenth,A#3
2900,Left,1,43,110,453.0,0.239583,Sixteenth,G2
2899,Right,0,52,110,453.0,0.239583,Sixteenth,E3
2902,Left,1,48,110,453.25,0.239583,Sixteenth,C3
2901,Right,0,58,110,453.25,0.239583,Sixteenth,A#3
2904,Right,0,52,110,453.5,0.239583,Sixteenth,E3
2903,Left,1,43,110,453.5,0.239583,Sixteenth,G2
2905,Right,0,58,110,453.75,0.239583,Sixteenth,A#3
2906,Left,1,48,110,453.75,0.239583,Sixteenth,C3
2907,Left,1,42,80,454.0,0.239583,Sixteenth,F#2
2908,Right,0,51,80,454.0,0.239583,Sixteenth,D#3
2910,Right,0,58,80,454.25,0.239583,Sixteenth,A#3
2909,Left,1,48,80,454.25,0.239583,Sixteenth,C3
2911,Left,1,42,80,454.5,0.239583,Sixteenth,F#2
2912,Right,0,51,80,454.5,0.239583,Sixteenth,D#3
2913,Right,0,58,80,454.75,0.239583,Sixteenth,A#3
2914,Left,1,48,80,454.75,0.239583,Sixteenth,C3
2915,Right,0,51,80,455.0,0.239583,Sixteenth,D#3
2916,Left,1,42,80,455.0,0.239583,Sixteenth,F#2
2917,Right,0,58,80,455.25,0.239583,Sixteenth,A#3
2918,Left,1,48,80,455.25,0.239583,Sixteenth,C3
2919,Right,0,51,80,455.5,0.239583,Sixteenth,D#3
2920,Left,1,42,80,455.5,0.239583,Sixteenth,F#2
2921,Left,1,48,80,455.75,0.239583,Sixteenth,C3
2922,Right,0,58,80,455.75,0.239583,Sixteenth,A#3
2923,Right,0,51,80,456.0,0.239583,Sixteenth,D#3
2924,Left,1,42,80,456.0,0.239583,Sixteenth,F#2
2925,Left,1,48,80,456.25,0.239583,Sixteenth,C3
2926,Right,0,58,80,456.25,0.239583,Sixteenth,A#3
2928,Right,0,51,80,456.5,0.239583,Sixteenth,D#3
2927,Left,1,41,80,456.5,0.239583,Sixteenth,F2
2929,Right,0,57,80,456.75,0.239583,Sixteenth,A3
2930,Left,1,48,80,456.75,0.239583,Sixteenth,C3
2931,Right,0,56,80,457.0,0.239583,Sixteenth,G#3
2932,Left,1,47,80,457.0,0.239583,Sixteenth,B2
2933,Left,1,53,80,457.25,0.239583,Sixteenth,F3
2934,Right,0,63,80,457.25,0.239583,Sixteenth,D#4
2936,Right,0,56,80,457.5,0.239583,Sixteenth,G#3
2935,Left,1,47,80,457.5,0.239583,Sixteenth,B2
2937,Right,0,63,80,457.75,0.239583,Sixteenth,D#4
2938,Left,1,53,80,457.75,0.239583,Sixteenth,F3
2940,Left,1,47,80,458.0,0.239583,Sixteenth,B2
2939,Right,0,56,80,458.0,0.239583,Sixteenth,G#3
2941,Left,1,53,80,458.25,0.239583,Sixteenth,F3
2942,Right,0,63,80,458.25,0.239583,Sixteenth,D#4
2944,Left,1,46,80,458.5,0.239583,Sixteenth,A#2
2943,Right,0,56,80,458.5,0.239583,Sixteenth,G#3
2946,Left,1,53,80,458.75,0.239583,Sixteenth,F3
2945,Right,0,62,80,458.75,0.239583,Sixteenth,D4
2947,Right,0,49,80,459.0,0.239583,Sixteenth,C#3
2948,Left,1,40,80,459.0,0.239583,Sixteenth,E2
2950,Left,1,46,80,459.25,0.239583,Sixteenth,A#2
2949,Right,0,56,80,459.25,0.239583,Sixteenth,G#3
2951,Left,1,40,80,459.5,0.239583,Sixteenth,E2
2952,Right,0,49,80,459.5,0.239583,Sixteenth,C#3
2953,Left,1,46,80,459.75,0.239583,Sixteenth,A#2
2954,Right,0,56,80,459.75,0.239583,Sixteenth,G#3
2955,Right,0,50,80,460.0,0.239583,Sixteenth,D3
2956,Left,1,40,80,460.0,0.239583,Sixteenth,E2
2958,Left,1,46,80,460.25,0.239583,Sixteenth,A#2
2957,Right,0,56,80,460.25,0.239583,Sixteenth,G#3
2959,Left,1,39,80,460.5,0.239583,Sixteenth,D#2
2960,Right,0,50,80,460.5,0.239583,Sixteenth,D3
2961,Right,0,55,80,460.75,0.239583,Sixteenth,G3
2962,Left,1,46,80,460.75,0.239583,Sixteenth,A#2
2963,Right,0,54,80,461.0,0.239583,Sixteenth,F#3
2964,Left,1,45,80,461.0,0.239583,Sixteenth,A2
2965,Left,1,51,80,461.25,0.239583,Sixteenth,D#3
2966,Right,0,62,80,461.25,0.239583,Sixteenth,D4
2968,Right,0,54,80,461.5,0.239583,Sixteenth,F#3
2967,Left,1,45,80,461.5,0.239583,Sixteenth,A2
2969,Left,1,51,80,461.75,0.239583,Sixteenth,D#3
2970,Right,0,62,80,461.75,0.239583,Sixteenth,D4
2972,Right,0,54,80,462.0,0.239583,Sixteenth,F#3
2971,Left,1,45,80,462.0,0.239583,Sixteenth,A2
2973,Right,0,62,80,462.25,0.239583,Sixteenth,D4
2974,Left,1,51,80,462.25,0.239583,Sixteenth,D#3
2975,Right,0,54,80,462.5,0.239583,Sixteenth,F#3
2976,Left,1,44,80,462.5,0.239583,Sixteenth,G#2
2978,Left,1,51,80,462.75,0.239583,Sixteenth,D#3
2977,Right,0,60,80,462.75,0.239583,Sixteenth,C4
2979,Right,0,48,80,463.0,0.239583,Sixteenth,C3
2980,Left,1,32,80,463.0,0.239583,Sixteenth,G#1
2982,Left,1,44,80,463.25,0.239583,Sixteenth,G#2
2981,Right,0,54,80,463.25,0.239583,Sixteenth,F#3
2983,Left,1,32,80,463.5,0.239583,Sixteenth,G#1
2984,Right,0,48,80,463.5,0.239583,Sixteenth,C3
2985,Right,0,54,80,463.75,0.239583,Sixteenth,F#3
2986,Left,1,44,80,463.75,0.239583,Sixteenth,G#2
2987,Right,0,48,80,464.0,0.239583,Sixteenth,C3
2988,Left,1,32,80,464.0,0.239583,Sixteenth,G#1
2989,Left,1,44,80,464.25,0.239583,Sixteenth,G#2
2990,Right,0,54,80,464.25,0.239583,Sixteenth,F#3
2992,Right,0,50,80,464.5,0.239583,Sixteenth,D3
2991,Left,1,33,80,464.5,0.239583,Sixteenth,A1
2994,Right,0,52,80,464.75,0.239583,Sixteenth,E3
2993,Left,1,45,80,464.75,0.239583,Sixteenth,A2
2995,Right,0,52,110,465.0,0.239583,Sixteenth,E3
2996,Left,1,31,110,465.0,0.239583,Sixteenth,G1
2998,Left,1,43,110,465.25,0.239583,Sixteenth,G2
2997,Right,0,61,110,465.25,0.239583,Sixteenth,C#4
3000,Left,1,31,110,465.5,0.239583,Sixteenth,G1
2999,Right,0,52,110,465.5,0.239583,Sixteenth,E3
3001,Right,0,61,110,465.75,0.239583,Sixteenth,C#4
3002,Left,1,43,110,465.75,0.239583,Sixteenth,G2
3003,Right,0,52,110,466.0,0.239583,Sixteenth,E3
3004,Left,1,31,110,466.0,0.239583,Sixteenth,G1
3005,Right,0,61,110,466.25,0.239583,Sixteenth,C#4
3006,Left,1,43,110,466.25,0.239583,Sixteenth,G2
3007,Right,0,52,110,466.5,0.239583,Sixteenth,E3
3008,Left,1,31,110,466.5,0.239583,Sixteenth,G1
3010,Left,1,43,110,466.75,0.239583,Sixteenth,G2
3009,Right,0,61,110,466.75,0.239583,Sixteenth,C#4
3012,Left,1,33,110,467.0,0.239583,Sixteenth,A1
3011,Right,0,50,110,467.0,0.239583,Sixteenth,D3
3014,Left,1,45,110,467.25,0.239583,Sixteenth,A2
3013,Right,0,55,110,467.25,0.239583,Sixteenth,G3
3016,Left,1,33,110,467.5,0.239583,Sixteenth,A1
3015,Right,0,50,110,467.5,0.239583,Sixteenth,D3
3018,Left,1,45,110,467.75,0.239583,Sixteenth,A2
3017,Right,0,55,110,467.75,0.239583,Sixteenth,G3
3021,Left,1,44,110,468.0,0.489583,Eighth,G#2
3019,Right,0,56,110,468.0,0.239583,Sixteenth,G#3_C3
3022,Right,0,60,104,468.25,0.239583,Sixteenth,C4
3023,Right,0,63,97,468.5,0.239583,Sixteenth,D#4
3024,Right,0,68,91,468.75,0.239583,Sixteenth,G#4
3025,Right,0,61,80,469.0,0.239583,Sixteenth,C#4
3026,Left,1,57,80,469.0,0.489583,Eighth,A3
3027,Right,0,67,80,469.25,0.239583,Sixteenth,G4
3029,Right,0,60,80,469.5,0.239583,Sixteenth,C4
3028,Left,1,56,80,469.5,0.489583,Eighth,G#3
3030,Right,0,68,80,469.75,0.239583,Sixteenth,G#4
3032,Left,1,44,80,470.0,0.489583,Eighth,G#2
3031,Right,0,56,80,470.0,0.239583,Sixteenth,G#3
3033,Right,0,60,80,470.25,0.239583,Sixteenth,C4
3034,Right,0,63,80,470.5,0.239583,Sixteenth,D#4
3035,Right,0,68,80,470.75,0.239583,Sixteenth,G#4
3037,Right,0,61,80,471.0,0.239583,Sixteenth,C#4
3036,Left,1,57,80,471.0,0.489583,Eighth,A3
3038,Right,0,67,80,471.25,0.239583,Sixteenth,G4
3040,Left,1,56,80,471.5,0.489583,Eighth,G#3
3039,Right,0,60,80,471.5,0.239583,Sixteenth,C4
3041,Right,0,68,80,471.75,0.239583,Sixteenth,G#4
3042,Right,0,56,80,472.0,0.239583,Sixteenth,G#3
3043,Left,1,44,80,472.0,0.489583,Eighth,G#2
3044,Right,0,60,80,472.25,0.239583,Sixteenth,C4
3045,Right,0,63,80,472.5,0.239583,Sixteenth,D#4
3046,Right,0,68,80,472.75,0.239583,Sixteenth,G#4
3047,Left,1,57,80,473.0,0.489583,Eighth,A3
3048,Right,0,61,80,473.0,0.239583,Sixteenth,C#4
3049,Right,0,67,80,473.25,0.239583,Sixteenth,G4
3051,Left,1,56,80,473.5,0.489583,Eighth,G#3
3050,Right,0,60,80,473.5,0.239583,Sixteenth,C4
3052,Right,0,68,80,473.75,0.239583,Sixteenth,G#4
3054,Left,1,57,80,474.0,0.489583,Eighth,A3
3053,Right,0,61,80,474.0,0.239583,Sixteenth,C#4
3055,Right,0,67,80,474.25,0.239583,Sixteenth,G4
3057,Left,1,56,80,474.5,0.489583,Eighth,G#3
3056,Right,0,60,80,474.5,0.239583,Sixteenth,C4
3058,Right,0,68,80,474.75,0.239583,Sixteenth,G#4
3059,Left,1,60,80,475.0,0.489583,Eighth,C4
3060,Right,0,63,80,475.0,0.239583,Sixteenth,D#4
3061,Right,0,68,80,475.25,0.239583,Sixteenth,G#4
3062,Left,1,63,80,475.5,0.489583,Eighth,D#4
3063,Right,0,66,80,475.5,0.239583,Sixteenth,F#4
3064,Right,0,68,80,475.75,0.239583,Sixteenth,G#4
3066,Right,0,61,80,476.0,0.239583,Sixteenth,C#4
3065,Left,1,49,80,476.0,0.489583,Eighth,C#3
3067,Right,0,65,80,476.25,0.239583,Sixteenth,F4
3068,Right,0,68,80,476.5,0.239583,Sixteenth,G#4
3069,Right,0,73,80,476.75,0.239583,Sixteenth,C#5
3071,Right,0,66,80,477.0,0.239583,Sixteenth,F#4
3070,Left,1,63,80,477.0,0.489583,Eighth,D#4
3072,Right,0,72,80,477.25,0.239583,Sixteenth,C5
3074,Right,0,65,80,477.5,0.239583,Sixteenth,F4
3073,Left,1,61,80,477.5,0.489583,Eighth,C#4
3075,Right,0,73,80,477.75,0.239583,Sixteenth,C#5
3076,Right,0,61,80,478.0,0.239583,Sixteenth,C#4
3077,Left,1,49,80,478.0,0.489583,Eighth,C#3
3078,Right,0,65,80,478.25,0.239583,Sixteenth,F4
3079,Right,0,68,80,478.5,0.239583,Sixteenth,G#4
3080,Right,0,73,80,478.75,0.239583,Sixteenth,C#5
3081,Left,1,63,80,479.0,0.489583,Eighth,D#4
3082,Right,0,66,80,479.0,0.239583,Sixteenth,F#4
3083,Right,0,72,80,479.25,0.239583,Sixteenth,C5
3085,Left,1,61,80,479.5,0.489583,Eighth,C#4
3084,Right,0,65,80,479.5,0.239583,Sixteenth,F4
3086,Right,0,73,80,479.75,0.239583,Sixteenth,C#5
3087,Left,1,49,80,480.0,0.489583,Eighth,C#3
3088,Right,0,61,80,480.0,0.239583,Sixteenth,C#4
3089,Right,0,65,80,480.25,0.239583,Sixteenth,F4
3090,Right,0,68,80,480.5,0.239583,Sixteenth,G#4
3091,Right,0,73,80,480.75,0.239583,Sixteenth,C#5
3092,Left,1,63,80,481.0,0.489583,Eighth,D#4
3093,Right,0,66,80,481.0,0.239583,Sixteenth,F#4
3094,Right,0,72,80,481.25,0.239583,Sixteenth,C5
3096,Right,0,65,80,481.5,0.239583,Sixteenth,F4
3095,Left,1,61,80,481.5,0.489583,Eighth,C#4
3097,Right,0,73,80,481.75,0.239583,Sixteenth,C#5
3098,Left,1,63,80,482.0,0.489583,Eighth,D#4
3099,Right,0,66,80,482.0,0.239583,Sixteenth,F#4
3100,Right,0,72,80,482.25,0.239583,Sixteenth,C5
3102,Left,1,61,80,482.5,0.489583,Eighth,C#4
3101,Right,0,65,80,482.5,0.239583,Sixteenth,F4
3103,Right,0,73,80,482.75,0.239583,Sixteenth,C#5
3105,Left,1,60,80,483.0,0.489583,Eighth,C4
3104,Right,0,63,80,483.0,0.239583,Sixteenth,D#4
3106,Right,0,68,80,483.25,0.239583,Sixteenth,G#4
3107,Left,1,58,80,483.5,0.489583,Eighth,A#3
3108,Right,0,63,80,483.5,0.239583,Sixteenth,D#4
3109,Right,0,66,80,483.75,0.239583,Sixteenth,F#4
3111,Right,0,56,80,484.0,0.239583,Sixteenth,G#3
3110,Left,1,44,80,484.0,0.489583,Eighth,G#2
3112,Right,0,60,80,484.25,0.239583,Sixteenth,C4
3113,Right,0,63,80,484.5,0.239583,Sixteenth,D#4
3114,Right,0,68,80,484.75,0.239583,Sixteenth,G#4
3115,Left,1,57,80,485.0,0.489583,Eighth,A3
3116,Right,0,61,80,485.0,0.239583,Sixteenth,C#4
3117,Right,0,67,80,485.25,0.239583,Sixteenth,G4
3118,Left,1,56,80,485.5,0.489583,Eighth,G#3
3119,Right,0,60,80,485.5,0.239583,Sixteenth,C4
3120,Right,0,68,80,485.75,0.239583,Sixteenth,G#4
3121,Left,1,44,80,486.0,0.489583,Eighth,G#2
3122,Right,0,56,80,486.0,0.239583,Sixteenth,G#3
3123,Right,0,60,80,486.25,0.239583,Sixteenth,C4
3124,Right,0,63,80,486.5,0.239583,Sixteenth,D#4
3125,Right,0,68,80,486.75,0.239583,Sixteenth,G#4
3126,Left,1,57,80,487.0,0.489583,Eighth,A3
3127,Right,0,61,80,487.0,0.239583,Sixteenth,C#4
3128,Right,0,67,80,487.25,0.239583,Sixteenth,G4
3129,Right,0,60,80,487.5,0.239583,Sixteenth,C4
3130,Left,1,56,80,487.5,0.489583,Eighth,G#3
3131,Right,0,68,80,487.75,0.239583,Sixteenth,G#4
3132,Right,0,56,80,488.0,0.239583,Sixteenth,G#3
3133,Left,1,44,80,488.0,0.489583,Eighth,G#2
3134,Right,0,60,80,488.25,0.239583,Sixteenth,C4
3135,Right,0,63,80,488.5,0.239583,Sixteenth,D#4
3136,Right,0,68,80,488.75,0.239583,Sixteenth,G#4
3137,Right,0,61,80,489.0,0.239583,Sixteenth,C#4
3138,Left,1,57,80,489.0,0.489583,Eighth,A3
3139,Right,0,67,80,489.25,0.239583,Sixteenth,G4
3140,Right,0,60,80,489.5,0.239583,Sixteenth,C4
3141,Left,1,56,80,489.5,0.489583,Eighth,G#3
3142,Right,0,68,80,489.75,0.239583,Sixteenth,G#4
3143,Left,1,57,80,490.0,0.489583,Eighth,A3
3144,Right,0,61,80,490.0,0.239583,Sixteenth,C#4
3145,Right,0,67,80,490.25,0.239583,Sixteenth,G4
3147,Right,0,60,80,490.5,0.239583,Sixteenth,C4
3146,Left,1,56,80,490.5,0.489583,Eighth,G#3
3148,Right,0,68,80,490.75,0.239583,Sixteenth,G#4
3149,Left,1,60,80,491.0,0.489583,Eighth,C4
3150,Right,0,63,80,491.0,0.239583,Sixteenth,D#4
3151,Right,0,68,80,491.25,0.239583,Sixteenth,G#4
3153,Left,1,63,80,491.5,0.489583,Eighth,D#4
3152,Right,0,66,80,491.5,0.239583,Sixteenth,F#4
3154,Right,0,68,80,491.75,0.239583,Sixteenth,G#4
3156,Left,1,62,80,492.0,0.489583,Eighth,D4
3155,Right,0,66,80,492.0,0.239583,Sixteenth,F#4
3157,Right,0,72,80,492.25,0.239583,Sixteenth,C5
3158,Left,1,61,80,492.5,0.489583,Eighth,C#4
3159,Right,0,65,80,492.5,0.239583,Sixteenth,F4
3160,Right,0,73,80,492.75,0.239583,Sixteenth,C#5
3162,Left,1,65,80,493.0,0.489583,Eighth,F4
3161,Right,0,68,80,493.0,0.239583,Sixteenth,G#4
3163,Right,0,73,80,493.25,0.239583,Sixteenth,C#5
3164,Right,0,71,80,493.5,0.239583,Sixteenth,B4
3165,Left,1,68,80,493.5,0.489583,Eighth,G#4
3166,Right,0,73,80,493.75,0.239583,Sixteenth,C#5
3167,Right,0,71,80,494.0,0.239583,Sixteenth,B4
3168,Left,1,67,80,494.0,0.489583,Eighth,G4
3169,Right,0,76,80,494.25,0.239583,Sixteenth,E5
3171,Right,0,70,80,494.5,0.239583,Sixteenth,A#4
3170,Left,1,66,80,494.5,0.489583,Eighth,F#4
3172,Right,0,76,80,494.75,0.239583,Sixteenth,E5
3173,Right,0,73,80,495.0,0.239583,Sixteenth,C#5
3174,Left,1,70,80,495.0,0.489583,Eighth,A#4
3175,Right,0,76,80,495.25,0.239583,Sixteenth,E5
3177,Left,1,58,80,495.5,0.489583,Eighth,A#3
3176,Right,0,66,80,495.5,0.239583,Sixteenth,F#4
3178,Right,0,76,80,495.75,0.239583,Sixteenth,E5
3180,Left,1,72,80,496.0,0.489583,Eighth,C5
3179,Right,0,76,80,496.0,0.239583,Sixteenth,E5
3181,Right,0,81,80,496.25,0.239583,Sixteenth,A5
3182,Right,0,75,80,496.5,0.239583,Sixteenth,D#5
3183,Left,1,71,80,496.5,0.489583,Eighth,B4
3184,Right,0,81,80,496.75,0.239583,Sixteenth,A5
3185,Right,0,78,80,497.0,0.239583,Sixteenth,F#5
3186,Left,1,75,80,497.0,0.489583,Eighth,D#5
3187,Right,0,81,80,497.25,0.239583,Sixteenth,A5
3188,Right,0,71,80,497.5,0.239583,Sixteenth,B4
3189,Left,1,63,80,497.5,0.489583,Eighth,D#4
3190,Right,0,81,80,497.75,0.239583,Sixteenth,A5
3191,Left,1,77,80,498.0,0.489583,Eighth,F5
3192,Right,0,81,80,498.0,0.239583,Sixteenth,A5
3193,Right,0,86,80,498.25,0.239583,Sixteenth,D6
3195,Left,1,76,80,498.5,0.489583,Eighth,E5
3194,Right,0,80,80,498.5,0.239583,Sixteenth,G#5
3196,Right,0,86,80,498.75,0.239583,Sixteenth,D6
3197,Right,0,83,80,499.0,0.239583,Sixteenth,B5
3198,Left,1,80,80,499.0,0.489583,Eighth,G#5
3199,Right,0,86,80,499.25,0.239583,Sixteenth,D6
3201,Left,1,68,80,499.5,0.489583,Eighth,G#4
3200,Right,0,76,80,499.5,0.239583,Sixteenth,E5
3202,Right,0,84,80,499.75,0.239583,Sixteenth,C6
3204,Left,1,70,80,500.0,0.489583,Eighth,A#4
3203,Right,0,74,80,500.0,0.239583,Sixteenth,D5
3205,Right,0,79,80,500.25,0.239583,Sixteenth,G5
3206,Left,1,69,80,500.5,0.489583,Eighth,A4
3207,Right,0,73,80,500.5,0.239583,Sixteenth,C#5
3208,Right,0,79,80,500.75,0.239583,Sixteenth,G5
3210,Right,0,76,80,501.0,0.239583,Sixteenth,E5
3209,Left,1,73,80,501.0,0.489583,Eighth,C#5
3211,Right,0,79,80,501.25,0.239583,Sixteenth,G5
3213,Right,0,69,80,501.5,0.239583,Sixteenth,A4
3212,Left,1,61,80,501.5,0.489583,Eighth,C#4
3214,Right,0,79,80,501.75,0.239583,Sixteenth,G5
3215,Right,0,79,80,502.0,0.239583,Sixteenth,G5
3216,Left,1,75,80,502.0,0.489583,Eighth,D#5
3217,Right,0,84,80,502.25,0.239583,Sixteenth,C6
3219,Right,0,78,80,502.5,0.239583,Sixteenth,F#5
3218,Left,1,74,80,502.5,0.489583,Eighth,D5
3220,Right,0,84,80,502.75,0.239583,Sixteenth,C6
3221,Right,0,81,80,503.0,0.239583,Sixteenth,A5
3222,Left,1,78,80,503.0,0.489583,Eighth,F#5
3223,Right,0,84,80,503.25,0.239583,Sixteenth,C6
3224,Left,1,66,80,503.5,0.489583,Eighth,F#4
3225,Right,0,74,80,503.5,0.239583,Sixteenth,D5
3226,Right,0,84,80,503.75,0.239583,Sixteenth,C6
3228,Left,1,68,80,504.0,0.489583,Eighth,G#4
3227,Right,0,72,80,504.0,0.239583,Sixteenth,C5
3229,Right,0,77,80,504.25,0.239583,Sixteenth,F5
3231,Left,1,67,80,504.5,0.489583,Eighth,G4
3230,Right,0,71,80,504.5,0.239583,Sixteenth,B4
3232,Right,0,77,80,504.75,0.239583,Sixteenth,F5
3234,Left,1,70,80,505.0,0.489583,Eighth,A#4
3233,Right,0,74,80,505.0,0.239583,Sixteenth,D5
3235,Right,0,77,80,505.25,0.239583,Sixteenth,F5
3237,Left,1,58,80,505.5,0.489583,Eighth,A#3
3236,Right,0,67,80,505.5,0.239583,Sixteenth,G4
3238,Right,0,77,80,505.75,0.239583,Sixteenth,F5
3239,Right,0,77,80,506.0,0.239583,Sixteenth,F5
3240,Left,1,73,80,506.0,0.489583,Eighth,C#5
3241,Right,0,82,80,506.25,0.239583,Sixteenth,A#5
3242,Right,0,76,80,506.5,0.239583,Sixteenth,E5
3243,Left,1,72,80,506.5,0.489583,Eighth,C5
3244,Right,0,82,80,506.75,0.239583,Sixteenth,A#5
3246,Left,1,76,80,507.0,0.489583,Eighth,E5
3245,Right,0,79,80,507.0,0.239583,Sixteenth,G5
3247,Right,0,82,80,507.25,0.239583,Sixteenth,A#5
3248,Left,1,64,80,507.5,0.489583,Eighth,E4
3249,Right,0,73,80,507.5,0.239583,Sixteenth,C#5
3250,Right,0,82,80,507.75,0.239583,Sixteenth,A#5
3251,Right,0,72,80,508.0,0.239583,Sixteenth,C5
3252,Left,1,65,80,508.0,0.489583,Eighth,F4
3253,Right,0,81,81,508.25,0.239583,Sixteenth,A5
3254,Left,1,61,82,508.5,0.489583,Eighth,C#4
3255,Right,0,79,82,508.5,0.239583,Sixteenth,G5
3256,Right,0,70,83,508.75,0.239583,Sixteenth,A#4
3258,Left,1,62,85,509.0,0.489583,Eighth,D4
3257,Right,0,69,85,509.0,0.239583,Sixteenth,A4
3259,Right,0,77,86,509.25,0.239583,Sixteenth,F5
3261,Left,1,57,87,509.5,0.489583,Eighth,A3
3260,Right,0,76,87,509.5,0.239583,Sixteenth,E5
3262,Right,0,67,89,509.75,0.239583,Sixteenth,G4
3263,Left,1,58,90,510.0,0.489583,Eighth,A#3
3264,Right,0,65,90,510.0,0.239583,Sixteenth,F4
3265,Right,0,74,91,510.25,0.239583,Sixteenth,D5
3266,Left,1,54,93,510.5,0.489583,Eighth,F#3
3267,Right,0,72,93,510.5,0.239583,Sixteenth,C5
3268,Right,0,63,94,510.75,0.239583,Sixteenth,D#4
3270,Left,1,55,95,511.0,0.489583,Eighth,G3
3269,Right,0,62,95,511.0,0.239583,Sixteenth,D4
3271,Right,0,70,96,511.25,0.239583,Sixteenth,A#4
3272,Left,1,45,98,511.5,0.489583,Eighth,A2
3273,Right,0,60,98,511.5,0.239583,Sixteenth,C4
3274,Right,0,69,99,511.75,0.239583,Sixteenth,A4
3275,Left,1,46,100,512.0,0.489583,Eighth,A#2
3276,Right,0,62,100,512.0,0.239583,Sixteenth,D4
3277,Right,0,67,102,512.25,0.239583,Sixteenth,G4
3279,Left,1,47,103,512.5,0.489583,Eighth,B2
3278,Right,0,55,103,512.5,0.239583,Sixteenth,G3
3280,Right,0,65,104,512.75,0.239583,Sixteenth,F4
3281,Right,0,55,106,513.0,0.239583,Sixteenth,G3
3282,Left,1,48,106,513.0,0.489583,Eighth,C3
3283,Right,0,64,107,513.25,0.239583,Sixteenth,E4
3285,Right,0,53,108,513.5,0.239583,Sixteenth,F3
3284,Left,1,50,108,513.5,0.489583,Eighth,D3
3286,Right,0,59,109,513.75,0.239583,Sixteenth,B3
3288,Right,0,60,110,514.0,0.489583,Eighth,E3_C4
3287,Left,1,36,110,514.0,0.239583,Sixteenth,C2
3290,Left,1,40,110,514.25,0.239583,Sixteenth,E2
3291,Left,1,43,110,514.5,0.239583,Sixteenth,G2
3292,Left,1,48,110,514.75,0.239583,Sixteenth,C3
3294,Left,1,38,110,515.0,0.239583,Sixteenth,D2
3293,Right,0,67,110,515.0,0.489583,Eighth,G4
3295,Left,1,47,110,515.25,0.239583,Sixteenth,B2
3297,Left,1,40,110,515.5,0.239583,Sixteenth,E2
3296,Right,0,67,110,515.5,0.989583,Quarter,G4
3298,Left,1,48,110,515.75,0.239583,Sixteenth,C3
3299,Left,1,41,110,516.0,0.239583,Sixteenth,F2
3300,Left,1,50,110,516.25,0.239583,Sixteenth,D3
3302,Right,0,67,110,516.5,0.989583,Quarter,G4
3301,Left,1,43,110,516.5,0.239583,Sixteenth,G2
3303,Left,1,52,110,516.75,0.239583,Sixteenth,E3
3304,Left,1,45,110,517.0,0.239583,Sixteenth,A2
3305,Left,1,53,110,517.25,0.239583,Sixteenth,F3
3307,Left,1,47,110,517.5,0.239583,Sixteenth,B2
3306,Right,0,67,110,517.5,0.489583,Eighth,G4
3308,Left,1,55,110,517.75,0.239583,Sixteenth,G3
3310,Left,1,52,100,518.0,0.239583,Sixteenth,E3
3309,Right,0,60,100,518.0,0.239583,Sixteenth,C4
3311,Left,1,48,94,518.25,0.739583,DottedEighth,C3
3312,Right,0,64,94,518.25,0.239583,Sixteenth,E4
3313,Right,0,67,87,518.5,0.239583,Sixteenth,G4
3314,Right,0,72,81,518.75,0.239583,Sixteenth,C5
3315,Left,1,55,80,519.0,0.489583,Eighth,G3
3316,Right,0,62,80,519.0,0.239583,Sixteenth,D4
3317,Right,0,71,80,519.25,0.239583,Sixteenth,B4
3319,Right,0,64,80,519.5,0.239583,Sixteenth,E4
3318,Left,1,55,80,519.5,0.989583,Quarter,G3
3320,Right,0,72,80,519.75,0.239583,Sixteenth,C5
3321,Right,0,65,80,520.0,0.239583,Sixteenth,F4
3322,Right,0,74,80,520.25,0.239583,Sixteenth,D5
3323,Left,1,55,80,520.5,0.989583,Quarter,G3
3324,Right,0,67,80,520.5,0.239583,Sixteenth,G4
3325,Right,0,76,80,520.75,0.239583,Sixteenth,E5
3326,Right,0,69,80,521.0,0.239583,Sixteenth,A4
3327,Right,0,77,80,521.25,0.239583,Sixteenth,F5
3328,Right,0,71,80,521.5,0.239583,Sixteenth,B4
3329,Left,1,55,80,521.5,0.489583,Eighth,G3
3330,Right,0,79,80,521.75,0.239583,Sixteenth,G5
3331,Right,0,76,110,522.0,0.239583,Sixteenth,E5
3332,Left,1,48,110,522.0,0.239583,Sixteenth,C3
3333,Right,0,72,110,522.25,0.239583,Sixteenth,C5
3334,Left,1,52,110,522.25,0.239583,Sixteenth,E3
3335,Right,0,79,110,522.5,0.989583,Quarter,G5
3336,Left,1,55,110,522.5,0.239583,Sixteenth,G3
3337,Left,1,60,110,522.75,0.239583,Sixteenth,C4
3338,Left,1,50,110,523.0,0.239583,Sixteenth,D3
3339,Left,1,59,110,523.25,0.239583,Sixteenth,B3
3340,Left,1,52,110,523.5,0.239583,Sixteenth,E3
3341,Right,0,79,110,523.5,0.989583,Quarter,G5
3342,Left,1,60,110,523.75,0.239583,Sixteenth,C4
3343,Left,1,53,110,524.0,0.239583,Sixteenth,F3
3344,Left,1,62,110,524.25,0.239583,Sixteenth,D4
3345,Left,1,55,110,524.5,0.239583,Sixteenth,G3
3346,Right,0,79,110,524.5,0.989583,Quarter,G5
3347,Left,1,64,110,524.75,0.239583,Sixteenth,E4
3348,Left,1,57,110,525.0,0.239583,Sixteenth,A3
3349,Left,1,65,110,525.25,0.239583,Sixteenth,F4
3351,Right,0,79,110,525.5,0.489583,Eighth,G5
3350,Left,1,59,110,525.5,0.239583,Sixteenth,B3
3352,Left,1,67,110,525.75,0.239583,Sixteenth,G4
3353,Right,0,67,100,526.0,0.239583,Sixteenth,G4
3354,Left,1,60,100,526.0,0.489583,Eighth,E4_C4
3356,Right,0,76,94,526.25,0.239583,Sixteenth,E5
3357,Right,0,69,87,526.5,0.239583,Sixteenth,A4
3358,Right,0,77,81,526.75,0.239583,Sixteenth,F5
3359,Right,0,65,80,527.0,0.239583,Sixteenth,F4
3360,Right,0,74,80,527.25,0.239583,Sixteenth,D5
3361,Right,0,67,80,527.5,0.239583,Sixteenth,G4
3362,Right,0,76,80,527.75,0.239583,Sixteenth,E5
3364,Left,1,55,80,528.0,0.239583,Sixteenth,G3
3363,Right,0,64,80,528.0,0.239583,Sixteenth,E4
3365,Right,0,72,80,528.25,0.239583,Sixteenth,C5
3366,Left,1,64,80,528.25,0.239583,Sixteenth,E4
3367,Left,1,57,80,528.5,0.239583,Sixteenth,A3
3368,Left,1,65,80,528.75,0.239583,Sixteenth,F4
3369,Left,1,53,80,529.0,0.239583,Sixteenth,F3
3370,Left,1,62,80,529.25,0.239583,Sixteenth,D4
3371,Left,1,55,80,529.5,0.239583,Sixteenth,G3
3372,Left,1,64,80,529.75,0.239583,Sixteenth,E4
3373,Left,1,52,80,530.0,0.239583,Sixteenth,E3
3374,Right,0,76,80,530.0,0.239583,Sixteenth,E5
3375,Left,1,60,80,530.25,0.239583,Sixteenth,C4
3376,Right,0,79,80,530.25,0.239583,Sixteenth,G5
3377,Right,0,77,80,530.5,0.239583,Sixteenth,F5
3378,Right,0,81,80,530.75,0.239583,Sixteenth,A5
3379,Right,0,74,80,531.0,0.239583,Sixteenth,D5
3380,Right,0,77,80,531.25,0.239583,Sixteenth,F5
3381,Right,0,76,80,531.5,0.239583,Sixteenth,E5
3382,Right,0,79,80,531.75,0.239583,Sixteenth,G5
3384,Left,1,64,80,532.0,0.239583,Sixteenth,E4
3383,Right,0,72,80,532.0,0.239583,Sixteenth,C5
3386,Left,1,67,80,532.25,0.239583,Sixteenth,G4
3385,Right,0,76,80,532.25,0.239583,Sixteenth,E5
3387,Left,1,65,80,532.5,0.239583,Sixteenth,F4
3388,Left,1,69,80,532.75,0.239583,Sixteenth,A4
3389,Left,1,62,80,533.0,0.239583,Sixteenth,D4
3390,Left,1,65,80,533.25,0.239583,Sixteenth,F4
3391,Left,1,64,80,533.5,0.239583,Sixteenth,E4
3392,Left,1,67,80,533.75,0.239583,Sixteenth,G4
3394,Right,0,82,80,534.0,0.239583,Sixteenth,A#5
3393,Left,1,60,80,534.0,0.239583,Sixteenth,C4
3396,Right,0,79,80,534.25,0.239583,Sixteenth,G5
3395,Left,1,64,80,534.25,0.239583,Sixteenth,E4
3397,Right,0,84,80,534.5,0.239583,Sixteenth,C6
3398,Right,0,81,80,534.75,0.239583,Sixteenth,A5
3399,Right,0,81,80,535.0,0.239583,Sixteenth,A5
3400,Right,0,77,80,535.25,0.239583,Sixteenth,F5
3401,Right,0,82,80,535.5,0.239583,Sixteenth,A#5
3402,Right,0,79,80,535.75,0.239583,Sixteenth,G5
3403,Right,0,79,80,536.0,0.239583,Sixteenth,G5
3404,Left,1,64,80,536.0,0.239583,Sixteenth,E4
3405,Right,0,76,80,536.25,0.239583,Sixteenth,E5
3406,Left,1,67,80,536.25,0.239583,Sixteenth,G4
3408,Left,1,65,80,536.5,0.239583,Sixteenth,F4
3407,Right,0,81,80,536.5,0.239583,Sixteenth,A5
3410,Left,1,69,80,536.75,0.239583,Sixteenth,A4
3409,Right,0,77,80,536.75,0.239583,Sixteenth,F5
3411,Left,1,62,80,537.0,0.239583,Sixteenth,D4
3412,Right,0,77,80,537.0,0.239583,Sixteenth,F5
3413,Left,1,65,80,537.25,0.239583,Sixteenth,F4
3414,Right,0,74,80,537.25,0.239583,Sixteenth,D5
3415,Right,0,79,80,537.5,0.239583,Sixteenth,G5
3416,Left,1,64,80,537.5,0.239583,Sixteenth,E4
3417,Right,0,76,80,537.75,0.239583,Sixteenth,E5
3418,Left,1,67,80,537.75,0.239583,Sixteenth,G4
3420,Right,0,76,80,538.0,0.239583,Sixteenth,E5
3419,Left,1,60,80,538.0,0.239583,Sixteenth,C4
3421,Left,1,64,80,538.25,0.239583,Sixteenth,E4
3422,Right,0,72,80,538.25,0.239583,Sixteenth,C5
3423,Right,0,77,81,538.5,0.239583,Sixteenth,F5
3424,Left,1,62,81,538.5,0.239583,Sixteenth,D4
3425,Right,0,74,82,538.75,0.239583,Sixteenth,D5
3426,Left,1,65,82,538.75,0.239583,Sixteenth,F4
3427,Right,0,74,83,539.0,0.239583,Sixteenth,D5
3428,Left,1,58,83,539.0,0.239583,Sixteenth,A#3
3429,Right,0,70,84,539.25,0.239583,Sixteenth,A#4
3430,Left,1,62,84,539.25,0.239583,Sixteenth,D4
3431,Right,0,76,85,539.5,0.239583,Sixteenth,E5
3432,Left,1,60,85,539.5,0.239583,Sixteenth,C4
3434,Right,0,72,86,539.75,0.239583,Sixteenth,C5
3433,Left,1,64,86,539.75,0.239583,Sixteenth,E4
3436,Right,0,72,86,540.0,0.239583,Sixteenth,C5
3435,Left,1,57,86,540.0,0.239583,Sixteenth,A3
3438,Right,0,69,87,540.25,0.239583,Sixteenth,A4
3437,Left,1,60,87,540.25,0.239583,Sixteenth,C4
3439,Left,1,58,88,540.5,0.239583,Sixteenth,A#3
3440,Right,0,74,88,540.5,0.239583,Sixteenth,D5
3442,Right,0,70,89,540.75,0.239583,Sixteenth,A#4
3441,Left,1,62,89,540.75,0.239583,Sixteenth,D4
3444,Left,1,55,90,541.0,0.239583,Sixteenth,G3
3443,Right,0,70,90,541.0,0.239583,Sixteenth,A#4
3445,Left,1,58,91,541.25,0.239583,Sixteenth,A#3
3446,Right,0,67,91,541.25,0.239583,Sixteenth,G4
3448,Right,0,72,92,541.5,0.239583,Sixteenth,C5
3447,Left,1,57,92,541.5,0.239583,Sixteenth,A3
3450,Right,0,69,93,541.75,0.239583,Sixteenth,A4
3449,Left,1,60,93,541.75,0.239583,Sixteenth,C4
3451,Left,1,53,93,542.0,0.239583,Sixteenth,F3
3452,Right,0,69,93,542.0,0.239583,Sixteenth,A4
3453,Left,1,57,94,542.25,0.239583,Sixteenth,A3
3454,Right,0,65,94,542.25,0.239583,Sixteenth,F4
3455,Left,1,55,95,542.5,0.239583,Sixteenth,G3
3456,Right,0,70,95,542.5,0.239583,Sixteenth,A#4
3457,Left,1,58,96,542.75,0.239583,Sixteenth,A#3
3458,Right,0,67,96,542.75,0.239583,Sixteenth,G4
3460,Left,1,57,97,543.0,0.239583,Sixteenth,A3
3459,Right,0,72,97,543.0,0.239583,Sixteenth,C5
3462,Left,1,60,98,543.25,0.239583,Sixteenth,C4
3461,Right,0,69,98,543.25,0.239583,Sixteenth,A4
3464,Right,0,74,99,543.5,0.239583,Sixteenth,D5
3463,Left,1,58,99,543.5,0.239583,Sixteenth,A#3
3466,Right,0,70,99,543.75,0.239583,Sixteenth,A#4
3465,Left,1,62,99,543.75,0.239583,Sixteenth,D4
3468,Right,0,72,100,544.0,0.239583,Sixteenth,C5
3467,Left,1,57,100,544.0,0.239583,Sixteenth,A3
3470,Right,0,69,98,544.25,0.239583,Sixteenth,A4
3469,Left,1,60,98,544.25,0.239583,Sixteenth,C4
3471,Left,1,55,95,544.5,0.239583,Sixteenth,G3
3472,Right,0,70,95,544.5,0.239583,Sixteenth,A#4
3473,Right,0,67,92,544.75,0.239583,Sixteenth,G4
3474,Left,1,58,92,544.75,0.239583,Sixteenth,A#3
3475,Right,0,69,89,545.0,0.239583,Sixteenth,A4
3476,Left,1,53,89,545.0,0.239583,Sixteenth,F3
3478,Left,1,57,86,545.25,0.239583,Sixteenth,A3
3477,Right,0,65,86,545.25,0.239583,Sixteenth,F4
3480,Left,1,48,83,545.5,0.239583,Sixteenth,C3
3479,Right,0,67,83,545.5,0.239583,Sixteenth,G4
3481,Right,0,60,81,545.75,0.239583,Sixteenth,C4
3482,Left,1,55,81,545.75,0.239583,Sixteenth,G3
3484,Left,1,29,80,546.0,0.239583,Sixteenth,F1
3483,Right,0,53,80,546.0,0.239583,Sixteenth,F3
3485,Left,1,41,80,546.25,0.239583,Sixteenth,F2
3486,Right,0,57,80,546.25,0.239583,Sixteenth,A3
3487,Right,0,60,81,546.5,0.239583,Sixteenth,C4
3488,Left,1,29,81,546.5,0.239583,Sixteenth,F1
3489,Left,1,41,82,546.75,0.239583,Sixteenth,F2
3490,Right,0,65,82,546.75,0.239583,Sixteenth,F4
3492,Right,0,55,83,547.0,0.239583,Sixteenth,G3
3491,Left,1,29,83,547.0,0.239583,Sixteenth,F1
3493,Left,1,41,84,547.25,0.239583,Sixteenth,F2
3494,Right,0,64,84,547.25,0.239583,Sixteenth,E4
3495,Left,1,29,85,547.5,0.239583,Sixteenth,F1
3496,Right,0,57,85,547.5,0.239583,Sixteenth,A3
3498,Left,1,41,86,547.75,0.239583,Sixteenth,F2
3497,Right,0,65,86,547.75,0.239583,Sixteenth,F4
3500,Right,0,58,87,548.0,0.239583,Sixteenth,A#3
3499,Left,1,29,87,548.0,0.239583,Sixteenth,F1
3501,Right,0,67,88,548.25,0.239583,Sixteenth,G4
3502,Left,1,41,88,548.25,0.239583,Sixteenth,F2
3504,Left,1,29,89,548.5,0.239583,Sixteenth,F1
3503,Right,0,60,89,548.5,0.239583,Sixteenth,C4
3506,Right,0,69,90,548.75,0.239583,Sixteenth,A4
3505,Left,1,41,90,548.75,0.239583,Sixteenth,F2
3507,Right,0,62,91,549.0,0.239583,Sixteenth,D4
3508,Left,1,29,91,549.0,0.239583,Sixteenth,F1
3509,Right,0,70,92,549.25,0.239583,Sixteenth,A#4
3510,Left,1,41,92,549.25,0.239583,Sixteenth,F2
3512,Right,0,64,93,549.5,0.239583,Sixteenth,E4
3511,Left,1,29,93,549.5,0.239583,Sixteenth,F1
3513,Right,0,72,94,549.75,0.239583,Sixteenth,C5
3514,Left,1,41,94,549.75,0.239583,Sixteenth,F2
3515,Right,0,65,95,550.0,0.239583,Sixteenth,F4
3516,Left,1,29,95,550.0,0.239583,Sixteenth,F1
3517,Left,1,41,96,550.25,0.239583,Sixteenth,F2
3518,Right,0,69,96,550.25,0.239583,Sixteenth,A4
3519,Left,1,29,97,550.5,0.239583,Sixteenth,F1
3520,Right,0,72,97,550.5,0.239583,Sixteenth,C5
3522,Right,0,77,98,550.75,0.239583,Sixteenth,F5
3521,Left,1,41,98,550.75,0.239583,Sixteenth,F2
3523,Left,1,29,99,551.0,0.239583,Sixteenth,F1
3524,Right,0,67,99,551.0,0.239583,Sixteenth,G4
3525,Right,0,76,100,551.25,0.239583,Sixteenth,E5
3526,Left,1,41,100,551.25,0.239583,Sixteenth,F2
3528,Right,0,69,101,551.5,0.239583,Sixteenth,A4
3527,Left,1,29,101,551.5,0.239583,Sixteenth,F1
3530,Right,0,77,102,551.75,0.239583,Sixteenth,F5
3529,Left,1,41,102,551.75,0.239583,Sixteenth,F2
3531,Right,0,70,103,552.0,0.239583,Sixteenth,A#4
3532,Left,1,29,103,552.0,0.239583,Sixteenth,F1
3533,Right,0,79,104,552.25,0.239583,Sixteenth,G5
3534,Left,1,41,104,552.25,0.239583,Sixteenth,F2
3536,Left,1,29,105,552.5,0.239583,Sixteenth,F1
3535,Right,0,72,105,552.5,0.239583,Sixteenth,C5
3537,Right,0,81,106,552.75,0.239583,Sixteenth,A5
3538,Left,1,41,106,552.75,0.239583,Sixteenth,F2
3540,Left,1,29,107,553.0,0.239583,Sixteenth,F1
3539,Right,0,74,107,553.0,0.239583,Sixteenth,D5
3541,Right,0,82,108,553.25,0.239583,Sixteenth,A#5
3542,Left,1,41,108,553.25,0.239583,Sixteenth,F2
3543,Right,0,76,108,553.5,0.239583,Sixteenth,E5
3544,Left,1,29,108,553.5,0.239583,Sixteenth,F1
3545,Right,0,84,109,553.75,0.239583,Sixteenth,C6
3546,Left,1,41,109,553.75,0.239583,Sixteenth,F2
3548,Left,1,41,110,554.0,0.239583,Sixteenth,F2
3547,Right,0,81,110,554.0,0.239583,Sixteenth,A5
3550,Right,0,77,110,554.25,0.239583,Sixteenth,F5
3549,Left,1,45,110,554.25,0.239583,Sixteenth,A2
3552,Right,0,84,110,554.5,0.239583,Sixteenth,C6
3551,Left,1,48,110,554.5,0.239583,Sixteenth,C3
3553,Left,1,53,110,554.75,0.239583,Sixteenth,F3
3554,Right,0,72,110,554.75,0.239583,Sixteenth,C5
3556,Right,0,84,110,555.0,0.239583,Sixteenth,C6
3555,Left,1,43,110,555.0,0.239583,Sixteenth,G2
3557,Right,0,72,110,555.25,0.239583,Sixteenth,C5
3558,Left,1,52,110,555.25,0.239583,Sixteenth,E3
3560,Right,0,84,110,555.5,0.239583,Sixteenth,C6
3559,Left,1,45,110,555.5,0.239583,Sixteenth,A2
3562,Right,0,72,110,555.75,0.239583,Sixteenth,C5
3561,Left,1,53,110,555.75,0.239583,Sixteenth,F3
3563,Left,1,46,110,556.0,0.239583,Sixteenth,A#2
3564,Right,0,84,110,556.0,0.239583,Sixteenth,C6
3565,Left,1,55,110,556.25,0.239583,Sixteenth,G3
3566,Right,0,72,110,556.25,0.239583,Sixteenth,C5
3567,Left,1,48,110,556.5,0.239583,Sixteenth,C3
3568,Right,0,84,110,556.5,0.239583,Sixteenth,C6
3569,Right,0,72,110,556.75,0.239583,Sixteenth,C5
3570,Left,1,57,110,556.75,0.239583,Sixteenth,A3
3571,Right,0,84,110,557.0,0.239583,Sixteenth,C6
3572,Left,1,50,110,557.0,0.239583,Sixteenth,D3
3574,Right,0,72,110,557.25,0.239583,Sixteenth,C5
3573,Left,1,58,110,557.25,0.239583,Sixteenth,A#3
3575,Right,0,84,110,557.5,0.239583,Sixteenth,C6
3576,Left,1,52,110,557.5,0.239583,Sixteenth,E3
3578,Left,1,60,110,557.75,0.239583,Sixteenth,C4
3577,Right,0,72,110,557.75,0.239583,Sixteenth,C5
3580,Left,1,53,110,558.0,0.239583,Sixteenth,F3
3579,Right,0,69,110,558.0,0.239583,Sixteenth,A4
3581,Right,0,72,110,558.25,0.239583,Sixteenth,C5
3582,Left,1,57,110,558.25,0.239583,Sixteenth,A3
3583,Right,0,77,110,558.5,0.239583,Sixteenth,F5
3584,Left,1,60,110,558.5,0.239583,Sixteenth,C4
3586,Right,0,81,110,558.75,0.239583,Sixteenth,A5
3585,Left,1,65,110,558.75,0.239583,Sixteenth,F4
3588,Right,0,72,110,559.0,0.239583,Sixteenth,C5
3587,Left,1,63,110,559.0,0.239583,Sixteenth,D#4
3590,Right,0,81,110,559.25,0.239583,Sixteenth,A5
3589,Left,1,65,110,559.25,0.239583,Sixteenth,F4
3592,Left,1,62,110,559.5,0.239583,Sixteenth,D4
3591,Right,0,74,110,559.5,0.239583,Sixteenth,D5
3593,Right,0,82,110,559.75,0.239583,Sixteenth,A#5
3594,Left,1,65,110,559.75,0.239583,Sixteenth,F4
3596,Left,1,60,110,560.0,0.239583,Sixteenth,C4
3595,Right,0,75,110,560.0,0.239583,Sixteenth,D#5
3598,Left,1,65,110,560.25,0.239583,Sixteenth,F4
3597,Right,0,84,110,560.25,0.239583,Sixteenth,C6
3599,Left,1,58,110,560.5,0.239583,Sixteenth,A#3
3600,Right,0,77,110,560.5,0.239583,Sixteenth,F5
3601,Left,1,65,110,560.75,0.239583,Sixteenth,F4
3602,Right,0,86,110,560.75,0.239583,Sixteenth,D6
3604,Right,0,84,110,561.0,0.239583,Sixteenth,C6
3603,Left,1,57,110,561.0,0.239583,Sixteenth,A3
3606,Right,0,87,110,561.25,0.239583,Sixteenth,D#6
3605,Left,1,65,110,561.25,0.239583,Sixteenth,F4
3607,Left,1,53,110,561.5,0.239583,Sixteenth,F3
3608,Right,0,81,110,561.5,0.239583,Sixteenth,A5
3610,Left,1,60,110,561.75,0.239583,Sixteenth,C4
3609,Right,0,89,110,561.75,0.239583,Sixteenth,F6
3611,Right,0,86,100,562.0,0.239583,Sixteenth,D6
3612,Left,1,58,100,562.0,0.239583,Sixteenth,A#3
3614,Right,0,82,94,562.25,0.239583,Sixteenth,A#5
3613,Left,1,62,94,562.25,0.239583,Sixteenth,D4
3616,Right,0,89,87,562.5,0.239583,Sixteenth,F6
3615,Left,1,53,87,562.5,0.239583,Sixteenth,F3
3618,Left,1,60,81,562.75,0.239583,Sixteenth,C4
3617,Right,0,81,81,562.75,0.239583,Sixteenth,A5
3620,Right,0,82,80,563.0,0.239583,Sixteenth,A#5
3619,Left,1,55,80,563.0,0.239583,Sixteenth,G3
3622,Left,1,58,80,563.25,0.239583,Sixteenth,A#3
3621,Right,0,79,80,563.25,0.239583,Sixteenth,G5
3624,Left,1,50,80,563.5,0.239583,Sixteenth,D3
3623,Right,0,86,80,563.5,0.239583,Sixteenth,D6
3625,Right,0,77,80,563.75,0.239583,Sixteenth,F5
3626,Left,1,57,80,563.75,0.239583,Sixteenth,A3
3628,Left,1,51,80,564.0,0.239583,Sixteenth,D#3
3627,Right,0,79,80,564.0,0.239583,Sixteenth,G5
3630,Right,0,75,80,564.25,0.239583,Sixteenth,D#5
3629,Left,1,55,80,564.25,0.239583,Sixteenth,G3
3632,Right,0,82,80,564.5,0.239583,Sixteenth,A#5
3631,Left,1,46,80,564.5,0.239583,Sixteenth,A#2
3633,Right,0,74,80,564.75,0.239583,Sixteenth,D5
3634,Left,1,53,80,564.75,0.239583,Sixteenth,F3
3635,Right,0,75,80,565.0,0.239583,Sixteenth,D#5
3636,Left,1,48,80,565.0,0.239583,Sixteenth,C3
3638,Right,0,72,80,565.25,0.239583,Sixteenth,C5
3637,Left,1,51,80,565.25,0.239583,Sixteenth,D#3
3640,Left,1,43,80,565.5,0.239583,Sixteenth,G2
3639,Right,0,79,80,565.5,0.239583,Sixteenth,G5
3641,Right,0,70,80,565.75,0.239583,Sixteenth,A#4
3642,Left,1,50,80,565.75,0.239583,Sixteenth,D3
3643,Right,0,77,80,566.0,0.239583,Sixteenth,F5
3644,Left,1,45,80,566.0,0.239583,Sixteenth,A2
3645,Right,0,72,81,566.25,0.239583,Sixteenth,C5
3646,Left,1,48,81,566.25,0.239583,Sixteenth,C3
3648,Right,0,69,83,566.5,0.239583,Sixteenth,A4
3647,Left,1,41,83,566.5,0.239583,Sixteenth,F2
3649,Left,1,53,85,566.75,0.239583,Sixteenth,F3
3650,Right,0,75,85,566.75,0.239583,Sixteenth,D#5
3651,Right,0,74,87,567.0,0.239583,Sixteenth,D5
3652,Left,1,43,87,567.0,0.239583,Sixteenth,G2
3653,Right,0,70,89,567.25,0.239583,Sixteenth,A#4
3654,Left,1,55,89,567.25,0.239583,Sixteenth,G3
3655,Left,1,39,91,567.5,0.239583,Sixteenth,D#2
3656,Right,0,67,91,567.5,0.239583,Sixteenth,G4
3658,Left,1,51,93,567.75,0.239583,Sixteenth,D#3
3657,Right,0,72,93,567.75,0.239583,Sixteenth,C5
3659,Right,0,62,95,568.0,0.239583,Sixteenth,F4_D4
3661,Left,1,41,95,568.0,0.239583,Sixteenth,F2
3663,Right,0,72,97,568.25,0.239583,Sixteenth,C5
3662,Left,1,53,97,568.25,0.239583,Sixteenth,F3
3665,Right,0,65,99,568.5,0.239583,Sixteenth,F4_C#4
3664,Left,1,41,99,568.5,0.239583,Sixteenth,F2
3668,Right,0,70,101,568.75,0.239583,Sixteenth,A#4
3667,Left,1,53,101,568.75,0.239583,Sixteenth,F3
3669,Right,0,63,103,569.0,0.239583,Sixteenth,D#4_C4
3670,Left,1,41,103,569.0,0.239583,Sixteenth,F2
3672,Right,0,70,105,569.25,0.239583,Sixteenth,A#4
3673,Left,1,53,105,569.25,0.239583,Sixteenth,F3
3675,Left,1,41,107,569.5,0.239583,Sixteenth,F2
3674,Right,0,60,107,569.5,0.239583,Sixteenth,D#4_C4
3677,Right,0,69,109,569.75,0.239583,Sixteenth,A4
3678,Left,1,53,109,569.75,0.239583,Sixteenth,F3
3679,Left,1,58,80,570.0,0.239583,Sixteenth,A#3
3680,Right,0,73,80,570.0,0.239583,Sixteenth,C#5
3681,Right,0,70,80,570.25,0.239583,Sixteenth,A#4
3682,Left,1,61,80,570.25,0.239583,Sixteenth,C#4
3683,Left,1,53,80,570.5,0.239583,Sixteenth,F3
3684,Right,0,77,80,570.5,0.239583,Sixteenth,F5
3685,Right,0,68,80,570.75,0.239583,Sixteenth,G#4
3686,Left,1,60,80,570.75,0.239583,Sixteenth,C4
3687,Left,1,54,80,571.0,0.239583,Sixteenth,F#3
3688,Right,0,70,80,571.0,0.239583,Sixteenth,A#4
3690,Right,0,66,80,571.25,0.239583,Sixteenth,F#4
3689,Left,1,58,80,571.25,0.239583,Sixteenth,A#3
3691,Left,1,49,80,571.5,0.239583,Sixteenth,C#3
3692,Right,0,73,80,571.5,0.239583,Sixteenth,C#5
3694,Right,0,65,80,571.75,0.239583,Sixteenth,F4
3693,Left,1,56,80,571.75,0.239583,Sixteenth,G#3
3695,Left,1,51,80,572.0,0.239583,Sixteenth,D#3
3696,Right,0,66,80,572.0,0.239583,Sixteenth,F#4
3697,Left,1,54,80,572.25,0.239583,Sixteenth,F#3
3698,Right,0,63,80,572.25,0.239583,Sixteenth,D#4
3700,Left,1,46,80,572.5,0.239583,Sixteenth,A#2
3699,Right,0,70,80,572.5,0.239583,Sixteenth,A#4
3701,Left,1,53,80,572.75,0.239583,Sixteenth,F3
3702,Right,0,61,80,572.75,0.239583,Sixteenth,C#4
3704,Right,0,68,80,573.0,0.239583,Sixteenth,G#4
3703,Left,1,48,80,573.0,0.239583,Sixteenth,C3
3706,Left,1,51,80,573.25,0.239583,Sixteenth,D#3
3705,Right,0,63,80,573.25,0.239583,Sixteenth,D#4
3707,Right,0,60,80,573.5,0.239583,Sixteenth,C4
3708,Left,1,44,80,573.5,0.239583,Sixteenth,G#2
3709,Right,0,66,80,573.75,0.239583,Sixteenth,F#4
3710,Left,1,51,80,573.75,0.239583,Sixteenth,D#3
3711,Right,0,65,80,574.0,0.239583,Sixteenth,F4
3712,Left,1,37,80,574.0,0.239583,Sixteenth,C#2
3713,Right,0,56,84,574.25,0.239583,Sixteenth,G#3
3714,Left,1,49,84,574.25,0.239583,Sixteenth,C#3
3715,Right,0,58,88,574.5,0.239583,Sixteenth,F#3_A#3
3717,Left,1,37,88,574.5,0.239583,Sixteenth,C#2
3718,Right,0,63,92,574.75,0.239583,Sixteenth,D#4
3719,Left,1,49,92,574.75,0.239583,Sixteenth,C#3
3721,Right,0,56,97,575.0,0.239583,Sixteenth,G#3_F3
3720,Left,1,37,97,575.0,0.239583,Sixteenth,C#2
3724,Right,0,61,101,575.25,0.239583,Sixteenth,C#4
3723,Left,1,49,101,575.25,0.239583,Sixteenth,C#3
3725,Right,0,51,105,575.5,0.239583,Sixteenth,F#3_D#3
3727,Left,1,37,105,575.5,0.239583,Sixteenth,C#2
3729,Left,1,49,109,575.75,0.239583,Sixteenth,C#3
3728,Right,0,60,109,575.75,0.239583,Sixteenth,C4
3730,Left,1,37,110,576.0,1.989583,Half,C#2
3731,Right,0,53,110,576.0,0.239583,Sixteenth,F3
3732,Right,0,59,110,576.25,0.239583,Sixteenth,B3
3733,Right,0,53,110,576.5,0.239583,Sixteenth,F3
3734,Right,0,55,110,576.75,0.239583,Sixteenth,G3
3735,Right,0,56,110,577.0,0.239583,Sixteenth,G#3
3736,Right,0,55,110,577.25,0.239583,Sixteenth,G3
3737,Right,0,56,110,577.5,0.239583,Sixteenth,G#3
3738,Right,0,53,110,577.75,0.239583,Sixteenth,F3
3739,Left,1,38,110,578.0,1.989583,Half,D2
3740,Right,0,59,110,578.25,0.239583,Sixteenth,B3
3741,Right,0,53,110,578.5,0.239583,Sixteenth,F3
3742,Right,0,55,110,578.75,0.239583,Sixteenth,G3
3743,Right,0,56,110,579.0,0.239583,Sixteenth,G#3
3744,Right,0,55,110,579.25,0.239583,Sixteenth,G3
3745,Right,0,56,110,579.5,0.239583,Sixteenth,G#3
3746,Right,0,53,110,579.75,0.239583,Sixteenth,F3
3747,Left,1,36,110,580.0,1.989583,Half,C2
3748,Right,0,60,110,580.25,0.239583,Sixteenth,C4
3749,Right,0,53,110,580.5,0.239583,Sixteenth,F3
3750,Right,0,55,110,580.75,0.239583,Sixteenth,G3
3751,Right,0,56,110,581.0,0.239583,Sixteenth,G#3
3752,Right,0,55,110,581.25,0.239583,Sixteenth,G3
3753,Right,0,56,110,581.5,0.239583,Sixteenth,G#3
3754,Right,0,53,110,581.75,0.239583,Sixteenth,F3
3755,Left,1,35,110,582.0,0.989583,Quarter,B1
3756,Right,0,53,110,582.25,0.239583,Sixteenth,F3
3757,Right,0,56,110,582.5,0.239583,Sixteenth,G#3
3758,Right,0,62,110,582.75,0.239583,Sixteenth,D4
3759,Left,1,35,110,583.0,0.989583,Quarter,B1
3760,Right,0,53,110,583.25,0.239583,Sixteenth,F3
3761,Right,0,56,110,583.5,0.239583,Sixteenth,G#3
3762,Right,0,62,110,583.75,0.239583,Sixteenth,D4
3763,Right,0,48,100,584.0,0.239583,Sixteenth,C3
3764,Left,1,36,94,584.25,0.239583,Sixteenth,C2
3765,Right,0,52,94,584.25,0.239583,Sixteenth,E3
3766,Right,0,55,87,584.5,0.239583,Sixteenth,G3
3767,Left,1,40,87,584.5,0.239583,Sixteenth,E2
3768,Left,1,36,81,584.75,0.239583,Sixteenth,C2
3769,Right,0,60,81,584.75,0.239583,Sixteenth,C4
3770,Left,1,41,80,585.0,0.239583,Sixteenth,F2
3771,Right,0,49,80,585.0,0.239583,Sixteenth,C#3
3772,Right,0,59,80,585.25,0.239583,Sixteenth,B3
3773,Left,1,36,80,585.25,0.239583,Sixteenth,C2
3775,Left,1,40,80,585.5,0.239583,Sixteenth,E2
3774,Right,0,48,80,585.5,0.239583,Sixteenth,C3
3776,Left,1,36,80,585.75,0.239583,Sixteenth,C2
3777,Right,0,60,80,585.75,0.239583,Sixteenth,C4
3778,Right,0,60,80,586.0,0.239583,Sixteenth,C4
3779,Right,0,64,80,586.25,0.239583,Sixteenth,E4
3780,Left,1,48,80,586.25,0.239583,Sixteenth,C3
3781,Right,0,67,80,586.5,0.239583,Sixteenth,G4
3782,Left,1,52,80,586.5,0.239583,Sixteenth,E3
3783,Right,0,72,80,586.75,0.239583,Sixteenth,C5
3784,Left,1,48,80,586.75,0.239583,Sixteenth,C3
3785,Left,1,53,80,587.0,0.239583,Sixteenth,F3
3786,Right,0,61,80,587.0,0.239583,Sixteenth,C#4
3788,Right,0,71,80,587.25,0.239583,Sixteenth,B4
3787,Left,1,48,80,587.25,0.239583,Sixteenth,C3
3790,Left,1,52,80,587.5,0.239583,Sixteenth,E3
3789,Right,0,60,80,587.5,0.239583,Sixteenth,C4
3791,Left,1,48,80,587.75,0.239583,Sixteenth,C3
3792,Right,0,72,80,587.75,0.239583,Sixteenth,C5
3793,Right,0,72,80,588.0,0.239583,Sixteenth,C5
3795,Left,1,67,80,588.25,0.239583,Sixteenth,G4
3794,Right,0,76,80,588.25,0.239583,Sixteenth,E5
3796,Right,0,79,80,588.5,0.239583,Sixteenth,G5
3797,Left,1,64,80,588.5,0.239583,Sixteenth,E4
3798,Right,0,84,80,588.75,0.239583,Sixteenth,C6
3799,Left,1,67,80,588.75,0.239583,Sixteenth,G4
3800,Right,0,73,80,589.0,0.239583,Sixteenth,C#5
3801,Left,1,65,80,589.0,0.239583,Sixteenth,F4
3803,Left,1,67,80,589.25,0.239583,Sixteenth,G4
3802,Right,0,83,80,589.25,0.239583,Sixteenth,B5
3804,Right,0,72,80,589.5,0.239583,Sixteenth,C5
3805,Left,1,64,80,589.5,0.239583,Sixteenth,E4
3806,Right,0,84,80,589.75,0.239583,Sixteenth,C6
3807,Left,1,67,80,589.75,0.239583,Sixteenth,G4
3809,Left,1,65,80,590.0,0.239583,Sixteenth,F4
3808,Right,0,73,80,590.0,0.239583,Sixteenth,C#5
3810,Left,1,67,80,590.25,0.239583,Sixteenth,G4
3811,Right,0,83,80,590.25,0.239583,Sixteenth,B5
3812,Right,0,72,80,590.5,0.239583,Sixteenth,C5
3813,Left,1,64,80,590.5,0.239583,Sixteenth,E4
3815,Left,1,67,80,590.75,0.239583,Sixteenth,G4
3814,Right,0,84,80,590.75,0.239583,Sixteenth,C6
3817,Left,1,63,80,591.0,0.239583,Sixteenth,D#4
3816,Right,0,71,80,591.0,0.239583,Sixteenth,B4
3818,Left,1,65,80,591.25,0.239583,Sixteenth,F4
3819,Right,0,81,80,591.25,0.239583,Sixteenth,A5
3821,Right,0,70,80,591.5,0.239583,Sixteenth,A#4
3820,Left,1,62,80,591.5,0.239583,Sixteenth,D4
3822,Right,0,82,80,591.75,0.239583,Sixteenth,A#5
3823,Left,1,65,80,591.75,0.239583,Sixteenth,F4
3824,Right,0,46,80,592.0,0.239583,Sixteenth,A#2
3826,Left,1,34,80,592.25,0.239583,Sixteenth,A#1
3825,Right,0,50,80,592.25,0.239583,Sixteenth,D3
3827,Right,0,53,80,592.5,0.239583,Sixteenth,F3
3828,Left,1,38,80,592.5,0.239583,Sixteenth,D2
3830,Left,1,34,80,592.75,0.239583,Sixteenth,A#1
3829,Right,0,58,80,592.75,0.239583,Sixteenth,A#3
3831,Left,1,39,80,593.0,0.239583,Sixteenth,D#2
3832,Right,0,47,80,593.0,0.239583,Sixteenth,B2
3834,Left,1,34,80,593.25,0.239583,Sixteenth,A#1
3833,Right,0,57,80,593.25,0.239583,Sixteenth,A3
3836,Right,0,46,80,593.5,0.239583,Sixteenth,A#2
3835,Left,1,38,80,593.5,0.239583,Sixteenth,D2
3838,Left,1,34,80,593.75,0.239583,Sixteenth,A#1
3837,Right,0,58,80,593.75,0.239583,Sixteenth,A#3
3839,Right,0,58,80,594.0,0.239583,Sixteenth,A#3
3841,Left,1,46,80,594.25,0.239583,Sixteenth,A#2
3840,Right,0,62,80,594.25,0.239583,Sixteenth,D4
3842,Right,0,65,80,594.5,0.239583,Sixteenth,F4
3843,Left,1,50,80,594.5,0.239583,Sixteenth,D3
3845,Left,1,46,80,594.75,0.239583,Sixteenth,A#2
3844,Right,0,70,80,594.75,0.239583,Sixteenth,A#4
3846,Right,0,59,80,595.0,0.239583,Sixteenth,B3
3847,Left,1,51,80,595.0,0.239583,Sixteenth,D#3
3848,Right,0,69,80,595.25,0.239583,Sixteenth,A4
3849,Left,1,46,80,595.25,0.239583,Sixteenth,A#2
3851,Left,1,50,80,595.5,0.239583,Sixteenth,D3
3850,Right,0,58,80,595.5,0.239583,Sixteenth,A#3
3852,Left,1,46,80,595.75,0.239583,Sixteenth,A#2
3853,Right,0,70,80,595.75,0.239583,Sixteenth,A#4
3854,Right,0,70,80,596.0,0.239583,Sixteenth,A#4
3855,Right,0,74,80,596.25,0.239583,Sixteenth,D5
3856,Left,1,65,80,596.25,0.239583,Sixteenth,F4
3858,Left,1,62,80,596.5,0.239583,Sixteenth,D4
3857,Right,0,77,80,596.5,0.239583,Sixteenth,F5
3860,Left,1,65,80,596.75,0.239583,Sixteenth,F4
3859,Right,0,82,80,596.75,0.239583,Sixteenth,A#5
3861,Right,0,71,80,597.0,0.239583,Sixteenth,B4
3862,Left,1,63,80,597.0,0.239583,Sixteenth,D#4
3863,Right,0,81,80,597.25,0.239583,Sixteenth,A5
3864,Left,1,65,80,597.25,0.239583,Sixteenth,F4
3866,Left,1,62,80,597.5,0.239583,Sixteenth,D4
3865,Right,0,70,80,597.5,0.239583,Sixteenth,A#4
3867,Left,1,65,80,597.75,0.239583,Sixteenth,F4
3868,Right,0,82,80,597.75,0.239583,Sixteenth,A#5
3870,Left,1,63,80,598.0,0.239583,Sixteenth,D#4
3869,Right,0,71,80,598.0,0.239583,Sixteenth,B4
3871,Left,1,65,80,598.25,0.239583,Sixteenth,F4
3872,Right,0,81,80,598.25,0.239583,Sixteenth,A5
3874,Left,1,62,80,598.5,0.239583,Sixteenth,D4
3873,Right,0,70,80,598.5,0.239583,Sixteenth,A#4
3875,Left,1,65,80,598.75,0.239583,Sixteenth,F4
3876,Right,0,82,80,598.75,0.239583,Sixteenth,A#5
3878,Right,0,69,80,599.0,0.239583,Sixteenth,A4
3877,Left,1,61,80,599.0,0.239583,Sixteenth,C#4
3880,Right,0,79,80,599.25,0.239583,Sixteenth,G5
3879,Left,1,63,80,599.25,0.239583,Sixteenth,D#4
3881,Left,1,60,80,599.5,0.239583,Sixteenth,C4
3882,Right,0,68,80,599.5,0.239583,Sixteenth,G#4
3884,Right,0,80,80,599.75,0.239583,Sixteenth,G#5
3883,Left,1,61,80,599.75,0.239583,Sixteenth,C#4
3885,Right,0,44,80,600.0,0.239583,Sixteenth,G#2
3887,Right,0,48,80,600.25,0.239583,Sixteenth,C3
3886,Left,1,32,80,600.25,0.239583,Sixteenth,G#1
3889,Left,1,36,80,600.5,0.239583,Sixteenth,C2
3888,Right,0,51,80,600.5,0.239583,Sixteenth,D#3
3891,Left,1,32,80,600.75,0.239583,Sixteenth,G#1
3890,Right,0,56,80,600.75,0.239583,Sixteenth,G#3
3892,Right,0,45,80,601.0,0.239583,Sixteenth,A2
3893,Left,1,37,80,601.0,0.239583,Sixteenth,C#2
3894,Left,1,32,80,601.25,0.239583,Sixteenth,G#1
3895,Right,0,55,80,601.25,0.239583,Sixteenth,G3
3896,Left,1,36,80,601.5,0.239583,Sixteenth,C2
3897,Right,0,44,80,601.5,0.239583,Sixteenth,G#2
3899,Left,1,32,80,601.75,0.239583,Sixteenth,G#1
3898,Right,0,56,80,601.75,0.239583,Sixteenth,G#3
3900,Right,0,56,80,602.0,0.239583,Sixteenth,G#3
3901,Left,1,44,80,602.25,0.239583,Sixteenth,G#2
3902,Right,0,60,80,602.25,0.239583,Sixteenth,C4
3904,Left,1,48,80,602.5,0.239583,Sixteenth,C3
3903,Right,0,63,80,602.5,0.239583,Sixteenth,D#4
3906,Right,0,68,80,602.75,0.239583,Sixteenth,G#4
3905,Left,1,44,80,602.75,0.239583,Sixteenth,G#2
3908,Left,1,49,80,603.0,0.239583,Sixteenth,C#3
3907,Right,0,57,80,603.0,0.239583,Sixteenth,A3
3910,Left,1,44,80,603.25,0.239583,Sixteenth,G#2
3909,Right,0,67,80,603.25,0.239583,Sixteenth,G4
3911,Right,0,56,80,603.5,0.239583,Sixteenth,G#3
3912,Left,1,48,80,603.5,0.239583,Sixteenth,C3
3913,Right,0,68,80,603.75,0.239583,Sixteenth,G#4
3914,Left,1,44,80,603.75,0.239583,Sixteenth,G#2
3915,Right,0,68,80,604.0,0.239583,Sixteenth,G#4
3916,Right,0,72,81,604.25,0.239583,Sixteenth,C5
3917,Left,1,63,81,604.25,0.239583,Sixteenth,D#4
3919,Right,0,75,82,604.5,0.239583,Sixteenth,D#5
3918,Left,1,60,82,604.5,0.239583,Sixteenth,C4
3920,Right,0,80,83,604.75,0.239583,Sixteenth,G#5
3921,Left,1,63,83,604.75,0.239583,Sixteenth,D#4
3922,Left,1,61,85,605.0,0.239583,Sixteenth,C#4
3923,Right,0,69,85,605.0,0.239583,Sixteenth,A4
3925,Left,1,63,86,605.25,0.239583,Sixteenth,D#4
3924,Right,0,79,86,605.25,0.239583,Sixteenth,G5
3927,Left,1,60,87,605.5,0.239583,Sixteenth,C4
3926,Right,0,68,87,605.5,0.239583,Sixteenth,G#4
3929,Left,1,63,89,605.75,0.239583,Sixteenth,D#4
3928,Right,0,80,89,605.75,0.239583,Sixteenth,G#5
3931,Right,0,69,90,606.0,0.239583,Sixteenth,A4
3930,Left,1,61,90,606.0,0.239583,Sixteenth,C#4
3933,Left,1,63,91,606.25,0.239583,Sixteenth,D#4
3932,Right,0,79,91,606.25,0.239583,Sixteenth,G5
3934,Right,0,68,93,606.5,0.239583,Sixteenth,G#4
3935,Left,1,60,93,606.5,0.239583,Sixteenth,C4
3937,Right,0,80,94,606.75,0.239583,Sixteenth,G#5
3936,Left,1,63,94,606.75,0.239583,Sixteenth,D#4
3939,Right,0,68,95,607.0,0.239583,Sixteenth,G#4
3938,Left,1,59,95,607.0,0.239583,Sixteenth,B3
3941,Left,1,61,96,607.25,0.239583,Sixteenth,C#4
3940,Right,0,77,96,607.25,0.239583,Sixteenth,F5
3943,Right,0,68,98,607.5,0.239583,Sixteenth,G#4
3942,Left,1,59,98,607.5,0.239583,Sixteenth,B3
3945,Left,1,61,99,607.75,0.239583,Sixteenth,C#4
3944,Right,0,77,99,607.75,0.239583,Sixteenth,F5
3946,Left,1,59,100,608.0,0.239583,Sixteenth,B3
3947,Right,0,68,100,608.0,0.239583,Sixteenth,G#4
3949,Right,0,77,102,608.25,0.239583,Sixteenth,F5
3948,Left,1,61,102,608.25,0.239583,Sixteenth,C#4
3951,Left,1,58,103,608.5,0.239583,Sixteenth,A#3
3950,Right,0,66,103,608.5,0.239583,Sixteenth,F#4
3953,Right,0,78,104,608.75,0.239583,Sixteenth,F#5
3952,Left,1,61,104,608.75,0.239583,Sixteenth,C#4
3955,Left,1,59,106,609.0,0.239583,Sixteenth,B3
3954,Right,0,68,106,609.0,0.239583,Sixteenth,G#4
3956,Left,1,61,107,609.25,0.239583,Sixteenth,C#4
3957,Right,0,77,107,609.25,0.239583,Sixteenth,F5
3959,Right,0,66,108,609.5,0.239583,Sixteenth,F#4
3958,Left,1,58,108,609.5,0.239583,Sixteenth,A#3
3960,Right,0,78,109,609.75,0.239583,Sixteenth,F#5
3961,Left,1,61,109,609.75,0.239583,Sixteenth,C#4
3963,Right,0,68,110,610.0,0.239583,Sixteenth,G#4
3962,Left,1,59,110,610.0,0.239583,Sixteenth,B3
3964,Right,0,77,110,610.25,0.239583,Sixteenth,F5
3965,Left,1,61,110,610.25,0.239583,Sixteenth,C#4
3967,Left,1,58,110,610.5,0.239583,Sixteenth,A#3
3966,Right,0,66,110,610.5,0.239583,Sixteenth,F#4
3969,Right,0,78,110,610.75,0.239583,Sixteenth,F#5
3968,Left,1,61,110,610.75,0.239583,Sixteenth,C#4
3971,Right,0,66,110,611.0,0.239583,Sixteenth,F#4
3970,Left,1,58,110,611.0,0.239583,Sixteenth,A#3
3972,Right,0,75,110,611.25,0.239583,Sixteenth,D#5
3973,Left,1,59,110,611.25,0.239583,Sixteenth,B3
3975,Right,0,66,110,611.5,0.239583,Sixteenth,F#4
3974,Left,1,58,110,611.5,0.239583,Sixteenth,A#3
3976,Left,1,59,110,611.75,0.239583,Sixteenth,B3
3977,Right,0,75,110,611.75,0.239583,Sixteenth,D#5
3979,Left,1,58,110,612.0,0.239583,Sixteenth,A#3
3978,Right,0,66,110,612.0,0.239583,Sixteenth,F#4
3980,Left,1,59,110,612.25,0.239583,Sixteenth,B3
3981,Right,0,75,110,612.25,0.239583,Sixteenth,D#5
3983,Right,0,65,110,612.5,0.239583,Sixteenth,F4
3982,Left,1,56,110,612.5,0.239583,Sixteenth,G#3
3985,Right,0,77,110,612.75,0.239583,Sixteenth,F5
3984,Left,1,59,110,612.75,0.239583,Sixteenth,B3
3987,Right,0,65,110,613.0,0.239583,Sixteenth,F4
3986,Left,1,56,110,613.0,0.239583,Sixteenth,G#3
3988,Right,0,74,110,613.25,0.239583,Sixteenth,D5
3989,Left,1,58,110,613.25,0.239583,Sixteenth,A#3
3990,Left,1,54,110,613.5,0.239583,Sixteenth,F#3
3991,Right,0,63,110,613.5,0.239583,Sixteenth,D#4
3992,Right,0,75,110,613.75,0.239583,Sixteenth,D#5
3993,Left,1,58,110,613.75,0.239583,Sixteenth,A#3
3995,Right,0,63,110,614.0,0.239583,Sixteenth,D#4
3994,Left,1,54,110,614.0,0.239583,Sixteenth,F#3
3997,Right,0,72,110,614.25,0.239583,Sixteenth,C5
3996,Left,1,56,110,614.25,0.239583,Sixteenth,G#3
3998,Left,1,53,110,614.5,0.239583,Sixteenth,F3
3999,Right,0,61,110,614.5,0.239583,Sixteenth,C#4
4001,Right,0,73,110,614.75,0.239583,Sixteenth,C#5
4000,Left,1,56,110,614.75,0.239583,Sixteenth,G#3
4002,Left,1,53,110,615.0,0.239583,Sixteenth,F3
4003,Right,0,61,110,615.0,0.239583,Sixteenth,C#4
4005,Right,0,70,110,615.25,0.239583,Sixteenth,A#4
4004,Left,1,54,110,615.25,0.239583,Sixteenth,F#3
4006,Right,0,59,110,615.5,0.239583,Sixteenth,B3
4007,Left,1,51,110,615.5,0.239583,Sixteenth,D#3
4008,Right,0,71,110,615.75,0.239583,Sixteenth,B4
4009,Left,1,54,110,615.75,0.239583,Sixteenth,F#3
4011,Left,1,51,110,616.0,0.239583,Sixteenth,D#3
4010,Right,0,60,110,616.0,0.239583,Sixteenth,C4
4012,Right,0,69,110,616.25,0.239583,Sixteenth,A4
4013,Left,1,53,110,616.25,0.239583,Sixteenth,F3
4014,Right,0,58,110,616.5,0.239583,Sixteenth,A#3
4015,Left,1,49,110,616.5,0.239583,Sixteenth,C#3
4017,Right,0,70,110,616.75,0.239583,Sixteenth,A#4
4016,Left,1,53,110,616.75,0.239583,Sixteenth,F3
4018,Left,1,49,120,617.0,0.239583,Sixteenth,C#3
4019,Right,0,65,120,617.0,0.239583,Sixteenth,F4
4020,Right,0,70,120,617.25,0.239583,Sixteenth,A#4
4021,Left,1,53,120,617.25,0.239583,Sixteenth,F3
4022,Left,1,49,120,617.5,0.239583,Sixteenth,C#3
4023,Right,0,65,120,617.5,0.239583,Sixteenth,F4
4025,Right,0,70,120,617.75,0.239583,Sixteenth,A#4
4024,Left,1,53,120,617.75,0.239583,Sixteenth,F3
4026,Left,1,49,120,618.0,0.239583,Sixteenth,C#3
4027,Right,0,65,120,618.0,0.239583,Sixteenth,F4
4029,Left,1,53,120,618.25,0.239583,Sixteenth,F3
4028,Right,0,71,120,618.25,0.239583,Sixteenth,B4
4030,Left,1,49,120,618.5,0.239583,Sixteenth,C#3
4031,Right,0,65,120,618.5,0.239583,Sixteenth,F4
4032,Left,1,53,120,618.75,0.239583,Sixteenth,F3
4033,Right,0,71,120,618.75,0.239583,Sixteenth,B4
4034,Left,1,37,120,619.0,0.239583,Sixteenth,C#2
4035,Right,0,59,120,619.0,0.239583,Sixteenth,B3
4037,Left,1,49,120,619.25,0.239583,Sixteenth,C#3
4036,Right,0,65,120,619.25,0.239583,Sixteenth,F4
4038,Right,0,59,120,619.5,0.239583,Sixteenth,B3
4039,Left,1,37,120,619.5,0.239583,Sixteenth,C#2
4040,Left,1,49,120,619.75,0.239583,Sixteenth,C#3
4041,Right,0,65,120,619.75,0.239583,Sixteenth,F4
4042,Left,1,36,120,620.0,0.489583,Eighth,C3_C2
4044,Right,0,55,80,620.25,0.239583,Sixteenth,G3_E4_A#3
4047,Left,1,61,80,620.5,0.489583,Eighth,C#4
4048,Right,0,55,80,620.75,0.239583,Sixteenth,G3_E4_A#3
4051,Left,1,59,80,621.0,0.489583,Eighth,B3
4052,Right,0,64,80,621.25,0.239583,Sixteenth,G3_E4_A#3
4055,Left,1,60,80,621.5,0.489583,Eighth,C4
4056,Right,0,64,80,621.75,0.239583,Sixteenth,G3_E4_A#3
4059,Left,1,48,80,622.0,0.489583,Eighth,C3
4060,Right,0,65,80,622.25,0.239583,Sixteenth,F4_A3
4062,Left,1,61,80,622.5,0.489583,Eighth,C#4
4063,Right,0,57,80,622.75,0.239583,Sixteenth,F4_A3
4065,Left,1,59,80,623.0,0.489583,Eighth,B3
4066,Right,0,65,80,623.25,0.239583,Sixteenth,F4_A3
4068,Left,1,60,80,623.5,0.489583,Eighth,C4
4069,Right,0,65,80,623.75,0.239583,Sixteenth,F4_A3
4071,Left,1,48,80,624.0,0.489583,Eighth,C3
4072,Right,0,67,80,624.25,0.239583,Sixteenth,G4_E4_A#3
4075,Left,1,61,80,624.5,0.489583,Eighth,C#4
4076,Right,0,67,80,624.75,0.239583,Sixteenth,G4_E4_A#3
4079,Left,1,59,80,625.0,0.489583,Eighth,B3
4080,Right,0,58,80,625.25,0.239583,Sixteenth,G4_E4_A#3
4083,Left,1,60,80,625.5,0.489583,Eighth,C4
4084,Right,0,58,80,625.75,0.239583,Sixteenth,G4_E4_A#3
4087,Left,1,48,80,626.0,0.489583,Eighth,C3
4088,Right,0,56,80,626.25,0.239583,Sixteenth,G#3_F4
4090,Left,1,61,80,626.5,0.489583,Eighth,C#4
4091,Right,0,56,80,626.75,0.239583,Sixteenth,G#3_F4
4093,Left,1,59,80,627.0,0.489583,Eighth,B3
4094,Right,0,65,80,627.25,0.239583,Sixteenth,G#3_F4
4096,Left,1,60,80,627.5,0.489583,Eighth,C4
4097,Right,0,65,80,627.75,0.239583,Sixteenth,G#3_F4
4099,Left,1,52,80,628.0,0.489583,Eighth,E3
4100,Right,0,58,80,628.25,0.239583,Sixteenth,G3_E4_A#3
4103,Left,1,62,80,628.5,0.489583,Eighth,D4
4104,Right,0,55,80,628.75,0.239583,Sixteenth,G3_E4
4106,Left,1,59,80,629.0,0.239583,Sixteenth,B3
4107,Right,0,55,80,629.25,0.239583,Sixteenth,G3_E4
4109,Left,1,62,80,629.5,0.489583,Eighth,D4
4110,Right,0,55,80,629.75,0.239583,Sixteenth,G3_E4
4112,Left,1,59,80,630.0,0.239583,Sixteenth,B3
4113,Right,0,55,80,630.25,0.239583,Sixteenth,G3_E4
4115,Left,1,62,80,630.5,0.489583,Eighth,D4
4116,Right,0,55,80,630.75,0.239583,Sixteenth,G3_E4
4118,Left,1,59,80,631.0,0.239583,Sixteenth,B3
4119,Right,0,64,80,631.25,0.239583,Sixteenth,G3_E4
4121,Left,1,62,80,631.5,0.489583,Eighth,D4
4122,Right,0,64,80,631.75,0.239583,Sixteenth,G3_E4
4124,Left,1,59,80,632.0,0.239583,Sixteenth,B3
4125,Right,0,55,80,632.25,0.239583,Sixteenth,G3_E4
4127,Left,1,60,80,632.5,0.489583,Eighth,C4
4128,Right,0,64,80,632.75,0.239583,Sixteenth,G3_E4
4130,Left,1,59,80,633.0,0.239583,Sixteenth,B3
4131,Right,0,55,80,633.25,0.239583,Sixteenth,G3_E4
4133,Left,1,60,80,633.5,0.489583,Eighth,C4
4134,Right,0,55,80,633.75,0.239583,Sixteenth,G3_E4
4136,Left,1,59,80,634.0,0.239583,Sixteenth,B3
4137,Right,0,64,80,634.25,0.239583,Sixteenth,G3_E4
4139,Left,1,60,80,634.5,0.489583,Eighth,C4
4140,Right,0,64,80,634.75,0.239583,Sixteenth,G3_E4
4142,Left,1,59,80,635.0,0.239583,Sixteenth,B3
4143,Right,0,64,80,635.25,0.239583,Sixteenth,G3_E4
4145,Left,1,60,80,635.5,0.489583,Eighth,C4
4146,Right,0,64,80,635.75,0.239583,Sixteenth,G3_E4
4148,Right,0,55,80,636.0,0.489583,Eighth,G3_E4
4150,Left,1,58,80,636.0,0.239583,Sixteenth,A#3
4151,Left,1,60,80,636.125,0.197917,TripletSixteenth,C4
4152,Left,1,58,80,636.25,0.208333,Sixteenth,A#3
4153,Left,1,60,80,636.375,0.21875,Sixteenth,C4
4155,Left,1,58,80,636.5,0.239583,Sixteenth,A#3
4154,Right,0,55,80,636.5,0.489583,Eighth,G3_E4
4157,Left,1,60,80,636.625,0.197917,TripletSixteenth,C4
4158,Left,1,58,80,636.75,0.208333,Sixteenth,A#3
4159,Left,1,60,80,636.875,0.21875,Sixteenth,C4
4160,Left,1,58,80,637.0,0.239583,Sixteenth,A#3
4161,Right,0,55,80,637.0,0.489583,Eighth,G3_E4
4163,Left,1,60,80,637.125,0.197917,TripletSixteenth,C4
4164,Left,1,58,80,637.25,0.208333,Sixteenth,A#3
4165,Left,1,60,80,637.375,0.21875,Sixteenth,C4
4168,Left,1,58,80,637.5,0.239583,Sixteenth,A#3
4166,Right,0,55,80,637.5,0.489583,Eighth,G3_E4
4169,Left,1,60,80,637.625,0.197917,TripletSixteenth,C4
4170,Left,1,58,80,637.75,0.208333,Sixteenth,A#3
4171,Left,1,60,80,637.875,0.21875,Sixteenth,C4
4172,Left,1,58,80,638.0,0.239583,Sixteenth,A#3
4173,Right,0,55,80,638.0,0.489583,Eighth,G3_E4
4175,Left,1,60,80,638.125,0.197917,TripletSixteenth,C4
4176,Left,1,58,80,638.25,0.208333,Sixteenth,A#3
4177,Left,1,60,80,638.375,0.21875,Sixteenth,C4
4178,Left,1,58,80,638.5,0.239583,Sixteenth,A#3
4179,Right,0,55,80,638.5,0.489583,Eighth,G3_E4
4181,Left,1,60,80,638.625,0.197917,TripletSixteenth,C4
4182,Left,1,58,80,638.75,0.208333,Sixteenth,A#3
4183,Left,1,60,80,638.875,0.21875,Sixteenth,C4
4185,Left,1,58,80,639.0,0.239583,Sixteenth,A#3
4184,Right,0,55,80,639.0,0.489583,Eighth,G3_E4
4187,Left,1,60,80,639.125,0.197917,TripletSixteenth,C4
4188,Left,1,58,80,639.25,0.208333,Sixteenth,A#3
4189,Left,1,60,80,639.375,0.21875,Sixteenth,C4
4191,Left,1,58,80,639.5,0.239583,Sixteenth,A#3
4190,Right,0,55,80,639.5,0.489583,Eighth,G3_E4
4193,Left,1,60,80,639.625,0.197917,TripletSixteenth,C4
4194,Left,1,57,80,639.75,0.208333,Sixteenth,A3
4195,Left,1,58,80,639.875,0.114583,ThirtySecond,A#3
4196,Left,1,29,110,640.0,0.239583,Sixteenth,F1
4197,Right,0,53,110,640.0,0.239583,Sixteenth,F3
4199,Right,0,57,110,640.25,0.239583,Sixteenth,A3
4198,Left,1,41,110,640.25,0.239583,Sixteenth,F2
4201,Right,0,60,110,640.5,0.239583,Sixteenth,C4
4200,Left,1,29,110,640.5,0.239583,Sixteenth,F1
4202,Right,0,65,110,640.75,0.239583,Sixteenth,F4
4203,Left,1,41,110,640.75,0.239583,Sixteenth,F2
4205,Right,0,52,110,641.0,0.239583,Sixteenth,G3_E3
4204,Left,1,29,110,641.0,0.239583,Sixteenth,F1
4208,Right,0,64,110,641.25,0.239583,Sixteenth,E4
4207,Left,1,41,110,641.25,0.239583,Sixteenth,F2
4209,Right,0,53,110,641.5,0.239583,Sixteenth,F3_A3
4211,Left,1,29,110,641.5,0.239583,Sixteenth,F1
4212,Right,0,65,110,641.75,0.239583,Sixteenth,F4
4213,Left,1,41,110,641.75,0.239583,Sixteenth,F2
4215,Left,1,29,110,642.0,0.239583,Sixteenth,F1
4214,Right,0,58,110,642.0,0.239583,Sixteenth,G3_A#3
4218,Left,1,41,110,642.25,0.239583,Sixteenth,F2
4217,Right,0,67,110,642.25,0.239583,Sixteenth,G4
4221,Left,1,29,110,642.5,0.239583,Sixteenth,F1
4219,Right,0,57,110,642.5,0.239583,Sixteenth,C4_A3
4223,Right,0,69,110,642.75,0.239583,Sixteenth,A4
4222,Left,1,41,110,642.75,0.239583,Sixteenth,F2
4224,Right,0,58,110,643.0,0.239583,Sixteenth,D4_A#3
4225,Left,1,29,110,643.0,0.239583,Sixteenth,F1
4228,Right,0,70,110,643.25,0.239583,Sixteenth,A#4
4227,Left,1,41,110,643.25,0.239583,Sixteenth,F2
4229,Left,1,29,110,643.5,0.239583,Sixteenth,F1
4230,Right,0,60,110,643.5,0.239583,Sixteenth,E4_C4
4232,Left,1,41,110,643.75,0.239583,Sixteenth,F2
4233,Right,0,72,110,643.75,0.239583,Sixteenth,C5
4235,Left,1,29,110,644.0,0.239583,Sixteenth,F1
4234,Right,0,65,110,644.0,0.239583,Sixteenth,F4
4236,Left,1,41,110,644.25,0.239583,Sixteenth,F2
4237,Right,0,69,110,644.25,0.239583,Sixteenth,A4
4239,Right,0,72,110,644.5,0.239583,Sixteenth,C5
4238,Left,1,29,110,644.5,0.239583,Sixteenth,F1
4241,Right,0,77,110,644.75,0.239583,Sixteenth,F5
4240,Left,1,41,110,644.75,0.239583,Sixteenth,F2
4242,Right,0,67,110,645.0,0.239583,Sixteenth,G4_E4
4244,Left,1,29,110,645.0,0.239583,Sixteenth,F1
4245,Left,1,41,110,645.25,0.239583,Sixteenth,F2
4246,Right,0,76,110,645.25,0.239583,Sixteenth,E5
4248,Right,0,69,110,645.5,0.239583,Sixteenth,F4_A4
4247,Left,1,29,110,645.5,0.239583,Sixteenth,F1
4251,Right,0,77,110,645.75,0.239583,Sixteenth,F5
4250,Left,1,41,110,645.75,0.239583,Sixteenth,F2
4252,Right,0,67,110,646.0,0.239583,Sixteenth,G4_A#4
4253,Left,1,29,110,646.0,0.239583,Sixteenth,F1
4256,Right,0,79,110,646.25,0.239583,Sixteenth,G5
4255,Left,1,41,110,646.25,0.239583,Sixteenth,F2
4258,Right,0,72,110,646.5,0.239583,Sixteenth,C5_A4
4257,Left,1,29,110,646.5,0.239583,Sixteenth,F1
4260,Right,0,81,110,646.75,0.239583,Sixteenth,A5
4261,Left,1,41,110,646.75,0.239583,Sixteenth,F2
4263,Left,1,29,110,647.0,0.239583,Sixteenth,F1
4262,Right,0,74,110,647.0,0.239583,Sixteenth,D5_A#4
4265,Right,0,82,110,647.25,0.239583,Sixteenth,A#5
4266,Left,1,41,110,647.25,0.239583,Sixteenth,F2
4267,Right,0,72,110,647.5,0.239583,Sixteenth,E5_C5
4269,Left,1,29,110,647.5,0.239583,Sixteenth,F1
4271,Left,1,41,110,647.75,0.239583,Sixteenth,F2
4270,Right,0,84,110,647.75,0.239583,Sixteenth,C6
4272,Left,1,29,110,648.0,0.239583,Sixteenth,F1
4273,Right,0,77,110,648.0,0.239583,Sixteenth,F5
4275,Right,0,81,110,648.25,0.239583,Sixteenth,A5
4274,Left,1,41,110,648.25,0.239583,Sixteenth,F2
4277,Right,0,84,110,648.5,0.239583,Sixteenth,C6
4276,Left,1,29,110,648.5,0.239583,Sixteenth,F1
4279,Right,0,89,110,648.75,0.239583,Sixteenth,F6
4278,Left,1,41,110,648.75,0.239583,Sixteenth,F2
4281,Right,0,76,110,649.0,0.239583,Sixteenth,E5
4280,Left,1,31,110,649.0,0.239583,Sixteenth,G1
4282,Left,1,43,110,649.25,0.239583,Sixteenth,G2
4283,Right,0,88,110,649.25,0.239583,Sixteenth,E6
4285,Right,0,77,110,649.5,0.239583,Sixteenth,F5
4284,Left,1,33,110,649.5,0.239583,Sixteenth,A1
4287,Right,0,89,110,649.75,0.239583,Sixteenth,F6
4286,Left,1,45,110,649.75,0.239583,Sixteenth,A2
4289,Right,0,73,110,650.0,0.239583,Sixteenth,C#5
4288,Left,1,33,110,650.0,0.239583,Sixteenth,A1
4291,Right,0,85,110,650.25,0.239583,Sixteenth,C#6
4290,Left,1,45,110,650.25,0.239583,Sixteenth,A2
4292,Right,0,74,110,650.5,0.239583,Sixteenth,D5
4293,Left,1,34,110,650.5,0.239583,Sixteenth,A#1
4295,Left,1,46,110,650.75,0.239583,Sixteenth,A#2
4294,Right,0,86,110,650.75,0.239583,Sixteenth,D6
4296,Right,0,69,110,651.0,0.239583,Sixteenth,A4
4297,Left,1,37,110,651.0,0.239583,Sixteenth,C#2
4298,Right,0,81,110,651.25,0.239583,Sixteenth,A5
4299,Left,1,49,110,651.25,0.239583,Sixteenth,C#3
4301,Left,1,38,110,651.5,0.239583,Sixteenth,D2
4300,Right,0,70,110,651.5,0.239583,Sixteenth,A#4
4303,Left,1,50,110,651.75,0.239583,Sixteenth,D3
4302,Right,0,82,110,651.75,0.239583,Sixteenth,A#5
4305,Right,0,66,110,652.0,0.239583,Sixteenth,F#4
4304,Left,1,39,110,652.0,0.239583,Sixteenth,D#2
4306,Left,1,51,110,652.25,0.239583,Sixteenth,D#3
4307,Right,0,78,110,652.25,0.239583,Sixteenth,F#5
4308,Left,1,40,110,652.5,0.239583,Sixteenth,E2
4309,Right,0,67,110,652.5,0.239583,Sixteenth,G4
4311,Left,1,52,110,652.75,0.239583,Sixteenth,E3
4310,Right,0,79,110,652.75,0.239583,Sixteenth,G5
4313,Left,1,42,110,653.0,0.239583,Sixteenth,F#2
4312,Right,0,63,110,653.0,0.239583,Sixteenth,D#4
4314,Right,0,75,110,653.25,0.239583,Sixteenth,D#5
4315,Left,1,54,110,653.25,0.239583,Sixteenth,F#3
4317,Left,1,43,110,653.5,0.239583,Sixteenth,G2
4316,Right,0,64,110,653.5,0.239583,Sixteenth,E4
4318,Right,0,76,110,653.75,0.239583,Sixteenth,E5
4319,Left,1,55,110,653.75,0.239583,Sixteenth,G3
4320,Left,1,45,110,654.0,0.489583,Eighth,A3_A2
4321,Right,0,64,110,654.0,0.239583,Sixteenth,G4_E4
4324,Right,0,73,110,654.25,0.239583,Sixteenth,C#5
4325,Left,1,46,110,654.5,0.489583,Eighth,A#3_A#2
4327,Right,0,62,110,654.5,0.239583,Sixteenth,F4_D4
4329,Right,0,74,110,654.75,0.239583,Sixteenth,D5
4332,Left,1,60,110,655.0,0.489583,Eighth,C4_C3
4330,Right,0,65,110,655.0,0.239583,Sixteenth,F4_A4
4334,Right,0,72,110,655.25,0.239583,Sixteenth,C5
4337,Left,1,36,110,655.5,0.489583,Eighth,C2
4335,Right,0,58,110,655.5,0.239583,Sixteenth,G3_A#3
4338,Right,0,64,110,655.75,0.239583,Sixteenth,E4
4339,Right,0,53,110,656.0,0.239583,Sixteenth,F3
4340,Left,1,29,110,656.0,0.239583,Sixteenth,F1
4341,Left,1,41,110,656.25,0.239583,Sixteenth,F2
4342,Right,0,57,110,656.25,0.239583,Sixteenth,A3
4344,Right,0,60,110,656.5,0.239583,Sixteenth,C4
4343,Left,1,29,110,656.5,0.239583,Sixteenth,F1
4346,Right,0,65,110,656.75,0.239583,Sixteenth,F4
4345,Left,1,41,110,656.75,0.239583,Sixteenth,F2
4347,Right,0,55,110,657.0,0.239583,Sixteenth,G3_E3
4348,Left,1,29,110,657.0,0.239583,Sixteenth,F1
4351,Right,0,64,110,657.25,0.239583,Sixteenth,E4
4350,Left,1,41,110,657.25,0.239583,Sixteenth,F2
4352,Right,0,57,110,657.5,0.239583,Sixteenth,F3_A3
4354,Left,1,29,110,657.5,0.239583,Sixteenth,F1
4356,Right,0,65,110,657.75,0.239583,Sixteenth,F4
4355,Left,1,41,110,657.75,0.239583,Sixteenth,F2
4359,Left,1,29,110,658.0,0.239583,Sixteenth,F1
4357,Right,0,58,110,658.0,0.239583,Sixteenth,G3_A#3
4361,Right,0,67,110,658.25,0.239583,Sixteenth,G4
4360,Left,1,41,110,658.25,0.239583,Sixteenth,F2
4364,Left,1,29,110,658.5,0.239583,Sixteenth,F1
4362,Right,0,60,110,658.5,0.239583,Sixteenth,C4_A3
4365,Right,0,69,110,658.75,0.239583,Sixteenth,A4
4366,Left,1,41,110,658.75,0.239583,Sixteenth,F2
4368,Right,0,58,110,659.0,0.239583,Sixteenth,D4_A#3
4367,Left,1,29,110,659.0,0.239583,Sixteenth,F1
4370,Right,0,70,110,659.25,0.239583,Sixteenth,A#4
4371,Left,1,41,110,659.25,0.239583,Sixteenth,F2
4372,Right,0,60,110,659.5,0.239583,Sixteenth,E4_C4
4374,Left,1,29,110,659.5,0.239583,Sixteenth,F1
4375,Left,1,41,110,659.75,0.239583,Sixteenth,F2
4376,Right,0,72,110,659.75,0.239583,Sixteenth,C5
4377,Left,1,29,110,660.0,0.239583,Sixteenth,F1
4378,Right,0,65,110,660.0,0.239583,Sixteenth,F4
4380,Right,0,69,110,660.25,0.239583,Sixteenth,A4
4379,Left,1,41,110,660.25,0.239583,Sixteenth,F2
4382,Left,1,29,110,660.5,0.239583,Sixteenth,F1
4381,Right,0,72,110,660.5,0.239583,Sixteenth,C5
4384,Right,0,77,110,660.75,0.239583,Sixteenth,F5
4383,Left,1,41,110,660.75,0.239583,Sixteenth,F2
4386,Left,1,29,110,661.0,0.239583,Sixteenth,F1
4385,Right,0,64,110,661.0,0.239583,Sixteenth,G4_E4
4388,Left,1,41,110,661.25,0.239583,Sixteenth,F2
4389,Right,0,76,110,661.25,0.239583,Sixteenth,E5
4391,Left,1,29,110,661.5,0.239583,Sixteenth,F1
4390,Right,0,69,110,661.5,0.239583,Sixteenth,F4_A4
4394,Left,1,41,110,661.75,0.239583,Sixteenth,F2
4393,Right,0,77,110,661.75,0.239583,Sixteenth,F5
4395,Right,0,67,110,662.0,0.239583,Sixteenth,G4_A#4
4397,Left,1,29,110,662.0,0.239583,Sixteenth,F1
4399,Left,1,41,110,662.25,0.239583,Sixteenth,F2
4398,Right,0,79,110,662.25,0.239583,Sixteenth,G5
4401,Left,1,29,110,662.5,0.239583,Sixteenth,F1
4400,Right,0,69,110,662.5,0.239583,Sixteenth,C5_A4
4404,Right,0,81,110,662.75,0.239583,Sixteenth,A5
4403,Left,1,41,110,662.75,0.239583,Sixteenth,F2
4406,Left,1,29,110,663.0,0.239583,Sixteenth,F1
4405,Right,0,70,110,663.0,0.239583,Sixteenth,D5_A#4
4408,Left,1,41,110,663.25,0.239583,Sixteenth,F2
4409,Right,0,82,110,663.25,0.239583,Sixteenth,A#5
4411,Left,1,29,110,663.5,0.239583,Sixteenth,F1
4410,Right,0,72,110,663.5,0.239583,Sixteenth,E5_C5
4414,Right,0,84,110,663.75,0.239583,Sixteenth,C6
4413,Left,1,41,110,663.75,0.239583,Sixteenth,F2
4416,Right,0,77,110,664.0,0.239583,Sixteenth,F5
4415,Left,1,29,110,664.0,0.239583,Sixteenth,F1
4418,Right,0,81,110,664.25,0.239583,Sixteenth,A5
4417,Left,1,41,110,664.25,0.239583,Sixteenth,F2
4420,Right,0,84,110,664.5,0.239583,Sixteenth,C6
4419,Left,1,29,110,664.5,0.239583,Sixteenth,F1
4422,Right,0,89,110,664.75,0.239583,Sixteenth,F6
4421,Left,1,41,110,664.75,0.239583,Sixteenth,F2
4423,Right,0,76,110,665.0,0.239583,Sixteenth,E5
4424,Left,1,31,110,665.0,0.239583,Sixteenth,G1
4425,Right,0,88,110,665.25,0.239583,Sixteenth,E6
4426,Left,1,43,110,665.25,0.239583,Sixteenth,G2
4427,Right,0,77,110,665.5,0.239583,Sixteenth,F5
4428,Left,1,33,110,665.5,0.239583,Sixteenth,A1
4429,Right,0,89,110,665.75,0.239583,Sixteenth,F6
4430,Left,1,45,110,665.75,0.239583,Sixteenth,A2
4431,Left,1,33,110,666.0,0.239583,Sixteenth,A1
4432,Right,0,73,110,666.0,0.239583,Sixteenth,C#5
4434,Left,1,45,110,666.25,0.239583,Sixteenth,A2
4433,Right,0,85,110,666.25,0.239583,Sixteenth,C#6
4436,Left,1,34,110,666.5,0.239583,Sixteenth,A#1
4435,Right,0,74,110,666.5,0.239583,Sixteenth,D5
4437,Right,0,86,110,666.75,0.239583,Sixteenth,D6
4438,Left,1,46,110,666.75,0.239583,Sixteenth,A#2
4440,Right,0,69,110,667.0,0.239583,Sixteenth,A4
4439,Left,1,37,110,667.0,0.239583,Sixteenth,C#2
4442,Right,0,81,110,667.25,0.239583,Sixteenth,A5
4441,Left,1,49,110,667.25,0.239583,Sixteenth,C#3
4444,Right,0,70,110,667.5,0.239583,Sixteenth,A#4
4443,Left,1,38,110,667.5,0.239583,Sixteenth,D2
4446,Right,0,82,110,667.75,0.239583,Sixteenth,A#5
4445,Left,1,50,110,667.75,0.239583,Sixteenth,D3
4448,Right,0,66,110,668.0,0.239583,Sixteenth,F#4
4447,Left,1,39,110,668.0,0.239583,Sixteenth,D#2
4449,Right,0,78,110,668.25,0.239583,Sixteenth,F#5
4450,Left,1,51,110,668.25,0.239583,Sixteenth,D#3
4452,Left,1,40,110,668.5,0.239583,Sixteenth,E2
4451,Right,0,67,110,668.5,0.239583,Sixteenth,G4
4454,Left,1,52,110,668.75,0.239583,Sixteenth,E3
4453,Right,0,79,110,668.75,0.239583,Sixteenth,G5
4456,Left,1,42,110,669.0,0.239583,Sixteenth,F#2
4455,Right,0,63,110,669.0,0.239583,Sixteenth,D#4
4458,Left,1,54,110,669.25,0.239583,Sixteenth,F#3
4457,Right,0,75,110,669.25,0.239583,Sixteenth,D#5
4460,Left,1,43,110,669.5,0.239583,Sixteenth,G2
4459,Right,0,64,110,669.5,0.239583,Sixteenth,E4
4461,Right,0,76,110,669.75,0.239583,Sixteenth,E5
4462,Left,1,55,110,669.75,0.239583,Sixteenth,G3
4463,Right,0,64,110,670.0,0.239583,Sixteenth,G4_E4
4465,Left,1,57,110,670.0,0.489583,Eighth,A3_A2
4467,Right,0,73,110,670.25,0.239583,Sixteenth,C#5
4468,Right,0,62,110,670.5,0.239583,Sixteenth,F4_D4
4470,Left,1,58,110,670.5,0.489583,Eighth,A#3_A#2
4472,Right,0,74,110,670.75,0.239583,Sixteenth,D5
4474,Left,1,60,110,671.0,0.489583,Eighth,C4_C3
4473,Right,0,69,110,671.0,0.239583,Sixteenth,F4_A4
4477,Right,0,72,110,671.25,0.239583,Sixteenth,C5
4478,Right,0,64,110,671.5,0.239583,Sixteenth,G4_E4
4480,Left,1,48,110,671.5,0.489583,Eighth,C3_C2
4482,Right,0,72,110,671.75,0.239583,Sixteenth,C5
4483,Left,1,45,110,672.0,0.489583,Eighth,A3_A2
4484,Right,0,64,110,672.0,0.239583,Sixteenth,G4_E4
4487,Right,0,73,110,672.25,0.239583,Sixteenth,C#5
4490,Left,1,46,110,672.5,0.489583,Eighth,A#3_A#2
4488,Right,0,62,110,672.5,0.239583,Sixteenth,F4_D4
4492,Right,0,74,110,672.75,0.239583,Sixteenth,D5
4495,Right,0,69,110,673.0,0.239583,Sixteenth,F4_A4
4493,Left,1,60,110,673.0,0.489583,Eighth,C4_C3
4497,Right,0,72,110,673.25,0.239583,Sixteenth,C5
4498,Left,1,36,110,673.5,0.489583,Eighth,C3_C2
4499,Right,0,67,110,673.5,0.239583,Sixteenth,G4_E4
4502,Right,0,72,110,673.75,0.239583,Sixteenth,C5
4505,Left,1,57,110,674.0,0.489583,Eighth,A3_A2
4503,Right,0,67,110,674.0,0.239583,Sixteenth,G4_E4
4507,Right,0,73,110,674.25,0.239583,Sixteenth,C#5
4510,Left,1,46,110,674.5,0.489583,Eighth,A#3_A#2
4508,Right,0,62,110,674.5,0.239583,Sixteenth,F4_D4
4512,Right,0,74,110,674.75,0.239583,Sixteenth,D5
4513,Right,0,65,110,675.0,0.239583,Sixteenth,F4_A4
4514,Left,1,48,110,675.0,0.489583,Eighth,C4_C3
4517,Right,0,72,110,675.25,0.239583,Sixteenth,C5
4519,Left,1,36,110,675.5,0.489583,Eighth,C3_C2
4518,Right,0,67,110,675.5,0.239583,Sixteenth,G4_E4
4522,Right,0,72,110,675.75,0.239583,Sixteenth,C5
4523,Right,0,65,110,676.0,0.489583,Eighth,F4_A4
4524,Left,1,41,110,676.0,0.447917,Eighth,F2
4526,Left,1,45,110,676.25,0.489583,Eighth,A2
4527,Left,1,50,110,676.5,0.4375,Eighth,D3
4528,Left,1,53,110,676.75,0.458333,Eighth,F3
4529,Right,0,60,110,677.0,0.489583,Eighth,C5_C4
4530,Left,1,44,110,677.0,0.46875,Eighth,G#2
4532,Left,1,52,110,677.25,0.46875,Eighth,E3
4533,Right,0,60,110,677.5,1.489583,DottedQuarter,C5_C4
4535,Left,1,45,110,677.5,0.46875,Eighth,A2
4536,Left,1,53,110,677.75,0.239583,Sixteenth,F3
4537,Left,1,41,110,678.0,0.447917,Eighth,F2
4538,Left,1,45,110,678.25,0.489583,Eighth,A2
4539,Left,1,50,110,678.5,0.4375,Eighth,D3
4540,Left,1,53,110,678.75,0.458333,Eighth,F3
4543,Left,1,44,110,679.0,0.46875,Eighth,G#2
4541,Right,0,72,110,679.0,0.489583,Eighth,C5_C4
4544,Left,1,52,110,679.25,0.46875,Eighth,E3
4545,Left,1,45,110,679.5,0.46875,Eighth,A2
4546,Left,1,53,110,679.75,0.239583,Sixteenth,F3
4547,Left,1,41,110,680.0,0.447917,Eighth,F2
4548,Left,1,45,110,680.25,0.489583,Eighth,A2
4550,Right,0,60,110,680.5,0.489583,Eighth,C5_C4
4549,Left,1,50,110,680.5,0.4375,Eighth,D3
4552,Left,1,53,110,680.75,0.458333,Eighth,F3
4553,Left,1,44,110,681.0,0.46875,Eighth,G#2
4554,Left,1,52,110,681.25,0.46875,Eighth,E3
4557,Left,1,45,110,681.5,0.46875,Eighth,A2
4555,Right,0,60,110,681.5,0.989583,Quarter,C5_C4
4558,Left,1,53,110,681.75,0.239583,Sixteenth,F3
4559,Left,1,44,110,682.0,0.46875,Eighth,G#2
4560,Left,1,52,110,682.25,0.46875,Eighth,E3
4561,Right,0,60,110,682.5,0.989583,Quarter,C5_C4
4563,Left,1,45,110,682.5,0.46875,Eighth,A2
4564,Left,1,53,110,682.75,0.239583,Sixteenth,F3
4565,Left,1,44,110,683.0,0.46875,Eighth,G#2
4566,Left,1,52,110,683.25,0.46875,Eighth,E3
4567,Left,1,45,110,683.5,0.46875,Eighth,A2
4568,Right,0,72,110,683.5,0.489583,Eighth,C5_C4
4570,Left,1,53,110,683.75,0.239583,Sixteenth,F3
4573,Right,0,65,110,684.0,0.239583,Sixteenth,F4
4571,Left,1,48,110,684.0,0.489583,Eighth,F2_C3
4574,Right,0,69,110,684.25,0.239583,Sixteenth,A4
4575,Right,0,72,110,684.5,0.239583,Sixteenth,C5
4576,Right,0,77,110,684.75,0.239583,Sixteenth,F5
4578,Left,1,41,110,685.0,0.489583,Eighth,F2_C3
4577,Right,0,68,110,685.0,0.239583,Sixteenth,G#4
4580,Right,0,76,110,685.25,0.239583,Sixteenth,E5
4582,Left,1,41,110,685.5,1.489583,DottedQuarter,F2_C3
4581,Right,0,69,110,685.5,0.239583,Sixteenth,A4
4584,Right,0,77,110,685.75,0.239583,Sixteenth,F5
4585,Right,0,69,110,686.0,0.239583,Sixteenth,A4
4586,Right,0,72,110,686.25,0.239583,Sixteenth,C5
4587,Right,0,77,110,686.5,0.239583,Sixteenth,F5
4588,Right,0,81,110,686.75,0.239583,Sixteenth,A5
4589,Right,0,71,110,687.0,0.239583,Sixteenth,B4
4590,Left,1,41,110,687.0,0.489583,Eighth,F2_C3
4592,Right,0,80,110,687.25,0.239583,Sixteenth,G#5
4593,Right,0,72,110,687.5,0.239583,Sixteenth,C5
4594,Left,1,48,110,687.5,1.489583,DottedQuarter,F2_C3
4596,Right,0,81,110,687.75,0.239583,Sixteenth,A5
4597,Right,0,72,110,688.0,0.239583,Sixteenth,C5
4598,Right,0,77,110,688.25,0.239583,Sixteenth,F5
4599,Right,0,81,110,688.5,0.239583,Sixteenth,A5
4600,Right,0,84,110,688.75,0.239583,Sixteenth,C6
4601,Right,0,80,120,689.0,0.239583,Sixteenth,G#5
4602,Left,1,48,120,689.0,0.489583,Eighth,F2_C3
4604,Right,0,83,120,689.25,0.239583,Sixteenth,B5
4606,Left,1,48,120,689.5,0.989583,Quarter,F2_C3
4605,Right,0,81,120,689.5,0.239583,Sixteenth,A5
4608,Right,0,84,120,689.75,0.239583,Sixteenth,C6
4609,Right,0,80,120,690.0,0.239583,Sixteenth,G#5
4610,Right,0,83,120,690.25,0.239583,Sixteenth,B5
4611,Left,1,48,120,690.5,0.989583,Quarter,F2_C3
4612,Right,0,81,120,690.5,0.239583,Sixteenth,A5
4614,Right,0,84,120,690.75,0.239583,Sixteenth,C6
4615,Right,0,80,120,691.0,0.239583,Sixteenth,G#5
4616,Right,0,83,120,691.25,0.239583,Sixteenth,B5
4619,Right,0,81,120,691.5,0.239583,Sixteenth,A5
4617,Left,1,41,120,691.5,0.989583,Quarter,F2_C3
4620,Right,0,84,120,691.75,0.239583,Sixteenth,C6
4621,Right,0,81,120,692.0,0.489583,Eighth,F5_A5
4625,Left,1,41,120,693.0,0.989583,Quarter,F2_F1
4623,Right,0,53,120,693.0,0.989583,Quarter,F3_A3
4627,Right,0,53,1,695.5,0.489583,Eighth,F3
