,hand,channel,note,velocity,start_beat,duration,note_value,chord
1,Left,1,51,80,0.0,0.979167,Eighth,D#3
0,Right,0,63,80,0.0,0.979167,Eighth,D#4
4,Left,1,44,80,1.0,2.979167,DottedQuarter,G#2_D#3
2,Right,0,60,80,1.0,2.979167,DottedQuarter,D#4_C4
7,Left,1,56,80,2.0,0.979167,Eighth,G#3
6,Right,0,68,80,2.0,0.979167,Eighth,G#4
9,Left,1,56,80,3.0,0.979167,Eighth,G#3
8,Right,0,68,80,3.0,0.979167,Eighth,G#4
10,Left,1,56,80,4.0,2.979167,Sixteenth,G#3_A#2
11,Right,0,61,80,4.0,2.979167,DottedQuarter,G#4_C#4
14,Left,1,55,80,4.5,0.479167,Sixteenth,G3
15,Right,0,67,80,4.5,0.479167,Sixteenth,G4
16,Left,1,55,80,5.0,0.729167,DottedSixteenth,G3
17,Right,0,67,80,5.0,0.729167,DottedSixteenth,G4
18,Left,1,53,80,5.75,0.229167,ThirtySecond,F3
19,Right,0,65,80,5.75,0.229167,ThirtySecond,F4
20,Left,1,55,80,6.0,0.729167,DottedSixteenth,G3
21,Right,0,67,80,6.0,0.729167,DottedSixteenth,G4
23,Right,0,63,80,6.75,0.229167,ThirtySecond,D#4
22,Left,1,51,80,6.75,0.229167,ThirtySecond,D#3
24,Left,1,56,80,7.0,1.979167,Quarter,G#3
25,Right,0,68,80,7.0,1.979167,Quarter,G#4
26,Right,0,63,80,8.0,0.979167,Eighth,D#4
27,Left,1,48,80,8.0,0.979167,Eighth,C3
28,Right,0,58,90,9.0,0.979167,Eighth,D#4_A#4_A#3
31,Left,1,43,90,9.0,0.979167,Eighth,G2_D#3
33,Right,0,63,99,10.0,0.979167,Eighth,G#4_D#4_C4_C#5
36,Left,1,44,99,10.0,0.979167,Eighth,G#2_D#3
39,Right,0,72,80,10.75,0.229167,ThirtySecond,C5
40,Right,0,63,80,11.0,0.979167,Eighth,G4_D#4_A#4_A#3
42,Left,1,51,80,11.0,0.979167,Eighth,D#3_D#2
46,Right,0,72,80,12.0,0.083333,TripletSixtyFourth,C5
47,Right,0,70,80,12.09375,0.135417,SixtyFourth,A#4
48,Right,0,69,80,12.25,0.229167,ThirtySecond,A4
49,Right,0,70,80,12.5,0.229167,ThirtySecond,A#4
50,Right,0,72,80,12.75,0.229167,ThirtySecond,C5
52,Right,0,68,80,13.0,1.979167,Quarter,G#4_C#5
51,Left,1,53,80,13.0,0.979167,Eighth,F3
54,Left,1,65,80,14.0,0.979167,Eighth,F4
56,Right,0,68,80,15.0,0.979167,Eighth,G#4_C5
55,Left,1,63,80,15.0,0.979167,Eighth,D#4
61,Left,1,62,80,16.0,0.979167,Eighth,D4
58,Right,0,70,80,16.0,0.979167,Eighth,G#4_F5_A#4
62,Left,1,61,80,17.0,0.979167,Eighth,C#4
63,Right,0,67,80,17.0,0.979167,Eighth,G4_A#4
65,Right,0,68,80,18.0,0.979167,Eighth,G#4_D#5
67,Left,1,60,80,18.0,0.979167,Eighth,C4
68,Right,0,65,80,19.0,0.979167,Eighth,G#4_F4
70,Left,1,53,80,19.0,0.979167,Eighth,F3
71,Right,0,64,80,20.0,0.979167,Eighth,E4_C#5_A#4
74,Left,1,55,80,20.0,0.979167,Eighth,G3
78,Left,1,56,80,21.0,0.979167,Eighth,G#3
75,Right,0,68,80,21.0,0.979167,Eighth,G#4_D#4_C5
79,Right,0,63,80,22.0,1.979167,Eighth,F#4_D#4_A4
82,Left,1,51,80,22.0,1.979167,Quarter,D#3
83,Right,0,70,80,23.0,0.479167,Sixteenth,G4_A#4
85,Left,1,51,80,24.0,0.729167,DottedSixteenth,D#3
86,Right,0,63,80,24.0,0.729167,DottedSixteenth,D#4
87,Left,1,51,80,24.75,0.229167,ThirtySecond,D#3
88,Right,0,63,80,24.75,0.229167,ThirtySecond,D#4
89,Right,0,63,80,25.0,2.979167,DottedQuarter,D#4_C4
91,Left,1,44,80,25.0,2.979167,DottedQuarter,G#2_D#3
93,Right,0,68,80,25.5,0.479167,Sixteenth,G#4
94,Left,1,56,80,25.5,0.479167,Sixteenth,G#3
95,Right,0,68,80,26.0,0.479167,Sixteenth,G#4
96,Left,1,56,80,26.0,0.479167,Sixteenth,G#3
98,Left,1,56,80,26.5,0.479167,Sixteenth,G#3
97,Right,0,68,80,26.5,0.479167,Sixteenth,G#4
99,Right,0,68,80,27.0,0.479167,Sixteenth,G#4
100,Left,1,56,80,27.0,0.479167,Sixteenth,G#3
101,Right,0,68,80,27.5,0.479167,Sixteenth,G#4
102,Left,1,56,80,27.5,0.479167,Sixteenth,G#3
104,Left,1,56,80,28.0,2.979167,Sixteenth,G#3_A#2
103,Right,0,68,80,28.0,2.979167,Sixteenth,G#4_C#4
108,Left,1,55,80,28.5,0.479167,Sixteenth,G3
107,Right,0,67,80,28.5,0.479167,Sixteenth,G4
110,Right,0,67,80,29.0,0.729167,DottedSixteenth,G4
109,Left,1,55,80,29.0,0.729167,DottedSixteenth,G3
111,Left,1,53,80,29.75,0.229167,ThirtySecond,F3
112,Right,0,65,80,29.75,0.229167,ThirtySecond,F4
114,Left,1,55,80,30.0,0.729167,DottedSixteenth,G3
113,Right,0,67,80,30.0,0.729167,DottedSixteenth,G4
115,Left,1,51,80,30.75,0.229167,ThirtySecond,D#3
116,Right,0,63,80,30.75,0.229167,ThirtySecond,D#4
117,Left,1,56,80,31.0,1.979167,Quarter,G#3
118,Right,0,68,80,31.0,1.979167,Quarter,G#4
119,Left,1,48,80,32.0,0.979167,Eighth,C3
120,Right,0,63,80,32.0,0.979167,Eighth,D#4
121,Right,0,63,80,33.0,0.979167,Eighth,D#4_A#4_A#3
123,Left,1,51,80,33.0,0.979167,Eighth,G2_D#3
126,Left,1,51,80,34.0,0.979167,Eighth,G#2_D#3
127,Right,0,73,80,34.0,0.979167,Eighth,G#4_D#4_C4_C#5
132,Right,0,72,80,34.75,0.229167,ThirtySecond,C5
133,Left,1,51,80,35.0,0.979167,Eighth,D#3_D#2
135,Right,0,63,80,35.0,0.979167,Eighth,G4_D#4_A#4_A#3
139,Right,0,72,80,36.0,0.083333,TripletSixtyFourth,C5
140,Right,0,70,80,36.09375,0.135417,SixtyFourth,A#4
141,Right,0,69,80,36.25,0.229167,ThirtySecond,A4
142,Right,0,70,80,36.5,0.229167,ThirtySecond,A#4
143,Right,0,72,80,36.75,0.229167,ThirtySecond,C5
146,Left,1,53,80,37.0,0.979167,Eighth,F3
144,Right,0,73,80,37.0,1.979167,Quarter,G#4_C#5
147,Left,1,65,80,38.0,0.979167,Eighth,F4
149,Right,0,72,80,39.0,0.979167,Eighth,G#4_C5
148,Left,1,63,80,39.0,0.979167,Eighth,D#4
151,Right,0,77,80,40.0,0.979167,Eighth,G#4_F5_A#4
152,Left,1,62,80,40.0,0.979167,Eighth,D4
155,Right,0,67,80,41.0,0.979167,Eighth,G4_A#4
157,Left,1,61,80,41.0,0.979167,Eighth,C#4
158,Right,0,75,80,42.0,0.979167,Eighth,G#4_D#5
159,Left,1,60,80,42.0,0.979167,Eighth,C4
161,Right,0,70,80,43.0,0.083333,TripletSixtyFourth,A#4
162,Right,0,68,80,43.09375,0.145833,TripletThirtySecond,G#4
163,Right,0,67,80,43.25,0.229167,ThirtySecond,G4
164,Right,0,68,80,43.5,0.229167,ThirtySecond,G#4
165,Right,0,70,80,43.75,0.229167,ThirtySecond,A#4
166,Right,0,68,80,44.0,0.979167,Eighth,G#4_D#4_C5
167,Left,1,51,80,44.0,0.979167,Eighth,D#3
170,Right,0,67,80,45.0,0.979167,Eighth,G4_C#4_A#4
171,Left,1,39,80,45.0,0.979167,Eighth,D#2
174,Left,1,44,80,46.0,0.979167,Eighth,G#2
175,Right,0,60,80,46.0,0.979167,Eighth,G#4_C4
177,Left,1,32,80,47.0,0.979167,Eighth,G#1
178,Left,1,65,80,48.0,2.979167,DottedQuarter,F4
179,Right,0,69,80,49.0,0.979167,Eighth,C5_A4
181,Right,0,70,80,50.0,0.979167,Eighth,G4_A#4
184,Right,0,69,80,51.0,0.979167,Eighth,C5_A4
183,Left,1,63,80,51.0,0.979167,Eighth,D#4
187,Right,0,70,80,52.0,0.979167,Eighth,C#5_A#4
186,Left,1,63,80,52.0,0.479167,Sixteenth,D#4
189,Left,1,61,80,52.5,0.479167,Sixteenth,C#4
190,Right,0,77,80,53.0,0.979167,Eighth,F5_C#5
192,Left,1,60,80,53.0,0.479167,Sixteenth,C4
193,Left,1,58,80,53.5,0.479167,Sixteenth,A#3
194,Left,1,63,80,54.0,2.979167,DottedQuarter,D#4
195,Right,0,67,80,55.0,0.979167,Eighth,G4_A#4
197,Right,0,68,80,56.0,0.979167,Eighth,G#4_F4
199,Left,1,61,80,57.0,0.979167,Eighth,C#4
200,Right,0,67,80,57.0,0.979167,Eighth,G4_A#4
203,Right,0,68,80,58.0,0.979167,Eighth,G#4_C5
202,Left,1,61,80,58.0,0.479167,Sixteenth,C#4
205,Left,1,60,80,58.5,0.479167,Sixteenth,C4
207,Right,0,72,80,59.0,0.979167,Eighth,D#5_C5
206,Left,1,58,80,59.0,0.479167,Sixteenth,A#3
209,Left,1,56,80,59.5,0.479167,Sixteenth,G#3
210,Right,0,63,80,60.0,1.979167,Quarter,D#5_D#4
212,Left,1,56,82,61.0,1.979167,Quarter,G#3_C4
214,Right,0,62,85,62.0,0.979167,Eighth,D5_D4
215,Left,1,59,85,62.0,0.979167,Eighth,B3
217,Right,0,64,88,63.0,0.979167,Eighth,E5_E4
219,Left,1,55,88,63.0,0.979167,Eighth,G3_C#4_A#3
223,Right,0,65,91,64.0,0.979167,Eighth,F5_F4
222,Left,1,60,91,64.0,0.979167,Eighth,G#3_C4
228,Left,1,60,94,65.0,0.979167,Eighth,E3_C4
226,Right,0,67,94,65.0,0.979167,Eighth,G5_G4
230,Left,1,60,97,66.0,0.979167,Eighth,F3_C4
232,Right,0,80,97,66.0,0.979167,DottedSixteenth,G#5_G#4
234,Left,1,56,99,66.5,0.479167,Sixteenth,G#3
235,Right,0,77,99,66.75,0.229167,ThirtySecond,F5
238,Right,0,75,100,67.0,1.979167,Quarter,G4_D#5
236,Left,1,58,100,67.0,1.979167,Quarter,A#3_A#2
240,Right,0,70,100,68.0,0.979167,Eighth,A#4
243,Right,0,68,100,69.0,0.979167,Eighth,G#4_F4_D5
241,Left,1,59,100,69.0,0.979167,Eighth,B3_B2
246,Right,0,75,100,69.125,0.229167,ThirtySecond,D#5
247,Right,0,74,100,69.25,0.229167,ThirtySecond,D5
248,Right,0,75,100,69.375,0.229167,ThirtySecond,D#5
249,Right,0,74,100,69.5,0.229167,ThirtySecond,D5
250,Right,0,75,100,69.625,0.229167,ThirtySecond,D#5
251,Right,0,72,100,69.75,0.229167,ThirtySecond,C5
252,Right,0,74,100,69.875,0.229167,ThirtySecond,D5
253,Left,1,48,100,70.0,0.979167,Eighth,C4_C3
254,Right,0,75,100,70.0,1.979167,Eighth,G4_D#5_D#4
258,Left,1,56,100,71.0,0.979167,Eighth,G#3_G#2
260,Right,0,72,100,71.0,0.979167,Eighth,C5
263,Right,0,72,100,72.0,0.979167,Eighth,G5_F4_C5
261,Left,1,45,100,72.0,0.979167,Eighth,A3_A2
266,Right,0,77,100,72.75,0.229167,ThirtySecond,F5
269,Left,1,46,100,73.0,1.979167,Quarter,A#3_A#2
267,Right,0,75,100,73.0,1.979167,Quarter,G4_D#5
271,Right,0,70,100,74.0,0.979167,Eighth,A#4
274,Left,1,46,100,75.0,0.979167,Eighth,A#2_A#1
272,Right,0,65,100,75.0,0.979167,Eighth,G#4_F4_D5
277,Right,0,75,100,75.125,0.229167,ThirtySecond,D#5
278,Right,0,74,100,75.25,0.229167,ThirtySecond,D5
279,Right,0,75,100,75.375,0.229167,ThirtySecond,D#5
280,Right,0,74,100,75.5,0.229167,ThirtySecond,D5
281,Right,0,75,100,75.625,0.229167,ThirtySecond,D#5
282,Right,0,72,100,75.75,0.229167,ThirtySecond,C5
283,Right,0,74,100,75.875,0.229167,ThirtySecond,D5
285,Left,1,39,100,76.0,0.979167,Eighth,D#3_D#2
284,Right,0,63,100,76.0,0.979167,Eighth,G4_D#5_D#4
289,Left,1,51,100,77.0,0.979167,Eighth,F2_D#3
291,Right,0,62,100,77.0,0.979167,Eighth,G#4_D4_D#5
294,Right,0,61,100,78.0,0.979167,Eighth,D#5_C#4_A#4
297,Left,1,51,100,78.0,0.979167,Eighth,G2_D#3
301,Left,1,51,80,79.0,2.979167,DottedQuarter,G#2_D#3
299,Right,0,63,80,79.0,2.979167,DottedQuarter,D#4_C4
304,Left,1,56,80,79.5,0.479167,Sixteenth,G#3
303,Right,0,68,80,79.5,0.479167,Sixteenth,G#4
306,Left,1,56,80,80.0,0.479167,Sixteenth,G#3
305,Right,0,68,80,80.0,0.479167,Sixteenth,G#4
308,Left,1,56,80,80.5,0.479167,Sixteenth,G#3
307,Right,0,68,80,80.5,0.479167,Sixteenth,G#4
309,Right,0,68,80,81.0,0.479167,Sixteenth,G#4
310,Left,1,56,80,81.0,0.479167,Sixteenth,G#3
311,Left,1,56,80,81.5,0.479167,Sixteenth,G#3
312,Right,0,68,80,81.5,0.479167,Sixteenth,G#4
313,Left,1,56,80,82.0,2.979167,Sixteenth,G#3_A#2
314,Right,0,61,80,82.0,2.979167,DottedQuarter,G#4_C#4
318,Right,0,67,80,82.5,0.479167,Sixteenth,G4
317,Left,1,55,80,82.5,0.479167,Sixteenth,G3
319,Left,1,55,80,83.0,0.729167,DottedSixteenth,G3
320,Right,0,67,80,83.0,0.729167,DottedSixteenth,G4
322,Right,0,65,80,83.75,0.229167,ThirtySecond,F4
321,Left,1,53,80,83.75,0.229167,ThirtySecond,F3
324,Left,1,55,80,84.0,0.729167,DottedSixteenth,G3
323,Right,0,67,80,84.0,0.729167,DottedSixteenth,G4
325,Left,1,51,80,84.75,0.229167,ThirtySecond,D#3
326,Right,0,63,80,84.75,0.229167,ThirtySecond,D#4
327,Left,1,56,80,85.0,1.979167,Quarter,G#3
328,Right,0,68,80,85.0,1.979167,Quarter,G#4
330,Right,0,63,84,86.0,0.979167,Eighth,D#4
329,Left,1,48,84,86.0,0.979167,Eighth,C3
333,Right,0,70,89,87.0,0.979167,Eighth,D#4_A#4_A#3
331,Left,1,43,89,87.0,0.979167,Eighth,G2_D#3
338,Right,0,60,94,88.0,0.979167,Eighth,G#4_D#4_C4_C#5
336,Left,1,51,94,88.0,0.979167,Eighth,G#2_D#3
342,Right,0,72,98,88.75,0.229167,ThirtySecond,C5
343,Left,1,51,99,89.0,0.979167,Eighth,D#3_D#2
345,Right,0,58,99,89.0,0.979167,Eighth,G4_D#4_A#4_A#3
349,Right,0,72,80,90.0,0.083333,TripletSixtyFourth,C5
350,Right,0,70,80,90.09375,0.135417,SixtyFourth,A#4
351,Right,0,69,80,90.25,0.229167,ThirtySecond,A4
352,Right,0,70,80,90.5,0.229167,ThirtySecond,A#4
353,Right,0,72,80,90.75,0.229167,ThirtySecond,C5
354,Right,0,73,80,91.0,1.979167,Quarter,G#4_C#5
356,Left,1,53,80,91.0,0.979167,Eighth,F3
357,Left,1,65,80,92.0,0.979167,Eighth,F4
358,Right,0,72,80,93.0,0.979167,Eighth,G#4_C5
360,Left,1,63,80,93.0,0.979167,Eighth,D#4
361,Right,0,70,80,94.0,0.979167,Eighth,G#4_F5_A#4
364,Left,1,62,80,94.0,0.979167,Eighth,D4
365,Right,0,70,84,95.0,0.979167,Eighth,G4_A#4
367,Left,1,61,84,95.0,0.979167,Eighth,C#4
368,Left,1,60,89,96.0,0.979167,Eighth,C4
369,Right,0,68,89,96.0,0.979167,Eighth,G#4_D#5
371,Right,0,70,80,97.0,0.083333,TripletSixtyFourth,A#4
372,Right,0,68,80,97.09375,0.145833,TripletThirtySecond,G#4
373,Right,0,67,80,97.25,0.229167,ThirtySecond,G4
374,Right,0,68,80,97.5,0.229167,ThirtySecond,G#4
375,Right,0,70,80,97.75,0.229167,ThirtySecond,A#4
377,Left,1,51,80,98.0,0.979167,Eighth,D#3
376,Right,0,63,80,98.0,0.979167,Eighth,G#4_D#4_C5
380,Right,0,70,80,99.0,0.979167,Eighth,G4_C#4_A#4
383,Left,1,39,80,99.0,0.979167,Eighth,D#2
384,Right,0,68,80,100.0,0.979167,Eighth,G#4_C4
386,Left,1,44,80,100.0,0.979167,Eighth,G#2
387,Left,1,32,80,101.0,0.979167,Eighth,G#1
388,Right,0,51,80,102.0,1.229167,Eighth,D#3
389,Left,1,44,80,103.0,2.979167,DottedQuarter,G#2_G#1_D#2
392,Right,0,48,80,103.25,0.229167,ThirtySecond,C3
393,Right,0,51,80,103.5,0.229167,ThirtySecond,D#3
394,Right,0,56,80,103.75,0.229167,ThirtySecond,G#3
395,Right,0,60,80,104.0,0.979167,Eighth,C4
396,Right,0,56,80,105.0,0.979167,Eighth,G#3
400,Right,0,55,80,106.0,0.229167,ThirtySecond,G3
397,Left,1,34,80,106.0,2.979167,DottedQuarter,D#2_A#2_A#1
401,Right,0,61,80,106.25,0.229167,ThirtySecond,C#4
402,Right,0,63,80,106.5,0.229167,ThirtySecond,D#4
403,Right,0,67,80,106.75,0.229167,ThirtySecond,G4
404,Right,0,73,80,107.0,0.979167,Eighth,C#5
405,Right,0,67,80,108.0,0.979167,Eighth,G4
406,Right,0,68,80,109.0,0.229167,ThirtySecond,G#4
407,Left,1,48,80,109.0,1.979167,Quarter,D#2_C3_C2
410,Right,0,51,80,109.25,0.229167,ThirtySecond,D#3
411,Right,0,56,80,109.5,0.229167,ThirtySecond,G#3
412,Right,0,60,80,109.75,0.229167,ThirtySecond,C4
413,Right,0,63,80,110.0,0.979167,Eighth,D#4
415,Left,1,43,80,111.0,0.979167,Eighth,G2_D#3
414,Right,0,63,80,111.0,0.979167,Eighth,D#4_A#3
420,Right,0,56,90,112.0,0.979167,Eighth,G#3_D#4_C#4
418,Left,1,51,80,112.0,0.979167,Eighth,G#2_D#3
423,Right,0,60,80,112.5,0.479167,Sixteenth,C4
426,Right,0,55,80,113.0,0.979167,Eighth,G3_D#4_A#3
424,Left,1,39,80,113.0,0.979167,Eighth,D#3_D#2
429,Right,0,60,80,114.0,0.083333,TripletSixtyFourth,C4
430,Right,0,58,80,114.09375,0.145833,TripletThirtySecond,A#3
431,Right,0,57,80,114.25,0.229167,ThirtySecond,A3
432,Right,0,58,80,114.5,0.229167,ThirtySecond,A#3
433,Right,0,60,80,114.75,0.229167,ThirtySecond,C4
434,Right,0,61,80,115.0,0.229167,ThirtySecond,C#4
435,Left,1,41,80,115.0,0.979167,Eighth,F2
436,Right,0,61,80,115.25,0.229167,ThirtySecond,C#4
437,Right,0,65,80,115.5,0.229167,ThirtySecond,F4
438,Right,0,68,80,115.75,0.229167,ThirtySecond,G#4
439,Left,1,56,80,116.0,0.979167,Eighth,G#3_F3
441,Right,0,73,80,116.0,0.979167,Eighth,C#5
442,Left,1,51,80,117.0,0.979167,Eighth,G#3_D#3
444,Right,0,72,80,117.0,0.479167,Sixteenth,C5
445,Left,1,50,80,118.0,0.979167,Eighth,G#3_D3
447,Right,0,65,80,118.25,0.229167,ThirtySecond,F4
448,Right,0,68,80,118.5,0.229167,ThirtySecond,G#4
449,Right,0,70,80,118.75,0.229167,ThirtySecond,A#4
450,Left,1,49,80,119.0,0.979167,Eighth,G3_C#3
451,Right,0,77,100,119.0,0.979167,Eighth,F5
454,Right,0,75,80,120.0,0.479167,Sixteenth,D#5
453,Left,1,56,80,120.0,0.979167,Eighth,G#3_C3
456,Left,1,41,80,121.0,0.979167,Eighth,F2
457,Right,0,49,80,121.25,0.229167,ThirtySecond,C#3
458,Right,0,53,80,121.5,0.229167,ThirtySecond,F3
459,Right,0,56,80,121.75,0.229167,ThirtySecond,G#3
460,Right,0,58,80,122.0,0.979167,Eighth,E3_C#4_A#3
462,Left,1,43,80,122.0,0.979167,Eighth,G2
464,Right,0,56,80,123.0,0.979167,Eighth,G#3_D#3_C4
466,Left,1,44,80,123.0,0.979167,Eighth,G#2
469,Right,0,57,80,124.0,0.979167,Eighth,F#3_A3
468,Left,1,39,80,124.0,1.979167,Quarter,D#3_D#2
472,Right,0,58,80,125.0,0.479167,Sixteenth,G3_A#3
474,Right,0,51,80,126.0,1.229167,Eighth,D#3
475,Left,1,44,80,127.0,2.979167,DottedQuarter,G#2_G#1_D#2
478,Right,0,48,80,127.25,0.229167,ThirtySecond,C3
479,Right,0,51,80,127.5,0.229167,ThirtySecond,D#3
480,Right,0,56,80,127.75,0.229167,ThirtySecond,G#3
481,Right,0,60,80,128.0,0.979167,Eighth,C4
482,Right,0,56,80,129.0,0.979167,Eighth,G#3
483,Left,1,39,80,130.0,2.979167,DottedQuarter,D#2_A#2_A#1
486,Right,0,55,80,130.0,0.229167,ThirtySecond,G3
487,Right,0,61,80,130.25,0.229167,ThirtySecond,C#4
488,Right,0,63,80,130.5,0.229167,ThirtySecond,D#4
489,Right,0,67,80,130.75,0.229167,ThirtySecond,G4
490,Right,0,73,80,131.0,0.979167,Eighth,C#5
491,Right,0,67,80,132.0,0.979167,Eighth,G4
492,Right,0,68,80,133.0,0.229167,ThirtySecond,G#4
493,Left,1,48,80,133.0,1.979167,Quarter,D#2_C3_C2
496,Right,0,51,80,133.25,0.229167,ThirtySecond,D#3
497,Right,0,56,80,133.5,0.229167,ThirtySecond,G#3
498,Right,0,60,80,133.75,0.229167,ThirtySecond,C4
499,Left,1,51,81,134.0,0.479167,Sixteenth,D#3
500,Right,0,63,81,134.0,0.479167,Sixteenth,D#4
501,Left,1,51,83,134.5,0.479167,Sixteenth,D#3
502,Right,0,63,83,134.5,0.479167,Sixteenth,D#4
505,Right,0,63,85,135.0,0.979167,Sixteenth,D#4_A#3
503,Left,1,51,85,135.0,0.979167,Sixteenth,G2_D#3
508,Right,0,63,87,135.5,0.479167,Sixteenth,D#4
507,Left,1,51,87,135.5,0.479167,Sixteenth,D#3
510,Right,0,61,89,136.0,0.979167,Eighth,G#3_D#4_C#4
509,Left,1,51,89,136.0,0.979167,Eighth,G#2_D#3
514,Right,0,60,80,136.5,0.479167,Sixteenth,C4
518,Left,1,51,80,137.0,0.979167,Eighth,D#3_D#2
515,Right,0,63,80,137.0,0.979167,Eighth,G3_D#4_A#3
520,Right,0,60,80,138.0,0.083333,TripletSixtyFourth,C4
521,Right,0,58,80,138.09375,0.145833,TripletThirtySecond,A#3
522,Right,0,57,80,138.25,0.229167,ThirtySecond,A3
523,Right,0,58,80,138.5,0.229167,ThirtySecond,A#3
524,Right,0,60,80,138.75,0.229167,ThirtySecond,C4
525,Left,1,41,80,139.0,0.979167,Eighth,F2
526,Right,0,61,80,139.0,0.229167,ThirtySecond,C#4
527,Right,0,61,80,139.25,0.229167,ThirtySecond,C#4
528,Right,0,65,80,139.5,0.229167,ThirtySecond,F4
529,Right,0,68,80,139.75,0.229167,ThirtySecond,G#4
531,Right,0,73,80,140.0,0.979167,Eighth,C#5
530,Left,1,53,80,140.0,0.979167,Eighth,G#3_F3
534,Right,0,72,80,141.0,0.479167,Sixteenth,C5
533,Left,1,56,80,141.0,0.979167,Eighth,G#3_D#3
536,Left,1,56,80,142.0,0.979167,Eighth,G#3_D3
538,Right,0,77,80,142.25,0.229167,ThirtySecond,F5
539,Right,0,80,80,142.5,0.229167,ThirtySecond,G#5
540,Right,0,82,80,142.75,0.229167,ThirtySecond,A#5
543,Right,0,89,100,143.0,0.979167,Eighth,F6
541,Left,1,49,80,143.0,0.979167,Eighth,G3_C#3
545,Right,0,87,80,144.0,0.479167,Sixteenth,D#6
544,Left,1,48,80,144.0,0.979167,Eighth,G#3_C3
547,Left,1,51,80,145.0,1.979167,Quarter,D#3
548,Right,0,60,80,145.25,0.229167,ThirtySecond,C4
549,Right,0,63,80,145.5,1.479167,DottedEighth,D#4
550,Right,0,68,80,145.75,1.229167,Eighth,G#4
551,Right,0,72,80,146.0,1.479167,DottedEighth,C5
553,Right,0,61,80,147.0,0.979167,Eighth,G4_C#4
552,Left,1,39,80,147.0,0.979167,Eighth,D#2
555,Right,0,70,80,147.5,0.479167,Sixteenth,A#4
558,Left,1,44,80,148.0,0.979167,Eighth,G#2
556,Right,0,60,80,148.0,0.979167,Eighth,G#4_C4
559,Left,1,32,80,149.0,0.979167,Eighth,G#1
560,Left,1,65,80,150.0,1.229167,Eighth,F4
561,Right,0,69,80,151.0,0.979167,Eighth,C5_A4
563,Left,1,53,80,151.25,0.229167,ThirtySecond,F3
564,Left,1,57,80,151.5,0.229167,ThirtySecond,A3
565,Left,1,60,80,151.75,0.229167,ThirtySecond,C4
568,Left,1,65,93,152.0,1.479167,DottedEighth,F4
566,Right,0,70,80,152.0,0.979167,Eighth,G4_A#4
569,Right,0,72,80,153.0,0.979167,Eighth,C5_A4
571,Left,1,63,80,153.5,0.479167,Sixteenth,D#4
573,Left,1,63,80,154.0,0.229167,ThirtySecond,D#4
572,Right,0,70,80,154.0,0.979167,Eighth,C#5_A#4
575,Left,1,61,80,154.25,0.229167,ThirtySecond,C#4
576,Left,1,60,80,154.5,0.229167,ThirtySecond,C4
577,Left,1,58,80,154.75,0.229167,ThirtySecond,A#3
580,Left,1,57,80,155.0,0.229167,ThirtySecond,A3
578,Right,0,77,80,155.0,0.979167,Eighth,F5_C#5
581,Left,1,58,80,155.25,0.229167,ThirtySecond,A#3
582,Left,1,61,80,155.5,0.229167,ThirtySecond,C#4
583,Left,1,58,80,155.75,0.229167,ThirtySecond,A#3
584,Left,1,46,80,156.0,0.979167,Eighth,A#2
585,Right,0,73,80,156.5,0.229167,ThirtySecond,C#5_A#4
587,Right,0,72,80,156.75,0.229167,ThirtySecond,G#4_C5
590,Right,0,70,80,157.0,0.979167,Eighth,G4_A#4
589,Left,1,63,80,157.0,0.229167,ThirtySecond,D#4
592,Left,1,51,80,157.25,0.229167,ThirtySecond,D#3
593,Left,1,55,80,157.5,0.229167,ThirtySecond,G3
594,Left,1,58,80,157.75,0.229167,ThirtySecond,A#3
595,Right,0,68,80,158.0,0.979167,Eighth,G#4_F4
597,Left,1,63,102,158.0,1.479167,DottedEighth,D#4
598,Right,0,70,80,159.0,0.979167,Eighth,G4_A#4
600,Left,1,61,80,159.5,0.479167,Sixteenth,C#4
603,Left,1,61,80,160.0,0.229167,ThirtySecond,C#4
601,Right,0,72,80,160.0,0.979167,Eighth,G#4_C5
604,Left,1,60,80,160.25,0.229167,ThirtySecond,C4
605,Left,1,58,80,160.5,0.229167,ThirtySecond,A#3
606,Left,1,56,80,160.75,0.229167,ThirtySecond,G#3
607,Right,0,72,80,161.0,0.979167,Eighth,D#5_C5
609,Left,1,55,80,161.0,0.229167,ThirtySecond,G3
610,Left,1,56,80,161.25,0.229167,ThirtySecond,G#3
611,Left,1,60,80,161.5,0.229167,ThirtySecond,C4
612,Left,1,56,80,161.75,0.229167,ThirtySecond,G#3
613,Left,1,44,80,162.0,0.979167,Eighth,G#2
614,Right,0,75,80,162.5,0.729167,DottedSixteenth,D#5_D#4
616,Left,1,60,80,163.0,0.979167,Eighth,G#3_C4
618,Right,0,63,80,163.25,0.229167,ThirtySecond,D#4
619,Right,0,75,80,163.5,0.229167,ThirtySecond,D#5
620,Right,0,63,81,163.75,0.229167,ThirtySecond,D#4
621,Left,1,59,81,164.0,0.979167,Eighth,G#3_B3
623,Right,0,62,82,164.25,0.229167,ThirtySecond,D4
624,Right,0,74,82,164.5,0.229167,ThirtySecond,D5
625,Right,0,62,83,164.75,0.229167,ThirtySecond,D4
626,Left,1,58,83,165.0,0.979167,Eighth,G3_C#4_A#3
629,Right,0,64,83,165.25,0.229167,ThirtySecond,E4
630,Right,0,76,84,165.5,0.229167,ThirtySecond,E5
631,Right,0,64,84,165.75,0.229167,ThirtySecond,E4
632,Left,1,56,85,166.0,0.979167,Eighth,G#3_C4
634,Right,0,65,85,166.25,0.229167,ThirtySecond,F4
635,Right,0,77,86,166.5,0.229167,ThirtySecond,F5
636,Right,0,65,86,166.75,0.229167,ThirtySecond,F4
637,Left,1,60,86,167.0,0.979167,Eighth,E3_C4
639,Right,0,67,87,167.25,0.229167,ThirtySecond,G4
640,Right,0,79,87,167.5,0.229167,ThirtySecond,G5
641,Right,0,67,88,167.75,0.229167,ThirtySecond,G4
642,Left,1,60,88,168.0,0.979167,Eighth,F3_C4
644,Right,0,68,89,168.25,0.229167,ThirtySecond,G#4
645,Right,0,80,89,168.5,0.229167,ThirtySecond,G#5
646,Right,0,68,89,168.75,0.229167,ThirtySecond,G#4
647,Right,0,75,80,169.0,1.979167,Quarter,G4_D#5_A#4
650,Left,1,34,80,169.25,0.229167,ThirtySecond,A#1
651,Left,1,39,80,169.5,0.229167,ThirtySecond,D#2
652,Left,1,43,80,169.75,0.229167,ThirtySecond,G2
653,Left,1,46,80,170.0,0.229167,ThirtySecond,A#2
654,Left,1,51,80,170.25,0.229167,ThirtySecond,D#3
655,Left,1,55,80,170.5,0.229167,ThirtySecond,G3
656,Left,1,57,80,170.75,0.229167,ThirtySecond,A3
657,Left,1,59,90,171.0,0.979167,Eighth,B3
658,Right,0,74,90,171.0,0.979167,Eighth,G#4_F4_D5
661,Right,0,63,80,172.0,1.979167,Quarter,G4_D#5_D#4
664,Left,1,36,80,172.25,0.229167,ThirtySecond,C2
665,Left,1,39,80,172.5,0.229167,ThirtySecond,D#2
666,Left,1,43,80,172.75,0.229167,ThirtySecond,G2
667,Left,1,48,80,173.0,0.229167,ThirtySecond,C3
668,Left,1,51,80,173.25,0.229167,ThirtySecond,D#3
669,Left,1,55,80,173.5,0.229167,ThirtySecond,G3
670,Left,1,60,80,173.75,0.229167,ThirtySecond,C4
671,Right,0,65,90,174.0,0.979167,Eighth,F5_F4_C5
672,Left,1,57,90,174.0,0.979167,Eighth,A3
675,Right,0,67,80,175.0,1.979167,Quarter,G4_D#5_A#4
678,Left,1,34,80,175.25,0.229167,ThirtySecond,A#1
679,Left,1,39,80,175.5,0.229167,ThirtySecond,D#2
680,Left,1,43,80,175.75,0.229167,ThirtySecond,G2
681,Left,1,46,80,176.0,0.229167,ThirtySecond,A#2
682,Left,1,51,80,176.25,0.229167,ThirtySecond,D#3
683,Left,1,55,80,176.5,0.229167,ThirtySecond,G3
684,Left,1,57,80,176.75,0.229167,ThirtySecond,A3
687,Left,1,58,80,177.0,0.479167,Sixteenth,A#3
685,Right,0,74,80,177.0,0.979167,Eighth,G#4_F4_D5
689,Right,0,75,80,177.125,0.229167,ThirtySecond,D#5
690,Right,0,74,80,177.25,0.229167,ThirtySecond,D5
691,Right,0,75,80,177.375,0.229167,ThirtySecond,D#5
692,Left,1,46,80,177.5,0.479167,Sixteenth,A#2
693,Right,0,74,80,177.5,0.229167,ThirtySecond,D5
694,Right,0,75,80,177.625,0.229167,ThirtySecond,D#5
695,Right,0,72,80,177.75,0.229167,ThirtySecond,C5
696,Right,0,74,80,177.875,0.104167,SixtyFourth,D5
700,Left,1,51,80,178.0,0.479167,Sixteenth,D#3
697,Right,0,75,80,178.0,0.229167,ThirtySecond,G4_D#5_D#4
701,Right,0,63,80,178.25,0.229167,ThirtySecond,D#4
702,Left,1,39,80,178.5,0.479167,Sixteenth,D#2
703,Right,0,67,80,178.5,0.229167,ThirtySecond,G4
704,Right,0,75,80,178.75,0.229167,ThirtySecond,D#5
705,Left,1,41,80,179.0,0.479167,Sixteenth,F2
706,Right,0,62,80,179.25,0.229167,ThirtySecond,D4
708,Left,1,39,80,179.5,0.479167,Sixteenth,D#2
707,Right,0,68,80,179.5,0.229167,ThirtySecond,G#4
709,Right,0,75,80,179.75,0.229167,ThirtySecond,D#5
710,Left,1,43,80,180.0,0.479167,Sixteenth,G2
711,Right,0,61,80,180.25,0.229167,ThirtySecond,C#4
713,Left,1,39,80,180.5,0.479167,Sixteenth,D#2
712,Right,0,70,80,180.5,0.229167,ThirtySecond,A#4
714,Right,0,75,80,180.75,0.229167,ThirtySecond,D#5
715,Right,0,60,80,181.0,0.229167,ThirtySecond,C4
716,Left,1,44,80,181.0,2.979167,DottedQuarter,G#2_G#1_D#2
719,Right,0,48,80,181.25,0.229167,ThirtySecond,C3
720,Right,0,51,80,181.5,0.229167,ThirtySecond,D#3
721,Right,0,56,80,181.75,0.229167,ThirtySecond,G#3
722,Right,0,60,80,182.0,0.979167,Eighth,C4
723,Right,0,56,80,183.0,0.979167,Eighth,G#3
727,Right,0,55,80,184.0,0.229167,ThirtySecond,G3
724,Left,1,46,80,184.0,2.979167,DottedQuarter,D#2_A#2_A#1
728,Right,0,61,80,184.25,0.229167,ThirtySecond,C#4
729,Right,0,63,80,184.5,0.229167,ThirtySecond,D#4
730,Right,0,67,80,184.75,0.229167,ThirtySecond,G4
731,Right,0,73,80,185.0,0.979167,Eighth,C#5
732,Right,0,67,80,186.0,0.979167,Eighth,G4
736,Right,0,68,80,187.0,0.229167,ThirtySecond,G#4
733,Left,1,48,80,187.0,1.979167,Quarter,D#2_C3_C2
737,Right,0,51,80,187.25,0.229167,ThirtySecond,D#3
738,Right,0,56,80,187.5,0.229167,ThirtySecond,G#3
739,Right,0,60,80,187.75,0.229167,ThirtySecond,C4
741,Right,0,63,80,188.0,0.479167,Sixteenth,D#4
740,Left,1,51,80,188.0,0.479167,Sixteenth,D#3
743,Left,1,51,80,188.5,0.479167,Sixteenth,D#3
742,Right,0,63,80,188.5,0.479167,Sixteenth,D#4
744,Left,1,43,80,189.0,0.979167,Eighth,G2_D#3
746,Right,0,63,80,189.0,0.979167,Sixteenth,D#4_A#3
748,Left,1,51,80,189.5,0.479167,Sixteenth,D#3
749,Right,0,63,80,189.5,0.479167,Sixteenth,D#4
750,Left,1,51,80,190.0,0.979167,Eighth,G#2_D#3
752,Right,0,61,80,190.0,0.979167,Eighth,G#3_D#4_C#4
755,Right,0,60,80,190.5,0.479167,Sixteenth,C4
758,Left,1,39,80,191.0,0.979167,Eighth,D#3_D#2
756,Right,0,63,80,191.0,0.979167,Eighth,G3_D#4_A#3
761,Right,0,60,80,192.0,0.083333,TripletSixtyFourth,C4
762,Right,0,58,80,192.09375,0.145833,TripletThirtySecond,A#3
763,Right,0,57,80,192.25,0.229167,ThirtySecond,A3
764,Right,0,58,80,192.5,0.229167,ThirtySecond,A#3
765,Right,0,60,80,192.75,0.229167,ThirtySecond,C4
766,Right,0,61,80,193.0,0.229167,ThirtySecond,C#4
767,Left,1,41,80,193.0,0.979167,Eighth,F2
768,Right,0,61,80,193.25,0.229167,ThirtySecond,C#4
769,Right,0,65,80,193.5,0.229167,ThirtySecond,F4
770,Right,0,68,80,193.75,0.229167,ThirtySecond,G#4
773,Right,0,73,80,194.0,0.979167,Eighth,C#5
771,Left,1,53,80,194.0,0.979167,Eighth,G#3_F3
775,Left,1,56,80,195.0,0.979167,Eighth,G#3_D#3
774,Right,0,72,80,195.0,0.479167,Sixteenth,C5
777,Left,1,50,80,196.0,0.979167,Eighth,G#3_D3
779,Right,0,77,80,196.25,0.229167,ThirtySecond,F5
780,Right,0,80,80,196.5,0.229167,ThirtySecond,G#5
781,Right,0,82,80,196.75,0.229167,ThirtySecond,A#5
783,Right,0,89,101,197.0,0.979167,Eighth,F6
782,Left,1,55,80,197.0,0.979167,Eighth,G3_C#3_A#3
786,Left,1,48,80,198.0,0.979167,Eighth,G#3_C4_C3
788,Right,0,87,80,198.0,0.479167,Sixteenth,D#6
790,Left,1,51,80,199.0,1.979167,Quarter,D#3
791,Right,0,60,80,199.25,0.229167,ThirtySecond,C4
792,Right,0,63,80,199.5,1.479167,DottedEighth,D#4
793,Right,0,68,80,199.75,1.229167,Eighth,G#4
794,Right,0,72,93,200.0,1.479167,DottedEighth,C5
795,Left,1,39,80,201.0,0.979167,Eighth,D#2
796,Right,0,61,80,201.0,0.979167,Eighth,G4_C#4
798,Right,0,70,80,201.5,0.479167,Sixteenth,A#4
801,Left,1,44,80,202.0,0.979167,Eighth,G#2
799,Right,0,60,80,202.0,0.979167,Eighth,G#4_C4
802,Left,1,32,80,203.0,0.979167,Eighth,G#1
803,Left,1,51,80,204.0,0.479167,Sixteenth,D#3_D#2
805,Right,0,60,80,204.25,0.479167,Sixteenth,D#4_C4
807,Left,1,51,80,204.5,0.479167,Sixteenth,D#3_D#2
809,Right,0,60,80,204.75,0.479167,Sixteenth,D#4_C4
811,Left,1,51,80,205.0,0.479167,Sixteenth,D#3_D#2
813,Right,0,63,80,205.25,0.479167,Sixteenth,D#4_C4
815,Left,1,56,80,205.5,0.479167,Sixteenth,G#3_G#2
817,Right,0,63,80,205.75,0.479167,Sixteenth,D#4_C4
819,Left,1,44,80,206.0,0.479167,Sixteenth,G#3_G#2
821,Right,0,63,80,206.25,0.479167,Sixteenth,D#4_C4
823,Left,1,44,80,206.5,0.479167,Sixteenth,G#3_G#2
825,Right,0,63,80,206.75,0.479167,Sixteenth,D#4_C4
827,Left,1,44,80,207.0,0.479167,Sixteenth,G#3_G#2
829,Right,0,63,80,207.25,0.479167,Sixteenth,D#4_C4
831,Left,1,44,80,207.5,0.479167,Sixteenth,G#3_G#2
833,Right,0,60,80,207.75,0.479167,Sixteenth,D#4_C4
835,Left,1,44,80,208.0,0.479167,Sixteenth,G#3_G#2
837,Right,0,63,80,208.25,0.479167,Sixteenth,D#4_C#4_A#3
840,Left,1,55,80,208.5,0.479167,Sixteenth,G3_G2
842,Right,0,58,80,208.75,0.479167,Sixteenth,D#4_C#4_A#3
845,Left,1,43,80,209.0,0.479167,Sixteenth,G3_G2
847,Right,0,61,80,209.25,0.479167,Sixteenth,D#4_C#4_A#3
850,Left,1,41,80,209.5,0.479167,Sixteenth,F3_F2
852,Right,0,58,80,209.75,0.479167,Sixteenth,D#4_C#4_A#3
855,Left,1,55,80,210.0,0.479167,Sixteenth,G3_G2
857,Right,0,63,80,210.25,0.479167,Sixteenth,D#4_C#4_A#3
860,Left,1,51,80,210.5,0.479167,Sixteenth,D#3_D#2
862,Right,0,58,80,210.75,0.479167,Sixteenth,D#4_C#4_A#3
865,Left,1,39,80,211.0,0.479167,Sixteenth,D#3_D#2
867,Right,0,63,80,211.25,0.479167,Sixteenth,D#4_C4
869,Left,1,44,80,211.5,0.479167,Sixteenth,G#3_G#2
871,Right,0,63,80,211.75,0.479167,Sixteenth,D#4_C4
873,Left,1,39,80,212.0,0.479167,Sixteenth,D#3_D#2
875,Right,0,68,80,212.25,0.479167,Sixteenth,G#4_D#4_C4
878,Left,1,56,80,212.5,0.479167,Sixteenth,G#3_G#2
880,Right,0,60,80,212.75,0.479167,Sixteenth,G#4_D#4_C4
883,Left,1,51,80,213.0,0.479167,Sixteenth,D#3_D#2
885,Right,0,61,80,213.25,0.479167,Sixteenth,G4_D#4_C#4
888,Left,1,46,80,213.5,0.479167,Sixteenth,A#3_A#2
890,Right,0,67,80,213.75,0.479167,Sixteenth,G4_D#4_C#4
893,Left,1,51,80,214.0,0.479167,Sixteenth,D#3_D#2
895,Right,0,63,80,214.25,0.479167,Sixteenth,G#4_D#4
897,Left,1,48,80,214.5,0.479167,Sixteenth,C4_C3
899,Right,0,68,80,214.75,0.479167,Sixteenth,G#4_D#4
901,Left,1,39,80,215.0,0.479167,Sixteenth,D#3_D#2
903,Right,0,67,80,215.25,0.479167,Sixteenth,G4_D#4
905,Left,1,46,80,215.5,0.479167,Sixteenth,A#3_A#2
907,Right,0,67,80,215.75,0.479167,Sixteenth,G4_D#4
909,Left,1,60,80,216.0,0.072917,TripletSixtyFourth,C4
910,Left,1,58,80,216.083333,0.15625,TripletThirtySecond,A#3
911,Right,0,68,80,216.25,0.479167,Sixteenth,G#4_F#4_D#4
914,Left,1,57,80,216.25,0.229167,ThirtySecond,A3
915,Left,1,58,80,216.5,0.229167,ThirtySecond,A#3
916,Right,0,63,80,216.75,0.479167,Sixteenth,G#4_F#4_D#4
919,Left,1,60,80,216.75,0.229167,ThirtySecond,C4
920,Left,1,49,80,217.0,0.479167,Sixteenth,C#3
921,Right,0,68,80,217.25,0.479167,Sixteenth,G#4_F4
923,Left,1,61,80,217.5,0.479167,Sixteenth,C#4
924,Right,0,65,80,217.75,0.479167,Sixteenth,G#4_F4
926,Left,1,53,80,218.0,0.479167,Sixteenth,F3
927,Right,0,68,80,218.25,0.479167,Sixteenth,G#5_G#4
929,Left,1,61,80,218.5,0.479167,Sixteenth,C#4
930,Right,0,68,80,218.75,0.479167,Sixteenth,G#5_G#4
932,Left,1,51,80,219.0,0.479167,Sixteenth,D#3
933,Right,0,80,80,219.25,0.479167,Sixteenth,G#5_G#4
935,Left,1,60,80,219.5,0.479167,Sixteenth,C4
936,Right,0,80,80,219.75,0.479167,Sixteenth,G#5_G#4
938,Left,1,50,80,220.0,0.479167,Sixteenth,D3
939,Right,0,68,80,220.25,0.479167,Sixteenth,G#5_G#4
941,Left,1,65,80,220.5,0.479167,Sixteenth,F4
942,Right,0,80,80,220.75,0.479167,Sixteenth,G#5_G#4
944,Left,1,49,80,221.0,0.479167,Sixteenth,C#3
945,Right,0,79,80,221.25,0.479167,Sixteenth,G5_G4
947,Left,1,58,80,221.5,0.479167,Sixteenth,A#3
948,Right,0,79,80,221.75,0.479167,Sixteenth,G5_G4
950,Left,1,48,80,222.0,0.479167,Sixteenth,C3
951,Right,0,80,80,222.25,0.479167,Sixteenth,G#5_G#4
953,Left,1,63,80,222.5,0.479167,Sixteenth,D#4
954,Right,0,68,80,222.75,0.479167,Sixteenth,G#5_G#4
956,Left,1,41,80,223.0,0.479167,Sixteenth,F2
957,Right,0,73,80,223.25,0.479167,Sixteenth,C#6_C#5
959,Left,1,56,80,223.5,0.479167,Sixteenth,G#3
960,Right,0,65,80,223.75,0.479167,Sixteenth,F5_F4
962,Left,1,43,80,224.0,0.479167,Sixteenth,G2
963,Right,0,76,80,224.25,0.479167,Sixteenth,E5_E4
965,Left,1,61,80,224.5,0.479167,Sixteenth,C#4
966,Right,0,75,80,224.75,0.479167,Sixteenth,D#5_D#4
968,Left,1,44,80,225.0,0.479167,Sixteenth,G#2
969,Right,0,75,80,225.25,0.479167,Sixteenth,D#5_D#4
971,Left,1,60,80,225.5,0.479167,Sixteenth,C4
972,Right,0,63,80,225.75,0.479167,Sixteenth,D#5_D#4
974,Left,1,39,80,226.0,0.479167,Sixteenth,D#2
975,Right,0,66,80,226.25,0.479167,Sixteenth,F#4_D#5_D#4
978,Left,1,57,80,226.5,0.479167,Sixteenth,A3
979,Right,0,63,80,226.75,0.479167,Sixteenth,F#4_D#5_D#4
982,Left,1,39,80,227.0,0.479167,Sixteenth,D#2
983,Right,0,63,80,227.25,0.479167,Sixteenth,G4_D#5_D#4
986,Left,1,58,80,227.5,0.479167,Sixteenth,A#3
987,Right,0,63,80,227.75,0.479167,Sixteenth,G4_D#5_D#4
990,Left,1,51,80,228.0,0.479167,Sixteenth,D#3_D#2
992,Right,0,75,80,228.25,0.479167,Sixteenth,D#5_D#4
994,Left,1,39,80,228.5,0.479167,Sixteenth,D#3_D#2
996,Right,0,75,80,228.75,0.479167,Sixteenth,D#5_D#4
998,Left,1,39,80,229.0,0.479167,Sixteenth,D#3_D#2
1000,Right,0,75,80,229.25,0.479167,Sixteenth,D#5_D#4_C5
1003,Left,1,44,80,229.5,0.479167,Sixteenth,G#3_G#2
1005,Right,0,63,80,229.75,0.479167,Sixteenth,D#5_D#4_C5
1008,Left,1,44,80,230.0,0.479167,Sixteenth,G#3_G#2
1010,Right,0,75,80,230.25,0.479167,Sixteenth,D#5_D#4_C5
1013,Left,1,56,80,230.5,0.479167,Sixteenth,G#3_G#2
1015,Right,0,75,80,230.75,0.479167,Sixteenth,D#5_D#4_C5
1018,Left,1,56,80,231.0,0.479167,Sixteenth,G#3_G#2
1020,Right,0,75,80,231.25,0.479167,Sixteenth,D#5_D#4_C5
1023,Left,1,44,80,231.5,0.479167,Sixteenth,G#3_G#2
1025,Right,0,63,80,231.75,0.479167,Sixteenth,D#5_D#4_C5
1028,Left,1,46,80,232.0,0.479167,Sixteenth,G#3_A#2
1030,Right,0,75,80,232.25,0.479167,Sixteenth,D#5_D#4_C#5
1033,Left,1,46,80,232.5,0.479167,Sixteenth,G3_A#2
1035,Right,0,73,80,232.75,0.479167,Sixteenth,D#5_D#4_C#5
1038,Left,1,55,80,233.0,0.479167,Sixteenth,G3_A#2
1040,Right,0,75,80,233.25,0.479167,Sixteenth,D#5_D#4_C#5
1043,Left,1,53,80,233.5,0.479167,Sixteenth,F3_A#2
1045,Right,0,75,80,233.75,0.479167,Sixteenth,D#5_D#4_C#5
1048,Left,1,55,80,234.0,0.479167,Sixteenth,G3_A#2
1050,Right,0,75,80,234.25,0.479167,Sixteenth,D#5_D#4_C#5
1053,Left,1,51,80,234.5,0.479167,Sixteenth,D#3_A#2
1055,Right,0,63,80,234.75,0.479167,Sixteenth,G4_D#5_D#4
1058,Left,1,48,80,235.0,0.479167,Sixteenth,D#3_C3
1060,Right,0,63,80,235.25,0.479167,Sixteenth,G#4_D#5_D#4
1063,Left,1,56,80,235.5,0.479167,Sixteenth,G#3
1064,Right,0,75,80,235.75,0.479167,Sixteenth,D#5_D#4_C5
1067,Left,1,51,80,236.0,0.479167,Sixteenth,D#3_C3
1069,Right,0,75,80,236.25,0.479167,Sixteenth,G#4_D#5_D#4
1072,Left,1,56,80,236.5,0.479167,Sixteenth,G#3
1073,Right,0,75,80,236.75,0.479167,Sixteenth,D#5_D#4_C5
1076,Left,1,43,80,237.0,0.479167,Sixteenth,G2_D#3
1078,Right,0,70,80,237.25,0.479167,Sixteenth,D#5_D#4_A#4
1081,Left,1,58,80,237.5,0.479167,Sixteenth,A#3
1082,Right,0,73,80,237.75,0.479167,Sixteenth,D#5_D#4_C#5
1085,Left,1,51,80,238.0,0.479167,Sixteenth,G#2_D#3
1087,Right,0,68,80,238.25,0.479167,Sixteenth,G#4_D#5_D#4_C5
1091,Left,1,60,80,238.5,0.479167,Sixteenth,C4
1092,Right,0,63,80,238.75,0.479167,Sixteenth,G#4_D#5_D#4_C5
1096,Left,1,51,80,239.0,0.479167,Sixteenth,D#3_D#2
1098,Right,0,75,80,239.25,0.479167,Sixteenth,G4_D#5_D#4_A#4
1102,Left,1,58,80,239.5,0.479167,Sixteenth,A#3
1103,Right,0,75,80,239.75,0.479167,Sixteenth,G4_D#5_D#4_A#4
1107,Left,1,60,80,240.0,0.0625,TripletSixtyFourth,C4
1108,Left,1,58,80,240.072917,0.166667,TripletThirtySecond,A#3
1113,Left,1,57,80,240.25,0.229167,ThirtySecond,A3
1109,Right,0,66,80,240.25,0.479167,Sixteenth,G#4_F#4_D#5_D#4
1114,Left,1,58,80,240.5,0.229167,ThirtySecond,A#3
1115,Left,1,60,80,240.75,0.229167,ThirtySecond,C4
1116,Right,0,63,80,240.75,0.479167,Sixteenth,G#4_F#4_D#5_D#4
1120,Left,1,49,80,241.0,0.479167,Sixteenth,C#3
1121,Right,0,65,80,241.25,0.479167,Sixteenth,G#4_F5_F4
1124,Left,1,61,80,241.5,0.479167,Sixteenth,C#4
1125,Right,0,68,80,241.75,0.479167,Sixteenth,G#4_F5_F4
1128,Left,1,53,80,242.0,0.479167,Sixteenth,F3
1129,Right,0,80,80,242.25,0.479167,Sixteenth,G#5_G#4
1131,Left,1,61,80,242.5,0.479167,Sixteenth,C#4
1132,Right,0,80,80,242.75,0.479167,Sixteenth,G#5_G#4
1134,Left,1,51,80,243.0,0.479167,Sixteenth,D#3
1135,Right,0,68,80,243.25,0.479167,Sixteenth,G#5_G#4
1137,Left,1,60,80,243.5,0.479167,Sixteenth,C4
1138,Right,0,80,80,243.75,0.479167,Sixteenth,G#5_G#4
1140,Left,1,50,80,244.0,0.479167,Sixteenth,D3
1141,Right,0,80,80,244.25,0.479167,Sixteenth,G#5_G#4
1143,Left,1,65,80,244.5,0.479167,Sixteenth,F4
1144,Right,0,68,80,244.75,0.479167,Sixteenth,G#5_G#4
1146,Left,1,49,80,245.0,0.479167,Sixteenth,C#3
1147,Right,0,79,80,245.25,0.479167,Sixteenth,G5_G4
1149,Left,1,58,80,245.5,0.479167,Sixteenth,A#3
1150,Right,0,79,80,245.75,0.479167,Sixteenth,G5_G4
1152,Left,1,48,80,246.0,0.479167,Sixteenth,C3
1153,Right,0,68,80,246.25,0.479167,Sixteenth,G#5_G#4
1155,Left,1,63,80,246.5,0.479167,Sixteenth,D#4
1156,Right,0,68,80,246.75,0.479167,Sixteenth,G#5_G#4
1158,Left,1,51,80,247.0,0.479167,Sixteenth,D#3
1159,Right,0,75,80,247.25,0.479167,Sixteenth,D#5_D#4_C5
1162,Left,1,56,80,247.5,0.479167,Sixteenth,G#3
1163,Right,0,63,80,247.75,0.479167,Sixteenth,D#5_D#4_C5
1166,Left,1,39,80,248.0,0.479167,Sixteenth,D#2
1167,Right,0,63,80,248.25,0.479167,Sixteenth,G#4_D#5_D#4_C5
1171,Left,1,60,80,248.5,0.479167,Sixteenth,C4
1172,Right,0,75,80,248.75,0.479167,Sixteenth,G#4_D#5_D#4_C5
1176,Left,1,39,80,249.0,0.479167,Sixteenth,D#2
1177,Right,0,67,80,249.25,0.479167,Sixteenth,G4_D#4_C#4
1180,Left,1,58,80,249.5,0.479167,Sixteenth,A#3
1181,Right,0,63,80,249.75,0.479167,Sixteenth,G4_D#4_C#4
1184,Left,1,44,80,250.0,0.479167,Sixteenth,G#2
1185,Right,0,60,80,250.25,0.479167,Sixteenth,G#4_D#4_C4
1188,Left,1,56,80,250.5,0.479167,Sixteenth,G#3
1189,Right,0,60,80,250.75,0.479167,Sixteenth,G#4_D#4_C4
1192,Left,1,32,80,251.0,0.979167,Eighth,G#1
1193,Left,1,45,80,252.0,0.479167,Sixteenth,A2
1194,Right,0,77,80,252.25,0.479167,Sixteenth,F5_F4
1196,Left,1,60,80,252.5,0.479167,Sixteenth,C4
1197,Right,0,77,80,252.75,0.479167,Sixteenth,F5_F4
1199,Left,1,45,80,253.0,0.479167,Sixteenth,A2
1200,Right,0,65,80,253.25,0.479167,Sixteenth,F5_F4
1202,Left,1,60,80,253.5,0.479167,Sixteenth,C4
1203,Right,0,89,80,253.75,0.479167,Sixteenth,F6_F5
1205,Left,1,43,80,254.0,0.479167,Sixteenth,G2
1206,Right,0,88,80,254.25,0.479167,Sixteenth,E6_E5
1208,Left,1,58,80,254.5,0.479167,Sixteenth,A#3
1209,Right,0,76,80,254.75,0.479167,Sixteenth,E6_E5
1211,Left,1,45,80,255.0,0.479167,Sixteenth,A2
1212,Right,0,87,80,255.25,0.479167,Sixteenth,D#6_D#5
1214,Left,1,60,80,255.5,0.479167,Sixteenth,C4
1215,Right,0,87,80,255.75,0.479167,Sixteenth,D#6_D#5
1217,Left,1,46,80,256.0,0.479167,Sixteenth,A#2
1218,Right,0,73,80,256.25,0.479167,Sixteenth,C#6_C#5
1220,Left,1,61,80,256.5,0.479167,Sixteenth,C#4
1221,Right,0,85,80,256.75,0.479167,Sixteenth,C#6_C#5
1223,Left,1,49,80,257.0,0.479167,Sixteenth,C#3
1224,Right,0,82,80,257.25,0.479167,Sixteenth,A#5_A#4
1226,Left,1,65,80,257.5,0.479167,Sixteenth,F4
1227,Right,0,82,80,257.75,0.479167,Sixteenth,A#5_A#4
1229,Left,1,46,90,258.0,0.479167,Sixteenth,A#2_A#1
1231,Right,0,77,80,258.25,0.479167,Sixteenth,F5_F4_C#5
1234,Left,1,32,80,258.5,0.479167,Sixteenth,G#2_G#1
1236,Right,0,76,80,258.75,0.479167,Sixteenth,E5_E4_C#5
1239,Left,1,31,80,259.0,0.479167,Sixteenth,G2_G1
1241,Right,0,73,80,259.25,0.479167,Sixteenth,D#5_D#4_C#5
1244,Left,1,58,80,259.5,0.479167,Sixteenth,A#3
1245,Right,0,75,80,259.75,0.479167,Sixteenth,D#6_D#5
1247,Left,1,41,80,260.0,0.479167,Sixteenth,F2
1248,Right,0,86,80,260.25,0.479167,Sixteenth,D6_D5
1250,Left,1,56,80,260.5,0.479167,Sixteenth,G#3
1251,Right,0,86,80,260.75,0.479167,Sixteenth,D6_D5
1253,Left,1,44,80,261.0,0.479167,Sixteenth,G#2
1254,Right,0,85,80,261.25,0.479167,Sixteenth,C#6_C#5
1256,Left,1,58,80,261.5,0.479167,Sixteenth,A#3
1257,Right,0,73,80,261.75,0.479167,Sixteenth,C#6_C#5
1259,Left,1,44,80,262.0,0.479167,Sixteenth,G#2
1260,Right,0,72,80,262.25,0.479167,Sixteenth,C6_C5
1262,Left,1,60,80,262.5,0.479167,Sixteenth,C4
1263,Right,0,84,80,262.75,0.479167,Sixteenth,C6_C5
1265,Left,1,48,80,263.0,0.479167,Sixteenth,C3
1266,Right,0,68,80,263.25,0.479167,Sixteenth,G#5_G#4
1268,Left,1,63,80,263.5,0.479167,Sixteenth,D#4
1269,Right,0,68,80,263.75,0.479167,Sixteenth,G#5_G#4
1271,Left,1,48,80,264.0,0.479167,Sixteenth,C3
1272,Right,0,68,80,264.25,0.479167,Sixteenth,G#5_G#4
1274,Left,1,51,80,264.5,0.479167,Sixteenth,D#3
1275,Right,0,80,80,264.75,0.479167,Sixteenth,G#5_G#4
1277,Left,1,48,80,265.0,0.479167,Sixteenth,C3
1278,Right,0,68,80,265.25,0.479167,Sixteenth,G#5_G#4
1280,Left,1,51,80,265.5,0.479167,Sixteenth,D#3
1281,Right,0,80,80,265.75,0.479167,Sixteenth,G#5_G#4
1283,Left,1,47,80,266.0,0.479167,Sixteenth,B2
1284,Right,0,80,80,266.25,0.479167,Sixteenth,G#5_G#4
1286,Left,1,50,80,266.5,0.479167,Sixteenth,D3
1287,Right,0,80,80,266.75,0.479167,Sixteenth,G#5_G#4
1289,Left,1,46,80,267.0,0.479167,Sixteenth,A#2
1290,Right,0,79,80,267.25,0.479167,Sixteenth,G5_G4
1292,Left,1,52,80,267.5,0.479167,Sixteenth,E3
1293,Right,0,79,80,267.75,0.479167,Sixteenth,G5_G4
1295,Left,1,44,80,268.0,0.479167,Sixteenth,G#2
1296,Right,0,72,80,268.25,0.479167,Sixteenth,C6_C5
1298,Left,1,53,80,268.5,0.479167,Sixteenth,F3
1299,Right,0,72,80,268.75,0.479167,Sixteenth,C6_C5
1301,Left,1,43,80,269.0,0.479167,Sixteenth,G2
1302,Right,0,76,80,269.25,0.479167,Sixteenth,E5_C5_A#4
1305,Left,1,55,80,269.5,0.479167,Sixteenth,G3
1306,Right,0,76,80,269.75,0.479167,Sixteenth,E5_C5_A#4
1309,Left,1,41,80,270.0,0.479167,Sixteenth,F2
1310,Right,0,68,80,270.25,0.479167,Sixteenth,G#4_F5_C5
1313,Left,1,56,80,270.5,0.229167,ThirtySecond,G#3
1314,Right,0,68,80,270.75,0.479167,Sixteenth,G#4_F5_C5
1317,Left,1,53,80,270.75,0.229167,ThirtySecond,F3
1318,Left,1,46,80,271.0,0.479167,Sixteenth,A#2
1319,Right,0,79,80,271.25,0.479167,Sixteenth,G5_G4
1321,Left,1,51,80,271.5,0.479167,Sixteenth,D#3
1322,Right,0,79,80,271.75,0.479167,Sixteenth,G5_G4
1324,Left,1,46,80,272.0,0.479167,Sixteenth,A#2
1325,Right,0,79,80,272.25,0.479167,Sixteenth,G5_G4
1327,Left,1,51,80,272.5,0.479167,Sixteenth,D#3
1328,Right,0,67,80,272.75,0.479167,Sixteenth,G5_G4
1330,Left,1,47,80,273.0,0.479167,Sixteenth,B2
1331,Right,0,80,80,273.25,0.479167,Sixteenth,G#5_G#4_F5
1334,Left,1,50,80,273.5,0.479167,Sixteenth,D3
1335,Right,0,68,80,273.75,0.479167,Sixteenth,G#5_G#4_F5
1338,Left,1,48,80,274.0,0.479167,Sixteenth,C3
1339,Right,0,79,80,274.25,0.479167,Sixteenth,G5_G4_F5
1342,Left,1,51,80,274.5,0.479167,Sixteenth,D#3
1343,Right,0,79,80,274.75,0.479167,Sixteenth,G5_G4_D#5
1346,Left,1,48,80,275.0,0.479167,Sixteenth,C3
1347,Right,0,79,80,275.25,0.479167,Sixteenth,G5_G4_D#5
1350,Left,1,51,80,275.5,0.479167,Sixteenth,D#3
1351,Right,0,67,80,275.75,0.479167,Sixteenth,G5_G4_D#5
1354,Left,1,45,80,276.0,0.479167,Sixteenth,A2
1355,Right,0,84,80,276.25,0.479167,Sixteenth,D#5_C6_C5
1358,Left,1,55,80,276.5,0.229167,ThirtySecond,G3
1360,Right,0,72,80,276.75,0.479167,Sixteenth,D#5_C6_C5
1359,Left,1,53,80,276.75,0.229167,ThirtySecond,F3
1363,Left,1,46,80,277.0,0.479167,Sixteenth,A#2
1364,Right,0,82,80,277.25,0.479167,Sixteenth,G5_D#5_A#5_A#4
1368,Left,1,51,80,277.5,0.479167,Sixteenth,D#3
1369,Right,0,75,80,277.75,0.479167,Sixteenth,G5_D#5_A#5_A#4
1373,Left,1,46,80,278.0,0.479167,Sixteenth,A#2
1374,Right,0,75,80,278.25,0.479167,Sixteenth,G4_D#5_A#4
1377,Left,1,51,80,278.5,0.479167,Sixteenth,D#3
1378,Right,0,67,80,278.75,0.479167,Sixteenth,G4_D#5_A#4
1381,Left,1,34,80,279.0,0.479167,Sixteenth,A#1
1382,Right,0,77,80,279.25,0.479167,Sixteenth,G#4_F5_A#4
1385,Left,1,50,80,279.5,0.479167,Sixteenth,D3
1386,Right,0,77,80,279.75,0.479167,Sixteenth,G#4_F5_A#4
1389,Left,1,39,80,280.0,0.479167,Sixteenth,D#2
1390,Right,0,75,80,280.25,0.479167,Sixteenth,G4_D#5_A#4
1393,Left,1,51,80,280.5,0.479167,Sixteenth,D#3
1394,Right,0,75,80,280.75,0.479167,Sixteenth,G4_D#5_A#4
1397,Left,1,41,80,281.0,0.479167,Sixteenth,F2
1398,Right,0,74,80,281.25,0.479167,Sixteenth,G#4_D5_D#4
1401,Left,1,51,80,281.5,0.479167,Sixteenth,D#3
1402,Right,0,74,80,281.75,0.479167,Sixteenth,G#4_D5_D#4
1405,Left,1,43,80,282.0,0.479167,Sixteenth,G2
1406,Right,0,73,80,282.25,0.479167,Sixteenth,D#4_C#5_A#4
1409,Left,1,51,80,282.5,0.479167,Sixteenth,D#3
1410,Right,0,73,80,282.75,0.479167,Sixteenth,D#4_C#5_A#4
1413,Left,1,53,80,283.0,0.479167,Sixteenth,G#2_F3
1415,Right,0,63,80,283.25,0.479167,Sixteenth,G#4_D#4_C5
1418,Left,1,44,80,283.5,0.479167,Sixteenth,G#3_G#2
1420,Right,0,63,80,283.75,0.479167,Sixteenth,G#4_D#5_D#4_C5
1424,Left,1,44,80,284.0,0.479167,Sixteenth,G#3_G#2
1426,Right,0,63,80,284.25,0.479167,Sixteenth,G#4_D#5_D#4_C5
1430,Left,1,56,80,284.5,0.479167,Sixteenth,G#3_G#2
1432,Right,0,63,80,284.75,0.479167,Sixteenth,G#4_D#5_D#4_C5
1436,Left,1,56,80,285.0,0.479167,Sixteenth,G#3_G#2
1438,Right,0,63,80,285.25,0.479167,Sixteenth,G#4_D#5_D#4_C5
1442,Left,1,56,80,285.5,0.479167,Sixteenth,G#3_G#2
1444,Right,0,63,80,285.75,0.479167,Sixteenth,G#4_D#5_D#4_C5
1448,Left,1,56,80,286.0,0.479167,Sixteenth,G#3_G#2
1450,Right,0,75,80,286.25,0.479167,Sixteenth,D#5_D#4_C#5_A#4
1454,Left,1,55,80,286.5,0.479167,Sixteenth,G3_G2
1456,Right,0,63,80,286.75,0.479167,Sixteenth,D#5_D#4_C#5_A#4
1460,Left,1,55,80,287.0,0.479167,Sixteenth,G3_G2
1462,Right,0,73,80,287.25,0.479167,Sixteenth,D#5_D#4_C#5_A#4
1466,Left,1,53,80,287.5,0.479167,Sixteenth,F3_F2
1468,Right,0,75,80,287.75,0.479167,Sixteenth,D#5_D#4_C#5_A#4
1472,Left,1,43,80,288.0,0.479167,Sixteenth,G3_G2
1474,Right,0,63,80,288.25,0.479167,Sixteenth,D#5_D#4_C#5_A#4
1478,Left,1,51,80,288.5,0.479167,Sixteenth,D#3_D#2
1480,Right,0,75,80,288.75,0.479167,Sixteenth,D#5_D#4_C#5_A#4
1484,Left,1,51,80,289.0,0.479167,Sixteenth,D#3_D#2
1486,Right,0,63,80,289.25,0.479167,Sixteenth,G#4_D#5_D#4_C5
1490,Left,1,44,80,289.5,0.479167,Sixteenth,G#3_G#2
1492,Right,0,68,80,289.75,0.479167,Sixteenth,G#4_D#5_D#4_C5
1496,Left,1,39,80,290.0,0.479167,Sixteenth,D#3_D#2
1498,Right,0,72,80,290.25,0.479167,Sixteenth,G#4_D#5_D#4_C5
1502,Left,1,44,80,290.5,0.479167,Sixteenth,G#3_G#2
1504,Right,0,63,80,290.75,0.479167,Sixteenth,G#4_D#5_D#4_C5
1508,Left,1,51,80,291.0,0.479167,Sixteenth,D#3_D#2
1510,Right,0,73,80,291.25,0.479167,Sixteenth,G4_D#5_D#4_C#5
1514,Left,1,58,80,291.5,0.479167,Sixteenth,A#3_A#2
1516,Right,0,63,80,291.75,0.479167,Sixteenth,G4_D#5_D#4
1519,Left,1,44,80,292.0,0.479167,Sixteenth,G#2_D#3
1521,Right,0,75,80,292.25,0.479167,Sixteenth,G#4_D#5_D#4
1524,Left,1,60,80,292.5,0.479167,Sixteenth,C4
1525,Right,0,68,80,292.75,0.479167,Sixteenth,G#4_D#5_D#4
1528,Left,1,51,80,293.0,0.479167,Sixteenth,D#3_D#2
1530,Right,0,67,80,293.25,0.479167,Sixteenth,G4_D#5_D#4
1533,Left,1,58,80,293.5,0.479167,Sixteenth,A#3
1534,Right,0,67,80,293.75,0.479167,Sixteenth,G4_D#5_D#4
1537,Left,1,60,80,294.0,0.0625,TripletSixtyFourth,C4
1538,Left,1,58,80,294.072917,0.166667,TripletThirtySecond,A#3
1540,Right,0,68,80,294.25,0.479167,Sixteenth,G#4_F#4_D#5_D#4
1539,Left,1,57,80,294.25,0.229167,ThirtySecond,A3
1544,Left,1,58,80,294.5,0.229167,ThirtySecond,A#3
1546,Right,0,63,80,294.75,0.479167,Sixteenth,G#4_F#4_D#5_D#4
1545,Left,1,60,80,294.75,0.229167,ThirtySecond,C4
1550,Left,1,49,80,295.0,0.479167,Sixteenth,C#3
1551,Right,0,77,80,295.25,0.479167,Sixteenth,G#4_F5_F4
1554,Left,1,61,80,295.5,0.479167,Sixteenth,C#4
1555,Right,0,68,80,295.75,0.479167,Sixteenth,G#4_F5_F4
1558,Left,1,53,80,296.0,0.479167,Sixteenth,F3
1559,Right,0,80,80,296.25,0.479167,Sixteenth,G#5_G#4
1561,Left,1,61,80,296.5,0.479167,Sixteenth,C#4
1562,Right,0,68,80,296.75,0.479167,Sixteenth,G#5_G#4
1564,Left,1,51,80,297.0,0.479167,Sixteenth,D#3
1565,Right,0,68,80,297.25,0.479167,Sixteenth,G#5_G#4
1567,Left,1,60,80,297.5,0.479167,Sixteenth,C4
1568,Right,0,80,80,297.75,0.479167,Sixteenth,G#5_G#4
1570,Left,1,50,80,298.0,0.479167,Sixteenth,D3
1571,Right,0,68,80,298.25,0.479167,Sixteenth,G#5_G#4
1573,Left,1,65,80,298.5,0.479167,Sixteenth,F4
1574,Right,0,80,80,298.75,0.479167,Sixteenth,G#5_G#4
1576,Left,1,49,80,299.0,0.479167,Sixteenth,C#3
1577,Right,0,79,80,299.25,0.479167,Sixteenth,G5_G4
1579,Left,1,58,80,299.5,0.479167,Sixteenth,A#3
1580,Right,0,79,80,299.75,0.479167,Sixteenth,G5_G4
1582,Left,1,48,80,300.0,0.479167,Sixteenth,C3
1583,Right,0,68,80,300.25,0.479167,Sixteenth,G#5_G#4
1585,Left,1,63,80,300.5,0.479167,Sixteenth,D#4
1586,Right,0,68,80,300.75,0.479167,Sixteenth,G#5_G#4
1588,Left,1,51,80,301.0,0.479167,Sixteenth,D#3
1589,Right,0,63,80,301.25,0.479167,Sixteenth,D#5_D#4_C5
1592,Left,1,56,80,301.5,0.479167,Sixteenth,G#3
1593,Right,0,63,80,301.75,0.479167,Sixteenth,D#5_D#4_C5
1596,Left,1,39,80,302.0,0.479167,Sixteenth,D#2
1597,Right,0,72,80,302.25,0.479167,Sixteenth,G#4_D#5_D#4_C5
1601,Left,1,60,80,302.5,0.479167,Sixteenth,C4
1602,Right,0,75,80,302.75,0.479167,Sixteenth,G#4_D#5_D#4_C5
1606,Left,1,39,80,303.0,0.479167,Sixteenth,D#2
1607,Right,0,67,80,303.25,0.479167,Sixteenth,G4_D#4_C#4
1610,Left,1,58,80,303.5,0.479167,Sixteenth,A#3
1611,Right,0,61,80,303.75,0.479167,Sixteenth,G4_D#4_C#4
1614,Left,1,44,80,304.0,0.479167,Sixteenth,G#2
1615,Right,0,68,80,304.25,0.479167,Sixteenth,G#4_D#4_C4
1618,Left,1,56,80,304.5,0.479167,Sixteenth,G#3
1619,Right,0,68,80,304.75,0.479167,Sixteenth,G#4_D#4_C4
1622,Left,1,32,80,305.0,0.979167,Eighth,G#1
1623,Right,0,51,80,306.0,0.479167,Sixteenth,D#3
1624,Right,0,51,80,306.5,0.979167,Eighth,D#3
1625,Left,1,47,80,307.0,0.979167,Eighth,G#2_B2
1627,Right,0,56,80,307.5,0.979167,Eighth,G#3
1628,Left,1,44,80,308.0,0.979167,Eighth,G#2_B2
1630,Right,0,56,80,308.5,0.979167,Eighth,G#3
1631,Left,1,47,80,309.0,0.979167,Eighth,G#2_B2
1633,Right,0,56,80,309.5,0.979167,Eighth,G#3
1634,Left,1,49,80,310.0,0.979167,Eighth,C#3_A#2
1636,Right,0,55,80,310.5,0.979167,Eighth,G3
1637,Left,1,46,80,311.0,0.979167,Eighth,C#3_A#2
1639,Right,0,55,80,311.5,0.979167,Eighth,G3
1640,Left,1,49,80,312.0,0.979167,Eighth,C#3_A#2
1642,Right,0,55,80,312.5,0.979167,Eighth,G3
1643,Left,1,51,80,313.0,0.979167,Eighth,D#3_B2
1645,Right,0,56,80,313.5,0.979167,Eighth,G#3
1646,Left,1,51,80,314.0,0.979167,Eighth,D#3_B2
1648,Right,0,56,80,314.5,0.979167,Eighth,G#3
1649,Left,1,51,80,315.0,0.979167,Eighth,D#3_B2
1651,Right,0,56,80,315.5,0.979167,Eighth,G#3
1652,Left,1,52,80,316.0,0.979167,Eighth,E3_C#3
1654,Right,0,57,80,316.5,0.979167,Eighth,A3
1655,Left,1,49,80,317.0,0.979167,Eighth,E3_C#3
1657,Right,0,57,80,317.5,0.979167,Eighth,A3
1658,Left,1,49,80,318.0,0.979167,Eighth,E3_C#3
1660,Right,0,57,80,318.5,0.979167,Eighth,A3
1661,Left,1,54,80,319.0,0.979167,Eighth,F#3_D#3
1663,Right,0,60,81,319.5,0.979167,Eighth,C4
1664,Left,1,51,82,320.0,0.979167,Eighth,F#3_D#3_A3
1667,Right,0,60,83,320.5,0.979167,Eighth,C4
1668,Left,1,51,84,321.0,0.979167,Eighth,F#3_D#3_A3
1671,Right,0,60,85,321.5,0.979167,Eighth,C4
1672,Left,1,56,86,322.0,0.979167,Eighth,G#3_E3
1674,Right,0,61,87,322.5,0.979167,Eighth,C#4
1675,Left,1,52,88,323.0,0.979167,Eighth,G#3_E3
1677,Right,0,61,89,323.5,0.979167,Eighth,C#4
1678,Left,1,52,91,324.0,0.979167,Eighth,G#3_E3
1680,Right,0,61,92,324.5,0.979167,Eighth,C#4
1681,Left,1,59,93,325.0,0.979167,Eighth,F3_B3
1683,Right,0,62,94,325.5,0.979167,Eighth,D4
1684,Left,1,53,95,326.0,0.979167,Eighth,F3_A#3
1686,Right,0,62,96,326.5,0.979167,Eighth,D4
1687,Left,1,53,97,327.0,0.979167,Eighth,G#3_F3
1689,Right,0,62,98,327.5,1.479167,DottedEighth,D4
1690,Left,1,51,99,328.0,1.979167,Quarter,G#3_D#3
1693,Right,0,63,80,329.0,0.979167,Eighth,D#4
1692,Left,1,55,80,329.0,0.979167,Eighth,G3
1694,Right,0,63,80,330.0,0.479167,Sixteenth,D#4_D#3
1696,Right,0,63,80,330.5,0.979167,Eighth,D#4_D#3
1698,Left,1,32,80,331.0,0.979167,Eighth,G#1
1699,Right,0,68,80,331.5,0.979167,Eighth,G#4_G#3
1701,Left,1,44,80,332.0,0.979167,Eighth,G#2_B2
1703,Right,0,68,80,332.5,0.979167,Eighth,G#4_G#3
1705,Left,1,44,80,333.0,0.979167,Eighth,G#2_B2
1707,Right,0,68,80,333.5,0.979167,Eighth,G#4_G#3
1709,Left,1,34,80,334.0,0.979167,Eighth,A#1
1710,Right,0,55,80,334.5,0.979167,Eighth,G4_G3
1712,Left,1,46,80,335.0,0.979167,Eighth,C#3_A#2
1714,Right,0,67,80,335.5,0.979167,Eighth,G4_G3
1716,Left,1,46,80,336.0,0.979167,Eighth,C#3_A#2
1718,Right,0,55,80,336.5,0.979167,Eighth,G4_G3
1720,Left,1,35,80,337.0,0.979167,Eighth,B1
1721,Right,0,56,80,337.5,0.979167,Eighth,G#4_G#3
1723,Left,1,51,80,338.0,0.979167,Eighth,D#3_B2
1725,Right,0,56,80,338.5,0.979167,Eighth,G#4_G#3
1727,Left,1,47,80,339.0,0.979167,Eighth,D#3_B2
1729,Right,0,56,80,339.5,0.979167,Eighth,G#4_G#3
1731,Left,1,37,80,340.0,0.979167,Eighth,C#2
1732,Right,0,69,80,340.5,0.979167,Eighth,A4_A3
1734,Left,1,49,80,341.0,0.979167,Eighth,E3_C#3
1736,Right,0,57,80,341.5,0.979167,Eighth,A4_A3
1738,Left,1,52,80,342.0,0.979167,Eighth,E3_C#3
1740,Right,0,57,80,342.5,0.979167,Eighth,A4_A3
1742,Left,1,39,80,343.0,0.979167,Eighth,D#2
1743,Right,0,72,81,343.5,0.979167,Eighth,C5_C4
1745,Left,1,57,83,344.0,0.979167,Eighth,F#3_D#3_A3
1748,Right,0,60,84,344.5,0.979167,Eighth,C5_C4
1750,Left,1,51,86,345.0,0.979167,Eighth,F#3_D#3_A3
1753,Right,0,72,88,345.5,0.979167,Eighth,C5_C4
1755,Left,1,40,89,346.0,0.979167,Eighth,E2
1756,Right,0,73,91,346.5,0.979167,Eighth,C#5_C#4
1758,Left,1,56,93,347.0,0.979167,Eighth,G#3_E3
1760,Right,0,61,94,347.5,0.979167,Eighth,C#5_C#4
1762,Left,1,53,96,348.0,0.979167,Eighth,G#3_F3_B3
1765,Right,0,62,98,348.5,0.979167,Eighth,D5_D4
1767,Left,1,56,100,349.0,0.979167,Eighth,G#3_D#3_B3
1770,Right,0,75,97,349.5,0.979167,Eighth,D#5_D#4
1772,Left,1,39,93,350.0,0.979167,Eighth,G#2_D#3_D#2_B2
1776,Right,0,75,89,350.5,0.979167,Eighth,D#5_D#4
1778,Left,1,39,85,351.0,0.979167,Eighth,G2_D#3_D#2_A#2
1782,Right,0,63,81,351.5,0.479167,Sixteenth,D#5_D#4
1784,Right,0,68,80,352.0,0.979167,Eighth,G#4
1785,Left,1,44,80,352.0,0.979167,Eighth,G#3_G#2
1787,Left,1,32,80,353.0,0.979167,Eighth,G#1
1788,Right,0,69,101,354.0,1.979167,Quarter,A4
1789,Right,0,78,100,355.0,3.979167,Half,F#5_D#5
1791,Right,0,68,80,356.0,1.979167,Quarter,G#4
1792,Left,1,60,80,356.0,0.979167,Eighth,C4
1794,Left,1,56,80,357.0,0.979167,Eighth,G#3
1793,Right,0,72,80,357.0,0.979167,Eighth,C5
1795,Left,1,61,80,358.0,0.979167,Eighth,C#4
1796,Right,0,68,80,358.0,1.979167,Quarter,G#4_C#5
1798,Right,0,76,80,359.0,0.979167,Eighth,E5
1799,Left,1,49,80,359.0,0.979167,Eighth,C#3
1800,Right,0,64,102,360.0,1.979167,Quarter,E4
1801,Right,0,70,80,361.0,3.979167,DottedQuarter,C#5_A#4
1804,Right,0,63,80,362.0,3.979167,Half,D#4
1803,Left,1,55,80,362.0,0.979167,Eighth,G3
1806,Right,0,67,80,363.0,0.979167,Eighth,G4
1805,Left,1,51,80,363.0,0.979167,Eighth,D#3
1808,Right,0,68,80,364.0,1.979167,Quarter,G#4
1807,Left,1,56,80,364.0,0.979167,Eighth,G#3
1809,Right,0,71,80,365.0,0.979167,Eighth,B4
1810,Left,1,44,80,365.0,0.979167,Eighth,G#2
1811,Right,0,59,80,366.0,0.479167,Sixteenth,B4_B3
1813,Right,0,59,90,366.5,0.979167,Eighth,B4_B3
1815,Left,1,38,80,367.0,0.979167,Eighth,D2
1816,Right,0,58,80,367.5,0.979167,Eighth,A#4_A#3
1818,Left,1,50,80,368.0,0.979167,Eighth,F3_D3
1820,Right,0,70,80,368.5,0.479167,Sixteenth,A#4_A#3
1822,Left,1,50,80,369.0,0.979167,Eighth,D3_A#3
1823,Right,0,68,80,369.0,0.479167,Sixteenth,G#5_G#4
1826,Right,0,68,90,369.5,0.979167,Eighth,G#5_G#4
1828,Left,1,39,80,370.0,0.979167,Eighth,D#2
1829,Right,0,78,80,370.5,0.979167,Eighth,F#5_F#4
1831,Left,1,51,80,371.0,0.979167,Eighth,D#3_A#3
1833,Right,0,66,80,371.5,0.479167,Sixteenth,F#5_F#4
1836,Left,1,44,80,372.0,0.979167,Eighth,G#3_G#2
1835,Right,0,65,80,372.0,0.479167,Sixteenth,F5_F4
1839,Right,0,77,90,372.5,0.979167,Eighth,F5_F4
1841,Left,1,34,80,373.0,0.979167,Eighth,A#1
1842,Right,0,63,80,373.5,0.979167,Eighth,D#5_D#4
1844,Left,1,46,80,374.0,0.979167,Eighth,F#3_A#2
1846,Right,0,75,80,374.5,0.479167,Sixteenth,D#5_D#4
1848,Right,0,74,80,375.0,0.479167,Sixteenth,D5_D4
1850,Left,1,34,80,375.0,0.979167,Eighth,A#2_A#1
1852,Right,0,74,90,375.5,0.979167,Eighth,D5_D4
1854,Left,1,35,80,376.0,0.979167,Eighth,B2_B1
1856,Right,0,75,80,376.5,0.979167,Eighth,D#5_D#4
1858,Left,1,54,80,377.0,0.979167,Eighth,F#3_B2
1860,Right,0,63,80,377.5,0.479167,Sixteenth,D#5_D#4
1864,Left,1,33,80,378.0,0.979167,Eighth,A2_A1
1862,Right,0,65,80,378.0,0.479167,Sixteenth,F5_F4
1866,Right,0,77,90,378.5,0.979167,Eighth,F5_F4
1868,Left,1,34,80,379.0,0.979167,Eighth,A#2_A#1
1870,Right,0,63,80,379.5,0.979167,Eighth,D#5_D#4
1872,Left,1,51,80,380.0,0.979167,Eighth,F#3_D#3_A#2
1875,Right,0,63,80,380.5,0.479167,Sixteenth,D#5_D#4
1878,Left,1,34,80,381.0,0.979167,Eighth,A#2_A#1
1877,Right,0,62,80,381.0,0.479167,Sixteenth,D5_D4
1881,Right,0,62,90,381.5,0.979167,Eighth,D5_D4
1883,Left,1,51,80,382.0,0.979167,Eighth,D#3_D#2
1885,Right,0,75,80,382.5,0.979167,Eighth,D#5_D#4
1887,Left,1,49,80,383.0,0.979167,Eighth,C#3_C#2
1889,Right,0,51,80,383.5,0.979167,Eighth,D#4_D#3
1891,Left,1,35,80,384.0,0.979167,Eighth,B2_B1
1893,Right,0,51,80,384.5,0.979167,Eighth,D#4_D#3
1895,Left,1,32,80,385.0,0.979167,Eighth,G#1
1896,Right,0,56,80,385.5,0.979167,Eighth,G#4_G#3
1898,Left,1,47,80,386.0,0.979167,Eighth,G#2_B2
1900,Right,0,56,80,386.5,0.979167,Eighth,G#4_G#3
1902,Left,1,47,80,387.0,0.979167,Eighth,G#2_B2
1904,Right,0,68,80,387.5,0.979167,Eighth,G#4_G#3
1906,Left,1,34,80,388.0,0.979167,Eighth,A#1
1907,Right,0,67,80,388.5,0.979167,Eighth,G4_G3
1909,Left,1,49,80,389.0,0.979167,Eighth,C#3_A#2
1911,Right,0,55,80,389.5,0.979167,Eighth,G4_G3
1913,Left,1,49,80,390.0,0.979167,Eighth,C#3_A#2
1915,Right,0,67,80,390.5,0.979167,Eighth,G4_G3
1917,Left,1,35,80,391.0,0.979167,Eighth,B1
1918,Right,0,68,80,391.5,0.979167,Eighth,G#4_G#3
1920,Left,1,47,80,392.0,0.979167,Eighth,D#3_B2
1922,Right,0,68,80,392.5,0.979167,Eighth,G#4_G#3
1924,Left,1,47,80,393.0,0.979167,Eighth,D#3_B2
1926,Right,0,56,80,393.5,0.979167,Eighth,G#4_G#3
1928,Left,1,37,80,394.0,0.979167,Eighth,C#2
1929,Right,0,57,80,394.5,0.979167,Eighth,A4_A3
1931,Left,1,52,80,395.0,0.979167,Eighth,E3_C#3
1933,Right,0,69,80,395.5,0.979167,Eighth,A4_A3
1935,Left,1,49,80,396.0,0.979167,Eighth,E3_C#3
1937,Right,0,57,80,396.5,0.979167,Eighth,A4_A3
1939,Left,1,39,80,397.0,0.979167,Eighth,D#2
1940,Right,0,72,81,397.5,0.979167,Eighth,C5_C4
1942,Left,1,57,83,398.0,0.979167,Eighth,F#3_D#3_A3
1945,Right,0,72,84,398.5,0.979167,Eighth,C5_C4
1947,Left,1,54,86,399.0,0.979167,Eighth,F#3_D#3_A3
1950,Right,0,60,88,399.5,0.979167,Eighth,C5_C4
1952,Left,1,40,89,400.0,0.979167,Eighth,E2
1953,Right,0,73,91,400.5,0.979167,Eighth,C#5_C#4
1955,Left,1,56,93,401.0,0.979167,Eighth,G#3_E3
1957,Right,0,73,94,401.5,0.979167,Eighth,C#5_C#4
1959,Left,1,59,96,402.0,0.979167,Eighth,G#3_F3_B3
1962,Right,0,62,98,402.5,0.979167,Eighth,D5_D4
1964,Left,1,59,100,403.0,0.979167,Eighth,G#3_D#3_B3
1967,Right,0,63,97,403.5,0.979167,Eighth,D#5_D#4
1969,Left,1,47,94,404.0,0.979167,Eighth,G#2_D#3_D#2_B2
1973,Right,0,63,91,404.5,0.979167,Eighth,D#5_D#4
1975,Left,1,51,87,405.0,0.979167,Eighth,G2_D#3_D#2_A#2
1979,Right,0,63,84,405.5,0.479167,Sixteenth,D#5_D#4
1981,Right,0,68,81,406.0,0.979167,Eighth,G#4
1982,Left,1,44,81,406.0,0.979167,Eighth,G#3_G#2
1984,Left,1,32,80,407.0,0.979167,Eighth,G#1
1985,Right,0,63,80,408.0,1.979167,Quarter,D#4
1986,Left,1,48,80,409.0,0.979167,Eighth,G#2_C3
1988,Right,0,68,80,410.0,0.979167,Eighth,G#4
1989,Left,1,60,80,411.0,0.979167,Eighth,G#3_C4
1991,Right,0,80,80,411.0,1.979167,Quarter,G#5
1992,Left,1,58,80,412.0,0.979167,Eighth,C#4_A#3
1994,Right,0,79,80,413.0,0.979167,Eighth,G5
1997,Right,0,67,80,414.0,1.979167,Quarter,G4
1995,Left,1,46,80,414.0,0.979167,Eighth,C#3_A#2
1998,Left,1,51,80,415.0,0.979167,Eighth,D#3_C3
2000,Right,0,68,80,416.0,0.979167,Eighth,G#4
2001,Right,0,80,80,417.0,1.979167,Quarter,G#5_C6
2002,Left,1,60,80,417.0,0.979167,Eighth,D#4_C4
2005,Left,1,62,80,418.0,0.979167,Eighth,F4_D4
2008,Right,0,79,80,419.0,0.979167,Eighth,G5_A#5
2007,Left,1,67,80,419.0,0.979167,Eighth,G4_D#4
2013,Right,0,73,80,420.0,1.979167,Quarter,F4_C#5
2011,Left,1,56,80,420.0,0.979167,Eighth,G#3_F3
2017,Right,0,64,80,421.0,0.979167,Eighth,E4
2015,Left,1,55,80,421.0,0.979167,Eighth,G3_A#3
2018,Right,0,63,80,422.0,0.979167,Eighth,D#4_C5
2019,Left,1,56,80,422.0,0.979167,Eighth,G#3_C4
2023,Left,1,68,80,423.0,0.979167,Eighth,G#4_D4
2022,Right,0,77,80,423.0,1.979167,Quarter,F6_F5
2026,Left,1,67,80,424.0,0.979167,Eighth,G4_C#4_A#4
2029,Left,1,72,80,425.0,0.979167,Eighth,G#4_C5_C4
2032,Right,0,87,80,425.0,0.979167,Eighth,D#6_D#5
2035,Right,0,62,80,426.0,0.979167,Eighth,G#3_D4_B3
2034,Left,1,41,80,426.0,0.979167,Eighth,F2
2039,Right,0,61,80,427.0,0.979167,Eighth,E3_C#4_A#3
2038,Left,1,43,80,427.0,0.979167,Eighth,G2
2045,Left,1,44,83,428.0,0.979167,Eighth,G#2
2042,Right,0,60,83,428.0,0.979167,Eighth,G#3_D#3_C4
2046,Left,1,38,87,429.0,0.979167,Eighth,D2
2047,Right,0,53,87,429.0,1.979167,Quarter,G#3_F3_B3
2050,Left,1,39,91,430.0,0.979167,Eighth,D#2
2051,Right,0,58,94,431.0,0.979167,Eighth,G3_A#3
2052,Left,1,51,94,431.0,0.979167,Eighth,D#3
2054,Right,0,51,80,432.0,1.979167,Quarter,D#4_D#3
2056,Left,1,32,80,433.0,0.979167,Eighth,G#2_G#1
2058,Right,0,56,80,434.0,0.979167,Eighth,G#4_G#3
2060,Right,0,68,80,435.0,1.979167,Quarter,G#5_G#4
2062,Left,1,56,80,435.0,0.479167,Sixteenth,G#3_C4
2064,Left,1,60,80,435.5,0.479167,Sixteenth,G#3_C4
2066,Left,1,61,80,436.0,0.979167,Eighth,C#4_A#3
2068,Right,0,79,80,437.0,0.979167,Eighth,G5_G4
2070,Left,1,46,80,438.0,0.479167,Sixteenth,C#3_A#2
2072,Right,0,55,80,438.0,1.979167,Quarter,G4_G3
2074,Left,1,49,80,438.5,0.479167,Sixteenth,C#3_A#2
2076,Left,1,48,80,439.0,0.979167,Eighth,D#3_C3
2078,Right,0,56,80,440.0,0.979167,Eighth,G#4_G#3
2080,Left,1,63,80,441.0,0.479167,Sixteenth,D#4_C4
2081,Right,0,84,80,441.0,1.979167,Quarter,G#5_C6
2084,Left,1,63,80,441.5,0.479167,Sixteenth,D#4_C4
2086,Left,1,65,80,442.0,0.479167,Sixteenth,F4_D4
2088,Left,1,65,80,442.5,0.479167,Sixteenth,F4_D4
2092,Left,1,63,80,443.0,0.979167,Eighth,G4_D#4
2090,Right,0,82,80,443.0,0.979167,Eighth,G5_A#5
2094,Left,1,53,80,444.0,0.479167,Sixteenth,G#3_F3
2096,Right,0,65,80,444.0,1.979167,Eighth,F4_C#5
2098,Left,1,53,80,444.5,0.479167,Sixteenth,G#3_F3
2101,Left,1,55,80,445.0,0.479167,Sixteenth,G3_A#3
2100,Right,0,64,80,445.0,0.979167,Eighth,E4
2103,Left,1,55,80,445.5,0.479167,Sixteenth,G3_A#3
2107,Right,0,72,80,446.0,0.979167,Eighth,D#4_C5
2105,Left,1,56,80,446.0,0.979167,Eighth,G#3_C4
2109,Left,1,68,80,447.0,0.479167,Sixteenth,G#4_D4
2111,Right,0,77,80,447.0,1.979167,Quarter,F6_F5
2113,Left,1,68,80,447.5,0.479167,Sixteenth,G#4_D4
2115,Left,1,61,80,448.0,0.479167,Sixteenth,G4_C#4_A#4
2118,Left,1,61,80,448.5,0.479167,Sixteenth,G4_C#4_A#4
2124,Right,0,87,80,449.0,0.979167,Eighth,D#6_D#5
2121,Left,1,72,80,449.0,0.979167,Eighth,G#4_C5_C4
2127,Right,0,68,80,450.0,2.979167,Quarter,G#4_D4_B3
2126,Left,1,53,80,450.0,0.479167,Sixteenth,F3
2130,Left,1,53,80,450.5,0.479167,Sixteenth,F3
2131,Left,1,51,80,451.0,0.979167,Eighth,D#3
2132,Right,0,60,80,452.0,0.979167,Eighth,D#4_C4
2137,Left,1,39,80,453.0,0.479167,Sixteenth,D#2
2134,Right,0,67,80,453.0,0.979167,Eighth,G4_C#4_A#3
2138,Left,1,39,80,453.5,0.479167,Sixteenth,D#2
2139,Right,0,56,80,454.0,0.979167,Eighth,G#4_G#3_C4
2141,Left,1,44,80,454.0,0.979167,Eighth,G#2
2143,Left,1,32,80,455.0,0.979167,Eighth,G#1
2144,Right,0,66,80,456.0,1.979167,Quarter,F#4_F#3
2146,Left,1,46,80,456.0,0.979167,Eighth,C#3_A#2
2148,Left,1,48,80,457.0,0.979167,Eighth,C3_A2
2150,Right,0,53,80,458.0,0.979167,Eighth,F4_F3
2152,Right,0,87,80,459.0,1.979167,Quarter,D#6_D#5
2153,Left,1,57,80,459.0,0.979167,Eighth,F4_A3
2156,Left,1,58,80,460.0,0.979167,Eighth,F4_A#3
2158,Right,0,73,80,461.0,0.979167,Eighth,C#6_C#5
2161,Right,0,64,80,462.0,1.979167,Quarter,E4_E3
2160,Left,1,44,80,462.0,0.979167,Eighth,G#2_B2
2164,Left,1,46,80,463.0,0.979167,Eighth,G2_A#2
2166,Right,0,51,80,464.0,0.979167,Eighth,D#4_D#3
2169,Right,0,73,80,465.0,1.979167,Quarter,C#6_C#5
2168,Left,1,55,80,465.0,0.979167,Eighth,G3_D#4
2172,Left,1,63,80,466.0,0.979167,Eighth,G#3_D#4
2174,Right,0,72,80,467.0,0.979167,Eighth,C6_C5
2176,Left,1,44,80,468.0,0.979167,Eighth,G#2
2177,Right,0,53,80,468.0,1.979167,Eighth,F3_C4_C3
2181,Left,1,43,80,469.0,0.979167,Eighth,G2
2180,Right,0,50,80,469.0,1.979167,Quarter,F3_D3
2183,Left,1,31,80,470.0,0.979167,Eighth,G1
2184,Right,0,59,80,470.0,0.979167,Eighth,B3
2186,Right,0,61,80,471.0,1.979167,Quarter,G4_E4_C#4_A#4
2185,Left,1,48,80,471.0,0.979167,Eighth,C3
2190,Left,1,53,80,472.0,0.979167,Eighth,F3
2194,Left,1,41,80,473.0,0.979167,Eighth,F2
2191,Right,0,65,80,473.0,0.979167,Eighth,F4_C4_A4
2198,Left,1,57,80,474.0,0.979167,Eighth,A3
2195,Right,0,72,80,474.0,1.979167,Eighth,F5_F4_C5
2201,Left,1,58,80,475.0,0.979167,Eighth,A#3
2199,Right,0,70,80,475.0,1.979167,Quarter,G4_A#4
2203,Right,0,75,80,476.0,0.979167,Eighth,D#5
2202,Left,1,46,80,476.0,0.979167,Eighth,A#2
2207,Left,1,47,80,477.0,0.979167,Eighth,B2
2204,Right,0,56,80,477.0,1.979167,Quarter,G#3_F3_D4
2208,Left,1,48,80,478.0,0.979167,Eighth,C3
2212,Left,1,36,80,479.0,0.979167,Eighth,C2
2209,Right,0,51,80,479.0,0.979167,Eighth,G3_D#4_D#3
2213,Left,1,57,80,480.0,0.979167,Eighth,A3
2214,Right,0,72,80,480.0,1.979167,Eighth,F5_F4_C5
2218,Left,1,58,80,481.0,0.979167,Eighth,A#3
2217,Right,0,70,80,481.0,1.979167,Quarter,G4_A#4
2220,Left,1,46,80,482.0,0.979167,Eighth,A#2
2221,Right,0,75,80,482.0,0.979167,Eighth,D#5
2223,Right,0,62,80,483.0,0.979167,Eighth,G#3_F3_D4
2222,Left,1,34,80,483.0,0.979167,Eighth,A#1
2228,Left,1,39,80,484.0,0.479167,Sixteenth,D#2
2226,Right,0,55,80,484.0,0.979167,Eighth,G3_D#4_D#3
2230,Left,1,49,80,484.5,0.229167,ThirtySecond,C#3
2231,Left,1,48,80,484.75,0.229167,ThirtySecond,C3
2232,Right,0,56,80,485.0,0.979167,Eighth,G#3_F3_D#4
2233,Left,1,46,80,485.0,0.229167,ThirtySecond,A#2
2236,Left,1,44,80,485.25,0.229167,ThirtySecond,G#2
2237,Left,1,43,80,485.5,0.229167,ThirtySecond,G2
2238,Left,1,41,80,485.75,0.229167,ThirtySecond,F2
2241,Left,1,39,80,486.0,0.229167,ThirtySecond,D#2
2239,Right,0,58,80,486.0,1.979167,Eighth,G3_D#4_A#3
2243,Left,1,37,80,486.25,0.229167,ThirtySecond,C#2
2244,Left,1,36,80,486.5,0.229167,ThirtySecond,C2
2245,Left,1,34,80,486.75,0.229167,ThirtySecond,A#1
2247,Right,0,60,80,487.0,0.979167,Eighth,G#3_C4
2246,Left,1,32,80,487.0,0.979167,Eighth,G#1
2249,Right,0,68,80,488.0,0.979167,Eighth,G#4
2250,Right,0,68,80,489.0,1.979167,Quarter,G#5_G#4
2252,Left,1,60,80,489.0,0.479167,Sixteenth,G#3_C4
2254,Left,1,56,80,489.5,0.479167,Sixteenth,G#3_C4
2256,Left,1,61,80,490.0,0.979167,Eighth,C#4_A#3
2258,Right,0,79,80,491.0,0.979167,Eighth,G5_G4
2261,Right,0,55,80,492.0,1.979167,Quarter,G4_G3
2260,Left,1,46,80,492.0,0.479167,Sixteenth,C#3_A#2
2264,Left,1,49,80,492.5,0.479167,Sixteenth,C#3_A#2
2266,Left,1,48,80,493.0,0.979167,Eighth,D#3_C3
2268,Right,0,56,80,494.0,0.979167,Eighth,G#4_G#3
2270,Left,1,63,80,495.0,0.479167,Sixteenth,D#4_C4
2272,Right,0,84,80,495.0,1.979167,Quarter,G#5_C6
2274,Left,1,63,80,495.5,0.479167,Sixteenth,D#4_C4
2276,Left,1,65,80,496.0,0.479167,Sixteenth,F4_D4
2278,Left,1,65,80,496.5,0.479167,Sixteenth,F4_D4
2282,Left,1,67,80,497.0,0.979167,Eighth,G4_D#4
2280,Right,0,82,80,497.0,0.979167,Eighth,G5_A#5
2286,Right,0,73,80,498.0,1.979167,Quarter,F4_C#5
2284,Left,1,56,80,498.0,0.479167,Sixteenth,G#3_F3
2288,Left,1,56,80,498.5,0.479167,Sixteenth,G#3_F3
2291,Left,1,58,80,499.0,0.479167,Sixteenth,G3_A#3
2290,Right,0,64,80,499.0,0.979167,Eighth,E4
2293,Left,1,58,80,499.5,0.479167,Sixteenth,G3_A#3
2295,Left,1,56,80,500.0,0.979167,Eighth,G#3_C4
2296,Right,0,63,80,500.0,0.979167,Eighth,D#4_C5
2301,Left,1,68,80,501.0,0.479167,Sixteenth,G#4_D4
2299,Right,0,89,80,501.0,1.979167,Quarter,F6_F5
2303,Left,1,62,80,501.5,0.479167,Sixteenth,G#4_D4
2305,Left,1,61,80,502.0,0.479167,Sixteenth,G4_C#4_A#4
2308,Left,1,70,80,502.5,0.479167,Sixteenth,G4_C#4_A#4
2312,Left,1,72,80,503.0,0.979167,Eighth,G#4_C5_C4
2311,Right,0,87,80,503.0,0.979167,Eighth,D#6_D#5
2319,Left,1,53,80,504.0,0.479167,Sixteenth,F3
2316,Right,0,68,80,504.0,2.979167,Quarter,G#4_D4_B3
2320,Left,1,53,80,504.5,0.479167,Sixteenth,F3
2321,Left,1,51,80,505.0,0.979167,Eighth,D#3
2322,Right,0,60,80,506.0,0.979167,Eighth,D#4_C4
2327,Left,1,39,80,507.0,0.479167,Sixteenth,D#2
2324,Right,0,67,80,507.0,0.979167,Eighth,G4_C#4_A#3
2328,Left,1,39,80,507.5,0.479167,Sixteenth,D#2
2331,Left,1,44,80,508.0,0.979167,Eighth,G#2
2329,Right,0,60,80,508.0,0.979167,Eighth,G#4_G#3_C4
2333,Left,1,32,80,509.0,0.979167,Eighth,G#1
2334,Right,0,60,80,510.0,0.3125,TripletSixteenth,C4
2335,Right,0,65,80,510.333333,0.3125,TripletSixteenth,F4
2336,Right,0,63,80,510.666667,0.3125,TripletSixteenth,D#4
2338,Right,0,60,80,511.0,0.3125,TripletSixteenth,C4
2337,Left,1,44,80,511.0,0.3125,TripletSixteenth,G#2
2340,Right,0,65,80,511.333333,0.3125,TripletSixteenth,F4
2339,Left,1,51,80,511.333333,0.3125,TripletSixteenth,D#3
2341,Right,0,63,80,511.666667,0.3125,TripletSixteenth,D#4
2342,Left,1,56,80,511.666667,0.3125,TripletSixteenth,G#3
2344,Right,0,60,80,512.0,0.3125,TripletSixteenth,C4
2343,Left,1,44,80,512.0,0.3125,TripletSixteenth,G#2
2345,Right,0,70,80,512.333333,0.3125,TripletSixteenth,A#4
2346,Left,1,51,80,512.333333,0.3125,TripletSixteenth,D#3
2347,Right,0,68,80,512.666667,0.3125,TripletSixteenth,G#4
2348,Left,1,56,80,512.666667,0.3125,TripletSixteenth,G#3
2350,Left,1,44,80,513.0,0.3125,TripletSixteenth,G#2
2349,Right,0,60,80,513.0,0.3125,TripletSixteenth,C4
2351,Right,0,70,80,513.333333,0.3125,TripletSixteenth,A#4
2352,Left,1,51,80,513.333333,0.3125,TripletSixteenth,D#3
2353,Right,0,68,80,513.666667,0.3125,TripletSixteenth,G#4
2354,Left,1,56,80,513.666667,0.3125,TripletSixteenth,G#3
2356,Right,0,61,80,514.0,0.3125,TripletSixteenth,C#4
2355,Left,1,46,80,514.0,0.3125,TripletSixteenth,A#2
2358,Right,0,68,80,514.333333,0.3125,TripletSixteenth,G#4
2357,Left,1,51,80,514.333333,0.3125,TripletSixteenth,D#3
2360,Right,0,67,80,514.666667,0.3125,TripletSixteenth,G4
2359,Left,1,58,80,514.666667,0.3125,TripletSixteenth,A#3
2362,Left,1,46,80,515.0,0.3125,TripletSixteenth,A#2
2361,Right,0,61,80,515.0,0.3125,TripletSixteenth,C#4
2364,Right,0,67,80,515.333333,0.3125,TripletSixteenth,G4
2363,Left,1,51,80,515.333333,0.3125,TripletSixteenth,D#3
2365,Right,0,65,80,515.666667,0.3125,TripletSixteenth,F4
2366,Left,1,58,80,515.666667,0.3125,TripletSixteenth,A#3
2368,Left,1,46,80,516.0,0.3125,TripletSixteenth,A#2
2367,Right,0,61,80,516.0,0.3125,TripletSixteenth,C#4
2369,Right,0,67,80,516.333333,0.3125,TripletSixteenth,G4
2370,Left,1,51,80,516.333333,0.3125,TripletSixteenth,D#3
2371,Right,0,63,80,516.666667,0.3125,TripletSixteenth,D#4
2372,Left,1,58,80,516.666667,0.3125,TripletSixteenth,A#3
2373,Right,0,63,80,517.0,0.3125,TripletSixteenth,D#4
2374,Left,1,48,80,517.0,0.3125,TripletSixteenth,C3
2375,Right,0,70,80,517.333333,0.3125,TripletSixteenth,A#4
2376,Left,1,51,80,517.333333,0.3125,TripletSixteenth,D#3
2378,Right,0,68,80,517.666667,0.3125,TripletSixteenth,G#4
2377,Left,1,60,80,517.666667,0.3125,TripletSixteenth,C4
2379,Left,1,48,80,518.0,0.3125,TripletSixteenth,C3
2380,Right,0,63,80,518.0,0.3125,TripletSixteenth,D#4
2382,Right,0,70,80,518.333333,0.3125,TripletSixteenth,A#4
2381,Left,1,51,80,518.333333,0.3125,TripletSixteenth,D#3
2384,Right,0,68,80,518.666667,0.3125,TripletSixteenth,G#4
2383,Left,1,60,80,518.666667,0.3125,TripletSixteenth,C4
2386,Right,0,63,80,519.0,0.3125,TripletSixteenth,D#4
2385,Left,1,43,80,519.0,0.3125,TripletSixteenth,G2
2388,Right,0,72,80,519.333333,0.3125,TripletSixteenth,C5
2387,Left,1,51,80,519.333333,0.3125,TripletSixteenth,D#3
2390,Right,0,70,80,519.666667,0.3125,TripletSixteenth,A#4
2389,Left,1,55,80,519.666667,0.3125,TripletSixteenth,G3
2391,Right,0,63,80,520.0,0.3125,TripletSixteenth,D#4
2392,Left,1,44,80,520.0,0.3125,TripletSixteenth,G#2
2393,Right,0,73,80,520.333333,0.3125,TripletSixteenth,C#5_A#4
2395,Left,1,51,80,520.333333,0.3125,TripletSixteenth,D#3
2396,Right,0,68,80,520.666667,0.3125,TripletSixteenth,G#4_C5
2397,Left,1,56,80,520.666667,0.3125,TripletSixteenth,G#3
2399,Left,1,39,80,521.0,0.3125,TripletSixteenth,D#2
2400,Right,0,63,80,521.0,0.3125,TripletSixteenth,D#4
2403,Left,1,51,80,521.333333,0.3125,TripletSixteenth,D#3
2401,Right,0,72,80,521.333333,0.3125,TripletSixteenth,G#4_C5
2404,Left,1,51,80,521.666667,0.3125,TripletSixteenth,D#3
2405,Right,0,67,80,521.666667,0.3125,TripletSixteenth,G4_A#4
2407,Left,1,42,80,522.0,0.3125,TripletSixteenth,F#2
2408,Right,0,72,80,522.0,0.0625,TripletSixtyFourth,C5
2409,Right,0,70,80,522.072917,0.166667,TripletThirtySecond,A#4
2410,Right,0,69,80,522.25,0.229167,ThirtySecond,A4
2411,Left,1,51,80,522.333333,0.3125,TripletSixteenth,D#3
2412,Right,0,70,80,522.5,0.229167,ThirtySecond,A#4
2413,Left,1,54,80,522.666667,0.3125,TripletSixteenth,F#3
2414,Right,0,72,80,522.75,0.229167,ThirtySecond,C5
2416,Right,0,68,80,523.0,0.3125,TripletSixteenth,G#4
2415,Left,1,41,80,523.0,0.3125,TripletSixteenth,F2
2418,Right,0,75,80,523.333333,0.3125,TripletSixteenth,D#5
2417,Left,1,53,80,523.333333,0.3125,TripletSixteenth,F3
2419,Left,1,56,80,523.666667,0.3125,TripletSixteenth,G#3
2420,Right,0,73,80,523.666667,0.3125,TripletSixteenth,C#5
2421,Right,0,68,80,524.0,0.3125,TripletSixteenth,G#4
2422,Left,1,53,80,524.0,0.3125,TripletSixteenth,F3
2423,Right,0,75,80,524.333333,0.3125,TripletSixteenth,D#5
2424,Left,1,56,80,524.333333,0.3125,TripletSixteenth,G#3
2425,Right,0,73,80,524.666667,0.3125,TripletSixteenth,C#5
2426,Left,1,61,80,524.989583,0.3125,TripletSixteenth,C#4
2427,Left,1,51,80,525.0,0.3125,TripletSixteenth,D#3
2428,Right,0,68,80,525.0,0.3125,TripletSixteenth,G#4
2430,Right,0,73,80,525.333333,0.3125,TripletSixteenth,C#5
2429,Left,1,56,80,525.333333,0.3125,TripletSixteenth,G#3
2432,Left,1,60,80,525.666667,0.3125,TripletSixteenth,C4
2431,Right,0,72,80,525.666667,0.3125,TripletSixteenth,C5
2433,Right,0,68,80,526.0,0.3125,TripletSixteenth,G#4
2434,Left,1,50,80,526.0,0.3125,TripletSixteenth,D3
2435,Left,1,53,80,526.333333,0.3125,TripletSixteenth,F3
2436,Right,0,79,80,526.333333,0.3125,TripletSixteenth,G5
2437,Left,1,58,80,526.666667,0.3125,TripletSixteenth,A#3
2438,Right,0,77,80,526.666667,0.3125,TripletSixteenth,F5
2440,Left,1,49,80,527.0,0.3125,TripletSixteenth,C#3
2439,Right,0,67,80,527.0,0.3125,TripletSixteenth,G4
2441,Left,1,51,80,527.333333,0.3125,TripletSixteenth,D#3
2442,Right,0,72,80,527.333333,0.3125,TripletSixteenth,C5
2443,Left,1,58,80,527.666667,0.3125,TripletSixteenth,A#3
2444,Right,0,70,80,527.666667,0.3125,TripletSixteenth,A#4
2445,Left,1,48,80,528.0,0.3125,TripletSixteenth,C3
2446,Right,0,68,80,528.0,0.3125,TripletSixteenth,G#4
2447,Right,0,77,80,528.333333,0.3125,TripletSixteenth,F5
2448,Left,1,51,80,528.333333,0.3125,TripletSixteenth,D#3
2450,Left,1,56,80,528.666667,0.3125,TripletSixteenth,G#3
2449,Right,0,75,80,528.666667,0.3125,TripletSixteenth,D#5
2451,Left,1,41,80,529.0,0.3125,TripletSixteenth,F2
2452,Right,0,68,80,529.0,0.3125,TripletSixteenth,G#4
2453,Left,1,53,80,529.333333,0.3125,TripletSixteenth,F3
2454,Right,0,75,80,529.333333,0.3125,TripletSixteenth,D#5
2455,Right,0,73,80,529.666667,0.3125,TripletSixteenth,C#5
2456,Left,1,56,80,529.666667,0.3125,TripletSixteenth,G#3
2458,Left,1,43,80,530.0,0.3125,TripletSixteenth,G2
2457,Right,0,65,80,530.0,0.3125,TripletSixteenth,F4
2459,Right,0,72,80,530.333333,0.3125,TripletSixteenth,D#5_C5
2461,Left,1,55,80,530.333333,0.3125,TripletSixteenth,G3
2463,Right,0,70,80,530.666667,0.3125,TripletSixteenth,C#5_A#4
2462,Left,1,58,80,530.666667,0.3125,TripletSixteenth,A#3
2466,Left,1,44,80,531.0,0.3125,TripletSixteenth,G#2
2465,Right,0,63,80,531.0,0.3125,TripletSixteenth,D#4
2467,Right,0,70,80,531.333333,0.3125,TripletSixteenth,C#5_A#4
2468,Left,1,56,80,531.333333,0.3125,TripletSixteenth,G#3
2470,Right,0,68,80,531.666667,0.3125,TripletSixteenth,G#4_C5
2471,Left,1,60,80,531.666667,0.3125,TripletSixteenth,C4
2474,Right,0,66,80,532.0,0.979167,Eighth,F#4_A4
2473,Left,1,39,80,532.0,0.3125,TripletSixteenth,D#2
2476,Left,1,51,80,532.333333,0.3125,TripletSixteenth,D#3
2477,Left,1,51,80,532.666667,0.3125,TripletSixteenth,D#3
2479,Right,0,70,80,533.0,0.979167,Eighth,G4_A#4
2478,Left,1,51,80,533.0,0.3125,TripletSixteenth,D#3
2481,Left,1,53,80,533.333333,0.3125,TripletSixteenth,F3
2482,Left,1,51,80,533.666667,0.3125,TripletSixteenth,D#3
2483,Left,1,49,80,534.0,0.3125,TripletSixteenth,C#3
2484,Right,0,63,80,534.0,0.229167,ThirtySecond,D#4
2485,Right,0,75,80,534.25,0.229167,ThirtySecond,D#5
2486,Left,1,48,80,534.333333,0.3125,TripletSixteenth,C3
2487,Right,0,63,80,534.5,0.229167,ThirtySecond,D#4
2488,Left,1,46,80,534.666667,0.3125,TripletSixteenth,A#2
2489,Right,0,75,80,534.75,0.229167,ThirtySecond,D#5
2491,Left,1,44,80,535.0,0.229167,ThirtySecond,G#2
2490,Right,0,63,80,535.0,0.979167,Eighth,D#4
2493,Left,1,51,80,535.25,0.229167,ThirtySecond,D#3
2492,Right,0,75,80,535.25,0.229167,ThirtySecond,D#5
2494,Right,0,77,80,535.5,0.229167,ThirtySecond,F5
2495,Left,1,56,80,535.5,0.229167,ThirtySecond,G#3
2496,Left,1,51,80,535.75,0.229167,ThirtySecond,D#3
2497,Right,0,75,80,535.75,0.229167,ThirtySecond,D#5
2498,Left,1,48,80,536.0,0.229167,ThirtySecond,C3
2499,Right,0,68,80,536.0,0.979167,Eighth,G#4
2500,Left,1,51,80,536.25,0.229167,ThirtySecond,D#3
2501,Right,0,75,80,536.25,0.229167,ThirtySecond,D#5
2503,Left,1,56,80,536.5,0.229167,ThirtySecond,G#3
2502,Right,0,77,80,536.5,0.229167,ThirtySecond,F5
2504,Left,1,51,80,536.75,0.229167,ThirtySecond,D#3
2505,Right,0,75,80,536.75,0.229167,ThirtySecond,D#5
2507,Left,1,48,80,537.0,0.229167,ThirtySecond,C3
2506,Right,0,68,80,537.0,0.979167,Eighth,G#4
2509,Left,1,51,80,537.25,0.229167,ThirtySecond,D#3
2508,Right,0,75,80,537.25,0.229167,ThirtySecond,D#5
2511,Left,1,56,80,537.5,0.229167,ThirtySecond,G#3
2510,Right,0,77,80,537.5,0.229167,ThirtySecond,F5
2513,Left,1,51,80,537.75,0.229167,ThirtySecond,D#3
2512,Right,0,75,80,537.75,0.229167,ThirtySecond,D#5
2516,Left,1,46,80,538.0,0.229167,ThirtySecond,A#2
2514,Right,0,77,80,538.0,0.479167,ThirtySecond,G#4_F5
2517,Left,1,51,80,538.25,0.229167,ThirtySecond,D#3
2518,Right,0,75,80,538.25,0.229167,ThirtySecond,D#5
2520,Left,1,55,80,538.5,0.229167,ThirtySecond,G3
2519,Right,0,77,80,538.5,0.479167,ThirtySecond,G4_F5
2523,Left,1,51,80,538.75,0.229167,ThirtySecond,D#3
2522,Right,0,75,80,538.75,0.229167,ThirtySecond,D#5
2525,Left,1,49,80,539.0,0.229167,ThirtySecond,C#3
2524,Right,0,77,80,539.0,0.479167,ThirtySecond,G4_F5
2527,Left,1,51,80,539.25,0.229167,ThirtySecond,D#3
2528,Right,0,75,80,539.25,0.229167,ThirtySecond,D#5
2531,Left,1,58,80,539.5,0.229167,ThirtySecond,A#3
2529,Right,0,65,80,539.5,0.479167,Sixteenth,F5_F4
2533,Left,1,51,80,539.75,0.229167,ThirtySecond,D#3
2532,Right,0,75,80,539.75,0.229167,ThirtySecond,D#5
2536,Left,1,49,80,540.0,0.229167,ThirtySecond,C#3
2534,Right,0,77,80,540.0,0.479167,ThirtySecond,G4_F5
2537,Right,0,75,80,540.25,0.229167,ThirtySecond,D#5
2538,Left,1,51,80,540.25,0.229167,ThirtySecond,D#3
2539,Left,1,58,80,540.5,0.229167,ThirtySecond,A#3
2540,Right,0,77,80,540.5,0.479167,ThirtySecond,F5_D#4
2542,Left,1,51,80,540.75,0.229167,ThirtySecond,D#3
2543,Right,0,75,80,540.75,0.229167,ThirtySecond,D#5
2545,Left,1,48,80,541.0,0.229167,ThirtySecond,C3
2544,Right,0,68,80,541.0,0.979167,Eighth,G#4
2546,Left,1,51,80,541.25,0.229167,ThirtySecond,D#3
2547,Right,0,75,80,541.25,0.229167,ThirtySecond,D#5
2548,Left,1,56,80,541.5,0.229167,ThirtySecond,G#3
2549,Right,0,77,80,541.5,0.229167,ThirtySecond,F5
2550,Left,1,51,80,541.75,0.229167,ThirtySecond,D#3
2551,Right,0,75,80,541.75,0.229167,ThirtySecond,D#5
2553,Left,1,48,80,542.0,0.229167,ThirtySecond,C3
2552,Right,0,68,80,542.0,0.979167,Eighth,G#4
2554,Right,0,75,80,542.25,0.229167,ThirtySecond,D#5
2555,Left,1,51,80,542.25,0.229167,ThirtySecond,D#3
2556,Right,0,77,80,542.5,0.229167,ThirtySecond,F5
2557,Left,1,56,80,542.5,0.229167,ThirtySecond,G#3
2559,Left,1,51,80,542.75,0.229167,ThirtySecond,D#3
2558,Right,0,75,80,542.75,0.229167,ThirtySecond,D#5
2560,Right,0,70,80,543.0,0.979167,Eighth,A#4
2561,Left,1,43,80,543.0,0.229167,ThirtySecond,G2
2562,Right,0,75,80,543.25,0.229167,ThirtySecond,D#5
2563,Left,1,51,80,543.25,0.229167,ThirtySecond,D#3
2565,Right,0,77,80,543.5,0.229167,ThirtySecond,F5
2564,Left,1,55,80,543.5,0.229167,ThirtySecond,G3
2567,Left,1,51,80,543.75,0.229167,ThirtySecond,D#3
2566,Right,0,75,80,543.75,0.229167,ThirtySecond,D#5
2569,Right,0,72,80,544.0,0.979167,ThirtySecond,G#4_C5
2568,Left,1,44,80,544.0,0.229167,ThirtySecond,G#2
2572,Right,0,75,80,544.25,0.229167,ThirtySecond,D#5
2571,Left,1,51,80,544.25,0.229167,ThirtySecond,D#3
2573,Left,1,56,80,544.5,0.229167,ThirtySecond,G#3
2574,Right,0,77,80,544.5,0.229167,ThirtySecond,F5
2575,Right,0,75,80,544.75,0.229167,ThirtySecond,D#5
2576,Left,1,51,80,544.75,0.229167,ThirtySecond,D#3
2577,Right,0,70,80,545.0,0.979167,ThirtySecond,G4_A#4
2579,Left,1,39,80,545.0,0.229167,ThirtySecond,D#2
2580,Left,1,51,80,545.25,0.229167,ThirtySecond,D#3
2581,Right,0,75,80,545.25,0.229167,ThirtySecond,D#5
2583,Right,0,77,80,545.5,0.229167,ThirtySecond,F5
2582,Left,1,55,80,545.5,0.229167,ThirtySecond,G3
2585,Left,1,51,80,545.75,0.229167,ThirtySecond,D#3
2584,Right,0,75,80,545.75,0.229167,ThirtySecond,D#5
2586,Left,1,42,80,546.0,0.229167,ThirtySecond,F#2
2587,Right,0,72,80,546.0,0.0625,TripletSixtyFourth,C5
2588,Right,0,70,80,546.072917,0.166667,TripletThirtySecond,A#4
2590,Right,0,69,80,546.25,0.229167,ThirtySecond,A4
2589,Left,1,51,80,546.25,0.229167,ThirtySecond,D#3
2592,Right,0,70,80,546.5,0.229167,ThirtySecond,A#4
2591,Left,1,54,80,546.5,0.229167,ThirtySecond,F#3
2594,Right,0,72,80,546.75,0.229167,ThirtySecond,C5
2593,Left,1,51,80,546.75,0.229167,ThirtySecond,D#3
2596,Right,0,73,80,547.0,0.979167,Eighth,C#5
2595,Left,1,41,80,547.0,0.229167,ThirtySecond,F2
2598,Right,0,80,80,547.25,0.229167,ThirtySecond,G#5
2597,Left,1,53,80,547.25,0.229167,ThirtySecond,F3
2600,Left,1,56,80,547.5,0.229167,ThirtySecond,G#3
2599,Right,0,82,80,547.5,0.229167,ThirtySecond,A#5
2602,Left,1,60,80,547.75,0.229167,ThirtySecond,C4
2601,Right,0,80,80,547.75,0.229167,ThirtySecond,G#5
2604,Left,1,53,80,548.0,0.229167,ThirtySecond,F3
2603,Right,0,73,80,548.0,0.979167,Eighth,C#5
2605,Right,0,80,80,548.25,0.229167,ThirtySecond,G#5
2606,Left,1,56,80,548.25,0.229167,ThirtySecond,G#3
2608,Left,1,61,80,548.5,0.229167,ThirtySecond,C#4
2607,Right,0,82,80,548.5,0.229167,ThirtySecond,A#5
2610,Right,0,80,80,548.75,0.229167,ThirtySecond,G#5
2609,Left,1,56,80,548.75,0.229167,ThirtySecond,G#3
2611,Right,0,72,80,549.0,0.979167,Eighth,C5
2612,Left,1,51,80,549.0,0.229167,ThirtySecond,D#3
2614,Right,0,80,80,549.25,0.229167,ThirtySecond,G#5
2613,Left,1,56,80,549.25,0.229167,ThirtySecond,G#3
2616,Left,1,60,80,549.5,0.229167,ThirtySecond,C4
2615,Right,0,82,80,549.5,0.229167,ThirtySecond,A#5
2617,Left,1,56,80,549.75,0.229167,ThirtySecond,G#3
2618,Right,0,80,80,549.75,0.229167,ThirtySecond,G#5
2619,Left,1,50,80,550.0,0.229167,ThirtySecond,D3
2620,Right,0,77,80,550.0,0.979167,Eighth,F5
2621,Right,0,80,80,550.25,0.229167,ThirtySecond,G#5
2622,Left,1,53,80,550.25,0.229167,ThirtySecond,F3
2623,Right,0,82,80,550.5,0.229167,ThirtySecond,A#5
2624,Left,1,58,80,550.5,0.229167,ThirtySecond,A#3
2625,Right,0,80,80,550.75,0.229167,ThirtySecond,G#5
2626,Left,1,53,80,550.75,0.229167,ThirtySecond,F3
2628,Right,0,70,80,551.0,0.979167,Eighth,A#4
2627,Left,1,49,80,551.0,0.229167,ThirtySecond,C#3
2629,Left,1,51,80,551.25,0.229167,ThirtySecond,D#3
2630,Right,0,79,80,551.25,0.229167,ThirtySecond,G5
2632,Right,0,80,80,551.5,0.229167,ThirtySecond,G#5
2631,Left,1,58,80,551.5,0.229167,ThirtySecond,A#3
2634,Right,0,79,80,551.75,0.229167,ThirtySecond,G5
2633,Left,1,51,80,551.75,0.229167,ThirtySecond,D#3
2635,Left,1,48,80,552.0,0.229167,ThirtySecond,C3
2636,Right,0,75,80,552.0,0.979167,Eighth,D#5
2638,Left,1,51,80,552.25,0.229167,ThirtySecond,D#3
2637,Right,0,80,80,552.25,0.229167,ThirtySecond,G#5
2640,Right,0,82,80,552.5,0.229167,ThirtySecond,A#5
2639,Left,1,56,80,552.5,0.229167,ThirtySecond,G#3
2642,Right,0,80,80,552.75,0.229167,ThirtySecond,G#5
2641,Left,1,51,80,552.75,0.229167,ThirtySecond,D#3
2644,Right,0,68,80,553.0,0.979167,Eighth,G#4
2643,Left,1,39,80,553.0,0.229167,ThirtySecond,D#2
2645,Right,0,75,80,553.25,0.229167,ThirtySecond,D#5
2646,Left,1,48,80,553.25,0.229167,ThirtySecond,C3
2648,Right,0,77,80,553.5,0.229167,ThirtySecond,F5
2647,Left,1,51,80,553.5,0.229167,ThirtySecond,D#3
2649,Right,0,75,80,553.75,0.229167,ThirtySecond,D#5
2650,Left,1,56,80,553.75,0.229167,ThirtySecond,G#3
2653,Left,1,39,80,554.0,0.229167,ThirtySecond,D#2
2651,Right,0,68,80,554.0,0.979167,Eighth,G#4_C5
2655,Left,1,48,80,554.25,0.229167,ThirtySecond,C3
2654,Right,0,75,80,554.25,0.229167,ThirtySecond,D#5
2656,Right,0,77,80,554.5,0.229167,ThirtySecond,F5
2657,Left,1,51,80,554.5,0.229167,ThirtySecond,D#3
2658,Left,1,56,80,554.75,0.229167,ThirtySecond,G#3
2659,Right,0,75,80,554.75,0.229167,ThirtySecond,D#5
2661,Left,1,39,80,555.0,0.229167,ThirtySecond,D#2
2660,Right,0,70,80,555.0,0.979167,ThirtySecond,G4_A#4
2664,Left,1,49,80,555.25,0.229167,ThirtySecond,C#3
2663,Right,0,75,80,555.25,0.229167,ThirtySecond,D#5
2666,Left,1,51,80,555.5,0.229167,ThirtySecond,D#3
2665,Right,0,77,80,555.5,0.229167,ThirtySecond,F5
2667,Right,0,75,80,555.75,0.229167,ThirtySecond,D#5
2668,Left,1,55,80,555.75,0.229167,ThirtySecond,G3
2670,Right,0,68,80,556.0,0.979167,Eighth,G#4
2669,Left,1,44,80,556.0,0.229167,ThirtySecond,G#2
2671,Left,1,48,80,556.25,0.229167,ThirtySecond,C3
2672,Left,1,51,80,556.5,0.229167,ThirtySecond,D#3
2673,Left,1,56,80,556.75,0.229167,ThirtySecond,G#3
2674,Left,1,44,80,557.0,0.979167,Eighth,G#2
2675,Right,0,76,80,558.0,0.229167,ThirtySecond,E5
2676,Right,0,77,80,558.25,0.229167,ThirtySecond,F5
2677,Right,0,76,80,558.5,0.229167,ThirtySecond,E5
2678,Right,0,77,80,558.75,0.229167,ThirtySecond,F5
2680,Right,0,77,80,559.0,0.479167,Sixteenth,F5
2679,Left,1,57,80,559.0,0.229167,ThirtySecond,A3
2681,Left,1,65,80,559.25,0.229167,ThirtySecond,F4
2682,Left,1,60,80,559.5,0.229167,ThirtySecond,C4
2683,Right,0,89,80,559.5,0.979167,Eighth,F6
2684,Left,1,65,80,559.75,0.229167,ThirtySecond,F4
2685,Left,1,55,80,560.0,0.229167,ThirtySecond,G3
2686,Left,1,65,80,560.25,0.229167,ThirtySecond,F4
2688,Right,0,88,80,560.5,0.979167,Eighth,E6
2687,Left,1,58,80,560.5,0.229167,ThirtySecond,A#3
2689,Left,1,65,80,560.75,0.229167,ThirtySecond,F4
2690,Left,1,57,80,561.0,0.229167,ThirtySecond,A3
2691,Left,1,65,80,561.25,0.229167,ThirtySecond,F4
2693,Left,1,60,80,561.5,0.229167,ThirtySecond,C4
2692,Right,0,87,80,561.5,0.729167,DottedSixteenth,D#6
2694,Left,1,65,80,561.75,0.229167,ThirtySecond,F4
2695,Left,1,58,80,562.0,0.229167,ThirtySecond,A#3
2696,Right,0,85,80,562.25,0.229167,ThirtySecond,C#6
2697,Left,1,65,80,562.25,0.229167,ThirtySecond,F4
2698,Left,1,61,80,562.5,0.229167,ThirtySecond,C#4
2699,Right,0,84,80,562.5,0.229167,ThirtySecond,C6
2701,Left,1,65,80,562.75,0.229167,ThirtySecond,F4
2700,Right,0,82,80,562.75,0.229167,ThirtySecond,A#5
2702,Right,0,81,80,563.0,0.229167,ThirtySecond,A5
2703,Left,1,46,80,563.0,0.979167,Eighth,A#2
2704,Right,0,82,80,563.25,0.229167,ThirtySecond,A#5
2705,Right,0,78,80,563.5,0.229167,ThirtySecond,F#5
2706,Right,0,77,80,563.75,0.229167,ThirtySecond,F5
2707,Right,0,75,80,564.0,0.229167,ThirtySecond,D#5
2708,Right,0,73,80,564.25,0.229167,ThirtySecond,C#5
2709,Right,0,72,80,564.5,0.229167,ThirtySecond,C5
2710,Right,0,70,80,564.75,0.229167,ThirtySecond,A#4
2712,Left,1,55,80,565.0,0.229167,ThirtySecond,G3
2711,Right,0,75,80,565.0,0.479167,Sixteenth,D#5
2713,Left,1,63,80,565.25,0.229167,ThirtySecond,D#4
2715,Left,1,58,80,565.5,0.229167,ThirtySecond,A#3
2714,Right,0,87,80,565.5,0.979167,Eighth,D#6
2716,Left,1,63,80,565.75,0.229167,ThirtySecond,D#4
2717,Left,1,53,80,566.0,0.229167,ThirtySecond,F3
2718,Left,1,63,80,566.25,0.229167,ThirtySecond,D#4
2720,Left,1,56,80,566.5,0.229167,ThirtySecond,G#3
2719,Right,0,86,80,566.5,0.979167,Eighth,D6
2721,Left,1,63,80,566.75,0.229167,ThirtySecond,D#4
2722,Left,1,55,80,567.0,0.229167,ThirtySecond,G3
2723,Left,1,63,80,567.25,0.229167,ThirtySecond,D#4
2724,Left,1,58,80,567.5,0.229167,ThirtySecond,A#3
2725,Right,0,85,80,567.5,0.729167,DottedSixteenth,C#6
2726,Left,1,63,80,567.75,0.229167,ThirtySecond,D#4
2727,Left,1,56,80,568.0,0.229167,ThirtySecond,G#3
2728,Left,1,63,80,568.25,0.229167,ThirtySecond,D#4
2729,Right,0,84,80,568.25,0.229167,ThirtySecond,C6
2731,Left,1,60,80,568.5,0.229167,ThirtySecond,C4
2730,Right,0,82,80,568.5,0.229167,ThirtySecond,A#5
2733,Right,0,80,80,568.75,0.229167,ThirtySecond,G#5
2732,Left,1,63,80,568.75,0.229167,ThirtySecond,D#4
2734,Right,0,79,80,569.0,0.229167,ThirtySecond,G5
2735,Left,1,44,80,569.0,0.979167,Eighth,G#2
2736,Right,0,80,80,569.25,0.229167,ThirtySecond,G#5
2737,Right,0,74,80,569.5,0.229167,ThirtySecond,D5
2738,Right,0,75,80,569.75,0.229167,ThirtySecond,D#5
2739,Right,0,71,80,570.0,0.229167,ThirtySecond,B4
2740,Right,0,72,80,570.25,0.229167,ThirtySecond,C5
2741,Right,0,73,80,570.5,0.229167,ThirtySecond,C#5
2742,Right,0,74,80,570.75,0.229167,ThirtySecond,D5
2743,Right,0,75,80,571.0,0.979167,Eighth,D#5
2744,Left,1,48,80,571.0,0.479167,Sixteenth,C3
2745,Right,0,63,80,571.25,0.229167,ThirtySecond,D#4
2747,Left,1,60,81,571.5,0.479167,Sixteenth,C4
2746,Right,0,68,81,571.5,0.229167,ThirtySecond,G#4
2748,Right,0,63,82,571.75,0.229167,ThirtySecond,D#4
2750,Right,0,74,83,572.0,0.979167,Eighth,D5
2749,Left,1,47,83,572.0,0.479167,Sixteenth,B2
2751,Right,0,65,84,572.25,0.229167,ThirtySecond,F4
2753,Left,1,59,85,572.5,0.479167,Sixteenth,B3
2752,Right,0,68,85,572.5,0.229167,ThirtySecond,G#4
2754,Right,0,65,86,572.75,0.229167,ThirtySecond,F4
2755,Left,1,46,86,573.0,0.479167,Sixteenth,A#2
2756,Right,0,76,86,573.0,0.979167,Eighth,E5
2757,Right,0,67,87,573.25,0.229167,ThirtySecond,G4
2758,Left,1,58,88,573.5,0.479167,Sixteenth,A#3
2759,Right,0,73,88,573.5,0.229167,ThirtySecond,C#5
2760,Right,0,67,89,573.75,0.229167,ThirtySecond,G4
2762,Left,1,44,90,574.0,0.479167,Sixteenth,G#2
2761,Right,0,77,90,574.0,0.979167,Eighth,F5
2763,Right,0,68,91,574.25,0.229167,ThirtySecond,G#4
2764,Left,1,56,92,574.5,0.479167,Sixteenth,G#3
2765,Right,0,72,92,574.5,0.229167,ThirtySecond,C5
2766,Right,0,68,93,574.75,0.229167,ThirtySecond,G#4
2767,Left,1,43,93,575.0,0.479167,Sixteenth,G2
2768,Right,0,79,93,575.0,0.979167,Eighth,G5
2769,Right,0,70,94,575.25,0.229167,ThirtySecond,A#4
2770,Right,0,76,95,575.5,0.229167,ThirtySecond,E5
2771,Left,1,55,95,575.5,0.479167,Sixteenth,G3
2772,Right,0,70,96,575.75,0.229167,ThirtySecond,A#4
2773,Left,1,41,97,576.0,0.479167,Sixteenth,F2
2774,Right,0,80,97,576.0,0.979167,Eighth,G#5
2775,Right,0,72,98,576.25,0.229167,ThirtySecond,C5
2776,Right,0,77,99,576.5,0.229167,ThirtySecond,F5
2777,Left,1,53,99,576.5,0.479167,Sixteenth,F3
2778,Right,0,72,99,576.75,0.229167,ThirtySecond,C5
2779,Left,1,46,80,577.0,0.479167,Sixteenth,A#2
2780,Right,0,75,80,577.0,1.979167,Quarter,G4_D#5
2782,Right,0,66,80,577.25,0.229167,ThirtySecond,F#4
2784,Left,1,58,80,577.5,0.479167,Sixteenth,A#3
2783,Right,0,67,80,577.5,0.229167,ThirtySecond,G4
2785,Right,0,66,80,577.75,0.229167,ThirtySecond,F#4
2786,Left,1,46,80,578.0,0.479167,Sixteenth,A#2
2787,Right,0,67,80,578.0,0.229167,ThirtySecond,G4
2788,Right,0,70,80,578.25,0.229167,ThirtySecond,A#4
2790,Left,1,58,80,578.5,0.479167,Sixteenth,A#3
2789,Right,0,68,80,578.5,0.229167,ThirtySecond,G#4
2791,Right,0,67,80,578.75,0.229167,ThirtySecond,G4
2794,Left,1,47,80,579.0,0.479167,Sixteenth,B2
2792,Right,0,65,80,579.0,0.979167,ThirtySecond,F4_D5
2795,Right,0,68,80,579.25,0.229167,ThirtySecond,G#4
2797,Left,1,59,80,579.5,0.479167,Sixteenth,B3
2796,Right,0,67,80,579.5,0.229167,ThirtySecond,G4
2798,Right,0,65,80,579.75,0.229167,ThirtySecond,F4
2799,Right,0,75,80,580.0,1.979167,Quarter,D#5_D#4
2801,Left,1,48,80,580.0,0.479167,Sixteenth,C3
2802,Right,0,65,80,580.25,0.229167,ThirtySecond,F4
2804,Left,1,60,80,580.5,0.479167,Sixteenth,C4
2803,Right,0,67,80,580.5,0.229167,ThirtySecond,G4
2805,Right,0,68,80,580.75,0.229167,ThirtySecond,G#4
2807,Left,1,44,80,581.0,0.479167,Sixteenth,G#2
2806,Right,0,70,80,581.0,0.229167,ThirtySecond,A#4
2808,Right,0,71,80,581.25,0.229167,ThirtySecond,B4
2809,Left,1,56,80,581.5,0.479167,Sixteenth,G#3
2810,Right,0,72,80,581.5,0.229167,ThirtySecond,C5
2811,Right,0,70,80,581.75,0.229167,ThirtySecond,A#4
2813,Right,0,77,100,582.0,0.979167,Eighth,F5_C5
2812,Left,1,45,80,582.0,0.479167,Sixteenth,A2
2815,Right,0,70,80,582.25,0.229167,ThirtySecond,A#4
2816,Right,0,74,80,582.5,0.229167,ThirtySecond,D5
2817,Left,1,57,80,582.5,0.479167,Sixteenth,A3
2818,Right,0,72,80,582.75,0.229167,ThirtySecond,C5
2819,Right,0,75,80,583.0,1.979167,Quarter,G4_D#5
2820,Left,1,46,80,583.0,0.479167,Sixteenth,A#2
2822,Right,0,66,80,583.25,0.229167,ThirtySecond,F#4
2824,Right,0,67,80,583.5,0.229167,ThirtySecond,G4
2823,Left,1,58,80,583.5,0.479167,Sixteenth,A#3
2825,Right,0,66,80,583.75,0.229167,ThirtySecond,F#4
2827,Left,1,46,80,584.0,0.479167,Sixteenth,A#2
2826,Right,0,67,80,584.0,0.229167,ThirtySecond,G4
2828,Right,0,70,80,584.25,0.229167,ThirtySecond,A#4
2830,Left,1,58,80,584.5,0.479167,Sixteenth,A#3
2829,Right,0,68,80,584.5,0.229167,ThirtySecond,G#4
2831,Right,0,67,80,584.75,0.229167,ThirtySecond,G4
2832,Right,0,74,102,585.0,0.979167,Eighth,F4_D5
2834,Left,1,34,80,585.0,0.479167,Sixteenth,A#1
2835,Right,0,68,80,585.25,0.229167,ThirtySecond,G#4
2836,Left,1,46,80,585.5,0.479167,Sixteenth,A#2
2837,Right,0,67,80,585.5,0.229167,ThirtySecond,G4
2838,Right,0,65,80,585.75,0.229167,ThirtySecond,F4
2840,Left,1,39,80,586.0,0.479167,Sixteenth,D#2
2839,Right,0,75,80,586.0,0.979167,Eighth,D#5
2841,Right,0,63,80,586.25,0.229167,ThirtySecond,D#4
2842,Right,0,67,80,586.5,0.229167,ThirtySecond,G4
2843,Left,1,51,80,586.5,0.479167,Sixteenth,D#3
2844,Right,0,63,80,586.75,0.229167,ThirtySecond,D#4
2845,Right,0,74,80,587.0,0.979167,Eighth,D5
2846,Left,1,41,80,587.0,0.479167,Sixteenth,F2
2847,Right,0,63,80,587.25,0.229167,ThirtySecond,D#4
2849,Right,0,68,80,587.5,0.229167,ThirtySecond,G#4
2848,Left,1,53,80,587.5,0.479167,Sixteenth,F3
2850,Right,0,63,80,587.75,0.229167,ThirtySecond,D#4
2852,Right,0,73,80,588.0,0.979167,Eighth,C#5
2851,Left,1,43,80,588.0,0.479167,Sixteenth,G2
2853,Right,0,63,80,588.25,0.229167,ThirtySecond,D#4
2855,Right,0,70,80,588.5,0.229167,ThirtySecond,A#4
2854,Left,1,55,80,588.5,0.479167,Sixteenth,G3
2856,Right,0,63,80,588.75,0.229167,ThirtySecond,D#4
2858,Right,0,63,80,589.0,0.479167,Sixteenth,D#4_C5
2857,Left,1,44,80,589.0,0.229167,ThirtySecond,G#2
2861,Left,1,51,80,589.25,0.229167,ThirtySecond,D#3
2860,Right,0,75,80,589.25,0.229167,ThirtySecond,D#5
2863,Left,1,56,80,589.5,0.229167,ThirtySecond,G#3
2862,Right,0,77,80,589.5,0.479167,ThirtySecond,G#4_F5
2866,Left,1,51,80,589.75,0.229167,ThirtySecond,D#3
2865,Right,0,75,80,589.75,0.229167,ThirtySecond,D#5
2867,Right,0,68,80,590.0,0.479167,Sixteenth,G#4_F5
2869,Left,1,48,80,590.0,0.229167,ThirtySecond,C3
2870,Left,1,51,80,590.25,0.229167,ThirtySecond,D#3
2871,Right,0,75,80,590.25,0.229167,ThirtySecond,D#5
2872,Right,0,77,80,590.5,0.479167,ThirtySecond,G#4_F5
2874,Left,1,56,80,590.5,0.229167,ThirtySecond,G#3
2876,Right,0,75,80,590.75,0.229167,ThirtySecond,D#5
2875,Left,1,51,80,590.75,0.229167,ThirtySecond,D#3
2877,Left,1,48,80,591.0,0.229167,ThirtySecond,C3
2878,Right,0,77,80,591.0,0.479167,ThirtySecond,G#4_F5
2881,Right,0,75,80,591.25,0.229167,ThirtySecond,D#5
2880,Left,1,51,80,591.25,0.229167,ThirtySecond,D#3
2882,Left,1,56,80,591.5,0.229167,ThirtySecond,G#3
2883,Right,0,77,80,591.5,0.479167,ThirtySecond,G#4_F5
2886,Left,1,51,80,591.75,0.229167,ThirtySecond,D#3
2885,Right,0,75,80,591.75,0.229167,ThirtySecond,D#5
2887,Left,1,46,80,592.0,0.229167,ThirtySecond,A#2
2888,Right,0,77,80,592.0,0.479167,ThirtySecond,G#4_F5
2891,Right,0,75,80,592.25,0.229167,ThirtySecond,D#5
2890,Left,1,51,80,592.25,0.229167,ThirtySecond,D#3
2892,Left,1,55,80,592.5,0.229167,ThirtySecond,G3
2893,Right,0,67,80,592.5,0.479167,Sixteenth,G4_F5
2895,Right,0,75,80,592.75,0.229167,ThirtySecond,D#5
2896,Left,1,51,80,592.75,0.229167,ThirtySecond,D#3
2897,Right,0,77,80,593.0,0.479167,ThirtySecond,G4_F5
2899,Left,1,49,80,593.0,0.229167,ThirtySecond,C#3
2901,Left,1,51,80,593.25,0.229167,ThirtySecond,D#3
2900,Right,0,75,80,593.25,0.229167,ThirtySecond,D#5
2903,Left,1,58,80,593.5,0.229167,ThirtySecond,A#3
2902,Right,0,77,80,593.5,0.479167,ThirtySecond,F5_F4
2906,Right,0,75,80,593.75,0.229167,ThirtySecond,D#5
2905,Left,1,51,80,593.75,0.229167,ThirtySecond,D#3
2908,Right,0,77,80,594.0,0.479167,ThirtySecond,G4_F5
2907,Left,1,49,80,594.0,0.229167,ThirtySecond,C#3
2911,Right,0,75,80,594.25,0.229167,ThirtySecond,D#5
2910,Left,1,51,80,594.25,0.229167,ThirtySecond,D#3
2914,Left,1,58,80,594.5,0.229167,ThirtySecond,A#3
2912,Right,0,77,80,594.5,0.479167,ThirtySecond,F5_D#4
2915,Left,1,51,80,594.75,0.229167,ThirtySecond,D#3
2916,Right,0,75,80,594.75,0.229167,ThirtySecond,D#5
2918,Left,1,48,80,595.0,0.229167,ThirtySecond,C3
2917,Right,0,68,80,595.0,0.979167,Eighth,G#4_F5
2921,Left,1,51,80,595.25,0.229167,ThirtySecond,D#3
2920,Right,0,75,80,595.25,0.229167,ThirtySecond,D#5
2922,Right,0,77,80,595.5,0.229167,ThirtySecond,F5
2923,Left,1,56,80,595.5,0.229167,ThirtySecond,G#3
2925,Left,1,51,80,595.75,0.229167,ThirtySecond,D#3
2924,Right,0,75,80,595.75,0.229167,ThirtySecond,D#5
2926,Left,1,48,80,596.0,0.229167,ThirtySecond,C3
2927,Right,0,77,80,596.0,0.979167,ThirtySecond,G#4_F5
2929,Left,1,51,80,596.25,0.229167,ThirtySecond,D#3
2930,Right,0,75,80,596.25,0.229167,ThirtySecond,D#5
2931,Left,1,56,80,596.5,0.229167,ThirtySecond,G#3
2932,Right,0,77,80,596.5,0.229167,ThirtySecond,F5
2933,Left,1,51,80,596.75,0.229167,ThirtySecond,D#3
2934,Right,0,75,80,596.75,0.229167,ThirtySecond,D#5
2935,Right,0,77,80,597.0,0.979167,ThirtySecond,F5_A#4
2937,Left,1,43,80,597.0,0.229167,ThirtySecond,G2
2938,Right,0,75,80,597.25,0.229167,ThirtySecond,D#5
2939,Left,1,51,80,597.25,0.229167,ThirtySecond,D#3
2941,Right,0,77,80,597.5,0.229167,ThirtySecond,F5
2940,Left,1,55,80,597.5,0.229167,ThirtySecond,G3
2942,Right,0,75,80,597.75,0.229167,ThirtySecond,D#5
2943,Left,1,51,80,597.75,0.229167,ThirtySecond,D#3
2947,Left,1,44,80,598.0,0.229167,ThirtySecond,G#2
2944,Right,0,77,80,598.0,0.979167,Eighth,G#4_F5_C5
2949,Right,0,75,80,598.25,0.229167,ThirtySecond,D#5
2948,Left,1,51,80,598.25,0.229167,ThirtySecond,D#3
2951,Right,0,77,80,598.5,0.229167,ThirtySecond,F5
2950,Left,1,56,80,598.5,0.229167,ThirtySecond,G#3
2952,Left,1,51,80,598.75,0.229167,ThirtySecond,D#3
2953,Right,0,75,80,598.75,0.229167,ThirtySecond,D#5
2955,Right,0,77,80,599.0,0.979167,Eighth,G4_F5_A#4
2954,Left,1,39,80,599.0,0.229167,ThirtySecond,D#2
2959,Right,0,75,80,599.25,0.229167,ThirtySecond,D#5
2958,Left,1,51,80,599.25,0.229167,ThirtySecond,D#3
2960,Left,1,55,80,599.5,0.229167,ThirtySecond,G3
2961,Right,0,77,80,599.5,0.229167,ThirtySecond,F5
2963,Left,1,51,80,599.75,0.229167,ThirtySecond,D#3
2962,Right,0,75,80,599.75,0.229167,ThirtySecond,D#5
2964,Right,0,72,80,600.0,0.0625,TripletSixtyFourth,C5
2965,Left,1,42,80,600.0,0.229167,ThirtySecond,F#2
2966,Right,0,70,80,600.072917,0.166667,TripletThirtySecond,A#4
2968,Left,1,51,80,600.25,0.229167,ThirtySecond,D#3
2967,Right,0,69,80,600.25,0.229167,ThirtySecond,A4
2970,Right,0,70,80,600.5,0.229167,ThirtySecond,A#4
2969,Left,1,54,80,600.5,0.229167,ThirtySecond,F#3
2972,Left,1,51,80,600.75,0.229167,ThirtySecond,D#3
2971,Right,0,72,80,600.75,0.229167,ThirtySecond,C5
2974,Left,1,41,80,601.0,0.229167,ThirtySecond,F2
2973,Right,0,73,80,601.0,0.979167,Eighth,C#5
2976,Left,1,53,80,601.25,0.229167,ThirtySecond,F3
2975,Right,0,80,80,601.25,0.229167,ThirtySecond,G#5
2977,Right,0,82,80,601.5,0.229167,ThirtySecond,A#5
2978,Left,1,56,80,601.5,0.229167,ThirtySecond,G#3
2980,Right,0,80,80,601.75,0.229167,ThirtySecond,G#5
2979,Left,1,60,80,601.75,0.229167,ThirtySecond,C4
2981,Right,0,73,80,602.0,0.979167,Eighth,C#5_A#5
2982,Left,1,53,80,602.0,0.229167,ThirtySecond,F3
2985,Right,0,80,80,602.25,0.229167,ThirtySecond,G#5
2984,Left,1,56,80,602.25,0.229167,ThirtySecond,G#3
2987,Right,0,82,80,602.5,0.229167,ThirtySecond,A#5
2986,Left,1,61,80,602.5,0.229167,ThirtySecond,C#4
2988,Left,1,56,80,602.75,0.229167,ThirtySecond,G#3
2989,Right,0,80,80,602.75,0.229167,ThirtySecond,G#5
2990,Right,0,82,80,603.0,0.979167,ThirtySecond,C5_A#5
2992,Left,1,51,80,603.0,0.229167,ThirtySecond,D#3
2993,Right,0,80,80,603.25,0.229167,ThirtySecond,G#5
2994,Left,1,56,80,603.25,0.229167,ThirtySecond,G#3
2996,Right,0,82,80,603.5,0.229167,ThirtySecond,A#5
2995,Left,1,60,80,603.5,0.229167,ThirtySecond,C4
2998,Right,0,80,80,603.75,0.229167,ThirtySecond,G#5
2997,Left,1,56,80,603.75,0.229167,ThirtySecond,G#3
2999,Right,0,82,80,604.0,0.979167,ThirtySecond,F5_A#5
3001,Left,1,50,80,604.0,0.229167,ThirtySecond,D3
3002,Left,1,53,80,604.25,0.229167,ThirtySecond,F3
3003,Right,0,80,80,604.25,0.229167,ThirtySecond,G#5
3005,Right,0,82,80,604.5,0.229167,ThirtySecond,A#5
3004,Left,1,58,80,604.5,0.229167,ThirtySecond,A#3
3007,Right,0,80,80,604.75,0.229167,ThirtySecond,G#5
3006,Left,1,53,80,604.75,0.229167,ThirtySecond,F3
3009,Left,1,49,80,605.0,0.229167,ThirtySecond,C#3
3008,Right,0,80,80,605.0,0.979167,ThirtySecond,G#5_A#4
3012,Right,0,79,80,605.25,0.229167,ThirtySecond,G5
3011,Left,1,51,80,605.25,0.229167,ThirtySecond,D#3
3013,Left,1,58,80,605.5,0.229167,ThirtySecond,A#3
3014,Right,0,80,80,605.5,0.229167,ThirtySecond,G#5
3016,Right,0,79,80,605.75,0.229167,ThirtySecond,G5
3015,Left,1,51,80,605.75,0.229167,ThirtySecond,D#3
3017,Right,0,82,80,606.0,0.979167,ThirtySecond,D#5_A#5
3019,Left,1,48,80,606.0,0.229167,ThirtySecond,C3
3020,Left,1,51,80,606.25,0.229167,ThirtySecond,D#3
3021,Right,0,80,80,606.25,0.229167,ThirtySecond,G#5
3023,Right,0,82,80,606.5,0.229167,ThirtySecond,A#5
3022,Left,1,56,80,606.5,0.229167,ThirtySecond,G#3
3024,Left,1,51,80,606.75,0.229167,ThirtySecond,D#3
3025,Right,0,80,80,606.75,0.229167,ThirtySecond,G#5
3027,Left,1,39,80,607.0,0.229167,ThirtySecond,D#2
3026,Right,0,68,80,607.0,0.979167,Eighth,G#4_F5
3030,Right,0,75,80,607.25,0.229167,ThirtySecond,D#5
3029,Left,1,48,80,607.25,0.229167,ThirtySecond,C3
3032,Left,1,51,80,607.5,0.229167,ThirtySecond,D#3
3031,Right,0,77,80,607.5,0.229167,ThirtySecond,F5
3034,Left,1,56,80,607.75,0.229167,ThirtySecond,G#3
3033,Right,0,75,80,607.75,0.229167,ThirtySecond,D#5
3037,Left,1,39,80,608.0,0.229167,ThirtySecond,D#2
3035,Right,0,77,80,608.0,0.979167,Eighth,G#4_F5_C5
3039,Left,1,48,80,608.25,0.229167,ThirtySecond,C3
3040,Right,0,75,80,608.25,0.229167,ThirtySecond,D#5
3041,Left,1,51,80,608.5,0.229167,ThirtySecond,D#3
3042,Right,0,77,80,608.5,0.229167,ThirtySecond,F5
3043,Left,1,56,80,608.75,0.229167,ThirtySecond,G#3
3044,Right,0,75,80,608.75,0.229167,ThirtySecond,D#5
3046,Right,0,67,80,609.0,0.979167,Eighth,G4_F5_A#4
3045,Left,1,39,80,609.0,0.229167,ThirtySecond,D#2
3050,Right,0,75,80,609.25,0.229167,ThirtySecond,D#5
3049,Left,1,49,80,609.25,0.229167,ThirtySecond,C#3
3051,Right,0,77,80,609.5,0.229167,ThirtySecond,F5
3052,Left,1,51,80,609.5,0.229167,ThirtySecond,D#3
3054,Right,0,75,80,609.75,0.229167,ThirtySecond,D#5
3053,Left,1,55,80,609.75,0.229167,ThirtySecond,G3
3057,Right,0,68,80,610.0,0.479167,Sixteenth,G#4
3055,Left,1,48,80,610.0,0.979167,Eighth,G#3_G#2_D#3_C3
3060,Right,0,63,80,610.5,0.479167,Sixteenth,D#4
3061,Right,0,63,80,611.0,0.479167,Sixteenth,D#4
3062,Right,0,63,80,611.5,0.479167,Sixteenth,D#4
3063,Right,0,63,80,612.0,0.479167,Sixteenth,D#4
3064,Right,0,63,80,612.5,0.479167,Sixteenth,D#4
3065,Right,0,60,71,613.0,1.979167,Sixteenth,D#4_C5_C4
3068,Right,0,60,67,613.5,0.479167,Sixteenth,D#4_C4
3070,Left,1,39,80,614.0,0.979167,Eighth,D#3_D#2
3072,Right,0,63,68,614.0,0.479167,Sixteenth,D#4_C4
3074,Right,0,63,67,614.5,0.479167,Sixteenth,D#4_C4
3076,Left,1,44,80,615.0,0.979167,Eighth,G#3_G#2
3077,Right,0,63,68,615.0,0.479167,Sixteenth,D#4_C4_A#4
3081,Right,0,63,68,615.5,0.479167,Sixteenth,G#4_D#4_C4
3084,Right,0,68,80,616.0,0.979167,Sixteenth,G#4_D#4_C#4
3087,Right,0,61,68,616.5,0.479167,Sixteenth,D#4_C#4
3090,Left,1,51,80,617.0,0.979167,Eighth,D#3_D#2
3089,Right,0,63,69,617.0,0.979167,Sixteenth,G4_D#4_C#4
3094,Right,0,61,67,617.5,0.479167,Sixteenth,D#4_C#4
3098,Left,1,58,80,618.0,0.979167,Eighth,A#3_A#2
3096,Right,0,61,69,618.0,0.729167,Sixteenth,G4_D#4_C#4
3101,Right,0,61,68,618.5,0.479167,Sixteenth,D#4_C#4
3103,Right,0,68,80,618.75,0.229167,ThirtySecond,G#4
3104,Right,0,63,70,619.0,0.979167,Sixteenth,D#4_C#4_A#4
3107,Right,0,63,69,619.5,0.479167,Sixteenth,D#4_C#4
3109,Left,1,51,80,620.0,0.979167,Eighth,D#3_D#2
3111,Right,0,63,70,620.0,0.979167,Sixteenth,D#4_C#4_A#4
3114,Right,0,61,68,620.5,0.479167,Sixteenth,D#4_C#4
3119,Left,1,55,80,621.0,0.979167,Eighth,G3_G2
3116,Right,0,61,69,621.0,0.729167,Sixteenth,D#4_C#4_A#4
3121,Right,0,63,69,621.5,0.479167,Sixteenth,D#4_C#4
3123,Right,0,72,80,621.75,0.229167,ThirtySecond,C5
3124,Right,0,63,70,622.0,0.979167,Sixteenth,G#4_D#4_C4
3127,Right,0,63,70,622.5,0.479167,Sixteenth,D#4_C4
3130,Right,0,63,69,623.0,0.479167,Sixteenth,D#4_C4
3129,Left,1,39,80,623.0,0.979167,Eighth,D#3_D#2
3133,Right,0,60,69,623.5,0.479167,Sixteenth,D#4_C4
3137,Right,0,60,68,624.0,0.479167,Sixteenth,D#4_C4
3135,Left,1,56,80,624.0,0.979167,Eighth,G#3_G#2
3139,Right,0,60,69,624.5,0.479167,Sixteenth,D#4_C4
3141,Right,0,60,68,625.0,0.479167,Sixteenth,D#4_C5_C4
3144,Right,0,71,80,625.5,0.479167,Sixteenth,D#4_C4_B4
3147,Left,1,39,80,626.0,0.979167,Eighth,D#3_D#2
3148,Right,0,63,68,626.0,0.479167,Sixteenth,D#4_C4_C#5
3152,Right,0,72,80,626.5,0.479167,Sixteenth,D#4_C5_C4
3155,Left,1,56,80,627.0,0.979167,Eighth,G#3_G#2
3156,Right,0,63,70,627.0,0.479167,Sixteenth,D#4_C4_A#4
3160,Right,0,68,80,627.5,0.479167,Sixteenth,G#4_D#4_C4
3163,Right,0,63,69,628.0,0.479167,Sixteenth,G#4_D#4_C#4
3166,Right,0,63,70,628.5,0.479167,Sixteenth,G4_D#4_C#4
3170,Right,0,63,70,629.0,0.479167,Sixteenth,G4_D#4_C#4
3169,Left,1,39,80,629.0,0.979167,Eighth,D#3_D#2
3174,Right,0,63,70,629.5,0.479167,Sixteenth,F#4_D#4_C#4
3177,Right,0,63,67,630.0,0.479167,Sixteenth,G4_D#4_C#4
3179,Left,1,58,80,630.0,0.979167,Eighth,A#3_A#2
3182,Right,0,63,68,630.5,0.479167,Sixteenth,G#4_D#4_C#4
3185,Right,0,63,64,631.0,0.479167,Sixteenth,D#4_C#4_A#4
3188,Right,0,61,69,631.5,0.479167,Sixteenth,D#4_C#4_A4
3193,Right,0,63,69,632.0,0.479167,Sixteenth,D#4_C#4_A#4
3191,Left,1,51,80,632.0,0.979167,Eighth,D#3_D#2
3196,Right,0,63,70,632.5,0.479167,Sixteenth,D#4_C#4_A4
3199,Right,0,63,70,633.0,0.479167,Sixteenth,D#4_C#4_A#4
3201,Left,1,43,80,633.0,0.979167,Eighth,G3_G2
3204,Right,0,63,70,633.5,0.479167,Sixteenth,D#4_C5_C#4
3207,Right,0,60,80,634.0,0.979167,Sixteenth,G#4_D#4_C4
3210,Right,0,63,80,634.5,0.479167,Sixteenth,D#4_C4
3212,Right,0,60,80,635.0,0.479167,Sixteenth,D#4_C4
3214,Left,1,51,80,635.0,0.979167,Eighth,D#3
3215,Right,0,60,80,635.5,0.479167,Sixteenth,D#4_C4
3217,Right,0,60,80,636.0,0.479167,Sixteenth,D#4_C4
3219,Left,1,56,80,636.0,0.979167,Eighth,G#3
3220,Right,0,63,80,636.5,0.479167,Sixteenth,D#4_C4_A4
3223,Right,0,61,70,637.0,0.979167,Sixteenth,D#4_C#4_A#4
3226,Right,0,63,70,637.5,0.479167,Sixteenth,D#4_C#4
3228,Right,0,61,70,638.0,0.479167,Sixteenth,D#4_C#4
3230,Left,1,39,70,638.0,0.979167,Eighth,D#2
3231,Right,0,63,69,638.5,0.479167,Sixteenth,D#4_C#4
3233,Left,1,43,69,639.0,0.979167,Eighth,G2
3234,Right,0,63,69,639.0,0.479167,Sixteenth,D#4_C#4
3236,Right,0,72,68,639.5,0.479167,Sixteenth,D#4_C5_C#4
3239,Right,0,63,68,640.0,0.979167,Sixteenth,G#4_D#4_C4
3242,Right,0,63,67,640.5,0.479167,Sixteenth,D#4_C4
3245,Right,0,63,67,641.0,0.479167,Sixteenth,D#4_C4
3244,Left,1,51,67,641.0,0.979167,Eighth,D#3
3247,Right,0,60,66,641.5,0.479167,Sixteenth,D#4_C4
3249,Right,0,60,66,642.0,0.479167,Sixteenth,D#4_C4
3251,Left,1,56,66,642.0,0.979167,Eighth,G#3
3252,Right,0,69,66,642.5,0.479167,Sixteenth,D#4_C4_A4
3255,Right,0,63,65,643.0,0.979167,Sixteenth,D#4_C#4_A#4
3258,Right,0,63,65,643.5,0.479167,Sixteenth,D#4_C#4
3260,Left,1,39,65,644.0,0.979167,Eighth,D#2
3261,Right,0,61,65,644.0,0.479167,Sixteenth,D#4_C#4
3263,Right,0,63,65,644.5,0.479167,Sixteenth,D#4_C#4
3265,Left,1,43,65,645.0,0.979167,Eighth,G2
3266,Right,0,63,65,645.0,0.479167,Sixteenth,D#4_C#4
3268,Right,0,63,65,645.5,0.479167,Sixteenth,D#4_C5_C#4
3271,Right,0,68,65,646.0,3.979167,Sixteenth,G#4_D#4_C4
3274,Right,0,63,65,646.5,0.479167,Sixteenth,D#4_C4
3276,Right,0,63,65,647.0,0.479167,Sixteenth,D#4_C4
3278,Left,1,44,65,647.0,2.979167,DottedQuarter,G#2
3279,Right,0,63,65,647.5,0.479167,Sixteenth,D#4_C4
3281,Right,0,60,65,648.0,0.479167,Sixteenth,D#4_C4
3283,Left,1,39,65,648.0,1.979167,Quarter,D#2
3284,Right,0,63,65,648.5,0.479167,Sixteenth,D#4_C4
3288,Left,1,36,65,649.0,1.979167,Quarter,C2
3286,Right,0,63,65,649.0,0.479167,Sixteenth,D#4_C4
3289,Right,0,63,65,649.5,0.479167,Sixteenth,D#4_C4
3293,Right,0,63,65,650.0,0.979167,Sixteenth,G#4_D#4_C4
3291,Left,1,39,65,650.0,1.979167,Quarter,G#2_D#2
3296,Right,0,63,65,650.5,0.479167,Sixteenth,D#4_C4
3301,Left,1,44,65,651.0,5.979167,Eighth,G#2_C2
3298,Right,0,63,65,651.0,0.979167,Sixteenth,G#4_D#4_C4
3303,Right,0,63,65,651.5,0.479167,Sixteenth,D#4_C4
3305,Left,1,32,65,652.0,4.979167,Half,G#2_G#1
3306,Right,0,68,65,652.0,4.979167,Half,G#4_D#4_C4
