,hand,channel,note,velocity,start_beat,duration,note_value,chord
0,Right,0,51,80,0.0,0.739583,DottedEighth,D#4_D#3
2,Right,0,63,80,0.75,0.239583,Sixteenth,D#4_D#3
4,Left,1,44,80,1.0,3.989583,Whole,G#2_G#1
5,Right,0,51,80,1.0,0.989583,Quarter,G#3_D#4_D#3_B3
10,Right,0,56,80,2.0,0.739583,DottedEighth,G#3_D#4_D#3_B3
14,Right,0,63,80,2.75,0.239583,Sixteenth,G#3_D#4_D#3_B3
18,Right,0,63,80,3.0,0.739583,DottedEighth,G#3_D#4_D#3_B3
22,Left,1,32,80,3.0,1.989583,Half,G#1
23,Right,0,56,80,3.75,0.239583,Sixteenth,G#3_D#4_D#3_B3
27,Right,0,63,80,4.0,0.739583,DottedEighth,G3_D#4_D#3_A#3
31,Right,0,63,80,4.75,0.239583,Sixteenth,G#3_D#4_D#3_B3
36,Right,0,63,80,5.0,2.989583,DottedHalf,D#4_D#3_C#4_A#3
35,Left,1,39,80,5.0,0.739583,DottedEighth,D#2
40,Left,1,39,80,5.75,0.239583,Sixteenth,D#2
41,Left,1,43,80,6.0,0.739583,DottedEighth,G2
42,Left,1,46,80,6.75,0.239583,Sixteenth,A#2
43,Left,1,51,80,7.0,0.989583,Quarter,D#3
46,Right,0,58,80,8.0,0.739583,DottedEighth,G3_D#4_A#3
44,Left,1,49,80,8.0,0.739583,DottedEighth,D#3_C#3
50,Right,0,55,80,8.75,0.239583,Sixteenth,G3_D#4_A#3
49,Left,1,51,80,8.75,0.239583,Sixteenth,D#3_C#3
56,Right,0,59,80,9.0,0.989583,Quarter,G#3_D#4_B3
54,Left,1,47,80,9.0,0.989583,Quarter,D#3_B2
59,Right,0,63,80,10.0,0.739583,DottedEighth,G#3_D#4_B3
61,Left,1,51,80,10.0,0.739583,DottedEighth,G#2_D#3
66,Right,0,63,80,10.75,0.239583,Sixteenth,G#3_D#4_B3
64,Left,1,44,80,10.75,0.239583,Sixteenth,G#2_D#3
69,Left,1,43,80,11.0,0.989583,Quarter,G2_D#3
70,Right,0,58,80,11.0,0.989583,Quarter,D#4_C#4_A#3
74,Right,0,63,80,12.0,0.739583,DottedEighth,G#3_D#4_B3
76,Left,1,51,80,12.0,0.739583,DottedEighth,G#2_D#3
81,Right,0,63,80,12.75,0.239583,Sixteenth,G#3_D#4_B3
79,Left,1,51,80,12.75,0.239583,Sixteenth,G#2_D#3
84,Right,0,58,80,13.0,0.989583,Quarter,G3_D#4_A#3
86,Left,1,39,80,13.0,0.989583,Quarter,D#3_D#2
89,Right,0,63,80,14.0,0.989583,Quarter,G3_D#4_A#3
92,Left,1,51,80,14.0,0.989583,Quarter,D#3_D#2
97,Left,1,51,80,15.0,0.989583,Quarter,D#3_D#2
94,Right,0,55,80,15.0,0.989583,Quarter,G3_D#4_A#3
99,Right,0,63,80,16.0,0.739583,DottedEighth,D#4_D#3
101,Right,0,63,80,16.75,0.239583,Sixteenth,D#4_D#3
104,Right,0,63,80,17.0,0.989583,Quarter,G#3_D#4_D#3_B3
103,Left,1,44,80,17.0,3.989583,Whole,G#2_G#1
109,Right,0,51,80,18.0,0.739583,DottedEighth,G#3_D#4_D#3_B3
113,Right,0,63,84,18.75,0.239583,Sixteenth,G#3_D#4_D#3_B3
117,Right,0,63,86,19.0,0.739583,DottedEighth,G#3_D#4_D#3_B3
121,Left,1,32,80,19.0,1.989583,Half,G#1
122,Right,0,56,91,19.75,0.239583,Sixteenth,G#3_D#4_D#3_B3
126,Right,0,51,93,20.0,0.739583,DottedEighth,F#3_D#4_D#3_A#3
130,Right,0,53,98,20.75,0.239583,Sixteenth,G#3_F3_D#4_D#3
138,Left,1,39,80,21.0,0.739583,DottedEighth,D#2
134,Right,0,51,99,21.0,2.989583,DottedHalf,F#3_D#4_D#3_A#3
139,Left,1,39,80,21.75,0.239583,Sixteenth,D#2
140,Left,1,42,80,22.0,0.739583,DottedEighth,F#2
141,Left,1,46,80,22.75,0.239583,Sixteenth,A#2
142,Left,1,51,80,23.0,0.989583,Quarter,D#3
143,Right,0,63,80,24.0,0.739583,DottedEighth,F#3_D#4_B3
146,Left,1,47,80,24.0,0.739583,DottedEighth,B2
150,Left,1,47,80,24.75,0.239583,Sixteenth,B2
147,Right,0,63,80,24.75,0.239583,Sixteenth,F#3_D#4_B3
152,Left,1,44,80,25.0,0.989583,Quarter,G#2
151,Right,0,56,80,25.0,0.989583,Quarter,G#3_D#4_B3
156,Right,0,56,80,26.0,0.739583,DottedEighth,G#3_C#4_B3
155,Left,1,40,80,26.0,0.739583,DottedEighth,E2
159,Left,1,40,80,26.75,0.239583,Sixteenth,E2
160,Right,0,56,80,26.75,0.239583,Sixteenth,G#3_C#4_B3
163,Left,1,42,80,27.0,0.989583,Quarter,F#2
164,Right,0,54,80,27.0,0.989583,Quarter,F#3_C#4_B3
169,Left,1,42,80,28.0,0.739583,DottedEighth,F#2_F#1
167,Right,0,52,80,28.0,0.739583,DottedEighth,F#3_E3_C#4_A#3
173,Right,0,61,80,28.75,0.239583,Sixteenth,F#3_E3_C#4_A#3
177,Left,1,42,80,28.75,0.239583,Sixteenth,F#2_F#1
179,Left,1,35,80,29.0,0.989583,Quarter,B2_B1
181,Right,0,59,80,29.0,0.989583,Quarter,D#3_B3_B2
184,Right,0,47,80,30.0,0.989583,Quarter,D#3_B3_B2
187,Left,1,47,80,30.0,0.989583,Quarter,B2_B1
189,Left,1,47,80,31.0,0.989583,Quarter,B2_B1
191,Right,0,59,80,31.0,0.989583,Quarter,D#3_B3_B2
194,Right,0,66,80,32.0,0.739583,DottedEighth,F#4_F#3
196,Right,0,54,80,32.75,0.239583,Sixteenth,F#4_F#3
198,Right,0,66,80,33.0,0.989583,Quarter,F#4_F#3_D4_B3
201,Left,1,47,80,33.0,3.989583,Whole,B2_B1
204,Right,0,66,80,34.0,0.739583,DottedEighth,F#4_F#3_D4_B3
208,Right,0,66,84,34.75,0.239583,Sixteenth,F#4_F#3_D4_B3
212,Right,0,54,86,35.0,0.739583,DottedEighth,F#4_F#3_D4_B3
216,Left,1,35,86,35.0,1.989583,Half,B1
217,Right,0,62,91,35.75,0.239583,Sixteenth,F#4_F#3_D4_B3
221,Right,0,61,93,36.0,0.739583,DottedEighth,F#4_F#3_C#4_A#3
225,Right,0,66,98,36.75,0.239583,Sixteenth,F#4_F#3_D4_B3
231,Right,0,64,100,37.0,2.989583,DottedHalf,F#4_F#3_E4_C#4
229,Left,1,42,100,37.0,0.739583,DottedEighth,F#2_F#1
235,Left,1,42,100,37.75,0.239583,Sixteenth,F#2_F#1
237,Left,1,46,100,38.0,0.739583,DottedEighth,A#2_A#1
239,Left,1,49,100,38.75,0.239583,Sixteenth,C#3_C#2
241,Left,1,54,100,39.0,0.989583,Quarter,F#3_F#2
245,Right,0,66,100,40.0,0.739583,DottedEighth,F#4_F#3_C#4_A#3
243,Left,1,52,100,40.0,0.739583,DottedEighth,E3_E2
249,Left,1,52,100,40.75,0.239583,Sixteenth,E3_E2
250,Right,0,54,100,40.75,0.239583,Sixteenth,F#4_F#3_C#4_A#3
256,Right,0,62,100,41.0,0.989583,Quarter,F#4_F#3_D4_B3
255,Left,1,50,100,41.0,0.989583,Quarter,D3_D2
263,Right,0,66,100,42.0,0.739583,DottedEighth,F#4_F#3_D4_B3
261,Left,1,35,100,42.0,0.739583,DottedEighth,B2_B1
267,Right,0,59,100,42.75,0.239583,Sixteenth,F#4_F#3_D4_B3
269,Left,1,47,100,42.75,0.239583,Sixteenth,B2_B1
275,Right,0,66,100,43.0,0.989583,Quarter,F#4_F#3_E4_C#4
273,Left,1,34,100,43.0,0.989583,Quarter,A#2_A#1
279,Left,1,47,100,44.0,0.739583,DottedEighth,B2_B1
281,Right,0,54,100,44.0,0.739583,DottedEighth,F#4_F#3_D4_B3
285,Right,0,54,100,44.75,0.239583,Sixteenth,F#4_F#3_D4_B3
289,Left,1,47,100,44.75,0.239583,Sixteenth,B2_B1
291,Right,0,54,100,45.0,0.989583,Quarter,F#4_F#3_C#4_A#3
294,Left,1,42,100,45.0,0.989583,Quarter,F#2_F#1
299,Right,0,66,100,46.0,0.989583,Quarter,F#4_F#3_C#4_A#3
297,Left,1,42,100,46.0,0.989583,Quarter,F#2_F#1
303,Left,1,42,100,47.0,0.989583,Quarter,F#2_F#1
305,Right,0,66,100,47.0,0.989583,Quarter,F#4_F#3_C#4_A#3
309,Right,0,66,80,48.0,0.739583,DottedEighth,F#4_F#3
311,Right,0,66,80,48.75,0.239583,Sixteenth,F#4_F#3
313,Right,0,62,80,49.0,0.989583,Quarter,F#4_F#3_D4_B3
316,Left,1,47,80,49.0,3.989583,Whole,B2_B1
319,Right,0,66,80,50.0,0.739583,DottedEighth,F#4_F#3_D4_B3
323,Right,0,66,80,50.75,0.239583,Sixteenth,F#4_F#3_D4_B3
330,Left,1,35,80,51.0,1.989583,Half,B1
327,Right,0,66,80,51.0,0.739583,DottedEighth,F#4_F#3_D4_B3
332,Right,0,66,80,51.75,0.239583,Sixteenth,F#4_F#3_D4_B3
336,Right,0,59,80,52.0,0.739583,DottedEighth,E4_E3_C#4_B3
340,Right,0,66,80,52.75,0.239583,Sixteenth,F#4_F#3_D4_B3
348,Left,1,40,80,53.0,0.739583,DottedEighth,E2
344,Right,0,67,80,53.0,2.989583,DottedHalf,G4_G3_E4_B3
349,Left,1,40,80,53.75,0.239583,Sixteenth,E2
350,Left,1,43,80,54.0,0.739583,DottedEighth,G2
351,Left,1,47,80,54.75,0.239583,Sixteenth,B2
352,Left,1,52,80,55.0,0.989583,Quarter,E3
353,Left,1,43,80,56.0,0.739583,DottedEighth,G2_E3
355,Right,0,67,80,56.0,0.739583,DottedEighth,G4_G3_E4_B3
359,Left,1,52,80,56.75,0.239583,Sixteenth,G2_E3
360,Right,0,67,80,56.75,0.239583,Sixteenth,G4_G3_E4_B3
365,Left,1,45,80,57.0,0.989583,Quarter,F#3_D3_A2
368,Right,0,57,80,57.0,0.989583,Quarter,F#4_D4_A3
372,Left,1,45,85,58.0,0.739583,DottedEighth,F#3_D3_A2
371,Right,0,57,85,58.0,0.739583,DottedEighth,F#4_D4_A3
377,Left,1,50,89,58.75,0.239583,Sixteenth,F#3_D3_A2
379,Right,0,57,89,58.75,0.239583,Sixteenth,F#4_D4_A3
383,Left,1,45,90,59.0,0.989583,Quarter,E3_C#3_A2
386,Right,0,57,90,59.0,0.989583,Quarter,E4_C#4_A3
389,Left,1,52,95,60.0,0.739583,DottedEighth,E3_C#3_A2
392,Right,0,57,95,60.0,0.739583,DottedEighth,E4_C#4_A4_A3
399,Right,0,61,99,60.75,0.239583,Sixteenth,E4_C#4_A4_A3
396,Left,1,49,99,60.75,0.239583,Sixteenth,E3_C#3_A2
405,Right,0,62,80,61.0,0.989583,Quarter,D4
403,Left,1,38,80,61.0,0.989583,Quarter,D3_D2
408,Right,0,62,80,62.0,0.989583,Quarter,D4
406,Left,1,38,80,62.0,0.989583,Quarter,D3_D2
411,Right,0,62,80,63.0,0.989583,Quarter,D4
409,Left,1,38,80,63.0,0.989583,Quarter,D3_D2
413,Right,0,71,70,64.0,0.739583,DottedEighth,F4_B4
412,Left,1,56,70,64.0,0.739583,DottedEighth,G#3_D3
416,Right,0,65,73,64.75,0.239583,Sixteenth,F4_B4
418,Left,1,50,73,64.75,0.239583,Sixteenth,G#3_D3
420,Right,0,65,74,65.0,1.989583,Half,F4_B4
421,Left,1,50,74,65.0,1.989583,Quarter,G#3_D3
424,Left,1,50,79,66.0,0.989583,Quarter,D3
425,Left,1,50,84,67.0,0.989583,Quarter,D3_A#3
426,Right,0,65,84,67.0,0.989583,Quarter,F4_A#4
429,Left,1,50,89,68.0,0.989583,Quarter,D3_B3
431,Right,0,65,89,68.0,0.989583,Quarter,G#4_F4
433,Left,1,58,90,69.0,0.739583,DottedEighth,D#3_A#3
435,Right,0,63,90,69.0,0.739583,DottedEighth,G4_D#4
437,Left,1,50,90,69.75,0.239583,Sixteenth,G#3_D3
438,Right,0,65,90,69.75,0.239583,Sixteenth,F4_B4
443,Right,0,71,100,70.0,1.989583,Half,F4_B4
441,Left,1,50,100,70.0,1.989583,Quarter,G#3_D3
445,Left,1,50,100,71.0,0.989583,Quarter,D3
448,Right,0,65,100,72.0,0.739583,DottedEighth,F4_A#4
446,Left,1,50,100,72.0,0.739583,DottedEighth,G#3_D3
450,Left,1,59,100,72.75,0.239583,Sixteenth,D3_B3
451,Right,0,65,100,72.75,0.239583,Sixteenth,G#4_F4
454,Left,1,58,100,73.0,0.739583,DottedEighth,D#3_A#3
456,Right,0,67,100,73.0,0.739583,DottedEighth,G4_D#4
460,Right,0,65,120,73.75,0.239583,Sixteenth,F4_B4
458,Left,1,56,120,73.75,0.239583,Sixteenth,G#3_D3
464,Left,1,50,120,74.0,0.739583,DottedEighth,G#3_D3
462,Right,0,71,120,74.0,0.739583,DottedEighth,F4_B4
468,Right,0,71,120,74.75,0.239583,Sixteenth,F4_B4
466,Left,1,56,120,74.75,0.239583,Sixteenth,G#3_D3
471,Right,0,71,120,75.0,0.739583,DottedEighth,F4_B4
470,Left,1,56,120,75.0,0.739583,DottedEighth,G#3_D3
476,Right,0,65,120,75.75,0.239583,Sixteenth,F4_B4
474,Left,1,50,120,75.75,0.239583,Sixteenth,G#3_D3
478,Left,1,50,120,76.0,0.739583,DottedEighth,D3_A#3
480,Right,0,70,120,76.0,0.739583,DottedEighth,F4_A#4
482,Left,1,59,120,76.75,0.239583,Sixteenth,D3_B3
484,Right,0,65,120,76.75,0.239583,Sixteenth,G#4_F4
486,Right,0,63,120,77.0,0.989583,Quarter,G4_D#4
488,Left,1,51,120,77.0,0.989583,Quarter,D#3_A#3
491,Left,1,52,120,78.0,1.989583,Half,E3
490,Right,0,64,120,78.0,1.989583,Half,E4
493,Left,1,51,120,80.0,0.239583,Sixteenth,D#3
492,Right,0,63,120,80.0,0.239583,Sixteenth,D#4
495,Left,1,49,120,80.25,0.239583,Sixteenth,C#3
494,Right,0,61,120,80.25,0.239583,Sixteenth,C#4
496,Left,1,47,120,80.5,0.239583,Sixteenth,B2
497,Right,0,59,120,80.5,0.239583,Sixteenth,B3
498,Left,1,46,120,80.75,0.239583,Sixteenth,A#2
499,Right,0,58,120,80.75,0.239583,Sixteenth,A#3
500,Left,1,44,120,81.0,3.989583,Whole,G#2_G#1
502,Right,0,56,120,81.0,0.989583,Quarter,G#3
503,Right,0,63,80,82.0,0.739583,DottedEighth,G#3_D#4_D#3_B3
507,Right,0,59,80,82.75,0.239583,Sixteenth,G#3_D#4_D#3_B3
512,Right,0,63,80,83.0,0.739583,DottedEighth,G#3_D#4_D#3_B3
511,Left,1,32,80,83.0,1.989583,Half,G#1
516,Right,0,56,80,83.75,0.239583,Sixteenth,G#3_D#4_D#3_B3
520,Right,0,63,80,84.0,0.739583,DottedEighth,G3_D#4_D#3_A#3
524,Right,0,59,80,84.75,0.239583,Sixteenth,G#3_D#4_D#3_B3
529,Right,0,63,80,85.0,2.989583,DottedHalf,D#4_D#3_C#4_A#3
528,Left,1,39,80,85.0,0.739583,DottedEighth,D#2
533,Left,1,39,80,85.75,0.239583,Sixteenth,D#2
534,Left,1,43,80,86.0,0.739583,DottedEighth,G2
535,Left,1,46,80,86.75,0.239583,Sixteenth,A#2
536,Left,1,51,80,87.0,0.989583,Quarter,D#3
537,Right,0,63,80,88.0,0.739583,DottedEighth,G3_D#4_D#3_A#3
541,Left,1,51,80,88.0,0.739583,DottedEighth,D#3
542,Right,0,63,80,88.75,0.239583,Sixteenth,G3_D#4_D#3_A#3
545,Left,1,51,80,88.75,0.239583,Sixteenth,D#3
548,Right,0,56,80,89.0,0.989583,Quarter,G#3_D#4_D#3_B3
547,Left,1,47,80,89.0,0.114583,ThirtySecond,B2
552,Left,1,49,80,89.0625,0.114583,ThirtySecond,C#3
553,Left,1,47,80,89.125,0.114583,ThirtySecond,B2
554,Left,1,49,80,89.1875,0.114583,ThirtySecond,C#3
555,Left,1,47,80,89.25,0.114583,ThirtySecond,B2
556,Left,1,49,80,89.3125,0.114583,ThirtySecond,C#3
557,Left,1,47,80,89.375,0.114583,ThirtySecond,B2
558,Left,1,49,80,89.4375,0.114583,ThirtySecond,C#3
559,Left,1,47,80,89.5,0.114583,ThirtySecond,B2
560,Left,1,49,80,89.5625,0.114583,ThirtySecond,C#3
561,Left,1,47,80,89.625,0.114583,ThirtySecond,B2
562,Left,1,49,80,89.6875,0.114583,ThirtySecond,C#3
563,Left,1,47,80,89.75,0.114583,ThirtySecond,B2
564,Left,1,49,80,89.8125,0.114583,ThirtySecond,C#3
565,Left,1,47,80,89.875,0.114583,ThirtySecond,B2
566,Left,1,49,80,89.9375,0.114583,ThirtySecond,C#3
567,Right,0,51,80,90.0,0.739583,DottedEighth,G#3_D#4_D#3_B3
568,Left,1,47,80,90.0,0.114583,ThirtySecond,B2
572,Left,1,49,80,90.0625,0.114583,ThirtySecond,C#3
573,Left,1,47,80,90.125,0.114583,ThirtySecond,B2
574,Left,1,49,80,90.1875,0.114583,ThirtySecond,C#3
575,Left,1,47,80,90.25,0.114583,ThirtySecond,B2
576,Left,1,49,80,90.3125,0.114583,ThirtySecond,C#3
577,Left,1,46,80,90.375,0.114583,ThirtySecond,A#2
578,Left,1,47,80,90.4375,0.114583,ThirtySecond,B2
579,Left,1,46,80,90.5,0.239583,Sixteenth,A#2
582,Left,1,44,80,90.75,0.239583,Sixteenth,G#2
580,Right,0,63,80,90.75,0.239583,Sixteenth,G#3_D#4_D#3_B3
585,Right,0,63,80,91.0,0.989583,Quarter,D#4_D#3_C#4_A#3
589,Left,1,43,80,91.0,0.989583,Quarter,G2
591,Right,0,63,80,92.0,0.739583,DottedEighth,G#3_D#4_D#3_B3
590,Left,1,44,80,92.0,0.739583,DottedEighth,G#2
595,Right,0,63,80,92.75,0.239583,Sixteenth,G#3_D#4_D#3_B3
596,Left,1,44,80,92.75,0.239583,Sixteenth,G#2
600,Left,1,39,80,93.0,0.989583,Quarter,D#2
601,Right,0,63,80,93.0,0.989583,Quarter,G3_D#4_D#3_A#3
608,Left,1,39,80,94.0,0.989583,Quarter,D#2
605,Right,0,58,80,94.0,0.989583,Quarter,G3_D#4_D#3_A#3
614,Left,1,39,80,95.0,0.989583,Quarter,D#2
610,Right,0,63,80,95.0,0.989583,Quarter,G3_D#4_D#3_A#3
615,Right,0,51,80,96.0,0.739583,DottedEighth,D#4_D#3
617,Right,0,51,80,96.75,0.239583,Sixteenth,D#4_D#3
619,Right,0,51,80,97.0,0.989583,Quarter,G#3_D#4_D#3_C4
621,Left,1,32,80,97.0,3.989583,Half,G#2_G#1
625,Right,0,63,80,98.0,0.739583,DottedEighth,G#3_D#4_D#3_C4
629,Right,0,56,80,98.75,0.239583,Sixteenth,G#3_D#4_D#3_C4
633,Left,1,32,80,99.0,1.989583,Half,G#1
634,Right,0,51,80,99.0,0.739583,DottedEighth,G#3_D#4_D#3_C4
638,Right,0,51,80,99.75,0.239583,Sixteenth,G#3_D#4_D#3_C4
642,Right,0,56,80,100.0,0.739583,DottedEighth,G#3_C#4_C#3_A#3
646,Right,0,51,80,100.75,0.239583,Sixteenth,G#3_D#4_D#3_C4
650,Right,0,52,80,101.0,2.989583,DottedHalf,G#3_E4_E3_C#4
654,Left,1,37,80,101.0,0.739583,DottedEighth,C#2
655,Left,1,37,82,101.75,0.239583,Sixteenth,C#2
656,Left,1,40,82,102.0,0.739583,DottedEighth,E2
657,Left,1,44,84,102.75,0.239583,Sixteenth,G#2
658,Left,1,49,85,103.0,0.989583,Quarter,C#3
659,Right,0,52,88,104.0,0.989583,Quarter,G#3_E4_E3_C#4
663,Right,0,69,91,105.0,2.989583,DottedHalf,E4_C#5_C#4_A4
667,Left,1,45,93,105.75,0.239583,Sixteenth,A2_A1
669,Left,1,49,94,106.0,0.739583,DottedEighth,C#3_C#2
671,Left,1,40,96,106.75,0.239583,Sixteenth,E3_E2
673,Left,1,45,97,107.0,0.989583,Quarter,A3_A2
675,Right,0,73,99,108.0,0.989583,Quarter,E4_C#5_C#4_A4
679,Right,0,73,110,109.0,2.989583,DottedHalf,D#5_C#5_A#5_A#4
683,Left,1,55,112,109.75,0.239583,Sixteenth,G3_G2
685,Left,1,58,113,110.0,0.739583,DottedEighth,A#3_A#2
687,Left,1,51,115,110.75,0.239583,Sixteenth,D#4_D#3
689,Left,1,55,116,111.0,0.989583,Quarter,G4_G3
691,Left,1,43,119,112.0,0.989583,Quarter,G3_G2
693,Right,0,82,119,112.0,0.989583,Quarter,D#5_C#5_A#5_A#4
697,Left,1,56,120,113.0,1.989583,Half,G#3_G#2
698,Right,0,83,120,113.0,1.989583,Half,D#5_B5_B4
702,Right,0,70,120,115.0,0.989583,Quarter,E5_C#5_A#5_A#4
706,Left,1,37,120,115.0,0.989583,Quarter,C#3_C#2
711,Left,1,39,120,116.0,0.989583,Quarter,D#3_D#2
708,Right,0,73,120,116.0,0.989583,Quarter,G5_G4_C#5_A#4
714,Left,1,44,120,117.0,0.989583,Quarter,G#2_G#1
716,Right,0,68,120,117.0,0.989583,Quarter,G#5_G#4_B4
719,Right,0,56,120,118.0,0.989583,Quarter,G#3_D#3_B2
722,Left,1,44,120,118.0,0.989583,Quarter,G#2_G#1
725,Left,1,32,120,119.0,0.989583,Quarter,G#1
724,Right,0,44,120,119.0,0.989583,Quarter,G#2
727,Left,1,32,80,121.0,0.239583,Sixteenth,G#1
726,Right,0,60,80,121.0,0.239583,Sixteenth,C4
728,Left,1,44,81,121.125,0.239583,Sixteenth,G#2
729,Right,0,51,81,121.125,0.239583,Sixteenth,D#3
730,Left,1,32,83,121.25,0.239583,Sixteenth,G#1
731,Right,0,60,83,121.25,0.239583,Sixteenth,C4
732,Right,0,51,85,121.375,0.239583,Sixteenth,D#3
733,Left,1,44,85,121.375,0.239583,Sixteenth,G#2
735,Right,0,60,87,121.5,0.239583,Sixteenth,C4
734,Left,1,32,87,121.5,0.239583,Sixteenth,G#1
736,Right,0,51,89,121.625,0.239583,Sixteenth,D#3
737,Left,1,44,89,121.625,0.239583,Sixteenth,G#2
739,Left,1,32,91,121.75,0.239583,Sixteenth,G#1
738,Right,0,60,91,121.75,0.239583,Sixteenth,C4
740,Right,0,51,93,121.875,0.239583,Sixteenth,D#3
741,Left,1,44,93,121.875,0.239583,Sixteenth,G#2
742,Left,1,32,94,122.0,0.239583,Sixteenth,G#1
743,Right,0,60,94,122.0,0.239583,Sixteenth,C4
744,Left,1,44,96,122.125,0.239583,Sixteenth,G#2
745,Right,0,51,96,122.125,0.239583,Sixteenth,D#3
746,Left,1,32,98,122.25,0.239583,Sixteenth,G#1
747,Right,0,60,98,122.25,0.239583,Sixteenth,C4
749,Right,0,51,100,122.375,0.239583,Sixteenth,D#3
748,Left,1,44,100,122.375,0.239583,Sixteenth,G#2
751,Right,0,60,102,122.5,0.239583,Sixteenth,C4
750,Left,1,32,102,122.5,0.239583,Sixteenth,G#1
753,Right,0,51,104,122.625,0.239583,Sixteenth,D#3
752,Left,1,44,104,122.625,0.239583,Sixteenth,G#2
754,Right,0,60,106,122.75,0.239583,Sixteenth,C4
755,Left,1,32,106,122.75,0.239583,Sixteenth,G#1
756,Left,1,44,107,122.875,0.239583,Sixteenth,G#2
757,Right,0,51,107,122.875,0.239583,Sixteenth,D#3
759,Right,0,48,109,123.0,0.489583,Eighth,G#3_C3
758,Left,1,32,109,123.0,0.489583,Eighth,G#1
763,Left,1,56,120,123.75,0.239583,Sixteenth,G#3_C4
761,Right,0,68,120,123.75,0.239583,Sixteenth,G#4_C5
767,Left,1,60,120,124.0,0.489583,Eighth,D#4_C4
765,Right,0,75,120,124.0,0.489583,Eighth,D#5_C5
770,Left,1,32,80,125.0,0.239583,Sixteenth,G#1
769,Right,0,60,80,125.0,0.239583,Sixteenth,C4
772,Left,1,44,81,125.125,0.239583,Sixteenth,G#2
771,Right,0,51,81,125.125,0.239583,Sixteenth,D#3
774,Left,1,32,83,125.25,0.239583,Sixteenth,G#1
773,Right,0,60,83,125.25,0.239583,Sixteenth,C4
776,Left,1,44,85,125.375,0.239583,Sixteenth,G#2
775,Right,0,51,85,125.375,0.239583,Sixteenth,D#3
778,Left,1,32,87,125.5,0.239583,Sixteenth,G#1
777,Right,0,60,87,125.5,0.239583,Sixteenth,C4
780,Left,1,44,89,125.625,0.239583,Sixteenth,G#2
779,Right,0,51,89,125.625,0.239583,Sixteenth,D#3
781,Left,1,32,91,125.75,0.239583,Sixteenth,G#1
782,Right,0,60,91,125.75,0.239583,Sixteenth,C4
783,Right,0,51,93,125.875,0.239583,Sixteenth,D#3
784,Left,1,44,93,125.875,0.239583,Sixteenth,G#2
785,Right,0,60,94,126.0,0.239583,Sixteenth,C4
786,Left,1,32,94,126.0,0.239583,Sixteenth,G#1
787,Right,0,51,96,126.125,0.239583,Sixteenth,D#3
788,Left,1,44,96,126.125,0.239583,Sixteenth,G#2
789,Right,0,60,98,126.25,0.239583,Sixteenth,C4
790,Left,1,32,98,126.25,0.239583,Sixteenth,G#1
791,Right,0,51,100,126.375,0.239583,Sixteenth,D#3
792,Left,1,44,100,126.375,0.239583,Sixteenth,G#2
793,Right,0,60,102,126.5,0.239583,Sixteenth,C4
794,Left,1,32,102,126.5,0.239583,Sixteenth,G#1
795,Right,0,51,104,126.625,0.239583,Sixteenth,D#3
796,Left,1,44,104,126.625,0.239583,Sixteenth,G#2
797,Right,0,60,106,126.75,0.239583,Sixteenth,C4
798,Left,1,32,106,126.75,0.239583,Sixteenth,G#1
800,Right,0,51,107,126.875,0.239583,Sixteenth,D#3
799,Left,1,44,107,126.875,0.239583,Sixteenth,G#2
802,Left,1,32,109,127.0,0.489583,Eighth,G#1
801,Right,0,56,109,127.0,0.489583,Eighth,G#3_C3
806,Right,0,84,120,127.75,0.239583,Sixteenth,G#5_C6
804,Left,1,68,120,127.75,0.239583,Sixteenth,G#4_C5
808,Left,1,72,120,128.0,0.489583,Eighth,D#5_C5
810,Right,0,84,120,128.0,0.489583,Eighth,D#6_C6
813,Left,1,46,120,129.0,0.739583,DottedEighth,A#2
812,Right,0,58,120,129.0,0.739583,DottedEighth,A#3
816,Left,1,63,120,129.75,0.239583,Sixteenth,G4_D#4
814,Right,0,79,120,129.75,0.239583,Sixteenth,G5_D#5
818,Left,1,70,120,130.0,0.489583,Eighth,A#4
819,Right,0,82,120,130.0,0.489583,Eighth,A#5
821,Left,1,46,120,131.0,0.739583,DottedEighth,A#2
820,Right,0,58,120,131.0,0.739583,DottedEighth,A#3
824,Left,1,62,120,131.75,0.239583,Sixteenth,F4_D4
822,Right,0,74,120,131.75,0.239583,Sixteenth,F5_D5
827,Right,0,82,120,132.0,0.489583,Eighth,A#5
826,Left,1,70,120,132.0,0.489583,Eighth,A#4
828,Left,1,58,120,132.75,0.239583,Sixteenth,A#3_A#2
830,Right,0,70,120,132.75,0.239583,Sixteenth,A#4
832,Right,0,75,120,133.0,0.489583,Eighth,D#5
831,Left,1,51,120,133.0,0.489583,Eighth,D#4_D#3
834,Right,0,58,120,133.75,0.239583,Sixteenth,A#3
835,Right,0,63,120,134.0,0.489583,Eighth,D#4
836,Left,1,43,120,134.0,0.489583,Eighth,G2_D#3_D#2_A#2
840,Right,0,46,120,134.75,0.239583,Sixteenth,A#2
841,Left,1,43,120,135.0,0.489583,Eighth,G2_D#2
843,Right,0,51,120,135.0,0.489583,Eighth,D#3
844,Left,1,32,80,137.0,0.239583,Sixteenth,G#1
845,Right,0,60,80,137.0,0.239583,Sixteenth,C4
847,Left,1,44,81,137.125,0.239583,Sixteenth,G#2
846,Right,0,51,81,137.125,0.239583,Sixteenth,D#3
848,Left,1,32,83,137.25,0.239583,Sixteenth,G#1
849,Right,0,60,83,137.25,0.239583,Sixteenth,C4
850,Left,1,44,85,137.375,0.239583,Sixteenth,G#2
851,Right,0,51,85,137.375,0.239583,Sixteenth,D#3
852,Left,1,32,87,137.5,0.239583,Sixteenth,G#1
853,Right,0,60,87,137.5,0.239583,Sixteenth,C4
855,Right,0,51,89,137.625,0.239583,Sixteenth,D#3
854,Left,1,44,89,137.625,0.239583,Sixteenth,G#2
856,Right,0,60,91,137.75,0.239583,Sixteenth,C4
857,Left,1,32,91,137.75,0.239583,Sixteenth,G#1
859,Right,0,51,93,137.875,0.239583,Sixteenth,D#3
858,Left,1,44,93,137.875,0.239583,Sixteenth,G#2
860,Left,1,32,94,138.0,0.239583,Sixteenth,G#1
861,Right,0,60,94,138.0,0.239583,Sixteenth,C4
862,Right,0,51,96,138.125,0.239583,Sixteenth,D#3
863,Left,1,44,96,138.125,0.239583,Sixteenth,G#2
865,Left,1,32,98,138.25,0.239583,Sixteenth,G#1
864,Right,0,60,98,138.25,0.239583,Sixteenth,C4
866,Right,0,51,100,138.375,0.239583,Sixteenth,D#3
867,Left,1,44,100,138.375,0.239583,Sixteenth,G#2
868,Right,0,60,102,138.5,0.239583,Sixteenth,C4
869,Left,1,32,102,138.5,0.239583,Sixteenth,G#1
870,Right,0,51,104,138.625,0.239583,Sixteenth,D#3
871,Left,1,44,104,138.625,0.239583,Sixteenth,G#2
872,Right,0,60,106,138.75,0.239583,Sixteenth,C4
873,Left,1,32,106,138.75,0.239583,Sixteenth,G#1
874,Right,0,51,107,138.875,0.239583,Sixteenth,D#3
875,Left,1,44,107,138.875,0.239583,Sixteenth,G#2
876,Right,0,48,109,139.0,0.489583,Eighth,G#3_C3
878,Left,1,32,109,139.0,0.489583,Eighth,G#1
880,Left,1,60,120,139.75,0.239583,Sixteenth,G#3_C4
879,Right,0,68,120,139.75,0.239583,Sixteenth,G#4_C5
885,Left,1,63,120,140.0,0.489583,Eighth,D#4_C4
883,Right,0,75,120,140.0,0.489583,Eighth,D#5_C5
888,Right,0,60,80,141.0,0.239583,Sixteenth,C4
887,Left,1,32,80,141.0,0.239583,Sixteenth,G#1
890,Right,0,51,81,141.125,0.239583,Sixteenth,D#3
889,Left,1,44,81,141.125,0.239583,Sixteenth,G#2
892,Left,1,32,83,141.25,0.239583,Sixteenth,G#1
891,Right,0,60,83,141.25,0.239583,Sixteenth,C4
893,Left,1,44,85,141.375,0.239583,Sixteenth,G#2
894,Right,0,51,85,141.375,0.239583,Sixteenth,D#3
896,Right,0,60,87,141.5,0.239583,Sixteenth,C4
895,Left,1,32,87,141.5,0.239583,Sixteenth,G#1
898,Right,0,51,89,141.625,0.239583,Sixteenth,D#3
897,Left,1,44,89,141.625,0.239583,Sixteenth,G#2
899,Left,1,32,91,141.75,0.239583,Sixteenth,G#1
900,Right,0,60,91,141.75,0.239583,Sixteenth,C4
902,Left,1,44,93,141.875,0.239583,Sixteenth,G#2
901,Right,0,51,93,141.875,0.239583,Sixteenth,D#3
903,Right,0,60,94,142.0,0.239583,Sixteenth,C4
904,Left,1,32,94,142.0,0.239583,Sixteenth,G#1
905,Right,0,51,96,142.125,0.239583,Sixteenth,D#3
906,Left,1,44,96,142.125,0.239583,Sixteenth,G#2
908,Right,0,60,98,142.25,0.239583,Sixteenth,C4
907,Left,1,32,98,142.25,0.239583,Sixteenth,G#1
910,Left,1,44,100,142.375,0.239583,Sixteenth,G#2
909,Right,0,51,100,142.375,0.239583,Sixteenth,D#3
912,Left,1,32,102,142.5,0.239583,Sixteenth,G#1
911,Right,0,60,102,142.5,0.239583,Sixteenth,C4
914,Left,1,44,104,142.625,0.239583,Sixteenth,G#2
913,Right,0,51,104,142.625,0.239583,Sixteenth,D#3
915,Right,0,60,106,142.75,0.239583,Sixteenth,C4
916,Left,1,32,106,142.75,0.239583,Sixteenth,G#1
917,Left,1,44,107,142.875,0.239583,Sixteenth,G#2
918,Right,0,51,107,142.875,0.239583,Sixteenth,D#3
921,Left,1,32,109,143.0,0.489583,Eighth,G#1
919,Right,0,48,109,143.0,0.489583,Eighth,G#3_C3
923,Right,0,80,120,143.75,0.239583,Sixteenth,G#5_C6
922,Left,1,68,120,143.75,0.239583,Sixteenth,G#4_C5
928,Left,1,75,120,144.0,0.489583,Eighth,D#5_C5
926,Right,0,84,120,144.0,0.489583,Eighth,D#6_C6
931,Left,1,46,120,145.0,0.739583,DottedEighth,A#2
930,Right,0,58,120,145.0,0.739583,DottedEighth,A#3
932,Right,0,75,120,145.75,0.239583,Sixteenth,G5_D#5
933,Left,1,63,120,145.75,0.239583,Sixteenth,G4_D#4
937,Right,0,82,120,146.0,0.489583,Eighth,A#5
936,Left,1,70,120,146.0,0.489583,Eighth,A#4
938,Left,1,46,120,147.0,0.739583,DottedEighth,A#2
939,Right,0,58,120,147.0,0.739583,DottedEighth,A#3
942,Left,1,62,120,147.75,0.239583,Sixteenth,F4_D4
940,Right,0,77,120,147.75,0.239583,Sixteenth,F5_D5
945,Left,1,70,120,148.0,0.489583,Eighth,A#4
944,Right,0,82,120,148.0,0.489583,Eighth,A#5
946,Left,1,58,120,148.75,0.239583,Sixteenth,A#3_A#2
947,Right,0,70,120,148.75,0.239583,Sixteenth,A#4
950,Right,0,75,120,149.0,0.489583,Eighth,D#5
949,Left,1,51,120,149.0,0.489583,Eighth,D#4_D#3
952,Right,0,58,120,149.75,0.239583,Sixteenth,A#3
953,Right,0,63,120,150.0,0.489583,Eighth,D#4
954,Left,1,51,120,150.0,0.489583,Eighth,G2_D#3_D#2_A#2
958,Right,0,46,120,150.75,0.239583,Sixteenth,A#2
961,Right,0,51,120,151.0,0.489583,Eighth,D#3
959,Left,1,39,120,151.0,0.489583,Eighth,G2_D#2
962,Left,1,39,80,153.0,0.239583,Sixteenth,D#2
963,Right,0,61,80,153.0,0.239583,Sixteenth,C#4
964,Right,0,58,81,153.125,0.239583,Sixteenth,A#3
965,Left,1,51,81,153.125,0.239583,Sixteenth,D#3
967,Left,1,39,83,153.25,0.239583,Sixteenth,D#2
966,Right,0,61,83,153.25,0.239583,Sixteenth,C#4
969,Left,1,51,85,153.375,0.239583,Sixteenth,D#3
968,Right,0,58,85,153.375,0.239583,Sixteenth,A#3
970,Right,0,61,87,153.5,0.239583,Sixteenth,C#4
971,Left,1,39,87,153.5,0.239583,Sixteenth,D#2
973,Left,1,51,89,153.625,0.239583,Sixteenth,D#3
972,Right,0,58,89,153.625,0.239583,Sixteenth,A#3
974,Left,1,39,91,153.75,0.239583,Sixteenth,D#2
975,Right,0,61,91,153.75,0.239583,Sixteenth,C#4
976,Right,0,58,93,153.875,0.239583,Sixteenth,A#3
977,Left,1,51,93,153.875,0.239583,Sixteenth,D#3
978,Left,1,39,94,154.0,0.239583,Sixteenth,D#2
979,Right,0,61,94,154.0,0.239583,Sixteenth,C#4
980,Right,0,58,96,154.125,0.239583,Sixteenth,A#3
981,Left,1,51,96,154.125,0.239583,Sixteenth,D#3
983,Left,1,39,98,154.25,0.239583,Sixteenth,D#2
982,Right,0,61,98,154.25,0.239583,Sixteenth,C#4
984,Left,1,51,100,154.375,0.239583,Sixteenth,D#3
985,Right,0,58,100,154.375,0.239583,Sixteenth,A#3
987,Left,1,39,102,154.5,0.239583,Sixteenth,D#2
986,Right,0,61,102,154.5,0.239583,Sixteenth,C#4
989,Left,1,51,104,154.625,0.239583,Sixteenth,D#3
988,Right,0,58,104,154.625,0.239583,Sixteenth,A#3
991,Left,1,39,106,154.75,0.239583,Sixteenth,D#2
990,Right,0,61,106,154.75,0.239583,Sixteenth,C#4
992,Left,1,51,107,154.875,0.239583,Sixteenth,D#3
993,Left,1,39,109,155.0,0.489583,Eighth,D#2
994,Right,0,55,109,155.0,0.489583,Eighth,G3_A#3
998,Right,0,67,120,155.75,0.239583,Sixteenth,G4_A#4
996,Left,1,55,120,155.75,0.239583,Sixteenth,G3_A#3
1001,Left,1,61,120,156.0,0.489583,Eighth,C#4_A#3
1000,Right,0,70,120,156.0,0.489583,Eighth,C#5_A#4
1005,Right,0,61,80,157.0,0.239583,Sixteenth,C#4
1004,Left,1,39,80,157.0,0.239583,Sixteenth,D#2
1007,Left,1,51,81,157.125,0.239583,Sixteenth,D#3
1006,Right,0,58,81,157.125,0.239583,Sixteenth,A#3
1008,Right,0,61,83,157.25,0.239583,Sixteenth,C#4
1009,Left,1,39,83,157.25,0.239583,Sixteenth,D#2
1010,Right,0,58,85,157.375,0.239583,Sixteenth,A#3
1011,Left,1,51,85,157.375,0.239583,Sixteenth,D#3
1013,Left,1,39,87,157.5,0.239583,Sixteenth,D#2
1012,Right,0,61,87,157.5,0.239583,Sixteenth,C#4
1015,Right,0,58,89,157.625,0.239583,Sixteenth,A#3
1014,Left,1,51,89,157.625,0.239583,Sixteenth,D#3
1017,Right,0,61,91,157.75,0.239583,Sixteenth,C#4
1016,Left,1,39,91,157.75,0.239583,Sixteenth,D#2
1019,Left,1,51,93,157.875,0.239583,Sixteenth,D#3
1018,Right,0,58,93,157.875,0.239583,Sixteenth,A#3
1020,Right,0,61,94,158.0,0.239583,Sixteenth,C#4
1021,Left,1,39,94,158.0,0.239583,Sixteenth,D#2
1023,Right,0,58,96,158.125,0.239583,Sixteenth,A#3
1022,Left,1,51,96,158.125,0.239583,Sixteenth,D#3
1025,Right,0,61,98,158.25,0.239583,Sixteenth,C#4
1024,Left,1,39,98,158.25,0.239583,Sixteenth,D#2
1027,Right,0,58,100,158.375,0.239583,Sixteenth,A#3
1026,Left,1,51,100,158.375,0.239583,Sixteenth,D#3
1029,Right,0,61,102,158.5,0.239583,Sixteenth,C#4
1028,Left,1,39,102,158.5,0.239583,Sixteenth,D#2
1031,Right,0,58,104,158.625,0.239583,Sixteenth,A#3
1030,Left,1,51,104,158.625,0.239583,Sixteenth,D#3
1033,Right,0,61,106,158.75,0.239583,Sixteenth,C#4
1032,Left,1,39,106,158.75,0.239583,Sixteenth,D#2
1034,Left,1,51,107,158.875,0.239583,Sixteenth,D#3
1036,Right,0,58,109,159.0,0.489583,ThirtySecond,G3_A#3
1035,Left,1,39,109,159.0,0.489583,Eighth,D#2
1040,Right,0,79,120,159.75,0.239583,Sixteenth,G5_A#5
1038,Left,1,67,120,159.75,0.239583,Sixteenth,G4_A#4
1044,Right,0,82,120,160.0,0.489583,Eighth,C#6_A#5
1042,Left,1,73,120,160.0,0.489583,Eighth,C#5_A#4
1046,Left,1,56,120,161.0,0.739583,DottedEighth,G#3_G#2
1047,Right,0,68,120,161.0,0.739583,DottedEighth,G#4
1049,Left,1,68,120,161.75,0.239583,Sixteenth,G#4_C5
1050,Right,0,84,120,161.75,0.239583,Sixteenth,G#5_C6
1054,Right,0,87,120,162.0,0.489583,Eighth,D#6
1053,Left,1,75,120,162.0,0.489583,Eighth,D#5
1056,Left,1,39,120,163.0,0.739583,DottedEighth,D#3_D#2
1055,Right,0,63,120,163.0,0.739583,DottedEighth,D#4
1059,Left,1,67,120,163.75,0.239583,Sixteenth,G4_A#4
1058,Right,0,82,120,163.75,0.239583,Sixteenth,G5_A#5
1063,Left,1,75,120,164.0,0.489583,Eighth,D#5
1062,Right,0,87,120,164.0,0.489583,Eighth,D#6
1065,Left,1,63,120,164.75,0.239583,Sixteenth,D#4_D#3
1064,Right,0,75,120,164.75,0.239583,Sixteenth,D#5
1067,Left,1,56,120,165.0,0.489583,Eighth,G#4_G#3
1069,Right,0,80,120,165.0,0.489583,Eighth,G#5
1070,Right,0,63,120,165.75,0.239583,Sixteenth,D#4
1071,Left,1,56,120,166.0,0.489583,Eighth,G#3_G#2_D#3_C3
1074,Right,0,68,120,166.0,0.489583,Eighth,G#4
1076,Right,0,51,120,166.75,0.239583,Sixteenth,D#3
1078,Right,0,56,120,167.0,0.489583,Eighth,G#3
1077,Left,1,39,120,167.0,0.489583,Eighth,G#2_G#1_D#2_C2
1083,Left,1,39,80,169.0,0.239583,Sixteenth,D#2
1082,Right,0,61,80,169.0,0.239583,Sixteenth,C#4
1085,Right,0,58,81,169.125,0.239583,Sixteenth,A#3
1084,Left,1,51,81,169.125,0.239583,Sixteenth,D#3
1087,Left,1,39,83,169.25,0.239583,Sixteenth,D#2
1086,Right,0,61,83,169.25,0.239583,Sixteenth,C#4
1088,Right,0,58,85,169.375,0.239583,Sixteenth,A#3
1089,Left,1,51,85,169.375,0.239583,Sixteenth,D#3
1091,Left,1,39,87,169.5,0.239583,Sixteenth,D#2
1090,Right,0,61,87,169.5,0.239583,Sixteenth,C#4
1092,Right,0,58,89,169.625,0.239583,Sixteenth,A#3
1093,Left,1,51,89,169.625,0.239583,Sixteenth,D#3
1094,Right,0,61,91,169.75,0.239583,Sixteenth,C#4
1095,Left,1,39,91,169.75,0.239583,Sixteenth,D#2
1097,Right,0,58,93,169.875,0.239583,Sixteenth,A#3
1096,Left,1,51,93,169.875,0.239583,Sixteenth,D#3
1098,Left,1,39,94,170.0,0.239583,Sixteenth,D#2
1099,Right,0,61,94,170.0,0.239583,Sixteenth,C#4
1100,Left,1,51,96,170.125,0.239583,Sixteenth,D#3
1101,Right,0,58,96,170.125,0.239583,Sixteenth,A#3
1102,Left,1,39,98,170.25,0.239583,Sixteenth,D#2
1103,Right,0,61,98,170.25,0.239583,Sixteenth,C#4
1104,Left,1,51,100,170.375,0.239583,Sixteenth,D#3
1105,Right,0,58,100,170.375,0.239583,Sixteenth,A#3
1106,Right,0,61,102,170.5,0.239583,Sixteenth,C#4
1107,Left,1,39,102,170.5,0.239583,Sixteenth,D#2
1108,Left,1,51,104,170.625,0.239583,Sixteenth,D#3
1109,Right,0,58,104,170.625,0.239583,Sixteenth,A#3
1111,Right,0,61,106,170.75,0.239583,Sixteenth,C#4
1110,Left,1,39,106,170.75,0.239583,Sixteenth,D#2
1112,Left,1,51,107,170.875,0.239583,Sixteenth,D#3
1114,Right,0,55,109,171.0,0.489583,Eighth,G3_A#3
1113,Left,1,39,109,171.0,0.489583,Eighth,D#2
1117,Left,1,55,120,171.75,0.239583,Sixteenth,G3_A#3
1116,Right,0,70,120,171.75,0.239583,Sixteenth,G4_A#4
1120,Right,0,73,120,172.0,0.489583,Eighth,C#5_A#4
1122,Left,1,58,120,172.0,0.489583,Eighth,C#4_A#3
1125,Left,1,39,80,173.0,0.239583,Sixteenth,D#2
1124,Right,0,61,80,173.0,0.239583,Sixteenth,C#4
1127,Left,1,51,81,173.125,0.239583,Sixteenth,D#3
1126,Right,0,58,81,173.125,0.239583,Sixteenth,A#3
1129,Left,1,39,83,173.25,0.239583,Sixteenth,D#2
1128,Right,0,61,83,173.25,0.239583,Sixteenth,C#4
1130,Left,1,51,85,173.375,0.239583,Sixteenth,D#3
1131,Right,0,58,85,173.375,0.239583,Sixteenth,A#3
1132,Right,0,61,87,173.5,0.239583,Sixteenth,C#4
1133,Left,1,39,87,173.5,0.239583,Sixteenth,D#2
1134,Right,0,58,89,173.625,0.239583,Sixteenth,A#3
1135,Left,1,51,89,173.625,0.239583,Sixteenth,D#3
1137,Left,1,39,91,173.75,0.239583,Sixteenth,D#2
1136,Right,0,61,91,173.75,0.239583,Sixteenth,C#4
1139,Left,1,51,93,173.875,0.239583,Sixteenth,D#3
1138,Right,0,58,93,173.875,0.239583,Sixteenth,A#3
1140,Right,0,61,94,174.0,0.239583,Sixteenth,C#4
1141,Left,1,39,94,174.0,0.239583,Sixteenth,D#2
1143,Left,1,51,96,174.125,0.239583,Sixteenth,D#3
1142,Right,0,58,96,174.125,0.239583,Sixteenth,A#3
1144,Left,1,39,98,174.25,0.239583,Sixteenth,D#2
1145,Right,0,61,98,174.25,0.239583,Sixteenth,C#4
1146,Left,1,51,100,174.375,0.239583,Sixteenth,D#3
1147,Right,0,58,100,174.375,0.239583,Sixteenth,A#3
1149,Right,0,61,102,174.5,0.239583,Sixteenth,C#4
1148,Left,1,39,102,174.5,0.239583,Sixteenth,D#2
1150,Left,1,51,104,174.625,0.239583,Sixteenth,D#3
1151,Right,0,58,104,174.625,0.239583,Sixteenth,A#3
1152,Left,1,39,106,174.75,0.239583,Sixteenth,D#2
1153,Right,0,61,106,174.75,0.239583,Sixteenth,C#4
1154,Left,1,51,107,174.875,0.239583,Sixteenth,D#3
1155,Right,0,55,109,175.0,0.489583,Eighth,G3_A#3
1156,Left,1,39,109,175.0,0.489583,Eighth,D#2
1158,Left,1,67,120,175.75,0.239583,Sixteenth,G4_A#4
1160,Right,0,82,120,175.75,0.239583,Sixteenth,G5_A#5
1164,Right,0,85,120,176.0,0.489583,Eighth,C#6_A#5
1162,Left,1,73,120,176.0,0.489583,Eighth,C#5_A#4
1167,Left,1,56,120,177.0,0.739583,DottedEighth,G#3_G#2
1166,Right,0,68,120,177.0,0.739583,DottedEighth,G#4
1170,Left,1,72,120,177.75,0.239583,Sixteenth,G#4_C5
1169,Right,0,84,120,177.75,0.239583,Sixteenth,G#5_C6
1174,Left,1,75,120,178.0,0.489583,Eighth,D#5
1173,Right,0,87,120,178.0,0.489583,Eighth,D#6
1175,Right,0,63,120,179.0,0.739583,DottedEighth,D#4
1176,Left,1,39,120,179.0,0.739583,DottedEighth,D#3_D#2
1180,Left,1,67,120,179.75,0.239583,Sixteenth,G4_A#4
1178,Right,0,79,120,179.75,0.239583,Sixteenth,G5_A#5
1183,Right,0,87,120,180.0,0.489583,Eighth,D#6
1182,Left,1,75,120,180.0,0.489583,Eighth,D#5
1185,Right,0,75,120,180.75,0.239583,Sixteenth,D#5
1184,Left,1,63,120,180.75,0.239583,Sixteenth,D#4_D#3
1188,Right,0,80,120,181.0,0.489583,Eighth,G#5
1187,Left,1,56,120,181.0,0.489583,Eighth,G#4_G#3
1190,Right,0,63,120,181.75,0.239583,Sixteenth,D#4
1191,Left,1,56,120,182.0,0.489583,Eighth,G#3_G#2_D#3_C3
1195,Right,0,68,120,182.0,0.489583,Eighth,G#4
1196,Right,0,51,120,182.75,0.239583,Sixteenth,D#3
1197,Right,0,56,120,183.0,0.489583,Eighth,G#3
1198,Left,1,39,120,183.0,0.489583,Eighth,G#2_G#1_D#2_C2
1202,Right,0,51,80,184.0,0.739583,DottedEighth,D#4_D#3
1204,Right,0,63,80,184.75,0.239583,Sixteenth,D#4_D#3
1206,Left,1,32,80,185.0,3.989583,Half,G#2_G#1
1208,Right,0,63,80,185.0,0.989583,Quarter,G#3_D#4_D#3_B3
1212,Right,0,63,80,186.0,0.739583,DottedEighth,G#3_D#4_D#3_B3
1216,Right,0,63,80,186.75,0.239583,Sixteenth,G#3_D#4_D#3_B3
1220,Right,0,63,80,187.0,0.739583,DottedEighth,G#3_D#4_D#3_B3
1224,Left,1,32,80,187.0,1.989583,Half,G#1
1225,Right,0,63,80,187.75,0.239583,Sixteenth,G#3_D#4_D#3_B3
1229,Right,0,63,80,188.0,0.739583,DottedEighth,G3_D#4_D#3_A#3
1233,Right,0,56,80,188.75,0.239583,Sixteenth,G#3_D#4_D#3_B3
1237,Left,1,39,80,189.0,0.739583,DottedEighth,D#2
1238,Right,0,63,80,189.0,2.989583,DottedHalf,D#4_D#3_C#4_A#3
1242,Left,1,39,80,189.75,0.239583,Sixteenth,D#2
1243,Left,1,43,80,190.0,0.739583,DottedEighth,G2
1244,Left,1,46,80,190.75,0.239583,Sixteenth,A#2
1245,Left,1,51,80,191.0,0.989583,Quarter,D#3
1247,Left,1,49,80,192.0,0.739583,DottedEighth,D#3_C#3
1246,Right,0,58,80,192.0,0.739583,DottedEighth,G3_D#4_A#3
1251,Right,0,63,80,192.75,0.239583,Sixteenth,G3_D#4_A#3
1253,Left,1,49,80,192.75,0.239583,Sixteenth,D#3_C#3
1256,Left,1,51,80,193.0,0.989583,Quarter,D#3_B2
1258,Right,0,56,80,193.0,0.989583,Quarter,G#3_D#4_B3
1263,Left,1,44,80,194.0,0.739583,DottedEighth,G#2_D#3
1261,Right,0,59,80,194.0,0.739583,DottedEighth,G#3_D#4_B3
1267,Left,1,44,80,194.75,0.239583,Sixteenth,G#2_D#3
1266,Right,0,56,80,194.75,0.239583,Sixteenth,G#3_D#4_B3
1272,Right,0,58,80,195.0,0.989583,Quarter,D#4_C#4_A#3
1271,Left,1,51,80,195.0,0.989583,Quarter,G2_D#3
1276,Left,1,44,80,196.0,0.739583,DottedEighth,G#2_D#3
1277,Right,0,56,80,196.0,0.739583,DottedEighth,G#3_D#4_B3
1281,Right,0,59,80,196.75,0.239583,Sixteenth,G#3_D#4_B3
1282,Left,1,51,80,196.75,0.239583,Sixteenth,G#2_D#3
1288,Right,0,55,80,197.0,0.989583,Quarter,G3_D#4_A#3
1286,Left,1,51,80,197.0,0.989583,Quarter,D#3_D#2
1293,Left,1,39,80,198.0,0.989583,Quarter,D#3_D#2
1291,Right,0,63,80,198.0,0.989583,Quarter,G3_D#4_A#3
1297,Right,0,63,80,199.0,0.989583,Quarter,G3_D#4_A#3
1296,Left,1,51,80,199.0,0.989583,Quarter,D#3_D#2
1301,Right,0,63,80,200.0,0.739583,DottedEighth,D#4_D#3
1303,Right,0,63,80,200.75,0.239583,Sixteenth,D#4_D#3
1305,Left,1,44,80,201.0,3.989583,Whole,G#2_G#1
1307,Right,0,63,80,201.0,0.989583,Quarter,G#3_D#4_D#3_B3
1311,Right,0,63,87,202.0,0.739583,DottedEighth,G#3_D#4_D#3_B3
1315,Right,0,63,93,202.75,0.239583,Sixteenth,G#3_D#4_D#3_B3
1319,Right,0,51,94,203.0,0.739583,DottedEighth,G#3_D#4_D#3_B3
1322,Left,1,32,94,203.0,1.989583,Half,G#1
1324,Right,0,63,100,203.75,0.239583,Sixteenth,G#3_D#4_D#3_B3
1328,Right,0,51,102,204.0,0.739583,DottedEighth,F#3_D#4_D#3_A#3
1332,Right,0,53,108,204.75,0.239583,Sixteenth,G#3_F3_D#4_D#3
1336,Right,0,58,109,205.0,2.989583,DottedHalf,F#3_D#4_D#3_A#3
1339,Left,1,39,109,205.0,0.739583,DottedEighth,D#2
1341,Left,1,39,80,205.75,0.239583,Sixteenth,D#2
1342,Left,1,42,80,206.0,0.739583,DottedEighth,F#2
1343,Left,1,46,80,206.75,0.239583,Sixteenth,A#2
1344,Left,1,51,80,207.0,0.989583,Quarter,D#3
1346,Right,0,59,80,208.0,0.739583,DottedEighth,F#3_D#4_B3
1345,Left,1,47,80,208.0,0.739583,DottedEighth,B2
1350,Right,0,54,80,208.75,0.239583,Sixteenth,F#3_D#4_B3
1349,Left,1,47,80,208.75,0.239583,Sixteenth,B2
1353,Right,0,56,80,209.0,0.989583,Quarter,G#3_D#4_B3
1356,Left,1,44,80,209.0,0.989583,Quarter,G#2
1358,Right,0,61,80,210.0,0.739583,DottedEighth,G#3_C#4_B3
1357,Left,1,40,80,210.0,0.739583,DottedEighth,E2
1361,Right,0,61,80,210.75,0.239583,Sixteenth,G#3_C#4_B3
1364,Left,1,40,80,210.75,0.239583,Sixteenth,E2
1365,Left,1,42,80,211.0,0.989583,Quarter,F#2
1366,Right,0,61,80,211.0,0.989583,Quarter,F#3_C#4_B3
1369,Right,0,61,80,212.0,0.739583,DottedEighth,F#3_E3_C#4_A#3
1373,Left,1,42,80,212.0,0.739583,DottedEighth,F#2_F#1
1377,Right,0,52,80,212.75,0.239583,Sixteenth,F#3_E3_C#4_A#3
1375,Left,1,42,80,212.75,0.239583,Sixteenth,F#2_F#1
1381,Right,0,51,80,213.0,0.989583,Quarter,D#3_B3_B2
1382,Left,1,47,80,213.0,0.989583,Quarter,B2_B1
1386,Right,0,47,80,214.0,0.989583,Quarter,D#3_B3_B2
1389,Left,1,35,80,214.0,0.989583,Quarter,B2_B1
1391,Right,0,59,80,215.0,0.989583,Quarter,D#3_B3_B2
1394,Left,1,35,80,215.0,0.989583,Quarter,B2_B1
1396,Right,0,54,80,216.0,0.739583,DottedEighth,F#4_F#3
1398,Right,0,66,80,216.75,0.239583,Sixteenth,F#4_F#3
1403,Left,1,47,80,217.0,3.989583,Whole,B2_B1
1400,Right,0,66,80,217.0,0.989583,Quarter,F#4_F#3_D4_B3
1406,Right,0,62,87,218.0,0.739583,DottedEighth,F#4_F#3_D4_B3
1410,Right,0,66,93,218.75,0.239583,Sixteenth,F#4_F#3_D4_B3
1414,Right,0,62,94,219.0,0.739583,DottedEighth,F#4_F#3_D4_B3
1415,Left,1,35,94,219.0,1.989583,Half,B1
1419,Right,0,54,100,219.75,0.239583,Sixteenth,F#4_F#3_D4_B3
1423,Right,0,66,102,220.0,0.739583,DottedEighth,F#4_F#3_C#4_A#3
1427,Right,0,66,108,220.75,0.239583,Sixteenth,F#4_F#3_D4_B3
1431,Right,0,66,110,221.0,2.989583,DottedHalf,F#4_F#3_E4_C#4
1432,Left,1,30,110,221.0,0.739583,DottedEighth,F#2_F#1
1437,Left,1,30,110,221.75,0.239583,Sixteenth,F#2_F#1
1439,Left,1,34,110,222.0,0.739583,DottedEighth,A#2_A#1
1441,Left,1,49,110,222.75,0.239583,Sixteenth,C#3_C#2
1443,Left,1,54,110,223.0,0.989583,Quarter,F#3_F#2
1445,Right,0,58,110,224.0,0.739583,DottedEighth,F#4_F#3_C#4_A#3
1448,Left,1,52,110,224.0,0.739583,DottedEighth,E3_E2
1451,Left,1,40,110,224.75,0.239583,Sixteenth,E3_E2
1453,Right,0,58,110,224.75,0.239583,Sixteenth,F#4_F#3_C#4_A#3
1457,Left,1,38,110,225.0,0.989583,Quarter,D3_D2
1458,Right,0,54,110,225.0,0.989583,Quarter,F#4_F#3_D4_B3
1463,Right,0,66,110,226.0,0.739583,DottedEighth,F#4_F#3_D4_B3
1467,Left,1,35,110,226.0,0.739583,DottedEighth,B2_B1
1469,Right,0,66,110,226.75,0.239583,Sixteenth,F#4_F#3_D4_B3
1473,Left,1,47,110,226.75,0.239583,Sixteenth,B2_B1
1475,Left,1,46,110,227.0,0.989583,Quarter,A#2_A#1
1477,Right,0,61,110,227.0,0.989583,Quarter,F#4_F#3_E4_C#4
1481,Right,0,54,110,228.0,0.739583,DottedEighth,F#4_F#3_D4_B3
1485,Left,1,47,110,228.0,0.739583,DottedEighth,B2_B1
1488,Right,0,66,110,228.75,0.239583,Sixteenth,F#4_F#3_D4_B3
1487,Left,1,47,110,228.75,0.239583,Sixteenth,B2_B1
1494,Right,0,54,110,229.0,0.989583,Quarter,F#4_F#3_C#4_A#3
1493,Left,1,30,110,229.0,0.989583,Quarter,F#2_F#1
1501,Right,0,58,110,230.0,0.989583,Quarter,F#4_F#3_C#4_A#3
1499,Left,1,42,110,230.0,0.989583,Quarter,F#2_F#1
1508,Left,1,42,110,231.0,0.989583,Quarter,F#2_F#1
1505,Right,0,61,110,231.0,0.989583,Quarter,F#4_F#3_C#4_A#3
1511,Right,0,54,80,232.0,0.739583,DottedEighth,F#4_F#3
1513,Right,0,66,80,232.75,0.239583,Sixteenth,F#4_F#3
1515,Left,1,47,80,233.0,3.989583,Whole,B2_B1
1516,Right,0,62,80,233.0,0.989583,Quarter,F#4_F#3_D4_B3
1521,Right,0,66,80,234.0,0.739583,DottedEighth,F#4_F#3_D4_B3
1525,Right,0,54,80,234.75,0.239583,Sixteenth,F#4_F#3_D4_B3
1529,Left,1,35,80,235.0,1.989583,Half,B1
1530,Right,0,66,80,235.0,0.739583,DottedEighth,F#4_F#3_D4_B3
1534,Right,0,66,80,235.75,0.239583,Sixteenth,F#4_F#3_D4_B3
1538,Right,0,64,80,236.0,0.739583,DottedEighth,E4_E3_C#4_B3
1542,Right,0,66,80,236.75,0.239583,Sixteenth,F#4_F#3_D4_B3
1547,Right,0,64,80,237.0,2.989583,DottedHalf,G4_G3_E4_B3
1546,Left,1,40,80,237.0,0.739583,DottedEighth,E2
1551,Left,1,40,80,237.75,0.239583,Sixteenth,E2
1552,Left,1,43,80,238.0,0.739583,DottedEighth,G2
1553,Left,1,47,80,238.75,0.239583,Sixteenth,B2
1554,Left,1,52,80,239.0,0.989583,Quarter,E3
1558,Left,1,52,80,240.0,0.739583,DottedEighth,G2_E3
1555,Right,0,64,80,240.0,0.739583,DottedEighth,G4_G3_E4_B3
1561,Left,1,43,80,240.75,0.239583,Sixteenth,G2_E3
1563,Right,0,67,80,240.75,0.239583,Sixteenth,G4_G3_E4_B3
1570,Left,1,45,80,241.0,0.989583,Quarter,F#3_D3_A2
1567,Right,0,66,80,241.0,0.989583,Quarter,F#4_D4_A3
1574,Left,1,54,85,242.0,0.739583,DottedEighth,F#3_D3_A2
1573,Right,0,66,85,242.0,0.739583,DottedEighth,F#4_D4_A3
1580,Left,1,54,89,242.75,0.239583,Sixteenth,F#3_D3_A2
1579,Right,0,57,89,242.75,0.239583,Sixteenth,F#4_D4_A3
1585,Left,1,49,90,243.0,0.989583,Quarter,E3_C#3_A2
1587,Right,0,57,90,243.0,0.989583,Quarter,E4_C#4_A3
1594,Right,0,57,95,244.0,0.739583,DottedEighth,E4_C#4_A4_A3
1591,Left,1,52,95,244.0,0.739583,DottedEighth,E3_C#3_A2
1598,Left,1,45,99,244.75,0.239583,Sixteenth,E3_C#3_A2
1600,Right,0,61,99,244.75,0.239583,Sixteenth,E4_C#4_A4_A3
1605,Left,1,50,80,245.0,0.989583,Quarter,D3_D2
1607,Right,0,62,80,245.0,0.989583,Quarter,D4
1608,Left,1,38,80,246.0,0.989583,Quarter,D3_D2
1610,Right,0,62,80,246.0,0.989583,Quarter,D4
1611,Left,1,50,80,247.0,0.989583,Quarter,D3_D2
1613,Right,0,62,80,247.0,0.989583,Quarter,D4
1614,Left,1,56,70,248.0,0.739583,DottedEighth,G#3_D3
1615,Right,0,71,70,248.0,0.739583,DottedEighth,F4_B4
1618,Right,0,65,73,248.75,0.239583,Sixteenth,F4_B4
1619,Left,1,50,73,248.75,0.239583,Sixteenth,G#3_D3
1624,Left,1,56,75,249.0,1.989583,Half,G#3_D3
1622,Right,0,71,75,249.0,1.989583,Half,F4_B4
1626,Left,1,50,80,250.0,0.989583,Quarter,D3
1627,Left,1,58,85,251.0,0.989583,Quarter,D3_A#3
1628,Right,0,70,85,251.0,0.989583,Quarter,F4_A#4
1631,Right,0,65,90,252.0,0.989583,Quarter,G#4_F4
1632,Left,1,50,90,252.0,0.989583,Quarter,D3_B3
1635,Right,0,67,96,253.0,0.739583,DottedEighth,G4_D#4
1636,Left,1,51,96,253.0,0.739583,DottedEighth,D#3_A#3
1641,Right,0,71,99,253.75,0.239583,Sixteenth,F4_B4
1639,Left,1,56,99,253.75,0.239583,Sixteenth,G#3_D3
1645,Right,0,71,110,254.0,1.989583,Half,F4_B4
1643,Left,1,50,110,254.0,1.989583,Quarter,G#3_D3
1647,Left,1,50,110,255.0,0.989583,Quarter,D3
1650,Left,1,50,110,256.0,0.739583,DottedEighth,G#3_D3
1648,Right,0,65,110,256.0,0.739583,DottedEighth,F4_A#4
1652,Right,0,65,110,256.75,0.239583,Sixteenth,G#4_F4
1654,Left,1,50,110,256.75,0.239583,Sixteenth,D3_B3
1656,Right,0,63,110,257.0,0.739583,DottedEighth,G4_D#4
1658,Left,1,51,110,257.0,0.739583,DottedEighth,D#3_A#3
1660,Left,1,50,120,257.75,0.239583,Sixteenth,G#3_D3
1662,Right,0,65,120,257.75,0.239583,Sixteenth,F4_B4
1666,Left,1,56,120,258.0,0.739583,DottedEighth,G#3_D3
1664,Right,0,65,120,258.0,0.739583,DottedEighth,F4_B4
1670,Left,1,56,120,258.75,0.239583,Sixteenth,G#3_D3
1668,Right,0,65,120,258.75,0.239583,Sixteenth,F4_B4
1672,Right,0,65,120,259.0,0.739583,DottedEighth,F4_B4
1673,Left,1,56,120,259.0,0.739583,DottedEighth,G#3_D3
1676,Left,1,50,120,259.75,0.239583,Sixteenth,G#3_D3
1678,Right,0,65,120,259.75,0.239583,Sixteenth,F4_B4
1681,Right,0,70,120,260.0,0.739583,DottedEighth,F4_A#4
1680,Left,1,58,120,260.0,0.739583,DottedEighth,D3_A#3
1686,Left,1,59,120,260.75,0.239583,Sixteenth,D3_B3
1684,Right,0,65,120,260.75,0.239583,Sixteenth,G#4_F4
1688,Right,0,63,120,261.0,0.989583,Quarter,G4_D#4
1689,Left,1,51,120,261.0,0.989583,Quarter,D#3_A#3
1692,Right,0,64,120,262.0,1.989583,Half,E4
1693,Left,1,52,120,262.0,1.989583,Half,E3
1695,Left,1,51,120,264.0,0.239583,Sixteenth,D#3
1694,Right,0,63,120,264.0,0.239583,Sixteenth,D#4
1697,Left,1,49,120,264.25,0.239583,Sixteenth,C#3
1696,Right,0,61,120,264.25,0.239583,Sixteenth,C#4
1698,Right,0,59,120,264.5,0.239583,Sixteenth,B3
1699,Left,1,47,120,264.5,0.239583,Sixteenth,B2
1701,Left,1,46,120,264.75,0.239583,Sixteenth,A#2
1700,Right,0,58,120,264.75,0.239583,Sixteenth,A#3
1704,Right,0,56,120,265.0,0.989583,Quarter,G#3
1702,Left,1,32,120,265.0,3.989583,Half,G#2_G#1
1705,Right,0,63,80,266.0,0.739583,DottedEighth,G#3_D#4_D#3_B3
1709,Right,0,59,80,266.75,0.239583,Sixteenth,G#3_D#4_D#3_B3
1716,Left,1,32,80,267.0,1.989583,Half,G#1
1713,Right,0,63,80,267.0,0.739583,DottedEighth,G#3_D#4_D#3_B3
1718,Right,0,63,80,267.75,0.239583,Sixteenth,G#3_D#4_D#3_B3
1722,Right,0,63,80,268.0,0.739583,DottedEighth,G3_D#4_D#3_A#3
1726,Right,0,63,80,268.75,0.239583,Sixteenth,G#3_D#4_D#3_B3
1730,Right,0,63,80,269.0,2.989583,DottedHalf,D#4_D#3_C#4_A#3
1733,Left,1,39,80,269.0,0.739583,DottedEighth,D#2
1735,Left,1,39,80,269.75,0.239583,Sixteenth,D#2
1736,Left,1,43,80,270.0,0.739583,DottedEighth,G2
1737,Left,1,46,80,270.75,0.239583,Sixteenth,A#2
1738,Left,1,51,80,271.0,0.989583,Quarter,D#3
1739,Right,0,63,80,272.0,0.739583,DottedEighth,G3_D#4_D#3_A#3
1743,Left,1,51,80,272.0,0.739583,DottedEighth,D#3
1744,Right,0,58,80,272.75,0.239583,Sixteenth,G3_D#4_D#3_A#3
1745,Left,1,51,80,272.75,0.239583,Sixteenth,D#3
1750,Right,0,51,80,273.0,0.989583,Quarter,G#3_D#4_D#3_B3
1749,Left,1,47,80,273.0,0.114583,ThirtySecond,B2
1754,Left,1,49,80,273.0625,0.114583,ThirtySecond,C#3
1755,Left,1,47,80,273.125,0.114583,ThirtySecond,B2
1756,Left,1,49,80,273.1875,0.114583,ThirtySecond,C#3
1757,Left,1,47,80,273.25,0.114583,ThirtySecond,B2
1758,Left,1,49,80,273.3125,0.114583,ThirtySecond,C#3
1759,Left,1,47,80,273.375,0.114583,ThirtySecond,B2
1760,Left,1,49,80,273.4375,0.114583,ThirtySecond,C#3
1761,Left,1,47,80,273.5,0.114583,ThirtySecond,B2
1762,Left,1,49,80,273.5625,0.114583,ThirtySecond,C#3
1763,Left,1,47,80,273.625,0.114583,ThirtySecond,B2
1764,Left,1,49,80,273.6875,0.114583,ThirtySecond,C#3
1765,Left,1,47,80,273.75,0.114583,ThirtySecond,B2
1766,Left,1,49,80,273.8125,0.114583,ThirtySecond,C#3
1767,Left,1,47,80,273.875,0.114583,ThirtySecond,B2
1768,Left,1,49,80,273.9375,0.114583,ThirtySecond,C#3
1769,Right,0,63,80,274.0,0.739583,DottedEighth,G#3_D#4_D#3_B3
1772,Left,1,47,80,274.0,0.114583,ThirtySecond,B2
1774,Left,1,49,80,274.0625,0.114583,ThirtySecond,C#3
1775,Left,1,47,80,274.125,0.114583,ThirtySecond,B2
1776,Left,1,49,80,274.1875,0.114583,ThirtySecond,C#3
1777,Left,1,47,80,274.25,0.114583,ThirtySecond,B2
1778,Left,1,49,80,274.3125,0.114583,ThirtySecond,C#3
1779,Left,1,46,80,274.375,0.114583,ThirtySecond,A#2
1780,Left,1,47,80,274.4375,0.114583,ThirtySecond,B2
1781,Left,1,46,80,274.5,0.239583,Sixteenth,A#2
1783,Left,1,44,80,274.75,0.239583,Sixteenth,G#2
1782,Right,0,56,80,274.75,0.239583,Sixteenth,G#3_D#4_D#3_B3
1787,Left,1,43,80,275.0,0.989583,Quarter,G2
1788,Right,0,63,80,275.0,0.989583,Quarter,D#4_D#3_C#4_A#3
1792,Right,0,63,80,276.0,0.739583,DottedEighth,G#3_D#4_D#3_B3
1796,Left,1,44,80,276.0,0.739583,DottedEighth,G#2
1797,Left,1,44,80,276.75,0.239583,Sixteenth,G#2
1798,Right,0,59,80,276.75,0.239583,Sixteenth,G#3_D#4_D#3_B3
1806,Left,1,39,80,277.0,0.989583,Quarter,D#2
1802,Right,0,63,80,277.0,0.989583,Quarter,G3_D#4_D#3_A#3
1807,Right,0,63,80,278.0,0.989583,Quarter,G3_D#4_D#3_A#3
1811,Left,1,39,80,278.0,0.989583,Quarter,D#2
1816,Left,1,39,80,279.0,0.989583,Quarter,D#2
1812,Right,0,51,80,279.0,0.989583,Quarter,G3_D#4_D#3_A#3
1817,Right,0,51,80,280.0,0.739583,DottedEighth,D#4_D#3
1819,Right,0,63,80,280.75,0.239583,Sixteenth,D#4_D#3
1822,Left,1,44,80,281.0,3.989583,Whole,G#2_G#1
1821,Right,0,60,80,281.0,0.989583,Quarter,G#3_D#4_D#3_C4
1827,Right,0,63,80,282.0,0.739583,DottedEighth,G#3_D#4_D#3_C4
1831,Right,0,51,80,282.75,0.239583,Sixteenth,G#3_D#4_D#3_C4
1838,Left,1,32,80,283.0,1.989583,Half,G#1
1835,Right,0,51,80,283.0,0.739583,DottedEighth,G#3_D#4_D#3_C4
1840,Right,0,63,80,283.75,0.239583,Sixteenth,G#3_D#4_D#3_C4
1844,Right,0,49,80,284.0,0.739583,DottedEighth,G#3_C#4_C#3_A#3
1848,Right,0,56,80,284.75,0.239583,Sixteenth,G#3_D#4_D#3_C4
1856,Left,1,37,80,285.0,0.739583,DottedEighth,C#2
1852,Right,0,52,80,285.0,2.989583,DottedHalf,G#3_E4_E3_C#4
1857,Left,1,37,84,285.75,0.239583,Sixteenth,C#2
1858,Left,1,40,86,286.0,0.739583,DottedEighth,E2
1859,Left,1,44,91,286.75,0.239583,Sixteenth,G#2
1860,Left,1,49,93,287.0,0.989583,Quarter,C#3
1861,Right,0,61,99,288.0,0.989583,Quarter,G#3_E4_E3_C#4
1865,Right,0,69,110,289.0,2.989583,DottedHalf,E4_C#5_C#4_A4
1869,Left,1,45,110,289.75,0.239583,Sixteenth,A2_A1
1871,Left,1,37,110,290.0,0.739583,DottedEighth,C#3_C#2
1873,Left,1,52,110,290.75,0.239583,Sixteenth,E3_E2
1875,Left,1,45,110,291.0,0.989583,Quarter,A3_A2
1877,Right,0,73,110,292.0,0.989583,Quarter,E4_C#5_C#4_A4
1881,Right,0,70,120,293.0,2.989583,DottedHalf,D#5_C#5_A#5_A#4
1885,Left,1,55,110,293.75,0.239583,Sixteenth,G3_G2
1887,Left,1,58,110,294.0,0.739583,DottedEighth,A#3_A#2
1889,Left,1,63,110,294.75,0.239583,Sixteenth,D#4_D#3
1891,Left,1,55,110,295.0,0.989583,Quarter,G4_G3
1893,Right,0,70,120,296.0,0.989583,Quarter,D#5_C#5_A#5_A#4
1894,Left,1,43,120,296.0,0.989583,Quarter,G3_G2
1899,Right,0,83,120,297.0,1.989583,Half,D#5_B5_B4
1902,Left,1,44,120,297.0,1.989583,Half,G#3_G#2
1905,Left,1,37,120,299.0,0.989583,Quarter,C#3_C#2
1904,Right,0,76,120,299.0,0.989583,Quarter,E5_C#5_A#5_A#4
1910,Right,0,70,120,300.0,0.989583,Quarter,G5_G4_C#5_A#4
1911,Left,1,39,120,300.0,0.989583,Quarter,D#3_D#2
1916,Right,0,71,120,301.0,0.989583,Quarter,G#5_G#4_B4
1919,Left,1,44,120,301.0,0.989583,Quarter,G#2_G#1
1921,Left,1,44,80,302.0,0.739583,DottedEighth,G#2
1922,Left,1,44,80,302.75,0.239583,Sixteenth,G#2
1925,Left,1,48,80,304.0,0.989583,DottedEighth,G#2_C3
1923,Right,0,66,80,304.0,0.739583,DottedEighth,F#4_A4
1927,Left,1,49,80,304.75,0.239583,Sixteenth,C#3
1928,Right,0,68,80,304.75,0.239583,Sixteenth,G#4_E4
1930,Left,1,51,80,305.0,1.739583,DottedQuarter,G#2_D#3
1931,Right,0,63,80,305.0,1.739583,DottedQuarter,F#4_D#4
1934,Left,1,44,80,306.0,0.989583,Quarter,G#2
1937,Left,1,52,80,306.75,0.239583,Sixteenth,E3
1935,Right,0,61,80,306.75,0.239583,Sixteenth,E4_C#4
1940,Left,1,54,80,307.0,0.989583,Quarter,G#2_F#3
1938,Right,0,61,80,307.0,0.989583,Quarter,D#4_C#4
1943,Left,1,44,80,308.0,0.989583,Quarter,G3_G#2
1942,Right,0,63,80,308.0,0.989583,Quarter,D#4_C#4
1946,Left,1,44,80,309.0,0.989583,Quarter,G#3_G#2
1947,Right,0,63,80,309.0,0.989583,Quarter,D#4_C4
1950,Left,1,44,80,310.0,0.739583,DottedEighth,G#2
1951,Left,1,44,80,310.75,0.239583,Sixteenth,G#2
1952,Left,1,44,80,311.0,0.989583,Quarter,G#2
1954,Right,0,63,80,312.0,0.864583,DottedEighth,F#4_D#4_C5
1953,Left,1,44,80,312.0,0.989583,Quarter,G#2_A3
1958,Right,0,64,80,312.875,0.114583,ThirtySecond,G#4_E4_C#5
1960,Left,1,56,80,312.875,0.114583,ThirtySecond,G#3
1962,Right,0,75,80,313.0,1.739583,DottedQuarter,F#4_D#5_A4
1964,Left,1,54,80,313.0,1.739583,DottedQuarter,G#2_F#3
1967,Left,1,44,80,314.0,0.989583,Quarter,G#2
1969,Right,0,73,80,314.75,0.239583,Sixteenth,G#4_E5_C#5
1968,Left,1,52,80,314.75,0.239583,Sixteenth,E3
1972,Right,0,78,80,315.0,0.989583,Quarter,F#5_C5_A4
1973,Left,1,51,80,315.0,0.989583,Quarter,G#2_D#3
1979,Right,0,79,80,316.0,0.989583,Quarter,G5_E5_A#4
1977,Left,1,49,80,316.0,0.989583,Quarter,G#2_C#3
1982,Right,0,80,80,317.0,1.989583,Half,G#5_D#5_C5
1983,Left,1,44,80,317.0,1.989583,Quarter,G#2_C3
1987,Left,1,44,80,318.0,0.739583,DottedEighth,G#2
1988,Left,1,44,80,318.75,0.239583,Sixteenth,G#2
1989,Left,1,49,80,319.0,1.989583,Half,G#2_E3_C#3
1991,Right,0,69,100,319.0,1.739583,DottedQuarter,A5_A4
1994,Left,1,44,80,320.0,0.739583,DottedEighth,G#2
1995,Right,0,79,80,320.75,0.239583,Sixteenth,G5_G4
1997,Left,1,44,80,320.75,0.239583,Sixteenth,G#2
1998,Left,1,44,80,321.0,3.989583,Quarter,G#2_D#3_C3
1999,Right,0,68,80,321.0,0.989583,Quarter,G#5_G#4
2003,Left,1,32,80,322.0,0.739583,DottedEighth,G#1
2004,Left,1,32,80,322.75,0.239583,Sixteenth,G#1
2005,Right,0,69,80,323.0,1.989583,Half,E4_C#4_A4
2008,Left,1,32,80,323.0,0.989583,Quarter,G#1
2009,Left,1,32,80,324.0,0.739583,DottedEighth,G#1
2011,Right,0,67,80,324.75,0.239583,Sixteenth,G4
2010,Left,1,32,80,324.75,0.239583,Sixteenth,G#1
2014,Right,0,63,80,325.0,7.989583,Half,G#4_D#4_C4
2012,Left,1,32,80,325.0,3.989583,Quarter,G#2_G#1
2017,Left,1,32,77,326.0,0.739583,DottedEighth,G#1
2018,Left,1,32,74,326.75,0.239583,Sixteenth,G#1
2019,Left,1,32,73,327.0,0.989583,Quarter,G#1
2020,Right,0,63,73,327.0,0.989583,Quarter,D#4_C4
2022,Left,1,32,69,328.0,0.739583,DottedEighth,G#1
2023,Right,0,63,69,328.0,0.989583,Quarter,D#4_C4
2025,Left,1,32,66,328.75,0.239583,Sixteenth,G#1
2029,Left,1,44,66,329.0,3.989583,Whole,G#2_G#1
2026,Right,0,56,66,329.0,3.989583,Whole,G#3_D#4_C4
