,hand,channel,note,velocity,start_beat,duration,note_value,chord
0,Right,0,75,80,0.0,0.239583,Sixteenth,D#5
1,Right,0,72,80,0.25,0.239583,Sixteenth,C5
2,Right,0,77,80,0.5,0.239583,Sixteenth,F5
3,Right,0,69,80,0.75,0.239583,Sixteenth,A4
4,Right,0,73,80,1.0,0.239583,Sixteenth,C#5
5,Right,0,70,80,1.25,0.239583,Sixteenth,A#4
6,Right,0,75,80,1.5,0.239583,Sixteenth,D#5
7,Right,0,67,80,1.75,0.239583,Sixteenth,G4
8,Right,0,72,80,2.0,0.239583,Sixteenth,C5
9,Right,0,68,80,2.25,0.239583,Sixteenth,G#4
10,Right,0,73,80,2.5,0.239583,Sixteenth,C#5
11,Right,0,65,80,2.75,0.239583,Sixteenth,F4
12,Right,0,70,80,3.0,0.239583,Sixteenth,A#4
13,Right,0,67,80,3.25,0.239583,Sixteenth,G4
14,Right,0,72,80,3.5,0.239583,Sixteenth,C5
15,Right,0,64,80,3.75,0.239583,Sixteenth,E4
16,Right,0,68,80,4.0,0.239583,Sixteenth,G#4
17,Right,0,65,80,4.25,0.239583,Sixteenth,F4
18,Right,0,70,80,4.5,0.239583,Sixteenth,A#4
19,Right,0,62,80,4.75,0.239583,Sixteenth,D4
20,Right,0,67,80,5.0,0.239583,Sixteenth,G4
21,Left,1,51,80,5.0,3.989583,Whole,D#3
22,Right,0,63,80,5.25,0.239583,Sixteenth,D#4
23,Right,0,62,80,5.5,0.239583,Sixteenth,D4
24,Right,0,63,80,5.75,0.239583,Sixteenth,D#4
25,Right,0,67,80,6.0,0.239583,Sixteenth,G4
26,Left,1,61,80,6.0,0.489583,Eighth,C#4
27,Right,0,63,80,6.25,0.239583,Sixteenth,D#4
28,Right,0,68,80,6.5,0.239583,Sixteenth,G#4
29,Left,1,60,80,6.5,0.489583,Eighth,C4
30,Right,0,63,80,6.75,0.239583,Sixteenth,D#4
32,Left,1,58,80,7.0,0.489583,Eighth,A#3
31,Right,0,70,80,7.0,0.239583,Sixteenth,A#4
33,Right,0,63,80,7.25,0.239583,Sixteenth,D#4
35,Right,0,72,80,7.5,0.239583,Sixteenth,C5
34,Left,1,56,80,7.5,0.489583,Eighth,G#3
36,Right,0,63,80,7.75,0.239583,Sixteenth,D#4
38,Right,0,73,80,8.0,0.239583,Sixteenth,C#5
37,Left,1,55,80,8.0,0.489583,Eighth,G3
39,Right,0,63,80,8.25,0.239583,Sixteenth,D#4
41,Right,0,74,80,8.5,0.239583,Sixteenth,D5
40,Left,1,53,80,8.5,0.489583,Eighth,F3
42,Right,0,63,80,8.75,0.239583,Sixteenth,D#4
43,Right,0,75,80,9.0,0.239583,Sixteenth,D#5
44,Left,1,51,80,9.0,0.489583,Eighth,D#3
45,Right,0,63,80,9.25,0.239583,Sixteenth,D#4
46,Right,0,75,80,9.5,0.239583,Sixteenth,G4_D#5
48,Left,1,49,80,9.5,0.489583,Eighth,C#3
49,Right,0,63,80,9.75,0.239583,Sixteenth,D#4
50,Left,1,48,80,10.0,0.489583,Eighth,C3
51,Right,0,68,80,10.0,0.239583,Sixteenth,G#4_D#5
53,Right,0,63,80,10.25,0.239583,Sixteenth,D#4
57,Left,1,44,80,10.5,0.489583,Eighth,G#2
54,Right,0,75,80,10.5,0.239583,Sixteenth,G#4_D#5_C5
58,Right,0,63,80,10.75,0.239583,Sixteenth,D#4
61,Left,1,51,80,11.0,0.489583,Eighth,D#3
59,Right,0,67,80,11.0,0.239583,Sixteenth,G4_D#5_A#4
63,Right,0,63,80,11.25,0.239583,Sixteenth,D#4
65,Right,0,75,80,11.5,0.239583,Sixteenth,G4_D#5_A#4
64,Left,1,39,80,11.5,0.489583,Eighth,D#2
68,Right,0,63,80,11.75,0.239583,Sixteenth,D#4
69,Right,0,72,80,12.0,0.239583,Sixteenth,C5
70,Left,1,63,80,12.0,0.239583,Sixteenth,D#4
71,Right,0,75,80,12.25,0.239583,Sixteenth,D#5
72,Left,1,60,80,12.25,0.239583,Sixteenth,C4
74,Right,0,69,80,12.5,0.239583,Sixteenth,A4
73,Left,1,65,80,12.5,0.239583,Sixteenth,F4
75,Right,0,77,80,12.75,0.239583,Sixteenth,F5
76,Left,1,57,80,12.75,0.239583,Sixteenth,A3
77,Right,0,70,80,13.0,0.239583,Sixteenth,A#4
78,Left,1,61,80,13.0,0.239583,Sixteenth,C#4
79,Right,0,73,80,13.25,0.239583,Sixteenth,C#5
80,Left,1,58,80,13.25,0.239583,Sixteenth,A#3
82,Right,0,67,80,13.5,0.239583,Sixteenth,G4
81,Left,1,63,80,13.5,0.239583,Sixteenth,D#4
84,Right,0,75,80,13.75,0.239583,Sixteenth,D#5
83,Left,1,55,80,13.75,0.239583,Sixteenth,G3
86,Right,0,68,80,14.0,0.239583,Sixteenth,G#4
85,Left,1,60,80,14.0,0.239583,Sixteenth,C4
88,Left,1,56,80,14.25,0.239583,Sixteenth,G#3
87,Right,0,72,80,14.25,0.239583,Sixteenth,C5
90,Left,1,61,80,14.5,0.239583,Sixteenth,C#4
89,Right,0,65,80,14.5,0.239583,Sixteenth,F4
91,Left,1,53,80,14.75,0.239583,Sixteenth,F3
92,Right,0,73,80,14.75,0.239583,Sixteenth,C#5
94,Left,1,58,80,15.0,0.239583,Sixteenth,A#3
93,Right,0,67,80,15.0,0.239583,Sixteenth,G4
95,Left,1,55,80,15.25,0.239583,Sixteenth,G3
96,Right,0,70,80,15.25,0.239583,Sixteenth,A#4
98,Right,0,64,80,15.5,0.239583,Sixteenth,E4
97,Left,1,60,80,15.5,0.239583,Sixteenth,C4
99,Left,1,52,80,15.75,0.239583,Sixteenth,E3
100,Right,0,72,80,15.75,0.239583,Sixteenth,C5
101,Left,1,56,80,16.0,0.239583,Sixteenth,G#3
102,Right,0,65,80,16.0,0.239583,Sixteenth,F4
103,Left,1,53,80,16.25,0.239583,Sixteenth,F3
104,Right,0,68,80,16.25,0.239583,Sixteenth,G#4
106,Left,1,58,80,16.5,0.239583,Sixteenth,A#3
105,Right,0,62,80,16.5,0.239583,Sixteenth,D4
107,Left,1,50,80,16.75,0.239583,Sixteenth,D3
108,Right,0,70,80,16.75,0.239583,Sixteenth,A#4
109,Right,0,63,80,17.0,0.489583,Eighth,D#4
110,Left,1,55,80,17.0,0.239583,Sixteenth,G3
111,Left,1,51,80,17.25,0.239583,Sixteenth,D#3
112,Left,1,50,80,17.5,0.239583,Sixteenth,D3
113,Left,1,51,80,17.75,0.239583,Sixteenth,D#3
114,Right,0,73,80,18.0,0.489583,Eighth,C#6_C#5
116,Left,1,55,80,18.0,0.239583,Sixteenth,G3
117,Left,1,51,80,18.25,0.239583,Sixteenth,D#3
120,Left,1,56,80,18.5,0.239583,Sixteenth,G#3
118,Right,0,72,80,18.5,0.489583,Eighth,C6_C5
121,Left,1,51,80,18.75,0.239583,Sixteenth,D#3
124,Left,1,58,80,19.0,0.239583,Sixteenth,A#3
122,Right,0,82,80,19.0,0.489583,Eighth,A#5_A#4
125,Left,1,51,80,19.25,0.239583,Sixteenth,D#3
128,Left,1,60,80,19.5,0.239583,Sixteenth,C4
126,Right,0,68,80,19.5,0.489583,Eighth,G#5_G#4
129,Left,1,51,80,19.75,0.239583,Sixteenth,D#3
130,Right,0,67,80,20.0,0.489583,Eighth,G5_G4
131,Left,1,61,80,20.0,0.239583,Sixteenth,C#4
133,Left,1,51,80,20.25,0.239583,Sixteenth,D#3
134,Right,0,77,80,20.5,0.489583,Eighth,F5_F4
136,Left,1,62,80,20.5,0.239583,Sixteenth,D4
137,Left,1,51,80,20.75,0.239583,Sixteenth,D#3
139,Left,1,63,80,21.0,0.239583,Sixteenth,D#4
138,Right,0,75,80,21.0,0.489583,Eighth,D#5
140,Left,1,51,80,21.25,0.239583,Sixteenth,D#3
143,Left,1,63,80,21.5,0.239583,Sixteenth,D#4
141,Right,0,75,80,21.5,0.489583,Eighth,G#4_D#5_C5
145,Left,1,51,80,21.75,0.239583,Sixteenth,D#3
149,Left,1,63,80,22.0,0.239583,Sixteenth,D#4
146,Right,0,73,80,22.0,0.489583,Eighth,D#5_C#5_A#4
150,Left,1,51,80,22.25,0.239583,Sixteenth,D#3
151,Right,0,67,80,22.5,0.489583,Eighth,G4_D#5_A#4
152,Left,1,63,80,22.5,0.239583,Sixteenth,D#4
155,Left,1,51,80,22.75,0.239583,Sixteenth,D#3
159,Left,1,56,80,23.0,0.489583,Eighth,G#3
156,Right,0,75,80,23.0,0.489583,Eighth,G#4_D#5_C5
160,Left,1,44,80,23.5,0.489583,Eighth,G#2
162,Left,1,58,80,24.0,0.489583,Eighth,A#3
161,Right,0,60,80,24.0,0.239583,Sixteenth,C4
163,Right,0,72,80,24.25,0.239583,Sixteenth,C5
165,Right,0,64,80,24.5,0.239583,Sixteenth,E4
164,Left,1,56,80,24.5,0.489583,Eighth,G#3
166,Right,0,72,80,24.75,0.239583,Sixteenth,C5
167,Right,0,67,80,25.0,0.239583,Sixteenth,G4
168,Left,1,52,80,25.0,0.489583,Eighth,E3
169,Right,0,72,80,25.25,0.239583,Sixteenth,C5
171,Left,1,48,80,25.5,0.489583,Eighth,C3
170,Right,0,71,80,25.5,0.239583,Sixteenth,B4
172,Right,0,72,80,25.75,0.239583,Sixteenth,C5
173,Right,0,70,80,26.0,0.239583,Sixteenth,A#4
174,Left,1,50,80,26.0,0.489583,Eighth,D3
175,Right,0,72,80,26.25,0.239583,Sixteenth,C5
177,Right,0,67,80,26.5,0.239583,Sixteenth,G4
176,Left,1,52,80,26.5,0.489583,Eighth,E3
178,Right,0,72,80,26.75,0.239583,Sixteenth,C5
179,Left,1,53,80,27.0,0.489583,Eighth,F3
180,Right,0,68,80,27.0,0.239583,Sixteenth,G#4
181,Right,0,72,80,27.25,0.239583,Sixteenth,C5
182,Right,0,65,80,27.5,0.239583,Sixteenth,F4
183,Left,1,56,80,27.5,0.489583,Eighth,G#3
184,Right,0,72,80,27.75,0.239583,Sixteenth,C5
186,Left,1,46,80,28.0,0.239583,Sixteenth,A#2
185,Right,0,80,80,28.0,0.489583,Eighth,G#5
187,Left,1,58,80,28.25,0.239583,Sixteenth,A#3
188,Left,1,50,80,28.5,0.239583,Sixteenth,D3
189,Right,0,77,80,28.5,0.489583,Eighth,F5
190,Left,1,58,80,28.75,0.239583,Sixteenth,A#3
191,Right,0,74,80,29.0,0.489583,Eighth,D5
192,Left,1,53,80,29.0,0.239583,Sixteenth,F3
193,Left,1,58,80,29.25,0.239583,Sixteenth,A#3
195,Right,0,70,80,29.5,0.489583,Eighth,A#4
194,Left,1,57,80,29.5,0.239583,Sixteenth,A3
196,Left,1,58,80,29.75,0.239583,Sixteenth,A#3
197,Right,0,72,80,30.0,0.489583,Eighth,C5
198,Left,1,56,80,30.0,0.239583,Sixteenth,G#3
199,Left,1,58,80,30.25,0.239583,Sixteenth,A#3
200,Right,0,74,80,30.5,0.489583,Eighth,D5
201,Left,1,53,80,30.5,0.239583,Sixteenth,F3
202,Left,1,58,80,30.75,0.239583,Sixteenth,A#3
203,Right,0,75,80,31.0,0.489583,Eighth,D#5
204,Left,1,55,80,31.0,0.239583,Sixteenth,G3
205,Left,1,58,80,31.25,0.239583,Sixteenth,A#3
207,Right,0,79,80,31.5,0.489583,Eighth,G5
206,Left,1,51,80,31.5,0.239583,Sixteenth,D#3
208,Left,1,58,80,31.75,0.239583,Sixteenth,A#3
210,Right,0,63,80,32.0,0.239583,Sixteenth,D#4
209,Left,1,61,80,32.0,0.489583,Eighth,C#4
211,Right,0,75,80,32.25,0.239583,Sixteenth,D#5
213,Left,1,58,80,32.5,0.489583,Eighth,A#3
212,Right,0,67,80,32.5,0.239583,Sixteenth,G4
214,Right,0,75,80,32.75,0.239583,Sixteenth,D#5
215,Right,0,70,80,33.0,0.239583,Sixteenth,A#4
216,Left,1,55,80,33.0,0.489583,Eighth,G3
217,Right,0,75,80,33.25,0.239583,Sixteenth,D#5
219,Right,0,74,80,33.5,0.239583,Sixteenth,D5
218,Left,1,51,80,33.5,0.489583,Eighth,D#3
220,Right,0,75,80,33.75,0.239583,Sixteenth,D#5
221,Right,0,73,80,34.0,0.239583,Sixteenth,C#5
222,Left,1,53,80,34.0,0.489583,Eighth,F3
223,Right,0,75,80,34.25,0.239583,Sixteenth,D#5
225,Right,0,70,80,34.5,0.239583,Sixteenth,A#4
224,Left,1,55,80,34.5,0.489583,Eighth,G3
226,Right,0,75,80,34.75,0.239583,Sixteenth,D#5
227,Left,1,56,80,35.0,0.489583,Eighth,G#3
228,Right,0,72,80,35.0,0.239583,Sixteenth,C5
229,Right,0,75,80,35.25,0.239583,Sixteenth,D#5
230,Right,0,63,80,35.5,0.239583,Sixteenth,D#4_C5
232,Left,1,44,80,35.5,0.489583,Eighth,G#2
233,Right,0,75,80,35.75,0.239583,Sixteenth,D#5
234,Right,0,65,80,36.0,0.239583,Sixteenth,F4_C#5
236,Left,1,46,80,36.0,0.489583,Eighth,A#2
237,Right,0,75,80,36.25,0.239583,Sixteenth,D#5
238,Right,0,72,80,36.5,0.239583,Sixteenth,G#4_C5
240,Left,1,48,80,36.5,0.489583,Eighth,C3
241,Right,0,75,80,36.75,0.239583,Sixteenth,D#5
244,Left,1,49,80,37.0,0.489583,Eighth,C#3
242,Right,0,72,80,37.0,0.239583,Sixteenth,F4_C5
245,Right,0,75,80,37.25,0.239583,Sixteenth,D#5
246,Left,1,46,80,37.5,0.489583,Eighth,A#2
247,Right,0,65,80,37.5,0.239583,Sixteenth,F4_A#4
249,Right,0,73,80,37.75,0.239583,Sixteenth,C#5
250,Left,1,51,80,38.0,0.489583,Eighth,D#3
251,Right,0,68,80,38.0,0.239583,Sixteenth,G#4_D#4
253,Right,0,72,80,38.25,0.239583,Sixteenth,C5
256,Left,1,39,80,38.5,0.489583,Eighth,D#2
254,Right,0,61,80,38.5,0.239583,Sixteenth,G4_C#4
257,Right,0,70,80,38.75,0.239583,Sixteenth,A#4
258,Left,1,44,80,39.0,0.489583,Eighth,G#2
259,Right,0,60,80,39.0,0.489583,Eighth,G#4_C4
261,Left,1,32,80,39.5,0.489583,Eighth,G#1
262,Right,0,70,80,40.0,0.489583,Eighth,A#5_A#4
263,Left,1,48,80,40.0,0.239583,Sixteenth,C3
265,Left,1,60,80,40.25,0.239583,Sixteenth,C4
268,Left,1,52,80,40.5,0.239583,Sixteenth,E3
266,Right,0,67,80,40.5,0.489583,Eighth,G5_G4
269,Left,1,60,80,40.75,0.239583,Sixteenth,C4
272,Left,1,55,80,41.0,0.239583,Sixteenth,G3
270,Right,0,76,80,41.0,0.489583,Eighth,E5_E4
273,Left,1,60,80,41.25,0.239583,Sixteenth,C4
275,Right,0,72,80,41.5,0.489583,Eighth,C5
274,Left,1,59,80,41.5,0.239583,Sixteenth,B3
276,Left,1,60,80,41.75,0.239583,Sixteenth,C4
277,Right,0,62,80,42.0,0.489583,Eighth,D5_D4
279,Left,1,58,80,42.0,0.239583,Sixteenth,A#3
280,Left,1,60,80,42.25,0.239583,Sixteenth,C4
282,Right,0,76,80,42.5,0.489583,Eighth,E5_E4
281,Left,1,55,80,42.5,0.239583,Sixteenth,G3
284,Left,1,60,80,42.75,0.239583,Sixteenth,C4
285,Right,0,77,80,43.0,0.489583,Eighth,F5_F4
286,Left,1,56,80,43.0,0.239583,Sixteenth,G#3
288,Left,1,60,80,43.25,0.239583,Sixteenth,C4
289,Left,1,53,80,43.5,0.239583,Sixteenth,F3
290,Right,0,80,80,43.5,0.489583,Eighth,G#5_G#4
292,Left,1,60,80,43.75,0.239583,Sixteenth,C4
293,Right,0,72,80,44.0,0.239583,Sixteenth,C5
294,Left,1,68,80,44.0,0.489583,Eighth,G#4
295,Right,0,82,80,44.25,0.239583,Sixteenth,A#5
296,Left,1,65,80,44.5,0.489583,Eighth,F4
297,Right,0,74,80,44.5,0.239583,Sixteenth,D5
298,Right,0,82,80,44.75,0.239583,Sixteenth,A#5
299,Right,0,77,80,45.0,0.239583,Sixteenth,F5
300,Left,1,62,80,45.0,0.489583,Eighth,D4
301,Right,0,82,80,45.25,0.239583,Sixteenth,A#5
302,Left,1,58,80,45.5,0.489583,Eighth,A#3
303,Right,0,81,80,45.5,0.239583,Sixteenth,A5
304,Right,0,82,80,45.75,0.239583,Sixteenth,A#5
305,Left,1,60,80,46.0,0.489583,Eighth,C4
306,Right,0,80,80,46.0,0.239583,Sixteenth,G#5
307,Right,0,82,80,46.25,0.239583,Sixteenth,A#5
309,Left,1,62,80,46.5,0.489583,Eighth,D4
308,Right,0,77,80,46.5,0.239583,Sixteenth,F5
310,Right,0,82,80,46.75,0.239583,Sixteenth,A#5
312,Left,1,63,80,47.0,0.489583,Eighth,D#4
311,Right,0,79,80,47.0,0.239583,Sixteenth,G5
313,Right,0,82,80,47.25,0.239583,Sixteenth,A#5
315,Left,1,67,80,47.5,0.489583,Eighth,G4
314,Right,0,75,80,47.5,0.239583,Sixteenth,D#5
316,Right,0,82,80,47.75,0.239583,Sixteenth,A#5
318,Left,1,39,80,48.0,0.239583,Sixteenth,D#2
317,Right,0,85,80,48.0,0.489583,Eighth,C#6_C#5
320,Left,1,51,81,48.25,0.239583,Sixteenth,D#3
322,Left,1,43,83,48.5,0.239583,Sixteenth,G2
321,Right,0,82,83,48.5,0.489583,Eighth,A#5_A#4
324,Left,1,51,84,48.75,0.239583,Sixteenth,D#3
325,Right,0,67,86,49.0,0.489583,Eighth,G5_G4
327,Left,1,46,86,49.0,0.239583,Sixteenth,A#2
328,Left,1,51,87,49.25,0.239583,Sixteenth,D#3
329,Right,0,63,89,49.5,0.489583,Eighth,D#5_D#4
331,Left,1,50,89,49.5,0.239583,Sixteenth,D3
332,Left,1,51,90,49.75,0.239583,Sixteenth,D#3
333,Right,0,65,92,50.0,0.489583,Eighth,F5_F4
334,Left,1,49,92,50.0,0.239583,Sixteenth,C#3
336,Left,1,51,93,50.25,0.239583,Sixteenth,D#3
337,Left,1,46,95,50.5,0.239583,Sixteenth,A#2
338,Right,0,67,95,50.5,0.489583,Eighth,G5_G4
340,Left,1,51,96,50.75,0.239583,Sixteenth,D#3
341,Left,1,48,98,51.0,0.239583,Sixteenth,C3
342,Right,0,68,98,51.0,0.489583,Eighth,G#5_G#4
344,Left,1,51,99,51.25,0.239583,Sixteenth,D#3
346,Left,1,44,110,51.5,0.239583,Sixteenth,G#2
345,Right,0,75,110,51.5,0.239583,Sixteenth,G#5_D#5_C6
349,Right,0,87,110,51.75,0.239583,Sixteenth,D#6
350,Left,1,56,110,51.75,0.239583,Sixteenth,G#3
354,Left,1,43,110,52.0,0.239583,Sixteenth,G2
351,Right,0,84,110,52.0,0.239583,Sixteenth,G#5_D#5_C6
356,Left,1,55,110,52.25,0.239583,Sixteenth,G3
355,Right,0,87,110,52.25,0.239583,Sixteenth,D#6
358,Left,1,44,110,52.5,0.239583,Sixteenth,G#2
357,Right,0,84,110,52.5,0.239583,Sixteenth,G#5_D#5_C6
361,Right,0,87,110,52.75,0.239583,Sixteenth,D#6
362,Left,1,56,110,52.75,0.239583,Sixteenth,G#3
363,Left,1,41,110,53.0,0.239583,Sixteenth,F2
364,Right,0,75,110,53.0,0.239583,Sixteenth,D#5_C6
366,Left,1,53,110,53.25,0.239583,Sixteenth,F3
367,Right,0,87,110,53.25,0.239583,Sixteenth,D#6
369,Left,1,37,110,53.5,0.239583,Sixteenth,C#2
368,Right,0,73,110,53.5,0.239583,Sixteenth,C#5_A#5
371,Left,1,49,110,53.75,0.239583,Sixteenth,C#3
372,Right,0,85,110,53.75,0.239583,Sixteenth,C#6
375,Left,1,39,110,54.0,0.239583,Sixteenth,D#2
373,Right,0,80,110,54.0,0.239583,Sixteenth,G#5_C5
376,Right,0,84,110,54.25,0.239583,Sixteenth,C6
377,Left,1,51,110,54.25,0.239583,Sixteenth,D#3
378,Left,1,39,110,54.5,0.239583,Sixteenth,D#2
379,Right,0,70,110,54.5,0.239583,Sixteenth,G5_A#4
381,Left,1,51,110,54.75,0.239583,Sixteenth,D#3
382,Right,0,82,110,54.75,0.239583,Sixteenth,A#5
383,Right,0,80,110,55.0,0.489583,Eighth,G#5_G#4
385,Left,1,34,110,55.0,0.489583,Eighth,A#1
386,Left,1,44,80,55.5,0.489583,Eighth,G#2
387,Left,1,60,80,56.0,0.239583,Sixteenth,C4
388,Left,1,56,80,56.25,0.239583,Sixteenth,G#3
389,Left,1,61,80,56.5,0.239583,Sixteenth,C#4
390,Left,1,53,80,56.75,0.239583,Sixteenth,F3
391,Left,1,58,80,57.0,0.239583,Sixteenth,A#3
392,Left,1,55,80,57.25,0.239583,Sixteenth,G3
393,Left,1,60,80,57.5,0.239583,Sixteenth,C4
394,Left,1,52,80,57.75,0.239583,Sixteenth,E3
395,Left,1,56,80,58.0,0.239583,Sixteenth,G#3
396,Left,1,53,80,58.25,0.239583,Sixteenth,F3
397,Left,1,58,80,58.5,0.239583,Sixteenth,A#3
398,Left,1,50,80,58.75,0.239583,Sixteenth,D3
399,Left,1,55,80,59.0,0.489583,Eighth,G3_D#3
401,Right,0,75,110,59.5,0.489583,Eighth,G5_G4_D#5_A#4
405,Left,1,63,80,60.0,0.239583,Sixteenth,D#4
406,Right,0,79,80,60.0,0.239583,Sixteenth,G5
408,Left,1,67,80,60.25,0.239583,Sixteenth,G4
407,Right,0,75,80,60.25,0.239583,Sixteenth,D#5
409,Left,1,60,80,60.5,0.239583,Sixteenth,C4
410,Right,0,80,80,60.5,0.239583,Sixteenth,G#5
412,Left,1,68,80,60.75,0.239583,Sixteenth,G#4
411,Right,0,72,80,60.75,0.239583,Sixteenth,C5
414,Right,0,77,80,61.0,0.239583,Sixteenth,F5
413,Left,1,62,80,61.0,0.239583,Sixteenth,D4
415,Left,1,65,80,61.25,0.239583,Sixteenth,F4
416,Right,0,74,80,61.25,0.239583,Sixteenth,D5
418,Right,0,79,80,61.5,0.239583,Sixteenth,G5
417,Left,1,59,80,61.5,0.239583,Sixteenth,B3
419,Left,1,67,80,61.75,0.239583,Sixteenth,G4
420,Right,0,71,80,61.75,0.239583,Sixteenth,B4
421,Left,1,60,80,62.0,0.239583,Sixteenth,C4
422,Right,0,75,80,62.0,0.239583,Sixteenth,D#5
423,Left,1,63,80,62.25,0.239583,Sixteenth,D#4
424,Right,0,72,80,62.25,0.239583,Sixteenth,C5
426,Left,1,57,80,62.5,0.239583,Sixteenth,A3
425,Right,0,77,80,62.5,0.239583,Sixteenth,F5
427,Left,1,65,80,62.75,0.239583,Sixteenth,F4
428,Right,0,69,80,62.75,0.239583,Sixteenth,A4
430,Left,1,58,80,63.0,0.489583,Eighth,A#3
429,Right,0,74,80,63.0,0.489583,Eighth,D5
435,Left,1,46,80,63.5,0.489583,Eighth,A#3_A#2
431,Right,0,70,110,63.5,0.489583,Eighth,F5_D5_A#5_A#4
437,Left,1,56,80,64.0,0.239583,Sixteenth,G#3
438,Left,1,58,80,64.25,0.239583,Sixteenth,A#3
439,Left,1,53,80,64.5,0.239583,Sixteenth,F3
440,Right,0,70,80,64.5,0.489583,Eighth,A#5_A#4
442,Left,1,62,80,64.75,0.239583,Sixteenth,D4
443,Left,1,56,80,65.0,0.239583,Sixteenth,G#3
444,Left,1,58,80,65.25,0.239583,Sixteenth,A#3
447,Left,1,53,80,65.5,0.239583,Sixteenth,F3
445,Right,0,74,80,65.5,0.489583,Eighth,D6_D5
448,Left,1,62,80,65.75,0.239583,Sixteenth,D4
449,Left,1,56,80,66.0,0.239583,Sixteenth,G#3
450,Left,1,58,80,66.25,0.239583,Sixteenth,A#3
452,Right,0,77,80,66.5,0.489583,Eighth,F6_F5
451,Left,1,53,80,66.5,0.239583,Sixteenth,F3
454,Left,1,62,80,66.75,0.239583,Sixteenth,D4
456,Right,0,74,80,67.0,0.489583,Eighth,D6_D5
455,Left,1,56,80,67.0,0.239583,Sixteenth,G#3
458,Left,1,58,80,67.25,0.239583,Sixteenth,A#3
459,Right,0,70,80,67.5,0.489583,Eighth,A#5_A#4
461,Left,1,53,80,67.5,0.239583,Sixteenth,F3
462,Left,1,62,80,67.75,0.239583,Sixteenth,D4
463,Left,1,56,80,68.0,0.239583,Sixteenth,G#3
464,Left,1,58,80,68.25,0.239583,Sixteenth,A#3
465,Right,0,82,80,68.5,0.489583,Eighth,A#5_A#4
467,Left,1,53,80,68.5,0.239583,Sixteenth,F3
468,Left,1,62,80,68.75,0.239583,Sixteenth,D4
469,Left,1,56,80,69.0,0.239583,Sixteenth,G#3
470,Left,1,58,80,69.25,0.239583,Sixteenth,A#3
471,Left,1,53,80,69.5,0.239583,Sixteenth,F3
472,Right,0,86,80,69.5,0.489583,Eighth,D6_D5
474,Left,1,62,80,69.75,0.239583,Sixteenth,D4
475,Left,1,56,80,70.0,0.239583,Sixteenth,G#3
476,Left,1,58,80,70.25,0.239583,Sixteenth,A#3
478,Left,1,53,80,70.5,0.239583,Sixteenth,F3
477,Right,0,77,80,70.5,0.489583,Eighth,F6_F5
480,Left,1,62,80,70.75,0.239583,Sixteenth,D4
482,Right,0,74,80,71.0,0.489583,Eighth,D6_D5
481,Left,1,56,80,71.0,0.239583,Sixteenth,G#3
484,Left,1,58,80,71.25,0.239583,Sixteenth,A#3
486,Right,0,70,80,71.5,0.489583,Eighth,A#5_A#4
485,Left,1,53,80,71.5,0.239583,Sixteenth,F3
488,Left,1,62,80,71.75,0.239583,Sixteenth,D4
489,Right,0,80,80,72.0,0.239583,Sixteenth,G#5
490,Right,0,77,80,72.25,0.239583,Sixteenth,F5
492,Right,0,82,80,72.5,0.239583,Sixteenth,A#5
491,Left,1,58,80,72.5,0.489583,Eighth,A#3_A#2
494,Right,0,74,80,72.75,0.239583,Sixteenth,D5
495,Right,0,80,80,73.0,0.239583,Sixteenth,G#5
496,Right,0,77,80,73.25,0.239583,Sixteenth,F5
497,Left,1,62,80,73.5,0.489583,Eighth,D4_D3
498,Right,0,82,80,73.5,0.239583,Sixteenth,A#5
500,Right,0,74,80,73.75,0.239583,Sixteenth,D5
501,Right,0,80,80,74.0,0.239583,Sixteenth,G#5
502,Right,0,77,80,74.25,0.239583,Sixteenth,F5
504,Left,1,53,80,74.5,0.489583,Eighth,F4_F3
503,Right,0,82,80,74.5,0.239583,Sixteenth,A#5
506,Right,0,74,80,74.75,0.239583,Sixteenth,D5
507,Left,1,62,80,75.0,0.489583,Eighth,D4_D3
509,Right,0,80,80,75.0,0.239583,Sixteenth,G#5
510,Right,0,77,80,75.25,0.239583,Sixteenth,F5
511,Left,1,46,80,75.5,0.489583,Eighth,A#3_A#2
513,Right,0,82,80,75.5,0.239583,Sixteenth,A#5
514,Right,0,74,80,75.75,0.239583,Sixteenth,D5
515,Right,0,80,80,76.0,0.239583,Sixteenth,G#5
516,Right,0,77,80,76.25,0.239583,Sixteenth,F5
517,Right,0,82,81,76.5,0.239583,Sixteenth,A#5
518,Left,1,34,81,76.5,0.489583,Eighth,A#2_A#1
520,Right,0,74,82,76.75,0.239583,Sixteenth,D5
521,Right,0,80,82,77.0,0.239583,Sixteenth,G#5
522,Right,0,77,83,77.25,0.239583,Sixteenth,F5
523,Right,0,82,84,77.5,0.239583,Sixteenth,A#5
524,Left,1,50,84,77.5,0.489583,Eighth,D3_D2
526,Right,0,74,84,77.75,0.239583,Sixteenth,D5
527,Right,0,80,85,78.0,0.239583,Sixteenth,G#5
528,Right,0,77,86,78.25,0.239583,Sixteenth,F5
530,Left,1,53,87,78.5,0.489583,Eighth,F3_F2
529,Right,0,82,87,78.5,0.239583,Sixteenth,A#5
532,Right,0,74,87,78.75,0.239583,Sixteenth,D5
534,Left,1,38,88,79.0,0.489583,Eighth,D3_D2
533,Right,0,80,88,79.0,0.239583,Sixteenth,G#5
536,Right,0,77,89,79.25,0.239583,Sixteenth,F5
537,Right,0,82,89,79.5,0.239583,Sixteenth,A#5
538,Left,1,34,89,79.5,0.489583,Eighth,A#2_A#1
540,Right,0,74,90,79.75,0.239583,Sixteenth,D5
541,Right,0,80,91,80.0,0.239583,Sixteenth,G#5
542,Right,0,77,92,80.25,0.239583,Sixteenth,F5
545,Right,0,82,92,80.5,0.239583,Sixteenth,A#5
543,Left,1,53,92,80.5,0.489583,Eighth,F4_F3
546,Right,0,74,93,80.75,0.239583,Sixteenth,D5
549,Right,0,80,94,81.0,0.239583,Sixteenth,G#5
547,Left,1,62,94,81.0,0.489583,Eighth,D4_D3
550,Right,0,77,94,81.25,0.239583,Sixteenth,F5
551,Right,0,82,95,81.5,0.239583,Sixteenth,A#5
552,Left,1,46,95,81.5,0.489583,Eighth,A#3_A#2
554,Right,0,74,96,81.75,0.239583,Sixteenth,D5
555,Right,0,80,97,82.0,0.239583,Sixteenth,G#5
556,Right,0,77,97,82.25,0.239583,Sixteenth,F5
557,Right,0,82,98,82.5,0.239583,Sixteenth,A#5
558,Left,1,46,98,82.5,0.489583,Eighth,A#2_A#1
560,Right,0,74,99,82.75,0.239583,Sixteenth,D5
563,Right,0,79,99,83.0,0.489583,Eighth,G5
561,Left,1,51,99,83.0,0.489583,Eighth,D#3_D#2
565,Left,1,43,80,83.5,1.489583,DottedQuarter,G2_G1
564,Right,0,75,80,83.5,0.239583,Sixteenth,D#5
567,Right,0,74,80,83.75,0.239583,Sixteenth,D5
568,Right,0,72,80,84.0,0.239583,Sixteenth,C5
569,Right,0,70,80,84.25,0.239583,Sixteenth,A#4
570,Right,0,68,80,84.5,0.239583,Sixteenth,G#4
571,Right,0,67,80,84.75,0.239583,Sixteenth,G4
573,Left,1,32,80,85.0,0.989583,Quarter,G#2_G#1
572,Right,0,65,80,85.0,0.239583,Sixteenth,F4
575,Right,0,63,80,85.25,0.239583,Sixteenth,D#4
576,Right,0,62,80,85.5,0.239583,Sixteenth,D4
577,Right,0,60,80,85.75,0.239583,Sixteenth,C4
580,Right,0,58,80,86.0,0.239583,Sixteenth,A#3
578,Left,1,34,80,86.0,0.989583,Quarter,A#2_A#1
581,Right,0,56,80,86.25,0.239583,Sixteenth,G#3
582,Right,0,55,80,86.5,0.239583,Sixteenth,G3
583,Right,0,53,80,86.75,0.239583,Sixteenth,F3
584,Right,0,51,80,87.0,0.489583,Eighth,D#3
585,Left,1,36,80,87.0,0.489583,Eighth,C3_C2
589,Right,0,79,80,87.5,0.239583,Sixteenth,G5
587,Left,1,31,80,87.5,1.489583,DottedQuarter,G2_G1
590,Right,0,77,80,87.75,0.239583,Sixteenth,F5
591,Right,0,75,80,88.0,0.15625,TripletSixteenth,D#5
592,Right,0,74,80,88.166667,0.15625,TripletSixteenth,D5
593,Right,0,72,80,88.333333,0.15625,TripletSixteenth,C5
594,Right,0,70,80,88.5,0.15625,TripletSixteenth,A#4
595,Right,0,68,80,88.666667,0.15625,TripletSixteenth,G#4
596,Right,0,67,80,88.833333,0.15625,TripletSixteenth,G4
598,Right,0,65,80,89.0,0.239583,Sixteenth,F4
597,Left,1,32,80,89.0,0.989583,Quarter,G#2_G#1
600,Right,0,63,80,89.25,0.239583,Sixteenth,D#4
601,Right,0,62,80,89.5,0.239583,Sixteenth,D4
602,Right,0,60,80,89.75,0.239583,Sixteenth,C4
605,Right,0,58,80,90.0,0.239583,Sixteenth,A#3
603,Left,1,34,80,90.0,0.989583,Quarter,A#2_A#1
606,Right,0,56,80,90.25,0.239583,Sixteenth,G#3
607,Right,0,55,80,90.5,0.239583,Sixteenth,G3
608,Right,0,53,80,90.75,0.239583,Sixteenth,F3
610,Right,0,51,80,91.0,0.489583,Eighth,D#3
609,Left,1,36,80,91.0,0.489583,Eighth,C3_C2
612,Left,1,31,80,91.5,1.489583,DottedQuarter,G2_G1
613,Right,0,82,80,91.5,0.239583,Sixteenth,A#5
615,Right,0,80,80,91.75,0.239583,Sixteenth,G#5
616,Right,0,79,80,92.0,0.114583,ThirtySecond,G5
617,Right,0,77,80,92.125,0.114583,ThirtySecond,F5
618,Right,0,75,80,92.25,0.114583,ThirtySecond,D#5
619,Right,0,74,80,92.375,0.114583,ThirtySecond,D5
620,Right,0,72,80,92.5,0.114583,ThirtySecond,C5
621,Right,0,70,80,92.625,0.114583,ThirtySecond,A#4
622,Right,0,68,80,92.75,0.114583,ThirtySecond,G#4
623,Right,0,67,80,92.875,0.114583,ThirtySecond,G4
625,Right,0,65,80,93.0,0.239583,Sixteenth,F4
624,Left,1,44,80,93.0,0.989583,Quarter,G#2_G#1
627,Right,0,63,80,93.25,0.239583,Sixteenth,D#4
628,Right,0,62,80,93.5,0.239583,Sixteenth,D4
629,Right,0,60,80,93.75,0.239583,Sixteenth,C4
632,Right,0,58,80,94.0,0.239583,Sixteenth,A#3
630,Left,1,46,80,94.0,0.989583,Quarter,A#2_A#1
633,Right,0,56,80,94.25,0.239583,Sixteenth,G#3
634,Right,0,55,80,94.5,0.239583,Sixteenth,G3
635,Right,0,53,80,94.75,0.239583,Sixteenth,F3
637,Right,0,51,80,95.0,0.489583,Eighth,D#3
636,Left,1,39,80,95.0,1.989583,Half,D#2
638,Left,1,51,80,95.5,1.489583,DottedQuarter,D#3
639,Right,0,67,80,96.0,0.239583,Sixteenth,G4
640,Right,0,63,80,96.25,0.239583,Sixteenth,D#4
641,Right,0,68,80,96.5,0.239583,Sixteenth,G#4
642,Right,0,65,80,96.75,0.239583,Sixteenth,F4
643,Left,1,39,80,97.0,1.989583,Half,D#2
644,Left,1,51,80,97.5,1.489583,DottedQuarter,D#3
645,Right,0,70,80,98.0,0.239583,Sixteenth,A#4
646,Right,0,67,80,98.25,0.239583,Sixteenth,G4
647,Right,0,72,80,98.5,0.239583,Sixteenth,C5
648,Right,0,68,80,98.75,0.239583,Sixteenth,G#4
649,Left,1,39,80,99.0,9.989583,Unknown,D#2
650,Left,1,51,80,99.5,9.489583,Unknown,D#3
651,Right,0,73,80,100.0,0.239583,Sixteenth,C#5
652,Right,0,70,80,100.25,0.239583,Sixteenth,A#4
653,Right,0,74,80,100.5,0.239583,Sixteenth,D5
654,Right,0,71,80,100.75,0.239583,Sixteenth,B4
655,Right,0,75,80,101.0,0.239583,Sixteenth,D#5
656,Right,0,72,80,101.25,0.239583,Sixteenth,C5
657,Right,0,74,80,101.5,0.239583,Sixteenth,D5
658,Right,0,71,80,101.75,0.239583,Sixteenth,B4
659,Right,0,75,80,102.0,0.239583,Sixteenth,D#5
660,Right,0,72,80,102.25,0.239583,Sixteenth,C5
661,Right,0,74,80,102.5,0.239583,Sixteenth,D5
662,Right,0,71,80,102.75,0.239583,Sixteenth,B4
663,Right,0,75,80,103.0,0.239583,Sixteenth,D#5
664,Right,0,72,80,103.25,0.239583,Sixteenth,C5
665,Right,0,74,80,103.5,0.239583,Sixteenth,D5
666,Right,0,71,80,103.75,0.239583,Sixteenth,B4
667,Right,0,75,80,104.0,0.239583,Sixteenth,D#5
668,Right,0,72,80,104.25,0.239583,Sixteenth,C5
669,Right,0,77,80,104.5,0.239583,Sixteenth,F5
670,Right,0,68,80,104.75,0.239583,Sixteenth,G#4
671,Right,0,73,80,105.0,0.239583,Sixteenth,C#5
672,Right,0,70,80,105.25,0.239583,Sixteenth,A#4
673,Right,0,75,80,105.5,0.239583,Sixteenth,D#5
674,Right,0,67,80,105.75,0.239583,Sixteenth,G4
675,Right,0,72,80,106.0,0.239583,Sixteenth,C5
676,Right,0,68,80,106.25,0.239583,Sixteenth,G#4
677,Right,0,73,80,106.5,0.239583,Sixteenth,C#5
678,Right,0,65,80,106.75,0.239583,Sixteenth,F4
679,Right,0,70,80,107.0,0.239583,Sixteenth,A#4
680,Right,0,67,80,107.25,0.239583,Sixteenth,G4
681,Right,0,72,80,107.5,0.239583,Sixteenth,C5
682,Right,0,64,80,107.75,0.239583,Sixteenth,E4
683,Right,0,68,80,108.0,0.239583,Sixteenth,G#4
684,Right,0,65,80,108.25,0.239583,Sixteenth,F4
685,Right,0,70,80,108.5,0.239583,Sixteenth,A#4
686,Right,0,62,80,108.75,0.239583,Sixteenth,D4
688,Left,1,51,80,109.0,3.989583,Whole,D#3
687,Right,0,67,80,109.0,0.239583,Sixteenth,G4
689,Right,0,63,80,109.25,0.239583,Sixteenth,D#4
690,Right,0,62,80,109.5,0.239583,Sixteenth,D4
691,Right,0,63,80,109.75,0.239583,Sixteenth,D#4
692,Right,0,67,80,110.0,0.239583,Sixteenth,G4
693,Left,1,61,80,110.0,0.489583,Eighth,C#4
694,Right,0,63,80,110.25,0.239583,Sixteenth,D#4
695,Right,0,68,80,110.5,0.239583,Sixteenth,G#4
696,Left,1,60,80,110.5,0.489583,Eighth,C4
697,Right,0,63,80,110.75,0.239583,Sixteenth,D#4
698,Right,0,70,80,111.0,0.239583,Sixteenth,A#4
699,Left,1,58,80,111.0,0.489583,Eighth,A#3
700,Right,0,63,80,111.25,0.239583,Sixteenth,D#4
702,Left,1,56,80,111.5,0.489583,Eighth,G#3
701,Right,0,72,80,111.5,0.239583,Sixteenth,C5
703,Right,0,63,80,111.75,0.239583,Sixteenth,D#4
704,Right,0,73,80,112.0,0.239583,Sixteenth,C#5
705,Left,1,55,80,112.0,0.489583,Eighth,G3
706,Right,0,63,80,112.25,0.239583,Sixteenth,D#4
707,Right,0,74,80,112.5,0.239583,Sixteenth,D5
708,Left,1,53,80,112.5,0.489583,Eighth,F3
709,Right,0,63,80,112.75,0.239583,Sixteenth,D#4
711,Right,0,75,80,113.0,0.239583,Sixteenth,D#5
710,Left,1,51,80,113.0,0.489583,Eighth,D#3
712,Right,0,63,80,113.25,0.239583,Sixteenth,D#4
713,Left,1,49,80,113.5,0.489583,Eighth,C#3
714,Right,0,67,80,113.5,0.239583,Sixteenth,G4_D#5
716,Right,0,63,80,113.75,0.239583,Sixteenth,D#4
717,Right,0,75,80,114.0,0.239583,Sixteenth,G#4_D#5
718,Left,1,48,80,114.0,0.489583,Eighth,C3
720,Right,0,63,80,114.25,0.239583,Sixteenth,D#4
721,Right,0,68,80,114.5,0.239583,Sixteenth,G#4_D#5_C5
724,Left,1,44,80,114.5,0.489583,Eighth,G#2
725,Right,0,63,80,114.75,0.239583,Sixteenth,D#4
726,Right,0,67,80,115.0,0.239583,Sixteenth,G4_D#5_A#4
729,Left,1,51,80,115.0,0.489583,Eighth,D#3
730,Right,0,63,80,115.25,0.239583,Sixteenth,D#4
734,Left,1,39,80,115.5,0.489583,Eighth,D#2
731,Right,0,67,80,115.5,0.239583,Sixteenth,G4_D#5_A#4
735,Right,0,63,80,115.75,0.239583,Sixteenth,D#4
736,Right,0,72,80,116.0,0.239583,Sixteenth,C5
737,Left,1,63,80,116.0,0.239583,Sixteenth,D#4
739,Left,1,60,80,116.25,0.239583,Sixteenth,C4
738,Right,0,75,80,116.25,0.239583,Sixteenth,D#5
740,Right,0,69,80,116.5,0.239583,Sixteenth,A4
741,Left,1,65,80,116.5,0.239583,Sixteenth,F4
743,Right,0,77,80,116.75,0.239583,Sixteenth,F5
742,Left,1,57,80,116.75,0.239583,Sixteenth,A3
744,Left,1,61,80,117.0,0.239583,Sixteenth,C#4
745,Right,0,70,80,117.0,0.239583,Sixteenth,A#4
747,Right,0,73,80,117.25,0.239583,Sixteenth,C#5
746,Left,1,58,80,117.25,0.239583,Sixteenth,A#3
748,Left,1,63,80,117.5,0.239583,Sixteenth,D#4
749,Right,0,67,80,117.5,0.239583,Sixteenth,G4
751,Right,0,75,80,117.75,0.239583,Sixteenth,D#5
750,Left,1,55,80,117.75,0.239583,Sixteenth,G3
753,Right,0,68,80,118.0,0.239583,Sixteenth,G#4
752,Left,1,60,80,118.0,0.239583,Sixteenth,C4
755,Left,1,56,80,118.25,0.239583,Sixteenth,G#3
754,Right,0,72,80,118.25,0.239583,Sixteenth,C5
756,Left,1,61,80,118.5,0.239583,Sixteenth,C#4
757,Right,0,65,80,118.5,0.239583,Sixteenth,F4
758,Right,0,73,80,118.75,0.239583,Sixteenth,C#5
759,Left,1,53,80,118.75,0.239583,Sixteenth,F3
761,Left,1,58,80,119.0,0.239583,Sixteenth,A#3
760,Right,0,67,80,119.0,0.239583,Sixteenth,G4
763,Right,0,70,80,119.25,0.239583,Sixteenth,A#4
762,Left,1,55,80,119.25,0.239583,Sixteenth,G3
765,Right,0,64,80,119.5,0.239583,Sixteenth,E4
764,Left,1,60,80,119.5,0.239583,Sixteenth,C4
766,Right,0,72,80,119.75,0.239583,Sixteenth,C5
767,Left,1,52,80,119.75,0.239583,Sixteenth,E3
768,Left,1,56,80,120.0,0.239583,Sixteenth,G#3
769,Right,0,65,80,120.0,0.239583,Sixteenth,F4
770,Left,1,53,80,120.25,0.239583,Sixteenth,F3
771,Right,0,68,80,120.25,0.239583,Sixteenth,G#4
773,Left,1,58,80,120.5,0.239583,Sixteenth,A#3
772,Right,0,62,80,120.5,0.239583,Sixteenth,D4
774,Right,0,70,80,120.75,0.239583,Sixteenth,A#4
775,Left,1,50,80,120.75,0.239583,Sixteenth,D3
777,Left,1,55,80,121.0,0.239583,Sixteenth,G3
776,Right,0,63,80,121.0,0.489583,Eighth,D#4
778,Left,1,51,80,121.25,0.239583,Sixteenth,D#3
779,Left,1,50,80,121.5,0.239583,Sixteenth,D3
780,Left,1,51,80,121.75,0.239583,Sixteenth,D#3
782,Right,0,85,80,122.0,0.489583,Eighth,C#6_C#5
781,Left,1,55,80,122.0,0.239583,Sixteenth,G3
784,Left,1,51,80,122.25,0.239583,Sixteenth,D#3
785,Right,0,72,80,122.5,0.489583,Eighth,C6_C5
786,Left,1,56,80,122.5,0.239583,Sixteenth,G#3
788,Left,1,51,80,122.75,0.239583,Sixteenth,D#3
790,Right,0,82,80,123.0,0.489583,Eighth,A#5_A#4
789,Left,1,58,80,123.0,0.239583,Sixteenth,A#3
792,Left,1,51,80,123.25,0.239583,Sixteenth,D#3
793,Right,0,80,80,123.5,0.489583,Eighth,G#5_G#4
795,Left,1,60,80,123.5,0.239583,Sixteenth,C4
796,Left,1,51,80,123.75,0.239583,Sixteenth,D#3
797,Left,1,61,80,124.0,0.239583,Sixteenth,C#4
798,Right,0,67,80,124.0,0.489583,Eighth,G5_G4
800,Left,1,51,80,124.25,0.239583,Sixteenth,D#3
802,Left,1,62,80,124.5,0.239583,Sixteenth,D4
801,Right,0,65,80,124.5,0.489583,Eighth,F5_F4
804,Left,1,51,80,124.75,0.239583,Sixteenth,D#3
805,Left,1,63,80,125.0,0.239583,Sixteenth,D#4
806,Right,0,75,80,125.0,0.489583,Eighth,D#5
807,Left,1,51,80,125.25,0.239583,Sixteenth,D#3
809,Right,0,68,80,125.5,0.489583,Eighth,G#4_D#5_C5
808,Left,1,63,80,125.5,0.239583,Sixteenth,D#4
812,Left,1,51,80,125.75,0.239583,Sixteenth,D#3
813,Left,1,63,80,126.0,0.239583,Sixteenth,D#4
814,Right,0,70,80,126.0,0.489583,Eighth,D#5_C#5_A#4
817,Left,1,51,80,126.25,0.239583,Sixteenth,D#3
818,Left,1,63,80,126.5,0.239583,Sixteenth,D#4
819,Right,0,70,80,126.5,0.489583,Eighth,G4_D#5_A#4
822,Left,1,51,80,126.75,0.239583,Sixteenth,D#3
823,Left,1,56,80,127.0,0.489583,Eighth,G#3
824,Right,0,75,80,127.0,0.489583,Eighth,G#4_D#5_C5
827,Left,1,44,80,127.5,0.489583,Eighth,G#2
829,Right,0,60,80,128.0,0.239583,Sixteenth,C4
828,Left,1,58,80,128.0,0.489583,Eighth,A#3
830,Right,0,72,80,128.25,0.239583,Sixteenth,C5
831,Right,0,64,80,128.5,0.239583,Sixteenth,E4
832,Left,1,56,80,128.5,0.489583,Eighth,G#3
833,Right,0,72,80,128.75,0.239583,Sixteenth,C5
834,Right,0,67,80,129.0,0.239583,Sixteenth,G4
835,Left,1,52,80,129.0,0.489583,Eighth,E3
836,Right,0,72,80,129.25,0.239583,Sixteenth,C5
837,Left,1,48,80,129.5,0.489583,Eighth,C3
838,Right,0,71,80,129.5,0.239583,Sixteenth,B4
839,Right,0,72,80,129.75,0.239583,Sixteenth,C5
841,Left,1,50,80,130.0,0.489583,Eighth,D3
840,Right,0,70,80,130.0,0.239583,Sixteenth,A#4
842,Right,0,72,80,130.25,0.239583,Sixteenth,C5
844,Right,0,67,80,130.5,0.239583,Sixteenth,G4
843,Left,1,52,80,130.5,0.489583,Eighth,E3
845,Right,0,72,80,130.75,0.239583,Sixteenth,C5
847,Right,0,68,80,131.0,0.239583,Sixteenth,G#4
846,Left,1,53,80,131.0,0.489583,Eighth,F3
848,Right,0,72,80,131.25,0.239583,Sixteenth,C5
850,Right,0,65,80,131.5,0.239583,Sixteenth,F4
849,Left,1,56,80,131.5,0.489583,Eighth,G#3
851,Right,0,72,80,131.75,0.239583,Sixteenth,C5
853,Right,0,80,80,132.0,0.489583,Eighth,G#5
852,Left,1,46,80,132.0,0.239583,Sixteenth,A#2
854,Left,1,58,80,132.25,0.239583,Sixteenth,A#3
856,Right,0,77,80,132.5,0.489583,Eighth,F5
855,Left,1,50,80,132.5,0.239583,Sixteenth,D3
857,Left,1,58,80,132.75,0.239583,Sixteenth,A#3
858,Right,0,74,80,133.0,0.489583,Eighth,D5
859,Left,1,53,80,133.0,0.239583,Sixteenth,F3
860,Left,1,58,80,133.25,0.239583,Sixteenth,A#3
861,Right,0,70,80,133.5,0.489583,Eighth,A#4
862,Left,1,57,80,133.5,0.239583,Sixteenth,A3
863,Left,1,58,80,133.75,0.239583,Sixteenth,A#3
864,Left,1,56,80,134.0,0.239583,Sixteenth,G#3
865,Right,0,72,80,134.0,0.489583,Eighth,C5
866,Left,1,58,80,134.25,0.239583,Sixteenth,A#3
868,Right,0,74,80,134.5,0.489583,Eighth,D5
867,Left,1,53,80,134.5,0.239583,Sixteenth,F3
869,Left,1,58,80,134.75,0.239583,Sixteenth,A#3
870,Left,1,55,80,135.0,0.239583,Sixteenth,G3
871,Right,0,75,80,135.0,0.489583,Eighth,D#5
872,Left,1,58,80,135.25,0.239583,Sixteenth,A#3
874,Left,1,51,80,135.5,0.239583,Sixteenth,D#3
873,Right,0,79,80,135.5,0.489583,Eighth,G5
875,Left,1,58,80,135.75,0.239583,Sixteenth,A#3
876,Left,1,61,80,136.0,0.489583,Eighth,C#4
877,Right,0,63,80,136.0,0.239583,Sixteenth,D#4
878,Right,0,75,80,136.25,0.239583,Sixteenth,D#5
879,Right,0,67,80,136.5,0.239583,Sixteenth,G4
880,Left,1,58,80,136.5,0.489583,Eighth,A#3
881,Right,0,75,80,136.75,0.239583,Sixteenth,D#5
883,Left,1,55,80,137.0,0.489583,Eighth,G3
882,Right,0,70,80,137.0,0.239583,Sixteenth,A#4
884,Right,0,75,80,137.25,0.239583,Sixteenth,D#5
885,Left,1,51,80,137.5,0.489583,Eighth,D#3
886,Right,0,74,80,137.5,0.239583,Sixteenth,D5
887,Right,0,75,80,137.75,0.239583,Sixteenth,D#5
889,Left,1,53,80,138.0,0.489583,Eighth,F3
888,Right,0,73,80,138.0,0.239583,Sixteenth,C#5
890,Right,0,75,80,138.25,0.239583,Sixteenth,D#5
891,Right,0,70,80,138.5,0.239583,Sixteenth,A#4
892,Left,1,55,80,138.5,0.489583,Eighth,G3
893,Right,0,75,80,138.75,0.239583,Sixteenth,D#5
894,Left,1,56,80,139.0,0.489583,Eighth,G#3
895,Right,0,72,80,139.0,0.239583,Sixteenth,C5
896,Right,0,75,80,139.25,0.239583,Sixteenth,D#5
898,Right,0,72,80,139.5,0.239583,Sixteenth,D#4_C5
897,Left,1,44,80,139.5,0.489583,Eighth,G#2
900,Right,0,75,80,139.75,0.239583,Sixteenth,D#5
901,Right,0,73,80,140.0,0.239583,Sixteenth,F4_C#5
903,Left,1,46,80,140.0,0.489583,Eighth,A#2
904,Right,0,75,80,140.25,0.239583,Sixteenth,D#5
906,Right,0,68,80,140.5,0.239583,Sixteenth,G#4_C5
905,Left,1,48,80,140.5,0.489583,Eighth,C3
908,Right,0,75,80,140.75,0.239583,Sixteenth,D#5
909,Right,0,65,80,141.0,0.239583,Sixteenth,F4_C5
911,Left,1,49,80,141.0,0.489583,Eighth,C#3
912,Right,0,75,80,141.25,0.239583,Sixteenth,D#5
914,Right,0,65,80,141.5,0.239583,Sixteenth,F4_A#4
913,Left,1,46,80,141.5,0.489583,Eighth,A#2
916,Right,0,73,80,141.75,0.239583,Sixteenth,C#5
917,Right,0,68,80,142.0,0.239583,Sixteenth,G#4_D#4
918,Left,1,51,80,142.0,0.489583,Eighth,D#3
920,Right,0,72,80,142.25,0.239583,Sixteenth,C5
922,Right,0,67,80,142.5,0.239583,Sixteenth,G4_C#4
921,Left,1,39,80,142.5,0.489583,Eighth,D#2
924,Right,0,70,80,142.75,0.239583,Sixteenth,A#4
925,Right,0,60,80,143.0,0.489583,Eighth,G#4_C4
927,Left,1,44,80,143.0,0.489583,Eighth,G#2
928,Left,1,32,80,143.5,0.489583,Eighth,G#1
929,Right,0,70,80,144.0,0.489583,Eighth,A#5_A#4
931,Left,1,48,80,144.0,0.239583,Sixteenth,C3
932,Left,1,60,80,144.25,0.239583,Sixteenth,C4
933,Right,0,79,80,144.5,0.489583,Eighth,G5_G4
934,Left,1,52,80,144.5,0.239583,Sixteenth,E3
936,Left,1,60,80,144.75,0.239583,Sixteenth,C4
938,Right,0,64,80,145.0,0.489583,Eighth,E5_E4
937,Left,1,55,80,145.0,0.239583,Sixteenth,G3
940,Left,1,60,80,145.25,0.239583,Sixteenth,C4
941,Left,1,59,80,145.5,0.239583,Sixteenth,B3
942,Right,0,72,80,145.5,0.489583,Eighth,C5
943,Left,1,60,80,145.75,0.239583,Sixteenth,C4
944,Left,1,58,80,146.0,0.239583,Sixteenth,A#3
945,Right,0,62,80,146.0,0.489583,Eighth,D5_D4
947,Left,1,60,80,146.25,0.239583,Sixteenth,C4
950,Left,1,55,80,146.5,0.239583,Sixteenth,G3
948,Right,0,64,80,146.5,0.489583,Eighth,E5_E4
951,Left,1,60,80,146.75,0.239583,Sixteenth,C4
954,Left,1,56,80,147.0,0.239583,Sixteenth,G#3
952,Right,0,65,80,147.0,0.489583,Eighth,F5_F4
955,Left,1,60,80,147.25,0.239583,Sixteenth,C4
956,Left,1,53,80,147.5,0.239583,Sixteenth,F3
957,Right,0,68,80,147.5,0.489583,Eighth,G#5_G#4
959,Left,1,60,80,147.75,0.239583,Sixteenth,C4
961,Right,0,72,80,148.0,0.239583,Sixteenth,C5
960,Left,1,68,80,148.0,0.489583,Eighth,G#4
962,Right,0,82,80,148.25,0.239583,Sixteenth,A#5
963,Left,1,65,80,148.5,0.489583,Eighth,F4
964,Right,0,74,80,148.5,0.239583,Sixteenth,D5
965,Right,0,82,80,148.75,0.239583,Sixteenth,A#5
966,Right,0,77,80,149.0,0.239583,Sixteenth,F5
967,Left,1,62,80,149.0,0.489583,Eighth,D4
968,Right,0,82,80,149.25,0.239583,Sixteenth,A#5
969,Left,1,58,80,149.5,0.489583,Eighth,A#3
970,Right,0,81,80,149.5,0.239583,Sixteenth,A5
971,Right,0,82,80,149.75,0.239583,Sixteenth,A#5
973,Left,1,60,80,150.0,0.489583,Eighth,C4
972,Right,0,80,80,150.0,0.239583,Sixteenth,G#5
974,Right,0,82,80,150.25,0.239583,Sixteenth,A#5
975,Left,1,62,80,150.5,0.489583,Eighth,D4
976,Right,0,77,80,150.5,0.239583,Sixteenth,F5
977,Right,0,82,80,150.75,0.239583,Sixteenth,A#5
978,Left,1,63,80,151.0,0.489583,Eighth,D#4
979,Right,0,79,80,151.0,0.239583,Sixteenth,G5
980,Right,0,82,80,151.25,0.239583,Sixteenth,A#5
982,Right,0,75,80,151.5,0.239583,Sixteenth,D#5
981,Left,1,67,80,151.5,0.489583,Eighth,G4
983,Right,0,82,80,151.75,0.239583,Sixteenth,A#5
984,Left,1,39,80,152.0,0.239583,Sixteenth,D#2
985,Right,0,85,80,152.0,0.489583,Eighth,C#6_C#5
987,Left,1,51,81,152.25,0.239583,Sixteenth,D#3
988,Left,1,43,83,152.5,0.239583,Sixteenth,G2
989,Right,0,70,83,152.5,0.489583,Eighth,A#5_A#4
991,Left,1,51,84,152.75,0.239583,Sixteenth,D#3
993,Left,1,46,86,153.0,0.239583,Sixteenth,A#2
992,Right,0,67,86,153.0,0.489583,Eighth,G5_G4
995,Left,1,51,87,153.25,0.239583,Sixteenth,D#3
997,Left,1,50,89,153.5,0.239583,Sixteenth,D3
996,Right,0,75,89,153.5,0.489583,Eighth,D#5_D#4
999,Left,1,51,90,153.75,0.239583,Sixteenth,D#3
1002,Left,1,49,92,154.0,0.239583,Sixteenth,C#3
1000,Right,0,65,92,154.0,0.489583,Eighth,F5_F4
1003,Left,1,51,93,154.25,0.239583,Sixteenth,D#3
1004,Right,0,79,95,154.5,0.489583,Eighth,G5_G4
1006,Left,1,46,95,154.5,0.239583,Sixteenth,A#2
1007,Left,1,51,96,154.75,0.239583,Sixteenth,D#3
1010,Left,1,48,98,155.0,0.239583,Sixteenth,C3
1008,Right,0,80,98,155.0,0.489583,Eighth,G#5_G#4
1011,Left,1,51,99,155.25,0.239583,Sixteenth,D#3
1013,Right,0,75,110,155.5,0.239583,Sixteenth,G#5_D#5_C6
1012,Left,1,44,110,155.5,0.239583,Sixteenth,G#2
1017,Right,0,87,110,155.75,0.239583,Sixteenth,D#6
1016,Left,1,56,110,155.75,0.239583,Sixteenth,G#3
1018,Right,0,80,110,156.0,0.239583,Sixteenth,G#5_D#5_C6
1021,Left,1,43,110,156.0,0.239583,Sixteenth,G2
1022,Right,0,87,110,156.25,0.239583,Sixteenth,D#6
1023,Left,1,55,110,156.25,0.239583,Sixteenth,G3
1025,Left,1,44,110,156.5,0.239583,Sixteenth,G#2
1024,Right,0,80,110,156.5,0.239583,Sixteenth,G#5_D#5_C6
1029,Left,1,56,110,156.75,0.239583,Sixteenth,G#3
1028,Right,0,87,110,156.75,0.239583,Sixteenth,D#6
1031,Right,0,75,110,157.0,0.239583,Sixteenth,D#5_C6
1030,Left,1,41,110,157.0,0.239583,Sixteenth,F2
1033,Right,0,87,110,157.25,0.239583,Sixteenth,D#6
1034,Left,1,53,110,157.25,0.239583,Sixteenth,F3
1036,Right,0,73,110,157.5,0.239583,Sixteenth,C#5_A#5
1035,Left,1,37,110,157.5,0.239583,Sixteenth,C#2
1038,Right,0,85,110,157.75,0.239583,Sixteenth,C#6
1039,Left,1,49,110,157.75,0.239583,Sixteenth,C#3
1042,Left,1,39,110,158.0,0.239583,Sixteenth,D#2
1040,Right,0,80,110,158.0,0.239583,Sixteenth,G#5_C5
1043,Right,0,84,110,158.25,0.239583,Sixteenth,C6
1044,Left,1,51,110,158.25,0.239583,Sixteenth,D#3
1047,Left,1,39,110,158.5,0.239583,Sixteenth,D#2
1045,Right,0,70,110,158.5,0.239583,Sixteenth,G5_A#4
1049,Right,0,82,110,158.75,0.239583,Sixteenth,A#5
1048,Left,1,51,110,158.75,0.239583,Sixteenth,D#3
1052,Left,1,34,110,159.0,0.489583,Eighth,A#1
1050,Right,0,68,110,159.0,0.489583,Eighth,G#5_G#4
1053,Left,1,44,80,159.5,0.489583,Eighth,G#2
1054,Right,0,60,80,160.0,0.239583,Sixteenth,C4
1055,Left,1,36,80,160.0,0.239583,Sixteenth,C2
1056,Right,0,55,81,160.25,0.239583,Sixteenth,G3
1057,Left,1,43,81,160.25,0.239583,Sixteenth,G2
1058,Right,0,60,82,160.5,0.239583,Sixteenth,C4
1059,Left,1,36,82,160.5,0.239583,Sixteenth,C2
1061,Right,0,55,83,160.75,0.239583,Sixteenth,G3
1060,Left,1,43,83,160.75,0.239583,Sixteenth,G2
1063,Right,0,60,84,161.0,0.239583,Sixteenth,C4
1062,Left,1,36,84,161.0,0.239583,Sixteenth,C2
1064,Right,0,55,85,161.25,0.239583,Sixteenth,G3
1065,Left,1,43,85,161.25,0.239583,Sixteenth,G2
1067,Left,1,36,86,161.5,0.239583,Sixteenth,C2
1066,Right,0,62,86,161.5,0.239583,Sixteenth,D4
1068,Right,0,59,87,161.75,0.239583,Sixteenth,B3
1069,Left,1,43,87,161.75,0.239583,Sixteenth,G2
1071,Left,1,36,88,162.0,0.239583,Sixteenth,C2
1070,Right,0,63,88,162.0,0.239583,Sixteenth,D#4
1073,Left,1,43,89,162.25,0.239583,Sixteenth,G2
1072,Right,0,60,89,162.25,0.239583,Sixteenth,C4
1075,Left,1,36,90,162.5,0.239583,Sixteenth,C2
1074,Right,0,65,90,162.5,0.239583,Sixteenth,F4
1077,Left,1,43,91,162.75,0.239583,Sixteenth,G2
1076,Right,0,62,91,162.75,0.239583,Sixteenth,D4
1078,Left,1,36,92,163.0,0.239583,Sixteenth,C2
1079,Right,0,67,92,163.0,0.239583,Sixteenth,G4
1081,Left,1,43,93,163.25,0.239583,Sixteenth,G2
1080,Right,0,63,93,163.25,0.239583,Sixteenth,D#4
1083,Left,1,36,94,163.5,0.239583,Sixteenth,C2
1082,Right,0,71,94,163.5,0.239583,Sixteenth,B4
1085,Right,0,67,96,163.75,0.239583,Sixteenth,G4
1084,Left,1,43,96,163.75,0.239583,Sixteenth,G2
1086,Left,1,36,97,164.0,0.239583,Sixteenth,C2
1087,Right,0,72,97,164.0,0.239583,Sixteenth,C5
1089,Left,1,43,98,164.25,0.239583,Sixteenth,G2
1088,Right,0,69,98,164.25,0.239583,Sixteenth,A4
1091,Left,1,36,99,164.5,0.239583,Sixteenth,C2
1090,Right,0,74,99,164.5,0.239583,Sixteenth,D5
1092,Left,1,43,100,164.75,0.239583,Sixteenth,G2
1093,Right,0,71,100,164.75,0.239583,Sixteenth,B4
1095,Right,0,75,101,165.0,0.239583,Sixteenth,D#5
1094,Left,1,36,101,165.0,0.239583,Sixteenth,C2
1097,Right,0,72,102,165.25,0.239583,Sixteenth,C5
1096,Left,1,43,102,165.25,0.239583,Sixteenth,G2
1099,Right,0,77,103,165.5,0.239583,Sixteenth,F5
1098,Left,1,36,103,165.5,0.239583,Sixteenth,C2
1101,Right,0,74,104,165.75,0.239583,Sixteenth,D5
1100,Left,1,43,104,165.75,0.239583,Sixteenth,G2
1104,Left,1,36,105,166.0,0.239583,Sixteenth,C2
1102,Right,0,75,105,166.0,0.489583,Eighth,G5_D#5
1105,Left,1,43,106,166.25,0.239583,Sixteenth,G2
1107,Right,0,71,107,166.5,0.489583,Eighth,D5_B5_B4
1106,Left,1,31,107,166.5,0.239583,Sixteenth,G1
1110,Left,1,43,108,166.75,0.239583,Sixteenth,G2
1111,Right,0,72,109,167.0,0.489583,Eighth,D#5_C6_C5
1114,Left,1,36,109,167.0,0.239583,Sixteenth,C2
1115,Left,1,43,80,167.25,0.239583,Sixteenth,G2
1116,Left,1,36,80,167.5,0.239583,Sixteenth,C2
1117,Left,1,43,81,167.75,0.239583,Sixteenth,G2
1118,Right,0,60,82,168.0,0.239583,Sixteenth,C4
1119,Left,1,36,82,168.0,0.239583,Sixteenth,C2
1121,Left,1,43,83,168.25,0.239583,Sixteenth,G2
1120,Right,0,55,83,168.25,0.239583,Sixteenth,G3
1122,Left,1,36,84,168.5,0.239583,Sixteenth,C2
1123,Right,0,60,84,168.5,0.239583,Sixteenth,C4
1124,Right,0,55,85,168.75,0.239583,Sixteenth,G3
1125,Left,1,43,85,168.75,0.239583,Sixteenth,G2
1126,Left,1,36,86,169.0,0.239583,Sixteenth,C2
1127,Right,0,60,86,169.0,0.239583,Sixteenth,C4
1129,Left,1,43,87,169.25,0.239583,Sixteenth,G2
1128,Right,0,55,87,169.25,0.239583,Sixteenth,G3
1131,Left,1,36,88,169.5,0.239583,Sixteenth,C2
1130,Right,0,62,88,169.5,0.239583,Sixteenth,D4
1132,Left,1,43,89,169.75,0.239583,Sixteenth,G2
1133,Right,0,59,89,169.75,0.239583,Sixteenth,B3
1134,Right,0,63,90,170.0,0.239583,Sixteenth,D#4
1135,Left,1,36,90,170.0,0.239583,Sixteenth,C2
1136,Right,0,60,91,170.25,0.239583,Sixteenth,C4
1137,Left,1,43,91,170.25,0.239583,Sixteenth,G2
1138,Right,0,65,92,170.5,0.239583,Sixteenth,F4
1139,Left,1,36,92,170.5,0.239583,Sixteenth,C2
1140,Right,0,62,93,170.75,0.239583,Sixteenth,D4
1141,Left,1,43,93,170.75,0.239583,Sixteenth,G2
1143,Left,1,36,94,171.0,0.239583,Sixteenth,C2
1142,Right,0,67,94,171.0,0.239583,Sixteenth,G4
1145,Left,1,43,95,171.25,0.239583,Sixteenth,G2
1144,Right,0,63,95,171.25,0.239583,Sixteenth,D#4
1146,Right,0,71,96,171.5,0.239583,Sixteenth,B4
1147,Left,1,36,96,171.5,0.239583,Sixteenth,C2
1148,Right,0,67,97,171.75,0.239583,Sixteenth,G4
1149,Left,1,43,97,171.75,0.239583,Sixteenth,G2
1150,Right,0,72,98,172.0,0.239583,Sixteenth,C5
1151,Left,1,36,98,172.0,0.239583,Sixteenth,C2
1153,Right,0,69,99,172.25,0.239583,Sixteenth,A4
1152,Left,1,43,99,172.25,0.239583,Sixteenth,G2
1155,Left,1,36,100,172.5,0.239583,Sixteenth,C2
1154,Right,0,74,100,172.5,0.239583,Sixteenth,D5
1156,Left,1,43,101,172.75,0.239583,Sixteenth,G2
1157,Right,0,71,101,172.75,0.239583,Sixteenth,B4
1158,Left,1,36,102,173.0,0.239583,Sixteenth,C2
1159,Right,0,75,102,173.0,0.239583,Sixteenth,D#5
1160,Left,1,43,103,173.25,0.239583,Sixteenth,G2
1161,Right,0,72,103,173.25,0.239583,Sixteenth,C5
1162,Left,1,36,104,173.5,0.239583,Sixteenth,C2
1163,Right,0,75,104,173.5,0.239583,Sixteenth,D#5
1164,Right,0,72,105,173.75,0.239583,Sixteenth,C5
1165,Left,1,43,105,173.75,0.239583,Sixteenth,G2
1166,Right,0,70,106,174.0,0.489583,Eighth,D5_A#4
1168,Left,1,38,106,174.0,0.239583,Sixteenth,D2
1169,Left,1,43,107,174.25,0.239583,Sixteenth,G2
1173,Left,1,38,108,174.5,0.239583,Sixteenth,D2
1170,Right,0,78,108,174.5,0.489583,Eighth,F#5_F#4_A4
1174,Left,1,50,108,174.75,0.239583,Sixteenth,D3
1175,Right,0,79,109,175.0,0.489583,Eighth,G5_G4_A#4
1176,Left,1,31,109,175.0,0.239583,Sixteenth,G1
1179,Left,1,43,80,175.25,0.239583,Sixteenth,G2
1180,Left,1,31,80,175.5,0.239583,Sixteenth,G1
1181,Left,1,43,81,175.75,0.239583,Sixteenth,G2
1183,Left,1,36,82,176.0,0.239583,Sixteenth,C2
1182,Right,0,60,82,176.0,0.239583,Sixteenth,C4
1184,Right,0,55,83,176.25,0.239583,Sixteenth,G3
1185,Left,1,43,83,176.25,0.239583,Sixteenth,G2
1186,Left,1,36,84,176.5,0.239583,Sixteenth,C2
1187,Right,0,60,84,176.5,0.239583,Sixteenth,C4
1188,Left,1,43,85,176.75,0.239583,Sixteenth,G2
1189,Right,0,55,85,176.75,0.239583,Sixteenth,G3
1190,Right,0,60,86,177.0,0.239583,Sixteenth,C4
1191,Left,1,36,86,177.0,0.239583,Sixteenth,C2
1192,Right,0,55,87,177.25,0.239583,Sixteenth,G3
1193,Left,1,43,87,177.25,0.239583,Sixteenth,G2
1194,Left,1,36,88,177.5,0.239583,Sixteenth,C2
1195,Right,0,62,88,177.5,0.239583,Sixteenth,D4
1197,Left,1,43,89,177.75,0.239583,Sixteenth,G2
1196,Right,0,59,89,177.75,0.239583,Sixteenth,B3
1198,Right,0,63,90,178.0,0.239583,Sixteenth,D#4
1199,Left,1,36,90,178.0,0.239583,Sixteenth,C2
1201,Left,1,43,91,178.25,0.239583,Sixteenth,G2
1200,Right,0,60,91,178.25,0.239583,Sixteenth,C4
1203,Left,1,36,92,178.5,0.239583,Sixteenth,C2
1202,Right,0,65,92,178.5,0.239583,Sixteenth,F4
1204,Left,1,43,93,178.75,0.239583,Sixteenth,G2
1205,Right,0,62,93,178.75,0.239583,Sixteenth,D4
1206,Right,0,67,94,179.0,0.239583,Sixteenth,G4
1207,Left,1,36,94,179.0,0.239583,Sixteenth,C2
1209,Left,1,43,95,179.25,0.239583,Sixteenth,G2
1208,Right,0,63,95,179.25,0.239583,Sixteenth,D#4
1210,Right,0,71,96,179.5,0.239583,Sixteenth,B4
1211,Left,1,36,96,179.5,0.239583,Sixteenth,C2
1213,Left,1,43,97,179.75,0.239583,Sixteenth,G2
1212,Right,0,67,97,179.75,0.239583,Sixteenth,G4
1214,Right,0,72,98,180.0,0.239583,Sixteenth,C5
1215,Left,1,36,98,180.0,0.239583,Sixteenth,C2
1216,Right,0,69,99,180.25,0.239583,Sixteenth,A4
1217,Left,1,43,99,180.25,0.239583,Sixteenth,G2
1219,Left,1,36,100,180.5,0.239583,Sixteenth,C2
1218,Right,0,74,100,180.5,0.239583,Sixteenth,D5
1221,Left,1,43,101,180.75,0.239583,Sixteenth,G2
1220,Right,0,71,101,180.75,0.239583,Sixteenth,B4
1223,Left,1,36,102,181.0,0.239583,Sixteenth,C2
1222,Right,0,75,102,181.0,0.239583,Sixteenth,D#5
1224,Left,1,43,103,181.25,0.239583,Sixteenth,G2
1225,Right,0,72,103,181.25,0.239583,Sixteenth,C5
1227,Left,1,36,104,181.5,0.239583,Sixteenth,C2
1226,Right,0,77,104,181.5,0.239583,Sixteenth,F5
1228,Left,1,43,105,181.75,0.239583,Sixteenth,G2
1229,Right,0,74,105,181.75,0.239583,Sixteenth,D5
1230,Left,1,36,106,182.0,0.239583,Sixteenth,C2
1231,Right,0,79,106,182.0,0.489583,Eighth,G5_D#5
1233,Left,1,43,107,182.25,0.239583,Sixteenth,G2
1234,Left,1,31,108,182.5,0.239583,Sixteenth,G1
1235,Right,0,71,108,182.5,0.489583,Eighth,D5_B5_B4
1238,Left,1,43,108,182.75,0.239583,Sixteenth,G2
1239,Right,0,84,109,183.0,0.489583,Eighth,D#5_C6_C5
1242,Left,1,36,109,183.0,0.239583,Sixteenth,C2
1243,Left,1,43,80,183.25,0.239583,Sixteenth,G2
1244,Left,1,36,80,183.5,0.239583,Sixteenth,C2
1245,Left,1,43,81,183.75,0.239583,Sixteenth,G2
1247,Right,0,60,82,184.0,0.239583,Sixteenth,C4
1246,Left,1,36,82,184.0,0.239583,Sixteenth,C2
1249,Right,0,55,83,184.25,0.239583,Sixteenth,G3
1248,Left,1,43,83,184.25,0.239583,Sixteenth,G2
1251,Left,1,36,84,184.5,0.239583,Sixteenth,C2
1250,Right,0,60,84,184.5,0.239583,Sixteenth,C4
1253,Right,0,55,85,184.75,0.239583,Sixteenth,G3
1252,Left,1,43,85,184.75,0.239583,Sixteenth,G2
1255,Right,0,60,86,185.0,0.239583,Sixteenth,C4
1254,Left,1,36,86,185.0,0.239583,Sixteenth,C2
1257,Left,1,43,87,185.25,0.239583,Sixteenth,G2
1256,Right,0,55,87,185.25,0.239583,Sixteenth,G3
1258,Left,1,36,88,185.5,0.239583,Sixteenth,C2
1259,Right,0,62,88,185.5,0.239583,Sixteenth,D4
1260,Right,0,59,89,185.75,0.239583,Sixteenth,B3
1261,Left,1,43,89,185.75,0.239583,Sixteenth,G2
1263,Left,1,36,90,186.0,0.239583,Sixteenth,C2
1262,Right,0,63,90,186.0,0.239583,Sixteenth,D#4
1265,Left,1,43,91,186.25,0.239583,Sixteenth,G2
1264,Right,0,60,91,186.25,0.239583,Sixteenth,C4
1266,Right,0,65,92,186.5,0.239583,Sixteenth,F4
1267,Left,1,36,92,186.5,0.239583,Sixteenth,C2
1268,Right,0,62,93,186.75,0.239583,Sixteenth,D4
1269,Left,1,43,93,186.75,0.239583,Sixteenth,G2
1270,Right,0,67,94,187.0,0.239583,Sixteenth,G4
1271,Left,1,36,94,187.0,0.239583,Sixteenth,C2
1272,Right,0,63,95,187.25,0.239583,Sixteenth,D#4
1273,Left,1,43,95,187.25,0.239583,Sixteenth,G2
1274,Right,0,71,96,187.5,0.239583,Sixteenth,B4
1275,Left,1,36,96,187.5,0.239583,Sixteenth,C2
1276,Left,1,43,97,187.75,0.239583,Sixteenth,G2
1277,Right,0,67,97,187.75,0.239583,Sixteenth,G4
1278,Right,0,72,98,188.0,0.239583,Sixteenth,C5
1279,Left,1,36,98,188.0,0.239583,Sixteenth,C2
1280,Right,0,69,99,188.25,0.239583,Sixteenth,A4
1281,Left,1,43,99,188.25,0.239583,Sixteenth,G2
1282,Right,0,74,100,188.5,0.239583,Sixteenth,D5
1283,Left,1,36,100,188.5,0.239583,Sixteenth,C2
1285,Right,0,71,101,188.75,0.239583,Sixteenth,B4
1284,Left,1,43,101,188.75,0.239583,Sixteenth,G2
1287,Right,0,75,102,189.0,0.239583,Sixteenth,D#5
1286,Left,1,36,102,189.0,0.239583,Sixteenth,C2
1289,Right,0,72,103,189.25,0.239583,Sixteenth,C5
1288,Left,1,43,103,189.25,0.239583,Sixteenth,G2
1290,Right,0,75,104,189.5,0.239583,Sixteenth,D#5
1291,Left,1,36,104,189.5,0.239583,Sixteenth,C2
1292,Right,0,72,105,189.75,0.239583,Sixteenth,C5
1293,Left,1,43,105,189.75,0.239583,Sixteenth,G2
1294,Right,0,70,106,190.0,0.489583,Eighth,D5_A#4
1295,Left,1,38,106,190.0,0.239583,Sixteenth,D2
1297,Left,1,43,107,190.25,0.239583,Sixteenth,G2
1299,Right,0,66,108,190.5,0.489583,Eighth,F#5_F#4_A4
1298,Left,1,38,108,190.5,0.239583,Sixteenth,D2
1302,Left,1,50,108,190.75,0.239583,Sixteenth,D3
1303,Right,0,67,109,191.0,0.489583,Eighth,G5_G4_A#4
1306,Left,1,31,109,191.0,0.239583,Sixteenth,G1
1307,Left,1,43,80,191.25,0.239583,Sixteenth,G2
1308,Left,1,31,80,191.5,0.239583,Sixteenth,G1
1309,Left,1,43,80,191.75,0.239583,Sixteenth,G2
1311,Left,1,43,80,192.0,0.239583,Sixteenth,G2
1310,Right,0,70,80,192.0,0.239583,Sixteenth,A#4
1313,Right,0,67,80,192.25,0.239583,Sixteenth,G4
1312,Left,1,50,80,192.25,0.239583,Sixteenth,D3
1315,Left,1,43,80,192.5,0.239583,Sixteenth,G2
1314,Right,0,70,80,192.5,0.239583,Sixteenth,A#4
1317,Left,1,50,80,192.75,0.239583,Sixteenth,D3
1316,Right,0,67,80,192.75,0.239583,Sixteenth,G4
1319,Left,1,43,80,193.0,0.239583,Sixteenth,G2
1318,Right,0,70,80,193.0,0.239583,Sixteenth,A#4
1321,Right,0,67,80,193.25,0.239583,Sixteenth,G4
1320,Left,1,50,80,193.25,0.239583,Sixteenth,D3
1322,Right,0,72,80,193.5,0.239583,Sixteenth,C5
1323,Left,1,43,80,193.5,0.239583,Sixteenth,G2
1324,Right,0,69,80,193.75,0.239583,Sixteenth,A4
1325,Left,1,50,80,193.75,0.239583,Sixteenth,D3
1327,Right,0,74,95,194.0,0.239583,Sixteenth,D5
1326,Left,1,43,80,194.0,0.239583,Sixteenth,G2
1329,Right,0,70,93,194.25,0.239583,Sixteenth,A#4
1328,Left,1,50,80,194.25,0.239583,Sixteenth,D3
1330,Right,0,78,110,194.5,0.489583,Eighth,F#5_F#4_A4
1332,Left,1,38,110,194.5,0.239583,Sixteenth,D2
1334,Left,1,50,110,194.75,0.239583,Sixteenth,D3
1338,Left,1,43,110,195.0,0.239583,Sixteenth,G2
1335,Right,0,70,110,195.0,0.489583,Eighth,G5_G4_D5_A#4
1340,Left,1,50,80,195.25,0.239583,Sixteenth,D3
1341,Left,1,43,80,195.5,0.239583,Sixteenth,G2
1342,Left,1,50,80,195.75,0.239583,Sixteenth,D3
1344,Left,1,43,80,196.0,0.239583,Sixteenth,G2
1343,Right,0,70,80,196.0,0.239583,Sixteenth,A#4
1346,Left,1,50,80,196.25,0.239583,Sixteenth,D3
1345,Right,0,67,80,196.25,0.239583,Sixteenth,G4
1347,Right,0,70,80,196.5,0.239583,Sixteenth,A#4
1348,Left,1,41,80,196.5,0.239583,Sixteenth,F2
1350,Left,1,50,80,196.75,0.239583,Sixteenth,D3
1349,Right,0,67,80,196.75,0.239583,Sixteenth,G4
1352,Right,0,70,80,197.0,0.239583,Sixteenth,A#4
1351,Left,1,40,80,197.0,0.239583,Sixteenth,E2
1353,Right,0,67,80,197.25,0.239583,Sixteenth,G4
1354,Left,1,48,80,197.25,0.239583,Sixteenth,C3
1356,Right,0,70,80,197.5,0.239583,Sixteenth,A#4
1355,Left,1,41,80,197.5,0.239583,Sixteenth,F2
1357,Right,0,67,80,197.75,0.239583,Sixteenth,G4
1358,Left,1,49,80,197.75,0.239583,Sixteenth,C#3
1359,Right,0,70,94,198.0,0.239583,Sixteenth,A#4
1360,Left,1,39,80,198.0,0.239583,Sixteenth,D#2
1362,Right,0,67,93,198.25,0.239583,Sixteenth,G4
1361,Left,1,48,80,198.25,0.239583,Sixteenth,C3
1363,Right,0,76,110,198.5,0.489583,Eighth,G4_E5_A#4
1366,Left,1,36,110,198.5,0.239583,Sixteenth,C2
1367,Left,1,48,110,198.75,0.239583,Sixteenth,C3
1371,Left,1,41,110,199.0,0.239583,Sixteenth,F2
1368,Right,0,65,110,199.0,0.489583,Eighth,G#4_F5_F4
1372,Left,1,48,80,199.25,0.239583,Sixteenth,C3
1373,Left,1,41,80,199.5,0.239583,Sixteenth,F2
1374,Left,1,48,80,199.75,0.239583,Sixteenth,C3
1376,Right,0,68,80,200.0,0.239583,Sixteenth,G#4
1375,Left,1,41,80,200.0,0.239583,Sixteenth,F2
1377,Left,1,48,80,200.25,0.239583,Sixteenth,C3
1378,Right,0,65,80,200.25,0.239583,Sixteenth,F4
1380,Right,0,68,80,200.5,0.239583,Sixteenth,G#4
1379,Left,1,41,80,200.5,0.239583,Sixteenth,F2
1382,Right,0,65,80,200.75,0.239583,Sixteenth,F4
1381,Left,1,48,80,200.75,0.239583,Sixteenth,C3
1384,Left,1,41,80,201.0,0.239583,Sixteenth,F2
1383,Right,0,68,80,201.0,0.239583,Sixteenth,G#4
1386,Right,0,65,80,201.25,0.239583,Sixteenth,F4
1385,Left,1,48,80,201.25,0.239583,Sixteenth,C3
1388,Right,0,70,80,201.5,0.239583,Sixteenth,A#4
1387,Left,1,41,80,201.5,0.239583,Sixteenth,F2
1389,Left,1,48,80,201.75,0.239583,Sixteenth,C3
1390,Right,0,67,80,201.75,0.239583,Sixteenth,G4
1392,Right,0,72,96,202.0,0.239583,Sixteenth,C5
1391,Left,1,41,80,202.0,0.239583,Sixteenth,F2
1393,Right,0,68,97,202.25,0.239583,Sixteenth,G#4
1394,Left,1,48,80,202.25,0.239583,Sixteenth,C3
1395,Left,1,36,110,202.5,0.239583,Sixteenth,C2
1396,Right,0,67,110,202.5,0.489583,Eighth,G4_E5_A#4
1399,Left,1,48,110,202.75,0.239583,Sixteenth,C3
1400,Right,0,68,110,203.0,0.489583,Eighth,G#4_F5_F4
1403,Left,1,41,110,203.0,0.239583,Sixteenth,F2
1404,Left,1,48,80,203.25,0.239583,Sixteenth,C3
1405,Left,1,41,80,203.5,0.239583,Sixteenth,F2
1406,Left,1,48,80,203.75,0.239583,Sixteenth,C3
1408,Left,1,41,80,204.0,0.239583,Sixteenth,F2
1407,Right,0,68,80,204.0,0.239583,Sixteenth,G#4
1410,Left,1,48,80,204.25,0.239583,Sixteenth,C3
1409,Right,0,65,80,204.25,0.239583,Sixteenth,F4
1412,Right,0,68,80,204.5,0.239583,Sixteenth,G#4
1411,Left,1,39,80,204.5,0.239583,Sixteenth,D#2
1414,Right,0,65,80,204.75,0.239583,Sixteenth,F4
1413,Left,1,47,80,204.75,0.239583,Sixteenth,B2
1416,Right,0,68,80,205.0,0.239583,Sixteenth,G#4
1415,Left,1,38,80,205.0,0.239583,Sixteenth,D2
1418,Right,0,65,80,205.25,0.239583,Sixteenth,F4
1417,Left,1,46,80,205.25,0.239583,Sixteenth,A#2
1420,Right,0,68,80,205.5,0.239583,Sixteenth,G#4
1419,Left,1,39,80,205.5,0.239583,Sixteenth,D#2
1422,Right,0,65,80,205.75,0.239583,Sixteenth,F4
1421,Left,1,47,80,205.75,0.239583,Sixteenth,B2
1424,Right,0,68,98,206.0,0.239583,Sixteenth,G#4
1423,Left,1,38,80,206.0,0.239583,Sixteenth,D2
1425,Right,0,65,94,206.25,0.239583,Sixteenth,F4
1426,Left,1,46,80,206.25,0.239583,Sixteenth,A#2
1430,Left,1,34,110,206.5,0.239583,Sixteenth,A#1
1427,Right,0,74,110,206.5,0.489583,Eighth,G#4_F4_D5
1431,Left,1,46,110,206.75,0.239583,Sixteenth,A#2
1433,Left,1,39,110,207.0,0.239583,Sixteenth,D#2
1432,Right,0,63,110,207.0,0.489583,Eighth,G4_D#5_D#4
1436,Left,1,46,80,207.25,0.239583,Sixteenth,A#2
1437,Left,1,39,80,207.5,0.239583,Sixteenth,D#2
1438,Left,1,46,80,207.75,0.239583,Sixteenth,A#2
1439,Right,0,67,80,208.0,0.239583,Sixteenth,G4
1440,Right,0,63,80,208.25,0.239583,Sixteenth,D#4
1441,Right,0,67,80,208.5,0.239583,Sixteenth,G4
1442,Right,0,63,80,208.75,0.239583,Sixteenth,D#4
1443,Right,0,67,80,209.0,0.239583,Sixteenth,G4
1444,Right,0,63,80,209.25,0.239583,Sixteenth,D#4
1445,Right,0,68,80,209.5,0.239583,Sixteenth,G#4
1446,Right,0,65,80,209.75,0.239583,Sixteenth,F4
1447,Right,0,69,80,210.0,0.239583,Sixteenth,A4
1448,Right,0,66,80,210.25,0.239583,Sixteenth,F#4
1449,Right,0,70,80,210.5,0.239583,Sixteenth,A#4
1450,Right,0,67,80,210.75,0.239583,Sixteenth,G4
1451,Right,0,71,80,211.0,0.239583,Sixteenth,B4
1452,Right,0,68,80,211.25,0.239583,Sixteenth,G#4
1453,Right,0,72,80,211.5,0.239583,Sixteenth,C5
1454,Right,0,69,80,211.75,0.239583,Sixteenth,A4
1455,Right,0,73,80,212.0,0.239583,Sixteenth,C#5
1456,Right,0,70,80,212.25,0.239583,Sixteenth,A#4
1457,Right,0,74,80,212.5,0.239583,Sixteenth,D5
1458,Right,0,71,80,212.75,0.239583,Sixteenth,B4
1459,Right,0,75,80,213.0,0.239583,Sixteenth,D#5
1460,Right,0,72,80,213.25,0.239583,Sixteenth,C5
1461,Right,0,74,80,213.5,0.239583,Sixteenth,D5
1462,Right,0,71,80,213.75,0.239583,Sixteenth,B4
1463,Right,0,75,80,214.0,0.239583,Sixteenth,D#5
1464,Right,0,72,80,214.25,0.239583,Sixteenth,C5
1465,Right,0,74,80,214.5,0.239583,Sixteenth,D5
1466,Right,0,71,80,214.75,0.239583,Sixteenth,B4
1467,Right,0,75,80,215.0,0.239583,Sixteenth,D#5
1468,Right,0,72,80,215.25,0.239583,Sixteenth,C5
1469,Right,0,74,80,215.5,0.239583,Sixteenth,D5
1470,Right,0,71,80,215.75,0.239583,Sixteenth,B4
1471,Right,0,75,80,216.0,0.239583,Sixteenth,D#5
1472,Right,0,72,80,216.25,0.239583,Sixteenth,C5
1473,Right,0,77,80,216.5,0.239583,Sixteenth,F5
1474,Right,0,69,80,216.75,0.239583,Sixteenth,A4
1475,Right,0,73,80,217.0,0.239583,Sixteenth,C#5
1476,Right,0,70,80,217.25,0.239583,Sixteenth,A#4
1477,Right,0,75,80,217.5,0.239583,Sixteenth,D#5
1478,Right,0,67,80,217.75,0.239583,Sixteenth,G4
1479,Right,0,72,80,218.0,0.239583,Sixteenth,C5
1480,Right,0,68,80,218.25,0.239583,Sixteenth,G#4
1481,Right,0,73,80,218.5,0.239583,Sixteenth,C#5
1482,Right,0,65,80,218.75,0.239583,Sixteenth,F4
1483,Right,0,70,80,219.0,0.239583,Sixteenth,A#4
1484,Right,0,67,80,219.25,0.239583,Sixteenth,G4
1485,Right,0,72,80,219.5,0.239583,Sixteenth,C5
1486,Right,0,64,80,219.75,0.239583,Sixteenth,E4
1487,Right,0,68,80,220.0,0.239583,Sixteenth,G#4
1488,Right,0,65,80,220.25,0.239583,Sixteenth,F4
1489,Right,0,70,80,220.5,0.239583,Sixteenth,A#4
1490,Right,0,62,80,220.75,0.239583,Sixteenth,D4
1491,Right,0,67,80,221.0,0.239583,Sixteenth,G4
1492,Left,1,51,80,221.0,3.989583,Whole,D#3
1493,Right,0,63,80,221.25,0.239583,Sixteenth,D#4
1494,Right,0,62,80,221.5,0.239583,Sixteenth,D4
1495,Right,0,63,80,221.75,0.239583,Sixteenth,D#4
1497,Right,0,67,80,222.0,0.239583,Sixteenth,G4
1496,Left,1,61,80,222.0,0.489583,Eighth,C#4
1498,Right,0,63,80,222.25,0.239583,Sixteenth,D#4
1500,Left,1,60,80,222.5,0.489583,Eighth,C4
1499,Right,0,68,80,222.5,0.239583,Sixteenth,G#4
1501,Right,0,63,80,222.75,0.239583,Sixteenth,D#4
1502,Right,0,70,80,223.0,0.239583,Sixteenth,A#4
1503,Left,1,58,80,223.0,0.489583,Eighth,A#3
1504,Right,0,63,80,223.25,0.239583,Sixteenth,D#4
1505,Right,0,72,80,223.5,0.239583,Sixteenth,C5
1506,Left,1,56,80,223.5,0.489583,Eighth,G#3
1507,Right,0,63,80,223.75,0.239583,Sixteenth,D#4
1508,Right,0,73,80,224.0,0.239583,Sixteenth,C#5
1509,Left,1,55,80,224.0,0.489583,Eighth,G3
1510,Right,0,63,80,224.25,0.239583,Sixteenth,D#4
1511,Right,0,74,80,224.5,0.239583,Sixteenth,D5
1512,Left,1,53,80,224.5,0.489583,Eighth,F3
1513,Right,0,63,80,224.75,0.239583,Sixteenth,D#4
1515,Right,0,75,80,225.0,0.239583,Sixteenth,D#5
1514,Left,1,51,80,225.0,0.489583,Eighth,D#3
1516,Right,0,63,80,225.25,0.239583,Sixteenth,D#4
1518,Right,0,67,80,225.5,0.239583,Sixteenth,G4_D#5
1517,Left,1,49,80,225.5,0.489583,Eighth,C#3
1520,Right,0,63,80,225.75,0.239583,Sixteenth,D#4
1521,Right,0,68,80,226.0,0.239583,Sixteenth,G#4_D#5
1523,Left,1,48,80,226.0,0.489583,Eighth,C3
1524,Right,0,63,80,226.25,0.239583,Sixteenth,D#4
1525,Right,0,72,80,226.5,0.239583,Sixteenth,G#4_D#5_C5
1527,Left,1,44,80,226.5,0.489583,Eighth,G#2
1529,Right,0,63,80,226.75,0.239583,Sixteenth,D#4
1532,Left,1,51,80,227.0,0.489583,Eighth,D#3
1530,Right,0,70,80,227.0,0.239583,Sixteenth,G4_D#5_A#4
1534,Right,0,63,80,227.25,0.239583,Sixteenth,D#4
1538,Left,1,39,80,227.5,0.489583,Eighth,D#2
1535,Right,0,67,80,227.5,0.239583,Sixteenth,G4_D#5_A#4
1539,Right,0,63,80,227.75,0.239583,Sixteenth,D#4
1540,Right,0,72,80,228.0,0.239583,Sixteenth,C5
1541,Left,1,63,80,228.0,0.239583,Sixteenth,D#4
1543,Left,1,60,80,228.25,0.239583,Sixteenth,C4
1542,Right,0,75,80,228.25,0.239583,Sixteenth,D#5
1545,Left,1,65,80,228.5,0.239583,Sixteenth,F4
1544,Right,0,69,80,228.5,0.239583,Sixteenth,A4
1546,Left,1,57,80,228.75,0.239583,Sixteenth,A3
1547,Right,0,77,80,228.75,0.239583,Sixteenth,F5
1549,Left,1,61,80,229.0,0.239583,Sixteenth,C#4
1548,Right,0,70,80,229.0,0.239583,Sixteenth,A#4
1550,Left,1,58,80,229.25,0.239583,Sixteenth,A#3
1551,Right,0,73,80,229.25,0.239583,Sixteenth,C#5
1553,Right,0,67,80,229.5,0.239583,Sixteenth,G4
1552,Left,1,63,80,229.5,0.239583,Sixteenth,D#4
1555,Right,0,75,80,229.75,0.239583,Sixteenth,D#5
1554,Left,1,55,80,229.75,0.239583,Sixteenth,G3
1557,Right,0,68,80,230.0,0.239583,Sixteenth,G#4
1556,Left,1,60,80,230.0,0.239583,Sixteenth,C4
1559,Right,0,72,80,230.25,0.239583,Sixteenth,C5
1558,Left,1,56,80,230.25,0.239583,Sixteenth,G#3
1560,Right,0,65,80,230.5,0.239583,Sixteenth,F4
1561,Left,1,61,80,230.5,0.239583,Sixteenth,C#4
1562,Right,0,73,80,230.75,0.239583,Sixteenth,C#5
1563,Left,1,53,80,230.75,0.239583,Sixteenth,F3
1564,Right,0,67,80,231.0,0.239583,Sixteenth,G4
1565,Left,1,58,80,231.0,0.239583,Sixteenth,A#3
1567,Left,1,55,80,231.25,0.239583,Sixteenth,G3
1566,Right,0,70,80,231.25,0.239583,Sixteenth,A#4
1568,Left,1,60,80,231.5,0.239583,Sixteenth,C4
1569,Right,0,64,80,231.5,0.239583,Sixteenth,E4
1571,Left,1,52,80,231.75,0.239583,Sixteenth,E3
1570,Right,0,72,80,231.75,0.239583,Sixteenth,C5
1573,Right,0,65,80,232.0,0.239583,Sixteenth,F4
1572,Left,1,56,80,232.0,0.239583,Sixteenth,G#3
1575,Left,1,53,80,232.25,0.239583,Sixteenth,F3
1574,Right,0,68,80,232.25,0.239583,Sixteenth,G#4
1576,Right,0,62,80,232.5,0.239583,Sixteenth,D4
1577,Left,1,58,80,232.5,0.239583,Sixteenth,A#3
1578,Left,1,50,80,232.75,0.239583,Sixteenth,D3
1579,Right,0,70,80,232.75,0.239583,Sixteenth,A#4
1580,Left,1,55,80,233.0,0.239583,Sixteenth,G3
1581,Right,0,63,80,233.0,0.489583,Eighth,D#4
1582,Left,1,51,80,233.25,0.239583,Sixteenth,D#3
1583,Left,1,50,80,233.5,0.239583,Sixteenth,D3
1584,Left,1,51,80,233.75,0.239583,Sixteenth,D#3
1586,Right,0,85,80,234.0,0.489583,Eighth,C#6_C#5
1585,Left,1,55,80,234.0,0.239583,Sixteenth,G3
1588,Left,1,51,80,234.25,0.239583,Sixteenth,D#3
1591,Left,1,56,80,234.5,0.239583,Sixteenth,G#3
1589,Right,0,72,80,234.5,0.489583,Eighth,C6_C5
1592,Left,1,51,80,234.75,0.239583,Sixteenth,D#3
1593,Left,1,58,80,235.0,0.239583,Sixteenth,A#3
1594,Right,0,82,80,235.0,0.489583,Eighth,A#5_A#4
1596,Left,1,51,80,235.25,0.239583,Sixteenth,D#3
1599,Left,1,60,80,235.5,0.239583,Sixteenth,C4
1597,Right,0,80,80,235.5,0.489583,Eighth,G#5_G#4
1600,Left,1,51,80,235.75,0.239583,Sixteenth,D#3
1603,Left,1,61,80,236.0,0.239583,Sixteenth,C#4
1601,Right,0,79,80,236.0,0.489583,Eighth,G5_G4
1604,Left,1,51,80,236.25,0.239583,Sixteenth,D#3
1607,Left,1,62,80,236.5,0.239583,Sixteenth,D4
1605,Right,0,65,80,236.5,0.489583,Eighth,F5_F4
1608,Left,1,51,80,236.75,0.239583,Sixteenth,D#3
1610,Left,1,63,80,237.0,0.239583,Sixteenth,D#4
1609,Right,0,75,80,237.0,0.489583,Eighth,D#5
1611,Left,1,51,80,237.25,0.239583,Sixteenth,D#3
1612,Right,0,68,80,237.5,0.489583,Eighth,G#4_D#5_C5
1615,Left,1,63,80,237.5,0.239583,Sixteenth,D#4
1616,Left,1,51,80,237.75,0.239583,Sixteenth,D#3
1617,Right,0,70,80,238.0,0.489583,Eighth,D#5_C#5_A#4
1619,Left,1,63,80,238.0,0.239583,Sixteenth,D#4
1621,Left,1,51,80,238.25,0.239583,Sixteenth,D#3
1625,Left,1,63,80,238.5,0.239583,Sixteenth,D#4
1622,Right,0,67,80,238.5,0.489583,Eighth,G4_D#5_A#4
1626,Left,1,51,80,238.75,0.239583,Sixteenth,D#3
1630,Left,1,56,80,239.0,0.489583,Eighth,G#3
1627,Right,0,72,80,239.0,0.489583,Eighth,G#4_D#5_C5
1631,Left,1,44,80,239.5,0.489583,Eighth,G#2
1633,Left,1,58,80,240.0,0.489583,Eighth,A#3
1632,Right,0,60,80,240.0,0.239583,Sixteenth,C4
1634,Right,0,72,80,240.25,0.239583,Sixteenth,C5
1635,Right,0,64,80,240.5,0.239583,Sixteenth,E4
1636,Left,1,56,80,240.5,0.489583,Eighth,G#3
1637,Right,0,72,80,240.75,0.239583,Sixteenth,C5
1638,Left,1,52,80,241.0,0.489583,Eighth,E3
1639,Right,0,67,80,241.0,0.239583,Sixteenth,G4
1640,Right,0,72,80,241.25,0.239583,Sixteenth,C5
1641,Left,1,48,80,241.5,0.489583,Eighth,C3
1642,Right,0,71,80,241.5,0.239583,Sixteenth,B4
1643,Right,0,72,80,241.75,0.239583,Sixteenth,C5
1645,Right,0,70,80,242.0,0.239583,Sixteenth,A#4
1644,Left,1,50,80,242.0,0.489583,Eighth,D3
1646,Right,0,72,80,242.25,0.239583,Sixteenth,C5
1648,Left,1,52,80,242.5,0.489583,Eighth,E3
1647,Right,0,67,80,242.5,0.239583,Sixteenth,G4
1649,Right,0,72,80,242.75,0.239583,Sixteenth,C5
1650,Left,1,53,80,243.0,0.489583,Eighth,F3
1651,Right,0,68,80,243.0,0.239583,Sixteenth,G#4
1652,Right,0,72,80,243.25,0.239583,Sixteenth,C5
1653,Left,1,56,80,243.5,0.489583,Eighth,G#3
1654,Right,0,65,80,243.5,0.239583,Sixteenth,F4
1655,Right,0,72,80,243.75,0.239583,Sixteenth,C5
1657,Right,0,80,80,244.0,0.489583,Eighth,G#5
1656,Left,1,46,80,244.0,0.239583,Sixteenth,A#2
1658,Left,1,58,80,244.25,0.239583,Sixteenth,A#3
1660,Left,1,50,80,244.5,0.239583,Sixteenth,D3
1659,Right,0,77,80,244.5,0.489583,Eighth,F5
1661,Left,1,58,80,244.75,0.239583,Sixteenth,A#3
1662,Left,1,53,80,245.0,0.239583,Sixteenth,F3
1663,Right,0,74,80,245.0,0.489583,Eighth,D5
1664,Left,1,58,80,245.25,0.239583,Sixteenth,A#3
1666,Left,1,57,80,245.5,0.239583,Sixteenth,A3
1665,Right,0,70,80,245.5,0.489583,Eighth,A#4
1667,Left,1,58,80,245.75,0.239583,Sixteenth,A#3
1669,Left,1,56,80,246.0,0.239583,Sixteenth,G#3
1668,Right,0,72,80,246.0,0.489583,Eighth,C5
1670,Left,1,58,80,246.25,0.239583,Sixteenth,A#3
1671,Right,0,74,80,246.5,0.489583,Eighth,D5
1672,Left,1,53,80,246.5,0.239583,Sixteenth,F3
1673,Left,1,58,80,246.75,0.239583,Sixteenth,A#3
1674,Left,1,55,80,247.0,0.239583,Sixteenth,G3
1675,Right,0,75,80,247.0,0.489583,Eighth,D#5
1676,Left,1,58,80,247.25,0.239583,Sixteenth,A#3
1678,Right,0,79,80,247.5,0.489583,Eighth,G5
1677,Left,1,51,80,247.5,0.239583,Sixteenth,D#3
1679,Left,1,58,80,247.75,0.239583,Sixteenth,A#3
1681,Right,0,63,80,248.0,0.239583,Sixteenth,D#4
1680,Left,1,61,80,248.0,0.489583,Eighth,C#4
1682,Right,0,75,80,248.25,0.239583,Sixteenth,D#5
1683,Left,1,58,80,248.5,0.489583,Eighth,A#3
1684,Right,0,67,80,248.5,0.239583,Sixteenth,G4
1685,Right,0,75,80,248.75,0.239583,Sixteenth,D#5
1686,Left,1,55,80,249.0,0.489583,Eighth,G3
1687,Right,0,70,80,249.0,0.239583,Sixteenth,A#4
1688,Right,0,75,80,249.25,0.239583,Sixteenth,D#5
1690,Left,1,51,80,249.5,0.489583,Eighth,D#3
1689,Right,0,74,80,249.5,0.239583,Sixteenth,D5
1691,Right,0,75,80,249.75,0.239583,Sixteenth,D#5
1693,Left,1,53,80,250.0,0.489583,Eighth,F3
1692,Right,0,73,80,250.0,0.239583,Sixteenth,C#5
1694,Right,0,75,80,250.25,0.239583,Sixteenth,D#5
1695,Left,1,55,80,250.5,0.489583,Eighth,G3
1696,Right,0,70,80,250.5,0.239583,Sixteenth,A#4
1697,Right,0,75,80,250.75,0.239583,Sixteenth,D#5
1699,Left,1,56,80,251.0,0.489583,Eighth,G#3
1698,Right,0,72,80,251.0,0.239583,Sixteenth,C5
1700,Right,0,75,80,251.25,0.239583,Sixteenth,D#5
1702,Left,1,44,80,251.5,0.489583,Eighth,G#2
1701,Right,0,72,80,251.5,0.239583,Sixteenth,D#4_C5
1704,Right,0,75,80,251.75,0.239583,Sixteenth,D#5
1706,Right,0,73,80,252.0,0.239583,Sixteenth,F4_C#5
1705,Left,1,46,80,252.0,0.489583,Eighth,A#2
1708,Right,0,75,80,252.25,0.239583,Sixteenth,D#5
1709,Left,1,48,80,252.5,0.489583,Eighth,C3
1710,Right,0,72,80,252.5,0.239583,Sixteenth,G#4_C5
1712,Right,0,75,80,252.75,0.239583,Sixteenth,D#5
1715,Left,1,49,80,253.0,0.489583,Eighth,C#3
1713,Right,0,72,80,253.0,0.239583,Sixteenth,F4_C5
1716,Right,0,75,80,253.25,0.239583,Sixteenth,D#5
1719,Left,1,46,80,253.5,0.489583,Eighth,A#2
1717,Right,0,70,80,253.5,0.239583,Sixteenth,F4_A#4
1720,Right,0,73,80,253.75,0.239583,Sixteenth,C#5
1721,Left,1,51,80,254.0,0.489583,Eighth,D#3
1722,Right,0,68,80,254.0,0.239583,Sixteenth,G#4_D#4
1724,Right,0,72,80,254.25,0.239583,Sixteenth,C5
1726,Right,0,67,80,254.5,0.239583,Sixteenth,G4_C#4
1725,Left,1,39,80,254.5,0.489583,Eighth,D#2
1728,Right,0,70,80,254.75,0.239583,Sixteenth,A#4
1729,Right,0,68,80,255.0,0.489583,Eighth,G#4_C4
1731,Left,1,44,80,255.0,0.489583,Eighth,G#2
1732,Left,1,32,80,255.5,0.489583,Eighth,G#1
1733,Right,0,70,80,256.0,0.489583,Eighth,A#5_A#4
1735,Left,1,48,80,256.0,0.239583,Sixteenth,C3
1736,Left,1,60,80,256.25,0.239583,Sixteenth,C4
1739,Left,1,52,80,256.5,0.239583,Sixteenth,E3
1737,Right,0,67,80,256.5,0.489583,Eighth,G5_G4
1740,Left,1,60,80,256.75,0.239583,Sixteenth,C4
1743,Left,1,55,80,257.0,0.239583,Sixteenth,G3
1741,Right,0,64,80,257.0,0.489583,Eighth,E5_E4
1744,Left,1,60,80,257.25,0.239583,Sixteenth,C4
1746,Left,1,59,80,257.5,0.239583,Sixteenth,B3
1745,Right,0,72,80,257.5,0.489583,Eighth,C5
1747,Left,1,60,80,257.75,0.239583,Sixteenth,C4
1748,Left,1,58,80,258.0,0.239583,Sixteenth,A#3
1749,Right,0,74,80,258.0,0.489583,Eighth,D5_D4
1751,Left,1,60,80,258.25,0.239583,Sixteenth,C4
1753,Right,0,64,80,258.5,0.489583,Eighth,E5_E4
1752,Left,1,55,80,258.5,0.239583,Sixteenth,G3
1755,Left,1,60,80,258.75,0.239583,Sixteenth,C4
1757,Left,1,56,80,259.0,0.239583,Sixteenth,G#3
1756,Right,0,65,80,259.0,0.489583,Eighth,F5_F4
1759,Left,1,60,80,259.25,0.239583,Sixteenth,C4
1761,Left,1,53,80,259.5,0.239583,Sixteenth,F3
1760,Right,0,68,80,259.5,0.489583,Eighth,G#5_G#4
1763,Left,1,60,80,259.75,0.239583,Sixteenth,C4
1765,Left,1,68,80,260.0,0.489583,Eighth,G#4
1764,Right,0,72,80,260.0,0.239583,Sixteenth,C5
1766,Right,0,82,80,260.25,0.239583,Sixteenth,A#5
1768,Left,1,65,80,260.5,0.489583,Eighth,F4
1767,Right,0,74,80,260.5,0.239583,Sixteenth,D5
1769,Right,0,82,80,260.75,0.239583,Sixteenth,A#5
1771,Right,0,77,80,261.0,0.239583,Sixteenth,F5
1770,Left,1,62,80,261.0,0.489583,Eighth,D4
1772,Right,0,82,80,261.25,0.239583,Sixteenth,A#5
1773,Right,0,81,80,261.5,0.239583,Sixteenth,A5
1774,Left,1,58,80,261.5,0.489583,Eighth,A#3
1775,Right,0,82,80,261.75,0.239583,Sixteenth,A#5
1776,Right,0,80,80,262.0,0.239583,Sixteenth,G#5
1777,Left,1,60,80,262.0,0.489583,Eighth,C4
1778,Right,0,82,80,262.25,0.239583,Sixteenth,A#5
1779,Right,0,77,80,262.5,0.239583,Sixteenth,F5
1780,Left,1,62,80,262.5,0.489583,Eighth,D4
1781,Right,0,82,80,262.75,0.239583,Sixteenth,A#5
1783,Left,1,63,80,263.0,0.489583,Eighth,D#4
1782,Right,0,79,80,263.0,0.239583,Sixteenth,G5
1784,Right,0,82,80,263.25,0.239583,Sixteenth,A#5
1786,Right,0,75,80,263.5,0.239583,Sixteenth,D#5
1785,Left,1,67,80,263.5,0.489583,Eighth,G4
1787,Right,0,82,80,263.75,0.239583,Sixteenth,A#5
1788,Right,0,73,80,264.0,0.489583,Eighth,C#6_C#5
1790,Left,1,39,80,264.0,0.239583,Sixteenth,D#2
1791,Left,1,51,82,264.25,0.239583,Sixteenth,D#3
1792,Right,0,70,84,264.5,0.489583,Eighth,A#5_A#4
1794,Left,1,43,84,264.5,0.239583,Sixteenth,G2
1795,Left,1,51,86,264.75,0.239583,Sixteenth,D#3
1796,Right,0,79,89,265.0,0.489583,Eighth,G5_G4
1798,Left,1,46,89,265.0,0.239583,Sixteenth,A#2
1799,Left,1,51,91,265.25,0.239583,Sixteenth,D#3
1801,Right,0,63,93,265.5,0.489583,Eighth,D#5_D#4
1800,Left,1,50,93,265.5,0.239583,Sixteenth,D3
1803,Left,1,51,96,265.75,0.239583,Sixteenth,D#3
1805,Right,0,77,98,266.0,0.489583,Eighth,F5_F4
1804,Left,1,49,98,266.0,0.239583,Sixteenth,C#3
1807,Left,1,51,100,266.25,0.239583,Sixteenth,D#3
1809,Left,1,46,103,266.5,0.239583,Sixteenth,A#2
1808,Right,0,79,103,266.5,0.489583,Eighth,G5_G4
1811,Left,1,51,105,266.75,0.239583,Sixteenth,D#3
1814,Left,1,48,107,267.0,0.239583,Sixteenth,C3
1812,Right,0,68,107,267.0,0.489583,Eighth,G#5_G#4
1815,Left,1,51,109,267.25,0.239583,Sixteenth,D#3
1816,Left,1,44,110,267.5,0.239583,Sixteenth,G#2
1817,Right,0,75,110,267.5,0.239583,Sixteenth,G#5_D#5_C6
1821,Right,0,87,110,267.75,0.239583,Sixteenth,D#6
1820,Left,1,56,110,267.75,0.239583,Sixteenth,G#3
1824,Left,1,43,110,268.0,0.239583,Sixteenth,G2
1822,Right,0,84,110,268.0,0.239583,Sixteenth,G#5_D#5_C6
1827,Left,1,55,110,268.25,0.239583,Sixteenth,G3
1826,Right,0,87,110,268.25,0.239583,Sixteenth,D#6
1828,Left,1,44,110,268.5,0.239583,Sixteenth,G#2
1829,Right,0,75,110,268.5,0.239583,Sixteenth,G#5_D#5_C6
1833,Left,1,56,110,268.75,0.239583,Sixteenth,G#3
1832,Right,0,87,110,268.75,0.239583,Sixteenth,D#6
1834,Right,0,84,110,269.0,0.239583,Sixteenth,D#5_C6
1836,Left,1,41,110,269.0,0.239583,Sixteenth,F2
1837,Left,1,53,110,269.25,0.239583,Sixteenth,F3
1838,Right,0,87,110,269.25,0.239583,Sixteenth,D#6
1840,Right,0,73,110,269.5,0.239583,Sixteenth,C#5_A#5
1839,Left,1,37,110,269.5,0.239583,Sixteenth,C#2
1842,Left,1,49,110,269.75,0.239583,Sixteenth,C#3
1843,Right,0,85,110,269.75,0.239583,Sixteenth,C#6
1845,Right,0,80,110,270.0,0.239583,Sixteenth,G#5_C5
1844,Left,1,39,110,270.0,0.239583,Sixteenth,D#2
1847,Left,1,51,110,270.25,0.239583,Sixteenth,D#3
1848,Right,0,84,110,270.25,0.239583,Sixteenth,C6
1849,Left,1,39,110,270.5,0.239583,Sixteenth,D#2
1850,Right,0,70,110,270.5,0.239583,Sixteenth,G5_A#4
1852,Left,1,51,110,270.75,0.239583,Sixteenth,D#3
1853,Right,0,82,110,270.75,0.239583,Sixteenth,A#5
1855,Right,0,80,110,271.0,0.489583,Eighth,G#5_G#4
1854,Left,1,34,110,271.0,0.489583,Eighth,A#1
1857,Left,1,44,80,271.5,0.489583,Eighth,G#2
1859,Right,0,68,80,272.0,0.239583,Sixteenth,G#4
1858,Left,1,60,80,272.0,0.239583,Sixteenth,C4
1861,Left,1,56,80,272.25,0.239583,Sixteenth,G#3
1860,Right,0,72,80,272.25,0.239583,Sixteenth,C5
1863,Left,1,61,80,272.5,0.239583,Sixteenth,C#4
1862,Right,0,65,80,272.5,0.239583,Sixteenth,F4
1864,Left,1,53,80,272.75,0.239583,Sixteenth,F3
1865,Right,0,73,80,272.75,0.239583,Sixteenth,C#5
1866,Left,1,58,80,273.0,0.239583,Sixteenth,A#3
1867,Right,0,67,80,273.0,0.239583,Sixteenth,G4
1869,Left,1,55,80,273.25,0.239583,Sixteenth,G3
1868,Right,0,70,80,273.25,0.239583,Sixteenth,A#4
1870,Left,1,60,80,273.5,0.239583,Sixteenth,C4
1871,Right,0,64,80,273.5,0.239583,Sixteenth,E4
1872,Left,1,52,80,273.75,0.239583,Sixteenth,E3
1873,Right,0,72,80,273.75,0.239583,Sixteenth,C5
1874,Left,1,56,80,274.0,0.239583,Sixteenth,G#3
1875,Right,0,65,80,274.0,0.239583,Sixteenth,F4
1877,Left,1,53,80,274.25,0.239583,Sixteenth,F3
1876,Right,0,68,80,274.25,0.239583,Sixteenth,G#4
1879,Left,1,58,80,274.5,0.239583,Sixteenth,A#3
1878,Right,0,62,80,274.5,0.239583,Sixteenth,D4
1881,Left,1,50,80,274.75,0.239583,Sixteenth,D3
1880,Right,0,70,80,274.75,0.239583,Sixteenth,A#4
1882,Right,0,67,80,275.0,0.489583,Eighth,G4
1883,Left,1,51,80,275.0,0.489583,Eighth,D#3
1886,Right,0,67,110,275.5,0.489583,Eighth,G5_G4_D#5_A#4
1884,Left,1,51,110,275.5,0.489583,Eighth,D#3_D#2
1891,Right,0,79,80,276.0,0.239583,Sixteenth,G5
1890,Left,1,63,80,276.0,0.239583,Sixteenth,D#4
1893,Right,0,75,80,276.25,0.239583,Sixteenth,D#5
1892,Left,1,67,80,276.25,0.239583,Sixteenth,G4
1894,Right,0,80,80,276.5,0.239583,Sixteenth,G#5
1895,Left,1,60,80,276.5,0.239583,Sixteenth,C4
1897,Right,0,72,80,276.75,0.239583,Sixteenth,C5
1896,Left,1,68,80,276.75,0.239583,Sixteenth,G#4
1899,Left,1,62,80,277.0,0.239583,Sixteenth,D4
1898,Right,0,77,80,277.0,0.239583,Sixteenth,F5
1901,Left,1,65,80,277.25,0.239583,Sixteenth,F4
1900,Right,0,74,80,277.25,0.239583,Sixteenth,D5
1902,Right,0,79,80,277.5,0.239583,Sixteenth,G5
1903,Left,1,59,80,277.5,0.239583,Sixteenth,B3
1904,Right,0,71,80,277.75,0.239583,Sixteenth,B4
1905,Left,1,67,80,277.75,0.239583,Sixteenth,G4
1907,Right,0,75,80,278.0,0.239583,Sixteenth,D#5
1906,Left,1,60,80,278.0,0.239583,Sixteenth,C4
1908,Right,0,72,80,278.25,0.239583,Sixteenth,C5
1909,Left,1,63,80,278.25,0.239583,Sixteenth,D#4
1911,Left,1,57,80,278.5,0.239583,Sixteenth,A3
1910,Right,0,77,80,278.5,0.239583,Sixteenth,F5
1912,Right,0,69,80,278.75,0.239583,Sixteenth,A4
1913,Left,1,65,80,278.75,0.239583,Sixteenth,F4
1915,Left,1,58,80,279.0,0.489583,Eighth,A#3
1914,Right,0,73,80,279.0,0.489583,Eighth,C#5
1917,Right,0,70,110,279.5,0.489583,Eighth,F5_C#5_A#5_A#4
1916,Left,1,58,110,279.5,0.489583,Eighth,A#3_A#2
1923,Left,1,61,80,280.0,0.239583,Sixteenth,C#4
1922,Right,0,70,80,280.0,0.239583,Sixteenth,A#4
1924,Left,1,58,80,280.25,0.239583,Sixteenth,A#3
1925,Right,0,73,80,280.25,0.239583,Sixteenth,C#5
1926,Left,1,63,80,280.5,0.239583,Sixteenth,D#4
1927,Right,0,67,80,280.5,0.239583,Sixteenth,G4
1928,Left,1,55,80,280.75,0.239583,Sixteenth,G3
1929,Right,0,75,80,280.75,0.239583,Sixteenth,D#5
1931,Right,0,68,80,281.0,0.239583,Sixteenth,G#4
1930,Left,1,60,80,281.0,0.239583,Sixteenth,C4
1933,Right,0,72,80,281.25,0.239583,Sixteenth,C5
1932,Left,1,56,80,281.25,0.239583,Sixteenth,G#3
1935,Right,0,65,80,281.5,0.239583,Sixteenth,F4
1934,Left,1,61,80,281.5,0.239583,Sixteenth,C#4
1936,Right,0,73,80,281.75,0.239583,Sixteenth,C#5
1937,Left,1,53,80,281.75,0.239583,Sixteenth,F3
1938,Right,0,67,80,282.0,0.239583,Sixteenth,G4
1939,Left,1,58,80,282.0,0.239583,Sixteenth,A#3
1941,Right,0,70,80,282.25,0.239583,Sixteenth,A#4
1940,Left,1,55,80,282.25,0.239583,Sixteenth,G3
1942,Right,0,64,80,282.5,0.239583,Sixteenth,E4
1943,Left,1,60,80,282.5,0.239583,Sixteenth,C4
1945,Right,0,72,80,282.75,0.239583,Sixteenth,C5
1944,Left,1,52,80,282.75,0.239583,Sixteenth,E3
1947,Left,1,53,80,283.0,0.489583,Eighth,F3
1946,Right,0,68,80,283.0,0.489583,Eighth,G#4
1949,Left,1,53,110,283.5,0.489583,Eighth,F3_F2
1948,Right,0,77,110,283.5,0.489583,Eighth,G#5_G#4_F5_C5
1954,Right,0,80,80,284.0,0.239583,Sixteenth,G#5
1955,Left,1,65,80,284.0,0.239583,Sixteenth,F4
1957,Right,0,77,80,284.25,0.239583,Sixteenth,F5
1956,Left,1,68,80,284.25,0.239583,Sixteenth,G#4
1959,Left,1,62,80,284.5,0.239583,Sixteenth,D4
1958,Right,0,82,80,284.5,0.239583,Sixteenth,A#5
1960,Left,1,70,80,284.75,0.239583,Sixteenth,A#4
1961,Right,0,74,80,284.75,0.239583,Sixteenth,D5
1963,Left,1,63,80,285.0,0.239583,Sixteenth,D#4
1962,Right,0,79,80,285.0,0.239583,Sixteenth,G5
1965,Left,1,67,80,285.25,0.239583,Sixteenth,G4
1964,Right,0,75,80,285.25,0.239583,Sixteenth,D#5
1967,Left,1,60,80,285.5,0.239583,Sixteenth,C4
1966,Right,0,80,80,285.5,0.239583,Sixteenth,G#5
1969,Left,1,68,80,285.75,0.239583,Sixteenth,G#4
1968,Right,0,72,80,285.75,0.239583,Sixteenth,C5
1970,Right,0,77,80,286.0,0.239583,Sixteenth,F5
1971,Left,1,62,80,286.0,0.239583,Sixteenth,D4
1973,Left,1,65,80,286.25,0.239583,Sixteenth,F4
1972,Right,0,74,80,286.25,0.239583,Sixteenth,D5
1974,Left,1,59,80,286.5,0.239583,Sixteenth,B3
1975,Right,0,79,80,286.5,0.239583,Sixteenth,G5
1976,Left,1,67,80,286.75,0.239583,Sixteenth,G4
1977,Right,0,71,80,286.75,0.239583,Sixteenth,B4
1979,Left,1,60,80,287.0,0.489583,Eighth,C4
1978,Right,0,75,80,287.0,0.489583,Eighth,D#5
1983,Left,1,44,110,287.5,0.489583,Eighth,G#2
1980,Right,0,75,110,287.5,0.489583,Eighth,F5_D#5_C6_C5
1985,Right,0,73,80,288.0,0.489583,Eighth,C#5
1986,Left,1,46,80,288.0,0.489583,Eighth,A#2
1988,Right,0,82,110,288.5,0.489583,Eighth,F5_C#5_A#5_A#4
1987,Left,1,58,110,288.5,0.489583,Eighth,A#3
1993,Right,0,73,80,289.0,0.489583,Eighth,C#5
1992,Left,1,43,80,289.0,0.489583,Eighth,G2
1997,Left,1,55,110,289.5,0.489583,Eighth,G3
1994,Right,0,70,110,289.5,0.489583,Eighth,D#5_C#5_A#5_A#4
2000,Right,0,72,80,290.0,0.489583,Eighth,C5
1999,Left,1,44,80,290.0,0.489583,Eighth,G#2
2004,Left,1,56,110,290.5,0.489583,Eighth,G#3
2001,Right,0,72,110,290.5,0.489583,Eighth,G#5_G#4_D#5_C5
2006,Left,1,39,80,291.0,0.489583,Eighth,D#2
2007,Right,0,70,80,291.0,0.489583,Eighth,A#4
2008,Left,1,51,110,291.5,0.489583,Eighth,D#3
2009,Right,0,75,110,291.5,0.489583,Eighth,G5_G4_D#5_A#4
2013,Left,1,49,80,292.0,0.239583,Sixteenth,C#3
2014,Left,1,51,80,292.25,0.239583,Sixteenth,D#3
2017,Left,1,46,80,292.5,0.239583,Sixteenth,A#2
2015,Right,0,75,80,292.5,0.489583,Eighth,D#5_D#4
2018,Left,1,55,80,292.75,0.239583,Sixteenth,G3
2019,Left,1,49,80,293.0,0.239583,Sixteenth,C#3
2020,Left,1,51,80,293.25,0.239583,Sixteenth,D#3
2023,Left,1,46,80,293.5,0.239583,Sixteenth,A#2
2021,Right,0,79,80,293.5,0.489583,Eighth,G5_G4
2024,Left,1,55,80,293.75,0.239583,Sixteenth,G3
2025,Left,1,49,80,294.0,0.239583,Sixteenth,C#3
2026,Left,1,51,80,294.25,0.239583,Sixteenth,D#3
2027,Right,0,82,80,294.5,0.489583,Eighth,A#5_A#4
2028,Left,1,46,80,294.5,0.239583,Sixteenth,A#2
2030,Left,1,55,80,294.75,0.239583,Sixteenth,G3
2031,Right,0,67,80,295.0,0.489583,Eighth,G5_G4
2033,Left,1,49,80,295.0,0.239583,Sixteenth,C#3
2034,Left,1,51,80,295.25,0.239583,Sixteenth,D#3
2035,Right,0,75,80,295.5,0.489583,Eighth,D#5_D#4
2036,Left,1,46,80,295.5,0.239583,Sixteenth,A#2
2038,Left,1,55,80,295.75,0.239583,Sixteenth,G3
2039,Left,1,49,80,296.0,0.239583,Sixteenth,C#3
2040,Left,1,51,80,296.25,0.239583,Sixteenth,D#3
2041,Right,0,63,80,296.5,0.489583,Eighth,D#5_D#4
2043,Left,1,46,80,296.5,0.239583,Sixteenth,A#2
2044,Left,1,55,80,296.75,0.239583,Sixteenth,G3
2045,Left,1,49,80,297.0,0.239583,Sixteenth,C#3
2046,Left,1,51,80,297.25,0.239583,Sixteenth,D#3
2047,Left,1,46,80,297.5,0.239583,Sixteenth,A#2
2048,Right,0,79,80,297.5,0.489583,Eighth,G5_G4
2050,Left,1,55,80,297.75,0.239583,Sixteenth,G3
2051,Left,1,49,80,298.0,0.239583,Sixteenth,C#3
2052,Left,1,51,80,298.25,0.239583,Sixteenth,D#3
2053,Right,0,70,80,298.5,0.489583,Eighth,A#5_A#4
2055,Left,1,46,80,298.5,0.239583,Sixteenth,A#2
2056,Left,1,55,80,298.75,0.239583,Sixteenth,G3
2057,Right,0,67,80,299.0,0.489583,Eighth,G5_G4
2059,Left,1,49,80,299.0,0.239583,Sixteenth,C#3
2060,Left,1,51,80,299.25,0.239583,Sixteenth,D#3
2063,Left,1,46,80,299.5,0.239583,Sixteenth,A#2
2061,Right,0,63,80,299.5,0.489583,Eighth,D#5_D#4
2064,Left,1,55,80,299.75,0.239583,Sixteenth,G3
2065,Right,0,82,80,300.0,0.239583,Sixteenth,A#5
2066,Right,0,85,80,300.25,0.239583,Sixteenth,C#6
2068,Right,0,79,80,300.5,0.239583,Sixteenth,G5
2067,Left,1,39,80,300.5,0.489583,Eighth,D#3_D#2
2070,Right,0,87,80,300.75,0.239583,Sixteenth,D#6
2071,Right,0,82,80,301.0,0.239583,Sixteenth,A#5
2072,Right,0,85,80,301.25,0.239583,Sixteenth,C#6
2074,Left,1,55,80,301.5,0.489583,Eighth,G3_G2
2073,Right,0,79,80,301.5,0.239583,Sixteenth,G5
2076,Right,0,87,80,301.75,0.239583,Sixteenth,D#6
2077,Right,0,82,80,302.0,0.239583,Sixteenth,A#5
2078,Right,0,85,80,302.25,0.239583,Sixteenth,C#6
2080,Left,1,58,80,302.5,0.489583,Eighth,A#3_A#2
2079,Right,0,79,80,302.5,0.239583,Sixteenth,G5
2082,Right,0,87,80,302.75,0.239583,Sixteenth,D#6
2085,Right,0,82,80,303.0,0.239583,Sixteenth,A#5
2083,Left,1,55,80,303.0,0.489583,Eighth,G3_G2
2086,Right,0,85,80,303.25,0.239583,Sixteenth,C#6
2089,Right,0,79,80,303.5,0.239583,Sixteenth,G5
2087,Left,1,39,80,303.5,0.489583,Eighth,D#3_D#2
2090,Right,0,87,80,303.75,0.239583,Sixteenth,D#6
2091,Right,0,82,80,304.0,0.239583,Sixteenth,A#5
2092,Right,0,85,81,304.25,0.239583,Sixteenth,C#6
2093,Left,1,51,82,304.5,0.489583,Eighth,D#4_D#3
2095,Right,0,79,82,304.5,0.239583,Sixteenth,G5
2096,Right,0,87,83,304.75,0.239583,Sixteenth,D#6
2097,Right,0,82,84,305.0,0.239583,Sixteenth,A#5
2098,Right,0,85,85,305.25,0.239583,Sixteenth,C#6
2100,Left,1,67,86,305.5,0.489583,Eighth,G4_G3
2099,Right,0,79,86,305.5,0.239583,Sixteenth,G5
2102,Right,0,87,87,305.75,0.239583,Sixteenth,D#6
2103,Right,0,82,88,306.0,0.239583,Sixteenth,A#5
2104,Right,0,85,89,306.25,0.239583,Sixteenth,C#6
2105,Left,1,70,90,306.5,0.489583,Eighth,A#4_A#3
2107,Right,0,79,90,306.5,0.239583,Sixteenth,G5
2108,Right,0,87,91,306.75,0.239583,Sixteenth,D#6
2109,Right,0,82,92,307.0,0.239583,Sixteenth,A#5
2110,Left,1,67,92,307.0,0.489583,Eighth,G4_G3
2112,Right,0,85,93,307.25,0.239583,Sixteenth,C#6
2113,Left,1,63,94,307.5,0.489583,Eighth,D#4_D#3
2114,Right,0,79,94,307.5,0.239583,Sixteenth,G5
2116,Right,0,87,96,307.75,0.239583,Sixteenth,D#6
2117,Right,0,82,97,308.0,0.239583,Sixteenth,A#5
2118,Right,0,85,98,308.25,0.239583,Sixteenth,C#6
2119,Left,1,58,99,308.5,0.489583,Eighth,A#3_A#2
2121,Right,0,79,99,308.5,0.239583,Sixteenth,G5
2122,Right,0,87,100,308.75,0.239583,Sixteenth,D#6
2123,Left,1,43,101,309.0,0.489583,Eighth,G3_G2
2125,Right,0,82,101,309.0,0.239583,Sixteenth,A#5
2126,Right,0,85,102,309.25,0.239583,Sixteenth,C#6
2127,Left,1,51,103,309.5,0.489583,Eighth,D#3_D#2
2128,Right,0,79,103,309.5,0.239583,Sixteenth,G5
2130,Right,0,87,104,309.75,0.239583,Sixteenth,D#6
2131,Right,0,82,105,310.0,0.239583,Sixteenth,A#5
2132,Right,0,85,106,310.25,0.239583,Sixteenth,C#6
2135,Right,0,79,107,310.5,0.239583,Sixteenth,G5
2133,Left,1,39,107,310.5,0.489583,Eighth,D#3_D#2
2136,Right,0,87,108,310.75,0.239583,Sixteenth,D#6
2139,Right,0,84,110,311.0,0.489583,Eighth,C6
2137,Left,1,44,110,311.0,0.489583,Eighth,G#3_G#2
2140,Left,1,36,110,311.5,1.489583,DottedQuarter,C3_C2
2142,Right,0,80,110,311.5,0.239583,Sixteenth,G#5
2143,Right,0,79,110,311.75,0.239583,Sixteenth,G5
2144,Right,0,77,110,312.0,0.239583,Sixteenth,F5
2145,Right,0,75,110,312.25,0.239583,Sixteenth,D#5
2146,Right,0,73,110,312.5,0.239583,Sixteenth,C#5
2147,Right,0,72,110,312.75,0.239583,Sixteenth,C5
2149,Right,0,70,110,313.0,0.239583,Sixteenth,A#4
2148,Left,1,49,110,313.0,0.989583,Quarter,C#3_C#2
2151,Right,0,68,110,313.25,0.239583,Sixteenth,G#4
2152,Right,0,67,110,313.5,0.239583,Sixteenth,G4
2153,Right,0,65,110,313.75,0.239583,Sixteenth,F4
2155,Left,1,51,110,314.0,0.989583,Quarter,D#3_D#2
2154,Right,0,63,110,314.0,0.239583,Sixteenth,D#4
2157,Right,0,61,110,314.25,0.239583,Sixteenth,C#4
2158,Right,0,60,110,314.5,0.239583,Sixteenth,C4
2159,Right,0,58,110,314.75,0.239583,Sixteenth,A#3
2160,Left,1,53,110,315.0,0.489583,Eighth,F3_F2
2161,Right,0,56,110,315.0,0.489583,Eighth,G#3
2163,Left,1,36,110,315.5,1.489583,DottedQuarter,C3_C2
2165,Right,0,84,110,315.5,0.239583,Sixteenth,C6
2166,Right,0,82,110,315.75,0.239583,Sixteenth,A#5
2167,Right,0,80,110,316.0,0.15625,TripletSixteenth,G#5
2168,Right,0,79,110,316.166667,0.15625,TripletSixteenth,G5
2169,Right,0,77,110,316.333333,0.15625,TripletSixteenth,F5
2170,Right,0,75,110,316.5,0.15625,TripletSixteenth,D#5
2171,Right,0,73,110,316.666667,0.15625,TripletSixteenth,C#5
2172,Right,0,72,110,316.833333,0.15625,TripletSixteenth,C5
2174,Left,1,37,110,317.0,0.989583,Quarter,C#3_C#2
2173,Right,0,70,110,317.0,0.239583,Sixteenth,A#4
2176,Right,0,68,110,317.25,0.239583,Sixteenth,G#4
2177,Right,0,67,110,317.5,0.239583,Sixteenth,G4
2178,Right,0,65,110,317.75,0.239583,Sixteenth,F4
2179,Left,1,51,110,318.0,0.989583,Quarter,D#3_D#2
2180,Right,0,63,110,318.0,0.239583,Sixteenth,D#4
2182,Right,0,61,110,318.25,0.239583,Sixteenth,C#4
2183,Right,0,60,110,318.5,0.239583,Sixteenth,C4
2184,Right,0,58,110,318.75,0.239583,Sixteenth,A#3
2186,Right,0,56,110,319.0,0.489583,Eighth,G#3
2185,Left,1,53,110,319.0,0.489583,Eighth,F3_F2
2188,Right,0,87,110,319.5,0.052083,SixtyFourth,D#6
2189,Left,1,36,110,319.5,1.489583,DottedQuarter,C3_C2
2191,Right,0,85,110,319.625,0.052083,SixtyFourth,C#6
2192,Right,0,84,110,319.75,0.052083,SixtyFourth,C6
2193,Right,0,82,110,319.875,0.052083,SixtyFourth,A#5
2194,Right,0,80,110,320.0,0.15625,TripletSixteenth,G#5
2195,Right,0,79,110,320.166667,0.15625,TripletSixteenth,G5
2196,Right,0,77,110,320.333333,0.15625,TripletSixteenth,F5
2197,Right,0,75,110,320.5,0.15625,TripletSixteenth,D#5
2198,Right,0,73,110,320.666667,0.15625,TripletSixteenth,C#5
2199,Right,0,72,110,320.833333,0.15625,TripletSixteenth,C5
2201,Right,0,70,110,321.0,0.239583,Sixteenth,A#4
2200,Left,1,37,110,321.0,0.989583,Quarter,C#3_C#2
2203,Right,0,68,110,321.25,0.239583,Sixteenth,G#4
2204,Right,0,67,110,321.5,0.239583,Sixteenth,G4
2205,Right,0,65,110,321.75,0.239583,Sixteenth,F4
2208,Right,0,63,110,322.0,0.239583,Sixteenth,D#4
2206,Left,1,51,110,322.0,0.989583,Quarter,D#3_D#2
2209,Right,0,61,110,322.25,0.239583,Sixteenth,C#4
2210,Right,0,60,110,322.5,0.239583,Sixteenth,C4
2211,Right,0,58,110,322.75,0.239583,Sixteenth,A#3
2212,Left,1,32,110,323.0,3.989583,Whole,G#1
2213,Right,0,56,110,323.0,0.489583,Eighth,G#3
2214,Left,1,44,80,323.5,3.489583,DottedHalf,G#2
2215,Right,0,80,80,324.0,0.239583,Sixteenth,G#5
2216,Right,0,77,80,324.25,0.239583,Sixteenth,F5
2217,Right,0,82,80,324.5,0.239583,Sixteenth,A#5
2218,Right,0,74,80,324.75,0.239583,Sixteenth,D5
2219,Right,0,78,80,325.0,0.239583,Sixteenth,F#5
2220,Right,0,75,80,325.25,0.239583,Sixteenth,D#5
2221,Right,0,80,80,325.5,0.239583,Sixteenth,G#5
2222,Right,0,72,80,325.75,0.239583,Sixteenth,C5
2223,Right,0,77,80,326.0,0.239583,Sixteenth,F5
2224,Right,0,73,80,326.25,0.239583,Sixteenth,C#5
2225,Right,0,78,80,326.5,0.989583,Quarter,F#5
2226,Right,0,70,80,326.75,0.239583,Sixteenth,A#4
2227,Right,0,75,80,327.0,0.239583,Sixteenth,D#5
2228,Left,1,32,80,327.0,3.989583,Whole,G#1
2229,Right,0,69,80,327.25,0.239583,Sixteenth,A4
2230,Right,0,77,80,327.5,0.489583,Eighth,F5_C#5
2232,Left,1,44,80,327.5,3.489583,DottedHalf,G#2
2233,Right,0,70,80,327.75,0.239583,Sixteenth,A#4
2234,Right,0,73,80,328.0,0.239583,Sixteenth,C#5
2235,Right,0,70,80,328.25,0.239583,Sixteenth,A#4
2236,Right,0,76,80,328.5,0.239583,Sixteenth,E5
2237,Right,0,67,80,328.75,0.239583,Sixteenth,G4
2238,Right,0,70,80,329.0,0.239583,Sixteenth,A#4
2239,Right,0,67,80,329.25,0.239583,Sixteenth,G4
2240,Right,0,73,80,329.5,0.239583,Sixteenth,C#5
2241,Right,0,64,80,329.75,0.239583,Sixteenth,E4
2242,Right,0,67,80,330.0,0.239583,Sixteenth,G4
2243,Right,0,64,80,330.25,0.239583,Sixteenth,E4
2244,Right,0,70,80,330.5,0.239583,Sixteenth,A#4
2245,Right,0,61,80,330.75,0.239583,Sixteenth,C#4
2246,Right,0,68,80,331.0,0.239583,Sixteenth,G#4
2247,Left,1,32,80,331.0,3.989583,Whole,G#1
2248,Right,0,63,80,331.25,0.239583,Sixteenth,D#4
2249,Right,0,72,80,331.5,0.239583,Sixteenth,C5
2250,Left,1,44,80,331.5,3.489583,DottedHalf,G#2
2251,Right,0,60,80,331.75,0.239583,Sixteenth,C4
2252,Right,0,68,80,332.0,0.239583,Sixteenth,G#4
2253,Right,0,65,80,332.25,0.239583,Sixteenth,F4
2254,Right,0,70,80,332.5,0.239583,Sixteenth,A#4
2255,Right,0,62,80,332.75,0.239583,Sixteenth,D4
2256,Right,0,66,80,333.0,0.239583,Sixteenth,F#4
2257,Right,0,63,80,333.25,0.239583,Sixteenth,D#4
2258,Right,0,68,80,333.5,0.239583,Sixteenth,G#4
2259,Right,0,60,80,333.75,0.239583,Sixteenth,C4
2260,Right,0,65,80,334.0,0.239583,Sixteenth,F4
2261,Right,0,61,80,334.25,0.239583,Sixteenth,C#4
2262,Right,0,66,80,334.5,0.989583,Quarter,F#4
2263,Right,0,58,80,334.75,0.239583,Sixteenth,A#3
2264,Left,1,32,80,335.0,3.989583,Whole,G#1
2265,Right,0,63,80,335.0,0.239583,Sixteenth,D#4
2266,Right,0,57,80,335.25,0.239583,Sixteenth,A3
2268,Right,0,61,80,335.5,0.489583,Sixteenth,F4_C#4
2267,Left,1,44,80,335.5,3.489583,DottedHalf,G#2
2270,Right,0,58,80,335.75,0.239583,Sixteenth,A#3
2271,Right,0,61,80,336.0,0.239583,Sixteenth,C#4
2272,Right,0,58,80,336.25,0.239583,Sixteenth,A#3
2273,Right,0,64,80,336.5,0.239583,Sixteenth,E4
2274,Right,0,55,80,336.75,0.239583,Sixteenth,G3
2275,Right,0,58,80,337.0,0.239583,Sixteenth,A#3
2276,Right,0,55,80,337.25,0.239583,Sixteenth,G3
2277,Right,0,61,80,337.5,0.239583,Sixteenth,C#4
2278,Right,0,52,80,337.75,0.239583,Sixteenth,E3
2279,Right,0,55,80,338.0,0.239583,Sixteenth,G3
2280,Right,0,52,80,338.25,0.239583,Sixteenth,E3
2281,Right,0,58,80,338.5,0.239583,Sixteenth,A#3
2282,Right,0,49,80,338.75,0.239583,Sixteenth,C#3
2284,Right,0,56,80,339.0,0.239583,Sixteenth,G#3
2283,Left,1,32,80,339.0,3.989583,Whole,G#1
2285,Right,0,51,80,339.25,0.239583,Sixteenth,D#3
2287,Left,1,44,80,339.5,3.489583,DottedHalf,G#2
2286,Right,0,60,80,339.5,0.239583,Sixteenth,C4
2288,Right,0,48,80,339.75,0.239583,Sixteenth,C3
2289,Right,0,61,80,340.0,0.239583,Sixteenth,C#4
2290,Right,0,58,80,340.25,0.239583,Sixteenth,A#3
2291,Right,0,64,80,340.5,0.239583,Sixteenth,E4
2292,Right,0,55,80,340.75,0.239583,Sixteenth,G3
2293,Right,0,58,80,341.0,0.239583,Sixteenth,A#3
2294,Right,0,55,80,341.25,0.239583,Sixteenth,G3
2295,Right,0,61,80,341.5,0.239583,Sixteenth,C#4
2296,Right,0,52,80,341.75,0.239583,Sixteenth,E3
2297,Right,0,55,80,342.0,0.239583,Sixteenth,G3
2298,Right,0,52,80,342.25,0.239583,Sixteenth,E3
2299,Right,0,58,80,342.5,0.239583,Sixteenth,A#3
2300,Right,0,49,80,342.75,0.239583,Sixteenth,C#3
2301,Right,0,56,80,343.0,0.239583,Sixteenth,G#3
2302,Left,1,32,80,343.0,3.989583,Whole,G#1
2303,Right,0,51,80,343.25,0.239583,Sixteenth,D#3
2305,Left,1,44,80,343.5,3.489583,DottedHalf,G#2
2304,Right,0,60,80,343.5,0.239583,Sixteenth,C4
2306,Right,0,48,80,343.75,0.239583,Sixteenth,C3
2307,Right,0,61,80,344.0,0.239583,Sixteenth,C#4
2308,Right,0,58,80,344.25,0.239583,Sixteenth,A#3
2309,Right,0,64,80,344.5,0.239583,Sixteenth,E4
2310,Right,0,55,80,344.75,0.239583,Sixteenth,G3
2311,Right,0,58,80,345.0,0.239583,Sixteenth,A#3
2312,Right,0,55,80,345.25,0.239583,Sixteenth,G3
2313,Right,0,61,80,345.5,0.239583,Sixteenth,C#4
2314,Right,0,52,79,345.75,0.239583,Sixteenth,E3
2315,Right,0,55,79,346.0,0.239583,Sixteenth,G3
2316,Right,0,52,78,346.25,0.239583,Sixteenth,E3
2317,Right,0,58,78,346.5,0.239583,Sixteenth,A#3
2318,Right,0,49,77,346.75,0.239583,Sixteenth,C#3
2319,Right,0,56,77,347.0,0.989583,Quarter,G#3
2320,Left,1,32,77,347.0,3.989583,Whole,G#1
2321,Right,0,60,76,347.5,0.989583,Quarter,C4
2322,Right,0,51,75,348.0,0.239583,Sixteenth,D#3
2323,Right,0,48,74,348.25,0.489583,Eighth,C3
2324,Right,0,56,74,348.5,0.989583,Quarter,G#3
2325,Right,0,48,73,349.0,0.239583,Sixteenth,C3
2326,Right,0,44,73,349.25,0.489583,Eighth,G#2
2327,Right,0,51,72,349.5,0.989583,Quarter,D#3
2328,Right,0,44,71,350.0,0.239583,Sixteenth,G#2
2329,Right,0,39,71,350.25,0.989583,Quarter,D#2
2330,Right,0,48,70,350.5,4.489583,Whole,C3
2331,Right,0,36,70,350.75,4.239583,Whole,C2
2332,Left,1,32,69,351.0,3.989583,Whole,G#1
2333,Right,0,44,1,357.0,0.489583,Eighth,G#2
