,hand,channel,note,velocity,start_beat,duration,note_value,chord
1,Left,1,44,80,0.0,2.989583,DottedHalf,G#3_G#2_F3_D#3
0,Right,0,72,80,0.0,1.989583,Half,D#4_C5_C4
7,Right,0,65,80,0.75,0.239583,Sixteenth,F4
8,Right,0,65,80,1.0,0.989583,Quarter,F4
13,Right,0,72,80,3.0,1.989583,Half,D#4_C5_C4
9,Left,1,56,80,3.0,2.989583,DottedHalf,G#3_G#2_F3_D#3
16,Right,0,65,80,3.75,0.239583,Sixteenth,F4
17,Right,0,65,80,4.0,0.989583,Quarter,F4
18,Right,0,60,80,6.0,0.989583,Quarter,F4_D#4_C4
21,Left,1,39,80,6.0,0.989583,Quarter,G#1_D#2
26,Left,1,32,83,7.0,0.989583,Quarter,G#1_D#2
23,Right,0,65,83,7.0,0.989583,Quarter,F4_D#4_C4
28,Left,1,39,86,8.0,0.989583,Quarter,G#1_D#2
30,Right,0,60,86,8.0,0.989583,Quarter,F4_D#4_C4
33,Left,1,39,89,9.0,2.989583,DottedHalf,D#2_A1
35,Right,0,66,89,9.0,2.989583,DottedHalf,F#4_D#4_C4
38,Left,1,51,99,12.0,0.989583,Quarter,F#3_D#3_A2
40,Right,0,63,99,12.0,0.989583,Quarter,F#4_D#4_C4
46,Left,1,51,103,13.0,0.989583,Quarter,F#3_D#3_A2
44,Right,0,60,103,13.0,0.989583,Quarter,F#4_D#4_C4
50,Left,1,45,106,14.0,0.989583,Quarter,F#3_D#3_A2
53,Right,0,60,106,14.0,0.989583,Quarter,F#4_D#4_C4
56,Left,1,51,109,15.0,2.989583,DottedHalf,G3_D#3_A#2
57,Right,0,58,109,15.0,2.989583,DottedHalf,G4_D#4_A#3
62,Left,1,34,80,18.0,0.989583,Quarter,A#2_A#1
64,Right,0,62,80,18.0,0.989583,Quarter,G4_G#3_D4
67,Right,0,65,80,18.5,0.489583,Eighth,F4
70,Left,1,34,80,19.0,0.989583,Quarter,A#2_A#1
68,Right,0,62,80,19.0,0.989583,Quarter,G#3_F4_D4
73,Right,0,67,80,19.25,0.239583,Sixteenth,G4
74,Right,0,65,80,19.5,0.239583,Sixteenth,F4
75,Right,0,64,80,19.75,0.239583,Sixteenth,E4
78,Right,0,56,80,20.0,0.989583,Quarter,G#3_F4_D4
76,Left,1,34,80,20.0,0.989583,Quarter,A#2_A#1
81,Right,0,67,80,20.5,0.489583,Eighth,G4
83,Right,0,55,80,21.0,0.239583,Sixteenth,G3_D#4
82,Left,1,39,80,21.0,0.989583,Quarter,D#3_D#2
86,Right,0,65,80,21.25,0.239583,Sixteenth,F4
87,Right,0,63,80,21.5,0.239583,Sixteenth,D#4
88,Right,0,62,80,21.75,0.239583,Sixteenth,D4
89,Right,0,63,80,22.0,0.322917,Triplet,D#4
90,Right,0,65,80,22.333333,0.322917,Triplet,F4
91,Right,0,67,80,22.666667,0.322917,Triplet,G4
92,Right,0,68,80,23.0,0.322917,Triplet,G#4
93,Right,0,70,80,23.333333,0.322917,Triplet,A#4
94,Right,0,72,80,23.666667,0.322917,Triplet,C5
95,Right,0,74,80,24.0,0.322917,Triplet,D5
96,Right,0,75,80,24.333333,0.322917,Triplet,D#5
97,Right,0,77,80,24.666667,0.322917,Triplet,F5
98,Right,0,78,80,25.0,0.322917,Triplet,F#5
99,Right,0,79,80,25.333333,0.322917,Triplet,G5
100,Right,0,80,80,25.666667,0.322917,Triplet,G#5
101,Right,0,81,80,26.0,0.322917,Triplet,A5
102,Right,0,82,80,26.333333,0.322917,Triplet,A#5
103,Right,0,83,80,26.666667,0.322917,Triplet,B5
104,Left,1,72,80,27.0,2.989583,DottedHalf,G#4_D#5_C5
107,Right,0,84,80,27.0,0.739583,DottedEighth,C6
108,Right,0,77,80,27.75,0.239583,Sixteenth,F5
109,Right,0,77,80,28.0,1.989583,Half,F5
113,Right,0,71,80,30.0,0.114583,ThirtySecond,B4
110,Left,1,60,80,30.0,2.989583,DottedHalf,G#3_D#4_C4
114,Right,0,72,80,30.114583,0.614583,Eighth,C5
115,Right,0,65,80,30.75,0.239583,Sixteenth,F4
116,Right,0,65,80,31.0,1.989583,Half,F4
120,Left,1,44,80,33.0,0.989583,Quarter,G#2_G#1
117,Right,0,51,80,33.0,0.989583,Quarter,F3_D#3_C3
123,Right,0,48,83,34.0,0.989583,Quarter,F3_D#3_C3
122,Left,1,44,83,34.0,0.989583,Quarter,G#2_G#1
127,Right,0,48,86,35.0,0.989583,Quarter,F3_D#3_C3
130,Left,1,32,86,35.0,0.989583,Quarter,G#2_G#1
132,Right,0,48,90,36.0,2.989583,DottedHalf,F#3_D#3_C3
135,Left,1,45,90,36.0,2.989583,DottedHalf,A2_A1
137,Left,1,69,100,39.0,0.989583,Quarter,A4
138,Right,0,78,100,39.0,0.989583,Quarter,F#5_D#5_C5
141,Right,0,78,104,40.0,0.989583,Quarter,F#5_D#5_C5
144,Left,1,69,104,40.0,0.989583,Quarter,A4
145,Right,0,78,107,41.0,0.989583,Quarter,F#5_D#5_C5
148,Left,1,69,107,41.0,0.989583,Quarter,A4
150,Right,0,79,110,42.0,2.989583,DottedHalf,G5_D#5
149,Left,1,70,110,42.0,2.989583,DottedHalf,A#4
152,Left,1,34,80,45.0,0.989583,Quarter,A#2_A#1
154,Right,0,67,80,45.0,0.989583,Quarter,G4_G#3_D4
157,Right,0,65,80,45.5,0.489583,Eighth,F4
160,Right,0,65,80,46.0,0.989583,Quarter,G#3_F4_D4
158,Left,1,34,80,46.0,0.989583,Quarter,A#2_A#1
163,Right,0,67,80,46.25,0.239583,Sixteenth,G4
164,Right,0,65,80,46.5,0.239583,Sixteenth,F4
165,Right,0,64,80,46.75,0.239583,Sixteenth,E4
167,Right,0,65,80,47.0,0.989583,Quarter,G#3_F4_D4
166,Left,1,34,80,47.0,0.989583,Quarter,A#2_A#1
171,Right,0,67,80,47.5,0.489583,Eighth,G4
174,Left,1,51,80,48.0,0.489583,Eighth,D#3_D#2
172,Right,0,63,80,48.0,0.989583,Quarter,G3_D#4
176,Left,1,51,80,48.5,0.489583,Eighth,D#3
177,Left,1,51,80,49.0,0.489583,Eighth,D#3
178,Left,1,51,80,49.5,0.489583,Eighth,D#3
179,Left,1,51,80,50.0,0.489583,Eighth,D#3
180,Left,1,51,80,50.5,0.489583,Eighth,D#3
184,Right,0,86,80,51.0,0.114583,ThirtySecond,D6
181,Left,1,51,80,51.0,2.989583,DottedHalf,D#4_D#3_C4
185,Right,0,87,80,51.125,0.614583,Eighth,D#6
186,Left,1,51,80,51.5,0.489583,Eighth,D#3
187,Right,0,80,80,51.75,0.239583,Sixteenth,G#5
189,Right,0,80,80,52.0,0.989583,Quarter,G#5
188,Left,1,51,80,52.0,0.489583,Eighth,D#3
190,Left,1,51,80,52.5,0.489583,Eighth,D#3
191,Left,1,51,80,53.0,0.489583,Eighth,D#3
192,Left,1,51,80,53.5,0.489583,Eighth,D#3
193,Right,0,74,80,54.0,0.114583,ThirtySecond,D5
194,Left,1,58,80,54.0,2.989583,DottedHalf,D4_D#3_A#3
197,Right,0,75,80,54.125,0.614583,Eighth,D#5
198,Left,1,51,80,54.5,0.489583,Eighth,D#3
199,Right,0,67,80,54.75,0.239583,Sixteenth,G4
201,Right,0,67,80,55.0,0.989583,Quarter,G4
200,Left,1,51,80,55.0,0.489583,Eighth,D#3
202,Left,1,51,80,55.5,0.489583,Eighth,D#3
203,Left,1,51,80,56.0,0.489583,Eighth,D#3
204,Left,1,51,80,56.5,0.489583,Eighth,D#3
205,Left,1,56,80,57.0,0.989583,Quarter,G#3_D#3_C4
207,Right,0,75,80,57.0,0.239583,Sixteenth,D#5
209,Right,0,65,80,57.25,0.239583,Sixteenth,F4
210,Left,1,51,80,57.5,0.489583,Eighth,D#3
212,Right,0,75,80,58.0,0.239583,Sixteenth,D#5
211,Left,1,56,80,58.0,0.989583,Quarter,G#3_D#3_C4
215,Right,0,65,80,58.25,0.239583,Sixteenth,F4
216,Left,1,51,80,58.5,0.489583,Eighth,D#3
217,Right,0,74,80,59.0,0.239583,Sixteenth,D5
218,Left,1,56,80,59.0,0.989583,Quarter,G#3_D#3_B3
221,Right,0,65,80,59.25,0.239583,Sixteenth,F4
222,Left,1,51,80,59.5,0.489583,Eighth,D#3
226,Right,0,75,80,60.0,0.239583,Sixteenth,D#5
223,Left,1,55,80,60.0,0.989583,Quarter,G3_D#3_A#3
227,Right,0,63,80,60.25,0.239583,Sixteenth,D#4
228,Left,1,51,80,60.5,0.489583,Eighth,D#3
229,Left,1,51,80,61.0,0.489583,Eighth,D#3
230,Left,1,51,80,61.5,0.489583,Eighth,D#3
231,Left,1,51,80,62.0,0.489583,Eighth,D#3
232,Left,1,51,80,62.5,0.489583,Eighth,D#3
233,Left,1,60,80,63.0,2.989583,DottedHalf,D#4_D#3_C4
235,Right,0,87,80,63.0,0.1875,TripletSixteenth,D#6
237,Right,0,89,80,63.125,0.208333,Sixteenth,F6
238,Right,0,87,80,63.25,0.229167,Sixteenth,D#6
239,Right,0,89,80,63.375,0.1875,TripletSixteenth,F6
241,Right,0,87,80,63.5,0.208333,Sixteenth,D#6
240,Left,1,51,80,63.5,0.489583,Eighth,D#3
242,Right,0,89,80,63.625,0.197917,TripletSixteenth,F6
243,Right,0,86,80,63.75,0.1875,TripletSixteenth,D6
244,Right,0,87,80,63.875,0.114583,ThirtySecond,D#6
246,Right,0,80,80,64.0,0.989583,Quarter,G#5
245,Left,1,51,80,64.0,0.489583,Eighth,D#3
247,Left,1,51,80,64.5,0.489583,Eighth,D#3
248,Left,1,51,80,65.0,0.489583,Eighth,D#3
249,Left,1,51,80,65.5,0.489583,Eighth,D#3
250,Left,1,58,80,66.0,2.989583,DottedHalf,D4_D#3_A#3
253,Right,0,75,80,66.0,0.1875,TripletSixteenth,D#5
254,Right,0,77,80,66.125,0.208333,Sixteenth,F5
255,Right,0,75,80,66.25,0.229167,Sixteenth,D#5
256,Right,0,77,80,66.375,0.1875,TripletSixteenth,F5
257,Right,0,75,80,66.5,0.208333,Sixteenth,D#5
258,Left,1,51,80,66.5,0.489583,Eighth,D#3
259,Right,0,77,80,66.625,0.197917,TripletSixteenth,F5
260,Right,0,74,80,66.75,0.1875,TripletSixteenth,D5
261,Right,0,75,80,66.875,0.114583,ThirtySecond,D#5
262,Right,0,67,80,67.0,0.989583,Quarter,G4
263,Left,1,51,80,67.0,0.489583,Eighth,D#3
264,Left,1,51,80,67.5,0.489583,Eighth,D#3
265,Left,1,51,80,68.0,0.489583,Eighth,D#3
266,Left,1,51,80,68.5,0.489583,Eighth,D#3
267,Right,0,75,80,69.0,0.239583,Sixteenth,D#5
268,Left,1,60,80,69.0,0.989583,Quarter,G#3_D#3_C4
271,Right,0,65,80,69.25,0.239583,Sixteenth,F4
272,Left,1,51,80,69.5,0.489583,Eighth,D#3
274,Left,1,56,80,70.0,0.989583,Quarter,G#3_D#3_C4
273,Right,0,75,80,70.0,0.239583,Sixteenth,D#5
277,Right,0,65,80,70.25,0.239583,Sixteenth,F4
278,Left,1,51,80,70.5,0.489583,Eighth,D#3
280,Left,1,59,80,71.0,0.989583,Quarter,G#3_D#3_B3
279,Right,0,74,80,71.0,0.239583,Sixteenth,D5
283,Right,0,65,80,71.25,0.239583,Sixteenth,F4
284,Left,1,51,80,71.5,0.489583,Eighth,D#3
287,Right,0,63,80,72.0,0.239583,Sixteenth,D#4
285,Left,1,51,80,72.0,0.989583,Quarter,G3_D#3_A#3
289,Right,0,65,80,72.25,0.239583,Sixteenth,F4
290,Right,0,63,80,72.5,0.239583,Sixteenth,D#4
291,Right,0,62,80,72.75,0.239583,Sixteenth,D4
292,Right,0,63,80,73.0,0.239583,Sixteenth,D#4
293,Right,0,65,80,73.25,0.239583,Sixteenth,F4
294,Right,0,67,80,73.5,0.239583,Sixteenth,G4
295,Right,0,68,80,73.75,0.239583,Sixteenth,G#4
296,Right,0,70,80,74.0,0.489583,Eighth,A#4
297,Right,0,67,80,74.5,0.489583,Eighth,G4
298,Left,1,55,80,74.5,0.489583,Eighth,G3
300,Right,0,65,80,75.0,0.489583,Eighth,F4
299,Left,1,53,80,75.0,0.489583,Eighth,F3
302,Right,0,68,80,75.5,0.489583,Eighth,G#4
301,Left,1,56,80,75.5,0.489583,Eighth,G#3
303,Right,0,62,80,76.0,0.489583,Eighth,D4
304,Left,1,50,80,76.0,0.489583,Eighth,D3
305,Right,0,65,80,76.5,0.489583,Eighth,F4
306,Left,1,53,80,76.5,0.489583,Eighth,F3
308,Left,1,46,80,77.0,0.489583,Eighth,A#2
307,Right,0,58,80,77.0,0.489583,Eighth,A#3
309,Left,1,50,80,77.5,0.489583,Eighth,D3
310,Right,0,62,80,77.5,0.489583,Eighth,D4
311,Left,1,51,80,78.0,0.989583,Quarter,D#3
312,Right,0,63,80,78.0,0.239583,Sixteenth,D#4
313,Right,0,65,80,78.25,0.239583,Sixteenth,F4
314,Right,0,63,80,78.5,0.239583,Sixteenth,D#4
315,Right,0,62,80,78.75,0.239583,Sixteenth,D4
316,Right,0,63,80,79.0,0.239583,Sixteenth,D#4
317,Right,0,65,80,79.25,0.239583,Sixteenth,F4
318,Right,0,67,80,79.5,0.239583,Sixteenth,G4
319,Right,0,68,80,79.75,0.239583,Sixteenth,G#4
321,Left,1,60,80,80.0,0.239583,Sixteenth,C4
320,Right,0,72,80,80.0,0.239583,Sixteenth,C5
322,Right,0,70,80,80.25,0.239583,Sixteenth,A#4
323,Left,1,58,80,80.25,0.239583,Sixteenth,A#3
325,Right,0,68,80,80.5,0.239583,Sixteenth,G#4
324,Left,1,56,80,80.5,0.239583,Sixteenth,G#3
327,Right,0,67,80,80.75,0.239583,Sixteenth,G4
326,Left,1,55,80,80.75,0.239583,Sixteenth,G3
328,Right,0,65,80,81.0,0.489583,Eighth,F4
329,Left,1,53,80,81.0,0.489583,Eighth,F3
330,Right,0,68,80,81.5,0.489583,Eighth,G#4
331,Left,1,56,80,81.5,0.489583,Eighth,G#3
333,Left,1,50,80,82.0,0.489583,Eighth,D3
332,Right,0,62,80,82.0,0.489583,Eighth,D4
335,Right,0,65,80,82.5,0.489583,Eighth,F4
334,Left,1,53,80,82.5,0.489583,Eighth,F3
337,Left,1,46,80,83.0,0.489583,Eighth,A#2
336,Right,0,58,80,83.0,0.489583,Eighth,A#3
338,Left,1,50,80,83.5,0.489583,Eighth,D3
339,Right,0,62,80,83.5,0.489583,Eighth,D4
341,Left,1,51,80,84.0,0.489583,Eighth,D#3
340,Right,0,63,80,84.0,0.489583,Eighth,D#4
343,Right,0,67,80,84.5,0.489583,Eighth,G4
342,Left,1,55,80,84.5,0.489583,Eighth,G3
345,Right,0,60,80,85.0,0.489583,Eighth,C4
344,Left,1,48,80,85.0,0.489583,Eighth,C3
347,Right,0,63,80,85.5,0.489583,Eighth,D#4
346,Left,1,51,80,85.5,0.489583,Eighth,D#3
348,Left,1,45,80,86.0,0.489583,Eighth,A2
349,Right,0,57,80,86.0,0.489583,Eighth,A3
350,Right,0,60,80,86.5,0.489583,Eighth,C4
351,Left,1,48,80,86.5,0.489583,Eighth,C3
353,Left,1,41,80,87.0,0.489583,Eighth,F2
352,Right,0,53,80,87.0,0.489583,Eighth,F3
355,Right,0,57,80,87.5,0.489583,Eighth,A3
354,Left,1,45,80,87.5,0.489583,Eighth,A2
356,Right,0,60,80,88.0,0.489583,Eighth,C4
357,Left,1,48,80,88.0,0.489583,Eighth,C3
359,Right,0,64,80,88.5,0.489583,Eighth,E4
358,Left,1,52,80,88.5,0.489583,Eighth,E3
361,Right,0,65,80,89.0,0.489583,Eighth,F4
360,Left,1,53,80,89.0,0.489583,Eighth,F3
363,Right,0,57,80,89.5,0.489583,Eighth,A3
362,Left,1,45,80,89.5,0.489583,Eighth,A2
364,Left,1,46,80,90.0,0.489583,Eighth,A#2
365,Right,0,58,80,90.0,0.489583,Eighth,A#3
367,Left,1,50,80,90.5,0.489583,Eighth,D3
366,Right,0,62,80,90.5,0.489583,Eighth,D4
368,Right,0,65,80,91.0,0.489583,Eighth,F4
369,Left,1,53,80,91.0,0.489583,Eighth,F3
370,Right,0,69,80,91.5,0.489583,Eighth,A4
371,Left,1,57,80,91.5,0.489583,Eighth,A3
372,Right,0,70,80,92.0,0.489583,Eighth,A#4
373,Left,1,58,80,92.0,0.489583,Eighth,A#3
374,Right,0,69,80,92.5,0.489583,Eighth,A4
375,Left,1,57,80,92.5,0.489583,Eighth,A3
376,Left,1,58,80,93.0,0.489583,Eighth,A#3
377,Right,0,70,80,93.0,0.489583,Eighth,A#4
378,Left,1,57,80,93.5,0.489583,Eighth,A3
379,Right,0,69,80,93.5,0.489583,Eighth,A4
381,Left,1,58,80,94.0,0.489583,Eighth,A#3
380,Right,0,70,80,94.0,0.489583,Eighth,A#4
383,Right,0,69,80,94.5,0.489583,Eighth,A4
382,Left,1,57,80,94.5,0.489583,Eighth,A3
385,Left,1,58,80,95.0,0.489583,Eighth,A#3
384,Right,0,70,80,95.0,0.489583,Eighth,A#4
386,Left,1,58,80,95.5,0.489583,Eighth,A#3
387,Right,0,70,80,95.5,0.489583,Eighth,A#4
388,Right,0,71,80,96.0,2.989583,DottedHalf,D#4_B4_B3
391,Left,1,53,80,96.0,2.989583,DottedHalf,G#3_G#2_F3_D#3
395,Right,0,65,80,96.75,0.239583,Sixteenth,F4
396,Right,0,65,80,97.0,1.489583,DottedQuarter,F4
397,Right,0,71,80,99.0,2.989583,DottedHalf,D#4_B4_B3
400,Left,1,56,80,99.0,2.989583,DottedHalf,G#3_G#2_F3_D#3
404,Right,0,65,80,99.75,0.239583,Sixteenth,F4
405,Right,0,65,80,100.0,1.489583,DottedQuarter,F4
406,Right,0,65,80,102.0,0.989583,Quarter,F4_D#4
407,Left,1,59,80,102.0,0.989583,Quarter,G#3_B3
412,Left,1,59,80,103.0,0.989583,Quarter,G#3_B3
410,Right,0,63,80,103.0,0.989583,Quarter,F4_D#4
414,Left,1,59,80,104.0,0.989583,Quarter,F#3_B3
415,Right,0,66,80,104.0,0.989583,Quarter,F#4_D#4
420,Left,1,53,80,105.0,2.989583,DottedHalf,F3_B3
418,Right,0,63,80,105.0,2.989583,Half,G#4_D#4
422,Right,0,62,80,107.0,0.989583,Quarter,D4
423,Right,0,77,80,108.0,0.989583,Quarter,F5_D#5
424,Left,1,71,80,108.0,0.989583,Quarter,G#4_B4
429,Left,1,71,80,109.0,0.989583,Quarter,G#4_B4
427,Right,0,77,80,109.0,0.989583,Quarter,F5_D#5
431,Right,0,78,80,110.0,0.989583,Quarter,F#5_D#5
433,Left,1,66,80,110.0,0.989583,Quarter,F#4_B4
437,Right,0,75,80,111.0,2.989583,Half,G#5_D#5
435,Left,1,71,80,111.0,2.989583,DottedHalf,F4_B4
439,Right,0,74,80,113.0,0.989583,Quarter,D5
442,Left,1,58,80,114.0,0.989583,Quarter,C#4_A#3
440,Right,0,67,80,114.0,0.989583,Quarter,G4_F4
444,Right,0,65,80,115.0,0.989583,Quarter,G4_F4
445,Left,1,61,80,115.0,0.989583,Quarter,C#4_A#3
448,Left,1,61,80,116.0,0.989583,Quarter,G#3_C#4
450,Right,0,65,80,116.0,0.989583,Quarter,G#4_F4
452,Left,1,55,80,117.0,2.989583,DottedHalf,G3_C#4
453,Right,0,65,80,117.0,2.989583,Half,F4_A#4
456,Right,0,64,80,119.0,0.989583,Quarter,E4
459,Left,1,73,80,120.0,0.989583,Quarter,C#5_A#4
457,Right,0,79,80,120.0,0.989583,Quarter,G5_F5
462,Right,0,79,80,121.0,0.989583,Quarter,G5_F5
461,Left,1,73,80,121.0,0.989583,Quarter,C#5_A#4
465,Left,1,73,80,122.0,0.989583,Quarter,G#4_C#5
467,Right,0,80,80,122.0,0.989583,Quarter,G#5_F5
469,Right,0,77,80,123.0,2.989583,Half,F5_A#5
471,Left,1,67,80,123.0,2.989583,DottedHalf,G4_C#5
473,Right,0,76,80,125.0,0.989583,Quarter,E5
474,Right,0,85,80,126.0,0.989583,Quarter,C#6
475,Right,0,76,80,127.0,0.989583,Quarter,E5
476,Left,1,70,80,127.0,0.989583,Quarter,F#4_A#4
478,Right,0,89,80,129.0,0.989583,Quarter,F6
481,Right,0,77,80,130.0,0.989583,Quarter,F5
479,Left,1,65,80,130.0,0.989583,Quarter,F4_A4
482,Left,1,53,80,131.0,0.989583,Quarter,F3
483,Left,1,41,80,132.0,0.989583,Quarter,F2
484,Left,1,29,80,133.0,0.989583,Quarter,F1
485,Right,0,77,80,134.5,0.489583,Eighth,F5
487,Left,1,50,80,135.0,0.239583,Sixteenth,D3
486,Right,0,82,80,135.0,1.489583,DottedQuarter,A#5
488,Left,1,58,80,135.25,0.239583,Sixteenth,A#3
489,Left,1,53,80,135.5,0.239583,Sixteenth,F3
490,Left,1,58,80,135.75,0.239583,Sixteenth,A#3
491,Left,1,50,80,136.0,0.239583,Sixteenth,D3
492,Left,1,58,80,136.25,0.239583,Sixteenth,A#3
493,Left,1,53,80,136.5,0.239583,Sixteenth,F3
494,Right,0,81,80,136.5,0.239583,Sixteenth,A5
495,Left,1,58,80,136.75,0.239583,Sixteenth,A#3
496,Right,0,82,80,136.75,0.239583,Sixteenth,A#5
497,Left,1,50,80,137.0,0.239583,Sixteenth,D3
498,Right,0,84,80,137.0,0.489583,Eighth,C6
499,Left,1,58,80,137.25,0.239583,Sixteenth,A#3
501,Left,1,53,80,137.5,0.239583,Sixteenth,F3
500,Right,0,82,80,137.5,0.489583,Eighth,A#5
502,Left,1,58,80,137.75,0.239583,Sixteenth,A#3
504,Right,0,77,80,138.0,1.489583,DottedQuarter,F5
503,Left,1,50,80,138.0,0.239583,Sixteenth,D3
505,Left,1,58,80,138.25,0.239583,Sixteenth,A#3
506,Left,1,53,80,138.5,0.239583,Sixteenth,F3
507,Left,1,58,80,138.75,0.239583,Sixteenth,A#3
508,Left,1,50,80,139.0,0.239583,Sixteenth,D3
509,Left,1,58,80,139.25,0.239583,Sixteenth,A#3
510,Right,0,79,80,139.5,0.239583,Sixteenth,G5
511,Left,1,53,80,139.5,0.239583,Sixteenth,F3
513,Left,1,58,80,139.75,0.239583,Sixteenth,A#3
512,Right,0,77,80,139.75,0.239583,Sixteenth,F5
514,Right,0,75,80,140.0,0.489583,Eighth,D#5
515,Left,1,50,80,140.0,0.239583,Sixteenth,D3
516,Left,1,58,80,140.25,0.239583,Sixteenth,A#3
517,Left,1,53,80,140.5,0.239583,Sixteenth,F3
518,Right,0,74,80,140.5,0.489583,Eighth,D5
519,Left,1,58,80,140.75,0.239583,Sixteenth,A#3
520,Left,1,51,80,141.0,0.239583,Sixteenth,D#3
521,Right,0,78,80,141.0,0.239583,Sixteenth,F#5
523,Right,0,79,80,141.25,0.239583,Sixteenth,G5
522,Left,1,58,80,141.25,0.239583,Sixteenth,A#3
524,Left,1,55,80,141.5,0.239583,Sixteenth,G3
525,Left,1,58,80,141.75,0.239583,Sixteenth,A#3
527,Left,1,51,80,142.0,0.239583,Sixteenth,D#3
526,Right,0,78,80,142.0,0.239583,Sixteenth,F#5
529,Left,1,58,80,142.25,0.239583,Sixteenth,A#3
528,Right,0,79,80,142.25,0.239583,Sixteenth,G5
530,Left,1,55,80,142.5,0.239583,Sixteenth,G3
531,Left,1,58,80,142.75,0.239583,Sixteenth,A#3
533,Left,1,51,80,143.0,0.239583,Sixteenth,D#3
532,Right,0,74,80,143.0,0.239583,Sixteenth,D5
535,Left,1,59,80,143.25,0.239583,Sixteenth,B3
534,Right,0,75,80,143.25,0.239583,Sixteenth,D#5
536,Left,1,55,80,143.5,0.239583,Sixteenth,G3
537,Left,1,59,80,143.75,0.239583,Sixteenth,B3
538,Right,0,71,80,144.0,0.239583,Sixteenth,B4
539,Left,1,51,80,144.0,0.239583,Sixteenth,D#3
541,Right,0,72,80,144.25,0.239583,Sixteenth,C5
540,Left,1,60,80,144.25,0.239583,Sixteenth,C4
542,Left,1,55,80,144.5,0.239583,Sixteenth,G3
543,Left,1,60,80,144.75,0.239583,Sixteenth,C4
544,Left,1,51,80,145.0,0.239583,Sixteenth,D#3
545,Left,1,60,80,145.25,0.239583,Sixteenth,C4
546,Left,1,55,80,145.5,0.239583,Sixteenth,G3
547,Left,1,60,80,145.75,0.239583,Sixteenth,C4
548,Left,1,52,80,146.0,0.239583,Sixteenth,E3
549,Left,1,60,80,146.25,0.239583,Sixteenth,C4
551,Left,1,58,80,146.5,0.239583,Sixteenth,A#3
550,Right,0,84,80,146.5,0.489583,Eighth,C6
552,Left,1,60,80,146.75,0.239583,Sixteenth,C4
554,Left,1,50,80,147.0,0.239583,Sixteenth,D3
553,Right,0,87,80,147.0,1.489583,DottedQuarter,D#6
555,Left,1,60,80,147.25,0.239583,Sixteenth,C4
556,Left,1,57,80,147.5,0.239583,Sixteenth,A3
557,Left,1,60,80,147.75,0.239583,Sixteenth,C4
558,Left,1,50,80,148.0,0.239583,Sixteenth,D3
559,Left,1,60,80,148.25,0.239583,Sixteenth,C4
560,Right,0,89,80,148.5,0.239583,Sixteenth,F6
561,Left,1,57,80,148.5,0.239583,Sixteenth,A3
562,Left,1,60,80,148.75,0.239583,Sixteenth,C4
563,Right,0,87,80,148.75,0.239583,Sixteenth,D#6
565,Left,1,50,80,149.0,0.239583,Sixteenth,D3
564,Right,0,86,80,149.0,0.489583,Eighth,D6
566,Left,1,60,80,149.25,0.239583,Sixteenth,C4
567,Left,1,57,80,149.5,0.239583,Sixteenth,A3
568,Right,0,84,80,149.5,0.489583,Eighth,C6
569,Left,1,60,80,149.75,0.239583,Sixteenth,C4
570,Left,1,53,80,150.0,0.239583,Sixteenth,F3
571,Right,0,82,80,150.0,0.489583,Eighth,A#5
572,Left,1,63,80,150.25,0.239583,Sixteenth,D#4
573,Left,1,60,80,150.5,0.239583,Sixteenth,C4
574,Right,0,81,80,150.5,0.489583,Eighth,A5
575,Left,1,63,80,150.75,0.239583,Sixteenth,D#4
577,Right,0,79,80,151.0,0.489583,Eighth,G5
576,Left,1,53,80,151.0,0.239583,Sixteenth,F3
578,Left,1,63,80,151.25,0.239583,Sixteenth,D#4
580,Right,0,77,80,151.5,0.489583,Eighth,F5
579,Left,1,57,80,151.5,0.239583,Sixteenth,A3
581,Left,1,63,80,151.75,0.239583,Sixteenth,D#4
582,Left,1,54,80,152.0,0.239583,Sixteenth,F#3
583,Right,0,75,80,152.0,0.489583,Eighth,D#5
584,Left,1,63,80,152.25,0.239583,Sixteenth,D#4
585,Right,0,72,80,152.5,0.489583,Eighth,C5
586,Left,1,57,80,152.5,0.239583,Sixteenth,A3
587,Left,1,63,80,152.75,0.239583,Sixteenth,D#4
588,Left,1,55,80,153.0,0.239583,Sixteenth,G3
589,Right,0,70,80,153.0,0.489583,Eighth,A#4
590,Left,1,62,80,153.25,0.239583,Sixteenth,D4
592,Right,0,74,80,153.5,0.489583,Eighth,D5
591,Left,1,58,80,153.5,0.239583,Sixteenth,A#3
593,Left,1,62,80,153.75,0.239583,Sixteenth,D4
594,Left,1,51,80,154.0,0.239583,Sixteenth,D#3
595,Right,0,67,80,154.0,0.489583,Eighth,G4
596,Left,1,60,80,154.25,0.239583,Sixteenth,C4
598,Right,0,75,80,154.5,0.489583,Eighth,D#5
597,Left,1,55,80,154.5,0.239583,Sixteenth,G3
599,Left,1,60,80,154.75,0.239583,Sixteenth,C4
600,Left,1,53,80,155.0,0.239583,Sixteenth,F3
601,Right,0,69,80,155.0,0.489583,Eighth,A4
602,Left,1,60,80,155.25,0.239583,Sixteenth,C4
603,Right,0,72,80,155.5,0.489583,Eighth,C5
604,Left,1,57,80,155.5,0.239583,Sixteenth,A3
605,Left,1,63,80,155.75,0.239583,Sixteenth,D#4
606,Left,1,46,80,156.0,0.989583,Quarter,A#3_A#2
607,Right,0,70,80,156.0,0.239583,Sixteenth,A#4
609,Right,0,62,80,156.25,0.239583,Sixteenth,D4
610,Right,0,65,80,156.5,0.239583,Sixteenth,F4
611,Right,0,63,80,156.75,0.239583,Sixteenth,D#4
612,Right,0,62,80,157.0,0.166667,TripletSixteenth,D4
613,Right,0,63,80,157.177083,0.166667,TripletSixteenth,D#4
614,Right,0,65,80,157.458333,0.166667,TripletSixteenth,F4
615,Right,0,67,80,157.645833,0.166667,TripletSixteenth,G4
616,Right,0,69,80,157.802083,0.166667,TripletSixteenth,A4
617,Right,0,70,80,158.0,0.15625,TripletSixteenth,A#4
618,Right,0,69,80,158.15625,0.15625,TripletSixteenth,A4
619,Right,0,72,80,158.333333,0.15625,TripletSixteenth,C5
620,Right,0,70,80,158.5,0.15625,TripletSixteenth,A#4
621,Right,0,74,80,158.666667,0.15625,TripletSixteenth,D5
622,Right,0,72,80,158.833333,0.15625,TripletSixteenth,C5
623,Right,0,70,80,159.0,0.15625,TripletSixteenth,A#4
624,Right,0,69,80,159.166667,0.15625,TripletSixteenth,A4
625,Right,0,67,80,159.333333,0.15625,TripletSixteenth,G4
626,Right,0,65,80,159.5,0.15625,TripletSixteenth,F4
627,Right,0,67,80,159.666667,0.15625,TripletSixteenth,G4
628,Right,0,63,80,159.833333,0.15625,TripletSixteenth,D#4
629,Right,0,62,80,160.0,0.15625,TripletSixteenth,D4
630,Right,0,65,80,160.166667,0.15625,TripletSixteenth,F4
631,Right,0,63,80,160.333333,0.15625,TripletSixteenth,D#4
632,Right,0,65,80,160.5,0.15625,TripletSixteenth,F4
633,Right,0,67,80,160.666667,0.15625,TripletSixteenth,G4
634,Right,0,69,80,160.833333,0.15625,TripletSixteenth,A4
635,Right,0,70,80,161.0,0.239583,Sixteenth,A#4
636,Right,0,69,80,161.25,0.239583,Sixteenth,A4
637,Right,0,67,80,161.5,0.239583,Sixteenth,G4
638,Right,0,65,80,161.75,0.239583,Sixteenth,F4
639,Right,0,67,80,162.0,0.239583,Sixteenth,G4
640,Right,0,69,80,162.25,0.239583,Sixteenth,A4
641,Right,0,70,80,162.5,0.239583,Sixteenth,A#4
642,Right,0,72,80,162.75,0.239583,Sixteenth,C5
643,Right,0,74,80,163.0,0.239583,Sixteenth,D5
644,Right,0,72,80,163.25,0.239583,Sixteenth,C5
645,Right,0,70,80,163.5,0.239583,Sixteenth,A#4
646,Right,0,69,80,163.75,0.239583,Sixteenth,A4
647,Right,0,70,80,164.0,0.239583,Sixteenth,A#4
648,Right,0,72,80,164.25,0.239583,Sixteenth,C5
649,Right,0,74,80,164.5,0.239583,Sixteenth,D5
650,Right,0,75,80,164.75,0.239583,Sixteenth,D#5
651,Right,0,79,80,165.0,0.239583,Sixteenth,G5
652,Right,0,77,80,165.25,0.239583,Sixteenth,F5
653,Right,0,75,80,165.5,0.239583,Sixteenth,D#5
654,Right,0,74,80,165.75,0.239583,Sixteenth,D5
655,Right,0,77,80,166.0,0.322917,Triplet,F5
656,Right,0,75,80,166.333333,0.322917,Triplet,D#5
657,Right,0,74,80,166.666667,0.322917,Triplet,D5
658,Right,0,75,80,167.0,0.239583,Sixteenth,D#5
659,Right,0,77,80,167.25,0.239583,Sixteenth,F5
660,Right,0,79,80,167.5,0.239583,Sixteenth,G5
661,Right,0,81,80,167.75,0.239583,Sixteenth,A5
663,Right,0,82,80,168.0,1.489583,DottedQuarter,A#5
662,Left,1,50,80,168.0,0.239583,Sixteenth,D3
664,Left,1,58,80,168.25,0.239583,Sixteenth,A#3
665,Left,1,53,80,168.5,0.239583,Sixteenth,F3
666,Left,1,58,80,168.75,0.239583,Sixteenth,A#3
667,Left,1,50,80,169.0,0.239583,Sixteenth,D3
668,Left,1,58,80,169.25,0.239583,Sixteenth,A#3
670,Left,1,53,80,169.5,0.239583,Sixteenth,F3
669,Right,0,81,80,169.5,0.239583,Sixteenth,A5
672,Left,1,58,80,169.75,0.239583,Sixteenth,A#3
671,Right,0,82,80,169.75,0.239583,Sixteenth,A#5
674,Right,0,81,80,170.0,0.239583,Sixteenth,A5
673,Left,1,50,80,170.0,0.239583,Sixteenth,D3
675,Right,0,82,80,170.25,0.239583,Sixteenth,A#5
676,Left,1,58,80,170.25,0.239583,Sixteenth,A#3
678,Right,0,84,80,170.5,0.239583,Sixteenth,C6
677,Left,1,53,80,170.5,0.239583,Sixteenth,F3
679,Right,0,82,80,170.75,0.239583,Sixteenth,A#5
680,Left,1,58,80,170.75,0.239583,Sixteenth,A#3
681,Left,1,50,80,171.0,0.239583,Sixteenth,D3
682,Right,0,77,80,171.0,1.489583,DottedQuarter,F5
683,Left,1,58,80,171.25,0.239583,Sixteenth,A#3
684,Left,1,53,80,171.5,0.239583,Sixteenth,F3
685,Left,1,58,80,171.75,0.239583,Sixteenth,A#3
686,Left,1,50,80,172.0,0.239583,Sixteenth,D3
687,Left,1,58,80,172.25,0.239583,Sixteenth,A#3
688,Left,1,53,80,172.5,0.239583,Sixteenth,F3
689,Right,0,76,80,172.5,0.239583,Sixteenth,E5
690,Left,1,58,80,172.75,0.239583,Sixteenth,A#3
691,Right,0,77,80,172.75,0.239583,Sixteenth,F5
692,Right,0,79,80,173.0,0.239583,Sixteenth,G5
693,Left,1,50,80,173.0,0.239583,Sixteenth,D3
694,Right,0,77,80,173.25,0.239583,Sixteenth,F5
695,Left,1,58,80,173.25,0.239583,Sixteenth,A#3
697,Left,1,53,80,173.5,0.239583,Sixteenth,F3
696,Right,0,75,80,173.5,0.239583,Sixteenth,D#5
699,Left,1,58,80,173.75,0.239583,Sixteenth,A#3
698,Right,0,74,80,173.75,0.239583,Sixteenth,D5
700,Left,1,51,80,174.0,0.239583,Sixteenth,D#3
701,Right,0,78,80,174.0,0.239583,Sixteenth,F#5
703,Right,0,79,80,174.25,0.239583,Sixteenth,G5
702,Left,1,58,80,174.25,0.239583,Sixteenth,A#3
704,Left,1,55,80,174.5,0.239583,Sixteenth,G3
705,Right,0,78,80,174.5,0.239583,Sixteenth,F#5
707,Right,0,79,80,174.75,0.239583,Sixteenth,G5
706,Left,1,58,80,174.75,0.239583,Sixteenth,A#3
708,Right,0,78,80,175.0,0.239583,Sixteenth,F#5
709,Left,1,51,80,175.0,0.239583,Sixteenth,D#3
710,Right,0,79,80,175.25,0.239583,Sixteenth,G5
711,Left,1,58,80,175.25,0.239583,Sixteenth,A#3
712,Left,1,55,80,175.5,0.239583,Sixteenth,G3
713,Right,0,78,80,175.5,0.239583,Sixteenth,F#5
714,Left,1,58,80,175.75,0.239583,Sixteenth,A#3
715,Right,0,79,80,175.75,0.239583,Sixteenth,G5
716,Left,1,51,80,176.0,0.239583,Sixteenth,D#3
717,Right,0,74,80,176.0,0.239583,Sixteenth,D5
719,Right,0,75,80,176.25,0.239583,Sixteenth,D#5
718,Left,1,59,80,176.25,0.239583,Sixteenth,B3
720,Left,1,55,80,176.5,0.239583,Sixteenth,G3
721,Right,0,74,80,176.5,0.239583,Sixteenth,D5
723,Right,0,75,80,176.75,0.239583,Sixteenth,D#5
722,Left,1,59,80,176.75,0.239583,Sixteenth,B3
725,Right,0,71,80,177.0,0.239583,Sixteenth,B4
724,Left,1,51,80,177.0,0.239583,Sixteenth,D#3
726,Left,1,60,80,177.25,0.239583,Sixteenth,C4
727,Right,0,72,80,177.25,0.239583,Sixteenth,C5
729,Left,1,55,80,177.5,0.239583,Sixteenth,G3
728,Right,0,71,80,177.5,0.239583,Sixteenth,B4
731,Left,1,60,80,177.75,0.239583,Sixteenth,C4
730,Right,0,72,80,177.75,0.239583,Sixteenth,C5
732,Left,1,51,80,178.0,0.239583,Sixteenth,D#3
733,Left,1,60,80,178.25,0.239583,Sixteenth,C4
734,Left,1,55,80,178.5,0.239583,Sixteenth,G3
735,Left,1,60,80,178.75,0.239583,Sixteenth,C4
736,Left,1,52,80,179.0,0.239583,Sixteenth,E3
737,Left,1,60,80,179.25,0.239583,Sixteenth,C4
738,Right,0,84,80,179.5,0.489583,Eighth,C6
739,Left,1,58,80,179.5,0.239583,Sixteenth,A#3
740,Left,1,60,80,179.75,0.239583,Sixteenth,C4
742,Right,0,87,80,180.0,1.489583,DottedQuarter,D#6
741,Left,1,50,80,180.0,0.239583,Sixteenth,D3
743,Left,1,60,80,180.25,0.239583,Sixteenth,C4
744,Left,1,57,80,180.5,0.239583,Sixteenth,A3
745,Left,1,60,80,180.75,0.239583,Sixteenth,C4
746,Left,1,50,80,181.0,0.239583,Sixteenth,D3
747,Left,1,60,80,181.25,0.239583,Sixteenth,C4
749,Right,0,86,80,181.5,0.239583,Sixteenth,D6
748,Left,1,57,80,181.5,0.239583,Sixteenth,A3
751,Right,0,87,80,181.75,0.239583,Sixteenth,D#6
750,Left,1,60,80,181.75,0.239583,Sixteenth,C4
752,Left,1,50,80,182.0,0.239583,Sixteenth,D3
753,Right,0,89,80,182.0,0.239583,Sixteenth,F6
755,Left,1,60,80,182.25,0.239583,Sixteenth,C4
754,Right,0,87,80,182.25,0.239583,Sixteenth,D#6
757,Right,0,86,80,182.5,0.239583,Sixteenth,D6
756,Left,1,57,80,182.5,0.239583,Sixteenth,A3
758,Right,0,84,80,182.75,0.239583,Sixteenth,C6
759,Left,1,60,80,182.75,0.239583,Sixteenth,C4
761,Left,1,53,80,183.0,0.239583,Sixteenth,F3
760,Right,0,82,80,183.0,0.239583,Sixteenth,A#5
762,Right,0,81,80,183.25,0.239583,Sixteenth,A5
763,Left,1,63,80,183.25,0.239583,Sixteenth,D#4
764,Right,0,86,80,183.5,0.239583,Sixteenth,D6
765,Left,1,60,80,183.5,0.239583,Sixteenth,C4
766,Left,1,63,80,183.75,0.239583,Sixteenth,D#4
767,Right,0,84,80,183.75,0.239583,Sixteenth,C6
769,Right,0,82,80,184.0,0.239583,Sixteenth,A#5
768,Left,1,53,80,184.0,0.239583,Sixteenth,F3
771,Right,0,81,80,184.25,0.239583,Sixteenth,A5
770,Left,1,63,80,184.25,0.239583,Sixteenth,D#4
773,Right,0,79,80,184.5,0.239583,Sixteenth,G5
772,Left,1,57,80,184.5,0.239583,Sixteenth,A3
774,Left,1,63,80,184.75,0.239583,Sixteenth,D#4
775,Right,0,77,80,184.75,0.239583,Sixteenth,F5
777,Left,1,54,80,185.0,0.239583,Sixteenth,F#3
776,Right,0,75,80,185.0,0.239583,Sixteenth,D#5
779,Left,1,63,80,185.25,0.239583,Sixteenth,D#4
778,Right,0,74,80,185.25,0.239583,Sixteenth,D5
780,Left,1,57,80,185.5,0.239583,Sixteenth,A3
781,Right,0,75,80,185.5,0.239583,Sixteenth,D#5
783,Right,0,72,80,185.75,0.489583,Eighth,C5
782,Left,1,63,80,185.75,0.239583,Sixteenth,D#4
784,Left,1,55,80,186.0,0.239583,Sixteenth,G3
786,Left,1,62,80,186.25,0.239583,Sixteenth,D4
785,Right,0,70,80,186.25,0.239583,Sixteenth,A#4
787,Left,1,58,80,186.5,0.239583,Sixteenth,A#3
788,Right,0,74,80,186.5,0.739583,DottedEighth,D5
789,Left,1,62,80,186.75,0.239583,Sixteenth,D4
790,Left,1,51,80,187.0,0.239583,Sixteenth,D#3
791,Left,1,60,80,187.25,0.239583,Sixteenth,C4
792,Right,0,67,80,187.25,0.239583,Sixteenth,G4
793,Left,1,55,80,187.5,0.239583,Sixteenth,G3
794,Right,0,75,80,187.5,0.739583,DottedEighth,D#5
795,Left,1,60,80,187.75,0.239583,Sixteenth,C4
796,Left,1,53,80,188.0,0.239583,Sixteenth,F3
797,Right,0,69,80,188.25,0.239583,Sixteenth,A4
798,Left,1,60,80,188.25,0.239583,Sixteenth,C4
800,Left,1,57,80,188.5,0.239583,Sixteenth,A3
799,Right,0,72,80,188.5,0.489583,Eighth,C5
801,Left,1,63,80,188.75,0.239583,Sixteenth,D#4
802,Right,0,70,80,189.0,0.489583,Eighth,A#4
803,Left,1,46,80,189.0,0.239583,Sixteenth,A#2
804,Left,1,50,80,189.25,0.239583,Sixteenth,D3
805,Left,1,51,80,189.5,0.239583,Sixteenth,D#3
806,Left,1,53,80,189.75,0.239583,Sixteenth,F3
807,Right,0,55,80,190.0,0.239583,Sixteenth,G3
808,Right,0,57,80,190.25,0.239583,Sixteenth,A3
809,Right,0,58,80,190.5,0.239583,Sixteenth,A#3
810,Right,0,60,80,190.75,0.239583,Sixteenth,C4
811,Right,0,62,80,191.0,0.239583,Sixteenth,D4
812,Right,0,63,80,191.25,0.239583,Sixteenth,D#4
813,Right,0,65,80,191.5,0.239583,Sixteenth,F4
814,Right,0,67,80,191.75,0.239583,Sixteenth,G4
815,Right,0,65,80,192.0,1.989583,Half,F4
816,Left,1,53,80,192.5,0.489583,Eighth,F3_C3_A2
819,Left,1,45,80,193.0,0.489583,Eighth,F3_C3_A2
822,Left,1,48,80,193.5,0.489583,Eighth,F3_C3_A2
828,Right,0,63,80,194.0,0.1875,TripletSixteenth,D#4
825,Left,1,45,80,194.0,0.489583,Eighth,F3_C3_A2
829,Right,0,65,80,194.125,0.197917,TripletSixteenth,F4
830,Right,0,63,80,194.25,0.208333,Sixteenth,D#4
831,Right,0,65,80,194.375,0.197917,TripletSixteenth,F4
832,Right,0,63,80,194.5,0.21875,Sixteenth,D#4
833,Left,1,48,80,194.5,0.489583,Eighth,F3_C3_A2
836,Right,0,65,80,194.625,0.21875,Sixteenth,F4
837,Right,0,62,80,194.75,0.197917,TripletSixteenth,D4
838,Right,0,63,80,194.875,0.114583,ThirtySecond,D#4
839,Left,1,58,80,195.0,0.239583,Sixteenth,A#3
840,Right,0,62,80,195.0,0.239583,Sixteenth,D4
841,Left,1,62,80,195.25,0.239583,Sixteenth,D4
842,Left,1,63,80,195.5,0.239583,Sixteenth,D#4
843,Left,1,65,80,195.75,0.239583,Sixteenth,F4
844,Right,0,67,80,196.0,0.239583,Sixteenth,G4
845,Right,0,69,80,196.25,0.239583,Sixteenth,A4
846,Right,0,70,80,196.5,0.239583,Sixteenth,A#4
847,Right,0,72,80,196.75,0.239583,Sixteenth,C5
848,Right,0,74,80,197.0,0.239583,Sixteenth,D5
849,Right,0,75,80,197.25,0.239583,Sixteenth,D#5
850,Right,0,77,80,197.5,0.239583,Sixteenth,F5
851,Right,0,79,80,197.75,0.239583,Sixteenth,G5
852,Right,0,77,80,198.0,1.989583,Half,F5
853,Left,1,65,80,198.5,0.489583,Eighth,F4_C4_A3
856,Left,1,60,80,199.0,0.489583,Eighth,F4_C4_A3
859,Left,1,57,80,199.5,0.489583,Eighth,F4_C4_A3
863,Left,1,65,80,200.0,0.489583,Eighth,F4_C4_A3
862,Right,0,75,80,200.0,0.1875,TripletSixteenth,D#5
866,Right,0,77,80,200.125,0.197917,TripletSixteenth,F5
867,Right,0,75,80,200.25,0.208333,Sixteenth,D#5
868,Right,0,77,80,200.375,0.197917,TripletSixteenth,F5
869,Left,1,65,80,200.5,0.489583,Eighth,F4_C4_A3
872,Right,0,75,80,200.5,0.21875,Sixteenth,D#5
873,Right,0,77,80,200.625,0.21875,Sixteenth,F5
874,Right,0,74,80,200.75,0.197917,TripletSixteenth,D5
875,Right,0,75,80,200.875,0.114583,ThirtySecond,D#5
876,Right,0,74,80,201.0,0.989583,Quarter,D5
877,Left,1,58,80,201.5,0.489583,Eighth,D4_A#3
879,Right,0,72,80,202.0,0.239583,Sixteenth,C5
880,Right,0,74,80,202.125,0.239583,Sixteenth,D5
881,Right,0,72,80,202.25,0.239583,Sixteenth,C5
882,Right,0,74,80,202.375,0.239583,Sixteenth,D5
884,Right,0,72,80,202.5,0.239583,Sixteenth,C5
883,Left,1,62,80,202.5,0.489583,Eighth,F#3_D4_A3
887,Right,0,74,81,202.625,0.239583,Sixteenth,D5
888,Right,0,71,81,202.75,0.239583,Sixteenth,B4
889,Right,0,72,81,202.875,0.239583,Sixteenth,C5
890,Right,0,70,81,203.0,0.989583,Quarter,A#4
891,Left,1,62,82,203.5,0.489583,Eighth,G3_D4_A#3
894,Right,0,68,83,204.0,0.239583,Sixteenth,G#4
895,Right,0,70,84,204.125,0.239583,Sixteenth,A#4
896,Right,0,68,84,204.25,0.239583,Sixteenth,G#4
897,Right,0,70,84,204.375,0.239583,Sixteenth,A#4
898,Right,0,68,84,204.5,0.239583,Sixteenth,G#4
899,Left,1,58,84,204.5,0.489583,Eighth,F3_D3_A#3
902,Right,0,70,85,204.625,0.239583,Sixteenth,A#4
903,Right,0,67,85,204.75,0.239583,Sixteenth,G4
904,Right,0,68,85,204.875,0.239583,Sixteenth,G#4
905,Right,0,67,85,205.0,0.989583,Quarter,G4
906,Left,1,58,86,205.5,0.489583,Eighth,G3_D#3_A#3
909,Right,0,65,87,206.0,0.114583,ThirtySecond,F4
910,Right,0,67,88,206.125,0.114583,ThirtySecond,G4
911,Right,0,65,88,206.25,0.114583,ThirtySecond,F4
912,Right,0,67,88,206.375,0.114583,ThirtySecond,G4
913,Left,1,55,88,206.5,0.489583,Eighth,G3_D3_B2
914,Right,0,65,88,206.5,0.114583,ThirtySecond,F4
917,Right,0,67,89,206.625,0.114583,ThirtySecond,G4
918,Right,0,64,89,206.75,0.114583,ThirtySecond,E4
919,Right,0,65,89,206.875,0.114583,ThirtySecond,F4
920,Right,0,64,89,207.0,0.989583,Quarter,E4
921,Left,1,48,90,207.5,0.489583,Eighth,G3_E3_C3
924,Right,0,63,91,208.0,0.239583,Sixteenth,D#4
925,Right,0,65,91,208.125,0.239583,Sixteenth,F4
926,Right,0,63,92,208.25,0.239583,Sixteenth,D#4
927,Right,0,65,92,208.375,0.239583,Sixteenth,F4
928,Left,1,53,92,208.5,0.489583,Eighth,F3_C3_A2
931,Right,0,63,92,208.5,0.239583,Sixteenth,D#4
932,Right,0,65,92,208.625,0.239583,Sixteenth,F4
933,Right,0,62,93,208.75,0.239583,Sixteenth,D4
934,Right,0,63,93,208.875,0.239583,Sixteenth,D#4
935,Right,0,62,93,209.0,0.989583,Quarter,D4
936,Left,1,53,94,209.5,0.489583,Eighth,F3_D3_A#2
939,Right,0,63,95,210.0,0.239583,Sixteenth,D#4
940,Right,0,65,95,210.125,0.239583,Sixteenth,F4
941,Right,0,63,96,210.25,0.239583,Sixteenth,D#4
942,Right,0,65,96,210.375,0.239583,Sixteenth,F4
945,Right,0,63,96,210.5,0.239583,Sixteenth,D#4
943,Left,1,53,96,210.5,0.489583,Eighth,F3_C3_A2
947,Right,0,65,96,210.625,0.239583,Sixteenth,F4
948,Right,0,62,97,210.75,0.239583,Sixteenth,D4
949,Right,0,63,97,210.875,0.239583,Sixteenth,D#4
950,Right,0,62,97,211.0,0.989583,Quarter,D4
951,Left,1,53,98,211.5,0.489583,Eighth,F3_D3_A#2
954,Right,0,63,99,212.0,0.239583,Sixteenth,D#4
955,Right,0,65,99,212.125,0.239583,Sixteenth,F4
956,Right,0,63,100,212.25,0.239583,Sixteenth,D#4
957,Right,0,65,100,212.375,0.239583,Sixteenth,F4
959,Right,0,63,100,212.5,0.239583,Sixteenth,D#4
958,Left,1,45,100,212.5,0.489583,Eighth,F3_C3_A2
962,Right,0,65,100,212.625,0.239583,Sixteenth,F4
963,Right,0,62,100,212.75,0.239583,Sixteenth,D4
964,Right,0,63,80,212.875,0.239583,Sixteenth,D#4
966,Right,0,62,80,213.0,0.239583,Sixteenth,D4
965,Left,1,50,80,213.0,0.489583,Eighth,F3_D3_A#2
969,Right,0,58,80,213.25,0.239583,Sixteenth,A#3
970,Right,0,53,80,213.5,0.239583,Sixteenth,F3
971,Right,0,58,80,213.75,0.239583,Sixteenth,A#3
972,Right,0,62,80,214.0,0.239583,Sixteenth,D4
973,Right,0,58,80,214.25,0.239583,Sixteenth,A#3
974,Right,0,65,80,214.5,0.239583,Sixteenth,F4
975,Right,0,62,80,214.75,0.239583,Sixteenth,D4
976,Right,0,70,80,215.0,0.239583,Sixteenth,A#4
977,Right,0,65,80,215.25,0.239583,Sixteenth,F4
978,Right,0,74,80,215.5,0.239583,Sixteenth,D5
979,Right,0,70,80,215.75,0.239583,Sixteenth,A#4
980,Right,0,65,80,216.0,0.239583,Sixteenth,F4
981,Right,0,62,80,216.25,0.239583,Sixteenth,D4
982,Right,0,70,80,216.5,0.239583,Sixteenth,A#4
983,Right,0,65,80,216.75,0.239583,Sixteenth,F4
984,Right,0,74,80,217.0,0.239583,Sixteenth,D5
985,Right,0,70,80,217.25,0.239583,Sixteenth,A#4
986,Right,0,77,80,217.5,0.239583,Sixteenth,F5
987,Right,0,74,80,217.75,0.239583,Sixteenth,D5
988,Right,0,70,80,218.0,0.239583,Sixteenth,A#4
989,Right,0,65,80,218.25,0.239583,Sixteenth,F4
990,Right,0,74,80,218.5,0.239583,Sixteenth,D5
991,Right,0,70,80,218.75,0.239583,Sixteenth,A#4
992,Right,0,77,80,219.0,0.239583,Sixteenth,F5
993,Right,0,74,80,219.25,0.239583,Sixteenth,D5
994,Right,0,82,80,219.5,0.239583,Sixteenth,A#5
995,Right,0,77,80,219.75,0.239583,Sixteenth,F5
996,Right,0,74,80,220.0,0.239583,Sixteenth,D5
997,Right,0,70,80,220.25,0.239583,Sixteenth,A#4
998,Right,0,77,80,220.5,0.239583,Sixteenth,F5
999,Right,0,74,80,220.75,0.239583,Sixteenth,D5
1000,Right,0,82,80,221.0,0.239583,Sixteenth,A#5
1001,Right,0,77,80,221.25,0.239583,Sixteenth,F5
1002,Right,0,86,80,221.5,0.239583,Sixteenth,D6
1003,Right,0,82,80,221.75,0.239583,Sixteenth,A#5
1004,Right,0,89,80,222.0,0.489583,Eighth,F6
1006,Left,1,65,80,222.5,0.489583,Eighth,F4
1005,Right,0,77,80,222.5,0.489583,Eighth,F5
1007,Left,1,70,80,223.0,0.489583,Eighth,A#4
1008,Right,0,82,80,223.0,0.489583,Eighth,A#5
1010,Left,1,74,80,223.5,0.489583,Eighth,D5
1009,Right,0,86,80,223.5,0.489583,Eighth,D6
1012,Left,1,77,80,224.0,0.489583,Eighth,F5
1011,Right,0,89,80,224.0,0.489583,Eighth,F6
1013,Right,0,65,87,224.5,0.489583,Eighth,F4
1014,Right,0,70,95,225.0,0.489583,Eighth,A#4
1015,Right,0,74,103,225.5,0.489583,Eighth,D5
1016,Right,0,77,110,226.0,0.489583,Eighth,F5
1018,Left,1,41,110,226.5,0.489583,Eighth,F2
1017,Right,0,53,110,226.5,0.489583,Eighth,F3
1020,Left,1,46,110,227.0,0.489583,Eighth,A#2
1019,Right,0,58,110,227.0,0.489583,Eighth,A#3
1021,Right,0,62,110,227.5,0.489583,Eighth,D4
1022,Left,1,50,110,227.5,0.489583,Eighth,D3
1024,Right,0,65,110,228.0,0.489583,Eighth,F4
1023,Left,1,53,110,228.0,0.989583,Quarter,F3
1025,Right,0,70,80,228.5,0.489583,Eighth,A#4
1026,Right,0,74,80,229.0,0.489583,Eighth,D5
1027,Right,0,77,80,229.5,0.489583,Eighth,F5
1028,Right,0,75,80,230.0,0.489583,Eighth,D#5
1029,Right,0,74,80,230.5,0.489583,Eighth,D5
1030,Right,0,72,80,231.0,0.239583,Sixteenth,C5
1031,Right,0,74,80,231.125,0.239583,Sixteenth,D5
1032,Right,0,72,80,231.25,0.239583,Sixteenth,C5
1033,Right,0,74,81,231.375,0.239583,Sixteenth,D5
1034,Right,0,72,81,231.5,0.239583,Sixteenth,C5
1035,Left,1,53,81,231.5,0.489583,Eighth,F3
1036,Right,0,74,81,231.625,0.239583,Sixteenth,D5
1037,Right,0,72,82,231.75,0.239583,Sixteenth,C5
1038,Right,0,74,82,231.875,0.239583,Sixteenth,D5
1040,Left,1,57,82,232.0,0.489583,Eighth,A3
1039,Right,0,72,82,232.0,0.239583,Sixteenth,C5
1041,Right,0,74,83,232.125,0.239583,Sixteenth,D5
1042,Right,0,72,83,232.25,0.239583,Sixteenth,C5
1043,Right,0,74,83,232.375,0.239583,Sixteenth,D5
1045,Right,0,72,84,232.5,0.239583,Sixteenth,C5
1044,Left,1,60,84,232.5,0.489583,Eighth,C4
1046,Right,0,74,84,232.625,0.239583,Sixteenth,D5
1047,Right,0,72,84,232.75,0.239583,Sixteenth,C5
1048,Right,0,74,85,232.875,0.239583,Sixteenth,D5
1050,Right,0,72,85,233.0,0.239583,Sixteenth,C5
1049,Left,1,63,85,233.0,0.489583,Eighth,D#4
1051,Right,0,74,85,233.125,0.239583,Sixteenth,D5
1052,Right,0,72,86,233.25,0.239583,Sixteenth,C5
1053,Right,0,74,86,233.375,0.239583,Sixteenth,D5
1054,Left,1,41,86,233.5,0.489583,Eighth,F2
1055,Right,0,72,86,233.5,0.239583,Sixteenth,C5
1056,Right,0,74,87,233.625,0.239583,Sixteenth,D5
1057,Right,0,72,87,233.75,0.239583,Sixteenth,C5
1058,Right,0,74,87,233.875,0.239583,Sixteenth,D5
1060,Right,0,72,88,234.0,0.239583,Sixteenth,C5
1059,Left,1,45,88,234.0,0.489583,Eighth,A2
1061,Right,0,74,88,234.125,0.239583,Sixteenth,D5
1062,Right,0,72,88,234.25,0.239583,Sixteenth,C5
1063,Right,0,74,89,234.375,0.239583,Sixteenth,D5
1064,Left,1,48,89,234.5,0.489583,Eighth,C3
1065,Right,0,72,89,234.5,0.239583,Sixteenth,C5
1066,Right,0,74,89,234.625,0.239583,Sixteenth,D5
1067,Right,0,72,90,234.75,0.239583,Sixteenth,C5
1068,Right,0,74,90,234.875,0.239583,Sixteenth,D5
1070,Left,1,51,90,235.0,0.489583,Eighth,D#3
1069,Right,0,72,90,235.0,0.239583,Sixteenth,C5
1071,Right,0,74,91,235.125,0.239583,Sixteenth,D5
1072,Right,0,72,91,235.25,0.239583,Sixteenth,C5
1073,Right,0,74,91,235.375,0.239583,Sixteenth,D5
1075,Left,1,42,92,235.5,0.489583,Eighth,F#2
1074,Right,0,72,92,235.5,0.239583,Sixteenth,C5
1076,Right,0,74,92,235.625,0.239583,Sixteenth,D5
1077,Right,0,72,92,235.75,0.239583,Sixteenth,C5
1078,Right,0,74,93,235.875,0.239583,Sixteenth,D5
1079,Right,0,72,93,236.0,0.239583,Sixteenth,C5
1080,Left,1,45,93,236.0,0.489583,Eighth,A2
1081,Right,0,74,93,236.125,0.239583,Sixteenth,D5
1082,Right,0,72,94,236.25,0.239583,Sixteenth,C5
1083,Right,0,74,94,236.375,0.239583,Sixteenth,D5
1084,Left,1,48,94,236.5,0.489583,Eighth,C3
1085,Right,0,72,94,236.5,0.239583,Sixteenth,C5
1086,Right,0,74,95,236.625,0.239583,Sixteenth,D5
1087,Right,0,72,95,236.75,0.239583,Sixteenth,C5
1088,Right,0,74,95,236.875,0.239583,Sixteenth,D5
1090,Left,1,51,96,237.0,0.489583,Eighth,D#3
1089,Right,0,72,96,237.0,0.239583,Sixteenth,C5
1091,Right,0,74,96,237.125,0.239583,Sixteenth,D5
1092,Right,0,72,96,237.25,0.239583,Sixteenth,C5
1093,Right,0,74,97,237.375,0.239583,Sixteenth,D5
1095,Right,0,72,97,237.5,0.239583,Sixteenth,C5
1094,Left,1,41,97,237.5,0.489583,Eighth,F2
1096,Right,0,74,97,237.625,0.239583,Sixteenth,D5
1097,Right,0,72,98,237.75,0.239583,Sixteenth,C5
1098,Right,0,74,98,237.875,0.239583,Sixteenth,D5
1100,Left,1,45,98,238.0,0.489583,Eighth,A2
1099,Right,0,72,98,238.0,0.239583,Sixteenth,C5
1101,Right,0,74,99,238.125,0.239583,Sixteenth,D5
1102,Right,0,72,99,238.25,0.239583,Sixteenth,C5
1103,Right,0,74,99,238.375,0.239583,Sixteenth,D5
1104,Right,0,72,100,238.5,0.239583,Sixteenth,C5
1105,Left,1,48,100,238.5,0.489583,Eighth,C3
1106,Right,0,74,100,238.625,0.239583,Sixteenth,D5
1107,Right,0,72,100,238.75,0.239583,Sixteenth,C5
1108,Right,0,74,101,238.875,0.239583,Sixteenth,D5
1110,Right,0,72,101,239.0,0.239583,Sixteenth,C5
1109,Left,1,51,101,239.0,0.489583,Eighth,D#3
1111,Right,0,74,101,239.125,0.239583,Sixteenth,D5
1112,Right,0,72,102,239.25,0.239583,Sixteenth,C5
1113,Right,0,74,102,239.375,0.239583,Sixteenth,D5
1115,Right,0,72,102,239.5,0.239583,Sixteenth,C5
1114,Left,1,53,102,239.5,0.489583,Eighth,F3
1116,Right,0,74,103,239.625,0.239583,Sixteenth,D5
1117,Right,0,72,103,239.75,0.239583,Sixteenth,C5
1118,Right,0,74,103,239.875,0.239583,Sixteenth,D5
1120,Right,0,72,104,240.0,0.239583,Sixteenth,C5
1119,Left,1,57,104,240.0,0.489583,Eighth,A3
1121,Right,0,74,104,240.125,0.239583,Sixteenth,D5
1122,Right,0,72,104,240.25,0.239583,Sixteenth,C5
1123,Right,0,74,105,240.375,0.239583,Sixteenth,D5
1125,Left,1,60,105,240.5,0.489583,Eighth,C4
1124,Right,0,72,105,240.5,0.239583,Sixteenth,C5
1126,Right,0,74,105,240.625,0.239583,Sixteenth,D5
1127,Right,0,72,106,240.75,0.239583,Sixteenth,C5
1128,Right,0,74,106,240.875,0.239583,Sixteenth,D5
1129,Left,1,63,106,241.0,0.489583,Eighth,D#4
1130,Right,0,72,106,241.0,0.239583,Sixteenth,C5
1131,Right,0,74,107,241.125,0.239583,Sixteenth,D5
1132,Right,0,72,107,241.25,0.239583,Sixteenth,C5
1133,Right,0,74,107,241.375,0.239583,Sixteenth,D5
1135,Right,0,72,108,241.5,0.239583,Sixteenth,C5
1134,Left,1,53,108,241.5,0.489583,Eighth,F3
1136,Right,0,74,108,241.625,0.239583,Sixteenth,D5
1137,Right,0,71,108,241.75,0.239583,Sixteenth,B4
1138,Right,0,72,109,241.875,0.239583,Sixteenth,C5
1140,Right,0,77,109,242.0,0.489583,Eighth,F5
1139,Left,1,63,109,242.0,0.489583,Eighth,D#4
1141,Right,0,77,110,242.5,0.489583,Eighth,F5
1142,Left,1,53,110,242.5,0.489583,Eighth,F3
1143,Left,1,58,80,243.0,0.989583,Quarter,D4_A#3
1145,Right,0,70,80,243.0,0.489583,Eighth,A#4
1146,Right,0,70,80,243.5,0.489583,Eighth,A#4
1147,Right,0,71,80,244.0,0.489583,Eighth,B4
1148,Right,0,72,80,244.5,0.489583,Eighth,C5
1149,Right,0,73,80,245.0,0.489583,Eighth,C#5
1150,Right,0,74,80,245.5,0.489583,Eighth,D5
1151,Right,0,75,80,246.0,2.989583,DottedHalf,D#5
1152,Left,1,58,80,246.0,2.989583,DottedHalf,G3_A#3
1155,Left,1,60,80,249.0,2.989583,DottedHalf,D#3_C4
1154,Right,0,67,80,249.0,2.989583,DottedHalf,G4
1158,Right,0,70,80,252.0,0.989583,Eighth,D#4_A#4
1157,Left,1,60,80,252.0,0.989583,Quarter,F3_C4
1161,Right,0,69,80,252.5,0.489583,Eighth,A4
1164,Left,1,60,80,253.0,0.989583,Quarter,F3_C4
1162,Right,0,70,80,253.0,0.989583,ThirtySecond,D#4_A#4
1166,Right,0,69,80,253.114583,0.375,DottedSixteenth,A4
1167,Right,0,67,80,253.5,0.489583,Eighth,G4
1168,Right,0,63,80,254.0,0.989583,Quarter,D#4_A4
1170,Left,1,60,80,254.0,0.989583,Eighth,F3_C4
1172,Right,0,72,80,254.5,0.489583,Eighth,C5
1173,Left,1,57,80,254.5,0.489583,Eighth,A3
1174,Right,0,70,80,255.0,0.989583,Eighth,D4_A#4
1175,Left,1,58,80,255.0,0.489583,Eighth,A#3_A#2
1178,Left,1,58,80,255.5,0.489583,Eighth,A#3
1179,Right,0,70,80,255.5,0.489583,Eighth,A#4
1180,Left,1,59,80,256.0,0.489583,Eighth,B3
1181,Right,0,71,80,256.0,0.489583,Eighth,B4
1183,Left,1,60,80,256.5,0.489583,Eighth,C4
1182,Right,0,72,80,256.5,0.489583,Eighth,C5
1185,Left,1,61,80,257.0,0.489583,Eighth,C#4
1184,Right,0,73,80,257.0,0.489583,Eighth,C#5
1187,Left,1,62,80,257.5,0.489583,Eighth,D4
1186,Right,0,74,80,257.5,0.489583,Eighth,D5
1188,Right,0,75,80,258.0,2.989583,DottedHalf,D#5
1189,Left,1,63,80,258.0,2.989583,DottedHalf,D#4
1191,Right,0,63,80,261.0,2.989583,DottedHalf,G4_D#4
1190,Left,1,55,80,261.0,2.989583,Half,G3_D#3
1195,Left,1,56,80,263.0,0.489583,Eighth,G#3
1194,Right,0,68,80,263.0,0.489583,Eighth,G#4
1196,Right,0,70,80,263.5,0.489583,Eighth,A#4
1197,Left,1,58,80,263.5,0.489583,Eighth,A#3
1198,Left,1,56,80,264.0,2.989583,DottedHalf,G#3_G#2_F3_D#3
1199,Right,0,60,80,264.0,1.989583,Half,D#4_C5_C4
1205,Right,0,65,80,264.75,0.239583,Sixteenth,F4
1206,Right,0,65,80,265.0,0.989583,Quarter,F4
1207,Left,1,44,80,267.0,2.989583,DottedHalf,G#3_G#2_F3_D#3
1208,Right,0,60,80,267.0,1.989583,Half,D#4_C5_C4
1214,Right,0,65,80,267.75,0.239583,Sixteenth,F4
1215,Right,0,65,80,268.0,0.989583,Quarter,F4
1219,Left,1,39,80,270.0,0.989583,Quarter,G#1_D#2
1216,Right,0,65,80,270.0,0.989583,Quarter,F4_D#4_C4
1224,Left,1,39,83,271.0,0.989583,Quarter,G#1_D#2
1221,Right,0,63,83,271.0,0.989583,Quarter,F4_D#4_C4
1226,Right,0,60,86,272.0,0.989583,Quarter,F4_D#4_C4
1228,Left,1,39,86,272.0,0.989583,Quarter,G#1_D#2
1232,Left,1,33,90,273.0,2.989583,DottedHalf,D#2_A1
1231,Right,0,63,90,273.0,2.989583,DottedHalf,F#4_D#4_C4
1239,Left,1,45,100,276.0,0.989583,Quarter,F#3_D#3_A2
1236,Right,0,60,100,276.0,0.989583,Quarter,F#4_D#4_C4
1244,Right,0,66,104,277.0,0.989583,Quarter,F#4_D#4_C4
1242,Left,1,45,104,277.0,0.989583,Quarter,F#3_D#3_A2
1250,Right,0,63,107,278.0,0.989583,Quarter,F#4_D#4_C4
1248,Left,1,45,107,278.0,0.989583,Quarter,F#3_D#3_A2
1256,Left,1,46,110,279.0,2.989583,DottedHalf,G3_D#3_A#2
1254,Right,0,58,110,279.0,2.989583,DottedHalf,G4_D#4_A#3
1263,Left,1,46,80,282.0,0.989583,Quarter,A#2_A#1
1260,Right,0,67,80,282.0,0.989583,Quarter,G4_G#3_D4
1265,Right,0,65,80,282.5,0.489583,Eighth,F4
1266,Right,0,62,80,283.0,0.989583,Quarter,G#3_F4_D4
1267,Left,1,34,80,283.0,0.989583,Quarter,A#2_A#1
1271,Right,0,67,80,283.25,0.239583,Sixteenth,G4
1272,Right,0,65,80,283.5,0.239583,Sixteenth,F4
1273,Right,0,64,80,283.75,0.239583,Sixteenth,E4
1274,Left,1,34,80,284.0,0.989583,Quarter,A#2_A#1
1276,Right,0,65,80,284.0,0.989583,Quarter,G#3_F4_D4
1279,Right,0,67,80,284.5,0.489583,Eighth,G4
1280,Left,1,39,80,285.0,0.989583,Quarter,D#3_D#2
1281,Right,0,63,80,285.0,0.239583,Sixteenth,G3_D#4
1284,Right,0,65,80,285.25,0.239583,Sixteenth,F4
1285,Right,0,63,80,285.5,0.239583,Sixteenth,D#4
1286,Right,0,62,80,285.75,0.239583,Sixteenth,D4
1287,Right,0,63,80,286.0,0.322917,Triplet,D#4
1288,Right,0,65,80,286.333333,0.322917,Triplet,F4
1289,Right,0,67,80,286.666667,0.322917,Triplet,G4
1290,Right,0,68,80,287.0,0.322917,Triplet,G#4
1291,Right,0,70,80,287.333333,0.322917,Triplet,A#4
1292,Right,0,72,80,287.666667,0.322917,Triplet,C5
1293,Right,0,74,80,288.0,0.322917,Triplet,D5
1294,Right,0,75,80,288.333333,0.322917,Triplet,D#5
1295,Right,0,77,80,288.666667,0.322917,Triplet,F5
1296,Right,0,78,80,289.0,0.322917,Triplet,F#5
1297,Right,0,79,80,289.333333,0.322917,Triplet,G5
1298,Right,0,80,80,289.666667,0.322917,Triplet,G#5
1299,Right,0,81,80,290.0,0.322917,Triplet,A5
1300,Right,0,82,80,290.333333,0.322917,Triplet,A#5
1301,Right,0,83,80,290.666667,0.322917,Triplet,B5
1302,Left,1,68,80,291.0,2.989583,DottedHalf,G#4_D#5_C5
1304,Right,0,84,80,291.0,0.739583,DottedEighth,C6
1306,Right,0,77,80,291.75,0.239583,Sixteenth,F5
1307,Right,0,77,80,292.0,1.989583,Half,F5
1309,Left,1,63,80,294.0,2.989583,DottedHalf,G#3_D#4_C4
1308,Right,0,71,80,294.0,0.114583,ThirtySecond,B4
1312,Right,0,72,80,294.114583,0.614583,Eighth,C5
1313,Right,0,65,80,294.75,0.239583,Sixteenth,F4
1314,Right,0,65,80,295.0,1.989583,Half,F4
1317,Left,1,44,80,297.0,0.989583,Quarter,G#2_G#1
1315,Right,0,51,80,297.0,0.989583,Quarter,F3_D#3_C3
1321,Right,0,48,83,298.0,0.989583,Quarter,F3_D#3_C3
1320,Left,1,44,83,298.0,0.989583,Quarter,G#2_G#1
1327,Right,0,53,86,299.0,0.989583,Quarter,F3_D#3_C3
1325,Left,1,32,86,299.0,0.989583,Quarter,G#2_G#1
1330,Right,0,51,90,300.0,2.989583,DottedHalf,F#3_D#3_C3
1331,Left,1,33,90,300.0,2.989583,DottedHalf,A2_A1
1335,Right,0,72,100,303.0,0.989583,Quarter,F#5_D#5_C5
1337,Left,1,69,100,303.0,0.989583,Quarter,A4
1340,Right,0,78,104,304.0,0.989583,Quarter,F#5_D#5_C5
1339,Left,1,69,104,304.0,0.989583,Quarter,A4
1344,Right,0,78,107,305.0,0.989583,Quarter,F#5_D#5_C5
1343,Left,1,69,107,305.0,0.989583,Quarter,A4
1348,Right,0,79,110,306.0,2.989583,DottedHalf,G5_D#5
1347,Left,1,70,110,306.0,2.989583,DottedHalf,A#4
1350,Right,0,67,80,309.0,0.989583,Quarter,G4_G#3_D4
1353,Left,1,34,80,309.0,0.989583,Quarter,A#2_A#1
1355,Right,0,65,80,309.5,0.489583,Eighth,F4
1357,Right,0,56,80,310.0,0.989583,Quarter,G#3_F4_D4
1356,Left,1,46,80,310.0,0.989583,Quarter,A#2_A#1
1361,Right,0,67,80,310.25,0.239583,Sixteenth,G4
1362,Right,0,65,80,310.5,0.239583,Sixteenth,F4
1363,Right,0,64,80,310.75,0.239583,Sixteenth,E4
1364,Right,0,56,80,311.0,0.989583,Quarter,G#3_F4_D4
1367,Left,1,34,80,311.0,0.989583,Quarter,A#2_A#1
1369,Right,0,67,80,311.5,0.489583,Eighth,G4
1371,Right,0,55,80,312.0,0.989583,Quarter,G3_D#4
1370,Left,1,51,80,312.0,0.489583,Eighth,D#3_D#2
1374,Left,1,51,80,312.5,0.489583,Eighth,D#3
1375,Left,1,51,80,313.0,0.489583,Eighth,D#3
1376,Left,1,51,80,313.5,0.489583,Eighth,D#3
1377,Left,1,51,80,314.0,0.489583,Eighth,D#3
1378,Left,1,51,80,314.5,0.489583,Eighth,D#3
1379,Left,1,63,80,315.0,2.989583,DottedHalf,D#4_D#3_C4
1382,Right,0,86,80,315.0,0.114583,ThirtySecond,D6
1383,Right,0,87,80,315.125,0.614583,Eighth,D#6
1384,Left,1,51,80,315.5,0.489583,Eighth,D#3
1385,Right,0,80,80,315.75,0.239583,Sixteenth,G#5
1387,Right,0,80,80,316.0,0.989583,Quarter,G#5
1386,Left,1,51,80,316.0,0.489583,Eighth,D#3
1388,Left,1,51,80,316.5,0.489583,Eighth,D#3
1389,Left,1,51,80,317.0,0.489583,Eighth,D#3
1390,Left,1,51,80,317.5,0.489583,Eighth,D#3
1391,Right,0,74,80,318.0,0.114583,ThirtySecond,D5
1392,Left,1,58,80,318.0,2.989583,DottedHalf,D4_D#3_A#3
1395,Right,0,75,80,318.125,0.614583,Eighth,D#5
1396,Left,1,51,80,318.5,0.489583,Eighth,D#3
1397,Right,0,67,80,318.75,0.239583,Sixteenth,G4
1399,Right,0,67,80,319.0,0.989583,Quarter,G4
1398,Left,1,51,80,319.0,0.489583,Eighth,D#3
1400,Left,1,51,80,319.5,0.489583,Eighth,D#3
1401,Left,1,51,80,320.0,0.489583,Eighth,D#3
1402,Left,1,51,80,320.5,0.489583,Eighth,D#3
1404,Right,0,75,80,321.0,0.239583,Sixteenth,D#5
1403,Left,1,51,80,321.0,0.989583,Quarter,G#3_D#3_C4
1407,Right,0,65,80,321.25,0.239583,Sixteenth,F4
1408,Left,1,51,80,321.5,0.489583,Eighth,D#3
1410,Right,0,75,80,322.0,0.239583,Sixteenth,D#5
1409,Left,1,56,80,322.0,0.989583,Quarter,G#3_D#3_C4
1413,Right,0,65,80,322.25,0.239583,Sixteenth,F4
1414,Left,1,51,80,322.5,0.489583,Eighth,D#3
1415,Left,1,51,80,323.0,0.989583,Quarter,G#3_D#3_B3
1417,Right,0,74,80,323.0,0.239583,Sixteenth,D5
1419,Right,0,65,80,323.25,0.239583,Sixteenth,F4
1420,Left,1,51,80,323.5,0.489583,Eighth,D#3
1424,Right,0,75,80,324.0,0.239583,Sixteenth,D#5
1421,Left,1,51,80,324.0,0.989583,Quarter,G3_D#3_A#3
1425,Right,0,63,80,324.25,0.239583,Sixteenth,D#4
1426,Left,1,51,80,324.5,0.489583,Eighth,D#3
1427,Left,1,51,80,325.0,0.489583,Eighth,D#3
1428,Left,1,51,80,325.5,0.489583,Eighth,D#3
1429,Left,1,51,80,326.0,0.489583,Eighth,D#3
1430,Left,1,51,80,326.5,0.489583,Eighth,D#3
1434,Right,0,87,80,327.0,0.1875,TripletSixteenth,D#6
1431,Left,1,63,80,327.0,2.989583,DottedHalf,D#4_D#3_C4
1435,Right,0,89,80,327.125,0.208333,Sixteenth,F6
1436,Right,0,87,80,327.25,0.229167,Sixteenth,D#6
1437,Right,0,89,80,327.375,0.1875,TripletSixteenth,F6
1438,Left,1,51,80,327.5,0.489583,Eighth,D#3
1439,Right,0,87,80,327.5,0.208333,Sixteenth,D#6
1440,Right,0,89,80,327.625,0.197917,TripletSixteenth,F6
1441,Right,0,86,80,327.75,0.1875,TripletSixteenth,D6
1442,Right,0,87,80,327.875,0.114583,ThirtySecond,D#6
1443,Right,0,80,80,328.0,0.989583,Quarter,G#5
1444,Left,1,51,80,328.0,0.489583,Eighth,D#3
1445,Left,1,51,80,328.5,0.489583,Eighth,D#3
1446,Left,1,51,80,329.0,0.489583,Eighth,D#3
1447,Left,1,51,80,329.5,0.489583,Eighth,D#3
1449,Left,1,58,80,330.0,2.989583,DottedHalf,D4_D#3_A#3
1448,Right,0,75,80,330.0,0.1875,TripletSixteenth,D#5
1452,Right,0,77,80,330.125,0.208333,Sixteenth,F5
1453,Right,0,75,80,330.25,0.229167,Sixteenth,D#5
1454,Right,0,77,80,330.375,0.1875,TripletSixteenth,F5
1456,Right,0,75,80,330.5,0.208333,Sixteenth,D#5
1455,Left,1,51,80,330.5,0.489583,Eighth,D#3
1457,Right,0,77,80,330.625,0.197917,TripletSixteenth,F5
1458,Right,0,74,80,330.75,0.1875,TripletSixteenth,D5
1459,Right,0,75,80,330.875,0.114583,ThirtySecond,D#5
1461,Left,1,51,80,331.0,0.489583,Eighth,D#3
1460,Right,0,67,80,331.0,0.989583,Quarter,G4
1462,Left,1,51,80,331.5,0.489583,Eighth,D#3
1463,Left,1,51,80,332.0,0.489583,Eighth,D#3
1464,Left,1,51,80,332.5,0.489583,Eighth,D#3
1465,Left,1,60,80,333.0,0.989583,Quarter,G#3_D#3_C4
1467,Right,0,75,80,333.0,0.239583,Sixteenth,D#5
1469,Right,0,65,80,333.25,0.239583,Sixteenth,F4
1470,Left,1,51,80,333.5,0.489583,Eighth,D#3
1474,Right,0,75,80,334.0,0.239583,Sixteenth,D#5
1471,Left,1,51,80,334.0,0.989583,Quarter,G#3_D#3_C4
1475,Right,0,65,80,334.25,0.239583,Sixteenth,F4
1476,Left,1,51,80,334.5,0.489583,Eighth,D#3
1477,Right,0,74,80,335.0,0.239583,Sixteenth,D5
1478,Left,1,56,80,335.0,0.989583,Quarter,G#3_D#3_B3
1481,Right,0,65,80,335.25,0.239583,Sixteenth,F4
1482,Left,1,51,80,335.5,0.489583,Eighth,D#3
1483,Left,1,55,80,336.0,0.989583,Quarter,G3_D#3_A#3
1484,Right,0,63,80,336.0,0.239583,Sixteenth,D#4
1487,Right,0,65,80,336.25,0.239583,Sixteenth,F4
1488,Right,0,63,80,336.5,0.239583,Sixteenth,D#4
1489,Right,0,62,80,336.75,0.239583,Sixteenth,D4
1490,Right,0,63,80,337.0,0.239583,Sixteenth,D#4
1491,Right,0,65,80,337.25,0.239583,Sixteenth,F4
1492,Right,0,67,80,337.5,0.239583,Sixteenth,G4
1493,Right,0,68,80,337.75,0.239583,Sixteenth,G#4
1494,Right,0,70,80,338.0,0.489583,Eighth,A#4
1495,Left,1,55,80,338.5,0.489583,Eighth,G3
1496,Right,0,67,80,338.5,0.489583,Eighth,G4
1497,Right,0,65,80,339.0,0.489583,Eighth,F4
1498,Left,1,53,80,339.0,0.489583,Eighth,F3
1500,Right,0,68,80,339.5,0.489583,Eighth,G#4
1499,Left,1,56,80,339.5,0.489583,Eighth,G#3
1502,Right,0,62,80,340.0,0.489583,Eighth,D4
1501,Left,1,50,80,340.0,0.489583,Eighth,D3
1504,Left,1,53,80,340.5,0.489583,Eighth,F3
1503,Right,0,65,80,340.5,0.489583,Eighth,F4
1506,Left,1,46,80,341.0,0.489583,Eighth,A#2
1505,Right,0,58,80,341.0,0.489583,Eighth,A#3
1508,Right,0,62,80,341.5,0.489583,Eighth,D4
1507,Left,1,50,80,341.5,0.489583,Eighth,D3
1509,Right,0,63,80,342.0,0.239583,Sixteenth,D#4
1510,Left,1,51,80,342.0,0.989583,Quarter,D#3
1511,Right,0,65,80,342.25,0.239583,Sixteenth,F4
1512,Right,0,63,80,342.5,0.239583,Sixteenth,D#4
1513,Right,0,62,80,342.75,0.239583,Sixteenth,D4
1514,Right,0,63,80,343.0,0.239583,Sixteenth,D#4
1515,Right,0,65,80,343.25,0.239583,Sixteenth,F4
1516,Right,0,67,80,343.5,0.239583,Sixteenth,G4
1517,Right,0,68,80,343.75,0.239583,Sixteenth,G#4
1518,Right,0,72,80,344.0,0.239583,Sixteenth,C5
1519,Left,1,60,80,344.0,0.239583,Sixteenth,C4
1521,Right,0,70,80,344.25,0.239583,Sixteenth,A#4
1520,Left,1,58,80,344.25,0.239583,Sixteenth,A#3
1522,Left,1,56,80,344.5,0.239583,Sixteenth,G#3
1523,Right,0,68,80,344.5,0.239583,Sixteenth,G#4
1524,Left,1,55,80,344.75,0.239583,Sixteenth,G3
1525,Right,0,67,80,344.75,0.239583,Sixteenth,G4
1527,Right,0,65,80,345.0,0.489583,Eighth,F4
1526,Left,1,53,80,345.0,0.489583,Eighth,F3
1529,Right,0,68,80,345.5,0.489583,Eighth,G#4
1528,Left,1,56,80,345.5,0.489583,Eighth,G#3
1530,Left,1,50,80,346.0,0.489583,Eighth,D3
1531,Right,0,62,80,346.0,0.489583,Eighth,D4
1532,Right,0,65,80,346.5,0.489583,Eighth,F4
1533,Left,1,53,80,346.5,0.489583,Eighth,F3
1535,Right,0,58,80,347.0,0.489583,Eighth,A#3
1534,Left,1,46,80,347.0,0.489583,Eighth,A#2
1537,Right,0,62,80,347.5,0.489583,Eighth,D4
1536,Left,1,50,80,347.5,0.489583,Eighth,D3
1539,Right,0,63,80,348.0,0.489583,Eighth,D#4
1538,Left,1,51,80,348.0,0.489583,Eighth,D#3
1541,Left,1,55,80,348.5,0.489583,Eighth,G3
1540,Right,0,67,80,348.5,0.489583,Eighth,G4
1542,Left,1,48,80,349.0,0.489583,Eighth,C3
1543,Right,0,60,80,349.0,0.489583,Eighth,C4
1545,Right,0,63,80,349.5,0.489583,Eighth,D#4
1544,Left,1,51,80,349.5,0.489583,Eighth,D#3
1546,Right,0,57,80,350.0,0.489583,Eighth,A3
1547,Left,1,45,80,350.0,0.489583,Eighth,A2
1548,Left,1,48,80,350.5,0.489583,Eighth,C3
1549,Right,0,60,80,350.5,0.489583,Eighth,C4
1551,Left,1,41,80,351.0,0.489583,Eighth,F2
1550,Right,0,53,80,351.0,0.489583,Eighth,F3
1552,Left,1,45,80,351.5,0.489583,Eighth,A2
1553,Right,0,57,80,351.5,0.489583,Eighth,A3
1554,Left,1,48,80,352.0,0.489583,Eighth,C3
1555,Right,0,60,80,352.0,0.489583,Eighth,C4
1557,Left,1,52,80,352.5,0.489583,Eighth,E3
1556,Right,0,64,80,352.5,0.489583,Eighth,E4
1559,Left,1,53,80,353.0,0.489583,Eighth,F3
1558,Right,0,65,80,353.0,0.489583,Eighth,F4
1560,Right,0,57,80,353.5,0.489583,Eighth,A3
1561,Left,1,45,80,353.5,0.489583,Eighth,A2
1562,Left,1,46,80,354.0,0.489583,Eighth,A#2
1563,Right,0,58,80,354.0,0.489583,Eighth,A#3
1565,Left,1,50,80,354.5,0.489583,Eighth,D3
1564,Right,0,62,80,354.5,0.489583,Eighth,D4
1567,Right,0,65,80,355.0,0.489583,Eighth,F4
1566,Left,1,53,80,355.0,0.489583,Eighth,F3
1568,Left,1,57,80,355.5,0.489583,Eighth,A3
1569,Right,0,69,80,355.5,0.489583,Eighth,A4
1570,Left,1,58,80,356.0,0.489583,Eighth,A#3
1571,Right,0,70,80,356.0,0.489583,Eighth,A#4
1572,Left,1,57,80,356.5,0.489583,Eighth,A3
1573,Right,0,69,80,356.5,0.489583,Eighth,A4
1574,Left,1,58,80,357.0,0.489583,Eighth,A#3
1575,Right,0,70,80,357.0,0.489583,Eighth,A#4
1576,Left,1,57,80,357.5,0.489583,Eighth,A3
1577,Right,0,69,80,357.5,0.489583,Eighth,A4
1578,Right,0,70,80,358.0,0.489583,Eighth,A#4
1579,Left,1,58,80,358.0,0.489583,Eighth,A#3
1581,Right,0,69,80,358.5,0.489583,Eighth,A4
1580,Left,1,57,80,358.5,0.489583,Eighth,A3
1583,Right,0,70,80,359.0,0.489583,Eighth,A#4
1582,Left,1,58,80,359.0,0.489583,Eighth,A#3
1584,Right,0,70,80,359.5,0.489583,Eighth,A#4
1585,Left,1,58,80,359.5,0.489583,Eighth,A#3
1586,Right,0,63,80,360.0,2.989583,DottedHalf,D#4_B4_B3
1587,Left,1,44,80,360.0,2.989583,DottedHalf,G#3_G#2_F3_D#3
1593,Right,0,65,80,360.75,0.239583,Sixteenth,F4
1594,Right,0,65,80,361.0,1.489583,DottedQuarter,F4
1595,Left,1,56,80,363.0,2.989583,DottedHalf,G#3_G#2_F3_D#3
1599,Right,0,63,80,363.0,2.989583,DottedHalf,D#4_B4_B3
1602,Right,0,65,80,363.75,0.239583,Sixteenth,F4
1603,Right,0,65,80,364.0,1.489583,DottedQuarter,F4
1605,Left,1,59,80,366.0,0.989583,Quarter,G#3_B3
1604,Right,0,65,80,366.0,0.989583,Quarter,F4_D#4
1608,Left,1,59,80,367.0,0.989583,Quarter,G#3_B3
1610,Right,0,65,80,367.0,0.989583,Quarter,F4_D#4
1612,Right,0,66,80,368.0,0.989583,Quarter,F#4_D#4
1614,Left,1,54,80,368.0,0.989583,Quarter,F#3_B3
1616,Left,1,53,80,369.0,2.989583,DottedHalf,F3_B3
1618,Right,0,63,80,369.0,2.989583,Half,G#4_D#4
1620,Right,0,62,80,371.0,0.989583,Quarter,D4
1622,Left,1,71,80,372.0,0.989583,Quarter,G#4_B4
1621,Right,0,77,80,372.0,0.989583,Quarter,F5_D#5
1627,Right,0,77,80,373.0,0.989583,Quarter,F5_D#5
1625,Left,1,68,80,373.0,0.989583,Quarter,G#4_B4
1631,Right,0,78,80,374.0,0.989583,Quarter,F#5_D#5
1629,Left,1,66,80,374.0,0.989583,Quarter,F#4_B4
1634,Right,0,75,80,375.0,2.989583,Half,G#5_D#5
1633,Left,1,65,80,375.0,2.989583,DottedHalf,F4_B4
1637,Right,0,74,80,377.0,0.989583,Quarter,D5
1640,Right,0,65,80,378.0,0.989583,Quarter,G4_F4
1638,Left,1,61,80,378.0,0.989583,Quarter,C#4_A#3
1643,Right,0,67,80,379.0,0.989583,Quarter,G4_F4
1642,Left,1,61,80,379.0,0.989583,Quarter,C#4_A#3
1648,Right,0,65,80,380.0,0.989583,Quarter,G#4_F4
1646,Left,1,56,80,380.0,0.989583,Quarter,G#3_C#4
1652,Right,0,65,80,381.0,2.989583,Half,F4_A#4
1650,Left,1,55,80,381.0,2.989583,DottedHalf,G3_C#4
1654,Right,0,64,80,383.0,0.989583,Quarter,E4
1657,Right,0,79,80,384.0,0.989583,Quarter,G5_F5
1655,Left,1,73,80,384.0,0.989583,Quarter,C#5_A#4
1661,Right,0,79,80,385.0,0.989583,Quarter,G5_F5
1659,Left,1,73,80,385.0,0.989583,Quarter,C#5_A#4
1663,Right,0,77,80,386.0,0.989583,Quarter,G#5_F5
1664,Left,1,68,80,386.0,0.989583,Quarter,G#4_C#5
1667,Left,1,73,80,387.0,2.989583,DottedHalf,G4_C#5
1668,Right,0,77,80,387.0,2.989583,Half,F5_A#5
1671,Right,0,76,80,389.0,0.989583,Quarter,E5
1672,Right,0,85,80,390.0,0.989583,Quarter,C#6
1674,Right,0,76,80,391.0,0.989583,Quarter,E5
1673,Left,1,70,80,391.0,0.989583,Quarter,F#4_A#4
1676,Right,0,89,80,393.0,0.989583,Quarter,F6
1677,Left,1,65,80,394.0,0.989583,Quarter,F4_A4
1679,Right,0,77,80,394.0,0.989583,Quarter,F5
1680,Left,1,53,80,395.0,0.989583,Quarter,F3
1681,Left,1,41,80,396.0,0.989583,Quarter,F2
1682,Left,1,29,80,397.0,0.989583,Quarter,F1
1683,Right,0,77,80,398.5,0.489583,Eighth,F5
1684,Right,0,82,80,399.0,1.489583,DottedQuarter,A#5
1685,Left,1,50,80,399.0,0.239583,Sixteenth,D3
1686,Left,1,58,80,399.25,0.239583,Sixteenth,A#3
1687,Left,1,53,80,399.5,0.239583,Sixteenth,F3
1688,Left,1,58,80,399.75,0.239583,Sixteenth,A#3
1689,Left,1,50,80,400.0,0.239583,Sixteenth,D3
1690,Left,1,58,80,400.25,0.239583,Sixteenth,A#3
1691,Left,1,53,80,400.5,0.239583,Sixteenth,F3
1692,Right,0,81,80,400.5,0.239583,Sixteenth,A5
1694,Left,1,58,80,400.75,0.239583,Sixteenth,A#3
1693,Right,0,82,80,400.75,0.239583,Sixteenth,A#5
1696,Left,1,50,80,401.0,0.239583,Sixteenth,D3
1695,Right,0,84,80,401.0,0.489583,Eighth,C6
1697,Left,1,58,80,401.25,0.239583,Sixteenth,A#3
1699,Left,1,53,80,401.5,0.239583,Sixteenth,F3
1698,Right,0,82,80,401.5,0.489583,Eighth,A#5
1700,Left,1,58,80,401.75,0.239583,Sixteenth,A#3
1702,Left,1,50,80,402.0,0.239583,Sixteenth,D3
1701,Right,0,77,80,402.0,1.489583,DottedQuarter,F5
1703,Left,1,58,80,402.25,0.239583,Sixteenth,A#3
1704,Left,1,53,80,402.5,0.239583,Sixteenth,F3
1705,Left,1,58,80,402.75,0.239583,Sixteenth,A#3
1706,Left,1,50,80,403.0,0.239583,Sixteenth,D3
1707,Left,1,58,80,403.25,0.239583,Sixteenth,A#3
1708,Right,0,79,80,403.5,0.239583,Sixteenth,G5
1709,Left,1,53,80,403.5,0.239583,Sixteenth,F3
1711,Right,0,77,80,403.75,0.239583,Sixteenth,F5
1710,Left,1,58,80,403.75,0.239583,Sixteenth,A#3
1713,Right,0,75,80,404.0,0.489583,Eighth,D#5
1712,Left,1,50,80,404.0,0.239583,Sixteenth,D3
1714,Left,1,58,80,404.25,0.239583,Sixteenth,A#3
1716,Right,0,74,80,404.5,0.489583,Eighth,D5
1715,Left,1,53,80,404.5,0.239583,Sixteenth,F3
1717,Left,1,58,80,404.75,0.239583,Sixteenth,A#3
1718,Right,0,78,80,405.0,0.239583,Sixteenth,F#5
1719,Left,1,51,80,405.0,0.239583,Sixteenth,D#3
1721,Left,1,58,80,405.25,0.239583,Sixteenth,A#3
1720,Right,0,79,80,405.25,0.239583,Sixteenth,G5
1722,Left,1,55,80,405.5,0.239583,Sixteenth,G3
1723,Left,1,58,80,405.75,0.239583,Sixteenth,A#3
1724,Left,1,51,80,406.0,0.239583,Sixteenth,D#3
1725,Right,0,78,80,406.0,0.239583,Sixteenth,F#5
1726,Left,1,58,80,406.25,0.239583,Sixteenth,A#3
1727,Right,0,79,80,406.25,0.239583,Sixteenth,G5
1728,Left,1,55,80,406.5,0.239583,Sixteenth,G3
1729,Left,1,58,80,406.75,0.239583,Sixteenth,A#3
1730,Right,0,74,80,407.0,0.239583,Sixteenth,D5
1731,Left,1,51,80,407.0,0.239583,Sixteenth,D#3
1733,Left,1,59,80,407.25,0.239583,Sixteenth,B3
1732,Right,0,75,80,407.25,0.239583,Sixteenth,D#5
1734,Left,1,55,80,407.5,0.239583,Sixteenth,G3
1735,Left,1,59,80,407.75,0.239583,Sixteenth,B3
1736,Left,1,51,80,408.0,0.239583,Sixteenth,D#3
1737,Right,0,71,80,408.0,0.239583,Sixteenth,B4
1739,Right,0,72,80,408.25,0.239583,Sixteenth,C5
1738,Left,1,60,80,408.25,0.239583,Sixteenth,C4
1740,Left,1,55,80,408.5,0.239583,Sixteenth,G3
1741,Left,1,60,80,408.75,0.239583,Sixteenth,C4
1742,Left,1,51,80,409.0,0.239583,Sixteenth,D#3
1743,Left,1,60,80,409.25,0.239583,Sixteenth,C4
1744,Left,1,55,80,409.5,0.239583,Sixteenth,G3
1745,Left,1,60,80,409.75,0.239583,Sixteenth,C4
1746,Left,1,52,80,410.0,0.239583,Sixteenth,E3
1747,Left,1,60,80,410.25,0.239583,Sixteenth,C4
1748,Left,1,58,80,410.5,0.239583,Sixteenth,A#3
1749,Right,0,84,80,410.5,0.489583,Eighth,C6
1750,Left,1,60,80,410.75,0.239583,Sixteenth,C4
1752,Left,1,50,80,411.0,0.239583,Sixteenth,D3
1751,Right,0,87,80,411.0,1.489583,DottedQuarter,D#6
1753,Left,1,60,80,411.25,0.239583,Sixteenth,C4
1754,Left,1,57,80,411.5,0.239583,Sixteenth,A3
1755,Left,1,60,80,411.75,0.239583,Sixteenth,C4
1756,Left,1,50,80,412.0,0.239583,Sixteenth,D3
1757,Left,1,60,80,412.25,0.239583,Sixteenth,C4
1759,Left,1,57,80,412.5,0.239583,Sixteenth,A3
1758,Right,0,89,80,412.5,0.239583,Sixteenth,F6
1760,Left,1,60,80,412.75,0.239583,Sixteenth,C4
1761,Right,0,87,80,412.75,0.239583,Sixteenth,D#6
1762,Left,1,50,80,413.0,0.239583,Sixteenth,D3
1763,Right,0,86,80,413.0,0.489583,Eighth,D6
1764,Left,1,60,80,413.25,0.239583,Sixteenth,C4
1766,Left,1,57,80,413.5,0.239583,Sixteenth,A3
1765,Right,0,84,80,413.5,0.489583,Eighth,C6
1767,Left,1,60,80,413.75,0.239583,Sixteenth,C4
1769,Right,0,82,80,414.0,0.489583,Eighth,A#5
1768,Left,1,53,80,414.0,0.239583,Sixteenth,F3
1770,Left,1,63,80,414.25,0.239583,Sixteenth,D#4
1771,Left,1,60,80,414.5,0.239583,Sixteenth,C4
1772,Right,0,81,80,414.5,0.489583,Eighth,A5
1773,Left,1,63,80,414.75,0.239583,Sixteenth,D#4
1775,Right,0,79,80,415.0,0.489583,Eighth,G5
1774,Left,1,53,80,415.0,0.239583,Sixteenth,F3
1776,Left,1,63,80,415.25,0.239583,Sixteenth,D#4
1778,Right,0,77,80,415.5,0.489583,Eighth,F5
1777,Left,1,57,80,415.5,0.239583,Sixteenth,A3
1779,Left,1,63,80,415.75,0.239583,Sixteenth,D#4
1780,Left,1,54,80,416.0,0.239583,Sixteenth,F#3
1781,Right,0,75,80,416.0,0.489583,Eighth,D#5
1782,Left,1,63,80,416.25,0.239583,Sixteenth,D#4
1784,Left,1,57,80,416.5,0.239583,Sixteenth,A3
1783,Right,0,72,80,416.5,0.489583,Eighth,C5
1785,Left,1,63,80,416.75,0.239583,Sixteenth,D#4
1786,Left,1,55,80,417.0,0.239583,Sixteenth,G3
1787,Right,0,70,80,417.0,0.489583,Eighth,A#4
1788,Left,1,62,80,417.25,0.239583,Sixteenth,D4
1789,Left,1,58,80,417.5,0.239583,Sixteenth,A#3
1790,Right,0,74,80,417.5,0.489583,Eighth,D5
1791,Left,1,62,80,417.75,0.239583,Sixteenth,D4
1793,Right,0,67,80,418.0,0.489583,Eighth,G4
1792,Left,1,51,80,418.0,0.239583,Sixteenth,D#3
1794,Left,1,60,80,418.25,0.239583,Sixteenth,C4
1796,Right,0,75,80,418.5,0.489583,Eighth,D#5
1795,Left,1,55,80,418.5,0.239583,Sixteenth,G3
1797,Left,1,60,80,418.75,0.239583,Sixteenth,C4
1798,Left,1,53,80,419.0,0.239583,Sixteenth,F3
1799,Right,0,69,80,419.0,0.489583,Eighth,A4
1800,Left,1,60,80,419.25,0.239583,Sixteenth,C4
1802,Right,0,72,80,419.5,0.489583,Eighth,C5
1801,Left,1,57,80,419.5,0.239583,Sixteenth,A3
1803,Left,1,63,80,419.75,0.239583,Sixteenth,D#4
1804,Right,0,70,80,420.0,0.239583,Sixteenth,A#4
1805,Left,1,58,80,420.0,0.989583,Quarter,A#3_A#2
1807,Right,0,62,80,420.25,0.239583,Sixteenth,D4
1808,Right,0,65,80,420.5,0.239583,Sixteenth,F4
1809,Right,0,63,80,420.75,0.239583,Sixteenth,D#4
1810,Right,0,62,80,421.0,0.166667,TripletSixteenth,D4
1811,Right,0,63,80,421.177083,0.166667,TripletSixteenth,D#4
1812,Right,0,65,80,421.458333,0.166667,TripletSixteenth,F4
1813,Right,0,67,80,421.645833,0.166667,TripletSixteenth,G4
1814,Right,0,69,80,421.802083,0.166667,TripletSixteenth,A4
1815,Right,0,70,80,422.0,0.15625,TripletSixteenth,A#4
1816,Right,0,69,80,422.15625,0.15625,TripletSixteenth,A4
1817,Right,0,72,80,422.333333,0.15625,TripletSixteenth,C5
1818,Right,0,70,80,422.5,0.15625,TripletSixteenth,A#4
1819,Right,0,74,80,422.666667,0.15625,TripletSixteenth,D5
1820,Right,0,72,80,422.833333,0.15625,TripletSixteenth,C5
1821,Right,0,70,80,423.0,0.15625,TripletSixteenth,A#4
1822,Right,0,69,80,423.166667,0.15625,TripletSixteenth,A4
1823,Right,0,67,80,423.333333,0.15625,TripletSixteenth,G4
1824,Right,0,65,80,423.5,0.15625,TripletSixteenth,F4
1825,Right,0,67,80,423.666667,0.15625,TripletSixteenth,G4
1826,Right,0,63,80,423.833333,0.15625,TripletSixteenth,D#4
1827,Right,0,62,80,424.0,0.15625,TripletSixteenth,D4
1828,Right,0,65,80,424.166667,0.15625,TripletSixteenth,F4
1829,Right,0,63,80,424.333333,0.15625,TripletSixteenth,D#4
1830,Right,0,65,80,424.5,0.15625,TripletSixteenth,F4
1831,Right,0,67,80,424.666667,0.15625,TripletSixteenth,G4
1832,Right,0,69,80,424.833333,0.15625,TripletSixteenth,A4
1833,Right,0,70,80,425.0,0.239583,Sixteenth,A#4
1834,Right,0,69,80,425.25,0.239583,Sixteenth,A4
1835,Right,0,67,80,425.5,0.239583,Sixteenth,G4
1836,Right,0,65,80,425.75,0.239583,Sixteenth,F4
1837,Right,0,67,80,426.0,0.239583,Sixteenth,G4
1838,Right,0,69,80,426.25,0.239583,Sixteenth,A4
1839,Right,0,70,80,426.5,0.239583,Sixteenth,A#4
1840,Right,0,72,80,426.75,0.239583,Sixteenth,C5
1841,Right,0,74,80,427.0,0.239583,Sixteenth,D5
1842,Right,0,72,80,427.25,0.239583,Sixteenth,C5
1843,Right,0,70,80,427.5,0.239583,Sixteenth,A#4
1844,Right,0,69,80,427.75,0.239583,Sixteenth,A4
1845,Right,0,70,80,428.0,0.239583,Sixteenth,A#4
1846,Right,0,72,80,428.25,0.239583,Sixteenth,C5
1847,Right,0,74,80,428.5,0.239583,Sixteenth,D5
1848,Right,0,75,80,428.75,0.239583,Sixteenth,D#5
1849,Right,0,79,80,429.0,0.239583,Sixteenth,G5
1850,Right,0,77,80,429.25,0.239583,Sixteenth,F5
1851,Right,0,75,80,429.5,0.239583,Sixteenth,D#5
1852,Right,0,74,80,429.75,0.239583,Sixteenth,D5
1853,Right,0,77,80,430.0,0.322917,Triplet,F5
1854,Right,0,75,80,430.333333,0.322917,Triplet,D#5
1855,Right,0,74,80,430.666667,0.322917,Triplet,D5
1856,Right,0,75,80,431.0,0.239583,Sixteenth,D#5
1857,Right,0,77,80,431.25,0.239583,Sixteenth,F5
1858,Right,0,79,80,431.5,0.239583,Sixteenth,G5
1859,Right,0,81,80,431.75,0.239583,Sixteenth,A5
1861,Right,0,82,80,432.0,1.489583,DottedQuarter,A#5
1860,Left,1,50,80,432.0,0.239583,Sixteenth,D3
1862,Left,1,58,80,432.25,0.239583,Sixteenth,A#3
1863,Left,1,53,80,432.5,0.239583,Sixteenth,F3
1864,Left,1,58,80,432.75,0.239583,Sixteenth,A#3
1865,Left,1,50,80,433.0,0.239583,Sixteenth,D3
1866,Left,1,58,80,433.25,0.239583,Sixteenth,A#3
1867,Right,0,81,80,433.5,0.239583,Sixteenth,A5
1868,Left,1,53,80,433.5,0.239583,Sixteenth,F3
1869,Right,0,82,80,433.75,0.239583,Sixteenth,A#5
1870,Left,1,58,80,433.75,0.239583,Sixteenth,A#3
1872,Right,0,81,80,434.0,0.239583,Sixteenth,A5
1871,Left,1,50,80,434.0,0.239583,Sixteenth,D3
1873,Right,0,82,80,434.25,0.239583,Sixteenth,A#5
1874,Left,1,58,80,434.25,0.239583,Sixteenth,A#3
1875,Left,1,53,80,434.5,0.239583,Sixteenth,F3
1876,Right,0,84,80,434.5,0.239583,Sixteenth,C6
1878,Left,1,58,80,434.75,0.239583,Sixteenth,A#3
1877,Right,0,82,80,434.75,0.239583,Sixteenth,A#5
1880,Left,1,50,80,435.0,0.239583,Sixteenth,D3
1879,Right,0,77,80,435.0,1.489583,DottedQuarter,F5
1881,Left,1,58,80,435.25,0.239583,Sixteenth,A#3
1882,Left,1,53,80,435.5,0.239583,Sixteenth,F3
1883,Left,1,58,80,435.75,0.239583,Sixteenth,A#3
1884,Left,1,50,80,436.0,0.239583,Sixteenth,D3
1885,Left,1,58,80,436.25,0.239583,Sixteenth,A#3
1886,Right,0,76,80,436.5,0.239583,Sixteenth,E5
1887,Left,1,53,80,436.5,0.239583,Sixteenth,F3
1888,Right,0,77,80,436.75,0.239583,Sixteenth,F5
1889,Left,1,58,80,436.75,0.239583,Sixteenth,A#3
1891,Right,0,79,80,437.0,0.239583,Sixteenth,G5
1890,Left,1,50,80,437.0,0.239583,Sixteenth,D3
1892,Right,0,77,80,437.25,0.239583,Sixteenth,F5
1893,Left,1,58,80,437.25,0.239583,Sixteenth,A#3
1895,Right,0,75,80,437.5,0.239583,Sixteenth,D#5
1894,Left,1,53,80,437.5,0.239583,Sixteenth,F3
1897,Left,1,58,80,437.75,0.239583,Sixteenth,A#3
1896,Right,0,74,80,437.75,0.239583,Sixteenth,D5
1898,Right,0,78,80,438.0,0.239583,Sixteenth,F#5
1899,Left,1,51,80,438.0,0.239583,Sixteenth,D#3
1900,Left,1,58,80,438.25,0.239583,Sixteenth,A#3
1901,Right,0,79,80,438.25,0.239583,Sixteenth,G5
1903,Right,0,78,80,438.5,0.239583,Sixteenth,F#5
1902,Left,1,55,80,438.5,0.239583,Sixteenth,G3
1905,Right,0,79,80,438.75,0.239583,Sixteenth,G5
1904,Left,1,58,80,438.75,0.239583,Sixteenth,A#3
1906,Left,1,51,80,439.0,0.239583,Sixteenth,D#3
1907,Right,0,78,80,439.0,0.239583,Sixteenth,F#5
1909,Left,1,58,80,439.25,0.239583,Sixteenth,A#3
1908,Right,0,79,80,439.25,0.239583,Sixteenth,G5
1911,Left,1,55,80,439.5,0.239583,Sixteenth,G3
1910,Right,0,78,80,439.5,0.239583,Sixteenth,F#5
1912,Right,0,79,80,439.75,0.239583,Sixteenth,G5
1913,Left,1,58,80,439.75,0.239583,Sixteenth,A#3
1915,Left,1,51,80,440.0,0.239583,Sixteenth,D#3
1914,Right,0,74,80,440.0,0.239583,Sixteenth,D5
1917,Left,1,59,80,440.25,0.239583,Sixteenth,B3
1916,Right,0,75,80,440.25,0.239583,Sixteenth,D#5
1919,Left,1,55,80,440.5,0.239583,Sixteenth,G3
1918,Right,0,74,80,440.5,0.239583,Sixteenth,D5
1920,Left,1,59,80,440.75,0.239583,Sixteenth,B3
1921,Right,0,75,80,440.75,0.239583,Sixteenth,D#5
1922,Right,0,71,80,441.0,0.239583,Sixteenth,B4
1923,Left,1,51,80,441.0,0.239583,Sixteenth,D#3
1924,Right,0,72,80,441.25,0.239583,Sixteenth,C5
1925,Left,1,60,80,441.25,0.239583,Sixteenth,C4
1927,Left,1,55,80,441.5,0.239583,Sixteenth,G3
1926,Right,0,71,80,441.5,0.239583,Sixteenth,B4
1928,Right,0,72,80,441.75,0.239583,Sixteenth,C5
1929,Left,1,60,80,441.75,0.239583,Sixteenth,C4
1930,Left,1,51,80,442.0,0.239583,Sixteenth,D#3
1931,Left,1,60,80,442.25,0.239583,Sixteenth,C4
1932,Left,1,55,80,442.5,0.239583,Sixteenth,G3
1933,Left,1,60,80,442.75,0.239583,Sixteenth,C4
1934,Left,1,52,80,443.0,0.239583,Sixteenth,E3
1935,Left,1,60,80,443.25,0.239583,Sixteenth,C4
1936,Right,0,84,80,443.5,0.489583,Eighth,C6
1937,Left,1,58,80,443.5,0.239583,Sixteenth,A#3
1938,Left,1,60,80,443.75,0.239583,Sixteenth,C4
1940,Left,1,50,80,444.0,0.239583,Sixteenth,D3
1939,Right,0,87,80,444.0,1.489583,DottedQuarter,D#6
1941,Left,1,60,80,444.25,0.239583,Sixteenth,C4
1942,Left,1,57,80,444.5,0.239583,Sixteenth,A3
1943,Left,1,60,80,444.75,0.239583,Sixteenth,C4
1944,Left,1,50,80,445.0,0.239583,Sixteenth,D3
1945,Left,1,60,80,445.25,0.239583,Sixteenth,C4
1947,Left,1,57,80,445.5,0.239583,Sixteenth,A3
1946,Right,0,86,80,445.5,0.239583,Sixteenth,D6
1949,Left,1,60,80,445.75,0.239583,Sixteenth,C4
1948,Right,0,87,80,445.75,0.239583,Sixteenth,D#6
1950,Right,0,89,80,446.0,0.239583,Sixteenth,F6
1951,Left,1,50,80,446.0,0.239583,Sixteenth,D3
1953,Right,0,87,80,446.25,0.239583,Sixteenth,D#6
1952,Left,1,60,80,446.25,0.239583,Sixteenth,C4
1954,Right,0,86,80,446.5,0.239583,Sixteenth,D6
1955,Left,1,57,80,446.5,0.239583,Sixteenth,A3
1957,Left,1,60,80,446.75,0.239583,Sixteenth,C4
1956,Right,0,84,80,446.75,0.239583,Sixteenth,C6
1958,Right,0,82,80,447.0,0.239583,Sixteenth,A#5
1959,Left,1,53,80,447.0,0.239583,Sixteenth,F3
1961,Left,1,63,80,447.25,0.239583,Sixteenth,D#4
1960,Right,0,81,80,447.25,0.239583,Sixteenth,A5
1963,Right,0,86,80,447.5,0.239583,Sixteenth,D6
1962,Left,1,60,80,447.5,0.239583,Sixteenth,C4
1965,Right,0,84,80,447.75,0.239583,Sixteenth,C6
1964,Left,1,63,80,447.75,0.239583,Sixteenth,D#4
1967,Right,0,82,80,448.0,0.239583,Sixteenth,A#5
1966,Left,1,53,80,448.0,0.239583,Sixteenth,F3
1969,Right,0,81,80,448.25,0.239583,Sixteenth,A5
1968,Left,1,63,80,448.25,0.239583,Sixteenth,D#4
1970,Left,1,57,80,448.5,0.239583,Sixteenth,A3
1971,Right,0,79,80,448.5,0.239583,Sixteenth,G5
1973,Left,1,63,80,448.75,0.239583,Sixteenth,D#4
1972,Right,0,77,80,448.75,0.239583,Sixteenth,F5
1974,Left,1,54,80,449.0,0.239583,Sixteenth,F#3
1975,Right,0,75,80,449.0,0.239583,Sixteenth,D#5
1976,Left,1,63,80,449.25,0.239583,Sixteenth,D#4
1977,Right,0,74,80,449.25,0.239583,Sixteenth,D5
1979,Right,0,75,80,449.5,0.239583,Sixteenth,D#5
1978,Left,1,57,80,449.5,0.239583,Sixteenth,A3
1981,Right,0,72,80,449.75,0.489583,Eighth,C5
1980,Left,1,63,80,449.75,0.239583,Sixteenth,D#4
1982,Left,1,55,80,450.0,0.239583,Sixteenth,G3
1983,Left,1,62,80,450.25,0.239583,Sixteenth,D4
1984,Right,0,70,80,450.25,0.239583,Sixteenth,A#4
1985,Left,1,58,80,450.5,0.239583,Sixteenth,A#3
1986,Right,0,74,80,450.5,0.739583,DottedEighth,D5
1987,Left,1,62,80,450.75,0.239583,Sixteenth,D4
1988,Left,1,51,80,451.0,0.239583,Sixteenth,D#3
1989,Right,0,67,80,451.25,0.239583,Sixteenth,G4
1990,Left,1,60,80,451.25,0.239583,Sixteenth,C4
1991,Right,0,75,80,451.5,0.739583,DottedEighth,D#5
1992,Left,1,55,80,451.5,0.239583,Sixteenth,G3
1993,Left,1,60,80,451.75,0.239583,Sixteenth,C4
1994,Left,1,53,80,452.0,0.239583,Sixteenth,F3
1996,Right,0,69,80,452.25,0.239583,Sixteenth,A4
1995,Left,1,60,80,452.25,0.239583,Sixteenth,C4
1997,Right,0,72,80,452.5,0.489583,Eighth,C5
1998,Left,1,57,80,452.5,0.239583,Sixteenth,A3
1999,Left,1,63,80,452.75,0.239583,Sixteenth,D#4
2000,Right,0,70,80,453.0,0.489583,Eighth,A#4
2001,Left,1,46,80,453.0,0.239583,Sixteenth,A#2
2002,Left,1,50,80,453.25,0.239583,Sixteenth,D3
2003,Left,1,51,80,453.5,0.239583,Sixteenth,D#3
2004,Left,1,53,80,453.75,0.239583,Sixteenth,F3
2005,Right,0,55,80,454.0,0.239583,Sixteenth,G3
2006,Right,0,57,80,454.25,0.239583,Sixteenth,A3
2007,Right,0,58,80,454.5,0.239583,Sixteenth,A#3
2008,Right,0,60,80,454.75,0.239583,Sixteenth,C4
2009,Right,0,62,80,455.0,0.239583,Sixteenth,D4
2010,Right,0,63,80,455.25,0.239583,Sixteenth,D#4
2011,Right,0,65,80,455.5,0.239583,Sixteenth,F4
2012,Right,0,67,80,455.75,0.239583,Sixteenth,G4
2013,Right,0,65,80,456.0,1.989583,Half,F4
2014,Left,1,45,80,456.5,0.489583,Eighth,F3_C3_A2
2017,Left,1,53,80,457.0,0.489583,Eighth,F3_C3_A2
2020,Left,1,53,80,457.5,0.489583,Eighth,F3_C3_A2
2023,Left,1,48,80,458.0,0.489583,Eighth,F3_C3_A2
2026,Right,0,63,80,458.0,0.1875,TripletSixteenth,D#4
2027,Right,0,65,80,458.125,0.197917,TripletSixteenth,F4
2028,Right,0,63,80,458.25,0.208333,Sixteenth,D#4
2029,Right,0,65,80,458.375,0.197917,TripletSixteenth,F4
2030,Left,1,45,80,458.5,0.489583,Eighth,F3_C3_A2
2033,Right,0,63,80,458.5,0.21875,Sixteenth,D#4
2034,Right,0,65,80,458.625,0.21875,Sixteenth,F4
2035,Right,0,62,80,458.75,0.197917,TripletSixteenth,D4
2036,Right,0,63,80,458.875,0.114583,ThirtySecond,D#4
2038,Right,0,62,80,459.0,0.239583,Sixteenth,D4
2037,Left,1,58,80,459.0,0.239583,Sixteenth,A#3
2039,Left,1,62,80,459.25,0.239583,Sixteenth,D4
2040,Left,1,63,80,459.5,0.239583,Sixteenth,D#4
2041,Left,1,65,80,459.75,0.239583,Sixteenth,F4
2042,Right,0,67,80,460.0,0.239583,Sixteenth,G4
2043,Right,0,69,80,460.25,0.239583,Sixteenth,A4
2044,Right,0,70,80,460.5,0.239583,Sixteenth,A#4
2045,Right,0,72,80,460.75,0.239583,Sixteenth,C5
2046,Right,0,74,80,461.0,0.239583,Sixteenth,D5
2047,Right,0,75,80,461.25,0.239583,Sixteenth,D#5
2048,Right,0,77,80,461.5,0.239583,Sixteenth,F5
2049,Right,0,79,80,461.75,0.239583,Sixteenth,G5
2050,Right,0,77,80,462.0,1.989583,Half,F5
2051,Left,1,57,80,462.5,0.489583,Eighth,F4_C4_A3
2054,Left,1,57,80,463.0,0.489583,Eighth,F4_C4_A3
2057,Left,1,65,80,463.5,0.489583,Eighth,F4_C4_A3
2060,Left,1,60,80,464.0,0.489583,Eighth,F4_C4_A3
2062,Right,0,75,80,464.0,0.1875,TripletSixteenth,D#5
2064,Right,0,77,80,464.125,0.197917,TripletSixteenth,F5
2065,Right,0,75,80,464.25,0.208333,Sixteenth,D#5
2066,Right,0,77,80,464.375,0.197917,TripletSixteenth,F5
2067,Left,1,57,80,464.5,0.489583,Eighth,F4_C4_A3
2069,Right,0,75,80,464.5,0.21875,Sixteenth,D#5
2071,Right,0,77,80,464.625,0.21875,Sixteenth,F5
2072,Right,0,74,80,464.75,0.197917,TripletSixteenth,D5
2073,Right,0,75,80,464.875,0.114583,ThirtySecond,D#5
2074,Right,0,74,80,465.0,0.989583,Quarter,D5
2075,Left,1,58,80,465.5,0.489583,Eighth,D4_A#3
2077,Right,0,72,80,466.0,0.239583,Sixteenth,C5
2078,Right,0,74,80,466.125,0.239583,Sixteenth,D5
2079,Right,0,72,80,466.25,0.239583,Sixteenth,C5
2080,Right,0,74,81,466.375,0.239583,Sixteenth,D5
2082,Left,1,54,81,466.5,0.489583,Eighth,F#3_D4_A3
2081,Right,0,72,81,466.5,0.239583,Sixteenth,C5
2085,Right,0,74,81,466.625,0.239583,Sixteenth,D5
2086,Right,0,71,82,466.75,0.239583,Sixteenth,B4
2087,Right,0,72,82,466.875,0.239583,Sixteenth,C5
2088,Right,0,70,82,467.0,0.989583,Quarter,A#4
2089,Left,1,62,84,467.5,0.489583,Eighth,G3_D4_A#3
2092,Right,0,68,85,468.0,0.239583,Sixteenth,G#4
2093,Right,0,70,86,468.125,0.239583,Sixteenth,A#4
2094,Right,0,68,86,468.25,0.239583,Sixteenth,G#4
2095,Right,0,70,86,468.375,0.239583,Sixteenth,A#4
2096,Right,0,68,87,468.5,0.239583,Sixteenth,G#4
2097,Left,1,50,87,468.5,0.489583,Eighth,F3_D3_A#3
2100,Right,0,70,87,468.625,0.239583,Sixteenth,A#4
2101,Right,0,67,87,468.75,0.239583,Sixteenth,G4
2102,Right,0,68,88,468.875,0.239583,Sixteenth,G#4
2103,Right,0,67,88,469.0,0.989583,Quarter,G4
2104,Left,1,51,90,469.5,0.489583,Eighth,G3_D#3_A#3
2107,Right,0,65,91,470.0,0.114583,ThirtySecond,F4
2108,Right,0,67,91,470.125,0.114583,ThirtySecond,G4
2109,Right,0,65,92,470.25,0.114583,ThirtySecond,F4
2110,Right,0,67,92,470.375,0.114583,ThirtySecond,G4
2111,Left,1,55,92,470.5,0.489583,Eighth,G3_D3_B2
2114,Right,0,65,92,470.5,0.114583,ThirtySecond,F4
2115,Right,0,67,93,470.625,0.114583,ThirtySecond,G4
2116,Right,0,64,93,470.75,0.114583,ThirtySecond,E4
2117,Right,0,65,94,470.875,0.114583,ThirtySecond,F4
2118,Right,0,64,94,471.0,0.989583,Quarter,E4
2119,Left,1,48,95,471.5,0.489583,Eighth,G3_E3_C3
2122,Right,0,63,97,472.0,0.239583,Sixteenth,D#4
2123,Right,0,65,97,472.125,0.239583,Sixteenth,F4
2124,Right,0,63,98,472.25,0.239583,Sixteenth,D#4
2125,Right,0,65,98,472.375,0.239583,Sixteenth,F4
2128,Right,0,63,98,472.5,0.239583,Sixteenth,D#4
2126,Left,1,48,98,472.5,0.489583,Eighth,F3_C3_A2
2130,Right,0,65,99,472.625,0.239583,Sixteenth,F4
2131,Right,0,62,99,472.75,0.239583,Sixteenth,D4
2132,Right,0,63,99,472.875,0.239583,Sixteenth,D#4
2133,Right,0,62,100,473.0,0.989583,Quarter,D4
2134,Left,1,53,101,473.5,0.489583,Eighth,F3_D3_A#2
2137,Right,0,63,103,474.0,0.239583,Sixteenth,D#4
2138,Right,0,65,103,474.125,0.239583,Sixteenth,F4
2139,Right,0,63,103,474.25,0.239583,Sixteenth,D#4
2140,Right,0,65,104,474.375,0.239583,Sixteenth,F4
2141,Right,0,63,104,474.5,0.239583,Sixteenth,D#4
2142,Left,1,45,104,474.5,0.489583,Eighth,F3_C3_A2
2145,Right,0,65,104,474.625,0.239583,Sixteenth,F4
2146,Right,0,62,105,474.75,0.239583,Sixteenth,D4
2147,Right,0,63,105,474.875,0.239583,Sixteenth,D#4
2148,Right,0,62,105,475.0,0.989583,Quarter,D4
2149,Left,1,50,107,475.5,0.489583,Eighth,F3_D3_A#2
2152,Right,0,63,108,476.0,0.239583,Sixteenth,D#4
2153,Right,0,65,109,476.125,0.239583,Sixteenth,F4
2154,Right,0,63,109,476.25,0.239583,Sixteenth,D#4
2155,Right,0,65,109,476.375,0.239583,Sixteenth,F4
2157,Right,0,63,110,476.5,0.239583,Sixteenth,D#4
2156,Left,1,48,110,476.5,0.489583,Eighth,F3_C3_A2
2160,Right,0,65,110,476.625,0.239583,Sixteenth,F4
2161,Right,0,62,110,476.75,0.239583,Sixteenth,D4
2162,Right,0,63,80,476.875,0.239583,Sixteenth,D#4
2163,Left,1,50,80,477.0,0.489583,Eighth,F3_D3_A#2
2165,Right,0,62,80,477.0,0.239583,Sixteenth,D4
2167,Right,0,58,80,477.25,0.239583,Sixteenth,A#3
2168,Right,0,53,80,477.5,0.239583,Sixteenth,F3
2169,Right,0,58,80,477.75,0.239583,Sixteenth,A#3
2170,Right,0,62,80,478.0,0.239583,Sixteenth,D4
2171,Right,0,58,80,478.25,0.239583,Sixteenth,A#3
2172,Right,0,65,80,478.5,0.239583,Sixteenth,F4
2173,Right,0,62,80,478.75,0.239583,Sixteenth,D4
2174,Right,0,70,80,479.0,0.239583,Sixteenth,A#4
2175,Right,0,65,80,479.25,0.239583,Sixteenth,F4
2176,Right,0,74,80,479.5,0.239583,Sixteenth,D5
2177,Right,0,70,80,479.75,0.239583,Sixteenth,A#4
2178,Right,0,65,80,480.0,0.239583,Sixteenth,F4
2179,Right,0,62,80,480.25,0.239583,Sixteenth,D4
2180,Right,0,70,80,480.5,0.239583,Sixteenth,A#4
2181,Right,0,65,80,480.75,0.239583,Sixteenth,F4
2182,Right,0,74,80,481.0,0.239583,Sixteenth,D5
2183,Right,0,70,80,481.25,0.239583,Sixteenth,A#4
2184,Right,0,77,80,481.5,0.239583,Sixteenth,F5
2185,Right,0,74,80,481.75,0.239583,Sixteenth,D5
2186,Right,0,70,80,482.0,0.239583,Sixteenth,A#4
2187,Right,0,65,80,482.25,0.239583,Sixteenth,F4
2188,Right,0,74,80,482.5,0.239583,Sixteenth,D5
2189,Right,0,70,80,482.75,0.239583,Sixteenth,A#4
2190,Right,0,77,80,483.0,0.239583,Sixteenth,F5
2191,Right,0,74,80,483.25,0.239583,Sixteenth,D5
2192,Right,0,82,80,483.5,0.239583,Sixteenth,A#5
2193,Right,0,77,80,483.75,0.239583,Sixteenth,F5
2194,Right,0,74,80,484.0,0.239583,Sixteenth,D5
2195,Right,0,70,80,484.25,0.239583,Sixteenth,A#4
2196,Right,0,77,80,484.5,0.239583,Sixteenth,F5
2197,Right,0,74,80,484.75,0.239583,Sixteenth,D5
2198,Right,0,82,80,485.0,0.239583,Sixteenth,A#5
2199,Right,0,77,80,485.25,0.239583,Sixteenth,F5
2200,Right,0,86,80,485.5,0.239583,Sixteenth,D6
2201,Right,0,82,80,485.75,0.239583,Sixteenth,A#5
2202,Right,0,89,80,486.0,0.489583,Eighth,F6
2204,Right,0,77,80,486.5,0.489583,Eighth,F5
2203,Left,1,65,80,486.5,0.489583,Eighth,F4
2205,Right,0,82,80,487.0,0.489583,Eighth,A#5
2206,Left,1,70,80,487.0,0.489583,Eighth,A#4
2208,Right,0,86,80,487.5,0.489583,Eighth,D6
2207,Left,1,74,80,487.5,0.489583,Eighth,D5
2209,Right,0,89,80,488.0,0.489583,Eighth,F6
2210,Left,1,77,80,488.0,0.489583,Eighth,F5
2211,Right,0,65,87,488.5,0.489583,Eighth,F4
2212,Right,0,70,95,489.0,0.489583,Eighth,A#4
2213,Right,0,74,103,489.5,0.489583,Eighth,D5
2214,Right,0,77,110,490.0,0.489583,Eighth,F5
2215,Right,0,53,110,490.5,0.489583,Eighth,F3
2216,Left,1,41,110,490.5,0.489583,Eighth,F2
2217,Right,0,58,110,491.0,0.489583,Eighth,A#3
2218,Left,1,46,110,491.0,0.489583,Eighth,A#2
2219,Left,1,50,110,491.5,0.489583,Eighth,D3
2220,Right,0,62,110,491.5,0.489583,Eighth,D4
2222,Left,1,53,110,492.0,0.989583,Quarter,F3
2221,Right,0,65,110,492.0,0.489583,Eighth,F4
2223,Right,0,70,80,492.5,0.489583,Eighth,A#4
2224,Right,0,74,80,493.0,0.489583,Eighth,D5
2225,Right,0,77,80,493.5,0.489583,Eighth,F5
2226,Right,0,75,80,494.0,0.489583,Eighth,D#5
2227,Right,0,74,80,494.5,0.489583,Eighth,D5
2228,Right,0,72,80,495.0,0.239583,Sixteenth,C5
2229,Right,0,74,80,495.125,0.239583,Sixteenth,D5
2230,Right,0,72,80,495.25,0.239583,Sixteenth,C5
2231,Right,0,74,81,495.375,0.239583,Sixteenth,D5
2232,Left,1,53,81,495.5,0.489583,Eighth,F3
2233,Right,0,72,81,495.5,0.239583,Sixteenth,C5
2234,Right,0,74,81,495.625,0.239583,Sixteenth,D5
2235,Right,0,72,82,495.75,0.239583,Sixteenth,C5
2236,Right,0,74,82,495.875,0.239583,Sixteenth,D5
2237,Left,1,57,82,496.0,0.489583,Eighth,A3
2238,Right,0,72,82,496.0,0.239583,Sixteenth,C5
2239,Right,0,74,83,496.125,0.239583,Sixteenth,D5
2240,Right,0,72,83,496.25,0.239583,Sixteenth,C5
2241,Right,0,74,83,496.375,0.239583,Sixteenth,D5
2242,Left,1,60,84,496.5,0.489583,Eighth,C4
2243,Right,0,72,84,496.5,0.239583,Sixteenth,C5
2244,Right,0,74,84,496.625,0.239583,Sixteenth,D5
2245,Right,0,72,84,496.75,0.239583,Sixteenth,C5
2246,Right,0,74,85,496.875,0.239583,Sixteenth,D5
2247,Left,1,63,85,497.0,0.489583,Eighth,D#4
2248,Right,0,72,85,497.0,0.239583,Sixteenth,C5
2249,Right,0,74,85,497.125,0.239583,Sixteenth,D5
2250,Right,0,72,86,497.25,0.239583,Sixteenth,C5
2251,Right,0,74,86,497.375,0.239583,Sixteenth,D5
2252,Right,0,72,86,497.5,0.239583,Sixteenth,C5
2253,Left,1,41,86,497.5,0.489583,Eighth,F2
2254,Right,0,74,87,497.625,0.239583,Sixteenth,D5
2255,Right,0,72,87,497.75,0.239583,Sixteenth,C5
2256,Right,0,74,87,497.875,0.239583,Sixteenth,D5
2258,Right,0,72,88,498.0,0.239583,Sixteenth,C5
2257,Left,1,45,88,498.0,0.489583,Eighth,A2
2259,Right,0,74,88,498.125,0.239583,Sixteenth,D5
2260,Right,0,72,88,498.25,0.239583,Sixteenth,C5
2261,Right,0,74,89,498.375,0.239583,Sixteenth,D5
2262,Left,1,48,89,498.5,0.489583,Eighth,C3
2263,Right,0,72,89,498.5,0.239583,Sixteenth,C5
2264,Right,0,74,89,498.625,0.239583,Sixteenth,D5
2265,Right,0,72,90,498.75,0.239583,Sixteenth,C5
2266,Right,0,74,90,498.875,0.239583,Sixteenth,D5
2268,Left,1,51,90,499.0,0.489583,Eighth,D#3
2267,Right,0,72,90,499.0,0.239583,Sixteenth,C5
2269,Right,0,74,91,499.125,0.239583,Sixteenth,D5
2270,Right,0,72,91,499.25,0.239583,Sixteenth,C5
2271,Right,0,74,91,499.375,0.239583,Sixteenth,D5
2272,Right,0,72,92,499.5,0.239583,Sixteenth,C5
2273,Left,1,42,92,499.5,0.489583,Eighth,F#2
2274,Right,0,74,92,499.625,0.239583,Sixteenth,D5
2275,Right,0,72,92,499.75,0.239583,Sixteenth,C5
2276,Right,0,74,93,499.875,0.239583,Sixteenth,D5
2278,Left,1,45,93,500.0,0.489583,Eighth,A2
2277,Right,0,72,93,500.0,0.239583,Sixteenth,C5
2279,Right,0,74,93,500.125,0.239583,Sixteenth,D5
2280,Right,0,72,94,500.25,0.239583,Sixteenth,C5
2281,Right,0,74,94,500.375,0.239583,Sixteenth,D5
2283,Right,0,72,94,500.5,0.239583,Sixteenth,C5
2282,Left,1,48,94,500.5,0.489583,Eighth,C3
2284,Right,0,74,95,500.625,0.239583,Sixteenth,D5
2285,Right,0,72,95,500.75,0.239583,Sixteenth,C5
2286,Right,0,74,95,500.875,0.239583,Sixteenth,D5
2287,Right,0,72,96,501.0,0.239583,Sixteenth,C5
2288,Left,1,51,96,501.0,0.489583,Eighth,D#3
2289,Right,0,74,96,501.125,0.239583,Sixteenth,D5
2290,Right,0,72,96,501.25,0.239583,Sixteenth,C5
2291,Right,0,74,97,501.375,0.239583,Sixteenth,D5
2292,Right,0,72,97,501.5,0.239583,Sixteenth,C5
2293,Left,1,41,97,501.5,0.489583,Eighth,F2
2294,Right,0,74,97,501.625,0.239583,Sixteenth,D5
2295,Right,0,72,98,501.75,0.239583,Sixteenth,C5
2296,Right,0,74,98,501.875,0.239583,Sixteenth,D5
2297,Left,1,45,98,502.0,0.489583,Eighth,A2
2298,Right,0,72,98,502.0,0.239583,Sixteenth,C5
2299,Right,0,74,99,502.125,0.239583,Sixteenth,D5
2300,Right,0,72,99,502.25,0.239583,Sixteenth,C5
2301,Right,0,74,99,502.375,0.239583,Sixteenth,D5
2303,Right,0,72,100,502.5,0.239583,Sixteenth,C5
2302,Left,1,48,100,502.5,0.489583,Eighth,C3
2304,Right,0,74,100,502.625,0.239583,Sixteenth,D5
2305,Right,0,72,100,502.75,0.239583,Sixteenth,C5
2306,Right,0,74,101,502.875,0.239583,Sixteenth,D5
2308,Right,0,72,101,503.0,0.239583,Sixteenth,C5
2307,Left,1,51,101,503.0,0.489583,Eighth,D#3
2309,Right,0,74,101,503.125,0.239583,Sixteenth,D5
2310,Right,0,72,102,503.25,0.239583,Sixteenth,C5
2311,Right,0,74,102,503.375,0.239583,Sixteenth,D5
2313,Left,1,53,102,503.5,0.489583,Eighth,F3
2312,Right,0,72,102,503.5,0.239583,Sixteenth,C5
2314,Right,0,74,103,503.625,0.239583,Sixteenth,D5
2315,Right,0,72,103,503.75,0.239583,Sixteenth,C5
2316,Right,0,74,103,503.875,0.239583,Sixteenth,D5
2318,Left,1,57,104,504.0,0.489583,Eighth,A3
2317,Right,0,72,104,504.0,0.239583,Sixteenth,C5
2319,Right,0,74,104,504.125,0.239583,Sixteenth,D5
2320,Right,0,72,104,504.25,0.239583,Sixteenth,C5
2321,Right,0,74,105,504.375,0.239583,Sixteenth,D5
2323,Right,0,72,105,504.5,0.239583,Sixteenth,C5
2322,Left,1,60,105,504.5,0.489583,Eighth,C4
2324,Right,0,74,105,504.625,0.239583,Sixteenth,D5
2325,Right,0,72,106,504.75,0.239583,Sixteenth,C5
2326,Right,0,74,106,504.875,0.239583,Sixteenth,D5
2328,Right,0,72,106,505.0,0.239583,Sixteenth,C5
2327,Left,1,63,106,505.0,0.489583,Eighth,D#4
2329,Right,0,74,107,505.125,0.239583,Sixteenth,D5
2330,Right,0,72,107,505.25,0.239583,Sixteenth,C5
2331,Right,0,74,107,505.375,0.239583,Sixteenth,D5
2333,Left,1,53,108,505.5,0.489583,Eighth,F3
2332,Right,0,72,108,505.5,0.239583,Sixteenth,C5
2334,Right,0,74,108,505.625,0.239583,Sixteenth,D5
2335,Right,0,71,108,505.75,0.239583,Sixteenth,B4
2336,Right,0,72,109,505.875,0.239583,Sixteenth,C5
2337,Left,1,63,109,506.0,0.489583,Eighth,D#4
2338,Right,0,77,109,506.0,0.489583,Eighth,F5
2339,Left,1,53,110,506.5,0.489583,Eighth,F3
2340,Right,0,77,110,506.5,0.489583,Eighth,F5
2341,Left,1,58,80,507.0,0.989583,Quarter,D4_A#3
2343,Right,0,70,80,507.0,0.489583,Eighth,A#4
2344,Right,0,70,80,507.5,0.489583,Eighth,A#4
2345,Right,0,71,80,508.0,0.489583,Eighth,B4
2346,Right,0,72,80,508.5,0.489583,Eighth,C5
2347,Right,0,73,80,509.0,0.489583,Eighth,C#5
2348,Right,0,74,80,509.5,0.489583,Eighth,D5
2350,Right,0,75,80,510.0,2.989583,DottedHalf,D#5
2349,Left,1,58,80,510.0,2.989583,DottedHalf,G3_A#3
2352,Right,0,67,80,513.0,2.989583,DottedHalf,G4
2353,Left,1,51,80,513.0,2.989583,DottedHalf,D#3_C4
2357,Right,0,70,80,516.0,0.989583,Eighth,D#4_A#4
2355,Left,1,53,80,516.0,0.989583,Quarter,F3_C4
2359,Right,0,69,80,516.5,0.489583,Eighth,A4
2360,Left,1,53,80,517.0,0.989583,Quarter,F3_C4
2361,Right,0,70,80,517.0,0.989583,ThirtySecond,D#4_A#4
2364,Right,0,69,80,517.114583,0.375,DottedSixteenth,A4
2365,Right,0,67,80,517.5,0.489583,Eighth,G4
2366,Right,0,69,80,518.0,0.989583,Eighth,D#4_A4
2367,Left,1,53,80,518.0,0.989583,Quarter,F3_C4
2371,Left,1,57,80,518.5,0.489583,Eighth,A3
2370,Right,0,72,80,518.5,0.489583,Eighth,C5
2372,Right,0,70,80,519.0,0.989583,Eighth,D4_A#4
2374,Left,1,46,80,519.0,0.489583,Eighth,A#3_A#2
2377,Left,1,58,80,519.5,0.489583,Eighth,A#3
2376,Right,0,70,80,519.5,0.489583,Eighth,A#4
2378,Right,0,71,80,520.0,0.489583,Eighth,B4
2379,Left,1,59,80,520.0,0.489583,Eighth,B3
2380,Right,0,72,80,520.5,0.489583,Eighth,C5
2381,Left,1,60,80,520.5,0.489583,Eighth,C4
2382,Left,1,61,80,521.0,0.489583,Eighth,C#4
2383,Right,0,73,80,521.0,0.489583,Eighth,C#5
2385,Left,1,62,80,521.5,0.489583,Eighth,D4
2384,Right,0,74,80,521.5,0.489583,Eighth,D5
2386,Left,1,63,80,522.0,2.989583,DottedHalf,D#4
2387,Right,0,75,80,522.0,2.989583,DottedHalf,D#5
2388,Left,1,51,80,525.0,2.989583,DottedHalf,G3_D#3
2390,Right,0,63,80,525.0,2.989583,DottedHalf,G4_D#4
2393,Right,0,68,80,527.0,0.489583,Eighth,G#4
2392,Left,1,56,80,527.0,0.489583,Eighth,G#3
2395,Right,0,70,80,527.5,0.489583,Eighth,A#4
2394,Left,1,58,80,527.5,0.489583,Eighth,A#3
2397,Right,0,63,80,528.0,2.989583,DottedHalf,D#4_C5_C4
2396,Left,1,53,80,528.0,2.989583,DottedHalf,G#3_G#2_F3_D#3
2403,Right,0,65,80,528.75,0.239583,Sixteenth,F4
2404,Right,0,65,80,529.0,1.989583,Half,F4
2408,Right,0,72,80,531.0,2.989583,DottedHalf,D#4_C5_C4
2405,Left,1,56,80,531.0,2.989583,DottedHalf,G#3_G#2_F3_D#3
2412,Right,0,65,80,531.75,0.239583,Sixteenth,F4
2413,Right,0,65,80,532.0,1.989583,Half,F4
2414,Right,0,65,80,534.0,0.989583,Quarter,F4_F3_D#4_C4
2418,Left,1,36,80,534.0,0.989583,Quarter,G#2_G#1_C2
2421,Right,0,63,83,535.0,0.989583,Quarter,F4_F3_D#4_C4
2424,Left,1,44,83,535.0,0.989583,Quarter,G#2_G#1_C2
2431,Right,0,63,86,536.0,0.989583,Quarter,F4_F3_D#4_C4
2428,Left,1,36,86,536.0,0.989583,Quarter,G#2_G#1_C2
2435,Right,0,66,90,537.0,2.989583,DottedHalf,F#4_F#3_D#4_C4
2438,Left,1,32,90,537.0,2.989583,DottedHalf,G#2_G#1_C2
2442,Left,1,36,100,540.0,0.989583,Quarter,G#2_G#1_C2
2443,Right,0,63,100,540.0,0.989583,Quarter,F#4_F#3_D#4_C4
2449,Left,1,44,104,541.0,0.989583,Quarter,G#2_G#1_C2
2452,Right,0,66,104,541.0,0.989583,Quarter,F#4_F#3_D#4_C4
2456,Left,1,32,107,542.0,0.989583,Quarter,G#2_G#1_C2
2458,Right,0,66,107,542.0,0.989583,Quarter,F#4_F#3_D#4_C4
2466,Left,1,31,110,543.0,2.989583,DottedHalf,G2_G1_C2
2463,Right,0,55,110,543.0,2.989583,DottedHalf,G4_G3_D#4_C4
2474,Left,1,43,110,546.0,0.989583,Quarter,G2_G1_C2
2470,Right,0,60,110,546.0,0.989583,Quarter,G4_G3_D#4_C4
2481,Left,1,43,110,547.0,0.989583,Quarter,G2_G1_C2
2477,Right,0,67,110,547.0,0.989583,Quarter,G4_G3_D#4_C4
2485,Right,0,55,110,548.0,0.989583,Quarter,G4_G3_D#4_C4
2484,Left,1,43,110,548.0,0.989583,Quarter,G2_G1_C2
2491,Right,0,69,110,549.0,0.989583,Quarter,D#4_C4_A4_A3
2495,Left,1,32,110,549.0,0.989583,Quarter,G#1_F#2_C2
2498,Right,0,87,110,550.0,0.739583,DottedEighth,D#6
2499,Right,0,81,110,550.75,0.239583,Sixteenth,A5
2500,Right,0,81,110,551.0,0.989583,Quarter,A5
2501,Left,1,59,110,552.0,0.989583,Quarter,F3_B3
2503,Right,0,68,110,553.0,0.739583,DottedEighth,G#4
2504,Right,0,62,110,553.75,0.239583,Sixteenth,D4
2505,Right,0,62,110,554.0,0.989583,Quarter,D4
2506,Left,1,46,110,555.0,0.989583,Quarter,G2_A#2
2508,Right,0,55,110,556.0,0.739583,DottedEighth,G3
2509,Right,0,48,110,556.75,0.239583,Sixteenth,C3
2510,Right,0,48,110,557.0,0.989583,Quarter,C3
2511,Left,1,41,110,558.0,0.739583,DottedEighth,F2
2512,Left,1,35,110,558.75,0.239583,Sixteenth,B1
2513,Left,1,35,110,559.0,0.989583,Quarter,B1
2514,Right,0,55,110,560.0,0.989583,Quarter,G3_F3_D3
2517,Left,1,36,110,561.0,0.489583,Eighth,C2
2518,Left,1,48,80,561.5,0.489583,Eighth,C3
2519,Left,1,48,80,562.0,0.489583,Eighth,C3
2520,Left,1,48,80,562.5,0.489583,Eighth,C3
2521,Left,1,48,80,563.0,0.489583,Eighth,C3
2522,Left,1,48,80,563.5,0.489583,Eighth,C3
2523,Left,1,60,80,564.0,2.989583,DottedHalf,C4_C3_A3
2526,Right,0,83,80,564.0,0.114583,ThirtySecond,B5
2527,Right,0,84,80,564.114583,0.604167,Eighth,C6
2528,Left,1,48,80,564.5,0.489583,Eighth,C3
2529,Right,0,77,80,564.75,0.239583,Sixteenth,F5
2531,Left,1,48,80,565.0,0.489583,Eighth,C3
2530,Right,0,77,80,565.0,0.989583,Quarter,F5
2532,Left,1,48,80,565.5,0.489583,Eighth,C3
2533,Left,1,48,80,566.0,0.489583,Eighth,C3
2534,Left,1,48,80,566.5,0.489583,Eighth,C3
2537,Right,0,71,80,567.0,0.114583,ThirtySecond,B4
2535,Left,1,55,80,567.0,2.989583,DottedHalf,G3_C3_B3
2539,Right,0,72,80,567.114583,0.604167,Eighth,C5
2540,Left,1,48,80,567.5,0.489583,Eighth,C3
2541,Right,0,64,80,567.75,0.239583,Sixteenth,E4
2542,Right,0,64,80,568.0,0.989583,Quarter,E4
2543,Left,1,48,80,568.0,0.489583,Eighth,C3
2544,Left,1,48,80,568.5,0.489583,Eighth,C3
2545,Left,1,48,80,569.0,0.489583,Eighth,C3
2546,Left,1,48,80,569.5,0.489583,Eighth,C3
2547,Left,1,57,80,570.0,0.989583,Quarter,F3_C3_A3
2549,Right,0,72,80,570.0,0.239583,Sixteenth,C5
2551,Right,0,62,80,570.25,0.239583,Sixteenth,D4
2552,Left,1,48,80,570.5,0.489583,Eighth,C3
2553,Left,1,56,80,571.0,0.989583,Quarter,G#3_F3_C3
2555,Right,0,72,80,571.0,0.239583,Sixteenth,C5
2557,Right,0,62,80,571.25,0.239583,Sixteenth,D4
2558,Left,1,48,80,571.5,0.489583,Eighth,C3
2559,Left,1,48,80,572.0,0.989583,Quarter,G3_F3_C3
2561,Right,0,71,80,572.0,0.239583,Sixteenth,B4
2563,Right,0,62,80,572.25,0.239583,Sixteenth,D4
2564,Left,1,48,80,572.5,0.489583,Eighth,C3
2565,Right,0,72,80,573.0,0.239583,Sixteenth,C5
2566,Left,1,55,80,573.0,0.989583,Quarter,G3_E3_C3
2569,Right,0,60,80,573.25,0.239583,Sixteenth,C4
2570,Left,1,48,80,573.5,0.489583,Eighth,C3
2571,Left,1,48,80,574.0,0.489583,Eighth,C3
2572,Left,1,48,80,574.5,0.489583,Eighth,C3
2573,Left,1,48,80,575.0,0.489583,Eighth,C3
2574,Left,1,48,80,575.5,0.489583,Eighth,C3
2576,Right,0,84,80,576.0,0.239583,Sixteenth,C6
2575,Left,1,48,80,576.0,2.989583,DottedHalf,C4_C3_A3
2579,Right,0,86,80,576.125,0.239583,Sixteenth,D6
2580,Right,0,84,80,576.25,0.239583,Sixteenth,C6
2581,Right,0,86,80,576.375,0.239583,Sixteenth,D6
2582,Left,1,48,80,576.5,0.489583,Eighth,C3
2583,Right,0,84,80,576.5,0.239583,Sixteenth,C6
2584,Right,0,86,80,576.625,0.239583,Sixteenth,D6
2585,Right,0,83,80,576.75,0.239583,Sixteenth,B5
2586,Right,0,84,80,576.875,0.114583,ThirtySecond,C6
2588,Right,0,77,80,577.0,0.989583,Quarter,F5
2587,Left,1,48,80,577.0,0.489583,Eighth,C3
2589,Left,1,48,80,577.5,0.489583,Eighth,C3
2590,Left,1,48,80,578.0,0.489583,Eighth,C3
2591,Left,1,48,80,578.5,0.489583,Eighth,C3
2593,Left,1,48,80,579.0,2.989583,DottedHalf,G3_C3_B3
2592,Right,0,72,80,579.0,0.239583,Sixteenth,C5
2596,Right,0,74,80,579.125,0.239583,Sixteenth,D5
2597,Right,0,72,80,579.25,0.239583,Sixteenth,C5
2598,Right,0,74,80,579.375,0.239583,Sixteenth,D5
2599,Left,1,48,80,579.5,0.489583,Eighth,C3
2600,Right,0,72,80,579.5,0.239583,Sixteenth,C5
2601,Right,0,74,80,579.625,0.239583,Sixteenth,D5
2602,Right,0,71,80,579.75,0.239583,Sixteenth,B4
2603,Right,0,72,80,579.875,0.114583,ThirtySecond,C5
2604,Right,0,64,80,580.0,0.989583,Quarter,E4
2605,Left,1,48,80,580.0,0.489583,Eighth,C3
2606,Left,1,48,80,580.5,0.489583,Eighth,C3
2607,Left,1,48,80,581.0,0.489583,Eighth,C3
2608,Left,1,48,80,581.5,0.489583,Eighth,C3
2610,Left,1,53,80,582.0,0.989583,Quarter,F3_C3_A3
2609,Right,0,72,80,582.0,0.239583,Sixteenth,C5
2613,Right,0,62,80,582.25,0.239583,Sixteenth,D4
2614,Left,1,48,80,582.5,0.489583,Eighth,C3
2615,Right,0,72,80,583.0,0.239583,Sixteenth,C5
2616,Left,1,56,80,583.0,0.989583,Quarter,G#3_F3_C3
2619,Right,0,62,80,583.25,0.239583,Sixteenth,D4
2620,Left,1,48,80,583.5,0.489583,Eighth,C3
2621,Left,1,48,80,584.0,0.989583,Quarter,G3_F3_C3
2624,Right,0,71,80,584.0,0.239583,Sixteenth,B4
2625,Right,0,62,80,584.25,0.239583,Sixteenth,D4
2626,Left,1,48,80,584.5,0.489583,Eighth,C3
2629,Left,1,48,80,585.0,0.489583,Eighth,G3_E3_C3
2627,Right,0,72,80,585.0,0.489583,Eighth,C5_C4
2632,Right,0,52,80,585.5,0.489583,Eighth,G3_E3
2634,Right,0,52,80,586.0,0.489583,Eighth,G3_E3
2636,Right,0,52,80,586.5,0.489583,Eighth,G3_E3
2638,Right,0,55,80,587.0,0.489583,Eighth,G3_E3
2640,Right,0,52,80,587.5,0.489583,Eighth,G3_E3
2643,Right,0,55,80,588.0,0.489583,Eighth,G3_F3
2642,Left,1,47,80,588.0,0.239583,Sixteenth,B2
2645,Left,1,37,80,588.25,0.239583,Sixteenth,C#2
2646,Right,0,55,80,588.5,0.489583,Eighth,G3_F3
2649,Left,1,47,80,589.0,0.239583,Sixteenth,B2
2648,Right,0,53,80,589.0,0.489583,Eighth,G3_F3
2651,Left,1,37,80,589.25,0.239583,Sixteenth,C#2
2652,Right,0,55,80,589.5,0.489583,Eighth,G3_F3
2656,Left,1,47,80,590.0,0.239583,Sixteenth,B2
2654,Right,0,55,80,590.0,0.489583,Eighth,G3_F3
2657,Left,1,37,80,590.25,0.239583,Sixteenth,C#2
2658,Right,0,55,80,590.5,0.489583,Eighth,G3_F3
2662,Left,1,48,80,591.0,0.239583,Sixteenth,C3
2660,Right,0,55,80,591.0,0.489583,Eighth,G3_E3
2663,Left,1,36,80,591.25,0.239583,Sixteenth,C2
2664,Right,0,52,80,591.5,0.489583,Eighth,G3_E3
2668,Left,1,67,80,592.0,0.989583,Quarter,G4
2666,Right,0,52,80,592.0,0.489583,Eighth,G3_E3
2669,Right,0,52,80,592.5,0.489583,Eighth,G3_E3
2671,Right,0,52,80,593.0,0.489583,Eighth,G3_E3
2673,Left,1,72,80,593.0,0.489583,Eighth,C5
2674,Right,0,52,80,593.5,0.489583,Eighth,G3_E3
2676,Left,1,47,80,594.0,0.239583,Sixteenth,B2
2677,Right,0,55,80,594.0,0.489583,Eighth,G3_F3
2679,Left,1,37,80,594.25,0.239583,Sixteenth,C#2
2680,Right,0,53,80,594.5,0.489583,Eighth,G3_F3
2682,Left,1,47,80,595.0,0.239583,Sixteenth,B2
2683,Right,0,55,80,595.0,0.489583,Eighth,G3_F3
2685,Left,1,37,80,595.25,0.239583,Sixteenth,C#2
2686,Right,0,55,80,595.5,0.489583,Eighth,G3_F3
2689,Right,0,55,80,596.0,0.489583,Eighth,G3_F3
2688,Left,1,47,80,596.0,0.239583,Sixteenth,B2
2691,Left,1,37,80,596.25,0.239583,Sixteenth,C#2
2692,Right,0,53,80,596.5,0.489583,Eighth,G3_F3
2694,Right,0,52,80,597.0,0.489583,Eighth,G3_E3
2696,Left,1,48,80,597.0,0.239583,Sixteenth,C3
2697,Left,1,36,80,597.25,0.239583,Sixteenth,C2
2698,Right,0,52,80,597.5,0.489583,Eighth,G3_E3
2702,Left,1,67,80,598.0,0.989583,Quarter,G4
2700,Right,0,52,80,598.0,0.489583,Eighth,G3_E3
2703,Right,0,52,80,598.5,0.489583,Eighth,G3_E3
2706,Left,1,76,80,599.0,0.489583,Eighth,E5
2705,Right,0,55,80,599.0,0.489583,Eighth,G3_E3
2708,Right,0,55,80,599.5,0.489583,Eighth,G3_E3
2712,Left,1,47,80,600.0,0.239583,Sixteenth,B2
2710,Right,0,55,80,600.0,0.489583,Eighth,G3_F3
2713,Left,1,37,80,600.25,0.239583,Sixteenth,C#2
2714,Right,0,55,80,600.5,0.489583,Eighth,G3_F3
2717,Right,0,53,80,601.0,0.489583,Eighth,G3_F3
2716,Left,1,47,80,601.0,0.239583,Sixteenth,B2
2719,Left,1,37,80,601.25,0.239583,Sixteenth,C#2
2720,Right,0,53,80,601.5,0.489583,Eighth,G3_F3
2724,Left,1,47,80,602.0,0.239583,Sixteenth,B2
2722,Right,0,53,80,602.0,0.489583,Eighth,G3_F3
2725,Left,1,37,80,602.25,0.239583,Sixteenth,C#2
2726,Right,0,55,80,602.5,0.489583,Eighth,G3_F3
2728,Left,1,48,110,603.0,0.989583,Quarter,C3_C2
2730,Right,0,52,110,603.25,0.239583,Sixteenth,E3
2731,Right,0,60,110,603.5,0.239583,Sixteenth,C4
2732,Right,0,55,110,603.75,0.239583,Sixteenth,G3
2733,Right,0,64,110,604.0,0.239583,Sixteenth,E4
2734,Right,0,60,110,604.25,0.239583,Sixteenth,C4
2735,Right,0,67,110,604.5,0.239583,Sixteenth,G4
2736,Right,0,64,110,604.75,0.239583,Sixteenth,E4
2737,Right,0,72,110,605.0,0.239583,Sixteenth,C5
2738,Right,0,67,110,605.25,0.239583,Sixteenth,G4
2739,Right,0,76,110,605.5,0.239583,Sixteenth,E5
2740,Right,0,72,110,605.75,0.239583,Sixteenth,C5
2741,Right,0,79,110,606.0,1.989583,Half,G5
2742,Left,1,36,110,606.5,0.489583,Eighth,C2
2743,Left,1,40,110,607.0,0.489583,Eighth,E2
2744,Left,1,43,110,607.5,0.489583,Eighth,G2
2746,Right,0,70,110,608.0,0.239583,Sixteenth,A#4
2745,Left,1,48,110,608.0,0.489583,Eighth,C3
2747,Right,0,72,110,608.125,0.239583,Sixteenth,C5
2748,Right,0,70,110,608.25,0.239583,Sixteenth,A#4
2749,Right,0,72,110,608.375,0.239583,Sixteenth,C5
2750,Left,1,52,110,608.5,0.489583,Eighth,E3
2751,Right,0,70,110,608.5,0.239583,Sixteenth,A#4
2752,Right,0,72,110,608.625,0.239583,Sixteenth,C5
2753,Right,0,69,110,608.75,0.239583,Sixteenth,A4
2754,Right,0,70,110,608.875,0.114583,ThirtySecond,A#4
2755,Left,1,53,110,609.0,0.989583,Quarter,F3
2756,Right,0,69,110,609.0,0.489583,Eighth,A4
2757,Right,0,57,80,609.5,0.489583,Eighth,C4_A3
2759,Right,0,57,80,610.0,0.489583,Eighth,C4_A3
2761,Right,0,57,80,610.5,0.489583,Eighth,C4_A3
2763,Right,0,60,80,611.0,0.489583,Eighth,C4_A3
2765,Right,0,60,80,611.5,0.489583,Eighth,C4_A3
2767,Left,1,40,80,612.0,0.239583,Sixteenth,E2
2768,Right,0,60,80,612.0,0.489583,Eighth,C4_A#3
2770,Left,1,30,80,612.25,0.239583,Sixteenth,F#1
2771,Right,0,60,80,612.5,0.489583,Eighth,C4_A#3
2775,Left,1,40,80,613.0,0.239583,Sixteenth,E2
2773,Right,0,60,80,613.0,0.489583,Eighth,C4_A#3
2776,Left,1,30,80,613.25,0.239583,Sixteenth,F#1
2777,Right,0,60,80,613.5,0.489583,Eighth,C4_A#3
2781,Left,1,40,80,614.0,0.239583,Sixteenth,E2
2779,Right,0,58,80,614.0,0.489583,Eighth,C4_A#3
2782,Left,1,30,80,614.25,0.239583,Sixteenth,F#1
2783,Right,0,60,80,614.5,0.489583,Eighth,C4_A#3
2787,Left,1,41,80,615.0,0.239583,Sixteenth,F2
2785,Right,0,60,80,615.0,0.489583,Eighth,C4_A3
2788,Left,1,29,80,615.25,0.239583,Sixteenth,F1
2789,Right,0,60,80,615.5,0.489583,Eighth,C4_A3
2792,Left,1,72,80,616.0,0.989583,Quarter,C5
2791,Right,0,60,80,616.0,0.489583,Eighth,C4_A3
2794,Right,0,57,80,616.5,0.489583,Eighth,C4_A3
2797,Right,0,57,80,617.0,0.489583,Eighth,C4_A3
2796,Left,1,77,80,617.0,0.489583,Eighth,F5
2799,Right,0,60,80,617.5,0.489583,Eighth,C4_A3
2801,Right,0,58,80,618.0,0.489583,Eighth,C4_A#3
2803,Left,1,40,80,618.0,0.239583,Sixteenth,E2
2804,Left,1,30,80,618.25,0.239583,Sixteenth,F#1
2805,Right,0,60,80,618.5,0.489583,Eighth,C4_A#3
2807,Left,1,40,80,619.0,0.239583,Sixteenth,E2
2808,Right,0,60,80,619.0,0.489583,Eighth,C4_A#3
2810,Left,1,30,80,619.25,0.239583,Sixteenth,F#1
2811,Right,0,60,80,619.5,0.489583,Eighth,C4_A#3
2813,Left,1,40,80,620.0,0.239583,Sixteenth,E2
2814,Right,0,58,80,620.0,0.489583,Eighth,C4_A#3
2816,Left,1,30,80,620.25,0.239583,Sixteenth,F#1
2817,Right,0,58,80,620.5,0.489583,Eighth,C4_A#3
2821,Left,1,41,80,621.0,0.239583,Sixteenth,F2
2819,Right,0,57,80,621.0,0.489583,Eighth,C4_A3
2822,Left,1,29,80,621.25,0.239583,Sixteenth,F1
2823,Right,0,57,80,621.5,0.489583,Eighth,C4_A3
2826,Left,1,72,80,622.0,0.989583,Quarter,C5
2825,Right,0,60,80,622.0,0.489583,Eighth,C4_A3
2828,Right,0,57,80,622.5,0.489583,Eighth,C4_A3
2830,Right,0,60,80,623.0,0.489583,Eighth,C4_A3
2831,Left,1,81,80,623.0,0.489583,Eighth,A5
2833,Right,0,60,80,623.5,0.489583,Eighth,C4_A3
2835,Right,0,58,80,624.0,0.489583,Eighth,C4_A#3
2836,Left,1,40,80,624.0,0.239583,Sixteenth,E2
2838,Left,1,30,80,624.25,0.239583,Sixteenth,F#1
2839,Right,0,60,80,624.5,0.489583,Eighth,C4_A#3
2841,Right,0,58,80,625.0,0.489583,Eighth,C4_A#3
2843,Left,1,40,80,625.0,0.239583,Sixteenth,E2
2844,Left,1,30,80,625.25,0.239583,Sixteenth,F#1
2845,Right,0,58,80,625.5,0.489583,Eighth,C4_A#3
2847,Left,1,40,80,626.0,0.239583,Sixteenth,E2
2848,Right,0,58,80,626.0,0.489583,Eighth,C4_A#3
2850,Left,1,30,80,626.25,0.239583,Sixteenth,F#1
2851,Right,0,60,80,626.5,0.489583,Eighth,C4_A#3
2853,Left,1,41,110,627.0,0.239583,Sixteenth,F2
2854,Left,1,29,110,627.25,0.239583,Sixteenth,F1
2855,Right,0,57,110,627.25,0.239583,Sixteenth,A3
2856,Right,0,65,110,627.5,0.239583,Sixteenth,F4
2857,Right,0,60,110,627.75,0.239583,Sixteenth,C4
2858,Right,0,69,110,628.0,0.239583,Sixteenth,A4
2859,Right,0,65,110,628.25,0.239583,Sixteenth,F4
2860,Right,0,72,110,628.5,0.239583,Sixteenth,C5
2861,Right,0,69,110,628.75,0.239583,Sixteenth,A4
2862,Right,0,77,110,629.0,0.239583,Sixteenth,F5
2863,Right,0,72,110,629.25,0.239583,Sixteenth,C5
2864,Right,0,81,110,629.5,0.239583,Sixteenth,A5
2865,Right,0,77,110,629.75,0.239583,Sixteenth,F5
2866,Right,0,84,110,630.0,1.989583,Half,C6
2867,Left,1,41,110,630.5,0.489583,Eighth,F2
2868,Left,1,45,110,631.0,0.489583,Eighth,A2
2869,Left,1,48,110,631.5,0.489583,Eighth,C3
2870,Left,1,53,110,632.0,0.489583,Eighth,F3
2871,Right,0,75,110,632.0,0.239583,Sixteenth,D#5
2872,Right,0,77,110,632.125,0.239583,Sixteenth,F5
2873,Right,0,75,110,632.25,0.239583,Sixteenth,D#5
2874,Right,0,77,110,632.375,0.239583,Sixteenth,F5
2875,Right,0,75,110,632.5,0.239583,Sixteenth,D#5
2876,Left,1,57,110,632.5,0.489583,Eighth,A3
2877,Right,0,77,110,632.625,0.239583,Sixteenth,F5
2878,Right,0,74,110,632.75,0.239583,Sixteenth,D5
2879,Right,0,75,110,632.875,0.114583,ThirtySecond,D#5
2881,Left,1,58,110,633.0,0.989583,Quarter,A#3
2880,Right,0,73,110,633.0,0.239583,Sixteenth,C#5
2882,Right,0,65,110,633.25,0.239583,Sixteenth,F4
2883,Right,0,70,110,633.5,0.239583,Sixteenth,A#4
2884,Right,0,65,110,633.75,0.239583,Sixteenth,F4
2885,Right,0,73,110,634.0,0.239583,Sixteenth,C#5
2886,Right,0,70,110,634.25,0.239583,Sixteenth,A#4
2887,Right,0,77,110,634.5,0.239583,Sixteenth,F5
2888,Right,0,73,110,634.75,0.239583,Sixteenth,C#5
2889,Right,0,82,110,635.0,0.239583,Sixteenth,A#5
2890,Right,0,77,110,635.25,0.239583,Sixteenth,F5
2891,Right,0,85,110,635.5,0.239583,Sixteenth,C#6
2892,Right,0,82,110,635.75,0.239583,Sixteenth,A#5
2893,Right,0,89,110,636.0,1.989583,Half,F6
2894,Left,1,34,110,636.5,0.489583,Eighth,A#1
2895,Left,1,38,110,637.0,0.489583,Eighth,D2
2896,Left,1,41,110,637.5,0.489583,Eighth,F2
2897,Left,1,46,110,638.0,0.489583,Eighth,A#2
2898,Right,0,80,110,638.0,0.239583,Sixteenth,G#5
2899,Right,0,82,110,638.125,0.239583,Sixteenth,A#5
2900,Right,0,80,110,638.25,0.239583,Sixteenth,G#5
2901,Right,0,82,110,638.375,0.239583,Sixteenth,A#5
2903,Left,1,50,110,638.5,0.489583,Eighth,D3
2902,Right,0,80,110,638.5,0.239583,Sixteenth,G#5
2904,Right,0,82,110,638.625,0.239583,Sixteenth,A#5
2905,Right,0,79,110,638.75,0.239583,Sixteenth,G5
2906,Right,0,80,110,638.875,0.114583,ThirtySecond,G#5
2907,Left,1,51,110,639.0,0.989583,Quarter,D#3
2908,Right,0,79,110,639.0,0.239583,Sixteenth,G5
2909,Right,0,55,110,639.25,0.239583,Sixteenth,G3
2910,Right,0,63,110,639.5,0.239583,Sixteenth,D#4
2911,Right,0,58,110,639.75,0.239583,Sixteenth,A#3
2912,Right,0,67,110,640.0,0.239583,Sixteenth,G4
2913,Right,0,63,110,640.25,0.239583,Sixteenth,D#4
2914,Right,0,70,110,640.5,0.239583,Sixteenth,A#4
2915,Right,0,67,110,640.75,0.239583,Sixteenth,G4
2916,Right,0,75,110,641.0,0.239583,Sixteenth,D#5
2917,Right,0,70,110,641.25,0.239583,Sixteenth,A#4
2918,Right,0,79,110,641.5,0.239583,Sixteenth,G5
2919,Right,0,75,110,641.75,0.239583,Sixteenth,D#5
2920,Right,0,82,110,642.0,1.989583,Half,A#5
2921,Left,1,39,109,642.5,0.489583,Eighth,D#2
2922,Left,1,43,108,643.0,0.489583,Eighth,G2
2923,Left,1,46,107,643.5,0.489583,Eighth,A#2
2924,Right,0,73,105,644.0,0.239583,Sixteenth,C#5
2925,Left,1,51,105,644.0,0.489583,Eighth,D#3
2926,Right,0,75,105,644.125,0.239583,Sixteenth,D#5
2927,Right,0,73,105,644.25,0.239583,Sixteenth,C#5
2928,Right,0,75,105,644.375,0.239583,Sixteenth,D#5
2929,Right,0,73,104,644.5,0.239583,Sixteenth,C#5
2930,Left,1,55,104,644.5,0.489583,Eighth,G3
2931,Right,0,75,104,644.625,0.239583,Sixteenth,D#5
2932,Right,0,72,104,644.75,0.239583,Sixteenth,C5
2933,Right,0,73,103,644.875,0.114583,ThirtySecond,C#5
2934,Left,1,56,103,645.0,0.489583,Eighth,G#3
2935,Right,0,72,103,645.0,0.989583,Quarter,C5
2936,Left,1,44,102,645.5,0.489583,Eighth,G#2
2937,Left,1,48,100,646.0,0.489583,Eighth,C3
2938,Left,1,51,99,646.5,0.489583,Eighth,D#3
2940,Left,1,56,98,647.0,0.489583,Eighth,G#3
2939,Right,0,72,98,647.0,0.239583,Sixteenth,C5
2941,Right,0,73,98,647.125,0.239583,Sixteenth,C#5
2942,Right,0,72,97,647.25,0.239583,Sixteenth,C5
2943,Right,0,73,97,647.375,0.239583,Sixteenth,C#5
2945,Right,0,72,97,647.5,0.239583,Sixteenth,C5
2944,Left,1,60,97,647.5,0.489583,Eighth,C4
2946,Right,0,73,96,647.625,0.239583,Sixteenth,C#5
2947,Right,0,71,96,647.75,0.239583,Sixteenth,B4
2948,Right,0,72,96,647.875,0.114583,ThirtySecond,C5
2949,Right,0,84,95,648.0,0.989583,Quarter,C6
2950,Left,1,44,94,648.5,0.489583,Eighth,G#2
2951,Left,1,48,93,649.0,0.489583,Eighth,C3
2952,Left,1,51,92,649.5,0.489583,Eighth,D#3
2953,Right,0,72,90,650.0,0.239583,Sixteenth,C5
2954,Left,1,56,90,650.0,0.489583,Eighth,G#3
2955,Right,0,73,90,650.125,0.239583,Sixteenth,C#5
2956,Right,0,72,90,650.25,0.239583,Sixteenth,C5
2957,Right,0,73,89,650.375,0.239583,Sixteenth,C#5
2959,Left,1,60,89,650.5,0.489583,Eighth,C4
2958,Right,0,72,89,650.5,0.239583,Sixteenth,C5
2960,Right,0,73,89,650.625,0.239583,Sixteenth,C#5
2961,Right,0,71,88,650.75,0.239583,Sixteenth,B4
2962,Right,0,72,88,650.875,0.114583,ThirtySecond,C5
2963,Right,0,84,88,651.0,0.989583,Quarter,C6
2964,Left,1,44,87,651.5,0.489583,Eighth,G#2
2965,Left,1,48,85,652.0,0.489583,Eighth,C3
2966,Left,1,53,84,652.5,0.489583,Eighth,F3
2968,Right,0,72,83,653.0,0.239583,Sixteenth,C5
2967,Left,1,56,83,653.0,0.489583,Eighth,G#3
2969,Right,0,73,82,653.125,0.239583,Sixteenth,C#5
2970,Right,0,72,82,653.25,0.239583,Sixteenth,C5
2971,Right,0,73,82,653.375,0.239583,Sixteenth,C#5
2973,Right,0,72,81,653.5,0.239583,Sixteenth,C5
2972,Left,1,60,81,653.5,0.489583,Eighth,C4
2974,Right,0,73,81,653.625,0.239583,Sixteenth,C#5
2975,Right,0,71,81,653.75,0.239583,Sixteenth,B4
2976,Right,0,72,81,653.875,0.114583,ThirtySecond,C5
2977,Right,0,84,80,654.0,0.989583,Quarter,C6
2978,Left,1,44,80,654.5,0.489583,Eighth,G#2
2979,Left,1,48,80,655.0,0.489583,Eighth,C3
2980,Left,1,53,80,655.5,0.489583,Eighth,F3
2981,Left,1,56,80,656.0,0.489583,Eighth,G#3
2982,Right,0,60,80,656.5,0.489583,Eighth,C4
2983,Right,0,65,80,657.0,0.489583,Eighth,F4
2984,Right,0,68,80,657.5,0.489583,Eighth,G#4
2985,Right,0,72,80,658.0,0.489583,Eighth,C5
2986,Left,1,44,80,658.5,0.489583,Eighth,G#2
2987,Left,1,48,80,659.0,0.489583,Eighth,C3
2988,Left,1,53,80,659.5,0.489583,Eighth,F3
2989,Left,1,56,80,660.0,0.489583,Eighth,G#3
2990,Right,0,60,80,660.5,0.489583,Eighth,C4
2991,Right,0,65,80,661.0,0.489583,Eighth,F4
2992,Right,0,68,80,661.5,0.489583,Eighth,G#4
2993,Right,0,72,80,662.0,0.489583,Eighth,C5
2994,Left,1,44,80,662.5,0.489583,Eighth,G#2
2995,Left,1,48,80,663.0,0.489583,Eighth,C3
2996,Left,1,53,80,663.5,0.489583,Eighth,F3
2997,Left,1,56,80,664.0,0.489583,Eighth,G#3
2999,Left,1,44,80,664.5,0.489583,Eighth,G#2
2998,Right,0,60,80,664.5,0.489583,Eighth,C4
3000,Right,0,65,80,665.0,0.489583,Eighth,F4
3001,Left,1,48,80,665.0,0.489583,Eighth,C3
3003,Left,1,53,80,665.5,0.489583,Eighth,F3
3002,Right,0,68,80,665.5,0.489583,Eighth,G#4
3005,Left,1,56,80,666.0,0.489583,Eighth,G#3
3004,Right,0,72,80,666.0,0.489583,Eighth,C5
3006,Left,1,44,80,666.5,0.489583,Eighth,G#2
3007,Right,0,60,80,666.5,0.489583,Eighth,C4
3008,Left,1,48,81,667.0,0.489583,Eighth,C3
3009,Right,0,65,81,667.0,0.489583,Eighth,F4
3011,Left,1,53,83,667.5,0.489583,Eighth,F3
3010,Right,0,68,83,667.5,0.489583,Eighth,G#4
3013,Right,0,72,84,668.0,0.489583,Eighth,C5
3012,Left,1,56,84,668.0,0.489583,Eighth,G#3
3014,Right,0,60,86,668.5,0.489583,Eighth,C4
3015,Left,1,44,86,668.5,0.489583,Eighth,G#2
3016,Right,0,65,88,669.0,0.489583,Eighth,F4
3017,Left,1,48,88,669.0,0.489583,Eighth,C3
3019,Right,0,68,89,669.5,0.489583,Eighth,G#4
3018,Left,1,53,89,669.5,0.489583,Eighth,F3
3020,Right,0,72,91,670.0,0.489583,Eighth,C5
3021,Left,1,56,91,670.0,0.489583,Eighth,G#3
3023,Right,0,60,92,670.5,4.489583,Whole,C4
3022,Left,1,44,92,670.5,1.489583,DottedQuarter,G#2
3025,Left,1,48,94,671.0,3.989583,Whole,C3
3024,Right,0,65,94,671.0,1.739583,DottedQuarter,F4
3026,Right,0,68,96,671.5,1.239583,TiedQuarter-Sixteenth,G#4
3027,Left,1,53,96,671.5,3.489583,DottedHalf,F3
3029,Right,0,72,97,672.0,0.739583,DottedEighth,C5
3028,Left,1,56,97,672.0,2.989583,DottedHalf,G#3
3030,Right,0,65,100,672.75,0.239583,Sixteenth,F4
3031,Right,0,65,100,673.0,1.489583,DottedQuarter,F4
3032,Right,0,72,80,675.0,0.739583,DottedEighth,C5
3033,Left,1,60,80,675.0,0.739583,DottedEighth,C4
3035,Left,1,53,80,675.75,0.239583,Sixteenth,F3
3034,Right,0,65,80,675.75,0.239583,Sixteenth,F4
3036,Left,1,53,80,676.0,1.489583,DottedQuarter,F3
3037,Right,0,65,80,676.0,1.489583,DottedQuarter,F4
3039,Left,1,39,80,678.0,0.989583,Quarter,G#1_D#2
3038,Right,0,65,80,678.0,0.989583,Quarter,F4_D#4_C4
3043,Left,1,39,83,679.0,0.989583,Quarter,G#1_D#2
3045,Right,0,65,83,679.0,0.989583,Quarter,F4_D#4_C4
3048,Right,0,63,86,680.0,0.989583,Quarter,F4_D#4_C4
3049,Left,1,39,86,680.0,0.989583,Quarter,G#1_D#2
3053,Left,1,33,90,681.0,2.989583,DottedHalf,D#2_A1
3054,Right,0,60,90,681.0,2.989583,DottedHalf,F#4_D#4_C4
3061,Right,0,63,100,684.0,0.989583,Quarter,F#4_D#4_C4
3058,Left,1,51,100,684.0,0.989583,Quarter,F#3_D#3_A2
3064,Left,1,51,104,685.0,0.989583,Quarter,F#3_D#3_A2
3066,Right,0,63,104,685.0,0.989583,Quarter,F#4_D#4_C4
3070,Left,1,54,107,686.0,0.989583,Quarter,F#3_D#3_A2
3073,Right,0,60,107,686.0,0.989583,Quarter,F#4_D#4_C4
3079,Left,1,46,110,687.0,2.989583,DottedHalf,G3_D#3_A#2
3076,Right,0,67,110,687.0,2.989583,DottedHalf,G4_D#4_A#3
3082,Left,1,34,80,690.0,0.989583,Quarter,A#2_A#1
3084,Right,0,67,80,690.0,0.989583,Quarter,G4_G#3_D4
3087,Right,0,65,80,690.5,0.489583,Eighth,F4
3090,Left,1,34,80,691.0,0.989583,Quarter,A#2_A#1
3088,Right,0,56,80,691.0,0.989583,Quarter,G#3_F4_D4
3093,Right,0,67,80,691.25,0.239583,Sixteenth,G4
3094,Right,0,65,80,691.5,0.239583,Sixteenth,F4
3095,Right,0,64,80,691.75,0.239583,Sixteenth,E4
3098,Right,0,65,80,692.0,0.989583,Quarter,G#3_F4_D4
3096,Left,1,46,80,692.0,0.989583,Quarter,A#2_A#1
3101,Right,0,67,80,692.5,0.489583,Eighth,G4
3104,Left,1,39,80,693.0,0.989583,Quarter,D#3_D#2
3102,Right,0,55,80,693.0,0.239583,Sixteenth,G3_D#4
3106,Right,0,65,80,693.25,0.239583,Sixteenth,F4
3107,Right,0,63,80,693.5,0.239583,Sixteenth,D#4
3108,Right,0,62,80,693.75,0.239583,Sixteenth,D4
3109,Right,0,63,80,694.0,0.322917,Triplet,D#4
3110,Right,0,65,80,694.333333,0.322917,Triplet,F4
3111,Right,0,67,80,694.666667,0.322917,Triplet,G4
3112,Right,0,68,80,695.0,0.322917,Triplet,G#4
3113,Right,0,70,80,695.333333,0.322917,Triplet,A#4
3114,Right,0,72,80,695.666667,0.322917,Triplet,C5
3115,Right,0,74,80,696.0,0.322917,Triplet,D5
3116,Right,0,75,80,696.333333,0.322917,Triplet,D#5
3117,Right,0,77,80,696.666667,0.322917,Triplet,F5
3118,Right,0,78,80,697.0,0.322917,Triplet,F#5
3119,Right,0,79,80,697.333333,0.322917,Triplet,G5
3120,Right,0,80,80,697.666667,0.322917,Triplet,G#5
3121,Right,0,81,80,698.0,0.322917,Triplet,A5
3122,Right,0,82,80,698.333333,0.322917,Triplet,A#5
3123,Right,0,83,80,698.666667,0.322917,Triplet,B5
3125,Left,1,72,80,699.0,2.989583,DottedHalf,G#4_D#5_C5
3124,Right,0,84,80,699.0,0.739583,DottedEighth,C6
3128,Right,0,77,80,699.75,0.239583,Sixteenth,F5
3129,Right,0,77,80,700.0,1.989583,Half,F5
3133,Right,0,71,80,702.0,0.114583,ThirtySecond,B4
3130,Left,1,60,80,702.0,2.989583,DottedHalf,G#3_D#4_C4
3134,Right,0,72,80,702.114583,0.614583,Eighth,C5
3135,Right,0,65,80,702.75,0.239583,Sixteenth,F4
3136,Right,0,65,80,703.0,1.989583,Half,F4
3137,Right,0,48,80,705.0,0.989583,Quarter,F3_D#3_C3
3139,Left,1,44,80,705.0,0.989583,Quarter,G#2_G#1
3144,Right,0,48,83,706.0,0.989583,Quarter,F3_D#3_C3
3142,Left,1,44,83,706.0,0.989583,Quarter,G#2_G#1
3149,Right,0,48,86,707.0,0.989583,Quarter,F3_D#3_C3
3147,Left,1,32,86,707.0,0.989583,Quarter,G#2_G#1
3152,Right,0,48,90,708.0,2.989583,DottedHalf,F#3_D#3_C3
3155,Left,1,33,90,708.0,2.989583,DottedHalf,A2_A1
3157,Left,1,69,100,711.0,0.989583,Quarter,A4
3158,Right,0,78,100,711.0,0.989583,Quarter,F#5_D#5_C5
3164,Left,1,69,104,712.0,0.989583,Quarter,A4
3161,Right,0,72,104,712.0,0.989583,Quarter,F#5_D#5_C5
3168,Left,1,69,107,713.0,0.989583,Quarter,A4
3165,Right,0,72,107,713.0,0.989583,Quarter,F#5_D#5_C5
3170,Left,1,70,110,714.0,2.989583,DottedHalf,A#4
3169,Right,0,79,110,714.0,2.989583,DottedHalf,G5_D#5
3173,Left,1,34,80,717.0,0.989583,Quarter,A#2_A#1
3172,Right,0,62,80,717.0,0.989583,Quarter,G4_G#3_D4
3177,Right,0,65,80,717.5,0.489583,Eighth,F4
3178,Left,1,34,80,718.0,0.989583,Quarter,A#2_A#1
3179,Right,0,65,80,718.0,0.989583,Quarter,G#3_F4_D4
3183,Right,0,67,80,718.25,0.239583,Sixteenth,G4
3184,Right,0,65,80,718.5,0.239583,Sixteenth,F4
3185,Right,0,64,80,718.75,0.239583,Sixteenth,E4
3186,Left,1,34,80,719.0,0.989583,Quarter,A#2_A#1
3187,Right,0,65,80,719.0,0.989583,Quarter,G#3_F4_D4
3191,Right,0,67,80,719.5,0.489583,Eighth,G4
3194,Left,1,39,80,720.0,0.489583,Eighth,D#3_D#2
3192,Right,0,55,80,720.0,0.989583,Quarter,G3_D#4
3196,Left,1,51,80,720.5,0.489583,Eighth,D#3
3197,Left,1,51,80,721.0,0.489583,Eighth,D#3
3198,Left,1,51,80,721.5,0.489583,Eighth,D#3
3199,Left,1,51,80,722.0,0.489583,Eighth,D#3
3200,Left,1,51,80,722.5,0.489583,Eighth,D#3
3203,Right,0,86,80,723.0,0.114583,ThirtySecond,D6
3201,Left,1,60,80,723.0,2.989583,DottedHalf,D#4_D#3_C4
3205,Right,0,87,80,723.125,0.614583,Eighth,D#6
3206,Left,1,51,80,723.5,0.489583,Eighth,D#3
3207,Right,0,80,80,723.75,0.239583,Sixteenth,G#5
3208,Right,0,80,80,724.0,0.989583,Quarter,G#5
3209,Left,1,51,80,724.0,0.489583,Eighth,D#3
3210,Left,1,51,80,724.5,0.489583,Eighth,D#3
3211,Left,1,51,80,725.0,0.489583,Eighth,D#3
3212,Left,1,51,80,725.5,0.489583,Eighth,D#3
3215,Right,0,74,80,726.0,0.114583,ThirtySecond,D5
3213,Left,1,51,80,726.0,2.989583,DottedHalf,D4_D#3_A#3
3217,Right,0,75,80,726.125,0.614583,Eighth,D#5
3218,Left,1,51,80,726.5,0.489583,Eighth,D#3
3219,Right,0,67,80,726.75,0.239583,Sixteenth,G4
3221,Left,1,51,80,727.0,0.489583,Eighth,D#3
3220,Right,0,67,80,727.0,0.989583,Quarter,G4
3222,Left,1,51,80,727.5,0.489583,Eighth,D#3
3223,Left,1,51,80,728.0,0.489583,Eighth,D#3
3224,Left,1,51,80,728.5,0.489583,Eighth,D#3
3226,Left,1,51,80,729.0,0.989583,Quarter,G#3_D#3_C4
3225,Right,0,75,80,729.0,0.239583,Sixteenth,D#5
3229,Right,0,65,80,729.25,0.239583,Sixteenth,F4
3230,Left,1,51,80,729.5,0.489583,Eighth,D#3
3231,Left,1,60,80,730.0,0.989583,Quarter,G#3_D#3_C4
3232,Right,0,75,80,730.0,0.239583,Sixteenth,D#5
3235,Right,0,65,80,730.25,0.239583,Sixteenth,F4
3236,Left,1,51,80,730.5,0.489583,Eighth,D#3
3240,Right,0,74,80,731.0,0.239583,Sixteenth,D5
3237,Left,1,56,80,731.0,0.989583,Quarter,G#3_D#3_B3
3241,Right,0,65,80,731.25,0.239583,Sixteenth,F4
3242,Left,1,51,80,731.5,0.489583,Eighth,D#3
3246,Right,0,75,80,732.0,0.239583,Sixteenth,D#5
3243,Left,1,55,80,732.0,0.989583,Quarter,G3_D#3_A#3
3247,Right,0,63,80,732.25,0.239583,Sixteenth,D#4
3248,Left,1,51,80,732.5,0.489583,Eighth,D#3
3249,Left,1,51,80,733.0,0.489583,Eighth,D#3
3250,Left,1,51,80,733.5,0.489583,Eighth,D#3
3251,Left,1,51,80,734.0,0.489583,Eighth,D#3
3252,Left,1,51,80,734.5,0.489583,Eighth,D#3
3253,Left,1,63,80,735.0,2.989583,DottedHalf,D#4_D#3_C4
3256,Right,0,87,80,735.25,0.239583,Sixteenth,D#6
3258,Right,0,86,80,735.5,0.239583,Sixteenth,D6
3257,Left,1,51,80,735.5,0.489583,Eighth,D#3
3259,Right,0,87,80,735.75,0.239583,Sixteenth,D#6
3260,Right,0,86,80,736.0,0.239583,Sixteenth,D6
3261,Left,1,51,80,736.0,0.489583,Eighth,D#3
3262,Right,0,87,80,736.25,0.239583,Sixteenth,D#6
3264,Left,1,51,80,736.5,0.489583,Eighth,D#3
3263,Right,0,89,80,736.5,0.239583,Sixteenth,F6
3265,Right,0,87,80,736.75,0.239583,Sixteenth,D#6
3266,Right,0,80,80,737.0,0.989583,Quarter,G#5
3267,Left,1,51,80,737.0,0.489583,Eighth,D#3
3268,Left,1,51,80,737.5,0.489583,Eighth,D#3
3269,Left,1,51,80,738.0,2.989583,DottedHalf,D4_D#3_A#3
3272,Right,0,75,80,738.25,0.239583,Sixteenth,D#5
3273,Right,0,74,80,738.5,0.239583,Sixteenth,D5
3274,Left,1,51,80,738.5,0.489583,Eighth,D#3
3275,Right,0,75,80,738.75,0.239583,Sixteenth,D#5
3276,Left,1,51,80,739.0,0.489583,Eighth,D#3
3277,Right,0,74,80,739.0,0.239583,Sixteenth,D5
3278,Right,0,75,80,739.25,0.239583,Sixteenth,D#5
3279,Left,1,51,80,739.5,0.489583,Eighth,D#3
3280,Right,0,77,80,739.5,0.239583,Sixteenth,F5
3281,Right,0,75,80,739.75,0.239583,Sixteenth,D#5
3282,Left,1,51,80,740.0,0.489583,Eighth,D#3
3283,Right,0,67,80,740.0,0.989583,Quarter,G4
3284,Left,1,51,80,740.5,0.489583,Eighth,D#3
3285,Left,1,51,80,741.0,0.989583,Quarter,G#3_D#3_C4
3288,Right,0,65,80,741.25,0.239583,Sixteenth,F4
3289,Left,1,51,80,741.5,0.489583,Eighth,D#3
3290,Right,0,74,80,741.5,0.239583,Sixteenth,D5
3291,Right,0,75,80,741.75,0.239583,Sixteenth,D#5
3292,Left,1,51,80,742.0,0.989583,Quarter,G#3_D#3_C4
3295,Right,0,65,80,742.25,0.239583,Sixteenth,F4
3296,Left,1,51,80,742.5,0.489583,Eighth,D#3
3297,Right,0,74,80,742.5,0.239583,Sixteenth,D5
3298,Right,0,75,80,742.75,0.239583,Sixteenth,D#5
3299,Left,1,51,80,743.0,0.989583,Quarter,G#3_D#3_B3
3302,Right,0,65,80,743.25,0.239583,Sixteenth,F4
3303,Right,0,73,80,743.5,0.239583,Sixteenth,C#5
3304,Left,1,51,80,743.5,0.489583,Eighth,D#3
3305,Right,0,74,80,743.75,0.239583,Sixteenth,D5
3306,Left,1,51,80,744.0,0.989583,Quarter,G3_D#3_A#3
3307,Right,0,75,80,744.0,0.239583,Sixteenth,D#5_D#4
3311,Right,0,65,80,744.25,0.239583,Sixteenth,F4
3312,Right,0,63,80,744.5,0.239583,Sixteenth,D#4
3313,Right,0,62,80,744.75,0.239583,Sixteenth,D4
3314,Right,0,63,80,745.0,0.239583,Sixteenth,D#4
3315,Right,0,65,80,745.25,0.239583,Sixteenth,F4
3316,Right,0,67,80,745.5,0.239583,Sixteenth,G4
3317,Right,0,68,80,745.75,0.239583,Sixteenth,G#4
3318,Right,0,70,80,746.0,0.489583,Eighth,A#4
3319,Right,0,67,80,746.5,0.489583,Eighth,G4
3320,Left,1,55,80,746.5,0.489583,Eighth,G3
3321,Left,1,53,80,747.0,0.489583,Eighth,F3
3322,Right,0,65,80,747.0,0.489583,Eighth,F4
3323,Left,1,56,80,747.5,0.489583,Eighth,G#3
3324,Right,0,68,80,747.5,0.489583,Eighth,G#4
3325,Left,1,50,80,748.0,0.489583,Eighth,D3
3326,Right,0,62,80,748.0,0.489583,Eighth,D4
3327,Left,1,53,80,748.5,0.489583,Eighth,F3
3328,Right,0,65,80,748.5,0.489583,Eighth,F4
3330,Left,1,46,80,749.0,0.489583,Eighth,A#2
3329,Right,0,58,80,749.0,0.489583,Eighth,A#3
3331,Left,1,50,80,749.5,0.489583,Eighth,D3
3332,Right,0,62,80,749.5,0.489583,Eighth,D4
3334,Left,1,51,80,750.0,0.989583,Quarter,D#3
3333,Right,0,63,80,750.0,0.239583,Sixteenth,D#4
3335,Right,0,65,80,750.25,0.239583,Sixteenth,F4
3336,Right,0,63,80,750.5,0.239583,Sixteenth,D#4
3337,Right,0,62,80,750.75,0.239583,Sixteenth,D4
3338,Right,0,63,80,751.0,0.239583,Sixteenth,D#4
3339,Right,0,65,80,751.25,0.239583,Sixteenth,F4
3340,Right,0,67,80,751.5,0.239583,Sixteenth,G4
3341,Right,0,68,80,751.75,0.239583,Sixteenth,G#4
3342,Right,0,72,80,752.0,0.239583,Sixteenth,C5
3343,Left,1,60,80,752.0,0.239583,Sixteenth,C4
3344,Right,0,70,80,752.25,0.239583,Sixteenth,A#4
3345,Left,1,58,80,752.25,0.239583,Sixteenth,A#3
3346,Right,0,68,80,752.5,0.239583,Sixteenth,G#4
3347,Left,1,56,80,752.5,0.239583,Sixteenth,G#3
3349,Right,0,67,80,752.75,0.239583,Sixteenth,G4
3348,Left,1,55,80,752.75,0.239583,Sixteenth,G3
3351,Left,1,53,80,753.0,0.489583,Eighth,F3
3350,Right,0,65,80,753.0,0.489583,Eighth,F4
3352,Right,0,68,80,753.5,0.489583,Eighth,G#4
3353,Left,1,56,80,753.5,0.489583,Eighth,G#3
3354,Right,0,62,80,754.0,0.489583,Eighth,D4
3355,Left,1,50,80,754.0,0.489583,Eighth,D3
3357,Right,0,65,80,754.5,0.489583,Eighth,F4
3356,Left,1,53,80,754.5,0.489583,Eighth,F3
3359,Left,1,46,80,755.0,0.489583,Eighth,A#2
3358,Right,0,58,80,755.0,0.489583,Eighth,A#3
3360,Right,0,62,80,755.5,0.489583,Eighth,D4
3361,Left,1,50,80,755.5,0.489583,Eighth,D3
3363,Right,0,63,80,756.0,0.489583,Eighth,D#4
3362,Left,1,51,80,756.0,0.489583,Eighth,D#3
3365,Left,1,55,80,756.5,0.489583,Eighth,G3
3364,Right,0,67,80,756.5,0.489583,Eighth,G4
3367,Left,1,48,80,757.0,0.489583,Eighth,C3
3366,Right,0,60,80,757.0,0.489583,Eighth,C4
3369,Left,1,51,80,757.5,0.489583,Eighth,D#3
3368,Right,0,63,80,757.5,0.489583,Eighth,D#4
3370,Right,0,57,80,758.0,0.489583,Eighth,A3
3371,Left,1,45,80,758.0,0.489583,Eighth,A2
3373,Left,1,48,80,758.5,0.489583,Eighth,C3
3372,Right,0,60,80,758.5,0.489583,Eighth,C4
3374,Left,1,41,80,759.0,0.489583,Eighth,F2
3375,Right,0,53,80,759.0,0.489583,Eighth,F3
3377,Left,1,45,80,759.5,0.489583,Eighth,A2
3376,Right,0,57,80,759.5,0.489583,Eighth,A3
3378,Right,0,60,80,760.0,0.489583,Eighth,C4
3379,Left,1,48,80,760.0,0.489583,Eighth,C3
3381,Right,0,64,80,760.5,0.489583,Eighth,E4
3380,Left,1,52,80,760.5,0.489583,Eighth,E3
3383,Right,0,65,80,761.0,0.489583,Eighth,F4
3382,Left,1,53,80,761.0,0.489583,Eighth,F3
3384,Left,1,45,80,761.5,0.489583,Eighth,A2
3385,Right,0,57,80,761.5,0.489583,Eighth,A3
3386,Left,1,46,80,762.0,0.489583,Eighth,A#2
3387,Right,0,58,80,762.0,0.489583,Eighth,A#3
3388,Left,1,50,86,762.5,0.489583,Eighth,D3
3389,Right,0,62,86,762.5,0.489583,Eighth,D4
3391,Left,1,53,92,763.0,0.489583,Eighth,F3
3390,Right,0,65,92,763.0,0.489583,Eighth,F4
3392,Right,0,69,98,763.5,0.489583,Eighth,A4
3393,Left,1,57,98,763.5,0.489583,Eighth,A3
3394,Right,0,70,104,764.0,0.489583,Eighth,A#4
3395,Left,1,58,104,764.0,0.489583,Eighth,A#3
3396,Right,0,74,110,764.5,0.489583,Eighth,D5
3397,Left,1,62,110,764.5,0.489583,Eighth,D4
3398,Right,0,77,110,765.0,0.489583,Eighth,F5
3399,Left,1,65,110,765.0,0.489583,Eighth,F4
3401,Left,1,69,110,765.5,0.489583,Eighth,A4
3400,Right,0,81,110,765.5,0.489583,Eighth,A5
3403,Left,1,70,110,766.0,0.989583,Quarter,A#4
3402,Right,0,82,110,766.0,0.989583,Quarter,A#5
3404,Left,1,58,110,767.0,0.989583,Quarter,A#3
3405,Left,1,46,110,768.0,0.989583,Quarter,A#2
3406,Left,1,34,110,769.0,0.989583,Quarter,A#1
3407,Left,1,32,110,770.0,0.989583,Quarter,G#1
3408,Right,0,82,80,770.5,0.489583,Eighth,A#5
3410,Right,0,87,80,771.0,1.489583,DottedQuarter,D#6
3409,Left,1,55,80,771.0,0.239583,Sixteenth,G3
3411,Left,1,63,80,771.25,0.239583,Sixteenth,D#4
3412,Left,1,58,80,771.5,0.239583,Sixteenth,A#3
3413,Left,1,63,80,771.75,0.239583,Sixteenth,D#4
3414,Left,1,55,80,772.0,0.239583,Sixteenth,G3
3415,Left,1,63,80,772.25,0.239583,Sixteenth,D#4
3417,Right,0,86,80,772.5,0.239583,Sixteenth,D6
3416,Left,1,58,80,772.5,0.239583,Sixteenth,A#3
3419,Right,0,87,80,772.75,0.239583,Sixteenth,D#6
3418,Left,1,63,80,772.75,0.239583,Sixteenth,D#4
3421,Left,1,55,80,773.0,0.239583,Sixteenth,G3
3420,Right,0,89,80,773.0,0.489583,Eighth,F6
3422,Left,1,63,80,773.25,0.239583,Sixteenth,D#4
3424,Left,1,58,80,773.5,0.239583,Sixteenth,A#3
3423,Right,0,87,80,773.5,0.489583,Eighth,D#6
3425,Left,1,63,80,773.75,0.239583,Sixteenth,D#4
3427,Left,1,55,80,774.0,0.239583,Sixteenth,G3
3426,Right,0,82,80,774.0,1.489583,DottedQuarter,A#5
3428,Left,1,63,80,774.25,0.239583,Sixteenth,D#4
3429,Left,1,58,80,774.5,0.239583,Sixteenth,A#3
3430,Left,1,63,80,774.75,0.239583,Sixteenth,D#4
3431,Left,1,55,80,775.0,0.239583,Sixteenth,G3
3432,Left,1,63,80,775.25,0.239583,Sixteenth,D#4
3433,Right,0,84,80,775.5,0.239583,Sixteenth,C6
3434,Left,1,58,80,775.5,0.239583,Sixteenth,A#3
3435,Left,1,63,80,775.75,0.239583,Sixteenth,D#4
3436,Right,0,82,80,775.75,0.239583,Sixteenth,A#5
3438,Left,1,55,80,776.0,0.239583,Sixteenth,G3
3437,Right,0,80,80,776.0,0.489583,Eighth,G#5
3439,Left,1,63,80,776.25,0.239583,Sixteenth,D#4
3440,Left,1,58,80,776.5,0.239583,Sixteenth,A#3
3441,Right,0,79,80,776.5,0.489583,Eighth,G5
3442,Left,1,63,80,776.75,0.239583,Sixteenth,D#4
3444,Right,0,83,80,777.0,0.239583,Sixteenth,B5
3443,Left,1,56,80,777.0,0.239583,Sixteenth,G#3
3445,Left,1,63,80,777.25,0.239583,Sixteenth,D#4
3446,Right,0,84,80,777.25,0.239583,Sixteenth,C6
3447,Left,1,60,80,777.5,0.239583,Sixteenth,C4
3448,Left,1,63,80,777.75,0.239583,Sixteenth,D#4
3450,Left,1,56,80,778.0,0.239583,Sixteenth,G#3
3449,Right,0,83,80,778.0,0.239583,Sixteenth,B5
3452,Right,0,84,80,778.25,0.239583,Sixteenth,C6
3451,Left,1,63,80,778.25,0.239583,Sixteenth,D#4
3453,Left,1,60,80,778.5,0.239583,Sixteenth,C4
3454,Left,1,63,80,778.75,0.239583,Sixteenth,D#4
3456,Left,1,56,80,779.0,0.239583,Sixteenth,G#3
3455,Right,0,79,80,779.0,0.239583,Sixteenth,G5
3458,Left,1,64,80,779.25,0.239583,Sixteenth,E4
3457,Right,0,80,80,779.25,0.239583,Sixteenth,G#5
3459,Left,1,60,80,779.5,0.239583,Sixteenth,C4
3460,Left,1,64,80,779.75,0.239583,Sixteenth,E4
3462,Left,1,56,80,780.0,0.239583,Sixteenth,G#3
3461,Right,0,76,80,780.0,0.239583,Sixteenth,E5
3463,Left,1,65,80,780.25,0.239583,Sixteenth,F4
3464,Right,0,77,80,780.25,0.239583,Sixteenth,F5
3465,Left,1,60,80,780.5,0.239583,Sixteenth,C4
3466,Left,1,65,80,780.75,0.239583,Sixteenth,F4
3467,Left,1,56,80,781.0,0.239583,Sixteenth,G#3
3468,Left,1,65,80,781.25,0.239583,Sixteenth,F4
3469,Left,1,60,80,781.5,0.239583,Sixteenth,C4
3470,Left,1,65,80,781.75,0.239583,Sixteenth,F4
3471,Left,1,57,80,782.0,0.239583,Sixteenth,A3
3472,Left,1,65,80,782.25,0.239583,Sixteenth,F4
3474,Right,0,77,80,782.5,0.489583,Eighth,F5
3473,Left,1,63,80,782.5,0.239583,Sixteenth,D#4
3475,Left,1,65,80,782.75,0.239583,Sixteenth,F4
3476,Left,1,58,80,783.0,0.239583,Sixteenth,A#3
3477,Right,0,80,80,783.0,1.489583,DottedQuarter,G#5
3478,Left,1,65,80,783.25,0.239583,Sixteenth,F4
3479,Left,1,62,80,783.5,0.239583,Sixteenth,D4
3480,Left,1,65,80,783.75,0.239583,Sixteenth,F4
3481,Left,1,53,80,784.0,0.239583,Sixteenth,F3
3482,Left,1,62,80,784.25,0.239583,Sixteenth,D4
3484,Left,1,58,80,784.5,0.239583,Sixteenth,A#3
3483,Right,0,82,80,784.5,0.239583,Sixteenth,A#5
3486,Left,1,62,80,784.75,0.239583,Sixteenth,D4
3485,Right,0,80,80,784.75,0.239583,Sixteenth,G#5
3488,Left,1,50,80,785.0,0.239583,Sixteenth,D3
3487,Right,0,79,80,785.0,0.489583,Eighth,G5
3489,Left,1,58,80,785.25,0.239583,Sixteenth,A#3
3490,Right,0,77,80,785.5,0.489583,Eighth,F5
3491,Left,1,53,80,785.5,0.239583,Sixteenth,F3
3492,Left,1,58,80,785.75,0.239583,Sixteenth,A#3
3494,Right,0,75,80,786.0,0.489583,Eighth,D#5
3493,Left,1,46,80,786.0,0.239583,Sixteenth,A#2
3495,Left,1,56,80,786.25,0.239583,Sixteenth,G#3
3496,Left,1,53,80,786.5,0.239583,Sixteenth,F3
3497,Right,0,74,80,786.5,0.489583,Eighth,D5
3498,Left,1,56,80,786.75,0.239583,Sixteenth,G#3
3500,Left,1,46,80,787.0,0.239583,Sixteenth,A#2
3499,Right,0,72,80,787.0,0.489583,Eighth,C5
3501,Left,1,56,80,787.25,0.239583,Sixteenth,G#3
3503,Left,1,53,80,787.5,0.239583,Sixteenth,F3
3502,Right,0,70,80,787.5,0.489583,Eighth,A#4
3504,Left,1,56,80,787.75,0.239583,Sixteenth,G#3
3506,Left,1,47,80,788.0,0.239583,Sixteenth,B2
3505,Right,0,68,80,788.0,0.489583,Eighth,G#4
3507,Left,1,56,80,788.25,0.239583,Sixteenth,G#3
3508,Right,0,65,80,788.5,0.489583,Eighth,F4
3509,Left,1,50,80,788.5,0.239583,Sixteenth,D3
3510,Left,1,56,80,788.75,0.239583,Sixteenth,G#3
3511,Right,0,63,80,789.0,0.489583,Eighth,D#4
3512,Left,1,48,80,789.0,0.239583,Sixteenth,C3
3513,Left,1,55,80,789.25,0.239583,Sixteenth,G3
3514,Left,1,51,80,789.5,0.239583,Sixteenth,D#3
3515,Right,0,67,80,789.5,0.489583,Eighth,G4
3516,Left,1,55,80,789.75,0.239583,Sixteenth,G3
3518,Right,0,60,80,790.0,0.489583,Eighth,C4
3517,Left,1,44,80,790.0,0.239583,Sixteenth,G#2
3519,Left,1,53,80,790.25,0.239583,Sixteenth,F3
3520,Left,1,48,80,790.5,0.239583,Sixteenth,C3
3521,Right,0,68,80,790.5,0.489583,Eighth,G#4
3522,Left,1,53,80,790.75,0.239583,Sixteenth,F3
3523,Left,1,46,80,791.0,0.239583,Sixteenth,A#2
3524,Right,0,62,80,791.0,0.489583,Eighth,D4
3525,Left,1,53,80,791.25,0.239583,Sixteenth,F3
3526,Right,0,65,80,791.5,0.489583,Eighth,F4
3527,Left,1,50,80,791.5,0.239583,Sixteenth,D3
3528,Left,1,56,80,791.75,0.239583,Sixteenth,G#3
3530,Left,1,39,80,792.0,0.989583,Quarter,D#3_D#2
3529,Right,0,63,80,792.0,0.239583,Sixteenth,D#4
3532,Right,0,55,80,792.25,0.239583,Sixteenth,G3
3533,Right,0,58,80,792.5,0.239583,Sixteenth,A#3
3534,Right,0,56,80,792.75,0.239583,Sixteenth,G#3
3535,Right,0,55,80,793.0,0.1875,TripletSixteenth,G3
3536,Right,0,56,80,793.197917,0.1875,TripletSixteenth,G#3
3537,Right,0,58,80,793.395833,0.1875,TripletSixteenth,A#3
3538,Right,0,60,80,793.59375,0.1875,TripletSixteenth,C4
3539,Right,0,62,80,793.791667,0.1875,TripletSixteenth,D4
3540,Right,0,63,80,794.0,0.15625,TripletSixteenth,D#4
3541,Right,0,62,80,794.166667,0.15625,TripletSixteenth,D4
3542,Right,0,65,80,794.333333,0.15625,TripletSixteenth,F4
3543,Right,0,63,80,794.5,0.15625,TripletSixteenth,D#4
3544,Right,0,67,80,794.666667,0.15625,TripletSixteenth,G4
3545,Right,0,65,80,794.833333,0.15625,TripletSixteenth,F4
3546,Right,0,63,80,795.0,0.15625,TripletSixteenth,D#4
3547,Right,0,62,80,795.166667,0.15625,TripletSixteenth,D4
3548,Right,0,60,80,795.333333,0.15625,TripletSixteenth,C4
3549,Right,0,58,80,795.5,0.15625,TripletSixteenth,A#3
3550,Right,0,60,80,795.666667,0.15625,TripletSixteenth,C4
3551,Right,0,56,80,795.833333,0.15625,TripletSixteenth,G#3
3552,Right,0,55,80,796.0,0.15625,TripletSixteenth,G3
3553,Right,0,58,80,796.166667,0.15625,TripletSixteenth,A#3
3554,Right,0,56,80,796.333333,0.15625,TripletSixteenth,G#3
3555,Right,0,55,80,796.5,0.15625,TripletSixteenth,G3
3556,Right,0,56,80,796.666667,0.15625,TripletSixteenth,G#3
3557,Right,0,58,80,796.833333,0.15625,TripletSixteenth,A#3
3558,Right,0,60,80,797.0,0.15625,TripletSixteenth,C4
3559,Right,0,62,80,797.166667,0.15625,TripletSixteenth,D4
3560,Right,0,63,80,797.333333,0.15625,TripletSixteenth,D#4
3561,Right,0,62,80,797.5,0.15625,TripletSixteenth,D4
3562,Right,0,60,80,797.666667,0.15625,TripletSixteenth,C4
3563,Right,0,58,80,797.833333,0.15625,TripletSixteenth,A#3
3564,Right,0,60,80,798.0,0.239583,Sixteenth,C4
3565,Right,0,62,80,798.25,0.239583,Sixteenth,D4
3566,Right,0,63,80,798.5,0.239583,Sixteenth,D#4
3567,Right,0,65,80,798.75,0.239583,Sixteenth,F4
3568,Right,0,67,80,799.0,0.239583,Sixteenth,G4
3569,Right,0,65,80,799.25,0.239583,Sixteenth,F4
3570,Right,0,63,80,799.5,0.239583,Sixteenth,D#4
3571,Right,0,62,80,799.75,0.239583,Sixteenth,D4
3572,Right,0,63,80,800.0,0.239583,Sixteenth,D#4
3573,Right,0,65,80,800.25,0.239583,Sixteenth,F4
3574,Right,0,67,80,800.5,0.239583,Sixteenth,G4
3575,Right,0,68,80,800.75,0.239583,Sixteenth,G#4
3576,Right,0,72,80,801.0,0.239583,Sixteenth,C5
3577,Right,0,70,80,801.25,0.239583,Sixteenth,A#4
3578,Right,0,68,80,801.5,0.239583,Sixteenth,G#4
3579,Right,0,67,80,801.75,0.239583,Sixteenth,G4
3580,Right,0,68,80,802.0,0.239583,Sixteenth,G#4
3581,Right,0,70,80,802.25,0.239583,Sixteenth,A#4
3582,Right,0,72,80,802.5,0.239583,Sixteenth,C5
3583,Right,0,74,80,802.75,0.239583,Sixteenth,D5
3584,Right,0,75,80,803.0,0.239583,Sixteenth,D#5
3585,Right,0,74,80,803.25,0.239583,Sixteenth,D5
3586,Right,0,72,80,803.5,0.239583,Sixteenth,C5
3587,Right,0,70,80,803.75,0.239583,Sixteenth,A#4
3588,Right,0,72,80,804.0,0.239583,Sixteenth,C5
3589,Right,0,74,80,804.25,0.239583,Sixteenth,D5
3590,Right,0,75,80,804.5,0.239583,Sixteenth,D#5
3591,Right,0,77,80,804.75,0.239583,Sixteenth,F5
3592,Right,0,79,80,805.0,0.239583,Sixteenth,G5
3593,Right,0,77,80,805.25,0.239583,Sixteenth,F5
3594,Right,0,75,80,805.5,0.239583,Sixteenth,D#5
3595,Right,0,74,80,805.75,0.239583,Sixteenth,D5
3596,Right,0,75,80,806.0,0.239583,Sixteenth,D#5
3597,Right,0,77,80,806.25,0.239583,Sixteenth,F5
3598,Right,0,79,80,806.5,0.239583,Sixteenth,G5
3599,Right,0,80,80,806.75,0.239583,Sixteenth,G#5
3600,Right,0,84,80,807.0,0.239583,Sixteenth,C6
3601,Right,0,82,80,807.25,0.239583,Sixteenth,A#5
3602,Right,0,80,80,807.5,0.239583,Sixteenth,G#5
3603,Right,0,79,80,807.75,0.239583,Sixteenth,G5
3604,Right,0,82,80,808.0,0.322917,Triplet,A#5
3605,Right,0,80,80,808.333333,0.322917,Triplet,G#5
3606,Right,0,79,80,808.666667,0.322917,Triplet,G5
3607,Right,0,80,80,809.0,0.239583,Sixteenth,G#5
3608,Right,0,82,80,809.25,0.239583,Sixteenth,A#5
3609,Right,0,84,80,809.5,0.239583,Sixteenth,C6
3610,Right,0,86,80,809.75,0.239583,Sixteenth,D6
3611,Right,0,87,80,810.0,1.489583,DottedQuarter,D#6
3612,Left,1,55,80,810.0,0.239583,Sixteenth,G3
3613,Left,1,63,80,810.25,0.239583,Sixteenth,D#4
3614,Left,1,58,80,810.5,0.239583,Sixteenth,A#3
3615,Left,1,63,80,810.75,0.239583,Sixteenth,D#4
3616,Left,1,55,80,811.0,0.239583,Sixteenth,G3
3617,Left,1,63,80,811.25,0.239583,Sixteenth,D#4
3618,Right,0,86,80,811.5,0.239583,Sixteenth,D6
3619,Left,1,58,80,811.5,0.239583,Sixteenth,A#3
3620,Left,1,63,80,811.75,0.239583,Sixteenth,D#4
3621,Right,0,87,80,811.75,0.239583,Sixteenth,D#6
3622,Right,0,86,80,812.0,0.239583,Sixteenth,D6
3623,Left,1,55,80,812.0,0.239583,Sixteenth,G3
3625,Left,1,63,80,812.25,0.239583,Sixteenth,D#4
3624,Right,0,87,80,812.25,0.239583,Sixteenth,D#6
3626,Right,0,89,80,812.5,0.239583,Sixteenth,F6
3627,Left,1,58,80,812.5,0.239583,Sixteenth,A#3
3628,Left,1,63,80,812.75,0.239583,Sixteenth,D#4
3629,Right,0,87,80,812.75,0.239583,Sixteenth,D#6
3631,Right,0,82,80,813.0,1.489583,DottedQuarter,A#5
3630,Left,1,55,80,813.0,0.239583,Sixteenth,G3
3632,Left,1,63,80,813.25,0.239583,Sixteenth,D#4
3633,Left,1,58,80,813.5,0.239583,Sixteenth,A#3
3634,Left,1,63,80,813.75,0.239583,Sixteenth,D#4
3635,Left,1,55,80,814.0,0.239583,Sixteenth,G3
3636,Left,1,63,80,814.25,0.239583,Sixteenth,D#4
3638,Right,0,81,80,814.5,0.239583,Sixteenth,A5
3637,Left,1,58,80,814.5,0.239583,Sixteenth,A#3
3639,Left,1,63,80,814.75,0.239583,Sixteenth,D#4
3640,Right,0,82,80,814.75,0.239583,Sixteenth,A#5
3642,Left,1,55,80,815.0,0.239583,Sixteenth,G3
3641,Right,0,84,80,815.0,0.239583,Sixteenth,C6
3644,Right,0,82,80,815.25,0.239583,Sixteenth,A#5
3643,Left,1,63,80,815.25,0.239583,Sixteenth,D#4
3646,Right,0,80,80,815.5,0.239583,Sixteenth,G#5
3645,Left,1,58,80,815.5,0.239583,Sixteenth,A#3
3648,Left,1,63,80,815.75,0.239583,Sixteenth,D#4
3647,Right,0,79,80,815.75,0.239583,Sixteenth,G5
3649,Right,0,83,80,816.0,0.239583,Sixteenth,B5
3650,Left,1,56,80,816.0,0.239583,Sixteenth,G#3
3651,Left,1,63,80,816.25,0.239583,Sixteenth,D#4
3652,Right,0,84,80,816.25,0.239583,Sixteenth,C6
3654,Right,0,83,80,816.5,0.239583,Sixteenth,B5
3653,Left,1,60,80,816.5,0.239583,Sixteenth,C4
3656,Left,1,63,80,816.75,0.239583,Sixteenth,D#4
3655,Right,0,84,80,816.75,0.239583,Sixteenth,C6
3657,Right,0,83,80,817.0,0.239583,Sixteenth,B5
3658,Left,1,56,80,817.0,0.239583,Sixteenth,G#3
3660,Right,0,84,80,817.25,0.239583,Sixteenth,C6
3659,Left,1,63,80,817.25,0.239583,Sixteenth,D#4
3661,Right,0,83,80,817.5,0.239583,Sixteenth,B5
3662,Left,1,60,80,817.5,0.239583,Sixteenth,C4
3663,Right,0,84,80,817.75,0.239583,Sixteenth,C6
3664,Left,1,63,80,817.75,0.239583,Sixteenth,D#4
3666,Left,1,56,80,818.0,0.239583,Sixteenth,G#3
3665,Right,0,79,80,818.0,0.239583,Sixteenth,G5
3667,Right,0,80,80,818.25,0.239583,Sixteenth,G#5
3668,Left,1,64,80,818.25,0.239583,Sixteenth,E4
3670,Left,1,60,80,818.5,0.239583,Sixteenth,C4
3669,Right,0,79,80,818.5,0.239583,Sixteenth,G5
3671,Left,1,64,80,818.75,0.239583,Sixteenth,E4
3672,Right,0,80,80,818.75,0.239583,Sixteenth,G#5
3674,Right,0,76,80,819.0,0.239583,Sixteenth,E5
3673,Left,1,56,80,819.0,0.239583,Sixteenth,G#3
3676,Right,0,77,80,819.25,0.239583,Sixteenth,F5
3675,Left,1,65,80,819.25,0.239583,Sixteenth,F4
3678,Right,0,76,80,819.5,0.239583,Sixteenth,E5
3677,Left,1,60,80,819.5,0.239583,Sixteenth,C4
3680,Right,0,77,80,819.75,0.239583,Sixteenth,F5
3679,Left,1,65,80,819.75,0.239583,Sixteenth,F4
3681,Left,1,56,80,820.0,0.239583,Sixteenth,G#3
3682,Left,1,65,80,820.25,0.239583,Sixteenth,F4
3683,Left,1,60,80,820.5,0.239583,Sixteenth,C4
3684,Left,1,65,80,820.75,0.239583,Sixteenth,F4
3685,Left,1,57,80,821.0,0.239583,Sixteenth,A3
3686,Left,1,65,80,821.25,0.239583,Sixteenth,F4
3688,Right,0,77,80,821.5,0.489583,Eighth,F5
3687,Left,1,63,80,821.5,0.239583,Sixteenth,D#4
3689,Left,1,65,80,821.75,0.239583,Sixteenth,F4
3690,Right,0,80,80,822.0,1.489583,DottedQuarter,G#5
3691,Left,1,58,80,822.0,0.239583,Sixteenth,A#3
3692,Left,1,65,80,822.25,0.239583,Sixteenth,F4
3693,Left,1,62,80,822.5,0.239583,Sixteenth,D4
3694,Left,1,65,80,822.75,0.239583,Sixteenth,F4
3695,Left,1,53,80,823.0,0.239583,Sixteenth,F3
3696,Left,1,62,80,823.25,0.239583,Sixteenth,D4
3697,Right,0,79,80,823.5,0.239583,Sixteenth,G5
3698,Left,1,58,80,823.5,0.239583,Sixteenth,A#3
3699,Right,0,80,80,823.75,0.239583,Sixteenth,G#5
3700,Left,1,62,80,823.75,0.239583,Sixteenth,D4
3701,Right,0,82,80,824.0,0.239583,Sixteenth,A#5
3702,Left,1,50,80,824.0,0.239583,Sixteenth,D3
3703,Right,0,80,80,824.25,0.239583,Sixteenth,G#5
3704,Left,1,58,80,824.25,0.239583,Sixteenth,A#3
3705,Right,0,79,80,824.5,0.239583,Sixteenth,G5
3706,Left,1,53,80,824.5,0.239583,Sixteenth,F3
3708,Right,0,77,80,824.75,0.239583,Sixteenth,F5
3707,Left,1,58,80,824.75,0.239583,Sixteenth,A#3
3709,Left,1,46,80,825.0,0.239583,Sixteenth,A#2
3710,Right,0,75,80,825.0,0.239583,Sixteenth,D#5
3712,Right,0,74,80,825.25,0.239583,Sixteenth,D5
3711,Left,1,56,80,825.25,0.239583,Sixteenth,G#3
3714,Right,0,79,80,825.5,0.239583,Sixteenth,G5
3713,Left,1,53,80,825.5,0.239583,Sixteenth,F3
3715,Left,1,56,80,825.75,0.239583,Sixteenth,G#3
3716,Right,0,77,80,825.75,0.239583,Sixteenth,F5
3717,Left,1,46,80,826.0,0.239583,Sixteenth,A#2
3718,Right,0,75,80,826.0,0.239583,Sixteenth,D#5
3720,Right,0,74,80,826.25,0.239583,Sixteenth,D5
3719,Left,1,56,80,826.25,0.239583,Sixteenth,G#3
3722,Right,0,72,80,826.5,0.239583,Sixteenth,C5
3721,Left,1,53,80,826.5,0.239583,Sixteenth,F3
3724,Right,0,70,80,826.75,0.239583,Sixteenth,A#4
3723,Left,1,56,80,826.75,0.239583,Sixteenth,G#3
3725,Right,0,68,80,827.0,0.239583,Sixteenth,G#4
3726,Left,1,47,80,827.0,0.239583,Sixteenth,B2
3728,Right,0,67,80,827.25,0.239583,Sixteenth,G4
3727,Left,1,56,80,827.25,0.239583,Sixteenth,G#3
3730,Left,1,50,80,827.5,0.239583,Sixteenth,D3
3729,Right,0,68,80,827.5,0.239583,Sixteenth,G#4
3731,Left,1,56,80,827.75,0.239583,Sixteenth,G#3
3732,Right,0,65,80,827.75,0.489583,Eighth,F4
3733,Left,1,48,80,828.0,0.239583,Sixteenth,C3
3735,Left,1,55,80,828.25,0.239583,Sixteenth,G3
3734,Right,0,63,80,828.25,0.239583,Sixteenth,D#4
3736,Right,0,67,80,828.5,0.739583,DottedEighth,G4
3737,Left,1,51,80,828.5,0.239583,Sixteenth,D#3
3738,Left,1,55,80,828.75,0.239583,Sixteenth,G3
3739,Left,1,44,80,829.0,0.239583,Sixteenth,G#2
3741,Right,0,60,80,829.25,0.239583,Sixteenth,C4
3740,Left,1,53,80,829.25,0.239583,Sixteenth,F3
3742,Right,0,68,80,829.5,0.739583,DottedEighth,G#4
3743,Left,1,48,80,829.5,0.239583,Sixteenth,C3
3744,Left,1,53,80,829.75,0.239583,Sixteenth,F3
3745,Left,1,46,80,830.0,0.239583,Sixteenth,A#2
3747,Right,0,62,80,830.25,0.239583,Sixteenth,D4
3746,Left,1,53,80,830.25,0.239583,Sixteenth,F3
3749,Left,1,50,80,830.5,0.239583,Sixteenth,D3
3748,Right,0,65,80,830.5,0.489583,Eighth,F4
3750,Left,1,56,80,830.75,0.239583,Sixteenth,G#3
3751,Right,0,63,80,831.0,0.489583,Eighth,D#4
3752,Left,1,51,80,831.0,0.239583,Sixteenth,D#3
3753,Left,1,55,80,831.25,0.239583,Sixteenth,G3
3754,Left,1,56,80,831.5,0.239583,Sixteenth,G#3
3755,Left,1,58,80,831.75,0.239583,Sixteenth,A#3
3756,Right,0,60,80,832.0,0.239583,Sixteenth,C4
3757,Right,0,62,80,832.25,0.239583,Sixteenth,D4
3758,Right,0,63,80,832.5,0.239583,Sixteenth,D#4
3759,Right,0,65,80,832.75,0.239583,Sixteenth,F4
3760,Right,0,67,80,833.0,0.239583,Sixteenth,G4
3761,Right,0,68,80,833.25,0.239583,Sixteenth,G#4
3762,Right,0,70,80,833.5,0.239583,Sixteenth,A#4
3763,Right,0,72,80,833.75,0.239583,Sixteenth,C5
3764,Right,0,70,80,834.0,1.989583,Half,A#4
3765,Left,1,50,80,834.5,0.489583,Eighth,F3_D3_A#3
3768,Left,1,53,80,835.0,0.489583,Eighth,F3_D3_A#3
3771,Left,1,50,80,835.5,0.489583,Eighth,F3_D3_A#3
3774,Left,1,50,80,836.0,0.489583,Eighth,F3_D3_A#3
3777,Right,0,68,80,836.0,0.239583,Sixteenth,G#4
3778,Right,0,70,80,836.125,0.239583,Sixteenth,A#4
3779,Right,0,68,80,836.25,0.239583,Sixteenth,G#4
3780,Right,0,70,80,836.375,0.239583,Sixteenth,A#4
3784,Right,0,68,80,836.5,0.239583,Sixteenth,G#4
3781,Left,1,50,80,836.5,0.489583,Eighth,F3_D3_A#3
3785,Right,0,70,80,836.625,0.239583,Sixteenth,A#4
3786,Right,0,67,80,836.75,0.239583,Sixteenth,G4
3787,Right,0,68,80,836.875,0.114583,ThirtySecond,G#4
3788,Right,0,67,80,837.0,0.239583,Sixteenth,G4
3789,Left,1,63,80,837.0,0.239583,Sixteenth,D#4
3790,Left,1,67,80,837.25,0.239583,Sixteenth,G4
3791,Left,1,68,80,837.5,0.239583,Sixteenth,G#4
3792,Left,1,70,80,837.75,0.239583,Sixteenth,A#4
3793,Right,0,72,80,838.0,0.239583,Sixteenth,C5
3794,Right,0,74,80,838.25,0.239583,Sixteenth,D5
3795,Right,0,75,80,838.5,0.239583,Sixteenth,D#5
3796,Right,0,77,80,838.75,0.239583,Sixteenth,F5
3797,Right,0,79,80,839.0,0.239583,Sixteenth,G5
3798,Right,0,80,80,839.25,0.239583,Sixteenth,G#5
3799,Right,0,82,80,839.5,0.239583,Sixteenth,A#5
3800,Right,0,84,80,839.75,0.239583,Sixteenth,C6
3801,Right,0,82,80,840.0,1.989583,Half,A#5
3802,Left,1,65,80,840.5,0.489583,Eighth,F4_D4_A#4
3805,Left,1,62,80,841.0,0.489583,Eighth,F4_D4_A#4
3808,Left,1,62,80,841.5,0.489583,Eighth,F4_D4_A#4
3811,Left,1,62,80,842.0,0.489583,Eighth,F4_D4_A#4
3814,Right,0,80,80,842.0,0.239583,Sixteenth,G#5
3815,Right,0,82,80,842.125,0.239583,Sixteenth,A#5
3816,Right,0,80,80,842.25,0.239583,Sixteenth,G#5
3817,Right,0,82,80,842.375,0.239583,Sixteenth,A#5
3818,Right,0,80,80,842.5,0.239583,Sixteenth,G#5
3819,Left,1,70,80,842.5,0.489583,Eighth,F4_D4_A#4
3822,Right,0,82,81,842.625,0.239583,Sixteenth,A#5
3823,Right,0,79,81,842.75,0.239583,Sixteenth,G5
3824,Right,0,80,81,842.875,0.114583,ThirtySecond,G#5
3825,Right,0,79,81,843.0,0.989583,Quarter,G5
3826,Left,1,67,82,843.5,0.489583,Eighth,G4_D#4
3828,Right,0,77,83,844.0,0.239583,Sixteenth,F5
3829,Right,0,79,84,844.125,0.239583,Sixteenth,G5
3830,Right,0,77,84,844.25,0.239583,Sixteenth,F5
3831,Right,0,79,84,844.375,0.239583,Sixteenth,G5
3832,Left,1,67,84,844.5,0.489583,Eighth,G4_D4_B3
3835,Right,0,77,84,844.5,0.239583,Sixteenth,F5
3836,Right,0,79,85,844.625,0.239583,Sixteenth,G5
3837,Right,0,76,85,844.75,0.239583,Sixteenth,E5
3838,Right,0,77,85,844.875,0.114583,ThirtySecond,F5
3839,Right,0,75,85,845.0,0.989583,Quarter,D#5
3840,Left,1,67,86,845.5,0.489583,Eighth,G4_D#4_C4
3843,Right,0,73,87,846.0,0.239583,Sixteenth,C#5
3844,Right,0,75,88,846.125,0.239583,Sixteenth,D#5
3845,Right,0,73,88,846.25,0.239583,Sixteenth,C#5
3846,Right,0,75,88,846.375,0.239583,Sixteenth,D#5
3847,Left,1,63,88,846.5,0.489583,Eighth,G3_D#4_A#3
3848,Right,0,73,88,846.5,0.239583,Sixteenth,C#5
3851,Right,0,75,89,846.625,0.239583,Sixteenth,D#5
3852,Right,0,72,89,846.75,0.239583,Sixteenth,C5
3853,Right,0,73,89,846.875,0.114583,ThirtySecond,C#5
3854,Right,0,72,89,847.0,0.989583,Quarter,C5
3855,Left,1,56,90,847.5,0.489583,Eighth,G#3_D#4_C4
3858,Right,0,70,91,848.0,0.239583,Sixteenth,A#4
3859,Right,0,72,92,848.125,0.239583,Sixteenth,C5
3860,Right,0,70,92,848.25,0.239583,Sixteenth,A#4
3861,Right,0,72,92,848.375,0.239583,Sixteenth,C5
3863,Left,1,60,92,848.5,0.489583,Eighth,G3_E3_C4
3862,Right,0,70,92,848.5,0.239583,Sixteenth,A#4
3866,Right,0,72,93,848.625,0.239583,Sixteenth,C5
3867,Right,0,69,93,848.75,0.239583,Sixteenth,A4
3868,Right,0,70,93,848.875,0.114583,ThirtySecond,A#4
3869,Right,0,69,93,849.0,0.989583,Quarter,A4
3870,Left,1,60,94,849.5,0.489583,Eighth,F3_C4_A3
3873,Right,0,68,95,850.0,0.239583,Sixteenth,G#4
3874,Right,0,70,96,850.125,0.239583,Sixteenth,A#4
3875,Right,0,68,96,850.25,0.239583,Sixteenth,G#4
3876,Right,0,70,96,850.375,0.239583,Sixteenth,A#4
3878,Right,0,68,96,850.5,0.239583,Sixteenth,G#4
3877,Left,1,50,96,850.5,0.489583,Eighth,F3_D3_A#3
3881,Right,0,70,97,850.625,0.239583,Sixteenth,A#4
3882,Right,0,67,97,850.75,0.239583,Sixteenth,G4
3883,Right,0,68,97,850.875,0.114583,ThirtySecond,G#4
3884,Right,0,67,97,851.0,0.989583,Quarter,G4
3885,Left,1,55,98,851.5,0.489583,Eighth,G3_D#3_A#3
3888,Right,0,65,99,852.0,0.239583,Sixteenth,F4
3889,Right,0,67,100,852.125,0.239583,Sixteenth,G4
3890,Right,0,65,100,852.25,0.239583,Sixteenth,F4
3891,Right,0,67,100,852.375,0.239583,Sixteenth,G4
3893,Right,0,65,100,852.5,0.239583,Sixteenth,F4
3892,Left,1,55,100,852.5,0.489583,Eighth,G3_D3_B2
3896,Right,0,67,101,852.625,0.239583,Sixteenth,G4
3897,Right,0,63,101,852.75,0.239583,Sixteenth,D#4
3898,Right,0,65,101,852.875,0.114583,ThirtySecond,F4
3899,Right,0,63,101,853.0,0.989583,Quarter,D#4
3900,Left,1,48,102,853.5,0.489583,Eighth,G3_D#3_C3
3903,Right,0,61,103,854.0,0.239583,Sixteenth,C#4
3904,Right,0,63,104,854.125,0.239583,Sixteenth,D#4
3905,Right,0,61,104,854.25,0.239583,Sixteenth,C#4
3906,Right,0,63,104,854.375,0.239583,Sixteenth,D#4
3910,Right,0,61,104,854.5,0.239583,Sixteenth,C#4
3907,Left,1,43,104,854.5,0.489583,Eighth,G2_D#3_A#2
3911,Right,0,63,105,854.625,0.239583,Sixteenth,D#4
3912,Right,0,60,105,854.75,0.239583,Sixteenth,C4
3913,Right,0,61,105,854.875,0.114583,ThirtySecond,C#4
3914,Right,0,60,105,855.0,0.989583,Quarter,C4
3915,Left,1,48,106,855.5,0.489583,Eighth,G#2_D#3_C3
3918,Right,0,58,107,856.0,0.239583,Sixteenth,A#3
3919,Right,0,60,108,856.125,0.239583,Sixteenth,C4
3920,Right,0,58,108,856.25,0.239583,Sixteenth,A#3
3921,Right,0,60,108,856.375,0.239583,Sixteenth,C4
3922,Left,1,48,108,856.5,0.489583,Eighth,G2_E2_C3
3924,Right,0,58,108,856.5,0.239583,Sixteenth,A#3
3926,Right,0,60,109,856.625,0.239583,Sixteenth,C4
3927,Right,0,57,109,856.75,0.239583,Sixteenth,A3
3928,Right,0,58,109,856.875,0.114583,ThirtySecond,A#3
3929,Right,0,56,109,857.0,0.989583,Quarter,G#3
3930,Left,1,45,110,857.5,0.489583,Eighth,F2_C3_A2
3933,Right,0,56,110,858.0,0.239583,Sixteenth,G#3
3934,Right,0,58,110,858.125,0.239583,Sixteenth,A#3
3935,Right,0,56,110,858.25,0.239583,Sixteenth,G#3
3936,Right,0,58,110,858.375,0.239583,Sixteenth,A#3
3937,Right,0,56,110,858.5,0.239583,Sixteenth,G#3
3938,Left,1,38,110,858.5,0.489583,Eighth,F2_D2_A#2
3941,Right,0,58,110,858.625,0.239583,Sixteenth,A#3
3942,Right,0,55,110,858.75,0.239583,Sixteenth,G3
3943,Right,0,56,110,858.875,0.114583,ThirtySecond,G#3
3944,Right,0,55,110,859.0,0.989583,Quarter,G3
3945,Left,1,46,110,859.5,0.489583,Eighth,G2_D#2_A#2
3948,Right,0,68,85,860.0,0.239583,Sixteenth,G#4
3949,Right,0,70,85,860.125,0.239583,Sixteenth,A#4
3950,Right,0,68,85,860.25,0.239583,Sixteenth,G#4
3951,Right,0,70,85,860.375,0.239583,Sixteenth,A#4
3952,Left,1,38,85,860.5,0.489583,Eighth,F2_D2_A#2
3955,Right,0,68,85,860.5,0.239583,Sixteenth,G#4
3956,Right,0,70,85,860.625,0.239583,Sixteenth,A#4
3957,Right,0,67,85,860.75,0.239583,Sixteenth,G4
3958,Right,0,68,85,860.875,0.114583,ThirtySecond,G#4
3959,Right,0,67,85,861.0,0.989583,Quarter,G4
3960,Left,1,43,110,861.5,0.489583,Eighth,G2_D#2_A#2
3963,Right,0,56,110,862.0,0.239583,Sixteenth,G#3
3964,Right,0,58,110,862.125,0.239583,Sixteenth,A#3
3965,Right,0,56,110,862.25,0.239583,Sixteenth,G#3
3966,Right,0,58,110,862.375,0.239583,Sixteenth,A#3
3969,Right,0,56,110,862.5,0.239583,Sixteenth,G#3
3967,Left,1,46,110,862.5,0.489583,Eighth,F2_D2_A#2
3971,Right,0,58,110,862.625,0.239583,Sixteenth,A#3
3972,Right,0,55,110,862.75,0.239583,Sixteenth,G3
3973,Right,0,56,110,862.875,0.114583,ThirtySecond,G#3
3974,Right,0,55,110,863.0,0.989583,Quarter,G3
3975,Left,1,46,110,863.5,0.489583,Eighth,G2_D#2_A#2
3978,Right,0,68,85,864.0,0.239583,Sixteenth,G#4
3979,Right,0,70,85,864.125,0.239583,Sixteenth,A#4
3980,Right,0,68,85,864.25,0.239583,Sixteenth,G#4
3981,Right,0,70,85,864.375,0.239583,Sixteenth,A#4
3985,Right,0,68,85,864.5,0.239583,Sixteenth,G#4
3982,Left,1,46,85,864.5,0.489583,Eighth,F2_D2_A#2
3986,Right,0,70,85,864.625,0.239583,Sixteenth,A#4
3987,Right,0,67,85,864.75,0.239583,Sixteenth,G4
3988,Right,0,68,85,864.875,0.114583,ThirtySecond,G#4
3989,Right,0,67,85,865.0,0.989583,Quarter,G4
3990,Left,1,39,110,865.5,0.489583,Eighth,G2_D#2_A#2
3993,Right,0,56,110,866.0,0.239583,Sixteenth,G#3
3994,Right,0,58,110,866.125,0.239583,Sixteenth,A#3
3995,Right,0,56,110,866.25,0.239583,Sixteenth,G#3
3996,Right,0,58,110,866.375,0.239583,Sixteenth,A#3
3998,Left,1,46,110,866.5,0.489583,Eighth,F2_D2_A#2
3997,Right,0,56,110,866.5,0.239583,Sixteenth,G#3
4001,Right,0,58,110,866.625,0.239583,Sixteenth,A#3
4002,Right,0,55,110,866.75,0.239583,Sixteenth,G3
4003,Right,0,56,110,866.875,0.114583,ThirtySecond,G#3
4005,Left,1,43,80,867.0,0.489583,Eighth,G2_D#2_A#2
4004,Right,0,55,80,867.0,0.239583,Sixteenth,G3
4008,Right,0,51,80,867.25,0.239583,Sixteenth,D#3
4009,Right,0,46,80,867.5,0.239583,Sixteenth,A#2
4010,Right,0,51,80,867.75,0.239583,Sixteenth,D#3
4011,Right,0,55,80,868.0,0.239583,Sixteenth,G3
4012,Right,0,51,80,868.25,0.239583,Sixteenth,D#3
4013,Right,0,58,80,868.5,0.239583,Sixteenth,A#3
4014,Right,0,55,80,868.75,0.239583,Sixteenth,G3
4015,Right,0,63,80,869.0,0.239583,Sixteenth,D#4
4016,Right,0,58,80,869.25,0.239583,Sixteenth,A#3
4017,Right,0,67,80,869.5,0.239583,Sixteenth,G4
4018,Right,0,63,80,869.75,0.239583,Sixteenth,D#4
4019,Right,0,58,80,870.0,0.239583,Sixteenth,A#3
4020,Right,0,55,80,870.25,0.239583,Sixteenth,G3
4021,Right,0,63,80,870.5,0.239583,Sixteenth,D#4
4022,Right,0,58,80,870.75,0.239583,Sixteenth,A#3
4023,Right,0,67,80,871.0,0.239583,Sixteenth,G4
4024,Right,0,63,80,871.25,0.239583,Sixteenth,D#4
4025,Right,0,70,80,871.5,0.239583,Sixteenth,A#4
4026,Right,0,67,80,871.75,0.239583,Sixteenth,G4
4027,Right,0,63,80,872.0,0.239583,Sixteenth,D#4
4028,Right,0,58,80,872.25,0.239583,Sixteenth,A#3
4029,Right,0,67,80,872.5,0.239583,Sixteenth,G4
4030,Right,0,63,80,872.75,0.239583,Sixteenth,D#4
4031,Right,0,70,80,873.0,0.239583,Sixteenth,A#4
4032,Right,0,67,80,873.25,0.239583,Sixteenth,G4
4033,Right,0,75,80,873.5,0.239583,Sixteenth,D#5
4034,Right,0,70,80,873.75,0.239583,Sixteenth,A#4
4035,Right,0,67,80,874.0,0.239583,Sixteenth,G4
4036,Right,0,63,80,874.25,0.239583,Sixteenth,D#4
4037,Right,0,70,80,874.5,0.239583,Sixteenth,A#4
4038,Right,0,67,80,874.75,0.239583,Sixteenth,G4
4039,Right,0,75,80,875.0,0.239583,Sixteenth,D#5
4040,Right,0,70,80,875.25,0.239583,Sixteenth,A#4
4041,Right,0,79,80,875.5,0.239583,Sixteenth,G5
4042,Right,0,75,80,875.75,0.239583,Sixteenth,D#5
4043,Right,0,82,80,876.0,0.489583,Eighth,A#5
4044,Right,0,70,80,876.5,0.489583,Eighth,A#4
4045,Left,1,58,80,876.5,0.489583,Eighth,A#3
4046,Right,0,75,80,877.0,0.489583,Eighth,D#5
4047,Left,1,63,80,877.0,0.489583,Eighth,D#4
4048,Left,1,67,80,877.5,0.489583,Eighth,G4
4049,Right,0,79,80,877.5,0.489583,Eighth,G5
4050,Left,1,70,80,878.0,0.489583,Eighth,A#4
4051,Right,0,82,80,878.0,0.489583,Eighth,A#5
4052,Right,0,58,80,878.5,0.489583,Eighth,A#3
4053,Right,0,63,80,879.0,0.489583,Eighth,D#4
4054,Right,0,67,80,879.5,0.489583,Eighth,G4
4055,Right,0,70,80,880.0,0.489583,Eighth,A#4
4056,Left,1,34,80,880.5,0.489583,Eighth,A#1
4057,Right,0,46,80,880.5,0.489583,Eighth,A#2
4058,Left,1,39,90,881.0,0.489583,Eighth,D#2
4059,Right,0,51,90,881.0,0.489583,Eighth,D#3
4060,Right,0,55,100,881.5,0.489583,Eighth,G3
4061,Left,1,43,100,881.5,0.489583,Eighth,G2
4063,Left,1,46,110,882.0,0.489583,Eighth,A#2
4062,Right,0,58,110,882.0,0.489583,Eighth,A#3
4064,Right,0,63,110,882.5,0.489583,Eighth,D#4
4065,Left,1,51,110,882.5,0.489583,Eighth,D#3
4066,Right,0,67,110,883.0,0.489583,Eighth,G4
4067,Left,1,55,110,883.0,0.489583,Eighth,G3
4068,Right,0,70,110,883.5,0.489583,Eighth,A#4
4069,Left,1,58,110,883.5,0.489583,Eighth,A#3
4071,Right,0,75,110,884.0,0.489583,Eighth,D#5
4070,Left,1,63,110,884.0,0.489583,Eighth,D#4
4072,Right,0,79,110,884.5,0.489583,Eighth,G5
4073,Left,1,67,110,884.5,0.489583,Eighth,G4
4075,Right,0,82,110,885.0,0.489583,Eighth,A#5
4074,Left,1,70,110,885.0,0.989583,Quarter,A#4
4076,Right,0,81,80,885.5,0.489583,Eighth,A5
4077,Right,0,84,80,886.0,0.489583,Eighth,C6
4078,Right,0,82,80,886.5,0.489583,Eighth,A#5
4079,Right,0,80,80,887.0,0.489583,Eighth,G#5
4080,Right,0,79,80,887.5,0.489583,Eighth,G5
4081,Right,0,77,80,888.0,0.239583,Sixteenth,F5
4082,Right,0,79,80,888.125,0.239583,Sixteenth,G5
4083,Right,0,77,80,888.25,0.239583,Sixteenth,F5
4084,Right,0,79,81,888.375,0.239583,Sixteenth,G5
4085,Right,0,77,81,888.5,0.239583,Sixteenth,F5
4086,Left,1,58,81,888.5,0.489583,Eighth,A#3
4087,Right,0,79,82,888.625,0.239583,Sixteenth,G5
4088,Right,0,77,82,888.75,0.239583,Sixteenth,F5
4089,Right,0,79,83,888.875,0.239583,Sixteenth,G5
4091,Right,0,77,83,889.0,0.239583,Sixteenth,F5
4090,Left,1,62,83,889.0,0.489583,Eighth,D4
4092,Right,0,79,83,889.125,0.239583,Sixteenth,G5
4093,Right,0,77,84,889.25,0.239583,Sixteenth,F5
4094,Right,0,79,84,889.375,0.239583,Sixteenth,G5
4095,Right,0,77,85,889.5,0.239583,Sixteenth,F5
4096,Left,1,65,85,889.5,0.489583,Eighth,F4
4097,Right,0,79,85,889.625,0.239583,Sixteenth,G5
4098,Right,0,77,86,889.75,0.239583,Sixteenth,F5
4099,Right,0,79,86,889.875,0.239583,Sixteenth,G5
4100,Left,1,68,87,890.0,0.489583,Eighth,G#4
4101,Right,0,77,87,890.0,0.239583,Sixteenth,F5
4102,Right,0,79,87,890.125,0.239583,Sixteenth,G5
4103,Right,0,77,87,890.25,0.239583,Sixteenth,F5
4104,Right,0,79,88,890.375,0.239583,Sixteenth,G5
4105,Right,0,77,88,890.5,0.239583,Sixteenth,F5
4106,Left,1,46,88,890.5,0.489583,Eighth,A#2
4107,Right,0,79,89,890.625,0.239583,Sixteenth,G5
4108,Right,0,77,89,890.75,0.239583,Sixteenth,F5
4109,Right,0,79,90,890.875,0.239583,Sixteenth,G5
4111,Left,1,50,90,891.0,0.489583,Eighth,D3
4110,Right,0,77,90,891.0,0.239583,Sixteenth,F5
4112,Right,0,79,91,891.125,0.239583,Sixteenth,G5
4113,Right,0,77,91,891.25,0.239583,Sixteenth,F5
4114,Right,0,79,91,891.375,0.239583,Sixteenth,G5
4115,Right,0,77,92,891.5,0.239583,Sixteenth,F5
4116,Left,1,53,92,891.5,0.489583,Eighth,F3
4117,Right,0,79,92,891.625,0.239583,Sixteenth,G5
4118,Right,0,77,93,891.75,0.239583,Sixteenth,F5
4119,Right,0,79,93,891.875,0.239583,Sixteenth,G5
4121,Left,1,56,94,892.0,0.489583,Eighth,G#3
4120,Right,0,77,94,892.0,0.239583,Sixteenth,F5
4122,Right,0,79,94,892.125,0.239583,Sixteenth,G5
4123,Right,0,77,95,892.25,0.239583,Sixteenth,F5
4124,Right,0,79,95,892.375,0.239583,Sixteenth,G5
4126,Left,1,47,95,892.5,0.489583,Eighth,B2
4125,Right,0,77,95,892.5,0.239583,Sixteenth,F5
4127,Right,0,79,96,892.625,0.239583,Sixteenth,G5
4128,Right,0,77,96,892.75,0.239583,Sixteenth,F5
4129,Right,0,79,97,892.875,0.239583,Sixteenth,G5
4131,Right,0,77,97,893.0,0.239583,Sixteenth,F5
4130,Left,1,50,97,893.0,0.489583,Eighth,D3
4132,Right,0,79,98,893.125,0.239583,Sixteenth,G5
4133,Right,0,77,98,893.25,0.239583,Sixteenth,F5
4134,Right,0,79,99,893.375,0.239583,Sixteenth,G5
4135,Right,0,77,99,893.5,0.239583,Sixteenth,F5
4136,Left,1,53,99,893.5,0.489583,Eighth,F3
4137,Right,0,79,99,893.625,0.239583,Sixteenth,G5
4138,Right,0,77,100,893.75,0.239583,Sixteenth,F5
4139,Right,0,79,100,893.875,0.239583,Sixteenth,G5
4141,Right,0,77,101,894.0,0.239583,Sixteenth,F5
4140,Left,1,56,101,894.0,0.489583,Eighth,G#3
4142,Right,0,79,101,894.125,0.239583,Sixteenth,G5
4143,Right,0,77,102,894.25,0.239583,Sixteenth,F5
4144,Right,0,79,102,894.375,0.239583,Sixteenth,G5
4145,Right,0,77,103,894.5,0.239583,Sixteenth,F5
4146,Left,1,46,103,894.5,0.489583,Eighth,A#2
4147,Right,0,79,103,894.625,0.239583,Sixteenth,G5
4148,Right,0,77,103,894.75,0.239583,Sixteenth,F5
4149,Right,0,79,104,894.875,0.239583,Sixteenth,G5
4151,Right,0,77,104,895.0,0.239583,Sixteenth,F5
4150,Left,1,50,104,895.0,0.489583,Eighth,D3
4152,Right,0,79,105,895.125,0.239583,Sixteenth,G5
4153,Right,0,77,105,895.25,0.239583,Sixteenth,F5
4154,Right,0,79,106,895.375,0.239583,Sixteenth,G5
4156,Right,0,77,106,895.5,0.239583,Sixteenth,F5
4155,Left,1,53,106,895.5,0.489583,Eighth,F3
4157,Right,0,79,106,895.625,0.239583,Sixteenth,G5
4158,Right,0,77,107,895.75,0.239583,Sixteenth,F5
4159,Right,0,79,107,895.875,0.239583,Sixteenth,G5
4160,Left,1,56,108,896.0,0.489583,Eighth,G#3
4161,Right,0,77,108,896.0,0.239583,Sixteenth,F5
4162,Right,0,79,108,896.125,0.239583,Sixteenth,G5
4163,Right,0,77,109,896.25,0.239583,Sixteenth,F5
4164,Right,0,79,109,896.375,0.239583,Sixteenth,G5
4166,Right,0,77,110,896.5,0.239583,Sixteenth,F5
4165,Left,1,58,110,896.5,0.489583,Eighth,A#3
4167,Right,0,79,110,896.625,0.239583,Sixteenth,G5
4168,Right,0,77,110,896.75,0.239583,Sixteenth,F5
4169,Right,0,79,110,896.875,0.239583,Sixteenth,G5
4171,Right,0,77,110,897.0,0.239583,Sixteenth,F5
4170,Left,1,62,110,897.0,0.489583,Eighth,D4
4172,Right,0,79,110,897.125,0.239583,Sixteenth,G5
4173,Right,0,77,110,897.25,0.239583,Sixteenth,F5
4174,Right,0,79,110,897.375,0.239583,Sixteenth,G5
4176,Right,0,77,110,897.5,0.239583,Sixteenth,F5
4175,Left,1,65,110,897.5,0.489583,Eighth,F4
4177,Right,0,79,110,897.625,0.239583,Sixteenth,G5
4178,Right,0,77,110,897.75,0.239583,Sixteenth,F5
4179,Right,0,79,110,897.875,0.239583,Sixteenth,G5
4181,Left,1,68,110,898.0,0.489583,Eighth,G#4
4180,Right,0,77,110,898.0,0.239583,Sixteenth,F5
4182,Right,0,79,110,898.125,0.239583,Sixteenth,G5
4183,Right,0,77,110,898.25,0.239583,Sixteenth,F5
4184,Right,0,79,110,898.375,0.239583,Sixteenth,G5
4186,Left,1,58,110,898.5,0.489583,Eighth,A#3
4185,Right,0,77,110,898.5,0.239583,Sixteenth,F5
4187,Right,0,79,110,898.625,0.239583,Sixteenth,G5
4188,Right,0,75,110,898.75,0.239583,Sixteenth,D#5
4189,Right,0,77,110,898.875,0.114583,ThirtySecond,F5
4191,Right,0,82,110,899.0,0.489583,Eighth,A#5
4190,Left,1,68,110,899.0,0.489583,Eighth,G#4
4193,Right,0,82,110,899.5,0.489583,Eighth,A#5
4192,Left,1,58,110,899.5,0.489583,Eighth,A#3
4196,Right,0,75,110,900.0,0.489583,Eighth,D#5
4194,Left,1,67,110,900.0,0.989583,Quarter,G4_D#4
4197,Right,0,75,80,900.5,0.489583,Eighth,D#5
4198,Right,0,76,80,901.0,0.489583,Eighth,E5
4199,Right,0,77,80,901.5,0.489583,Eighth,F5
4200,Right,0,78,80,902.0,0.489583,Eighth,F#5
4201,Right,0,79,80,902.5,0.489583,Eighth,G5
4203,Right,0,80,80,903.0,2.989583,DottedHalf,G#5
4202,Left,1,63,80,903.0,2.989583,DottedHalf,D#4_C4
4205,Left,1,65,80,906.0,2.989583,DottedHalf,G#3_F4
4207,Right,0,72,80,906.0,2.989583,DottedHalf,G#4_C5
4210,Left,1,58,80,909.0,0.989583,Quarter,F4_A#3
4209,Right,0,68,80,909.0,0.989583,Quarter,G#4_D#5
4213,Right,0,74,80,909.5,0.489583,Eighth,D5
4214,Right,0,68,80,910.0,0.989583,Quarter,G#4_D#5
4215,Left,1,58,80,910.0,0.989583,Quarter,F4_A#3
4218,Right,0,74,80,910.125,0.364583,DottedSixteenth,D5
4219,Right,0,72,80,910.5,0.489583,Eighth,C5
4222,Left,1,65,80,911.0,0.989583,Eighth,F4_A#3
4220,Right,0,68,80,911.0,0.989583,Quarter,G#4_D5
4224,Right,0,77,80,911.5,0.489583,Eighth,F5
4225,Left,1,62,80,911.5,0.489583,Eighth,D4
4228,Right,0,75,80,912.0,0.489583,Eighth,G4_D#5
4226,Left,1,63,80,912.0,0.489583,Eighth,D#4_D#3
4230,Left,1,51,80,912.5,0.489583,Eighth,D#3
4231,Right,0,63,80,912.5,0.489583,Eighth,D#4
4232,Left,1,52,80,913.0,0.489583,Eighth,E3
4233,Right,0,64,80,913.0,0.489583,Eighth,E4
4235,Right,0,65,80,913.5,0.489583,Eighth,F4
4234,Left,1,53,80,913.5,0.489583,Eighth,F3
4237,Right,0,66,80,914.0,0.489583,Eighth,F#4
4236,Left,1,54,80,914.0,0.489583,Eighth,F#3
4239,Right,0,67,80,914.5,0.489583,Eighth,G4
4238,Left,1,55,80,914.5,0.489583,Eighth,G3
4240,Right,0,68,80,915.0,2.989583,DottedHalf,G#4
4241,Left,1,56,80,915.0,2.989583,DottedHalf,G#3
4243,Left,1,44,80,918.0,2.989583,DottedHalf,G#2_C3
4242,Right,0,56,80,918.0,2.989583,DottedHalf,G#3_C4
4246,Right,0,61,80,920.0,0.489583,Eighth,C#4
4247,Left,1,49,80,920.0,0.489583,Eighth,C#3
4248,Right,0,63,80,920.5,0.489583,Eighth,D#4
4249,Left,1,51,80,920.5,0.489583,Eighth,D#3
4250,Left,1,49,80,921.0,1.989583,Half,G#2_C#3_C#2_A#2
4251,Right,0,53,80,921.0,1.989583,Half,G#3_F4_F3
4257,Right,0,58,80,921.75,0.239583,Sixteenth,A#3
4258,Right,0,58,80,922.0,1.489583,DottedQuarter,A#3
4259,Right,0,56,80,924.0,1.989583,Half,G#3_F4_F3
4262,Left,1,49,80,924.0,1.989583,Half,G#2_C#3_C#2_A#2
4266,Right,0,58,80,924.75,0.239583,Sixteenth,A#3
4267,Right,0,58,80,925.0,1.489583,DottedQuarter,A#3
4269,Left,1,37,80,927.0,0.989583,Quarter,C#3_C#2
4268,Right,0,53,80,927.0,0.989583,Quarter,G#3_F3_A#3
4273,Left,1,37,80,928.0,0.989583,Quarter,C#3_C#2
4275,Right,0,53,80,928.0,0.989583,Quarter,G#3_F3_A#3
4281,Left,1,37,80,929.0,0.989583,Quarter,C#3_C#2
4278,Right,0,58,80,929.0,0.989583,Quarter,G#3_F3_A#3
4284,Right,0,59,80,930.0,2.989583,DottedHalf,G#3_F3_B3
4283,Left,1,38,80,930.0,2.989583,DottedHalf,D3_D2
4291,Left,1,62,80,933.0,0.989583,Quarter,D4
4288,Right,0,68,80,933.0,0.989583,Quarter,G#4_F4_B4
4294,Left,1,62,80,934.0,0.989583,Quarter,D4
4292,Right,0,65,80,934.0,0.989583,Quarter,G#4_F4_B4
4297,Left,1,62,80,935.0,0.989583,Quarter,D4
4296,Right,0,71,80,935.0,0.989583,Quarter,G#4_F4_B4
4300,Left,1,63,80,936.0,1.989583,Half,D#4
4301,Right,0,66,80,936.0,1.989583,Half,G#4_F#4_C5
4307,Left,1,39,80,938.0,0.989583,Quarter,D#3_D#2
4304,Right,0,56,80,938.0,0.989583,Quarter,G#3_F#3_C4
4311,Right,0,61,81,939.0,0.989583,Quarter,G#3_C#4
4309,Left,1,40,81,939.0,0.989583,Quarter,E3_E2
4315,Left,1,64,84,941.0,0.989583,Quarter,E4
4313,Right,0,73,84,941.0,0.989583,Quarter,G#4_C#5
4316,Left,1,65,85,942.0,0.989583,Quarter,F4
4317,Right,0,68,85,942.0,0.989583,Quarter,G#4_D5_B4
4323,Left,1,41,88,944.0,0.989583,Quarter,F3_F2
4320,Right,0,62,88,944.0,0.989583,Quarter,G#3_D4_B3
4325,Left,1,42,89,945.0,0.989583,Quarter,F#3_F#2
4326,Right,0,63,89,945.0,0.989583,Quarter,D#4_A#3
4330,Right,0,70,92,947.0,0.989583,Quarter,D#5_A#4
4329,Left,1,66,92,947.0,0.989583,Quarter,F#4
4333,Left,1,67,94,948.0,0.989583,Quarter,G4
4332,Right,0,76,94,948.0,0.989583,Quarter,E5_C#5_A#4
4339,Left,1,43,96,950.0,0.989583,Quarter,G3_G2
4336,Right,0,64,96,950.0,0.989583,Quarter,E4_C#4_A#3
4341,Right,0,65,98,951.0,0.989583,Quarter,F4_C4
4343,Left,1,44,98,951.0,0.989583,Quarter,G#3_G#2
4345,Right,0,65,99,952.0,0.989583,Quarter,F4_C4
4347,Left,1,56,99,952.0,0.989583,Quarter,G#3_G#2
4351,Right,0,60,101,953.0,0.989583,Quarter,F4_C4
4349,Left,1,44,101,953.0,0.989583,Quarter,G#3_G#2
4355,Right,0,60,102,954.0,2.989583,DottedHalf,F#4_D#4_C4
4353,Left,1,57,102,954.0,2.989583,DottedHalf,A3_A2
4359,Right,0,75,106,957.0,0.989583,Quarter,F#5_D#5_C5
4358,Left,1,69,106,957.0,0.989583,Quarter,A4
4364,Left,1,69,108,958.0,0.989583,Quarter,A4
4362,Right,0,75,108,958.0,0.989583,Quarter,F#5_D#5_C5
4366,Right,0,78,109,959.0,0.989583,Quarter,F#5_D#5_C5
4369,Left,1,69,109,959.0,0.989583,Quarter,A4
4372,Left,1,70,110,960.0,2.989583,DottedHalf,A#4
4370,Right,0,79,110,960.0,2.989583,DottedHalf,G5_D#5
4374,Left,1,34,80,963.0,0.989583,Quarter,A#2_A#1
4373,Right,0,56,80,963.0,0.989583,Quarter,G4_G#3_D4
4378,Right,0,65,80,963.5,0.489583,Eighth,F4
4381,Right,0,56,80,964.0,0.989583,Quarter,G#3_F4_D4
4379,Left,1,46,80,964.0,0.989583,Quarter,A#2_A#1
4384,Right,0,67,80,964.25,0.239583,Sixteenth,G4
4385,Right,0,65,80,964.5,0.239583,Sixteenth,F4
4386,Right,0,64,80,964.75,0.239583,Sixteenth,E4
4388,Right,0,65,80,965.0,0.989583,Quarter,G#3_F4_D4
4387,Left,1,46,80,965.0,0.989583,Quarter,A#2_A#1
4392,Right,0,67,80,965.5,0.489583,Eighth,G4
4393,Left,1,51,80,966.0,0.989583,Quarter,D#3_D#2
4395,Right,0,55,80,966.0,0.239583,Sixteenth,G3_D#4
4397,Right,0,65,80,966.25,0.239583,Sixteenth,F4
4398,Right,0,63,80,966.5,0.239583,Sixteenth,D#4
4399,Right,0,62,80,966.75,0.239583,Sixteenth,D4
4400,Right,0,63,80,967.0,0.239583,Sixteenth,D#4
4401,Right,0,64,80,967.25,0.239583,Sixteenth,E4
4402,Right,0,65,80,967.5,0.239583,Sixteenth,F4
4403,Right,0,66,80,967.75,0.239583,Sixteenth,F#4
4404,Right,0,67,80,968.0,0.239583,Sixteenth,G4
4405,Right,0,68,80,968.25,0.239583,Sixteenth,G#4
4406,Right,0,69,80,968.5,0.239583,Sixteenth,A4
4407,Right,0,70,80,968.75,0.239583,Sixteenth,A#4
4408,Right,0,71,80,969.0,0.239583,Sixteenth,B4
4409,Right,0,72,80,969.25,0.239583,Sixteenth,C5
4410,Right,0,73,80,969.5,0.239583,Sixteenth,C#5
4411,Right,0,74,80,969.75,0.239583,Sixteenth,D5
4412,Right,0,75,80,970.0,0.239583,Sixteenth,D#5
4413,Right,0,76,80,970.25,0.239583,Sixteenth,E5
4414,Right,0,77,80,970.5,0.239583,Sixteenth,F5
4415,Right,0,78,80,970.75,0.239583,Sixteenth,F#5
4416,Right,0,79,80,971.0,0.1875,TripletSixteenth,G5
4417,Right,0,80,80,971.197917,0.1875,TripletSixteenth,G#5
4418,Right,0,81,80,971.395833,0.1875,TripletSixteenth,A5
4419,Right,0,82,80,971.59375,0.1875,TripletSixteenth,A#5
4420,Right,0,83,80,971.791667,0.177083,TripletSixteenth,B5
4421,Left,1,72,80,972.0,2.989583,DottedHalf,G#4_D#5_C5
4423,Right,0,84,80,972.0,0.739583,DottedEighth,C6
4425,Right,0,77,80,972.75,0.239583,Sixteenth,F5
4426,Right,0,77,80,973.0,1.989583,Half,F5
4427,Right,0,71,80,975.0,0.114583,ThirtySecond,B4
4428,Left,1,63,80,975.0,2.989583,DottedHalf,G#3_D#4_C4
4431,Right,0,72,80,975.114583,0.614583,Eighth,C5
4432,Right,0,65,80,975.75,0.239583,Sixteenth,F4
4433,Right,0,65,80,976.0,1.989583,Half,F4
4434,Right,0,51,80,978.0,0.989583,Quarter,F3_D#3_C3
4436,Left,1,44,80,978.0,0.989583,Quarter,G#2_G#1
4439,Left,1,44,83,979.0,0.989583,Quarter,G#2_G#1
4440,Right,0,51,83,979.0,0.989583,Quarter,F3_D#3_C3
4445,Right,0,51,86,980.0,0.989583,Quarter,F3_D#3_C3
4444,Left,1,44,86,980.0,0.989583,Quarter,G#2_G#1
4449,Right,0,51,90,981.0,2.989583,DottedHalf,F#3_D#3_C3
4451,Left,1,33,90,981.0,2.989583,DottedHalf,A2_A1
4456,Right,0,78,100,984.0,0.989583,Quarter,F#5_D#5
4454,Left,1,72,100,984.0,0.989583,Quarter,C5_A4
4460,Left,1,72,104,985.0,0.989583,Quarter,C5_A4
4458,Right,0,78,104,985.0,0.989583,Quarter,F#5_D#5
4464,Left,1,72,107,986.0,0.989583,Quarter,C5_A4
4462,Right,0,75,107,986.0,0.989583,Quarter,F#5_D#5
4468,Left,1,70,110,987.0,0.989583,Quarter,A#4
4466,Right,0,75,110,987.0,0.989583,Quarter,G5_D#5
4470,Left,1,69,80,989.0,0.989583,Quarter,C5_A4
4469,Right,0,75,80,989.0,1.989583,Half,F#5_D#5
4474,Left,1,70,80,990.0,0.989583,Quarter,A#4
4473,Right,0,79,80,990.0,0.989583,Quarter,G5
4477,Left,1,72,80,992.0,0.989583,Quarter,C5_A4
4475,Right,0,78,80,992.0,1.989583,Quarter,F#5_D#5
4480,Left,1,70,80,993.0,0.989583,Quarter,A#4
4479,Right,0,79,80,993.0,1.239583,TiedQuarter-Sixteenth,G5
4481,Right,0,80,81,994.25,0.239583,Sixteenth,G#5
4482,Right,0,82,83,994.5,0.239583,Sixteenth,A#5
4483,Right,0,79,84,994.75,0.239583,Sixteenth,G5
4484,Right,0,76,86,995.0,0.239583,Sixteenth,E5
4485,Right,0,77,87,995.25,0.239583,Sixteenth,F5
4486,Right,0,79,89,995.5,0.239583,Sixteenth,G5
4487,Right,0,75,90,995.75,0.239583,Sixteenth,D#5
4489,Left,1,65,92,996.0,0.989583,Quarter,G#4_F4_A#3
4488,Right,0,73,92,996.0,0.239583,Sixteenth,C#5
4492,Right,0,74,93,996.25,0.239583,Sixteenth,D5
4493,Right,0,75,95,996.5,0.239583,Sixteenth,D#5
4494,Right,0,72,97,996.75,0.239583,Sixteenth,C5
4495,Right,0,69,98,997.0,0.239583,Sixteenth,A4
4496,Right,0,70,100,997.25,0.239583,Sixteenth,A#4
4497,Right,0,72,101,997.5,0.239583,Sixteenth,C5
4498,Right,0,68,103,997.75,0.239583,Sixteenth,G#4
4500,Right,0,66,104,998.0,0.239583,Sixteenth,F#4
4499,Left,1,46,104,998.0,0.989583,Quarter,G#3_D3_A#2
4503,Right,0,67,106,998.25,0.239583,Sixteenth,G4
4504,Right,0,68,107,998.5,0.239583,Sixteenth,G#4
4505,Right,0,65,109,998.75,0.239583,Sixteenth,F4
4506,Right,0,55,110,999.0,0.989583,Quarter,G3_D#4
4507,Left,1,51,110,999.0,0.239583,Sixteenth,D#3
4509,Left,1,53,80,999.25,0.239583,Sixteenth,F3
4510,Left,1,51,80,999.5,0.239583,Sixteenth,D#3
4511,Left,1,50,80,999.75,0.239583,Sixteenth,D3
4512,Left,1,51,80,1000.0,0.239583,Sixteenth,D#3
4513,Left,1,53,80,1000.25,0.239583,Sixteenth,F3
4514,Left,1,55,80,1000.5,0.239583,Sixteenth,G3
4515,Left,1,56,80,1000.75,0.239583,Sixteenth,G#3
4516,Left,1,58,80,1001.0,0.489583,Eighth,A#3
4517,Left,1,55,80,1001.5,0.489583,Eighth,G3
4518,Left,1,53,80,1002.0,0.489583,Eighth,F3
4519,Right,0,70,80,1002.0,0.239583,Sixteenth,A#4
4520,Right,0,72,80,1002.25,0.239583,Sixteenth,C5
4521,Right,0,70,80,1002.5,0.239583,Sixteenth,A#4
4522,Left,1,56,80,1002.5,0.489583,Eighth,G#3
4523,Right,0,69,80,1002.75,0.239583,Sixteenth,A4
4524,Left,1,50,80,1003.0,0.489583,Eighth,D3
4525,Right,0,70,80,1003.0,0.239583,Sixteenth,A#4
4526,Right,0,72,80,1003.25,0.239583,Sixteenth,C5
4527,Left,1,53,80,1003.5,0.489583,Eighth,F3
4528,Right,0,74,80,1003.5,0.239583,Sixteenth,D5
4529,Right,0,75,80,1003.75,0.239583,Sixteenth,D#5
4530,Right,0,77,80,1004.0,0.489583,Eighth,F5
4531,Left,1,46,80,1004.0,0.489583,Eighth,A#2
4533,Left,1,50,80,1004.5,0.489583,Eighth,D3
4532,Right,0,68,80,1004.5,0.489583,Eighth,G#4
4535,Right,0,67,80,1005.0,0.989583,Quarter,G4
4534,Left,1,51,80,1005.0,0.239583,Sixteenth,D#3
4536,Left,1,53,80,1005.25,0.239583,Sixteenth,F3
4537,Left,1,51,80,1005.5,0.239583,Sixteenth,D#3
4538,Left,1,50,80,1005.75,0.239583,Sixteenth,D3
4539,Left,1,51,80,1006.0,0.239583,Sixteenth,D#3
4540,Left,1,53,80,1006.25,0.239583,Sixteenth,F3
4541,Left,1,55,80,1006.5,0.239583,Sixteenth,G3
4542,Left,1,56,80,1006.75,0.239583,Sixteenth,G#3
4543,Left,1,60,80,1007.0,0.239583,Sixteenth,C4
4544,Left,1,58,80,1007.25,0.239583,Sixteenth,A#3
4545,Left,1,56,80,1007.5,0.239583,Sixteenth,G#3
4546,Left,1,55,80,1007.75,0.239583,Sixteenth,G3
4547,Left,1,53,80,1008.0,0.489583,Eighth,F3
4548,Right,0,82,80,1008.0,0.239583,Sixteenth,A#5
4549,Right,0,84,80,1008.25,0.239583,Sixteenth,C6
4550,Right,0,82,80,1008.5,0.239583,Sixteenth,A#5
4551,Left,1,56,80,1008.5,0.489583,Eighth,G#3
4552,Right,0,81,80,1008.75,0.239583,Sixteenth,A5
4554,Right,0,82,80,1009.0,0.239583,Sixteenth,A#5
4553,Left,1,50,80,1009.0,0.489583,Eighth,D3
4555,Right,0,84,80,1009.25,0.239583,Sixteenth,C6
4557,Right,0,86,80,1009.5,0.239583,Sixteenth,D6
4556,Left,1,53,80,1009.5,0.489583,Eighth,F3
4558,Right,0,87,80,1009.75,0.239583,Sixteenth,D#6
4559,Right,0,89,80,1010.0,0.239583,Sixteenth,F6
4560,Left,1,46,80,1010.0,0.489583,Eighth,A#2
4561,Right,0,86,80,1010.25,0.239583,Sixteenth,D6
4562,Right,0,82,80,1010.5,0.239583,Sixteenth,A#5
4563,Left,1,50,80,1010.5,0.489583,Eighth,D3
4564,Right,0,80,80,1010.75,0.239583,Sixteenth,G#5
4566,Left,1,51,80,1011.0,0.489583,Eighth,D#3
4565,Right,0,79,80,1011.0,0.989583,Quarter,G5
4567,Left,1,46,80,1011.5,0.489583,Eighth,A#2
4568,Left,1,43,80,1012.0,0.489583,Eighth,G2
4569,Right,0,63,80,1012.5,0.489583,Eighth,D#4
4570,Left,1,51,80,1012.5,0.489583,Eighth,D#3
4572,Right,0,58,80,1013.0,0.489583,Eighth,A#3
4571,Left,1,46,80,1013.0,0.489583,Eighth,A#2
4573,Left,1,55,80,1013.5,0.489583,Eighth,G3
4574,Right,0,67,80,1013.5,0.489583,Eighth,G4
4576,Left,1,51,80,1014.0,0.489583,Eighth,D#3
4575,Right,0,63,80,1014.0,0.489583,Eighth,D#4
4578,Left,1,58,80,1014.5,0.489583,Eighth,A#3
4577,Right,0,70,80,1014.5,0.489583,Eighth,A#4
4580,Left,1,55,80,1015.0,0.489583,Eighth,G3
4579,Right,0,67,80,1015.0,0.489583,Eighth,G4
4582,Left,1,63,80,1015.5,0.489583,Eighth,D#4
4581,Right,0,75,80,1015.5,0.489583,Eighth,D#5
4584,Right,0,70,80,1016.0,0.489583,Eighth,A#4
4583,Left,1,58,80,1016.0,0.489583,Eighth,A#3
4585,Right,0,79,80,1016.5,0.489583,Eighth,G5
4586,Left,1,67,80,1016.5,0.489583,Eighth,G4
4587,Right,0,75,80,1017.0,0.489583,Eighth,D#5
4588,Left,1,63,80,1017.0,0.489583,Eighth,D#4
4589,Left,1,70,80,1017.5,0.489583,Eighth,A#4
4590,Right,0,82,80,1017.5,0.489583,Eighth,A#5
4592,Right,0,79,80,1018.0,0.489583,Eighth,G5
4591,Left,1,67,80,1018.0,0.489583,Eighth,G4
4594,Right,0,87,80,1018.5,0.489583,Eighth,D#6
4593,Left,1,75,80,1018.5,0.489583,Eighth,D#5
4595,Right,0,74,110,1019.0,0.989583,Quarter,G#4_F4_D5
4598,Left,1,46,110,1019.0,0.989583,Quarter,A#3_A#2
4600,Right,0,63,110,1020.0,1.489583,DottedQuarter,G4_D#5_D#4
4603,Left,1,51,110,1020.0,1.489583,DottedQuarter,D#3_D#2
4605,Right,0,63,1,1023.0,0.989583,Quarter,D#4
