,hand,channel,note,velocity,start_beat,duration,note_value,chord
0,Right,0,60,80,0.0,1.489583,DottedQuarter,G#3_D#3_C4
3,Left,1,32,80,0.25,0.239583,Sixteenth,G#1
4,Left,1,36,80,0.5,0.239583,Sixteenth,C2
5,Left,1,39,80,0.75,0.239583,Sixteenth,D#2
6,Left,1,44,80,1.0,0.239583,Sixteenth,G#2
7,Left,1,32,80,1.25,0.239583,Sixteenth,G#1
8,Right,0,55,104,1.5,0.489583,Eighth,G3_D#3_C#4
11,Left,1,34,80,1.5,0.239583,Sixteenth,A#1
12,Left,1,46,80,1.75,0.239583,Sixteenth,A#2
13,Right,0,56,80,2.0,1.489583,DottedQuarter,G#3_D#4_D#3
16,Left,1,36,80,2.25,0.239583,Sixteenth,C2
17,Left,1,39,80,2.5,0.239583,Sixteenth,D#2
18,Left,1,44,80,2.75,0.239583,Sixteenth,G#2
19,Left,1,48,80,3.0,0.239583,Sixteenth,C3
20,Left,1,36,80,3.25,0.239583,Sixteenth,C2
23,Left,1,37,80,3.5,0.239583,Sixteenth,C#2
21,Right,0,65,100,3.5,0.989583,Eighth,F4_F3
24,Left,1,49,80,3.75,0.239583,Sixteenth,C#3
26,Left,1,34,80,4.0,0.239583,Sixteenth,A#1
25,Right,0,61,80,4.0,0.489583,Eighth,C#4
27,Left,1,46,80,4.25,0.239583,Sixteenth,A#2
28,Left,1,31,80,4.5,0.239583,Sixteenth,G1
29,Right,0,58,80,4.5,0.489583,Eighth,D#4_A#3
31,Left,1,43,80,4.75,0.239583,Sixteenth,G2
32,Left,1,32,80,5.0,0.239583,Sixteenth,G#1
33,Right,0,60,80,5.0,0.489583,Eighth,D#3_C4
35,Left,1,44,80,5.25,0.239583,Sixteenth,G#2
36,Right,0,56,80,5.5,0.489583,Eighth,G#3_D#3
37,Left,1,36,80,5.5,0.239583,Sixteenth,C2
39,Left,1,48,80,5.75,0.239583,Sixteenth,C3
42,Left,1,39,80,6.0,0.239583,Sixteenth,D#2
40,Right,0,55,80,6.0,1.239583,TiedQuarter-Sixteenth,G3_A#3
43,Left,1,51,80,6.25,0.239583,Sixteenth,D#3
44,Left,1,51,80,6.5,0.239583,Sixteenth,D#3
45,Left,1,51,80,6.75,0.239583,Sixteenth,D#3
46,Left,1,51,80,7.0,0.239583,Sixteenth,D#3
47,Right,0,55,80,7.25,0.239583,Sixteenth,G3_D#3
49,Left,1,49,80,7.25,0.239583,Sixteenth,C#3
50,Right,0,53,80,7.5,0.239583,Sixteenth,G#3_F3
51,Left,1,48,80,7.5,0.239583,Sixteenth,C3
54,Left,1,46,80,7.75,0.239583,Sixteenth,A#2
53,Right,0,58,80,7.75,0.239583,Sixteenth,G3_A#3
57,Left,1,44,80,8.0,0.239583,Sixteenth,G#2
56,Right,0,60,80,8.0,1.489583,DottedQuarter,G#3_D#3_C4
60,Left,1,32,80,8.25,0.239583,Sixteenth,G#1
61,Left,1,36,80,8.5,0.239583,Sixteenth,C2
62,Left,1,39,80,8.75,0.239583,Sixteenth,D#2
63,Left,1,44,80,9.0,0.239583,Sixteenth,G#2
64,Left,1,32,80,9.25,0.239583,Sixteenth,G#1
68,Left,1,34,80,9.5,0.239583,Sixteenth,A#1
65,Right,0,61,100,9.5,0.489583,Eighth,G3_D#3_C#4
69,Left,1,46,80,9.75,0.239583,Sixteenth,A#2
70,Right,0,51,80,10.0,1.489583,DottedQuarter,G#3_D#4_D#3
73,Left,1,36,80,10.25,0.239583,Sixteenth,C2
74,Left,1,39,80,10.5,0.239583,Sixteenth,D#2
75,Left,1,44,80,10.75,0.239583,Sixteenth,G#2
76,Left,1,48,80,11.0,0.239583,Sixteenth,C3
77,Left,1,36,80,11.25,0.239583,Sixteenth,C2
78,Left,1,37,80,11.5,0.239583,Sixteenth,C#2
79,Right,0,65,100,11.5,0.989583,Eighth,F4_F3
81,Left,1,49,80,11.75,0.239583,Sixteenth,C#3
83,Right,0,61,80,12.0,0.489583,Eighth,C#4
82,Left,1,34,80,12.0,0.239583,Sixteenth,A#1
84,Left,1,46,80,12.25,0.239583,Sixteenth,A#2
87,Left,1,31,80,12.5,0.239583,Sixteenth,G1
85,Right,0,63,80,12.5,0.489583,Eighth,D#4_A#3
88,Left,1,43,80,12.75,0.239583,Sixteenth,G2
89,Right,0,51,80,13.0,0.489583,Eighth,D#3_C4
91,Left,1,32,80,13.0,0.239583,Sixteenth,G#1
92,Left,1,44,80,13.25,0.239583,Sixteenth,G#2
93,Right,0,56,80,13.5,0.489583,Eighth,G#3_D#3
94,Left,1,36,80,13.5,0.239583,Sixteenth,C2
96,Left,1,48,80,13.75,0.239583,Sixteenth,C3
97,Right,0,58,80,14.0,1.489583,Quarter,D#3_C#3_A#3
100,Left,1,39,80,14.0,0.239583,Sixteenth,D#2
101,Left,1,39,80,14.25,0.239583,Sixteenth,D#2
102,Left,1,43,80,14.5,0.239583,Sixteenth,G2
103,Left,1,39,80,14.75,0.239583,Sixteenth,D#2
104,Left,1,44,80,15.0,0.489583,Eighth,G#2_G#1
106,Right,0,48,80,15.0,0.489583,Eighth,G#3_C3
109,Right,0,72,80,15.5,0.489583,Eighth,G#5_C5
108,Left,1,68,80,15.5,0.489583,Eighth,G#4_G#3
113,Right,0,73,80,16.0,0.989583,Quarter,C#5_A#5
112,Left,1,63,80,16.0,0.989583,Quarter,G4_D#4
116,Left,1,68,80,17.0,0.489583,Eighth,G#4_G#3
118,Right,0,72,80,17.0,0.489583,Eighth,G#5_C5
121,Right,0,72,70,17.5,0.489583,Eighth,C5
120,Left,1,60,70,17.5,0.489583,Eighth,C4
123,Right,0,70,70,18.0,0.864583,DottedEighth,A#4
122,Left,1,58,70,18.0,0.864583,DottedEighth,A#3
125,Left,1,56,70,18.875,0.114583,ThirtySecond,G#3
124,Right,0,68,70,18.875,0.114583,ThirtySecond,G#4
126,Left,1,55,70,19.0,0.364583,DottedSixteenth,G3
127,Right,0,67,70,19.0,0.364583,DottedSixteenth,G4
128,Right,0,65,70,19.5,0.364583,DottedSixteenth,F4
129,Left,1,53,70,19.5,0.364583,DottedSixteenth,F3
130,Right,0,64,70,20.0,0.989583,Quarter,E4
131,Left,1,52,70,20.0,0.989583,Quarter,E3
133,Left,1,53,70,21.5,0.239583,Sixteenth,F3
132,Right,0,65,70,21.5,0.239583,Sixteenth,F4
134,Right,0,67,70,21.625,0.239583,Sixteenth,G4
135,Left,1,55,70,21.625,0.239583,Sixteenth,G3
137,Left,1,52,70,21.75,0.239583,Sixteenth,E3
136,Right,0,64,70,21.75,0.239583,Sixteenth,E4
138,Right,0,65,70,21.875,0.114583,ThirtySecond,F4
139,Left,1,53,70,21.875,0.114583,ThirtySecond,F3
141,Left,1,55,70,22.0,0.864583,DottedEighth,G3
140,Right,0,67,70,22.0,0.864583,DottedEighth,G4
143,Left,1,53,70,22.875,0.114583,ThirtySecond,F3
142,Right,0,65,70,22.875,0.114583,ThirtySecond,F4
144,Right,0,64,70,23.0,0.489583,Eighth,E4
145,Left,1,52,70,23.0,0.489583,Eighth,E3
147,Right,0,62,70,23.5,0.364583,DottedSixteenth,D4
146,Left,1,50,70,23.5,0.364583,DottedSixteenth,D3
148,Left,1,48,70,24.0,0.989583,Quarter,C3
149,Right,0,60,70,24.0,0.989583,Quarter,C4
150,Right,0,60,70,25.875,0.114583,ThirtySecond,C4
151,Left,1,48,70,25.875,0.114583,ThirtySecond,C3
153,Left,1,48,70,26.0,0.489583,Eighth,C3
152,Right,0,60,70,26.0,0.489583,Eighth,C4
154,Right,0,60,70,26.875,0.114583,ThirtySecond,C4
155,Left,1,48,70,26.875,0.114583,ThirtySecond,C3
156,Left,1,48,70,27.0,0.489583,Eighth,C3
157,Right,0,60,70,27.0,0.489583,Eighth,C4
159,Left,1,48,70,27.875,0.114583,ThirtySecond,C3
158,Right,0,60,70,27.875,0.114583,ThirtySecond,C4
161,Left,1,48,70,28.0,0.989583,Quarter,C3
160,Right,0,60,70,28.0,0.989583,Quarter,C4
162,Left,1,49,70,29.875,0.114583,ThirtySecond,C#3
163,Right,0,61,70,29.875,0.114583,ThirtySecond,C#4
165,Left,1,49,71,30.0,0.489583,Eighth,C#3
164,Right,0,61,71,30.0,0.489583,Eighth,C#4
166,Left,1,49,79,30.875,0.114583,ThirtySecond,C#3
167,Right,0,61,79,30.875,0.114583,ThirtySecond,C#4
169,Right,0,61,81,31.0,0.489583,Eighth,C#4
168,Left,1,49,81,31.0,0.489583,Eighth,C#3
171,Left,1,49,89,31.875,0.114583,ThirtySecond,C#3
170,Right,0,61,89,31.875,0.114583,ThirtySecond,C#4
173,Right,0,61,91,32.0,0.989583,Quarter,C#4
172,Left,1,49,91,32.0,0.989583,Quarter,C#3
175,Right,0,61,109,33.875,0.114583,ThirtySecond,C#4
174,Left,1,49,109,33.875,0.114583,ThirtySecond,C#3
177,Right,0,61,110,34.0,0.989583,Quarter,C#4
176,Left,1,49,110,34.0,0.989583,Quarter,C#3
179,Left,1,46,110,35.0,0.489583,Eighth,A#2
178,Right,0,58,110,35.0,0.489583,Eighth,A#3
181,Right,0,55,110,35.5,0.489583,Eighth,G3
180,Left,1,43,110,35.5,0.489583,Eighth,G2
182,Right,0,51,110,36.0,3.489583,DottedHalf,D#3
183,Left,1,39,110,36.0,3.489583,DottedHalf,D#2
184,Right,0,51,80,39.5,0.083333,TripletThirtySecond,D#3
185,Right,0,53,80,39.59375,0.083333,TripletThirtySecond,F3
186,Right,0,55,80,39.6875,0.083333,TripletThirtySecond,G3
187,Right,0,56,80,39.770833,0.083333,TripletThirtySecond,G#3
188,Right,0,58,80,39.875,0.083333,TripletThirtySecond,A#3
189,Right,0,60,80,40.0,1.489583,DottedQuarter,C4
190,Left,1,32,80,40.25,0.239583,Sixteenth,G#1
191,Left,1,36,80,40.5,0.239583,Sixteenth,C2
192,Left,1,39,80,40.75,0.239583,Sixteenth,D#2
193,Left,1,44,80,41.0,0.239583,Sixteenth,G#2
194,Left,1,32,80,41.25,0.239583,Sixteenth,G#1
195,Left,1,34,80,41.5,0.239583,Sixteenth,A#1
196,Right,0,51,100,41.5,0.489583,Eighth,G3_D#3_C#4
199,Left,1,46,80,41.75,0.239583,Sixteenth,A#2
200,Right,0,51,80,42.0,1.489583,DottedQuarter,G#3_D#4_D#3
203,Left,1,36,80,42.25,0.239583,Sixteenth,C2
204,Left,1,39,80,42.5,0.239583,Sixteenth,D#2
205,Left,1,44,80,42.75,0.239583,Sixteenth,G#2
206,Left,1,48,80,43.0,0.239583,Sixteenth,C3
207,Left,1,36,80,43.25,0.239583,Sixteenth,C2
208,Left,1,37,80,43.5,0.239583,Sixteenth,C#2
209,Right,0,53,90,43.5,0.989583,Quarter,F4_F3
211,Left,1,49,80,43.75,0.239583,Sixteenth,C#3
213,Left,1,34,80,44.0,0.239583,Sixteenth,A#1
212,Right,0,61,80,44.0,0.489583,Eighth,C#4
214,Left,1,46,80,44.25,0.239583,Sixteenth,A#2
215,Right,0,58,80,44.5,0.489583,Eighth,D#4_A#3
216,Left,1,31,80,44.5,0.239583,Sixteenth,G1
218,Left,1,43,80,44.75,0.239583,Sixteenth,G2
219,Right,0,51,80,45.0,0.489583,Eighth,D#3_C4
220,Left,1,32,80,45.0,0.239583,Sixteenth,G#1
222,Left,1,44,80,45.25,0.239583,Sixteenth,G#2
225,Left,1,36,80,45.5,0.239583,Sixteenth,C2
223,Right,0,51,80,45.5,0.489583,Eighth,G#3_D#3
226,Left,1,48,80,45.75,0.239583,Sixteenth,C3
227,Right,0,58,80,46.0,1.239583,TiedQuarter-Sixteenth,G3_A#3
229,Left,1,39,80,46.0,0.239583,Sixteenth,D#2
230,Left,1,51,80,46.25,0.239583,Sixteenth,D#3
231,Left,1,51,80,46.5,0.239583,Sixteenth,D#3
232,Left,1,51,80,46.75,0.239583,Sixteenth,D#3
233,Left,1,51,80,47.0,0.239583,Sixteenth,D#3
234,Right,0,55,80,47.25,0.239583,Sixteenth,G3_D#3
236,Left,1,49,80,47.25,0.239583,Sixteenth,C#3
237,Right,0,53,80,47.5,0.239583,Sixteenth,G#3_F3
239,Left,1,48,80,47.5,0.239583,Sixteenth,C3
240,Right,0,55,80,47.75,0.239583,Sixteenth,G3_A#3
242,Left,1,46,80,47.75,0.239583,Sixteenth,A#2
246,Left,1,44,80,48.0,0.239583,Sixteenth,G#2
243,Right,0,56,80,48.0,1.489583,DottedQuarter,G#3_D#3_C4
247,Left,1,32,80,48.25,0.239583,Sixteenth,G#1
248,Left,1,36,80,48.5,0.239583,Sixteenth,C2
249,Left,1,39,80,48.75,0.239583,Sixteenth,D#2
250,Left,1,44,80,49.0,0.239583,Sixteenth,G#2
251,Left,1,32,80,49.25,0.239583,Sixteenth,G#1
252,Left,1,34,80,49.5,0.239583,Sixteenth,A#1
253,Right,0,61,95,49.5,0.489583,Eighth,G3_D#3_C#4
256,Left,1,46,80,49.75,0.239583,Sixteenth,A#2
257,Right,0,56,80,50.0,1.489583,DottedQuarter,G#3_D#4_D#3
260,Left,1,36,80,50.25,0.239583,Sixteenth,C2
261,Left,1,39,80,50.5,0.239583,Sixteenth,D#2
262,Left,1,44,80,50.75,0.239583,Sixteenth,G#2
263,Left,1,48,80,51.0,0.239583,Sixteenth,C3
264,Left,1,36,80,51.25,0.239583,Sixteenth,C2
267,Left,1,37,80,51.5,0.239583,Sixteenth,C#2
265,Right,0,65,95,51.5,0.989583,Eighth,F4_F3
268,Left,1,49,80,51.75,0.239583,Sixteenth,C#3
269,Right,0,61,80,52.0,0.489583,Eighth,C#4
270,Left,1,34,80,52.0,0.239583,Sixteenth,A#1
271,Left,1,46,80,52.25,0.239583,Sixteenth,A#2
274,Left,1,31,80,52.5,0.239583,Sixteenth,G1
272,Right,0,58,80,52.5,0.489583,Eighth,D#4_A#3
275,Left,1,43,80,52.75,0.239583,Sixteenth,G2
276,Right,0,51,80,53.0,0.489583,Eighth,D#3_C4
278,Left,1,32,80,53.0,0.239583,Sixteenth,G#1
279,Left,1,44,80,53.25,0.239583,Sixteenth,G#2
280,Right,0,56,80,53.5,0.489583,Eighth,G#3_D#3
281,Left,1,36,80,53.5,0.239583,Sixteenth,C2
283,Left,1,48,80,53.75,0.239583,Sixteenth,C3
284,Left,1,39,80,54.0,0.239583,Sixteenth,D#2
285,Right,0,58,80,54.0,1.489583,Quarter,D#3_C#3_A#3
288,Left,1,39,80,54.25,0.239583,Sixteenth,D#2
289,Left,1,43,80,54.5,0.239583,Sixteenth,G2
290,Left,1,39,80,54.75,0.239583,Sixteenth,D#2
293,Right,0,56,80,55.0,0.489583,Eighth,G#3_C3
291,Left,1,44,80,55.0,0.489583,Eighth,G#2_G#1
296,Left,1,68,80,55.5,0.489583,Eighth,G#4_G#3
295,Right,0,80,80,55.5,0.489583,Eighth,G#5_C5
300,Right,0,73,80,56.0,0.989583,Quarter,C#5_A#5
299,Left,1,67,80,56.0,0.989583,Quarter,G4_D#4
303,Right,0,80,80,57.0,0.489583,Eighth,G#5_C5
305,Left,1,68,80,57.0,0.489583,Eighth,G#4_G#3
307,Left,1,72,70,57.5,0.489583,Eighth,C5
308,Right,0,84,70,57.5,0.489583,Eighth,C6
309,Left,1,70,70,58.0,0.864583,DottedEighth,A#4
310,Right,0,82,70,58.0,0.864583,DottedEighth,A#5
311,Left,1,68,70,58.875,0.114583,ThirtySecond,G#4
312,Right,0,80,70,58.875,0.114583,ThirtySecond,G#5
314,Right,0,79,70,59.0,0.364583,DottedSixteenth,G5
313,Left,1,67,70,59.0,0.364583,DottedSixteenth,G4
315,Right,0,77,70,59.5,0.364583,DottedSixteenth,F5
316,Left,1,65,70,59.5,0.364583,DottedSixteenth,F4
318,Left,1,64,70,60.0,0.989583,Quarter,E4
317,Right,0,76,70,60.0,0.989583,Quarter,E5
319,Left,1,65,70,61.5,0.239583,Sixteenth,F4
320,Right,0,77,70,61.5,0.239583,Sixteenth,F5
321,Right,0,79,70,61.625,0.239583,Sixteenth,G5
322,Left,1,67,70,61.625,0.239583,Sixteenth,G4
324,Right,0,76,70,61.75,0.239583,Sixteenth,E5
323,Left,1,64,70,61.75,0.239583,Sixteenth,E4
325,Left,1,65,70,61.875,0.114583,ThirtySecond,F4
326,Right,0,77,70,61.875,0.114583,ThirtySecond,F5
328,Right,0,79,70,62.0,0.864583,DottedEighth,G5
327,Left,1,67,70,62.0,0.864583,DottedEighth,G4
329,Right,0,77,70,62.875,0.114583,ThirtySecond,F5
330,Left,1,65,70,62.875,0.114583,ThirtySecond,F4
331,Right,0,76,70,63.0,0.489583,Eighth,E5
332,Left,1,64,70,63.0,0.489583,Eighth,E4
333,Right,0,74,70,63.5,0.364583,DottedSixteenth,D5
334,Left,1,62,70,63.5,0.364583,DottedSixteenth,D4
336,Right,0,72,70,64.0,0.989583,Quarter,C5
335,Left,1,60,70,64.0,0.989583,Quarter,C4
338,Left,1,60,70,65.875,0.114583,ThirtySecond,C4
337,Right,0,72,70,65.875,0.114583,ThirtySecond,C5
340,Right,0,72,70,66.0,0.489583,Eighth,C5
339,Left,1,60,70,66.0,0.489583,Eighth,C4
342,Left,1,60,70,66.875,0.114583,ThirtySecond,C4
341,Right,0,72,70,66.875,0.114583,ThirtySecond,C5
344,Left,1,60,70,67.0,0.489583,Eighth,C4
343,Right,0,72,70,67.0,0.489583,Eighth,C5
346,Left,1,60,70,67.875,0.114583,ThirtySecond,C4
345,Right,0,72,70,67.875,0.114583,ThirtySecond,C5
347,Right,0,72,70,68.0,0.989583,Quarter,C5
348,Left,1,60,70,68.0,0.989583,Quarter,C4
352,Left,1,41,120,69.875,0.114583,ThirtySecond,F3_F2_C3_A2
349,Right,0,81,120,69.875,0.114583,ThirtySecond,F6_F5_C6_A5
358,Left,1,48,120,70.0,0.489583,Eighth,F3_F2_C3_A2
357,Right,0,89,120,70.0,0.489583,Eighth,F6_F5_C6_A5
365,Right,0,65,80,70.5,0.239583,Sixteenth,F4
366,Left,1,57,80,70.5,0.239583,Sixteenth,A3
368,Right,0,69,80,70.75,0.239583,Sixteenth,A4
367,Left,1,60,80,70.75,0.239583,Sixteenth,C4
369,Left,1,58,80,71.0,0.239583,Sixteenth,A#3
370,Right,0,67,80,71.0,0.239583,Sixteenth,G4
371,Left,1,61,80,71.25,0.239583,Sixteenth,C#4
372,Right,0,70,80,71.25,0.239583,Sixteenth,A#4
373,Left,1,55,80,71.5,0.239583,Sixteenth,G3
374,Right,0,64,80,71.5,0.239583,Sixteenth,E4
376,Left,1,58,80,71.75,0.239583,Sixteenth,A#3
375,Right,0,67,80,71.75,0.239583,Sixteenth,G4
377,Left,1,57,80,72.0,0.239583,Sixteenth,A3
378,Right,0,65,80,72.0,0.239583,Sixteenth,F4
380,Right,0,69,80,72.25,0.239583,Sixteenth,A4
379,Left,1,60,80,72.25,0.239583,Sixteenth,C4
381,Left,1,57,80,72.5,0.239583,Sixteenth,A3
382,Right,0,65,80,72.5,0.239583,Sixteenth,F4
384,Right,0,69,80,72.75,0.239583,Sixteenth,A4
383,Left,1,60,80,72.75,0.239583,Sixteenth,C4
385,Right,0,67,80,73.0,0.239583,Sixteenth,G4
386,Left,1,58,80,73.0,0.239583,Sixteenth,A#3
388,Right,0,70,80,73.25,0.239583,Sixteenth,A#4
387,Left,1,61,80,73.25,0.239583,Sixteenth,C#4
390,Right,0,64,80,73.5,0.239583,Sixteenth,E4
389,Left,1,55,80,73.5,0.239583,Sixteenth,G3
391,Right,0,67,80,73.75,0.239583,Sixteenth,G4
392,Left,1,58,80,73.75,0.239583,Sixteenth,A#3
393,Left,1,57,80,74.0,0.239583,Sixteenth,A3
394,Right,0,65,80,74.0,0.239583,Sixteenth,F4
395,Left,1,60,80,74.25,0.239583,Sixteenth,C4
396,Right,0,69,80,74.25,0.239583,Sixteenth,A4
397,Left,1,63,80,74.5,0.239583,Sixteenth,D#4
398,Right,0,72,80,74.5,0.239583,Sixteenth,C5
400,Left,1,60,80,74.75,0.239583,Sixteenth,C4
399,Right,0,69,80,74.75,0.239583,Sixteenth,A4
402,Left,1,60,80,75.0,0.239583,Sixteenth,C4
401,Right,0,69,80,75.0,0.239583,Sixteenth,A4
404,Left,1,63,80,75.25,0.239583,Sixteenth,D#4
403,Right,0,72,80,75.25,0.239583,Sixteenth,C5
406,Left,1,66,80,75.5,0.239583,Sixteenth,F#4
405,Right,0,75,80,75.5,0.239583,Sixteenth,D#5
407,Right,0,72,80,75.75,0.239583,Sixteenth,C5
408,Left,1,63,80,75.75,0.239583,Sixteenth,D#4
409,Right,0,72,80,76.0,0.239583,Sixteenth,C5
410,Left,1,63,80,76.0,0.239583,Sixteenth,D#4
412,Left,1,66,80,76.25,0.239583,Sixteenth,F#4
411,Right,0,75,80,76.25,0.239583,Sixteenth,D#5
414,Left,1,69,80,76.5,0.239583,Sixteenth,A4
413,Right,0,78,80,76.5,0.239583,Sixteenth,F#5
415,Right,0,75,80,76.75,0.239583,Sixteenth,D#5
416,Left,1,66,80,76.75,0.239583,Sixteenth,F#4
417,Right,0,73,80,77.0,0.239583,Sixteenth,C#5
418,Left,1,65,80,77.0,0.239583,Sixteenth,F4
419,Left,1,69,80,77.25,0.239583,Sixteenth,A4
420,Right,0,77,80,77.25,0.239583,Sixteenth,F5
422,Left,1,63,80,77.5,0.239583,Sixteenth,D#4
421,Right,0,72,80,77.5,0.239583,Sixteenth,C5
424,Right,0,77,80,77.75,0.239583,Sixteenth,F5
423,Left,1,69,80,77.75,0.239583,Sixteenth,A4
428,Left,1,58,120,78.0,0.489583,Eighth,F3_D3_A#3_A#2
425,Right,0,77,120,78.0,0.489583,Eighth,F5_D5_A#5_A#4
434,Right,0,70,80,78.5,0.239583,Sixteenth,A#4
433,Left,1,62,80,78.5,0.239583,Sixteenth,D4
436,Left,1,65,80,78.75,0.239583,Sixteenth,F4
435,Right,0,74,80,78.75,0.239583,Sixteenth,D5
437,Right,0,72,80,79.0,0.239583,Sixteenth,C5
438,Left,1,63,80,79.0,0.239583,Sixteenth,D#4
439,Right,0,75,80,79.25,0.239583,Sixteenth,D#5
440,Left,1,66,80,79.25,0.239583,Sixteenth,F#4
441,Right,0,69,80,79.5,0.239583,Sixteenth,A4
442,Left,1,60,80,79.5,0.239583,Sixteenth,C4
443,Left,1,63,80,79.75,0.239583,Sixteenth,D#4
444,Right,0,72,80,79.75,0.239583,Sixteenth,C5
445,Right,0,70,80,80.0,0.239583,Sixteenth,A#4
446,Left,1,62,80,80.0,0.239583,Sixteenth,D4
448,Left,1,65,80,80.25,0.239583,Sixteenth,F4
447,Right,0,74,80,80.25,0.239583,Sixteenth,D5
450,Left,1,62,80,80.5,0.239583,Sixteenth,D4
449,Right,0,70,80,80.5,0.239583,Sixteenth,A#4
452,Right,0,74,80,80.75,0.239583,Sixteenth,D5
451,Left,1,65,80,80.75,0.239583,Sixteenth,F4
454,Left,1,63,80,81.0,0.239583,Sixteenth,D#4
453,Right,0,72,80,81.0,0.239583,Sixteenth,C5
456,Left,1,66,80,81.25,0.239583,Sixteenth,F#4
455,Right,0,75,80,81.25,0.239583,Sixteenth,D#5
458,Left,1,60,80,81.5,0.239583,Sixteenth,C4
457,Right,0,69,80,81.5,0.239583,Sixteenth,A4
460,Left,1,63,80,81.75,0.239583,Sixteenth,D#4
459,Right,0,72,80,81.75,0.239583,Sixteenth,C5
462,Left,1,62,80,82.0,0.239583,Sixteenth,D4
461,Right,0,70,80,82.0,0.239583,Sixteenth,A#4
464,Left,1,65,80,82.25,0.239583,Sixteenth,F4
463,Right,0,74,80,82.25,0.239583,Sixteenth,D5
465,Right,0,77,80,82.5,0.239583,Sixteenth,F5
466,Left,1,68,80,82.5,0.239583,Sixteenth,G#4
468,Left,1,65,80,82.75,0.239583,Sixteenth,F4
467,Right,0,74,80,82.75,0.239583,Sixteenth,D5
470,Left,1,65,80,83.0,0.239583,Sixteenth,F4
469,Right,0,74,80,83.0,0.239583,Sixteenth,D5
472,Left,1,68,80,83.25,0.239583,Sixteenth,G#4
471,Right,0,77,80,83.25,0.239583,Sixteenth,F5
473,Right,0,80,80,83.5,0.239583,Sixteenth,G#5
474,Left,1,71,80,83.5,0.239583,Sixteenth,B4
475,Right,0,77,80,83.75,0.239583,Sixteenth,F5
476,Left,1,68,80,83.75,0.239583,Sixteenth,G#4
477,Right,0,77,80,84.0,0.239583,Sixteenth,F5
478,Left,1,68,80,84.0,0.239583,Sixteenth,G#4
480,Left,1,71,80,84.25,0.239583,Sixteenth,B4
479,Right,0,80,80,84.25,0.239583,Sixteenth,G#5
482,Left,1,74,80,84.5,0.239583,Sixteenth,D5
481,Right,0,83,80,84.5,0.239583,Sixteenth,B5
484,Left,1,71,80,84.75,0.239583,Sixteenth,B4
483,Right,0,80,80,84.75,0.239583,Sixteenth,G#5
486,Left,1,74,80,85.0,0.239583,Sixteenth,D5
485,Right,0,83,80,85.0,0.239583,Sixteenth,B5
488,Left,1,77,80,85.25,0.239583,Sixteenth,F5
487,Right,0,86,80,85.25,0.239583,Sixteenth,D6
490,Right,0,89,80,85.5,0.239583,Sixteenth,F6
489,Left,1,80,80,85.5,0.239583,Sixteenth,G#5
491,Right,0,86,80,85.75,0.239583,Sixteenth,D6
492,Left,1,71,80,85.875,0.114583,ThirtySecond,G#4_B4
495,Right,0,89,80,86.0,0.239583,Sixteenth,F6
494,Left,1,68,80,86.0,0.489583,Eighth,G#4_B4
497,Right,0,86,81,86.25,0.239583,Sixteenth,D6
498,Right,0,89,83,86.5,0.239583,Sixteenth,F6
499,Right,0,86,85,86.75,0.239583,Sixteenth,D6
500,Left,1,71,86,86.875,0.114583,ThirtySecond,G#4_B4
504,Right,0,89,87,87.0,0.239583,Sixteenth,F6
502,Left,1,71,87,87.0,0.489583,Eighth,G#4_B4
505,Right,0,86,89,87.25,0.239583,Sixteenth,D6
506,Right,0,89,90,87.5,0.239583,Sixteenth,F6
507,Right,0,86,92,87.75,0.239583,Sixteenth,D6
508,Left,1,71,93,87.875,0.114583,ThirtySecond,G#4_B4
512,Right,0,89,94,88.0,0.239583,Sixteenth,F6
510,Left,1,71,94,88.0,0.489583,Eighth,G#4_B4
513,Right,0,86,96,88.25,0.239583,Sixteenth,D6
514,Right,0,89,98,88.5,0.239583,Sixteenth,F6
515,Right,0,86,99,88.75,0.239583,Sixteenth,D6
516,Left,1,71,80,88.875,0.114583,ThirtySecond,G#4_B4
520,Right,0,87,95,89.0,0.239583,Sixteenth,D#6
518,Left,1,70,95,89.0,0.489583,Eighth,G4_A#4
521,Right,0,82,91,89.25,0.239583,Sixteenth,A#5
522,Right,0,79,86,89.5,0.239583,Sixteenth,G5
523,Right,0,75,81,89.75,0.239583,Sixteenth,D#5
524,Left,1,67,80,89.875,0.114583,ThirtySecond,G4_A#4
526,Right,0,74,80,90.0,0.239583,Sixteenth,D5
527,Left,1,68,80,90.0,0.489583,Eighth,G#4_B4
529,Right,0,86,81,90.25,0.239583,Sixteenth,D6
530,Right,0,89,83,90.5,0.239583,Sixteenth,F6
531,Right,0,86,85,90.75,0.239583,Sixteenth,D6
532,Left,1,71,86,90.875,0.114583,ThirtySecond,G#4_B4
534,Left,1,71,87,91.0,0.489583,Eighth,G#4_B4
535,Right,0,89,87,91.0,0.239583,Sixteenth,F6
537,Right,0,86,89,91.25,0.239583,Sixteenth,D6
538,Right,0,89,90,91.5,0.239583,Sixteenth,F6
539,Right,0,86,92,91.75,0.239583,Sixteenth,D6
540,Left,1,71,93,91.875,0.114583,ThirtySecond,G#4_B4
542,Right,0,89,94,92.0,0.239583,Sixteenth,F6
543,Left,1,68,94,92.0,0.489583,Eighth,G#4_B4
545,Right,0,86,96,92.25,0.239583,Sixteenth,D6
546,Right,0,89,98,92.5,0.239583,Sixteenth,F6
547,Right,0,86,99,92.75,0.239583,Sixteenth,D6
548,Left,1,68,80,92.875,0.114583,ThirtySecond,G#4_B4
552,Right,0,87,95,93.0,0.239583,Sixteenth,D#6
550,Left,1,70,95,93.0,0.489583,Eighth,G4_A#4
553,Right,0,82,91,93.25,0.239583,Sixteenth,A#5
554,Right,0,79,86,93.5,0.239583,Sixteenth,G5
555,Right,0,75,81,93.75,0.239583,Sixteenth,D#5
556,Left,1,70,80,93.875,0.114583,ThirtySecond,G4_A#4
560,Right,0,74,80,94.0,0.239583,Sixteenth,D5
558,Left,1,71,80,94.0,0.489583,Eighth,G#4_B4
561,Right,0,86,80,94.25,0.239583,Sixteenth,D6
562,Right,0,89,80,94.5,0.239583,Sixteenth,F6
563,Right,0,86,80,94.75,0.239583,Sixteenth,D6
564,Left,1,68,80,94.875,0.114583,ThirtySecond,G#4_B4
566,Right,0,87,80,95.0,0.239583,Sixteenth,D#6
567,Left,1,67,80,95.0,0.489583,Eighth,G4_A#4
569,Right,0,82,80,95.25,0.239583,Sixteenth,A#5
570,Right,0,79,80,95.5,0.239583,Sixteenth,G5
571,Right,0,75,80,95.75,0.239583,Sixteenth,D#5
572,Left,1,67,80,95.875,0.114583,ThirtySecond,G4_A#4
574,Left,1,71,80,96.0,0.489583,Eighth,G#4_B4
575,Right,0,74,80,96.0,0.239583,Sixteenth,D5
577,Right,0,86,80,96.25,0.239583,Sixteenth,D6
578,Right,0,89,80,96.5,0.239583,Sixteenth,F6
579,Right,0,86,80,96.75,0.239583,Sixteenth,D6
580,Left,1,68,80,96.875,0.114583,ThirtySecond,G#4_B4
582,Left,1,67,80,97.0,0.489583,Eighth,G4_A#4
584,Right,0,87,80,97.0,0.239583,Sixteenth,D#6
585,Right,0,82,80,97.25,0.239583,Sixteenth,A#5
586,Right,0,79,80,97.5,0.239583,Sixteenth,G5
587,Right,0,75,80,97.75,0.239583,Sixteenth,D#5
588,Left,1,55,80,97.875,0.114583,ThirtySecond,G3
590,Right,0,72,80,98.0,0.239583,Sixteenth,C5
589,Left,1,56,80,98.0,0.489583,Eighth,G#3
591,Right,0,68,80,98.25,0.239583,Sixteenth,G#4
592,Right,0,63,80,98.5,0.239583,Sixteenth,D#4
593,Right,0,60,80,98.75,0.239583,Sixteenth,C4
594,Left,1,44,80,98.875,0.114583,ThirtySecond,G#2
596,Left,1,46,80,99.0,0.489583,Eighth,A#2
595,Right,0,58,80,99.0,0.239583,Sixteenth,A#3
597,Right,0,53,80,99.25,0.239583,Sixteenth,F3
598,Right,0,50,80,99.5,0.239583,Sixteenth,D3
599,Right,0,46,80,99.75,0.239583,Sixteenth,A#2
600,Left,1,34,80,99.875,0.114583,ThirtySecond,A#1
601,Right,0,51,80,100.0,0.489583,Eighth,D#3
602,Left,1,39,70,100.0,0.239583,Sixteenth,D#2
603,Left,1,46,70,100.25,0.239583,Sixteenth,D#3_A#2
605,Left,1,51,70,100.5,0.239583,Sixteenth,G3_D#3
608,Left,1,51,70,100.75,0.239583,Sixteenth,D#3_A#2
607,Right,0,70,80,100.75,0.239583,Sixteenth,A#4
610,Right,0,67,80,101.0,0.489583,Eighth,G4
611,Left,1,51,70,101.0,0.239583,Sixteenth,G3_D#3
613,Left,1,46,70,101.25,0.239583,Sixteenth,D#3_A#2
615,Left,1,51,70,101.5,0.239583,Sixteenth,G3_D#3
619,Right,0,75,80,101.75,0.239583,Sixteenth,D#5
617,Left,1,46,70,101.75,0.239583,Sixteenth,D#3_A#2
620,Left,1,55,70,102.0,0.239583,Sixteenth,G3_D#3
622,Right,0,70,80,102.0,0.489583,Eighth,A#4
623,Left,1,51,70,102.25,0.239583,Sixteenth,D#3_A#2
625,Left,1,55,70,102.5,0.239583,Sixteenth,G3_D#3
628,Left,1,46,70,102.75,0.239583,Sixteenth,D#3_A#2
627,Right,0,79,80,102.75,0.239583,Sixteenth,G5
631,Left,1,53,70,103.0,0.239583,Sixteenth,G#3_F3
630,Right,0,74,80,103.0,0.239583,Sixteenth,D5
633,Left,1,53,70,103.25,0.239583,Sixteenth,F3_A#2
634,Right,0,80,80,103.25,0.239583,Sixteenth,G#5
637,Left,1,56,70,103.5,0.239583,Sixteenth,G#3_F3
636,Right,0,77,80,103.5,0.239583,Sixteenth,F5
639,Right,0,74,80,103.75,0.239583,Sixteenth,D5
640,Left,1,46,70,103.75,0.239583,Sixteenth,F3_A#2
643,Right,0,75,80,104.0,0.489583,Eighth,D#5
642,Left,1,39,70,104.0,0.239583,Sixteenth,D#2
644,Left,1,46,70,104.25,0.239583,Sixteenth,D#3_A#2
646,Left,1,55,70,104.5,0.239583,Sixteenth,G3_D#3
649,Right,0,70,80,104.75,0.239583,Sixteenth,A#4
648,Left,1,46,70,104.75,0.239583,Sixteenth,D#3_A#2
652,Right,0,67,80,105.0,0.489583,Eighth,G4
651,Left,1,51,70,105.0,0.239583,Sixteenth,G3_D#3
654,Left,1,51,70,105.25,0.239583,Sixteenth,D#3_A#2
656,Left,1,55,70,105.5,0.239583,Sixteenth,G3_D#3
658,Left,1,46,70,105.75,0.239583,Sixteenth,D#3_A#2
660,Right,0,75,80,105.75,0.239583,Sixteenth,D#5
662,Right,0,70,80,106.0,0.489583,Eighth,A#4
661,Left,1,51,70,106.0,0.239583,Sixteenth,G3_D#3
664,Left,1,46,70,106.25,0.239583,Sixteenth,D#3_A#2
666,Left,1,55,70,106.5,0.239583,Sixteenth,G3_D#3
668,Left,1,51,70,106.75,0.239583,Sixteenth,D#3_A#2
670,Right,0,79,80,106.75,0.239583,Sixteenth,G5
673,Right,0,74,80,107.0,0.239583,Sixteenth,D5
671,Left,1,56,70,107.0,0.239583,Sixteenth,G#3_F3
675,Left,1,53,70,107.25,0.239583,Sixteenth,F3_A#2
674,Right,0,80,80,107.25,0.239583,Sixteenth,G#5
679,Right,0,77,80,107.5,0.239583,Sixteenth,F5
677,Left,1,53,70,107.5,0.239583,Sixteenth,G#3_F3
680,Left,1,53,70,107.75,0.239583,Sixteenth,F3_A#2
681,Right,0,74,80,107.75,0.239583,Sixteenth,D5
683,Right,0,75,80,108.0,0.489583,Eighth,D#5
684,Left,1,51,70,108.0,0.239583,Sixteenth,G3_D#3
686,Left,1,46,70,108.25,0.239583,Sixteenth,D#3_A#2
688,Left,1,51,70,108.5,0.239583,Sixteenth,G3_D#3
690,Left,1,51,70,108.75,0.239583,Sixteenth,D#3_A#2
692,Right,0,91,80,108.75,0.239583,Sixteenth,G6
693,Left,1,53,70,109.0,0.239583,Sixteenth,G#3_F3
694,Right,0,86,80,109.0,0.239583,Sixteenth,D6
696,Left,1,46,70,109.25,0.239583,Sixteenth,F3_A#2
698,Right,0,92,80,109.25,0.239583,Sixteenth,G#6
699,Left,1,56,70,109.5,0.239583,Sixteenth,G#3_F3
701,Right,0,89,80,109.5,0.239583,Sixteenth,F6
702,Left,1,46,70,109.75,0.239583,Sixteenth,F3_A#2
703,Right,0,86,80,109.75,0.239583,Sixteenth,D6
705,Left,1,51,70,110.0,0.239583,Sixteenth,G3_D#3
707,Right,0,87,80,110.0,0.489583,Eighth,D#6
708,Left,1,46,70,110.25,0.239583,Sixteenth,D#3_A#2
710,Left,1,51,70,110.5,0.239583,Sixteenth,G3_D#3
712,Left,1,46,70,110.75,0.239583,Sixteenth,D#3_A#2
714,Right,0,79,80,110.75,0.239583,Sixteenth,G5
715,Left,1,56,70,111.0,0.239583,Sixteenth,G#3_F3
716,Right,0,74,80,111.0,0.239583,Sixteenth,D5
718,Left,1,53,70,111.25,0.239583,Sixteenth,F3_A#2
719,Right,0,80,80,111.25,0.239583,Sixteenth,G#5
721,Right,0,77,80,111.5,0.239583,Sixteenth,F5
722,Left,1,56,70,111.5,0.239583,Sixteenth,G#3_F3
724,Right,0,74,80,111.75,0.239583,Sixteenth,D5
725,Left,1,53,70,111.75,0.239583,Sixteenth,F3_A#2
728,Left,1,55,80,112.0,0.489583,Eighth,G3_D#3
727,Right,0,75,80,112.0,0.239583,Sixteenth,D#5
730,Right,0,79,80,112.25,0.239583,Sixteenth,G5
731,Right,0,70,80,112.5,0.239583,Sixteenth,A#4
732,Right,0,75,80,112.75,0.239583,Sixteenth,D#5
733,Right,0,67,80,113.0,0.239583,Sixteenth,G4
734,Right,0,70,80,113.25,0.239583,Sixteenth,A#4
735,Right,0,68,80,113.5,0.239583,Sixteenth,G#4
736,Right,0,65,80,113.75,0.239583,Sixteenth,F4
737,Right,0,63,80,114.0,0.239583,Sixteenth,D#4
738,Left,1,51,80,114.0,0.239583,Sixteenth,D#3
739,Right,0,67,80,114.25,0.239583,Sixteenth,G4
740,Left,1,55,80,114.25,0.239583,Sixteenth,G3
742,Right,0,58,80,114.5,0.239583,Sixteenth,A#3
741,Left,1,46,80,114.5,0.239583,Sixteenth,A#2
744,Left,1,51,80,114.75,0.239583,Sixteenth,D#3
743,Right,0,63,80,114.75,0.239583,Sixteenth,D#4
746,Left,1,43,80,115.0,0.239583,Sixteenth,G2
745,Right,0,55,80,115.0,0.239583,Sixteenth,G3
748,Right,0,58,80,115.25,0.239583,Sixteenth,A#3
747,Left,1,46,80,115.25,0.239583,Sixteenth,A#2
749,Left,1,44,80,115.5,0.239583,Sixteenth,G#2
750,Right,0,56,80,115.5,0.239583,Sixteenth,G#3
751,Left,1,41,80,115.75,0.239583,Sixteenth,F2
752,Right,0,53,80,115.75,0.239583,Sixteenth,F3
753,Left,1,39,80,116.0,0.489583,Eighth,D#2
754,Right,0,51,80,116.0,0.239583,Sixteenth,D#3
755,Right,0,55,80,116.25,0.239583,Sixteenth,G3
756,Right,0,46,80,116.5,0.239583,Sixteenth,A#2
757,Right,0,51,80,116.75,0.239583,Sixteenth,D#3
758,Left,1,39,80,117.0,0.489583,Eighth,D#2
759,Right,0,46,80,117.25,0.239583,Sixteenth,A#2
760,Right,0,43,80,117.5,0.239583,Sixteenth,G2
761,Right,0,46,80,117.75,0.239583,Sixteenth,A#2
762,Left,1,39,80,118.0,0.489583,Eighth,D#2
763,Right,0,46,80,118.25,0.239583,Sixteenth,A#2
764,Right,0,43,80,118.5,0.239583,Sixteenth,G2
765,Right,0,46,80,118.75,0.239583,Sixteenth,A#2
766,Left,1,39,80,119.0,0.489583,Eighth,D#2
767,Right,0,46,80,119.25,0.239583,Sixteenth,A#2
768,Right,0,43,80,119.5,0.239583,Sixteenth,G2
769,Right,0,46,80,119.75,0.239583,Sixteenth,A#2
770,Left,1,39,80,120.0,0.489583,Eighth,D#2
771,Right,0,47,81,120.25,0.239583,Sixteenth,B2
772,Right,0,43,82,120.5,0.239583,Sixteenth,G2
773,Right,0,47,83,120.75,0.239583,Sixteenth,B2
774,Left,1,39,85,121.0,0.489583,Eighth,D#2
775,Right,0,47,86,121.25,0.239583,Sixteenth,B2
776,Right,0,43,87,121.5,0.239583,Sixteenth,G2
777,Right,0,47,89,121.75,0.239583,Sixteenth,B2
778,Left,1,39,90,122.0,0.489583,Eighth,D#2
779,Right,0,47,91,122.25,0.239583,Sixteenth,B2
780,Right,0,43,93,122.5,0.239583,Sixteenth,G2
781,Right,0,47,94,122.75,0.239583,Sixteenth,B2
782,Left,1,39,95,123.0,0.489583,Eighth,D#2
783,Right,0,47,97,123.25,0.239583,Sixteenth,B2
784,Right,0,43,98,123.5,0.239583,Sixteenth,G2
785,Right,0,47,99,123.75,0.239583,Sixteenth,B2
786,Right,0,60,80,124.0,1.489583,DottedQuarter,C4_C3
788,Left,1,32,80,124.25,0.239583,Sixteenth,G#1
789,Left,1,36,80,124.5,0.239583,Sixteenth,C2
790,Left,1,39,80,124.75,0.239583,Sixteenth,D#2
791,Left,1,44,80,125.0,0.239583,Sixteenth,G#2
792,Left,1,32,80,125.25,0.239583,Sixteenth,G#1
793,Left,1,34,80,125.5,0.239583,Sixteenth,A#1
794,Right,0,61,95,125.5,0.489583,Eighth,C#4_C#3
796,Left,1,46,80,125.75,0.239583,Sixteenth,A#2
797,Right,0,51,80,126.0,1.489583,DottedQuarter,D#4_D#3
799,Left,1,36,80,126.25,0.239583,Sixteenth,C2
800,Left,1,39,80,126.5,0.239583,Sixteenth,D#2
801,Left,1,44,80,126.75,0.239583,Sixteenth,G#2
802,Left,1,48,80,127.0,0.239583,Sixteenth,C3
803,Left,1,36,80,127.25,0.239583,Sixteenth,C2
805,Right,0,53,95,127.5,0.989583,Quarter,F4_F3
804,Left,1,37,80,127.5,0.239583,Sixteenth,C#2
807,Left,1,49,80,127.75,0.239583,Sixteenth,C#3
809,Left,1,34,80,128.0,0.239583,Sixteenth,A#1
808,Right,0,61,80,128.0,0.489583,Eighth,C#4
810,Left,1,46,80,128.25,0.239583,Sixteenth,A#2
811,Right,0,58,80,128.5,0.489583,Eighth,D#4_A#3
813,Left,1,31,80,128.5,0.239583,Sixteenth,G1
814,Left,1,43,80,128.75,0.239583,Sixteenth,G2
815,Right,0,60,80,129.0,0.489583,Eighth,D#3_C4
816,Left,1,32,80,129.0,0.239583,Sixteenth,G#1
818,Left,1,44,80,129.25,0.239583,Sixteenth,G#2
819,Right,0,56,80,129.5,0.489583,Eighth,G#3_D#3
821,Left,1,36,80,129.5,0.239583,Sixteenth,C2
822,Left,1,48,80,129.75,0.239583,Sixteenth,C3
825,Left,1,39,80,130.0,0.239583,Sixteenth,D#2
823,Right,0,55,80,130.0,1.239583,TiedQuarter-Sixteenth,G3_A#3
826,Left,1,51,80,130.25,0.239583,Sixteenth,D#3
827,Left,1,51,80,130.5,0.239583,Sixteenth,D#3
828,Left,1,51,80,130.75,0.239583,Sixteenth,D#3
829,Left,1,51,80,131.0,0.239583,Sixteenth,D#3
830,Left,1,49,80,131.25,0.239583,Sixteenth,C#3
831,Right,0,51,80,131.25,0.239583,Sixteenth,G3_D#3
833,Left,1,48,80,131.5,0.239583,Sixteenth,C3
834,Right,0,53,80,131.5,0.239583,Sixteenth,G#3_F3
838,Left,1,46,80,131.75,0.239583,Sixteenth,A#2
836,Right,0,55,80,131.75,0.239583,Sixteenth,G3_A#3
841,Left,1,44,80,132.0,0.239583,Sixteenth,G#2
839,Right,0,56,80,132.0,1.489583,DottedQuarter,G#3_D#3_C4
843,Left,1,32,80,132.25,0.239583,Sixteenth,G#1
844,Left,1,36,80,132.5,0.239583,Sixteenth,C2
845,Left,1,39,80,132.75,0.239583,Sixteenth,D#2
846,Left,1,44,80,133.0,0.239583,Sixteenth,G#2
847,Left,1,32,80,133.25,0.239583,Sixteenth,G#1
849,Right,0,61,80,133.5,0.489583,Eighth,G3_D#3_C#4
848,Left,1,34,80,133.5,0.239583,Sixteenth,A#1
852,Left,1,46,80,133.75,0.239583,Sixteenth,A#2
853,Right,0,56,80,134.0,1.489583,DottedQuarter,G#3_D#4_D#3
856,Left,1,36,80,134.25,0.239583,Sixteenth,C2
857,Left,1,39,80,134.5,0.239583,Sixteenth,D#2
858,Left,1,44,80,134.75,0.239583,Sixteenth,G#2
859,Left,1,48,80,135.0,0.239583,Sixteenth,C3
860,Left,1,36,80,135.25,0.239583,Sixteenth,C2
861,Left,1,37,80,135.5,0.239583,Sixteenth,C#2
862,Right,0,53,80,135.5,0.989583,Quarter,F4_F3
864,Left,1,49,80,135.75,0.239583,Sixteenth,C#3
866,Left,1,34,80,136.0,0.239583,Sixteenth,A#1
865,Right,0,61,80,136.0,0.489583,Eighth,C#4
867,Left,1,46,80,136.25,0.239583,Sixteenth,A#2
869,Left,1,31,80,136.5,0.239583,Sixteenth,G1
868,Right,0,58,80,136.5,0.489583,Eighth,D#4_A#3
871,Left,1,43,80,136.75,0.239583,Sixteenth,G2
872,Right,0,60,80,137.0,0.489583,Eighth,D#3_C4
873,Left,1,32,80,137.0,0.239583,Sixteenth,G#1
875,Left,1,44,80,137.25,0.239583,Sixteenth,G#2
877,Right,0,56,80,137.5,0.489583,Eighth,G#3_D#3
876,Left,1,36,80,137.5,0.239583,Sixteenth,C2
879,Left,1,48,80,137.75,0.239583,Sixteenth,C3
880,Left,1,39,80,138.0,0.239583,Sixteenth,D#2
881,Right,0,58,80,138.0,1.489583,Quarter,D#3_C#3_A#3
884,Left,1,39,80,138.25,0.239583,Sixteenth,D#2
885,Left,1,43,80,138.5,0.239583,Sixteenth,G2
886,Left,1,39,80,138.75,0.239583,Sixteenth,D#2
887,Right,0,48,80,139.0,0.489583,Eighth,G#3_C3
889,Left,1,32,80,139.0,0.489583,Eighth,G#2_G#1
891,Right,0,72,80,139.5,0.489583,Eighth,G#5_C5
892,Left,1,56,80,139.5,0.489583,Eighth,G#4_G#3
896,Left,1,67,80,140.0,0.989583,Quarter,G4_D#4
895,Right,0,73,80,140.0,0.989583,Quarter,C#5_A#5
901,Right,0,80,80,141.0,0.489583,Eighth,G#5_C5
899,Left,1,68,80,141.0,0.489583,Eighth,G#4_G#3
903,Left,1,60,70,141.5,0.489583,Eighth,C4
904,Right,0,72,70,141.5,0.489583,Eighth,C5
905,Left,1,58,70,142.0,0.864583,DottedEighth,A#3
906,Right,0,70,70,142.0,0.864583,DottedEighth,A#4
908,Right,0,68,70,142.875,0.114583,ThirtySecond,G#4
907,Left,1,56,70,142.875,0.114583,ThirtySecond,G#3
910,Right,0,67,70,143.0,0.364583,DottedSixteenth,G4
909,Left,1,55,70,143.0,0.364583,DottedSixteenth,G3
912,Right,0,65,70,143.5,0.364583,DottedSixteenth,F4
911,Left,1,53,70,143.5,0.364583,DottedSixteenth,F3
914,Left,1,52,70,144.0,0.989583,Quarter,E3
913,Right,0,64,70,144.0,0.989583,Quarter,E4
915,Left,1,53,70,145.5,0.239583,Sixteenth,F3
916,Right,0,65,70,145.5,0.239583,Sixteenth,F4
918,Left,1,55,70,145.625,0.239583,Sixteenth,G3
917,Right,0,67,70,145.625,0.239583,Sixteenth,G4
920,Left,1,52,70,145.75,0.239583,Sixteenth,E3
919,Right,0,64,70,145.75,0.239583,Sixteenth,E4
922,Right,0,65,70,145.875,0.114583,ThirtySecond,F4
921,Left,1,53,70,145.875,0.114583,ThirtySecond,F3
924,Right,0,67,70,146.0,0.864583,DottedEighth,G4
923,Left,1,55,70,146.0,0.864583,DottedEighth,G3
925,Right,0,65,70,146.875,0.114583,ThirtySecond,F4
926,Left,1,53,70,146.875,0.114583,ThirtySecond,F3
927,Right,0,64,70,147.0,0.489583,Eighth,E4
928,Left,1,52,70,147.0,0.489583,Eighth,E3
930,Right,0,62,70,147.5,0.364583,DottedSixteenth,D4
929,Left,1,50,70,147.5,0.364583,DottedSixteenth,D3
931,Right,0,60,70,148.0,0.989583,Quarter,C4
932,Left,1,48,70,148.0,0.989583,Quarter,C3
933,Right,0,60,70,149.875,0.114583,ThirtySecond,C4
934,Left,1,48,70,149.875,0.114583,ThirtySecond,C3
936,Left,1,48,70,150.0,0.489583,Eighth,C3
935,Right,0,60,70,150.0,0.489583,Eighth,C4
938,Right,0,60,70,150.875,0.114583,ThirtySecond,C4
937,Left,1,48,70,150.875,0.114583,ThirtySecond,C3
940,Right,0,60,70,151.0,0.489583,Eighth,C4
939,Left,1,48,70,151.0,0.489583,Eighth,C3
941,Right,0,60,70,151.875,0.114583,ThirtySecond,C4
942,Left,1,48,70,151.875,0.114583,ThirtySecond,C3
943,Right,0,60,70,152.0,0.989583,Quarter,C4
944,Left,1,48,70,152.0,0.989583,Quarter,C3
946,Left,1,49,80,153.875,0.114583,ThirtySecond,C#3
945,Right,0,61,80,153.875,0.114583,ThirtySecond,C#4
948,Left,1,49,81,154.0,0.489583,Eighth,C#3
947,Right,0,61,81,154.0,0.489583,Eighth,C#4
949,Right,0,61,89,154.875,0.114583,ThirtySecond,C#4
950,Left,1,49,89,154.875,0.114583,ThirtySecond,C#3
952,Left,1,49,90,155.0,0.489583,Eighth,C#3
951,Right,0,61,90,155.0,0.489583,Eighth,C#4
953,Left,1,49,98,155.875,0.114583,ThirtySecond,C#3
954,Right,0,61,98,155.875,0.114583,ThirtySecond,C#4
956,Left,1,49,99,156.0,0.989583,Quarter,C#3
955,Right,0,61,99,156.0,0.989583,Quarter,C#4
958,Left,1,49,110,157.875,0.114583,ThirtySecond,C#3
957,Right,0,61,110,157.875,0.114583,ThirtySecond,C#4
959,Right,0,61,110,158.0,0.989583,Quarter,C#4
960,Left,1,49,110,158.0,0.989583,Quarter,C#3
962,Left,1,46,110,159.0,0.489583,Eighth,A#2
961,Right,0,58,110,159.0,0.489583,Eighth,A#3
963,Right,0,55,110,159.5,0.489583,Eighth,G3
964,Left,1,43,110,159.5,0.489583,Eighth,G2
966,Right,0,51,110,160.0,3.489583,DottedHalf,D#3
965,Left,1,39,110,160.0,3.489583,DottedHalf,D#2
967,Right,0,51,80,163.5,0.083333,TripletThirtySecond,D#3
968,Right,0,53,80,163.59375,0.083333,TripletThirtySecond,F3
969,Right,0,55,80,163.6875,0.083333,TripletThirtySecond,G3
970,Right,0,56,80,163.770833,0.083333,TripletThirtySecond,G#3
971,Right,0,58,80,163.875,0.083333,TripletThirtySecond,A#3
972,Right,0,60,80,164.0,1.489583,DottedQuarter,C4
973,Left,1,32,80,164.25,0.239583,Sixteenth,G#1
974,Left,1,36,80,164.5,0.239583,Sixteenth,C2
975,Left,1,39,80,164.75,0.239583,Sixteenth,D#2
976,Left,1,44,80,165.0,0.239583,Sixteenth,G#2
977,Left,1,32,80,165.25,0.239583,Sixteenth,G#1
980,Left,1,34,80,165.5,0.239583,Sixteenth,A#1
978,Right,0,51,95,165.5,0.489583,Eighth,G3_D#3_C#4
982,Left,1,46,80,165.75,0.239583,Sixteenth,A#2
983,Right,0,63,80,166.0,1.489583,DottedQuarter,G#3_D#4_D#3
986,Left,1,36,80,166.25,0.239583,Sixteenth,C2
987,Left,1,39,80,166.5,0.239583,Sixteenth,D#2
988,Left,1,44,80,166.75,0.239583,Sixteenth,G#2
989,Left,1,48,80,167.0,0.239583,Sixteenth,C3
990,Left,1,36,80,167.25,0.239583,Sixteenth,C2
992,Left,1,37,80,167.5,0.239583,Sixteenth,C#2
991,Right,0,65,95,167.5,0.989583,Eighth,F4_F3
994,Left,1,49,80,167.75,0.239583,Sixteenth,C#3
996,Right,0,61,80,168.0,0.489583,Eighth,C#4
995,Left,1,34,80,168.0,0.239583,Sixteenth,A#1
997,Left,1,46,80,168.25,0.239583,Sixteenth,A#2
999,Right,0,58,80,168.5,0.489583,Eighth,D#4_A#3
998,Left,1,31,80,168.5,0.239583,Sixteenth,G1
1001,Left,1,43,80,168.75,0.239583,Sixteenth,G2
1002,Right,0,51,80,169.0,0.489583,Eighth,D#3_C4
1004,Left,1,32,80,169.0,0.239583,Sixteenth,G#1
1005,Left,1,44,80,169.25,0.239583,Sixteenth,G#2
1007,Right,0,51,80,169.5,0.489583,Eighth,G#3_D#3
1006,Left,1,36,80,169.5,0.239583,Sixteenth,C2
1009,Left,1,48,80,169.75,0.239583,Sixteenth,C3
1010,Right,0,55,80,170.0,1.239583,TiedQuarter-Sixteenth,G3_A#3
1011,Left,1,39,80,170.0,0.239583,Sixteenth,D#2
1013,Left,1,51,80,170.25,0.239583,Sixteenth,D#3
1014,Left,1,51,80,170.5,0.239583,Sixteenth,D#3
1015,Left,1,51,80,170.75,0.239583,Sixteenth,D#3
1016,Left,1,51,80,171.0,0.239583,Sixteenth,D#3
1019,Left,1,49,80,171.25,0.239583,Sixteenth,C#3
1017,Right,0,51,80,171.25,0.239583,Sixteenth,G3_D#3
1020,Left,1,48,80,171.5,0.239583,Sixteenth,C3
1021,Right,0,56,80,171.5,0.239583,Sixteenth,G#3_F3
1023,Left,1,46,80,171.75,0.239583,Sixteenth,A#2
1024,Right,0,55,80,171.75,0.239583,Sixteenth,G3_A#3
1026,Left,1,44,80,172.0,0.239583,Sixteenth,G#2
1027,Right,0,51,80,172.0,1.489583,DottedQuarter,G#3_D#3_C4
1030,Left,1,32,80,172.25,0.239583,Sixteenth,G#1
1031,Left,1,36,80,172.5,0.239583,Sixteenth,C2
1032,Left,1,39,80,172.75,0.239583,Sixteenth,D#2
1033,Left,1,44,80,173.0,0.239583,Sixteenth,G#2
1034,Left,1,32,80,173.25,0.239583,Sixteenth,G#1
1035,Right,0,61,95,173.5,0.489583,Eighth,G3_D#3_C#4
1037,Left,1,34,80,173.5,0.239583,Sixteenth,A#1
1039,Left,1,46,80,173.75,0.239583,Sixteenth,A#2
1040,Right,0,63,80,174.0,1.489583,DottedQuarter,G#3_D#4_D#3
1043,Left,1,36,80,174.25,0.239583,Sixteenth,C2
1044,Left,1,39,80,174.5,0.239583,Sixteenth,D#2
1045,Left,1,44,80,174.75,0.239583,Sixteenth,G#2
1046,Left,1,48,80,175.0,0.239583,Sixteenth,C3
1047,Left,1,36,80,175.25,0.239583,Sixteenth,C2
1048,Left,1,37,80,175.5,0.239583,Sixteenth,C#2
1049,Right,0,65,95,175.5,0.989583,Eighth,F4_F3
1051,Left,1,49,80,175.75,0.239583,Sixteenth,C#3
1052,Left,1,34,80,176.0,0.239583,Sixteenth,A#1
1053,Right,0,61,80,176.0,0.489583,Eighth,C#4
1054,Left,1,46,80,176.25,0.239583,Sixteenth,A#2
1056,Right,0,63,80,176.5,0.489583,Eighth,D#4_A#3
1055,Left,1,31,80,176.5,0.239583,Sixteenth,G1
1058,Left,1,43,80,176.75,0.239583,Sixteenth,G2
1059,Right,0,60,80,177.0,0.489583,Eighth,D#3_C4
1060,Left,1,32,80,177.0,0.239583,Sixteenth,G#1
1062,Left,1,44,80,177.25,0.239583,Sixteenth,G#2
1065,Left,1,36,80,177.5,0.239583,Sixteenth,C2
1063,Right,0,56,80,177.5,0.489583,Eighth,G#3_D#3
1066,Left,1,48,80,177.75,0.239583,Sixteenth,C3
1067,Right,0,58,80,178.0,1.489583,Quarter,D#3_C#3_A#3
1070,Left,1,39,80,178.0,0.239583,Sixteenth,D#2
1071,Left,1,39,80,178.25,0.239583,Sixteenth,D#2
1072,Left,1,43,80,178.5,0.239583,Sixteenth,G2
1073,Left,1,39,80,178.75,0.239583,Sixteenth,D#2
1074,Right,0,48,80,179.0,0.489583,Eighth,G#3_C3
1076,Left,1,32,80,179.0,0.489583,Eighth,G#2_G#1
1078,Left,1,56,80,179.5,0.489583,Eighth,G#4_G#3
1080,Right,0,80,80,179.5,0.489583,Eighth,G#5_C5
1084,Left,1,63,80,180.0,0.989583,Quarter,G4_D#4
1082,Right,0,73,80,180.0,0.989583,Quarter,C#5_A#5
1088,Left,1,56,80,181.0,0.489583,Eighth,G#4_G#3
1086,Right,0,72,80,181.0,0.489583,Eighth,G#5_C5
1091,Left,1,72,70,181.5,0.489583,Eighth,C5
1090,Right,0,84,70,181.5,0.489583,Eighth,C6
1092,Left,1,70,70,182.0,0.864583,DottedEighth,A#4
1093,Right,0,82,70,182.0,0.864583,DottedEighth,A#5
1094,Right,0,80,70,182.875,0.114583,ThirtySecond,G#5
1095,Left,1,68,70,182.875,0.114583,ThirtySecond,G#4
1096,Left,1,67,70,183.0,0.364583,DottedSixteenth,G4
1097,Right,0,79,70,183.0,0.364583,DottedSixteenth,G5
1099,Left,1,65,70,183.5,0.364583,DottedSixteenth,F4
1098,Right,0,77,70,183.5,0.364583,DottedSixteenth,F5
1100,Left,1,64,70,184.0,0.989583,Quarter,E4
1101,Right,0,76,70,184.0,0.989583,Quarter,E5
1102,Left,1,65,70,185.5,0.239583,Sixteenth,F4
1103,Right,0,77,70,185.5,0.239583,Sixteenth,F5
1104,Left,1,67,70,185.625,0.239583,Sixteenth,G4
1105,Right,0,79,70,185.625,0.239583,Sixteenth,G5
1106,Right,0,76,70,185.75,0.239583,Sixteenth,E5
1107,Left,1,64,70,185.75,0.239583,Sixteenth,E4
1109,Left,1,65,70,185.875,0.114583,ThirtySecond,F4
1108,Right,0,77,70,185.875,0.114583,ThirtySecond,F5
1110,Left,1,67,70,186.0,0.864583,DottedEighth,G4
1111,Right,0,79,70,186.0,0.864583,DottedEighth,G5
1113,Right,0,77,70,186.875,0.114583,ThirtySecond,F5
1112,Left,1,65,70,186.875,0.114583,ThirtySecond,F4
1114,Right,0,76,70,187.0,0.489583,Eighth,E5
1115,Left,1,64,70,187.0,0.489583,Eighth,E4
1116,Left,1,62,70,187.5,0.364583,DottedSixteenth,D4
1117,Right,0,74,70,187.5,0.364583,DottedSixteenth,D5
1119,Left,1,60,70,188.0,0.989583,Quarter,C4
1118,Right,0,72,70,188.0,0.989583,Quarter,C5
1121,Left,1,60,70,189.875,0.114583,ThirtySecond,C4
1120,Right,0,72,70,189.875,0.114583,ThirtySecond,C5
1123,Right,0,72,70,190.0,0.489583,Eighth,C5
1122,Left,1,60,70,190.0,0.489583,Eighth,C4
1124,Left,1,60,70,190.875,0.114583,ThirtySecond,C4
1125,Right,0,72,70,190.875,0.114583,ThirtySecond,C5
1127,Left,1,60,70,191.0,0.489583,Eighth,C4
1126,Right,0,72,70,191.0,0.489583,Eighth,C5
1128,Left,1,60,70,191.875,0.114583,ThirtySecond,C4
1129,Right,0,72,70,191.875,0.114583,ThirtySecond,C5
1130,Right,0,72,70,192.0,0.989583,Quarter,C5
1131,Left,1,60,70,192.0,0.989583,Quarter,C4
1133,Left,1,53,120,193.875,0.114583,ThirtySecond,F3_F2_C3_A2
1132,Right,0,84,120,193.875,0.114583,ThirtySecond,F6_F5_C6_A5
1140,Right,0,89,120,194.0,0.489583,Eighth,F6_F5_C6_A5
1141,Left,1,41,120,194.0,0.489583,Eighth,F3_F2_C3_A2
1148,Left,1,57,80,194.5,0.239583,Sixteenth,A3
1149,Right,0,65,80,194.5,0.239583,Sixteenth,F4
1150,Right,0,69,80,194.75,0.239583,Sixteenth,A4
1151,Left,1,60,80,194.75,0.239583,Sixteenth,C4
1152,Right,0,67,80,195.0,0.239583,Sixteenth,G4
1153,Left,1,58,80,195.0,0.239583,Sixteenth,A#3
1154,Right,0,70,80,195.25,0.239583,Sixteenth,A#4
1155,Left,1,61,80,195.25,0.239583,Sixteenth,C#4
1157,Right,0,64,80,195.5,0.239583,Sixteenth,E4
1156,Left,1,55,80,195.5,0.239583,Sixteenth,G3
1158,Left,1,58,80,195.75,0.239583,Sixteenth,A#3
1159,Right,0,67,80,195.75,0.239583,Sixteenth,G4
1160,Left,1,57,80,196.0,0.239583,Sixteenth,A3
1161,Right,0,65,80,196.0,0.239583,Sixteenth,F4
1163,Left,1,60,80,196.25,0.239583,Sixteenth,C4
1162,Right,0,69,80,196.25,0.239583,Sixteenth,A4
1164,Left,1,57,80,196.5,0.239583,Sixteenth,A3
1165,Right,0,65,80,196.5,0.239583,Sixteenth,F4
1166,Left,1,60,80,196.75,0.239583,Sixteenth,C4
1167,Right,0,69,80,196.75,0.239583,Sixteenth,A4
1168,Left,1,58,80,197.0,0.239583,Sixteenth,A#3
1169,Right,0,67,80,197.0,0.239583,Sixteenth,G4
1170,Left,1,61,80,197.25,0.239583,Sixteenth,C#4
1171,Right,0,70,80,197.25,0.239583,Sixteenth,A#4
1173,Right,0,64,80,197.5,0.239583,Sixteenth,E4
1172,Left,1,55,80,197.5,0.239583,Sixteenth,G3
1174,Right,0,67,80,197.75,0.239583,Sixteenth,G4
1175,Left,1,58,80,197.75,0.239583,Sixteenth,A#3
1176,Right,0,65,80,198.0,0.239583,Sixteenth,F4
1177,Left,1,57,80,198.0,0.239583,Sixteenth,A3
1179,Right,0,69,80,198.25,0.239583,Sixteenth,A4
1178,Left,1,60,80,198.25,0.239583,Sixteenth,C4
1181,Right,0,72,80,198.5,0.239583,Sixteenth,C5
1180,Left,1,63,80,198.5,0.239583,Sixteenth,D#4
1182,Right,0,69,80,198.75,0.239583,Sixteenth,A4
1183,Left,1,60,80,198.75,0.239583,Sixteenth,C4
1185,Right,0,69,80,199.0,0.239583,Sixteenth,A4
1184,Left,1,60,80,199.0,0.239583,Sixteenth,C4
1186,Right,0,72,80,199.25,0.239583,Sixteenth,C5
1187,Left,1,63,80,199.25,0.239583,Sixteenth,D#4
1188,Right,0,75,80,199.5,0.239583,Sixteenth,D#5
1189,Left,1,66,80,199.5,0.239583,Sixteenth,F#4
1191,Left,1,63,80,199.75,0.239583,Sixteenth,D#4
1190,Right,0,72,80,199.75,0.239583,Sixteenth,C5
1192,Right,0,72,80,200.0,0.239583,Sixteenth,C5
1193,Left,1,63,80,200.0,0.239583,Sixteenth,D#4
1194,Right,0,75,80,200.25,0.239583,Sixteenth,D#5
1195,Left,1,66,80,200.25,0.239583,Sixteenth,F#4
1196,Right,0,78,80,200.5,0.239583,Sixteenth,F#5
1197,Left,1,69,80,200.5,0.239583,Sixteenth,A4
1199,Left,1,66,80,200.75,0.239583,Sixteenth,F#4
1198,Right,0,75,80,200.75,0.239583,Sixteenth,D#5
1201,Right,0,73,80,201.0,0.239583,Sixteenth,C#5
1200,Left,1,65,80,201.0,0.239583,Sixteenth,F4
1203,Left,1,69,80,201.25,0.239583,Sixteenth,A4
1202,Right,0,77,80,201.25,0.239583,Sixteenth,F5
1204,Left,1,63,80,201.5,0.239583,Sixteenth,D#4
1205,Right,0,72,80,201.5,0.239583,Sixteenth,C5
1206,Left,1,69,80,201.75,0.239583,Sixteenth,A4
1207,Right,0,77,80,201.75,0.239583,Sixteenth,F5
1209,Right,0,74,120,202.0,0.489583,Eighth,F5_D5_A#5_A#4
1208,Left,1,58,120,202.0,0.489583,Eighth,F3_D3_A#3_A#2
1216,Left,1,62,80,202.5,0.239583,Sixteenth,D4
1217,Right,0,70,80,202.5,0.239583,Sixteenth,A#4
1218,Right,0,74,80,202.75,0.239583,Sixteenth,D5
1219,Left,1,65,80,202.75,0.239583,Sixteenth,F4
1220,Right,0,72,80,203.0,0.239583,Sixteenth,C5
1221,Left,1,63,80,203.0,0.239583,Sixteenth,D#4
1222,Right,0,75,80,203.25,0.239583,Sixteenth,D#5
1223,Left,1,66,80,203.25,0.239583,Sixteenth,F#4
1225,Right,0,69,80,203.5,0.239583,Sixteenth,A4
1224,Left,1,60,80,203.5,0.239583,Sixteenth,C4
1226,Left,1,63,80,203.75,0.239583,Sixteenth,D#4
1227,Right,0,72,80,203.75,0.239583,Sixteenth,C5
1228,Left,1,62,80,204.0,0.239583,Sixteenth,D4
1229,Right,0,70,80,204.0,0.239583,Sixteenth,A#4
1230,Right,0,74,80,204.25,0.239583,Sixteenth,D5
1231,Left,1,65,80,204.25,0.239583,Sixteenth,F4
1233,Left,1,62,80,204.5,0.239583,Sixteenth,D4
1232,Right,0,70,80,204.5,0.239583,Sixteenth,A#4
1235,Left,1,65,80,204.75,0.239583,Sixteenth,F4
1234,Right,0,74,80,204.75,0.239583,Sixteenth,D5
1236,Left,1,63,80,205.0,0.239583,Sixteenth,D#4
1237,Right,0,72,80,205.0,0.239583,Sixteenth,C5
1239,Right,0,75,80,205.25,0.239583,Sixteenth,D#5
1238,Left,1,66,80,205.25,0.239583,Sixteenth,F#4
1241,Right,0,69,80,205.5,0.239583,Sixteenth,A4
1240,Left,1,60,80,205.5,0.239583,Sixteenth,C4
1242,Left,1,63,80,205.75,0.239583,Sixteenth,D#4
1243,Right,0,72,80,205.75,0.239583,Sixteenth,C5
1244,Right,0,70,80,206.0,0.239583,Sixteenth,A#4
1245,Left,1,62,80,206.0,0.239583,Sixteenth,D4
1246,Right,0,74,80,206.25,0.239583,Sixteenth,D5
1247,Left,1,65,80,206.25,0.239583,Sixteenth,F4
1249,Right,0,77,80,206.5,0.239583,Sixteenth,F5
1248,Left,1,68,80,206.5,0.239583,Sixteenth,G#4
1250,Right,0,74,80,206.75,0.239583,Sixteenth,D5
1251,Left,1,65,80,206.75,0.239583,Sixteenth,F4
1252,Left,1,65,80,207.0,0.239583,Sixteenth,F4
1253,Right,0,74,80,207.0,0.239583,Sixteenth,D5
1254,Left,1,68,80,207.25,0.239583,Sixteenth,G#4
1255,Right,0,77,80,207.25,0.239583,Sixteenth,F5
1257,Left,1,71,80,207.5,0.239583,Sixteenth,B4
1256,Right,0,80,80,207.5,0.239583,Sixteenth,G#5
1259,Left,1,68,80,207.75,0.239583,Sixteenth,G#4
1258,Right,0,77,80,207.75,0.239583,Sixteenth,F5
1261,Left,1,68,80,208.0,0.239583,Sixteenth,G#4
1260,Right,0,77,80,208.0,0.239583,Sixteenth,F5
1262,Left,1,71,80,208.25,0.239583,Sixteenth,B4
1263,Right,0,80,80,208.25,0.239583,Sixteenth,G#5
1264,Left,1,74,80,208.5,0.239583,Sixteenth,D5
1265,Right,0,83,80,208.5,0.239583,Sixteenth,B5
1267,Right,0,80,80,208.75,0.239583,Sixteenth,G#5
1266,Left,1,71,80,208.75,0.239583,Sixteenth,B4
1268,Left,1,74,80,209.0,0.239583,Sixteenth,D5
1269,Right,0,83,80,209.0,0.239583,Sixteenth,B5
1270,Right,0,86,81,209.25,0.239583,Sixteenth,D6
1271,Left,1,77,81,209.25,0.239583,Sixteenth,F5
1273,Right,0,89,82,209.5,0.239583,Sixteenth,F6
1272,Left,1,80,82,209.5,0.239583,Sixteenth,G#5
1274,Right,0,86,83,209.75,0.239583,Sixteenth,D6
1275,Left,1,71,84,209.875,0.114583,ThirtySecond,G#4_B4
1279,Right,0,89,85,210.0,0.239583,Sixteenth,F6
1277,Left,1,71,85,210.0,0.489583,Eighth,G#4_B4
1280,Right,0,86,86,210.25,0.239583,Sixteenth,D6
1281,Right,0,89,87,210.5,0.239583,Sixteenth,F6
1282,Right,0,86,89,210.75,0.239583,Sixteenth,D6
1283,Left,1,71,89,210.875,0.114583,ThirtySecond,G#4_B4
1285,Left,1,71,90,211.0,0.489583,Eighth,G#4_B4
1286,Right,0,89,90,211.0,0.239583,Sixteenth,F6
1288,Right,0,86,91,211.25,0.239583,Sixteenth,D6
1289,Right,0,89,93,211.5,0.239583,Sixteenth,F6
1290,Right,0,86,94,211.75,0.239583,Sixteenth,D6
1291,Left,1,71,95,211.875,0.114583,ThirtySecond,G#4_B4
1295,Right,0,89,95,212.0,0.239583,Sixteenth,F6
1293,Left,1,68,95,212.0,0.489583,Eighth,G#4_B4
1296,Right,0,86,97,212.25,0.239583,Sixteenth,D6
1297,Right,0,89,98,212.5,0.239583,Sixteenth,F6
1298,Right,0,86,99,212.75,0.239583,Sixteenth,D6
1299,Left,1,68,80,212.875,0.114583,ThirtySecond,G#4_B4
1302,Right,0,87,95,213.0,0.239583,Sixteenth,D#6
1301,Left,1,70,95,213.0,0.489583,Eighth,G4_A#4
1304,Right,0,82,91,213.25,0.239583,Sixteenth,A#5
1305,Right,0,79,86,213.5,0.239583,Sixteenth,G5
1306,Right,0,75,81,213.75,0.239583,Sixteenth,D#5
1307,Left,1,67,80,213.875,0.114583,ThirtySecond,G4_A#4
1309,Right,0,74,80,214.0,0.239583,Sixteenth,D5
1310,Left,1,68,80,214.0,0.489583,Eighth,G#4_B4
1312,Right,0,86,81,214.25,0.239583,Sixteenth,D6
1313,Right,0,89,83,214.5,0.239583,Sixteenth,F6
1314,Right,0,86,85,214.75,0.239583,Sixteenth,D6
1315,Left,1,68,86,214.875,0.114583,ThirtySecond,G#4_B4
1317,Right,0,89,87,215.0,0.239583,Sixteenth,F6
1318,Left,1,68,87,215.0,0.489583,Eighth,G#4_B4
1320,Right,0,86,89,215.25,0.239583,Sixteenth,D6
1321,Right,0,89,90,215.5,0.239583,Sixteenth,F6
1322,Right,0,86,92,215.75,0.239583,Sixteenth,D6
1323,Left,1,68,93,215.875,0.114583,ThirtySecond,G#4_B4
1326,Right,0,89,94,216.0,0.239583,Sixteenth,F6
1325,Left,1,71,94,216.0,0.489583,Eighth,G#4_B4
1328,Right,0,86,96,216.25,0.239583,Sixteenth,D6
1329,Right,0,89,98,216.5,0.239583,Sixteenth,F6
1330,Right,0,86,99,216.75,0.239583,Sixteenth,D6
1331,Left,1,71,80,216.875,0.114583,ThirtySecond,G#4_B4
1333,Left,1,70,95,217.0,0.489583,Eighth,G4_A#4
1335,Right,0,87,95,217.0,0.239583,Sixteenth,D#6
1336,Right,0,82,91,217.25,0.239583,Sixteenth,A#5
1337,Right,0,79,86,217.5,0.239583,Sixteenth,G5
1338,Right,0,75,81,217.75,0.239583,Sixteenth,D#5
1339,Left,1,67,80,217.875,0.114583,ThirtySecond,G4_A#4
1341,Left,1,68,80,218.0,0.489583,Eighth,G#4_B4
1342,Right,0,74,80,218.0,0.239583,Sixteenth,D5
1344,Right,0,86,80,218.25,0.239583,Sixteenth,D6
1345,Right,0,89,80,218.5,0.239583,Sixteenth,F6
1346,Right,0,86,80,218.75,0.239583,Sixteenth,D6
1347,Left,1,68,80,218.875,0.114583,ThirtySecond,G#4_B4
1350,Left,1,70,80,219.0,0.489583,Eighth,G4_A#4
1349,Right,0,87,80,219.0,0.239583,Sixteenth,D#6
1352,Right,0,82,80,219.25,0.239583,Sixteenth,A#5
1353,Right,0,79,80,219.5,0.239583,Sixteenth,G5
1354,Right,0,75,80,219.75,0.239583,Sixteenth,D#5
1355,Left,1,67,80,219.875,0.114583,ThirtySecond,G4_A#4
1358,Right,0,74,80,220.0,0.239583,Sixteenth,D5
1357,Left,1,71,80,220.0,0.489583,Eighth,G#4_B4
1360,Right,0,86,80,220.25,0.239583,Sixteenth,D6
1361,Right,0,89,80,220.5,0.239583,Sixteenth,F6
1362,Right,0,86,80,220.75,0.239583,Sixteenth,D6
1363,Left,1,71,80,220.875,0.114583,ThirtySecond,G#4_B4
1367,Right,0,87,80,221.0,0.239583,Sixteenth,D#6
1365,Left,1,70,80,221.0,0.489583,Eighth,G4_A#4
1368,Right,0,82,80,221.25,0.239583,Sixteenth,A#5
1369,Right,0,79,80,221.5,0.239583,Sixteenth,G5
1370,Right,0,75,80,221.75,0.239583,Sixteenth,D#5
1371,Left,1,55,80,221.875,0.114583,ThirtySecond,G3
1373,Right,0,72,80,222.0,0.239583,Sixteenth,C5
1372,Left,1,56,80,222.0,0.489583,Eighth,G#3
1374,Right,0,68,80,222.25,0.239583,Sixteenth,G#4
1375,Right,0,63,80,222.5,0.239583,Sixteenth,D#4
1376,Right,0,60,80,222.75,0.239583,Sixteenth,C4
1377,Left,1,44,80,222.875,0.114583,ThirtySecond,G#2
1379,Left,1,46,80,223.0,0.489583,Eighth,A#2
1378,Right,0,58,80,223.0,0.239583,Sixteenth,A#3
1380,Right,0,53,80,223.25,0.239583,Sixteenth,F3
1381,Right,0,50,80,223.5,0.239583,Sixteenth,D3
1382,Right,0,46,80,223.75,0.239583,Sixteenth,A#2
1383,Left,1,34,80,223.875,0.114583,ThirtySecond,A#1
1384,Right,0,51,70,224.0,0.489583,Eighth,D#3
1385,Left,1,39,70,224.0,0.239583,Sixteenth,D#2
1386,Left,1,51,70,224.25,0.239583,Sixteenth,D#3_A#2
1388,Left,1,51,70,224.5,0.239583,Sixteenth,G3_D#3
1391,Left,1,46,70,224.75,0.239583,Sixteenth,D#3_A#2
1390,Right,0,70,70,224.75,0.239583,Sixteenth,A#4
1395,Right,0,67,70,225.0,0.489583,Eighth,G4
1393,Left,1,55,70,225.0,0.239583,Sixteenth,G3_D#3
1396,Left,1,51,70,225.25,0.239583,Sixteenth,D#3_A#2
1398,Left,1,55,70,225.5,0.239583,Sixteenth,G3_D#3
1400,Left,1,51,70,225.75,0.239583,Sixteenth,D#3_A#2
1402,Right,0,75,70,225.75,0.239583,Sixteenth,D#5
1403,Left,1,55,70,226.0,0.239583,Sixteenth,G3_D#3
1405,Right,0,70,70,226.0,0.489583,Eighth,A#4
1406,Left,1,51,70,226.25,0.239583,Sixteenth,D#3_A#2
1408,Left,1,55,70,226.5,0.239583,Sixteenth,G3_D#3
1412,Right,0,79,70,226.75,0.239583,Sixteenth,G5
1410,Left,1,51,70,226.75,0.239583,Sixteenth,D#3_A#2
1414,Right,0,74,70,227.0,0.239583,Sixteenth,D5
1413,Left,1,56,70,227.0,0.239583,Sixteenth,G#3_F3
1418,Right,0,80,70,227.25,0.239583,Sixteenth,G#5
1416,Left,1,53,70,227.25,0.239583,Sixteenth,F3_A#2
1421,Right,0,77,70,227.5,0.239583,Sixteenth,F5
1419,Left,1,53,70,227.5,0.239583,Sixteenth,G#3_F3
1424,Right,0,74,70,227.75,0.239583,Sixteenth,D5
1422,Left,1,53,70,227.75,0.239583,Sixteenth,F3_A#2
1425,Right,0,75,70,228.0,0.489583,Eighth,D#5
1426,Left,1,39,70,228.0,0.239583,Sixteenth,D#2
1427,Left,1,51,70,228.25,0.239583,Sixteenth,D#3_A#2
1429,Left,1,51,70,228.5,0.239583,Sixteenth,G3_D#3
1431,Right,0,70,70,228.75,0.239583,Sixteenth,A#4
1432,Left,1,51,70,228.75,0.239583,Sixteenth,D#3_A#2
1435,Left,1,55,70,229.0,0.239583,Sixteenth,G3_D#3
1434,Right,0,67,70,229.0,0.489583,Eighth,G4
1437,Left,1,51,70,229.25,0.239583,Sixteenth,D#3_A#2
1439,Left,1,55,70,229.5,0.239583,Sixteenth,G3_D#3
1442,Left,1,51,70,229.75,0.239583,Sixteenth,D#3_A#2
1441,Right,0,75,70,229.75,0.239583,Sixteenth,D#5
1445,Left,1,55,70,230.0,0.239583,Sixteenth,G3_D#3
1444,Right,0,70,70,230.0,0.489583,Eighth,A#4
1447,Left,1,51,70,230.25,0.239583,Sixteenth,D#3_A#2
1449,Left,1,55,70,230.5,0.239583,Sixteenth,G3_D#3
1451,Right,0,79,70,230.75,0.239583,Sixteenth,G5
1452,Left,1,51,70,230.75,0.239583,Sixteenth,D#3_A#2
1455,Right,0,74,70,231.0,0.239583,Sixteenth,D5
1454,Left,1,56,70,231.0,0.239583,Sixteenth,G#3_F3
1458,Left,1,53,70,231.25,0.239583,Sixteenth,F3_A#2
1457,Right,0,80,70,231.25,0.239583,Sixteenth,G#5
1460,Left,1,53,70,231.5,0.239583,Sixteenth,G#3_F3
1461,Right,0,77,70,231.5,0.239583,Sixteenth,F5
1463,Left,1,46,70,231.75,0.239583,Sixteenth,F3_A#2
1465,Right,0,74,70,231.75,0.239583,Sixteenth,D5
1467,Right,0,75,70,232.0,0.489583,Eighth,D#5
1466,Left,1,51,70,232.0,0.239583,Sixteenth,G3_D#3
1469,Left,1,46,70,232.25,0.239583,Sixteenth,D#3_A#2
1471,Left,1,55,70,232.5,0.239583,Sixteenth,G3_D#3
1473,Right,0,91,70,232.75,0.239583,Sixteenth,G6
1474,Left,1,46,70,232.75,0.239583,Sixteenth,D#3_A#2
1477,Right,0,86,70,233.0,0.239583,Sixteenth,D6
1476,Left,1,53,70,233.0,0.239583,Sixteenth,G#3_F3
1480,Left,1,46,70,233.25,0.239583,Sixteenth,F3_A#2
1479,Right,0,92,70,233.25,0.239583,Sixteenth,G#6
1483,Left,1,53,70,233.5,0.239583,Sixteenth,G#3_F3
1482,Right,0,89,70,233.5,0.239583,Sixteenth,F6
1485,Right,0,86,70,233.75,0.239583,Sixteenth,D6
1486,Left,1,46,70,233.75,0.239583,Sixteenth,F3_A#2
1488,Left,1,51,70,234.0,0.239583,Sixteenth,G3_D#3
1490,Right,0,87,70,234.0,0.489583,Eighth,D#6
1491,Left,1,51,70,234.25,0.239583,Sixteenth,D#3_A#2
1493,Left,1,51,70,234.5,0.239583,Sixteenth,G3_D#3
1496,Left,1,51,70,234.75,0.239583,Sixteenth,D#3_A#2
1495,Right,0,79,70,234.75,0.239583,Sixteenth,G5
1499,Left,1,53,70,235.0,0.239583,Sixteenth,G#3_F3
1498,Right,0,74,70,235.0,0.239583,Sixteenth,D5
1503,Right,0,80,70,235.25,0.239583,Sixteenth,G#5
1501,Left,1,53,70,235.25,0.239583,Sixteenth,F3_A#2
1504,Left,1,53,70,235.5,0.239583,Sixteenth,G#3_F3
1506,Right,0,77,70,235.5,0.239583,Sixteenth,F5
1509,Right,0,74,70,235.75,0.239583,Sixteenth,D5
1507,Left,1,46,70,235.75,0.239583,Sixteenth,F3_A#2
1510,Left,1,51,80,236.0,0.489583,Eighth,G3_D#3
1511,Right,0,75,80,236.0,0.239583,Sixteenth,D#5
1513,Right,0,79,80,236.25,0.239583,Sixteenth,G5
1514,Right,0,70,80,236.5,0.239583,Sixteenth,A#4
1515,Right,0,75,80,236.75,0.239583,Sixteenth,D#5
1516,Right,0,67,80,237.0,0.239583,Sixteenth,G4
1517,Right,0,70,80,237.25,0.239583,Sixteenth,A#4
1518,Right,0,68,80,237.5,0.239583,Sixteenth,G#4
1519,Right,0,65,80,237.75,0.239583,Sixteenth,F4
1520,Left,1,51,80,238.0,0.239583,Sixteenth,D#3
1521,Right,0,63,80,238.0,0.239583,Sixteenth,D#4
1523,Right,0,67,80,238.25,0.239583,Sixteenth,G4
1522,Left,1,55,80,238.25,0.239583,Sixteenth,G3
1525,Left,1,46,80,238.5,0.239583,Sixteenth,A#2
1524,Right,0,58,80,238.5,0.239583,Sixteenth,A#3
1526,Left,1,51,80,238.75,0.239583,Sixteenth,D#3
1527,Right,0,63,80,238.75,0.239583,Sixteenth,D#4
1529,Left,1,43,80,239.0,0.239583,Sixteenth,G2
1528,Right,0,55,80,239.0,0.239583,Sixteenth,G3
1531,Left,1,46,80,239.25,0.239583,Sixteenth,A#2
1530,Right,0,58,80,239.25,0.239583,Sixteenth,A#3
1533,Left,1,44,80,239.5,0.239583,Sixteenth,G#2
1532,Right,0,56,80,239.5,0.239583,Sixteenth,G#3
1535,Left,1,41,80,239.75,0.239583,Sixteenth,F2
1534,Right,0,53,80,239.75,0.239583,Sixteenth,F3
1536,Right,0,51,80,240.0,0.239583,Sixteenth,D#3
1537,Left,1,39,80,240.0,0.489583,Eighth,D#2
1538,Right,0,55,80,240.25,0.239583,Sixteenth,G3
1539,Right,0,46,80,240.5,0.239583,Sixteenth,A#2
1540,Right,0,51,80,240.75,0.239583,Sixteenth,D#3
1541,Left,1,39,80,241.0,0.489583,Eighth,D#2
1542,Right,0,46,80,241.25,0.239583,Sixteenth,A#2
1543,Right,0,43,80,241.5,0.239583,Sixteenth,G2
1544,Right,0,46,80,241.75,0.239583,Sixteenth,A#2
1545,Left,1,39,80,242.0,0.489583,Eighth,D#2
1546,Right,0,46,80,242.25,0.239583,Sixteenth,A#2
1547,Right,0,43,80,242.5,0.239583,Sixteenth,G2
1548,Right,0,46,80,242.75,0.239583,Sixteenth,A#2
1549,Left,1,39,80,243.0,0.489583,Eighth,D#2
1550,Right,0,46,80,243.25,0.239583,Sixteenth,A#2
1551,Right,0,43,80,243.5,0.239583,Sixteenth,G2
1552,Right,0,46,80,243.75,0.239583,Sixteenth,A#2
1553,Left,1,39,80,244.0,0.489583,Eighth,D#2
1554,Right,0,47,81,244.25,0.239583,Sixteenth,B2
1555,Right,0,43,82,244.5,0.239583,Sixteenth,G2
1556,Right,0,47,83,244.75,0.239583,Sixteenth,B2
1557,Left,1,39,85,245.0,0.489583,Eighth,D#2
1558,Right,0,47,86,245.25,0.239583,Sixteenth,B2
1559,Right,0,43,87,245.5,0.239583,Sixteenth,G2
1560,Right,0,47,89,245.75,0.239583,Sixteenth,B2
1561,Left,1,39,90,246.0,0.489583,Eighth,D#2
1562,Right,0,47,91,246.25,0.239583,Sixteenth,B2
1563,Right,0,43,93,246.5,0.239583,Sixteenth,G2
1564,Right,0,47,94,246.75,0.239583,Sixteenth,B2
1565,Left,1,39,95,247.0,0.489583,Eighth,D#2
1566,Right,0,47,97,247.25,0.239583,Sixteenth,B2
1567,Right,0,43,98,247.5,0.239583,Sixteenth,G2
1568,Right,0,47,99,247.75,0.239583,Sixteenth,B2
1569,Left,1,40,100,248.0,0.489583,Eighth,E2
1570,Right,0,48,99,248.25,0.239583,Sixteenth,C3
1571,Right,0,43,98,248.5,0.239583,Sixteenth,G2
1572,Right,0,48,97,248.75,0.239583,Sixteenth,C3
1573,Left,1,40,95,249.0,0.489583,Eighth,E2
1574,Right,0,48,94,249.25,0.239583,Sixteenth,C3
1575,Right,0,43,93,249.5,0.239583,Sixteenth,G2
1576,Right,0,48,91,249.75,0.239583,Sixteenth,C3
1577,Left,1,40,90,250.0,0.489583,Eighth,E2
1578,Right,0,48,89,250.25,0.239583,Sixteenth,C3
1579,Right,0,43,87,250.5,0.239583,Sixteenth,G2
1580,Right,0,48,86,250.75,0.239583,Sixteenth,C3
1581,Left,1,40,85,251.0,0.489583,Eighth,E2
1582,Right,0,48,83,251.25,0.239583,Sixteenth,C3
1583,Right,0,43,82,251.5,0.239583,Sixteenth,G2
1584,Right,0,48,81,251.75,0.239583,Sixteenth,C3
1585,Right,0,60,80,252.0,1.489583,DottedQuarter,F4_C4_A4
1588,Left,1,41,80,252.25,0.239583,Sixteenth,F2
1589,Left,1,45,80,252.5,0.239583,Sixteenth,A2
1590,Left,1,48,80,252.75,0.239583,Sixteenth,C3
1591,Left,1,53,80,253.0,0.239583,Sixteenth,F3
1592,Left,1,41,80,253.25,0.239583,Sixteenth,F2
1594,Right,0,64,80,253.5,0.489583,Eighth,E4_C4_A#4
1593,Left,1,43,80,253.5,0.239583,Sixteenth,G2
1597,Left,1,55,80,253.75,0.239583,Sixteenth,G3
1598,Right,0,65,80,254.0,1.489583,DottedQuarter,F4_C5_C4
1601,Left,1,45,80,254.25,0.239583,Sixteenth,A2
1602,Left,1,48,80,254.5,0.239583,Sixteenth,C3
1603,Left,1,53,80,254.75,0.239583,Sixteenth,F3
1604,Left,1,57,80,255.0,0.239583,Sixteenth,A3
1605,Left,1,45,80,255.25,0.239583,Sixteenth,A2
1606,Left,1,46,80,255.5,0.239583,Sixteenth,A#2
1607,Right,0,62,80,255.5,0.989583,Quarter,D5_D4
1609,Left,1,58,80,255.75,0.239583,Sixteenth,A#3
1610,Right,0,70,80,256.0,0.489583,Eighth,A#4
1611,Left,1,43,80,256.0,0.239583,Sixteenth,G2
1612,Left,1,55,80,256.25,0.239583,Sixteenth,G3
1613,Right,0,67,80,256.5,0.489583,Eighth,G4_C5
1614,Left,1,40,80,256.5,0.239583,Sixteenth,E2
1616,Left,1,52,80,256.75,0.239583,Sixteenth,E3
1617,Right,0,69,80,257.0,0.489583,Eighth,C4_A4
1619,Left,1,41,80,257.0,0.239583,Sixteenth,F2
1620,Left,1,53,80,257.25,0.239583,Sixteenth,F3
1623,Left,1,45,80,257.5,0.239583,Sixteenth,A2
1621,Right,0,65,80,257.5,0.489583,Eighth,F4_C4
1624,Left,1,57,80,257.75,0.239583,Sixteenth,A3
1627,Left,1,48,80,258.0,0.239583,Sixteenth,C3
1625,Right,0,67,80,258.0,1.239583,TiedQuarter-Sixteenth,G4_E4
1628,Left,1,60,80,258.25,0.239583,Sixteenth,C4
1629,Left,1,60,80,258.5,0.239583,Sixteenth,C4
1630,Left,1,60,80,258.75,0.239583,Sixteenth,C4
1631,Left,1,60,80,259.0,0.239583,Sixteenth,C4
1632,Left,1,58,80,259.25,0.239583,Sixteenth,A#3
1633,Right,0,64,80,259.25,0.239583,Sixteenth,E4_C4
1636,Right,0,65,80,259.5,0.239583,Sixteenth,F4_D4
1635,Left,1,57,80,259.5,0.239583,Sixteenth,A3
1638,Left,1,55,80,259.75,0.239583,Sixteenth,G3
1639,Right,0,64,80,259.75,0.239583,Sixteenth,G4_E4
1641,Right,0,60,80,260.0,1.489583,DottedQuarter,F4_C4_A4
1644,Left,1,41,80,260.25,0.239583,Sixteenth,F2
1645,Left,1,45,80,260.5,0.239583,Sixteenth,A2
1646,Left,1,48,80,260.75,0.239583,Sixteenth,C3
1647,Left,1,53,80,261.0,0.239583,Sixteenth,F3
1648,Left,1,41,80,261.25,0.239583,Sixteenth,F2
1650,Left,1,43,80,261.5,0.239583,Sixteenth,G2
1649,Right,0,64,80,261.5,0.489583,Eighth,E4_C4_A#4
1653,Left,1,55,80,261.75,0.239583,Sixteenth,G3
1654,Right,0,72,80,262.0,1.489583,DottedQuarter,F4_C5_C4
1657,Left,1,45,80,262.25,0.239583,Sixteenth,A2
1658,Left,1,48,80,262.5,0.239583,Sixteenth,C3
1659,Left,1,53,80,262.75,0.239583,Sixteenth,F3
1660,Left,1,57,80,263.0,0.239583,Sixteenth,A3
1661,Left,1,45,80,263.25,0.239583,Sixteenth,A2
1663,Right,0,73,80,263.5,0.489583,Eighth,F4_C#5_C#4
1662,Left,1,46,80,263.5,0.239583,Sixteenth,A#2
1666,Left,1,58,80,263.75,0.239583,Sixteenth,A#3
1667,Left,1,48,80,264.0,0.489583,Eighth,C4_C3
1668,Right,0,63,80,264.0,0.239583,Sixteenth,D#5_D#4
1671,Right,0,81,82,264.25,0.239583,Sixteenth,A5
1672,Right,0,84,85,264.5,0.239583,Sixteenth,C6
1673,Right,0,81,88,264.75,0.239583,Sixteenth,A5
1674,Left,1,63,89,264.875,0.114583,ThirtySecond,F#4_D#4
1676,Right,0,84,91,265.0,0.239583,Sixteenth,C6
1677,Left,1,63,91,265.0,0.489583,Eighth,F#4_D#4
1679,Right,0,81,94,265.25,0.239583,Sixteenth,A5
1680,Right,0,84,97,265.5,0.239583,Sixteenth,C6
1681,Right,0,81,99,265.75,0.239583,Sixteenth,A5
1682,Left,1,63,80,265.875,0.114583,ThirtySecond,F#4_D#4
1686,Right,0,84,95,266.0,0.239583,Sixteenth,C6
1684,Left,1,66,95,266.0,0.489583,Eighth,F#4_D#4
1687,Right,0,81,93,266.25,0.239583,Sixteenth,A5
1688,Right,0,84,91,266.5,0.239583,Sixteenth,C6
1689,Right,0,81,89,266.75,0.239583,Sixteenth,A5
1690,Left,1,63,88,266.875,0.114583,ThirtySecond,F#4_D#4
1692,Right,0,82,87,267.0,0.239583,Sixteenth,A#5
1693,Left,1,61,87,267.0,0.489583,Eighth,F4_C#4
1695,Right,0,77,85,267.25,0.239583,Sixteenth,F5
1696,Right,0,73,83,267.5,0.239583,Sixteenth,C#5
1697,Right,0,70,81,267.75,0.239583,Sixteenth,A#4
1698,Left,1,49,80,267.875,0.114583,ThirtySecond,F3_C#3
1703,Right,0,69,80,268.0,0.239583,Sixteenth,A4
1700,Left,1,51,80,268.0,0.489583,Eighth,F#3_D#3_C3
1704,Right,0,81,82,268.25,0.239583,Sixteenth,A5
1705,Right,0,84,85,268.5,0.239583,Sixteenth,C6
1706,Right,0,81,88,268.75,0.239583,Sixteenth,A5
1707,Left,1,63,89,268.875,0.114583,ThirtySecond,F#4_D#4
1709,Left,1,63,91,269.0,0.489583,Eighth,F#4_D#4
1711,Right,0,84,91,269.0,0.239583,Sixteenth,C6
1712,Right,0,81,94,269.25,0.239583,Sixteenth,A5
1713,Right,0,84,97,269.5,0.239583,Sixteenth,C6
1714,Right,0,81,99,269.75,0.239583,Sixteenth,A5
1715,Left,1,63,80,269.875,0.114583,ThirtySecond,F#4_D#4
1718,Right,0,84,95,270.0,0.239583,Sixteenth,C6
1717,Left,1,63,95,270.0,0.489583,Eighth,F#4_D#4
1720,Right,0,81,93,270.25,0.239583,Sixteenth,A5
1721,Right,0,84,91,270.5,0.239583,Sixteenth,C6
1722,Right,0,81,89,270.75,0.239583,Sixteenth,A5
1723,Left,1,66,88,270.875,0.114583,ThirtySecond,F#4_D#4
1725,Left,1,65,87,271.0,0.489583,Eighth,F4_C#4
1727,Right,0,82,87,271.0,0.239583,Sixteenth,A#5
1728,Right,0,77,85,271.25,0.239583,Sixteenth,F5
1729,Right,0,73,83,271.5,0.239583,Sixteenth,C#5
1730,Right,0,70,81,271.75,0.239583,Sixteenth,A#4
1731,Left,1,49,80,271.875,0.114583,ThirtySecond,F3_C#3
1733,Left,1,68,80,272.0,0.489583,Eighth,G#4_F4_D4
1736,Right,0,71,80,272.0,0.239583,Sixteenth,B4
1737,Right,0,83,80,272.25,0.239583,Sixteenth,B5
1738,Right,0,86,80,272.5,0.239583,Sixteenth,D6
1739,Right,0,83,80,272.75,0.239583,Sixteenth,B5
1740,Left,1,65,80,272.875,0.114583,ThirtySecond,G#4_F4
1742,Left,1,67,80,273.0,0.489583,Eighth,G4_D#4
1744,Right,0,84,80,273.0,0.239583,Sixteenth,C6
1745,Right,0,79,80,273.25,0.239583,Sixteenth,G5
1746,Right,0,75,80,273.5,0.239583,Sixteenth,D#5
1747,Right,0,72,80,273.75,0.239583,Sixteenth,C5
1748,Left,1,63,80,273.875,0.114583,ThirtySecond,G4_D#4
1751,Right,0,71,80,274.0,0.239583,Sixteenth,B4
1750,Left,1,65,80,274.0,0.489583,Eighth,G#4_F4
1753,Right,0,83,80,274.25,0.239583,Sixteenth,B5
1754,Right,0,86,80,274.5,0.239583,Sixteenth,D6
1755,Right,0,83,80,274.75,0.239583,Sixteenth,B5
1756,Left,1,65,80,274.875,0.114583,ThirtySecond,G#4_F4
1758,Right,0,84,80,275.0,0.239583,Sixteenth,C6
1759,Left,1,63,80,275.0,0.489583,Eighth,G4_D#4
1761,Right,0,79,80,275.25,0.239583,Sixteenth,G5
1762,Right,0,75,80,275.5,0.239583,Sixteenth,D#5
1763,Right,0,72,80,275.75,0.239583,Sixteenth,C5
1764,Right,0,79,80,276.0,0.239583,Sixteenth,G5
1765,Right,0,75,80,276.25,0.239583,Sixteenth,D#5
1766,Right,0,72,80,276.5,0.239583,Sixteenth,C5
1767,Right,0,67,80,276.75,0.239583,Sixteenth,G4
1769,Left,1,63,80,277.0,0.239583,Sixteenth,D#4
1768,Right,0,75,80,277.0,0.239583,Sixteenth,D#5
1770,Right,0,72,80,277.25,0.239583,Sixteenth,C5
1771,Left,1,60,80,277.25,0.239583,Sixteenth,C4
1772,Right,0,67,80,277.5,0.239583,Sixteenth,G4
1773,Left,1,55,80,277.5,0.239583,Sixteenth,G3
1775,Left,1,51,80,277.75,0.239583,Sixteenth,D#3
1774,Right,0,63,80,277.75,0.239583,Sixteenth,D#4
1777,Right,0,72,80,278.0,0.239583,Sixteenth,C5
1776,Left,1,60,80,278.0,0.239583,Sixteenth,C4
1779,Right,0,67,80,278.25,0.239583,Sixteenth,G4
1778,Left,1,55,80,278.25,0.239583,Sixteenth,G3
1781,Left,1,51,80,278.5,0.239583,Sixteenth,D#3
1780,Right,0,63,80,278.5,0.239583,Sixteenth,D#4
1783,Left,1,48,80,278.75,0.239583,Sixteenth,C3
1782,Right,0,60,80,278.75,0.239583,Sixteenth,C4
1784,Left,1,55,80,279.0,0.239583,Sixteenth,G3
1785,Right,0,67,80,279.0,0.239583,Sixteenth,G4
1786,Left,1,51,80,279.25,0.239583,Sixteenth,D#3
1787,Right,0,63,80,279.25,0.239583,Sixteenth,D#4
1789,Left,1,48,80,279.5,0.239583,Sixteenth,C3
1788,Right,0,60,80,279.5,0.239583,Sixteenth,C4
1790,Right,0,55,80,279.75,0.239583,Sixteenth,G3
1791,Left,1,43,80,279.75,0.239583,Sixteenth,G2
1792,Left,1,51,80,280.0,0.239583,Sixteenth,D#3
1793,Right,0,63,80,280.0,0.239583,Sixteenth,D#4
1794,Right,0,60,80,280.25,0.239583,Sixteenth,C4
1795,Left,1,48,80,280.25,0.239583,Sixteenth,C3
1796,Right,0,55,80,280.5,0.239583,Sixteenth,G3
1797,Left,1,43,80,280.5,0.239583,Sixteenth,G2
1798,Right,0,51,80,280.75,0.239583,Sixteenth,D#3
1799,Left,1,39,80,280.75,0.239583,Sixteenth,D#2
1800,Right,0,60,80,281.0,0.239583,Sixteenth,C4
1801,Left,1,48,80,281.0,0.239583,Sixteenth,C3
1802,Right,0,55,80,281.25,0.239583,Sixteenth,G3
1803,Left,1,43,80,281.25,0.239583,Sixteenth,G2
1804,Right,0,51,80,281.5,0.239583,Sixteenth,D#3
1805,Left,1,39,80,281.5,0.239583,Sixteenth,D#2
1807,Right,0,48,80,281.75,0.239583,Sixteenth,C3
1806,Left,1,36,80,281.75,0.239583,Sixteenth,C2
1809,Left,1,31,80,282.0,0.239583,Sixteenth,G1
1808,Right,0,43,80,282.0,0.239583,Sixteenth,G2
1810,Right,0,55,80,282.25,0.239583,Sixteenth,G3
1811,Left,1,43,80,282.25,0.239583,Sixteenth,G2
1813,Right,0,59,80,282.5,0.239583,Sixteenth,B3
1812,Left,1,47,80,282.5,0.239583,Sixteenth,B2
1815,Right,0,55,80,282.75,0.239583,Sixteenth,G3
1814,Left,1,43,80,282.75,0.239583,Sixteenth,G2
1816,Right,0,60,90,283.0,0.239583,Sixteenth,C4
1817,Left,1,48,90,283.0,0.239583,Sixteenth,C3
1818,Left,1,43,80,283.25,0.239583,Sixteenth,G2
1819,Right,0,55,80,283.25,0.239583,Sixteenth,G3
1821,Right,0,51,80,283.5,0.239583,Sixteenth,D#3
1820,Left,1,39,80,283.5,0.239583,Sixteenth,D#2
1823,Right,0,48,80,283.75,0.239583,Sixteenth,C3
1822,Left,1,36,80,283.75,0.239583,Sixteenth,C2
1825,Right,0,43,80,284.0,0.239583,Sixteenth,G2
1824,Left,1,31,80,284.0,0.239583,Sixteenth,G1
1826,Right,0,55,80,284.25,0.239583,Sixteenth,G3
1827,Left,1,43,80,284.25,0.239583,Sixteenth,G2
1829,Right,0,59,80,284.5,0.239583,Sixteenth,B3
1828,Left,1,47,80,284.5,0.239583,Sixteenth,B2
1831,Right,0,55,80,284.75,0.239583,Sixteenth,G3
1830,Left,1,43,80,284.75,0.239583,Sixteenth,G2
1832,Right,0,60,90,285.0,0.239583,Sixteenth,C4
1833,Left,1,48,90,285.0,0.239583,Sixteenth,C3
1835,Right,0,55,80,285.25,0.239583,Sixteenth,G3
1834,Left,1,43,80,285.25,0.239583,Sixteenth,G2
1836,Right,0,51,80,285.5,0.239583,Sixteenth,D#3
1837,Left,1,39,80,285.5,0.239583,Sixteenth,D#2
1838,Right,0,48,80,285.75,0.239583,Sixteenth,C3
1839,Left,1,36,80,285.75,0.239583,Sixteenth,C2
1840,Left,1,31,80,286.0,0.239583,Sixteenth,G1
1841,Right,0,43,80,286.0,0.239583,Sixteenth,G2
1842,Left,1,33,81,286.25,0.239583,Sixteenth,A1
1843,Right,0,45,81,286.25,0.239583,Sixteenth,A2
1844,Left,1,35,82,286.5,0.239583,Sixteenth,B1
1845,Right,0,47,82,286.5,0.239583,Sixteenth,B2
1847,Right,0,48,83,286.75,0.239583,Sixteenth,C3
1846,Left,1,36,83,286.75,0.239583,Sixteenth,C2
1848,Left,1,38,85,287.0,0.239583,Sixteenth,D2
1849,Right,0,50,85,287.0,0.239583,Sixteenth,D3
1850,Left,1,40,86,287.25,0.239583,Sixteenth,E2
1851,Right,0,52,86,287.25,0.239583,Sixteenth,E3
1852,Left,1,41,87,287.5,0.239583,Sixteenth,F2
1853,Right,0,53,87,287.5,0.239583,Sixteenth,F3
1855,Left,1,42,89,287.75,0.239583,Sixteenth,F#2
1854,Right,0,54,89,287.75,0.239583,Sixteenth,F#3
1856,Right,0,55,90,288.0,0.239583,Sixteenth,G3
1857,Left,1,43,90,288.0,0.239583,Sixteenth,G2
1858,Right,0,57,91,288.25,0.239583,Sixteenth,A3
1859,Left,1,45,91,288.25,0.239583,Sixteenth,A2
1861,Right,0,58,93,288.5,0.239583,Sixteenth,A#3
1860,Left,1,46,93,288.5,0.239583,Sixteenth,A#2
1863,Right,0,59,94,288.75,0.239583,Sixteenth,B3
1862,Left,1,47,94,288.75,0.239583,Sixteenth,B2
1865,Right,0,60,95,289.0,0.239583,Sixteenth,C4
1864,Left,1,48,95,289.0,0.239583,Sixteenth,C3
1866,Left,1,49,97,289.25,0.239583,Sixteenth,C#3
1867,Right,0,61,97,289.25,0.239583,Sixteenth,C#4
1869,Right,0,62,98,289.5,0.239583,Sixteenth,D4
1868,Left,1,50,98,289.5,0.239583,Sixteenth,D3
1871,Right,0,63,99,289.75,0.239583,Sixteenth,D#4
1870,Left,1,51,99,289.75,0.239583,Sixteenth,D#3
1872,Right,0,64,80,290.0,1.489583,DottedQuarter,G3_E4_C4
1875,Left,1,36,80,290.25,0.239583,Sixteenth,C2
1876,Left,1,40,80,290.5,0.239583,Sixteenth,E2
1877,Left,1,43,80,290.75,0.239583,Sixteenth,G2
1878,Left,1,48,80,291.0,0.239583,Sixteenth,C3
1879,Left,1,36,80,291.25,0.239583,Sixteenth,C2
1883,Left,1,38,80,291.5,0.239583,Sixteenth,D2
1880,Right,0,59,80,291.5,0.489583,Eighth,G3_F4_B3
1884,Left,1,50,80,291.75,0.239583,Sixteenth,D3
1885,Right,0,55,80,292.0,1.489583,DottedQuarter,G4_G3_C4
1888,Left,1,40,80,292.25,0.239583,Sixteenth,E2
1889,Left,1,43,80,292.5,0.239583,Sixteenth,G2
1890,Left,1,48,80,292.75,0.239583,Sixteenth,C3
1891,Left,1,52,80,293.0,0.239583,Sixteenth,E3
1892,Left,1,40,80,293.25,0.239583,Sixteenth,E2
1893,Left,1,41,80,293.5,0.239583,Sixteenth,F2
1894,Right,0,69,80,293.5,0.989583,Eighth,A4_A3
1896,Left,1,53,80,293.75,0.239583,Sixteenth,F3
1898,Right,0,65,80,294.0,0.489583,Eighth,F4
1897,Left,1,38,80,294.0,0.239583,Sixteenth,D2
1899,Left,1,50,80,294.25,0.239583,Sixteenth,D3
1900,Left,1,35,80,294.5,0.239583,Sixteenth,B1
1901,Right,0,67,80,294.5,0.489583,Eighth,G4_D4
1903,Left,1,47,80,294.75,0.239583,Sixteenth,B2
1905,Right,0,64,80,295.0,0.489583,Eighth,G3_E4
1904,Left,1,36,80,295.0,0.239583,Sixteenth,C2
1907,Left,1,48,80,295.25,0.239583,Sixteenth,C3
1908,Left,1,40,80,295.5,0.239583,Sixteenth,E2
1909,Right,0,60,80,295.5,0.489583,Eighth,G3_C4
1911,Left,1,52,80,295.75,0.239583,Sixteenth,E3
1913,Left,1,43,80,296.0,0.239583,Sixteenth,G2
1912,Right,0,62,80,296.0,1.489583,DottedQuarter,D4_B3
1915,Left,1,55,80,296.25,0.239583,Sixteenth,G3
1916,Left,1,55,80,296.5,0.239583,Sixteenth,G3
1917,Left,1,55,80,296.75,0.239583,Sixteenth,G3
1918,Left,1,55,80,297.0,0.239583,Sixteenth,G3
1919,Left,1,53,80,297.25,0.239583,Sixteenth,F3
1920,Left,1,52,80,297.5,0.239583,Sixteenth,E3
1921,Right,0,67,80,297.5,0.145833,TripletSixteenth,G4
1922,Right,0,69,80,297.59375,0.145833,TripletSixteenth,A4
1923,Right,0,71,80,297.6875,0.145833,TripletSixteenth,B4
1924,Left,1,50,80,297.75,0.239583,Sixteenth,D3
1925,Right,0,72,80,297.78125,0.135417,ThirtySecond,C5
1926,Right,0,74,80,297.875,0.135417,ThirtySecond,D5
1927,Right,0,76,80,298.0,1.489583,DottedQuarter,E5
1928,Left,1,48,81,298.25,0.239583,Sixteenth,C3
1929,Left,1,52,83,298.5,0.239583,Sixteenth,E3
1930,Left,1,55,84,298.75,0.239583,Sixteenth,G3
1931,Left,1,60,85,299.0,0.239583,Sixteenth,C4
1932,Left,1,48,86,299.25,0.239583,Sixteenth,C3
1934,Right,0,77,88,299.5,0.489583,Eighth,F5
1933,Left,1,50,88,299.5,0.239583,Sixteenth,D3
1935,Left,1,62,89,299.75,0.239583,Sixteenth,D4
1936,Right,0,79,90,300.0,1.489583,DottedQuarter,G5
1937,Left,1,52,91,300.25,0.239583,Sixteenth,E3
1938,Left,1,55,92,300.5,0.239583,Sixteenth,G3
1939,Left,1,60,94,300.75,0.239583,Sixteenth,C4
1940,Left,1,64,95,301.0,0.239583,Sixteenth,E4
1941,Left,1,52,96,301.25,0.239583,Sixteenth,E3
1942,Left,1,53,97,301.5,0.239583,Sixteenth,F3
1944,Right,0,74,98,301.583333,0.072917,TripletThirtySecond,D5
1945,Right,0,76,98,301.666667,0.072917,TripletThirtySecond,E5
1947,Right,0,77,99,301.75,0.072917,TripletThirtySecond,F5
1946,Left,1,65,99,301.75,0.239583,Sixteenth,F4
1948,Right,0,79,99,301.833333,0.072917,TripletThirtySecond,G5
1949,Right,0,80,99,301.916667,0.072917,TripletThirtySecond,G#5
1950,Right,0,82,102,302.0,1.489583,DottedQuarter,A#5
1951,Left,1,55,80,302.25,0.239583,Sixteenth,G3
1952,Left,1,60,80,302.5,0.239583,Sixteenth,C4
1953,Left,1,64,80,302.75,0.239583,Sixteenth,E4
1954,Left,1,67,80,303.0,0.239583,Sixteenth,G4
1955,Left,1,55,80,303.25,0.239583,Sixteenth,G3
1956,Right,0,84,80,303.5,0.489583,Eighth,C6
1957,Left,1,56,80,303.5,0.239583,Sixteenth,G#3
1958,Left,1,68,80,303.75,0.239583,Sixteenth,G#4
1959,Right,0,85,80,304.0,0.489583,Eighth,C#6
1960,Left,1,58,80,304.25,0.239583,Sixteenth,A#3
1961,Left,1,61,80,304.5,0.239583,Sixteenth,C#4
1962,Right,0,79,80,304.75,0.114583,ThirtySecond,G5
1963,Left,1,64,80,304.75,0.239583,Sixteenth,E4
1964,Right,0,80,80,304.8125,0.114583,ThirtySecond,G#5
1965,Right,0,82,80,304.875,0.114583,ThirtySecond,A#5
1966,Right,0,84,80,304.9375,0.114583,ThirtySecond,C6
1967,Right,0,85,80,305.0,0.489583,Eighth,C#6
1968,Left,1,58,80,305.25,0.239583,Sixteenth,A#3
1969,Left,1,61,80,305.5,0.239583,Sixteenth,C#4
1970,Left,1,64,80,305.75,0.239583,Sixteenth,E4
1971,Right,0,67,80,305.75,0.114583,ThirtySecond,G4
1972,Right,0,68,80,305.8125,0.114583,ThirtySecond,G#4
1973,Right,0,70,80,305.875,0.114583,ThirtySecond,A#4
1974,Right,0,72,80,305.9375,0.114583,ThirtySecond,C5
1975,Right,0,73,80,306.0,0.489583,Eighth,C#5
1976,Left,1,58,80,306.25,0.239583,Sixteenth,A#3
1977,Left,1,61,80,306.5,0.239583,Sixteenth,C#4
1979,Right,0,43,100,306.75,0.114583,ThirtySecond,G2
1978,Left,1,64,100,306.75,0.239583,Sixteenth,E4
1980,Right,0,44,100,306.8125,0.114583,ThirtySecond,G#2
1981,Right,0,46,100,306.875,0.114583,ThirtySecond,A#2
1982,Right,0,48,100,306.9375,0.114583,ThirtySecond,C3
1983,Right,0,49,100,307.0,0.489583,Eighth,C#3
1984,Left,1,58,100,307.25,0.239583,Sixteenth,A#3
1985,Left,1,61,100,307.5,0.239583,Sixteenth,C#4
1986,Right,0,49,100,307.75,0.114583,ThirtySecond,C#3
1987,Left,1,64,100,307.75,0.239583,Sixteenth,E4
1988,Right,0,48,100,307.8125,0.114583,ThirtySecond,C3
1989,Right,0,46,100,307.875,0.114583,ThirtySecond,A#2
1990,Right,0,44,100,307.9375,0.114583,ThirtySecond,G#2
1991,Right,0,43,100,308.0,0.489583,Eighth,G2
1992,Left,1,58,100,308.25,0.239583,Sixteenth,A#3
1993,Left,1,61,80,308.5,0.239583,Sixteenth,C#4
1994,Right,0,79,80,308.75,0.114583,ThirtySecond,G5
1995,Left,1,64,80,308.75,0.239583,Sixteenth,E4
1996,Right,0,80,80,308.8125,0.114583,ThirtySecond,G#5
1997,Right,0,82,80,308.875,0.114583,ThirtySecond,A#5
1998,Right,0,84,80,308.9375,0.114583,ThirtySecond,C6
1999,Right,0,85,80,309.0,0.489583,Eighth,C#6
2000,Left,1,58,80,309.25,0.239583,Sixteenth,A#3
2001,Left,1,61,80,309.5,0.239583,Sixteenth,C#4
2003,Right,0,67,80,309.75,0.114583,ThirtySecond,G4
2002,Left,1,64,80,309.75,0.239583,Sixteenth,E4
2004,Right,0,68,80,309.8125,0.114583,ThirtySecond,G#4
2005,Right,0,70,80,309.875,0.114583,ThirtySecond,A#4
2006,Right,0,72,80,309.9375,0.114583,ThirtySecond,C5
2007,Right,0,73,80,310.0,0.489583,Eighth,C#5
2008,Left,1,58,80,310.25,0.239583,Sixteenth,A#3
2009,Left,1,61,80,310.5,0.239583,Sixteenth,C#4
2010,Right,0,43,100,310.75,0.114583,ThirtySecond,G2
2011,Left,1,64,100,310.75,0.239583,Sixteenth,E4
2012,Right,0,44,100,310.8125,0.114583,ThirtySecond,G#2
2013,Right,0,46,100,310.875,0.114583,ThirtySecond,A#2
2014,Right,0,48,100,310.9375,0.114583,ThirtySecond,C3
2015,Right,0,49,100,311.0,0.489583,Eighth,C#3
2016,Left,1,58,100,311.25,0.239583,Sixteenth,A#3
2017,Left,1,61,100,311.5,0.239583,Sixteenth,C#4
2019,Left,1,64,100,311.75,0.239583,Sixteenth,E4
2018,Right,0,49,100,311.75,0.114583,ThirtySecond,C#3
2020,Right,0,48,100,311.8125,0.114583,ThirtySecond,C3
2021,Right,0,46,100,311.875,0.114583,ThirtySecond,A#2
2022,Right,0,44,100,311.9375,0.114583,ThirtySecond,G#2
2023,Right,0,43,100,312.0,0.489583,Eighth,G2
2024,Left,1,58,100,312.25,0.239583,Sixteenth,A#3
2025,Left,1,61,80,312.5,0.239583,Sixteenth,C#4
2026,Right,0,43,80,312.75,0.114583,ThirtySecond,G2
2027,Left,1,63,80,312.75,0.239583,Sixteenth,D#4
2028,Right,0,44,80,312.8125,0.114583,ThirtySecond,G#2
2029,Right,0,46,80,312.875,0.114583,ThirtySecond,A#2
2030,Right,0,48,80,312.9375,0.114583,ThirtySecond,C3
2031,Right,0,49,80,313.0,0.489583,Eighth,C#3
2032,Left,1,58,80,313.25,0.239583,Sixteenth,A#3
2033,Left,1,61,80,313.5,0.239583,Sixteenth,C#4
2034,Right,0,49,80,313.75,0.114583,ThirtySecond,C#3
2035,Left,1,64,80,313.75,0.239583,Sixteenth,E4
2036,Right,0,48,80,313.8125,0.114583,ThirtySecond,C3
2037,Right,0,46,80,313.875,0.114583,ThirtySecond,A#2
2038,Right,0,44,80,313.9375,0.114583,ThirtySecond,G#2
2039,Right,0,43,80,314.0,0.489583,Eighth,G2
2040,Left,1,58,80,314.25,0.239583,Sixteenth,A#3
2041,Left,1,61,80,314.5,0.239583,Sixteenth,C#4
2043,Left,1,63,80,314.75,0.239583,Sixteenth,D#4
2042,Right,0,43,80,314.75,0.114583,ThirtySecond,G2
2044,Right,0,44,80,314.8125,0.114583,ThirtySecond,G#2
2045,Right,0,46,80,314.875,0.114583,ThirtySecond,A#2
2046,Right,0,48,80,314.9375,0.114583,ThirtySecond,C3
2047,Right,0,49,80,315.0,0.489583,Eighth,C#3
2048,Left,1,58,80,315.25,0.239583,Sixteenth,A#3
2049,Left,1,61,80,315.5,0.239583,Sixteenth,C#4
2051,Right,0,49,80,315.75,0.114583,ThirtySecond,C#3
2050,Left,1,64,80,315.75,0.239583,Sixteenth,E4
2052,Right,0,48,80,315.8125,0.114583,ThirtySecond,C3
2053,Right,0,46,80,315.875,0.114583,ThirtySecond,A#2
2054,Right,0,44,80,315.9375,0.114583,ThirtySecond,G#2
2055,Right,0,43,80,316.0,0.21875,Sixteenth,G2
2056,Left,1,61,80,316.25,0.239583,Sixteenth,D#4_C#4_A#3
2059,Right,0,58,80,316.5,0.239583,Sixteenth,A#3
2060,Right,0,56,80,316.75,0.239583,Sixteenth,G#3
2061,Right,0,55,80,317.0,0.239583,Sixteenth,G3
2062,Right,0,53,80,317.25,0.239583,Sixteenth,F3
2063,Right,0,51,80,317.5,0.239583,Sixteenth,D#3
2064,Right,0,50,80,317.75,0.239583,Sixteenth,D3
2065,Right,0,51,80,318.0,0.239583,Sixteenth,D#3
2066,Left,1,39,80,318.25,0.239583,Sixteenth,D#2
2067,Right,0,61,100,318.5,0.239583,Sixteenth,C#4
2068,Right,0,60,80,318.75,0.239583,Sixteenth,C4
2069,Right,0,58,80,319.0,0.239583,Sixteenth,A#3
2070,Right,0,56,80,319.25,0.239583,Sixteenth,G#3
2071,Right,0,55,80,319.5,0.239583,Sixteenth,G3
2072,Right,0,53,80,319.75,0.239583,Sixteenth,F3
2073,Right,0,51,80,320.0,0.239583,Sixteenth,D#3
2074,Left,1,39,80,320.25,0.239583,Sixteenth,D#2
2076,Right,0,82,100,320.5,0.239583,Sixteenth,A#5
2075,Left,1,58,80,320.5,0.239583,Sixteenth,A#3
2077,Left,1,56,80,320.75,0.239583,Sixteenth,G#3
2078,Right,0,80,80,320.75,0.239583,Sixteenth,G#5
2079,Left,1,55,80,321.0,0.239583,Sixteenth,G3
2080,Right,0,79,80,321.0,0.239583,Sixteenth,G5
2082,Right,0,77,80,321.25,0.239583,Sixteenth,F5
2081,Left,1,53,80,321.25,0.239583,Sixteenth,F3
2084,Right,0,75,80,321.5,0.239583,Sixteenth,D#5
2083,Left,1,51,80,321.5,0.239583,Sixteenth,D#3
2086,Left,1,50,80,321.75,0.239583,Sixteenth,D3
2085,Right,0,74,80,321.75,0.239583,Sixteenth,D5
2088,Left,1,51,80,322.0,0.239583,Sixteenth,D#3
2087,Right,0,75,80,322.0,0.239583,Sixteenth,D#5
2089,Left,1,39,80,322.25,0.239583,Sixteenth,D#2
2091,Left,1,61,80,322.5,0.239583,Sixteenth,C#4
2090,Right,0,85,100,322.5,0.239583,Sixteenth,C#6
2093,Left,1,60,80,322.75,0.239583,Sixteenth,C4
2092,Right,0,84,80,322.75,0.239583,Sixteenth,C6
2094,Right,0,82,80,323.0,0.239583,Sixteenth,A#5
2095,Left,1,58,80,323.0,0.239583,Sixteenth,A#3
2097,Left,1,56,80,323.25,0.239583,Sixteenth,G#3
2096,Right,0,80,80,323.25,0.239583,Sixteenth,G#5
2099,Right,0,79,80,323.5,0.239583,Sixteenth,G5
2098,Left,1,55,80,323.5,0.239583,Sixteenth,G3
2100,Right,0,77,80,323.75,0.239583,Sixteenth,F5
2101,Left,1,53,80,323.75,0.239583,Sixteenth,F3
2102,Left,1,51,80,324.0,0.239583,Sixteenth,D#3
2103,Right,0,75,80,324.0,0.239583,Sixteenth,D#5
2104,Left,1,39,80,324.25,0.239583,Sixteenth,D#2
2106,Left,1,61,80,324.5,0.239583,Sixteenth,C#4
2105,Right,0,85,80,324.5,0.239583,Sixteenth,C#6
2107,Right,0,84,80,324.75,0.239583,Sixteenth,C6
2108,Left,1,60,80,324.75,0.239583,Sixteenth,C4
2110,Left,1,58,80,325.0,0.239583,Sixteenth,A#3
2109,Right,0,82,80,325.0,0.239583,Sixteenth,A#5
2111,Left,1,56,80,325.25,0.239583,Sixteenth,G#3
2112,Right,0,80,80,325.25,0.239583,Sixteenth,G#5
2113,Left,1,55,80,325.5,0.239583,Sixteenth,G3
2114,Right,0,79,80,325.5,0.239583,Sixteenth,G5
2115,Left,1,53,80,325.75,0.239583,Sixteenth,F3
2116,Right,0,77,80,325.75,0.239583,Sixteenth,F5
2117,Right,0,75,80,326.0,0.239583,Sixteenth,D#5
2118,Left,1,51,80,326.0,0.239583,Sixteenth,D#3
2120,Right,0,74,80,326.25,0.239583,Sixteenth,D5
2119,Left,1,50,80,326.25,0.239583,Sixteenth,D3
2121,Right,0,73,80,326.5,0.239583,Sixteenth,C#5
2122,Left,1,49,80,326.5,0.239583,Sixteenth,C#3
2123,Right,0,72,80,326.75,0.239583,Sixteenth,C5
2124,Left,1,48,80,326.75,0.239583,Sixteenth,C3
2125,Right,0,70,80,327.0,0.239583,Sixteenth,A#4
2126,Left,1,46,80,327.0,0.239583,Sixteenth,A#2
2127,Left,1,44,80,327.25,0.239583,Sixteenth,G#2
2128,Right,0,68,80,327.25,0.239583,Sixteenth,G#4
2130,Left,1,43,80,327.5,0.239583,Sixteenth,G2
2129,Right,0,67,80,327.5,0.239583,Sixteenth,G4
2132,Right,0,65,80,327.75,0.239583,Sixteenth,F4
2131,Left,1,41,80,327.75,0.239583,Sixteenth,F2
2133,Right,0,63,80,328.0,0.239583,Sixteenth,D#4
2134,Right,0,62,80,328.25,0.239583,Sixteenth,D4
2135,Right,0,61,80,328.5,0.239583,Sixteenth,C#4
2136,Right,0,60,80,328.75,0.239583,Sixteenth,C4
2137,Right,0,58,80,329.0,0.239583,Sixteenth,A#3
2138,Right,0,56,80,329.25,0.239583,Sixteenth,G#3
2139,Right,0,55,80,329.5,0.239583,Sixteenth,G3
2140,Right,0,53,80,329.75,0.239583,Sixteenth,F3
2141,Right,0,51,80,330.0,0.239583,Sixteenth,D#3
2142,Left,1,50,80,330.25,0.239583,Sixteenth,D3
2143,Left,1,49,80,330.5,0.239583,Sixteenth,C#3
2144,Left,1,48,80,330.75,0.239583,Sixteenth,C3
2145,Left,1,46,80,331.0,0.239583,Sixteenth,A#2
2146,Left,1,44,80,331.25,0.239583,Sixteenth,G#2
2147,Left,1,43,80,331.5,0.239583,Sixteenth,G2
2148,Left,1,41,80,331.75,0.239583,Sixteenth,F2
2149,Left,1,40,80,332.0,0.489583,Eighth,E2
2150,Left,1,39,80,332.5,0.489583,Eighth,D#2
2151,Left,1,38,80,333.0,0.489583,Eighth,D2
2152,Left,1,37,80,333.5,0.489583,Eighth,C#2
2153,Left,1,36,80,334.0,0.489583,Eighth,C2
2154,Left,1,35,80,334.5,0.489583,Eighth,B1
2155,Left,1,34,80,335.0,0.489583,Eighth,A#1
2156,Left,1,33,80,335.5,0.489583,Eighth,A1
2157,Right,0,60,80,336.0,1.489583,DottedQuarter,G#3_D#3_C4
2160,Left,1,32,80,336.25,0.239583,Sixteenth,G#1
2161,Left,1,36,80,336.5,0.239583,Sixteenth,C2
2162,Left,1,39,80,336.75,0.239583,Sixteenth,D#2
2163,Left,1,44,80,337.0,0.239583,Sixteenth,G#2
2164,Left,1,32,80,337.25,0.239583,Sixteenth,G#1
2167,Left,1,34,80,337.5,0.239583,Sixteenth,A#1
2165,Right,0,55,95,337.5,0.489583,Eighth,G3_D#3_C#4
2169,Left,1,46,80,337.75,0.239583,Sixteenth,A#2
2170,Right,0,63,80,338.0,1.489583,DottedQuarter,G#3_D#4_D#3
2173,Left,1,36,80,338.25,0.239583,Sixteenth,C2
2174,Left,1,39,80,338.5,0.239583,Sixteenth,D#2
2175,Left,1,44,80,338.75,0.239583,Sixteenth,G#2
2176,Left,1,48,80,339.0,0.239583,Sixteenth,C3
2177,Left,1,36,80,339.25,0.239583,Sixteenth,C2
2180,Left,1,37,80,339.5,0.239583,Sixteenth,C#2
2178,Right,0,53,95,339.5,0.989583,Quarter,F4_F3
2181,Left,1,49,80,339.75,0.239583,Sixteenth,C#3
2182,Right,0,61,80,340.0,0.489583,Eighth,C#4
2183,Left,1,34,80,340.0,0.239583,Sixteenth,A#1
2184,Left,1,46,80,340.25,0.239583,Sixteenth,A#2
2185,Right,0,63,80,340.5,0.489583,Eighth,D#4_A#3
2186,Left,1,31,80,340.5,0.239583,Sixteenth,G1
2188,Left,1,43,80,340.75,0.239583,Sixteenth,G2
2189,Left,1,32,80,341.0,0.239583,Sixteenth,G#1
2190,Right,0,60,80,341.0,0.489583,Eighth,D#3_C4
2192,Left,1,44,80,341.25,0.239583,Sixteenth,G#2
2193,Left,1,36,80,341.5,0.239583,Sixteenth,C2
2194,Right,0,51,80,341.5,0.489583,Eighth,G#3_D#3
2196,Left,1,48,80,341.75,0.239583,Sixteenth,C3
2198,Left,1,39,80,342.0,0.239583,Sixteenth,D#2
2197,Right,0,55,80,342.0,1.239583,TiedQuarter-Sixteenth,G3_A#3
2200,Left,1,51,80,342.25,0.239583,Sixteenth,D#3
2201,Left,1,51,80,342.5,0.239583,Sixteenth,D#3
2202,Left,1,51,80,342.75,0.239583,Sixteenth,D#3
2203,Left,1,51,80,343.0,0.239583,Sixteenth,D#3
2204,Right,0,55,80,343.25,0.239583,Sixteenth,G3_D#3
2206,Left,1,49,80,343.25,0.239583,Sixteenth,C#3
2207,Right,0,53,80,343.5,0.239583,Sixteenth,G#3_F3
2209,Left,1,48,80,343.5,0.239583,Sixteenth,C3
2210,Right,0,55,80,343.75,0.239583,Sixteenth,G3_A#3
2212,Left,1,46,80,343.75,0.239583,Sixteenth,A#2
2214,Right,0,56,80,344.0,1.489583,DottedQuarter,G#3_D#3_C4
2213,Left,1,44,80,344.0,0.239583,Sixteenth,G#2
2217,Left,1,32,80,344.25,0.239583,Sixteenth,G#1
2218,Left,1,36,80,344.5,0.239583,Sixteenth,C2
2219,Left,1,39,80,344.75,0.239583,Sixteenth,D#2
2220,Left,1,44,80,345.0,0.239583,Sixteenth,G#2
2221,Left,1,32,80,345.25,0.239583,Sixteenth,G#1
2222,Left,1,34,80,345.5,0.239583,Sixteenth,A#1
2223,Right,0,61,95,345.5,0.489583,Eighth,G3_D#3_C#4
2226,Left,1,46,80,345.75,0.239583,Sixteenth,A#2
2227,Right,0,56,80,346.0,1.489583,DottedQuarter,G#3_D#4_D#3
2230,Left,1,36,80,346.25,0.239583,Sixteenth,C2
2231,Left,1,39,80,346.5,0.239583,Sixteenth,D#2
2232,Left,1,44,80,346.75,0.239583,Sixteenth,G#2
2233,Left,1,48,80,347.0,0.239583,Sixteenth,C3
2234,Left,1,36,80,347.25,0.239583,Sixteenth,C2
2235,Right,0,53,95,347.5,0.989583,Quarter,F4_F3
2236,Left,1,37,80,347.5,0.239583,Sixteenth,C#2
2238,Left,1,49,80,347.75,0.239583,Sixteenth,C#3
2239,Left,1,34,80,348.0,0.239583,Sixteenth,A#1
2240,Right,0,61,80,348.0,0.489583,Eighth,C#4
2241,Left,1,46,80,348.25,0.239583,Sixteenth,A#2
2242,Right,0,63,80,348.5,0.489583,Eighth,D#4_A#3
2243,Left,1,31,80,348.5,0.239583,Sixteenth,G1
2245,Left,1,43,80,348.75,0.239583,Sixteenth,G2
2246,Left,1,32,80,349.0,0.239583,Sixteenth,G#1
2247,Right,0,51,80,349.0,0.489583,Eighth,D#3_C4
2249,Left,1,44,80,349.25,0.239583,Sixteenth,G#2
2250,Right,0,56,80,349.5,0.489583,Eighth,G#3_D#3
2251,Left,1,36,80,349.5,0.239583,Sixteenth,C2
2253,Left,1,48,80,349.75,0.239583,Sixteenth,C3
2257,Left,1,39,80,350.0,0.239583,Sixteenth,D#2
2254,Right,0,58,80,350.0,1.489583,Quarter,D#3_C#3_A#3
2258,Left,1,39,80,350.25,0.239583,Sixteenth,D#2
2259,Left,1,43,80,350.5,0.239583,Sixteenth,G2
2260,Left,1,39,80,350.75,0.239583,Sixteenth,D#2
2261,Left,1,32,80,351.0,0.489583,Eighth,G#2_G#1
2263,Right,0,56,80,351.0,0.489583,Eighth,G#3_C3
2265,Left,1,68,80,351.5,0.489583,Eighth,G#4_G#3
2266,Right,0,80,80,351.5,0.489583,Eighth,G#5_C5
2269,Right,0,82,80,352.0,0.989583,Quarter,C#5_A#5
2271,Left,1,67,80,352.0,0.989583,Quarter,G4_D#4
2275,Right,0,72,80,353.0,0.489583,Eighth,G#5_C5
2273,Left,1,68,80,353.0,0.489583,Eighth,G#4_G#3
2277,Left,1,60,70,353.5,0.489583,Eighth,C4
2278,Right,0,72,70,353.5,0.489583,Eighth,C5
2280,Left,1,58,70,354.0,0.864583,DottedEighth,A#3
2279,Right,0,70,70,354.0,0.864583,DottedEighth,A#4
2282,Right,0,68,70,354.875,0.114583,ThirtySecond,G#4
2281,Left,1,56,70,354.875,0.114583,ThirtySecond,G#3
2283,Left,1,55,70,355.0,0.364583,DottedSixteenth,G3
2284,Right,0,67,70,355.0,0.364583,DottedSixteenth,G4
2285,Left,1,53,70,355.5,0.364583,DottedSixteenth,F3
2286,Right,0,65,70,355.5,0.364583,DottedSixteenth,F4
2288,Left,1,52,70,356.0,0.989583,Quarter,E3
2287,Right,0,64,70,356.0,0.989583,Quarter,E4
2289,Left,1,53,70,357.5,0.239583,Sixteenth,F3
2290,Right,0,65,70,357.5,0.239583,Sixteenth,F4
2292,Right,0,67,70,357.625,0.239583,Sixteenth,G4
2291,Left,1,55,70,357.625,0.239583,Sixteenth,G3
2294,Right,0,64,70,357.75,0.239583,Sixteenth,E4
2293,Left,1,52,70,357.75,0.239583,Sixteenth,E3
2295,Left,1,53,70,357.875,0.114583,ThirtySecond,F3
2296,Right,0,65,70,357.875,0.114583,ThirtySecond,F4
2297,Right,0,67,70,358.0,0.864583,DottedEighth,G4
2298,Left,1,55,70,358.0,0.864583,DottedEighth,G3
2299,Left,1,53,70,358.875,0.114583,ThirtySecond,F3
2300,Right,0,65,70,358.875,0.114583,ThirtySecond,F4
2301,Left,1,52,70,359.0,0.489583,Eighth,E3
2302,Right,0,64,70,359.0,0.489583,Eighth,E4
2303,Right,0,62,70,359.5,0.364583,DottedSixteenth,D4
2304,Left,1,50,70,359.5,0.364583,DottedSixteenth,D3
2306,Left,1,48,70,360.0,0.989583,Quarter,C3
2305,Right,0,60,70,360.0,0.989583,Quarter,C4
2307,Right,0,60,70,361.875,0.114583,ThirtySecond,C4
2308,Left,1,48,70,361.875,0.114583,ThirtySecond,C3
2309,Left,1,48,70,362.0,0.489583,Eighth,C3
2310,Right,0,60,70,362.0,0.489583,Eighth,C4
2311,Left,1,48,70,362.875,0.114583,ThirtySecond,C3
2312,Right,0,60,70,362.875,0.114583,ThirtySecond,C4
2313,Right,0,60,70,363.0,0.489583,Eighth,C4
2314,Left,1,48,70,363.0,0.489583,Eighth,C3
2315,Right,0,60,70,363.875,0.114583,ThirtySecond,C4
2316,Left,1,48,70,363.875,0.114583,ThirtySecond,C3
2317,Right,0,60,70,364.0,0.989583,Quarter,C4
2318,Left,1,48,70,364.0,0.989583,Quarter,C3
2319,Left,1,49,70,365.875,0.114583,ThirtySecond,C#3
2320,Right,0,61,70,365.875,0.114583,ThirtySecond,C#4
2322,Left,1,49,71,366.0,0.489583,Eighth,C#3
2321,Right,0,61,71,366.0,0.489583,Eighth,C#4
2323,Right,0,61,84,366.875,0.114583,ThirtySecond,C#4
2324,Left,1,49,84,366.875,0.114583,ThirtySecond,C#3
2325,Right,0,61,85,367.0,0.489583,Eighth,C#4
2326,Left,1,49,85,367.0,0.489583,Eighth,C#3
2328,Left,1,49,98,367.875,0.114583,ThirtySecond,C#3
2327,Right,0,61,98,367.875,0.114583,ThirtySecond,C#4
2330,Left,1,49,99,368.0,0.989583,Quarter,C#3
2329,Right,0,61,99,368.0,0.989583,Quarter,C#4
2332,Left,1,49,110,369.875,0.114583,ThirtySecond,C#3
2331,Right,0,61,110,369.875,0.114583,ThirtySecond,C#4
2334,Left,1,49,110,370.0,0.989583,Quarter,C#3
2333,Right,0,61,110,370.0,0.989583,Quarter,C#4
2335,Left,1,46,110,371.0,0.489583,Eighth,A#2
2336,Right,0,58,110,371.0,0.489583,Eighth,A#3
2337,Right,0,55,110,371.5,0.489583,Eighth,G3
2338,Left,1,43,110,371.5,0.489583,Eighth,G2
2340,Left,1,39,110,372.0,3.489583,DottedHalf,D#2
2339,Right,0,51,110,372.0,3.489583,DottedHalf,D#3
2341,Right,0,51,80,375.5,0.083333,TripletThirtySecond,D#3
2342,Right,0,53,80,375.59375,0.083333,TripletThirtySecond,F3
2343,Right,0,55,80,375.6875,0.083333,TripletThirtySecond,G3
2344,Right,0,56,80,375.770833,0.083333,TripletThirtySecond,G#3
2345,Right,0,58,80,375.875,0.083333,TripletThirtySecond,A#3
2346,Right,0,60,80,376.0,1.239583,TiedQuarter-Sixteenth,C4
2347,Left,1,32,80,376.25,0.239583,Sixteenth,G#1
2348,Left,1,36,80,376.5,0.239583,Sixteenth,C2
2349,Left,1,39,80,376.75,0.239583,Sixteenth,D#2
2350,Left,1,44,80,377.0,0.239583,Sixteenth,G#2
2352,Right,0,59,80,377.25,0.239583,Sixteenth,B3
2351,Left,1,43,80,377.25,0.239583,Sixteenth,G2
2354,Left,1,44,80,377.5,0.239583,Sixteenth,G#2
2353,Right,0,60,80,377.5,0.239583,Sixteenth,C4
2356,Left,1,46,80,377.75,0.239583,Sixteenth,A#2
2355,Right,0,61,80,377.75,0.239583,Sixteenth,C#4
2358,Left,1,48,80,378.0,0.239583,Sixteenth,C3
2357,Right,0,63,80,378.0,1.239583,TiedQuarter-Sixteenth,D#4
2359,Left,1,36,80,378.25,0.239583,Sixteenth,C2
2360,Left,1,39,80,378.5,0.239583,Sixteenth,D#2
2361,Left,1,44,80,378.75,0.239583,Sixteenth,G#2
2362,Left,1,48,80,379.0,0.239583,Sixteenth,C3
2363,Right,0,62,80,379.25,0.239583,Sixteenth,D4
2364,Left,1,47,80,379.25,0.239583,Sixteenth,B2
2366,Left,1,48,80,379.5,0.239583,Sixteenth,C3
2365,Right,0,63,80,379.5,0.239583,Sixteenth,D#4
2368,Left,1,49,80,379.75,0.239583,Sixteenth,C#3
2367,Right,0,65,80,379.75,0.239583,Sixteenth,F4
2369,Right,0,53,80,380.0,0.489583,Eighth,F3_C#4
2371,Left,1,34,80,380.0,0.239583,Sixteenth,A#1
2372,Left,1,46,80,380.25,0.239583,Sixteenth,A#2
2375,Left,1,31,80,380.5,0.239583,Sixteenth,G1
2373,Right,0,58,80,380.5,0.489583,Eighth,D#4_A#3
2376,Left,1,43,80,380.75,0.239583,Sixteenth,G2
2379,Left,1,32,80,381.0,0.239583,Sixteenth,G#1
2377,Right,0,51,80,381.0,0.489583,Eighth,D#3_C4
2380,Left,1,44,80,381.25,0.239583,Sixteenth,G#2
2382,Right,0,51,80,381.5,0.489583,Eighth,G#3_D#3
2381,Left,1,36,80,381.5,0.239583,Sixteenth,C2
2384,Left,1,48,80,381.75,0.239583,Sixteenth,C3
2385,Left,1,39,80,382.0,0.239583,Sixteenth,D#2
2386,Right,0,58,80,382.0,1.239583,TiedQuarter-Sixteenth,G3_A#3
2388,Left,1,51,80,382.25,0.239583,Sixteenth,D#3
2389,Left,1,51,80,382.5,0.239583,Sixteenth,D#3
2390,Left,1,51,80,382.75,0.239583,Sixteenth,D#3
2391,Left,1,51,80,383.0,0.239583,Sixteenth,D#3
2394,Left,1,49,80,383.25,0.239583,Sixteenth,C#3
2392,Right,0,55,80,383.25,0.239583,Sixteenth,G3_D#3
2396,Left,1,48,80,383.5,0.239583,Sixteenth,C3
2395,Right,0,53,80,383.5,0.239583,Sixteenth,G#3_F3
2398,Left,1,46,80,383.75,0.239583,Sixteenth,A#2
2399,Right,0,55,80,383.75,0.239583,Sixteenth,G3_A#3
2402,Right,0,56,80,384.0,0.739583,Sixteenth,G#3_C4
2401,Left,1,44,80,384.0,0.239583,Sixteenth,G#2
2404,Left,1,32,80,384.25,0.239583,Sixteenth,G#1
2405,Right,0,51,80,384.25,0.239583,Sixteenth,D#3
2406,Right,0,51,80,384.5,0.239583,Sixteenth,D#3
2407,Left,1,44,80,384.5,0.239583,Sixteenth,G#2
2408,Right,0,59,80,384.75,0.239583,Sixteenth,D#3_B3
2409,Left,1,43,80,384.75,0.239583,Sixteenth,G2
2412,Right,0,51,80,385.0,0.239583,Sixteenth,D#3_C4
2411,Left,1,44,80,385.0,0.239583,Sixteenth,G#2
2415,Right,0,59,80,385.25,0.239583,Sixteenth,B3
2414,Left,1,43,80,385.25,0.239583,Sixteenth,G2
2416,Left,1,44,80,385.5,0.239583,Sixteenth,G#2
2417,Right,0,60,80,385.5,0.239583,Sixteenth,C4
2418,Right,0,61,80,385.75,0.239583,Sixteenth,C#4
2419,Left,1,46,80,385.75,0.239583,Sixteenth,A#2
2420,Right,0,63,80,386.0,0.739583,DottedEighth,D#4
2421,Left,1,48,80,386.0,0.239583,Sixteenth,C3
2422,Left,1,36,80,386.25,0.239583,Sixteenth,C2
2423,Right,0,56,80,386.25,0.239583,Sixteenth,G#3
2424,Left,1,48,80,386.5,0.239583,Sixteenth,C3
2425,Right,0,56,80,386.5,0.239583,Sixteenth,G#3
2427,Left,1,47,80,386.75,0.239583,Sixteenth,B2
2426,Right,0,56,80,386.75,0.239583,Sixteenth,G#3_D4
2430,Left,1,48,80,387.0,0.239583,Sixteenth,C3
2429,Right,0,56,80,387.0,0.239583,Sixteenth,G#3_D#4
2433,Left,1,47,80,387.25,0.239583,Sixteenth,B2
2432,Right,0,62,80,387.25,0.239583,Sixteenth,D4
2435,Left,1,48,80,387.5,0.239583,Sixteenth,C3
2434,Right,0,63,80,387.5,0.239583,Sixteenth,D#4
2437,Right,0,65,80,387.75,0.239583,Sixteenth,F4_F3
2436,Left,1,49,80,387.75,0.239583,Sixteenth,C#3
2440,Right,0,61,80,388.0,0.489583,Eighth,F3_C#4
2439,Left,1,34,80,388.0,0.239583,Sixteenth,A#1
2442,Left,1,46,80,388.25,0.239583,Sixteenth,A#2
2443,Right,0,58,80,388.5,0.489583,Eighth,D#4_A#3
2445,Left,1,31,80,388.5,0.239583,Sixteenth,G1
2446,Left,1,43,80,388.75,0.239583,Sixteenth,G2
2449,Left,1,32,80,389.0,0.239583,Sixteenth,G#1
2447,Right,0,51,80,389.0,0.489583,Eighth,D#3_C4
2450,Left,1,44,80,389.25,0.239583,Sixteenth,G#2
2453,Left,1,36,80,389.5,0.239583,Sixteenth,C2
2451,Right,0,56,80,389.5,0.489583,Eighth,G#3_D#3
2454,Left,1,48,80,389.75,0.239583,Sixteenth,C3
2456,Right,0,51,80,390.0,1.489583,Quarter,D#3_C#3_A#3
2455,Left,1,39,80,390.0,0.239583,Sixteenth,D#2
2459,Left,1,39,80,390.25,0.239583,Sixteenth,D#2
2460,Left,1,43,80,390.5,0.239583,Sixteenth,G2
2461,Left,1,39,80,390.75,0.239583,Sixteenth,D#2
2462,Left,1,44,80,391.0,0.489583,Eighth,G#2_G#1
2463,Right,0,48,80,391.0,0.489583,Eighth,G#3_C3
2466,Left,1,56,80,391.5,0.489583,Eighth,G#4_G#3
2467,Right,0,72,80,391.5,0.489583,Eighth,G#5_C5
2471,Right,0,82,80,392.0,0.989583,Quarter,C#5_A#5
2470,Left,1,67,80,392.0,0.989583,Quarter,G4_D#4
2476,Left,1,68,80,393.0,0.489583,Eighth,G#4_G#3
2474,Right,0,80,80,393.0,0.489583,Eighth,G#5_C5
2479,Right,0,84,70,393.5,0.489583,Eighth,C6
2478,Left,1,72,70,393.5,0.489583,Eighth,C5
2481,Right,0,82,70,394.0,0.864583,DottedEighth,A#5
2480,Left,1,70,70,394.0,0.864583,DottedEighth,A#4
2483,Right,0,80,70,394.875,0.114583,ThirtySecond,G#5
2482,Left,1,68,70,394.875,0.114583,ThirtySecond,G#4
2484,Left,1,67,70,395.0,0.364583,DottedSixteenth,G4
2485,Right,0,79,70,395.0,0.364583,DottedSixteenth,G5
2487,Left,1,65,70,395.5,0.364583,DottedSixteenth,F4
2486,Right,0,77,70,395.5,0.364583,DottedSixteenth,F5
2489,Left,1,64,70,396.0,0.989583,Quarter,E4
2488,Right,0,76,70,396.0,0.989583,Quarter,E5
2490,Right,0,77,70,397.5,0.239583,Sixteenth,F5
2491,Left,1,65,70,397.5,0.239583,Sixteenth,F4
2492,Right,0,79,70,397.625,0.239583,Sixteenth,G5
2493,Left,1,67,70,397.625,0.239583,Sixteenth,G4
2494,Left,1,64,70,397.75,0.239583,Sixteenth,E4
2495,Right,0,76,70,397.75,0.239583,Sixteenth,E5
2497,Right,0,77,70,397.875,0.114583,ThirtySecond,F5
2496,Left,1,65,70,397.875,0.114583,ThirtySecond,F4
2499,Right,0,79,70,398.0,0.864583,DottedEighth,G5
2498,Left,1,67,70,398.0,0.864583,DottedEighth,G4
2501,Right,0,77,70,398.875,0.114583,ThirtySecond,F5
2500,Left,1,65,70,398.875,0.114583,ThirtySecond,F4
2503,Left,1,64,70,399.0,0.489583,Eighth,E4
2502,Right,0,76,70,399.0,0.489583,Eighth,E5
2505,Left,1,62,70,399.5,0.364583,DottedSixteenth,D4
2504,Right,0,74,70,399.5,0.364583,DottedSixteenth,D5
2507,Left,1,60,70,400.0,0.989583,Quarter,C4
2506,Right,0,72,70,400.0,0.989583,Quarter,C5
2509,Left,1,60,70,401.875,0.114583,ThirtySecond,C4
2508,Right,0,72,70,401.875,0.114583,ThirtySecond,C5
2510,Right,0,72,70,402.0,0.489583,Eighth,C5
2511,Left,1,60,70,402.0,0.489583,Eighth,C4
2512,Right,0,72,70,402.875,0.114583,ThirtySecond,C5
2513,Left,1,60,70,402.875,0.114583,ThirtySecond,C4
2515,Right,0,72,70,403.0,0.489583,Eighth,C5
2514,Left,1,60,70,403.0,0.489583,Eighth,C4
2516,Right,0,72,70,403.875,0.114583,ThirtySecond,C5
2517,Left,1,60,70,403.875,0.114583,ThirtySecond,C4
2519,Right,0,72,70,404.0,0.989583,Quarter,C5
2518,Left,1,60,70,404.0,0.989583,Quarter,C4
2522,Right,0,85,120,405.875,0.114583,ThirtySecond,C#6_C#5
2520,Left,1,49,120,405.875,0.114583,ThirtySecond,C#3_C#2
2525,Left,1,37,120,406.0,0.489583,Eighth,C#3_C#2
2524,Right,0,73,120,406.0,0.489583,Eighth,C#6_C#5
2529,Right,0,66,80,406.5,0.239583,Sixteenth,F#4
2528,Left,1,58,80,406.5,0.239583,Sixteenth,A#3
2531,Right,0,70,80,406.75,0.239583,Sixteenth,A#4
2530,Left,1,61,80,406.75,0.239583,Sixteenth,C#4
2532,Left,1,59,80,407.0,0.239583,Sixteenth,B3
2533,Right,0,68,80,407.0,0.239583,Sixteenth,G#4
2535,Right,0,71,80,407.25,0.239583,Sixteenth,B4
2534,Left,1,61,80,407.25,0.239583,Sixteenth,C#4
2536,Right,0,65,80,407.5,0.239583,Sixteenth,F4
2537,Left,1,56,80,407.5,0.239583,Sixteenth,G#3
2538,Left,1,61,80,407.75,0.239583,Sixteenth,C#4
2539,Right,0,68,80,407.75,0.239583,Sixteenth,G#4
2540,Right,0,66,80,408.0,0.239583,Sixteenth,F#4
2541,Left,1,58,80,408.0,0.239583,Sixteenth,A#3
2542,Right,0,70,80,408.25,0.239583,Sixteenth,A#4
2543,Left,1,61,80,408.25,0.239583,Sixteenth,C#4
2544,Right,0,66,80,408.5,0.239583,Sixteenth,F#4
2545,Left,1,58,80,408.5,0.239583,Sixteenth,A#3
2547,Left,1,61,80,408.75,0.239583,Sixteenth,C#4
2546,Right,0,70,80,408.75,0.239583,Sixteenth,A#4
2549,Right,0,68,80,409.0,0.239583,Sixteenth,G#4
2548,Left,1,59,80,409.0,0.239583,Sixteenth,B3
2550,Right,0,71,80,409.25,0.239583,Sixteenth,B4
2551,Left,1,61,80,409.25,0.239583,Sixteenth,C#4
2552,Left,1,56,80,409.5,0.239583,Sixteenth,G#3
2553,Right,0,65,80,409.5,0.239583,Sixteenth,F4
2554,Left,1,61,80,409.75,0.239583,Sixteenth,C#4
2555,Right,0,68,80,409.75,0.239583,Sixteenth,G#4
2556,Right,0,66,80,410.0,0.239583,Sixteenth,F#4
2557,Left,1,58,80,410.0,0.489583,Eighth,A#3
2558,Right,0,70,80,410.25,0.239583,Sixteenth,A#4
2559,Right,0,73,80,410.5,0.239583,Sixteenth,C#5
2561,Right,0,70,80,410.75,0.239583,Sixteenth,A#4
2560,Left,1,54,80,410.75,0.239583,Sixteenth,F#3
2562,Left,1,58,80,411.0,0.239583,Sixteenth,A#3
2563,Right,0,73,80,411.0,0.239583,Sixteenth,C#5
2564,Left,1,61,80,411.25,0.239583,Sixteenth,C#4
2565,Right,0,78,80,411.25,0.239583,Sixteenth,F#5
2566,Right,0,82,80,411.5,0.239583,Sixteenth,A#5
2567,Left,1,66,80,411.5,0.239583,Sixteenth,F#4
2568,Left,1,61,80,411.75,0.239583,Sixteenth,C#4
2569,Right,0,78,80,411.75,0.239583,Sixteenth,F#5
2570,Right,0,82,80,412.0,0.239583,Sixteenth,A#5
2571,Left,1,66,80,412.0,0.239583,Sixteenth,F#4
2572,Right,0,83,80,412.25,0.239583,Sixteenth,B5
2573,Left,1,68,80,412.25,0.239583,Sixteenth,G#4
2574,Left,1,70,80,412.5,0.239583,Sixteenth,A#4
2575,Right,0,85,80,412.5,0.239583,Sixteenth,C#6
2577,Right,0,83,80,412.75,0.239583,Sixteenth,B5
2576,Left,1,68,80,412.75,0.239583,Sixteenth,G#4
2578,Left,1,66,80,413.0,0.239583,Sixteenth,F#4
2579,Right,0,82,80,413.0,0.239583,Sixteenth,A#5
2580,Right,0,83,80,413.25,0.239583,Sixteenth,B5
2581,Left,1,68,80,413.25,0.239583,Sixteenth,G#4
2582,Left,1,66,80,413.5,0.239583,Sixteenth,F#4
2583,Right,0,82,80,413.5,0.239583,Sixteenth,A#5
2584,Left,1,65,80,413.75,0.239583,Sixteenth,F4
2585,Right,0,80,80,413.75,0.239583,Sixteenth,G#5
2586,Right,0,87,120,414.0,0.489583,Eighth,G5_D#6_D#5
2589,Left,1,51,120,414.0,0.489583,Eighth,D#3_D#2
2591,Right,0,63,80,414.5,0.239583,Sixteenth,D#4
2592,Left,1,55,80,414.5,0.239583,Sixteenth,G3
2593,Left,1,58,80,414.75,0.239583,Sixteenth,A#3
2594,Right,0,67,80,414.75,0.239583,Sixteenth,G4
2596,Right,0,65,80,415.0,0.239583,Sixteenth,F4
2595,Left,1,56,80,415.0,0.239583,Sixteenth,G#3
2597,Right,0,68,80,415.25,0.239583,Sixteenth,G#4
2598,Left,1,59,80,415.25,0.239583,Sixteenth,B3
2600,Right,0,62,80,415.5,0.239583,Sixteenth,D4
2599,Left,1,53,80,415.5,0.239583,Sixteenth,F3
2602,Right,0,65,80,415.75,0.239583,Sixteenth,F4
2601,Left,1,56,80,415.75,0.239583,Sixteenth,G#3
2603,Right,0,63,80,416.0,0.239583,Sixteenth,D#4
2604,Left,1,55,80,416.0,0.239583,Sixteenth,G3
2605,Left,1,58,80,416.25,0.239583,Sixteenth,A#3
2606,Right,0,67,80,416.25,0.239583,Sixteenth,G4
2608,Right,0,63,80,416.5,0.239583,Sixteenth,D#4
2607,Left,1,55,80,416.5,0.239583,Sixteenth,G3
2610,Left,1,58,80,416.75,0.239583,Sixteenth,A#3
2609,Right,0,67,80,416.75,0.239583,Sixteenth,G4
2611,Right,0,65,80,417.0,0.239583,Sixteenth,F4
2612,Left,1,56,80,417.0,0.239583,Sixteenth,G#3
2613,Right,0,68,80,417.25,0.239583,Sixteenth,G#4
2614,Left,1,59,80,417.25,0.239583,Sixteenth,B3
2615,Right,0,62,80,417.5,0.239583,Sixteenth,D4
2616,Left,1,53,80,417.5,0.239583,Sixteenth,F3
2617,Right,0,65,80,417.75,0.239583,Sixteenth,F4
2618,Left,1,56,80,417.75,0.239583,Sixteenth,G#3
2619,Left,1,58,80,418.0,0.239583,Sixteenth,G3_A#3
2621,Right,0,63,80,418.0,0.239583,Sixteenth,D#4
2622,Right,0,67,80,418.25,0.239583,Sixteenth,G4
2623,Right,0,70,80,418.5,0.239583,Sixteenth,A#4
2625,Right,0,67,80,418.75,0.239583,Sixteenth,G4
2624,Left,1,51,80,418.75,0.239583,Sixteenth,D#3
2626,Right,0,70,80,419.0,0.239583,Sixteenth,A#4
2627,Left,1,55,80,419.0,0.239583,Sixteenth,G3
2629,Left,1,58,80,419.25,0.239583,Sixteenth,A#3
2628,Right,0,73,80,419.25,0.239583,Sixteenth,C#5
2631,Right,0,76,80,419.5,0.239583,Sixteenth,E5
2630,Left,1,61,80,419.5,0.239583,Sixteenth,C#4
2633,Right,0,73,80,419.75,0.239583,Sixteenth,C#5
2632,Left,1,58,80,419.75,0.239583,Sixteenth,A#3
2634,Left,1,61,80,420.0,0.239583,Sixteenth,C#4
2635,Right,0,76,80,420.0,0.239583,Sixteenth,E5
2637,Right,0,79,80,420.25,0.239583,Sixteenth,G5
2636,Left,1,64,80,420.25,0.239583,Sixteenth,E4
2638,Left,1,67,80,420.5,0.239583,Sixteenth,G4
2639,Right,0,82,80,420.5,0.239583,Sixteenth,A#5
2641,Right,0,79,80,420.75,0.239583,Sixteenth,G5
2640,Left,1,64,80,420.75,0.239583,Sixteenth,E4
2643,Left,1,67,80,421.0,0.239583,Sixteenth,G4
2642,Right,0,82,80,421.0,0.239583,Sixteenth,A#5
2645,Left,1,70,80,421.25,0.239583,Sixteenth,A#4
2644,Right,0,79,80,421.25,0.239583,Sixteenth,G5
2647,Left,1,73,80,421.5,0.239583,Sixteenth,C#5
2646,Right,0,82,80,421.5,0.239583,Sixteenth,A#5
2648,Right,0,79,80,421.75,0.239583,Sixteenth,G5
2649,Left,1,76,80,421.875,0.114583,ThirtySecond,E5_C#5
2652,Left,1,76,80,422.0,0.489583,Eighth,E5_C#5
2651,Right,0,82,80,422.0,0.239583,Sixteenth,A#5
2654,Right,0,79,81,422.25,0.239583,Sixteenth,G5
2655,Right,0,82,83,422.5,0.239583,Sixteenth,A#5
2656,Right,0,79,85,422.75,0.239583,Sixteenth,G5
2657,Left,1,76,86,422.875,0.114583,ThirtySecond,E5_C#5
2660,Left,1,73,87,423.0,0.489583,Eighth,E5_C#5
2659,Right,0,82,87,423.0,0.239583,Sixteenth,A#5
2662,Right,0,79,89,423.25,0.239583,Sixteenth,G5
2663,Right,0,82,90,423.5,0.239583,Sixteenth,A#5
2664,Right,0,79,92,423.75,0.239583,Sixteenth,G5
2665,Left,1,76,93,423.875,0.114583,ThirtySecond,E5_C#5
2667,Left,1,76,94,424.0,0.489583,Eighth,E5_C#5
2668,Right,0,82,94,424.0,0.239583,Sixteenth,A#5
2670,Right,0,79,96,424.25,0.239583,Sixteenth,G5
2671,Right,0,82,98,424.5,0.239583,Sixteenth,A#5
2672,Right,0,79,99,424.75,0.239583,Sixteenth,G5
2673,Left,1,76,80,424.875,0.114583,ThirtySecond,E5_C#5
2675,Right,0,80,95,425.0,0.239583,Sixteenth,G#5
2676,Left,1,75,95,425.0,0.489583,Eighth,D#5_C5
2678,Right,0,75,91,425.25,0.239583,Sixteenth,D#5
2679,Right,0,72,86,425.5,0.239583,Sixteenth,C5
2680,Right,0,68,81,425.75,0.239583,Sixteenth,G#4
2681,Left,1,63,80,425.875,0.114583,ThirtySecond,D#4_C4
2684,Left,1,61,80,426.0,0.489583,Eighth,E4_C#4
2683,Right,0,67,80,426.0,0.239583,Sixteenth,G4
2686,Right,0,79,81,426.25,0.239583,Sixteenth,G5
2687,Right,0,82,83,426.5,0.239583,Sixteenth,A#5
2688,Right,0,79,85,426.75,0.239583,Sixteenth,G5
2689,Left,1,61,86,426.875,0.114583,ThirtySecond,E4_C#4
2691,Left,1,61,87,427.0,0.489583,Eighth,E4_C#4
2693,Right,0,82,87,427.0,0.239583,Sixteenth,A#5
2694,Right,0,79,89,427.25,0.239583,Sixteenth,G5
2695,Right,0,82,90,427.5,0.239583,Sixteenth,A#5
2696,Right,0,79,92,427.75,0.239583,Sixteenth,G5
2697,Left,1,64,93,427.875,0.114583,ThirtySecond,E4_C#4
2699,Left,1,64,94,428.0,0.489583,Eighth,E4_C#4
2701,Right,0,82,94,428.0,0.239583,Sixteenth,A#5
2702,Right,0,79,96,428.25,0.239583,Sixteenth,G5
2703,Right,0,82,98,428.5,0.239583,Sixteenth,A#5
2704,Right,0,79,99,428.75,0.239583,Sixteenth,G5
2705,Left,1,64,80,428.875,0.114583,ThirtySecond,E4_C#4
2707,Right,0,80,95,429.0,0.239583,Sixteenth,G#5
2708,Left,1,63,95,429.0,0.489583,Eighth,D#4_C4
2710,Right,0,75,91,429.25,0.239583,Sixteenth,D#5
2711,Right,0,72,86,429.5,0.239583,Sixteenth,C5
2712,Right,0,68,81,429.75,0.239583,Sixteenth,G#4
2713,Left,1,60,80,429.875,0.114583,ThirtySecond,D#4_C4
2715,Left,1,61,80,430.0,0.489583,Eighth,E4_C#4
2717,Right,0,67,80,430.0,0.239583,Sixteenth,G4
2718,Right,0,79,80,430.25,0.239583,Sixteenth,G5
2719,Right,0,82,80,430.5,0.239583,Sixteenth,A#5
2720,Right,0,79,80,430.75,0.239583,Sixteenth,G5
2721,Left,1,64,80,430.875,0.114583,ThirtySecond,E4_C#4
2723,Right,0,80,80,431.0,0.239583,Sixteenth,G#5
2724,Left,1,60,80,431.0,0.489583,Eighth,D#4_C4
2726,Right,0,75,80,431.25,0.239583,Sixteenth,D#5
2727,Right,0,72,80,431.5,0.239583,Sixteenth,C5
2728,Right,0,68,80,431.75,0.239583,Sixteenth,G#4
2729,Left,1,63,80,431.875,0.114583,ThirtySecond,D#4_C4
2732,Left,1,61,80,432.0,0.489583,Eighth,E4_C#4
2731,Right,0,67,80,432.0,0.239583,Sixteenth,G4
2734,Right,0,79,80,432.25,0.239583,Sixteenth,G5
2735,Right,0,82,80,432.5,0.239583,Sixteenth,A#5
2736,Right,0,79,80,432.75,0.239583,Sixteenth,G5
2737,Left,1,61,80,432.875,0.114583,ThirtySecond,E4_C#4
2740,Left,1,60,80,433.0,0.489583,Eighth,D#4_C4
2739,Right,0,80,80,433.0,0.239583,Sixteenth,G#5
2742,Right,0,75,80,433.25,0.239583,Sixteenth,D#5
2743,Right,0,72,80,433.5,0.239583,Sixteenth,C5
2744,Right,0,68,80,433.75,0.239583,Sixteenth,G#4
2745,Left,1,48,80,433.875,0.114583,ThirtySecond,C3
2746,Right,0,65,80,434.0,0.239583,Sixteenth,F4
2747,Left,1,49,80,434.0,0.489583,Eighth,C#3
2748,Right,0,61,80,434.25,0.239583,Sixteenth,C#4
2749,Right,0,58,80,434.5,0.239583,Sixteenth,A#3
2750,Right,0,53,80,434.75,0.239583,Sixteenth,F3
2751,Left,1,37,80,434.875,0.114583,ThirtySecond,C#2
2753,Left,1,39,80,435.0,0.489583,Eighth,D#2
2752,Right,0,51,80,435.0,0.239583,Sixteenth,D#3
2754,Right,0,46,80,435.25,0.239583,Sixteenth,A#2
2755,Right,0,43,80,435.5,0.239583,Sixteenth,G2
2756,Right,0,55,80,435.75,0.239583,Sixteenth,G3
2757,Left,1,39,80,435.875,0.114583,ThirtySecond,D#2
2758,Left,1,32,70,436.0,0.239583,Sixteenth,G#1
2759,Right,0,56,80,436.0,0.489583,Eighth,G#3
2760,Left,1,51,70,436.25,0.239583,Sixteenth,D#3
2761,Left,1,56,70,436.5,0.239583,Sixteenth,G#3
2762,Left,1,51,70,436.75,0.239583,Sixteenth,D#3
2763,Right,0,63,80,436.75,0.239583,Sixteenth,D#4
2765,Right,0,60,80,437.0,0.489583,Eighth,C4
2764,Left,1,56,70,437.0,0.239583,Sixteenth,G#3
2766,Left,1,51,70,437.25,0.239583,Sixteenth,D#3
2767,Left,1,56,70,437.5,0.239583,Sixteenth,G#3
2769,Right,0,68,80,437.75,0.239583,Sixteenth,G#4
2768,Left,1,51,70,437.75,0.239583,Sixteenth,D#3
2771,Left,1,60,70,438.0,0.239583,Sixteenth,G#3_C4
2770,Right,0,63,80,438.0,0.489583,Eighth,D#4
2773,Left,1,56,70,438.25,0.239583,Sixteenth,G#3_D#3
2775,Left,1,60,70,438.5,0.239583,Sixteenth,G#3_C4
2779,Right,0,72,80,438.75,0.239583,Sixteenth,C5
2777,Left,1,56,70,438.75,0.239583,Sixteenth,G#3_D#3
2780,Left,1,61,70,439.0,0.239583,Sixteenth,C#4_A#3
2782,Right,0,67,80,439.0,0.239583,Sixteenth,G4
2783,Left,1,58,70,439.25,0.239583,Sixteenth,D#3_A#3
2784,Right,0,73,80,439.25,0.239583,Sixteenth,C#5
2786,Left,1,58,70,439.5,0.239583,Sixteenth,C#4_A#3
2787,Right,0,70,80,439.5,0.239583,Sixteenth,A#4
2790,Left,1,51,70,439.75,0.239583,Sixteenth,D#3_A#3
2789,Right,0,67,80,439.75,0.239583,Sixteenth,G4
2793,Left,1,32,70,440.0,0.239583,Sixteenth,G#1
2792,Right,0,68,80,440.0,0.489583,Eighth,G#4
2794,Left,1,56,70,440.25,0.239583,Sixteenth,G#3_D#3
2796,Left,1,60,70,440.5,0.239583,Sixteenth,G#3_C4
2799,Right,0,75,80,440.75,0.239583,Sixteenth,D#5
2798,Left,1,56,70,440.75,0.239583,Sixteenth,G#3_D#3
2801,Right,0,72,80,441.0,0.489583,Eighth,C5
2802,Left,1,56,70,441.0,0.239583,Sixteenth,G#3_C4
2804,Left,1,51,70,441.25,0.239583,Sixteenth,G#3_D#3
2806,Left,1,56,70,441.5,0.239583,Sixteenth,G#3_C4
2809,Left,1,56,70,441.75,0.239583,Sixteenth,G#3_D#3
2808,Right,0,80,80,441.75,0.239583,Sixteenth,G#5
2812,Left,1,56,70,442.0,0.239583,Sixteenth,G#3_C4
2811,Right,0,75,80,442.0,0.489583,Eighth,D#5
2814,Left,1,51,70,442.25,0.239583,Sixteenth,G#3_D#3
2816,Left,1,56,70,442.5,0.239583,Sixteenth,G#3_C4
2818,Left,1,56,70,442.75,0.239583,Sixteenth,G#3_D#3
2819,Right,0,84,80,442.75,0.239583,Sixteenth,C6
2821,Left,1,61,70,443.0,0.239583,Sixteenth,C#4_A#3
2823,Right,0,79,80,443.0,0.239583,Sixteenth,G5
2824,Left,1,58,70,443.25,0.239583,Sixteenth,D#3_A#3
2825,Right,0,85,80,443.25,0.239583,Sixteenth,C#6
2827,Right,0,82,80,443.5,0.239583,Sixteenth,A#5
2828,Left,1,61,70,443.5,0.239583,Sixteenth,C#4_A#3
2830,Right,0,79,80,443.75,0.239583,Sixteenth,G5
2831,Left,1,58,70,443.75,0.239583,Sixteenth,D#3_A#3
2834,Right,0,80,80,444.0,0.489583,Eighth,G#5
2833,Left,1,44,70,444.0,0.239583,Sixteenth,G#2
2835,Left,1,56,70,444.25,0.239583,Sixteenth,G#3_D#3
2837,Left,1,56,70,444.5,0.239583,Sixteenth,G#3_C4
2839,Left,1,51,70,444.75,0.239583,Sixteenth,G#3_D#3
2841,Right,0,72,80,444.75,0.239583,Sixteenth,C5
2842,Right,0,67,80,445.0,0.239583,Sixteenth,G4
2843,Left,1,61,70,445.0,0.239583,Sixteenth,C#4_A#3
2845,Right,0,73,80,445.25,0.239583,Sixteenth,C#5
2846,Left,1,51,70,445.25,0.239583,Sixteenth,D#3_A#3
2850,Right,0,70,80,445.5,0.239583,Sixteenth,A#4
2848,Left,1,58,70,445.5,0.239583,Sixteenth,C#4_A#3
2851,Left,1,51,70,445.75,0.239583,Sixteenth,D#3_A#3
2852,Right,0,67,80,445.75,0.239583,Sixteenth,G4
2854,Right,0,68,80,446.0,0.489583,Eighth,G#4
2855,Left,1,44,70,446.0,0.239583,Sixteenth,G#2
2856,Left,1,56,70,446.25,0.239583,Sixteenth,G#3_D#3
2858,Left,1,56,70,446.5,0.239583,Sixteenth,G#3_C4
2861,Right,0,84,80,446.75,0.239583,Sixteenth,C6
2860,Left,1,51,70,446.75,0.239583,Sixteenth,G#3_D#3
2864,Left,1,61,70,447.0,0.239583,Sixteenth,C#4_A#3
2863,Right,0,79,80,447.0,0.239583,Sixteenth,G5
2867,Left,1,51,70,447.25,0.239583,Sixteenth,D#3_A#3
2866,Right,0,85,80,447.25,0.239583,Sixteenth,C#6
2869,Left,1,58,70,447.5,0.239583,Sixteenth,C#4_A#3
2871,Right,0,82,80,447.5,0.239583,Sixteenth,A#5
2872,Right,0,79,80,447.75,0.239583,Sixteenth,G5
2873,Left,1,58,70,447.75,0.239583,Sixteenth,D#3_A#3
2875,Right,0,80,80,448.0,0.239583,Sixteenth,G#5
2876,Left,1,60,80,448.0,0.489583,Eighth,G#3_C4
2878,Right,0,84,80,448.25,0.239583,Sixteenth,C6
2879,Right,0,75,80,448.5,0.239583,Sixteenth,D#5
2880,Right,0,80,80,448.75,0.239583,Sixteenth,G#5
2881,Right,0,72,80,449.0,0.239583,Sixteenth,C5
2882,Right,0,75,80,449.25,0.239583,Sixteenth,D#5
2883,Right,0,73,80,449.5,0.239583,Sixteenth,C#5
2884,Right,0,70,80,449.75,0.239583,Sixteenth,A#4
2886,Right,0,68,80,450.0,0.239583,Sixteenth,G#4
2885,Left,1,56,80,450.0,0.239583,Sixteenth,G#3
2888,Left,1,60,80,450.25,0.239583,Sixteenth,C4
2887,Right,0,72,80,450.25,0.239583,Sixteenth,C5
2890,Left,1,51,80,450.5,0.239583,Sixteenth,D#3
2889,Right,0,63,80,450.5,0.239583,Sixteenth,D#4
2891,Left,1,56,80,450.75,0.239583,Sixteenth,G#3
2892,Right,0,68,80,450.75,0.239583,Sixteenth,G#4
2893,Left,1,48,80,451.0,0.239583,Sixteenth,C3
2894,Right,0,60,80,451.0,0.239583,Sixteenth,C4
2895,Left,1,51,80,451.25,0.239583,Sixteenth,D#3
2896,Right,0,63,80,451.25,0.239583,Sixteenth,D#4
2897,Right,0,61,80,451.5,0.239583,Sixteenth,C#4
2898,Left,1,49,80,451.5,0.239583,Sixteenth,C#3
2900,Left,1,46,80,451.75,0.239583,Sixteenth,A#2
2899,Right,0,58,80,451.75,0.239583,Sixteenth,A#3
2901,Right,0,56,80,452.0,0.239583,Sixteenth,G#3
2902,Left,1,44,80,452.0,0.239583,Sixteenth,G#2
2904,Left,1,47,80,452.25,0.239583,Sixteenth,B2
2903,Right,0,59,80,452.25,0.239583,Sixteenth,B3
2905,Right,0,60,80,452.5,0.239583,Sixteenth,C4
2906,Left,1,48,80,452.5,0.239583,Sixteenth,C3
2908,Left,1,43,80,452.75,0.239583,Sixteenth,G2
2907,Right,0,55,80,452.75,0.239583,Sixteenth,G3
2909,Right,0,56,80,453.0,0.239583,Sixteenth,G#3
2910,Left,1,44,80,453.0,0.239583,Sixteenth,G#2
2912,Left,1,40,80,453.25,0.239583,Sixteenth,E2
2911,Right,0,52,80,453.25,0.239583,Sixteenth,E3
2913,Right,0,53,80,453.5,0.239583,Sixteenth,F3
2914,Left,1,41,80,453.5,0.239583,Sixteenth,F2
2915,Left,1,36,80,453.75,0.239583,Sixteenth,C2
2916,Right,0,48,80,453.75,0.239583,Sixteenth,C3
2917,Right,0,49,80,454.0,0.239583,Sixteenth,C#3
2918,Left,1,37,80,454.0,0.239583,Sixteenth,C#2
2920,Right,0,60,80,454.25,0.239583,Sixteenth,C4
2919,Left,1,48,80,454.25,0.239583,Sixteenth,C3
2921,Right,0,61,80,454.5,0.239583,Sixteenth,C#4
2922,Left,1,49,80,454.5,0.239583,Sixteenth,C#3
2924,Left,1,45,80,454.75,0.239583,Sixteenth,A2
2923,Right,0,57,80,454.75,0.239583,Sixteenth,A3
2925,Right,0,58,80,455.0,0.239583,Sixteenth,A#3
2926,Left,1,46,80,455.0,0.239583,Sixteenth,A#2
2928,Right,0,54,80,455.25,0.239583,Sixteenth,F#3
2927,Left,1,42,80,455.25,0.239583,Sixteenth,F#2
2929,Right,0,55,80,455.5,0.239583,Sixteenth,G3
2930,Left,1,43,80,455.5,0.239583,Sixteenth,G2
2932,Right,0,50,80,455.75,0.239583,Sixteenth,D3
2931,Left,1,38,80,455.75,0.239583,Sixteenth,D2
2933,Right,0,51,80,456.0,0.239583,Sixteenth,D#3
2934,Left,1,39,80,456.0,0.239583,Sixteenth,D#2
2935,Right,0,53,81,456.25,0.239583,Sixteenth,F3
2936,Left,1,41,81,456.25,0.239583,Sixteenth,F2
2937,Right,0,55,82,456.5,0.239583,Sixteenth,G3
2938,Left,1,43,82,456.5,0.239583,Sixteenth,G2
2939,Left,1,44,83,456.75,0.239583,Sixteenth,G#2
2940,Right,0,56,83,456.75,0.239583,Sixteenth,G#3
2942,Right,0,58,85,457.0,0.239583,Sixteenth,A#3
2941,Left,1,46,85,457.0,0.239583,Sixteenth,A#2
2943,Left,1,48,86,457.25,0.239583,Sixteenth,C3
2944,Right,0,60,86,457.25,0.239583,Sixteenth,C4
2945,Left,1,49,87,457.5,0.239583,Sixteenth,C#3
2946,Right,0,61,87,457.5,0.239583,Sixteenth,C#4
2947,Left,1,51,89,457.75,0.239583,Sixteenth,D#3
2948,Right,0,63,89,457.75,0.239583,Sixteenth,D#4
2949,Left,1,53,90,458.0,0.239583,Sixteenth,F3
2950,Right,0,65,90,458.0,0.239583,Sixteenth,F4
2951,Left,1,55,91,458.25,0.239583,Sixteenth,G3
2952,Right,0,67,91,458.25,0.239583,Sixteenth,G4
2953,Left,1,56,93,458.5,0.239583,Sixteenth,G#3
2954,Right,0,68,93,458.5,0.239583,Sixteenth,G#4
2955,Left,1,58,94,458.75,0.239583,Sixteenth,A#3
2956,Right,0,70,94,458.75,0.239583,Sixteenth,A#4
2958,Right,0,72,95,459.0,0.239583,Sixteenth,C5
2957,Left,1,60,95,459.0,0.239583,Sixteenth,C4
2960,Right,0,67,97,459.25,0.239583,Sixteenth,G4
2959,Left,1,55,97,459.25,0.239583,Sixteenth,G3
2962,Left,1,56,98,459.5,0.239583,Sixteenth,G#3
2961,Right,0,68,98,459.5,0.239583,Sixteenth,G#4
2963,Left,1,52,99,459.75,0.239583,Sixteenth,E3
2964,Right,0,64,99,459.75,0.239583,Sixteenth,E4
2966,Right,0,65,95,460.0,0.239583,Sixteenth,F4
2965,Left,1,53,95,460.0,0.239583,Sixteenth,F3
2967,Right,0,60,93,460.25,0.239583,Sixteenth,C4
2968,Left,1,48,93,460.25,0.239583,Sixteenth,C3
2969,Right,0,61,91,460.5,0.239583,Sixteenth,C#4
2970,Left,1,49,91,460.5,0.239583,Sixteenth,C#3
2972,Left,1,45,89,460.75,0.239583,Sixteenth,A2
2971,Right,0,57,89,460.75,0.239583,Sixteenth,A3
2973,Right,0,58,87,461.0,0.239583,Sixteenth,A#3
2974,Left,1,46,87,461.0,0.239583,Sixteenth,A#2
2976,Right,0,60,85,461.25,0.239583,Sixteenth,C4
2975,Left,1,48,85,461.25,0.239583,Sixteenth,C3
2978,Right,0,61,83,461.5,0.239583,Sixteenth,C#4
2977,Left,1,49,83,461.5,0.239583,Sixteenth,C#3
2980,Right,0,62,81,461.75,0.239583,Sixteenth,D4
2979,Left,1,50,81,461.75,0.239583,Sixteenth,D3
2981,Left,1,51,80,462.0,0.489583,Eighth,D#3
2982,Right,0,63,80,462.0,0.489583,Eighth,D#4
2984,Right,0,51,80,463.0,0.489583,Eighth,D#3
2983,Left,1,39,80,463.0,0.489583,Eighth,D#2
2985,Left,1,32,80,464.0,0.489583,Eighth,G#1
2986,Right,0,44,80,464.0,0.489583,Eighth,G#2
2987,Left,1,51,70,465.0,0.489583,Eighth,D#4_D#3
2989,Right,0,75,70,465.0,0.489583,Eighth,D#6_D#5
2992,Right,0,80,70,466.0,0.489583,Eighth,G#5_G#4
2991,Left,1,44,70,466.0,0.489583,Eighth,G#3_G#2
2995,Left,1,39,70,467.0,0.489583,Eighth,D#3_D#2
2996,Right,0,63,70,467.0,0.489583,Eighth,D#5_D#4
3001,Left,1,51,70,467.5,0.489583,Eighth,D#3_D#2
2999,Right,0,75,70,467.5,0.489583,Eighth,D#5_D#4
3003,Left,1,32,70,468.0,0.989583,Quarter,G#2_G#1
3004,Right,0,68,70,468.0,0.989583,Quarter,G#4_G#3
