,hand,channel,note,velocity,start_beat,duration,note_value,chord
0,Left,1,51,80,0.0,0.489583,Eighth,D#3
1,Left,1,55,80,0.5,0.489583,Eighth,G3
2,Left,1,46,80,1.0,0.489583,Eighth,A#2
3,Left,1,51,80,1.5,0.489583,Eighth,D#3
4,Left,1,55,80,2.0,0.489583,Eighth,G3
5,Left,1,50,80,2.5,0.489583,Eighth,D3
6,Left,1,51,80,3.0,0.489583,Eighth,D#3
7,Left,1,55,80,3.5,0.489583,Eighth,G3
8,Left,1,46,80,4.0,0.489583,Eighth,A#2
9,Left,1,51,80,4.5,0.489583,Eighth,D#3
10,Left,1,55,80,5.0,0.489583,Eighth,G3
11,Left,1,50,80,5.5,0.489583,Eighth,D3
12,Left,1,51,80,6.0,0.489583,Eighth,D#3
14,Right,0,82,80,6.5,0.489583,Eighth,A#5
13,Left,1,55,80,6.5,0.489583,Eighth,G3
16,Left,1,46,80,7.0,0.489583,Eighth,A#2
15,Right,0,82,80,7.0,0.989583,Quarter,A#5
17,Left,1,53,80,7.5,0.489583,Eighth,F3
18,Left,1,56,80,8.0,0.489583,Eighth,G#3
19,Right,0,80,80,8.0,0.489583,Eighth,G#5
20,Left,1,52,80,8.5,0.489583,Eighth,E3
21,Right,0,77,80,8.5,0.989583,Quarter,F5
22,Left,1,53,80,9.0,0.489583,Eighth,F3
24,Left,1,56,80,9.5,0.489583,Eighth,G#3
23,Right,0,74,80,9.5,0.489583,Eighth,D5
25,Left,1,46,80,10.0,0.489583,Eighth,A#2
26,Right,0,75,80,10.0,0.989583,Quarter,D#5
27,Left,1,51,80,10.5,0.489583,Eighth,D#3
28,Left,1,55,80,11.0,0.489583,Eighth,G3
29,Left,1,50,80,11.5,0.489583,Eighth,D3
30,Left,1,51,80,12.0,0.489583,Eighth,D#3
32,Right,0,70,80,12.5,0.489583,Eighth,A#4
31,Left,1,55,80,12.5,0.489583,Eighth,G3
34,Right,0,70,80,13.0,0.989583,Quarter,A#4
33,Left,1,46,80,13.0,0.489583,Eighth,A#2
35,Left,1,53,80,13.5,0.489583,Eighth,F3
36,Right,0,68,80,14.0,0.489583,Eighth,G#4
37,Left,1,56,80,14.0,0.489583,Eighth,G#3
39,Right,0,65,80,14.5,0.989583,Quarter,F4
38,Left,1,52,80,14.5,0.489583,Eighth,E3
40,Left,1,53,80,15.0,0.489583,Eighth,F3
41,Right,0,62,80,15.5,0.489583,Eighth,D4
42,Left,1,56,80,15.5,0.489583,Eighth,G#3
43,Left,1,51,80,16.0,0.989583,Quarter,D#3_D#2
44,Right,0,55,80,16.0,0.989583,Quarter,G3_D#4
47,Left,1,51,80,18.0,0.489583,Eighth,D#3
48,Left,1,55,80,18.5,0.489583,Eighth,G3
49,Left,1,46,80,19.0,0.489583,Eighth,A#2
50,Left,1,51,80,19.5,0.489583,Eighth,D#3
51,Left,1,55,80,20.0,0.489583,Eighth,G3
52,Left,1,50,80,20.5,0.489583,Eighth,D3
53,Left,1,51,80,21.0,0.489583,Eighth,D#3
54,Left,1,55,80,21.5,0.489583,Eighth,G3
55,Left,1,46,80,22.0,0.489583,Eighth,A#2
56,Left,1,51,80,22.5,0.489583,Eighth,D#3
57,Left,1,55,80,23.0,0.489583,Eighth,G3
58,Left,1,50,80,23.5,0.489583,Eighth,D3
59,Left,1,51,80,24.0,0.489583,Eighth,D#3
60,Left,1,55,80,24.5,0.489583,Eighth,G3
61,Right,0,82,80,24.5,0.489583,Eighth,A#5
63,Right,0,82,80,25.0,0.989583,Quarter,A#5
62,Left,1,46,80,25.0,0.489583,Eighth,A#2
64,Left,1,53,80,25.5,0.489583,Eighth,F3
65,Left,1,56,80,26.0,0.489583,Eighth,G#3
66,Right,0,80,80,26.0,0.489583,Eighth,G#5
67,Left,1,52,80,26.5,0.489583,Eighth,E3
68,Right,0,77,80,26.5,0.989583,Quarter,F5
69,Left,1,53,80,27.0,0.489583,Eighth,F3
70,Left,1,56,80,27.5,0.489583,Eighth,G#3
71,Right,0,74,80,27.5,0.489583,Eighth,D5
72,Left,1,46,80,28.0,0.489583,Eighth,A#2
73,Right,0,75,80,28.0,0.989583,Quarter,D#5
74,Left,1,51,80,28.5,0.489583,Eighth,D#3
75,Left,1,55,80,29.0,0.489583,Eighth,G3
76,Left,1,50,80,29.5,0.489583,Eighth,D3
77,Left,1,51,80,30.0,0.489583,Eighth,D#3
79,Left,1,55,80,30.5,0.489583,Eighth,G3
78,Right,0,70,80,30.5,0.489583,Eighth,A#4
81,Left,1,46,80,31.0,0.489583,Eighth,A#2
80,Right,0,70,80,31.0,0.989583,Quarter,A#4
82,Left,1,53,80,31.5,0.489583,Eighth,F3
83,Right,0,68,80,32.0,0.489583,Eighth,G#4
84,Left,1,56,80,32.0,0.489583,Eighth,G#3
86,Left,1,52,80,32.5,0.489583,Eighth,E3
85,Right,0,65,80,32.5,0.989583,Quarter,F4
87,Left,1,53,80,33.0,0.489583,Eighth,F3
88,Right,0,62,80,33.5,0.489583,Eighth,D4
89,Left,1,56,80,33.5,0.489583,Eighth,G#3
91,Right,0,55,80,34.0,0.989583,Quarter,G3_D#4
90,Left,1,39,80,34.0,0.989583,Quarter,D#3_D#2
94,Right,0,58,110,35.5,0.989583,Quarter,A#3
95,Right,0,58,110,36.5,0.489583,Eighth,A#3
98,Right,0,63,110,37.0,0.989583,Quarter,G3_D#4
96,Left,1,51,110,37.0,0.989583,Quarter,D#3_D#2
100,Right,0,63,110,38.0,0.489583,Eighth,D#4
102,Right,0,58,110,38.5,0.989583,Quarter,A#3
101,Left,1,70,110,38.5,0.989583,Quarter,A#4
103,Right,0,58,110,39.5,0.489583,Eighth,A#3
104,Right,0,63,110,40.0,0.989583,Quarter,G3_D#4
106,Right,0,63,110,41.0,0.489583,Eighth,D#4
108,Left,1,70,110,41.5,0.989583,Quarter,A#4
107,Right,0,58,110,41.5,0.989583,Quarter,A#3
109,Right,0,58,110,42.5,0.489583,Eighth,A#3
110,Right,0,63,110,43.0,0.989583,Quarter,G3_D#4
112,Right,0,63,110,44.0,0.489583,Eighth,D#4
113,Right,0,58,110,44.5,0.989583,Quarter,A#3
114,Left,1,70,110,44.5,0.989583,Quarter,A#4
115,Right,0,58,110,45.5,0.489583,Eighth,A#3
117,Right,0,62,110,46.0,0.989583,Quarter,F4_D4
116,Left,1,70,110,46.0,0.989583,Quarter,A#4
119,Right,0,62,110,47.0,0.489583,Eighth,F4_D4
121,Right,0,58,110,47.5,0.989583,Quarter,A#3
122,Right,0,58,110,48.5,0.489583,Eighth,A#3
125,Left,1,46,110,49.0,0.989583,Quarter,A#2_A#1
123,Right,0,62,110,49.0,0.989583,Quarter,F4_D4
127,Right,0,65,110,50.0,0.489583,Eighth,F4_D4
130,Left,1,70,110,50.5,0.989583,Quarter,A#4
129,Right,0,58,110,50.5,0.989583,Quarter,A#3
131,Right,0,58,110,51.5,0.489583,Eighth,A#3
132,Right,0,65,110,52.0,0.989583,Quarter,F4_D4
134,Right,0,65,110,53.0,0.489583,Eighth,F4_D4
136,Right,0,58,110,53.5,0.989583,Quarter,A#3
137,Left,1,70,110,53.5,0.989583,Quarter,A#4
138,Right,0,58,110,54.5,0.489583,Eighth,A#3
139,Right,0,65,110,55.0,0.989583,Quarter,F4_D4
141,Right,0,62,110,56.0,0.489583,Eighth,F4_D4
144,Left,1,70,110,56.5,0.989583,Quarter,A#4
143,Right,0,58,110,56.5,0.989583,Quarter,A#3
145,Right,0,58,110,57.5,0.489583,Eighth,A#3
146,Left,1,70,110,58.0,0.989583,Quarter,A#4
147,Right,0,63,110,58.0,0.989583,Quarter,G4_D#4
149,Right,0,67,110,59.0,0.489583,Eighth,G4
151,Right,0,63,80,59.5,0.989583,Quarter,D#4
150,Left,1,51,80,59.5,5.489583,Unknown,D#3
152,Right,0,63,80,60.5,0.489583,Eighth,D#4
154,Right,0,68,80,61.0,0.989583,Quarter,G#4
153,Left,1,48,80,61.0,1.489583,DottedQuarter,C3
155,Right,0,68,80,62.0,0.489583,Eighth,G#4
157,Left,1,44,80,62.5,1.489583,DottedQuarter,G#2
156,Right,0,72,80,62.5,0.989583,Quarter,C5
158,Right,0,72,80,63.5,0.489583,Eighth,C5
160,Left,1,43,80,64.0,0.989583,Quarter,G2
159,Right,0,70,80,64.0,0.989583,Quarter,A#4
161,Right,0,70,80,65.0,0.489583,Eighth,A#4
163,Left,1,51,80,65.5,5.489583,Unknown,D#3
162,Right,0,75,80,65.5,0.989583,Quarter,D#5
164,Right,0,75,80,66.5,0.489583,Eighth,D#5
166,Left,1,48,80,67.0,1.489583,DottedQuarter,C3
165,Right,0,80,80,67.0,0.989583,Quarter,G#5
167,Right,0,80,80,68.0,0.489583,Eighth,G#5
169,Left,1,44,80,68.5,1.489583,DottedQuarter,G#2
168,Right,0,84,80,68.5,0.989583,Quarter,C6
170,Right,0,84,80,69.5,0.489583,Eighth,C6
171,Left,1,43,80,70.0,0.989583,Quarter,G2
172,Right,0,82,80,70.0,0.989583,Quarter,A#5
173,Right,0,70,80,71.0,0.489583,Eighth,A#4
174,Left,1,51,80,71.5,5.489583,Unknown,D#3
175,Right,0,63,80,71.5,0.989583,Quarter,D#4
176,Right,0,63,80,72.5,0.489583,Eighth,D#4
177,Right,0,68,80,73.0,0.989583,Quarter,G#4
178,Left,1,48,80,73.0,1.489583,DottedQuarter,C3
179,Right,0,68,80,74.0,0.489583,Eighth,G#4
180,Right,0,72,80,74.5,0.989583,Quarter,C5
181,Left,1,44,80,74.5,1.489583,DottedQuarter,G#2
182,Right,0,72,80,75.5,0.489583,Eighth,C5
184,Right,0,70,80,76.0,0.989583,Quarter,A#4
183,Left,1,43,80,76.0,0.989583,Quarter,G2
185,Right,0,67,80,77.0,0.489583,Eighth,G4
187,Right,0,65,80,77.5,0.989583,Quarter,F4
186,Left,1,44,80,77.5,0.989583,Quarter,G#2_F3
189,Right,0,68,80,78.5,0.489583,Eighth,G#4
190,Right,0,63,80,79.0,0.989583,Quarter,D#4
191,Left,1,46,80,79.0,0.989583,Quarter,G3_A#2
193,Right,0,67,80,80.0,0.489583,Eighth,G4
194,Right,0,62,80,80.5,0.989583,Quarter,D4
195,Left,1,46,80,80.5,0.989583,Quarter,G#3_A#2
197,Right,0,65,80,81.5,0.489583,Eighth,F4
199,Left,1,39,80,82.0,0.989583,Quarter,D#2
198,Right,0,63,80,82.0,0.989583,Quarter,D#4
200,Right,0,63,80,83.5,0.989583,Quarter,D#4
201,Left,1,51,80,83.5,5.489583,Unknown,D#3
202,Right,0,63,80,84.5,0.489583,Eighth,D#4
203,Right,0,68,80,85.0,0.989583,Quarter,G#4
204,Left,1,47,80,85.0,1.489583,DottedQuarter,B2
205,Right,0,68,80,86.0,0.489583,Eighth,G#4
206,Right,0,71,80,86.5,0.989583,Quarter,B4
207,Left,1,44,80,86.5,1.489583,DottedQuarter,G#2
208,Right,0,71,80,87.5,0.489583,Eighth,B4
210,Left,1,42,80,88.0,0.989583,Quarter,F#2
209,Right,0,70,80,88.0,0.989583,Quarter,A#4
211,Right,0,70,80,89.0,0.489583,Eighth,A#4
212,Left,1,51,80,89.5,5.489583,Unknown,D#3
213,Right,0,75,80,89.5,0.989583,Quarter,D#5
214,Right,0,75,80,90.5,0.489583,Eighth,D#5
216,Left,1,47,80,91.0,1.489583,DottedQuarter,B2
215,Right,0,80,80,91.0,0.989583,Quarter,G#5
217,Right,0,80,80,92.0,0.489583,Eighth,G#5
219,Left,1,44,80,92.5,1.489583,DottedQuarter,G#2
218,Right,0,83,80,92.5,0.989583,Quarter,B5
220,Right,0,83,80,93.5,0.489583,Eighth,B5
222,Left,1,42,80,94.0,0.989583,Quarter,F#2
221,Right,0,82,80,94.0,0.989583,Quarter,A#5
223,Right,0,70,80,95.0,0.489583,Eighth,A#4
225,Left,1,51,80,95.5,4.489583,Whole,D#3
224,Right,0,63,80,95.5,0.989583,Quarter,D#4
226,Right,0,63,87,96.5,0.489583,Eighth,D#4
227,Right,0,68,91,97.0,0.989583,Quarter,G#4
228,Left,1,48,91,97.0,1.489583,DottedQuarter,C3
229,Right,0,68,98,98.0,0.489583,Eighth,G#4
230,Left,1,46,102,98.5,1.489583,DottedQuarter,A#2
231,Right,0,72,102,98.5,0.989583,Quarter,C5
232,Right,0,72,109,99.5,0.489583,Eighth,C5
234,Left,1,44,110,100.0,0.489583,Eighth,G#2
233,Right,0,65,110,100.0,4.489583,Whole,F4
235,Left,1,60,110,100.5,0.489583,Eighth,C4
236,Left,1,63,110,101.0,0.489583,Eighth,D#4
238,Left,1,57,110,101.5,0.489583,Eighth,A3
237,Right,0,77,110,101.5,2.989583,DottedHalf,F5
239,Left,1,60,110,102.0,0.489583,Eighth,C4
240,Left,1,63,110,102.5,0.489583,Eighth,D#4
241,Left,1,57,110,103.0,0.489583,Eighth,A3
242,Left,1,60,110,103.5,0.489583,Eighth,C4
243,Left,1,63,110,104.0,0.489583,Eighth,D#4
244,Left,1,57,110,104.5,0.489583,Eighth,A3
245,Right,0,77,110,104.5,0.989583,Quarter,F5
246,Left,1,60,110,105.0,0.489583,Eighth,C4
247,Left,1,63,110,105.5,0.489583,Eighth,D#4
248,Right,0,77,110,106.0,0.989583,Quarter,F5
249,Left,1,57,110,106.0,0.489583,Eighth,A3
250,Left,1,60,110,106.5,0.489583,Eighth,C4
251,Left,1,63,110,107.0,0.489583,Eighth,D#4
253,Right,0,77,110,107.5,0.989583,Quarter,F5
252,Left,1,57,110,107.5,0.489583,Eighth,A3
254,Left,1,60,110,108.0,0.489583,Eighth,C4
255,Left,1,63,110,108.5,0.489583,Eighth,D#4
257,Right,0,77,110,109.0,0.989583,Quarter,F5
256,Left,1,57,110,109.0,0.489583,Eighth,A3
258,Left,1,60,110,109.5,0.489583,Eighth,C4
259,Left,1,63,110,110.0,0.489583,Eighth,D#4
261,Right,0,77,110,110.5,0.989583,Quarter,F5
260,Left,1,57,110,110.5,0.489583,Eighth,A3
262,Left,1,60,110,111.0,0.489583,Eighth,C4
263,Left,1,63,110,111.5,0.489583,Eighth,D#4
265,Left,1,57,110,112.0,0.489583,Eighth,A3
264,Right,0,77,110,112.0,4.489583,Whole,F5
266,Left,1,60,110,112.5,0.489583,Eighth,C4
267,Left,1,63,110,113.0,0.489583,Eighth,D#4
269,Left,1,57,110,113.5,0.489583,Eighth,A3
268,Right,0,89,110,113.5,2.989583,DottedHalf,F6
270,Left,1,60,110,114.0,0.489583,Eighth,C4
271,Left,1,63,110,114.5,0.489583,Eighth,D#4
272,Left,1,57,110,115.0,0.489583,Eighth,A3
273,Left,1,60,110,115.5,0.489583,Eighth,C4
274,Left,1,63,110,116.0,0.489583,Eighth,D#4
275,Right,0,77,110,116.5,0.989583,Quarter,F6_F5
276,Left,1,57,110,116.5,0.489583,Eighth,A3
278,Left,1,60,110,117.0,0.489583,Eighth,C4
279,Left,1,63,110,117.5,0.489583,Eighth,D#4
280,Right,0,89,110,118.0,0.989583,Quarter,F6_F5
281,Left,1,57,110,118.0,0.489583,Eighth,A3
283,Left,1,60,110,118.5,0.489583,Eighth,C4
284,Left,1,63,110,119.0,0.489583,Eighth,D#4
286,Left,1,57,110,119.5,0.489583,Eighth,A3
285,Right,0,77,110,119.5,0.989583,Quarter,F6_F5
288,Left,1,60,110,120.0,0.489583,Eighth,C4
289,Left,1,63,110,120.5,0.489583,Eighth,D#4
290,Right,0,89,110,121.0,0.989583,Quarter,F6_F5
292,Left,1,57,110,121.0,0.489583,Eighth,A3
293,Left,1,60,110,121.5,0.489583,Eighth,C4
294,Left,1,63,110,122.0,0.489583,Eighth,D#4
295,Left,1,57,110,122.5,0.489583,Eighth,A3
296,Right,0,89,110,122.5,0.989583,Quarter,F6_F5
298,Left,1,60,110,123.0,0.489583,Eighth,C4
299,Left,1,63,110,123.5,0.489583,Eighth,D#4
300,Right,0,89,110,124.0,0.989583,Quarter,F6_F5
302,Left,1,57,110,124.0,0.489583,Eighth,A3
303,Left,1,60,110,124.5,0.489583,Eighth,C4
304,Right,0,81,110,125.0,0.489583,Eighth,A5
305,Left,1,63,110,125.0,0.489583,Eighth,D#4
306,Left,1,62,110,125.5,0.489583,Eighth,D4
307,Right,0,82,110,125.5,0.489583,Eighth,A#5
308,Right,0,84,110,126.0,0.489583,Eighth,C6
309,Left,1,60,110,126.0,0.489583,Eighth,C4
311,Right,0,86,110,126.5,0.489583,Eighth,D6
310,Left,1,58,110,126.5,0.489583,Eighth,A#3
312,Left,1,57,110,127.0,0.489583,Eighth,A3
313,Left,1,58,110,127.5,0.489583,Eighth,A#3
315,Right,0,78,110,128.0,0.489583,Eighth,F#5
314,Left,1,60,110,128.0,0.489583,Eighth,C4
316,Left,1,58,110,128.5,0.489583,Eighth,A#3
317,Right,0,79,110,128.5,0.489583,Eighth,G5
319,Left,1,57,110,129.0,0.489583,Eighth,A3
318,Right,0,81,110,129.0,0.489583,Eighth,A5
321,Left,1,55,110,129.5,0.489583,Eighth,G3
320,Right,0,82,110,129.5,0.489583,Eighth,A#5
322,Left,1,53,110,130.0,0.489583,Eighth,F3
323,Left,1,55,110,130.5,0.489583,Eighth,G3
325,Left,1,57,110,131.0,0.489583,Eighth,A3
324,Right,0,74,110,131.0,0.489583,Eighth,D5
326,Right,0,75,110,131.5,0.489583,Eighth,D#5
327,Left,1,55,110,131.5,0.489583,Eighth,G3
329,Left,1,53,110,132.0,0.489583,Eighth,F3
328,Right,0,77,110,132.0,0.489583,Eighth,F5
330,Left,1,51,110,132.5,0.489583,Eighth,D#3
331,Right,0,79,110,132.5,0.489583,Eighth,G5
332,Left,1,50,110,133.0,0.489583,Eighth,D3
333,Left,1,51,110,133.5,0.489583,Eighth,D#3
335,Right,0,71,110,134.0,0.489583,Eighth,B4
334,Left,1,53,110,134.0,0.489583,Eighth,F3
336,Left,1,51,110,134.5,0.489583,Eighth,D#3
337,Right,0,72,110,134.5,0.489583,Eighth,C5
338,Left,1,50,110,135.0,0.489583,Eighth,D3
339,Right,0,74,110,135.0,0.489583,Eighth,D5
341,Left,1,48,110,135.5,0.489583,Eighth,C3
340,Right,0,75,110,135.5,0.489583,Eighth,D#5
342,Left,1,39,110,136.0,0.989583,Quarter,D#2
343,Right,0,60,110,136.5,0.489583,Eighth,C4
344,Right,0,63,110,137.0,0.489583,Eighth,D#4
345,Right,0,67,110,137.5,0.489583,Eighth,G4
346,Right,0,63,110,138.0,0.489583,Eighth,D#4
347,Right,0,67,110,138.5,0.489583,Eighth,G4
349,Left,1,60,110,139.0,0.989583,Quarter,G3_D#3_C4
348,Right,0,72,110,139.0,0.489583,Eighth,C5
352,Right,0,67,110,139.5,0.489583,Eighth,G4
353,Right,0,72,110,140.0,0.489583,Eighth,C5
354,Right,0,75,110,140.5,0.489583,Eighth,D#5
355,Right,0,72,110,141.0,0.489583,Eighth,C5
356,Right,0,75,110,141.5,0.489583,Eighth,D#5
357,Right,0,79,110,142.0,0.489583,Eighth,G5
358,Right,0,77,110,142.5,0.489583,Eighth,F5
359,Right,0,75,110,143.0,0.489583,Eighth,D#5
361,Left,1,51,110,143.5,0.489583,Eighth,D#3
360,Right,0,74,110,143.5,0.489583,Eighth,D5
362,Left,1,55,110,144.0,0.489583,Eighth,G3
363,Right,0,75,110,144.0,0.489583,Eighth,D#5
364,Left,1,60,110,144.5,0.489583,Eighth,C4
365,Right,0,72,110,144.5,0.489583,Eighth,C5
367,Right,0,77,110,145.0,0.489583,Eighth,F5
366,Left,1,53,110,145.0,0.489583,Eighth,F3
368,Left,1,58,110,145.5,0.489583,Eighth,A#3
369,Right,0,74,110,145.5,0.489583,Eighth,D5
371,Right,0,70,110,146.0,0.489583,Eighth,A#4
370,Left,1,62,110,146.0,0.489583,Eighth,D4
372,Right,0,75,110,146.5,0.489583,Eighth,D#5
373,Left,1,53,110,146.5,0.489583,Eighth,F3
374,Right,0,72,110,147.0,0.489583,Eighth,C5
375,Left,1,60,110,147.0,0.489583,Eighth,C4
376,Right,0,69,110,147.5,0.489583,Eighth,A4
377,Left,1,63,110,147.5,0.489583,Eighth,D#4
378,Left,1,57,110,148.0,0.489583,Eighth,A3
379,Right,0,89,110,148.5,0.489583,Eighth,F6
380,Left,1,60,110,148.5,0.489583,Eighth,C4
382,Right,0,81,110,149.0,0.489583,Eighth,A5
381,Left,1,63,110,149.0,0.489583,Eighth,D#4
384,Right,0,82,110,149.5,0.489583,Eighth,A#5
383,Left,1,62,110,149.5,0.489583,Eighth,D4
385,Left,1,60,110,150.0,0.489583,Eighth,C4
386,Right,0,84,110,150.0,0.489583,Eighth,C6
388,Right,0,86,110,150.5,0.489583,Eighth,D6
387,Left,1,58,110,150.5,0.489583,Eighth,A#3
389,Left,1,57,110,151.0,0.489583,Eighth,A3
390,Left,1,58,110,151.5,0.489583,Eighth,A#3
391,Right,0,86,110,151.5,0.489583,Eighth,D6
392,Left,1,60,110,152.0,0.489583,Eighth,C4
393,Right,0,78,110,152.0,0.489583,Eighth,F#5
395,Right,0,79,110,152.5,0.489583,Eighth,G5
394,Left,1,58,110,152.5,0.489583,Eighth,A#3
397,Right,0,81,110,153.0,0.489583,Eighth,A5
396,Left,1,57,110,153.0,0.489583,Eighth,A3
399,Right,0,82,110,153.5,0.489583,Eighth,A#5
398,Left,1,55,110,153.5,0.489583,Eighth,G3
400,Left,1,53,110,154.0,0.489583,Eighth,F3
402,Right,0,82,110,154.5,0.489583,Eighth,A#5
401,Left,1,55,110,154.5,0.489583,Eighth,G3
403,Right,0,74,110,155.0,0.489583,Eighth,D5
404,Left,1,56,110,155.0,0.489583,Eighth,G#3
405,Right,0,75,110,155.5,0.489583,Eighth,D#5
406,Left,1,55,110,155.5,0.489583,Eighth,G3
407,Left,1,53,110,156.0,0.489583,Eighth,F3
408,Right,0,77,110,156.0,0.489583,Eighth,F5
410,Right,0,79,110,156.5,0.489583,Eighth,G5
409,Left,1,51,110,156.5,0.489583,Eighth,D#3
411,Left,1,50,110,157.0,0.489583,Eighth,D3
412,Left,1,51,110,157.5,0.489583,Eighth,D#3
413,Right,0,79,110,157.5,0.489583,Eighth,G5
415,Left,1,53,110,158.0,0.489583,Eighth,F3
414,Right,0,71,110,158.0,0.489583,Eighth,B4
417,Left,1,51,110,158.5,0.489583,Eighth,D#3
416,Right,0,72,110,158.5,0.489583,Eighth,C5
418,Right,0,74,110,159.0,0.489583,Eighth,D5
419,Left,1,50,110,159.0,0.489583,Eighth,D3
421,Left,1,48,110,159.5,0.489583,Eighth,C3
420,Right,0,75,110,159.5,0.489583,Eighth,D#5
422,Left,1,39,110,160.0,0.989583,Quarter,D#2
423,Right,0,55,110,160.5,0.489583,Eighth,G3
424,Right,0,60,110,161.0,0.489583,Eighth,C4
425,Right,0,63,110,161.5,0.489583,Eighth,D#4
426,Right,0,60,110,162.0,0.489583,Eighth,C4
427,Right,0,63,110,162.5,0.489583,Eighth,D#4
428,Right,0,67,110,163.0,0.489583,Eighth,G4
429,Left,1,55,110,163.0,0.989583,Quarter,G3_D#3
431,Right,0,60,110,163.5,0.489583,Eighth,C4
432,Right,0,63,110,164.0,0.489583,Eighth,D#4
433,Right,0,67,110,164.5,0.489583,Eighth,G4
434,Right,0,63,110,165.0,0.489583,Eighth,D#4
435,Right,0,67,110,165.5,0.489583,Eighth,G4
436,Right,0,72,110,166.0,0.489583,Eighth,C5
437,Left,1,51,110,166.0,0.989583,Quarter,G3_D#3_C4
440,Right,0,63,110,166.5,0.489583,Eighth,D#4
441,Right,0,67,110,167.0,0.489583,Eighth,G4
442,Right,0,72,110,167.5,0.489583,Eighth,C5
443,Right,0,67,110,168.0,0.489583,Eighth,G4
444,Right,0,72,110,168.5,0.489583,Eighth,C5
449,Right,0,75,110,169.0,0.489583,Eighth,D#5
445,Left,1,51,110,169.0,0.989583,Quarter,G3_D#4_D#3_C4
450,Right,0,67,110,169.5,0.489583,Eighth,G4
451,Right,0,72,110,170.0,0.489583,Eighth,C5
452,Right,0,75,110,170.5,0.489583,Eighth,D#5
453,Right,0,72,110,171.0,0.489583,Eighth,C5
454,Right,0,75,110,171.5,0.489583,Eighth,D#5
455,Right,0,79,110,172.0,0.489583,Eighth,G5
457,Left,1,63,110,172.5,0.489583,Eighth,D#4
456,Right,0,67,110,172.5,0.489583,Eighth,G4
459,Left,1,60,110,173.0,0.489583,Eighth,C4
458,Right,0,72,110,173.0,0.489583,Eighth,C5
460,Left,1,55,110,173.5,0.489583,Eighth,G3
461,Right,0,75,110,173.5,0.489583,Eighth,D#5
462,Left,1,60,110,174.0,0.489583,Eighth,C4
463,Right,0,72,110,174.0,0.489583,Eighth,C5
465,Right,0,75,110,174.5,0.489583,Eighth,D#5
464,Left,1,55,110,174.5,0.489583,Eighth,G3
466,Right,0,79,110,175.0,0.489583,Eighth,G5
467,Left,1,51,110,175.0,0.489583,Eighth,D#3
469,Left,1,63,110,175.5,0.489583,Eighth,D#4
468,Right,0,67,110,175.5,0.489583,Eighth,G4
470,Left,1,60,110,176.0,0.489583,Eighth,C4
471,Right,0,72,110,176.0,0.489583,Eighth,C5
473,Right,0,75,110,176.5,0.489583,Eighth,D#5
472,Left,1,55,110,176.5,0.489583,Eighth,G3
475,Left,1,60,110,177.0,0.489583,Eighth,C4
474,Right,0,72,110,177.0,0.489583,Eighth,C5
476,Left,1,55,110,177.5,0.489583,Eighth,G3
477,Right,0,75,110,177.5,0.489583,Eighth,D#5
478,Left,1,51,110,178.0,0.989583,Quarter,D#3
479,Right,0,79,110,178.0,0.489583,Eighth,G5
480,Right,0,67,110,178.5,0.489583,Eighth,G4
481,Right,0,66,110,179.0,0.489583,Eighth,F#4
482,Right,0,67,110,179.5,0.489583,Eighth,G4
483,Right,0,68,110,180.0,0.489583,Eighth,G#4
484,Right,0,69,110,180.5,0.489583,Eighth,A4
485,Right,0,70,110,181.0,0.489583,Eighth,A#4
486,Right,0,71,110,181.5,0.489583,Eighth,B4
487,Right,0,72,110,182.0,0.489583,Eighth,C5
488,Right,0,73,110,182.5,0.489583,Eighth,C#5
489,Right,0,74,110,183.0,0.489583,Eighth,D5
490,Right,0,75,110,183.5,0.489583,Eighth,D#5
491,Right,0,76,110,184.0,0.489583,Eighth,E5
492,Right,0,77,110,184.5,0.489583,Eighth,F5
493,Right,0,78,110,185.0,0.489583,Eighth,F#5
494,Left,1,55,110,185.5,0.989583,Quarter,G3_D#3_C4
496,Right,0,79,110,185.5,0.489583,Eighth,G5
498,Right,0,75,110,186.0,0.489583,Eighth,D#5
499,Right,0,72,110,186.5,0.489583,Eighth,C5
500,Left,1,53,110,187.0,0.989583,Quarter,F3_D4_A#3
502,Right,0,70,110,187.0,0.989583,Quarter,A#4
505,Left,1,63,110,188.5,0.989583,Quarter,F3_D#4_A3
504,Right,0,72,110,188.5,0.489583,Eighth,C5
508,Right,0,74,110,188.75,0.489583,Eighth,D5
509,Right,0,72,110,189.0,0.489583,Eighth,C5
510,Right,0,74,110,189.25,0.489583,Eighth,D5
511,Right,0,70,110,189.5,0.489583,Eighth,A#4
512,Right,0,72,110,189.75,0.239583,Sixteenth,C5
514,Right,0,70,100,190.0,0.989583,Quarter,A#4
513,Left,1,46,100,190.0,0.489583,Eighth,A#2
515,Left,1,53,80,190.5,0.489583,Eighth,F3
516,Left,1,58,80,191.0,0.489583,Eighth,A#3
517,Right,0,70,80,191.0,0.489583,Eighth,A#4
518,Left,1,62,80,191.5,0.489583,Eighth,D4
519,Right,0,74,80,191.5,0.989583,Quarter,D5
520,Left,1,58,80,192.0,0.489583,Eighth,A#3
521,Right,0,74,80,192.5,0.489583,Eighth,D5
522,Left,1,53,80,192.5,0.489583,Eighth,F3
523,Right,0,77,80,193.0,0.989583,Quarter,F5
524,Left,1,46,80,193.0,0.489583,Eighth,A#2
525,Left,1,53,80,193.5,0.489583,Eighth,F3
527,Right,0,77,80,194.0,0.489583,Eighth,F5
526,Left,1,58,80,194.0,0.489583,Eighth,A#3
528,Left,1,62,80,194.5,0.489583,Eighth,D4
529,Right,0,82,80,194.5,0.989583,Quarter,A#5
530,Left,1,58,80,195.0,0.489583,Eighth,A#3
531,Left,1,53,80,195.5,0.489583,Eighth,F3
532,Right,0,82,80,195.5,0.489583,Eighth,A#5
533,Right,0,86,80,196.0,0.989583,Quarter,D6
534,Left,1,46,80,196.0,0.489583,Eighth,A#2
535,Left,1,53,80,196.5,0.489583,Eighth,F3
537,Left,1,58,80,197.0,0.489583,Eighth,A#3
536,Right,0,86,80,197.0,0.489583,Eighth,D6
538,Right,0,89,80,197.5,0.989583,Quarter,F6
539,Left,1,62,80,197.5,0.489583,Eighth,D4
540,Left,1,58,80,198.0,0.489583,Eighth,A#3
542,Left,1,53,80,198.5,0.489583,Eighth,F3
541,Right,0,82,80,198.5,0.489583,Eighth,A#5
543,Left,1,46,80,199.0,0.489583,Eighth,A#2
544,Right,0,86,80,199.0,0.989583,Quarter,D6
545,Left,1,53,80,199.5,0.489583,Eighth,F3
547,Left,1,58,80,200.0,0.489583,Eighth,A#3
546,Right,0,77,80,200.0,0.489583,Eighth,F5
548,Left,1,62,80,200.5,0.489583,Eighth,D4
549,Right,0,82,80,200.5,0.989583,Quarter,A#5
550,Left,1,58,80,201.0,0.489583,Eighth,A#3
551,Right,0,74,80,201.5,0.489583,Eighth,D5
552,Left,1,53,80,201.5,0.489583,Eighth,F3
554,Right,0,77,80,202.0,0.989583,Quarter,F5
553,Left,1,46,80,202.0,0.489583,Eighth,A#2
555,Left,1,53,80,202.5,0.489583,Eighth,F3
557,Right,0,70,80,203.0,0.489583,Eighth,A#4
556,Left,1,58,80,203.0,0.489583,Eighth,A#3
558,Right,0,74,80,203.5,0.989583,Quarter,D5
559,Left,1,62,80,203.5,0.489583,Eighth,D4
560,Left,1,58,80,204.0,0.489583,Eighth,A#3
562,Right,0,72,80,204.5,0.489583,Eighth,C5
561,Left,1,53,80,204.5,0.489583,Eighth,F3
563,Right,0,75,80,205.0,0.989583,Quarter,D#5
564,Left,1,41,80,205.0,0.489583,Eighth,F2
565,Left,1,53,80,205.5,0.489583,Eighth,F3
566,Right,0,69,80,206.0,0.489583,Eighth,A4
567,Left,1,57,80,206.0,0.489583,Eighth,A3
568,Right,0,72,80,206.5,0.989583,Quarter,C5
569,Left,1,60,80,206.5,0.489583,Eighth,C4
570,Left,1,57,80,207.0,0.489583,Eighth,A3
571,Left,1,53,80,207.5,0.489583,Eighth,F3
572,Right,0,69,80,207.5,0.489583,Eighth,A4
573,Left,1,46,80,208.0,0.489583,Eighth,A#2
574,Right,0,70,80,208.0,0.989583,Quarter,A#4
575,Left,1,53,80,208.5,0.489583,Eighth,F3
577,Right,0,70,80,209.0,0.489583,Eighth,A#4
576,Left,1,58,80,209.0,0.489583,Eighth,A#3
578,Left,1,62,80,209.5,0.489583,Eighth,D4
579,Right,0,74,80,209.5,0.989583,Quarter,D5
580,Left,1,58,80,210.0,0.489583,Eighth,A#3
581,Left,1,53,80,210.5,0.489583,Eighth,F3
582,Right,0,74,80,210.5,0.489583,Eighth,D5
583,Left,1,46,80,211.0,0.489583,Eighth,A#2
584,Right,0,77,80,211.0,0.989583,Quarter,F5
585,Left,1,53,80,211.5,0.489583,Eighth,F3
586,Right,0,77,80,212.0,0.489583,Eighth,F5
587,Left,1,58,80,212.0,0.489583,Eighth,A#3
589,Left,1,62,80,212.5,0.489583,Eighth,D4
588,Right,0,82,80,212.5,0.989583,Quarter,A#5
590,Left,1,58,80,213.0,0.489583,Eighth,A#3
591,Left,1,53,80,213.5,0.489583,Eighth,F3
592,Right,0,82,80,213.5,0.489583,Eighth,A#5
593,Right,0,86,80,214.0,0.989583,Quarter,D6
594,Left,1,46,80,214.0,0.489583,Eighth,A#2
595,Left,1,53,80,214.5,0.489583,Eighth,F3
597,Left,1,58,80,215.0,0.489583,Eighth,A#3
596,Right,0,86,80,215.0,0.489583,Eighth,D6
599,Left,1,62,80,215.5,0.489583,Eighth,D4
598,Right,0,89,80,215.5,0.989583,Quarter,F6
600,Left,1,58,80,216.0,0.489583,Eighth,A#3
602,Left,1,53,80,216.5,0.489583,Eighth,F3
601,Right,0,82,80,216.5,0.489583,Eighth,A#5
604,Left,1,46,80,217.0,0.489583,Eighth,A#2
603,Right,0,86,80,217.0,0.989583,Quarter,D6
605,Left,1,53,80,217.5,0.489583,Eighth,F3
607,Right,0,77,80,218.0,0.489583,Eighth,F5
606,Left,1,58,80,218.0,0.489583,Eighth,A#3
608,Left,1,62,80,218.5,0.489583,Eighth,D4
609,Right,0,82,80,218.5,0.989583,Quarter,A#5
610,Left,1,58,80,219.0,0.489583,Eighth,A#3
612,Right,0,74,80,219.5,0.489583,Eighth,D5
611,Left,1,53,80,219.5,0.489583,Eighth,F3
613,Right,0,77,80,220.0,0.989583,Quarter,F5
614,Left,1,46,80,220.0,0.489583,Eighth,A#2
615,Left,1,53,80,220.5,0.489583,Eighth,F3
616,Left,1,58,80,221.0,0.489583,Eighth,A#3
617,Right,0,70,80,221.0,0.489583,Eighth,A#4
619,Right,0,74,80,221.5,0.989583,Quarter,D5
618,Left,1,62,80,221.5,0.489583,Eighth,D4
620,Left,1,58,80,222.0,0.489583,Eighth,A#3
621,Right,0,65,80,222.5,0.489583,Eighth,F4
622,Left,1,53,80,222.5,0.489583,Eighth,F3
624,Right,0,70,80,223.0,0.989583,Quarter,A#4
623,Left,1,46,80,223.0,0.489583,Eighth,A#2
625,Left,1,50,80,223.5,0.489583,Eighth,D3
627,Right,0,62,80,224.0,0.489583,Eighth,D4
626,Left,1,53,80,224.0,0.489583,Eighth,F3
629,Right,0,65,80,224.5,0.989583,Quarter,F4
628,Left,1,58,80,224.5,0.489583,Eighth,A#3
630,Left,1,53,80,225.0,0.489583,Eighth,F3
631,Left,1,50,80,225.5,0.489583,Eighth,D3
632,Right,0,58,80,225.5,0.489583,Eighth,A#3
633,Left,1,46,80,226.0,0.989583,Quarter,A#2
634,Right,0,62,80,226.0,0.989583,Quarter,D4
635,Right,0,53,120,227.0,0.489583,Eighth,F3
636,Left,1,34,120,227.5,0.989583,Quarter,A#1
637,Right,0,58,120,227.5,0.989583,Quarter,A#3
638,Right,0,50,120,228.5,0.489583,Eighth,D3
640,Left,1,34,120,229.0,0.989583,Quarter,A#1
639,Right,0,53,120,229.0,0.989583,Quarter,F3
641,Right,0,52,120,230.0,0.489583,Eighth,E3
642,Left,1,34,120,230.5,0.989583,Quarter,A#1
643,Right,0,55,120,230.5,0.989583,Quarter,G3
644,Right,0,53,120,231.5,5.489583,Unknown,F3
647,Left,1,34,120,232.0,4.989583,Unknown,A#1
645,Right,0,50,120,232.0,4.989583,Unknown,G#3_D3
648,Left,1,51,80,237.0,0.489583,Eighth,D#3
649,Left,1,55,80,237.5,0.489583,Eighth,G3
650,Left,1,46,80,238.0,0.489583,Eighth,A#2
651,Left,1,51,80,238.5,0.489583,Eighth,D#3
652,Left,1,55,80,239.0,0.489583,Eighth,G3
653,Left,1,50,80,239.5,0.489583,Eighth,D3
654,Left,1,51,80,240.0,0.489583,Eighth,D#3
655,Left,1,55,80,240.5,0.489583,Eighth,G3
656,Left,1,46,80,241.0,0.489583,Eighth,A#2
657,Left,1,51,80,241.5,0.489583,Eighth,D#3
658,Left,1,55,80,242.0,0.489583,Eighth,G3
659,Left,1,50,80,242.5,0.489583,Eighth,D3
660,Left,1,51,80,243.0,0.489583,Eighth,D#3
662,Left,1,55,80,243.5,0.489583,Eighth,G3
661,Right,0,82,80,243.5,0.489583,Eighth,A#5
664,Left,1,46,80,244.0,0.489583,Eighth,A#2
663,Right,0,82,80,244.0,0.989583,Quarter,A#5
665,Left,1,53,80,244.5,0.489583,Eighth,F3
667,Left,1,56,80,245.0,0.489583,Eighth,G#3
666,Right,0,80,80,245.0,0.489583,Eighth,G#5
669,Left,1,52,80,245.5,0.489583,Eighth,E3
668,Right,0,77,80,245.5,0.989583,Quarter,F5
670,Left,1,53,80,246.0,0.489583,Eighth,F3
672,Left,1,56,80,246.5,0.489583,Eighth,G#3
671,Right,0,74,80,246.5,0.489583,Eighth,D5
674,Left,1,46,80,247.0,0.489583,Eighth,A#2
673,Right,0,75,80,247.0,0.989583,Quarter,D#5
675,Left,1,51,80,247.5,0.489583,Eighth,D#3
676,Left,1,55,80,248.0,0.489583,Eighth,G3
677,Left,1,50,80,248.5,0.489583,Eighth,D3
678,Left,1,51,80,249.0,0.489583,Eighth,D#3
680,Left,1,55,80,249.5,0.489583,Eighth,G3
679,Right,0,70,80,249.5,0.489583,Eighth,A#4
681,Left,1,46,80,250.0,0.489583,Eighth,A#2
682,Right,0,70,80,250.0,0.989583,Quarter,A#4
683,Left,1,53,80,250.5,0.489583,Eighth,F3
684,Left,1,56,80,251.0,0.489583,Eighth,G#3
685,Right,0,68,80,251.0,0.489583,Eighth,G#4
687,Left,1,52,80,251.5,0.489583,Eighth,E3
686,Right,0,65,80,251.5,0.989583,Quarter,F4
688,Left,1,53,80,252.0,0.489583,Eighth,F3
689,Right,0,62,80,252.5,0.489583,Eighth,D4
690,Left,1,56,80,252.5,0.489583,Eighth,G#3
691,Right,0,63,80,253.0,0.989583,Quarter,G3_D#4
692,Left,1,39,80,253.0,0.989583,Quarter,D#3_D#2
695,Left,1,51,80,255.0,0.489583,Eighth,D#3
696,Left,1,55,80,255.5,0.489583,Eighth,G3
697,Left,1,46,80,256.0,0.489583,Eighth,A#2
698,Left,1,51,80,256.5,0.489583,Eighth,D#3
699,Left,1,55,80,257.0,0.489583,Eighth,G3
700,Left,1,50,80,257.5,0.489583,Eighth,D3
701,Left,1,51,80,258.0,0.489583,Eighth,D#3
702,Left,1,55,80,258.5,0.489583,Eighth,G3
703,Left,1,46,80,259.0,0.489583,Eighth,A#2
704,Left,1,51,80,259.5,0.489583,Eighth,D#3
705,Left,1,55,80,260.0,0.489583,Eighth,G3
706,Left,1,50,80,260.5,0.489583,Eighth,D3
707,Left,1,51,80,261.0,0.489583,Eighth,D#3
708,Left,1,55,80,261.5,0.489583,Eighth,G3
709,Right,0,82,80,261.5,0.489583,Eighth,A#5
710,Right,0,82,80,262.0,0.989583,Quarter,A#5
711,Left,1,46,80,262.0,0.489583,Eighth,A#2
712,Left,1,53,80,262.5,0.489583,Eighth,F3
713,Left,1,56,80,263.0,0.489583,Eighth,G#3
714,Right,0,80,80,263.0,0.489583,Eighth,G#5
715,Left,1,52,80,263.5,0.489583,Eighth,E3
716,Right,0,77,80,263.5,0.989583,Quarter,F5
717,Left,1,53,80,264.0,0.489583,Eighth,F3
718,Left,1,56,80,264.5,0.489583,Eighth,G#3
719,Right,0,74,80,264.5,0.489583,Eighth,D5
721,Right,0,75,80,265.0,0.989583,Quarter,D#5
720,Left,1,46,80,265.0,0.489583,Eighth,A#2
722,Left,1,51,80,265.5,0.489583,Eighth,D#3
723,Left,1,55,80,266.0,0.489583,Eighth,G3
724,Left,1,50,80,266.5,0.489583,Eighth,D3
725,Left,1,51,80,267.0,0.489583,Eighth,D#3
727,Right,0,70,80,267.5,0.489583,Eighth,A#4
726,Left,1,55,80,267.5,0.489583,Eighth,G3
728,Left,1,46,80,268.0,0.489583,Eighth,A#2
729,Right,0,70,80,268.0,0.989583,Quarter,A#4
730,Left,1,53,80,268.5,0.489583,Eighth,F3
732,Right,0,68,80,269.0,0.489583,Eighth,G#4
731,Left,1,56,80,269.0,0.489583,Eighth,G#3
733,Left,1,52,80,269.5,0.489583,Eighth,E3
734,Right,0,65,80,269.5,0.989583,Quarter,F4
735,Left,1,53,80,270.0,0.489583,Eighth,F3
737,Right,0,62,80,270.5,0.489583,Eighth,D4
736,Left,1,56,80,270.5,0.489583,Eighth,G#3
740,Left,1,39,80,271.0,0.989583,Quarter,D#3_D#2
738,Right,0,63,80,271.0,0.989583,Quarter,G3_D#4
742,Right,0,58,110,272.5,0.989583,Quarter,A#3
743,Right,0,58,110,273.5,0.489583,Eighth,A#3
746,Left,1,51,110,274.0,0.989583,Quarter,D#3_D#2
744,Right,0,55,110,274.0,0.989583,Quarter,G3_D#4
748,Right,0,63,110,275.0,0.489583,Eighth,D#4
749,Right,0,58,110,275.5,0.989583,Quarter,A#3
750,Left,1,70,110,275.5,0.989583,Quarter,A#4
751,Right,0,58,110,276.5,0.489583,Eighth,A#3
752,Right,0,63,110,277.0,0.989583,Quarter,G3_D#4
754,Right,0,63,110,278.0,0.489583,Eighth,D#4
756,Right,0,58,110,278.5,0.989583,Quarter,A#3
755,Left,1,70,110,278.5,0.989583,Quarter,A#4
757,Right,0,58,110,279.5,0.489583,Eighth,A#3
758,Right,0,63,110,280.0,0.989583,Quarter,G3_D#4
760,Right,0,63,110,281.0,0.489583,Eighth,D#4
762,Left,1,70,110,281.5,0.989583,Quarter,A#4
761,Right,0,58,110,281.5,0.989583,Quarter,A#3
763,Right,0,58,110,282.5,0.489583,Eighth,A#3
765,Right,0,65,110,283.0,0.989583,Quarter,F4_D4
764,Left,1,70,110,283.0,0.989583,Quarter,A#4
767,Right,0,62,110,284.0,0.489583,Eighth,F4_D4
769,Right,0,58,110,284.5,0.989583,Quarter,A#3
770,Right,0,58,110,285.5,0.489583,Eighth,A#3
772,Left,1,46,110,286.0,0.989583,Quarter,A#2_A#1
771,Right,0,62,110,286.0,0.989583,Quarter,F4_D4
775,Right,0,65,110,287.0,0.489583,Eighth,F4_D4
777,Left,1,70,110,287.5,0.989583,Quarter,A#4
778,Right,0,58,110,287.5,0.989583,Quarter,A#3
779,Right,0,58,110,288.5,0.489583,Eighth,A#3
780,Right,0,62,110,289.0,0.989583,Quarter,F4_D4
782,Right,0,62,110,290.0,0.489583,Eighth,F4_D4
784,Right,0,58,110,290.5,0.989583,Quarter,A#3
785,Left,1,70,110,290.5,0.989583,Quarter,A#4
786,Right,0,58,110,291.5,0.489583,Eighth,A#3
787,Right,0,65,110,292.0,0.989583,Quarter,F4_D4
789,Right,0,62,110,293.0,0.489583,Eighth,F4_D4
792,Left,1,70,110,293.5,0.989583,Quarter,A#4
791,Right,0,58,110,293.5,0.989583,Quarter,A#3
793,Right,0,58,110,294.5,0.489583,Eighth,A#3
794,Right,0,63,110,295.0,0.989583,Quarter,G4_D#4
796,Left,1,70,110,295.0,0.989583,Quarter,A#4
797,Right,0,67,110,296.0,0.489583,Eighth,G4
799,Left,1,51,80,296.5,5.489583,Unknown,D#3
798,Right,0,63,80,296.5,0.989583,Quarter,D#4
800,Right,0,63,80,297.5,0.489583,Eighth,D#4
802,Left,1,48,80,298.0,1.489583,DottedQuarter,C3
801,Right,0,68,80,298.0,0.989583,Quarter,G#4
803,Right,0,68,80,299.0,0.489583,Eighth,G#4
804,Right,0,72,80,299.5,0.989583,Quarter,C5
805,Left,1,44,80,299.5,1.489583,DottedQuarter,G#2
806,Right,0,72,80,300.5,0.489583,Eighth,C5
807,Right,0,70,80,301.0,0.989583,Quarter,A#4
808,Left,1,43,80,301.0,0.989583,Quarter,G2
809,Right,0,70,80,302.0,0.489583,Eighth,A#4
811,Right,0,75,80,302.5,0.989583,Quarter,D#5
810,Left,1,51,80,302.5,5.489583,Unknown,D#3
812,Right,0,75,80,303.5,0.489583,Eighth,D#5
814,Right,0,80,80,304.0,0.989583,Quarter,G#5
813,Left,1,48,80,304.0,1.489583,DottedQuarter,C3
815,Right,0,80,80,305.0,0.489583,Eighth,G#5
817,Left,1,44,80,305.5,1.489583,DottedQuarter,G#2
816,Right,0,84,80,305.5,0.989583,Quarter,C6
818,Right,0,84,80,306.5,0.489583,Eighth,C6
819,Left,1,43,80,307.0,0.989583,Quarter,G2
820,Right,0,82,80,307.0,0.989583,Quarter,A#5
821,Right,0,70,80,308.0,0.489583,Eighth,A#4
823,Left,1,51,80,308.5,5.489583,Unknown,D#3
822,Right,0,63,80,308.5,0.989583,Quarter,D#4
824,Right,0,63,80,309.5,0.489583,Eighth,D#4
826,Right,0,68,80,310.0,0.989583,Quarter,G#4
825,Left,1,48,80,310.0,1.489583,DottedQuarter,C3
827,Right,0,68,80,311.0,0.489583,Eighth,G#4
829,Right,0,72,80,311.5,0.989583,Quarter,C5
828,Left,1,44,80,311.5,1.489583,DottedQuarter,G#2
830,Right,0,72,80,312.5,0.489583,Eighth,C5
831,Left,1,43,80,313.0,0.989583,Quarter,G2
832,Right,0,70,80,313.0,0.989583,Quarter,A#4
833,Right,0,67,80,314.0,0.489583,Eighth,G4
834,Right,0,65,80,314.5,0.989583,Quarter,F4
835,Left,1,44,80,314.5,0.989583,Quarter,G#2_F3
837,Right,0,68,80,315.5,0.489583,Eighth,G#4
838,Right,0,63,80,316.0,0.989583,Quarter,D#4
839,Left,1,46,80,316.0,0.989583,Quarter,G3_A#2
841,Right,0,67,80,317.0,0.489583,Eighth,G4
842,Right,0,62,80,317.5,0.989583,Quarter,D4
843,Left,1,56,80,317.5,0.989583,Quarter,G#3_A#2
845,Right,0,65,80,318.5,0.489583,Eighth,F4
846,Right,0,63,80,319.0,0.989583,Quarter,D#4
847,Left,1,39,80,319.0,0.989583,Quarter,D#2
848,Left,1,51,80,320.5,5.489583,Unknown,D#3
849,Right,0,63,80,320.5,0.989583,Quarter,D#4
850,Right,0,63,80,321.5,0.489583,Eighth,D#4
851,Left,1,47,80,322.0,1.489583,DottedQuarter,B2
852,Right,0,68,80,322.0,0.989583,Quarter,G#4
853,Right,0,68,80,323.0,0.489583,Eighth,G#4
854,Left,1,44,80,323.5,1.489583,DottedQuarter,G#2
855,Right,0,71,80,323.5,0.989583,Quarter,B4
856,Right,0,71,80,324.5,0.489583,Eighth,B4
857,Left,1,42,80,325.0,0.989583,Quarter,F#2
858,Right,0,70,80,325.0,0.989583,Quarter,A#4
859,Right,0,70,80,326.0,0.489583,Eighth,A#4
861,Left,1,51,80,326.5,5.489583,Unknown,D#3
860,Right,0,75,80,326.5,0.989583,Quarter,D#5
862,Right,0,75,80,327.5,0.489583,Eighth,D#5
863,Right,0,80,80,328.0,0.989583,Quarter,G#5
864,Left,1,47,80,328.0,1.489583,DottedQuarter,B2
865,Right,0,80,80,329.0,0.489583,Eighth,G#5
867,Left,1,44,80,329.5,1.489583,DottedQuarter,G#2
866,Right,0,83,80,329.5,0.989583,Quarter,B5
868,Right,0,83,80,330.5,0.489583,Eighth,B5
869,Right,0,82,80,331.0,0.989583,Quarter,A#5
870,Left,1,42,80,331.0,0.989583,Quarter,F#2
871,Right,0,70,80,332.0,0.489583,Eighth,A#4
872,Right,0,63,80,332.5,0.989583,Quarter,D#4
873,Left,1,51,80,332.5,4.489583,Whole,D#3
874,Right,0,63,87,333.5,0.489583,Eighth,D#4
876,Right,0,68,91,334.0,0.989583,Quarter,G#4
875,Left,1,48,91,334.0,1.489583,DottedQuarter,C3
877,Right,0,68,98,335.0,0.489583,Eighth,G#4
878,Right,0,72,102,335.5,0.989583,Quarter,C5
879,Left,1,46,102,335.5,1.489583,DottedQuarter,A#2
880,Right,0,72,109,336.5,0.489583,Eighth,C5
882,Right,0,65,110,337.0,4.489583,Whole,F4
881,Left,1,44,110,337.0,0.489583,Eighth,G#2
883,Left,1,60,110,337.5,0.489583,Eighth,C4
884,Left,1,63,110,338.0,0.489583,Eighth,D#4
886,Left,1,57,110,338.5,0.489583,Eighth,A3
885,Right,0,77,110,338.5,2.989583,DottedHalf,F5
887,Left,1,60,110,339.0,0.489583,Eighth,C4
888,Left,1,63,110,339.5,0.489583,Eighth,D#4
889,Left,1,57,110,340.0,0.489583,Eighth,A3
890,Left,1,60,110,340.5,0.489583,Eighth,C4
891,Left,1,63,110,341.0,0.489583,Eighth,D#4
893,Left,1,57,110,341.5,0.489583,Eighth,A3
892,Right,0,77,110,341.5,0.989583,Quarter,F5
894,Left,1,60,110,342.0,0.489583,Eighth,C4
895,Left,1,63,110,342.5,0.489583,Eighth,D#4
896,Right,0,77,110,343.0,0.989583,Quarter,F5
897,Left,1,57,110,343.0,0.489583,Eighth,A3
898,Left,1,60,110,343.5,0.489583,Eighth,C4
899,Left,1,63,110,344.0,0.489583,Eighth,D#4
900,Left,1,57,110,344.5,0.489583,Eighth,A3
901,Right,0,77,110,344.5,0.989583,Quarter,F5
902,Left,1,60,110,345.0,0.489583,Eighth,C4
903,Left,1,63,110,345.5,0.489583,Eighth,D#4
905,Left,1,57,110,346.0,0.489583,Eighth,A3
904,Right,0,77,110,346.0,0.989583,Quarter,F5
906,Left,1,60,110,346.5,0.489583,Eighth,C4
907,Left,1,63,110,347.0,0.489583,Eighth,D#4
908,Left,1,57,110,347.5,0.489583,Eighth,A3
909,Right,0,77,110,347.5,0.989583,Quarter,F5
910,Left,1,60,110,348.0,0.489583,Eighth,C4
911,Left,1,63,110,348.5,0.489583,Eighth,D#4
913,Right,0,77,110,349.0,4.489583,Whole,F5
912,Left,1,57,110,349.0,0.489583,Eighth,A3
914,Left,1,60,110,349.5,0.489583,Eighth,C4
915,Left,1,63,110,350.0,0.489583,Eighth,D#4
917,Right,0,89,110,350.5,2.989583,DottedHalf,F6
916,Left,1,57,110,350.5,0.489583,Eighth,A3
918,Left,1,60,110,351.0,0.489583,Eighth,C4
919,Left,1,63,110,351.5,0.489583,Eighth,D#4
920,Left,1,57,110,352.0,0.489583,Eighth,A3
921,Left,1,60,110,352.5,0.489583,Eighth,C4
922,Left,1,63,110,353.0,0.489583,Eighth,D#4
924,Right,0,89,110,353.5,0.989583,Quarter,F6_F5
923,Left,1,57,110,353.5,0.489583,Eighth,A3
926,Left,1,60,110,354.0,0.489583,Eighth,C4
927,Left,1,63,110,354.5,0.489583,Eighth,D#4
929,Left,1,57,110,355.0,0.489583,Eighth,A3
928,Right,0,89,110,355.0,0.989583,Quarter,F6_F5
931,Left,1,60,110,355.5,0.489583,Eighth,C4
932,Left,1,63,110,356.0,0.489583,Eighth,D#4
933,Right,0,77,110,356.5,0.989583,Quarter,F6_F5
935,Left,1,57,110,356.5,0.489583,Eighth,A3
936,Left,1,60,110,357.0,0.489583,Eighth,C4
937,Left,1,63,110,357.5,0.489583,Eighth,D#4
938,Left,1,57,110,358.0,0.489583,Eighth,A3
939,Right,0,77,110,358.0,0.989583,Quarter,F6_F5
941,Left,1,60,110,358.5,0.489583,Eighth,C4
942,Left,1,63,110,359.0,0.489583,Eighth,D#4
945,Left,1,57,110,359.5,0.489583,Eighth,A3
943,Right,0,89,110,359.5,0.989583,Quarter,F6_F5
946,Left,1,60,110,360.0,0.489583,Eighth,C4
947,Left,1,63,110,360.5,0.489583,Eighth,D#4
948,Right,0,89,110,361.0,0.989583,Quarter,F6_F5
950,Left,1,57,110,361.0,0.489583,Eighth,A3
951,Left,1,60,110,361.5,0.489583,Eighth,C4
953,Right,0,81,110,362.0,0.489583,Eighth,A5
952,Left,1,63,110,362.0,0.489583,Eighth,D#4
955,Left,1,62,110,362.5,0.489583,Eighth,D4
954,Right,0,82,110,362.5,0.489583,Eighth,A#5
957,Left,1,60,110,363.0,0.489583,Eighth,C4
956,Right,0,84,110,363.0,0.489583,Eighth,C6
959,Right,0,86,110,363.5,0.489583,Eighth,D6
958,Left,1,58,110,363.5,0.489583,Eighth,A#3
960,Left,1,57,110,364.0,0.489583,Eighth,A3
961,Left,1,58,110,364.5,0.489583,Eighth,A#3
962,Left,1,60,110,365.0,0.489583,Eighth,C4
963,Right,0,78,110,365.0,0.489583,Eighth,F#5
964,Right,0,79,110,365.5,0.489583,Eighth,G5
965,Left,1,58,110,365.5,0.489583,Eighth,A#3
967,Left,1,57,110,366.0,0.489583,Eighth,A3
966,Right,0,81,110,366.0,0.489583,Eighth,A5
968,Right,0,82,110,366.5,0.489583,Eighth,A#5
969,Left,1,55,110,366.5,0.489583,Eighth,G3
970,Left,1,53,110,367.0,0.489583,Eighth,F3
971,Left,1,55,110,367.5,0.489583,Eighth,G3
972,Right,0,74,110,368.0,0.489583,Eighth,D5
973,Left,1,57,110,368.0,0.489583,Eighth,A3
975,Right,0,75,110,368.5,0.489583,Eighth,D#5
974,Left,1,55,110,368.5,0.489583,Eighth,G3
977,Left,1,53,110,369.0,0.489583,Eighth,F3
976,Right,0,77,110,369.0,0.489583,Eighth,F5
979,Left,1,51,110,369.5,0.489583,Eighth,D#3
978,Right,0,79,110,369.5,0.489583,Eighth,G5
980,Left,1,50,110,370.0,0.489583,Eighth,D3
981,Left,1,51,110,370.5,0.489583,Eighth,D#3
982,Right,0,71,110,371.0,0.489583,Eighth,B4
983,Left,1,53,110,371.0,0.489583,Eighth,F3
984,Right,0,72,110,371.5,0.489583,Eighth,C5
985,Left,1,51,110,371.5,0.489583,Eighth,D#3
987,Left,1,50,110,372.0,0.489583,Eighth,D3
986,Right,0,74,110,372.0,0.489583,Eighth,D5
988,Left,1,48,110,372.5,0.489583,Eighth,C3
989,Right,0,75,110,372.5,0.489583,Eighth,D#5
990,Left,1,39,110,373.0,0.989583,Quarter,D#2
991,Right,0,60,110,373.5,0.489583,Eighth,C4
992,Right,0,63,110,374.0,0.489583,Eighth,D#4
993,Right,0,67,110,374.5,0.489583,Eighth,G4
994,Right,0,63,110,375.0,0.489583,Eighth,D#4
995,Right,0,67,110,375.5,0.489583,Eighth,G4
996,Left,1,60,110,376.0,0.989583,Quarter,G3_D#3_C4
999,Right,0,72,110,376.0,0.489583,Eighth,C5
1000,Right,0,67,110,376.5,0.489583,Eighth,G4
1001,Right,0,72,110,377.0,0.489583,Eighth,C5
1002,Right,0,75,110,377.5,0.489583,Eighth,D#5
1003,Right,0,72,110,378.0,0.489583,Eighth,C5
1004,Right,0,75,110,378.5,0.489583,Eighth,D#5
1005,Right,0,79,110,379.0,0.489583,Eighth,G5
1006,Right,0,77,110,379.5,0.489583,Eighth,F5
1007,Right,0,75,110,380.0,0.489583,Eighth,D#5
1008,Right,0,74,110,380.5,0.489583,Eighth,D5
1009,Left,1,51,110,380.5,0.489583,Eighth,D#3
1011,Left,1,55,110,381.0,0.489583,Eighth,G3
1010,Right,0,75,110,381.0,0.489583,Eighth,D#5
1013,Left,1,60,110,381.5,0.489583,Eighth,C4
1012,Right,0,72,110,381.5,0.489583,Eighth,C5
1015,Left,1,53,110,382.0,0.489583,Eighth,F3
1014,Right,0,77,110,382.0,0.489583,Eighth,F5
1017,Left,1,58,110,382.5,0.489583,Eighth,A#3
1016,Right,0,74,110,382.5,0.489583,Eighth,D5
1019,Left,1,62,110,383.0,0.489583,Eighth,D4
1018,Right,0,70,110,383.0,0.489583,Eighth,A#4
1020,Right,0,75,110,383.5,0.489583,Eighth,D#5
1021,Left,1,53,110,383.5,0.489583,Eighth,F3
1023,Right,0,72,110,384.0,0.489583,Eighth,C5
1022,Left,1,60,110,384.0,0.489583,Eighth,C4
1024,Left,1,63,110,384.5,0.489583,Eighth,D#4
1025,Right,0,69,110,384.5,0.489583,Eighth,A4
1026,Left,1,57,110,385.0,0.489583,Eighth,A3
1028,Right,0,89,110,385.5,0.489583,Eighth,F6
1027,Left,1,60,110,385.5,0.489583,Eighth,C4
1029,Right,0,81,110,386.0,0.489583,Eighth,A5
1030,Left,1,63,110,386.0,0.489583,Eighth,D#4
1031,Left,1,62,110,386.5,0.489583,Eighth,D4
1032,Right,0,82,110,386.5,0.489583,Eighth,A#5
1034,Left,1,60,110,387.0,0.489583,Eighth,C4
1033,Right,0,84,110,387.0,0.489583,Eighth,C6
1036,Left,1,58,110,387.5,0.489583,Eighth,A#3
1035,Right,0,86,110,387.5,0.489583,Eighth,D6
1037,Left,1,57,110,388.0,0.489583,Eighth,A3
1039,Left,1,58,110,388.5,0.489583,Eighth,A#3
1038,Right,0,86,110,388.5,0.489583,Eighth,D6
1041,Left,1,60,110,389.0,0.489583,Eighth,C4
1040,Right,0,78,110,389.0,0.489583,Eighth,F#5
1043,Left,1,58,110,389.5,0.489583,Eighth,A#3
1042,Right,0,79,110,389.5,0.489583,Eighth,G5
1044,Left,1,57,110,390.0,0.489583,Eighth,A3
1045,Right,0,81,110,390.0,0.489583,Eighth,A5
1047,Right,0,82,110,390.5,0.489583,Eighth,A#5
1046,Left,1,55,110,390.5,0.489583,Eighth,G3
1048,Left,1,53,110,391.0,0.489583,Eighth,F3
1050,Right,0,82,110,391.5,0.489583,Eighth,A#5
1049,Left,1,55,110,391.5,0.489583,Eighth,G3
1051,Right,0,74,110,392.0,0.489583,Eighth,D5
1052,Left,1,56,110,392.0,0.489583,Eighth,G#3
1054,Right,0,75,110,392.5,0.489583,Eighth,D#5
1053,Left,1,55,110,392.5,0.489583,Eighth,G3
1056,Right,0,77,110,393.0,0.489583,Eighth,F5
1055,Left,1,53,110,393.0,0.489583,Eighth,F3
1058,Right,0,79,110,393.5,0.489583,Eighth,G5
1057,Left,1,51,110,393.5,0.489583,Eighth,D#3
1059,Left,1,50,110,394.0,0.489583,Eighth,D3
1061,Left,1,51,110,394.5,0.489583,Eighth,D#3
1060,Right,0,79,110,394.5,0.489583,Eighth,G5
1062,Right,0,71,110,395.0,0.489583,Eighth,B4
1063,Left,1,53,110,395.0,0.489583,Eighth,F3
1064,Left,1,51,110,395.5,0.489583,Eighth,D#3
1065,Right,0,72,110,395.5,0.489583,Eighth,C5
1066,Left,1,50,110,396.0,0.489583,Eighth,D3
1067,Right,0,74,110,396.0,0.489583,Eighth,D5
1068,Right,0,75,110,396.5,0.489583,Eighth,D#5
1069,Left,1,48,110,396.5,0.489583,Eighth,C3
1070,Left,1,39,110,397.0,0.989583,Quarter,D#2
1071,Right,0,55,110,397.5,0.489583,Eighth,G3
1072,Right,0,60,110,398.0,0.489583,Eighth,C4
1073,Right,0,63,110,398.5,0.489583,Eighth,D#4
1074,Right,0,60,110,399.0,0.489583,Eighth,C4
1075,Right,0,63,110,399.5,0.489583,Eighth,D#4
1076,Right,0,67,110,400.0,0.489583,Eighth,G4
1077,Left,1,51,110,400.0,0.989583,Quarter,G3_D#3
1079,Right,0,60,110,400.5,0.489583,Eighth,C4
1080,Right,0,63,110,401.0,0.489583,Eighth,D#4
1081,Right,0,67,110,401.5,0.489583,Eighth,G4
1082,Right,0,63,110,402.0,0.489583,Eighth,D#4
1083,Right,0,67,110,402.5,0.489583,Eighth,G4
1087,Right,0,72,110,403.0,0.489583,Eighth,C5
1084,Left,1,51,110,403.0,0.989583,Quarter,G3_D#3_C4
1088,Right,0,63,110,403.5,0.489583,Eighth,D#4
1089,Right,0,67,110,404.0,0.489583,Eighth,G4
1090,Right,0,72,110,404.5,0.489583,Eighth,C5
1091,Right,0,67,110,405.0,0.489583,Eighth,G4
1092,Right,0,72,110,405.5,0.489583,Eighth,C5
1097,Right,0,75,110,406.0,0.489583,Eighth,D#5
1093,Left,1,51,110,406.0,0.989583,Quarter,G3_D#4_D#3_C4
1098,Right,0,67,110,406.5,0.489583,Eighth,G4
1099,Right,0,72,110,407.0,0.489583,Eighth,C5
1100,Right,0,75,110,407.5,0.489583,Eighth,D#5
1101,Right,0,72,110,408.0,0.489583,Eighth,C5
1102,Right,0,75,110,408.5,0.489583,Eighth,D#5
1103,Right,0,79,110,409.0,0.489583,Eighth,G5
1104,Left,1,63,110,409.5,0.489583,Eighth,D#4
1105,Right,0,67,110,409.5,0.489583,Eighth,G4
1106,Left,1,60,110,410.0,0.489583,Eighth,C4
1107,Right,0,72,110,410.0,0.489583,Eighth,C5
1108,Right,0,75,110,410.5,0.489583,Eighth,D#5
1109,Left,1,55,110,410.5,0.489583,Eighth,G3
1111,Left,1,60,110,411.0,0.489583,Eighth,C4
1110,Right,0,72,110,411.0,0.489583,Eighth,C5
1112,Left,1,55,110,411.5,0.489583,Eighth,G3
1113,Right,0,75,110,411.5,0.489583,Eighth,D#5
1115,Right,0,79,110,412.0,0.489583,Eighth,G5
1114,Left,1,51,110,412.0,0.489583,Eighth,D#3
1117,Right,0,67,110,412.5,0.489583,Eighth,G4
1116,Left,1,63,110,412.5,0.489583,Eighth,D#4
1119,Right,0,72,110,413.0,0.489583,Eighth,C5
1118,Left,1,60,110,413.0,0.489583,Eighth,C4
1121,Right,0,75,110,413.5,0.489583,Eighth,D#5
1120,Left,1,55,110,413.5,0.489583,Eighth,G3
1122,Left,1,60,110,414.0,0.489583,Eighth,C4
1123,Right,0,72,110,414.0,0.489583,Eighth,C5
1125,Left,1,55,110,414.5,0.489583,Eighth,G3
1124,Right,0,75,110,414.5,0.489583,Eighth,D#5
1127,Right,0,79,110,415.0,0.489583,Eighth,G5
1126,Left,1,51,110,415.0,0.989583,Quarter,D#3
1128,Right,0,67,110,415.5,0.489583,Eighth,G4
1129,Right,0,66,110,416.0,0.489583,Eighth,F#4
1130,Right,0,67,110,416.5,0.489583,Eighth,G4
1131,Right,0,68,110,417.0,0.489583,Eighth,G#4
1132,Right,0,69,110,417.5,0.489583,Eighth,A4
1133,Right,0,70,110,418.0,0.489583,Eighth,A#4
1134,Right,0,71,110,418.5,0.489583,Eighth,B4
1135,Right,0,72,110,419.0,0.489583,Eighth,C5
1136,Right,0,73,110,419.5,0.489583,Eighth,C#5
1137,Right,0,74,110,420.0,0.489583,Eighth,D5
1138,Right,0,75,110,420.5,0.489583,Eighth,D#5
1139,Right,0,76,110,421.0,0.489583,Eighth,E5
1140,Right,0,77,110,421.5,0.489583,Eighth,F5
1141,Right,0,78,110,422.0,0.489583,Eighth,F#5
1142,Left,1,60,110,422.5,0.989583,Quarter,G3_D#3_C4
1144,Right,0,79,110,422.5,0.489583,Eighth,G5
1146,Right,0,75,110,423.0,0.489583,Eighth,D#5
1147,Right,0,72,110,423.5,0.489583,Eighth,C5
1149,Left,1,53,110,424.0,0.989583,Quarter,F3_D4_A#3
1148,Right,0,70,110,424.0,0.989583,Quarter,A#4
1155,Right,0,72,110,425.5,0.489583,Eighth,C5
1152,Left,1,63,110,425.5,0.989583,Quarter,F3_D#4_A3
1156,Right,0,74,110,425.75,0.489583,Eighth,D5
1157,Right,0,72,110,426.0,0.489583,Eighth,C5
1158,Right,0,74,110,426.25,0.489583,Eighth,D5
1159,Right,0,70,110,426.5,0.489583,Eighth,A#4
1160,Right,0,72,110,426.75,0.239583,Sixteenth,C5
1162,Right,0,70,110,427.0,0.989583,Quarter,A#4
1161,Left,1,46,110,427.0,0.489583,Eighth,A#2
1163,Left,1,53,80,427.5,0.489583,Eighth,F3
1164,Left,1,58,80,428.0,0.489583,Eighth,A#3
1165,Right,0,70,80,428.0,0.489583,Eighth,A#4
1167,Left,1,62,80,428.5,0.489583,Eighth,D4
1166,Right,0,74,80,428.5,0.989583,Quarter,D5
1168,Left,1,58,80,429.0,0.489583,Eighth,A#3
1169,Left,1,53,80,429.5,0.489583,Eighth,F3
1170,Right,0,74,80,429.5,0.489583,Eighth,D5
1171,Right,0,77,80,430.0,0.989583,Quarter,F5
1172,Left,1,46,80,430.0,0.489583,Eighth,A#2
1173,Left,1,53,80,430.5,0.489583,Eighth,F3
1174,Left,1,58,80,431.0,0.489583,Eighth,A#3
1175,Right,0,77,80,431.0,0.489583,Eighth,F5
1176,Left,1,62,80,431.5,0.489583,Eighth,D4
1177,Right,0,82,80,431.5,0.989583,Quarter,A#5
1178,Left,1,58,80,432.0,0.489583,Eighth,A#3
1180,Left,1,53,80,432.5,0.489583,Eighth,F3
1179,Right,0,82,80,432.5,0.489583,Eighth,A#5
1181,Right,0,86,80,433.0,0.989583,Quarter,D6
1182,Left,1,46,80,433.0,0.489583,Eighth,A#2
1183,Left,1,53,80,433.5,0.489583,Eighth,F3
1184,Left,1,58,80,434.0,0.489583,Eighth,A#3
1185,Right,0,86,80,434.0,0.489583,Eighth,D6
1186,Right,0,89,80,434.5,0.989583,Quarter,F6
1187,Left,1,62,80,434.5,0.489583,Eighth,D4
1188,Left,1,58,80,435.0,0.489583,Eighth,A#3
1189,Right,0,82,80,435.5,0.489583,Eighth,A#5
1190,Left,1,53,80,435.5,0.489583,Eighth,F3
1192,Left,1,46,80,436.0,0.489583,Eighth,A#2
1191,Right,0,86,80,436.0,0.989583,Quarter,D6
1193,Left,1,53,80,436.5,0.489583,Eighth,F3
1195,Left,1,58,80,437.0,0.489583,Eighth,A#3
1194,Right,0,77,80,437.0,0.489583,Eighth,F5
1197,Left,1,62,80,437.5,0.489583,Eighth,D4
1196,Right,0,82,80,437.5,0.989583,Quarter,A#5
1198,Left,1,58,80,438.0,0.489583,Eighth,A#3
1200,Right,0,74,80,438.5,0.489583,Eighth,D5
1199,Left,1,53,80,438.5,0.489583,Eighth,F3
1202,Right,0,77,80,439.0,0.989583,Quarter,F5
1201,Left,1,46,80,439.0,0.489583,Eighth,A#2
1203,Left,1,53,80,439.5,0.489583,Eighth,F3
1204,Left,1,58,80,440.0,0.489583,Eighth,A#3
1205,Right,0,70,80,440.0,0.489583,Eighth,A#4
1206,Right,0,74,80,440.5,0.989583,Quarter,D5
1207,Left,1,62,80,440.5,0.489583,Eighth,D4
1208,Left,1,58,80,441.0,0.489583,Eighth,A#3
1209,Left,1,53,80,441.5,0.489583,Eighth,F3
1210,Right,0,72,80,441.5,0.489583,Eighth,C5
1212,Left,1,41,80,442.0,0.489583,Eighth,F2
1211,Right,0,75,80,442.0,0.989583,Quarter,D#5
1213,Left,1,53,80,442.5,0.489583,Eighth,F3
1214,Left,1,57,80,443.0,0.489583,Eighth,A3
1215,Right,0,69,80,443.0,0.489583,Eighth,A4
1217,Right,0,72,80,443.5,0.989583,Quarter,C5
1216,Left,1,60,80,443.5,0.489583,Eighth,C4
1218,Left,1,57,80,444.0,0.489583,Eighth,A3
1219,Right,0,69,80,444.5,0.489583,Eighth,A4
1220,Left,1,53,80,444.5,0.489583,Eighth,F3
1221,Left,1,46,80,445.0,0.489583,Eighth,A#2
1222,Right,0,70,80,445.0,0.989583,Quarter,A#4
1223,Left,1,53,80,445.5,0.489583,Eighth,F3
1225,Left,1,58,80,446.0,0.489583,Eighth,A#3
1224,Right,0,70,80,446.0,0.489583,Eighth,A#4
1227,Left,1,62,80,446.5,0.489583,Eighth,D4
1226,Right,0,74,80,446.5,0.989583,Quarter,D5
1228,Left,1,58,80,447.0,0.489583,Eighth,A#3
1229,Left,1,53,80,447.5,0.489583,Eighth,F3
1230,Right,0,74,80,447.5,0.489583,Eighth,D5
1232,Left,1,46,80,448.0,0.489583,Eighth,A#2
1231,Right,0,77,80,448.0,0.989583,Quarter,F5
1233,Left,1,53,80,448.5,0.489583,Eighth,F3
1235,Left,1,58,80,449.0,0.489583,Eighth,A#3
1234,Right,0,77,80,449.0,0.489583,Eighth,F5
1237,Left,1,62,80,449.5,0.489583,Eighth,D4
1236,Right,0,82,80,449.5,0.989583,Quarter,A#5
1238,Left,1,58,80,450.0,0.489583,Eighth,A#3
1240,Right,0,82,80,450.5,0.489583,Eighth,A#5
1239,Left,1,53,80,450.5,0.489583,Eighth,F3
1241,Right,0,86,80,451.0,0.989583,Quarter,D6
1242,Left,1,46,80,451.0,0.489583,Eighth,A#2
1243,Left,1,53,80,451.5,0.489583,Eighth,F3
1245,Right,0,86,80,452.0,0.489583,Eighth,D6
1244,Left,1,58,80,452.0,0.489583,Eighth,A#3
1246,Right,0,89,80,452.5,0.989583,Quarter,F6
1247,Left,1,62,80,452.5,0.489583,Eighth,D4
1248,Left,1,58,80,453.0,0.489583,Eighth,A#3
1250,Left,1,53,80,453.5,0.489583,Eighth,F3
1249,Right,0,82,80,453.5,0.489583,Eighth,A#5
1252,Left,1,46,80,454.0,0.489583,Eighth,A#2
1251,Right,0,86,80,454.0,0.989583,Quarter,D6
1253,Left,1,53,80,454.5,0.489583,Eighth,F3
1254,Right,0,77,80,455.0,0.489583,Eighth,F5
1255,Left,1,58,80,455.0,0.489583,Eighth,A#3
1257,Left,1,62,80,455.5,0.489583,Eighth,D4
1256,Right,0,82,80,455.5,0.989583,Quarter,A#5
1258,Left,1,58,80,456.0,0.489583,Eighth,A#3
1259,Right,0,74,80,456.5,0.489583,Eighth,D5
1260,Left,1,53,80,456.5,0.489583,Eighth,F3
1261,Right,0,77,80,457.0,0.989583,Quarter,F5
1262,Left,1,46,80,457.0,0.489583,Eighth,A#2
1263,Left,1,53,80,457.5,0.489583,Eighth,F3
1264,Right,0,70,80,458.0,0.489583,Eighth,A#4
1265,Left,1,58,80,458.0,0.489583,Eighth,A#3
1267,Right,0,74,80,458.5,0.989583,Quarter,D5
1266,Left,1,62,80,458.5,0.489583,Eighth,D4
1268,Left,1,58,80,459.0,0.489583,Eighth,A#3
1270,Left,1,53,80,459.5,0.489583,Eighth,F3
1269,Right,0,65,80,459.5,0.489583,Eighth,F4
1271,Left,1,46,80,460.0,0.489583,Eighth,A#2
1272,Right,0,70,80,460.0,0.989583,Quarter,A#4
1273,Left,1,50,80,460.5,0.489583,Eighth,D3
1275,Left,1,53,80,461.0,0.489583,Eighth,F3
1274,Right,0,62,80,461.0,0.489583,Eighth,D4
1276,Right,0,65,80,461.5,0.989583,Quarter,F4
1277,Left,1,58,80,461.5,0.489583,Eighth,A#3
1278,Left,1,53,80,462.0,0.489583,Eighth,F3
1280,Left,1,50,80,462.5,0.489583,Eighth,D3
1279,Right,0,58,80,462.5,0.489583,Eighth,A#3
1282,Right,0,62,80,463.0,0.989583,Quarter,D4
1281,Left,1,46,80,463.0,0.989583,Quarter,A#2
1283,Right,0,53,110,464.0,0.489583,Eighth,F3
1284,Left,1,34,110,464.5,0.989583,Quarter,A#1
1285,Right,0,58,110,464.5,0.989583,Quarter,A#3
1286,Right,0,50,110,465.5,0.489583,Eighth,D3
1287,Left,1,34,110,466.0,0.989583,Quarter,A#1
1288,Right,0,53,110,466.0,0.989583,Quarter,F3
1289,Right,0,52,110,467.0,0.489583,Eighth,E3
1291,Right,0,55,110,467.5,0.989583,Quarter,G3
1290,Left,1,34,110,467.5,0.989583,Quarter,A#1
1292,Right,0,53,110,468.5,6.489583,Unknown,F3
1295,Left,1,34,110,469.0,5.989583,Unknown,A#1
1293,Right,0,50,110,469.0,5.989583,Unknown,G#3_D3
1296,Right,0,53,110,476.0,0.489583,Eighth,F3
1297,Right,0,56,110,476.5,0.989583,Quarter,G#3
1298,Left,1,37,110,476.5,0.989583,Quarter,C#2
1299,Right,0,53,110,477.5,0.489583,Eighth,F3
1301,Right,0,56,110,478.0,0.989583,Quarter,G#3
1300,Left,1,37,110,478.0,0.989583,Quarter,C#2
1302,Right,0,54,110,479.0,0.489583,Eighth,F#3
1304,Left,1,37,110,479.5,0.989583,Quarter,C#2
1303,Right,0,58,110,479.5,0.989583,Quarter,A#3
1305,Right,0,56,110,480.5,7.989583,Unknown,G#3
1308,Left,1,37,110,481.0,7.489583,Unknown,C#2
1306,Right,0,53,110,481.0,7.489583,Unknown,F3_B3
1309,Right,0,61,80,488.5,0.989583,Quarter,C#4
1310,Right,0,61,80,489.5,0.489583,Eighth,C#4
1311,Left,1,42,80,490.0,0.989583,Quarter,F#2_F#1
1313,Right,0,66,80,490.0,0.989583,Quarter,F#4_A#3
1315,Right,0,66,80,491.0,0.489583,Eighth,F#4
1317,Left,1,73,80,491.5,0.989583,Quarter,C#5
1316,Right,0,61,80,491.5,0.989583,Quarter,C#4
1318,Right,0,61,80,492.5,0.489583,Eighth,C#4
1319,Right,0,58,80,493.0,0.989583,Quarter,F#4_A#3
1321,Right,0,66,80,494.0,0.489583,Eighth,F#4
1323,Right,0,61,80,494.5,0.989583,Quarter,C#4
1322,Left,1,73,80,494.5,0.989583,Quarter,C#5
1324,Right,0,61,80,495.5,0.489583,Eighth,C#4
1325,Right,0,58,80,496.0,0.989583,Quarter,F#4_A#3
1327,Right,0,66,80,497.0,0.489583,Eighth,F#4
1328,Right,0,61,80,497.5,0.989583,Quarter,C#4
1329,Left,1,73,80,497.5,0.989583,Quarter,C#5
1330,Right,0,61,80,498.5,0.489583,Eighth,C#4
1332,Right,0,68,80,499.0,0.989583,Quarter,G#4_F4
1331,Left,1,73,80,499.0,0.989583,Quarter,C#5
1334,Right,0,68,80,500.0,0.489583,Eighth,G#4_F4
1336,Right,0,61,80,500.5,0.989583,Quarter,C#4
1337,Right,0,61,80,501.5,0.489583,Eighth,C#4
1338,Right,0,68,80,502.0,0.989583,Quarter,G#4_F4
1339,Left,1,49,80,502.0,0.989583,Quarter,C#3_C#2
1342,Right,0,65,80,503.0,0.489583,Eighth,G#4_F4
1345,Right,0,61,80,503.5,0.989583,Quarter,C#4
1344,Left,1,73,80,503.5,0.989583,Quarter,C#5
1346,Right,0,61,80,504.5,0.489583,Eighth,C#4
1347,Right,0,65,80,505.0,0.989583,Quarter,G#4_F4
1349,Right,0,65,80,506.0,0.489583,Eighth,G#4_F4
1351,Right,0,61,80,506.5,0.989583,Quarter,C#4
1352,Left,1,73,80,506.5,0.989583,Quarter,C#5
1353,Right,0,61,80,507.5,0.489583,Eighth,C#4
1354,Right,0,65,80,508.0,0.989583,Quarter,G#4_F4
1356,Right,0,65,80,509.0,0.489583,Eighth,G#4_F4
1359,Right,0,61,80,509.5,0.989583,Quarter,C#4
1358,Left,1,73,80,509.5,0.989583,Quarter,C#5
1360,Right,0,61,80,510.5,0.489583,Eighth,C#4
1361,Right,0,66,80,511.0,0.989583,Quarter,F#4_A#4
1363,Left,1,73,80,511.0,0.989583,Quarter,C#5
1365,Left,1,37,100,512.5,0.989583,Quarter,C#2
1364,Right,0,73,100,512.5,0.989583,Quarter,C#5
1366,Right,0,73,101,513.5,0.489583,Eighth,C#5
1367,Left,1,37,101,513.5,0.489583,Eighth,C#2
1370,Left,1,30,102,514.0,0.989583,Quarter,F#2_F#1
1368,Right,0,78,102,514.0,0.989583,Quarter,F#5_F#4
1373,Left,1,42,103,515.0,0.489583,Eighth,F#2
1372,Right,0,78,103,515.0,0.489583,Eighth,F#5
1374,Right,0,73,104,515.5,0.989583,Quarter,C#5
1375,Left,1,37,104,515.5,0.989583,Quarter,C#2
1376,Left,1,37,106,516.5,0.489583,Eighth,C#2
1377,Right,0,73,106,516.5,0.489583,Eighth,C#5
1378,Left,1,42,106,517.0,0.989583,Quarter,F#2_F#1
1379,Right,0,66,106,517.0,0.989583,Quarter,F#5_F#4
1383,Right,0,78,108,518.0,0.489583,Eighth,F#5
1382,Left,1,42,108,518.0,0.489583,Eighth,F#2
1384,Left,1,37,109,518.5,0.989583,Quarter,C#2
1385,Right,0,73,109,518.5,0.989583,Quarter,C#5
1386,Left,1,37,110,519.5,0.489583,Eighth,C#2
1387,Right,0,73,110,519.5,0.489583,Eighth,C#5
1389,Right,0,78,111,520.0,0.989583,Quarter,F#5_F#4
1388,Left,1,42,111,520.0,0.989583,Quarter,F#2_F#1
1392,Right,0,78,113,521.0,0.489583,Eighth,F#5
1393,Left,1,42,113,521.0,0.489583,Eighth,F#2
1395,Right,0,73,113,521.5,0.989583,Quarter,C#5
1394,Left,1,37,113,521.5,0.989583,Quarter,C#2
1396,Right,0,73,115,522.5,0.489583,Eighth,C#5
1397,Left,1,37,115,522.5,0.489583,Eighth,C#2
1400,Right,0,78,116,523.0,0.989583,Quarter,F#5_F#4
1398,Left,1,42,116,523.0,0.989583,Quarter,F#2_F#1
1403,Right,0,82,117,524.0,0.489583,Eighth,A#5
1402,Left,1,46,117,524.0,0.489583,Eighth,A#2
1404,Left,1,49,118,524.5,0.989583,Quarter,C#3
1405,Right,0,85,118,524.5,0.989583,Quarter,C#6
1407,Left,1,42,119,525.5,0.489583,Eighth,F#2
1406,Right,0,78,119,525.5,0.489583,Eighth,F#5
1408,Right,0,74,120,526.0,2.989583,DottedHalf,D6_D5
1409,Left,1,35,120,526.0,0.489583,Eighth,B1
1411,Left,1,38,120,526.5,0.489583,Eighth,D2
1412,Left,1,42,120,527.0,0.489583,Eighth,F#2
1413,Left,1,47,120,527.5,0.489583,Eighth,B2
1414,Left,1,38,120,528.0,0.489583,Eighth,D2
1415,Left,1,42,120,528.5,0.489583,Eighth,F#2
1416,Right,0,71,120,529.0,0.989583,Quarter,B5_B4
1418,Left,1,35,120,529.0,0.489583,Eighth,B1
1419,Left,1,38,120,529.5,0.489583,Eighth,D2
1420,Left,1,42,120,530.0,0.489583,Eighth,F#2
1421,Left,1,47,120,530.5,0.489583,Eighth,B2
1422,Right,0,66,120,530.5,0.989583,Quarter,F#5_F#4
1424,Left,1,38,120,531.0,0.489583,Eighth,D2
1425,Left,1,42,120,531.5,0.489583,Eighth,F#2
1426,Left,1,35,120,532.0,0.489583,Eighth,B1
1427,Right,0,62,120,532.0,0.989583,Quarter,D5_D4
1429,Left,1,38,120,532.5,0.489583,Eighth,D2
1430,Left,1,42,120,533.0,0.489583,Eighth,F#2
1431,Left,1,47,120,533.5,0.489583,Eighth,B2
1432,Right,0,59,120,533.5,0.989583,Quarter,B4_B3
1434,Left,1,38,120,534.0,0.489583,Eighth,D2
1435,Left,1,42,120,534.5,0.489583,Eighth,F#2
1437,Right,0,66,120,535.0,0.989583,Quarter,F#4_F#3
1436,Left,1,35,120,535.0,0.489583,Eighth,B1
1439,Left,1,38,120,535.5,0.489583,Eighth,D2
1440,Left,1,42,120,536.0,0.489583,Eighth,F#2
1441,Right,0,50,120,536.5,0.989583,Quarter,D4_D3
1443,Left,1,47,120,536.5,0.489583,Eighth,B2
1444,Left,1,38,120,537.0,0.489583,Eighth,D2
1446,Right,0,74,120,537.5,0.489583,Eighth,D5
1445,Left,1,42,120,537.5,0.489583,Eighth,F#2
1447,Right,0,79,120,538.0,0.989583,Quarter,G5_G4
1449,Left,1,43,120,538.0,0.989583,Quarter,G2_G1
1452,Right,0,79,120,539.0,0.489583,Eighth,G5
1451,Left,1,43,120,539.0,0.489583,Eighth,G2
1453,Left,1,38,120,539.5,0.989583,Quarter,D2
1454,Right,0,74,120,539.5,0.989583,Quarter,D5
1456,Left,1,38,120,540.5,0.489583,Eighth,D2
1455,Right,0,74,120,540.5,0.489583,Eighth,D5
1457,Right,0,67,120,541.0,0.989583,Quarter,G5_G4
1459,Left,1,31,120,541.0,0.989583,Quarter,G2_G1
1462,Right,0,79,120,542.0,0.489583,Eighth,G5
1461,Left,1,43,120,542.0,0.489583,Eighth,G2
1463,Left,1,38,120,542.5,0.989583,Quarter,D2
1464,Right,0,74,120,542.5,0.989583,Quarter,D5
1465,Left,1,38,120,543.5,0.489583,Eighth,D2
1466,Right,0,74,120,543.5,0.489583,Eighth,D5
1469,Right,0,79,120,544.0,0.989583,Quarter,G5_G4
1467,Left,1,43,120,544.0,0.989583,Quarter,G2_G1
1471,Left,1,43,120,545.0,0.489583,Eighth,G2
1472,Right,0,79,120,545.0,0.489583,Eighth,G5
1474,Left,1,38,120,545.5,0.989583,Quarter,D2
1473,Right,0,74,120,545.5,0.989583,Quarter,D5
1475,Right,0,74,120,546.5,0.489583,Eighth,D5
1476,Left,1,38,120,546.5,0.489583,Eighth,D2
1479,Left,1,31,120,547.0,0.989583,Quarter,G2_G1
1477,Right,0,67,120,547.0,0.989583,Quarter,G5_G4
1481,Right,0,83,120,548.0,0.489583,Eighth,B5
1482,Left,1,47,120,548.0,0.489583,Eighth,B2
1483,Right,0,86,120,548.5,0.989583,Quarter,D6
1484,Left,1,50,120,548.5,0.989583,Quarter,D3
1486,Left,1,43,120,549.5,0.489583,Eighth,G2
1485,Right,0,79,120,549.5,0.489583,Eighth,G5
1488,Right,0,87,120,550.0,2.989583,DottedHalf,D#6_D#5
1487,Left,1,36,120,550.0,0.489583,Eighth,C2
1490,Left,1,39,120,550.5,0.489583,Eighth,D#2
1491,Left,1,43,120,551.0,0.489583,Eighth,G2
1492,Left,1,48,120,551.5,0.489583,Eighth,C3
1493,Left,1,39,120,552.0,0.489583,Eighth,D#2
1494,Left,1,43,120,552.5,0.489583,Eighth,G2
1496,Right,0,72,120,553.0,0.989583,Quarter,C6_C5
1495,Left,1,36,120,553.0,0.489583,Eighth,C2
1498,Left,1,39,120,553.5,0.489583,Eighth,D#2
1499,Left,1,43,120,554.0,0.489583,Eighth,G2
1502,Left,1,48,120,554.5,0.489583,Eighth,C3
1500,Right,0,79,120,554.5,0.989583,Quarter,G5_G4
1503,Left,1,39,120,555.0,0.489583,Eighth,D#2
1504,Left,1,43,120,555.5,0.489583,Eighth,G2
1505,Left,1,36,120,556.0,0.489583,Eighth,C2
1506,Right,0,75,120,556.0,0.989583,Quarter,D#5_D#4
1508,Left,1,39,120,556.5,0.489583,Eighth,D#2
1509,Left,1,43,120,557.0,0.489583,Eighth,G2
1512,Left,1,48,120,557.5,0.489583,Eighth,C3
1510,Right,0,60,120,557.5,0.989583,Quarter,C5_C4
1513,Left,1,39,120,558.0,0.489583,Eighth,D#2
1514,Left,1,43,120,558.5,0.489583,Eighth,G2
1515,Right,0,67,120,559.0,0.989583,Quarter,G4_G3
1517,Left,1,36,120,559.0,0.489583,Eighth,C2
1518,Left,1,39,120,559.5,0.489583,Eighth,D#2
1519,Left,1,43,120,560.0,0.489583,Eighth,G2
1520,Right,0,51,120,560.5,0.989583,Quarter,D#4_D#3
1521,Left,1,48,120,560.5,0.489583,Eighth,C3
1523,Left,1,36,120,561.0,0.489583,Eighth,C2
1524,Left,1,48,120,561.5,0.489583,Eighth,C3
1525,Right,0,87,120,562.0,2.989583,DottedHalf,D#6_D#5
1526,Left,1,32,120,562.0,0.489583,Eighth,G#1
1528,Left,1,36,120,562.5,0.489583,Eighth,C2
1529,Left,1,39,120,563.0,0.489583,Eighth,D#2
1530,Left,1,44,120,563.5,0.489583,Eighth,G#2
1531,Left,1,36,120,564.0,0.489583,Eighth,C2
1532,Left,1,39,120,564.5,0.489583,Eighth,D#2
1533,Left,1,32,120,565.0,0.489583,Eighth,G#1
1534,Right,0,84,120,565.0,0.989583,Quarter,C6_C5
1536,Left,1,36,120,565.5,0.489583,Eighth,C2
1537,Left,1,39,120,566.0,0.489583,Eighth,D#2
1539,Right,0,80,120,566.5,0.989583,Quarter,G#5_G#4
1538,Left,1,44,120,566.5,0.489583,Eighth,G#2
1541,Left,1,36,120,567.0,0.489583,Eighth,C2
1542,Left,1,39,120,567.5,0.489583,Eighth,D#2
1543,Right,0,63,120,568.0,0.989583,Quarter,D#5_D#4
1545,Left,1,32,120,568.0,0.489583,Eighth,G#1
1546,Left,1,36,120,568.5,0.489583,Eighth,C2
1547,Left,1,39,120,569.0,0.489583,Eighth,D#2
1550,Left,1,44,120,569.5,0.489583,Eighth,G#2
1548,Right,0,60,120,569.5,0.989583,Quarter,C5_C4
1551,Left,1,36,120,570.0,0.489583,Eighth,C2
1552,Left,1,39,120,570.5,0.489583,Eighth,D#2
1554,Right,0,56,120,571.0,0.989583,Quarter,G#4_G#3
1553,Left,1,32,120,571.0,0.489583,Eighth,G#1
1556,Left,1,36,120,571.5,0.489583,Eighth,C2
1557,Left,1,39,120,572.0,0.489583,Eighth,D#2
1559,Left,1,44,120,572.5,0.489583,Eighth,G#2
1558,Right,0,51,120,572.5,0.989583,Quarter,D#4_D#3
1561,Left,1,32,120,573.0,0.489583,Eighth,G#1
1562,Left,1,44,120,573.5,0.489583,Eighth,G#2
1563,Right,0,89,120,574.0,2.989583,DottedHalf,F6_F5
1565,Left,1,29,120,574.0,0.489583,Eighth,F1
1566,Left,1,32,120,574.5,0.489583,Eighth,G#1
1567,Left,1,37,120,575.0,0.489583,Eighth,C#2
1568,Left,1,41,120,575.5,0.489583,Eighth,F2
1569,Left,1,32,120,576.0,0.489583,Eighth,G#1
1570,Left,1,37,120,576.5,0.489583,Eighth,C#2
1571,Right,0,73,120,577.0,1.489583,DottedQuarter,C#6_C#5
1572,Left,1,29,120,577.0,0.489583,Eighth,F1
1574,Left,1,32,120,577.5,0.489583,Eighth,G#1
1575,Left,1,37,120,578.0,0.489583,Eighth,C#2
1576,Right,0,80,120,578.5,1.489583,DottedQuarter,G#5_G#4
1578,Left,1,41,120,578.5,0.489583,Eighth,F2
1579,Left,1,32,120,579.0,0.489583,Eighth,G#1
1580,Left,1,37,120,579.5,0.489583,Eighth,C#2
1581,Left,1,29,120,580.0,0.489583,Eighth,F1
1582,Right,0,77,120,580.0,1.489583,DottedQuarter,F5_F4
1584,Left,1,32,120,580.5,0.489583,Eighth,G#1
1585,Left,1,37,120,581.0,0.489583,Eighth,C#2
1586,Right,0,61,120,581.5,1.489583,DottedQuarter,C#5_C#4
1588,Left,1,41,120,581.5,0.489583,Eighth,F2
1589,Left,1,32,120,582.0,0.489583,Eighth,G#1
1590,Left,1,37,120,582.5,0.489583,Eighth,C#2
1591,Left,1,29,120,583.0,0.489583,Eighth,F1
1592,Right,0,68,120,583.0,1.489583,DottedQuarter,G#4_G#3
1594,Left,1,32,120,583.5,0.489583,Eighth,G#1
1595,Left,1,37,120,584.0,0.489583,Eighth,C#2
1597,Left,1,41,120,584.5,0.489583,Eighth,F2
1596,Right,0,65,120,584.5,1.489583,DottedQuarter,F4_F3
1599,Left,1,32,120,585.0,0.489583,Eighth,G#1
1600,Left,1,37,120,585.5,0.489583,Eighth,C#2
1601,Left,1,31,120,586.0,0.489583,Eighth,G1
1602,Right,0,71,120,586.0,2.989583,DottedHalf,B5_B4
1604,Left,1,35,120,586.5,0.489583,Eighth,B1
1605,Left,1,38,120,587.0,0.489583,Eighth,D2
1606,Left,1,43,120,587.5,0.489583,Eighth,G2
1607,Left,1,35,120,588.0,0.489583,Eighth,B1
1608,Left,1,38,120,588.5,0.489583,Eighth,D2
1609,Right,0,65,120,589.0,1.489583,DottedQuarter,F5_F4
1610,Left,1,31,120,589.0,0.489583,Eighth,G1
1612,Left,1,35,120,589.5,0.489583,Eighth,B1
1613,Left,1,38,120,590.0,0.489583,Eighth,D2
1614,Right,0,62,120,590.5,1.489583,DottedQuarter,D5_D4
1615,Left,1,43,120,590.5,0.489583,Eighth,G2
1617,Left,1,35,120,591.0,0.489583,Eighth,B1
1618,Left,1,38,120,591.5,0.489583,Eighth,D2
1619,Right,0,59,120,592.0,1.489583,DottedQuarter,B4_B3
1621,Left,1,31,120,592.0,0.489583,Eighth,G1
1622,Left,1,35,120,592.5,0.489583,Eighth,B1
1623,Left,1,38,120,593.0,0.489583,Eighth,D2
1626,Left,1,43,120,593.5,0.489583,Eighth,G2
1624,Right,0,65,120,593.5,1.489583,DottedQuarter,F4_F3
1627,Left,1,35,120,594.0,0.489583,Eighth,B1
1628,Left,1,38,120,594.5,0.489583,Eighth,D2
1629,Left,1,31,120,595.0,0.489583,Eighth,G1
1630,Right,0,50,120,595.0,1.489583,DottedQuarter,D4_D3
1632,Left,1,35,120,595.5,0.489583,Eighth,B1
1633,Left,1,38,120,596.0,0.489583,Eighth,D2
1635,Right,0,47,120,596.5,1.489583,DottedQuarter,B3_B2
1634,Left,1,43,120,596.5,0.489583,Eighth,G2
1637,Left,1,41,120,597.0,0.489583,Eighth,F2
1639,Right,0,55,120,597.5,0.489583,Eighth,G3
1638,Left,1,38,120,597.5,0.489583,Eighth,D2
1640,Right,0,52,120,598.0,0.989583,Quarter,E3_C4
1642,Left,1,36,120,598.0,0.989583,Quarter,C2
1643,Right,0,60,80,599.0,0.489583,Eighth,C4
1645,Left,1,67,80,599.5,0.989583,Quarter,G4
1644,Right,0,55,80,599.5,0.989583,Quarter,G3
1646,Right,0,55,80,600.5,0.489583,Eighth,G3
1647,Right,0,60,80,601.0,0.989583,Quarter,E3_C4
1649,Right,0,60,80,602.0,0.489583,Eighth,C4
1650,Right,0,55,80,602.5,0.989583,Quarter,G3
1651,Left,1,67,80,602.5,0.989583,Quarter,G4
1652,Right,0,55,80,603.5,0.489583,Eighth,G3
1653,Right,0,52,80,604.0,0.989583,Quarter,E3_C4
1655,Right,0,60,80,605.0,0.489583,Eighth,C4
1656,Right,0,55,80,605.5,0.989583,Quarter,G3
1657,Left,1,67,80,605.5,0.989583,Quarter,G4
1658,Right,0,55,80,606.5,0.489583,Eighth,G3
1660,Left,1,67,80,607.0,0.989583,Quarter,G4
1659,Right,0,62,80,607.0,0.989583,Quarter,D4_B3
1662,Right,0,62,80,608.0,0.489583,Eighth,D4_B3
1664,Right,0,55,80,608.5,0.989583,Quarter,G3
1665,Right,0,55,80,609.5,0.489583,Eighth,G3
1666,Left,1,43,80,610.0,0.989583,Quarter,G2_G1
1667,Right,0,59,80,610.0,0.989583,Quarter,D4_B3
1670,Right,0,59,80,611.0,0.489583,Eighth,D4_B3
1673,Left,1,67,80,611.5,0.989583,Quarter,G4
1672,Right,0,55,80,611.5,0.989583,Quarter,G3
1674,Right,0,55,80,612.5,0.489583,Eighth,G3
1675,Right,0,62,80,613.0,0.989583,Quarter,D4_B3
1677,Right,0,59,80,614.0,0.489583,Eighth,D4_B3
1680,Right,0,55,80,614.5,0.989583,Quarter,G3
1679,Left,1,67,80,614.5,0.989583,Quarter,G4
1681,Right,0,55,80,615.5,0.489583,Eighth,G3
1682,Right,0,59,80,616.0,0.989583,Quarter,D4_B3
1684,Right,0,62,80,617.0,0.489583,Eighth,D4_B3
1687,Left,1,67,80,617.5,0.989583,Quarter,G4
1686,Right,0,55,80,617.5,0.989583,Quarter,G3
1688,Right,0,55,80,618.5,0.489583,Eighth,G3
1691,Left,1,67,80,619.0,0.989583,Quarter,G4
1689,Right,0,64,80,619.0,0.989583,Quarter,E4_C4
1692,Left,1,58,105,620.5,0.989583,Quarter,A#3
1693,Left,1,58,105,621.5,0.489583,Eighth,A#3
1694,Left,1,61,105,622.0,0.989583,Quarter,C#4
1695,Right,0,64,105,622.5,0.489583,Eighth,E4
1696,Right,0,67,105,623.0,0.489583,Eighth,G4
1698,Right,0,70,105,623.5,0.489583,Eighth,A#4
1697,Left,1,58,105,623.5,0.989583,Quarter,A#3
1699,Right,0,73,105,624.0,0.489583,Eighth,C#5
1701,Right,0,76,105,624.5,0.489583,Eighth,E5
1700,Left,1,58,105,624.5,0.489583,Eighth,A#3
1702,Left,1,61,105,625.0,0.989583,Quarter,C#4
1703,Right,0,67,105,625.5,0.489583,Eighth,G4
1704,Right,0,70,105,626.0,0.489583,Eighth,A#4
1705,Left,1,58,105,626.5,0.989583,Quarter,A#3
1706,Right,0,73,105,626.5,0.489583,Eighth,C#5
1707,Right,0,76,105,627.0,0.489583,Eighth,E5
1708,Right,0,79,105,627.5,0.489583,Eighth,G5
1709,Left,1,58,105,627.5,0.489583,Eighth,A#3
1710,Left,1,61,105,628.0,0.989583,Quarter,C#4
1711,Right,0,76,105,628.5,0.489583,Eighth,E5
1712,Right,0,79,105,629.0,0.489583,Eighth,G5
1714,Left,1,58,105,629.5,0.989583,Quarter,A#3
1713,Right,0,82,105,629.5,0.489583,Eighth,A#5
1715,Right,0,85,105,630.0,0.489583,Eighth,C#6
1716,Left,1,58,105,630.5,0.489583,Eighth,A#3
1717,Right,0,88,105,630.5,0.489583,Eighth,E6
1718,Left,1,61,105,631.0,0.489583,Eighth,C#4
1719,Left,1,58,105,631.5,0.489583,Eighth,A#3
1720,Left,1,60,105,632.0,0.489583,Eighth,C4
1722,Left,1,61,105,632.5,0.489583,Eighth,C#4
1721,Right,0,75,105,632.5,0.989583,Quarter,D#5
1723,Left,1,60,105,633.0,0.489583,Eighth,C4
1725,Left,1,58,105,633.5,0.489583,Eighth,A#3
1724,Right,0,75,105,633.5,0.489583,Eighth,D#5
1727,Left,1,57,105,634.0,0.489583,Eighth,A3
1726,Right,0,78,105,634.0,0.989583,Quarter,F#5
1728,Left,1,45,105,634.5,0.489583,Eighth,A2
1729,Left,1,48,105,635.0,0.489583,Eighth,C3
1730,Left,1,53,105,635.5,0.489583,Eighth,F3
1731,Right,0,75,105,635.5,0.989583,Quarter,D#5
1732,Left,1,57,105,636.0,0.489583,Eighth,A3
1734,Left,1,60,105,636.5,0.489583,Eighth,C4
1733,Right,0,75,105,636.5,0.489583,Eighth,D#5
1735,Right,0,78,105,637.0,0.989583,Quarter,F#5
1736,Left,1,48,105,637.5,0.489583,Eighth,C3
1737,Left,1,53,105,638.0,0.489583,Eighth,F3
1739,Left,1,57,105,638.5,0.489583,Eighth,A3
1738,Right,0,75,105,638.5,0.989583,Quarter,D#5
1740,Left,1,60,105,639.0,0.489583,Eighth,C4
1741,Right,0,75,105,639.5,0.489583,Eighth,D#5
1742,Left,1,65,105,639.5,0.489583,Eighth,F4
1743,Right,0,78,105,640.0,0.989583,Quarter,F#5
1744,Left,1,53,105,640.5,0.489583,Eighth,F3
1745,Left,1,57,105,641.0,0.489583,Eighth,A3
1747,Left,1,60,105,641.5,0.489583,Eighth,C4
1746,Right,0,75,105,641.5,0.989583,Quarter,D#5
1748,Left,1,65,105,642.0,0.489583,Eighth,F4
1749,Right,0,75,105,642.5,0.489583,Eighth,D#5
1750,Left,1,69,105,642.5,0.489583,Eighth,A4
1751,Right,0,78,105,643.0,0.489583,Eighth,F#5
1752,Right,0,75,105,643.5,0.489583,Eighth,D#5
1753,Right,0,77,105,644.0,0.489583,Eighth,F5
1755,Left,1,56,105,644.5,0.989583,Quarter,G#3
1754,Right,0,78,105,644.5,0.489583,Eighth,F#5
1756,Right,0,77,105,645.0,0.489583,Eighth,F5
1758,Left,1,56,105,645.5,0.489583,Eighth,G#3
1757,Right,0,75,105,645.5,0.489583,Eighth,D#5
1759,Right,0,74,105,646.0,0.489583,Eighth,D5
1760,Left,1,59,105,646.0,0.989583,Quarter,B3
1761,Right,0,62,105,646.5,0.489583,Eighth,D4
1762,Right,0,65,105,647.0,0.489583,Eighth,F4
1763,Left,1,56,105,647.5,0.989583,Quarter,G#3
1764,Right,0,68,105,647.5,0.489583,Eighth,G#4
1765,Right,0,71,105,648.0,0.489583,Eighth,B4
1766,Left,1,56,105,648.5,0.489583,Eighth,G#3
1767,Right,0,74,105,648.5,0.489583,Eighth,D5
1768,Left,1,59,105,649.0,0.989583,Quarter,B3
1769,Right,0,65,105,649.5,0.489583,Eighth,F4
1770,Right,0,68,105,650.0,0.489583,Eighth,G#4
1771,Left,1,56,105,650.5,0.989583,Quarter,G#3
1772,Right,0,71,105,650.5,0.489583,Eighth,B4
1773,Right,0,74,105,651.0,0.489583,Eighth,D5
1774,Right,0,77,105,651.5,0.489583,Eighth,F5
1775,Left,1,56,105,651.5,0.489583,Eighth,G#3
1776,Left,1,59,105,652.0,0.989583,Quarter,B3
1777,Right,0,74,105,652.5,0.489583,Eighth,D5
1778,Right,0,77,105,653.0,0.489583,Eighth,F5
1779,Right,0,80,105,653.5,0.489583,Eighth,G#5
1780,Left,1,56,105,653.5,0.989583,Quarter,G#3
1781,Right,0,83,105,654.0,0.489583,Eighth,B5
1782,Right,0,86,105,654.5,0.489583,Eighth,D6
1783,Left,1,56,105,654.5,0.489583,Eighth,G#3
1784,Left,1,59,105,655.0,0.489583,Eighth,B3
1785,Left,1,56,105,655.5,0.489583,Eighth,G#3
1786,Left,1,58,105,656.0,0.489583,Eighth,A#3
1787,Left,1,59,105,656.5,0.489583,Eighth,B3
1788,Right,0,85,105,656.5,0.989583,Quarter,C#6
1789,Left,1,58,105,657.0,0.489583,Eighth,A#3
1790,Right,0,85,105,657.5,0.489583,Eighth,C#6
1791,Left,1,56,105,657.5,0.489583,Eighth,G#3
1793,Left,1,55,105,658.0,0.489583,Eighth,G3
1792,Right,0,88,105,658.0,0.989583,Quarter,E6
1794,Left,1,43,105,658.5,0.489583,Eighth,G2
1795,Left,1,46,105,659.0,0.489583,Eighth,A#2
1796,Right,0,85,105,659.5,0.989583,Quarter,C#6
1797,Left,1,51,105,659.5,0.489583,Eighth,D#3
1798,Left,1,55,105,660.0,0.489583,Eighth,G3
1799,Right,0,85,105,660.5,0.489583,Eighth,C#6
1800,Left,1,58,105,660.5,0.489583,Eighth,A#3
1801,Right,0,88,105,661.0,0.989583,Quarter,E6
1802,Left,1,46,105,661.5,0.489583,Eighth,A#2
1803,Left,1,51,105,662.0,0.489583,Eighth,D#3
1804,Right,0,85,105,662.5,0.989583,Quarter,C#6
1805,Left,1,55,105,662.5,0.489583,Eighth,G3
1806,Left,1,58,105,663.0,0.489583,Eighth,A#3
1807,Left,1,63,105,663.5,0.489583,Eighth,D#4
1808,Right,0,85,105,663.5,0.489583,Eighth,C#6
1809,Right,0,88,105,664.0,0.989583,Quarter,E6
1810,Left,1,51,105,664.5,0.489583,Eighth,D#3
1811,Left,1,55,105,665.0,0.489583,Eighth,G3
1812,Left,1,58,105,665.5,0.489583,Eighth,A#3
1813,Right,0,85,105,665.5,0.989583,Quarter,C#6
1814,Left,1,63,105,666.0,0.489583,Eighth,D#4
1816,Right,0,85,105,666.5,0.489583,Eighth,C#6
1815,Left,1,67,105,666.5,0.489583,Eighth,G4
1817,Right,0,88,105,667.0,0.489583,Eighth,E6
1818,Right,0,85,105,667.5,0.489583,Eighth,C#6
1819,Right,0,87,105,668.0,0.489583,Eighth,D#6
1821,Left,1,43,105,668.5,0.989583,Quarter,G2
1820,Right,0,88,105,668.5,0.489583,Eighth,E6
1822,Right,0,87,105,669.0,0.489583,Eighth,D#6
1824,Left,1,43,105,669.5,0.489583,Eighth,G2
1823,Right,0,85,105,669.5,0.489583,Eighth,C#6
1825,Left,1,44,100,670.0,0.489583,Eighth,G#2
1826,Right,0,84,100,670.0,0.489583,Eighth,C6
1827,Left,1,48,100,670.5,0.489583,Eighth,C3
1828,Right,0,80,100,670.5,0.489583,Eighth,G#5
1829,Right,0,75,101,671.0,0.489583,Eighth,D#5
1830,Left,1,51,101,671.0,0.489583,Eighth,D#3
1832,Right,0,72,102,671.5,0.489583,Eighth,C5
1831,Left,1,56,102,671.5,0.489583,Eighth,G#3
1833,Right,0,80,103,672.0,0.489583,Eighth,G#5
1834,Left,1,60,103,672.0,0.489583,Eighth,C4
1836,Left,1,63,104,672.5,0.489583,Eighth,D#4
1835,Right,0,75,104,672.5,0.489583,Eighth,D#5
1838,Right,0,84,105,673.0,0.489583,Eighth,C6
1837,Left,1,56,105,673.0,0.489583,Eighth,G#3
1840,Left,1,60,105,673.5,0.489583,Eighth,C4
1839,Right,0,80,105,673.5,0.489583,Eighth,G#5
1842,Left,1,63,106,674.0,0.489583,Eighth,D#4
1841,Right,0,75,106,674.0,0.489583,Eighth,D#5
1843,Left,1,68,107,674.5,0.489583,Eighth,G#4
1844,Right,0,72,107,674.5,0.489583,Eighth,C5
1845,Right,0,80,108,675.0,0.489583,Eighth,G#5
1846,Left,1,60,108,675.0,0.489583,Eighth,C4
1848,Left,1,63,109,675.5,0.489583,Eighth,D#4
1847,Right,0,75,109,675.5,0.489583,Eighth,D#5
1849,Right,0,84,110,676.0,0.489583,Eighth,C6
1850,Left,1,51,110,676.0,0.489583,Eighth,D#3
1852,Left,1,56,110,676.5,0.489583,Eighth,G#3
1851,Right,0,80,110,676.5,0.489583,Eighth,G#5
1854,Left,1,60,111,677.0,0.489583,Eighth,C4
1853,Right,0,75,111,677.0,0.489583,Eighth,D#5
1856,Left,1,63,112,677.5,0.489583,Eighth,D#4
1855,Right,0,72,112,677.5,0.489583,Eighth,C5
1857,Left,1,56,113,678.0,0.489583,Eighth,G#3
1858,Right,0,80,113,678.0,0.489583,Eighth,G#5
1859,Left,1,60,114,678.5,0.489583,Eighth,C4
1860,Right,0,75,114,678.5,0.489583,Eighth,D#5
1861,Right,0,84,115,679.0,0.489583,Eighth,C6
1862,Left,1,48,115,679.0,0.489583,Eighth,C3
1864,Right,0,80,115,679.5,0.489583,Eighth,G#5
1863,Left,1,51,115,679.5,0.489583,Eighth,D#3
1865,Right,0,75,116,680.0,0.489583,Eighth,D#5
1866,Left,1,56,116,680.0,0.489583,Eighth,G#3
1868,Right,0,72,117,680.5,0.489583,Eighth,C5
1867,Left,1,60,117,680.5,0.489583,Eighth,C4
1869,Right,0,80,118,681.0,0.489583,Eighth,G#5
1870,Left,1,51,118,681.0,0.489583,Eighth,D#3
1871,Right,0,75,119,681.5,0.489583,Eighth,D#5
1872,Left,1,56,119,681.5,0.489583,Eighth,G#3
1877,Right,0,72,120,682.0,3.489583,DottedHalf,G#5_D#5_C6_C5
1873,Left,1,51,120,682.0,3.489583,DottedHalf,G#3_G#2_D#3_C3
1881,Right,0,80,114,685.5,0.489583,Eighth,G#5
1882,Right,0,75,114,686.0,0.489583,Eighth,D#5
1883,Right,0,72,113,686.5,0.489583,Eighth,C5
1884,Right,0,68,112,687.0,0.489583,Eighth,G#4
1885,Right,0,63,111,687.5,0.489583,Eighth,D#4
1886,Right,0,72,110,688.0,0.489583,Eighth,C5
1887,Right,0,68,109,688.5,0.489583,Eighth,G#4
1888,Right,0,63,108,689.0,0.489583,Eighth,D#4
1889,Right,0,60,107,689.5,0.489583,Eighth,C4
1890,Right,0,56,107,690.0,0.489583,Eighth,G#3
1891,Right,0,51,106,690.5,0.489583,Eighth,D#3
1892,Right,0,60,105,691.0,0.489583,Eighth,C4
1893,Right,0,56,104,691.5,0.489583,Eighth,G#3
1894,Right,0,51,103,692.0,0.489583,Eighth,D#3
1895,Left,1,48,102,692.5,0.489583,Eighth,C3
1896,Left,1,44,101,693.0,0.489583,Eighth,G#2
1897,Left,1,43,101,693.5,0.489583,Eighth,G2
1898,Left,1,41,100,694.0,0.489583,Eighth,F2
1899,Right,0,80,100,694.0,0.489583,Eighth,G#5
1900,Right,0,77,100,694.5,0.489583,Eighth,F5
1901,Left,1,44,100,694.5,0.489583,Eighth,G#2
1902,Right,0,72,101,695.0,0.489583,Eighth,C5
1903,Left,1,48,101,695.0,0.489583,Eighth,C3
1905,Right,0,68,102,695.5,0.489583,Eighth,G#4
1904,Left,1,53,102,695.5,0.489583,Eighth,F3
1907,Right,0,77,103,696.0,0.489583,Eighth,F5
1906,Left,1,56,103,696.0,0.489583,Eighth,G#3
1909,Right,0,72,104,696.5,0.489583,Eighth,C5
1908,Left,1,60,104,696.5,0.489583,Eighth,C4
1911,Left,1,53,105,697.0,0.489583,Eighth,F3
1910,Right,0,80,105,697.0,0.489583,Eighth,G#5
1912,Right,0,77,106,697.5,0.489583,Eighth,F5
1913,Left,1,56,106,697.5,0.489583,Eighth,G#3
1914,Right,0,72,106,698.0,0.489583,Eighth,C5
1915,Left,1,60,106,698.0,0.489583,Eighth,C4
1916,Right,0,68,107,698.5,0.489583,Eighth,G#4
1917,Left,1,65,107,698.5,0.489583,Eighth,F4
1919,Right,0,77,108,699.0,0.489583,Eighth,F5
1918,Left,1,56,108,699.0,0.489583,Eighth,G#3
1921,Right,0,72,109,699.5,0.489583,Eighth,C5
1920,Left,1,60,109,699.5,0.489583,Eighth,C4
1922,Right,0,80,110,700.0,0.489583,Eighth,G#5
1923,Left,1,48,110,700.0,0.489583,Eighth,C3
1925,Left,1,53,111,700.5,0.489583,Eighth,F3
1924,Right,0,77,111,700.5,0.489583,Eighth,F5
1927,Right,0,72,112,701.0,0.489583,Eighth,C5
1926,Left,1,56,112,701.0,0.489583,Eighth,G#3
1929,Right,0,68,113,701.5,0.489583,Eighth,G#4
1928,Left,1,60,113,701.5,0.489583,Eighth,C4
1931,Left,1,53,113,702.0,0.489583,Eighth,F3
1930,Right,0,77,113,702.0,0.489583,Eighth,F5
1933,Left,1,56,114,702.5,0.489583,Eighth,G#3
1932,Right,0,72,114,702.5,0.489583,Eighth,C5
1934,Right,0,80,115,703.0,0.489583,Eighth,G#5
1935,Left,1,44,115,703.0,0.489583,Eighth,G#2
1937,Right,0,77,116,703.5,0.489583,Eighth,F5
1936,Left,1,48,116,703.5,0.489583,Eighth,C3
1938,Left,1,53,117,704.0,0.489583,Eighth,F3
1939,Right,0,72,117,704.0,0.489583,Eighth,C5
1941,Left,1,56,118,704.5,0.489583,Eighth,G#3
1940,Right,0,68,118,704.5,0.489583,Eighth,G#4
1942,Left,1,48,119,705.0,0.489583,Eighth,C3
1943,Right,0,77,119,705.0,0.489583,Eighth,F5
1944,Left,1,53,119,705.5,0.489583,Eighth,F3
1945,Right,0,72,119,705.5,0.489583,Eighth,C5
1946,Left,1,41,120,706.0,3.489583,DottedHalf,G#2_F3_F2_C3
1950,Right,0,68,120,706.0,3.489583,DottedHalf,G#5_G#4_F5_C5
1954,Right,0,77,114,709.5,0.489583,Eighth,F5
1955,Right,0,72,114,710.0,0.489583,Eighth,C5
1956,Right,0,68,113,710.5,0.489583,Eighth,G#4
1957,Right,0,65,112,711.0,0.489583,Eighth,F4
1958,Right,0,60,111,711.5,0.489583,Eighth,C4
1959,Right,0,68,110,712.0,0.489583,Eighth,G#4
1960,Right,0,65,109,712.5,0.489583,Eighth,F4
1961,Right,0,60,108,713.0,0.489583,Eighth,C4
1962,Right,0,56,107,713.5,0.489583,Eighth,G#3
1963,Right,0,53,107,714.0,0.489583,Eighth,F3
1964,Right,0,48,106,714.5,0.489583,Eighth,C3
1965,Right,0,56,105,715.0,0.489583,Eighth,G#3
1966,Right,0,53,104,715.5,0.489583,Eighth,F3
1967,Right,0,48,103,716.0,0.489583,Eighth,C3
1968,Left,1,44,102,716.5,0.489583,Eighth,G#2
1969,Left,1,41,101,717.0,0.489583,Eighth,F2
1970,Left,1,39,101,717.5,0.489583,Eighth,D#2
1972,Right,0,80,90,718.0,0.489583,Eighth,G#5
1971,Left,1,38,90,718.0,0.489583,Eighth,D2
1974,Right,0,77,90,718.5,0.489583,Eighth,F5
1973,Left,1,41,90,718.5,0.489583,Eighth,F2
1976,Right,0,70,90,719.0,0.489583,Eighth,A#4
1975,Left,1,46,90,719.0,0.489583,Eighth,A#2
1978,Right,0,68,91,719.5,0.489583,Eighth,G#4
1977,Left,1,50,91,719.5,0.489583,Eighth,D3
1979,Right,0,77,91,720.0,0.489583,Eighth,F5
1980,Left,1,53,91,720.0,0.489583,Eighth,F3
1982,Left,1,58,92,720.5,0.489583,Eighth,A#3
1981,Right,0,70,92,720.5,0.489583,Eighth,A#4
1983,Right,0,80,92,721.0,0.489583,Eighth,G#5
1984,Left,1,50,92,721.0,0.489583,Eighth,D3
1986,Left,1,53,92,721.5,0.489583,Eighth,F3
1985,Right,0,77,92,721.5,0.489583,Eighth,F5
1988,Left,1,58,93,722.0,0.489583,Eighth,A#3
1987,Right,0,70,93,722.0,0.489583,Eighth,A#4
1989,Left,1,62,93,722.5,0.489583,Eighth,D4
1990,Right,0,68,93,722.5,0.489583,Eighth,G#4
1991,Right,0,77,94,723.0,0.489583,Eighth,F5
1992,Left,1,53,94,723.0,0.489583,Eighth,F3
1993,Left,1,58,94,723.5,0.489583,Eighth,A#3
1994,Right,0,70,94,723.5,0.489583,Eighth,A#4
1995,Left,1,46,94,724.0,0.489583,Eighth,A#2
1996,Right,0,80,94,724.0,0.489583,Eighth,G#5
1998,Right,0,77,95,724.5,0.489583,Eighth,F5
1997,Left,1,50,95,724.5,0.489583,Eighth,D3
2000,Right,0,70,95,725.0,0.489583,Eighth,A#4
1999,Left,1,53,95,725.0,0.489583,Eighth,F3
2002,Right,0,68,96,725.5,0.489583,Eighth,G#4
2001,Left,1,58,96,725.5,0.489583,Eighth,A#3
2003,Left,1,50,96,726.0,0.489583,Eighth,D3
2004,Right,0,77,96,726.0,0.489583,Eighth,F5
2005,Left,1,53,97,726.5,0.489583,Eighth,F3
2006,Right,0,70,97,726.5,0.489583,Eighth,A#4
2007,Left,1,41,97,727.0,0.489583,Eighth,F2
2008,Right,0,80,97,727.0,0.489583,Eighth,G#5
2010,Right,0,77,97,727.5,0.489583,Eighth,F5
2009,Left,1,46,97,727.5,0.489583,Eighth,A#2
2011,Right,0,70,98,728.0,0.489583,Eighth,A#4
2012,Left,1,53,98,728.0,0.489583,Eighth,F3
2013,Right,0,68,98,728.5,0.489583,Eighth,G#4
2014,Left,1,38,98,728.5,0.489583,Eighth,D2
2016,Left,1,46,99,729.0,0.489583,Eighth,A#2
2015,Right,0,77,99,729.0,0.489583,Eighth,F5
2018,Left,1,50,99,729.5,0.489583,Eighth,D3
2017,Right,0,70,99,729.5,0.489583,Eighth,A#4
2020,Left,1,34,99,730.0,1.489583,DottedQuarter,A#2_A#1
2019,Right,0,80,99,730.0,1.489583,DottedQuarter,G#5_G#4_F5_D5
2025,Right,0,50,80,730.5,0.489583,Eighth,D3
2026,Right,0,53,80,731.0,0.489583,Eighth,F3
2027,Right,0,56,80,731.5,0.489583,Eighth,G#3
2028,Right,0,53,80,732.0,0.489583,Eighth,F3
2029,Right,0,50,80,732.5,0.489583,Eighth,D3
2030,Right,0,56,80,733.0,0.489583,Eighth,G#3
2031,Right,0,53,80,733.5,0.489583,Eighth,F3
2032,Right,0,50,80,734.0,0.489583,Eighth,D3
2033,Right,0,56,80,734.5,0.489583,Eighth,G#3
2034,Right,0,53,80,735.0,0.489583,Eighth,F3
2035,Right,0,50,80,735.5,0.489583,Eighth,D3
2036,Right,0,56,80,736.0,0.489583,Eighth,G#3
2037,Right,0,53,80,736.5,0.489583,Eighth,F3
2038,Right,0,50,80,737.0,0.489583,Eighth,D3
2039,Right,0,56,80,737.5,0.489583,Eighth,G#3
2040,Right,0,53,80,738.0,0.489583,Eighth,F3
2041,Right,0,50,80,738.5,0.489583,Eighth,D3
2042,Right,0,56,80,739.0,0.489583,Eighth,G#3
2043,Right,0,53,80,739.5,0.489583,Eighth,F3
2044,Right,0,50,80,740.0,0.489583,Eighth,D3
2045,Right,0,56,80,740.5,0.489583,Eighth,G#3
2046,Right,0,53,80,741.0,0.489583,Eighth,F3
2047,Right,0,50,80,741.5,0.489583,Eighth,D3
2048,Right,0,56,80,742.0,0.489583,Eighth,G#3
2049,Right,0,53,80,742.5,0.489583,Eighth,F3
2050,Right,0,50,80,743.0,0.489583,Eighth,D3
2051,Right,0,56,80,743.5,0.489583,Eighth,G#3
2052,Right,0,53,80,744.0,0.489583,Eighth,F3
2053,Right,0,50,80,744.5,0.489583,Eighth,D3
2054,Right,0,56,80,745.0,0.489583,Eighth,G#3
2055,Right,0,53,80,745.5,0.489583,Eighth,F3
2056,Right,0,50,80,746.0,0.489583,Eighth,D3
2057,Right,0,56,80,746.5,0.489583,Eighth,G#3
2058,Right,0,53,80,747.0,0.489583,Eighth,F3
2059,Right,0,50,80,747.5,0.489583,Eighth,D3
2060,Right,0,56,70,748.0,0.489583,Eighth,G#3
2061,Right,0,53,70,748.5,0.489583,Eighth,F3
2062,Right,0,50,70,749.0,0.489583,Eighth,D3
2063,Right,0,56,70,749.5,0.489583,Eighth,G#3
2064,Right,0,53,70,750.0,0.489583,Eighth,F3
2065,Right,0,50,70,750.5,0.489583,Eighth,D3
2066,Right,0,56,70,751.0,0.489583,Eighth,G#3
2067,Right,0,53,70,751.5,0.489583,Eighth,F3
2068,Right,0,50,70,752.0,0.489583,Eighth,D3
2069,Left,1,50,80,752.5,0.489583,Eighth,D3
2070,Left,1,51,80,753.0,0.489583,Eighth,D#3
2071,Left,1,55,80,753.5,0.489583,Eighth,G3
2072,Left,1,46,80,754.0,0.489583,Eighth,A#2
2073,Left,1,51,80,754.5,0.489583,Eighth,D#3
2074,Left,1,55,80,755.0,0.489583,Eighth,G3
2075,Left,1,50,80,755.5,0.489583,Eighth,D3
2076,Left,1,51,80,756.0,0.489583,Eighth,D#3
2077,Left,1,55,80,756.5,0.489583,Eighth,G3
2078,Left,1,46,80,757.0,0.489583,Eighth,A#2
2079,Left,1,51,80,757.5,0.489583,Eighth,D#3
2080,Left,1,55,80,758.0,0.489583,Eighth,G3
2081,Left,1,50,80,758.5,0.489583,Eighth,D3
2082,Left,1,51,80,759.0,0.489583,Eighth,D#3
2083,Left,1,55,80,759.5,0.489583,Eighth,G3
2084,Right,0,82,80,759.5,0.489583,Eighth,A#5
2086,Left,1,46,80,760.0,0.489583,Eighth,A#2
2085,Right,0,82,80,760.0,0.989583,Quarter,A#5
2087,Left,1,53,80,760.5,0.489583,Eighth,F3
2089,Left,1,56,80,761.0,0.489583,Eighth,G#3
2088,Right,0,80,80,761.0,0.489583,Eighth,G#5
2090,Left,1,52,80,761.5,0.489583,Eighth,E3
2091,Right,0,77,80,761.5,0.989583,Quarter,F5
2092,Left,1,53,80,762.0,0.489583,Eighth,F3
2094,Right,0,74,80,762.5,0.489583,Eighth,D5
2093,Left,1,56,80,762.5,0.489583,Eighth,G#3
2096,Right,0,75,80,763.0,0.989583,Quarter,D#5
2095,Left,1,46,80,763.0,0.489583,Eighth,A#2
2097,Left,1,51,80,763.5,0.489583,Eighth,D#3
2098,Left,1,55,80,764.0,0.489583,Eighth,G3
2099,Left,1,50,80,764.5,0.489583,Eighth,D3
2100,Left,1,51,80,765.0,0.489583,Eighth,D#3
2102,Left,1,55,80,765.5,0.489583,Eighth,G3
2101,Right,0,70,80,765.5,0.489583,Eighth,A#4
2103,Right,0,70,80,766.0,0.989583,Quarter,A#4
2104,Left,1,46,80,766.0,0.489583,Eighth,A#2
2105,Left,1,53,80,766.5,0.489583,Eighth,F3
2106,Right,0,68,80,767.0,0.489583,Eighth,G#4
2107,Left,1,56,80,767.0,0.489583,Eighth,G#3
2109,Right,0,65,80,767.5,0.989583,Quarter,F4
2108,Left,1,52,80,767.5,0.489583,Eighth,E3
2110,Left,1,53,80,768.0,0.489583,Eighth,F3
2112,Right,0,62,80,768.5,0.489583,Eighth,D4
2111,Left,1,56,80,768.5,0.489583,Eighth,G#3
2115,Left,1,51,80,769.0,0.989583,Quarter,D#3_D#2
2113,Right,0,55,80,769.0,0.989583,Quarter,G3_D#4
2117,Left,1,51,80,771.0,0.489583,Eighth,D#3
2118,Left,1,55,80,771.5,0.489583,Eighth,G3
2119,Left,1,46,80,772.0,0.489583,Eighth,A#2
2120,Left,1,51,80,772.5,0.489583,Eighth,D#3
2121,Left,1,55,80,773.0,0.489583,Eighth,G3
2122,Left,1,50,80,773.5,0.489583,Eighth,D3
2123,Left,1,51,80,774.0,0.489583,Eighth,D#3
2124,Left,1,55,80,774.5,0.489583,Eighth,G3
2125,Left,1,46,80,775.0,0.489583,Eighth,A#2
2126,Left,1,51,80,775.5,0.489583,Eighth,D#3
2127,Left,1,55,80,776.0,0.489583,Eighth,G3
2128,Left,1,50,80,776.5,0.489583,Eighth,D3
2129,Left,1,51,80,777.0,0.489583,Eighth,D#3
2131,Left,1,55,80,777.5,0.489583,Eighth,G3
2130,Right,0,82,80,777.5,0.489583,Eighth,A#5
2132,Left,1,46,80,778.0,0.489583,Eighth,A#2
2133,Right,0,82,80,778.0,0.489583,Eighth,A#5
2135,Right,0,80,80,778.5,0.489583,Eighth,G#5
2134,Left,1,53,80,778.5,0.489583,Eighth,F3
2137,Right,0,79,80,779.0,0.489583,Eighth,G5
2136,Left,1,56,80,779.0,0.489583,Eighth,G#3
2139,Right,0,80,80,779.5,0.489583,Eighth,G#5
2138,Left,1,52,80,779.5,0.489583,Eighth,E3
2140,Right,0,77,80,780.0,0.489583,Eighth,F5
2141,Left,1,53,80,780.0,0.489583,Eighth,F3
2142,Right,0,74,80,780.5,0.489583,Eighth,D5
2143,Left,1,56,80,780.5,0.489583,Eighth,G#3
2145,Right,0,75,80,781.0,0.989583,Quarter,D#5
2144,Left,1,46,80,781.0,0.489583,Eighth,A#2
2146,Left,1,51,80,781.5,0.489583,Eighth,D#3
2147,Left,1,55,80,782.0,0.489583,Eighth,G3
2148,Left,1,50,80,782.5,0.489583,Eighth,D3
2149,Left,1,51,80,783.0,0.489583,Eighth,D#3
2151,Right,0,70,80,783.5,0.489583,Eighth,A#4
2150,Left,1,55,80,783.5,0.489583,Eighth,G3
2153,Left,1,46,80,784.0,0.489583,Eighth,A#2
2152,Right,0,70,80,784.0,0.489583,Eighth,A#4
2154,Right,0,68,80,784.5,0.489583,Eighth,G#4
2155,Left,1,53,80,784.5,0.489583,Eighth,F3
2157,Left,1,56,80,785.0,0.489583,Eighth,G#3
2156,Right,0,67,80,785.0,0.489583,Eighth,G4
2159,Left,1,52,80,785.5,0.489583,Eighth,E3
2158,Right,0,68,80,785.5,0.489583,Eighth,G#4
2160,Right,0,65,80,786.0,0.489583,Eighth,F4
2161,Left,1,53,80,786.0,0.489583,Eighth,F3
2162,Right,0,62,80,786.5,0.489583,Eighth,D4
2163,Left,1,56,80,786.5,0.489583,Eighth,G#3
2164,Left,1,39,80,787.0,0.989583,Quarter,D#3_D#2
2165,Right,0,55,80,787.0,0.989583,Quarter,G3_D#4
2168,Right,0,58,110,788.5,0.989583,Quarter,A#3
2169,Right,0,58,110,789.5,0.489583,Eighth,A#3
2171,Right,0,55,110,790.0,0.989583,Quarter,G3_D#4
2170,Left,1,51,110,790.0,0.989583,Quarter,D#3_D#2
2174,Right,0,63,110,791.0,0.489583,Eighth,D#4
2176,Right,0,58,110,791.5,0.989583,Quarter,A#3
2175,Left,1,70,110,791.5,0.989583,Quarter,A#4
2177,Right,0,58,110,792.5,0.489583,Eighth,A#3
2178,Right,0,55,110,793.0,0.989583,Quarter,G3_D#4
2180,Right,0,63,110,794.0,0.489583,Eighth,D#4
2182,Right,0,58,110,794.5,0.989583,Quarter,A#3
2181,Left,1,70,110,794.5,0.989583,Quarter,A#4
2183,Right,0,58,110,795.5,0.489583,Eighth,A#3
2184,Right,0,55,110,796.0,0.989583,Quarter,G3_D#4
2186,Right,0,63,110,797.0,0.489583,Eighth,D#4
2188,Right,0,58,110,797.5,0.989583,Quarter,A#3
2187,Left,1,70,110,797.5,0.989583,Quarter,A#4
2189,Right,0,58,110,798.5,0.489583,Eighth,A#3
2190,Left,1,70,110,799.0,0.989583,Quarter,A#4
2191,Right,0,65,110,799.0,0.989583,Quarter,F4_D4
2193,Right,0,65,110,800.0,0.489583,Eighth,F4_D4
2195,Right,0,58,110,800.5,0.989583,Quarter,A#3
2196,Right,0,58,110,801.5,0.489583,Eighth,A#3
2198,Right,0,65,110,802.0,0.989583,Quarter,F4_D4
2197,Left,1,46,110,802.0,0.989583,Quarter,A#2_A#1
2201,Right,0,65,110,803.0,0.489583,Eighth,F4_D4
2203,Right,0,58,110,803.5,0.989583,Quarter,A#3
2204,Left,1,70,110,803.5,0.989583,Quarter,A#4
2205,Right,0,58,110,804.5,0.489583,Eighth,A#3
2206,Right,0,65,110,805.0,0.989583,Quarter,F4_D4
2208,Right,0,62,110,806.0,0.489583,Eighth,F4_D4
2210,Left,1,70,110,806.5,0.989583,Quarter,A#4
2211,Right,0,58,110,806.5,0.989583,Quarter,A#3
2212,Right,0,58,110,807.5,0.489583,Eighth,A#3
2213,Right,0,62,110,808.0,0.989583,Quarter,F4_D4
2215,Right,0,62,110,809.0,0.489583,Eighth,F4_D4
2218,Right,0,58,110,809.5,0.989583,Quarter,A#3
2217,Left,1,70,110,809.5,0.989583,Quarter,A#4
2219,Right,0,58,110,810.5,0.489583,Eighth,A#3
2222,Left,1,70,110,811.0,0.989583,Quarter,A#4
2220,Right,0,67,110,811.0,0.989583,Quarter,G4_D#4
2223,Right,0,67,110,812.0,0.489583,Eighth,G4
2225,Left,1,51,80,812.5,5.489583,Unknown,D#3
2224,Right,0,63,80,812.5,0.989583,Quarter,D#4
2226,Right,0,63,80,813.5,0.489583,Eighth,D#4
2228,Left,1,48,80,814.0,1.489583,DottedQuarter,C3
2227,Right,0,68,80,814.0,0.989583,Quarter,G#4
2229,Right,0,68,80,815.0,0.489583,Eighth,G#4
2231,Left,1,44,80,815.5,1.489583,DottedQuarter,G#2
2230,Right,0,72,80,815.5,0.989583,Quarter,C5
2232,Right,0,72,80,816.5,0.489583,Eighth,C5
2233,Right,0,70,80,817.0,0.989583,Quarter,A#4
2234,Left,1,43,80,817.0,0.989583,Quarter,G2
2235,Right,0,70,80,818.0,0.489583,Eighth,A#4
2237,Right,0,75,80,818.5,0.989583,Quarter,D#5
2236,Left,1,51,80,818.5,5.489583,Unknown,D#3
2238,Right,0,75,80,819.5,0.489583,Eighth,D#5
2239,Right,0,80,80,820.0,0.989583,Quarter,G#5
2240,Left,1,48,80,820.0,1.489583,DottedQuarter,C3
2241,Right,0,80,80,821.0,0.489583,Eighth,G#5
2243,Right,0,84,80,821.5,0.989583,Quarter,C6
2242,Left,1,44,80,821.5,1.489583,DottedQuarter,G#2
2244,Right,0,84,80,822.5,0.489583,Eighth,C6
2245,Left,1,43,80,823.0,0.989583,Quarter,G2
2246,Right,0,82,80,823.0,0.989583,Quarter,A#5
2247,Right,0,70,80,824.0,0.489583,Eighth,A#4
2248,Right,0,63,80,824.5,0.989583,Quarter,D#4
2249,Left,1,51,80,824.5,5.489583,Unknown,D#3
2250,Right,0,63,80,825.5,0.489583,Eighth,D#4
2252,Left,1,48,80,826.0,1.489583,DottedQuarter,C3
2251,Right,0,68,80,826.0,0.989583,Quarter,G#4
2253,Right,0,68,80,827.0,0.489583,Eighth,G#4
2254,Left,1,44,80,827.5,1.489583,DottedQuarter,G#2
2255,Right,0,72,80,827.5,0.989583,Quarter,C5
2256,Right,0,72,80,828.5,0.489583,Eighth,C5
2257,Left,1,43,80,829.0,0.989583,Quarter,G2
2258,Right,0,70,80,829.0,0.989583,Quarter,A#4
2259,Right,0,67,80,830.0,0.489583,Eighth,G4
2261,Left,1,53,80,830.5,0.989583,Quarter,G#2_F3
2260,Right,0,65,80,830.5,0.989583,Quarter,F4
2263,Right,0,68,80,831.5,0.489583,Eighth,G#4
2264,Left,1,46,80,832.0,0.989583,Quarter,G3_A#2
2266,Right,0,63,80,832.0,0.989583,Quarter,D#4
2267,Right,0,67,80,833.0,0.489583,Eighth,G4
2270,Right,0,62,80,833.5,0.989583,Quarter,D4
2268,Left,1,46,80,833.5,0.989583,Quarter,G#3_A#2
2271,Right,0,65,80,834.5,0.489583,Eighth,F4
2273,Left,1,39,80,835.0,0.989583,Quarter,D#2
2272,Right,0,63,80,835.0,0.989583,Quarter,D#4
2274,Right,0,63,80,836.5,0.989583,Quarter,D#4
2275,Left,1,51,80,836.5,5.489583,Unknown,D#3
2276,Right,0,63,80,837.5,0.489583,Eighth,D#4
2277,Right,0,68,80,838.0,0.989583,Quarter,G#4
2278,Left,1,47,80,838.0,1.489583,DottedQuarter,B2
2279,Right,0,68,80,839.0,0.489583,Eighth,G#4
2281,Right,0,71,80,839.5,0.989583,Quarter,B4
2280,Left,1,44,80,839.5,1.489583,DottedQuarter,G#2
2282,Right,0,71,80,840.5,0.489583,Eighth,B4
2284,Left,1,42,80,841.0,0.989583,Quarter,F#2
2283,Right,0,70,80,841.0,0.989583,Quarter,A#4
2285,Right,0,70,80,842.0,0.489583,Eighth,A#4
2286,Left,1,51,80,842.5,5.489583,Unknown,D#3
2287,Right,0,75,80,842.5,0.989583,Quarter,D#5
2288,Right,0,75,80,843.5,0.489583,Eighth,D#5
2289,Left,1,47,80,844.0,1.489583,DottedQuarter,B2
2290,Right,0,80,80,844.0,0.989583,Quarter,G#5
2291,Right,0,80,80,845.0,0.489583,Eighth,G#5
2292,Left,1,44,80,845.5,1.489583,DottedQuarter,G#2
2293,Right,0,83,80,845.5,0.989583,Quarter,B5
2294,Right,0,83,80,846.5,0.489583,Eighth,B5
2296,Right,0,82,80,847.0,0.989583,Quarter,A#5
2295,Left,1,42,80,847.0,0.989583,Quarter,F#2
2297,Right,0,70,80,848.0,0.489583,Eighth,A#4
2298,Right,0,66,80,848.5,0.989583,Quarter,F#4
2299,Left,1,54,80,848.5,5.489583,Unknown,F#3
2300,Right,0,66,80,849.5,0.489583,Eighth,F#4
2301,Right,0,71,80,850.0,0.989583,Quarter,B4
2302,Left,1,51,80,850.0,1.489583,DottedQuarter,D#3
2303,Right,0,71,80,851.0,0.489583,Eighth,B4
2305,Right,0,75,80,851.5,0.989583,Quarter,D#5
2304,Left,1,47,80,851.5,1.489583,DottedQuarter,B2
2306,Right,0,75,80,852.5,0.489583,Eighth,D#5
2307,Right,0,73,80,853.0,0.989583,Quarter,C#5
2308,Left,1,46,80,853.0,0.989583,Quarter,A#2
2309,Right,0,73,80,854.0,0.489583,Eighth,C#5
2311,Left,1,54,80,854.5,5.489583,Unknown,F#3
2310,Right,0,78,80,854.5,0.989583,Quarter,F#5
2312,Right,0,78,80,855.5,0.489583,Eighth,F#5
2314,Right,0,83,80,856.0,0.989583,Quarter,B5
2313,Left,1,51,80,856.0,1.489583,DottedQuarter,D#3
2315,Right,0,83,80,857.0,0.489583,Eighth,B5
2316,Right,0,87,80,857.5,0.989583,Quarter,D#6
2317,Left,1,47,80,857.5,1.489583,DottedQuarter,B2
2318,Right,0,87,80,858.5,0.489583,Eighth,D#6
2320,Left,1,46,80,859.0,0.989583,Quarter,A#2
2319,Right,0,85,80,859.0,0.989583,Quarter,C#6
2321,Right,0,73,80,860.0,0.489583,Eighth,C#5
2322,Right,0,66,90,860.5,0.989583,Quarter,F#4
2323,Left,1,57,90,860.5,1.489583,DottedQuarter,A3
2324,Right,0,66,94,861.5,0.489583,Eighth,F#4
2326,Left,1,56,97,862.0,1.489583,DottedQuarter,G#3
2325,Right,0,72,97,862.0,0.989583,Quarter,C5
2327,Right,0,72,102,863.0,0.489583,Eighth,C5
2328,Right,0,75,104,863.5,0.989583,Quarter,D#5
2329,Left,1,54,104,863.5,1.489583,DottedQuarter,F#3
2330,Right,0,75,109,864.5,0.489583,Eighth,D#5
2332,Left,1,53,110,865.0,0.489583,Eighth,F3
2331,Right,0,73,110,865.0,4.489583,Whole,C#5
2333,Left,1,56,110,865.5,0.489583,Eighth,G#3
2334,Left,1,59,110,866.0,0.489583,Eighth,B3
2335,Left,1,53,110,866.5,0.489583,Eighth,F3
2336,Left,1,56,110,867.0,0.489583,Eighth,G#3
2337,Left,1,59,110,867.5,0.489583,Eighth,B3
2338,Left,1,53,110,868.0,0.489583,Eighth,F3
2339,Left,1,56,110,868.5,0.489583,Eighth,G#3
2340,Left,1,59,110,869.0,0.489583,Eighth,B3
2341,Right,0,73,110,869.5,1.489583,DottedQuarter,C#5
2342,Left,1,53,110,869.5,0.489583,Eighth,F3
2343,Left,1,56,110,870.0,0.489583,Eighth,G#3
2344,Left,1,59,110,870.5,0.489583,Eighth,B3
2346,Left,1,53,110,871.0,0.489583,Eighth,F3
2345,Right,0,73,110,871.0,1.489583,DottedQuarter,C#5
2347,Left,1,56,110,871.5,0.489583,Eighth,G#3
2348,Left,1,59,110,872.0,0.489583,Eighth,B3
2350,Right,0,73,110,872.5,1.489583,DottedQuarter,C#5
2349,Left,1,53,110,872.5,0.489583,Eighth,F3
2351,Left,1,56,110,873.0,0.489583,Eighth,G#3
2352,Left,1,59,110,873.5,0.489583,Eighth,B3
2354,Right,0,73,110,874.0,1.489583,DottedQuarter,C#5
2353,Left,1,53,110,874.0,0.489583,Eighth,F3
2355,Left,1,56,110,874.5,0.489583,Eighth,G#3
2356,Left,1,59,110,875.0,0.489583,Eighth,B3
2358,Right,0,73,110,875.5,1.489583,DottedQuarter,C#5
2357,Left,1,58,110,875.5,0.489583,Eighth,A#3
2359,Left,1,56,110,876.0,0.489583,Eighth,G#3
2360,Left,1,54,110,876.5,0.489583,Eighth,F#3
2362,Left,1,53,110,877.0,0.489583,Eighth,F3
2361,Right,0,73,110,877.0,4.489583,Whole,C#5
2363,Left,1,56,110,877.5,0.489583,Eighth,G#3
2364,Left,1,59,110,878.0,0.489583,Eighth,B3
2365,Left,1,53,110,878.5,0.489583,Eighth,F3
2366,Right,0,85,110,878.5,2.989583,DottedHalf,C#6
2367,Left,1,56,110,879.0,0.489583,Eighth,G#3
2368,Left,1,59,110,879.5,0.489583,Eighth,B3
2369,Left,1,53,110,880.0,0.489583,Eighth,F3
2370,Left,1,56,110,880.5,0.489583,Eighth,G#3
2371,Left,1,59,110,881.0,0.489583,Eighth,B3
2373,Right,0,85,110,881.5,1.489583,DottedQuarter,C#6_C#5
2372,Left,1,53,110,881.5,0.489583,Eighth,F3
2375,Left,1,56,110,882.0,0.489583,Eighth,G#3
2376,Left,1,59,110,882.5,0.489583,Eighth,B3
2378,Right,0,73,110,883.0,1.489583,DottedQuarter,C#6_C#5
2377,Left,1,53,110,883.0,0.489583,Eighth,F3
2380,Left,1,56,110,883.5,0.489583,Eighth,G#3
2381,Left,1,59,110,884.0,0.489583,Eighth,B3
2384,Left,1,53,110,884.5,0.489583,Eighth,F3
2382,Right,0,85,110,884.5,1.489583,DottedQuarter,C#6_C#5
2385,Left,1,56,110,885.0,0.489583,Eighth,G#3
2386,Left,1,59,110,885.5,0.489583,Eighth,B3
2389,Left,1,53,110,886.0,0.489583,Eighth,F3
2387,Right,0,85,110,886.0,1.489583,DottedQuarter,C#6_C#5
2390,Left,1,56,110,886.5,0.489583,Eighth,G#3
2391,Left,1,59,110,887.0,0.489583,Eighth,B3
2392,Left,1,53,110,887.5,0.489583,Eighth,F3
2393,Right,0,85,110,887.5,1.489583,DottedQuarter,C#6_C#5
2395,Left,1,56,110,888.0,0.489583,Eighth,G#3
2396,Left,1,59,110,888.5,0.489583,Eighth,B3
2397,Left,1,53,110,889.0,0.489583,Eighth,F3
2398,Right,0,85,110,889.0,0.989583,Quarter,C#6_C#5
2400,Left,1,56,110,889.5,0.489583,Eighth,G#3
2401,Left,1,59,110,890.0,0.489583,Eighth,B3
2402,Right,0,77,110,890.0,0.489583,Eighth,F5
2404,Right,0,78,110,890.5,0.489583,Eighth,F#5
2403,Left,1,58,110,890.5,0.489583,Eighth,A#3
2405,Left,1,56,110,891.0,0.489583,Eighth,G#3
2406,Right,0,80,110,891.0,0.489583,Eighth,G#5
2407,Left,1,54,110,891.5,0.489583,Eighth,F#3
2408,Right,0,82,110,891.5,0.489583,Eighth,A#5
2409,Left,1,53,110,892.0,0.489583,Eighth,F3
2410,Left,1,54,110,892.5,0.489583,Eighth,F#3
2412,Left,1,56,110,893.0,0.489583,Eighth,G#3
2411,Right,0,74,110,893.0,0.489583,Eighth,D5
2414,Left,1,54,110,893.5,0.489583,Eighth,F#3
2413,Right,0,75,110,893.5,0.489583,Eighth,D#5
2415,Left,1,53,110,894.0,0.489583,Eighth,F3
2416,Right,0,77,110,894.0,0.489583,Eighth,F5
2417,Left,1,51,110,894.5,0.489583,Eighth,D#3
2418,Right,0,78,110,894.5,0.489583,Eighth,F#5
2419,Left,1,49,110,895.0,0.489583,Eighth,C#3
2420,Left,1,51,110,895.5,0.489583,Eighth,D#3
2422,Left,1,52,110,896.0,0.489583,Eighth,E3
2421,Right,0,70,110,896.0,0.489583,Eighth,A#4
2424,Right,0,71,110,896.5,0.489583,Eighth,B4
2423,Left,1,51,110,896.5,0.489583,Eighth,D#3
2425,Left,1,49,110,897.0,0.489583,Eighth,C#3
2426,Right,0,73,110,897.0,0.489583,Eighth,C#5
2427,Left,1,47,110,897.5,0.489583,Eighth,B2
2428,Right,0,75,110,897.5,0.489583,Eighth,D#5
2429,Left,1,46,110,898.0,0.489583,Eighth,A#2
2430,Left,1,47,110,898.5,0.489583,Eighth,B2
2432,Left,1,49,110,899.0,0.489583,Eighth,C#3
2431,Right,0,67,110,899.0,0.489583,Eighth,G4
2433,Left,1,47,110,899.5,0.489583,Eighth,B2
2434,Right,0,68,110,899.5,0.489583,Eighth,G#4
2436,Left,1,46,110,900.0,0.489583,Eighth,A#2
2435,Right,0,70,110,900.0,0.489583,Eighth,A#4
2438,Left,1,44,110,900.5,0.489583,Eighth,G#2
2437,Right,0,71,110,900.5,0.489583,Eighth,B4
2439,Left,1,35,110,901.0,0.989583,Quarter,B1
2440,Right,0,56,110,901.5,0.489583,Eighth,G#3
2441,Right,0,59,110,902.0,0.489583,Eighth,B3
2442,Right,0,63,110,902.5,0.489583,Eighth,D#4
2443,Right,0,59,110,903.0,0.489583,Eighth,B3
2444,Right,0,63,110,903.5,0.489583,Eighth,D#4
2448,Right,0,68,110,904.0,0.489583,Eighth,G#4
2445,Left,1,47,110,904.0,0.989583,Quarter,G#3_D#3_B2
2449,Right,0,63,110,904.5,0.489583,Eighth,D#4
2450,Right,0,68,110,905.0,0.489583,Eighth,G#4
2451,Right,0,71,110,905.5,0.489583,Eighth,B4
2452,Right,0,68,110,906.0,0.489583,Eighth,G#4
2453,Right,0,71,110,906.5,0.489583,Eighth,B4
2454,Right,0,75,110,907.0,0.489583,Eighth,D#5
2455,Right,0,73,110,907.5,0.489583,Eighth,C#5
2456,Right,0,71,110,908.0,0.489583,Eighth,B4
2457,Left,1,47,110,908.5,0.489583,Eighth,B2
2458,Right,0,70,110,908.5,0.489583,Eighth,A#4
2459,Left,1,51,110,909.0,0.489583,Eighth,D#3
2460,Right,0,71,110,909.0,0.489583,Eighth,B4
2461,Left,1,56,110,909.5,0.489583,Eighth,G#3
2462,Right,0,68,110,909.5,0.489583,Eighth,G#4
2463,Right,0,73,110,910.0,0.489583,Eighth,C#5
2464,Left,1,49,110,910.0,0.489583,Eighth,C#3
2465,Right,0,70,110,910.5,0.489583,Eighth,A#4
2466,Left,1,54,110,910.5,0.489583,Eighth,F#3
2468,Left,1,58,110,911.0,0.489583,Eighth,A#3
2467,Right,0,66,110,911.0,0.489583,Eighth,F#4
2470,Right,0,71,110,911.5,0.489583,Eighth,B4
2469,Left,1,49,110,911.5,0.489583,Eighth,C#3
2472,Right,0,68,110,912.0,0.489583,Eighth,G#4
2471,Left,1,56,110,912.0,0.489583,Eighth,G#3
2473,Right,0,65,110,912.5,0.489583,Eighth,F4
2474,Left,1,59,110,912.5,0.489583,Eighth,B3
2475,Left,1,53,110,913.0,0.489583,Eighth,F3
2476,Left,1,56,110,913.5,0.489583,Eighth,G#3
2477,Right,0,85,110,913.5,0.489583,Eighth,C#6
2478,Right,0,77,110,914.0,0.489583,Eighth,F5
2479,Left,1,59,110,914.0,0.489583,Eighth,B3
2480,Right,0,78,110,914.5,0.489583,Eighth,F#5
2481,Left,1,58,110,914.5,0.489583,Eighth,A#3
2482,Right,0,80,110,915.0,0.489583,Eighth,G#5
2483,Left,1,56,110,915.0,0.489583,Eighth,G#3
2484,Left,1,54,110,915.5,0.489583,Eighth,F#3
2485,Right,0,82,110,915.5,0.489583,Eighth,A#5
2486,Left,1,53,110,916.0,0.489583,Eighth,F3
2488,Left,1,54,110,916.5,0.489583,Eighth,F#3
2487,Right,0,82,110,916.5,0.489583,Eighth,A#5
2489,Left,1,56,110,917.0,0.489583,Eighth,G#3
2490,Right,0,74,110,917.0,0.489583,Eighth,D5
2491,Left,1,54,110,917.5,0.489583,Eighth,F#3
2492,Right,0,75,110,917.5,0.489583,Eighth,D#5
2494,Left,1,53,110,918.0,0.489583,Eighth,F3
2493,Right,0,77,110,918.0,0.489583,Eighth,F5
2495,Right,0,78,110,918.5,0.489583,Eighth,F#5
2496,Left,1,51,110,918.5,0.489583,Eighth,D#3
2497,Left,1,49,110,919.0,0.489583,Eighth,C#3
2499,Left,1,51,110,919.5,0.489583,Eighth,D#3
2498,Right,0,78,110,919.5,0.489583,Eighth,F#5
2500,Right,0,70,110,920.0,0.489583,Eighth,A#4
2501,Left,1,52,110,920.0,0.489583,Eighth,E3
2502,Right,0,71,110,920.5,0.489583,Eighth,B4
2503,Left,1,51,110,920.5,0.489583,Eighth,D#3
2505,Left,1,49,110,921.0,0.489583,Eighth,C#3
2504,Right,0,73,110,921.0,0.489583,Eighth,C#5
2507,Right,0,75,110,921.5,0.489583,Eighth,D#5
2506,Left,1,48,110,921.5,0.489583,Eighth,C3
2508,Left,1,46,110,922.0,0.489583,Eighth,A#2
2510,Left,1,47,110,922.5,0.489583,Eighth,B2
2509,Right,0,75,110,922.5,0.489583,Eighth,D#5
2511,Left,1,49,110,923.0,0.489583,Eighth,C#3
2512,Right,0,67,110,923.0,0.489583,Eighth,G4
2513,Left,1,47,110,923.5,0.489583,Eighth,B2
2514,Right,0,68,110,923.5,0.489583,Eighth,G#4
2516,Right,0,70,110,924.0,0.489583,Eighth,A#4
2515,Left,1,46,110,924.0,0.489583,Eighth,A#2
2517,Left,1,44,110,924.5,0.489583,Eighth,G#2
2518,Right,0,71,110,924.5,0.489583,Eighth,B4
2519,Left,1,35,110,925.0,0.989583,Quarter,B1
2520,Right,0,56,110,925.5,0.489583,Eighth,G#3
2521,Right,0,59,110,926.0,0.489583,Eighth,B3
2522,Right,0,63,110,926.5,0.489583,Eighth,D#4
2523,Right,0,59,110,927.0,0.489583,Eighth,B3
2524,Right,0,63,110,927.5,0.489583,Eighth,D#4
2525,Left,1,47,110,928.0,0.989583,Quarter,G#3_D#3_B2
2527,Right,0,68,110,928.0,0.489583,Eighth,G#4
2529,Right,0,63,110,928.5,0.489583,Eighth,D#4
2530,Right,0,68,110,929.0,0.489583,Eighth,G#4
2531,Right,0,71,110,929.5,0.489583,Eighth,B4
2532,Right,0,68,110,930.0,0.489583,Eighth,G#4
2533,Right,0,71,110,930.5,0.489583,Eighth,B4
2534,Left,1,47,110,931.0,0.989583,Quarter,G#3_D#3_B3_B2
2538,Right,0,75,110,931.0,0.489583,Eighth,D#5
2539,Right,0,63,110,931.5,0.489583,Eighth,D#4
2540,Right,0,68,110,932.0,0.489583,Eighth,G#4
2541,Right,0,71,110,932.5,0.489583,Eighth,B4
2542,Right,0,68,110,933.0,0.489583,Eighth,G#4
2543,Right,0,71,110,933.5,0.489583,Eighth,B4
2544,Left,1,63,110,934.0,0.989583,Quarter,G#4_D#4_B3
2547,Right,0,75,110,934.0,0.489583,Eighth,D#5
2548,Right,0,71,110,934.5,0.489583,Eighth,B4
2549,Right,0,75,110,935.0,0.489583,Eighth,D#5
2550,Right,0,80,110,935.5,0.489583,Eighth,G#5
2551,Right,0,75,110,936.0,0.489583,Eighth,D#5
2552,Right,0,80,110,936.5,0.489583,Eighth,G#5
2553,Right,0,83,110,937.0,0.489583,Eighth,B5
2555,Right,0,75,110,937.5,0.489583,Eighth,D#5
2554,Left,1,71,110,937.5,0.489583,Eighth,B4
2557,Left,1,68,110,938.0,0.489583,Eighth,G#4
2556,Right,0,80,110,938.0,0.489583,Eighth,G#5
2558,Left,1,63,110,938.5,0.489583,Eighth,D#4
2559,Right,0,83,110,938.5,0.489583,Eighth,B5
2561,Left,1,68,110,939.0,0.489583,Eighth,G#4
2560,Right,0,80,110,939.0,0.489583,Eighth,G#5
2562,Left,1,63,110,939.5,0.489583,Eighth,D#4
2563,Right,0,83,110,939.5,0.489583,Eighth,B5
2564,Left,1,59,110,940.0,0.489583,Eighth,B3
2565,Right,0,87,110,940.0,0.489583,Eighth,D#6
2566,Right,0,75,110,940.5,0.489583,Eighth,D#5
2567,Left,1,71,110,940.5,0.489583,Eighth,B4
2568,Left,1,68,110,941.0,0.489583,Eighth,G#4
2569,Right,0,80,110,941.0,0.489583,Eighth,G#5
2570,Left,1,63,110,941.5,0.489583,Eighth,D#4
2571,Right,0,83,110,941.5,0.489583,Eighth,B5
2572,Left,1,68,110,942.0,0.489583,Eighth,G#4
2573,Right,0,80,110,942.0,0.489583,Eighth,G#5
2574,Left,1,63,110,942.5,0.489583,Eighth,D#4
2575,Right,0,83,110,942.5,0.489583,Eighth,B5
2576,Right,0,87,110,943.0,0.489583,Eighth,D#6
2577,Left,1,59,110,943.0,0.989583,Quarter,B3
2578,Right,0,75,110,943.5,0.489583,Eighth,D#5
2579,Right,0,74,110,944.0,0.489583,Eighth,D5
2580,Right,0,75,110,944.5,0.489583,Eighth,D#5
2581,Right,0,76,110,945.0,0.489583,Eighth,E5
2582,Right,0,77,110,945.5,0.489583,Eighth,F5
2583,Right,0,78,110,946.0,0.489583,Eighth,F#5
2584,Right,0,79,110,946.5,0.489583,Eighth,G5
2585,Right,0,80,110,947.0,0.489583,Eighth,G#5
2586,Right,0,81,110,947.5,0.489583,Eighth,A5
2587,Right,0,82,110,948.0,0.489583,Eighth,A#5
2588,Right,0,83,110,948.5,0.489583,Eighth,B5
2589,Right,0,84,110,949.0,0.489583,Eighth,C6
2590,Right,0,85,110,949.5,0.489583,Eighth,C#6
2591,Right,0,86,110,950.0,0.489583,Eighth,D6
2595,Right,0,87,110,950.5,0.489583,Eighth,D#6
2592,Left,1,68,110,950.5,0.989583,Quarter,G#4_D#4_B3
2596,Right,0,83,110,951.0,0.489583,Eighth,B5
2597,Right,0,80,110,951.5,0.489583,Eighth,G#5
2598,Left,1,66,110,952.0,0.989583,Quarter,F#4_C#4_A#4
2601,Right,0,78,110,952.0,0.989583,Quarter,F#5
2602,Left,1,71,110,953.5,0.989583,Quarter,F4_C#4_B4
2603,Right,0,80,110,953.5,0.489583,Eighth,G#5
2606,Right,0,82,110,953.75,0.489583,Eighth,A#5
2607,Right,0,80,110,954.0,0.489583,Eighth,G#5
2608,Right,0,82,110,954.25,0.489583,Eighth,A#5
2609,Right,0,78,110,954.5,0.489583,Eighth,F#5
2610,Right,0,80,110,954.75,0.239583,Sixteenth,G#5
2612,Left,1,42,110,955.0,0.489583,Eighth,F#2
2611,Right,0,78,110,955.0,0.989583,Quarter,F#5
2613,Left,1,49,80,955.5,0.489583,Eighth,C#3
2615,Right,0,66,80,956.0,0.489583,Eighth,F#4
2614,Left,1,54,80,956.0,0.489583,Eighth,F#3
2617,Left,1,58,80,956.5,0.489583,Eighth,A#3
2616,Right,0,70,80,956.5,0.989583,Quarter,A#4
2618,Left,1,54,80,957.0,0.489583,Eighth,F#3
2620,Right,0,70,80,957.5,0.489583,Eighth,A#4
2619,Left,1,49,80,957.5,0.489583,Eighth,C#3
2621,Left,1,42,80,958.0,0.489583,Eighth,F#2
2622,Right,0,73,80,958.0,0.989583,Quarter,C#5
2623,Left,1,49,80,958.5,0.489583,Eighth,C#3
2625,Left,1,54,80,959.0,0.489583,Eighth,F#3
2624,Right,0,73,80,959.0,0.489583,Eighth,C#5
2626,Left,1,58,80,959.5,0.489583,Eighth,A#3
2627,Right,0,78,80,959.5,0.989583,Quarter,F#5
2628,Left,1,54,80,960.0,0.489583,Eighth,F#3
2629,Right,0,78,80,960.5,0.489583,Eighth,F#5
2630,Left,1,49,80,960.5,0.489583,Eighth,C#3
2632,Right,0,82,80,961.0,0.989583,Quarter,A#5
2631,Left,1,42,80,961.0,0.489583,Eighth,F#2
2633,Left,1,49,80,961.5,0.489583,Eighth,C#3
2634,Right,0,82,80,962.0,0.489583,Eighth,A#5
2635,Left,1,54,80,962.0,0.489583,Eighth,F#3
2637,Right,0,85,80,962.5,0.989583,Quarter,C#6
2636,Left,1,58,80,962.5,0.489583,Eighth,A#3
2638,Left,1,54,80,963.0,0.489583,Eighth,F#3
2639,Right,0,78,80,963.5,0.489583,Eighth,F#5
2640,Left,1,49,80,963.5,0.489583,Eighth,C#3
2641,Right,0,82,80,964.0,0.989583,Quarter,A#5
2642,Left,1,42,80,964.0,0.489583,Eighth,F#2
2643,Left,1,49,80,964.5,0.489583,Eighth,C#3
2644,Left,1,54,80,965.0,0.489583,Eighth,F#3
2645,Right,0,73,80,965.0,0.489583,Eighth,C#5
2646,Right,0,78,80,965.5,0.989583,Quarter,F#5
2647,Left,1,58,80,965.5,0.489583,Eighth,A#3
2648,Left,1,54,80,966.0,0.489583,Eighth,F#3
2650,Right,0,70,80,966.5,0.489583,Eighth,A#4
2649,Left,1,49,80,966.5,0.489583,Eighth,C#3
2651,Right,0,73,80,967.0,0.989583,Quarter,C#5
2652,Left,1,42,80,967.0,0.489583,Eighth,F#2
2653,Left,1,49,80,967.5,0.489583,Eighth,C#3
2655,Right,0,66,80,968.0,0.489583,Eighth,F#4
2654,Left,1,54,80,968.0,0.489583,Eighth,F#3
2657,Left,1,58,80,968.5,0.489583,Eighth,A#3
2656,Right,0,70,80,968.5,0.989583,Quarter,A#4
2658,Left,1,54,80,969.0,0.489583,Eighth,F#3
2660,Right,0,68,80,969.5,0.489583,Eighth,G#4
2659,Left,1,49,80,969.5,0.489583,Eighth,C#3
2662,Left,1,42,80,970.0,0.489583,Eighth,F#2
2661,Right,0,71,80,970.0,0.989583,Quarter,B4
2663,Left,1,49,80,970.5,0.489583,Eighth,C#3
2664,Right,0,65,80,971.0,0.489583,Eighth,F4
2665,Left,1,53,80,971.0,0.489583,Eighth,F3
2667,Right,0,68,80,971.5,0.989583,Quarter,G#4
2666,Left,1,56,80,971.5,0.489583,Eighth,G#3
2668,Left,1,53,80,972.0,0.489583,Eighth,F3
2669,Right,0,65,80,972.5,0.489583,Eighth,F4
2670,Left,1,49,80,972.5,0.489583,Eighth,C#3
2672,Right,0,66,80,973.0,0.989583,Quarter,F#4
2671,Left,1,42,80,973.0,0.489583,Eighth,F#2
2673,Left,1,49,80,973.5,0.489583,Eighth,C#3
2675,Left,1,54,80,974.0,0.489583,Eighth,F#3
2674,Right,0,66,80,974.0,0.489583,Eighth,F#4
2677,Right,0,70,80,974.5,0.989583,Quarter,A#4
2676,Left,1,58,80,974.5,0.489583,Eighth,A#3
2678,Left,1,54,80,975.0,0.489583,Eighth,F#3
2680,Left,1,49,80,975.5,0.489583,Eighth,C#3
2679,Right,0,70,80,975.5,0.489583,Eighth,A#4
2681,Left,1,42,80,976.0,0.489583,Eighth,F#2
2682,Right,0,73,80,976.0,0.989583,Quarter,C#5
2683,Left,1,49,80,976.5,0.489583,Eighth,C#3
2685,Left,1,54,80,977.0,0.489583,Eighth,F#3
2684,Right,0,73,80,977.0,0.489583,Eighth,C#5
2686,Right,0,78,80,977.5,0.989583,Quarter,F#5
2687,Left,1,58,80,977.5,0.489583,Eighth,A#3
2688,Left,1,54,80,978.0,0.489583,Eighth,F#3
2689,Left,1,49,80,978.5,0.489583,Eighth,C#3
2690,Right,0,78,80,978.5,0.489583,Eighth,F#5
2691,Left,1,42,80,979.0,0.489583,Eighth,F#2
2692,Right,0,82,80,979.0,0.989583,Quarter,A#5
2693,Left,1,49,80,979.5,0.489583,Eighth,C#3
2695,Left,1,54,80,980.0,0.489583,Eighth,F#3
2694,Right,0,82,80,980.0,0.489583,Eighth,A#5
2697,Right,0,85,80,980.5,0.989583,Quarter,C#6
2696,Left,1,58,80,980.5,0.489583,Eighth,A#3
2698,Left,1,54,80,981.0,0.489583,Eighth,F#3
2700,Right,0,78,80,981.5,0.489583,Eighth,F#5
2699,Left,1,49,80,981.5,0.489583,Eighth,C#3
2701,Left,1,42,80,982.0,0.489583,Eighth,F#2
2702,Right,0,82,80,982.0,0.989583,Quarter,A#5
2703,Left,1,49,80,982.5,0.489583,Eighth,C#3
2704,Right,0,73,80,983.0,0.489583,Eighth,C#5
2705,Left,1,54,80,983.0,0.489583,Eighth,F#3
2707,Left,1,58,80,983.5,0.489583,Eighth,A#3
2706,Right,0,78,80,983.5,0.989583,Quarter,F#5
2708,Left,1,54,80,984.0,0.489583,Eighth,F#3
2709,Right,0,70,80,984.5,0.489583,Eighth,A#4
2710,Left,1,49,80,984.5,0.489583,Eighth,C#3
2711,Right,0,73,80,985.0,0.989583,Quarter,C#5
2712,Left,1,42,80,985.0,0.489583,Eighth,F#2
2713,Left,1,49,80,985.5,0.489583,Eighth,C#3
2714,Left,1,54,80,986.0,0.489583,Eighth,F#3
2715,Right,0,70,80,986.0,0.489583,Eighth,A#4
2716,Right,0,73,80,986.5,0.989583,Quarter,C#5
2717,Left,1,42,80,986.5,0.489583,Eighth,F#2
2718,Left,1,49,80,987.0,0.489583,Eighth,C#3
2720,Left,1,54,80,987.5,0.489583,Eighth,F#3
2719,Right,0,70,80,987.5,0.489583,Eighth,A#4
2722,Left,1,41,80,988.0,0.489583,Eighth,F2
2721,Right,0,74,80,988.0,0.989583,Quarter,D5
2723,Left,1,46,80,988.5,0.489583,Eighth,A#2
2725,Right,0,70,80,989.0,0.489583,Eighth,A#4
2724,Left,1,53,80,989.0,0.489583,Eighth,F3
2726,Right,0,74,80,989.5,0.989583,Quarter,D5
2727,Left,1,34,80,989.5,0.489583,Eighth,A#1
2728,Left,1,41,80,990.0,0.489583,Eighth,F2
2730,Right,0,74,80,990.5,0.489583,Eighth,D5
2729,Left,1,46,80,990.5,0.489583,Eighth,A#2
2731,Left,1,39,80,991.0,0.489583,Eighth,D#2
2732,Right,0,75,80,991.0,0.989583,Quarter,D#5
2733,Left,1,46,80,991.5,0.489583,Eighth,A#2
2735,Left,1,51,80,992.0,0.489583,Eighth,D#3
2734,Right,0,63,80,992.0,0.489583,Eighth,D#4
2737,Right,0,66,80,992.5,0.989583,Quarter,F#4
2736,Left,1,54,80,992.5,0.489583,Eighth,F#3
2738,Left,1,51,80,993.0,0.489583,Eighth,D#3
2739,Right,0,66,80,993.5,0.489583,Eighth,F#4
2740,Left,1,46,80,993.5,0.489583,Eighth,A#2
2742,Left,1,39,80,994.0,0.489583,Eighth,D#2
2741,Right,0,70,80,994.0,0.989583,Quarter,A#4
2743,Left,1,46,80,994.5,0.489583,Eighth,A#2
2745,Right,0,70,80,995.0,0.489583,Eighth,A#4
2744,Left,1,51,80,995.0,0.489583,Eighth,D#3
2746,Right,0,75,80,995.5,0.989583,Quarter,D#5
2747,Left,1,54,80,995.5,0.489583,Eighth,F#3
2748,Left,1,51,80,996.0,0.489583,Eighth,D#3
2750,Left,1,46,80,996.5,0.489583,Eighth,A#2
2749,Right,0,75,80,996.5,0.489583,Eighth,D#5
2751,Right,0,78,80,997.0,0.989583,Quarter,F#5
2752,Left,1,39,80,997.0,0.489583,Eighth,D#2
2753,Left,1,46,80,997.5,0.489583,Eighth,A#2
2755,Right,0,78,80,998.0,0.489583,Eighth,F#5
2754,Left,1,51,80,998.0,0.489583,Eighth,D#3
2757,Right,0,82,80,998.5,0.989583,Quarter,A#5
2756,Left,1,54,80,998.5,0.489583,Eighth,F#3
2758,Left,1,51,80,999.0,0.489583,Eighth,D#3
2760,Left,1,46,80,999.5,0.489583,Eighth,A#2
2759,Right,0,75,80,999.5,0.489583,Eighth,D#5
2761,Left,1,39,80,1000.0,0.489583,Eighth,D#2
2762,Right,0,78,80,1000.0,0.989583,Quarter,F#5
2763,Left,1,46,80,1000.5,0.489583,Eighth,A#2
2764,Right,0,70,80,1001.0,0.489583,Eighth,A#4
2765,Left,1,51,80,1001.0,0.489583,Eighth,D#3
2766,Right,0,75,80,1001.5,0.989583,Quarter,D#5
2767,Left,1,54,80,1001.5,0.489583,Eighth,F#3
2768,Left,1,51,80,1002.0,0.489583,Eighth,D#3
2770,Right,0,66,80,1002.5,0.489583,Eighth,F#4
2769,Left,1,46,80,1002.5,0.489583,Eighth,A#2
2772,Right,0,70,80,1003.0,0.989583,Quarter,A#4
2771,Left,1,39,80,1003.0,0.489583,Eighth,D#2
2773,Left,1,46,80,1003.5,0.489583,Eighth,A#2
2774,Left,1,51,80,1004.0,0.489583,Eighth,D#3
2775,Right,0,63,80,1004.0,0.489583,Eighth,D#4
2777,Right,0,66,80,1004.5,0.989583,Quarter,F#4
2776,Left,1,54,80,1004.5,0.489583,Eighth,F#3
2778,Left,1,51,80,1005.0,0.489583,Eighth,D#3
2779,Left,1,46,80,1005.5,0.489583,Eighth,A#2
2780,Right,0,65,80,1005.5,0.489583,Eighth,F4
2781,Left,1,34,80,1006.0,0.489583,Eighth,A#1
2782,Right,0,68,80,1006.0,0.989583,Quarter,G#4
2783,Left,1,46,80,1006.5,0.489583,Eighth,A#2
2784,Left,1,50,80,1007.0,0.489583,Eighth,D3
2785,Right,0,62,80,1007.0,0.489583,Eighth,D4
2786,Left,1,53,80,1007.5,0.489583,Eighth,F3
2787,Right,0,65,80,1007.5,0.989583,Quarter,F4
2788,Left,1,50,80,1008.0,0.489583,Eighth,D3
2789,Left,1,46,80,1008.5,0.489583,Eighth,A#2
2790,Right,0,62,80,1008.5,0.489583,Eighth,D4
2792,Right,0,63,80,1009.0,0.989583,Quarter,D#4
2791,Left,1,39,80,1009.0,0.489583,Eighth,D#2
2793,Left,1,46,80,1009.5,0.489583,Eighth,A#2
2795,Right,0,63,80,1010.0,0.489583,Eighth,D#4
2794,Left,1,51,80,1010.0,0.489583,Eighth,D#3
2797,Left,1,54,80,1010.5,0.489583,Eighth,F#3
2796,Right,0,66,80,1010.5,0.989583,Quarter,F#4
2798,Left,1,51,80,1011.0,0.489583,Eighth,D#3
2800,Right,0,66,80,1011.5,0.489583,Eighth,F#4
2799,Left,1,46,80,1011.5,0.489583,Eighth,A#2
2801,Right,0,70,80,1012.0,0.989583,Quarter,A#4
2802,Left,1,39,80,1012.0,0.489583,Eighth,D#2
2803,Left,1,46,80,1012.5,0.489583,Eighth,A#2
2804,Right,0,70,80,1013.0,0.489583,Eighth,A#4
2805,Left,1,51,80,1013.0,0.489583,Eighth,D#3
2807,Left,1,54,80,1013.5,0.489583,Eighth,F#3
2806,Right,0,75,80,1013.5,0.989583,Quarter,D#5
2808,Left,1,51,80,1014.0,0.489583,Eighth,D#3
2810,Right,0,75,80,1014.5,0.489583,Eighth,D#5
2809,Left,1,46,80,1014.5,0.489583,Eighth,A#2
2812,Right,0,78,80,1015.0,0.989583,Quarter,F#5
2811,Left,1,39,80,1015.0,0.489583,Eighth,D#2
2813,Left,1,46,80,1015.5,0.489583,Eighth,A#2
2814,Right,0,78,80,1016.0,0.489583,Eighth,F#5
2815,Left,1,51,80,1016.0,0.489583,Eighth,D#3
2817,Right,0,82,80,1016.5,0.989583,Quarter,A#5
2816,Left,1,54,80,1016.5,0.489583,Eighth,F#3
2818,Left,1,51,80,1017.0,0.489583,Eighth,D#3
2820,Left,1,46,80,1017.5,0.489583,Eighth,A#2
2819,Right,0,75,80,1017.5,0.489583,Eighth,D#5
2822,Left,1,39,80,1018.0,0.489583,Eighth,D#2
2821,Right,0,78,80,1018.0,0.989583,Quarter,F#5
2823,Left,1,46,80,1018.5,0.489583,Eighth,A#2
2824,Right,0,70,80,1019.0,0.489583,Eighth,A#4
2825,Left,1,51,80,1019.0,0.489583,Eighth,D#3
2827,Right,0,75,80,1019.5,0.989583,Quarter,D#5
2826,Left,1,54,80,1019.5,0.489583,Eighth,F#3
2828,Left,1,51,80,1020.0,0.489583,Eighth,D#3
2829,Left,1,46,80,1020.5,0.489583,Eighth,A#2
2830,Right,0,66,80,1020.5,0.489583,Eighth,F#4
2832,Right,0,70,80,1021.0,0.989583,Quarter,A#4
2831,Left,1,39,80,1021.0,0.489583,Eighth,D#2
2833,Left,1,46,80,1021.5,0.489583,Eighth,A#2
2835,Right,0,63,80,1022.0,0.489583,Eighth,D#4
2834,Left,1,51,80,1022.0,0.489583,Eighth,D#3
2837,Left,1,54,80,1022.5,0.489583,Eighth,F#3
2836,Right,0,66,80,1022.5,0.989583,Quarter,F#4
2838,Left,1,51,80,1023.0,0.489583,Eighth,D#3
2839,Right,0,58,80,1023.5,0.489583,Eighth,A#3
2840,Left,1,46,80,1023.5,0.489583,Eighth,A#2
2842,Left,1,51,80,1024.0,0.489583,Eighth,D#3
2841,Right,0,63,80,1024.0,0.989583,Quarter,D#4
2843,Left,1,46,80,1024.5,0.489583,Eighth,A#2
2844,Right,0,57,80,1025.0,0.489583,Eighth,A3
2845,Left,1,42,80,1025.0,0.489583,Eighth,F#2
2846,Right,0,60,80,1025.5,0.989583,Quarter,C4
2847,Left,1,46,80,1025.5,0.489583,Eighth,A#2
2848,Left,1,42,80,1026.0,0.489583,Eighth,F#2
2849,Right,0,57,80,1026.5,0.489583,Eighth,A3
2850,Left,1,39,80,1026.5,0.489583,Eighth,D#2
2851,Right,0,58,80,1027.0,0.489583,Eighth,A#3
2852,Left,1,34,80,1027.0,0.989583,Quarter,A#1
2853,Right,0,62,80,1027.5,0.489583,Eighth,D4
2854,Right,0,65,80,1028.0,0.489583,Eighth,F4
2855,Right,0,61,80,1028.5,0.489583,Eighth,C#4
2856,Right,0,62,80,1029.0,0.489583,Eighth,D4
2857,Right,0,65,80,1029.5,0.489583,Eighth,F4
2858,Left,1,46,80,1030.0,0.489583,Eighth,A#2
2859,Left,1,50,80,1030.5,0.489583,Eighth,D3
2860,Left,1,53,80,1031.0,0.489583,Eighth,F3
2861,Left,1,49,80,1031.5,0.489583,Eighth,C#3
2862,Left,1,50,80,1032.0,0.489583,Eighth,D3
2863,Left,1,53,80,1032.5,0.489583,Eighth,F3
2864,Right,0,58,80,1033.0,0.489583,Eighth,A#3
2865,Right,0,62,80,1033.5,0.489583,Eighth,D4
2866,Right,0,65,80,1034.0,0.489583,Eighth,F4
2867,Right,0,61,80,1034.5,0.489583,Eighth,C#4
2868,Right,0,62,80,1035.0,0.489583,Eighth,D4
2869,Right,0,65,80,1035.5,0.489583,Eighth,F4
2870,Left,1,46,80,1036.0,0.489583,Eighth,A#2
2871,Left,1,50,80,1036.5,0.489583,Eighth,D3
2872,Left,1,53,80,1037.0,0.489583,Eighth,F3
2873,Left,1,49,80,1037.5,0.489583,Eighth,C#3
2874,Left,1,50,80,1038.0,0.489583,Eighth,D3
2875,Left,1,53,80,1038.5,0.489583,Eighth,F3
2876,Right,0,58,80,1039.0,0.489583,Eighth,A#3
2877,Right,0,65,80,1039.5,0.489583,Eighth,F4
2878,Right,0,68,80,1040.0,0.489583,Eighth,G#4
2879,Right,0,64,80,1040.5,0.489583,Eighth,E4
2880,Right,0,65,80,1041.0,0.489583,Eighth,F4
2881,Right,0,68,80,1041.5,0.489583,Eighth,G#4
2882,Left,1,46,80,1042.0,0.489583,Eighth,A#2
2883,Left,1,53,80,1042.5,0.489583,Eighth,F3
2884,Left,1,56,80,1043.0,0.489583,Eighth,G#3
2885,Left,1,52,80,1043.5,0.489583,Eighth,E3
2886,Left,1,53,80,1044.0,0.489583,Eighth,F3
2887,Left,1,56,80,1044.5,0.489583,Eighth,G#3
2888,Right,0,58,80,1045.0,0.489583,Eighth,A#3
2889,Right,0,65,80,1045.5,0.489583,Eighth,F4
2890,Right,0,68,80,1046.0,0.489583,Eighth,G#4
2891,Right,0,64,80,1046.5,0.489583,Eighth,E4
2892,Right,0,65,80,1047.0,0.489583,Eighth,F4
2893,Right,0,68,80,1047.5,0.489583,Eighth,G#4
2894,Left,1,46,80,1048.0,0.489583,Eighth,A#2
2895,Left,1,53,80,1048.5,0.489583,Eighth,F3
2896,Left,1,56,80,1049.0,0.489583,Eighth,G#3
2897,Left,1,52,80,1049.5,0.489583,Eighth,E3
2898,Left,1,53,80,1050.0,0.489583,Eighth,F3
2899,Left,1,56,80,1050.5,0.489583,Eighth,G#3
2900,Right,0,58,80,1051.0,0.489583,Eighth,A#3
2901,Right,0,65,80,1051.5,0.489583,Eighth,F4
2902,Right,0,68,81,1052.0,0.489583,Eighth,G#4
2903,Left,1,46,82,1052.5,0.489583,Eighth,A#2
2904,Left,1,53,83,1053.0,0.489583,Eighth,F3
2905,Left,1,56,84,1053.5,0.489583,Eighth,G#3
2906,Right,0,58,85,1054.0,0.489583,Eighth,A#3
2907,Right,0,65,86,1054.5,0.489583,Eighth,F4
2908,Right,0,68,86,1055.0,0.489583,Eighth,G#4
2909,Left,1,46,87,1055.5,0.489583,Eighth,A#2
2910,Left,1,53,88,1056.0,0.489583,Eighth,F3
2911,Left,1,56,89,1056.5,0.489583,Eighth,G#3
2912,Right,0,58,90,1057.0,0.489583,Eighth,A#3
2913,Right,0,65,91,1057.5,0.489583,Eighth,F4
2914,Right,0,68,92,1058.0,0.489583,Eighth,G#4
2915,Left,1,46,93,1058.5,0.489583,Eighth,A#2
2916,Left,1,53,93,1059.0,0.489583,Eighth,F3
2917,Left,1,56,94,1059.5,0.489583,Eighth,G#3
2918,Right,0,58,95,1060.0,0.489583,Eighth,A#3
2919,Right,0,65,96,1060.5,0.489583,Eighth,F4
2920,Right,0,68,97,1061.0,0.489583,Eighth,G#4
2921,Left,1,46,98,1061.5,0.489583,Eighth,A#2
2922,Left,1,53,99,1062.0,0.489583,Eighth,F3
2923,Left,1,56,99,1062.5,0.489583,Eighth,G#3
2924,Right,0,58,90,1063.0,0.489583,Eighth,A#3
2925,Right,0,65,89,1063.5,0.489583,Eighth,F4
2926,Right,0,68,87,1064.0,0.489583,Eighth,G#4
2927,Right,0,58,85,1064.5,0.489583,Eighth,A#3
2928,Right,0,65,83,1065.0,0.489583,Eighth,F4
2929,Right,0,68,81,1065.5,0.489583,Eighth,G#4
2930,Right,0,58,80,1066.0,0.489583,Eighth,A#3
2931,Right,0,65,78,1066.5,0.489583,Eighth,F4
2932,Right,0,68,76,1067.0,0.489583,Eighth,G#4
2933,Right,0,58,74,1067.5,0.489583,Eighth,A#3
2934,Right,0,65,72,1068.0,0.489583,Eighth,F4
2935,Right,0,68,71,1068.5,0.489583,Eighth,G#4
2936,Right,0,58,70,1069.0,0.489583,Eighth,A#3
2937,Right,0,65,70,1069.5,0.489583,Eighth,F4
2938,Right,0,68,70,1070.0,0.489583,Eighth,G#4
2939,Right,0,58,70,1070.5,0.489583,Eighth,A#3
2940,Right,0,65,70,1071.0,0.489583,Eighth,F4
2941,Right,0,68,70,1071.5,0.489583,Eighth,G#4
2942,Right,0,58,70,1072.0,0.489583,Eighth,A#3
2943,Right,0,65,70,1072.5,0.489583,Eighth,F4
2944,Right,0,68,70,1073.0,0.489583,Eighth,G#4
2945,Right,0,58,70,1073.5,0.489583,Eighth,A#3
2946,Right,0,63,70,1074.0,0.489583,Eighth,D#4
2947,Right,0,67,70,1074.5,0.489583,Eighth,G4
2948,Right,0,58,70,1075.0,0.489583,Eighth,A#3
2949,Right,0,63,70,1075.5,0.489583,Eighth,D#4
2950,Right,0,68,70,1076.0,0.489583,Eighth,G#4
2951,Right,0,62,70,1076.5,0.489583,Eighth,D4
2952,Right,0,63,70,1077.0,0.489583,Eighth,D#4
2953,Right,0,67,70,1077.5,0.489583,Eighth,G4
2954,Right,0,58,70,1078.0,0.489583,Eighth,A#3
2955,Right,0,63,70,1078.5,0.489583,Eighth,D#4
2956,Right,0,67,70,1079.0,0.489583,Eighth,G4
2957,Right,0,62,70,1079.5,0.489583,Eighth,D4
2958,Right,0,63,70,1080.0,0.489583,Eighth,D#4
2960,Left,1,82,80,1080.5,0.489583,Eighth,A#5
2959,Right,0,67,70,1080.5,0.489583,Eighth,G4
2961,Right,0,58,70,1081.0,0.489583,Eighth,A#3
2962,Left,1,82,80,1081.0,0.989583,Quarter,A#5
2963,Right,0,65,70,1081.5,0.489583,Eighth,F4
2964,Right,0,68,70,1082.0,0.489583,Eighth,G#4
2965,Left,1,80,80,1082.0,0.489583,Eighth,G#5
2966,Left,1,77,80,1082.5,0.989583,Quarter,F5
2967,Right,0,64,70,1082.5,0.489583,Eighth,E4
2968,Right,0,65,70,1083.0,0.489583,Eighth,F4
2970,Left,1,74,80,1083.5,0.489583,Eighth,D5
2969,Right,0,68,70,1083.5,0.489583,Eighth,G#4
2972,Left,1,75,80,1084.0,0.989583,Quarter,D#5
2971,Right,0,58,70,1084.0,0.489583,Eighth,A#3
2973,Right,0,63,70,1084.5,0.489583,Eighth,D#4
2974,Right,0,67,70,1085.0,0.489583,Eighth,G4
2975,Right,0,62,70,1085.5,0.489583,Eighth,D4
2976,Right,0,63,70,1086.0,0.489583,Eighth,D#4
2977,Right,0,67,70,1086.5,0.489583,Eighth,G4
2978,Left,1,46,80,1086.5,0.489583,Eighth,A#2
2980,Right,0,62,70,1087.0,0.489583,Eighth,D4
2979,Left,1,46,80,1087.0,0.989583,Quarter,A#2
2981,Right,0,65,70,1087.5,0.489583,Eighth,F4
2982,Left,1,44,80,1088.0,0.489583,Eighth,G#2
2983,Right,0,68,70,1088.0,0.489583,Eighth,G#4
2985,Right,0,58,70,1088.5,0.489583,Eighth,A#3
2984,Left,1,41,80,1088.5,0.989583,Quarter,F2
2986,Right,0,65,70,1089.0,0.489583,Eighth,F4
2987,Right,0,68,70,1089.5,0.489583,Eighth,G#4
2988,Left,1,38,80,1089.5,0.489583,Eighth,D2
2990,Right,0,58,70,1090.0,0.489583,Eighth,A#3
2989,Left,1,39,80,1090.0,0.989583,Quarter,D#2
2991,Right,0,63,70,1090.5,0.489583,Eighth,D#4
2992,Right,0,67,70,1091.0,0.489583,Eighth,G4
2993,Right,0,62,70,1091.5,0.489583,Eighth,D4
3001,Right,0,67,70,1095.5,0.489583,Eighth,G4
3002,Right,0,58,70,1096.0,0.489583,Eighth,A#3
3003,Right,0,63,70,1096.5,0.489583,Eighth,D#4
3004,Right,0,67,70,1097.0,0.489583,Eighth,G4
3005,Right,0,62,70,1097.5,0.489583,Eighth,D4
3006,Right,0,63,70,1098.0,0.489583,Eighth,D#4
3008,Right,0,67,70,1098.5,0.489583,Eighth,G4
3007,Left,1,82,80,1098.5,0.489583,Eighth,A#5
3010,Right,0,58,70,1099.0,0.489583,Eighth,A#3
3009,Left,1,82,80,1099.0,0.989583,Quarter,A#5
3011,Right,0,65,70,1099.5,0.489583,Eighth,F4
3012,Left,1,80,80,1100.0,0.489583,Eighth,G#5
3013,Right,0,68,70,1100.0,0.489583,Eighth,G#4
3015,Right,0,64,70,1100.5,0.489583,Eighth,E4
3014,Left,1,77,80,1100.5,0.989583,Quarter,F5
3016,Right,0,65,70,1101.0,0.489583,Eighth,F4
3018,Right,0,68,70,1101.5,0.489583,Eighth,G#4
3017,Left,1,74,80,1101.5,0.489583,Eighth,D5
3019,Right,0,58,70,1102.0,0.489583,Eighth,A#3
3020,Left,1,75,80,1102.0,0.989583,Quarter,D#5
3021,Right,0,63,70,1102.5,0.489583,Eighth,D#4
3022,Right,0,67,70,1103.0,0.489583,Eighth,G4
3023,Right,0,62,70,1103.5,0.489583,Eighth,D4
3024,Right,0,63,70,1104.0,0.489583,Eighth,D#4
3026,Left,1,46,80,1104.5,0.489583,Eighth,A#2
3025,Right,0,67,70,1104.5,0.489583,Eighth,G4
3028,Left,1,46,80,1105.0,0.989583,Quarter,A#2
3027,Right,0,62,70,1105.0,0.489583,Eighth,D4
3029,Right,0,65,70,1105.5,0.489583,Eighth,F4
3031,Left,1,44,80,1106.0,0.489583,Eighth,G#2
3030,Right,0,68,70,1106.0,0.489583,Eighth,G#4
3032,Right,0,58,70,1106.5,0.489583,Eighth,A#3
3033,Left,1,41,80,1106.5,0.989583,Quarter,F2
3034,Right,0,65,70,1107.0,0.489583,Eighth,F4
3035,Left,1,38,80,1107.5,0.489583,Eighth,D2
3036,Right,0,68,70,1107.5,0.489583,Eighth,G#4
3038,Left,1,39,80,1108.0,0.989583,Quarter,D#2
3037,Right,0,58,70,1108.0,0.489583,Eighth,A#3
3039,Right,0,63,70,1108.5,0.489583,Eighth,D#4
3040,Right,0,67,70,1109.0,0.489583,Eighth,G4
3041,Right,0,62,70,1109.5,0.489583,Eighth,D4
3042,Right,0,63,70,1110.0,0.489583,Eighth,D#4
3044,Right,0,67,70,1110.5,0.489583,Eighth,G4
3043,Left,1,84,80,1110.5,0.489583,Eighth,C6
3046,Right,0,64,70,1111.0,0.489583,Eighth,E4
3045,Left,1,84,80,1111.0,0.989583,Quarter,C6
3047,Right,0,67,70,1111.5,0.489583,Eighth,G4
3048,Right,0,70,70,1112.0,0.489583,Eighth,A#4
3049,Left,1,82,80,1112.0,0.489583,Eighth,A#5
3051,Right,0,60,70,1112.5,0.489583,Eighth,C4
3050,Left,1,79,80,1112.5,0.989583,Quarter,G5
3052,Right,0,67,70,1113.0,0.489583,Eighth,G4
3053,Right,0,70,70,1113.5,0.489583,Eighth,A#4
3054,Left,1,76,80,1113.5,0.489583,Eighth,E5
3055,Right,0,60,70,1114.0,0.489583,Eighth,C4
3056,Left,1,77,80,1114.0,0.989583,Quarter,F5
3057,Right,0,65,70,1114.5,0.489583,Eighth,F4
3058,Right,0,68,70,1115.0,0.489583,Eighth,G#4
3059,Right,0,64,70,1115.5,0.489583,Eighth,E4
3060,Right,0,65,70,1116.0,0.489583,Eighth,F4
3062,Right,0,68,70,1116.5,0.489583,Eighth,G#4
3061,Left,1,48,80,1116.5,0.489583,Eighth,C3
3064,Right,0,64,70,1117.0,0.489583,Eighth,E4
3063,Left,1,48,80,1117.0,0.989583,Quarter,C3
3065,Right,0,67,70,1117.5,0.489583,Eighth,G4
3067,Left,1,46,80,1118.0,0.489583,Eighth,A#2
3066,Right,0,70,70,1118.0,0.489583,Eighth,A#4
3069,Left,1,43,80,1118.5,0.989583,Quarter,G2
3068,Right,0,60,70,1118.5,0.489583,Eighth,C4
3070,Right,0,67,70,1119.0,0.489583,Eighth,G4
3072,Left,1,40,80,1119.5,0.489583,Eighth,E2
3071,Right,0,70,70,1119.5,0.489583,Eighth,A#4
3074,Left,1,41,80,1120.0,0.989583,Quarter,F2
3073,Right,0,60,70,1120.0,0.489583,Eighth,C4
3075,Right,0,65,70,1120.5,0.489583,Eighth,F4
3076,Right,0,68,70,1121.0,0.489583,Eighth,G#4
3077,Right,0,67,70,1121.5,0.489583,Eighth,G4
3078,Right,0,68,70,1122.0,0.489583,Eighth,G#4
3079,Right,0,72,70,1122.5,0.489583,Eighth,C5
3080,Left,1,87,80,1122.5,0.489583,Eighth,D#6
3081,Left,1,87,80,1123.0,0.989583,Quarter,D#6
3082,Right,0,67,70,1123.0,0.489583,Eighth,G4
3083,Right,0,70,70,1123.5,0.489583,Eighth,A#4
3085,Right,0,73,70,1124.0,0.489583,Eighth,C#5
3084,Left,1,85,80,1124.0,0.489583,Eighth,C#6
3086,Right,0,63,70,1124.5,0.489583,Eighth,D#4
3087,Left,1,82,80,1124.5,0.989583,Quarter,A#5
3088,Right,0,70,70,1125.0,0.489583,Eighth,A#4
3089,Right,0,73,70,1125.5,0.489583,Eighth,C#5
3090,Left,1,79,80,1125.5,0.489583,Eighth,G5
3091,Right,0,63,70,1126.0,0.489583,Eighth,D#4
3092,Left,1,80,80,1126.0,0.989583,Quarter,G#5
3093,Right,0,68,70,1126.5,0.489583,Eighth,G#4
3094,Right,0,72,70,1127.0,0.489583,Eighth,C5
3095,Right,0,67,70,1127.5,0.489583,Eighth,G4
3096,Right,0,68,70,1128.0,0.489583,Eighth,G#4
3098,Right,0,72,70,1128.5,0.489583,Eighth,C5
3097,Left,1,51,80,1128.5,0.489583,Eighth,D#3
3099,Left,1,51,80,1129.0,0.989583,Quarter,D#3
3100,Right,0,67,70,1129.0,0.489583,Eighth,G4
3101,Right,0,70,70,1129.5,0.489583,Eighth,A#4
3102,Left,1,49,80,1130.0,0.489583,Eighth,C#3
3103,Right,0,73,70,1130.0,0.489583,Eighth,C#5
3105,Right,0,63,70,1130.5,0.489583,Eighth,D#4
3104,Left,1,46,80,1130.5,0.989583,Quarter,A#2
3106,Right,0,70,70,1131.0,0.489583,Eighth,A#4
3107,Left,1,43,80,1131.5,0.489583,Eighth,G2
3108,Right,0,73,70,1131.5,0.489583,Eighth,C#5
3110,Left,1,44,80,1132.0,0.989583,Quarter,G#2
3109,Right,0,63,70,1132.0,0.489583,Eighth,D#4
3111,Right,0,68,70,1132.5,0.489583,Eighth,G#4
3112,Right,0,72,70,1133.0,0.489583,Eighth,C5
3113,Right,0,67,70,1133.5,0.489583,Eighth,G4
3114,Right,0,68,70,1134.0,0.489583,Eighth,G#4
3116,Left,1,87,80,1134.5,0.489583,Eighth,D#6
3115,Right,0,72,70,1134.5,0.489583,Eighth,C5
3117,Right,0,67,70,1135.0,0.489583,Eighth,G4
3118,Left,1,87,80,1135.0,0.989583,Quarter,D#6
3119,Right,0,70,70,1135.5,0.489583,Eighth,A#4
3121,Right,0,73,71,1136.0,0.489583,Eighth,C#5
3120,Left,1,85,80,1136.0,0.489583,Eighth,C#6
3123,Right,0,63,72,1136.5,0.489583,Eighth,D#4
3122,Left,1,82,80,1136.5,0.989583,Quarter,A#5
3124,Right,0,70,73,1137.0,0.489583,Eighth,A#4
3126,Right,0,73,74,1137.5,0.489583,Eighth,C#5
3125,Left,1,79,80,1137.5,0.489583,Eighth,G5
3127,Right,0,67,75,1138.0,0.489583,Eighth,G4
3128,Left,1,51,80,1138.0,0.989583,Quarter,D#3
3129,Right,0,70,76,1138.5,0.489583,Eighth,A#4
3131,Left,1,49,80,1139.0,0.489583,Eighth,C#3
3130,Right,0,73,77,1139.0,0.489583,Eighth,C#5
3132,Left,1,46,80,1139.5,0.989583,Quarter,A#2
3133,Right,0,63,78,1139.5,0.489583,Eighth,D#4
3134,Right,0,70,79,1140.0,0.489583,Eighth,A#4
3136,Left,1,43,80,1140.5,0.489583,Eighth,G2
3135,Right,0,73,79,1140.5,0.489583,Eighth,C#5
3138,Right,0,67,80,1141.0,0.489583,Eighth,G4
3137,Left,1,51,80,1141.0,0.989583,Quarter,D#3
3139,Right,0,70,82,1141.5,0.489583,Eighth,A#4
3141,Left,1,49,85,1142.0,0.489583,Eighth,C#3
3140,Right,0,73,85,1142.0,0.489583,Eighth,C#5
3143,Right,0,63,88,1142.5,0.489583,Eighth,D#4
3142,Left,1,46,88,1142.5,0.989583,Quarter,A#2
3144,Right,0,70,90,1143.0,0.489583,Eighth,A#4
3146,Right,0,73,93,1143.5,0.489583,Eighth,C#5
3145,Left,1,43,93,1143.5,0.489583,Eighth,G2
3148,Right,0,67,96,1144.0,0.489583,Eighth,G4
3147,Left,1,51,96,1144.0,0.989583,Quarter,D#3
3149,Right,0,70,99,1144.5,0.489583,Eighth,A#4
3151,Left,1,49,101,1145.0,0.489583,Eighth,C#3
3150,Right,0,73,101,1145.0,0.489583,Eighth,C#5
3152,Right,0,63,104,1145.5,0.489583,Eighth,D#4
3153,Left,1,46,104,1145.5,0.989583,Quarter,A#2
3154,Right,0,70,107,1146.0,0.489583,Eighth,A#4
3155,Right,0,73,109,1146.5,0.489583,Eighth,C#5
3156,Left,1,43,109,1146.5,0.489583,Eighth,G2
3158,Right,0,63,110,1147.0,0.489583,Eighth,D#4
3157,Left,1,56,110,1147.0,0.489583,Eighth,G#3
3159,Right,0,68,110,1147.5,0.489583,Eighth,G#4
3160,Left,1,51,110,1147.5,0.489583,Eighth,D#3
3162,Left,1,48,110,1148.0,0.489583,Eighth,C3
3161,Right,0,72,110,1148.0,0.489583,Eighth,C5
3164,Right,0,67,110,1148.5,0.489583,Eighth,G4
3163,Left,1,51,110,1148.5,0.489583,Eighth,D#3
3165,Right,0,68,110,1149.0,0.489583,Eighth,G#4
3166,Left,1,48,110,1149.0,0.489583,Eighth,C3
3168,Right,0,72,110,1149.5,0.489583,Eighth,C5
3167,Left,1,44,110,1149.5,0.489583,Eighth,G#2
3169,Right,0,63,110,1150.0,0.489583,Eighth,D#4
3170,Left,1,56,110,1150.0,0.489583,Eighth,G#3
3171,Right,0,68,110,1150.5,0.489583,Eighth,G#4
3172,Left,1,51,110,1150.5,0.489583,Eighth,D#3
3174,Right,0,72,110,1151.0,0.489583,Eighth,C5
3173,Left,1,48,110,1151.0,0.489583,Eighth,C3
3176,Right,0,67,110,1151.5,0.489583,Eighth,G4
3175,Left,1,51,110,1151.5,0.489583,Eighth,D#3
3177,Right,0,68,110,1152.0,0.489583,Eighth,G#4
3178,Left,1,48,110,1152.0,0.489583,Eighth,C3
3179,Right,0,72,110,1152.5,0.489583,Eighth,C5
3180,Left,1,44,110,1152.5,0.489583,Eighth,G#2
3182,Left,1,56,110,1153.0,0.489583,Eighth,G#3
3181,Right,0,63,110,1153.0,0.489583,Eighth,D#4
3183,Left,1,51,110,1153.5,0.489583,Eighth,D#3
3184,Right,0,68,110,1153.5,0.489583,Eighth,G#4
3186,Left,1,48,110,1154.0,0.489583,Eighth,C3
3185,Right,0,72,110,1154.0,0.489583,Eighth,C5
3188,Right,0,67,110,1154.5,0.489583,Eighth,G4
3187,Left,1,51,110,1154.5,0.489583,Eighth,D#3
3189,Right,0,68,110,1155.0,0.489583,Eighth,G#4
3190,Left,1,48,110,1155.0,0.489583,Eighth,C3
3191,Left,1,44,110,1155.5,0.489583,Eighth,G#2
3192,Right,0,72,110,1155.5,0.489583,Eighth,C5
3194,Left,1,56,110,1156.0,0.489583,Eighth,G#3
3193,Right,0,63,110,1156.0,0.489583,Eighth,D#4
3196,Right,0,68,110,1156.5,0.489583,Eighth,G#4
3195,Left,1,51,110,1156.5,0.489583,Eighth,D#3
3198,Right,0,72,110,1157.0,0.489583,Eighth,C5
3197,Left,1,48,110,1157.0,0.489583,Eighth,C3
3200,Right,0,67,110,1157.5,0.489583,Eighth,G4
3199,Left,1,51,110,1157.5,0.489583,Eighth,D#3
3202,Right,0,68,110,1158.0,0.489583,Eighth,G#4
3201,Left,1,48,110,1158.0,0.489583,Eighth,C3
3204,Right,0,72,110,1158.5,0.489583,Eighth,C5
3203,Left,1,44,110,1158.5,0.489583,Eighth,G#2
3205,Left,1,45,120,1159.0,7.989583,Unknown,A2
3206,Left,1,48,120,1159.25,1.489583,DottedQuarter,C3
3207,Left,1,51,120,1159.5,1.489583,DottedQuarter,D#3
3208,Left,1,54,120,1159.75,1.489583,DottedQuarter,F#3
3209,Left,1,57,120,1160.0,1.489583,DottedQuarter,A3
3210,Right,0,63,120,1160.25,7.739583,Unknown,D#4
3211,Right,0,66,120,1160.5,7.489583,Unknown,F#4
3212,Right,0,69,120,1160.75,7.239583,Unknown,A4
3213,Right,0,72,120,1161.0,6.989583,Unknown,C5
3214,Right,0,75,120,1161.25,6.739583,Unknown,D#5
3215,Left,1,46,80,1167.5,0.489583,Eighth,A#2
3216,Left,1,46,80,1168.0,0.989583,Quarter,A#2
3217,Left,1,44,80,1169.0,0.489583,Eighth,G#2
3218,Left,1,41,80,1169.5,0.989583,Quarter,F2
3220,Left,1,38,80,1170.5,0.489583,Eighth,D2
3219,Right,0,82,80,1170.5,0.489583,Eighth,A#5
3221,Right,0,82,80,1171.0,0.989583,Quarter,A#5
3222,Left,1,39,80,1171.0,0.989583,Quarter,D#2
3223,Right,0,79,80,1172.0,0.489583,Eighth,G5
3224,Right,0,75,80,1172.5,0.989583,Quarter,D#5
3225,Right,0,70,80,1173.5,0.489583,Eighth,A#4
3229,Right,0,70,80,1174.0,0.989583,Quarter,A#4
3226,Left,1,46,80,1174.0,2.989583,DottedHalf,G#3_F3_A#2
3230,Right,0,68,80,1175.0,0.489583,Eighth,G#4
3231,Right,0,65,80,1175.5,0.989583,Quarter,F4
3232,Right,0,62,80,1176.5,0.489583,Eighth,D4
3233,Right,0,63,80,1177.0,0.989583,Quarter,D#4
3234,Left,1,55,80,1177.0,0.989583,Quarter,G3_D#3
3236,Right,0,56,110,1179.0,0.489583,Eighth,G#3
3237,Right,0,60,110,1179.5,0.489583,Eighth,C4
3238,Left,1,44,110,1180.0,0.489583,Eighth,G#2
3239,Right,0,51,110,1180.0,0.489583,Eighth,D#3
3240,Left,1,39,110,1180.5,0.489583,Eighth,D#2
3241,Right,0,56,110,1180.5,0.489583,Eighth,G#3
3242,Right,0,60,110,1181.0,0.489583,Eighth,C4
3243,Left,1,36,110,1181.0,0.489583,Eighth,C2
3244,Left,1,39,110,1181.5,0.489583,Eighth,D#2
3245,Right,0,55,110,1181.5,0.489583,Eighth,G3
3246,Left,1,36,110,1182.0,0.489583,Eighth,C2
3247,Right,0,56,110,1182.0,0.489583,Eighth,G#3
3248,Left,1,32,110,1182.5,0.489583,Eighth,G#1
3249,Right,0,60,110,1182.5,0.489583,Eighth,C4
3251,Right,0,51,110,1183.0,0.489583,Eighth,D#3
3250,Left,1,44,110,1183.0,0.489583,Eighth,G#2
3253,Right,0,56,110,1183.5,0.489583,Eighth,G#3
3252,Left,1,39,110,1183.5,0.489583,Eighth,D#2
3254,Right,0,60,110,1184.0,0.489583,Eighth,C4
3255,Left,1,36,110,1184.0,0.489583,Eighth,C2
3256,Left,1,39,110,1184.5,0.489583,Eighth,D#2
3257,Right,0,55,110,1184.5,0.489583,Eighth,G3
3258,Left,1,36,110,1185.0,0.489583,Eighth,C2
3259,Right,0,56,110,1185.0,0.489583,Eighth,G#3
3260,Left,1,32,110,1185.5,0.489583,Eighth,G#1
3261,Right,0,60,110,1185.5,0.489583,Eighth,C4
3263,Right,0,51,110,1186.0,0.489583,Eighth,D#3
3262,Left,1,44,110,1186.0,0.489583,Eighth,G#2
3264,Left,1,39,110,1186.5,0.489583,Eighth,D#2
3265,Right,0,56,110,1186.5,0.489583,Eighth,G#3
3267,Left,1,36,110,1187.0,0.489583,Eighth,C2
3266,Right,0,60,110,1187.0,0.489583,Eighth,C4
3268,Right,0,55,110,1187.5,0.489583,Eighth,G3
3269,Left,1,39,110,1187.5,0.489583,Eighth,D#2
3271,Left,1,36,110,1188.0,0.489583,Eighth,C2
3270,Right,0,56,110,1188.0,0.489583,Eighth,G#3
3273,Left,1,32,110,1188.5,0.489583,Eighth,G#1
3272,Right,0,60,110,1188.5,0.489583,Eighth,C4
3275,Left,1,44,110,1189.0,0.489583,Eighth,G#2
3274,Right,0,51,110,1189.0,0.489583,Eighth,D#3
3277,Right,0,56,110,1189.5,0.489583,Eighth,G#3
3276,Left,1,39,110,1189.5,0.489583,Eighth,D#2
3278,Left,1,36,110,1190.0,0.489583,Eighth,C2
3279,Right,0,60,110,1190.0,0.489583,Eighth,C4
3281,Right,0,55,110,1190.5,0.489583,Eighth,G3
3280,Left,1,39,110,1190.5,0.489583,Eighth,D#2
3283,Right,0,56,110,1191.0,0.489583,Eighth,G#3
3282,Left,1,36,110,1191.0,0.489583,Eighth,C2
3285,Right,0,60,110,1191.5,0.489583,Eighth,C4
3284,Left,1,32,110,1191.5,0.489583,Eighth,G#1
3286,Left,1,33,120,1192.0,7.989583,Unknown,A1
3287,Left,1,36,120,1192.25,1.239583,TiedQuarter-Sixteenth,C2
3288,Left,1,39,120,1192.5,1.239583,TiedQuarter-Sixteenth,D#2
3289,Left,1,42,120,1192.75,1.239583,TiedQuarter-Sixteenth,F#2
3290,Left,1,45,120,1193.0,1.239583,TiedQuarter-Sixteenth,A2
3291,Right,0,51,120,1193.25,6.739583,Unknown,D#3
3292,Right,0,54,120,1193.5,6.489583,Unknown,F#3
3293,Right,0,57,120,1193.75,6.239583,Unknown,A3
3294,Right,0,60,120,1194.0,5.989583,Unknown,C4
3295,Right,0,63,120,1194.25,5.739583,Unknown,D#4
3296,Right,0,82,80,1200.5,0.489583,Eighth,A#5
3297,Right,0,82,80,1201.0,0.489583,Eighth,A#5
3298,Right,0,80,80,1201.5,0.489583,Eighth,G#5
3299,Right,0,79,80,1202.0,0.489583,Eighth,G5
3300,Right,0,80,80,1202.5,0.489583,Eighth,G#5
3301,Right,0,77,80,1203.0,0.489583,Eighth,F5
3302,Left,1,46,80,1203.5,0.489583,Eighth,A#2
3303,Right,0,74,80,1203.5,0.489583,Eighth,D5
3304,Left,1,46,80,1204.0,0.989583,Quarter,A#2
3305,Right,0,75,80,1204.0,0.989583,Quarter,D#5
3306,Left,1,43,80,1205.0,0.489583,Eighth,G2
3307,Left,1,39,80,1205.5,0.989583,Quarter,D#2
3308,Right,0,70,80,1206.5,0.489583,Eighth,A#4
3309,Right,0,70,80,1207.0,0.489583,Eighth,A#4
3310,Left,1,46,80,1207.0,2.989583,DottedHalf,G#3_F3_A#2
3313,Right,0,68,80,1207.5,0.489583,Eighth,G#4
3314,Right,0,67,80,1208.0,0.489583,Eighth,G4
3315,Right,0,68,80,1208.5,0.489583,Eighth,G#4
3316,Right,0,65,80,1209.0,0.489583,Eighth,F4
3317,Right,0,62,80,1209.5,0.489583,Eighth,D4
3318,Right,0,63,80,1210.0,0.989583,Quarter,D#4
3319,Left,1,55,80,1210.0,0.989583,Quarter,G3_D#3
3321,Right,0,70,80,1212.5,0.489583,Eighth,A#4
3322,Left,1,58,80,1213.0,0.989583,Quarter,A#3
3323,Right,0,70,80,1213.0,0.989583,Quarter,A#4
3324,Right,0,68,82,1214.0,0.489583,Eighth,G#4
3325,Left,1,56,82,1214.0,0.489583,Eighth,G#3
3327,Left,1,53,83,1214.5,0.989583,Quarter,F3
3326,Right,0,65,83,1214.5,0.989583,Quarter,F4
3329,Right,0,62,84,1215.5,0.489583,Eighth,D4
3328,Left,1,50,84,1215.5,0.489583,Eighth,D3
3330,Left,1,59,85,1216.0,0.989583,Quarter,B3
3331,Right,0,71,85,1216.0,0.989583,Quarter,B4
3332,Left,1,56,87,1217.0,0.489583,Eighth,G#3
3333,Right,0,68,87,1217.0,0.489583,Eighth,G#4
3334,Left,1,53,88,1217.5,0.989583,Quarter,F3
3335,Right,0,65,88,1217.5,0.989583,Quarter,F4
3336,Left,1,50,89,1218.5,0.489583,Eighth,D3
3337,Right,0,62,89,1218.5,0.489583,Eighth,D4
3338,Left,1,60,90,1219.0,0.989583,Quarter,C4
3339,Right,0,72,90,1219.0,0.989583,Quarter,C5
3340,Left,1,56,92,1220.0,0.489583,Eighth,G#3
3341,Right,0,68,92,1220.0,0.489583,Eighth,G#4
3342,Left,1,53,93,1220.5,0.989583,Quarter,F3
3343,Right,0,65,93,1220.5,0.989583,Quarter,F4
3344,Left,1,50,94,1221.5,0.489583,Eighth,D3
3345,Right,0,62,94,1221.5,0.489583,Eighth,D4
3346,Right,0,71,95,1222.0,0.989583,Quarter,B4
3347,Left,1,59,95,1222.0,0.989583,Quarter,B3
3348,Right,0,68,97,1223.0,0.489583,Eighth,G#4
3349,Left,1,56,97,1223.0,0.489583,Eighth,G#3
3351,Right,0,65,98,1223.5,0.989583,Quarter,F4
3350,Left,1,53,98,1223.5,0.989583,Quarter,F3
3353,Right,0,62,99,1224.5,0.489583,Eighth,D4
3352,Left,1,50,99,1224.5,0.489583,Eighth,D3
3355,Right,0,70,100,1225.0,0.989583,Quarter,A#4
3354,Left,1,58,100,1225.0,0.989583,Quarter,A#3
3356,Right,0,68,102,1226.0,0.489583,Eighth,G#4
3357,Left,1,56,102,1226.0,0.489583,Eighth,G#3
3358,Right,0,65,103,1226.5,0.989583,Quarter,F4
3359,Left,1,53,103,1226.5,0.989583,Quarter,F3
3361,Right,0,62,104,1227.5,0.489583,Eighth,D4
3360,Left,1,50,104,1227.5,0.489583,Eighth,D3
3363,Right,0,63,105,1228.0,0.989583,Quarter,D#4
3362,Left,1,51,105,1228.0,0.989583,Quarter,D#3
3364,Right,0,58,107,1229.0,0.489583,Eighth,A#3
3365,Left,1,46,107,1229.0,0.489583,Eighth,A#2
3366,Left,1,43,108,1229.5,0.989583,Quarter,G2
3367,Right,0,55,108,1229.5,0.989583,Quarter,G3
3369,Right,0,51,109,1230.5,0.489583,Eighth,D#3
3368,Left,1,39,109,1230.5,0.489583,Eighth,D#2
3371,Right,0,58,110,1231.0,0.989583,Quarter,A#3
3370,Left,1,46,110,1231.0,0.989583,Quarter,A#2
3375,Left,1,34,110,1232.5,0.989583,Quarter,A#2_A#1
3372,Right,0,58,110,1232.5,0.989583,Quarter,G#3_F3_D4_A#3
3380,Left,1,51,110,1234.0,0.989583,Quarter,D#3_D#2
3378,Right,0,58,110,1234.0,0.989583,Quarter,G3_D#4_A#3
3383,Left,1,46,110,1235.5,1.489583,DottedQuarter,A#3_A#2
3384,Right,0,65,110,1235.5,1.489583,DottedQuarter,G#4_F4_D5_A#4
3389,Right,0,67,110,1237.0,1.489583,DottedQuarter,G4_D#5_A#4
3392,Left,1,51,110,1237.0,1.489583,DottedQuarter,D#4_D#3
3394,Left,1,58,120,1240.0,1.989583,Half,A#3_A#2
3395,Right,0,74,120,1240.0,1.989583,Half,G#5_F5_D6_D5
3403,Left,1,51,120,1243.0,2.989583,DottedHalf,D#3_D#2
3400,Right,0,75,120,1243.0,2.989583,DottedHalf,G5_D#6_D#5
3405,Right,0,75,1,1248.0,0.989583,Quarter,D#5
