,hand,channel,note,velocity,start_beat,duration,note_value,chord
1,Left,1,52,80,0.0,2.979167,Eighth,E3_C3
0,Right,0,72,80,0.0,0.479167,Sixteenth,C5
3,Right,0,74,80,0.25,0.479167,Sixteenth,D5
4,Right,0,72,80,0.5,0.479167,Sixteenth,C5
5,Right,0,74,80,0.75,0.479167,Sixteenth,D5
7,Right,0,72,80,1.0,0.479167,Sixteenth,C5
6,Left,1,55,80,1.0,0.979167,Eighth,G3
8,Right,0,74,80,1.25,0.479167,Sixteenth,D5
9,Right,0,72,80,1.5,0.479167,Sixteenth,C5
10,Right,0,74,80,1.75,0.479167,Sixteenth,D5
11,Right,0,72,80,2.0,0.479167,Sixteenth,C5
12,Left,1,60,80,2.0,0.979167,Eighth,C4
13,Right,0,74,80,2.25,0.479167,Sixteenth,D5
14,Right,0,72,80,2.5,0.479167,Sixteenth,C5
15,Right,0,74,80,2.75,0.479167,Sixteenth,D5
17,Left,1,52,80,3.0,0.979167,Eighth,E3
16,Right,0,72,80,3.0,0.479167,Sixteenth,C5
18,Right,0,74,80,3.25,0.479167,Sixteenth,D5
19,Right,0,72,80,3.5,0.479167,Sixteenth,C5
20,Right,0,74,80,3.75,0.479167,Sixteenth,D5
22,Left,1,55,80,4.0,0.979167,Eighth,G3
21,Right,0,72,80,4.0,0.479167,Sixteenth,C5
23,Right,0,74,80,4.25,0.479167,Sixteenth,D5
24,Right,0,72,80,4.5,0.479167,Sixteenth,C5
25,Right,0,74,80,4.75,0.479167,Sixteenth,D5
27,Left,1,60,80,5.0,0.979167,Eighth,C4
26,Right,0,72,80,5.0,0.479167,Sixteenth,C5
28,Right,0,74,80,5.25,0.479167,Sixteenth,D5
29,Right,0,71,80,5.5,0.479167,Sixteenth,B4
30,Right,0,72,80,5.75,0.229167,ThirtySecond,C5
32,Right,0,76,80,6.0,2.729167,TiedQuarter-Sixteenth,E5
31,Left,1,52,80,6.0,0.979167,Eighth,E3
33,Left,1,55,80,7.0,0.979167,Eighth,G3
34,Left,1,60,80,8.0,0.979167,Eighth,C4
35,Right,0,72,80,8.75,0.229167,ThirtySecond,C5
36,Left,1,48,80,9.0,2.979167,DottedQuarter,E3_C3
38,Right,0,67,80,9.0,4.979167,Half,G4
39,Left,1,55,80,10.0,0.979167,Eighth,G3
40,Left,1,60,80,11.0,0.979167,Eighth,C4
41,Left,1,52,80,12.0,0.979167,Eighth,E3
42,Left,1,55,80,13.0,0.979167,Eighth,G3
43,Left,1,60,80,14.0,0.979167,Eighth,C4
44,Right,0,66,80,14.0,0.479167,Sixteenth,F#4
45,Right,0,67,80,14.5,0.479167,Sixteenth,G4
47,Right,0,68,80,15.0,0.479167,Sixteenth,G#4
46,Left,1,52,80,15.0,0.979167,Eighth,E3
48,Right,0,69,80,15.5,0.479167,Sixteenth,A4
50,Right,0,70,80,16.0,0.479167,Sixteenth,A#4
49,Left,1,55,80,16.0,0.979167,Eighth,G3
51,Right,0,71,80,16.5,0.479167,Sixteenth,B4
52,Left,1,60,80,17.0,0.979167,Eighth,C4
53,Right,0,72,80,17.0,0.479167,Sixteenth,C5
54,Right,0,73,80,17.5,0.479167,Sixteenth,C#5
55,Right,0,74,80,18.0,0.479167,Sixteenth,D5
56,Left,1,47,80,18.0,2.979167,DottedQuarter,F3_B2
58,Right,0,76,80,18.25,0.479167,Sixteenth,E5
59,Right,0,74,80,18.5,0.479167,Sixteenth,D5
60,Right,0,76,80,18.75,0.479167,Sixteenth,E5
62,Right,0,74,80,19.0,0.479167,Sixteenth,D5
61,Left,1,55,80,19.0,0.979167,Eighth,G3
63,Right,0,76,80,19.25,0.479167,Sixteenth,E5
64,Right,0,74,80,19.5,0.479167,Sixteenth,D5
65,Right,0,76,80,19.75,0.479167,Sixteenth,E5
67,Right,0,74,80,20.0,0.479167,Sixteenth,D5
66,Left,1,62,80,20.0,0.979167,Eighth,D4
68,Right,0,76,80,20.25,0.479167,Sixteenth,E5
69,Right,0,74,80,20.5,0.479167,Sixteenth,D5
70,Right,0,76,80,20.75,0.479167,Sixteenth,E5
71,Right,0,74,80,21.0,0.479167,Sixteenth,D5
72,Left,1,53,80,21.0,0.979167,Eighth,F3
73,Right,0,76,80,21.25,0.479167,Sixteenth,E5
74,Right,0,74,80,21.5,0.479167,Sixteenth,D5
75,Right,0,76,80,21.75,0.479167,Sixteenth,E5
77,Right,0,74,80,22.0,0.479167,Sixteenth,D5
76,Left,1,55,80,22.0,0.979167,Eighth,G3
78,Right,0,76,80,22.25,0.479167,Sixteenth,E5
79,Right,0,74,80,22.5,0.479167,Sixteenth,D5
80,Right,0,76,80,22.75,0.479167,Sixteenth,E5
81,Right,0,74,80,23.0,0.479167,Sixteenth,D5
82,Left,1,62,80,23.0,0.979167,Eighth,D4
83,Right,0,76,80,23.25,0.479167,Sixteenth,E5
84,Right,0,73,80,23.5,0.479167,Sixteenth,C#5
85,Right,0,74,80,23.75,0.229167,ThirtySecond,D5
86,Right,0,77,80,24.0,2.729167,TiedQuarter-Sixteenth,F5
87,Left,1,53,80,24.0,0.979167,Eighth,F3
88,Left,1,55,80,25.0,0.979167,Eighth,G3
89,Left,1,62,80,26.0,0.979167,Eighth,D4
90,Right,0,74,80,26.75,0.229167,ThirtySecond,D5
93,Right,0,67,80,27.0,4.979167,Half,G4
91,Left,1,53,80,27.0,2.979167,Eighth,F3_B2
94,Left,1,55,80,28.0,0.979167,Eighth,G3
95,Left,1,62,80,29.0,0.979167,Eighth,D4
96,Left,1,53,80,30.0,0.979167,Eighth,F3
97,Left,1,55,80,31.0,0.979167,Eighth,G3
99,Left,1,62,80,32.0,0.979167,Eighth,D4
98,Right,0,67,80,32.0,0.479167,Sixteenth,G4
100,Right,0,69,80,32.5,0.479167,Sixteenth,A4
101,Right,0,70,80,33.0,0.479167,Sixteenth,A#4
102,Left,1,43,80,33.0,1.979167,Quarter,G2_F3
104,Right,0,71,80,33.5,0.479167,Sixteenth,B4
106,Right,0,72,80,34.0,0.479167,Sixteenth,C5
105,Left,1,55,80,34.0,0.979167,Eighth,G3
107,Right,0,73,80,34.5,0.479167,Sixteenth,C#5
109,Right,0,74,80,35.0,0.479167,Sixteenth,D5
108,Left,1,59,80,35.0,0.979167,Eighth,B3
110,Right,0,75,80,35.5,0.479167,Sixteenth,D#5
111,Left,1,52,80,36.0,0.979167,Eighth,E3_C3
113,Right,0,64,80,36.0,0.229167,ThirtySecond,E4
114,Right,0,76,80,36.239583,2.729167,TiedQuarter-Sixteenth,E5
115,Left,1,55,80,37.0,0.979167,Eighth,G3
116,Left,1,60,80,38.0,0.979167,Eighth,C4
118,Left,1,45,80,39.0,0.979167,Eighth,A2
117,Right,0,65,80,39.0,0.229167,ThirtySecond,F4
119,Right,0,77,80,39.239583,2.729167,TiedQuarter-Sixteenth,F5
120,Left,1,57,80,40.0,0.979167,Eighth,A3
121,Left,1,60,80,41.0,0.979167,Eighth,C4
123,Left,1,40,80,42.0,0.979167,Eighth,E2
122,Right,0,67,80,42.0,0.229167,ThirtySecond,G4
124,Right,0,79,80,42.239583,2.729167,TiedQuarter-Sixteenth,G5
125,Left,1,55,80,43.0,0.979167,Eighth,G3_E3
127,Left,1,60,80,44.0,0.979167,Eighth,G3_C4
130,Right,0,80,80,45.0,0.979167,Eighth,G#5
129,Left,1,41,80,45.0,0.979167,Eighth,F2
132,Left,1,53,80,46.0,0.979167,Eighth,F3_A3
131,Right,0,81,101,46.0,2.979167,DottedQuarter,A5
134,Left,1,60,80,47.0,0.979167,Eighth,C4_A3
136,Left,1,41,80,48.0,0.979167,Eighth,F2
139,Right,0,81,80,49.0,2.979167,DottedQuarter,A5
137,Left,1,57,80,49.0,0.979167,Eighth,F3_A3
140,Left,1,61,80,50.0,0.979167,Eighth,C#4_A3
142,Left,1,41,80,51.0,0.979167,Eighth,F2
144,Left,1,57,80,52.0,0.979167,Eighth,F3_A3
143,Right,0,79,80,52.0,0.208333,ThirtySecond,G5
146,Right,0,77,80,52.114583,0.364583,TripletSixteenth,F5
147,Right,0,76,80,52.5,0.479167,Sixteenth,E5
149,Left,1,62,80,53.0,0.979167,Eighth,D4_A3
148,Right,0,77,80,53.0,0.479167,Sixteenth,F5
151,Right,0,74,80,53.5,0.479167,Sixteenth,D5
152,Left,1,43,80,54.0,0.979167,Eighth,G2
153,Right,0,72,80,54.0,0.979167,Eighth,C5
154,Left,1,60,80,55.0,0.979167,Eighth,G3_C4
155,Right,0,74,80,55.0,0.104167,SixtyFourth,D5
157,Right,0,72,80,55.114583,0.604167,Triplet,C5
158,Right,0,71,80,55.75,0.229167,ThirtySecond,B4
160,Right,0,72,80,56.0,0.729167,DottedSixteenth,C5
159,Left,1,60,80,56.0,0.979167,Eighth,E4_C4
162,Right,0,76,80,56.75,0.229167,ThirtySecond,E5
164,Right,0,67,80,57.0,3.229167,DottedQuarter,G4
163,Left,1,43,80,57.0,0.979167,Eighth,G2
165,Left,1,60,80,58.0,0.979167,Eighth,G3_C4
167,Left,1,64,80,59.0,0.979167,Eighth,E4_C4
169,Left,1,43,80,60.0,0.979167,Eighth,G2
170,Right,0,69,80,60.25,0.229167,ThirtySecond,A4
171,Right,0,67,80,60.5,0.229167,ThirtySecond,G4
172,Right,0,66,80,60.75,0.229167,ThirtySecond,F#4
173,Right,0,67,80,61.0,0.145833,TripletThirtySecond,G4
174,Left,1,55,80,61.0,0.979167,Eighth,G3_D4
176,Right,0,69,80,61.166667,0.145833,TripletThirtySecond,A4
177,Right,0,71,80,61.333333,0.145833,TripletThirtySecond,B4
178,Right,0,72,80,61.5,0.145833,TripletThirtySecond,C5
179,Right,0,74,80,61.666667,0.145833,TripletThirtySecond,D5
180,Right,0,76,80,61.833333,0.145833,TripletThirtySecond,E5
183,Right,0,77,80,62.0,0.479167,Sixteenth,F5
181,Left,1,65,80,62.0,0.979167,Eighth,F4_D4
184,Right,0,71,80,62.75,0.229167,ThirtySecond,B4
187,Left,1,48,80,63.0,0.979167,Eighth,C3
185,Right,0,65,80,63.0,2.979167,DottedQuarter,F4_D5
188,Left,1,55,80,64.0,0.979167,Eighth,G3
189,Left,1,59,80,65.0,0.979167,Eighth,B3
190,Right,0,72,80,66.0,0.979167,Eighth,E4_C5
192,Left,1,60,80,66.0,0.979167,Eighth,C4_C3
195,Right,0,67,80,67.0,0.979167,Eighth,G4
194,Left,1,55,80,67.0,0.979167,Eighth,G3
196,Left,1,54,80,68.0,0.979167,Eighth,F#3
197,Right,0,66,80,68.0,0.979167,Eighth,F#4
198,Left,1,53,80,69.0,0.979167,Eighth,F3
199,Right,0,65,80,69.0,0.979167,Eighth,F4
201,Right,0,64,80,70.0,0.979167,Eighth,E4
200,Left,1,52,80,70.0,0.979167,Eighth,E3
202,Left,1,50,80,71.0,0.979167,Eighth,D3
203,Right,0,62,80,71.0,0.979167,Eighth,D4
205,Left,1,36,80,72.0,0.479167,Sixteenth,C2
204,Right,0,60,80,72.0,0.979167,Eighth,C4
206,Left,1,48,80,72.25,0.479167,Sixteenth,C3
207,Left,1,50,80,72.5,0.479167,Sixteenth,D3
208,Left,1,48,80,72.75,0.479167,Sixteenth,C3
209,Left,1,50,80,73.0,0.479167,Sixteenth,D3
210,Right,0,64,80,73.0,0.979167,Eighth,G3_E4_C4
213,Left,1,48,80,73.25,0.479167,Sixteenth,C3
214,Left,1,50,80,73.5,0.479167,Sixteenth,D3
215,Left,1,48,80,73.75,0.479167,Sixteenth,C3
216,Left,1,50,80,74.0,0.479167,Sixteenth,D3
217,Right,0,55,80,74.0,0.979167,Eighth,G3_E4_C4
220,Left,1,48,80,74.25,0.479167,Sixteenth,C3
221,Left,1,50,80,74.5,0.479167,Sixteenth,D3
222,Left,1,48,80,74.75,0.479167,Sixteenth,C3
223,Right,0,55,80,75.0,0.979167,Eighth,G3_E4_C4
225,Left,1,50,80,75.0,0.479167,Sixteenth,D3
227,Left,1,48,80,75.25,0.479167,Sixteenth,C3
228,Left,1,50,80,75.5,0.479167,Sixteenth,D3
229,Left,1,48,80,75.75,0.479167,Sixteenth,C3
231,Right,0,64,80,76.0,0.979167,Eighth,G3_E4_C4
230,Left,1,50,80,76.0,0.479167,Sixteenth,D3
234,Left,1,48,80,76.25,0.479167,Sixteenth,C3
235,Left,1,50,80,76.5,0.479167,Sixteenth,D3
236,Left,1,48,80,76.75,0.479167,Sixteenth,C3
237,Right,0,55,80,77.0,0.979167,Eighth,G3_E4_C4
239,Left,1,50,80,77.0,0.479167,Sixteenth,D3
241,Left,1,48,80,77.25,0.479167,Sixteenth,C3
242,Left,1,47,80,77.5,0.479167,Sixteenth,B2
243,Left,1,48,80,77.75,0.229167,ThirtySecond,C3
247,Left,1,52,80,78.0,2.729167,TiedQuarter-Sixteenth,E3
244,Right,0,64,80,78.0,0.979167,Eighth,G3_E4_C4
248,Right,0,55,80,79.0,0.979167,Eighth,G3_E4_C4
251,Right,0,64,80,80.0,0.979167,Eighth,G3_E4_C4
254,Left,1,48,80,80.75,0.229167,ThirtySecond,C3
255,Left,1,43,80,81.0,0.979167,Eighth,G2
256,Right,0,60,80,81.25,0.322917,TripletSixteenth,C4
257,Right,0,64,80,81.5,0.364583,TripletSixteenth,E4
258,Right,0,62,80,81.75,0.364583,TripletSixteenth,D4
259,Left,1,55,80,82.0,7.979167,Whole,G3
260,Right,0,65,80,82.0,0.333333,TripletSixteenth,F4
261,Right,0,64,80,82.25,0.34375,TripletSixteenth,E4
262,Right,0,67,80,82.5,0.385417,TripletSixteenth,G4
263,Right,0,65,80,82.75,0.385417,TripletSixteenth,F4
264,Left,1,60,80,83.0,0.979167,Eighth,E4_C4
266,Right,0,69,80,83.0,0.40625,TripletSixteenth,A4
267,Right,0,67,80,83.25,0.40625,TripletSixteenth,G4
268,Right,0,71,80,83.5,0.416667,Sixteenth,B4
269,Right,0,69,80,83.75,0.34375,TripletSixteenth,A4
272,Right,0,72,80,84.0,0.40625,TripletSixteenth,C5
270,Left,1,64,80,84.0,0.979167,Eighth,E4_C4
273,Right,0,71,80,84.25,0.385417,TripletSixteenth,B4
274,Right,0,74,80,84.5,0.354167,TripletSixteenth,D5
275,Right,0,72,80,84.75,0.333333,TripletSixteenth,C5
277,Left,1,60,80,85.0,0.979167,Eighth,E4_C4
276,Right,0,76,80,85.0,0.208333,ThirtySecond,E5
279,Right,0,74,80,85.166667,0.229167,ThirtySecond,D5
280,Right,0,77,80,85.333333,0.21875,ThirtySecond,F5
281,Right,0,76,80,85.5,0.21875,ThirtySecond,E5
282,Right,0,79,80,85.666667,0.208333,ThirtySecond,G5
283,Right,0,77,80,85.833333,0.229167,ThirtySecond,F5
284,Right,0,81,80,86.0,0.229167,ThirtySecond,A5
285,Left,1,64,80,86.0,0.979167,Eighth,E4_C4
287,Right,0,79,80,86.166667,0.21875,ThirtySecond,G5
288,Right,0,83,80,86.333333,0.21875,ThirtySecond,B5
289,Right,0,81,80,86.5,0.229167,ThirtySecond,A5
290,Right,0,84,80,86.666667,0.229167,ThirtySecond,C6
291,Right,0,83,80,86.833333,0.21875,ThirtySecond,B5
294,Right,0,86,80,87.0,0.21875,ThirtySecond,D6
292,Left,1,64,80,87.0,0.979167,Eighth,E4_C4
295,Right,0,84,80,87.166667,0.229167,ThirtySecond,C6
296,Right,0,88,80,87.333333,0.21875,ThirtySecond,E6
297,Right,0,86,80,87.5,0.229167,ThirtySecond,D6
298,Right,0,84,80,87.666667,0.239583,ThirtySecond,C6
299,Right,0,83,80,87.833333,0.21875,ThirtySecond,B5
301,Right,0,81,80,88.0,0.239583,ThirtySecond,A5
300,Left,1,64,80,88.0,0.979167,Eighth,E4_C4
303,Right,0,79,80,88.166667,0.229167,ThirtySecond,G5
304,Right,0,77,80,88.333333,0.239583,ThirtySecond,F5
305,Right,0,76,80,88.5,0.229167,ThirtySecond,E5
306,Right,0,74,80,88.666667,0.229167,ThirtySecond,D5
307,Right,0,72,80,88.833333,0.229167,ThirtySecond,C5
309,Left,1,64,80,89.0,0.979167,Eighth,E4_C4
308,Right,0,71,80,89.0,0.21875,ThirtySecond,B4
311,Right,0,69,80,89.145833,0.21875,ThirtySecond,A4
312,Right,0,67,80,89.302083,0.239583,ThirtySecond,G4
313,Right,0,65,80,89.447917,0.239583,ThirtySecond,F4
314,Right,0,64,80,89.604167,0.229167,ThirtySecond,E4
315,Right,0,62,80,89.770833,0.229167,ThirtySecond,D4
316,Right,0,60,80,89.84375,0.145833,TripletThirtySecond,C4
318,Left,1,43,80,90.0,0.479167,Sixteenth,G2
317,Right,0,59,80,90.0,0.979167,Eighth,B3
319,Left,1,50,80,90.25,0.479167,Sixteenth,D3
320,Left,1,52,80,90.5,0.479167,Sixteenth,E3
321,Left,1,50,80,90.75,0.479167,Sixteenth,D3
322,Right,0,65,80,91.0,0.979167,Eighth,G3_F4_B3
323,Left,1,52,80,91.0,0.479167,Sixteenth,E3
326,Left,1,50,80,91.25,0.479167,Sixteenth,D3
327,Left,1,52,80,91.5,0.479167,Sixteenth,E3
328,Left,1,50,80,91.75,0.479167,Sixteenth,D3
330,Right,0,59,80,92.0,0.979167,Eighth,G3_F4_B3
329,Left,1,52,80,92.0,0.479167,Sixteenth,E3
333,Left,1,50,80,92.25,0.479167,Sixteenth,D3
334,Left,1,52,80,92.5,0.479167,Sixteenth,E3
335,Left,1,50,80,92.75,0.479167,Sixteenth,D3
336,Left,1,52,80,93.0,0.479167,Sixteenth,E3
337,Right,0,65,80,93.0,0.979167,Eighth,G3_F4_B3
340,Left,1,50,80,93.25,0.479167,Sixteenth,D3
341,Left,1,52,80,93.5,0.479167,Sixteenth,E3
342,Left,1,50,80,93.75,0.479167,Sixteenth,D3
343,Right,0,59,80,94.0,0.979167,Eighth,G3_F4_B3
344,Left,1,52,80,94.0,0.479167,Sixteenth,E3
347,Left,1,50,80,94.25,0.479167,Sixteenth,D3
348,Left,1,52,80,94.5,0.479167,Sixteenth,E3
349,Left,1,50,80,94.75,0.479167,Sixteenth,D3
350,Right,0,65,80,95.0,0.979167,Eighth,G3_F4_B3
352,Left,1,52,80,95.0,0.479167,Sixteenth,E3
354,Left,1,50,80,95.25,0.479167,Sixteenth,D3
355,Left,1,49,80,95.5,0.479167,Sixteenth,C#3
356,Left,1,50,80,95.75,0.229167,ThirtySecond,D3
357,Right,0,65,80,96.0,0.979167,Eighth,G3_F4_B3
360,Left,1,53,80,96.0,2.729167,TiedQuarter-Sixteenth,F3
361,Right,0,65,80,97.0,0.979167,Eighth,G3_F4_B3
364,Right,0,55,80,98.0,0.979167,Eighth,G3_F4_B3
367,Left,1,50,80,98.75,0.229167,ThirtySecond,D3
368,Left,1,43,80,99.0,0.979167,Eighth,G2
369,Right,0,59,80,99.25,0.364583,TripletSixteenth,B3
370,Right,0,62,80,99.5,0.364583,TripletSixteenth,D4
371,Right,0,60,80,99.75,0.364583,TripletSixteenth,C4
373,Right,0,64,80,100.0,0.34375,TripletSixteenth,E4
372,Left,1,55,80,100.0,7.979167,Whole,G3
374,Right,0,62,80,100.25,0.354167,TripletSixteenth,D4
375,Right,0,65,80,100.5,0.354167,TripletSixteenth,F4
376,Right,0,64,80,100.75,0.333333,TripletSixteenth,E4
378,Left,1,62,80,101.0,0.979167,Eighth,D4
377,Right,0,67,80,101.0,0.34375,TripletSixteenth,G4
379,Right,0,65,80,101.25,0.375,TripletSixteenth,F4
380,Right,0,69,80,101.5,0.354167,TripletSixteenth,A4
381,Right,0,67,80,101.75,0.364583,TripletSixteenth,G4
384,Right,0,71,80,102.0,0.364583,TripletSixteenth,B4
382,Left,1,62,80,102.0,0.979167,Eighth,F4_D4
385,Right,0,69,80,102.25,0.375,TripletSixteenth,A4
386,Right,0,72,80,102.5,0.385417,TripletSixteenth,C5
387,Right,0,71,80,102.75,0.385417,TripletSixteenth,B4
388,Right,0,74,80,103.0,0.229167,ThirtySecond,D5
389,Left,1,62,80,103.0,0.979167,Eighth,F4_D4
391,Right,0,72,80,103.166667,0.239583,ThirtySecond,C5
392,Right,0,76,80,103.333333,0.28125,ThirtySecond,E5
393,Right,0,74,80,103.5,0.25,ThirtySecond,D5
394,Right,0,77,80,103.666667,0.239583,ThirtySecond,F5
395,Right,0,76,80,103.833333,0.25,ThirtySecond,E5
396,Right,0,79,80,104.0,0.260417,ThirtySecond,G5
397,Left,1,62,80,104.0,0.979167,Eighth,F4_D4
399,Right,0,77,80,104.166667,0.25,ThirtySecond,F5
400,Right,0,81,80,104.333333,0.229167,ThirtySecond,A5
401,Right,0,79,80,104.5,0.25,ThirtySecond,G5
402,Right,0,83,80,104.666667,0.229167,ThirtySecond,B5
403,Right,0,81,80,104.833333,0.25,ThirtySecond,A5
405,Right,0,84,80,105.0,0.239583,ThirtySecond,C6
404,Left,1,65,80,105.0,0.979167,Eighth,F4_D4
407,Right,0,83,80,105.166667,0.229167,ThirtySecond,B5
408,Right,0,86,80,105.333333,0.229167,ThirtySecond,D6
409,Right,0,84,80,105.5,0.239583,ThirtySecond,C6
410,Right,0,88,80,105.666667,0.229167,ThirtySecond,E6
411,Right,0,86,80,105.833333,0.229167,ThirtySecond,D6
413,Left,1,62,80,106.0,0.979167,Eighth,F4_D4
412,Right,0,89,80,106.0,0.166667,TripletThirtySecond,F6
415,Right,0,88,80,106.125,0.166667,TripletThirtySecond,E6
416,Right,0,86,80,106.25,0.166667,TripletThirtySecond,D6
417,Right,0,84,80,106.375,0.166667,TripletThirtySecond,C6
418,Right,0,83,80,106.5,0.15625,TripletThirtySecond,B5
419,Right,0,81,80,106.625,0.1875,TripletThirtySecond,A5
420,Right,0,79,80,106.75,0.166667,TripletThirtySecond,G5
421,Right,0,83,80,106.875,0.15625,TripletThirtySecond,B5
424,Right,0,86,80,107.0,0.15625,TripletThirtySecond,D6
422,Left,1,65,80,107.0,0.979167,Eighth,F4_D4
425,Right,0,84,80,107.125,0.145833,TripletThirtySecond,C6
426,Right,0,83,80,107.25,0.177083,TripletThirtySecond,B5
427,Right,0,81,80,107.375,0.177083,TripletThirtySecond,A5
428,Right,0,79,80,107.5,0.177083,TripletThirtySecond,G5
429,Right,0,77,80,107.625,0.166667,TripletThirtySecond,F5
430,Right,0,76,80,107.75,0.166667,TripletThirtySecond,E5
431,Right,0,74,80,107.875,0.104167,SixtyFourth,D5
432,Right,0,75,80,108.0,0.979167,Eighth,D#5
433,Left,1,48,80,108.0,0.979167,Eighth,C3
434,Right,0,76,80,109.0,1.979167,Quarter,E5
435,Left,1,55,80,109.0,0.979167,Eighth,G3_C4
437,Left,1,60,80,110.0,0.979167,Eighth,E4_C4
440,Right,0,72,80,111.0,0.229167,ThirtySecond,C5
439,Left,1,45,80,111.0,0.979167,Eighth,A2
441,Right,0,84,80,111.239583,2.979167,DottedQuarter,C6
442,Left,1,57,80,112.0,0.979167,Eighth,C4_A3
444,Left,1,64,80,113.0,0.979167,Eighth,E4_C4
446,Left,1,43,80,114.0,0.979167,Eighth,G2
447,Right,0,83,80,114.5,0.479167,Sixteenth,B5
448,Left,1,60,80,115.0,0.979167,Eighth,G3_C4
450,Right,0,81,80,115.0,0.479167,Sixteenth,A5
451,Right,0,79,80,115.5,0.479167,Sixteenth,G5
453,Left,1,64,80,116.0,0.979167,Eighth,E4_C4
452,Right,0,78,80,116.0,0.479167,Sixteenth,F#5
455,Right,0,76,80,116.5,0.479167,Sixteenth,E5
457,Left,1,42,80,117.0,0.979167,Eighth,F#2
456,Right,0,76,80,117.0,0.979167,Eighth,E5
458,Left,1,57,80,118.0,0.979167,Eighth,C4_A3
459,Right,0,74,80,118.0,2.479167,TiedQuarter-Sixteenth,D5
461,Left,1,60,80,119.0,0.979167,Eighth,D4_C4
463,Left,1,42,80,120.0,0.979167,Eighth,F#2
464,Right,0,73,80,120.5,0.479167,Sixteenth,C#5
466,Left,1,60,80,121.0,0.979167,Eighth,C4_A3
465,Right,0,74,80,121.0,0.479167,Sixteenth,D5
468,Right,0,73,80,121.5,0.479167,Sixteenth,C#5
469,Left,1,62,80,122.0,0.979167,Eighth,D4_C4
471,Right,0,74,80,122.0,0.479167,Sixteenth,D5
472,Right,0,73,80,122.5,0.479167,Sixteenth,C#5
473,Right,0,74,80,123.0,0.479167,Sixteenth,D5
474,Left,1,43,80,123.0,0.979167,Eighth,G2
475,Right,0,73,80,123.5,0.479167,Sixteenth,C#5
476,Right,0,74,80,124.0,0.479167,Sixteenth,D5
477,Left,1,55,80,124.0,0.979167,Eighth,G3_B3
479,Right,0,76,80,124.5,0.479167,Sixteenth,E5
480,Left,1,59,80,125.0,0.979167,Eighth,D4_B3
481,Right,0,78,80,125.0,0.479167,Sixteenth,F#5
483,Right,0,79,80,125.5,0.479167,Sixteenth,G5
485,Left,1,36,80,126.0,0.979167,Eighth,C2
484,Right,0,69,80,126.0,0.479167,Sixteenth,A4
486,Right,0,68,80,126.5,0.479167,Sixteenth,G#4
487,Left,1,48,80,127.0,0.979167,Eighth,E3_C3
488,Right,0,69,80,127.0,0.479167,Sixteenth,A4
490,Right,0,71,80,127.5,0.479167,Sixteenth,B4
491,Left,1,52,80,128.0,0.979167,Eighth,E3_A3
492,Right,0,72,80,128.0,0.3125,TripletSixteenth,C5
494,Right,0,74,80,128.333333,0.3125,TripletSixteenth,D5
495,Right,0,76,80,128.666667,0.3125,TripletSixteenth,E5
497,Right,0,76,80,129.0,0.979167,Eighth,E5
496,Left,1,38,80,129.0,0.979167,Eighth,D2
498,Right,0,62,80,130.0,2.479167,TiedQuarter-Sixteenth,D4
499,Left,1,55,80,130.0,0.979167,Eighth,G3_D3
501,Left,1,55,80,131.0,0.979167,Eighth,G3_B3
503,Left,1,38,80,132.0,0.979167,Eighth,D2
504,Right,0,64,80,132.5,0.229167,ThirtySecond,E4
505,Right,0,62,80,132.75,0.229167,ThirtySecond,D4
506,Right,0,61,80,133.0,0.479167,Sixteenth,C#4
507,Left,1,57,80,133.0,0.979167,Eighth,D3_A3
509,Right,0,62,80,133.5,0.479167,Sixteenth,D4
511,Right,0,64,80,134.0,0.479167,Sixteenth,E4
510,Left,1,60,80,134.0,0.979167,Eighth,C4_A3
513,Right,0,66,80,134.5,0.479167,Sixteenth,F#4
514,Left,1,43,80,135.0,0.979167,Eighth,G2
515,Right,0,66,80,135.0,0.229167,ThirtySecond,F#4
516,Right,0,69,80,135.239583,2.729167,TiedQuarter-Sixteenth,A4
517,Left,1,55,80,136.0,0.979167,Eighth,G3_C4
519,Left,1,60,80,137.0,0.979167,Eighth,D4_C4
521,Left,1,55,80,138.0,0.979167,Eighth,G3_B3
523,Right,0,67,80,138.0,0.979167,Eighth,G4
524,Right,0,67,80,139.0,0.979167,Eighth,G4
525,Right,0,67,80,140.0,0.979167,Eighth,G4
526,Right,0,67,80,141.0,0.979167,Eighth,G4
527,Right,0,66,80,142.0,0.979167,Eighth,F#4
528,Right,0,67,80,143.0,0.979167,Eighth,G4
529,Right,0,67,80,144.0,0.979167,Eighth,G4
530,Right,0,66,80,145.0,0.979167,Eighth,F#4
532,Right,0,67,80,146.0,0.979167,Eighth,G4
531,Left,1,63,80,146.0,0.979167,Eighth,D#4
533,Left,1,63,80,147.0,0.979167,Eighth,D#4
534,Right,0,67,80,147.0,0.979167,Eighth,G4
536,Left,1,62,80,148.0,0.979167,Eighth,D4
535,Right,0,66,80,148.0,0.979167,Eighth,F#4
538,Right,0,67,80,149.0,0.979167,Eighth,G4
537,Left,1,63,80,149.0,0.979167,Eighth,D#4
539,Right,0,67,80,150.0,0.979167,Eighth,G4
540,Left,1,63,80,150.0,0.979167,Eighth,D#4
542,Left,1,62,80,151.0,0.979167,Eighth,D4
541,Right,0,66,80,151.0,0.979167,Eighth,F#4
545,Left,1,63,80,152.0,0.979167,Eighth,D#4
543,Right,0,73,80,152.0,0.979167,Eighth,G4_C#5_A#4
549,Left,1,64,80,153.0,5.979167,Eighth,E4_A3
547,Right,0,73,80,153.0,3.979167,Half,G4_C#5_A#4
552,Left,1,63,80,154.0,0.979167,Eighth,D#4
553,Right,0,66,80,154.0,0.979167,Eighth,F#4
554,Right,0,67,80,155.0,0.979167,Eighth,G4
555,Left,1,64,80,155.0,0.979167,Eighth,E4
556,Left,1,64,80,156.0,0.979167,Eighth,E4
557,Right,0,67,80,156.0,0.979167,Eighth,G4
559,Right,0,66,80,157.0,0.979167,Eighth,F#4
558,Left,1,63,80,157.0,0.979167,Eighth,D#4
560,Left,1,64,80,158.0,0.979167,Eighth,E4
561,Right,0,67,80,158.0,0.979167,Eighth,G4_C#5_A#4
564,Right,0,67,80,159.0,0.979167,Eighth,G4_C#5_A#4
566,Left,1,64,80,159.0,2.979167,Eighth,E4_A3
569,Right,0,69,80,160.0,0.979167,Eighth,D5_A4
571,Left,1,65,80,160.0,0.979167,Eighth,F4
572,Right,0,69,80,161.0,0.979167,Eighth,E5_A4
574,Left,1,61,80,161.0,0.979167,Eighth,C#4
576,Right,0,69,80,162.0,3.979167,Half,E5_A4
575,Left,1,50,80,162.0,3.979167,Half,D3_C#4
579,Left,1,62,80,165.0,0.979167,Eighth,D4
580,Right,0,77,80,165.0,0.979167,Eighth,F5
581,Right,0,65,70,166.0,0.979167,Eighth,F4
582,Right,0,65,70,167.0,0.979167,Eighth,F4
583,Right,0,65,71,168.0,0.979167,Eighth,F4
584,Right,0,64,72,169.0,0.979167,Eighth,E4
585,Right,0,65,73,170.0,0.979167,Eighth,F4
586,Right,0,65,73,171.0,0.979167,Eighth,F4
587,Right,0,64,74,172.0,0.979167,Eighth,E4
589,Right,0,65,75,173.0,0.979167,Eighth,F4
588,Left,1,61,75,173.0,0.979167,Eighth,C#4
590,Left,1,61,76,174.0,0.979167,Eighth,C#4
591,Right,0,65,76,174.0,0.979167,Eighth,F4
592,Right,0,64,76,175.0,0.979167,Eighth,E4
593,Left,1,60,76,175.0,0.979167,Eighth,C4
595,Left,1,61,77,176.0,0.979167,Eighth,C#4
594,Right,0,65,77,176.0,0.979167,Eighth,F4
597,Left,1,61,78,177.0,0.979167,Eighth,C#4
596,Right,0,65,78,177.0,0.979167,Eighth,F4
598,Left,1,60,79,178.0,0.979167,Eighth,C4
599,Right,0,64,79,178.0,0.979167,Eighth,E4
601,Right,0,68,79,179.0,0.979167,Eighth,G#4_F4_B4
600,Left,1,61,79,179.0,0.979167,Eighth,C#4
604,Right,0,68,80,180.0,4.979167,Half,G#4_F4_B4
607,Left,1,55,80,180.0,5.979167,DottedHalf,G3_D4
610,Right,0,64,80,181.0,0.979167,Eighth,E4
609,Left,1,61,80,181.0,0.979167,Eighth,C#4
611,Right,0,65,80,182.0,0.979167,Eighth,F4
612,Left,1,62,80,182.0,0.979167,Eighth,D4
614,Right,0,65,80,183.0,0.979167,Eighth,F4
613,Left,1,62,80,183.0,0.979167,Eighth,D4
615,Left,1,61,80,184.0,0.979167,Eighth,C#4
616,Right,0,64,80,184.0,0.979167,Eighth,E4
617,Right,0,65,80,185.0,0.979167,Eighth,G#4_F4_B4
619,Left,1,62,80,185.0,0.979167,Eighth,D4
621,Right,0,65,80,186.0,0.979167,Eighth,G#4_F4_B4
623,Left,1,62,80,186.0,2.979167,Eighth,G3_D4
627,Right,0,72,80,187.0,0.979167,Eighth,G4_C5
626,Left,1,64,80,187.0,0.979167,Eighth,E4
630,Right,0,74,80,188.0,0.979167,Eighth,G4_D5
629,Left,1,59,80,188.0,0.979167,Eighth,B3
632,Left,1,60,80,189.0,2.979167,DottedQuarter,C4
633,Right,0,76,80,189.0,2.979167,DottedQuarter,G4_E5
635,Right,0,67,80,190.0,0.979167,Eighth,G4
636,Right,0,68,80,191.0,0.979167,Eighth,G#4
637,Left,1,53,80,192.0,2.979167,DottedQuarter,F3
638,Right,0,74,80,192.0,2.979167,DottedQuarter,D5
639,Right,0,68,80,193.0,0.979167,Eighth,G#4
640,Right,0,69,80,194.0,0.979167,Eighth,A4
641,Right,0,72,80,195.0,2.979167,DottedQuarter,C5
642,Left,1,54,80,195.0,2.979167,DottedQuarter,F#3
643,Right,0,69,80,196.0,0.979167,Eighth,A4
644,Right,0,62,80,197.0,0.979167,Eighth,D4
646,Right,0,71,80,198.0,1.979167,Quarter,D4_B4
645,Left,1,43,80,198.0,8.979167,Whole,G2
648,Left,1,55,80,199.0,0.979167,Eighth,G3
649,Left,1,55,80,200.0,0.979167,Eighth,G3
650,Left,1,55,80,201.0,0.979167,Eighth,G3
651,Right,0,67,80,201.0,1.979167,Quarter,G4
652,Right,0,69,80,202.0,0.979167,Eighth,A4
653,Left,1,55,80,202.0,0.979167,Eighth,G3
654,Left,1,55,80,203.0,0.979167,Eighth,G3
655,Right,0,65,80,203.0,0.979167,Eighth,F4_B4
659,Left,1,55,80,204.0,0.979167,Eighth,G3
657,Right,0,72,80,204.0,1.979167,Quarter,E4_C5
661,Left,1,55,80,205.0,0.979167,Eighth,G3
660,Right,0,62,80,205.0,0.979167,Eighth,D4
662,Left,1,55,80,206.0,0.979167,Eighth,G3
663,Right,0,60,80,206.0,0.979167,Eighth,F#4_C4
665,Left,1,43,80,207.0,8.979167,Whole,G2
666,Right,0,59,80,207.0,1.979167,Quarter,B3_A4
669,Left,1,55,80,208.0,0.979167,Eighth,G3
668,Right,0,67,80,208.0,0.979167,Eighth,G4
670,Left,1,55,80,209.0,0.979167,Eighth,G3
672,Left,1,55,80,210.0,0.979167,Eighth,G3
671,Right,0,67,80,210.0,1.979167,Quarter,G4_B4
674,Left,1,55,80,211.0,0.979167,Eighth,G3
675,Right,0,69,80,211.0,0.979167,Eighth,A4
676,Right,0,71,80,212.0,0.979167,ThirtySecond,F4_B4
678,Left,1,55,80,212.0,0.979167,Eighth,G3
679,Right,0,72,80,212.125,0.229167,ThirtySecond,C5
680,Right,0,71,80,212.25,0.229167,ThirtySecond,B4
681,Right,0,72,80,212.375,0.229167,ThirtySecond,C5
682,Right,0,71,80,212.5,0.229167,ThirtySecond,B4
683,Right,0,72,80,212.625,0.229167,ThirtySecond,C5
684,Right,0,69,80,212.75,0.229167,ThirtySecond,A4
685,Right,0,71,80,212.875,0.104167,SixtyFourth,B4
686,Right,0,74,80,213.0,0.979167,Eighth,E4_D5
688,Left,1,55,80,213.0,0.979167,Eighth,G3
689,Right,0,62,80,214.0,0.979167,Eighth,D4_C5
691,Left,1,55,80,214.0,0.979167,Eighth,G3
693,Left,1,55,80,215.0,0.979167,Eighth,G3
692,Right,0,60,80,215.0,0.979167,Eighth,F#4_C4
695,Left,1,43,80,216.0,2.979167,DottedQuarter,G2
696,Right,0,67,80,216.0,0.979167,Eighth,G4_B3
698,Left,1,55,80,217.0,2.979167,DottedQuarter,G3
699,Left,1,47,80,217.5,0.479167,Sixteenth,B2
700,Right,0,74,80,217.5,0.479167,Sixteenth,F4_D5
703,Right,0,64,80,218.0,0.479167,Sixteenth,E4_C5
702,Left,1,48,80,218.0,0.479167,Sixteenth,C3
707,Left,1,51,80,218.5,0.479167,Sixteenth,D#3
705,Right,0,60,80,218.5,0.479167,Sixteenth,F#4_C4
708,Left,1,43,80,219.0,2.979167,DottedQuarter,G2_D3
710,Right,0,67,80,219.0,0.979167,Eighth,G4_B3
712,Left,1,55,80,220.0,2.979167,DottedQuarter,G3
715,Left,1,47,80,220.5,0.479167,Sixteenth,B2
713,Right,0,65,80,220.5,0.479167,Sixteenth,F4_D5
718,Left,1,48,80,221.0,0.479167,Sixteenth,C3
716,Right,0,72,80,221.0,0.479167,Sixteenth,E4_C5
721,Left,1,45,80,221.5,0.479167,Sixteenth,A2
719,Right,0,66,80,221.5,0.479167,Sixteenth,F#4_C4
722,Right,0,67,80,222.0,0.979167,Eighth,G4_B3
724,Left,1,43,80,222.0,2.979167,DottedQuarter,G2
725,Left,1,55,80,223.0,1.979167,Quarter,G3
726,Right,0,65,80,223.5,0.479167,Sixteenth,F4_D5
727,Left,1,47,80,223.5,0.479167,Sixteenth,B2
729,Right,0,64,80,224.0,0.479167,Sixteenth,E4_C5
731,Left,1,48,80,224.0,0.479167,Sixteenth,C3
732,Right,0,60,80,224.5,0.479167,Sixteenth,F#4_C4
733,Left,1,51,80,224.5,0.479167,Sixteenth,D#3
735,Right,0,59,80,225.0,2.979167,DottedQuarter,G4_B3
736,Left,1,50,80,225.0,2.979167,DottedQuarter,G3_G2_D3
740,Right,0,69,80,225.25,0.479167,Sixteenth,A4
741,Right,0,67,80,225.5,0.479167,Sixteenth,G4
742,Right,0,69,80,225.75,0.479167,Sixteenth,A4
743,Right,0,67,80,226.0,0.479167,Sixteenth,G4
744,Right,0,69,80,226.25,0.479167,Sixteenth,A4
745,Right,0,67,80,226.5,0.479167,Sixteenth,G4
746,Right,0,69,80,226.75,0.479167,Sixteenth,A4
747,Right,0,67,80,227.0,0.479167,Sixteenth,G4
748,Right,0,69,80,227.25,0.479167,Sixteenth,A4
749,Right,0,67,80,227.5,0.479167,Sixteenth,G4
750,Right,0,69,80,227.75,0.479167,Sixteenth,A4
751,Right,0,67,80,228.0,0.479167,Sixteenth,G4
752,Right,0,69,80,228.25,0.479167,Sixteenth,A4
753,Right,0,67,80,228.5,0.479167,Sixteenth,G4
754,Right,0,69,80,228.75,0.479167,Sixteenth,A4
755,Right,0,67,80,229.0,0.479167,Sixteenth,G4
756,Right,0,69,80,229.25,0.479167,Sixteenth,A4
757,Right,0,67,80,229.5,0.479167,Sixteenth,G4
758,Right,0,69,80,229.75,0.479167,Sixteenth,A4
759,Right,0,67,80,230.0,0.479167,Sixteenth,G4
760,Right,0,69,80,230.25,0.479167,Sixteenth,A4
761,Right,0,67,80,230.5,0.479167,Sixteenth,G4
762,Right,0,69,80,230.75,0.479167,Sixteenth,A4
763,Right,0,67,80,231.125,0.229167,ThirtySecond,G4
764,Right,0,66,80,231.25,0.229167,ThirtySecond,F#4
765,Right,0,67,80,231.375,0.229167,ThirtySecond,G4
766,Right,0,62,80,231.5,0.229167,ThirtySecond,D4
767,Right,0,64,80,231.625,0.229167,ThirtySecond,E4
768,Right,0,66,80,231.75,0.229167,ThirtySecond,F#4
769,Right,0,67,80,231.875,0.229167,ThirtySecond,G4
770,Right,0,69,80,232.0,0.229167,ThirtySecond,A4
771,Right,0,71,80,232.125,0.229167,ThirtySecond,B4
772,Right,0,69,80,232.25,0.229167,ThirtySecond,A4
773,Right,0,67,80,232.375,0.229167,ThirtySecond,G4
774,Right,0,69,80,232.5,0.229167,ThirtySecond,A4
775,Right,0,71,80,232.625,0.229167,ThirtySecond,B4
776,Right,0,72,80,232.75,0.229167,ThirtySecond,C5
777,Right,0,74,80,232.875,0.229167,ThirtySecond,D5
778,Right,0,72,80,233.0,0.229167,ThirtySecond,C5
779,Right,0,71,80,233.125,0.229167,ThirtySecond,B4
780,Right,0,72,80,233.25,0.229167,ThirtySecond,C5
781,Right,0,74,80,233.375,0.229167,ThirtySecond,D5
782,Right,0,76,80,233.5,0.229167,ThirtySecond,E5
783,Right,0,78,80,233.625,0.229167,ThirtySecond,F#5
784,Right,0,79,80,233.75,0.229167,ThirtySecond,G5
785,Right,0,78,80,233.875,0.229167,ThirtySecond,F#5
786,Right,0,74,80,234.125,0.479167,Sixteenth,D5
787,Right,0,76,80,234.25,0.229167,ThirtySecond,E5
788,Right,0,77,80,234.375,0.479167,Sixteenth,F5
789,Right,0,79,80,234.5,0.479167,Sixteenth,G5
790,Right,0,83,80,234.75,0.479167,Sixteenth,B5
791,Right,0,81,80,234.875,0.229167,ThirtySecond,A5
792,Right,0,79,80,235.0,0.479167,Sixteenth,G5
793,Right,0,81,80,235.125,0.229167,ThirtySecond,A5
794,Right,0,83,80,235.25,0.479167,Sixteenth,B5
795,Right,0,84,80,235.375,0.479167,Sixteenth,C6
796,Right,0,86,80,235.5,0.479167,Sixteenth,D6
797,Right,0,89,80,235.75,0.479167,Sixteenth,F6
798,Right,0,88,80,235.875,0.229167,ThirtySecond,E6
799,Right,0,85,80,236.125,0.479167,Sixteenth,C#6
800,Right,0,88,80,236.25,0.104167,SixtyFourth,E6
801,Right,0,86,80,236.375,0.104167,SixtyFourth,D6
802,Right,0,81,80,236.75,0.479167,Sixteenth,A5
803,Right,0,84,80,236.875,0.104167,SixtyFourth,C6
804,Right,0,83,80,237.0,0.104167,SixtyFourth,B5
805,Right,0,86,80,237.125,0.479167,Sixteenth,D6
806,Right,0,84,80,237.25,0.104167,SixtyFourth,C6
807,Right,0,83,80,237.375,0.104167,SixtyFourth,B5
808,Right,0,81,80,237.5,0.479167,Sixteenth,A5
809,Right,0,79,80,237.625,0.479167,Sixteenth,G5
810,Right,0,80,80,237.75,0.479167,Sixteenth,G#5
811,Right,0,83,80,238.0,0.8125,DottedSixteenth,B5
812,Right,0,81,80,238.5,0.802083,DottedSixteenth,A5
813,Right,0,79,80,239.0,0.75,DottedSixteenth,G5
814,Right,0,77,80,239.5,0.75,Sixteenth,F5
815,Right,0,76,80,240.0,0.739583,DottedSixteenth,E5
816,Right,0,74,80,240.5,0.479167,Sixteenth,D5
818,Right,0,72,80,241.0,0.479167,Sixteenth,C5
817,Left,1,52,80,241.0,2.979167,Eighth,E3_C3
820,Right,0,74,80,241.25,0.479167,Sixteenth,D5
821,Right,0,72,80,241.5,0.479167,Sixteenth,C5
822,Right,0,74,80,241.75,0.479167,Sixteenth,D5
824,Left,1,55,80,242.0,0.979167,Eighth,G3
823,Right,0,72,80,242.0,0.479167,Sixteenth,C5
825,Right,0,74,80,242.25,0.479167,Sixteenth,D5
826,Right,0,72,80,242.5,0.479167,Sixteenth,C5
827,Right,0,74,80,242.75,0.479167,Sixteenth,D5
828,Left,1,60,80,243.0,0.979167,Eighth,C4
829,Right,0,72,80,243.0,0.479167,Sixteenth,C5
830,Right,0,74,80,243.25,0.479167,Sixteenth,D5
831,Right,0,72,80,243.5,0.479167,Sixteenth,C5
832,Right,0,74,80,243.75,0.479167,Sixteenth,D5
834,Right,0,72,80,244.0,0.479167,Sixteenth,C5
833,Left,1,52,80,244.0,0.979167,Eighth,E3
835,Right,0,74,80,244.25,0.479167,Sixteenth,D5
836,Right,0,72,80,244.5,0.479167,Sixteenth,C5
837,Right,0,74,80,244.75,0.479167,Sixteenth,D5
839,Right,0,72,80,245.0,0.479167,Sixteenth,C5
838,Left,1,55,80,245.0,0.979167,Eighth,G3
840,Right,0,74,80,245.25,0.479167,Sixteenth,D5
841,Right,0,72,80,245.5,0.479167,Sixteenth,C5
842,Right,0,74,80,245.75,0.479167,Sixteenth,D5
844,Right,0,72,80,246.0,0.479167,Sixteenth,C5
843,Left,1,60,80,246.0,0.979167,Eighth,C4
845,Right,0,74,80,246.25,0.479167,Sixteenth,D5
846,Right,0,71,80,246.5,0.479167,Sixteenth,B4
847,Right,0,72,80,246.75,0.229167,ThirtySecond,C5
849,Left,1,52,80,247.0,0.979167,Eighth,E3
848,Right,0,76,80,247.0,2.729167,TiedQuarter-Sixteenth,E5
850,Left,1,55,80,248.0,0.979167,Eighth,G3
851,Left,1,60,80,249.0,0.979167,Eighth,C4
852,Right,0,72,80,249.75,0.229167,ThirtySecond,C5
853,Right,0,67,80,250.0,4.979167,Half,G4
854,Left,1,52,80,250.0,2.979167,Eighth,E3_C3
856,Left,1,55,80,251.0,0.979167,Eighth,G3
857,Left,1,60,80,252.0,0.979167,Eighth,C4
858,Left,1,52,80,253.0,0.979167,Eighth,E3
859,Left,1,55,80,254.0,0.979167,Eighth,G3
861,Right,0,66,80,255.0,0.479167,Sixteenth,F#4
860,Left,1,60,80,255.0,0.979167,Eighth,C4
862,Right,0,67,80,255.5,0.479167,Sixteenth,G4
863,Left,1,52,80,256.0,0.979167,Eighth,E3
864,Right,0,68,80,256.0,0.479167,Sixteenth,G#4
865,Right,0,69,80,256.5,0.479167,Sixteenth,A4
866,Left,1,55,80,257.0,0.979167,Eighth,G3
867,Right,0,70,80,257.0,0.479167,Sixteenth,A#4
868,Right,0,71,80,257.5,0.479167,Sixteenth,B4
870,Left,1,60,80,258.0,0.979167,Eighth,C4
869,Right,0,72,80,258.0,0.479167,Sixteenth,C5
871,Right,0,73,80,258.5,0.479167,Sixteenth,C#5
873,Left,1,53,80,259.0,2.979167,Eighth,F3_B2
872,Right,0,74,80,259.0,0.479167,Sixteenth,D5
875,Right,0,76,80,259.25,0.479167,Sixteenth,E5
876,Right,0,74,80,259.5,0.479167,Sixteenth,D5
877,Right,0,76,80,259.75,0.479167,Sixteenth,E5
879,Left,1,55,80,260.0,0.979167,Eighth,G3
878,Right,0,74,80,260.0,0.479167,Sixteenth,D5
880,Right,0,76,80,260.25,0.479167,Sixteenth,E5
881,Right,0,74,80,260.5,0.479167,Sixteenth,D5
882,Right,0,76,80,260.75,0.479167,Sixteenth,E5
883,Right,0,74,80,261.0,0.479167,Sixteenth,D5
884,Left,1,62,80,261.0,0.979167,Eighth,D4
885,Right,0,76,80,261.25,0.479167,Sixteenth,E5
886,Right,0,74,80,261.5,0.479167,Sixteenth,D5
887,Right,0,76,80,261.75,0.479167,Sixteenth,E5
889,Left,1,53,80,262.0,0.979167,Eighth,F3
888,Right,0,74,80,262.0,0.479167,Sixteenth,D5
890,Right,0,76,80,262.25,0.479167,Sixteenth,E5
891,Right,0,74,80,262.5,0.479167,Sixteenth,D5
892,Right,0,76,80,262.75,0.479167,Sixteenth,E5
894,Left,1,55,80,263.0,0.979167,Eighth,G3
893,Right,0,74,80,263.0,0.479167,Sixteenth,D5
895,Right,0,76,80,263.25,0.479167,Sixteenth,E5
896,Right,0,74,80,263.5,0.479167,Sixteenth,D5
897,Right,0,76,80,263.75,0.479167,Sixteenth,E5
899,Left,1,62,80,264.0,0.979167,Eighth,D4
898,Right,0,74,80,264.0,0.479167,Sixteenth,D5
900,Right,0,76,80,264.25,0.479167,Sixteenth,E5
901,Right,0,73,80,264.5,0.479167,Sixteenth,C#5
902,Right,0,74,80,264.75,0.229167,ThirtySecond,D5
904,Left,1,53,80,265.0,0.979167,Eighth,F3
903,Right,0,79,80,265.0,2.354167,TiedQuarter-ThirtySecond,G5
905,Left,1,55,80,266.0,0.979167,Eighth,G3
906,Left,1,62,80,267.0,0.979167,Eighth,D4
907,Right,0,77,80,267.375,0.197917,TripletThirtySecond,F5
908,Right,0,76,80,267.5,0.208333,ThirtySecond,E5
909,Right,0,74,80,267.625,0.197917,TripletThirtySecond,D5
910,Right,0,72,80,267.75,0.208333,ThirtySecond,C5
911,Right,0,71,80,267.875,0.104167,SixtyFourth,B4
913,Left,1,53,80,268.0,2.979167,Eighth,F3_B2
912,Right,0,69,80,268.0,0.979167,Eighth,A4
915,Right,0,67,80,269.0,3.979167,Half,G4
916,Left,1,55,80,269.0,0.979167,Eighth,G3
917,Left,1,62,80,270.0,0.979167,Eighth,D4
918,Left,1,53,80,271.0,0.979167,Eighth,F3
919,Left,1,55,80,272.0,0.979167,Eighth,G3
921,Right,0,67,80,273.0,0.479167,Sixteenth,G4
920,Left,1,62,80,273.0,0.979167,Eighth,D4
922,Right,0,69,80,273.5,0.479167,Sixteenth,A4
924,Right,0,70,80,274.0,0.479167,Sixteenth,A#4
923,Left,1,43,80,274.0,2.979167,DottedQuarter,G2_F3
926,Right,0,71,80,274.5,0.479167,Sixteenth,B4
927,Left,1,55,80,275.0,0.979167,Eighth,G3
928,Right,0,72,80,275.0,0.479167,Sixteenth,C5
929,Right,0,73,80,275.5,0.479167,Sixteenth,C#5
931,Right,0,74,80,276.0,0.479167,Sixteenth,D5
930,Left,1,59,80,276.0,0.979167,Eighth,B3
932,Right,0,75,80,276.5,0.479167,Sixteenth,D#5
933,Left,1,48,80,277.0,0.979167,Eighth,E3_C3
935,Right,0,77,80,277.197917,0.416667,Sixteenth,F5
936,Right,0,76,80,277.395833,0.020833,Unknown,E5
937,Right,0,75,80,277.59375,0.416667,Sixteenth,D#5
939,Right,0,84,80,278.0,0.979167,Eighth,C6
940,Left,1,55,80,278.0,0.979167,Eighth,G3
941,Left,1,60,80,279.0,0.979167,Eighth,C4
942,Left,1,45,80,280.0,0.979167,Eighth,A2
943,Right,0,79,80,280.197917,0.416667,Sixteenth,G5
944,Right,0,77,80,280.395833,0.020833,Unknown,F5
945,Right,0,76,80,280.59375,0.416667,Sixteenth,E5
946,Right,0,79,80,280.791667,0.479167,Sixteenth,G5
948,Right,0,84,80,281.0,0.979167,Eighth,C6
947,Left,1,57,80,281.0,0.979167,Eighth,A3
949,Left,1,60,80,282.0,0.979167,Eighth,C4
950,Left,1,40,80,283.0,0.979167,Eighth,E2
951,Right,0,81,80,283.197917,0.416667,Sixteenth,A5
952,Right,0,79,80,283.395833,0.020833,Unknown,G5
953,Right,0,78,80,283.59375,0.416667,Sixteenth,F#5
954,Right,0,79,80,283.791667,0.020833,Unknown,G5
956,Left,1,55,80,284.0,0.979167,Eighth,G3_E3
955,Right,0,84,80,284.0,0.979167,Eighth,C6
958,Left,1,55,80,285.0,0.979167,Eighth,G3_C4
961,Left,1,41,80,286.0,0.979167,Eighth,F2
960,Right,0,80,80,286.0,0.979167,Eighth,G#5
963,Left,1,53,80,287.0,0.979167,Eighth,F3_A3
962,Right,0,81,84,287.0,2.979167,DottedQuarter,A5
965,Left,1,60,80,288.0,0.979167,Eighth,C4_A3
967,Left,1,41,80,289.0,0.979167,Eighth,F2
968,Left,1,53,80,290.0,0.979167,Eighth,F3_A3
969,Right,0,81,99,290.0,2.979167,DottedQuarter,A5
971,Left,1,61,80,291.0,0.979167,Eighth,C#4_A3
973,Left,1,41,80,292.0,0.979167,Eighth,F2
975,Left,1,53,80,293.0,0.979167,Eighth,F3_A3
974,Right,0,79,80,293.0,0.104167,SixtyFourth,G5
977,Right,0,77,80,293.114583,0.364583,TripletSixteenth,F5
978,Right,0,76,80,293.5,0.479167,Sixteenth,E5
980,Left,1,62,80,294.0,0.979167,Eighth,D4_A3
979,Right,0,77,80,294.0,0.479167,Sixteenth,F5
982,Right,0,74,80,294.5,0.479167,Sixteenth,D5
984,Right,0,72,80,295.0,0.229167,ThirtySecond,C5
983,Left,1,43,80,295.0,0.979167,Eighth,G2
985,Right,0,74,80,295.25,0.229167,ThirtySecond,D5
986,Right,0,72,80,295.5,0.229167,ThirtySecond,C5
987,Right,0,71,80,295.75,0.229167,ThirtySecond,B4
988,Left,1,55,80,296.0,0.979167,Eighth,G3_C4
990,Right,0,72,81,296.0,0.229167,ThirtySecond,C5
991,Right,0,74,84,296.5,0.229167,ThirtySecond,D5
992,Right,0,76,87,297.0,0.229167,ThirtySecond,E5
993,Left,1,64,80,297.0,0.979167,Eighth,E4_C4
995,Right,0,77,91,297.5,0.229167,ThirtySecond,F5
996,Right,0,79,94,298.0,0.229167,ThirtySecond,G5
997,Left,1,43,80,298.0,0.979167,Eighth,G2
998,Right,0,81,97,298.5,0.229167,ThirtySecond,A5
999,Right,0,83,100,299.0,0.229167,ThirtySecond,B5
1000,Left,1,60,80,299.0,0.979167,Eighth,G3_C4
1002,Right,0,84,103,299.5,0.229167,ThirtySecond,C6
1004,Left,1,64,80,300.0,0.979167,Eighth,E4_C4
1003,Right,0,86,106,300.0,0.229167,ThirtySecond,D6
1006,Right,0,88,110,300.5,0.229167,ThirtySecond,E6
1008,Left,1,43,80,301.0,0.979167,Eighth,G2
1007,Right,0,86,113,301.0,0.197917,TripletThirtySecond,D6
1009,Right,0,88,114,301.125,0.1875,TripletThirtySecond,E6
1010,Right,0,89,114,301.25,0.979167,Eighth,F6
1011,Left,1,62,80,302.0,0.979167,Eighth,G3_D4
1013,Right,0,71,80,303.0,0.979167,Eighth,B4
1014,Left,1,65,80,303.0,0.979167,Eighth,F4_D4
1018,Left,1,48,80,304.0,0.979167,Eighth,C3
1016,Right,0,74,80,304.0,2.979167,DottedQuarter,F4_D5
1019,Left,1,55,80,305.0,0.979167,Eighth,G3
1020,Left,1,59,80,306.0,0.979167,Eighth,B3
1023,Right,0,64,80,307.0,0.979167,Eighth,E4_C5
1021,Left,1,48,80,307.0,0.979167,Eighth,C4_C3
1026,Right,0,67,80,308.0,0.979167,Eighth,G4
1025,Left,1,55,80,308.0,0.979167,Eighth,G3
1028,Right,0,63,80,309.0,0.979167,Eighth,D#4
1027,Left,1,51,80,309.0,0.979167,Eighth,D#3
1030,Right,0,60,80,310.0,0.979167,Eighth,C4
1029,Left,1,48,80,310.0,0.979167,Eighth,C3
1031,Right,0,55,80,311.0,0.979167,Eighth,G3
1032,Left,1,43,80,311.0,0.979167,Eighth,G2
1034,Left,1,39,80,312.0,0.979167,Eighth,D#2
1033,Right,0,51,80,312.0,0.979167,Eighth,D#3
1036,Right,0,48,70,313.0,1.979167,Quarter,C3
1035,Left,1,36,70,313.0,0.479167,Sixteenth,C2
1037,Left,1,39,70,313.5,0.479167,Sixteenth,D#2
1038,Left,1,43,70,314.0,0.479167,Sixteenth,G2
1039,Left,1,43,70,314.5,0.479167,Sixteenth,G2
1040,Left,1,43,70,315.0,0.479167,Sixteenth,G2
1041,Left,1,43,70,315.5,0.479167,Sixteenth,G2
1042,Left,1,36,70,316.0,0.479167,Sixteenth,C2
1043,Left,1,39,70,316.5,0.479167,Sixteenth,D#2
1044,Left,1,43,70,317.0,0.479167,Sixteenth,G2
1045,Left,1,43,70,317.5,0.479167,Sixteenth,G2
1046,Left,1,43,70,318.0,0.479167,Sixteenth,G2
1047,Left,1,43,70,318.5,0.479167,Sixteenth,G2
1048,Left,1,36,70,319.0,0.479167,Sixteenth,C2
1049,Left,1,39,70,319.5,0.479167,Sixteenth,D#2
1050,Left,1,43,70,320.0,0.479167,Sixteenth,G2
1051,Left,1,43,70,320.5,0.479167,Sixteenth,G2
1052,Left,1,43,70,321.0,0.479167,Sixteenth,G2
1053,Left,1,43,70,321.5,0.479167,Sixteenth,G2
1054,Right,0,75,70,322.0,2.979167,DottedQuarter,D#5_D#4
1055,Left,1,36,70,322.0,0.479167,Sixteenth,C2
1057,Left,1,39,70,322.5,0.479167,Sixteenth,D#2
1058,Left,1,44,70,323.0,0.479167,Sixteenth,G#2
1059,Left,1,44,70,323.5,0.479167,Sixteenth,G#2
1060,Left,1,44,70,324.0,0.479167,Sixteenth,G#2
1061,Left,1,44,70,324.5,0.479167,Sixteenth,G#2
1063,Left,1,36,70,325.0,0.479167,Sixteenth,C2
1062,Right,0,72,70,325.0,2.979167,DottedQuarter,C5_C4
1065,Left,1,39,70,325.5,0.479167,Sixteenth,D#2
1066,Left,1,44,70,326.0,0.479167,Sixteenth,G#2
1067,Left,1,44,70,326.5,0.479167,Sixteenth,G#2
1068,Left,1,44,70,327.0,0.479167,Sixteenth,G#2
1069,Left,1,44,70,327.5,0.479167,Sixteenth,G#2
1072,Left,1,36,70,328.0,0.479167,Sixteenth,C2
1070,Right,0,56,70,328.0,2.979167,DottedQuarter,G#4_G#3
1073,Left,1,39,70,328.5,0.479167,Sixteenth,D#2
1074,Left,1,44,70,329.0,0.479167,Sixteenth,G#2
1075,Left,1,44,70,329.5,0.479167,Sixteenth,G#2
1076,Left,1,44,70,330.0,0.479167,Sixteenth,G#2
1077,Left,1,44,70,330.5,0.479167,Sixteenth,G#2
1078,Left,1,37,70,331.0,0.479167,Sixteenth,C#2
1079,Right,0,53,70,331.0,7.979167,Whole,F4_F3
1081,Left,1,41,70,331.5,0.479167,Sixteenth,F2
1082,Left,1,44,70,332.0,0.479167,Sixteenth,G#2
1083,Left,1,44,70,332.5,0.479167,Sixteenth,G#2
1084,Left,1,44,70,333.0,0.479167,Sixteenth,G#2
1085,Left,1,44,70,333.5,0.479167,Sixteenth,G#2
1086,Left,1,37,70,334.0,0.479167,Sixteenth,C#2
1087,Left,1,41,70,334.5,0.479167,Sixteenth,F2
1088,Left,1,44,70,335.0,0.479167,Sixteenth,G#2
1089,Left,1,44,70,335.5,0.479167,Sixteenth,G#2
1090,Left,1,44,70,336.0,0.479167,Sixteenth,G#2
1091,Left,1,44,70,336.5,0.479167,Sixteenth,G#2
1092,Left,1,37,70,337.0,0.479167,Sixteenth,C#2
1093,Left,1,41,70,337.5,0.479167,Sixteenth,F2
1094,Left,1,45,70,338.0,0.479167,Sixteenth,A2
1095,Left,1,45,70,338.5,0.479167,Sixteenth,A2
1096,Right,0,65,70,339.0,0.479167,Sixteenth,F4
1097,Left,1,45,70,339.0,0.479167,Sixteenth,A2
1098,Right,0,77,70,339.5,0.479167,Sixteenth,F5
1099,Left,1,45,70,339.5,0.479167,Sixteenth,A2
1100,Left,1,37,70,340.0,0.479167,Sixteenth,C#2
1101,Right,0,65,70,340.0,2.479167,TiedQuarter-Sixteenth,F5_F4
1103,Left,1,41,72,340.5,0.479167,Sixteenth,F2
1104,Left,1,46,74,341.0,0.479167,Sixteenth,A#2
1105,Left,1,46,77,341.5,0.479167,Sixteenth,A#2
1106,Left,1,46,79,342.0,0.479167,Sixteenth,A#2
1108,Left,1,46,81,342.5,0.479167,Sixteenth,A#2
1107,Right,0,75,81,342.5,0.479167,Sixteenth,D#5_D#4
1110,Right,0,63,84,343.0,0.979167,Eighth,D#5_D#4
1112,Left,1,37,84,343.0,0.479167,Sixteenth,C#2
1113,Left,1,41,86,343.5,0.479167,Sixteenth,F2
1114,Left,1,46,88,344.0,0.479167,Sixteenth,A#2
1115,Right,0,61,88,344.0,1.479167,DottedEighth,C#5_C#4
1117,Left,1,46,91,344.5,0.479167,Sixteenth,A#2
1118,Left,1,46,93,345.0,0.479167,Sixteenth,A#2
1121,Left,1,46,95,345.5,0.479167,Sixteenth,A#2
1119,Right,0,60,95,345.5,0.479167,Sixteenth,C5_C4
1123,Left,1,38,98,346.0,0.479167,Sixteenth,D2
1122,Right,0,72,98,346.0,0.979167,Eighth,C5_C4
1125,Left,1,41,100,346.5,0.479167,Sixteenth,F2
1126,Left,1,46,102,347.0,0.479167,Sixteenth,A#2
1127,Right,0,70,102,347.0,1.479167,DottedEighth,A#4_A#3
1129,Left,1,46,105,347.5,0.479167,Sixteenth,A#2
1130,Left,1,46,107,348.0,0.479167,Sixteenth,A#2
1132,Right,0,68,109,348.5,0.479167,Sixteenth,G#4_G#3
1131,Left,1,46,109,348.5,0.479167,Sixteenth,A#2
1135,Right,0,67,110,349.0,2.979167,DottedQuarter,G4_G3
1134,Left,1,39,110,349.0,0.479167,Sixteenth,D#2
1137,Left,1,46,110,349.5,0.479167,Sixteenth,A#2
1138,Left,1,49,110,350.0,0.479167,Sixteenth,C#3
1139,Left,1,49,110,350.5,0.479167,Sixteenth,C#3
1140,Left,1,49,110,351.0,0.479167,Sixteenth,C#3
1141,Left,1,49,110,351.5,0.479167,Sixteenth,C#3
1143,Left,1,40,110,352.0,0.479167,Sixteenth,E2
1142,Right,0,73,110,352.0,2.979167,DottedQuarter,G4_C#5_C#4
1146,Left,1,46,110,352.5,0.479167,Sixteenth,A#2
1147,Left,1,52,110,353.0,0.479167,Sixteenth,E3
1148,Left,1,52,110,353.5,0.479167,Sixteenth,E3
1149,Left,1,52,110,354.0,0.479167,Sixteenth,E3
1150,Left,1,52,110,354.5,0.479167,Sixteenth,E3
1151,Left,1,41,110,355.0,0.479167,Sixteenth,F2
1152,Right,0,72,110,355.0,2.979167,DottedQuarter,G#4_C5_C4
1155,Left,1,44,110,355.5,0.479167,Sixteenth,G#2
1156,Left,1,53,110,356.0,0.479167,Sixteenth,F3
1157,Left,1,53,110,356.5,0.479167,Sixteenth,F3
1158,Left,1,53,110,357.0,0.479167,Sixteenth,F3
1159,Left,1,53,110,357.5,0.479167,Sixteenth,F3
1160,Right,0,58,110,358.0,2.979167,DottedQuarter,C#4_A#4_A#3
1163,Left,1,37,110,358.0,0.479167,Sixteenth,C#2
1164,Left,1,49,109,358.5,0.479167,Sixteenth,C#3
1165,Left,1,53,108,359.0,0.479167,Sixteenth,F3
1166,Left,1,53,107,359.5,0.479167,Sixteenth,F3
1167,Left,1,53,106,360.0,0.479167,Sixteenth,F3
1168,Left,1,53,105,360.5,0.479167,Sixteenth,F3
1170,Right,0,68,103,361.0,2.979167,DottedQuarter,G#4_G#3_C4
1169,Left,1,39,103,361.0,0.479167,Sixteenth,D#2
1173,Left,1,48,102,361.5,0.479167,Sixteenth,C3
1174,Left,1,51,101,362.0,0.479167,Sixteenth,D#3
1175,Left,1,51,100,362.5,0.479167,Sixteenth,D#3
1176,Left,1,51,99,363.0,0.479167,Sixteenth,D#3
1177,Left,1,51,98,363.5,0.479167,Sixteenth,D#3
1178,Right,0,58,96,364.0,2.979167,DottedQuarter,G3_D#4_C#4_A#3
1180,Left,1,39,96,364.0,0.479167,Sixteenth,D#2
1183,Left,1,46,95,364.5,0.479167,Sixteenth,A#2
1184,Left,1,49,94,365.0,0.479167,Sixteenth,C#3
1185,Left,1,49,93,365.5,0.479167,Sixteenth,C#3
1186,Left,1,49,92,366.0,0.479167,Sixteenth,C#3
1187,Left,1,49,91,366.5,0.479167,Sixteenth,C#3
1190,Right,0,63,110,367.0,0.479167,Sixteenth,G#3_D#4_C4
1188,Left,1,32,110,367.0,0.479167,Sixteenth,G#2_G#1
1193,Left,1,56,80,367.5,0.479167,Sixteenth,G#3
1194,Right,0,63,80,367.5,0.479167,Sixteenth,D#4_C4
1196,Right,0,60,80,368.0,0.479167,Sixteenth,D#4_C4
1197,Left,1,56,80,368.0,0.479167,Sixteenth,G#3
1199,Right,0,63,80,368.5,0.479167,Sixteenth,D#4_C4
1201,Left,1,56,80,368.5,0.479167,Sixteenth,G#3
1202,Left,1,56,80,369.0,0.479167,Sixteenth,G#3
1203,Right,0,63,80,369.0,0.479167,Sixteenth,D#4_C4
1205,Left,1,56,80,369.5,0.479167,Sixteenth,G#3
1206,Right,0,63,80,369.5,0.479167,Sixteenth,D#4_C4
1210,Left,1,56,80,370.0,0.479167,Sixteenth,G#3
1208,Right,0,63,80,370.0,0.479167,Sixteenth,D#4_C4
1212,Right,0,63,80,370.5,0.479167,Sixteenth,D#4_C4
1211,Left,1,56,80,370.5,0.479167,Sixteenth,G#3
1214,Right,0,63,80,371.0,0.479167,Sixteenth,D#4_C4
1215,Left,1,56,80,371.0,0.479167,Sixteenth,G#3
1217,Right,0,60,80,371.5,0.479167,Sixteenth,D#4_C4
1218,Left,1,56,80,371.5,0.479167,Sixteenth,G#3
1220,Right,0,60,80,372.0,0.479167,Sixteenth,D#4_C4
1222,Left,1,56,80,372.0,0.479167,Sixteenth,G#3
1223,Right,0,60,80,372.5,0.479167,Sixteenth,D#4_C4
1225,Left,1,56,80,372.5,0.479167,Sixteenth,G#3
1226,Right,0,60,80,373.0,0.479167,Sixteenth,D#4_C4
1228,Left,1,56,80,373.0,0.479167,Sixteenth,G#3
1229,Right,0,60,80,373.5,0.479167,Sixteenth,D#4_C4
1231,Left,1,56,80,373.5,0.479167,Sixteenth,G#3
1232,Right,0,60,80,374.0,0.479167,Sixteenth,D#4_C4
1234,Left,1,56,80,374.0,0.479167,Sixteenth,G#3
1237,Left,1,56,80,374.5,0.479167,Sixteenth,G#3
1235,Right,0,60,80,374.5,0.479167,Sixteenth,D#4_C4
1239,Right,0,60,80,375.0,0.479167,Sixteenth,D#4_C4
1238,Left,1,56,80,375.0,0.479167,Sixteenth,G#3
1243,Left,1,56,80,375.5,0.479167,Sixteenth,G#3
1241,Right,0,63,80,375.5,0.479167,Sixteenth,D#4_C4
1244,Right,0,84,80,376.0,0.104167,SixtyFourth,C6
1245,Left,1,63,80,376.0,0.479167,Sixteenth,G#3_D#4_C4
1248,Right,0,85,80,376.125,0.104167,SixtyFourth,C#6
1249,Right,0,87,80,376.25,0.229167,ThirtySecond,D#6
1252,Right,0,85,80,376.5,0.229167,ThirtySecond,C#6
1250,Left,1,60,80,376.5,0.479167,Sixteenth,G#3_D#4_C4
1254,Right,0,84,80,377.0,0.229167,ThirtySecond,C6
1255,Left,1,56,80,377.0,0.479167,Sixteenth,G#3_D#4_C4
1258,Right,0,82,80,377.5,0.229167,ThirtySecond,A#5
1259,Left,1,56,80,377.5,0.479167,Sixteenth,G#3_D#4_C4
1263,Right,0,80,80,378.0,0.229167,ThirtySecond,G#5
1262,Left,1,56,80,378.0,0.479167,Sixteenth,G#3_D#4_C4
1266,Left,1,63,80,378.5,0.479167,Sixteenth,G#3_D#4_C4
1269,Right,0,79,80,378.5,0.229167,ThirtySecond,G5
1271,Left,1,63,80,379.0,0.479167,Sixteenth,G#3_D#4_C4
1270,Right,0,77,80,379.0,0.229167,ThirtySecond,F5
1275,Left,1,63,80,379.5,0.479167,Sixteenth,G#3_D#4_C4
1274,Right,0,75,80,379.5,0.229167,ThirtySecond,D#5
1279,Left,1,63,80,380.0,0.479167,Sixteenth,G#3_D#4_C4
1278,Right,0,73,80,380.0,0.229167,ThirtySecond,C#5
1284,Right,0,72,80,380.5,0.229167,ThirtySecond,C5
1282,Left,1,60,80,380.5,0.479167,Sixteenth,G#3_D#4_C4
1286,Right,0,70,80,381.0,0.229167,ThirtySecond,A#4
1287,Left,1,63,80,381.0,0.479167,Sixteenth,G#3_D#4_C4
1293,Right,0,68,80,381.5,0.229167,ThirtySecond,G#4
1290,Left,1,63,80,381.5,0.479167,Sixteenth,G#3_D#4_C4
1294,Left,1,63,80,382.0,0.479167,Sixteenth,G#3_D#4_C4
1296,Right,0,67,80,382.0,0.229167,ThirtySecond,G4
1298,Left,1,63,80,382.5,0.479167,Sixteenth,G#3_D#4_C4
1301,Right,0,68,80,382.5,0.229167,ThirtySecond,G#4
1302,Right,0,70,80,383.0,0.229167,ThirtySecond,A#4
1303,Left,1,56,80,383.0,0.479167,Sixteenth,G#3_D#4_C4
1306,Right,0,68,80,383.5,0.229167,ThirtySecond,G#4
1307,Left,1,60,80,383.5,0.479167,Sixteenth,G#3_D#4_C4
1313,Right,0,72,80,384.0,0.229167,ThirtySecond,C5
1310,Left,1,63,80,384.0,0.479167,Sixteenth,G#3_D#4_C4
1314,Right,0,68,80,384.5,0.229167,ThirtySecond,G#4
1315,Left,1,56,80,384.5,0.479167,Sixteenth,G#3_D#4_C4
1319,Right,0,67,110,385.0,0.479167,Sixteenth,G4
1318,Left,1,58,80,385.0,0.479167,Sixteenth,D#4_C#4_A#3
1322,Right,0,58,80,385.5,0.479167,Sixteenth,D#4_C#4_A#3
1325,Right,0,63,80,386.0,0.479167,Sixteenth,D#4_C#4_A#3
1328,Right,0,63,80,386.5,0.479167,Sixteenth,D#4_C#4_A#3
1331,Right,0,63,80,387.0,0.479167,Sixteenth,D#4_C#4_A#3
1334,Right,0,61,80,387.5,0.479167,Sixteenth,D#4_C#4_A#3
1337,Right,0,63,80,388.0,0.479167,Sixteenth,D#4_C#4_A#3
1340,Right,0,58,80,388.5,0.479167,Sixteenth,D#4_C#4_A#3
1343,Right,0,63,80,389.0,0.479167,Sixteenth,D#4_C#4_A#3
1346,Right,0,63,80,389.5,0.479167,Sixteenth,D#4_C#4_A#3
1349,Right,0,63,80,390.0,0.479167,Sixteenth,D#4_C#4_A#3
1352,Right,0,58,80,390.5,0.479167,Sixteenth,D#4_C#4_A#3
1355,Right,0,61,80,391.0,0.479167,Sixteenth,D#4_C#4_A#3
1358,Right,0,63,80,391.5,0.479167,Sixteenth,D#4_C#4_A#3
1361,Right,0,63,80,392.0,0.479167,Sixteenth,D#4_C#4_A#3
1364,Right,0,63,80,392.5,0.479167,Sixteenth,D#4_C#4_A#3
1367,Right,0,63,80,393.0,0.479167,Sixteenth,D#4_C#4_A#3
1370,Right,0,58,80,393.5,0.479167,Sixteenth,D#4_C#4_A#3
1375,Left,1,55,80,394.0,0.104167,SixtyFourth,G3
1373,Right,0,63,80,394.0,0.479167,Sixteenth,D#4_C#4
1376,Left,1,56,80,394.125,0.104167,SixtyFourth,G#3
1377,Left,1,58,80,394.25,0.229167,ThirtySecond,A#3
1378,Right,0,63,80,394.5,0.479167,Sixteenth,D#4_C#4
1380,Left,1,56,80,394.5,0.229167,ThirtySecond,G#3
1383,Left,1,55,80,395.0,0.229167,ThirtySecond,G3
1381,Right,0,63,80,395.0,0.479167,Sixteenth,D#4_C#4
1384,Right,0,63,80,395.5,0.479167,Sixteenth,D#4_C#4
1386,Left,1,53,80,395.5,0.229167,ThirtySecond,F3
1388,Left,1,51,80,396.0,0.229167,ThirtySecond,D#3
1387,Right,0,63,80,396.0,0.479167,Sixteenth,D#4_C#4
1392,Left,1,49,80,396.5,0.229167,ThirtySecond,C#3
1390,Right,0,63,80,396.5,0.479167,Sixteenth,D#4_C#4
1393,Left,1,48,80,397.0,0.229167,ThirtySecond,C3
1394,Right,0,63,80,397.0,0.479167,Sixteenth,D#4_C#4
1396,Right,0,63,80,397.5,0.479167,Sixteenth,D#4_C#4
1398,Left,1,46,80,397.5,0.229167,ThirtySecond,A#2
1400,Right,0,63,80,398.0,0.479167,Sixteenth,D#4_C#4
1399,Left,1,44,80,398.0,0.229167,ThirtySecond,G#2
1404,Left,1,43,80,398.5,0.229167,ThirtySecond,G2
1402,Right,0,61,80,398.5,0.479167,Sixteenth,D#4_C#4
1406,Right,0,63,80,399.0,0.479167,Sixteenth,D#4_C#4
1405,Left,1,41,80,399.0,0.229167,ThirtySecond,F2
1409,Right,0,63,80,399.5,0.479167,Sixteenth,D#4_C#4
1408,Left,1,39,80,399.5,0.229167,ThirtySecond,D#2
1412,Left,1,38,80,400.0,0.229167,ThirtySecond,D2
1411,Right,0,63,80,400.0,0.479167,Sixteenth,D#4_C#4_A#3
1418,Left,1,39,80,400.5,0.229167,ThirtySecond,D#2
1415,Right,0,58,80,400.5,0.479167,Sixteenth,D#4_C#4_A#3
1421,Left,1,41,80,401.0,0.229167,ThirtySecond,F2
1419,Right,0,61,80,401.0,0.479167,Sixteenth,D#4_C#4_A#3
1426,Left,1,39,80,401.5,0.229167,ThirtySecond,D#2
1423,Right,0,63,80,401.5,0.479167,Sixteenth,D#4_C#4_A#3
1427,Right,0,61,80,402.0,0.479167,Sixteenth,D#4_C#4_A#3
1428,Left,1,43,80,402.0,0.229167,ThirtySecond,G2
1431,Right,0,63,80,402.5,0.479167,Sixteenth,D#4_C#4_A#3
1434,Left,1,39,80,402.5,0.229167,ThirtySecond,D#2
1435,Right,0,63,110,403.0,0.479167,Sixteenth,D#4_C4
1436,Left,1,32,110,403.0,0.479167,Sixteenth,G#2_G#1
1439,Left,1,56,80,403.5,0.479167,Sixteenth,G#3
1440,Right,0,60,80,403.5,0.479167,Sixteenth,D#4_C4
1443,Right,0,60,80,404.0,0.479167,Sixteenth,D#4_C4
1442,Left,1,56,80,404.0,0.479167,Sixteenth,G#3
1445,Right,0,60,80,404.5,0.479167,Sixteenth,D#4_C4
1446,Left,1,56,80,404.5,0.479167,Sixteenth,G#3
1448,Right,0,60,80,405.0,0.479167,Sixteenth,D#4_C4
1450,Left,1,56,80,405.0,0.479167,Sixteenth,G#3
1451,Right,0,63,80,405.5,0.479167,Sixteenth,D#4_C4
1452,Left,1,56,80,405.5,0.479167,Sixteenth,G#3
1454,Right,0,63,80,406.0,0.479167,Sixteenth,D#4_C4
1455,Left,1,56,80,406.0,0.479167,Sixteenth,G#3
1458,Right,0,60,80,406.5,0.479167,Sixteenth,D#4_C4
1457,Left,1,56,80,406.5,0.479167,Sixteenth,G#3
1460,Right,0,63,80,407.0,0.479167,Sixteenth,D#4_C4
1461,Left,1,56,80,407.0,0.479167,Sixteenth,G#3
1464,Right,0,60,80,407.5,0.479167,Sixteenth,D#4_C4
1463,Left,1,56,80,407.5,0.479167,Sixteenth,G#3
1467,Right,0,60,80,408.0,0.479167,Sixteenth,D#4_C4
1466,Left,1,56,80,408.0,0.479167,Sixteenth,G#3
1469,Left,1,56,80,408.5,0.479167,Sixteenth,G#3
1470,Right,0,60,80,408.5,0.479167,Sixteenth,D#4_C4
1472,Right,0,64,80,409.0,0.479167,Sixteenth,E4_C4
1473,Left,1,56,80,409.0,0.479167,Sixteenth,G#3
1476,Left,1,56,80,409.5,0.479167,Sixteenth,G#3
1475,Right,0,60,80,409.5,0.479167,Sixteenth,E4_C4
1479,Right,0,60,80,410.0,0.479167,Sixteenth,E4_C4
1478,Left,1,56,80,410.0,0.479167,Sixteenth,G#3
1482,Right,0,60,80,410.5,0.479167,Sixteenth,E4_C4
1481,Left,1,56,80,410.5,0.479167,Sixteenth,G#3
1484,Right,0,64,80,411.0,0.479167,Sixteenth,E4_C4
1485,Left,1,56,80,411.0,0.479167,Sixteenth,G#3
1487,Left,1,56,80,411.5,0.479167,Sixteenth,G#3
1488,Right,0,64,80,411.5,0.479167,Sixteenth,E4_C4
1493,Right,0,80,80,412.0,0.104167,SixtyFourth,G#5_A#5
1490,Left,1,53,80,412.0,0.479167,Sixteenth,G#3_F3_C4
1495,Right,0,84,80,412.25,0.229167,ThirtySecond,C6
1498,Right,0,82,80,412.5,0.229167,ThirtySecond,A#5
1496,Left,1,60,80,412.5,0.479167,Sixteenth,G#3_F3_C4
1500,Right,0,80,80,413.0,0.229167,ThirtySecond,G#5
1501,Left,1,60,80,413.0,0.479167,Sixteenth,G#3_F3_C4
1505,Left,1,53,80,413.5,0.479167,Sixteenth,G#3_F3_C4
1504,Right,0,79,80,413.5,0.229167,ThirtySecond,G5
1509,Left,1,53,80,414.0,0.479167,Sixteenth,G#3_F3_C4
1508,Right,0,77,80,414.0,0.229167,ThirtySecond,F5
1512,Left,1,60,80,414.5,0.479167,Sixteenth,G#3_F3_C4
1515,Right,0,75,80,414.5,0.229167,ThirtySecond,D#5
1519,Right,0,73,80,415.0,0.229167,ThirtySecond,C#5
1516,Left,1,60,80,415.0,0.479167,Sixteenth,G#3_F3_C4
1520,Right,0,72,80,415.5,0.229167,ThirtySecond,C5
1521,Left,1,53,80,415.5,0.479167,Sixteenth,G#3_F3_C4
1525,Left,1,60,80,416.0,0.479167,Sixteenth,G#3_F3_C4
1524,Right,0,70,80,416.0,0.229167,ThirtySecond,A#4
1528,Left,1,60,80,416.5,0.479167,Sixteenth,G#3_F3_C4
1531,Right,0,68,80,416.5,0.229167,ThirtySecond,G#4
1532,Right,0,67,80,417.0,0.229167,ThirtySecond,G4
1533,Left,1,60,80,417.0,0.479167,Sixteenth,G#3_F3_C4
1536,Right,0,65,80,417.5,0.229167,ThirtySecond,F4
1537,Left,1,60,80,417.5,0.479167,Sixteenth,G#3_F3_C4
1541,Left,1,60,80,418.0,0.479167,Sixteenth,G#3_F3_C4
1540,Right,0,64,80,418.0,0.229167,ThirtySecond,E4
1545,Left,1,53,80,418.5,0.479167,Sixteenth,G#3_F3_C4
1544,Right,0,65,80,418.5,0.229167,ThirtySecond,F4
1548,Left,1,53,80,419.0,0.479167,Sixteenth,G#3_F3_C4
1551,Right,0,67,80,419.0,0.229167,ThirtySecond,G4
1552,Left,1,56,80,419.5,0.479167,Sixteenth,G#3_F3_C4
1554,Right,0,65,80,419.5,0.229167,ThirtySecond,F4
1556,Left,1,53,80,420.0,0.479167,Sixteenth,G#3_F3_C4
1558,Right,0,68,80,420.0,0.229167,ThirtySecond,G#4
1560,Left,1,60,80,420.5,0.479167,Sixteenth,G#3_F3_C4
1563,Right,0,65,80,420.5,0.229167,ThirtySecond,F4
1565,Left,1,60,80,421.0,0.479167,Sixteenth,G3_C4_A#3
1564,Right,0,64,110,421.0,0.479167,Sixteenth,E4
1568,Right,0,60,80,421.5,0.479167,Sixteenth,G3_C4_A#3
1571,Right,0,60,80,422.0,0.479167,Sixteenth,G3_C4_A#3
1574,Right,0,60,80,422.5,0.479167,Sixteenth,G3_C4_A#3
1577,Right,0,60,80,423.0,0.479167,Sixteenth,G3_C4_A#3
1580,Right,0,60,80,423.5,0.479167,Sixteenth,G3_C4_A#3
1583,Right,0,60,80,424.0,0.479167,Sixteenth,G3_C4_A#3
1586,Right,0,55,80,424.5,0.479167,Sixteenth,G3_C4_A#3
1589,Right,0,60,80,425.0,0.479167,Sixteenth,G3_C4_A#3
1592,Right,0,60,80,425.5,0.479167,Sixteenth,G3_C4_A#3
1595,Right,0,60,80,426.0,0.479167,Sixteenth,G3_C4_A#3
1598,Right,0,55,80,426.5,0.479167,Sixteenth,G3_C4_A#3
1601,Right,0,60,80,427.0,0.479167,Sixteenth,G3_C4_A#3
1604,Right,0,60,80,427.5,0.479167,Sixteenth,G3_C4_A#3
1607,Right,0,60,80,428.0,0.479167,Sixteenth,G3_C4_A#3
1610,Right,0,55,80,428.5,0.479167,Sixteenth,G3_C4_A#3
1613,Right,0,60,80,429.0,0.479167,Sixteenth,G3_C4_A#3
1616,Right,0,60,80,429.5,0.479167,Sixteenth,G3_C4_A#3
1620,Right,0,60,80,430.0,0.479167,Sixteenth,C4_A#3
1619,Left,1,53,80,430.0,0.104167,SixtyFourth,F3_E3
1623,Left,1,55,80,430.25,0.229167,ThirtySecond,G3
1625,Right,0,58,80,430.5,0.479167,Sixteenth,C4_A#3
1624,Left,1,53,80,430.5,0.229167,ThirtySecond,F3
1628,Right,0,60,80,431.0,0.479167,Sixteenth,C4_A#3
1627,Left,1,52,80,431.0,0.229167,ThirtySecond,E3
1630,Left,1,49,80,431.5,0.229167,ThirtySecond,C#3
1631,Right,0,60,80,431.5,0.479167,Sixteenth,C4_A#3
1633,Left,1,48,80,432.0,0.229167,ThirtySecond,C3
1634,Right,0,60,80,432.0,0.479167,Sixteenth,C4_A#3
1637,Left,1,46,80,432.5,0.229167,ThirtySecond,A#2
1636,Right,0,60,80,432.5,0.479167,Sixteenth,C4_A#3
1640,Right,0,58,80,433.0,0.479167,Sixteenth,C4_A#3
1639,Left,1,44,80,433.0,0.229167,ThirtySecond,G#2
1642,Left,1,43,80,433.5,0.229167,ThirtySecond,G2
1643,Right,0,60,80,433.5,0.479167,Sixteenth,C4_A#3
1647,Left,1,41,80,434.0,0.229167,ThirtySecond,F2
1645,Right,0,60,80,434.0,0.479167,Sixteenth,C4_A#3
1649,Right,0,60,80,434.5,0.479167,Sixteenth,C4_A#3
1648,Left,1,40,80,434.5,0.229167,ThirtySecond,E2
1651,Right,0,60,80,435.0,0.479167,Sixteenth,C4_A#3
1653,Left,1,37,80,435.0,0.229167,ThirtySecond,C#2
1654,Right,0,58,80,435.5,0.479167,Sixteenth,C4_A#3
1656,Left,1,36,80,435.5,0.229167,ThirtySecond,C2
1660,Left,1,35,80,436.0,0.229167,ThirtySecond,B1
1657,Right,0,55,80,436.0,0.479167,Sixteenth,G3_C4_A#3
1664,Left,1,36,80,436.5,0.229167,ThirtySecond,C2
1661,Right,0,55,80,436.5,0.479167,Sixteenth,G3_C4_A#3
1665,Left,1,37,80,437.0,0.229167,ThirtySecond,C#2
1666,Right,0,55,80,437.0,0.479167,Sixteenth,G3_C4_A#3
1671,Left,1,36,80,437.5,0.229167,ThirtySecond,C2
1669,Right,0,58,80,437.5,0.479167,Sixteenth,G3_C4_A#3
1674,Right,0,55,80,438.0,0.479167,Sixteenth,G3_C4_A#3
1673,Left,1,40,80,438.0,0.229167,ThirtySecond,E2
1677,Right,0,55,80,438.5,0.479167,Sixteenth,G3_C4_A#3
1679,Left,1,36,80,438.5,0.229167,ThirtySecond,C2
1681,Left,1,53,80,439.0,0.479167,Sixteenth,F3_F2
1683,Right,0,56,80,439.0,0.479167,Sixteenth,G#3_C4
1686,Right,0,56,80,439.5,0.479167,Sixteenth,G#3_C#4
1685,Left,1,53,80,439.5,0.479167,Sixteenth,F3
1690,Left,1,53,80,440.0,0.479167,Sixteenth,F3
1688,Right,0,56,80,440.0,0.479167,Sixteenth,G#3_C#4
1691,Right,0,56,80,440.5,0.479167,Sixteenth,G#3_C#4
1693,Left,1,53,80,440.5,0.479167,Sixteenth,F3
1694,Right,0,56,80,441.0,0.479167,Sixteenth,G#3_C#4
1696,Left,1,53,80,441.0,0.479167,Sixteenth,F3
1697,Right,0,56,80,441.5,0.479167,Sixteenth,G#3_C#4
1699,Left,1,53,80,441.5,0.479167,Sixteenth,F3
1702,Right,0,80,80,442.0,0.479167,Sixteenth,G#5
1700,Left,1,61,80,442.0,0.479167,Sixteenth,G#3_F3_C#4
1704,Left,1,56,80,442.5,0.479167,Sixteenth,G#3_F3_C#4
1707,Right,0,77,80,442.5,0.479167,Sixteenth,F5
1708,Right,0,73,80,443.0,0.479167,Sixteenth,C#5
1709,Left,1,61,80,443.0,0.479167,Sixteenth,G#3_F3_C#4
1712,Left,1,61,80,443.5,0.479167,Sixteenth,G#3_F3_C#4
1715,Right,0,73,80,443.5,0.479167,Sixteenth,C#5
1718,Right,0,73,80,444.0,0.479167,Sixteenth,C#5
1716,Left,1,53,80,444.0,0.479167,Sixteenth,G#3_F3_C#4
1721,Left,1,53,80,444.5,0.479167,Sixteenth,G#3_F3_C#4
1720,Right,0,73,80,444.5,0.479167,Sixteenth,C#5
1726,Left,1,51,80,445.0,0.479167,Sixteenth,D#3
1724,Right,0,60,80,445.0,0.479167,Sixteenth,G3_C4
1729,Left,1,51,80,445.5,0.479167,Sixteenth,D#3
1727,Right,0,60,80,445.5,0.479167,Sixteenth,G3_C4
1732,Left,1,51,80,446.0,0.479167,Sixteenth,D#3
1730,Right,0,60,80,446.0,0.479167,Sixteenth,G3_C4
1733,Right,0,60,80,446.5,0.479167,Sixteenth,G3_C4
1735,Left,1,51,80,446.5,0.479167,Sixteenth,D#3
1737,Right,0,60,80,447.0,0.479167,Sixteenth,G3_C4
1736,Left,1,51,80,447.0,0.479167,Sixteenth,D#3
1739,Right,0,60,80,447.5,0.479167,Sixteenth,G3_C4
1741,Left,1,51,80,447.5,0.479167,Sixteenth,D#3
1744,Left,1,38,80,448.0,0.479167,Sixteenth,D3_D2
1742,Right,0,59,80,448.0,0.479167,Sixteenth,F3_B3
1746,Right,0,53,80,448.5,0.479167,Sixteenth,F3_B3
1748,Left,1,50,80,448.5,0.479167,Sixteenth,D3
1750,Right,0,59,80,449.0,0.479167,Sixteenth,F3_B3
1749,Left,1,50,80,449.0,0.479167,Sixteenth,D3
1752,Left,1,50,80,449.5,0.479167,Sixteenth,D3
1753,Right,0,59,80,449.5,0.479167,Sixteenth,F3_B3
1757,Left,1,50,80,450.0,0.479167,Sixteenth,D3
1755,Right,0,59,80,450.0,0.479167,Sixteenth,F3_B3
1758,Right,0,53,80,450.5,0.479167,Sixteenth,F3_B3
1760,Left,1,50,80,450.5,0.479167,Sixteenth,D3
1761,Left,1,50,80,451.0,0.479167,Sixteenth,F3_D3_B3
1764,Right,0,77,80,451.0,0.479167,Sixteenth,F5
1766,Left,1,59,80,451.5,0.479167,Sixteenth,F3_D3_B3
1765,Right,0,74,80,451.5,0.479167,Sixteenth,D5
1770,Left,1,59,80,452.0,0.479167,Sixteenth,F3_D3_B3
1769,Right,0,71,80,452.0,0.479167,Sixteenth,B4
1774,Left,1,50,80,452.5,0.479167,Sixteenth,F3_D3_B3
1773,Right,0,71,80,452.5,0.479167,Sixteenth,B4
1778,Left,1,50,80,453.0,0.479167,Sixteenth,F3_D3_B3
1777,Right,0,71,80,453.0,0.479167,Sixteenth,B4
1781,Right,0,71,80,453.5,0.479167,Sixteenth,B4
1782,Left,1,53,80,453.5,0.479167,Sixteenth,F3_D3_B3
1785,Left,1,48,80,454.0,0.479167,Sixteenth,C3
1786,Right,0,51,80,454.0,0.479167,Sixteenth,G#3_D#3
1790,Left,1,48,80,454.5,0.479167,Sixteenth,C3
1788,Right,0,51,80,454.5,0.479167,Sixteenth,G#3_D#3
1793,Left,1,48,80,455.0,0.479167,Sixteenth,C3
1791,Right,0,56,80,455.0,0.479167,Sixteenth,G#3_D#3
1794,Left,1,48,80,455.5,0.479167,Sixteenth,C3
1795,Right,0,56,80,455.5,0.479167,Sixteenth,G#3_D#3
1797,Left,1,48,80,456.0,0.479167,Sixteenth,C3
1798,Right,0,56,80,456.0,0.479167,Sixteenth,G#3_D#3
1801,Right,0,56,80,456.5,0.479167,Sixteenth,G#3_D#3
1800,Left,1,48,80,456.5,0.479167,Sixteenth,C3
1803,Right,0,50,80,457.0,0.479167,Sixteenth,G3_D3
1804,Left,1,35,80,457.0,0.479167,Sixteenth,B2_B1
1809,Left,1,47,80,457.5,0.479167,Sixteenth,B2
1807,Right,0,55,80,457.5,0.479167,Sixteenth,G3_D3
1810,Right,0,55,80,458.0,0.479167,Sixteenth,G3_D3
1812,Left,1,47,80,458.0,0.479167,Sixteenth,B2
1814,Right,0,55,80,458.5,0.479167,Sixteenth,G3_D3
1813,Left,1,47,80,458.5,0.479167,Sixteenth,B2
1816,Left,1,47,80,459.0,0.479167,Sixteenth,B2
1817,Right,0,55,80,459.0,0.479167,Sixteenth,G3_D3
1819,Left,1,47,80,459.5,0.479167,Sixteenth,B2
1820,Right,0,55,80,459.5,0.479167,Sixteenth,G3_D3
1823,Left,1,47,80,460.0,0.479167,Sixteenth,G3_D3_B2
1822,Right,0,86,80,460.0,0.479167,Sixteenth,D6
1826,Left,1,55,80,460.5,0.479167,Sixteenth,G3_D3_B2
1828,Right,0,83,80,460.5,0.479167,Sixteenth,B5
1830,Left,1,55,80,461.0,0.479167,Sixteenth,G3_D3_B2
1833,Right,0,77,80,461.0,0.479167,Sixteenth,F5
1837,Right,0,77,80,461.5,0.479167,Sixteenth,F5
1834,Left,1,50,80,461.5,0.479167,Sixteenth,G3_D3_B2
1839,Left,1,55,80,462.0,0.479167,Sixteenth,G3_D3_B2
1838,Right,0,77,80,462.0,0.479167,Sixteenth,F5
1842,Left,1,50,80,462.5,0.479167,Sixteenth,G3_D3_B2
1843,Right,0,77,80,462.5,0.479167,Sixteenth,F5
1846,Left,1,48,80,463.0,0.479167,Sixteenth,G3_D#3_C3
1849,Right,0,84,80,463.0,0.479167,Sixteenth,C6
1851,Left,1,55,80,463.5,0.479167,Sixteenth,G3_D#3_C3
1850,Right,0,79,80,463.5,0.479167,Sixteenth,G5
1855,Left,1,55,80,464.0,0.479167,Sixteenth,G3_D#3_C3
1854,Right,0,75,80,464.0,0.479167,Sixteenth,D#5
1859,Right,0,75,80,464.5,0.479167,Sixteenth,D#5
1858,Left,1,48,80,464.5,0.479167,Sixteenth,G3_D#3_C3
1863,Left,1,48,80,465.0,0.479167,Sixteenth,G3_D#3_C3
1862,Right,0,75,80,465.0,0.479167,Sixteenth,D#5
1867,Left,1,55,80,465.5,0.479167,Sixteenth,G3_D#3_C3
1866,Right,0,75,80,465.5,0.479167,Sixteenth,D#5
1871,Left,1,41,80,466.0,0.479167,Sixteenth,F2
1870,Right,0,80,80,466.0,0.479167,Sixteenth,G#5
1872,Right,0,77,81,466.5,0.479167,Sixteenth,F5
1873,Left,1,61,81,466.5,0.479167,Sixteenth,G#3_F3_C#4
1878,Left,1,53,83,467.0,0.479167,Sixteenth,G#3_F3_C#4
1876,Right,0,68,83,467.0,0.479167,Sixteenth,G#4_F4_C#5
1885,Left,1,61,85,467.5,0.479167,Sixteenth,G#3_F3_C#4
1882,Right,0,73,85,467.5,0.479167,Sixteenth,G#4_F4_C#5
1888,Left,1,53,86,468.0,0.479167,Sixteenth,G#3_F3_C#4
1889,Right,0,73,86,468.0,0.479167,Sixteenth,G#4_F4_C#5
1894,Right,0,73,88,468.5,0.479167,Sixteenth,G#4_F4_C#5
1895,Left,1,61,88,468.5,0.479167,Sixteenth,G#3_F3_C#4
1901,Left,1,41,90,469.0,0.479167,Sixteenth,F2
1900,Right,0,80,90,469.0,0.479167,Sixteenth,G#5
1902,Left,1,53,92,469.5,0.479167,Sixteenth,G#3_F3_C#4
1905,Right,0,77,92,469.5,0.479167,Sixteenth,F5
1906,Left,1,53,93,470.0,0.479167,Sixteenth,G#3_F3_C#4
1909,Right,0,73,93,470.0,0.479167,Sixteenth,G#4_F4_C#5
1913,Right,0,68,95,470.5,0.479167,Sixteenth,G#4_F4_C#5
1912,Left,1,61,95,470.5,0.479167,Sixteenth,G#3_F3_C#4
1918,Right,0,73,97,471.0,0.479167,Sixteenth,G#4_F4_C#5
1921,Left,1,56,97,471.0,0.479167,Sixteenth,G#3_F3_C#4
1924,Left,1,56,98,471.5,0.479167,Sixteenth,G#3_F3_C#4
1926,Right,0,73,98,471.5,0.479167,Sixteenth,G#4_F4_C#5
1931,Right,0,81,100,472.0,0.479167,Sixteenth,A5
1930,Left,1,42,100,472.0,0.479167,Sixteenth,F#2
1932,Left,1,60,102,472.5,0.479167,Sixteenth,F#3_C4_A3
1935,Right,0,75,102,472.5,0.479167,Sixteenth,D#5
1936,Right,0,72,104,473.0,0.479167,Sixteenth,D#4_C5_A4
1937,Left,1,57,104,473.0,0.479167,Sixteenth,F#3_C4_A3
1945,Left,1,54,105,473.5,0.479167,Sixteenth,F#3_C4_A3
1942,Right,0,72,105,473.5,0.479167,Sixteenth,D#4_C5_A4
1951,Left,1,54,107,474.0,0.479167,Sixteenth,F#3_C4_A3
1948,Right,0,72,107,474.0,0.479167,Sixteenth,D#4_C5_A4
1956,Left,1,60,109,474.5,0.479167,Sixteenth,F#3_C4_A3
1954,Right,0,69,109,474.5,0.479167,Sixteenth,D#4_C5_A4
1960,Right,0,62,110,475.0,1.979167,Quarter,G4_D4_B4
1961,Left,1,43,110,475.0,0.479167,Sixteenth,G2
1964,Left,1,47,80,475.5,0.479167,Sixteenth,B2
1965,Left,1,50,80,476.0,0.479167,Sixteenth,D3
1966,Left,1,55,80,476.5,0.479167,Sixteenth,G3
1967,Left,1,59,80,477.0,0.479167,Sixteenth,B3
1968,Left,1,62,80,477.5,0.479167,Sixteenth,D4
1970,Left,1,67,80,478.0,0.979167,Eighth,G4
1969,Right,0,77,80,478.0,3.979167,Half,F5
1971,Left,1,66,80,479.0,0.979167,Eighth,F#4
1972,Right,0,74,80,479.0,0.979167,Eighth,D5
1974,Left,1,67,80,480.0,0.979167,Eighth,G4
1973,Right,0,71,80,480.0,0.979167,Eighth,B4
1975,Left,1,68,80,481.0,1.979167,Quarter,G#4
1976,Right,0,72,80,481.0,1.979167,Quarter,C5
1977,Right,0,75,80,482.0,1.979167,Quarter,D#5
1979,Right,0,69,80,483.0,0.979167,Eighth,A4
1978,Left,1,66,80,483.0,0.979167,Eighth,F#4
1982,Left,1,43,80,484.0,0.479167,Sixteenth,G2
1980,Right,0,71,80,484.0,1.979167,Quarter,D5_B4
1983,Left,1,47,80,484.5,0.479167,Sixteenth,B2
1984,Left,1,50,80,485.0,0.479167,Sixteenth,D3
1985,Left,1,55,80,485.5,0.479167,Sixteenth,G3
1986,Left,1,59,80,486.0,0.479167,Sixteenth,B3
1987,Left,1,62,80,486.5,0.479167,Sixteenth,D4
1988,Left,1,67,80,487.0,0.979167,Eighth,G4
1989,Right,0,77,80,487.0,3.979167,Half,F5
1991,Left,1,66,80,488.0,0.979167,Eighth,F#4
1990,Right,0,74,80,488.0,0.979167,Eighth,D5
1993,Right,0,71,80,489.0,0.979167,Eighth,B4
1992,Left,1,67,80,489.0,0.979167,Eighth,G4
1995,Right,0,72,80,490.0,1.979167,Quarter,C5
1994,Left,1,68,80,490.0,1.979167,Quarter,G#4
1996,Right,0,75,80,491.0,1.979167,Quarter,D#5
1997,Right,0,69,80,492.0,1.979167,Quarter,A4
1998,Left,1,66,80,492.0,2.979167,DottedQuarter,F#4
1999,Right,0,74,80,493.0,2.979167,DottedQuarter,D5
2000,Left,1,55,80,493.0,2.979167,DottedQuarter,G3
2001,Right,0,71,80,494.0,0.979167,Eighth,B4
2002,Left,1,65,80,494.0,2.979167,DottedQuarter,F4
2003,Right,0,68,80,495.0,1.979167,Quarter,G#4
2005,Left,1,55,80,496.0,2.979167,DottedQuarter,G3
2004,Right,0,73,80,496.0,2.979167,DottedQuarter,C#5
2006,Right,0,70,80,497.0,0.979167,Eighth,A#4
2007,Left,1,64,80,497.0,2.979167,DottedQuarter,E4
2008,Right,0,67,80,498.0,1.979167,Quarter,G4
2010,Right,0,72,80,499.0,2.979167,DottedQuarter,C5
2009,Left,1,55,80,499.0,2.979167,DottedQuarter,G3
2011,Right,0,69,80,500.0,0.979167,Eighth,A4
2013,Right,0,66,80,501.0,1.979167,Quarter,F#4
2012,Left,1,63,80,501.0,0.979167,Eighth,D#4
2014,Right,0,71,80,502.0,2.979167,DottedQuarter,B4
2015,Left,1,55,80,502.0,1.979167,Quarter,G3_D4
2017,Right,0,68,80,503.0,0.979167,Eighth,G#4
2018,Right,0,65,80,504.0,0.979167,Eighth,F4
2019,Left,1,62,79,505.0,1.979167,Quarter,G3_D4
2021,Right,0,71,78,506.0,1.979167,Quarter,G4_B4
2023,Right,0,65,77,507.0,0.979167,Eighth,F4
2024,Left,1,60,76,508.0,1.979167,Quarter,G3_C4
2026,Right,0,72,75,509.0,1.979167,Quarter,G4_C5
2028,Right,0,63,74,510.0,0.979167,Eighth,D#4
2029,Left,1,55,73,511.0,1.979167,Quarter,G3_G2
2031,Right,0,60,72,512.0,1.979167,Quarter,F#4_D#4_C4
2034,Right,0,57,71,513.0,0.979167,Eighth,A3
2035,Left,1,31,70,514.0,1.979167,Quarter,G2_G1
2037,Right,0,54,69,515.0,1.979167,Quarter,F#3_C4_A3
2040,Right,0,51,68,516.0,0.979167,Eighth,D#3
2041,Left,1,31,67,517.0,1.979167,Quarter,G2_G1
2043,Right,0,53,66,518.0,1.979167,Quarter,F3_D#3_C3
2046,Right,0,45,66,519.0,0.979167,Eighth,A2
2047,Left,1,43,65,520.0,1.979167,Eighth,G2_G1
2049,Right,0,47,65,520.0,1.979167,Quarter,G3_D3_B2
2052,Left,1,43,65,521.0,0.979167,Eighth,G2
2053,Left,1,43,65,522.0,0.979167,Eighth,G2
2054,Left,1,43,65,523.0,0.979167,Eighth,G2
2055,Left,1,43,65,524.0,0.979167,Eighth,G2
2056,Right,0,47,65,524.5,0.479167,Sixteenth,G3_B2
2060,Left,1,43,65,525.0,0.979167,Eighth,G2
2058,Right,0,48,65,525.0,0.479167,Sixteenth,C3_A3
2061,Right,0,50,65,525.5,0.479167,Sixteenth,D3_B3
2065,Left,1,43,65,526.0,0.979167,Eighth,G2
2063,Right,0,51,80,526.0,2.979167,DottedQuarter,D#3_C4
2066,Left,1,43,65,527.0,0.979167,Eighth,G2
2067,Left,1,30,65,528.0,0.979167,Eighth,G2_F#1
2069,Left,1,43,65,529.0,1.979167,Eighth,G2_G1
2070,Right,0,50,65,529.0,1.979167,Quarter,D3_B3
2073,Left,1,43,65,530.0,0.979167,Eighth,G2
2074,Left,1,43,65,531.0,0.979167,Eighth,G2
2075,Left,1,43,65,532.0,0.979167,Eighth,G2
2076,Left,1,43,65,533.0,0.979167,Eighth,G2
2077,Right,0,59,65,533.5,0.479167,Sixteenth,G3_B3
2080,Right,0,57,65,534.0,0.479167,Sixteenth,C4_A3
2079,Left,1,43,65,534.0,0.979167,Eighth,G2
2082,Right,0,59,65,534.5,0.479167,Sixteenth,D4_B3
2084,Left,1,43,65,535.0,0.979167,Eighth,G2
2085,Right,0,60,80,535.0,2.979167,DottedQuarter,D#4_C4
2087,Left,1,43,65,536.0,0.979167,Eighth,G2
2088,Left,1,43,65,537.0,0.979167,Eighth,G2_F#1
2090,Right,0,59,65,538.0,1.979167,Quarter,D4_B3
2091,Left,1,43,65,538.0,1.979167,Eighth,G2_G1
2094,Left,1,43,65,539.0,0.979167,Eighth,G2
2095,Left,1,43,65,540.0,0.979167,Eighth,G2
2096,Left,1,43,65,541.0,0.979167,Eighth,G2
2097,Left,1,43,65,542.0,0.979167,Eighth,G2
2098,Right,0,67,65,542.5,0.479167,Sixteenth,G4_B3
2102,Left,1,43,65,543.0,0.979167,Eighth,G2
2100,Right,0,69,65,543.0,0.479167,Sixteenth,C4_A4
2103,Right,0,71,65,543.5,0.479167,Sixteenth,D4_B4
2105,Left,1,43,65,544.0,0.979167,Eighth,G2
2106,Right,0,72,80,544.0,2.979167,DottedQuarter,D#4_C5
2108,Left,1,43,65,545.0,0.979167,Eighth,G2
2109,Left,1,43,65,546.0,0.979167,Eighth,G2_F#3
2111,Right,0,62,65,547.0,2.979167,DottedQuarter,D4_B4
2113,Left,1,43,65,547.0,0.979167,Eighth,G2
2114,Left,1,55,65,548.0,0.979167,Eighth,G3
2115,Left,1,55,65,549.0,0.979167,Eighth,G3
2116,Right,0,75,65,550.0,2.979167,DottedQuarter,D#5_C5
2117,Left,1,55,65,550.0,0.979167,Eighth,G3
2119,Left,1,55,65,551.0,0.979167,Eighth,G3
2121,Right,0,66,65,552.0,0.979167,Eighth,F#4
2120,Left,1,55,65,552.0,0.979167,Eighth,G3
2125,Left,1,55,65,553.0,0.979167,Eighth,G3
2122,Right,0,67,65,553.0,2.979167,DottedQuarter,G4_D5_B4
2126,Left,1,55,65,554.0,0.979167,Eighth,G3
2127,Left,1,55,65,555.0,0.979167,Eighth,G3
2128,Right,0,72,65,556.0,2.979167,DottedQuarter,D#5_C5
2129,Left,1,55,65,556.0,0.979167,Eighth,G3
2131,Left,1,55,65,557.0,0.979167,Eighth,G3
2132,Right,0,66,65,558.0,0.979167,Eighth,F#4
2133,Left,1,55,65,558.0,0.979167,Eighth,G3
2134,Right,0,67,65,559.0,2.979167,DottedQuarter,G4_D5_B4
2135,Left,1,55,65,559.0,0.979167,Eighth,G3
2138,Left,1,55,65,560.0,0.979167,Eighth,G3
2139,Left,1,55,65,561.0,0.979167,Eighth,G3
2141,Right,0,72,65,562.0,2.979167,DottedQuarter,D#5_C5_A5
2140,Left,1,55,65,562.0,0.979167,Eighth,G3
2144,Left,1,55,65,563.0,0.979167,Eighth,G3
2145,Right,0,66,65,564.0,0.979167,Eighth,F#4
2146,Left,1,55,65,564.0,0.979167,Eighth,G3
2147,Right,0,74,65,565.0,2.979167,DottedQuarter,G5_G4_D5_B4
2149,Left,1,55,65,565.0,0.979167,Eighth,G3
2152,Left,1,55,65,566.0,0.979167,Eighth,G3
2153,Left,1,55,65,567.0,0.979167,Eighth,G3
2157,Left,1,55,65,568.0,0.979167,Eighth,G3
2154,Right,0,77,65,568.0,2.979167,DottedQuarter,F5_C5_A4
2158,Left,1,43,65,569.0,0.979167,Eighth,G2
2159,Left,1,43,65,570.0,0.979167,Eighth,G2
2160,Right,0,71,65,571.0,2.979167,DottedQuarter,G4_E5_B4
2162,Left,1,43,65,571.0,0.979167,Eighth,G2
2164,Left,1,43,65,572.0,0.979167,Eighth,G2
2165,Left,1,43,65,573.0,0.979167,Eighth,G2
2166,Right,0,69,65,574.0,2.979167,DottedQuarter,F4_D5_A4
2169,Left,1,43,65,574.0,4.979167,Half,G2
2170,Left,1,45,67,575.0,0.479167,Sixteenth,A2
2171,Left,1,47,69,575.5,0.479167,Sixteenth,B2
2172,Left,1,48,70,576.0,0.479167,Sixteenth,C3
2173,Left,1,50,72,576.5,0.479167,Sixteenth,D3
2177,Left,1,52,73,577.0,0.479167,Sixteenth,E3
2174,Right,0,64,73,577.0,2.979167,DottedQuarter,G4_E4_C5
2178,Left,1,53,75,577.5,0.479167,Sixteenth,F3
2179,Left,1,55,76,578.0,0.479167,Sixteenth,G3
2180,Left,1,57,78,578.5,0.479167,Sixteenth,A3
2181,Left,1,59,79,579.0,0.479167,Sixteenth,B3
2182,Left,1,60,81,579.5,0.479167,Sixteenth,C4
2183,Right,0,65,82,580.0,0.479167,Sixteenth,F4_B4
2184,Left,1,55,82,580.0,2.979167,DottedQuarter,G3_D4
2187,Right,0,67,84,580.5,0.479167,Sixteenth,G4_C#5
2189,Left,1,64,84,580.5,0.479167,Sixteenth,E4
2191,Left,1,65,85,581.0,0.479167,Sixteenth,F4
2190,Right,0,69,85,581.0,0.479167,Sixteenth,D5_A4
2193,Left,1,61,87,581.5,0.479167,Sixteenth,C#4
2194,Right,0,67,87,581.5,0.479167,Sixteenth,G4_E5
2198,Left,1,62,88,582.0,0.479167,Sixteenth,D4
2196,Right,0,77,88,582.0,0.479167,Sixteenth,F5_F4
2199,Left,1,62,89,582.5,0.479167,Sixteenth,D4
2200,Right,0,71,89,582.5,0.479167,Sixteenth,F4_B4
2202,Left,1,48,70,583.0,0.479167,Sixteenth,E3_C3
2204,Right,0,72,80,583.0,0.479167,Sixteenth,C5
2205,Right,0,74,80,583.25,0.479167,Sixteenth,D5
2206,Left,1,52,70,583.5,0.479167,Sixteenth,G3_E3
2207,Right,0,72,80,583.5,0.479167,Sixteenth,C5
2209,Right,0,74,80,583.75,0.479167,Sixteenth,D5
2210,Left,1,55,70,584.0,0.479167,Sixteenth,G3_C4
2212,Right,0,72,80,584.0,0.479167,Sixteenth,C5
2213,Right,0,74,80,584.25,0.479167,Sixteenth,D5
2214,Left,1,55,70,584.5,0.479167,Sixteenth,G3_E3
2216,Right,0,72,80,584.5,0.479167,Sixteenth,C5
2217,Right,0,74,80,584.75,0.479167,Sixteenth,D5
2218,Left,1,52,70,585.0,0.479167,Sixteenth,E3_C3
2220,Right,0,72,80,585.0,0.479167,Sixteenth,C5
2221,Right,0,74,80,585.25,0.479167,Sixteenth,D5
2222,Right,0,72,80,585.5,0.479167,Sixteenth,C5
2223,Left,1,52,70,585.5,0.479167,Sixteenth,G3_E3
2225,Right,0,74,80,585.75,0.479167,Sixteenth,D5
2226,Right,0,72,80,586.0,0.479167,Sixteenth,C5
2227,Left,1,52,70,586.0,0.479167,Sixteenth,E3_C3
2229,Right,0,74,80,586.25,0.479167,Sixteenth,D5
2230,Left,1,52,70,586.5,0.479167,Sixteenth,G3_E3
2231,Right,0,72,80,586.5,0.479167,Sixteenth,C5
2233,Right,0,74,80,586.75,0.479167,Sixteenth,D5
2236,Right,0,72,80,587.0,0.479167,Sixteenth,C5
2234,Left,1,60,70,587.0,0.479167,Sixteenth,G3_C4
2237,Right,0,74,80,587.25,0.479167,Sixteenth,D5
2238,Right,0,72,80,587.5,0.479167,Sixteenth,C5
2239,Left,1,55,70,587.5,0.479167,Sixteenth,G3_E3
2241,Right,0,74,80,587.75,0.479167,Sixteenth,D5
2242,Right,0,72,80,588.0,0.479167,Sixteenth,C5
2243,Left,1,52,70,588.0,0.479167,Sixteenth,E3_C3
2245,Right,0,74,80,588.25,0.479167,Sixteenth,D5
2248,Right,0,71,80,588.5,0.479167,Sixteenth,B4
2246,Left,1,52,70,588.5,0.479167,Sixteenth,G3_E3
2249,Right,0,72,80,588.75,0.229167,ThirtySecond,C5
2250,Left,1,48,70,589.0,0.479167,Sixteenth,E3_C3
2251,Right,0,76,80,589.0,2.729167,TiedQuarter-Sixteenth,E5
2253,Left,1,55,70,589.5,0.479167,Sixteenth,G3_E3
2255,Left,1,55,70,590.0,0.479167,Sixteenth,G3_C4
2257,Left,1,52,70,590.5,0.479167,Sixteenth,G3_E3
2259,Left,1,48,70,591.0,0.479167,Sixteenth,E3_C3
2261,Left,1,52,70,591.5,0.479167,Sixteenth,G3_E3
2263,Right,0,72,80,591.75,0.229167,ThirtySecond,C5
2265,Left,1,52,70,592.0,0.479167,Sixteenth,E3_C3
2264,Right,0,67,80,592.0,4.979167,Half,G4
2267,Left,1,52,70,592.5,0.479167,Sixteenth,G3_E3
2269,Left,1,60,70,593.0,0.479167,Sixteenth,G3_C4
2271,Left,1,52,70,593.5,0.479167,Sixteenth,G3_E3
2273,Left,1,52,70,594.0,0.479167,Sixteenth,E3_C3
2275,Left,1,55,70,594.5,0.479167,Sixteenth,G3_E3
2277,Left,1,52,70,595.0,0.479167,Sixteenth,E3_C3
2279,Left,1,55,70,595.5,0.479167,Sixteenth,G3_E3
2281,Left,1,55,70,596.0,0.479167,Sixteenth,G3_C4
2283,Left,1,52,70,596.5,0.479167,Sixteenth,G3_E3
2285,Right,0,66,80,597.0,0.479167,Sixteenth,F#4
2286,Left,1,52,70,597.0,0.479167,Sixteenth,E3_C3
2288,Right,0,67,80,597.5,0.479167,Sixteenth,G4
2289,Left,1,52,70,597.5,0.479167,Sixteenth,G3_E3
2291,Right,0,68,80,598.0,0.479167,Sixteenth,G#4
2292,Left,1,52,70,598.0,0.479167,Sixteenth,E3_C3
2295,Right,0,69,80,598.5,0.479167,Sixteenth,A4
2294,Left,1,52,70,598.5,0.479167,Sixteenth,G3_E3
2297,Left,1,60,70,599.0,0.479167,Sixteenth,G3_C4
2299,Right,0,70,80,599.0,0.479167,Sixteenth,A#4
2300,Left,1,55,70,599.5,0.479167,Sixteenth,G3_E3
2302,Right,0,71,80,599.5,0.479167,Sixteenth,B4
2303,Left,1,52,70,600.0,0.479167,Sixteenth,E3_C3
2305,Right,0,72,80,600.0,0.479167,Sixteenth,C5
2308,Right,0,73,80,600.5,0.479167,Sixteenth,C#5
2306,Left,1,55,70,600.5,0.479167,Sixteenth,G3_E3
2310,Right,0,74,80,601.0,0.479167,Sixteenth,D5
2309,Left,1,47,70,601.0,0.479167,Sixteenth,F3_B2
2312,Right,0,76,80,601.25,0.479167,Sixteenth,E5
2313,Right,0,74,80,601.5,0.479167,Sixteenth,D5
2314,Left,1,53,70,601.5,0.479167,Sixteenth,G3_F3
2316,Right,0,76,80,601.75,0.479167,Sixteenth,E5
2317,Left,1,55,70,602.0,0.479167,Sixteenth,G3_D4
2318,Right,0,74,80,602.0,0.479167,Sixteenth,D5
2320,Right,0,76,80,602.25,0.479167,Sixteenth,E5
2323,Right,0,74,80,602.5,0.479167,Sixteenth,D5
2321,Left,1,55,70,602.5,0.479167,Sixteenth,G3_F3
2324,Right,0,76,80,602.75,0.479167,Sixteenth,E5
2325,Right,0,74,80,603.0,0.479167,Sixteenth,D5
2326,Left,1,47,70,603.0,0.479167,Sixteenth,F3_B2
2328,Right,0,76,80,603.25,0.479167,Sixteenth,E5
2329,Right,0,74,80,603.5,0.479167,Sixteenth,D5
2330,Left,1,53,70,603.5,0.479167,Sixteenth,G3_F3
2332,Right,0,76,80,603.75,0.479167,Sixteenth,E5
2333,Left,1,47,70,604.0,0.479167,Sixteenth,F3_B2
2334,Right,0,74,80,604.0,0.479167,Sixteenth,D5
2336,Right,0,76,80,604.25,0.479167,Sixteenth,E5
2337,Right,0,74,80,604.5,0.479167,Sixteenth,D5
2338,Left,1,55,70,604.5,0.479167,Sixteenth,G3_F3
2340,Right,0,76,80,604.75,0.479167,Sixteenth,E5
2341,Right,0,74,80,605.0,0.479167,Sixteenth,D5
2342,Left,1,62,70,605.0,0.479167,Sixteenth,G3_D4
2344,Right,0,76,80,605.25,0.479167,Sixteenth,E5
2345,Left,1,53,70,605.5,0.479167,Sixteenth,G3_F3
2346,Right,0,74,80,605.5,0.479167,Sixteenth,D5
2348,Right,0,76,80,605.75,0.479167,Sixteenth,E5
2349,Left,1,47,70,606.0,0.479167,Sixteenth,F3_B2
2351,Right,0,74,80,606.0,0.479167,Sixteenth,D5
2352,Right,0,76,80,606.25,0.479167,Sixteenth,E5
2354,Right,0,73,80,606.5,0.479167,Sixteenth,C#5
2353,Left,1,53,70,606.5,0.479167,Sixteenth,G3_F3
2356,Right,0,74,80,606.75,0.229167,ThirtySecond,D5
2357,Right,0,77,80,607.0,2.729167,TiedQuarter-Sixteenth,F5
2358,Left,1,47,70,607.0,0.479167,Sixteenth,F3_B2
2360,Left,1,53,70,607.5,0.479167,Sixteenth,G3_F3
2362,Left,1,55,70,608.0,0.479167,Sixteenth,G3_D4
2364,Left,1,55,70,608.5,0.479167,Sixteenth,G3_F3
2366,Left,1,53,70,609.0,0.479167,Sixteenth,F3_B2
2368,Left,1,53,70,609.5,0.479167,Sixteenth,G3_F3
2370,Right,0,74,80,609.75,0.229167,ThirtySecond,D5
2371,Left,1,47,70,610.0,0.479167,Sixteenth,F3_B2
2372,Right,0,67,80,610.0,4.979167,Half,G4
2374,Left,1,53,70,610.5,0.479167,Sixteenth,G3_F3
2376,Left,1,55,70,611.0,0.479167,Sixteenth,G3_D4
2378,Left,1,55,70,611.5,0.479167,Sixteenth,G3_F3
2380,Left,1,47,70,612.0,0.479167,Sixteenth,F3_B2
2382,Left,1,55,70,612.5,0.479167,Sixteenth,G3_F3
2384,Left,1,53,70,613.0,0.479167,Sixteenth,F3_B2
2386,Left,1,55,70,613.5,0.479167,Sixteenth,G3_F3
2388,Left,1,55,70,614.0,0.479167,Sixteenth,G3_D4
2390,Left,1,55,70,614.5,0.479167,Sixteenth,G3_F3
2394,Right,0,67,80,615.0,0.479167,Sixteenth,G4
2392,Left,1,47,70,615.0,0.479167,Sixteenth,F3_B2
2395,Right,0,69,80,615.5,0.479167,Sixteenth,A4
2396,Left,1,55,70,615.5,0.479167,Sixteenth,G3_F3
2400,Right,0,70,80,616.0,0.479167,Sixteenth,A#4
2398,Left,1,53,70,616.0,0.479167,Sixteenth,G2_F3
2401,Left,1,55,70,616.5,0.479167,Sixteenth,G3_F3
2403,Right,0,71,80,616.5,0.479167,Sixteenth,B4
2404,Left,1,55,70,617.0,0.479167,Sixteenth,G3_B3
2406,Right,0,72,80,617.0,0.479167,Sixteenth,C5
2408,Left,1,55,70,617.5,0.479167,Sixteenth,G3_F3
2407,Right,0,73,80,617.5,0.479167,Sixteenth,C#5
2410,Right,0,74,80,618.0,0.479167,Sixteenth,D5
2411,Left,1,53,70,618.0,0.479167,Sixteenth,G2_F3
2413,Right,0,75,80,618.5,0.479167,Sixteenth,D#5
2414,Left,1,55,70,618.5,0.479167,Sixteenth,G3_F3
2416,Right,0,64,80,619.0,0.229167,ThirtySecond,E4
2417,Left,1,48,80,619.0,0.479167,Sixteenth,C3
2418,Right,0,76,80,619.239583,2.729167,TiedQuarter-Sixteenth,E5
2419,Left,1,55,80,619.5,0.479167,Sixteenth,G3
2420,Left,1,60,80,620.0,0.479167,Sixteenth,C4
2421,Left,1,55,80,620.5,0.479167,Sixteenth,G3
2422,Left,1,52,80,621.0,0.479167,Sixteenth,E3
2423,Left,1,48,80,621.5,0.479167,Sixteenth,C3
2425,Right,0,65,80,622.0,0.229167,ThirtySecond,F4
2424,Left,1,45,80,622.0,0.479167,Sixteenth,A2
2426,Right,0,77,80,622.239583,2.729167,TiedQuarter-Sixteenth,F5
2427,Left,1,57,80,622.5,0.479167,Sixteenth,A3
2428,Left,1,60,80,623.0,0.479167,Sixteenth,C4
2429,Left,1,57,80,623.5,0.479167,Sixteenth,A3
2430,Left,1,53,80,624.0,0.479167,Sixteenth,F3
2431,Left,1,48,80,624.5,0.479167,Sixteenth,C3
2432,Right,0,67,80,625.0,0.229167,ThirtySecond,G4
2433,Left,1,40,80,625.0,0.479167,Sixteenth,E2
2434,Right,0,79,80,625.239583,2.729167,TiedQuarter-Sixteenth,G5
2435,Left,1,55,80,625.5,0.479167,Sixteenth,G3
2436,Left,1,60,80,626.0,0.479167,Sixteenth,C4
2437,Left,1,55,80,626.5,0.479167,Sixteenth,G3
2438,Left,1,52,80,627.0,0.479167,Sixteenth,E3
2439,Left,1,48,80,627.5,0.479167,Sixteenth,C3
2440,Right,0,80,80,628.0,0.979167,Eighth,G#5
2441,Left,1,41,80,628.0,0.479167,Sixteenth,F2
2442,Left,1,53,80,628.5,0.479167,Sixteenth,F3_A3
2444,Left,1,57,80,629.0,0.479167,Sixteenth,C4_A3
2446,Right,0,81,84,629.0,2.979167,DottedQuarter,A5
2447,Left,1,57,80,629.5,0.479167,Sixteenth,F3_A3
2449,Left,1,60,80,630.0,0.479167,Sixteenth,C4_A3
2451,Left,1,57,80,630.5,0.479167,Sixteenth,F3_A3
2453,Left,1,41,80,631.0,0.479167,Sixteenth,F2
2454,Left,1,53,80,631.5,0.479167,Sixteenth,F3_A3
2457,Right,0,81,99,632.0,2.979167,DottedQuarter,A5
2456,Left,1,57,80,632.0,0.479167,Sixteenth,C#4_A3
2459,Left,1,57,80,632.5,0.479167,Sixteenth,F3_A3
2461,Left,1,57,80,633.0,0.479167,Sixteenth,C#4_A3
2463,Left,1,53,80,633.5,0.479167,Sixteenth,F3_A3
2465,Left,1,41,80,634.0,0.479167,Sixteenth,F2
2466,Left,1,57,80,634.5,0.479167,Sixteenth,F3_A3
2468,Left,1,62,80,635.0,0.479167,Sixteenth,D4_A3
2470,Right,0,79,80,635.0,0.208333,ThirtySecond,G5
2471,Right,0,77,80,635.114583,0.364583,TripletSixteenth,F5
2472,Right,0,76,80,635.5,0.479167,Sixteenth,E5
2473,Left,1,57,80,635.5,0.479167,Sixteenth,F3_A3
2477,Right,0,77,80,636.0,0.479167,Sixteenth,F5
2475,Left,1,62,80,636.0,0.479167,Sixteenth,D4_A3
2478,Right,0,74,80,636.5,0.479167,Sixteenth,D5
2479,Left,1,57,80,636.5,0.479167,Sixteenth,F3_A3
2481,Right,0,72,80,637.0,0.979167,Eighth,C5
2482,Left,1,43,80,637.0,0.479167,Sixteenth,G2
2483,Left,1,60,80,637.5,0.479167,Sixteenth,G3_C4
2487,Right,0,74,80,638.0,0.104167,SixtyFourth,D5
2485,Left,1,64,80,638.0,0.479167,Sixteenth,E4_C4
2488,Right,0,72,80,638.114583,0.604167,Triplet,C5
2489,Left,1,60,80,638.5,0.479167,Sixteenth,G3_C4
2491,Right,0,71,80,638.75,0.229167,ThirtySecond,B4
2492,Left,1,64,80,639.0,0.479167,Sixteenth,E4_C4
2493,Right,0,72,80,639.0,0.729167,DottedSixteenth,C5
2495,Left,1,55,80,639.5,0.479167,Sixteenth,G3_C4
2497,Right,0,76,80,639.75,0.229167,ThirtySecond,E5
2499,Left,1,43,80,640.0,0.479167,Sixteenth,G2
2498,Right,0,67,80,640.0,3.229167,DottedQuarter,G4
2500,Left,1,55,80,640.5,0.479167,Sixteenth,G3_C4
2502,Left,1,60,80,641.0,0.479167,Sixteenth,E4_C4
2504,Left,1,55,80,641.5,0.479167,Sixteenth,G3_C4
2506,Left,1,60,80,642.0,0.479167,Sixteenth,E4_C4
2508,Left,1,55,80,642.5,0.479167,Sixteenth,G3_C4
2510,Left,1,43,80,643.0,0.479167,Sixteenth,G2
2511,Right,0,69,80,643.25,0.229167,ThirtySecond,A4
2513,Left,1,62,80,643.5,0.479167,Sixteenth,G3_D4
2512,Right,0,67,80,643.5,0.229167,ThirtySecond,G4
2515,Right,0,66,80,643.75,0.229167,ThirtySecond,F#4
2517,Left,1,65,80,644.0,0.479167,Sixteenth,F4_D4
2516,Right,0,67,80,644.0,0.145833,TripletThirtySecond,G4
2519,Right,0,69,80,644.166667,0.145833,TripletThirtySecond,A4
2520,Right,0,71,80,644.333333,0.145833,TripletThirtySecond,B4
2522,Right,0,72,80,644.5,0.145833,TripletThirtySecond,C5
2521,Left,1,62,80,644.5,0.479167,Sixteenth,G3_D4
2524,Right,0,74,80,644.666667,0.145833,TripletThirtySecond,D5
2525,Right,0,76,80,644.833333,0.145833,TripletThirtySecond,E5
2527,Left,1,62,80,645.0,0.479167,Sixteenth,F4_D4
2526,Right,0,77,80,645.0,0.479167,Sixteenth,F5
2529,Left,1,62,80,645.5,0.479167,Sixteenth,G3_D4
2531,Right,0,71,80,645.75,0.229167,ThirtySecond,B4
2532,Left,1,48,80,646.0,0.479167,Sixteenth,C3
2533,Right,0,65,80,646.0,2.979167,DottedQuarter,F4_D5
2535,Left,1,55,80,646.5,0.479167,Sixteenth,G3
2536,Left,1,59,80,647.0,0.479167,Sixteenth,B3
2537,Left,1,55,80,647.5,0.479167,Sixteenth,G3
2538,Left,1,59,80,648.0,0.479167,Sixteenth,B3
2539,Left,1,55,80,648.5,0.479167,Sixteenth,G3
2540,Left,1,60,80,649.0,0.479167,Sixteenth,C4_C3
2541,Right,0,64,80,649.0,0.479167,Sixteenth,E4_C5
2544,Right,0,67,80,649.5,0.479167,Sixteenth,G4
2545,Left,1,55,80,649.5,0.479167,Sixteenth,G3
2546,Right,0,66,80,650.0,0.479167,Sixteenth,F#4
2547,Left,1,54,80,650.0,0.479167,Sixteenth,F#3
2548,Right,0,67,80,650.5,0.479167,Sixteenth,G4
2549,Left,1,55,80,650.5,0.479167,Sixteenth,G3
2551,Right,0,69,80,651.0,0.479167,Sixteenth,A4
2550,Left,1,57,80,651.0,0.479167,Sixteenth,A3
2553,Left,1,55,80,651.5,0.479167,Sixteenth,G3
2552,Right,0,67,80,651.5,0.479167,Sixteenth,G4
2555,Left,1,53,80,652.0,0.479167,Sixteenth,F3
2554,Right,0,65,80,652.0,0.479167,Sixteenth,F4
2556,Left,1,52,80,652.5,0.479167,Sixteenth,E3
2557,Right,0,64,80,652.5,0.479167,Sixteenth,E4
2559,Left,1,55,80,653.0,0.479167,Sixteenth,G3
2558,Right,0,67,80,653.0,0.479167,Sixteenth,G4
2560,Right,0,65,80,653.5,0.479167,Sixteenth,F4
2561,Left,1,53,80,653.5,0.479167,Sixteenth,F3
2562,Right,0,64,80,654.0,0.479167,Sixteenth,E4
2563,Left,1,52,80,654.0,0.479167,Sixteenth,E3
2565,Left,1,50,80,654.5,0.479167,Sixteenth,D3
2564,Right,0,62,80,654.5,0.479167,Sixteenth,D4
2567,Left,1,36,80,655.0,0.479167,Sixteenth,C2
2566,Right,0,60,80,655.0,0.479167,Sixteenth,C4
2568,Left,1,48,80,655.25,0.479167,Sixteenth,C3
2569,Right,0,55,80,655.5,0.479167,Sixteenth,G3_C4
2571,Left,1,50,80,655.5,0.479167,Sixteenth,D3
2572,Left,1,48,80,655.75,0.479167,Sixteenth,C3
2574,Right,0,60,80,656.0,0.479167,Sixteenth,E4_C4
2573,Left,1,50,80,656.0,0.479167,Sixteenth,D3
2576,Left,1,48,80,656.25,0.479167,Sixteenth,C3
2578,Right,0,55,80,656.5,0.479167,Sixteenth,G3_C4
2577,Left,1,50,80,656.5,0.479167,Sixteenth,D3
2580,Left,1,48,80,656.75,0.479167,Sixteenth,C3
2583,Left,1,50,80,657.0,0.479167,Sixteenth,D3
2581,Right,0,64,80,657.0,0.479167,Sixteenth,E4_C4
2584,Left,1,48,80,657.25,0.479167,Sixteenth,C3
2585,Left,1,50,80,657.5,0.479167,Sixteenth,D3
2586,Right,0,60,80,657.5,0.479167,Sixteenth,G3_C4
2588,Left,1,48,80,657.75,0.479167,Sixteenth,C3
2589,Left,1,50,80,658.0,0.479167,Sixteenth,D3
2590,Right,0,60,80,658.0,0.479167,Sixteenth,E4_C4
2592,Left,1,48,80,658.25,0.479167,Sixteenth,C3
2595,Left,1,50,80,658.5,0.479167,Sixteenth,D3
2593,Right,0,55,80,658.5,0.479167,Sixteenth,G3_C4
2596,Left,1,48,80,658.75,0.479167,Sixteenth,C3
2597,Left,1,50,80,659.0,0.479167,Sixteenth,D3
2598,Right,0,60,80,659.0,0.479167,Sixteenth,E4_C4
2600,Left,1,48,80,659.25,0.479167,Sixteenth,C3
2601,Right,0,60,80,659.5,0.479167,Sixteenth,G3_C4
2603,Left,1,50,80,659.5,0.479167,Sixteenth,D3
2604,Left,1,48,80,659.75,0.479167,Sixteenth,C3
2606,Right,0,64,80,660.0,0.479167,Sixteenth,E4_C4
2605,Left,1,50,80,660.0,0.479167,Sixteenth,D3
2608,Left,1,48,80,660.25,0.479167,Sixteenth,C3
2610,Right,0,60,80,660.5,0.479167,Sixteenth,G3_C4
2609,Left,1,47,80,660.5,0.479167,Sixteenth,B2
2612,Left,1,48,80,660.75,0.229167,ThirtySecond,C3
2613,Right,0,64,80,661.0,0.479167,Sixteenth,E4_C4
2615,Left,1,52,80,661.0,2.729167,TiedQuarter-Sixteenth,E3
2616,Right,0,55,80,661.5,0.479167,Sixteenth,G3_C4
2618,Right,0,64,80,662.0,0.479167,Sixteenth,E4_C4
2620,Right,0,60,80,662.5,0.479167,Sixteenth,G3_C4
2622,Right,0,64,80,663.0,0.479167,Sixteenth,E4_C4
2624,Right,0,60,80,663.5,0.479167,Sixteenth,G3_C4
2626,Left,1,48,80,663.75,0.229167,ThirtySecond,C3
2627,Left,1,43,80,664.0,0.479167,Sixteenth,G2
2628,Right,0,71,80,664.25,0.479167,Sixteenth,B4
2630,Left,1,60,80,664.5,0.479167,Sixteenth,G3_C4
2629,Right,0,74,80,664.5,0.479167,Sixteenth,D5
2632,Right,0,72,80,664.75,0.479167,Sixteenth,C5
2634,Left,1,60,80,665.0,0.479167,Sixteenth,E4_C4
2633,Right,0,76,80,665.0,0.479167,Sixteenth,E5
2636,Right,0,74,80,665.25,0.479167,Sixteenth,D5
2637,Right,0,77,80,665.5,0.479167,Sixteenth,F5
2638,Left,1,60,80,665.5,0.479167,Sixteenth,G3_C4
2640,Right,0,76,80,665.75,0.479167,Sixteenth,E5
2642,Left,1,60,80,666.0,0.479167,Sixteenth,E4_C4
2641,Right,0,79,80,666.0,0.479167,Sixteenth,G5
2644,Right,0,77,80,666.25,0.479167,Sixteenth,F5
2645,Right,0,81,80,666.5,0.479167,Sixteenth,A5
2646,Left,1,55,80,666.5,0.479167,Sixteenth,G3_C4
2648,Right,0,79,80,666.75,0.479167,Sixteenth,G5
2651,Right,0,83,80,667.0,0.479167,Sixteenth,B5
2649,Left,1,64,80,667.0,0.479167,Sixteenth,E4_C4
2652,Right,0,81,80,667.25,0.479167,Sixteenth,A5
2653,Right,0,84,80,667.5,0.479167,Sixteenth,C6
2654,Left,1,55,80,667.5,0.479167,Sixteenth,G3_C4
2656,Right,0,83,80,667.75,0.479167,Sixteenth,B5
2657,Right,0,86,80,668.0,0.479167,Sixteenth,D6
2658,Left,1,64,80,668.0,0.479167,Sixteenth,E4_C4
2660,Right,0,84,80,668.25,0.479167,Sixteenth,C6
2663,Right,0,88,80,668.5,0.479167,Sixteenth,E6
2661,Left,1,60,80,668.5,0.479167,Sixteenth,G3_C4
2664,Right,0,86,80,668.75,0.479167,Sixteenth,D6
2666,Right,0,84,80,669.0,0.479167,Sixteenth,C6
2665,Left,1,64,80,669.0,0.479167,Sixteenth,E4_C4
2668,Right,0,83,80,669.25,0.479167,Sixteenth,B5
2669,Right,0,81,80,669.5,0.479167,Sixteenth,A5
2670,Left,1,60,80,669.5,0.479167,Sixteenth,G3_C4
2672,Right,0,79,80,669.75,0.479167,Sixteenth,G5
2673,Right,0,78,80,670.0,0.479167,Sixteenth,F#5
2674,Left,1,60,80,670.0,0.479167,Sixteenth,E4_C4
2676,Right,0,79,80,670.25,0.479167,Sixteenth,G5
2679,Right,0,81,80,670.5,0.479167,Sixteenth,A5
2677,Left,1,55,80,670.5,0.479167,Sixteenth,G3_C4
2680,Right,0,79,80,670.75,0.479167,Sixteenth,G5
2681,Left,1,64,80,671.0,0.479167,Sixteenth,E4_C4
2682,Right,0,77,80,671.0,0.479167,Sixteenth,F5
2684,Right,0,76,80,671.25,0.479167,Sixteenth,E5
2685,Left,1,60,80,671.5,0.479167,Sixteenth,G3_C4
2687,Right,0,74,80,671.5,0.479167,Sixteenth,D5
2688,Right,0,72,80,671.75,0.479167,Sixteenth,C5
2689,Left,1,60,80,672.0,0.479167,Sixteenth,E4_C4
2691,Right,0,71,80,672.0,0.479167,Sixteenth,B4
2692,Right,0,72,80,672.25,0.479167,Sixteenth,C5
2694,Left,1,55,80,672.5,0.479167,Sixteenth,G3_C4
2693,Right,0,76,80,672.5,0.479167,Sixteenth,E5
2696,Right,0,72,80,672.75,0.479167,Sixteenth,C5
2697,Left,1,43,80,673.0,0.479167,Sixteenth,G2
2698,Right,0,71,80,673.0,0.479167,Sixteenth,B4
2699,Left,1,50,80,673.25,0.479167,Sixteenth,D3
2700,Right,0,59,80,673.5,0.479167,Sixteenth,G3_B3
2702,Left,1,52,80,673.5,0.479167,Sixteenth,E3
2703,Left,1,50,80,673.75,0.479167,Sixteenth,D3
2704,Left,1,52,80,674.0,0.479167,Sixteenth,E3
2705,Right,0,65,80,674.0,0.479167,Sixteenth,F4_B3
2707,Left,1,50,80,674.25,0.479167,Sixteenth,D3
2709,Right,0,55,80,674.5,0.479167,Sixteenth,G3_B3
2708,Left,1,52,80,674.5,0.479167,Sixteenth,E3
2711,Left,1,50,80,674.75,0.479167,Sixteenth,D3
2712,Left,1,52,80,675.0,0.479167,Sixteenth,E3
2713,Right,0,65,80,675.0,0.479167,Sixteenth,F4_B3
2715,Left,1,50,80,675.25,0.479167,Sixteenth,D3
2718,Left,1,52,80,675.5,0.479167,Sixteenth,E3
2716,Right,0,55,80,675.5,0.479167,Sixteenth,G3_B3
2719,Left,1,50,80,675.75,0.479167,Sixteenth,D3
2722,Left,1,52,80,676.0,0.479167,Sixteenth,E3
2720,Right,0,65,80,676.0,0.479167,Sixteenth,F4_B3
2723,Left,1,50,80,676.25,0.479167,Sixteenth,D3
2724,Right,0,59,80,676.5,0.479167,Sixteenth,G3_B3
2725,Left,1,52,80,676.5,0.479167,Sixteenth,E3
2727,Left,1,50,80,676.75,0.479167,Sixteenth,D3
2728,Right,0,65,80,677.0,0.479167,Sixteenth,F4_B3
2730,Left,1,52,80,677.0,0.479167,Sixteenth,E3
2731,Left,1,50,80,677.25,0.479167,Sixteenth,D3
2733,Right,0,59,80,677.5,0.479167,Sixteenth,G3_B3
2732,Left,1,52,80,677.5,0.479167,Sixteenth,E3
2735,Left,1,50,80,677.75,0.479167,Sixteenth,D3
2736,Left,1,52,80,678.0,0.479167,Sixteenth,E3
2737,Right,0,59,80,678.0,0.479167,Sixteenth,F4_B3
2739,Left,1,50,80,678.25,0.479167,Sixteenth,D3
2742,Left,1,49,80,678.5,0.479167,Sixteenth,C#3
2740,Right,0,55,80,678.5,0.479167,Sixteenth,G3_B3
2743,Left,1,50,80,678.75,0.229167,ThirtySecond,D3
2744,Left,1,53,80,679.0,2.729167,TiedQuarter-Sixteenth,F3
2745,Right,0,65,80,679.0,0.479167,Sixteenth,F4_B3
2747,Right,0,55,80,679.5,0.479167,Sixteenth,G3_B3
2749,Right,0,65,80,680.0,0.479167,Sixteenth,F4_B3
2751,Right,0,59,80,680.5,0.479167,Sixteenth,G3_B3
2753,Right,0,65,80,681.0,0.479167,Sixteenth,F4_B3
2755,Right,0,55,80,681.5,0.479167,Sixteenth,G3_B3
2757,Left,1,50,80,681.75,0.229167,ThirtySecond,D3
2758,Left,1,43,70,682.0,0.479167,Sixteenth,G2
2759,Right,0,71,80,682.25,0.479167,Sixteenth,B4
2761,Left,1,55,70,682.5,0.479167,Sixteenth,G3_D4
2760,Right,0,74,80,682.5,0.479167,Sixteenth,D5
2763,Right,0,72,80,682.75,0.479167,Sixteenth,C5
2765,Left,1,65,70,683.0,0.479167,Sixteenth,F4_D4
2764,Right,0,76,80,683.0,0.479167,Sixteenth,E5
2767,Right,0,74,80,683.25,0.479167,Sixteenth,D5
2770,Right,0,77,80,683.5,0.479167,Sixteenth,F5
2768,Left,1,55,70,683.5,0.479167,Sixteenth,G3_D4
2771,Right,0,76,80,683.75,0.479167,Sixteenth,E5
2773,Left,1,62,70,684.0,0.479167,Sixteenth,F4_D4
2772,Right,0,79,80,684.0,0.479167,Sixteenth,G5
2775,Right,0,77,80,684.25,0.479167,Sixteenth,F5
2776,Left,1,55,70,684.5,0.479167,Sixteenth,G3_D4
2778,Right,0,81,80,684.5,0.479167,Sixteenth,A5
2779,Right,0,79,80,684.75,0.479167,Sixteenth,G5
2782,Right,0,83,80,685.0,0.479167,Sixteenth,B5
2780,Left,1,65,70,685.0,0.479167,Sixteenth,F4_D4
2783,Right,0,81,80,685.25,0.479167,Sixteenth,A5
2784,Left,1,55,70,685.5,0.479167,Sixteenth,G3_D4
2786,Right,0,84,80,685.5,0.479167,Sixteenth,C6
2787,Right,0,83,80,685.75,0.479167,Sixteenth,B5
2788,Left,1,65,70,686.0,0.479167,Sixteenth,F4_D4
2790,Right,0,86,80,686.0,0.479167,Sixteenth,D6
2791,Right,0,85,80,686.25,0.479167,Sixteenth,C#6
2792,Right,0,88,80,686.5,0.479167,Sixteenth,E6
2793,Left,1,55,70,686.5,0.479167,Sixteenth,G3_D4
2795,Right,0,86,80,686.75,0.479167,Sixteenth,D6
2796,Right,0,89,80,687.0,0.479167,Sixteenth,F6
2797,Left,1,65,70,687.0,0.479167,Sixteenth,F4_D4
2799,Right,0,88,80,687.25,0.479167,Sixteenth,E6
2801,Right,0,86,80,687.5,0.479167,Sixteenth,D6
2800,Left,1,62,70,687.5,0.479167,Sixteenth,G3_D4
2803,Right,0,84,80,687.75,0.479167,Sixteenth,C6
2805,Left,1,65,70,688.0,0.479167,Sixteenth,F4_D4
2804,Right,0,83,80,688.0,0.479167,Sixteenth,B5
2807,Right,0,84,80,688.25,0.479167,Sixteenth,C6
2808,Right,0,85,80,688.5,0.479167,Sixteenth,C#6
2809,Left,1,55,70,688.5,0.479167,Sixteenth,G3_D4
2811,Right,0,86,80,688.75,0.479167,Sixteenth,D6
2813,Left,1,62,70,689.0,0.479167,Sixteenth,F4_D4
2812,Right,0,84,80,689.0,0.479167,Sixteenth,C6
2815,Right,0,83,80,689.25,0.479167,Sixteenth,B5
2817,Left,1,62,70,689.5,0.479167,Sixteenth,G3_D4
2816,Right,0,81,80,689.5,0.479167,Sixteenth,A5
2819,Right,0,79,80,689.75,0.479167,Sixteenth,G5
2820,Left,1,62,70,690.0,0.479167,Sixteenth,D4_B3
2821,Right,0,78,80,690.0,0.479167,Sixteenth,F#5
2823,Right,0,79,80,690.25,0.479167,Sixteenth,G5
2826,Right,0,81,80,690.5,0.479167,Sixteenth,A5
2824,Left,1,59,70,690.5,0.479167,Sixteenth,G3_B3
2827,Right,0,77,80,690.75,0.479167,Sixteenth,F5
2828,Left,1,48,70,691.0,0.479167,Sixteenth,C3
2829,Right,0,75,80,691.0,0.979167,Eighth,D#5
2830,Left,1,60,70,691.5,0.479167,Sixteenth,G3_C4
2832,Right,0,76,80,692.0,1.979167,Quarter,E5
2833,Left,1,64,70,692.0,0.479167,Sixteenth,E4_C4
2835,Left,1,60,70,692.5,0.479167,Sixteenth,G3_C4
2837,Left,1,64,70,693.0,0.479167,Sixteenth,E4_C4
2839,Left,1,60,70,693.5,0.479167,Sixteenth,G3_C4
2841,Right,0,76,80,694.0,0.239583,ThirtySecond,E5
2842,Left,1,45,70,694.0,0.479167,Sixteenth,A2
2843,Right,0,84,80,694.25,3.239583,DottedQuarter,C6
2844,Left,1,57,70,694.5,0.479167,Sixteenth,C4_A3
2846,Left,1,64,70,695.0,0.479167,Sixteenth,E4_C4
2848,Left,1,60,70,695.5,0.479167,Sixteenth,C4_A3
2850,Left,1,60,70,696.0,0.479167,Sixteenth,E4_C4
2852,Left,1,57,70,696.5,0.479167,Sixteenth,C4_A3
2854,Left,1,43,70,697.0,0.479167,Sixteenth,G2
2857,Right,0,83,80,697.5,0.479167,Sixteenth,B5
2855,Left,1,55,70,697.5,0.479167,Sixteenth,G3_C4
2858,Left,1,60,70,698.0,0.479167,Sixteenth,E4_C4
2859,Right,0,81,80,698.0,0.479167,Sixteenth,A5
2863,Right,0,79,80,698.5,0.479167,Sixteenth,G5
2861,Left,1,60,70,698.5,0.479167,Sixteenth,G3_C4
2866,Right,0,78,80,699.0,0.479167,Sixteenth,F#5
2864,Left,1,60,70,699.0,0.479167,Sixteenth,E4_C4
2869,Right,0,76,80,699.5,0.479167,Sixteenth,E5
2867,Left,1,60,70,699.5,0.479167,Sixteenth,G3_C4
2870,Left,1,42,70,700.0,0.479167,Sixteenth,F#2
2871,Right,0,76,80,700.0,0.979167,Eighth,E5
2872,Left,1,57,70,700.5,0.479167,Sixteenth,C4_A3
2874,Right,0,74,80,701.0,2.479167,TiedQuarter-Sixteenth,D5
2875,Left,1,60,70,701.0,0.479167,Sixteenth,D4_C4
2877,Left,1,60,70,701.5,0.479167,Sixteenth,C4_A3
2879,Left,1,60,70,702.0,0.479167,Sixteenth,D4_C4
2881,Left,1,60,70,702.5,0.479167,Sixteenth,C4_A3
2883,Left,1,42,70,703.0,0.479167,Sixteenth,F#2
2886,Right,0,74,80,703.5,0.979167,Eighth,D5
2884,Left,1,57,70,703.5,0.479167,Sixteenth,C4_A3
2887,Left,1,62,70,704.0,0.479167,Sixteenth,D4_C4
2889,Left,1,57,70,704.5,0.479167,Sixteenth,C4_A3
2891,Right,0,74,80,704.5,0.979167,Eighth,D5
2892,Left,1,62,70,705.0,0.479167,Sixteenth,D4_C4
2896,Right,0,74,80,705.5,0.479167,Sixteenth,D5
2894,Left,1,57,70,705.5,0.479167,Sixteenth,C4_A3
2897,Left,1,43,70,706.0,0.479167,Sixteenth,G2
2898,Right,0,74,80,706.0,0.3125,TripletSixteenth,D5
2899,Right,0,73,80,706.333333,0.3125,TripletSixteenth,C#5
2900,Left,1,59,70,706.5,0.479167,Sixteenth,G3_B3
2902,Right,0,74,80,706.666667,0.3125,TripletSixteenth,D5
2903,Left,1,59,70,707.0,0.479167,Sixteenth,D4_B3
2904,Right,0,75,80,707.0,0.3125,TripletSixteenth,D#5
2906,Right,0,76,80,707.333333,0.3125,TripletSixteenth,E5
2907,Left,1,59,70,707.5,0.479167,Sixteenth,G3_B3
2909,Right,0,77,80,707.666667,0.3125,TripletSixteenth,F5
2912,Right,0,78,80,708.0,0.479167,Sixteenth,F#5
2910,Left,1,59,70,708.0,0.479167,Sixteenth,D4_B3
2914,Left,1,55,70,708.5,0.479167,Sixteenth,G3_B3
2913,Right,0,79,80,708.5,0.479167,Sixteenth,G5
2917,Right,0,69,80,709.0,0.416667,Sixteenth,A4
2916,Left,1,36,70,709.0,0.479167,Sixteenth,C2
2918,Right,0,68,80,709.333333,0.427083,Sixteenth,G#4
2919,Left,1,48,70,709.5,0.479167,Sixteenth,E3_C3
2921,Right,0,69,80,709.666667,0.447917,Sixteenth,A4
2922,Left,1,52,70,710.0,0.479167,Sixteenth,E3_A3
2924,Right,0,70,80,710.0,0.333333,TripletSixteenth,A#4
2925,Right,0,71,80,710.25,0.3125,TripletSixteenth,B4
2926,Left,1,52,70,710.5,0.479167,Sixteenth,E3_C3
2928,Right,0,72,80,710.5,0.302083,TripletSixteenth,C5
2929,Right,0,73,80,710.75,0.302083,TripletSixteenth,C#5
2932,Right,0,74,80,711.0,0.4375,Sixteenth,D5
2930,Left,1,57,70,711.0,0.479167,Sixteenth,E3_A3
2933,Right,0,75,80,711.333333,0.4375,Sixteenth,D#5
2934,Left,1,52,70,711.5,0.479167,Sixteenth,E3_C3
2936,Right,0,76,80,712.0,0.083333,TripletSixtyFourth,E5
2937,Left,1,38,70,712.0,0.479167,Sixteenth,D2
2938,Left,1,55,70,712.5,0.479167,Sixteenth,G3_D3
2940,Right,0,62,80,713.0,2.479167,TiedQuarter-Sixteenth,D4
2941,Left,1,59,70,713.0,0.479167,Sixteenth,G3_B3
2943,Left,1,50,70,713.5,0.479167,Sixteenth,G3_D3
2945,Left,1,59,70,714.0,0.479167,Sixteenth,G3_B3
2947,Left,1,55,70,714.5,0.479167,Sixteenth,G3_D3
2949,Left,1,38,70,715.0,0.479167,Sixteenth,D2
2950,Right,0,64,80,715.5,0.21875,ThirtySecond,E4
2951,Left,1,57,70,715.5,0.479167,Sixteenth,D3_A3
2953,Right,0,62,80,715.666667,0.239583,ThirtySecond,D4
2954,Right,0,61,80,715.833333,0.239583,ThirtySecond,C#4
2955,Right,0,62,80,716.0,0.21875,ThirtySecond,D4
2956,Left,1,57,70,716.0,0.479167,Sixteenth,C4_A3
2958,Right,0,64,80,716.166667,0.208333,ThirtySecond,E4
2959,Right,0,66,80,716.333333,0.21875,ThirtySecond,F#4
2960,Right,0,67,80,716.5,0.239583,ThirtySecond,G4
2961,Left,1,50,70,716.5,0.479167,Sixteenth,D3_A3
2963,Right,0,69,80,716.666667,0.239583,ThirtySecond,A4
2964,Right,0,71,80,716.833333,0.25,ThirtySecond,B4
2965,Right,0,72,80,717.0,0.479167,Sixteenth,C5
2966,Left,1,57,70,717.0,0.479167,Sixteenth,C4_A3
2968,Left,1,57,70,717.5,0.479167,Sixteenth,D3_A3
2970,Right,0,66,80,717.75,0.229167,ThirtySecond,F#4
2973,Left,1,43,80,718.0,0.479167,Sixteenth,G2
2971,Right,0,69,80,718.0,2.979167,DottedQuarter,C4_A4
2974,Left,1,50,80,718.5,0.479167,Sixteenth,D3
2975,Left,1,54,80,719.0,0.479167,Sixteenth,F#3
2976,Left,1,50,80,719.5,0.479167,Sixteenth,D3
2977,Left,1,54,80,720.0,0.479167,Sixteenth,F#3
2978,Left,1,50,80,720.5,0.479167,Sixteenth,D3
2979,Left,1,55,80,721.0,0.979167,Eighth,G3_G2
2981,Right,0,59,80,721.0,0.979167,Eighth,G4_B3
2983,Right,0,67,80,722.0,0.979167,Eighth,G4
2984,Right,0,67,80,723.0,0.979167,Eighth,G4
2985,Right,0,67,80,724.0,0.979167,Eighth,G4
2986,Right,0,66,80,725.0,0.979167,Eighth,F#4
2987,Right,0,67,80,726.0,0.979167,Eighth,G4
2988,Right,0,67,80,727.0,0.979167,Eighth,G4
2989,Right,0,66,80,728.0,0.979167,Eighth,F#4
2990,Right,0,67,80,729.0,0.479167,Sixteenth,G4
2991,Left,1,63,80,729.0,0.979167,Eighth,D#4
2992,Right,0,67,80,729.5,0.479167,Sixteenth,G4
2993,Left,1,63,80,730.0,0.979167,Eighth,D#4
2994,Right,0,67,80,730.5,0.479167,Sixteenth,G4
2995,Left,1,62,80,731.0,0.979167,Eighth,D4
2996,Right,0,66,80,731.5,0.479167,Sixteenth,F#4
2997,Left,1,63,80,732.0,0.979167,Eighth,D#4
2998,Right,0,67,80,732.5,0.479167,Sixteenth,G4
2999,Left,1,63,80,733.0,0.979167,Eighth,D#4
3000,Right,0,67,80,733.5,0.479167,Sixteenth,G4
3001,Left,1,62,80,734.0,0.979167,Eighth,D4
3002,Right,0,66,80,734.5,0.479167,Sixteenth,F#4
3003,Left,1,63,80,735.0,0.979167,Eighth,D#4
3004,Right,0,73,80,735.5,0.479167,Sixteenth,G4_C#5_A#4
3007,Right,0,70,80,736.0,5.479167,DottedHalf,C#5_A#4
3009,Left,1,64,80,736.0,5.979167,Eighth,E4_A3
3011,Right,0,67,80,736.5,0.479167,Sixteenth,G4
3012,Left,1,63,80,737.0,0.979167,Eighth,D#4
3013,Right,0,66,80,737.5,0.479167,Sixteenth,F#4
3014,Left,1,64,80,738.0,0.979167,Eighth,E4
3015,Right,0,67,80,738.5,0.479167,Sixteenth,G4
3016,Left,1,64,80,739.0,0.979167,Eighth,E4
3017,Right,0,67,80,739.5,0.479167,Sixteenth,G4
3018,Left,1,63,80,740.0,0.979167,Eighth,D#4
3019,Right,0,66,80,740.5,0.479167,Sixteenth,F#4
3020,Left,1,64,80,741.0,0.979167,Eighth,E4
3021,Right,0,73,80,741.5,0.479167,Sixteenth,G4_C#5_A#4
3024,Left,1,64,80,742.0,2.979167,Eighth,E4_A3
3026,Right,0,73,80,742.5,0.479167,Sixteenth,G4_C#5_A#4
3029,Left,1,65,80,743.0,0.979167,Eighth,F4
3030,Right,0,69,80,743.5,0.479167,Sixteenth,D5_A4
3032,Left,1,61,80,744.0,0.979167,Eighth,C#4
3033,Right,0,69,80,744.5,0.479167,Sixteenth,E5_A4
3037,Left,1,50,80,745.0,3.979167,Half,D3_C#4
3035,Right,0,69,80,745.0,3.979167,Half,E5_A4
3040,Right,0,77,80,748.0,0.979167,Eighth,F5
3039,Left,1,62,80,748.0,0.979167,Eighth,D4
3041,Right,0,65,80,749.0,0.979167,Eighth,F4
3042,Right,0,65,80,750.0,0.979167,Eighth,F4
3043,Right,0,65,80,751.0,0.979167,Eighth,F4
3044,Right,0,64,80,752.0,0.979167,Eighth,E4
3045,Right,0,65,80,753.0,0.979167,Eighth,F4
3046,Right,0,65,80,754.0,0.979167,Eighth,F4
3047,Right,0,64,80,755.0,0.979167,Eighth,E4
3048,Left,1,61,80,756.0,0.979167,Eighth,C#4
3049,Right,0,65,80,756.0,0.479167,Sixteenth,F4
3050,Right,0,65,80,756.5,0.479167,Sixteenth,F4
3051,Left,1,61,80,757.0,0.979167,Eighth,C#4
3052,Right,0,65,80,757.5,0.479167,Sixteenth,F4
3053,Left,1,60,80,758.0,0.979167,Eighth,C4
3054,Right,0,64,80,758.5,0.479167,Sixteenth,E4
3055,Left,1,61,80,759.0,0.979167,Eighth,C#4
3056,Right,0,65,80,759.5,0.479167,Sixteenth,F4
3057,Left,1,61,80,760.0,0.979167,Eighth,C#4
3058,Right,0,65,80,760.5,0.479167,Sixteenth,F4
3059,Left,1,60,80,761.0,0.979167,Eighth,C4
3060,Right,0,64,80,761.5,0.479167,Sixteenth,E4
3061,Left,1,61,80,762.0,0.979167,Eighth,C#4
3062,Right,0,65,80,762.5,0.479167,Sixteenth,G#4_F4_B4
3067,Right,0,68,80,763.0,5.479167,DottedHalf,G#4_B4
3065,Left,1,55,80,763.0,5.979167,DottedHalf,G3_D4
3069,Right,0,65,80,763.5,0.479167,Sixteenth,F4
3070,Left,1,61,80,764.0,0.979167,Eighth,C#4
3071,Right,0,64,80,764.5,0.479167,Sixteenth,E4
3072,Left,1,62,80,765.0,0.979167,Eighth,D4
3073,Right,0,65,80,765.5,0.479167,Sixteenth,F4
3074,Left,1,62,80,766.0,0.979167,Eighth,D4
3075,Right,0,65,80,766.5,0.479167,Sixteenth,F4
3076,Left,1,61,80,767.0,0.979167,Eighth,C#4
3077,Right,0,64,80,767.5,0.479167,Sixteenth,E4
3078,Left,1,62,80,768.0,0.979167,Eighth,D4
3079,Right,0,68,80,768.5,0.479167,Sixteenth,G#4_F4_B4
3082,Left,1,55,80,769.0,2.979167,DottedQuarter,G3_D4
3084,Right,0,71,80,769.5,0.479167,Sixteenth,G#4_F4_B4
3087,Left,1,64,80,770.0,0.979167,Eighth,E4
3088,Right,0,67,80,770.5,0.479167,Sixteenth,G4_C5
3090,Left,1,59,80,771.0,0.979167,Eighth,B3
3091,Right,0,67,80,771.5,0.479167,Sixteenth,G4_D5
3095,Left,1,60,80,772.0,2.979167,DottedQuarter,C4
3093,Right,0,67,80,772.0,2.979167,Sixteenth,G4_E5
3096,Right,0,66,80,772.5,0.479167,Sixteenth,F#4
3097,Right,0,66,80,773.0,0.479167,Sixteenth,F#4
3098,Right,0,67,80,773.5,0.479167,Sixteenth,G4
3099,Right,0,67,80,774.0,0.479167,Sixteenth,G4
3100,Right,0,68,80,774.5,0.479167,Sixteenth,G#4
3101,Right,0,74,80,775.0,2.979167,DottedQuarter,D5
3102,Left,1,53,80,775.0,2.979167,DottedQuarter,F3
3103,Right,0,68,80,775.5,0.479167,Sixteenth,G#4
3104,Right,0,68,80,776.0,0.479167,Sixteenth,G#4
3105,Right,0,69,80,776.5,0.479167,Sixteenth,A4
3106,Right,0,71,80,777.0,0.479167,Sixteenth,B4
3107,Right,0,69,80,777.5,0.479167,Sixteenth,A4
3108,Right,0,72,80,778.0,2.979167,DottedQuarter,C5
3109,Left,1,54,80,778.0,2.979167,DottedQuarter,F#3
3110,Right,0,69,80,778.5,0.479167,Sixteenth,A4
3111,Right,0,69,80,779.0,0.479167,Sixteenth,A4
3112,Right,0,62,80,779.5,0.479167,Sixteenth,D4
3113,Right,0,69,80,780.0,0.479167,Sixteenth,A4
3114,Right,0,62,80,780.5,0.479167,Sixteenth,D4
3115,Left,1,43,80,781.0,8.979167,Whole,G2
3116,Right,0,62,80,781.0,1.979167,Sixteenth,D4_B4
3118,Right,0,67,80,781.5,0.979167,Eighth,G4
3119,Left,1,55,80,782.0,0.979167,Eighth,G3
3120,Right,0,67,80,782.5,0.979167,Eighth,G4
3121,Left,1,55,80,783.0,0.979167,Eighth,G3
3122,Right,0,67,80,783.5,0.979167,Eighth,G4
3123,Left,1,55,80,784.0,0.979167,Eighth,G3
3124,Right,0,67,80,784.5,0.979167,Eighth,G4
3125,Right,0,69,80,785.0,0.979167,Eighth,A4
3126,Left,1,55,80,785.0,0.979167,Eighth,G3
3127,Right,0,67,80,785.5,0.979167,Eighth,G4
3128,Right,0,71,80,786.0,0.979167,Eighth,B4
3129,Left,1,55,80,786.0,0.979167,Eighth,G3
3130,Right,0,65,80,786.5,0.979167,Eighth,F4
3132,Left,1,55,80,787.0,0.979167,Eighth,G3
3131,Right,0,72,80,787.0,1.979167,Quarter,C5
3133,Right,0,64,80,787.5,0.979167,Eighth,E4
3134,Left,1,55,80,788.0,0.979167,Eighth,G3
3135,Right,0,62,80,788.5,0.979167,Eighth,D4
3136,Left,1,55,80,789.0,0.979167,Eighth,G3
3137,Right,0,66,80,789.0,0.979167,Eighth,F#4
3138,Right,0,60,80,789.5,0.479167,Sixteenth,C4
3141,Left,1,43,80,790.0,8.979167,Whole,G2
3139,Right,0,59,80,790.0,0.979167,Sixteenth,B3_A4
3142,Right,0,62,80,790.5,0.479167,Sixteenth,D4
3145,Left,1,55,80,791.0,0.979167,Eighth,G3
3143,Right,0,67,80,791.0,0.479167,Sixteenth,G4_B3
3146,Right,0,67,80,791.5,0.979167,Eighth,G4
3147,Left,1,55,80,792.0,0.979167,Eighth,G3
3148,Right,0,67,80,792.5,0.979167,Eighth,G4
3149,Right,0,71,80,793.0,0.979167,Eighth,B4
3150,Left,1,55,80,793.0,0.979167,Eighth,G3
3151,Right,0,67,80,793.5,0.979167,Eighth,G4
3153,Left,1,55,80,794.0,0.979167,Eighth,G3
3152,Right,0,69,80,794.0,0.979167,Eighth,A4
3154,Right,0,67,80,794.5,0.979167,Eighth,G4
3156,Left,1,55,80,795.0,0.979167,Eighth,G3
3155,Right,0,71,80,795.0,0.979167,Eighth,B4
3157,Right,0,65,80,795.5,0.979167,Eighth,F4
3159,Left,1,55,80,796.0,0.979167,Eighth,G3
3158,Right,0,74,80,796.0,0.979167,Eighth,D5
3160,Right,0,64,80,796.5,0.979167,Eighth,E4
3162,Right,0,72,80,797.0,0.979167,Eighth,C5
3161,Left,1,55,80,797.0,0.979167,Eighth,G3
3163,Right,0,62,80,797.5,0.979167,Eighth,D4
3165,Right,0,66,80,798.0,0.979167,Eighth,F#4
3164,Left,1,55,80,798.0,0.979167,Eighth,G3
3166,Right,0,60,80,798.5,0.479167,Sixteenth,C4
3169,Left,1,43,80,799.0,2.979167,DottedQuarter,G2
3167,Right,0,67,80,799.0,0.979167,Eighth,G4_B3
3170,Left,1,55,80,799.5,2.479167,TiedQuarter-Sixteenth,G3
3171,Right,0,65,80,800.0,0.979167,Eighth,F4
3173,Left,1,47,80,800.5,0.479167,Sixteenth,B2
3172,Right,0,74,80,800.5,0.479167,Sixteenth,D5
3175,Right,0,72,80,801.0,0.479167,Sixteenth,E4_C5
3174,Left,1,48,80,801.0,0.479167,Sixteenth,C3
3177,Right,0,66,80,801.5,0.479167,Sixteenth,F#4_C4
3179,Left,1,51,80,801.5,0.479167,Sixteenth,D#3
3180,Left,1,43,80,802.0,0.979167,Sixteenth,G2_D3
3182,Right,0,67,80,802.0,0.979167,Eighth,G4_B3
3184,Left,1,55,80,802.5,2.479167,TiedQuarter-Sixteenth,G3
3185,Right,0,65,80,803.0,0.979167,Eighth,F4
3186,Left,1,47,80,803.5,0.479167,Sixteenth,B2
3187,Right,0,74,80,803.5,0.479167,Sixteenth,D5
3188,Right,0,72,80,804.0,0.479167,Sixteenth,E4_C5
3190,Left,1,48,80,804.0,0.479167,Sixteenth,C3
3191,Right,0,60,80,804.5,0.479167,Sixteenth,F#4_C4
3193,Left,1,45,80,804.5,0.479167,Sixteenth,A2
3194,Right,0,67,80,805.0,0.979167,Eighth,G4_B3
3195,Left,1,43,80,805.0,2.979167,DottedQuarter,G2
3197,Left,1,55,80,805.5,2.479167,TiedQuarter-Sixteenth,G3
3198,Right,0,65,80,806.0,0.979167,Eighth,F4
3200,Right,0,74,80,806.5,0.479167,Sixteenth,D5
3199,Left,1,47,80,806.5,0.479167,Sixteenth,B2
3202,Left,1,48,80,807.0,0.479167,Sixteenth,C3
3201,Right,0,64,80,807.0,0.479167,Sixteenth,E4_C5
3205,Right,0,60,80,807.5,0.479167,Sixteenth,F#4_C4
3204,Left,1,51,80,807.5,0.479167,Sixteenth,D#3
3207,Right,0,59,80,808.0,5.979167,DottedHalf,G4_B3
3208,Left,1,55,80,808.0,5.979167,DottedHalf,G3_G2_D3
3212,Right,0,69,80,808.25,0.479167,Sixteenth,A4
3213,Right,0,67,80,808.5,0.479167,Sixteenth,G4
3214,Right,0,69,80,808.75,0.479167,Sixteenth,A4
3215,Right,0,67,80,809.0,0.479167,Sixteenth,G4
3216,Right,0,69,80,809.25,0.479167,Sixteenth,A4
3217,Right,0,67,80,809.5,0.479167,Sixteenth,G4
3218,Right,0,69,80,809.75,0.479167,Sixteenth,A4
3219,Right,0,67,80,810.0,0.479167,Sixteenth,G4
3220,Right,0,69,80,810.25,0.479167,Sixteenth,A4
3221,Right,0,67,80,810.5,0.479167,Sixteenth,G4
3222,Right,0,69,80,810.75,0.479167,Sixteenth,A4
3223,Right,0,67,80,811.0,0.479167,Sixteenth,G4
3224,Right,0,69,80,811.25,0.479167,Sixteenth,A4
3225,Right,0,67,80,811.5,0.479167,Sixteenth,G4
3226,Right,0,69,80,811.75,0.479167,Sixteenth,A4
3227,Right,0,67,80,812.0,0.479167,Sixteenth,G4
3228,Right,0,69,80,812.25,0.479167,Sixteenth,A4
3229,Right,0,67,80,812.5,0.479167,Sixteenth,G4
3230,Right,0,69,80,812.75,0.479167,Sixteenth,A4
3231,Right,0,67,80,813.0,0.479167,Sixteenth,G4
3232,Right,0,69,80,813.25,0.479167,Sixteenth,A4
3233,Right,0,67,80,813.5,0.479167,Sixteenth,G4
3234,Right,0,69,80,813.75,0.479167,Sixteenth,A4
3235,Right,0,67,80,814.0,0.229167,ThirtySecond,G4
3236,Right,0,66,80,814.145833,0.229167,ThirtySecond,F#4
3237,Right,0,67,80,814.28125,0.229167,ThirtySecond,G4
3238,Right,0,62,80,814.5,0.229167,ThirtySecond,D4
3239,Right,0,64,80,814.625,0.229167,ThirtySecond,E4
3240,Right,0,66,80,814.75,0.229167,ThirtySecond,F#4
3241,Right,0,67,80,814.875,0.229167,ThirtySecond,G4
3242,Right,0,69,80,815.0,0.229167,ThirtySecond,A4
3243,Right,0,67,80,815.125,0.229167,ThirtySecond,G4
3244,Right,0,66,80,815.25,0.229167,ThirtySecond,F#4
3245,Right,0,67,80,815.375,0.229167,ThirtySecond,G4
3246,Right,0,69,80,815.5,0.229167,ThirtySecond,A4
3247,Right,0,71,80,815.625,0.229167,ThirtySecond,B4
3248,Right,0,72,80,815.75,0.229167,ThirtySecond,C5
3249,Right,0,71,80,815.875,0.229167,ThirtySecond,B4
3250,Right,0,69,80,816.0,0.229167,ThirtySecond,A4
3251,Right,0,71,80,816.125,0.229167,ThirtySecond,B4
3252,Right,0,72,80,816.25,0.229167,ThirtySecond,C5
3253,Right,0,74,80,816.375,0.229167,ThirtySecond,D5
3254,Right,0,76,80,816.5,0.229167,ThirtySecond,E5
3255,Right,0,74,80,816.625,0.229167,ThirtySecond,D5
3256,Right,0,73,80,816.75,0.229167,ThirtySecond,C#5
3257,Right,0,74,80,816.875,0.229167,ThirtySecond,D5
3258,Right,0,76,80,817.0,0.479167,Sixteenth,E5
3259,Right,0,78,80,817.125,0.479167,Sixteenth,F#5
3260,Right,0,81,80,817.375,0.479167,Sixteenth,A5
3261,Right,0,79,80,817.5,0.229167,ThirtySecond,G5
3262,Right,0,78,80,817.625,0.479167,Sixteenth,F#5
3263,Right,0,79,80,817.75,0.229167,ThirtySecond,G5
3264,Right,0,81,80,817.875,0.479167,Sixteenth,A5
3265,Right,0,84,80,818.125,0.479167,Sixteenth,C6
3266,Right,0,83,80,818.25,0.229167,ThirtySecond,B5
3267,Right,0,81,80,818.375,0.479167,Sixteenth,A5
3268,Right,0,83,80,818.5,0.229167,ThirtySecond,B5
3269,Right,0,86,80,818.75,0.479167,Sixteenth,D6
3270,Right,0,84,80,818.875,0.229167,ThirtySecond,C6
3271,Right,0,83,80,819.0,0.479167,Sixteenth,B5
3272,Right,0,81,80,819.375,0.229167,ThirtySecond,A5
3273,Right,0,79,80,819.5,0.229167,ThirtySecond,G5
3274,Right,0,78,80,819.625,0.479167,Sixteenth,F#5
3275,Right,0,79,80,819.75,0.229167,ThirtySecond,G5
3276,Right,0,84,80,820.125,0.479167,Sixteenth,C6
3277,Right,0,81,80,820.25,0.229167,SixtyFourth,B5_A5
3279,Right,0,83,80,820.5,0.229167,ThirtySecond,B5
3280,Right,0,86,80,820.75,0.479167,Sixteenth,D6
3281,Right,0,84,80,820.875,0.229167,ThirtySecond,C6
3282,Right,0,83,80,821.0,0.479167,Sixteenth,B5
3283,Right,0,81,80,821.375,0.229167,ThirtySecond,A5
3284,Right,0,79,80,821.5,0.229167,ThirtySecond,G5
3285,Right,0,78,80,821.625,0.479167,Sixteenth,F#5
3286,Right,0,79,80,821.75,0.229167,ThirtySecond,G5
3287,Right,0,81,80,821.875,0.479167,Sixteenth,A5
3288,Right,0,85,80,822.125,0.479167,Sixteenth,C#6
3289,Right,0,83,80,822.25,0.229167,ThirtySecond,B5
3290,Right,0,81,80,822.375,0.479167,Sixteenth,A5
3291,Right,0,83,80,822.5,0.229167,ThirtySecond,B5
3292,Right,0,85,80,822.625,0.479167,Sixteenth,C#6
3293,Right,0,88,80,822.875,0.479167,Sixteenth,E6
3294,Right,0,86,80,823.0,0.229167,ThirtySecond,D6
3295,Right,0,85,80,823.125,0.479167,Sixteenth,C#6
3296,Right,0,86,80,823.25,0.229167,ThirtySecond,D6
3297,Right,0,89,80,823.5,0.479167,Sixteenth,F6
3298,Right,0,88,80,823.625,0.229167,ThirtySecond,E6
3299,Right,0,86,80,823.75,0.479167,Sixteenth,D6
3300,Right,0,84,80,824.125,0.229167,ThirtySecond,C6
3301,Right,0,83,80,824.25,0.229167,ThirtySecond,B5
3302,Right,0,81,80,824.375,0.479167,Sixteenth,A5
3303,Right,0,83,80,824.5,0.229167,ThirtySecond,B5
3304,Right,0,84,80,824.625,0.479167,Sixteenth,C6
3305,Right,0,88,80,824.875,0.479167,Sixteenth,E6
3306,Right,0,86,80,825.0,0.229167,ThirtySecond,D6
3307,Right,0,85,80,825.125,0.479167,Sixteenth,C#6
3308,Right,0,86,80,825.25,0.229167,ThirtySecond,D6
3309,Right,0,89,80,825.5,0.479167,Sixteenth,F6
3310,Right,0,88,80,825.625,0.229167,ThirtySecond,E6
3311,Right,0,86,80,825.75,0.479167,Sixteenth,D6
3312,Right,0,83,80,826.0,0.479167,Sixteenth,B5
3313,Right,0,84,80,826.125,0.229167,ThirtySecond,C6
3314,Right,0,85,80,826.25,0.479167,Sixteenth,C#6
3315,Right,0,86,80,826.375,0.479167,Sixteenth,D6
3316,Right,0,77,80,826.5,0.479167,Sixteenth,F5
3317,Right,0,79,80,826.625,0.479167,Sixteenth,G5
3318,Right,0,80,80,826.75,0.479167,Sixteenth,G#5
3319,Right,0,81,80,826.875,0.479167,Sixteenth,A5
3320,Right,0,74,80,827.0,0.479167,Sixteenth,D5
3321,Right,0,75,80,827.125,0.479167,Sixteenth,D#5
3322,Right,0,76,80,827.25,0.479167,Sixteenth,E5
3323,Right,0,77,80,827.375,0.479167,Sixteenth,F5
3324,Right,0,71,80,827.5,0.479167,Sixteenth,B4
3325,Right,0,72,80,827.625,0.479167,Sixteenth,C5
3326,Right,0,73,80,827.75,0.479167,Sixteenth,C#5
3327,Right,0,74,80,827.875,0.479167,Sixteenth,D5
3328,Right,0,67,80,828.0,0.479167,Sixteenth,G4
3329,Right,0,68,80,828.125,0.479167,Sixteenth,G#4
3330,Right,0,69,80,828.25,0.479167,Sixteenth,A4
3331,Right,0,70,80,828.375,0.479167,Sixteenth,A#4
3332,Right,0,71,80,828.5,0.479167,Sixteenth,B4
3333,Right,0,72,80,828.625,0.604167,Triplet,C5
3334,Right,0,73,80,828.75,0.354167,TripletSixteenth,C#5
3335,Right,0,74,80,828.875,0.479167,Sixteenth,D5
3336,Right,0,75,80,829.0,0.479167,Sixteenth,D#5
3337,Right,0,76,80,829.125,0.479167,Sixteenth,E5
3338,Right,0,77,80,829.25,0.479167,Sixteenth,F5
3339,Right,0,78,80,829.375,0.479167,Sixteenth,F#5
3340,Right,0,79,80,829.5,0.479167,Sixteenth,G5
3341,Right,0,80,80,829.75,0.479167,Sixteenth,G#5
3342,Right,0,83,80,830.0,0.78125,DottedSixteenth,B5
3343,Right,0,81,80,830.5,0.75,DottedSixteenth,A5
3344,Right,0,79,80,831.0,0.791667,DottedSixteenth,G5
3345,Right,0,77,80,831.5,0.78125,Sixteenth,F5
3346,Right,0,76,80,832.0,0.729167,DottedSixteenth,E5
3347,Right,0,74,80,832.5,0.479167,Sixteenth,D5
3348,Right,0,72,80,833.0,0.479167,Sixteenth,C5
3349,Left,1,52,70,833.0,0.479167,Sixteenth,E3_C3
3351,Right,0,74,80,833.25,0.479167,Sixteenth,D5
3354,Right,0,72,80,833.5,0.479167,Sixteenth,C5
3352,Left,1,52,70,833.5,0.479167,Sixteenth,G3_E3
3355,Right,0,74,80,833.75,0.479167,Sixteenth,D5
3357,Left,1,55,70,834.0,0.479167,Sixteenth,G3_C4
3356,Right,0,72,80,834.0,0.479167,Sixteenth,C5
3359,Right,0,74,80,834.25,0.479167,Sixteenth,D5
3361,Left,1,52,70,834.5,0.479167,Sixteenth,G3_E3
3360,Right,0,72,80,834.5,0.479167,Sixteenth,C5
3363,Right,0,74,80,834.75,0.479167,Sixteenth,D5
3364,Left,1,52,70,835.0,0.479167,Sixteenth,E3_C3
3366,Right,0,72,80,835.0,0.479167,Sixteenth,C5
3367,Right,0,74,80,835.25,0.479167,Sixteenth,D5
3368,Left,1,52,70,835.5,0.479167,Sixteenth,G3_E3
3370,Right,0,72,80,835.5,0.479167,Sixteenth,C5
3371,Right,0,74,80,835.75,0.479167,Sixteenth,D5
3373,Left,1,48,70,836.0,0.479167,Sixteenth,E3_C3
3372,Right,0,72,80,836.0,0.479167,Sixteenth,C5
3375,Right,0,74,80,836.25,0.479167,Sixteenth,D5
3376,Left,1,55,70,836.5,0.479167,Sixteenth,G3_E3
3378,Right,0,72,80,836.5,0.479167,Sixteenth,C5
3379,Right,0,74,80,836.75,0.479167,Sixteenth,D5
3380,Left,1,55,70,837.0,0.479167,Sixteenth,G3_C4
3381,Right,0,72,80,837.0,0.479167,Sixteenth,C5
3383,Right,0,74,80,837.25,0.479167,Sixteenth,D5
3384,Left,1,52,70,837.5,0.479167,Sixteenth,G3_E3
3385,Right,0,72,80,837.5,0.479167,Sixteenth,C5
3387,Right,0,74,80,837.75,0.479167,Sixteenth,D5
3389,Left,1,52,70,838.0,0.479167,Sixteenth,E3_C3
3388,Right,0,72,80,838.0,0.479167,Sixteenth,C5
3391,Right,0,74,80,838.25,0.479167,Sixteenth,D5
3394,Right,0,71,80,838.5,0.479167,Sixteenth,B4
3392,Left,1,52,70,838.5,0.479167,Sixteenth,G3_E3
3395,Right,0,72,80,838.75,0.229167,ThirtySecond,C5
3397,Right,0,76,80,839.0,2.729167,TiedQuarter-Sixteenth,E5
3396,Left,1,52,70,839.0,0.479167,Sixteenth,E3_C3
3399,Left,1,55,70,839.5,0.479167,Sixteenth,G3_E3
3401,Left,1,60,70,840.0,0.479167,Sixteenth,G3_C4
3403,Left,1,52,70,840.5,0.479167,Sixteenth,G3_E3
3405,Left,1,52,70,841.0,0.479167,Sixteenth,E3_C3
3407,Left,1,55,70,841.5,0.479167,Sixteenth,G3_E3
3409,Right,0,72,80,841.75,0.229167,ThirtySecond,C5
3410,Right,0,67,80,842.0,4.979167,Half,G4
3411,Left,1,48,70,842.0,0.479167,Sixteenth,E3_C3
3413,Left,1,55,70,842.5,0.479167,Sixteenth,G3_E3
3415,Left,1,60,70,843.0,0.479167,Sixteenth,G3_C4
3417,Left,1,55,70,843.5,0.479167,Sixteenth,G3_E3
3419,Left,1,52,70,844.0,0.479167,Sixteenth,E3_C3
3421,Left,1,52,70,844.5,0.479167,Sixteenth,G3_E3
3423,Left,1,52,70,845.0,0.479167,Sixteenth,E3_C3
3425,Left,1,52,70,845.5,0.479167,Sixteenth,G3_E3
3427,Left,1,55,70,846.0,0.479167,Sixteenth,G3_C4
3429,Left,1,52,70,846.5,0.479167,Sixteenth,G3_E3
3433,Right,0,66,80,847.0,0.479167,Sixteenth,F#4
3431,Left,1,52,70,847.0,0.479167,Sixteenth,E3_C3
3436,Right,0,67,80,847.5,0.479167,Sixteenth,G4
3434,Left,1,52,70,847.5,0.479167,Sixteenth,G3_E3
3437,Left,1,52,70,848.0,0.479167,Sixteenth,E3_C3
3439,Right,0,68,80,848.0,0.479167,Sixteenth,G#4
3440,Left,1,55,70,848.5,0.479167,Sixteenth,G3_E3
3441,Right,0,69,80,848.5,0.479167,Sixteenth,A4
3443,Left,1,60,70,849.0,0.479167,Sixteenth,G3_C4
3444,Right,0,70,80,849.0,0.479167,Sixteenth,A#4
3447,Left,1,52,70,849.5,0.479167,Sixteenth,G3_E3
3446,Right,0,71,80,849.5,0.479167,Sixteenth,B4
3450,Left,1,48,70,850.0,0.479167,Sixteenth,E3_C3
3449,Right,0,72,80,850.0,0.479167,Sixteenth,C5
3453,Left,1,52,70,850.5,0.479167,Sixteenth,G3_E3
3452,Right,0,73,80,850.5,0.479167,Sixteenth,C#5
3457,Right,0,74,80,851.0,0.479167,Sixteenth,D5
3455,Left,1,47,70,851.0,0.479167,Sixteenth,F3_B2
3458,Right,0,76,80,851.25,0.479167,Sixteenth,E5
3460,Right,0,74,80,851.5,0.479167,Sixteenth,D5
3459,Left,1,55,70,851.5,0.479167,Sixteenth,G3_F3
3462,Right,0,76,80,851.75,0.479167,Sixteenth,E5
3463,Left,1,62,70,852.0,0.479167,Sixteenth,G3_D4
3464,Right,0,74,80,852.0,0.479167,Sixteenth,D5
3466,Right,0,76,80,852.25,0.479167,Sixteenth,E5
3467,Left,1,53,70,852.5,0.479167,Sixteenth,G3_F3
3468,Right,0,74,80,852.5,0.479167,Sixteenth,D5
3470,Right,0,76,80,852.75,0.479167,Sixteenth,E5
3471,Left,1,53,70,853.0,0.479167,Sixteenth,F3_B2
3473,Right,0,74,80,853.0,0.479167,Sixteenth,D5
3474,Right,0,76,80,853.25,0.479167,Sixteenth,E5
3475,Left,1,53,70,853.5,0.479167,Sixteenth,G3_F3
3477,Right,0,74,80,853.5,0.479167,Sixteenth,D5
3478,Right,0,76,80,853.75,0.479167,Sixteenth,E5
3480,Left,1,53,70,854.0,0.479167,Sixteenth,F3_B2
3479,Right,0,74,80,854.0,0.479167,Sixteenth,D5
3482,Right,0,76,80,854.25,0.479167,Sixteenth,E5
3483,Right,0,74,80,854.5,0.479167,Sixteenth,D5
3484,Left,1,55,70,854.5,0.479167,Sixteenth,G3_F3
3486,Right,0,76,80,854.75,0.479167,Sixteenth,E5
3487,Left,1,62,70,855.0,0.479167,Sixteenth,G3_D4
3489,Right,0,74,80,855.0,0.479167,Sixteenth,D5
3490,Right,0,76,80,855.25,0.479167,Sixteenth,E5
3491,Right,0,74,80,855.5,0.479167,Sixteenth,D5
3492,Left,1,55,70,855.5,0.479167,Sixteenth,G3_F3
3494,Right,0,76,80,855.75,0.479167,Sixteenth,E5
3495,Right,0,74,80,856.0,0.479167,Sixteenth,D5
3496,Left,1,53,70,856.0,0.479167,Sixteenth,F3_B2
3498,Right,0,73,80,856.5,0.479167,Sixteenth,E5_C#5
3500,Left,1,53,70,856.5,0.479167,Sixteenth,G3_F3
3502,Right,0,74,80,856.75,0.229167,ThirtySecond,D5
3504,Left,1,47,70,857.0,0.479167,Sixteenth,F3_B2
3503,Right,0,79,80,857.0,2.354167,TiedQuarter-ThirtySecond,G5
3506,Left,1,55,70,857.5,0.479167,Sixteenth,G3_F3
3508,Left,1,55,70,858.0,0.479167,Sixteenth,G3_D4
3510,Left,1,53,70,858.5,0.479167,Sixteenth,G3_F3
3512,Left,1,53,70,859.0,0.479167,Sixteenth,F3_B2
3514,Right,0,77,80,859.375,0.229167,ThirtySecond,F5
3516,Right,0,76,80,859.5,0.229167,ThirtySecond,E5
3515,Left,1,55,70,859.5,0.479167,Sixteenth,G3_F3
3518,Right,0,74,80,859.625,0.229167,ThirtySecond,D5
3519,Right,0,72,80,859.75,0.229167,ThirtySecond,C5
3520,Right,0,71,80,859.875,0.104167,SixtyFourth,B4
3521,Left,1,47,70,860.0,0.479167,Sixteenth,F3_B2
3522,Right,0,69,80,860.0,0.979167,Eighth,A4
3524,Left,1,53,70,860.5,0.479167,Sixteenth,G3_F3
3527,Left,1,55,70,861.0,0.479167,Sixteenth,G3_D4
3526,Right,0,67,80,861.0,3.979167,Half,G4
3529,Left,1,55,70,861.5,0.479167,Sixteenth,G3_F3
3531,Left,1,53,70,862.0,0.479167,Sixteenth,F3_B2
3533,Left,1,55,70,862.5,0.479167,Sixteenth,G3_F3
3535,Left,1,53,70,863.0,0.479167,Sixteenth,F3_B2
3537,Left,1,55,70,863.5,0.479167,Sixteenth,G3_F3
3539,Left,1,62,70,864.0,0.479167,Sixteenth,G3_D4
3541,Left,1,53,70,864.5,0.479167,Sixteenth,G3_F3
3545,Right,0,67,80,865.0,0.479167,Sixteenth,G4
3543,Left,1,47,70,865.0,0.479167,Sixteenth,F3_B2
3548,Right,0,69,80,865.5,0.479167,Sixteenth,A4
3546,Left,1,53,70,865.5,0.479167,Sixteenth,G3_F3
3549,Left,1,43,70,866.0,0.479167,Sixteenth,G2_F3
3551,Right,0,70,80,866.0,0.479167,Sixteenth,A#4
3553,Left,1,55,70,866.5,0.479167,Sixteenth,G3_F3
3552,Right,0,71,80,866.5,0.479167,Sixteenth,B4
3555,Right,0,72,80,867.0,0.479167,Sixteenth,C5
3556,Left,1,59,70,867.0,0.479167,Sixteenth,G3_B3
3559,Right,0,73,80,867.5,0.479167,Sixteenth,C#5
3558,Left,1,53,70,867.5,0.479167,Sixteenth,G3_F3
3562,Right,0,74,80,868.0,0.479167,Sixteenth,D5
3561,Left,1,53,70,868.0,0.479167,Sixteenth,G2_F3
3566,Right,0,75,80,868.5,0.479167,Sixteenth,D#5
3564,Left,1,55,70,868.5,0.479167,Sixteenth,G3_F3
3567,Left,1,52,70,869.0,0.479167,Sixteenth,E3_C3
3568,Right,0,76,80,869.0,0.479167,Sixteenth,E5
3570,Right,0,77,80,869.28125,0.479167,Sixteenth,F5
3571,Left,1,55,70,869.5,0.479167,Sixteenth,G3
3572,Right,0,76,80,869.541667,0.479167,Sixteenth,E5
3573,Right,0,75,80,869.802083,0.479167,Sixteenth,D#5
3574,Left,1,60,70,870.0,0.479167,Sixteenth,C4
3575,Right,0,76,80,870.0625,0.479167,Sixteenth,E5
3576,Right,0,72,80,870.322917,0.479167,Sixteenth,C5
3577,Left,1,55,70,870.5,0.479167,Sixteenth,G3
3578,Right,0,71,80,870.59375,0.479167,Sixteenth,B4
3579,Right,0,72,80,870.854167,0.479167,Sixteenth,C5
3580,Left,1,52,70,871.0,0.479167,Sixteenth,E3
3581,Right,0,84,80,871.125,0.479167,Sixteenth,C6
3582,Right,0,83,80,871.395833,0.479167,Sixteenth,B5
3583,Left,1,48,70,871.5,0.479167,Sixteenth,C3
3584,Right,0,84,80,871.6875,0.479167,Sixteenth,C6
3586,Left,1,45,70,872.0,0.479167,Sixteenth,A2
3585,Right,0,77,80,872.0,0.479167,Sixteenth,F5
3587,Right,0,79,80,872.28125,0.479167,Sixteenth,G5
3588,Left,1,57,70,872.5,0.479167,Sixteenth,A3
3589,Right,0,77,80,872.541667,0.479167,Sixteenth,F5
3590,Right,0,76,80,872.802083,0.479167,Sixteenth,E5
3591,Left,1,60,70,873.0,0.479167,Sixteenth,C4
3592,Right,0,77,80,873.0625,0.479167,Sixteenth,F5
3593,Right,0,72,80,873.322917,0.479167,Sixteenth,C5
3594,Left,1,57,70,873.5,0.479167,Sixteenth,A3
3595,Right,0,71,80,873.59375,0.479167,Sixteenth,B4
3596,Right,0,72,80,873.854167,0.479167,Sixteenth,C5
3597,Left,1,53,70,874.0,0.479167,Sixteenth,F3
3598,Right,0,84,80,874.125,0.479167,Sixteenth,C6
3599,Right,0,83,80,874.385417,0.479167,Sixteenth,B5
3600,Left,1,48,70,874.5,0.479167,Sixteenth,C3
3601,Right,0,84,80,874.697917,0.479167,Sixteenth,C6
3602,Left,1,40,70,875.0,0.479167,Sixteenth,E2
3603,Right,0,79,80,875.0,0.479167,Sixteenth,G5
3604,Right,0,81,80,875.28125,0.479167,Sixteenth,A5
3605,Left,1,55,70,875.5,0.479167,Sixteenth,G3
3606,Right,0,79,80,875.541667,0.479167,Sixteenth,G5
3607,Right,0,78,80,875.802083,0.479167,Sixteenth,F#5
3608,Left,1,60,70,876.0,0.479167,Sixteenth,C4
3609,Right,0,79,80,876.0625,0.479167,Sixteenth,G5
3610,Right,0,72,80,876.322917,0.479167,Sixteenth,C5
3611,Left,1,55,70,876.5,0.479167,Sixteenth,G3
3612,Right,0,71,80,876.59375,0.479167,Sixteenth,B4
3613,Right,0,72,80,876.854167,0.479167,Sixteenth,C5
3614,Left,1,52,70,877.0,0.479167,Sixteenth,E3
3615,Right,0,84,80,877.125,0.479167,Sixteenth,C6
3616,Right,0,83,80,877.395833,0.479167,Sixteenth,B5
3617,Left,1,48,70,877.5,0.479167,Sixteenth,C3
3618,Right,0,84,80,877.6875,0.479167,Sixteenth,C6
3620,Left,1,41,70,878.0,0.479167,Sixteenth,F2
3619,Right,0,80,80,878.0,0.479167,Sixteenth,G#5
3622,Right,0,81,82,878.5,0.979167,Eighth,A5
3621,Left,1,53,70,878.5,0.479167,Sixteenth,F3_A3
3624,Left,1,57,70,879.0,0.479167,Sixteenth,C4_A3
3626,Right,0,81,87,879.5,0.979167,Eighth,A5
3627,Left,1,53,70,879.5,0.479167,Sixteenth,F3_A3
3629,Left,1,60,70,880.0,0.479167,Sixteenth,C4_A3
3632,Right,0,81,92,880.5,0.979167,Eighth,A5
3631,Left,1,57,70,880.5,0.479167,Sixteenth,F3_A3
3634,Left,1,41,70,881.0,0.479167,Sixteenth,F2
3635,Left,1,53,70,881.5,0.479167,Sixteenth,F3_A3
3637,Right,0,81,97,881.5,0.979167,Eighth,A5
3638,Left,1,57,70,882.0,0.479167,Sixteenth,C#4_A3
3641,Left,1,57,70,882.5,0.479167,Sixteenth,F3_A3
3640,Right,0,81,102,882.5,0.979167,Eighth,A5
3643,Left,1,61,70,883.0,0.479167,Sixteenth,C#4_A3
3645,Left,1,57,70,883.5,0.479167,Sixteenth,F3_A3
3647,Right,0,81,107,883.5,0.979167,Eighth,A5
3648,Left,1,41,70,884.0,0.479167,Sixteenth,F2
3649,Left,1,57,70,884.5,0.479167,Sixteenth,F3_A3
3651,Right,0,76,80,884.5,0.479167,Sixteenth,E5
3654,Right,0,79,80,885.0,0.104167,SixtyFourth,G5
3652,Left,1,62,70,885.0,0.479167,Sixteenth,D4_A3
3655,Right,0,77,80,885.125,0.333333,TripletSixteenth,F5
3657,Left,1,57,70,885.5,0.479167,Sixteenth,F3_A3
3656,Right,0,76,80,885.5,0.479167,Sixteenth,E5
3659,Right,0,77,80,886.0,0.479167,Sixteenth,F5
3660,Left,1,57,70,886.0,0.479167,Sixteenth,D4_A3
3662,Left,1,57,70,886.5,0.479167,Sixteenth,F3_A3
3663,Right,0,74,80,886.5,0.479167,Sixteenth,D5
3665,Right,0,72,80,887.0,0.229167,ThirtySecond,C5
3666,Left,1,43,70,887.0,0.479167,Sixteenth,G2
3667,Right,0,74,80,887.25,0.229167,ThirtySecond,D5
3669,Left,1,55,70,887.5,0.479167,Sixteenth,G3_C4
3668,Right,0,72,80,887.5,0.229167,ThirtySecond,C5
3671,Right,0,71,80,887.75,0.229167,ThirtySecond,B4
3672,Left,1,64,70,888.0,0.479167,Sixteenth,E4_C4
3674,Right,0,72,82,888.25,0.229167,ThirtySecond,C5
3675,Left,1,60,70,888.5,0.479167,Sixteenth,G3_C4
3677,Right,0,74,85,888.75,0.229167,ThirtySecond,D5
3678,Left,1,60,70,889.0,0.479167,Sixteenth,E4_C4
3680,Right,0,76,88,889.25,0.229167,ThirtySecond,E5
3681,Left,1,60,70,889.5,0.479167,Sixteenth,G3_C4
3683,Right,0,77,90,889.75,0.229167,ThirtySecond,F5
3684,Left,1,64,70,890.0,0.479167,Sixteenth,E4_C4
3686,Right,0,79,93,890.25,0.229167,ThirtySecond,G5
3687,Left,1,60,70,890.5,0.479167,Sixteenth,G3_C4
3689,Right,0,81,96,890.75,0.229167,ThirtySecond,A5
3690,Left,1,60,70,891.0,0.479167,Sixteenth,E4_C4
3692,Right,0,83,99,891.25,0.229167,ThirtySecond,B5
3693,Left,1,55,70,891.5,0.479167,Sixteenth,G3_C4
3695,Right,0,84,101,891.75,0.229167,ThirtySecond,C6
3696,Left,1,60,70,892.0,0.479167,Sixteenth,E4_C4
3698,Right,0,86,104,892.25,0.229167,ThirtySecond,D6
3699,Left,1,60,70,892.5,0.479167,Sixteenth,G3_C4
3701,Right,0,88,107,892.75,0.229167,ThirtySecond,E6
3702,Left,1,43,70,893.0,0.479167,Sixteenth,G2
3703,Right,0,86,108,893.0,0.229167,ThirtySecond,D6
3704,Right,0,88,109,893.125,0.229167,ThirtySecond,E6
3705,Right,0,89,109,893.25,0.729167,DottedSixteenth,F6
3706,Left,1,62,70,893.5,0.479167,Sixteenth,G3_D4
3708,Left,1,62,70,894.0,0.479167,Sixteenth,F4_D4
3710,Left,1,55,70,894.5,0.479167,Sixteenth,G3_D4
3713,Left,1,62,70,895.0,0.479167,Sixteenth,F4_D4
3712,Right,0,71,110,895.0,0.979167,Eighth,B4
3715,Left,1,62,70,895.5,0.479167,Sixteenth,G3_D4
3719,Left,1,60,70,896.0,0.979167,Eighth,C4_C3
3717,Right,0,64,110,896.0,0.979167,Eighth,E4_C5
3721,Right,0,67,80,897.0,0.979167,Eighth,G4
3722,Right,0,65,80,898.0,0.979167,Eighth,F4
3723,Right,0,64,80,899.0,0.979167,Eighth,E4
3724,Right,0,62,80,900.0,0.979167,Eighth,D4
3725,Right,0,60,80,901.0,0.979167,Eighth,C4
3726,Right,0,59,80,902.0,0.479167,Sixteenth,B3
3727,Right,0,60,80,902.5,0.479167,Sixteenth,C4
3728,Right,0,59,80,903.0,0.479167,Sixteenth,B3
3729,Right,0,60,80,903.5,0.479167,Sixteenth,C4
3730,Right,0,62,80,904.0,0.479167,Sixteenth,D4
3731,Right,0,60,80,904.5,0.479167,Sixteenth,C4
3733,Right,0,60,80,905.0,0.479167,Sixteenth,C4
3732,Left,1,38,80,905.0,0.979167,Eighth,D2
3734,Right,0,62,80,905.25,0.479167,Sixteenth,D4
3735,Right,0,60,80,905.5,0.479167,Sixteenth,C4
3736,Right,0,62,80,905.75,0.479167,Sixteenth,D4
3738,Right,0,60,80,906.0,0.479167,Sixteenth,C4
3737,Left,1,50,80,906.0,0.979167,Eighth,D3
3739,Right,0,62,80,906.25,0.479167,Sixteenth,D4
3740,Right,0,60,80,906.5,0.479167,Sixteenth,C4
3741,Right,0,62,80,906.75,0.479167,Sixteenth,D4
3742,Left,1,57,80,907.0,0.979167,Eighth,A3
3743,Right,0,60,80,907.0,0.479167,Sixteenth,C4
3744,Right,0,62,80,907.25,0.479167,Sixteenth,D4
3745,Right,0,60,80,907.5,0.479167,Sixteenth,C4
3746,Right,0,62,80,907.75,0.479167,Sixteenth,D4
3748,Right,0,60,80,908.0,2.979167,Sixteenth,F#4_C4
3747,Left,1,38,80,908.0,0.979167,Eighth,D2
3750,Right,0,62,80,908.25,0.479167,Sixteenth,D4
3751,Right,0,60,80,908.5,0.479167,Sixteenth,C4
3752,Right,0,62,80,908.75,0.479167,Sixteenth,D4
3753,Left,1,50,80,909.0,0.979167,Eighth,D3
3754,Right,0,60,80,909.0,0.479167,Sixteenth,C4
3755,Right,0,62,80,909.25,0.479167,Sixteenth,D4
3756,Right,0,60,80,909.5,0.479167,Sixteenth,C4
3757,Right,0,62,80,909.75,0.479167,Sixteenth,D4
3759,Right,0,60,80,910.0,0.479167,Sixteenth,C4
3758,Left,1,57,80,910.0,0.979167,Eighth,A3
3760,Right,0,62,80,910.25,0.479167,Sixteenth,D4
3761,Right,0,60,80,910.5,0.479167,Sixteenth,C4
3762,Right,0,62,80,910.75,0.479167,Sixteenth,D4
3763,Right,0,65,80,911.0,2.979167,Sixteenth,F4_B3
3765,Left,1,43,80,911.0,0.979167,Eighth,G2
3766,Right,0,67,80,911.25,0.479167,Sixteenth,G4
3767,Right,0,65,80,911.5,0.479167,Sixteenth,F4
3768,Right,0,67,80,911.75,0.479167,Sixteenth,G4
3770,Right,0,65,80,912.0,0.479167,Sixteenth,F4
3769,Left,1,50,80,912.0,0.979167,Eighth,D3
3771,Right,0,67,80,912.25,0.479167,Sixteenth,G4
3772,Right,0,65,80,912.5,0.479167,Sixteenth,F4
3773,Right,0,67,80,912.75,0.479167,Sixteenth,G4
3775,Right,0,65,80,913.0,0.479167,Sixteenth,F4
3774,Left,1,55,80,913.0,0.979167,Eighth,G3
3776,Right,0,67,80,913.25,0.479167,Sixteenth,G4
3777,Right,0,65,80,913.5,0.479167,Sixteenth,F4
3778,Right,0,67,80,913.75,0.479167,Sixteenth,G4
3780,Left,1,36,80,914.0,0.979167,Eighth,C2
3779,Right,0,58,80,914.0,0.479167,Sixteenth,A#3
3781,Right,0,60,80,914.25,0.479167,Sixteenth,C4
3782,Right,0,58,80,914.5,0.479167,Sixteenth,A#3
3783,Right,0,60,80,914.75,0.479167,Sixteenth,C4
3785,Right,0,58,80,915.0,0.479167,Sixteenth,A#3
3784,Left,1,48,80,915.0,0.979167,Eighth,C3
3786,Right,0,60,80,915.25,0.479167,Sixteenth,C4
3787,Right,0,58,80,915.5,0.479167,Sixteenth,A#3
3788,Right,0,60,80,915.75,0.479167,Sixteenth,C4
3790,Right,0,58,80,916.0,0.479167,Sixteenth,A#3
3789,Left,1,55,80,916.0,0.979167,Eighth,G3
3791,Right,0,60,80,916.25,0.479167,Sixteenth,C4
3792,Right,0,58,80,916.5,0.479167,Sixteenth,A#3
3793,Right,0,60,80,916.75,0.479167,Sixteenth,C4
3795,Left,1,36,80,917.0,0.979167,Eighth,C2
3794,Right,0,64,80,917.0,2.979167,DottedQuarter,E4_A#3
3797,Right,0,60,80,917.25,0.479167,Sixteenth,C4
3798,Right,0,58,80,917.5,0.479167,Sixteenth,A#3
3799,Right,0,60,80,917.75,0.479167,Sixteenth,C4
3800,Left,1,48,80,918.0,0.979167,Eighth,C3
3801,Right,0,58,80,918.0,0.479167,Sixteenth,A#3
3802,Right,0,60,80,918.25,0.479167,Sixteenth,C4
3803,Right,0,58,80,918.5,0.479167,Sixteenth,A#3
3804,Right,0,60,80,918.75,0.479167,Sixteenth,C4
3805,Right,0,58,80,919.0,0.479167,Sixteenth,A#3
3806,Left,1,55,80,919.0,0.979167,Eighth,G3
3807,Right,0,60,80,919.25,0.479167,Sixteenth,C4
3808,Right,0,58,80,919.5,0.479167,Sixteenth,A#3
3809,Right,0,60,80,919.75,0.479167,Sixteenth,C4
3810,Right,0,65,80,920.0,2.979167,Sixteenth,F4_A3
3812,Left,1,41,80,920.0,0.979167,Eighth,F2
3813,Right,0,67,80,920.25,0.479167,Sixteenth,G4
3814,Right,0,65,80,920.5,0.479167,Sixteenth,F4
3815,Right,0,67,80,920.75,0.479167,Sixteenth,G4
3817,Left,1,48,80,921.0,0.979167,Eighth,C3
3816,Right,0,65,80,921.0,0.479167,Sixteenth,F4
3818,Right,0,67,80,921.25,0.479167,Sixteenth,G4
3819,Right,0,65,80,921.5,0.479167,Sixteenth,F4
3820,Right,0,67,80,921.75,0.479167,Sixteenth,G4
3822,Right,0,65,80,922.0,0.479167,Sixteenth,F4
3821,Left,1,53,80,922.0,0.979167,Eighth,F3
3823,Right,0,67,80,922.25,0.479167,Sixteenth,G4
3824,Right,0,65,80,922.5,0.479167,Sixteenth,F4
3825,Right,0,67,80,922.75,0.479167,Sixteenth,G4
3826,Left,1,41,80,923.0,0.979167,Eighth,F2
3827,Right,0,65,82,923.0,0.979167,Eighth,F4_A4
3829,Right,0,71,83,923.125,0.229167,ThirtySecond,B4
3830,Right,0,69,84,923.25,0.229167,ThirtySecond,A4
3831,Right,0,71,85,923.375,0.229167,ThirtySecond,B4
3832,Right,0,69,86,923.5,0.229167,ThirtySecond,A4
3833,Right,0,71,88,923.625,0.229167,ThirtySecond,B4
3834,Right,0,68,89,923.75,0.229167,ThirtySecond,G#4
3835,Right,0,72,91,924.0,0.229167,ThirtySecond,C5_A4
3837,Left,1,53,80,924.0,0.979167,Eighth,F3_A3
3839,Right,0,74,92,924.125,0.229167,ThirtySecond,D5
3840,Right,0,72,93,924.25,0.229167,ThirtySecond,C5
3841,Right,0,74,94,924.375,0.229167,ThirtySecond,D5
3842,Right,0,72,96,924.5,0.229167,ThirtySecond,C5
3843,Right,0,74,97,924.625,0.229167,ThirtySecond,D5
3844,Right,0,71,98,924.75,0.229167,ThirtySecond,B4
3845,Left,1,60,80,925.0,0.979167,Eighth,C4_A3
3847,Right,0,72,100,925.0,0.229167,SixtyFourth,F5_C5
3849,Right,0,79,101,925.125,0.229167,ThirtySecond,G5
3850,Right,0,77,103,925.25,0.229167,ThirtySecond,F5
3851,Right,0,79,104,925.375,0.229167,ThirtySecond,G5
3852,Right,0,77,105,925.5,0.229167,ThirtySecond,F5
3853,Right,0,79,106,925.625,0.229167,ThirtySecond,G5
3854,Right,0,76,107,925.75,0.229167,ThirtySecond,E5
3855,Right,0,77,109,926.0,0.979167,SixtyFourth,F5_A5
3856,Left,1,41,80,926.0,0.979167,Eighth,F2
3858,Right,0,81,110,927.0,2.979167,DottedQuarter,C6_A5
3859,Left,1,57,80,927.0,0.979167,Eighth,F3_A3
3862,Left,1,60,80,928.0,0.979167,Eighth,C4_A3
3864,Left,1,41,80,929.0,0.979167,Eighth,F2
3867,Left,1,53,80,930.0,0.979167,Eighth,F3_A3
3865,Right,0,83,80,930.0,0.479167,Sixteenth,G5_B5
3869,Right,0,77,80,930.5,0.479167,Sixteenth,F5_A5
3872,Left,1,57,80,931.0,0.979167,Eighth,D4_A3
3871,Right,0,79,80,931.0,0.479167,Sixteenth,G5_E5
3875,Right,0,74,80,931.5,0.479167,Sixteenth,F5_D5
3877,Left,1,43,80,932.0,0.979167,Eighth,G2
3878,Right,0,76,80,932.0,0.479167,Sixteenth,E5_C5
3880,Right,0,75,80,932.5,0.479167,Sixteenth,D#5_B4
3882,Left,1,55,80,933.0,0.979167,Eighth,G3_C4
3884,Right,0,72,80,933.0,0.479167,Sixteenth,E5_C5
3886,Right,0,75,80,933.5,0.479167,Sixteenth,F#5_D#5
3889,Left,1,64,80,934.0,0.979167,Eighth,E4_C4
3888,Right,0,79,80,934.0,0.479167,Sixteenth,G5_E5
3892,Right,0,72,80,934.5,0.479167,Sixteenth,E5_C5
3894,Left,1,43,80,935.0,0.979167,Eighth,G2
3895,Right,0,75,80,935.5,0.479167,Sixteenth,D#5_B4
3897,Left,1,55,80,936.0,0.979167,Eighth,G3_C4
3899,Right,0,72,80,936.0,0.479167,Sixteenth,E5_C5
3901,Right,0,75,80,936.5,0.479167,Sixteenth,F#5_D#5
3903,Right,0,76,80,937.0,0.479167,Sixteenth,G5_E5
3904,Left,1,60,80,937.0,0.979167,Eighth,E4_C4
3907,Right,0,76,80,937.5,0.479167,Sixteenth,E5_C5
3909,Left,1,43,80,938.0,0.979167,Eighth,G2
3910,Right,0,73,80,938.5,0.479167,Sixteenth,C#5_A#4
3914,Right,0,71,80,939.0,0.479167,Sixteenth,D5_B4
3912,Left,1,62,80,939.0,0.979167,Eighth,G3_D4
3916,Right,0,72,80,939.5,0.479167,Sixteenth,E5_C5
3920,Right,0,74,80,940.0,0.479167,Sixteenth,F5_D5
3918,Left,1,65,80,940.0,0.979167,Eighth,F4_D4
3922,Right,0,71,80,940.5,0.479167,Sixteenth,D5_B4
3924,Left,1,36,80,941.0,0.979167,Eighth,C3_C2
3926,Right,0,72,80,941.0,0.979167,Eighth,C5
3927,Left,1,55,80,942.0,0.979167,Eighth,G3
3928,Left,1,53,80,943.0,0.979167,Eighth,F3
3929,Left,1,52,80,944.0,0.979167,Eighth,E3
3930,Left,1,50,80,945.0,0.979167,Eighth,D3
3931,Left,1,48,80,946.0,0.979167,Eighth,C3
3932,Left,1,47,80,947.0,0.479167,Sixteenth,B2
3933,Left,1,48,80,947.5,0.479167,Sixteenth,C3
3934,Left,1,47,80,948.0,0.479167,Sixteenth,B2
3935,Left,1,48,80,948.5,0.479167,Sixteenth,C3
3936,Left,1,50,80,949.0,0.479167,Sixteenth,D3
3937,Left,1,48,80,949.5,0.479167,Sixteenth,C3
3938,Left,1,48,80,950.0,0.479167,Sixteenth,C3
3939,Left,1,50,80,950.25,0.479167,Sixteenth,D3
3940,Left,1,48,80,950.5,0.479167,Sixteenth,C3
3941,Left,1,50,80,950.75,0.479167,Sixteenth,D3
3942,Left,1,48,80,951.0,0.479167,Sixteenth,C3
3943,Right,0,66,80,951.0,0.979167,Eighth,F#4
3944,Left,1,50,80,951.25,0.479167,Sixteenth,D3
3945,Left,1,48,80,951.5,0.479167,Sixteenth,C3
3946,Left,1,50,80,951.75,0.479167,Sixteenth,D3
3948,Right,0,69,80,952.0,0.979167,Eighth,A4
3947,Left,1,48,80,952.0,0.479167,Sixteenth,C3
3949,Left,1,50,80,952.25,0.479167,Sixteenth,D3
3950,Left,1,48,80,952.5,0.479167,Sixteenth,C3
3951,Left,1,50,80,952.75,0.479167,Sixteenth,D3
3952,Left,1,48,80,953.0,0.479167,Sixteenth,C3
3953,Right,0,74,80,953.0,0.979167,Eighth,D5
3954,Left,1,50,80,953.25,0.479167,Sixteenth,D3
3955,Left,1,48,80,953.5,0.479167,Sixteenth,C3
3956,Left,1,50,80,953.75,0.479167,Sixteenth,D3
3958,Right,0,78,80,954.0,0.979167,Eighth,F#5
3957,Left,1,48,80,954.0,0.479167,Sixteenth,C3
3959,Left,1,50,80,954.25,0.479167,Sixteenth,D3
3960,Left,1,48,80,954.5,0.479167,Sixteenth,C3
3961,Left,1,50,80,954.75,0.479167,Sixteenth,D3
3963,Right,0,81,80,955.0,0.979167,Eighth,A5
3962,Left,1,48,80,955.0,0.479167,Sixteenth,C3
3964,Left,1,50,80,955.25,0.479167,Sixteenth,D3
3965,Left,1,48,80,955.5,0.479167,Sixteenth,C3
3966,Left,1,50,80,955.75,0.479167,Sixteenth,D3
3969,Left,1,47,80,956.0,2.979167,DottedQuarter,B2
3967,Right,0,79,80,956.0,2.979167,DottedQuarter,G5_D6
3970,Right,0,88,80,956.25,0.479167,Sixteenth,E6
3971,Right,0,86,80,956.5,0.479167,Sixteenth,D6
3972,Right,0,88,80,956.75,0.479167,Sixteenth,E6
3973,Right,0,86,80,957.0,0.479167,Sixteenth,D6
3974,Right,0,88,80,957.25,0.479167,Sixteenth,E6
3975,Right,0,86,80,957.5,0.479167,Sixteenth,D6
3976,Right,0,88,80,957.75,0.479167,Sixteenth,E6
3977,Right,0,86,80,958.0,0.479167,Sixteenth,D6
3978,Right,0,88,80,958.25,0.479167,Sixteenth,E6
3979,Right,0,85,80,958.5,0.479167,Sixteenth,C#6
3980,Right,0,86,80,958.75,0.479167,Sixteenth,D6
3981,Left,1,46,80,959.0,0.479167,Sixteenth,A#2
3982,Left,1,48,80,959.25,0.479167,Sixteenth,C3
3983,Left,1,46,80,959.5,0.479167,Sixteenth,A#2
3984,Left,1,48,80,959.75,0.479167,Sixteenth,C3
3986,Left,1,46,80,960.0,0.479167,Sixteenth,A#2
3985,Right,0,64,80,960.0,0.979167,Eighth,E4
3987,Left,1,48,80,960.25,0.479167,Sixteenth,C3
3988,Left,1,46,80,960.5,0.479167,Sixteenth,A#2
3989,Left,1,48,80,960.75,0.479167,Sixteenth,C3
3991,Right,0,67,80,961.0,0.979167,Eighth,G4
3990,Left,1,46,80,961.0,0.479167,Sixteenth,A#2
3992,Left,1,48,80,961.25,0.479167,Sixteenth,C3
3993,Left,1,46,80,961.5,0.479167,Sixteenth,A#2
3994,Left,1,48,80,961.75,0.479167,Sixteenth,C3
3996,Right,0,72,80,962.0,0.979167,Eighth,C5
3995,Left,1,46,80,962.0,0.479167,Sixteenth,A#2
3997,Left,1,48,80,962.25,0.479167,Sixteenth,C3
3998,Left,1,46,80,962.5,0.479167,Sixteenth,A#2
3999,Left,1,48,80,962.75,0.479167,Sixteenth,C3
4001,Right,0,76,80,963.0,0.979167,Eighth,E5
4000,Left,1,46,80,963.0,0.479167,Sixteenth,A#2
4002,Left,1,48,80,963.25,0.479167,Sixteenth,C3
4003,Left,1,46,80,963.5,0.479167,Sixteenth,A#2
4004,Left,1,48,80,963.75,0.479167,Sixteenth,C3
4006,Left,1,46,80,964.0,0.479167,Sixteenth,A#2
4005,Right,0,79,80,964.0,0.979167,Eighth,G5
4007,Left,1,48,80,964.25,0.479167,Sixteenth,C3
4008,Left,1,46,80,964.5,0.479167,Sixteenth,A#2
4009,Left,1,48,80,964.75,0.479167,Sixteenth,C3
4011,Left,1,45,80,965.0,2.979167,DottedQuarter,A2
4010,Right,0,84,80,965.0,2.979167,Sixteenth,F5_C6
4013,Right,0,86,80,965.25,0.479167,Sixteenth,D6
4014,Right,0,84,80,965.5,0.479167,Sixteenth,C6
4015,Right,0,86,80,965.75,0.479167,Sixteenth,D6
4016,Right,0,84,80,966.0,0.479167,Sixteenth,C6
4017,Right,0,86,80,966.25,0.479167,Sixteenth,D6
4018,Right,0,84,80,966.5,0.479167,Sixteenth,C6
4019,Right,0,86,80,966.75,0.479167,Sixteenth,D6
4020,Right,0,84,80,967.0,0.479167,Sixteenth,C6
4021,Right,0,86,80,967.25,0.479167,Sixteenth,D6
4022,Right,0,83,80,967.5,0.479167,Sixteenth,B5
4023,Right,0,84,81,968.0,0.479167,ThirtySecond,C6_A5
4025,Left,1,41,81,968.0,2.979167,DottedQuarter,F2
4026,Right,0,81,83,968.5,0.979167,Eighth,F6_A5
4028,Left,1,45,85,969.0,0.979167,Eighth,A2
4029,Right,0,81,88,969.5,0.979167,Eighth,F6_A5
4031,Left,1,48,90,970.0,0.979167,Eighth,C3
4032,Right,0,81,93,970.5,0.979167,Eighth,F6_A5
4034,Left,1,53,95,971.0,5.979167,DottedHalf,F3
4035,Right,0,89,97,971.5,0.979167,Eighth,F6_A5
4037,Left,1,57,100,972.0,0.979167,Eighth,A3
4038,Right,0,81,102,972.5,0.979167,Eighth,F6_A5
4040,Left,1,61,105,973.0,0.979167,Eighth,C#4
4041,Right,0,81,107,973.5,0.979167,Eighth,F6_A5
4043,Left,1,62,110,974.0,0.979167,Eighth,D4
4044,Right,0,81,110,974.5,0.979167,Eighth,F6_A5
4046,Left,1,64,110,975.0,0.979167,Eighth,E4
4047,Right,0,79,110,975.5,0.979167,Eighth,G5_E6
4049,Left,1,65,110,976.0,0.979167,Eighth,F4
4050,Right,0,77,110,976.5,0.479167,Sixteenth,F5_D6
4052,Left,1,67,110,977.0,1.979167,Quarter,G4_G3
4053,Right,0,76,110,977.0,0.479167,Sixteenth,E5_C6
4056,Right,0,78,110,977.5,0.479167,Sixteenth,F#5_D#5
4058,Right,0,79,110,978.0,0.479167,Sixteenth,G5_E5
4060,Right,0,75,110,978.5,0.479167,Sixteenth,F#4_D#5
4062,Right,0,67,110,979.0,0.479167,Sixteenth,G4_E5
4064,Right,0,72,110,979.5,0.479167,Sixteenth,E4_C5
4066,Left,1,55,110,980.0,1.979167,Quarter,G3_G2
4068,Right,0,63,108,980.5,0.479167,Sixteenth,F#4_D#4
4070,Right,0,64,105,981.0,0.479167,Sixteenth,G4_E4
4072,Right,0,54,102,981.5,0.479167,Sixteenth,F#3_D#4
4074,Right,0,64,100,982.0,0.479167,Sixteenth,G3_E4
4076,Right,0,60,97,982.5,0.479167,Sixteenth,E3_C4
4078,Left,1,43,94,983.0,1.979167,Quarter,G2_G1
4080,Right,0,64,91,983.5,0.479167,Sixteenth,E4_C#4
4082,Right,0,65,89,984.0,0.479167,Sixteenth,F4_D4
4084,Right,0,52,86,984.5,0.479167,Sixteenth,E3_C#4
4086,Right,0,62,83,985.0,0.479167,Sixteenth,F3_D4
4088,Right,0,50,81,985.5,0.479167,Sixteenth,D3_B3
4092,Left,1,36,80,986.0,0.479167,Sixteenth,C2
4090,Right,0,52,80,986.0,0.479167,Sixteenth,E3_C4
4093,Left,1,38,80,986.25,0.479167,Sixteenth,D2
4094,Right,0,55,80,986.5,0.479167,Sixteenth,G3
4095,Left,1,36,80,986.5,0.479167,Sixteenth,C2
4096,Left,1,38,80,986.75,0.479167,Sixteenth,D2
4098,Left,1,36,80,987.0,0.479167,Sixteenth,C2
4097,Right,0,52,80,987.0,0.479167,Sixteenth,E3
4099,Left,1,38,80,987.25,0.479167,Sixteenth,D2
4100,Left,1,36,80,987.5,0.479167,Sixteenth,C2
4101,Right,0,55,80,987.5,0.479167,Sixteenth,G3
4102,Left,1,38,80,987.75,0.479167,Sixteenth,D2
4104,Right,0,52,80,988.0,0.479167,Sixteenth,E3
4103,Left,1,36,80,988.0,0.479167,Sixteenth,C2
4105,Left,1,38,80,988.25,0.479167,Sixteenth,D2
4106,Left,1,36,80,988.5,0.479167,Sixteenth,C2
4107,Right,0,55,80,988.5,0.479167,Sixteenth,G3
4108,Left,1,38,80,988.75,0.479167,Sixteenth,D2
4109,Left,1,36,80,989.0,0.479167,Sixteenth,C2
4110,Right,0,52,80,989.0,0.479167,Sixteenth,E3
4111,Left,1,38,80,989.25,0.479167,Sixteenth,D2
4112,Left,1,36,80,989.5,0.479167,Sixteenth,C2
4113,Right,0,55,80,989.5,0.479167,Sixteenth,G3
4114,Left,1,38,80,989.75,0.479167,Sixteenth,D2
4116,Left,1,36,80,990.0,0.479167,Sixteenth,C2
4115,Right,0,52,80,990.0,0.479167,Sixteenth,E3
4117,Left,1,38,80,990.25,0.479167,Sixteenth,D2
4118,Left,1,36,80,990.5,0.479167,Sixteenth,C2
4119,Right,0,55,80,990.5,0.479167,Sixteenth,G3
4120,Left,1,38,80,990.75,0.479167,Sixteenth,D2
4122,Right,0,52,80,991.0,0.479167,Sixteenth,E3
4121,Left,1,36,80,991.0,0.479167,Sixteenth,C2
4123,Left,1,38,80,991.25,0.479167,Sixteenth,D2
4124,Left,1,35,80,991.5,0.479167,Sixteenth,B1
4125,Right,0,55,80,991.5,0.479167,Sixteenth,G3
4126,Left,1,36,80,991.75,0.479167,Sixteenth,C2
4127,Left,1,40,80,992.0,2.729167,TiedQuarter-Sixteenth,E2
4128,Right,0,52,80,992.0,0.479167,Sixteenth,E3
4129,Right,0,55,80,992.5,0.479167,Sixteenth,G3
4130,Right,0,52,80,993.0,0.479167,Sixteenth,E3
4131,Right,0,55,80,993.5,0.479167,Sixteenth,G3
4132,Right,0,52,80,994.0,0.479167,Sixteenth,E3
4133,Right,0,55,80,994.5,0.479167,Sixteenth,G3
4134,Left,1,36,80,994.75,0.229167,ThirtySecond,C2
4136,Right,0,53,80,995.0,0.979167,Sixteenth,F3_B3
4135,Left,1,31,80,995.0,8.979167,Whole,G1
4138,Right,0,55,80,995.5,0.479167,Sixteenth,G3
4139,Right,0,62,80,996.0,0.979167,Eighth,F3_D4
4141,Right,0,55,80,996.5,0.479167,Sixteenth,G3
4142,Right,0,53,80,997.0,1.979167,Sixteenth,F4_F3
4144,Right,0,55,80,997.5,0.479167,Sixteenth,G3
4145,Right,0,53,80,998.0,0.479167,Sixteenth,F3
4146,Right,0,55,80,998.5,0.479167,Sixteenth,G3
4147,Right,0,53,80,999.0,0.979167,Sixteenth,F3_E4
4149,Right,0,55,80,999.5,0.479167,Sixteenth,G3
4150,Right,0,53,80,1000.0,0.979167,Sixteenth,F3_D4
4152,Right,0,55,80,1000.5,0.479167,Sixteenth,G3
4153,Right,0,53,80,1001.0,0.979167,Sixteenth,F3_C4
4155,Right,0,55,80,1001.5,0.479167,Sixteenth,G3
4156,Right,0,59,80,1002.0,0.979167,Eighth,F3_B3
4158,Right,0,55,80,1002.5,0.479167,Sixteenth,G3
4159,Right,0,53,80,1003.0,0.979167,Sixteenth,F3_D4
4161,Right,0,55,80,1003.5,0.479167,Sixteenth,G3
4162,Right,0,52,80,1004.0,0.479167,Sixteenth,E3_C4
4164,Left,1,36,80,1004.0,0.479167,Sixteenth,C2
4165,Left,1,38,80,1004.25,0.479167,Sixteenth,D2
4167,Right,0,55,80,1004.5,0.479167,Sixteenth,G3
4166,Left,1,36,80,1004.5,0.479167,Sixteenth,C2
4168,Left,1,38,80,1004.75,0.479167,Sixteenth,D2
4170,Left,1,36,80,1005.0,0.479167,Sixteenth,C2
4169,Right,0,52,80,1005.0,0.479167,Sixteenth,E3
4171,Left,1,38,80,1005.25,0.479167,Sixteenth,D2
4172,Left,1,36,80,1005.5,0.479167,Sixteenth,C2
4173,Right,0,55,80,1005.5,0.479167,Sixteenth,G3
4174,Left,1,38,80,1005.75,0.479167,Sixteenth,D2
4175,Left,1,36,80,1006.0,0.479167,Sixteenth,C2
4176,Right,0,52,80,1006.0,0.479167,Sixteenth,E3
4177,Left,1,38,80,1006.25,0.479167,Sixteenth,D2
4179,Left,1,35,80,1006.5,0.479167,Sixteenth,B1
4178,Right,0,55,80,1006.5,0.479167,Sixteenth,G3
4180,Left,1,36,80,1006.75,0.479167,Sixteenth,C2
4182,Left,1,40,80,1007.0,0.479167,Sixteenth,E2
4181,Right,0,52,80,1007.0,0.479167,Sixteenth,E3
4183,Left,1,41,80,1007.25,0.479167,Sixteenth,F2
4184,Left,1,40,80,1007.5,0.479167,Sixteenth,E2
4185,Right,0,55,80,1007.5,0.479167,Sixteenth,G3
4186,Left,1,41,80,1007.75,0.479167,Sixteenth,F2
4188,Left,1,40,80,1008.0,0.479167,Sixteenth,E2
4187,Right,0,52,80,1008.0,0.479167,Sixteenth,E3
4189,Left,1,41,80,1008.25,0.479167,Sixteenth,F2
4190,Left,1,40,80,1008.5,0.479167,Sixteenth,E2
4191,Right,0,55,80,1008.5,0.479167,Sixteenth,G3
4192,Left,1,41,80,1008.75,0.479167,Sixteenth,F2
4194,Right,0,52,80,1009.0,0.479167,Sixteenth,E3
4193,Left,1,40,80,1009.0,0.479167,Sixteenth,E2
4195,Left,1,41,80,1009.25,0.479167,Sixteenth,F2
4196,Left,1,38,80,1009.5,0.479167,Sixteenth,D2
4197,Right,0,55,80,1009.5,0.479167,Sixteenth,G3
4198,Left,1,40,80,1009.75,0.479167,Sixteenth,E2
4200,Left,1,43,80,1010.0,2.229167,TiedQuarter-ThirtySecond,G2
4199,Right,0,52,80,1010.0,0.479167,Sixteenth,E3
4201,Right,0,55,80,1010.5,0.479167,Sixteenth,G3
4202,Right,0,52,80,1011.0,0.479167,Sixteenth,E3
4203,Right,0,55,80,1011.5,0.479167,Sixteenth,G3
4204,Right,0,52,80,1012.0,0.479167,Sixteenth,E3
4205,Left,1,41,80,1012.25,0.229167,ThirtySecond,F2
4206,Left,1,40,80,1012.375,0.229167,ThirtySecond,E2
4208,Right,0,55,80,1012.5,0.479167,Sixteenth,G3
4207,Left,1,38,80,1012.5,0.229167,ThirtySecond,D2
4209,Left,1,36,80,1012.625,0.229167,ThirtySecond,C2
4210,Left,1,35,80,1012.75,0.229167,ThirtySecond,B1
4211,Left,1,33,80,1012.875,0.229167,ThirtySecond,A1
4213,Right,0,53,80,1013.0,0.979167,Sixteenth,F3_B3
4212,Left,1,32,80,1013.0,0.979167,Eighth,G#1
4215,Right,0,55,80,1013.5,0.479167,Sixteenth,G3
4217,Right,0,53,80,1014.0,0.979167,Sixteenth,F3_D4
4216,Left,1,31,80,1014.0,1.979167,Quarter,G1
4219,Right,0,55,80,1014.5,0.479167,Sixteenth,G3
4220,Right,0,53,80,1015.0,1.979167,Sixteenth,F4_F3
4222,Right,0,55,80,1015.5,0.479167,Sixteenth,G3
4223,Right,0,53,80,1016.0,0.479167,Sixteenth,F3
4224,Left,1,31,80,1016.0,5.979167,DottedHalf,G1
4225,Right,0,55,80,1016.5,0.479167,Sixteenth,G3
4226,Right,0,53,80,1017.0,0.979167,Sixteenth,F3_E4
4228,Right,0,55,80,1017.5,0.479167,Sixteenth,G3
4229,Right,0,53,80,1018.0,0.979167,Sixteenth,F3_D4
4231,Right,0,55,80,1018.5,0.479167,Sixteenth,G3
4232,Right,0,53,80,1019.0,0.979167,Sixteenth,F3_C4
4234,Right,0,55,80,1019.5,0.479167,Sixteenth,G3
4235,Right,0,53,80,1020.0,0.979167,Sixteenth,F3_B3
4237,Right,0,55,80,1020.5,0.479167,Sixteenth,G3
4238,Right,0,62,80,1021.0,0.979167,Eighth,F3_D4
4240,Right,0,55,80,1021.5,0.479167,Sixteenth,G3
4241,Left,1,36,80,1022.0,0.979167,Eighth,C2
4242,Right,0,52,80,1022.0,0.479167,Sixteenth,E3_C4
4244,Right,0,55,80,1022.5,0.479167,Sixteenth,G3
4246,Right,0,52,80,1023.0,0.479167,Sixteenth,E3
4245,Left,1,43,80,1023.0,1.229167,Eighth,G2
4247,Right,0,55,80,1023.5,0.479167,Sixteenth,G3
4248,Right,0,52,80,1024.0,0.479167,Sixteenth,E3
4249,Left,1,41,80,1024.25,0.229167,ThirtySecond,F2
4250,Left,1,40,80,1024.375,0.229167,ThirtySecond,E2
4251,Right,0,55,80,1024.5,0.479167,Sixteenth,G3
4252,Left,1,38,80,1024.5,0.229167,ThirtySecond,D2
4253,Left,1,36,80,1024.625,0.229167,ThirtySecond,C2
4254,Left,1,35,80,1024.75,0.229167,ThirtySecond,B1
4255,Left,1,33,80,1024.875,0.229167,ThirtySecond,A1
4256,Left,1,32,80,1025.0,0.979167,Eighth,G#1
4257,Right,0,53,80,1025.0,0.979167,Sixteenth,F3_B3
4259,Right,0,55,80,1025.5,0.479167,Sixteenth,G3
4261,Left,1,31,80,1026.0,4.979167,Half,G1
4260,Right,0,65,80,1026.0,2.979167,DottedQuarter,F4_F3
4263,Right,0,55,80,1026.5,0.479167,Sixteenth,G3
4264,Right,0,53,80,1027.0,0.479167,Sixteenth,F3
4265,Right,0,55,80,1027.5,0.479167,Sixteenth,G3
4266,Right,0,53,80,1028.0,0.479167,Sixteenth,F3
4267,Right,0,55,80,1028.5,0.479167,Sixteenth,G3
4268,Right,0,53,80,1029.0,0.979167,Sixteenth,F3_D4
4270,Right,0,55,80,1029.5,0.479167,Sixteenth,G3
4271,Right,0,53,80,1030.0,0.979167,Sixteenth,F3_B3
4273,Right,0,55,80,1030.5,0.479167,Sixteenth,G3
4274,Left,1,36,80,1031.0,0.979167,Eighth,C2
4275,Right,0,60,80,1031.0,0.479167,Sixteenth,E3_C4
4277,Right,0,55,80,1031.5,0.479167,Sixteenth,G3
4279,Left,1,43,80,1032.0,1.229167,Eighth,G2
4278,Right,0,52,80,1032.0,0.479167,Sixteenth,E3
4280,Right,0,55,80,1032.5,0.479167,Sixteenth,G3
4281,Right,0,52,80,1033.0,0.479167,Sixteenth,E3
4282,Left,1,41,80,1033.25,0.229167,ThirtySecond,F2
4283,Left,1,40,80,1033.375,0.229167,ThirtySecond,E2
4285,Left,1,38,80,1033.5,0.229167,ThirtySecond,D2
4284,Right,0,55,80,1033.5,0.479167,Sixteenth,G3
4286,Left,1,36,80,1033.625,0.229167,ThirtySecond,C2
4287,Left,1,35,80,1033.75,0.229167,ThirtySecond,B1
4288,Left,1,33,80,1033.875,0.229167,ThirtySecond,A1
4289,Right,0,53,80,1034.0,0.979167,Sixteenth,F3_B3
4291,Left,1,32,80,1034.0,0.979167,Eighth,G#1
4292,Right,0,55,80,1034.5,0.479167,Sixteenth,G3
4293,Left,1,31,80,1035.0,4.979167,Half,G1
4294,Right,0,65,80,1035.0,2.979167,DottedQuarter,F4_F3
4296,Right,0,55,80,1035.5,0.479167,Sixteenth,G3
4297,Right,0,53,80,1036.0,0.479167,Sixteenth,F3
4298,Right,0,55,80,1036.5,0.479167,Sixteenth,G3
4299,Right,0,53,80,1037.0,0.479167,Sixteenth,F3
4300,Right,0,55,80,1037.5,0.479167,Sixteenth,G3
4301,Right,0,64,80,1038.0,0.479167,Sixteenth,F3_E4
4303,Right,0,55,80,1038.5,0.479167,Sixteenth,G3_D4
4305,Right,0,60,80,1039.0,0.479167,Sixteenth,F3_C4
4307,Right,0,55,80,1039.5,0.479167,Sixteenth,G3_B3
4309,Left,1,36,80,1040.0,8.979167,Whole,C2
4310,Right,0,62,80,1040.0,5.979167,DottedHalf,D4
4311,Right,0,53,80,1040.5,0.979167,Eighth,F3
4312,Left,1,43,80,1041.0,0.979167,Eighth,G2
4313,Right,0,53,80,1041.5,0.979167,Eighth,F3
4314,Left,1,44,80,1042.0,0.979167,Eighth,G#2
4315,Right,0,53,80,1042.5,0.979167,Eighth,F3
4316,Left,1,45,80,1043.0,0.979167,Eighth,A2
4317,Right,0,53,80,1043.5,0.979167,Eighth,F3
4318,Left,1,44,80,1044.0,0.979167,Eighth,G#2
4319,Right,0,53,80,1044.5,0.979167,Eighth,F3
4320,Left,1,45,80,1045.0,0.979167,Eighth,A2
4321,Right,0,53,80,1045.5,0.979167,Eighth,F3
4322,Left,1,46,80,1046.0,0.979167,Eighth,A#2
4323,Right,0,53,80,1046.5,0.979167,Eighth,F3
4324,Left,1,45,80,1047.0,0.979167,Eighth,A2
4325,Right,0,62,80,1047.0,0.979167,Eighth,D4
4326,Right,0,53,80,1047.5,0.979167,Eighth,F3
4328,Right,0,62,80,1048.0,0.979167,Eighth,D4
4327,Left,1,46,80,1048.0,0.979167,Eighth,A#2
4329,Right,0,53,80,1048.5,0.979167,Eighth,F3
4331,Right,0,62,80,1049.0,2.979167,DottedQuarter,D4
4330,Left,1,47,80,1049.0,4.979167,Eighth,C2_B2
4333,Right,0,53,80,1049.5,0.979167,Eighth,F3
4334,Left,1,43,80,1050.0,0.979167,Eighth,G2
4335,Right,0,53,80,1050.5,0.979167,Eighth,F3
4336,Left,1,45,80,1051.0,0.479167,Sixteenth,A2
4338,Left,1,47,80,1051.5,0.479167,Sixteenth,B2
4337,Right,0,53,80,1051.5,0.479167,Sixteenth,F3
4340,Right,0,60,80,1052.0,1.979167,Quarter,E3_C4
4339,Left,1,48,80,1052.0,1.979167,Quarter,C3
4342,Right,0,62,80,1058.0,2.979167,DottedQuarter,F4_D4
4343,Left,1,36,80,1058.0,4.979167,Half,C2_B2
4346,Right,0,55,80,1058.5,0.979167,Eighth,G3
4347,Left,1,43,80,1059.0,0.979167,Eighth,G2
4348,Right,0,55,80,1059.5,0.979167,Eighth,G3
4349,Left,1,45,80,1060.0,0.479167,Sixteenth,A2
4351,Right,0,55,80,1060.5,2.479167,TiedQuarter-Sixteenth,G3
4350,Left,1,47,80,1060.5,0.479167,Sixteenth,B2
4352,Right,0,64,80,1061.0,1.979167,Quarter,E4_C4
4353,Left,1,48,80,1061.0,1.979167,Quarter,C3
4356,Right,0,65,80,1067.0,2.979167,DottedQuarter,F4_A4
4355,Left,1,47,80,1067.0,8.979167,Eighth,C2_B2
4359,Right,0,55,80,1067.5,0.979167,Eighth,G3
4360,Left,1,43,81,1068.0,0.979167,Eighth,G2
4361,Right,0,55,82,1068.5,0.979167,Eighth,G3
4362,Left,1,45,83,1069.0,0.479167,Sixteenth,A2
4363,Right,0,55,84,1069.5,0.979167,Eighth,G3
4364,Left,1,47,84,1069.5,0.479167,Sixteenth,B2
4366,Left,1,48,85,1070.0,0.979167,Eighth,C3
4365,Right,0,67,85,1070.0,2.979167,DottedQuarter,G4_E4
4368,Right,0,55,86,1070.5,0.979167,Eighth,G3
4369,Left,1,43,86,1071.0,0.979167,Eighth,G2
4370,Right,0,55,87,1071.5,0.979167,Eighth,G3
4371,Left,1,47,88,1072.0,0.479167,Sixteenth,B2
4373,Left,1,48,89,1072.5,0.479167,Sixteenth,C3
4372,Right,0,55,89,1072.5,0.979167,Eighth,G3
4374,Left,1,50,90,1073.0,0.979167,Eighth,D3
4375,Right,0,59,90,1073.0,2.979167,DottedQuarter,F4_B3
4377,Right,0,55,91,1073.5,0.979167,Eighth,G3
4378,Left,1,43,92,1074.0,0.979167,Eighth,G2
4379,Right,0,55,93,1074.5,0.979167,Eighth,G3
4380,Left,1,49,93,1075.0,0.479167,Sixteenth,C#3
4382,Right,0,55,94,1075.5,0.479167,Sixteenth,G3
4381,Left,1,50,94,1075.5,0.479167,Sixteenth,D3
4385,Right,0,65,95,1076.0,3.479167,DottedQuarter,G3_F4_B3
4383,Left,1,50,95,1076.0,4.979167,DottedQuarter,D3_C2
4389,Right,0,64,80,1079.0,0.479167,Sixteenth,E4_C4
4388,Left,1,53,80,1079.0,1.979167,Quarter,F3
4391,Right,0,59,80,1079.5,0.479167,Sixteenth,B3
4392,Right,0,60,80,1080.0,0.479167,Sixteenth,C4
4393,Right,0,63,80,1080.5,0.479167,Sixteenth,D#4
4394,Right,0,64,80,1081.0,0.479167,Sixteenth,E4
4395,Right,0,66,80,1081.5,0.479167,Sixteenth,F#4
4396,Right,0,67,80,1082.0,0.479167,Sixteenth,G4
4397,Right,0,71,80,1082.5,0.479167,Sixteenth,B4
4398,Right,0,72,80,1083.0,0.479167,Sixteenth,C5
4399,Right,0,75,80,1083.5,0.479167,Sixteenth,D#5
4400,Right,0,76,80,1084.0,0.479167,Sixteenth,E5
4401,Right,0,79,80,1084.5,0.479167,Sixteenth,G5
4402,Left,1,67,70,1085.0,2.979167,DottedQuarter,G4_D5
4403,Right,0,83,70,1085.0,2.979167,DottedQuarter,F5_B5
4408,Left,1,72,70,1088.0,2.979167,DottedQuarter,C5_C4
4406,Right,0,76,70,1088.0,2.979167,DottedQuarter,E5_C6
