,hand,channel,note,velocity,start_beat,duration,note_value,chord
0,Right,0,76,80,0.0,0.114583,ThirtySecond,E5
1,Right,0,74,80,0.125,0.354167,DottedSixteenth,D5
2,Right,0,73,80,0.5,0.489583,Eighth,C#5
3,Right,0,74,80,1.0,0.489583,Eighth,D5
4,Right,0,76,80,1.5,0.489583,Eighth,E5
5,Right,0,74,80,2.0,0.989583,Quarter,D5
6,Right,0,62,80,3.0,7.989583,Unknown,D4
7,Left,1,59,80,3.0,0.989583,Quarter,B3
8,Left,1,60,80,4.0,0.989583,Quarter,C4
9,Right,0,64,80,4.0,0.989583,Quarter,E4
11,Left,1,57,80,5.0,0.989583,Quarter,A3
10,Right,0,66,80,5.0,0.989583,Quarter,F#4
12,Left,1,59,80,6.0,0.989583,Quarter,B3
13,Right,0,67,80,6.0,1.989583,Half,G4
14,Left,1,55,80,7.0,0.989583,Quarter,G3
16,Right,0,71,80,8.0,0.489583,Eighth,B4
15,Left,1,54,80,8.0,0.989583,Quarter,F#3
17,Right,0,69,80,8.5,0.489583,Eighth,A4
19,Left,1,50,80,9.0,0.989583,Quarter,D3
18,Right,0,67,80,9.0,0.489583,Eighth,G4
20,Right,0,69,80,9.5,0.489583,Eighth,A4
21,Left,1,55,80,10.0,0.989583,Quarter,G3
22,Right,0,71,80,10.0,0.989583,Quarter,B4
24,Right,0,67,80,11.0,1.989583,Half,G4
23,Left,1,54,80,11.0,0.989583,Quarter,F#3
26,Right,0,73,80,12.0,0.989583,Quarter,C#5
25,Left,1,52,80,12.0,0.989583,Quarter,E3
27,Left,1,61,80,13.0,0.989583,Quarter,C#4
28,Right,0,67,80,13.0,0.989583,Quarter,G4_A4
30,Right,0,74,80,14.0,1.989583,Half,F#4_D5
32,Left,1,62,100,15.0,1.989583,Half,D4
33,Right,0,76,80,16.0,0.114583,ThirtySecond,E5
34,Right,0,74,80,16.125,0.354167,DottedSixteenth,D5
35,Right,0,73,80,16.5,0.489583,Eighth,C#5
36,Right,0,74,80,17.0,0.489583,Eighth,D5
37,Left,1,61,80,17.0,0.989583,Quarter,C#4
38,Right,0,76,80,17.5,0.489583,Eighth,E5
40,Right,0,74,80,18.0,0.989583,Quarter,D5
39,Left,1,60,80,18.0,0.989583,Quarter,C4
42,Right,0,62,80,19.0,7.989583,Unknown,D4
41,Left,1,59,80,19.0,0.989583,Quarter,B3
43,Left,1,60,80,20.0,0.989583,Quarter,C4
44,Right,0,64,80,20.0,0.989583,Quarter,E4
45,Left,1,57,80,21.0,0.989583,Quarter,A3
46,Right,0,66,80,21.0,0.989583,Quarter,F#4
47,Left,1,59,80,22.0,0.989583,Quarter,B3
48,Right,0,67,80,22.0,1.989583,Half,G4
49,Left,1,55,80,23.0,0.989583,Quarter,G3
51,Right,0,71,80,24.0,0.489583,Eighth,B4
50,Left,1,54,80,24.0,0.989583,Quarter,F#3
52,Right,0,69,80,24.5,0.489583,Eighth,A4
53,Right,0,67,80,25.0,0.489583,Eighth,G4
54,Left,1,50,80,25.0,0.989583,Quarter,D3
55,Right,0,69,80,25.5,0.489583,Eighth,A4
56,Left,1,55,80,26.0,0.989583,Quarter,G3
57,Right,0,71,80,26.0,0.989583,Quarter,B4
58,Left,1,52,80,27.0,0.989583,Quarter,E3
59,Right,0,64,80,27.0,1.989583,Half,G4_E4
61,Left,1,48,80,28.0,0.989583,Quarter,C3
62,Right,0,69,80,28.0,0.989583,Quarter,C5_A4
64,Left,1,50,80,29.0,0.989583,Quarter,D3
65,Right,0,69,80,29.0,0.989583,Quarter,F#4_C4_A4
68,Left,1,43,80,30.0,0.989583,Quarter,G2
69,Right,0,67,80,30.0,0.989583,Quarter,G4_B3
71,Left,1,55,80,31.0,7.989583,Unknown,G3
72,Right,0,79,80,32.0,0.989583,Quarter,G5_B4
74,Right,0,78,86,33.0,0.989583,Quarter,F#5_C5
76,Left,1,57,80,33.0,0.989583,Quarter,A3
77,Left,1,59,80,34.0,0.989583,Quarter,B3
78,Right,0,77,93,34.0,0.989583,Quarter,F5_D5
81,Left,1,60,80,35.0,0.989583,Quarter,C4
80,Right,0,67,99,35.0,0.989583,Quarter,G4_E5
83,Left,1,63,110,36.0,0.989583,Quarter,D#4
84,Right,0,75,110,36.0,0.989583,Quarter,G4_D#5_C5
87,Left,1,66,101,37.0,0.989583,Quarter,F#4
88,Right,0,75,101,37.0,0.989583,Quarter,D#5_C5_A4
93,Left,1,67,91,38.0,0.989583,Quarter,G4
91,Right,0,75,91,38.0,0.989583,Quarter,D#5_C5
94,Left,1,55,81,39.0,0.989583,Quarter,G3
95,Right,0,71,81,39.0,0.989583,Quarter,D5_B4
98,Right,0,66,80,40.0,1.989583,Half,F#4_E5_A4
97,Left,1,62,80,40.0,0.989583,Quarter,D4
101,Right,0,74,80,40.5,0.489583,Eighth,D5
102,Right,0,73,80,41.0,0.489583,Eighth,C#5
103,Left,1,50,80,41.0,0.989583,Quarter,D3
104,Right,0,74,80,41.5,0.489583,Eighth,D5
105,Left,1,55,80,42.0,0.989583,Quarter,G3
106,Right,0,67,80,42.0,1.989583,Half,G4_D4_B4
109,Right,0,74,80,43.0,0.989583,Quarter,D5
110,Left,1,43,80,43.0,0.989583,Quarter,G2
111,Left,1,50,80,44.0,0.989583,Quarter,D3
112,Right,0,69,80,44.0,1.989583,Half,F#4_E5_A4
115,Right,0,74,80,44.5,0.489583,Eighth,D5
117,Right,0,73,80,45.0,0.489583,Eighth,C#5
116,Left,1,38,80,45.0,0.989583,Quarter,D2
118,Right,0,74,80,45.5,0.489583,Eighth,D5
122,Left,1,43,80,46.0,0.989583,Quarter,G2
119,Right,0,71,80,46.0,0.989583,Quarter,G4_D4_B4
123,Left,1,55,80,47.0,7.989583,Unknown,G3
124,Right,0,79,80,48.0,0.989583,Quarter,G5_B4
126,Right,0,72,86,49.0,0.989583,Quarter,F#5_C5
128,Left,1,57,80,49.0,0.989583,Quarter,A3
131,Left,1,59,80,50.0,0.989583,Quarter,B3
129,Right,0,74,93,50.0,0.989583,Quarter,F5_D5
132,Right,0,67,99,51.0,0.989583,Quarter,G4_E5
134,Left,1,60,80,51.0,0.989583,Quarter,C4
135,Right,0,72,110,52.0,0.989583,Quarter,G4_D#5_C5
138,Left,1,63,80,52.0,0.989583,Quarter,D#4
139,Right,0,72,101,53.0,0.989583,Quarter,D#5_C5_A4
142,Left,1,66,80,53.0,0.989583,Quarter,F#4
143,Left,1,67,80,54.0,0.989583,Quarter,G4
144,Right,0,72,91,54.0,0.989583,Quarter,D#5_C5
146,Right,0,71,81,55.0,0.989583,Quarter,D5_B4
148,Left,1,55,80,55.0,0.989583,Quarter,G3
149,Right,0,69,80,56.0,1.989583,Half,F#4_E5_A4
152,Left,1,62,80,56.0,0.989583,Quarter,D4
153,Right,0,74,80,56.5,0.489583,Eighth,D5
155,Right,0,73,80,57.0,0.489583,Eighth,C#5
154,Left,1,50,80,57.0,0.989583,Quarter,D3
156,Right,0,74,80,57.5,0.489583,Eighth,D5
158,Right,0,71,80,58.0,1.989583,Half,G4_D4_B4
157,Left,1,55,80,58.0,0.989583,Quarter,G3
161,Right,0,74,80,59.0,0.989583,Quarter,D5
162,Left,1,43,80,59.0,0.989583,Quarter,G2
163,Right,0,69,80,60.0,1.989583,Half,F#4_E5_A4
166,Left,1,50,80,60.0,0.989583,Quarter,D3
167,Right,0,74,80,60.5,0.489583,Eighth,D5
169,Right,0,73,80,61.0,0.489583,Eighth,C#5
168,Left,1,38,80,61.0,0.989583,Quarter,D2
170,Right,0,74,80,61.5,0.489583,Eighth,D5
172,Left,1,43,80,62.0,0.989583,Quarter,G2
171,Right,0,67,80,62.0,0.989583,Quarter,G4_D4_B4
175,Left,1,31,80,63.0,0.989583,Quarter,G1
176,Left,1,52,80,64.0,0.114583,ThirtySecond,E3
177,Left,1,50,80,64.125,0.354167,DottedSixteenth,D3
178,Left,1,49,80,64.5,0.489583,Eighth,C#3
179,Left,1,50,80,65.0,0.489583,Eighth,D3
180,Left,1,52,80,65.5,0.489583,Eighth,E3
181,Left,1,50,80,66.0,0.989583,Quarter,D3
182,Right,0,83,80,66.333333,0.65625,DottedEighth,B5
183,Right,0,84,80,66.666667,0.322917,Triplet,C6
184,Left,1,38,80,67.0,8.989583,Unknown,D2
185,Right,0,86,80,67.0,0.322917,Triplet,D6
186,Right,0,84,80,67.333333,0.322917,Triplet,C6
187,Right,0,83,80,67.666667,0.322917,Triplet,B5
188,Right,0,84,80,68.0,0.322917,Triplet,C6
189,Left,1,40,80,68.0,0.989583,Quarter,E2
190,Right,0,81,80,68.333333,0.322917,Triplet,A5
191,Right,0,83,80,68.666667,0.322917,Triplet,B5
192,Left,1,42,80,69.0,0.989583,Quarter,F#2
193,Right,0,84,80,69.0,0.322917,Triplet,C6
194,Right,0,83,80,69.333333,0.322917,Triplet,B5
195,Right,0,81,80,69.666667,0.322917,Triplet,A5
197,Right,0,83,80,70.0,0.322917,Triplet,B5
196,Left,1,43,80,70.0,1.989583,Half,G2
198,Right,0,79,80,70.333333,0.322917,Triplet,G5
199,Right,0,81,80,70.666667,0.322917,Triplet,A5
200,Right,0,83,80,71.0,0.322917,Triplet,B5
201,Right,0,81,80,71.333333,0.322917,Triplet,A5
202,Right,0,79,80,71.666667,0.322917,Triplet,G5
204,Left,1,47,80,72.0,0.489583,Eighth,B2
203,Right,0,78,80,72.0,0.322917,Triplet,F#5
205,Right,0,76,80,72.333333,0.322917,Triplet,E5
206,Left,1,45,80,72.5,0.489583,Eighth,A2
207,Right,0,74,80,72.666667,0.322917,Triplet,D5
208,Right,0,72,80,73.0,0.322917,Triplet,C5
209,Left,1,43,80,73.0,0.489583,Eighth,G2
210,Right,0,71,80,73.333333,0.322917,Triplet,B4
211,Left,1,45,80,73.5,0.489583,Eighth,A2
212,Right,0,69,80,73.666667,0.322917,Triplet,A4
213,Left,1,47,80,74.0,0.989583,Quarter,B2
214,Right,0,67,80,74.0,0.322917,Triplet,G4
215,Right,0,74,80,74.333333,0.322917,Triplet,D5
216,Right,0,73,80,74.666667,0.322917,Triplet,C#5
217,Left,1,43,80,75.0,0.989583,Quarter,G2
218,Right,0,74,80,75.0,0.322917,Triplet,D5
219,Right,0,71,80,75.333333,0.322917,Triplet,B4
220,Right,0,69,80,75.666667,0.322917,Triplet,A4
223,Right,0,67,80,76.0,0.322917,Triplet,G4
221,Left,1,49,80,76.0,1.989583,Quarter,D2_C#3
224,Right,0,76,80,76.333333,0.322917,Triplet,E5
225,Right,0,75,80,76.666667,0.322917,Triplet,D#5
227,Left,1,45,80,77.0,0.989583,Quarter,A2
226,Right,0,76,80,77.0,0.322917,Triplet,E5
228,Right,0,73,80,77.333333,0.322917,Triplet,C#5
229,Right,0,67,80,77.666667,0.322917,Triplet,G4
230,Right,0,66,80,78.0,0.322917,Triplet,F#4
231,Left,1,50,80,78.0,1.989583,Half,D3_D2
233,Right,0,74,80,78.333333,0.322917,Triplet,D5
234,Right,0,73,80,78.666667,0.322917,Triplet,C#5
235,Right,0,74,80,79.0,0.322917,Triplet,D5
236,Right,0,69,80,79.333333,0.322917,Triplet,A4
237,Right,0,66,80,79.666667,0.322917,Triplet,F#4
238,Left,1,52,80,80.0,0.114583,ThirtySecond,E3
239,Right,0,62,80,80.0,0.989583,Quarter,D4
240,Left,1,50,80,80.125,0.354167,DottedSixteenth,D3
241,Left,1,49,80,80.5,0.489583,Eighth,C#3
242,Left,1,50,80,81.0,0.489583,Eighth,D3
243,Left,1,52,80,81.5,0.489583,Eighth,E3
244,Left,1,50,80,82.0,0.989583,Quarter,D3
245,Right,0,83,80,82.333333,0.322917,Triplet,B5
246,Right,0,84,80,82.666667,0.322917,Triplet,C6
247,Right,0,86,80,83.0,0.322917,Triplet,D6
248,Left,1,38,80,83.0,8.989583,Unknown,D2
249,Right,0,84,80,83.333333,0.322917,Triplet,C6
250,Right,0,83,80,83.666667,0.322917,Triplet,B5
251,Left,1,40,80,84.0,0.989583,Quarter,E2
252,Right,0,84,80,84.0,0.322917,Triplet,C6
253,Right,0,81,80,84.333333,0.322917,Triplet,A5
254,Right,0,83,80,84.666667,0.322917,Triplet,B5
255,Left,1,42,80,85.0,0.989583,Quarter,F#2
256,Right,0,84,80,85.0,0.322917,Triplet,C6
257,Right,0,83,80,85.333333,0.322917,Triplet,B5
258,Right,0,81,80,85.666667,0.322917,Triplet,A5
259,Right,0,83,80,86.0,0.322917,Triplet,B5
260,Left,1,43,80,86.0,1.989583,Half,G2
261,Right,0,79,80,86.333333,0.322917,Triplet,G5
262,Right,0,81,80,86.666667,0.322917,Triplet,A5
263,Right,0,83,80,87.0,0.322917,Triplet,B5
264,Right,0,81,80,87.333333,0.322917,Triplet,A5
265,Right,0,79,80,87.666667,0.322917,Triplet,G5
266,Right,0,78,80,88.0,0.322917,Triplet,F#5
267,Left,1,47,80,88.0,0.489583,Eighth,B2
268,Right,0,76,80,88.333333,0.322917,Triplet,E5
269,Left,1,45,80,88.5,0.489583,Eighth,A2
270,Right,0,74,80,88.666667,0.322917,Triplet,D5
271,Left,1,43,80,89.0,0.489583,Eighth,G2
272,Right,0,72,80,89.0,0.322917,Triplet,C5
273,Right,0,71,80,89.333333,0.322917,Triplet,B4
274,Left,1,45,80,89.5,0.489583,Eighth,A2
275,Right,0,69,80,89.666667,0.322917,Triplet,A4
277,Right,0,67,80,90.0,0.322917,Triplet,G4
276,Left,1,47,80,90.0,0.989583,Quarter,B2
278,Right,0,66,80,90.333333,0.322917,Triplet,F#4
279,Right,0,67,80,90.666667,0.322917,Triplet,G4
281,Left,1,43,80,91.0,0.989583,Quarter,G2
280,Right,0,69,80,91.0,0.322917,Triplet,A4
282,Right,0,71,80,91.333333,0.322917,Triplet,B4
283,Right,0,72,80,91.666667,0.322917,Triplet,C5
284,Left,1,48,80,92.0,1.989583,Quarter,D2_C3
286,Right,0,74,80,92.0,0.322917,Triplet,D5
287,Right,0,62,80,92.333333,0.322917,Triplet,D4
288,Right,0,61,80,92.666667,0.322917,Triplet,C#4
289,Left,1,45,80,93.0,0.989583,Quarter,A2
290,Right,0,62,80,93.0,0.322917,Triplet,D4
291,Right,0,64,80,93.333333,0.322917,Triplet,E4
292,Right,0,66,80,93.666667,0.322917,Triplet,F#4
293,Right,0,67,80,94.0,0.989583,Quarter,G4
294,Left,1,31,80,94.0,0.989583,Quarter,G2_G1
296,Left,1,43,80,95.0,8.989583,Unknown,G2
298,Left,1,55,80,96.0,0.989583,Quarter,G3
297,Right,0,55,80,96.0,0.489583,Eighth,G3
299,Right,0,67,82,96.5,0.489583,Eighth,G4
300,Right,0,57,84,97.0,0.489583,Eighth,A3
301,Left,1,54,80,97.0,0.989583,Quarter,F#3
302,Right,0,69,86,97.5,0.489583,Eighth,A4
303,Left,1,53,80,98.0,0.989583,Quarter,F3
304,Right,0,67,88,98.0,0.489583,Eighth,G4_B3
306,Right,0,71,90,98.5,0.489583,Eighth,B4
308,Right,0,67,92,99.0,0.489583,Eighth,G4_C4
307,Left,1,52,80,99.0,0.989583,Quarter,E3
310,Right,0,72,94,99.5,0.489583,Eighth,C5
311,Right,0,67,96,100.0,0.489583,Eighth,G4_C#4_A#4
313,Left,1,51,80,100.0,0.989583,Quarter,D#3
315,Right,0,73,98,100.5,0.489583,Eighth,C#5
317,Right,0,61,100,101.0,0.489583,Eighth,G4_C#4_A#4
316,Left,1,51,80,101.0,0.989583,Quarter,D#3
320,Right,0,73,101,101.5,0.489583,Eighth,C#5
322,Left,1,51,80,102.0,0.989583,Quarter,D#3
321,Right,0,61,103,102.0,0.489583,Eighth,G4_C#4_A#4
325,Right,0,73,105,102.5,0.489583,Eighth,C#5
327,Left,1,50,80,103.0,0.989583,Quarter,D3
326,Right,0,67,107,103.0,0.489583,Eighth,G4_D4_B4
330,Right,0,74,109,103.5,0.489583,Eighth,D5
334,Left,1,38,80,104.0,0.322917,Triplet,D2
331,Right,0,69,80,104.0,1.989583,Half,F#4_E5_A4
335,Left,1,50,80,104.333333,0.322917,Triplet,D3
336,Right,0,74,80,104.5,0.489583,Eighth,D5
337,Left,1,54,80,104.666667,0.322917,Triplet,F#3
339,Left,1,57,80,105.0,0.322917,Triplet,A3
338,Right,0,73,80,105.0,0.489583,Eighth,C#5
340,Left,1,54,80,105.333333,0.322917,Triplet,F#3
341,Right,0,74,80,105.5,0.489583,Eighth,D5
342,Left,1,50,80,105.666667,0.322917,Triplet,D3
344,Right,0,71,80,106.0,1.989583,Half,G4_D4_B4
343,Left,1,43,80,106.0,0.322917,Triplet,G2
347,Left,1,50,80,106.333333,0.322917,Triplet,D3
348,Left,1,55,80,106.666667,0.322917,Triplet,G3
349,Right,0,74,80,107.0,0.989583,Quarter,D5
350,Left,1,59,80,107.0,0.322917,Triplet,B3
351,Left,1,55,80,107.333333,0.322917,Triplet,G3
352,Left,1,50,80,107.666667,0.322917,Triplet,D3
353,Left,1,38,80,108.0,0.322917,Triplet,D2
354,Right,0,76,80,108.0,1.989583,Half,F#4_E5_A4
357,Left,1,50,80,108.333333,0.322917,Triplet,D3
358,Right,0,74,80,108.5,0.489583,Eighth,D5
359,Left,1,54,80,108.666667,0.322917,Triplet,F#3
361,Right,0,73,80,109.0,0.489583,Eighth,C#5
360,Left,1,57,80,109.0,0.322917,Triplet,A3
362,Left,1,54,80,109.333333,0.322917,Triplet,F#3
363,Right,0,74,80,109.5,0.489583,Eighth,D5
364,Left,1,50,80,109.666667,0.322917,Triplet,D3
366,Left,1,43,80,110.0,9.989583,Unknown,G2
365,Right,0,67,80,110.0,0.989583,Quarter,G4_D4_B4
369,Right,0,67,80,112.0,0.489583,Eighth,G4
370,Right,0,79,81,112.5,0.489583,Eighth,G5
371,Right,0,69,83,113.0,0.489583,Eighth,A4
372,Right,0,79,85,113.5,0.489583,Eighth,G5
374,Right,0,71,87,114.0,0.489583,Eighth,G4_B4
373,Left,1,53,87,114.0,0.989583,Quarter,F3
376,Right,0,79,89,114.5,0.489583,Eighth,G5
377,Left,1,52,91,115.0,0.989583,Quarter,E3
378,Right,0,67,91,115.0,0.489583,Eighth,G4_C5
380,Right,0,79,93,115.5,0.489583,Eighth,G5
381,Right,0,67,95,116.0,0.489583,Eighth,G4_C#5_A#4
384,Left,1,51,95,116.0,0.989583,Quarter,D#3
385,Right,0,79,97,116.5,0.489583,Eighth,G5
386,Right,0,73,99,117.0,0.489583,Eighth,G4_C#5_A#4
388,Left,1,51,99,117.0,0.989583,Quarter,D#3
390,Right,0,79,101,117.5,0.489583,Eighth,G5
394,Left,1,51,103,118.0,0.989583,Quarter,D#3
391,Right,0,70,103,118.0,0.489583,Eighth,G4_C#5_A#4
395,Right,0,79,105,118.5,0.489583,Eighth,G5
396,Right,0,71,107,119.0,0.489583,Eighth,G4_D5_B4
399,Left,1,50,107,119.0,0.989583,Quarter,D3
400,Right,0,79,109,119.5,0.489583,Eighth,G5
403,Right,0,66,80,120.0,0.322917,Triplet,F#4
401,Left,1,52,80,120.0,0.989583,Eighth,E3_D2
404,Right,0,70,80,120.333333,0.322917,Triplet,A#4
405,Left,1,50,80,120.5,0.489583,Eighth,D3
406,Right,0,74,80,120.666667,0.322917,Triplet,D5
408,Left,1,49,80,121.0,0.489583,Eighth,C#3
407,Right,0,78,80,121.0,0.322917,Triplet,F#5
409,Right,0,74,80,121.333333,0.322917,Triplet,D5
410,Left,1,50,80,121.5,0.489583,Eighth,D3
411,Right,0,70,80,121.666667,0.322917,Triplet,A#4
412,Left,1,47,80,122.0,1.989583,Quarter,G2_B2
413,Right,0,67,80,122.0,0.322917,Triplet,G4
415,Right,0,71,80,122.333333,0.322917,Triplet,B4
416,Right,0,74,80,122.666667,0.322917,Triplet,D5
418,Left,1,50,80,123.0,0.989583,Quarter,D3
417,Right,0,79,80,123.0,0.322917,Triplet,G5
419,Right,0,74,80,123.333333,0.322917,Triplet,D5
420,Right,0,71,80,123.666667,0.322917,Triplet,B4
421,Left,1,52,80,124.0,0.989583,Eighth,E3_D2
423,Right,0,66,80,124.0,0.322917,Triplet,F#4
424,Right,0,69,80,124.333333,0.322917,Triplet,A4
425,Left,1,50,80,124.5,0.489583,Eighth,D3
426,Right,0,74,80,124.666667,0.322917,Triplet,D5
428,Right,0,78,80,125.0,0.322917,Triplet,F#5
427,Left,1,49,80,125.0,0.489583,Eighth,C#3
429,Right,0,74,80,125.333333,0.322917,Triplet,D5
430,Left,1,50,80,125.5,0.489583,Eighth,D3
431,Right,0,69,80,125.666667,0.322917,Triplet,A4
433,Left,1,43,80,126.0,0.989583,Quarter,G2_B2
432,Right,0,67,80,126.0,0.322917,Triplet,G4
435,Right,0,71,80,126.333333,0.322917,Triplet,B4
436,Right,0,74,80,126.666667,0.322917,Triplet,D5
437,Right,0,79,80,127.0,0.322917,Triplet,G5
438,Right,0,74,80,127.333333,0.322917,Triplet,D5
439,Right,0,71,80,127.666667,0.322917,Triplet,B4
440,Right,0,84,80,128.0,0.489583,Eighth,C6
441,Left,1,47,80,128.0,0.322917,Triplet,B2
442,Left,1,54,80,128.333333,0.322917,Triplet,F#3
443,Right,0,83,80,128.5,0.489583,Eighth,B5
444,Left,1,59,80,128.666667,0.322917,Triplet,B3
445,Right,0,82,80,129.0,0.489583,Eighth,A#5
446,Left,1,63,80,129.0,0.322917,Triplet,D#4
447,Left,1,59,80,129.333333,0.322917,Triplet,B3
448,Right,0,83,80,129.5,0.489583,Eighth,B5
449,Left,1,54,80,129.666667,0.322917,Triplet,F#3
451,Right,0,79,80,130.0,0.989583,Quarter,G5
450,Left,1,52,80,130.0,0.322917,Triplet,E3
452,Left,1,55,80,130.333333,0.322917,Triplet,G3
453,Left,1,59,80,130.666667,0.322917,Triplet,B3
455,Right,0,83,80,131.0,0.989583,Quarter,B5
454,Left,1,64,80,131.0,0.322917,Triplet,E4
456,Left,1,59,80,131.333333,0.322917,Triplet,B3
457,Left,1,55,80,131.666667,0.322917,Triplet,G3
459,Right,0,84,80,132.0,0.489583,Eighth,C6
458,Left,1,47,80,132.0,0.322917,Triplet,B2
460,Left,1,54,80,132.333333,0.322917,Triplet,F#3
461,Right,0,83,80,132.5,0.489583,Eighth,B5
462,Left,1,59,80,132.666667,0.322917,Triplet,B3
464,Left,1,63,80,133.0,0.322917,Triplet,D#4
463,Right,0,82,80,133.0,0.489583,Eighth,A#5
465,Left,1,59,80,133.333333,0.322917,Triplet,B3
466,Right,0,83,80,133.5,0.489583,Eighth,B5
467,Left,1,54,80,133.666667,0.322917,Triplet,F#3
468,Left,1,52,80,134.0,0.322917,Triplet,E3
469,Right,0,79,80,134.0,0.989583,Quarter,G5
470,Left,1,55,80,134.333333,0.322917,Triplet,G3
471,Left,1,59,80,134.666667,0.322917,Triplet,B3
473,Left,1,64,80,135.0,0.322917,Triplet,E4
472,Right,0,83,80,135.0,0.989583,Quarter,B5
474,Left,1,59,80,135.333333,0.322917,Triplet,B3
475,Left,1,55,80,135.666667,0.322917,Triplet,G3
476,Right,0,73,80,136.0,0.322917,Triplet,C#5
477,Left,1,47,80,136.0,0.489583,Eighth,B2
478,Right,0,76,80,136.333333,0.322917,Triplet,E5
479,Left,1,45,80,136.5,0.489583,Eighth,A2
480,Right,0,81,80,136.666667,0.322917,Triplet,A5
482,Right,0,85,80,137.0,0.322917,Triplet,C#6
481,Left,1,44,80,137.0,0.489583,Eighth,G#2
483,Right,0,81,80,137.333333,0.322917,Triplet,A5
484,Left,1,45,80,137.5,0.489583,Eighth,A2
485,Right,0,76,80,137.666667,0.322917,Triplet,E5
487,Right,0,74,80,138.0,0.322917,Triplet,D5
486,Left,1,42,80,138.0,0.989583,Quarter,F#2
488,Right,0,78,80,138.333333,0.322917,Triplet,F#5
489,Right,0,81,80,138.666667,0.322917,Triplet,A5
490,Right,0,86,80,139.0,0.322917,Triplet,D6
491,Left,1,45,80,139.0,0.989583,Quarter,A2
492,Right,0,81,80,139.333333,0.322917,Triplet,A5
493,Right,0,78,80,139.666667,0.322917,Triplet,F#5
494,Right,0,73,80,140.0,0.322917,Triplet,C#5
495,Left,1,47,80,140.0,0.489583,Eighth,B2
496,Right,0,76,80,140.333333,0.322917,Triplet,E5
497,Left,1,45,80,140.5,0.489583,Eighth,A2
498,Right,0,81,80,140.666667,0.322917,Triplet,A5
500,Left,1,44,80,141.0,0.489583,Eighth,G#2
499,Right,0,85,80,141.0,0.322917,Triplet,C#6
501,Right,0,81,80,141.333333,0.322917,Triplet,A5
502,Left,1,45,80,141.5,0.489583,Eighth,A2
503,Right,0,76,80,141.666667,0.322917,Triplet,E5
504,Right,0,74,80,142.0,0.322917,Triplet,D5
505,Left,1,42,80,142.0,0.989583,Quarter,F#2
506,Right,0,78,80,142.333333,0.322917,Triplet,F#5
507,Right,0,81,80,142.666667,0.322917,Triplet,A5
509,Left,1,45,80,143.0,0.989583,Quarter,A2
508,Right,0,86,80,143.0,0.322917,Triplet,D6
510,Right,0,81,80,143.333333,0.322917,Triplet,A5
511,Right,0,78,80,143.666667,0.322917,Triplet,F#5
512,Right,0,83,80,144.0,0.489583,Eighth,B5
513,Left,1,37,80,144.0,0.322917,Triplet,C#2
514,Left,1,49,83,144.333333,0.322917,Triplet,C#3
515,Right,0,81,84,144.5,0.489583,Eighth,A5
516,Left,1,52,85,144.666667,0.322917,Triplet,E3
517,Left,1,57,88,145.0,0.322917,Triplet,A3
518,Right,0,80,88,145.0,0.489583,Eighth,G#5
519,Left,1,52,91,145.333333,0.322917,Triplet,E3
520,Right,0,81,92,145.5,0.489583,Eighth,A5
521,Left,1,49,94,145.666667,0.322917,Triplet,C#3
522,Right,0,79,97,146.0,0.489583,Eighth,G5
523,Left,1,38,97,146.0,0.322917,Triplet,D2
524,Left,1,50,100,146.333333,0.322917,Triplet,D3
525,Right,0,78,101,146.5,0.489583,Eighth,F#5
526,Left,1,54,102,146.666667,0.322917,Triplet,F#3
527,Left,1,57,105,147.0,0.322917,Triplet,A3
528,Right,0,77,105,147.0,0.489583,Eighth,F5
529,Left,1,54,108,147.333333,0.322917,Triplet,F#3
530,Right,0,78,109,147.5,0.489583,Eighth,F#5
531,Left,1,50,80,147.666667,0.322917,Triplet,D3
532,Right,0,68,110,148.0,0.989583,Quarter,G#4_F#5_B4
533,Left,1,40,110,148.0,0.322917,Triplet,E2
536,Left,1,50,110,148.333333,0.322917,Triplet,D3
537,Right,0,76,110,148.5,0.489583,Eighth,E5
538,Left,1,52,110,148.666667,0.322917,Triplet,E3
539,Left,1,56,110,149.0,0.322917,Triplet,G#3
540,Right,0,75,110,149.0,0.989583,Quarter,G#4_D#5_B4
543,Left,1,52,110,149.333333,0.322917,Triplet,E3
544,Right,0,76,110,149.5,0.489583,Eighth,E5
545,Left,1,50,110,149.666667,0.322917,Triplet,D3
548,Left,1,45,110,150.0,0.322917,Triplet,A2
546,Right,0,73,110,150.0,0.989583,Quarter,F#5_C#5_A4
550,Left,1,49,110,150.333333,0.322917,Triplet,C#3
551,Right,0,76,110,150.5,0.489583,Eighth,E5
552,Left,1,52,110,150.666667,0.322917,Triplet,E3
553,Left,1,57,110,151.0,0.322917,Triplet,A3
554,Right,0,75,110,151.0,0.489583,Eighth,D#5
555,Left,1,52,110,151.333333,0.322917,Triplet,E3
556,Right,0,76,110,151.5,0.489583,Eighth,E5
557,Left,1,49,110,151.666667,0.322917,Triplet,C#3
558,Left,1,37,80,152.0,0.322917,Triplet,C#2
559,Right,0,83,80,152.0,0.489583,Eighth,B5
560,Left,1,49,82,152.333333,0.322917,Triplet,C#3
561,Right,0,81,84,152.5,0.489583,Eighth,A5
562,Left,1,52,85,152.666667,0.322917,Triplet,E3
563,Right,0,80,88,153.0,0.489583,Eighth,G#5
564,Left,1,57,88,153.0,0.322917,Triplet,A3
565,Left,1,52,91,153.333333,0.322917,Triplet,E3
566,Right,0,81,92,153.5,0.489583,Eighth,A5
567,Left,1,49,94,153.666667,0.322917,Triplet,C#3
568,Right,0,79,97,154.0,0.489583,Eighth,G5
569,Left,1,38,97,154.0,0.322917,Triplet,D2
570,Left,1,50,99,154.333333,0.322917,Triplet,D3
571,Right,0,78,101,154.5,0.489583,Eighth,F#5
572,Left,1,54,102,154.666667,0.322917,Triplet,F#3
574,Left,1,57,105,155.0,0.322917,Triplet,A3
573,Right,0,77,105,155.0,0.489583,Eighth,F5
575,Left,1,54,108,155.333333,0.322917,Triplet,F#3
576,Right,0,78,109,155.5,0.489583,Eighth,F#5
577,Left,1,50,80,155.666667,0.322917,Triplet,D3
580,Left,1,40,110,156.0,0.322917,Triplet,E2
578,Right,0,78,110,156.0,0.989583,Quarter,G#4_F#5_B4
582,Left,1,50,110,156.333333,0.322917,Triplet,D3
583,Right,0,76,110,156.5,0.489583,Eighth,E5
584,Left,1,52,110,156.666667,0.322917,Triplet,E3
585,Right,0,68,110,157.0,0.989583,Quarter,G#4_D#5_B4
587,Left,1,56,110,157.0,0.322917,Triplet,G#3
589,Left,1,52,110,157.333333,0.322917,Triplet,E3
590,Right,0,76,110,157.5,0.489583,Eighth,E5
591,Left,1,50,110,157.666667,0.322917,Triplet,D3
595,Left,1,45,110,158.0,0.322917,Triplet,A2
592,Right,0,78,110,158.0,0.989583,Quarter,F#5_C#5_A4
596,Left,1,49,110,158.333333,0.322917,Triplet,C#3
597,Right,0,76,110,158.5,0.489583,Eighth,E5
598,Left,1,52,110,158.666667,0.322917,Triplet,E3
600,Right,0,75,110,159.0,0.489583,Eighth,D#5
599,Left,1,57,110,159.0,0.322917,Triplet,A3
601,Left,1,52,110,159.333333,0.322917,Triplet,E3
602,Right,0,76,110,159.5,0.489583,Eighth,E5
603,Left,1,49,110,159.666667,0.322917,Triplet,C#3
605,Left,1,40,110,160.0,0.322917,Triplet,E2
604,Right,0,78,110,160.0,0.989583,Quarter,G#4_F#5_B4
608,Left,1,50,110,160.333333,0.322917,Triplet,D3
609,Right,0,76,110,160.5,0.489583,Eighth,E5
610,Left,1,52,110,160.666667,0.322917,Triplet,E3
614,Left,1,56,110,161.0,0.322917,Triplet,G#3
611,Right,0,75,110,161.0,0.989583,Quarter,G#4_D#5_B4
615,Left,1,52,110,161.333333,0.322917,Triplet,E3
616,Right,0,76,110,161.5,0.489583,Eighth,E5
617,Left,1,50,110,161.666667,0.322917,Triplet,D3
618,Right,0,69,110,162.0,0.989583,Quarter,F#5_C#5_A4
621,Left,1,45,110,162.0,0.322917,Triplet,A2
622,Left,1,49,110,162.333333,0.322917,Triplet,C#3
623,Right,0,76,110,162.5,0.489583,Eighth,E5
624,Left,1,52,110,162.666667,0.322917,Triplet,E3
625,Right,0,75,110,163.0,0.489583,Eighth,D#5
626,Left,1,57,110,163.0,0.322917,Triplet,A3
627,Left,1,52,110,163.333333,0.322917,Triplet,E3
628,Right,0,76,110,163.5,0.489583,Eighth,E5
629,Left,1,49,110,163.666667,0.322917,Triplet,C#3
630,Right,0,71,110,164.0,0.989583,Quarter,G#4_F#5_B4
631,Left,1,40,110,164.0,0.322917,Triplet,E2
634,Left,1,50,110,164.333333,0.322917,Triplet,D3
635,Right,0,76,110,164.5,0.489583,Eighth,E5
636,Left,1,52,110,164.666667,0.322917,Triplet,E3
638,Right,0,68,110,165.0,0.989583,Quarter,G#4_D#5_B4
637,Left,1,56,110,165.0,0.322917,Triplet,G#3
641,Left,1,52,110,165.333333,0.322917,Triplet,E3
642,Right,0,76,110,165.5,0.489583,Eighth,E5
643,Left,1,50,110,165.666667,0.322917,Triplet,D3
644,Left,1,49,110,166.0,0.989583,Sixteenth,C#3_A2
646,Right,0,69,110,166.0,0.989583,Quarter,A4
647,Left,1,57,80,166.25,16.739583,Unknown,A3
648,Left,1,55,80,168.0,0.989583,Quarter,G3
649,Right,0,69,80,168.333333,0.322917,Triplet,A4
650,Right,0,71,80,168.666667,0.322917,Triplet,B4
651,Left,1,52,80,169.0,0.989583,Quarter,E3
652,Right,0,73,80,169.0,0.322917,Triplet,C#5
653,Right,0,71,80,169.333333,0.322917,Triplet,B4
654,Right,0,69,80,169.666667,0.322917,Triplet,A4
655,Left,1,54,80,170.0,0.989583,Quarter,F#3
656,Right,0,74,80,170.333333,0.322917,Triplet,D5
657,Right,0,76,80,170.666667,0.322917,Triplet,E5
659,Left,1,50,80,171.0,0.989583,Quarter,D3
658,Right,0,78,80,171.0,0.322917,Triplet,F#5
660,Right,0,76,80,171.333333,0.322917,Triplet,E5
661,Right,0,74,80,171.666667,0.322917,Triplet,D5
662,Left,1,55,80,172.0,0.989583,Quarter,G3
663,Right,0,69,80,172.333333,0.322917,Triplet,A4
664,Right,0,71,80,172.666667,0.322917,Triplet,B4
665,Right,0,73,80,173.0,0.322917,Triplet,C#5
666,Left,1,52,80,173.0,0.989583,Quarter,E3
667,Right,0,71,80,173.333333,0.322917,Triplet,B4
668,Right,0,69,80,173.666667,0.322917,Triplet,A4
669,Left,1,54,80,174.0,0.989583,Quarter,F#3
670,Right,0,74,80,174.333333,0.322917,Triplet,D5
671,Right,0,76,80,174.666667,0.322917,Triplet,E5
672,Left,1,50,80,175.0,0.989583,Quarter,D3
673,Right,0,78,80,175.0,0.322917,Triplet,F#5
674,Right,0,76,80,175.333333,0.322917,Triplet,E5
675,Right,0,74,80,175.666667,0.322917,Triplet,D5
676,Left,1,55,80,176.0,0.989583,Quarter,G3
677,Right,0,69,80,176.333333,0.322917,Triplet,A4
678,Right,0,71,80,176.666667,0.322917,Triplet,B4
679,Left,1,52,80,177.0,0.989583,Quarter,E3
680,Right,0,73,80,177.0,0.322917,Triplet,C#5
681,Right,0,71,80,177.333333,0.322917,Triplet,B4
682,Right,0,69,80,177.666667,0.322917,Triplet,A4
683,Left,1,54,80,178.0,0.989583,Quarter,F#3
684,Right,0,74,80,178.333333,0.322917,Triplet,D5
685,Right,0,76,80,178.666667,0.322917,Triplet,E5
687,Left,1,50,80,179.0,0.989583,Quarter,D3
686,Right,0,78,80,179.0,0.322917,Triplet,F#5
688,Right,0,76,80,179.333333,0.322917,Triplet,E5
689,Right,0,74,80,179.666667,0.322917,Triplet,D5
690,Right,0,79,80,180.0,0.322917,Triplet,G5
691,Left,1,52,80,180.0,0.989583,Quarter,E3
692,Right,0,76,80,180.333333,0.322917,Triplet,E5
693,Right,0,73,80,180.666667,0.322917,Triplet,C#5
695,Right,0,67,80,181.0,0.322917,Triplet,G4
694,Left,1,45,80,181.0,0.989583,Quarter,A2
696,Right,0,64,80,181.333333,0.322917,Triplet,E4
697,Right,0,61,80,181.666667,0.322917,Triplet,C#4
699,Left,1,50,80,182.0,0.989583,Quarter,D3
698,Right,0,62,80,182.0,0.322917,Triplet,D4
700,Right,0,66,80,182.333333,0.322917,Triplet,F#4
701,Right,0,62,80,182.666667,0.322917,Triplet,D4
702,Right,0,57,80,183.0,0.322917,Triplet,A3
703,Left,1,42,80,183.0,0.989583,Quarter,F#2
704,Right,0,54,80,183.333333,0.322917,Triplet,F#3
705,Right,0,62,80,183.666667,0.322917,Triplet,D4
706,Left,1,45,80,184.0,7.989583,Unknown,G2_A2
708,Right,0,69,80,184.333333,0.322917,Triplet,A4
709,Right,0,71,80,184.666667,0.322917,Triplet,B4
710,Left,1,40,80,185.0,0.989583,Quarter,E2
711,Right,0,73,80,185.0,0.322917,Triplet,C#5
712,Right,0,71,80,185.333333,0.322917,Triplet,B4
713,Right,0,69,80,185.666667,0.322917,Triplet,A4
714,Left,1,42,80,186.0,0.989583,Quarter,F#2
715,Right,0,74,80,186.333333,0.322917,Triplet,D5
716,Right,0,76,80,186.666667,0.322917,Triplet,E5
717,Right,0,78,80,187.0,0.322917,Triplet,F#5
718,Left,1,38,80,187.0,0.989583,Quarter,D2
719,Right,0,76,80,187.333333,0.322917,Triplet,E5
720,Right,0,74,80,187.666667,0.322917,Triplet,D5
722,Left,1,40,80,188.0,0.989583,Quarter,E2
721,Right,0,79,80,188.0,0.322917,Triplet,G5
723,Right,0,76,80,188.333333,0.322917,Triplet,E5
724,Right,0,73,80,188.666667,0.322917,Triplet,C#5
726,Right,0,67,80,189.0,0.322917,Triplet,G4
725,Left,1,33,80,189.0,0.989583,Quarter,A1
727,Right,0,64,80,189.333333,0.322917,Triplet,E4
728,Right,0,61,80,189.666667,0.322917,Triplet,C#4
730,Left,1,38,80,190.0,0.989583,Quarter,D2
729,Right,0,62,80,190.0,0.322917,Triplet,D4
731,Right,0,66,80,190.333333,0.322917,Triplet,F#4
732,Right,0,62,80,190.666667,0.322917,Triplet,D4
733,Left,1,42,80,191.0,0.989583,Quarter,F#2
734,Right,0,57,80,191.0,0.322917,Triplet,A3
735,Right,0,54,80,191.333333,0.322917,Triplet,F#3
736,Right,0,62,80,191.666667,0.322917,Triplet,D4
737,Left,1,45,80,192.0,7.989583,Unknown,G2_A2
739,Right,0,69,80,192.333333,0.322917,Triplet,A4
740,Right,0,71,80,192.666667,0.322917,Triplet,B4
741,Right,0,73,80,193.0,0.322917,Triplet,C#5
742,Left,1,40,80,193.0,0.989583,Quarter,E2
743,Right,0,71,80,193.333333,0.322917,Triplet,B4
744,Right,0,69,80,193.666667,0.322917,Triplet,A4
745,Left,1,42,80,194.0,0.989583,Quarter,F#2
746,Right,0,74,80,194.333333,0.322917,Triplet,D5
747,Right,0,76,80,194.666667,0.322917,Triplet,E5
749,Left,1,38,80,195.0,0.989583,Quarter,D2
748,Right,0,78,80,195.0,0.322917,Triplet,F#5
750,Right,0,76,80,195.333333,0.322917,Triplet,E5
751,Right,0,74,80,195.666667,0.322917,Triplet,D5
753,Left,1,40,80,196.0,0.989583,Quarter,E2
752,Right,0,79,80,196.0,0.322917,Triplet,G5
754,Right,0,76,80,196.333333,0.322917,Triplet,E5
755,Right,0,73,80,196.666667,0.322917,Triplet,C#5
756,Left,1,33,80,197.0,0.989583,Quarter,A1
757,Right,0,67,80,197.0,0.322917,Triplet,G4
758,Right,0,64,80,197.333333,0.322917,Triplet,E4
759,Right,0,61,80,197.666667,0.322917,Triplet,C#4
760,Right,0,62,80,198.0,0.322917,Triplet,D4
761,Left,1,38,80,198.0,0.989583,Quarter,D2
762,Right,0,66,80,198.333333,0.322917,Triplet,F#4
763,Right,0,69,80,198.666667,0.322917,Triplet,A4
764,Right,0,74,80,199.0,0.322917,Triplet,D5
765,Left,1,42,80,199.0,0.989583,Quarter,F#2
766,Right,0,78,80,199.333333,0.322917,Triplet,F#5
767,Right,0,81,80,199.666667,0.322917,Triplet,A5
768,Right,0,79,80,200.0,0.322917,Triplet,G5
769,Left,1,45,80,200.0,3.989583,Whole,E2_A2
771,Right,0,76,80,200.333333,0.322917,Triplet,E5
772,Right,0,73,80,200.666667,0.322917,Triplet,C#5
774,Left,1,33,80,201.0,0.989583,Quarter,A1
773,Right,0,67,80,201.0,0.322917,Triplet,G4
775,Right,0,64,80,201.333333,0.322917,Triplet,E4
776,Right,0,61,80,201.666667,0.322917,Triplet,C#4
777,Right,0,62,80,202.0,0.322917,Triplet,D4
778,Left,1,42,80,202.0,0.989583,Quarter,F#2
779,Right,0,66,80,202.333333,0.322917,Triplet,F#4
780,Right,0,69,80,202.666667,0.322917,Triplet,A4
781,Right,0,74,80,203.0,0.322917,Triplet,D5
782,Left,1,38,80,203.0,0.989583,Quarter,D2
783,Right,0,78,80,203.333333,0.322917,Triplet,F#5
784,Right,0,81,80,203.666667,0.322917,Triplet,A5
785,Right,0,79,80,204.0,0.322917,Triplet,G5
786,Left,1,40,80,204.0,2.989583,Quarter,E2_A2
788,Right,0,76,80,204.333333,0.322917,Triplet,E5
789,Right,0,73,80,204.666667,0.322917,Triplet,C#5
791,Left,1,33,80,205.0,0.989583,Quarter,A1
790,Right,0,67,80,205.0,0.322917,Triplet,G4
792,Right,0,64,80,205.333333,0.322917,Triplet,E4
793,Right,0,61,80,205.666667,0.322917,Triplet,C#4
794,Right,0,62,80,206.0,0.322917,Triplet,D4
795,Left,1,38,80,206.0,0.989583,Quarter,D2
796,Right,0,66,80,206.333333,0.322917,Triplet,F#4
797,Right,0,62,80,206.666667,0.322917,Triplet,D4
799,Left,1,50,80,207.0,0.989583,Quarter,D3
798,Right,0,57,80,207.0,0.322917,Triplet,A3
800,Right,0,69,80,207.333333,0.322917,Triplet,A4
801,Right,0,66,80,207.666667,0.322917,Triplet,F#4
802,Right,0,62,80,208.0,0.322917,Triplet,D4
803,Right,0,74,80,208.333333,0.322917,Triplet,D5
804,Right,0,69,80,208.666667,0.322917,Triplet,A4
805,Left,1,50,80,209.0,0.989583,Quarter,F#3_D3
807,Right,0,66,80,209.0,0.322917,Triplet,F#4
808,Right,0,62,80,209.333333,0.322917,Triplet,D4
809,Right,0,74,80,209.666667,0.322917,Triplet,D5
810,Right,0,66,80,210.0,0.322917,Triplet,F#4
811,Right,0,78,80,210.333333,0.322917,Triplet,F#5
812,Right,0,74,80,210.666667,0.322917,Triplet,D5
814,Left,1,57,80,211.0,0.989583,Quarter,F#3_D3_A3
813,Right,0,69,80,211.0,0.322917,Triplet,A4
817,Right,0,66,80,211.333333,0.322917,Triplet,F#4
818,Right,0,78,80,211.666667,0.322917,Triplet,F#5
819,Right,0,69,80,212.0,0.322917,Triplet,A4
820,Right,0,81,80,212.333333,0.322917,Triplet,A5
821,Right,0,78,80,212.666667,0.322917,Triplet,F#5
823,Left,1,50,80,213.0,0.989583,Quarter,F#3_D4_D3_A3
822,Right,0,74,80,213.0,0.322917,Triplet,D5
827,Right,0,69,80,213.333333,0.322917,Triplet,A4
828,Right,0,81,80,213.666667,0.322917,Triplet,A5
829,Right,0,74,80,214.0,0.322917,Triplet,D5
830,Right,0,86,81,214.333333,0.322917,Triplet,D6
831,Right,0,74,82,214.666667,0.322917,Triplet,D5
833,Left,1,54,83,215.0,0.989583,Quarter,F#3_D4_A3
832,Right,0,86,83,215.0,0.322917,Triplet,D6
836,Right,0,74,85,215.333333,0.322917,Triplet,D5
837,Right,0,86,86,215.666667,0.322917,Triplet,D6
839,Left,1,53,87,216.0,0.989583,Quarter,G#3_F3_D4
838,Right,0,74,87,216.0,0.322917,Triplet,D5
842,Right,0,86,88,216.333333,0.322917,Triplet,D6
843,Right,0,74,90,216.666667,0.322917,Triplet,D5
845,Left,1,54,91,217.0,0.989583,Quarter,F#3_D4_A3
844,Right,0,86,91,217.0,0.322917,Triplet,D6
848,Right,0,74,92,217.333333,0.322917,Triplet,D5
849,Right,0,86,93,217.666667,0.322917,Triplet,D6
850,Left,1,62,95,218.0,0.989583,Quarter,G#3_F3_D4
851,Right,0,74,95,218.0,0.322917,Triplet,D5
854,Right,0,86,96,218.333333,0.322917,Triplet,D6
855,Right,0,74,97,218.666667,0.322917,Triplet,D5
858,Right,0,86,98,219.0,0.322917,Triplet,D6
856,Left,1,62,98,219.0,0.989583,Quarter,F#3_D4_A3
860,Right,0,74,100,219.333333,0.322917,Triplet,D5
861,Right,0,86,101,219.666667,0.322917,Triplet,D6
862,Right,0,74,102,220.0,0.322917,Triplet,D5
863,Left,1,62,102,220.0,0.989583,Quarter,G#3_F3_D4
866,Right,0,86,103,220.333333,0.322917,Triplet,D6
867,Right,0,74,105,220.666667,0.322917,Triplet,D5
868,Right,0,86,106,221.0,0.322917,Triplet,D6
869,Left,1,54,106,221.0,0.989583,Quarter,F#3_D4_A3
872,Right,0,74,107,221.333333,0.322917,Triplet,D5
873,Right,0,86,108,221.666667,0.322917,Triplet,D6
875,Left,1,62,110,222.0,0.989583,Quarter,G#3_F3_D4
874,Right,0,74,110,222.0,0.322917,Triplet,D5
878,Right,0,86,110,222.333333,0.322917,Triplet,D6
879,Right,0,74,109,222.666667,0.322917,Triplet,D5
881,Left,1,62,108,223.0,0.989583,Quarter,F#3_D4_A3
880,Right,0,86,108,223.0,0.322917,Triplet,D6
884,Right,0,74,107,223.333333,0.322917,Triplet,D5
885,Right,0,86,106,223.666667,0.322917,Triplet,D6
889,Right,0,83,105,224.0,0.322917,Triplet,B5
886,Left,1,59,105,224.0,2.989583,DottedHalf,G3_D4_B3
890,Right,0,85,105,224.333333,0.322917,Triplet,C#6
891,Right,0,86,104,224.666667,0.322917,Triplet,D6
892,Right,0,79,103,225.0,0.322917,Triplet,G5
893,Right,0,81,102,225.333333,0.322917,Triplet,A5
894,Right,0,83,101,225.666667,0.322917,Triplet,B5
895,Right,0,76,100,226.0,0.322917,Triplet,E5
896,Right,0,78,100,226.333333,0.322917,Triplet,F#5
897,Right,0,79,99,226.666667,0.322917,Triplet,G5
898,Left,1,67,98,227.0,0.989583,Quarter,G4_G3
900,Right,0,71,98,227.0,0.322917,Triplet,B4
901,Right,0,78,97,227.333333,0.322917,Triplet,F#5
902,Right,0,76,96,227.666667,0.322917,Triplet,E5
905,Right,0,69,95,228.0,0.322917,Triplet,A4
903,Left,1,66,95,228.0,0.989583,Quarter,F#4_A3
906,Right,0,76,95,228.333333,0.322917,Triplet,E5
907,Right,0,74,94,228.666667,0.322917,Triplet,D5
910,Right,0,67,93,229.0,0.322917,Triplet,G4
908,Left,1,57,93,229.0,0.989583,Quarter,E4_A3
911,Right,0,74,92,229.333333,0.322917,Triplet,D5
912,Right,0,73,91,229.666667,0.322917,Triplet,C#5
913,Right,0,74,80,230.0,0.322917,Triplet,D5
914,Right,0,86,81,230.333333,0.322917,Triplet,D6
915,Right,0,74,82,230.666667,0.322917,Triplet,D5
917,Left,1,54,83,231.0,0.989583,Quarter,F#3_D4_A3
916,Right,0,86,83,231.0,0.322917,Triplet,D6
920,Right,0,74,85,231.333333,0.322917,Triplet,D5
921,Right,0,86,86,231.666667,0.322917,Triplet,D6
925,Right,0,74,87,232.0,0.322917,Triplet,D5
922,Left,1,53,87,232.0,0.989583,Quarter,G#3_F3_D4
926,Right,0,86,88,232.333333,0.322917,Triplet,D6
927,Right,0,74,90,232.666667,0.322917,Triplet,D5
931,Right,0,86,91,233.0,0.322917,Triplet,D6
928,Left,1,54,91,233.0,0.989583,Quarter,F#3_D4_A3
932,Right,0,74,92,233.333333,0.322917,Triplet,D5
933,Right,0,86,93,233.666667,0.322917,Triplet,D6
937,Right,0,74,95,234.0,0.322917,Triplet,D5
934,Left,1,53,95,234.0,0.989583,Quarter,G#3_F3_D4
938,Right,0,86,96,234.333333,0.322917,Triplet,D6
939,Right,0,74,97,234.666667,0.322917,Triplet,D5
940,Left,1,57,98,235.0,0.989583,Quarter,F#3_D4_A3
943,Right,0,86,98,235.0,0.322917,Triplet,D6
944,Right,0,74,100,235.333333,0.322917,Triplet,D5
945,Right,0,86,101,235.666667,0.322917,Triplet,D6
946,Left,1,62,102,236.0,0.989583,Quarter,G#3_F3_D4
949,Right,0,74,102,236.0,0.322917,Triplet,D5
950,Right,0,86,103,236.333333,0.322917,Triplet,D6
951,Right,0,74,105,236.666667,0.322917,Triplet,D5
952,Left,1,62,106,237.0,0.989583,Quarter,F#3_D4_A3
955,Right,0,86,106,237.0,0.322917,Triplet,D6
956,Right,0,74,107,237.333333,0.322917,Triplet,D5
957,Right,0,86,108,237.666667,0.322917,Triplet,D6
958,Left,1,62,110,238.0,0.989583,Quarter,G#3_F3_D4
960,Right,0,74,110,238.0,0.322917,Triplet,D5
962,Right,0,86,110,238.333333,0.322917,Triplet,D6
963,Right,0,74,110,238.666667,0.322917,Triplet,D5
967,Right,0,86,110,239.0,0.322917,Triplet,D6
964,Left,1,57,110,239.0,0.989583,Quarter,F#3_D4_A3
968,Right,0,74,110,239.333333,0.322917,Triplet,D5
969,Right,0,86,110,239.666667,0.322917,Triplet,D6
971,Right,0,74,110,240.0,0.322917,Triplet,D5
970,Left,1,60,110,240.0,6.989583,Unknown,D4_C4_A3
974,Right,0,86,110,240.333333,0.322917,Triplet,D6
975,Right,0,74,110,240.666667,0.322917,Triplet,D5
976,Right,0,86,110,241.0,0.322917,Triplet,D6
977,Right,0,74,110,241.333333,0.322917,Triplet,D5
978,Right,0,86,110,241.666667,0.322917,Triplet,D6
979,Right,0,85,80,242.0,0.322917,Triplet,C#6
980,Right,0,88,80,242.333333,0.322917,Triplet,E6
981,Right,0,86,80,242.666667,0.322917,Triplet,D6
982,Right,0,80,80,243.0,0.322917,Triplet,G#5
983,Right,0,83,80,243.333333,0.322917,Triplet,B5
984,Right,0,81,80,243.666667,0.322917,Triplet,A5
985,Right,0,77,80,244.0,0.322917,Triplet,F5
986,Right,0,79,80,244.333333,0.322917,Triplet,G5
987,Right,0,78,80,244.666667,0.322917,Triplet,F#5
988,Right,0,73,80,245.0,0.322917,Triplet,C#5
989,Right,0,76,80,245.333333,0.322917,Triplet,E5
990,Right,0,74,80,245.666667,0.322917,Triplet,D5
991,Right,0,74,110,246.0,0.322917,Triplet,D5
992,Right,0,86,110,246.333333,0.322917,Triplet,D6
993,Right,0,74,110,246.666667,0.322917,Triplet,D5
997,Right,0,86,110,247.0,0.322917,Triplet,D6
994,Left,1,62,110,247.0,0.989583,Quarter,F#3_D4_A3
998,Right,0,74,110,247.333333,0.322917,Triplet,D5
999,Right,0,86,110,247.666667,0.322917,Triplet,D6
1000,Left,1,60,110,248.0,6.322917,Unknown,D4_C4_A3
1002,Right,0,74,110,248.0,0.322917,Triplet,D5
1004,Right,0,86,110,248.333333,0.322917,Triplet,D6
1005,Right,0,74,110,248.666667,0.322917,Triplet,D5
1006,Right,0,86,110,249.0,0.322917,Triplet,D6
1007,Right,0,74,110,249.333333,0.322917,Triplet,D5
1008,Right,0,86,110,249.666667,0.322917,Triplet,D6
1009,Right,0,85,80,250.0,0.322917,Triplet,C#6
1010,Right,0,88,80,250.333333,0.322917,Triplet,E6
1011,Right,0,86,80,250.666667,0.322917,Triplet,D6
1012,Right,0,80,80,251.0,0.322917,Triplet,G#5
1013,Right,0,83,80,251.333333,0.322917,Triplet,B5
1014,Right,0,81,80,251.666667,0.322917,Triplet,A5
1015,Right,0,77,80,252.0,0.322917,Triplet,F5
1016,Right,0,79,80,252.333333,0.322917,Triplet,G5
1017,Right,0,78,80,252.666667,0.322917,Triplet,F#5
1018,Right,0,73,80,253.0,0.322917,Triplet,C#5
1019,Right,0,76,80,253.333333,0.322917,Triplet,E5
1020,Right,0,74,80,253.666667,0.322917,Triplet,D5
1021,Right,0,74,80,254.0,0.322917,Triplet,D5
1022,Right,0,86,80,254.333333,0.322917,Triplet,D6
1023,Left,1,60,80,254.333333,0.322917,Triplet,C4
1024,Right,0,74,80,254.666667,0.322917,Triplet,D5
1025,Left,1,62,80,254.666667,0.322917,Triplet,D4
1027,Right,0,86,80,255.0,0.322917,Triplet,D6
1026,Left,1,54,80,255.0,0.322917,Triplet,F#3
1028,Right,0,74,80,255.333333,0.322917,Triplet,D5
1029,Left,1,57,80,255.333333,0.322917,Triplet,A3
1031,Left,1,62,80,255.666667,0.322917,Triplet,D4
1030,Right,0,86,80,255.666667,0.322917,Triplet,D6
1032,Right,0,74,80,256.0,0.322917,Triplet,D5
1033,Left,1,57,80,256.0,0.322917,Triplet,A3
1034,Right,0,86,80,256.333333,0.322917,Triplet,D6
1035,Left,1,60,80,256.333333,0.322917,Triplet,C4
1036,Left,1,62,80,256.666667,0.322917,Triplet,D4
1037,Right,0,74,80,256.666667,0.322917,Triplet,D5
1038,Right,0,86,80,257.0,0.322917,Triplet,D6
1039,Left,1,54,80,257.0,0.322917,Triplet,F#3
1040,Right,0,74,80,257.333333,0.322917,Triplet,D5
1041,Left,1,57,80,257.333333,0.322917,Triplet,A3
1043,Left,1,62,80,257.666667,0.322917,Triplet,D4
1042,Right,0,86,80,257.666667,0.322917,Triplet,D6
1045,Left,1,57,80,258.0,0.322917,Triplet,A3
1044,Right,0,74,80,258.0,0.322917,Triplet,D5
1047,Left,1,60,80,258.333333,0.322917,Triplet,C4
1046,Right,0,86,80,258.333333,0.322917,Triplet,D6
1048,Right,0,74,80,258.666667,0.322917,Triplet,D5
1049,Left,1,62,80,258.666667,0.322917,Triplet,D4
1050,Left,1,54,80,259.0,0.322917,Triplet,F#3
1051,Right,0,86,80,259.0,0.322917,Triplet,D6
1052,Right,0,74,80,259.333333,0.322917,Triplet,D5
1053,Left,1,57,80,259.333333,0.322917,Triplet,A3
1054,Right,0,86,80,259.666667,0.322917,Triplet,D6
1055,Left,1,62,80,259.666667,0.322917,Triplet,D4
1056,Right,0,74,80,260.0,0.322917,Triplet,D5
1057,Left,1,57,80,260.0,0.322917,Triplet,A3
1058,Right,0,86,80,260.333333,0.322917,Triplet,D6
1059,Left,1,60,80,260.333333,0.322917,Triplet,C4
1061,Left,1,62,80,260.666667,0.322917,Triplet,D4
1060,Right,0,74,80,260.666667,0.322917,Triplet,D5
1063,Right,0,86,80,261.0,0.322917,Triplet,D6
1062,Left,1,54,80,261.0,0.322917,Triplet,F#3
1064,Right,0,74,80,261.333333,0.322917,Triplet,D5
1065,Left,1,57,80,261.333333,0.322917,Triplet,A3
1066,Left,1,62,80,261.666667,0.322917,Triplet,D4
1067,Right,0,86,80,261.666667,0.322917,Triplet,D6
1068,Left,1,57,80,262.0,0.322917,Triplet,A3
1069,Right,0,74,80,262.0,0.989583,Quarter,D6_D5
1071,Left,1,60,80,262.333333,0.322917,Triplet,C4
1072,Left,1,62,80,262.666667,0.322917,Triplet,D4
1073,Left,1,55,80,263.0,0.322917,Triplet,G3
1074,Left,1,59,80,263.333333,0.322917,Triplet,B3
1075,Left,1,62,80,263.666667,0.322917,Triplet,D4
1077,Left,1,54,80,264.0,0.322917,Triplet,F#3
1076,Right,0,76,80,264.0,0.114583,ThirtySecond,E5
1078,Right,0,74,80,264.125,0.333333,Triplet,D5
1079,Left,1,57,80,264.333333,0.322917,Triplet,A3
1080,Right,0,73,80,264.5,0.489583,Eighth,C#5
1081,Left,1,62,80,264.666667,0.322917,Triplet,D4
1082,Right,0,74,80,265.0,0.489583,Eighth,D5
1083,Left,1,52,80,265.0,0.322917,Triplet,E3
1084,Left,1,55,80,265.333333,0.322917,Triplet,G3
1085,Right,0,76,80,265.5,0.489583,Eighth,E5
1086,Left,1,62,80,265.666667,0.322917,Triplet,D4
1088,Left,1,50,80,266.0,0.322917,Triplet,D3
1087,Right,0,74,80,266.0,0.989583,Quarter,D5
1089,Left,1,54,80,266.333333,0.322917,Triplet,F#3
1090,Left,1,62,80,266.666667,0.322917,Triplet,D4
1092,Left,1,48,80,267.0,0.322917,Triplet,C3
1091,Right,0,62,80,267.0,0.989583,Quarter,D4
1093,Left,1,52,80,267.333333,0.322917,Triplet,E3
1094,Left,1,60,80,267.666667,0.322917,Triplet,C4
1095,Right,0,64,80,268.0,0.989583,Quarter,E4
1096,Left,1,47,80,268.0,0.322917,Triplet,B2
1097,Left,1,50,80,268.333333,0.322917,Triplet,D3
1098,Left,1,59,80,268.666667,0.322917,Triplet,B3
1099,Right,0,66,80,269.0,0.989583,Quarter,F#4
1100,Left,1,45,80,269.0,0.322917,Triplet,A2
1101,Left,1,48,80,269.333333,0.322917,Triplet,C3
1102,Left,1,57,80,269.666667,0.322917,Triplet,A3
1104,Right,0,67,80,270.0,1.989583,Half,G4
1103,Left,1,47,80,270.0,0.322917,Triplet,B2
1105,Left,1,50,80,270.333333,0.322917,Triplet,D3
1106,Left,1,48,80,270.666667,0.322917,Triplet,C3
1107,Left,1,47,80,271.0,0.322917,Triplet,B2
1108,Left,1,45,80,271.333333,0.322917,Triplet,A2
1109,Left,1,43,80,271.666667,0.322917,Triplet,G2
1111,Left,1,42,80,272.0,0.322917,Triplet,F#2
1110,Right,0,71,80,272.0,0.489583,Eighth,B4
1112,Left,1,45,80,272.333333,0.322917,Triplet,A2
1113,Right,0,69,80,272.5,0.489583,Eighth,A4
1114,Left,1,43,80,272.666667,0.322917,Triplet,G2
1115,Left,1,42,80,273.0,0.322917,Triplet,F#2
1116,Right,0,67,80,273.0,0.489583,Eighth,G4
1117,Left,1,40,80,273.333333,0.322917,Triplet,E2
1118,Right,0,69,80,273.5,0.489583,Eighth,A4
1119,Left,1,38,80,273.666667,0.322917,Triplet,D2
1121,Right,0,71,80,274.0,0.989583,Quarter,B4
1120,Left,1,43,80,274.0,0.322917,Triplet,G2
1122,Left,1,42,80,274.333333,0.322917,Triplet,F#2
1123,Left,1,43,80,274.666667,0.322917,Triplet,G2
1124,Right,0,67,80,275.0,0.989583,Quarter,G4
1125,Left,1,40,80,275.0,0.322917,Triplet,E2
1126,Left,1,42,80,275.333333,0.322917,Triplet,F#2
1127,Left,1,43,80,275.666667,0.322917,Triplet,G2
1129,Right,0,73,80,276.0,0.989583,Quarter,C#5
1128,Left,1,45,80,276.0,0.322917,Triplet,A2
1130,Left,1,47,80,276.333333,0.322917,Triplet,B2
1131,Left,1,45,80,276.666667,0.322917,Triplet,A2
1133,Left,1,43,80,277.0,0.322917,Triplet,G2
1132,Right,0,69,80,277.0,0.989583,Quarter,A4
1134,Left,1,42,80,277.333333,0.322917,Triplet,F#2
1135,Left,1,40,80,277.666667,0.322917,Triplet,E2
1136,Right,0,74,80,278.0,0.989583,Quarter,D5
1137,Left,1,38,80,278.0,0.322917,Triplet,D2
1138,Left,1,42,80,278.333333,0.322917,Triplet,F#2
1139,Left,1,43,80,278.666667,0.322917,Triplet,G2
1140,Left,1,45,80,279.0,0.322917,Triplet,A2
1141,Left,1,47,80,279.333333,0.322917,Triplet,B2
1142,Left,1,49,80,279.666667,0.322917,Triplet,C#3
1143,Left,1,50,80,280.0,0.322917,Triplet,D3
1144,Right,0,76,80,280.0,0.114583,ThirtySecond,E5
1145,Right,0,74,80,280.125,0.333333,Triplet,D5
1146,Left,1,38,80,280.333333,0.322917,Triplet,D2
1147,Right,0,73,80,280.5,0.489583,Eighth,C#5
1148,Left,1,50,80,280.666667,0.322917,Triplet,D3
1149,Left,1,47,80,281.0,0.322917,Triplet,B2
1150,Right,0,74,80,281.0,0.489583,Eighth,D5
1151,Left,1,50,80,281.333333,0.322917,Triplet,D3
1152,Right,0,76,80,281.5,0.489583,Eighth,E5
1153,Left,1,47,80,281.666667,0.322917,Triplet,B2
1154,Right,0,74,80,282.0,0.989583,Quarter,D5
1155,Left,1,48,80,282.0,0.322917,Triplet,C3
1156,Left,1,50,80,282.333333,0.322917,Triplet,D3
1157,Left,1,48,80,282.666667,0.322917,Triplet,C3
1159,Left,1,47,80,283.0,0.322917,Triplet,B2
1158,Right,0,62,80,283.0,0.989583,Quarter,D4
1160,Left,1,50,80,283.333333,0.322917,Triplet,D3
1161,Left,1,47,80,283.666667,0.322917,Triplet,B2
1163,Right,0,64,80,284.0,0.989583,Quarter,E4
1162,Left,1,48,80,284.0,0.322917,Triplet,C3
1164,Left,1,50,80,284.333333,0.322917,Triplet,D3
1165,Left,1,48,80,284.666667,0.322917,Triplet,C3
1166,Right,0,66,80,285.0,0.989583,Quarter,F#4
1167,Left,1,47,80,285.0,0.322917,Triplet,B2
1168,Left,1,50,80,285.333333,0.322917,Triplet,D3
1169,Left,1,47,80,285.666667,0.322917,Triplet,B2
1171,Left,1,47,80,286.0,0.322917,Triplet,B2
1170,Right,0,67,80,286.0,1.989583,Half,G4
1172,Left,1,50,80,286.333333,0.322917,Triplet,D3
1173,Left,1,48,80,286.666667,0.322917,Triplet,C3
1174,Left,1,47,80,287.0,0.322917,Triplet,B2
1175,Left,1,45,80,287.333333,0.322917,Triplet,A2
1176,Left,1,43,80,287.666667,0.322917,Triplet,G2
1177,Right,0,71,80,288.0,0.489583,Eighth,B4
1178,Left,1,42,80,288.0,0.322917,Triplet,F#2
1179,Left,1,45,80,288.333333,0.322917,Triplet,A2
1180,Right,0,69,80,288.5,0.489583,Eighth,A4
1181,Left,1,43,80,288.666667,0.322917,Triplet,G2
1182,Right,0,67,80,289.0,0.489583,Eighth,G4
1183,Left,1,42,80,289.0,0.322917,Triplet,F#2
1184,Left,1,40,80,289.333333,0.322917,Triplet,E2
1185,Right,0,69,80,289.5,0.489583,Eighth,A4
1186,Left,1,38,80,289.666667,0.322917,Triplet,D2
1188,Left,1,43,80,290.0,0.322917,Triplet,G2
1187,Right,0,71,80,290.0,0.989583,Quarter,B4
1189,Left,1,42,80,290.333333,0.322917,Triplet,F#2
1190,Left,1,43,80,290.666667,0.322917,Triplet,G2
1191,Left,1,40,80,291.0,0.322917,Triplet,E2
1192,Right,0,67,80,291.0,0.989583,Quarter,G4
1193,Left,1,39,80,291.333333,0.322917,Triplet,D#2
1194,Left,1,40,80,291.666667,0.322917,Triplet,E2
1196,Right,0,72,80,292.0,0.989583,Quarter,C5
1195,Left,1,36,80,292.0,0.322917,Triplet,C2
1197,Left,1,35,80,292.333333,0.322917,Triplet,B1
1198,Left,1,36,80,292.666667,0.322917,Triplet,C2
1199,Left,1,38,80,293.0,0.322917,Triplet,D2
1200,Right,0,69,80,293.0,0.989583,Quarter,A4
1201,Left,1,37,80,293.333333,0.322917,Triplet,C#2
1202,Left,1,38,80,293.666667,0.322917,Triplet,D2
1203,Right,0,67,80,294.0,0.989583,Quarter,G4
1204,Left,1,31,80,294.0,0.322917,Triplet,G1
1205,Left,1,35,80,294.333333,0.322917,Triplet,B1
1206,Left,1,38,80,294.666667,0.322917,Triplet,D2
1207,Left,1,43,80,295.0,0.322917,Triplet,G2
1208,Left,1,47,80,295.333333,0.322917,Triplet,B2
1209,Left,1,50,80,295.666667,0.322917,Triplet,D3
1213,Left,1,43,80,296.0,0.489583,Eighth,G2
1210,Right,0,67,80,296.0,2.989583,Quarter,G5_G4_B4
1214,Left,1,55,81,296.5,0.489583,Eighth,G3
1215,Right,0,72,83,297.0,0.989583,Quarter,F#5_C5
1217,Left,1,45,83,297.0,0.489583,Eighth,A2
1218,Left,1,57,85,297.5,0.489583,Eighth,A3
1219,Left,1,47,87,298.0,0.489583,Eighth,B2
1220,Right,0,74,87,298.0,0.989583,Quarter,F5_D5
1222,Left,1,59,89,298.5,0.489583,Eighth,B3
1223,Left,1,48,91,299.0,0.489583,Eighth,C3
1224,Right,0,67,91,299.0,1.989583,Quarter,G4_E5_C5
1227,Left,1,60,93,299.5,0.489583,Eighth,C4
1228,Left,1,51,95,300.0,0.489583,Eighth,D#3
1229,Right,0,72,95,300.0,0.989583,Quarter,D#5_C5
1231,Left,1,63,97,300.5,0.489583,Eighth,D#4
1232,Left,1,54,99,301.0,0.489583,Eighth,F#3
1233,Right,0,75,99,301.0,0.989583,Quarter,D#5_C5_A4
1236,Left,1,66,80,301.5,0.489583,Eighth,F#4
1237,Right,0,72,80,302.0,0.989583,Quarter,D#5_C5
1238,Left,1,55,80,302.0,0.489583,Eighth,G3
1240,Left,1,67,80,302.5,0.489583,Eighth,G4
1242,Right,0,74,80,303.0,0.989583,Quarter,D5_B4
1241,Left,1,43,80,303.0,0.489583,Eighth,G2
1244,Left,1,55,80,303.5,0.489583,Eighth,G3
1246,Right,0,66,80,304.0,1.989583,Half,F#4_E5_A4
1245,Left,1,50,80,304.0,0.489583,Eighth,D3
1249,Right,0,74,80,304.5,0.489583,Eighth,D5
1250,Left,1,62,80,304.5,0.489583,Eighth,D4
1252,Left,1,38,80,305.0,0.489583,Eighth,D2
1251,Right,0,73,80,305.0,0.489583,Eighth,C#5
1253,Left,1,50,80,305.5,0.489583,Eighth,D3
1254,Right,0,74,80,305.5,0.489583,Eighth,D5
1256,Left,1,43,80,306.0,0.489583,Eighth,G2
1255,Right,0,67,80,306.0,0.989583,Quarter,G4_D4_B4
1259,Left,1,55,80,306.5,0.489583,Eighth,G3
1260,Right,0,74,80,307.0,0.989583,Quarter,D5
1261,Left,1,31,80,307.0,0.489583,Eighth,G1
1262,Left,1,43,80,307.5,0.489583,Eighth,G2
1264,Left,1,38,80,308.0,0.489583,Eighth,D2
1263,Right,0,76,80,308.0,1.989583,Half,F#4_E5_A4
1267,Left,1,50,80,308.5,0.489583,Eighth,D3
1268,Right,0,74,80,308.5,0.489583,Eighth,D5
1269,Left,1,38,80,309.0,0.489583,Eighth,D2
1270,Right,0,73,80,309.0,0.489583,Eighth,C#5
1271,Right,0,74,80,309.5,0.489583,Eighth,D5
1272,Left,1,50,80,309.5,0.489583,Eighth,D3
1275,Left,1,31,80,310.0,0.322917,Triplet,G1
1273,Right,0,67,80,310.0,0.989583,Quarter,G4_D4_B4
1277,Left,1,35,80,310.333333,0.322917,Triplet,B1
1278,Left,1,38,80,310.666667,0.322917,Triplet,D2
1279,Left,1,43,80,311.0,0.322917,Triplet,G2
1280,Left,1,42,80,311.333333,0.322917,Triplet,F#2
1281,Left,1,43,80,311.666667,0.322917,Triplet,G2
1285,Left,1,31,80,312.0,0.489583,Eighth,G1
1282,Right,0,71,80,312.0,2.989583,Quarter,G5_G4_B4
1286,Left,1,43,81,312.5,0.489583,Eighth,G2
1288,Right,0,78,83,313.0,0.989583,Quarter,F#5_C5
1287,Left,1,33,83,313.0,0.489583,Eighth,A1
1290,Left,1,45,85,313.5,0.489583,Eighth,A2
1291,Left,1,35,87,314.0,0.489583,Eighth,B1
1292,Right,0,77,87,314.0,0.989583,Quarter,F5_D5
1294,Left,1,47,89,314.5,0.489583,Eighth,B2
1296,Right,0,76,91,315.0,1.989583,Quarter,G4_E5_C5
1295,Left,1,36,91,315.0,0.489583,Eighth,C2
1299,Left,1,48,93,315.5,0.489583,Eighth,C3
1301,Left,1,39,95,316.0,0.489583,Eighth,D#2
1300,Right,0,75,95,316.0,0.989583,Quarter,D#5_C5
1303,Left,1,51,97,316.5,0.489583,Eighth,D#3
1304,Left,1,42,99,317.0,0.489583,Eighth,F#2
1305,Right,0,69,99,317.0,0.989583,Quarter,D#5_C5_A4
1308,Left,1,54,80,317.5,0.489583,Eighth,F#3
1309,Left,1,43,80,318.0,0.489583,Eighth,G2
1310,Right,0,72,80,318.0,0.989583,Quarter,D#5_C5
1312,Left,1,55,80,318.5,0.489583,Eighth,G3
1313,Right,0,74,80,319.0,0.989583,Quarter,D5_B4
1315,Left,1,47,80,319.0,0.489583,Eighth,B2
1316,Left,1,59,80,319.5,0.489583,Eighth,B3
1320,Left,1,50,80,320.0,0.489583,Eighth,D3
1317,Right,0,76,80,320.0,1.989583,Half,F#4_E5_A4
1321,Left,1,62,80,320.5,0.489583,Eighth,D4
1322,Right,0,74,80,320.5,0.489583,Eighth,D5
1324,Right,0,73,80,321.0,0.489583,Eighth,C#5
1323,Left,1,38,80,321.0,0.489583,Eighth,D2
1326,Right,0,74,80,321.5,0.489583,Eighth,D5
1325,Left,1,50,80,321.5,0.489583,Eighth,D3
1328,Right,0,62,80,322.0,0.989583,Quarter,G4_D4_B4
1327,Left,1,43,80,322.0,0.489583,Eighth,G2
1331,Left,1,55,80,322.5,0.489583,Eighth,G3
1333,Right,0,74,80,323.0,0.989583,Quarter,D5
1332,Left,1,31,80,323.0,0.489583,Eighth,G1
1334,Left,1,43,80,323.5,0.489583,Eighth,G2
1337,Left,1,38,80,324.0,0.489583,Eighth,D2
1335,Right,0,69,80,324.0,1.989583,Half,F#4_E5_A4
1340,Left,1,50,80,324.5,0.489583,Eighth,D3
1339,Right,0,74,80,324.5,0.489583,Eighth,D5
1342,Left,1,38,80,325.0,0.489583,Eighth,D2
1341,Right,0,73,80,325.0,0.489583,Eighth,C#5
1344,Left,1,50,80,325.5,0.489583,Eighth,D3
1343,Right,0,74,80,325.5,0.489583,Eighth,D5
1348,Left,1,31,80,326.0,0.989583,Quarter,G1
1345,Right,0,71,80,326.0,0.989583,Quarter,G4_D4_B4
1349,Left,1,43,80,327.0,0.989583,Quarter,G2
1350,Left,1,51,80,328.0,0.114583,ThirtySecond,D#3
1351,Left,1,50,80,328.125,0.34375,Triplet,D3
1352,Left,1,49,80,328.5,0.489583,Eighth,C#3
1353,Left,1,50,80,329.0,0.489583,Eighth,D3
1354,Left,1,51,80,329.5,0.489583,Eighth,D#3
1355,Left,1,50,80,330.0,0.989583,Quarter,D3
1356,Right,0,82,80,330.333333,0.322917,Triplet,A#5
1357,Right,0,84,80,330.666667,0.322917,Triplet,C6
1359,Right,0,86,80,331.0,0.322917,Triplet,D6
1358,Left,1,38,80,331.0,8.989583,Unknown,D2
1360,Right,0,84,80,331.333333,0.322917,Triplet,C6
1361,Right,0,82,80,331.666667,0.322917,Triplet,A#5
1362,Left,1,40,80,332.0,0.989583,Quarter,E2
1363,Right,0,84,80,332.0,0.322917,Triplet,C6
1364,Right,0,81,80,332.333333,0.322917,Triplet,A5
1365,Right,0,82,80,332.666667,0.322917,Triplet,A#5
1366,Right,0,84,80,333.0,0.322917,Triplet,C6
1367,Left,1,42,80,333.0,0.989583,Quarter,F#2
1368,Right,0,82,80,333.333333,0.322917,Triplet,A#5
1369,Right,0,81,80,333.666667,0.322917,Triplet,A5
1371,Right,0,82,80,334.0,0.322917,Triplet,A#5
1370,Left,1,43,80,334.0,1.989583,Half,G2
1372,Right,0,79,80,334.333333,0.322917,Triplet,G5
1373,Right,0,81,80,334.666667,0.322917,Triplet,A5
1374,Right,0,82,80,335.0,0.322917,Triplet,A#5
1375,Right,0,81,80,335.333333,0.322917,Triplet,A5
1376,Right,0,79,80,335.666667,0.322917,Triplet,G5
1378,Left,1,46,80,336.0,0.489583,Eighth,A#2
1377,Right,0,78,80,336.0,0.322917,Triplet,F#5
1379,Right,0,75,80,336.333333,0.322917,Triplet,D#5
1380,Left,1,45,80,336.5,0.489583,Eighth,A2
1381,Right,0,74,80,336.666667,0.322917,Triplet,D5
1382,Left,1,43,80,337.0,0.489583,Eighth,G2
1383,Right,0,72,80,337.0,0.322917,Triplet,C5
1384,Right,0,70,80,337.333333,0.322917,Triplet,A#4
1385,Left,1,45,80,337.5,0.489583,Eighth,A2
1386,Right,0,69,80,337.666667,0.322917,Triplet,A4
1388,Left,1,46,80,338.0,0.989583,Quarter,A#2
1387,Right,0,67,80,338.0,0.322917,Triplet,G4
1389,Right,0,74,80,338.333333,0.322917,Triplet,D5
1390,Right,0,73,80,338.666667,0.322917,Triplet,C#5
1392,Left,1,43,80,339.0,0.989583,Quarter,G2
1391,Right,0,74,80,339.0,0.322917,Triplet,D5
1393,Right,0,70,80,339.333333,0.322917,Triplet,A#4
1394,Right,0,69,80,339.666667,0.322917,Triplet,A4
1396,Right,0,67,80,340.0,0.322917,Triplet,G4
1395,Left,1,49,80,340.0,1.989583,Quarter,D2_C#3
1398,Right,0,76,80,340.333333,0.322917,Triplet,E5
1399,Right,0,75,80,340.666667,0.322917,Triplet,D#5
1400,Left,1,45,80,341.0,0.989583,Quarter,A2
1401,Right,0,76,80,341.0,0.322917,Triplet,E5
1402,Right,0,73,80,341.333333,0.322917,Triplet,C#5
1403,Right,0,67,80,341.666667,0.322917,Triplet,G4
1404,Right,0,66,80,342.0,0.322917,Triplet,F#4
1405,Left,1,38,80,342.0,1.989583,Half,D3_D2
1407,Right,0,74,80,342.333333,0.322917,Triplet,D5
1408,Right,0,73,80,342.666667,0.322917,Triplet,C#5
1409,Right,0,74,80,343.0,0.322917,Triplet,D5
1410,Right,0,69,80,343.333333,0.322917,Triplet,A4
1411,Right,0,66,80,343.666667,0.322917,Triplet,F#4
1413,Left,1,51,80,344.0,0.114583,ThirtySecond,D#3
1412,Right,0,62,80,344.0,0.989583,Quarter,D4
1414,Left,1,50,80,344.125,0.34375,Triplet,D3
1415,Left,1,49,80,344.5,0.489583,Eighth,C#3
1416,Left,1,50,80,345.0,0.489583,Eighth,D3
1417,Left,1,51,80,345.5,0.489583,Eighth,D#3
1418,Left,1,50,80,346.0,0.989583,Quarter,D3
1419,Left,1,38,80,347.0,0.989583,Quarter,D2
1420,Left,1,40,80,348.0,0.989583,Quarter,E2
1421,Right,0,62,80,348.0,0.489583,Eighth,D4
1422,Right,0,61,80,348.5,0.489583,Eighth,C#4
1424,Left,1,42,81,349.0,0.989583,Quarter,F#2
1423,Right,0,62,81,349.0,0.489583,Eighth,D4
1425,Right,0,63,82,349.5,0.489583,Eighth,D#4
1427,Left,1,43,83,350.0,1.989583,Half,G2
1426,Right,0,62,83,350.0,0.989583,Quarter,D4
1428,Right,0,50,85,351.0,0.989583,Quarter,D3
1430,Left,1,46,87,352.0,0.489583,Eighth,A#2
1429,Right,0,52,87,352.0,0.989583,Quarter,E3
1431,Left,1,45,88,352.5,0.489583,Eighth,A2
1432,Right,0,54,89,353.0,0.989583,Quarter,F#3
1433,Left,1,43,89,353.0,0.489583,Eighth,G2
1434,Left,1,45,89,353.5,0.489583,Eighth,A2
1436,Right,0,55,90,354.0,1.989583,Half,G3
1435,Left,1,46,90,354.0,0.989583,Quarter,A#2
1437,Left,1,43,92,355.0,0.989583,Quarter,G2
1439,Right,0,58,94,356.0,0.489583,Eighth,A#3
1438,Left,1,48,94,356.0,0.989583,Quarter,C3
1440,Right,0,57,95,356.5,0.489583,Eighth,A3
1441,Right,0,55,96,357.0,0.489583,Eighth,G3
1442,Left,1,45,96,357.0,0.989583,Quarter,A2
1443,Right,0,57,97,357.5,0.489583,Eighth,A3
1444,Left,1,50,98,358.0,0.989583,Quarter,D3
1445,Right,0,59,98,358.0,0.989583,Quarter,B3
1447,Left,1,47,99,359.0,0.989583,Quarter,B2
1446,Right,0,55,99,359.0,0.989583,Quarter,G3
1448,Right,0,79,110,360.0,0.489583,Eighth,G5
1449,Left,1,60,110,360.0,0.989583,Quarter,D#3_C4
1451,Right,0,78,110,360.5,0.489583,Eighth,F#5
1452,Right,0,79,110,361.0,0.489583,Eighth,G5
1453,Left,1,50,110,361.0,0.989583,Quarter,D3_A3
1455,Right,0,80,110,361.5,0.489583,Eighth,G#5
1457,Left,1,53,110,362.0,1.989583,Half,F3_D4
1456,Right,0,79,110,362.0,0.989583,Quarter,G5
1459,Right,0,67,110,363.0,0.989583,Quarter,G4
1461,Right,0,62,110,364.0,1.989583,Half,F4_D4_A4
1460,Left,1,43,110,364.0,0.489583,Eighth,G2
1464,Left,1,42,110,364.5,0.489583,Eighth,F#2
1465,Left,1,43,110,365.0,0.489583,Eighth,G2
1466,Right,0,71,110,365.0,0.989583,Quarter,B4
1467,Left,1,44,110,365.5,0.489583,Eighth,G#2
1468,Right,0,72,110,366.0,1.989583,Half,D#4_C5_C4
1471,Left,1,43,110,366.0,0.989583,Quarter,G2
1472,Left,1,31,110,367.0,0.989583,Quarter,G1
1475,Left,1,33,110,368.0,0.989583,Quarter,A1
1473,Right,0,65,110,368.0,1.989583,Half,F4_D#5
1476,Right,0,74,110,368.5,0.489583,Eighth,D5
1478,Left,1,35,110,369.0,0.989583,Quarter,B1
1477,Right,0,72,110,369.0,0.489583,Eighth,C5
1479,Right,0,74,110,369.5,0.489583,Eighth,D5
1482,Left,1,36,110,370.0,1.989583,Half,C2
1480,Right,0,75,110,370.0,1.989583,Quarter,D#5_D#4
1483,Right,0,72,110,371.0,0.989583,Quarter,C5
1484,Right,0,65,110,372.0,1.989583,Half,F5_F4
1486,Left,1,39,110,372.0,0.489583,Eighth,D#2
1487,Left,1,38,110,372.5,0.489583,Eighth,D2
1489,Left,1,36,110,373.0,0.489583,Eighth,C2
1488,Right,0,74,110,373.0,0.989583,Quarter,D5
1490,Left,1,38,110,373.5,0.489583,Eighth,D2
1493,Left,1,39,110,374.0,0.989583,Quarter,D#2
1491,Right,0,79,110,374.0,1.989583,Half,G5_G4
1494,Left,1,36,110,375.0,0.989583,Quarter,C2
1497,Left,1,41,110,376.0,0.989583,Quarter,F2
1495,Right,0,82,110,376.0,1.989583,Eighth,G#4_A#5
1498,Right,0,80,110,376.5,0.489583,Eighth,G#5
1499,Right,0,79,110,377.0,0.489583,Eighth,G5
1500,Left,1,38,110,377.0,0.989583,Quarter,D2
1501,Right,0,80,110,377.5,0.489583,Eighth,G#5
1503,Left,1,43,110,378.0,1.989583,Half,G2
1502,Right,0,70,110,378.0,1.989583,Half,A#5_A#4
1505,Right,0,79,110,379.0,0.989583,Quarter,G5
1507,Right,0,72,110,380.0,1.989583,Half,C6_C5
1506,Left,1,46,110,380.0,0.489583,Eighth,A#2
1509,Left,1,44,110,380.5,0.489583,Eighth,G#2
1510,Left,1,43,110,381.0,0.489583,Eighth,G2
1511,Right,0,80,110,381.0,0.989583,Quarter,G#5
1512,Left,1,44,110,381.5,0.489583,Eighth,G#2
1513,Left,1,46,110,382.0,0.989583,Quarter,A#2
1514,Right,0,74,110,382.0,0.989583,Quarter,D6_D5
1516,Left,1,43,110,383.0,0.989583,Quarter,G2
1517,Right,0,82,110,383.0,0.989583,Quarter,A#5_A#4
1520,Right,0,75,110,384.0,0.989583,Quarter,D#6_D#5
1519,Left,1,48,110,384.0,0.989583,Quarter,C3
1524,Left,1,45,110,385.0,0.989583,Quarter,A2
1522,Right,0,75,110,385.0,0.989583,Quarter,F#5_D#5
1525,Right,0,79,80,386.0,1.989583,Half,G5_D#5
1527,Left,1,46,80,386.0,1.989583,Half,A#2
1528,Right,0,70,80,387.0,1.989583,Half,A#4
1530,Left,1,34,80,388.0,1.989583,Half,A#1
1529,Right,0,74,80,388.0,1.989583,Half,D5
1531,Right,0,68,80,389.0,0.989583,Quarter,G#4
1533,Right,0,75,80,390.0,0.989583,Quarter,G4_D#5
1532,Left,1,39,80,390.0,0.322917,Triplet,D#2
1535,Left,1,50,80,390.333333,0.322917,Triplet,D3
1536,Left,1,51,80,390.666667,0.322917,Triplet,D#3
1537,Left,1,41,80,391.0,0.322917,Triplet,F2
1538,Left,1,51,80,391.333333,0.322917,Triplet,D#3
1539,Left,1,53,80,391.666667,0.322917,Triplet,F3
1540,Left,1,43,110,392.0,0.322917,Triplet,G2
1541,Right,0,87,110,392.0,2.989583,DottedHalf,D#6_D#5
1543,Left,1,51,110,392.333333,0.322917,Triplet,D#3
1544,Left,1,55,110,392.666667,0.322917,Triplet,G3
1545,Left,1,39,110,393.0,0.322917,Triplet,D#2
1546,Left,1,50,110,393.333333,0.322917,Triplet,D3
1547,Left,1,51,110,393.666667,0.322917,Triplet,D#3
1548,Left,1,41,110,394.0,0.322917,Triplet,F2
1549,Left,1,51,110,394.333333,0.322917,Triplet,D#3
1550,Left,1,53,110,394.666667,0.322917,Triplet,F3
1551,Left,1,43,110,395.0,0.322917,Triplet,G2
1552,Left,1,51,110,395.333333,0.322917,Triplet,D#3
1553,Left,1,55,110,395.666667,0.322917,Triplet,G3
1555,Right,0,63,110,396.0,2.989583,DottedHalf,D#5_D#4
1554,Left,1,44,110,396.0,0.322917,Triplet,G#2
1557,Left,1,51,110,396.333333,0.322917,Triplet,D#3
1558,Left,1,56,110,396.666667,0.322917,Triplet,G#3
1559,Left,1,41,110,397.0,0.322917,Triplet,F2
1560,Left,1,51,110,397.333333,0.322917,Triplet,D#3
1561,Left,1,53,110,397.666667,0.322917,Triplet,F3
1562,Left,1,43,110,398.0,0.322917,Triplet,G2
1563,Left,1,51,110,398.333333,0.322917,Triplet,D#3
1564,Left,1,55,110,398.666667,0.322917,Triplet,G3
1565,Left,1,44,110,399.0,0.322917,Triplet,G#2
1566,Left,1,51,110,399.333333,0.322917,Triplet,D#3
1567,Left,1,56,110,399.666667,0.322917,Triplet,G#3
1571,Left,1,46,110,400.0,0.322917,Triplet,A#2
1568,Right,0,73,110,400.0,4.989583,Unknown,D#5_D#4_C#5
1572,Left,1,51,80,400.333333,0.322917,Triplet,D#3
1573,Left,1,58,80,400.666667,0.322917,Triplet,A#3
1574,Left,1,43,80,401.0,0.322917,Triplet,G2
1575,Right,0,71,80,401.0,0.989583,Quarter,B4
1576,Left,1,51,80,401.333333,0.322917,Triplet,D#3
1577,Left,1,55,80,401.666667,0.322917,Triplet,G3
1579,Left,1,44,80,402.0,0.322917,Triplet,G#2
1578,Right,0,72,80,402.0,0.989583,Quarter,C5
1580,Left,1,51,80,402.333333,0.322917,Triplet,D#3
1581,Left,1,56,80,402.666667,0.322917,Triplet,G#3
1583,Left,1,43,80,403.0,0.322917,Triplet,G2
1582,Right,0,70,80,403.0,0.989583,Quarter,A#4
1584,Left,1,51,80,403.333333,0.322917,Triplet,D#3
1585,Left,1,55,80,403.666667,0.322917,Triplet,G3
1586,Left,1,41,80,404.0,0.322917,Triplet,F2
1587,Right,0,68,80,404.0,0.989583,Quarter,G#4
1588,Left,1,51,80,404.333333,0.322917,Triplet,D#3
1589,Left,1,53,80,404.666667,0.322917,Triplet,F3
1592,Left,1,46,80,405.0,0.322917,Triplet,A#2
1590,Right,0,62,80,405.0,0.989583,Quarter,G#4_D5_D4
1594,Left,1,53,80,405.333333,0.322917,Triplet,F3
1595,Left,1,58,80,405.666667,0.322917,Triplet,A#3
1596,Left,1,39,80,406.0,0.989583,Quarter,D#3_D#2
1598,Right,0,75,80,406.0,0.989583,Quarter,G4_D#5_D#4
1601,Left,1,67,80,407.0,0.989583,Quarter,G4_A#4
1603,Left,1,68,80,408.0,0.989583,Quarter,G#4_F4
1605,Right,0,84,80,408.0,0.114583,ThirtySecond,C6
1606,Right,0,82,80,408.125,0.354167,DottedSixteenth,A#5
1607,Right,0,81,80,408.5,0.489583,Eighth,A5
1608,Right,0,82,80,409.0,0.489583,Eighth,A#5
1609,Left,1,67,80,409.0,0.989583,Quarter,G4_D#4
1611,Right,0,84,80,409.5,0.489583,Eighth,C6
1612,Left,1,62,80,410.0,0.989583,Quarter,F4_D4
1614,Right,0,82,80,410.0,0.989583,Quarter,A#5
1615,Left,1,56,80,411.0,1.989583,Quarter,G#3_A#3
1616,Right,0,70,80,411.0,0.989583,Quarter,D4_A#4
1620,Right,0,72,80,412.0,0.989583,Quarter,D#4_C5
1619,Left,1,55,80,412.0,0.989583,Quarter,G3
1623,Left,1,58,80,413.0,0.989583,Quarter,F3_A#3
1622,Right,0,65,80,413.0,0.989583,Quarter,F4_D5
1628,Left,1,58,80,414.0,0.989583,Quarter,D#3_A#3
1626,Right,0,75,80,414.0,0.989583,Quarter,G4_D#5
1630,Left,1,63,80,415.0,0.989583,Quarter,G4_D#4
1633,Left,1,65,80,416.0,0.989583,Quarter,F4_D4
1632,Right,0,80,80,416.0,0.114583,ThirtySecond,G#5
1635,Right,0,79,80,416.125,0.354167,DottedSixteenth,G5
1636,Right,0,78,80,416.5,0.489583,Eighth,F#5
1637,Right,0,79,80,417.0,0.489583,Eighth,G5
1638,Left,1,60,80,417.0,0.989583,Quarter,D#4_C4
1640,Right,0,80,80,417.5,0.489583,Eighth,G#5
1641,Left,1,59,80,418.0,0.989583,Quarter,D4_B3
1643,Right,0,79,80,418.0,0.989583,Quarter,G5
1644,Left,1,53,80,419.0,1.989583,Quarter,G3_F3
1645,Right,0,59,80,419.0,0.989583,Quarter,G4_B3
1648,Left,1,51,80,420.0,0.989583,Quarter,D#3
1649,Right,0,69,80,420.0,0.989583,Quarter,C4_A4
1651,Left,1,50,80,421.0,0.989583,Quarter,G3_D3
1653,Right,0,71,80,421.0,0.989583,Quarter,D4_B4
1656,Right,0,63,80,422.0,0.989583,Quarter,D#4_C5
1655,Left,1,36,80,422.0,0.322917,Triplet,C2
1658,Left,1,47,80,422.333333,0.322917,Triplet,B2
1659,Left,1,48,81,422.822917,0.322917,Triplet,C3
1660,Left,1,38,81,423.0,0.322917,Triplet,D2
1661,Left,1,48,81,423.333333,0.322917,Triplet,C3
1662,Left,1,50,82,423.666667,0.322917,Triplet,D3
1664,Right,0,72,110,424.0,2.989583,DottedHalf,C6_C5
1663,Left,1,39,82,424.0,0.322917,Triplet,D#2
1666,Left,1,48,82,424.333333,0.322917,Triplet,C3
1667,Left,1,51,83,424.666667,0.322917,Triplet,D#3
1668,Left,1,36,83,425.0,0.322917,Triplet,C2
1669,Left,1,47,84,425.333333,0.322917,Triplet,B2
1670,Left,1,48,84,425.666667,0.322917,Triplet,C3
1671,Left,1,38,85,426.0,0.322917,Triplet,D2
1672,Left,1,48,85,426.333333,0.322917,Triplet,C3
1673,Left,1,50,85,426.666667,0.322917,Triplet,D3
1674,Left,1,40,86,427.0,0.322917,Triplet,E2
1675,Left,1,48,86,427.333333,0.322917,Triplet,C3
1676,Left,1,52,87,427.666667,0.322917,Triplet,E3
1677,Left,1,41,87,428.0,0.322917,Triplet,F2
1678,Right,0,60,110,428.0,2.989583,DottedHalf,C5_C4
1680,Left,1,48,87,428.333333,0.322917,Triplet,C3
1681,Left,1,53,88,428.666667,0.322917,Triplet,F3
1682,Left,1,38,88,429.0,0.322917,Triplet,D2
1683,Left,1,48,89,429.333333,0.322917,Triplet,C3
1684,Left,1,50,89,429.666667,0.322917,Triplet,D3
1685,Left,1,40,90,430.0,0.322917,Triplet,E2
1686,Left,1,48,90,430.333333,0.322917,Triplet,C3
1687,Left,1,52,90,430.666667,0.322917,Triplet,E3
1688,Left,1,42,91,431.0,0.322917,Triplet,F#2
1689,Left,1,48,91,431.333333,0.322917,Triplet,C3
1690,Left,1,54,92,431.666667,0.322917,Triplet,F#3
1694,Left,1,43,92,432.0,0.322917,Triplet,G2
1691,Right,0,60,110,432.0,4.989583,Unknown,C5_C4_A#4
1695,Left,1,48,92,432.333333,0.322917,Triplet,C3
1696,Left,1,55,93,432.666667,0.322917,Triplet,G3
1697,Left,1,40,93,433.0,0.322917,Triplet,E2
1698,Right,0,67,110,433.0,0.989583,Quarter,G4
1699,Left,1,48,94,433.333333,0.322917,Triplet,C3
1700,Left,1,52,94,433.666667,0.322917,Triplet,E3
1701,Right,0,68,110,434.0,0.989583,Quarter,G#4
1702,Left,1,41,95,434.0,0.322917,Triplet,F2
1703,Left,1,48,95,434.333333,0.322917,Triplet,C3
1704,Left,1,53,95,434.666667,0.322917,Triplet,F3
1706,Right,0,67,110,435.0,0.989583,Quarter,G4
1705,Left,1,39,96,435.0,0.322917,Triplet,D#2
1707,Left,1,48,96,435.333333,0.322917,Triplet,C3
1708,Left,1,51,97,435.666667,0.322917,Triplet,D#3
1709,Right,0,65,110,436.0,0.989583,Quarter,F4
1710,Left,1,38,97,436.0,0.322917,Triplet,D2
1711,Left,1,48,97,436.333333,0.322917,Triplet,C3
1712,Left,1,50,98,436.666667,0.322917,Triplet,D3
1713,Right,0,71,110,437.0,0.989583,Quarter,F4_B4_B3
1715,Left,1,43,98,437.0,0.322917,Triplet,G2
1717,Left,1,50,99,437.333333,0.322917,Triplet,D3
1718,Left,1,55,99,437.666667,0.322917,Triplet,G3
1721,Right,0,60,110,438.0,0.989583,Quarter,D#4_C5_C4
1719,Left,1,36,110,438.0,0.989583,Quarter,C3_C2
1724,Left,1,67,80,439.0,0.989583,Quarter,G4_D#4
1726,Left,1,65,80,439.833333,0.989583,Quarter,F4
1727,Left,1,62,80,440.0,0.989583,Quarter,D4
1728,Right,0,80,80,440.0,0.114583,ThirtySecond,G#5
1729,Right,0,79,80,440.125,0.354167,DottedSixteenth,G5
1730,Right,0,78,80,440.5,0.489583,Eighth,F#5
1731,Left,1,60,80,441.0,0.989583,Quarter,D#4_C4
1732,Right,0,79,80,441.0,0.489583,Eighth,G5
1734,Right,0,80,80,441.5,0.489583,Eighth,G#5
1737,Right,0,79,80,442.0,0.989583,Quarter,G5
1735,Left,1,62,80,442.0,0.989583,Quarter,D4_B3
1738,Left,1,53,80,443.0,1.989583,Quarter,G3_F3
1740,Right,0,59,80,443.0,0.989583,Quarter,G4_B3
1744,Left,1,51,80,444.0,0.989583,Quarter,D#3
1742,Right,0,60,80,444.0,0.989583,Quarter,C4_A4
1746,Left,1,55,80,445.0,0.989583,Quarter,G3_D3
1745,Right,0,71,80,445.0,0.989583,Quarter,D4_B4
1749,Left,1,55,80,446.0,0.989583,Quarter,G3_C3
1751,Right,0,72,80,446.0,0.989583,Quarter,D#4_C5
1753,Left,1,60,80,447.0,0.989583,Quarter,G#3_C4
1755,Right,0,73,80,448.0,0.114583,ThirtySecond,C#5
1756,Left,1,55,80,448.0,0.989583,Quarter,G3_A#3
1758,Right,0,72,80,448.125,0.354167,DottedSixteenth,C5
1759,Right,0,71,80,448.5,0.489583,Eighth,B4
1761,Left,1,53,80,449.0,0.989583,Quarter,G#3_F3
1760,Right,0,72,80,449.0,0.489583,Eighth,C5
1763,Right,0,73,80,449.5,0.489583,Eighth,C#5
1766,Right,0,72,80,450.0,0.989583,Quarter,C5
1764,Left,1,52,80,450.0,0.989583,Quarter,G3_E3
1767,Right,0,76,80,451.0,0.989583,Quarter,E5_C6
1769,Left,1,46,80,451.0,1.989583,Quarter,C3_A#2
1773,Left,1,44,86,452.0,0.989583,Quarter,G#2
1771,Right,0,86,86,452.0,0.989583,Quarter,F5_D6
1775,Right,0,88,93,453.0,0.989583,Quarter,G5_E6
1774,Left,1,48,93,453.0,0.989583,Quarter,G2_C3
1779,Right,0,89,110,454.0,0.989583,Quarter,G#5_F6
1778,Left,1,41,110,454.0,0.322917,Triplet,F2
1781,Left,1,52,110,454.333333,0.322917,Triplet,E3
1782,Left,1,53,110,454.666667,0.322917,Triplet,F3
1783,Left,1,43,110,455.0,0.322917,Triplet,G2
1784,Left,1,53,110,455.333333,0.322917,Triplet,F3
1785,Left,1,55,110,455.666667,0.322917,Triplet,G3
1788,Left,1,44,110,456.0,0.322917,Triplet,G#2
1786,Right,0,89,110,456.0,2.989583,DottedHalf,F6_F5
1789,Left,1,53,110,456.333333,0.322917,Triplet,F3
1790,Left,1,56,110,456.666667,0.322917,Triplet,G#3
1791,Left,1,41,110,457.0,0.322917,Triplet,F2
1792,Left,1,52,110,457.333333,0.322917,Triplet,E3
1793,Left,1,53,110,457.666667,0.322917,Triplet,F3
1794,Left,1,43,110,458.0,0.322917,Triplet,G2
1795,Left,1,53,110,458.333333,0.322917,Triplet,F3
1796,Left,1,55,110,458.666667,0.322917,Triplet,G3
1797,Left,1,45,110,459.0,0.322917,Triplet,A2
1798,Left,1,53,110,459.333333,0.322917,Triplet,F3
1799,Left,1,57,110,459.666667,0.322917,Triplet,A3
1800,Left,1,46,110,460.0,0.322917,Triplet,A#2
1801,Right,0,65,110,460.0,2.989583,DottedHalf,F5_F4
1803,Left,1,53,110,460.333333,0.322917,Triplet,F3
1804,Left,1,58,110,460.666667,0.322917,Triplet,A#3
1805,Left,1,43,110,461.0,0.322917,Triplet,G2
1806,Left,1,53,110,461.333333,0.322917,Triplet,F3
1807,Left,1,55,110,461.666667,0.322917,Triplet,G3
1808,Left,1,45,110,462.0,0.322917,Triplet,A2
1809,Left,1,53,110,462.333333,0.322917,Triplet,F3
1810,Left,1,57,110,462.666667,0.322917,Triplet,A3
1811,Left,1,46,110,463.0,0.322917,Triplet,A#2
1812,Left,1,53,110,463.333333,0.322917,Triplet,F3
1813,Left,1,58,110,463.666667,0.322917,Triplet,A#3
1816,Left,1,48,110,464.0,0.322917,Triplet,C3
1814,Right,0,75,110,464.0,2.989583,Half,F#5_D#5
1817,Left,1,53,110,464.333333,0.322917,Triplet,F3
1818,Left,1,60,110,464.666667,0.322917,Triplet,C4
1819,Left,1,45,110,465.0,0.322917,Triplet,A2
1820,Left,1,53,110,465.333333,0.322917,Triplet,F3
1821,Left,1,57,110,465.666667,0.322917,Triplet,A3
1822,Left,1,46,110,466.0,0.489583,Eighth,A#2
1823,Right,0,73,110,466.0,0.989583,Quarter,C#5
1824,Left,1,58,110,466.5,0.489583,Eighth,A#3
1825,Left,1,49,110,467.0,0.489583,Eighth,C#3
1826,Left,1,61,110,467.5,0.489583,Eighth,C#4
1828,Left,1,53,110,468.0,0.489583,Eighth,F3
1827,Right,0,87,110,468.0,0.114583,ThirtySecond,D#6
1829,Right,0,85,110,468.125,0.354167,DottedSixteenth,C#6
1830,Left,1,65,110,468.5,0.489583,Eighth,F4
1831,Right,0,84,110,468.5,0.489583,Eighth,C6
1833,Left,1,58,110,469.0,0.489583,Eighth,A#3
1832,Right,0,85,110,469.0,0.489583,Eighth,C#6
1834,Right,0,87,110,469.5,0.489583,Eighth,D#6
1835,Left,1,70,110,469.5,0.489583,Eighth,A#4
1836,Left,1,55,110,470.0,0.489583,Eighth,G3
1837,Right,0,85,110,470.0,0.989583,Quarter,C#6
1838,Left,1,67,110,470.5,0.489583,Eighth,G4
1839,Left,1,51,110,471.0,0.489583,Eighth,D#3
1840,Left,1,63,110,471.5,0.489583,Eighth,D#4
1842,Right,0,73,110,472.0,2.989583,Half,D#5_C#5
1841,Left,1,46,110,472.0,0.489583,Eighth,A#2
1844,Left,1,58,110,472.5,0.489583,Eighth,A#3
1845,Left,1,43,110,473.0,0.489583,Eighth,G2
1846,Left,1,55,110,473.5,0.489583,Eighth,G3
1848,Left,1,44,110,474.0,0.489583,Eighth,G#2
1847,Right,0,72,110,474.0,0.989583,Quarter,C5
1849,Left,1,56,110,474.5,0.489583,Eighth,G#3
1850,Left,1,48,110,475.0,0.489583,Eighth,C3
1851,Left,1,60,110,475.5,0.489583,Eighth,C4
1852,Left,1,51,110,476.0,0.489583,Eighth,D#3
1853,Right,0,86,110,476.0,0.114583,ThirtySecond,D6
1854,Right,0,84,110,476.125,0.354167,DottedSixteenth,C6
1856,Left,1,63,110,476.5,0.489583,Eighth,D#4
1855,Right,0,83,110,476.5,0.489583,Eighth,B5
1858,Left,1,56,110,477.0,0.489583,Eighth,G#3
1857,Right,0,84,110,477.0,0.489583,Eighth,C6
1860,Right,0,86,110,477.5,0.489583,Eighth,D6
1859,Left,1,68,110,477.5,0.489583,Eighth,G#4
1862,Left,1,54,110,478.0,0.489583,Eighth,F#3
1861,Right,0,84,110,478.0,0.989583,Quarter,C6
1863,Left,1,66,110,478.5,0.489583,Eighth,F#4
1864,Left,1,50,110,479.0,0.489583,Eighth,D3
1865,Left,1,62,110,479.5,0.489583,Eighth,D4
1867,Right,0,72,110,480.0,2.989583,Half,D5_C5
1866,Left,1,45,110,480.0,0.489583,Eighth,A2
1869,Left,1,57,110,480.5,0.489583,Eighth,A3
1870,Left,1,42,110,481.0,0.489583,Eighth,F#2
1871,Left,1,54,110,481.5,0.489583,Eighth,F#3
1872,Right,0,70,110,482.0,0.989583,Quarter,A#4
1873,Left,1,43,110,482.0,0.322917,Triplet,G2
1874,Left,1,54,110,482.333333,0.322917,Triplet,F#3
1875,Left,1,55,110,482.666667,0.322917,Triplet,G3
1876,Left,1,45,110,483.0,0.322917,Triplet,A2
1877,Left,1,55,110,483.333333,0.322917,Triplet,G3
1878,Left,1,57,110,483.666667,0.322917,Triplet,A3
1879,Left,1,46,110,484.0,0.322917,Triplet,A#2
1880,Right,0,79,110,484.0,2.989583,DottedHalf,G5_G4
1882,Left,1,55,110,484.333333,0.322917,Triplet,G3
1883,Left,1,58,110,484.666667,0.322917,Triplet,A#3
1884,Left,1,43,110,485.0,0.322917,Triplet,G2
1885,Left,1,54,110,485.333333,0.322917,Triplet,F#3
1886,Left,1,55,110,485.666667,0.322917,Triplet,G3
1887,Left,1,45,110,486.0,0.322917,Triplet,A2
1888,Left,1,55,110,486.333333,0.322917,Triplet,G3
1889,Left,1,57,110,486.666667,0.322917,Triplet,A3
1890,Left,1,47,110,487.0,0.322917,Triplet,B2
1891,Left,1,55,110,487.333333,0.322917,Triplet,G3
1892,Left,1,59,110,487.666667,0.322917,Triplet,B3
1893,Left,1,48,110,488.0,0.322917,Triplet,C3
1894,Right,0,67,110,488.0,2.989583,DottedHalf,G5_G4
1896,Left,1,55,110,488.333333,0.322917,Triplet,G3
1897,Left,1,60,110,488.666667,0.322917,Triplet,C4
1898,Left,1,45,110,489.0,0.322917,Triplet,A2
1899,Left,1,55,110,489.333333,0.322917,Triplet,G3
1900,Left,1,57,110,489.666667,0.322917,Triplet,A3
1901,Left,1,48,110,490.0,0.322917,Triplet,C3
1902,Left,1,55,110,490.333333,0.322917,Triplet,G3
1903,Left,1,59,110,490.666667,0.322917,Triplet,B3
1904,Left,1,48,110,491.0,0.322917,Triplet,C3
1905,Left,1,55,110,491.333333,0.322917,Triplet,G3
1906,Left,1,60,110,491.666667,0.322917,Triplet,C4
1909,Left,1,50,110,492.0,0.322917,Triplet,D3
1907,Right,0,67,110,492.0,4.989583,Unknown,G5_G4_F5
1911,Left,1,55,110,492.333333,0.322917,Triplet,G3
1912,Left,1,62,110,492.666667,0.322917,Triplet,D4
1913,Right,0,74,110,493.0,0.989583,Quarter,D5
1914,Left,1,47,110,493.0,0.322917,Triplet,B2
1915,Left,1,55,110,493.333333,0.322917,Triplet,G3
1916,Left,1,59,110,493.666667,0.322917,Triplet,B3
1917,Left,1,48,110,494.0,0.322917,Triplet,C3
1918,Right,0,75,110,494.0,0.989583,Quarter,D#5
1919,Left,1,55,109,494.333333,0.322917,Triplet,G3
1920,Left,1,60,108,494.666667,0.322917,Triplet,C4
1922,Right,0,74,107,495.0,0.989583,Quarter,D5
1921,Left,1,47,107,495.0,0.322917,Triplet,B2
1923,Left,1,55,105,495.333333,0.322917,Triplet,G3
1924,Left,1,59,104,495.822917,0.322917,Triplet,B3
1925,Left,1,47,103,496.0,0.322917,Triplet,B2
1926,Right,0,75,103,496.0,0.989583,Quarter,D#5
1927,Left,1,55,102,496.333333,0.322917,Triplet,G3
1928,Left,1,60,100,496.666667,0.322917,Triplet,C4
1929,Right,0,76,99,497.0,0.989583,Quarter,G5_G4_E5_A#4
1932,Left,1,49,99,497.0,0.322917,Triplet,C#3
1934,Left,1,55,98,497.333333,0.322917,Triplet,G3
1935,Left,1,61,97,497.666667,0.322917,Triplet,C#4
1936,Right,0,78,95,498.0,0.989583,Quarter,F#5_F#4_D5_A4
1938,Left,1,50,95,498.0,0.322917,Triplet,D3
1941,Left,1,61,94,498.333333,0.322917,Triplet,C#4
1942,Left,1,62,93,498.666667,0.322917,Triplet,D4
1943,Left,1,48,92,499.0,0.322917,Triplet,C3
1944,Left,1,50,90,499.333333,0.322917,Triplet,D3
1945,Left,1,60,89,499.666667,0.322917,Triplet,C4
1946,Left,1,46,88,500.0,0.322917,Triplet,A#2
1947,Right,0,86,110,500.083333,4.989583,Unknown,D6
1948,Left,1,50,87,500.333333,0.322917,Triplet,D3
1949,Left,1,58,85,500.666667,0.322917,Triplet,A#3
1951,Left,1,45,84,501.0,0.322917,Triplet,A2
1950,Right,0,84,110,501.0,0.989583,Quarter,C6
1952,Left,1,50,83,501.333333,0.322917,Triplet,D3
1953,Left,1,57,82,501.666667,0.322917,Triplet,A3
1955,Left,1,43,80,502.0,0.322917,Triplet,G2
1954,Right,0,82,110,502.0,0.989583,Quarter,A#5
1956,Left,1,50,80,502.333333,0.322917,Triplet,D3
1957,Left,1,55,80,502.666667,0.322917,Triplet,G3
1958,Right,0,81,110,503.0,0.989583,Quarter,A5
1959,Left,1,42,80,503.0,0.322917,Triplet,F#2
1960,Left,1,50,80,503.333333,0.322917,Triplet,D3
1961,Left,1,54,80,503.666667,0.322917,Triplet,F#3
1962,Right,0,82,110,504.0,0.989583,Quarter,A#5
1963,Left,1,43,80,504.0,0.322917,Triplet,G2
1964,Left,1,50,80,504.333333,0.322917,Triplet,D3
1965,Left,1,55,80,504.666667,0.322917,Triplet,G3
1966,Right,0,79,110,505.0,0.989583,Quarter,G5_C#6
1968,Left,1,39,80,505.0,0.322917,Triplet,D#2
1969,Left,1,50,80,505.333333,0.322917,Triplet,D3
1970,Left,1,51,80,505.666667,0.322917,Triplet,D#3
1971,Left,1,38,80,506.0,0.322917,Triplet,D2
1972,Right,0,86,110,506.0,0.989583,Quarter,F#5_D6
1974,Left,1,49,80,506.333333,0.322917,Triplet,C#3
1975,Left,1,50,80,506.666667,0.322917,Triplet,D3
1976,Left,1,48,80,507.0,0.322917,Triplet,C3
1977,Left,1,50,80,507.333333,0.322917,Triplet,D3
1978,Left,1,60,80,507.666667,0.322917,Triplet,C4
1979,Left,1,46,80,508.0,0.322917,Triplet,A#2
1980,Right,0,74,110,508.0,4.989583,Unknown,D5
1981,Left,1,50,80,508.333333,0.322917,Triplet,D3
1982,Left,1,58,80,508.666667,0.322917,Triplet,A#3
1983,Right,0,72,108,509.0,0.989583,Quarter,C5
1984,Left,1,45,80,509.0,0.322917,Triplet,A2
1985,Left,1,50,80,509.333333,0.322917,Triplet,D3
1986,Left,1,57,80,509.666667,0.322917,Triplet,A3
1987,Left,1,43,80,510.0,0.322917,Triplet,G2
1988,Right,0,70,106,510.0,0.989583,Quarter,A#4
1989,Left,1,50,80,510.333333,0.322917,Triplet,D3
1990,Left,1,55,80,510.666667,0.322917,Triplet,G3
1992,Right,0,69,103,511.0,0.989583,Quarter,A4
1991,Left,1,42,80,511.0,0.322917,Triplet,F#2
1993,Left,1,50,80,511.333333,0.322917,Triplet,D3
1994,Left,1,54,80,511.666667,0.322917,Triplet,F#3
1996,Left,1,43,80,512.0,0.322917,Triplet,G2
1995,Right,0,70,101,512.0,0.989583,Quarter,A#4
1997,Left,1,50,80,512.333333,0.322917,Triplet,D3
1998,Left,1,55,80,512.666667,0.322917,Triplet,G3
1999,Right,0,79,98,513.0,0.989583,Quarter,G5_G4_C#5
2002,Left,1,39,80,513.0,0.322917,Triplet,D#2
2003,Left,1,50,80,513.333333,0.322917,Triplet,D3
2004,Left,1,51,80,513.666667,0.322917,Triplet,D#3
2005,Left,1,38,80,514.0,0.322917,Triplet,D3_D2
2007,Right,0,74,96,514.0,0.989583,Quarter,F#5_F#4_D5
2010,Left,1,62,80,514.333333,0.322917,Triplet,D4
2011,Left,1,50,80,514.666667,0.322917,Triplet,D3
2012,Left,1,62,79,515.0,0.322917,Triplet,D4
2013,Left,1,50,79,515.333333,0.322917,Triplet,D3
2014,Left,1,62,78,515.666667,0.322917,Triplet,D4
2015,Left,1,50,78,516.0,0.322917,Triplet,D3
2016,Left,1,62,78,516.333333,0.322917,Triplet,D4
2017,Left,1,50,77,516.666667,0.322917,Triplet,D3
2018,Left,1,62,77,517.0,0.322917,Triplet,D4
2019,Left,1,50,76,517.333333,0.322917,Triplet,D3
2020,Left,1,62,76,517.666667,0.322917,Triplet,D4
2021,Left,1,50,75,518.0,0.322917,Triplet,D3
2022,Left,1,62,75,518.333333,0.322917,Triplet,D4
2023,Left,1,50,75,518.666667,0.322917,Triplet,D3
2024,Left,1,62,74,519.0,0.322917,Triplet,D4
2025,Left,1,50,74,519.333333,0.322917,Triplet,D3
2026,Left,1,62,73,519.666667,0.322917,Triplet,D4
2027,Left,1,50,73,520.0,0.322917,Triplet,D3
2028,Left,1,62,73,520.333333,0.322917,Triplet,D4
2029,Left,1,50,72,520.666667,0.322917,Triplet,D3
2030,Left,1,62,72,521.0,0.322917,Triplet,D4
2031,Left,1,50,71,521.333333,0.322917,Triplet,D3
2032,Left,1,62,71,521.666667,0.322917,Triplet,D4
2033,Left,1,50,70,522.0,0.322917,Triplet,D3
2034,Left,1,62,70,522.333333,0.322917,Triplet,D4
2035,Left,1,50,70,522.666667,0.322917,Triplet,D3
2036,Left,1,62,70,523.0,0.322917,Triplet,D4
2037,Left,1,50,70,523.333333,0.322917,Triplet,D3
2038,Left,1,62,70,523.666667,0.322917,Triplet,D4
2039,Left,1,50,70,524.0,0.322917,Triplet,D3
2040,Left,1,62,70,524.333333,0.322917,Triplet,D4
2041,Left,1,50,70,524.666667,0.322917,Triplet,D3
2042,Left,1,62,70,525.0,0.322917,Triplet,D4
2043,Left,1,50,70,525.333333,0.322917,Triplet,D3
2044,Left,1,62,70,525.666667,0.322917,Triplet,D4
2045,Left,1,50,70,526.0,0.322917,Triplet,D3
2046,Left,1,62,70,526.333333,0.322917,Triplet,D4
2047,Left,1,50,70,526.666667,0.322917,Triplet,D3
2048,Left,1,62,70,527.0,0.322917,Triplet,D4
2049,Left,1,50,70,527.333333,0.322917,Triplet,D3
2050,Left,1,62,70,527.666667,0.322917,Triplet,D4
2051,Right,0,74,80,528.0,0.489583,Eighth,D6_D5
2053,Left,1,47,70,528.0,0.322917,Triplet,B2
2054,Left,1,62,70,528.333333,0.322917,Triplet,D4
2055,Right,0,73,80,528.5,0.489583,Eighth,C#6_C#5
2057,Left,1,50,70,528.666667,0.322917,Triplet,D3
2060,Left,1,62,70,529.0,0.322917,Triplet,D4
2058,Right,0,86,80,529.0,0.489583,Eighth,D6_D5
2061,Left,1,50,70,529.333333,0.322917,Triplet,D3
2062,Right,0,88,80,529.5,0.489583,Eighth,E6_E5
2064,Left,1,62,70,529.666667,0.322917,Triplet,D4
2066,Right,0,74,80,530.0,0.989583,Quarter,D6_D5
2065,Left,1,48,70,530.0,0.322917,Triplet,C3
2068,Left,1,62,70,530.333333,0.322917,Triplet,D4
2069,Left,1,50,70,530.666667,0.322917,Triplet,D3
2070,Left,1,62,70,531.0,0.322917,Triplet,D4
2071,Right,0,74,80,531.0,0.989583,Quarter,D5_D4
2073,Left,1,50,70,531.333333,0.322917,Triplet,D3
2074,Left,1,62,70,531.666667,0.322917,Triplet,D4
2075,Right,0,76,80,532.0,0.989583,Quarter,E5_E4
2077,Left,1,45,70,532.0,0.322917,Triplet,A2
2078,Left,1,62,70,532.333333,0.322917,Triplet,D4
2079,Left,1,50,70,532.666667,0.322917,Triplet,D3
2081,Right,0,66,80,533.0,0.989583,Quarter,F#5_F#4
2080,Left,1,62,70,533.0,0.322917,Triplet,D4
2083,Left,1,50,70,533.333333,0.322917,Triplet,D3
2084,Left,1,62,70,533.666667,0.322917,Triplet,D4
2085,Right,0,79,80,534.0,1.989583,Half,G5_G4
2087,Left,1,47,70,534.0,0.322917,Triplet,B2
2088,Left,1,62,70,534.333333,0.322917,Triplet,D4
2089,Left,1,50,70,534.666667,0.322917,Triplet,D3
2090,Left,1,62,70,535.0,0.322917,Triplet,D4
2091,Left,1,50,70,535.333333,0.322917,Triplet,D3
2092,Left,1,62,70,535.666667,0.322917,Triplet,D4
2095,Left,1,42,70,536.0,0.322917,Triplet,F#2
2093,Right,0,83,80,536.0,0.489583,Eighth,B5_B4
2096,Left,1,62,70,536.333333,0.322917,Triplet,D4
2097,Right,0,81,80,536.5,0.489583,Eighth,A5_A4
2099,Left,1,50,70,536.666667,0.322917,Triplet,D3
2101,Left,1,62,70,537.0,0.322917,Triplet,D4
2100,Right,0,79,80,537.0,0.489583,Eighth,G5_G4
2103,Left,1,50,70,537.333333,0.322917,Triplet,D3
2104,Right,0,81,80,537.5,0.489583,Eighth,A5_A4
2106,Left,1,62,70,537.666667,0.322917,Triplet,D4
2109,Left,1,43,70,538.0,0.322917,Triplet,G2
2107,Right,0,83,80,538.0,0.989583,Quarter,B5_B4
2110,Left,1,62,70,538.333333,0.322917,Triplet,D4
2111,Left,1,50,70,538.666667,0.322917,Triplet,D3
2114,Left,1,62,70,539.0,0.322917,Triplet,D4
2112,Right,0,67,80,539.0,0.989583,Quarter,G5_G4
2115,Left,1,50,70,539.333333,0.322917,Triplet,D3
2116,Left,1,62,70,539.666667,0.322917,Triplet,D4
2119,Left,1,40,70,540.0,0.322917,Triplet,E2
2117,Right,0,73,80,540.0,0.989583,Quarter,C#6_C#5
2120,Left,1,62,70,540.333333,0.322917,Triplet,D4
2121,Left,1,50,70,540.666667,0.322917,Triplet,D3
2124,Left,1,62,70,541.0,0.322917,Triplet,D4
2122,Right,0,81,80,541.0,0.989583,Quarter,A5_A4
2125,Left,1,50,70,541.333333,0.322917,Triplet,D3
2126,Left,1,62,70,541.666667,0.322917,Triplet,D4
2127,Right,0,86,80,542.0,1.989583,Half,D6_D5
2129,Left,1,38,70,542.0,0.322917,Triplet,D2
2130,Left,1,62,70,542.333333,0.322917,Triplet,D4
2131,Left,1,50,70,542.666667,0.322917,Triplet,D3
2132,Left,1,62,70,543.0,0.322917,Triplet,D4
2133,Left,1,50,70,543.333333,0.322917,Triplet,D3
2134,Left,1,62,70,543.666667,0.322917,Triplet,D4
2136,Right,0,74,80,544.0,0.489583,Eighth,D6_D5
2135,Left,1,47,70,544.0,0.322917,Triplet,B2
2138,Left,1,62,70,544.333333,0.322917,Triplet,D4
2139,Right,0,85,80,544.5,0.489583,Eighth,C#6_C#5
2141,Left,1,50,70,544.666667,0.322917,Triplet,D3
2142,Right,0,86,80,545.0,0.489583,Eighth,D6_D5
2143,Left,1,62,70,545.0,0.322917,Triplet,D4
2145,Left,1,50,70,545.333333,0.322917,Triplet,D3
2146,Right,0,88,80,545.5,0.489583,Eighth,E6_E5
2148,Left,1,62,70,545.666667,0.322917,Triplet,D4
2151,Left,1,48,70,546.0,0.322917,Triplet,C3
2149,Right,0,86,80,546.0,0.989583,Quarter,D6_D5
2152,Left,1,62,70,546.333333,0.322917,Triplet,D4
2153,Left,1,50,70,546.666667,0.322917,Triplet,D3
2154,Left,1,62,70,547.0,0.322917,Triplet,D4
2155,Right,0,62,80,547.0,0.989583,Quarter,D5_D4
2157,Left,1,50,70,547.333333,0.322917,Triplet,D3
2158,Left,1,62,70,547.666667,0.322917,Triplet,D4
2161,Left,1,45,70,548.0,0.322917,Triplet,A2
2159,Right,0,64,80,548.0,0.989583,Quarter,E5_E4
2162,Left,1,62,70,548.333333,0.322917,Triplet,D4
2163,Left,1,50,70,548.666667,0.322917,Triplet,D3
2165,Right,0,78,80,549.0,0.989583,Quarter,F#5_F#4
2164,Left,1,62,70,549.0,0.322917,Triplet,D4
2167,Left,1,50,70,549.333333,0.322917,Triplet,D3
2168,Left,1,62,70,549.666667,0.322917,Triplet,D4
2169,Left,1,47,70,550.0,0.322917,Triplet,B2
2170,Right,0,67,80,550.0,1.989583,Half,G5_G4
2172,Left,1,62,70,550.333333,0.322917,Triplet,D4
2173,Left,1,50,70,550.666667,0.322917,Triplet,D3
2174,Left,1,62,70,551.0,0.322917,Triplet,D4
2175,Left,1,50,70,551.333333,0.322917,Triplet,D3
2176,Left,1,62,70,551.666667,0.322917,Triplet,D4
2178,Left,1,42,70,552.0,0.322917,Triplet,F#2
2177,Right,0,71,80,552.0,0.489583,Eighth,B5_B4
2180,Left,1,62,70,552.333333,0.322917,Triplet,D4
2181,Right,0,81,80,552.5,0.489583,Eighth,A5_A4
2183,Left,1,50,70,552.666667,0.322917,Triplet,D3
2184,Right,0,79,80,553.0,0.489583,Eighth,G5_G4
2186,Left,1,62,70,553.0,0.322917,Triplet,D4
2187,Left,1,50,70,553.333333,0.322917,Triplet,D3
2188,Right,0,69,80,553.5,0.489583,Eighth,A5_A4
2190,Left,1,62,70,553.666667,0.322917,Triplet,D4
2191,Left,1,43,70,554.0,0.322917,Triplet,G2
2192,Right,0,71,80,554.0,0.989583,Quarter,B5_B4
2194,Left,1,62,70,554.333333,0.322917,Triplet,D4
2195,Left,1,50,70,554.666667,0.322917,Triplet,D3
2198,Left,1,62,70,555.0,0.322917,Triplet,D4
2196,Right,0,79,80,555.0,0.989583,Quarter,G5_G4
2199,Left,1,50,70,555.333333,0.322917,Triplet,D3
2200,Left,1,62,70,555.666667,0.322917,Triplet,D4
2201,Right,0,72,80,556.0,0.989583,Quarter,C6_C5
2203,Left,1,38,70,556.0,0.322917,Triplet,D2
2204,Left,1,62,70,556.333333,0.322917,Triplet,D4
2205,Left,1,50,70,556.666667,0.322917,Triplet,D3
2206,Right,0,81,80,557.0,0.989583,Quarter,A5_A4
2208,Left,1,62,70,557.0,0.322917,Triplet,D4
2209,Left,1,50,70,557.333333,0.322917,Triplet,D3
2210,Left,1,62,70,557.666667,0.322917,Triplet,D4
2211,Right,0,79,80,558.0,0.989583,Quarter,G5_G4
2213,Left,1,43,80,558.0,0.989583,Quarter,G2
2214,Left,1,55,80,559.0,7.989583,Unknown,G3
2215,Right,0,67,80,560.0,0.322917,Triplet,G4
2216,Right,0,71,80,560.333333,0.322917,Triplet,B4
2217,Right,0,79,81,560.666667,0.322917,Triplet,G5
2219,Right,0,67,82,561.0,0.322917,Triplet,G4
2218,Left,1,57,80,561.0,0.989583,Quarter,A3
2220,Right,0,72,83,561.333333,0.322917,Triplet,C5
2221,Right,0,78,84,561.666667,0.322917,Triplet,F#5
2223,Right,0,67,85,562.0,0.322917,Triplet,G4
2222,Left,1,59,80,562.0,0.989583,Quarter,B3
2224,Right,0,74,86,562.333333,0.322917,Triplet,D5
2225,Right,0,77,86,562.666667,0.322917,Triplet,F5
2227,Right,0,67,87,563.0,0.322917,Triplet,G4
2226,Left,1,60,80,563.0,0.989583,Quarter,C4
2228,Right,0,72,88,563.333333,0.322917,Triplet,C5
2229,Right,0,76,89,563.666667,0.322917,Triplet,E5
2231,Left,1,63,80,564.0,0.989583,Quarter,D#4
2230,Right,0,67,90,564.0,0.322917,Triplet,G4
2232,Right,0,72,91,564.333333,0.322917,Triplet,C5
2233,Right,0,75,92,564.666667,0.322917,Triplet,D#5
2234,Right,0,69,93,565.0,0.322917,Triplet,A4
2235,Left,1,66,80,565.0,0.989583,Quarter,F#4
2236,Right,0,72,93,565.333333,0.322917,Triplet,C5
2237,Right,0,75,94,565.666667,0.322917,Triplet,D#5
2239,Right,0,72,95,566.0,0.322917,Triplet,C5
2238,Left,1,67,80,566.0,0.989583,Quarter,G4
2240,Right,0,75,96,566.333333,0.322917,Triplet,D#5
2241,Right,0,72,97,566.666667,0.322917,Triplet,C5
2242,Right,0,71,98,567.0,0.322917,Triplet,B4
2243,Left,1,55,80,567.0,0.989583,Quarter,G3
2244,Right,0,74,99,567.333333,0.322917,Triplet,D5
2245,Right,0,71,99,567.666667,0.322917,Triplet,B4
2246,Right,0,66,80,568.0,1.989583,Half,F#4_E5_A4
2247,Left,1,62,80,568.0,0.989583,Quarter,D4
2250,Right,0,74,80,568.5,0.489583,Eighth,D5
2251,Right,0,73,80,569.0,0.489583,Eighth,C#5
2252,Left,1,50,80,569.0,0.989583,Quarter,D3
2253,Right,0,74,80,569.5,0.489583,Eighth,D5
2257,Left,1,55,80,570.0,0.989583,Quarter,G3
2254,Right,0,67,80,570.0,0.989583,Quarter,G4_D4_B4
2259,Right,0,74,80,571.0,0.989583,Quarter,D5
2258,Left,1,43,80,571.0,0.989583,Quarter,G2
2261,Left,1,50,80,572.0,0.989583,Quarter,D3
2260,Right,0,69,80,572.0,1.989583,Half,F#4_E5_A4
2264,Right,0,74,80,572.5,0.489583,Eighth,D5
2265,Left,1,38,80,573.0,0.989583,Quarter,D2
2266,Right,0,73,80,573.0,0.489583,Eighth,C#5
2267,Right,0,74,80,573.5,0.489583,Eighth,D5
2269,Right,0,71,80,574.0,0.989583,Quarter,G4_D4_B4
2268,Left,1,43,80,574.0,0.989583,Quarter,G2
2272,Left,1,55,80,575.0,7.989583,Unknown,G3
2273,Right,0,71,80,576.0,0.322917,Triplet,B4
2274,Right,0,81,80,576.333333,0.322917,Triplet,A5
2275,Right,0,79,81,576.666667,0.322917,Triplet,G5
2276,Right,0,72,82,577.0,0.322917,Triplet,C5
2277,Left,1,57,80,577.0,0.989583,Quarter,A3
2278,Right,0,79,83,577.333333,0.322917,Triplet,G5
2279,Right,0,78,84,577.666667,0.322917,Triplet,F#5
2281,Left,1,59,80,578.0,0.989583,Quarter,B3
2280,Right,0,74,85,578.0,0.322917,Triplet,D5
2282,Right,0,79,86,578.333333,0.322917,Triplet,G5
2283,Right,0,77,86,578.666667,0.322917,Triplet,F5
2285,Left,1,60,80,579.0,0.989583,Quarter,C4
2284,Right,0,67,87,579.0,0.322917,Triplet,G4
2286,Right,0,77,88,579.333333,0.322917,Triplet,F5
2287,Right,0,76,89,579.666667,0.322917,Triplet,E5
2288,Left,1,63,80,580.0,0.989583,Quarter,D#4
2289,Right,0,72,90,580.0,0.322917,Triplet,C5
2290,Right,0,77,91,580.333333,0.322917,Triplet,F5
2291,Right,0,75,92,580.666667,0.322917,Triplet,D#5
2293,Right,0,72,93,581.0,0.322917,Triplet,C5
2292,Left,1,66,80,581.0,0.989583,Quarter,F#4
2294,Right,0,77,93,581.333333,0.322917,Triplet,F5
2295,Right,0,75,94,581.666667,0.322917,Triplet,D#5
2296,Left,1,67,80,582.0,0.989583,Quarter,G4
2297,Right,0,72,95,582.0,0.322917,Triplet,C5
2298,Right,0,77,96,582.333333,0.322917,Triplet,F5
2299,Right,0,75,97,582.666667,0.322917,Triplet,D#5
2301,Right,0,71,98,583.0,0.322917,Triplet,B4
2300,Left,1,55,80,583.0,0.989583,Quarter,G3
2302,Right,0,75,99,583.333333,0.322917,Triplet,D#5
2303,Right,0,74,99,583.666667,0.322917,Triplet,D5
2305,Right,0,76,80,584.0,1.989583,Half,F#4_E5_A4
2304,Left,1,62,80,584.0,0.989583,Quarter,D4
2308,Right,0,74,80,584.5,0.489583,Eighth,D5
2310,Left,1,50,80,585.0,0.989583,Quarter,D3
2309,Right,0,73,80,585.0,0.489583,Eighth,C#5
2311,Right,0,74,80,585.5,0.489583,Eighth,D5
2312,Left,1,55,80,586.0,0.989583,Quarter,G3
2313,Right,0,62,80,586.0,0.989583,Quarter,G4_D4_B4
2316,Left,1,43,80,587.0,0.989583,Quarter,G2
2317,Right,0,74,80,587.0,0.989583,Quarter,D5
2318,Left,1,50,80,588.0,0.989583,Quarter,D3
2319,Right,0,76,80,588.0,1.989583,Half,F#4_E5_A4
2322,Right,0,74,80,588.5,0.489583,Eighth,D5
2324,Left,1,38,80,589.0,0.989583,Quarter,D2
2323,Right,0,73,80,589.0,0.489583,Eighth,C#5
2325,Right,0,74,80,589.5,0.489583,Eighth,D5
2328,Left,1,43,80,590.0,0.989583,Quarter,G2
2326,Right,0,62,80,590.0,0.989583,Quarter,G4_D4_B4
2330,Left,1,31,80,591.0,0.989583,Quarter,G1
2331,Left,1,52,80,592.0,0.114583,ThirtySecond,E3
2332,Left,1,50,80,592.125,0.354167,DottedSixteenth,D3
2333,Left,1,49,80,592.5,0.489583,Eighth,C#3
2334,Left,1,50,80,593.0,0.489583,Eighth,D3
2335,Left,1,52,80,593.5,0.489583,Eighth,E3
2336,Left,1,50,80,594.0,0.989583,Quarter,D3
2337,Right,0,83,80,594.333333,0.322917,Triplet,B5
2338,Right,0,84,80,594.666667,0.322917,Triplet,C6
2340,Right,0,86,80,595.0,0.322917,Triplet,D6
2339,Left,1,38,80,595.0,8.989583,Unknown,D2
2341,Right,0,84,80,595.333333,0.322917,Triplet,C6
2342,Right,0,83,80,595.666667,0.322917,Triplet,B5
2343,Right,0,84,80,596.0,0.322917,Triplet,C6
2344,Left,1,40,80,596.0,0.989583,Quarter,E2
2345,Right,0,81,80,596.333333,0.322917,Triplet,A5
2346,Right,0,83,80,596.666667,0.322917,Triplet,B5
2347,Left,1,42,80,597.0,0.989583,Quarter,F#2
2348,Right,0,84,80,597.0,0.322917,Triplet,C6
2349,Right,0,83,80,597.333333,0.322917,Triplet,B5
2350,Right,0,81,80,597.666667,0.322917,Triplet,A5
2352,Left,1,43,80,598.0,1.989583,Half,G2
2351,Right,0,83,80,598.0,0.322917,Triplet,B5
2353,Right,0,79,80,598.333333,0.322917,Triplet,G5
2354,Right,0,81,80,598.666667,0.322917,Triplet,A5
2355,Right,0,83,80,599.0,0.322917,Triplet,B5
2356,Right,0,81,80,599.333333,0.322917,Triplet,A5
2357,Right,0,79,80,599.666667,0.322917,Triplet,G5
2358,Left,1,47,80,600.0,0.489583,Eighth,B2
2359,Right,0,78,80,600.0,0.322917,Triplet,F#5
2360,Right,0,76,80,600.333333,0.322917,Triplet,E5
2361,Left,1,45,80,600.5,0.489583,Eighth,A2
2362,Right,0,74,80,600.666667,0.322917,Triplet,D5
2363,Right,0,72,80,601.0,0.322917,Triplet,C5
2364,Left,1,43,80,601.0,0.489583,Eighth,G2
2365,Right,0,71,80,601.333333,0.322917,Triplet,B4
2366,Left,1,45,80,601.5,0.489583,Eighth,A2
2367,Right,0,69,80,601.666667,0.322917,Triplet,A4
2368,Left,1,47,80,602.0,0.989583,Quarter,B2
2369,Right,0,67,80,602.0,0.322917,Triplet,G4
2370,Right,0,74,80,602.333333,0.322917,Triplet,D5
2371,Right,0,73,80,602.666667,0.322917,Triplet,C#5
2372,Left,1,43,80,603.0,0.989583,Quarter,G2
2373,Right,0,74,80,603.0,0.322917,Triplet,D5
2374,Right,0,71,80,603.333333,0.322917,Triplet,B4
2375,Right,0,69,80,603.666667,0.322917,Triplet,A4
2377,Right,0,67,80,604.0,0.322917,Triplet,G4
2376,Left,1,49,80,604.0,0.989583,Quarter,C#3
2378,Right,0,76,80,604.333333,0.322917,Triplet,E5
2379,Right,0,75,80,604.666667,0.322917,Triplet,D#5
2381,Right,0,76,80,605.0,0.322917,Triplet,E5
2380,Left,1,45,80,605.0,0.989583,Quarter,A2
2382,Right,0,73,80,605.333333,0.322917,Triplet,C#5
2383,Right,0,67,80,605.666667,0.322917,Triplet,G4
2384,Right,0,66,80,606.0,0.322917,Triplet,F#4
2385,Left,1,50,80,606.0,1.989583,Half,D3_D2
2387,Right,0,74,80,606.333333,0.322917,Triplet,D5
2388,Right,0,73,80,606.666667,0.322917,Triplet,C#5
2389,Right,0,74,80,607.0,0.322917,Triplet,D5
2390,Right,0,69,80,607.333333,0.322917,Triplet,A4
2391,Right,0,66,80,607.666667,0.322917,Triplet,F#4
2392,Right,0,62,80,608.0,0.989583,Quarter,D4
2393,Left,1,52,80,608.0,0.114583,ThirtySecond,E3
2394,Left,1,50,80,608.125,0.354167,DottedSixteenth,D3
2395,Left,1,49,80,608.5,0.489583,Eighth,C#3
2396,Left,1,50,80,609.0,0.489583,Eighth,D3
2397,Left,1,52,80,609.5,0.489583,Eighth,E3
2398,Left,1,50,80,610.0,0.989583,Quarter,D3
2399,Right,0,83,80,610.333333,0.322917,Triplet,B5
2400,Right,0,84,80,610.666667,0.322917,Triplet,C6
2402,Right,0,86,80,611.0,0.322917,Triplet,D6
2401,Left,1,38,80,611.0,8.989583,Unknown,D2
2403,Right,0,84,80,611.333333,0.322917,Triplet,C6
2404,Right,0,83,80,611.666667,0.322917,Triplet,B5
2406,Right,0,84,80,612.0,0.322917,Triplet,C6
2405,Left,1,40,80,612.0,0.989583,Quarter,E2
2407,Right,0,81,80,612.333333,0.322917,Triplet,A5
2408,Right,0,83,80,612.666667,0.322917,Triplet,B5
2409,Left,1,42,80,613.0,0.989583,Quarter,F#2
2410,Right,0,84,80,613.0,0.322917,Triplet,C6
2411,Right,0,83,80,613.333333,0.322917,Triplet,B5
2412,Right,0,81,80,613.666667,0.322917,Triplet,A5
2414,Right,0,83,80,614.0,0.322917,Triplet,B5
2413,Left,1,43,80,614.0,1.989583,Half,G2
2415,Right,0,79,80,614.333333,0.322917,Triplet,G5
2416,Right,0,81,80,614.666667,0.322917,Triplet,A5
2417,Right,0,83,80,615.0,0.322917,Triplet,B5
2418,Right,0,81,80,615.333333,0.322917,Triplet,A5
2419,Right,0,79,80,615.666667,0.322917,Triplet,G5
2421,Left,1,47,80,616.0,0.489583,Eighth,B2
2420,Right,0,78,80,616.0,0.322917,Triplet,F#5
2422,Right,0,76,80,616.333333,0.322917,Triplet,E5
2423,Left,1,45,80,616.5,0.489583,Eighth,A2
2424,Right,0,74,80,616.666667,0.322917,Triplet,D5
2426,Right,0,72,80,617.0,0.322917,Triplet,C5
2425,Left,1,43,80,617.0,0.489583,Eighth,G2
2427,Right,0,71,80,617.333333,0.322917,Triplet,B4
2428,Left,1,45,80,617.5,0.489583,Eighth,A2
2429,Right,0,69,80,617.666667,0.322917,Triplet,A4
2431,Right,0,67,80,618.0,0.322917,Triplet,G4
2430,Left,1,47,80,618.0,0.989583,Quarter,B2
2432,Right,0,66,80,618.333333,0.322917,Triplet,F#4
2433,Right,0,67,80,618.666667,0.322917,Triplet,G4
2434,Right,0,69,80,619.0,0.322917,Triplet,A4
2435,Left,1,43,80,619.0,0.989583,Quarter,G2
2436,Right,0,71,80,619.333333,0.322917,Triplet,B4
2437,Right,0,72,80,619.666667,0.322917,Triplet,C5
2438,Left,1,48,80,620.0,0.989583,Quarter,C3
2439,Right,0,74,80,620.0,0.322917,Triplet,D5
2440,Right,0,62,80,620.333333,0.322917,Triplet,D4
2441,Right,0,61,80,620.666667,0.322917,Triplet,C#4
2443,Left,1,45,80,621.0,0.989583,Quarter,A2
2442,Right,0,62,80,621.0,0.322917,Triplet,D4
2444,Right,0,64,80,621.333333,0.322917,Triplet,E4
2445,Right,0,66,80,621.666667,0.322917,Triplet,F#4
2446,Right,0,67,80,622.0,0.322917,Triplet,G4
2447,Left,1,43,80,622.0,0.989583,Quarter,G2_G1
2449,Right,0,79,80,622.333333,0.322917,Triplet,G5
2450,Right,0,67,80,622.666667,0.322917,Triplet,G4
2451,Right,0,79,80,623.0,0.322917,Triplet,G5
2452,Right,0,67,80,623.333333,0.322917,Triplet,G4
2453,Right,0,79,80,623.666667,0.322917,Triplet,G5
2455,Left,1,55,80,624.0,0.989583,Quarter,G3
2454,Right,0,67,80,624.0,0.322917,Triplet,G4
2456,Right,0,79,80,624.333333,0.322917,Triplet,G5
2457,Right,0,67,80,624.666667,0.322917,Triplet,G4
2460,Right,0,79,80,625.0,0.322917,Triplet,G5
2458,Left,1,57,80,625.0,0.989583,Quarter,F#3_A3
2461,Right,0,67,80,625.333333,0.322917,Triplet,G4
2462,Right,0,79,80,625.666667,0.322917,Triplet,G5
2464,Left,1,53,80,626.0,0.989583,Quarter,F3_B3
2463,Right,0,67,80,626.0,0.322917,Triplet,G4
2466,Right,0,79,80,626.333333,0.322917,Triplet,G5
2467,Right,0,67,80,626.666667,0.322917,Triplet,G4
2468,Left,1,52,80,627.0,0.989583,Quarter,E3_C4
2470,Right,0,79,80,627.0,0.322917,Triplet,G5
2471,Right,0,67,80,627.333333,0.322917,Triplet,G4
2472,Right,0,79,80,627.666667,0.322917,Triplet,G5
2473,Left,1,61,80,628.0,0.989583,Quarter,D#3_C#4_A#3
2474,Right,0,67,80,628.0,0.322917,Triplet,G4
2477,Right,0,79,80,628.333333,0.322917,Triplet,G5
2478,Right,0,67,80,628.666667,0.322917,Triplet,G4
2482,Right,0,79,80,629.0,0.322917,Triplet,G5
2479,Left,1,61,80,629.0,0.989583,Quarter,D#3_C#4_A#3
2483,Right,0,67,80,629.333333,0.322917,Triplet,G4
2484,Right,0,79,80,629.666667,0.322917,Triplet,G5
2487,Right,0,67,80,630.0,0.322917,Triplet,G4
2485,Left,1,58,80,630.0,0.989583,Quarter,D#3_C#4_A#3
2489,Right,0,79,80,630.333333,0.322917,Triplet,G5
2490,Right,0,67,80,630.666667,0.322917,Triplet,G4
2491,Left,1,62,80,631.0,0.989583,Quarter,D4_D3_B3
2494,Right,0,79,80,631.0,0.322917,Triplet,G5
2495,Right,0,67,80,631.333333,0.322917,Triplet,G4
2496,Right,0,79,80,631.666667,0.322917,Triplet,G5
2497,Right,0,76,80,632.0,1.989583,Half,F#4_E5_A4
2498,Left,1,38,80,632.0,0.322917,Triplet,D2
2501,Left,1,50,80,632.333333,0.322917,Triplet,D3
2502,Right,0,74,80,632.5,0.489583,Eighth,D5
2503,Left,1,54,80,632.666667,0.322917,Triplet,F#3
2504,Left,1,57,80,633.0,0.322917,Triplet,A3
2505,Right,0,73,80,633.0,0.489583,Eighth,C#5
2506,Left,1,54,80,633.333333,0.322917,Triplet,F#3
2507,Right,0,74,80,633.5,0.489583,Eighth,D5
2508,Left,1,50,80,633.666667,0.322917,Triplet,D3
2510,Right,0,71,80,634.0,0.989583,Quarter,G4_D4_B4
2509,Left,1,43,80,634.0,0.322917,Triplet,G2
2513,Left,1,50,80,634.333333,0.322917,Triplet,D3
2514,Left,1,55,80,634.666667,0.322917,Triplet,G3
2516,Right,0,74,80,635.0,0.989583,Quarter,D5
2515,Left,1,59,80,635.0,0.322917,Triplet,B3
2517,Left,1,55,80,635.333333,0.322917,Triplet,G3
2518,Left,1,50,80,635.666667,0.322917,Triplet,D3
2519,Right,0,76,80,636.0,1.989583,Half,F#4_E5_A4
2520,Left,1,38,80,636.0,0.322917,Triplet,D2
2523,Left,1,50,80,636.333333,0.322917,Triplet,D3
2524,Right,0,74,80,636.5,0.489583,Eighth,D5
2525,Left,1,54,80,636.666667,0.322917,Triplet,F#3
2527,Right,0,73,80,637.0,0.489583,Eighth,C#5
2526,Left,1,57,80,637.0,0.322917,Triplet,A3
2528,Left,1,54,80,637.333333,0.322917,Triplet,F#3
2529,Right,0,74,80,637.5,0.489583,Eighth,D5
2530,Left,1,50,80,637.666667,0.322917,Triplet,D3
2533,Left,1,43,80,638.0,0.989583,Quarter,G2_F#3
2531,Right,0,67,80,638.0,0.322917,Triplet,G4_D4_B4
2536,Right,0,79,80,638.333333,0.322917,Triplet,G5
2537,Right,0,67,80,638.822917,0.322917,Triplet,G4
2538,Right,0,79,80,639.0,0.322917,Triplet,G5
2539,Right,0,67,80,639.333333,0.322917,Triplet,G4
2540,Right,0,79,80,639.666667,0.322917,Triplet,G5
2541,Left,1,43,80,640.0,0.989583,Quarter,G3_G2
2543,Right,0,67,80,640.0,0.322917,Triplet,G4
2544,Right,0,79,80,640.333333,0.322917,Triplet,G5
2545,Right,0,67,80,640.666667,0.322917,Triplet,G4
2548,Right,0,79,80,641.0,0.322917,Triplet,G5
2546,Left,1,45,80,641.0,0.989583,Quarter,F#3_A2
2549,Right,0,67,80,641.333333,0.322917,Triplet,G4
2550,Right,0,79,80,641.666667,0.322917,Triplet,G5
2551,Right,0,67,80,642.0,0.322917,Triplet,G4
2552,Left,1,47,80,642.0,0.989583,Quarter,F3_B2
2554,Right,0,79,80,642.333333,0.322917,Triplet,G5
2555,Right,0,67,80,642.666667,0.322917,Triplet,G4
2558,Right,0,79,80,643.0,0.322917,Triplet,G5
2556,Left,1,52,80,643.0,0.989583,Quarter,E3_C3
2559,Right,0,67,80,643.333333,0.322917,Triplet,G4
2560,Right,0,79,80,643.666667,0.322917,Triplet,G5
2561,Left,1,48,80,644.0,0.989583,Quarter,D#3_C3
2562,Right,0,67,80,644.0,0.322917,Triplet,G4
2564,Right,0,79,80,644.333333,0.322917,Triplet,G5
2565,Right,0,67,80,644.666667,0.322917,Triplet,G4
2567,Left,1,48,80,645.0,0.989583,Quarter,D#3_C3
2566,Right,0,79,80,645.0,0.322917,Triplet,G5
2569,Right,0,67,80,645.333333,0.322917,Triplet,G4
2570,Right,0,79,80,645.666667,0.322917,Triplet,G5
2572,Left,1,51,80,646.0,0.989583,Quarter,D#3_C3
2571,Right,0,67,80,646.0,0.322917,Triplet,G4
2574,Right,0,79,80,646.333333,0.322917,Triplet,G5
2575,Right,0,67,80,646.666667,0.322917,Triplet,G4
2578,Right,0,79,80,647.0,0.322917,Triplet,G5
2576,Left,1,50,80,647.0,0.989583,Quarter,D3_B2
2579,Right,0,67,80,647.333333,0.322917,Triplet,G4
2580,Right,0,79,80,647.666667,0.322917,Triplet,G5
2583,Right,0,66,80,648.0,0.322917,Triplet,F#4
2581,Left,1,52,80,648.0,0.989583,Eighth,E3_D2
2584,Right,0,69,80,648.333333,0.322917,Triplet,A4
2585,Left,1,50,80,648.5,0.489583,Eighth,D3
2586,Right,0,74,80,648.666667,0.322917,Triplet,D5
2587,Left,1,49,80,649.0,0.489583,Eighth,C#3
2588,Right,0,78,80,649.0,0.322917,Triplet,F#5
2589,Right,0,74,80,649.333333,0.322917,Triplet,D5
2590,Left,1,50,80,649.5,0.489583,Eighth,D3
2591,Right,0,69,80,649.666667,0.322917,Triplet,A4
2592,Left,1,47,80,650.0,0.989583,Quarter,G2_B2
2593,Right,0,67,80,650.0,0.322917,Triplet,G4
2595,Right,0,71,80,650.333333,0.322917,Triplet,B4
2596,Right,0,74,80,650.666667,0.322917,Triplet,D5
2597,Right,0,79,80,651.0,0.322917,Triplet,G5
2598,Left,1,50,80,651.0,0.989583,Quarter,D3
2599,Right,0,74,80,651.333333,0.322917,Triplet,D5
2600,Right,0,71,80,651.666667,0.322917,Triplet,B4
2602,Left,1,52,80,652.0,0.989583,Eighth,E3_D2
2601,Right,0,66,80,652.0,0.322917,Triplet,F#4
2604,Right,0,69,80,652.333333,0.322917,Triplet,A4
2605,Left,1,50,80,652.5,0.489583,Eighth,D3
2606,Right,0,74,80,652.666667,0.322917,Triplet,D5
2607,Left,1,49,80,653.0,0.489583,Eighth,C#3
2608,Right,0,78,80,653.0,0.322917,Triplet,F#5
2609,Right,0,74,80,653.333333,0.322917,Triplet,D5
2610,Left,1,50,80,653.5,0.489583,Eighth,D3
2611,Right,0,69,80,653.666667,0.322917,Triplet,A4
2612,Right,0,67,80,654.0,0.322917,Triplet,G4
2613,Left,1,43,80,654.0,0.989583,Quarter,G2_B2
2615,Right,0,71,80,654.333333,0.322917,Triplet,B4
2616,Right,0,74,80,654.666667,0.322917,Triplet,D5
2617,Right,0,79,80,655.0,0.322917,Triplet,G5
2618,Right,0,74,80,655.333333,0.322917,Triplet,D5
2619,Right,0,71,80,655.666667,0.322917,Triplet,B4
2621,Left,1,47,80,656.0,0.322917,Triplet,B2
2620,Right,0,84,80,656.0,0.489583,Eighth,C6
2622,Left,1,54,80,656.333333,0.322917,Triplet,F#3
2623,Right,0,83,80,656.5,0.489583,Eighth,B5
2624,Left,1,59,80,656.666667,0.322917,Triplet,B3
2625,Right,0,82,80,657.0,0.489583,Eighth,A#5
2626,Left,1,63,80,657.0,0.322917,Triplet,D#4
2627,Left,1,59,80,657.333333,0.322917,Triplet,B3
2628,Right,0,83,80,657.5,0.489583,Eighth,B5
2629,Left,1,54,80,657.666667,0.322917,Triplet,F#3
2630,Right,0,79,80,658.0,0.989583,Quarter,G5
2631,Left,1,52,80,658.0,0.322917,Triplet,E3
2632,Left,1,55,80,658.333333,0.322917,Triplet,G3
2633,Left,1,59,80,658.666667,0.322917,Triplet,B3
2634,Right,0,83,80,659.0,0.989583,Quarter,B5
2635,Left,1,64,80,659.0,0.322917,Triplet,E4
2636,Left,1,59,80,659.333333,0.322917,Triplet,B3
2637,Left,1,55,80,659.666667,0.322917,Triplet,G3
2639,Right,0,84,80,660.0,0.489583,Eighth,C6
2638,Left,1,47,80,660.0,0.322917,Triplet,B2
2640,Left,1,54,80,660.333333,0.322917,Triplet,F#3
2641,Right,0,83,80,660.5,0.489583,Eighth,B5
2642,Left,1,59,80,660.666667,0.322917,Triplet,B3
2643,Right,0,82,80,661.0,0.489583,Eighth,A#5
2644,Left,1,63,80,661.0,0.322917,Triplet,D#4
2645,Left,1,59,80,661.333333,0.322917,Triplet,B3
2646,Right,0,83,80,661.5,0.489583,Eighth,B5
2647,Left,1,54,80,661.666667,0.322917,Triplet,F#3
2649,Right,0,79,80,662.0,0.989583,Quarter,G5
2648,Left,1,52,80,662.0,0.322917,Triplet,E3
2650,Left,1,55,80,662.333333,0.322917,Triplet,G3
2651,Left,1,59,80,662.666667,0.322917,Triplet,B3
2653,Right,0,83,80,663.0,0.989583,Quarter,B5
2652,Left,1,64,80,663.0,0.322917,Triplet,E4
2654,Left,1,59,80,663.333333,0.322917,Triplet,B3
2655,Left,1,55,80,663.666667,0.322917,Triplet,G3
2657,Left,1,45,80,664.0,0.489583,Eighth,A2
2656,Right,0,71,80,664.0,0.322917,Triplet,B4
2658,Right,0,74,80,664.333333,0.322917,Triplet,D5
2659,Left,1,43,80,664.5,0.489583,Eighth,G2
2660,Right,0,79,80,664.666667,0.322917,Triplet,G5
2662,Right,0,83,80,665.0,0.322917,Triplet,B5
2661,Left,1,42,80,665.0,0.489583,Eighth,F#2
2663,Right,0,79,80,665.333333,0.322917,Triplet,G5
2664,Left,1,43,80,665.5,0.489583,Eighth,G2
2665,Right,0,74,80,665.666667,0.322917,Triplet,D5
2667,Left,1,40,80,666.0,0.989583,Quarter,E2
2666,Right,0,72,80,666.0,0.322917,Triplet,C5
2668,Right,0,76,80,666.333333,0.322917,Triplet,E5
2669,Right,0,79,80,666.666667,0.322917,Triplet,G5
2670,Right,0,84,80,667.0,0.322917,Triplet,C6
2671,Left,1,43,80,667.0,0.989583,Quarter,G2
2672,Right,0,79,80,667.333333,0.322917,Triplet,G5
2673,Right,0,76,80,667.666667,0.322917,Triplet,E5
2674,Right,0,71,80,668.0,0.322917,Triplet,B4
2675,Left,1,45,80,668.0,0.489583,Eighth,A2
2676,Right,0,74,80,668.333333,0.322917,Triplet,D5
2677,Left,1,43,80,668.5,0.489583,Eighth,G2
2678,Right,0,79,80,668.666667,0.322917,Triplet,G5
2680,Right,0,83,80,669.0,0.322917,Triplet,B5
2679,Left,1,42,80,669.0,0.489583,Eighth,F#2
2681,Right,0,79,80,669.333333,0.322917,Triplet,G5
2682,Left,1,43,80,669.5,0.489583,Eighth,G2
2683,Right,0,74,80,669.666667,0.322917,Triplet,D5
2685,Right,0,72,80,670.0,0.322917,Triplet,C5
2684,Left,1,40,80,670.0,0.989583,Quarter,E2
2686,Right,0,76,80,670.333333,0.322917,Triplet,E5
2687,Right,0,79,80,670.666667,0.322917,Triplet,G5
2689,Right,0,84,80,671.0,0.322917,Triplet,C6
2688,Left,1,43,80,671.0,0.989583,Quarter,G2
2690,Right,0,79,80,671.333333,0.322917,Triplet,G5
2691,Right,0,76,80,671.666667,0.322917,Triplet,E5
2693,Right,0,89,80,672.0,0.489583,Eighth,F6
2692,Left,1,40,80,672.0,0.322917,Triplet,E2
2694,Left,1,52,80,672.333333,0.322917,Triplet,E3
2695,Right,0,88,80,672.5,0.489583,Eighth,E6
2696,Left,1,56,80,672.666667,0.322917,Triplet,G#3
2698,Left,1,59,80,673.0,0.322917,Triplet,B3
2697,Right,0,87,80,673.0,0.489583,Eighth,D#6
2699,Left,1,56,80,673.333333,0.322917,Triplet,G#3
2700,Right,0,88,80,673.5,0.489583,Eighth,E6
2701,Left,1,52,80,673.666667,0.322917,Triplet,E3
2703,Right,0,84,80,674.0,0.989583,Quarter,C6
2702,Left,1,45,80,674.0,0.322917,Triplet,A2
2704,Left,1,52,80,674.333333,0.322917,Triplet,E3
2705,Left,1,57,80,674.666667,0.322917,Triplet,A3
2706,Left,1,60,80,675.0,0.322917,Triplet,C4
2707,Right,0,88,80,675.0,0.989583,Quarter,E6
2708,Left,1,57,80,675.333333,0.322917,Triplet,A3
2709,Left,1,52,80,675.666667,0.322917,Triplet,E3
2710,Left,1,40,80,676.0,0.322917,Triplet,E2
2711,Right,0,89,80,676.0,0.489583,Eighth,F6
2712,Left,1,52,80,676.333333,0.322917,Triplet,E3
2713,Right,0,88,80,676.5,0.489583,Eighth,E6
2714,Left,1,56,80,676.666667,0.322917,Triplet,G#3
2716,Right,0,87,80,677.0,0.489583,Eighth,D#6
2715,Left,1,59,80,677.0,0.322917,Triplet,B3
2717,Left,1,56,80,677.333333,0.322917,Triplet,G#3
2718,Right,0,88,80,677.5,0.489583,Eighth,E6
2719,Left,1,52,80,677.666667,0.322917,Triplet,E3
2720,Left,1,45,80,678.0,0.322917,Triplet,A2
2721,Right,0,84,80,678.0,0.989583,Quarter,C6
2722,Left,1,52,80,678.333333,0.322917,Triplet,E3
2723,Left,1,57,80,678.666667,0.322917,Triplet,A3
2724,Left,1,60,80,679.0,0.322917,Triplet,C4
2725,Right,0,88,80,679.0,0.989583,Quarter,E6
2726,Left,1,57,80,679.333333,0.322917,Triplet,A3
2727,Left,1,52,80,679.666667,0.322917,Triplet,E3
2729,Left,1,40,80,680.0,0.322917,Triplet,E2
2728,Right,0,89,80,680.0,0.489583,Eighth,F6
2730,Left,1,52,80,680.333333,0.322917,Triplet,E3
2731,Right,0,88,81,680.5,0.489583,Eighth,E6
2732,Left,1,56,81,680.666667,0.322917,Triplet,G#3
2733,Right,0,87,81,681.0,0.489583,Eighth,D#6
2734,Left,1,59,81,681.0,0.322917,Triplet,B3
2735,Left,1,56,82,681.333333,0.322917,Triplet,G#3
2736,Right,0,88,82,681.5,0.489583,Eighth,E6
2737,Left,1,52,82,681.666667,0.322917,Triplet,E3
2739,Left,1,45,83,682.0,0.322917,Triplet,A2
2738,Right,0,86,83,682.0,0.489583,Eighth,D6
2740,Left,1,52,83,682.333333,0.322917,Triplet,E3
2741,Right,0,84,84,682.5,0.489583,Eighth,C6
2742,Left,1,57,84,682.666667,0.322917,Triplet,A3
2744,Left,1,60,84,683.0,0.322917,Triplet,C4
2743,Right,0,83,84,683.0,0.489583,Eighth,B5
2745,Left,1,57,85,683.333333,0.322917,Triplet,A3
2746,Right,0,84,85,683.5,0.489583,Eighth,C6
2747,Left,1,52,85,683.666667,0.322917,Triplet,E3
2749,Left,1,48,86,684.0,0.322917,Triplet,C3
2748,Right,0,83,86,684.0,0.489583,Eighth,B5
2750,Left,1,52,86,684.333333,0.322917,Triplet,E3
2751,Right,0,81,87,684.5,0.489583,Eighth,A5
2752,Left,1,57,87,684.666667,0.322917,Triplet,A3
2753,Right,0,80,87,685.0,0.489583,Eighth,G#5
2754,Left,1,60,87,685.0,0.322917,Triplet,C4
2755,Left,1,57,88,685.333333,0.322917,Triplet,A3
2756,Right,0,81,88,685.5,0.489583,Eighth,A5
2757,Left,1,52,88,685.666667,0.322917,Triplet,E3
2758,Right,0,79,89,686.0,0.489583,Eighth,G5
2759,Left,1,50,89,686.0,0.322917,Triplet,D3
2760,Left,1,57,89,686.333333,0.322917,Triplet,A3
2761,Right,0,78,90,686.5,0.489583,Eighth,F#5
2762,Left,1,60,90,686.666667,0.322917,Triplet,C4
2764,Right,0,77,90,687.0,0.489583,Eighth,F5
2763,Left,1,62,90,687.0,0.322917,Triplet,D4
2765,Left,1,60,91,687.333333,0.322917,Triplet,C4
2766,Right,0,78,91,687.5,0.489583,Eighth,F#5
2767,Left,1,57,91,687.666667,0.322917,Triplet,A3
2768,Left,1,42,92,688.0,0.322917,Triplet,F#2
2769,Right,0,88,92,688.0,0.489583,Eighth,E6
2770,Left,1,50,92,688.333333,0.322917,Triplet,D3
2771,Right,0,86,93,688.5,0.489583,Eighth,D6
2772,Left,1,54,93,688.666667,0.322917,Triplet,F#3
2774,Right,0,85,93,689.0,0.489583,Eighth,C#6
2773,Left,1,57,93,689.0,0.322917,Triplet,A3
2775,Left,1,54,94,689.333333,0.322917,Triplet,F#3
2776,Right,0,86,94,689.5,0.489583,Eighth,D6
2777,Left,1,50,94,689.666667,0.322917,Triplet,D3
2778,Right,0,84,95,690.0,0.489583,Eighth,C6
2779,Left,1,43,95,690.0,0.322917,Triplet,G2
2780,Left,1,50,95,690.333333,0.322917,Triplet,D3
2781,Right,0,83,96,690.5,0.489583,Eighth,B5
2782,Left,1,55,96,690.666667,0.322917,Triplet,G3
2784,Left,1,59,96,691.0,0.322917,Triplet,B3
2783,Right,0,82,96,691.0,0.489583,Eighth,A#5
2785,Left,1,55,97,691.333333,0.322917,Triplet,G3
2786,Right,0,83,97,691.5,0.489583,Eighth,B5
2787,Left,1,50,97,691.666667,0.322917,Triplet,D3
2789,Right,0,73,98,692.0,0.989583,Quarter,E5_C#5_B5
2788,Left,1,45,98,692.0,0.322917,Triplet,A2
2792,Left,1,55,98,692.333333,0.322917,Triplet,G3
2793,Right,0,81,99,692.5,0.489583,Eighth,A5
2794,Left,1,57,99,692.666667,0.322917,Triplet,A3
2796,Right,0,73,99,693.0,0.989583,Quarter,G#5_E5_C#5
2795,Left,1,61,99,693.0,0.322917,Triplet,C#4
2799,Left,1,57,100,693.333333,0.322917,Triplet,A3
2800,Right,0,81,100,693.5,0.489583,Eighth,A5
2801,Left,1,55,100,693.666667,0.322917,Triplet,G3
2802,Left,1,50,101,694.0,0.322917,Triplet,D3
2803,Right,0,78,101,694.0,0.989583,Quarter,F#5_D5_B5
2806,Left,1,54,101,694.333333,0.322917,Triplet,F#3
2807,Right,0,81,102,694.5,0.489583,Eighth,A5
2808,Left,1,57,102,694.666667,0.322917,Triplet,A3
2809,Left,1,62,102,695.0,0.322917,Triplet,D4
2810,Right,0,80,102,695.0,0.489583,Eighth,G#5
2811,Left,1,57,103,695.333333,0.322917,Triplet,A3
2812,Right,0,81,103,695.5,0.489583,Eighth,A5
2813,Left,1,54,103,695.666667,0.322917,Triplet,F#3
2815,Left,1,42,104,696.0,0.322917,Triplet,F#2
2814,Right,0,88,104,696.0,0.489583,Eighth,E6
2816,Left,1,50,104,696.333333,0.322917,Triplet,D3
2817,Right,0,86,105,696.5,0.489583,Eighth,D6
2818,Left,1,54,105,696.666667,0.322917,Triplet,F#3
2820,Left,1,57,105,697.0,0.322917,Triplet,A3
2819,Right,0,85,105,697.0,0.489583,Eighth,C#6
2821,Left,1,54,106,697.333333,0.322917,Triplet,F#3
2822,Right,0,86,106,697.5,0.489583,Eighth,D6
2823,Left,1,50,106,697.666667,0.322917,Triplet,D3
2825,Right,0,84,107,698.0,0.489583,Eighth,C6
2824,Left,1,43,107,698.0,0.322917,Triplet,G2
2826,Left,1,50,107,698.333333,0.322917,Triplet,D3
2827,Right,0,83,108,698.5,0.489583,Eighth,B5
2828,Left,1,55,108,698.666667,0.322917,Triplet,G3
2830,Right,0,82,108,699.0,0.489583,Eighth,A#5
2829,Left,1,59,108,699.0,0.322917,Triplet,B3
2831,Left,1,55,109,699.333333,0.322917,Triplet,G3
2832,Right,0,83,109,699.5,0.489583,Eighth,B5
2833,Left,1,50,109,699.666667,0.322917,Triplet,D3
2837,Left,1,45,110,700.0,0.322917,Triplet,A2
2834,Right,0,76,110,700.0,0.989583,Quarter,E5_C#5_B5
2838,Left,1,55,110,700.333333,0.322917,Triplet,G3
2839,Right,0,81,110,700.5,0.489583,Eighth,A5
2840,Left,1,57,110,700.666667,0.322917,Triplet,A3
2841,Right,0,80,110,701.0,0.989583,Quarter,G#5_E5_C#5
2844,Left,1,61,110,701.0,0.322917,Triplet,C#4
2845,Left,1,57,110,701.333333,0.322917,Triplet,A3
2846,Right,0,81,110,701.5,0.489583,Eighth,A5
2847,Left,1,55,110,701.666667,0.322917,Triplet,G3
2848,Left,1,50,110,702.0,0.322917,Triplet,D3
2849,Right,0,74,110,702.0,0.989583,Quarter,F#5_D5_B5
2852,Left,1,54,110,702.333333,0.322917,Triplet,F#3
2853,Right,0,81,110,702.5,0.489583,Eighth,A5
2854,Left,1,57,110,702.666667,0.322917,Triplet,A3
2855,Right,0,80,110,703.0,0.489583,Eighth,G#5
2856,Left,1,62,110,703.0,0.322917,Triplet,D4
2857,Left,1,57,110,703.333333,0.322917,Triplet,A3
2858,Right,0,81,110,703.5,0.489583,Eighth,A5
2859,Left,1,54,110,703.666667,0.322917,Triplet,F#3
2860,Left,1,45,110,704.0,0.322917,Triplet,A2
2861,Right,0,76,110,704.0,0.989583,Quarter,E5_C#5_B5
2864,Left,1,55,110,704.333333,0.322917,Triplet,G3
2865,Right,0,81,110,704.5,0.489583,Eighth,A5
2866,Left,1,57,110,704.666667,0.322917,Triplet,A3
2867,Right,0,73,110,705.0,0.989583,Quarter,G#5_E5_C#5
2870,Left,1,61,110,705.0,0.322917,Triplet,C#4
2871,Left,1,57,110,705.333333,0.322917,Triplet,A3
2872,Right,0,81,110,705.5,0.489583,Eighth,A5
2873,Left,1,55,110,705.666667,0.322917,Triplet,G3
2874,Right,0,78,110,706.0,0.989583,Quarter,F#5_D5_B5
2877,Left,1,50,110,706.0,0.322917,Triplet,D3
2878,Left,1,54,110,706.333333,0.322917,Triplet,F#3
2879,Right,0,81,110,706.5,0.489583,Eighth,A5
2880,Left,1,57,110,706.666667,0.322917,Triplet,A3
2881,Left,1,62,110,707.0,0.322917,Triplet,D4
2882,Right,0,80,110,707.0,0.489583,Eighth,G#5
2883,Left,1,57,110,707.333333,0.322917,Triplet,A3
2884,Right,0,81,110,707.5,0.489583,Eighth,A5
2885,Left,1,54,110,707.666667,0.322917,Triplet,F#3
2887,Right,0,73,110,708.0,0.989583,Quarter,E5_C#5_B5
2886,Left,1,45,110,708.0,0.322917,Triplet,A2
2890,Left,1,55,110,708.333333,0.322917,Triplet,G3
2891,Right,0,81,110,708.5,0.489583,Eighth,A5
2892,Left,1,57,110,708.666667,0.322917,Triplet,A3
2896,Left,1,61,110,709.0,0.322917,Triplet,C#4
2893,Right,0,73,110,709.0,0.989583,Quarter,G#5_E5_C#5
2897,Left,1,57,110,709.333333,0.322917,Triplet,A3
2898,Right,0,81,110,709.5,0.489583,Eighth,A5
2899,Left,1,55,110,709.666667,0.322917,Triplet,G3
2902,Right,0,74,110,710.0,0.989583,Quarter,D5
2900,Left,1,54,80,710.0,0.989583,Sixteenth,F#3_D3
2903,Left,1,62,80,710.25,16.739583,Unknown,D4
2904,Left,1,60,80,712.0,0.989583,Quarter,C4
2905,Right,0,74,80,712.333333,0.322917,Triplet,D5
2906,Right,0,76,80,712.666667,0.322917,Triplet,E5
2907,Left,1,57,80,713.0,0.989583,Quarter,A3
2908,Right,0,78,80,713.0,0.322917,Triplet,F#5
2909,Right,0,76,80,713.333333,0.322917,Triplet,E5
2910,Right,0,74,80,713.666667,0.322917,Triplet,D5
2911,Left,1,59,80,714.0,0.989583,Quarter,B3
2912,Right,0,79,80,714.333333,0.322917,Triplet,G5
2913,Right,0,81,80,714.666667,0.322917,Triplet,A5
2915,Left,1,55,80,715.0,0.989583,Quarter,G3
2914,Right,0,83,80,715.0,0.322917,Triplet,B5
2916,Right,0,81,80,715.333333,0.322917,Triplet,A5
2917,Right,0,79,80,715.666667,0.322917,Triplet,G5
2918,Left,1,60,80,716.0,0.989583,Quarter,C4
2919,Right,0,74,80,716.333333,0.322917,Triplet,D5
2920,Right,0,76,80,716.666667,0.322917,Triplet,E5
2921,Left,1,57,80,717.0,0.989583,Quarter,A3
2922,Right,0,78,80,717.0,0.322917,Triplet,F#5
2923,Right,0,76,80,717.333333,0.322917,Triplet,E5
2924,Right,0,74,80,717.666667,0.322917,Triplet,D5
2925,Left,1,59,80,718.0,0.989583,Quarter,B3
2926,Right,0,79,80,718.333333,0.322917,Triplet,G5
2927,Right,0,81,80,718.666667,0.322917,Triplet,A5
2928,Right,0,83,80,719.0,0.322917,Triplet,B5
2929,Left,1,55,80,719.0,0.989583,Quarter,G3
2930,Right,0,81,80,719.333333,0.322917,Triplet,A5
2931,Right,0,79,80,719.666667,0.322917,Triplet,G5
2932,Left,1,60,80,720.0,0.989583,Quarter,C4
2933,Right,0,74,80,720.333333,0.322917,Triplet,D5
2934,Right,0,76,80,720.666667,0.322917,Triplet,E5
2936,Right,0,78,80,721.0,0.322917,Triplet,F#5
2935,Left,1,57,80,721.0,0.989583,Quarter,A3
2937,Right,0,76,80,721.333333,0.322917,Triplet,E5
2938,Right,0,74,80,721.666667,0.322917,Triplet,D5
2939,Left,1,59,80,722.0,0.989583,Quarter,B3
2940,Right,0,79,80,722.333333,0.322917,Triplet,G5
2941,Right,0,81,80,722.666667,0.322917,Triplet,A5
2942,Right,0,83,80,723.0,0.322917,Triplet,B5
2943,Left,1,55,80,723.0,0.989583,Quarter,G3
2944,Right,0,81,80,723.333333,0.322917,Triplet,A5
2945,Right,0,79,80,723.666667,0.322917,Triplet,G5
2946,Right,0,84,80,724.0,0.322917,Triplet,C6
2947,Left,1,57,80,724.0,0.989583,Quarter,A3
2948,Right,0,81,80,724.333333,0.322917,Triplet,A5
2949,Right,0,78,80,724.666667,0.322917,Triplet,F#5
2950,Right,0,72,80,725.0,0.322917,Triplet,C5
2951,Left,1,50,80,725.0,0.989583,Quarter,D3
2952,Right,0,69,80,725.333333,0.322917,Triplet,A4
2953,Right,0,66,80,725.666667,0.322917,Triplet,F#4
2954,Right,0,67,80,726.0,0.322917,Triplet,G4
2955,Left,1,55,80,726.0,0.989583,Quarter,G3
2956,Right,0,71,80,726.333333,0.322917,Triplet,B4
2957,Right,0,67,80,726.666667,0.322917,Triplet,G4
2958,Right,0,62,80,727.0,0.322917,Triplet,D4
2959,Left,1,47,80,727.0,0.989583,Quarter,B2
2960,Right,0,59,80,727.333333,0.322917,Triplet,B3
2961,Right,0,67,80,727.666667,0.322917,Triplet,G4
2962,Left,1,50,80,728.0,6.989583,Unknown,D3_C3
2964,Right,0,62,80,728.333333,0.322917,Triplet,D4
2965,Right,0,64,80,728.666667,0.322917,Triplet,E4
2966,Right,0,66,80,729.0,0.322917,Triplet,F#4
2967,Left,1,45,80,729.0,0.989583,Quarter,A2
2968,Right,0,64,80,729.333333,0.322917,Triplet,E4
2969,Right,0,62,80,729.666667,0.322917,Triplet,D4
2970,Left,1,47,80,730.0,0.989583,Quarter,B2
2971,Right,0,67,80,730.333333,0.322917,Triplet,G4
2972,Right,0,69,80,730.666667,0.322917,Triplet,A4
2973,Right,0,71,80,731.0,0.322917,Triplet,B4
2974,Left,1,43,80,731.0,0.989583,Quarter,G2
2975,Right,0,69,80,731.333333,0.322917,Triplet,A4
2976,Right,0,67,80,731.666667,0.322917,Triplet,G4
2978,Right,0,72,80,732.0,0.322917,Triplet,C5
2977,Left,1,45,80,732.0,0.989583,Quarter,A2
2979,Right,0,69,80,732.333333,0.322917,Triplet,A4
2980,Right,0,66,80,732.666667,0.322917,Triplet,F#4
2981,Left,1,38,80,733.0,0.989583,Quarter,D2
2982,Right,0,60,80,733.0,0.322917,Triplet,C4
2983,Right,0,57,80,733.333333,0.322917,Triplet,A3
2984,Right,0,54,80,733.666667,0.322917,Triplet,F#3
2985,Right,0,55,80,734.0,0.322917,Triplet,G3
2986,Left,1,43,80,734.0,0.989583,Quarter,G2
2987,Right,0,59,80,734.333333,0.322917,Triplet,B3
2988,Right,0,55,80,734.666667,0.322917,Triplet,G3
2990,Left,1,35,80,735.0,0.989583,Quarter,B1
2989,Right,0,50,80,735.0,0.322917,Triplet,D3
2991,Right,0,47,80,735.333333,0.322917,Triplet,B2
2992,Right,0,55,80,735.666667,0.322917,Triplet,G3
2993,Left,1,36,80,736.0,7.989583,Quarter,D2_C2
2995,Right,0,50,80,736.333333,0.322917,Triplet,D3
2996,Right,0,52,80,736.666667,0.322917,Triplet,E3
2997,Left,1,33,80,737.0,0.989583,Quarter,A1
2998,Right,0,54,80,737.0,0.322917,Triplet,F#3
2999,Right,0,52,80,737.333333,0.322917,Triplet,E3
3000,Right,0,50,80,737.666667,0.322917,Triplet,D3
3001,Left,1,35,80,738.0,0.989583,Quarter,B1
3002,Right,0,55,80,738.333333,0.322917,Triplet,G3
3003,Right,0,57,80,738.666667,0.322917,Triplet,A3
3004,Right,0,59,80,739.0,0.322917,Triplet,B3
3005,Left,1,31,80,739.0,0.989583,Quarter,G1
3006,Right,0,57,80,739.333333,0.322917,Triplet,A3
3007,Right,0,55,80,739.666667,0.322917,Triplet,G3
3008,Left,1,33,80,740.0,0.989583,Quarter,A1
3009,Right,0,60,80,740.0,0.322917,Triplet,C4
3010,Right,0,57,80,740.333333,0.322917,Triplet,A3
3011,Right,0,54,80,740.666667,0.322917,Triplet,F#3
3013,Left,1,35,80,741.0,0.989583,Quarter,B1
3012,Right,0,48,80,741.0,0.322917,Triplet,C3
3014,Right,0,45,80,741.333333,0.322917,Triplet,A2
3015,Right,0,42,80,741.666667,0.322917,Triplet,F#2
3016,Left,1,35,80,742.0,0.989583,Quarter,B1
3017,Right,0,43,80,742.0,0.322917,Triplet,G2
3018,Right,0,47,80,742.333333,0.322917,Triplet,B2
3019,Right,0,50,80,742.666667,0.322917,Triplet,D3
3021,Left,1,31,80,743.0,0.989583,Quarter,G1
3020,Right,0,55,80,743.0,0.322917,Triplet,G3
3022,Right,0,59,80,743.333333,0.322917,Triplet,B3
3023,Right,0,62,80,743.666667,0.322917,Triplet,D4
3024,Right,0,60,80,744.0,0.322917,Triplet,C4
3025,Left,1,38,80,744.0,6.989583,Unknown,D2_A1
3027,Right,0,57,80,744.333333,0.322917,Triplet,A3
3028,Right,0,54,80,744.666667,0.322917,Triplet,F#3
3030,Left,1,36,80,745.0,0.989583,Quarter,C2
3029,Right,0,48,80,745.0,0.322917,Triplet,C3
3031,Right,0,45,80,745.333333,0.322917,Triplet,A2
3032,Right,0,42,80,745.666667,0.322917,Triplet,F#2
3034,Right,0,43,80,746.0,0.322917,Triplet,G2
3033,Left,1,35,80,746.0,0.989583,Quarter,B1
3035,Right,0,47,80,746.333333,0.322917,Triplet,B2
3036,Right,0,50,80,746.666667,0.322917,Triplet,D3
3038,Left,1,31,80,747.0,0.989583,Quarter,G1
3037,Right,0,55,80,747.0,0.322917,Triplet,G3
3039,Right,0,59,80,747.333333,0.322917,Triplet,B3
3040,Right,0,62,80,747.666667,0.322917,Triplet,D4
3042,Left,1,33,80,748.0,0.989583,Quarter,A1
3041,Right,0,60,80,748.0,0.322917,Triplet,C4
3043,Right,0,57,80,748.333333,0.322917,Triplet,A3
3044,Right,0,54,80,748.666667,0.322917,Triplet,F#3
3045,Right,0,48,80,749.0,0.322917,Triplet,C3
3046,Left,1,36,80,749.0,0.989583,Quarter,C2
3047,Right,0,45,80,749.333333,0.322917,Triplet,A2
3048,Right,0,42,80,749.666667,0.322917,Triplet,F#2
3050,Right,0,43,80,750.0,0.322917,Triplet,G2
3049,Left,1,35,80,750.0,0.989583,Quarter,B1
3051,Right,0,59,80,750.333333,0.322917,Triplet,B3
3052,Right,0,55,80,750.666667,0.322917,Triplet,G3
3053,Left,1,43,80,751.0,0.989583,Quarter,G2_G1
3055,Right,0,50,80,751.0,0.322917,Triplet,D3
3056,Right,0,47,80,751.333333,0.322917,Triplet,B2
3057,Right,0,59,80,751.666667,0.322917,Triplet,B3
3058,Right,0,50,80,752.0,0.322917,Triplet,D3
3059,Right,0,62,80,752.333333,0.322917,Triplet,D4
3060,Right,0,59,80,752.666667,0.322917,Triplet,B3
3061,Left,1,47,80,753.0,0.989583,Quarter,G2_B2
3063,Right,0,55,80,753.0,0.322917,Triplet,G3
3064,Right,0,50,80,753.333333,0.322917,Triplet,D3
3065,Right,0,62,80,753.666667,0.322917,Triplet,D4
3066,Right,0,55,80,754.0,0.322917,Triplet,G3
3067,Right,0,67,80,754.333333,0.322917,Triplet,G4
3068,Right,0,62,80,754.666667,0.322917,Triplet,D4
3069,Right,0,59,80,755.0,0.322917,Triplet,B3
3070,Left,1,50,80,755.0,0.989583,Quarter,G2_D3_B2
3073,Right,0,55,80,755.333333,0.322917,Triplet,G3
3074,Right,0,67,80,755.666667,0.322917,Triplet,G4
3075,Right,0,59,80,756.0,0.322917,Triplet,B3
3076,Right,0,71,80,756.333333,0.322917,Triplet,B4
3077,Right,0,67,80,756.666667,0.322917,Triplet,G4
3078,Left,1,50,80,757.0,0.989583,Quarter,G3_G2_D3_B2
3081,Right,0,62,80,757.0,0.322917,Triplet,D4
3083,Right,0,74,80,757.333333,0.322917,Triplet,D5
3084,Right,0,71,80,757.666667,0.322917,Triplet,B4
3085,Right,0,67,80,758.0,0.322917,Triplet,G4
3086,Right,0,79,81,758.333333,0.322917,Triplet,G5
3087,Right,0,67,82,758.666667,0.322917,Triplet,G4
3089,Left,1,47,83,759.0,0.989583,Quarter,G3_D3_B2
3088,Right,0,79,83,759.0,0.322917,Triplet,G5
3092,Right,0,67,85,759.333333,0.322917,Triplet,G4
3093,Right,0,79,86,759.666667,0.322917,Triplet,G5
3094,Left,1,46,87,760.0,0.989583,Quarter,G3_C#3_A#2
3097,Right,0,67,87,760.0,0.322917,Triplet,G4
3098,Right,0,79,88,760.333333,0.322917,Triplet,G5
3099,Right,0,67,90,760.666667,0.322917,Triplet,G4
3101,Right,0,79,91,761.0,0.322917,Triplet,G5
3100,Left,1,47,91,761.0,0.989583,Quarter,G3_D3_B2
3104,Right,0,67,92,761.333333,0.322917,Triplet,G4
3105,Right,0,79,93,761.666667,0.322917,Triplet,G5
3109,Right,0,67,95,762.0,0.322917,Triplet,G4
3106,Left,1,46,95,762.0,0.989583,Quarter,G3_C#3_A#2
3110,Right,0,79,96,762.333333,0.322917,Triplet,G5
3111,Right,0,67,97,762.666667,0.322917,Triplet,G4
3113,Left,1,55,98,763.0,0.989583,Quarter,G3_D3_B2
3112,Right,0,79,98,763.0,0.322917,Triplet,G5
3116,Right,0,67,100,763.333333,0.322917,Triplet,G4
3117,Right,0,79,101,763.666667,0.322917,Triplet,G5
3118,Right,0,67,102,764.0,0.322917,Triplet,G4
3119,Left,1,46,102,764.0,0.989583,Quarter,G3_C#3_A#2
3122,Right,0,79,103,764.333333,0.322917,Triplet,G5
3123,Right,0,67,105,764.666667,0.322917,Triplet,G4
3124,Right,0,79,106,765.0,0.322917,Triplet,G5
3125,Left,1,50,106,765.0,0.989583,Quarter,G3_D3_B2
3128,Right,0,67,107,765.333333,0.322917,Triplet,G4
3129,Right,0,79,108,765.666667,0.322917,Triplet,G5
3130,Left,1,55,80,766.0,0.989583,Quarter,G3_C#3_A#2
3132,Right,0,67,110,766.0,0.322917,Triplet,G4
3134,Right,0,79,110,766.333333,0.322917,Triplet,G5
3135,Right,0,67,110,766.666667,0.322917,Triplet,G4
3137,Right,0,79,110,767.0,0.322917,Triplet,G5
3136,Left,1,47,80,767.0,0.989583,Quarter,G3_D3_B2
3140,Right,0,67,110,767.333333,0.322917,Triplet,G4
3141,Right,0,79,110,767.666667,0.322917,Triplet,G5
3142,Left,1,48,80,768.0,2.989583,DottedHalf,G3_E3_C3
3144,Right,0,76,110,768.0,0.322917,Triplet,E5
3146,Right,0,78,110,768.333333,0.322917,Triplet,F#5
3147,Right,0,79,110,768.666667,0.322917,Triplet,G5
3148,Right,0,72,110,769.0,0.322917,Triplet,C5
3149,Right,0,74,110,769.333333,0.322917,Triplet,D5
3150,Right,0,76,110,769.666667,0.322917,Triplet,E5
3151,Right,0,69,110,770.0,0.322917,Triplet,A4
3152,Right,0,71,108,770.333333,0.322917,Triplet,B4
3153,Right,0,72,105,770.666667,0.322917,Triplet,C5
3156,Right,0,64,103,771.0,0.322917,Triplet,E4
3154,Left,1,48,80,771.0,0.989583,Quarter,C4_C3
3157,Right,0,71,100,771.333333,0.322917,Triplet,B4
3158,Right,0,69,98,771.666667,0.322917,Triplet,A4
3159,Left,1,59,80,772.0,0.989583,Quarter,D3_B3
3160,Right,0,62,95,772.0,0.322917,Triplet,D4
3162,Right,0,69,93,772.333333,0.322917,Triplet,A4
3163,Right,0,67,90,772.666667,0.322917,Triplet,G4
3164,Left,1,50,80,773.0,0.989583,Quarter,D3_A3
3166,Right,0,60,88,773.0,0.322917,Triplet,C4
3167,Right,0,67,85,773.333333,0.322917,Triplet,G4
3168,Right,0,66,83,773.666667,0.322917,Triplet,F#4
3169,Right,0,67,80,774.0,0.322917,Triplet,G4
3170,Right,0,79,80,774.333333,0.322917,Triplet,G5
3171,Right,0,67,80,774.666667,0.322917,Triplet,G4
3172,Right,0,79,81,775.0,0.322917,Triplet,G5
3173,Left,1,47,81,775.0,0.989583,Quarter,G3_D3_B2
3176,Right,0,67,81,775.333333,0.322917,Triplet,G4
3177,Right,0,79,82,775.666667,0.322917,Triplet,G5
3180,Right,0,67,82,776.0,0.322917,Triplet,G4
3178,Left,1,46,82,776.0,0.989583,Quarter,G3_C#3_A#2
3182,Right,0,79,82,776.333333,0.322917,Triplet,G5
3183,Right,0,67,83,776.666667,0.322917,Triplet,G4
3186,Right,0,79,83,777.0,0.322917,Triplet,G5
3184,Left,1,47,83,777.0,0.989583,Quarter,G3_D3_B2
3188,Right,0,67,84,777.333333,0.322917,Triplet,G4
3189,Right,0,79,84,777.666667,0.322917,Triplet,G5
3190,Right,0,67,85,778.0,0.322917,Triplet,G4
3191,Left,1,46,85,778.0,0.989583,Quarter,G3_C#3_A#2
3194,Right,0,79,85,778.333333,0.322917,Triplet,G5
3195,Right,0,67,85,778.666667,0.322917,Triplet,G4
3196,Right,0,79,86,779.0,0.322917,Triplet,G5
3197,Left,1,50,86,779.0,0.989583,Quarter,G3_D3_B2
3200,Right,0,67,86,779.333333,0.322917,Triplet,G4
3201,Right,0,79,87,779.666667,0.322917,Triplet,G5
3204,Right,0,67,87,780.0,0.322917,Triplet,G4
3202,Left,1,55,87,780.0,0.989583,Quarter,G3_C#3_A#2
3206,Right,0,79,87,780.333333,0.322917,Triplet,G5
3207,Right,0,67,88,780.666667,0.322917,Triplet,G4
3209,Left,1,55,88,781.0,0.989583,Quarter,G3_D3_B2
3208,Right,0,79,88,781.0,0.322917,Triplet,G5
3212,Right,0,67,89,781.333333,0.322917,Triplet,G4
3213,Right,0,79,89,781.666667,0.322917,Triplet,G5
3215,Left,1,55,90,782.0,0.989583,Quarter,G3_C#3_A#2
3214,Right,0,67,90,782.0,0.322917,Triplet,G4
3218,Right,0,79,90,782.333333,0.322917,Triplet,G5
3219,Right,0,67,90,782.666667,0.322917,Triplet,G4
3223,Right,0,79,91,783.0,0.322917,Triplet,G5
3220,Left,1,50,91,783.0,0.989583,Quarter,G3_D3_B2
3224,Right,0,67,91,783.333333,0.322917,Triplet,G4
3225,Right,0,79,92,783.666667,0.322917,Triplet,G5
3227,Right,0,67,92,784.0,0.322917,Triplet,G4
3226,Left,1,53,92,784.0,2.989583,DottedHalf,F3_D3_B3
3230,Right,0,79,92,784.333333,0.322917,Triplet,G5
3231,Right,0,67,93,784.666667,0.322917,Triplet,G4
3232,Right,0,79,93,785.0,0.322917,Triplet,G5
3233,Right,0,67,94,785.333333,0.322917,Triplet,G4
3234,Right,0,79,94,785.666667,0.322917,Triplet,G5
3235,Right,0,67,95,786.0,0.322917,Triplet,G4
3236,Right,0,79,95,786.333333,0.322917,Triplet,G5
3237,Right,0,67,95,786.666667,0.322917,Triplet,G4
3238,Left,1,55,96,787.0,0.989583,Quarter,G3_D3_B2
3241,Right,0,79,96,787.0,0.322917,Triplet,G5
3242,Right,0,67,96,787.333333,0.322917,Triplet,G4
3243,Right,0,79,97,787.666667,0.322917,Triplet,G5
3245,Right,0,67,97,788.0,0.322917,Triplet,G4
3244,Left,1,52,97,788.0,2.989583,DottedHalf,G3_E3_C4
3248,Right,0,79,97,788.333333,0.322917,Triplet,G5
3249,Right,0,67,98,788.666667,0.322917,Triplet,G4
3250,Right,0,79,98,789.0,0.322917,Triplet,G5
3251,Right,0,67,99,789.333333,0.322917,Triplet,G4
3252,Right,0,79,99,789.666667,0.322917,Triplet,G5
3253,Right,0,67,100,790.0,0.322917,Triplet,G4
3254,Right,0,79,100,790.333333,0.322917,Triplet,G5
3255,Right,0,67,100,790.666667,0.322917,Triplet,G4
3256,Right,0,79,101,791.0,0.322917,Triplet,G5
3257,Left,1,52,101,791.0,0.989583,Quarter,E3_C#3_A#3
3260,Right,0,67,101,791.333333,0.322917,Triplet,G4
3261,Right,0,79,102,791.666667,0.322917,Triplet,G5
3262,Right,0,67,102,792.0,0.322917,Triplet,G4
3263,Left,1,52,102,792.0,2.989583,DottedHalf,E3_C#4_A#3
3266,Right,0,79,102,792.333333,0.322917,Triplet,G5
3267,Right,0,67,103,792.666667,0.322917,Triplet,G4
3268,Right,0,79,103,793.0,0.322917,Triplet,G5
3269,Right,0,67,104,793.333333,0.322917,Triplet,G4
3270,Right,0,79,104,793.666667,0.322917,Triplet,G5
3271,Right,0,67,105,794.0,0.322917,Triplet,G4
3272,Right,0,79,105,794.333333,0.322917,Triplet,G5
3273,Right,0,67,105,794.666667,0.322917,Triplet,G4
3277,Right,0,79,106,795.0,0.322917,Triplet,G5
3274,Left,1,52,106,795.0,1.989583,Half,E3_C#4_A#3
3278,Right,0,67,106,795.333333,0.322917,Triplet,G4
3279,Right,0,79,107,795.666667,0.322917,Triplet,G5
3280,Right,0,67,107,796.0,0.322917,Triplet,G4
3281,Right,0,79,107,796.333333,0.322917,Triplet,G5
3282,Right,0,67,108,796.666667,0.322917,Triplet,G4
3285,Right,0,79,108,797.0,0.322917,Triplet,G5
3283,Left,1,52,108,797.0,0.989583,Quarter,E3_C#4_A#3
3287,Right,0,67,109,797.333333,0.322917,Triplet,G4
3288,Right,0,79,109,797.666667,0.322917,Triplet,G5
3289,Right,0,67,100,798.0,0.322917,Triplet,G4
3290,Left,1,50,100,798.0,0.322917,Triplet,D3
3292,Right,0,79,100,798.333333,0.322917,Triplet,G5
3291,Left,1,59,100,798.333333,0.322917,Triplet,B3
3294,Left,1,62,100,798.666667,0.322917,Triplet,D4
3293,Right,0,67,100,798.666667,0.322917,Triplet,G4
3295,Right,0,79,99,799.0,0.322917,Triplet,G5
3296,Left,1,52,99,799.0,0.322917,Triplet,E3
3298,Right,0,67,99,799.333333,0.322917,Triplet,G4
3297,Left,1,58,99,799.333333,0.322917,Triplet,A#3
3300,Left,1,61,99,799.666667,0.322917,Triplet,C#4
3299,Right,0,79,99,799.666667,0.322917,Triplet,G5
3301,Left,1,50,98,800.0,0.322917,Triplet,D3
3302,Right,0,67,98,800.0,0.322917,Triplet,G4
3303,Left,1,59,98,800.333333,0.322917,Triplet,B3
3304,Right,0,79,98,800.333333,0.322917,Triplet,G5
3306,Right,0,67,97,800.666667,0.322917,Triplet,G4
3305,Left,1,62,97,800.666667,0.322917,Triplet,D4
3307,Right,0,79,97,801.0,0.322917,Triplet,G5
3308,Left,1,49,97,801.0,0.322917,Triplet,C#3
3309,Right,0,67,97,801.333333,0.322917,Triplet,G4
3310,Left,1,58,97,801.333333,0.322917,Triplet,A#3
3312,Right,0,79,96,801.666667,0.322917,Triplet,G5
3311,Left,1,64,96,801.666667,0.322917,Triplet,E4
3314,Right,0,67,96,802.0,0.322917,Triplet,G4
3313,Left,1,50,96,802.0,0.322917,Triplet,D3
3316,Left,1,59,96,802.333333,0.322917,Triplet,B3
3315,Right,0,79,96,802.333333,0.322917,Triplet,G5
3318,Left,1,62,95,802.666667,0.322917,Triplet,D4
3317,Right,0,67,95,802.666667,0.322917,Triplet,G4
3319,Right,0,79,95,803.0,0.322917,Triplet,G5
3320,Left,1,40,95,803.0,0.989583,Quarter,E2
3321,Right,0,73,94,803.333333,0.322917,Triplet,C#5
3322,Right,0,70,94,803.666667,0.322917,Triplet,A#4
3323,Left,1,38,94,804.0,0.989583,Quarter,D2
3324,Right,0,79,94,804.0,0.322917,Triplet,G5
3325,Right,0,74,93,804.333333,0.322917,Triplet,D5
3326,Right,0,71,93,804.666667,0.322917,Triplet,B4
3327,Left,1,37,92,805.0,0.989583,Quarter,C#2
3328,Right,0,79,92,805.0,0.322917,Triplet,G5
3329,Right,0,76,92,805.333333,0.322917,Triplet,E5
3330,Right,0,70,92,805.666667,0.322917,Triplet,A#4
3331,Right,0,79,91,806.0,0.322917,Triplet,G5
3332,Left,1,38,91,806.0,0.989583,Quarter,D2
3333,Right,0,74,91,806.333333,0.322917,Triplet,D5
3334,Right,0,71,91,806.666667,0.322917,Triplet,B4
3336,Right,0,79,80,807.0,0.322917,Triplet,G5
3335,Left,1,52,80,807.0,0.322917,Triplet,E3
3337,Right,0,67,80,807.333333,0.322917,Triplet,G4
3338,Left,1,58,80,807.333333,0.322917,Triplet,A#3
3340,Right,0,79,80,807.666667,0.322917,Triplet,G5
3339,Left,1,61,80,807.666667,0.322917,Triplet,C#4
3342,Right,0,67,80,808.0,0.322917,Triplet,G4
3341,Left,1,50,80,808.0,0.322917,Triplet,D3
3344,Left,1,59,80,808.333333,0.322917,Triplet,B3
3343,Right,0,79,80,808.333333,0.322917,Triplet,G5
3346,Left,1,62,80,808.666667,0.322917,Triplet,D4
3345,Right,0,67,80,808.666667,0.322917,Triplet,G4
3348,Left,1,49,80,809.0,0.322917,Triplet,C#3
3347,Right,0,79,80,809.0,0.322917,Triplet,G5
3349,Left,1,58,80,809.333333,0.322917,Triplet,A#3
3350,Right,0,67,80,809.333333,0.322917,Triplet,G4
3351,Left,1,64,80,809.666667,0.322917,Triplet,E4
3352,Right,0,79,80,809.666667,0.322917,Triplet,G5
3354,Right,0,67,80,810.0,0.322917,Triplet,G4
3353,Left,1,50,80,810.0,0.322917,Triplet,D3
3356,Left,1,59,80,810.333333,0.322917,Triplet,B3
3355,Right,0,79,80,810.333333,0.322917,Triplet,G5
3357,Left,1,62,80,810.666667,0.322917,Triplet,D4
3358,Right,0,67,80,810.666667,0.322917,Triplet,G4
3360,Left,1,40,80,811.0,0.989583,Quarter,E2
3359,Right,0,79,80,811.0,0.322917,Triplet,G5
3361,Right,0,73,80,811.333333,0.322917,Triplet,C#5
3362,Right,0,70,80,811.666667,0.322917,Triplet,A#4
3364,Left,1,38,80,812.0,0.989583,Quarter,D2
3363,Right,0,79,80,812.0,0.322917,Triplet,G5
3365,Right,0,74,80,812.333333,0.322917,Triplet,D5
3366,Right,0,71,80,812.666667,0.322917,Triplet,B4
3367,Left,1,37,80,813.0,0.989583,Quarter,C#2
3368,Right,0,79,80,813.0,0.322917,Triplet,G5
3369,Right,0,76,80,813.333333,0.322917,Triplet,E5
3370,Right,0,70,80,813.666667,0.322917,Triplet,A#4
3371,Right,0,79,80,814.0,0.322917,Triplet,G5
3372,Left,1,38,80,814.0,0.989583,Quarter,D2
3373,Right,0,74,81,814.333333,0.322917,Triplet,D5
3374,Right,0,71,82,814.666667,0.322917,Triplet,B4
3376,Left,1,40,83,815.0,0.989583,Quarter,E2
3375,Right,0,79,83,815.0,0.322917,Triplet,G5
3377,Right,0,73,85,815.333333,0.322917,Triplet,C#5
3378,Right,0,70,86,815.666667,0.322917,Triplet,A#4
3380,Right,0,79,87,816.0,0.322917,Triplet,G5
3379,Left,1,38,87,816.0,0.989583,Quarter,D2
3381,Right,0,74,89,816.333333,0.322917,Triplet,D5
3382,Right,0,71,90,816.666667,0.322917,Triplet,B4
3383,Right,0,79,91,817.0,0.322917,Triplet,G5
3384,Left,1,37,91,817.0,0.989583,Quarter,C#2
3385,Right,0,76,93,817.333333,0.322917,Triplet,E5
3386,Right,0,70,94,817.666667,0.322917,Triplet,A#4
3387,Right,0,79,95,818.0,0.322917,Triplet,G5
3388,Left,1,38,95,818.0,0.989583,Quarter,D2
3389,Right,0,74,97,818.333333,0.322917,Triplet,D5
3390,Right,0,71,98,818.666667,0.322917,Triplet,B4
3391,Left,1,37,99,819.0,0.989583,Quarter,C#2
3392,Right,0,79,99,819.0,0.322917,Triplet,G5
3393,Right,0,76,101,819.333333,0.322917,Triplet,E5
3394,Right,0,70,102,819.666667,0.322917,Triplet,A#4
3396,Left,1,38,103,820.0,0.989583,Quarter,D2
3395,Right,0,79,103,820.0,0.322917,Triplet,G5
3397,Right,0,74,105,820.333333,0.322917,Triplet,D5
3398,Right,0,71,106,820.666667,0.322917,Triplet,B4
3400,Right,0,79,107,821.0,0.322917,Triplet,G5
3399,Left,1,37,107,821.0,0.989583,Quarter,C#2
3401,Right,0,76,109,821.333333,0.322917,Triplet,E5
3402,Right,0,70,110,821.666667,0.322917,Triplet,A#4
3405,Left,1,38,111,822.0,29.489583,Unknown,D3_D2
3403,Right,0,74,111,822.0,0.989583,Quarter,G5_D5_B4
3408,Right,0,67,80,824.0,0.989583,Quarter,G4
3409,Right,0,66,80,825.0,0.989583,Quarter,F#4
3410,Right,0,65,80,826.0,0.989583,Quarter,F4
3411,Right,0,64,80,827.0,0.989583,Quarter,E4
3412,Right,0,55,80,827.5,0.489583,Eighth,G3
3413,Right,0,60,80,828.0,0.989583,Quarter,D#4_C4
3415,Right,0,60,80,829.0,0.989583,Quarter,D#4_C4
3417,Right,0,60,80,830.0,0.989583,Quarter,D#4_C4
3419,Right,0,62,80,831.0,0.989583,Quarter,D4_B3
3421,Right,0,52,80,831.5,0.489583,Eighth,E3
3422,Right,0,61,80,832.0,0.989583,Quarter,C#4
3423,Left,1,57,80,832.0,0.989583,Quarter,A3
3424,Right,0,60,80,833.0,0.989583,Quarter,C4
3425,Left,1,57,80,833.0,0.989583,Quarter,A3
3427,Right,0,59,80,834.0,0.989583,Quarter,B3
3426,Left,1,57,80,834.0,0.989583,Quarter,A3
3428,Left,1,55,80,835.0,0.489583,Eighth,G3
3429,Left,1,55,80,836.0,0.989583,Quarter,G3
3430,Left,1,54,80,837.0,0.989583,Quarter,F#3
3431,Left,1,53,80,838.0,0.989583,Quarter,F3
3432,Left,1,52,80,839.0,0.989583,Quarter,E3
3433,Right,0,67,80,839.5,0.489583,Eighth,G4
3434,Left,1,51,80,840.0,0.989583,Quarter,D#3
3435,Right,0,72,80,840.0,0.989583,Quarter,C5
3437,Right,0,72,80,841.0,0.989583,Quarter,C5
3436,Left,1,51,80,841.0,0.989583,Quarter,D#3
3439,Right,0,72,80,842.0,0.989583,Quarter,C5
3438,Left,1,51,80,842.0,0.989583,Quarter,D#3
3440,Right,0,71,80,843.0,0.489583,Eighth,B4
3441,Left,1,50,80,843.0,0.989583,Quarter,D3
3442,Right,0,64,80,843.5,0.489583,Eighth,E4
3444,Right,0,69,80,844.0,0.989583,Quarter,A4
3443,Left,1,49,80,844.0,0.989583,Quarter,C#3
3445,Left,1,48,80,845.0,0.989583,Quarter,C3
3446,Right,0,69,80,845.0,0.989583,Quarter,A4
3448,Right,0,69,80,846.0,0.989583,Quarter,A4
3447,Left,1,48,80,846.0,0.989583,Quarter,C3
3449,Right,0,67,80,847.0,0.489583,Eighth,G4
3450,Left,1,47,80,847.0,0.989583,Quarter,B2
3451,Right,0,74,80,848.0,0.989583,Quarter,D6_D5
3453,Left,1,46,80,848.0,0.989583,Quarter,A#2
3454,Right,0,73,83,849.0,0.989583,Quarter,C#6_C#5
3456,Left,1,45,83,849.0,0.989583,Quarter,A2
3457,Right,0,72,87,850.0,0.989583,Quarter,C6_C5
3459,Left,1,44,87,850.0,0.989583,Quarter,G#2
3462,Left,1,43,90,851.0,0.489583,Eighth,G2
3460,Right,0,71,90,851.0,0.989583,Quarter,B5_B4
3463,Left,1,50,92,851.5,0.489583,Eighth,D3_D2
3467,Left,1,43,94,852.0,0.989583,Quarter,G3_G2
3465,Right,0,70,94,852.0,0.989583,Quarter,A#5_A#4
3469,Right,0,82,97,853.0,0.989583,Quarter,A#5_A#4
3471,Left,1,55,97,853.0,0.989583,Quarter,G3
3474,Right,0,82,101,854.0,0.989583,Quarter,A#5_A#4
3472,Left,1,55,101,854.0,0.989583,Quarter,G3_C#4
3478,Left,1,62,104,855.0,0.489583,Eighth,F#3_D4
3476,Right,0,81,104,855.0,0.489583,Eighth,A5_A4
3480,Left,1,47,106,855.5,0.489583,Eighth,B2
3481,Right,0,74,106,855.5,0.489583,Eighth,D5_D4
3483,Left,1,52,108,856.0,0.989583,Quarter,E3
3484,Right,0,79,108,856.0,0.989583,Quarter,G5_G4
3486,Right,0,79,111,857.0,0.989583,Quarter,G5_G4
3487,Left,1,52,111,857.0,0.989583,Quarter,E3
3490,Left,1,52,110,858.0,0.989583,Quarter,E3_A#3
3489,Right,0,67,110,858.0,0.989583,Quarter,G5_G4
3494,Right,0,66,110,859.0,0.489583,Eighth,F#5_F#4
3493,Left,1,50,110,859.0,0.489583,Eighth,D3_B3
3498,Right,0,71,110,859.5,0.489583,Eighth,B5_B4
3497,Left,1,43,110,859.5,0.489583,Eighth,G2
3501,Right,0,76,110,860.0,0.989583,Quarter,E6_E5
3500,Left,1,48,110,860.0,0.989583,Quarter,C3
3503,Left,1,48,110,861.0,0.989583,Quarter,C3_C2
3505,Right,0,88,110,861.0,0.989583,Quarter,E6_E5
3507,Left,1,48,110,862.0,0.989583,Quarter,F#2_C3
3509,Right,0,76,110,862.0,0.989583,Quarter,E6_E5
3511,Left,1,43,110,863.0,0.489583,Eighth,G2_B2
3513,Right,0,74,110,863.0,0.489583,Eighth,D6_D5
3517,Left,1,40,110,863.5,0.489583,Eighth,E2
3515,Right,0,67,110,863.5,0.489583,Eighth,G5_G4
3519,Right,0,72,110,864.0,0.989583,Quarter,C6_C5
3518,Left,1,45,110,864.0,0.989583,Quarter,A2
3521,Left,1,45,110,865.0,0.989583,Quarter,F#2_A2
3523,Right,0,84,110,865.0,0.989583,Quarter,C6_C5
3527,Left,1,38,70,866.0,0.322917,Triplet,D2
3525,Right,0,84,110,866.0,1.739583,DottedQuarter,C6_C5
3528,Left,1,45,70,866.333333,0.322917,Triplet,A2
3529,Left,1,50,70,866.666667,0.322917,Triplet,D3
3530,Left,1,54,70,867.0,0.322917,Triplet,F#3
3531,Left,1,50,70,867.333333,0.322917,Triplet,D3
3532,Left,1,45,70,867.666667,0.322917,Triplet,A2
3533,Right,0,62,80,867.75,0.239583,Sixteenth,D4
3534,Right,0,72,80,868.0,0.989583,Quarter,C5
3535,Left,1,38,70,868.0,0.322917,Triplet,D2
3536,Left,1,45,70,868.333333,0.322917,Triplet,A2
3537,Left,1,50,70,868.666667,0.322917,Triplet,D3
3538,Right,0,72,80,869.0,0.989583,Quarter,C5
3539,Left,1,54,70,869.0,0.322917,Triplet,F#3
3540,Left,1,50,70,869.333333,0.322917,Triplet,D3
3541,Left,1,45,70,869.666667,0.322917,Triplet,A2
3543,Left,1,38,70,870.0,0.322917,Triplet,D2
3542,Right,0,72,80,870.0,5.739583,Unknown,C5
3544,Left,1,45,70,870.333333,0.322917,Triplet,A2
3545,Left,1,50,70,870.666667,0.322917,Triplet,D3
3546,Left,1,54,70,871.0,0.322917,Triplet,F#3
3547,Left,1,50,70,871.333333,0.322917,Triplet,D3
3548,Left,1,45,70,871.666667,0.322917,Triplet,A2
3549,Right,0,74,80,871.75,0.239583,Sixteenth,D5
3551,Right,0,84,80,872.0,0.989583,Quarter,C6
3550,Left,1,38,70,872.0,0.322917,Triplet,D2
3552,Left,1,45,70,872.333333,0.322917,Triplet,A2
3553,Left,1,50,70,872.666667,0.322917,Triplet,D3
3555,Left,1,54,70,873.0,0.322917,Triplet,F#3
3554,Right,0,84,80,873.0,0.989583,Quarter,C6
3556,Left,1,50,70,873.333333,0.322917,Triplet,D3
3557,Left,1,45,70,873.666667,0.322917,Triplet,A2
3559,Left,1,38,70,874.0,0.322917,Triplet,D2
3558,Right,0,84,80,874.0,1.739583,DottedQuarter,C6
3560,Left,1,45,70,874.333333,0.322917,Triplet,A2
3561,Left,1,50,70,874.666667,0.322917,Triplet,D3
3562,Left,1,54,70,875.0,0.322917,Triplet,F#3
3563,Left,1,50,70,875.333333,0.322917,Triplet,D3
3564,Left,1,45,70,875.666667,0.322917,Triplet,A2
3565,Right,0,62,80,875.75,0.239583,Sixteenth,D4
3567,Left,1,38,70,876.0,0.322917,Triplet,D2
3566,Right,0,72,80,876.0,0.989583,Quarter,C5
3568,Left,1,45,70,876.333333,0.322917,Triplet,A2
3569,Left,1,50,70,876.666667,0.322917,Triplet,D3
3570,Left,1,54,70,877.0,0.322917,Triplet,F#3
3571,Right,0,72,80,877.0,0.989583,Quarter,C5
3572,Left,1,50,70,877.333333,0.322917,Triplet,D3
3573,Left,1,45,70,877.666667,0.322917,Triplet,A2
3574,Left,1,38,70,878.0,0.322917,Triplet,D2
3575,Right,0,72,80,878.0,5.739583,Unknown,C5
3576,Left,1,45,70,878.333333,0.322917,Triplet,A2
3577,Left,1,50,70,878.666667,0.322917,Triplet,D3
3578,Left,1,54,70,879.0,0.322917,Triplet,F#3
3579,Left,1,50,70,879.333333,0.322917,Triplet,D3
3580,Left,1,45,70,879.666667,0.322917,Triplet,A2
3581,Right,0,74,80,879.75,0.239583,Sixteenth,D5
3583,Left,1,38,70,880.0,0.322917,Triplet,D2
3582,Right,0,84,80,880.0,0.989583,Quarter,C6
3584,Left,1,45,70,880.333333,0.322917,Triplet,A2
3585,Left,1,50,70,880.666667,0.322917,Triplet,D3
3586,Left,1,54,70,881.0,0.322917,Triplet,F#3
3587,Right,0,84,80,881.0,0.989583,Quarter,C6
3588,Left,1,50,70,881.333333,0.322917,Triplet,D3
3589,Left,1,45,70,881.666667,0.322917,Triplet,A2
3590,Right,0,84,80,882.0,1.739583,DottedQuarter,C6
3591,Left,1,38,80,882.0,0.989583,Quarter,D2
3592,Right,0,62,80,883.75,0.489583,Eighth,D4
3593,Right,0,72,80,884.0,0.989583,Quarter,C5
3594,Right,0,72,80,885.0,0.989583,Quarter,C5
3595,Right,0,72,80,886.0,1.739583,DottedQuarter,C5
3596,Right,0,62,80,887.75,0.489583,Eighth,D4
3597,Right,0,73,80,888.0,0.989583,Quarter,C#5
3598,Right,0,73,80,889.0,0.989583,Quarter,C#5
3599,Right,0,73,80,890.0,9.989583,Unknown,C#5
3600,Right,0,76,80,900.0,0.114583,ThirtySecond,E5
3601,Right,0,74,80,900.125,0.354167,DottedSixteenth,D5
3602,Right,0,73,80,900.5,0.489583,Eighth,C#5
3603,Right,0,74,80,901.0,0.489583,Eighth,D5
3604,Right,0,76,80,901.5,0.489583,Eighth,E5
3605,Right,0,74,80,902.0,0.989583,Quarter,D5
3608,Left,1,50,80,903.0,0.989583,Quarter,D3_C3
3606,Right,0,62,80,903.0,0.989583,Quarter,F#3_D4
3612,Right,0,64,80,904.0,0.989583,Quarter,G3_E4
3610,Left,1,47,80,904.0,0.989583,Quarter,D3_B2
3616,Right,0,57,80,905.0,0.989583,Quarter,F#4_A3
3614,Left,1,45,80,905.0,0.989583,Quarter,D3_A2
3618,Left,1,43,80,906.0,1.989583,Half,G2_D3
3620,Right,0,59,80,906.0,1.989583,Half,G4_B3
3622,Right,0,71,80,912.0,0.489583,Eighth,B4
3623,Right,0,69,80,912.5,0.489583,Eighth,A4
3625,Left,1,50,80,913.0,0.989583,Quarter,F#2_D3
3624,Right,0,68,80,913.0,0.989583,Eighth,G#4_C4
3628,Right,0,69,80,913.5,0.489583,Eighth,A4
3629,Left,1,50,80,914.0,0.989583,Quarter,G2_D3
3631,Right,0,71,80,914.0,0.989583,Quarter,B4_B3
3633,Left,1,43,80,915.0,0.989583,Quarter,G2_D3
3635,Right,0,59,80,915.0,0.989583,Quarter,G4_B3
3637,Right,0,67,80,916.0,0.989583,Quarter,G4_C#5_C#4
3638,Left,1,50,80,916.0,0.989583,Quarter,F#2_D3
3642,Left,1,40,80,917.0,0.989583,Quarter,E2_D3
3644,Right,0,69,80,917.0,0.989583,Quarter,G4_C#4_A4
3647,Left,1,38,80,918.0,3.989583,Whole,D2
3648,Left,1,50,80,918.25,3.739583,Whole,D3
3649,Right,0,62,80,918.5,3.489583,DottedHalf,D4
3650,Right,0,66,80,918.75,3.239583,DottedHalf,F#4
3651,Right,0,69,80,919.0,2.989583,DottedHalf,A4
3652,Right,0,74,80,919.25,2.739583,DottedHalf,D5
3653,Right,0,76,80,924.0,0.114583,ThirtySecond,E5
3654,Right,0,74,80,924.125,0.354167,DottedSixteenth,D5
3655,Right,0,73,80,924.5,0.489583,Eighth,C#5
3656,Right,0,74,80,925.0,0.489583,Eighth,D5
3657,Right,0,76,80,925.5,0.489583,Eighth,E5
3658,Right,0,74,80,926.0,0.989583,Quarter,D5
3659,Right,0,54,80,927.0,0.989583,Quarter,F#3_D4_C4
3661,Left,1,50,80,927.0,0.989583,Quarter,D3_D2
3665,Right,0,64,80,928.0,0.989583,Quarter,G3_E4_C4
3664,Left,1,38,80,928.0,0.989583,Quarter,D3_D2
3672,Left,1,38,80,929.0,0.989583,Quarter,D3_D2
3669,Right,0,66,80,929.0,0.989583,Quarter,F#4_C4_A3
3675,Left,1,52,80,930.0,1.989583,Half,E3_E2
3674,Right,0,59,80,930.0,1.989583,Half,G4_G3_B3
3679,Right,0,71,80,936.0,0.489583,Eighth,B4
3680,Right,0,69,80,936.5,0.489583,Eighth,A4
3681,Right,0,62,80,937.0,0.989583,Quarter,G#4_D4
3683,Left,1,60,80,937.0,0.989583,Quarter,F#3_C4
3685,Right,0,69,80,937.5,0.489583,Eighth,A4
3686,Left,1,59,80,938.0,0.989583,Quarter,G3_B3
3687,Right,0,71,80,938.0,0.989583,Quarter,D4_B4
3690,Left,1,52,80,939.0,0.989583,Quarter,E3_B3
3691,Right,0,64,80,939.0,0.989583,Quarter,G4_E4
3694,Right,0,69,80,940.0,1.989583,Half,E4_C5_A4
3697,Left,1,48,80,940.0,1.989583,Half,C3_A3
3699,Left,1,38,80,942.0,3.989583,Whole,D3_D2
3701,Right,0,69,80,944.0,1.989583,Half,F#4_D4_A4
3704,Left,1,47,80,946.0,4.989583,Unknown,B2
3705,Left,1,50,80,946.25,4.739583,Unknown,D3
3706,Left,1,55,80,946.5,4.489583,Whole,G3
3707,Left,1,59,80,946.75,4.239583,Whole,B3
3708,Right,0,62,80,947.0,3.989583,Whole,D4
3709,Right,0,67,80,947.25,3.739583,Whole,G4
3710,Right,0,74,80,947.5,3.489583,DottedHalf,D5
3711,Right,0,71,80,952.0,0.489583,Eighth,B4
3712,Right,0,69,80,952.5,0.489583,Eighth,A4
3713,Right,0,68,80,953.0,0.989583,Eighth,G#4_D4
3715,Left,1,60,80,953.0,0.989583,Quarter,F#3_C4
3717,Right,0,69,80,953.5,0.489583,Eighth,A4
3718,Right,0,71,80,954.0,0.989583,Quarter,D4_B4
3720,Left,1,55,80,954.0,0.989583,Quarter,G3_B3
3722,Left,1,52,80,955.0,0.989583,Quarter,E3_B3
3724,Right,0,64,80,955.0,0.989583,Quarter,G4_E4
3726,Left,1,48,80,956.0,1.989583,Half,C3_A3
3728,Right,0,69,80,956.0,1.989583,Half,E4_C5_A4
3731,Left,1,38,80,958.0,2.989583,DottedHalf,D2
3732,Right,0,66,80,960.0,1.989583,Half,F#4_D4_A4
3735,Left,1,40,80,961.0,0.489583,Eighth,E2
3736,Left,1,42,80,961.5,0.489583,Eighth,F#2
3737,Left,1,43,80,962.0,0.989583,Quarter,G2
3738,Left,1,45,80,963.0,0.989583,Quarter,A2
3739,Left,1,47,80,964.0,0.989583,Quarter,B2
3740,Left,1,48,80,965.0,0.489583,Eighth,C3
3741,Left,1,47,80,965.5,0.489583,Eighth,B2
3742,Left,1,38,80,966.0,27.989583,Unknown,D2_A2
3744,Left,1,47,80,966.25,0.489583,Eighth,B2
3745,Left,1,45,80,966.5,0.489583,Eighth,A2
3746,Left,1,47,80,966.75,0.489583,Eighth,B2
3747,Left,1,45,80,967.0,0.489583,Eighth,A2
3748,Left,1,47,80,967.25,0.489583,Eighth,B2
3749,Left,1,45,80,967.5,0.489583,Eighth,A2
3750,Left,1,47,80,967.75,0.489583,Eighth,B2
3751,Left,1,45,80,968.0,0.489583,Eighth,A2
3752,Left,1,47,80,968.25,0.489583,Eighth,B2
3753,Left,1,45,80,968.5,0.489583,Eighth,A2
3754,Left,1,47,80,968.75,0.489583,Eighth,B2
3755,Left,1,45,80,969.0,0.489583,Eighth,A2
3756,Left,1,47,80,969.25,0.489583,Eighth,B2
3757,Left,1,45,80,969.5,0.489583,Eighth,A2
3758,Left,1,47,80,969.75,0.489583,Eighth,B2
3759,Left,1,45,80,970.0,0.489583,Eighth,A2
3760,Left,1,47,80,970.25,0.489583,Eighth,B2
3761,Left,1,45,80,970.5,0.489583,Eighth,A2
3762,Left,1,47,80,970.75,0.489583,Eighth,B2
3763,Left,1,45,80,971.0,0.489583,Eighth,A2
3764,Left,1,47,80,971.25,0.489583,Eighth,B2
3765,Left,1,45,80,971.5,0.489583,Eighth,A2
3766,Left,1,47,80,971.75,0.489583,Eighth,B2
3767,Left,1,45,80,972.0,0.489583,Eighth,A2
3768,Left,1,47,80,972.25,0.489583,Eighth,B2
3769,Left,1,45,80,972.5,0.489583,Eighth,A2
3770,Left,1,47,80,972.75,0.489583,Eighth,B2
3771,Left,1,45,80,973.0,0.489583,Eighth,A2
3772,Left,1,47,80,973.25,0.489583,Eighth,B2
3773,Left,1,45,80,973.5,0.489583,Eighth,A2
3774,Left,1,47,80,973.75,0.489583,Eighth,B2
3775,Left,1,45,80,974.0,0.489583,Eighth,A2
3776,Left,1,47,80,974.25,0.489583,Eighth,B2
3777,Left,1,45,80,974.5,0.489583,Eighth,A2
3778,Left,1,47,80,974.75,0.489583,Eighth,B2
3779,Left,1,45,80,975.0,0.489583,Eighth,A2
3780,Left,1,47,80,975.25,0.489583,Eighth,B2
3781,Left,1,45,80,975.5,0.489583,Eighth,A2
3782,Left,1,47,80,975.75,0.489583,Eighth,B2
3784,Right,0,88,110,976.0,0.489583,Eighth,E6
3783,Left,1,45,80,976.0,0.489583,Eighth,A2
3785,Left,1,47,80,976.25,0.489583,Eighth,B2
3786,Left,1,45,80,976.5,0.489583,Eighth,A2
3787,Right,0,86,110,976.5,0.489583,Eighth,D6
3788,Left,1,47,80,976.75,0.489583,Eighth,B2
3790,Right,0,85,110,977.0,0.489583,Eighth,C#6
3789,Left,1,45,80,977.0,0.489583,Eighth,A2
3791,Left,1,47,80,977.25,0.489583,Eighth,B2
3792,Left,1,45,80,977.5,0.489583,Eighth,A2
3793,Right,0,86,110,977.5,0.489583,Eighth,D6
3794,Left,1,47,80,977.75,0.489583,Eighth,B2
3795,Left,1,45,80,978.0,0.489583,Eighth,A2
3796,Right,0,76,110,978.0,0.989583,Eighth,F#4_E5
3798,Left,1,47,80,978.25,0.489583,Eighth,B2
3799,Left,1,45,80,978.5,0.489583,Eighth,A2
3800,Right,0,74,110,978.5,0.489583,Eighth,D5
3801,Left,1,47,80,978.75,0.489583,Eighth,B2
3802,Left,1,45,80,979.0,0.489583,Eighth,A2
3803,Right,0,73,110,979.0,0.489583,Eighth,C#5
3804,Left,1,47,80,979.25,0.489583,Eighth,B2
3805,Left,1,45,80,979.5,0.489583,Eighth,A2
3806,Right,0,74,110,979.5,0.489583,Eighth,D5
3807,Left,1,47,80,979.75,0.489583,Eighth,B2
3808,Left,1,45,80,980.0,0.489583,Eighth,A2
3809,Right,0,88,110,980.0,0.489583,Eighth,E6
3810,Left,1,47,80,980.25,0.489583,Eighth,B2
3811,Right,0,86,110,980.5,0.489583,Eighth,D6
3812,Left,1,45,80,980.5,0.489583,Eighth,A2
3813,Left,1,47,80,980.75,0.489583,Eighth,B2
3815,Right,0,85,110,981.0,0.489583,Eighth,C#6
3814,Left,1,45,80,981.0,0.489583,Eighth,A2
3816,Left,1,47,80,981.25,0.489583,Eighth,B2
3817,Right,0,86,110,981.5,0.489583,Eighth,D6
3818,Left,1,45,80,981.5,0.489583,Eighth,A2
3819,Left,1,47,80,981.75,0.489583,Eighth,B2
3820,Left,1,45,80,982.0,0.489583,Eighth,A2
3821,Right,0,76,110,982.0,0.989583,Eighth,F#4_E5
3823,Left,1,47,80,982.25,0.489583,Eighth,B2
3825,Left,1,45,80,982.5,0.489583,Eighth,A2
3824,Right,0,74,110,982.5,0.489583,Eighth,D5
3826,Left,1,47,80,982.75,0.489583,Eighth,B2
3827,Right,0,73,110,983.0,0.489583,Eighth,C#5
3828,Left,1,45,80,983.0,0.489583,Eighth,A2
3829,Left,1,47,80,983.25,0.489583,Eighth,B2
3830,Left,1,45,80,983.5,0.489583,Eighth,A2
3831,Right,0,74,110,983.5,0.489583,Eighth,D5
3832,Left,1,47,80,983.75,0.489583,Eighth,B2
3834,Left,1,45,80,984.0,0.489583,Eighth,A2
3833,Right,0,88,110,984.0,0.489583,Eighth,E6
3835,Left,1,47,80,984.25,0.489583,Eighth,B2
3837,Left,1,45,80,984.5,0.489583,Eighth,A2
3836,Right,0,86,110,984.5,0.489583,Eighth,D6
3838,Left,1,47,80,984.75,0.489583,Eighth,B2
3839,Right,0,85,110,985.0,0.489583,Eighth,C#6
3840,Left,1,45,80,985.0,0.489583,Eighth,A2
3841,Left,1,47,80,985.25,0.489583,Eighth,B2
3842,Left,1,45,80,985.5,0.489583,Eighth,A2
3843,Right,0,86,110,985.5,0.489583,Eighth,D6
3844,Left,1,47,80,985.75,0.489583,Eighth,B2
3845,Right,0,66,110,986.0,0.989583,Quarter,F#4_E5
3846,Left,1,45,80,986.0,0.489583,Eighth,A2
3848,Left,1,47,80,986.25,0.489583,Eighth,B2
3850,Left,1,45,80,986.5,0.489583,Eighth,A2
3849,Right,0,74,110,986.5,0.489583,Eighth,D5
3851,Left,1,47,80,986.75,0.489583,Eighth,B2
3852,Right,0,73,110,987.0,0.489583,Eighth,C#5
3853,Left,1,45,80,987.0,0.489583,Eighth,A2
3854,Left,1,47,80,987.25,0.489583,Eighth,B2
3856,Right,0,74,110,987.5,0.489583,Eighth,D5
3855,Left,1,45,80,987.5,0.489583,Eighth,A2
3857,Left,1,47,80,987.75,0.489583,Eighth,B2
3859,Right,0,66,110,988.0,0.989583,Quarter,F#4_E5
3858,Left,1,45,80,988.0,0.489583,Eighth,A2
3861,Left,1,47,80,988.25,0.489583,Eighth,B2
3863,Right,0,74,110,988.5,0.489583,Eighth,D5
3862,Left,1,45,80,988.5,0.489583,Eighth,A2
3864,Left,1,47,80,988.75,0.489583,Eighth,B2
3865,Left,1,45,80,989.0,0.489583,Eighth,A2
3866,Right,0,73,110,989.0,0.489583,Eighth,C#5
3867,Left,1,47,80,989.25,0.489583,Eighth,B2
3869,Right,0,74,110,989.5,0.489583,Eighth,D5
3868,Left,1,45,80,989.5,0.489583,Eighth,A2
3870,Left,1,47,80,989.75,0.489583,Eighth,B2
3872,Right,0,66,110,990.0,0.989583,Quarter,F#4_E5
3871,Left,1,45,80,990.0,0.489583,Eighth,A2
3874,Left,1,47,80,990.25,0.489583,Eighth,B2
3876,Left,1,45,80,990.5,0.489583,Eighth,A2
3875,Right,0,74,110,990.5,0.489583,Eighth,D5
3877,Left,1,47,80,990.75,0.489583,Eighth,B2
3879,Left,1,45,80,991.0,0.489583,Eighth,A2
3878,Right,0,73,110,991.0,0.489583,Eighth,C#5
3880,Left,1,47,80,991.25,0.489583,Eighth,B2
3882,Right,0,74,110,991.5,0.489583,Eighth,D5
3881,Left,1,45,80,991.5,0.489583,Eighth,A2
3883,Left,1,47,80,991.75,0.489583,Eighth,B2
3884,Right,0,66,110,992.0,0.989583,Quarter,F#4_E5
3886,Left,1,45,80,992.0,0.489583,Eighth,A2
3887,Left,1,47,80,992.25,0.489583,Eighth,B2
3889,Left,1,45,80,992.5,0.489583,Eighth,A2
3888,Right,0,74,110,992.5,0.489583,Eighth,D5
3890,Left,1,47,80,992.75,0.489583,Eighth,B2
3891,Right,0,73,110,993.0,0.489583,Eighth,C#5
3892,Left,1,45,80,993.0,0.489583,Eighth,A2
3893,Left,1,47,80,993.25,0.489583,Eighth,B2
3895,Right,0,74,110,993.5,0.489583,Eighth,D5
3894,Left,1,43,80,993.5,0.489583,Eighth,G2
3896,Left,1,45,80,993.75,0.489583,Eighth,A2
3897,Right,0,71,110,994.0,0.989583,Quarter,G4_B4
3899,Left,1,43,80,994.0,0.989583,Quarter,G2_G1
3901,Left,1,53,80,996.0,0.489583,Eighth,F3
3902,Left,1,51,80,996.5,0.489583,Eighth,D#3
3903,Left,1,50,80,997.0,0.489583,Eighth,D3
3904,Right,0,61,80,997.0,0.989583,Quarter,G3_C#4
3906,Left,1,51,80,997.5,0.489583,Eighth,D#3
3907,Right,0,62,80,998.0,0.989583,Quarter,F#3_D4
3909,Left,1,50,80,998.0,0.989583,Quarter,D3
3910,Right,0,76,80,1000.0,0.489583,Eighth,E5
3911,Right,0,74,80,1000.5,0.489583,Eighth,D5
3912,Left,1,66,80,1001.0,0.989583,Quarter,F#4_D4
3914,Right,0,73,80,1001.0,0.489583,Eighth,C#5
3915,Right,0,74,80,1001.5,0.489583,Eighth,D5
3918,Right,0,71,80,1002.0,0.989583,Quarter,B4
3916,Left,1,67,80,1002.0,0.989583,Quarter,G4_G3
3919,Left,1,53,80,1004.0,0.489583,Eighth,F3
3920,Left,1,51,80,1004.5,0.489583,Eighth,D#3
3922,Left,1,50,80,1005.0,0.489583,Eighth,D3
3921,Right,0,61,80,1005.0,0.989583,Quarter,G3_C#4
3924,Left,1,51,80,1005.5,0.489583,Eighth,D#3
3926,Right,0,62,80,1006.0,0.989583,Quarter,F#3_D4
3925,Left,1,50,80,1006.0,0.989583,Quarter,D3
3928,Right,0,88,80,1008.0,0.489583,Eighth,E6
3929,Right,0,86,80,1008.5,0.489583,Eighth,D6
3930,Right,0,85,80,1009.0,0.489583,Eighth,C#6
3931,Left,1,78,80,1009.0,0.989583,Quarter,F#5_D5
3933,Right,0,86,80,1009.5,0.489583,Eighth,D6
3934,Right,0,83,80,1010.0,0.989583,Quarter,B5
3935,Left,1,79,80,1010.0,0.989583,Quarter,G5_G4
3937,Left,1,53,80,1012.0,0.489583,Eighth,F3
3938,Left,1,51,81,1012.5,0.489583,Eighth,D#3
3939,Right,0,55,82,1013.0,0.989583,Quarter,G3_C#4
3941,Left,1,50,82,1013.0,0.489583,Eighth,D3
3942,Left,1,51,83,1013.5,0.489583,Eighth,D#3
3943,Left,1,53,84,1014.0,0.489583,Eighth,F3
3944,Left,1,51,85,1014.5,0.489583,Eighth,D#3
3947,Left,1,50,87,1015.0,0.489583,Eighth,D3
3945,Right,0,67,87,1015.0,0.989583,Quarter,G4_C#4
3948,Left,1,51,88,1015.5,0.489583,Eighth,D#3
3949,Left,1,53,89,1016.0,0.489583,Eighth,F3
3950,Left,1,51,90,1016.5,0.489583,Eighth,D#3
3953,Left,1,50,91,1017.0,0.489583,Eighth,D3
3951,Right,0,73,91,1017.0,0.989583,Quarter,G4_C#5
3954,Left,1,51,93,1017.5,0.489583,Eighth,D#3
3955,Left,1,53,94,1018.0,0.489583,Eighth,F3
3956,Left,1,51,95,1018.5,0.489583,Eighth,D#3
3958,Right,0,79,96,1019.0,0.989583,Quarter,G5_C#5
3957,Left,1,50,96,1019.0,0.489583,Eighth,D3
3960,Left,1,51,97,1019.5,0.489583,Eighth,D#3
3961,Left,1,53,98,1020.0,0.489583,Eighth,F3
3962,Left,1,51,100,1020.5,0.489583,Eighth,D#3
3965,Left,1,50,101,1021.0,0.489583,Eighth,D3
3963,Right,0,79,101,1021.0,0.989583,Quarter,G5_C#6
3966,Left,1,51,102,1021.5,0.489583,Eighth,D#3
3967,Left,1,53,103,1022.0,0.489583,Eighth,F3
3968,Left,1,51,104,1022.5,0.489583,Eighth,D#3
3969,Right,0,85,106,1023.0,0.989583,Quarter,G5_C#6
3971,Left,1,50,106,1023.0,0.489583,Eighth,D3
3972,Left,1,51,107,1023.5,0.489583,Eighth,D#3
3973,Left,1,53,108,1024.0,0.489583,Eighth,F3
3974,Left,1,51,109,1024.5,0.489583,Eighth,D#3
3975,Left,1,50,110,1025.0,0.489583,Eighth,D3
3976,Right,0,85,110,1025.0,0.989583,Quarter,G5_C#6
3978,Left,1,51,111,1025.5,0.489583,Eighth,D#3
3981,Right,0,88,110,1026.0,0.489583,Eighth,F#5_E6
3979,Left,1,38,110,1026.0,0.989583,Quarter,D3_D2
3983,Right,0,86,110,1026.5,0.489583,Eighth,D6
3984,Left,1,54,110,1027.0,1.989583,Half,F#3
3985,Right,0,85,110,1027.0,0.489583,Eighth,C#6
3986,Right,0,86,110,1027.5,0.489583,Eighth,D6
3987,Right,0,88,110,1028.0,0.489583,Eighth,E6
3988,Right,0,86,110,1028.5,0.489583,Eighth,D6
3989,Left,1,57,110,1029.0,1.989583,Half,A3
3990,Right,0,85,110,1029.0,0.489583,Eighth,C#6
3991,Right,0,86,110,1029.5,0.489583,Eighth,D6
3992,Right,0,88,110,1030.0,0.489583,Eighth,E6
3993,Right,0,86,110,1030.5,0.489583,Eighth,D6
3994,Right,0,85,110,1031.0,0.489583,Eighth,C#6
3995,Left,1,60,110,1031.0,1.989583,Half,C4
3996,Right,0,86,110,1031.5,0.489583,Eighth,D6
3997,Right,0,88,110,1032.0,0.489583,Eighth,E6
3998,Right,0,86,110,1032.5,0.489583,Eighth,D6
3999,Right,0,85,110,1033.0,0.489583,Eighth,C#6
4000,Left,1,66,110,1033.0,1.989583,Half,F#4
4001,Right,0,86,110,1033.5,0.489583,Eighth,D6
4002,Right,0,88,110,1034.0,0.489583,Eighth,E6
4003,Right,0,86,110,1034.5,0.489583,Eighth,D6
4005,Right,0,85,110,1035.0,0.489583,Eighth,C#6
4004,Left,1,69,110,1035.0,0.989583,Quarter,A4
4006,Right,0,86,110,1035.5,0.489583,Eighth,D6
4008,Right,0,88,110,1036.0,0.489583,Eighth,E6
4007,Left,1,72,110,1036.0,0.989583,Quarter,C5
4009,Right,0,86,110,1036.5,0.489583,Eighth,D6
4011,Left,1,78,110,1037.0,0.989583,Quarter,F#5
4010,Right,0,85,110,1037.0,0.489583,Eighth,C#6
4012,Right,0,86,110,1037.5,0.489583,Eighth,D6
4014,Left,1,81,110,1038.0,0.989583,Quarter,A5
4013,Right,0,88,110,1038.0,0.489583,Eighth,E6
4015,Right,0,86,110,1038.5,0.489583,Eighth,D6
4016,Right,0,85,110,1039.0,0.489583,Eighth,C#6
4017,Left,1,83,110,1039.0,0.989583,Quarter,B5
4018,Right,0,86,110,1039.5,0.489583,Eighth,D6
4020,Right,0,88,110,1040.0,0.489583,Eighth,E6
4019,Left,1,86,110,1040.0,0.989583,Quarter,D6
4021,Right,0,86,110,1040.5,0.489583,Eighth,D6
4022,Right,0,85,110,1041.0,0.489583,Eighth,C#6
4023,Left,1,78,110,1041.0,0.989583,Quarter,F#5
4024,Right,0,86,110,1041.5,0.489583,Eighth,D6
4025,Right,0,83,80,1042.0,0.989583,Quarter,B5
4026,Left,1,79,80,1042.0,0.989583,Quarter,G5
4027,Left,1,67,80,1043.0,0.989583,Quarter,G4
4028,Right,0,76,80,1044.0,0.489583,Eighth,E5
4029,Right,0,74,80,1044.5,0.489583,Eighth,D5
4030,Left,1,62,80,1045.0,0.989583,Quarter,D4
4031,Right,0,73,80,1045.0,0.489583,Eighth,C#5
4032,Right,0,74,80,1045.5,0.489583,Eighth,D5
4033,Right,0,71,80,1046.0,0.989583,Quarter,B4
4034,Left,1,55,80,1047.0,0.989583,Quarter,G3
4035,Right,0,64,80,1048.0,0.489583,Eighth,E4
4036,Right,0,62,80,1048.5,0.489583,Eighth,D4
4038,Left,1,50,80,1049.0,0.989583,Quarter,D3
4037,Right,0,61,80,1049.0,0.489583,Eighth,C#4
4039,Right,0,62,80,1049.5,0.489583,Eighth,D4
4040,Right,0,59,80,1050.0,0.989583,Quarter,B3
4041,Left,1,43,80,1051.0,0.989583,Quarter,G2
4042,Left,1,40,80,1052.0,0.489583,Eighth,E2
4043,Left,1,38,81,1052.5,0.489583,Eighth,D2
4044,Left,1,37,82,1053.0,0.489583,Eighth,C#2
4045,Left,1,38,83,1053.5,0.489583,Eighth,D2
4046,Left,1,40,85,1054.0,0.489583,Eighth,E2
4047,Left,1,38,86,1054.5,0.489583,Eighth,D2
4048,Left,1,37,87,1055.0,0.489583,Eighth,C#2
4049,Left,1,38,89,1055.5,0.489583,Eighth,D2
4050,Left,1,40,90,1056.0,0.489583,Eighth,E2
4051,Left,1,38,91,1056.5,0.489583,Eighth,D2
4052,Left,1,37,92,1057.0,0.489583,Eighth,C#2
4053,Left,1,38,94,1057.5,0.489583,Eighth,D2
4054,Left,1,40,95,1058.0,0.489583,Eighth,E2
4055,Left,1,38,96,1058.5,0.489583,Eighth,D2
4056,Left,1,37,98,1059.0,0.489583,Eighth,C#2
4057,Left,1,38,99,1059.5,0.489583,Eighth,D2
4058,Left,1,40,100,1060.0,0.489583,Eighth,E2
4059,Left,1,38,101,1060.5,0.489583,Eighth,D2
4060,Left,1,37,103,1061.0,0.489583,Eighth,C#2
4061,Left,1,38,104,1061.5,0.489583,Eighth,D2
4062,Left,1,40,105,1062.0,0.489583,Eighth,E2
4063,Left,1,38,107,1062.5,0.489583,Eighth,D2
4064,Left,1,37,108,1063.0,0.489583,Eighth,C#2
4065,Left,1,38,109,1063.5,0.489583,Eighth,D2
4066,Left,1,40,110,1064.0,0.489583,Eighth,E2
4067,Left,1,38,112,1064.5,0.489583,Eighth,D2
4068,Left,1,37,113,1065.0,0.489583,Eighth,C#2
4069,Left,1,38,114,1065.5,0.489583,Eighth,D2
4070,Left,1,40,116,1066.0,0.489583,Eighth,E2
4071,Left,1,38,117,1066.5,0.489583,Eighth,D2
4072,Left,1,37,118,1067.0,0.489583,Eighth,C#2
4073,Left,1,38,120,1067.5,0.489583,Eighth,D2
4074,Right,0,84,120,1068.0,0.989583,Quarter,F#5_C6_C5_A5
4078,Right,0,72,120,1069.0,0.989583,Quarter,F#5_C6_C5_A5
4082,Left,1,40,120,1070.0,0.489583,Eighth,E2
4083,Left,1,38,120,1070.5,0.489583,Eighth,D2
4084,Left,1,37,120,1071.0,0.489583,Eighth,C#2
4085,Left,1,38,120,1071.5,0.489583,Eighth,D2
4086,Right,0,66,120,1072.0,0.989583,Quarter,F#5_F#4_C5
4089,Right,0,78,120,1073.0,0.989583,Quarter,F#5_F#4_C5
4092,Left,1,31,120,1074.0,0.989583,Quarter,G2_G1
4094,Left,1,31,120,1075.0,0.989583,Quarter,G2_G1
4096,Right,0,79,120,1076.0,0.989583,Quarter,G5_G4_D5_B4
4100,Right,0,67,120,1077.0,0.989583,Quarter,G5_G4_D5_B4
4104,Left,1,31,120,1082.0,0.989583,Quarter,G2_G1
4106,Left,1,31,120,1083.0,0.989583,Quarter,G2_G1
4108,Right,0,71,120,1084.0,0.989583,Quarter,G4_D5_D4_B4
4112,Right,0,74,120,1085.0,0.989583,Quarter,G4_D5_D4_B4
4116,Left,1,31,80,1090.0,0.989583,Quarter,G2_G1
4118,Right,0,59,80,1092.0,0.989583,Quarter,G4_D4_B4_B3
4122,Left,1,31,80,1094.0,0.989583,Quarter,G2_G1
4124,Right,0,50,77,1096.0,0.989583,Quarter,G3_D4_D3_B3
4128,Left,1,43,74,1098.0,0.989583,Quarter,G2_G1
4130,Right,0,50,71,1100.0,0.989583,Quarter,G3_D3_B3_B2
4134,Left,1,43,71,1100.0,0.989583,Quarter,G2_G1
4136,Right,0,55,1,1105.0,0.989583,Quarter,G3
