,hand,channel,note,velocity,start_beat,duration,note_value,chord
1,Left,1,41,80,0.0,5.979167,DottedHalf,F2_D3_D2_A2
0,Right,0,62,80,0.0,5.979167,DottedHalf,F3_D4_A3
7,Right,0,61,80,1.0,0.979167,Eighth,C#4
8,Right,0,62,80,2.0,0.979167,Eighth,D4
9,Right,0,65,80,3.0,0.979167,Eighth,F4
10,Right,0,61,80,4.0,0.979167,Eighth,C#4
11,Right,0,62,80,5.0,0.979167,Eighth,D4
13,Left,1,50,80,6.0,5.979167,DottedHalf,G2_D3_D2_A#2
12,Right,0,55,80,6.0,5.979167,DottedHalf,G3_D4_A#3
19,Right,0,61,80,7.0,0.979167,Eighth,C#4
20,Right,0,62,80,8.0,0.979167,Eighth,D4
21,Right,0,67,80,9.0,0.979167,Eighth,G4
22,Right,0,61,80,10.0,0.979167,Eighth,C#4
23,Right,0,62,80,11.0,0.979167,Eighth,D4
26,Right,0,55,80,12.0,1.979167,Quarter,G3_F4_A#3
24,Left,1,37,80,12.0,1.979167,Quarter,C#3_C#2
29,Right,0,64,80,13.0,0.979167,Eighth,E4
30,Left,1,50,80,14.0,0.979167,Eighth,D3_D2
31,Right,0,55,80,14.0,0.979167,Eighth,G3_D4_A#3
35,Left,1,52,80,15.0,1.979167,Quarter,E3_E2
36,Right,0,61,80,15.0,1.979167,Quarter,G3_C#4_A#3
40,Left,1,50,80,17.0,0.979167,Eighth,D3_D2
41,Right,0,55,80,17.0,0.979167,Eighth,G3_D4_A#3
47,Right,0,58,80,18.0,1.979167,Quarter,G3_F4_A#3
45,Left,1,49,80,18.0,1.979167,Quarter,C#3_C#2
50,Right,0,64,83,19.0,0.979167,Eighth,E4
51,Left,1,50,86,20.0,0.979167,Eighth,D3_C3
53,Right,0,57,86,20.0,0.979167,Eighth,F#4_D4_A3
58,Right,0,67,89,21.0,1.979167,Quarter,G4_D4
56,Left,1,50,89,21.0,1.979167,Quarter,D3_A#2
60,Right,0,69,96,23.0,0.979167,Eighth,D4_C4_A4
61,Left,1,50,96,23.0,0.979167,Eighth,F2_F#3_D3
66,Left,1,55,99,24.0,1.979167,Quarter,G3_G2_D3
69,Right,0,62,99,24.0,0.979167,Eighth,D4_A#4_A#3
72,Right,0,70,80,25.0,0.979167,Eighth,A#4
73,Right,0,70,80,26.0,0.979167,Eighth,A#4
74,Right,0,70,80,27.0,0.979167,Eighth,A#4
75,Right,0,70,80,28.0,0.979167,Eighth,A#4
76,Right,0,70,80,29.0,0.979167,Eighth,A#4
77,Right,0,67,80,30.0,1.979167,Quarter,G4_E5_C#5_A#4
78,Left,1,55,80,30.0,1.979167,Quarter,G3_E4_C#4_A#3
85,Right,0,75,80,31.0,0.979167,Eighth,D#5
86,Left,1,63,80,31.0,0.979167,Eighth,D#4
88,Right,0,73,80,32.0,0.979167,Eighth,G4_E5_C#5_A#4
87,Left,1,64,80,32.0,0.979167,Eighth,G3_E4_C#4_A#3
98,Right,0,67,80,33.0,1.979167,Quarter,G5_G4_C#5_A#4
95,Left,1,61,80,33.0,1.979167,Quarter,G3_E4_C#4_A#3
103,Right,0,75,80,34.0,0.979167,Eighth,D#5
104,Left,1,63,80,34.0,0.979167,Eighth,D#4
109,Right,0,73,80,35.0,0.979167,Eighth,G4_E5_C#5_A#4
105,Left,1,55,80,35.0,0.979167,Eighth,G3_E4_C#4_A#3
113,Left,1,64,80,36.0,1.979167,Quarter,G#3_E4_D4_B3
114,Right,0,74,80,36.0,1.979167,Quarter,G#4_E5_D5_B4
121,Right,0,77,80,37.0,0.979167,Eighth,F5
122,Left,1,65,80,37.0,0.979167,Eighth,F4
127,Right,0,68,80,38.0,0.979167,Eighth,G#4_F5_D5_B4
123,Left,1,56,80,38.0,0.979167,Eighth,G#3_F4_D4_B3
131,Left,1,56,80,39.0,1.979167,Quarter,G#3
132,Left,1,59,80,39.125,1.854167,Quarter,B3
133,Left,1,62,80,39.25,1.729167,DottedEighth,D4
134,Left,1,65,80,39.375,1.604167,DottedEighth,F4
135,Right,0,68,80,39.5,1.479167,DottedEighth,G#4
136,Right,0,71,80,39.625,1.354167,DottedEighth,B4
137,Right,0,74,80,39.75,1.229167,Eighth,D5
138,Right,0,77,80,39.875,1.104167,Eighth,F5
139,Left,1,64,80,41.0,0.729167,DottedSixteenth,E4
140,Right,0,76,80,41.0,0.729167,DottedSixteenth,E5
141,Left,1,62,80,41.75,0.229167,ThirtySecond,D4
142,Right,0,74,80,41.75,0.229167,ThirtySecond,D5
143,Left,1,57,80,42.0,1.979167,Quarter,F4_D4_A3
145,Right,0,74,80,42.0,0.979167,Eighth,D5
147,Right,0,69,80,43.0,0.979167,Eighth,A4
148,Right,0,69,80,44.0,0.979167,Eighth,A4
151,Right,0,69,80,45.0,0.979167,Eighth,A4
149,Left,1,45,80,45.0,1.979167,Quarter,G3_E3_A2
153,Right,0,61,80,46.0,0.979167,Eighth,C#4
154,Right,0,61,80,47.0,0.979167,Eighth,C#4
155,Right,0,62,80,48.0,1.979167,Quarter,D4
156,Left,1,50,80,48.0,0.479167,Sixteenth,D3
157,Left,1,57,80,48.5,0.479167,Sixteenth,A3
158,Left,1,53,80,49.0,0.479167,Sixteenth,F3
159,Left,1,57,80,49.5,0.479167,Sixteenth,A3
160,Left,1,50,80,50.0,0.479167,Sixteenth,D3
161,Left,1,57,80,50.5,0.479167,Sixteenth,A3
162,Left,1,49,80,51.0,0.479167,Sixteenth,C#3
163,Right,0,69,80,51.0,0.229167,ThirtySecond,A4
164,Right,0,81,98,51.239583,1.239583,Eighth,A5
165,Left,1,57,80,51.5,0.479167,Sixteenth,A3
166,Left,1,52,80,52.0,0.479167,Sixteenth,E3
167,Left,1,57,80,52.5,0.479167,Sixteenth,A3
168,Right,0,79,80,52.5,0.479167,Sixteenth,G5
169,Left,1,49,80,53.0,0.479167,Sixteenth,C#3
170,Right,0,77,80,53.0,0.479167,Sixteenth,F5
171,Left,1,57,80,53.5,0.479167,Sixteenth,A3
172,Right,0,76,80,53.5,0.479167,Sixteenth,E5
173,Left,1,50,80,54.0,0.479167,Sixteenth,D3
174,Right,0,79,80,54.0,0.729167,DottedSixteenth,G5
175,Left,1,57,80,54.5,0.479167,Sixteenth,A3
176,Right,0,77,80,54.75,0.229167,ThirtySecond,F5
177,Left,1,53,80,55.0,0.479167,Sixteenth,F3
178,Right,0,77,80,55.0,1.229167,Eighth,F5
179,Left,1,57,80,55.5,0.479167,Sixteenth,A3
180,Left,1,50,80,56.0,0.479167,Sixteenth,D3
181,Right,0,79,80,56.25,0.104167,SixtyFourth,G5
182,Right,0,77,80,56.375,0.104167,SixtyFourth,F5
184,Right,0,76,80,56.5,0.354167,TripletSixteenth,E5
183,Left,1,57,80,56.5,0.479167,Sixteenth,A3
185,Right,0,74,80,56.875,0.104167,SixtyFourth,D5
187,Right,0,74,80,57.0,0.479167,Sixteenth,D5
186,Left,1,45,80,57.0,0.479167,Sixteenth,A2
189,Left,1,57,80,57.5,0.479167,Sixteenth,A3
188,Right,0,73,80,57.5,0.479167,Sixteenth,C#5
190,Left,1,56,80,58.0,0.479167,Sixteenth,G#3
191,Right,0,73,80,58.0,0.979167,Eighth,C#5
192,Left,1,57,80,58.5,0.479167,Sixteenth,A3
194,Left,1,55,80,59.0,0.479167,Sixteenth,G3
193,Right,0,73,80,59.0,0.979167,Eighth,C#5
195,Left,1,57,80,59.5,0.479167,Sixteenth,A3
197,Left,1,53,80,60.0,0.479167,Sixteenth,F3
196,Right,0,74,80,60.0,0.229167,ThirtySecond,D5
198,Right,0,76,80,60.25,0.0625,TripletSixtyFourth,E5
199,Right,0,74,80,60.333333,0.0625,TripletSixtyFourth,D5
200,Right,0,73,80,60.416667,0.0625,TripletSixtyFourth,C#5
201,Right,0,74,80,60.5,0.229167,ThirtySecond,D5
202,Left,1,57,80,60.5,0.479167,Sixteenth,A3
203,Right,0,76,80,60.75,0.229167,ThirtySecond,E5
204,Left,1,62,80,60.916667,0.479167,Sixteenth,D4
205,Right,0,77,80,61.0,0.979167,Eighth,F5
206,Left,1,57,80,61.5,0.479167,Sixteenth,A3
207,Left,1,53,80,62.0,0.479167,Sixteenth,F3
208,Right,0,69,80,62.5,0.479167,Sixteenth,A4
209,Left,1,50,80,62.5,0.479167,Sixteenth,D3
210,Right,0,69,80,63.0,0.229167,ThirtySecond,A4
211,Left,1,49,80,63.0,0.479167,Sixteenth,C#3
212,Right,0,81,99,63.239583,1.239583,Eighth,A5
213,Left,1,57,80,63.5,0.479167,Sixteenth,A3
214,Left,1,52,80,64.0,0.479167,Sixteenth,E3
216,Right,0,79,80,64.5,0.479167,Sixteenth,G5
215,Left,1,57,80,64.5,0.479167,Sixteenth,A3
217,Left,1,55,80,65.0,0.479167,Sixteenth,G3
218,Right,0,77,80,65.0,0.479167,Sixteenth,F5
219,Left,1,57,80,65.5,0.479167,Sixteenth,A3
220,Right,0,76,80,65.5,0.479167,Sixteenth,E5
222,Left,1,50,80,66.0,0.479167,Sixteenth,D3
221,Right,0,79,80,66.0,0.729167,DottedSixteenth,G5
223,Left,1,57,80,66.5,0.479167,Sixteenth,A3
224,Right,0,77,80,66.75,0.229167,ThirtySecond,F5
225,Right,0,77,80,67.0,1.479167,DottedEighth,F5
226,Left,1,56,80,67.0,0.479167,Sixteenth,G#3
227,Left,1,57,80,67.5,0.479167,Sixteenth,A3
228,Left,1,48,80,68.0,0.479167,Sixteenth,C3
229,Left,1,57,80,68.5,0.479167,Sixteenth,A3
230,Right,0,78,80,68.5,0.479167,Sixteenth,F#5
232,Left,1,47,80,69.0,0.479167,Sixteenth,B2
231,Right,0,67,80,69.0,0.229167,ThirtySecond,G4
233,Right,0,79,80,69.239583,1.239583,Eighth,G5
234,Left,1,55,80,69.5,0.479167,Sixteenth,G3
235,Left,1,50,80,70.0,0.479167,Sixteenth,D3
237,Left,1,55,80,70.5,0.479167,Sixteenth,G3
236,Right,0,77,80,70.5,0.479167,Sixteenth,F5
239,Right,0,76,80,71.0,0.479167,Sixteenth,E5
238,Left,1,53,80,71.0,0.479167,Sixteenth,F3
240,Right,0,74,80,71.5,0.479167,Sixteenth,D5
241,Left,1,55,80,71.5,0.479167,Sixteenth,G3
242,Right,0,77,80,72.0,0.979167,Eighth,F5
243,Left,1,48,80,72.0,0.479167,Sixteenth,C3
244,Left,1,55,80,72.5,0.479167,Sixteenth,G3
246,Left,1,60,80,73.0,0.479167,Sixteenth,C4
245,Right,0,76,80,73.0,0.979167,Eighth,E5
247,Left,1,59,80,73.5,0.479167,Sixteenth,B3
248,Left,1,57,80,74.0,0.479167,Sixteenth,A3
249,Left,1,55,80,74.5,0.479167,Sixteenth,G3
250,Left,1,54,80,75.0,2.979167,DottedQuarter,F#3
251,Left,1,62,80,75.5,0.479167,Sixteenth,D4
253,Right,0,74,80,76.0,0.979167,Eighth,D5_C5
252,Left,1,57,80,76.0,0.479167,Sixteenth,A3
255,Left,1,62,80,76.5,0.479167,Sixteenth,D4
256,Left,1,60,80,77.0,0.479167,Sixteenth,C4
257,Right,0,74,80,77.0,0.979167,Eighth,D5_C5
259,Left,1,62,80,77.5,0.479167,Sixteenth,D4
261,Left,1,55,80,78.0,1.979167,Quarter,G3
260,Right,0,72,80,78.0,2.979167,DottedQuarter,E5_C5
263,Left,1,64,82,78.5,0.479167,Sixteenth,E4
264,Left,1,60,84,79.0,0.479167,Sixteenth,C4
265,Left,1,64,87,79.5,0.479167,Sixteenth,E4
266,Right,0,77,87,79.5,0.229167,ThirtySecond,F5
267,Right,0,76,88,79.75,0.229167,ThirtySecond,E5
269,Left,1,55,89,80.0,0.979167,Eighth,G3
268,Right,0,74,89,80.0,0.729167,DottedSixteenth,D5
270,Left,1,64,92,80.5,0.479167,Sixteenth,E4
271,Right,0,76,93,80.75,0.229167,ThirtySecond,E5
272,Right,0,79,94,81.0,2.979167,DottedEighth,G5_B4
274,Left,1,55,94,81.0,1.979167,Quarter,G3
275,Left,1,65,97,81.5,0.479167,Sixteenth,F4
276,Left,1,62,99,82.0,0.479167,Sixteenth,D4
277,Left,1,65,100,82.5,0.479167,Sixteenth,F4
278,Right,0,77,100,82.5,0.479167,Sixteenth,F5
280,Left,1,55,91,83.0,0.979167,Eighth,G3
279,Right,0,76,91,83.0,0.479167,Sixteenth,E5
281,Right,0,74,81,83.5,0.479167,Sixteenth,D5
282,Left,1,65,81,83.5,0.479167,Sixteenth,F4
283,Right,0,75,80,84.0,0.979167,Sixteenth,D#5_C5
285,Left,1,48,80,84.0,0.479167,Sixteenth,C3
287,Right,0,76,82,84.5,0.479167,Sixteenth,E5
286,Left,1,60,82,84.5,0.479167,Sixteenth,C4
288,Left,1,45,85,85.0,0.479167,Sixteenth,A2
289,Left,1,57,88,85.5,0.479167,Sixteenth,A3
290,Left,1,43,90,86.0,0.479167,Sixteenth,G2
291,Left,1,55,93,86.5,0.479167,Sixteenth,G3
292,Left,1,42,96,87.0,1.979167,Quarter,F#2
293,Left,1,54,99,87.5,0.479167,Sixteenth,F#3
294,Right,0,86,101,88.0,0.979167,Eighth,D6_D5_C6
297,Left,1,45,101,88.0,0.479167,Sixteenth,A2
298,Left,1,54,104,88.5,0.479167,Sixteenth,F#3
302,Left,1,42,107,89.0,0.979167,Eighth,F#2
299,Right,0,74,107,89.0,0.979167,Eighth,D6_D5_C6
303,Left,1,54,109,89.5,0.479167,Sixteenth,F#3
304,Right,0,76,110,90.0,0.229167,ThirtySecond,E5
305,Left,1,43,110,90.0,2.979167,DottedQuarter,G2
306,Right,0,88,109,90.25,0.979167,Eighth,E6
307,Left,1,55,107,90.5,0.479167,Sixteenth,G3
308,Left,1,48,103,91.0,0.479167,Sixteenth,C3
309,Right,0,84,101,91.25,0.229167,ThirtySecond,C6
310,Right,0,79,100,91.5,0.229167,ThirtySecond,G5
311,Left,1,55,100,91.5,0.479167,Sixteenth,G3
312,Right,0,76,98,91.75,0.229167,ThirtySecond,E5
313,Left,1,52,96,92.0,0.479167,Sixteenth,E3
314,Right,0,72,96,92.0,0.229167,ThirtySecond,C5
315,Right,0,67,94,92.25,0.229167,ThirtySecond,G4
317,Left,1,55,92,92.5,0.479167,Sixteenth,G3
316,Right,0,64,92,92.5,0.229167,ThirtySecond,E4
318,Right,0,60,91,92.75,0.229167,ThirtySecond,C4
321,Left,1,43,80,93.0,1.979167,Quarter,G2
319,Right,0,59,80,93.0,1.979167,Quarter,G4_B3
322,Left,1,55,80,93.5,0.479167,Sixteenth,G3
323,Left,1,50,80,94.0,0.479167,Sixteenth,D3
325,Left,1,55,80,94.5,0.479167,Sixteenth,G3
324,Right,0,65,80,94.5,0.479167,Sixteenth,F4
328,Left,1,43,80,95.0,0.979167,Eighth,G2_F3
326,Right,0,62,80,95.0,0.979167,Sixteenth,D4_B3
331,Left,1,55,80,95.5,0.479167,Sixteenth,G3
330,Right,0,67,80,95.5,0.479167,Sixteenth,G4
332,Left,1,52,80,96.0,1.979167,Quarter,E3_C3
333,Right,0,60,80,96.0,1.979167,Quarter,C4
335,Right,0,60,80,98.0,0.729167,DottedSixteenth,C4
336,Right,0,72,80,98.75,0.229167,ThirtySecond,C5
339,Left,1,57,80,99.0,2.979167,Quarter,F3_A3
337,Right,0,63,80,99.0,1.979167,Quarter,D#4_C5
342,Left,1,59,80,101.0,0.479167,Sixteenth,B3
341,Right,0,71,80,101.0,0.979167,Sixteenth,D#4_B4
345,Left,1,60,80,101.5,0.479167,Sixteenth,C4
344,Right,0,69,80,101.5,0.479167,Sixteenth,A4
346,Right,0,64,80,102.0,1.979167,Quarter,E4_A4
348,Left,1,60,80,102.0,1.979167,Eighth,E3_C4
350,Left,1,59,80,103.0,0.979167,Eighth,B3
351,Right,0,68,80,103.0,0.979167,Eighth,G#4
352,Right,0,69,80,104.0,0.229167,ThirtySecond,A4
353,Right,0,71,80,104.25,0.0625,TripletSixtyFourth,B4
354,Right,0,69,80,104.333333,0.0625,TripletSixtyFourth,A4
355,Right,0,68,80,104.416667,0.0625,TripletSixtyFourth,G#4
356,Right,0,69,80,104.5,0.229167,ThirtySecond,A4
357,Right,0,71,80,104.75,0.229167,ThirtySecond,B4
358,Right,0,72,80,105.0,1.979167,Eighth,D#4_C5
360,Left,1,57,80,105.0,2.979167,DottedEighth,F3_A3
362,Right,0,71,80,106.0,0.229167,ThirtySecond,B4
363,Right,0,72,80,106.25,0.229167,ThirtySecond,C5
364,Right,0,71,80,106.5,0.229167,ThirtySecond,B4
365,Left,1,56,80,106.5,0.229167,ThirtySecond,G#3
367,Right,0,72,80,106.75,0.229167,ThirtySecond,C5
366,Left,1,57,80,106.75,0.229167,ThirtySecond,A3
369,Right,0,63,80,107.0,0.979167,Eighth,D5_D#4
368,Left,1,56,80,107.0,0.229167,ThirtySecond,G#3
372,Right,0,72,80,107.25,0.229167,ThirtySecond,C5
371,Left,1,57,80,107.25,0.229167,ThirtySecond,A3
374,Right,0,71,80,107.5,0.229167,ThirtySecond,B4
373,Left,1,59,80,107.5,0.229167,ThirtySecond,B3
375,Right,0,69,80,107.75,0.229167,ThirtySecond,A4
376,Left,1,60,80,107.75,0.229167,ThirtySecond,C4
377,Left,1,60,80,108.0,1.979167,Eighth,E3_C4
379,Right,0,64,80,108.0,1.979167,Quarter,E4_A4
381,Left,1,59,80,109.0,0.979167,Eighth,B3
382,Right,0,68,80,109.0,0.979167,Eighth,G#4
383,Right,0,68,80,110.5,0.479167,Sixteenth,G#4
388,Left,1,50,110,111.0,1.479167,DottedEighth,G#3_D3_A#3
384,Right,0,77,110,111.0,1.479167,DottedEighth,G#4_F5_F4_B4
392,Right,0,76,110,112.5,0.479167,Sixteenth,G#4_E5_E4_B4
391,Left,1,52,110,112.5,0.479167,Sixteenth,G#3_E3_A#3
400,Left,1,58,110,113.0,0.479167,Sixteenth,G#3_F3_A#3
398,Right,0,68,110,113.0,0.479167,Sixteenth,G#4_D5_D4_B4
405,Left,1,58,110,113.5,0.479167,Sixteenth,D3_B2_A#3
406,Right,0,68,110,113.5,0.479167,Sixteenth,G#4_F5_F4
411,Right,0,76,110,114.0,0.979167,Eighth,E5_E4_A4
412,Left,1,48,110,114.0,0.979167,Eighth,E3_C4_C3
419,Right,0,71,80,116.0,0.979167,Eighth,F4_B4_A4
417,Left,1,57,80,116.0,0.979167,Eighth,D3_B3_A3
426,Left,1,52,80,117.0,0.979167,Eighth,E3_C4_A3
423,Right,0,72,80,117.0,0.979167,Eighth,E4_C5_A4
429,Right,0,59,80,119.0,0.979167,Eighth,G#4_E4_D4_B3
430,Left,1,52,80,119.0,0.979167,Eighth,E3_E2
435,Left,1,45,80,120.0,1.979167,Quarter,A2
436,Right,0,60,80,120.0,1.979167,Quarter,E4_C4_A4
439,Left,1,45,110,122.0,0.979167,Eighth,A2
440,Left,1,41,110,123.0,2.979167,DottedQuarter,F2_C3
444,Left,1,47,110,125.0,0.479167,Sixteenth,B2
442,Right,0,63,110,125.0,0.979167,Eighth,D#4_D#3
445,Left,1,45,110,125.5,0.479167,Sixteenth,A2
447,Left,1,45,110,126.0,1.979167,Eighth,E2_A2
446,Right,0,64,110,126.0,0.479167,Sixteenth,E4_E3
450,Right,0,76,110,126.5,0.979167,Eighth,E5_E4
452,Left,1,44,110,127.0,0.979167,Eighth,G#2
453,Right,0,74,110,127.5,0.479167,Sixteenth,D5_D4
455,Right,0,72,110,128.0,0.479167,Sixteenth,C5_C4
457,Right,0,71,110,128.5,0.479167,Sixteenth,B4_B3
459,Left,1,45,120,128.75,0.229167,ThirtySecond,A2
460,Right,0,69,120,129.0,1.979167,Quarter,A4_A3
461,Left,1,48,120,129.0,2.979167,Eighth,F2_C3
464,Left,1,47,120,130.0,0.229167,ThirtySecond,B2
465,Left,1,48,120,130.25,0.229167,ThirtySecond,C3
466,Left,1,47,120,130.5,0.229167,ThirtySecond,B2
467,Left,1,48,120,130.75,0.229167,ThirtySecond,C3
468,Left,1,50,120,131.0,0.229167,ThirtySecond,D3
469,Left,1,48,120,131.25,0.229167,ThirtySecond,C3
471,Left,1,47,120,131.5,0.229167,ThirtySecond,B2
470,Right,0,63,120,131.5,0.479167,Sixteenth,D#4_D#3
473,Left,1,45,120,131.75,0.229167,ThirtySecond,A2
476,Left,1,40,120,132.0,1.979167,Quarter,E2_A2
474,Right,0,52,120,132.0,0.479167,Sixteenth,E4_E3
478,Right,0,64,120,132.5,0.979167,Eighth,E5_E4
480,Left,1,44,120,133.0,0.979167,Eighth,G#2
481,Right,0,75,120,133.5,0.229167,ThirtySecond,D#5
482,Right,0,76,120,133.75,0.229167,ThirtySecond,E5
483,Right,0,75,120,134.0,0.229167,ThirtySecond,D#5
484,Right,0,76,120,134.25,0.229167,ThirtySecond,E5
485,Right,0,75,120,134.5,0.229167,ThirtySecond,D#5
486,Right,0,76,120,134.75,0.229167,ThirtySecond,E5
487,Right,0,65,120,135.0,2.979167,DottedEighth,G#4_F5_F4_B4
489,Left,1,50,120,135.0,2.979167,DottedQuarter,G#3_D3_B3
494,Left,1,52,80,136.5,0.479167,Sixteenth,E3
495,Right,0,64,80,136.5,0.479167,Sixteenth,E5_E4
497,Left,1,53,80,137.0,0.479167,Sixteenth,F3
498,Right,0,74,80,137.0,0.479167,Sixteenth,D5_D4
501,Left,1,47,80,137.5,0.479167,Sixteenth,B2
500,Right,0,65,80,137.5,0.479167,Sixteenth,F5_F4
503,Right,0,70,120,138.0,2.979167,DottedEighth,E5_C#5_A#5_A#4
505,Left,1,55,120,138.0,2.979167,DottedQuarter,G3_E4_C#4
510,Right,0,81,80,139.5,0.479167,Sixteenth,A5_A4
512,Left,1,57,80,139.5,0.479167,Sixteenth,A3
514,Right,0,79,80,140.0,0.479167,Sixteenth,G5_G4
513,Left,1,58,80,140.0,0.479167,Sixteenth,A#3
516,Left,1,52,80,140.5,0.479167,Sixteenth,E3
517,Right,0,82,80,140.5,0.479167,Sixteenth,A#5_A#4
519,Left,1,69,120,141.0,2.979167,DottedQuarter,D#4_A4
521,Right,0,78,120,141.0,2.979167,DottedQuarter,F#5_D#5_C6_C5
526,Right,0,83,80,142.5,0.479167,Sixteenth,B5
525,Left,1,64,80,142.5,0.479167,Sixteenth,E4
527,Left,1,66,80,143.0,0.479167,Sixteenth,F#4
528,Right,0,81,80,143.0,0.479167,Sixteenth,A5
529,Left,1,63,80,143.5,0.479167,Sixteenth,D#4
530,Right,0,84,80,143.5,0.479167,Sixteenth,C6
531,Right,0,80,80,144.0,0.979167,Eighth,G#5_F5_D5_B4
532,Left,1,62,80,144.0,0.979167,Eighth,G#4_F4_D4
539,Right,0,69,80,146.0,0.979167,Eighth,E5_C5_A5_A4
538,Left,1,60,80,146.0,0.979167,Eighth,E4_C4
544,Right,0,77,80,147.0,0.979167,Eighth,F5_F4_B4_A4
548,Left,1,50,80,147.0,0.979167,Eighth,D4_D3
550,Left,1,59,80,149.0,0.979167,Eighth,E3_B3
552,Right,0,68,80,149.0,0.979167,Eighth,G#4_E5_E4
556,Right,0,69,80,150.0,1.979167,Quarter,A4
555,Left,1,45,80,150.0,0.479167,Sixteenth,A2
557,Left,1,48,80,150.5,0.479167,Sixteenth,C3
558,Left,1,52,80,151.0,0.479167,Sixteenth,E3
559,Left,1,48,80,151.5,0.479167,Sixteenth,C3
560,Left,1,47,80,152.0,0.479167,Sixteenth,B2
561,Left,1,45,80,152.5,0.479167,Sixteenth,A2
562,Left,1,44,80,153.0,0.479167,Sixteenth,G#2
563,Left,1,47,80,153.5,0.479167,Sixteenth,B2
564,Left,1,52,80,154.0,0.479167,Sixteenth,E3
565,Right,0,76,80,154.0,0.979167,Eighth,E5
566,Left,1,50,80,154.5,0.479167,Sixteenth,D3
568,Right,0,76,80,155.0,0.979167,Eighth,E5
567,Left,1,48,80,155.0,0.479167,Sixteenth,C3
569,Left,1,47,80,155.5,0.479167,Sixteenth,B2
570,Left,1,45,80,156.0,0.479167,Sixteenth,A2
571,Right,0,76,80,156.0,1.729167,DottedEighth,E5
572,Left,1,56,80,156.5,0.479167,Sixteenth,G#3
573,Left,1,57,80,157.0,2.479167,TiedQuarter-Sixteenth,A3
574,Left,1,55,80,157.5,0.479167,Sixteenth,G3
575,Right,0,77,80,157.75,0.104167,SixtyFourth,F5
576,Right,0,76,80,157.875,0.104167,SixtyFourth,E5
578,Right,0,74,80,158.0,0.729167,DottedSixteenth,D5
577,Left,1,53,80,158.0,0.479167,Sixteenth,F3
579,Left,1,52,80,158.5,0.479167,Sixteenth,E3
580,Right,0,76,80,158.75,0.229167,ThirtySecond,E5
582,Right,0,74,80,159.0,0.104167,SixtyFourth,D5
581,Left,1,50,80,159.0,2.979167,DottedQuarter,D3
583,Right,0,76,80,159.125,0.104167,SixtyFourth,E5
584,Right,0,77,80,159.25,1.729167,DottedEighth,F5
585,Left,1,57,80,159.5,0.479167,Sixteenth,A3
586,Left,1,62,80,160.0,0.479167,Sixteenth,D4
587,Left,1,61,80,160.5,0.479167,Sixteenth,C#4
589,Right,0,76,80,161.0,0.479167,Sixteenth,E5
588,Left,1,60,80,161.0,0.479167,Sixteenth,C4
590,Left,1,59,80,161.5,0.479167,Sixteenth,B3
591,Right,0,74,80,161.5,0.479167,Sixteenth,D5
592,Right,0,72,80,162.0,1.729167,DottedEighth,C5
593,Left,1,52,80,162.0,4.979167,Half,E3
594,Left,1,57,80,162.5,0.479167,Sixteenth,A3
595,Left,1,64,80,163.0,0.479167,Sixteenth,E4
596,Left,1,63,80,163.5,0.479167,Sixteenth,D#4
597,Right,0,74,80,163.75,0.104167,SixtyFourth,D5
598,Right,0,72,80,163.864583,0.104167,SixtyFourth,C5
600,Right,0,71,80,164.0,0.729167,DottedSixteenth,B4
599,Left,1,62,80,164.0,0.479167,Sixteenth,D4
601,Left,1,60,80,164.5,0.479167,Sixteenth,C4
602,Right,0,72,80,164.75,0.229167,ThirtySecond,C5
603,Right,0,71,80,165.0,0.104167,SixtyFourth,B4
604,Left,1,59,80,165.0,0.479167,Sixteenth,B3
605,Right,0,72,80,165.114583,0.104167,SixtyFourth,C5
606,Right,0,74,80,165.25,1.729167,DottedEighth,D5
607,Left,1,57,80,165.5,0.479167,Sixteenth,A3
608,Left,1,56,80,166.0,0.479167,Sixteenth,G#3
610,Right,0,62,80,166.5,0.479167,Sixteenth,D4
609,Left,1,53,80,166.5,0.479167,Sixteenth,F3
611,Left,1,40,80,167.0,0.979167,Eighth,E3_E2
613,Right,0,60,80,167.0,0.479167,Sixteenth,C5_C4
616,Right,0,59,80,167.5,0.479167,Sixteenth,B4_B3
615,Left,1,50,80,167.5,0.479167,Sixteenth,D3
620,Right,0,69,80,168.0,0.979167,Sixteenth,A4_A3
618,Left,1,48,80,168.0,0.979167,Eighth,C3_A2
622,Right,0,64,80,168.5,0.479167,Sixteenth,E4
623,Right,0,60,80,169.0,0.479167,Sixteenth,C4
624,Right,0,57,80,169.5,0.479167,Sixteenth,A3
625,Left,1,33,80,170.0,0.979167,Eighth,A1
626,Right,0,52,80,170.0,0.479167,Sixteenth,E3
627,Right,0,48,80,170.5,0.479167,Sixteenth,C3
628,Left,1,33,80,171.0,0.979167,Eighth,A1
629,Right,0,45,80,171.0,0.979167,Eighth,A2
630,Left,1,41,80,174.0,0.979167,Eighth,F2
631,Left,1,41,80,175.0,0.979167,Eighth,F2
632,Left,1,41,80,176.0,0.979167,Eighth,F2
634,Right,0,60,80,177.0,1.979167,Quarter,C4_A3
633,Left,1,48,80,177.0,1.979167,Quarter,F2_C3
638,Right,0,57,80,178.0,0.979167,Eighth,A3
637,Left,1,41,80,178.0,0.979167,Eighth,F2
641,Right,0,57,80,179.0,0.979167,Eighth,D4_A3
639,Left,1,50,80,179.0,0.979167,Sixteenth,F2_D3
643,Left,1,52,80,179.5,0.479167,Sixteenth,E3
644,Right,0,64,80,179.5,0.479167,Sixteenth,E4
646,Right,0,65,80,180.0,1.979167,Eighth,F4_C4_A3
645,Left,1,41,80,180.0,1.979167,Eighth,F3_F2
650,Left,1,41,80,181.0,0.979167,Eighth,F2
651,Right,0,60,80,181.0,0.979167,Eighth,C4_A3
653,Right,0,57,80,182.0,0.979167,Eighth,F4_C4_A3
655,Left,1,41,80,182.0,0.979167,Eighth,F3_F2
658,Right,0,60,80,183.0,1.479167,Eighth,F4_C4_A3
660,Left,1,53,80,183.0,1.479167,DottedEighth,F3_F2
665,Left,1,41,80,184.0,0.979167,Eighth,F2
663,Right,0,57,80,184.0,0.979167,Eighth,C4_A3
666,Right,0,67,80,184.5,0.229167,ThirtySecond,G4
667,Left,1,55,80,184.5,0.229167,ThirtySecond,G3
668,Left,1,53,80,184.75,0.229167,ThirtySecond,F3
669,Right,0,65,80,184.75,0.229167,ThirtySecond,F4
670,Left,1,41,80,185.0,0.979167,Eighth,F2_E3
671,Right,0,60,80,185.0,0.979167,Eighth,E4_C4_A3
675,Left,1,53,80,185.5,0.479167,Sixteenth,F3
676,Right,0,65,80,185.5,0.479167,Sixteenth,F4
679,Right,0,60,80,186.0,0.979167,Eighth,F#4_F#3_C4_A#3
677,Left,1,40,80,186.0,0.979167,Eighth,E2_C3
683,Right,0,67,80,187.0,1.979167,Quarter,G4_G3_C4_A#3
684,Left,1,40,80,187.0,0.979167,Eighth,E2_C3
689,Left,1,40,80,188.0,0.979167,Eighth,E2_C3
691,Right,0,60,80,188.0,0.979167,Eighth,C4_A#3
693,Left,1,40,80,189.0,0.979167,Eighth,E2_C3
694,Right,0,60,80,189.0,0.979167,Eighth,C4_A#3
697,Left,1,48,80,190.0,0.979167,Eighth,E2_C3
698,Right,0,60,80,190.0,0.979167,Eighth,C4_A#3
705,Left,1,40,80,191.0,0.979167,Eighth,E2_C3
701,Right,0,58,80,191.0,0.979167,Eighth,G4_G3_C4_A#3
707,Right,0,65,80,191.75,0.229167,ThirtySecond,F4_F3
709,Left,1,48,80,192.0,0.979167,Eighth,G2_F3_C3
712,Right,0,60,80,192.0,0.979167,Eighth,F4_C4_A#3
716,Right,0,58,80,193.0,0.979167,Eighth,E4_C4_A#3
715,Left,1,43,80,193.0,0.979167,Eighth,G2_E3_C3
721,Right,0,58,80,194.0,0.979167,Eighth,D4_A#3
723,Left,1,50,80,194.0,0.979167,DottedSixteenth,G2_D3
725,Left,1,48,80,194.75,0.229167,ThirtySecond,C3
726,Right,0,60,80,194.75,0.229167,ThirtySecond,C4
727,Left,1,43,80,195.0,1.979167,Eighth,G2_C3
729,Right,0,58,80,195.0,1.979167,Eighth,E3_C4_A#3
733,Right,0,52,80,196.0,0.979167,Eighth,E3_A#3
732,Left,1,43,80,196.0,0.979167,Eighth,G2
735,Right,0,58,80,197.0,0.979167,Eighth,E4_A#3
736,Left,1,52,80,197.0,0.979167,ThirtySecond,G2_E3
740,Left,1,50,80,197.25,0.229167,ThirtySecond,D3
739,Right,0,62,80,197.25,0.229167,ThirtySecond,D4
741,Right,0,60,80,197.5,0.479167,Sixteenth,C4
742,Left,1,48,80,197.5,0.479167,Sixteenth,C3
743,Right,0,60,80,198.0,0.979167,Eighth,C4_A3
744,Left,1,41,80,198.0,0.979167,Eighth,F2_C3
750,Left,1,41,85,199.0,2.979167,Eighth,F3_F2
747,Right,0,65,85,199.0,2.979167,Eighth,F4_C4_A3
752,Left,1,41,91,200.0,0.979167,Eighth,F2
753,Right,0,60,91,200.0,0.979167,Eighth,C4_A3
756,Left,1,41,97,201.0,0.979167,Eighth,F2
755,Right,0,60,97,201.0,0.979167,Eighth,C4_A3
760,Left,1,41,103,202.0,0.979167,Eighth,F2_E3
758,Right,0,60,103,202.0,0.979167,Eighth,E4_C4_A3
766,Left,1,51,109,203.0,0.979167,Eighth,F2_D#3
763,Right,0,63,109,203.0,0.979167,Eighth,D#4_C4_A3
771,Left,1,51,120,204.0,0.979167,Eighth,F#2_D#3
768,Right,0,60,120,204.0,0.979167,Eighth,D#4_C4_A3
773,Right,0,57,120,205.0,0.979167,Eighth,D4_C4_A3
774,Left,1,50,120,205.0,0.979167,Eighth,F#2_D3
778,Right,0,57,120,206.0,0.979167,Eighth,C4_C#4_A3
779,Left,1,42,120,206.0,0.979167,Eighth,F#2_C#3
784,Right,0,62,120,206.75,0.229167,ThirtySecond,D4
783,Left,1,50,120,206.75,0.229167,ThirtySecond,D3
787,Right,0,60,120,207.0,0.979167,Eighth,D#4_C4_A3
785,Left,1,42,120,207.0,0.979167,Eighth,F#2_D#3
790,Left,1,50,120,208.0,0.979167,Eighth,F#2_D3
791,Right,0,60,120,208.0,0.979167,Eighth,D4_C4_A3
796,Left,1,49,120,209.0,0.979167,DottedSixteenth,F#2_C#3
795,Right,0,57,120,209.0,0.979167,Eighth,C4_C#4_A3
801,Right,0,62,120,209.75,0.229167,ThirtySecond,D4
800,Left,1,50,120,209.75,0.229167,ThirtySecond,D3
803,Right,0,62,120,210.0,0.229167,ThirtySecond,D4_A#3
802,Left,1,43,120,210.0,0.479167,Sixteenth,G2
805,Left,1,46,120,210.083333,0.479167,Sixteenth,A#2
806,Right,0,82,80,210.25,0.229167,ThirtySecond,A#5
807,Left,1,50,80,210.291667,0.479167,Sixteenth,D3
808,Right,0,84,80,210.5,0.229167,ThirtySecond,C6
809,Left,1,55,80,210.5,5.479167,DottedHalf,G3
810,Right,0,86,80,210.75,0.229167,ThirtySecond,D6
811,Left,1,58,80,211.0,0.979167,Eighth,D4_A#3
813,Right,0,86,80,211.25,0.229167,ThirtySecond,D6
814,Right,0,84,80,211.5,0.229167,ThirtySecond,C6
815,Right,0,82,80,211.75,0.229167,ThirtySecond,A#5
816,Left,1,62,80,212.0,0.979167,Eighth,D4_A#3
818,Right,0,82,80,212.25,0.229167,ThirtySecond,A#5
819,Right,0,81,80,212.5,0.229167,ThirtySecond,A5
820,Right,0,79,80,212.75,0.229167,ThirtySecond,G5
821,Left,1,62,80,213.0,0.979167,Eighth,D4_A#3
823,Right,0,78,80,213.25,0.229167,ThirtySecond,F#5
824,Right,0,79,80,213.5,0.229167,ThirtySecond,G5
825,Right,0,74,80,213.75,0.229167,ThirtySecond,D5
826,Left,1,58,80,214.0,0.979167,Eighth,D4_A#3
828,Right,0,74,80,214.25,0.229167,ThirtySecond,D5
829,Right,0,72,80,214.5,0.229167,ThirtySecond,C5
830,Right,0,70,80,214.75,0.229167,ThirtySecond,A#4
831,Left,1,58,80,215.0,0.979167,Eighth,D4_A#3
833,Right,0,70,80,215.25,0.229167,ThirtySecond,A#4
834,Right,0,69,80,215.5,0.229167,ThirtySecond,A4
835,Right,0,67,80,215.75,0.229167,ThirtySecond,G4
836,Left,1,53,120,216.0,0.979167,Eighth,G#2_F3
838,Right,0,65,120,216.0,0.979167,Eighth,F4_D4_B3
842,Right,0,64,120,217.0,0.979167,Eighth,E4_D4_B3
841,Left,1,44,120,217.0,0.979167,Eighth,G#2_E3
846,Left,1,51,120,218.0,0.979167,DottedSixteenth,G#2_D#3
848,Right,0,59,120,218.0,0.979167,Eighth,D4_D#4_B3
852,Left,1,52,120,218.75,0.229167,ThirtySecond,E3
851,Right,0,64,120,218.75,0.229167,ThirtySecond,E4
853,Right,0,62,120,219.0,0.979167,Eighth,F4_D4_B3
855,Left,1,44,120,219.0,0.979167,Eighth,G#2_F3
859,Right,0,62,120,220.0,0.979167,Eighth,E4_D4_B3
858,Left,1,44,120,220.0,0.979167,Eighth,G#2_E3
866,Left,1,44,120,221.0,0.979167,Eighth,G#2_D#3
863,Right,0,59,120,221.0,0.979167,Eighth,D4_D#4_B3
868,Right,0,64,120,221.75,0.229167,ThirtySecond,E4
869,Left,1,52,120,221.75,0.229167,ThirtySecond,E3
871,Right,0,64,120,222.0,0.229167,ThirtySecond,E4_C#4
870,Left,1,45,120,222.0,0.479167,Sixteenth,A2
873,Left,1,49,120,222.083333,0.479167,Sixteenth,C#3
874,Left,1,52,120,222.166667,0.479167,Sixteenth,E3
876,Right,0,85,80,222.25,0.229167,ThirtySecond,C#6
875,Left,1,57,80,222.25,5.729167,DottedHalf,A3
877,Right,0,86,80,222.5,0.229167,ThirtySecond,D6
878,Right,0,88,80,222.75,0.229167,ThirtySecond,E6
879,Left,1,61,80,223.0,0.979167,Eighth,E4_C#4
881,Right,0,88,80,223.25,0.229167,ThirtySecond,E6
882,Right,0,86,80,223.5,0.229167,ThirtySecond,D6
883,Right,0,85,80,223.75,0.229167,ThirtySecond,C#6
884,Left,1,64,80,224.0,0.979167,Eighth,E4_C#4
886,Right,0,85,80,224.25,0.229167,ThirtySecond,C#6
887,Right,0,83,80,224.5,0.229167,ThirtySecond,B5
888,Right,0,81,80,224.75,0.229167,ThirtySecond,A5
889,Left,1,64,80,225.0,0.979167,Eighth,E4_C#4
891,Right,0,80,80,225.25,0.229167,ThirtySecond,G#5
892,Right,0,81,80,225.5,0.229167,ThirtySecond,A5
893,Right,0,76,80,225.75,0.229167,ThirtySecond,E5
894,Left,1,61,80,226.0,0.979167,Eighth,E4_C#4
896,Right,0,76,80,226.25,0.229167,ThirtySecond,E5
897,Right,0,74,80,226.5,0.229167,ThirtySecond,D5
898,Right,0,73,80,226.75,0.229167,ThirtySecond,C#5
899,Left,1,61,80,227.0,0.979167,Eighth,E4_C#4
901,Right,0,73,80,227.25,0.229167,ThirtySecond,C#5
902,Right,0,71,80,227.5,0.229167,ThirtySecond,B4
903,Right,0,69,80,227.75,0.229167,ThirtySecond,A4
904,Left,1,45,80,228.0,0.479167,Sixteenth,A2
905,Left,1,50,80,228.083333,0.479167,Sixteenth,D3
906,Left,1,53,80,228.166667,0.479167,Sixteenth,F3
907,Right,0,86,80,228.25,0.229167,ThirtySecond,D6
908,Left,1,57,80,228.25,5.729167,DottedHalf,A3
909,Right,0,88,80,228.5,0.229167,ThirtySecond,E6
910,Right,0,89,80,228.75,0.229167,ThirtySecond,F6
911,Left,1,62,80,229.0,0.979167,Eighth,F4_D4
913,Right,0,89,80,229.25,0.229167,ThirtySecond,F6
914,Right,0,88,80,229.5,0.229167,ThirtySecond,E6
915,Right,0,86,80,229.75,0.229167,ThirtySecond,D6
916,Left,1,62,80,230.0,0.979167,Eighth,F4_D4
918,Right,0,85,80,230.25,0.229167,ThirtySecond,C#6
919,Right,0,86,80,230.5,0.229167,ThirtySecond,D6
920,Right,0,81,80,230.75,0.229167,ThirtySecond,A5
921,Left,1,62,80,231.0,0.979167,Eighth,F4_D4
923,Right,0,80,80,231.25,0.229167,ThirtySecond,G#5
924,Right,0,82,80,231.5,0.229167,ThirtySecond,A#5
925,Right,0,81,80,231.75,0.229167,ThirtySecond,A5
926,Left,1,65,80,232.0,0.979167,Eighth,F4_D4
928,Right,0,81,80,232.25,0.229167,ThirtySecond,A5
929,Right,0,79,80,232.5,0.229167,ThirtySecond,G5
930,Right,0,77,80,232.75,0.229167,ThirtySecond,F5
931,Left,1,62,80,233.0,0.979167,Eighth,F4_D4
933,Right,0,77,80,233.25,0.229167,ThirtySecond,F5
934,Right,0,76,80,233.5,0.229167,ThirtySecond,E5
935,Right,0,74,80,233.75,0.229167,ThirtySecond,D5
936,Left,1,45,80,234.0,0.479167,Sixteenth,A2
937,Left,1,52,80,234.083333,0.479167,Sixteenth,E3
938,Left,1,55,80,234.166667,0.479167,Sixteenth,G3
940,Right,0,79,80,234.25,0.229167,ThirtySecond,G5
939,Left,1,57,80,234.25,5.729167,DottedHalf,A3
941,Right,0,81,80,234.5,0.229167,ThirtySecond,A5
942,Right,0,82,80,234.75,0.229167,ThirtySecond,A#5
943,Left,1,64,80,235.0,0.979167,Eighth,G4_E4
945,Right,0,82,80,235.25,0.229167,ThirtySecond,A#5
946,Right,0,81,80,235.5,0.229167,ThirtySecond,A5
947,Right,0,79,80,235.75,0.229167,ThirtySecond,G5
948,Left,1,64,80,236.0,0.979167,Eighth,G4_E4
950,Right,0,79,80,236.25,0.229167,ThirtySecond,G5
951,Right,0,77,80,236.5,0.229167,ThirtySecond,F5
952,Right,0,76,80,236.75,0.229167,ThirtySecond,E5
953,Left,1,67,80,237.0,0.979167,Eighth,G4_E4
955,Right,0,76,80,237.25,0.229167,ThirtySecond,E5
956,Right,0,74,80,237.5,0.229167,ThirtySecond,D5
957,Right,0,73,80,237.75,0.229167,ThirtySecond,C#5
958,Left,1,64,80,238.0,0.979167,Eighth,G4_E4
960,Right,0,70,80,238.25,0.229167,ThirtySecond,A#4
961,Right,0,69,80,238.5,0.229167,ThirtySecond,A4
962,Right,0,67,80,238.75,0.229167,ThirtySecond,G4
963,Left,1,64,80,239.0,0.979167,Eighth,G4_E4
965,Right,0,67,80,239.25,0.229167,ThirtySecond,G4
966,Right,0,65,80,239.5,0.229167,ThirtySecond,F4
967,Right,0,64,80,239.75,0.229167,ThirtySecond,E4
968,Right,0,64,80,240.25,0.229167,ThirtySecond,E4
969,Right,0,62,80,240.5,0.229167,ThirtySecond,D4
970,Right,0,61,80,240.75,0.229167,ThirtySecond,C#4
971,Right,0,58,80,241.25,0.229167,ThirtySecond,A#3
972,Right,0,57,80,241.5,0.229167,ThirtySecond,A3
973,Right,0,55,80,241.75,0.229167,ThirtySecond,G3
974,Right,0,55,80,242.25,0.229167,ThirtySecond,G3
975,Right,0,53,80,242.5,0.229167,ThirtySecond,F3
976,Right,0,52,80,242.75,0.229167,ThirtySecond,E3
977,Right,0,52,80,243.25,0.229167,ThirtySecond,E3
978,Right,0,50,80,243.5,0.229167,ThirtySecond,D3
979,Right,0,49,80,243.75,0.229167,ThirtySecond,C#3
980,Right,0,58,80,246.25,0.229167,ThirtySecond,A#3
981,Right,0,57,80,246.5,0.229167,ThirtySecond,A3
982,Right,0,55,80,246.75,0.229167,ThirtySecond,G3
983,Right,0,64,80,249.25,0.229167,ThirtySecond,E4
984,Right,0,62,80,249.5,0.229167,ThirtySecond,D4
985,Right,0,61,80,249.75,0.229167,ThirtySecond,C#4
986,Right,0,64,80,252.25,0.229167,ThirtySecond,E4
987,Right,0,62,80,252.5,0.229167,ThirtySecond,D4
988,Right,0,61,80,252.75,0.229167,ThirtySecond,C#4
989,Right,0,70,80,253.0,1.229167,Eighth,A#4
990,Right,0,69,80,254.25,0.229167,ThirtySecond,A4
991,Right,0,67,80,254.5,0.229167,ThirtySecond,G4
992,Right,0,66,80,254.75,0.229167,ThirtySecond,F#4
993,Right,0,65,80,255.0,0.229167,ThirtySecond,F4
994,Right,0,64,80,255.25,0.229167,ThirtySecond,E4
995,Right,0,63,80,255.5,0.229167,ThirtySecond,D#4
996,Right,0,62,80,255.75,0.229167,ThirtySecond,D4
997,Right,0,61,80,256.0,0.229167,ThirtySecond,C#4
998,Right,0,60,80,256.25,0.229167,ThirtySecond,C4
999,Right,0,59,80,256.5,0.229167,ThirtySecond,B3
1000,Right,0,58,80,256.75,0.229167,ThirtySecond,A#3
1001,Right,0,57,80,257.0,0.229167,ThirtySecond,A3
1002,Right,0,55,80,257.25,0.229167,ThirtySecond,G3
1003,Right,0,53,80,257.5,0.229167,ThirtySecond,F3
1004,Right,0,52,80,257.75,0.229167,ThirtySecond,E3
1005,Right,0,62,80,258.0,2.979167,DottedQuarter,F3_D4_A3
1008,Left,1,50,80,258.0,2.979167,DottedQuarter,F2_D3_D2_A2
1012,Right,0,61,80,259.0,0.979167,Eighth,C#4
1013,Right,0,62,80,260.0,0.979167,Eighth,D4
1017,Left,1,45,80,261.0,2.979167,Eighth,F2_D3_D2_A2
1014,Right,0,57,80,261.0,0.979167,Eighth,F4_F3_A3
1023,Left,1,46,80,262.0,0.979167,Eighth,G2_A#2
1021,Right,0,58,80,262.0,0.979167,Eighth,G3_C#4_A#3
1026,Right,0,62,80,263.0,0.979167,Eighth,F3_D4_A3
1027,Left,1,41,80,263.0,0.979167,Eighth,F2_A2
1033,Right,0,52,80,264.0,2.979167,DottedQuarter,G3_E3_D4_A#3
1031,Left,1,40,80,264.0,2.979167,DottedQuarter,G2_E2_D3_D2_A#2
1040,Right,0,61,80,265.0,0.979167,Eighth,C#4
1041,Right,0,62,80,266.0,0.979167,Eighth,D4
1042,Right,0,58,80,267.0,1.979167,Quarter,G4_G3_A#3
1044,Left,1,43,80,267.0,2.979167,DottedQuarter,G2_D3_D2_A#2
1050,Left,1,52,80,268.0,0.979167,Eighth,E3
1049,Right,0,61,80,268.0,0.979167,Eighth,C#4
1052,Right,0,55,80,269.0,0.979167,Eighth,G3_D4_A#3
1051,Left,1,50,80,269.0,0.979167,Eighth,D3
1055,Left,1,37,80,270.0,1.979167,Quarter,C#3_C#2
1057,Right,0,55,80,270.0,1.979167,Quarter,G3_F4_A#3
1060,Right,0,64,80,271.0,0.979167,Eighth,E4
1063,Left,1,38,80,272.0,0.979167,Eighth,D3_D2
1061,Right,0,55,80,272.0,0.979167,Eighth,G3_D4_A#3
1068,Left,1,41,80,273.0,0.979167,Eighth,F3_F2
1066,Right,0,55,80,273.0,1.979167,Quarter,G3_C#4_A#3
1071,Left,1,52,80,274.0,0.979167,Eighth,E3_E2
1076,Left,1,50,80,275.0,0.979167,Eighth,D3_D2
1073,Right,0,62,80,275.0,0.979167,Eighth,G3_D4_A#3
1078,Right,0,65,80,276.0,1.979167,Quarter,G3_F4_A#3
1080,Left,1,49,80,276.0,1.979167,Quarter,C#3_C#2
1083,Right,0,64,80,277.0,0.979167,Eighth,E4
1084,Right,0,66,80,278.0,0.979167,Eighth,F#4_D4_A3
1087,Left,1,48,80,278.0,0.979167,Eighth,D3_C3
1089,Left,1,50,80,279.0,1.979167,Quarter,D3_A#2
1091,Right,0,69,80,279.0,1.979167,Eighth,D4_A4
1093,Right,0,67,80,280.0,0.979167,Eighth,G4
1094,Right,0,69,80,281.0,0.979167,Eighth,D4_C4_A4
1097,Left,1,54,80,281.0,0.979167,Eighth,F#3_F#2_D3
1101,Right,0,62,80,282.0,0.979167,Eighth,D4_A#4_A#3
1100,Left,1,55,80,282.0,1.979167,Quarter,G3_G2_D3
1106,Right,0,70,80,283.0,0.979167,Eighth,A#4
1107,Right,0,70,80,284.0,0.979167,Eighth,A#4
1108,Right,0,70,80,285.0,0.979167,Eighth,A#4
1109,Right,0,70,80,286.0,0.979167,Eighth,A#4
1110,Right,0,70,80,287.0,0.979167,Eighth,A#4
1111,Left,1,55,80,288.0,0.979167,Eighth,G3_A#3
1112,Right,0,63,80,288.0,0.979167,Eighth,D#4_A#4
1116,Left,1,58,80,289.0,0.979167,Eighth,G3_A#3
1115,Right,0,70,80,289.0,0.979167,Eighth,D4_A#4
1119,Left,1,58,80,290.0,0.979167,Eighth,G3_A#3
1121,Right,0,70,80,290.0,0.979167,Eighth,D#4_A#4
1123,Left,1,58,80,291.0,0.979167,Eighth,G3_A#3
1125,Right,0,67,80,291.0,0.979167,Eighth,G4_A#4
1129,Right,0,62,80,292.0,0.979167,Eighth,D4_A#4
1127,Left,1,58,80,292.0,0.979167,Eighth,G3_A#3
1131,Right,0,70,80,293.0,0.979167,Eighth,D#4_A#4
1133,Left,1,55,80,293.0,0.979167,Eighth,G3_A#3
1138,Right,0,75,80,294.0,0.979167,Eighth,D#5_A#4
1135,Left,1,54,80,294.0,0.979167,Eighth,F#3_D#4_A#3
1142,Right,0,74,80,295.0,0.979167,Eighth,D5_A#4
1140,Left,1,58,80,295.0,0.979167,Eighth,F#3_D#4_A#3
1145,Left,1,54,80,296.0,0.979167,Eighth,F#3_D#4_A#3
1146,Right,0,70,80,296.0,0.979167,Eighth,D#5_A#4
1150,Right,0,77,80,296.5,0.229167,ThirtySecond,F5
1151,Right,0,75,80,296.625,0.229167,ThirtySecond,D#5
1152,Right,0,74,80,296.75,0.229167,ThirtySecond,D5
1153,Right,0,75,80,296.875,0.104167,SixtyFourth,D#5
1155,Right,0,78,80,297.0,0.979167,Eighth,F#5_A#4
1154,Left,1,54,80,297.0,0.979167,Eighth,F#3_D#4_A#3
1161,Left,1,54,80,298.0,0.979167,Eighth,F#3_D#4_A#3
1159,Right,0,70,80,298.0,0.979167,Eighth,D5_A#4
1164,Left,1,58,80,299.0,0.979167,Eighth,F#3_D#4_A#3
1167,Right,0,70,80,299.0,0.979167,Eighth,D#5_A#4
1169,Left,1,53,80,300.0,0.979167,Eighth,F3_D#4_C4_A3
1170,Right,0,81,80,300.0,0.979167,Eighth,D#5_A5_A4
1176,Left,1,60,84,301.0,0.979167,Eighth,F3_D#4_C4_A3
1179,Right,0,75,84,301.0,0.979167,Eighth,G#5_D#5
1183,Left,1,60,89,302.0,0.979167,Eighth,F3_D#4_C4_A3
1182,Right,0,81,89,302.0,0.979167,Eighth,D#5_A5
1190,Left,1,54,94,303.0,0.979167,Eighth,F#3_D#4_C4_A3
1188,Right,0,75,94,303.0,0.979167,Eighth,D#6_D#5_C6
1195,Left,1,63,99,304.0,0.979167,Eighth,F#3_D#4_C4_A3
1196,Right,0,75,99,304.0,0.979167,Eighth,G#5_D#6_D#5
1202,Right,0,87,104,305.0,0.979167,Eighth,D#6_D#5_A5
1204,Left,1,54,104,305.0,0.979167,Eighth,F#3_D#4_C4_A3
1212,Left,1,55,109,306.0,0.479167,Sixteenth,G3
1209,Right,0,82,109,306.0,1.979167,Quarter,D6_D5_A#5
1213,Left,1,58,80,306.5,0.479167,Sixteenth,A#3
1214,Left,1,62,80,307.0,0.479167,Sixteenth,D4
1215,Left,1,58,80,307.5,0.479167,Sixteenth,A#3
1216,Left,1,55,80,308.0,0.479167,Sixteenth,G3
1217,Left,1,58,80,308.5,0.479167,Sixteenth,A#3
1218,Left,1,52,80,309.0,0.479167,Sixteenth,E3
1219,Left,1,55,80,309.5,0.479167,Sixteenth,G3_A#3
1222,Left,1,60,80,310.0,0.479167,Sixteenth,C4
1221,Right,0,82,80,310.0,0.979167,Eighth,C6_A#5
1224,Left,1,58,80,310.5,0.479167,Sixteenth,G3_A#3
1226,Right,0,84,80,311.0,0.979167,Eighth,C6_A#5
1228,Left,1,52,80,311.0,0.479167,Sixteenth,E3
1229,Left,1,55,80,311.5,0.479167,Sixteenth,G3_A#3
1231,Right,0,86,80,312.0,2.979167,DottedEighth,D6_A#5
1233,Left,1,53,80,312.0,0.479167,Sixteenth,F3
1234,Left,1,58,84,312.5,0.479167,Sixteenth,A#3
1235,Left,1,62,89,313.0,0.479167,Sixteenth,D4
1236,Left,1,58,94,313.5,0.479167,Sixteenth,A#3
1237,Right,0,87,94,313.5,0.229167,ThirtySecond,D#6
1238,Right,0,86,97,313.75,0.229167,ThirtySecond,D6
1240,Left,1,53,99,314.0,0.479167,Sixteenth,F3
1239,Right,0,85,99,314.0,0.729167,DottedSixteenth,C#6
1241,Left,1,58,104,314.5,0.479167,Sixteenth,A#3
1242,Right,0,86,107,314.75,0.229167,ThirtySecond,D6
1244,Right,0,89,109,315.0,1.479167,DottedEighth,F6
1243,Left,1,53,109,315.0,0.479167,Sixteenth,F3
1245,Left,1,57,110,315.5,0.479167,Sixteenth,A3
1246,Left,1,63,103,316.0,0.479167,Sixteenth,D#4
1248,Left,1,57,96,316.5,0.479167,Sixteenth,A3
1247,Right,0,87,96,316.5,0.479167,Sixteenth,D#6
1250,Right,0,86,88,317.0,0.479167,Sixteenth,D6
1249,Left,1,53,88,317.0,0.479167,Sixteenth,F3
1252,Right,0,84,81,317.5,0.479167,Sixteenth,C6
1251,Left,1,57,81,317.5,0.479167,Sixteenth,A3
1253,Left,1,58,80,318.0,0.479167,Sixteenth,A#3
1254,Right,0,85,80,318.0,0.479167,Sixteenth,C#6
1256,Right,0,86,80,318.5,0.479167,Sixteenth,D6
1255,Left,1,53,80,318.5,0.479167,Sixteenth,F3
1257,Left,1,50,80,319.0,0.479167,Sixteenth,D3
1258,Left,1,46,80,319.5,0.479167,Sixteenth,A#2
1259,Left,1,43,80,320.0,0.479167,Sixteenth,G2
1260,Left,1,41,80,320.5,0.479167,Sixteenth,F2
1261,Left,1,40,90,321.0,1.979167,Quarter,E2
1262,Left,1,48,93,321.5,0.479167,Sixteenth,C3
1266,Left,1,43,97,322.0,0.479167,Sixteenth,G2
1263,Right,0,72,97,322.0,0.979167,Eighth,C6_C5_A#5
1267,Left,1,48,101,322.5,0.479167,Sixteenth,C3
1271,Left,1,40,105,323.0,0.979167,Eighth,E2_A#2
1268,Right,0,84,105,323.0,0.979167,Eighth,C6_C5_A#5
1273,Left,1,48,109,323.5,0.479167,Sixteenth,C3
1275,Left,1,41,120,324.0,2.979167,DottedQuarter,F2
1274,Right,0,74,120,324.0,0.229167,ThirtySecond,D5
1276,Right,0,86,118,324.25,0.979167,Eighth,D6
1277,Left,1,53,115,324.5,0.479167,Sixteenth,F3
1278,Left,1,46,110,325.0,0.479167,Sixteenth,A#2
1279,Right,0,82,107,325.25,0.229167,ThirtySecond,A#5
1281,Right,0,77,104,325.5,0.229167,ThirtySecond,F5
1280,Left,1,53,104,325.5,0.479167,Sixteenth,F3
1282,Right,0,74,101,325.75,0.229167,ThirtySecond,D5
1284,Left,1,50,99,326.0,0.479167,Sixteenth,D3
1283,Right,0,70,99,326.0,0.229167,ThirtySecond,A#4
1285,Right,0,65,96,326.25,0.229167,ThirtySecond,F4
1286,Left,1,53,93,326.5,0.479167,Sixteenth,F3
1287,Right,0,62,93,326.5,0.229167,ThirtySecond,D4
1288,Right,0,58,91,326.75,0.229167,ThirtySecond,A#3
1289,Right,0,65,80,327.0,1.979167,DottedEighth,F4_A3
1290,Left,1,41,80,327.0,1.979167,Quarter,F2
1292,Left,1,48,80,327.5,0.479167,Sixteenth,C3
1293,Left,1,53,80,328.0,0.479167,Sixteenth,F3
1295,Right,0,63,80,328.5,0.479167,Sixteenth,D#4
1294,Left,1,51,80,328.5,0.479167,Sixteenth,D#3
1296,Left,1,41,80,329.0,0.979167,Eighth,F2_C3
1298,Right,0,57,80,329.0,0.979167,Eighth,C4_A3
1301,Right,0,65,80,329.5,0.479167,Sixteenth,F4
1300,Left,1,53,80,329.5,0.479167,Sixteenth,F3
1302,Left,1,46,80,330.0,1.979167,Quarter,D3_A#2
1304,Right,0,58,80,330.0,1.979167,Quarter,A#3
1305,Right,0,62,80,332.0,0.979167,Eighth,D4
1307,Left,1,46,80,333.0,2.979167,DottedQuarter,D3_A#2
1306,Right,0,56,80,333.0,1.979167,Quarter,G#3_F4
1312,Left,1,52,80,335.0,0.479167,Sixteenth,E3
1310,Right,0,64,80,335.0,0.979167,Sixteenth,G#3_E4
1314,Left,1,53,80,335.5,0.479167,Sixteenth,F3
1313,Right,0,62,80,335.5,0.479167,Sixteenth,D4
1316,Left,1,45,80,336.0,1.979167,Quarter,F3_A2
1315,Right,0,62,80,336.0,1.979167,Eighth,D4_A3
1320,Left,1,52,80,337.0,0.979167,Eighth,E3
1319,Right,0,61,80,337.0,0.979167,Eighth,C#4
1321,Right,0,62,80,338.0,0.229167,ThirtySecond,D4
1322,Right,0,64,80,338.25,0.114583,SixtyFourth,E4
1323,Right,0,62,80,338.333333,0.104167,SixtyFourth,D4
1324,Right,0,61,80,338.416667,0.104167,SixtyFourth,C#4
1325,Right,0,62,80,338.5,0.229167,ThirtySecond,D4
1326,Right,0,64,80,338.75,0.229167,ThirtySecond,E4
1328,Right,0,56,80,339.0,1.979167,Quarter,G#3_F4
1327,Left,1,50,80,339.0,2.979167,DottedEighth,D3_A#2
1331,Right,0,64,80,340.0,0.229167,ThirtySecond,E4
1332,Right,0,65,80,340.25,0.229167,ThirtySecond,F4
1333,Right,0,64,80,340.5,0.229167,ThirtySecond,E4
1334,Left,1,49,80,340.5,0.229167,ThirtySecond,C#3
1336,Right,0,65,80,340.75,0.229167,ThirtySecond,F4
1335,Left,1,50,80,340.75,0.229167,ThirtySecond,D3
1338,Right,0,55,80,341.0,0.979167,Eighth,G4_G3
1337,Left,1,49,80,341.0,0.229167,ThirtySecond,C#3
1340,Right,0,65,80,341.25,0.229167,ThirtySecond,F4
1341,Left,1,50,80,341.25,0.229167,ThirtySecond,D3
1343,Right,0,64,80,341.5,0.229167,ThirtySecond,E4
1342,Left,1,52,80,341.5,0.229167,ThirtySecond,E3
1344,Left,1,53,80,341.75,0.229167,ThirtySecond,F3
1345,Right,0,62,80,341.75,0.229167,ThirtySecond,D4
1346,Right,0,62,80,342.0,1.979167,Eighth,D4_A3
1347,Left,1,45,80,342.0,1.979167,Quarter,F3_A2
1351,Right,0,61,80,343.0,0.979167,Eighth,C#4
1350,Left,1,52,80,343.0,0.979167,Eighth,E3
1352,Right,0,61,80,344.5,0.479167,Sixteenth,C#4
1353,Left,1,43,110,345.0,1.479167,DottedEighth,G2_E3_C#3
1355,Right,0,58,110,345.0,1.479167,DottedEighth,E4_C#4_A#4_A#3
1363,Right,0,64,110,346.5,0.333333,TripletSixteenth,E4_C#4_A4_A3
1360,Left,1,52,110,346.5,0.333333,TripletSixteenth,E3_C#3_A2
1367,Right,0,67,110,347.0,0.333333,TripletSixteenth,G4_G3_E4_C#4
1368,Left,1,46,110,347.0,0.333333,TripletSixteenth,E3_C#3_A#2
1374,Right,0,61,110,347.5,0.333333,TripletSixteenth,C#4_A#4_A#3
1375,Left,1,52,110,347.5,0.333333,TripletSixteenth,G2_E3_E2
1380,Left,1,41,110,348.0,0.979167,Eighth,F3_F2_A2
1383,Right,0,69,110,348.0,0.979167,Eighth,D4_A4_A3
1386,Left,1,50,80,350.0,0.979167,Eighth,G2_E3_D3
1387,Right,0,64,80,350.0,0.979167,Eighth,E4_D4_A#3
1394,Left,1,45,80,351.0,0.979167,Eighth,F3_D3_A2
1392,Right,0,65,80,351.0,0.979167,Eighth,F4_D4_A3
1399,Left,1,45,80,353.0,0.979167,Eighth,A2_A1
1398,Right,0,55,80,353.0,0.979167,Eighth,G3_E3_C#4_A3
1405,Left,1,50,80,354.0,1.979167,Quarter,D3_D2
1404,Right,0,57,80,354.0,1.979167,Quarter,F3_D4_A3
1409,Left,1,50,110,356.0,0.979167,Eighth,D3
1410,Left,1,46,110,357.0,2.979167,DottedQuarter,F3_A#2
1413,Left,1,52,110,359.0,0.479167,Sixteenth,E3
1412,Right,0,68,110,359.0,0.979167,Eighth,G#4_G#3
1415,Left,1,50,110,359.5,0.479167,Sixteenth,D3
1416,Right,0,57,110,360.0,0.479167,Sixteenth,A4_A3
1417,Left,1,45,110,360.0,1.979167,Quarter,D3_A2
1420,Right,0,81,110,360.5,0.979167,Eighth,A5_A4
1422,Left,1,49,110,361.0,0.979167,Eighth,C#3
1423,Right,0,79,110,361.5,0.479167,Sixteenth,G5_G4
1425,Right,0,77,110,362.0,0.479167,Sixteenth,F5_F4
1427,Right,0,64,110,362.5,0.479167,Sixteenth,E5_E4
1429,Left,1,50,120,362.75,0.229167,ThirtySecond,D3
1431,Right,0,62,110,363.0,1.979167,Quarter,D5_D4
1430,Left,1,46,120,363.0,2.979167,DottedQuarter,F3_A#2
1434,Left,1,52,120,364.0,0.229167,ThirtySecond,E3
1435,Left,1,53,120,364.25,0.229167,ThirtySecond,F3
1436,Left,1,52,120,364.5,0.229167,ThirtySecond,E3
1437,Left,1,53,120,364.75,0.229167,ThirtySecond,F3
1438,Left,1,55,120,365.0,0.229167,ThirtySecond,G3
1439,Left,1,53,120,365.25,0.229167,ThirtySecond,F3
1440,Right,0,68,120,365.5,0.479167,Sixteenth,G#4_G#3
1442,Left,1,52,120,365.5,0.229167,ThirtySecond,E3
1443,Left,1,50,120,365.75,0.229167,ThirtySecond,D3
1444,Left,1,50,120,366.0,1.979167,Eighth,D3_A2
1446,Right,0,57,120,366.0,0.479167,Sixteenth,A4_A3
1448,Right,0,69,120,366.5,0.979167,Eighth,A5_A4
1450,Left,1,49,120,367.0,0.979167,Eighth,C#3
1451,Right,0,80,120,367.5,0.229167,ThirtySecond,G#5
1452,Right,0,81,120,367.75,0.229167,ThirtySecond,A5
1453,Right,0,80,120,368.0,0.229167,ThirtySecond,G#5
1454,Right,0,81,120,368.25,0.229167,ThirtySecond,A5
1455,Right,0,80,120,368.5,0.229167,ThirtySecond,G#5
1456,Right,0,81,120,368.75,0.229167,ThirtySecond,A5
1461,Left,1,55,120,369.0,2.979167,DottedQuarter,G3_E4_C#4
1457,Right,0,82,120,369.0,2.979167,DottedEighth,E5_C#5_A#5_A#4
1464,Left,1,57,80,370.5,0.479167,Sixteenth,A3
1465,Right,0,81,80,370.5,0.479167,Sixteenth,A5
1467,Left,1,58,80,371.0,0.479167,Sixteenth,A#3
1466,Right,0,79,80,371.0,0.479167,Sixteenth,G5
1469,Right,0,82,80,371.5,0.479167,Sixteenth,A#5
1468,Left,1,52,80,371.5,0.479167,Sixteenth,E3
1470,Right,0,78,110,372.0,2.979167,DottedQuarter,F#5_D#6_D#5_A5
1473,Left,1,60,110,372.0,2.979167,DottedQuarter,F#4_C4_A4
1478,Left,1,62,80,373.5,0.479167,Sixteenth,D4
1477,Right,0,86,80,373.5,0.479167,Sixteenth,D6_D5
1480,Right,0,84,80,374.0,0.479167,Sixteenth,C6_C5
1481,Left,1,63,80,374.0,0.479167,Sixteenth,D#4
1483,Right,0,87,80,374.5,0.479167,Sixteenth,D#6_D#5
1484,Left,1,57,80,374.5,0.479167,Sixteenth,A3
1490,Left,1,62,100,375.0,2.979167,DottedQuarter,G#4_D4_B4
1486,Right,0,80,100,375.0,2.979167,DottedQuarter,G#5_F6_F5_B5
1493,Right,0,76,80,376.5,0.479167,Sixteenth,E6_E5
1494,Left,1,64,80,376.5,0.479167,Sixteenth,E4
1498,Left,1,65,80,377.0,0.479167,Sixteenth,F4
1496,Right,0,74,80,377.0,0.479167,Sixteenth,D6_D5
1501,Left,1,62,80,377.5,0.479167,Sixteenth,D4
1499,Right,0,77,80,377.5,0.479167,Sixteenth,F6_F5
1504,Right,0,76,80,378.0,0.979167,Eighth,G5_E5_C#6_A#5
1502,Left,1,70,80,378.0,0.979167,Eighth,G4_E4_C#5_A#4
1510,Left,1,69,80,380.0,0.979167,Eighth,F4_A4
1512,Right,0,74,80,380.0,0.979167,Eighth,F5_D6_D5_A5
1516,Right,0,70,80,381.0,0.979167,Eighth,E5_D5_A#5_A#4
1520,Left,1,67,80,381.0,0.979167,Eighth,G4_G3_E4_D4
1527,Left,1,64,80,383.0,0.979167,Eighth,E4_C#4_A3
1524,Right,0,73,80,383.0,0.979167,Eighth,E5_C#5_A5_A4
1531,Left,1,38,70,384.0,5.979167,Eighth,D3_D2
1533,Right,0,53,70,384.166667,0.3125,TripletSixteenth,F3
1534,Right,0,57,70,384.333333,0.3125,TripletSixteenth,A3
1535,Right,0,62,70,384.5,0.3125,TripletSixteenth,D4
1536,Right,0,57,70,384.666667,0.3125,TripletSixteenth,A3
1537,Right,0,53,70,384.833333,0.3125,TripletSixteenth,F3
1538,Left,1,37,70,385.0,0.979167,Eighth,C#2
1539,Right,0,53,70,385.166667,0.3125,TripletSixteenth,F3
1540,Right,0,57,70,385.333333,0.3125,TripletSixteenth,A3
1541,Right,0,62,70,385.5,0.3125,TripletSixteenth,D4
1542,Right,0,57,70,385.666667,0.3125,TripletSixteenth,A3
1543,Right,0,53,70,385.833333,0.3125,TripletSixteenth,F3
1544,Left,1,38,70,386.0,0.979167,Eighth,D2
1545,Right,0,53,70,386.166667,0.3125,TripletSixteenth,F3
1546,Right,0,57,70,386.333333,0.3125,TripletSixteenth,A3
1547,Right,0,62,70,386.5,0.3125,TripletSixteenth,D4
1548,Right,0,57,70,386.666667,0.3125,TripletSixteenth,A3
1549,Right,0,53,70,386.833333,0.3125,TripletSixteenth,F3
1550,Left,1,41,70,387.0,0.979167,Eighth,F2
1551,Right,0,53,70,387.166667,0.3125,TripletSixteenth,F3
1552,Right,0,57,70,387.333333,0.3125,TripletSixteenth,A3
1553,Right,0,62,70,387.5,0.3125,TripletSixteenth,D4
1554,Right,0,57,70,387.666667,0.3125,TripletSixteenth,A3
1555,Right,0,53,70,387.833333,0.3125,TripletSixteenth,F3
1556,Left,1,37,70,388.0,0.979167,Eighth,C#2
1557,Right,0,53,70,388.166667,0.3125,TripletSixteenth,F3
1558,Right,0,57,70,388.333333,0.3125,TripletSixteenth,A3
1559,Right,0,62,70,388.5,0.3125,TripletSixteenth,D4
1560,Right,0,57,70,388.666667,0.3125,TripletSixteenth,A3
1561,Right,0,53,70,388.833333,0.3125,TripletSixteenth,F3
1562,Left,1,38,70,389.0,0.979167,Eighth,D2
1563,Right,0,53,70,389.166667,0.3125,TripletSixteenth,F3
1564,Right,0,57,70,389.333333,0.3125,TripletSixteenth,A3
1565,Right,0,62,70,389.5,0.3125,TripletSixteenth,D4
1566,Right,0,57,70,389.666667,0.3125,TripletSixteenth,A3
1567,Right,0,53,70,389.833333,0.15625,TripletThirtySecond,F3
1568,Left,1,34,70,390.0,5.979167,Eighth,A#2_A#1
1570,Right,0,53,70,390.166667,0.3125,TripletSixteenth,F3
1571,Right,0,58,71,390.333333,0.3125,TripletSixteenth,A#3
1572,Right,0,62,72,390.5,0.3125,TripletSixteenth,D4
1573,Right,0,58,73,390.666667,0.3125,TripletSixteenth,A#3
1574,Right,0,53,74,390.833333,0.3125,TripletSixteenth,F3
1575,Left,1,33,75,391.0,0.979167,Eighth,A1
1576,Right,0,53,75,391.166667,0.3125,TripletSixteenth,F3
1577,Right,0,58,76,391.333333,0.3125,TripletSixteenth,A#3
1578,Right,0,62,77,391.5,0.3125,TripletSixteenth,D4
1579,Right,0,58,78,391.666667,0.3125,TripletSixteenth,A#3
1580,Right,0,53,79,391.833333,0.3125,TripletSixteenth,F3
1581,Left,1,34,80,392.0,0.979167,Eighth,A#1
1582,Right,0,53,81,392.166667,0.3125,TripletSixteenth,F3
1583,Right,0,58,81,392.333333,0.3125,TripletSixteenth,A#3
1584,Right,0,62,82,392.5,0.3125,TripletSixteenth,D4
1585,Right,0,58,83,392.666667,0.3125,TripletSixteenth,A#3
1586,Right,0,53,84,392.833333,0.3125,TripletSixteenth,F3
1587,Left,1,38,85,393.0,0.979167,Eighth,D2
1588,Right,0,53,86,393.166667,0.3125,TripletSixteenth,F3
1589,Right,0,58,87,393.333333,0.3125,TripletSixteenth,A#3
1590,Right,0,62,87,393.5,0.3125,TripletSixteenth,D4
1591,Right,0,58,88,393.666667,0.3125,TripletSixteenth,A#3
1592,Right,0,53,89,393.833333,0.3125,TripletSixteenth,F3
1593,Left,1,33,90,394.0,0.979167,Eighth,A1
1594,Right,0,53,91,394.166667,0.3125,TripletSixteenth,F3
1595,Right,0,58,92,394.333333,0.3125,TripletSixteenth,A#3
1596,Right,0,62,93,394.5,0.3125,TripletSixteenth,D4
1597,Right,0,58,93,394.666667,0.3125,TripletSixteenth,A#3
1598,Right,0,53,94,394.833333,0.3125,TripletSixteenth,F3
1599,Left,1,34,95,395.0,0.979167,Eighth,A#1
1600,Right,0,53,96,395.166667,0.3125,TripletSixteenth,F3
1601,Right,0,58,97,395.333333,0.3125,TripletSixteenth,A#3
1602,Right,0,62,98,395.5,0.3125,TripletSixteenth,D4
1603,Right,0,58,99,395.666667,0.3125,TripletSixteenth,A#3
1604,Right,0,53,99,395.833333,0.15625,TripletThirtySecond,F3
1605,Left,1,30,110,396.0,2.979167,DottedQuarter,F#1
1606,Right,0,54,100,396.166667,0.3125,TripletSixteenth,F#3
1607,Right,0,58,100,396.333333,0.3125,TripletSixteenth,A#3
1608,Right,0,63,100,396.5,0.3125,TripletSixteenth,D#4
1609,Right,0,58,100,396.666667,0.3125,TripletSixteenth,A#3
1610,Right,0,54,100,396.833333,0.3125,TripletSixteenth,F#3
1611,Left,1,34,110,397.0,0.979167,Eighth,A#1
1612,Right,0,54,100,397.166667,0.3125,TripletSixteenth,F#3
1613,Right,0,58,100,397.333333,0.3125,TripletSixteenth,A#3
1614,Right,0,63,100,397.5,0.3125,TripletSixteenth,D#4
1615,Right,0,58,100,397.666667,0.3125,TripletSixteenth,A#3
1616,Right,0,54,100,397.833333,0.3125,TripletSixteenth,F#3
1617,Left,1,39,110,398.0,0.979167,Eighth,D#2
1618,Right,0,54,100,398.166667,0.3125,TripletSixteenth,F#3
1619,Right,0,58,100,398.333333,0.3125,TripletSixteenth,A#3
1620,Right,0,63,100,398.5,0.3125,TripletSixteenth,D#4
1621,Right,0,58,100,398.666667,0.3125,TripletSixteenth,A#3
1622,Right,0,54,100,398.833333,0.3125,TripletSixteenth,F#3
1623,Left,1,42,110,399.0,2.979167,DottedQuarter,F#2
1624,Right,0,54,100,399.166667,0.3125,TripletSixteenth,F#3
1625,Right,0,58,100,399.333333,0.3125,TripletSixteenth,A#3
1626,Right,0,63,100,399.5,0.3125,TripletSixteenth,D#4
1627,Right,0,58,100,399.666667,0.3125,TripletSixteenth,A#3
1628,Right,0,54,100,399.833333,0.3125,TripletSixteenth,F#3
1629,Left,1,46,110,400.0,0.979167,Eighth,A#2
1630,Right,0,54,100,400.166667,0.3125,TripletSixteenth,F#3
1631,Right,0,58,100,400.333333,0.3125,TripletSixteenth,A#3
1632,Right,0,63,100,400.5,0.3125,TripletSixteenth,D#4
1633,Right,0,58,100,400.666667,0.3125,TripletSixteenth,A#3
1634,Right,0,54,100,400.833333,0.3125,TripletSixteenth,F#3
1635,Left,1,51,110,401.0,0.979167,Eighth,D#3
1636,Right,0,54,100,401.166667,0.3125,TripletSixteenth,F#3
1637,Right,0,58,100,401.333333,0.3125,TripletSixteenth,A#3
1638,Right,0,63,100,401.5,0.3125,TripletSixteenth,D#4
1639,Right,0,58,100,401.666667,0.3125,TripletSixteenth,A#3
1640,Right,0,54,100,401.833333,0.15625,TripletThirtySecond,F#3
1641,Left,1,45,110,402.0,2.979167,DottedQuarter,A2
1642,Right,0,57,100,402.166667,0.3125,TripletSixteenth,A3
1643,Right,0,60,100,402.333333,0.3125,TripletSixteenth,C4
1644,Right,0,66,100,402.5,0.3125,TripletSixteenth,F#4
1645,Right,0,63,100,402.666667,0.3125,TripletSixteenth,D#4
1646,Right,0,60,100,402.833333,0.3125,TripletSixteenth,C4
1647,Left,1,54,110,403.0,1.979167,Quarter,F#3
1648,Right,0,57,100,403.166667,0.3125,TripletSixteenth,A3
1649,Right,0,60,100,403.333333,0.3125,TripletSixteenth,C4
1650,Right,0,66,100,403.5,0.3125,TripletSixteenth,F#4
1651,Right,0,63,100,403.666667,0.3125,TripletSixteenth,D#4
1652,Right,0,60,100,403.833333,0.3125,TripletSixteenth,C4
1653,Left,1,51,110,404.0,0.979167,Eighth,D#3
1654,Right,0,57,100,404.166667,0.3125,TripletSixteenth,A3
1655,Right,0,60,100,404.333333,0.3125,TripletSixteenth,C4
1656,Right,0,66,100,404.5,0.3125,TripletSixteenth,F#4
1657,Right,0,63,100,404.666667,0.3125,TripletSixteenth,D#4
1658,Right,0,60,100,404.833333,0.3125,TripletSixteenth,C4
1659,Left,1,46,110,405.0,2.979167,DottedQuarter,A#2
1660,Right,0,58,100,405.166667,0.3125,TripletSixteenth,A#3
1661,Right,0,63,100,405.333333,0.3125,TripletSixteenth,D#4
1662,Right,0,67,100,405.5,0.3125,TripletSixteenth,G4
1663,Right,0,63,100,405.666667,0.3125,TripletSixteenth,D#4
1664,Right,0,58,100,405.833333,0.3125,TripletSixteenth,A#3
1665,Left,1,55,110,406.0,1.979167,Quarter,G3
1666,Right,0,58,100,406.166667,0.3125,TripletSixteenth,A#3
1667,Right,0,63,100,406.333333,0.3125,TripletSixteenth,D#4
1668,Right,0,67,100,406.5,0.3125,TripletSixteenth,G4
1669,Right,0,63,100,406.666667,0.3125,TripletSixteenth,D#4
1670,Right,0,58,100,406.833333,0.3125,TripletSixteenth,A#3
1671,Left,1,51,110,407.0,0.979167,Eighth,D#3
1672,Right,0,58,100,407.166667,0.3125,TripletSixteenth,A#3
1673,Right,0,63,100,407.333333,0.3125,TripletSixteenth,D#4
1674,Right,0,67,100,407.5,0.3125,TripletSixteenth,G4
1675,Right,0,63,100,407.666667,0.3125,TripletSixteenth,D#4
1676,Right,0,58,100,407.833333,0.3125,TripletSixteenth,A#3
1677,Left,1,47,110,408.0,2.979167,DottedQuarter,B2
1678,Right,0,59,100,408.166667,0.3125,TripletSixteenth,B3
1679,Right,0,62,100,408.333333,0.3125,TripletSixteenth,D4
1680,Right,0,68,100,408.5,0.3125,TripletSixteenth,G#4
1681,Right,0,65,100,408.666667,0.3125,TripletSixteenth,F4
1682,Right,0,62,100,408.833333,0.3125,TripletSixteenth,D4
1683,Left,1,56,110,409.0,1.979167,Quarter,G#3
1684,Right,0,59,100,409.166667,0.3125,TripletSixteenth,B3
1685,Right,0,62,100,409.333333,0.3125,TripletSixteenth,D4
1686,Right,0,68,100,409.5,0.3125,TripletSixteenth,G#4
1687,Right,0,65,100,409.666667,0.3125,TripletSixteenth,F4
1688,Right,0,62,100,409.833333,0.3125,TripletSixteenth,D4
1689,Left,1,53,110,410.0,0.979167,Eighth,F3
1690,Right,0,59,100,410.166667,0.3125,TripletSixteenth,B3
1691,Right,0,62,100,410.333333,0.3125,TripletSixteenth,D4
1692,Right,0,68,100,410.5,0.3125,TripletSixteenth,G#4
1693,Right,0,65,100,410.666667,0.3125,TripletSixteenth,F4
1694,Right,0,62,100,410.833333,0.3125,TripletSixteenth,D4
1695,Left,1,48,110,411.0,1.979167,Quarter,C3
1696,Right,0,60,100,411.166667,0.3125,TripletSixteenth,C4
1697,Right,0,65,100,411.333333,0.3125,TripletSixteenth,F4
1698,Right,0,69,100,411.5,0.3125,TripletSixteenth,A4
1699,Right,0,65,100,411.666667,0.3125,TripletSixteenth,F4
1700,Right,0,60,100,411.833333,0.3125,TripletSixteenth,C4
1701,Left,1,57,110,412.0,0.979167,Eighth,A3
1702,Right,0,60,100,412.166667,0.3125,TripletSixteenth,C4
1703,Right,0,65,100,412.333333,0.3125,TripletSixteenth,F4
1704,Right,0,69,100,412.5,0.3125,TripletSixteenth,A4
1705,Right,0,65,100,412.666667,0.3125,TripletSixteenth,F4
1706,Right,0,60,100,412.833333,0.3125,TripletSixteenth,C4
1707,Left,1,58,110,413.0,0.979167,Eighth,G3_E3_C#3_A#3
1711,Right,0,61,100,413.125,0.229167,ThirtySecond,C#4
1712,Right,0,64,100,413.25,0.229167,ThirtySecond,E4
1713,Right,0,67,100,413.375,0.229167,ThirtySecond,G4
1714,Right,0,70,100,413.5,0.229167,ThirtySecond,A#4
1715,Right,0,67,100,413.625,0.229167,ThirtySecond,G4
1716,Right,0,64,100,413.75,0.229167,ThirtySecond,E4
1717,Right,0,61,100,413.875,0.104167,SixtyFourth,C#4
1718,Left,1,50,110,414.0,1.979167,Quarter,D3
1719,Right,0,62,100,414.166667,0.3125,TripletSixteenth,D4
1720,Right,0,65,100,414.333333,0.3125,TripletSixteenth,F4
1721,Right,0,71,100,414.5,0.3125,TripletSixteenth,B4
1722,Right,0,68,100,414.666667,0.3125,TripletSixteenth,G#4
1723,Right,0,65,100,414.833333,0.3125,TripletSixteenth,F4
1724,Left,1,59,110,415.0,0.979167,Eighth,G#3_F3_B3
1727,Right,0,62,100,415.166667,0.3125,TripletSixteenth,D4
1728,Right,0,65,100,415.333333,0.3125,TripletSixteenth,F4
1729,Right,0,71,100,415.5,0.3125,TripletSixteenth,B4
1730,Right,0,68,100,415.666667,0.3125,TripletSixteenth,G#4
1731,Right,0,65,100,415.833333,0.3125,TripletSixteenth,F4
1732,Left,1,60,110,416.0,0.979167,Eighth,F#3_D#3_C4_A3
1736,Right,0,63,100,416.125,0.229167,ThirtySecond,D#4
1737,Right,0,66,100,416.25,0.229167,ThirtySecond,F#4
1738,Right,0,69,100,416.375,0.229167,ThirtySecond,A4
1739,Right,0,72,100,416.5,0.229167,ThirtySecond,C5
1740,Right,0,69,100,416.625,0.229167,ThirtySecond,A4
1741,Right,0,66,100,416.75,0.229167,ThirtySecond,F#4
1742,Right,0,63,100,416.875,0.104167,SixtyFourth,D#4
1743,Left,1,52,110,417.0,1.979167,Quarter,E3
1744,Right,0,64,100,417.166667,0.3125,TripletSixteenth,E4
1745,Right,0,67,100,417.333333,0.3125,TripletSixteenth,G4
1746,Right,0,73,100,417.5,0.3125,TripletSixteenth,C#5
1747,Right,0,70,100,417.666667,0.3125,TripletSixteenth,A#4
1748,Right,0,67,100,417.833333,0.3125,TripletSixteenth,G4
1749,Left,1,55,110,418.0,0.979167,Eighth,G3_C#4_A#3
1752,Right,0,64,100,418.166667,0.3125,TripletSixteenth,E4
1753,Right,0,67,100,418.333333,0.3125,TripletSixteenth,G4
1754,Right,0,73,100,418.5,0.3125,TripletSixteenth,C#5
1755,Right,0,70,100,418.666667,0.3125,TripletSixteenth,A#4
1756,Right,0,67,100,418.833333,0.3125,TripletSixteenth,G4
1757,Left,1,62,110,419.0,0.979167,Eighth,F3_D4_A3
1760,Right,0,65,100,419.166667,0.3125,TripletSixteenth,F4
1761,Right,0,69,100,419.333333,0.3125,TripletSixteenth,A4
1762,Right,0,74,100,419.5,0.3125,TripletSixteenth,D5
1763,Right,0,69,100,419.666667,0.3125,TripletSixteenth,A4
1764,Right,0,65,100,419.833333,0.145833,TripletThirtySecond,F4
1765,Left,1,55,125,420.0,2.979167,DottedQuarter,G3
1766,Right,0,67,125,420.125,0.229167,ThirtySecond,G4
1767,Right,0,70,125,420.25,0.229167,ThirtySecond,A#4
1768,Right,0,74,125,420.375,0.229167,ThirtySecond,D5
1769,Right,0,76,125,420.5,0.229167,ThirtySecond,E5
1770,Right,0,74,125,420.625,0.229167,ThirtySecond,D5
1771,Right,0,70,125,420.75,0.229167,ThirtySecond,A#4
1772,Right,0,67,125,420.875,0.229167,ThirtySecond,G4
1773,Left,1,64,125,421.0,0.979167,Eighth,E4_D4_A#3
1776,Right,0,67,125,421.125,0.229167,ThirtySecond,G4
1777,Right,0,70,125,421.25,0.229167,ThirtySecond,A#4
1778,Right,0,74,125,421.375,0.229167,ThirtySecond,D5
1779,Right,0,76,125,421.5,0.229167,ThirtySecond,E5
1780,Right,0,74,125,421.625,0.229167,ThirtySecond,D5
1781,Right,0,70,125,421.75,0.229167,ThirtySecond,A#4
1782,Right,0,67,125,421.875,0.229167,ThirtySecond,G4
1783,Left,1,64,125,422.0,0.979167,Eighth,E4_D4_A#3
1786,Right,0,67,125,422.125,0.229167,ThirtySecond,G4
1787,Right,0,70,125,422.25,0.229167,ThirtySecond,A#4
1788,Right,0,74,125,422.375,0.229167,ThirtySecond,D5
1789,Right,0,76,125,422.5,0.229167,ThirtySecond,E5
1790,Right,0,74,125,422.625,0.229167,ThirtySecond,D5
1791,Right,0,70,125,422.75,0.229167,ThirtySecond,A#4
1792,Right,0,67,125,422.875,0.229167,ThirtySecond,G4
1793,Left,1,56,125,423.0,2.979167,DottedQuarter,G#3
1794,Right,0,68,125,423.125,0.229167,ThirtySecond,G#4
1795,Right,0,71,125,423.25,0.229167,ThirtySecond,B4
1796,Right,0,74,125,423.375,0.229167,ThirtySecond,D5
1797,Right,0,76,125,423.5,0.229167,ThirtySecond,E5
1798,Right,0,74,125,423.625,0.229167,ThirtySecond,D5
1799,Right,0,71,125,423.75,0.229167,ThirtySecond,B4
1800,Right,0,68,125,423.875,0.229167,ThirtySecond,G#4
1801,Left,1,59,125,424.0,0.979167,Eighth,E4_D4_B3
1804,Right,0,68,125,424.125,0.229167,ThirtySecond,G#4
1805,Right,0,71,125,424.25,0.229167,ThirtySecond,B4
1806,Right,0,74,125,424.375,0.229167,ThirtySecond,D5
1807,Right,0,76,125,424.5,0.229167,ThirtySecond,E5
1808,Right,0,74,125,424.625,0.229167,ThirtySecond,D5
1809,Right,0,71,125,424.75,0.229167,ThirtySecond,B4
1810,Right,0,68,125,424.875,0.229167,ThirtySecond,G#4
1811,Left,1,64,125,425.0,0.979167,Eighth,E4_D4_B3
1814,Right,0,68,120,425.125,0.229167,ThirtySecond,G#4
1815,Right,0,71,120,425.25,0.229167,ThirtySecond,B4
1816,Right,0,74,120,425.375,0.229167,ThirtySecond,D5
1817,Right,0,76,120,425.5,0.229167,ThirtySecond,E5
1818,Right,0,74,120,425.625,0.229167,ThirtySecond,D5
1819,Right,0,71,120,425.75,0.229167,ThirtySecond,B4
1820,Right,0,68,120,425.875,0.114583,SixtyFourth,G#4
1822,Right,0,74,120,426.0,0.229167,ThirtySecond,F5_D5_A4
1821,Left,1,57,120,426.0,5.979167,DottedHalf,A3
1825,Right,0,86,80,426.25,0.229167,ThirtySecond,D6
1826,Right,0,88,80,426.5,0.229167,ThirtySecond,E6
1827,Right,0,89,80,426.75,0.229167,ThirtySecond,F6
1828,Left,1,62,80,427.0,0.979167,Eighth,F4_D4_A4
1831,Right,0,89,80,427.25,0.229167,ThirtySecond,F6
1832,Right,0,88,80,427.5,0.229167,ThirtySecond,E6
1833,Right,0,86,80,427.75,0.229167,ThirtySecond,D6
1834,Left,1,62,80,428.0,0.979167,Eighth,F4_D4_A4
1837,Right,0,85,80,428.25,0.229167,ThirtySecond,C#6
1838,Right,0,86,80,428.5,0.229167,ThirtySecond,D6
1839,Right,0,81,80,428.75,0.229167,ThirtySecond,A5
1840,Left,1,69,80,429.0,0.979167,Eighth,F4_D4_A4
1843,Right,0,80,80,429.25,0.229167,ThirtySecond,G#5
1844,Right,0,82,80,429.5,0.229167,ThirtySecond,A#5
1845,Right,0,81,80,429.75,0.229167,ThirtySecond,A5
1846,Left,1,69,80,430.0,0.979167,Eighth,F4_D4_A4
1849,Right,0,81,80,430.25,0.229167,ThirtySecond,A5
1850,Right,0,79,80,430.5,0.229167,ThirtySecond,G5
1851,Right,0,77,80,430.75,0.229167,ThirtySecond,F5
1852,Left,1,69,80,431.0,0.979167,Eighth,F4_D4_A4
1855,Right,0,77,80,431.25,0.229167,ThirtySecond,F5
1856,Right,0,76,80,431.5,0.229167,ThirtySecond,E5
1857,Right,0,74,80,431.75,0.229167,ThirtySecond,D5
1858,Left,1,57,80,432.0,2.979167,DottedQuarter,A3
1859,Right,0,79,80,432.25,0.229167,ThirtySecond,G5
1860,Right,0,81,80,432.5,0.229167,ThirtySecond,A5
1861,Right,0,82,80,432.75,0.229167,ThirtySecond,A#5
1862,Left,1,62,80,433.0,0.979167,Eighth,G4_E4_D4
1865,Right,0,82,80,433.25,0.229167,ThirtySecond,A#5
1866,Right,0,81,80,433.5,0.229167,ThirtySecond,A5
1867,Right,0,79,80,433.75,0.229167,ThirtySecond,G5
1868,Left,1,67,80,434.0,0.979167,Eighth,G4_E4_D4
1871,Right,0,79,80,434.25,0.229167,ThirtySecond,G5
1872,Right,0,77,80,434.5,0.229167,ThirtySecond,F5
1873,Right,0,76,80,434.75,0.229167,ThirtySecond,E5
1874,Left,1,57,80,435.0,2.979167,DottedQuarter,A3
1875,Right,0,76,80,435.25,0.229167,ThirtySecond,E5
1876,Right,0,74,80,435.5,0.229167,ThirtySecond,D5
1877,Right,0,73,80,435.75,0.229167,ThirtySecond,C#5
1878,Left,1,64,80,436.0,0.979167,Eighth,G4_E4_C#4
1881,Right,0,70,80,436.25,0.229167,ThirtySecond,A#4
1882,Right,0,69,80,436.5,0.229167,ThirtySecond,A4
1883,Right,0,67,80,436.75,0.229167,ThirtySecond,G4
1884,Left,1,64,80,437.0,0.979167,Eighth,E4_C#4
1886,Right,0,67,80,437.25,0.229167,ThirtySecond,G4
1887,Right,0,65,80,437.5,0.229167,ThirtySecond,F4
1888,Right,0,64,80,437.75,0.229167,ThirtySecond,E4
1889,Left,1,45,102,438.0,5.979167,DottedHalf,A2
1890,Right,0,74,80,438.25,0.229167,ThirtySecond,D5
1891,Right,0,76,80,438.5,0.229167,ThirtySecond,E5
1892,Right,0,77,80,438.75,0.229167,ThirtySecond,F5
1893,Left,1,57,80,439.0,0.979167,Eighth,F3_D3_A3
1896,Right,0,77,80,439.25,0.229167,ThirtySecond,F5
1897,Right,0,76,80,439.5,0.229167,ThirtySecond,E5
1898,Right,0,74,80,439.75,0.229167,ThirtySecond,D5
1899,Left,1,50,80,440.0,0.979167,Eighth,F3_D3_A3
1902,Right,0,73,80,440.25,0.229167,ThirtySecond,C#5
1903,Right,0,74,80,440.5,0.229167,ThirtySecond,D5
1904,Right,0,69,80,440.75,0.229167,ThirtySecond,A4
1905,Left,1,57,80,441.0,0.979167,Eighth,F3_D3_A3
1908,Right,0,68,80,441.25,0.229167,ThirtySecond,G#4
1909,Right,0,70,80,441.5,0.229167,ThirtySecond,A#4
1910,Right,0,69,80,441.75,0.229167,ThirtySecond,A4
1911,Left,1,53,80,442.0,0.979167,Eighth,F3_D3_A3
1914,Right,0,69,80,442.25,0.229167,ThirtySecond,A4
1915,Right,0,67,80,442.5,0.229167,ThirtySecond,G4
1916,Right,0,65,80,442.75,0.229167,ThirtySecond,F4
1917,Left,1,50,80,443.0,0.979167,Eighth,F3_D3_A3
1920,Right,0,65,80,443.25,0.229167,ThirtySecond,F4
1921,Right,0,64,80,443.5,0.229167,ThirtySecond,E4
1922,Right,0,62,80,443.75,0.229167,ThirtySecond,D4
1923,Left,1,45,80,444.0,2.979167,DottedQuarter,A2
1924,Right,0,67,80,444.25,0.229167,ThirtySecond,G4
1925,Right,0,69,80,444.5,0.229167,ThirtySecond,A4
1926,Right,0,70,80,444.75,0.229167,ThirtySecond,A#4
1927,Left,1,50,80,445.0,0.979167,Eighth,G3_E3_D3
1930,Right,0,70,80,445.25,0.229167,ThirtySecond,A#4
1931,Right,0,69,80,445.5,0.229167,ThirtySecond,A4
1932,Right,0,67,80,445.75,0.229167,ThirtySecond,G4
1933,Left,1,50,80,446.0,0.979167,Eighth,G3_E3_D3
1936,Right,0,67,80,446.25,0.229167,ThirtySecond,G4
1937,Right,0,65,80,446.5,0.229167,ThirtySecond,F4
1938,Right,0,64,80,446.75,0.229167,ThirtySecond,E4
1939,Left,1,45,80,447.0,2.979167,DottedQuarter,A2
1940,Right,0,64,80,447.25,0.229167,ThirtySecond,E4
1941,Right,0,62,80,447.5,0.229167,ThirtySecond,D4
1942,Right,0,61,80,447.75,0.229167,ThirtySecond,C#4
1943,Left,1,49,80,448.0,0.979167,Eighth,G3_E3_C#3
1946,Right,0,58,80,448.25,0.229167,ThirtySecond,A#3
1947,Right,0,57,80,448.5,0.229167,ThirtySecond,A3
1948,Right,0,55,80,448.75,0.229167,ThirtySecond,G3
1949,Left,1,49,80,449.0,0.979167,Eighth,E3_C#3
1951,Right,0,55,80,449.25,0.229167,ThirtySecond,G3
1952,Right,0,53,80,449.5,0.229167,ThirtySecond,F3
1953,Right,0,52,80,449.75,0.229167,ThirtySecond,E3
1954,Left,1,38,80,450.0,1.979167,Quarter,D3_D2
1956,Right,0,77,70,453.0,0.979167,Eighth,F5
1957,Right,0,73,70,454.0,0.979167,Eighth,C#5
1958,Right,0,74,70,455.0,0.979167,Eighth,D5
1959,Right,0,74,70,456.0,2.979167,DottedQuarter,D5_A#5_A#4
1961,Left,1,67,70,456.0,2.979167,DottedQuarter,G4_G3_D4
1965,Right,0,82,70,459.0,0.979167,Eighth,A#5
1966,Right,0,73,70,460.0,0.979167,Eighth,C#5
1967,Right,0,74,70,461.0,0.979167,Eighth,D5
1968,Right,0,81,70,462.0,2.979167,DottedQuarter,D5_A5_A4
1971,Left,1,53,70,462.0,2.979167,DottedQuarter,F4_F3_D4
1974,Right,0,89,70,465.0,0.979167,Eighth,F6
1975,Right,0,85,70,466.0,0.979167,Eighth,C#6
1976,Right,0,86,70,467.0,0.979167,Eighth,D6
1978,Left,1,74,70,468.0,0.979167,Eighth,D5
1977,Right,0,86,70,468.0,0.979167,Eighth,D6
1979,Right,0,81,70,469.0,0.979167,Eighth,A5
1980,Left,1,69,70,469.0,0.979167,Eighth,A4
1982,Right,0,82,70,470.0,0.979167,Eighth,A#5
1981,Left,1,70,70,470.0,0.979167,Eighth,A#4
1984,Right,0,82,70,471.0,0.979167,Eighth,A#5
1983,Left,1,70,70,471.0,0.979167,Eighth,A#4
1985,Right,0,78,75,472.0,0.979167,Eighth,F#5
1986,Left,1,66,75,472.0,0.979167,Eighth,F#4
1988,Right,0,79,81,473.0,0.979167,Eighth,G5
1987,Left,1,67,81,473.0,0.979167,Eighth,G4
1989,Left,1,67,87,474.0,0.979167,Eighth,G4
1990,Right,0,79,87,474.0,0.979167,Eighth,G5
1991,Right,0,74,93,475.0,0.979167,Eighth,D5
1992,Left,1,62,93,475.0,0.979167,Eighth,D4
1994,Right,0,75,99,476.0,0.979167,Eighth,D#5
1993,Left,1,63,99,476.0,0.979167,Eighth,D#4
1996,Right,0,75,110,477.0,1.979167,Quarter,D#5_D#4
1995,Left,1,51,110,477.0,1.979167,Quarter,D#3
1999,Right,0,74,110,479.0,0.979167,Eighth,D5_D4
1998,Left,1,50,110,479.0,0.979167,Eighth,D3
2002,Right,0,73,110,480.0,1.979167,Quarter,C#5_C#4
2001,Left,1,49,110,480.0,1.979167,Quarter,C#3
2004,Right,0,80,70,483.0,1.979167,Quarter,G#5
2005,Right,0,81,70,485.0,0.979167,Eighth,A5
2007,Left,1,50,70,486.0,2.979167,DottedQuarter,D3_D2
2006,Right,0,57,70,486.0,2.979167,DottedQuarter,F4_D4_A3
2011,Right,0,80,91,489.0,1.979167,Quarter,G#5
2012,Right,0,81,70,491.0,0.979167,Eighth,A5
2013,Left,1,45,70,492.0,2.979167,DottedQuarter,A2_A1
2015,Right,0,55,70,492.0,2.979167,DottedQuarter,G3_E4_C#4
2018,Right,0,80,89,495.0,1.979167,Quarter,G#5
2019,Right,0,81,70,497.0,0.979167,Eighth,A5
2020,Left,1,38,70,498.0,2.979167,DottedQuarter,D3_D2
2022,Left,1,50,70,500.0,0.979167,Eighth,D3_A#2
2023,Right,0,62,70,500.0,0.979167,Eighth,G3_D4
2028,Left,1,38,80,501.0,2.979167,DottedQuarter,D3_D2
2026,Right,0,62,80,501.0,1.979167,Quarter,F3_D4
2030,Left,1,50,70,503.0,0.979167,Eighth,G2_D3
2032,Right,0,61,70,503.0,0.979167,Eighth,E3_D4_C#4_A#3
2036,Right,0,62,70,504.0,1.979167,Quarter,F3_D4_A3
2037,Left,1,38,70,504.0,2.979167,Quarter,F2_D3_D2
2043,Right,0,55,70,506.0,0.979167,Eighth,G3_D4
2042,Left,1,46,70,506.0,0.979167,Eighth,D3_A#2
2046,Right,0,53,80,507.0,1.979167,Quarter,F3_D4
2047,Left,1,50,80,507.0,2.979167,Quarter,D3_D2
2050,Right,0,61,70,509.0,0.979167,Eighth,E3_D4_C#4_A#3
2053,Left,1,50,70,509.0,0.979167,Eighth,G2_D3
2059,Right,0,62,70,510.0,1.979167,Quarter,F3_D4_A3
2056,Left,1,45,70,510.0,1.979167,Quarter,F2_D3_D2_A2
2063,Right,0,73,70,512.0,0.979167,Eighth,C#5
2064,Right,0,74,70,513.0,0.979167,Eighth,D5
2065,Right,0,85,70,515.0,0.979167,Eighth,C#6
2066,Right,0,86,70,516.0,0.979167,Eighth,D6
2067,Left,1,38,70,518.0,0.979167,Eighth,D2
2068,Left,1,38,70,519.0,1.979167,Quarter,D2
