,hand,channel,note,velocity,start_beat,duration,note_value,chord
1,Left,1,41,80,0.5,0.489583,Eighth,F3_F2_C3
0,Right,0,69,80,0.5,0.489583,Eighth,F4_C4_A4_A3
7,Right,0,72,80,1.0,0.989583,Quarter,F4_C5_C4_A4
8,Left,1,48,80,1.0,0.989583,Quarter,F3_F2_C3
14,Right,0,72,80,2.5,0.15625,TripletSixteenth,C5
15,Right,0,71,80,2.666667,0.15625,TripletSixteenth,B4
16,Right,0,74,80,2.833333,0.15625,TripletSixteenth,D5
17,Right,0,72,80,3.0,0.989583,Quarter,C5
20,Left,1,41,80,4.5,0.489583,Eighth,F3_F2_C3
18,Right,0,69,80,4.5,0.489583,Eighth,F4_C4_A4
24,Left,1,52,80,5.0,0.989583,Quarter,E3_E2_C3
27,Right,0,70,80,5.0,0.989583,Quarter,G4_C4_A#4
30,Right,0,70,80,6.5,0.15625,TripletSixteenth,A#4
31,Right,0,69,80,6.666667,0.15625,TripletSixteenth,A4
32,Right,0,72,80,6.833333,0.15625,TripletSixteenth,C5
33,Right,0,70,80,7.0,0.989583,Quarter,A#4
34,Right,0,70,80,8.5,0.489583,Eighth,A#4
38,Right,0,69,80,9.0,0.364583,DottedSixteenth,A4
35,Left,1,57,80,9.0,0.989583,Quarter,F3_C4_A3
39,Right,0,72,82,9.375,0.114583,ThirtySecond,C5
40,Right,0,77,83,9.5,0.989583,Quarter,F5
41,Left,1,58,87,10.0,0.989583,Quarter,G3_C4_A#3
44,Right,0,76,91,10.5,0.489583,Eighth,E5
45,Left,1,60,95,11.0,0.989583,Quarter,F4_C4_A3
48,Right,0,77,95,11.0,0.489583,Eighth,F5
49,Right,0,81,99,11.5,0.989583,Quarter,A5
50,Left,1,67,90,12.0,0.989583,Quarter,G4_F4_D4_A#3
54,Right,0,79,90,12.5,0.989583,Quarter,G5
55,Left,1,65,90,13.0,0.989583,Quarter,F4_C4_A4
58,Right,0,81,80,13.5,0.989583,Quarter,A5
59,Left,1,63,80,14.0,0.989583,Quarter,F4_D#4_C5_A4
63,Right,0,82,80,14.5,0.239583,Sixteenth,A#5
64,Right,0,84,80,14.75,0.239583,Sixteenth,C6
67,Right,0,84,80,15.0,0.489583,Eighth,C6
65,Left,1,70,80,15.0,0.989583,Quarter,F4_D4_A#4
69,Right,0,82,80,15.5,0.489583,Eighth,A#5
71,Left,1,70,80,17.0,0.989583,Quarter,F4_D4_A#4
70,Right,0,82,80,17.0,0.239583,Sixteenth,A#5
74,Right,0,84,80,17.125,0.239583,Sixteenth,C6
75,Right,0,81,80,17.25,0.239583,Sixteenth,A5
76,Right,0,82,80,17.375,0.239583,Sixteenth,A#5
77,Right,0,86,80,17.5,0.989583,Quarter,D6
78,Left,1,64,80,18.0,0.989583,Quarter,G4_E4_C5
81,Right,0,84,80,18.5,0.239583,Sixteenth,C6
82,Right,0,82,80,18.75,0.239583,Sixteenth,A#5
86,Right,0,81,80,19.0,0.239583,Sixteenth,A5
83,Left,1,65,80,19.0,0.989583,Quarter,F4_C5_A4
87,Right,0,82,80,19.125,0.239583,Sixteenth,A#5
88,Right,0,84,80,19.25,0.239583,Sixteenth,C6
89,Right,0,82,80,19.375,0.239583,Sixteenth,A#5
90,Right,0,81,80,19.5,0.864583,DottedEighth,A5
91,Left,1,62,80,20.0,0.989583,Quarter,G4_D4_A#3
94,Right,0,79,80,20.375,0.114583,ThirtySecond,G5
95,Right,0,82,80,20.5,0.364583,DottedSixteenth,A#5
96,Right,0,79,80,20.875,0.114583,ThirtySecond,G5
99,Right,0,79,80,21.0,0.489583,Eighth,G5
97,Left,1,60,80,21.0,0.989583,Quarter,F4_C4_A4
101,Right,0,77,80,21.5,0.864583,DottedEighth,F5
102,Left,1,60,80,22.0,0.989583,Quarter,G4_C4_A#4
105,Right,0,76,80,22.375,0.114583,ThirtySecond,E5
106,Right,0,79,80,22.5,0.364583,DottedSixteenth,G5
107,Right,0,76,80,22.875,0.114583,ThirtySecond,E5
108,Right,0,77,80,23.0,0.989583,Quarter,F5
109,Left,1,65,80,23.0,0.989583,Quarter,F4_A4
111,Right,0,60,80,24.5,0.489583,Eighth,F4_C4_A4_A3
112,Left,1,41,80,24.5,0.489583,Eighth,F3_F2_C3
122,Left,1,48,80,25.0,0.989583,Quarter,F3_F2_C3
118,Right,0,65,80,25.0,0.989583,Quarter,F4_C5_C4_A4
125,Right,0,72,80,26.5,0.15625,TripletSixteenth,C5
126,Right,0,71,80,26.666667,0.15625,TripletSixteenth,B4
127,Right,0,74,80,26.833333,0.15625,TripletSixteenth,D5
128,Right,0,72,80,27.0,0.989583,Quarter,C5
129,Right,0,63,80,28.5,0.489583,Eighth,D#4_C4_A4_A3
133,Left,1,41,80,28.5,0.489583,Eighth,F2_D#3_C3
137,Right,0,63,80,29.0,0.989583,Quarter,D#4_C5_C4_A4
136,Left,1,41,80,29.0,0.989583,Quarter,F2_D#3_C3
143,Right,0,72,80,30.5,0.15625,TripletSixteenth,C5
144,Right,0,71,80,30.666667,0.15625,TripletSixteenth,B4
145,Right,0,74,80,30.833333,0.15625,TripletSixteenth,D5
146,Right,0,72,80,31.0,0.989583,Quarter,C5
147,Right,0,63,110,32.5,0.489583,Eighth,D#4_C5
148,Left,1,53,110,32.5,0.489583,Eighth,F3_A3
151,Left,1,59,110,32.666667,0.15625,TripletSixteenth,B3
152,Right,0,71,110,32.666667,0.15625,TripletSixteenth,B4
154,Left,1,60,110,32.833333,0.15625,TripletSixteenth,C4
153,Right,0,69,110,32.833333,0.15625,TripletSixteenth,A4
156,Left,1,52,110,33.0,0.489583,Eighth,G#3_E3
155,Right,0,76,110,33.0,0.489583,Eighth,E5_E4
160,Left,1,53,110,33.5,0.489583,Eighth,F3_A3
159,Right,0,63,110,33.5,0.489583,Eighth,D#4_C5
163,Left,1,59,110,33.666667,0.15625,TripletSixteenth,B3
164,Right,0,71,110,33.666667,0.15625,TripletSixteenth,B4
165,Left,1,60,110,33.833333,0.15625,TripletSixteenth,C4
166,Right,0,69,110,33.833333,0.15625,TripletSixteenth,A4
168,Left,1,52,110,34.0,0.489583,Eighth,G#3_E3
167,Right,0,76,110,34.0,0.489583,Eighth,E5_E4
171,Left,1,53,110,34.5,0.489583,Eighth,F3_A3
172,Right,0,72,110,34.5,0.489583,TripletSixteenth,D#4_C5
176,Left,1,59,110,34.666667,0.15625,TripletSixteenth,B3
175,Right,0,71,110,34.666667,0.15625,TripletSixteenth,B4
178,Right,0,69,110,34.833333,0.15625,TripletSixteenth,A4
177,Left,1,60,110,34.833333,0.15625,TripletSixteenth,C4
179,Right,0,64,110,35.0,0.989583,Quarter,E5_E4
181,Left,1,56,110,35.0,0.989583,Quarter,G#3_E3
184,Left,1,43,80,36.5,0.239583,Sixteenth,G2
183,Right,0,55,80,36.5,0.489583,Eighth,G4_G3
186,Left,1,47,80,36.75,0.239583,Sixteenth,B2
187,Right,0,64,80,37.0,0.989583,Quarter,E4_E3
188,Left,1,48,80,37.0,0.239583,Sixteenth,C3
190,Left,1,52,81,37.25,0.239583,Sixteenth,E3
191,Left,1,43,82,37.5,0.239583,Sixteenth,G2
192,Left,1,47,83,37.75,0.239583,Sixteenth,B2
193,Right,0,55,84,38.0,0.989583,Quarter,G4_G3_E4_C4
197,Left,1,48,84,38.0,0.239583,Sixteenth,C3
198,Left,1,52,85,38.25,0.239583,Sixteenth,E3
199,Left,1,43,87,38.5,0.239583,Sixteenth,G2
200,Left,1,47,88,38.75,0.239583,Sixteenth,B2
205,Left,1,48,89,39.0,0.239583,Sixteenth,C3
201,Right,0,72,89,39.0,1.489583,DottedQuarter,G4_E4_C5_C4
206,Left,1,52,90,39.25,0.239583,Sixteenth,E3
207,Left,1,43,91,39.5,0.239583,Sixteenth,G2
208,Left,1,47,92,39.75,0.239583,Sixteenth,B2
209,Left,1,48,94,40.0,0.239583,Sixteenth,C3
210,Left,1,52,95,40.25,0.239583,Sixteenth,E3
212,Left,1,43,96,40.5,0.239583,Sixteenth,G2
211,Right,0,64,96,40.5,0.489583,Eighth,E5_E4
214,Left,1,47,97,40.75,0.239583,Sixteenth,B2
217,Left,1,48,98,41.0,0.239583,Sixteenth,C3
215,Right,0,67,98,41.0,0.489583,Eighth,G5_G4
218,Left,1,52,99,41.25,0.239583,Sixteenth,E3
219,Right,0,84,110,41.5,0.989583,Quarter,C6_C5
221,Left,1,43,110,41.5,0.239583,Sixteenth,G2
222,Left,1,47,110,41.75,0.239583,Sixteenth,B2
223,Left,1,48,110,42.0,0.239583,Sixteenth,C3
224,Left,1,52,110,42.25,0.239583,Sixteenth,E3
225,Right,0,76,110,42.5,0.239583,Sixteenth,E6_E5
227,Left,1,43,110,42.5,0.239583,Sixteenth,G2
229,Left,1,48,100,42.75,0.239583,Sixteenth,C3
228,Right,0,74,100,42.75,0.239583,Sixteenth,D6_D5
232,Right,0,84,98,43.0,0.989583,Quarter,C6_C5
231,Left,1,50,98,43.0,0.239583,Sixteenth,D3
234,Left,1,53,96,43.25,0.239583,Sixteenth,F3
235,Left,1,43,93,43.5,0.239583,Sixteenth,G2
236,Left,1,49,91,43.75,0.239583,Sixteenth,C#3
238,Right,0,83,88,44.0,0.489583,Eighth,B5_B4
237,Left,1,50,88,44.0,0.239583,Sixteenth,D3
240,Left,1,53,86,44.25,0.239583,Sixteenth,F3
241,Left,1,43,83,44.5,0.239583,Sixteenth,G2
242,Left,1,49,81,44.75,0.239583,Sixteenth,C#3
243,Right,0,62,80,45.0,0.989583,Quarter,F4_D4_B4_B3
246,Left,1,50,80,45.0,0.239583,Sixteenth,D3
248,Left,1,53,81,45.25,0.239583,Sixteenth,F3
249,Left,1,43,82,45.5,0.239583,Sixteenth,G2
250,Left,1,49,83,45.75,0.239583,Sixteenth,C#3
251,Right,0,62,84,46.0,0.989583,Quarter,F4_D5_D4_B4
254,Left,1,50,84,46.0,0.239583,Sixteenth,D3
256,Left,1,53,85,46.25,0.239583,Sixteenth,F3
257,Left,1,43,87,46.5,0.239583,Sixteenth,G2
258,Left,1,49,88,46.75,0.239583,Sixteenth,C#3
260,Right,0,65,89,47.0,1.489583,DottedQuarter,F5_F4_D5_B4
259,Left,1,50,89,47.0,0.239583,Sixteenth,D3
264,Left,1,53,90,47.25,0.239583,Sixteenth,F3
265,Left,1,43,91,47.5,0.239583,Sixteenth,G2
266,Left,1,49,92,47.75,0.239583,Sixteenth,C#3
267,Left,1,50,94,48.0,0.239583,Sixteenth,D3
268,Left,1,53,95,48.25,0.239583,Sixteenth,F3
269,Right,0,83,96,48.5,0.489583,Eighth,B5_B4
270,Left,1,43,96,48.5,0.239583,Sixteenth,G2
272,Left,1,49,97,48.75,0.239583,Sixteenth,C#3
275,Left,1,50,98,49.0,0.239583,Sixteenth,D3
273,Right,0,74,98,49.0,0.489583,Eighth,D6_D5
276,Left,1,53,99,49.25,0.239583,Sixteenth,F3
277,Left,1,43,110,49.5,0.239583,Sixteenth,G2
278,Right,0,77,110,49.5,0.989583,Quarter,F6_F5
280,Left,1,49,110,49.75,0.239583,Sixteenth,C#3
281,Left,1,50,110,50.0,0.239583,Sixteenth,D3
282,Left,1,53,110,50.25,0.239583,Sixteenth,F3
284,Left,1,43,110,50.5,0.239583,Sixteenth,G2
283,Right,0,76,110,50.5,0.489583,Eighth,E6_E5
286,Left,1,50,110,50.75,0.239583,Sixteenth,D3
289,Left,1,52,100,51.0,0.239583,Sixteenth,E3
287,Right,0,86,100,51.0,0.989583,Quarter,D6_D5
290,Left,1,55,98,51.25,0.239583,Sixteenth,G3
291,Left,1,48,95,51.5,0.239583,Sixteenth,C3
292,Left,1,51,92,51.75,0.239583,Sixteenth,D#3
293,Left,1,52,89,52.0,0.239583,Sixteenth,E3
294,Right,0,84,89,52.0,0.489583,Eighth,C6_C5
296,Left,1,55,86,52.25,0.239583,Sixteenth,G3
297,Left,1,52,83,52.5,0.239583,Sixteenth,E3
298,Left,1,50,81,52.75,0.239583,Sixteenth,D3
299,Right,0,64,120,53.0,0.989583,Quarter,G4_E5_E4_C5
303,Left,1,48,120,53.0,0.239583,Sixteenth,C3
304,Left,1,60,120,53.25,0.239583,Sixteenth,C4
305,Left,1,64,120,53.5,0.239583,Sixteenth,E4
306,Left,1,62,120,53.75,0.239583,Sixteenth,D4
307,Right,0,67,120,54.0,0.989583,Quarter,G5_G4_E5_C5
309,Left,1,60,120,54.0,0.239583,Sixteenth,C4
312,Left,1,64,120,54.25,0.239583,Sixteenth,E4
313,Left,1,60,120,54.5,0.239583,Sixteenth,C4
314,Left,1,59,120,54.75,0.239583,Sixteenth,B3
316,Right,0,84,120,55.0,1.489583,DottedQuarter,C6_C5
315,Left,1,57,120,55.0,0.239583,Sixteenth,A3
318,Left,1,60,120,55.25,0.239583,Sixteenth,C4
319,Left,1,57,120,55.5,0.239583,Sixteenth,A3
320,Left,1,55,120,55.75,0.239583,Sixteenth,G3
321,Left,1,54,120,56.0,0.239583,Sixteenth,F#3
322,Left,1,57,120,56.25,0.239583,Sixteenth,A3
324,Left,1,54,120,56.5,0.239583,Sixteenth,F#3
323,Right,0,73,120,56.5,0.989583,Quarter,C#6_C#5
326,Left,1,52,120,56.75,0.239583,Sixteenth,E3
327,Left,1,50,120,57.0,0.239583,Sixteenth,D3
328,Left,1,52,120,57.25,0.239583,Sixteenth,E3
329,Left,1,54,120,57.5,0.239583,Sixteenth,F#3
330,Right,0,86,120,57.5,0.989583,Quarter,D6_D5
332,Left,1,55,120,57.75,0.239583,Sixteenth,G3
333,Left,1,57,120,58.0,0.239583,Sixteenth,A3
334,Left,1,50,120,58.25,0.239583,Sixteenth,D3
337,Left,1,52,120,58.5,0.239583,Sixteenth,E3
335,Right,0,84,120,58.5,0.489583,Eighth,C6_C5
338,Left,1,54,120,58.75,0.239583,Sixteenth,F#3
341,Left,1,55,120,59.0,0.989583,Quarter,G3
339,Right,0,84,120,59.0,0.489583,Eighth,C6_C5
342,Left,1,59,120,59.166667,0.15625,TripletSixteenth,B3
343,Left,1,62,120,59.333333,0.15625,TripletSixteenth,D4
345,Left,1,59,120,59.5,0.15625,TripletSixteenth,B3
344,Right,0,71,120,59.5,0.489583,Eighth,B5_B4
347,Left,1,62,120,59.666667,0.15625,TripletSixteenth,D4
348,Left,1,59,120,59.833333,0.15625,TripletSixteenth,B3
349,Left,1,55,120,60.0,0.989583,Quarter,G3
350,Left,1,60,120,60.166667,0.15625,TripletSixteenth,C4
351,Left,1,62,120,60.333333,0.15625,TripletSixteenth,D4
352,Left,1,60,100,60.5,0.15625,TripletSixteenth,C4
353,Right,0,72,100,60.5,0.489583,Eighth,F#5_C5
355,Left,1,62,100,60.666667,0.15625,TripletSixteenth,D4
356,Left,1,60,100,60.833333,0.15625,TripletSixteenth,C4
357,Left,1,55,100,61.0,0.989583,Quarter,G3
358,Right,0,79,100,61.0,0.989583,Quarter,G5_C5
360,Left,1,59,100,61.166667,0.15625,TripletSixteenth,B3
361,Left,1,62,100,61.333333,0.15625,TripletSixteenth,D4
363,Left,1,59,100,61.5,0.15625,TripletSixteenth,B3
362,Right,0,71,100,61.5,0.489583,Eighth,B4
364,Left,1,62,100,61.666667,0.15625,TripletSixteenth,D4
365,Left,1,59,100,61.833333,0.15625,TripletSixteenth,B3
366,Left,1,54,100,62.0,0.989583,Quarter,F#3
367,Left,1,57,100,62.166667,0.15625,TripletSixteenth,A3
368,Left,1,62,100,62.333333,0.15625,TripletSixteenth,D4
369,Right,0,84,100,62.5,0.489583,Eighth,C6
370,Left,1,57,100,62.5,0.15625,TripletSixteenth,A3
371,Left,1,62,100,62.666667,0.15625,TripletSixteenth,D4
372,Left,1,57,100,62.833333,0.15625,TripletSixteenth,A3
374,Right,0,84,100,63.0,0.239583,Sixteenth,C6
373,Left,1,55,100,63.0,0.989583,Quarter,G3
375,Left,1,59,100,63.166667,0.15625,TripletSixteenth,B3
376,Right,0,83,100,63.25,0.239583,Sixteenth,B5
377,Left,1,62,100,63.333333,0.15625,TripletSixteenth,D4
379,Right,0,81,100,63.5,0.239583,Sixteenth,A5
378,Left,1,59,100,63.5,0.15625,TripletSixteenth,B3
380,Left,1,62,100,63.666667,0.15625,TripletSixteenth,D4
381,Right,0,79,100,63.75,0.239583,Sixteenth,G5
382,Left,1,59,100,63.833333,0.15625,TripletSixteenth,B3
383,Left,1,55,100,64.0,0.989583,Quarter,G3
384,Left,1,60,100,64.166667,0.15625,TripletSixteenth,C4
385,Left,1,62,100,64.333333,0.15625,TripletSixteenth,D4
388,Left,1,60,100,64.5,0.15625,TripletSixteenth,C4
386,Right,0,72,100,64.5,0.489583,Eighth,F#5_C5
389,Left,1,62,100,64.666667,0.15625,TripletSixteenth,D4
390,Left,1,60,100,64.833333,0.15625,TripletSixteenth,C4
392,Left,1,55,100,65.0,0.989583,Quarter,G3
391,Right,0,72,100,65.0,0.989583,Sixteenth,G5_C5
394,Left,1,59,100,65.166667,0.15625,TripletSixteenth,B3
395,Right,0,71,100,65.25,0.239583,Sixteenth,B4
396,Left,1,62,100,65.333333,0.15625,TripletSixteenth,D4
397,Left,1,59,100,65.5,0.15625,TripletSixteenth,B3
398,Right,0,69,100,65.5,0.239583,Sixteenth,A4
399,Left,1,62,100,65.666667,0.15625,TripletSixteenth,D4
400,Right,0,67,100,65.75,0.239583,Sixteenth,G4
401,Left,1,59,100,65.833333,0.15625,TripletSixteenth,B3
402,Left,1,54,100,66.0,0.989583,Quarter,F#3
403,Left,1,57,100,66.166667,0.15625,TripletSixteenth,A3
404,Left,1,62,100,66.333333,0.15625,TripletSixteenth,D4
406,Right,0,84,117,66.5,0.489583,Eighth,C6
405,Left,1,57,100,66.5,0.15625,TripletSixteenth,A3
407,Left,1,62,100,66.666667,0.15625,TripletSixteenth,D4
408,Left,1,57,100,66.833333,0.15625,TripletSixteenth,A3
410,Left,1,55,100,67.0,0.989583,Quarter,G3
409,Right,0,84,100,67.0,0.239583,Sixteenth,C6
411,Left,1,59,100,67.166667,0.15625,TripletSixteenth,B3
412,Right,0,83,100,67.25,0.239583,Sixteenth,B5
413,Left,1,62,100,67.333333,0.15625,TripletSixteenth,D4
415,Right,0,81,100,67.5,0.239583,Sixteenth,A5
414,Left,1,59,100,67.5,0.15625,TripletSixteenth,B3
416,Left,1,62,100,67.666667,0.15625,TripletSixteenth,D4
417,Right,0,79,100,67.75,0.239583,Sixteenth,G5
418,Left,1,59,100,67.833333,0.15625,TripletSixteenth,B3
419,Left,1,54,100,68.0,0.989583,Quarter,F#3
420,Left,1,57,100,68.166667,0.15625,TripletSixteenth,A3
421,Left,1,62,100,68.333333,0.15625,TripletSixteenth,D4
423,Right,0,84,117,68.5,0.489583,Eighth,C6
422,Left,1,57,100,68.5,0.15625,TripletSixteenth,A3
424,Left,1,62,100,68.666667,0.15625,TripletSixteenth,D4
425,Left,1,57,100,68.833333,0.15625,TripletSixteenth,A3
427,Right,0,84,100,69.0,0.239583,Sixteenth,C6
426,Left,1,55,100,69.0,0.989583,Quarter,G3
428,Left,1,59,100,69.166667,0.15625,TripletSixteenth,B3
429,Right,0,83,100,69.25,0.239583,Sixteenth,B5
430,Left,1,62,100,69.333333,0.15625,TripletSixteenth,D4
431,Left,1,59,100,69.5,0.15625,TripletSixteenth,B3
432,Right,0,81,100,69.5,0.239583,Sixteenth,A5
433,Left,1,62,100,69.666667,0.15625,TripletSixteenth,D4
434,Right,0,79,100,69.75,0.239583,Sixteenth,G5
435,Left,1,59,100,69.833333,0.15625,TripletSixteenth,B3
436,Left,1,54,100,70.0,0.989583,Quarter,F#3
437,Left,1,57,100,70.166667,0.15625,TripletSixteenth,A3
438,Left,1,62,100,70.333333,0.15625,TripletSixteenth,D4
440,Left,1,57,100,70.5,0.15625,TripletSixteenth,A3
439,Right,0,84,121,70.5,0.489583,Eighth,C6
441,Left,1,62,100,70.666667,0.15625,TripletSixteenth,D4
442,Left,1,57,100,70.833333,0.15625,TripletSixteenth,A3
445,Right,0,84,80,71.0,0.239583,Sixteenth,C6
443,Left,1,62,80,71.0,0.489583,Eighth,G3_D4_B3
447,Right,0,83,80,71.25,0.239583,Sixteenth,B5
448,Right,0,81,80,71.5,0.239583,Sixteenth,A5
449,Right,0,79,80,71.75,0.239583,Sixteenth,G5
450,Right,0,78,80,72.0,0.239583,Sixteenth,F#5
451,Right,0,79,80,72.25,0.239583,Sixteenth,G5
452,Right,0,81,80,72.5,0.239583,Sixteenth,A5
453,Right,0,79,80,72.75,0.239583,Sixteenth,G5
454,Right,0,78,80,73.0,0.239583,Sixteenth,F#5
455,Right,0,79,80,73.25,0.239583,Sixteenth,G5
456,Right,0,81,80,73.5,0.239583,Sixteenth,A5
457,Right,0,79,80,73.75,0.239583,Sixteenth,G5
458,Right,0,78,80,74.0,0.239583,Sixteenth,F#5
459,Right,0,79,80,74.25,0.239583,Sixteenth,G5
460,Right,0,80,80,74.5,0.239583,Sixteenth,G#5
461,Right,0,81,80,74.75,0.239583,Sixteenth,A5
464,Right,0,81,80,75.0,0.489583,Eighth,A5
462,Left,1,67,80,75.0,0.989583,Quarter,G4_F4
466,Left,1,62,80,75.5,0.489583,Eighth,D4
465,Right,0,77,80,75.5,0.489583,Eighth,F5
467,Right,0,74,80,76.0,0.489583,Eighth,D5
468,Left,1,67,80,76.0,0.489583,Eighth,G4_B3
471,Left,1,67,80,76.5,0.489583,Eighth,G4_C4
470,Right,0,77,80,76.5,0.239583,Sixteenth,F5
473,Right,0,76,80,76.625,0.239583,Sixteenth,E5
474,Right,0,74,80,76.75,0.239583,Sixteenth,D5
475,Right,0,76,80,76.875,0.114583,ThirtySecond,E5
477,Left,1,65,80,77.0,0.989583,Eighth,G4_F4
476,Right,0,81,80,77.0,0.489583,Eighth,A5
480,Left,1,62,80,77.5,0.489583,Eighth,D4
479,Right,0,77,80,77.5,0.489583,Eighth,F5
481,Left,1,67,80,78.0,0.489583,Eighth,G4_B3
483,Right,0,74,80,78.0,0.489583,Eighth,D5
485,Right,0,77,80,78.5,0.239583,Sixteenth,F5
484,Left,1,60,80,78.5,0.489583,Eighth,G4_C4
487,Right,0,76,80,78.625,0.239583,Sixteenth,E5
488,Right,0,74,80,78.75,0.239583,Sixteenth,D5
489,Right,0,76,80,78.875,0.114583,ThirtySecond,E5
492,Left,1,65,80,79.0,0.489583,Eighth,F4_F3
490,Right,0,74,80,79.0,0.489583,Eighth,F5_D5_A4
495,Left,1,59,80,80.0,0.489583,Eighth,G3_D4_B3
497,Right,0,74,80,80.0,0.489583,Eighth,G4_D5_B4
502,Right,0,64,80,81.0,0.989583,Quarter,G4_E5_E4_C5
501,Left,1,52,80,81.0,0.989583,Quarter,G3_E3_C4_C3
509,Left,1,67,120,82.5,0.489583,Eighth,G4_E4
511,Right,0,79,120,82.625,0.239583,Sixteenth,G5
512,Right,0,76,120,82.75,0.239583,Sixteenth,E5
513,Right,0,67,120,82.875,0.239583,Sixteenth,G4
514,Left,1,68,120,83.0,0.489583,Eighth,G#4_F4
516,Right,0,80,120,83.125,0.239583,Sixteenth,G#5
517,Right,0,77,120,83.25,0.239583,Sixteenth,F5
518,Right,0,67,120,83.375,0.239583,Sixteenth,G4
519,Left,1,62,120,83.5,0.489583,Eighth,F4_D4
521,Right,0,77,120,83.625,0.239583,Sixteenth,F5
522,Right,0,74,120,83.75,0.239583,Sixteenth,D5
523,Right,0,67,120,83.875,0.239583,Sixteenth,G4
524,Left,1,62,120,84.0,0.489583,Eighth,D4_B3
526,Right,0,74,120,84.125,0.239583,Sixteenth,D5
527,Right,0,71,120,84.25,0.239583,Sixteenth,B4
528,Right,0,67,120,84.375,0.239583,Sixteenth,G4
529,Left,1,60,120,84.5,0.489583,Eighth,D#4_C4
531,Right,0,75,120,84.625,0.239583,Sixteenth,D#5
532,Right,0,72,120,84.75,0.239583,Sixteenth,C5
533,Right,0,67,120,84.875,0.239583,Sixteenth,G4
534,Left,1,65,120,85.0,0.489583,Eighth,G#4_F4
536,Right,0,80,120,85.125,0.239583,Sixteenth,G#5
537,Right,0,77,120,85.25,0.239583,Sixteenth,F5
538,Right,0,67,120,85.375,0.239583,Sixteenth,G4
539,Left,1,65,120,85.5,0.489583,Eighth,F4_D4
541,Right,0,77,120,85.625,0.239583,Sixteenth,F5
542,Right,0,74,120,85.75,0.239583,Sixteenth,D5
543,Right,0,67,120,85.875,0.239583,Sixteenth,G4
544,Left,1,62,120,86.0,0.489583,Eighth,D4_B3
546,Right,0,74,120,86.125,0.239583,Sixteenth,D5
547,Right,0,71,120,86.25,0.239583,Sixteenth,B4
548,Right,0,67,120,86.375,0.239583,Sixteenth,G4
549,Left,1,60,120,86.5,0.489583,Eighth,D#4_C4
551,Right,0,75,120,86.625,0.239583,Sixteenth,D#5
552,Right,0,72,120,86.75,0.239583,Sixteenth,C5
553,Right,0,67,100,86.875,0.239583,Sixteenth,G4
554,Right,0,77,100,87.0,0.489583,Eighth,G#4_F5_D5
557,Left,1,53,100,87.0,0.489583,Eighth,G#3_F3_D4
560,Right,0,65,100,88.0,0.489583,Eighth,F4_D5_B4
563,Left,1,59,100,88.0,0.489583,Eighth,G3_D4_B3
568,Right,0,72,100,89.0,0.489583,Eighth,G#4_D#4_C5
566,Left,1,56,100,89.0,0.489583,Eighth,G#3_C4
571,Right,0,72,70,91.0,0.489583,Eighth,D#4_C5_A4
574,Left,1,57,70,91.0,0.489583,Eighth,F#3_C4_A3
577,Left,1,53,80,93.0,0.489583,Eighth,G3_F3
579,Right,0,71,80,93.25,0.489583,Eighth,D4_B4
581,Left,1,55,81,93.5,0.489583,Eighth,G3_B2
583,Right,0,74,81,93.75,0.489583,Eighth,F4_D5
585,Left,1,48,82,94.0,0.489583,Eighth,G3_C3
587,Right,0,72,83,94.25,0.489583,Eighth,E4_C5
589,Left,1,55,83,94.5,0.489583,Eighth,G3_G2
591,Right,0,76,84,94.75,0.489583,Eighth,E5_C5
593,Left,1,55,85,95.0,0.489583,Eighth,G3_D3
595,Right,0,71,85,95.25,0.489583,Eighth,F5_B4
597,Left,1,55,86,95.5,0.489583,Eighth,G3_G2
599,Right,0,77,87,95.75,0.489583,Eighth,F5_B5
601,Left,1,48,87,96.0,0.489583,Eighth,G3_C3
603,Right,0,76,88,96.25,0.489583,Eighth,E5_C6
605,Left,1,43,89,96.5,0.489583,Eighth,G3_G2
607,Right,0,88,89,96.75,0.489583,Eighth,E6_C6
609,Left,1,50,90,97.0,0.489583,Eighth,G3_D3
611,Right,0,89,90,97.25,0.489583,Eighth,F6_B5
613,Left,1,55,91,97.5,0.489583,Eighth,G3_F3
615,Right,0,83,92,97.75,0.489583,Eighth,D5_B5
617,Left,1,52,92,98.0,0.489583,Eighth,G3_E3
619,Right,0,84,93,98.25,0.489583,Eighth,E5_C6
621,Left,1,48,94,98.5,0.489583,Eighth,G3_C3
623,Right,0,79,94,98.75,0.489583,Eighth,G5_E6
625,Left,1,55,95,99.0,0.489583,Eighth,G3_D3
627,Right,0,89,96,99.25,0.489583,Eighth,F6_F5
629,Left,1,53,96,99.5,0.489583,Eighth,G3_F3
631,Right,0,83,97,99.75,0.489583,Eighth,D5_B5
633,Left,1,52,98,100.0,0.489583,Eighth,G3_E3
635,Right,0,84,98,100.25,0.489583,Eighth,E5_C6
637,Left,1,48,99,100.5,0.489583,Eighth,G3_C3
639,Right,0,79,99,100.75,0.25,Sixteenth,G5_E6
641,Left,1,50,110,101.0,0.489583,Eighth,F2_D3_A2
644,Right,0,86,110,101.5,0.15625,TripletSixteenth,D6
645,Right,0,85,110,101.666667,0.15625,TripletSixteenth,C#6
646,Right,0,88,110,101.833333,0.15625,TripletSixteenth,E6
647,Left,1,53,110,102.0,0.489583,Eighth,F3_D4_A3
650,Right,0,86,110,102.0,0.489583,Eighth,D6
651,Right,0,81,110,102.5,0.15625,TripletSixteenth,A5
652,Right,0,80,110,102.666667,0.15625,TripletSixteenth,G#5
653,Right,0,83,110,102.833333,0.15625,TripletSixteenth,B5
654,Right,0,81,110,103.0,0.489583,Eighth,A5
655,Right,0,77,110,103.5,0.15625,TripletSixteenth,F5
656,Right,0,76,110,103.666667,0.15625,TripletSixteenth,E5
657,Right,0,79,110,103.833333,0.15625,TripletSixteenth,G5
658,Right,0,77,110,104.0,0.489583,Eighth,F5
659,Right,0,74,110,104.5,0.15625,TripletSixteenth,D5
660,Right,0,73,110,104.666667,0.15625,TripletSixteenth,C#5
661,Right,0,76,110,104.833333,0.15625,TripletSixteenth,E5
662,Right,0,74,110,105.0,0.489583,Eighth,D5
664,Left,1,62,110,105.5,0.989583,Quarter,D4
663,Right,0,74,110,105.5,0.989583,Quarter,D5
666,Left,1,64,110,106.5,0.239583,Sixteenth,E4
665,Right,0,76,110,106.5,0.239583,Sixteenth,E5
668,Left,1,65,110,106.75,0.239583,Sixteenth,F4
667,Right,0,77,110,106.75,0.239583,Sixteenth,F5
669,Left,1,67,110,107.0,0.989583,Quarter,G4
670,Right,0,79,110,107.0,1.15625,TiedQuarter-ThirtySecond,G5
671,Left,1,55,110,108.0,0.989583,Quarter,G3_F4_D4_B3
675,Right,0,81,110,108.166667,0.15625,TripletSixteenth,A5
676,Right,0,79,110,108.333333,0.15625,TripletSixteenth,G5
677,Right,0,77,110,108.5,0.15625,TripletSixteenth,F5
678,Right,0,76,110,108.666667,0.15625,TripletSixteenth,E5
679,Right,0,74,110,108.833333,0.15625,TripletSixteenth,D5
681,Left,1,60,110,109.0,0.15625,TripletSixteenth,C4
680,Right,0,72,110,109.0,0.489583,Eighth,C5
682,Left,1,64,110,109.166667,0.15625,TripletSixteenth,E4
683,Left,1,67,110,109.333333,0.15625,TripletSixteenth,G4
684,Left,1,60,110,109.5,0.15625,TripletSixteenth,C4
685,Left,1,64,110,109.666667,0.15625,TripletSixteenth,E4
686,Left,1,67,110,109.833333,0.15625,TripletSixteenth,G4
687,Right,0,79,80,110.0,0.489583,Eighth,G5
688,Left,1,60,80,110.0,0.15625,TripletSixteenth,C4
689,Left,1,64,80,110.166667,0.15625,TripletSixteenth,E4
690,Left,1,67,80,110.333333,0.15625,TripletSixteenth,G4
692,Right,0,79,80,110.5,0.489583,Eighth,G5
691,Left,1,60,80,110.5,0.15625,TripletSixteenth,C4
693,Left,1,64,80,110.666667,0.15625,TripletSixteenth,E4
694,Left,1,67,80,110.833333,0.15625,TripletSixteenth,G4
695,Left,1,60,80,111.0,0.15625,TripletSixteenth,C4
696,Right,0,76,80,111.0,0.489583,Eighth,E5
697,Left,1,64,80,111.166667,0.15625,TripletSixteenth,E4
698,Left,1,67,80,111.333333,0.15625,TripletSixteenth,G4
699,Left,1,60,80,111.5,0.15625,TripletSixteenth,C4
700,Left,1,64,80,111.666667,0.15625,TripletSixteenth,E4
701,Left,1,67,80,111.833333,0.15625,TripletSixteenth,G4
702,Left,1,60,80,112.0,0.15625,TripletSixteenth,C4
703,Right,0,84,80,112.0,0.489583,Eighth,C6_C5
705,Left,1,64,80,112.166667,0.15625,TripletSixteenth,E4
706,Left,1,67,80,112.333333,0.15625,TripletSixteenth,G4
707,Right,0,72,80,112.5,0.489583,Eighth,C6_C5
709,Left,1,60,80,112.5,0.15625,TripletSixteenth,C4
710,Left,1,64,80,112.666667,0.15625,TripletSixteenth,E4
711,Left,1,67,80,112.833333,0.15625,TripletSixteenth,G4
713,Left,1,57,80,113.0,0.15625,TripletSixteenth,F3_A3
712,Right,0,81,80,113.0,0.489583,Eighth,A5_A4
716,Left,1,60,80,113.166667,0.15625,TripletSixteenth,C4
717,Left,1,62,80,113.333333,0.15625,TripletSixteenth,D4
718,Left,1,57,80,113.5,0.15625,TripletSixteenth,F3_A3
720,Left,1,60,80,113.666667,0.15625,TripletSixteenth,C4
721,Left,1,62,80,113.833333,0.15625,TripletSixteenth,D4
722,Left,1,57,110,114.0,0.15625,TripletSixteenth,F#3_A3
724,Right,0,42,110,114.0,0.489583,Eighth,F#2
725,Left,1,60,110,114.166667,0.15625,TripletSixteenth,C4
726,Left,1,62,110,114.333333,0.15625,TripletSixteenth,D4
727,Left,1,57,110,114.5,0.15625,TripletSixteenth,F#3_A3
729,Right,0,42,110,114.5,0.489583,Eighth,F#2
730,Left,1,60,110,114.666667,0.15625,TripletSixteenth,C4
731,Left,1,62,110,114.833333,0.15625,TripletSixteenth,D4
733,Right,0,42,110,115.0,0.239583,Sixteenth,F#2
732,Left,1,55,110,115.0,0.15625,TripletSixteenth,G3
734,Right,0,43,110,115.125,0.239583,Sixteenth,G2
735,Left,1,60,110,115.166667,0.15625,TripletSixteenth,C4
736,Right,0,45,110,115.25,0.239583,Sixteenth,A2
737,Left,1,64,110,115.333333,0.15625,TripletSixteenth,E4
738,Right,0,43,110,115.375,0.239583,Sixteenth,G2
739,Left,1,55,110,115.5,0.15625,TripletSixteenth,G3
740,Right,0,45,110,115.5,0.239583,Sixteenth,A2
741,Right,0,43,110,115.625,0.239583,Sixteenth,G2
742,Left,1,60,110,115.666667,0.15625,TripletSixteenth,C4
743,Right,0,45,110,115.75,0.239583,Sixteenth,A2
744,Left,1,64,110,115.833333,0.15625,TripletSixteenth,E4
745,Right,0,43,110,115.875,0.239583,Sixteenth,G2
747,Right,0,45,110,116.0,0.239583,Sixteenth,A2
746,Left,1,55,110,116.0,0.15625,TripletSixteenth,G3
748,Right,0,43,110,116.125,0.239583,Sixteenth,G2
749,Left,1,59,110,116.166667,0.15625,TripletSixteenth,B3
750,Right,0,45,110,116.25,0.239583,Sixteenth,A2
751,Left,1,62,110,116.333333,0.15625,TripletSixteenth,D4
752,Right,0,43,110,116.375,0.239583,Sixteenth,G2
753,Right,0,45,110,116.5,0.239583,Sixteenth,A2
754,Left,1,55,110,116.5,0.15625,TripletSixteenth,G3
755,Right,0,43,110,116.625,0.239583,Sixteenth,G2
756,Left,1,59,110,116.666667,0.15625,TripletSixteenth,B3
757,Right,0,42,110,116.75,0.239583,Sixteenth,F#2
758,Left,1,62,110,116.833333,0.15625,TripletSixteenth,D4
760,Left,1,48,110,117.0,0.114583,ThirtySecond,C3
759,Right,0,36,110,117.0,0.989583,Quarter,C2
761,Left,1,52,110,117.125,0.114583,ThirtySecond,E3
762,Left,1,55,110,117.25,0.114583,ThirtySecond,G3
763,Left,1,60,110,117.375,0.114583,ThirtySecond,C4
764,Left,1,48,110,117.5,0.114583,ThirtySecond,C3
765,Left,1,52,110,117.625,0.114583,ThirtySecond,E3
766,Left,1,55,110,117.75,0.114583,ThirtySecond,G3
767,Left,1,60,80,117.875,0.114583,ThirtySecond,C4
769,Right,0,67,80,118.0,0.114583,ThirtySecond,G4
768,Left,1,48,80,118.0,0.114583,ThirtySecond,C3
771,Left,1,52,80,118.125,0.114583,ThirtySecond,E3
770,Right,0,79,80,118.125,0.364583,DottedSixteenth,G5
772,Left,1,55,80,118.25,0.114583,ThirtySecond,G3
773,Left,1,60,80,118.375,0.114583,ThirtySecond,C4
775,Left,1,48,80,118.5,0.114583,ThirtySecond,C3
774,Right,0,67,80,118.5,0.114583,ThirtySecond,G4
777,Left,1,52,80,118.625,0.114583,ThirtySecond,E3
776,Right,0,79,80,118.625,0.364583,DottedSixteenth,G5
778,Left,1,55,80,118.75,0.114583,ThirtySecond,G3
779,Left,1,60,80,118.875,0.114583,ThirtySecond,C4
781,Left,1,48,80,119.0,0.114583,ThirtySecond,C3
780,Right,0,64,80,119.0,0.114583,ThirtySecond,E4
782,Right,0,76,80,119.125,0.364583,DottedSixteenth,E5
783,Left,1,52,80,119.125,0.114583,ThirtySecond,E3
784,Left,1,55,80,119.25,0.114583,ThirtySecond,G3
785,Left,1,60,80,119.375,0.114583,ThirtySecond,C4
786,Left,1,48,80,119.5,0.114583,ThirtySecond,C3
787,Left,1,52,80,119.625,0.114583,ThirtySecond,E3
788,Left,1,55,80,119.75,0.114583,ThirtySecond,G3
789,Left,1,60,80,119.875,0.114583,ThirtySecond,C4
791,Right,0,72,80,120.0,0.114583,ThirtySecond,C5
790,Left,1,52,80,120.0,0.15625,TripletSixteenth,E3
792,Right,0,84,80,120.125,0.364583,DottedSixteenth,C6
793,Left,1,55,80,120.166667,0.15625,TripletSixteenth,G3
794,Left,1,60,80,120.333333,0.15625,TripletSixteenth,C4
795,Right,0,72,80,120.5,0.114583,ThirtySecond,C5
796,Left,1,52,80,120.5,0.15625,TripletSixteenth,E3
797,Right,0,84,80,120.625,0.364583,DottedSixteenth,C6
798,Left,1,55,80,120.666667,0.15625,TripletSixteenth,G3
799,Left,1,60,80,120.833333,0.15625,TripletSixteenth,C4
801,Left,1,53,80,121.0,0.239583,Sixteenth,F3
800,Right,0,69,80,121.0,0.114583,ThirtySecond,A4
803,Left,1,57,80,121.125,0.208333,Sixteenth,A3
802,Right,0,81,80,121.125,0.364583,DottedSixteenth,A5
804,Left,1,60,80,121.25,0.239583,Sixteenth,C4
805,Left,1,62,80,121.375,0.239583,Sixteenth,D4
806,Left,1,53,80,121.5,0.229167,Sixteenth,F3
807,Left,1,57,80,121.625,0.239583,Sixteenth,A3
808,Left,1,60,80,121.75,0.229167,Sixteenth,C4
809,Left,1,62,110,121.875,0.229167,Sixteenth,D4
811,Left,1,54,110,122.0,0.21875,Sixteenth,F#3
810,Right,0,42,110,122.0,0.489583,Eighth,F#2
812,Left,1,57,110,122.125,0.21875,Sixteenth,A3
813,Left,1,60,110,122.25,0.208333,Sixteenth,C4
814,Left,1,62,110,122.375,0.208333,Sixteenth,D4
816,Left,1,54,110,122.5,0.229167,Sixteenth,F#3
815,Right,0,42,110,122.5,0.489583,Eighth,F#2
817,Left,1,57,111,122.625,0.229167,Sixteenth,A3
818,Left,1,60,111,122.75,0.208333,Sixteenth,C4
819,Left,1,62,111,122.875,0.21875,Sixteenth,D4
821,Left,1,55,111,123.0,0.25,Sixteenth,G3
820,Right,0,42,111,123.0,0.239583,Sixteenth,F#2
822,Right,0,43,111,123.125,0.239583,Sixteenth,G2
823,Left,1,60,111,123.166667,0.260417,Sixteenth,C4
824,Right,0,45,111,123.25,0.239583,Sixteenth,A2
825,Left,1,64,112,123.333333,0.239583,Sixteenth,E4
826,Right,0,43,112,123.375,0.239583,Sixteenth,G2
827,Right,0,45,112,123.5,0.239583,Sixteenth,A2
828,Left,1,55,112,123.5,0.239583,Sixteenth,G3
829,Right,0,43,112,123.625,0.239583,Sixteenth,G2
830,Left,1,60,112,123.666667,0.260417,Sixteenth,C4
831,Right,0,45,112,123.75,0.239583,Sixteenth,A2
832,Left,1,64,112,123.833333,0.260417,Sixteenth,E4
833,Right,0,43,112,123.875,0.239583,Sixteenth,G2
835,Left,1,55,113,124.0,0.260417,Sixteenth,G3
834,Right,0,45,113,124.0,0.239583,Sixteenth,A2
836,Right,0,43,113,124.125,0.239583,Sixteenth,G2
837,Left,1,59,113,124.166667,0.270833,Sixteenth,B3
838,Right,0,45,113,124.25,0.239583,Sixteenth,A2
839,Left,1,62,113,124.333333,0.28125,Sixteenth,D4
840,Right,0,43,113,124.375,0.239583,Sixteenth,G2
841,Right,0,45,113,124.5,0.239583,Sixteenth,A2
842,Left,1,55,113,124.5,0.25,Sixteenth,G3
843,Right,0,43,113,124.625,0.239583,Sixteenth,G2
844,Left,1,59,113,124.666667,0.270833,Sixteenth,B3
845,Right,0,42,114,124.75,0.239583,Sixteenth,F#2
846,Left,1,62,114,124.833333,0.28125,Sixteenth,D4
847,Right,0,36,114,125.0,0.989583,Quarter,C2
848,Left,1,48,114,125.0,0.229167,Sixteenth,C3
849,Left,1,52,114,125.125,0.229167,Sixteenth,E3
850,Left,1,55,114,125.25,0.21875,Sixteenth,G3
851,Left,1,60,114,125.375,0.239583,Sixteenth,C4
852,Left,1,48,115,125.5,0.239583,Sixteenth,C3
853,Left,1,52,115,125.625,0.239583,Sixteenth,E3
854,Left,1,55,115,125.75,0.239583,Sixteenth,G3
855,Left,1,60,115,125.875,0.21875,Sixteenth,C4
856,Right,0,78,115,126.0,0.489583,Eighth,F#5
857,Left,1,48,115,126.0,0.302083,Triplet,C3
858,Left,1,51,116,126.166667,0.270833,Sixteenth,D#3
859,Left,1,55,116,126.333333,0.270833,Sixteenth,G3
860,Right,0,78,116,126.5,0.489583,Eighth,F#5
861,Left,1,48,116,126.5,0.270833,Sixteenth,C3
862,Left,1,51,116,126.666667,0.260417,Sixteenth,D#3
863,Left,1,55,117,126.833333,0.239583,Sixteenth,G3
865,Left,1,43,117,127.0,0.21875,Sixteenth,G2
864,Right,0,78,117,127.0,0.239583,Sixteenth,F#5
866,Left,1,48,117,127.125,0.239583,Sixteenth,C3
867,Right,0,79,117,127.125,0.239583,Sixteenth,G5
868,Left,1,50,117,127.25,0.21875,Sixteenth,D3
869,Right,0,81,117,127.25,0.239583,Sixteenth,A5
870,Right,0,79,117,127.375,0.239583,Sixteenth,G5
871,Left,1,55,117,127.375,0.229167,Sixteenth,G3
872,Left,1,43,118,127.5,0.229167,Sixteenth,G2
873,Right,0,81,118,127.5,0.239583,Sixteenth,A5
874,Left,1,48,118,127.625,0.21875,Sixteenth,C3
875,Right,0,79,118,127.625,0.239583,Sixteenth,G5
877,Right,0,81,118,127.75,0.239583,Sixteenth,A5
876,Left,1,50,118,127.75,0.229167,Sixteenth,D3
879,Right,0,79,118,127.875,0.239583,Sixteenth,G5
878,Left,1,55,118,127.875,0.208333,Sixteenth,G3
880,Right,0,81,118,128.0,0.239583,Sixteenth,A5
881,Left,1,43,118,128.0,0.229167,Sixteenth,G2
882,Right,0,79,118,128.125,0.239583,Sixteenth,G5
883,Left,1,47,118,128.125,0.229167,Sixteenth,B2
884,Right,0,81,119,128.25,0.239583,Sixteenth,A5
885,Left,1,50,119,128.25,0.21875,Sixteenth,D3
886,Right,0,79,119,128.375,0.239583,Sixteenth,G5
887,Left,1,55,119,128.375,0.21875,Sixteenth,G3
889,Left,1,43,119,128.5,0.21875,Sixteenth,G2
888,Right,0,81,119,128.5,0.239583,Sixteenth,A5
890,Left,1,47,119,128.625,0.229167,Sixteenth,B2
891,Right,0,79,119,128.625,0.239583,Sixteenth,G5
892,Left,1,50,119,128.75,0.208333,Sixteenth,D3
893,Right,0,78,119,128.75,0.239583,Sixteenth,F#5
894,Left,1,55,120,128.875,0.114583,ThirtySecond,G3
895,Right,0,79,120,128.875,0.239583,Sixteenth,G5
896,Right,0,72,120,129.0,0.489583,Eighth,C6_C5
897,Left,1,48,120,129.0,0.489583,Eighth,C3
901,Left,1,43,120,130.0,0.489583,Eighth,G3_G2
899,Right,0,67,120,130.0,0.489583,Eighth,G5_G4
904,Right,0,60,120,131.0,0.989583,Quarter,C5_C4
903,Left,1,36,120,131.0,0.989583,Quarter,C3_C2
909,Right,0,57,80,132.5,0.489583,Eighth,F4_C4_A4_A3
907,Left,1,41,80,132.5,0.489583,Eighth,F3_F2_C3
914,Right,0,65,80,133.0,0.989583,Quarter,F4_C5_C4_A4
917,Left,1,41,80,133.0,0.989583,Quarter,F3_F2_C3
921,Right,0,72,80,134.5,0.15625,TripletSixteenth,C5
922,Right,0,71,80,134.666667,0.15625,TripletSixteenth,B4
923,Right,0,74,80,134.833333,0.15625,TripletSixteenth,D5
924,Right,0,72,80,135.0,0.989583,Quarter,C5
928,Left,1,48,80,136.5,0.489583,Eighth,F3_F2_C3
925,Right,0,65,80,136.5,0.489583,Eighth,F4_C4_A4
931,Right,0,67,80,137.0,0.989583,Quarter,G4_C4_A#4
933,Left,1,48,80,137.0,0.989583,Quarter,E3_E2_C3
937,Right,0,70,80,138.5,0.15625,TripletSixteenth,A#4
938,Right,0,69,80,138.666667,0.15625,TripletSixteenth,A4
939,Right,0,72,80,138.833333,0.15625,TripletSixteenth,C5
940,Right,0,70,80,139.0,0.989583,Quarter,A#4
941,Right,0,70,80,140.5,0.489583,Eighth,A#4
943,Right,0,69,80,141.0,0.364583,DottedSixteenth,A4
942,Left,1,60,80,141.0,0.989583,Quarter,F3_C4_A3
946,Right,0,72,82,141.375,0.114583,ThirtySecond,C5
947,Right,0,77,83,141.5,0.989583,Quarter,F5
948,Left,1,55,87,142.0,0.989583,Quarter,G3_C4_A#3
951,Right,0,76,91,142.5,0.489583,Eighth,E5
953,Left,1,60,95,143.0,0.989583,Quarter,F4_C4_A3
952,Right,0,77,95,143.0,0.489583,Eighth,F5
956,Right,0,81,99,143.5,0.989583,Quarter,A5
957,Left,1,62,120,144.0,0.989583,Quarter,G4_F4_D4_A#3
961,Right,0,79,120,144.5,0.989583,Quarter,G5
962,Left,1,60,120,145.0,0.989583,Quarter,F4_C4_A4
965,Right,0,81,110,145.5,0.989583,Quarter,A5
966,Left,1,69,103,146.0,0.989583,Quarter,F4_D#4_C5_A4
970,Right,0,82,96,146.5,0.239583,Sixteenth,A#5
971,Right,0,84,92,146.75,0.239583,Sixteenth,C6
972,Left,1,70,88,147.0,0.989583,Quarter,F4_D4_A#4
974,Right,0,84,88,147.0,0.489583,Eighth,C6
976,Right,0,82,81,147.5,0.489583,Eighth,A#5
978,Right,0,82,80,149.0,0.239583,Sixteenth,A#5
977,Left,1,62,80,149.0,0.989583,Quarter,F4_D4_A#4
981,Right,0,84,80,149.125,0.239583,Sixteenth,C6
982,Right,0,81,80,149.25,0.239583,Sixteenth,A5
983,Right,0,82,80,149.375,0.239583,Sixteenth,A#5
984,Right,0,86,80,149.5,0.989583,Quarter,D6
985,Left,1,67,80,150.0,0.989583,Quarter,G4_E4_C5
988,Right,0,84,80,150.5,0.239583,Sixteenth,C6
989,Right,0,82,80,150.75,0.239583,Sixteenth,A#5
993,Right,0,81,80,151.0,0.239583,Sixteenth,A5
990,Left,1,65,80,151.0,0.989583,Quarter,F4_C5_A4
994,Right,0,82,80,151.125,0.239583,Sixteenth,A#5
995,Right,0,84,80,151.25,0.239583,Sixteenth,C6
996,Right,0,82,80,151.375,0.239583,Sixteenth,A#5
997,Right,0,81,80,151.5,0.864583,DottedEighth,A5
998,Left,1,67,80,152.0,0.989583,Quarter,G4_D4_A#3
1001,Right,0,79,80,152.375,0.114583,ThirtySecond,G5
1002,Right,0,82,80,152.5,0.364583,DottedSixteenth,A#5
1003,Right,0,79,80,152.875,0.114583,ThirtySecond,G5
1005,Left,1,60,80,153.0,0.989583,Quarter,F4_C4_A4
1004,Right,0,79,80,153.0,0.489583,Eighth,G5
1008,Right,0,77,80,153.5,0.864583,DottedEighth,F5
1009,Left,1,70,80,154.0,0.989583,Quarter,G4_C4_A#4
1012,Right,0,76,80,154.375,0.114583,ThirtySecond,E5
1013,Right,0,79,80,154.5,0.364583,DottedSixteenth,G5
1014,Right,0,76,80,154.875,0.114583,ThirtySecond,E5
1015,Right,0,77,80,155.0,0.989583,Quarter,F5
1016,Left,1,65,80,155.0,0.989583,Quarter,F4_A4
1021,Right,0,65,80,156.5,0.489583,Eighth,F4_C4_A4_A3
1018,Left,1,48,80,156.5,0.489583,Eighth,F3_F2_C3
1025,Left,1,41,80,157.0,0.989583,Quarter,F3_F2_C3
1028,Right,0,72,80,157.0,0.989583,Quarter,F4_C5_C4_A4
1032,Right,0,72,80,158.5,0.15625,TripletSixteenth,C5
1033,Right,0,71,80,158.666667,0.15625,TripletSixteenth,B4
1034,Right,0,74,80,158.833333,0.15625,TripletSixteenth,D5
1035,Right,0,72,80,159.0,0.989583,Quarter,C5
1038,Left,1,51,80,160.5,0.489583,Eighth,F2_D#3_C3
1036,Right,0,69,80,160.5,0.489583,Eighth,D#4_C4_A4_A3
1047,Left,1,41,80,161.0,0.989583,Quarter,F2_D#3_C3
1043,Right,0,72,80,161.0,0.989583,Quarter,D#4_C5_C4_A4
1050,Right,0,72,80,162.5,0.15625,TripletSixteenth,C5
1051,Right,0,71,80,162.666667,0.15625,TripletSixteenth,B4
1052,Right,0,74,80,162.833333,0.15625,TripletSixteenth,D5
1053,Right,0,72,80,163.0,0.989583,Quarter,C5
1054,Left,1,53,110,164.5,0.489583,Eighth,F3_A3
1055,Right,0,72,110,164.5,0.489583,TripletSixteenth,D#4_C5
1059,Left,1,59,110,164.666667,0.15625,TripletSixteenth,B3
1058,Right,0,71,110,164.666667,0.15625,TripletSixteenth,B4
1061,Right,0,69,110,164.833333,0.15625,TripletSixteenth,A4
1060,Left,1,60,110,164.833333,0.15625,TripletSixteenth,C4
1063,Left,1,56,110,165.0,0.489583,Eighth,G#3_E3
1062,Right,0,76,110,165.0,0.489583,Eighth,E5_E4
1066,Left,1,53,110,165.5,0.489583,Eighth,F3_A3
1067,Right,0,63,110,165.5,0.489583,Eighth,D#4_C5
1070,Right,0,71,110,165.666667,0.15625,TripletSixteenth,B4
1071,Left,1,59,110,165.666667,0.15625,TripletSixteenth,B3
1072,Right,0,69,110,165.833333,0.15625,TripletSixteenth,A4
1073,Left,1,60,110,165.833333,0.15625,TripletSixteenth,C4
1074,Left,1,52,110,166.0,0.489583,Eighth,G#3_E3
1076,Right,0,64,110,166.0,0.489583,Eighth,E5_E4
1078,Left,1,53,110,166.5,0.489583,Eighth,F3_A3
1080,Right,0,63,110,166.5,0.489583,Eighth,D#4_C5
1082,Left,1,59,110,166.666667,0.15625,TripletSixteenth,B3
1083,Right,0,71,110,166.666667,0.15625,TripletSixteenth,B4
1085,Left,1,60,110,166.833333,0.15625,TripletSixteenth,C4
1084,Right,0,69,110,166.833333,0.15625,TripletSixteenth,A4
1086,Right,0,64,110,167.0,0.989583,Quarter,E5_E4
1087,Left,1,52,110,167.0,0.989583,Quarter,G#3_E3
1090,Right,0,67,80,168.5,0.489583,Eighth,G4_G3
1091,Left,1,43,80,168.5,0.239583,Sixteenth,G2
1093,Left,1,47,80,168.75,0.239583,Sixteenth,B2
1096,Left,1,48,80,169.0,0.239583,Sixteenth,C3
1094,Right,0,64,80,169.0,0.989583,Quarter,E4_E3
1097,Left,1,52,81,169.25,0.239583,Sixteenth,E3
1098,Left,1,43,83,169.5,0.239583,Sixteenth,G2
1099,Left,1,47,85,169.75,0.239583,Sixteenth,B2
1101,Right,0,64,87,170.0,0.989583,Quarter,G4_G3_E4_C4
1100,Left,1,48,87,170.0,0.239583,Sixteenth,C3
1105,Left,1,52,88,170.25,0.239583,Sixteenth,E3
1106,Left,1,43,90,170.5,0.239583,Sixteenth,G2
1107,Left,1,47,92,170.75,0.239583,Sixteenth,B2
1108,Right,0,67,94,171.0,1.489583,DottedQuarter,G4_E4_C5_C4
1112,Left,1,48,94,171.0,0.239583,Sixteenth,C3
1113,Left,1,52,95,171.25,0.239583,Sixteenth,E3
1114,Left,1,43,97,171.5,0.239583,Sixteenth,G2
1115,Left,1,47,99,171.75,0.239583,Sixteenth,B2
1116,Left,1,48,101,172.0,0.239583,Sixteenth,C3
1117,Left,1,52,102,172.25,0.239583,Sixteenth,E3
1120,Left,1,43,104,172.5,0.239583,Sixteenth,G2
1118,Right,0,76,104,172.5,0.489583,Eighth,E5_E4
1121,Left,1,47,106,172.75,0.239583,Sixteenth,B2
1122,Left,1,48,108,173.0,0.239583,Sixteenth,C3
1123,Right,0,79,108,173.0,0.489583,Eighth,G5_G4
1125,Left,1,52,109,173.25,0.239583,Sixteenth,E3
1126,Right,0,84,110,173.5,0.989583,Quarter,C6_C5
1127,Left,1,43,110,173.5,0.239583,Sixteenth,G2
1129,Left,1,47,110,173.75,0.239583,Sixteenth,B2
1130,Left,1,48,110,174.0,0.239583,Sixteenth,C3
1131,Left,1,52,110,174.25,0.239583,Sixteenth,E3
1134,Left,1,43,110,174.5,0.239583,Sixteenth,G2
1132,Right,0,88,110,174.5,0.239583,Sixteenth,E6_E5
1136,Left,1,48,110,174.75,0.239583,Sixteenth,C3
1135,Right,0,74,110,174.75,0.239583,Sixteenth,D6_D5
1138,Right,0,84,110,175.0,0.989583,Quarter,C6_C5
1140,Left,1,50,110,175.0,0.239583,Sixteenth,D3
1141,Left,1,53,106,175.25,0.239583,Sixteenth,F3
1142,Left,1,43,102,175.5,0.239583,Sixteenth,G2
1143,Left,1,49,98,175.75,0.239583,Sixteenth,C#3
1146,Left,1,50,93,176.0,0.239583,Sixteenth,D3
1144,Right,0,83,93,176.0,0.489583,Eighth,B5_B4
1147,Left,1,53,89,176.25,0.239583,Sixteenth,F3
1148,Left,1,43,85,176.5,0.239583,Sixteenth,G2
1149,Left,1,49,81,176.75,0.239583,Sixteenth,C#3
1153,Left,1,50,80,177.0,0.239583,Sixteenth,D3
1150,Right,0,71,80,177.0,0.989583,Quarter,F4_D4_B4_B3
1155,Left,1,53,81,177.25,0.239583,Sixteenth,F3
1156,Left,1,43,83,177.5,0.239583,Sixteenth,G2
1157,Left,1,49,85,177.75,0.239583,Sixteenth,C#3
1162,Left,1,50,87,178.0,0.239583,Sixteenth,D3
1158,Right,0,65,87,178.0,0.989583,Quarter,F4_D5_D4_B4
1163,Left,1,53,88,178.25,0.239583,Sixteenth,F3
1164,Left,1,43,90,178.5,0.239583,Sixteenth,G2
1165,Left,1,49,92,178.75,0.239583,Sixteenth,C#3
1166,Left,1,50,94,179.0,0.239583,Sixteenth,D3
1167,Right,0,65,94,179.0,1.489583,DottedQuarter,F5_F4_D5_B4
1171,Left,1,53,95,179.25,0.239583,Sixteenth,F3
1172,Left,1,43,97,179.5,0.239583,Sixteenth,G2
1173,Left,1,49,99,179.75,0.239583,Sixteenth,C#3
1174,Left,1,50,101,180.0,0.239583,Sixteenth,D3
1175,Left,1,53,102,180.25,0.239583,Sixteenth,F3
1176,Right,0,83,104,180.5,0.489583,Eighth,B5_B4
1178,Left,1,43,104,180.5,0.239583,Sixteenth,G2
1179,Left,1,49,106,180.75,0.239583,Sixteenth,C#3
1182,Left,1,50,108,181.0,0.239583,Sixteenth,D3
1180,Right,0,86,108,181.0,0.489583,Eighth,D6_D5
1183,Left,1,53,109,181.25,0.239583,Sixteenth,F3
1185,Left,1,43,110,181.5,0.239583,Sixteenth,G2
1184,Right,0,77,110,181.5,0.989583,Quarter,F6_F5
1187,Left,1,49,110,181.75,0.239583,Sixteenth,C#3
1188,Left,1,50,110,182.0,0.239583,Sixteenth,D3
1189,Left,1,53,110,182.25,0.239583,Sixteenth,F3
1190,Left,1,43,110,182.5,0.239583,Sixteenth,G2
1191,Right,0,76,110,182.5,0.489583,Eighth,E6_E5
1193,Left,1,50,110,182.75,0.239583,Sixteenth,D3
1195,Left,1,52,110,183.0,0.239583,Sixteenth,E3
1194,Right,0,86,110,183.0,0.989583,Quarter,D6_D5
1197,Left,1,55,106,183.25,0.239583,Sixteenth,G3
1198,Left,1,48,102,183.5,0.239583,Sixteenth,C3
1199,Left,1,51,98,183.75,0.239583,Sixteenth,D#3
1201,Left,1,52,93,184.0,0.239583,Sixteenth,E3
1200,Right,0,84,93,184.0,0.489583,Eighth,C6_C5
1203,Left,1,55,89,184.25,0.239583,Sixteenth,G3
1204,Left,1,52,85,184.5,0.239583,Sixteenth,E3
1205,Left,1,50,81,184.75,0.239583,Sixteenth,D3
1207,Right,0,76,120,185.0,0.989583,Quarter,G4_E5_E4_C5
1206,Left,1,48,80,185.0,0.239583,Sixteenth,C3
1211,Left,1,60,80,185.25,0.239583,Sixteenth,C4
1212,Left,1,64,80,185.5,0.239583,Sixteenth,E4
1213,Left,1,62,80,185.75,0.239583,Sixteenth,D4
1215,Left,1,60,80,186.0,0.239583,Sixteenth,C4
1214,Right,0,79,118,186.0,0.989583,Quarter,G5_G4_E5_C5
1219,Left,1,64,80,186.25,0.239583,Sixteenth,E4
1220,Left,1,60,80,186.5,0.239583,Sixteenth,C4
1221,Left,1,59,80,186.75,0.239583,Sixteenth,B3
1223,Left,1,57,80,187.0,0.239583,Sixteenth,A3
1222,Right,0,72,115,187.0,1.489583,DottedQuarter,C6_C5
1225,Left,1,60,80,187.25,0.239583,Sixteenth,C4
1226,Left,1,57,80,187.5,0.239583,Sixteenth,A3
1227,Left,1,55,80,187.75,0.239583,Sixteenth,G3
1228,Left,1,54,80,188.0,0.239583,Sixteenth,F#3
1229,Left,1,57,80,188.25,0.239583,Sixteenth,A3
1230,Left,1,54,80,188.5,0.239583,Sixteenth,F#3
1231,Right,0,85,111,188.5,0.989583,Quarter,C#6_C#5
1233,Left,1,52,80,188.75,0.239583,Sixteenth,E3
1234,Left,1,50,80,189.0,0.239583,Sixteenth,D3
1235,Left,1,52,80,189.25,0.239583,Sixteenth,E3
1236,Right,0,86,108,189.5,0.989583,Quarter,D6_D5
1238,Left,1,54,80,189.5,0.239583,Sixteenth,F#3
1239,Left,1,55,80,189.75,0.239583,Sixteenth,G3
1240,Left,1,57,80,190.0,0.239583,Sixteenth,A3
1241,Left,1,50,80,190.25,0.239583,Sixteenth,D3
1243,Left,1,52,80,190.5,0.239583,Sixteenth,E3
1242,Right,0,84,106,190.5,0.489583,Eighth,C6_C5
1245,Left,1,54,80,190.75,0.239583,Sixteenth,F#3
1246,Left,1,55,80,191.0,0.989583,Quarter,G3
1247,Right,0,84,104,191.0,0.489583,Eighth,C6_C5
1249,Left,1,59,80,191.166667,0.15625,TripletSixteenth,B3
1250,Left,1,62,80,191.333333,0.15625,TripletSixteenth,D4
1253,Left,1,59,80,191.5,0.15625,TripletSixteenth,B3
1251,Right,0,71,103,191.5,0.489583,Eighth,B5_B4
1254,Left,1,62,80,191.666667,0.15625,TripletSixteenth,D4
1255,Left,1,59,80,191.833333,0.15625,TripletSixteenth,B3
1256,Left,1,55,80,192.0,0.989583,Quarter,G3
1257,Left,1,60,80,192.166667,0.15625,TripletSixteenth,C4
1258,Left,1,62,80,192.333333,0.15625,TripletSixteenth,D4
1260,Right,0,78,80,192.5,0.489583,Eighth,F#5_C5
1259,Left,1,60,80,192.5,0.15625,TripletSixteenth,C4
1262,Left,1,62,80,192.666667,0.15625,TripletSixteenth,D4
1263,Left,1,60,80,192.833333,0.15625,TripletSixteenth,C4
1265,Right,0,79,80,193.0,0.989583,Quarter,G5_C5
1264,Left,1,55,80,193.0,0.989583,Quarter,G3
1267,Left,1,59,80,193.166667,0.15625,TripletSixteenth,B3
1268,Left,1,62,80,193.333333,0.15625,TripletSixteenth,D4
1269,Right,0,71,80,193.5,0.489583,Eighth,B4
1270,Left,1,59,80,193.5,0.15625,TripletSixteenth,B3
1271,Left,1,62,80,193.666667,0.15625,TripletSixteenth,D4
1272,Left,1,59,80,193.833333,0.15625,TripletSixteenth,B3
1273,Left,1,54,80,194.0,0.989583,Quarter,F#3
1274,Left,1,57,80,194.166667,0.15625,TripletSixteenth,A3
1275,Left,1,62,80,194.333333,0.15625,TripletSixteenth,D4
1277,Right,0,84,112,194.5,0.489583,Eighth,C6
1276,Left,1,57,80,194.5,0.15625,TripletSixteenth,A3
1278,Left,1,62,80,194.666667,0.15625,TripletSixteenth,D4
1279,Left,1,57,80,194.833333,0.15625,TripletSixteenth,A3
1280,Right,0,84,90,195.0,0.239583,Sixteenth,C6
1281,Left,1,55,80,195.0,0.989583,Quarter,G3
1282,Left,1,59,80,195.166667,0.15625,TripletSixteenth,B3
1283,Right,0,83,90,195.25,0.239583,Sixteenth,B5
1284,Left,1,62,80,195.333333,0.15625,TripletSixteenth,D4
1285,Right,0,81,90,195.5,0.239583,Sixteenth,A5
1286,Left,1,59,80,195.5,0.15625,TripletSixteenth,B3
1287,Left,1,62,80,195.666667,0.15625,TripletSixteenth,D4
1288,Right,0,79,90,195.75,0.239583,Sixteenth,G5
1289,Left,1,59,80,195.833333,0.15625,TripletSixteenth,B3
1290,Left,1,55,80,196.0,0.989583,Quarter,G3
1291,Left,1,60,80,196.166667,0.15625,TripletSixteenth,C4
1292,Left,1,62,80,196.333333,0.15625,TripletSixteenth,D4
1293,Right,0,78,108,196.5,0.489583,Eighth,F#5_C5
1295,Left,1,60,80,196.5,0.15625,TripletSixteenth,C4
1296,Left,1,62,80,196.666667,0.15625,TripletSixteenth,D4
1297,Left,1,60,80,196.833333,0.15625,TripletSixteenth,C4
1299,Left,1,55,80,197.0,0.989583,Quarter,G3
1298,Right,0,79,90,197.0,0.989583,Quarter,G5_C5
1301,Left,1,59,80,197.166667,0.15625,TripletSixteenth,B3
1302,Right,0,71,90,197.25,0.239583,Sixteenth,B4
1303,Left,1,62,80,197.333333,0.15625,TripletSixteenth,D4
1304,Left,1,59,80,197.5,0.15625,TripletSixteenth,B3
1305,Right,0,69,90,197.5,0.239583,Sixteenth,A4
1306,Left,1,62,80,197.666667,0.15625,TripletSixteenth,D4
1307,Right,0,67,90,197.75,0.239583,Sixteenth,G4
1308,Left,1,59,80,197.833333,0.15625,TripletSixteenth,B3
1309,Left,1,54,80,198.0,0.989583,Quarter,F#3
1310,Left,1,57,80,198.166667,0.15625,TripletSixteenth,A3
1311,Left,1,62,80,198.333333,0.15625,TripletSixteenth,D4
1313,Right,0,84,104,198.5,0.489583,Eighth,C6
1312,Left,1,57,80,198.5,0.15625,TripletSixteenth,A3
1314,Left,1,62,80,198.666667,0.15625,TripletSixteenth,D4
1315,Left,1,57,80,198.833333,0.15625,TripletSixteenth,A3
1317,Left,1,55,80,199.0,0.989583,Quarter,G3
1316,Right,0,84,90,199.0,0.239583,Sixteenth,C6
1318,Left,1,59,80,199.166667,0.15625,TripletSixteenth,B3
1319,Right,0,83,90,199.25,0.239583,Sixteenth,B5
1320,Left,1,62,80,199.333333,0.15625,TripletSixteenth,D4
1321,Right,0,81,90,199.5,0.239583,Sixteenth,A5
1322,Left,1,59,80,199.5,0.15625,TripletSixteenth,B3
1323,Left,1,62,80,199.666667,0.15625,TripletSixteenth,D4
1324,Right,0,79,90,199.75,0.239583,Sixteenth,G5
1325,Left,1,59,80,199.833333,0.15625,TripletSixteenth,B3
1326,Left,1,54,80,200.0,0.989583,Quarter,F#3
1327,Left,1,57,80,200.166667,0.15625,TripletSixteenth,A3
1328,Left,1,62,80,200.333333,0.15625,TripletSixteenth,D4
1329,Left,1,57,80,200.5,0.15625,TripletSixteenth,A3
1330,Right,0,84,106,200.5,0.489583,Eighth,C6
1331,Left,1,62,80,200.666667,0.15625,TripletSixteenth,D4
1332,Left,1,57,80,200.833333,0.15625,TripletSixteenth,A3
1333,Left,1,55,80,201.0,0.989583,Quarter,G3
1334,Right,0,84,90,201.0,0.239583,Sixteenth,C6
1335,Left,1,59,80,201.166667,0.15625,TripletSixteenth,B3
1336,Right,0,83,90,201.25,0.239583,Sixteenth,B5
1337,Left,1,62,80,201.333333,0.15625,TripletSixteenth,D4
1338,Right,0,81,90,201.5,0.239583,Sixteenth,A5
1339,Left,1,59,80,201.5,0.15625,TripletSixteenth,B3
1340,Left,1,62,80,201.666667,0.15625,TripletSixteenth,D4
1341,Right,0,79,90,201.75,0.239583,Sixteenth,G5
1342,Left,1,59,80,201.833333,0.15625,TripletSixteenth,B3
1343,Left,1,54,80,202.0,0.989583,Quarter,F#3
1344,Left,1,57,80,202.166667,0.15625,TripletSixteenth,A3
1345,Left,1,62,80,202.333333,0.15625,TripletSixteenth,D4
1346,Right,0,84,107,202.5,0.489583,Eighth,C6
1347,Left,1,57,80,202.5,0.15625,TripletSixteenth,A3
1348,Left,1,62,80,202.666667,0.15625,TripletSixteenth,D4
1349,Left,1,57,80,202.833333,0.15625,TripletSixteenth,A3
1353,Right,0,84,80,203.0,0.239583,Sixteenth,C6
1350,Left,1,55,80,203.0,0.489583,Eighth,G3_D4_B3
1354,Right,0,83,80,203.25,0.239583,Sixteenth,B5
1355,Right,0,81,80,203.5,0.239583,Sixteenth,A5
1356,Right,0,79,80,203.75,0.239583,Sixteenth,G5
1357,Right,0,78,80,204.0,0.239583,Sixteenth,F#5
1358,Right,0,79,80,204.25,0.239583,Sixteenth,G5
1359,Right,0,81,80,204.5,0.239583,Sixteenth,A5
1360,Right,0,79,80,204.75,0.239583,Sixteenth,G5
1361,Right,0,78,80,205.0,0.239583,Sixteenth,F#5
1362,Right,0,79,80,205.25,0.239583,Sixteenth,G5
1363,Right,0,81,80,205.5,0.239583,Sixteenth,A5
1364,Right,0,79,80,205.75,0.239583,Sixteenth,G5
1365,Right,0,78,80,206.0,0.239583,Sixteenth,F#5
1366,Right,0,79,80,206.25,0.239583,Sixteenth,G5
1367,Right,0,80,80,206.5,0.239583,Sixteenth,G#5
1368,Right,0,81,80,206.75,0.239583,Sixteenth,A5
1371,Right,0,81,80,207.0,0.489583,Eighth,A5
1369,Left,1,65,80,207.0,0.989583,Eighth,G4_F4
1373,Left,1,62,80,207.5,0.489583,Eighth,D4
1372,Right,0,77,80,207.5,0.489583,Eighth,F5
1376,Right,0,74,80,208.0,0.489583,Eighth,D5
1374,Left,1,67,80,208.0,0.489583,Eighth,G4_B3
1378,Right,0,77,80,208.5,0.239583,Sixteenth,F5
1377,Left,1,60,80,208.5,0.489583,Eighth,G4_C4
1380,Right,0,76,80,208.625,0.239583,Sixteenth,E5
1381,Right,0,74,80,208.75,0.239583,Sixteenth,D5
1382,Right,0,76,80,208.875,0.114583,ThirtySecond,E5
1383,Left,1,65,80,209.0,0.989583,Eighth,G4_F4
1385,Right,0,81,80,209.0,0.489583,Eighth,A5
1386,Left,1,62,80,209.5,0.489583,Eighth,D4
1387,Right,0,77,80,209.5,0.489583,Eighth,F5
1388,Right,0,74,80,210.0,0.489583,Eighth,D5
1389,Left,1,67,80,210.0,0.489583,Eighth,G4_B3
1391,Left,1,67,80,210.5,0.489583,Eighth,G4_C4
1393,Right,0,77,80,210.5,0.239583,Sixteenth,F5
1394,Right,0,76,80,210.625,0.239583,Sixteenth,E5
1395,Right,0,74,80,210.75,0.239583,Sixteenth,D5
1396,Right,0,76,80,210.875,0.114583,ThirtySecond,E5
1399,Left,1,53,80,211.0,0.489583,Eighth,F4_F3
1397,Right,0,77,80,211.0,0.489583,Eighth,F5_D5_A4
1405,Left,1,62,80,212.0,0.489583,Eighth,G3_D4_B3
1402,Right,0,74,80,212.0,0.489583,Eighth,G4_D5_B4
1411,Left,1,48,80,213.0,0.989583,Quarter,G3_E3_C4_C3
1408,Right,0,76,80,213.0,0.989583,Quarter,G4_E5_E4_C5
1416,Left,1,67,120,214.5,0.489583,Eighth,G4_E4
1418,Right,0,79,120,214.625,0.239583,Sixteenth,G5
1419,Right,0,76,120,214.75,0.239583,Sixteenth,E5
1420,Right,0,67,120,214.875,0.239583,Sixteenth,G4
1421,Left,1,65,120,215.0,0.489583,Eighth,G#4_F4
1423,Right,0,80,120,215.125,0.239583,Sixteenth,G#5
1424,Right,0,77,120,215.25,0.239583,Sixteenth,F5
1425,Right,0,67,120,215.375,0.239583,Sixteenth,G4
1426,Left,1,62,120,215.5,0.489583,Eighth,F4_D4
1428,Right,0,77,120,215.625,0.239583,Sixteenth,F5
1429,Right,0,74,120,215.75,0.239583,Sixteenth,D5
1430,Right,0,67,120,215.875,0.239583,Sixteenth,G4
1431,Left,1,59,120,216.0,0.489583,Eighth,D4_B3
1433,Right,0,74,120,216.125,0.239583,Sixteenth,D5
1434,Right,0,71,120,216.25,0.239583,Sixteenth,B4
1435,Right,0,67,120,216.375,0.239583,Sixteenth,G4
1436,Left,1,60,120,216.5,0.489583,Eighth,D#4_C4
1438,Right,0,75,120,216.625,0.239583,Sixteenth,D#5
1439,Right,0,72,120,216.75,0.239583,Sixteenth,C5
1440,Right,0,67,120,216.875,0.239583,Sixteenth,G4
1441,Left,1,68,120,217.0,0.489583,Eighth,G#4_F4
1443,Right,0,80,120,217.125,0.239583,Sixteenth,G#5
1444,Right,0,77,120,217.25,0.239583,Sixteenth,F5
1445,Right,0,67,120,217.375,0.239583,Sixteenth,G4
1446,Left,1,65,120,217.5,0.489583,Eighth,F4_D4
1448,Right,0,77,120,217.625,0.239583,Sixteenth,F5
1449,Right,0,74,120,217.75,0.239583,Sixteenth,D5
1450,Right,0,67,120,217.875,0.239583,Sixteenth,G4
1451,Left,1,62,120,218.0,0.489583,Eighth,D4_B3
1453,Right,0,74,120,218.125,0.239583,Sixteenth,D5
1454,Right,0,71,120,218.25,0.239583,Sixteenth,B4
1455,Right,0,67,120,218.375,0.239583,Sixteenth,G4
1456,Left,1,63,120,218.5,0.489583,Eighth,D#4_C4
1458,Right,0,75,120,218.625,0.239583,Sixteenth,D#5
1459,Right,0,72,120,218.75,0.239583,Sixteenth,C5
1460,Right,0,67,100,218.875,0.239583,Sixteenth,G4
1461,Left,1,56,100,219.0,0.489583,Eighth,G#3_F3_D4
1463,Right,0,74,100,219.0,0.489583,Eighth,G#4_F5_D5
1468,Left,1,55,100,220.0,0.489583,Eighth,G3_D4_B3
1467,Right,0,74,100,220.0,0.489583,Eighth,F4_D5_B4
1474,Right,0,72,100,221.0,0.489583,Eighth,G#4_D#4_C5
1473,Left,1,56,100,221.0,0.489583,Eighth,G#3_C4
1478,Right,0,72,70,223.0,0.489583,Eighth,D#4_C5_A4
1481,Left,1,60,70,223.0,0.489583,Eighth,F#3_C4_A3
1484,Left,1,53,80,225.0,0.489583,Eighth,G3_F3
1486,Right,0,62,80,225.25,0.489583,Eighth,D4_B4
1488,Left,1,47,81,225.5,0.489583,Eighth,G3_B2
1490,Right,0,65,82,225.75,0.489583,Eighth,F4_D5
1492,Left,1,48,83,226.0,0.489583,Eighth,G3_C3
1494,Right,0,64,84,226.25,0.489583,Eighth,E4_C5
1496,Left,1,43,85,226.5,0.489583,Eighth,G3_G2
1498,Right,0,76,86,226.75,0.489583,Eighth,E5_C5
1500,Left,1,50,87,227.0,0.489583,Eighth,G3_D3
1502,Right,0,77,88,227.25,0.489583,Eighth,F5_B4
1504,Left,1,43,89,227.5,0.489583,Eighth,G3_G2
1506,Right,0,83,90,227.75,0.489583,Eighth,F5_B5
1508,Left,1,55,91,228.0,0.489583,Eighth,G3_C3
1510,Right,0,84,92,228.25,0.489583,Eighth,E5_C6
1512,Left,1,55,93,228.5,0.489583,Eighth,G3_G2
1514,Right,0,88,94,228.75,0.489583,Eighth,E6_C6
1516,Left,1,55,95,229.0,0.489583,Eighth,G3_D3
1518,Right,0,83,96,229.25,0.489583,Eighth,F6_B5
1520,Left,1,53,97,229.5,0.489583,Eighth,G3_F3
1522,Right,0,83,98,229.75,0.489583,Eighth,D5_B5
1524,Left,1,55,99,230.0,0.489583,Eighth,G3_E3
1526,Right,0,76,100,230.25,0.489583,Eighth,E5_C6
1528,Left,1,55,101,230.5,0.489583,Eighth,G3_C3
1530,Right,0,79,102,230.75,0.489583,Eighth,G5_E6
1532,Left,1,50,103,231.0,0.489583,Eighth,G3_D3
1534,Right,0,89,104,231.25,0.489583,Eighth,F6_F5
1536,Left,1,53,105,231.5,0.489583,Eighth,G3_F3
1538,Right,0,83,106,231.75,0.489583,Eighth,D5_B5
1540,Left,1,52,107,232.0,0.489583,Eighth,G3_E3
1542,Right,0,84,108,232.25,0.489583,Eighth,E5_C6
1544,Left,1,55,108,232.5,0.489583,Eighth,G3_C3
1546,Right,0,79,109,232.75,0.25,Sixteenth,G5_E6
1548,Left,1,50,100,233.0,0.489583,Eighth,F2_D3_A2
1551,Right,0,86,100,233.5,0.15625,TripletSixteenth,D6
1552,Right,0,85,100,233.666667,0.15625,TripletSixteenth,C#6
1553,Right,0,88,100,233.833333,0.15625,TripletSixteenth,E6
1554,Left,1,53,100,234.0,0.489583,Eighth,F3_D4_A3
1557,Right,0,86,100,234.0,0.489583,Eighth,D6
1558,Right,0,81,100,234.5,0.15625,TripletSixteenth,A5
1559,Right,0,80,100,234.666667,0.15625,TripletSixteenth,G#5
1560,Right,0,83,100,234.833333,0.15625,TripletSixteenth,B5
1561,Right,0,81,100,235.0,0.489583,Eighth,A5
1562,Right,0,77,100,235.5,0.15625,TripletSixteenth,F5
1563,Right,0,76,100,235.666667,0.15625,TripletSixteenth,E5
1564,Right,0,79,100,235.833333,0.15625,TripletSixteenth,G5
1565,Right,0,77,100,236.0,0.489583,Eighth,F5
1566,Right,0,74,100,236.5,0.15625,TripletSixteenth,D5
1567,Right,0,73,100,236.666667,0.15625,TripletSixteenth,C#5
1568,Right,0,76,100,236.833333,0.15625,TripletSixteenth,E5
1569,Right,0,74,100,237.0,0.489583,Eighth,D5
1571,Left,1,62,100,237.5,0.989583,Quarter,D4
1570,Right,0,74,100,237.5,0.989583,Quarter,D5
1572,Right,0,76,100,238.5,0.239583,Sixteenth,E5
1573,Left,1,64,100,238.5,0.239583,Sixteenth,E4
1574,Left,1,65,100,238.75,0.239583,Sixteenth,F4
1575,Right,0,77,100,238.75,0.239583,Sixteenth,F5
1577,Left,1,67,100,239.0,0.989583,Quarter,G4
1576,Right,0,79,100,239.0,1.15625,TiedQuarter-ThirtySecond,G5
1578,Left,1,65,100,240.0,0.989583,Quarter,G3_F4_D4_B3
1582,Right,0,81,100,240.166667,0.15625,TripletSixteenth,A5
1583,Right,0,79,100,240.333333,0.15625,TripletSixteenth,G5
1584,Right,0,77,100,240.5,0.15625,TripletSixteenth,F5
1585,Right,0,76,100,240.666667,0.15625,TripletSixteenth,E5
1586,Right,0,74,100,240.833333,0.15625,TripletSixteenth,D5
1587,Left,1,60,100,241.0,0.15625,TripletSixteenth,C4
1588,Right,0,72,100,241.0,0.489583,Eighth,C5
1589,Left,1,64,100,241.166667,0.15625,TripletSixteenth,E4
1590,Left,1,67,100,241.333333,0.15625,TripletSixteenth,G4
1591,Left,1,60,100,241.5,0.15625,TripletSixteenth,C4
1592,Left,1,64,100,241.666667,0.15625,TripletSixteenth,E4
1593,Left,1,67,100,241.833333,0.15625,TripletSixteenth,G4
1594,Right,0,79,80,242.0,0.489583,Eighth,G5
1595,Left,1,60,80,242.0,0.15625,TripletSixteenth,C4
1596,Left,1,64,80,242.166667,0.15625,TripletSixteenth,E4
1597,Left,1,67,80,242.333333,0.15625,TripletSixteenth,G4
1599,Right,0,79,80,242.5,0.489583,Eighth,G5
1598,Left,1,60,80,242.5,0.15625,TripletSixteenth,C4
1600,Left,1,64,80,242.666667,0.15625,TripletSixteenth,E4
1601,Left,1,67,80,242.833333,0.15625,TripletSixteenth,G4
1602,Left,1,60,80,243.0,0.15625,TripletSixteenth,C4
1603,Right,0,76,80,243.0,0.489583,Eighth,E5
1604,Left,1,64,80,243.166667,0.15625,TripletSixteenth,E4
1605,Left,1,67,80,243.333333,0.15625,TripletSixteenth,G4
1606,Left,1,60,80,243.5,0.15625,TripletSixteenth,C4
1607,Left,1,64,80,243.666667,0.15625,TripletSixteenth,E4
1608,Left,1,67,80,243.833333,0.15625,TripletSixteenth,G4
1609,Right,0,84,80,244.0,0.489583,Eighth,C6_C5
1611,Left,1,60,80,244.0,0.15625,TripletSixteenth,C4
1612,Left,1,64,80,244.166667,0.15625,TripletSixteenth,E4
1613,Left,1,67,80,244.333333,0.15625,TripletSixteenth,G4
1614,Left,1,60,80,244.5,0.15625,TripletSixteenth,C4
1615,Right,0,72,80,244.5,0.489583,Eighth,C6_C5
1617,Left,1,64,80,244.666667,0.15625,TripletSixteenth,E4
1618,Left,1,67,80,244.833333,0.15625,TripletSixteenth,G4
1619,Left,1,53,80,245.0,0.15625,TripletSixteenth,F3_A3
1621,Right,0,69,80,245.0,0.489583,Eighth,A5_A4
1623,Left,1,60,80,245.166667,0.15625,TripletSixteenth,C4
1624,Left,1,62,80,245.333333,0.15625,TripletSixteenth,D4
1625,Left,1,57,80,245.5,0.15625,TripletSixteenth,F3_A3
1627,Left,1,60,80,245.666667,0.15625,TripletSixteenth,C4
1628,Left,1,62,80,245.833333,0.15625,TripletSixteenth,D4
1630,Right,0,42,100,246.0,0.489583,Eighth,F#2
1629,Left,1,54,100,246.0,0.15625,TripletSixteenth,F#3_A3
1632,Left,1,60,100,246.166667,0.15625,TripletSixteenth,C4
1633,Left,1,62,100,246.333333,0.15625,TripletSixteenth,D4
1634,Right,0,42,100,246.5,0.489583,Eighth,F#2
1635,Left,1,54,100,246.5,0.15625,TripletSixteenth,F#3_A3
1637,Left,1,60,100,246.666667,0.15625,TripletSixteenth,C4
1638,Left,1,62,100,246.833333,0.15625,TripletSixteenth,D4
1639,Left,1,55,100,247.0,0.15625,TripletSixteenth,G3
1640,Right,0,42,100,247.0,0.239583,Sixteenth,F#2
1641,Right,0,43,100,247.125,0.239583,Sixteenth,G2
1642,Left,1,60,100,247.166667,0.15625,TripletSixteenth,C4
1643,Right,0,45,100,247.25,0.239583,Sixteenth,A2
1644,Left,1,64,100,247.333333,0.15625,TripletSixteenth,E4
1645,Right,0,43,100,247.375,0.239583,Sixteenth,G2
1647,Left,1,55,100,247.5,0.15625,TripletSixteenth,G3
1646,Right,0,45,100,247.5,0.239583,Sixteenth,A2
1648,Right,0,43,100,247.625,0.239583,Sixteenth,G2
1649,Left,1,60,100,247.666667,0.15625,TripletSixteenth,C4
1650,Right,0,45,100,247.75,0.239583,Sixteenth,A2
1651,Left,1,64,100,247.833333,0.15625,TripletSixteenth,E4
1652,Right,0,43,100,247.875,0.239583,Sixteenth,G2
1653,Right,0,45,100,248.0,0.239583,Sixteenth,A2
1654,Left,1,55,100,248.0,0.15625,TripletSixteenth,G3
1655,Right,0,43,100,248.125,0.239583,Sixteenth,G2
1656,Left,1,59,100,248.166667,0.15625,TripletSixteenth,B3
1657,Right,0,45,100,248.25,0.239583,Sixteenth,A2
1658,Left,1,62,100,248.333333,0.15625,TripletSixteenth,D4
1659,Right,0,43,100,248.375,0.239583,Sixteenth,G2
1660,Right,0,45,100,248.5,0.239583,Sixteenth,A2
1661,Left,1,55,100,248.5,0.15625,TripletSixteenth,G3
1662,Right,0,43,100,248.625,0.239583,Sixteenth,G2
1663,Left,1,59,100,248.666667,0.15625,TripletSixteenth,B3
1664,Right,0,42,100,248.75,0.239583,Sixteenth,F#2
1665,Left,1,62,100,248.833333,0.15625,TripletSixteenth,D4
1666,Right,0,36,100,249.0,0.989583,Quarter,C2
1667,Left,1,48,100,249.0,0.114583,ThirtySecond,C3
1668,Left,1,52,100,249.125,0.114583,ThirtySecond,E3
1669,Left,1,55,100,249.25,0.114583,ThirtySecond,G3
1670,Left,1,60,100,249.375,0.114583,ThirtySecond,C4
1671,Left,1,48,100,249.5,0.114583,ThirtySecond,C3
1672,Left,1,52,100,249.625,0.114583,ThirtySecond,E3
1673,Left,1,55,100,249.75,0.114583,ThirtySecond,G3
1674,Left,1,60,80,249.875,0.114583,ThirtySecond,C4
1675,Right,0,67,80,250.0,0.114583,ThirtySecond,G4
1676,Left,1,48,80,250.0,0.114583,ThirtySecond,C3
1678,Right,0,79,80,250.125,0.364583,DottedSixteenth,G5
1677,Left,1,52,80,250.125,0.114583,ThirtySecond,E3
1679,Left,1,55,80,250.25,0.114583,ThirtySecond,G3
1680,Left,1,60,80,250.375,0.114583,ThirtySecond,C4
1681,Left,1,48,80,250.5,0.114583,ThirtySecond,C3
1682,Right,0,67,80,250.5,0.114583,ThirtySecond,G4
1684,Left,1,52,80,250.625,0.114583,ThirtySecond,E3
1683,Right,0,79,80,250.625,0.364583,DottedSixteenth,G5
1685,Left,1,55,80,250.75,0.114583,ThirtySecond,G3
1686,Left,1,60,80,250.875,0.114583,ThirtySecond,C4
1687,Right,0,64,80,251.0,0.114583,ThirtySecond,E4
1688,Left,1,48,80,251.0,0.114583,ThirtySecond,C3
1689,Right,0,76,80,251.125,0.364583,DottedSixteenth,E5
1690,Left,1,52,80,251.125,0.114583,ThirtySecond,E3
1691,Left,1,55,80,251.25,0.114583,ThirtySecond,G3
1692,Left,1,60,80,251.375,0.114583,ThirtySecond,C4
1693,Left,1,48,80,251.5,0.114583,ThirtySecond,C3
1694,Left,1,52,80,251.625,0.114583,ThirtySecond,E3
1695,Left,1,55,80,251.75,0.114583,ThirtySecond,G3
1696,Left,1,60,80,251.875,0.114583,ThirtySecond,C4
1697,Left,1,52,80,252.0,0.15625,TripletSixteenth,E3
1698,Right,0,72,80,252.0,0.114583,ThirtySecond,C5
1699,Right,0,84,80,252.125,0.364583,DottedSixteenth,C6
1700,Left,1,55,80,252.166667,0.15625,TripletSixteenth,G3
1701,Left,1,60,80,252.333333,0.15625,TripletSixteenth,C4
1703,Right,0,72,80,252.5,0.114583,ThirtySecond,C5
1702,Left,1,52,80,252.5,0.15625,TripletSixteenth,E3
1704,Right,0,84,80,252.625,0.364583,DottedSixteenth,C6
1705,Left,1,55,80,252.666667,0.15625,TripletSixteenth,G3
1706,Left,1,60,80,252.833333,0.15625,TripletSixteenth,C4
1707,Right,0,69,80,253.0,0.114583,ThirtySecond,A4
1708,Left,1,53,80,253.0,0.239583,Sixteenth,F3
1710,Left,1,57,80,253.125,0.239583,Sixteenth,A3
1709,Right,0,81,80,253.125,0.364583,DottedSixteenth,A5
1711,Left,1,60,80,253.25,0.229167,Sixteenth,C4
1712,Left,1,62,80,253.375,0.21875,Sixteenth,D4
1713,Left,1,53,80,253.5,0.239583,Sixteenth,F3
1714,Left,1,57,80,253.625,0.21875,Sixteenth,A3
1715,Left,1,60,80,253.75,0.229167,Sixteenth,C4
1716,Left,1,62,100,253.875,0.239583,Sixteenth,D4
1718,Left,1,54,100,254.0,0.21875,Sixteenth,F#3
1717,Right,0,42,100,254.0,0.489583,Eighth,F#2
1719,Left,1,57,100,254.125,0.208333,Sixteenth,A3
1720,Left,1,60,101,254.25,0.229167,Sixteenth,C4
1721,Left,1,62,101,254.375,0.229167,Sixteenth,D4
1723,Left,1,54,101,254.5,0.239583,Sixteenth,F#3
1722,Right,0,42,101,254.5,0.489583,Eighth,F#2
1724,Left,1,57,102,254.625,0.208333,Sixteenth,A3
1725,Left,1,60,102,254.75,0.208333,Sixteenth,C4
1726,Left,1,62,102,254.875,0.229167,Sixteenth,D4
1728,Right,0,42,103,255.0,0.239583,Sixteenth,F#2
1727,Left,1,55,103,255.0,0.239583,Sixteenth,G3
1729,Right,0,43,103,255.125,0.239583,Sixteenth,G2
1730,Left,1,60,103,255.166667,0.239583,Sixteenth,C4
1731,Right,0,45,103,255.25,0.239583,Sixteenth,A2
1732,Left,1,64,104,255.333333,0.239583,Sixteenth,E4
1733,Right,0,43,104,255.375,0.239583,Sixteenth,G2
1734,Left,1,55,104,255.5,0.229167,Sixteenth,G3
1735,Right,0,45,104,255.5,0.239583,Sixteenth,A2
1736,Right,0,43,104,255.625,0.239583,Sixteenth,G2
1737,Left,1,60,105,255.666667,0.239583,Sixteenth,C4
1738,Right,0,45,105,255.75,0.239583,Sixteenth,A2
1739,Left,1,64,105,255.833333,0.239583,Sixteenth,E4
1740,Right,0,43,105,255.875,0.239583,Sixteenth,G2
1742,Left,1,55,106,256.0,0.239583,Sixteenth,G3
1741,Right,0,45,106,256.0,0.239583,Sixteenth,A2
1743,Right,0,43,106,256.125,0.239583,Sixteenth,G2
1744,Left,1,59,106,256.166667,0.229167,Sixteenth,B3
1745,Right,0,45,106,256.25,0.239583,Sixteenth,A2
1746,Left,1,62,107,256.333333,0.239583,Sixteenth,D4
1747,Right,0,43,107,256.375,0.239583,Sixteenth,G2
1748,Right,0,45,107,256.5,0.239583,Sixteenth,A2
1749,Left,1,55,107,256.5,0.229167,Sixteenth,G3
1750,Right,0,43,107,256.625,0.239583,Sixteenth,G2
1751,Left,1,59,107,256.666667,0.229167,Sixteenth,B3
1752,Right,0,42,108,256.75,0.239583,Sixteenth,F#2
1753,Left,1,62,108,256.833333,0.229167,Sixteenth,D4
1755,Right,0,36,108,257.0,0.989583,Quarter,C2
1754,Left,1,48,108,257.0,0.21875,Sixteenth,C3
1756,Left,1,52,109,257.125,0.208333,Sixteenth,E3
1757,Left,1,55,109,257.25,0.1875,TripletSixteenth,G3
1758,Left,1,60,109,257.375,0.239583,Sixteenth,C4
1759,Left,1,48,110,257.5,0.21875,Sixteenth,C3
1760,Left,1,52,110,257.625,0.208333,Sixteenth,E3
1761,Left,1,55,111,257.75,0.208333,Sixteenth,G3
1762,Left,1,60,111,257.875,0.21875,Sixteenth,C4
1763,Left,1,48,111,258.0,0.239583,Sixteenth,C3
1764,Right,0,78,111,258.0,0.489583,Eighth,F#5
1765,Left,1,51,112,258.166667,0.229167,Sixteenth,D#3
1766,Left,1,55,112,258.333333,0.239583,Sixteenth,G3
1768,Left,1,48,113,258.5,0.239583,Sixteenth,C3
1767,Right,0,78,113,258.5,0.489583,Eighth,F#5
1769,Left,1,51,113,258.666667,0.239583,Sixteenth,D#3
1770,Left,1,55,114,258.833333,0.239583,Sixteenth,G3
1771,Left,1,43,114,259.0,0.229167,Sixteenth,G2
1772,Right,0,78,114,259.0,0.239583,Sixteenth,F#5
1774,Left,1,48,114,259.125,0.239583,Sixteenth,C3
1773,Right,0,79,114,259.125,0.239583,Sixteenth,G5
1776,Right,0,81,115,259.25,0.239583,Sixteenth,A5
1775,Left,1,50,115,259.25,0.21875,Sixteenth,D3
1777,Right,0,79,115,259.375,0.239583,Sixteenth,G5
1778,Left,1,55,115,259.375,0.208333,Sixteenth,G3
1780,Right,0,81,116,259.5,0.239583,Sixteenth,A5
1779,Left,1,43,116,259.5,0.229167,Sixteenth,G2
1782,Right,0,79,116,259.625,0.239583,Sixteenth,G5
1781,Left,1,48,116,259.625,0.21875,Sixteenth,C3
1783,Right,0,81,116,259.75,0.239583,Sixteenth,A5
1784,Left,1,50,116,259.75,0.21875,Sixteenth,D3
1786,Left,1,55,117,259.875,0.21875,Sixteenth,G3
1785,Right,0,79,117,259.875,0.239583,Sixteenth,G5
1787,Left,1,43,117,260.0,0.21875,Sixteenth,G2
1788,Right,0,81,117,260.0,0.239583,Sixteenth,A5
1789,Left,1,47,117,260.125,0.197917,TripletSixteenth,B2
1790,Right,0,79,117,260.125,0.239583,Sixteenth,G5
1791,Right,0,81,118,260.25,0.239583,Sixteenth,A5
1792,Left,1,50,118,260.25,0.21875,Sixteenth,D3
1793,Left,1,55,118,260.375,0.229167,Sixteenth,G3
1794,Right,0,79,118,260.375,0.239583,Sixteenth,G5
1795,Right,0,81,118,260.5,0.239583,Sixteenth,A5
1796,Left,1,43,118,260.5,0.229167,Sixteenth,G2
1798,Left,1,47,119,260.625,0.21875,Sixteenth,B2
1797,Right,0,79,119,260.625,0.239583,Sixteenth,G5
1799,Left,1,50,119,260.75,0.197917,TripletSixteenth,D3
1800,Right,0,78,119,260.75,0.239583,Sixteenth,F#5
1802,Right,0,79,120,260.875,0.239583,Sixteenth,G5
1801,Left,1,55,120,260.875,0.114583,ThirtySecond,G3
1803,Left,1,48,120,261.0,0.489583,Eighth,C3
1804,Right,0,84,120,261.0,0.489583,Eighth,C6_C5
1806,Left,1,55,120,262.0,0.489583,Eighth,G3_G2
1807,Right,0,79,120,262.0,0.489583,Eighth,G5_G4
1812,Left,1,36,120,263.0,0.989583,Quarter,C3_C2
1810,Right,0,60,120,263.0,0.989583,Quarter,C5_C4
1816,Left,1,45,80,265.0,0.489583,Eighth,A3_A2
1814,Right,0,69,80,265.0,0.489583,Eighth,A5_A4
1818,Left,1,40,80,266.0,0.489583,Eighth,E3_E2
1819,Right,0,76,80,266.0,0.489583,Eighth,E5_E4
1823,Left,1,33,80,267.0,0.489583,Eighth,A2_A1
1822,Right,0,69,80,267.0,0.489583,Eighth,A4_A3
1826,Left,1,62,80,269.0,0.489583,Eighth,D4
1827,Right,0,74,80,269.166667,0.15625,TripletSixteenth,D5
1828,Right,0,76,80,269.333333,0.15625,TripletSixteenth,E5
1829,Right,0,77,80,269.5,0.15625,TripletSixteenth,F5
1830,Right,0,76,80,269.666667,0.15625,TripletSixteenth,E5
1831,Right,0,74,80,269.833333,0.15625,TripletSixteenth,D5
1832,Left,1,57,80,270.0,0.489583,Eighth,A3
1833,Right,0,81,80,270.166667,0.15625,TripletSixteenth,A5
1834,Right,0,83,80,270.333333,0.15625,TripletSixteenth,B5
1835,Right,0,85,80,270.5,0.15625,TripletSixteenth,C#6
1836,Right,0,83,80,270.666667,0.15625,TripletSixteenth,B5
1837,Right,0,81,80,270.833333,0.15625,TripletSixteenth,A5
1838,Left,1,50,80,271.0,0.489583,Eighth,D3
1839,Right,0,86,80,271.25,0.239583,Sixteenth,D6
1840,Right,0,85,80,271.5,0.239583,Sixteenth,C#6
1841,Right,0,86,80,271.75,0.239583,Sixteenth,D6
1842,Right,0,88,80,272.0,0.239583,Sixteenth,E6
1843,Right,0,86,80,272.25,0.239583,Sixteenth,D6
1844,Right,0,89,80,272.5,0.239583,Sixteenth,F6
1845,Right,0,86,80,272.75,0.239583,Sixteenth,D6
1846,Left,1,57,80,273.0,0.489583,Eighth,A3
1847,Right,0,85,80,273.166667,0.15625,TripletSixteenth,C#6
1848,Right,0,86,80,273.333333,0.15625,TripletSixteenth,D6
1849,Right,0,88,80,273.5,0.15625,TripletSixteenth,E6
1850,Right,0,86,80,273.666667,0.15625,TripletSixteenth,D6
1851,Right,0,85,80,273.833333,0.15625,TripletSixteenth,C#6
1852,Left,1,52,80,274.0,0.489583,Eighth,E3
1853,Right,0,85,80,274.166667,0.15625,TripletSixteenth,C#6
1854,Right,0,86,80,274.333333,0.15625,TripletSixteenth,D6
1855,Right,0,88,80,274.5,0.15625,TripletSixteenth,E6
1856,Right,0,86,80,274.666667,0.15625,TripletSixteenth,D6
1857,Right,0,85,80,274.833333,0.15625,TripletSixteenth,C#6
1858,Left,1,45,80,275.0,0.489583,Eighth,A2
1859,Right,0,86,80,275.25,0.114583,ThirtySecond,D6
1860,Right,0,85,80,275.3125,0.114583,ThirtySecond,C#6
1861,Right,0,83,80,275.375,0.114583,ThirtySecond,B5
1862,Right,0,85,80,275.4375,0.052083,SixtyFourth,C#6
1863,Right,0,88,80,275.5,0.239583,Sixteenth,E6
1864,Right,0,86,80,275.75,0.239583,Sixteenth,D6
1865,Right,0,85,80,276.0,0.239583,Sixteenth,C#6
1866,Right,0,82,80,276.25,0.239583,Sixteenth,A#5
1867,Right,0,81,80,276.5,0.239583,Sixteenth,A5
1868,Right,0,79,80,276.75,0.239583,Sixteenth,G5
1869,Right,0,77,110,277.0,0.489583,Eighth,F5_D6_D5_A5
1873,Left,1,38,110,277.166667,0.15625,TripletSixteenth,D2
1874,Left,1,40,110,277.333333,0.15625,TripletSixteenth,E2
1875,Left,1,41,110,277.5,0.15625,TripletSixteenth,F2
1876,Left,1,40,110,277.666667,0.15625,TripletSixteenth,E2
1877,Left,1,38,110,277.833333,0.15625,TripletSixteenth,D2
1878,Right,0,73,110,278.0,0.489583,Eighth,E5_C#5_A5_A4
1882,Left,1,45,110,278.166667,0.15625,TripletSixteenth,A2
1883,Left,1,47,110,278.333333,0.15625,TripletSixteenth,B2
1884,Left,1,49,110,278.5,0.15625,TripletSixteenth,C#3
1885,Left,1,47,110,278.666667,0.15625,TripletSixteenth,B2
1886,Left,1,45,110,278.833333,0.15625,TripletSixteenth,A2
1887,Right,0,65,110,279.0,0.489583,Eighth,F4_D5_D4_A4
1891,Left,1,50,110,279.166667,0.15625,TripletSixteenth,D3
1892,Left,1,52,110,279.333333,0.15625,TripletSixteenth,E3
1893,Left,1,53,110,279.5,0.15625,TripletSixteenth,F3
1894,Left,1,52,110,279.666667,0.15625,TripletSixteenth,E3
1895,Left,1,50,110,279.833333,0.15625,TripletSixteenth,D3
1896,Left,1,57,110,280.0,0.239583,Sixteenth,A3
1897,Left,1,53,110,280.25,0.239583,Sixteenth,F3
1898,Left,1,52,110,280.5,0.239583,Sixteenth,E3
1899,Left,1,50,110,280.75,0.239583,Sixteenth,D3
1900,Right,0,81,110,281.0,0.489583,Eighth,E5_C#5_A5_A4
1904,Left,1,45,110,281.166667,0.15625,TripletSixteenth,A2
1905,Left,1,47,110,281.333333,0.15625,TripletSixteenth,B2
1906,Left,1,49,110,281.5,0.15625,TripletSixteenth,C#3
1907,Left,1,47,110,281.666667,0.15625,TripletSixteenth,B2
1908,Left,1,45,110,281.833333,0.15625,TripletSixteenth,A2
1909,Right,0,76,110,282.0,0.489583,Eighth,G#4_E5_E4_B4
1913,Left,1,52,110,282.166667,0.15625,TripletSixteenth,E3
1914,Left,1,54,110,282.333333,0.15625,TripletSixteenth,F#3
1915,Left,1,56,110,282.5,0.15625,TripletSixteenth,G#3
1916,Left,1,54,110,282.666667,0.15625,TripletSixteenth,F#3
1917,Left,1,52,110,282.833333,0.15625,TripletSixteenth,E3
1918,Right,0,64,110,283.0,0.489583,Eighth,E4_C#4_A4
1921,Left,1,56,110,283.25,0.239583,Sixteenth,G#3
1922,Left,1,57,110,283.5,0.239583,Sixteenth,A3
1923,Left,1,58,110,283.75,0.239583,Sixteenth,A#3
1924,Left,1,57,110,284.0,0.239583,Sixteenth,A3
1925,Left,1,55,110,284.25,0.239583,Sixteenth,G3
1926,Left,1,53,110,284.5,0.239583,Sixteenth,F3
1927,Left,1,52,110,284.75,0.239583,Sixteenth,E3
1928,Left,1,38,80,285.0,0.489583,Eighth,D2
1929,Right,0,65,80,285.166667,0.15625,TripletSixteenth,F4
1930,Right,0,77,80,285.333333,0.15625,TripletSixteenth,F5
1931,Left,1,50,80,285.5,0.489583,Eighth,F3_D3_A3
1934,Right,0,68,80,285.666667,0.15625,TripletSixteenth,G#4
1935,Right,0,80,80,285.833333,0.15625,TripletSixteenth,G#5
1936,Left,1,57,80,286.0,0.489583,Eighth,F3_D3_A3
1939,Right,0,69,80,286.166667,0.15625,TripletSixteenth,A4
1940,Right,0,81,80,286.333333,0.15625,TripletSixteenth,A5
1941,Left,1,57,80,286.5,0.489583,Eighth,F3_D3_A3
1944,Right,0,62,80,286.666667,0.15625,TripletSixteenth,D4
1945,Right,0,74,80,286.833333,0.15625,TripletSixteenth,D5
1946,Left,1,40,80,287.0,0.489583,Eighth,E2
1947,Right,0,62,80,287.166667,0.15625,TripletSixteenth,D4
1948,Right,0,74,80,287.333333,0.15625,TripletSixteenth,D5
1949,Left,1,55,80,287.5,0.489583,Eighth,G3_E3_A3
1952,Right,0,61,80,287.666667,0.15625,TripletSixteenth,C#4
1953,Right,0,73,80,287.833333,0.15625,TripletSixteenth,C#5
1954,Left,1,55,80,288.0,0.489583,Eighth,G3_E3_A3
1957,Right,0,61,80,288.166667,0.15625,TripletSixteenth,C#4
1958,Right,0,73,80,288.333333,0.15625,TripletSixteenth,C#5
1959,Left,1,57,80,288.5,0.489583,Eighth,G3_E3_A3
1962,Right,0,64,80,288.666667,0.15625,TripletSixteenth,E4
1963,Right,0,76,80,288.833333,0.15625,TripletSixteenth,E5
1964,Left,1,41,80,289.0,0.489583,Eighth,F2
1965,Right,0,64,80,289.166667,0.15625,TripletSixteenth,E4
1966,Right,0,76,80,289.333333,0.15625,TripletSixteenth,E5
1967,Left,1,53,80,289.5,0.489583,Eighth,F3_A3
1969,Right,0,62,80,289.666667,0.15625,TripletSixteenth,D4
1970,Right,0,74,80,289.833333,0.15625,TripletSixteenth,D5
1971,Left,1,57,80,290.0,0.489583,Eighth,F3_A3
1973,Right,0,62,80,290.166667,0.15625,TripletSixteenth,D4
1974,Right,0,74,80,290.333333,0.15625,TripletSixteenth,D5
1975,Left,1,57,80,290.5,0.489583,Eighth,F3_A3
1977,Right,0,65,80,290.666667,0.15625,TripletSixteenth,F4
1978,Right,0,77,80,290.833333,0.15625,TripletSixteenth,F5
1979,Left,1,37,80,291.0,0.489583,Eighth,C#2
1980,Right,0,65,80,291.166667,0.15625,TripletSixteenth,F4
1981,Right,0,77,80,291.333333,0.15625,TripletSixteenth,F5
1982,Left,1,57,80,291.5,0.489583,Eighth,C#3_A3
1984,Right,0,64,80,291.666667,0.15625,TripletSixteenth,E4
1985,Right,0,76,80,291.833333,0.15625,TripletSixteenth,E5
1986,Left,1,49,80,292.0,0.489583,Eighth,C#3_A3
1988,Right,0,64,80,292.166667,0.15625,TripletSixteenth,E4
1989,Right,0,76,80,292.333333,0.15625,TripletSixteenth,E5
1990,Left,1,49,80,292.5,0.489583,Eighth,C#3_A3
1992,Right,0,67,80,292.666667,0.15625,TripletSixteenth,G4
1993,Right,0,79,80,292.833333,0.15625,TripletSixteenth,G5
1994,Left,1,50,80,293.0,0.489583,Eighth,D3
1995,Right,0,67,80,293.166667,0.15625,TripletSixteenth,G4
1996,Right,0,79,81,293.333333,0.15625,TripletSixteenth,G5
1997,Left,1,62,82,293.5,0.489583,Eighth,D4
1998,Right,0,65,83,293.666667,0.15625,TripletSixteenth,F4
1999,Right,0,77,84,293.833333,0.15625,TripletSixteenth,F5
2000,Left,1,48,84,294.0,0.489583,Eighth,C3
2001,Right,0,67,85,294.166667,0.15625,TripletSixteenth,G4
2002,Right,0,79,86,294.333333,0.15625,TripletSixteenth,G5
2003,Left,1,60,87,294.5,0.489583,Eighth,C4
2004,Right,0,66,88,294.666667,0.15625,TripletSixteenth,F#4
2005,Right,0,78,89,294.833333,0.15625,TripletSixteenth,F#5
2006,Left,1,46,89,295.0,0.489583,Eighth,A#2
2007,Right,0,69,90,295.166667,0.15625,TripletSixteenth,A4
2008,Right,0,81,91,295.333333,0.15625,TripletSixteenth,A5
2009,Left,1,58,92,295.5,0.489583,Eighth,A#3
2010,Right,0,67,93,295.666667,0.15625,TripletSixteenth,G4
2011,Right,0,79,94,295.833333,0.15625,TripletSixteenth,G5
2012,Left,1,42,94,296.0,0.489583,Eighth,F#2
2013,Right,0,70,95,296.166667,0.15625,TripletSixteenth,A#4
2014,Right,0,82,96,296.333333,0.15625,TripletSixteenth,A#5
2015,Left,1,54,97,296.5,0.489583,Eighth,F#3
2016,Right,0,69,98,296.666667,0.15625,TripletSixteenth,A4
2017,Right,0,81,99,296.833333,0.15625,TripletSixteenth,A5
2018,Left,1,43,99,297.0,0.489583,Eighth,G2
2019,Right,0,72,80,297.166667,0.15625,TripletSixteenth,C5
2020,Right,0,84,80,297.333333,0.15625,TripletSixteenth,C6
2021,Left,1,62,80,297.5,0.489583,Eighth,G3_D4_A#3
2024,Right,0,70,80,297.666667,0.15625,TripletSixteenth,A#4
2025,Right,0,82,80,297.833333,0.15625,TripletSixteenth,A#5
2026,Left,1,55,80,298.0,0.489583,Eighth,G3_D4_A#3
2029,Right,0,74,80,298.166667,0.15625,TripletSixteenth,D5
2030,Right,0,86,80,298.333333,0.15625,TripletSixteenth,D6
2031,Left,1,55,80,298.5,0.489583,Eighth,G3_D4_A#3
2034,Right,0,67,80,298.666667,0.15625,TripletSixteenth,G4
2035,Right,0,79,80,298.833333,0.15625,TripletSixteenth,G5
2036,Left,1,45,80,299.0,0.489583,Eighth,A2
2037,Right,0,67,80,299.166667,0.15625,TripletSixteenth,G4
2038,Right,0,79,80,299.333333,0.15625,TripletSixteenth,G5
2039,Left,1,57,80,299.5,0.489583,Eighth,D4_C4_A3
2042,Right,0,64,80,299.666667,0.15625,TripletSixteenth,E4
2043,Right,0,76,80,299.833333,0.15625,TripletSixteenth,E5
2044,Left,1,62,80,300.0,0.489583,Eighth,D4_C4_A3
2047,Right,0,66,80,300.166667,0.15625,TripletSixteenth,F#4
2048,Right,0,78,80,300.333333,0.15625,TripletSixteenth,F#5
2049,Left,1,62,80,300.5,0.489583,Eighth,D4_C4_A3
2052,Right,0,69,80,300.666667,0.15625,TripletSixteenth,A4
2053,Right,0,81,80,300.833333,0.15625,TripletSixteenth,A5
2054,Left,1,46,80,301.0,0.489583,Eighth,A#2
2055,Right,0,69,80,301.166667,0.15625,TripletSixteenth,A4
2056,Right,0,81,80,301.333333,0.15625,TripletSixteenth,A5
2057,Left,1,62,80,301.5,0.489583,Eighth,D4_A#3
2059,Right,0,66,80,301.666667,0.15625,TripletSixteenth,F#4
2060,Right,0,78,80,301.833333,0.15625,TripletSixteenth,F#5
2061,Left,1,58,80,302.0,0.489583,Eighth,D4_A#3
2063,Right,0,67,80,302.166667,0.15625,TripletSixteenth,G4
2064,Right,0,79,80,302.333333,0.15625,TripletSixteenth,G5
2065,Left,1,58,80,302.5,0.489583,Eighth,D4_A#3
2067,Right,0,70,80,302.666667,0.15625,TripletSixteenth,A#4
2068,Right,0,82,80,302.833333,0.15625,TripletSixteenth,A#5
2069,Left,1,54,80,303.0,0.489583,Eighth,F#3
2070,Right,0,70,80,303.166667,0.15625,TripletSixteenth,A#4
2071,Right,0,82,80,303.333333,0.15625,TripletSixteenth,A#5
2072,Left,1,62,80,303.5,0.489583,Eighth,D4_C4
2074,Right,0,68,80,303.666667,0.15625,TripletSixteenth,G#4
2075,Right,0,80,80,303.833333,0.15625,TripletSixteenth,G#5
2076,Left,1,60,80,304.0,0.489583,Eighth,D4_C4
2078,Right,0,69,80,304.166667,0.15625,TripletSixteenth,A4
2079,Right,0,81,80,304.333333,0.15625,TripletSixteenth,A5
2080,Left,1,60,80,304.5,0.489583,Eighth,D4_C4
2082,Right,0,72,80,304.666667,0.15625,TripletSixteenth,C5
2083,Right,0,84,80,304.833333,0.15625,TripletSixteenth,C6
2084,Left,1,55,80,305.0,0.489583,Eighth,G3
2085,Right,0,72,81,305.166667,0.15625,TripletSixteenth,C5
2086,Right,0,84,82,305.333333,0.15625,TripletSixteenth,C6
2087,Left,1,67,83,305.5,0.489583,Eighth,G4
2088,Right,0,70,85,305.666667,0.15625,TripletSixteenth,A#4
2089,Right,0,82,86,305.833333,0.15625,TripletSixteenth,A#5
2090,Left,1,53,87,306.0,0.489583,Eighth,F3
2091,Right,0,72,89,306.166667,0.15625,TripletSixteenth,C5
2092,Right,0,84,90,306.333333,0.15625,TripletSixteenth,C6
2093,Left,1,65,91,306.5,0.489583,Eighth,F4
2094,Right,0,71,93,306.666667,0.15625,TripletSixteenth,B4
2095,Right,0,83,94,306.833333,0.15625,TripletSixteenth,B5
2096,Left,1,52,95,307.0,0.489583,Eighth,E3
2097,Right,0,74,96,307.166667,0.15625,TripletSixteenth,D5
2098,Right,0,86,98,307.333333,0.15625,TripletSixteenth,D6
2099,Left,1,64,99,307.5,0.489583,Eighth,E4
2100,Right,0,72,100,307.666667,0.15625,TripletSixteenth,C5
2101,Right,0,84,102,307.833333,0.15625,TripletSixteenth,C6
2102,Left,1,47,103,308.0,0.489583,Eighth,B2
2103,Right,0,75,104,308.166667,0.15625,TripletSixteenth,D#5
2104,Right,0,87,106,308.333333,0.15625,TripletSixteenth,D#6
2105,Left,1,59,107,308.5,0.489583,Eighth,B3
2106,Right,0,74,108,308.666667,0.15625,TripletSixteenth,D5
2107,Right,0,86,109,308.833333,0.15625,TripletSixteenth,D6
2108,Left,1,48,120,309.0,0.489583,Eighth,C3
2109,Right,0,77,120,309.166667,0.15625,TripletSixteenth,F5
2110,Right,0,89,120,309.333333,0.15625,TripletSixteenth,F6
2111,Left,1,60,120,309.5,0.489583,Eighth,C4
2112,Right,0,75,120,309.666667,0.15625,TripletSixteenth,D#5
2113,Right,0,87,120,309.833333,0.15625,TripletSixteenth,D#6
2114,Left,1,46,120,310.0,0.489583,Eighth,A#2
2115,Right,0,77,120,310.166667,0.15625,TripletSixteenth,F5
2116,Right,0,89,120,310.333333,0.15625,TripletSixteenth,F6
2117,Left,1,58,120,310.5,0.489583,Eighth,A#3
2118,Right,0,76,120,310.666667,0.15625,TripletSixteenth,E5
2119,Right,0,88,120,310.833333,0.15625,TripletSixteenth,E6
2120,Left,1,45,120,311.0,0.489583,Eighth,A2
2121,Right,0,77,120,311.166667,0.15625,TripletSixteenth,F5
2122,Right,0,89,120,311.333333,0.15625,TripletSixteenth,F6
2123,Left,1,57,120,311.5,0.489583,Eighth,A3
2124,Right,0,72,120,311.666667,0.15625,TripletSixteenth,C5
2125,Right,0,84,120,311.833333,0.15625,TripletSixteenth,C6
2126,Left,1,41,120,312.0,0.489583,Eighth,F2
2127,Right,0,77,120,312.166667,0.15625,TripletSixteenth,F5
2128,Right,0,89,120,312.333333,0.15625,TripletSixteenth,F6
2129,Left,1,53,120,312.5,0.489583,Eighth,F3
2130,Right,0,75,120,312.666667,0.15625,TripletSixteenth,D#5
2131,Right,0,87,120,312.833333,0.15625,TripletSixteenth,D#6
2132,Left,1,46,120,313.0,0.489583,Eighth,A#2
2133,Right,0,75,80,313.166667,0.15625,TripletSixteenth,D#5
2134,Right,0,87,80,313.333333,0.15625,TripletSixteenth,D#6
2135,Left,1,62,80,313.5,0.489583,Eighth,F4_D4_A#3
2138,Right,0,74,80,313.666667,0.15625,TripletSixteenth,D5
2139,Right,0,86,80,313.833333,0.15625,TripletSixteenth,D6
2140,Left,1,62,80,314.0,0.489583,Eighth,F4_D4_A#3
2143,Right,0,77,80,314.166667,0.15625,TripletSixteenth,F5
2144,Right,0,89,80,314.333333,0.15625,TripletSixteenth,F6
2145,Left,1,65,80,314.5,0.489583,Eighth,F4_D4_A#3
2148,Right,0,70,80,314.666667,0.15625,TripletSixteenth,A#4
2149,Right,0,82,80,314.833333,0.15625,TripletSixteenth,A#5
2150,Left,1,48,80,315.0,0.489583,Eighth,C3
2151,Right,0,70,80,315.166667,0.15625,TripletSixteenth,A#4
2152,Right,0,82,80,315.333333,0.15625,TripletSixteenth,A#5
2153,Left,1,60,80,315.5,0.489583,Eighth,F4_D#4_C4
2156,Right,0,68,80,315.666667,0.15625,TripletSixteenth,G#4
2157,Right,0,80,80,315.833333,0.15625,TripletSixteenth,G#5
2158,Left,1,63,80,316.0,0.489583,Eighth,F4_D#4_C4
2161,Right,0,69,80,316.166667,0.15625,TripletSixteenth,A4
2162,Right,0,81,80,316.333333,0.15625,TripletSixteenth,A5
2163,Left,1,63,80,316.5,0.489583,Eighth,F4_D#4_C4
2166,Right,0,72,80,316.666667,0.15625,TripletSixteenth,C5
2167,Right,0,84,80,316.833333,0.15625,TripletSixteenth,C6
2168,Left,1,50,80,317.0,0.489583,Eighth,D3
2169,Right,0,72,80,317.166667,0.15625,TripletSixteenth,C5
2170,Right,0,84,81,317.333333,0.15625,TripletSixteenth,C6
2171,Left,1,65,82,317.5,0.489583,Eighth,F4_D4
2173,Right,0,69,83,317.666667,0.15625,TripletSixteenth,A4
2174,Right,0,81,84,317.833333,0.15625,TripletSixteenth,A5
2175,Left,1,62,85,318.0,0.489583,Eighth,F4_D4
2177,Right,0,70,86,318.166667,0.15625,TripletSixteenth,A#4
2178,Right,0,82,86,318.333333,0.15625,TripletSixteenth,A#5
2179,Left,1,62,87,318.5,0.489583,Eighth,F4_D4
2181,Right,0,74,88,318.666667,0.15625,TripletSixteenth,D5
2182,Right,0,86,89,318.833333,0.15625,TripletSixteenth,D6
2183,Left,1,57,90,319.0,0.489583,Eighth,A3
2184,Right,0,74,91,319.166667,0.15625,TripletSixteenth,D5
2185,Right,0,86,92,319.333333,0.15625,TripletSixteenth,D6
2186,Left,1,60,93,319.5,0.489583,Eighth,F4_D#4_C4
2189,Right,0,71,93,319.666667,0.15625,TripletSixteenth,B4
2190,Right,0,83,94,319.833333,0.15625,TripletSixteenth,B5
2191,Left,1,65,95,320.0,0.489583,Eighth,F4_D#4_C4
2194,Right,0,72,96,320.166667,0.15625,TripletSixteenth,C5
2195,Right,0,84,97,320.333333,0.15625,TripletSixteenth,C6
2196,Left,1,63,98,320.5,0.489583,Eighth,F4_D#4_C4
2199,Right,0,75,99,320.666667,0.15625,TripletSixteenth,D#5
2200,Right,0,87,99,320.833333,0.15625,TripletSixteenth,D#6
2201,Left,1,70,80,321.0,0.489583,Eighth,A#4
2202,Right,0,86,80,321.166667,0.15625,TripletSixteenth,D6
2203,Right,0,87,80,321.333333,0.15625,TripletSixteenth,D#6
2204,Right,0,89,80,321.5,0.15625,TripletSixteenth,F6
2205,Right,0,87,80,321.666667,0.15625,TripletSixteenth,D#6
2206,Right,0,86,80,321.833333,0.15625,TripletSixteenth,D6
2207,Left,1,65,80,322.0,0.489583,Eighth,F4
2208,Right,0,86,80,322.166667,0.15625,TripletSixteenth,D6
2209,Right,0,87,80,322.333333,0.15625,TripletSixteenth,D#6
2210,Right,0,89,80,322.5,0.15625,TripletSixteenth,F6
2211,Right,0,87,80,322.666667,0.15625,TripletSixteenth,D#6
2212,Right,0,86,80,322.833333,0.15625,TripletSixteenth,D6
2213,Left,1,58,80,323.0,0.489583,Eighth,A#3
2214,Right,0,86,80,323.166667,0.15625,TripletSixteenth,D6
2215,Right,0,87,80,323.333333,0.15625,TripletSixteenth,D#6
2216,Right,0,89,80,323.5,0.15625,TripletSixteenth,F6
2217,Right,0,87,80,323.666667,0.15625,TripletSixteenth,D#6
2218,Right,0,86,80,323.833333,0.15625,TripletSixteenth,D6
2219,Right,0,88,80,324.0,0.239583,Sixteenth,E6
2220,Right,0,89,80,324.25,0.239583,Sixteenth,F6
2221,Right,0,86,80,324.5,0.239583,Sixteenth,D6
2222,Right,0,82,80,324.75,0.239583,Sixteenth,A#5
2223,Left,1,65,80,325.0,0.489583,Eighth,F4
2224,Right,0,81,80,325.166667,0.15625,TripletSixteenth,A5
2225,Right,0,82,80,325.333333,0.15625,TripletSixteenth,A#5
2226,Right,0,84,80,325.5,0.15625,TripletSixteenth,C6
2227,Right,0,82,80,325.666667,0.15625,TripletSixteenth,A#5
2228,Right,0,81,80,325.833333,0.15625,TripletSixteenth,A5
2229,Left,1,60,80,326.0,0.489583,Eighth,C4
2230,Right,0,81,80,326.166667,0.15625,TripletSixteenth,A5
2231,Right,0,82,80,326.333333,0.15625,TripletSixteenth,A#5
2232,Right,0,84,80,326.5,0.15625,TripletSixteenth,C6
2233,Right,0,82,80,326.666667,0.15625,TripletSixteenth,A#5
2234,Right,0,81,80,326.833333,0.15625,TripletSixteenth,A5
2235,Left,1,53,80,327.0,0.489583,Eighth,F3
2236,Right,0,81,80,327.166667,0.15625,TripletSixteenth,A5
2237,Right,0,82,80,327.333333,0.15625,TripletSixteenth,A#5
2238,Right,0,84,80,327.5,0.15625,TripletSixteenth,C6
2239,Right,0,82,80,327.666667,0.15625,TripletSixteenth,A#5
2240,Right,0,81,80,327.833333,0.15625,TripletSixteenth,A5
2241,Right,0,87,80,328.0,0.239583,Sixteenth,D#6
2242,Right,0,84,80,328.25,0.239583,Sixteenth,C6
2243,Right,0,81,80,328.5,0.239583,Sixteenth,A5
2244,Right,0,75,80,328.75,0.239583,Sixteenth,D#5
2245,Right,0,82,80,329.0,0.489583,Eighth,F5_C#5_A#5_A#4
2249,Left,1,46,80,329.166667,0.15625,TripletSixteenth,A#2
2250,Left,1,48,81,329.333333,0.15625,TripletSixteenth,C3
2251,Left,1,49,82,329.5,0.15625,TripletSixteenth,C#3
2252,Left,1,48,83,329.666667,0.15625,TripletSixteenth,C3
2253,Left,1,46,84,329.833333,0.15625,TripletSixteenth,A#2
2254,Right,0,77,85,330.0,0.489583,Eighth,F5_F4_C#5_A#4
2258,Left,1,46,86,330.166667,0.15625,TripletSixteenth,A#2
2259,Left,1,48,87,330.333333,0.15625,TripletSixteenth,C3
2260,Left,1,49,87,330.5,0.15625,TripletSixteenth,C#3
2261,Left,1,48,88,330.666667,0.15625,TripletSixteenth,C3
2262,Left,1,46,89,330.833333,0.15625,TripletSixteenth,A#2
2263,Right,0,70,90,331.0,0.489583,Eighth,F4_C#5_C#4_A#4
2267,Left,1,46,91,331.166667,0.15625,TripletSixteenth,A#2
2268,Left,1,48,92,331.333333,0.15625,TripletSixteenth,C3
2269,Left,1,49,93,331.5,0.15625,TripletSixteenth,C#3
2270,Left,1,48,94,331.666667,0.15625,TripletSixteenth,C3
2271,Left,1,46,95,331.833333,0.15625,TripletSixteenth,A#2
2272,Left,1,53,95,332.0,0.239583,Sixteenth,F3
2273,Left,1,49,97,332.25,0.239583,Sixteenth,C#3
2274,Left,1,48,98,332.5,0.239583,Sixteenth,C3
2275,Left,1,46,99,332.75,0.239583,Sixteenth,A#2
2276,Right,0,69,110,333.0,0.489583,Eighth,F4_D#5_D#4_A4
2280,Left,1,41,110,333.166667,0.15625,TripletSixteenth,F2
2281,Left,1,43,110,333.333333,0.15625,TripletSixteenth,G2
2282,Left,1,45,110,333.5,0.15625,TripletSixteenth,A2
2283,Left,1,43,110,333.666667,0.15625,TripletSixteenth,G2
2284,Left,1,41,110,333.833333,0.15625,TripletSixteenth,F2
2285,Right,0,65,110,334.0,0.489583,Eighth,F4_D#4_C5_A4
2289,Left,1,45,110,334.166667,0.15625,TripletSixteenth,A2
2290,Left,1,46,110,334.333333,0.15625,TripletSixteenth,A#2
2291,Left,1,48,110,334.5,0.15625,TripletSixteenth,C3
2292,Left,1,46,110,334.666667,0.15625,TripletSixteenth,A#2
2293,Left,1,45,110,334.833333,0.15625,TripletSixteenth,A2
2294,Right,0,69,110,335.0,0.489583,Eighth,F4_D#4_C4_A4
2298,Left,1,48,110,335.166667,0.15625,TripletSixteenth,C3
2299,Left,1,49,110,335.333333,0.15625,TripletSixteenth,C#3
2300,Left,1,51,110,335.5,0.15625,TripletSixteenth,D#3
2301,Left,1,49,110,335.666667,0.15625,TripletSixteenth,C#3
2302,Left,1,48,110,335.833333,0.15625,TripletSixteenth,C3
2303,Left,1,53,110,336.0,0.239583,Sixteenth,F3
2304,Left,1,51,110,336.25,0.239583,Sixteenth,D#3
2305,Left,1,49,110,336.5,0.239583,Sixteenth,C#3
2306,Left,1,48,110,336.75,0.239583,Sixteenth,C3
2307,Left,1,58,80,337.0,0.489583,Eighth,A#3
2308,Right,0,70,80,337.166667,0.15625,TripletSixteenth,A#4
2309,Right,0,72,80,337.333333,0.15625,TripletSixteenth,C5
2310,Right,0,73,80,337.5,0.15625,TripletSixteenth,C#5
2311,Right,0,72,80,337.666667,0.15625,TripletSixteenth,C5
2312,Right,0,70,80,337.833333,0.15625,TripletSixteenth,A#4
2313,Left,1,53,80,338.0,0.489583,Eighth,F3
2314,Right,0,70,80,338.166667,0.15625,TripletSixteenth,A#4
2315,Right,0,72,80,338.333333,0.15625,TripletSixteenth,C5
2316,Right,0,73,80,338.5,0.15625,TripletSixteenth,C#5
2317,Right,0,72,80,338.666667,0.15625,TripletSixteenth,C5
2318,Right,0,70,80,338.833333,0.15625,TripletSixteenth,A#4
2319,Left,1,46,80,339.0,0.489583,Eighth,A#2
2320,Right,0,70,80,339.166667,0.15625,TripletSixteenth,A#4
2321,Right,0,72,80,339.333333,0.15625,TripletSixteenth,C5
2322,Right,0,73,80,339.5,0.15625,TripletSixteenth,C#5
2323,Right,0,72,80,339.666667,0.15625,TripletSixteenth,C5
2324,Right,0,70,80,339.833333,0.15625,TripletSixteenth,A#4
2325,Right,0,82,80,340.0,0.239583,Sixteenth,A#5
2326,Right,0,77,80,340.25,0.239583,Sixteenth,F5
2327,Right,0,85,80,340.5,0.239583,Sixteenth,C#6
2328,Right,0,77,80,340.75,0.239583,Sixteenth,F5
2329,Left,1,48,80,341.0,0.489583,Eighth,C3
2330,Right,0,76,80,341.166667,0.15625,TripletSixteenth,E5
2331,Right,0,77,80,341.333333,0.15625,TripletSixteenth,F5
2332,Right,0,79,80,341.5,0.15625,TripletSixteenth,G5
2333,Right,0,77,80,341.666667,0.15625,TripletSixteenth,F5
2334,Right,0,76,80,341.833333,0.15625,TripletSixteenth,E5
2335,Left,1,43,80,342.0,0.489583,Eighth,G2
2336,Right,0,76,80,342.166667,0.15625,TripletSixteenth,E5
2337,Right,0,77,80,342.333333,0.15625,TripletSixteenth,F5
2338,Right,0,79,80,342.5,0.15625,TripletSixteenth,G5
2339,Right,0,77,80,342.666667,0.15625,TripletSixteenth,F5
2340,Right,0,76,80,342.833333,0.15625,TripletSixteenth,E5
2341,Left,1,36,80,343.0,0.489583,Eighth,C2
2342,Right,0,76,80,343.166667,0.15625,TripletSixteenth,E5
2343,Right,0,77,80,343.333333,0.15625,TripletSixteenth,F5
2344,Right,0,79,80,343.5,0.15625,TripletSixteenth,G5
2345,Right,0,77,80,343.666667,0.15625,TripletSixteenth,F5
2346,Right,0,76,80,343.833333,0.15625,TripletSixteenth,E5
2347,Right,0,82,80,344.0,0.239583,Sixteenth,A#5
2348,Right,0,79,80,344.25,0.239583,Sixteenth,G5
2349,Right,0,76,80,344.5,0.239583,Sixteenth,E5
2350,Right,0,70,80,344.75,0.239583,Sixteenth,A#4
2351,Left,1,53,80,345.0,0.489583,Eighth,F3
2352,Right,0,68,80,345.166667,0.15625,TripletSixteenth,G#4
2353,Right,0,70,81,345.333333,0.15625,TripletSixteenth,A#4
2354,Right,0,72,82,345.5,0.15625,TripletSixteenth,C5
2355,Right,0,70,83,345.666667,0.15625,TripletSixteenth,A#4
2356,Right,0,68,84,345.833333,0.15625,TripletSixteenth,G#4
2357,Left,1,48,85,346.0,0.489583,Eighth,C3
2358,Right,0,68,86,346.166667,0.15625,TripletSixteenth,G#4
2359,Right,0,70,87,346.333333,0.15625,TripletSixteenth,A#4
2360,Right,0,72,87,346.5,0.15625,TripletSixteenth,C5
2361,Right,0,70,88,346.666667,0.15625,TripletSixteenth,A#4
2362,Right,0,68,89,346.833333,0.15625,TripletSixteenth,G#4
2363,Left,1,41,90,347.0,0.489583,Eighth,F2
2364,Right,0,68,91,347.166667,0.15625,TripletSixteenth,G#4
2365,Right,0,70,92,347.333333,0.15625,TripletSixteenth,A#4
2366,Right,0,72,93,347.5,0.15625,TripletSixteenth,C5
2367,Right,0,70,94,347.666667,0.15625,TripletSixteenth,A#4
2368,Right,0,68,95,347.833333,0.15625,TripletSixteenth,G#4
2369,Right,0,77,95,348.0,0.239583,Sixteenth,F5
2370,Right,0,68,97,348.25,0.239583,Sixteenth,G#4
2371,Right,0,80,98,348.5,0.239583,Sixteenth,G#5
2372,Right,0,68,99,348.75,0.239583,Sixteenth,G#4
2373,Left,1,49,110,349.0,0.489583,Eighth,C#3
2374,Right,0,77,110,349.166667,0.15625,TripletSixteenth,F5
2375,Right,0,79,110,349.333333,0.15625,TripletSixteenth,G5
2376,Right,0,80,110,349.5,0.15625,TripletSixteenth,G#5
2377,Right,0,79,110,349.666667,0.15625,TripletSixteenth,G5
2378,Right,0,77,110,349.833333,0.15625,TripletSixteenth,F5
2379,Left,1,44,110,350.0,0.489583,Eighth,G#2
2380,Right,0,77,110,350.166667,0.15625,TripletSixteenth,F5
2381,Right,0,79,110,350.333333,0.15625,TripletSixteenth,G5
2382,Right,0,80,110,350.5,0.15625,TripletSixteenth,G#5
2383,Right,0,79,110,350.666667,0.15625,TripletSixteenth,G5
2384,Right,0,77,110,350.833333,0.15625,TripletSixteenth,F5
2385,Left,1,37,110,351.0,0.489583,Eighth,C#2
2386,Right,0,77,110,351.166667,0.15625,TripletSixteenth,F5
2387,Right,0,79,110,351.333333,0.15625,TripletSixteenth,G5
2388,Right,0,80,110,351.5,0.15625,TripletSixteenth,G#5
2389,Right,0,79,110,351.666667,0.15625,TripletSixteenth,G5
2390,Right,0,77,110,351.833333,0.15625,TripletSixteenth,F5
2392,Left,1,36,110,352.0,0.489583,Eighth,C2
2391,Right,0,80,110,352.0,0.239583,Sixteenth,G#5
2393,Right,0,77,110,352.25,0.239583,Sixteenth,F5
2394,Right,0,89,110,352.5,0.239583,Sixteenth,F6
2395,Right,0,77,110,352.75,0.239583,Sixteenth,F5
2396,Left,1,35,120,353.0,0.489583,Eighth,B1
2397,Right,0,77,120,353.166667,0.15625,TripletSixteenth,F5
2398,Right,0,79,120,353.333333,0.15625,TripletSixteenth,G5
2399,Right,0,80,120,353.5,0.15625,TripletSixteenth,G#5
2400,Right,0,79,120,353.666667,0.15625,TripletSixteenth,G5
2401,Right,0,77,120,353.833333,0.15625,TripletSixteenth,F5
2402,Right,0,86,120,354.0,0.239583,Sixteenth,D6
2403,Right,0,77,120,354.25,0.239583,Sixteenth,F5
2404,Right,0,86,120,354.5,0.239583,Sixteenth,D6
2405,Right,0,77,120,354.75,0.239583,Sixteenth,F5
2406,Left,1,34,120,355.0,0.989583,Quarter,A#1
2407,Right,0,77,120,355.166667,0.15625,TripletSixteenth,F5
2408,Right,0,79,120,355.333333,0.15625,TripletSixteenth,G5
2409,Right,0,80,120,355.5,0.15625,TripletSixteenth,G#5
2410,Right,0,79,120,355.666667,0.15625,TripletSixteenth,G5
2411,Right,0,77,120,355.833333,0.15625,TripletSixteenth,F5
2412,Right,0,86,120,356.0,0.239583,Sixteenth,D6
2413,Right,0,77,120,356.25,0.239583,Sixteenth,F5
2414,Right,0,86,120,356.5,0.239583,Sixteenth,D6
2415,Right,0,77,120,356.75,0.239583,Sixteenth,F5
2416,Left,1,33,120,357.0,0.989583,Quarter,A1
2417,Right,0,77,120,357.166667,0.15625,TripletSixteenth,F5
2418,Right,0,79,120,357.333333,0.15625,TripletSixteenth,G5
2419,Right,0,81,120,357.5,0.15625,TripletSixteenth,A5
2420,Right,0,79,120,357.666667,0.15625,TripletSixteenth,G5
2421,Right,0,77,120,357.833333,0.15625,TripletSixteenth,F5
2422,Right,0,86,110,358.0,0.239583,Sixteenth,D6
2423,Right,0,77,108,358.25,0.239583,Sixteenth,F5
2424,Right,0,86,105,358.5,0.239583,Sixteenth,D6
2425,Right,0,77,102,358.75,0.239583,Sixteenth,F5
2426,Right,0,86,100,359.0,0.239583,Sixteenth,D6
2427,Right,0,77,97,359.25,0.239583,Sixteenth,F5
2428,Right,0,86,94,359.5,0.239583,Sixteenth,D6
2429,Right,0,77,91,359.75,0.239583,Sixteenth,F5
2430,Right,0,86,89,360.0,0.239583,Sixteenth,D6
2431,Right,0,77,86,360.25,0.239583,Sixteenth,F5
2432,Right,0,86,83,360.5,0.239583,Sixteenth,D6
2433,Right,0,77,81,360.75,0.239583,Sixteenth,F5
2434,Left,1,45,80,361.0,0.989583,Quarter,A2_A1
2436,Right,0,76,80,361.25,0.239583,Sixteenth,E5
2437,Right,0,86,80,361.5,0.239583,Sixteenth,D6
2438,Right,0,76,80,361.75,0.239583,Sixteenth,E5
2439,Right,0,86,80,362.0,0.239583,Sixteenth,D6
2440,Right,0,76,80,362.25,0.239583,Sixteenth,E5
2441,Right,0,86,80,362.5,0.239583,Sixteenth,D6
2442,Right,0,76,80,362.75,0.239583,Sixteenth,E5
2443,Left,1,45,70,363.0,0.989583,Quarter,A2_A1
2445,Right,0,76,70,363.25,0.239583,Sixteenth,E5
2446,Right,0,85,70,363.5,0.239583,Sixteenth,C#6
2447,Right,0,76,70,363.75,0.239583,Sixteenth,E5
2448,Right,0,85,70,364.0,0.239583,Sixteenth,C#6
2449,Right,0,76,70,364.25,0.239583,Sixteenth,E5
2450,Right,0,85,70,364.5,0.239583,Sixteenth,C#6
2451,Right,0,76,70,364.75,0.239583,Sixteenth,E5
2452,Right,0,66,80,368.5,0.489583,Eighth,F#4_D4
2453,Left,1,57,80,368.5,0.489583,Eighth,D3_A3
2457,Right,0,62,80,369.0,0.989583,Quarter,F#4_D4_A4
2456,Left,1,50,80,369.0,0.989583,Quarter,D3_A3
2461,Right,0,81,80,370.5,0.15625,TripletSixteenth,A5
2462,Right,0,80,80,370.666667,0.15625,TripletSixteenth,G#5
2463,Right,0,83,80,370.833333,0.15625,TripletSixteenth,B5
2464,Right,0,81,80,371.0,0.989583,Quarter,A5
2466,Left,1,50,80,372.5,0.489583,Eighth,D3_A3
2465,Right,0,66,80,372.5,0.489583,Eighth,F#4_D4
2469,Right,0,67,80,373.0,0.989583,Quarter,G4_E4
2471,Left,1,57,80,373.0,0.989583,Quarter,C#3_A3
2473,Right,0,81,80,374.5,0.15625,TripletSixteenth,A5
2474,Right,0,80,80,374.666667,0.15625,TripletSixteenth,G#5
2475,Right,0,83,80,374.833333,0.15625,TripletSixteenth,B5
2476,Right,0,81,80,375.0,0.989583,Quarter,A5
2477,Right,0,67,80,376.5,0.489583,Eighth,G4
2478,Right,0,66,80,377.0,0.364583,DottedSixteenth,F#4
2479,Left,1,57,80,377.0,0.989583,Quarter,F#3_D3_A3
2482,Right,0,69,80,377.375,0.114583,ThirtySecond,A4
2483,Right,0,74,80,377.5,0.989583,Quarter,D5
2484,Left,1,57,80,378.0,0.989583,Quarter,G3_E3_C#4_A3
2488,Right,0,73,80,378.5,0.489583,Eighth,C#5
2490,Right,0,74,80,379.0,0.489583,Eighth,D5
2489,Left,1,57,80,379.0,0.989583,Quarter,F#3_D4_A3
2493,Right,0,78,80,379.5,0.989583,Quarter,F#5
2494,Left,1,62,80,380.0,0.989583,Quarter,G3_D4_B3
2497,Right,0,76,80,380.5,0.989583,Quarter,E5
2498,Left,1,62,80,381.0,0.989583,Quarter,F#4_D4_C4_A3
2502,Right,0,78,80,381.5,0.989583,Quarter,F#5
2503,Left,1,66,80,382.0,0.989583,Quarter,F#4_D4_C4_A4
2507,Right,0,79,80,382.5,0.239583,Sixteenth,G5
2508,Right,0,81,80,382.75,0.239583,Sixteenth,A5
2509,Left,1,67,80,383.0,0.989583,Quarter,G4_D4_B3
2511,Right,0,81,80,383.0,0.489583,Eighth,A5
2513,Right,0,79,80,383.5,0.489583,Eighth,G5
2514,Left,1,59,80,385.0,0.989583,Quarter,G4_D4_B3
2517,Right,0,79,80,385.0,0.239583,Sixteenth,G5
2518,Right,0,81,80,385.125,0.239583,Sixteenth,A5
2519,Right,0,78,80,385.25,0.239583,Sixteenth,F#5
2520,Right,0,79,80,385.375,0.114583,ThirtySecond,G5
2521,Right,0,83,80,385.5,0.989583,Quarter,B5
2522,Left,1,69,80,386.0,0.989583,Quarter,E4_C#4_A4
2525,Right,0,81,80,386.5,0.239583,Sixteenth,A5
2526,Right,0,79,80,386.75,0.239583,Sixteenth,G5
2530,Right,0,78,80,387.0,0.239583,Sixteenth,F#5
2527,Left,1,62,80,387.0,0.989583,Quarter,F#4_D4_A4
2531,Right,0,79,80,387.125,0.239583,Sixteenth,G5
2532,Right,0,81,80,387.25,0.239583,Sixteenth,A5
2533,Right,0,79,80,387.375,0.114583,ThirtySecond,G5
2534,Right,0,78,80,387.5,0.864583,DottedEighth,F#5
2535,Left,1,55,80,388.0,0.989583,Quarter,G3_E4_B3
2538,Right,0,76,80,388.375,0.114583,ThirtySecond,E5
2539,Right,0,79,80,388.5,0.364583,DottedSixteenth,G5
2540,Right,0,76,80,388.875,0.114583,ThirtySecond,E5
2541,Left,1,62,80,389.0,0.989583,Quarter,F#4_D4_A3
2543,Right,0,76,80,389.0,0.489583,Eighth,E5
2545,Right,0,74,80,389.5,0.864583,DottedEighth,D5
2546,Left,1,67,80,390.0,0.989583,Quarter,G4_E4_A3
2549,Right,0,73,80,390.375,0.114583,ThirtySecond,C#5
2550,Right,0,76,80,390.5,0.364583,DottedSixteenth,E5
2551,Right,0,73,80,390.875,0.114583,ThirtySecond,C#5
2552,Left,1,66,80,391.0,0.989583,Quarter,F#4_D4
2553,Right,0,74,80,391.0,0.989583,Quarter,D5
2555,Left,1,50,70,394.5,0.489583,Eighth,D4_D3
2557,Right,0,66,70,394.5,0.489583,Eighth,F#4_A4
2560,Left,1,55,70,395.0,0.989583,Quarter,G3_D4
2559,Right,0,67,70,395.0,0.989583,Quarter,G4_A#4
2563,Right,0,82,70,396.5,0.15625,TripletSixteenth,A#5
2564,Right,0,81,70,396.666667,0.15625,TripletSixteenth,A5
2565,Right,0,84,70,396.833333,0.15625,TripletSixteenth,C6
2566,Right,0,82,70,397.0,0.989583,Quarter,A#5
2567,Right,0,67,70,398.5,0.489583,Eighth,G4_A#4
2569,Left,1,55,70,398.5,0.489583,Eighth,G3_D4
2572,Right,0,70,70,399.0,0.989583,Quarter,E4_A#4
2571,Left,1,60,70,399.0,0.989583,Quarter,C4_C3
2575,Right,0,82,70,400.5,0.15625,TripletSixteenth,A#5
2576,Right,0,81,70,400.666667,0.15625,TripletSixteenth,A5
2577,Right,0,84,70,400.833333,0.15625,TripletSixteenth,C6
2578,Right,0,82,70,401.0,0.989583,Quarter,A#5
2579,Right,0,82,70,402.5,0.15625,TripletSixteenth,A#5
2580,Right,0,81,70,402.666667,0.15625,TripletSixteenth,A5
2581,Right,0,84,70,402.833333,0.15625,TripletSixteenth,C6
2582,Right,0,82,70,403.0,0.489583,Eighth,A#5
2583,Right,0,82,70,403.5,0.15625,TripletSixteenth,A#5
2584,Right,0,81,70,403.666667,0.15625,TripletSixteenth,A5
2585,Right,0,84,70,403.833333,0.15625,TripletSixteenth,C6
2586,Right,0,82,70,404.0,0.489583,Eighth,A#5
2587,Right,0,82,70,404.5,0.15625,TripletSixteenth,A#5
2588,Right,0,81,70,404.666667,0.15625,TripletSixteenth,A5
2589,Right,0,84,70,404.833333,0.15625,TripletSixteenth,C6
2590,Right,0,82,70,405.0,0.989583,Quarter,A#5
2591,Right,0,70,80,406.5,0.489583,Eighth,A#4
2592,Right,0,69,80,407.0,0.364583,DottedSixteenth,A4
2593,Left,1,53,80,407.0,0.989583,Quarter,F3_C4_A3
2596,Right,0,72,81,407.375,0.114583,ThirtySecond,C5
2597,Right,0,77,82,407.5,0.989583,Quarter,F5
2598,Left,1,55,84,408.0,0.989583,Quarter,G3_C4_A#3
2601,Right,0,76,87,408.5,0.489583,Eighth,E5
2602,Left,1,57,89,409.0,0.989583,Quarter,F4_C4_A3
2604,Right,0,77,89,409.0,0.489583,Eighth,F5
2606,Right,0,81,92,409.5,0.989583,Quarter,A5
2607,Left,1,67,94,410.0,0.989583,Quarter,G4_F4_D4_A#3
2611,Right,0,79,97,410.5,0.989583,Quarter,G5
2612,Left,1,69,99,411.0,0.989583,Quarter,F4_C4_A4
2615,Right,0,81,100,411.5,0.989583,Quarter,A5
2616,Left,1,65,98,412.0,0.989583,Quarter,F4_D#4_C5_A4
2620,Right,0,82,96,412.5,0.239583,Sixteenth,A#5
2621,Right,0,84,94,412.75,0.239583,Sixteenth,C6
2622,Right,0,84,93,413.0,0.489583,Eighth,C6
2623,Left,1,70,93,413.0,0.989583,Quarter,F4_D4_A#4
2626,Right,0,82,91,413.5,0.489583,Eighth,A#5
2627,Right,0,82,80,415.0,0.239583,Sixteenth,A#5
2628,Left,1,62,80,415.0,0.989583,Quarter,F4_D4_A#4
2631,Right,0,84,80,415.125,0.239583,Sixteenth,C6
2632,Right,0,81,80,415.25,0.239583,Sixteenth,A5
2633,Right,0,82,80,415.375,0.239583,Sixteenth,A#5
2634,Right,0,86,80,415.5,0.989583,Quarter,D6
2635,Left,1,67,80,416.0,0.989583,Quarter,G4_E4_C5
2638,Right,0,84,80,416.5,0.239583,Sixteenth,C6
2639,Right,0,82,80,416.75,0.239583,Sixteenth,A#5
2643,Right,0,81,80,417.0,0.239583,Sixteenth,A5
2640,Left,1,72,80,417.0,0.989583,Quarter,F4_C5_A4
2644,Right,0,82,80,417.125,0.239583,Sixteenth,A#5
2645,Right,0,84,80,417.25,0.239583,Sixteenth,C6
2646,Right,0,82,80,417.375,0.239583,Sixteenth,A#5
2647,Right,0,81,80,417.5,0.864583,DottedEighth,A5
2648,Left,1,62,80,418.0,0.989583,Quarter,G4_D4_A#3
2651,Right,0,79,80,418.375,0.114583,ThirtySecond,G5
2652,Right,0,82,80,418.5,0.364583,DottedSixteenth,A#5
2653,Right,0,79,80,418.875,0.114583,ThirtySecond,G5
2657,Right,0,79,80,419.0,0.489583,Eighth,G5
2654,Left,1,69,80,419.0,0.989583,Quarter,F4_C4_A4
2658,Right,0,77,80,419.5,0.864583,DottedEighth,F5
2659,Left,1,70,80,420.0,0.489583,Eighth,G4_C4_A#4
2662,Right,0,76,80,420.375,0.114583,ThirtySecond,E5
2663,Right,0,79,80,420.5,0.364583,DottedSixteenth,G5
2664,Right,0,76,80,420.875,0.114583,ThirtySecond,E5
2665,Right,0,77,80,421.0,0.989583,Quarter,F5
2666,Left,1,41,80,421.0,0.239583,Sixteenth,F2
2667,Left,1,45,81,421.25,0.239583,Sixteenth,A2
2668,Left,1,36,82,421.5,0.239583,Sixteenth,C2
2669,Left,1,40,83,421.75,0.239583,Sixteenth,E2
2670,Left,1,41,84,422.0,0.239583,Sixteenth,F2
2671,Left,1,45,85,422.25,0.239583,Sixteenth,A2
2674,Left,1,36,87,422.5,0.239583,Sixteenth,C2
2672,Right,0,65,87,422.5,0.489583,Eighth,F4_F3
2675,Left,1,40,88,422.75,0.239583,Sixteenth,E2
2676,Right,0,57,89,423.0,0.989583,Quarter,F4_C4_A4_A3
2679,Left,1,41,89,423.0,0.239583,Sixteenth,F2
2681,Left,1,45,90,423.25,0.239583,Sixteenth,A2
2682,Left,1,36,91,423.5,0.239583,Sixteenth,C2
2683,Left,1,40,93,423.75,0.239583,Sixteenth,E2
2684,Right,0,65,94,424.0,0.989583,Quarter,F4_C5_C4_A4
2685,Left,1,41,94,424.0,0.239583,Sixteenth,F2
2689,Left,1,45,95,424.25,0.239583,Sixteenth,A2
2690,Left,1,36,96,424.5,0.239583,Sixteenth,C2
2691,Left,1,40,97,424.75,0.239583,Sixteenth,E2
2693,Left,1,41,99,425.0,0.239583,Sixteenth,F2
2692,Right,0,69,99,425.0,1.489583,DottedQuarter,F5_F4_C5_A4
2697,Left,1,45,100,425.25,0.239583,Sixteenth,A2
2698,Left,1,36,101,425.5,0.239583,Sixteenth,C2
2699,Left,1,40,102,425.75,0.239583,Sixteenth,E2
2700,Left,1,41,103,426.0,0.239583,Sixteenth,F2
2701,Left,1,45,105,426.25,0.239583,Sixteenth,A2
2702,Right,0,81,106,426.5,0.489583,Eighth,F5_C5_A5_A4
2705,Left,1,36,106,426.5,0.239583,Sixteenth,C2
2707,Left,1,40,107,426.75,0.239583,Sixteenth,E2
2709,Right,0,81,108,427.0,0.489583,Eighth,F5_C6_C5_A5
2708,Left,1,41,108,427.0,0.239583,Sixteenth,F2
2713,Left,1,45,109,427.25,0.239583,Sixteenth,A2
2714,Right,0,84,110,427.5,0.989583,Quarter,F6_F5_C6_A5
2718,Left,1,36,110,427.5,0.239583,Sixteenth,C2
2719,Left,1,40,110,427.75,0.239583,Sixteenth,E2
2720,Left,1,41,110,428.0,0.239583,Sixteenth,F2
2721,Left,1,45,110,428.25,0.239583,Sixteenth,A2
2726,Left,1,36,110,428.5,0.239583,Sixteenth,C2
2722,Right,0,89,110,428.5,0.489583,Eighth,F6_F5_C6_A5
2727,Left,1,40,110,428.75,0.239583,Sixteenth,E2
2728,Left,1,43,100,429.0,0.239583,Sixteenth,G2
2729,Right,0,89,100,429.0,1.489583,Quarter,F6_F5_C6_A#5
2733,Left,1,46,98,429.25,0.239583,Sixteenth,A#2
2734,Left,1,36,95,429.5,0.239583,Sixteenth,C2
2735,Left,1,42,92,429.75,0.239583,Sixteenth,F#2
2736,Right,0,88,89,430.0,0.489583,Eighth,E6_E5
2737,Left,1,43,89,430.0,0.239583,Sixteenth,G2
2739,Left,1,46,86,430.25,0.239583,Sixteenth,A#2
2740,Left,1,36,83,430.5,0.239583,Sixteenth,C2
2741,Left,1,42,81,430.75,0.239583,Sixteenth,F#2
2745,Left,1,43,80,431.0,0.239583,Sixteenth,G2
2742,Right,0,58,80,431.0,0.989583,Quarter,G3_E4_E3_A#3
2747,Left,1,46,81,431.25,0.239583,Sixteenth,A#2
2748,Left,1,36,82,431.5,0.239583,Sixteenth,C2
2749,Left,1,42,83,431.75,0.239583,Sixteenth,F#2
2753,Left,1,43,84,432.0,0.239583,Sixteenth,G2
2750,Right,0,67,84,432.0,0.989583,Quarter,G4_G3_E4_A#3
2755,Left,1,46,85,432.25,0.239583,Sixteenth,A#2
2756,Left,1,36,87,432.5,0.239583,Sixteenth,C2
2757,Left,1,42,88,432.75,0.239583,Sixteenth,F#2
2758,Right,0,70,89,433.0,1.489583,DottedQuarter,G4_E4_A#4_A#3
2762,Left,1,43,89,433.0,0.239583,Sixteenth,G2
2763,Left,1,46,90,433.25,0.239583,Sixteenth,A#2
2764,Left,1,36,91,433.5,0.239583,Sixteenth,C2
2765,Left,1,42,92,433.75,0.239583,Sixteenth,F#2
2766,Left,1,43,94,434.0,0.239583,Sixteenth,G2
2767,Left,1,46,95,434.25,0.239583,Sixteenth,A#2
2768,Left,1,36,96,434.5,0.239583,Sixteenth,C2
2769,Right,0,64,96,434.5,0.489583,Eighth,E5_E4
2771,Left,1,42,97,434.75,0.239583,Sixteenth,F#2
2774,Left,1,43,98,435.0,0.239583,Sixteenth,G2
2772,Right,0,79,98,435.0,0.489583,Eighth,G5_G4
2775,Left,1,46,99,435.25,0.239583,Sixteenth,A#2
2777,Left,1,36,110,435.5,0.239583,Sixteenth,C2
2776,Right,0,82,110,435.5,0.989583,Quarter,A#5_A#4
2779,Left,1,42,110,435.75,0.239583,Sixteenth,F#2
2780,Left,1,43,110,436.0,0.239583,Sixteenth,G2
2781,Left,1,46,110,436.25,0.239583,Sixteenth,A#2
2782,Right,0,81,110,436.5,0.489583,Eighth,A5_A4
2784,Left,1,36,110,436.5,0.239583,Sixteenth,C2
2785,Left,1,43,110,436.75,0.239583,Sixteenth,G2
2787,Left,1,45,100,437.0,0.239583,Sixteenth,A2
2786,Right,0,79,100,437.0,0.989583,Quarter,G5_G4
2789,Left,1,48,98,437.25,0.239583,Sixteenth,C3
2790,Left,1,41,95,437.5,0.239583,Sixteenth,F2
2791,Left,1,44,92,437.75,0.239583,Sixteenth,G#2
2792,Right,0,65,89,438.0,0.489583,Eighth,F5_F4
2794,Left,1,45,89,438.0,0.239583,Sixteenth,A2
2795,Left,1,48,86,438.25,0.239583,Sixteenth,C3
2796,Left,1,41,83,438.5,0.239583,Sixteenth,F2
2797,Left,1,44,81,438.75,0.239583,Sixteenth,G#2
2798,Right,0,65,80,439.0,0.239583,Sixteenth,F4
2799,Left,1,48,80,439.0,3.489583,DottedHalf,C3
2800,Right,0,68,80,439.25,0.239583,Sixteenth,G#4
2801,Right,0,60,80,439.5,0.239583,Sixteenth,C4
2802,Right,0,64,80,439.75,0.239583,Sixteenth,E4
2804,Left,1,53,80,440.0,2.489583,Half,F3
2803,Right,0,65,80,440.0,0.239583,Sixteenth,F4
2805,Right,0,68,80,440.25,0.239583,Sixteenth,G#4
2806,Right,0,60,80,440.5,0.239583,Sixteenth,C4
2807,Right,0,64,80,440.75,0.239583,Sixteenth,E4
2808,Right,0,65,80,441.0,0.239583,Sixteenth,F4
2809,Left,1,56,80,441.0,1.489583,DottedQuarter,G#3
2810,Right,0,68,80,441.25,0.239583,Sixteenth,G#4
2811,Right,0,60,80,441.5,0.239583,Sixteenth,C4
2812,Right,0,64,80,441.75,0.239583,Sixteenth,E4
2813,Right,0,65,80,442.0,0.239583,Sixteenth,F4
2814,Right,0,68,80,442.25,0.239583,Sixteenth,G#4
2816,Left,1,53,80,442.5,0.489583,Eighth,G#3_F3
2815,Right,0,60,80,442.5,0.239583,Sixteenth,C4
2818,Right,0,64,80,442.75,0.239583,Sixteenth,E4
2820,Left,1,53,80,443.0,0.489583,Eighth,G#3_F3
2819,Right,0,65,80,443.0,0.239583,Sixteenth,F4
2822,Right,0,68,80,443.25,0.239583,Sixteenth,G#4
2824,Right,0,60,80,443.5,0.239583,Sixteenth,C4
2823,Left,1,53,80,443.5,0.489583,Eighth,G#3_F3
2826,Right,0,64,80,443.75,0.239583,Sixteenth,E4
2827,Right,0,65,80,444.0,0.239583,Sixteenth,F4
2828,Left,1,56,80,444.0,0.489583,Eighth,G#3_F3
2830,Right,0,67,80,444.25,0.239583,Sixteenth,G4
2831,Right,0,68,80,444.5,0.239583,Sixteenth,G#4
2832,Left,1,56,80,444.5,0.489583,Eighth,G#3_F3
2834,Right,0,65,80,444.75,0.239583,Sixteenth,F4
2836,Left,1,51,80,445.0,0.989583,Quarter,G3_D#3_A#3
2835,Right,0,67,80,445.0,0.239583,Sixteenth,G4
2839,Right,0,70,80,445.25,0.239583,Sixteenth,A#4
2840,Right,0,63,80,445.5,0.239583,Sixteenth,D#4
2841,Right,0,66,80,445.75,0.239583,Sixteenth,F#4
2842,Right,0,67,80,446.0,0.239583,Sixteenth,G4
2843,Right,0,70,80,446.25,0.239583,Sixteenth,A#4
2844,Right,0,63,80,446.5,0.239583,Sixteenth,D#4
2845,Right,0,66,80,446.75,0.239583,Sixteenth,F#4
2846,Left,1,51,80,447.0,3.489583,DottedHalf,D#3
2847,Right,0,67,80,447.0,0.239583,Sixteenth,G4
2848,Right,0,70,80,447.25,0.239583,Sixteenth,A#4
2849,Right,0,63,80,447.5,0.239583,Sixteenth,D#4
2850,Right,0,66,80,447.75,0.239583,Sixteenth,F#4
2852,Left,1,55,80,448.0,2.489583,Half,G3
2851,Right,0,67,80,448.0,0.239583,Sixteenth,G4
2853,Right,0,70,80,448.25,0.239583,Sixteenth,A#4
2854,Right,0,63,80,448.5,0.239583,Sixteenth,D#4
2855,Right,0,66,80,448.75,0.239583,Sixteenth,F#4
2857,Right,0,67,80,449.0,0.239583,Sixteenth,G4
2856,Left,1,58,80,449.0,1.489583,DottedQuarter,A#3
2858,Right,0,70,80,449.25,0.239583,Sixteenth,A#4
2859,Right,0,63,80,449.5,0.239583,Sixteenth,D#4
2860,Right,0,66,80,449.75,0.239583,Sixteenth,F#4
2861,Right,0,67,80,450.0,0.239583,Sixteenth,G4
2862,Right,0,70,80,450.25,0.239583,Sixteenth,A#4
2864,Right,0,63,80,450.5,0.239583,Sixteenth,D#4
2863,Left,1,61,80,450.5,0.489583,Eighth,C#4_A#3
2866,Right,0,66,80,450.75,0.239583,Sixteenth,F#4
2869,Right,0,67,80,451.0,0.239583,Sixteenth,G4
2867,Left,1,61,80,451.0,0.489583,Eighth,C#4_A#3
2870,Right,0,70,80,451.25,0.239583,Sixteenth,A#4
2872,Left,1,61,80,451.5,0.489583,Eighth,C#4_A#3
2871,Right,0,63,80,451.5,0.239583,Sixteenth,D#4
2874,Right,0,66,80,451.75,0.239583,Sixteenth,F#4
2876,Right,0,67,80,452.0,0.239583,Sixteenth,G4
2875,Left,1,58,80,452.0,0.489583,Eighth,C#4_A#3
2878,Right,0,70,80,452.25,0.239583,Sixteenth,A#4
2881,Right,0,63,80,452.5,0.239583,Sixteenth,D#4
2879,Left,1,61,80,452.5,0.489583,Eighth,C#4_A#3
2882,Right,0,67,80,452.75,0.239583,Sixteenth,G4
2883,Left,1,56,80,453.0,0.989583,Quarter,G#3_C4
2884,Right,0,68,80,453.0,0.239583,Sixteenth,G#4
2886,Right,0,72,80,453.25,0.239583,Sixteenth,C5
2887,Right,0,63,80,453.5,0.239583,Sixteenth,D#4
2888,Right,0,67,80,453.75,0.239583,Sixteenth,G4
2889,Right,0,69,80,454.0,0.239583,Sixteenth,A4
2890,Left,1,63,80,454.0,0.989583,Quarter,D#4
2891,Right,0,72,80,454.25,0.239583,Sixteenth,C5
2892,Right,0,65,80,454.5,0.239583,Sixteenth,F4
2893,Right,0,69,80,454.75,0.239583,Sixteenth,A4
2895,Left,1,62,80,455.0,0.989583,Quarter,D4
2894,Right,0,70,80,455.0,0.239583,Sixteenth,A#4
2896,Right,0,77,80,455.25,0.239583,Sixteenth,F5
2897,Right,0,65,80,455.5,0.239583,Sixteenth,F4
2898,Right,0,69,80,455.75,0.239583,Sixteenth,A4
2900,Left,1,61,80,456.0,0.989583,Quarter,C#4
2899,Right,0,71,80,456.0,0.239583,Sixteenth,B4
2901,Right,0,67,80,456.25,0.239583,Sixteenth,G4
2902,Right,0,77,80,456.5,0.239583,Sixteenth,F5
2903,Right,0,71,80,456.75,0.239583,Sixteenth,B4
2904,Right,0,72,80,457.0,0.989583,Quarter,C5
2905,Left,1,48,80,457.0,0.989583,Quarter,C3
2906,Left,1,52,80,457.166667,0.15625,TripletSixteenth,E3
2907,Left,1,55,80,457.333333,0.15625,TripletSixteenth,G3
2908,Left,1,52,80,457.5,0.15625,TripletSixteenth,E3
2909,Left,1,55,80,457.666667,0.15625,TripletSixteenth,G3
2910,Left,1,52,80,457.833333,0.15625,TripletSixteenth,E3
2911,Left,1,47,80,458.0,0.989583,Quarter,B2
2912,Left,1,50,80,458.166667,0.15625,TripletSixteenth,D3
2913,Left,1,55,80,458.333333,0.15625,TripletSixteenth,G3
2914,Left,1,50,80,458.5,0.15625,TripletSixteenth,D3
2915,Right,0,89,80,458.5,0.489583,Eighth,F6
2916,Left,1,55,80,458.666667,0.15625,TripletSixteenth,G3
2917,Left,1,50,80,458.833333,0.15625,TripletSixteenth,D3
2918,Left,1,48,80,459.0,0.989583,Quarter,C3
2919,Right,0,89,80,459.0,0.489583,Eighth,F6
2920,Left,1,52,80,459.166667,0.15625,TripletSixteenth,E3
2921,Left,1,55,80,459.333333,0.15625,TripletSixteenth,G3
2923,Left,1,52,80,459.5,0.15625,TripletSixteenth,E3
2922,Right,0,88,80,459.5,0.489583,Eighth,E6
2924,Left,1,55,80,459.666667,0.15625,TripletSixteenth,G3
2925,Left,1,52,80,459.833333,0.15625,TripletSixteenth,E3
2926,Left,1,50,80,460.0,0.989583,Quarter,D3
2927,Left,1,53,80,460.166667,0.15625,TripletSixteenth,F3
2928,Left,1,55,80,460.333333,0.15625,TripletSixteenth,G3
2929,Right,0,77,80,460.5,0.489583,Eighth,F5_B5
2930,Left,1,53,80,460.5,0.15625,TripletSixteenth,F3
2932,Left,1,55,80,460.666667,0.15625,TripletSixteenth,G3
2933,Left,1,53,80,460.833333,0.15625,TripletSixteenth,F3
2934,Left,1,48,80,461.0,0.989583,Quarter,C3
2935,Right,0,84,80,461.0,0.989583,Quarter,F5_C6
2937,Left,1,52,80,461.166667,0.15625,TripletSixteenth,E3
2938,Left,1,55,80,461.333333,0.15625,TripletSixteenth,G3
2939,Left,1,52,80,461.5,0.15625,TripletSixteenth,E3
2940,Right,0,76,80,461.5,0.489583,Eighth,E5
2941,Left,1,55,80,461.666667,0.15625,TripletSixteenth,G3
2942,Left,1,52,80,461.833333,0.15625,TripletSixteenth,E3
2943,Left,1,47,80,462.0,0.989583,Quarter,B2
2944,Left,1,50,80,462.166667,0.15625,TripletSixteenth,D3
2945,Left,1,55,80,462.333333,0.15625,TripletSixteenth,G3
2947,Right,0,89,101,462.5,0.489583,Eighth,F6
2946,Left,1,50,80,462.5,0.15625,TripletSixteenth,D3
2948,Left,1,55,80,462.666667,0.15625,TripletSixteenth,G3
2949,Left,1,50,80,462.833333,0.15625,TripletSixteenth,D3
2950,Left,1,48,80,463.0,0.989583,Quarter,C3
2951,Right,0,89,80,463.0,0.239583,Sixteenth,F6
2952,Left,1,52,80,463.166667,0.15625,TripletSixteenth,E3
2953,Right,0,88,80,463.25,0.239583,Sixteenth,E6
2954,Left,1,55,80,463.333333,0.15625,TripletSixteenth,G3
2956,Left,1,52,80,463.5,0.15625,TripletSixteenth,E3
2955,Right,0,86,80,463.5,0.239583,Sixteenth,D6
2957,Left,1,55,80,463.666667,0.15625,TripletSixteenth,G3
2958,Right,0,84,80,463.75,0.239583,Sixteenth,C6
2959,Left,1,52,80,463.833333,0.15625,TripletSixteenth,E3
2960,Left,1,50,80,464.0,0.989583,Quarter,D3
2961,Left,1,53,80,464.166667,0.15625,TripletSixteenth,F3
2962,Left,1,55,80,464.333333,0.15625,TripletSixteenth,G3
2965,Left,1,53,80,464.5,0.15625,TripletSixteenth,F3
2963,Right,0,83,100,464.5,0.489583,Eighth,F5_B5
2966,Left,1,55,80,464.666667,0.15625,TripletSixteenth,G3
2967,Left,1,53,80,464.833333,0.15625,TripletSixteenth,F3
2968,Left,1,48,80,465.0,0.989583,Quarter,C3
2969,Right,0,77,80,465.0,0.989583,Sixteenth,F5_C6
2971,Left,1,52,80,465.166667,0.15625,TripletSixteenth,E3
2972,Right,0,76,80,465.25,0.239583,Sixteenth,E5
2973,Left,1,55,80,465.333333,0.15625,TripletSixteenth,G3
2975,Left,1,52,80,465.5,0.15625,TripletSixteenth,E3
2974,Right,0,74,80,465.5,0.239583,Sixteenth,D5
2976,Left,1,55,80,465.666667,0.15625,TripletSixteenth,G3
2977,Right,0,72,80,465.75,0.239583,Sixteenth,C5
2978,Left,1,52,80,465.833333,0.15625,TripletSixteenth,E3
2979,Left,1,50,80,466.0,0.989583,Quarter,D3
2980,Left,1,53,80,466.166667,0.15625,TripletSixteenth,F3
2981,Left,1,55,80,466.333333,0.15625,TripletSixteenth,G3
2984,Left,1,53,80,466.5,0.15625,TripletSixteenth,F3
2982,Right,0,83,100,466.5,0.489583,Eighth,F5_B5
2985,Left,1,55,80,466.666667,0.15625,TripletSixteenth,G3
2986,Left,1,53,80,466.833333,0.15625,TripletSixteenth,F3
2987,Right,0,84,80,467.0,0.989583,Quarter,F5_C6
2988,Left,1,48,80,467.0,0.989583,Quarter,C3
2990,Left,1,52,80,467.166667,0.15625,TripletSixteenth,E3
2991,Right,0,76,80,467.25,0.239583,Sixteenth,E5
2992,Left,1,55,80,467.333333,0.15625,TripletSixteenth,G3
2993,Left,1,52,80,467.5,0.15625,TripletSixteenth,E3
2994,Right,0,74,80,467.5,0.239583,Sixteenth,D5
2995,Left,1,55,80,467.666667,0.15625,TripletSixteenth,G3
2996,Right,0,72,80,467.75,0.239583,Sixteenth,C5
2997,Left,1,52,80,467.833333,0.15625,TripletSixteenth,E3
2998,Left,1,50,80,468.0,0.989583,Quarter,D3
2999,Left,1,53,80,468.166667,0.15625,TripletSixteenth,F3
3000,Left,1,55,80,468.333333,0.15625,TripletSixteenth,G3
3001,Right,0,77,100,468.5,0.489583,Eighth,F5_B5
3002,Left,1,53,80,468.5,0.15625,TripletSixteenth,F3
3004,Left,1,55,80,468.666667,0.15625,TripletSixteenth,G3
3005,Left,1,53,80,468.833333,0.15625,TripletSixteenth,F3
3006,Right,0,84,80,469.0,0.989583,Quarter,F5_C6
3008,Left,1,55,80,469.0,0.989583,Quarter,G3_E3_C3
3011,Right,0,76,80,469.25,0.239583,Sixteenth,E5
3012,Right,0,74,80,469.5,0.239583,Sixteenth,D5
3013,Right,0,72,80,469.75,0.239583,Sixteenth,C5
3014,Right,0,71,80,470.0,0.239583,Sixteenth,B4
3015,Right,0,72,80,470.25,0.239583,Sixteenth,C5
3016,Right,0,74,80,470.5,0.239583,Sixteenth,D5
3017,Right,0,72,80,470.75,0.239583,Sixteenth,C5
3018,Right,0,71,80,471.0,0.239583,Sixteenth,B4
3019,Right,0,72,80,471.25,0.239583,Sixteenth,C5
3020,Right,0,74,80,471.5,0.239583,Sixteenth,D5
3021,Right,0,72,80,471.75,0.239583,Sixteenth,C5
3022,Right,0,71,80,472.0,0.239583,Sixteenth,B4
3023,Right,0,72,80,472.25,0.239583,Sixteenth,C5
3024,Right,0,73,80,472.5,0.239583,Sixteenth,C#5
3025,Right,0,74,80,472.75,0.239583,Sixteenth,D5
3027,Left,1,60,80,473.0,0.989583,Quarter,C4_A#3
3026,Right,0,74,80,473.0,0.489583,Eighth,D5
3030,Right,0,70,80,473.5,0.489583,Eighth,A#4
3029,Left,1,55,80,473.5,0.489583,Eighth,G3
3032,Left,1,60,80,474.0,0.489583,Eighth,E3_C4
3031,Right,0,67,80,474.0,0.489583,Eighth,G4
3036,Right,0,70,80,474.5,0.239583,Sixteenth,A#4
3034,Left,1,60,80,474.5,0.489583,Eighth,F3_C4
3037,Right,0,69,80,474.625,0.239583,Sixteenth,A4
3038,Right,0,67,80,474.75,0.239583,Sixteenth,G4
3039,Right,0,69,80,474.875,0.114583,ThirtySecond,A4
3040,Right,0,74,80,475.0,0.489583,Eighth,D5
3041,Left,1,60,80,475.0,0.989583,Quarter,C4_A#3
3044,Left,1,55,80,475.5,0.489583,Eighth,G3
3043,Right,0,70,80,475.5,0.489583,Eighth,A#4
3045,Left,1,60,80,476.0,0.489583,Eighth,E3_C4
3047,Right,0,67,80,476.0,0.489583,Eighth,G4
3050,Right,0,70,80,476.5,0.239583,Sixteenth,A#4
3048,Left,1,53,80,476.5,0.489583,Eighth,F3_C4
3051,Right,0,69,80,476.625,0.239583,Sixteenth,A4
3052,Right,0,67,80,476.75,0.239583,Sixteenth,G4
3053,Right,0,69,80,476.875,0.114583,ThirtySecond,A4
3055,Right,0,62,80,477.0,0.489583,Eighth,G4_D4_A#4
3054,Left,1,46,80,477.0,0.489583,Eighth,A#3_A#2
3061,Right,0,64,80,478.0,0.489583,Eighth,G4_E4_C4
3059,Left,1,48,80,478.0,0.489583,Eighth,G3_E3_C3
3065,Right,0,60,80,479.0,0.989583,Quarter,F4_C4_A4
3068,Left,1,41,80,479.0,0.989583,Quarter,F3_F2_C3
3071,Left,1,68,120,480.5,0.489583,Eighth,G#4_C5
3073,Right,0,84,120,480.625,0.239583,Sixteenth,C6
3074,Right,0,80,120,480.75,0.239583,Sixteenth,G#5
3075,Right,0,72,120,480.875,0.239583,Sixteenth,C5
3076,Left,1,70,120,481.0,0.489583,Eighth,C#5_A#4
3078,Right,0,85,120,481.125,0.239583,Sixteenth,C#6
3079,Right,0,82,120,481.25,0.239583,Sixteenth,A#5
3080,Right,0,72,120,481.375,0.239583,Sixteenth,C5
3081,Left,1,67,120,481.5,0.489583,Eighth,G4_A#4
3083,Right,0,82,120,481.625,0.239583,Sixteenth,A#5
3084,Right,0,79,120,481.75,0.239583,Sixteenth,G5
3085,Right,0,72,120,481.875,0.239583,Sixteenth,C5
3086,Left,1,64,120,482.0,0.489583,Eighth,G4_E4
3088,Right,0,79,120,482.125,0.239583,Sixteenth,G5
3089,Right,0,76,120,482.25,0.239583,Sixteenth,E5
3090,Right,0,72,120,482.375,0.239583,Sixteenth,C5
3091,Left,1,65,120,482.5,0.489583,Eighth,G#4_F4
3093,Right,0,80,120,482.625,0.239583,Sixteenth,G#5
3094,Right,0,77,120,482.75,0.239583,Sixteenth,F5
3095,Right,0,72,120,482.875,0.239583,Sixteenth,C5
3096,Left,1,73,120,483.0,0.489583,Eighth,C#5_A#4
3098,Right,0,85,120,483.125,0.239583,Sixteenth,C#6
3099,Right,0,82,120,483.25,0.239583,Sixteenth,A#5
3100,Right,0,72,120,483.375,0.239583,Sixteenth,C5
3101,Left,1,67,120,483.5,0.489583,Eighth,G4_A#4
3103,Right,0,82,120,483.625,0.239583,Sixteenth,A#5
3104,Right,0,79,120,483.75,0.239583,Sixteenth,G5
3105,Right,0,72,120,483.875,0.239583,Sixteenth,C5
3106,Left,1,64,120,484.0,0.489583,Eighth,G4_E4
3108,Right,0,79,120,484.125,0.239583,Sixteenth,G5
3109,Right,0,76,120,484.25,0.239583,Sixteenth,E5
3110,Right,0,72,120,484.375,0.239583,Sixteenth,C5
3111,Left,1,65,120,484.5,0.489583,Eighth,G#4_F4
3113,Right,0,80,120,484.625,0.239583,Sixteenth,G#5
3114,Right,0,77,120,484.75,0.239583,Sixteenth,F5
3115,Right,0,72,120,484.875,0.114583,ThirtySecond,C5
3116,Left,1,61,110,485.0,0.489583,Eighth,G4_C#4_A#3
3117,Right,0,79,110,485.0,0.489583,Eighth,G5_C#5_A#5
3122,Left,1,60,110,486.0,0.489583,Eighth,G4_E4_C4
3123,Right,0,70,110,486.0,0.489583,Eighth,G5_E5_A#4
3128,Left,1,65,110,487.0,0.489583,Eighth,F4_C#4
3129,Right,0,77,110,487.0,0.489583,Eighth,G#4_F5_C#5
3133,Left,1,47,70,489.0,0.489583,Eighth,B2_B1
3135,Right,0,65,70,489.0,0.489583,Eighth,G#3_F4_D4
3138,Left,1,48,80,491.0,0.489583,Eighth,C3_A#2
3140,Right,0,55,80,491.25,0.489583,Eighth,G3_E4
3142,Left,1,48,81,491.5,0.489583,Eighth,E2_C3
3144,Right,0,58,82,491.75,0.489583,Eighth,G4_A#3
3146,Left,1,48,83,492.0,0.489583,Eighth,F2_C3
3148,Right,0,65,84,492.25,0.489583,Eighth,F4_A3
3150,Left,1,48,85,492.5,0.489583,Eighth,C3_C2
3152,Right,0,69,86,492.75,0.489583,Eighth,F4_A4
3154,Left,1,43,87,493.0,0.489583,Eighth,G2_C3
3156,Right,0,64,88,493.25,0.489583,Eighth,E4_A#4
3158,Left,1,48,89,493.5,0.489583,Eighth,C3_C2
3160,Right,0,70,90,493.75,0.489583,Eighth,E5_A#4
3162,Left,1,48,91,494.0,0.489583,Eighth,F2_C3
3164,Right,0,69,92,494.25,0.489583,Eighth,F5_A4
3166,Left,1,48,93,494.5,0.489583,Eighth,C3_C2
3168,Right,0,77,94,494.75,0.489583,Eighth,F5_A5
3170,Left,1,48,95,495.0,0.489583,Eighth,G2_C3
3172,Right,0,76,96,495.25,0.489583,Eighth,E5_A#5
3174,Left,1,46,97,495.5,0.489583,Eighth,C3_A#2
3176,Right,0,79,98,495.75,0.489583,Eighth,G5_E5_C6
3179,Left,1,45,99,496.0,0.489583,Eighth,C3_A2
3181,Right,0,77,100,496.25,0.489583,Eighth,F5_C6_A5
3184,Left,1,48,101,496.5,0.489583,Eighth,F2_C3
3186,Right,0,81,102,496.75,0.489583,Eighth,F6_C6_A5
3189,Left,1,43,103,497.0,0.489583,Eighth,G2_C3
3191,Right,0,88,104,497.25,0.489583,Eighth,G5_E6_C6
3194,Left,1,48,105,497.5,0.489583,Eighth,C3_A#2
3196,Right,0,76,106,497.75,0.489583,Eighth,G5_E5_C6
3199,Left,1,45,107,498.0,0.489583,Eighth,C3_A2
3201,Right,0,81,108,498.25,0.489583,Eighth,F5_C6_A5
3204,Left,1,41,108,498.5,0.489583,Eighth,F2_C3
3206,Right,0,89,109,498.75,0.239583,Sixteenth,F6_C6_A5
3209,Left,1,55,110,499.0,0.489583,Eighth,G3_D3_A#2
3212,Right,0,86,110,499.5,0.15625,TripletSixteenth,D6
3213,Right,0,85,110,499.666667,0.15625,TripletSixteenth,C#6
3214,Right,0,88,110,499.833333,0.15625,TripletSixteenth,E6
3215,Left,1,62,110,500.0,0.489583,Eighth,G4_D4_A#3
3217,Right,0,86,110,500.0,0.489583,Eighth,D6
3219,Right,0,82,110,500.5,0.15625,TripletSixteenth,A#5
3220,Right,0,81,110,500.666667,0.15625,TripletSixteenth,A5
3221,Right,0,84,110,500.833333,0.15625,TripletSixteenth,C6
3222,Right,0,82,110,501.0,0.489583,Eighth,A#5
3223,Right,0,79,110,501.5,0.15625,TripletSixteenth,G5
3224,Right,0,78,110,501.666667,0.15625,TripletSixteenth,F#5
3225,Right,0,81,110,501.833333,0.15625,TripletSixteenth,A5
3226,Right,0,79,110,502.0,0.489583,Eighth,G5
3227,Right,0,74,110,502.5,0.15625,TripletSixteenth,D5
3228,Right,0,73,110,502.666667,0.15625,TripletSixteenth,C#5
3229,Right,0,76,110,502.833333,0.15625,TripletSixteenth,E5
3230,Right,0,74,110,503.0,0.489583,Eighth,D5
3231,Left,1,55,110,503.5,0.989583,Quarter,G3
3232,Right,0,67,110,503.5,0.989583,Quarter,G4
3234,Left,1,57,110,504.5,0.239583,Sixteenth,A3
3233,Right,0,69,110,504.5,0.239583,Sixteenth,A4
3236,Left,1,58,110,504.75,0.239583,Sixteenth,A#3
3235,Right,0,70,110,504.75,0.239583,Sixteenth,A#4
3238,Left,1,60,110,505.0,0.989583,Quarter,C4
3237,Right,0,72,110,505.0,1.15625,TiedQuarter-ThirtySecond,C5
3239,Left,1,52,110,506.0,0.989583,Quarter,G3_E3_C3_A#3
3243,Right,0,74,110,506.166667,0.15625,TripletSixteenth,D5
3244,Right,0,72,110,506.333333,0.15625,TripletSixteenth,C5
3245,Right,0,70,110,506.5,0.15625,TripletSixteenth,A#4
3246,Right,0,69,110,506.666667,0.15625,TripletSixteenth,A4
3247,Right,0,67,110,506.833333,0.15625,TripletSixteenth,G4
3248,Left,1,57,110,507.0,0.489583,Eighth,F3_A3
3250,Right,0,65,110,507.0,0.489583,Eighth,F4
3251,Right,0,79,120,507.5,1.489583,Quarter,G5_F5
3252,Left,1,67,120,507.5,1.489583,DottedQuarter,G4_F4_D4
3257,Right,0,81,120,508.5,0.239583,Sixteenth,A5
3256,Left,1,69,120,508.5,0.239583,Sixteenth,A4
3258,Right,0,83,120,508.75,0.239583,Sixteenth,B5
3259,Left,1,71,120,508.75,0.239583,Sixteenth,B4
3264,Right,0,84,120,509.0,1.114583,TiedQuarter-ThirtySecond,C6
3260,Left,1,69,120,509.0,0.989583,Quarter,F4_C5_C4_A4
3265,Left,1,60,110,510.0,0.989583,Quarter,G4_C4_A#4
3268,Right,0,86,110,510.125,0.114583,ThirtySecond,D6
3269,Right,0,84,109,510.25,0.114583,ThirtySecond,C6
3270,Right,0,83,108,510.375,0.114583,ThirtySecond,B5
3271,Right,0,84,108,510.5,0.15625,TripletSixteenth,C6
3272,Right,0,86,107,510.666667,0.15625,TripletSixteenth,D6
3273,Right,0,88,106,510.833333,0.15625,TripletSixteenth,E6
3275,Right,0,89,105,511.0,0.489583,Eighth,F6
3274,Left,1,53,105,511.0,0.15625,TripletSixteenth,F3
3276,Left,1,57,104,511.166667,0.15625,TripletSixteenth,A3
3277,Left,1,60,103,511.333333,0.15625,TripletSixteenth,C4
3278,Left,1,53,102,511.5,0.15625,TripletSixteenth,F3
3279,Left,1,57,101,511.666667,0.15625,TripletSixteenth,A3
3280,Left,1,60,101,511.833333,0.15625,TripletSixteenth,C4
3283,Left,1,53,80,512.0,0.15625,TripletSixteenth,F3
3281,Right,0,84,80,512.0,0.489583,Eighth,C6_C5
3284,Left,1,57,80,512.166667,0.15625,TripletSixteenth,A3
3285,Left,1,60,80,512.333333,0.15625,TripletSixteenth,C4
3287,Left,1,53,80,512.5,0.15625,TripletSixteenth,F3
3286,Right,0,72,80,512.5,0.489583,Eighth,C6_C5
3289,Left,1,57,80,512.666667,0.15625,TripletSixteenth,A3
3290,Left,1,60,80,512.833333,0.15625,TripletSixteenth,C4
3293,Left,1,53,80,513.0,0.15625,TripletSixteenth,F3
3291,Right,0,69,80,513.0,0.489583,Eighth,A5_A4
3294,Left,1,57,80,513.166667,0.15625,TripletSixteenth,A3
3295,Left,1,60,80,513.333333,0.15625,TripletSixteenth,C4
3296,Left,1,53,80,513.5,0.15625,TripletSixteenth,F3
3297,Left,1,57,80,513.666667,0.15625,TripletSixteenth,A3
3298,Left,1,60,80,513.833333,0.15625,TripletSixteenth,C4
3299,Right,0,77,80,514.0,0.489583,Eighth,F6_F5
3300,Left,1,57,80,514.0,0.15625,TripletSixteenth,A3
3302,Left,1,60,80,514.166667,0.15625,TripletSixteenth,C4
3303,Left,1,65,80,514.333333,0.15625,TripletSixteenth,F4
3304,Right,0,77,80,514.5,0.489583,Eighth,F6_F5
3305,Left,1,57,80,514.5,0.15625,TripletSixteenth,A3
3307,Left,1,60,80,514.666667,0.15625,TripletSixteenth,C4
3308,Left,1,65,80,514.833333,0.15625,TripletSixteenth,F4
3309,Right,0,86,80,515.0,0.489583,Eighth,D6_D5
3310,Left,1,62,80,515.0,0.15625,TripletSixteenth,D4_A#3
3313,Left,1,65,80,515.166667,0.15625,TripletSixteenth,F4
3314,Left,1,67,80,515.333333,0.15625,TripletSixteenth,G4
3315,Left,1,58,80,515.5,0.15625,TripletSixteenth,D4_A#3
3317,Left,1,65,80,515.666667,0.15625,TripletSixteenth,F4
3318,Left,1,67,80,515.833333,0.15625,TripletSixteenth,G4
3320,Left,1,62,100,516.0,0.15625,TripletSixteenth,D4_B3
3319,Right,0,47,100,516.0,0.489583,Eighth,B2
3322,Left,1,65,100,516.166667,0.15625,TripletSixteenth,F4
3323,Left,1,67,100,516.333333,0.15625,TripletSixteenth,G4
3326,Right,0,47,100,516.5,0.489583,Eighth,B2
3324,Left,1,59,100,516.5,0.15625,TripletSixteenth,D4_B3
3327,Left,1,65,100,516.666667,0.15625,TripletSixteenth,F4
3328,Left,1,67,100,516.833333,0.15625,TripletSixteenth,G4
3330,Right,0,47,100,517.0,0.239583,Sixteenth,B2
3329,Left,1,60,100,517.0,0.15625,TripletSixteenth,C4
3331,Right,0,48,100,517.125,0.239583,Sixteenth,C3
3332,Left,1,65,100,517.166667,0.15625,TripletSixteenth,F4
3333,Right,0,50,100,517.25,0.239583,Sixteenth,D3
3334,Left,1,69,100,517.333333,0.15625,TripletSixteenth,A4
3335,Right,0,48,100,517.375,0.239583,Sixteenth,C3
3337,Left,1,60,100,517.5,0.15625,TripletSixteenth,C4
3336,Right,0,50,100,517.5,0.239583,Sixteenth,D3
3338,Right,0,48,100,517.625,0.239583,Sixteenth,C3
3339,Left,1,65,100,517.666667,0.15625,TripletSixteenth,F4
3340,Right,0,50,100,517.75,0.239583,Sixteenth,D3
3341,Left,1,69,100,517.833333,0.15625,TripletSixteenth,A4
3342,Right,0,48,100,517.875,0.239583,Sixteenth,C3
3344,Right,0,50,100,518.0,0.239583,Sixteenth,D3
3343,Left,1,60,100,518.0,0.15625,TripletSixteenth,C4
3345,Right,0,48,100,518.125,0.239583,Sixteenth,C3
3346,Left,1,64,100,518.166667,0.15625,TripletSixteenth,E4
3347,Right,0,50,100,518.25,0.239583,Sixteenth,D3
3348,Left,1,67,100,518.333333,0.15625,TripletSixteenth,G4
3349,Right,0,48,100,518.375,0.239583,Sixteenth,C3
3351,Right,0,50,100,518.5,0.239583,Sixteenth,D3
3350,Left,1,60,100,518.5,0.15625,TripletSixteenth,C4
3352,Right,0,48,100,518.625,0.239583,Sixteenth,C3
3353,Left,1,64,100,518.666667,0.15625,TripletSixteenth,E4
3354,Right,0,47,100,518.75,0.239583,Sixteenth,B2
3355,Left,1,67,100,518.833333,0.15625,TripletSixteenth,G4
3356,Right,0,48,100,518.875,0.114583,ThirtySecond,C3
3358,Right,0,41,100,519.0,0.989583,Quarter,F2
3357,Left,1,53,100,519.0,0.114583,ThirtySecond,F3
3359,Left,1,57,100,519.125,0.114583,ThirtySecond,A3
3360,Left,1,60,100,519.25,0.114583,ThirtySecond,C4
3361,Left,1,65,100,519.375,0.114583,ThirtySecond,F4
3362,Left,1,53,100,519.5,0.114583,ThirtySecond,F3
3363,Left,1,57,100,519.625,0.114583,ThirtySecond,A3
3364,Left,1,60,100,519.75,0.114583,ThirtySecond,C4
3365,Left,1,65,80,519.875,0.114583,ThirtySecond,F4
3367,Left,1,53,80,520.0,0.114583,ThirtySecond,F3
3366,Right,0,72,80,520.0,0.114583,ThirtySecond,C5
3369,Left,1,57,80,520.125,0.114583,ThirtySecond,A3
3368,Right,0,84,80,520.125,0.364583,DottedSixteenth,C6
3370,Left,1,60,80,520.25,0.114583,ThirtySecond,C4
3371,Left,1,65,80,520.375,0.114583,ThirtySecond,F4
3373,Left,1,53,80,520.5,0.114583,ThirtySecond,F3
3372,Right,0,72,80,520.5,0.114583,ThirtySecond,C5
3375,Left,1,57,80,520.625,0.114583,ThirtySecond,A3
3374,Right,0,84,80,520.625,0.364583,DottedSixteenth,C6
3376,Left,1,60,80,520.75,0.114583,ThirtySecond,C4
3377,Left,1,65,80,520.875,0.114583,ThirtySecond,F4
3378,Right,0,69,80,521.0,0.114583,ThirtySecond,A4
3379,Left,1,53,80,521.0,0.114583,ThirtySecond,F3
3381,Right,0,81,80,521.125,0.364583,DottedSixteenth,A5
3380,Left,1,57,80,521.125,0.114583,ThirtySecond,A3
3382,Left,1,60,80,521.25,0.114583,ThirtySecond,C4
3383,Left,1,65,80,521.375,0.114583,ThirtySecond,F4
3384,Left,1,53,80,521.5,0.114583,ThirtySecond,F3
3385,Left,1,57,80,521.625,0.114583,ThirtySecond,A3
3386,Left,1,60,80,521.75,0.114583,ThirtySecond,C4
3387,Left,1,65,80,521.875,0.114583,ThirtySecond,F4
3389,Right,0,77,80,522.0,0.114583,ThirtySecond,F5
3388,Left,1,57,80,522.0,0.15625,TripletSixteenth,A3
3390,Right,0,89,80,522.125,0.364583,DottedSixteenth,F6
3391,Left,1,60,80,522.166667,0.15625,TripletSixteenth,C4
3392,Left,1,65,80,522.333333,0.15625,TripletSixteenth,F4
3394,Right,0,77,80,522.5,0.114583,ThirtySecond,F5
3393,Left,1,57,80,522.5,0.15625,TripletSixteenth,A3
3395,Right,0,89,80,522.625,0.364583,DottedSixteenth,F6
3396,Left,1,60,80,522.666667,0.15625,TripletSixteenth,C4
3397,Left,1,65,80,522.833333,0.15625,TripletSixteenth,F4
3399,Left,1,58,80,523.0,0.229167,Sixteenth,A#3
3398,Right,0,74,80,523.0,0.114583,ThirtySecond,D5
3401,Left,1,62,80,523.125,0.239583,Sixteenth,D4
3400,Right,0,86,80,523.125,0.364583,DottedSixteenth,D6
3402,Left,1,65,80,523.25,0.21875,Sixteenth,F4
3403,Left,1,67,80,523.375,0.21875,Sixteenth,G4
3404,Left,1,58,80,523.5,0.229167,Sixteenth,A#3
3405,Left,1,62,80,523.625,0.208333,Sixteenth,D4
3406,Left,1,65,80,523.75,0.239583,Sixteenth,F4
3407,Left,1,67,100,523.875,0.229167,Sixteenth,G4
3409,Left,1,59,100,524.0,0.239583,Sixteenth,B3
3408,Right,0,47,100,524.0,0.489583,Eighth,B2
3410,Left,1,62,100,524.125,0.239583,Sixteenth,D4
3411,Left,1,65,100,524.25,0.21875,Sixteenth,F4
3412,Left,1,67,100,524.375,0.208333,Sixteenth,G4
3414,Right,0,47,100,524.5,0.489583,Eighth,B2
3413,Left,1,59,100,524.5,0.208333,Sixteenth,B3
3415,Left,1,62,100,524.625,0.208333,Sixteenth,D4
3416,Left,1,65,100,524.75,0.239583,Sixteenth,F4
3417,Left,1,67,100,524.875,0.239583,Sixteenth,G4
3418,Left,1,60,100,525.0,0.229167,Sixteenth,C4
3419,Right,0,47,100,525.0,0.239583,Sixteenth,B2
3420,Right,0,48,100,525.125,0.239583,Sixteenth,C3
3421,Left,1,65,100,525.166667,0.239583,Sixteenth,F4
3422,Right,0,50,100,525.25,0.239583,Sixteenth,D3
3423,Left,1,69,100,525.333333,0.260417,Sixteenth,A4
3424,Right,0,48,100,525.375,0.239583,Sixteenth,C3
3425,Right,0,50,100,525.5,0.239583,Sixteenth,D3
3426,Left,1,60,100,525.5,0.25,Sixteenth,C4
3427,Right,0,48,100,525.625,0.239583,Sixteenth,C3
3428,Left,1,65,100,525.666667,0.229167,Sixteenth,F4
3429,Right,0,50,100,525.75,0.239583,Sixteenth,D3
3430,Left,1,69,100,525.833333,0.239583,Sixteenth,A4
3431,Right,0,48,100,525.875,0.239583,Sixteenth,C3
3433,Right,0,50,100,526.0,0.239583,Sixteenth,D3
3432,Left,1,60,100,526.0,0.239583,Sixteenth,C4
3434,Right,0,48,100,526.125,0.239583,Sixteenth,C3
3435,Left,1,64,100,526.166667,0.197917,TripletSixteenth,E4
3436,Right,0,50,100,526.25,0.239583,Sixteenth,D3
3437,Left,1,67,100,526.333333,0.239583,Sixteenth,G4
3438,Right,0,48,100,526.375,0.239583,Sixteenth,C3
3440,Right,0,50,100,526.5,0.239583,Sixteenth,D3
3439,Left,1,60,100,526.5,0.21875,Sixteenth,C4
3441,Right,0,48,100,526.625,0.239583,Sixteenth,C3
3442,Left,1,64,100,526.666667,0.229167,Sixteenth,E4
3443,Right,0,47,100,526.75,0.239583,Sixteenth,B2
3444,Left,1,67,100,526.833333,0.229167,Sixteenth,G4
3445,Right,0,48,100,526.875,0.114583,ThirtySecond,C3
3447,Right,0,41,100,527.0,0.989583,Quarter,F2
3446,Left,1,53,100,527.0,0.239583,Sixteenth,F3
3448,Left,1,57,100,527.125,0.197917,TripletSixteenth,A3
3449,Left,1,60,100,527.25,0.239583,Sixteenth,C4
3450,Left,1,65,100,527.375,0.239583,Sixteenth,F4
3451,Left,1,53,100,527.5,0.208333,Sixteenth,F3
3452,Left,1,57,100,527.625,0.208333,Sixteenth,A3
3453,Left,1,60,100,527.75,0.21875,Sixteenth,C4
3454,Left,1,65,120,527.875,0.229167,Sixteenth,F4
3456,Right,0,83,120,528.0,0.489583,Eighth,B5
3455,Left,1,53,120,528.0,0.239583,Sixteenth,F3
3457,Left,1,56,120,528.166667,0.229167,Sixteenth,G#3
3458,Left,1,60,120,528.333333,0.21875,Sixteenth,C4
3459,Right,0,83,120,528.5,0.489583,Eighth,B5
3460,Left,1,53,120,528.5,0.21875,Sixteenth,F3
3461,Left,1,56,120,528.666667,0.21875,Sixteenth,G#3
3462,Left,1,60,120,528.833333,0.239583,Sixteenth,C4
3463,Left,1,48,120,529.0,0.208333,Sixteenth,C3
3464,Right,0,83,120,529.0,0.239583,Sixteenth,B5
3466,Left,1,53,120,529.125,0.21875,Sixteenth,F3
3465,Right,0,84,120,529.125,0.239583,Sixteenth,C6
3467,Left,1,55,120,529.25,0.229167,Sixteenth,G3
3468,Right,0,86,120,529.25,0.239583,Sixteenth,D6
3469,Left,1,60,121,529.375,0.21875,Sixteenth,C4
3470,Right,0,84,121,529.375,0.239583,Sixteenth,C6
3471,Left,1,48,121,529.458333,0.21875,Sixteenth,C3
3472,Right,0,86,121,529.5,0.239583,Sixteenth,D6
3473,Left,1,53,121,529.583333,0.208333,Sixteenth,F3
3474,Right,0,84,121,529.625,0.239583,Sixteenth,C6
3475,Left,1,55,121,529.708333,0.21875,Sixteenth,G3
3476,Right,0,86,121,529.75,0.239583,Sixteenth,D6
3477,Left,1,60,121,529.833333,0.21875,Sixteenth,C4
3478,Right,0,84,121,529.875,0.239583,Sixteenth,C6
3480,Right,0,86,121,530.0,0.239583,Sixteenth,D6
3479,Left,1,48,121,530.0,0.229167,Sixteenth,C3
3481,Right,0,84,121,530.125,0.239583,Sixteenth,C6
3482,Left,1,52,121,530.125,0.229167,Sixteenth,E3
3484,Left,1,55,121,530.25,0.21875,Sixteenth,G3
3483,Right,0,86,121,530.25,0.239583,Sixteenth,D6
3486,Left,1,60,121,530.375,0.197917,TripletSixteenth,C4
3485,Right,0,84,121,530.375,0.239583,Sixteenth,C6
3487,Left,1,48,121,530.458333,0.239583,Sixteenth,C3
3488,Right,0,86,121,530.5,0.239583,Sixteenth,D6
3489,Left,1,52,121,530.583333,0.21875,Sixteenth,E3
3490,Right,0,84,121,530.625,0.239583,Sixteenth,C6
3491,Left,1,55,121,530.708333,0.21875,Sixteenth,G3
3492,Right,0,83,122,530.75,0.239583,Sixteenth,B5
3493,Left,1,60,122,530.833333,0.21875,Sixteenth,C4
3494,Right,0,84,122,530.875,0.114583,ThirtySecond,C6
3495,Right,0,77,122,531.0,0.989583,Quarter,F6_F5
3497,Left,1,41,122,531.0,0.239583,Sixteenth,F2
3498,Left,1,45,122,531.125,0.197917,TripletSixteenth,A2
3499,Left,1,48,122,531.25,0.229167,Sixteenth,C3
3500,Left,1,53,122,531.375,0.21875,Sixteenth,F3
3501,Left,1,41,122,531.5,0.239583,Sixteenth,F2
3502,Left,1,45,122,531.625,0.1875,TripletSixteenth,A2
3503,Left,1,48,122,531.75,0.208333,Sixteenth,C3
3504,Left,1,53,122,531.875,0.21875,Sixteenth,F3
3505,Left,1,41,122,532.0,0.239583,Sixteenth,F2
3506,Right,0,71,122,532.0,0.489583,Eighth,B4
3507,Left,1,44,123,532.166667,0.229167,Sixteenth,G#2
3508,Left,1,48,123,532.333333,0.239583,Sixteenth,C3
3509,Left,1,41,123,532.5,0.239583,Sixteenth,F2
3510,Right,0,71,123,532.5,0.489583,Eighth,B4
3511,Left,1,44,123,532.666667,0.208333,Sixteenth,G#2
3512,Left,1,48,123,532.833333,0.21875,Sixteenth,C3
3514,Right,0,71,123,533.0,0.239583,Sixteenth,B4
3513,Left,1,36,123,533.0,0.1875,TripletSixteenth,C2
3515,Right,0,72,123,533.125,0.239583,Sixteenth,C5
3516,Left,1,41,123,533.125,0.21875,Sixteenth,F2
3518,Left,1,43,123,533.25,0.197917,TripletSixteenth,G2
3517,Right,0,74,123,533.25,0.239583,Sixteenth,D5
3520,Left,1,48,123,533.375,0.21875,Sixteenth,C3
3519,Right,0,72,123,533.375,0.239583,Sixteenth,C5
3521,Left,1,36,123,533.458333,0.208333,Sixteenth,C2
3522,Right,0,74,123,533.5,0.239583,Sixteenth,D5
3523,Left,1,41,124,533.583333,0.208333,Sixteenth,F2
3524,Right,0,72,124,533.625,0.239583,Sixteenth,C5
3525,Left,1,43,124,533.708333,0.21875,Sixteenth,G2
3526,Right,0,74,124,533.75,0.239583,Sixteenth,D5
3527,Left,1,48,124,533.833333,0.208333,Sixteenth,C3
3528,Right,0,72,124,533.875,0.239583,Sixteenth,C5
3530,Right,0,74,124,534.0,0.239583,Sixteenth,D5
3529,Left,1,36,124,534.0,0.208333,Sixteenth,C2
3531,Right,0,72,124,534.125,0.239583,Sixteenth,C5
3532,Left,1,40,124,534.125,0.208333,Sixteenth,E2
3533,Right,0,74,124,534.25,0.239583,Sixteenth,D5
3534,Left,1,43,124,534.25,0.21875,Sixteenth,G2
3535,Left,1,48,124,534.375,0.229167,Sixteenth,C3
3536,Right,0,72,124,534.375,0.239583,Sixteenth,C5
3537,Left,1,36,124,534.458333,0.229167,Sixteenth,C2
3538,Right,0,74,124,534.5,0.239583,Sixteenth,D5
3539,Left,1,40,124,534.583333,0.21875,Sixteenth,E2
3540,Right,0,72,124,534.625,0.239583,Sixteenth,C5
3541,Left,1,43,124,534.708333,0.21875,Sixteenth,G2
3542,Right,0,71,124,534.75,0.239583,Sixteenth,B4
3543,Left,1,48,124,534.833333,0.21875,Sixteenth,C3
3544,Right,0,72,124,534.875,0.114583,ThirtySecond,C5
3545,Right,0,65,120,535.0,0.489583,Eighth,F5_F4
3547,Left,1,41,120,535.0,0.489583,Eighth,F2
3550,Left,1,48,120,536.0,0.489583,Eighth,C3_C2
3548,Right,0,72,120,536.0,0.489583,Eighth,C5_C4
3552,Left,1,29,120,537.0,0.989583,Quarter,F2_F1
3553,Right,0,65,120,537.0,0.989583,Quarter,F4_F3
3556,Right,0,65,1,539.5,0.489583,Eighth,F4
