,hand,channel,note,velocity,start_beat,duration,note_value,chord
1,Left,1,36,80,0.0,0.989583,Quarter,C2
0,Right,0,48,80,0.0,0.989583,Quarter,C3
2,Left,1,41,80,1.0,0.989583,Quarter,F2
3,Right,0,53,80,1.0,0.989583,Quarter,F3
4,Left,1,44,80,2.0,0.989583,Quarter,G#2
5,Right,0,56,80,2.0,0.989583,Quarter,G#3
7,Right,0,52,80,3.0,0.989583,Quarter,E3
6,Left,1,40,80,3.0,0.989583,Quarter,E2
9,Left,1,41,80,4.0,0.989583,Quarter,F2
8,Right,0,53,80,4.0,0.989583,Quarter,F3
11,Left,1,44,80,5.0,0.989583,Quarter,G#2
10,Right,0,56,80,5.0,0.989583,Quarter,G#3
12,Left,1,48,80,6.0,0.989583,Quarter,C3
13,Right,0,60,80,6.0,0.989583,Quarter,C4
14,Left,1,49,80,7.0,0.989583,Quarter,C#3
15,Right,0,61,80,7.0,0.989583,Quarter,C#4
17,Right,0,58,80,8.0,0.989583,Quarter,A#3
16,Left,1,46,80,8.0,0.989583,Quarter,A#2
19,Right,0,64,80,9.0,0.989583,Quarter,E4
18,Left,1,52,80,9.0,0.989583,Quarter,E3
20,Right,0,65,80,10.0,0.989583,Quarter,F4
21,Left,1,53,80,10.0,0.989583,Quarter,F3
22,Right,0,60,80,11.0,0.989583,Quarter,C4
23,Left,1,48,80,11.0,0.989583,Quarter,C3
25,Right,0,67,80,12.0,0.989583,Quarter,G4
24,Left,1,55,80,12.0,0.989583,Quarter,G3
27,Right,0,68,80,13.0,1.989583,Half,G#4
26,Left,1,56,80,13.0,0.989583,Quarter,G#3
29,Right,0,65,80,14.0,0.989583,Quarter,F4
28,Left,1,53,80,14.0,0.989583,Quarter,F3
31,Right,0,70,80,15.0,1.989583,Quarter,D#4_A#4
30,Left,1,58,80,15.0,0.989583,Quarter,G3_A#3
34,Right,0,72,80,16.0,1.989583,Half,G#4_C5
36,Left,1,56,80,16.0,1.989583,Half,G#3_C4
39,Right,0,65,80,17.0,1.989583,Half,F4
38,Left,1,53,80,17.0,0.989583,Quarter,F3
40,Right,0,75,80,18.0,0.989583,Eighth,D#5_A#4
42,Left,1,49,80,18.0,0.989583,Quarter,C#3
43,Right,0,73,80,18.5,0.489583,Eighth,C#5
47,Left,1,51,80,19.0,0.989583,Quarter,D#3
44,Right,0,63,80,19.0,1.989583,Half,G#4_D#4_C5
48,Left,1,39,80,20.0,0.989583,Quarter,D#2
50,Right,0,70,80,21.0,0.989583,Quarter,G4_C#4_A#4
49,Left,1,39,80,21.0,0.989583,Quarter,D#2
53,Right,0,68,80,22.0,0.989583,Quarter,G#4_C4
54,Left,1,44,80,22.0,0.989583,Quarter,G#2
56,Left,1,32,80,23.0,0.989583,Quarter,G#1
58,Right,0,48,80,24.0,0.989583,Quarter,C3
57,Left,1,36,80,24.0,0.989583,Quarter,C2
59,Left,1,41,80,25.0,0.989583,Quarter,F2
60,Right,0,53,80,25.0,0.989583,Quarter,F3
62,Right,0,56,80,26.0,0.989583,Quarter,G#3
61,Left,1,44,80,26.0,0.989583,Quarter,G#2
63,Right,0,52,80,27.0,0.989583,Quarter,E3
64,Left,1,40,80,27.0,0.989583,Quarter,E2
66,Left,1,41,80,28.0,0.989583,Quarter,F2
65,Right,0,53,80,28.0,0.989583,Quarter,F3
68,Left,1,44,80,29.0,0.989583,Quarter,G#2
67,Right,0,56,80,29.0,0.989583,Quarter,G#3
70,Right,0,60,80,30.0,0.989583,Quarter,C4
69,Left,1,48,80,30.0,0.989583,Quarter,C3
72,Right,0,61,80,31.0,0.989583,Quarter,C#4
71,Left,1,49,80,31.0,0.989583,Quarter,C#3
74,Right,0,58,80,32.0,0.989583,Quarter,A#3
73,Left,1,46,80,32.0,0.989583,Quarter,A#2
75,Right,0,64,80,33.0,0.989583,Quarter,E4
76,Left,1,52,80,33.0,0.989583,Quarter,E3
78,Left,1,53,80,34.0,0.989583,Quarter,F3
77,Right,0,65,80,34.0,0.989583,Quarter,F4
79,Left,1,48,80,35.0,0.989583,Quarter,C3
80,Right,0,60,80,35.0,0.989583,Quarter,C4
82,Left,1,55,80,36.0,0.989583,Quarter,G3
81,Right,0,67,80,36.0,0.989583,Quarter,G4
83,Left,1,56,80,37.0,0.989583,Quarter,G#3
84,Right,0,68,80,37.0,1.989583,Half,G#4
86,Right,0,65,80,38.0,0.989583,Quarter,F4
85,Left,1,53,80,38.0,0.989583,Quarter,F3
89,Right,0,63,80,39.0,1.989583,Half,D#4_A#4
87,Left,1,55,80,39.0,0.989583,Quarter,G3_A#3
91,Right,0,72,80,40.0,1.989583,Half,G#4_C5
93,Left,1,56,80,40.0,1.989583,Half,G#3_C4
95,Right,0,65,80,41.0,1.989583,Half,F4
96,Left,1,53,80,41.0,0.989583,Quarter,F3
97,Right,0,70,80,42.0,0.989583,Quarter,D#5_A#4
99,Left,1,49,80,42.0,0.989583,Quarter,C#3
100,Right,0,73,80,42.5,0.489583,Eighth,C#5
102,Right,0,63,80,43.0,1.989583,Half,G#4_D#4_C5
101,Left,1,51,80,43.0,0.989583,Quarter,D#3
105,Left,1,39,80,44.0,0.989583,Quarter,D#2
107,Right,0,61,80,45.0,0.989583,Quarter,G4_C#4_A#4
106,Left,1,39,80,45.0,0.989583,Quarter,D#2
111,Right,0,68,80,46.0,0.989583,Quarter,G#4_C4
110,Left,1,44,80,46.0,0.989583,Quarter,G#2
113,Left,1,32,80,47.0,0.989583,Quarter,G#1
114,Right,0,72,80,48.0,0.989583,Quarter,C5
115,Right,0,72,80,49.0,0.989583,Quarter,C5
116,Right,0,73,80,50.0,0.489583,Eighth,C#5
117,Right,0,72,80,50.5,0.489583,Eighth,C5
120,Right,0,73,90,51.0,0.989583,Quarter,F4_C#5
118,Left,1,60,90,51.0,0.989583,Quarter,G#3_C4
122,Left,1,61,90,52.0,1.989583,Half,C#4_A#3
123,Right,0,73,90,52.0,0.989583,Quarter,F4_C#5
126,Right,0,67,80,53.0,0.489583,Eighth,G4
127,Right,0,65,80,53.5,0.489583,Eighth,F4
128,Right,0,73,90,54.0,0.989583,Quarter,G4_C#5
130,Left,1,61,90,54.0,0.989583,Quarter,C#4_A#3
133,Right,0,73,90,55.0,0.989583,Quarter,G4_C#5
132,Left,1,61,90,55.0,1.989583,Half,C#4_A#3
136,Right,0,75,80,56.0,0.489583,Eighth,D#5
137,Right,0,73,80,56.5,0.489583,Eighth,C#5
140,Left,1,61,90,57.0,0.989583,Quarter,C#4_A#3
138,Right,0,75,90,57.0,0.989583,Quarter,G4_D#5
142,Left,1,60,90,58.0,1.989583,Half,D#4_C4
143,Right,0,75,90,58.0,0.989583,Quarter,G4_D#5
146,Right,0,69,80,59.0,0.489583,Eighth,A4
147,Right,0,67,80,59.5,0.489583,Eighth,G4
149,Right,0,69,90,60.0,0.989583,Quarter,D#5_A4
148,Left,1,60,90,60.0,0.989583,Quarter,D#4_C4
154,Right,0,69,90,61.0,0.989583,Quarter,D#5_A4
152,Left,1,60,90,61.0,1.989583,Half,D#4_C4
156,Right,0,77,80,62.0,0.489583,Eighth,F5
157,Right,0,75,80,62.5,0.489583,Eighth,D#5
160,Left,1,60,90,63.0,0.989583,Quarter,D#4_C4
158,Right,0,77,90,63.0,0.989583,Quarter,F5_A4
164,Left,1,61,90,64.0,1.989583,Half,F4_C#4
162,Right,0,77,90,64.0,1.989583,Half,F5_A4
166,Right,0,70,80,65.0,0.489583,Eighth,A#4
167,Right,0,69,80,65.5,0.489583,Eighth,A4
168,Left,1,61,90,66.0,0.989583,Quarter,F4_C#4
169,Right,0,77,90,66.0,0.989583,Quarter,F5_A#4
174,Right,0,77,90,67.0,1.989583,Eighth,F5_B4
172,Left,1,61,90,67.0,1.989583,Half,F4_C#4
176,Right,0,79,90,67.25,0.489583,Eighth,G5
177,Right,0,77,90,67.5,0.489583,Eighth,F5
178,Right,0,79,90,67.75,0.489583,Eighth,G5
179,Right,0,77,90,68.0,0.489583,Eighth,F5
180,Right,0,79,90,68.25,0.489583,Eighth,G5
181,Right,0,76,90,68.5,0.489583,Eighth,E5
182,Right,0,77,90,68.75,0.239583,Sixteenth,F5
184,Right,0,71,90,69.0,0.989583,Quarter,G5_B4
183,Left,1,65,90,69.0,0.989583,Quarter,F4_C#4
188,Right,0,67,90,70.0,4.989583,Unknown,G4_C5
187,Left,1,60,90,70.0,4.989583,Unknown,E4_C4
191,Right,0,72,80,75.0,0.989583,Quarter,C5
192,Right,0,77,80,76.0,0.989583,Quarter,F5
193,Right,0,80,80,77.0,0.989583,Quarter,G#5
194,Right,0,76,80,78.0,0.989583,Quarter,E5
195,Right,0,77,80,79.0,0.989583,Quarter,F5
196,Right,0,80,80,80.0,0.989583,Quarter,G#5
197,Right,0,84,80,81.0,0.989583,Quarter,C6
198,Right,0,85,80,82.0,0.989583,Quarter,C#6
199,Right,0,82,80,83.0,0.989583,Quarter,A#5
200,Right,0,88,80,84.0,0.989583,Quarter,E6
201,Right,0,89,80,85.0,0.989583,Quarter,F6
202,Right,0,84,80,86.0,0.989583,Quarter,C6
203,Right,0,80,70,87.0,0.989583,Quarter,G#5
204,Left,1,72,70,87.0,0.989583,Quarter,C5
206,Left,1,73,70,88.0,0.989583,Quarter,C#5
205,Right,0,82,70,88.0,0.989583,Quarter,A#5
208,Left,1,70,70,89.0,0.989583,Quarter,A#4
207,Right,0,85,70,89.0,0.989583,Quarter,C#6
210,Left,1,76,70,90.0,0.989583,Quarter,E5
209,Right,0,79,70,90.0,0.989583,Quarter,G5
211,Right,0,80,70,91.0,1.989583,Half,G#5
212,Left,1,77,70,91.0,0.989583,Quarter,F5
213,Left,1,72,70,92.0,0.989583,Quarter,C5
214,Left,1,60,80,93.0,0.989583,Quarter,C4
215,Right,0,80,80,93.0,0.989583,Quarter,G#5_G#4
217,Left,1,61,80,94.0,0.989583,Quarter,C#4
218,Right,0,80,80,94.0,2.989583,DottedHalf,G#5_E5_C#5_A#4
222,Left,1,58,80,95.0,0.989583,Quarter,A#3
223,Right,0,79,80,96.0,0.989583,Quarter,G5
224,Left,1,64,80,96.0,0.989583,Quarter,E4
225,Right,0,80,80,97.0,2.989583,DottedHalf,G#5_E5_C#5_A#4
229,Left,1,61,80,97.0,0.989583,Quarter,C#4
230,Left,1,58,80,98.0,0.989583,Quarter,A#3
231,Right,0,79,80,99.0,0.989583,Quarter,G5
232,Left,1,64,80,99.0,0.989583,Quarter,E4
233,Right,0,77,80,100.0,0.989583,Quarter,G#4_F5
235,Left,1,60,80,100.0,1.989583,Half,C4
236,Right,0,70,80,101.0,0.989583,Quarter,G5_A#4
240,Left,1,60,80,102.0,0.989583,Quarter,C4
238,Right,0,67,80,102.0,0.989583,Quarter,G4_E5
241,Right,0,68,80,103.0,0.989583,Quarter,G#4_F5
242,Left,1,53,80,103.0,0.989583,Quarter,F3
244,Right,0,72,80,104.0,0.989583,Quarter,C5
245,Right,0,68,80,105.0,0.989583,Quarter,G#4
246,Left,1,48,80,105.0,0.989583,Quarter,C3
247,Right,0,64,80,106.0,2.989583,DottedHalf,G#4_E4_C#4_A#3
248,Left,1,49,80,106.0,0.989583,Quarter,C#3
252,Left,1,46,80,107.0,0.989583,Quarter,A#2
253,Left,1,52,80,108.0,0.989583,Quarter,E3
254,Right,0,67,80,108.0,0.989583,Quarter,G4
258,Left,1,49,80,109.0,0.989583,Quarter,C#3
255,Right,0,58,80,109.0,2.989583,DottedHalf,G#4_E4_C#4_A#3
260,Left,1,46,80,110.0,0.989583,Quarter,A#2
261,Left,1,52,80,111.0,0.989583,Quarter,E3
262,Right,0,67,80,111.0,0.989583,Quarter,G4
263,Left,1,48,80,112.0,1.989583,Half,C3
264,Right,0,65,80,112.0,0.989583,Quarter,G#3_F4
266,Right,0,67,80,113.0,0.989583,Quarter,G4_A#3
269,Left,1,48,80,114.0,0.989583,Quarter,C3
268,Right,0,64,80,114.0,0.989583,Quarter,G3_E4
272,Left,1,53,80,115.0,0.989583,Quarter,F3_F2
271,Right,0,56,80,115.0,0.989583,Quarter,G#3_F4
275,Right,0,60,80,117.0,0.989583,Quarter,C4
276,Right,0,60,80,118.0,2.989583,DottedHalf,E4_C4
278,Left,1,58,80,118.0,5.989583,Half,C3_A#3
281,Left,1,56,80,120.0,0.989583,Quarter,G#3
280,Right,0,65,80,120.0,0.989583,Quarter,F4
284,Left,1,55,80,121.0,1.989583,Half,G3_A#3
282,Right,0,67,80,121.0,2.989583,Half,G4_E4_C4
287,Left,1,53,80,123.0,0.989583,Quarter,G#3_F3
289,Right,0,68,80,123.0,0.989583,Quarter,G#4_F4
293,Left,1,48,80,124.0,2.989583,DottedHalf,G3_E3_C4_C3
291,Right,0,67,80,124.0,1.489583,DottedQuarter,G4_E4_C5
298,Right,0,70,80,125.5,0.489583,Eighth,A#4
299,Right,0,68,80,126.0,0.489583,Eighth,G#4
300,Right,0,67,80,126.5,0.489583,Eighth,G4
304,Right,0,70,80,127.0,0.489583,Eighth,A#4
301,Left,1,60,80,127.0,0.989583,Quarter,G#3_F3_C4
305,Right,0,68,80,127.5,0.489583,Eighth,G#4
306,Right,0,67,80,128.0,0.489583,Eighth,G4
307,Right,0,65,80,128.5,0.489583,Eighth,F4
308,Right,0,72,80,129.0,0.489583,Eighth,C5
309,Right,0,73,80,129.25,0.489583,Eighth,C#5
310,Right,0,71,80,129.5,0.489583,Eighth,B4
311,Right,0,72,80,129.75,0.239583,Sixteenth,C5
312,Right,0,79,80,130.0,3.989583,Half,G5_E5_C5
314,Left,1,60,80,130.0,3.989583,Half,G4_C4_A#4
320,Right,0,80,80,132.0,0.989583,Quarter,G#5_F5
318,Left,1,68,80,132.0,0.989583,Quarter,G#4_F4
322,Right,0,79,80,133.0,0.989583,Quarter,G5_A#5
324,Left,1,64,80,133.0,0.989583,Quarter,G4_E4
326,Right,0,88,80,135.0,0.989583,Quarter,G5_E6_E5
329,Left,1,60,80,135.0,0.989583,Quarter,C4_C3
331,Right,0,80,80,136.0,0.989583,Quarter,G#5_F6_F5
333,Left,1,53,80,136.0,0.989583,Quarter,F3_F2
336,Right,0,72,80,141.0,0.989583,Quarter,C5
337,Right,0,72,80,142.0,0.989583,Quarter,C5
338,Right,0,73,80,143.0,0.489583,Eighth,C#5
339,Right,0,72,80,143.5,0.489583,Eighth,C5
340,Left,1,56,80,144.0,0.989583,Quarter,G#3_C4
342,Right,0,65,80,144.0,0.989583,Quarter,F4_C#5
346,Left,1,61,80,145.0,1.989583,Half,C#4_A#3
344,Right,0,73,80,145.0,0.989583,Quarter,F4_C#5
348,Right,0,67,80,146.0,0.489583,Eighth,G4
349,Right,0,65,80,146.5,0.489583,Eighth,F4
350,Right,0,73,80,147.0,0.989583,Quarter,G4_C#5
352,Left,1,61,80,147.0,0.989583,Quarter,C#4_A#3
354,Left,1,61,80,148.0,1.989583,Half,C#4_A#3
356,Right,0,67,80,148.0,0.989583,Quarter,G4_C#5
358,Right,0,75,80,149.0,0.489583,Eighth,D#5
359,Right,0,73,80,149.5,0.489583,Eighth,C#5
362,Right,0,67,80,150.0,0.989583,Quarter,G4_D#5
360,Left,1,61,80,150.0,0.989583,Quarter,C#4_A#3
364,Right,0,67,80,151.0,0.989583,Quarter,G4_D#5
366,Left,1,63,80,151.0,1.989583,Half,D#4_C4
368,Right,0,69,80,152.0,0.489583,Eighth,A4
369,Right,0,67,80,152.5,0.489583,Eighth,G4
370,Left,1,60,80,153.0,0.989583,Quarter,D#4_C4
372,Right,0,69,80,153.0,0.989583,Quarter,D#5_A4
376,Left,1,63,80,154.0,1.989583,Half,D#4_C4
374,Right,0,69,80,154.0,0.989583,Quarter,D#5_A4
378,Right,0,77,80,155.0,0.489583,Eighth,F5
379,Right,0,75,80,155.5,0.489583,Eighth,D#5
382,Right,0,77,80,156.0,0.989583,Quarter,F5_A4
380,Left,1,63,80,156.0,0.989583,Quarter,D#4_C4
384,Right,0,69,80,157.0,1.989583,Quarter,F5_A4
386,Left,1,65,80,157.0,1.989583,Half,F4_C#4
388,Right,0,70,80,158.0,0.489583,Eighth,A#4
389,Right,0,69,80,158.5,0.489583,Eighth,A4
391,Left,1,61,100,159.0,0.989583,Quarter,F4_C#4
390,Right,0,77,100,159.0,0.989583,Quarter,F5_A#4
394,Left,1,61,100,160.0,1.989583,Half,F4_C#4
396,Right,0,71,100,160.0,1.989583,Half,F5_B4
398,Right,0,79,100,160.25,0.489583,Eighth,G5
399,Right,0,77,100,160.5,0.489583,Eighth,F5
400,Right,0,79,100,160.75,0.489583,Eighth,G5
401,Right,0,77,100,161.0,0.489583,Eighth,F5
402,Right,0,79,100,161.25,0.489583,Eighth,G5
403,Right,0,76,100,161.5,0.489583,Eighth,E5
404,Right,0,77,100,161.75,0.239583,Sixteenth,F5
407,Left,1,61,100,162.0,0.989583,Quarter,F4_C#4
405,Right,0,71,100,162.0,0.989583,Quarter,G5_B4
409,Left,1,60,100,163.0,4.989583,Unknown,E4_C4
410,Right,0,72,100,163.0,4.989583,Unknown,G4_C5
413,Right,0,72,80,168.0,0.989583,Quarter,C5
414,Right,0,77,80,169.0,0.989583,Quarter,F5
415,Right,0,80,80,170.0,0.989583,Quarter,G#5
416,Right,0,76,80,171.0,0.989583,Quarter,E5
417,Right,0,77,80,172.0,0.989583,Quarter,F5
418,Right,0,80,80,173.0,0.989583,Quarter,G#5
419,Right,0,84,80,174.0,0.989583,Quarter,C6
420,Right,0,85,80,175.0,0.989583,Quarter,C#6
421,Right,0,82,80,176.0,0.989583,Quarter,A#5
422,Right,0,88,80,177.0,0.989583,Quarter,E6
423,Right,0,89,80,178.0,0.989583,Quarter,F6
424,Right,0,84,80,179.0,0.989583,Quarter,C6
425,Left,1,72,80,180.0,0.989583,Quarter,C5
426,Right,0,80,80,180.0,0.989583,Quarter,G#5
428,Right,0,82,80,181.0,0.989583,Quarter,A#5
427,Left,1,73,80,181.0,0.989583,Quarter,C#5
429,Right,0,85,80,182.0,0.989583,Quarter,C#6
430,Left,1,70,80,182.0,0.989583,Quarter,A#4
431,Right,0,79,80,183.0,0.989583,Quarter,G5
432,Left,1,76,80,183.0,0.989583,Quarter,E5
433,Left,1,77,80,184.0,0.989583,Quarter,F5
434,Right,0,80,80,184.0,1.989583,Half,G#5
435,Left,1,72,80,185.0,0.989583,Quarter,C5
437,Right,0,80,80,186.0,0.989583,Quarter,G#5_G#4
436,Left,1,60,80,186.0,0.989583,Quarter,C4
442,Left,1,61,80,187.0,0.989583,Quarter,C#4
439,Right,0,80,80,187.0,2.989583,DottedHalf,G#5_E5_C#5_A#4
444,Left,1,58,80,188.0,0.989583,Quarter,A#3
445,Right,0,79,80,189.0,0.989583,Quarter,G5
446,Left,1,64,80,189.0,0.989583,Quarter,E4
447,Right,0,70,80,190.0,2.989583,DottedHalf,G#5_E5_C#5_A#4
450,Left,1,61,80,190.0,0.989583,Quarter,C#4
452,Left,1,58,80,191.0,0.989583,Quarter,A#3
453,Right,0,79,80,192.0,0.989583,Quarter,G5
454,Left,1,64,80,192.0,0.989583,Quarter,E4
457,Left,1,60,80,193.0,1.989583,Half,C4
455,Right,0,77,80,193.0,0.989583,Quarter,G#4_F5
458,Right,0,79,80,194.0,0.989583,Quarter,G5_A#4
460,Right,0,76,80,195.0,0.989583,Quarter,G4_E5
462,Left,1,60,80,195.0,0.989583,Quarter,C4
463,Right,0,68,80,196.0,0.989583,Quarter,G#4_F5
464,Left,1,53,80,196.0,0.989583,Quarter,F3
466,Right,0,72,80,197.0,0.989583,Quarter,C5
467,Right,0,68,80,198.0,0.989583,Quarter,G#4
468,Left,1,48,80,198.0,0.989583,Quarter,C3
469,Right,0,64,80,199.0,2.989583,DottedHalf,G#4_E4_C#4_A#3
473,Left,1,49,80,199.0,0.989583,Quarter,C#3
474,Left,1,46,80,200.0,0.989583,Quarter,A#2
475,Right,0,67,80,201.0,0.989583,Quarter,G4
476,Left,1,52,80,201.0,0.989583,Quarter,E3
478,Right,0,58,80,202.0,2.989583,DottedHalf,G#4_E4_C#4_A#3
477,Left,1,49,80,202.0,0.989583,Quarter,C#3
482,Left,1,46,80,203.0,0.989583,Quarter,A#2
483,Right,0,67,80,204.0,0.989583,Quarter,G4
484,Left,1,52,80,204.0,0.989583,Quarter,E3
485,Right,0,65,80,205.0,0.989583,Quarter,G#3_F4
487,Left,1,48,80,205.0,1.989583,Half,C3
488,Right,0,67,80,206.0,0.989583,Quarter,G4_A#3
490,Right,0,64,80,207.0,0.989583,Quarter,G3_E4
492,Left,1,48,80,207.0,0.989583,Quarter,C3
495,Left,1,53,80,208.0,0.989583,Quarter,F3_F2
493,Right,0,65,80,208.0,0.989583,Quarter,G#3_F4
497,Right,0,60,80,210.0,0.989583,Quarter,C4
498,Left,1,48,80,211.0,5.989583,Unknown,C3_A#3
499,Right,0,60,80,211.0,2.989583,DottedHalf,E4_C4
503,Left,1,56,80,213.0,0.989583,Quarter,G#3
502,Right,0,65,80,213.0,0.989583,Quarter,F4
505,Left,1,55,80,214.0,1.989583,Half,G3_A#3
504,Right,0,64,80,214.0,2.989583,Half,G4_E4_C4
511,Left,1,56,80,216.0,0.989583,Quarter,G#3_F3
509,Right,0,68,80,216.0,0.989583,Quarter,G#4_F4
514,Left,1,55,80,217.0,2.989583,DottedHalf,G3_E3_C4_C3
513,Right,0,64,80,217.0,1.489583,DottedQuarter,G4_E4_C5
520,Right,0,70,80,218.5,0.489583,Eighth,A#4
521,Right,0,68,80,219.0,0.489583,Eighth,G#4
522,Right,0,67,80,219.5,0.489583,Eighth,G4
523,Left,1,60,80,220.0,0.989583,Quarter,G#3_F3_C4
524,Right,0,70,80,220.0,0.489583,Eighth,A#4
527,Right,0,68,80,220.5,0.489583,Eighth,G#4
528,Right,0,67,80,221.0,0.489583,Eighth,G4
529,Right,0,65,80,221.5,0.489583,Eighth,F4
530,Right,0,72,80,222.0,0.489583,Eighth,C5
531,Right,0,73,81,222.25,0.489583,Eighth,C#5
532,Right,0,71,82,222.5,0.489583,Eighth,B4
533,Right,0,72,83,222.75,0.239583,Sixteenth,C5
534,Right,0,76,84,223.0,3.989583,Half,G5_E5_C5
535,Left,1,70,84,223.0,3.989583,Half,G4_C4_A#4
542,Right,0,80,94,225.0,0.989583,Quarter,G#5_F5
540,Left,1,65,94,225.0,0.989583,Quarter,G#4_F4
544,Left,1,64,99,226.0,0.989583,Quarter,G4_E4
546,Right,0,82,99,226.0,0.989583,Quarter,G5_A#5
549,Right,0,76,110,228.0,0.989583,Quarter,G5_E6_E5
548,Left,1,60,110,228.0,0.989583,Quarter,C4_C3
553,Left,1,53,110,229.0,0.989583,Quarter,F3_F2
554,Right,0,89,110,229.0,0.989583,Quarter,G#5_F6_F5
558,Left,1,49,80,234.0,0.989583,Quarter,C#3_C#2
560,Right,0,53,80,234.0,0.989583,Quarter,G#3_F4_F3
563,Right,0,65,80,235.0,1.989583,Half,G#3_F4_F3
565,Left,1,49,80,235.0,1.989583,Half,C#3_C#2
568,Right,0,65,80,237.0,0.989583,Quarter,G#3_F4_F3
569,Left,1,37,80,237.0,0.989583,Quarter,C#3_C#2
575,Right,0,65,80,238.0,1.989583,Half,G#3_F4_F3
573,Left,1,37,80,238.0,1.989583,Half,C#3_C#2
578,Right,0,56,80,240.0,0.989583,Quarter,G#3_F4_F3
579,Left,1,49,80,240.0,0.989583,Quarter,C#3_C#2
585,Right,0,65,80,241.0,4.989583,Unknown,F4_F#3_A#3
583,Left,1,49,80,241.0,5.989583,Unknown,C#3_C#2
588,Right,0,63,80,244.0,1.989583,Half,D#4
589,Right,0,63,80,246.0,0.239583,Sixteenth,D#4
590,Right,0,65,80,246.25,0.15625,TripletSixteenth,F4
591,Right,0,63,80,246.333333,0.15625,TripletSixteenth,D#4
592,Right,0,62,80,246.416667,0.15625,TripletSixteenth,D4
593,Right,0,63,80,246.5,0.239583,Sixteenth,D#4
594,Right,0,65,80,246.75,0.239583,Sixteenth,F4
596,Right,0,66,80,247.0,1.989583,Half,G#3_F#4_D#4
595,Left,1,48,80,247.0,1.989583,Half,C3_C2
602,Right,0,66,80,249.0,0.989583,Quarter,G#3_F#4_D#4
600,Left,1,36,80,249.0,0.989583,Quarter,C3_C2
605,Right,0,63,80,250.0,1.989583,Half,G#3_F#4_D#4
607,Left,1,36,80,250.0,1.989583,Half,C3_C2
613,Left,1,36,80,252.0,0.989583,Quarter,C3_C2
610,Right,0,56,80,252.0,0.989583,Quarter,G#3_F#4_D#4
615,Left,1,49,80,253.0,3.989583,Whole,C#3_C#2
616,Right,0,63,80,253.0,3.989583,DottedHalf,G#3_F#4_D#4
620,Right,0,61,80,256.0,0.989583,Quarter,F4_C#4
622,Right,0,65,80,258.0,0.489583,Eighth,F4
623,Right,0,67,80,258.5,0.489583,Eighth,G4
624,Left,1,56,80,259.0,1.989583,Half,G#3_C#3
626,Right,0,65,80,259.0,1.989583,Half,G#4_F4
630,Left,1,49,87,261.0,0.989583,Quarter,G#3_C#3
628,Right,0,65,87,261.0,0.989583,Quarter,G#4_F4
632,Right,0,63,91,262.0,1.989583,Half,G#4_D#4
634,Left,1,48,91,262.0,1.989583,Half,G#3_C3
636,Right,0,63,99,264.0,0.989583,Quarter,G#4_D#4
638,Left,1,48,99,264.0,0.989583,Quarter,G#3_C3
640,Right,0,73,110,265.0,4.989583,Unknown,G#4_D#4_C#5_C#4
641,Left,1,56,110,265.0,4.989583,Unknown,G#3_D#3_A#2
648,Left,1,55,110,268.0,1.989583,Half,G3
647,Right,0,67,110,268.0,1.989583,Half,G4
650,Left,1,51,80,270.0,0.989583,Quarter,G#3_D#3_C3
649,Right,0,72,80,270.0,0.989583,Quarter,G#4_D#4_C5_C4
659,Right,0,65,80,271.0,1.989583,Half,F4_C5
656,Left,1,58,80,271.0,1.989583,Half,F3_C#3_A#3
661,Right,0,70,80,272.0,0.989583,Quarter,A#4
662,Right,0,68,80,273.0,0.989583,Quarter,G#4_F4
663,Left,1,53,80,273.0,0.989583,Quarter,F3_D3_B3
669,Right,0,63,80,274.0,1.989583,Half,G#4_D#4
667,Left,1,60,80,274.0,1.989583,Half,D#3_C4
671,Right,0,61,80,276.0,0.989583,Quarter,G4_C#4
673,Left,1,51,80,276.0,0.989583,Quarter,D#3_A#3
675,Left,1,44,80,277.0,3.989583,Whole,G3_G#2
677,Right,0,70,80,277.0,2.989583,DottedHalf,C#4_A#4
679,Left,1,51,80,279.0,1.989583,Half,D#3
682,Left,1,56,80,280.0,0.989583,Quarter,G#3
680,Right,0,60,80,280.0,0.989583,Quarter,G#4_C4
683,Right,0,65,80,282.0,0.989583,Quarter,G#3_F4_F3
686,Right,0,53,80,283.0,1.989583,Half,G#3_F4_F3
689,Left,1,49,80,284.0,0.989583,Quarter,C#3_C#2
691,Right,0,53,80,285.0,0.989583,Quarter,G#3_F4_F3
694,Right,0,53,80,286.0,1.989583,Half,G#3_F4_F3
697,Left,1,49,80,287.0,0.989583,Quarter,C#3_C#2
699,Right,0,65,80,288.0,0.989583,Quarter,G#3_F4_F3
702,Right,0,54,80,289.0,3.989583,DottedHalf,F4_F#3_A#3
705,Left,1,49,80,290.0,0.989583,Quarter,C#3
706,Left,1,51,80,291.0,0.489583,Eighth,D#3
707,Left,1,53,80,291.5,0.489583,Eighth,F3
708,Right,0,63,80,292.0,0.989583,Quarter,D#4
709,Left,1,54,80,292.0,0.489583,Eighth,F#3
710,Left,1,53,80,292.5,0.489583,Eighth,F3
711,Left,1,51,80,293.0,0.489583,Eighth,D#3
712,Left,1,49,80,293.5,0.489583,Eighth,C#3
714,Right,0,63,80,294.0,0.489583,Eighth,D#4
713,Left,1,48,80,294.0,0.489583,Eighth,C3
716,Right,0,65,80,294.5,0.489583,Eighth,F4
715,Left,1,46,80,294.5,0.489583,Eighth,A#2
717,Left,1,45,80,295.0,0.989583,Quarter,A2
718,Right,0,66,80,295.0,1.989583,Half,F#4_D#4_C4_A3
722,Left,1,45,80,296.0,0.989583,Quarter,A2
723,Right,0,57,80,297.0,0.989583,Quarter,F#4_D#4_C4_A3
727,Right,0,66,80,298.0,1.989583,Half,F#4_D#4_C4_A3
731,Left,1,45,80,299.0,0.989583,Quarter,A2
732,Right,0,63,80,300.0,0.989583,Quarter,F#4_D#4_C4_A3
736,Right,0,66,80,301.0,2.989583,DottedHalf,F#4_D#4_C4_A3
740,Left,1,45,80,302.0,0.989583,Quarter,A2
741,Left,1,46,80,303.0,0.489583,Eighth,A#2
742,Left,1,48,80,303.5,0.489583,Eighth,C3
746,Left,1,49,80,304.0,0.489583,Eighth,C#3
743,Right,0,58,80,304.0,0.989583,Quarter,F4_C#4_A#3
747,Left,1,48,80,304.5,0.489583,Eighth,C3
748,Left,1,46,80,305.0,0.489583,Eighth,A#2
749,Left,1,44,80,305.5,0.489583,Eighth,G#2
751,Right,0,67,80,306.0,0.489583,Eighth,G4
750,Left,1,43,80,306.0,0.489583,Eighth,G2
753,Left,1,41,80,306.5,0.489583,Eighth,F2
752,Right,0,68,80,306.5,0.489583,Eighth,G#4
754,Right,0,70,80,307.0,1.989583,Half,G4_C#4_A#4
755,Left,1,40,80,307.0,0.989583,Quarter,E2
758,Left,1,40,80,308.0,0.989583,Quarter,E2
759,Right,0,61,80,309.0,0.989583,Quarter,G4_C#4_A#4
762,Right,0,61,80,310.0,1.989583,Half,G4_C#4_A#4
765,Left,1,40,80,311.0,0.989583,Quarter,E2
766,Right,0,67,80,312.0,0.989583,Quarter,G4_C#4_A#4
769,Right,0,60,80,313.0,3.989583,DottedHalf,G4_C4_A#4
772,Left,1,40,80,314.0,0.989583,Quarter,E2
773,Left,1,41,80,315.0,0.489583,Eighth,F2
774,Left,1,43,80,315.5,0.489583,Eighth,G2
777,Left,1,44,80,316.0,0.489583,Eighth,G#2
775,Right,0,68,80,316.0,0.989583,Quarter,G#4_F4
778,Left,1,43,80,316.5,0.489583,Eighth,G2
779,Left,1,41,80,317.0,0.489583,Eighth,F2
780,Left,1,39,80,317.5,0.489583,Eighth,D#2
781,Left,1,37,80,318.0,0.489583,Eighth,C#2
782,Right,0,68,80,318.0,0.989583,Quarter,G#4_G#3
784,Left,1,36,80,318.5,0.489583,Eighth,C2
785,Right,0,65,80,319.0,0.989583,Quarter,G#3_F4_A#3
786,Left,1,37,80,319.0,0.989583,Quarter,C#2
789,Left,1,37,80,320.0,0.989583,Quarter,C#2
790,Right,0,58,80,321.0,0.989583,Quarter,G#3_F4_A#3
793,Right,0,55,80,322.0,0.989583,Quarter,G3_D#4_A#3
796,Left,1,39,80,323.0,0.989583,Quarter,D#2
797,Right,0,58,80,324.0,0.989583,Quarter,G3_D#4_A#3
800,Right,0,56,80,325.0,0.989583,Quarter,G#3
801,Left,1,32,80,326.0,0.489583,Eighth,G#1
802,Left,1,36,80,326.5,0.489583,Eighth,C2
803,Left,1,39,80,327.0,0.489583,Eighth,D#2
804,Left,1,44,80,327.5,0.489583,Eighth,G#2
805,Left,1,32,80,328.0,0.989583,Quarter,G#1
806,Left,1,56,70,330.0,0.989583,Quarter,G#3_F3_B3
809,Left,1,53,73,331.0,1.989583,Half,G#3_F3_B3
812,Left,1,59,79,333.0,0.989583,Quarter,G#3_F3_B3
815,Left,1,59,83,334.0,1.989583,Half,G#3_F3_D#3_B3
819,Left,1,56,89,336.0,0.989583,Quarter,G#3_F3_D#3_B3
823,Left,1,56,80,337.0,3.989583,Whole,G#3_F3_D3_B3
827,Right,0,89,114,339.0,1.489583,DottedQuarter,F6
828,Left,1,58,80,340.0,0.989583,Quarter,A#3
829,Right,0,87,80,340.5,0.489583,Eighth,D#6
830,Right,0,86,80,341.0,0.489583,Eighth,D6
831,Right,0,83,80,341.5,0.489583,Eighth,B5
832,Right,0,82,80,342.0,0.489583,Eighth,A#5
833,Right,0,80,80,342.5,0.489583,Eighth,G#5
837,Right,0,78,70,343.0,0.989583,Quarter,F#5
834,Left,1,54,70,343.0,1.989583,Half,F#3_D#3_A#3
838,Left,1,51,76,345.0,0.989583,Quarter,F#3_D#3_A#3
841,Left,1,49,79,346.0,1.989583,Half,F#3_D#3_C#3_A3
845,Left,1,49,86,348.0,0.989583,Quarter,F#3_D#3_C#3_A3
849,Left,1,48,89,349.0,3.989583,Whole,F#3_D#3_C3_A3
853,Right,0,87,117,351.0,1.489583,DottedQuarter,D#6
854,Left,1,56,99,352.0,0.989583,Quarter,G#3
855,Right,0,85,80,352.5,0.489583,Eighth,C#6
856,Right,0,84,80,353.0,0.489583,Eighth,C6
857,Right,0,82,80,353.5,0.489583,Eighth,A#5
858,Right,0,80,80,354.0,0.489583,Eighth,G#5
859,Right,0,78,80,354.5,0.489583,Eighth,F#5
860,Right,0,65,80,355.0,1.989583,Half,F5_F4
862,Left,1,49,80,355.0,0.989583,Quarter,C#3
863,Left,1,61,80,356.0,0.989583,Quarter,C#4
864,Right,0,68,80,357.0,0.989583,Quarter,G#4_F5_F4
867,Right,0,65,80,358.0,1.989583,Half,G#4_F5_F4
870,Left,1,61,80,359.0,0.989583,Quarter,C#4
871,Right,0,65,80,360.0,0.989583,Quarter,G#4_F5_F4
874,Right,0,70,80,361.0,3.989583,DottedHalf,F5_F#4_A#4
877,Left,1,61,80,362.0,0.989583,Quarter,C#4
878,Left,1,63,80,363.0,0.489583,Eighth,D#4
879,Left,1,65,80,363.5,0.489583,Eighth,F4
881,Right,0,75,80,364.0,0.989583,Quarter,D#5
880,Left,1,66,80,364.0,0.489583,Eighth,F#4
882,Left,1,65,80,364.5,0.489583,Eighth,F4
883,Left,1,63,80,365.0,0.489583,Eighth,D#4
884,Left,1,61,80,365.5,0.489583,Eighth,C#4
886,Right,0,75,80,366.0,0.489583,Eighth,D#5_C5
885,Left,1,60,80,366.0,0.489583,Eighth,C4
890,Left,1,58,80,366.5,0.489583,Eighth,A#3
888,Right,0,77,80,366.5,0.489583,Eighth,F5_C#5
891,Right,0,72,80,367.0,1.989583,Half,F#5_D#5_C5
894,Left,1,57,80,367.0,0.989583,Quarter,A3
895,Left,1,69,84,368.0,0.989583,Quarter,A4
896,Right,0,78,89,369.0,0.989583,Quarter,F#5_D#5_C5
899,Right,0,75,94,370.0,1.989583,Half,F#5_D#5_C5
902,Left,1,69,99,371.0,0.989583,Quarter,A4
903,Right,0,72,104,372.0,0.989583,Quarter,F#5_D#5_C5
906,Right,0,78,109,373.0,2.989583,DottedHalf,F#5_D#5_C5
909,Left,1,70,80,374.0,2.989583,DottedHalf,A#4
910,Right,0,77,80,376.0,0.989583,Quarter,F5_C#5
913,Right,0,61,70,379.0,1.989583,Half,C#4_A#4
912,Left,1,52,70,379.0,1.989583,Half,G2_E3
918,Left,1,43,70,381.0,0.989583,Quarter,G2_E3
916,Right,0,70,70,381.0,0.989583,Quarter,C#4_A#4
921,Right,0,61,70,382.0,1.989583,Half,C#4_A#4
920,Left,1,52,70,382.0,1.989583,Half,G2_E3
925,Right,0,70,70,384.0,0.989583,Quarter,C#4_A#4
924,Left,1,52,70,384.0,0.989583,Quarter,G2_E3
928,Right,0,61,70,385.0,3.989583,Whole,C#4_A#4
930,Left,1,44,70,385.0,3.989583,Whole,G#2_E3
933,Left,1,53,70,388.0,0.989583,Quarter,F3
932,Right,0,68,70,388.0,0.989583,Quarter,G#4
934,Right,0,60,70,391.0,1.989583,Half,G#4_C4
936,Left,1,44,70,391.0,1.989583,Half,G#2_F#3
939,Left,1,44,70,393.0,0.989583,Quarter,G#2_F#3
938,Right,0,68,70,393.0,0.989583,Quarter,G#4_C4
944,Left,1,54,70,394.0,1.989583,Half,G#2_F#3
942,Right,0,68,70,394.0,1.989583,Half,G#4_C4
948,Right,0,68,70,396.0,0.989583,Quarter,G#4_C4
946,Left,1,54,70,396.0,0.989583,Quarter,G#2_F#3
950,Right,0,61,70,397.0,0.989583,Quarter,C#4
951,Left,1,53,70,397.0,0.989583,Quarter,F3_C#3
953,Left,1,59,80,402.0,0.989583,Quarter,G#3_F3_B3
956,Left,1,53,80,403.0,1.989583,Half,G#3_F3_B3
959,Left,1,53,80,405.0,0.989583,Quarter,G#3_F3_B3
962,Left,1,51,80,406.0,1.989583,Half,G#3_F3_D#3_B3
966,Left,1,59,80,408.0,0.989583,Quarter,G#3_F3_D#3_B3
970,Left,1,53,80,409.0,3.989583,Whole,G#3_F3_D3_B3
974,Right,0,77,80,411.0,0.239583,Sixteenth,F5
975,Right,0,89,103,411.25,1.239583,TiedQuarter-Sixteenth,F6
976,Left,1,58,80,412.0,0.989583,Quarter,A#3
977,Right,0,87,80,412.5,0.489583,Eighth,D#6
978,Right,0,86,80,413.0,0.489583,Eighth,D6
979,Right,0,83,80,413.5,0.489583,Eighth,B5
980,Right,0,82,80,414.0,0.489583,Eighth,A#5
981,Right,0,80,80,414.5,0.489583,Eighth,G#5
982,Right,0,78,80,415.0,0.989583,Quarter,F#5
983,Left,1,54,80,415.0,1.989583,Half,F#3_D#3_A#3
986,Left,1,51,80,417.0,0.989583,Quarter,F#3_D#3_A#3
989,Left,1,49,80,418.0,1.989583,Half,F#3_D#3_C#3_A3
993,Left,1,49,80,420.0,0.989583,Quarter,F#3_D#3_C#3_A3
997,Left,1,54,80,421.0,3.989583,Whole,F#3_D#3_C3_A3
1001,Right,0,75,80,423.0,0.239583,Sixteenth,D#5
1002,Right,0,87,104,423.25,1.239583,TiedQuarter-Sixteenth,D#6
1003,Left,1,56,80,424.0,0.989583,Quarter,G#3
1004,Right,0,85,80,424.5,0.489583,Eighth,C#6
1005,Right,0,84,80,425.0,0.489583,Eighth,C6
1006,Right,0,82,80,425.5,0.489583,Eighth,A#5
1007,Right,0,80,80,426.0,0.489583,Eighth,G#5
1008,Right,0,78,80,426.5,0.489583,Eighth,F#5
1010,Left,1,49,80,427.0,0.989583,Quarter,C#3
1009,Right,0,77,80,427.0,1.989583,Half,F5_F4
1012,Left,1,61,80,428.0,0.989583,Quarter,C#4
1013,Right,0,77,80,429.0,0.989583,Quarter,G#4_F5_F4
1016,Right,0,68,80,430.0,1.989583,Half,G#4_F5_F4
1019,Left,1,61,80,431.0,0.989583,Quarter,C#4
1020,Right,0,65,80,432.0,0.989583,Quarter,G#4_F5_F4
1023,Right,0,70,80,433.0,3.989583,DottedHalf,F5_F#4_A#4
1026,Left,1,61,80,434.0,0.989583,Quarter,C#4
1027,Left,1,63,80,435.0,0.489583,Eighth,D#4
1028,Left,1,65,80,435.5,0.489583,Eighth,F4
1030,Left,1,66,80,436.0,0.489583,Eighth,F#4
1029,Right,0,75,80,436.0,0.989583,Quarter,D#5
1031,Left,1,65,80,436.5,0.489583,Eighth,F4
1032,Left,1,63,80,437.0,0.489583,Eighth,D#4
1033,Left,1,61,80,437.5,0.489583,Eighth,C#4
1034,Left,1,60,80,438.0,0.489583,Eighth,C4
1035,Right,0,75,80,438.0,0.489583,Eighth,D#5_C5
1038,Right,0,77,80,438.5,0.489583,Eighth,F5_C#5
1037,Left,1,58,80,438.5,0.489583,Eighth,A#3
1041,Right,0,78,80,439.0,1.989583,Half,F#5_D#5_C5
1040,Left,1,57,80,439.0,0.989583,Quarter,A3
1044,Left,1,69,80,440.0,0.989583,Quarter,A4
1045,Right,0,78,80,441.0,0.989583,Quarter,F#5_D#5_C5
1048,Right,0,75,80,442.0,1.989583,Half,F#5_D#5_C5
1051,Left,1,69,80,443.0,0.989583,Quarter,A4
1052,Right,0,75,80,444.0,0.989583,Quarter,F#5_D#5_C5
1055,Right,0,78,80,445.0,2.989583,DottedHalf,F#5_D#5_C5
1058,Left,1,70,80,446.0,2.989583,DottedHalf,A#4
1059,Right,0,77,80,448.0,0.989583,Quarter,F5_C#5
1063,Right,0,61,80,451.0,1.989583,Half,C#4_A#4
1061,Left,1,52,80,451.0,1.989583,Half,G2_E3
1066,Left,1,52,80,453.0,0.989583,Quarter,G2_E3
1065,Right,0,70,80,453.0,0.989583,Quarter,C#4_A#4
1070,Left,1,52,80,454.0,1.989583,Half,G2_E3
1069,Right,0,70,80,454.0,1.989583,Half,C#4_A#4
1073,Left,1,43,80,456.0,0.989583,Quarter,G2_E3
1074,Right,0,61,80,456.0,0.989583,Quarter,C#4_A#4
1078,Left,1,52,80,457.0,5.989583,DottedHalf,G#2_E3
1077,Right,0,61,80,457.0,5.989583,Unknown,C#4_A#4
1081,Right,0,69,80,460.0,2.989583,DottedHalf,A4
1082,Left,1,53,80,460.0,2.989583,DottedHalf,F3
1085,Left,1,44,70,463.0,1.989583,Half,G#2_F#3
1083,Right,0,60,70,463.0,1.989583,Half,G#4_C4
1087,Right,0,60,70,465.0,0.989583,Quarter,G#4_C4
1089,Left,1,44,70,465.0,0.989583,Quarter,G#2_F#3
1093,Left,1,54,70,466.0,1.989583,Half,G#2_F#3
1091,Right,0,60,70,466.0,1.989583,Half,G#4_C4
1095,Right,0,68,70,468.0,0.989583,Quarter,G#4_C4
1097,Left,1,54,70,468.0,0.989583,Quarter,G#2_F#3
1099,Right,0,61,70,469.0,0.989583,Quarter,C#4
1100,Left,1,49,70,469.0,0.989583,Quarter,F3_C#3
1102,Right,0,61,70,475.0,1.989583,Half,C#4
1103,Left,1,49,70,475.0,1.989583,Half,C#3
1105,Right,0,61,70,477.0,0.989583,Quarter,C#4
1104,Left,1,49,70,477.0,0.989583,Quarter,C#3
1107,Right,0,61,70,478.0,1.989583,Half,C#4
1106,Left,1,49,70,478.0,1.989583,Half,C#3
1109,Right,0,61,70,480.0,0.989583,Quarter,C#4
1108,Left,1,49,70,480.0,0.989583,Quarter,C#3
1110,Right,0,60,70,481.0,5.989583,Unknown,C4
1111,Left,1,48,70,481.0,5.989583,Unknown,C3
1112,Left,1,36,70,487.0,1.989583,Half,C3_C2
1114,Right,0,55,70,487.0,1.989583,Half,G3_E4_A#3
1117,Right,0,55,70,489.0,0.989583,Quarter,G3_E4_A#3
1120,Left,1,48,70,489.0,0.989583,Quarter,C3_C2
1122,Right,0,58,70,490.0,1.989583,Half,G3_E4_A#3
1125,Left,1,36,70,490.0,1.989583,Half,C3_C2
1127,Right,0,58,70,492.0,0.989583,Quarter,G3_E4_A#3
1130,Left,1,48,70,492.0,0.989583,Quarter,C3_C2
1133,Right,0,53,80,493.0,0.989583,Quarter,F4_F3
1132,Left,1,41,80,493.0,0.989583,Quarter,F2
1135,Left,1,44,80,494.0,0.989583,Quarter,G#2
1136,Right,0,56,80,494.0,0.989583,Quarter,G#3
1138,Left,1,40,80,495.0,0.989583,Quarter,E2
1137,Right,0,52,80,495.0,0.989583,Quarter,E3
1140,Right,0,53,80,496.0,0.989583,Quarter,F3
1139,Left,1,41,80,496.0,0.989583,Quarter,F2
1141,Left,1,44,80,497.0,0.989583,Quarter,G#2
1142,Right,0,56,80,497.0,0.989583,Quarter,G#3
1143,Right,0,60,80,498.0,0.989583,Quarter,C4
1144,Left,1,48,80,498.0,0.989583,Quarter,C3
1146,Left,1,49,80,499.0,0.989583,Quarter,C#3
1145,Right,0,61,80,499.0,0.989583,Quarter,C#4
1147,Left,1,46,80,500.0,0.989583,Quarter,A#2
1148,Right,0,58,80,500.0,0.989583,Quarter,A#3
1150,Right,0,64,80,501.0,0.989583,Quarter,E4
1149,Left,1,52,80,501.0,0.989583,Quarter,E3
1151,Left,1,53,80,502.0,0.989583,Quarter,F3
1152,Right,0,65,80,502.0,0.989583,Quarter,F4
1153,Left,1,48,80,503.0,0.989583,Quarter,C3
1154,Right,0,60,80,503.0,0.989583,Quarter,C4
1156,Left,1,55,80,504.0,0.989583,Quarter,G3
1155,Right,0,67,80,504.0,0.989583,Quarter,G4
1157,Left,1,56,80,505.0,0.989583,Quarter,G#3
1158,Right,0,68,80,505.0,1.989583,Half,G#4
1160,Right,0,65,80,506.0,0.989583,Quarter,F4
1159,Left,1,53,80,506.0,0.989583,Quarter,F3
1161,Left,1,55,80,507.0,0.989583,Quarter,G3_A#3
1162,Right,0,70,80,507.0,1.989583,Quarter,D#4_A#4
1165,Left,1,60,80,508.0,1.989583,Half,G#3_C4
1166,Right,0,72,80,508.0,1.989583,Half,G#4_C5
1169,Right,0,65,80,509.0,1.989583,Half,F4
1170,Left,1,53,80,509.0,0.989583,Quarter,F3
1173,Left,1,49,80,510.0,0.989583,Quarter,C#3
1171,Right,0,75,80,510.0,0.989583,Eighth,D#5_A#4
1174,Right,0,73,80,510.5,0.489583,Eighth,C#5
1177,Left,1,51,80,511.0,0.989583,Quarter,D#3
1175,Right,0,63,80,511.0,1.989583,Half,G#4_D#4_C5
1179,Left,1,39,80,512.0,0.989583,Quarter,D#2
1180,Right,0,70,80,513.0,0.989583,Quarter,G4_C#4_A#4
1181,Left,1,39,80,513.0,0.989583,Quarter,D#2
1184,Right,0,60,80,514.0,0.989583,Quarter,G#4_C4
1185,Left,1,44,80,514.0,0.989583,Quarter,G#2
1187,Left,1,32,80,515.0,0.989583,Quarter,G#1
1188,Left,1,36,80,516.0,0.989583,Quarter,C2
1189,Right,0,48,80,516.5,0.989583,Quarter,C3
1190,Left,1,41,80,517.0,0.989583,Quarter,F2
1191,Right,0,53,80,517.5,0.989583,Quarter,F3
1192,Left,1,44,80,518.0,0.989583,Quarter,G#2
1193,Right,0,56,80,518.5,0.989583,Quarter,G#3
1194,Left,1,40,80,519.0,0.989583,Quarter,E2
1195,Right,0,52,80,519.5,0.989583,Quarter,E3
1196,Left,1,41,80,520.0,0.989583,Quarter,F2
1197,Right,0,53,80,520.5,0.989583,Quarter,F3
1198,Left,1,44,80,521.0,0.989583,Quarter,G#2
1199,Right,0,56,80,521.5,0.989583,Quarter,G#3
1200,Left,1,48,80,522.0,0.989583,Quarter,C3
1201,Right,0,60,80,522.5,0.989583,Quarter,C4
1202,Left,1,49,80,523.0,0.989583,Quarter,C#3
1203,Right,0,61,80,523.5,0.989583,Quarter,C#4
1204,Left,1,46,80,524.0,0.989583,Quarter,A#2
1205,Right,0,58,80,524.5,0.989583,Quarter,A#3
1206,Left,1,52,80,525.0,0.989583,Quarter,E3
1207,Right,0,64,80,525.5,0.989583,Quarter,E4
1208,Left,1,53,80,526.0,0.989583,Quarter,F3
1209,Right,0,65,80,526.5,0.989583,Quarter,F4
1210,Left,1,48,80,527.0,0.989583,Quarter,C3
1211,Right,0,60,80,527.5,0.989583,Quarter,C4
1212,Left,1,55,80,528.0,0.989583,Quarter,G3
1213,Right,0,67,80,528.5,0.989583,Quarter,G4
1214,Left,1,56,80,529.0,0.989583,Quarter,G#3
1215,Right,0,68,80,529.5,1.989583,Half,G#4
1216,Left,1,53,80,530.0,0.989583,Quarter,F3
1217,Right,0,65,80,530.5,0.989583,Quarter,F4
1218,Left,1,58,80,531.0,0.989583,Quarter,G3_A#3
1220,Right,0,70,80,531.5,0.989583,Quarter,A#4
1222,Left,1,60,80,532.0,0.989583,Quarter,G#3_C4
1221,Right,0,72,80,532.0,1.489583,DottedQuarter,C5
1224,Right,0,68,80,532.5,1.489583,DottedQuarter,G#4
1225,Left,1,53,80,533.0,0.989583,Quarter,F3
1226,Right,0,72,80,533.5,0.489583,Eighth,C5
1227,Left,1,49,80,534.0,0.989583,Quarter,C#3
1228,Right,0,70,80,534.0,1.989583,Half,D#5_A#4
1230,Right,0,73,80,534.5,0.489583,Eighth,F4_C#5
1233,Right,0,72,80,535.0,1.489583,DottedQuarter,C5
1232,Left,1,51,80,535.0,0.989583,Quarter,D#3
1234,Right,0,63,80,535.5,1.489583,DottedQuarter,D#4
1235,Right,0,68,80,536.0,0.989583,Quarter,G#4
1236,Left,1,39,80,536.0,0.989583,Quarter,D#2
1237,Right,0,73,80,536.5,0.489583,Eighth,C#5
1238,Left,1,39,80,537.0,0.989583,Quarter,D#2
1239,Right,0,70,80,537.0,0.989583,Quarter,G4_C#4_A#4
1242,Right,0,72,80,537.5,0.489583,Eighth,C5
1245,Left,1,44,80,538.0,0.989583,Quarter,G#2
1243,Right,0,60,80,538.0,0.989583,Quarter,G#4_C4
1246,Left,1,32,80,539.0,0.989583,Quarter,G#1
1247,Right,0,72,80,540.0,0.989583,Quarter,C5
1249,Left,1,56,80,541.0,0.489583,Eighth,G#3
1248,Right,0,72,80,541.0,0.989583,Quarter,C5
1250,Left,1,60,80,541.5,0.489583,Eighth,C4
1251,Left,1,56,80,542.0,0.489583,Eighth,G#3
1252,Right,0,71,80,542.0,0.489583,Eighth,B4
1253,Left,1,60,80,542.5,0.489583,Eighth,C4
1254,Right,0,72,80,542.5,0.489583,Eighth,C5
1256,Right,0,73,80,543.0,0.989583,Quarter,F4_C#5
1255,Left,1,56,80,543.0,0.489583,Eighth,G#3
1258,Left,1,60,80,543.5,0.489583,Eighth,C4
1260,Right,0,73,80,544.0,0.989583,Quarter,F4_C#5
1259,Left,1,58,80,544.0,0.489583,Eighth,A#3
1262,Left,1,61,80,544.5,0.489583,Eighth,C#4
1263,Left,1,58,80,545.0,0.489583,Eighth,A#3
1264,Right,0,64,80,545.0,0.489583,Eighth,E4
1265,Left,1,61,80,545.5,0.489583,Eighth,C#4
1266,Right,0,65,80,545.5,0.489583,Eighth,F4
1267,Left,1,58,80,546.0,0.489583,Eighth,A#3
1268,Right,0,73,80,546.0,0.989583,Quarter,G4_C#5
1270,Left,1,61,80,546.5,0.489583,Eighth,C#4
1272,Right,0,67,80,547.0,0.989583,Quarter,G4_C#5
1271,Left,1,58,80,547.0,0.489583,Eighth,A#3
1274,Left,1,61,80,547.5,0.489583,Eighth,C#4
1276,Right,0,72,80,548.0,0.489583,Eighth,C5
1275,Left,1,58,80,548.0,0.489583,Eighth,A#3
1278,Right,0,73,80,548.5,0.489583,Eighth,C#5
1277,Left,1,61,80,548.5,0.489583,Eighth,C#4
1280,Right,0,67,80,549.0,0.989583,Quarter,G4_D#5
1279,Left,1,58,80,549.0,0.489583,Eighth,A#3
1282,Left,1,61,80,549.5,0.489583,Eighth,C#4
1283,Left,1,60,80,550.0,0.489583,Eighth,C4
1284,Right,0,67,80,550.0,0.989583,Quarter,G4_D#5
1286,Left,1,63,80,550.5,0.489583,Eighth,D#4
1288,Left,1,60,80,551.0,0.489583,Eighth,C4
1287,Right,0,65,80,551.0,0.489583,Eighth,F4
1290,Left,1,63,80,551.5,0.489583,Eighth,D#4
1289,Right,0,67,80,551.5,0.489583,Eighth,G4
1291,Right,0,75,80,552.0,0.989583,Quarter,D#5_A4
1292,Left,1,60,80,552.0,0.489583,Eighth,C4
1294,Left,1,63,80,552.5,0.489583,Eighth,D#4
1296,Left,1,60,80,553.0,0.489583,Eighth,C4
1295,Right,0,69,80,553.0,0.989583,Quarter,D#5_A4
1298,Left,1,63,80,553.5,0.489583,Eighth,D#4
1299,Right,0,74,80,554.0,0.489583,Eighth,D5
1300,Left,1,60,80,554.0,0.489583,Eighth,C4
1301,Right,0,75,80,554.5,0.489583,Eighth,D#5
1302,Left,1,63,80,554.5,0.489583,Eighth,D#4
1305,Left,1,60,80,555.0,0.489583,Eighth,C4
1303,Right,0,69,80,555.0,0.989583,Quarter,F5_A4
1306,Left,1,63,80,555.5,0.489583,Eighth,D#4
1308,Right,0,77,80,556.0,0.989583,Quarter,F5_A4
1307,Left,1,61,80,556.0,0.489583,Eighth,C#4
1310,Left,1,65,80,556.5,0.489583,Eighth,F4
1311,Left,1,61,80,557.0,0.489583,Eighth,C#4
1312,Right,0,67,80,557.0,0.489583,Eighth,G4
1313,Left,1,65,80,557.5,0.489583,Eighth,F4
1314,Right,0,69,80,557.5,0.489583,Eighth,A4
1315,Left,1,61,80,558.0,0.489583,Eighth,C#4
1316,Right,0,70,80,558.0,0.989583,Quarter,F5_A#4
1318,Left,1,65,80,558.5,0.489583,Eighth,F4
1319,Left,1,62,80,559.0,0.489583,Eighth,D4
1320,Right,0,71,80,559.0,1.989583,Half,F5_B4
1322,Right,0,79,80,559.25,0.239583,Sixteenth,G5
1324,Right,0,77,80,559.5,0.239583,Sixteenth,F5
1323,Left,1,65,80,559.5,0.489583,Eighth,F4
1325,Right,0,79,80,559.75,0.239583,Sixteenth,G5
1326,Right,0,77,80,560.0,0.239583,Sixteenth,F5
1327,Left,1,62,80,560.0,0.489583,Eighth,D4
1328,Right,0,79,80,560.25,0.239583,Sixteenth,G5
1329,Right,0,76,80,560.5,0.239583,Sixteenth,E5
1330,Left,1,65,80,560.5,0.489583,Eighth,F4
1331,Right,0,77,80,560.75,0.239583,Sixteenth,F5
1333,Right,0,71,80,561.0,0.989583,Quarter,G5_B4
1332,Left,1,62,80,561.0,0.489583,Eighth,D4
1335,Left,1,65,80,561.5,0.489583,Eighth,F4
1338,Left,1,60,80,562.0,4.989583,Unknown,E4_C4
1336,Right,0,72,80,562.0,4.989583,Unknown,G4_C5
1340,Right,0,72,80,567.0,0.989583,Quarter,C5
1341,Right,0,77,80,568.0,0.989583,Quarter,F5
1342,Right,0,80,80,569.0,0.989583,Quarter,G#5
1343,Right,0,76,80,570.0,1.489583,DottedQuarter,E5
1344,Left,1,72,80,570.0,0.989583,Quarter,C5
1345,Left,1,68,80,571.0,0.989583,Quarter,G#4
1346,Right,0,77,80,571.5,0.989583,Quarter,F5
1347,Left,1,65,80,572.0,0.989583,Quarter,F4
1348,Right,0,80,80,572.5,0.989583,Quarter,G#5
1349,Left,1,68,80,573.0,0.989583,Quarter,G#4
1350,Right,0,84,80,573.5,0.989583,Quarter,C6
1351,Left,1,70,80,574.0,0.989583,Quarter,A#4
1352,Right,0,85,80,574.5,0.989583,Quarter,C#6
1353,Left,1,65,80,575.0,0.989583,Quarter,F4
1354,Right,0,82,80,575.5,0.989583,Quarter,A#5
1355,Left,1,70,80,576.0,0.989583,Quarter,A#4
1356,Right,0,88,80,576.5,0.989583,Quarter,E6
1357,Left,1,68,80,577.0,0.989583,Quarter,G#4
1358,Right,0,89,80,577.5,0.989583,Quarter,F6
1359,Left,1,65,80,578.0,0.989583,Quarter,F4
1360,Right,0,84,80,578.5,0.989583,Quarter,C6
1361,Left,1,72,80,579.0,0.989583,Quarter,C5
1362,Right,0,80,80,579.5,0.989583,Quarter,G#5
1363,Left,1,73,80,580.0,0.989583,Quarter,C#5
1364,Right,0,82,80,580.5,0.989583,Quarter,A#5
1365,Left,1,70,80,581.0,0.989583,Quarter,A#4
1366,Right,0,85,80,581.5,0.989583,Quarter,C#6
1367,Left,1,76,80,582.0,0.989583,Quarter,E5
1368,Right,0,79,80,582.5,0.989583,Quarter,G5
1369,Left,1,77,80,583.0,0.989583,Quarter,F5
1370,Right,0,80,80,583.5,0.989583,Quarter,G#5
1371,Left,1,72,80,584.0,0.989583,Quarter,C5
1372,Right,0,80,80,584.5,0.989583,Quarter,G#5
1373,Left,1,60,80,585.0,0.989583,Quarter,C4
1374,Right,0,80,80,585.5,0.489583,Eighth,G#5
1375,Left,1,61,80,586.0,0.989583,Quarter,C#4
1376,Right,0,80,80,586.0,1.989583,Half,G#5
1377,Right,0,73,80,586.5,0.989583,Quarter,C#5_A#4
1379,Left,1,58,80,587.0,0.989583,Quarter,A#3
1380,Right,0,73,80,587.5,0.989583,Quarter,C#5_A#4
1383,Left,1,64,80,588.0,0.989583,Quarter,E4
1382,Right,0,79,80,588.0,0.989583,Quarter,G5
1384,Right,0,70,80,588.5,0.489583,Eighth,C#5_A#4
1386,Right,0,80,80,589.0,1.989583,Half,G#5
1387,Left,1,61,80,589.0,0.989583,Quarter,C#4
1388,Right,0,70,80,589.5,0.989583,Quarter,C#5_A#4
1390,Left,1,58,80,590.0,0.989583,Quarter,A#3
1391,Right,0,73,80,590.5,0.989583,Quarter,C#5_A#4
1394,Right,0,79,80,591.0,0.989583,Quarter,G5
1393,Left,1,64,80,591.0,0.989583,Quarter,E4
1395,Right,0,70,80,591.5,0.489583,Eighth,C#5_A#4
1397,Left,1,60,80,592.0,0.989583,Quarter,C4
1398,Right,0,77,80,592.0,0.989583,Quarter,F5
1399,Right,0,68,80,592.5,0.989583,Quarter,G#4
1400,Right,0,79,80,593.0,0.989583,Quarter,G5
1401,Left,1,60,80,593.0,0.989583,Quarter,C4
1402,Right,0,70,80,593.5,0.989583,Quarter,A#4
1404,Right,0,76,80,594.0,0.989583,Quarter,E5
1403,Left,1,60,80,594.0,0.989583,Quarter,C4
1405,Right,0,67,80,594.5,0.489583,Eighth,G4
1406,Left,1,53,80,595.0,0.989583,Quarter,F3
1407,Right,0,77,80,595.0,0.989583,Eighth,G#4_F5
1409,Right,0,75,80,595.5,0.489583,Eighth,D#5
1410,Right,0,73,80,596.0,0.489583,Eighth,C#5
1411,Right,0,72,80,596.5,0.489583,Eighth,C5
1412,Right,0,70,80,597.0,0.489583,Eighth,A#4
1413,Left,1,48,80,597.0,0.989583,Quarter,C3
1414,Right,0,68,80,597.5,0.489583,Eighth,G#4
1416,Left,1,49,80,598.0,0.989583,Quarter,C#3
1415,Right,0,68,80,598.0,1.989583,Half,G#4
1417,Right,0,61,80,598.5,0.989583,Quarter,C#4_A#3
1419,Left,1,46,80,599.0,0.989583,Quarter,A#2
1420,Right,0,58,80,599.5,0.989583,Quarter,C#4_A#3
1423,Left,1,52,80,600.0,0.989583,Quarter,E3
1422,Right,0,67,80,600.0,0.989583,Quarter,G4
1424,Right,0,58,80,600.5,0.489583,Eighth,C#4_A#3
1426,Left,1,49,80,601.0,0.989583,Quarter,C#3
1427,Right,0,68,80,601.0,1.989583,Half,G#4
1428,Right,0,61,80,601.5,0.989583,Quarter,C#4_A#3
1430,Left,1,46,80,602.0,0.989583,Quarter,A#2
1431,Right,0,58,80,602.5,0.989583,Quarter,C#4_A#3
1434,Left,1,52,80,603.0,0.989583,Quarter,E3
1433,Right,0,67,80,603.0,0.989583,Quarter,G4
1435,Right,0,61,80,603.5,0.489583,Eighth,C#4_A#3
1437,Right,0,65,80,604.0,0.989583,Quarter,F4
1438,Left,1,48,80,604.0,0.989583,Quarter,C3
1439,Right,0,56,80,604.5,0.989583,Quarter,G#3
1440,Right,0,67,80,605.0,0.989583,Quarter,G4
1441,Left,1,48,80,605.0,0.989583,Quarter,C3
1442,Right,0,58,80,605.5,0.989583,Quarter,A#3
1444,Left,1,48,80,606.0,0.989583,Quarter,C3
1443,Right,0,64,80,606.0,0.989583,Quarter,E4
1445,Right,0,55,80,606.5,0.489583,Eighth,G3
1446,Right,0,65,80,607.0,0.989583,Quarter,G#3_F4
1448,Left,1,53,80,607.0,0.989583,Quarter,F3_F2
1450,Right,0,60,80,609.0,0.989583,Quarter,C4
1452,Left,1,48,84,610.0,2.989583,DottedHalf,C3
1451,Right,0,64,84,610.0,1.989583,Half,E4
1453,Left,1,58,88,611.0,0.989583,Quarter,A#3
1454,Left,1,56,92,612.0,0.989583,Quarter,G#3
1455,Right,0,65,92,612.0,0.989583,Quarter,F4
1456,Right,0,64,97,613.0,1.989583,Half,G4_E4
1458,Left,1,48,97,613.0,2.989583,DottedHalf,C3
1459,Left,1,55,101,614.0,0.989583,Quarter,G3_A#3
1463,Right,0,65,105,615.0,0.989583,Quarter,G#4_F4
1461,Left,1,56,105,615.0,0.989583,Quarter,G#3_F3
1469,Right,0,64,109,616.0,1.489583,DottedQuarter,G4_E4_C5
1465,Left,1,60,109,616.0,2.989583,DottedHalf,G3_E3_C4_C3
1472,Right,0,70,80,617.5,0.489583,Eighth,A#4
1473,Right,0,68,80,618.0,0.489583,Eighth,G#4
1474,Right,0,67,80,618.5,0.489583,Eighth,G4
1475,Left,1,53,80,619.0,0.989583,Quarter,G#3_F3_C4
1478,Right,0,70,80,619.0,0.489583,Eighth,A#4
1479,Right,0,68,80,619.5,0.489583,Eighth,G#4
1480,Right,0,67,80,620.0,0.489583,Eighth,G4
1481,Right,0,65,80,620.5,0.489583,Eighth,F4
1482,Right,0,72,80,621.0,0.489583,Eighth,C5
1483,Right,0,73,80,621.25,0.489583,Eighth,C#5
1484,Right,0,71,80,621.5,0.489583,Eighth,B4
1485,Right,0,72,80,621.75,0.239583,Sixteenth,C5
1487,Right,0,76,80,622.0,1.989583,Half,G5_E5
1486,Left,1,60,80,622.0,3.989583,Whole,C4
1489,Right,0,72,80,622.5,0.989583,Quarter,C5
1490,Left,1,70,80,623.0,0.989583,Quarter,G4_A#4
1492,Right,0,72,80,623.5,0.989583,Quarter,C5
1494,Left,1,65,80,624.0,0.989583,Quarter,G#4_F4
1493,Right,0,77,80,624.0,0.989583,Quarter,G#5_F5
1497,Right,0,72,80,624.5,0.989583,Quarter,C5
1498,Right,0,79,80,625.0,0.989583,Quarter,G5_A#5
1500,Left,1,64,80,625.0,0.989583,Quarter,G4_E4
1502,Right,0,72,80,625.5,0.489583,Eighth,C5
1503,Right,0,71,80,626.0,0.489583,Eighth,B4
1504,Right,0,72,80,626.5,0.489583,Eighth,C5
1507,Left,1,48,80,627.0,0.989583,Quarter,C4_C3
1505,Right,0,88,80,627.0,0.989583,Quarter,G5_E6_E5
1513,Left,1,53,80,628.0,1.989583,Half,F3_F2
1510,Right,0,77,80,628.0,1.989583,Half,G#5_F6_F5
1515,Right,0,65,1,632.0,0.489583,Eighth,F4
