,hand,channel,note,velocity,start_beat,duration,note_value,chord
0,Left,1,48,100,0.5,0.489583,Eighth,C3
1,Left,1,53,100,1.0,0.489583,Eighth,F3
2,Left,1,53,100,1.5,0.489583,Eighth,F3
3,Left,1,53,100,2.0,0.489583,Eighth,F3
4,Left,1,48,100,2.5,0.489583,Eighth,C3
5,Left,1,57,100,3.0,0.489583,Eighth,A3
6,Left,1,57,100,3.5,0.489583,Eighth,A3
7,Left,1,57,100,4.0,0.489583,Eighth,A3
8,Left,1,53,100,4.5,0.489583,Eighth,F3
9,Left,1,60,100,5.0,0.489583,Eighth,C4
10,Left,1,60,100,5.5,0.489583,Eighth,C4
11,Left,1,60,100,6.0,0.239583,Sixteenth,C4
12,Left,1,62,100,6.25,0.239583,Sixteenth,D4
13,Left,1,60,100,6.5,0.239583,Sixteenth,C4
14,Left,1,58,100,6.75,0.239583,Sixteenth,A#3
15,Left,1,57,100,7.0,0.489583,Eighth,A3
16,Left,1,57,100,7.5,0.489583,Eighth,A3
17,Left,1,57,100,8.0,0.239583,Sixteenth,A3
18,Left,1,58,100,8.25,0.239583,Sixteenth,A#3
19,Right,0,60,100,8.5,0.489583,Eighth,C4
20,Left,1,57,100,8.5,0.239583,Sixteenth,A3
21,Left,1,55,100,8.75,0.239583,Sixteenth,G3
22,Left,1,57,100,9.0,0.489583,Eighth,A3
23,Right,0,65,100,9.0,0.489583,Eighth,F4
24,Right,0,65,100,9.5,0.489583,Eighth,F4
25,Left,1,60,100,9.5,0.239583,Sixteenth,C4
26,Left,1,58,100,9.75,0.239583,Sixteenth,A#3
27,Right,0,65,100,10.0,0.489583,Eighth,F4
28,Left,1,57,100,10.0,0.489583,Eighth,A3
30,Left,1,55,100,10.5,0.489583,Eighth,G3
29,Right,0,60,100,10.5,0.489583,Eighth,C4
32,Left,1,53,100,11.0,0.489583,Eighth,F3
31,Right,0,69,100,11.0,0.489583,Eighth,A4
34,Left,1,52,100,11.5,0.489583,Eighth,E3
33,Right,0,69,100,11.5,0.489583,Eighth,A4
35,Right,0,69,100,12.0,0.489583,Eighth,A4
36,Left,1,53,100,12.0,0.489583,Eighth,F3
37,Right,0,65,100,12.5,0.489583,Eighth,F4
38,Left,1,50,100,12.5,0.489583,Eighth,D3
40,Right,0,72,100,13.0,0.489583,Eighth,C5
39,Left,1,52,100,13.0,0.489583,Eighth,E3
42,Right,0,72,100,13.5,0.489583,Eighth,C5
41,Left,1,48,100,13.5,0.489583,Eighth,C3
43,Right,0,72,100,14.0,0.239583,Sixteenth,C5
44,Left,1,50,100,14.0,0.489583,Eighth,D3
45,Right,0,74,100,14.25,0.239583,Sixteenth,D5
46,Right,0,72,100,14.5,0.239583,Sixteenth,C5
47,Left,1,52,100,14.5,0.489583,Eighth,E3
48,Right,0,70,100,14.75,0.239583,Sixteenth,A#4
49,Right,0,69,100,15.0,0.489583,Eighth,A4
50,Left,1,53,100,15.0,0.489583,Eighth,F3
51,Right,0,69,100,15.5,0.489583,Eighth,A4
52,Left,1,55,100,15.5,0.489583,Eighth,G3
53,Left,1,57,100,16.0,0.489583,Eighth,A3
54,Right,0,67,100,16.0,0.239583,Sixteenth,G4
55,Right,0,69,100,16.25,0.239583,Sixteenth,A4
57,Right,0,67,100,16.5,0.489583,Eighth,G4
56,Left,1,58,100,16.5,0.489583,Eighth,A#3
58,Right,0,65,100,16.75,0.239583,Sixteenth,F4
60,Left,1,60,100,17.0,0.489583,Eighth,E4_C4
59,Right,0,72,100,17.0,0.489583,Eighth,C5
62,Left,1,62,100,17.5,0.489583,Eighth,F4_D4
63,Right,0,72,100,17.5,0.489583,Eighth,C5
65,Right,0,72,100,18.0,0.489583,Eighth,C5
66,Left,1,67,100,18.0,0.489583,Eighth,G4_E4
70,Right,0,67,100,18.5,0.489583,Eighth,G4
68,Left,1,65,100,18.5,0.489583,Eighth,F4_D4
71,Right,0,76,100,19.0,0.489583,Eighth,E5
72,Left,1,64,100,19.0,0.489583,Eighth,E4_C4
76,Right,0,76,100,19.5,0.489583,Eighth,E5
74,Left,1,62,100,19.5,0.489583,Eighth,D4_B3
78,Left,1,64,100,20.0,0.489583,Eighth,E4_C4
77,Right,0,76,100,20.0,0.489583,Eighth,E5
81,Left,1,60,100,20.5,0.489583,Eighth,C4_A3
80,Right,0,72,100,20.5,0.489583,Eighth,C5
84,Left,1,62,100,21.0,0.489583,Eighth,D4_B3
83,Right,0,79,100,21.0,0.489583,Eighth,G5
86,Left,1,59,100,21.5,0.489583,Eighth,G3_B3
88,Right,0,79,100,21.5,0.489583,Eighth,G5
90,Right,0,79,100,22.0,0.239583,Sixteenth,G5
89,Left,1,60,100,22.0,0.489583,Eighth,C4_A3
92,Right,0,81,100,22.25,0.239583,Sixteenth,A5
94,Left,1,59,100,22.5,0.489583,Eighth,D4_B3
93,Right,0,79,100,22.5,0.239583,Sixteenth,G5
96,Right,0,77,100,22.75,0.239583,Sixteenth,F5
97,Left,1,60,100,23.0,0.489583,Eighth,E4_C4
98,Right,0,76,100,23.0,0.489583,Eighth,E5
100,Left,1,62,100,23.5,0.489583,Eighth,F4_D4
101,Right,0,76,100,23.5,0.489583,Eighth,E5
104,Right,0,76,100,24.0,0.239583,Sixteenth,E5
103,Left,1,67,100,24.0,0.489583,Eighth,G4_E4
106,Right,0,74,100,24.25,0.239583,Sixteenth,D5
108,Left,1,60,100,24.5,0.489583,Eighth,E4_C4
107,Right,0,76,100,24.5,0.239583,Sixteenth,E5
110,Right,0,72,100,24.75,0.239583,Sixteenth,C5
113,Right,0,81,100,25.0,0.489583,Eighth,A5
111,Left,1,61,100,25.0,0.489583,Eighth,E4_C#4
114,Right,0,81,100,25.5,0.489583,Eighth,A5
115,Left,1,57,100,25.5,0.489583,Eighth,C#4_A3
119,Right,0,81,100,26.0,0.239583,Sixteenth,A5
117,Left,1,59,100,26.0,0.489583,Eighth,D4_B3
120,Right,0,82,100,26.25,0.239583,Sixteenth,A#5
121,Right,0,81,100,26.5,0.239583,Sixteenth,A5
122,Left,1,64,100,26.5,0.489583,Eighth,E4_C#4
124,Right,0,79,100,26.75,0.239583,Sixteenth,G5
125,Right,0,77,100,27.0,0.489583,Eighth,F5
126,Left,1,65,100,27.0,0.489583,Eighth,F4_D4
130,Right,0,77,100,27.5,0.489583,Eighth,F5
128,Left,1,64,100,27.5,0.489583,Eighth,G4_E4
133,Right,0,77,100,28.0,0.239583,Sixteenth,F5
131,Left,1,65,100,28.0,0.489583,Eighth,F4_A4
134,Right,0,76,100,28.25,0.239583,Sixteenth,E5
135,Left,1,65,100,28.5,0.489583,Eighth,F4_D4
137,Right,0,77,100,28.5,0.239583,Sixteenth,F5
138,Right,0,74,100,28.75,0.239583,Sixteenth,D5
142,Right,0,89,110,29.0,0.489583,Eighth,F6
139,Left,1,59,100,29.0,0.489583,Eighth,G4_D4_B3
146,Right,0,89,100,29.5,0.489583,Eighth,F6
143,Left,1,67,100,29.5,0.489583,Eighth,G4_D4_B3
148,Left,1,67,100,30.0,0.489583,Eighth,G4_E4_C4
147,Right,0,88,100,30.0,0.239583,Sixteenth,E6
151,Right,0,87,100,30.25,0.239583,Sixteenth,D#6
152,Right,0,88,100,30.5,0.239583,Sixteenth,E6
153,Right,0,84,100,30.75,0.239583,Sixteenth,C6
154,Right,0,89,110,31.0,0.489583,Eighth,F6
155,Left,1,67,100,31.0,0.489583,Eighth,G4_D4_B3
158,Left,1,62,100,31.5,0.489583,Eighth,G4_D4_B3
160,Right,0,89,100,31.5,0.489583,Eighth,F6
163,Left,1,67,100,32.0,0.489583,Eighth,G4_E4_C4
162,Right,0,88,100,32.0,0.239583,Sixteenth,E6
166,Right,0,87,100,32.25,0.239583,Sixteenth,D#6
167,Right,0,88,100,32.5,0.239583,Sixteenth,E6
168,Right,0,84,100,32.75,0.239583,Sixteenth,C6
170,Left,1,62,100,33.0,0.489583,Eighth,F3_D4_A3
169,Right,0,86,100,33.0,0.239583,Sixteenth,D6
173,Right,0,84,100,33.25,0.239583,Sixteenth,C6
174,Right,0,83,100,33.5,0.239583,Sixteenth,B5
175,Right,0,81,100,33.75,0.239583,Sixteenth,A5
179,Right,0,79,100,34.0,0.239583,Sixteenth,G5
176,Left,1,55,100,34.0,0.489583,Eighth,G3_D4_B3
180,Right,0,77,100,34.25,0.239583,Sixteenth,F5
181,Right,0,76,100,34.5,0.239583,Sixteenth,E5
182,Right,0,74,100,34.75,0.239583,Sixteenth,D5
183,Right,0,72,100,35.0,0.239583,Sixteenth,C5
184,Left,1,48,100,35.0,0.989583,Quarter,G3_E3_C4_C3
188,Right,0,71,100,35.25,0.239583,Sixteenth,B4
189,Right,0,72,100,35.5,0.239583,Sixteenth,C5
190,Right,0,74,100,35.75,0.239583,Sixteenth,D5
191,Right,0,76,100,36.0,0.239583,Sixteenth,E5
192,Right,0,77,100,36.25,0.239583,Sixteenth,F5
193,Right,0,79,100,36.5,0.239583,Sixteenth,G5
194,Right,0,76,100,36.75,0.239583,Sixteenth,E5
198,Right,0,77,110,37.0,0.239583,Sixteenth,F5
195,Left,1,55,100,37.0,0.489583,Eighth,G3_F3_D3_B2
200,Right,0,74,110,37.25,0.239583,Sixteenth,D5
204,Right,0,77,110,37.5,0.239583,Sixteenth,F5
201,Left,1,50,100,37.5,0.489583,Eighth,G3_F3_D3_B2
206,Right,0,74,110,37.75,0.239583,Sixteenth,D5
209,Right,0,76,100,38.0,0.239583,Sixteenth,E5
207,Left,1,48,100,38.0,0.489583,Eighth,G3_E3_C3
211,Right,0,75,100,38.25,0.239583,Sixteenth,D#5
212,Right,0,76,100,38.5,0.239583,Sixteenth,E5
213,Right,0,72,100,38.75,0.239583,Sixteenth,C5
214,Left,1,50,100,39.0,0.489583,Eighth,G3_F3_D3_B2
215,Right,0,77,110,39.0,0.239583,Sixteenth,F5
219,Right,0,74,110,39.25,0.239583,Sixteenth,D5
221,Left,1,55,100,39.5,0.489583,Eighth,G3_F3_D3_B2
220,Right,0,77,110,39.5,0.239583,Sixteenth,F5
225,Right,0,74,110,39.75,0.239583,Sixteenth,D5
226,Left,1,52,100,40.0,0.489583,Eighth,G3_E3_C3
229,Right,0,76,100,40.0,0.239583,Sixteenth,E5
230,Right,0,75,100,40.25,0.239583,Sixteenth,D#5
231,Right,0,76,100,40.5,0.239583,Sixteenth,E5
232,Right,0,72,100,40.75,0.239583,Sixteenth,C5
233,Left,1,41,110,41.0,0.489583,Eighth,F2
234,Right,0,81,110,41.0,0.239583,Sixteenth,A5
235,Right,0,80,110,41.25,0.239583,Sixteenth,G#5
236,Left,1,53,110,41.5,0.489583,Eighth,F3
237,Right,0,81,110,41.5,0.239583,Sixteenth,A5
238,Right,0,80,110,41.75,0.239583,Sixteenth,G#5
239,Left,1,53,110,42.0,0.489583,Eighth,F3
240,Right,0,81,110,42.0,0.239583,Sixteenth,A5
241,Right,0,79,110,42.25,0.239583,Sixteenth,G5
243,Left,1,53,110,42.5,0.489583,Eighth,F3
242,Right,0,77,110,42.5,0.239583,Sixteenth,F5
244,Right,0,76,110,42.75,0.239583,Sixteenth,E5
245,Left,1,43,110,43.0,0.489583,Eighth,G2
246,Right,0,74,110,43.0,0.239583,Sixteenth,D5
247,Right,0,72,110,43.25,0.239583,Sixteenth,C5
249,Left,1,55,110,43.5,0.489583,Eighth,G3
248,Right,0,71,110,43.5,0.239583,Sixteenth,B4
250,Right,0,69,110,43.75,0.239583,Sixteenth,A4
252,Left,1,55,110,44.0,0.489583,Eighth,G3
251,Right,0,67,110,44.0,0.239583,Sixteenth,G4
253,Right,0,65,110,44.25,0.239583,Sixteenth,F4
255,Left,1,55,110,44.5,0.489583,Eighth,G3
254,Right,0,64,110,44.5,0.239583,Sixteenth,E4
256,Right,0,62,110,44.75,0.239583,Sixteenth,D4
258,Right,0,60,110,45.0,0.489583,Eighth,C4
257,Left,1,48,110,45.0,1.989583,Eighth,C3_C2
262,Left,1,48,80,45.5,0.489583,Eighth,C3
260,Right,0,52,80,45.5,0.489583,Eighth,G3_E3
264,Left,1,48,80,46.0,0.489583,Eighth,C3
263,Right,0,55,80,46.0,0.489583,Eighth,G3_E3
268,Left,1,43,80,46.5,0.489583,Eighth,G2
266,Right,0,60,80,46.5,0.489583,Eighth,E3_C4
271,Right,0,52,80,47.0,0.489583,Eighth,G3_E3
269,Left,1,36,80,47.0,1.989583,Half,C3_C2
275,Left,1,48,80,47.5,0.489583,Eighth,C3
273,Right,0,52,80,47.5,0.489583,Eighth,G3_E3
276,Right,0,55,80,48.0,0.489583,Eighth,G3_E3
278,Left,1,48,80,48.0,0.489583,Eighth,C3
279,Right,0,60,80,48.5,0.489583,Eighth,E3_C4
281,Left,1,43,80,48.5,0.489583,Eighth,G2
282,Right,0,53,80,49.0,0.489583,Eighth,G3_F3
283,Left,1,50,80,49.0,3.989583,Eighth,D3_C2
286,Right,0,53,80,49.5,0.489583,Eighth,F3_D4
287,Left,1,48,80,49.5,0.489583,Eighth,C3
289,Right,0,53,80,50.0,0.489583,Eighth,F3_D4
290,Left,1,47,80,50.0,0.489583,Eighth,B2
294,Left,1,45,80,50.5,0.489583,Eighth,A2
292,Right,0,62,80,50.5,0.489583,Eighth,F3_D4
297,Left,1,43,80,51.0,0.489583,Eighth,G2
295,Right,0,62,80,51.0,0.489583,Eighth,F3_D4
298,Right,0,62,80,51.5,0.489583,Eighth,F3_D4
300,Left,1,45,80,51.5,0.489583,Eighth,A2
301,Right,0,62,80,52.0,0.239583,Sixteenth,F3_D4
303,Left,1,47,80,52.0,0.489583,Eighth,B2
304,Right,0,64,80,52.25,0.239583,Sixteenth,E4
306,Right,0,53,80,52.5,0.239583,Sixteenth,F3_D4
305,Left,1,43,80,52.5,0.489583,Eighth,G2
308,Right,0,64,80,52.75,0.239583,Sixteenth,E4
309,Left,1,36,80,53.0,1.989583,Half,C3_C2
311,Right,0,60,80,53.0,0.489583,Eighth,C4
312,Right,0,52,80,53.5,0.489583,Eighth,G3_E3
313,Left,1,48,80,53.5,0.489583,Eighth,C3
315,Right,0,55,80,54.0,0.489583,Eighth,G3_E3
316,Left,1,48,80,54.0,0.489583,Eighth,C3
319,Left,1,43,80,54.5,0.489583,Eighth,G2
318,Right,0,60,80,54.5,0.489583,Eighth,E3_C4
321,Left,1,36,80,55.0,1.989583,Half,C3_C2
323,Right,0,55,80,55.0,0.489583,Eighth,G3_E3
325,Right,0,52,80,55.5,0.489583,Eighth,G3_E3
326,Left,1,48,80,55.5,0.489583,Eighth,C3
328,Right,0,52,80,56.0,0.489583,Eighth,G3_E3
329,Left,1,48,80,56.0,0.489583,Eighth,C3
331,Left,1,43,80,56.5,0.489583,Eighth,G2
332,Right,0,60,80,56.5,0.489583,Eighth,E3_C4
334,Right,0,55,80,57.0,0.489583,Eighth,G3_F3
336,Left,1,36,80,57.0,3.989583,Whole,D3_C2
339,Left,1,48,80,57.5,0.489583,Eighth,C3
338,Right,0,53,80,57.5,0.489583,Eighth,F3_D4
341,Left,1,47,80,58.0,0.489583,Eighth,B2
342,Right,0,53,80,58.0,0.489583,Eighth,F3_D4
344,Left,1,45,80,58.5,0.489583,Eighth,A2
345,Right,0,62,80,58.5,0.489583,Eighth,F3_D4
347,Right,0,62,80,59.0,0.489583,Eighth,F3_D4
349,Left,1,43,80,59.0,0.489583,Eighth,G2
352,Left,1,45,80,59.5,0.489583,Eighth,A2
350,Right,0,62,80,59.5,0.489583,Eighth,F3_D4
355,Left,1,47,80,60.0,0.489583,Eighth,B2
353,Right,0,62,80,60.0,0.239583,Sixteenth,F3_D4
356,Right,0,64,80,60.25,0.239583,Sixteenth,E4
357,Left,1,43,80,60.5,0.489583,Eighth,G2
358,Right,0,53,80,60.5,0.239583,Sixteenth,F3_D4
360,Right,0,64,80,60.75,0.239583,Sixteenth,E4
362,Left,1,48,80,61.0,0.489583,Eighth,C3_C2
361,Right,0,52,80,61.0,0.489583,Eighth,E3_C4
365,Right,0,55,80,61.5,0.489583,Eighth,G3
366,Left,1,43,80,61.5,0.489583,Eighth,G2
369,Right,0,52,80,62.0,0.489583,Eighth,E3_C4
367,Left,1,48,80,62.0,0.489583,Eighth,C3_C2
371,Right,0,55,80,62.5,0.489583,Eighth,G3
372,Left,1,43,80,62.5,0.489583,Eighth,G2
374,Left,1,48,80,63.0,0.989583,Quarter,C3_C2
373,Right,0,60,80,63.0,0.989583,Quarter,E3_C4
377,Left,1,48,100,64.5,0.489583,Eighth,C3
378,Left,1,53,100,65.0,0.489583,Eighth,F3
379,Left,1,53,100,65.5,0.489583,Eighth,F3
380,Left,1,53,100,66.0,0.489583,Eighth,F3
381,Left,1,48,100,66.5,0.489583,Eighth,C3
382,Left,1,57,100,67.0,0.489583,Eighth,A3
383,Left,1,57,100,67.5,0.489583,Eighth,A3
384,Left,1,57,100,68.0,0.489583,Eighth,A3
385,Left,1,53,100,68.5,0.489583,Eighth,F3
386,Left,1,60,100,69.0,0.489583,Eighth,C4
387,Left,1,60,100,69.5,0.489583,Eighth,C4
388,Left,1,60,100,70.0,0.239583,Sixteenth,C4
389,Left,1,62,100,70.25,0.239583,Sixteenth,D4
390,Left,1,60,100,70.5,0.239583,Sixteenth,C4
391,Left,1,58,100,70.75,0.239583,Sixteenth,A#3
392,Left,1,57,100,71.0,0.489583,Eighth,A3
393,Left,1,57,100,71.5,0.489583,Eighth,A3
394,Left,1,57,100,72.0,0.239583,Sixteenth,A3
395,Left,1,58,100,72.25,0.239583,Sixteenth,A#3
397,Left,1,57,100,72.5,0.239583,Sixteenth,A3
396,Right,0,60,100,72.5,0.489583,Eighth,C4
398,Left,1,55,100,72.75,0.239583,Sixteenth,G3
399,Left,1,57,100,73.0,0.489583,Eighth,A3
400,Right,0,65,100,73.0,0.489583,Eighth,F4
402,Right,0,65,100,73.5,0.489583,Eighth,F4
401,Left,1,60,100,73.5,0.239583,Sixteenth,C4
403,Left,1,58,100,73.75,0.239583,Sixteenth,A#3
405,Right,0,65,100,74.0,0.489583,Eighth,F4
404,Left,1,57,100,74.0,0.489583,Eighth,A3
407,Left,1,55,100,74.5,0.489583,Eighth,G3
406,Right,0,60,100,74.5,0.489583,Eighth,C4
408,Left,1,53,100,75.0,0.489583,Eighth,F3
409,Right,0,69,100,75.0,0.489583,Eighth,A4
411,Right,0,69,100,75.5,0.489583,Eighth,A4
410,Left,1,52,100,75.5,0.489583,Eighth,E3
412,Right,0,69,100,76.0,0.489583,Eighth,A4
413,Left,1,53,100,76.0,0.489583,Eighth,F3
414,Left,1,50,100,76.5,0.489583,Eighth,D3
415,Right,0,65,100,76.5,0.489583,Eighth,F4
417,Left,1,52,100,77.0,0.489583,Eighth,E3
416,Right,0,72,100,77.0,0.489583,Eighth,C5
419,Right,0,72,100,77.5,0.489583,Eighth,C5
418,Left,1,48,100,77.5,0.489583,Eighth,C3
421,Left,1,50,100,78.0,0.489583,Eighth,D3
420,Right,0,72,100,78.0,0.239583,Sixteenth,C5
422,Right,0,74,100,78.25,0.239583,Sixteenth,D5
424,Right,0,72,100,78.5,0.239583,Sixteenth,C5
423,Left,1,52,100,78.5,0.489583,Eighth,E3
425,Right,0,70,100,78.75,0.239583,Sixteenth,A#4
426,Right,0,69,100,79.0,0.489583,Eighth,A4
427,Left,1,53,100,79.0,0.489583,Eighth,F3
429,Left,1,55,100,79.5,0.489583,Eighth,G3
428,Right,0,69,100,79.5,0.489583,Eighth,A4
430,Left,1,57,100,80.0,0.489583,Eighth,A3
431,Right,0,67,100,80.0,0.239583,Sixteenth,G4
432,Right,0,69,100,80.25,0.239583,Sixteenth,A4
433,Right,0,67,100,80.5,0.489583,Eighth,G4
434,Left,1,58,100,80.5,0.489583,Eighth,A#3
435,Right,0,65,100,80.75,0.239583,Sixteenth,F4
436,Left,1,64,100,81.0,0.489583,Eighth,E4_C4
438,Right,0,72,100,81.0,0.489583,Eighth,C5
439,Right,0,72,100,81.5,0.489583,Eighth,C5
440,Left,1,62,100,81.5,0.489583,Eighth,F4_D4
444,Right,0,72,100,82.0,0.489583,Eighth,C5
442,Left,1,64,100,82.0,0.489583,Eighth,G4_E4
447,Right,0,67,100,82.5,0.489583,Eighth,G4
445,Left,1,62,100,82.5,0.489583,Eighth,F4_D4
450,Right,0,76,100,83.0,0.489583,Eighth,E5
448,Left,1,60,100,83.0,0.489583,Eighth,E4_C4
451,Left,1,59,100,83.5,0.489583,Eighth,D4_B3
452,Right,0,76,100,83.5,0.489583,Eighth,E5
454,Left,1,64,100,84.0,0.489583,Eighth,E4_C4
456,Right,0,76,100,84.0,0.489583,Eighth,E5
457,Left,1,60,100,84.5,0.489583,Eighth,C4_A3
459,Right,0,72,100,84.5,0.489583,Eighth,C5
460,Left,1,62,100,85.0,0.489583,Eighth,D4_B3
462,Right,0,79,100,85.0,0.489583,Eighth,G5
464,Left,1,55,100,85.5,0.489583,Eighth,G3_B3
463,Right,0,79,100,85.5,0.489583,Eighth,G5
468,Right,0,79,100,86.0,0.239583,Sixteenth,G5
466,Left,1,57,100,86.0,0.489583,Eighth,C4_A3
469,Right,0,81,100,86.25,0.239583,Sixteenth,A5
471,Right,0,79,100,86.5,0.239583,Sixteenth,G5
470,Left,1,59,100,86.5,0.489583,Eighth,D4_B3
473,Right,0,77,100,86.75,0.239583,Sixteenth,F5
476,Right,0,76,100,87.0,0.489583,Eighth,E5
474,Left,1,60,100,87.0,0.489583,Eighth,E4_C4
478,Right,0,76,100,87.5,0.489583,Eighth,E5
477,Left,1,62,100,87.5,0.489583,Eighth,F4_D4
481,Right,0,76,100,88.0,0.239583,Sixteenth,E5
480,Left,1,64,100,88.0,0.489583,Eighth,G4_E4
483,Right,0,74,100,88.25,0.239583,Sixteenth,D5
485,Left,1,60,100,88.5,0.489583,Eighth,E4_C4
484,Right,0,76,100,88.5,0.239583,Sixteenth,E5
487,Right,0,72,100,88.75,0.239583,Sixteenth,C5
489,Left,1,61,100,89.0,0.489583,Eighth,E4_C#4
488,Right,0,81,100,89.0,0.489583,Eighth,A5
491,Left,1,57,100,89.5,0.489583,Eighth,C#4_A3
493,Right,0,81,100,89.5,0.489583,Eighth,A5
496,Right,0,81,100,90.0,0.239583,Sixteenth,A5
494,Left,1,62,100,90.0,0.489583,Eighth,D4_B3
497,Right,0,82,100,90.25,0.239583,Sixteenth,A#5
499,Left,1,64,100,90.5,0.489583,Eighth,E4_C#4
498,Right,0,81,100,90.5,0.239583,Sixteenth,A5
501,Right,0,79,100,90.75,0.239583,Sixteenth,G5
503,Left,1,65,100,91.0,0.489583,Eighth,F4_D4
502,Right,0,77,100,91.0,0.489583,Eighth,F5
506,Right,0,77,100,91.5,0.489583,Eighth,F5
505,Left,1,67,100,91.5,0.489583,Eighth,G4_E4
509,Right,0,77,100,92.0,0.239583,Sixteenth,F5
508,Left,1,69,100,92.0,0.489583,Eighth,F4_A4
511,Right,0,76,100,92.25,0.239583,Sixteenth,E5
512,Left,1,62,100,92.5,0.489583,Eighth,F4_D4
513,Right,0,77,100,92.5,0.239583,Sixteenth,F5
515,Right,0,74,100,92.75,0.239583,Sixteenth,D5
516,Left,1,59,100,93.0,0.489583,Eighth,G4_D4_B3
519,Right,0,89,110,93.0,0.489583,Eighth,F6
520,Left,1,59,100,93.5,0.489583,Eighth,G4_D4_B3
523,Right,0,89,100,93.5,0.489583,Eighth,F6
527,Right,0,88,100,94.0,0.239583,Sixteenth,E6
524,Left,1,60,100,94.0,0.489583,Eighth,G4_E4_C4
528,Right,0,87,100,94.25,0.239583,Sixteenth,D#6
529,Right,0,88,100,94.5,0.239583,Sixteenth,E6
530,Right,0,84,100,94.75,0.239583,Sixteenth,C6
531,Right,0,89,110,95.0,0.489583,Eighth,F6
532,Left,1,59,100,95.0,0.489583,Eighth,G4_D4_B3
535,Left,1,62,100,95.5,0.489583,Eighth,G4_D4_B3
537,Right,0,89,100,95.5,0.489583,Eighth,F6
539,Left,1,64,100,96.0,0.489583,Eighth,G4_E4_C4
542,Right,0,88,100,96.0,0.239583,Sixteenth,E6
543,Right,0,87,100,96.25,0.239583,Sixteenth,D#6
544,Right,0,88,100,96.5,0.239583,Sixteenth,E6
545,Right,0,84,100,96.75,0.239583,Sixteenth,C6
546,Right,0,86,100,97.0,0.239583,Sixteenth,D6
547,Left,1,53,100,97.0,0.489583,Eighth,F3_D4_A3
550,Right,0,84,100,97.25,0.239583,Sixteenth,C6
551,Right,0,83,100,97.5,0.239583,Sixteenth,B5
552,Right,0,81,100,97.75,0.239583,Sixteenth,A5
553,Left,1,55,100,98.0,0.489583,Eighth,G3_D4_B3
554,Right,0,79,100,98.0,0.239583,Sixteenth,G5
557,Right,0,77,100,98.25,0.239583,Sixteenth,F5
558,Right,0,76,100,98.5,0.239583,Sixteenth,E5
559,Right,0,74,100,98.75,0.239583,Sixteenth,D5
560,Right,0,72,100,99.0,0.239583,Sixteenth,C5
561,Left,1,60,100,99.0,0.989583,Quarter,G3_E3_C4_C3
565,Right,0,71,100,99.25,0.239583,Sixteenth,B4
566,Right,0,72,100,99.5,0.239583,Sixteenth,C5
567,Right,0,74,100,99.75,0.239583,Sixteenth,D5
568,Right,0,76,100,100.0,0.239583,Sixteenth,E5
569,Right,0,77,100,100.25,0.239583,Sixteenth,F5
570,Right,0,79,100,100.5,0.239583,Sixteenth,G5
571,Right,0,76,100,100.75,0.239583,Sixteenth,E5
573,Left,1,50,100,101.0,0.489583,Eighth,G3_F3_D3_B2
572,Right,0,77,110,101.0,0.239583,Sixteenth,F5
577,Right,0,74,110,101.25,0.239583,Sixteenth,D5
579,Left,1,50,100,101.5,0.489583,Eighth,G3_F3_D3_B2
578,Right,0,77,110,101.5,0.239583,Sixteenth,F5
583,Right,0,74,110,101.75,0.239583,Sixteenth,D5
585,Right,0,76,100,102.0,0.239583,Sixteenth,E5
584,Left,1,48,100,102.0,0.489583,Eighth,G3_E3_C3
588,Right,0,75,100,102.25,0.239583,Sixteenth,D#5
589,Right,0,76,100,102.5,0.239583,Sixteenth,E5
590,Right,0,72,100,102.75,0.239583,Sixteenth,C5
591,Right,0,77,110,103.0,0.239583,Sixteenth,F5
592,Left,1,53,100,103.0,0.489583,Eighth,G3_F3_D3_B2
596,Right,0,74,110,103.25,0.239583,Sixteenth,D5
600,Right,0,77,110,103.5,0.239583,Sixteenth,F5
597,Left,1,50,100,103.5,0.489583,Eighth,G3_F3_D3_B2
602,Right,0,74,110,103.75,0.239583,Sixteenth,D5
605,Right,0,76,100,104.0,0.239583,Sixteenth,E5
603,Left,1,52,100,104.0,0.489583,Eighth,G3_E3_C3
607,Right,0,75,100,104.25,0.239583,Sixteenth,D#5
608,Right,0,76,100,104.5,0.239583,Sixteenth,E5
609,Right,0,72,100,104.75,0.239583,Sixteenth,C5
610,Left,1,41,110,105.0,0.489583,Eighth,F2
611,Right,0,81,110,105.0,0.239583,Sixteenth,A5
612,Right,0,80,110,105.25,0.239583,Sixteenth,G#5
613,Left,1,53,110,105.5,0.489583,Eighth,F3
614,Right,0,81,110,105.5,0.239583,Sixteenth,A5
615,Right,0,80,110,105.75,0.239583,Sixteenth,G#5
616,Left,1,53,110,106.0,0.489583,Eighth,F3
617,Right,0,81,110,106.0,0.239583,Sixteenth,A5
618,Right,0,79,110,106.25,0.239583,Sixteenth,G5
619,Right,0,77,110,106.5,0.239583,Sixteenth,F5
620,Left,1,53,110,106.5,0.489583,Eighth,F3
621,Right,0,76,110,106.75,0.239583,Sixteenth,E5
623,Right,0,74,110,107.0,0.239583,Sixteenth,D5
622,Left,1,43,110,107.0,0.489583,Eighth,G2
624,Right,0,72,110,107.25,0.239583,Sixteenth,C5
625,Left,1,55,110,107.5,0.489583,Eighth,G3
626,Right,0,71,110,107.5,0.239583,Sixteenth,B4
627,Right,0,69,110,107.75,0.239583,Sixteenth,A4
628,Left,1,55,110,108.0,0.489583,Eighth,G3
629,Right,0,67,110,108.0,0.239583,Sixteenth,G4
630,Right,0,65,110,108.25,0.239583,Sixteenth,F4
631,Left,1,55,110,108.5,0.489583,Eighth,G3
632,Right,0,64,110,108.5,0.239583,Sixteenth,E4
633,Right,0,62,110,108.75,0.239583,Sixteenth,D4
634,Left,1,36,110,109.0,1.989583,Half,C3_C2
635,Right,0,60,110,109.0,0.489583,Eighth,C4
637,Left,1,48,80,109.5,0.489583,Eighth,C3
638,Right,0,55,80,109.5,0.489583,Eighth,G3_E3
641,Left,1,48,80,110.0,0.489583,Eighth,C3
640,Right,0,55,80,110.0,0.489583,Eighth,G3_E3
643,Right,0,52,80,110.5,0.489583,Eighth,E3_C4
644,Left,1,43,80,110.5,0.489583,Eighth,G2
647,Left,1,36,80,111.0,1.989583,Half,C3_C2
646,Right,0,55,80,111.0,0.489583,Eighth,G3_E3
650,Left,1,48,80,111.5,0.489583,Eighth,C3
651,Right,0,52,80,111.5,0.489583,Eighth,G3_E3
653,Left,1,48,80,112.0,0.489583,Eighth,C3
654,Right,0,52,80,112.0,0.489583,Eighth,G3_E3
658,Left,1,43,80,112.5,0.489583,Eighth,G2
656,Right,0,60,80,112.5,0.489583,Eighth,E3_C4
660,Right,0,55,80,113.0,0.489583,Eighth,G3_F3
659,Left,1,36,80,113.0,3.989583,Whole,D3_C2
664,Left,1,48,80,113.5,0.489583,Eighth,C3
663,Right,0,53,80,113.5,0.489583,Eighth,F3_D4
668,Left,1,47,80,114.0,0.489583,Eighth,B2
666,Right,0,53,80,114.0,0.489583,Eighth,F3_D4
669,Right,0,62,80,114.5,0.489583,Eighth,F3_D4
671,Left,1,45,80,114.5,0.489583,Eighth,A2
672,Right,0,53,80,115.0,0.489583,Eighth,F3_D4
674,Left,1,43,80,115.0,0.489583,Eighth,G2
675,Right,0,53,80,115.5,0.489583,Eighth,F3_D4
677,Left,1,45,80,115.5,0.489583,Eighth,A2
678,Right,0,53,80,116.0,0.239583,Sixteenth,F3_D4
680,Left,1,47,80,116.0,0.489583,Eighth,B2
681,Right,0,64,80,116.25,0.239583,Sixteenth,E4
684,Left,1,43,80,116.5,0.489583,Eighth,G2
682,Right,0,53,80,116.5,0.239583,Sixteenth,F3_D4
685,Right,0,64,80,116.75,0.239583,Sixteenth,E4
686,Left,1,36,80,117.0,1.989583,Half,C3_C2
688,Right,0,60,80,117.0,0.489583,Eighth,C4
690,Right,0,55,80,117.5,0.489583,Eighth,G3_E3
689,Left,1,48,80,117.5,0.489583,Eighth,C3
692,Right,0,52,80,118.0,0.489583,Eighth,G3_E3
694,Left,1,48,80,118.0,0.489583,Eighth,C3
695,Right,0,52,80,118.5,0.489583,Eighth,E3_C4
696,Left,1,43,80,118.5,0.489583,Eighth,G2
698,Right,0,52,80,119.0,0.489583,Eighth,G3_E3
700,Left,1,48,80,119.0,1.989583,Eighth,C3_C2
704,Left,1,48,80,119.5,0.489583,Eighth,C3
702,Right,0,55,80,119.5,0.489583,Eighth,G3_E3
705,Right,0,52,80,120.0,0.489583,Eighth,G3_E3
706,Left,1,48,80,120.0,0.489583,Eighth,C3
708,Right,0,60,80,120.5,0.489583,Eighth,E3_C4
709,Left,1,43,80,120.5,0.489583,Eighth,G2
713,Left,1,36,80,121.0,3.989583,Whole,D3_C2
711,Right,0,53,80,121.0,0.489583,Eighth,G3_F3
717,Left,1,48,80,121.5,0.489583,Eighth,C3
715,Right,0,62,80,121.5,0.489583,Eighth,F3_D4
718,Left,1,47,80,122.0,0.489583,Eighth,B2
719,Right,0,62,80,122.0,0.489583,Eighth,F3_D4
722,Left,1,45,80,122.5,0.489583,Eighth,A2
721,Right,0,53,80,122.5,0.489583,Eighth,F3_D4
724,Left,1,43,80,123.0,0.489583,Eighth,G2
725,Right,0,53,80,123.0,0.489583,Eighth,F3_D4
727,Right,0,62,80,123.5,0.489583,Eighth,F3_D4
728,Left,1,45,80,123.5,0.489583,Eighth,A2
731,Right,0,62,80,124.0,0.239583,Sixteenth,F3_D4
730,Left,1,47,80,124.0,0.489583,Eighth,B2
733,Right,0,64,80,124.25,0.239583,Sixteenth,E4
734,Left,1,43,80,124.5,0.489583,Eighth,G2
735,Right,0,53,80,124.5,0.239583,Sixteenth,F3_D4
737,Right,0,64,80,124.75,0.239583,Sixteenth,E4
740,Left,1,48,80,125.0,0.489583,Eighth,C3_C2
738,Right,0,60,80,125.0,0.489583,Eighth,E3_C4
743,Left,1,43,80,125.5,0.489583,Eighth,G2
742,Right,0,55,80,125.5,0.489583,Eighth,G3
746,Left,1,36,80,126.0,0.489583,Eighth,C3_C2
744,Right,0,60,80,126.0,0.489583,Eighth,E3_C4
748,Right,0,55,80,126.5,0.489583,Eighth,G3
749,Left,1,43,80,126.5,0.489583,Eighth,G2
751,Right,0,52,80,127.0,0.989583,Quarter,E3_C4
750,Left,1,36,80,127.0,0.989583,Quarter,C3_C2
754,Right,0,51,110,128.5,0.489583,Eighth,D#3
755,Left,1,39,110,128.5,0.489583,Eighth,D#2
757,Left,1,44,110,129.0,0.489583,Eighth,G#2
756,Right,0,56,110,129.0,0.489583,Eighth,G#3
758,Right,0,56,110,129.5,0.489583,Eighth,G#3
759,Left,1,44,110,129.5,0.489583,Eighth,G#2
761,Left,1,46,110,130.0,0.114583,ThirtySecond,A#2
760,Right,0,58,110,130.0,0.114583,ThirtySecond,A#3
762,Right,0,56,110,130.125,0.114583,ThirtySecond,G#3
763,Left,1,44,110,130.125,0.114583,ThirtySecond,G#2
765,Left,1,43,110,130.25,0.239583,Sixteenth,G2
764,Right,0,55,110,130.25,0.239583,Sixteenth,G3
766,Left,1,44,110,130.5,0.239583,Sixteenth,G#2
767,Right,0,56,110,130.5,0.239583,Sixteenth,G#3
768,Right,0,58,110,130.75,0.239583,Sixteenth,A#3
769,Left,1,46,110,130.75,0.239583,Sixteenth,A#2
770,Right,0,60,110,131.0,0.489583,Eighth,C4
771,Left,1,48,110,131.0,0.489583,Eighth,C3
773,Left,1,48,110,131.5,0.489583,Eighth,C3
772,Right,0,60,110,131.5,0.489583,Eighth,C4
774,Right,0,61,110,132.0,0.114583,ThirtySecond,C#4
775,Left,1,49,110,132.0,0.114583,ThirtySecond,C#3
776,Right,0,60,110,132.125,0.114583,ThirtySecond,C4
777,Left,1,48,110,132.125,0.114583,ThirtySecond,C3
779,Right,0,59,110,132.25,0.239583,Sixteenth,B3
778,Left,1,47,110,132.25,0.239583,Sixteenth,B2
781,Right,0,60,110,132.5,0.239583,Sixteenth,C4
780,Left,1,48,110,132.5,0.239583,Sixteenth,C3
783,Right,0,61,110,132.75,0.239583,Sixteenth,C#4
782,Left,1,49,110,132.75,0.239583,Sixteenth,C#3
784,Right,0,63,110,133.0,0.489583,Eighth,D#4
785,Left,1,51,110,133.0,0.489583,Eighth,D#3
786,Left,1,51,110,133.5,0.489583,Eighth,D#3
787,Right,0,63,110,133.5,0.489583,Eighth,D#4
789,Left,1,53,110,134.0,0.114583,ThirtySecond,F3
788,Right,0,65,110,134.0,0.114583,ThirtySecond,F4
790,Left,1,51,110,134.125,0.114583,ThirtySecond,D#3
791,Right,0,63,110,134.125,0.114583,ThirtySecond,D#4
793,Left,1,50,110,134.25,0.239583,Sixteenth,D3
792,Right,0,62,110,134.25,0.239583,Sixteenth,D4
794,Right,0,63,110,134.5,0.239583,Sixteenth,D#4
795,Left,1,51,110,134.5,0.239583,Sixteenth,D#3
797,Right,0,65,110,134.75,0.239583,Sixteenth,F4
796,Left,1,53,110,134.75,0.239583,Sixteenth,F3
799,Right,0,67,110,135.0,0.489583,Eighth,G4
798,Left,1,55,110,135.0,0.489583,Eighth,G3
800,Right,0,67,110,135.5,0.489583,Eighth,G4
801,Left,1,55,110,135.5,0.489583,Eighth,G3
803,Left,1,55,110,136.0,0.239583,Sixteenth,G3
802,Right,0,67,110,136.0,0.239583,Sixteenth,G4
804,Right,0,63,110,136.25,0.239583,Sixteenth,D#4
805,Left,1,51,110,136.25,0.239583,Sixteenth,D#3
806,Right,0,65,110,136.5,0.239583,Sixteenth,F4
807,Left,1,53,110,136.5,0.239583,Sixteenth,F3
808,Left,1,55,110,136.75,0.239583,Sixteenth,G3
809,Right,0,67,110,136.75,0.239583,Sixteenth,G4
811,Left,1,56,110,137.0,0.239583,Sixteenth,G#3
810,Right,0,68,110,137.0,0.489583,Eighth,G#4
812,Left,1,60,100,137.25,0.239583,Sixteenth,C4
813,Left,1,56,110,137.5,0.239583,Sixteenth,G#3
814,Right,0,68,100,137.5,0.489583,Eighth,G#4
815,Left,1,60,100,137.75,0.239583,Sixteenth,C4
817,Right,0,68,100,138.0,0.489583,Eighth,G#4
816,Left,1,56,110,138.0,0.239583,Sixteenth,G#3
818,Left,1,60,100,138.25,0.239583,Sixteenth,C4
819,Left,1,56,110,138.5,0.239583,Sixteenth,G#3
820,Right,0,63,100,138.5,0.489583,Eighth,D#4
821,Left,1,60,100,138.75,0.239583,Sixteenth,C4
822,Left,1,56,100,139.0,0.239583,Sixteenth,G#3
823,Right,0,72,100,139.0,0.489583,Eighth,C5
824,Left,1,60,100,139.25,0.239583,Sixteenth,C4
826,Left,1,56,100,139.5,0.239583,Sixteenth,G#3
825,Right,0,72,100,139.5,0.489583,Eighth,C5
827,Left,1,60,100,139.75,0.239583,Sixteenth,C4
829,Left,1,56,100,140.0,0.239583,Sixteenth,G#3
828,Right,0,72,100,140.0,0.489583,Eighth,C5
830,Left,1,60,100,140.25,0.239583,Sixteenth,C4
831,Right,0,68,100,140.5,0.489583,Eighth,G#4
832,Left,1,56,100,140.5,0.239583,Sixteenth,G#3
833,Left,1,60,100,140.75,0.239583,Sixteenth,C4
835,Left,1,56,100,141.0,0.239583,Sixteenth,G#3
834,Right,0,75,100,141.0,0.489583,Eighth,D#5
836,Left,1,58,100,141.25,0.239583,Sixteenth,A#3
837,Right,0,75,100,141.5,0.489583,Eighth,D#5
838,Left,1,56,100,141.5,0.239583,Sixteenth,G#3
839,Left,1,58,100,141.75,0.239583,Sixteenth,A#3
841,Left,1,56,100,142.0,0.239583,Sixteenth,G#3
840,Right,0,75,100,142.0,0.239583,Sixteenth,D#5
843,Left,1,58,100,142.25,0.239583,Sixteenth,A#3
842,Right,0,77,100,142.25,0.239583,Sixteenth,F5
844,Right,0,75,100,142.5,0.239583,Sixteenth,D#5
845,Left,1,56,100,142.5,0.239583,Sixteenth,G#3
847,Right,0,74,100,142.75,0.239583,Sixteenth,D5
846,Left,1,58,100,142.75,0.239583,Sixteenth,A#3
850,Right,0,75,100,143.0,0.489583,Eighth,D#5
848,Left,1,51,100,143.0,0.239583,Sixteenth,G3_D#3
851,Left,1,58,100,143.25,0.239583,Sixteenth,A#3
854,Right,0,75,100,143.5,0.489583,Eighth,D#5
852,Left,1,51,100,143.5,0.239583,Sixteenth,G3_D#3
855,Left,1,58,100,143.75,0.239583,Sixteenth,A#3
856,Left,1,55,100,144.0,0.239583,Sixteenth,G3_D#3
858,Right,0,75,100,144.0,0.239583,Sixteenth,D#5
859,Right,0,77,100,144.25,0.239583,Sixteenth,F5
860,Left,1,58,100,144.25,0.239583,Sixteenth,A#3
861,Right,0,75,100,144.5,0.239583,Sixteenth,D#5
862,Left,1,55,100,144.5,0.239583,Sixteenth,G3_D#3
865,Left,1,58,100,144.75,0.239583,Sixteenth,A#3
864,Right,0,73,100,144.75,0.239583,Sixteenth,C#5
867,Right,0,80,100,145.0,0.489583,Eighth,G#5_C5
866,Left,1,56,100,145.0,0.989583,Quarter,G#3
869,Right,0,80,100,145.5,0.489583,Eighth,G#5
870,Right,0,80,100,146.0,0.489583,Eighth,G#5
872,Right,0,75,100,146.5,0.489583,Eighth,D#5
871,Left,1,60,100,146.5,0.489583,Eighth,C4
873,Left,1,68,100,147.0,0.489583,Eighth,G#4
874,Right,0,84,100,147.0,0.489583,Eighth,C6
875,Right,0,84,100,147.5,0.489583,Eighth,C6
876,Left,1,68,100,147.5,0.489583,Eighth,G#4
878,Right,0,84,100,148.0,0.489583,Eighth,C6
877,Left,1,68,100,148.0,0.489583,Eighth,G#4
879,Right,0,80,100,148.5,0.489583,Eighth,G#5
880,Left,1,63,100,148.5,0.489583,Eighth,D#4
882,Right,0,87,100,149.0,0.489583,Eighth,D#6
881,Left,1,72,100,149.0,0.489583,Eighth,C5
884,Right,0,87,100,149.5,0.489583,Eighth,D#6
883,Left,1,72,100,149.5,0.489583,Eighth,C5
885,Right,0,87,100,150.0,0.239583,Sixteenth,D#6
886,Left,1,72,100,150.0,0.239583,Sixteenth,C5
888,Right,0,89,100,150.25,0.239583,Sixteenth,F6
887,Left,1,73,100,150.25,0.239583,Sixteenth,C#5
889,Right,0,87,100,150.5,0.239583,Sixteenth,D#6
890,Left,1,72,100,150.5,0.239583,Sixteenth,C5
891,Left,1,70,100,150.75,0.239583,Sixteenth,A#4
892,Right,0,85,100,150.75,0.239583,Sixteenth,C#6
894,Right,0,84,100,151.0,0.489583,Eighth,C6
893,Left,1,69,100,151.0,0.489583,Eighth,A4
895,Right,0,84,100,151.5,0.489583,Eighth,C6
896,Left,1,75,100,151.5,0.489583,Eighth,D#5
897,Right,0,84,100,152.0,0.239583,Sixteenth,C6
898,Left,1,75,100,152.0,0.239583,Sixteenth,D#5
900,Right,0,85,100,152.25,0.239583,Sixteenth,C#6
899,Left,1,77,100,152.25,0.239583,Sixteenth,F5
901,Left,1,75,100,152.5,0.239583,Sixteenth,D#5
902,Right,0,84,100,152.5,0.239583,Sixteenth,C6
904,Right,0,82,100,152.75,0.239583,Sixteenth,A#5
903,Left,1,73,100,152.75,0.239583,Sixteenth,C#5
906,Right,0,75,110,153.0,0.489583,Eighth,D#5_A5
905,Left,1,72,110,153.0,0.489583,Eighth,C5
909,Left,1,72,110,153.5,0.489583,Eighth,C5
908,Right,0,75,110,153.5,0.489583,Eighth,D#5_A5
911,Right,0,75,110,154.0,0.489583,Sixteenth,D#5_A5
912,Left,1,72,110,154.0,0.239583,Sixteenth,C5
915,Left,1,73,110,154.25,0.239583,Sixteenth,C#5
914,Right,0,77,110,154.25,0.239583,Sixteenth,F5
917,Right,0,82,110,154.5,0.489583,Eighth,D#5_A#5
916,Left,1,72,110,154.5,0.239583,Sixteenth,C5
919,Left,1,70,110,154.75,0.239583,Sixteenth,A#4
920,Right,0,73,110,154.75,0.239583,Sixteenth,C#5
921,Right,0,84,110,155.0,0.989583,Quarter,C6_C5
923,Left,1,69,110,155.0,0.489583,Eighth,A4
924,Left,1,69,110,155.5,0.489583,Eighth,A4
925,Left,1,69,110,156.0,0.239583,Sixteenth,A4
926,Left,1,70,110,156.25,0.239583,Sixteenth,A#4
927,Left,1,69,110,156.5,0.239583,Sixteenth,A4
928,Left,1,65,110,156.75,0.239583,Sixteenth,F4
929,Right,0,85,110,157.0,0.489583,Eighth,C#6
930,Left,1,70,110,157.0,0.989583,Quarter,A#4
931,Right,0,85,110,157.5,0.489583,Eighth,C#6
932,Right,0,85,110,158.0,0.239583,Sixteenth,C#6
933,Right,0,87,110,158.25,0.239583,Sixteenth,D#6
934,Right,0,85,110,158.5,0.239583,Sixteenth,C#6
935,Right,0,84,110,158.75,0.239583,Sixteenth,C6
937,Right,0,82,110,159.0,0.489583,Eighth,A#5
936,Left,1,73,110,159.0,0.489583,Eighth,C#5
939,Left,1,73,110,159.5,0.489583,Eighth,C#5
938,Right,0,82,110,159.5,0.489583,Eighth,A#5
940,Left,1,73,110,160.0,0.239583,Sixteenth,C#5
941,Right,0,82,110,160.0,0.239583,Sixteenth,A#5
943,Right,0,84,110,160.25,0.239583,Sixteenth,C6
942,Left,1,75,110,160.25,0.239583,Sixteenth,D#5
944,Left,1,73,110,160.5,0.239583,Sixteenth,C#5
945,Right,0,82,110,160.5,0.239583,Sixteenth,A#5
947,Left,1,72,110,160.75,0.239583,Sixteenth,C5
946,Right,0,80,110,160.75,0.239583,Sixteenth,G#5
948,Right,0,79,110,161.0,0.489583,Eighth,G5_E5
950,Left,1,70,110,161.0,0.489583,Eighth,A#4
951,Right,0,76,110,161.5,0.489583,Eighth,G5_E5
953,Left,1,70,110,161.5,0.489583,Eighth,A#4
956,Left,1,70,110,162.0,0.239583,Sixteenth,A#4
954,Right,0,79,110,162.0,0.489583,Eighth,G5_E5
957,Left,1,72,110,162.25,0.239583,Sixteenth,C5
958,Right,0,80,110,162.5,0.489583,Eighth,G#5_F5
959,Left,1,70,110,162.5,0.239583,Sixteenth,A#4
961,Left,1,68,110,162.75,0.239583,Sixteenth,G#4
962,Right,0,82,110,163.0,1.989583,Half,G5_A#5
964,Left,1,67,110,163.0,0.239583,Sixteenth,G4
965,Left,1,68,110,163.25,0.239583,Sixteenth,G#4
966,Left,1,67,110,163.5,0.239583,Sixteenth,G4
967,Left,1,65,110,163.75,0.239583,Sixteenth,F4
968,Left,1,64,110,164.0,0.239583,Sixteenth,E4
969,Left,1,62,110,164.25,0.239583,Sixteenth,D4
970,Left,1,64,110,164.5,0.239583,Sixteenth,E4
971,Left,1,60,110,164.75,0.239583,Sixteenth,C4
973,Left,1,65,110,165.0,1.989583,Half,F4
972,Right,0,80,110,165.0,0.489583,Eighth,G#5
974,Right,0,80,110,165.5,0.489583,Eighth,G#5
975,Right,0,80,110,166.0,0.239583,Sixteenth,G#5
976,Right,0,79,110,166.25,0.239583,Sixteenth,G5
977,Right,0,80,110,166.5,0.239583,Sixteenth,G#5
978,Right,0,77,110,166.75,0.239583,Sixteenth,F5
980,Left,1,67,110,167.0,1.989583,Half,G4
979,Right,0,77,110,167.0,1.989583,Eighth,F5_B5
982,Right,0,77,110,167.5,0.489583,Eighth,F5
983,Right,0,77,110,168.0,0.239583,Sixteenth,F5
984,Right,0,75,110,168.25,0.239583,Sixteenth,D#5
985,Right,0,77,110,168.5,0.239583,Sixteenth,F5
986,Right,0,74,110,168.75,0.239583,Sixteenth,D5
987,Left,1,60,110,169.0,1.989583,Half,C4
988,Right,0,75,110,169.0,0.989583,Quarter,D#5_C6
990,Right,0,84,110,169.5,0.489583,Eighth,C6
991,Right,0,84,110,170.0,0.239583,Sixteenth,C6
992,Right,0,83,110,170.25,0.239583,Sixteenth,B5
993,Right,0,84,110,170.5,0.239583,Sixteenth,C6
994,Right,0,87,110,170.75,0.239583,Sixteenth,D#6
995,Left,1,62,110,171.0,1.989583,Half,D4
996,Right,0,78,110,171.0,1.989583,Half,F#5_C5
998,Right,0,72,110,171.5,0.489583,Eighth,C5
999,Right,0,72,110,172.0,0.239583,Sixteenth,C5
1000,Right,0,71,110,172.25,0.239583,Sixteenth,B4
1001,Right,0,72,110,172.5,0.239583,Sixteenth,C5
1002,Right,0,69,110,172.75,0.239583,Sixteenth,A4
1004,Left,1,55,110,173.0,1.989583,Half,G3
1003,Right,0,79,110,173.0,0.989583,Quarter,G5_A#4
1006,Right,0,70,110,173.5,0.489583,Eighth,A#4
1007,Right,0,70,110,174.0,0.239583,Sixteenth,A#4
1008,Right,0,69,110,174.25,0.239583,Sixteenth,A4
1009,Right,0,70,110,174.5,0.239583,Sixteenth,A#4
1010,Right,0,67,110,174.75,0.239583,Sixteenth,G4
1012,Left,1,62,110,175.0,1.989583,Half,D4_D3
1011,Right,0,78,110,175.0,1.989583,Eighth,F#5_C5
1015,Right,0,78,110,175.5,0.489583,Eighth,F#5
1016,Right,0,78,110,176.0,0.239583,Sixteenth,F#5
1017,Right,0,76,110,176.25,0.239583,Sixteenth,E5
1018,Right,0,78,110,176.5,0.239583,Sixteenth,F#5
1019,Right,0,74,110,176.75,0.239583,Sixteenth,D5
1020,Right,0,79,110,177.0,0.989583,Eighth,G5_A#4
1022,Left,1,55,110,177.0,1.989583,Half,G3_G2
1024,Right,0,79,110,177.5,0.489583,Eighth,G5
1025,Right,0,79,110,178.0,0.239583,Sixteenth,G5
1026,Right,0,78,110,178.25,0.239583,Sixteenth,F#5
1027,Right,0,79,110,178.5,0.239583,Sixteenth,G5
1028,Right,0,82,110,178.75,0.239583,Sixteenth,A#5
1031,Left,1,57,110,179.0,1.989583,Half,A3_A2
1029,Right,0,73,110,179.0,1.989583,Half,G4_C#5
1033,Right,0,67,110,179.5,0.489583,Eighth,G4
1034,Right,0,67,110,180.0,0.239583,Sixteenth,G4
1035,Right,0,65,110,180.25,0.239583,Sixteenth,F4
1036,Right,0,67,110,180.5,0.239583,Sixteenth,G4
1037,Right,0,64,110,180.75,0.239583,Sixteenth,E4
1038,Right,0,74,110,181.0,0.989583,Quarter,F4_D5
1040,Left,1,50,110,181.0,1.989583,Half,D3_D2
1042,Right,0,65,110,181.5,0.489583,Eighth,F4
1043,Right,0,65,110,182.0,0.239583,Sixteenth,F4
1044,Right,0,64,110,182.25,0.239583,Sixteenth,E4
1045,Right,0,65,110,182.5,0.239583,Sixteenth,F4
1046,Right,0,62,110,182.75,0.239583,Sixteenth,D4
1049,Right,0,67,110,183.0,1.989583,Half,G4_C#5
1047,Left,1,45,110,183.0,1.989583,Half,A3_A2
1051,Right,0,73,110,183.5,0.489583,Eighth,C#5
1052,Right,0,73,110,184.0,0.239583,Sixteenth,C#5
1053,Right,0,71,110,184.25,0.239583,Sixteenth,B4
1054,Right,0,73,110,184.5,0.239583,Sixteenth,C#5
1055,Right,0,69,110,184.75,0.239583,Sixteenth,A4
1058,Left,1,38,110,185.0,1.989583,Half,D3_D2
1056,Right,0,65,110,185.0,0.989583,Quarter,F4_D5
1060,Right,0,74,110,185.5,0.489583,Eighth,D5
1061,Right,0,74,110,186.0,0.239583,Sixteenth,D5
1062,Right,0,73,110,186.25,0.239583,Sixteenth,C#5
1063,Right,0,74,110,186.5,0.239583,Sixteenth,D5
1064,Right,0,76,110,186.75,0.239583,Sixteenth,E5
1066,Right,0,65,110,187.0,1.989583,Eighth,G#4_F4
1065,Left,1,46,110,187.0,1.989583,Half,A#2_A#1
1069,Right,0,65,110,187.5,0.489583,Eighth,F4
1070,Right,0,65,110,188.0,0.239583,Sixteenth,F4
1071,Right,0,64,110,188.25,0.239583,Sixteenth,E4
1072,Right,0,65,110,188.5,0.239583,Sixteenth,F4
1073,Right,0,62,110,188.75,0.239583,Sixteenth,D4
1074,Right,0,69,110,189.0,1.989583,Half,C#4_A4
1075,Left,1,45,110,189.0,0.489583,Eighth,A2_A1
1078,Right,0,61,110,189.5,0.489583,Eighth,C#4
1079,Left,1,52,110,189.5,0.489583,Eighth,E3
1080,Right,0,61,110,190.0,0.239583,Sixteenth,C#4
1081,Left,1,52,110,190.0,0.239583,Sixteenth,E3
1082,Right,0,59,110,190.25,0.239583,Sixteenth,B3
1083,Left,1,51,110,190.25,0.239583,Sixteenth,D#3
1084,Right,0,61,110,190.5,0.239583,Sixteenth,C#4
1085,Left,1,52,110,190.5,0.239583,Sixteenth,E3
1087,Left,1,49,110,190.75,0.239583,Sixteenth,C#3
1086,Right,0,57,110,190.75,0.239583,Sixteenth,A3
1089,Right,0,62,110,191.0,1.989583,Eighth,G#4_D4
1088,Left,1,53,110,191.0,1.989583,Eighth,F3_A2
1092,Left,1,53,110,191.5,0.489583,Eighth,F3
1093,Right,0,62,110,191.5,0.489583,Eighth,D4
1095,Right,0,62,110,192.0,0.239583,Sixteenth,D4
1094,Left,1,53,110,192.0,0.239583,Sixteenth,F3
1096,Left,1,52,110,192.25,0.239583,Sixteenth,E3
1097,Right,0,61,110,192.25,0.239583,Sixteenth,C#4
1099,Right,0,62,110,192.5,0.239583,Sixteenth,D4
1098,Left,1,53,110,192.5,0.239583,Sixteenth,F3
1100,Left,1,50,110,192.75,0.239583,Sixteenth,D3
1101,Right,0,59,110,192.75,0.239583,Sixteenth,B3
1104,Left,1,52,110,193.0,1.989583,Eighth,E3_A2
1102,Right,0,61,110,193.0,1.989583,Eighth,C#4_A4
1107,Left,1,52,110,193.5,0.489583,Eighth,E3
1106,Right,0,61,110,193.5,0.489583,Eighth,C#4
1109,Left,1,52,110,194.0,0.239583,Sixteenth,E3
1108,Right,0,61,110,194.0,0.239583,Sixteenth,C#4
1111,Left,1,51,110,194.25,0.239583,Sixteenth,D#3
1110,Right,0,59,110,194.25,0.239583,Sixteenth,B3
1112,Right,0,61,110,194.5,0.239583,Sixteenth,C#4
1113,Left,1,52,110,194.5,0.239583,Sixteenth,E3
1114,Left,1,49,110,194.75,0.239583,Sixteenth,C#3
1115,Right,0,57,110,194.75,0.239583,Sixteenth,A3
1116,Left,1,45,110,195.0,1.989583,Half,F3_A2
1118,Right,0,62,110,195.0,1.989583,Eighth,G#4_D4
1121,Left,1,53,110,195.5,0.489583,Eighth,F3
1120,Right,0,62,110,195.5,0.489583,Eighth,D4
1122,Right,0,62,110,196.0,0.239583,Sixteenth,D4
1123,Left,1,53,110,196.0,0.239583,Sixteenth,F3
1124,Right,0,61,110,196.25,0.239583,Sixteenth,C#4
1125,Left,1,52,110,196.25,0.239583,Sixteenth,E3
1127,Right,0,62,110,196.5,0.239583,Sixteenth,D4
1126,Left,1,53,110,196.5,0.239583,Sixteenth,F3
1129,Right,0,59,110,196.75,0.239583,Sixteenth,B3
1128,Left,1,50,110,196.75,0.239583,Sixteenth,D3
1131,Left,1,45,110,197.0,0.989583,Quarter,E3_A2
1130,Right,0,69,110,197.0,0.489583,Eighth,C#4_A4
1134,Right,0,81,80,197.5,0.239583,Sixteenth,A5
1135,Right,0,80,80,197.75,0.239583,Sixteenth,G#5
1136,Right,0,81,80,198.0,0.239583,Sixteenth,A5
1137,Right,0,80,80,198.25,0.239583,Sixteenth,G#5
1138,Right,0,81,80,198.5,0.239583,Sixteenth,A5
1139,Right,0,80,80,198.75,0.239583,Sixteenth,G#5
1140,Right,0,81,80,199.0,0.239583,Sixteenth,A5
1141,Right,0,80,80,199.25,0.239583,Sixteenth,G#5
1142,Right,0,81,80,199.5,0.239583,Sixteenth,A5
1143,Right,0,80,80,199.75,0.239583,Sixteenth,G#5
1144,Right,0,81,80,200.0,0.239583,Sixteenth,A5
1145,Right,0,80,80,200.25,0.239583,Sixteenth,G#5
1146,Right,0,81,80,200.5,0.239583,Sixteenth,A5
1147,Right,0,80,80,200.75,0.239583,Sixteenth,G#5
1150,Right,0,69,80,201.0,0.489583,Eighth,F#5_A5_A4
1148,Left,1,62,80,201.0,1.989583,Eighth,D4_D3
1153,Right,0,81,80,201.5,0.489583,Eighth,F#5_A5_A4
1156,Left,1,62,80,201.5,0.489583,Eighth,D4
1158,Right,0,81,80,202.0,0.489583,Eighth,F#5_A5_A4
1157,Left,1,62,80,202.0,0.489583,Eighth,D4
1162,Right,0,74,80,202.5,0.489583,Eighth,F#5_D5_A5
1161,Left,1,57,80,202.5,0.489583,Eighth,A3
1165,Right,0,69,80,203.0,0.489583,Eighth,F#5_A5_A4
1168,Left,1,50,80,203.0,1.989583,Half,D4_D3
1170,Left,1,62,80,203.5,0.489583,Eighth,D4
1171,Right,0,69,80,203.5,0.489583,Eighth,F#5_A5_A4
1174,Right,0,69,80,204.0,0.489583,Eighth,F#5_A5_A4
1177,Left,1,62,80,204.0,0.489583,Eighth,D4
1180,Left,1,57,80,204.5,0.489583,Eighth,A3
1178,Right,0,74,80,204.5,0.489583,Eighth,F#5_D5_A5
1184,Left,1,50,80,205.0,3.989583,Whole,E4_D3
1182,Right,0,79,80,205.0,0.489583,Eighth,G5_A5
1186,Left,1,62,82,205.5,0.489583,Eighth,D4
1187,Right,0,83,82,205.5,0.489583,Eighth,G5_B5_A5
1190,Right,0,81,84,206.0,0.489583,Eighth,G5_C#6_A5
1191,Left,1,61,84,206.0,0.489583,Eighth,C#4
1196,Left,1,59,87,206.5,0.489583,Eighth,B3
1194,Right,0,79,87,206.5,0.489583,Eighth,G5_D6_A5
1200,Left,1,57,90,207.0,0.489583,Eighth,A3
1198,Right,0,81,90,207.0,0.489583,Eighth,G5_E6_A5
1204,Left,1,61,87,207.5,0.489583,Eighth,C#4
1202,Right,0,85,87,207.5,0.489583,Eighth,G5_C#6_A5
1206,Left,1,59,84,208.0,0.489583,Eighth,B3
1207,Right,0,86,84,208.0,0.489583,Eighth,G5_D6_A5
1210,Left,1,57,81,208.5,0.489583,Eighth,A3
1211,Right,0,88,81,208.5,0.489583,Eighth,G5_E6_A5
1217,Left,1,62,80,209.0,1.989583,Eighth,D4_D3
1214,Right,0,81,80,209.0,0.489583,Eighth,F#5_A5_A4
1220,Left,1,62,80,209.5,0.489583,Eighth,D4
1219,Right,0,69,80,209.5,0.489583,Eighth,F#5_A5_A4
1224,Right,0,81,80,210.0,0.489583,Eighth,F#5_A5_A4
1223,Left,1,62,80,210.0,0.489583,Eighth,D4
1230,Left,1,57,80,210.5,0.489583,Eighth,A3
1227,Right,0,81,80,210.5,0.489583,Eighth,F#5_D5_A5
1231,Right,0,81,80,211.0,0.489583,Eighth,F#5_A5_A4
1234,Left,1,50,80,211.0,1.989583,Half,D4_D3
1236,Right,0,69,80,211.5,0.489583,Eighth,F#5_A5_A4
1239,Left,1,62,80,211.5,0.489583,Eighth,D4
1241,Right,0,78,80,212.0,0.489583,Eighth,F#5_A5_A4
1240,Left,1,62,80,212.0,0.489583,Eighth,D4
1244,Right,0,74,80,212.5,0.489583,Eighth,F#5_D5_A5
1247,Left,1,57,80,212.5,0.489583,Eighth,A3
1248,Right,0,79,80,213.0,0.489583,Eighth,G5_A5
1250,Left,1,64,80,213.0,3.989583,Eighth,E4_D3
1252,Right,0,79,82,213.5,0.489583,Eighth,G5_B5_A5
1255,Left,1,62,82,213.5,0.489583,Eighth,D4
1256,Left,1,61,84,214.0,0.489583,Eighth,C#4
1257,Right,0,81,84,214.0,0.489583,Eighth,G5_C#6_A5
1260,Right,0,81,87,214.5,0.489583,Eighth,G5_D6_A5
1263,Left,1,59,87,214.5,0.489583,Eighth,B3
1266,Left,1,57,90,215.0,0.489583,Eighth,A3
1264,Right,0,81,90,215.0,0.489583,Eighth,G5_E6_A5
1268,Right,0,85,87,215.5,0.489583,Eighth,G5_C#6_A5
1270,Left,1,61,87,215.5,0.489583,Eighth,C#4
1275,Left,1,59,84,216.0,0.489583,Eighth,B3
1272,Right,0,86,84,216.0,0.489583,Eighth,G5_D6_A5
1279,Left,1,57,81,216.5,0.489583,Eighth,A3
1276,Right,0,88,81,216.5,0.489583,Eighth,G5_E6_A5
1282,Left,1,74,80,217.0,0.489583,Eighth,D5
1280,Right,0,78,80,217.0,0.489583,Eighth,F#5_A5
1284,Left,1,72,80,217.5,0.489583,Eighth,C5
1283,Right,0,78,80,217.5,0.489583,Eighth,F#5_A5
1288,Left,1,71,80,218.0,0.489583,Eighth,B4
1286,Right,0,78,80,218.0,0.489583,Eighth,F#5_B5
1291,Left,1,69,80,218.5,0.489583,Eighth,A4
1289,Right,0,78,80,218.5,0.489583,Eighth,F#5_C6
1292,Left,1,67,80,219.0,0.489583,Eighth,G4
1293,Right,0,77,80,219.0,0.489583,Eighth,F5_D6
1297,Left,1,71,80,219.5,0.489583,Eighth,B4
1295,Right,0,83,80,219.5,0.489583,Eighth,F5_B5
1298,Right,0,77,80,220.0,0.489583,Eighth,F5_C6
1300,Left,1,69,80,220.0,0.489583,Eighth,A4
1301,Right,0,86,80,220.5,0.489583,Eighth,F5_D6
1302,Left,1,67,80,220.5,0.489583,Eighth,G4
1305,Left,1,72,80,221.0,0.489583,Eighth,C5
1304,Right,0,76,80,221.0,0.489583,Eighth,G5_E5
1309,Left,1,70,80,221.5,0.489583,Eighth,A#4
1307,Right,0,79,80,221.5,0.489583,Eighth,G5_E5
1310,Left,1,69,80,222.0,0.489583,Eighth,A4
1311,Right,0,76,80,222.0,0.489583,Eighth,E5_A5
1315,Left,1,67,80,222.5,0.489583,Eighth,G4
1313,Right,0,76,80,222.5,0.489583,Eighth,E5_A#5
1318,Left,1,65,80,223.0,0.489583,Eighth,F4
1316,Right,0,84,80,223.0,0.489583,Eighth,D#5_C6
1320,Left,1,69,80,223.5,0.489583,Eighth,A4
1319,Right,0,81,80,223.5,0.489583,Eighth,D#5_A5
1322,Left,1,67,80,224.0,0.489583,Eighth,G4
1323,Right,0,82,80,224.0,0.489583,Eighth,D#5_A#5
1326,Left,1,65,80,224.5,0.489583,Eighth,F4
1325,Right,0,84,80,224.5,0.489583,Eighth,D#5_C6
1328,Left,1,70,100,225.0,0.489583,Eighth,A#4
1329,Right,0,77,100,225.0,0.489583,Eighth,F5_D5
1332,Right,0,77,100,225.5,0.489583,Eighth,F5_D5
1331,Left,1,72,100,225.5,0.489583,Eighth,C5
1336,Left,1,70,100,226.0,0.489583,Eighth,A#4
1334,Right,0,79,100,226.0,0.489583,Eighth,G5_E5
1339,Left,1,69,100,226.5,0.489583,Eighth,A4
1337,Right,0,81,100,226.5,0.489583,Eighth,F5_A5
1340,Left,1,67,100,227.0,0.489583,Eighth,G4
1341,Right,0,79,100,227.0,0.489583,Eighth,G5_A#5
1345,Left,1,65,100,227.5,0.489583,Eighth,F4
1343,Right,0,82,100,227.5,0.489583,Eighth,G5_A#5
1346,Left,1,64,101,228.0,0.489583,Eighth,E4
1347,Right,0,82,101,228.0,0.489583,Eighth,G5_A#5
1349,Right,0,79,102,228.5,0.489583,Eighth,G5_A#5
1350,Left,1,62,102,228.5,0.489583,Eighth,D4
1352,Right,0,79,103,229.0,0.489583,Eighth,G5_A#5
1354,Left,1,60,103,229.0,0.489583,Eighth,C4
1355,Right,0,82,104,229.5,0.489583,Eighth,G5_A#5
1357,Left,1,59,104,229.5,0.489583,Eighth,B3
1359,Right,0,82,105,230.0,0.489583,Eighth,G5_A#5
1358,Left,1,58,105,230.0,0.489583,Eighth,A#3
1362,Right,0,82,105,230.5,0.489583,Eighth,G5_A#5
1361,Left,1,57,105,230.5,0.489583,Eighth,A3
1364,Left,1,55,106,231.0,0.489583,Eighth,G3
1365,Right,0,82,106,231.0,0.489583,Eighth,G5_A#5
1368,Right,0,82,107,231.5,0.489583,Eighth,A5_A#5
1367,Left,1,53,107,231.5,0.489583,Eighth,F3
1370,Right,0,82,108,232.0,0.489583,Eighth,G5_A#5
1371,Left,1,52,108,232.0,0.489583,Eighth,E3
1373,Right,0,77,109,232.5,0.489583,Eighth,F5_A#5
1375,Left,1,50,109,232.5,0.489583,Eighth,D3
1377,Right,0,76,110,233.0,0.239583,Sixteenth,E5_A#5
1376,Left,1,48,110,233.0,0.989583,Quarter,C3
1379,Right,0,84,110,233.25,0.239583,Sixteenth,C6
1380,Right,0,86,110,233.5,0.239583,Sixteenth,D6
1381,Right,0,84,110,233.75,0.239583,Sixteenth,C6
1382,Right,0,82,110,234.0,0.239583,Sixteenth,A#5
1383,Right,0,81,110,234.25,0.239583,Sixteenth,A5
1384,Right,0,79,110,234.5,0.239583,Sixteenth,G5
1385,Right,0,77,110,234.75,0.239583,Sixteenth,F5
1386,Right,0,76,110,235.0,0.239583,Sixteenth,E5
1387,Right,0,77,110,235.25,0.239583,Sixteenth,F5
1388,Right,0,79,110,235.5,0.239583,Sixteenth,G5
1389,Right,0,77,110,235.75,0.239583,Sixteenth,F5
1390,Right,0,76,110,236.0,0.239583,Sixteenth,E5
1391,Right,0,74,110,236.25,0.239583,Sixteenth,D5
1392,Right,0,72,120,236.5,0.239583,Sixteenth,C5
1393,Left,1,36,120,236.5,0.15625,TripletSixteenth,C2
1394,Left,1,38,120,236.666667,0.15625,TripletSixteenth,D2
1395,Right,0,70,120,236.75,0.239583,Sixteenth,A#4
1396,Left,1,40,120,236.833333,0.15625,TripletSixteenth,E2
1398,Left,1,41,120,237.0,0.489583,Eighth,F2
1397,Right,0,69,120,237.0,0.489583,Eighth,A4
1400,Left,1,41,120,237.5,0.489583,Eighth,F2
1399,Right,0,84,120,237.5,0.239583,Sixteenth,C6
1401,Right,0,82,120,237.75,0.239583,Sixteenth,A#5
1402,Left,1,41,120,238.0,0.489583,Eighth,F2
1403,Right,0,81,120,238.0,0.239583,Sixteenth,A5
1404,Right,0,79,120,238.25,0.239583,Sixteenth,G5
1405,Left,1,36,120,238.5,0.489583,Eighth,C2
1406,Right,0,77,120,238.5,0.239583,Sixteenth,F5
1407,Right,0,76,120,238.75,0.239583,Sixteenth,E5
1409,Right,0,77,120,239.0,0.239583,Sixteenth,F5
1408,Left,1,45,120,239.0,0.489583,Eighth,A2
1410,Right,0,76,120,239.25,0.239583,Sixteenth,E5
1412,Left,1,45,120,239.5,0.489583,Eighth,A2
1411,Right,0,74,120,239.5,0.239583,Sixteenth,D5
1413,Right,0,72,120,239.75,0.239583,Sixteenth,C5
1415,Right,0,70,120,240.0,0.239583,Sixteenth,A#4
1414,Left,1,45,120,240.0,0.489583,Eighth,A2
1416,Right,0,69,120,240.25,0.239583,Sixteenth,A4
1418,Right,0,67,120,240.5,0.239583,Sixteenth,G4
1417,Left,1,41,120,240.5,0.489583,Eighth,F2
1419,Right,0,65,120,240.75,0.239583,Sixteenth,F4
1421,Left,1,48,120,241.0,0.489583,Eighth,C3
1420,Right,0,64,120,241.0,0.239583,Sixteenth,E4
1422,Right,0,65,120,241.25,0.239583,Sixteenth,F4
1423,Right,0,67,120,241.5,0.239583,Sixteenth,G4
1424,Left,1,48,120,241.5,0.489583,Eighth,C3
1425,Right,0,65,120,241.75,0.239583,Sixteenth,F4
1427,Right,0,64,120,242.0,0.239583,Sixteenth,E4
1426,Left,1,48,120,242.0,0.239583,Sixteenth,C3
1428,Left,1,50,120,242.25,0.239583,Sixteenth,D3
1429,Right,0,60,120,242.25,0.239583,Sixteenth,C4
1431,Right,0,62,120,242.5,0.239583,Sixteenth,D4
1430,Left,1,48,120,242.5,0.239583,Sixteenth,C3
1432,Right,0,64,120,242.75,0.239583,Sixteenth,E4
1433,Left,1,46,120,242.75,0.239583,Sixteenth,A#2
1434,Right,0,65,110,243.0,0.239583,Sixteenth,F4
1435,Left,1,45,110,243.0,0.489583,Eighth,A2
1436,Right,0,60,110,243.25,0.239583,Sixteenth,C4
1438,Right,0,65,110,243.5,0.239583,Sixteenth,F4
1437,Left,1,45,110,243.5,0.489583,Eighth,A2
1439,Right,0,60,110,243.75,0.239583,Sixteenth,C4
1440,Right,0,65,110,244.0,0.239583,Sixteenth,F4
1441,Left,1,45,110,244.0,0.239583,Sixteenth,A2
1442,Right,0,60,110,244.25,0.239583,Sixteenth,C4
1443,Left,1,46,110,244.25,0.239583,Sixteenth,A#2
1444,Right,0,67,110,244.5,0.239583,Sixteenth,G4
1445,Left,1,45,110,244.5,0.239583,Sixteenth,A2
1447,Right,0,60,110,244.75,0.239583,Sixteenth,C4
1446,Left,1,43,110,244.75,0.239583,Sixteenth,G2
1449,Right,0,69,110,245.0,0.489583,Eighth,A4
1448,Left,1,41,110,245.0,0.489583,Eighth,F2
1451,Left,1,60,110,245.5,0.239583,Sixteenth,C4
1450,Right,0,65,110,245.5,0.489583,Eighth,F4
1452,Left,1,58,110,245.75,0.239583,Sixteenth,A#3
1453,Right,0,65,110,246.0,0.489583,Eighth,F4
1454,Left,1,57,110,246.0,0.239583,Sixteenth,A3
1455,Left,1,55,110,246.25,0.239583,Sixteenth,G3
1457,Left,1,53,110,246.5,0.239583,Sixteenth,F3
1456,Right,0,60,110,246.5,0.489583,Eighth,C4
1458,Left,1,52,110,246.75,0.239583,Sixteenth,E3
1459,Left,1,53,110,247.0,0.239583,Sixteenth,F3
1460,Right,0,69,110,247.0,0.489583,Eighth,A4
1461,Left,1,52,110,247.25,0.239583,Sixteenth,E3
1463,Right,0,69,110,247.5,0.489583,Eighth,A4
1462,Left,1,50,110,247.5,0.239583,Sixteenth,D3
1464,Left,1,48,110,247.75,0.239583,Sixteenth,C3
1466,Right,0,69,110,248.0,0.489583,Eighth,A4
1465,Left,1,46,110,248.0,0.239583,Sixteenth,A#2
1467,Left,1,45,110,248.25,0.239583,Sixteenth,A2
1469,Left,1,43,110,248.5,0.239583,Sixteenth,G2
1468,Right,0,65,110,248.5,0.489583,Eighth,F4
1470,Left,1,41,110,248.75,0.239583,Sixteenth,F2
1472,Right,0,72,110,249.0,0.489583,Eighth,C5
1471,Left,1,40,110,249.0,0.239583,Sixteenth,E2
1473,Left,1,41,110,249.25,0.239583,Sixteenth,F2
1474,Left,1,43,110,249.5,0.239583,Sixteenth,G2
1475,Right,0,72,110,249.5,0.489583,Eighth,C5
1476,Left,1,41,110,249.75,0.239583,Sixteenth,F2
1478,Right,0,72,110,250.0,0.239583,Sixteenth,C5
1477,Left,1,40,110,250.0,0.239583,Sixteenth,E2
1480,Right,0,74,110,250.25,0.239583,Sixteenth,D5
1479,Left,1,36,110,250.25,0.239583,Sixteenth,C2
1481,Left,1,38,110,250.5,0.239583,Sixteenth,D2
1482,Right,0,72,110,250.5,0.239583,Sixteenth,C5
1483,Right,0,70,110,250.75,0.239583,Sixteenth,A#4
1484,Left,1,40,110,250.75,0.239583,Sixteenth,E2
1485,Right,0,69,110,251.0,0.239583,Sixteenth,A4
1486,Left,1,41,110,251.0,0.489583,Eighth,F2
1487,Right,0,72,110,251.25,0.239583,Sixteenth,C5
1489,Left,1,39,110,251.5,0.489583,Eighth,D#2
1488,Right,0,67,110,251.5,0.239583,Sixteenth,G4
1490,Right,0,73,110,251.75,0.239583,Sixteenth,C#5
1491,Left,1,38,110,252.0,0.489583,Eighth,D2
1492,Right,0,66,110,252.0,0.239583,Sixteenth,F#4
1493,Right,0,74,110,252.25,0.239583,Sixteenth,D5
1495,Right,0,69,110,252.5,0.239583,Sixteenth,A4
1494,Left,1,42,110,252.5,0.489583,Eighth,F#2
1496,Right,0,72,110,252.75,0.239583,Sixteenth,C5
1498,Left,1,43,110,253.0,0.489583,Eighth,G2
1497,Right,0,70,110,253.0,0.489583,Eighth,A#4
1499,Right,0,86,110,253.5,0.239583,Sixteenth,D6
1500,Left,1,43,110,253.5,0.489583,Eighth,G2
1501,Right,0,84,110,253.75,0.239583,Sixteenth,C6
1502,Right,0,82,110,254.0,0.239583,Sixteenth,A#5
1503,Left,1,43,110,254.0,0.489583,Eighth,G2
1504,Right,0,81,110,254.25,0.239583,Sixteenth,A5
1506,Right,0,79,110,254.5,0.239583,Sixteenth,G5
1505,Left,1,38,110,254.5,0.489583,Eighth,D2
1507,Right,0,78,110,254.75,0.239583,Sixteenth,F#5
1508,Left,1,46,110,255.0,0.489583,Eighth,A#2
1509,Right,0,79,110,255.0,0.239583,Sixteenth,G5
1510,Right,0,77,110,255.25,0.239583,Sixteenth,F5
1512,Right,0,75,110,255.5,0.239583,Sixteenth,D#5
1511,Left,1,46,110,255.5,0.489583,Eighth,A#2
1513,Right,0,74,110,255.75,0.239583,Sixteenth,D5
1515,Right,0,72,110,256.0,0.239583,Sixteenth,C5
1514,Left,1,46,110,256.0,0.489583,Eighth,A#2
1516,Right,0,70,110,256.25,0.239583,Sixteenth,A#4
1518,Left,1,43,110,256.5,0.489583,Eighth,G2
1517,Right,0,69,110,256.5,0.239583,Sixteenth,A4
1519,Right,0,67,110,256.75,0.239583,Sixteenth,G4
1521,Right,0,66,110,257.0,0.239583,Sixteenth,F#4
1520,Left,1,50,110,257.0,0.489583,Eighth,D3
1522,Right,0,67,110,257.25,0.239583,Sixteenth,G4
1524,Left,1,50,110,257.5,0.489583,Eighth,D3
1523,Right,0,69,110,257.5,0.239583,Sixteenth,A4
1525,Right,0,67,110,257.75,0.239583,Sixteenth,G4
1526,Left,1,50,110,258.0,0.239583,Sixteenth,D3
1527,Right,0,66,110,258.0,0.239583,Sixteenth,F#4
1529,Left,1,51,110,258.25,0.239583,Sixteenth,D#3
1528,Right,0,62,110,258.25,0.239583,Sixteenth,D4
1531,Right,0,64,110,258.5,0.239583,Sixteenth,E4
1530,Left,1,50,110,258.5,0.239583,Sixteenth,D3
1533,Right,0,66,110,258.75,0.239583,Sixteenth,F#4
1532,Left,1,48,110,258.75,0.239583,Sixteenth,C3
1535,Right,0,67,110,259.0,0.239583,Sixteenth,G4
1534,Left,1,46,110,259.0,0.489583,Eighth,A#2
1536,Right,0,62,110,259.25,0.239583,Sixteenth,D4
1537,Right,0,67,110,259.5,0.239583,Sixteenth,G4
1538,Left,1,46,110,259.5,0.489583,Eighth,A#2
1539,Right,0,62,110,259.75,0.239583,Sixteenth,D4
1540,Left,1,46,110,260.0,0.239583,Sixteenth,A#2
1541,Right,0,67,110,260.0,0.239583,Sixteenth,G4
1543,Right,0,62,110,260.25,0.239583,Sixteenth,D4
1542,Left,1,48,110,260.25,0.239583,Sixteenth,C3
1545,Right,0,69,110,260.5,0.239583,Sixteenth,A4
1544,Left,1,46,110,260.5,0.239583,Sixteenth,A#2
1547,Right,0,62,110,260.75,0.239583,Sixteenth,D4
1546,Left,1,45,110,260.75,0.239583,Sixteenth,A2
1549,Left,1,43,110,261.0,0.489583,Eighth,G2
1548,Right,0,70,110,261.0,0.489583,Eighth,A#4
1551,Left,1,62,110,261.5,0.239583,Sixteenth,D4
1550,Right,0,67,110,261.5,0.489583,Eighth,G4
1552,Left,1,60,110,261.75,0.239583,Sixteenth,C4
1553,Left,1,58,110,262.0,0.239583,Sixteenth,A#3
1554,Right,0,67,110,262.0,0.489583,Eighth,G4
1555,Left,1,57,110,262.25,0.239583,Sixteenth,A3
1557,Right,0,62,110,262.5,0.489583,Eighth,D4
1556,Left,1,55,110,262.5,0.239583,Sixteenth,G3
1558,Left,1,54,110,262.75,0.239583,Sixteenth,F#3
1559,Left,1,55,110,263.0,0.239583,Sixteenth,G3
1560,Right,0,70,110,263.0,0.489583,Eighth,A#4
1561,Left,1,53,110,263.25,0.239583,Sixteenth,F3
1563,Left,1,51,110,263.5,0.239583,Sixteenth,D#3
1562,Right,0,70,110,263.5,0.489583,Eighth,A#4
1564,Left,1,50,110,263.75,0.239583,Sixteenth,D3
1565,Right,0,70,110,264.0,0.489583,Eighth,A#4
1566,Left,1,48,110,264.0,0.239583,Sixteenth,C3
1567,Left,1,46,110,264.25,0.239583,Sixteenth,A#2
1569,Left,1,45,110,264.5,0.239583,Sixteenth,A2
1568,Right,0,67,110,264.5,0.489583,Eighth,G4
1570,Left,1,43,110,264.75,0.239583,Sixteenth,G2
1572,Right,0,74,110,265.0,0.489583,Eighth,D5
1571,Left,1,42,110,265.0,0.239583,Sixteenth,F#2
1573,Left,1,43,110,265.25,0.239583,Sixteenth,G2
1574,Left,1,45,110,265.5,0.239583,Sixteenth,A2
1575,Right,0,74,110,265.5,0.489583,Eighth,D5
1576,Left,1,43,110,265.75,0.239583,Sixteenth,G2
1578,Right,0,74,110,266.0,0.239583,Sixteenth,D5
1577,Left,1,42,110,266.0,0.239583,Sixteenth,F#2
1580,Left,1,38,110,266.25,0.239583,Sixteenth,D2
1579,Right,0,75,110,266.25,0.239583,Sixteenth,D#5
1582,Left,1,40,110,266.5,0.239583,Sixteenth,E2
1581,Right,0,74,110,266.5,0.239583,Sixteenth,D5
1584,Right,0,72,110,266.75,0.239583,Sixteenth,C5
1583,Left,1,42,110,266.75,0.239583,Sixteenth,F#2
1586,Left,1,43,110,267.0,0.489583,Eighth,G2
1585,Right,0,70,110,267.0,0.239583,Sixteenth,A#4
1587,Right,0,74,110,267.25,0.239583,Sixteenth,D5
1588,Right,0,76,110,267.5,0.239583,Sixteenth,E5
1589,Left,1,42,110,267.5,0.489583,Eighth,F#2
1590,Right,0,70,110,267.75,0.239583,Sixteenth,A#4
1591,Left,1,41,110,268.0,0.489583,Eighth,F2
1592,Right,0,77,110,268.0,0.239583,Sixteenth,F5
1593,Right,0,69,110,268.25,0.239583,Sixteenth,A4
1595,Left,1,45,110,268.5,0.489583,Eighth,A2
1594,Right,0,75,110,268.5,0.239583,Sixteenth,D#5
1596,Right,0,72,110,268.75,0.239583,Sixteenth,C5
1598,Right,0,74,110,269.0,0.489583,Eighth,D5
1597,Left,1,46,110,269.0,0.489583,Eighth,A#2
1600,Left,1,46,110,269.5,0.489583,Eighth,A#2
1599,Right,0,89,110,269.5,0.239583,Sixteenth,F6
1601,Right,0,87,110,269.75,0.239583,Sixteenth,D#6
1603,Left,1,46,110,270.0,0.489583,Eighth,A#2
1602,Right,0,86,110,270.0,0.239583,Sixteenth,D6
1604,Right,0,84,110,270.25,0.239583,Sixteenth,C6
1606,Right,0,82,110,270.5,0.239583,Sixteenth,A#5
1605,Left,1,41,110,270.5,0.489583,Eighth,F2
1607,Right,0,81,110,270.75,0.239583,Sixteenth,A5
1609,Left,1,50,110,271.0,0.489583,Eighth,D3
1608,Right,0,82,110,271.0,0.239583,Sixteenth,A#5
1610,Right,0,81,110,271.25,0.239583,Sixteenth,A5
1611,Right,0,79,110,271.5,0.239583,Sixteenth,G5
1612,Left,1,50,110,271.5,0.489583,Eighth,D3
1613,Right,0,77,110,271.75,0.239583,Sixteenth,F5
1614,Right,0,75,110,272.0,0.239583,Sixteenth,D#5
1615,Left,1,50,110,272.0,0.489583,Eighth,D3
1616,Right,0,74,110,272.25,0.239583,Sixteenth,D5
1617,Right,0,72,110,272.5,0.239583,Sixteenth,C5
1618,Left,1,46,110,272.5,0.489583,Eighth,A#2
1619,Right,0,70,110,272.75,0.239583,Sixteenth,A#4
1620,Right,0,69,110,273.0,0.239583,Sixteenth,A4
1621,Left,1,53,110,273.0,0.489583,Eighth,F3
1622,Right,0,70,110,273.25,0.239583,Sixteenth,A#4
1624,Right,0,72,110,273.5,0.239583,Sixteenth,C5
1623,Left,1,53,110,273.5,0.489583,Eighth,F3
1625,Right,0,70,110,273.75,0.239583,Sixteenth,A#4
1626,Left,1,53,110,274.0,0.239583,Sixteenth,F3
1627,Right,0,69,110,274.0,0.239583,Sixteenth,A4
1628,Left,1,55,110,274.25,0.239583,Sixteenth,G3
1629,Right,0,65,110,274.25,0.239583,Sixteenth,F4
1630,Left,1,53,110,274.5,0.239583,Sixteenth,F3
1631,Right,0,67,110,274.5,0.239583,Sixteenth,G4
1632,Left,1,51,110,274.75,0.239583,Sixteenth,D#3
1633,Right,0,69,110,274.75,0.239583,Sixteenth,A4
1635,Right,0,70,110,275.0,0.239583,Sixteenth,A#4
1634,Left,1,50,110,275.0,0.489583,Eighth,D3
1636,Right,0,65,110,275.25,0.239583,Sixteenth,F4
1637,Right,0,70,110,275.5,0.239583,Sixteenth,A#4
1638,Left,1,50,110,275.5,0.489583,Eighth,D3
1639,Right,0,65,110,275.75,0.239583,Sixteenth,F4
1640,Right,0,70,110,276.0,0.239583,Sixteenth,A#4
1641,Left,1,50,110,276.0,0.239583,Sixteenth,D3
1643,Right,0,65,110,276.25,0.239583,Sixteenth,F4
1642,Left,1,51,110,276.25,0.239583,Sixteenth,D#3
1644,Left,1,50,110,276.5,0.239583,Sixteenth,D3
1645,Right,0,72,110,276.5,0.239583,Sixteenth,C5
1647,Right,0,65,110,276.75,0.239583,Sixteenth,F4
1646,Left,1,48,110,276.75,0.239583,Sixteenth,C3
1649,Right,0,73,110,277.0,0.489583,Eighth,C#5
1648,Left,1,46,110,277.0,0.489583,Eighth,A#2
1651,Right,0,70,80,277.5,0.239583,Sixteenth,A#4
1650,Left,1,58,80,277.5,0.239583,Sixteenth,A#3
1653,Right,0,82,80,277.75,0.239583,Sixteenth,A#5
1652,Left,1,61,80,277.75,0.239583,Sixteenth,C#4
1655,Right,0,70,80,278.0,0.239583,Sixteenth,A#4
1654,Left,1,58,80,278.0,0.239583,Sixteenth,A#3
1657,Right,0,82,80,278.25,0.239583,Sixteenth,A#5
1656,Left,1,61,80,278.25,0.239583,Sixteenth,C#4
1659,Right,0,65,80,278.5,0.239583,Sixteenth,F4
1658,Left,1,58,80,278.5,0.239583,Sixteenth,A#3
1661,Left,1,61,80,278.75,0.239583,Sixteenth,C#4
1660,Right,0,77,80,278.75,0.239583,Sixteenth,F5
1662,Left,1,58,80,279.0,0.239583,Sixteenth,A#3
1663,Right,0,73,80,279.0,0.239583,Sixteenth,C#5
1665,Right,0,85,80,279.25,0.239583,Sixteenth,C#6
1664,Left,1,61,80,279.25,0.239583,Sixteenth,C#4
1666,Right,0,73,80,279.5,0.239583,Sixteenth,C#5
1667,Left,1,58,80,279.5,0.239583,Sixteenth,A#3
1669,Right,0,85,80,279.75,0.239583,Sixteenth,C#6
1668,Left,1,61,80,279.75,0.239583,Sixteenth,C#4
1671,Right,0,73,80,280.0,0.239583,Sixteenth,C#5
1670,Left,1,58,80,280.0,0.239583,Sixteenth,A#3
1672,Left,1,61,80,280.25,0.239583,Sixteenth,C#4
1673,Right,0,85,80,280.25,0.239583,Sixteenth,C#6
1675,Right,0,70,80,280.5,0.239583,Sixteenth,A#4
1674,Left,1,58,80,280.5,0.239583,Sixteenth,A#3
1676,Right,0,82,80,280.75,0.239583,Sixteenth,A#5
1677,Left,1,61,80,280.75,0.239583,Sixteenth,C#4
1679,Left,1,53,80,281.0,0.239583,Sixteenth,F3
1678,Right,0,77,80,281.0,0.239583,Sixteenth,F5
1680,Right,0,89,80,281.25,0.239583,Sixteenth,F6
1681,Left,1,60,80,281.25,0.239583,Sixteenth,C4
1682,Right,0,77,81,281.5,0.239583,Sixteenth,F5
1683,Left,1,57,81,281.5,0.239583,Sixteenth,A3
1684,Right,0,89,81,281.75,0.239583,Sixteenth,F6
1685,Left,1,60,81,281.75,0.239583,Sixteenth,C4
1687,Right,0,77,82,282.0,0.239583,Sixteenth,F5
1686,Left,1,57,82,282.0,0.239583,Sixteenth,A3
1688,Right,0,89,83,282.25,0.239583,Sixteenth,F6
1689,Left,1,60,83,282.25,0.239583,Sixteenth,C4
1690,Right,0,75,83,282.5,0.239583,Sixteenth,D#5
1691,Left,1,57,83,282.5,0.239583,Sixteenth,A3
1692,Left,1,60,84,282.75,0.239583,Sixteenth,C4
1693,Right,0,87,84,282.75,0.239583,Sixteenth,D#6
1695,Left,1,58,85,283.0,0.239583,Sixteenth,A#3
1694,Right,0,73,85,283.0,0.239583,Sixteenth,C#5
1696,Left,1,61,85,283.25,0.239583,Sixteenth,C#4
1697,Right,0,85,85,283.25,0.239583,Sixteenth,C#6
1698,Left,1,58,86,283.5,0.239583,Sixteenth,A#3
1699,Right,0,73,86,283.5,0.239583,Sixteenth,C#5
1701,Right,0,85,87,283.75,0.239583,Sixteenth,C#6
1700,Left,1,61,87,283.75,0.239583,Sixteenth,C#4
1703,Right,0,73,87,284.0,0.239583,Sixteenth,C#5
1702,Left,1,58,87,284.0,0.239583,Sixteenth,A#3
1704,Left,1,61,88,284.25,0.239583,Sixteenth,C#4
1705,Right,0,85,88,284.25,0.239583,Sixteenth,C#6
1706,Left,1,58,88,284.5,0.239583,Sixteenth,A#3
1707,Right,0,70,88,284.5,0.239583,Sixteenth,A#4
1708,Left,1,61,89,284.75,0.239583,Sixteenth,C#4
1709,Right,0,82,89,284.75,0.239583,Sixteenth,A#5
1710,Left,1,53,90,285.0,0.239583,Sixteenth,F3
1711,Right,0,77,90,285.0,0.239583,Sixteenth,F5
1713,Left,1,60,90,285.25,0.239583,Sixteenth,C4
1712,Right,0,89,90,285.25,0.239583,Sixteenth,F6
1714,Left,1,57,91,285.5,0.239583,Sixteenth,A3
1715,Right,0,77,91,285.5,0.239583,Sixteenth,F5
1716,Left,1,60,92,285.75,0.239583,Sixteenth,C4
1717,Right,0,89,92,285.75,0.239583,Sixteenth,F6
1718,Right,0,77,92,286.0,0.239583,Sixteenth,F5
1719,Left,1,57,92,286.0,0.239583,Sixteenth,A3
1721,Left,1,60,93,286.25,0.239583,Sixteenth,C4
1720,Right,0,89,93,286.25,0.239583,Sixteenth,F6
1723,Left,1,57,94,286.5,0.239583,Sixteenth,A3
1722,Right,0,75,94,286.5,0.239583,Sixteenth,D#5
1724,Right,0,87,94,286.75,0.239583,Sixteenth,D#6
1725,Left,1,60,94,286.75,0.239583,Sixteenth,C4
1726,Right,0,73,95,287.0,0.239583,Sixteenth,C#5
1727,Left,1,58,95,287.0,0.239583,Sixteenth,A#3
1728,Right,0,85,95,287.25,0.239583,Sixteenth,C#6
1729,Left,1,61,95,287.25,0.239583,Sixteenth,C#4
1730,Right,0,73,96,287.5,0.239583,Sixteenth,C#5
1731,Left,1,58,96,287.5,0.239583,Sixteenth,A#3
1733,Left,1,61,97,287.75,0.239583,Sixteenth,C#4
1732,Right,0,85,97,287.75,0.239583,Sixteenth,C#6
1735,Left,1,58,97,288.0,0.239583,Sixteenth,A#3
1734,Right,0,73,97,288.0,0.239583,Sixteenth,C#5
1736,Right,0,85,98,288.25,0.239583,Sixteenth,C#6
1737,Left,1,61,98,288.25,0.239583,Sixteenth,C#4
1738,Right,0,72,99,288.5,0.239583,Sixteenth,C5
1739,Left,1,60,99,288.5,0.239583,Sixteenth,C4
1741,Left,1,63,99,288.75,0.239583,Sixteenth,D#4
1740,Right,0,84,99,288.75,0.239583,Sixteenth,C6
1743,Left,1,61,100,289.0,0.239583,Sixteenth,C#4
1742,Right,0,70,100,289.0,0.239583,Sixteenth,A#4
1745,Left,1,65,101,289.25,0.239583,Sixteenth,F4
1744,Right,0,82,101,289.25,0.239583,Sixteenth,A#5
1747,Left,1,61,101,289.5,0.239583,Sixteenth,C#4
1746,Right,0,70,101,289.5,0.239583,Sixteenth,A#4
1748,Right,0,82,102,289.75,0.239583,Sixteenth,A#5
1749,Left,1,65,102,289.75,0.239583,Sixteenth,F4
1751,Left,1,61,102,290.0,0.239583,Sixteenth,C#4
1750,Right,0,70,102,290.0,0.239583,Sixteenth,A#4
1752,Right,0,82,103,290.25,0.239583,Sixteenth,A#5
1753,Left,1,65,103,290.25,0.239583,Sixteenth,F4
1755,Right,0,68,104,290.5,0.239583,Sixteenth,G#4
1754,Left,1,60,104,290.5,0.239583,Sixteenth,C4
1756,Right,0,80,104,290.75,0.239583,Sixteenth,G#5
1757,Left,1,63,104,290.75,0.239583,Sixteenth,D#4
1758,Right,0,66,105,291.0,0.239583,Sixteenth,F#4
1759,Left,1,58,105,291.0,0.239583,Sixteenth,A#3
1760,Right,0,78,106,291.25,0.239583,Sixteenth,F#5
1761,Left,1,61,106,291.25,0.239583,Sixteenth,C#4
1762,Right,0,66,106,291.5,0.239583,Sixteenth,F#4
1763,Left,1,58,106,291.5,0.239583,Sixteenth,A#3
1764,Right,0,78,107,291.75,0.239583,Sixteenth,F#5
1765,Left,1,61,107,291.75,0.239583,Sixteenth,C#4
1767,Left,1,58,108,292.0,0.239583,Sixteenth,A#3
1766,Right,0,66,108,292.0,0.239583,Sixteenth,F#4
1769,Left,1,61,108,292.25,0.239583,Sixteenth,C#4
1768,Right,0,78,108,292.25,0.239583,Sixteenth,F#5
1770,Left,1,56,109,292.5,0.239583,Sixteenth,G#3
1771,Right,0,65,109,292.5,0.239583,Sixteenth,F4
1772,Left,1,60,109,292.75,0.239583,Sixteenth,C4
1773,Right,0,77,109,292.75,0.239583,Sixteenth,F5
1775,Left,1,55,110,293.0,0.239583,Sixteenth,G3
1774,Right,0,64,110,293.0,0.239583,Sixteenth,E4
1777,Left,1,58,110,293.25,0.239583,Sixteenth,A#3
1776,Right,0,76,110,293.25,0.239583,Sixteenth,E5
1779,Left,1,55,110,293.5,0.239583,Sixteenth,G3
1778,Right,0,64,110,293.5,0.239583,Sixteenth,E4
1781,Left,1,58,110,293.75,0.239583,Sixteenth,A#3
1780,Right,0,76,110,293.75,0.239583,Sixteenth,E5
1782,Right,0,64,110,294.0,0.239583,Sixteenth,E4
1783,Left,1,55,110,294.0,0.239583,Sixteenth,G3
1784,Right,0,76,110,294.25,0.239583,Sixteenth,E5
1785,Left,1,58,110,294.25,0.239583,Sixteenth,A#3
1786,Right,0,67,110,294.5,0.239583,Sixteenth,G4
1787,Left,1,55,110,294.5,0.239583,Sixteenth,G3
1788,Right,0,79,110,294.75,0.239583,Sixteenth,G5
1789,Left,1,58,110,294.75,0.239583,Sixteenth,A#3
1790,Right,0,65,110,295.0,0.239583,Sixteenth,F4
1791,Left,1,56,110,295.0,0.239583,Sixteenth,G#3
1793,Left,1,60,110,295.25,0.239583,Sixteenth,C4
1792,Right,0,77,110,295.25,0.239583,Sixteenth,F5
1795,Left,1,56,110,295.5,0.239583,Sixteenth,G#3
1794,Right,0,68,110,295.5,0.239583,Sixteenth,G#4
1797,Right,0,80,110,295.75,0.239583,Sixteenth,G#5
1796,Left,1,60,110,295.75,0.239583,Sixteenth,C4
1798,Left,1,52,110,296.0,0.239583,Sixteenth,E3
1799,Right,0,67,110,296.0,0.239583,Sixteenth,G4
1800,Right,0,79,110,296.25,0.239583,Sixteenth,G5
1801,Left,1,60,110,296.25,0.239583,Sixteenth,C4
1802,Right,0,70,110,296.5,0.239583,Sixteenth,A#4
1803,Left,1,52,110,296.5,0.239583,Sixteenth,E3
1804,Right,0,82,110,296.75,0.239583,Sixteenth,A#5
1805,Left,1,60,110,296.75,0.239583,Sixteenth,C4
1806,Left,1,53,110,297.0,0.239583,Sixteenth,F3
1807,Right,0,68,110,297.0,0.239583,Sixteenth,G#4
1808,Right,0,80,110,297.25,0.239583,Sixteenth,G#5
1809,Left,1,60,110,297.25,0.239583,Sixteenth,C4
1811,Left,1,53,110,297.5,0.239583,Sixteenth,F3
1810,Right,0,72,110,297.5,0.239583,Sixteenth,C5
1813,Left,1,60,110,297.75,0.239583,Sixteenth,C4
1812,Right,0,84,110,297.75,0.239583,Sixteenth,C6
1815,Left,1,51,110,298.0,0.239583,Sixteenth,D#3
1814,Right,0,69,110,298.0,0.239583,Sixteenth,A4
1816,Right,0,81,110,298.25,0.239583,Sixteenth,A5
1817,Left,1,53,110,298.25,0.239583,Sixteenth,F3
1819,Left,1,51,110,298.5,0.239583,Sixteenth,D#3
1818,Right,0,72,110,298.5,0.239583,Sixteenth,C5
1821,Left,1,53,110,298.75,0.239583,Sixteenth,F3
1820,Right,0,84,110,298.75,0.239583,Sixteenth,C6
1823,Left,1,49,110,299.0,0.239583,Sixteenth,C#3
1822,Right,0,70,110,299.0,0.239583,Sixteenth,A#4
1825,Left,1,53,110,299.25,0.239583,Sixteenth,F3
1824,Right,0,82,110,299.25,0.239583,Sixteenth,A#5
1827,Right,0,73,110,299.5,0.239583,Sixteenth,C#5
1826,Left,1,49,110,299.5,0.239583,Sixteenth,C#3
1828,Left,1,53,110,299.75,0.239583,Sixteenth,F3
1829,Right,0,85,110,299.75,0.239583,Sixteenth,C#6
1831,Right,0,72,110,300.0,0.239583,Sixteenth,C5
1830,Left,1,45,110,300.0,0.239583,Sixteenth,A2
1833,Left,1,53,110,300.25,0.239583,Sixteenth,F3
1832,Right,0,84,110,300.25,0.239583,Sixteenth,C6
1835,Left,1,45,110,300.5,0.239583,Sixteenth,A2
1834,Right,0,75,110,300.5,0.239583,Sixteenth,D#5
1837,Left,1,53,110,300.75,0.239583,Sixteenth,F3
1836,Right,0,87,110,300.75,0.239583,Sixteenth,D#6
1838,Right,0,73,120,301.0,0.239583,Sixteenth,C#5
1839,Left,1,46,120,301.0,0.239583,Sixteenth,A#2
1841,Right,0,85,120,301.25,0.239583,Sixteenth,C#6
1840,Left,1,53,120,301.25,0.239583,Sixteenth,F3
1842,Right,0,73,120,301.5,0.239583,Sixteenth,C#5
1843,Left,1,46,120,301.5,0.239583,Sixteenth,A#2
1845,Left,1,53,120,301.75,0.239583,Sixteenth,F3
1844,Right,0,85,120,301.75,0.239583,Sixteenth,C#6
1846,Right,0,73,120,302.0,0.239583,Sixteenth,C#5
1847,Left,1,46,120,302.0,0.239583,Sixteenth,A#2
1848,Right,0,85,120,302.25,0.239583,Sixteenth,C#6
1849,Left,1,53,120,302.25,0.239583,Sixteenth,F3
1850,Right,0,72,120,302.5,0.239583,Sixteenth,C5
1851,Left,1,48,120,302.5,0.239583,Sixteenth,C3
1852,Right,0,84,120,302.75,0.239583,Sixteenth,C6
1853,Left,1,53,120,302.75,0.239583,Sixteenth,F3
1855,Left,1,49,120,303.0,0.239583,Sixteenth,C#3
1854,Right,0,71,120,303.0,0.239583,Sixteenth,B4
1857,Left,1,53,120,303.25,0.239583,Sixteenth,F3
1856,Right,0,83,120,303.25,0.239583,Sixteenth,B5
1859,Left,1,49,120,303.5,0.239583,Sixteenth,C#3
1858,Right,0,71,120,303.5,0.239583,Sixteenth,B4
1861,Left,1,53,120,303.75,0.239583,Sixteenth,F3
1860,Right,0,83,120,303.75,0.239583,Sixteenth,B5
1862,Left,1,49,120,304.0,0.239583,Sixteenth,C#3
1863,Right,0,71,120,304.0,0.239583,Sixteenth,B4
1865,Right,0,83,120,304.25,0.239583,Sixteenth,B5
1864,Left,1,53,120,304.25,0.239583,Sixteenth,F3
1866,Right,0,77,120,304.5,0.239583,Sixteenth,F5
1867,Left,1,37,120,304.5,0.239583,Sixteenth,C#2
1868,Left,1,49,120,304.75,0.239583,Sixteenth,C#3
1869,Right,0,89,120,304.75,0.239583,Sixteenth,F6
1870,Right,0,76,120,305.0,0.239583,Sixteenth,E5
1871,Left,1,36,120,305.0,0.239583,Sixteenth,C2
1872,Right,0,88,120,305.25,0.239583,Sixteenth,E6
1873,Left,1,48,120,305.25,0.239583,Sixteenth,C3
1875,Right,0,76,120,305.5,0.239583,Sixteenth,E5
1874,Left,1,36,120,305.5,0.239583,Sixteenth,C2
1877,Right,0,88,120,305.75,0.239583,Sixteenth,E6
1876,Left,1,48,120,305.75,0.239583,Sixteenth,C3
1879,Right,0,76,120,306.0,0.239583,Sixteenth,E5
1878,Left,1,36,120,306.0,0.239583,Sixteenth,C2
1881,Left,1,48,120,306.25,0.239583,Sixteenth,C3
1880,Right,0,88,120,306.25,0.239583,Sixteenth,E6
1883,Right,0,70,120,306.5,0.239583,Sixteenth,A#4
1882,Left,1,40,120,306.5,0.239583,Sixteenth,E2
1885,Left,1,52,120,306.75,0.239583,Sixteenth,E3
1884,Right,0,82,120,306.75,0.239583,Sixteenth,A#5
1886,Left,1,41,120,307.0,0.239583,Sixteenth,F2
1887,Right,0,69,120,307.0,0.239583,Sixteenth,A4
1888,Left,1,53,120,307.25,0.239583,Sixteenth,F3
1889,Right,0,81,120,307.25,0.239583,Sixteenth,A5
1890,Left,1,41,120,307.5,0.239583,Sixteenth,F2
1891,Right,0,69,120,307.5,0.239583,Sixteenth,A4
1892,Right,0,81,120,307.75,0.239583,Sixteenth,A5
1893,Left,1,53,120,307.75,0.239583,Sixteenth,F3
1895,Left,1,41,120,308.0,0.239583,Sixteenth,F2
1894,Right,0,69,120,308.0,0.239583,Sixteenth,A4
1896,Right,0,81,120,308.25,0.239583,Sixteenth,A5
1897,Left,1,53,120,308.25,0.239583,Sixteenth,F3
1898,Right,0,75,120,308.5,0.239583,Sixteenth,D#5
1899,Left,1,33,120,308.5,0.239583,Sixteenth,A1
1900,Right,0,87,120,308.75,0.239583,Sixteenth,D#6
1901,Left,1,45,120,308.75,0.239583,Sixteenth,A2
1902,Right,0,74,110,309.0,0.489583,Eighth,D5
1903,Left,1,34,110,309.0,0.239583,Sixteenth,A#1
1904,Left,1,46,110,309.25,0.239583,Sixteenth,A#2
1906,Right,0,86,110,309.5,0.239583,Sixteenth,D6
1905,Left,1,34,110,309.5,0.239583,Sixteenth,A#1
1908,Right,0,85,110,309.75,0.239583,Sixteenth,C#6
1907,Left,1,46,110,309.75,0.239583,Sixteenth,A#2
1909,Left,1,34,110,310.0,0.239583,Sixteenth,A#1
1910,Right,0,86,110,310.0,0.239583,Sixteenth,D6
1912,Right,0,84,110,310.25,0.239583,Sixteenth,C6
1911,Left,1,46,110,310.25,0.239583,Sixteenth,A#2
1914,Right,0,82,110,310.5,0.239583,Sixteenth,A#5
1913,Left,1,35,110,310.5,0.239583,Sixteenth,B1
1916,Right,0,81,110,310.75,0.239583,Sixteenth,A5
1915,Left,1,47,110,310.75,0.239583,Sixteenth,B2
1918,Left,1,36,110,311.0,0.239583,Sixteenth,C2
1917,Right,0,79,110,311.0,0.239583,Sixteenth,G5
1919,Left,1,48,110,311.25,0.239583,Sixteenth,C3
1920,Right,0,77,110,311.25,0.239583,Sixteenth,F5
1922,Left,1,36,110,311.5,0.239583,Sixteenth,C2
1921,Right,0,76,110,311.5,0.239583,Sixteenth,E5
1923,Right,0,74,110,311.75,0.239583,Sixteenth,D5
1924,Left,1,48,110,311.75,0.239583,Sixteenth,C3
1925,Right,0,72,110,312.0,0.239583,Sixteenth,C5
1926,Left,1,36,110,312.0,0.239583,Sixteenth,C2
1927,Right,0,70,110,312.25,0.239583,Sixteenth,A#4
1928,Left,1,48,110,312.25,0.239583,Sixteenth,C3
1929,Left,1,36,110,312.5,0.239583,Sixteenth,C2
1930,Right,0,69,110,312.5,0.239583,Sixteenth,A4
1931,Right,0,67,110,312.75,0.239583,Sixteenth,G4
1932,Left,1,48,110,312.75,0.239583,Sixteenth,C3
1933,Left,1,53,110,313.0,1.989583,Eighth,F3_F2
1935,Right,0,65,110,313.0,0.489583,Eighth,F4
1936,Left,1,53,80,313.5,0.489583,Eighth,F3
1937,Right,0,60,80,313.5,0.489583,Eighth,C4_A3
1940,Right,0,57,80,314.0,0.489583,Eighth,C4_A3
1939,Left,1,53,80,314.0,0.489583,Eighth,F3
1944,Left,1,48,80,314.5,0.489583,Eighth,C3
1942,Right,0,65,80,314.5,0.489583,Eighth,F4_A3
1946,Right,0,57,80,315.0,0.489583,Eighth,C4_A3
1945,Left,1,41,80,315.0,1.989583,Half,F3_F2
1950,Right,0,57,80,315.5,0.489583,Eighth,C4_A3
1949,Left,1,53,80,315.5,0.489583,Eighth,F3
1952,Right,0,57,80,316.0,0.489583,Eighth,C4_A3
1954,Left,1,53,80,316.0,0.489583,Eighth,F3
1956,Right,0,65,80,316.5,0.489583,Eighth,F4_A3
1955,Left,1,48,80,316.5,0.489583,Eighth,C3
1959,Right,0,60,80,317.0,0.489583,Eighth,C4_A#3
1958,Left,1,41,80,317.0,3.989583,Whole,G3_F2
1963,Right,0,58,80,317.5,0.489583,Eighth,G4_A#3
1962,Left,1,53,80,317.5,0.489583,Eighth,F3
1965,Right,0,67,80,318.0,0.489583,Eighth,G4_A#3
1967,Left,1,52,80,318.0,0.489583,Eighth,E3
1968,Left,1,50,80,318.5,0.489583,Eighth,D3
1969,Right,0,58,80,318.5,0.489583,Eighth,G4_A#3
1972,Right,0,58,80,319.0,0.489583,Eighth,G4_A#3
1971,Left,1,48,80,319.0,0.489583,Eighth,C3
1975,Right,0,58,80,319.5,0.489583,Eighth,G4_A#3
1974,Left,1,50,80,319.5,0.489583,Eighth,D3
1978,Right,0,58,80,320.0,0.239583,Sixteenth,G4_A#3
1977,Left,1,52,80,320.0,0.489583,Eighth,E3
1980,Right,0,69,80,320.25,0.239583,Sixteenth,A4
1981,Left,1,48,80,320.5,0.489583,Eighth,C3
1982,Right,0,67,80,320.5,0.239583,Sixteenth,G4_A#3
1984,Right,0,69,80,320.75,0.239583,Sixteenth,A4
1985,Left,1,53,80,321.0,1.989583,Eighth,F3_F2
1987,Right,0,65,80,321.0,0.489583,Eighth,F4
1988,Right,0,60,80,321.5,0.489583,Eighth,C4_A3
1990,Left,1,53,80,321.5,0.489583,Eighth,F3
1992,Right,0,57,80,322.0,0.489583,Eighth,C4_A3
1991,Left,1,53,80,322.0,0.489583,Eighth,F3
1994,Right,0,65,80,322.5,0.489583,Eighth,F4_A3
1995,Left,1,48,80,322.5,0.489583,Eighth,C3
1999,Left,1,41,80,323.0,1.989583,Half,F3_F2
1997,Right,0,57,80,323.0,0.489583,Eighth,C4_A3
2002,Left,1,53,80,323.5,0.489583,Eighth,F3
2001,Right,0,60,80,323.5,0.489583,Eighth,C4_A3
2004,Left,1,53,80,324.0,0.489583,Eighth,F3
2005,Right,0,60,80,324.0,0.489583,Eighth,C4_A3
2007,Left,1,48,80,324.5,0.489583,Eighth,C3
2008,Right,0,57,80,324.5,0.489583,Eighth,F4_A3
2010,Left,1,55,80,325.0,3.989583,Eighth,G3_F2
2011,Right,0,60,80,325.0,0.489583,Eighth,C4_A#3
2014,Left,1,53,80,325.5,0.489583,Eighth,F3
2015,Right,0,58,80,325.5,0.489583,Eighth,G4_A#3
2019,Left,1,52,80,326.0,0.489583,Eighth,E3
2017,Right,0,67,80,326.0,0.489583,Eighth,G4_A#3
2022,Left,1,50,80,326.5,0.489583,Eighth,D3
2020,Right,0,67,80,326.5,0.489583,Eighth,G4_A#3
2025,Left,1,48,80,327.0,0.489583,Eighth,C3
2023,Right,0,58,80,327.0,0.489583,Eighth,G4_A#3
2027,Left,1,50,80,327.5,0.489583,Eighth,D3
2026,Right,0,67,80,327.5,0.489583,Eighth,G4_A#3
2031,Left,1,52,80,328.0,0.489583,Eighth,E3
2029,Right,0,58,80,328.0,0.239583,Sixteenth,G4_A#3
2032,Right,0,69,80,328.25,0.239583,Sixteenth,A4
2035,Left,1,48,80,328.5,0.489583,Eighth,C3
2033,Right,0,67,80,328.5,0.239583,Sixteenth,G4_A#3
2036,Right,0,69,80,328.75,0.239583,Sixteenth,A4
2037,Left,1,53,80,329.0,1.989583,Half,F3
2038,Right,0,57,80,329.0,0.489583,Eighth,F4_A3
2043,Left,1,65,80,329.5,0.489583,Eighth,F4
2040,Right,0,81,80,329.5,0.489583,Eighth,C6_C5_A5
2044,Left,1,65,80,330.0,0.489583,Eighth,F4
2045,Right,0,84,80,330.0,0.489583,Eighth,C6_C5_A5
2051,Left,1,60,80,330.5,0.489583,Eighth,C4
2048,Right,0,77,80,330.5,0.489583,Eighth,F5_C6_A5
2054,Left,1,53,80,331.0,1.989583,Half,F4_F3
2052,Right,0,81,80,331.0,0.489583,Eighth,C6_C5_A5
2059,Left,1,65,80,331.5,0.489583,Eighth,F4
2057,Right,0,84,80,331.5,0.489583,Eighth,C6_C5_A5
2064,Left,1,65,80,332.0,0.489583,Eighth,F4
2061,Right,0,72,80,332.0,0.489583,Eighth,C6_C5_A5
2065,Left,1,60,80,332.5,0.489583,Eighth,C4
2066,Right,0,81,80,332.5,0.489583,Eighth,F5_C6_A5
2070,Left,1,67,80,333.0,3.989583,Eighth,G4_F3
2069,Right,0,72,80,333.0,0.489583,Eighth,C6_C5_A#5
2074,Left,1,65,84,333.5,0.489583,Eighth,F4
2075,Right,0,84,84,333.5,0.489583,Eighth,D5_C6_A#5
2078,Left,1,64,89,334.0,0.489583,Eighth,E4
2079,Right,0,82,89,334.0,0.489583,Eighth,E5_C6_A#5
2085,Left,1,62,94,334.5,0.489583,Eighth,D4
2082,Right,0,84,94,334.5,0.489583,Eighth,F5_C6_A#5
2086,Left,1,60,90,335.0,0.489583,Eighth,C4
2087,Right,0,79,90,335.0,0.489583,Eighth,G5_C6_A#5
2090,Right,0,84,87,335.5,0.489583,Eighth,E5_C6_A#5
2093,Left,1,64,87,335.5,0.489583,Eighth,E4
2094,Right,0,77,84,336.0,0.489583,Eighth,F5_C6_A#5
2097,Left,1,62,84,336.0,0.489583,Eighth,D4
2098,Right,0,79,81,336.5,0.489583,Eighth,G5_C6_A#5
2100,Left,1,60,81,336.5,0.489583,Eighth,C4
2103,Right,0,72,80,337.0,0.489583,Eighth,C6_C5_A5
2102,Left,1,53,80,337.0,1.989583,Half,F4_F3
2108,Right,0,84,80,337.5,0.489583,Eighth,C6_C5_A5
2107,Left,1,65,80,337.5,0.489583,Eighth,F4
2112,Right,0,72,80,338.0,0.489583,Eighth,C6_C5_A5
2111,Left,1,65,80,338.0,0.489583,Eighth,F4
2117,Left,1,60,80,338.5,0.489583,Eighth,C4
2115,Right,0,77,80,338.5,0.489583,Eighth,F5_C6_A5
2119,Right,0,81,80,339.0,0.489583,Eighth,C6_C5_A5
2121,Left,1,65,80,339.0,1.989583,Eighth,F4_F3
2125,Left,1,65,80,339.5,0.489583,Eighth,F4
2124,Right,0,72,80,339.5,0.489583,Eighth,C6_C5_A5
2128,Left,1,65,80,340.0,0.489583,Eighth,F4
2129,Right,0,84,80,340.0,0.489583,Eighth,C6_C5_A5
2135,Left,1,60,80,340.5,0.489583,Eighth,C4
2132,Right,0,84,80,340.5,0.489583,Eighth,F5_C6_A5
2136,Right,0,72,80,341.0,0.489583,Eighth,C6_C5_A#5
2137,Left,1,53,80,341.0,3.989583,Whole,G4_F3
2141,Left,1,65,84,341.5,0.489583,Eighth,F4
2142,Right,0,82,84,341.5,0.489583,Eighth,D5_C6_A#5
2146,Left,1,64,89,342.0,0.489583,Eighth,E4
2145,Right,0,76,89,342.0,0.489583,Eighth,E5_C6_A#5
2149,Left,1,62,94,342.5,0.489583,Eighth,D4
2150,Right,0,82,94,342.5,0.489583,Eighth,F5_C6_A#5
2153,Left,1,60,90,343.0,0.489583,Eighth,C4
2154,Right,0,79,90,343.0,0.489583,Eighth,G5_C6_A#5
2158,Left,1,64,87,343.5,0.489583,Eighth,E4
2157,Right,0,76,87,343.5,0.489583,Eighth,E5_C6_A#5
2161,Right,0,84,84,344.0,0.489583,Eighth,F5_C6_A#5
2163,Left,1,62,84,344.0,0.489583,Eighth,D4
2166,Right,0,79,81,344.5,0.489583,Eighth,G5_C6_A#5
2165,Left,1,60,81,344.5,0.489583,Eighth,C4
2169,Right,0,77,80,345.0,0.489583,Eighth,F5_C6_A5
2171,Left,1,65,80,345.0,0.489583,Eighth,F4
2173,Right,0,84,80,345.5,0.489583,Eighth,C6_A5
2174,Left,1,76,80,345.5,0.489583,Eighth,E5
2177,Right,0,84,80,346.0,0.489583,Eighth,C6_A5
2176,Left,1,74,80,346.0,0.489583,Eighth,D5
2181,Left,1,72,80,346.5,0.489583,Eighth,C5
2179,Right,0,84,80,346.5,0.489583,Eighth,C6_A5
2185,Left,1,70,80,347.0,0.489583,Eighth,A#4
2182,Right,0,84,80,347.0,0.489583,Eighth,G5_E5_C6
2186,Right,0,79,80,347.5,0.489583,Eighth,G5_E5_C6
2188,Left,1,69,80,347.5,0.489583,Eighth,A4
2190,Left,1,67,80,348.0,0.489583,Eighth,G4
2191,Right,0,86,80,348.0,0.489583,Eighth,G5_E5_D6
2196,Left,1,72,80,348.5,0.489583,Eighth,C5
2194,Right,0,79,80,348.5,0.489583,Eighth,G5_E6_E5
2201,Left,1,65,80,349.0,0.489583,Eighth,F4
2198,Right,0,81,80,349.0,0.489583,Eighth,F6_F5_A5
2205,Left,1,64,81,349.5,0.489583,Eighth,E4
2202,Right,0,84,81,349.5,0.489583,Eighth,C6_C5_A5
2209,Left,1,62,83,350.0,0.489583,Eighth,D4
2206,Right,0,84,83,350.0,0.489583,Eighth,C6_C5_A5
2210,Right,0,81,85,350.5,0.489583,Eighth,C6_C5_A5
2213,Left,1,60,85,350.5,0.489583,Eighth,C4
2217,Left,1,58,87,351.0,0.489583,Eighth,A#3
2214,Right,0,82,87,351.0,0.489583,Eighth,C6_C5_A#5
2221,Left,1,57,89,351.5,0.489583,Eighth,A3
2218,Right,0,82,89,351.5,0.489583,Eighth,C6_C5_A#5
2222,Right,0,84,91,352.0,0.489583,Eighth,D5_C6_A#5
2224,Left,1,55,91,352.0,0.489583,Eighth,G3
2226,Right,0,84,93,352.5,0.489583,Eighth,E5_C6_A#5
2228,Left,1,60,93,352.5,0.489583,Eighth,C4
2230,Right,0,89,95,353.0,0.489583,Eighth,F6_F5
2232,Left,1,53,95,353.0,0.489583,Eighth,F3_A3
2236,Right,0,88,97,353.5,0.489583,Eighth,E6_E5
2234,Left,1,57,97,353.5,0.489583,Eighth,F3_A3
2238,Left,1,53,99,354.0,0.489583,Eighth,F3_A3
2240,Right,0,86,99,354.0,0.489583,Eighth,D6_D5
2243,Right,0,84,101,354.5,0.489583,Eighth,C6_C5
2242,Left,1,57,101,354.5,0.489583,Eighth,F3_A3
2246,Right,0,82,103,355.0,0.489583,Eighth,A#5_A#4
2247,Left,1,53,103,355.0,0.489583,Eighth,G3_F3
2250,Left,1,55,105,355.5,0.489583,Eighth,G3_F3
2252,Right,0,69,105,355.5,0.489583,Eighth,A5_A4
2254,Left,1,52,107,356.0,0.489583,Eighth,G3_E3
2256,Right,0,67,107,356.0,0.489583,Eighth,G5_G4
2260,Right,0,84,109,356.5,0.489583,Eighth,C6_C5
2258,Left,1,52,109,356.5,0.489583,Eighth,G3_E3
2264,Left,1,53,120,357.0,0.489583,Eighth,F3
2262,Right,0,77,120,357.0,0.489583,Eighth,F5_F4
2265,Right,0,64,120,357.5,0.489583,Eighth,E5_E4
2266,Left,1,36,120,357.5,0.489583,Eighth,C2
2268,Right,0,74,120,358.0,0.489583,Eighth,D5_D4
2269,Left,1,36,120,358.0,0.489583,Eighth,C2
2271,Right,0,72,120,358.5,0.489583,Eighth,C5_C4
2273,Left,1,36,120,358.5,0.489583,Eighth,C2
2275,Right,0,70,120,359.0,0.489583,Eighth,A#4_A#3
2274,Left,1,36,120,359.0,0.489583,Eighth,C2
2278,Right,0,69,120,359.5,0.489583,Eighth,A4_A3
2277,Left,1,36,120,359.5,0.489583,Eighth,C2
2282,Left,1,38,120,360.0,0.489583,Eighth,D2
2280,Right,0,67,120,360.0,0.489583,Eighth,G4_G3
2283,Right,0,60,120,360.5,0.489583,Eighth,C5_C4
2284,Left,1,40,120,360.5,0.489583,Eighth,E2
2288,Left,1,41,120,361.0,1.489583,DottedQuarter,F2_F1
2286,Right,0,53,120,361.0,1.489583,DottedQuarter,F4_F3
2290,Right,0,65,1,364.0,0.489583,Eighth,F4
