,hand,channel,note,velocity,start_beat,duration,note_value,chord
0,Right,0,55,80,0.75,0.239583,Sixteenth,G3
1,Right,0,52,80,1.0,0.489583,Eighth,G3_E3_C4
2,Left,1,48,80,1.0,0.489583,Eighth,C3
8,Left,1,50,80,2.0,0.489583,Eighth,D3
5,Right,0,59,80,2.0,0.489583,Eighth,G3_F3_B3
9,Left,1,52,80,3.0,0.489583,Eighth,E3
10,Right,0,60,80,3.0,0.489583,Eighth,G3_C4
13,Left,1,47,80,4.0,0.489583,Eighth,B2
12,Right,0,55,80,4.0,0.489583,Eighth,G3_D4
15,Left,1,48,80,5.0,0.489583,Eighth,C3
16,Right,0,55,80,5.0,0.489583,Eighth,G3_E4_C4
19,Right,0,57,80,6.0,0.489583,Eighth,F4_D4_A3
21,Left,1,41,80,6.0,0.489583,Eighth,F2
25,Left,1,43,80,7.0,0.989583,Quarter,G2
23,Right,0,62,80,7.0,1.989583,Half,D4_B3
26,Left,1,55,80,8.0,0.739583,DottedEighth,G3
27,Left,1,53,80,8.75,0.239583,Sixteenth,F3
28,Right,0,67,80,9.0,0.489583,Eighth,G4_C4
29,Left,1,52,80,9.0,0.489583,Eighth,E3
34,Left,1,50,80,10.0,0.489583,Eighth,D3
31,Right,0,65,80,10.0,0.489583,Eighth,G4_F4_B3
35,Left,1,48,80,11.0,0.489583,Eighth,C3
36,Right,0,67,80,11.0,0.489583,Eighth,G4_E4_C4
42,Left,1,47,80,12.0,0.489583,Eighth,B2
39,Right,0,68,80,12.0,0.489583,Eighth,G#4_E4_D4
43,Right,0,69,80,13.0,0.489583,Eighth,E4_C4_A4
46,Left,1,45,80,13.0,0.489583,Eighth,A2
47,Right,0,69,80,14.0,0.489583,Eighth,F4_C4_A4
48,Left,1,41,80,14.0,0.489583,Eighth,F2
51,Left,1,43,80,15.0,1.989583,Half,G2
52,Right,0,62,80,15.0,1.739583,DottedQuarter,D4_B3
54,Right,0,55,80,16.5,0.239583,Sixteenth,G3
58,Left,1,48,80,17.0,0.489583,Eighth,C3
55,Right,0,60,80,17.0,0.489583,Eighth,G3_E3_C4
62,Left,1,50,80,18.0,0.489583,Eighth,D3
59,Right,0,59,80,18.0,0.489583,Eighth,G3_F3_B3
64,Left,1,52,80,19.0,0.489583,Eighth,E3
63,Right,0,60,80,19.0,0.489583,Eighth,G3_C4
67,Left,1,47,80,20.0,0.489583,Eighth,B2
66,Right,0,55,80,20.0,0.489583,Eighth,G3_D4
71,Left,1,48,80,21.0,0.489583,Eighth,C3
69,Right,0,64,80,21.0,0.489583,Eighth,G3_E4
73,Right,0,60,80,22.0,0.489583,Eighth,F#4_C4
72,Left,1,45,80,22.0,0.489583,Eighth,D3_A2
76,Right,0,67,80,23.0,1.989583,Half,G4_D4
77,Left,1,47,80,23.0,1.989583,Half,D3_B2
82,Right,0,69,80,25.0,0.489583,Eighth,E4_A4
80,Left,1,55,80,25.0,0.489583,Eighth,G3_C3
86,Right,0,70,80,26.0,0.489583,Eighth,E4_A#4
84,Left,1,55,80,26.0,0.489583,Eighth,G3_C#3
88,Right,0,71,80,27.0,1.989583,Half,D4_B4
89,Left,1,50,80,27.0,1.989583,Half,G3_D3
92,Right,0,72,80,29.0,0.489583,Eighth,F#4_C5
93,Left,1,50,80,29.0,0.489583,Eighth,D3_A3
96,Left,1,60,80,30.0,0.489583,Eighth,D3_C4
98,Right,0,69,80,30.0,0.489583,Eighth,F#4_A4
100,Left,1,55,80,31.0,0.989583,Quarter,G3_B3
101,Right,0,67,80,31.0,0.989583,Quarter,G4
103,Right,0,67,80,32.75,0.239583,Sixteenth,G4
105,Left,1,67,80,33.0,0.989583,Quarter,G4_E4
104,Right,0,72,80,33.0,0.989583,Quarter,G5_C5
109,Left,1,62,80,34.0,0.989583,Quarter,G4_D4
108,Right,0,71,80,34.0,0.989583,Quarter,F5_B4
112,Left,1,60,80,35.0,0.989583,Quarter,G4_C4
114,Right,0,76,80,35.0,0.989583,Quarter,E5_C5
116,Right,0,76,80,36.0,0.989583,Sixteenth,E5_C5
118,Left,1,58,80,36.0,0.989583,Quarter,G4_A#3
120,Right,0,77,80,36.125,0.239583,Sixteenth,F5
121,Right,0,76,80,36.25,0.239583,Sixteenth,E5
122,Right,0,77,80,36.375,0.239583,Sixteenth,F5
123,Right,0,76,80,36.5,0.239583,Sixteenth,E5
124,Right,0,77,80,36.625,0.239583,Sixteenth,F5
125,Right,0,74,80,36.75,0.239583,Sixteenth,D5
126,Right,0,76,80,36.875,0.114583,ThirtySecond,E5
129,Right,0,72,80,37.0,0.989583,Quarter,C6_C5
127,Left,1,57,80,37.0,0.989583,Quarter,F4_A3
132,Left,1,64,80,38.0,0.989583,Quarter,G3_E4
131,Right,0,82,80,38.0,0.989583,Quarter,C5_A#5
135,Left,1,65,80,39.0,1.989583,Half,F4_F3
137,Right,0,81,80,39.0,1.739583,DottedQuarter,C5_A5
139,Right,0,69,80,40.75,0.239583,Sixteenth,A4
140,Left,1,60,80,41.0,0.989583,Quarter,F3_C4
141,Right,0,69,80,41.0,0.989583,Quarter,A5_A4
144,Left,1,60,80,42.0,0.989583,Quarter,E3_C4
146,Right,0,69,80,42.0,0.989583,Quarter,G5_A4
148,Left,1,62,80,43.0,0.989583,Quarter,D4_D3
150,Right,0,69,80,43.0,0.989583,Quarter,F5_A4
152,Right,0,73,80,44.0,0.989583,Quarter,G4_E5_C#5
154,Left,1,52,80,44.0,0.989583,Quarter,E3
157,Left,1,53,80,45.0,0.989583,Quarter,F3
156,Right,0,69,80,45.0,0.989583,Quarter,F4_D5_A4
160,Left,1,54,80,46.0,0.989583,Quarter,F#3
161,Right,0,72,80,46.0,1.989583,Quarter,D#4_C5_A4
166,Left,1,55,80,47.0,0.989583,Quarter,G3
164,Right,0,67,80,47.0,0.989583,Quarter,G4_D4
168,Right,0,71,80,48.0,0.989583,Quarter,B4
167,Left,1,67,80,48.0,0.739583,DottedEighth,G4
169,Left,1,65,80,48.75,0.239583,Sixteenth,F4
171,Right,0,72,80,49.0,0.489583,Eighth,G4_C5
170,Left,1,64,80,49.0,0.489583,Eighth,E4
173,Right,0,65,80,50.0,0.489583,Eighth,G4_F4_B4
175,Left,1,62,80,50.0,0.489583,Eighth,D4
178,Left,1,60,80,51.0,0.489583,Eighth,C4
177,Right,0,64,80,51.0,0.489583,Eighth,G4_E4_C5
181,Right,0,74,80,52.0,0.489583,Eighth,G4_D5_D4
184,Left,1,50,80,52.0,0.489583,Eighth,G3_D3_B3_B2
191,Right,0,67,80,53.0,0.489583,Eighth,G4_E5_E4_C5
188,Left,1,55,80,53.0,0.489583,Eighth,G3_E3_C4_C3
200,Right,0,69,80,54.0,0.489583,Eighth,F5_F4_D5_A4
196,Left,1,53,80,54.0,0.489583,Eighth,F3_F2_D3_A2
204,Right,0,71,80,55.0,0.489583,Eighth,G4_D5_D4_B4
208,Left,1,55,80,55.0,0.489583,Eighth,G3_G2_D3_B2
212,Right,0,67,100,56.0,1.989583,Half,G5_G4
214,Left,1,53,100,56.5,0.489583,Eighth,F3_B3
216,Left,1,60,100,57.0,0.989583,Quarter,E3_C4
218,Left,1,52,100,58.0,1.989583,Quarter,E3_C#4
220,Right,0,79,100,58.0,1.989583,Half,G5_A#4
223,Right,0,69,100,59.0,1.989583,Half,A4
222,Left,1,53,100,59.0,1.989583,Half,F3
224,Left,1,62,100,60.0,0.989583,Quarter,D4
225,Right,0,77,100,60.0,0.989583,Quarter,F5
229,Left,1,55,80,61.0,0.489583,Eighth,G3
226,Right,0,72,80,61.0,0.489583,Eighth,G4_E5_C5
232,Left,1,43,80,62.0,0.489583,Eighth,G2
230,Right,0,71,80,62.0,0.489583,Eighth,F4_D5_B4
234,Right,0,72,80,63.0,0.489583,Eighth,G4_E4_C5
236,Left,1,48,80,63.0,0.489583,Eighth,C3
239,Right,0,53,80,65.0,0.489583,Eighth,F3_D3_B3
238,Left,1,43,80,65.0,0.489583,Eighth,G2
243,Left,1,36,100,66.0,0.489583,Eighth,C2
242,Right,0,52,100,66.0,0.489583,Eighth,G3_E3_C4
246,Right,0,61,80,67.0,0.489583,Eighth,G3_E3_C#4
249,Left,1,45,80,67.0,0.489583,Eighth,A2
250,Right,0,62,100,68.0,0.489583,Eighth,F3_D4_A3
253,Left,1,38,100,68.0,0.489583,Eighth,D2
254,Right,0,54,80,69.0,0.489583,Eighth,F#3_D#4_A3
256,Left,1,47,80,69.0,0.489583,Eighth,B2
259,Right,0,55,100,70.0,0.489583,Eighth,G3_E4_B3
258,Left,1,40,100,70.0,0.489583,Eighth,E2
263,Right,0,65,100,71.0,2.989583,DottedHalf,G3_F4_B3
262,Left,1,50,100,71.0,1.989583,Half,D3_D2
267,Left,1,36,80,73.0,0.989583,Quarter,C2
269,Left,1,48,80,74.0,0.989583,Quarter,C3
268,Right,0,55,80,74.0,0.989583,Quarter,G3_E4_C4
273,Right,0,62,80,75.0,0.989583,Quarter,F3_D4_C4
272,Left,1,45,80,75.0,0.989583,Quarter,A2
278,Left,1,41,80,76.0,0.989583,Quarter,F2
276,Right,0,57,80,76.0,0.989583,Quarter,F4_C4_A3
280,Left,1,43,80,77.0,0.489583,Eighth,G2
281,Right,0,55,80,77.0,0.489583,Eighth,G3_E4_C4
284,Right,0,59,80,78.0,0.489583,Eighth,F3_D4_B3
287,Left,1,31,80,78.0,0.489583,Eighth,G1
288,Left,1,36,80,79.0,0.489583,Eighth,C2
289,Right,0,60,80,79.0,0.489583,Eighth,G3_E3_C4
292,Right,0,67,80,80.75,0.239583,Sixteenth,G4
293,Right,0,72,80,81.0,0.989583,Quarter,G5_C5
295,Left,1,67,80,81.0,0.989583,Quarter,G4_E4
297,Right,0,71,80,82.0,0.989583,Quarter,F5_B4
299,Left,1,67,80,82.0,0.989583,Quarter,G4_D4
301,Right,0,72,80,83.0,0.989583,Quarter,E5_C5
302,Left,1,60,80,83.0,0.989583,Quarter,G4_C4
307,Left,1,67,80,84.0,0.989583,Quarter,G4_A#3
305,Right,0,72,80,84.0,0.989583,Quarter,E5_C5
309,Right,0,77,80,84.125,0.239583,Sixteenth,F5
310,Right,0,76,80,84.25,0.239583,Sixteenth,E5
311,Right,0,77,80,84.375,0.239583,Sixteenth,F5
312,Right,0,76,80,84.5,0.239583,Sixteenth,E5
313,Right,0,77,80,84.625,0.239583,Sixteenth,F5
314,Right,0,74,80,84.75,0.239583,Sixteenth,D5
315,Right,0,76,80,84.875,0.114583,ThirtySecond,E5
316,Left,1,65,80,85.0,0.989583,Quarter,F4_A3
317,Right,0,84,80,85.0,0.989583,Quarter,C6_C5
320,Right,0,82,80,86.0,0.989583,Quarter,C5_A#5
321,Left,1,55,80,86.0,0.989583,Quarter,G3_E4
326,Right,0,72,80,87.0,1.739583,DottedQuarter,C5_A5
324,Left,1,65,80,87.0,1.989583,Half,F4_F3
328,Right,0,69,80,88.75,0.239583,Sixteenth,A4
330,Right,0,69,80,89.0,0.989583,Quarter,A5_A4
329,Left,1,53,80,89.0,0.989583,Quarter,F3_C4
334,Left,1,60,82,90.0,0.989583,Quarter,E3_C4
333,Right,0,69,82,90.0,0.989583,Quarter,G5_A4
339,Left,1,62,85,91.0,0.989583,Quarter,D4_D3
337,Right,0,77,85,91.0,0.989583,Quarter,F5_A4
341,Left,1,52,87,92.0,0.989583,Quarter,E3
342,Right,0,76,87,92.0,0.989583,Quarter,G4_E5_C#5
346,Right,0,65,90,93.0,0.989583,Quarter,F4_D5_A4
345,Left,1,53,90,93.0,0.989583,Quarter,F3
349,Right,0,72,92,94.0,1.989583,Quarter,D#4_C5_A4
351,Left,1,54,92,94.0,0.989583,Quarter,F#3
353,Right,0,62,95,95.0,0.989583,Quarter,G4_D4
354,Left,1,55,95,95.0,0.989583,Quarter,G3
357,Right,0,71,98,96.0,0.989583,Quarter,B4
356,Left,1,67,98,96.0,0.739583,DottedEighth,G4
358,Left,1,65,99,96.75,0.239583,Sixteenth,F4
359,Right,0,67,80,97.0,0.489583,Eighth,G4_C5
360,Left,1,64,80,97.0,0.489583,Eighth,E4
363,Right,0,71,80,98.0,0.489583,Eighth,G4_F4_B4
362,Left,1,62,80,98.0,0.489583,Eighth,D4
366,Right,0,72,80,99.0,0.489583,Eighth,G4_E4_C5
369,Left,1,60,80,99.0,0.489583,Eighth,C4
374,Right,0,74,80,100.0,0.489583,Eighth,G4_D5_D4
370,Left,1,59,80,100.0,0.489583,Eighth,G3_D3_B3_B2
379,Right,0,76,80,101.0,0.489583,Eighth,G4_E5_E4_C5
377,Left,1,48,80,101.0,0.489583,Eighth,G3_E3_C4_C3
385,Right,0,77,80,102.0,0.489583,Eighth,F5_F4_D5_A4
389,Left,1,41,80,102.0,0.489583,Eighth,F3_F2_D3_A2
397,Right,0,62,80,103.0,0.489583,Eighth,G4_D5_D4_B4
393,Left,1,43,80,103.0,0.489583,Eighth,G3_G2_D3_B2
401,Right,0,67,100,104.0,1.989583,Half,G5_G4
403,Left,1,59,100,104.5,0.489583,Eighth,F3_B3
405,Left,1,60,100,105.0,0.989583,Quarter,E3_C4
409,Left,1,52,100,106.0,1.989583,Quarter,E3_C#4
407,Right,0,70,100,106.0,1.989583,Quarter,G5_A#4
412,Left,1,53,100,107.0,1.989583,Half,F3
411,Right,0,69,100,107.0,1.989583,Half,A4
413,Left,1,62,100,108.0,0.989583,Quarter,D4
414,Right,0,77,100,108.0,0.989583,Quarter,F5
418,Left,1,55,80,109.0,0.489583,Eighth,G3
415,Right,0,72,80,109.0,0.489583,Eighth,G4_E5_C5
419,Right,0,74,80,110.0,0.489583,Eighth,F4_D5_B4
422,Left,1,43,80,110.0,0.489583,Eighth,G2
423,Left,1,48,80,111.0,0.489583,Eighth,C3
424,Right,0,72,80,111.0,0.489583,Eighth,G4_E4_C5
427,Left,1,43,80,113.0,0.489583,Eighth,G2
428,Right,0,50,80,113.0,0.489583,Eighth,F3_D3_B3
433,Left,1,36,100,114.0,0.489583,Eighth,C2
431,Right,0,60,100,114.0,0.489583,Eighth,G3_E3_C4
435,Right,0,55,80,115.0,0.489583,Eighth,G3_E3_C#4
436,Left,1,45,80,115.0,0.489583,Eighth,A2
439,Right,0,62,100,116.0,0.489583,Eighth,F3_D4_A3
442,Left,1,38,100,116.0,0.489583,Eighth,D2
443,Right,0,63,80,117.0,0.489583,Eighth,F#3_D#4_A3
446,Left,1,47,80,117.0,0.489583,Eighth,B2
448,Right,0,64,100,118.0,0.489583,Eighth,G3_E4_B3
447,Left,1,40,100,118.0,0.489583,Eighth,E2
452,Left,1,38,100,119.0,1.989583,Half,D3_D2
451,Right,0,59,100,119.0,2.989583,DottedHalf,G3_F4_B3
456,Left,1,36,80,121.0,0.989583,Quarter,C2
457,Left,1,48,80,122.0,0.989583,Quarter,C3
458,Right,0,64,80,122.0,0.989583,Quarter,G3_E4_C4
461,Right,0,62,80,123.0,0.989583,Quarter,F3_D4_C4
464,Left,1,45,80,123.0,0.989583,Quarter,A2
468,Left,1,41,80,124.0,0.989583,Quarter,F2
465,Right,0,57,80,124.0,0.989583,Quarter,F4_C4_A3
472,Left,1,43,80,125.0,0.489583,Eighth,G2
469,Right,0,64,80,125.0,0.489583,Eighth,G3_E4_C4
474,Right,0,59,80,126.0,0.489583,Eighth,F3_D4_B3
473,Left,1,31,80,126.0,0.489583,Eighth,G1
477,Left,1,36,80,127.0,0.489583,Eighth,C2
478,Right,0,60,80,127.0,0.489583,Eighth,G3_E3_C4
481,Left,1,55,80,128.75,0.239583,Sixteenth,G3
482,Left,1,52,80,129.0,0.989583,Quarter,E3_C4
484,Right,0,79,80,129.5,0.989583,Quarter,G5
485,Left,1,59,80,130.0,0.989583,Quarter,F3_B3
487,Right,0,79,80,130.5,0.989583,Quarter,G5
488,Left,1,60,80,131.0,0.989583,Quarter,E3_C4
490,Right,0,79,80,131.5,0.989583,Quarter,G5
491,Left,1,62,80,132.0,0.989583,Quarter,D4_B3
493,Right,0,79,80,132.5,0.989583,Quarter,G5
494,Left,1,64,80,133.0,0.989583,Quarter,E4_C4
496,Right,0,79,80,133.5,0.989583,Quarter,G5
497,Left,1,65,80,134.0,0.989583,Quarter,F4_D4
499,Right,0,79,80,134.5,0.989583,Quarter,G5
500,Left,1,62,80,135.0,1.989583,Half,D4_B3
502,Right,0,79,80,135.5,0.489583,Eighth,G5
503,Right,0,79,80,136.0,0.489583,Eighth,G5
504,Right,0,79,80,136.5,0.489583,Eighth,G5
505,Left,1,64,80,137.0,0.989583,Quarter,G4_E4
507,Right,0,79,80,137.5,0.989583,Quarter,G5
508,Left,1,67,80,138.0,0.989583,Quarter,G4_D4
510,Right,0,77,80,138.5,0.989583,Quarter,F5
511,Left,1,67,80,139.0,0.989583,Quarter,G4_C4
513,Right,0,76,80,139.5,0.989583,Quarter,E5
514,Left,1,68,80,140.0,0.989583,Quarter,G#4_B3
516,Right,0,74,80,140.5,0.989583,Quarter,D5
517,Left,1,57,80,141.0,0.989583,Quarter,A4_A3
519,Right,0,72,80,141.5,0.989583,Quarter,C5
520,Left,1,53,80,142.0,0.989583,Quarter,F3
521,Right,0,69,80,142.0,0.989583,Quarter,A4
522,Right,0,74,80,142.5,0.489583,Eighth,D5
524,Right,0,72,80,143.0,1.989583,Eighth,D4_C5
523,Left,1,55,80,143.0,1.989583,Half,G3
526,Right,0,71,80,143.5,0.489583,Eighth,B4
527,Right,0,69,80,144.0,0.489583,Eighth,A4
528,Right,0,67,80,144.5,0.489583,Eighth,G4
529,Left,1,52,80,145.0,0.989583,Quarter,E3_C4
530,Right,0,79,80,145.0,0.489583,Eighth,G5
532,Right,0,79,80,145.5,0.989583,Quarter,G5
533,Left,1,53,80,146.0,0.989583,Quarter,F3_B3
535,Right,0,79,80,146.5,0.989583,Quarter,G5
536,Left,1,52,80,147.0,0.989583,Quarter,E3_C4
538,Right,0,79,80,147.5,0.989583,Quarter,G5
539,Left,1,62,80,148.0,0.989583,Quarter,D4_B3
541,Right,0,79,80,148.5,0.989583,Quarter,G5
542,Left,1,64,80,149.0,0.989583,Quarter,E4_C4
544,Right,0,84,80,149.5,0.489583,Eighth,C6
547,Right,0,84,83,150.0,0.489583,Eighth,C6
545,Left,1,57,83,150.0,0.989583,Quarter,F#4_A3
548,Right,0,84,86,150.5,0.489583,Eighth,C6
550,Left,1,67,89,151.0,1.989583,Half,G4_B3
549,Right,0,84,89,151.0,0.489583,Eighth,C6
552,Right,0,83,93,151.5,0.489583,Eighth,B5
553,Right,0,81,96,152.0,0.489583,Eighth,A5
554,Right,0,79,99,152.5,0.489583,Eighth,G5
555,Left,1,69,110,153.0,0.989583,Quarter,C4_A4
557,Right,0,88,110,153.5,0.489583,Eighth,E6
558,Right,0,88,110,154.0,0.489583,Eighth,E6
559,Left,1,70,110,154.0,0.989583,Quarter,C#4_A#4
561,Right,0,88,110,154.5,0.489583,Eighth,E6
562,Right,0,88,110,155.0,0.489583,Eighth,E6
563,Left,1,62,110,155.0,1.989583,Half,D4_B4
565,Right,0,86,110,155.5,0.489583,Eighth,D6
566,Right,0,85,110,156.0,0.489583,Eighth,C#6
567,Right,0,86,110,156.5,0.989583,Quarter,D6
568,Left,1,62,110,157.0,0.989583,Quarter,D4_C5
570,Right,0,74,110,157.5,0.489583,Eighth,D5
572,Right,0,76,110,158.0,0.489583,Eighth,E5
571,Left,1,69,110,158.0,0.989583,Quarter,D4_A4
574,Right,0,78,100,158.5,0.989583,Quarter,F#5
575,Left,1,55,96,159.0,1.989583,Half,G4_G3
577,Right,0,79,91,159.5,0.489583,Eighth,G5
578,Right,0,74,86,160.0,0.489583,Eighth,D5
579,Right,0,71,81,160.5,0.489583,Eighth,B4
580,Left,1,67,80,161.0,0.989583,Quarter,G4_E4
582,Right,0,79,80,161.5,0.989583,Quarter,G5
583,Left,1,65,80,162.0,0.989583,Quarter,F4_D4
585,Right,0,79,80,162.5,0.989583,Quarter,G5
586,Left,1,60,80,163.0,0.989583,Quarter,E4_C4
588,Right,0,79,80,163.5,0.989583,Quarter,G5
589,Left,1,58,80,164.0,0.989583,Quarter,E4_A#3
591,Right,0,79,80,164.5,0.989583,Quarter,G5
592,Right,0,72,80,165.0,0.989583,Quarter,C5
593,Left,1,60,80,165.0,0.989583,Quarter,C4_A3
595,Right,0,77,80,165.5,0.989583,Quarter,F5
597,Left,1,60,80,166.0,0.989583,Quarter,G3_C4
596,Right,0,70,80,166.0,0.989583,Quarter,A#4
599,Right,0,76,80,166.5,0.989583,Quarter,E5
601,Left,1,60,80,167.0,1.989583,Half,F3_C4
600,Right,0,69,80,167.0,1.989583,Half,A4
603,Right,0,77,80,167.5,0.489583,Eighth,F5
604,Right,0,79,80,168.0,0.489583,Eighth,G5
605,Right,0,80,80,168.5,0.489583,Eighth,G#5
607,Right,0,81,80,169.0,0.489583,Eighth,A5
606,Left,1,65,80,169.0,0.989583,Quarter,F4_A4
609,Right,0,81,81,169.5,0.989583,Quarter,A5
610,Left,1,61,83,170.0,0.989583,Quarter,G4_C#4
612,Right,0,81,85,170.5,0.989583,Quarter,A5
613,Left,1,65,87,171.0,0.989583,Quarter,F4_D4
615,Right,0,81,89,171.5,0.989583,Quarter,A5
616,Left,1,55,90,172.0,0.989583,Quarter,G3_E4
618,Right,0,81,92,172.5,0.989583,Quarter,A5
619,Left,1,62,94,173.0,0.989583,Quarter,F3_D4
621,Right,0,86,96,173.5,0.989583,Quarter,D6
622,Left,1,60,98,174.0,0.989583,Quarter,F#3_C4
624,Right,0,74,99,174.5,0.989583,Quarter,D5
625,Left,1,60,110,175.0,1.989583,Quarter,G3_C4
627,Right,0,79,110,175.5,0.989583,Quarter,G5
628,Left,1,59,100,176.0,0.989583,Quarter,B3
629,Right,0,77,87,176.5,0.239583,Sixteenth,F5
630,Right,0,74,81,176.75,0.239583,Sixteenth,D5
631,Left,1,52,80,177.0,0.989583,Quarter,E3_C4
632,Right,0,72,80,177.0,0.489583,Eighth,C5
634,Right,0,79,80,177.5,0.989583,Quarter,G5
635,Left,1,53,80,178.0,0.989583,Quarter,F3_B3
637,Right,0,79,80,178.5,0.989583,Quarter,G5
638,Left,1,60,80,179.0,0.989583,Quarter,E3_C4
640,Right,0,79,80,179.5,0.989583,Quarter,G5
641,Left,1,59,80,180.0,0.989583,Quarter,D4_B3
643,Right,0,79,80,180.5,0.989583,Quarter,G5
644,Left,1,60,80,181.0,0.989583,Quarter,E4_C4
646,Right,0,79,80,181.5,0.989583,Quarter,G5
647,Left,1,65,80,182.0,0.989583,Quarter,F4_D4
649,Right,0,79,80,182.5,0.989583,Quarter,G5
650,Left,1,59,80,183.0,0.989583,Quarter,D4_B3
652,Right,0,79,80,183.5,0.989583,Quarter,G5
653,Left,1,65,80,184.0,1.989583,Quarter,G4_F4
655,Right,0,71,80,184.5,0.989583,Quarter,B4
656,Left,1,64,80,185.0,0.989583,Quarter,E4
657,Right,0,72,83,185.5,0.989583,Quarter,C5
658,Left,1,58,87,186.0,0.989583,Quarter,G4_A#3
660,Right,0,73,91,186.5,0.989583,Quarter,C#5
661,Left,1,57,95,187.0,0.989583,Quarter,G4_A3
663,Right,0,74,98,187.5,0.989583,Quarter,D5
664,Left,1,65,102,188.0,0.989583,Quarter,F4_A3
666,Right,0,81,106,188.5,0.989583,Quarter,A5
667,Left,1,64,80,189.0,0.989583,Quarter,G3_E4
669,Right,0,72,80,189.5,0.989583,Quarter,C5
670,Left,1,62,80,190.0,0.989583,Quarter,G3_D4
672,Right,0,71,80,190.5,0.489583,Eighth,B4
675,Right,0,72,80,191.0,0.489583,Eighth,C5
673,Left,1,60,80,191.0,0.989583,Quarter,C4_C3
676,Right,0,67,80,191.5,0.489583,Eighth,G4
677,Right,0,64,80,192.0,0.489583,Eighth,E4
678,Right,0,60,80,192.5,0.489583,Eighth,C4
679,Left,1,43,100,193.0,0.989583,Quarter,G2
680,Right,0,59,100,193.5,0.989583,Quarter,F3_D3_B3
683,Left,1,36,80,194.0,0.489583,Eighth,C2
684,Right,0,60,80,194.5,0.489583,Eighth,G3_E3_C4
687,Left,1,45,100,195.0,0.989583,Quarter,A2
688,Right,0,61,100,195.5,0.989583,Quarter,G3_E3_C#4
691,Left,1,38,80,196.0,0.489583,Eighth,D2
692,Right,0,62,80,196.5,0.489583,Eighth,F3_D4_A3
695,Left,1,47,100,197.0,0.989583,Quarter,B2
696,Right,0,63,100,197.5,0.989583,Quarter,F3_D#4_A3
699,Left,1,40,80,198.0,0.489583,Eighth,E2
700,Right,0,59,80,198.5,0.489583,Eighth,G3_E4_B3
703,Left,1,38,100,199.0,1.989583,Half,D3_D2
705,Right,0,65,100,199.5,0.989583,Quarter,G3_F4_B3
708,Right,0,55,80,200.5,0.989583,Quarter,G3_F4_B3
711,Left,1,36,83,201.0,0.989583,Quarter,C2
712,Right,0,59,86,201.5,0.989583,Quarter,G3_F4_B3
715,Left,1,48,90,202.0,0.989583,Quarter,C3
716,Right,0,57,93,202.5,0.989583,Quarter,E4_C4_A3
719,Left,1,45,96,203.0,0.989583,Quarter,A2
720,Right,0,60,100,203.5,0.989583,Quarter,F3_D4_C4
723,Left,1,41,103,204.0,0.989583,Quarter,F2
724,Right,0,60,106,204.5,0.989583,Quarter,F4_C4_A3
727,Left,1,43,80,205.0,0.989583,Quarter,G2
728,Right,0,55,80,205.5,0.989583,Quarter,G3_E4_C4
731,Left,1,31,80,206.0,0.989583,Quarter,G1
732,Right,0,62,80,206.5,0.489583,Eighth,F3_D4_B3
736,Right,0,60,80,207.0,0.989583,Quarter,G3_E3_C4
735,Left,1,36,80,207.0,0.989583,Quarter,C2
739,Right,0,67,80,208.5,0.489583,Eighth,G4
742,Right,0,79,80,209.0,0.489583,Eighth,G5
740,Left,1,64,80,209.0,0.989583,Quarter,G4_E4
743,Right,0,79,80,209.5,0.989583,Quarter,G5
744,Left,1,65,80,210.0,0.989583,Quarter,F4_D4
746,Right,0,79,80,210.5,0.989583,Quarter,G5
747,Left,1,64,80,211.0,0.989583,Quarter,E4_C4
749,Right,0,79,80,211.5,0.989583,Quarter,G5
750,Left,1,58,80,212.0,0.989583,Quarter,E4_A#3
752,Right,0,79,80,212.5,0.989583,Quarter,G5
753,Left,1,57,80,213.0,0.989583,Quarter,C4_A3
754,Right,0,72,80,213.0,0.989583,Quarter,C5
756,Right,0,77,80,213.5,0.989583,Quarter,F5
758,Left,1,60,80,214.0,0.989583,Quarter,G3_C4
757,Right,0,70,80,214.0,0.989583,Quarter,A#4
760,Right,0,76,80,214.5,0.989583,Quarter,E5
761,Left,1,53,80,215.0,1.989583,Half,F3_C4
763,Right,0,69,80,215.0,1.989583,Half,A4
764,Right,0,77,80,215.5,0.489583,Eighth,F5
765,Right,0,79,80,216.0,0.489583,Eighth,G5
766,Right,0,80,80,216.5,0.489583,Eighth,G#5
769,Right,0,81,80,217.0,0.489583,Eighth,A5
767,Left,1,69,80,217.0,0.989583,Quarter,F4_A4
770,Right,0,81,82,217.5,0.989583,Quarter,A5
771,Left,1,61,84,218.0,0.989583,Quarter,G4_C#4
773,Right,0,81,87,218.5,0.989583,Quarter,A5
774,Left,1,65,89,219.0,0.989583,Quarter,F4_D4
776,Right,0,81,92,219.5,0.989583,Quarter,A5
777,Left,1,64,94,220.0,0.989583,Quarter,G3_E4
779,Right,0,81,97,220.5,0.989583,Quarter,A5
780,Left,1,62,99,221.0,0.989583,Quarter,F3_D4
782,Right,0,86,102,221.5,0.989583,Quarter,D6
783,Left,1,60,104,222.0,0.989583,Quarter,F#3_C4
785,Right,0,74,107,222.5,0.989583,Quarter,D5
786,Left,1,55,109,223.0,1.989583,Half,G3_C4
788,Right,0,79,110,223.5,0.989583,Quarter,G5
789,Left,1,59,99,224.0,0.989583,Quarter,B3
790,Right,0,77,87,224.5,0.239583,Sixteenth,F5
791,Right,0,74,81,224.75,0.239583,Sixteenth,D5
793,Left,1,60,80,225.0,0.989583,Quarter,E3_C4
792,Right,0,72,80,225.0,0.489583,Eighth,C5
795,Right,0,79,80,225.5,0.989583,Quarter,G5
796,Left,1,53,80,226.0,0.989583,Quarter,F3_B3
798,Right,0,79,80,226.5,0.989583,Quarter,G5
799,Left,1,60,80,227.0,0.989583,Quarter,E3_C4
801,Right,0,79,80,227.5,0.989583,Quarter,G5
802,Left,1,59,80,228.0,0.989583,Quarter,D4_B3
804,Right,0,79,80,228.5,0.989583,Quarter,G5
805,Left,1,60,80,229.0,0.989583,Quarter,E4_C4
807,Right,0,79,80,229.5,0.989583,Quarter,G5
808,Left,1,62,80,230.0,0.989583,Quarter,F4_D4
810,Right,0,79,80,230.5,0.989583,Quarter,G5
811,Left,1,62,80,231.0,0.989583,Quarter,D4_B3
813,Right,0,79,80,231.5,0.989583,Quarter,G5
814,Left,1,65,80,232.0,1.989583,Quarter,G4_F4
816,Right,0,71,80,232.5,0.989583,Quarter,B4
817,Left,1,64,80,233.0,0.989583,Quarter,E4
818,Right,0,72,80,233.5,0.989583,Quarter,C5
819,Left,1,58,80,234.0,0.989583,Quarter,G4_A#3
821,Right,0,73,80,234.5,0.989583,Quarter,C#5
822,Left,1,57,80,235.0,0.989583,Quarter,G4_A3
824,Right,0,74,80,235.5,0.989583,Quarter,D5
825,Left,1,65,80,236.0,0.989583,Quarter,F4_A3
827,Right,0,81,80,236.5,0.989583,Quarter,A5
828,Left,1,64,80,237.0,0.989583,Quarter,G3_E4
830,Right,0,72,80,237.5,0.989583,Quarter,C5
831,Left,1,62,80,238.0,0.989583,Quarter,G3_D4
833,Right,0,71,80,238.5,0.489583,Eighth,B4
835,Left,1,48,80,239.0,0.989583,Quarter,C4_C3
834,Right,0,72,80,239.0,0.489583,Eighth,C5
837,Right,0,67,80,239.5,0.489583,Eighth,G4
838,Right,0,64,80,240.0,0.489583,Eighth,E4
839,Right,0,60,80,240.5,0.489583,Eighth,C4
840,Left,1,43,100,241.0,0.989583,Quarter,G2
841,Right,0,59,100,241.5,0.989583,Quarter,F3_D3_B3
844,Left,1,36,80,242.0,0.489583,Eighth,C2
845,Right,0,55,80,242.5,0.489583,Eighth,G3_E3_C4
848,Left,1,45,100,243.0,0.989583,Quarter,A2
849,Right,0,52,100,243.5,0.989583,Quarter,G3_E3_C#4
852,Left,1,38,80,244.0,0.489583,Eighth,D2
853,Right,0,53,80,244.5,0.489583,Eighth,F3_D4_A3
856,Left,1,47,100,245.0,0.989583,Quarter,B2
857,Right,0,63,100,245.5,0.989583,Quarter,F3_D#4_A3
860,Left,1,40,80,246.0,0.489583,Eighth,E2
861,Right,0,64,80,246.5,0.489583,Eighth,G3_E4_B3
864,Left,1,50,100,247.0,1.989583,Half,D3_D2
866,Right,0,59,100,247.5,0.989583,Quarter,G3_F4_B3
869,Right,0,55,100,248.5,0.989583,Quarter,G3_F4_B3
872,Left,1,36,80,249.0,0.989583,Quarter,C2
873,Right,0,55,80,249.5,0.989583,Quarter,G3_F4_B3
876,Left,1,48,80,250.0,0.989583,Quarter,C3
877,Right,0,60,80,250.5,0.989583,Quarter,E4_C4_A3
880,Left,1,45,80,251.0,0.989583,Quarter,A2
881,Right,0,62,80,251.5,0.989583,Quarter,F3_D4_C4
884,Left,1,41,80,252.0,0.989583,Quarter,F2
885,Right,0,57,80,252.5,0.989583,Quarter,F4_C4_A3
888,Left,1,43,80,253.0,0.989583,Quarter,G2
889,Right,0,64,80,253.5,0.989583,Quarter,G3_E4_C4
892,Left,1,31,80,254.0,0.989583,Quarter,G1
893,Right,0,62,80,254.5,0.489583,Eighth,F3_D4_B3
896,Right,0,52,80,255.0,0.989583,Quarter,G3_E3_C4
899,Left,1,36,80,255.0,0.989583,Quarter,C2
900,Right,0,67,80,256.5,0.489583,Eighth,G4
901,Right,0,72,80,257.0,0.489583,Eighth,C5
902,Left,1,48,80,257.0,0.489583,Eighth,C3
903,Right,0,72,80,257.5,0.489583,Eighth,G4_C5
904,Left,1,64,80,257.5,0.489583,Eighth,E4
906,Left,1,48,80,258.0,0.489583,Eighth,C3
908,Right,0,71,80,258.5,0.489583,Eighth,G4_F4_B4
907,Left,1,62,80,258.5,0.489583,Eighth,D4
911,Left,1,48,80,259.0,0.489583,Eighth,C3
913,Left,1,60,80,259.5,0.489583,Eighth,C4
912,Right,0,72,80,259.5,0.489583,Eighth,G4_E4_C5
916,Left,1,48,80,260.0,0.489583,Eighth,C3
920,Left,1,59,80,260.5,0.489583,Eighth,B3
917,Right,0,74,80,260.5,0.489583,Eighth,G4_F4_D5
921,Left,1,48,80,261.0,0.489583,Eighth,C3
922,Left,1,58,80,261.5,0.489583,Eighth,A#3
923,Right,0,76,80,261.5,0.489583,Eighth,G4_E5_C5
926,Left,1,48,80,262.0,0.489583,Eighth,C3
929,Left,1,57,80,262.5,0.489583,Eighth,A3
927,Right,0,65,80,262.5,0.489583,Eighth,F5_F4_C5
931,Left,1,48,80,263.0,0.489583,Eighth,C3
933,Right,0,74,80,263.5,0.489583,Eighth,F4_D5_C5
932,Left,1,56,80,263.5,0.489583,Eighth,G#3
936,Left,1,48,80,264.0,0.489583,Eighth,C3
938,Right,0,74,80,264.5,0.489583,Eighth,F4_D5_B4
937,Left,1,55,80,264.5,0.489583,Eighth,G3
941,Left,1,36,80,265.0,0.489583,Eighth,C2
943,Right,0,79,80,265.5,0.489583,Eighth,G5_G4_D5_B4
942,Left,1,53,80,265.5,0.489583,Eighth,F3
947,Left,1,36,80,266.0,0.489583,Eighth,C2
949,Right,0,72,80,266.5,0.489583,Eighth,G5_G4_C5
948,Left,1,52,80,266.5,0.489583,Eighth,E3
952,Left,1,36,80,267.0,0.489583,Eighth,C2
955,Left,1,50,80,267.5,0.489583,Eighth,D3
953,Right,0,77,80,267.5,0.489583,Eighth,G5_F5_B4
957,Left,1,36,80,268.0,0.489583,Eighth,C2
960,Left,1,48,80,268.5,0.489583,Eighth,C3
958,Right,0,76,80,268.5,0.489583,Eighth,G#5_E5_A#4
962,Left,1,41,80,269.0,0.489583,Eighth,F2
965,Left,1,53,80,269.5,0.489583,Eighth,F3
963,Right,0,81,80,269.5,0.489583,Eighth,F5_A5_A4
967,Left,1,38,80,270.0,0.489583,Eighth,D2
970,Left,1,50,80,270.5,0.489583,Eighth,D3
968,Right,0,69,80,270.5,0.489583,Eighth,F5_A5_A4
972,Left,1,43,80,271.0,0.489583,Eighth,G2
974,Right,0,68,100,271.5,1.489583,DottedQuarter,G#4_D5_B4
973,Left,1,55,100,271.5,1.489583,DottedQuarter,G3
977,Right,0,67,80,272.5,0.239583,Sixteenth,G4
978,Right,0,65,80,272.75,0.239583,Sixteenth,F4
979,Left,1,48,80,273.0,0.489583,Eighth,C3
980,Right,0,72,80,273.5,0.489583,Eighth,G4_C5
981,Left,1,64,80,273.5,0.489583,Eighth,E4
983,Left,1,48,80,274.0,0.489583,Eighth,C3
984,Left,1,62,80,274.5,0.489583,Eighth,D4
985,Right,0,67,80,274.5,0.489583,Eighth,G4_F4_B4
988,Left,1,48,80,275.0,0.489583,Eighth,C3
989,Right,0,72,80,275.5,0.489583,Eighth,G4_E4_C5
990,Left,1,60,80,275.5,0.489583,Eighth,C4
993,Left,1,47,80,276.0,0.489583,Eighth,B2
994,Right,0,67,80,276.5,0.489583,Eighth,G4_D5_D4
996,Left,1,59,80,276.5,0.489583,Eighth,B3
998,Left,1,48,80,277.0,0.489583,Eighth,C3
999,Right,0,64,80,277.5,0.489583,Eighth,G4_E5_E4_C5
1002,Left,1,60,80,277.5,0.489583,Eighth,C4
1004,Left,1,45,80,278.0,0.489583,Eighth,A2
1006,Right,0,78,80,278.5,0.489583,Eighth,F#5_F#4_D#5_C5
1005,Left,1,57,80,278.5,0.489583,Eighth,A3
1010,Left,1,47,80,279.0,0.489583,Eighth,B2
1011,Right,0,79,100,279.5,0.989583,Quarter,G5_G4_D5
1014,Left,1,62,100,279.5,0.989583,Quarter,D4_B3
1016,Left,1,62,80,280.5,0.489583,Eighth,D4_B3
1018,Right,0,67,80,280.5,0.489583,Eighth,G5_G4_D5
1021,Left,1,50,80,281.0,0.489583,Eighth,D3
1022,Right,0,81,80,281.5,0.489583,Eighth,G5_E5_A5_A4
1023,Left,1,60,80,281.5,0.489583,Eighth,C4
1027,Left,1,49,80,282.0,0.489583,Eighth,C#3
1029,Left,1,61,80,282.5,0.489583,Eighth,C#4
1028,Right,0,82,80,282.5,0.489583,Eighth,G5_E5_A#5_A#4
1033,Left,1,50,80,283.0,0.489583,Eighth,D3
1036,Right,0,83,100,283.5,0.989583,Quarter,G5_D5_B5_B4
1034,Left,1,62,100,283.5,0.989583,Quarter,G4_D4
1040,Right,0,71,80,284.5,0.489583,Eighth,G5_D5_B5_B4
1041,Left,1,67,80,284.5,0.489583,Eighth,G4_D4
1046,Left,1,50,80,285.0,0.489583,Eighth,D3
1047,Right,0,78,80,285.5,0.489583,Eighth,F#5_C6_C5
1049,Left,1,62,80,285.5,0.489583,Eighth,D4
1051,Left,1,50,80,286.0,0.489583,Eighth,D3
1054,Left,1,62,80,286.5,0.489583,Eighth,D4
1052,Right,0,78,80,286.5,0.489583,Eighth,F#5_C5_A5
1056,Left,1,55,80,287.0,0.989583,Quarter,G3_G2
1058,Right,0,79,105,287.5,0.989583,Quarter,G5
1059,Right,0,74,80,288.5,0.15625,TripletSixteenth,D5
1060,Right,0,71,80,288.666667,0.15625,TripletSixteenth,B4
1061,Right,0,67,80,288.833333,0.15625,TripletSixteenth,G4
1062,Left,1,55,80,289.0,0.489583,Eighth,G3
1066,Right,0,67,80,289.5,0.489583,Eighth,G5_G4_C#5_A#4
1063,Left,1,58,80,289.5,0.489583,Eighth,E4_C#4_A#3
1070,Left,1,55,80,290.0,0.489583,Eighth,G3
1074,Right,0,67,80,290.5,0.489583,Eighth,G4_F5_C#5_A#4
1071,Left,1,58,80,290.5,0.489583,Eighth,E4_C#4_A#3
1078,Left,1,55,80,291.0,0.489583,Eighth,G3
1081,Left,1,64,80,291.5,0.489583,Eighth,E4_C#4_A#3
1079,Right,0,70,80,291.5,0.489583,Eighth,G4_E5_C#5_A#4
1086,Left,1,55,80,292.0,0.489583,Eighth,G3
1088,Left,1,60,80,292.5,0.489583,Eighth,E4_C4_A#3
1087,Right,0,67,80,292.5,0.489583,Eighth,G4_E5_C5_A#4
1094,Left,1,57,80,293.0,0.489583,Eighth,A3
1095,Left,1,60,80,293.5,0.489583,Eighth,F4_C4
1097,Right,0,84,80,293.5,0.489583,Eighth,F5_C6_C5
1100,Left,1,55,80,294.0,0.489583,Eighth,G3
1104,Left,1,64,80,294.5,0.489583,Eighth,E4_C4
1101,Right,0,82,80,294.5,0.489583,Eighth,E5_C5_A#5_A#4
1107,Left,1,53,80,295.0,0.489583,Eighth,F3
1112,Left,1,65,80,295.5,0.489583,Eighth,F4_C4
1108,Right,0,77,80,295.5,0.489583,Eighth,F5_C5_A5_A4
1114,Left,1,53,80,296.0,0.489583,Eighth,F3
1115,Left,1,61,80,296.5,0.489583,Eighth,F4_C#4
1117,Right,0,69,80,296.5,0.489583,Eighth,F5_C#5_A5_A4
1121,Left,1,53,80,297.0,0.489583,Eighth,F3
1122,Right,0,81,82,297.5,0.489583,Eighth,F5_D5_A5_A4
1124,Left,1,62,82,297.5,0.489583,Eighth,F4_D4
1128,Left,1,53,84,298.0,0.489583,Eighth,F3
1132,Right,0,79,86,298.5,0.489583,Eighth,G5_G4_E5_C#5_A#4
1129,Left,1,58,86,298.5,0.489583,Eighth,E4_C#4_A#3
1137,Left,1,53,89,299.0,0.489583,Eighth,F3
1141,Left,1,62,91,299.5,0.489583,Eighth,D4_A3
1138,Right,0,74,91,299.5,0.489583,Eighth,F5_F4_D5_A4
1144,Left,1,41,93,300.0,0.489583,Eighth,F2
1147,Right,0,64,96,300.5,0.489583,Eighth,G4_E5_E4_C#5_A#4
1145,Left,1,55,96,300.5,0.489583,Eighth,G3_A#3
1152,Left,1,41,98,301.0,0.489583,Eighth,F2
1153,Right,0,74,100,301.5,0.489583,Eighth,F4_D5_D4_A4
1155,Left,1,57,100,301.5,0.489583,Eighth,F3_A3
1159,Left,1,42,103,302.0,0.489583,Eighth,F#2
1161,Left,1,57,105,302.5,0.489583,Eighth,F#3_A3
1160,Right,0,72,105,302.5,0.489583,Eighth,F#4_D#4_C5_C4_A4
1167,Left,1,43,107,303.0,0.489583,Eighth,G2
1168,Right,0,67,109,303.5,1.489583,DottedQuarter,G4_D4_B4_B3
1170,Left,1,55,109,303.5,0.989583,Quarter,G3
1173,Left,1,53,80,304.5,0.15625,TripletSixteenth,F3
1174,Left,1,52,80,304.666667,0.15625,TripletSixteenth,E3
1175,Left,1,50,80,304.833333,0.15625,TripletSixteenth,D3
1176,Left,1,48,80,305.0,0.489583,Eighth,C3
1177,Left,1,60,80,305.5,0.489583,Eighth,C4
1178,Right,0,72,80,305.5,0.489583,Eighth,G4_E4_C5
1181,Left,1,48,80,306.0,0.489583,Eighth,C3
1182,Left,1,62,80,306.5,0.489583,Eighth,D4
1183,Right,0,71,80,306.5,0.489583,Eighth,G4_F4_B4
1186,Left,1,48,80,307.0,0.489583,Eighth,C3
1190,Left,1,60,80,307.5,0.489583,Eighth,C4
1187,Right,0,72,80,307.5,0.489583,Eighth,G4_E4_C5
1191,Left,1,48,80,308.0,0.489583,Eighth,C3
1192,Left,1,59,80,308.5,0.489583,Eighth,B3
1193,Right,0,65,80,308.5,0.489583,Eighth,G4_F4_D5
1196,Left,1,48,80,309.0,0.489583,Eighth,C3
1198,Right,0,76,80,309.5,0.489583,Eighth,G4_E5_C5
1197,Left,1,58,80,309.5,0.489583,Eighth,A#3
1201,Left,1,48,80,310.0,0.489583,Eighth,C3
1202,Left,1,57,80,310.5,0.489583,Eighth,A3
1203,Right,0,77,80,310.5,0.489583,Eighth,F5_F4_C5
1206,Left,1,48,80,311.0,0.489583,Eighth,C3
1207,Left,1,56,80,311.5,0.489583,Eighth,G#3
1208,Right,0,74,80,311.5,0.489583,Eighth,F4_D5_C5
1211,Left,1,48,80,312.0,0.489583,Eighth,C3
1213,Right,0,65,80,312.5,0.489583,Eighth,F4_D5_B4
1212,Left,1,55,80,312.5,0.489583,Eighth,G3
1216,Left,1,53,80,313.0,0.489583,Eighth,F3
1221,Left,1,62,84,313.5,0.489583,Eighth,D4_B3
1217,Right,0,71,84,313.5,0.489583,Eighth,G5_G4_D5_B4
1223,Left,1,52,88,314.0,0.489583,Eighth,E3
1228,Left,1,64,92,314.5,0.489583,Eighth,E4_C#4_A#3
1224,Right,0,70,92,314.5,0.489583,Eighth,G5_G4_C#5_A#4
1231,Left,1,53,97,315.0,0.489583,Eighth,F3
1233,Right,0,67,101,315.5,0.489583,Eighth,G5_G4_C#5_A#4
1232,Left,1,58,101,315.5,0.489583,Eighth,E4_C#4_A#3
1239,Left,1,53,105,316.0,0.489583,Eighth,F3
1240,Right,0,65,109,316.5,0.489583,Eighth,F5_F4_D5_A4
1241,Left,1,62,109,316.5,0.489583,Eighth,D4_A3
1246,Left,1,43,100,317.0,0.489583,Eighth,G2
1248,Right,0,67,98,317.5,0.489583,Eighth,G4_E5_E4_C5
1247,Left,1,55,98,317.5,0.489583,Eighth,G3_C4
1253,Left,1,43,95,318.0,0.489583,Eighth,G2
1254,Left,1,55,93,318.5,0.489583,Eighth,G3_B3
1255,Right,0,65,93,318.5,0.489583,Eighth,G4_F4_D5
1259,Left,1,48,90,319.0,0.489583,Eighth,C3
1260,Right,0,72,103,319.5,0.989583,Quarter,C5
1261,Right,0,67,82,320.5,0.15625,TripletSixteenth,G4
1262,Right,0,64,81,320.666667,0.15625,TripletSixteenth,E4
1263,Right,0,60,81,320.833333,0.15625,TripletSixteenth,C4
1264,Left,1,43,80,321.0,0.489583,Eighth,G2
1265,Right,0,50,80,321.5,0.489583,Eighth,F3_D3_B3
1268,Left,1,36,80,322.0,0.489583,Eighth,C2
1269,Right,0,60,80,322.5,0.489583,Eighth,G3_E3_C4
1272,Left,1,45,80,323.0,0.489583,Eighth,A2
1273,Right,0,55,80,323.5,0.489583,Eighth,G3_E3_C#4
1276,Left,1,38,80,324.0,0.489583,Eighth,D2
1277,Right,0,62,80,324.5,0.489583,Eighth,F3_D4_A3
1280,Left,1,47,80,325.0,0.489583,Eighth,B2
1281,Right,0,63,80,325.5,0.489583,Eighth,F#3_D#4_A3
1284,Left,1,40,80,326.0,0.489583,Eighth,E2
1285,Right,0,64,80,326.5,0.489583,Eighth,G3_E4_B3
1288,Left,1,50,100,327.0,1.989583,Half,D3_D2
1290,Right,0,55,100,327.5,0.489583,Eighth,G3_F4_B3
1293,Right,0,59,100,328.0,0.489583,Eighth,G3_F4_B3
1296,Right,0,59,100,328.5,0.489583,Eighth,G3_F4_B3
1299,Left,1,36,100,329.0,0.489583,Eighth,C2
1300,Right,0,55,98,329.5,0.489583,Eighth,G3_F4_B3
1303,Left,1,48,95,330.0,0.489583,Eighth,C3
1304,Right,0,55,92,330.5,0.489583,Eighth,G3_E4_C4
1307,Left,1,45,89,331.0,0.489583,Eighth,A2
1308,Right,0,53,86,331.5,0.489583,Eighth,F3_D4_C4
1311,Left,1,41,83,332.0,0.489583,Eighth,F2
1312,Right,0,57,81,332.5,0.489583,Eighth,F4_C4_A3
1315,Left,1,43,80,333.0,0.489583,Eighth,G2
1316,Right,0,55,80,333.5,0.489583,Eighth,G3_E4_C4
1319,Left,1,31,80,334.0,0.489583,Eighth,G1
1320,Right,0,59,80,334.5,0.489583,Eighth,F3_D4_B3
1323,Left,1,36,80,335.0,0.489583,Eighth,C2
1324,Right,0,60,80,335.5,0.489583,Eighth,C4
1325,Right,0,67,80,336.0,0.489583,Eighth,G4
1326,Right,0,67,80,336.5,0.489583,Eighth,G4
1327,Left,1,55,80,337.0,0.489583,Eighth,G3
1330,Left,1,58,80,337.5,0.489583,Eighth,E4_C#4_A#3
1328,Right,0,67,80,337.5,0.489583,Eighth,G5_G4_C#5_A#4
1335,Left,1,55,80,338.0,0.489583,Eighth,G3
1338,Left,1,64,80,338.5,0.489583,Eighth,E4_C#4_A#3
1336,Right,0,70,80,338.5,0.489583,Eighth,G4_F5_C#5_A#4
1343,Left,1,55,80,339.0,0.489583,Eighth,G3
1346,Right,0,76,80,339.5,0.489583,Eighth,G4_E5_C#5_A#4
1344,Left,1,64,80,339.5,0.489583,Eighth,E4_C#4_A#3
1351,Left,1,55,80,340.0,0.489583,Eighth,G3
1356,Left,1,58,80,340.5,0.489583,Eighth,E4_C4_A#3
1352,Right,0,76,80,340.5,0.489583,Eighth,G4_E5_C5_A#4
1359,Left,1,57,80,341.0,0.489583,Eighth,A3
1363,Left,1,60,80,341.5,0.489583,Eighth,F4_C4
1360,Right,0,72,80,341.5,0.489583,Eighth,F5_C6_C5
1365,Left,1,55,80,342.0,0.489583,Eighth,G3
1370,Left,1,60,80,342.5,0.489583,Eighth,E4_C4
1366,Right,0,76,80,342.5,0.489583,Eighth,E5_C5_A#5_A#4
1372,Left,1,53,80,343.0,0.489583,Eighth,F3
1374,Left,1,60,80,343.5,0.489583,Eighth,F4_C4
1373,Right,0,81,80,343.5,0.489583,Eighth,F5_C5_A5_A4
1379,Left,1,53,80,344.0,0.489583,Eighth,F3
1380,Right,0,81,80,344.5,0.489583,Eighth,F5_C#5_A5_A4
1383,Left,1,65,80,344.5,0.489583,Eighth,F4_C#4
1386,Left,1,53,80,345.0,0.489583,Eighth,F3
1387,Right,0,69,81,345.5,0.489583,Eighth,F5_D5_A5_A4
1391,Left,1,62,81,345.5,0.489583,Eighth,F4_D4
1393,Left,1,53,83,346.0,0.489583,Eighth,F3
1397,Right,0,79,84,346.5,0.489583,Eighth,G5_G4_E5_C#5_A#4
1394,Left,1,58,84,346.5,0.489583,Eighth,E4_C#4_A#3
1402,Left,1,53,86,347.0,0.489583,Eighth,F3
1403,Right,0,65,87,347.5,0.489583,Eighth,F5_F4_D5_A4
1406,Left,1,57,87,347.5,0.489583,Eighth,D4_A3
1409,Left,1,41,89,348.0,0.489583,Eighth,F2
1410,Right,0,76,90,348.5,0.489583,Eighth,G4_E5_E4_C#5_A#4
1414,Left,1,55,90,348.5,0.489583,Eighth,G3_A#3
1417,Left,1,41,92,349.0,0.489583,Eighth,F2
1418,Right,0,62,93,349.5,0.489583,Eighth,F4_D5_D4_A4
1421,Left,1,53,93,349.5,0.489583,Eighth,F3_A3
1424,Left,1,42,95,350.0,0.489583,Eighth,F#2
1429,Left,1,54,96,350.5,0.489583,Eighth,F#3_A3
1425,Right,0,63,96,350.5,0.489583,Eighth,F#4_D#4_C5_C4_A4
1432,Left,1,43,98,351.0,0.489583,Eighth,G2
1433,Left,1,55,99,351.5,0.989583,Quarter,G3
1434,Right,0,71,99,351.5,1.489583,DottedQuarter,G4_D4_B4_B3
1438,Left,1,53,80,352.5,0.15625,TripletSixteenth,F3
1439,Left,1,52,80,352.666667,0.15625,TripletSixteenth,E3
1440,Left,1,50,80,352.833333,0.15625,TripletSixteenth,D3
1441,Left,1,48,80,353.0,0.489583,Eighth,C3
1442,Left,1,60,80,353.5,0.489583,Eighth,C4
1443,Right,0,64,80,353.5,0.489583,Eighth,G4_E4_C5
1446,Left,1,48,80,354.0,0.489583,Eighth,C3
1450,Left,1,62,80,354.5,0.489583,Eighth,D4
1447,Right,0,71,80,354.5,0.489583,Eighth,G4_F4_B4
1451,Left,1,48,80,355.0,0.489583,Eighth,C3
1454,Left,1,60,80,355.5,0.489583,Eighth,C4
1452,Right,0,72,80,355.5,0.489583,Eighth,G4_E4_C5
1456,Left,1,48,80,356.0,0.489583,Eighth,C3
1457,Right,0,65,80,356.5,0.489583,Eighth,G4_F4_D5
1459,Left,1,59,80,356.5,0.489583,Eighth,B3
1461,Left,1,48,80,357.0,0.489583,Eighth,C3
1462,Right,0,76,80,357.5,0.489583,Eighth,G4_E5_C5
1465,Left,1,58,80,357.5,0.489583,Eighth,A#3
1466,Left,1,48,80,358.0,0.489583,Eighth,C3
1467,Left,1,57,80,358.5,0.489583,Eighth,A3
1468,Right,0,65,80,358.5,0.489583,Eighth,F5_F4_C5
1471,Left,1,48,80,359.0,0.489583,Eighth,C3
1472,Right,0,65,80,359.5,0.489583,Eighth,F4_D5_C5
1475,Left,1,56,80,359.5,0.489583,Eighth,G#3
1476,Left,1,48,80,360.0,0.489583,Eighth,C3
1477,Right,0,74,80,360.5,0.489583,Eighth,F4_D5_B4
1478,Left,1,55,80,360.5,0.489583,Eighth,G3
1481,Left,1,53,80,361.0,0.489583,Eighth,F3
1482,Right,0,67,84,361.5,0.489583,Eighth,G5_G4_D5_B4
1483,Left,1,59,84,361.5,0.489583,Eighth,D4_B3
1488,Left,1,52,88,362.0,0.489583,Eighth,E3
1491,Right,0,67,92,362.5,0.489583,Eighth,G5_G4_C#5_A#4
1489,Left,1,58,92,362.5,0.489583,Eighth,E4_C#4_A#3
1496,Left,1,53,97,363.0,0.489583,Eighth,F3
1497,Left,1,58,101,363.5,0.489583,Eighth,E4_C#4_A#3
1500,Right,0,73,101,363.5,0.489583,Eighth,G5_G4_C#5_A#4
1504,Left,1,53,105,364.0,0.489583,Eighth,F3
1505,Right,0,69,109,364.5,0.489583,Eighth,F5_F4_D5_A4
1507,Left,1,57,109,364.5,0.489583,Eighth,D4_A3
1511,Left,1,43,100,365.0,0.489583,Eighth,G2
1512,Left,1,55,98,365.5,0.489583,Eighth,G3_C4
1514,Right,0,72,98,365.5,0.489583,Eighth,G4_E5_E4_C5
1518,Left,1,43,95,366.0,0.489583,Eighth,G2
1519,Left,1,55,93,366.5,0.489583,Eighth,G3_B3
1521,Right,0,65,93,366.5,0.489583,Eighth,G4_F4_D5
1524,Left,1,48,90,367.0,0.489583,Eighth,C3
1525,Right,0,72,104,367.5,0.989583,Quarter,C5
1526,Right,0,67,82,368.5,0.15625,TripletSixteenth,G4
1527,Right,0,64,81,368.666667,0.15625,TripletSixteenth,E4
1528,Right,0,60,81,368.833333,0.15625,TripletSixteenth,C4
1529,Left,1,43,80,369.0,0.489583,Eighth,G2
1530,Right,0,53,80,369.5,0.489583,Eighth,F3_D3_B3
1533,Left,1,36,80,370.0,0.489583,Eighth,C2
1534,Right,0,52,80,370.5,0.489583,Eighth,G3_E3_C4
1537,Left,1,45,80,371.0,0.489583,Eighth,A2
1538,Right,0,61,80,371.5,0.489583,Eighth,G3_E3_C#4
1541,Left,1,38,80,372.0,0.489583,Eighth,D2
1542,Right,0,62,80,372.5,0.489583,Eighth,F3_D4_A3
1545,Left,1,47,80,373.0,0.489583,Eighth,B2
1546,Right,0,63,80,373.5,0.489583,Eighth,F#3_D#4_A3
1549,Left,1,40,80,374.0,0.489583,Eighth,E2
1550,Right,0,55,80,374.5,0.489583,Eighth,G3_E4_B3
1553,Left,1,50,100,375.0,1.989583,Half,D3_D2
1555,Right,0,55,100,375.5,0.489583,Eighth,G3_F4_B3
1558,Right,0,65,100,376.0,0.489583,Eighth,G3_F4_B3
1561,Right,0,65,100,376.5,0.489583,Eighth,G3_F4_B3
1564,Left,1,36,100,377.0,0.489583,Eighth,C2
1565,Right,0,59,98,377.5,0.489583,Eighth,G3_F4_B3
1568,Left,1,48,95,378.0,0.489583,Eighth,C3
1569,Right,0,55,92,378.5,0.489583,Eighth,G3_E4_C4
1572,Left,1,45,89,379.0,0.489583,Eighth,A2
1573,Right,0,60,86,379.5,0.489583,Eighth,F3_D4_C4
1576,Left,1,41,83,380.0,0.489583,Eighth,F2
1577,Right,0,57,81,380.5,0.489583,Eighth,F4_C4_A3
1580,Left,1,43,80,381.0,0.489583,Eighth,G2
1581,Right,0,64,80,381.5,0.489583,Eighth,G3_E4_C4
1584,Left,1,31,80,382.0,0.489583,Eighth,G1
1585,Right,0,62,80,382.5,0.489583,Eighth,F3_D4_B3
1588,Left,1,36,80,383.0,0.489583,Eighth,C2
1589,Right,0,60,80,383.5,0.489583,Eighth,C4
1590,Right,0,72,80,384.0,0.489583,Eighth,C5
1591,Right,0,72,80,384.5,0.489583,Eighth,C5
1592,Left,1,43,80,385.0,0.489583,Eighth,G2
1593,Right,0,62,80,385.5,0.489583,Eighth,F4_D4_C5
1596,Left,1,55,80,386.0,0.489583,Eighth,G3
1597,Right,0,62,80,386.5,0.489583,Eighth,F4_D4_B4
1600,Left,1,55,80,387.0,0.489583,Eighth,G3
1601,Right,0,68,80,387.5,0.489583,Eighth,G#4_F4_D4
1604,Left,1,55,80,388.0,0.489583,Eighth,G3
1605,Right,0,67,80,388.5,0.489583,Eighth,G4_F4_D4
1608,Left,1,43,80,389.0,0.489583,Eighth,G2
1609,Right,0,72,80,389.5,0.489583,Eighth,F5_D5_C5
1612,Left,1,55,80,390.0,0.489583,Eighth,G3
1613,Right,0,71,80,390.5,0.489583,Eighth,F5_D5_B4
1616,Left,1,55,80,391.0,0.489583,Eighth,G3
1617,Right,0,77,80,391.5,0.489583,Eighth,G#4_F5_D5
1620,Left,1,55,80,392.0,0.489583,Eighth,G3
1621,Right,0,77,80,392.5,0.489583,Eighth,G4_F5_D5
1624,Left,1,43,80,393.0,0.489583,Eighth,G2
1625,Right,0,80,78,393.5,0.489583,Eighth,G#5_D5_B4
1628,Left,1,55,76,394.0,0.489583,Eighth,G3
1629,Right,0,71,74,394.5,0.489583,Eighth,G5_D5_B4
1632,Left,1,55,72,395.0,0.489583,Eighth,G3
1633,Right,0,74,70,395.5,0.489583,Eighth,F#5_D5_B4
1636,Left,1,55,68,396.0,0.489583,Eighth,G3
1637,Right,0,77,66,396.5,0.489583,Eighth,F5_D5_B4
1640,Left,1,55,65,397.0,0.489583,Eighth,G3
1641,Right,0,77,65,397.5,0.489583,Eighth,F5_D5_A#4
1644,Left,1,55,65,398.0,0.489583,Eighth,G3
1645,Right,0,77,65,398.5,0.489583,Eighth,F5_D5_A4
1648,Left,1,55,65,399.0,0.489583,Eighth,G3
1649,Right,0,74,65,399.5,0.489583,Eighth,G#4_F5_D5
1652,Left,1,55,65,400.0,0.489583,Eighth,G3
1653,Right,0,77,65,400.5,0.489583,Eighth,G4_F5_D5
1656,Left,1,60,80,401.0,0.989583,Quarter,C4
1657,Right,0,64,80,401.25,0.239583,Sixteenth,E4
1658,Right,0,72,80,401.5,0.239583,Sixteenth,C5
1659,Right,0,67,80,401.75,0.239583,Sixteenth,G4
1660,Left,1,62,80,402.0,0.989583,Quarter,D4
1661,Right,0,65,80,402.25,0.239583,Sixteenth,F4
1662,Right,0,71,80,402.5,0.239583,Sixteenth,B4
1663,Right,0,67,80,402.75,0.239583,Sixteenth,G4
1664,Left,1,64,80,403.0,0.989583,Quarter,E4
1665,Right,0,66,80,403.25,0.239583,Sixteenth,F#4
1666,Right,0,72,80,403.5,0.239583,Sixteenth,C5
1667,Right,0,67,80,403.75,0.239583,Sixteenth,G4
1668,Left,1,59,80,404.0,0.989583,Quarter,B3
1669,Right,0,67,80,404.25,0.239583,Sixteenth,G4
1670,Right,0,74,80,404.5,0.239583,Sixteenth,D5
1671,Right,0,67,80,404.75,0.239583,Sixteenth,G4
1672,Left,1,60,80,405.0,0.989583,Quarter,C4
1673,Right,0,67,80,405.25,0.239583,Sixteenth,G4
1674,Right,0,76,80,405.5,0.239583,Sixteenth,E5
1675,Right,0,72,80,405.75,0.239583,Sixteenth,C5
1676,Left,1,53,80,406.0,0.989583,Quarter,F3
1677,Right,0,69,80,406.25,0.239583,Sixteenth,A4
1678,Right,0,77,80,406.5,0.239583,Sixteenth,F5
1679,Right,0,74,80,406.75,0.239583,Sixteenth,D5
1680,Left,1,55,80,407.0,1.489583,DottedQuarter,G3
1681,Right,0,67,80,407.25,0.239583,Sixteenth,G4
1682,Right,0,74,80,407.5,0.239583,Sixteenth,D5
1683,Right,0,71,80,407.75,0.239583,Sixteenth,B4
1684,Right,0,74,80,408.0,0.239583,Sixteenth,D5
1685,Right,0,71,80,408.25,0.239583,Sixteenth,B4
1687,Right,0,74,80,408.5,0.239583,Sixteenth,D5
1686,Left,1,53,80,408.5,0.489583,Eighth,F3
1688,Right,0,71,80,408.75,0.239583,Sixteenth,B4
1689,Left,1,52,80,409.0,0.989583,Quarter,E3
1690,Right,0,67,80,409.25,0.239583,Sixteenth,G4
1691,Right,0,79,80,409.5,0.239583,Sixteenth,G5
1692,Right,0,72,80,409.75,0.239583,Sixteenth,C5
1693,Left,1,50,80,410.0,0.989583,Quarter,D3
1694,Right,0,67,80,410.25,0.239583,Sixteenth,G4
1695,Right,0,79,80,410.5,0.239583,Sixteenth,G5
1696,Right,0,77,80,410.75,0.239583,Sixteenth,F5
1697,Left,1,48,80,411.0,0.989583,Quarter,C3
1698,Right,0,67,80,411.25,0.239583,Sixteenth,G4
1699,Right,0,79,80,411.5,0.239583,Sixteenth,G5
1700,Right,0,76,80,411.75,0.239583,Sixteenth,E5
1701,Left,1,47,80,412.0,0.989583,Quarter,B2
1702,Right,0,68,80,412.25,0.239583,Sixteenth,G#4
1703,Right,0,80,80,412.5,0.239583,Sixteenth,G#5
1704,Right,0,74,80,412.75,0.239583,Sixteenth,D5
1705,Left,1,45,80,413.0,0.989583,Quarter,A2
1706,Right,0,69,80,413.25,0.239583,Sixteenth,A4
1707,Right,0,81,80,413.5,0.239583,Sixteenth,A5
1708,Right,0,72,80,413.75,0.239583,Sixteenth,C5
1709,Left,1,41,80,414.0,0.989583,Quarter,F2
1710,Right,0,69,80,414.25,0.239583,Sixteenth,A4
1711,Right,0,81,80,414.5,0.239583,Sixteenth,A5
1712,Right,0,77,80,414.75,0.239583,Sixteenth,F5
1714,Left,1,43,80,415.0,1.989583,Half,G2
1713,Right,0,74,80,415.0,0.239583,Sixteenth,D5
1715,Right,0,71,80,415.25,0.239583,Sixteenth,B4
1716,Right,0,77,80,415.5,0.239583,Sixteenth,F5
1717,Right,0,74,80,415.75,0.239583,Sixteenth,D5
1718,Right,0,71,80,416.0,0.239583,Sixteenth,B4
1719,Right,0,67,80,416.25,0.239583,Sixteenth,G4
1720,Right,0,65,80,416.5,0.239583,Sixteenth,F4
1721,Right,0,62,80,416.75,0.239583,Sixteenth,D4
1722,Left,1,48,80,417.0,0.989583,Quarter,C3
1723,Right,0,64,80,417.25,0.239583,Sixteenth,E4
1724,Right,0,72,81,417.5,0.239583,Sixteenth,C5
1725,Right,0,67,82,417.75,0.239583,Sixteenth,G4
1726,Left,1,50,83,418.0,0.989583,Quarter,D3
1727,Right,0,65,84,418.25,0.239583,Sixteenth,F4
1728,Right,0,71,85,418.5,0.239583,Sixteenth,B4
1729,Right,0,67,86,418.75,0.239583,Sixteenth,G4
1730,Left,1,52,87,419.0,0.989583,Quarter,E3
1731,Right,0,66,88,419.25,0.239583,Sixteenth,F#4
1732,Right,0,72,89,419.5,0.239583,Sixteenth,C5
1733,Right,0,67,90,419.75,0.239583,Sixteenth,G4
1734,Left,1,47,91,420.0,0.989583,Quarter,B2
1735,Right,0,62,92,420.25,0.239583,Sixteenth,D4
1736,Right,0,74,93,420.5,0.239583,Sixteenth,D5
1737,Right,0,67,94,420.75,0.239583,Sixteenth,G4
1738,Left,1,48,95,421.0,0.989583,Quarter,C3
1739,Right,0,64,95,421.25,0.239583,Sixteenth,E4
1740,Right,0,76,95,421.5,0.239583,Sixteenth,E5
1741,Right,0,67,95,421.75,0.239583,Sixteenth,G4
1742,Left,1,45,95,422.0,0.989583,Quarter,A2
1743,Right,0,66,95,422.25,0.239583,Sixteenth,F#4
1744,Right,0,78,95,422.5,0.239583,Sixteenth,F#5
1745,Right,0,72,95,422.75,0.239583,Sixteenth,C5
1746,Left,1,47,110,423.0,1.989583,Half,B2
1747,Right,0,74,110,423.25,0.239583,Sixteenth,D5
1748,Right,0,79,110,423.5,0.239583,Sixteenth,G5
1749,Right,0,78,110,423.75,0.239583,Sixteenth,F#5
1750,Right,0,79,95,424.0,0.239583,Sixteenth,G5
1751,Right,0,74,95,424.25,0.239583,Sixteenth,D5
1752,Right,0,71,95,424.5,0.239583,Sixteenth,B4
1753,Right,0,67,95,424.75,0.239583,Sixteenth,G4
1754,Left,1,48,95,425.0,0.989583,Quarter,C3
1755,Right,0,76,95,425.25,0.239583,Sixteenth,E5
1756,Right,0,81,96,425.5,0.239583,Sixteenth,A5
1757,Right,0,79,97,425.75,0.239583,Sixteenth,G5
1758,Left,1,49,98,426.0,0.989583,Quarter,C#3
1759,Right,0,76,99,426.25,0.239583,Sixteenth,E5
1760,Right,0,82,100,426.5,0.239583,Sixteenth,A#5
1761,Right,0,79,101,426.75,0.239583,Sixteenth,G5
1762,Left,1,50,102,427.0,1.989583,Half,D3
1763,Right,0,79,103,427.25,0.239583,Sixteenth,G5
1764,Right,0,83,104,427.5,0.239583,Sixteenth,B5
1765,Right,0,82,105,427.75,0.239583,Sixteenth,A#5
1766,Right,0,83,106,428.0,0.239583,Sixteenth,B5
1767,Right,0,79,107,428.25,0.239583,Sixteenth,G5
1768,Right,0,74,108,428.5,0.239583,Sixteenth,D5
1769,Right,0,71,109,428.75,0.239583,Sixteenth,B4
1770,Right,0,74,80,429.0,0.239583,Sixteenth,D5
1771,Left,1,38,80,429.0,0.989583,Quarter,D2
1772,Right,0,72,80,429.25,0.239583,Sixteenth,C5
1773,Right,0,76,80,429.5,0.239583,Sixteenth,E5
1774,Right,0,72,80,429.75,0.239583,Sixteenth,C5
1776,Right,0,71,80,430.0,0.239583,Sixteenth,B4
1775,Left,1,50,80,430.0,0.989583,Quarter,D3
1777,Right,0,69,80,430.25,0.239583,Sixteenth,A4
1778,Right,0,67,80,430.5,0.239583,Sixteenth,G4
1779,Right,0,66,80,430.75,0.239583,Sixteenth,F#4
1780,Right,0,67,80,431.0,0.239583,Sixteenth,G4
1781,Left,1,43,80,431.0,1.989583,Half,G2
1782,Right,0,69,80,431.25,0.239583,Sixteenth,A4
1783,Right,0,71,80,431.5,0.239583,Sixteenth,B4
1784,Right,0,72,80,431.75,0.239583,Sixteenth,C5
1785,Right,0,74,80,432.0,0.239583,Sixteenth,D5
1786,Right,0,76,80,432.25,0.239583,Sixteenth,E5
1787,Right,0,77,80,432.5,0.239583,Sixteenth,F5
1788,Right,0,78,80,432.75,0.239583,Sixteenth,F#5
1789,Left,1,64,80,433.0,0.989583,Quarter,E4
1790,Right,0,67,80,433.25,0.239583,Sixteenth,G4
1791,Right,0,79,80,433.5,0.239583,Sixteenth,G5
1792,Right,0,72,80,433.75,0.239583,Sixteenth,C5
1793,Left,1,62,80,434.0,0.989583,Quarter,D4
1794,Right,0,67,80,434.25,0.239583,Sixteenth,G4
1795,Right,0,77,80,434.5,0.239583,Sixteenth,F5
1796,Right,0,71,80,434.75,0.239583,Sixteenth,B4
1797,Left,1,60,80,435.0,0.989583,Quarter,C4
1798,Right,0,67,80,435.25,0.239583,Sixteenth,G4
1799,Right,0,76,80,435.5,0.239583,Sixteenth,E5
1800,Right,0,72,80,435.75,0.239583,Sixteenth,C5
1801,Left,1,58,80,436.0,0.989583,Quarter,A#3
1802,Right,0,67,80,436.25,0.239583,Sixteenth,G4
1803,Right,0,76,80,436.5,0.239583,Sixteenth,E5
1804,Right,0,72,80,436.75,0.239583,Sixteenth,C5
1805,Left,1,57,80,437.0,0.989583,Quarter,A3
1806,Right,0,72,80,437.25,0.239583,Sixteenth,C5
1807,Right,0,84,80,437.5,0.239583,Sixteenth,C6
1808,Right,0,77,80,437.75,0.239583,Sixteenth,F5
1809,Left,1,55,80,438.0,0.989583,Quarter,G3
1810,Right,0,72,80,438.25,0.239583,Sixteenth,C5
1811,Right,0,82,80,438.5,0.239583,Sixteenth,A#5
1812,Right,0,76,80,438.75,0.239583,Sixteenth,E5
1813,Left,1,53,80,439.0,1.989583,Half,F3
1814,Right,0,72,80,439.25,0.239583,Sixteenth,C5
1815,Right,0,81,80,439.5,0.239583,Sixteenth,A5
1816,Right,0,77,80,439.75,0.239583,Sixteenth,F5
1817,Right,0,81,80,440.0,0.239583,Sixteenth,A5
1818,Right,0,77,80,440.25,0.239583,Sixteenth,F5
1819,Right,0,81,80,440.5,0.239583,Sixteenth,A5
1820,Right,0,77,80,440.75,0.239583,Sixteenth,F5
1821,Left,1,53,80,441.0,0.989583,Quarter,F3
1822,Right,0,69,80,441.25,0.239583,Sixteenth,A4
1823,Right,0,81,81,441.5,0.239583,Sixteenth,A5
1824,Right,0,72,82,441.75,0.239583,Sixteenth,C5
1825,Left,1,52,83,442.0,0.989583,Quarter,E3
1826,Right,0,69,84,442.25,0.239583,Sixteenth,A4
1827,Right,0,79,85,442.5,0.239583,Sixteenth,G5
1828,Right,0,73,86,442.75,0.239583,Sixteenth,C#5
1829,Left,1,50,87,443.0,0.989583,Quarter,D3
1830,Right,0,69,88,443.25,0.239583,Sixteenth,A4
1831,Right,0,77,89,443.5,0.239583,Sixteenth,F5
1832,Right,0,74,90,443.75,0.239583,Sixteenth,D5
1833,Left,1,52,91,444.0,0.989583,Quarter,E3
1834,Right,0,67,92,444.25,0.239583,Sixteenth,G4
1835,Right,0,76,93,444.5,0.239583,Sixteenth,E5
1836,Right,0,73,94,444.75,0.239583,Sixteenth,C#5
1837,Left,1,53,95,445.0,0.989583,Quarter,F3
1838,Right,0,65,96,445.25,0.239583,Sixteenth,F4
1839,Right,0,74,97,445.5,0.239583,Sixteenth,D5
1840,Right,0,69,98,445.75,0.239583,Sixteenth,A4
1841,Left,1,54,99,446.0,0.989583,Quarter,F#3
1842,Right,0,63,100,446.25,0.239583,Sixteenth,D#4
1843,Right,0,72,101,446.5,0.239583,Sixteenth,C5
1844,Right,0,69,102,446.75,0.239583,Sixteenth,A4
1845,Left,1,55,103,447.0,1.489583,DottedQuarter,G3
1846,Right,0,62,104,447.25,0.239583,Sixteenth,D4
1847,Right,0,72,105,447.5,0.239583,Sixteenth,C5
1848,Right,0,67,106,447.75,0.239583,Sixteenth,G4
1849,Right,0,71,107,448.0,0.239583,Sixteenth,B4
1850,Right,0,67,108,448.25,0.239583,Sixteenth,G4
1851,Right,0,62,108,448.5,0.239583,Sixteenth,D4
1852,Left,1,53,108,448.5,0.489583,Eighth,F3
1853,Right,0,67,109,448.75,0.239583,Sixteenth,G4
1854,Left,1,52,80,449.0,0.989583,Quarter,E3
1855,Right,0,60,80,449.25,0.239583,Sixteenth,C4
1856,Right,0,72,80,449.5,0.239583,Sixteenth,C5
1857,Right,0,67,80,449.75,0.239583,Sixteenth,G4
1858,Left,1,50,80,450.0,0.989583,Quarter,D3
1859,Right,0,65,80,450.25,0.239583,Sixteenth,F4
1860,Right,0,71,80,450.5,0.239583,Sixteenth,B4
1861,Right,0,67,80,450.75,0.239583,Sixteenth,G4
1862,Left,1,48,80,451.0,0.989583,Quarter,C3
1863,Right,0,64,80,451.25,0.239583,Sixteenth,E4
1864,Right,0,72,80,451.5,0.239583,Sixteenth,C5
1865,Right,0,67,80,451.75,0.239583,Sixteenth,G4
1866,Left,1,47,80,452.0,0.989583,Quarter,B2
1867,Right,0,62,80,452.25,0.239583,Sixteenth,D4
1868,Right,0,74,80,452.5,0.239583,Sixteenth,D5
1869,Right,0,67,80,452.75,0.239583,Sixteenth,G4
1870,Left,1,48,80,453.0,0.989583,Quarter,C3
1871,Right,0,67,80,453.25,0.239583,Sixteenth,G4
1872,Right,0,76,80,453.5,0.239583,Sixteenth,E5
1873,Right,0,72,80,453.75,0.239583,Sixteenth,C5
1874,Left,1,41,80,454.0,0.989583,Quarter,F2
1875,Right,0,69,80,454.25,0.239583,Sixteenth,A4
1876,Right,0,77,80,454.5,0.239583,Sixteenth,F5
1877,Right,0,74,80,454.75,0.239583,Sixteenth,D5
1878,Left,1,43,80,455.0,1.489583,DottedQuarter,G2
1879,Right,0,67,80,455.25,0.239583,Sixteenth,G4
1880,Right,0,74,80,455.5,0.239583,Sixteenth,D5
1881,Right,0,71,80,455.75,0.239583,Sixteenth,B4
1882,Right,0,74,80,456.0,0.239583,Sixteenth,D5
1883,Right,0,71,80,456.25,0.239583,Sixteenth,B4
1885,Right,0,74,80,456.5,0.239583,Sixteenth,D5
1884,Left,1,41,80,456.5,0.489583,Eighth,F2
1886,Right,0,71,80,456.75,0.239583,Sixteenth,B4
1887,Left,1,40,80,457.0,1.989583,Half,E2
1888,Right,0,67,81,457.25,0.239583,Sixteenth,G4
1889,Right,0,79,82,457.5,0.239583,Sixteenth,G5
1890,Right,0,72,83,457.75,0.239583,Sixteenth,C5
1891,Left,1,52,85,458.0,0.989583,Quarter,E3
1892,Right,0,70,86,458.25,0.239583,Sixteenth,A#4
1893,Right,0,79,87,458.5,0.239583,Sixteenth,G5
1894,Right,0,73,89,458.75,0.239583,Sixteenth,C#5
1895,Left,1,41,90,459.0,1.989583,Half,F2
1896,Right,0,69,91,459.25,0.239583,Sixteenth,A4
1897,Right,0,79,93,459.5,0.239583,Sixteenth,G5
1898,Right,0,73,94,459.75,0.239583,Sixteenth,C#5
1899,Left,1,53,95,460.0,0.989583,Quarter,F3
1900,Right,0,69,96,460.25,0.239583,Sixteenth,A4
1901,Right,0,77,98,460.5,0.239583,Sixteenth,F5
1902,Right,0,74,99,460.75,0.239583,Sixteenth,D5
1903,Left,1,43,100,461.0,1.989583,Half,G2
1904,Right,0,67,102,461.25,0.239583,Sixteenth,G4
1905,Right,0,76,103,461.5,0.239583,Sixteenth,E5
1906,Right,0,72,104,461.75,0.239583,Sixteenth,C5
1907,Left,1,55,106,462.0,0.989583,Quarter,G3
1908,Right,0,65,107,462.25,0.239583,Sixteenth,F4
1909,Right,0,74,108,462.5,0.239583,Sixteenth,D5
1910,Right,0,71,109,462.75,0.239583,Sixteenth,B4
1911,Left,1,48,100,463.0,0.989583,Quarter,C3
1912,Right,0,64,98,463.25,0.239583,Sixteenth,E4
1913,Right,0,72,95,463.5,0.239583,Sixteenth,C5
1914,Right,0,67,92,463.75,0.239583,Sixteenth,G4
1915,Right,0,65,89,464.0,0.239583,Sixteenth,F4
1916,Right,0,64,86,464.25,0.239583,Sixteenth,E4
1917,Right,0,62,83,464.5,0.239583,Sixteenth,D4
1918,Right,0,60,81,464.75,0.239583,Sixteenth,C4
1919,Left,1,43,110,465.0,0.989583,Quarter,G2
1920,Right,0,50,80,465.25,0.239583,Sixteenth,D3
1921,Right,0,59,80,465.5,0.239583,Sixteenth,B3
1922,Right,0,53,80,465.75,0.239583,Sixteenth,F3
1923,Left,1,36,80,466.0,0.489583,Eighth,C2
1924,Right,0,52,80,466.25,0.239583,Sixteenth,E3
1925,Right,0,60,80,466.5,0.239583,Sixteenth,C4
1926,Right,0,55,80,466.75,0.239583,Sixteenth,G3
1927,Left,1,45,110,467.0,0.989583,Quarter,A2
1928,Right,0,52,80,467.25,0.239583,Sixteenth,E3
1929,Right,0,61,80,467.5,0.239583,Sixteenth,C#4
1930,Right,0,55,80,467.75,0.239583,Sixteenth,G3
1931,Left,1,38,80,468.0,0.489583,Eighth,D2
1932,Right,0,53,80,468.25,0.239583,Sixteenth,F3
1933,Right,0,62,80,468.5,0.239583,Sixteenth,D4
1934,Right,0,57,80,468.75,0.239583,Sixteenth,A3
1935,Left,1,47,110,469.0,0.989583,Quarter,B2
1936,Right,0,54,80,469.25,0.239583,Sixteenth,F#3
1937,Right,0,63,80,469.5,0.239583,Sixteenth,D#4
1938,Right,0,57,80,469.75,0.239583,Sixteenth,A3
1939,Left,1,40,80,470.0,0.489583,Eighth,E2
1940,Right,0,55,80,470.25,0.239583,Sixteenth,G3
1941,Right,0,64,80,470.5,0.239583,Sixteenth,E4
1942,Right,0,59,80,470.75,0.239583,Sixteenth,B3
1943,Left,1,50,100,471.0,1.989583,Half,D3_D2
1945,Right,0,55,100,471.25,0.239583,Sixteenth,G3
1946,Right,0,65,100,471.5,0.239583,Sixteenth,F4
1947,Right,0,59,100,471.75,0.239583,Sixteenth,B3
1948,Right,0,65,100,472.0,0.239583,Sixteenth,F4
1949,Right,0,59,100,472.25,0.239583,Sixteenth,B3
1950,Right,0,65,100,472.5,0.239583,Sixteenth,F4
1951,Right,0,59,100,472.75,0.239583,Sixteenth,B3
1952,Left,1,36,100,473.0,0.989583,Quarter,C2
1953,Right,0,55,99,473.25,0.239583,Sixteenth,G3
1954,Right,0,65,98,473.5,0.239583,Sixteenth,F4
1955,Right,0,59,97,473.75,0.239583,Sixteenth,B3
1956,Left,1,48,95,474.0,0.989583,Quarter,C3
1957,Right,0,55,94,474.25,0.239583,Sixteenth,G3
1958,Right,0,64,93,474.5,0.239583,Sixteenth,E4
1959,Right,0,60,91,474.75,0.239583,Sixteenth,C4
1960,Left,1,45,90,475.0,0.989583,Quarter,A2
1961,Right,0,53,89,475.25,0.239583,Sixteenth,F3
1962,Right,0,62,87,475.5,0.239583,Sixteenth,D4
1963,Right,0,60,86,475.75,0.239583,Sixteenth,C4
1964,Left,1,41,85,476.0,0.989583,Quarter,F2
1965,Right,0,57,83,476.25,0.239583,Sixteenth,A3
1966,Right,0,65,82,476.5,0.239583,Sixteenth,F4
1967,Right,0,60,81,476.75,0.239583,Sixteenth,C4
1968,Left,1,43,80,477.0,0.989583,Quarter,G2
1969,Right,0,55,80,477.25,0.239583,Sixteenth,G3
1970,Right,0,64,80,477.5,0.239583,Sixteenth,E4
1971,Right,0,60,80,477.75,0.239583,Sixteenth,C4
1972,Left,1,31,80,478.0,0.989583,Quarter,G1
1973,Right,0,53,80,478.25,0.239583,Sixteenth,F3
1974,Right,0,62,80,478.5,0.239583,Sixteenth,D4
1975,Right,0,59,80,478.75,0.239583,Sixteenth,B3
1976,Left,1,36,80,479.0,0.489583,Eighth,C2
1977,Right,0,60,80,479.25,0.239583,Sixteenth,C4
1978,Right,0,62,80,479.5,0.239583,Sixteenth,D4
1979,Right,0,64,80,479.75,0.239583,Sixteenth,E4
1980,Right,0,65,80,480.0,0.239583,Sixteenth,F4
1981,Right,0,67,80,480.25,0.239583,Sixteenth,G4
1982,Right,0,69,80,480.5,0.239583,Sixteenth,A4
1983,Right,0,71,80,480.75,0.239583,Sixteenth,B4
1985,Right,0,72,80,481.0,0.489583,Eighth,G4_C5
1984,Left,1,60,80,481.0,0.489583,Eighth,E4_C4
1988,Right,0,67,80,482.0,0.489583,Eighth,G4_B4
1990,Left,1,65,80,482.0,0.489583,Eighth,F4_D4
1993,Right,0,67,80,483.0,0.489583,Eighth,G4_C5
1992,Left,1,64,80,483.0,0.489583,Eighth,E4
1997,Left,1,59,80,484.0,0.489583,Eighth,F4_B3
1995,Right,0,74,80,484.0,0.489583,Eighth,G4_D5
1999,Right,0,67,80,485.0,0.489583,Eighth,G4_E5
2000,Left,1,60,80,485.0,0.489583,Eighth,E4_C4
2003,Right,0,77,80,486.0,0.489583,Eighth,F5_A4
2004,Left,1,62,80,486.0,0.489583,Eighth,F3_D4
2009,Right,0,67,80,487.0,0.489583,Eighth,G4_D5
2007,Left,1,55,80,487.0,0.489583,Eighth,G3_B3
2011,Right,0,79,70,489.0,0.489583,Eighth,G5
2012,Left,1,67,70,489.0,0.489583,Eighth,G4_E4
2014,Left,1,67,70,490.0,0.489583,Eighth,G4_D4
2015,Right,0,77,70,490.0,0.489583,Eighth,G5_F5
2020,Left,1,67,70,491.0,0.489583,Eighth,G4_C4
2018,Right,0,76,70,491.0,0.489583,Eighth,G5_E5
2022,Left,1,59,70,492.0,0.489583,Eighth,E4_B3
2024,Right,0,74,70,492.0,0.489583,Eighth,G#5_D5
2026,Left,1,57,70,493.0,0.489583,Eighth,E4_A3
2028,Right,0,81,70,493.0,0.489583,Eighth,C5_A5
2030,Right,0,57,70,495.0,0.489583,Eighth,F4_D4_A3
2031,Left,1,41,70,495.0,0.489583,Eighth,F3_F2_D3_A2
2037,Left,1,64,70,497.0,0.489583,Eighth,G3_E4_C4
2039,Right,0,76,70,497.0,0.489583,Eighth,G4_E5_C5
2046,Left,1,43,70,499.0,0.489583,Eighth,G2_D3_B2
2043,Right,0,62,70,499.0,0.489583,Eighth,F3_D4_B3
2049,Left,1,48,120,501.0,1.989583,Half,G2_E2_C3_C2
2051,Right,0,72,120,501.0,1.989583,Half,G5_E5_C6_C5
