,hand,channel,note,velocity,start_beat,duration,note_value,chord
0,Right,0,59,80,0.0,0.479167,Sixteenth,B3
1,Right,0,60,80,0.5,0.479167,Sixteenth,C4
2,Right,0,62,80,1.0,0.979167,Eighth,D4
3,Right,0,64,80,2.0,0.479167,Sixteenth,E4
4,Right,0,66,80,2.5,0.479167,Sixteenth,F#4
5,Right,0,67,80,3.0,0.979167,Eighth,G4
6,Right,0,69,80,4.0,0.479167,Sixteenth,A4
7,Right,0,71,80,4.5,0.479167,Sixteenth,B4
8,Right,0,72,80,5.0,0.979167,Eighth,C5
9,Right,0,73,80,6.0,0.979167,Eighth,C#5
12,Right,0,74,80,7.0,1.979167,Quarter,D5
10,Left,1,55,80,7.0,2.979167,DottedQuarter,G3_B3
13,Left,1,60,80,9.0,0.479167,Sixteenth,C4
14,Right,0,76,80,9.0,0.479167,Sixteenth,E5
15,Left,1,58,80,9.5,0.479167,Sixteenth,A#3
16,Right,0,73,80,9.5,0.479167,Sixteenth,C#5
17,Right,0,74,80,10.0,0.979167,Eighth,D5
18,Left,1,59,80,10.0,0.979167,Eighth,G3_B3
20,Right,0,71,80,12.0,0.479167,Sixteenth,B4
21,Right,0,72,80,12.5,0.479167,Sixteenth,C5
22,Right,0,74,80,13.0,0.979167,Eighth,D5
23,Right,0,76,80,14.0,0.479167,Sixteenth,E5
24,Right,0,78,80,14.5,0.479167,Sixteenth,F#5
25,Right,0,79,80,15.0,0.979167,Eighth,G5
26,Right,0,81,80,16.0,0.479167,Sixteenth,A5
27,Right,0,83,80,16.5,0.479167,Sixteenth,B5
28,Right,0,84,80,17.0,0.979167,Eighth,C6
29,Right,0,85,80,18.0,0.979167,Eighth,C#6
31,Left,1,62,100,19.0,2.979167,DottedQuarter,D4_B4
30,Right,0,74,100,19.0,0.229167,ThirtySecond,D5
33,Right,0,86,99,19.25,1.729167,DottedEighth,D6
34,Right,0,84,87,21.0,0.479167,Sixteenth,C6
35,Left,1,69,87,21.0,0.479167,Sixteenth,A4
37,Right,0,81,84,21.5,0.479167,Sixteenth,A5
36,Left,1,66,84,21.5,0.479167,Sixteenth,F#4
38,Left,1,67,81,22.0,0.979167,Eighth,G4
39,Right,0,79,81,22.0,0.979167,Eighth,G5
40,Right,0,62,80,24.0,0.3125,TripletSixteenth,D4
41,Right,0,64,80,24.333333,0.3125,TripletSixteenth,E4
42,Right,0,66,80,24.666667,0.3125,TripletSixteenth,F#4
43,Right,0,67,80,25.0,0.3125,TripletSixteenth,G4
44,Right,0,69,80,25.333333,0.3125,TripletSixteenth,A4
45,Right,0,71,80,25.666667,0.3125,TripletSixteenth,B4
46,Right,0,72,80,26.0,0.979167,Eighth,C5
47,Left,1,60,80,27.0,0.979167,Eighth,D3_C4_A3
50,Left,1,62,80,28.0,0.979167,Eighth,D4_C5_A4
53,Right,0,84,80,29.0,0.979167,Eighth,C6
54,Right,0,62,80,30.0,0.3125,TripletSixteenth,D4
55,Right,0,64,80,30.333333,0.3125,TripletSixteenth,E4
56,Right,0,66,80,30.666667,0.3125,TripletSixteenth,F#4
57,Right,0,67,80,31.0,0.3125,TripletSixteenth,G4
58,Right,0,69,80,31.333333,0.3125,TripletSixteenth,A4
59,Right,0,71,80,31.666667,0.3125,TripletSixteenth,B4
60,Right,0,72,80,32.0,0.979167,Eighth,C5
61,Left,1,50,80,33.0,0.979167,Eighth,D3_C4_A3
64,Left,1,72,80,34.0,0.979167,Eighth,D4_C5_A4
67,Right,0,84,80,35.0,0.979167,Eighth,C6
68,Right,0,62,80,36.0,0.3125,TripletSixteenth,D4
69,Right,0,64,80,36.333333,0.3125,TripletSixteenth,E4
70,Right,0,66,80,36.666667,0.3125,TripletSixteenth,F#4
71,Right,0,67,80,37.0,0.3125,TripletSixteenth,G4
72,Right,0,69,80,37.333333,0.3125,TripletSixteenth,A4
73,Right,0,71,80,37.666667,0.3125,TripletSixteenth,B4
74,Right,0,72,80,38.0,0.3125,TripletSixteenth,C5
75,Right,0,74,80,38.333333,0.3125,TripletSixteenth,D5
76,Right,0,76,80,38.666667,0.3125,TripletSixteenth,E5
77,Right,0,78,80,39.0,0.229167,ThirtySecond,F#5
78,Right,0,79,80,39.25,0.229167,ThirtySecond,G5
79,Right,0,81,80,39.5,0.229167,ThirtySecond,A5
80,Right,0,83,80,39.75,0.229167,ThirtySecond,B5
81,Right,0,84,80,40.0,0.979167,Eighth,C6
82,Right,0,84,80,41.0,0.979167,Eighth,C6
84,Left,1,38,80,42.0,0.229167,ThirtySecond,D2
83,Right,0,84,80,42.0,0.979167,Eighth,C6
85,Left,1,40,80,42.25,0.229167,ThirtySecond,E2
86,Left,1,42,80,42.5,0.229167,ThirtySecond,F#2
87,Left,1,43,80,42.75,0.229167,ThirtySecond,G2
88,Left,1,45,80,43.0,0.3125,TripletSixteenth,A2
89,Right,0,84,80,43.0,0.979167,Eighth,C6
90,Left,1,47,80,43.333333,0.3125,TripletSixteenth,B2
91,Left,1,48,80,43.666667,0.3125,TripletSixteenth,C3
92,Left,1,50,80,44.0,0.3125,TripletSixteenth,D3
93,Right,0,81,80,44.0,0.979167,Eighth,A5
94,Left,1,52,80,44.333333,0.3125,TripletSixteenth,E3
95,Left,1,54,80,44.666667,0.3125,TripletSixteenth,F#3
96,Right,0,79,80,45.0,0.979167,Eighth,G5
97,Left,1,55,80,45.0,0.3125,TripletSixteenth,G3
98,Left,1,57,80,45.333333,0.3125,TripletSixteenth,A3
99,Left,1,59,80,45.666667,0.3125,TripletSixteenth,B3
100,Right,0,69,80,46.0,3.979167,Half,F#5_A4
101,Left,1,60,80,46.0,3.979167,Half,D4_C4
104,Right,0,71,80,51.0,0.479167,Sixteenth,B4
105,Right,0,72,80,51.5,0.479167,Sixteenth,C5
106,Right,0,74,80,52.0,0.979167,Eighth,D5
107,Right,0,76,80,53.0,0.479167,Sixteenth,E5
108,Right,0,78,80,53.5,0.479167,Sixteenth,F#5
109,Right,0,79,80,54.0,0.979167,Eighth,G5
110,Right,0,81,80,55.0,0.479167,Sixteenth,A5
111,Right,0,83,80,55.5,0.479167,Sixteenth,B5
112,Right,0,84,80,56.0,0.979167,Eighth,C6
113,Right,0,85,80,57.0,0.979167,Eighth,C#6
114,Right,0,86,80,58.0,1.979167,Quarter,D6
115,Left,1,71,80,58.0,2.979167,Quarter,G4_B4
118,Left,1,72,80,60.0,0.479167,Sixteenth,C5
117,Right,0,88,80,60.0,0.479167,Sixteenth,E6
119,Right,0,85,80,60.5,0.479167,Sixteenth,C#6
120,Left,1,70,80,60.5,0.479167,Sixteenth,A#4
122,Right,0,86,80,61.0,0.979167,Eighth,D6
121,Left,1,71,80,61.0,0.979167,Eighth,G4_B4
125,Right,0,76,80,63.0,0.979167,Eighth,E5_C6
124,Left,1,60,80,63.0,0.979167,Eighth,C4
127,Right,0,81,80,63.5,0.479167,Sixteenth,A5
128,Right,0,79,80,64.0,0.979167,Eighth,G5_B4
129,Left,1,62,80,64.0,0.979167,Eighth,D4
132,Left,1,50,80,66.0,0.979167,Eighth,D3
131,Right,0,81,80,66.0,0.979167,Sixteenth,C5_A5
134,Right,0,78,80,66.5,0.479167,Sixteenth,F#5
135,Right,0,71,80,67.0,0.979167,Eighth,G5_B4
136,Left,1,55,80,67.0,0.979167,Eighth,G3
138,Right,0,59,100,70.0,2.979167,DottedQuarter,F#4_D#4_B4_B3
139,Left,1,35,100,70.0,2.979167,DottedQuarter,B2_B1
144,Right,0,71,80,73.0,0.3125,TripletSixteenth,B4
145,Right,0,75,80,73.333333,0.3125,TripletSixteenth,D#5
146,Right,0,78,80,73.666667,0.3125,TripletSixteenth,F#5
147,Right,0,83,80,74.0,0.3125,TripletSixteenth,B5
148,Right,0,81,80,74.333333,0.3125,TripletSixteenth,A5
149,Right,0,79,80,74.666667,0.3125,TripletSixteenth,G5
151,Right,0,78,80,75.0,0.3125,TripletSixteenth,F#5
150,Left,1,69,80,75.0,0.979167,Eighth,A4
152,Right,0,76,80,75.333333,0.3125,TripletSixteenth,E5
153,Right,0,75,80,75.666667,0.3125,TripletSixteenth,D#5
154,Left,1,67,80,76.0,0.979167,Eighth,G4
155,Right,0,76,80,76.0,0.3125,TripletSixteenth,E5
156,Right,0,71,80,76.333333,0.3125,TripletSixteenth,B4
157,Right,0,79,80,76.666667,0.3125,TripletSixteenth,G5
159,Left,1,67,80,77.0,0.979167,Eighth,G4
158,Right,0,76,80,77.0,0.3125,TripletSixteenth,E5
160,Right,0,71,80,77.333333,0.3125,TripletSixteenth,B4
161,Right,0,79,80,77.666667,0.3125,TripletSixteenth,G5
163,Right,0,78,80,78.0,0.3125,TripletSixteenth,F#5
162,Left,1,63,80,78.0,0.979167,Eighth,D#4
164,Right,0,71,80,78.333333,0.3125,TripletSixteenth,B4
165,Right,0,81,80,78.666667,0.3125,TripletSixteenth,A5
166,Left,1,64,80,79.0,0.979167,Eighth,E4
167,Right,0,79,80,79.0,0.979167,Eighth,G5
171,Left,1,35,80,82.0,2.979167,DottedQuarter,B2_B1
168,Right,0,66,80,82.0,2.979167,DottedQuarter,F#4_D#4_B4_B3
174,Right,0,71,80,85.0,0.3125,TripletSixteenth,B4
175,Right,0,74,80,85.333333,0.3125,TripletSixteenth,D5
176,Right,0,78,80,85.666667,0.3125,TripletSixteenth,F#5
177,Right,0,83,80,86.0,0.3125,TripletSixteenth,B5
178,Right,0,81,80,86.333333,0.3125,TripletSixteenth,A5
179,Right,0,79,80,86.666667,0.3125,TripletSixteenth,G5
180,Right,0,78,80,87.0,0.3125,TripletSixteenth,F#5
181,Right,0,76,80,87.333333,0.3125,TripletSixteenth,E5
182,Right,0,74,80,87.666667,0.3125,TripletSixteenth,D5
183,Left,1,67,80,88.0,0.979167,Eighth,G4_E4
185,Right,0,76,80,88.0,0.3125,TripletSixteenth,E5
186,Right,0,79,80,88.333333,0.3125,TripletSixteenth,G5
187,Right,0,73,80,88.666667,0.3125,TripletSixteenth,C#5
189,Left,1,66,80,89.0,0.979167,Eighth,F#4
188,Right,0,74,80,89.0,0.3125,TripletSixteenth,D5
190,Right,0,78,80,89.333333,0.3125,TripletSixteenth,F#5
191,Right,0,71,80,89.666667,0.3125,TripletSixteenth,B4
193,Right,0,73,80,90.0,0.3125,TripletSixteenth,C#5
192,Left,1,54,80,90.0,0.979167,Eighth,F#3
194,Right,0,76,80,90.333333,0.3125,TripletSixteenth,E5
195,Right,0,70,80,90.666667,0.3125,TripletSixteenth,A#4
197,Right,0,71,80,91.0,0.979167,Eighth,B4
196,Left,1,59,80,91.0,0.979167,Eighth,B3
198,Right,0,63,100,94.0,2.979167,DottedQuarter,F#4_D#4_B4_B3
202,Left,1,47,100,94.0,2.979167,DottedQuarter,B2_B1
204,Right,0,71,80,97.0,0.3125,TripletSixteenth,B4
205,Right,0,75,80,97.333333,0.3125,TripletSixteenth,D#5
206,Right,0,78,80,97.666667,0.3125,TripletSixteenth,F#5
207,Right,0,83,80,98.0,0.3125,TripletSixteenth,B5
208,Right,0,81,80,98.333333,0.3125,TripletSixteenth,A5
209,Right,0,79,80,98.666667,0.3125,TripletSixteenth,G5
210,Right,0,78,80,99.0,0.3125,TripletSixteenth,F#5
211,Left,1,69,80,99.0,0.979167,Eighth,A4
212,Right,0,76,80,99.333333,0.3125,TripletSixteenth,E5
213,Right,0,75,80,99.666667,0.3125,TripletSixteenth,D#5
214,Left,1,67,80,100.0,0.979167,Eighth,G4
215,Right,0,76,80,100.0,0.3125,TripletSixteenth,E5
216,Right,0,82,80,100.333333,0.3125,TripletSixteenth,A#5
217,Right,0,83,80,100.666667,0.3125,TripletSixteenth,B5
219,Right,0,76,80,101.0,0.3125,TripletSixteenth,E5
218,Left,1,67,80,101.0,0.979167,Eighth,G4
220,Right,0,82,80,101.333333,0.3125,TripletSixteenth,A#5
221,Right,0,83,80,101.666667,0.3125,TripletSixteenth,B5
223,Left,1,63,80,102.0,0.979167,Eighth,D#4
222,Right,0,78,80,102.0,0.3125,TripletSixteenth,F#5
224,Right,0,82,80,102.333333,0.3125,TripletSixteenth,A#5
225,Right,0,83,80,102.666667,0.3125,TripletSixteenth,B5
227,Left,1,64,80,103.0,0.979167,Eighth,E4
226,Right,0,79,80,103.0,0.979167,Eighth,G5
232,Left,1,52,100,106.0,2.979167,DottedQuarter,E3_E2
228,Right,0,64,100,106.0,2.979167,DottedQuarter,G#4_E5_E4_B4
234,Right,0,76,80,109.0,0.3125,TripletSixteenth,E5
235,Right,0,80,80,109.333333,0.3125,TripletSixteenth,G#5
236,Right,0,83,80,109.666667,0.3125,TripletSixteenth,B5
237,Right,0,88,80,110.0,0.3125,TripletSixteenth,E6
238,Right,0,86,80,110.333333,0.3125,TripletSixteenth,D6
239,Right,0,84,80,110.666667,0.3125,TripletSixteenth,C6
240,Right,0,83,80,111.0,0.3125,TripletSixteenth,B5
241,Left,1,74,80,111.0,0.979167,Eighth,D5
242,Right,0,81,80,111.333333,0.3125,TripletSixteenth,A5
243,Right,0,80,80,111.666667,0.3125,TripletSixteenth,G#5
244,Right,0,81,80,112.0,0.3125,TripletSixteenth,A5
245,Left,1,72,80,112.0,0.979167,Eighth,C5
246,Right,0,87,80,112.333333,0.3125,TripletSixteenth,D#6
247,Right,0,88,80,112.666667,0.3125,TripletSixteenth,E6
248,Right,0,81,80,113.0,0.3125,TripletSixteenth,A5
249,Left,1,72,80,113.0,0.979167,Eighth,C5
250,Right,0,87,80,113.333333,0.3125,TripletSixteenth,D#6
251,Right,0,88,80,113.666667,0.3125,TripletSixteenth,E6
253,Right,0,83,80,114.0,0.3125,TripletSixteenth,B5
252,Left,1,68,80,114.0,0.979167,Eighth,G#4
254,Right,0,87,80,114.333333,0.3125,TripletSixteenth,D#6
255,Right,0,88,80,114.666667,0.3125,TripletSixteenth,E6
257,Right,0,84,80,115.0,0.979167,Eighth,C6
256,Left,1,69,80,115.0,0.979167,Eighth,A4
260,Right,0,78,80,118.0,0.979167,Eighth,F#5_C6
258,Left,1,69,80,118.0,0.979167,Eighth,D4_A4
264,Left,1,50,80,121.0,0.979167,Eighth,D3_A3
262,Right,0,66,80,121.0,0.979167,Eighth,F#4_C5
266,Right,0,59,80,129.0,0.479167,Sixteenth,B3
267,Right,0,60,80,129.5,0.479167,Sixteenth,C4
268,Right,0,62,80,130.0,0.979167,Eighth,D4
269,Right,0,64,80,131.0,0.479167,Sixteenth,E4
270,Right,0,66,80,131.5,0.479167,Sixteenth,F#4
271,Right,0,67,80,132.0,0.979167,Eighth,G4
272,Right,0,69,80,133.0,0.479167,Sixteenth,A4
273,Right,0,71,80,133.5,0.479167,Sixteenth,B4
274,Right,0,72,80,134.0,0.979167,Eighth,C5
275,Right,0,73,80,135.0,0.979167,Eighth,C#5
278,Right,0,74,80,136.0,1.979167,Quarter,D5
276,Left,1,59,80,136.0,2.979167,Quarter,G3_B3
280,Left,1,60,80,138.0,0.479167,Sixteenth,C4
279,Right,0,76,80,138.0,0.479167,Sixteenth,E5
281,Right,0,73,80,138.5,0.479167,Sixteenth,C#5
282,Left,1,58,80,138.5,0.479167,Sixteenth,A#3
283,Right,0,74,80,139.0,0.979167,Eighth,D5
284,Left,1,59,80,139.0,0.979167,Eighth,G3_B3
286,Right,0,71,80,141.0,0.479167,Sixteenth,B4
287,Right,0,72,80,141.5,0.479167,Sixteenth,C5
288,Right,0,74,80,142.0,0.979167,Eighth,D5
289,Right,0,76,80,143.0,0.479167,Sixteenth,E5
290,Right,0,78,80,143.5,0.479167,Sixteenth,F#5
291,Right,0,79,80,144.0,0.979167,Eighth,G5
292,Right,0,81,80,145.0,0.479167,Sixteenth,A5
293,Right,0,83,80,145.5,0.479167,Sixteenth,B5
294,Right,0,84,80,146.0,0.979167,Eighth,C6
295,Right,0,85,80,147.0,0.979167,Eighth,C#6
297,Right,0,74,100,148.0,0.229167,ThirtySecond,D5
296,Left,1,62,100,148.0,2.979167,DottedQuarter,D4_B4
299,Right,0,86,99,148.25,1.729167,DottedEighth,D6
300,Left,1,69,87,150.0,0.479167,Sixteenth,A4
301,Right,0,84,87,150.0,0.479167,Sixteenth,C6
302,Left,1,66,84,150.5,0.479167,Sixteenth,F#4
303,Right,0,81,84,150.5,0.479167,Sixteenth,A5
305,Left,1,67,81,151.0,0.979167,Eighth,G4
304,Right,0,79,81,151.0,0.979167,Eighth,G5
306,Right,0,62,80,153.0,0.3125,TripletSixteenth,D4
307,Right,0,64,80,153.333333,0.3125,TripletSixteenth,E4
308,Right,0,66,80,153.666667,0.3125,TripletSixteenth,F#4
309,Right,0,67,80,154.0,0.3125,TripletSixteenth,G4
310,Right,0,69,80,154.333333,0.3125,TripletSixteenth,A4
311,Right,0,71,80,154.666667,0.3125,TripletSixteenth,B4
312,Right,0,72,80,155.0,0.979167,Eighth,C5
313,Left,1,57,80,156.0,0.979167,Eighth,D3_C4_A3
316,Left,1,69,80,157.0,0.979167,Eighth,D4_C5_A4
319,Right,0,84,80,158.0,0.979167,Eighth,C6
320,Right,0,62,80,159.0,0.3125,TripletSixteenth,D4
321,Right,0,64,80,159.333333,0.3125,TripletSixteenth,E4
322,Right,0,66,80,159.666667,0.3125,TripletSixteenth,F#4
323,Right,0,67,80,160.0,0.3125,TripletSixteenth,G4
324,Right,0,69,80,160.333333,0.3125,TripletSixteenth,A4
325,Right,0,71,80,160.666667,0.3125,TripletSixteenth,B4
326,Right,0,72,80,161.0,0.979167,Eighth,C5
327,Left,1,57,80,162.0,0.979167,Eighth,D3_C4_A3
330,Left,1,62,80,163.0,0.979167,Eighth,D4_C5_A4
333,Right,0,84,80,164.0,0.979167,Eighth,C6
334,Right,0,62,80,165.0,0.3125,TripletSixteenth,D4
335,Right,0,64,81,165.333333,0.3125,TripletSixteenth,E4
336,Right,0,66,82,165.666667,0.3125,TripletSixteenth,F#4
337,Right,0,67,83,166.0,0.3125,TripletSixteenth,G4
338,Right,0,69,84,166.333333,0.3125,TripletSixteenth,A4
339,Right,0,71,85,166.666667,0.3125,TripletSixteenth,B4
340,Right,0,72,86,167.0,0.3125,TripletSixteenth,C5
341,Right,0,74,87,167.333333,0.3125,TripletSixteenth,D5
342,Right,0,76,88,167.666667,0.3125,TripletSixteenth,E5
343,Right,0,78,89,168.0,0.229167,ThirtySecond,F#5
344,Right,0,79,90,168.25,0.229167,ThirtySecond,G5
345,Right,0,81,90,168.5,0.229167,ThirtySecond,A5
346,Right,0,83,91,168.75,0.229167,ThirtySecond,B5
347,Right,0,84,92,169.0,0.979167,Eighth,C6
348,Right,0,84,95,170.0,0.979167,Eighth,C6
349,Right,0,84,98,171.0,0.979167,Eighth,C6
350,Left,1,38,98,171.0,0.229167,ThirtySecond,D2
351,Left,1,40,99,171.25,0.229167,ThirtySecond,E2
352,Left,1,42,100,171.5,0.229167,ThirtySecond,F#2
353,Left,1,43,100,171.75,0.229167,ThirtySecond,G2
354,Left,1,45,101,172.0,0.3125,TripletSixteenth,A2
355,Right,0,84,101,172.0,0.979167,Eighth,C6
356,Left,1,47,102,172.333333,0.3125,TripletSixteenth,B2
357,Left,1,48,103,172.666667,0.3125,TripletSixteenth,C3
359,Right,0,81,104,173.0,0.979167,Eighth,A5
358,Left,1,50,104,173.0,0.3125,TripletSixteenth,D3
360,Left,1,52,105,173.333333,0.3125,TripletSixteenth,E3
361,Left,1,54,106,173.666667,0.3125,TripletSixteenth,F#3
362,Right,0,79,107,174.0,0.979167,Eighth,G5
363,Left,1,55,107,174.0,0.3125,TripletSixteenth,G3
364,Left,1,57,108,174.333333,0.3125,TripletSixteenth,A3
365,Left,1,59,109,174.666667,0.3125,TripletSixteenth,B3
367,Right,0,78,120,175.0,3.979167,Half,F#5_A4
366,Left,1,60,120,175.0,3.979167,Half,D4_C4
370,Right,0,71,80,180.0,0.479167,Sixteenth,B4
371,Right,0,72,80,180.5,0.479167,Sixteenth,C5
372,Right,0,74,80,181.0,0.979167,Eighth,D5
373,Right,0,76,80,182.0,0.479167,Sixteenth,E5
374,Right,0,78,80,182.5,0.479167,Sixteenth,F#5
375,Right,0,79,80,183.0,0.979167,Eighth,G5
376,Right,0,81,80,184.0,0.479167,Sixteenth,A5
377,Right,0,83,80,184.5,0.479167,Sixteenth,B5
378,Right,0,84,80,185.0,0.979167,Eighth,C6
379,Right,0,85,80,186.0,0.979167,Eighth,C#6
380,Left,1,71,80,187.0,2.979167,Quarter,G4_B4
382,Right,0,86,80,187.0,1.979167,Quarter,D6
384,Right,0,88,80,189.0,0.479167,Sixteenth,E6
383,Left,1,72,80,189.0,0.479167,Sixteenth,C5
385,Left,1,70,80,189.5,0.479167,Sixteenth,A#4
386,Right,0,85,80,189.5,0.479167,Sixteenth,C#6
387,Right,0,86,80,190.0,0.979167,Eighth,D6
388,Left,1,67,80,190.0,0.979167,Eighth,G4_B4
392,Left,1,60,80,192.0,0.979167,Eighth,C4
390,Right,0,76,80,192.0,0.979167,Eighth,E5_C6
393,Right,0,81,80,192.5,0.479167,Sixteenth,A5
394,Left,1,62,80,193.0,0.979167,Eighth,D4
395,Right,0,71,80,193.0,0.979167,Eighth,G5_B4
397,Right,0,81,80,195.0,0.979167,Sixteenth,C5_A5
398,Left,1,50,80,195.0,0.979167,Eighth,D3
400,Right,0,78,80,195.5,0.479167,Sixteenth,F#5
401,Right,0,71,80,196.0,0.979167,Eighth,G5_B4
403,Left,1,55,80,196.0,0.979167,Eighth,G3
404,Left,1,43,80,198.0,0.3125,TripletSixteenth,G2
405,Left,1,45,80,198.333333,0.3125,TripletSixteenth,A2
406,Left,1,47,80,198.666667,0.3125,TripletSixteenth,B2
407,Left,1,48,80,199.0,0.3125,TripletSixteenth,C3
408,Left,1,50,80,199.333333,0.3125,TripletSixteenth,D3
409,Left,1,52,80,199.666667,0.3125,TripletSixteenth,E3
410,Left,1,53,80,200.0,0.979167,Eighth,F3
411,Right,0,67,80,201.0,0.979167,Eighth,G4_D4_B3
414,Right,0,74,80,202.0,0.979167,Eighth,G5_D5_B4
417,Left,1,65,102,203.0,0.979167,Eighth,F4
418,Left,1,43,80,204.0,0.3125,TripletSixteenth,G2
419,Left,1,45,80,204.333333,0.3125,TripletSixteenth,A2
420,Left,1,47,80,204.666667,0.3125,TripletSixteenth,B2
421,Left,1,48,80,205.0,0.3125,TripletSixteenth,C3
422,Left,1,50,80,205.333333,0.3125,TripletSixteenth,D3
423,Left,1,52,80,205.666667,0.3125,TripletSixteenth,E3
424,Left,1,53,80,206.0,0.979167,Eighth,F3
425,Right,0,62,80,207.0,0.979167,Eighth,G4_D4_B3
428,Right,0,79,80,208.0,0.979167,Eighth,G5_D5_B4
431,Left,1,65,102,209.0,0.979167,Eighth,F4
432,Left,1,43,80,210.0,0.3125,TripletSixteenth,G2
433,Left,1,45,81,210.333333,0.3125,TripletSixteenth,A2
434,Left,1,47,82,210.666667,0.3125,TripletSixteenth,B2
435,Left,1,48,83,211.0,0.3125,TripletSixteenth,C3
436,Left,1,50,84,211.333333,0.3125,TripletSixteenth,D3
437,Left,1,52,86,211.666667,0.3125,TripletSixteenth,E3
439,Right,0,55,87,212.0,0.3125,TripletSixteenth,G3
438,Left,1,53,87,212.0,0.979167,Eighth,F3
440,Right,0,57,88,212.333333,0.3125,TripletSixteenth,A3
441,Right,0,59,89,212.666667,0.3125,TripletSixteenth,B3
442,Right,0,60,91,213.0,0.3125,TripletSixteenth,C4
443,Right,0,62,92,213.333333,0.3125,TripletSixteenth,D4
444,Right,0,64,93,213.666667,0.3125,TripletSixteenth,E4
446,Right,0,65,94,214.0,0.979167,Eighth,F4
445,Left,1,55,94,214.0,0.3125,TripletSixteenth,G3
447,Left,1,57,96,214.333333,0.3125,TripletSixteenth,A3
448,Left,1,59,97,214.666667,0.3125,TripletSixteenth,B3
449,Left,1,60,98,215.0,0.3125,TripletSixteenth,C4
450,Left,1,62,99,215.333333,0.3125,TripletSixteenth,D4
451,Left,1,64,101,215.666667,0.3125,TripletSixteenth,E4
453,Left,1,65,102,216.0,0.979167,Eighth,F4
452,Right,0,67,102,216.0,0.3125,TripletSixteenth,G4
454,Right,0,69,103,216.333333,0.3125,TripletSixteenth,A4
455,Right,0,71,104,216.666667,0.3125,TripletSixteenth,B4
456,Right,0,72,106,217.0,0.3125,TripletSixteenth,C5
457,Right,0,74,107,217.333333,0.3125,TripletSixteenth,D5
458,Right,0,76,108,217.666667,0.3125,TripletSixteenth,E5
459,Right,0,77,109,218.0,1.979167,Quarter,F5
460,Right,0,75,94,220.0,2.979167,DottedQuarter,D#5
462,Left,1,48,80,223.0,0.479167,Sixteenth,C3
461,Right,0,76,80,223.0,2.979167,DottedQuarter,E5
463,Left,1,55,80,223.5,0.479167,Sixteenth,G3
464,Left,1,60,80,224.0,0.479167,Sixteenth,C4
465,Left,1,55,80,224.5,0.479167,Sixteenth,G3
466,Left,1,48,80,225.0,0.479167,Sixteenth,C3
467,Left,1,55,80,225.5,0.479167,Sixteenth,G3
469,Left,1,48,80,226.0,0.479167,Sixteenth,C3
468,Right,0,77,80,226.0,1.979167,Quarter,F5
470,Left,1,57,80,226.5,0.479167,Sixteenth,A3
471,Left,1,60,80,227.0,0.479167,Sixteenth,C4
472,Left,1,57,80,227.5,0.479167,Sixteenth,A3
473,Right,0,79,80,228.0,0.479167,Sixteenth,G5
474,Left,1,48,80,228.0,0.479167,Sixteenth,C3
475,Right,0,77,80,228.25,0.479167,Sixteenth,F5
476,Left,1,57,80,228.5,0.479167,Sixteenth,A3
477,Right,0,76,80,228.5,0.479167,Sixteenth,E5
478,Right,0,77,80,228.75,0.229167,ThirtySecond,F5
480,Right,0,78,80,229.0,0.979167,Eighth,F#5
479,Left,1,48,80,229.0,0.479167,Sixteenth,C3
481,Left,1,53,80,229.5,0.479167,Sixteenth,F3
483,Left,1,59,80,230.0,0.479167,Sixteenth,B3
482,Right,0,79,80,230.0,0.979167,Eighth,G5
484,Left,1,53,80,230.5,0.479167,Sixteenth,F3
486,Left,1,48,80,231.0,0.479167,Sixteenth,C3
485,Right,0,79,80,231.0,0.979167,Eighth,G5
487,Left,1,53,80,231.5,0.479167,Sixteenth,F3
488,Right,0,79,80,232.0,1.979167,Quarter,G5
489,Left,1,48,80,232.0,0.479167,Sixteenth,C3
490,Left,1,52,80,232.5,0.479167,Sixteenth,E3
491,Left,1,60,80,233.0,0.479167,Sixteenth,C4
492,Left,1,52,80,233.5,0.479167,Sixteenth,E3
493,Right,0,76,80,234.0,0.979167,Eighth,E5
494,Left,1,48,80,234.0,0.479167,Sixteenth,C3
495,Left,1,52,80,234.5,0.479167,Sixteenth,E3
497,Right,0,73,80,235.0,2.979167,DottedQuarter,C#5
496,Left,1,46,80,235.0,1.979167,Quarter,A#2
498,Left,1,52,80,235.5,0.479167,Sixteenth,E3
499,Left,1,55,80,236.0,0.479167,Sixteenth,G3
500,Left,1,52,80,236.5,0.479167,Sixteenth,E3
501,Left,1,45,80,237.0,0.979167,Eighth,A2
502,Left,1,52,80,237.5,0.479167,Sixteenth,E3
504,Left,1,45,80,238.0,1.979167,Quarter,A2
503,Right,0,74,80,238.0,0.979167,Eighth,D5
505,Left,1,50,80,238.5,0.479167,Sixteenth,D3
506,Right,0,76,80,239.0,0.229167,ThirtySecond,E5
507,Left,1,53,80,239.0,0.479167,Sixteenth,F3
508,Right,0,74,80,239.25,0.229167,ThirtySecond,D5
510,Right,0,73,80,239.5,0.479167,Sixteenth,C#5
509,Left,1,50,80,239.5,0.479167,Sixteenth,D3
512,Right,0,74,80,240.0,0.479167,Sixteenth,D5
511,Left,1,45,80,240.0,0.979167,Eighth,A2
514,Right,0,76,80,240.5,0.479167,Sixteenth,E5
513,Left,1,50,80,240.5,0.479167,Sixteenth,D3
515,Right,0,77,80,241.0,0.979167,Eighth,F5
516,Left,1,44,80,241.0,1.979167,Quarter,G#2
517,Left,1,50,80,241.5,0.479167,Sixteenth,D3
519,Right,0,71,80,242.0,0.979167,Eighth,B4
518,Left,1,53,80,242.0,0.479167,Sixteenth,F3
520,Left,1,50,80,242.5,0.479167,Sixteenth,D3
521,Left,1,43,80,243.0,0.979167,Eighth,G2
522,Right,0,71,80,243.0,0.979167,Eighth,B4
523,Left,1,50,80,243.5,0.479167,Sixteenth,D3
525,Right,0,72,80,244.0,1.979167,Quarter,C5
524,Left,1,48,80,244.0,0.479167,Sixteenth,C3
526,Left,1,52,80,244.5,0.479167,Sixteenth,E3
527,Left,1,55,80,245.0,0.479167,Sixteenth,G3
528,Left,1,53,80,245.5,0.479167,Sixteenth,F3
529,Left,1,52,80,246.0,0.479167,Sixteenth,E3
530,Left,1,50,80,246.5,0.479167,Sixteenth,D3
532,Right,0,76,80,247.0,2.979167,DottedQuarter,E5
531,Left,1,48,80,247.0,0.479167,Sixteenth,C3
533,Left,1,55,80,247.5,0.479167,Sixteenth,G3
534,Left,1,60,80,248.0,0.479167,Sixteenth,C4
535,Left,1,55,80,248.5,0.479167,Sixteenth,G3
536,Left,1,48,80,249.0,0.479167,Sixteenth,C3
537,Left,1,55,80,249.5,0.479167,Sixteenth,G3
538,Right,0,77,80,250.0,1.979167,Quarter,F5
539,Left,1,48,80,250.0,0.479167,Sixteenth,C3
540,Left,1,57,80,250.5,0.479167,Sixteenth,A3
541,Left,1,60,80,251.0,0.479167,Sixteenth,C4
542,Left,1,57,80,251.5,0.479167,Sixteenth,A3
543,Left,1,48,80,252.0,0.479167,Sixteenth,C3
544,Right,0,79,80,252.0,0.479167,Sixteenth,G5
545,Right,0,77,80,252.25,0.479167,Sixteenth,F5
547,Left,1,57,80,252.5,0.479167,Sixteenth,A3
546,Right,0,76,80,252.5,0.479167,Sixteenth,E5
548,Right,0,77,80,252.75,0.229167,ThirtySecond,F5
550,Left,1,48,80,253.0,0.479167,Sixteenth,C3
549,Right,0,78,80,253.0,0.979167,Eighth,F#5
551,Left,1,53,80,253.5,0.479167,Sixteenth,F3
552,Left,1,59,80,254.0,0.479167,Sixteenth,B3
553,Right,0,79,80,254.0,0.979167,Eighth,G5
554,Left,1,53,80,254.5,0.479167,Sixteenth,F3
555,Right,0,79,80,255.0,0.979167,Eighth,G5
556,Left,1,48,80,255.0,0.479167,Sixteenth,C3
557,Left,1,53,80,255.5,0.479167,Sixteenth,F3
558,Right,0,79,80,256.0,1.979167,Quarter,G5
559,Left,1,48,80,256.0,0.479167,Sixteenth,C3
560,Left,1,52,80,256.5,0.479167,Sixteenth,E3
561,Left,1,60,80,257.0,0.479167,Sixteenth,C4
562,Left,1,52,80,257.5,0.479167,Sixteenth,E3
563,Left,1,48,80,258.0,0.479167,Sixteenth,C3
564,Right,0,76,80,258.0,0.979167,Eighth,E5
565,Left,1,52,80,258.5,0.479167,Sixteenth,E3
566,Left,1,46,80,259.0,1.979167,Quarter,A#2
567,Right,0,73,80,259.0,2.979167,DottedQuarter,C#5
568,Left,1,52,80,259.5,0.479167,Sixteenth,E3
569,Left,1,55,80,260.0,0.479167,Sixteenth,G3
570,Left,1,52,80,260.5,0.479167,Sixteenth,E3
571,Left,1,45,80,261.0,0.979167,Eighth,A2
572,Left,1,52,80,261.5,0.479167,Sixteenth,E3
573,Left,1,45,80,262.0,1.979167,Quarter,A2
574,Right,0,74,80,262.0,0.979167,Eighth,D5
575,Left,1,50,80,262.5,0.479167,Sixteenth,D3
576,Right,0,76,80,263.0,0.229167,ThirtySecond,E5
577,Left,1,53,80,263.0,0.479167,Sixteenth,F3
578,Right,0,74,80,263.25,0.229167,ThirtySecond,D5
580,Left,1,50,80,263.5,0.479167,Sixteenth,D3
579,Right,0,73,80,263.5,0.479167,Sixteenth,C#5
581,Right,0,74,80,264.0,0.479167,Sixteenth,D5
582,Left,1,45,80,264.0,0.979167,Eighth,A2
584,Right,0,76,80,264.5,0.479167,Sixteenth,E5
583,Left,1,50,80,264.5,0.479167,Sixteenth,D3
586,Right,0,77,80,265.0,0.979167,Eighth,F5
585,Left,1,44,80,265.0,1.979167,Quarter,G#2
587,Left,1,50,80,265.5,0.479167,Sixteenth,D3
588,Right,0,71,80,266.0,0.979167,Eighth,B4
589,Left,1,53,80,266.0,0.479167,Sixteenth,F3
590,Left,1,50,80,266.5,0.479167,Sixteenth,D3
592,Right,0,71,80,267.0,0.979167,Eighth,B4
591,Left,1,43,80,267.0,0.979167,Eighth,G2
593,Left,1,50,80,267.5,0.479167,Sixteenth,D3
595,Right,0,72,80,268.0,1.979167,Quarter,C5
594,Left,1,48,80,268.0,0.479167,Sixteenth,C3
596,Left,1,55,80,268.5,0.479167,Sixteenth,G3
597,Left,1,53,80,269.0,0.479167,Sixteenth,F3
598,Left,1,52,80,269.5,0.479167,Sixteenth,E3
600,Right,0,55,80,270.0,0.979167,Eighth,G3
599,Left,1,50,80,270.0,0.479167,Sixteenth,D3
601,Left,1,48,80,270.5,0.479167,Sixteenth,C3
602,Right,0,65,80,271.0,1.979167,Quarter,G3_F4
604,Left,1,43,80,271.5,0.479167,Sixteenth,G2
605,Left,1,45,80,272.0,0.479167,Sixteenth,A2
606,Left,1,47,80,272.5,0.479167,Sixteenth,B2
608,Right,0,64,100,273.0,2.979167,Eighth,G3_E4
607,Left,1,48,80,273.0,0.479167,Sixteenth,C3
610,Left,1,42,80,273.5,0.479167,Sixteenth,F#2
611,Right,0,62,80,274.0,1.979167,Quarter,D4
612,Left,1,43,80,274.5,0.479167,Sixteenth,G2
613,Left,1,45,80,275.0,0.479167,Sixteenth,A2
614,Left,1,47,80,275.5,0.479167,Sixteenth,B2
617,Left,1,48,80,276.0,0.479167,Sixteenth,C3
615,Right,0,64,100,276.0,2.979167,Eighth,G3_E4
618,Left,1,42,80,276.5,0.479167,Sixteenth,F#2
619,Right,0,62,80,277.0,1.979167,Quarter,D4
620,Left,1,43,80,277.5,0.479167,Sixteenth,G2
621,Left,1,45,80,278.0,0.479167,Sixteenth,A2
622,Left,1,47,80,278.5,0.479167,Sixteenth,B2
625,Left,1,48,80,279.0,0.479167,Sixteenth,C3
623,Right,0,55,100,279.0,1.479167,DottedEighth,G3_E4
626,Left,1,42,80,279.5,0.479167,Sixteenth,F#2
628,Left,1,43,80,280.0,3.479167,DottedQuarter,G2
627,Right,0,62,80,280.0,0.479167,Sixteenth,D4
629,Right,0,61,80,280.5,0.479167,Sixteenth,C#4
630,Right,0,62,80,281.0,0.479167,Sixteenth,D4
631,Right,0,64,80,281.5,0.479167,Sixteenth,E4
632,Right,0,65,80,282.0,0.479167,Sixteenth,F4
633,Right,0,66,80,282.5,0.479167,Sixteenth,F#4
634,Right,0,64,80,283.0,1.979167,Quarter,G4_E4
636,Left,1,42,80,283.5,0.479167,Sixteenth,F#2
637,Left,1,43,80,284.0,0.479167,Sixteenth,G2
638,Left,1,42,80,284.5,0.479167,Sixteenth,F#2
641,Left,1,43,80,285.0,0.479167,Sixteenth,G2
639,Right,0,65,80,285.0,0.979167,Eighth,F4_D4
642,Left,1,44,80,285.5,0.479167,Sixteenth,G#2
643,Left,1,45,80,286.0,0.479167,Sixteenth,A2
644,Right,0,64,80,286.0,1.979167,Quarter,E4_C4
646,Left,1,44,80,286.5,0.479167,Sixteenth,G#2
647,Left,1,45,80,287.0,0.479167,Sixteenth,A2
648,Left,1,44,80,287.5,0.479167,Sixteenth,G#2
650,Left,1,45,80,288.0,0.479167,Sixteenth,A2
649,Right,0,60,80,288.0,0.979167,Eighth,E4_C4
652,Left,1,43,80,288.5,0.479167,Sixteenth,G2
655,Left,1,42,80,289.0,0.479167,Sixteenth,F#2
653,Right,0,60,80,289.0,0.979167,Eighth,C4_A4
656,Left,1,40,80,289.5,0.479167,Sixteenth,E2
659,Left,1,42,80,290.0,0.479167,Sixteenth,F#2
657,Right,0,69,80,290.0,0.979167,Eighth,C4_A4
660,Left,1,38,80,290.5,0.479167,Sixteenth,D2
663,Left,1,40,80,291.0,0.479167,Sixteenth,E2
661,Right,0,60,80,291.0,0.979167,Eighth,C4_A4
664,Left,1,42,80,291.5,0.479167,Sixteenth,F#2
665,Right,0,59,80,292.0,1.979167,Quarter,D4_B3
667,Left,1,43,80,292.0,0.479167,Sixteenth,G2
668,Left,1,45,80,292.5,0.479167,Sixteenth,A2
669,Left,1,47,80,293.0,0.479167,Sixteenth,B2
670,Left,1,48,80,293.5,0.479167,Sixteenth,C3
671,Left,1,50,80,294.0,0.479167,Sixteenth,D3
672,Left,1,52,80,294.5,0.479167,Sixteenth,E3
673,Left,1,53,80,295.0,2.979167,Quarter,G2_F3
675,Right,0,55,80,295.5,0.479167,Sixteenth,G3
676,Right,0,57,80,296.0,0.479167,Sixteenth,A3
677,Right,0,59,80,296.5,0.479167,Sixteenth,B3
678,Left,1,51,100,297.0,0.979167,Eighth,D#3
679,Right,0,60,80,297.0,0.479167,Sixteenth,C4
680,Right,0,54,80,297.5,0.479167,Sixteenth,F#3
681,Left,1,43,80,298.0,2.979167,DottedQuarter,G2_D3
683,Right,0,55,80,298.5,0.479167,Sixteenth,G3
684,Right,0,57,80,299.0,0.479167,Sixteenth,A3
685,Right,0,59,80,299.5,0.479167,Sixteenth,B3
687,Right,0,60,80,300.0,0.479167,Sixteenth,C4
686,Left,1,51,100,300.0,0.979167,Eighth,D#3
688,Right,0,54,80,300.5,0.479167,Sixteenth,F#3
689,Left,1,43,80,301.0,2.979167,DottedQuarter,G2_D3
691,Right,0,55,80,301.5,0.479167,Sixteenth,G3
692,Right,0,57,80,302.0,0.479167,Sixteenth,A3
693,Right,0,59,80,302.5,0.479167,Sixteenth,B3
695,Left,1,51,100,303.0,0.979167,Eighth,D#3
694,Right,0,60,80,303.0,0.479167,Sixteenth,C4
696,Right,0,54,80,303.5,0.479167,Sixteenth,F#3
699,Right,0,55,80,304.0,0.479167,Sixteenth,G3
697,Left,1,50,80,304.0,3.479167,Quarter,G2_D3
700,Right,0,59,80,304.5,0.479167,Sixteenth,B3
701,Right,0,60,80,305.0,0.479167,Sixteenth,C4
702,Right,0,62,80,305.5,0.479167,Sixteenth,D4
703,Right,0,64,80,306.0,0.479167,Sixteenth,E4
704,Right,0,65,80,306.5,0.479167,Sixteenth,F4
705,Right,0,64,80,307.0,1.979167,Quarter,G4_E4
707,Left,1,42,80,307.5,0.479167,Sixteenth,F#2
708,Left,1,43,80,308.0,0.479167,Sixteenth,G2
709,Left,1,42,80,308.5,0.479167,Sixteenth,F#2
711,Left,1,43,80,309.0,0.479167,Sixteenth,G2
710,Right,0,65,80,309.0,0.979167,Eighth,F4_D4
713,Left,1,44,80,309.5,0.479167,Sixteenth,G#2
714,Left,1,45,80,310.0,0.479167,Sixteenth,A2
715,Right,0,60,80,310.0,1.979167,Quarter,E4_C4
717,Left,1,44,80,310.5,0.479167,Sixteenth,G#2
718,Left,1,45,80,311.0,0.479167,Sixteenth,A2
719,Left,1,44,80,311.5,0.479167,Sixteenth,G#2
721,Left,1,45,80,312.0,0.479167,Sixteenth,A2
720,Right,0,64,80,312.0,0.979167,Eighth,E4_C4
723,Left,1,43,80,312.5,0.479167,Sixteenth,G2
726,Left,1,42,80,313.0,0.479167,Sixteenth,F#2
724,Right,0,60,80,313.0,0.979167,Eighth,C4_A4
727,Left,1,40,80,313.5,0.479167,Sixteenth,E2
729,Right,0,60,80,314.0,0.979167,Eighth,C4_A4
728,Left,1,42,80,314.0,0.479167,Sixteenth,F#2
731,Left,1,38,80,314.5,0.479167,Sixteenth,D2
732,Right,0,69,80,315.0,0.979167,Eighth,C4_A4
733,Left,1,40,80,315.0,0.479167,Sixteenth,E2
735,Left,1,42,80,315.5,0.479167,Sixteenth,F#2
737,Right,0,62,80,316.0,1.979167,Quarter,D4_B3
736,Left,1,43,80,316.0,0.479167,Sixteenth,G2
739,Left,1,45,80,316.5,0.479167,Sixteenth,A2
740,Left,1,47,80,317.0,0.479167,Sixteenth,B2
741,Left,1,48,80,317.5,0.479167,Sixteenth,C3
742,Left,1,50,80,318.0,0.479167,Sixteenth,D3
743,Left,1,52,80,318.5,0.479167,Sixteenth,E3
747,Left,1,54,80,319.0,0.479167,Sixteenth,F#3
744,Right,0,74,80,319.0,0.979167,Eighth,D5_C5_A4
748,Left,1,52,80,319.5,0.479167,Sixteenth,E3
750,Right,0,69,80,320.0,0.979167,Eighth,D5_C5_A4
749,Left,1,54,80,320.0,0.479167,Sixteenth,F#3
753,Left,1,50,80,320.5,0.479167,Sixteenth,D3
755,Left,1,52,80,321.0,0.479167,Sixteenth,E3
754,Right,0,69,80,321.0,0.979167,Eighth,D5_C5_A4
758,Left,1,54,80,321.5,0.479167,Sixteenth,F#3
762,Left,1,55,80,322.0,0.479167,Sixteenth,G3
759,Right,0,74,80,322.0,1.979167,Quarter,G4_D5_B4
763,Left,1,57,80,322.5,0.479167,Sixteenth,A3
764,Left,1,59,80,323.0,0.479167,Sixteenth,B3
765,Left,1,60,80,323.5,0.479167,Sixteenth,C4
766,Left,1,62,80,324.0,0.479167,Sixteenth,D4
767,Left,1,64,80,324.5,0.479167,Sixteenth,E4
769,Right,0,72,80,325.0,0.979167,Eighth,C5_A5
768,Left,1,66,80,325.0,0.479167,Sixteenth,F#4
771,Left,1,64,80,325.5,0.479167,Sixteenth,E4
773,Right,0,81,80,326.0,0.979167,Eighth,C5_A5
772,Left,1,66,80,326.0,0.479167,Sixteenth,F#4
775,Left,1,62,80,326.5,0.479167,Sixteenth,D4
776,Right,0,72,80,327.0,0.979167,Eighth,C5_A5
778,Left,1,64,80,327.0,0.479167,Sixteenth,E4
779,Left,1,66,80,327.5,0.479167,Sixteenth,F#4
780,Right,0,71,80,328.0,0.479167,Sixteenth,D5_B4
782,Left,1,67,80,328.0,1.979167,Quarter,G4
783,Right,0,67,70,328.5,0.479167,Sixteenth,G4
784,Right,0,69,70,329.0,0.479167,Sixteenth,A4
785,Right,0,71,70,329.5,0.479167,Sixteenth,B4
786,Right,0,72,70,330.0,0.479167,Sixteenth,C5
787,Right,0,74,70,330.5,0.479167,Sixteenth,D5
789,Right,0,76,80,331.0,2.979167,DottedQuarter,E5
788,Left,1,48,80,331.0,0.479167,Sixteenth,C3
790,Left,1,55,80,331.5,0.479167,Sixteenth,G3
791,Left,1,60,80,332.0,0.479167,Sixteenth,C4
792,Left,1,55,80,332.5,0.479167,Sixteenth,G3
793,Left,1,48,80,333.0,0.479167,Sixteenth,C3
794,Left,1,55,80,333.5,0.479167,Sixteenth,G3
795,Right,0,77,80,334.0,1.979167,Quarter,F5
796,Left,1,48,80,334.0,0.479167,Sixteenth,C3
797,Left,1,57,80,334.5,0.479167,Sixteenth,A3
798,Left,1,60,80,335.0,0.479167,Sixteenth,C4
799,Left,1,57,80,335.5,0.479167,Sixteenth,A3
800,Right,0,79,80,336.0,0.479167,Sixteenth,G5
801,Left,1,48,80,336.0,0.479167,Sixteenth,C3
802,Right,0,77,80,336.25,0.479167,Sixteenth,F5
804,Left,1,57,80,336.5,0.479167,Sixteenth,A3
803,Right,0,76,80,336.5,0.479167,Sixteenth,E5
805,Right,0,77,80,336.75,0.229167,ThirtySecond,F5
807,Left,1,48,80,337.0,0.479167,Sixteenth,C3
806,Right,0,78,80,337.0,0.979167,Eighth,F#5
808,Left,1,53,80,337.5,0.479167,Sixteenth,F3
810,Right,0,79,80,338.0,0.979167,Eighth,G5
809,Left,1,59,80,338.0,0.479167,Sixteenth,B3
811,Left,1,53,80,338.5,0.479167,Sixteenth,F3
813,Right,0,79,80,339.0,0.979167,Eighth,G5
812,Left,1,48,80,339.0,0.479167,Sixteenth,C3
814,Left,1,53,80,339.5,0.479167,Sixteenth,F3
816,Right,0,79,80,340.0,1.979167,Quarter,G5
815,Left,1,48,80,340.0,0.479167,Sixteenth,C3
817,Left,1,52,80,340.5,0.479167,Sixteenth,E3
818,Left,1,60,80,341.0,0.479167,Sixteenth,C4
819,Left,1,52,80,341.5,0.479167,Sixteenth,E3
821,Right,0,76,80,342.0,0.979167,Eighth,E5
820,Left,1,48,80,342.0,0.479167,Sixteenth,C3
822,Left,1,52,80,342.5,0.479167,Sixteenth,E3
824,Right,0,73,80,343.0,2.979167,DottedQuarter,C#5
823,Left,1,46,80,343.0,1.979167,Quarter,A#2
825,Left,1,52,80,343.5,0.479167,Sixteenth,E3
826,Left,1,55,80,344.0,0.479167,Sixteenth,G3
827,Left,1,52,80,344.5,0.479167,Sixteenth,E3
828,Left,1,45,80,345.0,0.979167,Eighth,A2
829,Left,1,52,80,345.5,0.479167,Sixteenth,E3
831,Left,1,45,80,346.0,1.979167,Quarter,A2
830,Right,0,74,80,346.0,0.979167,Eighth,D5
832,Left,1,50,80,346.5,0.479167,Sixteenth,D3
833,Left,1,53,80,347.0,0.479167,Sixteenth,F3
834,Right,0,76,80,347.0,0.229167,ThirtySecond,E5
835,Right,0,74,80,347.25,0.229167,ThirtySecond,D5
837,Left,1,50,80,347.5,0.479167,Sixteenth,D3
836,Right,0,73,80,347.5,0.479167,Sixteenth,C#5
839,Left,1,45,80,348.0,0.979167,Eighth,A2
838,Right,0,74,80,348.0,0.479167,Sixteenth,D5
841,Left,1,50,80,348.5,0.479167,Sixteenth,D3
840,Right,0,76,80,348.5,0.479167,Sixteenth,E5
842,Right,0,77,80,349.0,0.979167,Eighth,F5
843,Left,1,44,80,349.0,1.979167,Quarter,G#2
844,Left,1,50,80,349.5,0.479167,Sixteenth,D3
846,Right,0,71,80,350.0,0.979167,Eighth,B4
845,Left,1,53,80,350.0,0.479167,Sixteenth,F3
847,Left,1,50,80,350.5,0.479167,Sixteenth,D3
849,Right,0,71,80,351.0,0.979167,Eighth,B4
848,Left,1,43,80,351.0,0.979167,Eighth,G2
850,Left,1,50,80,351.5,0.479167,Sixteenth,D3
851,Left,1,48,80,352.0,0.479167,Sixteenth,C3
852,Right,0,72,80,352.0,0.979167,Eighth,C5
853,Left,1,52,80,352.5,0.479167,Sixteenth,E3
854,Left,1,55,80,353.0,0.479167,Sixteenth,G3
855,Right,0,79,80,353.0,0.479167,Sixteenth,G5
857,Left,1,52,80,353.5,0.479167,Sixteenth,E3
856,Right,0,77,80,353.5,0.479167,Sixteenth,F5
859,Right,0,76,80,354.0,0.479167,Sixteenth,E5
858,Left,1,48,80,354.0,0.479167,Sixteenth,C3
861,Right,0,74,80,354.5,0.479167,Sixteenth,D5
860,Left,1,52,80,354.5,0.479167,Sixteenth,E3
862,Right,0,73,80,355.0,2.979167,DottedQuarter,C#5
863,Left,1,46,80,355.0,1.979167,Quarter,A#2
864,Left,1,52,80,355.5,0.479167,Sixteenth,E3
865,Left,1,55,80,356.0,0.479167,Sixteenth,G3
866,Left,1,52,80,356.5,0.479167,Sixteenth,E3
867,Left,1,45,80,357.0,0.979167,Eighth,A2
868,Left,1,52,80,357.5,0.479167,Sixteenth,E3
869,Right,0,74,80,358.0,0.979167,Eighth,D5
870,Left,1,45,80,358.0,1.979167,Quarter,A2
871,Left,1,50,80,358.5,0.479167,Sixteenth,D3
873,Left,1,53,80,359.0,0.479167,Sixteenth,F3
872,Right,0,76,80,359.0,0.229167,ThirtySecond,E5
874,Right,0,74,80,359.25,0.229167,ThirtySecond,D5
875,Left,1,50,80,359.5,0.479167,Sixteenth,D3
876,Right,0,73,80,359.5,0.479167,Sixteenth,C#5
878,Left,1,45,80,360.0,0.979167,Eighth,A2
877,Right,0,74,80,360.0,0.479167,Sixteenth,D5
879,Right,0,76,80,360.5,0.479167,Sixteenth,E5
880,Left,1,50,80,360.5,0.479167,Sixteenth,D3
882,Right,0,77,80,361.0,0.979167,Eighth,F5
881,Left,1,44,80,361.0,1.979167,Quarter,G#2
883,Left,1,50,80,361.5,0.479167,Sixteenth,D3
885,Right,0,71,80,362.0,0.979167,Eighth,B4
884,Left,1,53,80,362.0,0.479167,Sixteenth,F3
886,Left,1,50,80,362.5,0.479167,Sixteenth,D3
888,Right,0,71,80,363.0,0.979167,Eighth,B4
887,Left,1,43,80,363.0,0.979167,Eighth,G2
889,Left,1,50,80,363.5,0.479167,Sixteenth,D3
891,Left,1,48,80,364.0,0.479167,Sixteenth,C3
890,Right,0,72,80,364.0,0.979167,Eighth,C5
892,Left,1,52,80,364.5,0.479167,Sixteenth,E3
893,Left,1,55,80,365.0,0.479167,Sixteenth,G3
894,Left,1,52,80,365.5,0.479167,Sixteenth,E3
895,Left,1,50,80,366.0,0.479167,Sixteenth,D3
896,Left,1,48,80,366.5,0.479167,Sixteenth,C3
897,Right,0,77,110,367.0,0.229167,ThirtySecond,F5
898,Left,1,43,80,367.0,0.479167,Sixteenth,G2
899,Right,0,89,108,367.25,1.729167,DottedEighth,F6
900,Left,1,50,80,367.5,0.479167,Sixteenth,D3
901,Left,1,53,80,368.0,0.479167,Sixteenth,F3
902,Left,1,50,80,368.5,0.479167,Sixteenth,D3
904,Right,0,83,91,369.0,0.979167,Eighth,B5
903,Left,1,43,80,369.0,0.479167,Sixteenth,G2
905,Left,1,50,80,369.5,0.479167,Sixteenth,D3
907,Left,1,48,80,370.0,0.479167,Sixteenth,C3
906,Right,0,84,81,370.0,0.979167,Eighth,C6
908,Left,1,52,80,370.5,0.479167,Sixteenth,E3
909,Left,1,55,80,371.0,0.479167,Sixteenth,G3
910,Left,1,52,80,371.5,0.479167,Sixteenth,E3
911,Left,1,50,80,372.0,0.479167,Sixteenth,D3
912,Left,1,48,80,372.5,0.479167,Sixteenth,C3
913,Right,0,65,80,373.0,0.229167,ThirtySecond,F4
914,Left,1,43,80,373.0,0.479167,Sixteenth,G2
915,Right,0,77,80,373.25,1.729167,DottedEighth,F5
916,Left,1,50,80,373.5,0.479167,Sixteenth,D3
917,Left,1,53,80,374.0,0.479167,Sixteenth,F3
918,Left,1,50,80,374.5,0.479167,Sixteenth,D3
919,Left,1,43,80,375.0,0.479167,Sixteenth,G2
920,Right,0,71,80,375.0,0.979167,Eighth,B4
921,Left,1,50,80,375.5,0.479167,Sixteenth,D3
922,Right,0,72,80,376.0,0.979167,Eighth,C5
923,Left,1,48,80,376.0,0.979167,Eighth,E3_C3
925,Right,0,64,80,378.0,0.479167,Sixteenth,E4
926,Right,0,66,80,378.5,0.479167,Sixteenth,F#4
927,Right,0,67,80,379.0,0.979167,Eighth,G4
928,Right,0,69,80,380.0,0.479167,Sixteenth,A4
929,Right,0,71,80,380.5,0.479167,Sixteenth,B4
930,Right,0,72,80,381.0,0.979167,Eighth,C5
931,Right,0,74,80,382.0,0.479167,Sixteenth,D5
932,Right,0,76,80,382.5,0.479167,Sixteenth,E5
933,Right,0,77,80,383.0,0.979167,Eighth,F5
934,Right,0,78,80,384.0,0.979167,Eighth,F#5
937,Right,0,79,80,385.0,1.979167,Quarter,G5
935,Left,1,60,80,385.0,2.979167,DottedQuarter,E4_C4
939,Right,0,81,80,387.0,0.479167,Sixteenth,A5
938,Left,1,65,80,387.0,0.479167,Sixteenth,F4
941,Left,1,63,80,387.5,0.479167,Sixteenth,D#4
940,Right,0,78,80,387.5,0.479167,Sixteenth,F#5
942,Left,1,64,80,388.0,0.979167,Eighth,E4_C4
943,Right,0,79,80,388.0,0.979167,Eighth,G5
945,Right,0,64,80,390.0,0.479167,Sixteenth,E4
946,Right,0,65,80,390.5,0.479167,Sixteenth,F4
947,Right,0,67,80,391.0,0.979167,Eighth,G4
948,Right,0,69,80,392.0,0.479167,Sixteenth,A4
949,Right,0,71,80,392.5,0.479167,Sixteenth,B4
950,Right,0,72,80,393.0,0.979167,Eighth,C5
951,Right,0,74,80,394.0,0.479167,Sixteenth,D5
952,Right,0,76,80,394.5,0.479167,Sixteenth,E5
953,Right,0,77,80,395.0,0.979167,Eighth,F5
954,Right,0,78,80,396.0,0.979167,Eighth,F#5
955,Left,1,64,110,397.0,1.979167,Quarter,E4
956,Right,0,67,110,397.0,0.229167,ThirtySecond,G4
957,Right,0,79,109,397.25,1.729167,DottedEighth,G5
959,Left,1,62,101,399.0,0.479167,Sixteenth,D4
958,Right,0,77,101,399.0,0.479167,Sixteenth,F5
960,Left,1,59,98,399.5,0.479167,Sixteenth,B3
961,Right,0,74,98,399.5,0.479167,Sixteenth,D5
962,Left,1,60,96,400.0,0.979167,Eighth,C4
963,Right,0,76,96,400.0,0.979167,Eighth,E5
965,Left,1,59,86,402.0,0.479167,Sixteenth,B3
964,Right,0,74,86,402.0,0.479167,Sixteenth,D5
967,Left,1,56,83,402.5,0.479167,Sixteenth,G#3
966,Right,0,71,83,402.5,0.479167,Sixteenth,B4
969,Left,1,57,81,403.0,0.979167,Eighth,A3
968,Right,0,72,81,403.0,0.979167,Eighth,C5
970,Right,0,71,80,405.0,0.479167,Sixteenth,B4
971,Left,1,55,80,405.0,0.479167,Sixteenth,G3
972,Right,0,67,80,405.5,0.479167,Sixteenth,G4
973,Left,1,52,80,405.5,0.479167,Sixteenth,E3
975,Right,0,69,80,406.0,0.979167,Eighth,A4
974,Left,1,54,80,406.0,0.979167,Eighth,F#3
977,Right,0,67,80,408.0,0.479167,Sixteenth,G4
976,Left,1,52,80,408.0,0.479167,Sixteenth,E3
978,Left,1,49,80,408.5,0.479167,Sixteenth,C#3
979,Right,0,64,80,408.5,0.479167,Sixteenth,E4
981,Right,0,66,80,409.0,0.979167,Eighth,F#4
980,Left,1,50,80,409.0,0.979167,Eighth,D3
982,Left,1,40,80,411.0,0.479167,Sixteenth,E2
983,Left,1,37,80,411.5,0.479167,Sixteenth,C#2
984,Left,1,38,80,412.0,0.979167,Eighth,D2
985,Left,1,40,80,414.0,0.479167,Sixteenth,E2
986,Left,1,37,80,414.5,0.479167,Sixteenth,C#2
987,Left,1,38,80,415.0,7.979167,Whole,D2
988,Right,0,59,80,423.0,0.479167,Sixteenth,B3
989,Right,0,60,80,423.5,0.479167,Sixteenth,C4
990,Right,0,62,80,424.0,0.979167,Eighth,D4
991,Right,0,64,80,425.0,0.479167,Sixteenth,E4
992,Right,0,66,80,425.5,0.479167,Sixteenth,F#4
993,Right,0,67,80,426.0,0.979167,Eighth,G4
994,Right,0,69,80,427.0,0.479167,Sixteenth,A4
995,Right,0,71,80,427.5,0.479167,Sixteenth,B4
996,Right,0,72,80,428.0,0.979167,Eighth,C5
997,Right,0,73,80,429.0,0.979167,Eighth,C#5
1000,Right,0,74,80,430.0,1.979167,Quarter,D5
998,Left,1,55,80,430.0,2.979167,DottedQuarter,G3_B3
1001,Left,1,60,80,432.0,0.479167,Sixteenth,C4
1002,Right,0,76,80,432.0,0.479167,Sixteenth,E5
1003,Right,0,73,80,432.5,0.479167,Sixteenth,C#5
1004,Left,1,58,80,432.5,0.479167,Sixteenth,A#3
1007,Right,0,74,80,433.0,0.979167,Eighth,D5
1005,Left,1,55,80,433.0,0.979167,Eighth,G3_B3
1008,Right,0,71,80,435.0,0.479167,Sixteenth,B4
1009,Right,0,72,80,435.5,0.479167,Sixteenth,C5
1010,Right,0,74,80,436.0,0.979167,Eighth,D5
1011,Right,0,76,80,437.0,0.479167,Sixteenth,E5
1012,Right,0,78,80,437.5,0.479167,Sixteenth,F#5
1013,Right,0,79,80,438.0,0.979167,Eighth,G5
1014,Right,0,81,80,439.0,0.479167,Sixteenth,A5
1015,Right,0,83,80,439.5,0.479167,Sixteenth,B5
1016,Right,0,84,80,440.0,0.979167,Eighth,C6
1017,Right,0,85,80,441.0,0.979167,Eighth,C#6
1018,Left,1,62,100,442.0,2.979167,DottedQuarter,D4_B4
1019,Right,0,74,100,442.0,0.229167,ThirtySecond,D5
1021,Right,0,86,99,442.25,1.729167,DottedEighth,D6
1023,Left,1,69,87,444.0,0.479167,Sixteenth,A4
1022,Right,0,84,87,444.0,0.479167,Sixteenth,C6
1025,Right,0,81,84,444.5,0.479167,Sixteenth,A5
1024,Left,1,66,84,444.5,0.479167,Sixteenth,F#4
1027,Right,0,79,81,445.0,0.979167,Eighth,G5
1026,Left,1,67,81,445.0,0.979167,Eighth,G4
1028,Right,0,62,80,447.0,0.3125,TripletSixteenth,D4
1029,Right,0,64,80,447.333333,0.3125,TripletSixteenth,E4
1030,Right,0,66,80,447.666667,0.3125,TripletSixteenth,F#4
1031,Right,0,67,80,448.0,0.3125,TripletSixteenth,G4
1032,Right,0,69,80,448.333333,0.3125,TripletSixteenth,A4
1033,Right,0,71,80,448.666667,0.3125,TripletSixteenth,B4
1034,Right,0,72,80,449.0,0.979167,Eighth,C5
1035,Left,1,50,80,450.0,0.979167,Eighth,D3_C4_A3
1038,Left,1,69,80,451.0,0.979167,Eighth,D4_C5_A4
1041,Right,0,84,80,452.0,0.979167,Eighth,C6
1042,Right,0,62,80,453.0,0.3125,TripletSixteenth,D4
1043,Right,0,64,80,453.333333,0.3125,TripletSixteenth,E4
1044,Right,0,66,80,453.666667,0.3125,TripletSixteenth,F#4
1045,Right,0,67,80,454.0,0.3125,TripletSixteenth,G4
1046,Right,0,69,80,454.333333,0.3125,TripletSixteenth,A4
1047,Right,0,71,80,454.666667,0.3125,TripletSixteenth,B4
1048,Right,0,72,80,455.0,0.979167,Eighth,C5
1049,Left,1,60,80,456.0,0.979167,Eighth,D3_C4_A3
1052,Left,1,62,80,457.0,0.979167,Eighth,D4_C5_A4
1055,Right,0,84,80,458.0,0.979167,Eighth,C6
1056,Right,0,62,80,459.0,0.3125,TripletSixteenth,D4
1057,Right,0,64,80,459.333333,0.3125,TripletSixteenth,E4
1058,Right,0,66,80,459.666667,0.3125,TripletSixteenth,F#4
1059,Right,0,67,80,460.0,0.3125,TripletSixteenth,G4
1060,Right,0,69,80,460.333333,0.3125,TripletSixteenth,A4
1061,Right,0,71,80,460.666667,0.3125,TripletSixteenth,B4
1062,Right,0,72,80,461.0,0.3125,TripletSixteenth,C5
1063,Right,0,74,80,461.333333,0.3125,TripletSixteenth,D5
1064,Right,0,76,80,461.666667,0.3125,TripletSixteenth,E5
1065,Right,0,78,80,462.0,0.229167,ThirtySecond,F#5
1066,Right,0,79,80,462.25,0.229167,ThirtySecond,G5
1067,Right,0,81,80,462.5,0.229167,ThirtySecond,A5
1068,Right,0,83,80,462.75,0.229167,ThirtySecond,B5
1069,Right,0,84,80,463.0,0.979167,Eighth,C6
1070,Right,0,84,83,464.0,0.979167,Eighth,C6
1071,Left,1,38,87,465.0,0.229167,ThirtySecond,D2
1072,Right,0,84,87,465.0,0.979167,Eighth,C6
1073,Left,1,40,88,465.25,0.229167,ThirtySecond,E2
1074,Left,1,42,89,465.5,0.229167,ThirtySecond,F#2
1075,Left,1,43,90,465.75,0.229167,ThirtySecond,G2
1076,Right,0,84,91,466.0,0.979167,Eighth,C6
1077,Left,1,45,91,466.0,0.3125,TripletSixteenth,A2
1078,Left,1,47,93,466.333333,0.3125,TripletSixteenth,B2
1079,Left,1,48,94,466.666667,0.3125,TripletSixteenth,C3
1080,Right,0,81,95,467.0,0.979167,Eighth,A5
1081,Left,1,50,95,467.0,0.3125,TripletSixteenth,D3
1082,Left,1,52,97,467.333333,0.3125,TripletSixteenth,E3
1083,Left,1,54,98,467.666667,0.3125,TripletSixteenth,F#3
1085,Left,1,55,99,468.0,0.3125,TripletSixteenth,G3
1084,Right,0,79,99,468.0,0.979167,Eighth,G5
1086,Left,1,57,80,468.333333,0.3125,TripletSixteenth,A3
1087,Left,1,59,80,468.666667,0.3125,TripletSixteenth,B3
1089,Left,1,60,110,469.0,3.979167,Half,D4_C4
1088,Right,0,69,110,469.0,3.979167,Half,F#5_A4
1092,Right,0,71,80,474.0,0.479167,Sixteenth,B4
1093,Right,0,72,80,474.5,0.479167,Sixteenth,C5
1094,Right,0,74,80,475.0,0.979167,Eighth,D5
1095,Right,0,76,80,476.0,0.479167,Sixteenth,E5
1096,Right,0,78,80,476.5,0.479167,Sixteenth,F#5
1097,Right,0,79,80,477.0,0.979167,Eighth,G5
1098,Right,0,81,80,478.0,0.479167,Sixteenth,A5
1099,Right,0,83,80,478.5,0.479167,Sixteenth,B5
1100,Right,0,84,80,479.0,0.979167,Eighth,C6
1101,Right,0,85,80,480.0,0.979167,Eighth,C#6
1104,Right,0,86,80,481.0,1.979167,Quarter,D6
1102,Left,1,67,80,481.0,2.979167,DottedQuarter,G4_B4
1106,Left,1,72,80,483.0,0.479167,Sixteenth,C5
1105,Right,0,88,80,483.0,0.479167,Sixteenth,E6
1107,Right,0,85,80,483.5,0.479167,Sixteenth,C#6
1108,Left,1,70,80,483.5,0.479167,Sixteenth,A#4
1111,Right,0,86,80,484.0,0.979167,Eighth,D6
1109,Left,1,67,80,484.0,0.979167,Eighth,G4_B4
1112,Right,0,84,80,486.0,0.979167,Sixteenth,E5_C6
1114,Left,1,60,80,486.0,0.979167,Eighth,C4
1115,Right,0,81,80,486.5,0.479167,Sixteenth,A5
1116,Right,0,79,80,487.0,0.979167,Eighth,G5_B4
1117,Left,1,62,80,487.0,0.979167,Eighth,D4
1121,Left,1,50,80,489.0,0.979167,Eighth,D3
1119,Right,0,81,80,489.0,0.979167,Sixteenth,C5_A5
1122,Right,0,78,80,489.5,0.479167,Sixteenth,F#5
1123,Left,1,55,80,490.0,0.979167,Eighth,G3
1124,Right,0,71,80,490.0,0.979167,Eighth,G5_B4
1126,Left,1,50,80,492.0,0.3125,TripletSixteenth,D3
1127,Left,1,52,80,492.333333,0.3125,TripletSixteenth,E3
1128,Left,1,54,80,492.666667,0.3125,TripletSixteenth,F#3
1129,Left,1,55,80,493.0,0.3125,TripletSixteenth,G3
1130,Left,1,57,80,493.333333,0.3125,TripletSixteenth,A3
1131,Left,1,59,80,493.666667,0.3125,TripletSixteenth,B3
1132,Left,1,60,80,494.0,0.979167,Eighth,C4
1133,Right,0,66,80,495.0,0.979167,Eighth,F#4_D5_A4
1136,Right,0,81,80,496.0,0.979167,Eighth,F#5_D6_A5
1139,Left,1,72,102,497.0,0.979167,Eighth,C5
1140,Left,1,50,80,498.0,0.3125,TripletSixteenth,D3
1141,Left,1,52,80,498.333333,0.3125,TripletSixteenth,E3
1142,Left,1,54,80,498.666667,0.3125,TripletSixteenth,F#3
1143,Left,1,55,80,499.0,0.3125,TripletSixteenth,G3
1144,Left,1,57,80,499.333333,0.3125,TripletSixteenth,A3
1145,Left,1,59,80,499.666667,0.3125,TripletSixteenth,B3
1146,Left,1,60,80,500.0,0.979167,Eighth,C4
1147,Right,0,66,80,501.0,0.979167,Eighth,F#4_D5_A4
1150,Right,0,86,80,502.0,0.979167,Eighth,F#5_D6_A5
1153,Left,1,72,103,503.0,0.979167,Eighth,C5
1154,Left,1,50,80,504.0,0.3125,TripletSixteenth,D3
1155,Left,1,52,80,504.333333,0.3125,TripletSixteenth,E3
1156,Left,1,54,80,504.666667,0.3125,TripletSixteenth,F#3
1157,Left,1,55,80,505.0,0.3125,TripletSixteenth,G3
1158,Left,1,57,80,505.333333,0.3125,TripletSixteenth,A3
1159,Left,1,59,80,505.666667,0.3125,TripletSixteenth,B3
1161,Right,0,62,80,506.0,0.3125,TripletSixteenth,D4
1160,Left,1,60,80,506.0,0.979167,Eighth,C4
1162,Right,0,64,80,506.333333,0.3125,TripletSixteenth,E4
1163,Right,0,66,80,506.666667,0.3125,TripletSixteenth,F#4
1164,Right,0,67,80,507.0,0.3125,TripletSixteenth,G4
1165,Right,0,69,80,507.333333,0.3125,TripletSixteenth,A4
1166,Right,0,71,80,507.666667,0.3125,TripletSixteenth,B4
1168,Left,1,62,80,508.0,0.3125,TripletSixteenth,D4
1167,Right,0,72,80,508.0,0.979167,Eighth,C5
1169,Left,1,64,80,508.333333,0.3125,TripletSixteenth,E4
1170,Left,1,66,80,508.666667,0.3125,TripletSixteenth,F#4
1171,Left,1,67,80,509.0,0.3125,TripletSixteenth,G4
1172,Left,1,69,80,509.333333,0.3125,TripletSixteenth,A4
1173,Left,1,71,80,509.666667,0.3125,TripletSixteenth,B4
1175,Right,0,74,80,510.0,0.3125,TripletSixteenth,D5
1174,Left,1,72,80,510.0,0.979167,Eighth,C5
1176,Right,0,76,80,510.333333,0.3125,TripletSixteenth,E5
1177,Right,0,78,80,510.666667,0.3125,TripletSixteenth,F#5
1178,Right,0,79,80,511.0,0.3125,TripletSixteenth,G5
1179,Right,0,81,80,511.333333,0.3125,TripletSixteenth,A5
1180,Right,0,83,80,511.666667,0.3125,TripletSixteenth,B5
1181,Right,0,84,80,512.0,0.979167,Eighth,C6
1182,Left,1,63,80,517.0,0.3125,TripletSixteenth,D#4
1183,Left,1,64,80,517.333333,0.3125,TripletSixteenth,E4
1184,Left,1,66,80,517.666667,0.3125,TripletSixteenth,F#4
1185,Left,1,67,80,518.0,0.3125,TripletSixteenth,G4
1186,Left,1,69,79,518.333333,0.3125,TripletSixteenth,A4
1187,Left,1,71,79,518.666667,0.3125,TripletSixteenth,B4
1188,Left,1,72,79,519.0,0.979167,Eighth,C5
1189,Right,0,75,78,520.0,0.3125,TripletSixteenth,D#5
1190,Right,0,76,77,520.333333,0.3125,TripletSixteenth,E5
1191,Right,0,78,77,520.666667,0.3125,TripletSixteenth,F#5
1192,Right,0,79,77,521.0,0.3125,TripletSixteenth,G5
1193,Right,0,81,77,521.333333,0.3125,TripletSixteenth,A5
1194,Right,0,83,76,521.666667,0.3125,TripletSixteenth,B5
1195,Right,0,84,76,522.0,0.979167,Eighth,C6
1196,Left,1,64,75,523.0,0.3125,TripletSixteenth,E4
1197,Left,1,66,75,523.333333,0.3125,TripletSixteenth,F#4
1198,Left,1,68,74,523.666667,0.3125,TripletSixteenth,G#4
1199,Left,1,69,74,524.0,0.3125,TripletSixteenth,A4
1200,Left,1,70,74,524.333333,0.3125,TripletSixteenth,A#4
1201,Left,1,71,74,524.666667,0.3125,TripletSixteenth,B4
1202,Left,1,72,73,525.0,0.979167,Eighth,C5
1203,Right,0,76,72,526.0,0.3125,TripletSixteenth,E5
1204,Right,0,78,72,526.333333,0.3125,TripletSixteenth,F#5
1205,Right,0,80,72,526.666667,0.3125,TripletSixteenth,G#5
1206,Right,0,81,71,527.0,0.3125,TripletSixteenth,A5
1207,Right,0,82,71,527.333333,0.3125,TripletSixteenth,A#5
1208,Right,0,83,71,527.666667,0.3125,TripletSixteenth,B5
1209,Right,0,84,71,528.0,0.979167,Eighth,C6
1210,Right,0,69,80,534.0,0.479167,Sixteenth,A4
1211,Right,0,70,80,534.5,0.479167,Sixteenth,A#4
1212,Right,0,72,80,535.0,0.979167,Eighth,C5
1213,Right,0,74,80,536.0,0.479167,Sixteenth,D5
1214,Right,0,76,80,536.5,0.479167,Sixteenth,E5
1215,Right,0,77,80,537.0,0.979167,Eighth,F5
1216,Right,0,79,80,538.0,0.479167,Sixteenth,G5
1217,Right,0,81,80,538.5,0.479167,Sixteenth,A5
1218,Right,0,82,80,539.0,0.979167,Eighth,A#5
1219,Right,0,83,80,540.0,0.979167,Eighth,B5
1221,Left,1,65,80,541.0,2.979167,DottedQuarter,F4_A4
1220,Right,0,84,80,541.0,1.979167,Quarter,C6
1223,Left,1,70,80,543.0,0.479167,Sixteenth,A#4
1224,Right,0,86,80,543.0,0.479167,Sixteenth,D6
1226,Left,1,68,80,543.5,0.479167,Sixteenth,G#4
1225,Right,0,83,80,543.5,0.479167,Sixteenth,B5
1228,Left,1,69,80,544.0,0.979167,Eighth,F#4_A4
1227,Right,0,84,80,544.0,0.979167,Eighth,C6
1230,Right,0,69,80,546.0,0.479167,Sixteenth,A4
1231,Right,0,70,80,546.5,0.479167,Sixteenth,A#4
1232,Right,0,72,80,547.0,0.979167,Eighth,C5
1233,Right,0,74,80,548.0,0.479167,Sixteenth,D5
1234,Right,0,76,80,548.5,0.479167,Sixteenth,E5
1235,Right,0,77,80,549.0,0.979167,Eighth,F5
1236,Right,0,79,80,550.0,0.479167,Sixteenth,G5
1237,Right,0,81,80,550.5,0.479167,Sixteenth,A5
1238,Right,0,82,80,551.0,0.979167,Eighth,A#5
1239,Right,0,83,80,552.0,0.979167,Eighth,B5
1241,Left,1,69,70,553.0,2.979167,Quarter,F4_A4
1240,Right,0,84,70,553.0,1.979167,Quarter,C6
1243,Left,1,70,70,555.0,0.479167,Sixteenth,A#4
1244,Right,0,86,70,555.0,0.479167,Sixteenth,D6
1246,Left,1,68,70,555.5,0.479167,Sixteenth,G#4
1245,Right,0,83,70,555.5,0.479167,Sixteenth,B5
1248,Left,1,64,70,556.0,2.979167,DottedQuarter,E4_A4
1247,Right,0,84,70,556.0,1.979167,Quarter,C6
1251,Left,1,71,74,558.0,0.479167,Sixteenth,B4
1250,Right,0,86,74,558.0,0.479167,Sixteenth,D6
1253,Right,0,83,76,558.5,0.479167,Sixteenth,B5
1252,Left,1,68,76,558.5,0.479167,Sixteenth,G#4
1255,Right,0,84,77,559.0,1.979167,Quarter,C6
1254,Left,1,69,77,559.0,2.979167,Quarter,D#4_A4
1258,Right,0,86,82,561.0,0.479167,Sixteenth,D6
1257,Left,1,71,82,561.0,0.479167,Sixteenth,B4
1260,Right,0,83,83,561.5,0.479167,Sixteenth,B5
1259,Left,1,68,83,561.5,0.479167,Sixteenth,G#4
1261,Left,1,62,84,562.0,2.979167,DottedQuarter,D4_A4
1262,Right,0,84,84,562.0,0.979167,Eighth,C6
1264,Left,1,69,87,563.0,0.979167,Eighth,A4
1265,Right,0,84,87,563.0,0.979167,Eighth,C6
1267,Right,0,84,89,564.0,0.979167,Eighth,C6
1266,Left,1,69,89,564.0,0.979167,Eighth,A4
1268,Right,0,84,80,565.0,0.229167,ThirtySecond,C6
1269,Left,1,67,80,565.0,0.979167,Eighth,G4
1270,Right,0,83,80,565.25,0.729167,DottedSixteenth,B5
1271,Right,0,81,80,566.0,0.229167,ThirtySecond,A5
1272,Right,0,79,80,566.25,0.729167,DottedSixteenth,G5
1273,Right,0,78,80,567.0,0.229167,ThirtySecond,F#5
1274,Right,0,79,80,567.25,0.729167,DottedSixteenth,G5
1275,Right,0,81,80,568.0,0.229167,ThirtySecond,A5
1276,Left,1,61,80,568.0,0.979167,Eighth,G4_C#4_A4
1279,Right,0,79,80,568.25,0.729167,DottedSixteenth,G5
1280,Right,0,78,80,569.0,0.229167,ThirtySecond,F#5
1281,Right,0,76,80,569.25,0.729167,DottedSixteenth,E5
1282,Right,0,75,80,570.0,0.229167,ThirtySecond,D#5
1283,Right,0,76,80,570.25,0.729167,DottedSixteenth,E5
1287,Right,0,79,80,571.0,0.229167,ThirtySecond,G5
1284,Left,1,71,80,571.0,0.979167,Eighth,G4_D4_B4
1288,Right,0,78,80,571.25,0.729167,DottedSixteenth,F#5
1289,Right,0,76,80,572.0,0.229167,ThirtySecond,E5
1290,Right,0,74,80,572.25,0.729167,DottedSixteenth,D5
1291,Right,0,72,80,573.0,0.229167,ThirtySecond,C5
1292,Right,0,71,80,573.25,0.729167,DottedSixteenth,B4
1293,Right,0,74,80,574.0,0.229167,ThirtySecond,D5
1294,Left,1,60,80,574.0,0.979167,Eighth,D3_C4_A3
1297,Right,0,72,80,574.25,0.729167,DottedSixteenth,C5
1298,Right,0,71,80,575.0,0.229167,ThirtySecond,B4
1299,Right,0,69,80,575.25,0.729167,DottedSixteenth,A4
1300,Right,0,67,80,576.0,0.229167,ThirtySecond,G4
1301,Right,0,66,80,576.25,0.729167,DottedSixteenth,F#4
1303,Left,1,43,80,577.0,0.979167,Eighth,G2
1302,Right,0,67,80,577.0,0.979167,Eighth,G4
1304,Right,0,55,80,578.0,0.510417,Sixteenth,G3
1305,Right,0,59,80,578.333333,0.541667,Sixteenth,B3
1306,Right,0,62,80,578.666667,0.5,Sixteenth,D4
1307,Right,0,55,80,579.0,0.479167,Sixteenth,G3
1308,Right,0,59,80,579.333333,0.510417,Sixteenth,B3
1309,Right,0,62,80,579.666667,0.510417,Sixteenth,D4
1310,Right,0,55,80,580.0,0.46875,Sixteenth,G3
1311,Left,1,67,90,580.0,2.979167,DottedQuarter,G4
1312,Right,0,59,80,580.333333,0.520833,Sixteenth,B3
1313,Right,0,62,80,580.666667,0.552083,Sixteenth,D4
1314,Right,0,55,80,581.0,0.510417,Sixteenth,G3
1315,Right,0,59,80,581.333333,0.53125,Sixteenth,B3
1316,Right,0,62,80,581.666667,0.5625,Sixteenth,D4
1317,Right,0,55,80,582.0,0.489583,Sixteenth,G3
1318,Right,0,59,80,582.333333,0.520833,Sixteenth,B3
1319,Right,0,62,80,582.666667,0.520833,Sixteenth,D4
1321,Right,0,57,80,583.0,0.479167,Sixteenth,A3
1320,Left,1,66,90,583.0,0.979167,Eighth,F#4
1322,Right,0,60,80,583.333333,0.489583,Sixteenth,C4
1323,Right,0,62,80,583.666667,0.489583,Sixteenth,D4
1324,Left,1,74,90,584.0,0.979167,Eighth,D5
1325,Right,0,57,80,584.0,0.53125,Sixteenth,A3
1326,Right,0,60,80,584.333333,0.614583,Triplet,C4
1327,Right,0,62,80,584.666667,0.5625,Sixteenth,D4
1329,Right,0,57,80,585.0,0.572917,Sixteenth,A3
1328,Left,1,74,90,585.0,0.979167,Eighth,D5
1330,Right,0,60,80,585.333333,0.5625,Sixteenth,C4
1331,Right,0,62,80,585.666667,0.552083,Sixteenth,D4
1333,Right,0,57,80,586.0,0.5625,Sixteenth,A3
1332,Left,1,42,90,586.0,2.979167,DottedQuarter,F#2
1334,Right,0,60,80,586.333333,0.614583,Triplet,C4
1335,Right,0,62,80,586.666667,0.59375,Triplet,D4
1336,Right,0,57,80,587.0,0.614583,Triplet,A3
1337,Right,0,60,80,587.333333,0.572917,Sixteenth,C4
1338,Right,0,62,80,587.666667,0.552083,Sixteenth,D4
1339,Right,0,57,80,588.0,0.625,Triplet,A3
1340,Right,0,60,80,588.333333,0.552083,Sixteenth,C4
1341,Right,0,62,80,588.666667,0.53125,Sixteenth,D4
1342,Left,1,43,90,589.0,0.979167,Eighth,G2
1343,Right,0,55,80,589.0,0.604167,Triplet,G3
1344,Right,0,59,80,589.333333,0.541667,Sixteenth,B3
1345,Right,0,62,80,589.666667,0.635417,Triplet,D4
1347,Right,0,55,80,590.0,0.552083,Sixteenth,G3
1346,Left,1,50,90,590.0,0.979167,Eighth,D3
1348,Right,0,59,80,590.333333,0.541667,Sixteenth,B3
1349,Right,0,62,80,590.666667,0.541667,Sixteenth,D4
1351,Right,0,55,80,591.0,0.552083,Sixteenth,G3
1350,Left,1,50,90,591.0,0.979167,Eighth,D3
1352,Right,0,59,80,591.333333,0.53125,Sixteenth,B3
1353,Right,0,62,80,591.666667,0.572917,Sixteenth,D4
1355,Left,1,67,90,592.0,2.979167,DottedQuarter,G4
1354,Right,0,55,80,592.0,0.572917,Sixteenth,G3
1356,Right,0,59,80,592.333333,0.59375,Triplet,B3
1357,Right,0,62,80,592.666667,0.583333,Triplet,D4
1358,Right,0,55,80,593.0,0.59375,Triplet,G3
1359,Right,0,59,80,593.333333,0.5625,Sixteenth,B3
1360,Right,0,62,80,593.666667,0.5625,Sixteenth,D4
1361,Right,0,55,80,594.0,0.625,Triplet,G3
1362,Right,0,59,80,594.333333,0.572917,Sixteenth,B3
1363,Right,0,62,80,594.666667,0.635417,Triplet,D4
1364,Left,1,66,90,595.0,0.979167,Eighth,F#4
1365,Right,0,57,80,595.0,0.604167,Triplet,A3
1366,Right,0,60,80,595.333333,0.583333,Triplet,C4
1367,Right,0,62,80,595.666667,0.635417,Triplet,D4
1369,Right,0,57,80,596.0,0.5625,Sixteenth,A3
1368,Left,1,76,90,596.0,0.979167,Eighth,E5
1370,Right,0,60,80,596.333333,0.541667,Sixteenth,C4
1371,Right,0,62,80,596.666667,0.552083,Sixteenth,D4
1373,Right,0,57,80,597.0,0.625,Triplet,A3
1372,Left,1,74,90,597.0,0.979167,Eighth,D5
1374,Right,0,60,80,597.333333,0.5625,Sixteenth,C4
1375,Right,0,62,80,597.666667,0.677083,Triplet,D4
1377,Left,1,42,90,598.0,2.979167,DottedQuarter,F#2
1376,Right,0,57,80,598.0,0.552083,Sixteenth,A3
1378,Right,0,60,80,598.333333,0.53125,Sixteenth,C4
1379,Right,0,62,80,598.666667,0.604167,Triplet,D4
1380,Right,0,57,80,599.0,0.572917,Sixteenth,A3
1381,Right,0,60,80,599.333333,0.5625,Sixteenth,C4
1382,Right,0,62,80,599.666667,0.552083,Sixteenth,D4
1383,Right,0,57,80,600.0,0.489583,Sixteenth,A3
1384,Right,0,60,80,600.333333,0.53125,Sixteenth,C4
1385,Right,0,62,80,600.666667,0.510417,Sixteenth,D4
1387,Right,0,55,80,601.0,0.541667,Sixteenth,G3
1386,Left,1,43,90,601.0,0.979167,Eighth,G2
1388,Right,0,59,80,601.333333,0.572917,Sixteenth,B3
1389,Right,0,62,80,601.666667,0.520833,Sixteenth,D4
1391,Left,1,52,106,602.0,0.979167,Eighth,E3
1390,Right,0,55,80,602.0,0.552083,Sixteenth,G3
1392,Right,0,59,80,602.333333,0.520833,Sixteenth,B3
1393,Right,0,62,80,602.666667,0.541667,Sixteenth,D4
1395,Left,1,50,90,603.0,0.979167,Eighth,D3
1394,Right,0,55,80,603.0,0.572917,Sixteenth,G3
1396,Right,0,59,80,603.333333,0.510417,Sixteenth,B3
1397,Right,0,62,80,603.666667,0.552083,Sixteenth,D4
1399,Left,1,66,90,604.0,0.979167,Eighth,F#4
1398,Right,0,57,80,604.0,0.59375,Triplet,A3
1400,Right,0,60,80,604.333333,0.552083,Sixteenth,C4
1401,Right,0,62,80,604.666667,0.520833,Sixteenth,D4
1403,Left,1,76,106,605.0,0.979167,Eighth,E5
1402,Right,0,57,80,605.0,0.53125,Sixteenth,A3
1404,Right,0,60,80,605.333333,0.583333,Triplet,C4
1405,Right,0,62,80,605.666667,0.5625,Sixteenth,D4
1407,Right,0,57,80,606.0,0.552083,Sixteenth,A3
1406,Left,1,74,90,606.0,0.979167,Eighth,D5
1408,Right,0,60,80,606.333333,0.552083,Sixteenth,C4
1409,Right,0,62,80,606.666667,0.552083,Sixteenth,D4
1411,Right,0,55,80,607.0,0.5625,Sixteenth,G3
1410,Left,1,43,90,607.0,0.979167,Eighth,G2
1412,Right,0,59,80,607.333333,0.614583,Triplet,B3
1413,Right,0,62,80,607.666667,0.552083,Sixteenth,D4
1414,Left,1,52,106,608.0,0.979167,Eighth,E3
1415,Right,0,55,80,608.0,0.5625,Sixteenth,G3
1416,Right,0,59,80,608.333333,0.583333,Triplet,B3
1417,Right,0,62,80,608.666667,0.541667,Sixteenth,D4
1419,Right,0,55,80,609.0,0.53125,Sixteenth,G3
1418,Left,1,50,90,609.0,0.979167,Eighth,D3
1420,Right,0,59,80,609.333333,0.541667,Sixteenth,B3
1421,Right,0,62,80,609.666667,0.489583,Sixteenth,D4
1422,Left,1,66,90,610.0,0.979167,Eighth,F#4
1423,Right,0,57,80,610.0,0.5625,Sixteenth,A3
1424,Right,0,60,80,610.333333,0.520833,Sixteenth,C4
1425,Right,0,62,80,610.666667,0.572917,Sixteenth,D4
1427,Right,0,57,80,611.0,0.552083,Sixteenth,A3
1426,Left,1,76,106,611.0,0.979167,Eighth,E5
1428,Right,0,60,80,611.333333,0.53125,Sixteenth,C4
1429,Right,0,62,80,611.666667,0.552083,Sixteenth,D4
1431,Right,0,57,80,612.0,0.53125,Sixteenth,A3
1430,Left,1,74,90,612.0,0.979167,Eighth,D5
1432,Right,0,60,80,612.333333,0.479167,Sixteenth,C4
1433,Right,0,62,80,612.666667,0.3125,TripletSixteenth,D4
1434,Right,0,55,80,613.0,0.479167,Sixteenth,G3
1435,Right,0,59,80,613.5,0.479167,Sixteenth,B3
1436,Right,0,57,80,614.0,0.479167,Sixteenth,A3
1437,Right,0,60,80,614.5,0.479167,Sixteenth,C4
1438,Left,1,55,80,615.0,0.979167,Eighth,G3
1439,Right,0,59,80,615.0,0.479167,Sixteenth,B3
1440,Right,0,62,80,615.5,0.479167,Sixteenth,D4
1442,Left,1,57,80,616.0,0.979167,Eighth,A3
1441,Right,0,60,80,616.0,0.479167,Sixteenth,C4
1443,Right,0,64,80,616.5,0.479167,Sixteenth,E4
1444,Right,0,62,80,617.0,0.479167,Sixteenth,D4
1445,Left,1,59,80,617.0,0.979167,Eighth,B3
1446,Right,0,66,80,617.5,0.479167,Sixteenth,F#4
1448,Right,0,64,80,618.0,0.479167,Sixteenth,E4
1447,Left,1,60,80,618.0,0.979167,Eighth,C4
1449,Right,0,67,80,618.5,0.479167,Sixteenth,G4
1451,Right,0,66,80,619.0,0.479167,Sixteenth,F#4
1450,Left,1,62,80,619.0,0.979167,Eighth,D4
1452,Right,0,69,80,619.5,0.479167,Sixteenth,A4
1453,Right,0,67,80,620.0,0.479167,Sixteenth,G4
1454,Left,1,64,80,620.0,0.979167,Eighth,E4
1455,Right,0,71,80,620.5,0.479167,Sixteenth,B4
1456,Right,0,69,80,621.0,0.479167,Sixteenth,A4
1457,Left,1,66,80,621.0,0.979167,Eighth,F#4
1458,Right,0,72,80,621.5,0.479167,Sixteenth,C5
1459,Left,1,67,80,622.0,0.979167,Eighth,G4
1460,Right,0,71,80,622.0,0.479167,Sixteenth,B4
1461,Right,0,73,81,622.5,0.479167,Sixteenth,C#5
1463,Right,0,74,83,623.0,0.479167,Sixteenth,D5
1462,Left,1,54,83,623.0,0.979167,Eighth,F#3
1464,Right,0,72,85,623.5,0.479167,Sixteenth,C5
1465,Right,0,71,86,624.0,0.479167,Sixteenth,B4
1466,Left,1,55,86,624.0,0.979167,Eighth,G3
1467,Right,0,67,88,624.5,0.479167,Sixteenth,G4
1469,Left,1,56,90,625.0,0.979167,Eighth,G#3
1468,Right,0,76,90,625.0,0.479167,Sixteenth,E5
1470,Right,0,74,92,625.5,0.479167,Sixteenth,D5
1472,Left,1,57,93,626.0,0.979167,Eighth,A3
1471,Right,0,72,93,626.0,0.479167,Sixteenth,C5
1473,Right,0,69,95,626.5,0.479167,Sixteenth,A4
1475,Left,1,58,97,627.0,0.979167,Eighth,A#3
1474,Right,0,78,97,627.0,0.479167,Sixteenth,F#5
1476,Right,0,76,99,627.5,0.479167,Sixteenth,E5
1477,Left,1,59,100,628.0,0.979167,Eighth,B3
1478,Right,0,74,100,628.0,0.479167,Sixteenth,D5
1479,Right,0,71,102,628.5,0.479167,Sixteenth,B4
1480,Right,0,79,104,629.0,0.479167,Sixteenth,G5
1481,Left,1,67,104,629.0,0.979167,Eighth,G4_B3
1483,Right,0,77,106,629.5,0.479167,Sixteenth,F5
1484,Left,1,67,107,630.0,0.979167,Eighth,G4_C4
1486,Right,0,76,107,630.0,0.479167,Sixteenth,E5
1487,Right,0,72,109,630.5,0.479167,Sixteenth,C5
1489,Left,1,59,111,631.0,0.979167,Eighth,G4_B3
1488,Right,0,79,111,631.0,0.479167,Sixteenth,G5
1491,Right,0,77,113,631.5,0.479167,Sixteenth,F5
1494,Right,0,76,114,632.0,0.479167,Sixteenth,E5
1492,Left,1,67,114,632.0,0.979167,Eighth,G4_C4
1495,Right,0,72,116,632.5,0.479167,Sixteenth,C5
1496,Left,1,67,118,633.0,0.979167,Eighth,G4_B3
1498,Right,0,79,118,633.0,0.479167,Sixteenth,G5
1499,Right,0,77,119,633.5,0.479167,Sixteenth,F5
1502,Right,0,76,120,634.0,0.479167,Sixteenth,E5
1500,Left,1,67,120,634.0,0.979167,Eighth,G4_C4
1503,Right,0,72,120,634.5,0.479167,Sixteenth,C5
1505,Left,1,67,120,635.0,0.979167,Eighth,G4_B3
1504,Right,0,79,120,635.0,0.479167,Sixteenth,G5
1507,Right,0,77,120,635.5,0.479167,Sixteenth,F5
1509,Left,1,67,120,636.0,0.979167,Eighth,G4_C4
1508,Right,0,76,120,636.0,0.479167,Sixteenth,E5
1511,Right,0,72,120,636.5,0.479167,Sixteenth,C5
1512,Left,1,67,120,637.0,0.979167,Eighth,G4_C4
1514,Right,0,79,80,638.0,0.3125,TripletSixteenth,G5
1515,Right,0,78,80,638.333333,0.3125,TripletSixteenth,F#5
1516,Right,0,76,80,638.666667,0.3125,TripletSixteenth,E5
1517,Right,0,79,80,639.0,0.3125,TripletSixteenth,G5
1518,Right,0,78,80,639.333333,0.3125,TripletSixteenth,F#5
1519,Right,0,76,80,639.666667,0.3125,TripletSixteenth,E5
1520,Left,1,69,80,640.0,0.979167,Eighth,G4_C#4_A4
1523,Right,0,79,80,641.0,0.3125,TripletSixteenth,G5
1524,Right,0,78,80,641.333333,0.3125,TripletSixteenth,F#5
1525,Right,0,76,80,641.666667,0.3125,TripletSixteenth,E5
1526,Right,0,79,80,642.0,0.3125,TripletSixteenth,G5
1527,Right,0,78,80,642.333333,0.3125,TripletSixteenth,F#5
1528,Right,0,76,80,642.666667,0.3125,TripletSixteenth,E5
1529,Left,1,67,80,643.0,0.979167,Eighth,G4_D4_B4
1532,Right,0,74,80,644.0,0.3125,TripletSixteenth,D5
1533,Right,0,72,80,644.333333,0.3125,TripletSixteenth,C5
1534,Right,0,71,80,644.666667,0.3125,TripletSixteenth,B4
1535,Right,0,74,80,645.0,0.3125,TripletSixteenth,D5
1536,Right,0,72,80,645.333333,0.3125,TripletSixteenth,C5
1537,Right,0,71,80,645.666667,0.3125,TripletSixteenth,B4
1538,Left,1,57,80,646.0,0.979167,Eighth,D3_C4_A3
1541,Right,0,69,80,647.0,0.3125,TripletSixteenth,A4
1542,Right,0,67,80,647.333333,0.3125,TripletSixteenth,G4
1543,Right,0,66,80,647.666667,0.3125,TripletSixteenth,F#4
1544,Right,0,69,80,648.0,0.3125,TripletSixteenth,A4
1545,Right,0,67,80,648.333333,0.3125,TripletSixteenth,G4
1546,Right,0,66,80,648.666667,0.3125,TripletSixteenth,F#4
1547,Left,1,55,80,649.0,0.604167,Triplet,G3
1548,Right,0,67,80,649.0,1.979167,Quarter,G4
1549,Left,1,59,80,649.333333,0.583333,Triplet,B3
1550,Left,1,62,80,649.666667,0.59375,Triplet,D4
1551,Left,1,55,80,650.0,0.552083,Sixteenth,G3
1552,Left,1,59,80,650.333333,0.520833,Sixteenth,B3
1553,Left,1,62,80,650.666667,0.583333,Triplet,D4
1554,Left,1,55,80,651.0,0.635417,Triplet,G3
1555,Left,1,59,80,651.333333,0.541667,Sixteenth,B3
1556,Left,1,62,80,651.666667,0.520833,Sixteenth,D4
1558,Right,0,43,90,652.0,2.979167,DottedQuarter,G2
1557,Left,1,55,80,652.0,0.552083,Sixteenth,G3
1559,Left,1,59,80,652.333333,0.5625,Sixteenth,B3
1560,Left,1,62,80,652.666667,0.510417,Sixteenth,D4
1561,Left,1,55,80,653.0,0.5625,Sixteenth,G3
1562,Left,1,59,80,653.333333,0.53125,Sixteenth,B3
1563,Left,1,62,80,653.666667,0.541667,Sixteenth,D4
1564,Left,1,55,80,654.0,0.510417,Sixteenth,G3
1565,Left,1,59,80,654.333333,0.552083,Sixteenth,B3
1566,Left,1,62,80,654.666667,0.5625,Sixteenth,D4
1568,Right,0,42,90,655.0,0.979167,Eighth,F#2
1567,Left,1,57,80,655.0,0.520833,Sixteenth,A3
1569,Left,1,60,80,655.333333,0.510417,Sixteenth,C4
1570,Left,1,62,80,655.666667,0.53125,Sixteenth,D4
1572,Right,0,50,90,656.0,0.979167,Eighth,D3
1571,Left,1,57,80,656.0,0.572917,Sixteenth,A3
1573,Left,1,60,80,656.333333,0.510417,Sixteenth,C4
1574,Left,1,62,80,656.666667,0.572917,Sixteenth,D4
1575,Right,0,50,90,657.0,0.979167,Eighth,D3
1576,Left,1,57,80,657.0,0.541667,Sixteenth,A3
1577,Left,1,60,80,657.333333,0.552083,Sixteenth,C4
1578,Left,1,62,80,657.666667,0.552083,Sixteenth,D4
1580,Left,1,57,80,658.0,0.552083,Sixteenth,A3
1579,Right,0,66,90,658.0,2.979167,DottedQuarter,F#4
1581,Left,1,60,80,658.333333,0.604167,Triplet,C4
1582,Left,1,62,80,658.666667,0.614583,Triplet,D4
1583,Left,1,57,80,659.0,0.59375,Triplet,A3
1584,Left,1,60,80,659.333333,0.5625,Sixteenth,C4
1585,Left,1,62,80,659.666667,0.5625,Sixteenth,D4
1586,Left,1,57,80,660.0,0.59375,Triplet,A3
1587,Left,1,60,80,660.333333,0.5625,Sixteenth,C4
1588,Left,1,62,80,660.666667,0.520833,Sixteenth,D4
1589,Right,0,67,90,661.0,0.979167,Eighth,G4
1590,Left,1,55,80,661.0,0.53125,Sixteenth,G3
1591,Left,1,59,80,661.333333,0.53125,Sixteenth,B3
1592,Left,1,62,80,661.666667,0.552083,Sixteenth,D4
1594,Left,1,55,80,662.0,0.5625,Sixteenth,G3
1593,Right,0,74,90,662.0,0.979167,Eighth,D5
1595,Left,1,59,80,662.333333,0.520833,Sixteenth,B3
1596,Left,1,62,80,662.666667,0.552083,Sixteenth,D4
1598,Left,1,55,80,663.0,0.65625,Triplet,G3
1597,Right,0,74,90,663.0,0.979167,Eighth,D5
1599,Left,1,59,80,663.333333,0.541667,Sixteenth,B3
1600,Left,1,62,80,663.666667,0.583333,Triplet,D4
1602,Right,0,43,90,664.0,2.979167,DottedQuarter,G2
1601,Left,1,55,80,664.0,0.583333,Triplet,G3
1603,Left,1,59,80,664.333333,0.583333,Triplet,B3
1604,Left,1,62,80,664.666667,0.541667,Sixteenth,D4
1605,Left,1,55,80,665.0,0.583333,Triplet,G3
1606,Left,1,59,80,665.333333,0.53125,Sixteenth,B3
1607,Left,1,62,80,665.666667,0.541667,Sixteenth,D4
1608,Left,1,55,80,666.0,0.541667,Sixteenth,G3
1609,Left,1,59,80,666.333333,0.552083,Sixteenth,B3
1610,Left,1,62,80,666.666667,0.541667,Sixteenth,D4
1612,Right,0,42,90,667.0,0.979167,Eighth,F#2
1611,Left,1,57,80,667.0,0.53125,Sixteenth,A3
1613,Left,1,60,80,667.333333,0.552083,Sixteenth,C4
1614,Left,1,62,80,667.666667,0.5625,Sixteenth,D4
1615,Left,1,57,80,668.0,0.5625,Sixteenth,A3
1616,Right,0,52,90,668.0,0.979167,Eighth,E3
1617,Left,1,60,80,668.333333,0.583333,Triplet,C4
1618,Left,1,62,80,668.666667,0.552083,Sixteenth,D4
1620,Left,1,57,80,669.0,0.59375,Triplet,A3
1619,Right,0,50,90,669.0,0.979167,Eighth,D3
1621,Left,1,60,80,669.333333,0.5625,Sixteenth,C4
1622,Left,1,62,80,669.666667,0.572917,Sixteenth,D4
1624,Left,1,57,80,670.0,0.625,Triplet,A3
1623,Right,0,66,90,670.0,2.979167,DottedQuarter,F#4
1625,Left,1,60,80,670.333333,0.583333,Triplet,C4
1626,Left,1,62,80,670.666667,0.583333,Triplet,D4
1627,Left,1,57,80,671.0,0.572917,Sixteenth,A3
1628,Left,1,60,80,671.333333,0.572917,Sixteenth,C4
1629,Left,1,62,80,671.666667,0.572917,Sixteenth,D4
1630,Left,1,57,80,672.0,0.520833,Sixteenth,A3
1631,Left,1,60,80,672.333333,0.604167,Triplet,C4
1632,Left,1,62,80,672.666667,0.552083,Sixteenth,D4
1634,Left,1,55,80,673.0,0.53125,Sixteenth,G3
1633,Right,0,67,90,673.0,0.979167,Eighth,G4
1635,Left,1,59,80,673.333333,0.5625,Sixteenth,B3
1636,Left,1,62,80,673.666667,0.572917,Sixteenth,D4
1637,Left,1,55,80,674.0,0.541667,Sixteenth,G3
1638,Right,0,76,103,674.0,0.979167,Eighth,E5
1639,Left,1,59,80,674.333333,0.53125,Sixteenth,B3
1640,Left,1,62,80,674.666667,0.520833,Sixteenth,D4
1642,Left,1,55,80,675.0,0.604167,Triplet,G3
1641,Right,0,74,90,675.0,0.979167,Eighth,D5
1643,Left,1,59,80,675.333333,0.614583,Triplet,B3
1644,Left,1,62,80,675.666667,0.604167,Triplet,D4
1645,Right,0,42,90,676.0,0.979167,Eighth,F#2
1646,Left,1,57,80,676.0,0.5625,Sixteenth,A3
1647,Left,1,60,80,676.333333,0.583333,Triplet,C4
1648,Left,1,62,80,676.666667,0.479167,Sixteenth,D4
1650,Right,0,52,105,677.0,0.979167,Eighth,E3
1649,Left,1,57,80,677.0,0.625,Triplet,A3
1651,Left,1,60,80,677.333333,0.65625,Triplet,C4
1652,Left,1,62,80,677.666667,0.625,Triplet,D4
1653,Left,1,57,80,678.0,0.614583,Triplet,A3
1654,Right,0,50,90,678.0,0.979167,Eighth,D3
1655,Left,1,60,80,678.333333,0.635417,Triplet,C4
1656,Left,1,62,80,678.666667,0.625,Triplet,D4
1657,Left,1,55,80,679.0,0.625,Triplet,G3
1658,Right,0,67,90,679.0,0.979167,Eighth,G4
1659,Left,1,59,80,679.333333,0.552083,Sixteenth,B3
1660,Left,1,62,80,679.666667,0.635417,Triplet,D4
1662,Right,0,76,106,680.0,0.979167,Eighth,E5
1661,Left,1,55,80,680.0,0.645833,Triplet,G3
1663,Left,1,59,80,680.333333,0.572917,Sixteenth,B3
1664,Left,1,62,80,680.666667,0.677083,Triplet,D4
1666,Right,0,74,90,681.0,0.979167,Eighth,D5
1665,Left,1,55,80,681.0,0.583333,Triplet,G3
1667,Left,1,59,80,681.333333,0.5625,Sixteenth,B3
1668,Left,1,62,80,681.666667,0.59375,Triplet,D4
1669,Right,0,42,90,682.0,0.979167,Eighth,F#2
1670,Left,1,57,80,682.0,0.604167,Triplet,A3
1671,Left,1,60,80,682.333333,0.677083,Triplet,C4
1672,Left,1,62,80,682.666667,0.552083,Sixteenth,D4
1673,Right,0,52,104,683.0,0.979167,Eighth,E3
1674,Left,1,57,80,683.0,0.541667,Sixteenth,A3
1675,Left,1,60,80,683.333333,0.520833,Sixteenth,C4
1676,Left,1,62,80,683.666667,0.541667,Sixteenth,D4
1677,Left,1,57,80,684.0,0.520833,Sixteenth,A3
1678,Right,0,50,90,684.0,0.979167,Eighth,D3
1679,Left,1,60,80,684.333333,0.5,Sixteenth,C4
1680,Left,1,62,80,684.666667,0.3125,TripletSixteenth,D4
1681,Right,0,43,80,685.0,0.479167,Sixteenth,G2
1682,Right,0,47,80,685.5,0.479167,Sixteenth,B2
1683,Right,0,45,80,686.0,0.479167,Sixteenth,A2
1684,Right,0,48,80,686.5,0.479167,Sixteenth,C3
1686,Left,1,31,80,687.0,0.979167,Eighth,G2_G1
1685,Right,0,47,80,687.0,0.479167,Sixteenth,B2
1688,Right,0,50,80,687.5,0.479167,Sixteenth,D3
1689,Left,1,45,80,688.0,0.979167,Eighth,A2_A1
1690,Right,0,48,80,688.0,0.479167,Sixteenth,C3
1692,Right,0,52,80,688.5,0.479167,Sixteenth,E3
1693,Left,1,35,80,689.0,0.979167,Eighth,B2_B1
1695,Right,0,50,80,689.0,0.479167,Sixteenth,D3
1696,Right,0,54,80,689.5,0.479167,Sixteenth,F#3
1698,Left,1,48,80,690.0,0.979167,Eighth,C3_C2
1697,Right,0,52,80,690.0,0.479167,Sixteenth,E3
1700,Right,0,55,80,690.5,0.479167,Sixteenth,G3
1702,Left,1,50,80,691.0,0.979167,Eighth,D3_D2
1701,Right,0,54,80,691.0,0.479167,Sixteenth,F#3
1704,Right,0,57,80,691.5,0.479167,Sixteenth,A3
1705,Right,0,55,80,692.0,0.479167,Sixteenth,G3
1706,Left,1,52,80,692.0,0.979167,Eighth,E3_E2
1708,Right,0,59,80,692.5,0.479167,Sixteenth,B3
1710,Right,0,57,80,693.0,0.479167,Sixteenth,A3
1709,Left,1,54,80,693.0,0.979167,Eighth,F#3_F#2
1712,Right,0,60,80,693.5,0.479167,Sixteenth,C4
1715,Right,0,59,80,694.0,0.479167,Sixteenth,B3
1713,Left,1,55,80,694.0,0.979167,Eighth,G3_G2
1716,Right,0,61,81,694.5,0.479167,Sixteenth,C#4
1718,Left,1,42,83,695.0,0.979167,Eighth,F#2
1717,Right,0,62,83,695.0,0.479167,Sixteenth,D4
1719,Right,0,60,85,695.5,0.479167,Sixteenth,C4
1721,Right,0,59,86,696.0,0.479167,Sixteenth,B3
1720,Left,1,43,86,696.0,0.979167,Eighth,G2
1722,Right,0,57,88,696.5,0.479167,Sixteenth,A3
1723,Right,0,64,90,697.0,0.479167,Sixteenth,E4
1724,Left,1,44,90,697.0,0.979167,Eighth,G#2
1725,Right,0,62,92,697.5,0.479167,Sixteenth,D4
1727,Left,1,45,93,698.0,0.979167,Eighth,A2
1726,Right,0,60,93,698.0,0.479167,Sixteenth,C4
1728,Right,0,57,95,698.5,0.479167,Sixteenth,A3
1729,Right,0,66,97,699.0,0.479167,Sixteenth,F#4
1730,Left,1,46,97,699.0,0.979167,Eighth,A#2
1731,Right,0,64,99,699.5,0.479167,Sixteenth,E4
1733,Left,1,47,100,700.0,0.979167,Eighth,B2
1732,Right,0,62,100,700.0,0.479167,Sixteenth,D4
1734,Right,0,59,102,700.5,0.479167,Sixteenth,B3
1736,Left,1,47,104,701.0,0.979167,Eighth,G3_B2
1735,Right,0,67,104,701.0,0.479167,Sixteenth,G4
1738,Right,0,65,106,701.5,0.479167,Sixteenth,F4
1739,Left,1,48,107,702.0,0.979167,Eighth,G3_C3
1741,Right,0,64,107,702.0,0.479167,Sixteenth,E4
1742,Right,0,60,109,702.5,0.479167,Sixteenth,C4
1743,Left,1,47,111,703.0,0.979167,Eighth,G3_B2
1745,Right,0,67,111,703.0,0.479167,Sixteenth,G4
1746,Right,0,65,113,703.5,0.479167,Sixteenth,F4
1748,Right,0,64,114,704.0,0.479167,Sixteenth,E4
1747,Left,1,55,114,704.0,0.979167,Eighth,G3_C3
1750,Right,0,60,116,704.5,0.479167,Sixteenth,C4
1751,Left,1,47,118,705.0,0.979167,Eighth,G3_B2
1753,Right,0,67,118,705.0,0.479167,Sixteenth,G4
1754,Right,0,65,119,705.5,0.479167,Sixteenth,F4
1757,Right,0,64,120,706.0,0.479167,Sixteenth,E4
1755,Left,1,48,120,706.0,0.979167,Eighth,G3_C3
1758,Right,0,60,120,706.5,0.479167,Sixteenth,C4
1759,Right,0,67,120,707.0,0.479167,Sixteenth,G4
1760,Left,1,55,120,707.0,0.979167,Eighth,G3_B2
1762,Right,0,65,120,707.5,0.479167,Sixteenth,F4
1764,Left,1,55,120,708.0,0.979167,Eighth,G3_C3
1763,Right,0,64,120,708.0,0.479167,Sixteenth,E4
1766,Right,0,60,120,708.5,0.479167,Sixteenth,C4
1767,Left,1,48,120,709.0,0.979167,Eighth,G3_C3
1769,Right,0,79,80,710.0,0.3125,TripletSixteenth,G5
1770,Right,0,78,80,710.333333,0.3125,TripletSixteenth,F#5
1771,Right,0,76,80,710.666667,0.3125,TripletSixteenth,E5
1772,Right,0,79,80,711.0,0.3125,TripletSixteenth,G5
1773,Right,0,78,80,711.333333,0.3125,TripletSixteenth,F#5
1774,Right,0,76,80,711.666667,0.3125,TripletSixteenth,E5
1775,Left,1,55,80,712.0,0.979167,Eighth,G3_C#3_A3
1778,Right,0,79,80,713.0,0.3125,TripletSixteenth,G5
1779,Right,0,78,80,713.333333,0.3125,TripletSixteenth,F#5
1780,Right,0,76,80,713.666667,0.3125,TripletSixteenth,E5
1781,Right,0,79,80,714.0,0.3125,TripletSixteenth,G5
1782,Right,0,78,80,714.333333,0.3125,TripletSixteenth,F#5
1783,Right,0,76,80,714.666667,0.3125,TripletSixteenth,E5
1784,Left,1,50,80,715.0,0.979167,Eighth,G3_D3_B3
1787,Right,0,74,80,716.0,0.3125,TripletSixteenth,D5
1788,Right,0,72,80,716.333333,0.3125,TripletSixteenth,C5
1789,Right,0,71,80,716.666667,0.3125,TripletSixteenth,B4
1790,Right,0,74,80,717.0,0.3125,TripletSixteenth,D5
1791,Right,0,72,80,717.333333,0.3125,TripletSixteenth,C5
1792,Right,0,71,80,717.666667,0.3125,TripletSixteenth,B4
1793,Left,1,60,80,718.0,0.979167,Eighth,D3_C4_A3
1796,Right,0,69,80,719.0,0.3125,TripletSixteenth,A4
1797,Right,0,67,80,719.333333,0.3125,TripletSixteenth,G4
1798,Right,0,66,80,719.666667,0.3125,TripletSixteenth,F#4
1799,Right,0,69,80,720.0,0.3125,TripletSixteenth,A4
1800,Right,0,67,80,720.333333,0.3125,TripletSixteenth,G4
1801,Right,0,66,80,720.666667,0.3125,TripletSixteenth,F#4
1803,Right,0,67,80,721.0,0.979167,Eighth,G4
1802,Left,1,43,70,721.0,0.635417,Triplet,G2
1804,Left,1,50,70,721.333333,0.635417,Triplet,D3
1805,Left,1,55,70,721.666667,0.635417,Triplet,G3
1806,Left,1,43,70,722.0,0.635417,Triplet,G2
1807,Left,1,50,70,722.333333,0.635417,Triplet,D3
1808,Left,1,55,70,722.666667,0.635417,Triplet,G3
1810,Right,0,71,80,723.0,0.479167,Sixteenth,B4
1809,Left,1,43,70,723.0,0.635417,Triplet,G2
1811,Left,1,50,70,723.333333,0.635417,Triplet,D3
1812,Right,0,72,80,723.5,0.479167,Sixteenth,C5
1813,Left,1,55,70,723.666667,0.635417,Triplet,G3
1815,Right,0,74,80,724.0,0.979167,Eighth,D5
1814,Left,1,43,70,724.0,0.635417,Triplet,G2
1816,Left,1,50,70,724.333333,0.635417,Triplet,D3
1817,Left,1,55,70,724.666667,0.635417,Triplet,G3
1819,Left,1,43,70,725.0,0.635417,Triplet,G2
1818,Right,0,76,80,725.0,0.479167,Sixteenth,E5
1820,Left,1,50,70,725.333333,0.635417,Triplet,D3
1821,Right,0,78,80,725.5,0.479167,Sixteenth,F#5
1822,Left,1,55,70,725.666667,0.635417,Triplet,G3
1824,Left,1,43,70,726.0,0.635417,Triplet,G2
1823,Right,0,79,80,726.0,0.979167,Eighth,G5
1825,Left,1,50,70,726.333333,0.635417,Triplet,D3
1826,Left,1,55,70,726.666667,0.635417,Triplet,G3
1827,Left,1,43,70,727.0,0.635417,Triplet,G2
1828,Right,0,81,80,727.0,0.479167,Sixteenth,A5
1829,Left,1,50,70,727.333333,0.635417,Triplet,D3
1830,Right,0,83,80,727.5,0.479167,Sixteenth,B5
1831,Left,1,55,70,727.666667,0.635417,Triplet,G3
1833,Left,1,43,70,728.0,0.635417,Triplet,G2
1832,Right,0,84,80,728.0,0.979167,Eighth,C6
1834,Left,1,50,70,728.333333,0.635417,Triplet,D3
1835,Left,1,55,70,728.666667,0.635417,Triplet,G3
1838,Left,1,43,70,729.0,0.635417,Triplet,G2
1836,Right,0,85,95,729.0,0.979167,Eighth,C#6_C#5
1839,Left,1,50,70,729.333333,0.635417,Triplet,D3
1840,Left,1,55,70,729.666667,0.635417,Triplet,G3
1843,Left,1,43,70,730.0,0.635417,Triplet,G2
1841,Right,0,74,80,730.0,1.979167,Quarter,D6_D5
1844,Left,1,50,70,730.333333,0.635417,Triplet,D3
1845,Left,1,55,70,730.666667,0.635417,Triplet,G3
1846,Left,1,43,70,731.0,0.635417,Triplet,G2
1847,Left,1,50,70,731.333333,0.635417,Triplet,D3
1848,Left,1,55,70,731.666667,0.635417,Triplet,G3
1849,Left,1,43,70,732.0,0.635417,Triplet,G2
1850,Right,0,88,80,732.0,0.479167,Sixteenth,E6
1851,Left,1,50,70,732.333333,0.635417,Triplet,D3
1852,Right,0,85,80,732.5,0.479167,Sixteenth,C#6
1853,Left,1,55,70,732.666667,0.635417,Triplet,G3
1854,Left,1,43,70,733.0,0.635417,Triplet,G2
1855,Right,0,86,80,733.0,0.979167,Eighth,D6
1856,Left,1,50,70,733.333333,0.635417,Triplet,D3
1857,Left,1,55,70,733.666667,0.635417,Triplet,G3
1858,Left,1,43,70,734.0,0.635417,Triplet,G2
1859,Left,1,50,70,734.333333,0.635417,Triplet,D3
1860,Left,1,55,70,734.666667,0.635417,Triplet,G3
1862,Left,1,43,70,735.0,0.635417,Triplet,G2
1861,Right,0,71,80,735.0,0.479167,Sixteenth,B4
1863,Left,1,50,70,735.333333,0.635417,Triplet,D3
1864,Right,0,72,80,735.5,0.479167,Sixteenth,C5
1865,Left,1,55,70,735.666667,0.635417,Triplet,G3
1866,Right,0,74,80,736.0,0.979167,Eighth,D5
1867,Left,1,43,70,736.0,0.635417,Triplet,G2
1868,Left,1,50,70,736.333333,0.635417,Triplet,D3
1869,Left,1,55,70,736.666667,0.635417,Triplet,G3
1871,Right,0,76,80,737.0,0.479167,Sixteenth,E5
1870,Left,1,43,70,737.0,0.635417,Triplet,G2
1872,Left,1,50,70,737.333333,0.635417,Triplet,D3
1873,Right,0,78,80,737.5,0.479167,Sixteenth,F#5
1874,Left,1,55,70,737.666667,0.635417,Triplet,G3
1875,Right,0,79,80,738.0,0.979167,Eighth,G5
1876,Left,1,43,70,738.0,0.635417,Triplet,G2
1877,Left,1,50,70,738.333333,0.635417,Triplet,D3
1878,Left,1,55,70,738.666667,0.635417,Triplet,G3
1879,Right,0,81,80,739.0,0.479167,Sixteenth,A5
1880,Left,1,43,70,739.0,0.635417,Triplet,G2
1881,Left,1,50,70,739.333333,0.635417,Triplet,D3
1882,Right,0,83,80,739.5,0.479167,Sixteenth,B5
1883,Left,1,55,70,739.666667,0.635417,Triplet,G3
1885,Left,1,43,70,740.0,0.635417,Triplet,G2
1884,Right,0,84,80,740.0,0.979167,Eighth,C6
1886,Left,1,50,70,740.333333,0.635417,Triplet,D3
1887,Left,1,55,70,740.666667,0.635417,Triplet,G3
1890,Left,1,43,70,741.0,0.635417,Triplet,G2
1888,Right,0,85,95,741.0,0.979167,Eighth,C#6_C#5
1891,Left,1,50,70,741.333333,0.635417,Triplet,D3
1892,Left,1,55,70,741.666667,0.635417,Triplet,G3
1893,Left,1,43,70,742.0,0.635417,Triplet,G2
1894,Right,0,86,80,742.0,1.979167,Quarter,D6_D5
1896,Left,1,50,70,742.333333,0.635417,Triplet,D3
1897,Left,1,55,70,742.666667,0.635417,Triplet,G3
1898,Left,1,43,70,743.0,0.635417,Triplet,G2
1899,Left,1,50,70,743.333333,0.635417,Triplet,D3
1900,Left,1,55,70,743.666667,0.635417,Triplet,G3
1901,Left,1,43,70,744.0,0.635417,Triplet,G2
1902,Right,0,84,80,744.0,0.479167,Sixteenth,C6
1903,Left,1,50,70,744.333333,0.635417,Triplet,D3
1904,Right,0,81,80,744.5,0.479167,Sixteenth,A5
1905,Left,1,55,70,744.666667,0.635417,Triplet,G3
1906,Right,0,79,80,745.0,0.979167,Eighth,G5
1907,Left,1,43,70,745.0,0.635417,Triplet,G2
1908,Left,1,50,70,745.333333,0.635417,Triplet,D3
1909,Left,1,55,70,745.666667,0.635417,Triplet,G3
1910,Left,1,43,70,746.0,0.635417,Triplet,G2
1911,Left,1,50,70,746.333333,0.635417,Triplet,D3
1912,Left,1,55,70,746.666667,0.635417,Triplet,G3
1914,Left,1,43,70,747.0,0.635417,Triplet,G2
1913,Right,0,73,95,747.0,0.979167,Eighth,C#5_C#4
1916,Left,1,50,70,747.333333,0.635417,Triplet,D3
1917,Left,1,55,70,747.666667,0.635417,Triplet,G3
1918,Right,0,74,80,748.0,1.979167,Quarter,D5_D4
1920,Left,1,43,70,748.0,0.635417,Triplet,G2
1921,Left,1,50,70,748.333333,0.635417,Triplet,D3
1922,Left,1,55,70,748.666667,0.635417,Triplet,G3
1923,Left,1,43,70,749.0,0.635417,Triplet,G2
1924,Left,1,50,70,749.333333,0.635417,Triplet,D3
1925,Left,1,55,70,749.666667,0.635417,Triplet,G3
1926,Left,1,43,70,750.0,0.635417,Triplet,G2
1927,Right,0,76,80,750.0,0.479167,Sixteenth,E5
1928,Left,1,50,70,750.333333,0.635417,Triplet,D3
1929,Right,0,73,80,750.5,0.479167,Sixteenth,C#5
1930,Left,1,55,70,750.666667,0.635417,Triplet,G3
1931,Right,0,74,80,751.0,0.979167,Eighth,D5
1932,Left,1,43,70,751.0,0.635417,Triplet,G2
1933,Left,1,50,70,751.333333,0.635417,Triplet,D3
1934,Left,1,55,70,751.666667,0.635417,Triplet,G3
1935,Left,1,43,70,752.0,0.635417,Triplet,G2
1936,Left,1,50,70,752.333333,0.635417,Triplet,D3
1937,Left,1,55,70,752.666667,0.635417,Triplet,G3
1940,Left,1,43,70,753.0,0.635417,Triplet,G2
1938,Right,0,85,95,753.0,0.979167,Eighth,C#6_C#5
1941,Left,1,50,70,753.333333,0.635417,Triplet,D3
1942,Left,1,55,70,753.666667,0.635417,Triplet,G3
1945,Left,1,43,70,754.0,0.635417,Triplet,G2
1943,Right,0,74,80,754.0,1.979167,Quarter,D6_D5
1946,Left,1,50,70,754.333333,0.635417,Triplet,D3
1947,Left,1,55,70,754.666667,0.635417,Triplet,G3
1948,Left,1,43,70,755.0,0.635417,Triplet,G2
1949,Left,1,50,70,755.333333,0.635417,Triplet,D3
1950,Left,1,55,70,755.666667,0.635417,Triplet,G3
1952,Right,0,84,80,756.0,0.479167,Sixteenth,C6
1951,Left,1,43,70,756.0,0.635417,Triplet,G2
1953,Left,1,50,70,756.333333,0.635417,Triplet,D3
1954,Right,0,81,80,756.5,0.479167,Sixteenth,A5
1955,Left,1,55,70,756.666667,0.635417,Triplet,G3
1956,Left,1,43,70,757.0,0.635417,Triplet,G2
1957,Right,0,79,80,757.0,0.979167,Eighth,G5
1958,Left,1,50,70,757.333333,0.635417,Triplet,D3
1959,Left,1,55,70,757.666667,0.635417,Triplet,G3
1960,Left,1,43,70,758.0,0.635417,Triplet,G2
1961,Left,1,50,70,758.333333,0.635417,Triplet,D3
1962,Left,1,55,70,758.666667,0.635417,Triplet,G3
1964,Right,0,72,80,759.0,0.479167,Sixteenth,C5
1963,Left,1,43,70,759.0,0.635417,Triplet,G2
1965,Left,1,50,70,759.333333,0.635417,Triplet,D3
1966,Right,0,69,80,759.5,0.479167,Sixteenth,A4
1967,Left,1,55,70,759.666667,0.635417,Triplet,G3
1969,Left,1,43,70,760.0,0.635417,Triplet,G2
1968,Right,0,67,80,760.0,0.979167,Eighth,G4
1970,Left,1,50,70,760.333333,0.635417,Triplet,D3
1971,Left,1,55,70,760.666667,0.635417,Triplet,G3
1972,Left,1,43,70,761.0,0.635417,Triplet,G2
1973,Left,1,50,70,761.333333,0.635417,Triplet,D3
1974,Left,1,55,70,761.666667,0.635417,Triplet,G3
1976,Right,0,84,80,762.0,0.479167,Sixteenth,C6
1975,Left,1,43,70,762.0,0.635417,Triplet,G2
1977,Left,1,50,70,762.333333,0.635417,Triplet,D3
1978,Right,0,81,80,762.5,0.479167,Sixteenth,A5
1979,Left,1,55,70,762.666667,0.635417,Triplet,G3
1980,Left,1,43,70,763.0,0.635417,Triplet,G2
1981,Right,0,79,80,763.0,0.979167,Eighth,G5
1982,Left,1,50,70,763.333333,0.635417,Triplet,D3
1983,Left,1,55,70,763.666667,0.635417,Triplet,G3
1984,Left,1,43,70,764.0,0.635417,Triplet,G2
1985,Left,1,50,70,764.333333,0.635417,Triplet,D3
1986,Left,1,55,70,764.666667,0.635417,Triplet,G3
1988,Left,1,43,70,765.0,0.635417,Triplet,G2
1987,Right,0,72,80,765.0,0.479167,Sixteenth,C5
1989,Left,1,50,70,765.333333,0.635417,Triplet,D3
1990,Right,0,69,80,765.5,0.479167,Sixteenth,A4
1991,Left,1,55,70,765.666667,0.635417,Triplet,G3
1993,Right,0,67,80,766.0,0.979167,Eighth,G4
1992,Left,1,43,70,766.0,0.979167,Eighth,G2
1994,Left,1,33,80,768.0,0.489583,Sixteenth,A1
1995,Left,1,30,80,768.5,0.489583,Sixteenth,F#1
1996,Left,1,31,80,769.0,2.979167,DottedQuarter,G1
