,hand,channel,note,velocity,start_beat,duration,note_value,chord
0,Right,0,71,80,0.0,1.989583,Half,B4
1,Left,1,52,80,0.5,0.489583,Eighth,G#3_E3_B3
4,Left,1,52,80,1.0,0.489583,Eighth,G#3_E3_B3
7,Left,1,52,80,1.5,0.489583,Eighth,G#3_E3_B3
10,Right,0,64,80,2.0,1.989583,Half,E5_E4
12,Left,1,52,80,2.5,0.489583,Eighth,G#3_E3_B3
15,Left,1,52,80,3.0,0.489583,Eighth,G#3_E3_B3
18,Left,1,59,80,3.5,0.489583,Eighth,G#3_E3_B3
21,Right,0,73,80,4.0,1.989583,Half,C#5
22,Left,1,61,80,4.5,0.489583,Eighth,E3_C#4_A3
25,Left,1,61,80,5.0,0.489583,Eighth,E3_C#4_A3
28,Left,1,52,80,5.5,0.489583,Eighth,E3_C#4_A3
31,Right,0,78,80,6.0,1.989583,Half,F#5_F#4
33,Left,1,57,80,6.5,0.489583,Eighth,E3_C#4_A3
36,Left,1,61,80,7.0,0.489583,Eighth,E3_C#4_A3
39,Left,1,61,80,7.5,0.489583,Eighth,E3_C#4_A3
42,Right,0,75,80,8.0,1.989583,Half,D#5
43,Left,1,63,80,8.5,0.489583,Eighth,F#3_E3_D#4_A3
47,Left,1,63,80,9.0,0.489583,Eighth,F#3_E3_D#4_A3
51,Left,1,63,80,9.5,0.489583,Eighth,F#3_E3_D#4_A3
55,Right,0,71,80,10.0,1.989583,Half,B5_B4
57,Left,1,54,80,10.5,0.489583,Eighth,F#3_E3_D#4_A3
61,Left,1,63,80,11.0,0.489583,Eighth,F#3_E3_D#4_A3
65,Left,1,52,80,11.5,0.489583,Eighth,F#3_E3_D#4_A3
73,Right,0,83,80,12.0,1.489583,DottedQuarter,B5
69,Left,1,59,80,12.0,2.989583,DottedHalf,G#3_E4_E3_B3
74,Right,0,85,80,13.5,0.239583,Sixteenth,C#6
75,Right,0,87,80,13.75,0.239583,Sixteenth,D#6
76,Right,0,88,80,14.0,0.989583,Quarter,E6
77,Right,0,80,80,16.0,0.239583,Sixteenth,G#5
78,Right,0,76,80,16.25,0.239583,Sixteenth,E5
79,Right,0,81,80,16.5,0.239583,Sixteenth,A5
80,Right,0,78,80,16.75,0.239583,Sixteenth,F#5
81,Right,0,83,80,17.0,0.239583,Sixteenth,B5
82,Right,0,80,80,17.25,0.239583,Sixteenth,G#5
83,Right,0,85,80,17.5,0.239583,Sixteenth,C#6
84,Right,0,81,80,17.75,0.239583,Sixteenth,A5
85,Right,0,83,80,18.0,0.989583,Quarter,B5
86,Left,1,68,80,18.0,0.239583,Sixteenth,G#4
87,Left,1,64,80,18.25,0.239583,Sixteenth,E4
88,Left,1,69,80,18.5,0.239583,Sixteenth,A4
89,Left,1,66,80,18.75,0.239583,Sixteenth,F#4
90,Left,1,71,80,19.0,0.239583,Sixteenth,B4
91,Left,1,68,80,19.25,0.239583,Sixteenth,G#4
92,Left,1,73,80,19.5,0.239583,Sixteenth,C#5
93,Left,1,69,80,19.75,0.239583,Sixteenth,A4
94,Left,1,71,80,20.0,0.989583,Quarter,B4
95,Right,0,56,80,20.0,0.239583,Sixteenth,G#3
96,Right,0,52,80,20.25,0.239583,Sixteenth,E3
97,Right,0,57,80,20.5,0.239583,Sixteenth,A3
98,Right,0,54,80,20.75,0.239583,Sixteenth,F#3
99,Right,0,59,80,21.0,0.239583,Sixteenth,B3
100,Right,0,56,80,21.25,0.239583,Sixteenth,G#3
101,Right,0,61,80,21.5,0.239583,Sixteenth,C#4
102,Right,0,57,80,21.75,0.239583,Sixteenth,A3
104,Right,0,59,80,22.0,0.989583,Quarter,B3
103,Left,1,44,80,22.0,0.239583,Sixteenth,G#2
105,Left,1,40,80,22.25,0.239583,Sixteenth,E2
106,Left,1,45,80,22.5,0.239583,Sixteenth,A2
107,Left,1,42,80,22.75,0.239583,Sixteenth,F#2
108,Left,1,47,80,23.0,0.239583,Sixteenth,B2
109,Left,1,44,80,23.25,0.239583,Sixteenth,G#2
110,Left,1,49,80,23.5,0.239583,Sixteenth,C#3
111,Left,1,45,80,23.75,0.239583,Sixteenth,A2
112,Left,1,47,80,24.0,3.989583,Whole,B2
113,Right,0,59,80,24.5,3.489583,DottedHalf,B3
114,Right,0,68,80,25.0,0.489583,Eighth,G#4
115,Right,0,64,80,25.5,0.489583,Eighth,E4
116,Left,1,56,80,25.5,0.489583,Eighth,G#3
117,Right,0,69,80,26.0,0.489583,Eighth,A4
118,Left,1,51,80,26.0,0.489583,Eighth,D#3
120,Right,0,66,80,26.5,0.489583,Eighth,F#4
119,Left,1,54,80,26.5,0.489583,Eighth,F#3
121,Right,0,63,80,27.0,0.489583,Eighth,D#4
122,Left,1,57,80,27.0,0.989583,Quarter,A3
123,Right,0,71,80,27.5,0.489583,Eighth,B4
124,Left,1,49,80,28.0,0.15625,TripletSixteenth,C#3
125,Left,1,52,80,28.166667,0.15625,TripletSixteenth,E3
126,Left,1,56,80,28.333333,0.15625,TripletSixteenth,G#3
128,Right,0,73,80,28.5,0.239583,Sixteenth,C#5
127,Left,1,59,80,28.5,3.489583,DottedHalf,B3
129,Right,0,71,80,28.625,0.239583,Sixteenth,B4
130,Right,0,70,80,28.75,0.239583,Sixteenth,A#4
131,Right,0,71,80,28.875,3.114583,DottedHalf,B4
132,Right,0,80,80,29.0,0.489583,Eighth,G#5
134,Right,0,76,80,29.5,0.489583,Eighth,E5
133,Left,1,68,80,29.5,0.489583,Eighth,G#4
136,Left,1,63,80,30.0,0.489583,Eighth,D#4
135,Right,0,81,80,30.0,0.489583,Eighth,A5
137,Right,0,78,80,30.5,0.489583,Eighth,F#5
138,Left,1,66,80,30.5,0.489583,Eighth,F#4
139,Right,0,75,80,31.0,0.489583,Eighth,D#5
140,Left,1,69,80,31.0,0.989583,Quarter,A4
141,Right,0,83,80,31.5,1.989583,Half,B5
142,Right,0,71,80,32.0,1.989583,Half,B4
143,Left,1,68,80,32.0,0.989583,Quarter,G#4_E4
145,Left,1,56,80,33.0,0.989583,Quarter,G#3
146,Right,0,81,80,33.5,0.239583,Sixteenth,A5
147,Right,0,80,80,33.75,0.239583,Sixteenth,G#5
148,Right,0,78,80,34.0,0.489583,Eighth,F#5
149,Left,1,57,80,34.0,0.989583,Quarter,A3
150,Right,0,76,80,34.5,0.489583,Eighth,E5
151,Right,0,75,80,35.0,0.489583,Eighth,D#5
152,Left,1,58,80,35.0,0.989583,Quarter,A#3
153,Right,0,73,80,35.5,0.489583,Eighth,C#5
155,Right,0,71,80,36.0,3.989583,Whole,G#4_E4_B4
154,Left,1,59,80,36.0,1.989583,Half,B3
158,Right,0,67,80,37.0,0.989583,Quarter,G4
159,Right,0,66,80,38.0,1.989583,Half,F#4
160,Left,1,58,80,38.0,1.989583,Quarter,B2_A#3
162,Left,1,57,80,39.0,0.989583,Quarter,A3
163,Right,0,63,80,39.0,0.989583,Quarter,D#4
164,Left,1,56,80,40.0,0.989583,Quarter,G#3_E3
166,Right,0,64,80,40.0,1.989583,Half,E4_B4_B3
169,Left,1,44,80,41.0,0.989583,Quarter,G#2
170,Right,0,69,80,41.5,0.239583,Sixteenth,A4
171,Right,0,68,80,41.75,0.239583,Sixteenth,G#4
172,Left,1,45,80,42.0,0.989583,Quarter,A2
173,Right,0,66,80,42.0,0.489583,Eighth,F#4
174,Right,0,64,80,42.5,0.489583,Eighth,E4
175,Right,0,63,80,43.0,0.489583,Eighth,D#4
176,Left,1,46,80,43.0,0.989583,Quarter,A#2
177,Right,0,61,80,43.5,0.489583,Eighth,C#4
179,Right,0,52,80,44.0,3.989583,DottedHalf,G#3_E3_B3
178,Left,1,47,80,44.0,1.989583,Half,B2
182,Right,0,55,80,45.0,0.989583,Quarter,G3
184,Right,0,54,80,46.0,1.989583,Half,F#3
183,Left,1,46,80,46.0,1.989583,Quarter,B1_A#2
186,Right,0,51,80,47.0,0.989583,Quarter,D#3
187,Left,1,45,80,47.0,0.989583,Quarter,A2
188,Right,0,59,80,48.0,1.989583,Half,B3
189,Left,1,44,80,48.5,0.489583,Eighth,G#2_E2
191,Left,1,44,80,49.0,0.489583,Eighth,G#2_E2
193,Left,1,44,80,49.5,0.489583,Eighth,G#2_E2
195,Right,0,52,80,50.0,1.989583,Half,E4_E3
197,Left,1,44,80,50.5,0.489583,Eighth,G#2_E2
199,Left,1,44,80,51.0,0.489583,Eighth,G#2_E2
201,Left,1,40,80,51.5,0.489583,Eighth,G#2_E2
203,Right,0,61,80,52.0,1.989583,Half,C#4
204,Left,1,40,80,52.5,0.489583,Eighth,E2_A2
206,Left,1,45,80,53.0,0.489583,Eighth,E2_A2
208,Left,1,45,80,53.5,0.489583,Eighth,E2_A2
210,Right,0,54,80,54.0,1.989583,Half,F#4_F#3
212,Left,1,40,80,54.5,0.489583,Eighth,E2_A#2
214,Left,1,40,80,55.0,0.489583,Eighth,E2_A#2
216,Left,1,46,80,55.5,0.489583,Eighth,E2_A#2
218,Right,0,56,80,56.0,1.989583,Half,G#4_G#3
220,Left,1,47,81,56.5,0.489583,Eighth,E2_B2
222,Left,1,47,82,57.0,0.489583,Eighth,E2_B2
224,Left,1,40,83,57.5,0.489583,Eighth,E2_B2
226,Right,0,57,85,58.0,1.989583,Half,A4_A3
228,Left,1,48,86,58.5,0.489583,Eighth,E2_C3
230,Left,1,48,87,59.0,0.489583,Eighth,E2_C3
232,Left,1,48,89,59.5,0.489583,Eighth,E2_C3
234,Right,0,58,90,60.0,1.989583,Half,A#4_A#3
236,Left,1,40,91,60.5,0.489583,Eighth,E2_C#3
238,Left,1,40,93,61.0,0.489583,Eighth,E2_C#3
240,Left,1,40,94,61.5,0.489583,Eighth,E2_C#3
244,Right,0,59,95,62.0,1.989583,Half,B4_B3
242,Left,1,51,95,62.0,1.989583,Half,F2_D#3
246,Left,1,41,97,62.5,0.489583,Eighth,F2
247,Left,1,41,98,63.0,0.489583,Eighth,F2
248,Left,1,41,99,63.5,0.489583,Eighth,F2
250,Right,0,70,110,64.0,1.989583,Quarter,A#4_A#3
249,Left,1,42,110,64.0,1.989583,Eighth,F#2_C#3
253,Left,1,42,110,64.5,0.489583,Eighth,F#2
255,Left,1,42,110,65.0,0.489583,Eighth,F#2
254,Right,0,66,110,65.0,0.989583,Quarter,F#4
256,Left,1,42,110,65.5,0.489583,Eighth,F#2
257,Right,0,65,110,66.0,1.989583,DottedQuarter,F4_D5
259,Left,1,47,110,66.0,1.989583,Half,G#3_F#2_B2
262,Left,1,42,110,66.5,0.489583,Eighth,F#2
263,Left,1,42,110,67.0,0.489583,Eighth,F#2
264,Right,0,66,110,67.5,0.239583,Sixteenth,F#4
265,Left,1,42,110,67.5,0.489583,Eighth,F#2
266,Right,0,68,110,67.75,0.239583,Sixteenth,G#4
270,Right,0,73,110,68.0,1.989583,Quarter,C#5_C#4
267,Left,1,54,110,68.0,1.989583,Half,F#3_F#2_A#2
272,Left,1,42,110,68.5,0.489583,Eighth,F#2
273,Left,1,42,110,69.0,0.489583,Eighth,F#2
274,Right,0,70,110,69.0,0.989583,Quarter,A#4
275,Left,1,42,110,69.5,0.489583,Eighth,F#2
278,Left,1,50,110,70.0,1.989583,Half,G#3_F#2_D3
276,Right,0,71,110,70.0,1.989583,Half,F4_B4_B3
282,Left,1,42,110,70.5,0.489583,Eighth,F#2
283,Left,1,42,110,71.0,0.489583,Eighth,F#2
284,Left,1,42,110,71.5,0.489583,Eighth,F#2
285,Left,1,49,110,72.0,1.989583,Half,F#2_C#3
286,Right,0,58,110,72.0,1.989583,Half,A#4_A#3
289,Left,1,42,110,72.5,0.489583,Eighth,F#2
291,Right,0,66,110,73.0,0.989583,Quarter,F#4
290,Left,1,42,110,73.0,0.489583,Eighth,F#2
292,Left,1,42,110,73.5,0.489583,Eighth,F#2
294,Left,1,47,110,74.0,1.989583,Half,G#3_F#2_B2
293,Right,0,74,110,74.0,1.989583,Half,F4_D5
298,Left,1,42,110,74.5,0.489583,Eighth,F#2
299,Left,1,42,110,75.0,0.489583,Eighth,F#2
301,Right,0,66,110,75.5,0.239583,Sixteenth,F#4
300,Left,1,42,110,75.5,0.489583,Eighth,F#2
302,Right,0,68,110,75.75,0.239583,Sixteenth,G#4
305,Left,1,42,110,76.0,1.989583,Half,F#3_F#2_A#2
303,Right,0,73,110,76.0,1.989583,Quarter,C#5_C#4
308,Left,1,42,110,76.5,0.489583,Eighth,F#2
309,Right,0,70,110,77.0,0.989583,Quarter,A#4
310,Left,1,42,110,77.0,0.489583,Eighth,F#2
311,Left,1,42,110,77.5,0.489583,Eighth,F#2
312,Left,1,42,110,78.0,1.989583,Half,G#3_F#2_D3_B2
315,Right,0,68,110,78.0,1.989583,Half,G#4_F5_B4
319,Left,1,42,110,78.5,0.489583,Eighth,F#2
320,Left,1,42,110,79.0,0.489583,Eighth,F#2
322,Right,0,73,110,79.5,0.239583,Sixteenth,C#5
321,Left,1,42,110,79.5,0.489583,Eighth,F#2
323,Right,0,74,110,79.75,0.239583,Sixteenth,D5
328,Right,0,78,110,80.0,0.989583,Quarter,F#5_C#5_A#4
324,Left,1,54,110,80.0,0.989583,Quarter,F#3_F#2_C#3_A#2
332,Right,0,58,110,82.0,0.989583,Quarter,F#4_C#4_A#3
331,Left,1,54,110,82.0,0.989583,Quarter,F#3_F#2
338,Right,0,54,110,84.0,0.989583,Quarter,F#3_C#3_A#2
336,Left,1,30,110,84.0,0.989583,Quarter,F#2_F#1
341,Right,0,78,80,86.0,0.489583,Eighth,F#5
342,Right,0,76,80,86.5,0.489583,Eighth,E5
343,Right,0,75,80,87.0,0.489583,Eighth,D#5
344,Right,0,73,80,87.5,0.489583,Eighth,C#5
345,Right,0,71,80,88.0,1.989583,Half,B4
346,Right,0,72,80,90.0,0.989583,Quarter,C5
347,Right,0,73,80,91.0,0.989583,Quarter,C#5
348,Right,0,74,80,92.0,0.989583,Quarter,D5
349,Right,0,75,80,93.0,0.989583,Quarter,D#5
350,Right,0,76,80,94.0,0.989583,Quarter,E5
351,Right,0,78,80,95.0,0.989583,Quarter,F#5
352,Right,0,79,80,96.0,0.989583,Quarter,G5
353,Right,0,80,80,97.0,1.989583,Half,G#5
354,Left,1,60,80,98.0,1.989583,Half,D#4_C4
356,Right,0,68,80,98.0,3.989583,Whole,G#4
357,Right,0,78,80,99.0,1.989583,Half,F#5
358,Left,1,64,80,100.0,1.989583,Half,E4_C#4
360,Right,0,76,80,101.0,0.989583,Quarter,E5
361,Right,0,75,80,102.0,0.239583,Sixteenth,D#5
362,Right,0,76,80,102.125,0.239583,Sixteenth,E5
363,Right,0,78,80,102.25,0.239583,Sixteenth,F#5
364,Right,0,76,80,102.375,0.114583,ThirtySecond,E5
365,Right,0,75,80,102.5,0.489583,Eighth,D#5
366,Right,0,73,80,103.0,0.489583,Eighth,C#5
367,Right,0,71,80,103.5,0.489583,Eighth,B4
368,Right,0,70,80,104.0,1.989583,Half,A#4
369,Right,0,71,80,106.0,0.989583,Quarter,B4
370,Right,0,72,80,107.0,0.989583,Quarter,C5
371,Right,0,73,80,108.0,0.989583,Quarter,C#5
372,Right,0,74,80,109.0,0.989583,Quarter,D5
373,Right,0,75,80,110.0,0.989583,Quarter,D#5
374,Right,0,76,80,111.0,0.989583,Quarter,E5
375,Right,0,77,80,112.0,0.989583,Quarter,F5
376,Right,0,78,80,113.0,1.989583,Half,F#5
379,Right,0,66,80,114.0,3.989583,Whole,F#4
377,Left,1,58,80,114.0,1.989583,Half,C#4_A#3
380,Right,0,76,80,115.0,1.989583,Half,E5
381,Left,1,59,80,116.0,1.989583,Half,D#4_B3
383,Right,0,75,80,117.0,0.989583,Quarter,D#5
384,Left,1,66,80,118.0,0.489583,Eighth,F#4
385,Left,1,64,80,118.5,0.489583,Eighth,E4
386,Left,1,63,80,119.0,0.489583,Eighth,D#4
387,Left,1,61,80,119.5,0.489583,Eighth,C#4
388,Left,1,59,80,120.0,1.989583,Half,B3
390,Left,1,60,80,122.0,0.989583,Quarter,C4
389,Right,0,54,80,122.0,0.489583,Eighth,F#3
391,Right,0,52,80,122.5,0.489583,Eighth,E3
393,Right,0,51,80,123.0,0.489583,Eighth,D#3
392,Left,1,61,80,123.0,0.989583,Quarter,C#4
394,Right,0,49,80,123.5,0.489583,Eighth,C#3
395,Right,0,48,80,124.0,0.989583,Quarter,C3
396,Left,1,62,80,124.0,0.989583,Quarter,D4
397,Left,1,63,80,125.0,0.989583,Quarter,D#4
398,Left,1,64,80,126.0,0.989583,Quarter,E4
399,Right,0,78,80,126.0,0.489583,Eighth,F#5
400,Right,0,76,80,126.5,0.489583,Eighth,E5
401,Left,1,66,80,127.0,0.989583,Quarter,F#4
402,Right,0,75,80,127.0,0.489583,Eighth,D#5
403,Right,0,73,80,127.5,0.489583,Eighth,C#5
405,Right,0,72,80,128.0,1.989583,Half,C5
404,Left,1,67,80,128.0,3.989583,Quarter,G4_G#3
407,Left,1,68,80,129.0,1.989583,Half,G#4
408,Right,0,81,80,130.0,2.989583,DottedHalf,D#5_C5_A5
411,Left,1,66,80,131.0,1.989583,Half,F#4
412,Left,1,61,80,132.0,1.989583,Half,C#4
413,Left,1,64,80,133.0,0.989583,Quarter,E4
414,Right,0,80,80,133.0,0.989583,Quarter,G#5_E5_C#5
417,Left,1,64,80,134.0,0.489583,Eighth,E4
418,Left,1,63,80,134.5,0.489583,Eighth,D#4
419,Left,1,61,80,135.0,0.489583,Eighth,C#4
420,Left,1,59,80,135.5,0.489583,Eighth,B3
421,Left,1,58,80,136.0,1.989583,Half,A#3
423,Right,0,52,80,138.0,0.489583,Eighth,E3
422,Left,1,59,80,138.0,0.989583,Quarter,B3
424,Right,0,51,80,138.5,0.489583,Eighth,D#3
426,Left,1,60,80,139.0,0.989583,Quarter,C4
425,Right,0,49,80,139.0,0.489583,Eighth,C#3
427,Right,0,47,80,139.5,0.489583,Eighth,B2
428,Right,0,46,80,140.0,0.989583,Quarter,A#2
429,Left,1,61,80,140.0,0.989583,Quarter,C#4
430,Left,1,63,80,141.0,0.989583,Quarter,D#4
431,Left,1,64,80,142.0,0.989583,Quarter,E4
432,Right,0,76,80,142.0,0.489583,Eighth,E5
433,Right,0,75,80,142.5,0.489583,Eighth,D#5
434,Right,0,73,80,143.0,0.489583,Eighth,C#5
435,Left,1,65,80,143.0,1.989583,Half,F4
436,Right,0,71,80,143.5,0.489583,Eighth,B4
438,Left,1,54,80,144.0,3.989583,Whole,F#3
437,Right,0,70,80,144.0,1.989583,Half,A#4
439,Left,1,66,80,145.0,1.989583,Half,F#4
440,Right,0,79,80,146.0,2.989583,DottedHalf,G5_C#5_A#4
443,Left,1,64,80,147.0,1.989583,Half,E4
444,Left,1,59,80,148.0,1.989583,Half,B3
448,Left,1,63,80,149.0,0.989583,Quarter,D#4
445,Right,0,75,80,149.0,0.989583,Quarter,F#5_D#5_B4
449,Left,1,51,80,150.0,0.989583,Eighth,D#3_B3
451,Left,1,54,80,150.5,0.489583,Eighth,F#3
452,Left,1,51,80,151.0,0.989583,Eighth,D#3_B3
454,Right,0,71,80,151.0,0.989583,Quarter,F#5_B4
456,Left,1,54,80,151.5,0.489583,Eighth,F#3
457,Left,1,61,80,152.0,1.989583,Half,E3_C#4
459,Right,0,70,80,152.0,1.989583,Half,F#5_A#4
462,Right,0,80,80,152.5,0.15625,TripletSixteenth,G#5
461,Left,1,54,80,152.5,0.489583,Eighth,F#3
463,Right,0,78,80,152.666667,0.15625,TripletSixteenth,F#5
464,Right,0,77,80,152.833333,0.15625,TripletSixteenth,F5
466,Right,0,78,80,153.0,0.489583,Eighth,F#5
465,Left,1,52,80,153.0,0.489583,Eighth,E3
467,Left,1,54,80,153.5,0.489583,Eighth,F#3
468,Right,0,82,80,153.5,0.489583,Eighth,A#5
469,Right,0,71,80,154.0,0.989583,Quarter,B5_B4
471,Left,1,51,80,154.0,0.989583,Eighth,D#3_B3
473,Left,1,54,80,154.5,0.489583,Eighth,F#3
476,Left,1,51,80,155.0,0.989583,Eighth,D#3_B3
474,Right,0,71,80,155.0,0.989583,Quarter,F#5_B4
478,Left,1,54,80,155.5,0.489583,Eighth,F#3
479,Left,1,52,80,156.0,1.989583,Eighth,E3_C#4
480,Right,0,70,80,156.0,1.989583,Half,F#5_A#4
483,Left,1,54,80,156.5,0.489583,Eighth,F#3
484,Right,0,80,80,156.5,0.15625,TripletSixteenth,G#5
485,Right,0,78,80,156.666667,0.15625,TripletSixteenth,F#5
486,Right,0,77,80,156.833333,0.15625,TripletSixteenth,F5
488,Left,1,52,80,157.0,0.489583,Eighth,E3
487,Right,0,78,80,157.0,0.489583,Eighth,F#5
489,Left,1,54,80,157.5,0.489583,Eighth,F#3
490,Right,0,82,80,157.5,0.489583,Eighth,A#5
491,Left,1,51,80,158.0,0.989583,Eighth,D#3_B3
492,Right,0,71,80,158.0,0.989583,Quarter,B5_B4
495,Left,1,54,80,158.5,0.489583,Eighth,F#3
497,Left,1,57,80,159.0,0.989583,Quarter,D#3_A3
496,Right,0,72,80,159.0,0.989583,Quarter,C6_C5
500,Left,1,54,80,159.5,0.489583,Eighth,F#3
501,Left,1,56,80,160.0,0.989583,Eighth,G#3_E3
503,Right,0,73,80,160.0,0.989583,Quarter,C#6_C#5
505,Left,1,61,80,160.5,0.489583,Eighth,C#4
508,Right,0,87,80,161.0,0.989583,Quarter,D#6_D#5
506,Left,1,52,80,161.0,0.989583,Quarter,G#3_E3
510,Left,1,61,80,161.5,0.489583,Eighth,C#4
511,Right,0,88,80,162.0,0.989583,Quarter,E6_E5
513,Left,1,54,80,162.0,0.989583,Quarter,F#3_A#3
515,Left,1,61,80,162.5,0.489583,Eighth,C#4
518,Left,1,54,80,163.0,0.989583,Quarter,F#3_A#3
516,Right,0,78,80,163.0,0.989583,Quarter,F#6_F#5
520,Left,1,61,80,163.5,0.489583,Eighth,C#4
522,Right,0,88,80,164.0,1.989583,Half,E6_E5
521,Left,1,47,80,164.0,2.989583,DottedHalf,B3_B2
525,Left,1,54,80,164.5,0.489583,Eighth,F#3
526,Left,1,59,80,165.0,0.489583,Eighth,B3
527,Left,1,54,80,165.5,0.489583,Eighth,F#3
528,Right,0,75,80,166.0,0.989583,Quarter,D#6_D#5
529,Left,1,59,80,166.0,0.489583,Eighth,B3
531,Left,1,54,80,166.5,0.489583,Eighth,F#3
532,Left,1,51,80,167.0,0.989583,Eighth,D#3_B3
534,Right,0,71,80,167.0,0.989583,Quarter,F#5_B4
536,Left,1,54,80,167.5,0.489583,Eighth,F#3
537,Right,0,70,80,168.0,1.989583,Half,F#5_A#4
539,Left,1,52,80,168.0,1.989583,Eighth,E3_C#4
541,Right,0,80,80,168.5,0.15625,TripletSixteenth,G#5
542,Left,1,54,80,168.5,0.489583,Eighth,F#3
543,Right,0,78,80,168.666667,0.15625,TripletSixteenth,F#5
544,Right,0,77,80,168.833333,0.15625,TripletSixteenth,F5
546,Left,1,52,80,169.0,0.489583,Eighth,E3
545,Right,0,78,80,169.0,0.489583,Eighth,F#5
547,Right,0,82,80,169.5,0.489583,Eighth,A#5
548,Left,1,54,80,169.5,0.489583,Eighth,F#3
551,Right,0,83,80,170.0,0.989583,Quarter,B5_B4
549,Left,1,59,80,170.0,0.989583,Quarter,D#3_B3
553,Left,1,54,80,170.5,0.489583,Eighth,F#3
554,Right,0,71,80,171.0,0.989583,Quarter,F#5_B4
556,Left,1,51,80,171.0,0.989583,Eighth,D#3_B3
558,Left,1,54,80,171.5,0.489583,Eighth,F#3
561,Left,1,61,80,172.0,1.989583,Half,E3_C#4
559,Right,0,78,80,172.0,1.989583,Eighth,F#5_A#4
563,Right,0,80,80,172.5,0.15625,TripletSixteenth,G#5
564,Left,1,54,80,172.5,0.489583,Eighth,F#3
565,Right,0,78,80,172.666667,0.15625,TripletSixteenth,F#5
566,Right,0,77,80,172.833333,0.15625,TripletSixteenth,F5
568,Left,1,52,80,173.0,0.489583,Eighth,E3
567,Right,0,78,80,173.0,0.489583,Eighth,F#5
570,Left,1,54,80,173.5,0.489583,Eighth,F#3
569,Right,0,82,80,173.5,0.489583,Eighth,A#5
573,Left,1,51,80,174.0,0.989583,Eighth,D#3_B3
571,Right,0,71,80,174.0,0.989583,Quarter,B5_B4
575,Left,1,54,80,174.5,0.489583,Eighth,F#3
576,Left,1,51,80,175.0,0.989583,Eighth,D#3_A3
577,Right,0,84,80,175.0,0.989583,Quarter,C6_C5
580,Left,1,54,80,175.5,0.489583,Eighth,F#3
581,Left,1,52,80,176.0,0.989583,Quarter,G#3_E3
582,Right,0,73,80,176.0,0.989583,Quarter,C#6_C#5
585,Left,1,61,80,176.5,0.489583,Eighth,C#4
586,Left,1,56,80,177.0,0.989583,Eighth,G#3_E3
587,Right,0,75,80,177.0,0.989583,Quarter,D#6_D#5
590,Left,1,61,80,177.5,0.489583,Eighth,C#4
592,Right,0,88,80,178.0,0.989583,Quarter,E6_E5
591,Left,1,54,80,178.0,0.989583,Quarter,F#3_C#4
595,Left,1,64,80,178.5,0.489583,Eighth,E4
596,Right,0,82,80,179.0,0.989583,Quarter,A#5_A#4
597,Left,1,54,80,179.0,0.989583,Quarter,F#3_C#4
600,Left,1,64,80,179.5,0.489583,Eighth,E4
601,Left,1,47,80,180.0,0.989583,Quarter,B3_B2
603,Right,0,71,80,180.0,0.989583,Quarter,B5_B4
605,Right,0,66,110,181.0,1.989583,Quarter,F#4_D#4_B3
608,Right,0,67,110,182.0,2.989583,DottedHalf,G4_E4
610,Right,0,58,110,183.0,0.989583,Quarter,A#3
611,Left,1,42,110,183.5,0.15625,TripletSixteenth,F#2
612,Left,1,44,110,183.666667,0.15625,TripletSixteenth,G#2
613,Left,1,46,110,183.833333,0.15625,TripletSixteenth,A#2
614,Left,1,47,110,184.0,0.989583,Quarter,B2
615,Right,0,59,110,185.0,1.989583,Quarter,F#4_D#4_B3
618,Right,0,64,110,186.0,2.989583,DottedHalf,G#4_E4
620,Right,0,58,110,187.0,0.989583,Quarter,A#3
621,Left,1,42,110,187.5,0.15625,TripletSixteenth,F#2
622,Left,1,44,110,187.666667,0.15625,TripletSixteenth,G#2
623,Left,1,46,110,187.833333,0.15625,TripletSixteenth,A#2
624,Left,1,47,110,188.0,0.989583,Quarter,B2
625,Right,0,59,110,189.0,1.989583,Quarter,F#4_D#4_B3
628,Right,0,67,110,190.0,2.989583,DottedHalf,G4_E4
630,Right,0,58,110,191.0,0.989583,Quarter,A#3
631,Left,1,42,110,191.5,0.15625,TripletSixteenth,F#2
632,Left,1,44,110,191.666667,0.15625,TripletSixteenth,G#2
633,Left,1,46,110,191.833333,0.15625,TripletSixteenth,A#2
634,Left,1,47,110,192.0,0.989583,Quarter,B2
635,Right,0,59,110,193.0,1.989583,Quarter,F#4_D#4_B3
638,Right,0,68,110,194.0,2.989583,DottedHalf,G#4_E4
640,Right,0,58,110,195.0,0.989583,Quarter,A#3
641,Left,1,42,110,195.5,0.15625,TripletSixteenth,F#2
642,Left,1,44,110,195.666667,0.15625,TripletSixteenth,G#2
643,Left,1,46,110,195.833333,0.15625,TripletSixteenth,A#2
645,Right,0,59,110,196.0,2.989583,DottedHalf,B3
644,Left,1,47,110,196.0,0.989583,Quarter,B2
648,Right,0,66,80,197.0,0.989583,Quarter,F#4_D#4
646,Left,1,54,80,197.0,0.989583,Quarter,F#3_B2
650,Left,1,49,80,198.0,0.989583,Quarter,F#3_C#3
652,Right,0,64,80,198.0,0.989583,Quarter,E4_A#4
654,Right,0,66,80,199.0,0.989583,Quarter,F#4_B4
655,Left,1,51,80,199.0,0.989583,Quarter,F#3_D#3
658,Right,0,68,80,200.0,1.989583,Half,G#4_E4_D#5
660,Left,1,52,80,200.0,1.989583,Half,G#3_E3_C#4
664,Right,0,73,80,201.5,0.489583,Eighth,C#5
666,Right,0,66,80,202.0,0.989583,Quarter,F#4_B4
665,Left,1,54,80,202.0,0.989583,Quarter,F#3_C#4
669,Left,1,54,80,203.0,0.989583,Quarter,F#3_C#4
671,Right,0,66,80,203.0,0.989583,Quarter,F#4_A#4
673,Right,0,66,80,204.0,0.989583,Quarter,F#4
675,Left,1,51,82,205.0,0.989583,Quarter,D#3_B3
674,Right,0,71,82,205.0,0.989583,Quarter,F#4_B4
680,Left,1,58,85,206.0,0.989583,Quarter,C#3_A#3
678,Right,0,66,85,206.0,0.989583,Quarter,F#4_C#5
682,Left,1,47,88,207.0,0.989583,Quarter,B3_B2
684,Right,0,66,88,207.0,0.989583,Quarter,F#4_D#5
686,Right,0,78,91,208.0,1.989583,DottedQuarter,G#4_F#5
687,Left,1,52,91,208.0,1.989583,Half,E3_D#4
691,Right,0,76,95,209.5,0.489583,Eighth,E5
690,Left,1,61,95,209.5,0.489583,Eighth,C#4
693,Right,0,75,97,210.0,0.989583,Quarter,F#4_D#5
692,Left,1,59,97,210.0,0.989583,Quarter,F#3_B3
696,Right,0,73,99,211.0,0.989583,Quarter,F#4_C#5
698,Left,1,54,99,211.0,0.989583,Quarter,F#3_A#3
700,Right,0,78,120,212.0,0.989583,Quarter,F#5_F#4
702,Right,0,71,120,213.0,0.989583,Quarter,F#5_F#4_B4
703,Left,1,51,120,213.0,0.989583,Quarter,F#3_D#3_B3
708,Right,0,73,120,214.0,0.989583,Quarter,F#5_F#4_C#5_A#4
712,Left,1,58,120,214.0,0.989583,Quarter,E3_C#3_A#3
715,Right,0,75,120,215.0,0.989583,Quarter,F#5_F#4_D#5_B4
719,Left,1,59,120,215.0,0.989583,Quarter,D#3_B3_B2
722,Right,0,79,120,216.0,0.989583,Quarter,G5_G4
724,Left,1,49,120,216.0,0.989583,Quarter,G#2_E3_E2_C#3
728,Right,0,80,100,217.0,0.989583,Quarter,G#5_G#4
730,Left,1,42,80,220.0,0.989583,Quarter,F#2
731,Right,0,58,80,221.0,0.989583,Quarter,E3_A#3
733,Left,1,35,70,224.0,1.989583,Half,B1
734,Right,0,59,70,224.5,0.489583,Eighth,D#3_B3_B2
737,Right,0,47,70,225.0,0.489583,Eighth,D#3_B3_B2
740,Right,0,47,70,225.5,0.489583,Eighth,D#3_B3_B2
743,Left,1,40,70,226.0,1.989583,Half,E2
744,Right,0,56,70,226.5,0.489583,Eighth,G#3_B3_B2
747,Right,0,59,70,227.0,0.489583,Eighth,G#3_B3_B2
750,Right,0,56,70,227.5,0.489583,Eighth,G#3_B3_B2
753,Left,1,39,70,228.0,1.989583,Half,D#2
754,Right,0,47,70,228.5,0.489583,Eighth,F#3_B3_B2
757,Right,0,59,70,229.0,0.489583,Eighth,F#3_B3_B2
760,Right,0,59,70,229.5,0.489583,Eighth,F#3_B3_B2
763,Left,1,44,70,230.0,1.989583,Half,G#2
764,Right,0,59,70,230.5,0.489583,Eighth,E3_B3_B2
767,Right,0,52,70,231.0,0.489583,Eighth,E3_B3_B2
770,Right,0,59,70,231.5,0.489583,Eighth,E3_B3_B2
773,Left,1,42,70,232.0,1.989583,Half,F#2
774,Right,0,59,70,232.5,0.489583,Eighth,D#3_B3_B2
777,Right,0,59,70,233.0,0.489583,Eighth,D#3_B3_B2
780,Right,0,47,70,233.5,0.489583,Eighth,D#3_B3_B2
783,Left,1,40,70,234.0,1.989583,Half,E2
784,Right,0,59,70,234.5,0.489583,Eighth,C#3_B3_B2_A#3
788,Right,0,59,70,235.0,0.489583,Eighth,C#3_B3_B2_A#3
792,Right,0,47,70,235.5,0.489583,Eighth,C#3_B3_B2_A#3
796,Left,1,39,70,236.0,1.989583,Half,D#2
797,Right,0,59,70,236.5,0.489583,Eighth,B3_B2
799,Right,0,59,70,237.0,0.489583,Eighth,B3_B2
801,Right,0,59,70,237.5,0.489583,Eighth,B3_B2
803,Left,1,35,70,238.0,1.989583,Half,B1
804,Right,0,47,70,238.5,0.489583,Eighth,D#3_B3_B2_A3
808,Right,0,57,70,239.0,0.489583,Eighth,D#3_B3_B2_A3
812,Right,0,59,70,239.5,0.489583,Eighth,D#3_B3_B2_A3
817,Left,1,40,80,240.0,0.489583,Eighth,E2
816,Right,0,71,80,240.0,1.989583,Half,B4
818,Left,1,52,80,240.5,0.489583,Eighth,G#3_E3_B3
821,Left,1,56,80,241.0,0.489583,Eighth,G#3_E3_B3
824,Left,1,59,80,241.5,0.489583,Eighth,G#3_E3_B3
827,Right,0,76,80,242.0,1.989583,Half,E5_E4
829,Left,1,52,80,242.5,0.489583,Eighth,G#3_E3_B3
832,Left,1,56,80,243.0,0.489583,Eighth,G#3_E3_B3
835,Left,1,59,80,243.5,0.489583,Eighth,G#3_E3_B3
838,Right,0,73,80,244.0,1.989583,Half,C#5
839,Left,1,52,80,244.5,0.489583,Eighth,E3_C#4_A3
842,Left,1,52,80,245.0,0.489583,Eighth,E3_C#4_A3
845,Left,1,52,80,245.5,0.489583,Eighth,E3_C#4_A3
848,Right,0,66,80,246.0,1.989583,Half,F#5_F#4
850,Left,1,61,80,246.5,0.489583,Eighth,E3_C#4_A3
853,Left,1,52,80,247.0,0.489583,Eighth,E3_C#4_A3
856,Left,1,61,80,247.5,0.489583,Eighth,E3_C#4_A3
859,Right,0,75,80,248.0,1.989583,Half,D#5
860,Left,1,63,80,248.5,0.489583,Eighth,F#3_E3_D#4_A3
864,Left,1,54,80,249.0,0.489583,Eighth,F#3_E3_D#4_A3
868,Left,1,63,80,249.5,0.489583,Eighth,F#3_E3_D#4_A3
872,Right,0,71,80,250.0,1.989583,Half,B5_B4
874,Left,1,54,80,250.5,0.489583,Eighth,F#3_E3_D#4_A3
878,Left,1,63,80,251.0,0.489583,Eighth,F#3_E3_D#4_A3
882,Left,1,63,80,251.5,0.489583,Eighth,F#3_E3_D#4_A3
886,Left,1,64,80,252.0,2.989583,DottedHalf,G#3_E4_E3_B3
890,Right,0,83,80,252.0,1.489583,DottedQuarter,B5
891,Right,0,85,80,253.5,0.239583,Sixteenth,C#6
892,Right,0,87,80,253.75,0.239583,Sixteenth,D#6
893,Right,0,88,80,254.0,0.989583,Quarter,E6
894,Right,0,80,80,256.0,0.239583,Sixteenth,G#5
895,Right,0,76,80,256.25,0.239583,Sixteenth,E5
896,Right,0,81,80,256.5,0.239583,Sixteenth,A5
897,Right,0,78,80,256.75,0.239583,Sixteenth,F#5
898,Right,0,83,80,257.0,0.239583,Sixteenth,B5
899,Right,0,80,80,257.25,0.239583,Sixteenth,G#5
900,Right,0,85,80,257.5,0.239583,Sixteenth,C#6
901,Right,0,81,80,257.75,0.239583,Sixteenth,A5
903,Right,0,83,80,258.0,0.989583,Quarter,B5
902,Left,1,68,80,258.0,0.239583,Sixteenth,G#4
904,Left,1,64,80,258.25,0.239583,Sixteenth,E4
905,Left,1,69,80,258.5,0.239583,Sixteenth,A4
906,Left,1,66,80,258.75,0.239583,Sixteenth,F#4
907,Left,1,71,80,259.0,0.239583,Sixteenth,B4
908,Left,1,68,80,259.25,0.239583,Sixteenth,G#4
909,Left,1,73,80,259.5,0.239583,Sixteenth,C#5
910,Left,1,69,80,259.75,0.239583,Sixteenth,A4
911,Right,0,56,80,260.0,0.239583,Sixteenth,G#3
912,Left,1,71,80,260.0,0.989583,Quarter,B4
913,Right,0,52,80,260.25,0.239583,Sixteenth,E3
914,Right,0,57,80,260.5,0.239583,Sixteenth,A3
915,Right,0,54,80,260.75,0.239583,Sixteenth,F#3
916,Right,0,59,80,261.0,0.239583,Sixteenth,B3
917,Right,0,56,80,261.25,0.239583,Sixteenth,G#3
918,Right,0,61,80,261.5,0.239583,Sixteenth,C#4
919,Right,0,57,80,261.75,0.239583,Sixteenth,A3
920,Right,0,59,80,262.0,0.989583,Quarter,B3
921,Left,1,44,80,262.0,0.239583,Sixteenth,G#2
922,Left,1,40,80,262.25,0.239583,Sixteenth,E2
923,Left,1,45,80,262.5,0.239583,Sixteenth,A2
924,Left,1,42,80,262.75,0.239583,Sixteenth,F#2
925,Left,1,47,80,263.0,0.239583,Sixteenth,B2
926,Left,1,44,80,263.25,0.239583,Sixteenth,G#2
927,Left,1,49,80,263.5,0.239583,Sixteenth,C#3
928,Left,1,45,80,263.75,0.239583,Sixteenth,A2
929,Left,1,47,80,264.0,3.989583,Whole,B2
930,Right,0,59,80,264.5,3.489583,DottedHalf,B3
931,Right,0,68,80,265.0,0.489583,Eighth,G#4
932,Left,1,56,80,265.5,0.489583,Eighth,G#3
933,Right,0,64,80,265.5,0.489583,Eighth,E4
934,Right,0,69,80,266.0,0.489583,Eighth,A4
935,Left,1,51,80,266.0,0.489583,Eighth,D#3
937,Right,0,66,80,266.5,0.489583,Eighth,F#4
936,Left,1,54,80,266.5,0.489583,Eighth,F#3
938,Right,0,63,80,267.0,0.489583,Eighth,D#4
939,Left,1,57,80,267.0,0.989583,Quarter,A3
940,Right,0,71,80,267.5,0.489583,Eighth,B4
941,Left,1,49,80,268.0,0.15625,TripletSixteenth,C#3
942,Left,1,52,80,268.166667,0.15625,TripletSixteenth,E3
943,Left,1,56,80,268.333333,0.15625,TripletSixteenth,G#3
944,Right,0,73,80,268.5,0.239583,Sixteenth,C#5
945,Left,1,59,80,268.5,3.489583,DottedHalf,B3
946,Right,0,71,80,268.625,0.239583,Sixteenth,B4
947,Right,0,70,80,268.75,0.239583,Sixteenth,A#4
948,Right,0,71,80,268.875,3.114583,DottedHalf,B4
949,Right,0,80,80,269.0,0.489583,Eighth,G#5
951,Left,1,68,80,269.5,0.489583,Eighth,G#4
950,Right,0,76,80,269.5,0.489583,Eighth,E5
953,Left,1,63,80,270.0,0.489583,Eighth,D#4
952,Right,0,81,80,270.0,0.489583,Eighth,A5
955,Left,1,66,80,270.5,0.489583,Eighth,F#4
954,Right,0,78,80,270.5,0.489583,Eighth,F#5
957,Left,1,69,80,271.0,0.989583,Quarter,A4
956,Right,0,75,80,271.0,0.489583,Eighth,D#5
958,Right,0,83,80,271.5,1.989583,Half,B5
960,Right,0,71,80,272.0,1.989583,Half,B4
959,Left,1,64,80,272.0,0.989583,Quarter,G#4_E4
962,Left,1,56,80,273.0,0.989583,Quarter,G#3
963,Right,0,81,80,273.5,0.239583,Sixteenth,A5
964,Right,0,80,80,273.75,0.239583,Sixteenth,G#5
966,Right,0,78,80,274.0,0.489583,Eighth,F#5
965,Left,1,57,80,274.0,0.989583,Quarter,A3
967,Right,0,76,80,274.5,0.489583,Eighth,E5
969,Left,1,58,80,275.0,0.989583,Quarter,A#3
968,Right,0,75,80,275.0,0.489583,Eighth,D#5
970,Right,0,73,80,275.5,0.489583,Eighth,C#5
973,Left,1,59,80,276.0,1.989583,Half,B3
971,Right,0,68,80,276.0,3.989583,Quarter,G#4_E4_B4
975,Right,0,67,80,277.0,0.989583,Quarter,G4
976,Left,1,58,80,278.0,1.989583,Quarter,B2_A#3
978,Right,0,66,80,278.0,1.989583,Half,F#4
979,Right,0,63,80,279.0,0.989583,Quarter,D#4
980,Left,1,57,80,279.0,0.989583,Quarter,A3
984,Left,1,52,80,280.0,0.989583,Quarter,G#3_E3
981,Right,0,64,80,280.0,1.989583,Half,E4_B4_B3
986,Left,1,44,80,281.0,0.989583,Quarter,G#2
987,Right,0,69,80,281.5,0.239583,Sixteenth,A4
988,Right,0,68,80,281.75,0.239583,Sixteenth,G#4
989,Right,0,66,80,282.0,0.489583,Eighth,F#4
990,Left,1,45,80,282.0,0.989583,Quarter,A2
991,Right,0,64,80,282.5,0.489583,Eighth,E4
993,Left,1,46,80,283.0,0.989583,Quarter,A#2
992,Right,0,63,80,283.0,0.489583,Eighth,D#4
994,Right,0,61,80,283.5,0.489583,Eighth,C#4
995,Right,0,56,80,284.0,3.989583,Quarter,G#3_E3_B3
997,Left,1,47,80,284.0,1.989583,Half,B2
999,Right,0,55,80,285.0,0.989583,Quarter,G3
1000,Left,1,46,80,286.0,1.989583,Quarter,B1_A#2
1002,Right,0,54,80,286.0,1.989583,Half,F#3
1003,Left,1,45,80,287.0,0.989583,Quarter,A2
1004,Right,0,51,80,287.0,0.989583,Quarter,D#3
1005,Right,0,59,80,288.0,1.989583,Half,B3
1006,Left,1,40,80,288.5,0.489583,Eighth,G#2_E2
1008,Left,1,40,80,289.0,0.489583,Eighth,G#2_E2
1010,Left,1,40,80,289.5,0.489583,Eighth,G#2_E2
1012,Right,0,64,80,290.0,1.989583,Half,E4_E3
1014,Left,1,44,80,290.5,0.489583,Eighth,G#2_E2
1016,Left,1,40,80,291.0,0.489583,Eighth,G#2_E2
1018,Left,1,40,80,291.5,0.489583,Eighth,G#2_E2
1020,Right,0,61,80,292.0,1.989583,Half,C#4
1021,Left,1,40,80,292.5,0.489583,Eighth,E2_A2
1023,Left,1,40,80,293.0,0.489583,Eighth,E2_A2
1025,Left,1,40,80,293.5,0.489583,Eighth,E2_A2
1027,Right,0,66,80,294.0,1.989583,Half,F#4_F#3
1029,Left,1,46,80,294.5,0.489583,Eighth,E2_A#2
1031,Left,1,46,80,295.0,0.489583,Eighth,E2_A#2
1033,Left,1,40,80,295.5,0.489583,Eighth,E2_A#2
1035,Right,0,56,80,296.0,1.989583,Half,G#4_G#3
1037,Left,1,47,81,296.5,0.489583,Eighth,E2_B2
1039,Left,1,40,82,297.0,0.489583,Eighth,E2_B2
1041,Left,1,47,83,297.5,0.489583,Eighth,E2_B2
1043,Right,0,57,85,298.0,1.989583,Half,A4_A3
1045,Left,1,48,86,298.5,0.489583,Eighth,E2_C3
1047,Left,1,40,87,299.0,0.489583,Eighth,E2_C3
1049,Left,1,40,89,299.5,0.489583,Eighth,E2_C3
1051,Right,0,58,90,300.0,1.989583,Half,A#4_A#3
1053,Left,1,40,91,300.5,0.489583,Eighth,E2_C#3
1055,Left,1,40,93,301.0,0.489583,Eighth,E2_C#3
1057,Left,1,49,94,301.5,0.489583,Eighth,E2_C#3
1061,Right,0,71,95,302.0,1.989583,Half,B4_B3
1059,Left,1,41,95,302.0,1.989583,Eighth,F2_D#3
1063,Left,1,41,97,302.5,0.489583,Eighth,F2
1064,Left,1,41,98,303.0,0.489583,Eighth,F2
1065,Left,1,41,99,303.5,0.489583,Eighth,F2
1066,Left,1,42,110,304.0,1.989583,Eighth,F#2_C#3
1068,Right,0,70,110,304.0,1.989583,Quarter,A#4_A#3
1070,Left,1,42,110,304.5,0.489583,Eighth,F#2
1071,Left,1,42,110,305.0,0.489583,Eighth,F#2
1072,Right,0,66,110,305.0,0.989583,Quarter,F#4
1073,Left,1,42,110,305.5,0.489583,Eighth,F#2
1077,Right,0,65,90,306.0,1.989583,DottedQuarter,F4_D5
1074,Left,1,42,90,306.0,1.989583,Half,G#3_F#2_B2
1079,Left,1,42,90,306.5,0.489583,Eighth,F#2
1080,Left,1,42,90,307.0,0.489583,Eighth,F#2
1081,Right,0,66,90,307.5,0.239583,Sixteenth,F#4
1082,Left,1,42,90,307.5,0.489583,Eighth,F#2
1083,Right,0,68,90,307.75,0.239583,Sixteenth,G#4
1085,Left,1,46,90,308.0,1.989583,Half,F#3_F#2_A#2
1084,Right,0,61,90,308.0,1.989583,Half,C#5_C#4
1089,Left,1,42,90,308.5,0.489583,Eighth,F#2
1090,Left,1,42,90,309.0,0.489583,Eighth,F#2
1091,Right,0,70,90,309.0,0.989583,Quarter,A#4
1092,Left,1,42,90,309.5,0.489583,Eighth,F#2
1093,Left,1,42,110,310.0,1.989583,Half,G#3_F#2_D3
1096,Right,0,71,110,310.0,1.989583,Half,F4_B4_B3
1099,Left,1,42,110,310.5,0.489583,Eighth,F#2
1100,Left,1,42,110,311.0,0.489583,Eighth,F#2
1101,Left,1,42,110,311.5,0.489583,Eighth,F#2
1102,Left,1,42,110,312.0,1.989583,Eighth,F#2_C#3
1104,Right,0,70,110,312.0,1.989583,Quarter,A#4_A#3
1106,Left,1,42,110,312.5,0.489583,Eighth,F#2
1107,Left,1,42,110,313.0,0.489583,Eighth,F#2
1108,Right,0,66,110,313.0,0.989583,Quarter,F#4
1109,Left,1,42,110,313.5,0.489583,Eighth,F#2
1110,Left,1,47,90,314.0,1.989583,Half,G#3_F#2_B2
1111,Right,0,74,90,314.0,1.989583,Half,F4_D5
1115,Left,1,42,90,314.5,0.489583,Eighth,F#2
1116,Left,1,42,90,315.0,0.489583,Eighth,F#2
1117,Left,1,42,90,315.5,0.489583,Eighth,F#2
1118,Right,0,66,90,315.5,0.239583,Sixteenth,F#4
1119,Right,0,68,90,315.75,0.239583,Sixteenth,G#4
1120,Left,1,46,90,316.0,1.989583,Half,F#3_F#2_A#2
1123,Right,0,73,90,316.0,1.989583,Quarter,C#5_C#4
1125,Left,1,42,90,316.5,0.489583,Eighth,F#2
1126,Right,0,70,90,317.0,0.989583,Quarter,A#4
1127,Left,1,42,90,317.0,0.489583,Eighth,F#2
1128,Left,1,42,90,317.5,0.489583,Eighth,F#2
1129,Right,0,77,110,318.0,1.989583,Half,G#4_F5_B4
1131,Left,1,42,110,318.0,1.989583,Half,G#3_F#2_D3_B2
1136,Left,1,42,110,318.5,0.489583,Eighth,F#2
1137,Left,1,42,110,319.0,0.489583,Eighth,F#2
1138,Left,1,42,110,319.5,0.489583,Eighth,F#2
1139,Right,0,73,110,319.5,0.239583,Sixteenth,C#5
1140,Right,0,74,110,319.75,0.239583,Sixteenth,D5
1141,Left,1,42,110,320.0,0.989583,Quarter,F#3_F#2_C#3_A#2
1145,Right,0,78,110,320.0,0.989583,Quarter,F#5_C#5_A#4
1150,Left,1,54,110,322.0,0.989583,Quarter,F#3_F#2
1148,Right,0,66,110,322.0,0.989583,Quarter,F#4_C#4_A#3
1156,Left,1,30,110,324.0,0.989583,Quarter,F#2_F#1
1153,Right,0,46,110,324.0,0.989583,Quarter,F#3_C#3_A#2
1158,Right,0,78,80,326.0,0.489583,Eighth,F#5
1159,Right,0,76,80,326.5,0.489583,Eighth,E5
1160,Right,0,75,80,327.0,0.489583,Eighth,D#5
1161,Right,0,73,80,327.5,0.489583,Eighth,C#5
1162,Right,0,71,80,328.0,1.989583,Half,B4
1163,Right,0,72,80,330.0,0.989583,Quarter,C5
1164,Right,0,73,80,331.0,0.989583,Quarter,C#5
1165,Right,0,74,80,332.0,0.989583,Quarter,D5
1166,Right,0,75,80,333.0,0.989583,Quarter,D#5
1167,Right,0,76,80,334.0,0.989583,Quarter,E5
1168,Right,0,78,80,335.0,0.989583,Quarter,F#5
1169,Right,0,79,80,336.0,0.989583,Quarter,G5
1170,Right,0,80,80,337.0,1.989583,Half,G#5
1173,Right,0,68,80,338.0,3.989583,Whole,G#4
1171,Left,1,63,80,338.0,1.989583,Half,D#4_C4
1174,Right,0,78,80,339.0,1.989583,Half,F#5
1175,Left,1,61,80,340.0,1.989583,Half,E4_C#4
1177,Right,0,76,80,341.0,0.989583,Quarter,E5
1178,Right,0,75,80,342.0,0.239583,Sixteenth,D#5
1179,Right,0,76,80,342.125,0.239583,Sixteenth,E5
1180,Right,0,78,80,342.25,0.239583,Sixteenth,F#5
1181,Right,0,76,80,342.375,0.114583,ThirtySecond,E5
1182,Right,0,75,80,342.5,0.489583,Eighth,D#5
1183,Right,0,73,80,343.0,0.489583,Eighth,C#5
1184,Right,0,71,80,343.5,0.489583,Eighth,B4
1185,Right,0,70,80,344.0,1.989583,Half,A#4
1186,Right,0,71,80,346.0,0.989583,Quarter,B4
1187,Right,0,72,80,347.0,0.989583,Quarter,C5
1188,Right,0,73,80,348.0,0.989583,Quarter,C#5
1189,Right,0,74,80,349.0,0.989583,Quarter,D5
1190,Right,0,75,80,350.0,0.989583,Quarter,D#5
1191,Right,0,76,80,351.0,0.989583,Quarter,E5
1192,Right,0,77,80,352.0,0.989583,Quarter,F5
1193,Right,0,78,80,353.0,1.989583,Half,F#5
1196,Right,0,66,80,354.0,3.989583,Whole,F#4
1194,Left,1,58,80,354.0,1.989583,Half,C#4_A#3
1197,Right,0,76,80,355.0,1.989583,Half,E5
1198,Left,1,59,80,356.0,1.989583,Half,D#4_B3
1200,Right,0,75,80,357.0,0.989583,Quarter,D#5
1201,Left,1,66,80,358.0,0.489583,Eighth,F#4
1202,Left,1,64,80,358.5,0.489583,Eighth,E4
1203,Left,1,63,80,359.0,0.489583,Eighth,D#4
1204,Left,1,61,80,359.5,0.489583,Eighth,C#4
1205,Left,1,59,80,360.0,1.989583,Half,B3
1207,Right,0,54,80,362.0,0.489583,Eighth,F#3
1206,Left,1,60,80,362.0,0.989583,Quarter,C4
1208,Right,0,52,80,362.5,0.489583,Eighth,E3
1209,Left,1,61,80,363.0,0.989583,Quarter,C#4
1210,Right,0,51,80,363.0,0.489583,Eighth,D#3
1211,Right,0,49,80,363.5,0.489583,Eighth,C#3
1212,Left,1,62,80,364.0,0.989583,Quarter,D4
1213,Right,0,48,80,364.0,0.989583,Quarter,C3
1214,Left,1,63,80,365.0,0.989583,Quarter,D#4
1216,Left,1,64,80,366.0,0.989583,Quarter,E4
1215,Right,0,78,80,366.0,0.489583,Eighth,F#5
1217,Right,0,76,80,366.5,0.489583,Eighth,E5
1218,Right,0,75,80,367.0,0.489583,Eighth,D#5
1219,Left,1,66,80,367.0,0.989583,Quarter,F#4
1220,Right,0,73,80,367.5,0.489583,Eighth,C#5
1222,Left,1,67,80,368.0,3.989583,Quarter,G4_G#3
1221,Right,0,72,80,368.0,1.989583,Half,C5
1224,Left,1,68,80,369.0,1.989583,Half,G#4
1225,Right,0,72,80,370.0,2.989583,DottedHalf,D#5_C5_A5
1228,Left,1,66,80,371.0,1.989583,Half,F#4
1229,Left,1,61,80,372.0,1.989583,Half,C#4
1230,Left,1,64,80,373.0,0.989583,Quarter,E4
1231,Right,0,80,80,373.0,0.989583,Quarter,G#5_E5_C#5
1234,Left,1,64,80,374.0,0.489583,Eighth,E4
1235,Left,1,63,80,374.5,0.489583,Eighth,D#4
1236,Left,1,61,80,375.0,0.489583,Eighth,C#4
1237,Left,1,59,80,375.5,0.489583,Eighth,B3
1238,Left,1,58,80,376.0,1.989583,Half,A#3
1239,Right,0,52,80,378.0,0.489583,Eighth,E3
1240,Left,1,59,80,378.0,0.989583,Quarter,B3
1241,Right,0,51,80,378.5,0.489583,Eighth,D#3
1242,Right,0,49,80,379.0,0.489583,Eighth,C#3
1243,Left,1,60,80,379.0,0.989583,Quarter,C4
1244,Right,0,47,80,379.5,0.489583,Eighth,B2
1246,Right,0,46,80,380.0,0.989583,Quarter,A#2
1245,Left,1,61,80,380.0,0.989583,Quarter,C#4
1247,Left,1,63,80,381.0,0.989583,Quarter,D#4
1249,Left,1,64,80,382.0,0.989583,Quarter,E4
1248,Right,0,76,80,382.0,0.489583,Eighth,E5
1250,Right,0,75,80,382.5,0.489583,Eighth,D#5
1252,Left,1,65,80,383.0,1.989583,Half,F4
1251,Right,0,73,80,383.0,0.489583,Eighth,C#5
1253,Right,0,71,80,383.5,0.489583,Eighth,B4
1254,Right,0,70,80,384.0,1.989583,Half,A#4
1255,Left,1,54,80,384.0,3.989583,Whole,F#3
1256,Left,1,66,80,385.0,1.989583,Half,F#4
1257,Right,0,70,80,386.0,2.989583,DottedHalf,G5_C#5_A#4
1260,Left,1,64,80,387.0,1.989583,Half,E4
1261,Left,1,59,80,388.0,1.989583,Half,B3
1262,Left,1,63,80,389.0,0.989583,Quarter,D#4
1263,Right,0,78,80,389.0,0.989583,Quarter,F#5_D#5_B4
1266,Left,1,51,80,390.0,0.989583,Eighth,D#3_B3
1268,Left,1,54,80,390.5,0.489583,Eighth,F#3
1270,Left,1,51,80,391.0,0.989583,Eighth,D#3_B3
1269,Right,0,78,80,391.0,0.989583,Quarter,F#5_B4
1273,Left,1,54,80,391.5,0.489583,Eighth,F#3
1276,Right,0,78,80,392.0,1.989583,Eighth,F#5_A#4
1274,Left,1,61,80,392.0,1.989583,Half,E3_C#4
1278,Right,0,80,80,392.5,0.15625,TripletSixteenth,G#5
1279,Left,1,54,80,392.5,0.489583,Eighth,F#3
1280,Right,0,78,80,392.666667,0.15625,TripletSixteenth,F#5
1281,Right,0,77,80,392.833333,0.15625,TripletSixteenth,F5
1282,Left,1,52,80,393.0,0.489583,Eighth,E3
1283,Right,0,78,80,393.0,0.489583,Eighth,F#5
1285,Left,1,54,80,393.5,0.489583,Eighth,F#3
1284,Right,0,82,80,393.5,0.489583,Eighth,A#5
1286,Right,0,83,80,394.0,0.989583,Quarter,B5_B4
1287,Left,1,51,80,394.0,0.989583,Eighth,D#3_B3
1290,Left,1,54,80,394.5,0.489583,Eighth,F#3
1293,Left,1,51,80,395.0,0.989583,Eighth,D#3_B3
1291,Right,0,78,80,395.0,0.989583,Quarter,F#5_B4
1295,Left,1,54,80,395.5,0.489583,Eighth,F#3
1298,Right,0,70,80,396.0,1.989583,Half,F#5_A#4
1296,Left,1,52,80,396.0,1.989583,Eighth,E3_C#4
1301,Left,1,54,80,396.5,0.489583,Eighth,F#3
1300,Right,0,80,80,396.5,0.15625,TripletSixteenth,G#5
1302,Right,0,78,80,396.666667,0.15625,TripletSixteenth,F#5
1303,Right,0,77,80,396.833333,0.15625,TripletSixteenth,F5
1305,Right,0,78,80,397.0,0.489583,Eighth,F#5
1304,Left,1,52,80,397.0,0.489583,Eighth,E3
1306,Left,1,54,80,397.5,0.489583,Eighth,F#3
1307,Right,0,82,80,397.5,0.489583,Eighth,A#5
1308,Left,1,59,80,398.0,0.989583,Quarter,D#3_B3
1310,Right,0,83,80,398.0,0.989583,Quarter,B5_B4
1312,Left,1,54,80,398.5,0.489583,Eighth,F#3
1313,Left,1,57,80,399.0,0.989583,Quarter,D#3_A3
1315,Right,0,72,80,399.0,0.989583,Quarter,C6_C5
1317,Left,1,54,80,399.5,0.489583,Eighth,F#3
1318,Right,0,85,80,400.0,0.989583,Quarter,C#6_C#5
1320,Left,1,52,80,400.0,0.989583,Quarter,G#3_E3
1322,Left,1,61,80,400.5,0.489583,Eighth,C#4
1325,Left,1,52,80,401.0,0.989583,Quarter,G#3_E3
1323,Right,0,75,80,401.0,0.989583,Quarter,D#6_D#5
1327,Left,1,61,80,401.5,0.489583,Eighth,C#4
1330,Right,0,76,80,402.0,0.989583,Quarter,E6_E5
1328,Left,1,54,80,402.0,0.989583,Quarter,F#3_A#3
1332,Left,1,61,80,402.5,0.489583,Eighth,C#4
1335,Right,0,78,80,403.0,0.989583,Quarter,F#6_F#5
1333,Left,1,54,80,403.0,0.989583,Quarter,F#3_A#3
1337,Left,1,61,80,403.5,0.489583,Eighth,C#4
1338,Right,0,76,80,404.0,1.989583,Half,E6_E5
1340,Left,1,59,80,404.0,2.989583,Eighth,B3_B2
1342,Left,1,54,80,404.5,0.489583,Eighth,F#3
1343,Left,1,59,80,405.0,0.489583,Eighth,B3
1344,Left,1,54,80,405.5,0.489583,Eighth,F#3
1345,Left,1,59,80,406.0,0.489583,Eighth,B3
1346,Right,0,75,80,406.0,0.989583,Quarter,D#6_D#5
1348,Left,1,54,80,406.5,0.489583,Eighth,F#3
1349,Left,1,51,80,407.0,0.989583,Eighth,D#3_B3
1351,Right,0,78,80,407.0,0.989583,Quarter,F#5_B4
1353,Left,1,54,80,407.5,0.489583,Eighth,F#3
1356,Right,0,78,80,408.0,1.989583,Eighth,F#5_A#4
1354,Left,1,52,80,408.0,1.989583,Eighth,E3_C#4
1359,Left,1,54,80,408.5,0.489583,Eighth,F#3
1358,Right,0,80,80,408.5,0.15625,TripletSixteenth,G#5
1360,Right,0,78,80,408.666667,0.15625,TripletSixteenth,F#5
1361,Right,0,77,80,408.833333,0.15625,TripletSixteenth,F5
1362,Left,1,52,80,409.0,0.489583,Eighth,E3
1363,Right,0,78,80,409.0,0.489583,Eighth,F#5
1364,Left,1,54,80,409.5,0.489583,Eighth,F#3
1365,Right,0,82,80,409.5,0.489583,Eighth,A#5
1366,Left,1,51,80,410.0,0.989583,Eighth,D#3_B3
1368,Right,0,71,80,410.0,0.989583,Quarter,B5_B4
1370,Left,1,54,80,410.5,0.489583,Eighth,F#3
1373,Right,0,71,80,411.0,0.989583,Quarter,F#5_B4
1371,Left,1,51,80,411.0,0.989583,Eighth,D#3_B3
1375,Left,1,54,80,411.5,0.489583,Eighth,F#3
1378,Left,1,61,80,412.0,1.989583,Half,E3_C#4
1376,Right,0,70,80,412.0,1.989583,Half,F#5_A#4
1381,Left,1,54,80,412.5,0.489583,Eighth,F#3
1380,Right,0,80,80,412.5,0.15625,TripletSixteenth,G#5
1382,Right,0,78,80,412.666667,0.15625,TripletSixteenth,F#5
1383,Right,0,77,80,412.833333,0.15625,TripletSixteenth,F5
1385,Right,0,78,80,413.0,0.489583,Eighth,F#5
1384,Left,1,52,80,413.0,0.489583,Eighth,E3
1386,Left,1,54,80,413.5,0.489583,Eighth,F#3
1387,Right,0,82,80,413.5,0.489583,Eighth,A#5
1389,Right,0,83,80,414.0,0.989583,Quarter,B5_B4
1388,Left,1,59,80,414.0,0.989583,Quarter,D#3_B3
1392,Left,1,54,80,414.5,0.489583,Eighth,F#3
1393,Right,0,84,80,415.0,0.989583,Quarter,C6_C5
1394,Left,1,57,80,415.0,0.989583,Quarter,D#3_A3
1397,Left,1,54,80,415.5,0.489583,Eighth,F#3
1398,Left,1,56,80,416.0,0.989583,Eighth,G#3_E3
1399,Right,0,73,80,416.0,0.989583,Quarter,C#6_C#5
1402,Left,1,61,80,416.5,0.489583,Eighth,C#4
1405,Left,1,56,80,417.0,0.989583,Eighth,G#3_E3
1403,Right,0,87,80,417.0,0.989583,Quarter,D#6_D#5
1407,Left,1,61,80,417.5,0.489583,Eighth,C#4
1408,Right,0,88,80,418.0,0.989583,Quarter,E6_E5
1410,Left,1,54,80,418.0,0.989583,Quarter,F#3_C#4
1412,Left,1,64,80,418.5,0.489583,Eighth,E4
1415,Left,1,61,80,419.0,0.989583,Eighth,F#3_C#4
1413,Right,0,82,80,419.0,0.989583,Quarter,A#5_A#4
1417,Left,1,64,80,419.5,0.489583,Eighth,E4
1419,Right,0,71,80,420.0,0.989583,Quarter,B5_B4
1418,Left,1,59,80,420.0,0.989583,Quarter,B3_B2
1422,Right,0,63,110,421.0,1.989583,Quarter,F#4_D#4_B3
1425,Right,0,67,110,422.0,2.989583,DottedHalf,G4_E4
1427,Right,0,58,110,423.0,0.989583,Quarter,A#3
1428,Left,1,42,110,423.5,0.15625,TripletSixteenth,F#2
1429,Left,1,44,110,423.666667,0.15625,TripletSixteenth,G#2
1430,Left,1,46,110,423.833333,0.15625,TripletSixteenth,A#2
1431,Left,1,47,110,424.0,0.989583,Quarter,B2
1432,Right,0,59,110,425.0,1.989583,Quarter,F#4_D#4_B3
1435,Right,0,68,110,426.0,2.989583,DottedHalf,G#4_E4
1437,Right,0,58,110,427.0,0.989583,Quarter,A#3
1438,Left,1,42,110,427.5,0.15625,TripletSixteenth,F#2
1439,Left,1,44,110,427.666667,0.15625,TripletSixteenth,G#2
1440,Left,1,46,110,427.833333,0.15625,TripletSixteenth,A#2
1441,Left,1,47,110,428.0,0.989583,Quarter,B2
1442,Right,0,66,110,429.0,1.989583,Quarter,F#4_D#4_B3
1445,Right,0,64,110,430.0,2.989583,DottedHalf,G4_E4
1447,Right,0,58,110,431.0,0.989583,Quarter,A#3
1448,Left,1,42,110,431.5,0.15625,TripletSixteenth,F#2
1449,Left,1,44,110,431.666667,0.15625,TripletSixteenth,G#2
1450,Left,1,46,110,431.833333,0.15625,TripletSixteenth,A#2
1451,Left,1,47,110,432.0,0.989583,Quarter,B2
1452,Right,0,66,110,433.0,1.989583,Quarter,F#4_D#4_B3
1455,Right,0,68,110,434.0,2.989583,DottedHalf,G#4_E4
1457,Right,0,58,110,435.0,0.989583,Quarter,A#3
1458,Left,1,42,110,435.5,0.15625,TripletSixteenth,F#2
1459,Left,1,44,110,435.666667,0.15625,TripletSixteenth,G#2
1460,Left,1,46,110,435.833333,0.15625,TripletSixteenth,A#2
1462,Right,0,59,110,436.0,2.989583,DottedHalf,B3
1461,Left,1,47,110,436.0,0.989583,Quarter,B2
1465,Right,0,63,80,437.0,0.989583,Quarter,F#4_D#4
1463,Left,1,47,80,437.0,0.989583,Quarter,F#3_B2
1468,Right,0,70,80,438.0,0.989583,Quarter,E4_A#4
1467,Left,1,49,80,438.0,0.989583,Quarter,F#3_C#3
1473,Right,0,66,80,439.0,0.989583,Quarter,F#4_B4
1471,Left,1,54,80,439.0,0.989583,Quarter,F#3_D#3
1475,Right,0,64,80,440.0,1.989583,Half,G#4_E4_D#5
1476,Left,1,56,80,440.0,1.989583,Half,G#3_E3_C#4
1481,Right,0,73,80,441.5,0.489583,Eighth,C#5
1484,Left,1,54,80,442.0,0.989583,Quarter,F#3_C#4
1482,Right,0,66,80,442.0,0.989583,Quarter,F#4_B4
1486,Left,1,61,80,443.0,0.989583,Quarter,F#3_C#4
1488,Right,0,66,80,443.0,0.989583,Quarter,F#4_A#4
1490,Right,0,66,80,444.0,0.989583,Quarter,F#4
1491,Left,1,59,86,445.0,0.989583,Quarter,D#3_B3
1493,Right,0,71,86,445.0,0.989583,Quarter,F#4_B4
1495,Right,0,73,93,446.0,0.989583,Quarter,F#4_C#5
1497,Left,1,58,93,446.0,0.989583,Quarter,C#3_A#3
1499,Right,0,66,99,447.0,0.989583,Quarter,F#4_D#5
1501,Left,1,47,99,447.0,0.989583,Quarter,B3_B2
1505,Left,1,63,110,448.0,1.989583,DottedQuarter,E3_D#4
1503,Right,0,68,110,448.0,1.989583,Half,G#4_F#5
1508,Left,1,61,110,449.5,0.489583,Eighth,C#4
1507,Right,0,76,110,449.5,0.489583,Eighth,E5
1511,Left,1,54,110,450.0,0.989583,Quarter,F#3_B3
1509,Right,0,66,110,450.0,0.989583,Quarter,F#4_D#5
1515,Left,1,54,110,451.0,0.989583,Quarter,F#3_A#3
1513,Right,0,66,110,451.0,0.989583,Quarter,F#4_C#5
1517,Right,0,78,120,452.0,0.989583,Quarter,F#5_F#4
1521,Left,1,51,120,453.0,0.989583,Quarter,F#3_D#3_B3
1519,Right,0,71,120,453.0,0.989583,Quarter,F#5_F#4_B4
1528,Left,1,52,120,454.0,0.989583,Quarter,E3_C#3_A#3
1525,Right,0,73,120,454.0,0.989583,Quarter,F#5_F#4_C#5_A#4
1532,Right,0,66,120,455.0,0.989583,Quarter,F#5_F#4_D#5_B4
1535,Left,1,51,120,455.0,0.989583,Quarter,D#3_B3_B2
1540,Left,1,49,120,456.0,0.989583,Quarter,G#2_E3_E2_C#3
1539,Right,0,67,120,456.0,0.989583,Quarter,G5_G4
1545,Right,0,68,120,457.0,0.989583,Quarter,G#5_G#4
1547,Left,1,42,80,460.0,0.989583,Quarter,F#2
1548,Right,0,52,80,461.0,0.989583,Quarter,E3_A#3
1550,Left,1,35,70,464.0,1.989583,Half,B1
1551,Right,0,47,70,464.5,0.489583,Eighth,D#3_B3_B2
1554,Right,0,51,70,465.0,0.489583,Eighth,D#3_B3_B2
1557,Right,0,51,70,465.5,0.489583,Eighth,D#3_B3_B2
1560,Left,1,40,70,466.0,1.989583,Half,E2
1561,Right,0,56,70,466.5,0.489583,Eighth,G#3_B3_B2
1564,Right,0,56,70,467.0,0.489583,Eighth,G#3_B3_B2
1567,Right,0,56,70,467.5,0.489583,Eighth,G#3_B3_B2
1570,Left,1,39,70,468.0,1.989583,Half,D#2
1571,Right,0,47,70,468.5,0.489583,Eighth,F#3_B3_B2
1574,Right,0,47,70,469.0,0.489583,Eighth,F#3_B3_B2
1577,Right,0,47,70,469.5,0.489583,Eighth,F#3_B3_B2
1580,Left,1,44,70,470.0,1.989583,Half,G#2
1581,Right,0,59,70,470.5,0.489583,Eighth,E3_B3_B2
1584,Right,0,59,70,471.0,0.489583,Eighth,E3_B3_B2
1587,Right,0,59,70,471.5,0.489583,Eighth,E3_B3_B2
1590,Left,1,42,70,472.0,1.989583,Half,F#2
1591,Right,0,59,70,472.5,0.489583,Eighth,D#3_B3_B2
1594,Right,0,59,70,473.0,0.489583,Eighth,D#3_B3_B2
1597,Right,0,47,70,473.5,0.489583,Eighth,D#3_B3_B2
1600,Left,1,40,70,474.0,1.989583,Half,E2
1601,Right,0,59,70,474.5,0.489583,Eighth,C#3_B3_B2_A#3
1605,Right,0,59,70,475.0,0.489583,Eighth,C#3_B3_B2_A#3
1609,Right,0,47,70,475.5,0.489583,Eighth,C#3_B3_B2_A#3
1613,Left,1,39,70,476.0,1.989583,Half,D#2
1614,Right,0,47,70,476.5,0.489583,Eighth,B3_B2
1616,Right,0,59,70,477.0,0.489583,Eighth,B3_B2
1618,Right,0,59,70,477.5,0.489583,Eighth,B3_B2
1620,Left,1,35,70,478.0,1.989583,Half,B1
1621,Right,0,51,70,478.5,0.489583,Eighth,D#3_B3_B2_A3
1625,Right,0,57,70,479.0,0.489583,Eighth,D#3_B3_B2_A3
1629,Right,0,51,70,479.5,0.489583,Eighth,D#3_B3_B2_A3
1633,Right,0,71,80,480.0,1.989583,Half,B4
1634,Left,1,40,80,480.0,0.489583,Eighth,E2
1635,Left,1,56,80,480.5,0.489583,Eighth,G#3_E3_B3
1638,Left,1,52,81,481.0,0.489583,Eighth,G#3_E3_B3
1641,Left,1,52,82,481.5,0.489583,Eighth,G#3_E3_B3
1644,Right,0,76,83,482.0,1.989583,Half,E5_E4
1646,Left,1,59,84,482.5,0.489583,Eighth,G#3_E3_B3
1649,Left,1,59,85,483.0,0.489583,Eighth,G#3_E3_B3
1652,Left,1,59,86,483.5,0.489583,Eighth,G#3_E3_B3
1655,Right,0,72,87,484.0,1.989583,Half,C5
1656,Left,1,52,88,484.5,0.489583,Eighth,E3_C4_A3
1659,Left,1,57,89,485.0,0.489583,Eighth,E3_C4_A3
1662,Left,1,60,90,485.5,0.489583,Eighth,E3_C4_A3
1665,Right,0,77,91,486.0,3.989583,Whole,F5_F4
1667,Left,1,57,92,486.5,0.489583,Eighth,E3_C4_A3
1670,Left,1,52,93,487.0,0.489583,Eighth,E3_C4_A3
1673,Left,1,60,94,487.5,0.489583,Eighth,E3_C4_A3
1676,Right,0,71,95,488.0,1.989583,Half,B4
1677,Left,1,50,96,488.5,0.489583,Eighth,F3_D3_B3_A3
1681,Left,1,50,97,489.0,0.489583,Eighth,F3_D3_B3_A3
1685,Left,1,50,98,489.5,0.489583,Eighth,F3_D3_B3_A3
1689,Right,0,83,99,490.0,1.989583,Half,B5_B4
1691,Left,1,53,100,490.5,0.489583,Eighth,F3_D3_B3_A3
1695,Left,1,50,101,491.0,0.489583,Eighth,F3_D3_B3_A3
1699,Left,1,53,102,491.5,0.489583,Eighth,F3_D3_B3_A3
1703,Right,0,86,103,492.0,1.989583,Half,D6_D5
1705,Left,1,53,104,492.5,0.489583,Eighth,G#3_F3_D3_B3
1709,Left,1,50,105,493.0,0.489583,Eighth,G#3_F3_D3_B3
1713,Left,1,50,106,493.5,0.489583,Eighth,G#3_F3_D3_B3
1717,Right,0,77,107,494.0,1.989583,Half,F6_F5
1719,Left,1,59,108,494.5,0.489583,Eighth,G#3_F3_D3_B3
1723,Left,1,50,109,495.0,0.489583,Eighth,G#3_F3_D3_B3
1727,Left,1,50,109,495.5,0.489583,Eighth,G#3_F3_D3_B3
1731,Right,0,88,113,496.0,2.989583,DottedHalf,E6_E5
1733,Left,1,48,80,496.0,0.239583,Sixteenth,C3
1734,Left,1,52,80,496.25,0.239583,Sixteenth,E3
1735,Left,1,57,80,496.5,0.239583,Sixteenth,A3
1736,Left,1,60,80,496.75,0.239583,Sixteenth,C4
1737,Left,1,48,80,497.0,0.239583,Sixteenth,C3
1738,Left,1,52,80,497.25,0.239583,Sixteenth,E3
1739,Left,1,57,80,497.5,0.239583,Sixteenth,A3
1740,Left,1,60,80,497.75,0.239583,Sixteenth,C4
1741,Left,1,48,80,498.0,0.239583,Sixteenth,C3
1742,Left,1,52,80,498.25,0.239583,Sixteenth,E3
1743,Left,1,57,80,498.5,0.239583,Sixteenth,A3
1744,Left,1,60,80,498.75,0.239583,Sixteenth,C4
1746,Right,0,86,80,499.0,0.489583,Eighth,D6_D5
1745,Left,1,48,80,499.0,0.239583,Sixteenth,C3
1748,Left,1,52,80,499.25,0.239583,Sixteenth,E3
1749,Left,1,57,80,499.5,0.239583,Sixteenth,A3
1750,Right,0,72,80,499.5,0.489583,Eighth,C6_C5
1752,Left,1,60,80,499.75,0.239583,Sixteenth,C4
1753,Right,0,71,80,500.0,0.489583,Eighth,B5_B4
1755,Left,1,48,80,500.0,0.239583,Sixteenth,C3
1756,Left,1,52,80,500.25,0.239583,Sixteenth,E3
1759,Left,1,57,80,500.5,0.239583,Sixteenth,A3
1757,Right,0,69,80,500.5,0.489583,Eighth,A5_A4
1760,Left,1,60,80,500.75,0.239583,Sixteenth,C4
1762,Left,1,48,80,501.0,0.239583,Sixteenth,C3
1761,Right,0,68,80,501.0,0.489583,Eighth,G#5_G#4
1764,Left,1,52,80,501.25,0.239583,Sixteenth,E3
1765,Right,0,81,80,501.5,0.489583,Eighth,A5_A4
1767,Left,1,57,80,501.5,0.239583,Sixteenth,A3
1768,Left,1,60,80,501.75,0.239583,Sixteenth,C4
1769,Right,0,80,80,502.0,0.489583,Eighth,G#5_G#4
1770,Left,1,48,80,502.0,0.239583,Sixteenth,C3
1772,Left,1,52,80,502.25,0.239583,Sixteenth,E3
1773,Right,0,69,80,502.5,0.489583,Eighth,A5_A4
1775,Left,1,57,80,502.5,0.239583,Sixteenth,A3
1776,Left,1,60,80,502.75,0.239583,Sixteenth,C4
1778,Right,0,71,80,503.0,0.489583,Eighth,B5_B4
1777,Left,1,48,80,503.0,0.239583,Sixteenth,C3
1780,Left,1,52,80,503.25,0.239583,Sixteenth,E3
1782,Left,1,57,80,503.5,0.239583,Sixteenth,A3
1781,Right,0,81,80,503.5,0.489583,Eighth,A5_A4
1784,Left,1,60,80,503.75,0.239583,Sixteenth,C4
1786,Right,0,81,80,504.0,2.989583,DottedHalf,A5_A4
1785,Left,1,50,80,504.0,0.239583,Sixteenth,D3
1788,Left,1,53,80,504.25,0.239583,Sixteenth,F3
1789,Left,1,57,80,504.5,0.239583,Sixteenth,A3
1790,Left,1,60,80,504.75,0.239583,Sixteenth,C4
1791,Left,1,50,80,505.0,0.239583,Sixteenth,D3
1792,Left,1,53,80,505.25,0.239583,Sixteenth,F3
1793,Left,1,57,80,505.5,0.239583,Sixteenth,A3
1794,Left,1,60,80,505.75,0.239583,Sixteenth,C4
1795,Left,1,50,80,506.0,0.239583,Sixteenth,D3
1796,Left,1,53,80,506.25,0.239583,Sixteenth,F3
1797,Left,1,57,80,506.5,0.239583,Sixteenth,A3
1798,Left,1,60,80,506.75,0.239583,Sixteenth,C4
1799,Right,0,86,80,507.0,0.489583,Eighth,D6_D5
1801,Left,1,50,80,507.0,0.239583,Sixteenth,D3
1802,Left,1,53,80,507.25,0.239583,Sixteenth,F3
1804,Right,0,84,80,507.5,0.489583,Eighth,C6_C5
1803,Left,1,57,80,507.5,0.239583,Sixteenth,A3
1806,Left,1,60,80,507.75,0.239583,Sixteenth,C4
1807,Left,1,50,80,508.0,0.239583,Sixteenth,D3
1808,Right,0,83,80,508.0,0.489583,Eighth,B5_B4
1810,Left,1,53,80,508.25,0.239583,Sixteenth,F3
1811,Right,0,69,80,508.5,0.489583,Eighth,A5_A4
1812,Left,1,57,80,508.5,0.239583,Sixteenth,A3
1814,Left,1,60,80,508.75,0.239583,Sixteenth,C4
1816,Left,1,50,80,509.0,0.239583,Sixteenth,D3
1815,Right,0,80,80,509.0,0.489583,Eighth,G#5_G#4
1818,Left,1,53,80,509.25,0.239583,Sixteenth,F3
1819,Right,0,69,80,509.5,0.489583,Eighth,A5_A4
1821,Left,1,57,80,509.5,0.239583,Sixteenth,A3
1822,Left,1,60,80,509.75,0.239583,Sixteenth,C4
1823,Right,0,68,80,510.0,0.489583,Eighth,G#5_G#4
1825,Left,1,50,80,510.0,0.239583,Sixteenth,D3
1826,Left,1,53,80,510.25,0.239583,Sixteenth,F3
1829,Left,1,57,80,510.5,0.239583,Sixteenth,A3
1827,Right,0,69,80,510.5,0.489583,Eighth,A5_A4
1830,Left,1,60,80,510.75,0.239583,Sixteenth,C4
1831,Right,0,71,80,511.0,0.489583,Eighth,B5_B4
1833,Left,1,50,80,511.0,0.239583,Sixteenth,D3
1834,Left,1,53,80,511.25,0.239583,Sixteenth,F3
1835,Left,1,57,80,511.5,0.239583,Sixteenth,A3
1836,Right,0,69,80,511.5,0.489583,Eighth,A5_A4
1838,Left,1,60,80,511.75,0.239583,Sixteenth,C4
1841,Left,1,52,80,512.0,0.239583,Sixteenth,E3
1839,Right,0,81,80,512.0,2.489583,Half,A5_A4
1842,Left,1,57,80,512.25,0.239583,Sixteenth,A3
1843,Left,1,60,81,512.5,0.239583,Sixteenth,C4
1844,Left,1,64,81,512.75,0.239583,Sixteenth,E4
1845,Left,1,52,82,513.0,0.239583,Sixteenth,E3
1846,Left,1,57,83,513.25,0.239583,Sixteenth,A3
1847,Left,1,60,83,513.5,0.239583,Sixteenth,C4
1848,Left,1,64,84,513.75,0.239583,Sixteenth,E4
1849,Left,1,52,85,514.0,0.239583,Sixteenth,E3
1850,Left,1,57,85,514.25,0.239583,Sixteenth,A3
1851,Right,0,76,86,514.5,0.489583,Eighth,E6_E5
1853,Left,1,60,86,514.5,0.239583,Sixteenth,C4
1854,Left,1,64,87,514.75,0.239583,Sixteenth,E4
1855,Right,0,74,87,515.0,0.489583,Eighth,D6_D5
1857,Left,1,52,87,515.0,0.239583,Sixteenth,E3
1858,Left,1,57,88,515.25,0.239583,Sixteenth,A3
1860,Left,1,60,89,515.5,0.239583,Sixteenth,C4
1859,Right,0,84,89,515.5,0.489583,Eighth,C6_C5
1862,Left,1,64,89,515.75,0.239583,Sixteenth,E4
1864,Left,1,52,90,516.0,0.239583,Sixteenth,E3
1863,Right,0,83,90,516.0,0.489583,Eighth,B5_B4
1866,Left,1,57,90,516.25,0.239583,Sixteenth,A3
1867,Left,1,60,91,516.5,0.239583,Sixteenth,C4
1868,Right,0,69,91,516.5,0.489583,Eighth,A5_A4
1870,Left,1,64,92,516.75,0.239583,Sixteenth,E4
1872,Right,0,80,92,517.0,0.489583,Eighth,G#5_G#4
1871,Left,1,52,92,517.0,0.239583,Sixteenth,E3
1874,Left,1,57,93,517.25,0.239583,Sixteenth,A3
1875,Left,1,60,94,517.5,0.239583,Sixteenth,C4
1876,Right,0,81,94,517.5,0.489583,Eighth,A5_A4
1878,Left,1,64,94,517.75,0.239583,Sixteenth,E4
1881,Left,1,52,95,518.0,0.239583,Sixteenth,E3
1879,Right,0,68,95,518.0,0.489583,Eighth,G#5_G#4
1882,Left,1,57,96,518.25,0.239583,Sixteenth,A3
1883,Left,1,60,96,518.5,0.239583,Sixteenth,C4
1884,Right,0,69,96,518.5,0.489583,Eighth,A5_A4
1886,Left,1,64,97,518.75,0.239583,Sixteenth,E4
1889,Left,1,52,98,519.0,0.239583,Sixteenth,E3
1887,Right,0,71,98,519.0,0.489583,Eighth,B5_B4
1890,Left,1,57,98,519.25,0.239583,Sixteenth,A3
1891,Right,0,69,99,519.5,0.489583,Eighth,A5_A4
1893,Left,1,60,99,519.5,0.239583,Sixteenth,C4
1894,Left,1,64,99,519.75,0.239583,Sixteenth,E4
1895,Right,0,69,80,520.0,2.989583,DottedHalf,A5_A4
1896,Left,1,53,80,520.0,0.239583,Sixteenth,F3
1898,Left,1,57,80,520.25,0.239583,Sixteenth,A3
1899,Left,1,60,81,520.5,0.239583,Sixteenth,C4
1900,Left,1,62,81,520.75,0.239583,Sixteenth,D4
1901,Left,1,53,82,521.0,0.239583,Sixteenth,F3
1902,Left,1,57,83,521.25,0.239583,Sixteenth,A3
1903,Left,1,60,83,521.5,0.239583,Sixteenth,C4
1904,Left,1,62,84,521.75,0.239583,Sixteenth,D4
1905,Left,1,53,85,522.0,0.239583,Sixteenth,F3
1906,Left,1,57,85,522.25,0.239583,Sixteenth,A3
1907,Left,1,60,86,522.5,0.239583,Sixteenth,C4
1908,Left,1,62,87,522.75,0.239583,Sixteenth,D4
1910,Left,1,53,87,523.0,0.239583,Sixteenth,F3
1909,Right,0,80,87,523.0,0.489583,Eighth,G#5_G#4
1912,Left,1,57,88,523.25,0.239583,Sixteenth,A3
1913,Right,0,69,89,523.5,0.489583,Eighth,A5_A4
1915,Left,1,60,89,523.5,0.239583,Sixteenth,C4
1916,Left,1,62,89,523.75,0.239583,Sixteenth,D4
1918,Right,0,68,90,524.0,0.489583,Eighth,G#5_G#4
1917,Left,1,54,90,524.0,0.239583,Sixteenth,F#3
1920,Left,1,57,90,524.25,0.239583,Sixteenth,A3
1923,Left,1,60,91,524.5,0.239583,Sixteenth,C4
1921,Right,0,69,91,524.5,0.489583,Eighth,A5_A4
1924,Left,1,62,92,524.75,0.239583,Sixteenth,D4
1926,Right,0,71,92,525.0,0.489583,Eighth,B5_B4
1925,Left,1,54,92,525.0,0.239583,Sixteenth,F#3
1928,Left,1,57,93,525.25,0.239583,Sixteenth,A3
1930,Right,0,69,94,525.5,0.489583,Eighth,A5_A4
1929,Left,1,60,94,525.5,0.239583,Sixteenth,C4
1932,Left,1,62,94,525.75,0.239583,Sixteenth,D4
1934,Right,0,68,95,526.0,0.489583,Eighth,G#5_G#4
1933,Left,1,54,95,526.0,0.239583,Sixteenth,F#3
1936,Left,1,57,96,526.25,0.239583,Sixteenth,A3
1937,Right,0,69,96,526.5,0.489583,Eighth,A5_A4
1939,Left,1,60,96,526.5,0.239583,Sixteenth,C4
1940,Left,1,62,97,526.75,0.239583,Sixteenth,D4
1941,Right,0,71,98,527.0,0.489583,Eighth,B5_B4
1942,Left,1,54,98,527.0,0.239583,Sixteenth,F#3
1944,Left,1,57,98,527.25,0.239583,Sixteenth,A3
1946,Right,0,84,99,527.5,0.489583,Eighth,C6_C5
1945,Left,1,60,99,527.5,0.239583,Sixteenth,C4
1948,Left,1,62,99,527.75,0.239583,Sixteenth,D4
1950,Left,1,55,100,528.0,0.239583,Sixteenth,G3
1949,Right,0,84,100,528.0,2.989583,DottedHalf,C6_C5
1952,Left,1,60,100,528.25,0.239583,Sixteenth,C4
1953,Left,1,64,100,528.5,0.239583,Sixteenth,E4
1954,Left,1,67,100,528.75,0.239583,Sixteenth,G4
1955,Left,1,55,99,529.0,0.239583,Sixteenth,G3
1956,Left,1,60,99,529.25,0.239583,Sixteenth,C4
1957,Left,1,64,99,529.5,0.239583,Sixteenth,E4
1958,Left,1,67,98,529.75,0.239583,Sixteenth,G4
1959,Left,1,55,98,530.0,0.239583,Sixteenth,G3
1960,Left,1,60,98,530.25,0.239583,Sixteenth,C4
1961,Left,1,64,97,530.5,0.239583,Sixteenth,E4
1962,Left,1,67,97,530.75,0.239583,Sixteenth,G4
1963,Right,0,86,97,531.0,0.489583,Eighth,D6_D5
1965,Left,1,55,97,531.0,0.239583,Sixteenth,G3
1966,Left,1,60,96,531.25,0.239583,Sixteenth,C4
1967,Left,1,64,96,531.5,0.239583,Sixteenth,E4
1968,Right,0,88,96,531.5,0.489583,Eighth,E6_E5
1970,Left,1,67,96,531.75,0.239583,Sixteenth,G4
1971,Left,1,43,95,532.0,0.239583,Sixteenth,G2
1972,Right,0,76,95,532.0,0.989583,Quarter,E6_E5
1974,Left,1,50,95,532.25,0.239583,Sixteenth,D3
1975,Left,1,53,95,532.5,0.239583,Sixteenth,F3
1976,Left,1,55,94,532.75,0.239583,Sixteenth,G3
1979,Left,1,43,94,533.0,0.239583,Sixteenth,G2
1977,Right,0,89,94,533.0,1.989583,Half,F6_F5
1980,Left,1,50,94,533.25,0.239583,Sixteenth,D3
1981,Left,1,53,93,533.5,0.239583,Sixteenth,F3
1982,Left,1,55,93,533.75,0.239583,Sixteenth,G3
1983,Left,1,43,93,534.0,0.239583,Sixteenth,G2
1984,Left,1,50,92,534.25,0.239583,Sixteenth,D3
1985,Left,1,53,92,534.5,0.239583,Sixteenth,F3
1986,Left,1,55,92,534.75,0.239583,Sixteenth,G3
1988,Right,0,71,91,535.0,0.989583,Quarter,B5_B4
1987,Left,1,43,91,535.0,0.239583,Sixteenth,G2
1990,Left,1,50,91,535.25,0.239583,Sixteenth,D3
1991,Left,1,53,91,535.5,0.239583,Sixteenth,F3
1992,Left,1,55,91,535.75,0.239583,Sixteenth,G3
1995,Left,1,48,80,536.0,0.239583,Sixteenth,C3
1993,Right,0,84,80,536.0,2.989583,DottedHalf,C6_C5
1996,Left,1,52,80,536.25,0.239583,Sixteenth,E3
1997,Left,1,55,80,536.5,0.239583,Sixteenth,G3
1998,Left,1,60,80,536.75,0.239583,Sixteenth,C4
1999,Left,1,48,80,537.0,0.239583,Sixteenth,C3
2000,Left,1,52,80,537.25,0.239583,Sixteenth,E3
2001,Left,1,55,80,537.5,0.239583,Sixteenth,G3
2002,Left,1,60,80,537.75,0.239583,Sixteenth,C4
2003,Left,1,48,80,538.0,0.239583,Sixteenth,C3
2004,Left,1,52,80,538.25,0.239583,Sixteenth,E3
2005,Left,1,55,80,538.5,0.239583,Sixteenth,G3
2006,Left,1,60,80,538.75,0.239583,Sixteenth,C4
2008,Left,1,48,80,539.0,0.239583,Sixteenth,C3
2007,Right,0,79,80,539.0,0.489583,Eighth,G5_G4
2010,Left,1,52,80,539.25,0.239583,Sixteenth,E3
2011,Right,0,77,80,539.5,0.489583,Eighth,F5_F4
2013,Left,1,55,80,539.5,0.239583,Sixteenth,G3
2014,Left,1,60,80,539.75,0.239583,Sixteenth,C4
2015,Right,0,65,80,540.0,0.489583,Eighth,F5_F4
2016,Left,1,48,80,540.0,0.239583,Sixteenth,C3
2018,Left,1,52,80,540.25,0.239583,Sixteenth,E3
2021,Left,1,55,80,540.5,0.239583,Sixteenth,G3
2019,Right,0,76,80,540.5,0.489583,Eighth,E5_E4
2022,Left,1,60,80,540.75,0.239583,Sixteenth,C4
2023,Left,1,48,80,541.0,0.239583,Sixteenth,C3
2024,Right,0,75,80,541.0,0.489583,Eighth,D#5_D#4
2026,Left,1,52,80,541.25,0.239583,Sixteenth,E3
2029,Left,1,55,80,541.5,0.239583,Sixteenth,G3
2027,Right,0,76,80,541.5,0.489583,Eighth,E5_E4
2030,Left,1,60,80,541.75,0.239583,Sixteenth,C4
2031,Left,1,48,80,542.0,0.239583,Sixteenth,C3
2032,Right,0,75,80,542.0,0.489583,Eighth,D#5_D#4
2034,Left,1,52,80,542.25,0.239583,Sixteenth,E3
2036,Left,1,55,80,542.5,0.239583,Sixteenth,G3
2035,Right,0,76,80,542.5,0.489583,Eighth,E5_E4
2038,Left,1,60,80,542.75,0.239583,Sixteenth,C4
2040,Right,0,77,80,543.0,0.489583,Eighth,F5_F4
2039,Left,1,48,80,543.0,0.239583,Sixteenth,C3
2042,Left,1,52,80,543.25,0.239583,Sixteenth,E3
2043,Left,1,55,80,543.5,0.239583,Sixteenth,G3
2044,Right,0,64,80,543.5,0.489583,Eighth,E5_E4
2046,Left,1,60,80,543.75,0.239583,Sixteenth,C4
2048,Left,1,47,80,544.0,0.239583,Sixteenth,B2
2047,Right,0,64,80,544.0,2.989583,DottedHalf,E5_E4
2050,Left,1,52,80,544.25,0.239583,Sixteenth,E3
2051,Left,1,55,80,544.5,0.239583,Sixteenth,G3
2052,Left,1,59,80,544.75,0.239583,Sixteenth,B3
2053,Left,1,47,80,545.0,0.239583,Sixteenth,B2
2054,Left,1,52,80,545.25,0.239583,Sixteenth,E3
2055,Left,1,55,80,545.5,0.239583,Sixteenth,G3
2056,Left,1,59,80,545.75,0.239583,Sixteenth,B3
2057,Left,1,47,80,546.0,0.239583,Sixteenth,B2
2058,Left,1,52,80,546.25,0.239583,Sixteenth,E3
2059,Left,1,55,80,546.5,0.239583,Sixteenth,G3
2060,Left,1,59,80,546.75,0.239583,Sixteenth,B3
2063,Left,1,47,80,547.0,0.239583,Sixteenth,B2
2061,Right,0,67,80,547.0,0.489583,Eighth,G5_G4
2064,Left,1,52,80,547.25,0.239583,Sixteenth,E3
2067,Left,1,55,80,547.5,0.239583,Sixteenth,G3
2065,Right,0,66,80,547.5,0.489583,Eighth,F#5_F#4
2068,Left,1,59,80,547.75,0.239583,Sixteenth,B3
2069,Left,1,47,80,548.0,0.239583,Sixteenth,B2
2070,Right,0,66,80,548.0,0.489583,Eighth,F#5_F#4
2072,Left,1,52,80,548.25,0.239583,Sixteenth,E3
2073,Right,0,76,80,548.5,0.489583,Eighth,E5_E4
2075,Left,1,55,80,548.5,0.239583,Sixteenth,G3
2076,Left,1,59,80,548.75,0.239583,Sixteenth,B3
2077,Right,0,63,80,549.0,0.489583,Eighth,D#5_D#4
2079,Left,1,47,80,549.0,0.239583,Sixteenth,B2
2080,Left,1,52,80,549.25,0.239583,Sixteenth,E3
2081,Left,1,55,80,549.5,0.239583,Sixteenth,G3
2082,Right,0,64,80,549.5,0.489583,Eighth,E5_E4
2084,Left,1,59,80,549.75,0.239583,Sixteenth,B3
2087,Left,1,47,80,550.0,0.239583,Sixteenth,B2
2085,Right,0,63,80,550.0,0.489583,Eighth,D#5_D#4
2088,Left,1,52,80,550.25,0.239583,Sixteenth,E3
2091,Left,1,55,80,550.5,0.239583,Sixteenth,G3
2089,Right,0,64,80,550.5,0.489583,Eighth,E5_E4
2092,Left,1,59,80,550.75,0.239583,Sixteenth,B3
2095,Left,1,47,80,551.0,0.239583,Sixteenth,B2
2093,Right,0,66,80,551.0,0.489583,Eighth,F#5_F#4
2096,Left,1,52,80,551.25,0.239583,Sixteenth,E3
2099,Left,1,55,80,551.5,0.239583,Sixteenth,G3
2097,Right,0,64,80,551.5,0.489583,Eighth,E5_E4
2100,Left,1,59,80,551.75,0.239583,Sixteenth,B3
2102,Right,0,76,80,552.0,2.989583,DottedHalf,E5_E4
2101,Left,1,46,80,552.0,0.239583,Sixteenth,A#2
2104,Left,1,52,80,552.25,0.239583,Sixteenth,E3
2105,Left,1,55,80,552.5,0.239583,Sixteenth,G3
2106,Left,1,61,80,552.75,0.239583,Sixteenth,C#4
2107,Left,1,46,80,553.0,0.239583,Sixteenth,A#2
2108,Left,1,52,80,553.25,0.239583,Sixteenth,E3
2109,Left,1,55,80,553.5,0.239583,Sixteenth,G3
2110,Left,1,61,80,553.75,0.239583,Sixteenth,C#4
2111,Left,1,46,80,554.0,0.239583,Sixteenth,A#2
2112,Left,1,52,80,554.25,0.239583,Sixteenth,E3
2113,Left,1,55,80,554.5,0.239583,Sixteenth,G3
2114,Left,1,61,80,554.75,0.239583,Sixteenth,C#4
2116,Right,0,76,110,555.0,0.989583,Quarter,E6_E5
2115,Left,1,46,110,555.0,0.239583,Sixteenth,A#2
2118,Left,1,52,110,555.25,0.239583,Sixteenth,E3
2119,Left,1,55,110,555.5,0.239583,Sixteenth,G3
2120,Left,1,61,110,555.75,0.239583,Sixteenth,C#4
2121,Right,0,76,110,556.0,2.489583,Half,E6_E5
2122,Left,1,46,110,556.0,0.239583,Sixteenth,A#2
2124,Left,1,52,110,556.25,0.239583,Sixteenth,E3
2125,Left,1,55,110,556.5,0.239583,Sixteenth,G3
2126,Left,1,61,110,556.75,0.239583,Sixteenth,C#4
2127,Left,1,46,110,557.0,0.239583,Sixteenth,A#2
2128,Left,1,52,110,557.25,0.239583,Sixteenth,E3
2129,Left,1,55,110,557.5,0.239583,Sixteenth,G3
2130,Left,1,61,110,557.75,0.239583,Sixteenth,C#4
2131,Left,1,46,110,558.0,0.239583,Sixteenth,A#2
2132,Left,1,52,80,558.25,0.239583,Sixteenth,E3
2133,Right,0,67,80,558.5,0.489583,Eighth,G5_G4
2135,Left,1,55,80,558.5,0.239583,Sixteenth,G3
2136,Left,1,61,80,558.75,0.239583,Sixteenth,C#4
2137,Left,1,46,80,559.0,0.239583,Sixteenth,A#2
2138,Right,0,66,80,559.0,0.489583,Eighth,F#5_F#4
2140,Left,1,52,80,559.25,0.239583,Sixteenth,E3
2143,Left,1,55,80,559.5,0.239583,Sixteenth,G3
2141,Right,0,64,80,559.5,0.489583,Eighth,E5_E4
2144,Left,1,61,80,559.75,0.239583,Sixteenth,C#4
2147,Left,1,47,80,560.0,7.989583,Unknown,B2
2145,Right,0,75,80,560.0,0.489583,Eighth,D#5_D#4
2148,Right,0,71,80,560.5,0.489583,Eighth,D#4_B4_B3
2151,Right,0,59,80,561.0,0.489583,Eighth,D#4_B4_B3
2154,Right,0,63,80,561.5,0.489583,Eighth,D#4_B4_B3
2157,Left,1,52,80,562.0,1.989583,Half,E3
2158,Right,0,67,80,562.5,0.489583,Eighth,G4_B4_B3
2161,Right,0,67,80,563.0,0.489583,Eighth,G4_B4_B3
2164,Right,0,71,80,563.5,0.489583,Eighth,G4_B4_B3
2167,Left,1,51,80,564.0,1.989583,Half,D#3
2168,Right,0,71,80,564.5,0.489583,Eighth,F#4_B4_B3
2171,Right,0,59,80,565.0,0.489583,Eighth,F#4_B4_B3
2174,Right,0,66,80,565.5,0.489583,Eighth,F#4_B4_B3
2177,Left,1,55,80,566.0,1.989583,Half,G3
2178,Right,0,59,80,566.5,0.489583,Eighth,E4_B4_B3
2181,Right,0,59,80,567.0,0.489583,Eighth,E4_B4_B3
2184,Right,0,71,80,567.5,0.489583,Eighth,E4_B4_B3
2187,Left,1,47,80,568.0,0.489583,Eighth,F#3_B2
2189,Right,0,71,80,568.0,1.989583,Half,B4
2190,Left,1,59,80,568.5,0.489583,Eighth,B3
2191,Right,0,63,80,568.5,0.489583,Eighth,D#4
2193,Right,0,63,80,569.0,0.489583,Eighth,D#4
2192,Left,1,59,80,569.0,0.489583,Eighth,B3
2195,Left,1,59,80,569.5,0.489583,Eighth,B3
2194,Right,0,63,80,569.5,0.489583,Eighth,D#4
2196,Right,0,76,80,570.0,1.989583,Half,E5
2198,Right,0,64,80,570.5,0.489583,Eighth,G4_E4
2197,Left,1,59,80,570.5,0.489583,Eighth,B3
2200,Right,0,64,80,571.0,0.489583,Eighth,G4_E4
2202,Left,1,59,80,571.0,0.489583,Eighth,B3
2203,Right,0,67,80,571.5,0.489583,Eighth,G4_E4
2205,Left,1,59,80,571.5,0.489583,Eighth,B3
2206,Right,0,75,80,572.0,1.989583,Half,D#5
2209,Left,1,59,80,572.5,0.489583,Eighth,B3
2207,Right,0,66,80,572.5,0.489583,Eighth,F#4_D#4
2210,Right,0,66,80,573.0,0.489583,Eighth,F#4_D#4
2212,Left,1,59,80,573.0,0.489583,Eighth,B3
2214,Right,0,66,80,573.5,0.489583,Eighth,F#4_D#4
2213,Left,1,59,80,573.5,0.489583,Eighth,B3
2216,Right,0,70,80,574.0,1.989583,Half,A#4
2218,Right,0,64,80,574.5,0.489583,Eighth,E4_C#4
2217,Left,1,59,80,574.5,0.489583,Eighth,B3
2220,Right,0,64,80,575.0,0.489583,Eighth,E4_C#4
2222,Left,1,59,80,575.0,0.489583,Eighth,B3
2223,Right,0,61,80,575.5,0.489583,Eighth,E4_C#4
2225,Left,1,59,80,575.5,0.489583,Eighth,B3
2226,Left,1,47,80,576.0,7.989583,Unknown,B2
2227,Right,0,63,80,576.5,0.489583,Eighth,D#4_B4_B3
2230,Right,0,71,80,577.0,0.489583,Eighth,D#4_B4_B3
2233,Right,0,59,80,577.5,0.489583,Eighth,D#4_B4_B3
2236,Left,1,52,80,578.0,1.989583,Half,E3
2237,Right,0,71,80,578.5,0.489583,Eighth,G4_B4_B3
2240,Right,0,71,80,579.0,0.489583,Eighth,G4_B4_B3
2243,Right,0,67,80,579.5,0.489583,Eighth,G4_B4_B3
2246,Left,1,51,80,580.0,1.989583,Half,D#3
2247,Right,0,59,80,580.5,0.489583,Eighth,F#4_B4_B3
2250,Right,0,71,80,581.0,0.489583,Eighth,F#4_B4_B3
2253,Right,0,71,80,581.5,0.489583,Eighth,F#4_B4_B3
2256,Left,1,55,80,582.0,1.989583,Half,G3
2257,Right,0,71,80,582.5,0.489583,Eighth,E4_B4_B3
2260,Right,0,71,80,583.0,0.489583,Eighth,E4_B4_B3
2263,Right,0,71,80,583.5,0.489583,Eighth,E4_B4_B3
2266,Right,0,71,80,584.0,1.989583,Half,B4
2267,Left,1,54,80,584.0,0.489583,Eighth,F#3_B2
2269,Left,1,59,80,584.5,0.489583,Eighth,B3
2270,Right,0,63,80,584.5,0.489583,Eighth,D#4
2272,Right,0,63,80,585.0,0.489583,Eighth,D#4
2271,Left,1,59,80,585.0,0.489583,Eighth,B3
2274,Right,0,63,80,585.5,0.489583,Eighth,D#4
2273,Left,1,59,80,585.5,0.489583,Eighth,B3
2275,Right,0,76,80,586.0,1.989583,Half,E5
2276,Right,0,67,80,586.5,0.489583,Eighth,G4_E4
2277,Left,1,59,80,586.5,0.489583,Eighth,B3
2279,Right,0,64,80,587.0,0.489583,Eighth,G4_E4
2281,Left,1,59,80,587.0,0.489583,Eighth,B3
2282,Right,0,64,80,587.5,0.489583,Eighth,G4_E4
2284,Left,1,59,80,587.5,0.489583,Eighth,B3
2285,Right,0,75,80,588.0,1.989583,Half,D#5
2288,Left,1,59,80,588.5,0.489583,Eighth,B3
2286,Right,0,63,80,588.5,0.489583,Eighth,F#4_D#4
2289,Right,0,63,80,589.0,0.489583,Eighth,F#4_D#4
2291,Left,1,59,80,589.0,0.489583,Eighth,B3
2292,Right,0,66,80,589.5,0.489583,Eighth,F#4_D#4
2293,Left,1,59,80,589.5,0.489583,Eighth,B3
2295,Right,0,70,80,590.0,1.989583,Half,A#4
2298,Left,1,59,80,590.5,0.489583,Eighth,B3
2296,Right,0,61,80,590.5,0.489583,Eighth,E4_C#4
2299,Left,1,59,80,591.0,0.489583,Eighth,B3
2300,Right,0,64,80,591.0,0.489583,Eighth,E4_C#4
2302,Right,0,64,80,591.5,0.489583,Eighth,E4_C#4
2304,Left,1,59,80,591.5,0.489583,Eighth,B3
2305,Right,0,71,80,592.0,1.989583,Half,B4
2306,Right,0,63,81,592.5,0.489583,Eighth,D#4_B3
2308,Left,1,47,81,592.5,0.489583,Eighth,B2
2310,Right,0,63,82,593.0,0.489583,Eighth,D#4_B3
2309,Left,1,47,82,593.0,0.489583,Eighth,B2
2312,Right,0,63,83,593.5,0.489583,Eighth,D#4_B3
2313,Left,1,47,83,593.5,0.489583,Eighth,B2
2315,Right,0,69,85,594.0,1.989583,Half,A4
2316,Left,1,47,86,594.5,0.489583,Eighth,B2
2317,Right,0,64,86,594.5,0.489583,Eighth,E4_C#4
2319,Left,1,47,87,595.0,0.489583,Eighth,B2
2320,Right,0,61,87,595.0,0.489583,Eighth,E4_C#4
2323,Left,1,47,89,595.5,0.489583,Eighth,B2
2322,Right,0,61,89,595.5,0.489583,Eighth,E4_C#4
2325,Right,0,68,90,596.0,1.989583,Half,G#4
2328,Left,1,47,91,596.5,0.489583,Eighth,B2_B1
2326,Right,0,59,91,596.5,0.489583,Eighth,E4_B3
2330,Right,0,59,93,597.0,0.489583,Eighth,E4_B3
2331,Left,1,35,93,597.0,0.489583,Eighth,B2_B1
2336,Right,0,64,94,597.5,0.489583,Eighth,E4_B3
2334,Left,1,35,94,597.5,0.489583,Eighth,B2_B1
2338,Right,0,66,95,598.0,1.989583,Half,F#4
2339,Left,1,35,97,598.5,0.489583,Eighth,B2_B1
2341,Right,0,63,97,598.5,0.489583,Eighth,D#4_A3
2345,Left,1,35,98,599.0,0.489583,Eighth,B2_B1
2343,Right,0,63,98,599.0,0.489583,Eighth,D#4_A3
2347,Right,0,57,99,599.5,0.489583,Eighth,D#4_A3
2348,Left,1,47,99,599.5,0.489583,Eighth,B2_B1
2351,Right,0,71,110,600.0,1.989583,Half,G#4_E4_B4_B3
2355,Left,1,40,110,600.25,0.239583,Sixteenth,E2
2356,Left,1,42,110,600.5,0.239583,Sixteenth,F#2
2357,Left,1,44,110,600.75,0.239583,Sixteenth,G#2
2358,Left,1,45,110,601.0,0.239583,Sixteenth,A2
2359,Left,1,47,110,601.25,0.239583,Sixteenth,B2
2360,Left,1,49,110,601.5,0.239583,Sixteenth,C#3
2361,Left,1,51,110,601.75,0.239583,Sixteenth,D#3
2366,Left,1,52,110,602.0,0.239583,Sixteenth,E3
2362,Right,0,76,110,602.0,1.989583,Half,G#4_E5_E4_B4
2367,Left,1,54,110,602.25,0.239583,Sixteenth,F#3
2368,Left,1,56,110,602.5,0.239583,Sixteenth,G#3
2369,Left,1,57,110,602.75,0.239583,Sixteenth,A3
2370,Left,1,59,110,603.0,0.239583,Sixteenth,B3
2371,Left,1,61,110,603.25,0.239583,Sixteenth,C#4
2372,Left,1,63,110,603.5,0.239583,Sixteenth,D#4
2373,Left,1,64,110,603.75,0.239583,Sixteenth,E4
2374,Right,0,73,110,604.0,1.989583,Half,C#5_A4
2376,Left,1,40,110,604.25,0.239583,Sixteenth,E2
2377,Left,1,42,110,604.5,0.239583,Sixteenth,F#2
2378,Left,1,44,110,604.75,0.239583,Sixteenth,G#2
2379,Left,1,45,110,605.0,0.239583,Sixteenth,A2
2380,Left,1,47,110,605.25,0.239583,Sixteenth,B2
2381,Left,1,49,110,605.5,0.239583,Sixteenth,C#3
2382,Left,1,51,110,605.75,0.239583,Sixteenth,D#3
2386,Left,1,52,110,606.0,0.239583,Sixteenth,E3
2383,Right,0,73,110,606.0,1.989583,Half,F#5_C#5_A4
2387,Left,1,54,110,606.25,0.239583,Sixteenth,F#3
2388,Left,1,56,110,606.5,0.239583,Sixteenth,G#3
2389,Left,1,57,110,606.75,0.239583,Sixteenth,A3
2390,Left,1,59,110,607.0,0.239583,Sixteenth,B3
2391,Left,1,61,110,607.25,0.239583,Sixteenth,C#4
2392,Left,1,63,110,607.5,0.239583,Sixteenth,D#4
2393,Left,1,64,110,607.75,0.239583,Sixteenth,E4
2394,Right,0,69,110,608.0,1.989583,Half,D#5_B4_A4
2397,Left,1,52,110,608.25,0.239583,Sixteenth,E3
2398,Left,1,54,110,608.5,0.239583,Sixteenth,F#3
2399,Left,1,56,110,608.75,0.239583,Sixteenth,G#3
2400,Left,1,57,110,609.0,0.239583,Sixteenth,A3
2401,Left,1,59,110,609.25,0.239583,Sixteenth,B3
2402,Left,1,61,110,609.5,0.239583,Sixteenth,C#4
2403,Left,1,63,110,609.75,0.239583,Sixteenth,D#4
2405,Left,1,64,110,610.0,0.239583,Sixteenth,E4
2404,Right,0,81,110,610.0,0.989583,Quarter,F#5_B5_A5
2408,Left,1,66,110,610.25,0.239583,Sixteenth,F#4
2409,Left,1,68,110,610.5,0.239583,Sixteenth,G#4
2410,Left,1,69,110,610.75,0.239583,Sixteenth,A4
2412,Right,0,83,110,611.0,0.989583,Quarter,F#5_B5_A5
2411,Left,1,71,110,611.0,0.239583,Sixteenth,B4
2415,Left,1,73,110,611.25,0.239583,Sixteenth,C#5
2416,Left,1,74,110,611.5,0.239583,Sixteenth,D5
2417,Left,1,75,110,611.75,0.239583,Sixteenth,D#5
2419,Right,0,83,110,612.0,2.989583,DottedQuarter,G#5_B5
2418,Left,1,76,110,612.0,2.989583,DottedHalf,E5
2421,Right,0,85,110,613.5,0.239583,Sixteenth,C#6
2422,Right,0,87,110,613.75,0.239583,Sixteenth,D#6
2423,Right,0,88,110,614.0,0.989583,Quarter,E6
2424,Right,0,80,80,616.0,0.239583,Sixteenth,G#5
2425,Right,0,76,80,616.25,0.239583,Sixteenth,E5
2426,Right,0,81,80,616.5,0.239583,Sixteenth,A5
2427,Right,0,78,80,616.75,0.239583,Sixteenth,F#5
2428,Right,0,83,80,617.0,0.239583,Sixteenth,B5
2429,Right,0,80,80,617.25,0.239583,Sixteenth,G#5
2430,Right,0,85,80,617.5,0.239583,Sixteenth,C#6
2431,Right,0,81,80,617.75,0.239583,Sixteenth,A5
2433,Left,1,68,80,618.0,0.239583,Sixteenth,G#4
2432,Right,0,83,80,618.0,0.989583,Quarter,B5
2434,Left,1,64,80,618.25,0.239583,Sixteenth,E4
2435,Left,1,69,80,618.5,0.239583,Sixteenth,A4
2436,Left,1,66,80,618.75,0.239583,Sixteenth,F#4
2437,Left,1,71,80,619.0,0.239583,Sixteenth,B4
2438,Left,1,68,80,619.25,0.239583,Sixteenth,G#4
2439,Left,1,73,80,619.5,0.239583,Sixteenth,C#5
2440,Left,1,69,80,619.75,0.239583,Sixteenth,A4
2442,Left,1,71,80,620.0,0.989583,Quarter,B4
2441,Right,0,56,80,620.0,0.239583,Sixteenth,G#3
2443,Right,0,52,80,620.25,0.239583,Sixteenth,E3
2444,Right,0,57,80,620.5,0.239583,Sixteenth,A3
2445,Right,0,54,80,620.75,0.239583,Sixteenth,F#3
2446,Right,0,59,80,621.0,0.239583,Sixteenth,B3
2447,Right,0,56,80,621.25,0.239583,Sixteenth,G#3
2448,Right,0,61,80,621.5,0.239583,Sixteenth,C#4
2449,Right,0,57,80,621.75,0.239583,Sixteenth,A3
2450,Right,0,59,80,622.0,0.989583,Quarter,B3
2451,Left,1,44,80,622.0,0.239583,Sixteenth,G#2
2452,Left,1,40,80,622.25,0.239583,Sixteenth,E2
2453,Left,1,45,80,622.5,0.239583,Sixteenth,A2
2454,Left,1,42,80,622.75,0.239583,Sixteenth,F#2
2455,Left,1,47,80,623.0,0.239583,Sixteenth,B2
2456,Left,1,44,80,623.25,0.239583,Sixteenth,G#2
2457,Left,1,49,80,623.5,0.239583,Sixteenth,C#3
2458,Left,1,45,80,623.75,0.239583,Sixteenth,A2
2459,Left,1,47,80,624.0,3.989583,Whole,B2
2460,Right,0,59,80,624.5,3.489583,DottedHalf,B3
2461,Right,0,68,80,625.0,0.489583,Eighth,G#4
2462,Left,1,56,80,625.5,0.489583,Eighth,G#3
2463,Right,0,64,80,625.5,0.489583,Eighth,E4
2464,Left,1,51,80,626.0,0.489583,Eighth,D#3
2465,Right,0,69,80,626.0,0.489583,Eighth,A4
2467,Left,1,54,80,626.5,0.489583,Eighth,F#3
2466,Right,0,66,80,626.5,0.489583,Eighth,F#4
2468,Right,0,63,80,627.0,0.489583,Eighth,D#4
2469,Left,1,57,80,627.0,0.989583,Quarter,A3
2470,Right,0,71,80,627.5,0.489583,Eighth,B4
2471,Left,1,49,80,628.0,0.15625,TripletSixteenth,C#3
2472,Left,1,52,80,628.166667,0.15625,TripletSixteenth,E3
2473,Left,1,56,80,628.333333,0.15625,TripletSixteenth,G#3
2475,Right,0,73,80,628.5,0.239583,Sixteenth,C#5
2474,Left,1,59,80,628.5,3.489583,DottedHalf,B3
2476,Right,0,71,80,628.625,0.239583,Sixteenth,B4
2477,Right,0,70,80,628.75,0.239583,Sixteenth,A#4
2478,Right,0,71,80,628.875,3.114583,DottedHalf,B4
2479,Right,0,80,80,629.0,0.489583,Eighth,G#5
2480,Right,0,76,80,629.5,0.489583,Eighth,E5
2481,Left,1,68,80,629.5,0.489583,Eighth,G#4
2483,Right,0,81,80,630.0,0.489583,Eighth,A5
2482,Left,1,63,80,630.0,0.489583,Eighth,D#4
2485,Left,1,66,80,630.5,0.489583,Eighth,F#4
2484,Right,0,78,80,630.5,0.489583,Eighth,F#5
2487,Left,1,69,80,631.0,0.989583,Quarter,A4
2486,Right,0,75,80,631.0,0.489583,Eighth,D#5
2488,Right,0,83,80,631.5,1.989583,Half,B5
2491,Right,0,71,80,632.0,1.989583,Half,B4
2489,Left,1,68,80,632.0,0.989583,Quarter,G#4_E4
2492,Left,1,56,80,633.0,0.989583,Quarter,G#3
2493,Right,0,81,80,633.5,0.239583,Sixteenth,A5
2494,Right,0,80,80,633.75,0.239583,Sixteenth,G#5
2496,Right,0,78,80,634.0,0.489583,Eighth,F#5
2495,Left,1,57,80,634.0,0.989583,Quarter,A3
2497,Right,0,76,80,634.5,0.489583,Eighth,E5
2499,Right,0,75,80,635.0,0.489583,Eighth,D#5
2498,Left,1,58,80,635.0,0.989583,Quarter,A#3
2500,Right,0,73,80,635.5,0.489583,Eighth,C#5
2504,Left,1,59,80,636.0,1.989583,Half,B3
2501,Right,0,68,80,636.0,3.989583,Quarter,G#4_E4_B4
2505,Right,0,67,80,637.0,0.989583,Quarter,G4
2506,Left,1,47,80,638.0,1.989583,Half,B2_A#3
2508,Right,0,66,80,638.0,1.989583,Half,F#4
2510,Left,1,57,80,639.0,0.989583,Quarter,A3
2509,Right,0,63,80,639.0,0.989583,Quarter,D#4
2514,Left,1,56,80,640.0,0.989583,Quarter,G#3_E3
2511,Right,0,71,80,640.0,1.989583,Half,E4_B4_B3
2516,Left,1,44,80,641.0,0.989583,Quarter,G#2
2517,Right,0,69,80,641.5,0.239583,Sixteenth,A4
2518,Right,0,68,80,641.75,0.239583,Sixteenth,G#4
2519,Left,1,45,80,642.0,0.989583,Quarter,A2
2520,Right,0,66,80,642.0,0.489583,Eighth,F#4
2521,Right,0,64,80,642.5,0.489583,Eighth,E4
2523,Right,0,63,80,643.0,0.489583,Eighth,D#4
2522,Left,1,46,80,643.0,0.989583,Quarter,A#2
2524,Right,0,61,80,643.5,0.489583,Eighth,C#4
2526,Right,0,59,80,644.0,3.989583,Whole,G#3_E3_B3
2525,Left,1,47,80,644.0,1.989583,Half,B2
2529,Right,0,55,80,645.0,0.989583,Quarter,G3
2531,Left,1,35,80,646.0,1.989583,Half,B1
2530,Right,0,54,80,646.0,1.989583,Half,F#3
2532,Right,0,51,80,647.0,0.989583,Quarter,D#3
2533,Right,0,55,70,648.0,1.989583,Half,G3_E3
2535,Left,1,36,70,648.25,0.239583,Sixteenth,C2
2536,Left,1,38,70,648.5,0.239583,Sixteenth,D2
2537,Left,1,40,70,648.75,0.239583,Sixteenth,E2
2538,Left,1,41,70,649.0,0.239583,Sixteenth,F2
2539,Left,1,43,70,649.25,0.239583,Sixteenth,G2
2540,Left,1,45,70,649.5,0.239583,Sixteenth,A2
2541,Left,1,47,70,649.75,0.239583,Sixteenth,B2
2543,Right,0,60,70,650.0,1.989583,Half,G3_E3_C4
2542,Left,1,48,70,650.0,0.489583,Eighth,C3
2546,Left,1,48,70,650.5,0.489583,Eighth,C3
2547,Left,1,48,70,651.0,0.489583,Eighth,C3
2548,Left,1,48,70,651.5,0.489583,Eighth,C3
2549,Right,0,50,70,652.0,1.989583,Half,F3_D3_B3
2552,Left,1,36,70,652.25,0.239583,Sixteenth,C2
2553,Left,1,38,70,652.5,0.239583,Sixteenth,D2
2554,Left,1,40,70,652.75,0.239583,Sixteenth,E2
2555,Left,1,41,70,653.0,0.239583,Sixteenth,F2
2556,Left,1,43,70,653.25,0.239583,Sixteenth,G2
2557,Left,1,45,70,653.5,0.239583,Sixteenth,A2
2558,Left,1,47,70,653.75,0.239583,Sixteenth,B2
2560,Right,0,65,70,654.0,1.989583,Half,G3_F4_D4_B3
2559,Left,1,48,70,654.0,0.489583,Eighth,C3
2564,Left,1,48,70,654.5,0.489583,Eighth,C3
2565,Left,1,48,70,655.0,0.489583,Eighth,C3
2566,Left,1,48,70,655.5,0.489583,Eighth,C3
2567,Left,1,55,70,656.0,5.989583,Half,G3_C3
2569,Right,0,64,71,656.25,0.239583,Sixteenth,E4
2570,Right,0,65,73,656.5,0.239583,Sixteenth,F4
2571,Right,0,67,75,656.75,0.239583,Sixteenth,G4
2572,Right,0,69,77,657.0,0.239583,Sixteenth,A4
2573,Right,0,71,79,657.25,0.239583,Sixteenth,B4
2574,Right,0,72,81,657.5,0.239583,Sixteenth,C5
2575,Right,0,74,83,657.75,0.239583,Sixteenth,D5
2576,Right,0,76,85,658.0,0.489583,Eighth,E5
2577,Left,1,60,85,658.0,1.989583,Half,C4
2578,Right,0,77,89,658.5,0.239583,Sixteenth,F5
2579,Right,0,79,91,658.75,0.239583,Sixteenth,G5
2580,Right,0,81,93,659.0,0.239583,Sixteenth,A5
2581,Right,0,83,95,659.25,0.239583,Sixteenth,B5
2582,Right,0,84,97,659.5,0.239583,Sixteenth,C6
2583,Right,0,86,99,659.75,0.239583,Sixteenth,D6
2585,Right,0,88,110,660.0,0.989583,Quarter,E6
2584,Left,1,58,110,660.0,3.989583,Whole,A#3
2586,Right,0,75,110,661.0,0.239583,Sixteenth,D#5
2587,Right,0,76,110,661.25,0.239583,Sixteenth,E5
2588,Right,0,75,110,661.5,0.239583,Sixteenth,D#5
2589,Right,0,76,110,661.75,0.239583,Sixteenth,E5
2590,Right,0,63,110,662.0,0.239583,Sixteenth,D#4
2591,Left,1,48,110,662.0,1.989583,Half,C3
2592,Right,0,64,110,662.25,0.239583,Sixteenth,E4
2593,Right,0,63,110,662.5,0.239583,Sixteenth,D#4
2594,Right,0,64,110,662.75,0.239583,Sixteenth,E4
2595,Right,0,63,110,663.0,0.239583,Sixteenth,D#4
2596,Right,0,64,110,663.25,0.239583,Sixteenth,E4
2597,Right,0,67,110,663.5,0.239583,Sixteenth,G4
2598,Right,0,64,110,663.75,0.239583,Sixteenth,E4
2599,Left,1,59,110,664.0,0.489583,Eighth,B3_B2
2600,Right,0,63,110,664.0,0.989583,Quarter,D#4
2602,Left,1,47,110,664.5,0.489583,Eighth,B2
2603,Right,0,59,110,665.0,0.989583,Quarter,B3
2604,Left,1,47,110,665.0,0.489583,Eighth,B2
2605,Left,1,47,110,665.5,0.489583,Eighth,B2
2609,Left,1,52,110,666.0,1.989583,Half,E3_B2
2606,Right,0,58,110,666.0,1.989583,Half,G4_C#4_A#3
2611,Left,1,47,110,666.5,0.489583,Eighth,B2
2612,Left,1,47,110,667.0,0.489583,Eighth,B2
2613,Left,1,47,110,667.5,0.489583,Eighth,B2
2614,Right,0,66,110,668.0,1.989583,Quarter,F#4_B3
2615,Left,1,47,110,668.0,1.989583,Eighth,D#3_B2
2618,Left,1,47,110,668.5,0.489583,Eighth,B2
2619,Left,1,47,110,669.0,0.489583,Eighth,B2
2620,Right,0,63,110,669.0,0.989583,Quarter,D#4
2621,Left,1,47,110,669.5,0.489583,Eighth,B2
2623,Right,0,70,90,670.0,1.989583,Half,C#4_A#4
2622,Left,1,55,90,670.0,1.989583,Half,G3_B2
2626,Left,1,47,90,670.5,0.489583,Eighth,B2
2627,Left,1,47,90,671.0,0.489583,Eighth,B2
2629,Left,1,47,90,671.5,0.489583,Eighth,B2
2628,Right,0,63,90,671.5,0.239583,Sixteenth,D#4
2630,Right,0,64,90,671.75,0.239583,Sixteenth,E4
2631,Left,1,54,90,672.0,1.989583,Half,F#3_B2
2633,Right,0,63,90,672.0,1.989583,Quarter,D#4_B4
2635,Left,1,47,90,672.5,0.489583,Eighth,B2
2637,Right,0,59,90,673.0,0.989583,Quarter,B3
2636,Left,1,47,90,673.0,0.489583,Eighth,B2
2638,Left,1,47,90,673.5,0.489583,Eighth,B2
2639,Right,0,73,110,674.0,1.989583,Half,G5_C#5_A#4
2642,Left,1,64,110,674.0,1.989583,Half,E4_B3
2644,Left,1,59,110,674.5,0.489583,Eighth,B3
2645,Left,1,59,110,675.0,0.489583,Eighth,B3
2646,Left,1,59,110,675.5,0.489583,Eighth,B3
2648,Left,1,63,110,676.0,1.989583,Half,D#4_B3
2647,Right,0,71,110,676.0,1.989583,Half,F#5_B4
2651,Left,1,59,110,676.5,0.489583,Eighth,B3
2653,Right,0,75,110,677.0,0.989583,Quarter,D#5
2652,Left,1,59,110,677.0,0.489583,Eighth,B3
2654,Left,1,59,90,677.5,0.489583,Eighth,B3
2657,Right,0,73,90,678.0,1.989583,DottedQuarter,C#5_A#5
2655,Left,1,59,90,678.0,1.989583,Eighth,G4_B3
2659,Left,1,59,90,678.5,0.489583,Eighth,B3
2660,Left,1,59,90,679.0,0.489583,Eighth,B3
2661,Left,1,59,90,679.5,0.489583,Eighth,B3
2662,Right,0,75,90,679.5,0.239583,Sixteenth,D#5
2663,Right,0,76,90,679.75,0.239583,Sixteenth,E5
2664,Left,1,59,90,680.0,1.989583,Eighth,F#4_B3
2666,Right,0,75,90,680.0,1.989583,Quarter,D#5_B5
2668,Left,1,59,90,680.5,0.489583,Eighth,B3
2669,Left,1,59,90,681.0,0.489583,Eighth,B3
2670,Right,0,71,90,681.0,0.989583,Quarter,B4
2671,Left,1,59,90,681.5,0.489583,Eighth,B3
2674,Left,1,59,110,682.0,1.989583,Half,G4_E4_B3
2672,Right,0,82,110,682.0,1.989583,Half,E5_C#5_A#5
2678,Left,1,59,110,682.5,0.489583,Eighth,B3
2679,Left,1,59,110,683.0,0.489583,Eighth,B3
2680,Right,0,78,110,683.5,0.239583,Sixteenth,F#5
2681,Left,1,59,110,683.5,0.489583,Eighth,B3
2682,Right,0,79,110,683.75,0.239583,Sixteenth,G5
2683,Right,0,83,110,684.0,0.989583,Quarter,F#5_D#5_B5
2686,Left,1,59,110,684.0,0.989583,Quarter,F#4_D#4_B3
2692,Left,1,59,110,686.0,0.989583,Quarter,F#3_D#3_B3_B2
2689,Right,0,63,110,686.0,0.989583,Quarter,F#4_D#4_B4
2696,Left,1,47,110,688.0,0.989583,Quarter,B2_B1
2698,Right,0,59,110,688.0,0.989583,Quarter,F#3_D#3_B3
2701,Right,0,83,80,690.0,0.489583,Eighth,B5
2702,Right,0,81,80,690.5,0.489583,Eighth,A5
2703,Right,0,80,80,691.0,0.489583,Eighth,G#5
2704,Right,0,78,80,691.5,0.489583,Eighth,F#5
2705,Right,0,76,80,692.0,1.989583,Half,E5
2706,Right,0,78,80,694.0,0.989583,Quarter,F#5
2707,Right,0,79,80,695.0,0.989583,Quarter,G5
2708,Right,0,80,80,696.0,0.989583,Quarter,G#5
2709,Right,0,81,80,697.0,0.989583,Quarter,A5
2710,Right,0,82,80,698.0,0.989583,Quarter,A#5
2711,Right,0,83,80,699.0,0.989583,Quarter,B5
2712,Right,0,84,80,700.0,0.989583,Quarter,C6
2713,Right,0,85,80,701.0,1.989583,Half,C#6
2715,Left,1,68,80,702.0,1.989583,Half,G#4_F4
2714,Right,0,73,80,702.0,3.989583,Whole,C#5
2717,Right,0,83,80,703.0,1.989583,Half,B5
2718,Left,1,66,80,704.0,1.989583,Half,F#4_A4
2720,Right,0,81,80,705.0,0.989583,Quarter,A5
2721,Right,0,80,80,706.0,0.239583,Sixteenth,G#5
2722,Right,0,81,80,706.125,0.239583,Sixteenth,A5
2723,Right,0,83,80,706.25,0.239583,Sixteenth,B5
2724,Right,0,81,80,706.375,0.114583,ThirtySecond,A5
2725,Right,0,80,80,706.5,0.489583,Eighth,G#5
2726,Right,0,78,80,707.0,0.489583,Eighth,F#5
2727,Right,0,76,80,707.5,0.489583,Eighth,E5
2728,Right,0,75,80,708.0,1.989583,Half,D#5
2729,Right,0,76,80,710.0,0.989583,Quarter,E5
2730,Right,0,77,80,711.0,0.989583,Quarter,F5
2731,Right,0,78,80,712.0,0.989583,Quarter,F#5
2732,Right,0,79,80,713.0,0.989583,Quarter,G5
2733,Right,0,80,80,714.0,0.989583,Quarter,G#5
2734,Right,0,81,80,715.0,0.989583,Quarter,A5
2735,Right,0,82,80,716.0,0.989583,Quarter,A#5
2736,Right,0,83,80,717.0,1.989583,Half,B5
2738,Left,1,66,80,718.0,1.989583,Half,F#4_D#4
2737,Right,0,71,80,718.0,3.989583,Whole,B4
2740,Right,0,81,80,719.0,1.989583,Half,A5
2741,Left,1,64,80,720.0,1.989583,Half,G#4_E4
2743,Right,0,80,80,721.0,0.989583,Quarter,G#5
2744,Left,1,71,80,722.0,0.489583,Eighth,B4
2745,Left,1,69,80,722.5,0.489583,Eighth,A4
2746,Left,1,68,80,723.0,0.489583,Eighth,G#4
2747,Left,1,66,80,723.5,0.489583,Eighth,F#4
2748,Left,1,64,80,724.0,1.989583,Half,E4
2749,Right,0,59,80,726.0,0.489583,Eighth,B3
2750,Left,1,66,80,726.0,0.989583,Quarter,F#4
2751,Right,0,57,80,726.5,0.489583,Eighth,A3
2752,Right,0,56,80,727.0,0.489583,Eighth,G#3
2753,Left,1,68,80,727.0,0.989583,Quarter,G#4
2754,Right,0,54,80,727.5,0.489583,Eighth,F#3
2755,Right,0,53,80,728.0,0.989583,Quarter,F3
2756,Left,1,69,80,728.0,0.989583,Quarter,A4
2757,Left,1,70,80,729.0,0.989583,Quarter,A#4
2759,Right,0,83,80,730.0,0.489583,Eighth,B5
2758,Left,1,71,80,730.0,0.989583,Quarter,B4
2760,Right,0,81,80,730.5,0.489583,Eighth,A5
2761,Left,1,72,80,731.0,1.989583,Half,C5
2762,Right,0,80,80,731.0,0.489583,Eighth,G#5
2763,Right,0,78,80,731.5,0.489583,Eighth,F#5
2764,Left,1,61,80,732.0,3.989583,Whole,C#4
2765,Right,0,77,80,732.0,1.989583,Half,F5
2766,Left,1,73,80,733.0,1.989583,Half,C#5
2767,Right,0,86,80,734.0,2.989583,DottedHalf,G#5_F5_D6
2770,Left,1,71,80,735.0,1.989583,Half,B4
2771,Left,1,66,80,736.0,1.989583,Half,F#4
2772,Right,0,85,80,737.0,0.989583,Quarter,F#5_C#6_A5
2773,Left,1,69,80,737.0,0.989583,Quarter,A4
2776,Left,1,69,80,738.0,0.489583,Eighth,A4
2777,Left,1,68,80,738.5,0.489583,Eighth,G#4
2778,Left,1,66,80,739.0,0.489583,Eighth,F#4
2779,Left,1,64,80,739.5,0.489583,Eighth,E4
2780,Left,1,63,80,740.0,1.989583,Half,D#4
2781,Right,0,57,80,742.0,0.489583,Eighth,A3
2782,Left,1,64,80,742.0,0.989583,Quarter,E4
2783,Right,0,56,80,742.5,0.489583,Eighth,G#3
2785,Right,0,54,80,743.0,0.489583,Eighth,F#3
2784,Left,1,66,80,743.0,0.989583,Quarter,F#4
2786,Right,0,52,80,743.5,0.489583,Eighth,E3
2788,Left,1,67,80,744.0,0.989583,Quarter,G4
2787,Right,0,51,80,744.0,0.989583,Quarter,D#3
2789,Left,1,68,80,745.0,0.989583,Quarter,G#4
2790,Left,1,69,80,746.0,0.989583,Quarter,A4
2791,Right,0,81,80,746.0,0.489583,Eighth,A5
2792,Right,0,80,80,746.5,0.489583,Eighth,G#5
2794,Left,1,70,80,747.0,1.989583,Half,A#4
2793,Right,0,78,80,747.0,0.489583,Eighth,F#5
2795,Right,0,76,80,747.5,0.489583,Eighth,E5
2796,Right,0,75,80,748.0,1.989583,Half,D#5
2797,Left,1,59,80,748.0,3.989583,Whole,B3
2798,Left,1,71,80,749.0,1.989583,Half,B4
2799,Right,0,75,80,750.0,2.989583,DottedHalf,F#5_D#5_C6
2802,Left,1,69,80,751.0,1.989583,Half,A4
2803,Left,1,64,80,752.0,1.989583,Half,E4
2807,Left,1,68,80,753.0,0.989583,Quarter,G#4
2804,Right,0,83,80,753.0,0.989583,Quarter,G#5_E5_B5
2808,Left,1,56,80,754.0,0.489583,Eighth,G#3
2809,Left,1,59,80,754.5,0.489583,Eighth,B3
2810,Left,1,56,80,755.0,0.489583,Eighth,G#3
2811,Right,0,64,80,755.0,0.989583,Quarter,E4_B4
2813,Left,1,59,80,755.5,0.489583,Eighth,B3
2815,Left,1,57,80,756.0,0.489583,Eighth,A3
2814,Right,0,63,80,756.0,1.989583,Half,D#4_B4
2817,Left,1,59,80,756.5,0.489583,Eighth,B3
2818,Right,0,73,80,756.5,0.15625,TripletSixteenth,C#5
2819,Right,0,71,80,756.666667,0.15625,TripletSixteenth,B4
2820,Right,0,70,80,756.833333,0.15625,TripletSixteenth,A#4
2822,Right,0,71,80,757.0,0.489583,Eighth,B4
2821,Left,1,57,80,757.0,0.489583,Eighth,A3
2824,Left,1,59,80,757.5,0.489583,Eighth,B3
2823,Right,0,75,80,757.5,0.489583,Eighth,D#5
2825,Right,0,64,80,758.0,0.989583,Quarter,E5_E4
2827,Left,1,56,80,758.0,0.489583,Eighth,G#3
2828,Left,1,59,80,758.5,0.489583,Eighth,B3
2830,Right,0,71,80,759.0,0.989583,Quarter,E4_B4
2829,Left,1,56,80,759.0,0.489583,Eighth,G#3
2832,Left,1,59,80,759.5,0.489583,Eighth,B3
2834,Right,0,63,80,760.0,1.989583,Half,D#4_B4
2833,Left,1,57,80,760.0,0.489583,Eighth,A3
2837,Right,0,73,80,760.5,0.15625,TripletSixteenth,C#5
2836,Left,1,59,80,760.5,0.489583,Eighth,B3
2838,Right,0,71,80,760.666667,0.15625,TripletSixteenth,B4
2839,Right,0,70,80,760.833333,0.15625,TripletSixteenth,A#4
2841,Right,0,71,80,761.0,0.489583,Eighth,B4
2840,Left,1,57,80,761.0,0.489583,Eighth,A3
2843,Right,0,75,80,761.5,0.489583,Eighth,D#5
2842,Left,1,59,80,761.5,0.489583,Eighth,B3
2844,Left,1,56,80,762.0,0.489583,Eighth,G#3
2845,Right,0,76,80,762.0,0.989583,Quarter,E5_E4
2847,Left,1,59,80,762.5,0.489583,Eighth,B3
2849,Right,0,77,80,763.0,0.989583,Quarter,F5_F4
2848,Left,1,56,80,763.0,0.489583,Eighth,G#3
2851,Left,1,59,80,763.5,0.489583,Eighth,B3
2853,Right,0,78,80,764.0,0.989583,Quarter,F#5_F#4
2852,Left,1,57,80,764.0,0.489583,Eighth,A3
2855,Left,1,61,80,764.5,0.489583,Eighth,C#4
2856,Left,1,57,80,765.0,0.489583,Eighth,A3
2857,Right,0,80,80,765.0,0.989583,Quarter,G#5_G#4
2859,Left,1,61,80,765.5,0.489583,Eighth,C#4
2861,Right,0,69,80,766.0,0.989583,Quarter,A5_A4
2860,Left,1,59,80,766.0,0.489583,Eighth,B3
2863,Left,1,63,80,766.5,0.489583,Eighth,D#4
2864,Left,1,59,80,767.0,0.489583,Eighth,B3
2865,Right,0,71,80,767.0,0.989583,Quarter,B5_B4
2867,Left,1,63,80,767.5,0.489583,Eighth,D#4
2868,Left,1,52,80,768.0,2.989583,DottedHalf,E3
2869,Right,0,81,80,768.0,1.989583,Half,A5_A4
2871,Left,1,59,80,768.5,0.489583,Eighth,B3
2872,Left,1,63,80,769.0,0.489583,Eighth,D#4
2873,Left,1,59,80,769.5,0.489583,Eighth,B3
2874,Right,0,68,80,770.0,0.989583,Quarter,G#5_G#4
2875,Left,1,64,80,770.0,0.489583,Eighth,E4
2877,Left,1,59,80,770.5,0.489583,Eighth,B3
2878,Left,1,64,80,771.0,0.989583,Eighth,G#3_E4
2880,Right,0,71,80,771.0,0.989583,Quarter,B5_B4
2882,Left,1,59,80,771.5,0.489583,Eighth,B3
2883,Left,1,57,80,772.0,1.989583,Eighth,F#4_A3
2884,Right,0,75,80,772.0,1.989583,Half,D#5_B5
2888,Right,0,85,80,772.5,0.15625,TripletSixteenth,C#6
2887,Left,1,59,80,772.5,0.489583,Eighth,B3
2889,Right,0,83,80,772.666667,0.15625,TripletSixteenth,B5
2890,Right,0,82,80,772.833333,0.15625,TripletSixteenth,A#5
2892,Left,1,57,80,773.0,0.489583,Eighth,A3
2891,Right,0,83,80,773.0,0.489583,Eighth,B5
2894,Left,1,59,80,773.5,0.489583,Eighth,B3
2893,Right,0,87,80,773.5,0.489583,Eighth,D#6
2895,Left,1,64,80,774.0,0.989583,Quarter,G#3_E4
2897,Right,0,88,80,774.0,0.989583,Quarter,E6_E5
2899,Left,1,59,80,774.5,0.489583,Eighth,B3
2900,Right,0,83,80,775.0,0.989583,Quarter,B5_B4
2901,Left,1,56,80,775.0,0.989583,Eighth,G#3_E4
2904,Left,1,59,80,775.5,0.489583,Eighth,B3
2906,Right,0,75,80,776.0,1.989583,Half,D#5_B5
2905,Left,1,66,80,776.0,1.989583,Half,F#4_A3
2909,Right,0,85,80,776.5,0.15625,TripletSixteenth,C#6
2910,Left,1,59,80,776.5,0.489583,Eighth,B3
2911,Right,0,83,80,776.666667,0.15625,TripletSixteenth,B5
2912,Right,0,82,80,776.833333,0.15625,TripletSixteenth,A#5
2914,Right,0,83,80,777.0,0.489583,Eighth,B5
2913,Left,1,57,80,777.0,0.489583,Eighth,A3
2915,Right,0,87,80,777.5,0.489583,Eighth,D#6
2916,Left,1,59,80,777.5,0.489583,Eighth,B3
2918,Left,1,64,80,778.0,0.989583,Eighth,G#3_E4
2917,Right,0,76,80,778.0,0.989583,Quarter,E6_E5
2921,Left,1,59,80,778.5,0.489583,Eighth,B3
2922,Left,1,65,80,779.0,0.989583,Eighth,G#3_F4
2924,Right,0,77,80,779.0,0.989583,Quarter,F6_F5
2926,Left,1,59,80,779.5,0.489583,Eighth,B3
2929,Left,1,57,80,780.0,0.989583,Eighth,F#4_A3
2927,Right,0,78,80,780.0,0.989583,Quarter,F#6_F#5
2931,Left,1,61,80,780.5,0.489583,Eighth,C#4
2932,Right,0,80,80,781.0,0.989583,Quarter,G#6_G#5
2934,Left,1,57,80,781.0,0.489583,Eighth,A3
2935,Left,1,61,80,781.5,0.489583,Eighth,C#4
2936,Left,1,47,80,782.0,0.989583,Quarter,F#3_B2
2937,Right,0,81,80,782.0,0.989583,Quarter,A6_A5
2940,Left,1,57,80,782.5,0.489583,Eighth,A3
2941,Left,1,54,80,783.0,0.989583,Eighth,F#3_B2
2943,Right,0,75,80,783.0,0.989583,Quarter,D#6_D#5
2945,Left,1,57,80,783.5,0.489583,Eighth,A3
2946,Left,1,56,80,784.0,0.989583,Quarter,G#3_E3
2947,Right,0,88,80,784.0,0.989583,Quarter,E6_E5
2950,Right,0,64,110,785.0,1.989583,Quarter,G#4_E4_B4
2953,Right,0,72,110,786.0,2.989583,DottedHalf,C5_A4
2955,Right,0,63,110,787.0,0.989583,Quarter,D#4
2956,Left,1,47,110,787.5,0.15625,TripletSixteenth,B2
2957,Left,1,49,110,787.666667,0.15625,TripletSixteenth,C#3
2958,Left,1,51,110,787.833333,0.15625,TripletSixteenth,D#3
2959,Left,1,52,110,788.0,0.989583,Quarter,E3
2960,Right,0,64,110,788.0,2.989583,DottedHalf,E4
2961,Right,0,68,110,789.0,0.989583,Quarter,G#4_B4
2963,Right,0,73,110,790.0,2.989583,DottedHalf,C#5_A4
2965,Right,0,63,110,791.0,0.989583,Quarter,D#4
2966,Left,1,35,110,791.5,0.15625,TripletSixteenth,B1
2967,Left,1,37,110,791.666667,0.15625,TripletSixteenth,C#2
2968,Left,1,39,110,791.833333,0.15625,TripletSixteenth,D#2
2969,Left,1,40,110,792.0,0.989583,Quarter,E2
2970,Right,0,64,110,792.0,2.989583,DottedHalf,E4
2971,Right,0,68,110,793.0,0.989583,Quarter,G#4_B4
2973,Right,0,69,110,794.0,2.989583,DottedHalf,C5_A4
2975,Right,0,63,110,795.0,0.989583,Quarter,D#4
2976,Left,1,47,110,795.5,0.15625,TripletSixteenth,B2
2977,Left,1,49,110,795.666667,0.15625,TripletSixteenth,C#3
2978,Left,1,51,110,795.833333,0.15625,TripletSixteenth,D#3
2979,Right,0,64,110,796.0,2.989583,DottedHalf,E4
2980,Left,1,52,110,796.0,0.989583,Quarter,E3
2981,Right,0,68,110,797.0,0.989583,Quarter,G#4_B4
2983,Right,0,69,110,798.0,2.989583,DottedHalf,C#5_A4
2985,Right,0,63,110,799.0,0.989583,Quarter,D#4
2986,Left,1,35,110,799.5,0.15625,TripletSixteenth,B1
2987,Left,1,37,110,799.666667,0.15625,TripletSixteenth,C#2
2988,Left,1,39,110,799.833333,0.15625,TripletSixteenth,D#2
2989,Left,1,40,110,800.0,0.989583,Quarter,E2
2990,Right,0,64,110,800.0,0.989583,Quarter,E4
2991,Right,0,68,80,801.0,0.989583,Quarter,G#4_B4
2992,Left,1,52,80,801.0,0.989583,Quarter,E3_B3
2997,Left,1,59,80,802.0,0.989583,Quarter,F#3_B3
2995,Right,0,75,80,802.0,0.989583,Quarter,D#5_A4
3000,Left,1,59,80,803.0,0.989583,Quarter,G#3_B3
2999,Right,0,76,80,803.0,0.989583,Quarter,E5_B4
3006,Right,0,69,80,804.0,1.989583,Half,G#5_C#5_A4
3003,Left,1,57,80,804.0,1.989583,Half,F#4_C#4_A3
3009,Right,0,78,80,805.5,0.489583,Eighth,F#5
3012,Right,0,71,80,806.0,0.989583,Quarter,E5_B4
3010,Left,1,59,80,806.0,0.989583,Quarter,G#4_B3
3014,Right,0,75,80,807.0,0.989583,Quarter,D#5_B4
3015,Left,1,66,80,807.0,0.989583,Quarter,F#4_B3
3018,Right,0,71,80,808.0,0.989583,Quarter,B4
3019,Right,0,76,86,809.0,0.989583,Quarter,E5_B4
3021,Left,1,59,86,809.0,0.989583,Quarter,G#3_B3
3025,Left,1,63,93,810.0,0.989583,Quarter,F#3_D#4
3023,Right,0,78,93,810.0,0.989583,Quarter,F#5_B4
3028,Right,0,71,99,811.0,0.989583,Quarter,G#5_B4
3027,Left,1,64,99,811.0,0.989583,Quarter,E4_E3
3031,Left,1,68,110,812.0,1.989583,DottedQuarter,G#4_A3
3032,Right,0,73,110,812.0,1.989583,Half,C#5_B5
3036,Right,0,81,110,813.5,0.489583,Eighth,A5
3035,Left,1,66,110,813.5,0.489583,Eighth,F#4
3037,Right,0,71,110,814.0,0.989583,Quarter,G#5_B4
3039,Left,1,64,110,814.0,0.989583,Quarter,E4_B3
3042,Right,0,78,110,815.0,0.989583,Quarter,F#5_B4
3041,Left,1,59,110,815.0,0.989583,Quarter,D#4_B3
3045,Right,0,71,120,816.0,0.989583,Quarter,B5_B4
3050,Right,0,76,120,817.0,0.989583,Quarter,E5_B5_B4
3047,Left,1,64,120,817.0,0.989583,Quarter,G#3_E4_B3
3053,Right,0,75,120,818.0,0.989583,Quarter,F#5_D#5_B5_B4
3057,Left,1,63,120,818.0,0.989583,Quarter,F#3_D#4_A3
3060,Right,0,76,120,819.0,0.989583,Quarter,G#5_E5_B5_B4
3061,Left,1,52,120,819.0,0.989583,Quarter,G#3_E4_E3_B3
3068,Right,0,72,120,820.0,0.989583,Quarter,C6_C5
3070,Left,1,49,120,820.0,0.989583,Quarter,F#3_C#3_A3_A2
3074,Right,0,73,120,821.0,0.989583,Quarter,C#6_C#5
3076,Left,1,47,80,824.0,0.989583,Quarter,B2_B1
3078,Right,0,63,80,825.0,0.989583,Quarter,D#4_A3
3080,Left,1,40,70,828.0,1.989583,Half,E2
3081,Right,0,64,70,828.5,0.489583,Eighth,G#3_E4_E3
3084,Right,0,52,70,829.0,0.489583,Eighth,G#3_E4_E3
3087,Right,0,56,70,829.5,0.489583,Eighth,G#3_E4_E3
3090,Left,1,45,70,830.0,1.989583,Half,A2
3091,Right,0,61,70,830.5,0.489583,Eighth,E4_E3_C#4
3094,Right,0,52,70,831.0,0.489583,Eighth,E4_E3_C#4
3097,Right,0,52,70,831.5,0.489583,Eighth,E4_E3_C#4
3100,Left,1,44,70,832.0,1.989583,Half,G#2
3101,Right,0,64,70,832.5,0.489583,Eighth,E4_E3_B3
3104,Right,0,64,70,833.0,0.489583,Eighth,E4_E3_B3
3107,Right,0,52,70,833.5,0.489583,Eighth,E4_E3_B3
3110,Left,1,49,70,834.0,1.989583,Half,C#3
3111,Right,0,64,70,834.5,0.489583,Eighth,E4_E3_A3
3114,Right,0,64,70,835.0,0.489583,Eighth,E4_E3_A3
3117,Right,0,64,70,835.5,0.489583,Eighth,E4_E3_A3
3120,Left,1,47,70,836.0,1.989583,Half,B2
3121,Right,0,64,70,836.5,0.489583,Eighth,G#3_E4_E3
3124,Right,0,52,70,837.0,0.489583,Eighth,G#3_E4_E3
3127,Right,0,52,70,837.5,0.489583,Eighth,G#3_E4_E3
3130,Left,1,45,70,838.0,1.989583,Half,A2
3131,Right,0,64,70,838.5,0.489583,Eighth,E4_E3_C#4
3134,Right,0,64,70,839.0,0.489583,Eighth,E4_E3_C#4
3137,Right,0,52,70,839.5,0.489583,Eighth,E4_E3_C#4
3140,Left,1,44,70,840.0,1.989583,Half,G#2
3141,Right,0,64,70,840.5,0.489583,Eighth,E4_E3_B3
3144,Right,0,59,70,841.0,0.489583,Eighth,E4_E3_B3
3147,Right,0,64,70,841.5,0.489583,Eighth,E4_E3_B3
3150,Left,1,41,100,842.0,1.989583,Half,F2_F1
3152,Right,0,64,70,842.5,0.489583,Eighth,E4_E3_D#4_A3
3156,Right,0,63,70,843.0,0.489583,Eighth,E4_E3_D#4_A3
3160,Right,0,64,70,843.5,0.489583,Eighth,E4_E3_D#4_A3
3164,Left,1,40,70,844.0,1.989583,Half,E2_E1
3166,Right,0,56,70,844.5,0.489583,Eighth,G#3_E4_E3
3169,Right,0,52,70,845.0,0.489583,Eighth,G#3_E4_E3
3172,Right,0,56,70,845.5,0.489583,Eighth,G#3_E4_E3
3175,Left,1,30,100,846.0,1.989583,Half,F#2_F#1
3177,Right,0,63,70,846.5,0.489583,Eighth,E4_E3_D#4_A3
3181,Right,0,64,70,847.0,0.489583,Eighth,E4_E3_D#4_A3
3185,Right,0,64,70,847.5,0.489583,Eighth,E4_E3_D#4_A3
3189,Left,1,28,70,848.0,1.989583,Half,E2_E1
3191,Right,0,64,70,848.5,0.489583,Eighth,G#3_E4_E3
3194,Right,0,52,70,849.0,0.489583,Eighth,G#3_E4_E3
3197,Right,0,56,70,849.5,0.489583,Eighth,G#3_E4_E3
3200,Left,1,41,100,850.0,1.989583,Half,F2_F1
3202,Right,0,64,70,850.5,0.489583,Eighth,E4_E3_D#4_A3
3206,Right,0,57,70,851.0,0.489583,Eighth,E4_E3_D#4_A3
3210,Right,0,52,70,851.5,0.489583,Eighth,E4_E3_D#4_A3
3214,Left,1,28,70,852.0,1.989583,Half,E2_E1
3216,Right,0,64,70,852.5,0.489583,Eighth,G#3_E4_E3
3219,Right,0,52,70,853.0,0.489583,Eighth,G#3_E4_E3
3222,Right,0,64,70,853.5,0.489583,Eighth,G#3_E4_E3
3225,Left,1,42,100,854.0,1.989583,Half,F#2_F#1
3227,Right,0,52,70,854.5,0.489583,Eighth,E4_E3_D#4_A3
3231,Right,0,63,70,855.0,0.489583,Eighth,E4_E3_D#4_A3
3235,Right,0,57,70,855.5,0.489583,Eighth,E4_E3_D#4_A3
3239,Right,0,64,80,856.0,1.989583,Half,E4
3242,Left,1,40,80,856.5,0.489583,Eighth,E2
3240,Right,0,59,80,856.5,0.489583,Eighth,G#3_B3
3243,Right,0,59,80,857.0,0.489583,Eighth,G#3_B3
3245,Left,1,40,80,857.0,0.489583,Eighth,E2
3246,Right,0,59,80,857.5,0.489583,Eighth,G#3_B3
3248,Left,1,40,80,857.5,0.489583,Eighth,E2
3249,Right,0,69,80,858.0,1.989583,Half,A4
3250,Left,1,51,80,858.5,0.489583,Eighth,E2_D#3
3251,Right,0,66,80,858.5,0.489583,Eighth,F#4_B3
3254,Left,1,40,80,859.0,0.489583,Eighth,E2_D#3
3256,Right,0,59,80,859.0,0.489583,Eighth,F#4_B3
3260,Left,1,40,80,859.5,0.489583,Eighth,E2_D#3
3258,Right,0,59,80,859.5,0.489583,Eighth,F#4_B3
3262,Right,0,68,80,860.0,1.989583,Half,G#4
3265,Right,0,59,80,860.5,0.489583,Eighth,E4_B3
3263,Left,1,52,80,860.5,0.489583,Eighth,E3_E2
3269,Right,0,59,80,861.0,0.489583,Eighth,E4_B3
3267,Left,1,52,80,861.0,0.489583,Eighth,E3_E2
3273,Right,0,59,80,861.5,0.489583,Eighth,E4_B3
3271,Left,1,52,80,861.5,0.489583,Eighth,E3_E2
3275,Right,0,75,80,862.0,1.989583,Half,D#5
3276,Left,1,40,80,862.5,0.489583,Eighth,F#3_E2_A2
3279,Right,0,71,80,862.5,0.489583,Eighth,D#4_B4
3283,Right,0,71,80,863.0,0.489583,Eighth,D#4_B4
3281,Left,1,45,80,863.0,0.489583,Eighth,F#3_E2_A2
3286,Right,0,71,80,863.5,0.489583,Eighth,D#4_B4
3288,Left,1,54,80,863.5,0.489583,Eighth,F#3_E2_A2
3291,Right,0,76,80,864.0,1.989583,Half,E5
3292,Right,0,71,80,864.5,0.489583,Eighth,G#4_B4
3293,Left,1,40,80,864.5,0.489583,Eighth,E2
3297,Left,1,40,80,865.0,0.489583,Eighth,E2
3295,Right,0,71,80,865.0,0.489583,Eighth,G#4_B4
3298,Right,0,68,80,865.5,0.489583,Eighth,G#4_B4
3300,Left,1,40,80,865.5,0.489583,Eighth,E2
3301,Right,0,81,80,866.0,1.989583,Half,A5
3304,Left,1,40,80,866.5,0.489583,Eighth,E2_D#3
3302,Right,0,78,80,866.5,0.489583,Eighth,F#5_B4
3306,Right,0,71,80,867.0,0.489583,Eighth,F#5_B4
3307,Left,1,51,80,867.0,0.489583,Eighth,E2_D#3
3310,Right,0,71,80,867.5,0.489583,Eighth,F#5_B4
3311,Left,1,51,80,867.5,0.489583,Eighth,E2_D#3
3314,Right,0,80,80,868.0,1.989583,Half,G#5
3315,Right,0,71,80,868.5,0.489583,Eighth,E5_B4
3316,Left,1,52,80,868.5,0.489583,Eighth,E3_E2
3319,Right,0,71,80,869.0,0.489583,Eighth,E5_B4
3321,Left,1,40,80,869.0,0.489583,Eighth,E3_E2
3325,Right,0,76,80,869.5,0.489583,Eighth,E5_B4
3323,Left,1,40,80,869.5,0.489583,Eighth,E3_E2
3327,Right,0,87,80,870.0,1.989583,Half,D#6
3328,Left,1,40,80,870.5,0.489583,Eighth,F#3_E2_A2
3329,Right,0,75,80,870.5,0.489583,Eighth,D#5_B5
3333,Right,0,75,80,871.0,0.489583,Eighth,D#5_B5
3335,Left,1,40,80,871.0,0.489583,Eighth,F#3_E2_A2
3338,Right,0,83,80,871.5,0.489583,Eighth,D#5_B5
3339,Left,1,40,80,871.5,0.489583,Eighth,F#3_E2_A2
3343,Right,0,88,80,872.0,1.989583,Half,E6
3346,Left,1,52,80,872.5,0.489583,Eighth,G#2_E3_E2
3344,Right,0,76,80,872.5,0.489583,Eighth,E5_B5
3351,Left,1,44,79,873.0,0.489583,Eighth,G#2_E3_E2
3349,Right,0,76,79,873.0,0.489583,Eighth,E5_B5
3355,Left,1,40,79,873.5,0.489583,Eighth,G#2_E3_E2
3354,Right,0,83,79,873.5,0.489583,Eighth,E5_B5
3359,Right,0,87,78,874.0,1.989583,Half,D#6
3360,Left,1,45,77,874.5,0.489583,Eighth,F#3_E2_A2
3362,Right,0,75,77,874.5,0.489583,Eighth,D#5_B5
3368,Right,0,75,77,875.0,0.489583,Eighth,D#5_B5
3365,Left,1,54,77,875.0,0.489583,Eighth,F#3_E2_A2
3370,Left,1,54,76,875.5,0.489583,Eighth,F#3_E2_A2
3373,Right,0,83,76,875.5,0.489583,Eighth,D#5_B5
3375,Right,0,88,75,876.0,1.989583,Half,E6
3376,Left,1,44,75,876.5,0.489583,Eighth,G#2_E3_E2
3378,Right,0,83,75,876.5,0.489583,Eighth,E5_B5
3381,Left,1,52,74,877.0,0.489583,Eighth,G#2_E3_E2
3384,Right,0,83,74,877.0,0.489583,Eighth,E5_B5
3386,Left,1,52,73,877.5,0.489583,Eighth,G#2_E3_E2
3388,Right,0,83,73,877.5,0.489583,Eighth,E5_B5
3391,Right,0,87,73,878.0,1.989583,Half,D#6
3394,Right,0,83,72,878.5,0.489583,Eighth,D#5_B5
3392,Left,1,45,72,878.5,0.489583,Eighth,F#3_E2_A2
3398,Left,1,54,71,879.0,0.489583,Eighth,F#3_E2_A2
3397,Right,0,83,71,879.0,0.489583,Eighth,D#5_B5
3402,Right,0,83,71,879.5,0.489583,Eighth,D#5_B5
3404,Left,1,54,71,879.5,0.489583,Eighth,F#3_E2_A2
3407,Right,0,88,70,880.0,1.989583,Half,E6
3408,Left,1,44,70,880.5,0.489583,Eighth,G#2_E3_E2_B2
3411,Right,0,83,70,880.5,0.489583,Eighth,G#5_E5_B5
3415,Left,1,40,70,881.0,0.489583,Eighth,G#2_E3_E2_B2
3419,Right,0,76,70,881.0,0.489583,Eighth,G#5_E5_B5
3425,Left,1,52,70,881.5,0.489583,Eighth,G#2_E3_E2_B2
3422,Right,0,76,70,881.5,0.489583,Eighth,G#5_E5_B5
3429,Right,0,88,70,882.0,1.989583,Half,E6
3430,Left,1,44,70,882.5,0.489583,Eighth,G#2_E3_E2_B2
3434,Right,0,80,70,882.5,0.489583,Eighth,G#5_E5_B5
3437,Right,0,76,70,883.0,0.489583,Eighth,G#5_E5_B5
3438,Left,1,40,70,883.0,0.489583,Eighth,G#2_E3_E2_B2
3446,Right,0,80,70,883.5,0.489583,Eighth,G#5_E5_B5
3444,Left,1,47,70,883.5,0.489583,Eighth,G#2_E3_E2_B2
3451,Right,0,88,70,884.0,3.989583,Whole,E6
3452,Left,1,52,70,885.0,2.989583,DottedHalf,G#2_E3_E2_B2
3454,Right,0,76,70,885.0,2.989583,DottedHalf,G#5_E5_B5
