,hand,channel,note,velocity,start_beat,duration,note_value,chord
0,Right,0,62,80,0.25,0.239583,Sixteenth,D4
1,Right,0,74,80,0.5,0.239583,Sixteenth,D5
2,Right,0,70,80,0.75,0.239583,Sixteenth,A#4
3,Right,0,71,80,1.0,0.239583,Sixteenth,B4
4,Right,0,66,80,1.25,0.239583,Sixteenth,F#4
5,Right,0,67,80,1.5,0.739583,DottedEighth,G4
6,Left,1,43,80,1.5,1.489583,DottedQuarter,G2
7,Left,1,47,80,1.75,1.239583,TiedQuarter-Sixteenth,B2
8,Left,1,50,80,2.0,0.989583,Quarter,D3
9,Right,0,62,80,2.25,0.239583,Sixteenth,D4
10,Right,0,74,80,2.5,0.239583,Sixteenth,D5
11,Right,0,70,80,2.75,0.239583,Sixteenth,A#4
12,Right,0,71,80,3.0,0.239583,Sixteenth,B4
13,Right,0,66,80,3.25,0.239583,Sixteenth,F#4
14,Right,0,67,80,3.5,0.739583,DottedEighth,G4
15,Left,1,55,80,3.5,1.489583,DottedQuarter,G3
16,Left,1,59,80,3.75,1.239583,TiedQuarter-Sixteenth,B3
17,Left,1,62,80,4.0,0.989583,Quarter,D4
18,Right,0,64,80,4.25,0.239583,Sixteenth,E4
19,Right,0,76,80,4.5,0.239583,Sixteenth,E5
20,Right,0,71,80,4.75,0.239583,Sixteenth,B4
21,Right,0,72,80,5.0,0.239583,Sixteenth,C5
22,Right,0,68,80,5.25,0.239583,Sixteenth,G#4
24,Right,0,69,80,5.5,0.739583,DottedEighth,A4
23,Left,1,43,80,5.5,1.489583,DottedQuarter,G2
25,Left,1,48,80,5.75,1.239583,TiedQuarter-Sixteenth,C3
26,Left,1,52,80,6.0,0.989583,Quarter,E3
27,Right,0,64,80,6.25,0.239583,Sixteenth,E4
28,Right,0,76,80,6.5,0.239583,Sixteenth,E5
29,Right,0,71,80,6.75,0.239583,Sixteenth,B4
30,Right,0,72,80,7.0,0.239583,Sixteenth,C5
31,Right,0,68,80,7.25,0.239583,Sixteenth,G#4
33,Right,0,69,80,7.5,0.739583,DottedEighth,A4
32,Left,1,55,80,7.5,1.489583,DottedQuarter,G3
34,Left,1,60,80,7.75,1.239583,TiedQuarter-Sixteenth,C4
35,Left,1,64,80,8.0,0.989583,Quarter,E4
36,Right,0,69,80,8.25,0.239583,Sixteenth,A4
37,Right,0,84,80,8.5,0.239583,Sixteenth,C6
38,Right,0,83,80,8.75,0.239583,Sixteenth,B5
39,Right,0,81,80,9.0,0.739583,DottedEighth,A5
40,Left,1,54,80,9.25,0.239583,Sixteenth,F#3
41,Left,1,57,80,9.5,0.239583,Sixteenth,A3
42,Right,0,79,80,9.75,0.239583,Sixteenth,G5
43,Left,1,62,80,9.75,0.239583,Sixteenth,D4
44,Right,0,78,80,10.0,0.239583,Sixteenth,F#5
46,Right,0,76,80,10.25,0.239583,Sixteenth,E5
45,Left,1,50,80,10.25,0.239583,Sixteenth,D3
48,Left,1,57,80,10.5,0.239583,Sixteenth,A3
47,Right,0,74,80,10.5,0.239583,Sixteenth,D5
50,Right,0,72,80,10.75,0.239583,Sixteenth,C5
49,Left,1,60,80,10.75,0.239583,Sixteenth,C4
51,Right,0,74,80,11.0,0.052083,SixtyFourth,D5
52,Right,0,72,80,11.0625,0.177083,TripletSixteenth,C5
54,Right,0,71,80,11.25,0.489583,Eighth,B4
53,Left,1,55,80,11.25,0.239583,Sixteenth,G3
55,Left,1,59,80,11.5,0.239583,Sixteenth,B3
57,Right,0,79,80,11.75,0.239583,Sixteenth,G5
56,Left,1,62,80,11.75,0.239583,Sixteenth,D4
58,Right,0,79,80,12.0,0.239583,Sixteenth,G5
60,Right,0,69,80,12.25,0.489583,Eighth,A4
59,Left,1,48,80,12.25,0.239583,Sixteenth,C3
61,Left,1,52,80,12.5,0.239583,Sixteenth,E3
63,Right,0,76,80,12.75,0.239583,Sixteenth,E5
62,Left,1,57,80,12.75,0.239583,Sixteenth,A3
64,Right,0,76,80,13.0,0.239583,Sixteenth,E5
65,Right,0,67,80,13.25,0.489583,Eighth,G4
66,Left,1,50,80,13.25,0.239583,Sixteenth,D3
67,Left,1,55,80,13.5,0.239583,Sixteenth,G3
68,Right,0,74,80,13.75,0.239583,Sixteenth,D5
69,Left,1,59,80,13.75,0.239583,Sixteenth,B3
70,Right,0,74,80,14.0,0.239583,Sixteenth,D5
71,Right,0,60,80,14.25,0.489583,Eighth,C4
72,Left,1,38,80,14.25,0.239583,Sixteenth,D2
73,Left,1,45,80,14.5,0.239583,Sixteenth,A2
75,Right,0,66,80,14.75,0.239583,Sixteenth,F#4
74,Left,1,50,80,14.75,0.239583,Sixteenth,D3
78,Left,1,43,80,15.0,0.239583,Sixteenth,G2
76,Right,0,67,80,15.0,0.989583,Quarter,G4_B3
79,Left,1,47,80,15.25,0.239583,Sixteenth,B2
80,Left,1,50,80,15.5,0.239583,Sixteenth,D3
81,Left,1,47,80,15.75,0.239583,Sixteenth,B2
82,Left,1,43,80,16.0,0.239583,Sixteenth,G2
83,Left,1,47,80,16.25,0.239583,Sixteenth,B2
85,Left,1,50,80,16.5,0.239583,Sixteenth,D3
84,Right,0,74,80,16.5,0.489583,Eighth,D5
86,Left,1,47,80,16.75,0.239583,Sixteenth,B2
88,Left,1,43,80,17.0,0.239583,Sixteenth,G2
87,Right,0,74,80,17.0,0.489583,Eighth,D5
89,Left,1,47,80,17.25,0.239583,Sixteenth,B2
91,Left,1,50,80,17.5,0.239583,Sixteenth,D3
90,Right,0,74,85,17.5,0.489583,Eighth,D5
92,Left,1,47,80,17.75,0.239583,Sixteenth,B2
93,Right,0,74,91,18.0,0.489583,Eighth,D5
94,Left,1,43,80,18.0,0.239583,Sixteenth,G2
95,Left,1,47,80,18.25,0.239583,Sixteenth,B2
97,Left,1,50,80,18.5,0.239583,Sixteenth,D3
96,Right,0,74,97,18.5,0.239583,Sixteenth,D5
98,Right,0,76,98,18.625,0.239583,Sixteenth,E5
99,Right,0,73,99,18.75,0.239583,Sixteenth,C#5
100,Left,1,47,80,18.75,0.239583,Sixteenth,B2
101,Right,0,74,100,18.875,0.239583,Sixteenth,D5
102,Left,1,45,80,19.0,0.239583,Sixteenth,A2
103,Right,0,76,100,19.0,0.989583,Quarter,E5
104,Left,1,48,80,19.25,0.239583,Sixteenth,C3
105,Left,1,54,80,19.5,0.239583,Sixteenth,F#3
106,Left,1,48,80,19.75,0.239583,Sixteenth,C3
107,Left,1,45,80,20.0,0.239583,Sixteenth,A2
108,Right,0,74,80,20.0,0.489583,Eighth,D5
109,Left,1,48,80,20.25,0.239583,Sixteenth,C3
110,Left,1,54,80,20.5,0.239583,Sixteenth,F#3
111,Left,1,48,80,20.75,0.239583,Sixteenth,C3
112,Left,1,45,80,21.0,0.239583,Sixteenth,A2
113,Left,1,48,80,21.25,0.239583,Sixteenth,C3
114,Left,1,54,80,21.5,0.239583,Sixteenth,F#3
116,Left,1,48,80,21.75,0.239583,Sixteenth,C3
115,Right,0,74,83,21.75,0.239583,Sixteenth,D5
118,Left,1,45,80,22.0,0.239583,Sixteenth,A2
117,Right,0,74,87,22.0,0.239583,Sixteenth,D5
120,Left,1,48,80,22.25,0.239583,Sixteenth,C3
119,Right,0,74,91,22.25,0.239583,Sixteenth,D5
121,Left,1,54,80,22.5,0.239583,Sixteenth,F#3
122,Right,0,74,95,22.5,0.239583,Sixteenth,D5
123,Right,0,74,99,22.75,0.239583,Sixteenth,D5
124,Left,1,48,80,22.75,0.239583,Sixteenth,C3
125,Right,0,76,100,23.0,0.989583,Quarter,E5
126,Left,1,47,80,23.0,0.239583,Sixteenth,B2
127,Left,1,50,80,23.25,0.239583,Sixteenth,D3
128,Left,1,55,80,23.5,0.239583,Sixteenth,G3
129,Left,1,50,80,23.75,0.239583,Sixteenth,D3
130,Left,1,47,80,24.0,0.239583,Sixteenth,B2
131,Right,0,74,80,24.0,0.489583,Eighth,D5
132,Left,1,50,80,24.25,0.239583,Sixteenth,D3
133,Left,1,55,80,24.5,0.239583,Sixteenth,G3
134,Left,1,50,80,24.75,0.239583,Sixteenth,D3
135,Left,1,47,80,25.0,0.239583,Sixteenth,B2
136,Left,1,50,80,25.25,0.239583,Sixteenth,D3
137,Left,1,55,80,25.5,0.239583,Sixteenth,G3
138,Right,0,74,80,25.5,0.739583,DottedEighth,D5
139,Left,1,50,80,25.75,0.239583,Sixteenth,D3
140,Left,1,47,80,26.0,0.239583,Sixteenth,B2
142,Right,0,76,80,26.25,0.114583,ThirtySecond,E5
141,Left,1,50,80,26.25,0.239583,Sixteenth,D3
143,Right,0,74,80,26.375,0.114583,ThirtySecond,D5
145,Left,1,55,80,26.5,0.239583,Sixteenth,G3
144,Right,0,72,80,26.5,0.239583,Sixteenth,C5
147,Right,0,71,80,26.75,0.239583,Sixteenth,B4
146,Left,1,50,80,26.75,0.239583,Sixteenth,D3
149,Right,0,71,80,27.0,0.489583,Eighth,B4
148,Left,1,48,80,27.0,0.239583,Sixteenth,C3
150,Left,1,52,80,27.25,0.239583,Sixteenth,E3
151,Left,1,57,80,27.5,0.239583,Sixteenth,A3
152,Right,0,69,80,27.5,0.989583,Quarter,A4
153,Left,1,52,80,27.75,0.239583,Sixteenth,E3
154,Left,1,49,80,28.0,0.239583,Sixteenth,C#3
155,Left,1,52,80,28.25,0.239583,Sixteenth,E3
156,Left,1,57,80,28.5,0.239583,Sixteenth,A3
157,Right,0,67,80,28.5,0.489583,Eighth,G4
158,Left,1,52,80,28.75,0.239583,Sixteenth,E3
159,Left,1,50,80,29.0,0.239583,Sixteenth,D3
160,Right,0,66,80,29.0,0.15625,TripletSixteenth,F#4
161,Right,0,67,80,29.083333,0.15625,TripletSixteenth,G4
162,Right,0,69,80,29.166667,0.15625,TripletSixteenth,A4
163,Left,1,54,80,29.25,0.239583,Sixteenth,F#3
164,Right,0,67,80,29.25,0.239583,Sixteenth,G4
166,Left,1,57,80,29.5,0.239583,Sixteenth,A3
165,Right,0,66,80,29.5,0.989583,Quarter,F#4
167,Left,1,54,80,29.75,0.239583,Sixteenth,F#3
168,Left,1,50,80,30.0,0.239583,Sixteenth,D3
169,Left,1,54,80,30.25,0.239583,Sixteenth,F#3
171,Right,0,74,80,30.5,0.489583,Eighth,D5
170,Left,1,59,80,30.5,0.239583,Sixteenth,B3
172,Left,1,54,80,30.75,0.239583,Sixteenth,F#3
174,Right,0,74,80,31.0,0.489583,Eighth,D5
173,Left,1,52,80,31.0,0.239583,Sixteenth,E3
175,Left,1,55,80,31.25,0.239583,Sixteenth,G3
176,Left,1,59,80,31.5,0.239583,Sixteenth,B3
177,Right,0,73,80,31.5,0.989583,Quarter,C#5
178,Left,1,55,80,31.75,0.239583,Sixteenth,G3
179,Left,1,52,80,32.0,0.239583,Sixteenth,E3
180,Left,1,55,80,32.25,0.239583,Sixteenth,G3
182,Left,1,61,80,32.5,0.239583,Sixteenth,C#4
181,Right,0,71,80,32.5,0.489583,Eighth,B4
183,Left,1,55,80,32.75,0.239583,Sixteenth,G3
185,Left,1,54,80,33.0,0.239583,Sixteenth,F#3
184,Right,0,69,80,33.0,0.15625,TripletSixteenth,A4
186,Right,0,71,80,33.083333,0.15625,TripletSixteenth,B4
187,Right,0,73,80,33.166667,0.15625,TripletSixteenth,C#5
189,Left,1,57,80,33.25,0.239583,Sixteenth,A3
188,Right,0,71,80,33.25,0.239583,Sixteenth,B4
190,Left,1,61,80,33.5,0.239583,Sixteenth,C#4
191,Right,0,69,80,33.5,0.989583,Quarter,A4
192,Left,1,57,80,33.75,0.239583,Sixteenth,A3
193,Left,1,54,80,34.0,0.239583,Sixteenth,F#3
194,Left,1,57,80,34.25,0.239583,Sixteenth,A3
195,Left,1,62,80,34.5,0.239583,Sixteenth,D4
196,Right,0,78,80,34.5,0.489583,Eighth,F#5
197,Left,1,57,80,34.75,0.239583,Sixteenth,A3
199,Right,0,78,80,35.0,0.489583,Eighth,F#5
198,Left,1,55,80,35.0,0.239583,Sixteenth,G3
200,Left,1,59,80,35.25,0.239583,Sixteenth,B3
201,Left,1,64,80,35.5,0.239583,Sixteenth,E4
202,Right,0,76,80,35.5,0.989583,Quarter,E5
203,Left,1,59,80,35.75,0.239583,Sixteenth,B3
204,Left,1,56,80,36.0,0.239583,Sixteenth,G#3
205,Left,1,59,80,36.25,0.239583,Sixteenth,B3
206,Left,1,64,80,36.5,0.239583,Sixteenth,E4
207,Right,0,74,80,36.5,0.489583,Eighth,D5
208,Left,1,59,80,36.75,0.239583,Sixteenth,B3
209,Right,0,74,80,37.0,0.489583,Eighth,D5
210,Left,1,57,80,37.0,0.239583,Sixteenth,A3
211,Left,1,64,80,37.25,0.239583,Sixteenth,E4
213,Right,0,73,80,37.5,0.989583,Quarter,C#5
212,Left,1,69,80,37.5,0.239583,Sixteenth,A4
214,Left,1,64,80,37.75,0.239583,Sixteenth,E4
215,Left,1,57,80,38.0,0.239583,Sixteenth,A3
216,Left,1,62,80,38.25,0.239583,Sixteenth,D4
217,Right,0,71,80,38.5,0.489583,Eighth,B4
218,Left,1,68,80,38.5,0.239583,Sixteenth,G#4
219,Left,1,62,80,38.75,0.239583,Sixteenth,D4
220,Right,0,71,80,39.0,0.489583,Eighth,B4
221,Left,1,57,80,39.0,0.239583,Sixteenth,A3
222,Left,1,61,80,39.25,0.239583,Sixteenth,C#4
224,Right,0,69,80,39.5,0.489583,Eighth,A4
223,Left,1,64,80,39.5,0.239583,Sixteenth,E4
225,Left,1,61,80,39.75,0.239583,Sixteenth,C#4
226,Left,1,57,80,40.0,0.239583,Sixteenth,A3
227,Right,0,74,80,40.166667,0.15625,TripletSixteenth,D5
228,Left,1,64,80,40.25,0.239583,Sixteenth,E4
229,Right,0,76,80,40.333333,0.15625,TripletSixteenth,E5
231,Right,0,78,80,40.5,0.15625,TripletSixteenth,F#5
230,Left,1,68,80,40.5,0.239583,Sixteenth,G#4
232,Right,0,76,80,40.666667,0.15625,TripletSixteenth,E5
233,Left,1,64,80,40.75,0.239583,Sixteenth,E4
234,Right,0,74,80,40.833333,0.15625,TripletSixteenth,D5
235,Left,1,57,80,41.0,0.239583,Sixteenth,A3
236,Right,0,74,80,41.0,0.489583,Eighth,D5
237,Left,1,64,80,41.25,0.239583,Sixteenth,E4
238,Left,1,69,80,41.5,0.239583,Sixteenth,A4
239,Right,0,73,80,41.5,0.489583,Eighth,C#5
240,Left,1,64,80,41.75,0.239583,Sixteenth,E4
241,Left,1,57,80,42.0,0.239583,Sixteenth,A3
242,Right,0,71,80,42.166667,0.15625,TripletSixteenth,B4
243,Left,1,62,80,42.25,0.239583,Sixteenth,D4
244,Right,0,73,80,42.333333,0.15625,TripletSixteenth,C#5
245,Right,0,74,80,42.5,0.15625,TripletSixteenth,D5
246,Left,1,68,80,42.5,0.239583,Sixteenth,G#4
247,Right,0,73,80,42.666667,0.15625,TripletSixteenth,C#5
248,Left,1,62,80,42.75,0.239583,Sixteenth,D4
249,Right,0,71,80,42.833333,0.15625,TripletSixteenth,B4
250,Left,1,57,80,43.0,0.239583,Sixteenth,A3
251,Right,0,71,80,43.0,0.489583,Eighth,B4
252,Left,1,61,80,43.25,0.239583,Sixteenth,C#4
254,Left,1,64,80,43.5,0.239583,Sixteenth,E4
253,Right,0,69,80,43.5,0.489583,Eighth,A4
255,Left,1,61,80,43.75,0.239583,Sixteenth,C#4
256,Left,1,57,80,44.0,0.239583,Sixteenth,A3
257,Right,0,74,80,44.166667,0.15625,TripletSixteenth,D5
258,Left,1,64,80,44.25,0.239583,Sixteenth,E4
259,Right,0,76,80,44.333333,0.15625,TripletSixteenth,E5
260,Right,0,78,80,44.5,0.15625,TripletSixteenth,F#5
261,Left,1,68,80,44.5,0.239583,Sixteenth,G#4
262,Right,0,76,80,44.666667,0.15625,TripletSixteenth,E5
263,Left,1,64,80,44.75,0.239583,Sixteenth,E4
264,Right,0,74,80,44.833333,0.15625,TripletSixteenth,D5
265,Right,0,74,80,45.0,0.15625,TripletSixteenth,D5
266,Left,1,57,80,45.0,0.239583,Sixteenth,A3
267,Right,0,73,80,45.166667,0.15625,TripletSixteenth,C#5
268,Left,1,64,80,45.25,0.239583,Sixteenth,E4
269,Right,0,74,80,45.333333,0.15625,TripletSixteenth,D5
271,Left,1,69,80,45.5,0.239583,Sixteenth,A4
270,Right,0,76,80,45.5,0.15625,TripletSixteenth,E5
272,Right,0,74,80,45.666667,0.15625,TripletSixteenth,D5
273,Left,1,64,80,45.75,0.239583,Sixteenth,E4
274,Right,0,73,80,45.833333,0.15625,TripletSixteenth,C#5
276,Left,1,57,80,46.0,0.239583,Sixteenth,A3
275,Right,0,73,80,46.0,0.15625,TripletSixteenth,C#5
277,Right,0,71,80,46.166667,0.15625,TripletSixteenth,B4
278,Left,1,62,80,46.25,0.239583,Sixteenth,D4
279,Right,0,73,80,46.333333,0.15625,TripletSixteenth,C#5
281,Left,1,68,80,46.5,0.239583,Sixteenth,G#4
280,Right,0,74,80,46.5,0.15625,TripletSixteenth,D5
282,Right,0,73,80,46.666667,0.15625,TripletSixteenth,C#5
283,Left,1,62,80,46.75,0.239583,Sixteenth,D4
284,Right,0,71,80,46.833333,0.15625,TripletSixteenth,B4
285,Right,0,71,80,47.0,0.15625,TripletSixteenth,B4
286,Left,1,57,80,47.0,0.489583,Eighth,E4_C#4_A3
289,Right,0,69,80,47.166667,0.15625,TripletSixteenth,A4
290,Right,0,68,80,47.333333,0.15625,TripletSixteenth,G#4
291,Right,0,69,80,47.5,0.15625,TripletSixteenth,A4
292,Right,0,71,80,47.666667,0.15625,TripletSixteenth,B4
293,Right,0,73,80,47.833333,0.15625,TripletSixteenth,C#5
294,Right,0,74,80,48.0,0.15625,TripletSixteenth,D5
295,Right,0,75,80,48.166667,0.15625,TripletSixteenth,D#5
296,Right,0,76,80,48.333333,0.15625,TripletSixteenth,E5
297,Right,0,77,80,48.5,0.114583,ThirtySecond,F5
298,Right,0,78,80,48.625,0.114583,ThirtySecond,F#5
299,Right,0,79,80,48.75,0.114583,ThirtySecond,G5
300,Right,0,80,80,48.875,0.114583,ThirtySecond,G#5
301,Right,0,81,80,49.0,0.489583,Eighth,A5
302,Right,0,81,80,49.5,0.489583,Eighth,A5
303,Right,0,81,80,50.0,0.489583,Eighth,A5
304,Right,0,81,80,50.5,0.489583,Eighth,A5
305,Right,0,81,80,51.0,0.739583,DottedEighth,F#5_A5
307,Left,1,38,80,51.25,0.239583,Sixteenth,D2
308,Left,1,50,80,51.5,0.239583,Sixteenth,D3
309,Right,0,80,80,51.75,0.239583,Sixteenth,G#5_F5
311,Right,0,81,80,52.0,0.739583,DottedEighth,F#5_A5
313,Left,1,50,80,52.25,0.239583,Sixteenth,D3
314,Left,1,62,80,52.5,0.239583,Sixteenth,D4
315,Right,0,77,80,52.75,0.239583,Sixteenth,G#5_F5
317,Right,0,81,80,53.0,0.739583,DottedEighth,F#5_A5
319,Left,1,62,80,53.25,0.239583,Sixteenth,D4
320,Left,1,74,80,53.5,0.239583,Sixteenth,D5
321,Right,0,79,80,53.75,0.239583,Sixteenth,G5_E5
323,Right,0,76,80,54.0,0.239583,Sixteenth,G5_E5
325,Right,0,78,80,54.25,0.239583,Sixteenth,F#5_D5
327,Right,0,74,80,54.5,0.239583,Sixteenth,F#5_D5
329,Right,0,76,80,54.75,0.239583,Sixteenth,E5_C#5
331,Right,0,73,80,55.0,0.239583,Sixteenth,E5_C#5
333,Right,0,74,80,55.25,0.239583,Sixteenth,D5_B4
335,Right,0,74,80,55.5,0.239583,Sixteenth,D5_B4
337,Right,0,73,80,55.75,0.239583,Sixteenth,C#5_A4
339,Right,0,73,80,56.0,0.239583,Sixteenth,C#5_A4
341,Right,0,71,80,56.25,0.239583,Sixteenth,G4_B4
343,Right,0,67,80,56.5,0.239583,Sixteenth,G4_B4
345,Right,0,66,80,56.75,0.239583,Sixteenth,F#4_A4
347,Right,0,66,80,57.0,0.989583,Quarter,F#4_D#4
349,Left,1,33,80,57.5,0.489583,Eighth,A1
351,Right,0,67,80,58.0,0.489583,Eighth,G4_E4
350,Left,1,33,80,58.0,0.489583,Eighth,A1
353,Left,1,33,80,58.5,0.489583,Eighth,A1
354,Right,0,79,80,59.0,0.739583,DottedEighth,G5_E5
356,Left,1,33,80,59.25,0.239583,Sixteenth,A1
357,Left,1,45,80,59.5,0.239583,Sixteenth,A2
358,Right,0,78,80,59.75,0.239583,Sixteenth,F#5_D#5
360,Right,0,79,80,60.0,0.739583,DottedEighth,G5_E5
362,Left,1,45,80,60.25,0.239583,Sixteenth,A2
363,Left,1,57,80,60.5,0.239583,Sixteenth,A3
364,Right,0,75,80,60.75,0.239583,Sixteenth,F#5_D#5
366,Right,0,79,80,61.0,0.739583,DottedEighth,G5_E5
368,Left,1,57,80,61.25,0.239583,Sixteenth,A3
369,Left,1,69,80,61.5,0.239583,Sixteenth,A4
370,Right,0,74,80,61.75,0.239583,Sixteenth,F#5_D5
372,Right,0,74,80,62.0,0.239583,Sixteenth,F#5_D5
374,Right,0,76,80,62.25,0.239583,Sixteenth,E5_C#5
376,Right,0,73,80,62.5,0.239583,Sixteenth,E5_C#5
378,Right,0,74,80,62.75,0.239583,Sixteenth,D5_B4
380,Right,0,74,80,63.0,0.239583,Sixteenth,D5_B4
382,Right,0,73,80,63.25,0.239583,Sixteenth,C#5_A4
384,Right,0,69,80,63.5,0.239583,Sixteenth,C#5_A4
386,Right,0,71,80,63.75,0.239583,Sixteenth,G4_B4
388,Right,0,71,80,64.0,0.239583,Sixteenth,G4_B4
390,Right,0,69,80,64.25,0.239583,Sixteenth,F#4_A4
392,Right,0,69,80,64.5,0.239583,Sixteenth,F#4_A4
394,Right,0,67,80,64.75,0.239583,Sixteenth,G4_E4
396,Right,0,66,80,65.0,0.489583,Eighth,F#4_D4
398,Left,1,57,80,65.25,0.239583,Sixteenth,A3
401,Left,1,50,80,65.5,0.239583,Sixteenth,D3
399,Right,0,71,80,65.5,0.489583,Eighth,F#4_B4
402,Left,1,57,80,65.75,0.239583,Sixteenth,A3
404,Right,0,64,80,66.0,0.489583,Eighth,E4_A4
403,Left,1,49,80,66.0,0.239583,Sixteenth,C#3
406,Left,1,57,80,66.25,0.239583,Sixteenth,A3
407,Right,0,67,80,66.5,0.489583,Eighth,G4_C#4
408,Left,1,45,80,66.5,0.239583,Sixteenth,A2
410,Left,1,57,80,66.75,0.239583,Sixteenth,A3
411,Right,0,66,80,67.0,0.489583,Eighth,F#4_D4
413,Left,1,57,80,67.25,0.239583,Sixteenth,A3
414,Left,1,50,80,67.5,0.239583,Sixteenth,D3
415,Right,0,66,80,67.5,0.489583,Eighth,F#4_B4
417,Left,1,57,80,67.75,0.239583,Sixteenth,A3
418,Left,1,49,80,68.0,0.239583,Sixteenth,C#3
419,Right,0,64,80,68.0,0.489583,Eighth,E4_A4
421,Left,1,57,80,68.25,0.239583,Sixteenth,A3
424,Left,1,45,80,68.5,0.239583,Sixteenth,A2
422,Right,0,61,80,68.5,0.489583,Eighth,G4_C#4
425,Left,1,57,80,68.75,0.239583,Sixteenth,A3
427,Left,1,50,80,69.0,0.989583,Quarter,D3
426,Right,0,66,80,69.0,0.489583,Eighth,F#4
428,Right,0,62,80,69.25,0.239583,Sixteenth,D4
429,Right,0,71,80,69.5,0.489583,Eighth,F#4_B4
431,Right,0,62,80,69.75,0.239583,Sixteenth,D4
434,Left,1,52,80,70.0,0.989583,Quarter,E3
432,Right,0,69,80,70.0,0.489583,Eighth,C#4_A4
435,Right,0,64,80,70.25,0.239583,Sixteenth,E4
436,Right,0,68,80,70.5,0.489583,Eighth,G#4_B3
438,Right,0,62,80,70.75,0.239583,Sixteenth,D4
440,Right,0,69,80,71.0,0.489583,Eighth,A4
439,Left,1,57,80,71.0,0.239583,Sixteenth,A3
441,Left,1,69,80,71.25,0.239583,Sixteenth,A4
442,Left,1,64,80,71.5,0.239583,Sixteenth,G4_E4
444,Left,1,69,80,71.75,0.239583,Sixteenth,A4
445,Left,1,62,80,72.0,0.239583,Sixteenth,F#4_D4
447,Left,1,69,80,72.25,0.239583,Sixteenth,A4
448,Left,1,61,80,72.5,0.239583,Sixteenth,E4_C#4
450,Left,1,69,80,72.75,0.239583,Sixteenth,A4
452,Left,1,66,80,73.0,0.239583,Sixteenth,F#4_D4
451,Right,0,78,80,73.0,0.489583,Eighth,F#5
454,Left,1,69,80,73.25,0.239583,Sixteenth,A4
455,Right,0,83,80,73.5,0.489583,Eighth,B5
456,Left,1,66,80,73.5,0.239583,Sixteenth,F#4_D4
458,Left,1,69,80,73.75,0.239583,Sixteenth,A4
461,Right,0,81,80,74.0,0.489583,Eighth,A5
459,Left,1,61,80,74.0,0.239583,Sixteenth,E4_C#4
462,Left,1,69,80,74.25,0.239583,Sixteenth,A4
465,Right,0,79,80,74.5,0.489583,Eighth,G5_C#5
463,Left,1,57,80,74.5,0.239583,Sixteenth,E4_A3
467,Left,1,69,80,74.75,0.239583,Sixteenth,A4
470,Right,0,78,80,75.0,0.489583,Eighth,F#5
468,Left,1,62,80,75.0,0.239583,Sixteenth,F#4_D4
471,Left,1,69,80,75.25,0.239583,Sixteenth,A4
474,Right,0,83,80,75.5,0.489583,Eighth,B5
472,Left,1,66,80,75.5,0.239583,Sixteenth,F#4_D4
475,Left,1,69,80,75.75,0.239583,Sixteenth,A4
476,Right,0,81,80,76.0,0.489583,Eighth,A5
477,Left,1,61,80,76.0,0.239583,Sixteenth,E4_C#4
479,Left,1,69,80,76.25,0.239583,Sixteenth,A4
480,Left,1,57,80,76.5,0.239583,Sixteenth,E4_A3
482,Right,0,73,80,76.5,0.489583,Eighth,G5_C#5
484,Left,1,69,80,76.75,0.239583,Sixteenth,A4
485,Right,0,74,80,77.0,0.489583,Eighth,F#5_D5
486,Left,1,66,80,77.0,0.239583,Sixteenth,F#4_D4
489,Left,1,74,81,77.25,0.239583,Sixteenth,D5
490,Left,1,67,82,77.5,0.239583,Sixteenth,G4_E4
492,Right,0,86,82,77.5,0.989583,Quarter,D6
493,Left,1,74,83,77.75,0.239583,Sixteenth,D5
494,Left,1,66,85,78.0,0.239583,Sixteenth,F#4_A4
496,Left,1,74,86,78.25,0.239583,Sixteenth,D5
497,Left,1,67,87,78.5,0.239583,Sixteenth,G4_B4
499,Right,0,86,87,78.5,0.989583,Quarter,D6
500,Left,1,74,89,78.75,0.239583,Sixteenth,D5
501,Left,1,72,90,79.0,0.239583,Sixteenth,C5_A4
503,Left,1,74,91,79.25,0.239583,Sixteenth,D5
504,Left,1,68,93,79.5,0.239583,Sixteenth,G#4_B4
506,Right,0,86,93,79.5,0.489583,Eighth,D6
507,Left,1,74,94,79.75,0.239583,Sixteenth,D5
508,Right,0,86,95,80.0,0.489583,Eighth,D6
509,Left,1,69,95,80.0,0.239583,Sixteenth,C5_A4
511,Left,1,74,97,80.25,0.239583,Sixteenth,D5
514,Right,0,86,98,80.5,0.489583,Eighth,D6
512,Left,1,66,98,80.5,0.239583,Sixteenth,F#4_A#4
515,Left,1,74,99,80.75,0.239583,Sixteenth,D5
517,Left,1,67,80,81.0,0.489583,Eighth,G4_B4
516,Right,0,83,80,81.0,0.239583,Sixteenth,B5
519,Right,0,85,80,81.125,0.239583,Sixteenth,C#6
520,Right,0,83,80,81.25,0.239583,Sixteenth,B5
521,Right,0,82,80,81.375,0.239583,Sixteenth,A#5
522,Right,0,83,80,81.5,0.239583,Sixteenth,B5
523,Right,0,85,80,81.625,0.239583,Sixteenth,C#6
524,Right,0,86,80,81.75,0.239583,Sixteenth,D6
525,Right,0,85,80,81.875,0.239583,Sixteenth,C#6
526,Left,1,74,80,82.0,0.489583,Eighth,G4_D5_B4
529,Right,0,83,80,82.0,0.239583,Sixteenth,B5
530,Right,0,85,80,82.125,0.239583,Sixteenth,C#6
531,Right,0,83,80,82.25,0.239583,Sixteenth,B5
532,Right,0,82,80,82.375,0.239583,Sixteenth,A#5
533,Right,0,83,80,82.5,0.239583,Sixteenth,B5
534,Right,0,85,80,82.625,0.239583,Sixteenth,C#6
535,Right,0,86,80,82.75,0.239583,Sixteenth,D6
536,Right,0,85,80,82.875,0.239583,Sixteenth,C#6
538,Left,1,74,81,83.0,0.489583,Eighth,G#4_F5_D5_B4
537,Right,0,86,81,83.0,0.239583,Sixteenth,D6
542,Right,0,88,82,83.125,0.239583,Sixteenth,E6
543,Right,0,86,83,83.25,0.239583,Sixteenth,D6
544,Right,0,85,85,83.375,0.239583,Sixteenth,C#6
545,Right,0,86,86,83.5,0.239583,Sixteenth,D6
546,Right,0,88,87,83.625,0.239583,Sixteenth,E6
547,Right,0,89,89,83.75,0.239583,Sixteenth,F6
548,Right,0,88,90,83.875,0.239583,Sixteenth,E6
553,Right,0,86,91,84.0,0.239583,Sixteenth,D6
549,Left,1,68,91,84.0,0.489583,Eighth,G#4_F5_D5_B4
554,Right,0,88,93,84.125,0.239583,Sixteenth,E6
555,Right,0,86,94,84.25,0.239583,Sixteenth,D6
556,Right,0,85,95,84.375,0.239583,Sixteenth,C#6
557,Right,0,86,97,84.5,0.239583,Sixteenth,D6
558,Right,0,88,98,84.625,0.239583,Sixteenth,E6
559,Right,0,89,99,84.75,0.239583,Sixteenth,F6
560,Right,0,88,110,84.875,0.239583,Sixteenth,E6
564,Right,0,86,110,85.0,0.239583,Sixteenth,D6
561,Left,1,78,110,85.0,0.489583,Eighth,F#5_D5_A4
565,Right,0,88,110,85.125,0.239583,Sixteenth,E6
566,Right,0,86,110,85.25,0.239583,Sixteenth,D6
567,Right,0,85,110,85.375,0.239583,Sixteenth,C#6
568,Right,0,86,110,85.5,0.239583,Sixteenth,D6
569,Right,0,88,110,85.625,0.239583,Sixteenth,E6
570,Right,0,90,110,85.75,0.239583,Sixteenth,F#6
571,Right,0,88,110,85.875,0.239583,Sixteenth,E6
572,Right,0,86,110,86.0,0.239583,Sixteenth,D6
573,Right,0,85,110,86.125,0.239583,Sixteenth,C#6
574,Right,0,83,110,86.25,0.239583,Sixteenth,B5
575,Right,0,81,110,86.375,0.239583,Sixteenth,A5
576,Right,0,79,110,86.5,0.239583,Sixteenth,G5
577,Right,0,78,110,86.625,0.239583,Sixteenth,F#5
578,Right,0,76,110,86.75,0.239583,Sixteenth,E5
580,Right,0,78,110,87.0,0.989583,Quarter,F#5_D5
579,Left,1,57,110,87.0,1.989583,Half,A4_A3
584,Right,0,73,110,88.0,0.989583,Quarter,E5_C#5
583,Left,1,67,110,88.0,0.989583,Quarter,G4
586,Right,0,74,110,89.0,0.239583,Sixteenth,D5
587,Left,1,62,110,89.0,0.489583,Eighth,F#4_D4
589,Right,0,76,110,89.125,0.239583,Sixteenth,E5
590,Right,0,78,110,89.25,0.239583,Sixteenth,F#5
591,Right,0,79,110,89.375,0.239583,Sixteenth,G5
592,Right,0,81,110,89.5,0.239583,Sixteenth,A5
593,Right,0,79,110,89.625,0.239583,Sixteenth,G5
594,Right,0,78,110,89.75,0.239583,Sixteenth,F#5
595,Right,0,76,110,89.875,0.239583,Sixteenth,E5
596,Right,0,74,110,90.0,0.239583,Sixteenth,D5
597,Right,0,73,110,90.125,0.239583,Sixteenth,C#5
598,Right,0,71,110,90.25,0.239583,Sixteenth,B4
599,Right,0,69,110,90.375,0.239583,Sixteenth,A4
600,Right,0,67,110,90.5,0.239583,Sixteenth,G4
601,Right,0,66,110,90.625,0.239583,Sixteenth,F#4
602,Right,0,64,110,90.75,0.239583,Sixteenth,E4
605,Right,0,62,110,91.0,0.989583,ThirtySecond,F#4_D4
603,Left,1,45,110,91.0,1.989583,Half,A3_A2
609,Left,1,55,110,92.0,0.989583,Quarter,G3
607,Right,0,61,110,92.0,0.989583,Quarter,E4_C#4
610,Left,1,54,80,93.0,0.489583,Eighth,F#3_D3
612,Right,0,62,80,93.0,0.239583,Sixteenth,D4
613,Right,0,57,80,93.25,0.239583,Sixteenth,A3
614,Right,0,66,80,93.5,0.239583,Sixteenth,F#4_D4
616,Right,0,57,80,93.75,0.239583,Sixteenth,A3
617,Right,0,67,80,94.0,0.239583,Sixteenth,G4_E4
619,Right,0,57,80,94.25,0.239583,Sixteenth,A3
620,Right,0,68,80,94.5,0.239583,Sixteenth,G#4_F4
622,Right,0,57,80,94.75,0.239583,Sixteenth,A3
623,Right,0,69,80,95.0,2.489583,Half,F#4_A4
625,Right,0,57,80,95.25,0.489583,Eighth,A3
626,Left,1,38,80,95.5,0.489583,Eighth,D2
627,Right,0,57,80,95.75,0.489583,Eighth,A3
628,Left,1,42,80,96.0,0.489583,Eighth,F#2
629,Right,0,57,80,96.25,0.489583,Eighth,A3
630,Left,1,45,80,96.5,0.489583,Eighth,A2
631,Right,0,57,80,96.75,0.489583,Eighth,A3
632,Left,1,50,80,97.0,2.489583,Half,D3
633,Right,0,57,80,97.25,0.239583,Sixteenth,A3
634,Right,0,66,80,97.5,0.489583,Eighth,F#4_D4
636,Right,0,57,80,97.75,0.239583,Sixteenth,A3
637,Right,0,71,80,98.0,0.489583,Eighth,G4_B4
639,Right,0,57,80,98.25,0.239583,Sixteenth,A3
640,Right,0,69,80,98.5,0.489583,Eighth,F#4_A4
642,Right,0,57,80,98.75,0.239583,Sixteenth,A3
643,Right,0,64,80,99.0,2.489583,Half,G4_E4
645,Right,0,57,80,99.25,0.489583,Eighth,A3
646,Left,1,50,80,99.5,0.489583,Eighth,D3
647,Right,0,57,80,99.75,0.489583,Eighth,A3
648,Left,1,49,80,100.0,0.489583,Eighth,C#3
649,Right,0,57,80,100.25,0.489583,Eighth,A3
650,Left,1,47,80,100.5,0.489583,Eighth,B2
651,Right,0,57,80,100.75,0.489583,Eighth,A3
652,Left,1,49,80,101.0,0.989583,Quarter,C#3
653,Right,0,57,80,101.25,0.239583,Sixteenth,A3
654,Right,0,64,80,101.5,0.489583,Sixteenth,G4_E4
656,Right,0,57,80,101.75,0.239583,Sixteenth,A3
657,Right,0,66,80,102.0,0.489583,Sixteenth,F#4_A4
659,Left,1,45,80,102.0,1.489583,DottedQuarter,A2
660,Right,0,57,80,102.25,0.239583,Sixteenth,A3
661,Right,0,64,80,102.5,0.489583,Sixteenth,G4_E4
663,Right,0,57,80,102.75,0.239583,Sixteenth,A3
664,Right,0,62,80,103.0,2.489583,Half,F#4_D4
666,Right,0,57,80,103.25,0.239583,Sixteenth,A3
667,Left,1,46,80,103.5,0.489583,Eighth,A#2
668,Right,0,58,80,103.75,0.239583,Sixteenth,A#3
669,Left,1,47,80,104.0,0.489583,Eighth,B2
670,Right,0,59,80,104.25,0.239583,Sixteenth,B3
671,Left,1,42,80,104.5,0.489583,Eighth,F#2
672,Right,0,54,80,104.75,0.239583,Sixteenth,F#3
673,Left,1,43,80,105.0,0.489583,Eighth,G2
674,Right,0,55,80,105.25,0.239583,Sixteenth,G3
675,Right,0,62,80,105.5,0.489583,Sixteenth,E4_D4
677,Left,1,44,80,105.5,0.489583,Eighth,G#2
678,Right,0,56,80,105.75,0.239583,Sixteenth,G#3
679,Left,1,45,80,106.0,1.489583,DottedQuarter,A2
680,Right,0,64,80,106.0,0.489583,Eighth,E4_D4
682,Right,0,57,80,106.25,0.239583,Sixteenth,A3
683,Right,0,67,80,106.5,0.489583,Eighth,G4_C#4
685,Right,0,57,80,106.75,0.239583,Sixteenth,A3
686,Right,0,66,80,107.0,2.489583,Half,F#4_D4
688,Right,0,57,80,107.25,0.239583,Sixteenth,A3
689,Left,1,46,80,107.5,0.489583,Eighth,A#2
690,Right,0,58,80,107.75,0.239583,Sixteenth,A#3
691,Left,1,47,80,108.0,0.489583,Eighth,B2
692,Right,0,59,80,108.25,0.239583,Sixteenth,B3
693,Left,1,42,80,108.5,0.489583,Eighth,F#2
694,Right,0,54,80,108.75,0.239583,Sixteenth,F#3
695,Left,1,43,80,109.0,0.489583,Eighth,G2
696,Right,0,55,80,109.25,0.239583,Sixteenth,G3
697,Right,0,62,80,109.5,0.489583,Sixteenth,E4_D4
698,Left,1,44,80,109.5,0.489583,Eighth,G#2
700,Right,0,56,80,109.75,0.239583,Sixteenth,G#3
703,Left,1,45,80,110.0,1.489583,DottedQuarter,A2
701,Right,0,62,80,110.0,0.489583,Sixteenth,E4_D4
704,Right,0,57,80,110.25,0.239583,Sixteenth,A3
705,Right,0,61,80,110.5,0.489583,Sixteenth,G4_C#4
707,Right,0,57,80,110.75,0.239583,Sixteenth,A3
708,Right,0,66,80,111.0,2.489583,Half,F#4_D4
710,Right,0,57,80,111.25,0.239583,Sixteenth,A3
711,Left,1,46,80,111.5,0.489583,Eighth,A#2
712,Right,0,58,80,111.75,0.239583,Sixteenth,A#3
713,Left,1,47,80,112.0,0.489583,Eighth,B2
714,Right,0,59,80,112.25,0.239583,Sixteenth,B3
715,Left,1,48,80,112.5,0.489583,Eighth,C3
716,Right,0,60,80,112.75,0.239583,Sixteenth,C4
717,Left,1,47,80,113.0,0.489583,Eighth,B2
718,Right,0,59,80,113.25,0.239583,Sixteenth,B3
720,Left,1,43,80,113.5,0.489583,Eighth,G2
719,Right,0,64,80,113.5,0.489583,Sixteenth,G4_E4
722,Right,0,59,80,113.75,0.239583,Sixteenth,B3
723,Left,1,45,80,114.0,0.489583,Eighth,A2
724,Right,0,66,80,114.0,0.489583,Eighth,F#4_D4
726,Right,0,57,80,114.25,0.239583,Sixteenth,A3
729,Left,1,33,80,114.5,0.489583,Eighth,A1
727,Right,0,61,80,114.5,0.489583,Sixteenth,E4_C#4
730,Right,0,55,80,114.75,0.239583,Sixteenth,G3
731,Left,1,38,80,115.0,3.989583,Whole,D2
732,Right,0,54,80,115.0,1.489583,Sixteenth,F#3_D4
734,Right,0,57,80,115.25,0.239583,Sixteenth,A3
735,Right,0,54,80,115.5,0.239583,Sixteenth,F#3
736,Right,0,57,80,115.75,0.239583,Sixteenth,A3
737,Right,0,54,80,116.0,0.239583,Sixteenth,F#3
738,Right,0,57,80,116.25,0.239583,Sixteenth,A3
741,Left,1,50,80,116.5,0.489583,Eighth,D3
739,Right,0,55,80,116.5,0.489583,Sixteenth,G3_E4
742,Right,0,61,80,116.75,0.239583,Sixteenth,C#4
745,Left,1,50,80,117.0,1.489583,DottedQuarter,D3
743,Right,0,57,80,117.0,1.489583,Sixteenth,F#4_A3
746,Right,0,62,80,117.25,0.239583,Sixteenth,D4
747,Right,0,57,80,117.5,0.239583,Sixteenth,A3
748,Right,0,62,80,117.75,0.239583,Sixteenth,D4
749,Right,0,57,80,118.0,0.239583,Sixteenth,A3
750,Right,0,62,80,118.25,0.239583,Sixteenth,D4
751,Right,0,55,80,118.5,0.489583,Sixteenth,G3_E4
753,Left,1,50,80,118.5,0.489583,Eighth,D3
754,Right,0,61,80,118.75,0.239583,Sixteenth,C#4
756,Left,1,50,80,119.0,1.489583,DottedQuarter,F#3_D3
755,Right,0,62,80,119.0,1.489583,DottedQuarter,D4
758,Left,1,57,80,119.25,0.239583,Sixteenth,A3
759,Left,1,54,80,119.5,0.239583,Sixteenth,F#3
760,Left,1,57,80,119.75,0.239583,Sixteenth,A3
761,Left,1,54,80,120.0,0.239583,Sixteenth,F#3
762,Left,1,57,80,120.25,0.239583,Sixteenth,A3
763,Right,0,64,94,120.5,0.489583,Eighth,E4_C#5
764,Left,1,50,80,120.5,0.989583,Quarter,G3_D3
767,Left,1,57,80,120.75,0.239583,Sixteenth,A3
768,Left,1,54,80,121.0,0.239583,Sixteenth,F#3
769,Right,0,62,80,121.0,0.489583,Eighth,D5_D4
771,Left,1,57,80,121.25,0.239583,Sixteenth,A3
773,Left,1,55,80,121.5,0.989583,Sixteenth,G3_D3
772,Right,0,64,95,121.5,0.489583,Eighth,E4_C#5
776,Left,1,57,80,121.75,0.239583,Sixteenth,A3
777,Right,0,62,80,122.0,0.489583,Eighth,D5_D4
778,Left,1,54,80,122.0,0.239583,Sixteenth,F#3
780,Left,1,57,80,122.25,0.239583,Sixteenth,A3
781,Left,1,55,80,122.5,0.489583,Sixteenth,G3_D3
783,Right,0,64,80,122.5,0.489583,Eighth,E4_C#5
785,Right,0,74,80,122.625,0.239583,Sixteenth,D5
786,Left,1,57,80,122.75,0.239583,Sixteenth,A3
787,Right,0,71,80,122.75,0.239583,Sixteenth,B4
788,Right,0,73,80,122.875,0.239583,Sixteenth,C#5
791,Left,1,61,80,123.0,2.489583,Half,D3_C#4_A3
789,Right,0,76,80,123.0,1.989583,Half,G4_E5
794,Left,1,62,80,125.0,0.489583,Eighth,D4
795,Right,0,74,80,125.0,0.489583,Eighth,F#4_D5
797,Right,0,62,80,126.25,0.239583,Sixteenth,D4
798,Right,0,74,80,126.5,0.239583,Sixteenth,D5
799,Right,0,70,80,126.75,0.239583,Sixteenth,A#4
800,Right,0,71,80,127.0,0.239583,Sixteenth,B4
801,Right,0,66,80,127.25,0.239583,Sixteenth,F#4
802,Right,0,67,80,127.5,0.739583,DottedEighth,G4
803,Left,1,43,80,127.5,1.489583,DottedQuarter,G2
804,Left,1,47,80,127.75,1.239583,TiedQuarter-Sixteenth,B2
805,Left,1,50,80,128.0,0.989583,Quarter,D3
806,Right,0,62,80,128.25,0.239583,Sixteenth,D4
807,Right,0,74,80,128.5,0.239583,Sixteenth,D5
808,Right,0,70,80,128.75,0.239583,Sixteenth,A#4
809,Right,0,71,80,129.0,0.239583,Sixteenth,B4
810,Right,0,66,80,129.25,0.239583,Sixteenth,F#4
811,Right,0,67,80,129.5,0.739583,DottedEighth,G4
812,Left,1,55,80,129.5,1.489583,DottedQuarter,G3
813,Left,1,59,80,129.75,1.239583,TiedQuarter-Sixteenth,B3
814,Left,1,62,80,130.0,0.989583,Quarter,D4
815,Right,0,64,80,130.25,0.239583,Sixteenth,E4
816,Right,0,76,80,130.5,0.239583,Sixteenth,E5
817,Right,0,71,80,130.75,0.239583,Sixteenth,B4
818,Right,0,72,80,131.0,0.239583,Sixteenth,C5
819,Right,0,68,80,131.25,0.239583,Sixteenth,G#4
820,Left,1,43,80,131.5,1.489583,DottedQuarter,G2
821,Right,0,69,80,131.5,0.739583,DottedEighth,A4
822,Left,1,48,80,131.75,1.239583,TiedQuarter-Sixteenth,C3
823,Left,1,52,80,132.0,0.989583,Quarter,E3
824,Right,0,64,80,132.25,0.239583,Sixteenth,E4
825,Right,0,76,80,132.5,0.239583,Sixteenth,E5
826,Right,0,71,80,132.75,0.239583,Sixteenth,B4
827,Right,0,72,80,133.0,0.239583,Sixteenth,C5
828,Right,0,68,80,133.25,0.239583,Sixteenth,G#4
830,Right,0,69,80,133.5,0.739583,DottedEighth,A4
829,Left,1,55,80,133.5,1.489583,DottedQuarter,G3
831,Left,1,60,80,133.75,1.239583,TiedQuarter-Sixteenth,C4
832,Left,1,64,80,134.0,0.989583,Quarter,E4
833,Right,0,69,80,134.25,0.239583,Sixteenth,A4
834,Right,0,84,80,134.5,0.239583,Sixteenth,C6
835,Right,0,83,80,134.75,0.239583,Sixteenth,B5
836,Right,0,81,80,135.0,0.739583,DottedEighth,A5
837,Left,1,54,80,135.25,0.239583,Sixteenth,F#3
838,Left,1,57,80,135.5,0.239583,Sixteenth,A3
839,Right,0,79,80,135.75,0.239583,Sixteenth,G5
840,Left,1,62,80,135.75,0.239583,Sixteenth,D4
841,Right,0,78,80,136.0,0.239583,Sixteenth,F#5
842,Left,1,50,80,136.25,0.239583,Sixteenth,D3
843,Right,0,76,80,136.25,0.239583,Sixteenth,E5
845,Left,1,57,80,136.5,0.239583,Sixteenth,A3
844,Right,0,74,80,136.5,0.239583,Sixteenth,D5
847,Left,1,60,80,136.75,0.239583,Sixteenth,C4
846,Right,0,72,80,136.75,0.239583,Sixteenth,C5
848,Right,0,74,80,137.0,0.052083,SixtyFourth,D5
849,Right,0,72,80,137.0625,0.177083,TripletSixteenth,C5
850,Left,1,55,80,137.25,0.239583,Sixteenth,G3
851,Right,0,71,80,137.25,0.489583,Eighth,B4
852,Left,1,59,80,137.5,0.239583,Sixteenth,B3
854,Left,1,62,80,137.75,0.239583,Sixteenth,D4
853,Right,0,79,80,137.75,0.239583,Sixteenth,G5
855,Right,0,79,80,138.0,0.239583,Sixteenth,G5
856,Left,1,48,80,138.25,0.239583,Sixteenth,C3
857,Right,0,69,80,138.25,0.489583,Eighth,A4
858,Left,1,52,80,138.5,0.239583,Sixteenth,E3
860,Left,1,57,80,138.75,0.239583,Sixteenth,A3
859,Right,0,76,80,138.75,0.239583,Sixteenth,E5
861,Right,0,76,80,139.0,0.239583,Sixteenth,E5
862,Right,0,67,80,139.25,0.489583,Eighth,G4
863,Left,1,50,80,139.25,0.239583,Sixteenth,D3
864,Left,1,55,80,139.5,0.239583,Sixteenth,G3
865,Right,0,74,80,139.75,0.239583,Sixteenth,D5
866,Left,1,59,80,139.75,0.239583,Sixteenth,B3
867,Right,0,74,80,140.0,0.239583,Sixteenth,D5
869,Left,1,38,80,140.25,0.239583,Sixteenth,D2
868,Right,0,60,80,140.25,0.489583,Eighth,C4
870,Left,1,45,80,140.5,0.239583,Sixteenth,A2
872,Left,1,50,80,140.75,0.239583,Sixteenth,D3
871,Right,0,66,80,140.75,0.239583,Sixteenth,F#4
873,Left,1,43,80,141.0,0.239583,Sixteenth,G2
874,Right,0,67,80,141.0,0.989583,Quarter,G4_B3
876,Left,1,47,80,141.25,0.239583,Sixteenth,B2
877,Left,1,50,80,141.5,0.239583,Sixteenth,D3
878,Left,1,47,80,141.75,0.239583,Sixteenth,B2
879,Left,1,43,80,142.0,0.239583,Sixteenth,G2
880,Left,1,47,80,142.25,0.239583,Sixteenth,B2
881,Right,0,74,80,142.5,0.489583,Eighth,D5
882,Left,1,50,80,142.5,0.239583,Sixteenth,D3
883,Left,1,47,80,142.75,0.239583,Sixteenth,B2
885,Right,0,74,84,143.0,0.489583,Eighth,D5
884,Left,1,43,80,143.0,0.239583,Sixteenth,G2
886,Left,1,47,80,143.25,0.239583,Sixteenth,B2
887,Right,0,74,88,143.5,0.489583,Eighth,D5
888,Left,1,50,80,143.5,0.239583,Sixteenth,D3
889,Left,1,47,80,143.75,0.239583,Sixteenth,B2
891,Right,0,74,93,144.0,0.489583,Eighth,D5
890,Left,1,43,80,144.0,0.239583,Sixteenth,G2
892,Left,1,47,80,144.25,0.239583,Sixteenth,B2
893,Right,0,74,97,144.5,0.239583,Sixteenth,D5
894,Left,1,50,80,144.5,0.239583,Sixteenth,D3
895,Right,0,76,98,144.625,0.239583,Sixteenth,E5
896,Right,0,73,99,144.75,0.239583,Sixteenth,C#5
897,Left,1,47,80,144.75,0.239583,Sixteenth,B2
898,Right,0,74,100,144.875,0.239583,Sixteenth,D5
899,Right,0,76,100,145.0,0.989583,Quarter,E5
900,Left,1,45,80,145.0,0.239583,Sixteenth,A2
901,Left,1,48,80,145.25,0.239583,Sixteenth,C3
902,Left,1,54,80,145.5,0.239583,Sixteenth,F#3
903,Left,1,48,80,145.75,0.239583,Sixteenth,C3
904,Right,0,74,80,146.0,0.489583,Eighth,D5
905,Left,1,45,80,146.0,0.239583,Sixteenth,A2
906,Left,1,48,80,146.25,0.239583,Sixteenth,C3
907,Left,1,54,80,146.5,0.239583,Sixteenth,F#3
908,Left,1,48,80,146.75,0.239583,Sixteenth,C3
909,Left,1,45,80,147.0,0.239583,Sixteenth,A2
910,Left,1,48,80,147.25,0.239583,Sixteenth,C3
911,Left,1,54,80,147.5,0.239583,Sixteenth,F#3
912,Left,1,48,80,147.75,0.239583,Sixteenth,C3
913,Right,0,74,80,147.75,0.239583,Sixteenth,D5
914,Right,0,74,84,148.0,0.239583,Sixteenth,D5
915,Left,1,45,80,148.0,0.239583,Sixteenth,A2
916,Right,0,74,89,148.25,0.239583,Sixteenth,D5
917,Left,1,48,80,148.25,0.239583,Sixteenth,C3
918,Left,1,54,80,148.5,0.239583,Sixteenth,F#3
919,Right,0,74,94,148.5,0.239583,Sixteenth,D5
920,Left,1,48,80,148.75,0.239583,Sixteenth,C3
921,Right,0,74,99,148.75,0.239583,Sixteenth,D5
922,Left,1,47,80,149.0,0.239583,Sixteenth,B2
923,Right,0,76,100,149.0,0.989583,Quarter,E5
924,Left,1,50,80,149.25,0.239583,Sixteenth,D3
925,Left,1,55,80,149.5,0.239583,Sixteenth,G3
926,Left,1,50,80,149.75,0.239583,Sixteenth,D3
928,Right,0,74,80,150.0,0.489583,Eighth,D5
927,Left,1,47,80,150.0,0.239583,Sixteenth,B2
929,Left,1,50,80,150.25,0.239583,Sixteenth,D3
930,Left,1,55,80,150.5,0.239583,Sixteenth,G3
931,Left,1,50,80,150.75,0.239583,Sixteenth,D3
932,Left,1,47,80,151.0,0.239583,Sixteenth,B2
933,Left,1,50,80,151.25,0.239583,Sixteenth,D3
934,Left,1,55,80,151.5,0.239583,Sixteenth,G3
935,Right,0,74,80,151.5,0.739583,DottedEighth,D5
936,Left,1,50,80,151.75,0.239583,Sixteenth,D3
937,Left,1,47,80,152.0,0.239583,Sixteenth,B2
938,Left,1,50,80,152.25,0.239583,Sixteenth,D3
939,Right,0,76,80,152.25,0.114583,ThirtySecond,E5
940,Right,0,74,80,152.375,0.114583,ThirtySecond,D5
942,Right,0,72,80,152.5,0.239583,Sixteenth,C5
941,Left,1,55,80,152.5,0.239583,Sixteenth,G3
944,Left,1,50,80,152.75,0.239583,Sixteenth,D3
943,Right,0,71,80,152.75,0.239583,Sixteenth,B4
946,Right,0,71,80,153.0,0.489583,Eighth,B4
945,Left,1,48,80,153.0,0.239583,Sixteenth,C3
947,Left,1,52,80,153.25,0.239583,Sixteenth,E3
948,Right,0,69,81,153.5,0.989583,Quarter,A4
949,Left,1,57,81,153.5,0.239583,Sixteenth,A3
950,Left,1,52,81,153.75,0.239583,Sixteenth,E3
951,Left,1,49,82,154.0,0.239583,Sixteenth,C#3
952,Left,1,52,82,154.25,0.239583,Sixteenth,E3
954,Left,1,57,83,154.5,0.239583,Sixteenth,A3
953,Right,0,67,83,154.5,0.489583,Eighth,G4
955,Left,1,52,83,154.75,0.239583,Sixteenth,E3
956,Left,1,50,84,155.0,0.239583,Sixteenth,D3
957,Right,0,66,84,155.0,0.15625,TripletSixteenth,F#4
958,Right,0,67,84,155.083333,0.15625,TripletSixteenth,G4
959,Right,0,69,84,155.166667,0.15625,TripletSixteenth,A4
960,Right,0,67,84,155.25,0.239583,Sixteenth,G4
961,Left,1,54,84,155.25,0.239583,Sixteenth,F#3
963,Right,0,66,85,155.5,0.989583,Quarter,F#4
962,Left,1,57,85,155.5,0.239583,Sixteenth,A3
964,Left,1,54,85,155.75,0.239583,Sixteenth,F#3
965,Left,1,50,86,156.0,0.239583,Sixteenth,D3
966,Left,1,54,86,156.25,0.239583,Sixteenth,F#3
968,Left,1,59,87,156.5,0.239583,Sixteenth,B3
967,Right,0,74,87,156.5,0.489583,Eighth,D5
969,Left,1,54,87,156.75,0.239583,Sixteenth,F#3
971,Right,0,74,88,157.0,0.489583,Eighth,D5
970,Left,1,52,88,157.0,0.239583,Sixteenth,E3
972,Left,1,55,88,157.25,0.239583,Sixteenth,G3
974,Left,1,59,89,157.5,0.239583,Sixteenth,B3
973,Right,0,73,89,157.5,0.989583,Quarter,C#5
975,Left,1,55,89,157.75,0.239583,Sixteenth,G3
976,Left,1,52,90,158.0,0.239583,Sixteenth,E3
977,Left,1,55,90,158.25,0.239583,Sixteenth,G3
979,Left,1,61,91,158.5,0.239583,Sixteenth,C#4
978,Right,0,71,91,158.5,0.489583,Eighth,B4
980,Left,1,55,91,158.75,0.239583,Sixteenth,G3
981,Right,0,69,92,159.0,0.15625,TripletSixteenth,A4
982,Left,1,54,92,159.0,0.239583,Sixteenth,F#3
983,Right,0,71,92,159.083333,0.15625,TripletSixteenth,B4
984,Right,0,73,92,159.166667,0.15625,TripletSixteenth,C#5
986,Left,1,57,92,159.25,0.239583,Sixteenth,A3
985,Right,0,71,92,159.25,0.239583,Sixteenth,B4
987,Right,0,69,93,159.5,0.989583,Quarter,A4
988,Left,1,61,93,159.5,0.239583,Sixteenth,C#4
989,Left,1,57,93,159.75,0.239583,Sixteenth,A3
990,Left,1,54,94,160.0,0.239583,Sixteenth,F#3
991,Left,1,57,94,160.25,0.239583,Sixteenth,A3
992,Right,0,78,95,160.5,0.489583,Eighth,F#5
993,Left,1,62,95,160.5,0.239583,Sixteenth,D4
994,Left,1,57,95,160.75,0.239583,Sixteenth,A3
996,Left,1,55,96,161.0,0.239583,Sixteenth,G3
995,Right,0,78,96,161.0,0.489583,Eighth,F#5
997,Left,1,59,96,161.25,0.239583,Sixteenth,B3
999,Right,0,76,97,161.5,0.989583,Quarter,E5
998,Left,1,64,97,161.5,0.239583,Sixteenth,E4
1000,Left,1,59,97,161.75,0.239583,Sixteenth,B3
1001,Left,1,56,98,162.0,0.239583,Sixteenth,G#3
1002,Left,1,59,98,162.25,0.239583,Sixteenth,B3
1003,Left,1,64,99,162.5,0.239583,Sixteenth,E4
1004,Right,0,74,99,162.5,0.489583,Eighth,D5
1005,Left,1,59,99,162.75,0.239583,Sixteenth,B3
1006,Right,0,74,80,163.0,0.489583,Eighth,D5
1007,Left,1,57,80,163.0,0.239583,Sixteenth,A3
1008,Left,1,64,80,163.25,0.239583,Sixteenth,E4
1010,Left,1,69,80,163.5,0.239583,Sixteenth,A4
1009,Right,0,73,80,163.5,0.989583,Quarter,C#5
1011,Left,1,64,80,163.75,0.239583,Sixteenth,E4
1012,Left,1,57,80,164.0,0.239583,Sixteenth,A3
1013,Left,1,62,80,164.25,0.239583,Sixteenth,D4
1014,Right,0,71,80,164.5,0.489583,Eighth,B4
1015,Left,1,68,80,164.5,0.239583,Sixteenth,G#4
1016,Left,1,62,80,164.75,0.239583,Sixteenth,D4
1017,Right,0,71,80,165.0,0.489583,Eighth,B4
1018,Left,1,57,80,165.0,0.239583,Sixteenth,A3
1019,Left,1,61,80,165.25,0.239583,Sixteenth,C#4
1020,Left,1,64,80,165.5,0.239583,Sixteenth,E4
1021,Right,0,69,80,165.5,0.489583,Eighth,A4
1022,Left,1,61,80,165.75,0.239583,Sixteenth,C#4
1023,Left,1,57,80,166.0,0.239583,Sixteenth,A3
1024,Right,0,74,80,166.166667,0.15625,TripletSixteenth,D5
1025,Left,1,64,80,166.25,0.239583,Sixteenth,E4
1026,Right,0,76,80,166.333333,0.15625,TripletSixteenth,E5
1027,Right,0,78,80,166.5,0.15625,TripletSixteenth,F#5
1028,Left,1,68,80,166.5,0.239583,Sixteenth,G#4
1029,Right,0,76,80,166.666667,0.15625,TripletSixteenth,E5
1030,Left,1,64,80,166.75,0.239583,Sixteenth,E4
1031,Right,0,74,80,166.833333,0.15625,TripletSixteenth,D5
1033,Left,1,57,80,167.0,0.239583,Sixteenth,A3
1032,Right,0,74,80,167.0,0.489583,Eighth,D5
1034,Left,1,64,80,167.25,0.239583,Sixteenth,E4
1035,Right,0,73,80,167.5,0.489583,Eighth,C#5
1036,Left,1,69,80,167.5,0.239583,Sixteenth,A4
1037,Left,1,64,80,167.75,0.239583,Sixteenth,E4
1038,Left,1,57,80,168.0,0.239583,Sixteenth,A3
1039,Right,0,71,80,168.166667,0.15625,TripletSixteenth,B4
1040,Left,1,62,80,168.25,0.239583,Sixteenth,D4
1041,Right,0,73,80,168.333333,0.15625,TripletSixteenth,C#5
1042,Right,0,74,80,168.5,0.15625,TripletSixteenth,D5
1043,Left,1,68,80,168.5,0.239583,Sixteenth,G#4
1044,Right,0,73,80,168.666667,0.15625,TripletSixteenth,C#5
1045,Left,1,62,80,168.75,0.239583,Sixteenth,D4
1046,Right,0,71,80,168.833333,0.15625,TripletSixteenth,B4
1047,Right,0,71,80,169.0,0.489583,Eighth,B4
1048,Left,1,57,80,169.0,0.239583,Sixteenth,A3
1049,Left,1,61,80,169.25,0.239583,Sixteenth,C#4
1051,Left,1,64,80,169.5,0.239583,Sixteenth,E4
1050,Right,0,69,80,169.5,0.489583,Eighth,A4
1052,Left,1,61,80,169.75,0.239583,Sixteenth,C#4
1053,Left,1,57,80,170.0,0.239583,Sixteenth,A3
1054,Right,0,74,80,170.166667,0.15625,TripletSixteenth,D5
1055,Left,1,64,80,170.25,0.239583,Sixteenth,E4
1056,Right,0,76,80,170.333333,0.15625,TripletSixteenth,E5
1057,Left,1,68,80,170.5,0.239583,Sixteenth,G#4
1058,Right,0,78,80,170.5,0.15625,TripletSixteenth,F#5
1059,Right,0,76,80,170.666667,0.15625,TripletSixteenth,E5
1060,Left,1,64,80,170.75,0.239583,Sixteenth,E4
1061,Right,0,74,80,170.833333,0.15625,TripletSixteenth,D5
1062,Left,1,57,80,171.0,0.239583,Sixteenth,A3
1063,Right,0,74,80,171.0,0.15625,TripletSixteenth,D5
1064,Right,0,73,80,171.166667,0.15625,TripletSixteenth,C#5
1065,Left,1,64,80,171.25,0.239583,Sixteenth,E4
1066,Right,0,74,80,171.333333,0.15625,TripletSixteenth,D5
1067,Left,1,69,80,171.5,0.239583,Sixteenth,A4
1068,Right,0,76,80,171.5,0.15625,TripletSixteenth,E5
1069,Right,0,74,80,171.666667,0.15625,TripletSixteenth,D5
1070,Left,1,64,80,171.75,0.239583,Sixteenth,E4
1071,Right,0,73,80,171.833333,0.15625,TripletSixteenth,C#5
1072,Right,0,73,80,172.0,0.15625,TripletSixteenth,C#5
1073,Left,1,57,80,172.0,0.239583,Sixteenth,A3
1074,Right,0,71,80,172.166667,0.15625,TripletSixteenth,B4
1075,Left,1,62,80,172.25,0.239583,Sixteenth,D4
1076,Right,0,73,80,172.333333,0.15625,TripletSixteenth,C#5
1077,Left,1,68,80,172.5,0.239583,Sixteenth,G#4
1078,Right,0,74,80,172.5,0.15625,TripletSixteenth,D5
1079,Right,0,73,80,172.666667,0.15625,TripletSixteenth,C#5
1080,Left,1,62,80,172.75,0.239583,Sixteenth,D4
1081,Right,0,71,80,172.833333,0.15625,TripletSixteenth,B4
1083,Left,1,57,80,173.0,0.489583,Eighth,E4_C#4_A3
1082,Right,0,71,80,173.0,0.15625,TripletSixteenth,B4
1086,Right,0,69,80,173.166667,0.15625,TripletSixteenth,A4
1087,Right,0,68,80,173.333333,0.15625,TripletSixteenth,G#4
1088,Right,0,69,80,173.5,0.15625,TripletSixteenth,A4
1089,Right,0,71,80,173.666667,0.15625,TripletSixteenth,B4
1090,Right,0,73,80,173.833333,0.15625,TripletSixteenth,C#5
1091,Right,0,74,80,174.0,0.15625,TripletSixteenth,D5
1092,Right,0,75,80,174.166667,0.15625,TripletSixteenth,D#5
1093,Right,0,76,80,174.333333,0.15625,TripletSixteenth,E5
1094,Right,0,77,80,174.5,0.114583,ThirtySecond,F5
1095,Right,0,78,80,174.625,0.114583,ThirtySecond,F#5
1096,Right,0,79,80,174.75,0.114583,ThirtySecond,G5
1097,Right,0,80,80,174.875,0.114583,ThirtySecond,G#5
1098,Right,0,81,80,175.0,0.489583,Eighth,A5
1099,Right,0,81,80,175.5,0.489583,Eighth,A5
1100,Right,0,81,80,176.0,0.489583,Eighth,A5
1101,Right,0,81,80,176.5,0.489583,Eighth,A5
1102,Right,0,78,80,177.0,0.739583,DottedEighth,F#5_A5
1104,Left,1,38,80,177.25,0.239583,Sixteenth,D2
1105,Left,1,50,80,177.5,0.239583,Sixteenth,D3
1106,Right,0,80,80,177.75,0.239583,Sixteenth,G#5_F5
1108,Right,0,81,80,178.0,0.739583,DottedEighth,F#5_A5
1110,Left,1,50,80,178.25,0.239583,Sixteenth,D3
1111,Left,1,62,80,178.5,0.239583,Sixteenth,D4
1112,Right,0,77,80,178.75,0.239583,Sixteenth,G#5_F5
1114,Right,0,81,80,179.0,0.739583,DottedEighth,F#5_A5
1116,Left,1,62,80,179.25,0.239583,Sixteenth,D4
1117,Left,1,74,80,179.5,0.239583,Sixteenth,D5
1118,Right,0,76,80,179.75,0.239583,Sixteenth,G5_E5
1120,Right,0,76,80,180.0,0.239583,Sixteenth,G5_E5
1122,Right,0,78,80,180.25,0.239583,Sixteenth,F#5_D5
1124,Right,0,74,80,180.5,0.239583,Sixteenth,F#5_D5
1126,Right,0,76,80,180.75,0.239583,Sixteenth,E5_C#5
1128,Right,0,73,80,181.0,0.239583,Sixteenth,E5_C#5
1130,Right,0,71,80,181.25,0.239583,Sixteenth,D5_B4
1132,Right,0,71,80,181.5,0.239583,Sixteenth,D5_B4
1134,Right,0,69,80,181.75,0.239583,Sixteenth,C#5_A4
1136,Right,0,69,80,182.0,0.239583,Sixteenth,C#5_A4
1138,Right,0,67,80,182.25,0.239583,Sixteenth,G4_B4
1140,Right,0,71,80,182.5,0.239583,Sixteenth,G4_B4
1142,Right,0,69,80,182.75,0.239583,Sixteenth,F#4_A4
1144,Right,0,66,80,183.0,0.989583,Quarter,F#4_D#4
1146,Left,1,33,80,183.5,0.489583,Eighth,A1
1147,Left,1,33,80,184.0,0.489583,Eighth,A1
1148,Right,0,64,80,184.0,0.489583,Eighth,G4_E4
1150,Left,1,33,80,184.5,0.489583,Eighth,A1
1151,Right,0,76,80,185.0,0.739583,DottedEighth,G5_E5
1153,Left,1,33,80,185.25,0.239583,Sixteenth,A1
1154,Left,1,45,80,185.5,0.239583,Sixteenth,A2
1155,Right,0,75,80,185.75,0.239583,Sixteenth,F#5_D#5
1157,Right,0,76,80,186.0,0.739583,DottedEighth,G5_E5
1159,Left,1,45,80,186.25,0.239583,Sixteenth,A2
1160,Left,1,57,80,186.5,0.239583,Sixteenth,A3
1161,Right,0,75,80,186.75,0.239583,Sixteenth,F#5_D#5
1163,Right,0,79,80,187.0,0.739583,DottedEighth,G5_E5
1165,Left,1,57,80,187.25,0.239583,Sixteenth,A3
1166,Left,1,69,80,187.5,0.239583,Sixteenth,A4
1167,Right,0,78,80,187.75,0.239583,Sixteenth,F#5_D5
1169,Right,0,78,80,188.0,0.239583,Sixteenth,F#5_D5
1171,Right,0,73,80,188.25,0.239583,Sixteenth,E5_C#5
1173,Right,0,73,80,188.5,0.239583,Sixteenth,E5_C#5
1175,Right,0,71,80,188.75,0.239583,Sixteenth,D5_B4
1177,Right,0,71,80,189.0,0.239583,Sixteenth,D5_B4
1179,Right,0,69,80,189.25,0.239583,Sixteenth,C#5_A4
1181,Right,0,69,80,189.5,0.239583,Sixteenth,C#5_A4
1183,Right,0,67,80,189.75,0.239583,Sixteenth,G4_B4
1185,Right,0,71,80,190.0,0.239583,Sixteenth,G4_B4
1187,Right,0,69,80,190.25,0.239583,Sixteenth,F#4_A4
1189,Right,0,69,80,190.5,0.239583,Sixteenth,F#4_A4
1191,Right,0,67,80,190.75,0.239583,Sixteenth,G4_E4
1193,Right,0,66,80,191.0,0.489583,Eighth,F#4_D4
1195,Left,1,57,80,191.25,0.239583,Sixteenth,A3
1198,Left,1,50,80,191.5,0.239583,Sixteenth,D3
1196,Right,0,71,80,191.5,0.489583,Eighth,F#4_B4
1199,Left,1,57,80,191.75,0.239583,Sixteenth,A3
1200,Right,0,69,80,192.0,0.489583,Eighth,E4_A4
1202,Left,1,49,80,192.0,0.239583,Sixteenth,C#3
1203,Left,1,57,80,192.25,0.239583,Sixteenth,A3
1204,Left,1,45,80,192.5,0.239583,Sixteenth,A2
1205,Right,0,67,80,192.5,0.489583,Eighth,G4_C#4
1207,Left,1,57,80,192.75,0.239583,Sixteenth,A3
1208,Right,0,62,80,193.0,0.489583,Eighth,F#4_D4
1210,Left,1,57,80,193.25,0.239583,Sixteenth,A3
1211,Right,0,71,80,193.5,0.489583,Eighth,F#4_B4
1212,Left,1,50,80,193.5,0.239583,Sixteenth,D3
1214,Left,1,57,80,193.75,0.239583,Sixteenth,A3
1215,Right,0,69,80,194.0,0.489583,Eighth,E4_A4
1217,Left,1,49,80,194.0,0.239583,Sixteenth,C#3
1218,Left,1,57,80,194.25,0.239583,Sixteenth,A3
1220,Right,0,61,80,194.5,0.489583,Eighth,G4_C#4
1219,Left,1,45,80,194.5,0.239583,Sixteenth,A2
1222,Left,1,57,80,194.75,0.239583,Sixteenth,A3
1224,Right,0,66,80,195.0,0.489583,Eighth,F#4
1223,Left,1,50,80,195.0,0.989583,Quarter,D3
1225,Right,0,62,80,195.25,0.239583,Sixteenth,D4
1226,Right,0,71,80,195.5,0.489583,Eighth,F#4_B4
1228,Right,0,62,80,195.75,0.239583,Sixteenth,D4
1230,Left,1,52,80,196.0,0.989583,Quarter,E3
1229,Right,0,61,80,196.0,0.489583,Sixteenth,C#4_A4
1232,Right,0,64,80,196.25,0.239583,Sixteenth,E4
1233,Right,0,59,80,196.5,0.489583,Sixteenth,G#4_B3
1235,Right,0,62,80,196.75,0.239583,Sixteenth,D4
1237,Right,0,69,80,197.0,0.489583,Eighth,A4
1236,Left,1,57,80,197.0,0.239583,Sixteenth,A3
1238,Left,1,69,80,197.25,0.239583,Sixteenth,A4
1239,Left,1,67,80,197.5,0.239583,Sixteenth,G4_E4
1241,Left,1,69,80,197.75,0.239583,Sixteenth,A4
1242,Left,1,66,80,198.0,0.239583,Sixteenth,F#4_D4
1244,Left,1,69,80,198.25,0.239583,Sixteenth,A4
1245,Left,1,61,80,198.5,0.239583,Sixteenth,E4_C#4
1247,Left,1,69,80,198.75,0.239583,Sixteenth,A4
1248,Left,1,66,80,199.0,0.239583,Sixteenth,F#4_D4
1250,Right,0,78,80,199.0,0.489583,Eighth,F#5
1251,Left,1,69,80,199.25,0.239583,Sixteenth,A4
1253,Left,1,62,80,199.5,0.239583,Sixteenth,F#4_D4
1252,Right,0,83,80,199.5,0.489583,Eighth,B5
1255,Left,1,69,80,199.75,0.239583,Sixteenth,A4
1256,Right,0,81,80,200.0,0.489583,Eighth,A5
1257,Left,1,61,80,200.0,0.239583,Sixteenth,E4_C#4
1259,Left,1,69,80,200.25,0.239583,Sixteenth,A4
1262,Right,0,73,80,200.5,0.489583,Eighth,G5_C#5
1260,Left,1,57,80,200.5,0.239583,Sixteenth,E4_A3
1264,Left,1,69,80,200.75,0.239583,Sixteenth,A4
1265,Right,0,78,80,201.0,0.489583,Eighth,F#5
1266,Left,1,66,80,201.0,0.239583,Sixteenth,F#4_D4
1268,Left,1,69,80,201.25,0.239583,Sixteenth,A4
1270,Right,0,83,80,201.5,0.489583,Eighth,B5
1269,Left,1,66,80,201.5,0.239583,Sixteenth,F#4_D4
1272,Left,1,69,80,201.75,0.239583,Sixteenth,A4
1275,Right,0,81,80,202.0,0.489583,Eighth,A5
1273,Left,1,64,80,202.0,0.239583,Sixteenth,E4_C#4
1276,Left,1,69,80,202.25,0.239583,Sixteenth,A4
1277,Right,0,73,80,202.5,0.489583,Eighth,G5_C#5
1278,Left,1,64,80,202.5,0.239583,Sixteenth,E4_A3
1281,Left,1,69,80,202.75,0.239583,Sixteenth,A4
1282,Right,0,74,80,203.0,0.489583,Eighth,F#5_D5
1283,Left,1,62,80,203.0,0.239583,Sixteenth,F#4_D4
1286,Left,1,74,81,203.25,0.239583,Sixteenth,D5
1287,Right,0,86,82,203.5,0.989583,Quarter,D6
1288,Left,1,67,82,203.5,0.239583,Sixteenth,G4_E4
1290,Left,1,74,83,203.75,0.239583,Sixteenth,D5
1291,Left,1,69,85,204.0,0.239583,Sixteenth,F#4_A4
1293,Left,1,74,86,204.25,0.239583,Sixteenth,D5
1294,Left,1,71,87,204.5,0.239583,Sixteenth,G4_B4
1295,Right,0,86,87,204.5,0.989583,Quarter,D6
1297,Left,1,74,89,204.75,0.239583,Sixteenth,D5
1298,Left,1,69,90,205.0,0.239583,Sixteenth,C5_A4
1300,Left,1,74,91,205.25,0.239583,Sixteenth,D5
1301,Left,1,68,93,205.5,0.239583,Sixteenth,G#4_B4
1303,Right,0,86,93,205.5,0.489583,Eighth,D6
1304,Left,1,74,94,205.75,0.239583,Sixteenth,D5
1307,Right,0,86,95,206.0,0.489583,Eighth,D6
1305,Left,1,72,95,206.0,0.239583,Sixteenth,C5_A4
1308,Left,1,74,97,206.25,0.239583,Sixteenth,D5
1309,Left,1,66,98,206.5,0.239583,Sixteenth,F#4_A#4
1310,Right,0,86,98,206.5,0.489583,Eighth,D6
1312,Left,1,74,99,206.75,0.239583,Sixteenth,D5
1314,Left,1,67,80,207.0,0.489583,Eighth,G4_B4
1313,Right,0,83,80,207.0,0.239583,Sixteenth,B5
1316,Right,0,85,80,207.125,0.239583,Sixteenth,C#6
1317,Right,0,83,80,207.25,0.239583,Sixteenth,B5
1318,Right,0,82,80,207.375,0.239583,Sixteenth,A#5
1319,Right,0,83,80,207.5,0.239583,Sixteenth,B5
1320,Right,0,85,80,207.625,0.239583,Sixteenth,C#6
1321,Right,0,86,80,207.75,0.239583,Sixteenth,D6
1322,Right,0,85,80,207.875,0.239583,Sixteenth,C#6
1323,Right,0,83,80,208.0,0.239583,Sixteenth,B5
1324,Left,1,67,80,208.0,0.489583,Eighth,G4_D5_B4
1327,Right,0,85,80,208.125,0.239583,Sixteenth,C#6
1328,Right,0,83,80,208.25,0.239583,Sixteenth,B5
1329,Right,0,82,80,208.375,0.239583,Sixteenth,A#5
1330,Right,0,83,80,208.5,0.239583,Sixteenth,B5
1331,Right,0,85,80,208.625,0.239583,Sixteenth,C#6
1332,Right,0,86,80,208.75,0.239583,Sixteenth,D6
1333,Right,0,85,80,208.875,0.239583,Sixteenth,C#6
1336,Right,0,86,81,209.0,0.239583,Sixteenth,D6
1334,Left,1,68,81,209.0,0.489583,Eighth,G#4_F5_D5_B4
1339,Right,0,88,82,209.125,0.239583,Sixteenth,E6
1340,Right,0,86,83,209.25,0.239583,Sixteenth,D6
1341,Right,0,85,85,209.375,0.239583,Sixteenth,C#6
1342,Right,0,86,86,209.5,0.239583,Sixteenth,D6
1343,Right,0,88,87,209.625,0.239583,Sixteenth,E6
1344,Right,0,89,89,209.75,0.239583,Sixteenth,F6
1345,Right,0,88,90,209.875,0.239583,Sixteenth,E6
1349,Right,0,86,91,210.0,0.239583,Sixteenth,D6
1346,Left,1,71,91,210.0,0.489583,Eighth,G#4_F5_D5_B4
1351,Right,0,88,93,210.125,0.239583,Sixteenth,E6
1352,Right,0,86,94,210.25,0.239583,Sixteenth,D6
1353,Right,0,85,95,210.375,0.239583,Sixteenth,C#6
1354,Right,0,86,97,210.5,0.239583,Sixteenth,D6
1355,Right,0,88,98,210.625,0.239583,Sixteenth,E6
1356,Right,0,89,99,210.75,0.239583,Sixteenth,F6
1357,Right,0,88,110,210.875,0.239583,Sixteenth,E6
1358,Right,0,86,110,211.0,0.239583,Sixteenth,D6
1359,Left,1,69,110,211.0,0.489583,Eighth,F#5_D5_A4
1362,Right,0,88,110,211.125,0.239583,Sixteenth,E6
1363,Right,0,86,110,211.25,0.239583,Sixteenth,D6
1364,Right,0,85,110,211.375,0.239583,Sixteenth,C#6
1365,Right,0,86,110,211.5,0.239583,Sixteenth,D6
1366,Right,0,88,110,211.625,0.239583,Sixteenth,E6
1367,Right,0,90,110,211.75,0.239583,Sixteenth,F#6
1368,Right,0,88,110,211.875,0.239583,Sixteenth,E6
1369,Right,0,86,110,212.0,0.239583,Sixteenth,D6
1370,Right,0,85,110,212.125,0.239583,Sixteenth,C#6
1371,Right,0,83,110,212.25,0.239583,Sixteenth,B5
1372,Right,0,81,110,212.375,0.239583,Sixteenth,A5
1373,Right,0,79,110,212.5,0.239583,Sixteenth,G5
1374,Right,0,78,110,212.625,0.239583,Sixteenth,F#5
1375,Right,0,76,110,212.75,0.239583,Sixteenth,E5
1376,Left,1,57,110,213.0,1.989583,Half,A4_A3
1377,Right,0,74,110,213.0,0.989583,ThirtySecond,F#5_D5
1380,Right,0,76,110,214.0,0.989583,Quarter,E5_C#5
1382,Left,1,67,110,214.0,0.989583,Quarter,G4
1383,Left,1,62,110,215.0,0.489583,Eighth,F#4_D4
1384,Right,0,74,110,215.0,0.239583,Sixteenth,D5
1386,Right,0,76,110,215.125,0.239583,Sixteenth,E5
1387,Right,0,78,110,215.25,0.239583,Sixteenth,F#5
1388,Right,0,79,110,215.375,0.239583,Sixteenth,G5
1389,Right,0,81,110,215.5,0.239583,Sixteenth,A5
1390,Right,0,79,110,215.625,0.239583,Sixteenth,G5
1391,Right,0,78,110,215.75,0.239583,Sixteenth,F#5
1392,Right,0,76,110,215.875,0.239583,Sixteenth,E5
1393,Right,0,74,110,216.0,0.239583,Sixteenth,D5
1394,Right,0,73,110,216.125,0.239583,Sixteenth,C#5
1395,Right,0,71,110,216.25,0.239583,Sixteenth,B4
1396,Right,0,69,110,216.375,0.239583,Sixteenth,A4
1397,Right,0,67,110,216.5,0.239583,Sixteenth,G4
1398,Right,0,66,110,216.625,0.239583,Sixteenth,F#4
1399,Right,0,64,110,216.75,0.239583,Sixteenth,E4
1400,Left,1,45,110,217.0,1.989583,Half,A3_A2
1401,Right,0,66,110,217.0,0.989583,Quarter,F#4_D4
1406,Left,1,55,110,218.0,0.989583,Quarter,G3
1404,Right,0,64,110,218.0,0.989583,Quarter,E4_C#4
1407,Right,0,62,80,219.0,0.239583,Sixteenth,D4
1408,Left,1,54,80,219.0,0.489583,Eighth,F#3_D3
1410,Right,0,57,80,219.25,0.239583,Sixteenth,A3
1411,Right,0,62,80,219.5,0.239583,Sixteenth,F#4_D4
1413,Right,0,57,80,219.75,0.239583,Sixteenth,A3
1414,Right,0,64,80,220.0,0.239583,Sixteenth,G4_E4
1416,Right,0,57,80,220.25,0.239583,Sixteenth,A3
1417,Right,0,68,80,220.5,0.239583,Sixteenth,G#4_F4
1419,Right,0,57,80,220.75,0.239583,Sixteenth,A3
1420,Right,0,66,80,221.0,2.489583,Half,F#4_A4
1422,Right,0,57,80,221.25,0.489583,Eighth,A3
1423,Left,1,38,80,221.5,0.489583,Eighth,D2
1424,Right,0,57,80,221.75,0.489583,Eighth,A3
1425,Left,1,42,80,222.0,0.489583,Eighth,F#2
1426,Right,0,57,80,222.25,0.489583,Eighth,A3
1427,Left,1,45,80,222.5,0.489583,Eighth,A2
1428,Right,0,57,80,222.75,0.489583,Eighth,A3
1429,Left,1,50,80,223.0,2.489583,Half,D3
1430,Right,0,57,80,223.25,0.239583,Sixteenth,A3
1431,Right,0,62,80,223.5,0.489583,Sixteenth,F#4_D4
1433,Right,0,57,80,223.75,0.239583,Sixteenth,A3
1434,Right,0,67,80,224.0,0.489583,Sixteenth,G4_B4
1436,Right,0,57,80,224.25,0.239583,Sixteenth,A3
1437,Right,0,66,80,224.5,0.489583,Sixteenth,F#4_A4
1439,Right,0,57,80,224.75,0.239583,Sixteenth,A3
1440,Right,0,67,80,225.0,2.489583,Half,G4_E4
1442,Right,0,57,80,225.25,0.489583,Eighth,A3
1443,Left,1,50,80,225.5,0.489583,Eighth,D3
1444,Right,0,57,80,225.75,0.489583,Eighth,A3
1445,Left,1,49,80,226.0,0.489583,Eighth,C#3
1446,Right,0,57,80,226.25,0.489583,Eighth,A3
1447,Left,1,47,80,226.5,0.489583,Eighth,B2
1448,Right,0,57,80,226.75,0.489583,Eighth,A3
1449,Left,1,49,80,227.0,0.989583,Quarter,C#3
1450,Right,0,57,80,227.25,0.239583,Sixteenth,A3
1451,Right,0,67,80,227.5,0.489583,Eighth,G4_E4
1453,Right,0,57,80,227.75,0.239583,Sixteenth,A3
1454,Right,0,69,80,228.0,0.489583,Eighth,F#4_A4
1455,Left,1,45,80,228.0,1.489583,DottedQuarter,A2
1457,Right,0,57,80,228.25,0.239583,Sixteenth,A3
1458,Right,0,67,80,228.5,0.489583,Eighth,G4_E4
1460,Right,0,57,80,228.75,0.239583,Sixteenth,A3
1461,Right,0,62,80,229.0,2.489583,Half,F#4_D4
1463,Right,0,57,80,229.25,0.239583,Sixteenth,A3
1464,Left,1,46,80,229.5,0.489583,Eighth,A#2
1465,Right,0,58,80,229.75,0.239583,Sixteenth,A#3
1466,Left,1,47,80,230.0,0.489583,Eighth,B2
1467,Right,0,59,80,230.25,0.239583,Sixteenth,B3
1468,Left,1,42,80,230.5,0.489583,Eighth,F#2
1469,Right,0,54,80,230.75,0.239583,Sixteenth,F#3
1470,Left,1,43,80,231.0,0.489583,Eighth,G2
1471,Right,0,55,80,231.25,0.239583,Sixteenth,G3
1474,Left,1,44,80,231.5,0.489583,Eighth,G#2
1472,Right,0,62,80,231.5,0.489583,Sixteenth,E4_D4
1475,Right,0,56,80,231.75,0.239583,Sixteenth,G#3
1476,Right,0,62,80,232.0,0.489583,Sixteenth,E4_D4
1478,Left,1,45,80,232.0,1.489583,DottedQuarter,A2
1479,Right,0,57,80,232.25,0.239583,Sixteenth,A3
1480,Right,0,67,80,232.5,0.489583,Eighth,G4_C#4
1482,Right,0,57,80,232.75,0.239583,Sixteenth,A3
1483,Right,0,66,80,233.0,2.489583,Half,F#4_D4
1485,Right,0,57,80,233.25,0.239583,Sixteenth,A3
1486,Left,1,46,80,233.5,0.489583,Eighth,A#2
1487,Right,0,58,80,233.75,0.239583,Sixteenth,A#3
1488,Left,1,47,80,234.0,0.489583,Eighth,B2
1489,Right,0,59,80,234.25,0.239583,Sixteenth,B3
1490,Left,1,42,80,234.5,0.489583,Eighth,F#2
1491,Right,0,54,80,234.75,0.239583,Sixteenth,F#3
1492,Left,1,43,80,235.0,0.489583,Eighth,G2
1493,Right,0,55,80,235.25,0.239583,Sixteenth,G3
1495,Left,1,44,80,235.5,0.489583,Eighth,G#2
1494,Right,0,64,80,235.5,0.489583,Eighth,E4_D4
1497,Right,0,56,80,235.75,0.239583,Sixteenth,G#3
1498,Left,1,45,80,236.0,1.489583,DottedQuarter,A2
1499,Right,0,62,80,236.0,0.489583,Sixteenth,E4_D4
1501,Right,0,57,80,236.25,0.239583,Sixteenth,A3
1502,Right,0,61,80,236.5,0.489583,Sixteenth,G4_C#4
1504,Right,0,57,80,236.75,0.239583,Sixteenth,A3
1505,Right,0,62,80,237.0,2.489583,Half,F#4_D4
1507,Right,0,57,80,237.25,0.239583,Sixteenth,A3
1508,Left,1,46,80,237.5,0.489583,Eighth,A#2
1509,Right,0,58,80,237.75,0.239583,Sixteenth,A#3
1510,Left,1,47,80,238.0,0.489583,Eighth,B2
1511,Right,0,59,80,238.25,0.239583,Sixteenth,B3
1512,Left,1,48,80,238.5,0.489583,Eighth,C3
1513,Right,0,60,80,238.75,0.239583,Sixteenth,C4
1514,Left,1,47,80,239.0,0.489583,Eighth,B2
1515,Right,0,59,80,239.25,0.239583,Sixteenth,B3
1516,Right,0,64,80,239.5,0.489583,Sixteenth,G4_E4
1518,Left,1,43,80,239.5,0.489583,Eighth,G2
1519,Right,0,59,80,239.75,0.239583,Sixteenth,B3
1522,Left,1,45,80,240.0,0.489583,Eighth,A2
1520,Right,0,66,80,240.0,0.489583,Eighth,F#4_D4
1523,Right,0,57,80,240.25,0.239583,Sixteenth,A3
1524,Right,0,61,80,240.5,0.489583,Sixteenth,E4_C#4
1525,Left,1,33,80,240.5,0.489583,Eighth,A1
1527,Right,0,55,80,240.75,0.239583,Sixteenth,G3
1528,Right,0,62,80,241.0,1.489583,DottedQuarter,F#3_D4
1529,Left,1,38,80,241.0,3.989583,Whole,D2
1531,Right,0,57,80,241.25,0.239583,Sixteenth,A3
1532,Right,0,54,80,241.5,0.239583,Sixteenth,F#3
1533,Right,0,57,80,241.75,0.239583,Sixteenth,A3
1534,Right,0,54,80,242.0,0.239583,Sixteenth,F#3
1535,Right,0,57,80,242.25,0.239583,Sixteenth,A3
1538,Left,1,50,80,242.5,0.489583,Eighth,D3
1536,Right,0,55,80,242.5,0.489583,Sixteenth,G3_E4
1539,Right,0,61,80,242.75,0.239583,Sixteenth,C#4
1540,Left,1,50,80,243.0,1.489583,DottedQuarter,D3
1541,Right,0,57,80,243.0,1.489583,Sixteenth,F#4_A3
1543,Right,0,62,80,243.25,0.239583,Sixteenth,D4
1544,Right,0,57,80,243.5,0.239583,Sixteenth,A3
1545,Right,0,62,80,243.75,0.239583,Sixteenth,D4
1546,Right,0,57,80,244.0,0.239583,Sixteenth,A3
1547,Right,0,62,80,244.25,0.239583,Sixteenth,D4
1548,Left,1,50,80,244.5,0.489583,Eighth,D3
1549,Right,0,55,80,244.5,0.489583,Sixteenth,G3_E4
1551,Right,0,61,80,244.75,0.239583,Sixteenth,C#4
1553,Left,1,50,80,245.0,1.489583,DottedQuarter,F#3_D3
1552,Right,0,62,80,245.0,1.489583,DottedQuarter,D4
1555,Left,1,57,80,245.25,0.239583,Sixteenth,A3
1556,Left,1,54,80,245.5,0.239583,Sixteenth,F#3
1557,Left,1,57,80,245.75,0.239583,Sixteenth,A3
1558,Left,1,54,80,246.0,0.239583,Sixteenth,F#3
1559,Left,1,57,80,246.25,0.239583,Sixteenth,A3
1560,Left,1,55,80,246.5,0.989583,Sixteenth,G3_D3
1562,Right,0,64,90,246.5,0.489583,Eighth,E4_C#5
1564,Left,1,57,80,246.75,0.239583,Sixteenth,A3
1565,Right,0,74,80,247.0,0.489583,Eighth,D5_D4
1567,Left,1,54,80,247.0,0.239583,Sixteenth,F#3
1568,Left,1,57,80,247.25,0.239583,Sixteenth,A3
1570,Right,0,64,90,247.5,0.489583,Eighth,E4_C#5
1569,Left,1,50,80,247.5,0.989583,Quarter,G3_D3
1573,Left,1,57,80,247.75,0.239583,Sixteenth,A3
1574,Right,0,74,80,248.0,0.489583,Eighth,D5_D4
1576,Left,1,54,80,248.0,0.239583,Sixteenth,F#3
1577,Left,1,57,80,248.25,0.239583,Sixteenth,A3
1580,Right,0,64,80,248.5,0.489583,Eighth,E4_C#5
1578,Left,1,55,80,248.5,0.489583,Sixteenth,G3_D3
1582,Right,0,74,80,248.625,0.239583,Sixteenth,D5
1584,Left,1,57,80,248.75,0.239583,Sixteenth,A3
1583,Right,0,71,80,248.75,0.239583,Sixteenth,B4
1585,Right,0,73,80,248.875,0.239583,Sixteenth,C#5
1586,Right,0,67,80,249.0,1.989583,Half,G4_E5
1588,Left,1,50,80,249.0,2.489583,Half,D3_C#4_A3
1591,Right,0,74,80,251.0,0.489583,Eighth,F#4_D5
1593,Left,1,62,80,251.0,0.489583,Eighth,D4
1594,Right,0,62,80,252.25,0.239583,Sixteenth,D4
1595,Right,0,74,80,252.5,0.239583,Sixteenth,D5
1596,Right,0,69,80,252.75,0.239583,Sixteenth,A4
1597,Right,0,70,80,253.0,0.239583,Sixteenth,A#4
1598,Right,0,66,80,253.25,0.239583,Sixteenth,F#4
1600,Right,0,67,80,253.5,0.739583,DottedEighth,G4
1599,Left,1,43,80,253.5,1.489583,DottedQuarter,G2
1601,Left,1,46,80,253.75,1.239583,TiedQuarter-Sixteenth,A#2
1602,Left,1,50,80,254.0,0.989583,Quarter,D3
1603,Right,0,62,80,254.25,0.239583,Sixteenth,D4
1604,Right,0,74,80,254.5,0.239583,Sixteenth,D5
1605,Right,0,69,80,254.75,0.239583,Sixteenth,A4
1606,Right,0,70,80,255.0,0.239583,Sixteenth,A#4
1607,Right,0,66,80,255.25,0.239583,Sixteenth,F#4
1609,Left,1,55,80,255.5,1.489583,DottedQuarter,G3
1608,Right,0,67,80,255.5,0.739583,DottedEighth,G4
1610,Left,1,58,80,255.75,1.239583,TiedQuarter-Sixteenth,A#3
1611,Left,1,62,80,256.0,0.989583,Quarter,D4
1612,Right,0,67,80,256.25,0.239583,Sixteenth,G4
1613,Right,0,79,80,256.5,0.239583,Sixteenth,G5
1614,Right,0,74,80,256.75,0.239583,Sixteenth,D5
1615,Right,0,75,80,257.0,0.239583,Sixteenth,D#5
1616,Right,0,71,80,257.25,0.239583,Sixteenth,B4
1617,Left,1,43,80,257.5,1.489583,DottedQuarter,G2
1618,Right,0,72,80,257.5,0.739583,DottedEighth,C5
1619,Left,1,48,80,257.75,1.239583,TiedQuarter-Sixteenth,C3
1620,Left,1,51,80,258.0,0.989583,Quarter,D#3
1621,Right,0,67,80,258.25,0.239583,Sixteenth,G4
1622,Right,0,79,80,258.5,0.239583,Sixteenth,G5
1623,Right,0,74,80,258.75,0.239583,Sixteenth,D5
1624,Right,0,75,80,259.0,0.239583,Sixteenth,D#5
1625,Right,0,71,80,259.25,0.239583,Sixteenth,B4
1627,Right,0,72,80,259.5,0.739583,DottedEighth,C5
1626,Left,1,55,80,259.5,1.989583,Half,G3
1628,Left,1,60,80,259.75,1.739583,DottedQuarter,C4
1629,Left,1,63,80,260.0,1.489583,DottedQuarter,D#4
1630,Right,0,86,70,260.25,0.239583,Sixteenth,D6
1631,Right,0,87,70,260.5,0.239583,Sixteenth,D#6
1632,Right,0,83,70,260.75,0.239583,Sixteenth,B5
1633,Right,0,84,70,261.0,0.489583,Eighth,C6
1634,Left,1,54,70,261.5,1.989583,Half,F#3
1635,Left,1,60,70,261.75,1.739583,DottedQuarter,C4
1636,Left,1,63,70,262.0,1.489583,DottedQuarter,D#4
1637,Right,0,74,70,262.25,0.239583,Sixteenth,D5
1638,Right,0,75,70,262.5,0.239583,Sixteenth,D#5
1639,Right,0,71,70,262.75,0.239583,Sixteenth,B4
1640,Right,0,72,70,263.0,0.489583,Eighth,C5
1641,Left,1,60,70,263.75,1.739583,DottedQuarter,C4
1642,Left,1,63,70,264.0,1.489583,DottedQuarter,D#4
1643,Right,0,86,70,264.25,0.239583,Sixteenth,D6
1644,Right,0,87,70,264.5,0.239583,Sixteenth,D#6
1645,Right,0,83,70,264.75,0.239583,Sixteenth,B5
1646,Right,0,84,70,265.0,0.489583,Eighth,C6
1647,Left,1,53,71,265.25,0.239583,Sixteenth,F3
1648,Left,1,63,73,265.5,0.239583,Sixteenth,D#4
1649,Left,1,59,75,265.75,0.239583,Sixteenth,B3
1650,Left,1,60,77,266.0,0.239583,Sixteenth,C4
1652,Left,1,56,79,266.25,0.239583,Sixteenth,G#3
1651,Right,0,65,79,266.25,0.239583,Sixteenth,F4
1653,Right,0,75,81,266.5,0.239583,Sixteenth,D#5
1654,Left,1,57,81,266.5,0.739583,DottedEighth,A3
1655,Right,0,71,83,266.75,0.239583,Sixteenth,B4
1656,Right,0,72,85,267.0,0.239583,Sixteenth,C5
1657,Right,0,68,87,267.25,0.239583,Sixteenth,G#4
1658,Left,1,53,87,267.25,0.239583,Sixteenth,F3
1659,Left,1,63,89,267.5,0.239583,Sixteenth,D#4
1660,Right,0,69,89,267.5,0.739583,DottedEighth,A4
1661,Left,1,59,91,267.75,0.239583,Sixteenth,B3
1662,Left,1,60,93,268.0,0.239583,Sixteenth,C4
1663,Left,1,56,95,268.25,0.239583,Sixteenth,G#3
1664,Right,0,65,95,268.25,0.239583,Sixteenth,F4
1666,Right,0,75,97,268.5,0.239583,Sixteenth,D#5
1665,Left,1,57,97,268.5,0.739583,DottedEighth,A3
1667,Right,0,71,99,268.75,0.239583,Sixteenth,B4
1668,Right,0,72,110,269.0,0.239583,Sixteenth,C5
1670,Right,0,68,110,269.25,0.239583,Sixteenth,G#4
1669,Left,1,53,110,269.25,0.239583,Sixteenth,F3
1671,Left,1,63,110,269.5,0.239583,Sixteenth,D#4
1672,Right,0,69,110,269.5,0.739583,DottedEighth,A4
1673,Left,1,59,110,269.75,0.239583,Sixteenth,B3
1674,Left,1,60,110,270.0,0.239583,Sixteenth,C4
1675,Left,1,56,110,270.25,0.239583,Sixteenth,G#3
1676,Left,1,57,110,270.5,0.239583,Sixteenth,A3
1677,Left,1,52,110,270.75,0.239583,Sixteenth,E3
1678,Left,1,53,110,271.0,0.239583,Sixteenth,F3
1679,Left,1,54,110,271.25,0.239583,Sixteenth,F#3
1680,Left,1,55,110,271.5,0.239583,Sixteenth,G3
1681,Left,1,51,110,271.75,0.239583,Sixteenth,D#3
1682,Left,1,53,110,272.0,0.239583,Sixteenth,F3
1683,Left,1,50,110,272.25,0.239583,Sixteenth,D3
1684,Left,1,51,110,272.5,0.239583,Sixteenth,D#3
1685,Left,1,48,110,272.75,0.239583,Sixteenth,C3
1686,Right,0,74,80,273.0,0.739583,DottedEighth,F5_D5
1688,Left,1,46,80,273.25,0.239583,Sixteenth,A#2
1689,Left,1,58,80,273.5,0.239583,Sixteenth,A#3
1690,Right,0,73,80,273.75,0.239583,Sixteenth,E5_C#5
1692,Right,0,77,80,274.0,0.739583,DottedEighth,F5_D5
1694,Left,1,58,80,274.25,0.239583,Sixteenth,A#3
1695,Left,1,70,80,274.5,0.239583,Sixteenth,A#4
1696,Right,0,76,80,274.75,0.239583,Sixteenth,E5_C#5
1698,Right,0,77,80,275.0,0.739583,DottedEighth,F5_D5
1700,Left,1,70,80,275.25,0.239583,Sixteenth,A#4
1701,Left,1,82,80,275.5,0.239583,Sixteenth,A#5
1702,Right,0,75,80,275.75,0.239583,Sixteenth,D#5_C5
1704,Right,0,72,80,276.0,0.239583,Sixteenth,D#5_C5
1706,Right,0,74,80,276.25,0.239583,Sixteenth,D5_A#4
1708,Right,0,74,80,276.5,0.239583,Sixteenth,D5_A#4
1710,Right,0,72,80,276.75,0.239583,Sixteenth,C5_A4
1712,Right,0,69,80,277.0,0.239583,Sixteenth,C5_A4
1714,Right,0,70,80,277.25,0.239583,Sixteenth,G4_A#4
1716,Right,0,67,80,277.5,0.239583,Sixteenth,G4_A#4
1718,Right,0,69,80,277.75,0.239583,Sixteenth,F4_A4
1720,Right,0,69,80,278.0,0.239583,Sixteenth,F4_A4
1722,Right,0,63,80,278.25,0.239583,Sixteenth,G4_D#4
1724,Right,0,67,80,278.5,0.239583,Sixteenth,G4_D#4
1726,Right,0,65,80,278.75,0.239583,Sixteenth,F4_D4
1728,Right,0,62,80,279.0,0.989583,Quarter,D4_B3
1730,Left,1,41,80,279.5,0.489583,Eighth,F2
1733,Left,1,41,80,280.0,0.489583,Eighth,F2
1731,Right,0,63,80,280.0,0.489583,Eighth,D#4_C4
1734,Left,1,41,80,280.5,0.489583,Eighth,F2
1735,Right,0,75,80,281.0,0.739583,DottedEighth,D#5_C5
1737,Left,1,41,80,281.25,0.239583,Sixteenth,F2
1738,Left,1,53,80,281.5,0.239583,Sixteenth,F3
1739,Right,0,74,79,281.75,0.239583,Sixteenth,D5_B4
1741,Right,0,75,79,282.0,0.739583,DottedEighth,D#5_C5
1743,Left,1,53,78,282.25,0.239583,Sixteenth,F3
1744,Left,1,65,78,282.5,0.239583,Sixteenth,F4
1745,Right,0,74,77,282.75,0.239583,Sixteenth,D5_B4
1747,Right,0,72,77,283.0,0.739583,DottedEighth,D#5_C5
1749,Left,1,54,77,283.25,0.239583,Sixteenth,F#3
1750,Left,1,66,76,283.5,0.239583,Sixteenth,F#4
1751,Right,0,71,76,283.75,0.239583,Sixteenth,D5_B4
1753,Right,0,72,75,284.0,0.739583,DottedEighth,D#5_C5
1755,Left,1,54,75,284.25,0.239583,Sixteenth,F#3
1756,Left,1,66,74,284.5,0.239583,Sixteenth,F#4
1757,Right,0,74,74,284.75,0.239583,Sixteenth,D5_B4
1759,Right,0,75,74,285.0,0.739583,DottedEighth,D#5_C5
1761,Left,1,55,73,285.25,0.239583,Sixteenth,G3
1762,Left,1,67,73,285.5,0.239583,Sixteenth,G4
1763,Right,0,74,72,285.75,0.239583,Sixteenth,D5_B4
1765,Right,0,75,72,286.0,0.739583,DottedEighth,D#5_C5
1767,Left,1,55,71,286.25,0.239583,Sixteenth,G3
1768,Left,1,67,71,286.5,0.239583,Sixteenth,G4
1769,Right,0,71,71,286.75,0.239583,Sixteenth,D5_B4
1771,Left,1,56,110,287.0,1.239583,TiedQuarter-Sixteenth,G#3_G#2
1773,Right,0,75,110,287.0,0.15625,TripletSixteenth,D#5
1774,Right,0,72,110,287.166667,0.15625,TripletSixteenth,C5
1775,Right,0,63,110,287.333333,0.15625,TripletSixteenth,D#4
1776,Right,0,75,110,287.5,0.15625,TripletSixteenth,D#5
1777,Right,0,72,110,287.666667,0.15625,TripletSixteenth,C5
1778,Right,0,63,110,287.833333,0.15625,TripletSixteenth,D#4
1779,Right,0,75,110,288.0,0.15625,TripletSixteenth,D#5
1780,Right,0,72,110,288.166667,0.15625,TripletSixteenth,C5
1781,Left,1,50,110,288.25,0.239583,Sixteenth,D3
1782,Right,0,63,110,288.333333,0.15625,TripletSixteenth,D#4
1783,Left,1,51,110,288.5,0.239583,Sixteenth,D#3
1784,Right,0,75,110,288.5,0.15625,TripletSixteenth,D#5
1785,Right,0,72,110,288.666667,0.15625,TripletSixteenth,C5
1786,Left,1,47,110,288.75,0.239583,Sixteenth,B2
1787,Right,0,63,110,288.833333,0.15625,TripletSixteenth,D#4
1789,Right,0,75,110,289.0,0.15625,TripletSixteenth,D#5
1788,Left,1,48,110,289.0,0.239583,Sixteenth,C3
1790,Right,0,72,110,289.166667,0.15625,TripletSixteenth,C5
1791,Left,1,43,110,289.25,0.239583,Sixteenth,G2
1792,Right,0,63,110,289.333333,0.15625,TripletSixteenth,D#4
1794,Right,0,75,110,289.5,0.15625,TripletSixteenth,D#5
1793,Left,1,44,110,289.5,0.739583,DottedEighth,G#2
1795,Right,0,72,110,289.666667,0.15625,TripletSixteenth,C5
1796,Right,0,63,110,289.833333,0.15625,TripletSixteenth,D#4
1797,Right,0,75,110,290.0,0.15625,TripletSixteenth,D#5
1798,Right,0,72,110,290.166667,0.15625,TripletSixteenth,C5
1799,Left,1,50,110,290.25,0.239583,Sixteenth,D3
1800,Right,0,63,110,290.333333,0.15625,TripletSixteenth,D#4
1801,Left,1,51,110,290.5,0.239583,Sixteenth,D#3
1802,Right,0,75,110,290.5,0.15625,TripletSixteenth,D#5
1803,Right,0,72,110,290.666667,0.15625,TripletSixteenth,C5
1804,Left,1,47,110,290.75,0.239583,Sixteenth,B2
1805,Right,0,63,110,290.833333,0.15625,TripletSixteenth,D#4
1807,Right,0,75,110,291.0,0.15625,TripletSixteenth,D#5
1806,Left,1,48,110,291.0,0.239583,Sixteenth,C3
1808,Right,0,72,110,291.166667,0.15625,TripletSixteenth,C5
1809,Left,1,43,110,291.25,0.239583,Sixteenth,G2
1810,Right,0,63,110,291.333333,0.15625,TripletSixteenth,D#4
1811,Right,0,75,110,291.5,0.15625,TripletSixteenth,D#5
1812,Left,1,44,110,291.5,0.739583,DottedEighth,G#2
1813,Right,0,72,110,291.666667,0.15625,TripletSixteenth,C5
1814,Right,0,63,110,291.833333,0.15625,TripletSixteenth,D#4
1815,Right,0,75,110,292.0,0.15625,TripletSixteenth,D#5
1816,Right,0,72,110,292.166667,0.15625,TripletSixteenth,C5
1817,Left,1,48,110,292.25,0.239583,Sixteenth,C3
1818,Right,0,63,110,292.333333,0.15625,TripletSixteenth,D#4
1819,Left,1,44,110,292.5,0.239583,Sixteenth,G#2
1820,Right,0,75,110,292.5,0.15625,TripletSixteenth,D#5
1821,Right,0,72,110,292.666667,0.15625,TripletSixteenth,C5
1822,Left,1,43,110,292.75,0.239583,Sixteenth,G2
1823,Right,0,63,110,292.833333,0.15625,TripletSixteenth,D#4
1824,Left,1,42,110,293.0,0.239583,Sixteenth,F#2
1825,Right,0,74,110,293.0,0.15625,TripletSixteenth,D5
1826,Right,0,72,110,293.166667,0.15625,TripletSixteenth,C5
1827,Left,1,38,110,293.25,0.239583,Sixteenth,D2
1828,Right,0,62,110,293.333333,0.15625,TripletSixteenth,D4
1830,Right,0,74,110,293.5,0.15625,TripletSixteenth,D5
1829,Left,1,42,110,293.5,0.239583,Sixteenth,F#2
1831,Right,0,72,110,293.666667,0.15625,TripletSixteenth,C5
1832,Left,1,45,110,293.75,0.239583,Sixteenth,A2
1833,Right,0,62,110,293.833333,0.15625,TripletSixteenth,D4
1834,Left,1,50,110,294.0,0.239583,Sixteenth,D3
1835,Right,0,74,110,294.0,0.15625,TripletSixteenth,D5
1836,Right,0,72,110,294.166667,0.15625,TripletSixteenth,C5
1837,Left,1,52,110,294.25,0.239583,Sixteenth,E3
1838,Right,0,62,110,294.333333,0.15625,TripletSixteenth,D4
1840,Right,0,74,110,294.5,0.15625,TripletSixteenth,D5
1839,Left,1,54,110,294.5,0.239583,Sixteenth,F#3
1841,Right,0,72,110,294.666667,0.15625,TripletSixteenth,C5
1842,Left,1,55,110,294.75,0.239583,Sixteenth,G3
1843,Right,0,62,110,294.833333,0.15625,TripletSixteenth,D4
1844,Right,0,74,110,295.0,0.15625,TripletSixteenth,D5
1845,Left,1,57,110,295.0,0.239583,Sixteenth,A3
1846,Right,0,72,110,295.166667,0.15625,TripletSixteenth,C5
1847,Left,1,55,110,295.25,0.239583,Sixteenth,G3
1848,Right,0,62,110,295.333333,0.15625,TripletSixteenth,D4
1849,Left,1,54,110,295.5,0.239583,Sixteenth,F#3
1850,Right,0,74,110,295.5,0.15625,TripletSixteenth,D5
1851,Right,0,72,110,295.666667,0.15625,TripletSixteenth,C5
1852,Left,1,51,110,295.75,0.239583,Sixteenth,D#3
1853,Right,0,62,110,295.833333,0.15625,TripletSixteenth,D4
1854,Left,1,50,110,296.0,0.239583,Sixteenth,D3
1855,Right,0,74,110,296.0,0.15625,TripletSixteenth,D5
1856,Right,0,72,110,296.166667,0.15625,TripletSixteenth,C5
1857,Left,1,48,110,296.25,0.239583,Sixteenth,C3
1858,Right,0,62,110,296.333333,0.15625,TripletSixteenth,D4
1860,Left,1,46,110,296.5,0.239583,Sixteenth,A#2
1859,Right,0,74,110,296.5,0.15625,TripletSixteenth,D5
1861,Right,0,72,110,296.666667,0.15625,TripletSixteenth,C5
1862,Left,1,45,110,296.75,0.239583,Sixteenth,A2
1863,Right,0,62,110,296.833333,0.15625,TripletSixteenth,D4
1864,Right,0,74,110,297.0,0.15625,TripletSixteenth,D5
1865,Left,1,43,110,297.0,1.239583,TiedQuarter-Sixteenth,G2
1866,Right,0,70,110,297.166667,0.15625,TripletSixteenth,A#4
1867,Right,0,62,110,297.333333,0.15625,TripletSixteenth,D4
1868,Right,0,74,110,297.5,0.15625,TripletSixteenth,D5
1869,Right,0,70,110,297.666667,0.15625,TripletSixteenth,A#4
1870,Right,0,67,110,297.833333,0.15625,TripletSixteenth,G4
1871,Right,0,74,110,298.0,0.15625,TripletSixteenth,D5
1872,Right,0,70,110,298.166667,0.15625,TripletSixteenth,A#4
1873,Left,1,61,110,298.25,0.239583,Sixteenth,C#4
1874,Right,0,67,110,298.333333,0.15625,TripletSixteenth,G4
1875,Right,0,74,110,298.5,0.15625,TripletSixteenth,D5
1876,Left,1,62,110,298.5,0.239583,Sixteenth,D4
1877,Right,0,70,110,298.666667,0.15625,TripletSixteenth,A#4
1878,Left,1,57,110,298.75,0.239583,Sixteenth,A3
1879,Right,0,67,110,298.833333,0.15625,TripletSixteenth,G4
1880,Right,0,74,110,299.0,0.15625,TripletSixteenth,D5
1881,Left,1,58,110,299.0,0.239583,Sixteenth,A#3
1882,Right,0,70,110,299.166667,0.15625,TripletSixteenth,A#4
1883,Left,1,54,110,299.25,0.239583,Sixteenth,F#3
1884,Right,0,67,110,299.333333,0.15625,TripletSixteenth,G4
1886,Left,1,55,110,299.5,0.739583,DottedEighth,G3
1885,Right,0,74,110,299.5,0.15625,TripletSixteenth,D5
1887,Right,0,70,110,299.666667,0.15625,TripletSixteenth,A#4
1888,Right,0,67,110,299.833333,0.15625,TripletSixteenth,G4
1889,Right,0,74,110,300.0,0.15625,TripletSixteenth,D5
1890,Right,0,70,110,300.166667,0.15625,TripletSixteenth,A#4
1891,Left,1,61,110,300.25,0.239583,Sixteenth,C#4
1892,Right,0,67,110,300.333333,0.15625,TripletSixteenth,G4
1893,Left,1,62,110,300.5,0.239583,Sixteenth,D4
1894,Right,0,74,110,300.5,0.15625,TripletSixteenth,D5
1895,Right,0,70,110,300.666667,0.15625,TripletSixteenth,A#4
1896,Left,1,57,110,300.75,0.239583,Sixteenth,A3
1897,Right,0,67,110,300.833333,0.15625,TripletSixteenth,G4
1899,Right,0,74,110,301.0,0.15625,TripletSixteenth,D5
1898,Left,1,58,110,301.0,0.239583,Sixteenth,A#3
1900,Right,0,70,110,301.166667,0.15625,TripletSixteenth,A#4
1901,Left,1,54,110,301.25,0.239583,Sixteenth,F#3
1902,Right,0,67,110,301.333333,0.15625,TripletSixteenth,G4
1904,Right,0,74,110,301.5,0.15625,TripletSixteenth,D5
1903,Left,1,55,110,301.5,0.739583,DottedEighth,G3
1905,Right,0,70,110,301.666667,0.15625,TripletSixteenth,A#4
1906,Right,0,67,110,301.833333,0.15625,TripletSixteenth,G4
1907,Right,0,74,110,302.0,0.15625,TripletSixteenth,D5
1908,Right,0,70,110,302.166667,0.15625,TripletSixteenth,A#4
1909,Left,1,58,110,302.25,0.239583,Sixteenth,A#3
1910,Right,0,67,110,302.333333,0.15625,TripletSixteenth,G4
1912,Left,1,55,110,302.5,0.239583,Sixteenth,G3
1911,Right,0,74,110,302.5,0.15625,TripletSixteenth,D5
1913,Right,0,70,110,302.666667,0.15625,TripletSixteenth,A#4
1914,Left,1,53,110,302.75,0.239583,Sixteenth,F3
1915,Right,0,67,110,302.833333,0.15625,TripletSixteenth,G4
1917,Left,1,52,110,303.0,0.239583,Sixteenth,E3
1916,Right,0,72,110,303.0,0.15625,TripletSixteenth,C5
1918,Right,0,70,110,303.166667,0.15625,TripletSixteenth,A#4
1919,Left,1,48,110,303.25,0.239583,Sixteenth,C3
1920,Right,0,67,110,303.333333,0.15625,TripletSixteenth,G4
1922,Left,1,52,110,303.5,0.239583,Sixteenth,E3
1921,Right,0,72,110,303.5,0.15625,TripletSixteenth,C5
1923,Right,0,70,110,303.666667,0.15625,TripletSixteenth,A#4
1924,Left,1,55,110,303.75,0.239583,Sixteenth,G3
1925,Right,0,67,110,303.833333,0.15625,TripletSixteenth,G4
1927,Left,1,60,110,304.0,0.239583,Sixteenth,C4
1926,Right,0,72,110,304.0,0.15625,TripletSixteenth,C5
1928,Right,0,70,110,304.166667,0.15625,TripletSixteenth,A#4
1929,Left,1,62,110,304.25,0.239583,Sixteenth,D4
1930,Right,0,67,110,304.333333,0.15625,TripletSixteenth,G4
1932,Left,1,64,110,304.5,0.239583,Sixteenth,E4
1931,Right,0,72,110,304.5,0.15625,TripletSixteenth,C5
1933,Right,0,70,110,304.666667,0.15625,TripletSixteenth,A#4
1934,Left,1,65,110,304.75,0.239583,Sixteenth,F4
1935,Right,0,67,110,304.833333,0.15625,TripletSixteenth,G4
1937,Right,0,72,110,305.0,0.15625,TripletSixteenth,C5
1936,Left,1,67,110,305.0,0.239583,Sixteenth,G4
1938,Right,0,70,110,305.166667,0.15625,TripletSixteenth,A#4
1939,Left,1,65,110,305.25,0.239583,Sixteenth,F4
1940,Right,0,67,110,305.333333,0.15625,TripletSixteenth,G4
1942,Right,0,76,110,305.5,0.15625,TripletSixteenth,E5
1941,Left,1,64,110,305.5,0.239583,Sixteenth,E4
1943,Right,0,71,110,305.666667,0.15625,TripletSixteenth,B4
1944,Left,1,61,110,305.75,0.239583,Sixteenth,C#4
1945,Right,0,67,110,305.833333,0.15625,TripletSixteenth,G4
1947,Left,1,60,110,306.0,0.239583,Sixteenth,C4
1946,Right,0,76,110,306.0,0.15625,TripletSixteenth,E5
1948,Right,0,71,110,306.166667,0.15625,TripletSixteenth,B4
1949,Left,1,58,110,306.25,0.239583,Sixteenth,A#3
1950,Right,0,67,110,306.333333,0.15625,TripletSixteenth,G4
1951,Right,0,76,110,306.5,0.15625,TripletSixteenth,E5
1952,Left,1,56,110,306.5,0.239583,Sixteenth,G#3
1953,Right,0,71,110,306.666667,0.15625,TripletSixteenth,B4
1954,Left,1,55,110,306.75,0.239583,Sixteenth,G3
1955,Right,0,67,110,306.833333,0.15625,TripletSixteenth,G4
1956,Right,0,77,110,307.0,0.15625,TripletSixteenth,F5
1957,Left,1,53,110,307.0,0.239583,Sixteenth,F3
1958,Right,0,68,110,307.166667,0.15625,TripletSixteenth,G#4
1959,Left,1,41,110,307.25,0.239583,Sixteenth,F2
1960,Right,0,65,110,307.333333,0.15625,TripletSixteenth,F4
1961,Left,1,44,110,307.5,0.239583,Sixteenth,G#2
1962,Right,0,77,110,307.5,0.15625,TripletSixteenth,F5
1963,Right,0,68,110,307.666667,0.15625,TripletSixteenth,G#4
1964,Left,1,48,110,307.75,0.239583,Sixteenth,C3
1965,Right,0,65,110,307.833333,0.15625,TripletSixteenth,F4
1966,Left,1,53,110,308.0,0.239583,Sixteenth,F3
1967,Right,0,77,110,308.0,0.15625,TripletSixteenth,F5
1968,Right,0,68,110,308.166667,0.15625,TripletSixteenth,G#4
1969,Left,1,55,110,308.25,0.239583,Sixteenth,G3
1970,Right,0,65,110,308.333333,0.15625,TripletSixteenth,F4
1971,Right,0,77,110,308.5,0.15625,TripletSixteenth,F5
1972,Left,1,56,110,308.5,0.239583,Sixteenth,G#3
1973,Right,0,68,110,308.666667,0.15625,TripletSixteenth,G#4
1974,Left,1,58,110,308.75,0.239583,Sixteenth,A#3
1975,Right,0,65,110,308.833333,0.15625,TripletSixteenth,F4
1976,Left,1,60,110,309.0,0.239583,Sixteenth,C4
1977,Right,0,77,110,309.0,0.15625,TripletSixteenth,F5
1978,Right,0,69,110,309.166667,0.15625,TripletSixteenth,A4
1979,Left,1,58,110,309.25,0.239583,Sixteenth,A#3
1980,Right,0,65,110,309.333333,0.15625,TripletSixteenth,F4
1982,Right,0,75,110,309.5,0.15625,TripletSixteenth,D#5
1981,Left,1,57,110,309.5,0.239583,Sixteenth,A3
1983,Right,0,69,110,309.666667,0.15625,TripletSixteenth,A4
1984,Left,1,55,110,309.75,0.239583,Sixteenth,G3
1985,Right,0,65,110,309.833333,0.15625,TripletSixteenth,F4
1986,Left,1,53,110,310.0,0.239583,Sixteenth,F3
1987,Right,0,75,110,310.0,0.15625,TripletSixteenth,D#5
1988,Right,0,69,110,310.166667,0.15625,TripletSixteenth,A4
1989,Left,1,51,110,310.25,0.239583,Sixteenth,D#3
1990,Right,0,65,110,310.333333,0.15625,TripletSixteenth,F4
1991,Left,1,50,110,310.5,0.239583,Sixteenth,D3
1992,Right,0,75,110,310.5,0.15625,TripletSixteenth,D#5
1993,Right,0,69,110,310.666667,0.15625,TripletSixteenth,A4
1994,Left,1,48,110,310.75,0.239583,Sixteenth,C3
1995,Right,0,65,110,310.833333,0.15625,TripletSixteenth,F4
1997,Right,0,75,110,311.0,0.15625,TripletSixteenth,D#5
1996,Left,1,46,110,311.0,0.239583,Sixteenth,A#2
1998,Right,0,70,110,311.166667,0.15625,TripletSixteenth,A#4
1999,Left,1,34,110,311.25,0.239583,Sixteenth,A#1
2000,Right,0,65,110,311.333333,0.15625,TripletSixteenth,F4
2001,Right,0,74,110,311.5,0.15625,TripletSixteenth,D5
2002,Left,1,38,110,311.5,0.239583,Sixteenth,D2
2003,Right,0,70,110,311.666667,0.15625,TripletSixteenth,A#4
2004,Left,1,41,110,311.75,0.239583,Sixteenth,F2
2005,Right,0,65,110,311.833333,0.15625,TripletSixteenth,F4
2006,Right,0,74,110,312.0,0.15625,TripletSixteenth,D5
2007,Left,1,46,110,312.0,0.239583,Sixteenth,A#2
2008,Right,0,70,110,312.166667,0.15625,TripletSixteenth,A#4
2009,Left,1,48,110,312.25,0.239583,Sixteenth,C3
2010,Right,0,65,110,312.333333,0.15625,TripletSixteenth,F4
2012,Right,0,74,110,312.5,0.15625,TripletSixteenth,D5
2011,Left,1,50,110,312.5,0.239583,Sixteenth,D3
2013,Right,0,70,110,312.666667,0.15625,TripletSixteenth,A#4
2014,Left,1,51,110,312.75,0.239583,Sixteenth,D#3
2015,Right,0,65,110,312.833333,0.15625,TripletSixteenth,F4
2017,Right,0,74,110,313.0,0.15625,TripletSixteenth,D5
2016,Left,1,53,110,313.0,0.239583,Sixteenth,F3
2018,Right,0,70,110,313.166667,0.15625,TripletSixteenth,A#4
2019,Left,1,51,110,313.25,0.239583,Sixteenth,D#3
2020,Right,0,65,110,313.333333,0.15625,TripletSixteenth,F4
2021,Right,0,74,110,313.5,0.15625,TripletSixteenth,D5
2022,Left,1,50,110,313.5,0.239583,Sixteenth,D3
2023,Right,0,70,110,313.666667,0.15625,TripletSixteenth,A#4
2024,Left,1,48,110,313.75,0.239583,Sixteenth,C3
2025,Right,0,65,110,313.833333,0.15625,TripletSixteenth,F4
2027,Right,0,74,110,314.0,0.15625,TripletSixteenth,D5
2026,Left,1,46,110,314.0,0.239583,Sixteenth,A#2
2028,Right,0,70,110,314.166667,0.15625,TripletSixteenth,A#4
2029,Left,1,48,110,314.25,0.239583,Sixteenth,C3
2030,Right,0,65,110,314.333333,0.15625,TripletSixteenth,F4
2031,Right,0,74,110,314.5,0.15625,TripletSixteenth,D5
2032,Left,1,50,110,314.5,0.239583,Sixteenth,D3
2033,Right,0,70,110,314.666667,0.15625,TripletSixteenth,A#4
2034,Left,1,51,110,314.75,0.239583,Sixteenth,D#3
2035,Right,0,65,110,314.833333,0.15625,TripletSixteenth,F4
2036,Right,0,74,110,315.0,0.15625,TripletSixteenth,D5
2037,Left,1,53,110,315.0,0.239583,Sixteenth,F3
2038,Right,0,70,110,315.166667,0.15625,TripletSixteenth,A#4
2039,Left,1,51,110,315.25,0.239583,Sixteenth,D#3
2040,Right,0,65,110,315.333333,0.15625,TripletSixteenth,F4
2041,Left,1,50,110,315.5,0.239583,Sixteenth,D3
2042,Right,0,77,110,315.5,0.15625,TripletSixteenth,F5
2043,Right,0,74,110,315.666667,0.15625,TripletSixteenth,D5
2044,Left,1,48,110,315.75,0.239583,Sixteenth,C3
2045,Right,0,70,110,315.833333,0.15625,TripletSixteenth,A#4
2046,Left,1,46,110,316.0,0.239583,Sixteenth,A#2
2047,Right,0,77,110,316.0,0.15625,TripletSixteenth,F5
2048,Right,0,74,110,316.166667,0.15625,TripletSixteenth,D5
2049,Left,1,48,110,316.25,0.239583,Sixteenth,C3
2050,Right,0,70,110,316.333333,0.15625,TripletSixteenth,A#4
2051,Right,0,77,110,316.5,0.15625,TripletSixteenth,F5
2052,Left,1,50,110,316.5,0.239583,Sixteenth,D3
2053,Right,0,74,110,316.666667,0.15625,TripletSixteenth,D5
2054,Left,1,51,110,316.75,0.239583,Sixteenth,D#3
2055,Right,0,70,110,316.833333,0.15625,TripletSixteenth,A#4
2057,Left,1,53,110,317.0,0.239583,Sixteenth,F3
2056,Right,0,77,110,317.0,0.15625,TripletSixteenth,F5
2058,Right,0,74,110,317.166667,0.15625,TripletSixteenth,D5
2059,Left,1,51,110,317.25,0.239583,Sixteenth,D#3
2060,Right,0,70,110,317.333333,0.15625,TripletSixteenth,A#4
2062,Left,1,50,110,317.5,0.239583,Sixteenth,D3
2061,Right,0,80,110,317.5,0.15625,TripletSixteenth,G#5
2063,Right,0,74,110,317.666667,0.15625,TripletSixteenth,D5
2064,Left,1,48,110,317.75,0.239583,Sixteenth,C3
2065,Right,0,70,110,317.833333,0.15625,TripletSixteenth,A#4
2067,Left,1,46,110,318.0,0.239583,Sixteenth,A#2
2066,Right,0,80,110,318.0,0.15625,TripletSixteenth,G#5
2068,Right,0,74,110,318.166667,0.15625,TripletSixteenth,D5
2069,Left,1,48,110,318.25,0.239583,Sixteenth,C3
2070,Right,0,70,110,318.333333,0.15625,TripletSixteenth,A#4
2071,Left,1,50,110,318.5,0.239583,Sixteenth,D3
2072,Right,0,80,110,318.5,0.15625,TripletSixteenth,G#5
2073,Right,0,74,110,318.666667,0.15625,TripletSixteenth,D5
2074,Left,1,51,110,318.75,0.239583,Sixteenth,D#3
2075,Right,0,70,110,318.833333,0.15625,TripletSixteenth,A#4
2077,Left,1,53,110,319.0,0.239583,Sixteenth,F3
2076,Right,0,80,110,319.0,0.15625,TripletSixteenth,G#5
2078,Right,0,74,110,319.166667,0.15625,TripletSixteenth,D5
2079,Left,1,55,110,319.25,0.239583,Sixteenth,G3
2080,Right,0,70,110,319.333333,0.15625,TripletSixteenth,A#4
2082,Right,0,77,110,319.5,0.15625,TripletSixteenth,F5
2081,Left,1,56,110,319.5,0.489583,Sixteenth,G#3_A#2
2084,Right,0,74,110,319.666667,0.15625,TripletSixteenth,D5
2085,Left,1,55,110,319.75,0.239583,Sixteenth,G3
2086,Right,0,70,110,319.833333,0.15625,TripletSixteenth,A#4
2087,Right,0,77,110,320.0,0.15625,TripletSixteenth,F5
2088,Left,1,46,110,320.0,0.489583,Eighth,G#3_A#2
2090,Right,0,74,110,320.166667,0.15625,TripletSixteenth,D5
2091,Left,1,55,110,320.25,0.239583,Sixteenth,G3
2092,Right,0,70,110,320.333333,0.15625,TripletSixteenth,A#4
2094,Left,1,46,110,320.5,0.489583,Eighth,G#3_A#2
2093,Right,0,77,110,320.5,0.15625,TripletSixteenth,F5
2096,Right,0,74,110,320.666667,0.15625,TripletSixteenth,D5
2097,Left,1,55,110,320.75,0.239583,Sixteenth,G3
2098,Right,0,70,110,320.833333,0.15625,TripletSixteenth,A#4
2102,Left,1,56,110,321.0,2.989583,DottedHalf,G#3_A#2
2099,Right,0,77,110,321.0,2.989583,DottedHalf,F5_D5_A#4
2104,Right,0,70,80,324.25,0.239583,Sixteenth,A#4
2105,Right,0,82,80,324.5,0.239583,Sixteenth,A#5
2106,Right,0,78,80,324.75,0.239583,Sixteenth,F#5
2107,Right,0,79,80,325.0,0.239583,Sixteenth,G5
2108,Right,0,74,80,325.25,0.239583,Sixteenth,D5
2109,Left,1,51,80,325.5,1.489583,DottedQuarter,D#3
2110,Right,0,75,80,325.5,0.739583,DottedEighth,D#5
2111,Left,1,55,80,325.75,1.239583,TiedQuarter-Sixteenth,G3
2112,Left,1,58,80,326.0,0.989583,Quarter,A#3
2113,Right,0,70,80,326.25,0.239583,Sixteenth,A#4
2114,Right,0,82,80,326.5,0.239583,Sixteenth,A#5
2115,Right,0,78,80,326.75,0.239583,Sixteenth,F#5
2116,Right,0,79,80,327.0,0.239583,Sixteenth,G5
2117,Right,0,74,80,327.25,0.239583,Sixteenth,D5
2118,Right,0,75,80,327.5,0.739583,DottedEighth,D#5
2119,Left,1,63,80,327.5,1.489583,DottedQuarter,D#4
2120,Left,1,67,80,327.75,1.239583,TiedQuarter-Sixteenth,G4
2121,Left,1,70,80,328.0,0.989583,Quarter,A#4
2122,Right,0,72,80,328.25,0.239583,Sixteenth,C5
2123,Right,0,84,80,328.5,0.239583,Sixteenth,C6
2124,Right,0,79,80,328.75,0.239583,Sixteenth,G5
2125,Right,0,80,80,329.0,0.239583,Sixteenth,G#5
2126,Right,0,76,80,329.25,0.239583,Sixteenth,E5
2128,Left,1,51,80,329.5,1.489583,DottedQuarter,D#3
2127,Right,0,77,80,329.5,0.739583,DottedEighth,F5
2129,Left,1,56,80,329.75,1.239583,TiedQuarter-Sixteenth,G#3
2130,Left,1,60,80,330.0,0.989583,Quarter,C4
2131,Right,0,72,80,330.25,0.239583,Sixteenth,C5
2132,Right,0,84,80,330.5,0.239583,Sixteenth,C6
2133,Right,0,79,80,330.75,0.239583,Sixteenth,G5
2134,Right,0,80,80,331.0,0.239583,Sixteenth,G#5
2135,Right,0,76,80,331.25,0.239583,Sixteenth,E5
2136,Left,1,63,80,331.5,1.489583,DottedQuarter,D#4
2137,Right,0,77,80,331.5,0.739583,DottedEighth,F5
2138,Left,1,68,80,331.75,1.239583,TiedQuarter-Sixteenth,G#4
2139,Left,1,72,80,332.0,0.989583,Quarter,C5
2140,Right,0,77,80,332.25,0.239583,Sixteenth,F5
2141,Right,0,89,80,332.5,0.239583,Sixteenth,F6
2142,Right,0,89,80,332.75,0.239583,Sixteenth,F6
2143,Right,0,89,80,333.0,0.739583,DottedEighth,F6
2144,Left,1,62,80,333.25,0.239583,Sixteenth,D4
2145,Left,1,65,80,333.5,0.239583,Sixteenth,F4
2146,Right,0,87,80,333.75,0.239583,Sixteenth,D#6
2147,Left,1,70,80,333.75,0.239583,Sixteenth,A#4
2148,Right,0,86,80,334.0,0.239583,Sixteenth,D6
2150,Left,1,58,80,334.25,0.239583,Sixteenth,A#3
2149,Right,0,84,80,334.25,0.239583,Sixteenth,C6
2151,Right,0,82,80,334.5,0.239583,Sixteenth,A#5
2152,Left,1,62,80,334.5,0.239583,Sixteenth,D4
2154,Left,1,65,80,334.75,0.239583,Sixteenth,F4
2153,Right,0,80,80,334.75,0.239583,Sixteenth,G#5
2155,Right,0,79,80,335.0,0.739583,DottedEighth,G5
2156,Left,1,59,80,335.25,0.239583,Sixteenth,B3
2157,Left,1,62,81,335.5,0.239583,Sixteenth,D4
2159,Left,1,67,82,335.75,0.239583,Sixteenth,G4
2158,Right,0,77,82,335.75,0.239583,Sixteenth,F5
2160,Right,0,75,83,336.0,0.239583,Sixteenth,D#5
2161,Left,1,60,84,336.25,0.239583,Sixteenth,C4
2162,Right,0,74,84,336.25,0.239583,Sixteenth,D5
2163,Left,1,63,85,336.5,0.239583,Sixteenth,D#4
2164,Right,0,72,85,336.5,0.239583,Sixteenth,C5
2166,Left,1,55,86,336.75,0.239583,Sixteenth,G3
2165,Right,0,70,86,336.75,0.239583,Sixteenth,A#4
2167,Right,0,69,86,337.0,0.739583,DottedEighth,A4
2168,Left,1,54,87,337.25,0.239583,Sixteenth,F#3
2169,Left,1,57,88,337.5,0.239583,Sixteenth,A3
2170,Left,1,62,89,337.75,0.239583,Sixteenth,D4
2171,Right,0,67,89,337.75,0.239583,Sixteenth,G4
2172,Right,0,66,90,338.0,0.239583,Sixteenth,F#4
2173,Left,1,50,91,338.25,0.239583,Sixteenth,D3
2174,Right,0,63,91,338.25,0.239583,Sixteenth,D#4
2175,Right,0,62,92,338.5,0.239583,Sixteenth,D4
2176,Left,1,54,92,338.5,0.239583,Sixteenth,F#3
2177,Left,1,57,93,338.75,0.239583,Sixteenth,A3
2178,Right,0,60,93,338.75,0.239583,Sixteenth,C4
2179,Right,0,58,93,339.0,0.739583,DottedEighth,A#3
2180,Left,1,43,94,339.25,0.239583,Sixteenth,G2
2181,Left,1,46,95,339.5,0.239583,Sixteenth,A#2
2183,Right,0,57,96,339.75,0.239583,Sixteenth,A3
2182,Left,1,50,96,339.75,0.239583,Sixteenth,D3
2184,Right,0,55,97,340.0,0.239583,Sixteenth,G3
2185,Right,0,57,98,340.25,0.239583,Sixteenth,A3
2186,Left,1,39,98,340.25,0.239583,Sixteenth,D#2
2188,Right,0,58,99,340.5,0.239583,Sixteenth,A#3
2187,Left,1,51,99,340.5,0.239583,Sixteenth,D#3
2190,Left,1,51,99,340.75,0.239583,Sixteenth,D#3
2189,Right,0,61,99,340.75,0.239583,Sixteenth,C#4
2191,Left,1,38,80,341.0,0.489583,Eighth,D2
2192,Right,0,62,80,341.125,0.239583,Sixteenth,D4
2193,Right,0,64,80,341.25,0.239583,Sixteenth,E4
2194,Right,0,66,80,341.375,0.239583,Sixteenth,F#4
2195,Left,1,50,110,341.5,3.489583,DottedHalf,D3
2196,Right,0,67,110,341.5,0.239583,Sixteenth,G4
2197,Right,0,69,110,341.625,0.239583,Sixteenth,A4
2198,Right,0,71,110,341.75,0.239583,Sixteenth,B4
2199,Right,0,73,110,341.875,0.239583,Sixteenth,C#5
2200,Right,0,74,110,342.0,0.239583,Sixteenth,D5
2201,Right,0,76,110,342.125,0.239583,Sixteenth,E5
2202,Right,0,78,110,342.25,0.239583,Sixteenth,F#5
2203,Right,0,79,110,342.375,0.239583,Sixteenth,G5
2204,Left,1,60,110,342.5,0.489583,Eighth,C4
2205,Right,0,81,110,342.5,0.239583,Sixteenth,A5
2206,Right,0,74,110,342.625,0.239583,Sixteenth,D5
2207,Right,0,76,110,342.75,0.239583,Sixteenth,E5
2208,Right,0,78,110,342.875,0.239583,Sixteenth,F#5
2209,Left,1,58,110,343.0,0.489583,Eighth,A#3
2210,Right,0,79,110,343.0,0.239583,Sixteenth,G5
2211,Right,0,81,110,343.125,0.239583,Sixteenth,A5
2212,Right,0,82,110,343.25,0.239583,Sixteenth,A#5
2213,Right,0,84,110,343.375,0.239583,Sixteenth,C6
2215,Right,0,86,110,343.5,0.239583,Sixteenth,D6
2214,Left,1,54,110,343.5,0.489583,Eighth,F#3
2216,Right,0,87,110,343.625,0.239583,Sixteenth,D#6
2217,Right,0,86,110,343.75,0.239583,Sixteenth,D6
2218,Right,0,84,110,343.875,0.239583,Sixteenth,C6
2220,Left,1,55,110,344.0,0.489583,Eighth,G3
2219,Right,0,82,110,344.0,0.239583,Sixteenth,A#5
2221,Right,0,84,110,344.125,0.239583,Sixteenth,C6
2222,Right,0,82,110,344.25,0.239583,Sixteenth,A#5
2223,Right,0,81,110,344.375,0.239583,Sixteenth,A5
2224,Left,1,61,110,344.5,0.489583,Eighth,C#4
2225,Right,0,79,110,344.5,0.239583,Sixteenth,G5
2226,Right,0,82,110,344.625,0.239583,Sixteenth,A#5
2227,Right,0,81,110,344.75,0.239583,Sixteenth,A5
2228,Right,0,79,110,344.875,0.239583,Sixteenth,G5
2230,Left,1,50,110,345.0,3.989583,Whole,D3
2229,Right,0,78,110,345.0,0.239583,Sixteenth,F#5
2231,Right,0,62,110,345.125,0.239583,Sixteenth,D4
2232,Right,0,64,110,345.25,0.239583,Sixteenth,E4
2233,Right,0,66,110,345.375,0.239583,Sixteenth,F#4
2234,Right,0,67,110,345.5,0.239583,Sixteenth,G4
2235,Left,1,62,110,345.5,0.989583,Quarter,D4
2236,Right,0,69,110,345.625,0.239583,Sixteenth,A4
2237,Right,0,71,110,345.75,0.239583,Sixteenth,B4
2238,Right,0,73,110,345.875,0.239583,Sixteenth,C#5
2239,Right,0,74,110,346.0,0.239583,Sixteenth,D5
2240,Right,0,76,110,346.125,0.239583,Sixteenth,E5
2241,Right,0,78,110,346.25,0.239583,Sixteenth,F#5
2242,Right,0,79,110,346.375,0.239583,Sixteenth,G5
2244,Left,1,60,110,346.5,0.489583,Eighth,C4
2243,Right,0,81,110,346.5,0.239583,Sixteenth,A5
2245,Right,0,74,110,346.625,0.239583,Sixteenth,D5
2246,Right,0,76,110,346.75,0.239583,Sixteenth,E5
2247,Right,0,78,110,346.875,0.239583,Sixteenth,F#5
2249,Left,1,58,110,347.0,0.489583,Eighth,A#3
2248,Right,0,79,110,347.0,0.239583,Sixteenth,G5
2250,Right,0,81,110,347.125,0.239583,Sixteenth,A5
2251,Right,0,82,110,347.25,0.239583,Sixteenth,A#5
2252,Right,0,84,110,347.375,0.239583,Sixteenth,C6
2253,Right,0,86,110,347.5,0.239583,Sixteenth,D6
2254,Left,1,54,110,347.5,0.489583,Eighth,F#3
2255,Right,0,87,110,347.625,0.239583,Sixteenth,D#6
2256,Right,0,86,110,347.75,0.239583,Sixteenth,D6
2257,Right,0,84,110,347.875,0.239583,Sixteenth,C6
2258,Right,0,82,110,348.0,0.239583,Sixteenth,A#5
2259,Left,1,55,110,348.0,0.489583,Eighth,G3
2260,Right,0,84,110,348.125,0.239583,Sixteenth,C6
2261,Right,0,82,110,348.25,0.239583,Sixteenth,A#5
2262,Right,0,81,110,348.375,0.239583,Sixteenth,A5
2264,Right,0,79,110,348.5,0.239583,Sixteenth,G5
2263,Left,1,61,110,348.5,0.489583,Eighth,C#4
2265,Right,0,82,110,348.625,0.239583,Sixteenth,A#5
2266,Right,0,81,110,348.75,0.239583,Sixteenth,A5
2267,Right,0,79,110,348.875,0.239583,Sixteenth,G5
2268,Left,1,50,110,349.0,3.989583,Whole,D3
2269,Right,0,78,110,349.0,0.239583,Sixteenth,F#5
2270,Right,0,62,110,349.125,0.239583,Sixteenth,D4
2271,Right,0,64,110,349.25,0.239583,Sixteenth,E4
2272,Right,0,66,110,349.375,0.239583,Sixteenth,F#4
2273,Left,1,62,110,349.5,0.989583,Quarter,D4
2274,Right,0,67,110,349.5,0.239583,Sixteenth,G4
2275,Right,0,69,110,349.625,0.239583,Sixteenth,A4
2276,Right,0,71,110,349.75,0.239583,Sixteenth,B4
2277,Right,0,73,110,349.875,0.239583,Sixteenth,C#5
2278,Right,0,74,110,350.0,0.239583,Sixteenth,D5
2279,Right,0,76,110,350.125,0.239583,Sixteenth,E5
2280,Right,0,78,110,350.25,0.239583,Sixteenth,F#5
2281,Right,0,79,110,350.375,0.239583,Sixteenth,G5
2282,Left,1,60,110,350.5,0.489583,Eighth,C4
2283,Right,0,81,110,350.5,0.239583,Sixteenth,A5
2284,Right,0,74,110,350.625,0.239583,Sixteenth,D5
2285,Right,0,76,110,350.75,0.239583,Sixteenth,E5
2286,Right,0,78,110,350.875,0.239583,Sixteenth,F#5
2287,Right,0,79,110,351.0,0.239583,Sixteenth,G5
2288,Left,1,58,110,351.0,0.489583,Eighth,A#3
2289,Right,0,81,110,351.125,0.239583,Sixteenth,A5
2290,Right,0,82,110,351.25,0.239583,Sixteenth,A#5
2291,Right,0,84,110,351.375,0.239583,Sixteenth,C6
2292,Left,1,54,110,351.5,0.489583,Eighth,F#3
2293,Right,0,86,110,351.5,0.239583,Sixteenth,D6
2294,Right,0,87,110,351.625,0.239583,Sixteenth,D#6
2295,Right,0,86,110,351.75,0.239583,Sixteenth,D6
2296,Right,0,84,110,351.875,0.239583,Sixteenth,C6
2297,Right,0,82,110,352.0,0.239583,Sixteenth,A#5
2298,Left,1,55,110,352.0,0.489583,Eighth,G3
2299,Right,0,84,110,352.125,0.239583,Sixteenth,C6
2300,Right,0,82,110,352.25,0.239583,Sixteenth,A#5
2301,Right,0,81,110,352.375,0.239583,Sixteenth,A5
2303,Right,0,79,110,352.5,0.239583,Sixteenth,G5
2302,Left,1,61,110,352.5,0.489583,Eighth,C#4
2304,Right,0,82,110,352.625,0.239583,Sixteenth,A#5
2305,Right,0,81,110,352.75,0.239583,Sixteenth,A5
2306,Right,0,79,100,352.875,0.239583,Sixteenth,G5
2308,Right,0,78,100,353.0,0.239583,Sixteenth,F#5
2307,Left,1,50,100,353.0,3.989583,Whole,D4_D3
2310,Right,0,81,99,353.125,0.239583,Sixteenth,A5
2311,Right,0,79,99,353.25,0.239583,Sixteenth,G5
2312,Right,0,78,98,353.375,0.239583,Sixteenth,F#5
2314,Right,0,79,97,353.5,0.239583,Sixteenth,G5
2313,Left,1,61,97,353.5,0.489583,Eighth,C#4
2315,Right,0,82,97,353.625,0.239583,Sixteenth,A#5
2316,Right,0,81,96,353.75,0.239583,Sixteenth,A5
2317,Right,0,79,95,353.875,0.239583,Sixteenth,G5
2319,Left,1,62,95,354.0,0.489583,Eighth,D4
2318,Right,0,78,95,354.0,0.239583,Sixteenth,F#5
2320,Right,0,81,94,354.125,0.239583,Sixteenth,A5
2321,Right,0,79,93,354.25,0.239583,Sixteenth,G5
2322,Right,0,78,93,354.375,0.239583,Sixteenth,F#5
2324,Left,1,61,92,354.5,0.489583,Eighth,C#4
2323,Right,0,79,92,354.5,0.239583,Sixteenth,G5
2325,Right,0,82,91,354.625,0.239583,Sixteenth,A#5
2326,Right,0,81,91,354.75,0.239583,Sixteenth,A5
2327,Right,0,79,90,354.875,0.239583,Sixteenth,G5
2329,Right,0,78,90,355.0,0.239583,Sixteenth,F#5
2328,Left,1,62,90,355.0,0.489583,Eighth,D4
2330,Right,0,81,89,355.125,0.239583,Sixteenth,A5
2331,Right,0,79,88,355.25,0.239583,Sixteenth,G5
2332,Right,0,78,88,355.375,0.239583,Sixteenth,F#5
2333,Left,1,61,87,355.5,0.489583,Eighth,C#4
2334,Right,0,79,87,355.5,0.239583,Sixteenth,G5
2335,Right,0,82,86,355.625,0.239583,Sixteenth,A#5
2336,Right,0,81,86,355.75,0.239583,Sixteenth,A5
2337,Right,0,79,85,355.875,0.239583,Sixteenth,G5
2339,Right,0,78,84,356.0,0.239583,Sixteenth,F#5
2338,Left,1,62,84,356.0,0.489583,Eighth,D4
2340,Right,0,81,84,356.125,0.239583,Sixteenth,A5
2341,Right,0,79,83,356.25,0.239583,Sixteenth,G5
2342,Right,0,78,82,356.375,0.239583,Sixteenth,F#5
2344,Right,0,79,82,356.5,0.239583,Sixteenth,G5
2343,Left,1,61,82,356.5,0.489583,Eighth,C#4
2345,Right,0,82,81,356.625,0.239583,Sixteenth,A#5
2346,Right,0,81,81,356.75,0.239583,Sixteenth,A5
2347,Right,0,79,70,356.875,0.239583,Sixteenth,G5
2349,Right,0,78,70,357.0,0.489583,Eighth,F#5
2348,Left,1,62,70,357.0,0.15625,TripletSixteenth,D4
2350,Left,1,66,70,357.166667,0.15625,TripletSixteenth,F#4
2351,Left,1,69,70,357.333333,0.15625,TripletSixteenth,A4
2352,Left,1,62,70,357.5,0.15625,TripletSixteenth,D4
2353,Left,1,66,70,357.666667,0.15625,TripletSixteenth,F#4
2354,Left,1,69,70,357.833333,0.15625,TripletSixteenth,A4
2355,Left,1,62,70,358.0,0.15625,TripletSixteenth,D4
2356,Left,1,66,70,358.166667,0.15625,TripletSixteenth,F#4
2357,Right,0,56,70,358.25,0.239583,Sixteenth,G#3
2358,Left,1,69,70,358.333333,0.15625,TripletSixteenth,A4
2359,Left,1,62,70,358.5,0.15625,TripletSixteenth,D4
2360,Right,0,57,70,358.5,0.239583,Sixteenth,A3
2361,Left,1,66,70,358.666667,0.15625,TripletSixteenth,F#4
2362,Right,0,53,70,358.75,0.239583,Sixteenth,F3
2363,Left,1,69,70,358.833333,0.15625,TripletSixteenth,A4
2364,Left,1,62,70,359.0,0.15625,TripletSixteenth,D4
2365,Right,0,54,70,359.0,0.489583,Eighth,F#3
2366,Left,1,66,70,359.166667,0.15625,TripletSixteenth,F#4
2367,Left,1,69,70,359.333333,0.15625,TripletSixteenth,A4
2368,Left,1,62,70,359.5,0.15625,TripletSixteenth,D4
2369,Left,1,66,70,359.666667,0.15625,TripletSixteenth,F#4
2370,Left,1,69,70,359.833333,0.15625,TripletSixteenth,A4
2371,Left,1,62,70,360.0,0.15625,TripletSixteenth,D4
2372,Left,1,66,70,360.166667,0.15625,TripletSixteenth,F#4
2373,Right,0,80,70,360.25,0.239583,Sixteenth,G#5
2374,Left,1,69,70,360.333333,0.15625,TripletSixteenth,A4
2375,Right,0,81,70,360.5,0.239583,Sixteenth,A5
2376,Left,1,62,70,360.5,0.15625,TripletSixteenth,D4
2377,Left,1,66,70,360.666667,0.15625,TripletSixteenth,F#4
2378,Right,0,77,70,360.75,0.239583,Sixteenth,F5
2379,Left,1,69,70,360.833333,0.15625,TripletSixteenth,A4
2380,Left,1,62,70,361.0,0.15625,TripletSixteenth,D4
2381,Right,0,78,70,361.0,0.489583,Eighth,F#5
2382,Left,1,69,70,361.166667,0.15625,TripletSixteenth,A4
2383,Left,1,72,70,361.333333,0.15625,TripletSixteenth,C5
2384,Left,1,62,70,361.5,0.15625,TripletSixteenth,D4
2385,Left,1,69,70,361.666667,0.15625,TripletSixteenth,A4
2386,Left,1,72,70,361.833333,0.15625,TripletSixteenth,C5
2387,Left,1,62,70,362.0,0.15625,TripletSixteenth,D4
2388,Left,1,69,70,362.166667,0.15625,TripletSixteenth,A4
2389,Right,0,59,70,362.25,0.239583,Sixteenth,B3
2390,Left,1,72,70,362.333333,0.15625,TripletSixteenth,C5
2391,Left,1,62,70,362.5,0.15625,TripletSixteenth,D4
2392,Right,0,60,70,362.5,0.239583,Sixteenth,C4
2393,Left,1,69,70,362.666667,0.15625,TripletSixteenth,A4
2394,Right,0,56,70,362.75,0.239583,Sixteenth,G#3
2395,Left,1,72,70,362.833333,0.15625,TripletSixteenth,C5
2396,Left,1,62,70,363.0,0.15625,TripletSixteenth,D4
2397,Right,0,57,70,363.0,0.489583,Eighth,A3
2398,Left,1,69,70,363.166667,0.15625,TripletSixteenth,A4
2399,Left,1,72,70,363.333333,0.15625,TripletSixteenth,C5
2400,Left,1,62,70,363.5,0.15625,TripletSixteenth,D4
2401,Left,1,69,70,363.666667,0.15625,TripletSixteenth,A4
2402,Left,1,72,70,363.833333,0.15625,TripletSixteenth,C5
2403,Left,1,62,70,364.0,0.15625,TripletSixteenth,D4
2404,Left,1,69,71,364.166667,0.15625,TripletSixteenth,A4
2405,Right,0,83,71,364.25,0.239583,Sixteenth,B5
2406,Left,1,72,72,364.333333,0.15625,TripletSixteenth,C5
2408,Left,1,62,73,364.5,0.15625,TripletSixteenth,D4
2407,Right,0,84,73,364.5,0.239583,Sixteenth,C6
2409,Left,1,69,74,364.666667,0.15625,TripletSixteenth,A4
2410,Right,0,80,74,364.75,0.239583,Sixteenth,G#5
2411,Left,1,72,75,364.833333,0.15625,TripletSixteenth,C5
2413,Left,1,62,76,365.0,0.15625,TripletSixteenth,D4
2412,Right,0,81,76,365.0,0.239583,Sixteenth,A5
2414,Left,1,69,77,365.166667,0.15625,TripletSixteenth,A4
2415,Right,0,59,77,365.25,0.239583,Sixteenth,B3
2416,Left,1,72,78,365.333333,0.15625,TripletSixteenth,C5
2418,Right,0,60,79,365.5,0.239583,Sixteenth,C4
2417,Left,1,62,79,365.5,0.15625,TripletSixteenth,D4
2419,Left,1,69,80,365.666667,0.15625,TripletSixteenth,A4
2420,Right,0,56,80,365.75,0.239583,Sixteenth,G#3
2421,Left,1,72,81,365.833333,0.15625,TripletSixteenth,C5
2422,Left,1,62,82,366.0,0.15625,TripletSixteenth,D4
2423,Right,0,57,82,366.0,0.239583,Sixteenth,A3
2424,Left,1,69,83,366.166667,0.15625,TripletSixteenth,A4
2425,Right,0,83,83,366.25,0.239583,Sixteenth,B5
2426,Left,1,72,84,366.333333,0.15625,TripletSixteenth,C5
2428,Right,0,84,85,366.5,0.239583,Sixteenth,C6
2427,Left,1,62,85,366.5,0.15625,TripletSixteenth,D4
2429,Left,1,69,86,366.666667,0.15625,TripletSixteenth,A4
2430,Right,0,80,86,366.75,0.239583,Sixteenth,G#5
2431,Left,1,72,87,366.833333,0.15625,TripletSixteenth,C5
2433,Right,0,81,88,367.0,0.239583,Sixteenth,A5
2432,Left,1,62,88,367.0,0.15625,TripletSixteenth,D4
2434,Left,1,69,89,367.166667,0.15625,TripletSixteenth,A4
2435,Right,0,59,89,367.25,0.239583,Sixteenth,B3
2436,Left,1,72,90,367.333333,0.15625,TripletSixteenth,C5
2437,Left,1,62,91,367.5,0.15625,TripletSixteenth,D4
2438,Right,0,60,91,367.5,0.239583,Sixteenth,C4
2439,Left,1,69,92,367.666667,0.15625,TripletSixteenth,A4
2440,Right,0,56,92,367.75,0.239583,Sixteenth,G#3
2441,Left,1,72,93,367.833333,0.15625,TripletSixteenth,C5
2443,Right,0,57,94,368.0,0.239583,Sixteenth,A3
2442,Left,1,62,94,368.0,0.15625,TripletSixteenth,D4
2444,Left,1,69,95,368.166667,0.15625,TripletSixteenth,A4
2445,Right,0,83,95,368.25,0.239583,Sixteenth,B5
2446,Left,1,72,96,368.333333,0.15625,TripletSixteenth,C5
2447,Left,1,62,97,368.5,0.15625,TripletSixteenth,D4
2448,Right,0,84,97,368.5,0.239583,Sixteenth,C6
2449,Left,1,69,98,368.666667,0.15625,TripletSixteenth,A4
2450,Right,0,80,98,368.75,0.239583,Sixteenth,G#5
2451,Left,1,72,99,368.833333,0.15625,TripletSixteenth,C5
2452,Left,1,62,110,369.0,0.489583,Eighth,D4_C5_A4
2455,Right,0,81,110,369.0,0.239583,Sixteenth,A5
2456,Right,0,87,110,369.25,0.239583,Sixteenth,D#6
2457,Right,0,88,110,369.5,0.239583,Sixteenth,E6
2458,Right,0,83,110,369.75,0.239583,Sixteenth,B5
2459,Right,0,84,110,370.0,0.239583,Sixteenth,C6
2460,Right,0,87,110,370.25,0.239583,Sixteenth,D#6
2461,Right,0,88,110,370.5,0.239583,Sixteenth,E6
2462,Right,0,83,110,370.75,0.239583,Sixteenth,B5
2463,Right,0,84,120,371.0,0.239583,Sixteenth,C6
2464,Right,0,87,120,371.25,0.239583,Sixteenth,D#6
2465,Right,0,88,120,371.5,0.239583,Sixteenth,E6
2466,Right,0,83,120,371.75,0.239583,Sixteenth,B5
2467,Right,0,84,120,372.0,0.239583,Sixteenth,C6
2468,Right,0,80,120,372.25,0.239583,Sixteenth,G#5
2469,Right,0,81,120,372.5,0.239583,Sixteenth,A5
2470,Right,0,77,120,372.75,0.239583,Sixteenth,F5
2471,Right,0,78,120,373.0,0.239583,Sixteenth,F#5
2472,Right,0,75,120,373.25,0.239583,Sixteenth,D#5
2473,Right,0,76,120,373.5,0.239583,Sixteenth,E5
2474,Right,0,71,120,373.75,0.239583,Sixteenth,B4
2475,Right,0,72,120,374.0,0.239583,Sixteenth,C5
2476,Right,0,68,120,374.25,0.239583,Sixteenth,G#4
2477,Right,0,69,120,374.5,0.239583,Sixteenth,A4
2478,Right,0,70,120,374.75,0.239583,Sixteenth,A#4
2479,Right,0,71,120,375.0,0.239583,Sixteenth,B4
2480,Right,0,72,120,375.25,0.239583,Sixteenth,C5
2481,Right,0,73,120,375.5,2.739583,DottedHalf,C#5
2482,Right,0,62,80,378.25,0.239583,Sixteenth,D4
2483,Right,0,74,80,378.5,0.239583,Sixteenth,D5
2484,Right,0,70,80,378.75,0.239583,Sixteenth,A#4
2485,Right,0,71,80,379.0,0.239583,Sixteenth,B4
2486,Right,0,66,80,379.25,0.239583,Sixteenth,F#4
2488,Right,0,67,80,379.5,0.739583,DottedEighth,G4
2487,Left,1,43,80,379.5,1.489583,DottedQuarter,G2
2489,Left,1,47,80,379.75,1.239583,TiedQuarter-Sixteenth,B2
2490,Left,1,50,80,380.0,0.989583,Quarter,D3
2491,Right,0,62,80,380.25,0.239583,Sixteenth,D4
2492,Right,0,74,80,380.5,0.239583,Sixteenth,D5
2493,Right,0,70,80,380.75,0.239583,Sixteenth,A#4
2494,Right,0,71,80,381.0,0.239583,Sixteenth,B4
2495,Right,0,66,80,381.25,0.239583,Sixteenth,F#4
2496,Right,0,67,80,381.5,0.739583,DottedEighth,G4
2497,Left,1,55,80,381.5,1.489583,DottedQuarter,G3
2498,Left,1,59,80,381.75,1.239583,TiedQuarter-Sixteenth,B3
2499,Left,1,62,80,382.0,0.989583,Quarter,D4
2500,Right,0,64,80,382.25,0.239583,Sixteenth,E4
2501,Right,0,76,80,382.5,0.239583,Sixteenth,E5
2502,Right,0,71,80,382.75,0.239583,Sixteenth,B4
2503,Right,0,72,80,383.0,0.239583,Sixteenth,C5
2504,Right,0,68,80,383.25,0.239583,Sixteenth,G#4
2505,Left,1,43,80,383.5,1.489583,DottedQuarter,G2
2506,Right,0,69,80,383.5,0.739583,DottedEighth,A4
2507,Left,1,48,80,383.75,1.239583,TiedQuarter-Sixteenth,C3
2508,Left,1,52,80,384.0,0.989583,Quarter,E3
2509,Right,0,64,80,384.25,0.239583,Sixteenth,E4
2510,Right,0,76,80,384.5,0.239583,Sixteenth,E5
2511,Right,0,71,80,384.75,0.239583,Sixteenth,B4
2512,Right,0,72,80,385.0,0.239583,Sixteenth,C5
2513,Right,0,68,80,385.25,0.239583,Sixteenth,G#4
2515,Right,0,69,80,385.5,0.739583,DottedEighth,A4
2514,Left,1,55,80,385.5,1.489583,DottedQuarter,G3
2516,Left,1,60,80,385.75,1.239583,TiedQuarter-Sixteenth,C4
2517,Left,1,64,80,386.0,0.989583,Quarter,E4
2518,Right,0,69,80,386.25,0.239583,Sixteenth,A4
2519,Right,0,84,80,386.5,0.239583,Sixteenth,C6
2520,Right,0,83,80,386.75,0.239583,Sixteenth,B5
2521,Right,0,81,80,387.0,0.739583,DottedEighth,A5
2522,Left,1,54,80,387.25,0.239583,Sixteenth,F#3
2523,Left,1,57,80,387.5,0.239583,Sixteenth,A3
2525,Left,1,62,80,387.75,0.239583,Sixteenth,D4
2524,Right,0,79,80,387.75,0.239583,Sixteenth,G5
2526,Right,0,78,80,388.0,0.239583,Sixteenth,F#5
2528,Left,1,50,80,388.25,0.239583,Sixteenth,D3
2527,Right,0,76,80,388.25,0.239583,Sixteenth,E5
2530,Left,1,57,80,388.5,0.239583,Sixteenth,A3
2529,Right,0,74,80,388.5,0.239583,Sixteenth,D5
2532,Left,1,60,80,388.75,0.239583,Sixteenth,C4
2531,Right,0,72,80,388.75,0.239583,Sixteenth,C5
2533,Right,0,74,80,389.0,0.052083,SixtyFourth,D5
2534,Right,0,72,80,389.0625,0.177083,TripletSixteenth,C5
2535,Left,1,55,80,389.25,0.239583,Sixteenth,G3
2536,Right,0,71,80,389.25,0.489583,Eighth,B4
2537,Left,1,59,80,389.5,0.239583,Sixteenth,B3
2538,Left,1,62,80,389.75,0.239583,Sixteenth,D4
2539,Right,0,79,80,389.75,0.239583,Sixteenth,G5
2540,Right,0,79,80,390.0,0.239583,Sixteenth,G5
2542,Right,0,69,80,390.25,0.489583,Eighth,A4
2541,Left,1,48,80,390.25,0.239583,Sixteenth,C3
2543,Left,1,52,80,390.5,0.239583,Sixteenth,E3
2545,Left,1,57,80,390.75,0.239583,Sixteenth,A3
2544,Right,0,76,80,390.75,0.239583,Sixteenth,E5
2546,Right,0,76,80,391.0,0.239583,Sixteenth,E5
2548,Right,0,67,80,391.25,0.489583,Eighth,G4
2547,Left,1,50,80,391.25,0.239583,Sixteenth,D3
2549,Left,1,55,80,391.5,0.239583,Sixteenth,G3
2550,Left,1,59,80,391.75,0.239583,Sixteenth,B3
2551,Right,0,74,80,391.75,0.239583,Sixteenth,D5
2552,Right,0,74,80,392.0,0.239583,Sixteenth,D5
2553,Right,0,60,80,392.25,0.489583,Eighth,C4
2554,Left,1,38,80,392.25,0.239583,Sixteenth,D2
2555,Left,1,45,80,392.5,0.239583,Sixteenth,A2
2556,Right,0,66,80,392.75,0.239583,Sixteenth,F#4
2557,Left,1,50,80,392.75,0.239583,Sixteenth,D3
2560,Left,1,43,80,393.0,0.239583,Sixteenth,G2
2558,Right,0,59,80,393.0,0.989583,Quarter,G4_B3
2561,Left,1,47,80,393.25,0.239583,Sixteenth,B2
2562,Left,1,50,80,393.5,0.239583,Sixteenth,D3
2563,Left,1,47,80,393.75,0.239583,Sixteenth,B2
2564,Left,1,43,80,394.0,0.239583,Sixteenth,G2
2565,Left,1,47,80,394.25,0.239583,Sixteenth,B2
2567,Left,1,50,80,394.5,0.239583,Sixteenth,D3
2566,Right,0,74,80,394.5,0.489583,Eighth,D5
2568,Left,1,47,80,394.75,0.239583,Sixteenth,B2
2570,Left,1,43,80,395.0,0.239583,Sixteenth,G2
2569,Right,0,74,84,395.0,0.489583,Eighth,D5
2571,Left,1,47,80,395.25,0.239583,Sixteenth,B2
2573,Left,1,50,80,395.5,0.239583,Sixteenth,D3
2572,Right,0,74,88,395.5,0.489583,Eighth,D5
2574,Left,1,47,80,395.75,0.239583,Sixteenth,B2
2576,Left,1,43,80,396.0,0.239583,Sixteenth,G2
2575,Right,0,74,93,396.0,0.489583,Eighth,D5
2577,Left,1,47,80,396.25,0.239583,Sixteenth,B2
2579,Left,1,50,80,396.5,0.239583,Sixteenth,D3
2578,Right,0,74,97,396.5,0.239583,Sixteenth,D5
2580,Right,0,76,98,396.625,0.239583,Sixteenth,E5
2581,Right,0,73,99,396.75,0.239583,Sixteenth,C#5
2582,Left,1,47,80,396.75,0.239583,Sixteenth,B2
2583,Right,0,74,100,396.875,0.239583,Sixteenth,D5
2585,Left,1,45,80,397.0,0.239583,Sixteenth,A2
2584,Right,0,76,100,397.0,0.989583,Quarter,E5
2586,Left,1,48,80,397.25,0.239583,Sixteenth,C3
2587,Left,1,54,80,397.5,0.239583,Sixteenth,F#3
2588,Left,1,48,80,397.75,0.239583,Sixteenth,C3
2589,Left,1,45,80,398.0,0.239583,Sixteenth,A2
2590,Right,0,74,80,398.0,0.489583,Eighth,D5
2591,Left,1,48,80,398.25,0.239583,Sixteenth,C3
2592,Left,1,54,80,398.5,0.239583,Sixteenth,F#3
2593,Left,1,48,80,398.75,0.239583,Sixteenth,C3
2594,Left,1,45,80,399.0,0.239583,Sixteenth,A2
2595,Left,1,48,80,399.25,0.239583,Sixteenth,C3
2596,Left,1,54,80,399.5,0.239583,Sixteenth,F#3
2598,Left,1,48,80,399.75,0.239583,Sixteenth,C3
2597,Right,0,74,80,399.75,0.239583,Sixteenth,D5
2600,Left,1,45,80,400.0,0.239583,Sixteenth,A2
2599,Right,0,74,84,400.0,0.239583,Sixteenth,D5
2602,Right,0,74,89,400.25,0.239583,Sixteenth,D5
2601,Left,1,48,80,400.25,0.239583,Sixteenth,C3
2603,Left,1,54,80,400.5,0.239583,Sixteenth,F#3
2604,Right,0,74,94,400.5,0.239583,Sixteenth,D5
2605,Right,0,74,99,400.75,0.239583,Sixteenth,D5
2606,Left,1,48,80,400.75,0.239583,Sixteenth,C3
2607,Right,0,76,100,401.0,0.989583,Quarter,E5
2608,Left,1,47,80,401.0,0.239583,Sixteenth,B2
2609,Left,1,50,80,401.25,0.239583,Sixteenth,D3
2610,Left,1,55,80,401.5,0.239583,Sixteenth,G3
2611,Left,1,50,80,401.75,0.239583,Sixteenth,D3
2612,Right,0,74,80,402.0,0.489583,Eighth,D5
2613,Left,1,47,80,402.0,0.239583,Sixteenth,B2
2614,Left,1,50,80,402.25,0.239583,Sixteenth,D3
2615,Left,1,55,80,402.5,0.239583,Sixteenth,G3
2616,Left,1,50,80,402.75,0.239583,Sixteenth,D3
2617,Left,1,47,80,403.0,0.239583,Sixteenth,B2
2618,Left,1,53,80,403.25,0.239583,Sixteenth,F3
2619,Right,0,79,70,403.5,0.489583,Eighth,G5
2620,Left,1,55,80,403.5,0.239583,Sixteenth,G3
2621,Left,1,53,80,403.75,0.239583,Sixteenth,F3
2623,Left,1,47,80,404.0,0.239583,Sixteenth,B2
2622,Right,0,79,70,404.0,0.489583,Eighth,G5
2624,Left,1,53,80,404.25,0.239583,Sixteenth,F3
2626,Left,1,55,80,404.5,0.239583,Sixteenth,G3
2625,Right,0,79,70,404.5,0.239583,Sixteenth,G5
2627,Right,0,81,70,404.625,0.239583,Sixteenth,A5
2628,Right,0,78,70,404.75,0.239583,Sixteenth,F#5
2629,Left,1,53,80,404.75,0.239583,Sixteenth,F3
2630,Right,0,79,70,404.875,0.114583,ThirtySecond,G5
2631,Right,0,81,80,405.0,0.989583,Quarter,A5
2632,Left,1,48,80,405.0,0.239583,Sixteenth,C3
2633,Left,1,52,80,405.25,0.239583,Sixteenth,E3
2634,Left,1,55,80,405.5,0.239583,Sixteenth,G3
2635,Left,1,52,80,405.75,0.239583,Sixteenth,E3
2637,Left,1,48,80,406.0,0.239583,Sixteenth,C3
2636,Right,0,79,80,406.0,0.489583,Eighth,G5
2638,Left,1,52,80,406.25,0.239583,Sixteenth,E3
2639,Left,1,55,80,406.5,0.239583,Sixteenth,G3
2640,Left,1,52,80,406.75,0.239583,Sixteenth,E3
2641,Left,1,50,80,407.0,0.239583,Sixteenth,D3
2642,Left,1,53,80,407.25,0.239583,Sixteenth,F3
2643,Left,1,59,80,407.5,0.239583,Sixteenth,B3
2645,Right,0,79,83,407.75,0.239583,Sixteenth,G5
2644,Left,1,53,80,407.75,0.239583,Sixteenth,F3
2647,Right,0,79,87,408.0,0.239583,Sixteenth,G5
2646,Left,1,50,80,408.0,0.239583,Sixteenth,D3
2648,Right,0,79,91,408.25,0.239583,Sixteenth,G5
2649,Left,1,53,80,408.25,0.239583,Sixteenth,F3
2650,Right,0,79,95,408.5,0.239583,Sixteenth,G5
2651,Left,1,59,80,408.5,0.239583,Sixteenth,B3
2652,Left,1,53,80,408.75,0.239583,Sixteenth,F3
2653,Right,0,79,99,408.75,0.239583,Sixteenth,G5
2655,Left,1,52,80,409.0,0.239583,Sixteenth,E3
2654,Right,0,81,80,409.0,0.489583,Eighth,A5
2656,Left,1,55,80,409.25,0.239583,Sixteenth,G3
2658,Right,0,79,80,409.5,0.739583,DottedEighth,G5
2657,Left,1,60,80,409.5,0.239583,Sixteenth,C4
2659,Left,1,55,80,409.75,0.239583,Sixteenth,G3
2660,Left,1,52,80,410.0,0.239583,Sixteenth,E3
2661,Right,0,81,80,410.25,0.114583,ThirtySecond,A5
2662,Left,1,55,80,410.25,0.239583,Sixteenth,G3
2663,Right,0,79,80,410.375,0.114583,ThirtySecond,G5
2665,Right,0,77,80,410.5,0.239583,Sixteenth,F5
2664,Left,1,60,80,410.5,0.239583,Sixteenth,C4
2666,Left,1,55,80,410.75,0.239583,Sixteenth,G3
2667,Right,0,76,80,410.75,0.239583,Sixteenth,E5
2669,Left,1,53,80,411.0,0.239583,Sixteenth,F3
2668,Right,0,76,80,411.0,0.489583,Eighth,E5
2670,Left,1,57,80,411.25,0.239583,Sixteenth,A3
2672,Right,0,74,80,411.5,0.989583,Quarter,D5
2671,Left,1,62,80,411.5,0.239583,Sixteenth,D4
2673,Left,1,57,80,411.75,0.239583,Sixteenth,A3
2674,Left,1,54,80,412.0,0.239583,Sixteenth,F#3
2675,Left,1,57,80,412.25,0.239583,Sixteenth,A3
2677,Right,0,72,80,412.5,0.489583,Eighth,C5
2676,Left,1,62,80,412.5,0.239583,Sixteenth,D4
2678,Left,1,57,80,412.75,0.239583,Sixteenth,A3
2679,Right,0,71,80,413.0,0.15625,TripletSixteenth,B4
2680,Left,1,55,80,413.0,0.239583,Sixteenth,G3
2681,Right,0,72,80,413.083333,0.15625,TripletSixteenth,C5
2682,Right,0,74,80,413.166667,0.15625,TripletSixteenth,D5
2684,Right,0,72,80,413.25,0.239583,Sixteenth,C5
2683,Left,1,59,80,413.25,0.239583,Sixteenth,B3
2686,Right,0,71,80,413.5,0.989583,Quarter,B4
2685,Left,1,62,80,413.5,0.239583,Sixteenth,D4
2687,Left,1,59,80,413.75,0.239583,Sixteenth,B3
2688,Left,1,55,80,414.0,0.239583,Sixteenth,G3
2689,Left,1,59,80,414.25,0.239583,Sixteenth,B3
2690,Right,0,79,80,414.5,0.989583,Quarter,G5
2691,Left,1,64,80,414.5,0.239583,Sixteenth,E4
2692,Left,1,59,80,414.75,0.239583,Sixteenth,B3
2693,Left,1,57,80,415.0,0.239583,Sixteenth,A3
2694,Left,1,60,80,415.25,0.239583,Sixteenth,C4
2696,Left,1,64,80,415.5,0.239583,Sixteenth,E4
2695,Right,0,78,80,415.5,0.989583,Quarter,F#5
2697,Left,1,60,80,415.75,0.239583,Sixteenth,C4
2698,Left,1,57,80,416.0,0.239583,Sixteenth,A3
2699,Left,1,60,80,416.25,0.239583,Sixteenth,C4
2701,Left,1,66,80,416.5,0.239583,Sixteenth,F#4
2700,Right,0,76,80,416.5,0.489583,Eighth,E5
2702,Left,1,60,80,416.75,0.239583,Sixteenth,C4
2703,Right,0,74,80,417.0,0.15625,TripletSixteenth,D5
2704,Left,1,59,80,417.0,0.239583,Sixteenth,B3
2705,Right,0,76,80,417.083333,0.15625,TripletSixteenth,E5
2706,Right,0,78,80,417.166667,0.15625,TripletSixteenth,F#5
2707,Right,0,76,80,417.25,0.239583,Sixteenth,E5
2708,Left,1,62,80,417.25,0.239583,Sixteenth,D4
2709,Right,0,74,80,417.5,0.989583,Quarter,D5
2710,Left,1,66,80,417.5,0.239583,Sixteenth,F#4
2711,Left,1,62,80,417.75,0.239583,Sixteenth,D4
2712,Left,1,59,80,418.0,0.239583,Sixteenth,B3
2713,Left,1,62,80,418.25,0.239583,Sixteenth,D4
2715,Right,0,83,80,418.5,0.989583,Quarter,B5
2714,Left,1,67,80,418.5,0.239583,Sixteenth,G4
2716,Left,1,62,80,418.75,0.239583,Sixteenth,D4
2717,Left,1,60,80,419.0,0.239583,Sixteenth,C4
2718,Left,1,64,80,419.25,0.239583,Sixteenth,E4
2719,Right,0,81,80,419.5,0.989583,Quarter,A5
2720,Left,1,69,80,419.5,0.239583,Sixteenth,A4
2721,Left,1,64,80,419.75,0.239583,Sixteenth,E4
2722,Left,1,61,80,420.0,0.239583,Sixteenth,C#4
2723,Left,1,64,80,420.25,0.239583,Sixteenth,E4
2724,Left,1,69,80,420.5,0.239583,Sixteenth,A4
2725,Right,0,79,80,420.5,0.489583,Eighth,G5
2726,Left,1,64,80,420.75,0.239583,Sixteenth,E4
2728,Right,0,79,80,421.0,0.489583,Eighth,G5
2727,Left,1,62,80,421.0,0.239583,Sixteenth,D4
2729,Left,1,69,80,421.25,0.239583,Sixteenth,A4
2730,Left,1,74,80,421.5,0.239583,Sixteenth,D5
2731,Right,0,78,80,421.5,0.989583,Quarter,F#5
2732,Left,1,69,80,421.75,0.239583,Sixteenth,A4
2733,Left,1,62,80,422.0,0.239583,Sixteenth,D4
2734,Left,1,67,80,422.25,0.239583,Sixteenth,G4
2736,Left,1,73,80,422.5,0.239583,Sixteenth,C#5
2735,Right,0,76,80,422.5,0.489583,Eighth,E5
2737,Left,1,67,80,422.75,0.239583,Sixteenth,G4
2739,Left,1,62,80,423.0,0.239583,Sixteenth,D4
2738,Right,0,76,80,423.0,0.489583,Eighth,E5
2740,Left,1,66,80,423.25,0.239583,Sixteenth,F#4
2741,Left,1,69,80,423.5,0.239583,Sixteenth,A4
2742,Right,0,74,80,423.5,0.489583,Eighth,D5
2743,Left,1,66,80,423.75,0.239583,Sixteenth,F#4
2744,Left,1,62,80,424.0,0.239583,Sixteenth,D4
2745,Right,0,79,80,424.166667,0.15625,TripletSixteenth,G5
2746,Left,1,69,80,424.25,0.239583,Sixteenth,A4
2747,Right,0,81,80,424.333333,0.15625,TripletSixteenth,A5
2749,Left,1,73,80,424.5,0.239583,Sixteenth,C#5
2748,Right,0,83,80,424.5,0.15625,TripletSixteenth,B5
2750,Right,0,81,80,424.666667,0.15625,TripletSixteenth,A5
2751,Left,1,69,80,424.75,0.239583,Sixteenth,A4
2752,Right,0,79,80,424.833333,0.15625,TripletSixteenth,G5
2754,Left,1,62,80,425.0,0.239583,Sixteenth,D4
2753,Right,0,79,80,425.0,0.489583,Eighth,G5
2755,Left,1,69,80,425.25,0.239583,Sixteenth,A4
2756,Right,0,78,80,425.5,0.489583,Eighth,F#5
2757,Left,1,74,80,425.5,0.239583,Sixteenth,D5
2758,Left,1,69,80,425.75,0.239583,Sixteenth,A4
2759,Left,1,62,80,426.0,0.239583,Sixteenth,D4
2760,Right,0,76,80,426.166667,0.15625,TripletSixteenth,E5
2761,Left,1,67,80,426.25,0.239583,Sixteenth,G4
2762,Right,0,78,80,426.333333,0.15625,TripletSixteenth,F#5
2764,Right,0,79,80,426.5,0.15625,TripletSixteenth,G5
2763,Left,1,73,80,426.5,0.239583,Sixteenth,C#5
2765,Right,0,78,80,426.666667,0.15625,TripletSixteenth,F#5
2766,Left,1,67,80,426.75,0.239583,Sixteenth,G4
2767,Right,0,76,80,426.833333,0.15625,TripletSixteenth,E5
2768,Left,1,62,80,427.0,0.239583,Sixteenth,D4
2769,Right,0,76,80,427.0,0.489583,Eighth,E5
2770,Left,1,66,80,427.25,0.239583,Sixteenth,F#4
2772,Left,1,69,80,427.5,0.239583,Sixteenth,A4
2771,Right,0,74,80,427.5,0.489583,Eighth,D5
2773,Left,1,66,80,427.75,0.239583,Sixteenth,F#4
2774,Left,1,62,80,428.0,0.239583,Sixteenth,D4
2775,Right,0,79,80,428.166667,0.15625,TripletSixteenth,G5
2776,Left,1,69,80,428.25,0.239583,Sixteenth,A4
2777,Right,0,81,80,428.333333,0.15625,TripletSixteenth,A5
2779,Left,1,73,80,428.5,0.239583,Sixteenth,C#5
2778,Right,0,83,80,428.5,0.15625,TripletSixteenth,B5
2780,Right,0,81,80,428.666667,0.15625,TripletSixteenth,A5
2781,Left,1,69,80,428.75,0.239583,Sixteenth,A4
2782,Right,0,79,80,428.833333,0.15625,TripletSixteenth,G5
2784,Right,0,79,80,429.0,0.15625,TripletSixteenth,G5
2783,Left,1,62,80,429.0,0.239583,Sixteenth,D4
2785,Right,0,78,80,429.166667,0.15625,TripletSixteenth,F#5
2786,Left,1,69,80,429.25,0.239583,Sixteenth,A4
2787,Right,0,79,80,429.333333,0.15625,TripletSixteenth,G5
2789,Right,0,81,80,429.5,0.15625,TripletSixteenth,A5
2788,Left,1,74,80,429.5,0.239583,Sixteenth,D5
2790,Right,0,79,80,429.666667,0.15625,TripletSixteenth,G5
2791,Left,1,69,80,429.75,0.239583,Sixteenth,A4
2792,Right,0,78,80,429.833333,0.15625,TripletSixteenth,F#5
2793,Right,0,78,80,430.0,0.15625,TripletSixteenth,F#5
2794,Left,1,62,80,430.0,0.239583,Sixteenth,D4
2795,Right,0,76,80,430.166667,0.15625,TripletSixteenth,E5
2796,Left,1,67,80,430.25,0.239583,Sixteenth,G4
2797,Right,0,78,80,430.333333,0.15625,TripletSixteenth,F#5
2799,Left,1,73,80,430.5,0.239583,Sixteenth,C#5
2798,Right,0,79,80,430.5,0.15625,TripletSixteenth,G5
2800,Right,0,78,80,430.666667,0.15625,TripletSixteenth,F#5
2801,Left,1,67,80,430.75,0.239583,Sixteenth,G4
2802,Right,0,76,80,430.833333,0.15625,TripletSixteenth,E5
2803,Left,1,69,80,431.0,0.489583,Eighth,F#4_D4_A4
2805,Right,0,76,80,431.0,0.15625,TripletSixteenth,E5
2807,Right,0,74,80,431.166667,0.15625,TripletSixteenth,D5
2808,Right,0,73,80,431.333333,0.15625,TripletSixteenth,C#5
2809,Right,0,74,80,431.5,0.15625,TripletSixteenth,D5
2810,Right,0,76,80,431.666667,0.15625,TripletSixteenth,E5
2811,Right,0,78,80,431.833333,0.15625,TripletSixteenth,F#5
2812,Right,0,79,80,432.0,0.15625,TripletSixteenth,G5
2813,Right,0,80,80,432.166667,0.15625,TripletSixteenth,G#5
2814,Right,0,81,80,432.333333,0.15625,TripletSixteenth,A5
2815,Right,0,82,80,432.5,0.239583,Sixteenth,A#5
2816,Right,0,83,80,432.625,0.239583,Sixteenth,B5
2817,Right,0,84,80,432.75,0.239583,Sixteenth,C6
2818,Right,0,85,80,432.875,0.114583,ThirtySecond,C#6
2819,Right,0,86,80,433.0,0.489583,Eighth,D6
2820,Right,0,86,80,433.5,0.489583,Eighth,D6
2821,Right,0,86,80,434.0,0.489583,Eighth,D6
2822,Right,0,86,80,434.5,0.489583,Eighth,D6
2823,Right,0,83,80,435.0,0.739583,DottedEighth,D6_B5
2825,Left,1,43,80,435.25,0.239583,Sixteenth,G2
2826,Left,1,55,80,435.5,0.239583,Sixteenth,G3
2827,Right,0,85,80,435.75,0.239583,Sixteenth,C#6_A#5
2829,Right,0,86,80,436.0,0.739583,DottedEighth,D6_B5
2831,Left,1,55,80,436.25,0.239583,Sixteenth,G3
2832,Left,1,67,80,436.5,0.239583,Sixteenth,G4
2833,Right,0,85,80,436.75,0.239583,Sixteenth,C#6_A#5
2835,Right,0,86,80,437.0,0.739583,DottedEighth,D6_B5
2837,Left,1,67,80,437.25,0.239583,Sixteenth,G4
2838,Left,1,79,80,437.5,0.239583,Sixteenth,G5
2839,Right,0,81,80,437.75,0.239583,Sixteenth,C6_A5
2841,Right,0,84,80,438.0,0.239583,Sixteenth,C6_A5
2843,Right,0,83,80,438.25,0.239583,Sixteenth,G5_B5
2845,Right,0,83,80,438.5,0.239583,Sixteenth,G5_B5
2847,Right,0,81,80,438.75,0.239583,Sixteenth,F#5_A5
2849,Right,0,78,80,439.0,0.239583,Sixteenth,F#5_A5
2851,Right,0,76,80,439.25,0.239583,Sixteenth,G5_E5
2853,Right,0,76,80,439.5,0.239583,Sixteenth,G5_E5
2855,Right,0,74,80,439.75,0.239583,Sixteenth,F#5_D5
2857,Right,0,74,80,440.0,0.239583,Sixteenth,F#5_D5
2859,Right,0,76,80,440.25,0.239583,Sixteenth,E5_C5
2861,Right,0,76,80,440.5,0.239583,Sixteenth,E5_C5
2863,Right,0,74,80,440.75,0.239583,Sixteenth,D5_B4
2865,Right,0,68,80,441.0,0.989583,Quarter,G#4_B4
2867,Left,1,38,80,441.5,0.489583,Eighth,D2
2868,Right,0,72,80,442.0,0.489583,Eighth,C5_A4
2870,Left,1,38,80,442.0,0.489583,Eighth,D2
2871,Left,1,38,80,442.5,0.489583,Eighth,D2
2872,Right,0,81,80,443.0,0.739583,DottedEighth,C6_A5
2874,Left,1,38,80,443.25,0.239583,Sixteenth,D2
2875,Left,1,50,80,443.5,0.239583,Sixteenth,D3
2876,Right,0,83,80,443.75,0.239583,Sixteenth,G#5_B5
2878,Right,0,84,80,444.0,0.739583,DottedEighth,C6_A5
2880,Left,1,50,80,444.25,0.239583,Sixteenth,D3
2881,Left,1,62,80,444.5,0.239583,Sixteenth,D4
2882,Right,0,83,80,444.75,0.239583,Sixteenth,G#5_B5
2884,Right,0,84,80,445.0,0.739583,DottedEighth,C6_A5
2886,Left,1,62,80,445.25,0.239583,Sixteenth,D4
2887,Left,1,74,80,445.5,0.239583,Sixteenth,D5
2888,Right,0,79,80,445.75,0.239583,Sixteenth,G5_B5
2890,Right,0,79,80,446.0,0.239583,Sixteenth,G5_B5
2892,Right,0,81,80,446.25,0.239583,Sixteenth,F#5_A5
2894,Right,0,81,80,446.5,0.239583,Sixteenth,F#5_A5
2896,Right,0,79,80,446.75,0.239583,Sixteenth,G5_E5
2898,Right,0,79,80,447.0,0.239583,Sixteenth,G5_E5
2900,Right,0,78,80,447.25,0.239583,Sixteenth,F#5_D5
2902,Right,0,74,80,447.5,0.239583,Sixteenth,F#5_D5
2904,Right,0,72,80,447.75,0.239583,Sixteenth,E5_C5
2906,Right,0,72,80,448.0,0.239583,Sixteenth,E5_C5
2908,Right,0,71,80,448.25,0.239583,Sixteenth,D5_B4
2910,Right,0,74,80,448.5,0.239583,Sixteenth,D5_B4
2912,Right,0,72,80,448.75,0.239583,Sixteenth,C5_A4
2914,Right,0,67,80,449.0,0.489583,Eighth,G4_B4
2916,Left,1,62,80,449.25,0.239583,Sixteenth,D4
2917,Right,0,76,80,449.5,0.489583,Eighth,E5_B4
2919,Left,1,55,80,449.5,0.239583,Sixteenth,G3
2920,Left,1,62,80,449.75,0.239583,Sixteenth,D4
2922,Left,1,54,80,450.0,0.239583,Sixteenth,F#3
2921,Right,0,74,80,450.0,0.489583,Eighth,D5_A4
2924,Left,1,62,80,450.25,0.239583,Sixteenth,D4
2925,Left,1,50,80,450.5,0.239583,Sixteenth,D3
2926,Right,0,66,80,450.5,0.489583,Eighth,F#4_C5
2928,Left,1,62,80,450.75,0.239583,Sixteenth,D4
2929,Right,0,67,80,451.0,0.489583,Eighth,G4_B4
2931,Left,1,62,80,451.25,0.239583,Sixteenth,D4
2934,Left,1,55,80,451.5,0.239583,Sixteenth,G3
2932,Right,0,76,80,451.5,0.489583,Eighth,E5_B4
2935,Left,1,62,80,451.75,0.239583,Sixteenth,D4
2936,Right,0,74,80,452.0,0.489583,Eighth,D5_A4
2938,Left,1,54,80,452.0,0.239583,Sixteenth,F#3
2939,Left,1,62,80,452.25,0.239583,Sixteenth,D4
2940,Left,1,50,80,452.5,0.239583,Sixteenth,D3
2941,Right,0,66,80,452.5,0.489583,Eighth,F#4_C5
2943,Left,1,62,80,452.75,0.239583,Sixteenth,D4
2944,Right,0,71,80,453.0,0.489583,Eighth,B4
2945,Left,1,55,80,453.0,0.989583,Quarter,G3
2946,Right,0,67,80,453.25,0.239583,Sixteenth,G4
2947,Right,0,71,80,453.5,0.489583,Sixteenth,E5_B4
2949,Right,0,67,80,453.75,0.239583,Sixteenth,G4
2950,Right,0,66,80,454.0,0.489583,Sixteenth,F#4_D5
2952,Left,1,57,80,454.0,0.989583,Quarter,A3
2953,Right,0,69,80,454.25,0.239583,Sixteenth,A4
2954,Right,0,64,80,454.5,0.489583,Sixteenth,E4_C#5
2956,Right,0,67,80,454.75,0.239583,Sixteenth,G4
2957,Right,0,66,80,455.0,0.489583,Sixteenth,F#4_D5
2959,Left,1,50,80,455.0,0.489583,Eighth,D3
2960,Right,0,62,80,455.25,0.239583,Sixteenth,D4
2961,Left,1,72,80,455.5,0.239583,Sixteenth,C5_A4
2963,Left,1,62,80,455.75,0.239583,Sixteenth,D4
2964,Left,1,71,80,456.0,0.239583,Sixteenth,G4_B4
2966,Left,1,62,80,456.25,0.239583,Sixteenth,D4
2967,Left,1,69,80,456.5,0.239583,Sixteenth,F#4_A4
2969,Left,1,62,80,456.75,0.239583,Sixteenth,D4
2970,Left,1,71,80,457.0,0.239583,Sixteenth,G4_B4
2972,Right,0,83,80,457.0,0.489583,Eighth,B5
2973,Left,1,62,80,457.25,0.239583,Sixteenth,D4
2976,Right,0,76,80,457.5,0.489583,Eighth,E6_E5
2974,Left,1,67,80,457.5,0.239583,Sixteenth,G4_B4
2978,Left,1,62,80,457.75,0.239583,Sixteenth,D4
2979,Right,0,74,80,458.0,0.489583,Eighth,D6_D5
2980,Left,1,69,80,458.0,0.239583,Sixteenth,F#4_A4
2983,Left,1,62,80,458.25,0.239583,Sixteenth,D4
2984,Right,0,78,80,458.5,0.489583,Eighth,F#5_C6
2985,Left,1,69,80,458.5,0.239583,Sixteenth,C5_A4
2988,Left,1,62,80,458.75,0.239583,Sixteenth,D4
2989,Right,0,83,80,459.0,0.489583,Eighth,B5
2990,Left,1,71,80,459.0,0.239583,Sixteenth,G4_B4
2992,Left,1,62,80,459.25,0.239583,Sixteenth,D4
2993,Right,0,76,80,459.5,0.489583,Eighth,E6_E5
2995,Left,1,67,80,459.5,0.239583,Sixteenth,G4_B4
2997,Left,1,62,80,459.75,0.239583,Sixteenth,D4
3000,Right,0,74,80,460.0,0.489583,Eighth,D6_D5
2998,Left,1,69,80,460.0,0.239583,Sixteenth,F#4_A4
3002,Left,1,62,80,460.25,0.239583,Sixteenth,D4
3003,Right,0,78,80,460.5,0.489583,Eighth,F#5_C6
3004,Left,1,72,80,460.5,0.239583,Sixteenth,C5_A4
3007,Left,1,62,80,460.75,0.239583,Sixteenth,D4
3009,Left,1,67,80,461.0,0.239583,Sixteenth,G4
3008,Right,0,79,80,461.0,0.489583,Eighth,G5_B5
3011,Left,1,71,81,461.25,0.239583,Sixteenth,B4
3013,Right,0,79,82,461.5,0.989583,Quarter,G5
3012,Left,1,69,82,461.5,0.239583,Sixteenth,A4
3014,Left,1,72,83,461.75,0.239583,Sixteenth,C5
3015,Left,1,71,85,462.0,0.239583,Sixteenth,B4
3016,Left,1,74,86,462.25,0.239583,Sixteenth,D5
3017,Right,0,79,87,462.5,0.989583,Quarter,G5
3018,Left,1,72,87,462.5,0.239583,Sixteenth,C5
3019,Left,1,76,89,462.75,0.239583,Sixteenth,E5
3020,Left,1,74,90,463.0,0.239583,Sixteenth,D5
3021,Left,1,77,91,463.25,0.239583,Sixteenth,F5
3022,Left,1,73,93,463.5,0.239583,Sixteenth,C#5
3023,Right,0,79,93,463.5,0.489583,Eighth,G5
3024,Left,1,76,94,463.75,0.239583,Sixteenth,E5
3026,Left,1,74,95,464.0,0.239583,Sixteenth,D5
3025,Right,0,79,95,464.0,0.489583,Eighth,G5
3027,Left,1,77,97,464.25,0.239583,Sixteenth,F5
3028,Left,1,71,98,464.5,0.239583,Sixteenth,B4
3029,Right,0,79,98,464.5,0.489583,Eighth,G5
3030,Left,1,75,99,464.75,0.239583,Sixteenth,D#5
3031,Left,1,72,80,465.0,0.489583,Eighth,C5
3032,Right,0,76,80,465.0,0.239583,Sixteenth,E5
3033,Right,0,78,80,465.125,0.239583,Sixteenth,F#5
3034,Right,0,76,80,465.25,0.239583,Sixteenth,E5
3035,Right,0,75,80,465.375,0.239583,Sixteenth,D#5
3036,Right,0,76,80,465.5,0.239583,Sixteenth,E5
3037,Right,0,78,80,465.625,0.239583,Sixteenth,F#5
3038,Right,0,79,80,465.75,0.239583,Sixteenth,G5
3039,Right,0,78,80,465.875,0.239583,Sixteenth,F#5
3040,Left,1,67,80,466.0,0.489583,Eighth,G4_E4_C4
3042,Right,0,76,80,466.0,0.239583,Sixteenth,E5
3044,Right,0,78,80,466.125,0.239583,Sixteenth,F#5
3045,Right,0,76,80,466.25,0.239583,Sixteenth,E5
3046,Right,0,75,80,466.375,0.239583,Sixteenth,D#5
3047,Right,0,76,80,466.5,0.239583,Sixteenth,E5
3048,Right,0,78,80,466.625,0.239583,Sixteenth,F#5
3049,Right,0,79,80,466.75,0.239583,Sixteenth,G5
3050,Right,0,78,80,466.875,0.239583,Sixteenth,F#5
3051,Left,1,70,80,467.0,0.489583,Eighth,G4_E4_C#4_A#4
3055,Right,0,79,80,467.0,0.239583,Sixteenth,G5
3056,Right,0,81,81,467.125,0.239583,Sixteenth,A5
3057,Right,0,79,81,467.25,0.239583,Sixteenth,G5
3058,Right,0,78,82,467.375,0.239583,Sixteenth,F#5
3059,Right,0,79,83,467.5,0.239583,Sixteenth,G5
3060,Right,0,81,83,467.625,0.239583,Sixteenth,A5
3061,Right,0,82,84,467.75,0.239583,Sixteenth,A#5
3062,Right,0,81,85,467.875,0.239583,Sixteenth,A5
3063,Left,1,67,85,468.0,0.489583,Eighth,G4_E4_C#4_A#4
3066,Right,0,79,85,468.0,0.239583,Sixteenth,G5
3068,Right,0,81,86,468.125,0.239583,Sixteenth,A5
3069,Right,0,79,87,468.25,0.239583,Sixteenth,G5
3070,Right,0,78,87,468.375,0.239583,Sixteenth,F#5
3071,Right,0,79,88,468.5,0.239583,Sixteenth,G5
3072,Right,0,81,89,468.625,0.239583,Sixteenth,A5
3073,Right,0,82,89,468.75,0.239583,Sixteenth,A#5
3074,Right,0,81,90,468.875,0.239583,Sixteenth,A5
3075,Left,1,71,90,469.0,0.489583,Eighth,G4_D4_B4
3078,Right,0,79,90,469.0,0.239583,Sixteenth,G5
3079,Right,0,81,91,469.125,0.239583,Sixteenth,A5
3080,Right,0,79,92,469.25,0.239583,Sixteenth,G5
3081,Right,0,78,92,469.375,0.239583,Sixteenth,F#5
3082,Right,0,79,93,469.5,0.239583,Sixteenth,G5
3083,Right,0,81,94,469.625,0.239583,Sixteenth,A5
3084,Right,0,83,94,469.75,0.239583,Sixteenth,B5
3085,Right,0,81,95,469.875,0.239583,Sixteenth,A5
3086,Right,0,79,96,470.0,0.239583,Sixteenth,G5
3087,Right,0,78,96,470.125,0.239583,Sixteenth,F#5
3088,Right,0,76,97,470.25,0.239583,Sixteenth,E5
3089,Right,0,74,98,470.375,0.239583,Sixteenth,D5
3090,Right,0,72,98,470.5,0.239583,Sixteenth,C5
3091,Right,0,71,99,470.625,0.239583,Sixteenth,B4
3092,Right,0,69,99,470.75,0.239583,Sixteenth,A4
3093,Right,0,67,110,471.0,0.989583,ThirtySecond,G4_B4
3095,Left,1,50,110,471.0,1.989583,Half,D4_D3
3097,Right,0,69,110,472.0,0.989583,Quarter,F#4_A4
3098,Left,1,60,110,472.0,0.989583,Quarter,C4
3101,Left,1,55,110,473.0,0.489583,Eighth,G3_B3
3100,Right,0,67,110,473.0,0.239583,Sixteenth,G4
3103,Right,0,69,110,473.125,0.239583,Sixteenth,A4
3104,Right,0,71,110,473.25,0.239583,Sixteenth,B4
3105,Right,0,72,110,473.375,0.239583,Sixteenth,C5
3106,Right,0,74,110,473.5,0.239583,Sixteenth,D5
3107,Right,0,72,110,473.625,0.239583,Sixteenth,C5
3108,Right,0,71,110,473.75,0.239583,Sixteenth,B4
3109,Right,0,69,110,473.875,0.239583,Sixteenth,A4
3110,Right,0,67,110,474.0,0.239583,Sixteenth,G4
3111,Right,0,66,110,474.125,0.239583,Sixteenth,F#4
3112,Right,0,64,110,474.25,0.239583,Sixteenth,E4
3113,Right,0,62,110,474.375,0.239583,Sixteenth,D4
3114,Right,0,60,110,474.5,0.239583,Sixteenth,C4
3115,Right,0,59,110,474.625,0.239583,Sixteenth,B3
3116,Right,0,57,110,474.75,0.239583,Sixteenth,A3
3119,Right,0,59,110,475.0,0.989583,Quarter,G3_B3
3117,Left,1,38,110,475.0,1.989583,Half,D3_D2
3122,Left,1,48,110,476.0,0.989583,Quarter,C3
3121,Right,0,54,110,476.0,0.989583,Quarter,F#3_A3
3125,Right,0,55,80,477.0,0.239583,Sixteenth,G3
3124,Left,1,43,80,477.0,0.489583,Eighth,G2_B2
3127,Right,0,50,80,477.25,0.239583,Sixteenth,D3
3128,Right,0,55,80,477.5,0.239583,Sixteenth,G3_B3
3130,Right,0,50,80,477.75,0.239583,Sixteenth,D3
3131,Right,0,60,80,478.0,0.239583,Sixteenth,C4_A3
3133,Right,0,50,80,478.25,0.239583,Sixteenth,D3
3134,Right,0,58,80,478.5,0.239583,Sixteenth,C#4_A#3
3136,Right,0,50,80,478.75,0.239583,Sixteenth,D3
3137,Right,0,59,80,479.0,2.479167,Half,D4_B3
3139,Right,0,50,80,479.25,0.489583,Eighth,D3
3140,Left,1,31,80,479.5,0.489583,Eighth,G1
3141,Right,0,50,80,479.75,0.489583,Eighth,D3
3142,Left,1,35,80,480.0,0.489583,Eighth,B1
3143,Right,0,50,80,480.25,0.489583,Eighth,D3
3144,Left,1,38,80,480.5,0.489583,Eighth,D2
3145,Right,0,50,80,480.75,0.479167,Eighth,D3
3146,Left,1,43,80,481.0,2.489583,Half,G2
3147,Right,0,50,80,481.239583,0.239583,Sixteenth,D3
3148,Right,0,59,80,481.489583,0.489583,Eighth,G3_B3
3150,Right,0,50,80,481.739583,0.239583,Sixteenth,D3
3151,Right,0,64,80,481.989583,0.489583,Eighth,E4_C4
3153,Right,0,50,80,482.239583,0.239583,Sixteenth,D3
3154,Right,0,59,80,482.489583,0.489583,Sixteenth,D4_B3
3156,Right,0,50,80,482.739583,0.239583,Sixteenth,D3
3157,Right,0,57,80,482.989583,2.489583,Half,C4_A3
3159,Right,0,50,80,483.239583,0.489583,Eighth,D3
3160,Left,1,43,80,483.5,0.489583,Eighth,G2
3161,Right,0,50,80,483.739583,0.489583,Eighth,D3
3162,Left,1,42,80,484.0,0.489583,Eighth,F#2
3163,Right,0,50,80,484.239583,0.489583,Eighth,D3
3164,Left,1,40,80,484.5,0.489583,Eighth,E2
3165,Right,0,50,80,484.739583,0.489583,Eighth,D3
3166,Left,1,42,80,485.0,0.989583,Quarter,F#2
3167,Right,0,50,80,485.239583,0.239583,Sixteenth,D3
3168,Right,0,57,80,485.489583,0.489583,Sixteenth,C4_A3
3170,Right,0,50,80,485.739583,0.239583,Sixteenth,D3
3171,Right,0,59,80,485.989583,0.489583,Sixteenth,D4_B3
3173,Left,1,38,80,486.0,1.489583,DottedQuarter,D2
3174,Right,0,50,80,486.239583,0.239583,Sixteenth,D3
3175,Right,0,60,80,486.489583,0.489583,Eighth,C4_A3
3177,Right,0,50,80,486.739583,0.239583,Sixteenth,D3
3178,Right,0,55,80,486.989583,2.489583,Half,G3_B3
3180,Right,0,50,80,487.239583,0.239583,Sixteenth,D3
3181,Left,1,38,80,487.5,0.489583,Eighth,D2
3182,Right,0,51,80,487.739583,0.239583,Sixteenth,D#3
3183,Left,1,40,80,488.0,0.489583,Eighth,E2
3184,Right,0,52,80,488.239583,0.239583,Sixteenth,E3
3185,Left,1,35,80,488.5,0.489583,Eighth,B1
3186,Right,0,47,80,488.739583,0.239583,Sixteenth,B2
3187,Left,1,36,80,489.0,0.489583,Eighth,C2
3188,Right,0,48,80,489.239583,0.239583,Sixteenth,C3
3189,Right,0,57,80,489.489583,0.489583,Eighth,G3_A3
3191,Left,1,36,80,489.5,0.489583,Eighth,C2
3192,Right,0,49,80,489.739583,0.239583,Sixteenth,C#3
3193,Right,0,55,80,489.989583,0.489583,Sixteenth,G3_A3
3195,Left,1,38,80,490.0,1.489583,DottedQuarter,D2
3196,Right,0,50,80,490.239583,0.239583,Sixteenth,D3
3197,Right,0,54,80,490.489583,0.489583,Sixteenth,F#3_C4
3199,Right,0,50,80,490.739583,0.239583,Sixteenth,D3
3200,Right,0,59,80,490.989583,2.489583,Half,G3_B3
3202,Right,0,50,80,491.239583,0.239583,Sixteenth,D3
3203,Left,1,38,80,491.5,0.489583,Eighth,D2
3204,Right,0,51,80,491.739583,0.239583,Sixteenth,D#3
3205,Left,1,40,80,492.0,0.489583,Eighth,E2
3206,Right,0,52,80,492.239583,0.239583,Sixteenth,E3
3207,Left,1,35,80,492.5,0.489583,Eighth,B1
3208,Right,0,47,80,492.739583,0.239583,Sixteenth,B2
3209,Left,1,36,80,493.0,0.489583,Eighth,C2
3210,Right,0,48,80,493.239583,0.239583,Sixteenth,C3
3211,Right,0,57,80,493.489583,0.489583,Eighth,G3_A3
3213,Left,1,36,80,493.5,0.489583,Eighth,C2
3214,Right,0,49,80,493.739583,0.239583,Sixteenth,C#3
3215,Right,0,55,80,493.989583,0.489583,Sixteenth,G3_A3
3217,Left,1,38,80,494.0,1.489583,DottedQuarter,D2
3218,Right,0,50,80,494.239583,0.239583,Sixteenth,D3
3219,Right,0,54,80,494.489583,0.489583,Sixteenth,F#3_C4
3221,Right,0,50,80,494.739583,0.239583,Sixteenth,D3
3222,Right,0,59,80,494.989583,2.489583,Half,G3_B3
3224,Right,0,50,80,495.239583,0.239583,Sixteenth,D3
3225,Left,1,39,80,495.5,0.489583,Eighth,D#2
3226,Right,0,51,80,495.739583,0.239583,Sixteenth,D#3
3227,Left,1,40,80,496.0,0.489583,Eighth,E2
3228,Right,0,52,80,496.239583,0.239583,Sixteenth,E3
3229,Left,1,41,80,496.5,0.489583,Eighth,F2
3230,Right,0,53,80,496.739583,0.239583,Sixteenth,F3
3231,Left,1,40,80,497.0,0.489583,Eighth,E2
3232,Right,0,52,80,497.239583,0.239583,Sixteenth,E3
3233,Right,0,59,80,497.489583,0.489583,Eighth,G3_B3
3235,Left,1,41,80,497.5,0.489583,Eighth,F2
3236,Right,0,50,80,497.739583,0.239583,Sixteenth,D3
3237,Right,0,55,80,497.989583,0.489583,Sixteenth,G3_C4
3239,Left,1,40,80,498.0,0.489583,Eighth,E2
3240,Right,0,52,80,498.239583,0.239583,Sixteenth,E3
3241,Right,0,62,80,498.489583,0.489583,Eighth,D4_B3
3243,Left,1,38,80,498.5,0.489583,Eighth,D2
3244,Right,0,53,80,498.739583,0.239583,Sixteenth,F3
3245,Right,0,55,80,498.989583,0.989583,Sixteenth,G3_E4
3247,Left,1,36,80,499.0,0.989583,Quarter,C2
3248,Right,0,52,80,499.239583,0.239583,Sixteenth,E3
3249,Right,0,55,80,499.489583,0.239583,Sixteenth,G3
3250,Right,0,52,80,499.739583,0.239583,Sixteenth,E3
3251,Right,0,57,80,499.989583,0.989583,Quarter,G3_A3
3253,Left,1,37,80,500.0,0.989583,Quarter,C#2
3254,Right,0,52,80,500.239583,0.239583,Sixteenth,E3
3255,Right,0,55,80,500.489583,0.239583,Sixteenth,G3
3256,Right,0,52,80,500.739583,0.239583,Sixteenth,E3
3257,Right,0,55,80,500.989583,0.989583,Sixteenth,G3_B3
3259,Left,1,38,80,501.0,0.989583,Quarter,D2
3260,Right,0,50,80,501.239583,0.239583,Sixteenth,D3
3261,Right,0,55,80,501.489583,0.239583,Sixteenth,G3
3262,Right,0,50,80,501.739583,0.239583,Sixteenth,D3
3263,Right,0,54,80,501.989583,0.739583,Sixteenth,F#3_C4
3265,Left,1,38,80,502.0,0.989583,Quarter,D2
3266,Right,0,50,80,502.239583,0.239583,Sixteenth,D3
3267,Right,0,54,80,502.489583,0.239583,Sixteenth,F#3
3268,Right,0,57,80,502.739583,0.239583,Sixteenth,D3_A3
3270,Right,0,55,80,502.989583,0.989583,Quarter,G3
3271,Left,1,43,80,503.5,1.489583,DottedQuarter,G2
3272,Left,1,47,80,503.75,1.239583,TiedQuarter-Sixteenth,B2
3273,Left,1,50,80,504.0,0.989583,Quarter,D3
3274,Right,0,62,80,504.239583,0.239583,Sixteenth,D4
3275,Right,0,74,80,504.489583,0.239583,Sixteenth,D5
3276,Right,0,70,80,504.739583,0.239583,Sixteenth,A#4
3277,Right,0,71,80,504.989583,1.239583,TiedQuarter-Sixteenth,B4
3278,Left,1,43,80,505.5,1.489583,DottedQuarter,G2
3279,Left,1,50,80,505.75,1.239583,TiedQuarter-Sixteenth,D3
3280,Left,1,53,80,506.0,0.989583,Quarter,F3
3281,Right,0,67,80,506.239583,0.239583,Sixteenth,G4
3282,Right,0,79,80,506.489583,0.239583,Sixteenth,G5
3283,Right,0,71,80,506.739583,0.239583,Sixteenth,B4
3284,Right,0,72,80,506.989583,1.239583,TiedQuarter-Sixteenth,C5
3285,Left,1,43,80,507.5,1.489583,DottedQuarter,G2
3286,Left,1,48,80,507.75,1.239583,TiedQuarter-Sixteenth,C3
3287,Left,1,52,80,508.0,0.989583,Quarter,E3
3288,Right,0,72,80,508.239583,0.239583,Sixteenth,C5
3289,Right,0,84,80,508.489583,0.239583,Sixteenth,C6
3290,Right,0,83,80,508.739583,0.239583,Sixteenth,B5
3291,Right,0,81,80,508.989583,0.739583,DottedEighth,A5
3292,Left,1,43,80,509.5,1.489583,DottedQuarter,G2
3293,Right,0,79,80,509.739583,0.239583,Sixteenth,G5
3294,Left,1,50,80,509.75,1.239583,TiedQuarter-Sixteenth,D3
3295,Right,0,78,80,509.989583,0.239583,Sixteenth,F#5
3296,Left,1,54,80,510.0,0.989583,Quarter,F#3
3297,Right,0,76,80,510.239583,0.239583,Sixteenth,E5
3298,Right,0,74,80,510.489583,0.239583,Sixteenth,D5
3299,Right,0,72,80,510.739583,0.239583,Sixteenth,C5
3300,Right,0,70,80,510.989583,0.489583,Eighth,A#4
3301,Right,0,71,80,511.489583,0.489583,Eighth,B4
3302,Left,1,43,80,511.5,1.489583,DottedQuarter,G2
3303,Left,1,50,80,511.75,1.239583,TiedQuarter-Sixteenth,D3
3304,Left,1,55,80,512.0,0.989583,Quarter,G3
3305,Right,0,62,80,512.239583,0.239583,Sixteenth,D4
3306,Right,0,74,80,512.489583,0.239583,Sixteenth,D5
3307,Right,0,70,80,512.739583,0.239583,Sixteenth,A#4
3308,Right,0,71,80,512.989583,1.239583,TiedQuarter-Sixteenth,B4
3309,Left,1,43,84,513.5,1.489583,DottedQuarter,G2
3310,Left,1,50,86,513.75,1.239583,TiedQuarter-Sixteenth,D3
3311,Left,1,53,88,514.0,0.989583,Quarter,F3
3312,Right,0,67,89,514.239583,0.239583,Sixteenth,G4
3313,Right,0,79,91,514.489583,0.239583,Sixteenth,G5
3314,Right,0,71,93,514.739583,0.239583,Sixteenth,B4
3315,Right,0,72,95,514.989583,1.239583,TiedQuarter-Sixteenth,C5
3316,Left,1,43,100,515.5,1.489583,DottedQuarter,G2
3317,Left,1,48,102,515.75,1.239583,TiedQuarter-Sixteenth,C3
3318,Left,1,52,104,516.0,0.989583,Quarter,E3
3319,Right,0,72,105,516.239583,0.239583,Sixteenth,C5
3320,Right,0,88,107,516.489583,0.239583,Sixteenth,E6
3321,Right,0,86,109,516.739583,0.239583,Sixteenth,D6
3322,Right,0,84,110,516.989583,1.239583,TiedQuarter-Sixteenth,C6
3323,Left,1,43,108,517.5,5.489583,Unknown,G2
3324,Left,1,45,106,517.75,5.239583,Unknown,A2
3325,Left,1,54,105,518.0,4.989583,Unknown,F#3
3326,Right,0,83,104,518.239583,0.239583,Sixteenth,B5
3327,Right,0,81,103,518.489583,0.239583,Sixteenth,A5
3328,Right,0,79,101,518.739583,0.239583,Sixteenth,G5
3329,Right,0,78,100,518.989583,0.239583,Sixteenth,F#5
3330,Right,0,76,99,519.239583,0.239583,Sixteenth,E5
3331,Right,0,74,97,519.489583,0.239583,Sixteenth,D5
3332,Right,0,72,96,519.739583,0.239583,Sixteenth,C5
3333,Right,0,71,95,519.989583,0.239583,Sixteenth,B4
3334,Right,0,69,93,520.239583,0.239583,Sixteenth,A4
3335,Right,0,67,92,520.489583,0.239583,Sixteenth,G4
3336,Right,0,66,91,520.739583,0.239583,Sixteenth,F#4
3337,Right,0,64,80,520.989583,0.239583,Sixteenth,E4
3338,Right,0,62,80,521.239583,0.239583,Sixteenth,D4
3339,Right,0,61,80,521.489583,0.239583,Sixteenth,C#4
3340,Right,0,62,80,521.739583,0.239583,Sixteenth,D4
3341,Right,0,61,80,521.989583,0.239583,Sixteenth,C#4
3342,Right,0,62,80,522.239583,0.239583,Sixteenth,D4
3343,Right,0,64,80,522.489583,0.239583,Sixteenth,E4
3344,Right,0,60,80,522.739583,0.239583,Sixteenth,C4
3345,Right,0,59,80,522.989583,0.489583,Eighth,B3
3346,Left,1,50,80,523.0,0.489583,Eighth,G3_G2_D3_B2
3350,Left,1,66,80,524.0,0.989583,Quarter,F#4_D4
3352,Right,0,75,80,524.239583,0.239583,Sixteenth,D#5
3353,Right,0,76,80,524.489583,0.239583,Sixteenth,E5
3354,Right,0,72,80,524.739583,0.239583,Sixteenth,C5
3355,Right,0,71,80,524.989583,0.489583,Eighth,B4
3356,Left,1,67,80,525.0,0.489583,Eighth,G4_G3
3358,Left,1,74,80,526.0,0.989583,Quarter,F#5_D5
3360,Right,0,87,80,526.239583,0.239583,Sixteenth,D#6
3361,Right,0,88,80,526.489583,0.239583,Sixteenth,E6
3362,Right,0,84,80,526.739583,0.239583,Sixteenth,C6
3364,Left,1,78,80,527.0,1.989583,Half,F#5_D5
3363,Right,0,84,80,527.0,1.489583,DottedQuarter,C6
3366,Right,0,83,80,528.489583,0.239583,Sixteenth,B5
3367,Right,0,84,80,528.614583,0.239583,Sixteenth,C6
3368,Right,0,86,80,528.739583,0.239583,Sixteenth,D6
3369,Right,0,84,80,528.864583,0.114583,ThirtySecond,C6
3370,Right,0,83,80,528.989583,0.989583,Quarter,B5
3371,Left,1,79,80,529.0,0.989583,Quarter,G5_G4
